<?xml version="1.0" encoding="UTF-8" standalone="no"?>
<!-- Created with Inkscape (http://www.inkscape.org/) -->

<svg
   version="1.1"
   id="svg1249"
   width="92"
   height="98"
   viewBox="0 0 92 98"
   sodipodi:docname="AED2.svg"
   inkscape:version="1.2.2 (b0a84865, 2022-12-01)"
   xmlns:inkscape="http://www.inkscape.org/namespaces/inkscape"
   xmlns:sodipodi="http://sodipodi.sourceforge.net/DTD/sodipodi-0.dtd"
   xmlns="http://www.w3.org/2000/svg"
   xmlns:svg="http://www.w3.org/2000/svg">
  <defs
     id="defs1253" />
  <sodipodi:namedview
     id="namedview1251"
     pagecolor="#ffffff"
     bordercolor="#666666"
     borderopacity="1.0"
     inkscape:showpageshadow="2"
     inkscape:pageopacity="0.0"
     inkscape:pagecheckerboard="0"
     inkscape:deskcolor="#d1d1d1"
     showgrid="false"
     inkscape:zoom="2.4081633"
     inkscape:cx="45.677966"
     inkscape:cy="49"
     inkscape:window-width="725"
     inkscape:window-height="480"
     inkscape:window-x="0"
     inkscape:window-y="25"
     inkscape:window-maximized="0"
     inkscape:current-layer="g1255" />
  <g
     inkscape:groupmode="layer"
     inkscape:label="Image"
     id="g1255">
    <g
       id="g1376">
      <path
         style="fill:#abccd7"
         d="M 11.5,91.839317 C 5.9761969,88.801596 6.0462692,89.315408 6.0222358,51.673077 L 6,16.846154 8.9230769,13.923077 11.846154,11 H 46.819485 81.792816 L 84.896408,14.534796 88,18.069592 88.102177,36.284796 C 88.39972,89.328094 88.647748,85.552252 84.6,89.6 L 81.2,93 47.35,92.969591 C 24.668365,92.949216 12.840126,92.576296 11.5,91.839317 Z M 37.208794,76.929288 C 27.17932,75.626659 20.582344,70.656037 16.361506,61.221487 c -2.377955,-5.31528 -3.247125,-14.55611 -1.472285,-15.653022 0.489071,-0.302262 1.199107,-1.79132 1.577858,-3.309017 0.964582,-3.865191 4.999381,-8.877991 9.592382,-11.917495 2.879524,-1.905579 5.927662,-2.791085 11.669093,-3.389956 L 45.5,26.141381 36.836454,26.386887 C 28.808978,26.614369 27.802055,26.8845 23.12172,30.066197 7.8156224,40.471298 7.7130527,62.906138 22.923388,73.446908 27.632739,76.71049 31.574511,77.80469 38.5,77.770834 c 4.989694,-0.02439 4.987033,-0.02613 -1.291206,-0.841546 z M 87.5,67 C 87.86563,66.408398 86.732607,66 84.725684,66 79.806852,66 79.550946,65.053327 83.493565,61.442028 85.422104,59.675555 87,57.513825 87,56.638183 87,54.047782 82.866825,51.941142 79.533541,52.832599 76.218453,53.719191 75.182489,55.472314 77.457736,56.345408 78.305981,56.67091 79,56.501354 79,55.968615 79,55.435877 80.125,55 81.5,55 85.325846,55 84.638595,58.152082 80,61.879759 74.329479,66.436713 74.697548,68 81.440983,68 84.433524,68 87.160081,67.55 87.5,67 Z M 31.84414,61.44273 c 1.022951,-2.245132 1.683355,-2.519765 5.410515,-2.25 3.276694,0.237161 4.470576,0.820648 5.232473,2.55727 0.593968,1.353854 1.864674,2.25 3.190427,2.25 h 2.203299 l -2.424512,-7.12836 c -1.333482,-3.920599 -2.819624,-7.633099 -3.30254,-8.25 C 41.670887,48.004738 40.980152,46.2625 40.618835,44.75 40.089053,42.532288 39.399916,42 37.0585,42 c -2.473635,0 -3.082185,0.555075 -4.111271,3.75 -0.664331,2.0625 -1.535454,4.2 -1.935829,4.75 -0.400375,0.55 -1.419131,3.025 -2.263902,5.5 -0.844771,2.475 -1.856692,5.2875 -2.248712,6.25 -1.242685,3.051079 3.944292,2.267727 5.345354,-0.80727 z M 34.536017,52.75 c 0.382211,-1.7875 1.187284,-3.859756 1.789053,-4.605012 0.867689,-1.074585 1.345436,-0.660674 2.308449,2 C 40.502092,55.307597 40.299519,56 36.920545,56 c -2.95014,0 -3.050273,-0.136477 -2.384528,-3.25 z m 25.200009,9.557413 c 0.258906,-0.786938 -1.245143,-1.297151 -4.42183,-1.5 C 50.894938,60.525219 50.474042,60.274401 50.183578,57.75 49.890732,55.204905 50.132893,55 53.433578,55 56.294441,55 57,54.616867 57,53.063358 57,51.609375 56.190021,51.04862 53.75,50.813358 51.041917,50.552251 50.447239,50.041455 50.183578,47.75 49.875235,45.070223 49.99653,45 54.933578,45 58.770398,45 60,44.635955 60,43.5 60,42.3 58.5,42 52.5,42 H 45 v 4.054864 c 0,2.230175 0.867109,5.958286 1.926909,8.284691 1.0598,2.326405 2.239214,5.47415 2.62092,6.994989 0.646479,2.575778 1.005699,2.744625 5.244922,2.465309 2.503001,-0.164919 4.727475,-0.836517 4.943275,-1.49244 z M 76.75,62.01096 C 82.631705,58.424815 80.222106,57.3595 72.006602,59.913842 70.085233,60.511229 68.172733,61 67.756602,61 67.340471,61 67,57.4 67,53 v -8 h 3 c 2.896866,0 7,2.93081 7,5 0,1.258177 2.68638,1.316464 3.453687,0.07494 0.963471,-1.558929 -1.53439,-5.790677 -4.111012,-6.964664 C 75.002445,42.499622 71.227068,42 67.952947,42 H 62 v 11 11 l 5.75,-0.0037 c 3.966886,-0.0026 6.757847,-0.618235 9,-1.985302 z"
         id="path1390" />
      <path
         style="fill:#99bac6"
         d="M 9.4,89.6 6,86.2 V 51.796167 17.392334 L 9.2976072,14.196167 12.595214,11 h 33.768135 c 20.311329,0 34.50333,0.393465 35.613015,0.98735 1.014685,0.543043 2.785101,2.508659 3.934259,4.368034 C 87.823239,19.450062 88,21.229681 88,37.391087 V 55.046106 L 85.558114,53.446121 C 84.215077,52.566129 82.261982,50.193255 81.217903,48.173068 78.713157,43.32664 75.882957,42.032504 67.75,42.014742 L 61,42 v 10.932612 c 0,12.611216 0.137839,12.78038 9.464302,11.615115 4.170717,-0.521096 5.916447,-1.345346 8.504274,-4.015305 1.971605,-2.034181 2.959736,-3.839399 2.504647,-4.575748 -0.474506,-0.767767 -0.262482,-1.053094 0.575081,-0.773906 2.047101,0.682367 2.232737,2.497299 0.406861,3.977806 C 79.50775,61.550478 75,66.425323 75,67.222861 75,67.650288 77.925,68 81.5,68 86.611111,68 88,67.679487 88,66.5 88,65.434236 86.91441,64.99853 84.25,64.994923 l -3.75,-0.0051 3.5,-3.37532 c 1.925,-1.856426 3.678353,-3.213288 3.896339,-3.01525 0.217987,0.198039 0.325889,6.089166 0.239782,13.091393 -0.146291,11.896374 -0.324263,12.97332 -2.713727,16.421318 -1.406443,2.029498 -3.539345,3.953405 -4.739782,4.27535 C 79.482176,92.709281 63.7175,92.978835 45.65,92.986345 L 12.8,93 Z M 46,76.981257 C 47.613371,76.45247 46.549417,76.348484 43,76.688052 37.728482,77.192371 30.019927,75.833989 27.632728,73.98007 19.786713,67.886792 18.016035,65.607236 15.885599,58.856915 13.72125,51.99914 13.712377,51.751436 15.431514,46.181228 19.160524,34.09879 26.367963,28.062469 38.393266,26.950472 L 45.5,26.293301 38.399223,26.146651 C 30.015342,25.9735 25.741991,27.241208 21.06699,31.288329 10.556294,40.38738 8.2808581,53.661222 15.159483,65.75 c 1.643014,2.8875 3.31942,5.25 3.725346,5.25 0.405927,0 1.769957,0.96137 3.031179,2.136377 C 26.297184,77.218062 39.060586,79.255671 46,76.981257 Z M 30.615219,64.234687 C 31.228589,63.830609 32.046414,62.4875 32.432606,61.25 32.995541,59.446156 33.871825,59 36.85178,59 c 3.08511,0 4.024063,0.519808 5.523219,3.057677 1.289333,2.182667 2.424165,2.962836 3.965608,2.726259 C 48.827806,64.402207 48.870128,64.809576 45.324141,55 41.424381,44.211749 39.775909,41.551657 36.767803,41.19288 c -2.20204,-0.262637 -2.752672,0.244294 -3.801723,3.5 C 32.291381,46.786796 31.410992,48.95 31.009661,49.5 30.19815,50.612125 26,62.926001 26,64.194172 c 0,1.002922 3.112852,1.030249 4.615219,0.04051 z m 4.134192,-11.704148 c 0.842457,-4.407028 2.799912,-4.905617 3.993317,-1.017148 C 39.786239,54.913461 39.744103,55 37.045071,55 34.641181,55 34.3394,54.675372 34.749411,52.530539 Z M 59.5,62.5 c 0,-1.63804 -0.769166,-2.055651 -4.25,-2.307498 C 51.493942,59.920742 51,59.601133 51,57.442502 51,55.317738 51.455305,55 54.5,55 57.333333,55 58,54.619048 58,53 58,51.380952 57.333333,51 54.5,51 51.277778,51 51,50.761905 51,48 51,45.111111 51.166667,45 55.5,45 58.833333,45 60,44.611111 60,43.5 60,42.3 58.5,42 52.5,42 H 45 v 4.530132 c 0,4.583778 4.19807,16.283035 6.362404,17.73086 0.625678,0.418546 2.712596,0.643546 4.637596,0.5 C 58.746336,64.5562 59.5,64.069335 59.5,62.5 Z M 48.729167,27.395833 c -0.332292,-0.332291 -1.194792,-0.367818 -1.916667,-0.07895 -0.797733,0.319226 -0.560776,0.556183 0.604167,0.604167 1.054166,0.04342 1.644791,-0.192928 1.3125,-0.52522 z M 67,52.5 c 0,-7.369048 0.04444,-7.5 2.545455,-7.5 4.586846,0 9.719423,7.482194 6.498219,9.473008 -0.525979,0.325073 -0.716078,1.217119 -0.422441,1.982325 C 76.267668,58.139916 73.090015,60 69.565741,60 67.039485,60 67,59.884579 67,52.5 Z"
         id="path1388" />
      <path
         style="fill:#5e94a6"
         d="M 12.388117,92.019931 C 11.226582,91.550618 9.314082,89.943455 8.1381174,88.448458 6.04928,85.792932 6,84.947443 6,51.765141 V 17.8 L 9.4,14.4 12.8,11 h 34.147749 34.147749 l 2.56312,2.75 C 87.640306,18.021997 88,19.99982 88,37.621636 V 54.113072 L 85.177413,52.445729 C 83.624989,51.52869 81.882125,49.526059 81.30438,47.995438 79.26022,42.579841 76.245598,41.632198 59.74872,41.21944 l -14.983197,-0.374884 0.406174,7.188261 c 0.278761,4.933388 0.125255,6.447788 -0.489358,4.827722 C 40.934794,42.982337 39.650443,41 36.997925,41 c -2.277803,0 -3.024749,0.826546 -5.196242,5.75 -1.394823,3.1625 -3.100173,7.55 -3.789665,9.75 -0.689493,2.2 -1.649262,4.4275 -2.13282,4.95 -1.60972,1.739351 -0.90745,3.550192 1.370802,3.534687 2.757636,-0.01877 4.195369,-0.941224 5.041557,-3.234687 0.464465,-1.258862 1.744805,-1.75 4.562048,-1.75 3.073983,0 4.268714,0.537737 5.554438,2.5 1.048108,1.599615 2.569189,2.5 4.223418,2.5 2.28478,0 2.522502,-0.319717 2.044737,-2.75 L 48.13558,59.5 49.260832,62.25 C 50.268464,64.71255 50.888542,65 55.193042,65 58.0806,65 60,64.551812 60,63.877555 c 0,-0.767417 0.482268,-0.722197 1.524725,0.142965 1.067596,0.886026 3.690935,1.102252 8.75,0.721209 3.973901,-0.29931 6.662775,-0.326144 5.975275,-0.05963 -0.6875,0.266513 -1.25,1.100596 -1.25,1.853518 0,0.980821 1.772016,1.453359 6.25,1.666667 L 87.5,68.5 87.788377,76.045169 C 88.037512,82.563602 87.76127,84.058484 85.758362,87.0306 81.772905,92.944619 81.569241,92.975182 46.5,92.921872 28.9,92.895117 13.549653,92.489244 12.388117,92.019931 Z M 47.979764,76.39142 C 50.190894,75.506701 52,74.371328 52,73.868367 52,73.365407 50.9875,73.586134 49.75,74.358872 46.429732,76.432161 39.663468,77.157158 34.478532,75.995189 20.513596,72.865581 12.595612,59.48832 16.009661,44.792437 17.01943,40.445855 18.211165,38.567252 22.677893,34.280904 30.202368,27.060289 38.878449,25.115071 48.5,28.491465 c 3.434055,1.205079 3.733793,1.205037 2.118493,-2.95e-4 -4.834646,-3.6076 -16.743669,-4.067077 -24.346851,-0.939357 -3.973657,1.634642 -10.411598,7.884366 -12.719792,12.34792 -3.5544734,6.873594 -2.890638,20.527254 1.270484,26.131132 3.215745,4.330714 7.705219,8.196041 11.677666,10.054182 5.09256,2.382082 15.906564,2.536326 21.479764,0.306373 z M 57,33.622445 c 0,-0.207656 -0.7875,-0.995156 -1.75,-1.75 C 53.663944,30.628574 53.628574,30.663944 54.872445,32.25 56.178814,33.915748 57,34.445479 57,33.622445 Z M 82.711045,63.219942 C 83.69497,62.240911 85.2875,60.835811 86.25,60.097498 87.829638,58.885792 88,59.059079 88,61.877555 88,64.785944 87.75739,65 84.461045,65 c -3.396531,0 -3.466959,-0.07164 -1.75,-1.780058 z M 79.75,60.406913 c 1.2375,-0.907971 2.25,-2.58597 2.25,-3.728885 0,-1.573978 0.280794,-1.797234 1.157618,-0.92041 1.368211,1.368211 -0.241406,3.765889 -3.575374,5.325864 -1.835168,0.858681 -1.815262,0.778401 0.167756,-0.676569 z m -24,-0.141952 C 51.480499,59.928306 51,59.643066 51,57.445209 51,55.317351 51.454247,55 54.5,55 57.333333,55 58,54.619048 58,53 58,51.380952 57.333333,51 54.5,51 51.277778,51 51,50.761905 51,48 c 0,-2.933333 0.111111,-3 5,-3 h 5 v 8 c 0,4.4 -0.1125,7.918888 -0.25,7.819752 -0.1375,-0.09914 -2.3875,-0.348793 -5,-0.554791 z M 67,52.5 C 67,45.766399 67.196533,45 68.923275,45 71.576457,45 77,49.760211 77,52.088894 77,53.140002 76.501855,54 75.893011,54 75.284167,54 75.02882,54.63272 75.325572,55.406044 76.08257,57.378749 72.856294,60 69.671259,60 67.013692,60 67,59.961557 67,52.5 Z M 35.054777,52.355925 C 36.692622,48.048066 37.29258,47.49888 38.102217,49.566376 39.593438,53.37437 39.121492,55 36.524751,55 34.261719,55 34.13569,54.773309 35.054777,52.355925 Z"
         id="path1386" />
      <path
         style="fill:#467686"
         d="M 13.418438,92.031147 C 12.27358,91.568003 10.13608,89.762001 8.6684385,88.017808 L 6,84.846549 V 51.523275 18.2 L 9.6,14.6 13.2,11 H 46.584223 79.968447 L 83.234223,13.915734 86.5,16.831468 86.813896,34.985114 87.127793,53.13876 85.016029,52.008578 C 83.854559,51.386978 82.454643,49.695803 81.905106,48.25041 81.355569,46.805018 79.914609,44.919879 78.702974,44.061212 73.466572,40.350258 63.653831,38.746169 61.2,41.2 60.266667,42.133333 60,42.133333 60,41.2 60,40.373333 57.666667,40 52.5,40 H 45 l -0.06768,5.75 c -0.05867,4.984687 -0.208542,5.417255 -1.126011,3.25 -3.237166,-7.646872 -4.274136,-9 -6.897149,-9 -2.249501,0 -3.006488,0.843144 -5.162428,5.75 -1.389517,3.1625 -3.080332,7.55 -3.757366,9.75 -0.677034,2.2 -1.62661,4.4275 -2.110168,4.95 C 25.395639,60.9725 25,62.21 25,63.2 c 0,1.379517 0.792281,1.8 3.391592,1.8 2.783709,0 3.504053,-0.448081 4.019052,-2.5 0.529515,-2.109756 1.211861,-2.5 4.37128,-2.5 2.92333,0 3.960156,0.493106 4.730948,2.25 0.966877,2.203841 1.329026,2.25 17.652912,2.25 12.896902,0 16.439216,0.272775 15.66391,1.206195 C 72.997323,67.912258 75.054485,69 81.059017,69 H 87 v 7.852117 c 0,6.498565 -0.389793,8.430531 -2.261238,11.207568 -1.243681,1.845498 -3.381181,3.667189 -4.75,4.048203 -3.583001,0.997336 -64.087697,0.927587 -66.570324,-0.07674 z M 47,76.961582 c 1.925,-0.526534 5.098285,-2.42079 7.051745,-4.209458 C 56.005204,70.963456 56.869771,70.0625 55.973004,70.75 55.076237,71.4375 53.847595,72 53.242688,72 52.637781,72 51.461005,72.681852 50.627631,73.515226 48.528198,75.614659 40.307693,76.995863 35.5,76.05696 30.347986,75.050814 23.945531,71.309801 20.855425,67.5 8.8735671,52.727534 17.678432,29.924728 36.352733,27.365131 41.061121,26.719774 51,28.57534 51,30.099741 51,30.594883 51.533497,31 52.185549,31 c 0.652052,0 2.314213,1.0125 3.693691,2.25 l 2.508142,2.25 -2.443691,-3.097606 c -5.767268,-7.310549 -20.88072,-9.536139 -30.708926,-4.522162 -4.672617,2.383791 -11.158859,9.624102 -12.908687,14.409409 -1.555789,4.254663 -1.620975,13.994043 -0.127035,18.98037 1.086916,3.627801 10.437984,14.654595 12.528921,14.774122 0.42462,0.02427 3.022036,0.688635 5.772036,1.476361 4.979848,1.426455 9.8439,1.261693 16.5,-0.558912 z M 83.5,63 c 0.995486,-1.1 2.190231,-2 2.654988,-2 C 86.619744,61 87,61.9 87,63 87,64.497801 86.333333,65 84.345012,65 81.753367,65 81.733207,64.952285 83.5,63 Z M 51,57.5 c 0,-2.257121 0.395363,-2.5 4.069551,-2.5 3.64829,0 4.036472,-0.232909 3.75,-2.25 C 58.562869,50.942671 57.762215,50.438938 54.75,50.189635 51.812244,49.946494 51,49.459148 51,47.939635 51,46.398416 51.702127,46 54.418213,46 c 1.880016,0 4.130016,-0.273145 5,-0.606989 C 60.775166,44.872299 61,45.867275 61,52.393011 V 60 h -5 c -4.666667,0 -5,-0.166667 -5,-2.5 z M 67,53 v -7 h 2.845012 C 72.94565,46 76,48.660272 76,51.360859 c 0,0.936858 -0.652038,3.263925 -1.448973,5.17126 C 73.34651,59.414933 72.587314,60 70.051027,60 H 67 Z m 15.078947,4.416667 c 0.04798,-1.164943 0.284941,-1.4019 0.604167,-0.604167 0.288871,0.721875 0.253344,1.584375 -0.07895,1.916667 -0.332292,0.332291 -0.568641,-0.258334 -0.52522,-1.3125 z M 35.714326,52.984416 C 36.277491,50.83087 38,49.229281 38,50.859196 c 0,0.537476 0.273145,1.689033 0.606989,2.559017 C 39.036623,54.537821 38.625695,55 37.200608,55 35.67438,55 35.314769,54.512324 35.714326,52.984416 Z"
         id="path1384" />
      <path
         style="fill:#1c6f8c"
         d="M 9.5,88.947225 6.5,86.008766 6.2113937,52.425342 5.9227875,18.841918 9.8437467,14.920959 13.764706,11 h 32.052547 c 17.949898,0 33.158143,0.420347 34.565348,0.955365 5.204762,1.978847 6.087147,5.034021 6.457229,22.357549 0.197704,9.254473 -0.05921,16.306465 -0.614285,16.861541 C 85.101647,52.298353 82,49.586144 82,47.479463 c 0,-0.757724 -1.650713,-2.638082 -3.668252,-4.178572 -3.580846,-2.734152 -4.021657,-2.808565 -18.5,-3.122936 L 45,39.85591 44.93232,45.677955 C 44.874547,50.647759 44.714651,51.134045 43.839999,49 40.693601,41.323168 39.68492,40 36.979093,40 c -2.334637,0 -3.052653,0.789049 -5.232361,5.75 -1.389517,3.1625 -3.080332,7.55 -3.757366,9.75 -0.677034,2.2 -1.62661,4.4275 -2.110168,4.95 C 25.395639,60.9725 25,62.21 25,63.2 c 0,1.379517 0.792281,1.8 3.391592,1.8 2.783709,0 3.504053,-0.448081 4.019052,-2.5 0.529515,-2.109756 1.211861,-2.5 4.37128,-2.5 2.92333,0 3.960156,0.493106 4.730948,2.25 1.113761,2.538639 1.05066,2.530496 20.643508,2.663855 12.143758,0.08266 12.635197,0.167151 12.133369,2.086145 -0.484819,1.853952 -0.03068,2 6.219021,2 h 6.742033 l -0.446589,8.508642 c -0.404119,7.699462 -0.71914,8.793122 -3.312493,11.5 L 80.625818,92 46.562909,91.942842 12.5,91.885684 Z M 48.221487,76.595903 c 5.278582,-2.404129 12.40376,-8.30399 11.327904,-9.379845 -0.313781,-0.313781 -1.485587,0.411708 -2.604014,1.612198 -1.118426,1.20049 -4.248715,3.305242 -6.956196,4.677226 C 39.130337,79.008075 25.787237,75.194155 19.25,64.719159 16.373737,60.110356 16,58.691157 16,52.377872 16,41.446316 19.247214,35.735335 28.5,30.393719 c 6.932194,-4.001944 14.782592,-3.98221 22.339575,0.05616 2.936767,1.569374 5.55906,3.425376 5.827319,4.124447 0.268259,0.699072 1.138363,1.520705 1.933564,1.825853 1.106815,0.424724 1.227452,0.149763 0.514504,-1.172681 -3.1106,-5.769834 -13.07799,-10.70736 -21.614962,-10.70736 -10.210237,0 -20.342479,6.513633 -24.550546,15.782614 -2.369486,5.219192 -2.56478,15.700674 -0.406585,21.821524 4.78597,13.573478 22.169418,20.624391 35.678618,14.47163 z M 83,64.122445 c 0,-1.260517 2.935475,-3.520303 3.647705,-2.808074 C 87.671762,62.338428 86.143464,65 84.531385,65 83.689123,65 83,64.6051 83,64.122445 Z M 51.180449,57.75 C 51.437131,55.942671 52.237785,55.438938 55.25,55.189635 58.473778,54.922822 59,54.536926 59,52.439635 59,50.252742 58.578011,50 54.926676,50 c -3.339287,0 -4.013439,-0.31536 -3.741006,-1.75 0.2504,-1.31861 1.501017,-1.825134 5.073324,-2.054791 L 61,45.890418 V 52.945209 60 h -5.069551 c -4.685327,0 -5.045332,-0.170529 -4.75,-2.25 z M 67,53.468615 c 0,-7.145904 0.859023,-8.233111 5.20084,-6.582355 3.047222,1.158551 4.213182,4.894581 2.738233,8.77399 C 73.693133,58.93732 72.342947,59.963638 69.25,59.984687 67.144764,59.999015 67,59.579774 67,53.468615 Z m 15.078947,3.948052 c 0.04798,-1.164943 0.284941,-1.4019 0.604167,-0.604167 0.288871,0.721875 0.253344,1.584375 -0.07895,1.916667 -0.332292,0.332291 -0.568641,-0.258334 -0.52522,-1.3125 z M 35.714326,52.984416 C 36.277491,50.83087 38,49.229281 38,50.859196 c 0,0.537476 0.273145,1.689033 0.606989,2.559017 C 39.036623,54.537821 38.625695,55 37.200608,55 35.67438,55 35.314769,54.512324 35.714326,52.984416 Z"
         id="path1382" />
      <path
         style="fill:#1a5065"
         d="M 9.5,88.947225 6.5,86.008766 6.2113937,52.425342 5.9227875,18.841918 9.8437467,14.920959 13.764706,11 h 32.249613 c 42.81878,0 40.969572,-1.1619569 40.980104,25.75 0.0053,13.539526 -0.09319,14.25 -1.975371,14.25 -1.287202,0 -2.204146,-0.889294 -2.618278,-2.539323 -0.350531,-1.396628 -2.234818,-3.759128 -4.187304,-5.25 -3.435823,-2.623514 -4.026897,-2.721033 -18.381722,-3.032722 L 45,39.85591 44.92392,44.677955 C 44.84894,49.430358 44.83089,49.456673 43.67392,46.5 41.310458,40.460087 40.02357,39 37.06359,39 33.898881,39 31.320431,42.386032 29.005877,49.581426 28.312605,51.736642 26.677671,56.07394 25.37269,59.219868 24.067711,62.365795 23,65.178295 23,65.469868 23,65.76144 25.036138,66 27.524751,66 31.431019,66 32.179424,65.658278 33,63.5 33.727691,61.586026 34.666889,61 37.006634,61 c 1.997968,0 3.279696,0.605927 3.701809,1.75 0.355121,0.9625 1.088916,2.046624 1.630657,2.409164 0.54174,0.36254 7.887064,0.407249 16.322941,0.09935 C 73.761044,64.707429 74,64.73147 74,66.801637 c 0,1.881169 0.659079,2.134323 6.25,2.400646 L 86.5,69.5 86.46421,77.721688 c -0.03346,7.687443 -0.224311,8.418469 -2.937091,11.25 L 80.625818,92 46.562909,91.942842 12.5,91.885684 Z M 47.869306,76.86557 c 5.21566,-2.167531 12.892191,-8.437407 11.740466,-9.589132 -0.346991,-0.34699 -1.545968,0.351328 -2.664395,1.551818 C 53.122436,72.931701 45.547092,76 39.239007,76 31.692628,76 24.159239,71.702687 19.325818,64.640809 16.301096,60.221535 16,59.116765 16,52.437862 16,44.939197 17.122316,41.004073 20.242828,37.561439 21.209272,36.49523 22,35.290756 22,34.884829 c 0,-0.405926 2.558521,-2.201885 5.685601,-3.991019 7.634168,-4.367828 15.43458,-4.579633 22.824481,-0.619753 2.755545,1.476559 5.825268,3.63672 6.821606,4.800358 0.996338,1.163639 2.083995,1.843235 2.417016,1.510215 C 60.809495,35.523838 54.67788,29.906636 49.5,27.195741 36.887453,20.592404 20.052419,26.226852 13.578593,39.218127 c -4.8948172,9.822618 -3.033537,23.582589 4.214276,31.155063 7.863885,8.216143 19.753076,10.782575 30.076437,6.49238 z M 84.5,63 c 0.339919,-0.55 1.041476,-1 1.559017,-1 C 86.576558,62 87,62.45 87,63 87,63.55 86.298442,64 85.440983,64 84.583524,64 84.160081,63.55 84.5,63 Z M 51.180449,57.75 C 51.437131,55.942671 52.237785,55.438938 55.25,55.189635 58.473778,54.922822 59,54.536926 59,52.439635 59,50.252742 58.578011,50 54.926676,50 c -3.339287,0 -4.013439,-0.31536 -3.741006,-1.75 0.2504,-1.31861 1.501017,-1.825134 5.073324,-2.054791 L 61,45.890418 V 52.945209 60 h -5.069551 c -4.685327,0 -5.045332,-0.170529 -4.75,-2.25 z M 67,53.559017 c 0,-3.542541 0.376056,-6.673399 0.835681,-6.957462 0.459625,-0.284064 2.147125,-0.155374 3.75,0.285978 2.797126,0.770188 2.904907,1.017038 2.680275,6.138584 -0.244341,5.57088 -1.226039,6.932777 -5.015956,6.95857 C 67.147965,59.998993 67,59.576425 67,53.559017 Z"
         id="path1380" />
      <path
         style="fill:#18495e"
         d="M 9.0728039,87.272156 6,83.544312 V 52.296326 C 6,23.359745 6.1405389,20.817242 7.8999509,17.924121 8.9449238,16.2058 11.2058,13.944924 12.924121,12.899951 15.815935,11.141334 18.355709,11 47.066376,11 70.385874,11 78.46986,11.310244 79.637409,12.25 86.362955,17.663361 86,16.396699 86,34.454545 86,44.730689 85.624068,51 85.00787,51 84.462198,51 83.224698,49.3125 82.25787,47.25 79.373773,41.09746 75.900933,40.00337 59.25,40.001554 L 45,40 44.895884,44.25 44.791768,48.5 43.337759,43.75 C 41.887147,39.011094 41.87334,39 37.425697,39 33.36247,39 32.838243,39.287836 31.506576,42.25 29.070102,47.669696 23,63.888225 23,64.97847 23,65.540312 25.197516,66 27.883369,66 c 4.042364,0 4.97344,-0.344436 5.40638,-2 0.728554,-2.785993 6.316578,-2.815715 7.1981,-0.03829 0.596101,1.878148 1.323839,1.935354 17.083432,1.34291 l 16.460807,-0.618806 -0.266044,2.407091 c -0.252827,2.287506 0.04446,2.421881 5.983956,2.704807 L 86,70.09543 v 7.997737 c 0,7.158091 -0.257692,8.255429 -2.454545,10.452283 L 81.090909,91 H 46.618258 12.145608 Z M 49.5,76.828482 C 54.147924,74.500981 60,69.192508 60,67.303833 c 0,-2.017626 -1.420141,-1.554865 -4.075686,1.328086 -7.923762,8.602308 -25.170445,8.468642 -33.008053,-0.25582 -7.663063,-8.530167 -9.060621,-17.609142 -4.191912,-27.231975 3.270082,-6.463201 6.992807,-9.493428 14.845707,-12.084117 5.860449,-1.933375 5.905062,-1.932941 12.257112,0.119194 3.50639,1.132797 7.851616,3.355894 9.656058,4.940215 C 59.164601,37.351706 60,37.626212 60,35.603592 60,34.01029 53.51349,28 51.793944,28 51.16889,28 49.787304,27.2125 48.723753,26.25 47.196005,24.867407 44.975033,24.5 38.145012,24.5 c -7.650913,0 -9.188349,0.319391 -13.370051,2.777526 -5.702204,3.351934 -10.340283,8.137666 -11.837051,12.213884 -0.607607,1.654724 -1.517203,3.789984 -2.021325,4.745021 -1.1661901,2.209297 -1.2031257,14.468443 -0.04575,15.183743 0.478961,0.296014 1.13918,1.879914 1.467152,3.519777 1.241359,6.206792 11.164334,14.356991 19.66201,16.14932 5.049387,1.065016 12.878204,0.05363 17.5,-2.260789 z M 52,57.5 C 52,56.452381 53.055556,56 55.5,56 58.722222,56 59,55.761905 59,53 59,50.238095 58.722222,50 55.5,50 53.055556,50 52,49.547619 52,48.5 52,47.416667 53.111111,47 56,47 h 4 v 6 6 h -4 c -2.888889,0 -4,-0.416667 -4,-1.5 z M 68,53 c 0,-5.650933 0.138321,-6 2.377555,-6 3.52506,0 4.859674,2.206057 4.037736,6.674197 -0.74607,4.05572 -1.826571,5.285651 -4.665291,5.31049 C 68.276076,58.997584 68,58.053452 68,53 Z"
         id="path1378" />
    </g>
  </g>
</svg>
