<?xml version="1.0" encoding="UTF-8"?>
<svg id="Layer_1" data-name="Layer 1" xmlns="http://www.w3.org/2000/svg" xmlns:xlink="http://www.w3.org/1999/xlink" viewBox="0 0 1200 500">
  <defs>
    <style>
      .cls-1 {
        fill: #7da363;
      }

      .cls-1, .cls-2, .cls-3, .cls-4, .cls-5, .cls-6, .cls-7, .cls-8, .cls-9, .cls-10, .cls-11, .cls-12, .cls-13 {
        isolation: isolate;
        opacity: .7;
      }

      .cls-14 {
        fill: #7ba267;
      }

      .cls-15 {
        fill: #003764;
      }

      .cls-16 {
        fill: #8fc472;
      }

      .cls-2 {
        fill: #7ea168;
      }

      .cls-3 {
        fill: #6e925b;
      }

      .cls-17 {
        fill: #80a863;
      }

      .cls-18 {
        fill: #5d815c;
      }

      .cls-19 {
        fill: #009ade;
      }

      .cls-20 {
        fill: #769c65;
      }

      .cls-4 {
        fill: #6d915e;
      }

      .cls-5 {
        fill: url(#linear-gradient-8);
      }

      .cls-6 {
        fill: url(#linear-gradient-5);
      }

      .cls-7 {
        fill: url(#linear-gradient-7);
      }

      .cls-8 {
        fill: url(#linear-gradient-6);
      }

      .cls-9 {
        fill: url(#linear-gradient-4);
      }

      .cls-10 {
        fill: url(#linear-gradient-3);
      }

      .cls-11 {
        fill: url(#linear-gradient-2);
      }

      .cls-21 {
        fill: #5f855f;
      }

      .cls-22 {
        fill: #619a8d;
      }

      .cls-12 {
        fill: url(#linear-gradient);
      }

      .cls-13 {
        fill: #89b161;
      }
    </style>
    <linearGradient id="linear-gradient" x1="44.7" y1="2368.42" x2="44.7" y2="2271.9" gradientTransform="translate(-2170.58 868.26) rotate(71.57) scale(1 -1)" gradientUnits="userSpaceOnUse">
      <stop offset="0" stop-color="#87af5e"/>
      <stop offset="1" stop-color="#89b061"/>
    </linearGradient>
    <linearGradient id="linear-gradient-2" x1="103.18" y1="2368.93" x2="103.18" y2="2298.25" gradientTransform="translate(-1774.45 1553.25) rotate(50.97) scale(1 -1)" xlink:href="#linear-gradient"/>
    <linearGradient id="linear-gradient-3" x1="109.64" y1="2336.18" x2="79.56" y2="2272.21" gradientTransform="translate(-992.77 2226.8) rotate(25.78) scale(1 -1)" xlink:href="#linear-gradient"/>
    <linearGradient id="linear-gradient-4" x1="145.07" y1="2233.93" x2="122.99" y2="2198.28" gradientTransform="translate(-717.21 2331.68) rotate(19.08) scale(1 -1)" xlink:href="#linear-gradient"/>
    <linearGradient id="linear-gradient-5" x1="165.13" y1="2174.39" x2="143.05" y2="2138.74" gradientTransform="translate(-696.64 2328.4) rotate(19.08) scale(1 -1)" xlink:href="#linear-gradient"/>
    <linearGradient id="linear-gradient-6" x1="152.17" y1="2354.96" x2="151.36" y2="2295.25" gradientTransform="translate(-2093.77 794.06) rotate(70.79) scale(1 -1)" xlink:href="#linear-gradient"/>
    <linearGradient id="linear-gradient-7" x1="134.62" y1="2304.82" x2="133.81" y2="2245.11" gradientTransform="translate(-2058.2 844.27) rotate(70.79) scale(1 -1)" xlink:href="#linear-gradient"/>
    <linearGradient id="linear-gradient-8" x1="109.73" y1="2242.03" x2="76.82" y2="2158.9" gradientTransform="translate(-1781.89 1452.04) rotate(55.94) scale(1 -1)" xlink:href="#linear-gradient"/>
  </defs>
  <path class="cls-15" d="M393.41,204.07h38.68l49.8,189.14h-31.52l-11.66-46.36h-55.36l-12.19,46.36h-31.52l53.78-189.14ZM433.68,322.74l-21.72-93.25h-.53l-22.52,93.25h44.77Z"/>
  <path class="cls-15" d="M494.65,204.07h30.2v189.14h-30.2v-189.14Z"/>
  <path class="cls-15" d="M550.62,204.07h36.82l54.83,140.93h.53v-140.93h28.61v189.14h-36.82l-54.83-144.64h-.53v144.64h-28.61v-189.14Z"/>
  <path class="cls-15" d="M698.16,204.07h102.25v25.43h-72.05v52.45h67.81v25.43h-67.81v60.4h74.17v25.43h-104.37v-189.14Z"/>
  <path class="cls-15" d="M857.86,229.5h-45.03v-25.43h119.47v25.43h-44.24v163.71h-30.2v-163.71Z"/>
  <path class="cls-15" d="M976.59,204.07v135.63c0,24.11,9.54,34.44,27.81,34.44s27.55-10.33,27.55-34.44v-135.63h30.2v133.25c0,43.71-21.72,59.6-57.75,59.6s-58.01-15.89-58.01-59.6v-133.25h30.2Z"/>
  <path class="cls-15" d="M1110.2,334.66v4.77c0,23.05,10.33,34.7,30.99,34.7,18.81,0,28.61-13.78,28.61-27.55,0-19.87-10.07-28.61-27.02-33.64l-20.66-7.15c-27.55-10.6-39.47-24.9-39.47-51.92,0-34.44,23.58-53.51,58.81-53.51,48.48,0,53.51,30.2,53.51,49.8v4.24h-30.2v-3.97c0-17.22-7.42-27.29-26.49-27.29-12.98,0-25.43,7.15-25.43,27.29,0,16.16,8.21,24.37,28.34,32.05l20.4,7.42c26.76,9.54,38.41,23.84,38.41,50.07,0,40.27-24.37,56.95-62.52,56.95-46.89,0-57.48-31.26-57.48-57.75v-4.5h30.2Z"/>
  <polygon class="cls-19" points="351.62 151.31 351.62 127.51 339.64 127.51 339.64 163.14 375.27 163.14 375.27 151.31 351.62 151.31"/>
  <polygon class="cls-15" points="399.08 103.7 339.64 103.7 339.64 121.52 351.46 121.52 351.46 115.68 387.25 115.68 387.25 151.31 381.26 151.31 381.26 163.14 399.08 163.14 399.08 103.7"/>
  <g>
    <path class="cls-15" d="M414.9,104.32h18.12v43.77h25.96v15.05h-44.08v-58.83Z"/>
    <path class="cls-15" d="M466.81,104.32h45.46v15.05h-27.34v7.37h23.5v13.98h-23.5v22.42h-18.12v-58.83h0Z"/>
  </g>
  <path class="cls-19" d="M558.96,163.45h-32.87v-59.29h32.87v3.84h-28.57v22.42h27.03v3.84h-27.03v25.5h28.57v3.69Z"/>
  <path class="cls-19" d="M616.25,163.45h-4.3l-35.63-52.68h-.15c.31,6.3.46,10.9.46,14.13v38.4h-3.99v-59.13h4.15l35.63,52.53h.31c-.31-4.91-.46-9.52-.46-13.82v-38.7h4.15v59.29h-.15Z"/>
  <path class="cls-19" d="M666.17,163.45h-32.87v-59.29h32.87v3.84h-28.57v22.42h27.03v3.84h-27.03v25.5h28.57v3.69Z"/>
  <path class="cls-19" d="M683.99,137.65v25.8h-4.15v-59.29h14.28c7.37,0,12.9,1.38,16.59,4.15,3.53,2.76,5.38,6.76,5.38,12.29,0,3.99-1.08,7.37-3.23,10.14-2.15,2.76-5.38,4.76-9.68,5.84l16.28,27.03h-5.07l-15.51-25.8-14.9-.15h0ZM683.99,134.11h11.37c5.07,0,9.06-1.08,11.83-3.38,2.76-2.3,4.15-5.53,4.15-9.83s-1.38-7.83-4.15-9.83c-2.76-2.15-7.22-3.07-13.52-3.07h-9.83v26.11h.15Z"/>
  <path class="cls-19" d="M752.8,132.88h21.66v26.42c-5.68,2.46-12.13,3.53-19.2,3.53-9.22,0-16.43-2.61-21.35-7.83-4.91-5.22-7.37-12.44-7.37-21.96,0-5.99,1.23-11.06,3.69-15.67,2.46-4.61,5.99-8.14,10.6-10.6,4.61-2.46,9.83-3.69,15.82-3.69,6.45,0,12.13,1.23,17.36,3.53l-1.69,3.69c-5.07-2.3-10.44-3.53-15.82-3.53-7.83,0-13.98,2.3-18.43,7.07-4.45,4.76-6.76,11.06-6.76,19.05,0,8.75,2.15,15.21,6.45,19.66,4.3,4.45,10.6,6.6,19.05,6.6,5.38,0,9.98-.77,13.82-2.3v-20.12h-17.51l-.31-3.84h0Z"/>
  <path class="cls-19" d="M803.17,136.42l17.51-32.25h4.45l-19.97,36.09v22.73h-4.3v-22.27l-19.97-36.55h4.76l17.51,32.25Z"/>
  <g>
    <rect class="cls-13" x="114.13" y="80.78" width="4.83" height="112.89" transform="translate(-24.92 248.6) rotate(-87.87)"/>
    <rect class="cls-13" x="70.26" y="177.92" width="4.83" height="112.89" transform="translate(-172.26 219.67) rotate(-69.34)"/>
    <rect class="cls-13" x="173.27" y="209.08" width="4.83" height="112.89" transform="translate(-123.13 375.43) rotate(-76.7)"/>
    <rect class="cls-13" x="113.73" y="296.82" width="4.83" height="112.89" transform="translate(-250.96 293.98) rotate(-62.63)"/>
    <rect class="cls-12" x="-5.78" y="174.73" width="100.98" height="4.83" transform="translate(-137.49 163.55) rotate(-71.57)"/>
    <rect class="cls-11" x="100.77" y="108.99" width="4.83" height="109.46" transform="translate(-88.97 140.75) rotate(-50.97)"/>
    <rect class="cls-10" x="92.19" y="138.38" width="4.83" height="109.46" transform="translate(-74.57 60.37) rotate(-25.78)"/>
    <rect class="cls-9" x="131.62" y="249.35" width="4.83" height="63.71" transform="translate(-84.57 59.28) rotate(-19.08)"/>
    <rect class="cls-6" x="151.67" y="308.88" width="4.83" height="63.71" transform="translate(-102.94 69.11) rotate(-19.08)"/>
    <rect class="cls-1" x="175.34" y="164.96" width="4.83" height="71.3" transform="translate(-46.83 346.9) rotate(-81.54)"/>
    <rect class="cls-3" x="226.15" y="190.13" width="4.83" height="40.88" transform="translate(-39.23 368.27) rotate(-73.15)"/>
    <rect class="cls-3" x="260.62" y="198.6" width="4.83" height="40.88" transform="translate(11.39 451.07) rotate(-82.46)"/>
    <rect class="cls-3" x="251.22" y="273.8" width="4.83" height="40.88" transform="translate(-113.24 421.97) rotate(-68.44)"/>
    <rect class="cls-4" x="217.91" y="100.25" width="4.83" height="97.11" transform="translate(37.32 341.67) rotate(-80.54)"/>
    <rect class="cls-8" x="120.67" y="169.79" width="62.18" height="4.83" transform="translate(-60.79 258.84) rotate(-70.79)"/>
    <rect class="cls-7" x="103.12" y="219.92" width="62.18" height="4.83" transform="translate(-119.91 275.91) rotate(-70.79)"/>
    <rect class="cls-5" x="47.74" y="294.42" width="91.06" height="4.83" transform="translate(-204.88 207.85) rotate(-55.94)"/>
    <rect class="cls-2" x="185.98" y="141.79" width="4.83" height="77.92" transform="translate(-71.84 159.71) rotate(-39.19)"/>
    <rect class="cls-2" x="213.38" y="205.59" width="4.83" height="77.92" transform="translate(-26.98 26.76) rotate(-6.68)"/>
    <rect class="cls-3" x="203.8" y="181.1" width="72.17" height="4.83" transform="translate(-62.11 187.9) rotate(-38.25)"/>
    <rect class="cls-3" x="127.62" y="220.02" width="93.86" height="4.83" transform="translate(-80.69 100.79) rotate(-26.4)"/>
    <rect class="cls-3" x="202.83" y="254.49" width="93.86" height="4.83" transform="translate(-107.19 225.83) rotate(-40.83)"/>
    <rect class="cls-3" x="141.23" y="328.62" width="108.75" height="4.83" transform="translate(-188.65 345.03) rotate(-61.51)"/>
    <rect class="cls-3" x="243.07" y="268.65" width="83.36" height="4.83" transform="translate(4.92 547.21) rotate(-88.21)"/>
    <rect class="cls-3" x="160.91" y="339.22" width="131.04" height="4.83" transform="translate(-149.46 178.26) rotate(-32.97)"/>
    <rect class="cls-3" x="48.32" y="217.91" width="4.83" height="120.48" transform="translate(-93.32 34.86) rotate(-20.29)"/>
    <rect class="cls-3" x="273.79" y="160.2" width="4.83" height="65.83" transform="translate(-38.59 72.76) rotate(-14.04)"/>
    <rect class="cls-3" x="199.42" y="240.83" width="65.83" height="4.83" transform="translate(-95.09 320.32) rotate(-59.56)"/>
    <rect class="cls-3" x="79.09" y="318.23" width="65.83" height="4.83" transform="translate(-80.15 40.58) rotate(-15.2)"/>
    <rect class="cls-3" x="139.03" y="291.8" width="82.1" height="4.83" transform="translate(-107.53 103.77) rotate(-25.02)"/>
    <g>
      <path class="cls-22" d="M58.63,150.71c12.98,0,23.5-10.52,23.5-23.5s-10.52-23.5-23.5-23.5-23.5,10.52-23.5,23.5,10.52,23.5,23.5,23.5Z"/>
      <path class="cls-20" d="M165.57,163.42c13.85,0,25.07-11.22,25.07-25.07s-11.22-25.07-25.07-25.07-25.07,11.22-25.07,25.07,11.22,25.07,25.07,25.07Z"/>
      <path class="cls-18" d="M264.55,182.58c13.84,0,25.07-11.22,25.07-25.07s-11.22-25.07-25.07-25.07-25.07,11.22-25.07,25.07,11.22,25.07,25.07,25.07Z"/>
      <path class="cls-16" d="M23.5,243.31c12.98,0,23.5-10.52,23.5-23.5s-10.52-23.5-23.5-23.5S0,206.82,0,219.8s10.52,23.5,23.5,23.5Z"/>
      <path class="cls-16" d="M126.91,274.64c12.98,0,23.5-10.52,23.5-23.5s-10.52-23.5-23.5-23.5-23.5,10.52-23.5,23.5,10.52,23.5,23.5,23.5Z"/>
      <path class="cls-16" d="M221.54,303.16c12.98,0,23.5-10.52,23.5-23.5s-10.52-23.5-23.5-23.5-23.5,10.52-23.5,23.5,10.52,23.5,23.5,23.5Z"/>
      <path class="cls-17" d="M143.74,203.03c4.24,0,7.67-3.44,7.67-7.67s-3.44-7.67-7.67-7.67-7.67,3.44-7.67,7.67,3.44,7.67,7.67,7.67Z"/>
      <path class="cls-17" d="M143.74,318.98c4.24,0,7.67-3.44,7.67-7.67s-3.44-7.67-7.67-7.67-7.67,3.44-7.67,7.67,3.44,7.67,7.67,7.67Z"/>
      <path class="cls-17" d="M211.54,220.25c8.38,0,15.17-6.79,15.17-15.17s-6.79-15.17-15.17-15.17-15.17,6.79-15.17,15.17,6.79,15.17,15.17,15.17Z"/>
      <path class="cls-17" d="M247.56,223.75c4.24,0,7.67-3.44,7.67-7.67s-3.44-7.67-7.67-7.67-7.67,3.44-7.67,7.67,3.44,7.67,7.67,7.67Z"/>
      <path class="cls-21" d="M283.77,247.51c10.35,0,18.74-8.39,18.74-18.74s-8.39-18.74-18.74-18.74-18.74,8.39-18.74,18.74,8.39,18.74,18.74,18.74Z"/>
      <path class="cls-14" d="M283.77,322.72c10.35,0,18.74-8.39,18.74-18.74s-8.39-18.74-18.74-18.74-18.74,8.39-18.74,18.74,8.39,18.74,18.74,18.74Z"/>
      <path class="cls-22" d="M74.23,358.32c12.98,0,23.5-10.52,23.5-23.5s-10.52-23.5-23.5-23.5-23.5,10.52-23.5,23.5,10.52,23.5,23.5,23.5Z"/>
      <path class="cls-22" d="M171.65,393.2c8.65,0,15.67-7.02,15.67-15.67s-7.01-15.67-15.67-15.67-15.67,7.02-15.67,15.67,7.01,15.67,15.67,15.67Z"/>
    </g>
  </g>
</svg>