<?xml version="1.0" encoding="UTF-8" standalone="no"?>
<svg
   version="1.1"
   id="svg4"
   width="38.953125"
   height="8.7246094"
   xmlns="http://www.w3.org/2000/svg"
   xmlns:svg="http://www.w3.org/2000/svg">
  <defs
     id="defs8" />
  <g
     aria-label="ALA4R"
     id="text2"
     transform="translate(-0.15234375,8.7246094)">
    <path
       d="M 8.0507813,0 H 6.8144531 L 5.9589844,-2.4316406 H 2.1855469 L 1.3300781,0 H 0.15234375 L 3.328125,-8.7246094 H 4.875 Z M 5.6015625,-3.4277344 4.0722656,-7.7109375 2.5371094,-3.4277344 Z"
       id="path10" />
    <path
       d="M 14.894531,0 H 9.375 v -8.7246094 h 1.160156 V -1.03125 h 4.359375 z"
       id="path12" />
    <path
       d="M 22.933594,0 H 21.697266 L 20.841797,-2.4316406 H 17.068359 L 16.212891,0 h -1.177735 l 3.175781,-8.7246094 h 1.546875 z m -2.449219,-3.4277344 -1.529297,-4.2832031 -1.535156,4.2832031 z"
       id="path14" />
    <path
       d="M 30.134766,-2.4550781 H 28.839844 V 0 h -1.125 v -2.4550781 h -4.177735 v -1.3476563 l 4.22461,-4.921875 h 1.078125 v 5.3320313 h 1.294922 z m -2.419922,-0.9375 v -3.9375 l -3.38086,3.9375 z"
       id="path16" />
    <path
       d="m 39.105469,0 h -1.50586 L 34.681641,-3.46875 H 33.046875 V 0 h -1.160156 v -8.7246094 h 2.443359 q 0.791016,0 1.318359,0.1054688 0.527344,0.099609 0.949219,0.3632812 0.47461,0.2988282 0.738281,0.7558594 0.269532,0.4511719 0.269532,1.1484375 0,0.9433594 -0.47461,1.5820313 -0.474609,0.6328125 -1.30664,0.9550781 z m -2.712891,-6.2695312 q 0,-0.375 -0.134766,-0.6621094 -0.128906,-0.2929688 -0.433593,-0.4921875 -0.251953,-0.1699219 -0.597657,-0.234375 -0.345703,-0.070312 -0.814453,-0.070312 h -1.365234 v 3.2929687 h 1.171875 q 0.550781,0 0.960937,-0.09375 0.410157,-0.099609 0.697266,-0.3632812 0.263672,-0.2460938 0.386719,-0.5625 0.128906,-0.3222656 0.128906,-0.8144536 z"
       id="path18" />
  </g>
</svg>
