<svg xmlns="http://www.w3.org/2000/svg" role="img" viewBox="-6.44 62.56 412.62 170.12"><style>svg {enable-background:new 0 0 400 245}</style><style>.st0{fill:#4094d0}.st1{fill:#ee4636}</style><path d="M1.69 120.74c0-27.67 23.26-50.2 50.94-50.2 15.31 0 26.2 6 34.41 13.84l-9.67 9.67c-5.88-5.51-13.84-9.8-24.73-9.8-20.2 0-36 16.28-36 36.49 0 20.2 15.79 36.49 36 36.49 13.1 0 20.57-5.27 25.35-10.04 3.92-3.92 6.49-9.55 7.47-17.26H52.63v-13.71h46.16c.49 2.45.74 5.39.74 8.57 0 10.29-2.82 23.02-11.88 32.08-8.82 9.18-20.08 14.08-35.02 14.08-27.67-.01-50.94-22.54-50.94-50.21z" class="st0"/><path d="M136.83 106.29c-17.88 0-32.45 13.59-32.45 32.32 0 18.61 14.57 32.32 32.45 32.32 17.88 0 32.45-13.71 32.45-32.32-.01-18.73-14.58-32.32-32.45-32.32zm0 51.91c-9.8 0-18.24-8.08-18.24-19.59 0-11.63 8.45-19.59 18.24-19.59 9.8 0 18.24 7.96 18.24 19.59 0 11.51-8.45 19.59-18.24 19.59z" class="st1"/><path fill="#ffc10e" d="M207.61 106.29c-17.88 0-32.45 13.59-32.45 32.32 0 18.61 14.57 32.32 32.45 32.32 17.88 0 32.45-13.71 32.45-32.32 0-18.73-14.57-32.32-32.45-32.32zm0 51.91c-9.8 0-18.24-8.08-18.24-19.59 0-11.63 8.45-19.59 18.24-19.59s18.24 7.96 18.24 19.59c0 11.51-8.44 19.59-18.24 19.59z"/><path d="M294.49 108.25v5.27H294c-3.18-3.8-9.31-7.22-17.02-7.22-16.16 0-30.98 14.2-30.98 32.45 0 18.12 14.82 32.2 30.98 32.2 7.71 0 13.84-3.43 17.02-7.35h.49v4.65c0 12.37-6.61 18.98-17.26 18.98-8.69 0-14.08-6.24-16.28-11.51l-12.37 5.14c3.55 8.57 12.98 19.1 28.65 19.1 16.65 0 30.73-9.8 30.73-33.67v-58.04h-13.47zm-16.28 49.95c-9.8 0-18-8.2-18-19.47 0-11.39 8.2-19.71 18-19.71 9.67 0 17.26 8.33 17.26 19.71 0 11.27-7.59 19.47-17.26 19.47z" class="st0"/><path fill="#2fb355" d="M317.76 73.96h14.2v95.01h-14.2z"/><path d="M370.9 158.2c-7.22 0-12.37-3.31-15.67-9.8l43.22-17.88-1.47-3.67c-2.69-7.22-10.9-20.57-27.67-20.57-16.65 0-30.49 13.1-30.49 32.32 0 18.12 13.71 32.32 32.08 32.32 14.81 0 23.39-9.06 26.94-14.33l-11.02-7.35c-3.68 5.41-8.7 8.96-15.92 8.96zm-1.11-39.42c5.63 0 10.41 2.82 12 6.86l-28.9 12c-.36-12.5 9.68-18.86 16.9-18.86z" class="st1"/><path fill="none" d="M1 70.46h397.92v130.09H1z"/><path d="M39.59047 216.38215l1.62103-4.94805 1.57008 4.94805zm.16258-7.82368l-4.48696 12.57515h2.74702l.86876-2.58443h4.63257l.81052 2.58443h2.85137l-4.45542-12.57515zm1.46816 0zm14.86596 3.80991c-.61153-.50475-1.39778-.7547-2.35875-.7547-.76926 0-1.40263.18686-1.90253.563-.27907.2087-.57513.55328-.88818 1.03134v-1.35652H48.5911v9.28212h2.42427v-5.03297c0-.57513.07765-1.0459.23782-1.4172.30819-.69888.8736-1.04833 1.69869-1.04833.66976 0 1.12598.23782 1.3638.71588.13104.26208.19656.63822.19656 1.12599v5.65663h2.49222v-6.26088c0-1.16724-.30576-2.00203-.91729-2.50436zm-3.25663-.7814zm11.54381 5.0257v.90516c-.01698.81295-.2451 1.37351-.68675 1.67928-.44166.30819-.92215.46107-1.44632.46107-.33003 0-.6091-.09221-.83963-.27664-.23054-.18443-.3446-.48534-.3446-.9003 0-.46593.18686-.81053.563-1.03378.22083-.13104.58726-.24025 1.0993-.33246l.546-.10192c.27422-.05096.48777-.10678.6455-.16502.15531-.06066.31062-.13832.4635-.23539zm-1.47543-1.1357l-.8275.10193c-.93914.12133-1.65016.32032-2.13307.5994-.8809.51203-1.32256 1.33953-1.32256 2.4825 0 .8809.27422 1.5628.82265 2.04329.55087.48049 1.2449.72073 2.08697.72073.66006 0 1.25217-.15046 1.77391-.4538.43924-.2548.82508-.56542 1.15997-.92942a7.04836 7.04836 0 0 0 .06794.563c.02913.16501.08009.34216.15531.52901h2.6451v-.35915c-.16016-.0728-.27906-.16744-.35915-.2815-.08008-.11162-.12861-.3276-.1456-.64792-.01213-.41982-.01698-.77897-.01698-1.07503v-4.26371c0-1.12114-.39556-1.88312-1.18666-2.28838-.78868-.40283-1.69384-.60425-2.71305-.60425-1.5628 0-2.66694.40769-3.31002 1.22791-.40283.52417-.63094 1.19151-.6819 2.00446h2.34662c.05581-.35916.16987-.64308.34216-.85178.23782-.28635.6455-.4271 1.2182-.4271.51204 0 .90031.0728 1.16482.21598.26451.1456.39798.41011.39798.7911 0 .31305-.17472.54116-.52174.68919-.19414.08736-.51446.15773-.9634.21355zm.12861-3.89zm8.42065 9.54664v-12.57515h-2.43155v12.57515zm2.74703 1.78363v1.94379c.25965.01941.45622.02912.58726.03154a27.7916 27.7916 0 0 0 .52174.00486c1.07503 0 1.7909-.21355 2.15006-.6358.35672-.42467.84449-1.51911 1.45844-3.2809l3.19111-9.14623h-2.58686l-1.91952 6.86028-2.02872-6.86028h-2.70577l3.41194 9.70923c.02427.06794-.0267.2548-.14803.563-.12133.30576-.2548.5096-.39798.60667-.14803.10192-.33003.16744-.546.19413-.21598.02912-.44166.03883-.6819.0267zm3.29303-11.33026zm7.94259 6.57878H82.9653c0 .9537.34702 1.73994 1.04348 2.35875.69647.61638 1.77635.92458 3.23965.92458 1.43175 0 2.49222-.2912 3.17655-.87362.68675-.5824 1.02892-1.33468 1.02892-2.25683 0-.69889-.24025-1.28372-.7183-1.74965-.48292-.46107-1.2085-.80324-2.17433-1.03135-1.45117-.3179-2.29566-.54358-2.53347-.67462-.24025-.12376-.35915-.3276-.35915-.60425 0-.22325.11162-.41739.3373-.5824.22569-.1626.60183-.2451 1.13085-.2451.64307 0 1.09687.16259 1.3638.49262.14318.182.23054.42953.26451.74257h2.43156c-.10678-1.1357-.5266-1.9365-1.25703-2.4-.73044-.4635-1.67685-.69647-2.83682-.69647-1.22305 0-2.1719.3082-2.84651.927-.6722.61638-1.00951 1.3541-1.00951 2.21315 0 .72801.21597 1.28615.64793 1.672.43195.39312 1.17452.7183 2.22528.98038 1.4633.34702 2.3078.59212 2.5359.7353.22569.14074.33974.34944.33974.62123 0 .28392-.14075.49747-.42225.64065-.2815.14075-.66006.21355-1.13812.21355-.81294 0-1.37108-.1626-1.672-.48777-.17229-.182-.2815-.48777-.33245-.91972zm1.85885-6.57878zm8.46433-.86148v-2.2447h-2.46553v2.2447zm-2.46553 1.109v9.29911h2.46553v-9.29911zm6.71226 6.33126H97.5352c0 .9537.34944 1.73994 1.0459 2.35875.69647.61638 1.77635.92458 3.23722.92458 1.43418 0 2.49222-.2912 3.17898-.87362.68433-.5824 1.0265-1.33468 1.0265-2.25683 0-.69889-.23782-1.28372-.71588-1.74965-.48292-.46107-1.2085-.80324-2.17432-1.03135-1.45117-.3179-2.29566-.54358-2.5359-.67462-.23782-.12376-.35673-.3276-.35673-.60425 0-.22325.11163-.41739.33731-.5824.22326-.1626.60182-.2451 1.13084-.2451.64065 0 1.09687.16259 1.3638.49262.14318.182.23054.42953.26452.74257h2.43155c-.1092-1.1357-.5266-1.9365-1.25946-2.4-.73043-.4635-1.67442-.69647-2.8368-.69647-1.22064 0-2.16948.3082-2.8441.927-.67462.61638-1.01193 1.3541-1.01193 2.21315 0 .72801.21597 1.28615.65035 1.672.43195.39312 1.17452.7183 2.22528.98038 1.46088.34702 2.3078.59212 2.53348.7353.2281.14074.34216.34944.34216.62123 0 .28392-.14074.49747-.42224.64065-.2815.14075-.6625.21355-1.13812.21355-.81537 0-1.37109-.1626-1.67443-.48777-.16987-.182-.2815-.48777-.33245-.91972zm1.86127-6.57878zm5.22954 3.52357v2.30293h4.89708v-2.30293zm9.37677-4.36806h3.05279c.57027 0 .99495.07522 1.27887.22325.50718.25966.75956.7717.75956 1.53368 0 .70617-.25966 1.17695-.78383 1.41719-.29605.1359-.74014.20384-1.33225.20384h-2.97514zm5.6348-1.85886c-.47563-.19899-1.15511-.30819-2.036-.32517h-6.16867v12.57515h2.56987v-4.93105h2.71305c.7717 0 1.30071.13347 1.58221.4004.2815.26694.4271.80324.43923 1.60405l.01699 1.16967c.00485.36886.04125.73044.1092 1.08231.0364.1723.09222.39555.1723.67462h2.89262v-.31547c-.25237-.15288-.4101-.39312-.47806-.71587-.0461-.20627-.06794-.59454-.06794-1.16967v-.8445c0-.88089-.12134-1.5361-.364-1.96562-.24025-.42953-.6528-.76198-1.23277-.99495.69403-.23781 1.1915-.6455 1.49242-1.22305.30334-.57756.4538-1.16482.4538-1.76179 0-.49505-.08009-.9367-.24025-1.32255-.15774-.38827-.37371-.74014-.64793-1.05804-.33003-.38827-.73286-.67948-1.20607-.87847zm6.51812 5.23682c.30819-.35187.745-.52902 1.30799-.52902.51688 0 .95126.16744 1.3007.4999.34945.33246.54602.82023.58484 1.4633h-3.77837c.08008-.60425.27422-1.07988.58484-1.43418zm3.3998-2.0991c-.62123-.28877-1.3177-.43437-2.09181-.43437-1.30314 0-2.36118.42952-3.17655 1.28857-.8178.85906-1.22549 2.09425-1.22549 3.70315 0 1.7181.45137 2.95815 1.35653 3.72013.90516.76198 1.94864 1.14298 3.13044 1.14298 1.43418 0 2.54804-.4538 3.344-1.35653.51203-.57027.8008-1.13084.8639-1.6817h-2.48252c-.13104.27421-.28392.48776-.45379.64065-.31304.28392-.7183.4271-1.22063.4271-.47078 0-.87604-.11649-1.21092-.35188-.55086-.3737-.8445-1.02892-.87847-1.96077h6.36524c.0097-.80324-.01456-1.4172-.07766-1.8443-.10677-.728-.34459-1.36622-.7086-1.91951-.40283-.62366-.91486-1.08231-1.53367-1.37351zm-1.91952-.43437zm11.00509 5.0257v.90515c-.01699.81295-.24753 1.37351-.68676 1.67928-.44166.30819-.92457.46107-1.44631.46107-.33003 0-.61153-.09221-.84207-.27664-.2281-.18443-.34459-.48534-.34459-.9003 0-.46593.18686-.81053.563-1.03378.22325-.13104.58968-.24025 1.10172-.33246l.546-.10192c.2718-.05096.48777-.10678.64308-.16502.15774-.06066.31062-.13832.46593-.23539zm-1.47786-1.1357l-.8275.10192c-.93671.12133-1.64774.32032-2.13065.5994-.88332.51203-1.32255 1.33953-1.32255 2.4825 0 .8809.27421 1.5628.82265 2.04329.54843.48049 1.2449.72073 2.08453.72073.66007 0 1.25218-.15046 1.77635-.4538.4368-.2548.82508-.56542 1.15996-.92942.01699.21112.03883.39798.06795.563.02912.16501.08008.34216.15288.52901h2.6451v-.35915c-.16016-.0728-.27907-.16744-.35915-.2815-.07765-.11162-.12619-.3276-.14317-.64792-.01214-.41982-.01699-.77897-.01699-1.07503v-4.26371c0-1.12114-.39555-1.88312-1.18666-2.28838-.7911-.40283-1.69626-.60425-2.71305-.60425-1.56522 0-2.66694.40769-3.31002 1.22791-.40283.52417-.63094 1.19151-.6819 2.00446h2.3442c.05823-.35916.17229-.64308.34216-.85178.24024-.28635.6455-.4271 1.22063-.4271.51203 0 .9003.0728 1.16481.21598.26451.1456.39556.41011.39556.7911 0 .31305-.1723.54116-.51932.68919-.19413.08736-.51446.15773-.96582.21355zm.12861-3.89zm10.8692.39798c-.43682-.24753-.93914-.37129-1.50214-.37129-1.22305 0-2.19859.4538-2.92902 1.3638-.73044.91002-1.09687 2.15977-1.09687 3.74683 0 1.37594.37128 2.50193 1.11385 3.38282.74257.87847 1.65501 1.3177 2.74217 1.3177.66007 0 1.21093-.12619 1.65501-.37614.44409-.24995.83964-.65036 1.18666-1.20364v1.28857h2.3636v-12.55817h-2.46552v4.43601c-.27422-.4368-.62852-.77897-1.06775-1.0265zm.59696 6.62489c-.35673.5096-.8809.76683-1.57008.76683-.68675 0-1.20121-.25723-1.53852-.77169-.33974-.51446-.50718-1.20121-.50718-2.06026 0-.79596.16501-1.4633.49747-2.00203.33246-.5363.8542-.80567 1.56522-.80567.46835 0 .87604.14803 1.23034.44409.5727.48777.86148 1.30314.86148 2.43883 0 .81537-.17958 1.47786-.53873 1.9899zm5.52074 4.30739v1.94379c.26209.01941.45622.02912.58726.03154a27.7916 27.7916 0 0 0 .52174.00486c1.07503 0 1.7909-.21355 2.15006-.6358.35672-.42467.8445-1.51911 1.45845-3.2809l3.1911-9.14623h-2.58443l-1.91952 6.86028-2.03115-6.86028H155.412l3.41437 9.70923c.02184.06794-.02912.2548-.15046.563-.12133.30576-.2548.5096-.39555.60667-.14803.10192-.33003.16744-.546.19413-.21598.02912-.4441.03883-.68433.0267zm3.29303-11.33026zm5.92115 11.56808v.93913c.15288 0 .43195-.08494.83964-.25238.40769-.16744.75956-.41496 1.0629-.745.27906-.30819.46835-.6722.57027-1.09201.10192-.42225.15288-.82508.15288-1.21092v-2.20345h-2.62569v2.54318h1.47543c-.03397.57513-.16744 1.02165-.39797 1.33954-.23054.3179-.5897.54601-1.07746.6819zm11.2526-13.28133c-1.17694 1.18665-1.76663 2.88049-1.76663 5.07423 0 2.03114.51689 3.63034 1.55309 4.79516 1.03377 1.15996 2.45582 1.73994 4.26614 1.73994 1.46087 0 2.65966-.42953 3.59637-1.28858.93428-.85662 1.51669-1.9729 1.74237-3.344h-2.60142c-.17473.64794-.39798 1.1357-.66492 1.45846-.48291.60424-1.18666.90516-2.10638.90516-.9003 0-1.64044-.35188-2.22285-1.0532-.58241-.70374-.87604-1.75935-.87604-3.16926 0-1.40992.27664-2.50193.8275-3.2712.5533-.77169 1.30557-1.15753 2.26169-1.15753.93913 0 1.64773.27422 2.12579.82022.26693.30577.48534.76199.6552 1.36381h2.62812c-.03883-.78382-.33003-1.56522-.87118-2.34662-.97796-1.38565-2.52377-2.07968-4.63985-2.07968-1.58221 0-2.88292.51689-3.907 1.55309zm3.82934-1.6987zm9.85483 12.95858v-12.57515h-2.43155v12.57515zm8.1804-2.4728c-.38099.50475-.927.75955-1.63802.75955s-1.25703-.2548-1.64045-.75955c-.38584-.50718-.57755-1.22549-.57755-2.15977 0-.93185.1917-1.65015.57755-2.1549.38342-.50233.92943-.7547 1.64045-.7547.71103 0 1.25703.25237 1.63803.7547.38099.50475.5727 1.22305.5727 2.1549 0 .93428-.19171 1.65259-.5727 2.15977zm1.94622 1.34196c.78382-.96825 1.17695-2.1355 1.17695-3.50173 0-1.34196-.39313-2.50435-1.17695-3.48959-.78625-.98281-1.97776-1.47543-3.57453-1.47543-1.5992 0-2.7907.49262-3.57453 1.47543-.78625.98524-1.17695 2.14763-1.17695 3.4896 0 1.36623.3907 2.53347 1.17695 3.50172.78383.97068 1.97534 1.45602 3.57453 1.45602 1.59677 0 2.78828-.48534 3.57453-1.45602zm-3.57453-8.4158zm8.9157.24753h-2.49222v5.60568c0 1.0629.13346 1.86856.4004 2.41456.47806.9901 1.40506 1.48514 2.781 1.48514.47806 0 .89545-.06309 1.24975-.18928.35672-.12376.72558-.35672 1.10657-.69889.12377-.1092.23297-.23296.32276-.37614.09221-.14075.14802-.2281.1723-.2548v1.31284h2.36117v-9.29911h-2.46553v5.05967c0 .59697-.07765 1.07745-.23781 1.44146-.3082.6722-.87604 1.00708-1.70597 1.00708-.64793 0-1.08474-.23539-1.30557-.7086-.12619-.26693-.18685-.66491-.18685-1.19393zm1.70597-.24752zm11.47343.39798c-.4368-.24753-.9367-.37129-1.4997-.37129-1.22305 0-2.20101.4538-2.93145 1.3638-.73044.91002-1.09687 2.15977-1.09687 3.74683 0 1.37594.37129 2.50193 1.11386 3.38282.74257.87847 1.65743 1.3177 2.74217 1.3177.66006 0 1.21092-.12619 1.655-.37614.4441-.24995.83965-.65036 1.18666-1.20364v1.28857h2.3636v-12.55817h-2.46552v4.43601c-.27422-.4368-.62851-.77897-1.06775-1.0265zm.59697 6.62489c-.35672.5096-.88089.76683-1.56765.76683-.68918 0-1.20364-.25723-1.54095-.77169-.33731-.51446-.50718-1.20121-.50718-2.06026 0-.79596.16501-1.4633.49747-2.00203.33489-.5363.85663-.80567 1.56765-.80567.46593 0 .87604.14803 1.22791.44409.57513.48777.86148 1.30314.86148 2.43883 0 .81537-.17958 1.47786-.53873 1.9899zm18.23665-.50476c-.61153.76927-1.4366 1.15269-2.47766 1.15269-1.04105 0-1.87098-.38342-2.49222-1.15269-.6188-.76683-.92942-1.85885-.92942-3.27604 0-1.41477.31061-2.50678.92942-3.27605.62124-.76683 1.45117-1.15268 2.49222-1.15268 1.04106 0 1.86613.38585 2.47766 1.15754.61153.76926.9173 1.86128.9173 3.27119 0 1.4172-.30577 2.5092-.9173 3.27604zm1.64288 1.91224c1.26674-1.20121 1.90253-2.92902 1.90253-5.18828 0-2.30294-.6358-4.03318-1.90253-5.18586-.95127-.98039-2.32478-1.46815-4.12054-1.46815-1.79818 0-3.1717.48776-4.12053 1.46815-1.27402 1.15268-1.91224 2.88292-1.91224 5.18586 0 2.25926.63822 3.98707 1.91224 5.18828.94884.97796 2.32235 1.46573 4.12053 1.46573 1.79576 0 3.16927-.48777 4.12054-1.46573zm-4.12054-11.8423zm13.74726 6.4065c.3276.55086.4902 1.18665.4902 1.90253 0 .87118-.17716 1.56765-.53146 2.08939-.35672.52416-.8736.78625-1.54823.78625-.46835 0-.87119-.12862-1.21335-.38342-.5727-.43923-.86148-1.1988-.86148-2.27867 0-.6819.08494-1.2449.25723-1.68899.33003-.8372.93428-1.2546 1.8176-1.2546.73286 0 1.26188.27664 1.58949.8275zm1.86856-1.74966c-.75228-.8008-1.67443-1.20121-2.75916-1.20121-.745 0-1.38807.20627-1.92923.62123-.29606.23297-.5727.55329-.83478.95612v-1.37351h-2.32963v12.95858h2.40486v-4.84612c.25723.39312.5193.6916.78625.89788.48776.36886 1.10414.55329 1.84186.55329 1.15996 0 2.1088-.42953 2.84652-1.28858.73529-.85905 1.10415-2.10638 1.10415-3.7444 0-1.55309-.37614-2.73004-1.13084-3.53328zm1.93165.82023h1.29828v5.72458c0 .57999.1359 1.00951.41012 1.28858.41982.4368 1.20364.6358 2.3539.59697l1.15025-.04368v-1.8176c-.07765.00728-.16016.01213-.24267.01456-.0825.00243-.16016.00485-.23296.00485-.49505 0-.7911-.04853-.88817-.14317-.09707-.09222-.1456-.33003-.1456-.71102v-4.91407h1.5094v-1.73267h-1.5094v-2.59171h-2.40487v2.59171h-1.29828zm9.27485-2.9266v-2.2447h-2.46553v2.2447zm-2.46553 1.109v9.29911h2.46553v-9.29911zm16.42148.03397c-.39798-.15773-.80081-.23781-1.21092-.23781-.61396 0-1.1721.12619-1.672.38342-.47078.2548-.86633.65763-1.18423 1.20364-.182-.45622-.45137-.8275-.80324-1.1187-.4368-.31305-1.01193-.46836-1.72296-.46836-.74985 0-1.36137.182-1.83458.546-.26694.20385-.55086.54844-.8542 1.03135v-1.35652h-2.36118v9.28212h2.46553v-5.59597c0-.50718.06552-.88817.19656-1.14297.23782-.44894.70375-.67462 1.39778-.67462.59697 0 .99738.22568 1.20364.67462.11406.24995.16987.65035.16987 1.20364v5.5353h2.44854v-5.5353c0-.41739.06552-.77169.19657-1.06775.2548-.55814.7183-.83478 1.3905-.83478.57998 0 .97796.21598 1.19393.64793.11406.22568.16987.51689.16987.86876v5.92114h2.49222l.01699-5.86048c0-.60424-.02912-1.06046-.08494-1.3735-.09221-.47321-.26693-.8712-.52902-1.19394-.32517-.39798-.68433-.67705-1.08473-.83722zm6.43318-1.14297v-2.2447h-2.46553v2.2447zm-2.46553 1.109v9.29911h2.46553v-9.29911zm4.29284 1.98019h4.44328l-4.76846 5.4261v1.89282h8.02752v-1.99717h-4.8801l4.71751-5.2805v-2.02144h-7.53975zm3.76866-2.22771zm7.85523 2.53347c.30819-.35187.745-.52902 1.30799-.52902.51931 0 .95127.16744 1.30071.4999.35187.33246.546.82023.58484 1.4633h-3.77838c.08009-.60425.27422-1.07988.58484-1.43418zm3.3998-2.0991c-.62123-.28877-1.3177-.43437-2.09181-.43437-1.30071 0-2.36118.42952-3.17655 1.28857-.8178.85906-1.22548 2.09425-1.22548 3.70315 0 1.7181.45379 2.95815 1.35652 3.72013.90516.76198 1.94864 1.14298 3.13044 1.14298 1.43418 0 2.54804-.4538 3.34642-1.35653.50961-.57027.79839-1.13084.86148-1.6817h-2.48251c-.13104.27421-.2815.48776-.4538.64065-.31304.28392-.7183.4271-1.2182.4271-.4732 0-.87604-.11649-1.21335-.35188-.55086-.3737-.84449-1.02892-.87846-1.96077h6.36523c.01213-.80324-.01456-1.4172-.07765-1.8443-.10678-.728-.3446-1.36622-.7086-1.91951-.40283-.62366-.91487-1.08231-1.53367-1.37351zm-1.91951-.43437zm10.80852.39798c-.43924-.24753-.93914-.37129-1.50213-.37129-1.22306 0-2.19859.4538-2.92903 1.3638-.73286.91002-1.09687 2.15977-1.09687 3.74683 0 1.37594.37129 2.50193 1.11386 3.38282.74014.87847 1.65501 1.3177 2.74217 1.3177.66006 0 1.21092-.12619 1.65501-.37614.44409-.24995.83964-.65036 1.18666-1.20364v1.28857h2.36118v-12.55817h-2.46553v4.43601c-.2718-.4368-.62852-.77897-1.06532-1.0265zm.59697 6.62489c-.35916.5096-.8809.76683-1.57008.76683-.68918 0-1.20122-.25723-1.53853-.77169-.33974-.51446-.5096-1.20121-.5096-2.06026 0-.79596.16744-1.4633.4999-2.00203.33245-.5363.8542-.80567 1.56522-.80567.46592 0 .87604.14803 1.2279.44409.57514.48777.86149 1.30314.86149 2.43883 0 .81537-.17715 1.47786-.5363 1.9899zm19.49368-7.82368v-2.22771H319.719v12.57515h9.52965v-2.25925h-6.9622v-3.2348h6.108v-2.18402h-6.108v-2.66937zm-4.54764-2.22771zm9.52965 2.18403h3.05522c.56784 0 .99494.07522 1.27887.22325.50718.25966.75956.7717.75956 1.53368 0 .70617-.26209 1.17695-.78383 1.41719-.29606.1359-.74014.20384-1.33226.20384h-2.97756zm5.6348-1.85886c-.4732-.19899-1.15268-.30819-2.03358-.32517h-6.16867v12.57515h2.56745v-4.93105h2.71305c.77412 0 1.30071.13347 1.58221.4004.2815.26694.42953.80324.43923 1.60405l.01942 1.16967c.00485.36886.04125.73044.1092 1.08231.03397.1723.09221.39555.1723.67462h2.8902v-.31547c-.24996-.15288-.4077-.39312-.47807-.71587-.04368-.20627-.06794-.59454-.06794-1.16967v-.8445c0-.88089-.11891-1.5361-.36158-1.96562-.24267-.42953-.65278-.76198-1.23277-.99495.69404-.23781 1.19151-.6455 1.49243-1.22305.3009-.57756.45136-1.16482.45136-1.76179 0-.49505-.07765-.9367-.23782-1.32255-.16016-.38827-.37613-.74014-.64792-1.05804-.33004-.38827-.73287-.67948-1.2085-.87847zm7.79456 7.4985l1.62104-4.94804 1.57007 4.94805zm.16259-7.82367l-4.4894 12.57515h2.74945l.86876-2.58443h4.63257l.81052 2.58443h2.84895l-4.453-12.57515zm1.46573 0zm9.10497 9.26514h-2.42427c.08493 1.15996.50718 2.05541 1.26188 2.68878.75713.63094 1.72539.94641 2.90234.94641 1.46087 0 2.55774-.44894 3.29303-1.34924.73286-.89788 1.0993-1.91952 1.0993-3.0625 0-1.31284-.381-2.31507-1.14298-3.00183-.76198-.68918-1.65501-1.03377-2.67908-1.03377-.50475 0-.93428.06552-1.28858.19656-.2087.08008-.50232.24267-.87846.48777l.44409-2.70577h5.05966v-2.06512h-6.8166l-.87118 6.83358 2.18403.10193c.19413-.36886.48049-.62124.86148-.75713.21597-.07523.4732-.11163.76926-.11163.62609 0 1.08474.2184 1.3808.65278.29605.43438.44408.96825.44408 1.5992 0 .64307-.15774 1.17694-.4732 1.59919-.31548.42467-.77412.6358-1.37837.6358-.52174 0-.91972-.14318-1.19394-.42953-.27179-.28878-.45865-.69646-.55329-1.22548z"/></svg>
