<?xml version="1.0" encoding="UTF-8" standalone="no"?>
<!-- Created with Inkscape (http://www.inkscape.org/) -->

<svg
   version="1.1"
   id="svg9729"
   width="2547.7861"
   height="2375.0955"
   viewBox="0 0 2547.7861 2375.0955"
   sodipodi:docname="AnyMOD.jl.svg"
   inkscape:version="1.2.2 (b0a84865, 2022-12-01)"
   xmlns:inkscape="http://www.inkscape.org/namespaces/inkscape"
   xmlns:sodipodi="http://sodipodi.sourceforge.net/DTD/sodipodi-0.dtd"
   xmlns="http://www.w3.org/2000/svg"
   xmlns:svg="http://www.w3.org/2000/svg">
  <defs
     id="defs9733" />
  <sodipodi:namedview
     id="namedview9731"
     pagecolor="#ffffff"
     bordercolor="#666666"
     borderopacity="1.0"
     inkscape:showpageshadow="2"
     inkscape:pageopacity="0.0"
     inkscape:pagecheckerboard="0"
     inkscape:deskcolor="#d1d1d1"
     showgrid="false"
     inkscape:zoom="0.13548683"
     inkscape:cx="1251.0441"
     inkscape:cy="904.14691"
     inkscape:window-width="1680"
     inkscape:window-height="959"
     inkscape:window-x="0"
     inkscape:window-y="25"
     inkscape:window-maximized="0"
     inkscape:current-layer="g9735" />
  <g
     inkscape:groupmode="layer"
     inkscape:label="Image"
     id="g9735"
     transform="translate(0.1195162,-1.0662667)">
    <g
       aria-label="AnyMOD.jl"
       id="text9876"
       style="font-size:40px"
       transform="matrix(8.9854943,0,0,8.9854943,-1609.9626,-16997.211)">
      <path
         d="m 240.87888,2147.8103 h -4.1211 l -2.85156,-8.1055 h -12.57813 l -2.85156,8.1055 h -3.92578 l 10.58594,-29.082 h 5.15625 z m -8.16407,-11.4258 -5.09765,-14.2773 -5.11719,14.2773 z"
         id="path9878" />
      <path
         d="m 263.24216,2147.8103 h -3.67188 v -12.4219 q 0,-1.5039 -0.17578,-2.8125 -0.17578,-1.3281 -0.64453,-2.0703 -0.48828,-0.8203 -1.40625,-1.2109 -0.91797,-0.4102 -2.38281,-0.4102 -1.50391,0 -3.14453,0.7422 -1.64063,0.7422 -3.14454,1.8945 v 16.2891 h -3.67187 v -21.8164 h 3.67187 v 2.4219 q 1.71875,-1.4258 3.55469,-2.2266 1.83594,-0.8008 3.76953,-0.8008 3.53516,0 5.39063,2.1289 1.85547,2.1289 1.85547,6.1328 z"
         id="path9880" />
      <path
         d="m 288.78903,2125.9939 -12.73437,29.8633 h -3.92578 l 4.0625,-9.1016 -8.69141,-20.7617 h 3.98437 l 6.69922,16.1719 6.75782,-16.1719 z"
         id="path9882" />
      <path
         d="m 319.78513,2147.8103 h -3.86719 v -25.0586 l -8.08594,17.0508 h -2.30469 l -8.02734,-17.0508 v 25.0586 h -3.61328 v -29.082 h 5.27344 l 7.7539,16.1914 7.5,-16.1914 h 5.3711 z"
         id="path9884" />
      <path
         d="m 349.27731,2122.0681 q 1.77735,1.9531 2.71485,4.7852 0.95703,2.832 0.95703,6.4258 0,3.5937 -0.97656,6.4453 -0.95704,2.832 -2.69532,4.7265 -1.79687,1.9727 -4.25781,2.9688 -2.44141,0.9961 -5.58594,0.9961 -3.0664,0 -5.58593,-1.0157 -2.5,-1.0156 -4.25782,-2.9492 -1.75781,-1.9336 -2.71484,-4.7461 -0.9375,-2.8125 -0.9375,-6.4257 0,-3.5547 0.9375,-6.3672 0.9375,-2.8321 2.73437,-4.8438 1.71875,-1.914 4.25782,-2.9297 2.55859,-1.0156 5.5664,-1.0156 3.125,0 5.60547,1.0352 2.5,1.0156 4.23828,2.9101 z m -0.35156,11.211 q 0,-5.6641 -2.53906,-8.7305 -2.53906,-3.086 -6.9336,-3.086 -4.43359,0 -6.97265,3.086 -2.51953,3.0664 -2.51953,8.7305 0,5.7226 2.57812,8.7695 2.57813,3.0273 6.91406,3.0273 4.33594,0 6.89454,-3.0273 2.57812,-3.0469 2.57812,-8.7695 z"
         id="path9886" />
      <path
         d="m 383.65231,2133.2986 q 0,3.9648 -1.73828,7.1875 -1.71875,3.2226 -4.58984,5 -1.99219,1.2305 -4.45313,1.7773 -2.4414,0.5469 -6.44531,0.5469 H 359.082 v -29.082 h 7.26563 q 4.25781,0 6.75781,0.625 2.51953,0.6054 4.25781,1.6797 2.96875,1.8554 4.62891,4.9414 1.66015,3.0859 1.66015,7.3242 z m -4.04297,-0.059 q 0,-3.418 -1.1914,-5.7617 -1.19141,-2.3438 -3.55469,-3.6914 -1.71875,-0.9766 -3.65234,-1.3477 -1.9336,-0.3906 -4.62891,-0.3906 h -3.63281 v 22.4414 h 3.63281 q 2.79297,0 4.86328,-0.4102 2.08985,-0.4101 3.82813,-1.5234 2.16797,-1.3867 3.24218,-3.6523 1.09375,-2.2657 1.09375,-5.6641 z"
         id="path9888" />
      <path
         d="m 394.62888,2147.8103 h -4.66797 v -5.5664 h 4.66797 z"
         id="path9890" />
      <path
         d="m 409.98044,2122.3416 h -4.14063 v -3.8086 h 4.14063 z m -0.23438,25.996 q 0,3.8282 -1.95312,5.7813 -1.95313,1.9531 -5.23438,1.9531 -0.78125,0 -2.07031,-0.1562 -1.26953,-0.1563 -2.12891,-0.3907 v -3.496 h 0.19532 q 0.54687,0.2148 1.46484,0.4882 0.9375,0.2735 1.81641,0.2735 1.40625,0 2.26562,-0.3907 0.85938,-0.3906 1.28906,-1.1718 0.42969,-0.7813 0.54688,-1.8946 0.13672,-1.0937 0.13672,-2.6757 v -17.5782 h -4.55078 v -3.0859 h 8.22265 z"
         id="path9892" />
      <path
         d="m 420.66403,2147.8103 h -3.67187 v -30.3906 h 3.67187 z"
         id="path9894" />
    </g>
    <g
       id="g9856">
      <path
         style="fill:#a36ebb;stroke-width:1.06667"
         d="m 1816.5333,1741.1965 c -43.2764,-5.4472 -80.1021,-30.7652 -99.5674,-68.4536 -5.3079,-10.2772 -9.3424,-21.4584 -12.0692,-33.4494 -2.4713,-10.8672 -2.4713,-39.9864 0,-50.8536 8.8777,-39.0384 32.6754,-70.5493 66.3231,-87.8194 20.7757,-10.6634 35.411,-14.1668 59.1802,-14.1668 17.0853,0 27.5315,1.5232 40.0997,5.8473 l 5.7839,1.9899 1.4488,-3.412 c 2.7463,-6.4675 175.816,-398.0801 176.2222,-398.7461 0.2239,-0.3669 -3.5443,-2.9601 -8.3739,-5.7626 -35.0076,-20.3151 -61.0135,-52.3825 -73.1031,-90.14221 -5.7396,-17.92667 -7.0809,-27.21341 -7.0809,-49.02797 0,-26.95951 3.8856,-45.22841 14.5143,-68.24402 4.3409,-9.39982 18.1742,-31.04876 22.101,-34.58797 1.2401,-1.11759 2.2546,-2.37799 2.2546,-2.80087 0,-0.64779 -349.4603,-347.03406 -408.0163,-404.4271 l -19.2163,-18.83468 -6.3837,5.28997 c -29.2853,24.26784 -66.8828,39.82043 -104.2503,43.12438 l -8.2667,0.73092 v 159.72843 159.72843 l 10.9553,1.23274 c 36.4779,4.10467 69.4735,20.29581 95.7114,46.96617 22.2303,22.59668 37.0896,50.64224 43.4134,81.93904 1.4247,7.05092 1.8902,14.47673 1.8902,30.15456 0,29.36082 -3.7389,46.04587 -15.8955,70.93338 -7.7298,15.8248 -17.0447,28.7032 -30.4748,42.1333 -13.4301,13.4301 -26.3085,22.7449 -42.1333,30.4748 -21.8251,10.6607 -39.6726,15.1624 -64.0205,16.148 -46.8515,1.8968 -88.2777,-14.4434 -121.2349,-47.8198 -21.8643,-22.1424 -36.7955,-50.7033 -43.1691,-82.57505 -2.681,-13.40705 -2.681,-45.18222 0,-58.58927 6.5213,-32.61084 21.5175,-60.91249 44.4008,-83.79573 26.4944,-26.4944 60.5972,-42.5806 98.4237,-46.42618 l 7.2,-0.73198 5e-4,-45.47574 c 3e-4,-25.01165 0.319,-96.86894 0.7083,-159.68286 l 0.7077,-114.20713 -12.1749,-1.31462 c -65.6731,-7.09122 -121.2062,-45.80851 -149.3675,-104.1378 -18.7023,-38.73721 -23.5936,-78.66081 -14.8014,-120.80908 5.7335,-27.48534 19.8087,-56.81632 37.6775,-78.51539 l 6.0314,-7.32446 -65.7429,-66.542208 C 1210.0801,52.343991 1179.9627,22.4 1179.3113,22.4 c -0.6514,0 -31.1513,29.969859 -67.7777,66.599687 l -66.5933,66.599683 4.5431,5.66699 c 23.1563,28.88454 37.4047,62.40682 41.7923,98.32449 1.5838,12.96524 0.7441,40.18193 -1.642,53.2217 -9.326,50.96545 -38.0749,94.67071 -81.1004,123.29184 -5.8667,3.90259 -14.13985,8.77562 -18.38488,10.82895 -4.24502,2.05334 -7.53092,4.21334 -7.30198,4.8 3.91948,10.04422 416.85356,1035.78136 417.20936,1036.35706 0.2779,0.4498 3.5635,-0.057 7.3012,-1.1257 18.7794,-5.3704 45.9162,-5.6156 65.1763,-0.5888 71.0614,18.5466 112.139,91.315 91.2126,161.5819 -11.9121,39.9987 -45.3895,73.476 -85.3882,85.3882 -54.673,16.2823 -113.2986,-5.0441 -144.639,-52.6157 -27.5136,-41.763 -27.5556,-98.3333 -0.1045,-139.962 12.0457,-18.2667 30.217,-34.7731 48.5884,-44.1367 2.5318,-1.2903 4.4518,-2.743 4.2667,-3.2281 -0.1851,-0.485 -94.1077,-233.9034 -208.7171,-518.70752 l -208.38078,-517.82573 -9.21927,2.48638 c -12.37899,3.33854 -28.73398,6.4335 -38.81927,7.34603 l -8.26666,0.74799 v 157.20802 c 4.2e-4,126.77881 0.26392,157.20801 1.36173,157.20801 4.80984,0 21.05317,2.65728 29.89133,4.89 18.97604,4.79374 37.31658,13.28473 53.49109,24.76441 11.43873,8.11847 29.41323,26.24421 37.76133,38.07893 12.2345,17.34418 22.1634,40.6088 26.5084,62.1121 2.6639,13.18354 2.6639,47.12559 0,60.30913 -4.345,21.5033 -14.2739,44.76795 -26.5084,62.11215 -8.4519,11.9818 -26.3492,29.9751 -38.19518,38.4 -11.03121,7.8454 -29.52171,17.2474 -41.72889,21.2184 l -9.11706,2.9658 42.70253,192.1745 42.7025,192.1746 20.8322,0.075 c 19.2232,0.069 21.6561,0.2993 31.4988,2.9799 57.9187,15.7736 96.5253,65.5339 96.5253,124.4119 0,63.1829 -45.2981,116.3857 -107.7214,126.5193 -49.4771,8.0321 -99.79974,-14.2296 -127.61845,-56.4558 -27.5136,-41.763 -27.55568,-98.3332 -0.10411,-139.9619 15.96351,-24.2077 40.95188,-43.5452 66.91876,-51.7857 5.0868,-1.6143 5.8289,-2.1932 5.5831,-4.3555 -0.3396,-2.9863 -84.49285,-382.0257 -84.90862,-382.4415 -0.15884,-0.1589 -4.57558,0.244 -9.81499,0.8952 -9.44759,1.1743 -39.7991,0.703 -43.2965,-0.6723 -1.17922,-0.4637 -1.97319,-0.047 -2.37798,1.2477 -1.05914,3.388 -83.85173,381.2779 -83.85173,382.7242 0,0.7603 1.56,1.6777 3.46667,2.0388 5.44775,1.0314 22.99014,9.3305 31.19999,14.7603 36.80458,24.3414 58.12522,63.7683 58.12522,107.4874 0,63.1829 -45.29797,116.3857 -107.72143,126.5193 -56.18132,9.1205 -112.71069,-20.9507 -136.60372,-72.667 -29.62058,-64.1137 -1.46301,-140.6434 62.64403,-170.261 18.81326,-8.6917 37.54704,-12.2092 60.24122,-11.3107 13.06199,0.517 14.76325,0.3851 15.24824,-1.1826 0.7255,-2.3453 83.79978,-381.1063 83.79978,-382.0687 0,-0.4115 -2.94238,-1.5738 -6.53863,-2.5828 -32.40923,-9.0936 -65.72573,-33.9083 -85.60621,-63.761 -12.50758,-18.7815 -20.35905,-37.78527 -24.81296,-60.05758 -2.68107,-13.40705 -2.68107,-45.18222 0,-58.58927 6.52135,-32.61084 21.51752,-60.91249 44.40076,-83.79574 26.63712,-26.63712 61.21552,-42.86848 98.95704,-46.45118 l 7.73333,-0.7341 V 624.54177 467.49251 l -11.46667,-1.27634 c -35.60903,-3.96361 -69.37956,-17.59373 -96.08953,-38.78267 l -6.75621,-5.35968 -4.56775,4.69643 c -5.92165,6.08847 -380.8627,399.51219 -384.37307,403.3207 l -2.66464,2.89093 3.09227,3.89166 c 19.95436,25.11276 30.85791,47.54752 36.37241,74.83858 1.42473,7.05093 1.8902,14.47674 1.8902,30.15456 0,15.67783 -0.46547,23.10364 -1.8902,30.15457 -4.34501,21.5033 -14.27394,44.76795 -26.50838,62.11215 -8.45188,11.9818 -26.34921,29.9751 -38.19521,38.4 -11.03121,7.8454 -29.5217,17.2474 -41.72888,21.2184 l -9.11707,2.9658 42.70254,192.1745 42.70254,192.1746 20.83216,0.075 c 19.22319,0.069 21.65602,0.2993 31.49883,2.9799 57.91863,15.7736 96.52522,65.5339 96.52522,124.4119 0,63.1829 -45.29797,116.3857 -107.72143,126.5193 -49.47705,8.0321 -99.79966,-14.2296 -127.61837,-56.4558 -27.5136,-41.763 -27.55568,-98.3332 -0.10411,-139.9619 15.96351,-24.2077 40.95188,-43.5452 66.91872,-51.7857 5.08686,-1.6143 5.82898,-2.1932 5.58311,-4.3555 -0.33954,-2.9863 -84.49283,-382.0257 -84.90859,-382.4415 -0.15884,-0.1589 -4.57559,0.244 -9.81499,0.8952 -9.44759,1.1743 -39.7991,0.703 -43.2965,-0.6723 -1.17922,-0.4637 -1.97319,-0.047 -2.37798,1.2477 -1.05914,3.388 -83.85173,381.2779 -83.85173,382.7242 0,0.7603 1.56,1.6777 3.46666,2.0388 5.44776,1.0314 22.99015,9.3305 31.2,14.7603 36.80458,24.3414 58.12522,63.7683 58.12522,107.4874 0,63.1829 -45.29798,116.3857 -107.72143,126.5193 -56.181319,9.1205 -112.710692,-20.9507 -136.603718,-72.667 -29.620584,-64.1137 -1.463023,-140.6434 62.644024,-170.261 18.813261,-8.6917 37.547044,-12.2092 60.241224,-11.3107 13.06199,0.517 14.76325,0.3851 15.24824,-1.1826 0.72549,-2.3453 83.79977,-381.1063 83.79977,-382.0687 0,-0.4115 -2.94237,-1.5738 -6.53862,-2.5828 -32.40924,-9.0936 -65.72574,-33.9083 -85.60622,-63.761 -12.50757,-18.7815 -20.35905,-37.78527 -24.81296,-60.05758 -2.68106,-13.40705 -2.68106,-45.18222 0,-58.58927 6.52136,-32.61084 21.51753,-60.91249 44.40077,-83.79574 28.85966,-28.85965 65.28623,-44.83897 106.15703,-46.56812 38.05828,-1.61016 73.19008,9.06432 102.44071,31.12568 l 8.90479,6.71616 11.64257,-11.89168 c 6.40342,-6.54041 91.69451,-95.89167 189.53578,-198.55834 C 677.5651,506.93334 760.50419,419.9688 764.03294,416.34547 l 6.41589,-6.58787 -6.9483,-8.34546 C 730.0928,361.28676 714.37497,310.42354 720.04838,260.8 c 7.36956,-64.45932 45.17315,-118.61456 102.98804,-147.53471 28.06955,-14.040941 57.64665,-20.310207 89.93543,-19.063023 41.01402,1.584204 78.27835,15.613743 110.49475,41.599843 l 7.4667,6.02269 70.403,-70.379065 70.403,-70.3790683 h 7.335 7.3351 l 69.3005,69.8666683 C 1293.8252,109.36 1325.4642,140.8 1326.0186,140.8 c 0.5545,0 3.9871,-2.48448 7.6281,-5.52106 14.5808,-12.16049 36.5044,-24.36505 55.8877,-31.11192 38.9324,-13.551519 83.1905,-13.600795 121.8746,-0.1357 75.3126,26.21455 125.7894,96.56009 125.9048,175.46333 0.032,22.03805 -2.7248,39.21834 -9.6337,60.03193 -7.1572,21.56145 -17.5202,40.55767 -31.7911,58.2752 -3.0427,3.77763 -5.4025,7.16721 -5.244,7.53238 0.6466,1.48918 426.3921,422.39919 427.2517,422.39919 0.5122,0 2.095,-1.24976 3.5173,-2.77724 4.1767,-4.48561 25.3443,-18.12113 35.1419,-22.63718 20.2141,-9.3174 38.9407,-13.83099 61.3107,-14.77741 46.8151,-1.98064 88.3961,14.35581 121.0667,47.5649 22.2303,22.59668 37.0896,50.64224 43.4134,81.93904 2.6639,13.18353 2.6639,47.12559 0,60.30912 -4.3505,21.53053 -14.3052,44.84162 -26.5084,62.07542 -12.6579,17.876 -33.6541,36.9895 -51.7487,47.1086 -4.9704,2.7796 -6.7909,4.3646 -6.4345,5.6022 0.9375,3.2553 176.8573,399.5918 177.7723,400.5101 0.5101,0.512 3.1961,0.1662 6.0768,-0.7824 12.3176,-4.0559 22.0989,-5.4234 38.7624,-5.4191 29.0015,0.011 52.0905,7.2989 74.8598,23.6407 25.7531,18.4833 43.7837,46.6193 51.1236,79.7766 0.8619,3.8942 1.4167,13.2909 1.4167,24 0,10.7091 -0.5548,20.1058 -1.4167,24 -11.6234,52.5077 -49.0635,90.282 -100.6009,101.4988 -12.2374,2.6633 -38.3804,2.628 -50.9825,-0.069 -50.5018,-10.8081 -88.2013,-48.5451 -99.9032,-100.0029 -2.4713,-10.8672 -2.4713,-39.9864 0,-50.8536 6.1427,-27.0118 18.8999,-49.7102 38.0793,-67.7527 8.1643,-7.6804 19.6521,-16.0857 25.8239,-18.8946 1.6133,-0.7342 2.9333,-1.7722 2.9333,-2.3066 0,-1.2121 -177.0284,-401.0446 -178.0665,-402.1771 -0.4157,-0.4535 -2.4898,-0.1003 -4.6093,0.7856 -7.1228,2.9761 -23.9361,6.8413 -35.342,8.1247 l -11.3155,1.2733 v 189.1104 189.1103 l 6.1333,0.7241 c 31.4267,3.7107 57.9365,16.5454 78.9307,38.2145 17.7818,18.3533 28.7205,39.0191 34.5194,65.2149 0.8619,3.8942 1.4167,13.2909 1.4167,24 0,10.7091 -0.5548,20.1058 -1.4167,24 -11.6234,52.5077 -49.0635,90.282 -100.6009,101.4988 -12.2374,2.6633 -38.3804,2.628 -50.9825,-0.069 -50.5017,-10.8081 -88.2013,-48.5452 -99.9032,-100.003 -2.4713,-10.8672 -2.4713,-39.9863 0,-50.8535 8.8776,-39.0384 32.6754,-70.5494 66.3231,-87.8194 15.5243,-7.9681 28.7925,-11.9782 47.1801,-14.2593 l 5.6,-0.6948 v -189.0365 -189.0367 l -12.0639,-1.2575 c -6.6785,-0.6961 -18.1789,-2.9335 -25.7624,-5.0119 -7.5343,-2.0649 -13.9161,-3.537 -14.1818,-3.2713 -0.82,0.82 -177.3252,400.6905 -177.3252,401.7283 0,0.5367 1.8289,1.9089 4.0643,3.0493 7.0467,3.595 20.7168,14.4302 28.5334,22.6162 17.0376,17.8428 27.9775,38.7849 33.6523,64.4204 0.862,3.8941 1.4168,13.2908 1.4168,24 0,18.3605 -0.7654,23.7792 -5.4991,38.9333 -13.5223,43.2895 -50.721,76.6915 -96.301,86.4722 -7.8196,1.678 -32.0412,2.8589 -39.4667,1.9243 z"
         id="path9870" />
      <path
         style="fill:#6581de;stroke-width:1.06667"
         d="m 1424.3235,1737.6122 c -27.7919,-3.94 -53.5376,-16.8162 -73.4619,-36.7405 -16.6851,-16.685 -27.7106,-35.955 -33.7745,-59.0295 -3.0702,-11.6827 -3.2872,-13.7417 -3.2872,-31.1755 0,-17.4338 0.217,-19.4928 3.2872,-31.1755 6.0581,-23.0528 17.0932,-42.3709 33.7515,-59.0854 9.1875,-9.2187 24.6984,-20.5879 32.4921,-23.8161 2.4221,-1.0033 3.3549,-2.0018 3.0302,-3.2435 -1.1894,-4.5485 -417.33411,-1037.70454 -417.62984,-1036.84331 -0.18457,0.5375 -1.02457,0.71288 -1.86667,0.38974 -0.84209,-0.32314 -1.53108,-0.15903 -1.53108,0.36469 0,0.52371 -0.84,1.00141 -1.86667,1.06155 -1.02667,0.0602 -5.10137,1.08759 -9.0549,2.28324 -7.68827,2.32515 -22.41396,4.94485 -34.1451,6.07442 l -7.2,0.69328 v 157.2001 157.2001 l 3.46667,0.47552 c 17.59089,2.41293 28.58225,4.64274 37.84993,7.6786 48.03266,15.73436 86.38526,54.14244 102.16466,102.31245 5.748,17.54707 7.3436,28.33082 7.3436,49.6301 0,21.31079 -1.5953,32.08205 -7.3565,49.66924 -15.5831,47.57108 -53.3834,85.83338 -100.5744,101.80358 -6.40733,2.1684 -9.24907,3.643 -9.14946,4.7477 0.0795,0.8814 19.21564,87.4268 42.52481,192.3235 l 42.38035,190.7211 19.8751,0.055 c 18.7172,0.051 20.6041,0.2471 32.384,3.3547 23.1087,6.096 42.4343,17.1455 59.0526,33.7639 16.6294,16.6293 27.6872,35.9765 33.7515,59.0526 3.0702,11.6827 3.2872,13.7417 3.2872,31.1755 0,17.4338 -0.217,19.4928 -3.2872,31.1755 -6.0639,23.0745 -17.0894,42.3445 -33.7745,59.0295 -16.685,16.6851 -35.955,27.7106 -59.0296,33.7745 -11.6826,3.0702 -13.7416,3.2873 -31.1754,3.2873 -17.4339,0 -19.4928,-0.2171 -31.1755,-3.2873 -23.07461,-6.0639 -42.34447,-17.0894 -59.02956,-33.7745 -16.68508,-16.685 -27.71059,-35.955 -33.77449,-59.0295 -3.07017,-11.6827 -3.28728,-13.7417 -3.28728,-31.1755 0,-17.4338 0.21711,-19.4928 3.28728,-31.1755 3.76806,-14.3383 10.24865,-28.7486 18.401,-40.9163 7.24272,-10.8102 22.67651,-26.244 33.48665,-33.4868 9.59057,-6.4256 25.3441,-14.1668 32.9654,-16.1991 4.9376,-1.3167 5.1163,-1.498 4.5345,-4.5992 -1.8221,-9.7129 -84.76011,-381.5974 -85.20289,-382.0402 -0.29089,-0.2909 -5.49606,0.05 -11.56702,0.758 -7.13086,0.8314 -15.75783,1.0115 -24.37145,0.5092 -7.33333,-0.4277 -14.7633,-0.854 -16.51105,-0.9472 l -3.17771,-0.1701 -41.84393,190.4 c -23.01416,104.72 -41.86419,191.404 -41.88896,192.6311 -0.0347,1.72 0.99368,2.5355 4.48832,3.5592 7.5466,2.2107 23.4102,10.1025 32.35854,16.0978 10.81014,7.2428 26.24394,22.6766 33.48666,33.4867 8.15235,12.1678 14.63293,26.578 18.401,40.9164 3.07016,11.6827 3.28727,13.7417 3.28727,31.1755 0,17.4338 -0.21711,19.4928 -3.28727,31.1754 -6.06391,23.0746 -17.08942,42.3446 -33.7745,59.0296 -16.68509,16.6851 -35.95495,27.7106 -59.02952,33.7745 -11.68269,3.0702 -13.74169,3.2872 -31.17551,3.2872 -17.43382,0 -19.49282,-0.217 -31.17551,-3.2872 -23.07457,-6.0639 -42.34443,-17.0894 -59.02952,-33.7745 -16.68508,-16.685 -27.71059,-35.955 -33.7745,-59.0296 -3.07016,-11.6826 -3.28727,-13.7416 -3.28727,-31.1754 0,-17.4338 0.21711,-19.4928 3.28727,-31.1755 6.06432,-23.0762 17.12217,-42.4234 33.75146,-59.0526 16.72082,-16.7208 36.30067,-27.8773 58.97576,-33.6039 14.17186,-3.5792 32.41407,-4.9605 44.84202,-3.3953 6.63979,0.8361 7.79473,0.7379 8.23415,-0.7001 0.96591,-3.161 83.77614,-381.321 83.77614,-382.5709 0,-0.6877 -3.96,-2.4855 -8.8,-3.9952 -18.65803,-5.8196 -41.18244,-18.7324 -56.07785,-32.148 -31.81828,-28.6573 -49.74123,-64.07185 -53.67336,-106.055 -3.37439,-36.02822 5.85163,-71.87309 26.65765,-103.57022 7.9379,-12.09305 30.7297,-34.88573 42.82689,-42.82853 23.48143,-15.41748 48.42915,-24.19069 77.06667,-27.10155 l 6.13333,-0.62342 V 624.54149 467.36981 l -7.2,-0.69237 c -37.19008,-3.57633 -69.76694,-16.13649 -98.63795,-38.03032 -4.53088,-3.43591 -8.43766,-6.24711 -8.68175,-6.24711 -0.94281,0 -390.56564,408.9307 -390.88445,410.25483 -0.18561,0.77097 2.17797,4.41903 5.25241,8.1068 16.27958,19.52728 28.7876,46.47178 33.65031,72.48877 2.5648,13.72248 2.5648,43.51007 0,57.23255 -10.63578,56.90474 -51.68682,104.45184 -106.07126,122.85654 -6.40734,2.1684 -9.24908,3.643 -9.14946,4.7477 0.0795,0.8814 19.21564,87.4268 42.52481,192.3235 l 42.38031,190.7211 19.87519,0.055 c 18.71708,0.051 20.60406,0.2471 32.38403,3.3547 23.10866,6.096 42.43416,17.1455 59.05256,33.7639 16.62929,16.6293 27.68714,35.9765 33.75146,59.0526 3.07016,11.6827 3.28727,13.7417 3.28727,31.1755 0,17.4338 -0.21711,19.4928 -3.28727,31.1755 -6.06391,23.0745 -17.08942,42.3445 -33.7745,59.0295 -16.68509,16.6851 -35.95495,27.7106 -59.02952,33.7745 -11.68269,3.0702 -13.74169,3.2873 -31.17551,3.2873 -17.43382,0 -19.49282,-0.2171 -31.17551,-3.2873 -23.07457,-6.0639 -42.34444,-17.0894 -59.02952,-33.7745 -16.68508,-16.685 -27.71059,-35.955 -33.7745,-59.0295 -3.07016,-11.6827 -3.28727,-13.7417 -3.28727,-31.1755 0,-17.4338 0.21711,-19.4928 3.28727,-31.1755 3.76807,-14.3383 10.24865,-28.7486 18.401,-40.9163 7.24272,-10.8102 22.67652,-26.244 33.48666,-33.4868 9.59057,-6.4256 25.34409,-14.1668 32.96538,-16.1991 4.93758,-1.3167 5.11632,-1.498 4.53454,-4.5992 -1.82216,-9.7129 -84.76013,-381.5974 -85.20292,-382.0402 -0.29089,-0.2909 -5.49605,0.05 -11.56702,0.758 -7.13085,0.8314 -15.75782,1.0115 -24.37144,0.5092 -7.33333,-0.4277 -14.76331,-0.854 -16.51105,-0.9472 l -3.17772,-0.1701 -41.84392,190.4 c -23.01417,104.72 -41.86419,191.404 -41.88896,192.6311 -0.0347,1.72 0.99367,2.5355 4.48832,3.5592 7.5466,2.2107 23.4102,10.1025 32.35854,16.0978 10.81014,7.2428 26.24393,22.6766 33.48665,33.4867 8.15235,12.1678 14.63294,26.578 18.401,40.9164 3.07017,11.6827 3.28728,13.7417 3.28728,31.1755 0,17.4338 -0.21711,19.4928 -3.28728,31.1754 -6.0639,23.0746 -17.08941,42.3446 -33.77449,59.0296 -16.68509,16.6851 -35.95495,27.7106 -59.02952,33.7745 -11.68269,3.0702 -13.74169,3.2872 -31.17551,3.2872 -17.43383,0 -19.49282,-0.217 -31.175516,-3.2872 -23.074562,-6.0639 -42.344434,-17.0894 -59.029519,-33.7745 -16.685083,-16.685 -27.710587,-35.955 -33.774492,-59.0296 -3.07016705,-11.6826 -3.28727643,-13.7416 -3.28727643,-31.1754 0,-17.4338 0.21710938,-19.4928 3.28727643,-31.1755 6.064317,-23.0762 17.122162,-42.4234 33.751453,-59.0526 16.720816,-16.7208 36.300669,-27.8773 58.975765,-33.6039 14.171859,-3.5792 32.414069,-4.9605 44.842009,-3.3953 6.6398,0.8361 7.79473,0.7379 8.23416,-0.7001 0.96591,-3.161 83.77613,-381.321 83.77613,-382.5709 0,-0.6877 -3.96,-2.4855 -8.8,-3.9952 -4.84,-1.5096 -13.84,-5.2065 -20,-8.2152 -60.19631,-29.402 -95.90408,-92.23417 -89.7512,-157.92823 3.68631,-39.35863 18.34482,-70.43225 46.51345,-98.60088 24.05971,-24.05971 48.46302,-37.31725 81.63775,-44.35116 14.82296,-3.14286 44.55058,-3.43964 59.2,-0.59102 23.84936,4.63757 49.04473,15.57945 67.03699,29.11289 l 9.43699,7.09833 4.56089,-4.68231 c 5.7594,-5.91274 380.74597,-399.39072 384.35687,-403.31037 l 2.66671,-2.8947 -4.81123,-5.63863 c -15.69047,-18.38876 -30.46514,-44.08304 -36.99073,-64.32975 -19.27424,-59.80143 -8.96685,-122.29751 28.35781,-171.93994 17.58002,-23.38171 40.77672,-42.2843 67.85425,-55.29326 65.29555,-31.370167 141.9693,-22.365047 198.59806,23.3248 l 7.4667,6.02433 70.403,-70.379065 70.403,-70.3790683 h 7.335 7.3351 l 69.3005,69.8666683 C 1293.8252,109.36 1325.4309,140.8 1325.9447,140.8 c 0.5137,0 4.6664,-3.01207 9.2281,-6.69349 10.6672,-8.6089 21.4847,-15.31391 35.5084,-22.00938 83.5705,-39.899398 183.7748,-12.153241 235.3564,65.16923 22.1,33.12836 32.3925,69.81802 30.9147,110.20031 -1.4946,40.84061 -15.5866,78.71712 -41.04,110.30815 -3.0318,3.76281 -5.5123,7.14051 -5.5123,7.50599 0,0.85125 425.4005,421.79899 426.7446,422.27773 0.5536,0.1972 3.2825,-1.53699 6.0643,-3.85373 19.1535,-15.95174 44.2633,-27.83073 70.6577,-33.42705 14.8229,-3.14285 44.5506,-3.43963 59.2,-0.59101 21.574,4.19511 46.0376,14.22785 62.0365,25.44175 29.3778,20.59142 50.8453,49.27024 61.7113,82.44142 5.7481,17.54707 7.3437,28.33081 7.3437,49.6301 0,21.31078 -1.5953,32.08205 -7.3565,49.66924 -18.2736,55.78444 -64.6932,96.24394 -123.735,107.84784 -13.1645,2.5873 -43.1641,2.5837 -56.2648,-0.011 -29.8719,-5.9067 -56.8623,-18.9761 -77.4131,-37.4851 -31.8182,-28.6574 -49.7412,-64.072 -53.6733,-106.05511 -3.8019,-40.5918 9.2584,-83.41322 35.0751,-115.00253 2.0222,-2.47444 3.5116,-4.91868 3.3098,-5.43165 -0.2019,-0.50902 -52.447,-52.46004 -116.1003,-115.44276 -63.6534,-62.98272 -159.5218,-157.90683 -213.0408,-210.94246 l -97.3074,-96.42842 -8.2926,6.68936 c -30.154,24.32421 -64.6587,38.2781 -104.0259,42.0687 l -7.2,0.69328 V 627.21955 787.0693 l 5.0667,0.61033 c 14.5532,1.75309 27.5331,4.39315 37.3299,7.59285 47.9623,15.66462 86.3729,54.13016 102.1512,102.29744 5.7481,17.54707 7.3437,28.33081 7.3437,49.6301 0,21.31078 -1.5953,32.08205 -7.3565,49.66924 -18.2761,55.79234 -64.7107,96.27034 -123.735,107.86274 -14.5451,2.8566 -44.2672,2.5457 -59.2,-0.6194 -61.5393,-13.0435 -108.1722,-57.1614 -123.7498,-117.0757 -11.4325,-43.97196 -3.4784,-90.23121 22.2563,-129.43688 7.9387,-12.09444 30.7301,-34.88627 42.8268,-42.82781 22.6868,-14.89386 46.1683,-23.53054 71.8799,-26.43776 5.2139,-0.58954 9.5993,-1.20597 9.7452,-1.36983 0.146,-0.16387 0.6172,-72.1235 1.047,-159.91028 l 0.7816,-159.61234 -7.8602,-0.71954 c -23.8919,-2.18713 -46.0699,-8.20816 -66.6459,-18.09348 -94.6078,-45.4525 -133.2071,-160.39407 -85.1257,-253.48862 5.771,-11.17358 14.5952,-24.61081 21.9198,-33.37884 l 5.2115,-6.2385 -65.762,-66.561508 C 1210.0886,52.35268 1179.9627,22.4 1179.3113,22.4 c -0.6514,0 -31.1455,29.963933 -67.7646,66.586517 -62.1172,62.123233 -66.4784,66.723913 -65.0634,68.636443 0.8342,1.12745 4.5461,6.04476 8.2487,10.92732 42.3342,55.82544 49.4336,131.90649 18.1634,194.64973 -17.5193,35.15234 -45.85,64.34879 -79.29543,81.71871 -5.86666,3.04686 -10.79845,5.63838 -10.95952,5.75893 -0.46049,0.34465 416.55565,1036.41425 417.54355,1037.37985 0.4854,0.4746 5.6826,-0.3698 11.5493,-1.8762 9.44,-2.4242 12.8134,-2.7416 29.3333,-2.7603 17.4704,-0.02 19.4684,0.1896 31.1755,3.2662 23.0762,6.0643 42.4234,17.1221 59.0526,33.7514 16.6293,16.6293 27.6871,35.9765 33.7514,59.0526 3.0702,11.6827 3.2873,13.7417 3.2873,31.1755 0,17.4338 -0.2171,19.4928 -3.2873,31.1755 -6.0638,23.0745 -17.0893,42.3445 -33.7745,59.0295 -23.5602,23.5602 -52.9352,36.2955 -85.9383,37.2577 -7.92,0.2308 -17.3744,0 -21.0098,-0.5172 z"
         id="path9868" />
      <path
         style="fill:#d3615a;stroke-width:1.06667"
         d="m 1424.3235,1737.6122 c -27.7919,-3.94 -53.5376,-16.8162 -73.4619,-36.7405 -16.6851,-16.685 -27.7106,-35.955 -33.7745,-59.0295 -3.0702,-11.6827 -3.2872,-13.7417 -3.2872,-31.1755 0,-17.4338 0.217,-19.4928 3.2872,-31.1755 6.0581,-23.0528 17.0932,-42.3709 33.7515,-59.0854 9.1875,-9.2187 24.6984,-20.5879 32.4921,-23.8161 2.4221,-1.0033 3.3549,-2.0018 3.0302,-3.2435 -1.1894,-4.5485 -417.33411,-1037.70454 -417.62984,-1036.84331 -0.18457,0.5375 -1.02457,0.71288 -1.86667,0.38974 -0.84209,-0.32314 -1.53108,-0.0278 -1.53108,0.65621 0,0.68405 -0.39746,0.99809 -0.88324,0.69787 -0.4858,-0.30024 -5.14363,0.62626 -10.35076,2.05889 -10.61143,2.9195 -28.62803,5.82774 -36.1029,5.82774 h -4.92977 v 157.81834 157.81833 l 3.46667,0.47552 c 17.59089,2.41293 28.58225,4.64274 37.84993,7.6786 48.03266,15.73436 86.38526,54.14244 102.16466,102.31245 5.748,17.54707 7.3436,28.33082 7.3436,49.6301 0,21.31079 -1.5953,32.08205 -7.3565,49.66924 -15.5831,47.57108 -53.3834,85.83338 -100.5744,101.80358 -6.40733,2.1684 -9.24907,3.643 -9.14946,4.7477 0.0795,0.8814 19.21564,87.4268 42.52481,192.3235 l 42.38035,190.7211 19.8751,0.055 c 18.7172,0.051 20.6041,0.2471 32.384,3.3547 23.1087,6.096 42.4343,17.1455 59.0526,33.7639 16.6294,16.6293 27.6872,35.9765 33.7515,59.0526 3.0702,11.6827 3.2872,13.7417 3.2872,31.1755 0,17.4338 -0.217,19.4928 -3.2872,31.1755 -6.0639,23.0745 -17.0894,42.3445 -33.7745,59.0295 -16.685,16.6851 -35.955,27.7106 -59.0296,33.7745 -11.6826,3.0702 -13.7416,3.2873 -31.1754,3.2873 -17.4339,0 -19.4928,-0.2171 -31.1755,-3.2873 -23.07461,-6.0639 -42.34447,-17.0894 -59.02956,-33.7745 -16.68508,-16.685 -27.71059,-35.955 -33.77449,-59.0295 -3.07017,-11.6827 -3.28728,-13.7417 -3.28728,-31.1755 0,-17.4338 0.21711,-19.4928 3.28728,-31.1755 3.76806,-14.3383 10.24865,-28.7486 18.401,-40.9163 7.24272,-10.8102 22.67651,-26.244 33.48665,-33.4868 9.59057,-6.4256 25.3441,-14.1668 32.9654,-16.1991 4.9376,-1.3167 5.1163,-1.498 4.5345,-4.5992 -1.8221,-9.7129 -84.76011,-381.5974 -85.20289,-382.0402 -0.29089,-0.2909 -5.49606,0.05 -11.56702,0.758 -7.13086,0.8314 -15.75783,1.0115 -24.37145,0.5092 -7.33333,-0.4277 -14.7633,-0.854 -16.51105,-0.9472 l -3.17771,-0.1701 -41.84393,190.4 c -23.01416,104.72 -41.86419,191.404 -41.88896,192.6311 -0.0347,1.72 0.99368,2.5355 4.48832,3.5592 7.5466,2.2107 23.4102,10.1025 32.35854,16.0978 10.81014,7.2428 26.24394,22.6766 33.48666,33.4867 8.15235,12.1678 14.63293,26.578 18.401,40.9164 3.07016,11.6827 3.28727,13.7417 3.28727,31.1755 0,17.4338 -0.21711,19.4928 -3.28727,31.1754 -6.06391,23.0746 -17.08942,42.3446 -33.7745,59.0296 -16.68509,16.6851 -35.95495,27.7106 -59.02952,33.7745 -11.68269,3.0702 -13.74169,3.2872 -31.17551,3.2872 -17.43382,0 -19.49282,-0.217 -31.17551,-3.2872 -23.07457,-6.0639 -42.34443,-17.0894 -59.02952,-33.7745 -16.68508,-16.685 -27.71059,-35.955 -33.7745,-59.0296 -3.07016,-11.6826 -3.28727,-13.7416 -3.28727,-31.1754 0,-17.4338 0.21711,-19.4928 3.28727,-31.1755 6.06432,-23.0762 17.12217,-42.4234 33.75146,-59.0526 16.72082,-16.7208 36.30067,-27.8773 58.97576,-33.6039 14.17186,-3.5792 32.41407,-4.9605 44.84202,-3.3953 6.63979,0.8361 7.79473,0.7379 8.23415,-0.7001 0.96591,-3.161 83.77614,-381.321 83.77614,-382.5709 0,-0.6877 -3.96,-2.4855 -8.8,-3.9952 -18.65803,-5.8196 -41.18244,-18.7324 -56.07785,-32.148 -31.81828,-28.6573 -49.74123,-64.07185 -53.67336,-106.055 -3.37439,-36.02822 5.85163,-71.87309 26.65765,-103.57022 7.9379,-12.09305 30.7297,-34.88573 42.82689,-42.82853 23.47932,-15.4161 48.43208,-24.19159 77.05969,-27.10068 l 6.12637,-0.62255 0.27363,-157.64746 0.27364,-157.64746 -9.6,-0.63811 c -33.29501,-2.21315 -72.74947,-17.96384 -99.42044,-39.68987 l -5.66099,-4.6114 -9.85928,10.33805 c -5.42261,5.68594 -93.37928,97.88339 -195.45928,204.88324 -102.08,106.99984 -185.75187,195.17732 -185.93749,195.94994 -0.18561,0.77261 2.17797,4.42202 5.25241,8.10979 16.27958,19.52728 28.7876,46.47178 33.65031,72.48877 2.5648,13.72248 2.5648,43.51007 0,57.23255 -10.63578,56.90474 -51.68682,104.45184 -106.07126,122.85654 -6.40734,2.1684 -9.24908,3.643 -9.14946,4.7477 0.0795,0.8814 19.21564,87.4268 42.52481,192.3235 l 42.38031,190.7211 19.87519,0.055 c 18.71708,0.051 20.60406,0.2471 32.38403,3.3547 23.10866,6.096 42.43416,17.1455 59.05256,33.7639 16.62929,16.6293 27.68714,35.9765 33.75146,59.0526 3.07016,11.6827 3.28727,13.7417 3.28727,31.1755 0,17.4338 -0.21711,19.4928 -3.28727,31.1755 -6.06391,23.0745 -17.08942,42.3445 -33.7745,59.0295 -16.68509,16.6851 -35.95495,27.7106 -59.02952,33.7745 -11.68269,3.0702 -13.74169,3.2873 -31.17551,3.2873 -17.43382,0 -19.49282,-0.2171 -31.17551,-3.2873 -23.07457,-6.0639 -42.34444,-17.0894 -59.02952,-33.7745 -16.68508,-16.685 -27.71059,-35.955 -33.7745,-59.0295 -3.07016,-11.6827 -3.28727,-13.7417 -3.28727,-31.1755 0,-17.4338 0.21711,-19.4928 3.28727,-31.1755 3.76807,-14.3383 10.24865,-28.7486 18.401,-40.9163 7.24272,-10.8102 22.67652,-26.244 33.48666,-33.4868 9.59057,-6.4256 25.34409,-14.1668 32.96538,-16.1991 4.93758,-1.3167 5.11632,-1.498 4.53454,-4.5992 -1.82216,-9.7129 -84.76013,-381.5974 -85.20292,-382.0402 -0.29089,-0.2909 -5.49605,0.05 -11.56702,0.758 -7.13085,0.8314 -15.75782,1.0115 -24.37144,0.5092 -7.33333,-0.4277 -14.76331,-0.854 -16.51105,-0.9472 l -3.17772,-0.1701 -41.84392,190.4 c -23.01417,104.72 -41.86419,191.404 -41.88896,192.6311 -0.0347,1.72 0.99367,2.5355 4.48832,3.5592 7.5466,2.2107 23.4102,10.1025 32.35854,16.0978 10.81014,7.2428 26.24393,22.6766 33.48665,33.4867 8.15235,12.1678 14.63294,26.578 18.401,40.9164 3.07017,11.6827 3.28728,13.7417 3.28728,31.1755 0,17.4338 -0.21711,19.4928 -3.28728,31.1754 -6.0639,23.0746 -17.08941,42.3446 -33.77449,59.0296 -16.68509,16.6851 -35.95495,27.7106 -59.02952,33.7745 -11.68269,3.0702 -13.74169,3.2872 -31.17551,3.2872 -17.43383,0 -19.49282,-0.217 -31.175516,-3.2872 -23.074562,-6.0639 -42.344434,-17.0894 -59.029519,-33.7745 -16.685083,-16.685 -27.710587,-35.955 -33.774492,-59.0296 -3.07016705,-11.6826 -3.28727643,-13.7416 -3.28727643,-31.1754 0,-17.4338 0.21710938,-19.4928 3.28727643,-31.1755 6.064317,-23.0762 17.122162,-42.4234 33.751453,-59.0526 16.720816,-16.7208 36.300669,-27.8773 58.975765,-33.6039 14.171859,-3.5792 32.414069,-4.9605 44.842009,-3.3953 6.6398,0.8361 7.79473,0.7379 8.23416,-0.7001 0.96591,-3.161 83.77613,-381.321 83.77613,-382.5709 0,-0.6877 -3.96,-2.4855 -8.8,-3.9952 -4.84,-1.5096 -13.84,-5.2065 -20,-8.2152 -60.19631,-29.402 -95.90408,-92.23417 -89.7512,-157.92823 3.68631,-39.35863 18.34482,-70.43225 46.51345,-98.60088 24.05971,-24.05971 48.46302,-37.31725 81.63775,-44.35116 14.82296,-3.14286 44.55058,-3.43964 59.2,-0.59102 23.84833,4.63738 49.04472,15.57943 67.03485,29.11129 l 9.43486,7.09672 3.5252,-3.61403 c 1.93886,-1.98773 90.19605,-94.50565 196.12709,-205.59538 l 192.60189,-201.98135 -5.41362,-6.15018 c -20.74507,-23.56763 -35.46649,-53.39245 -42.67867,-86.46476 -2.14709,-9.8457 -2.43276,-14.0993 -2.43276,-36.22238 0,-28.36009 1.23736,-36.61506 8.97044,-59.84546 20.55498,-61.74771 74.22357,-109.14361 138.73486,-122.519767 27.39951,-5.68118 58.49037,-4.683446 86.27512,2.768647 25.20106,6.75912 47.95205,18.59542 70.00225,36.41891 12.7567,10.31148 16.9367,14.60524 27.5872,28.33794 52.8025,68.0836 52.8321,162.10354 0.072,229.5064 -16.2919,20.81359 -39.8642,40.15281 -62.48183,51.26159 -8.03503,3.94644 -8.09516,4.00689 -6.72704,6.76023 0.75927,1.52799 94.73017,234.79671 208.82417,518.37491 114.0941,283.57826 207.8413,515.98526 208.3271,516.46016 0.4858,0.4749 5.6833,-0.3692 11.5499,-1.8756 9.44,-2.4242 12.8135,-2.7416 29.3334,-2.7603 17.4704,-0.02 19.4683,0.1896 31.1754,3.2662 23.0762,6.0643 42.4234,17.1221 59.0526,33.7514 16.6294,16.6293 27.6872,35.9765 33.7515,59.0526 3.0702,11.6827 3.2872,13.7417 3.2872,31.1755 0,17.4338 -0.217,19.4928 -3.2872,31.1755 -6.0639,23.0745 -17.0894,42.3445 -33.7745,59.0295 -23.5602,23.5602 -52.9353,36.2955 -85.9384,37.2577 -7.92,0.2308 -17.3744,0 -21.0098,-0.5172 z M 977.06664,453.33334 c 0.88,-0.5687 1.12,-1.03399 0.53333,-1.03399 -0.58666,0 -1.78666,0.46529 -2.66666,1.03399 -0.88,0.56871 -1.12,1.034 -0.53334,1.034 0.58667,0 1.78667,-0.46529 2.66667,-1.034 z m -37.2147,-21.70962 c 21.25964,-4.96825 42.83929,-15.06893 59.84608,-28.01187 9.56508,-7.27945 24.85998,-23.1195 32.12148,-33.26627 12.071,-16.86721 21.1366,-37.82519 25.9301,-59.94557 2.8023,-12.93145 2.799,-46.82876 -0.01,-59.73334 -5.1544,-23.7146 -14.6252,-44.77957 -28.3532,-63.0632 -25.2824,-33.67225 -61.31416,-54.61768 -104.52614,-60.76145 -12.23886,-1.74009 -39.3199,-0.62871 -51.35966,2.10775 -54.73043,12.43946 -97.44836,50.78973 -114.92437,103.17402 -8.96417,26.87008 -10.01599,59.44996 -2.8139,87.16014 15.25567,58.69654 62.95744,102.78377 123.16686,113.83408 16.17064,2.96782 44.83333,2.26475 60.91863,-1.49429 z M 781.86665,419.91927 c 0,-0.19106 -1.32,-1.51106 -2.93334,-2.93333 l -2.93333,-2.58593 2.58593,2.93333 c 2.41695,2.74164 3.28074,3.4225 3.28074,2.58593 z m 649.69645,686.16333 c -85.6452,-10.75 -147.9569,-87.6945 -139.9811,-172.8528 2.6062,-27.82617 11.1036,-51.93366 26.6578,-75.62978 7.9387,-12.09444 30.7301,-34.88627 42.8268,-42.82781 22.6868,-14.89386 46.1683,-23.53054 71.8799,-26.43776 5.2139,-0.58954 9.5995,-1.20597 9.7458,-1.36983 0.1463,-0.16387 0.6177,-72.34178 1.0477,-160.39535 l 0.7817,-160.09741 -9.9942,-0.66405 c -20.4439,-1.35835 -43.0585,-7.51104 -63.6184,-17.30842 -53.2184,-25.36008 -89.8472,-72.29684 -102.8109,-131.74367 -2.1471,-9.8457 -2.4327,-14.0993 -2.4327,-36.22238 0,-28.35854 1.2375,-36.61543 8.9684,-59.83923 9.6918,-29.11461 30.5263,-60.93939 51.7661,-79.07287 49.4295,-42.200599 112.4308,-56.995587 173.2459,-40.68448 30.9646,8.30496 60.0223,25.24818 83.1592,48.4893 66.8398,67.14071 72.2867,174.26147 12.6186,248.16392 -3.9033,4.83448 -6.6654,8.67448 -6.1382,8.53333 0.5273,-0.14115 96.7847,94.54337 213.9056,210.41004 117.1207,115.86666 213.3998,210.828 213.9535,211.02519 0.5536,0.1972 3.2825,-1.53699 6.0643,-3.85373 19.1535,-15.95174 44.2633,-27.83073 70.6577,-33.42705 14.8229,-3.14285 44.5506,-3.43963 59.2,-0.59101 21.574,4.19511 46.0376,14.22785 62.0365,25.44175 29.3778,20.59142 50.8453,49.27024 61.7113,82.44142 5.7481,17.54707 7.3437,28.33081 7.3437,49.6301 0,21.31078 -1.5953,32.08205 -7.3565,49.66924 -18.2736,55.78454 -64.6931,96.24394 -123.735,107.84784 -13.1645,2.5873 -43.1641,2.5837 -56.2648,-0.011 -29.8719,-5.9067 -56.8623,-18.9761 -77.4131,-37.4851 -31.8182,-28.6574 -49.7412,-64.072 -53.6733,-106.05511 -3.8019,-40.5918 9.2584,-83.41322 35.0751,-115.00253 2.0222,-2.47444 3.5116,-4.92283 3.3098,-5.44087 -0.2019,-0.51804 -96.3639,-95.95864 -213.6935,-212.09021 l -213.3264,-211.14832 -7.2579,6.09397 c -28.0077,23.51626 -67.1748,39.71079 -102.0247,42.18452 l -9.6645,0.686 V 626.7571 787.06535 l 5.0667,0.61033 c 38.5956,4.64923 65.2159,15.86554 92.5301,38.98706 26.0194,22.02545 45.8786,56.83811 52.4351,91.91705 2.5648,13.72249 2.5648,43.51007 0,57.23256 -12.0676,64.56565 -62.0898,115.31515 -126.4559,128.29455 -11.9816,2.416 -38.3472,3.4528 -50.1462,1.9717 z m 53.3555,-674.45888 c 21.2596,-4.96825 42.8392,-15.06893 59.8461,-28.01187 9.5651,-7.27945 24.86,-23.1195 32.1214,-33.26627 12.071,-16.86721 21.1366,-37.82519 25.9302,-59.94557 2.8022,-12.93145 2.7989,-46.82876 -0.011,-59.73334 -5.1544,-23.7146 -14.6253,-44.77957 -28.3533,-63.0632 -25.2823,-33.67225 -61.3141,-54.61768 -104.526,-60.76145 -12.2389,-1.74009 -39.3199,-0.62871 -51.3597,2.10775 -54.7305,12.43946 -97.4483,50.78973 -114.9244,103.17402 -8.9642,26.87008 -10.016,59.44996 -2.8139,87.16014 15.2557,58.69654 62.9575,102.78377 123.1669,113.83408 16.1706,2.96782 44.8332,2.26475 60.9186,-1.49429 z"
         id="path9866" />
      <path
         style="fill:#4062d6;stroke-width:1.06667"
         d="m 1425.79,1736.5053 c -15.5679,-1.775 -34.414,-8.1128 -48.19,-16.2061 -31.445,-18.4735 -53.0444,-48.5123 -60.8672,-84.6495 -2.519,-11.636 -2.519,-38.33 0,-49.966 6.5851,-30.42 23.3786,-57.252 47.3669,-75.6811 8.6709,-6.6616 29.8373,-18.6775 34.2636,-19.4511 2.0735,-0.3625 7.1072,-1.5612 11.186,-2.6638 10.2779,-2.7784 29.223,-4.5013 40.0507,-3.6421 57.7159,4.5799 103.5672,44.7467 115.7937,101.4381 2.2192,10.2897 2.5346,37.1184 0.557,47.383 -8.951,46.461 -41.7487,83.8796 -85.9507,98.0602 -5.28,1.6939 -12.3338,3.5821 -15.6751,4.1961 -8.9957,1.653 -29.0186,2.2674 -38.5349,1.1823 z m 25.41,-20.2729 c 51.7622,-5.8424 89.7428,-43.9486 95.444,-95.7598 2.4708,-22.4544 -3.7111,-47.6688 -16.5961,-67.6913 -6.4762,-10.0635 -22.3556,-25.703 -32.4479,-31.9579 -29.9736,-18.5764 -66.3247,-21.2855 -99.006,-7.3784 -15.7105,6.6855 -31.933,19.614 -42.8995,34.1888 -15.0479,19.9992 -23.0886,49.207 -20.2019,73.3836 2.9736,24.9054 12.0885,44.9035 28.2982,62.0866 19.6404,20.8199 44.9412,32.2146 75.6758,34.0823 1.1734,0.071 6.4534,-0.358 11.7334,-0.9539 z M 112.7234,1734.372 c -15.567897,-1.7751 -34.414071,-8.1129 -48.190068,-16.2061 -31.44504,-18.4735 -53.044422,-48.5123 -60.8672287,-84.6495 -2.518897,-11.636 -2.518897,-38.33 0,-49.9661 10.9920267,-50.7773 49.5534997,-89.1664 99.7921267,-99.346 15.17981,-3.0758 48.86699,-2.3965 57.23709,1.1542 2.25757,0.9577 7.94468,3.1517 12.63801,4.8754 39.31872,14.4412 69.73107,50.3677 78.99375,93.3164 2.21915,10.2897 2.53455,37.1184 0.55701,47.3831 -8.951,46.461 -41.74874,83.8795 -85.95076,98.0601 -5.28,1.694 -12.3338,3.5822 -15.67512,4.1962 -8.99561,1.653 -29.01852,2.2674 -38.53481,1.1823 z m 25.40993,-20.273 c 51.7622,-5.8423 89.74283,-43.9486 95.44401,-95.7598 2.47082,-22.4544 -3.71108,-47.6688 -16.59615,-67.6913 -6.47612,-10.0634 -22.35547,-25.7029 -32.44786,-31.9578 -29.97359,-18.5765 -66.32473,-21.2855 -99.006025,-7.3784 -15.710453,6.6854 -31.933009,19.614 -42.899458,34.1888 -15.047894,19.9992 -23.08854,49.2069 -20.201895,73.3836 2.973656,24.9054 12.088499,44.9035 28.298238,62.0866 19.640353,20.8198 44.941212,32.2146 75.67581,34.0822 1.17333,0.072 6.45333,-0.3579 11.73333,-0.9539 z m 268.99006,20.273 c -46.23643,-5.2718 -87.90954,-38.3549 -103.59509,-82.2411 -5.85891,-16.3925 -7.29135,-24.9575 -7.29135,-43.5975 0,-18.64 1.43244,-27.205 7.29135,-43.5976 12.1003,-33.8551 40.80457,-62.8541 74.07169,-74.8322 4.98667,-1.7955 10.6199,-3.9826 12.51831,-4.8603 7.47877,-3.4576 43.07028,-4.1033 57.26469,-1.0389 50.58126,10.92 88.43805,48.7775 99.34408,99.3459 2.21916,10.2897 2.53455,37.1184 0.55701,47.3831 -8.951,46.461 -41.74873,83.8795 -85.95076,98.0601 -5.28,1.694 -12.3338,3.5822 -15.67511,4.1962 -8.99562,1.653 -29.01853,2.2674 -38.53482,1.1823 z m 25.40993,-20.273 c 51.7622,-5.8423 89.74284,-43.9486 95.44401,-95.7598 2.47083,-22.4544 -3.71108,-47.6688 -16.59615,-67.6913 -6.47612,-10.0634 -22.35546,-25.7029 -32.44786,-31.9578 -29.97359,-18.5765 -66.32472,-21.2855 -99.00602,-7.3784 -15.71046,6.6854 -31.93302,19.614 -42.89946,34.1888 -15.04789,19.9992 -23.08854,49.2069 -20.2019,73.3836 2.97366,24.9054 12.0885,44.9035 28.29824,62.0866 19.64035,20.8198 44.94122,32.2146 75.67581,34.0822 1.17333,0.072 6.45333,-0.3579 11.73333,-0.9539 z m 310.59006,20.273 c -15.56789,-1.7751 -34.41407,-8.1129 -48.19006,-16.2061 -31.44505,-18.4735 -53.04443,-48.5123 -60.86724,-84.6495 -2.51889,-11.636 -2.51889,-38.33 0,-49.9661 10.99204,-50.7773 49.55351,-89.1664 99.79214,-99.346 15.17981,-3.0758 48.86699,-2.3965 57.23709,1.1542 2.25757,0.9577 7.94467,3.1517 12.638,4.8754 39.31872,14.4412 69.73107,50.3677 78.99375,93.3164 2.21916,10.2897 2.53455,37.1184 0.55701,47.3831 -8.95099,46.461 -41.74873,83.8795 -85.95076,98.0601 -5.28,1.694 -12.3338,3.5822 -15.67511,4.1962 -8.99562,1.653 -29.01853,2.2674 -38.53482,1.1823 z m 25.40993,-20.273 c 51.7622,-5.8423 89.74284,-43.9486 95.44401,-95.7598 2.47083,-22.4544 -3.71108,-47.6688 -16.59615,-67.6913 -6.47611,-10.0634 -22.35546,-25.7029 -32.44786,-31.9578 -29.97359,-18.5765 -66.32472,-21.2855 -99.00602,-7.3784 -15.71045,6.6854 -31.93301,19.614 -42.89946,34.1888 -15.04789,19.9992 -23.08854,49.2069 -20.2019,73.3836 2.97366,24.9054 12.08851,44.9035 28.29824,62.0866 19.64036,20.8198 44.94122,32.2146 75.67581,34.0822 1.17333,0.072 6.45333,-0.3579 11.73333,-0.9539 z m 268.99009,20.273 c -46.23646,-5.2718 -87.90957,-38.3549 -103.59512,-82.2411 -5.85891,-16.3925 -7.29134,-24.9575 -7.29134,-43.5975 0,-18.64 1.43243,-27.205 7.29134,-43.5976 12.1003,-33.8551 40.80457,-62.8541 74.07172,-74.8322 4.9866,-1.7955 10.6199,-3.9826 12.5183,-4.8603 7.4788,-3.4576 43.0703,-4.1033 57.2647,-1.0389 50.5812,10.92 88.438,48.7775 99.344,99.3459 2.2192,10.2897 2.5346,37.1184 0.557,47.3831 -8.9509,46.461 -41.7487,83.8795 -85.9507,98.0601 -5.28,1.694 -12.3338,3.5822 -15.6751,4.1962 -8.9956,1.653 -29.0185,2.2674 -38.5348,1.1823 z m 25.4099,-20.273 c 51.7622,-5.8423 89.7428,-43.9486 95.4441,-95.7598 2.4708,-22.4544 -3.7112,-47.6688 -16.5962,-67.6913 -6.4762,-10.0634 -22.3555,-25.7029 -32.4479,-31.9578 -29.9735,-18.5765 -66.3247,-21.2855 -99.006,-7.3784 -15.71047,6.6854 -31.93303,19.614 -42.89947,34.1888 -15.0479,19.9992 -23.08855,49.2069 -20.2019,73.3836 2.97365,24.9054 12.0885,44.9035 28.29824,62.0866 19.64035,20.8198 44.94123,32.2146 75.67583,34.0822 1.1733,0.072 6.4533,-0.3579 11.7333,-0.9539 z m 368.6298,-608.0164 c -85.6452,-10.75 -147.9569,-87.6945 -139.9811,-172.8528 2.6062,-27.82617 11.1036,-51.93366 26.6578,-75.62978 7.9387,-12.09444 30.7301,-34.88627 42.8268,-42.82781 22.6868,-14.89386 46.1683,-23.53054 71.8799,-26.43776 5.2139,-0.58954 9.5995,-1.20597 9.7458,-1.36983 0.1463,-0.16387 0.6177,-72.34178 1.0477,-160.39535 l 0.7817,-160.09741 -9.9942,-0.66405 c -20.4439,-1.35835 -43.0585,-7.51104 -63.6184,-17.30842 -53.2184,-25.36008 -89.8472,-72.29684 -102.8109,-131.74367 -2.1471,-9.8457 -2.4327,-14.0993 -2.4327,-36.22238 0,-28.35854 1.2375,-36.61543 8.9684,-59.83923 9.6918,-29.11461 30.5263,-60.93939 51.7661,-79.07287 49.4295,-42.200599 112.4308,-56.995587 173.2459,-40.68448 30.9646,8.30496 60.0223,25.24818 83.1592,48.4893 66.8398,67.14071 72.2867,174.26147 12.6186,248.16392 -3.9033,4.83448 -6.6654,8.67448 -6.1382,8.53333 0.5273,-0.14115 96.7847,94.54337 213.9056,210.41004 117.1207,115.86666 213.3998,210.828 213.9535,211.02519 0.5536,0.1972 3.2825,-1.53699 6.0643,-3.85373 19.1535,-15.95174 44.2633,-27.83073 70.6577,-33.42705 14.8229,-3.14285 44.5506,-3.43963 59.2,-0.59101 21.574,4.19511 46.0376,14.22785 62.0365,25.44175 29.3778,20.59142 50.8453,49.27024 61.7113,82.44142 5.7481,17.54707 7.3437,28.33081 7.3437,49.6301 0,21.31078 -1.5953,32.08205 -7.3565,49.66924 -18.2736,55.78454 -64.6931,96.24394 -123.735,107.84784 -13.1645,2.5873 -43.1641,2.5837 -56.2648,-0.011 -29.8719,-5.9067 -56.8623,-18.9761 -77.4131,-37.4851 -31.8182,-28.6574 -49.7412,-64.072 -53.6733,-106.05511 -3.8019,-40.5918 9.2584,-83.41322 35.0751,-115.00253 2.0222,-2.47444 3.5116,-4.92283 3.3098,-5.44087 -0.2019,-0.51804 -96.3639,-95.95864 -213.6935,-212.09021 l -213.3264,-211.14832 -7.2579,6.09397 c -28.0077,23.51626 -67.1748,39.71079 -102.0247,42.18452 l -9.6645,0.686 V 626.7571 787.06535 l 5.0667,0.61033 c 38.5956,4.64923 65.2159,15.86554 92.5301,38.98706 26.0194,22.02545 45.8786,56.83811 52.4351,91.91705 2.5648,13.72249 2.5648,43.51007 0,57.23256 -12.0676,64.56565 -62.0898,115.31515 -126.4559,128.29455 -11.9816,2.416 -38.3472,3.4528 -50.1462,1.9717 z m 53.3555,-674.45888 c 21.2596,-4.96825 42.8392,-15.06893 59.8461,-28.01187 9.5651,-7.27945 24.86,-23.1195 32.1214,-33.26627 12.071,-16.86721 21.1366,-37.82519 25.9302,-59.94557 2.8022,-12.93145 2.7989,-46.82876 -0.011,-59.73334 -5.1544,-23.7146 -14.6253,-44.77957 -28.3533,-63.0632 -25.2823,-33.67225 -61.3141,-54.61768 -104.526,-60.76145 -12.2389,-1.74009 -39.3199,-0.62871 -51.3597,2.10775 -54.7305,12.43946 -97.4483,50.78973 -114.9244,103.17402 -8.9642,26.87008 -10.016,59.44996 -2.8139,87.16014 15.2557,58.69654 62.9575,102.78377 123.1669,113.83408 16.1706,2.96782 44.8332,2.26475 60.9186,-1.49429 z M 255.99999,1100.8239 c -40.98723,-5.4021 -74.29533,-22.9055 -101.88854,-53.5423 -28.36499,-31.4937 -43.08187,-76.47215 -39.06266,-119.38513 3.68631,-39.35863 18.34482,-70.43225 46.51345,-98.60088 24.05971,-24.05971 48.46302,-37.31725 81.63775,-44.35116 14.82296,-3.14286 44.55058,-3.43964 59.2,-0.59102 23.84833,4.63738 49.04472,15.57943 67.03485,29.11129 l 9.43486,7.09672 3.5252,-3.61403 c 1.93886,-1.98773 90.19605,-94.50565 196.12709,-205.59538 l 192.60189,-201.98135 -5.41362,-6.15018 c -20.74507,-23.56763 -35.46649,-53.39245 -42.67867,-86.46476 -2.14709,-9.8457 -2.43276,-14.0993 -2.43276,-36.22238 0,-28.36009 1.23736,-36.61506 8.97044,-59.84546 20.55498,-61.74771 74.22357,-109.14361 138.73486,-122.519767 27.39951,-5.68118 58.49037,-4.683446 86.27512,2.768647 25.20106,6.75912 47.95205,18.59542 70.00225,36.41891 12.7567,10.31148 16.9367,14.60524 27.5872,28.33794 52.8025,68.0836 52.8321,162.10354 0.072,229.5064 -12.367,15.79925 -31.411,32.87886 -49.041,43.98227 -8.63387,5.43764 -29.0938,14.87576 -39.82467,18.37103 -12.88013,4.19534 -28.49714,7.35125 -40.64414,8.21348 l -9.66455,0.68601 v 157.6586 157.65861 l 3.46667,0.47552 c 17.59089,2.41293 28.58225,4.64274 37.84993,7.6786 48.03266,15.73436 86.38526,54.14244 102.16466,102.31245 5.748,17.54707 7.3436,28.33082 7.3436,49.6301 0,21.31079 -1.5953,32.08205 -7.3565,49.66924 -18.0235,55.02098 -62.90481,94.78848 -121.06836,107.27358 -9.38493,2.0145 -14.39797,2.3988 -30.93333,2.3715 -17.46586,-0.029 -21.24749,-0.3663 -32.91061,-2.9363 -15.65238,-3.4491 -25.048,-6.7013 -38.02272,-13.1613 -58.97326,-29.3623 -94.23429,-92.23805 -88.15121,-157.18693 2.60619,-27.82617 11.1035,-51.93366 26.65765,-75.62979 7.9379,-12.09305 30.7297,-34.88573 42.82689,-42.82853 23.47932,-15.4161 48.43208,-24.19159 77.05969,-27.10068 l 6.12637,-0.62255 0.27363,-157.64746 0.27364,-157.64746 -9.6,-0.63811 c -33.29501,-2.21315 -72.74947,-17.96384 -99.42044,-39.68987 l -5.66099,-4.6114 -9.85928,10.33805 c -5.42261,5.68594 -93.37928,97.88339 -195.45928,204.88324 -102.08,106.99984 -185.75187,195.17732 -185.93749,195.94994 -0.18561,0.77261 2.17797,4.42202 5.25241,8.10979 16.27958,19.52728 28.7876,46.47178 33.65031,72.48877 2.5648,13.72248 2.5648,43.51007 0,57.23255 -12.06337,64.54274 -61.28328,114.59174 -126.03189,128.15494 -12.0569,2.5255 -38.2609,3.6804 -49.6,2.186 z M 939.85194,431.62372 c 21.25964,-4.96825 42.83929,-15.06893 59.84608,-28.01187 9.56508,-7.27945 24.85998,-23.1195 32.12148,-33.26627 12.071,-16.86721 21.1366,-37.82519 25.9301,-59.94557 2.8023,-12.93145 2.799,-46.82876 -0.01,-59.73334 -5.1544,-23.7146 -14.6252,-44.77957 -28.3532,-63.0632 -25.2824,-33.67225 -61.31416,-54.61768 -104.52614,-60.76145 -12.23886,-1.74009 -39.3199,-0.62871 -51.35966,2.10775 -54.73043,12.43946 -97.44836,50.78973 -114.92437,103.17402 -8.96417,26.87008 -10.01599,59.44996 -2.8139,87.16014 15.25567,58.69654 62.95744,102.78377 123.16686,113.83408 16.17064,2.96782 44.83333,2.26475 60.91863,-1.49429 z M 781.86665,419.91927 c 0,-0.19106 -1.32,-1.51106 -2.93334,-2.93333 l -2.93333,-2.58593 2.58593,2.93333 c 2.41695,2.74164 3.28074,3.4225 3.28074,2.58593 z"
         id="path9864" />
      <path
         style="fill:#5fab50;stroke-width:1.06667"
         d="m 1425.79,1736.5053 c -15.5679,-1.775 -34.414,-8.1128 -48.19,-16.2061 -31.445,-18.4735 -53.0444,-48.5123 -60.8672,-84.6495 -2.519,-11.636 -2.519,-38.33 0,-49.966 6.5851,-30.42 23.3786,-57.252 47.3669,-75.6811 8.6709,-6.6616 29.8373,-18.6775 34.2636,-19.4511 2.0735,-0.3625 7.1072,-1.5612 11.186,-2.6638 10.2779,-2.7784 29.223,-4.5013 40.0507,-3.6421 57.7159,4.5799 103.5672,44.7467 115.7937,101.4381 2.2192,10.2897 2.5346,37.1184 0.557,47.383 -8.951,46.461 -41.7487,83.8796 -85.9507,98.0602 -5.28,1.6939 -12.3338,3.5821 -15.6751,4.1961 -8.9957,1.653 -29.0186,2.2674 -38.5349,1.1823 z m 25.41,-20.2729 c 51.7622,-5.8424 89.7428,-43.9486 95.444,-95.7598 2.4708,-22.4544 -3.7111,-47.6688 -16.5961,-67.6913 -6.4762,-10.0635 -22.3556,-25.703 -32.4479,-31.9579 -29.9736,-18.5764 -66.3247,-21.2855 -99.006,-7.3784 -15.7105,6.6855 -31.933,19.614 -42.8995,34.1888 -15.0479,19.9992 -23.0886,49.207 -20.2019,73.3836 2.9736,24.9054 12.0885,44.9035 28.2982,62.0866 19.6404,20.8199 44.9412,32.2146 75.6758,34.0823 1.1734,0.071 6.4534,-0.358 11.7334,-0.9539 z M 112.7234,1734.372 c -15.567897,-1.7751 -34.414071,-8.1129 -48.190068,-16.2061 -31.44504,-18.4735 -53.044422,-48.5123 -60.8672287,-84.6495 -2.518897,-11.636 -2.518897,-38.33 0,-49.9661 10.9920267,-50.7773 49.5534997,-89.1664 99.7921267,-99.346 15.17981,-3.0758 48.86699,-2.3965 57.23709,1.1542 2.25757,0.9577 7.94468,3.1517 12.63801,4.8754 39.31872,14.4412 69.73107,50.3677 78.99375,93.3164 2.21915,10.2897 2.53455,37.1184 0.55701,47.3831 -8.951,46.461 -41.74874,83.8795 -85.95076,98.0601 -5.28,1.694 -12.3338,3.5822 -15.67512,4.1962 -8.99561,1.653 -29.01852,2.2674 -38.53481,1.1823 z m 25.40993,-20.273 c 51.7622,-5.8423 89.74283,-43.9486 95.44401,-95.7598 2.47082,-22.4544 -3.71108,-47.6688 -16.59615,-67.6913 -6.47612,-10.0634 -22.35547,-25.7029 -32.44786,-31.9578 -29.97359,-18.5765 -66.32473,-21.2855 -99.006025,-7.3784 -15.710453,6.6854 -31.933009,19.614 -42.899458,34.1888 -15.047894,19.9992 -23.08854,49.2069 -20.201895,73.3836 2.973656,24.9054 12.088499,44.9035 28.298238,62.0866 19.640353,20.8198 44.941212,32.2146 75.67581,34.0822 1.17333,0.072 6.45333,-0.3579 11.73333,-0.9539 z m 268.99006,20.273 c -46.23643,-5.2718 -87.90954,-38.3549 -103.59509,-82.2411 -5.85891,-16.3925 -7.29135,-24.9575 -7.29135,-43.5975 0,-18.64 1.43244,-27.205 7.29135,-43.5976 12.1003,-33.8551 40.80457,-62.8541 74.07169,-74.8322 4.98667,-1.7955 10.6199,-3.9826 12.51831,-4.8603 7.47877,-3.4576 43.07028,-4.1033 57.26469,-1.0389 50.58126,10.92 88.43805,48.7775 99.34408,99.3459 2.21916,10.2897 2.53455,37.1184 0.55701,47.3831 -8.951,46.461 -41.74873,83.8795 -85.95076,98.0601 -5.28,1.694 -12.3338,3.5822 -15.67511,4.1962 -8.99562,1.653 -29.01853,2.2674 -38.53482,1.1823 z m 25.40993,-20.273 c 51.7622,-5.8423 89.74284,-43.9486 95.44401,-95.7598 2.47083,-22.4544 -3.71108,-47.6688 -16.59615,-67.6913 -6.47612,-10.0634 -22.35546,-25.7029 -32.44786,-31.9578 -29.97359,-18.5765 -66.32472,-21.2855 -99.00602,-7.3784 -15.71046,6.6854 -31.93302,19.614 -42.89946,34.1888 -15.04789,19.9992 -23.08854,49.2069 -20.2019,73.3836 2.97366,24.9054 12.0885,44.9035 28.29824,62.0866 19.64035,20.8198 44.94122,32.2146 75.67581,34.0822 1.17333,0.072 6.45333,-0.3579 11.73333,-0.9539 z m 310.59006,20.273 c -15.56789,-1.7751 -34.41407,-8.1129 -48.19006,-16.2061 -31.44505,-18.4735 -53.04443,-48.5123 -60.86724,-84.6495 -2.51889,-11.636 -2.51889,-38.33 0,-49.9661 10.99204,-50.7773 49.55351,-89.1664 99.79214,-99.346 15.17981,-3.0758 48.86699,-2.3965 57.23709,1.1542 2.25757,0.9577 7.94467,3.1517 12.638,4.8754 39.31872,14.4412 69.73107,50.3677 78.99375,93.3164 2.21916,10.2897 2.53455,37.1184 0.55701,47.3831 -8.95099,46.461 -41.74873,83.8795 -85.95076,98.0601 -5.28,1.694 -12.3338,3.5822 -15.67511,4.1962 -8.99562,1.653 -29.01853,2.2674 -38.53482,1.1823 z m 25.40993,-20.273 c 51.7622,-5.8423 89.74284,-43.9486 95.44401,-95.7598 2.47083,-22.4544 -3.71108,-47.6688 -16.59615,-67.6913 -6.47611,-10.0634 -22.35546,-25.7029 -32.44786,-31.9578 -29.97359,-18.5765 -66.32472,-21.2855 -99.00602,-7.3784 -15.71045,6.6854 -31.93301,19.614 -42.89946,34.1888 -15.04789,19.9992 -23.08854,49.2069 -20.2019,73.3836 2.97366,24.9054 12.08851,44.9035 28.29824,62.0866 19.64036,20.8198 44.94122,32.2146 75.67581,34.0822 1.17333,0.072 6.45333,-0.3579 11.73333,-0.9539 z m 268.99009,20.273 c -46.23646,-5.2718 -87.90957,-38.3549 -103.59512,-82.2411 -5.85891,-16.3925 -7.29134,-24.9575 -7.29134,-43.5975 0,-18.64 1.43243,-27.205 7.29134,-43.5976 12.1003,-33.8551 40.80457,-62.8541 74.07172,-74.8322 4.9866,-1.7955 10.6199,-3.9826 12.5183,-4.8603 7.4788,-3.4576 43.0703,-4.1033 57.2647,-1.0389 50.5812,10.92 88.438,48.7775 99.344,99.3459 2.2192,10.2897 2.5346,37.1184 0.557,47.3831 -8.9509,46.461 -41.7487,83.8795 -85.9507,98.0601 -5.28,1.694 -12.3338,3.5822 -15.6751,4.1962 -8.9956,1.653 -29.0185,2.2674 -38.5348,1.1823 z m 25.4099,-20.273 c 51.7622,-5.8423 89.7428,-43.9486 95.4441,-95.7598 2.4708,-22.4544 -3.7112,-47.6688 -16.5962,-67.6913 -6.4762,-10.0634 -22.3555,-25.7029 -32.4479,-31.9578 -29.9735,-18.5765 -66.3247,-21.2855 -99.006,-7.3784 -15.71047,6.6854 -31.93303,19.614 -42.89947,34.1888 -15.0479,19.9992 -23.08855,49.2069 -20.2019,73.3836 2.97365,24.9054 12.0885,44.9035 28.29824,62.0866 19.64035,20.8198 44.94123,32.2146 75.67583,34.0822 1.1733,0.072 6.4533,-0.3579 11.7333,-0.9539 z m 368.6298,-608.0164 c -85.6452,-10.75 -147.9569,-87.6945 -139.9811,-172.8528 3.6864,-39.35863 18.3449,-70.43225 46.5135,-98.60088 19.1019,-19.10184 37.3053,-30.68259 60.8378,-38.70412 10.0913,-3.43984 29.0586,-7.65812 34.4342,-7.65812 1.7412,0 4.6658,-0.3 6.4991,-0.66666 l 3.3334,-0.66667 5e-4,-42.26667 c 3e-4,-23.24667 0.3196,-95.18667 0.7095,-159.86667 l 0.7089,-117.6 h 6.7573 6.7571 V 627.13466 787.0693 l 5.0667,0.61033 c 38.5956,4.64923 65.2159,15.86554 92.5301,38.98705 26.0194,22.02545 45.8786,56.83812 52.4351,91.91706 2.5648,13.72249 2.5648,43.51007 0,57.23256 -12.0676,64.5657 -62.0898,115.3151 -126.4559,128.2945 -11.9816,2.416 -38.3472,3.4528 -50.1462,1.9718 z m 677.7702,0.4439 c -33.1758,-3.5793 -66.402,-18.0975 -89.9446,-39.3012 -31.8182,-28.6573 -49.7412,-64.0719 -53.6733,-106.05506 -3.8084,-40.6617 9.2533,-83.40888 35.1782,-115.12841 2.666,-3.26189 3.4843,-5.04107 2.7765,-6.03717 -0.552,-0.77678 -96.6821,-96.08263 -213.6227,-211.79078 l -212.6192,-210.37845 6.133,-6.1977 6.1331,-6.1977 33.1528,32.67603 c 18.234,17.97181 114.1766,112.86781 213.2057,210.87998 99.029,98.01219 180.513,178.36531 181.0756,178.5625 0.5624,0.1972 3.2987,-1.53699 6.0805,-3.85373 19.1535,-15.95174 44.2633,-27.83073 70.6577,-33.42705 14.8229,-3.14285 44.5506,-3.43963 59.2,-0.59101 21.574,4.19511 46.0376,14.22785 62.0365,25.44175 35.4089,24.81871 59.4022,61.75914 67.1954,103.45524 2.5648,13.72249 2.5648,43.51007 0,57.23256 -12.218,65.3702 -62.9961,116.1654 -128.6986,128.7421 -8.8438,1.6929 -35.7356,2.8886 -44.2666,1.9681 z m -1853.33331,-5.7026 c -40.98723,-5.4021 -74.29533,-22.9055 -101.88854,-53.5423 -28.36499,-31.4937 -43.08187,-76.47215 -39.06266,-119.38513 3.68631,-39.35863 18.34482,-70.43225 46.51345,-98.60088 24.05971,-24.05971 48.46302,-37.31725 81.63775,-44.35116 14.82296,-3.14286 44.55058,-3.43964 59.2,-0.59102 23.88835,4.64515 49.04524,15.57995 67.11829,29.17391 l 9.5183,7.15935 9.14837,-9.80509 c 5.03161,-5.3928 93.14837,-97.84114 195.81503,-205.44077 l 186.66667,-195.63567 6.02784,5.49744 c 3.3153,3.02358 5.9553,6.04843 5.86666,6.72187 -0.0886,0.67345 -87.76117,93.0257 -194.82783,205.22725 -107.06667,112.20155 -194.81854,204.63329 -195.00416,205.40386 -0.18561,0.77057 2.17797,4.41831 5.25241,8.10608 16.27958,19.52728 28.7876,46.47178 33.65031,72.48877 2.5648,13.72248 2.5648,43.51007 0,57.23255 -12.06337,64.54274 -61.28328,114.59174 -126.03189,128.15494 -12.0569,2.5255 -38.2609,3.6804 -49.6,2.186 z m 630.39999,0 c -40.98723,-5.4021 -74.29534,-22.9055 -101.88854,-53.5423 -28.365,-31.4937 -43.08188,-76.47215 -39.06267,-119.38513 2.60619,-27.82617 11.1035,-51.93366 26.65765,-75.62979 7.9379,-12.09305 30.7297,-34.88573 42.82689,-42.82853 23.48143,-15.41748 48.42915,-24.19069 77.06667,-27.10155 l 6.13333,-0.62342 V 624.45659 467.20001 h 7.46667 7.46666 v 157.285 157.285 l 3.46667,0.47552 c 17.59089,2.41293 28.58225,4.64274 37.84993,7.6786 48.03266,15.73436 86.38526,54.14244 102.16466,102.31245 5.748,17.54707 7.3436,28.33082 7.3436,49.6301 0,21.31079 -1.5953,32.08205 -7.3565,49.66924 -17.9534,54.80698 -63.31883,95.11658 -120.53502,107.10198 -12.05691,2.5255 -38.26091,3.6804 -49.6,2.186 z"
         id="path9862" />
      <path
         style="fill:#ca3b32;stroke-width:1.06667"
         d="m 1425.79,1736.5053 c -15.5679,-1.775 -34.414,-8.1128 -48.19,-16.2061 -31.445,-18.4735 -53.0444,-48.5123 -60.8672,-84.6495 -2.519,-11.636 -2.519,-38.33 0,-49.966 6.5851,-30.42 23.3786,-57.252 47.3669,-75.6811 8.6709,-6.6616 29.8373,-18.6775 34.2636,-19.4511 2.0735,-0.3625 7.1072,-1.5612 11.186,-2.6638 10.2779,-2.7784 29.223,-4.5013 40.0507,-3.6421 57.7159,4.5799 103.5672,44.7467 115.7937,101.4381 2.2192,10.2897 2.5346,37.1184 0.557,47.383 -8.951,46.461 -41.7487,83.8796 -85.9507,98.0602 -5.28,1.6939 -12.3338,3.5821 -15.6751,4.1961 -8.9957,1.653 -29.0186,2.2674 -38.5349,1.1823 z m 25.41,-20.2729 c 51.7622,-5.8424 89.7428,-43.9486 95.444,-95.7598 2.4708,-22.4544 -3.7111,-47.6688 -16.5961,-67.6913 -6.4762,-10.0635 -22.3556,-25.703 -32.4479,-31.9579 -29.9736,-18.5764 -66.3247,-21.2855 -99.006,-7.3784 -15.7105,6.6855 -31.933,19.614 -42.8995,34.1888 -15.0479,19.9992 -23.0886,49.207 -20.2019,73.3836 2.9736,24.9054 12.0885,44.9035 28.2982,62.0866 19.6404,20.8199 44.9412,32.2146 75.6758,34.0823 1.1734,0.071 6.4534,-0.358 11.7334,-0.9539 z M 112.7234,1734.372 c -15.567897,-1.7751 -34.414071,-8.1129 -48.190068,-16.2061 -31.44504,-18.4735 -53.044422,-48.5123 -60.8672287,-84.6495 -2.518897,-11.636 -2.518897,-38.33 0,-49.9661 10.9920267,-50.7773 49.5534997,-89.1664 99.7921267,-99.346 15.17981,-3.0758 48.86699,-2.3965 57.23709,1.1542 2.25757,0.9577 7.94468,3.1517 12.63801,4.8754 39.31872,14.4412 69.73107,50.3677 78.99375,93.3164 2.21915,10.2897 2.53455,37.1184 0.55701,47.3831 -8.951,46.461 -41.74874,83.8795 -85.95076,98.0601 -5.28,1.694 -12.3338,3.5822 -15.67512,4.1962 -8.99561,1.653 -29.01852,2.2674 -38.53481,1.1823 z m 25.40993,-20.273 c 51.7622,-5.8423 89.74283,-43.9486 95.44401,-95.7598 2.47082,-22.4544 -3.71108,-47.6688 -16.59615,-67.6913 -6.47612,-10.0634 -22.35547,-25.7029 -32.44786,-31.9578 -29.97359,-18.5765 -66.32473,-21.2855 -99.006025,-7.3784 -15.710453,6.6854 -31.933009,19.614 -42.899458,34.1888 -15.047894,19.9992 -23.08854,49.2069 -20.201895,73.3836 2.973656,24.9054 12.088499,44.9035 28.298238,62.0866 19.640353,20.8198 44.941212,32.2146 75.67581,34.0822 1.17333,0.072 6.45333,-0.3579 11.73333,-0.9539 z m 268.99006,20.273 c -46.23643,-5.2718 -87.90954,-38.3549 -103.59509,-82.2411 -5.85891,-16.3925 -7.29135,-24.9575 -7.29135,-43.5975 0,-18.64 1.43244,-27.205 7.29135,-43.5976 12.1003,-33.8551 40.80457,-62.8541 74.07169,-74.8322 4.98667,-1.7955 10.6199,-3.9826 12.51831,-4.8603 7.47877,-3.4576 43.07028,-4.1033 57.26469,-1.0389 50.58126,10.92 88.43805,48.7775 99.34408,99.3459 2.21916,10.2897 2.53455,37.1184 0.55701,47.3831 -8.951,46.461 -41.74873,83.8795 -85.95076,98.0601 -5.28,1.694 -12.3338,3.5822 -15.67511,4.1962 -8.99562,1.653 -29.01853,2.2674 -38.53482,1.1823 z m 25.40993,-20.273 c 51.7622,-5.8423 89.74284,-43.9486 95.44401,-95.7598 2.47083,-22.4544 -3.71108,-47.6688 -16.59615,-67.6913 -6.47612,-10.0634 -22.35546,-25.7029 -32.44786,-31.9578 -29.97359,-18.5765 -66.32472,-21.2855 -99.00602,-7.3784 -15.71046,6.6854 -31.93302,19.614 -42.89946,34.1888 -15.04789,19.9992 -23.08854,49.2069 -20.2019,73.3836 2.97366,24.9054 12.0885,44.9035 28.29824,62.0866 19.64035,20.8198 44.94122,32.2146 75.67581,34.0822 1.17333,0.072 6.45333,-0.3579 11.73333,-0.9539 z m 310.59006,20.273 c -15.56789,-1.7751 -34.41407,-8.1129 -48.19006,-16.2061 -31.44505,-18.4735 -53.04443,-48.5123 -60.86724,-84.6495 -2.51889,-11.636 -2.51889,-38.33 0,-49.9661 10.99204,-50.7773 49.55351,-89.1664 99.79214,-99.346 15.17981,-3.0758 48.86699,-2.3965 57.23709,1.1542 2.25757,0.9577 7.94467,3.1517 12.638,4.8754 39.31872,14.4412 69.73107,50.3677 78.99375,93.3164 2.21916,10.2897 2.53455,37.1184 0.55701,47.3831 -8.95099,46.461 -41.74873,83.8795 -85.95076,98.0601 -5.28,1.694 -12.3338,3.5822 -15.67511,4.1962 -8.99562,1.653 -29.01853,2.2674 -38.53482,1.1823 z m 25.40993,-20.273 c 51.7622,-5.8423 89.74284,-43.9486 95.44401,-95.7598 2.47083,-22.4544 -3.71108,-47.6688 -16.59615,-67.6913 -6.47611,-10.0634 -22.35546,-25.7029 -32.44786,-31.9578 -29.97359,-18.5765 -66.32472,-21.2855 -99.00602,-7.3784 -15.71045,6.6854 -31.93301,19.614 -42.89946,34.1888 -15.04789,19.9992 -23.08854,49.2069 -20.2019,73.3836 2.97366,24.9054 12.08851,44.9035 28.29824,62.0866 19.64036,20.8198 44.94122,32.2146 75.67581,34.0822 1.17333,0.072 6.45333,-0.3579 11.73333,-0.9539 z m 268.99009,20.273 c -46.23646,-5.2718 -87.90957,-38.3549 -103.59512,-82.2411 -5.85891,-16.3925 -7.29134,-24.9575 -7.29134,-43.5975 0,-18.64 1.43243,-27.205 7.29134,-43.5976 12.1003,-33.8551 40.80457,-62.8541 74.07172,-74.8322 4.9866,-1.7955 10.6199,-3.9826 12.5183,-4.8603 7.4788,-3.4576 43.0703,-4.1033 57.2647,-1.0389 50.5812,10.92 88.438,48.7775 99.344,99.3459 2.2192,10.2897 2.5346,37.1184 0.557,47.3831 -8.9509,46.461 -41.7487,83.8795 -85.9507,98.0601 -5.28,1.694 -12.3338,3.5822 -15.6751,4.1962 -8.9956,1.653 -29.0185,2.2674 -38.5348,1.1823 z m 25.4099,-20.273 c 51.7622,-5.8423 89.7428,-43.9486 95.4441,-95.7598 2.4708,-22.4544 -3.7112,-47.6688 -16.5962,-67.6913 -6.4762,-10.0634 -22.3555,-25.7029 -32.4479,-31.9578 -29.9735,-18.5765 -66.3247,-21.2855 -99.006,-7.3784 -15.71047,6.6854 -31.93303,19.614 -42.89947,34.1888 -15.0479,19.9992 -23.08855,49.2069 -20.2019,73.3836 2.97365,24.9054 12.0885,44.9035 28.29824,62.0866 19.64035,20.8198 44.94123,32.2146 75.67583,34.0822 1.1733,0.072 6.4533,-0.3579 11.7333,-0.9539 z M 1436.8,1105.4904 c -21.4394,-2.6071 -38.1864,-7.2967 -54.9334,-15.3825 -46.0883,-22.2527 -77.8836,-64.2315 -87.6386,-115.70788 -2.5397,-13.40234 -2.4805,-41.25394 0.1169,-54.93334 4.2113,-22.17923 12.1948,-41.78371 24.5322,-60.24166 26.6663,-39.89546 65.7894,-63.57738 115.7895,-70.08942 27.7038,-3.60815 60.1022,2.53169 87.9066,16.65922 44.1661,22.44104 75.5716,64.7436 84.5572,113.89677 2.4651,13.48474 2.4651,41.53212 0,55.01686 -10.4748,57.29935 -51.2131,104.58305 -105.7971,122.79545 -7.04,2.3489 -17.12,5.0323 -22.4,5.9632 -9.5105,1.6766 -34.9418,2.8978 -42.1333,2.0233 z m 36.9222,-27.6749 c 25.6747,-4.4772 48.9255,-16.2973 68.0443,-34.5918 27.4569,-26.2731 41.1668,-58.25218 41.1668,-96.02368 0,-35.54926 -12.0356,-65.80177 -36.243,-91.0999 -11.0113,-11.50739 -22.0555,-19.90787 -34.8834,-26.53325 -19.5564,-10.10049 -38.4958,-14.63352 -61.1403,-14.63352 -36.7428,0 -67.2986,12.70013 -93.4326,38.83404 -25.9622,25.9623 -38.834,56.93102 -38.834,93.43263 0,36.50161 12.8718,67.47028 38.834,93.43258 19.8875,19.8875 43.2908,32.3808 69.5362,37.1204 11.5249,2.0812 35.1953,2.1127 46.952,0.063 z m 637.2111,27.6749 c -58.0051,-7.0537 -103.1305,-37.8969 -128.1519,-87.592 -11.033,-21.91256 -16.2421,-44.59954 -16.2333,-70.69838 0.013,-37.67895 10.8008,-68.63074 34.9112,-100.16428 20.7595,-27.15099 56.5672,-48.4044 93.9821,-55.78241 15.224,-3.00209 41.9862,-3.24729 56.8669,-0.52103 65.6785,12.03275 116.9541,63.31002 128.9554,128.95929 2.4835,13.58536 2.4654,41.51996 -0.036,55.24176 -10.5012,57.61035 -51.3628,104.46485 -107.3614,123.10735 -6.16,2.0507 -15.52,4.4914 -20.8,5.4236 -9.5068,1.6787 -34.9351,2.9015 -42.1334,2.0261 z m 36.9222,-27.6749 c 25.6747,-4.4772 48.9256,-16.2973 68.0443,-34.5918 27.4569,-26.2731 41.1668,-58.25218 41.1668,-96.02368 0,-35.54926 -12.0356,-65.80177 -36.243,-91.0999 -11.0113,-11.50739 -22.0554,-19.90787 -34.8834,-26.53325 -19.5564,-10.10049 -38.4958,-14.63352 -61.1403,-14.63352 -36.7428,0 -67.2986,12.70013 -93.4326,38.83404 -25.9622,25.9623 -38.834,56.93102 -38.834,93.43263 0,36.50161 12.8718,67.47028 38.834,93.43258 19.8875,19.8875 43.2908,32.3808 69.5362,37.1204 11.5249,2.0812 35.1953,2.1127 46.952,0.063 z m -1888.12217,22.3126 c -64.57186,-7.0452 -117.29651,-49.3463 -136.39489,-109.42971 -5.93052,-18.6574 -7.46378,-28.69798 -7.45692,-48.83171 0.006,-19.99815 1.71839,-31.29659 7.37894,-48.70963 4.98525,-15.33575 10.03884,-25.73387 19.08335,-39.26536 24.09527,-36.04891 59.42058,-59.49028 102.43098,-67.9717 15.19012,-2.99541 41.99002,-3.24695 56.797,-0.53309 23.02651,4.22036 48.60737,15.21061 66.26148,28.46778 5.47749,4.11327 10.34077,7.47867 10.80727,7.47867 1.56174,0 13.48357,13.48383 22.27907,25.1981 14.75532,19.65184 25.25926,43.65823 29.67747,67.82681 2.46511,13.48473 2.46511,41.53212 0,55.01685 -10.47478,57.29939 -51.21306,104.58309 -105.79709,122.79549 -7.04,2.3489 -17.12,5.0323 -22.4,5.9632 -9.62378,1.6965 -34.66733,2.8672 -42.66666,1.9943 z m 37.4556,-27.6459 c 25.67468,-4.4773 48.9255,-16.2974 68.04429,-34.5919 27.45687,-26.2731 41.16677,-58.25212 41.16677,-96.02362 0,-35.54925 -12.03561,-65.80177 -36.24302,-91.09989 -11.01126,-11.50739 -22.0554,-19.90787 -34.88336,-26.53325 -19.55641,-10.10049 -38.49586,-14.63352 -61.14028,-14.63352 -36.74288,0 -67.29872,12.70012 -93.43263,38.83403 -25.96229,25.96231 -38.83404,56.93102 -38.83404,93.43263 0,36.50162 12.87175,67.47032 38.83404,93.43262 19.8874,19.8874 43.29075,32.3807 69.53618,37.1203 11.52489,2.0812 35.19534,2.1128 46.95205,0.063 z m 592.94438,27.6459 c -64.57186,-7.0452 -117.29651,-49.3463 -136.39489,-109.42971 -5.93051,-18.6574 -7.46377,-28.69798 -7.45691,-48.83171 0.006,-19.99815 1.71839,-31.29659 7.37893,-48.70963 4.98526,-15.33575 10.03885,-25.73387 19.08336,-39.26536 26.66631,-39.89546 65.78944,-63.57738 115.78951,-70.08942 27.70375,-3.60815 60.10221,2.53169 87.90653,16.65922 44.16616,22.44103 75.57166,64.74359 84.55726,113.89677 2.4651,13.48473 2.4651,41.53212 0,55.01685 -10.4748,57.29939 -51.2131,104.58309 -105.79712,122.79549 -7.04,2.3489 -17.12,5.0323 -22.4,5.9632 -9.62379,1.6965 -34.66733,2.8672 -42.66667,1.9943 z m 37.4556,-27.6459 c 25.67468,-4.4773 48.92551,-16.2974 68.04429,-34.5919 27.4569,-26.2731 41.1668,-58.25212 41.1668,-96.02362 0,-35.54925 -12.0356,-65.80177 -36.243,-91.09989 -11.01131,-11.50739 -22.05545,-19.90787 -34.8834,-26.53325 -19.55642,-10.10049 -38.49586,-14.63352 -61.14029,-14.63352 -36.74288,0 -67.29872,12.70012 -93.43263,38.83403 -25.96229,25.96231 -38.83403,56.93102 -38.83403,93.43263 0,36.50162 12.87174,67.47032 38.83403,93.43262 19.8874,19.8874 43.29075,32.3807 69.53618,37.1203 11.5249,2.0812 35.19534,2.1128 46.95205,0.063 z"
         id="path9860" />
      <path
         style="fill:#379725;stroke-width:1.06667"
         d="m 1436.8,1105.4904 c -21.4394,-2.6071 -38.1864,-7.2967 -54.9334,-15.3825 -46.0883,-22.2527 -77.8836,-64.2315 -87.6386,-115.70788 -2.5397,-13.40234 -2.4805,-41.25394 0.1169,-54.93334 4.2113,-22.17923 12.1948,-41.78371 24.5322,-60.24166 26.6663,-39.89546 65.7894,-63.57738 115.7895,-70.08942 27.7038,-3.60815 60.1022,2.53169 87.9066,16.65922 44.1661,22.44104 75.5716,64.7436 84.5572,113.89677 2.4651,13.48474 2.4651,41.53212 0,55.01686 -10.4748,57.29935 -51.2131,104.58305 -105.7971,122.79545 -7.04,2.3489 -17.12,5.0323 -22.4,5.9632 -9.5105,1.6766 -34.9418,2.8978 -42.1333,2.0233 z m 36.9222,-27.6749 c 25.6747,-4.4772 48.9255,-16.2973 68.0443,-34.5918 27.4569,-26.2731 41.1668,-58.25218 41.1668,-96.02368 0,-35.54926 -12.0356,-65.80177 -36.243,-91.0999 -11.0113,-11.50739 -22.0555,-19.90787 -34.8834,-26.53325 -19.5564,-10.10049 -38.4958,-14.63352 -61.1403,-14.63352 -36.7428,0 -67.2986,12.70013 -93.4326,38.83404 -25.9622,25.9623 -38.834,56.93102 -38.834,93.43263 0,36.50161 12.8718,67.47028 38.834,93.43258 19.8875,19.8875 43.2908,32.3808 69.5362,37.1204 11.5249,2.0812 35.1953,2.1127 46.952,0.063 z m 637.2111,27.6749 c -58.0051,-7.0537 -103.1305,-37.8969 -128.1519,-87.592 -11.033,-21.91256 -16.2421,-44.59954 -16.2333,-70.69838 0.013,-37.67895 10.8008,-68.63074 34.9112,-100.16428 20.7595,-27.15099 56.5672,-48.4044 93.9821,-55.78241 15.224,-3.00209 41.9862,-3.24729 56.8669,-0.52103 65.6785,12.03275 116.9541,63.31002 128.9554,128.95929 2.4835,13.58536 2.4654,41.51996 -0.036,55.24176 -10.5012,57.61035 -51.3628,104.46485 -107.3614,123.10735 -6.16,2.0507 -15.52,4.4914 -20.8,5.4236 -9.5068,1.6787 -34.9351,2.9015 -42.1334,2.0261 z m 36.9222,-27.6749 c 25.6747,-4.4772 48.9256,-16.2973 68.0443,-34.5918 27.4569,-26.2731 41.1668,-58.25218 41.1668,-96.02368 0,-35.54926 -12.0356,-65.80177 -36.243,-91.0999 -11.0113,-11.50739 -22.0554,-19.90787 -34.8834,-26.53325 -19.5564,-10.10049 -38.4958,-14.63352 -61.1403,-14.63352 -36.7428,0 -67.2986,12.70013 -93.4326,38.83404 -25.9622,25.9623 -38.834,56.93102 -38.834,93.43263 0,36.50161 12.8718,67.47028 38.834,93.43258 19.8875,19.8875 43.2908,32.3808 69.5362,37.1204 11.5249,2.0812 35.1953,2.1127 46.952,0.063 z m -1888.12217,22.3126 c -64.57186,-7.0452 -117.29651,-49.3463 -136.39489,-109.42971 -5.93052,-18.6574 -7.46378,-28.69798 -7.45692,-48.83171 0.006,-19.99815 1.71839,-31.29659 7.37894,-48.70963 4.98525,-15.33575 10.03884,-25.73387 19.08335,-39.26536 24.09527,-36.04891 59.42058,-59.49028 102.43098,-67.9717 15.19012,-2.99541 41.99002,-3.24695 56.797,-0.53309 23.02651,4.22036 48.60737,15.21061 66.26148,28.46778 5.47749,4.11327 10.34077,7.47867 10.80727,7.47867 1.56174,0 13.48357,13.48383 22.27907,25.1981 14.75532,19.65184 25.25926,43.65823 29.67747,67.82681 2.46511,13.48473 2.46511,41.53212 0,55.01685 -10.47478,57.29939 -51.21306,104.58309 -105.79709,122.79549 -7.04,2.3489 -17.12,5.0323 -22.4,5.9632 -9.62378,1.6965 -34.66733,2.8672 -42.66666,1.9943 z m 37.4556,-27.6459 c 25.67468,-4.4773 48.9255,-16.2974 68.04429,-34.5919 27.45687,-26.2731 41.16677,-58.25212 41.16677,-96.02362 0,-35.54925 -12.03561,-65.80177 -36.24302,-91.09989 -11.01126,-11.50739 -22.0554,-19.90787 -34.88336,-26.53325 -19.55641,-10.10049 -38.49586,-14.63352 -61.14028,-14.63352 -36.74288,0 -67.29872,12.70012 -93.43263,38.83403 -25.96229,25.96231 -38.83404,56.93102 -38.83404,93.43263 0,36.50162 12.87175,67.47032 38.83404,93.43262 19.8874,19.8874 43.29075,32.3807 69.53618,37.1203 11.52489,2.0812 35.19534,2.1128 46.95205,0.063 z m 592.94438,27.6459 c -64.57186,-7.0452 -117.29651,-49.3463 -136.39489,-109.42971 -5.93051,-18.6574 -7.46377,-28.69798 -7.45691,-48.83171 0.006,-19.99815 1.71839,-31.29659 7.37893,-48.70963 4.98526,-15.33575 10.03885,-25.73387 19.08336,-39.26536 26.66631,-39.89546 65.78944,-63.57738 115.78951,-70.08942 27.70375,-3.60815 60.10221,2.53169 87.90653,16.65922 44.16616,22.44103 75.57166,64.74359 84.55726,113.89677 2.4651,13.48473 2.4651,41.53212 0,55.01685 -10.4748,57.29939 -51.2131,104.58309 -105.79712,122.79549 -7.04,2.3489 -17.12,5.0323 -22.4,5.9632 -9.62379,1.6965 -34.66733,2.8672 -42.66667,1.9943 z m 37.4556,-27.6459 c 25.67468,-4.4773 48.92551,-16.2974 68.04429,-34.5919 27.4569,-26.2731 41.1668,-58.25212 41.1668,-96.02362 0,-35.54925 -12.0356,-65.80177 -36.243,-91.09989 -11.01131,-11.50739 -22.05545,-19.90787 -34.8834,-26.53325 -19.55642,-10.10049 -38.49586,-14.63352 -61.14029,-14.63352 -36.74288,0 -67.29872,12.70012 -93.43263,38.83403 -25.96229,25.96231 -38.83403,56.93102 -38.83403,93.43263 0,36.50162 12.87174,67.47032 38.83403,93.43262 19.8874,19.8874 43.29075,32.3807 69.53618,37.1203 11.5249,2.0812 35.19534,2.1128 46.95205,0.063 z"
         id="path9858" />
    </g>
  </g>
</svg>
