<?xml version="1.0" encoding="UTF-8" standalone="no"?>
<svg
   version="1.1"
   id="svg4"
   width="50.220703"
   height="11.296875"
   xmlns="http://www.w3.org/2000/svg"
   xmlns:svg="http://www.w3.org/2000/svg">
  <defs
     id="defs8" />
  <g
     aria-label="AquaSat"
     id="text2"
     transform="translate(-0.15234375,8.8828125)">
    <path
       d="M 8.0507813,0 H 6.8144531 L 5.9589844,-2.4316406 H 2.1855469 L 1.3300781,0 H 0.15234375 L 3.328125,-8.7246094 H 4.875 Z M 5.6015625,-3.4277344 4.0722656,-7.7109375 2.5371094,-3.4277344 Z"
       id="path10" />
    <path
       d="m 14.595703,2.4140625 h -1.101562 v -3.15234375 q -0.509766,0.43945312 -1.013672,0.65625 -0.503906,0.2109375 -1.089844,0.2109375 -1.166016,0 -1.8632812,-0.89648437 -0.6914063,-0.90234378 -0.6914063,-2.48437498 0,-0.84375 0.2402344,-1.4882813 0.2460937,-0.6503906 0.6445312,-1.0898437 0.3867189,-0.4277344 0.9082029,-0.6621094 0.521485,-0.234375 1.101563,-0.234375 0.527344,0 0.93164,0.1171875 0.410157,0.1171875 0.832032,0.3457031 l 0.07031,-0.28125 h 1.03125 z m -1.101562,-4.078125 v -3.703125 q -0.457032,-0.2050781 -0.808594,-0.2871094 -0.351563,-0.082031 -0.761719,-0.082031 -0.955078,0 -1.453125,0.6503906 -0.4980467,0.6445313 -0.4980467,1.78125 0,1.1484375 0.3984377,1.7695313 0.404297,0.61523432 1.265625,0.61523432 0.480469,0 0.960937,-0.20507812 0.480469,-0.2109375 0.896485,-0.5390627 z"
       id="path12" />
    <path
       d="m 22.189453,0 h -1.101562 v -0.7265625 q -0.556641,0.43945312 -1.066407,0.67382813 -0.509765,0.23437499 -1.125,0.23437499 -1.03125,0 -1.605468,-0.62695312 -0.574219,-0.6328125 -0.574219,-1.8515625 v -4.2480469 h 1.101562 v 3.7265625 q 0,0.4980469 0.04687,0.8554688 0.04687,0.3515625 0.199219,0.6035156 0.158203,0.2578125 0.410156,0.375 0.251953,0.1171875 0.732422,0.1171875 0.427735,0 0.931641,-0.2226562 0.509765,-0.2226563 0.949219,-0.5683594 v -4.8867188 h 1.101562 z"
       id="path14" />
    <path
       d="m 29.443359,0 h -1.095703 v -0.69726562 q -0.146484,0.0996094 -0.398437,0.28124999 -0.246094,0.17578125 -0.480469,0.28125001 Q 27.193359,0 26.835937,0.08789062 q -0.357421,0.09375 -0.83789,0.09375 -0.884766,0 -1.5,-0.5859375 -0.615235,-0.5859375 -0.615235,-1.49414062 0,-0.7441406 0.316407,-1.2011719 0.322265,-0.4628906 0.914062,-0.7265625 0.597656,-0.2636718 1.435547,-0.3574218 0.837891,-0.09375 1.798828,-0.140625 v -0.1699219 q 0,-0.375 -0.134765,-0.6210938 -0.128907,-0.2460937 -0.375,-0.3867187 -0.234375,-0.1347656 -0.5625,-0.1816406 -0.328125,-0.046875 -0.685547,-0.046875 -0.433594,0 -0.966797,0.1171875 -0.533203,0.1113281 -1.101563,0.328125 h -0.05859 v -1.1191407 q 0.322265,-0.087891 0.93164,-0.1933593 0.609375,-0.1054688 1.201172,-0.1054688 0.691406,0 1.201172,0.1171875 0.515625,0.1113281 0.890625,0.3867188 0.369141,0.2695312 0.5625,0.6972656 0.193359,0.4277344 0.193359,1.0605469 z m -1.095703,-1.6113281 v -1.8222657 q -0.503906,0.029297 -1.189453,0.087891 -0.679687,0.058594 -1.078125,0.1699218 -0.474609,0.1347657 -0.767578,0.421875 -0.292969,0.28125 -0.292969,0.7792969 0,0.5625 0.339844,0.8496094 0.339844,0.28125 1.037109,0.28125 0.580078,0 1.060547,-0.2226562 0.480469,-0.2285157 0.890625,-0.5449222 z"
       id="path16" />
    <path
       d="m 37.992187,-2.4902344 q 0,0.5097657 -0.240234,1.0078125 -0.234375,0.4980469 -0.662109,0.84375003 -0.46875,0.37499999 -1.095703,0.5859375 -0.621094,0.21093749 -1.5,0.21093749 -0.94336,0 -1.699219,-0.17578125 -0.75,-0.17578124 -1.529297,-0.52148437 v -1.453125 h 0.08203 q 0.66211,0.5507813 1.529297,0.8496094 0.867188,0.2988281 1.628906,0.2988281 1.078125,0 1.675782,-0.4042969 0.603515,-0.4042968 0.603515,-1.078125 0,-0.5800781 -0.287109,-0.8554687 Q 36.216796,-3.4570313 35.636718,-3.609375 35.197265,-3.7265625 34.68164,-3.8027344 34.171874,-3.8789064 33.597655,-3.9960938 32.4375,-4.2421875 31.875,-4.8339844 q -0.556641,-0.5976562 -0.556641,-1.5527343 0,-1.0957032 0.925782,-1.7929688 0.925781,-0.703125 2.349609,-0.703125 0.919922,0 1.6875,0.1757812 0.767578,0.1757813 1.359375,0.4335938 v 1.3710938 h -0.08203 q -0.498047,-0.421875 -1.3125,-0.6972657 -0.808594,-0.28125 -1.658203,-0.28125 -0.931641,0 -1.5,0.3867188 -0.5625,0.3867187 -0.5625,0.9960937 0,0.5449219 0.28125,0.8554688 0.28125,0.3105469 0.990234,0.4746094 0.375,0.082031 1.066406,0.1992187 0.691406,0.1171875 1.171875,0.2402344 0.972656,0.2578125 1.464844,0.7792968 0.492187,0.5214844 0.492186,1.4589844 z"
       id="path18" />
    <path
       d="m 44.853516,0 h -1.095704 v -0.69726562 q -0.146484,0.0996094 -0.398437,0.28124999 -0.246094,0.17578125 -0.480469,0.28125001 Q 42.603516,0 42.246094,0.08789062 q -0.357422,0.09375 -0.837891,0.09375 -0.884766,0 -1.5,-0.5859375 -0.615234,-0.5859375 -0.615234,-1.49414062 0,-0.7441406 0.316406,-1.2011719 0.322266,-0.4628906 0.914062,-0.7265625 0.597657,-0.2636718 1.435547,-0.3574218 0.837891,-0.09375 1.798828,-0.140625 v -0.1699219 q 0,-0.375 -0.134765,-0.6210938 -0.128906,-0.2460937 -0.375,-0.3867187 -0.234375,-0.1347656 -0.5625,-0.1816406 Q 42.357422,-5.7304687 42,-5.7304687 q -0.433594,0 -0.966797,0.1171875 -0.533203,0.1113281 -1.101562,0.328125 h -0.05859 v -1.1191407 q 0.322265,-0.087891 0.93164,-0.1933593 0.609375,-0.1054688 1.201172,-0.1054688 0.691407,0 1.201172,0.1171875 0.515625,0.1113281 0.890625,0.3867188 0.369141,0.2695312 0.5625,0.6972656 0.19336,0.4277344 0.19336,1.0605469 z m -1.095704,-1.6113281 v -1.8222657 q -0.503906,0.029297 -1.189453,0.087891 -0.679687,0.058594 -1.078125,0.1699218 -0.474609,0.1347657 -0.767578,0.421875 -0.292969,0.28125 -0.292969,0.7792969 0,0.5625 0.339844,0.8496094 0.339844,0.28125 1.03711,0.28125 0.580078,0 1.060546,-0.2226562 0.480469,-0.2285157 0.890625,-0.5449222 z"
       id="path20" />
    <path
       d="M 50.373047,-0.05859375 Q 50.0625,0.0234375 49.693359,0.07617187 q -0.363281,0.05273438 -0.65039,0.05273438 -1.001953,0 -1.523438,-0.5390625 -0.521484,-0.5390625 -0.521484,-1.72851565 v -3.4804687 h -0.744141 v -0.9257813 h 0.744141 v -1.8808594 h 1.101562 v 1.8808594 h 2.273438 v 0.9257813 h -2.273438 v 2.9824218 q 0,0.515625 0.02344,0.8085938 0.02344,0.2871094 0.164062,0.5390625 0.128907,0.234375 0.351563,0.34570312 0.228515,0.10546875 0.691406,0.10546875 0.269531,0 0.5625,-0.0761719 0.292969,-0.0820313 0.421875,-0.13476557 h 0.05859 z"
       id="path22" />
  </g>
</svg>
