<?xml version="1.0" encoding="UTF-8" standalone="no"?>
<svg
   version="1.1"
   id="svg4"
   width="32.238281"
   height="9.2050781"
   xmlns="http://www.w3.org/2000/svg"
   xmlns:svg="http://www.w3.org/2000/svg">
  <defs
     id="defs8" />
  <g
     aria-label="argos"
     id="text2"
     transform="translate(-0.609375,6.7265625)">
    <path
       d="M 6.1699219,0 H 5.0742187 V -0.69726562 Q 4.9277344,-0.59765625 4.6757812,-0.41601563 4.4296875,-0.24023438 4.1953125,-0.13476562 3.9199219,0 3.5625,0.08789062 q -0.3574219,0.09375 -0.8378906,0.09375 -0.8847657,0 -1.5,-0.5859375 -0.6152344,-0.5859375 -0.6152344,-1.49414062 0,-0.7441406 0.31640625,-1.2011719 Q 1.2480469,-3.5625 1.8398437,-3.8261719 2.4375,-4.0898437 3.2753906,-4.1835937 q 0.8378906,-0.09375 1.7988281,-0.140625 v -0.1699219 q 0,-0.375 -0.1347656,-0.6210938 -0.1289062,-0.2460937 -0.375,-0.3867187 -0.234375,-0.1347656 -0.5625,-0.1816406 -0.328125,-0.046875 -0.6855468,-0.046875 -0.4335938,0 -0.9667969,0.1171875 -0.5332032,0.1113281 -1.1015625,0.328125 h -0.058594 v -1.1191407 q 0.3222656,-0.087891 0.9316407,-0.1933593 0.609375,-0.1054688 1.2011718,-0.1054688 0.6914063,0 1.2011719,0.1171875 0.515625,0.1113281 0.890625,0.3867188 0.3691406,0.2695312 0.5625,0.6972656 0.1933594,0.4277344 0.1933594,1.0605469 z M 5.0742187,-1.6113281 v -1.8222657 q -0.5039062,0.029297 -1.1894531,0.087891 -0.6796875,0.058594 -1.078125,0.1699218 -0.4746093,0.1347657 -0.7675781,0.421875 -0.2929688,0.28125 -0.2929688,0.7792969 0,0.5625 0.3398438,0.8496094 0.3398438,0.28125 1.0371094,0.28125 0.5800781,0 1.0605468,-0.2226562 0.4804688,-0.2285157 0.890625,-0.5449222 z"
       id="path10" />
    <path
       d="m 12.375,-5.34375 h -0.05859 q -0.246093,-0.058594 -0.480468,-0.082031 -0.228516,-0.029297 -0.544922,-0.029297 -0.509766,0 -0.984375,0.2285156 -0.4746097,0.2226563 -0.9140629,0.5800781 V 0 H 8.2910156 v -6.5449219 h 1.1015625 v 0.9667969 q 0.6562499,-0.5273437 1.1542969,-0.7441406 0.503906,-0.2226563 1.025391,-0.2226563 0.287109,0 0.416015,0.017578 0.128907,0.011719 0.386719,0.052734 z"
       id="path12" />
    <path
       d="m 18.720703,-0.74414062 q 0,1.6640625 -0.755859,2.44335932 -0.75586,0.7792969 -2.326172,0.7792969 -0.521484,0 -1.019531,-0.076172 -0.492188,-0.070312 -0.972657,-0.2050782 v -1.125 h 0.05859 q 0.269531,0.1054688 0.855469,0.2578125 0.585937,0.1582031 1.171875,0.1582031 0.5625,0 0.93164,-0.1347656 Q 17.033203,1.21875 17.238281,0.97851563 17.443359,0.75 17.53125,0.42773438 17.61914,0.10546875 17.61914,-0.29296875 V -0.890625 q -0.498047,0.3984375 -0.955079,0.59765625 -0.451171,0.19335938 -1.154296,0.19335938 -1.171875,0 -1.863282,-0.84375001 -0.685546,-0.84960932 -0.685546,-2.39062502 0,-0.84375 0.234375,-1.453125 0.240234,-0.6152343 0.65039,-1.0605468 0.38086,-0.4160157 0.925781,-0.6445313 0.544922,-0.234375 1.083985,-0.234375 0.568359,0 0.949218,0.1171875 0.386719,0.1113281 0.814454,0.3457031 l 0.07031,-0.28125 H 18.7207 Z M 17.619141,-1.7988281 v -3.5683594 q -0.439454,-0.1992187 -0.820313,-0.28125 -0.375,-0.087891 -0.75,-0.087891 -0.908203,0 -1.429687,0.609375 -0.521485,0.609375 -0.521485,1.7695312 0,1.1015625 0.386719,1.6699219 0.386719,0.5683594 1.283203,0.5683594 0.480469,0 0.960938,-0.1816406 0.486328,-0.1875 0.890625,-0.4980465 z"
       id="path14" />
    <path
       d="m 26.466797,-3.2695313 q 0,1.5996094 -0.820313,2.52539068 -0.820312,0.92578124 -2.197265,0.92578124 -1.388672,0 -2.208985,-0.92578124 -0.814453,-0.92578128 -0.814453,-2.52539068 0,-1.5996093 0.814453,-2.5253906 0.820313,-0.9316406 2.208985,-0.9316406 1.376953,0 2.197265,0.9316406 0.820313,0.9257813 0.820313,2.5253906 z m -1.136719,0 q 0,-1.2714843 -0.498047,-1.8867187 -0.498047,-0.6210937 -1.382812,-0.6210937 -0.896485,0 -1.394532,0.6210937 -0.492187,0.6152344 -0.492187,1.8867187 0,1.2304688 0.498047,1.8691407 0.498047,0.63281248 1.388672,0.63281248 0.878906,0 1.376953,-0.62695308 0.503906,-0.6328126 0.503906,-1.8750001 z"
       id="path16" />
    <path
       d="m 32.847656,-1.8867187 q 0,0.89648432 -0.74414,1.47070307 -0.738282,0.57421875 -2.021485,0.57421875 -0.726562,0 -1.335937,-0.16992187 Q 28.142578,-0.1875 27.732422,-0.39257813 V -1.6289062 h 0.05859 q 0.521484,0.3925781 1.160156,0.6269531 0.638672,0.2285156 1.224609,0.2285156 0.726563,0 1.136719,-0.234375 0.410156,-0.234375 0.410156,-0.7382812 0,-0.3867188 -0.222656,-0.5859376 -0.222656,-0.1992187 -0.855469,-0.3398437 -0.234375,-0.052734 -0.615234,-0.1230469 -0.375,-0.070312 -0.685547,-0.1523437 -0.861328,-0.2285157 -1.224609,-0.6679688 -0.357422,-0.4453125 -0.357422,-1.0898437 0,-0.4042969 0.164062,-0.7617188 0.169922,-0.3574218 0.509766,-0.6386718 0.328125,-0.2753907 0.832031,-0.4335938 0.509766,-0.1640625 1.136719,-0.1640625 0.585937,0 1.183594,0.1464844 0.603515,0.140625 1.001953,0.3457031 v 1.1777344 h -0.05859 q -0.421875,-0.3105469 -1.025391,-0.5214844 -0.603515,-0.2167969 -1.183593,-0.2167969 -0.603516,0 -1.019532,0.234375 -0.416015,0.2285157 -0.416015,0.6855469 0,0.4042969 0.251953,0.609375 0.246094,0.2050781 0.796875,0.3339844 0.304687,0.070312 0.679687,0.140625 0.38086,0.070312 0.632813,0.1289062 0.767578,0.1757813 1.183594,0.6035156 0.416015,0.4335938 0.416015,1.1484376 z"
       id="path18" />
  </g>
</svg>
