<?xml version="1.0" encoding="UTF-8" standalone="no"?>
<!-- Created with Inkscape (http://www.inkscape.org/) -->

<svg
   version="1.1"
   id="svg2"
   width="400"
   height="400"
   viewBox="0 0 400 400"
   sodipodi:docname="Artelys_Carre.eps"
   xmlns:inkscape="http://www.inkscape.org/namespaces/inkscape"
   xmlns:sodipodi="http://sodipodi.sourceforge.net/DTD/sodipodi-0.dtd"
   xmlns="http://www.w3.org/2000/svg"
   xmlns:svg="http://www.w3.org/2000/svg">
  <defs
     id="defs6" />
  <sodipodi:namedview
     id="namedview4"
     pagecolor="#ffffff"
     bordercolor="#000000"
     borderopacity="0.25"
     inkscape:showpageshadow="2"
     inkscape:pageopacity="0.0"
     inkscape:pagecheckerboard="0"
     inkscape:deskcolor="#d1d1d1" />
  <g
     id="g8"
     inkscape:groupmode="layer"
     inkscape:label="ink_ext_XXXXXX"
     transform="matrix(1.3333333,0,0,-1.3333333,0,400)">
    <g
       id="g10"
       transform="scale(0.1)">
      <path
         d="M 582.984,2155 304.438,1805.77 H 438.93 l 167.32,210.04 V 1742.89 H 298.461 V 1642.75 H 706.359 V 2155 H 582.984"
         style="fill:#273877;fill-opacity:1;fill-rule:nonzero;stroke:none"
         id="path12" />
      <path
         d="m 1070.81,2115.21 h -1.38 l -68.55,-276.24 h 137.08 z m -37.39,41.55 h 76.15 l 146.08,-519.24 h -63.69 l -40.85,149.55 H 987.031 l -38.058,-149.55 h -63.715 l 148.162,519.24"
         style="fill:#273877;fill-opacity:1;fill-rule:nonzero;stroke:none"
         id="path14" />
      <path
         d="m 1356.61,1959.45 h 1.4 c 22.85,50.54 55.37,71.98 112.83,67.14 v -53.98 c -70.6,12.45 -112.15,-31.85 -112.15,-101.77 V 1637.52 H 1304 v 384.93 h 52.61 v -63"
         style="fill:#273877;fill-opacity:1;fill-rule:nonzero;stroke:none"
         id="path16" />
      <path
         d="m 1591.99,2022.45 h 57.04 v -46.39 h -56.36 v -262.38 c 0,-13.17 -4.84,-29.78 25.61,-29.78 h 36.68 v -46.38 h -60.24 c -32.53,-0.71 -56.75,4.85 -56.75,62.99 v 275.55 h -45.98 v 46.39 h 45.98 v 104.54 h 54.02 v -104.54"
         style="fill:#273877;fill-opacity:1;fill-rule:nonzero;stroke:none"
         id="path18" />
      <path
         d="m 1880.24,1870.15 c -2.05,44.99 0.7,116.31 -63,116.31 -63.69,0 -65.06,-70.62 -67.13,-116.31 z m 54.01,-104.56 c 3.48,-75.47 -35.32,-138.46 -116.3,-138.46 -72.69,0 -124.62,48.46 -124.62,203.54 0,81.01 21.48,202.15 123.23,202.15 124.62,0 117.69,-117.68 120.48,-207.69 h -186.93 c 1.38,-51.91 -7.61,-151.62 69.23,-151.62 52.6,0 67.14,48.47 63.69,92.08 h 51.22"
         style="fill:#273877;fill-opacity:1;fill-rule:nonzero;stroke:none"
         id="path20" />
      <path
         d="m 2006.14,1637.52 v 519.24 h 54.69 v -519.24 h -54.69"
         style="fill:#273877;fill-opacity:1;fill-rule:nonzero;stroke:none"
         id="path22" />
      <path
         d="m 2106.1,2022.45 h 56.76 l 86.53,-333.7 h 1.37 l 89.33,333.7 h 56.77 l -114.25,-367.63 c -6.89,-22.85 -24.21,-78.93 -35.29,-98.33 -20.08,-35.98 -47.77,-50.52 -87.93,-50.52 -13.16,0 -26.3,2.08 -39.46,6.24 v 48.44 c 12.46,-5.54 27.72,-8.29 40.85,-8.29 51.24,0 52.62,38.06 67.85,76.16 l -122.53,393.93"
         style="fill:#273877;fill-opacity:1;fill-rule:nonzero;stroke:none"
         id="path24" />
      <path
         d="m 2597.8,1919.29 c 2.06,45.69 -14.55,67.17 -60.94,67.17 -38.75,0 -60.91,-18.01 -60.91,-58.17 0,-49.84 40.85,-56.08 78.23,-72.01 55.37,-24.92 110.76,-38.77 110.76,-110.75 0,-73.42 -51.24,-119.1 -130.14,-118.4 -33.95,-0.7 -75.48,11.08 -95.55,40.14 -22.83,30.48 -21.46,56.1 -21.46,82.4 h 51.92 c -2.08,-47.08 13.84,-76.16 65.09,-76.16 44.29,0 73.38,18 73.38,65.08 0,54.69 -55.39,59.54 -94.85,76.16 -59.54,22.16 -94.17,42.22 -94.17,109.38 0,66.49 46.39,108.69 112.85,108.69 76.17,0 120.48,-34.6 119.08,-113.53 h -53.29"
         style="fill:#273877;fill-opacity:1;fill-rule:nonzero;stroke:none"
         id="path26" />
      <path
         d="m 370.203,1279.56 c -13.512,0 -25.523,-6.53 -31.015,-16.87 -5.055,-9.49 -7.368,-21.93 -7.368,-39.85 0,-21.73 3.575,-40.71 9.266,-50.41 5.492,-9.27 18.977,-15.6 30.789,-15.6 11.813,0 20.465,4.22 26.992,12.44 7.18,9.07 10.551,20.67 10.551,44.5 0,21.3 -2.109,35.85 -6.953,45.97 -5.07,10.75 -15.606,19.82 -32.262,19.82 z m 0,13.92 c 25.094,0 38.578,-13.29 45.547,-23.62 9.063,-13.49 13.07,-30.37 13.07,-53.57 0,-27.83 -6.328,-45.34 -21.086,-58.83 -10.761,-9.71 -21.726,-13.92 -36.695,-13.92 -17.719,0 -31.426,7.17 -41.117,18.35 -11.399,13.07 -17.305,32.69 -17.305,57.36 0,45.97 21.938,74.23 57.586,74.23"
         style="fill:#273877;fill-opacity:1;fill-rule:nonzero;stroke:none"
         id="path28" />
      <path
         d="m 477.789,1276.4 v -58.41 h 24.258 c 12.238,0 17.707,2.31 22.562,7.8 5.059,5.69 7.379,12.23 7.379,20.45 0,10.76 -2.519,17.93 -8.437,22.99 -5.895,5.06 -13.711,7.17 -27.422,7.17 z m -16.867,14.55 h 40.066 c 15.606,0 23.836,-1.68 31.625,-6.75 12.235,-8.01 18.567,-20.03 18.567,-34.58 0,-14.77 -3.586,-25.73 -13.075,-34.38 -9.699,-8.65 -20.25,-11.39 -35.007,-11.39 h -25.309 v -57.57 h -16.867 v 144.67"
         style="fill:#273877;fill-opacity:1;fill-rule:nonzero;stroke:none"
         id="path30" />
      <path
         d="m 561.129,1290.95 h 95.738 l -1.047,-14.55 h -39.23 v -130.12 h -16.656 v 130.12 h -38.805 v 14.55"
         style="fill:#273877;fill-opacity:1;fill-rule:nonzero;stroke:none"
         id="path32" />
      <path
         d="m 681.59,1290.95 h 16.867 V 1146.28 H 681.59 v 144.67"
         style="fill:#273877;fill-opacity:1;fill-rule:nonzero;stroke:none"
         id="path34" />
      <path
         d="m 747.836,1290.95 h 25.32 l 26.36,-94.48 c 4.007,-14.12 5.691,-25.3 5.691,-25.3 0,0 1.898,11.59 5.27,23.62 l 27.207,96.16 h 25.519 l 12.438,-144.67 h -17.282 l -8.441,106.08 c -0.637,9.27 -1.047,24.67 -1.047,24.67 0,0 -2.961,-13.28 -5.695,-22.77 l -31.012,-107.98 h -14.758 l -28.679,102.7 c -4.633,16.24 -7.18,28.26 -7.18,28.26 0,0 -1.047,-19.19 -1.676,-28.05 l -8.012,-102.91 h -16.656 l 12.633,144.67"
         style="fill:#273877;fill-opacity:1;fill-rule:nonzero;stroke:none"
         id="path36" />
      <path
         d="m 914.27,1290.95 h 16.878 V 1146.28 H 914.27 v 144.67"
         style="fill:#273877;fill-opacity:1;fill-rule:nonzero;stroke:none"
         id="path38" />
      <path
         d="m 964.695,1290.95 h 82.455 v -14.76 l -60.103,-101.44 c -4.844,-8.22 -8.863,-13.92 -8.863,-13.92 0,0 5.918,0.22 12.433,0.22 h 57.363 l -4.42,-14.77 h -85.83 v 13.29 l 61.78,103.12 c 5.49,9.07 9.29,13.92 9.29,13.92 0,0 -6.12,-0.21 -14.98,-0.21 h -53.992 l 4.867,14.55"
         style="fill:#273877;fill-opacity:1;fill-rule:nonzero;stroke:none"
         id="path40" />
      <path
         d="m 1137.02,1204.91 -22.15,70.86 -22.77,-70.86 z m -10.11,86.04 47.87,-144.67 h -19.63 l -13.71,44.5 h -53.98 l -13.91,-44.5 h -17.51 l 48.3,144.67 h 22.57"
         style="fill:#273877;fill-opacity:1;fill-rule:nonzero;stroke:none"
         id="path42" />
      <path
         d="m 1168.49,1290.95 h 95.76 l -1.07,-14.55 h -39.21 v -130.12 h -16.68 v 130.12 h -38.8 v 14.55"
         style="fill:#273877;fill-opacity:1;fill-rule:nonzero;stroke:none"
         id="path44" />
      <path
         d="m 1288.97,1290.95 h 16.86 v -144.67 h -16.86 v 144.67"
         style="fill:#273877;fill-opacity:1;fill-rule:nonzero;stroke:none"
         id="path46" />
      <path
         d="m 1394.85,1279.56 c -13.51,0 -25.52,-6.53 -31.02,-16.87 -5.04,-9.49 -7.36,-21.93 -7.36,-39.85 0,-21.73 3.57,-40.71 9.26,-50.41 5.49,-9.27 18.98,-15.6 30.79,-15.6 11.81,0 20.45,4.22 26.99,12.44 7.17,9.07 10.57,20.67 10.57,44.5 0,21.3 -2.13,35.85 -6.97,45.97 -5.07,10.75 -15.61,19.82 -32.26,19.82 z m 0,13.92 c 25.09,0 38.58,-13.29 45.55,-23.62 9.06,-13.49 13.08,-30.37 13.08,-53.57 0,-27.83 -6.34,-45.34 -21.1,-58.83 -10.76,-9.71 -21.73,-13.92 -36.71,-13.92 -17.7,0 -31.41,7.17 -41.1,18.35 -11.39,13.07 -17.3,32.69 -17.3,57.36 0,45.97 21.92,74.23 57.58,74.23"
         style="fill:#273877;fill-opacity:1;fill-rule:nonzero;stroke:none"
         id="path48" />
      <path
         d="m 1485.57,1290.95 h 20.05 l 48.07,-92.37 c 7.59,-14.34 13.51,-30.37 13.51,-30.37 0,0 -1.7,23.2 -1.9,44.08 l -0.65,78.66 h 17.08 v -144.67 h -18.13 l -46.39,88.57 c -9.29,17.51 -16.46,34.8 -16.46,34.8 0,0 1.7,-20.67 1.9,-39.43 l 0.85,-83.94 h -17.93 v 144.67"
         style="fill:#273877;fill-opacity:1;fill-rule:nonzero;stroke:none"
         id="path50" />
      <path
         d="m 1752.18,1280.19 -7.59,-12.44 c -13.93,9.07 -22.77,12.23 -35.21,12.23 -18.15,0 -28.91,-9.06 -28.91,-23.83 0,-11.59 6.96,-18.13 24.04,-23.61 l 16.66,-5.28 c 12.88,-4 19.63,-7.8 25.52,-14.55 5.92,-6.75 9.49,-16.45 9.49,-25.51 0,-13.5 -7.17,-26.58 -20.03,-34.8 -9.49,-6.12 -19.18,-8.86 -32.49,-8.86 -17.28,0 -32.03,4.21 -46.37,13.07 l 7.59,13.5 c 12.01,-8.65 24.25,-12.44 38.78,-12.44 10.99,0 16.88,1.68 23,6.33 6.97,5.27 10.34,12.23 10.34,20.66 0,12.87 -8.44,21.73 -25.95,27 l -14.55,4.43 c -13.06,4 -20.03,6.95 -25.72,12.86 -5.9,6.33 -9.07,14.34 -9.07,23.62 0,24.67 18.76,41.55 46.82,41.55 15.61,0 29.94,-4.65 43.65,-13.93"
         style="fill:#273877;fill-opacity:1;fill-rule:nonzero;stroke:none"
         id="path52" />
      <path
         d="m 1837.01,1279.56 c -13.51,0 -25.52,-6.53 -31.02,-16.87 -5.04,-9.49 -7.36,-21.93 -7.36,-39.85 0,-21.73 3.57,-40.71 9.26,-50.41 5.5,-9.27 18.98,-15.6 30.79,-15.6 11.81,0 20.45,4.22 27,12.44 7.16,9.07 10.56,20.67 10.56,44.5 0,21.3 -2.12,35.85 -6.97,45.97 -5.07,10.75 -15.61,19.82 -32.26,19.82 z m 0,13.92 c 25.09,0 38.58,-13.29 45.55,-23.62 9.06,-13.49 13.08,-30.37 13.08,-53.57 0,-27.83 -6.34,-45.34 -21.1,-58.83 -10.76,-9.71 -21.72,-13.92 -36.71,-13.92 -17.7,0 -31.41,7.17 -41.1,18.35 -11.39,13.07 -17.3,32.69 -17.3,57.36 0,45.97 21.92,74.23 57.58,74.23"
         style="fill:#273877;fill-opacity:1;fill-rule:nonzero;stroke:none"
         id="path54" />
      <path
         d="m 1927.73,1290.95 h 17.28 v -130.12 h 57.16 l -2.33,-14.55 h -72.11 v 144.67"
         style="fill:#273877;fill-opacity:1;fill-rule:nonzero;stroke:none"
         id="path56" />
      <path
         d="m 2018.02,1290.95 h 17.11 v -97.43 c 0,-7.17 0.62,-16.45 2.52,-20.87 2.75,-6.33 10.54,-14.14 28.27,-14.14 12.01,0 21.07,3.17 25.49,9.07 4.87,6.54 5.5,12.87 5.5,22.57 v 100.8 h 17.08 v -102.91 c 0,-17.5 -2.33,-25.73 -10.97,-33.11 -8.86,-7.59 -20.45,-11.18 -37.95,-11.18 -22.35,0 -35.01,6.54 -42.83,20.88 -3.79,6.96 -4.22,16.24 -4.22,22.57 v 103.75"
         style="fill:#273877;fill-opacity:1;fill-rule:nonzero;stroke:none"
         id="path58" />
      <path
         d="m 2137.43,1290.95 h 95.77 l -1.08,-14.55 h -39.2 v -130.12 h -16.68 v 130.12 h -38.81 v 14.55"
         style="fill:#273877;fill-opacity:1;fill-rule:nonzero;stroke:none"
         id="path60" />
      <path
         d="m 2257.89,1290.95 h 16.88 v -144.67 h -16.88 v 144.67"
         style="fill:#273877;fill-opacity:1;fill-rule:nonzero;stroke:none"
         id="path62" />
      <path
         d="m 2363.77,1279.56 c -13.48,0 -25.52,-6.53 -30.99,-16.87 -5.07,-9.49 -7.39,-21.93 -7.39,-39.85 0,-21.73 3.6,-40.71 9.29,-50.41 5.47,-9.27 18.98,-15.6 30.79,-15.6 11.81,0 20.45,4.22 26.99,12.44 7.17,9.07 10.54,20.67 10.54,44.5 0,21.3 -2.1,35.85 -6.97,45.97 -5.04,10.75 -15.6,19.82 -32.26,19.82 z m 0,13.92 c 25.1,0 38.61,-13.29 45.55,-23.62 9.09,-13.49 13.08,-30.37 13.08,-53.57 0,-27.83 -6.32,-45.34 -21.1,-58.83 -10.74,-9.71 -21.7,-13.92 -36.68,-13.92 -17.7,0 -31.41,7.17 -41.13,18.35 -11.38,13.07 -17.28,32.69 -17.28,57.36 0,45.97 21.93,74.23 57.56,74.23"
         style="fill:#273877;fill-opacity:1;fill-rule:nonzero;stroke:none"
         id="path64" />
      <path
         d="m 2454.52,1290.95 h 20.02 l 48.1,-92.37 c 7.59,-14.34 13.48,-30.37 13.48,-30.37 0,0 -1.7,23.2 -1.9,44.08 l -0.62,78.66 h 17.08 v -144.67 h -18.15 l -46.38,88.57 c -9.29,17.51 -16.45,34.8 -16.45,34.8 0,0 1.67,-20.67 1.9,-39.43 l 0.84,-83.94 h -17.92 v 144.67"
         style="fill:#273877;fill-opacity:1;fill-rule:nonzero;stroke:none"
         id="path66" />
      <path
         d="m 2676.61,1280.19 -7.59,-12.44 c -13.94,9.07 -22.78,12.23 -35.21,12.23 -18.16,0 -28.92,-9.06 -28.92,-23.83 0,-11.59 6.97,-18.13 24.05,-23.61 l 16.65,-5.28 c 12.89,-4 19.63,-7.8 25.52,-14.55 5.92,-6.75 9.49,-16.45 9.49,-25.51 0,-13.5 -7.16,-26.58 -20.02,-34.8 -9.49,-6.12 -19.18,-8.86 -32.49,-8.86 -17.28,0 -32.04,4.21 -46.37,13.07 l 7.59,13.5 c 12.01,-8.65 24.24,-12.44 38.78,-12.44 10.99,0 16.88,1.68 23,6.33 6.96,5.27 10.33,12.23 10.33,20.66 0,12.87 -8.44,21.73 -25.94,27 l -14.56,4.43 c -13.06,4 -20.03,6.95 -25.72,12.86 -5.89,6.33 -9.06,14.34 -9.06,23.62 0,24.67 18.75,41.55 46.82,41.55 15.6,0 29.94,-4.65 43.65,-13.93"
         style="fill:#273877;fill-opacity:1;fill-rule:nonzero;stroke:none"
         id="path68" />
    </g>
  </g>
</svg>
