<svg xmlns="http://www.w3.org/2000/svg" role="img" viewBox="-3.13 -3.13 162.63 70.13"><path id="path2" fill="#AECC53" d="M13.7744 44.9117H5.74456C4.72315 44.9117 3.74355 44.506 3.02131 43.7837C2.29906 43.0615 1.89333 42.0819 1.89333 41.0605V26.1691L0.134611 23.2165C0.0464871 23.0679 0 22.8983 0 22.7255C0 22.5527 0.0464871 22.3831 0.134611 22.2344L1.89333 19.2818V4.37116C1.88909 3.86272 1.98556 3.35847 2.17721 2.8875C2.36885 2.41654 2.6519 1.9882 3.00994 1.62717C3.36799 1.26615 3.79393 0.979595 4.26329 0.784049C4.73264 0.588503 5.23609 0.487836 5.74456 0.487854H13.7872V2.41347H5.74456C5.48896 2.41343 5.23594 2.46427 5.0002 2.56304C4.76446 2.66181 4.55073 2.80653 4.37149 2.98876C4.19226 3.17098 4.05108 3.38706 3.95622 3.6244C3.86136 3.86174 3.81468 4.1156 3.81894 4.37116V19.5257C3.81767 19.6982 3.76882 19.867 3.67775 20.0136L2.0795 22.703L3.67775 25.386C3.76882 25.5325 3.81767 25.7013 3.81894 25.8738V41.0348C3.81894 41.5455 4.02181 42.0353 4.38293 42.3965C4.74405 42.7576 5.23385 42.9604 5.74456 42.9604H13.7872L13.7744 44.9117Z"/><path id="path4" fill="#AECC53" d="M45.8227 44.9117H37.7801V42.9861H45.8227C46.3334 42.9861 46.8232 42.7832 47.1843 42.4221C47.5454 42.061 47.7483 41.5712 47.7483 41.0605V25.8931C47.7504 25.7216 47.7969 25.5535 47.8831 25.4053L49.4878 22.7222L47.8831 20.0328C47.7969 19.8845 47.7504 19.7165 47.7483 19.545V4.37116C47.7525 4.1156 47.706 3.86174 47.6111 3.6244C47.5162 3.38706 47.3751 3.17098 47.1958 2.98876C47.0166 2.80653 46.8029 2.66181 46.5671 2.56304C46.3314 2.46427 46.0783 2.41343 45.8227 2.41347H37.7801V0.487854H45.8227C46.3311 0.487836 46.8346 0.588503 47.3039 0.784049C47.7733 0.979595 48.1993 1.26615 48.5574 1.62717C48.9154 1.9882 49.1984 2.41654 49.39 2.8875C49.5817 3.35847 49.6781 3.86272 49.6739 4.37116V19.2562L51.4327 22.2088C51.5208 22.3574 51.5673 22.527 51.5673 22.6998C51.5673 22.8726 51.5208 23.0422 51.4327 23.1908L49.6739 26.1434V41.0348C49.6739 42.0562 49.2682 43.0358 48.5459 43.7581C47.8237 44.4803 46.8441 44.8861 45.8227 44.8861"/><path id="path6" fill="#006D69" d="M40.0906 24.3847C39.4893 24.3186 38.8825 24.4434 38.356 24.7414C37.8296 25.0395 37.4102 25.4956 37.1575 26.0451C36.9047 26.5947 36.8313 27.2099 36.9476 27.8036C37.0639 28.3972 37.364 28.9392 37.8055 29.3528C36.9017 31.5288 35.4268 33.4201 33.5365 34.8268C31.6462 36.2335 29.4109 37.1032 27.067 37.3441V25.0522C28.6867 24.8475 30.2407 24.2858 31.6171 23.4079C32.9934 22.5299 34.1578 21.3574 35.0262 19.975C35.5778 19.964 36.1147 19.7956 36.5738 19.4896C37.0329 19.1836 37.395 18.7529 37.6175 18.248C37.8399 17.7432 37.9134 17.1852 37.8294 16.64C37.7454 16.0947 37.5074 15.5848 37.1433 15.1703C36.7792 14.7558 36.3043 14.454 35.7744 14.3004C35.2446 14.1468 34.6818 14.1478 34.1524 14.3033C33.6231 14.4588 33.1493 14.7623 32.7867 15.1781C32.4241 15.5938 32.1878 16.1046 32.1057 16.6501C32.045 17.0396 32.0656 17.4374 32.1661 17.8185C32.2666 18.1996 32.4449 18.5557 32.6898 18.8646C32.047 19.8159 31.2168 20.626 30.25 21.2452C29.2831 21.8643 28.2 22.2796 27.067 22.4655V10.4497C27.6525 10.16 28.1227 9.68089 28.4014 9.09017C28.6801 8.49945 28.7509 7.83184 28.6021 7.19584C28.4534 6.55984 28.0939 5.99283 27.5822 5.58695C27.0705 5.18108 26.4364 4.96021 25.7833 4.96021C25.1301 4.96021 24.4962 5.18108 23.9845 5.58695C23.4727 5.99283 23.1133 6.55984 22.9645 7.19584C22.8158 7.83184 22.8865 8.49945 23.1652 9.09017C23.4439 9.68089 23.9141 10.16 24.4995 10.4497V22.4655C23.3641 22.282 22.2783 21.8678 21.309 21.2485C20.3397 20.6292 19.5076 19.8178 18.8639 18.8646C19.1088 18.5557 19.2871 18.1996 19.3876 17.8185C19.4881 17.4374 19.5087 17.0396 19.448 16.6501C19.366 16.1049 19.1299 15.5944 18.7676 15.1787C18.4053 14.7631 17.9317 14.4595 17.4028 14.3038C16.8738 14.1482 16.3114 14.1468 15.7816 14.2999C15.2519 14.453 14.7769 14.7542 14.4126 15.1681C14.0482 15.582 13.8096 16.0913 13.7249 16.6362C13.6402 17.1811 13.713 17.7388 13.9345 18.2438C14.156 18.7487 14.5171 19.1799 14.9753 19.4866C15.4335 19.7933 15.9699 19.9628 16.5211 19.975C17.3916 21.3597 18.559 22.5336 19.9388 23.4117C21.3187 24.2898 22.8765 24.8502 24.4995 25.0522V37.3441C22.1522 37.1065 19.9129 36.2383 18.019 34.8315C16.1251 33.4246 14.6471 31.5315 13.7418 29.3528C14.2163 28.9045 14.5254 28.3091 14.6189 27.6631C14.7124 27.0171 14.5848 26.3585 14.2569 25.7941C13.929 25.2297 13.4199 24.7927 12.8124 24.5541C12.2048 24.3154 11.5345 24.2891 10.9101 24.4793C10.2857 24.6695 9.74402 25.0652 9.3728 25.6021C9.00158 26.139 8.82266 26.7856 8.86515 27.4369C8.90764 28.0882 9.16902 28.7061 9.60684 29.1902C10.0447 29.6743 10.6332 29.9962 11.277 30.1037C12.3496 32.8085 14.1552 35.1604 16.491 36.8953C18.8269 38.6302 21.6003 39.6791 24.4995 39.9244V52.4216H27.067V39.9244C29.964 39.6769 32.7347 38.6268 35.0681 36.8921C37.4015 35.1574 39.2052 32.8066 40.2768 30.1037C40.964 29.9856 41.5853 29.6227 42.0259 29.0823C42.4666 28.5418 42.6968 27.8601 42.6741 27.1632C42.6514 26.4662 42.3774 25.8009 41.9025 25.2903C41.4277 24.7796 40.7841 24.4579 40.0906 24.3847Z"/><path id="path8" fill="#006D69" d="M75.6504 3.53029H73.0829C72.826 3.06652 72.4432 2.68485 71.9787 2.42931C71.5141 2.17377 70.9868 2.05478 70.4576 2.08608C68.4485 2.08608 67.0557 3.51744 67.0557 5.74473C67.0557 7.97202 68.4678 9.43549 70.5539 9.43549C71.3072 9.4793 72.0498 9.2404 72.6363 8.76553C73.2227 8.29066 73.6109 7.61399 73.7248 6.86801H69.8735V5.1478H75.9328V7.07341C75.675 8.32537 74.9868 9.44749 73.9878 10.2448C72.9888 11.0422 71.742 11.4644 70.464 11.4381C68.9472 11.4381 67.4926 10.8356 66.42 9.76307C65.3475 8.69053 64.745 7.23586 64.745 5.71907C64.745 4.20228 65.3475 2.74761 66.42 1.67508C67.4926 0.602544 68.9472 0 70.464 0C72.9609 0 74.9571 1.28374 75.676 3.51103"/><path id="path10" fill="#006D69" d="M79.8415 11.3611H77.5949V2.47119H79.8415V3.85121C80.1204 3.38089 80.5196 2.99328 80.9979 2.72819C81.4762 2.46311 82.0164 2.3301 82.5631 2.34281V4.71132H81.9725C80.6438 4.71132 79.8415 5.22482 79.8415 6.93861V11.3611Z"/><path id="path12" fill="#006D69" d="M87.9548 11.5087C85.3873 11.5087 83.5002 9.7115 83.5002 6.91936C83.5002 4.12722 85.3295 2.32999 87.9548 2.32999C88.5397 2.29936 89.1245 2.39222 89.6711 2.60252C90.2177 2.81282 90.7139 3.13585 91.1275 3.5506C91.541 3.96534 91.8626 4.4625 92.0713 5.00973C92.28 5.55697 92.3712 6.14202 92.3388 6.72681C92.3398 7.01687 92.3184 7.30656 92.2746 7.59332H85.7788C85.7813 7.86889 85.8387 8.14121 85.9476 8.39434C86.0565 8.64748 86.2148 8.87637 86.4133 9.06762C86.6117 9.25886 86.8462 9.40862 87.1032 9.50816C87.3601 9.60769 87.6344 9.655 87.9099 9.64731C88.2808 9.67025 88.65 9.57925 88.9677 9.38651C89.2855 9.19378 89.5368 8.90853 89.6879 8.56897H92.1142C91.8487 9.45304 91.2949 10.2228 90.5411 10.7556C89.7873 11.2883 88.8768 11.5535 87.9548 11.5087ZM85.7917 6.08494H90.0088C90.0026 5.81735 89.942 5.5538 89.8309 5.3103C89.7197 5.0668 89.5603 4.8484 89.3623 4.66835C89.1642 4.4883 88.9317 4.35035 88.6787 4.26285C88.4257 4.17535 88.1576 4.14013 87.8906 4.15932C87.3606 4.14986 86.8472 4.34443 86.4565 4.70282C86.0659 5.06122 85.8278 5.55603 85.7917 6.08494Z"/><path id="path14" fill="#006D69" d="M97.8589 11.5088C95.2915 11.5088 93.3658 9.71153 93.3658 6.9194C93.3658 4.12726 95.1952 2.33002 97.8589 2.33002C98.4433 2.30033 99.0274 2.39388 99.5732 2.60459C100.119 2.81531 100.614 3.13848 101.027 3.55312C101.44 3.96776 101.761 4.4646 101.969 5.01137C102.178 5.55814 102.269 6.14262 102.236 6.72684C102.241 7.01701 102.219 7.30697 102.172 7.59335H95.6766C95.6807 7.86841 95.7393 8.13993 95.8488 8.39228C95.9583 8.64463 96.1167 8.87283 96.3148 9.06373C96.5128 9.25464 96.7466 9.40448 97.0029 9.50465C97.2591 9.60481 97.5326 9.6533 97.8076 9.64735C98.1793 9.6698 98.549 9.57867 98.8677 9.38608C99.1864 9.19348 99.439 8.90852 99.592 8.56901H102.025C101.759 9.45196 101.207 10.2209 100.454 10.7536C99.7017 11.2862 98.7927 11.552 97.8718 11.5088H97.8589ZM95.7087 6.08497H99.9257C99.9195 5.81738 99.8589 5.55383 99.7478 5.31033C99.6367 5.06683 99.4772 4.84843 99.2792 4.66838C99.0811 4.48833 98.8486 4.35038 98.5956 4.26288C98.3427 4.17538 98.0746 4.14017 97.8076 4.15936C97.2776 4.14989 96.7641 4.34446 96.3734 4.70286C95.9828 5.06125 95.7448 5.55606 95.7087 6.08497Z"/><path id="path16" fill="#006D69" d="M110.099 6.4508C110.099 5.02584 109.316 4.25561 108.129 4.25561C106.941 4.25561 106.126 5.02584 106.126 6.4508V11.3611H103.88V2.47121H106.126V3.58163C106.447 3.1832 106.855 2.86454 107.32 2.6507C107.784 2.43685 108.292 2.33368 108.803 2.34925C110.87 2.34925 112.346 3.69075 112.346 6.14912V11.3611H110.099V6.4508Z"/><path id="path18" fill="#006D69" d="M69.1351 32.0165C66.8115 32.0165 65.0143 30.797 64.9822 28.6788H67.3635C67.3685 28.8913 67.4176 29.1004 67.5076 29.293C67.5977 29.4855 67.7268 29.6572 67.8867 29.7972C68.0466 29.9373 68.2339 30.0425 68.4367 30.1063C68.6394 30.1701 68.8532 30.1911 69.0645 30.1679C70.1236 30.1679 70.7462 29.6095 70.7462 28.8072C70.7462 26.3809 64.9694 27.8444 64.9694 23.7813C64.9694 21.7594 66.6061 20.572 68.9169 20.572C71.2276 20.572 72.7681 21.7466 72.9221 23.7813H70.4573C70.4199 23.3922 70.2303 23.0336 69.9298 22.7835C69.6292 22.5335 69.2421 22.4123 68.8526 22.4462C67.9669 22.4141 67.3122 22.8506 67.3122 23.7621C67.3122 26.0086 73.0505 24.757 73.0505 28.7045C73.0505 30.4696 71.6383 32.0614 69.0901 32.0614"/><path id="path20" fill="#006D69" d="M78.9884 32.0486C78.0826 32.0397 77.1998 31.763 76.451 31.2534C75.7023 30.7438 75.1209 30.0239 74.7805 29.1846C74.44 28.3452 74.3555 27.4239 74.5377 26.5366C74.7198 25.6494 75.1604 24.8358 75.804 24.1985C76.4476 23.5611 77.2654 23.1285 78.1544 22.955C79.0434 22.7815 79.9638 22.875 80.7998 23.2236C81.6358 23.5723 82.3499 24.1605 82.8522 24.9142C83.3545 25.6679 83.6226 26.5534 83.6226 27.4592C83.6436 28.0714 83.5377 28.6813 83.3117 29.2505C83.0856 29.8198 82.7442 30.3362 82.309 30.7672C81.8737 31.1982 81.3541 31.5345 80.7826 31.755C80.2112 31.9756 79.6003 32.0755 78.9884 32.0486ZM78.9884 30.123C80.1758 30.123 81.3119 29.2564 81.3119 27.4913C81.3119 25.7262 80.2079 24.8596 79.0205 24.8596C77.833 24.8596 76.7611 25.7069 76.7611 27.4913C76.7611 29.2757 77.7881 30.123 78.9884 30.123Z"/><path id="path22" fill="#006D69" d="M85.5224 24.8597H84.5082V23.0111H85.5224V22.5618C85.5224 20.3794 86.7547 19.3524 89.258 19.4359V21.3294C88.1669 21.2973 87.801 21.6503 87.801 22.6452V23.0111H89.3543V24.8597H87.801V31.9202H85.5224V24.8597Z"/><path id="path24" fill="#006D69" d="M91.1705 24.8597H90.1114V23.0111H91.1705V20.8159H93.4299V23.0111H95.4197V24.8597H93.4299V29.1602C93.4299 29.7507 93.6674 30.0075 94.3734 30.0075H95.4197V31.901H94.0076C92.3066 31.901 91.1705 31.1821 91.1705 29.1409V24.8597Z"/><path id="path26" fill="#006D69" d="M96.0493 23.011H98.3278L99.8936 29.7828L101.595 23.011H103.97L105.639 29.7699L107.211 23.011H109.361L106.762 31.9009H104.342L102.718 25.6941L101.1 31.9009H98.6613L96.0493 23.011Z"/><path id="path28" fill="#006D69" d="M114.066 22.8699C114.633 22.8509 115.195 22.9695 115.706 23.2154C116.217 23.4613 116.661 23.8273 116.999 24.282V22.9982H119.265V31.8882H116.999V30.6044C116.663 31.0682 116.218 31.4424 115.703 31.6941C115.188 31.9459 114.62 32.0676 114.047 32.0486C111.8 32.0486 110.009 30.2 110.009 27.4272C110.009 24.6543 111.8 22.8699 114.066 22.8699ZM114.644 24.8404C114.317 24.8428 113.995 24.9126 113.697 25.0454C113.399 25.1783 113.131 25.3713 112.911 25.6124C112.691 25.8534 112.524 26.1374 112.419 26.4464C112.314 26.7553 112.273 27.0827 112.301 27.4079C112.301 29.0896 113.437 30.0524 114.644 30.0524C114.974 30.0485 115.3 29.9762 115.601 29.8401C115.902 29.704 116.172 29.5071 116.393 29.2617C116.615 29.0163 116.783 28.7278 116.887 28.4143C116.991 28.1007 117.03 27.769 116.999 27.44C116.999 25.7519 115.876 24.8212 114.644 24.8212"/><path id="path30" fill="#006D69" d="M123.707 31.901H121.467V23.0111H123.707V24.3911C123.988 23.9212 124.389 23.5341 124.868 23.2691C125.347 23.0042 125.888 22.8708 126.435 22.8827V25.2512H125.845C124.51 25.2512 123.707 25.7647 123.707 27.4785V31.901Z"/><path id="path32" fill="#006D69" d="M131.827 32.0486C129.26 32.0486 127.372 30.2514 127.372 27.4592C127.372 24.6671 129.195 22.8698 131.827 22.8698C132.412 22.8392 132.997 22.9321 133.543 23.1424C134.09 23.3527 134.586 23.6757 135 24.0905C135.413 24.5052 135.735 25.0024 135.944 25.5496C136.152 26.0968 136.243 26.6819 136.211 27.2667C136.212 27.5567 136.191 27.8464 136.147 28.1332H129.625C129.63 28.4088 129.688 28.6808 129.798 28.9336C129.908 29.1864 130.067 29.4149 130.266 29.6059C130.465 29.7969 130.699 29.9466 130.956 30.0463C131.213 30.1461 131.487 30.194 131.763 30.1872C132.134 30.2101 132.503 30.1191 132.821 29.9264C133.139 29.7336 133.39 29.4484 133.541 29.1088H135.967C135.702 29.9929 135.148 30.7626 134.394 31.2954C133.64 31.8282 132.73 32.0933 131.808 32.0486H131.827ZM129.645 26.6248H133.862C133.856 26.3572 133.795 26.0937 133.684 25.8502C133.573 25.6067 133.413 25.3883 133.215 25.2082C133.017 25.0282 132.785 24.8902 132.532 24.8027C132.279 24.7152 132.011 24.68 131.744 24.6992C131.214 24.6897 130.7 24.8843 130.309 25.2427C129.919 25.6011 129.681 26.0959 129.645 26.6248Z"/><path id="path34" fill="#006D69" d="M65.2715 41.2466H72.1841V43.0567H67.518V45.9259H71.0928V47.7103H67.518V52.4409H65.2715V41.2466Z"/><path id="path36" fill="#006D69" d="M77.724 52.5884C76.8182 52.5796 75.9353 52.3029 75.1866 51.7933C74.4378 51.2836 73.8565 50.5638 73.5161 49.7244C73.1756 48.8851 73.0911 47.9638 73.2732 47.0765C73.4554 46.1892 73.8959 45.3757 74.5395 44.7383C75.1831 44.101 76.001 43.6683 76.89 43.4949C77.779 43.3214 78.6994 43.4149 79.5354 43.7635C80.3714 44.1121 81.0855 44.7004 81.5878 45.4541C82.0901 46.2078 82.3582 47.0933 82.3582 47.9991C82.3792 48.6112 82.2733 49.2211 82.0473 49.7904C81.8212 50.3597 81.4798 50.876 81.0446 51.307C80.6093 51.738 80.0897 52.0744 79.5182 52.2949C78.9468 52.5154 78.3359 52.6154 77.724 52.5884ZM77.724 50.6628C78.9114 50.6628 80.0475 49.7963 80.0475 48.0312C80.0475 46.266 78.937 45.3995 77.756 45.3995C76.575 45.3995 75.4903 46.2468 75.4903 48.0312C75.4903 49.8156 76.5172 50.6628 77.724 50.6628Z"/><path id="path38" fill="#006D69" d="M92.3966 52.4409H90.1308V51.3176C89.817 51.7158 89.4145 52.0352 88.9553 52.2503C88.4962 52.4654 87.9931 52.5702 87.4863 52.5564C85.4195 52.5564 83.924 51.2085 83.924 48.7694V43.551H86.1705V48.4484C86.1705 49.8734 86.96 50.6436 88.141 50.6436C89.322 50.6436 90.1308 49.8734 90.1308 48.4484V43.551H92.3966V52.4409Z"/><path id="path40" fill="#006D69" d="M100.844 47.5305C100.844 46.1056 100.054 45.3354 98.8732 45.3354C97.6922 45.3354 96.8642 46.1056 96.8642 47.5305V52.4409H94.6176V43.551H96.8642V44.6614C97.1856 44.2624 97.5952 43.9435 98.0608 43.7297C98.5263 43.5158 99.0352 43.4129 99.5472 43.429C101.614 43.429 103.09 44.7705 103.09 47.2289V52.4409H100.844V47.5305Z"/><path id="path42" fill="#006D69" d="M108.726 43.4097C109.283 43.4029 109.834 43.5237 110.337 43.7629C110.84 44.0021 111.281 44.3534 111.627 44.7897V40.5726H113.906V52.4408H111.653V51.125C111.332 51.5983 110.895 51.9814 110.384 52.2376C109.872 52.4938 109.304 52.6146 108.732 52.5885C106.473 52.5885 104.676 50.7399 104.676 47.967C104.676 45.1941 106.473 43.4097 108.752 43.4097H108.726ZM109.31 45.3802C108.984 45.3836 108.662 45.454 108.365 45.5872C108.067 45.7203 107.8 45.9134 107.58 46.1542C107.36 46.3951 107.192 46.6786 107.087 46.9872C106.982 47.2958 106.941 47.6227 106.967 47.9477C106.938 48.2771 106.977 48.6089 107.08 48.9229C107.184 49.237 107.35 49.5266 107.57 49.7741C107.789 50.0216 108.056 50.2217 108.356 50.3624C108.655 50.5031 108.98 50.5813 109.31 50.5922C110.549 50.5922 111.666 49.6615 111.666 47.9798C111.666 46.2981 110.549 45.361 109.31 45.361"/><path id="path44" fill="#006D69" d="M119.586 43.4097C120.153 43.3908 120.716 43.5093 121.227 43.7553C121.738 44.0012 122.181 44.3671 122.52 44.8218V43.5381H124.786V52.428H122.52V51.1443C122.183 51.608 121.738 51.9822 121.223 52.234C120.709 52.4858 120.14 52.6075 119.567 52.5885C117.327 52.5885 115.53 50.7399 115.53 47.967C115.53 45.1941 117.327 43.4097 119.586 43.4097ZM120.164 45.3803C119.838 45.3826 119.515 45.4525 119.217 45.5853C118.919 45.7181 118.652 45.9111 118.432 46.1522C118.212 46.3933 118.044 46.6772 117.939 46.9862C117.834 47.2952 117.794 47.6225 117.821 47.9477C117.821 49.6294 118.957 50.5923 120.164 50.5923C120.495 50.5883 120.821 50.5161 121.122 50.38C121.423 50.2439 121.692 50.047 121.914 49.8016C122.135 49.5562 122.303 49.2676 122.407 48.9541C122.512 48.6406 122.55 48.3089 122.52 47.9799C122.52 46.2917 121.397 45.361 120.164 45.361"/><path id="path46" fill="#006D69" d="M127.34 45.3995H126.281V43.5509H127.34V41.3557H129.625V43.5509H131.615V45.3995H129.625V49.7C129.625 50.2906 129.863 50.5473 130.569 50.5473H131.615V52.4408H130.203C128.502 52.4408 127.366 51.7219 127.366 49.6808L127.34 45.3995Z"/><path id="path48" fill="#006D69" d="M132.97 41.1824C132.95 40.9062 133.015 40.6305 133.154 40.3913C133.293 40.152 133.502 39.9603 133.751 39.8409C134.001 39.7215 134.281 39.6801 134.555 39.722C134.829 39.7639 135.084 39.8871 135.286 40.0757C135.489 40.2643 135.63 40.5095 135.692 40.7795C135.753 41.0495 135.732 41.3317 135.631 41.5896C135.53 41.8474 135.354 42.0689 135.125 42.2252C134.897 42.3815 134.627 42.4655 134.35 42.4662C134.174 42.4748 133.999 42.4482 133.834 42.3879C133.669 42.3277 133.518 42.235 133.389 42.1153C133.26 41.9957 133.157 41.8515 133.085 41.6913C133.013 41.5311 132.974 41.358 132.97 41.1824ZM133.214 43.5509H135.46V52.4408H133.214V43.5509Z"/><path id="path50" fill="#006D69" d="M141.616 52.5885C140.71 52.5784 139.828 52.3006 139.08 51.7902C138.332 51.2798 137.752 50.5596 137.412 49.7201C137.073 48.8807 136.989 47.9596 137.172 47.0727C137.355 46.1859 137.796 45.373 138.44 44.7362C139.084 44.0995 139.902 43.6675 140.79 43.4945C141.679 43.3216 142.599 43.4154 143.435 43.7642C144.271 44.113 144.984 44.7013 145.486 45.4548C145.988 46.2084 146.256 47.0936 146.256 47.9991C146.276 48.6116 146.17 49.2216 145.943 49.7909C145.716 50.3602 145.374 50.8765 144.938 51.3074C144.503 51.7383 143.983 52.0745 143.411 52.295C142.839 52.5154 142.228 52.6154 141.616 52.5885ZM141.616 50.6629C142.803 50.6629 143.946 49.7964 143.946 48.0312C143.946 46.2661 142.835 45.3996 141.648 45.3996C140.46 45.3996 139.388 46.2468 139.388 48.0312C139.388 49.8156 140.415 50.6629 141.616 50.6629Z"/><path id="path52" fill="#006D69" d="M154.132 47.5305C154.132 46.1056 153.349 45.3354 152.162 45.3354C150.974 45.3354 150.152 46.1056 150.152 47.5305V52.4409H147.912V43.551H150.165V44.6614C150.487 44.2624 150.896 43.9435 151.362 43.7297C151.827 43.5158 152.336 43.4129 152.848 43.429C154.915 43.429 156.391 44.7705 156.391 47.2289V52.4409H154.145L154.132 47.5305Z"/><path d="M19.65 35.86L26.33 15.47L32.80 35.86ZM20.32 3.62L1.83 55.44L13.15 55.44L16.73 44.79L35.82 44.79L39.16 55.44L50.91 55.44L32.55 3.62ZM26.37 3.62ZM74.74 17.12L69.22 44.61L63.25 17.12L52.49 17.12L63.25 55.44L73.65 55.44L79.73 27.53L85.75 55.44L96.05 55.44L107.16 17.12L96.71 17.12L90.74 44.72L84.90 17.12ZM122.40 26.54C123.67 25.09 125.47 24.36 127.79 24.36C129.93 24.36 131.71 25.05 133.15 26.42C134.60 27.79 135.40 29.80 135.56 32.45L119.99 32.45C120.32 29.96 121.12 28.00 122.40 26.54ZM136.41 17.89C133.85 16.70 130.98 16.10 127.79 16.10C122.43 16.10 118.06 17.87 114.70 21.41C111.33 24.95 109.65 30.04 109.65 36.67C109.65 43.75 111.52 48.86 115.24 52.00C118.97 55.14 123.27 56.71 128.14 56.71C134.05 56.71 138.64 54.84 141.93 51.12C144.04 48.77 145.22 46.46 145.48 44.19L135.25 44.19C134.71 45.32 134.09 46.20 133.38 46.83C132.09 48.00 130.42 48.59 128.36 48.59C126.41 48.59 124.75 48.11 123.36 47.14C121.09 45.60 119.88 42.90 119.74 39.06L145.97 39.06C146.02 35.75 145.91 33.22 145.65 31.46C145.21 28.46 144.23 25.83 142.73 23.55C141.07 20.98 138.96 19.09 136.41 17.89ZM128.50 16.10ZM160.52 43.21L150.36 43.21C150.36 47.14 151.80 50.38 154.67 52.93C157.54 55.47 161.99 56.74 168.01 56.74C173.92 56.74 178.28 55.54 181.11 53.14C183.93 50.74 185.34 47.64 185.34 43.84C185.34 40.96 184.36 38.55 182.39 36.63C180.40 34.73 177.41 33.32 173.43 32.38C167.45 31.07 163.97 30.14 162.98 29.60C162 29.09 161.51 28.25 161.51 27.11C161.51 26.19 161.97 25.39 162.90 24.71C163.82 24.04 165.38 23.70 167.55 23.70C170.20 23.70 172.08 24.37 173.18 25.73C173.77 26.48 174.13 27.50 174.27 28.79L184.29 28.79C183.84 24.11 182.12 20.81 179.10 18.90C176.09 16.99 172.20 16.03 167.41 16.03C162.38 16.03 158.47 17.30 155.69 19.85C152.91 22.39 151.52 25.43 151.52 28.97C151.52 31.97 152.41 34.27 154.20 35.86C155.98 37.48 159.04 38.82 163.37 39.90C169.39 41.33 172.87 42.34 173.81 42.93C174.75 43.51 175.22 44.37 175.22 45.49C175.22 46.66 174.64 47.54 173.48 48.13C172.32 48.71 170.75 49.01 168.79 49.01C165.43 49.01 163.14 48.34 161.89 47.00C161.19 46.25 160.73 44.99 160.52 43.21ZM168.19 16.10ZM216.70 45.25C215.13 47.33 212.88 48.38 209.95 48.38C207.02 48.38 204.77 47.33 203.19 45.25C201.60 43.16 200.81 40.20 200.81 36.35C200.81 32.51 201.60 29.55 203.19 27.47C204.77 25.40 207.02 24.36 209.95 24.36C212.88 24.36 215.13 25.40 216.70 27.47C218.27 29.55 219.06 32.51 219.06 36.35C219.06 40.20 218.27 43.16 216.70 45.25ZM224.72 50.78C227.95 46.79 229.57 41.98 229.57 36.35C229.57 30.82 227.95 26.03 224.72 21.97C221.48 17.92 216.57 15.89 209.99 15.89C203.40 15.89 198.49 17.92 195.26 21.97C192.02 26.03 190.41 30.82 190.41 36.35C190.41 41.98 192.02 46.79 195.26 50.78C198.49 54.78 203.40 56.78 209.99 56.78C216.57 56.78 221.48 54.78 224.72 50.78ZM209.99 16.10ZM284.55 17.26C282.91 16.61 281.25 16.28 279.56 16.28C277.03 16.28 274.73 16.80 272.67 17.86C270.73 18.91 269.10 20.57 267.79 22.82C267.04 20.94 265.93 19.41 264.48 18.21C262.68 16.92 260.31 16.28 257.38 16.28C254.29 16.28 251.77 17.03 249.82 18.53C248.72 19.37 247.55 20.79 246.30 22.78L246.30 17.19L236.57 17.19L236.57 55.44L246.73 55.44L246.73 32.38C246.73 30.29 247.00 28.72 247.54 27.67C248.52 25.82 250.44 24.89 253.30 24.89C255.76 24.89 257.41 25.82 258.26 27.67C258.73 28.70 258.96 30.35 258.96 32.63L258.96 55.44L269.05 55.44L269.05 32.63C269.05 30.91 269.32 29.45 269.86 28.23C270.91 25.93 272.82 24.79 275.59 24.79C277.98 24.79 279.62 25.68 280.51 27.46C280.98 28.39 281.21 29.59 281.21 31.04L281.21 55.44L291.48 55.44L291.55 31.29C291.55 28.80 291.43 26.92 291.20 25.63C290.82 23.68 290.10 22.04 289.02 20.71C287.68 19.07 286.20 17.92 284.55 17.26ZM310.48 26.54C311.76 25.09 313.56 24.36 315.88 24.36C318.01 24.36 319.80 25.05 321.24 26.42C322.68 27.79 323.48 29.80 323.65 32.45L308.07 32.45C308.40 29.96 309.21 28.00 310.48 26.54ZM324.49 17.89C321.94 16.70 319.07 16.10 315.88 16.10C310.51 16.10 306.15 17.87 302.78 21.41C299.42 24.95 297.74 30.04 297.74 36.67C297.74 43.75 299.60 48.86 303.33 52.00C307.05 55.14 311.36 56.71 316.23 56.71C322.14 56.71 326.73 54.84 330.01 51.12C332.12 48.77 333.30 46.46 333.56 44.19L323.33 44.19C322.79 45.32 322.17 46.20 321.47 46.83C320.18 48.00 318.50 48.59 316.44 48.59C314.50 48.59 312.83 48.11 311.45 47.14C309.18 45.60 307.97 42.90 307.83 39.06L334.05 39.06C334.10 35.75 334.00 33.22 333.74 31.46C333.29 28.46 332.32 25.83 330.82 23.55C329.16 20.98 327.05 19.09 324.49 17.89ZM316.58 16.10ZM396.46 19.79L407.11 19.79C406.52 14.80 404.23 10.63 400.24 7.29C396.24 3.96 390.95 2.29 384.36 2.29C376.77 2.29 370.66 4.82 366.05 9.88C361.43 14.94 359.12 21.67 359.12 30.06C359.12 38.36 361.41 44.89 365.98 49.68C370.36 54.43 375.98 56.81 382.85 56.81C387.02 56.81 390.54 55.93 393.40 54.18C395.06 53.17 396.94 51.43 399.02 48.97L400.11 55.44L407.29 55.44L407.29 27.63L385.70 27.63L385.70 36.28L397.69 36.28C397.15 39.68 395.72 42.43 393.40 44.53C391.08 46.62 388.10 47.67 384.47 47.67C380.77 47.67 377.46 46.35 374.55 43.70C371.65 41.05 370.20 36.54 370.20 30.16C370.20 23.84 371.54 19.10 374.22 15.94C376.90 12.79 380.33 11.21 384.50 11.21C386.68 11.21 388.66 11.60 390.45 12.38C393.63 13.78 395.64 16.25 396.46 19.79ZM384.33 2.29ZM438.10 16.22C437.97 16.21 437.81 16.21 437.63 16.21C434.63 16.21 432.19 16.99 430.31 18.56C429.16 19.50 427.82 21.25 426.27 23.80L426.27 17.12L416.71 17.12L416.71 55.44L426.80 55.44L426.80 37.13C426.80 34.05 427.18 31.78 427.96 30.30C429.34 27.68 432.05 26.37 436.08 26.37C436.38 26.37 436.78 26.38 437.27 26.40C437.77 26.43 438.33 26.47 438.96 26.54L438.96 16.28C438.52 16.25 438.23 16.24 438.10 16.22ZM454.55 26.54C455.83 25.09 457.63 24.36 459.95 24.36C462.08 24.36 463.87 25.05 465.31 26.42C466.75 27.79 467.55 29.80 467.72 32.45L452.14 32.45C452.47 29.96 453.28 28.00 454.55 26.54ZM468.56 17.89C466.01 16.70 463.14 16.10 459.95 16.10C454.58 16.10 450.22 17.87 446.85 21.41C443.49 24.95 441.81 30.04 441.81 36.67C441.81 43.75 443.67 48.86 447.40 52.00C451.13 55.14 455.43 56.71 460.30 56.71C466.21 56.71 470.80 54.84 474.08 51.12C476.19 48.77 477.38 46.46 477.63 44.19L467.40 44.19C466.86 45.32 466.24 46.20 465.54 46.83C464.25 48.00 462.57 48.59 460.51 48.59C458.57 48.59 456.90 48.11 455.52 47.14C453.25 45.60 452.04 42.90 451.90 39.06L478.13 39.06C478.17 35.75 478.07 33.22 477.81 31.46C477.36 28.46 476.39 25.83 474.89 23.55C473.23 20.98 471.12 19.09 468.56 17.89ZM460.65 16.10ZM494.60 26.54C495.87 25.09 497.67 24.36 499.99 24.36C502.13 24.36 503.91 25.05 505.35 26.42C506.79 27.79 507.60 29.80 507.76 32.45L492.19 32.45C492.52 29.96 493.32 28.00 494.60 26.54ZM508.61 17.89C506.05 16.70 503.18 16.10 499.99 16.10C494.62 16.10 490.26 17.87 486.90 21.41C483.53 24.95 481.85 30.04 481.85 36.67C481.85 43.75 483.71 48.86 487.44 52.00C491.17 55.14 495.47 56.71 500.34 56.71C506.25 56.71 510.84 54.84 514.13 51.12C516.23 48.77 517.42 46.46 517.68 44.19L507.45 44.19C506.91 45.32 506.29 46.20 505.58 46.83C504.29 48.00 502.62 48.59 500.55 48.59C498.61 48.59 496.95 48.11 495.56 47.14C493.29 45.60 492.08 42.90 491.94 39.06L518.17 39.06C518.21 35.75 518.11 33.22 517.85 31.46C517.41 28.46 516.43 25.83 514.93 23.55C513.27 20.98 511.16 19.09 508.61 17.89ZM500.70 16.10ZM555.87 19.32C553.35 17.24 550.11 16.21 546.15 16.21C542.99 16.21 540.38 16.98 538.31 18.53C537.16 19.39 535.95 20.81 534.66 22.78L534.66 17.19L524.99 17.19L524.99 55.44L534.97 55.44L534.97 34.70C534.97 32.33 535.30 30.39 535.96 28.86C537.22 25.98 539.55 24.54 542.95 24.54C545.72 24.54 547.59 25.52 548.58 27.49C549.12 28.57 549.39 30.12 549.39 32.13L549.39 55.44L559.65 55.44L559.65 29.64C559.65 24.83 558.39 21.39 555.87 19.32ZM542.46 16.10ZM597.55 39.45L587.21 39.45C587.21 44.84 589.15 49.07 593.02 52.15C596.88 55.24 602.19 56.78 608.94 56.78C615.55 56.78 620.67 55.21 624.29 52.08C627.91 48.96 629.72 45.02 629.72 40.29C629.72 35.67 628.17 32.14 625.08 29.71C623.09 28.14 620.13 26.88 616.22 25.95L607.29 23.80C603.84 22.98 601.59 22.27 600.54 21.66C598.90 20.74 598.08 19.36 598.08 17.51C598.08 15.49 598.91 13.92 600.57 12.80C602.24 11.67 604.46 11.11 607.25 11.11C609.76 11.11 611.86 11.54 613.55 12.41C616.08 13.72 617.44 15.94 617.63 19.05L628.03 19.05C627.84 13.55 625.82 9.35 621.97 6.45C618.11 3.56 613.45 2.11 607.99 2.11C601.45 2.11 596.50 3.64 593.12 6.71C589.75 9.79 588.06 13.64 588.06 18.28C588.06 23.37 589.80 27.11 593.30 29.50C595.36 30.93 599.09 32.25 604.48 33.47L609.96 34.70C613.17 35.40 615.53 36.21 617.03 37.13C618.53 38.06 619.28 39.39 619.28 41.10C619.28 44.03 617.77 46.03 614.74 47.11C613.15 47.67 611.07 47.95 608.52 47.95C604.25 47.95 601.24 46.89 599.48 44.75C598.52 43.58 597.88 41.81 597.55 39.45ZM608.06 2.04ZM660.87 45.25C659.30 47.33 657.05 48.38 654.12 48.38C651.19 48.38 648.93 47.33 647.35 45.25C645.77 43.16 644.98 40.20 644.98 36.35C644.98 32.51 645.77 29.55 647.35 27.47C648.93 25.40 651.19 24.36 654.12 24.36C657.05 24.36 659.30 25.40 660.87 27.47C662.44 29.55 663.22 32.51 663.22 36.35C663.22 40.20 662.44 43.16 660.87 45.25ZM668.88 50.78C672.12 46.79 673.73 41.98 673.73 36.35C673.73 30.82 672.12 26.03 668.88 21.97C665.65 17.92 660.74 15.89 654.15 15.89C647.57 15.89 642.66 17.92 639.42 21.97C636.19 26.03 634.57 30.82 634.57 36.35C634.57 41.98 636.19 46.79 639.42 50.78C642.66 54.78 647.57 56.78 654.15 56.78C660.74 56.78 665.65 54.78 668.88 50.78ZM654.15 16.10ZM696.76 3.15C696.25 3.11 695.67 3.09 695.04 3.09C689.48 3.09 685.98 4.24 684.53 6.54C683.14 8.09 682.45 10.91 682.45 15.01L682.45 17.47L676.97 17.47L676.97 24.54L682.56 24.54L682.56 55.44L692.54 55.44L692.54 24.54L699.12 24.54L699.12 17.47L692.54 17.47L692.54 14.24C692.54 13.49 692.79 12.80 693.30 12.18C693.80 11.56 694.72 11.27 696.04 11.30C697.37 11.34 698.31 11.39 698.87 11.46L698.87 3.30C697.98 3.23 697.28 3.18 696.76 3.15ZM700.95 24.61L706.29 24.61L706.29 48.20C706.29 50.59 706.85 52.36 707.98 53.51C709.71 55.31 712.95 56.13 717.68 55.97L722.43 55.79L722.43 48.30C722.10 48.33 721.76 48.35 721.42 48.36C721.08 48.37 720.76 48.38 720.46 48.38C718.42 48.38 717.20 48.18 716.80 47.79C716.40 47.41 716.20 46.43 716.20 44.86L716.20 24.61L722.43 24.61L722.43 17.47L716.20 17.47L716.20 6.79L706.29 6.79L706.29 17.47L700.95 17.47ZM746.93 17.12L741.41 44.61L735.43 17.12L724.68 17.12L735.43 55.44L745.84 55.44L751.92 27.53L757.93 55.44L768.23 55.44L779.34 17.12L768.90 17.12L762.93 44.72L757.09 17.12ZM805.99 36.81L805.99 40.54C805.92 43.89 804.98 46.20 803.16 47.46C801.35 48.73 799.36 49.36 797.20 49.36C795.84 49.36 794.69 48.98 793.74 48.22C792.79 47.46 792.32 46.22 792.32 44.51C792.32 42.59 793.09 41.17 794.64 40.25C795.55 39.71 797.06 39.26 799.17 38.88L801.42 38.46C802.55 38.25 803.43 38.02 804.08 37.78C804.72 37.53 805.36 37.21 805.99 36.81ZM799.91 32.13L796.50 32.55C792.63 33.05 789.70 33.87 787.71 35.02C784.08 37.13 782.26 40.54 782.26 45.25C782.26 48.88 783.39 51.69 785.65 53.67C787.92 55.65 790.78 56.64 794.25 56.64C796.97 56.64 799.41 56.02 801.56 54.77C803.37 53.72 804.96 52.44 806.34 50.94C806.41 51.81 806.51 52.58 806.63 53.26C806.74 53.94 806.95 54.67 807.26 55.44L818.16 55.44L818.16 53.96C817.50 53.66 817.01 53.27 816.68 52.80C816.35 52.34 816.15 51.45 816.08 50.13C816.04 48.40 816.01 46.92 816.01 45.70L816.01 28.13C816.01 23.51 814.38 20.37 811.13 18.70C807.87 17.04 804.14 16.21 799.95 16.21C793.50 16.21 788.95 17.89 786.30 21.27C784.64 23.43 783.70 26.18 783.49 29.53L793.16 29.53C793.39 28.05 793.86 26.88 794.57 26.02C795.55 24.84 797.23 24.26 799.59 24.26C801.70 24.26 803.30 24.56 804.39 25.15C805.48 25.75 806.03 26.84 806.03 28.41C806.03 29.70 805.31 30.64 803.88 31.25C803.09 31.61 801.76 31.90 799.91 32.13ZM800.44 16.10ZM846.19 16.22C846.06 16.21 845.91 16.21 845.72 16.21C842.72 16.21 840.28 16.99 838.41 18.56C837.26 19.50 835.91 21.25 834.36 23.80L834.36 17.12L824.80 17.12L824.80 55.44L834.89 55.44L834.89 37.13C834.89 34.05 835.28 31.78 836.05 30.30C837.43 27.68 840.14 26.37 844.17 26.37C844.48 26.37 844.88 26.38 845.37 26.40C845.86 26.43 846.42 26.47 847.05 26.54L847.05 16.28C846.61 16.25 846.32 16.24 846.19 16.22ZM862.65 26.54C863.92 25.09 865.72 24.36 868.04 24.36C870.18 24.36 871.96 25.05 873.40 26.42C874.85 27.79 875.65 29.80 875.81 32.45L860.24 32.45C860.57 29.96 861.37 28.00 862.65 26.54ZM876.66 17.89C874.10 16.70 871.23 16.10 868.04 16.10C862.68 16.10 858.31 17.87 854.95 21.41C851.58 24.95 849.90 30.04 849.90 36.67C849.90 43.75 851.77 48.86 855.49 52.00C859.22 55.14 863.52 56.71 868.39 56.71C874.30 56.71 878.89 54.84 882.18 51.12C884.29 48.77 885.47 46.46 885.73 44.19L875.50 44.19C874.96 45.32 874.34 46.20 873.63 46.83C872.34 48.00 870.67 48.59 868.61 48.59C866.66 48.59 865.00 48.11 863.61 47.14C861.34 45.60 860.13 42.90 859.99 39.06L886.22 39.06C886.27 35.75 886.16 33.22 885.90 31.46C885.46 28.46 884.48 25.83 882.98 23.55C881.32 20.98 879.21 19.09 876.66 17.89ZM868.75 16.10Z" transform="translate(13.133 55.63) scale(.14647)"/></svg>