<?xml version="1.0" encoding="UTF-8" standalone="no"?>
<!-- Created with Inkscape (http://www.inkscape.org/) -->

<svg
   version="1.1"
   id="svg3985"
   width="871.67963"
   height="488.53473"
   viewBox="0 0 871.67963 488.53473"
   sodipodi:docname="Awesome Earth.svg"
   inkscape:version="1.2.2 (b0a84865, 2022-12-01)"
   xmlns:inkscape="http://www.inkscape.org/namespaces/inkscape"
   xmlns:sodipodi="http://sodipodi.sourceforge.net/DTD/sodipodi-0.dtd"
   xmlns="http://www.w3.org/2000/svg"
   xmlns:svg="http://www.w3.org/2000/svg">
  <defs
     id="defs3989" />
  <sodipodi:namedview
     id="namedview3987"
     pagecolor="#ffffff"
     bordercolor="#666666"
     borderopacity="1.0"
     inkscape:showpageshadow="2"
     inkscape:pageopacity="0.0"
     inkscape:pagecheckerboard="0"
     inkscape:deskcolor="#d1d1d1"
     showgrid="false"
     inkscape:zoom="0.49579832"
     inkscape:cx="395.32203"
     inkscape:cy="190.60169"
     inkscape:window-width="1445"
     inkscape:window-height="847"
     inkscape:window-x="137"
     inkscape:window-y="109"
     inkscape:window-maximized="0"
     inkscape:current-layer="g3991" />
  <g
     inkscape:groupmode="layer"
     inkscape:label="Image"
     id="g3991"
     transform="translate(-151.32039,-74.93624)">
    <g
       aria-label="Awesome Earth"
       id="text4132"
       style="font-size:40px"
       transform="matrix(2.1106172,0,0,2.1106172,-80.278117,-578.68495)">
      <path
         d="m 188.19186,540.54236 h -4.12109 l -2.85156,-8.10547 h -12.57813 l -2.85156,8.10547 h -3.92578 l 10.58594,-29.08203 h 5.15625 z m -8.16406,-11.42578 -5.09765,-14.27735 -5.11719,14.27735 z"
         id="path4134" />
      <path
         d="m 219.16843,518.72595 -5.6836,21.81641 h -3.39843 l -5.60547,-16.81641 -5.56641,16.81641 h -3.37891 l -5.74218,-21.81641 h 3.82812 l 4.00391,16.89453 5.44922,-16.89453 h 3.02734 l 5.58594,16.89453 3.78906,-16.89453 z"
         id="path4136" />
      <path
         d="M 242.72311,530.01501 H 226.6489 q 0,2.01172 0.60546,3.51563 0.60547,1.48437 1.66016,2.44141 1.01563,0.9375 2.40234,1.40625 1.40625,0.46875 3.08594,0.46875 2.22656,0 4.47266,-0.87891 2.26562,-0.89844 3.22265,-1.75781 h 0.19532 v 4.0039 q -1.85547,0.78125 -3.78907,1.3086 -1.93359,0.52734 -4.0625,0.52734 -5.42968,0 -8.47656,-2.92969 -3.04687,-2.94922 -3.04687,-8.35937 0,-5.35156 2.91015,-8.4961 2.92969,-3.14453 7.69532,-3.14453 4.41406,0 6.79687,2.57813 2.40234,2.57812 2.40234,7.32422 z m -3.57421,-2.8125 q -0.0195,-2.89062 -1.46485,-4.47265 -1.42578,-1.58203 -4.35547,-1.58203 -2.94922,0 -4.70703,1.73828 -1.73828,1.73828 -1.97265,4.3164 z"
         id="path4138" />
      <path
         d="m 263.87546,534.2533 q 0,2.98828 -2.48047,4.90234 -2.46094,1.91406 -6.73828,1.91406 -2.42188,0 -4.45313,-0.5664 -2.01172,-0.58594 -3.3789,-1.26954 v -4.12109 h 0.19531 q 1.73828,1.30859 3.86719,2.08984 2.1289,0.76172 4.08203,0.76172 2.42187,0 3.78906,-0.78125 1.36719,-0.78125 1.36719,-2.46093 0,-1.28907 -0.74219,-1.95313 -0.74219,-0.66406 -2.85156,-1.13281 -0.78125,-0.17578 -2.05078,-0.41016 -1.25,-0.23437 -2.28516,-0.50781 -2.87109,-0.76172 -4.08203,-2.22656 -1.19141,-1.48438 -1.19141,-3.63282 0,-1.34765 0.54688,-2.53906 0.5664,-1.1914 1.69922,-2.1289 1.09375,-0.91797 2.77343,-1.44532 1.69922,-0.54687 3.78907,-0.54687 1.95312,0 3.94531,0.48828 2.01172,0.46875 3.33984,1.15234 v 3.92578 h -0.19531 q -1.40625,-1.03515 -3.41797,-1.73828 -2.01172,-0.72265 -3.94531,-0.72265 -2.01172,0 -3.39844,0.78125 -1.38672,0.76172 -1.38672,2.28515 0,1.34766 0.83985,2.03125 0.82031,0.6836 2.65625,1.11328 1.01562,0.23438 2.26562,0.46875 1.26953,0.23438 2.10938,0.42969 2.55859,0.58594 3.94531,2.01172 1.38672,1.44531 1.38672,3.82813 z"
         id="path4140" />
      <path
         d="m 287.72311,529.64392 q 0,5.33203 -2.73437,8.41797 -2.73438,3.08594 -7.32422,3.08594 -4.62891,0 -7.36328,-3.08594 -2.71484,-3.08594 -2.71484,-8.41797 0,-5.33203 2.71484,-8.41797 2.73437,-3.10547 7.36328,-3.10547 4.58984,0 7.32422,3.10547 2.73437,3.08594 2.73437,8.41797 z m -3.78906,0 q 0,-4.23828 -1.66015,-6.28906 -1.66016,-2.07031 -4.60938,-2.07031 -2.98828,0 -4.64844,2.07031 -1.64062,2.05078 -1.64062,6.28906 0,4.10156 1.66015,6.23047 1.66016,2.10937 4.62891,2.10937 2.92969,0 4.58984,-2.08984 1.67969,-2.10937 1.67969,-6.25 z"
         id="path4142" />
      <path
         d="m 325.24265,540.54236 h -3.67188 v -12.42188 q 0,-1.40625 -0.13672,-2.71484 -0.11719,-1.30859 -0.52734,-2.08984 -0.44922,-0.83985 -1.28906,-1.26954 -0.83985,-0.42968 -2.42188,-0.42968 -1.54297,0 -3.08594,0.78125 -1.54297,0.76172 -3.08593,1.95312 0.0586,0.44922 0.0976,1.05469 0.0391,0.58594 0.0391,1.17187 v 13.96485 h -3.67187 v -12.42188 q 0,-1.44531 -0.13672,-2.73437 -0.11719,-1.3086 -0.52734,-2.08985 -0.44922,-0.83984 -1.28907,-1.25 -0.83984,-0.42968 -2.42187,-0.42968 -1.50391,0 -3.02734,0.74218 -1.50391,0.74219 -3.00782,1.89454 v 16.28906 h -3.67187 v -21.81641 h 3.67187 v 2.42188 q 1.71875,-1.42578 3.41797,-2.22657 1.71875,-0.80078 3.65235,-0.80078 2.22656,0 3.76953,0.9375 1.5625,0.9375 2.32422,2.59766 2.22656,-1.875 4.0625,-2.69531 1.83593,-0.83985 3.92578,-0.83985 3.59375,0 5.29297,2.1875 1.71875,2.16797 1.71875,6.07422 z"
         id="path4144" />
      <path
         d="m 350.57468,530.01501 h -16.07422 q 0,2.01172 0.60547,3.51563 0.60547,1.48437 1.66015,2.44141 1.01563,0.9375 2.40235,1.40625 1.40625,0.46875 3.08593,0.46875 2.22657,0 4.47266,-0.87891 2.26563,-0.89844 3.22266,-1.75781 h 0.19531 v 4.0039 q -1.85547,0.78125 -3.78906,1.3086 -1.9336,0.52734 -4.0625,0.52734 -5.42969,0 -8.47657,-2.92969 -3.04687,-2.94922 -3.04687,-8.35937 0,-5.35156 2.91016,-8.4961 2.92968,-3.14453 7.69531,-3.14453 4.41406,0 6.79687,2.57813 2.40235,2.57812 2.40235,7.32422 z m -3.57422,-2.8125 q -0.0195,-2.89062 -1.46485,-4.47265 -1.42578,-1.58203 -4.35546,-1.58203 -2.94922,0 -4.70704,1.73828 -1.73828,1.73828 -1.97265,4.3164 z"
         id="path4146" />
      <path
         d="m 389.65671,540.54236 h -19.16016 v -29.08203 h 19.16016 v 3.4375 h -15.29297 v 7.96875 h 15.29297 v 3.4375 h -15.29297 v 10.80078 h 15.29297 z"
         id="path4148" />
      <path
         d="m 412.44968,540.54236 h -3.65235 v -2.32422 q -0.48828,0.33203 -1.32812,0.9375 -0.82031,0.58594 -1.60156,0.9375 -0.91797,0.44922 -2.10938,0.74219 -1.19141,0.3125 -2.79297,0.3125 -2.94922,0 -5,-1.95313 -2.05078,-1.95312 -2.05078,-4.98047 0,-2.48047 1.05469,-4.0039 1.07422,-1.54297 3.04687,-2.42188 1.99219,-0.8789 4.78516,-1.1914 2.79297,-0.3125 5.99609,-0.46875 v -0.56641 q 0,-1.25 -0.44922,-2.07031 -0.42968,-0.82032 -1.25,-1.28907 -0.78125,-0.44921 -1.875,-0.60546 -1.09375,-0.15625 -2.28515,-0.15625 -1.44531,0 -3.22266,0.39062 -1.77734,0.37109 -3.67187,1.09375 h -0.19532 v -3.73047 q 1.07422,-0.29297 3.10547,-0.64453 2.03125,-0.35156 4.00391,-0.35156 2.30469,0 4.00391,0.39062 1.71875,0.3711 2.96875,1.28907 1.23046,0.89843 1.875,2.32421 0.64453,1.42579 0.64453,3.53516 z m -3.65235,-5.3711 v -6.07421 q -1.67968,0.0977 -3.96484,0.29296 -2.26563,0.19532 -3.59375,0.56641 -1.58203,0.44922 -2.55859,1.40625 -0.97657,0.9375 -0.97657,2.59766 0,1.875 1.13282,2.83203 1.13281,0.9375 3.45703,0.9375 1.93359,0 3.53515,-0.74219 1.60157,-0.76172 2.96875,-1.81641 z"
         id="path4150" />
      <path
         d="m 433.13327,522.72986 h -0.19531 q -0.82031,-0.19531 -1.60156,-0.27344 -0.76172,-0.0977 -1.81641,-0.0977 -1.69922,0 -3.28125,0.76172 -1.58203,0.74219 -3.04688,1.9336 v 15.48828 h -3.67187 v -21.81641 h 3.67187 v 3.22266 q 2.1875,-1.75781 3.84766,-2.48047 1.67969,-0.74219 3.41797,-0.74219 0.95703,0 1.38672,0.0586 0.42969,0.0391 1.28906,0.17578 z"
         id="path4152" />
      <path
         d="m 447.91843,540.34705 q -1.03516,0.27343 -2.26563,0.44921 -1.21094,0.17579 -2.16797,0.17579 -3.33984,0 -5.07812,-1.79688 -1.73828,-1.79687 -1.73828,-5.76172 v -11.60156 h -2.48047 v -3.08594 h 2.48047 v -6.26953 h 3.67187 v 6.26953 h 7.57813 v 3.08594 h -7.57813 v 9.94141 q 0,1.71875 0.0781,2.69531 0.0781,0.95703 0.54687,1.79687 0.42969,0.78125 1.17188,1.15235 0.76172,0.35156 2.30468,0.35156 0.89844,0 1.875,-0.25391 0.97657,-0.27343 1.40625,-0.44922 h 0.19532 z"
         id="path4154" />
      <path
         d="m 470.59421,540.54236 h -3.67188 v -12.42188 q 0,-1.5039 -0.17578,-2.8125 -0.17578,-1.32812 -0.64453,-2.07031 -0.48828,-0.82031 -1.40625,-1.21094 -0.91797,-0.41015 -2.38281,-0.41015 -1.50391,0 -3.14453,0.74218 -1.64063,0.74219 -3.14453,1.89454 v 16.28906 h -3.67188 v -30.39063 h 3.67188 v 10.9961 q 1.71875,-1.42578 3.55468,-2.22657 1.83594,-0.80078 3.76953,-0.80078 3.53516,0 5.39063,2.12891 1.85547,2.12891 1.85547,6.13281 z"
         id="path4156" />
    </g>
    <g
       id="g4112"
       style="display:inline">
      <path
         style="fill:#d04319"
         d="m 293.22252,392.9946 c -6.02563,-1.26739 -13.78052,-5.72633 -16.76559,-9.63995 -4.41973,-5.79457 -5.76831,-10.96226 -5.83376,-22.35465 -0.15056,-26.2057 9.79876,-37.5029 32.87683,-37.33084 12.04918,0.0898 18.77638,2.6199 24.81026,9.33102 5.49848,6.11564 7.68974,13.29947 7.68974,25.21009 0,16.5285 -5.97261,27.91575 -17.21232,32.81662 -5.90983,2.57687 -18.1792,3.52123 -25.56516,1.96771 z m 22.34693,-11.48243 c 5.63452,-3.30205 8.5957,-9.40512 9.21036,-18.98282 0.88757,-13.83017 -3.20426,-24.00295 -11.09595,-27.58589 -2.81734,-1.27912 -6.48262,-1.90671 -11.22197,-1.9215 -13.83176,-0.0432 -19.80657,5.90732 -21.07902,20.99318 -1.36026,16.12701 4.15013,27.35766 14.73993,30.04125 5.58628,1.41564 14.73123,0.2192 19.44665,-2.54422 z M 362.5,392.79377 c -3.72346,-1.30114 -7.17958,-4.36847 -9.34501,-8.29377 -1.36501,-2.47435 -1.7426,-7.20523 -2.15499,-27 l -0.5,-24 -5.23925,0.2169 c -4.75919,0.19703 -5.29365,1.9e-4 -5.83288,-2.14828 -0.3265,-1.30086 -0.44383,-3.42347 -0.26075,-4.71691 0.28563,-2.0179 0.81059,-2.30495 3.69833,-2.02228 1.851,0.18119 4.49822,0.0451 5.88271,-0.30236 2.43612,-0.61143 2.50057,-0.8396 1.9997,-7.07943 L 350.23031,311 H 357.11515 364 v 6.45469 6.45468 l 3.39922,0.6377 c 1.86958,0.35074 7.71958,0.24265 13,-0.24019 L 390,323.42899 v 5.26471 5.26472 l -12.38534,-0.62772 c -15.8929,-0.80549 -14.97624,-2.21618 -15.05541,23.1693 -0.0532,17.07128 0.14377,19.40605 1.94075,23 1.56071,3.12141 2.79354,4.19611 5.61279,4.89285 4.68482,1.15778 8.47678,0.15306 11.42385,-3.02688 2.1669,-2.33813 2.6583,-2.45674 5.83477,-1.40841 1.90774,0.62961 3.97625,1.75642 4.5967,2.50401 1.74201,2.09899 -4.02089,8.02768 -9.67629,9.95467 -5.21202,1.77591 -15.24256,1.96724 -19.79182,0.37753 z m 59.23447,0.18085 C 406.57504,389.15081 400.5,379.4309 400.5,359 c 0,-13.88818 1.85474,-20.25979 7.76351,-26.67005 9.31382,-10.1043 33.10291,-11.36671 45.46367,-2.41262 6.69269,4.84816 11.50896,17.67115 9.88795,26.326 l -0.60996,3.25667 -23.7238,-0.30289 c -13.04808,-0.16659 -24.80845,-0.0307 -26.13414,0.30207 -2.28874,0.57444 -2.37761,0.88357 -1.76136,6.1269 1.39323,11.85421 6.95048,17.31102 18.45921,18.12559 8.33138,0.58967 14.62005,-1.06296 18.38986,-4.83276 1.6054,-1.6054 3.38552,-2.91891 3.95583,-2.91891 1.57875,0 8.80923,4.25598 8.80923,5.18525 0,1.9501 -8.47659,8.79491 -12.78655,10.32508 -5.53511,1.96514 -21.0844,2.82501 -26.47898,1.46429 z M 444.25,350.34829 c 6.51432,-0.61524 6.75,-0.73203 6.75,-3.34501 0,-3.62694 -3.7103,-8.92997 -8.00131,-11.43606 -4.89258,-2.85741 -17.05702,-2.88745 -21.89624,-0.0541 -4.42253,2.58941 -7.01278,6.15942 -7.74562,10.6754 -0.52783,3.2526 -0.33808,3.68959 1.7761,4.09037 3.79933,0.72021 21.7723,0.76302 29.11707,0.0694 z m 49.48447,42.56366 c -14.86726,-3.50269 -21.2102,-13.49152 -21.21669,-33.41195 -0.006,-18.08962 4.57815,-27.61113 15.68872,-32.58696 4.52545,-2.02671 6.88952,-2.37219 16.2935,-2.38109 9.07979,-0.009 11.79774,0.35675 15.56987,2.0929 4.7699,2.19539 11.93013,8.76487 11.93013,10.94584 0,0.69514 -2.01817,2.03464 -4.48483,2.97667 l -4.48483,1.71277 -3.95551,-3.57356 c -4.39492,-3.97055 -8.73275,-5.23017 -17.21922,-5.00015 -13.0669,0.35418 -18.08291,7.83122 -18.11362,27.00077 -0.0254,15.84666 4.64737,21.68592 18.36605,22.95098 8.23541,0.75941 14.36481,-0.91102 18.4939,-5.04011 l 3.22275,-3.22275 4.58766,2.33151 c 2.52321,1.28233 4.58765,2.55794 4.58765,2.83469 0,0.27675 -1.84199,2.5015 -4.09331,4.9439 -5.61348,6.0899 -12.38487,8.54635 -23.1942,8.41414 -4.51687,-0.0553 -9.90698,-0.49967 -11.97802,-0.9876 z m 68.94933,-0.36076 c -4.84905,-1.72939 -7.54169,-4.1375 -9.56156,-8.55119 -1.26864,-2.77214 -1.70785,-8.38707 -2.11199,-27 L 550.5,333.5 l -5.15854,0.27108 -5.15854,0.27107 -0.67316,-3.98437 c -0.85372,-5.05316 -0.154,-6.13663 3.49222,-5.40738 1.60844,0.32168 4.11706,0.28556 5.5747,-0.0803 2.58212,-0.64807 2.63969,-0.83107 2.2394,-7.11764 L 550.40521,311 l 7.0474,-0.002 7.04739,-0.002 -0.33263,6.44129 -0.33264,6.44128 3.48186,0.6532 c 1.91502,0.35926 7.80221,0.25815 13.08263,-0.22469 L 590,323.42899 v 5.26471 5.26472 l -12.46672,-0.63185 -12.46672,-0.63184 -0.96076,2.527 c -1.62615,4.2771 -2.41848,27.59374 -1.22418,36.02499 1.32765,9.37261 2.51639,11.48206 7.27779,12.91459 4.58412,1.37919 8.2832,0.48699 11.55792,-2.78773 2.53317,-2.53317 2.56552,-2.53727 6.91387,-0.87662 2.40284,0.91765 4.3688,2.25387 4.3688,2.96939 0,2.16779 -7.60772,8.33094 -11.67922,9.46153 -5.21341,1.44768 -14.02074,1.26966 -18.63698,-0.37669 z M 791,393.30808 c -12.83517,-2.15401 -18.93029,-8.60632 -18.97804,-20.0902 -0.0284,-6.84111 1.82999,-11.12596 6.49247,-14.96916 8.3486,-6.88163 28.52213,-8.46117 39.38003,-3.08337 l 5.38141,2.66536 -0.5578,-7.3754 C 821.75327,337.69844 817.75183,334 804.9146,334 c -8.74506,0 -14.29517,2.31586 -17.73537,7.40033 l -2.32078,3.43001 -4.92922,-2.0485 C 777.21815,341.65517 775,340.19935 775,339.54667 c 0,-2.07535 7.07674,-9.54517 10.88204,-11.48649 13.31425,-6.79242 36.59412,-4.22207 42.97953,4.74542 5.04364,7.08313 5.55896,10.62005 6.54823,44.9444 l 0.43953,15.25 h -5.92467 C 824.75087,393 824,392.75689 824,391.08179 c 0,-4.74446 -0.9284,-5.08315 -5.67764,-2.07127 -6.73585,4.27175 -17.44188,5.95571 -27.32236,4.29756 z m 21.58638,-10.43415 c 9.58571,-2.41371 13.6638,-10.95726 7.8168,-16.37608 -3.96231,-3.67215 -9.02746,-5.00144 -18.90318,-4.96094 -9.68712,0.0397 -14.00222,1.48662 -16.9393,5.67988 -3.47695,4.96405 -0.75233,12.65159 5.38871,15.20426 4.26649,1.77347 16.42631,2.01675 22.63697,0.45288 z m 110.56864,9.85208 c -4.51622,-1.4444 -8.51633,-5.65087 -9.96193,-10.47586 C 912.42498,379.68642 912,370.3906 912,356.15303 V 334.0381 l -2.25,-0.50271 c -1.2375,-0.27649 -3.825,-0.39756 -5.75,-0.26905 L 900.5,333.5 v -4.49646 -4.49647 l 3.72713,0.32111 c 2.04992,0.17661 4.69787,0.013 5.88433,-0.36356 2.0013,-0.63518 2.11408,-1.14648 1.5605,-7.07464 L 911.07525,311 h 7.09929 7.09928 l -0.51827,6.45652 -0.51826,6.45652 4.13609,0.62024 c 2.27486,0.34114 8.29191,0.2292 13.37123,-0.24875 l 9.23512,-0.869 -0.40027,5.04224 -0.40028,5.04223 -11.83959,-0.30089 c -6.83401,-0.17368 -12.46892,0.12499 -13.32812,0.70644 -1.23738,0.83736 -1.49047,4.51577 -1.5,21.80089 -0.01,18.14064 0.21791,21.21369 1.78643,24.08652 3.24992,5.95244 11.43595,6.75233 16.77316,1.63896 2.53406,-2.42778 3.04447,-2.5489 6.26391,-1.48639 6.10907,2.01618 6.5013,3.56861 1.98669,7.86326 -2.17734,2.07126 -5.78015,4.31161 -8.00625,4.97856 -4.84751,1.45235 -14.5244,1.42137 -19.16039,-0.0613 z M 151.49451,390.75 c 0.76244,-3.22091 1.0743,-32.78278 0.59867,-56.75 l -0.40681,-20.5 4.40681,-0.67588 c 6.75006,-1.03526 28.68042,-0.93148 35.39173,0.16748 8.7856,1.43862 14.52198,4.7359 17.5057,10.06229 3.42285,6.11031 3.5594,19.3016 0.26469,25.57032 -5.07623,9.65834 -13.00825,12.72854 -33.11335,12.81701 l -13.35805,0.0588 0.39576,15.75 0.39577,15.75 h -6.30677 c -6.03149,0 -6.28352,-0.0982 -5.77415,-2.25 z m 40.05193,-41.35122 c 5.5907,-2.77566 7.71313,-6.21978 7.80633,-12.6675 0.085,-5.88336 -1.64778,-9.56802 -5.7698,-12.26887 -2.87069,-1.88095 -17.81478,-3.5776 -24.51845,-2.78365 l -4.80552,0.56915 -0.6295,6.02273 c -0.86458,8.27183 -0.79201,22.22721 0.1205,23.1751 0.4125,0.42849 5.97494,0.57044 12.36098,0.31545 8.68587,-0.34684 12.57446,-0.94199 15.43546,-2.36241 z m 28.91799,16.39337 C 220.48399,350.78147 220.275,335.6155 220,332.09 c -0.48335,-6.19652 -0.41539,-6.43323 2.04066,-7.10753 1.39737,-0.38364 3.98487,-0.48557 5.75,-0.2265 2.9934,0.43934 3.20934,0.73771 3.20934,4.43445 v 3.96343 l 3.21978,-3.21978 c 1.77088,-1.77088 4.68142,-3.8305 6.46788,-4.57693 4.35146,-1.81815 13.51034,-1.71899 18.09446,0.19591 3.67045,1.53323 9.21788,6.09933 9.21788,7.58725 0,0.42136 -2.05781,1.67638 -4.57292,2.78893 l -4.57292,2.02282 -2.85844,-2.11334 c -2.05275,-1.51766 -4.41969,-2.1359 -8.39745,-2.1934 -6.66037,-0.0963 -9.92443,1.93496 -13.56778,8.44327 -2.66887,4.76756 -2.56327,1.78598 -1.62607,45.91142 l 0.0956,4.5 -6.03557,0.29215 -6.03558,0.29215 0.0356,-27.29215 z M 626,392.27747 c -0.825,-0.31055 -2.52385,-0.9432 -3.77522,-1.40589 -2.20775,-0.81631 -2.10182,-1.05671 3.57224,-8.10642 3.98528,-4.95149 8.30169,-12.36638 13.55395,-23.2835 l 7.70648,-16.01833 -10.17562,-24.48167 C 631.28523,305.51675 625.95536,293.6 625.03767,292.5 c -0.9177,-1.1 -3.59595,-4.92686 -5.95168,-8.50413 -3.58042,-5.43702 -5.45645,-7.15972 -11.43457,-10.5 C 598.46172,268.36111 599,268.53538 599,270.69488 c 0,2.62824 -6.33555,15.46286 -8.64687,17.51693 -1.05941,0.94149 -4.08868,2.66837 -6.7317,3.8375 -3.98748,1.76385 -5.83778,2.00589 -10.86975,1.42187 -3.33533,-0.38711 -7.45642,-1.29131 -9.15796,-2.00934 -13.26065,-5.59582 -17.11145,-28.37496 -6.44104,-38.10153 6.36216,-5.7994 15.48617,-8.38254 23.76203,-6.72737 3.66559,0.73312 12.26259,8.10357 15.57792,13.35538 1.45655,2.30733 4.48823,4.78882 8.39372,6.87042 3.36251,1.7922 6.11365,2.97573 6.11365,2.63008 0,-0.34566 -1.29274,-2.50955 -2.87276,-4.80864 -4.38265,-6.37722 -13.82324,-22.14121 -16.75345,-27.97508 -1.43791,-2.86281 -2.77324,-5.38059 -2.9674,-5.59507 -0.19415,-0.21449 -2.05252,1.28462 -4.1297,3.33135 -4.26723,4.20467 -18.74422,11.89214 -25.6878,13.64055 -6.74744,1.69903 -19.62215,-0.39094 -25.58889,-4.15389 -5.33225,-3.36279 -15.82529,-13.95553 -18.82195,-19.00076 -1.16712,-1.965 -2.72731,-7.365 -3.46709,-12 -1.64828,-10.32726 -0.68049,-15.06088 5.43724,-26.59428 5.34711,-10.08061 8.82419,-13.74166 16.97505,-17.87324 8.14094,-4.12654 14.39887,-5.0396 23.99905,-3.50157 13.09257,2.09754 16.73808,3.74351 24.25089,10.9494 7.62139,7.31005 9.73966,11.25568 11.59223,21.59241 1.92004,10.71325 1.50318,19.89394 -1.11483,24.55206 l -2.18938,3.89547 15.36076,23.08549 c 8.44843,12.69702 15.65174,23.26532 16.00737,23.48511 0.35563,0.21979 0.0407,-2.80457 -0.69978,-6.7208 -1.14485,-6.05459 -1.12306,-9.75319 0.14559,-24.70888 0.82059,-9.67365 2.42966,-22.69749 3.57572,-28.94187 1.14605,-6.24438 1.86942,-11.91192 1.60747,-12.59455 -0.26195,-0.68262 -2.6384,-1.84649 -5.28101,-2.58638 -7.23929,-2.02687 -25.57613,-12.91779 -32.03623,-19.02749 -4.76685,-4.50829 -6.53192,-7.22641 -10.66293,-16.42038 -6.52563,-14.52345 -6.88653,-19.17485 -2.91552,-37.57641 3.95503,-18.3275 6.96071,-23.84507 18.79189,-34.496531 10.98147,-9.886481 15.81791,-11.781111 34.94546,-13.689554 18.68915,-1.864703 24.12085,-0.899995 37.29028,6.623018 8.32415,4.755154 11.14943,6.994831 14.78686,11.72195 5.53692,7.195637 14.04255,25.983557 16.02611,35.399747 1.4175,6.72907 1.37154,7.48327 -1.18739,19.48607 -3.27034,15.33971 -5.99283,19.78634 -19.71916,32.20723 -12.42359,11.24204 -19.93533,15.43162 -29.1967,16.28409 -13.32891,1.22688 -11.78493,-0.69256 -14.3246,17.808 -3.32975,24.25603 -3.02006,37.70706 1.25573,54.53923 1.86162,7.32854 3.53869,13.47496 3.72682,13.65872 0.18813,0.18375 3.51197,-4.46233 7.38632,-10.32462 l 7.04427,-10.65872 -1.44495,-9.75203 -1.44495,-9.75203 -3.7957,-1.02208 C 639.74429,240.58478 637,236.8742 637,231.28822 637,225.14192 641.02139,221 646.98882,221 c 5.18087,0 7.57434,1.25457 9.50083,4.97998 3.05007,5.8982 0.79077,13.84408 -4.4053,15.49325 -1.81186,0.57506 -1.80876,0.80524 0.11214,8.30911 1.0866,4.24471 2.09329,7.83655 2.2371,7.98185 0.5076,0.5129 23.56641,-10.953 23.56641,-11.71829 0,-0.4269 -0.90963,-1.93259 -2.0214,-3.34598 -3.40074,-4.32334 -5.12223,-10.73745 -5.68986,-21.19992 -0.75679,-13.94885 0.59637,-19.51136 7.02026,-28.85848 6.12447,-8.91144 10.37868,-11.9099 23.191,-16.34552 12.86323,-4.45325 16.33243,-4.65904 26.97981,-1.60045 10.66745,3.06436 14.21986,5.65391 22.57828,16.4586 7.78199,10.05955 9.56189,14.37832 10.32465,25.05179 0.53293,7.45737 0.31204,9.53691 -1.54017,14.5 -2.37621,6.36716 -10.79959,18.98167 -16.0159,23.98475 C 738.26058,259.07013 724.6571,264 717.13855,264 707.2315,264 687.22069,257.04051 683.5,252.30098 c -0.77527,-0.98757 -3.79091,0.24003 -13.41908,5.46259 l -12.41908,6.73643 -8.19258,14.49816 -8.19259,14.49816 3.22453,7.00184 c 1.77348,3.85101 7.03768,15.10184 11.6982,25.00184 7.30614,15.51988 8.7839,19.58452 10.72512,29.5 1.23829,6.325 3.56184,17.04117 5.16346,23.81371 1.60161,6.77255 2.91202,12.73505 2.91202,13.25 0,1.00024 -46.37322,1.20254 -49,0.21376 z M 710.45547,352.49755 710.41095,312 l 18.79452,-0.21875 c 10.33699,-0.12031 21.83203,-0.23281 25.54453,-0.25 l 6.75,-0.0312 0.30005,6.34001 0.30006,6.34001 -7.30006,-0.65337 c -10.98889,-0.98352 -31.51878,-1.13379 -32.41925,-0.23729 -0.43607,0.43415 -0.81264,5.60915 -0.83682,11.5 L 721.5,345.5 l 19.25,0.27159 19.25,0.2716 5.9e-4,5.7284 5.9e-4,5.72841 H 740.75059 721.5 l 0.026,11.72596 c 0.0163,7.34933 0.44771,12.14771 1.15592,12.85592 0.83993,0.83993 5.9169,0.83991 19.78054,-6e-5 10.25783,-0.6215 19.07517,-0.8676 19.59409,-0.54689 0.51892,0.32071 0.94349,3.03155 0.94349,6.02409 V 393 l -26.25,-0.002 -26.25,-0.002 -0.0445,-40.49756 z M 847.43714,390.75 c 2.05807,-6.9073 1.57215,-53.76099 -0.6621,-63.84058 -0.35811,-1.61559 5.61885,-2.90538 9.05932,-1.95494 2.38778,0.65964 2.64583,1.17026 2.47555,4.89864 l -0.19009,4.16224 3.30179,-3.50092 c 1.81599,-1.92551 4.92458,-4.17897 6.90798,-5.00768 4.47766,-1.87089 13.67225,-1.95196 17.95253,-0.1583 3.3904,1.42076 9.71788,6.33094 9.71788,7.54117 0,0.39151 -2.07935,1.72207 -4.62078,2.95679 -4.29492,2.08663 -4.74826,2.12958 -6.42843,0.60905 -0.99421,-0.89975 -3.67038,-2.05443 -5.94705,-2.56596 -9.14944,-2.05575 -16.82439,3.32132 -18.98027,13.29757 -0.82051,3.79685 -0.89871,10.87736 -0.27406,24.81292 0.48074,10.725 0.70723,19.8375 0.50331,20.25 -0.20391,0.4125 -3.32168,0.75 -6.92837,0.75 -6.33246,0 -6.53459,-0.0772 -5.88721,-2.25 z M 962.5,352 v -41 h 5.75 5.75 v 12.31616 12.31616 l 4.7569,-4.58503 c 5.66276,-5.45819 10.29106,-7.05527 20.35912,-7.02533 8.65338,0.0257 14.12728,2.10157 18.15068,6.88316 4.948,5.88031 5.7333,11.05485 5.7333,37.77638 V 393 h -7.1135 -7.1135 l 0.6153,-3.25 c 0.3383,-1.7875 0.9015,-12.26968 1.2515,-23.29373 0.5971,-18.80914 0.51,-20.32923 -1.4141,-24.679 -2.7812,-6.28736 -6.5326,-8.18699 -14.84942,-7.5194 -7.68492,0.61687 -12.50782,3.38711 -15.80656,9.07916 -3.70314,6.38986 -4.7575,14.28536 -4.39536,32.9143 l 0.32564,16.75134 -6,-0.001 -6,-10e-4 v -41 z"
         id="path4126" />
      <path
         style="fill:#4b4b4b"
         d="m 293.22252,392.9946 c -6.02563,-1.26739 -13.78052,-5.72633 -16.76559,-9.63995 -4.41973,-5.79457 -5.76831,-10.96226 -5.83376,-22.35465 -0.15056,-26.2057 9.79876,-37.5029 32.87683,-37.33084 12.04918,0.0898 18.77638,2.6199 24.81026,9.33102 5.49848,6.11564 7.68974,13.29947 7.68974,25.21009 0,16.5285 -5.97261,27.91575 -17.21232,32.81662 -5.90983,2.57687 -18.1792,3.52123 -25.56516,1.96771 z m 22.34693,-11.48243 c 5.63452,-3.30205 8.5957,-9.40512 9.21036,-18.98282 0.88757,-13.83017 -3.20426,-24.00295 -11.09595,-27.58589 -2.81734,-1.27912 -6.48262,-1.90671 -11.22197,-1.9215 -13.83176,-0.0432 -19.80657,5.90732 -21.07902,20.99318 -1.36026,16.12701 4.15013,27.35766 14.73993,30.04125 5.58628,1.41564 14.73123,0.2192 19.44665,-2.54422 z M 362.5,392.79377 c -3.72346,-1.30114 -7.17958,-4.36847 -9.34501,-8.29377 -1.36501,-2.47435 -1.7426,-7.20523 -2.15499,-27 l -0.5,-24 -5.23925,0.2169 c -4.75919,0.19703 -5.29365,1.9e-4 -5.83288,-2.14828 -0.3265,-1.30086 -0.44383,-3.42347 -0.26075,-4.71691 0.28563,-2.0179 0.81059,-2.30495 3.69833,-2.02228 1.851,0.18119 4.49822,0.0451 5.88271,-0.30236 2.43612,-0.61143 2.50057,-0.8396 1.9997,-7.07943 L 350.23031,311 H 357.11515 364 v 6.45469 6.45468 l 3.39922,0.6377 c 1.86958,0.35074 7.71958,0.24265 13,-0.24019 L 390,323.42899 v 5.26471 5.26472 l -12.38534,-0.62772 c -15.8929,-0.80549 -14.97624,-2.21618 -15.05541,23.1693 -0.0532,17.07128 0.14377,19.40605 1.94075,23 1.56071,3.12141 2.79354,4.19611 5.61279,4.89285 4.68482,1.15778 8.47678,0.15306 11.42385,-3.02688 2.1669,-2.33813 2.6583,-2.45674 5.83477,-1.40841 1.90774,0.62961 3.97625,1.75642 4.5967,2.50401 1.74201,2.09899 -4.02089,8.02768 -9.67629,9.95467 -5.21202,1.77591 -15.24256,1.96724 -19.79182,0.37753 z m 59.23447,0.18085 C 406.57504,389.15081 400.5,379.4309 400.5,359 c 0,-13.88818 1.85474,-20.25979 7.76351,-26.67005 9.31382,-10.1043 33.10291,-11.36671 45.46367,-2.41262 6.69269,4.84816 11.50896,17.67115 9.88795,26.326 l -0.60996,3.25667 -23.7238,-0.30289 c -13.04808,-0.16659 -24.80845,-0.0307 -26.13414,0.30207 -2.28874,0.57444 -2.37761,0.88357 -1.76136,6.1269 1.39323,11.85421 6.95048,17.31102 18.45921,18.12559 8.33138,0.58967 14.62005,-1.06296 18.38986,-4.83276 1.6054,-1.6054 3.38552,-2.91891 3.95583,-2.91891 1.57875,0 8.80923,4.25598 8.80923,5.18525 0,1.9501 -8.47659,8.79491 -12.78655,10.32508 -5.53511,1.96514 -21.0844,2.82501 -26.47898,1.46429 z M 444.25,350.34829 c 6.51432,-0.61524 6.75,-0.73203 6.75,-3.34501 0,-3.62694 -3.7103,-8.92997 -8.00131,-11.43606 -4.89258,-2.85741 -17.05702,-2.88745 -21.89624,-0.0541 -4.42253,2.58941 -7.01278,6.15942 -7.74562,10.6754 -0.52783,3.2526 -0.33808,3.68959 1.7761,4.09037 3.79933,0.72021 21.7723,0.76302 29.11707,0.0694 z m 49.48447,42.56366 c -14.86726,-3.50269 -21.2102,-13.49152 -21.21669,-33.41195 -0.006,-18.08962 4.57815,-27.61113 15.68872,-32.58696 4.52545,-2.02671 6.88952,-2.37219 16.2935,-2.38109 9.07979,-0.009 11.79774,0.35675 15.56987,2.0929 4.7699,2.19539 11.93013,8.76487 11.93013,10.94584 0,0.69514 -2.01817,2.03464 -4.48483,2.97667 l -4.48483,1.71277 -3.95551,-3.57356 c -4.39492,-3.97055 -8.73275,-5.23017 -17.21922,-5.00015 -13.0669,0.35418 -18.08291,7.83122 -18.11362,27.00077 -0.0254,15.84666 4.64737,21.68592 18.36605,22.95098 8.23541,0.75941 14.36481,-0.91102 18.4939,-5.04011 l 3.22275,-3.22275 4.58766,2.33151 c 2.52321,1.28233 4.58765,2.55794 4.58765,2.83469 0,0.27675 -1.84199,2.5015 -4.09331,4.9439 -5.61348,6.0899 -12.38487,8.54635 -23.1942,8.41414 -4.51687,-0.0553 -9.90698,-0.49967 -11.97802,-0.9876 z m 68.94933,-0.36076 c -4.84905,-1.72939 -7.54169,-4.1375 -9.56156,-8.55119 -1.26864,-2.77214 -1.70785,-8.38707 -2.11199,-27 L 550.5,333.5 l -5.15854,0.27108 -5.15854,0.27107 -0.67316,-3.98437 c -0.85372,-5.05316 -0.154,-6.13663 3.49222,-5.40738 1.60844,0.32168 4.11706,0.28556 5.5747,-0.0803 2.58212,-0.64807 2.63969,-0.83107 2.2394,-7.11764 L 550.40521,311 l 7.0474,-0.002 7.04739,-0.002 -0.33263,6.44129 -0.33264,6.44128 3.48186,0.6532 c 1.91502,0.35926 7.80221,0.25815 13.08263,-0.22469 L 590,323.42899 v 5.26471 5.26472 l -12.46672,-0.63185 -12.46672,-0.63184 -0.96076,2.527 c -1.62615,4.2771 -2.41848,27.59374 -1.22418,36.02499 1.32765,9.37261 2.51639,11.48206 7.27779,12.91459 4.58412,1.37919 8.2832,0.48699 11.55792,-2.78773 2.53317,-2.53317 2.56552,-2.53727 6.91387,-0.87662 2.40284,0.91765 4.3688,2.25387 4.3688,2.96939 0,2.16779 -7.60772,8.33094 -11.67922,9.46153 -5.21341,1.44768 -14.02074,1.26966 -18.63698,-0.37669 z M 791,393.30808 c -12.83517,-2.15401 -18.93029,-8.60632 -18.97804,-20.0902 -0.0284,-6.84111 1.82999,-11.12596 6.49247,-14.96916 8.3486,-6.88163 28.52213,-8.46117 39.38003,-3.08337 l 5.38141,2.66536 -0.5578,-7.3754 C 821.75327,337.69844 817.75183,334 804.9146,334 c -8.74506,0 -14.29517,2.31586 -17.73537,7.40033 l -2.32078,3.43001 -4.92922,-2.0485 C 777.21815,341.65517 775,340.19935 775,339.54667 c 0,-2.07535 7.07674,-9.54517 10.88204,-11.48649 13.31425,-6.79242 36.59412,-4.22207 42.97953,4.74542 5.04364,7.08313 5.55896,10.62005 6.54823,44.9444 l 0.43953,15.25 h -5.92467 C 824.75087,393 824,392.75689 824,391.08179 c 0,-4.74446 -0.9284,-5.08315 -5.67764,-2.07127 -6.73585,4.27175 -17.44188,5.95571 -27.32236,4.29756 z m 21.58638,-10.43415 c 9.58571,-2.41371 13.6638,-10.95726 7.8168,-16.37608 -3.96231,-3.67215 -9.02746,-5.00144 -18.90318,-4.96094 -9.68712,0.0397 -14.00222,1.48662 -16.9393,5.67988 -3.47695,4.96405 -0.75233,12.65159 5.38871,15.20426 4.26649,1.77347 16.42631,2.01675 22.63697,0.45288 z m 110.56864,9.85208 c -4.51622,-1.4444 -8.51633,-5.65087 -9.96193,-10.47586 C 912.42498,379.68642 912,370.3906 912,356.15303 V 334.0381 l -2.25,-0.50271 c -1.2375,-0.27649 -3.825,-0.39756 -5.75,-0.26905 L 900.5,333.5 v -4.49646 -4.49647 l 3.72713,0.32111 c 2.04992,0.17661 4.69787,0.013 5.88433,-0.36356 2.0013,-0.63518 2.11408,-1.14648 1.5605,-7.07464 L 911.07525,311 h 7.09929 7.09928 l -0.51827,6.45652 -0.51826,6.45652 4.13609,0.62024 c 2.27486,0.34114 8.29191,0.2292 13.37123,-0.24875 l 9.23512,-0.869 -0.40027,5.04224 -0.40028,5.04223 -11.83959,-0.30089 c -6.83401,-0.17368 -12.46892,0.12499 -13.32812,0.70644 -1.23738,0.83736 -1.49047,4.51577 -1.5,21.80089 -0.01,18.14064 0.21791,21.21369 1.78643,24.08652 3.24992,5.95244 11.43595,6.75233 16.77316,1.63896 2.53406,-2.42778 3.04447,-2.5489 6.26391,-1.48639 6.10907,2.01618 6.5013,3.56861 1.98669,7.86326 -2.17734,2.07126 -5.78015,4.31161 -8.00625,4.97856 -4.84751,1.45235 -14.5244,1.42137 -19.16039,-0.0613 z M 151.49451,390.75 c 0.76244,-3.22091 1.0743,-32.78278 0.59867,-56.75 l -0.40681,-20.5 4.40681,-0.67588 c 6.75006,-1.03526 28.68042,-0.93148 35.39173,0.16748 8.7856,1.43862 14.52198,4.7359 17.5057,10.06229 3.42285,6.11031 3.5594,19.3016 0.26469,25.57032 -5.07623,9.65834 -13.00825,12.72854 -33.11335,12.81701 l -13.35805,0.0588 0.39576,15.75 0.39577,15.75 h -6.30677 c -6.03149,0 -6.28352,-0.0982 -5.77415,-2.25 z m 40.05193,-41.35122 c 5.5907,-2.77566 7.71313,-6.21978 7.80633,-12.6675 0.085,-5.88336 -1.64778,-9.56802 -5.7698,-12.26887 -2.87069,-1.88095 -17.81478,-3.5776 -24.51845,-2.78365 l -4.80552,0.56915 -0.6295,6.02273 c -0.86458,8.27183 -0.79201,22.22721 0.1205,23.1751 0.4125,0.42849 5.97494,0.57044 12.36098,0.31545 8.68587,-0.34684 12.57446,-0.94199 15.43546,-2.36241 z m 28.91799,16.39337 C 220.48399,350.78147 220.275,335.6155 220,332.09 c -0.48335,-6.19652 -0.41539,-6.43323 2.04066,-7.10753 1.39737,-0.38364 3.98487,-0.48557 5.75,-0.2265 2.9934,0.43934 3.20934,0.73771 3.20934,4.43445 v 3.96343 l 3.21978,-3.21978 c 1.77088,-1.77088 4.68142,-3.8305 6.46788,-4.57693 4.35146,-1.81815 13.51034,-1.71899 18.09446,0.19591 3.67045,1.53323 9.21788,6.09933 9.21788,7.58725 0,0.42136 -2.05781,1.67638 -4.57292,2.78893 l -4.57292,2.02282 -2.85844,-2.11334 c -2.05275,-1.51766 -4.41969,-2.1359 -8.39745,-2.1934 -6.66037,-0.0963 -9.92443,1.93496 -13.56778,8.44327 -2.66887,4.76756 -2.56327,1.78598 -1.62607,45.91142 l 0.0956,4.5 -6.03557,0.29215 -6.03558,0.29215 0.0356,-27.29215 z M 626,392.27747 c -0.825,-0.31055 -2.52385,-0.9432 -3.77522,-1.40589 -2.20775,-0.81631 -2.10182,-1.05671 3.57224,-8.10642 3.98528,-4.95149 8.30169,-12.36638 13.55395,-23.2835 l 7.70648,-16.01833 -10.17562,-24.48167 C 631.28523,305.51675 625.95536,293.6 625.03767,292.5 c -0.9177,-1.1 -3.59595,-4.92686 -5.95168,-8.50413 -3.99939,-6.07325 -8.6002,-9.62371 -19.1251,-14.75891 -0.29651,-0.14467 -1.0708,1.65533 -1.72065,4 -2.06638,7.45558 -6.8432,14.51072 -11.50241,16.98852 -4.09208,2.1762 -10.73783,3.99941 -10.73783,2.94584 0,-0.28261 0.68979,-1.27605 1.53287,-2.20764 1.40045,-1.54748 1.26513,-1.80471 -1.56638,-2.97756 -2.8666,-1.18739 -3.07918,-1.61 -2.83197,-5.63005 0.23013,-3.74223 -0.18886,-4.81692 -3.01458,-7.73233 l -3.28186,-3.38602 1.97733,-3.87589 c 1.96973,-3.861 1.96973,-3.89069 1.5e-4,-7.7298 l -1.97717,-3.85391 2.66026,-2.77671 2.66025,-2.7767 -2.12452,-1.48807 c -1.84616,-1.29311 -1.91137,-1.56987 -0.49766,-2.11236 8.0342,-3.08301 20.45498,3.09552 26.99013,13.42582 1.41582,2.23803 4.50538,4.75442 8.3595,6.80864 3.36251,1.7922 6.11365,2.97573 6.11365,2.63008 0,-0.34566 -1.29274,-2.50955 -2.87276,-4.80864 -4.58943,-6.67811 -13.89933,-22.28573 -17.23513,-28.8939 -2.23661,-4.43072 -2.83185,-6.60628 -2.19684,-8.02939 0.72817,-1.63188 3.39794,1.84568 16.27924,21.20481 8.47453,12.73625 15.6992,23.33664 16.05483,23.55643 0.35563,0.21979 0.0407,-2.80457 -0.69978,-6.7208 -1.14485,-6.05459 -1.12306,-9.75319 0.14559,-24.70888 0.82059,-9.67365 2.42966,-22.69749 3.57572,-28.94187 1.14605,-6.24438 1.86942,-11.91192 1.60747,-12.59455 -0.26195,-0.68262 -2.6384,-1.84649 -5.28101,-2.58638 -7.23929,-2.02687 -25.57613,-12.91779 -32.03623,-19.02749 -4.76685,-4.50829 -6.53192,-7.22641 -10.66293,-16.42038 -6.52563,-14.52345 -6.88653,-19.17485 -2.91552,-37.57641 3.95503,-18.3275 6.96071,-23.84507 18.79189,-34.496531 10.98147,-9.886481 15.81791,-11.781111 34.94546,-13.689554 18.68915,-1.864703 24.12085,-0.899995 37.29028,6.623018 8.32415,4.755154 11.14943,6.994831 14.78686,11.72195 5.53692,7.195637 14.04255,25.983557 16.02611,35.399747 1.4175,6.72907 1.37154,7.48327 -1.18739,19.48607 -3.27034,15.33971 -5.99283,19.78634 -19.71916,32.20723 -12.42359,11.24204 -19.93533,15.43162 -29.1967,16.28409 -13.32891,1.22688 -11.78493,-0.69256 -14.3246,17.808 -3.32975,24.25603 -3.02006,37.70706 1.25573,54.53923 1.86162,7.32854 3.53869,13.47496 3.72682,13.65872 0.18813,0.18375 3.51197,-4.46233 7.38632,-10.32462 l 7.04427,-10.65872 -1.44495,-9.75203 -1.44495,-9.75203 -3.7957,-1.02208 C 639.74429,240.58478 637,236.8742 637,231.28822 637,225.14192 641.02139,221 646.98882,221 c 5.18087,0 7.57434,1.25457 9.50083,4.97998 3.05007,5.8982 0.79077,13.84408 -4.4053,15.49325 -1.81186,0.57506 -1.80876,0.80524 0.11214,8.30911 1.0866,4.24471 2.09329,7.83655 2.2371,7.98185 0.5076,0.5129 23.56641,-10.953 23.56641,-11.71829 0,-0.4269 -0.90963,-1.93259 -2.0214,-3.34598 -3.40074,-4.32334 -5.12223,-10.73745 -5.68986,-21.19992 -0.75679,-13.94885 0.59637,-19.51136 7.02026,-28.85848 6.12447,-8.91144 10.37868,-11.9099 23.191,-16.34552 12.86323,-4.45325 16.33243,-4.65904 26.97981,-1.60045 10.66745,3.06436 14.21986,5.65391 22.57828,16.4586 7.78199,10.05955 9.56189,14.37832 10.32465,25.05179 0.53293,7.45737 0.31204,9.53691 -1.54017,14.5 -2.37621,6.36716 -10.79959,18.98167 -16.0159,23.98475 C 738.26058,259.07013 724.6571,264 717.13855,264 707.2315,264 687.22069,257.04051 683.5,252.30098 c -0.77527,-0.98757 -3.79091,0.24003 -13.41908,5.46259 l -12.41908,6.73643 -8.19258,14.49816 -8.19259,14.49816 3.22453,7.00184 c 1.77348,3.85101 7.03768,15.10184 11.6982,25.00184 7.30614,15.51988 8.7839,19.58452 10.72512,29.5 1.23829,6.325 3.56184,17.04117 5.16346,23.81371 1.60161,6.77255 2.91202,12.73505 2.91202,13.25 0,1.00024 -46.37322,1.20254 -49,0.21376 z M 710.45547,352.49755 710.41095,312 l 18.79452,-0.21875 c 10.33699,-0.12031 21.83203,-0.23281 25.54453,-0.25 l 6.75,-0.0312 0.30005,6.34001 0.30006,6.34001 -7.30006,-0.65337 c -10.98889,-0.98352 -31.51878,-1.13379 -32.41925,-0.23729 -0.43607,0.43415 -0.81264,5.60915 -0.83682,11.5 L 721.5,345.5 l 19.25,0.27159 19.25,0.2716 5.9e-4,5.7284 5.9e-4,5.72841 H 740.75059 721.5 l 0.026,11.72596 c 0.0163,7.34933 0.44771,12.14771 1.15592,12.85592 0.83993,0.83993 5.9169,0.83991 19.78054,-6e-5 10.25783,-0.6215 19.07517,-0.8676 19.59409,-0.54689 0.51892,0.32071 0.94349,3.03155 0.94349,6.02409 V 393 l -26.25,-0.002 -26.25,-0.002 -0.0445,-40.49756 z M 847.43714,390.75 c 2.05807,-6.9073 1.57215,-53.76099 -0.6621,-63.84058 -0.35811,-1.61559 5.61885,-2.90538 9.05932,-1.95494 2.38778,0.65964 2.64583,1.17026 2.47555,4.89864 l -0.19009,4.16224 3.30179,-3.50092 c 1.81599,-1.92551 4.92458,-4.17897 6.90798,-5.00768 4.47766,-1.87089 13.67225,-1.95196 17.95253,-0.1583 3.3904,1.42076 9.71788,6.33094 9.71788,7.54117 0,0.39151 -2.07935,1.72207 -4.62078,2.95679 -4.29492,2.08663 -4.74826,2.12958 -6.42843,0.60905 -0.99421,-0.89975 -3.67038,-2.05443 -5.94705,-2.56596 -9.14944,-2.05575 -16.82439,3.32132 -18.98027,13.29757 -0.82051,3.79685 -0.89871,10.87736 -0.27406,24.81292 0.48074,10.725 0.70723,19.8375 0.50331,20.25 -0.20391,0.4125 -3.32168,0.75 -6.92837,0.75 -6.33246,0 -6.53459,-0.0772 -5.88721,-2.25 z M 962.5,352 v -41 h 5.75 5.75 v 12.31616 12.31616 l 4.7569,-4.58503 c 5.66276,-5.45819 10.29106,-7.05527 20.35912,-7.02533 8.65338,0.0257 14.12728,2.10157 18.15068,6.88316 4.948,5.88031 5.7333,11.05485 5.7333,37.77638 V 393 h -7.1135 -7.1135 l 0.6153,-3.25 c 0.3383,-1.7875 0.9015,-12.26968 1.2515,-23.29373 0.5971,-18.80914 0.51,-20.32923 -1.4141,-24.679 -2.7812,-6.28736 -6.5326,-8.18699 -14.84942,-7.5194 -7.68492,0.61687 -12.50782,3.38711 -15.80656,9.07916 -3.70314,6.38986 -4.7575,14.28536 -4.39536,32.9143 l 0.32564,16.75134 -6,-0.001 -6,-10e-4 v -41 z"
         id="path4124" />
      <path
         style="fill:#3b018f"
         d="m 647.38513,390.25 c 0.28595,-0.9625 3.28254,-12.00673 6.6591,-24.54272 l 6.1392,-22.79273 -11.09172,-23.22253 C 642.99127,306.91963 638,296.11422 638,295.68 c 0,-0.43422 3.65675,-7.08348 8.12612,-14.77613 8.70733,-14.98702 8.31026,-13.45727 6.46422,-24.90387 -0.31045,-1.925 0.13697,-0.97909 0.99427,2.10203 l 1.55874,5.60203 12.64061,-6.89765 c 6.95234,-3.79371 12.77586,-7.03289 12.94114,-7.19818 0.16529,-0.16529 -1.49595,-2.94746 -3.69164,-6.18261 -5.23739,-7.71677 -6.37923,-13.29184 -5.86792,-28.65026 l 0.41692,-12.52344 5.38119,-8.19655 c 6.44405,-9.81548 10.54704,-12.87865 23.55988,-17.58911 11.81965,-4.27854 17.99378,-4.51898 28.65539,-1.11596 9.3293,2.97778 13.11956,5.85136 20.86368,15.8178 8.57444,11.03504 9.9595,14.81731 9.94763,27.16481 -0.0111,11.53755 -1.30089,15.2563 -9.14721,26.3731 -6.20226,8.78748 -11.31786,12.77819 -20.98472,16.37029 -7.19281,2.67278 -9.19495,3.02034 -14.3583,2.49253 -11.44759,-1.1702 -25.74892,-6.28643 -31.69457,-11.33857 -1.51019,-1.28323 -3.0351,-0.72876 -14.01481,5.09595 l -12.32025,6.53585 -8.30169,14.70064 -8.30168,14.70064 1.98972,4.61833 c 1.09435,2.54008 6.29928,13.70344 11.5665,24.80746 L 664,342.87826 V 367.43913 392 h -8.56739 c -7.69081,0 -8.51419,-0.17905 -8.04748,-1.75 z M 577.8,291.8 c 1.82258,-1.82258 1.4823,-2.60266 -1.89777,-4.35056 -2.85612,-1.47696 -3.06261,-1.92748 -2.64716,-5.77568 0.38783,-3.59236 0.0301,-4.62214 -2.56818,-7.39257 l -3.01877,-3.21881 1.73741,-3.85289 c 1.6938,-3.75618 1.68209,-3.94666 -0.46649,-7.58824 l -2.20391,-3.73535 2.88243,-3.01723 c 2.7288,-2.85641 2.78548,-3.08847 1.06342,-4.35366 -1.73931,-1.27787 -1.72893,-1.36502 0.23692,-1.98895 3.24454,-1.02978 11.24638,0.55953 15.1244,3.00397 4.21906,2.65941 9.72351,8.72379 11.02469,12.14616 3.34204,8.79023 -1.63965,22.19913 -10.43,28.07381 -4.71702,3.15243 -11.51683,4.72984 -8.83699,2.05 z m 52.77532,-19.00491 -3.81258,-16.20492 0.68007,-16.04508 c 0.58559,-13.81605 1.72178,-24.45028 4.09153,-38.29509 0.44545,-2.60248 0.22008,-3.25 -1.13121,-3.25 -8.16161,0 -33.10827,-12.63115 -42.11209,-21.32246 -4.14255,-3.99877 -6.24101,-7.31151 -10.25,-16.18124 -4.77582,-10.56628 -5.04077,-11.59614 -5.03587,-19.57468 0.006,-10.53714 3.67659,-28.16708 7.68619,-36.92162 2.47584,-5.405738 4.57929,-7.931875 12.49467,-15.005451 8.14437,-7.27821 10.51299,-8.821261 16.41582,-10.694188 9.05417,-2.872829 25.77487,-4.711982 36.16975,-3.978404 7.90563,0.557908 8.85231,0.893943 19.38887,6.882295 8.938,5.079831 11.89371,7.357979 15.30397,11.795748 5.40135,7.02875 13.48245,25.15683 15.57128,34.93057 1.59428,7.45967 1.57879,7.75258 -1.06803,20.19944 -3.22504,15.16596 -5.89976,19.51805 -19.62156,31.9266 -12.8029,11.5776 -19.24819,14.9742 -30.68179,16.169 -5.04039,0.52672 -9.4784,1.25393 -9.86225,1.61603 -1.89367,1.78638 -4.80158,28.21979 -4.79134,43.5542 0.01,14.89941 0.25308,17.03928 3.25,28.60416 3.00063,11.57919 3.66653,18 1.86677,18 -0.4068,0 -2.45529,-7.29221 -4.5522,-16.20491 z m -25.46288,-19.33302 c -9.00345,-14.04587 -16.16862,-25.73923 -15.9226,-25.98525 0.73303,-0.73302 31.60044,45.83939 32.34331,48.79923 0.37602,1.49817 0.51841,2.72395 0.31643,2.72395 -0.20198,0 -7.7337,-11.49207 -16.73714,-25.53793 z m 45.96651,-3.0454 c 0.048,-1.16495 0.28494,-1.4019 0.60416,-0.60417 0.28887,0.72187 0.25335,1.58437 -0.0789,1.91667 -0.33229,0.33229 -0.56864,-0.25834 -0.52522,-1.3125 z m -9.30381,-9.97547 C 638.2312,238.51797 637,236.08082 637,230.98882 637,225.15837 641.15837,221 646.98882,221 c 5.18087,0 7.57434,1.25457 9.50083,4.97998 2.64842,5.12148 1.97739,9.40277 -2.02445,12.91643 -3.96059,3.47744 -8.18185,3.9913 -12.69006,1.54479 z"
         id="path4122" />
      <path
         style="fill:#24a001"
         d="m 647.38513,390.25 c 0.28595,-0.9625 3.28254,-12.00673 6.6591,-24.54272 l 6.1392,-22.79273 -11.09172,-23.22253 C 642.99127,306.91963 638,296.11422 638,295.68 c 0,-0.43422 3.65675,-7.08348 8.12612,-14.77613 8.70733,-14.98702 8.31026,-13.45727 6.46422,-24.90387 -0.31045,-1.925 0.13697,-0.97909 0.99427,2.10203 l 1.55874,5.60203 12.64061,-6.89765 c 6.95234,-3.79371 12.77586,-7.03289 12.94114,-7.19818 0.16529,-0.16529 -1.49595,-2.94746 -3.69164,-6.18261 -5.23739,-7.71677 -6.37923,-13.29184 -5.86792,-28.65026 l 0.41692,-12.52344 5.38119,-8.19655 c 6.32592,-9.63555 10.14395,-12.52101 22.37557,-16.91022 l 8.83921,-3.17189 3.92947,3.1122 3.92947,3.1122 -5.92324,4.53599 -5.92324,4.536 2.65456,7.39545 2.65455,7.39545 7,2.03439 c 3.85,1.11892 7.7875,2.26062 8.75,2.53711 1.37489,0.39497 1.75236,1.61362 1.76101,5.68534 0.0229,10.77454 0.72073,12.42591 7.07437,16.74059 3.19269,2.16811 6.22079,3.94202 6.72912,3.94202 0.50833,0 3.22383,-1.83096 6.03444,-4.0688 l 5.1102,-4.0688 2.18134,4.48984 2.18133,4.48985 -5.4109,7.89685 c -7.25762,10.59199 -10.93956,13.58557 -21.33678,17.34772 -7.48466,2.70827 -9.56613,3.07211 -14.35501,2.50927 -11.57522,-1.36044 -25.61851,-6.44139 -31.41369,-11.36567 -1.51019,-1.28323 -3.0351,-0.72876 -14.01481,5.09595 l -12.32025,6.53585 -8.30169,14.70064 -8.30168,14.70064 1.98972,4.61833 c 1.09435,2.54008 6.29928,13.70344 11.5665,24.80746 L 664,342.87826 V 367.43913 392 h -8.56739 c -7.69081,0 -8.51419,-0.17905 -8.04748,-1.75 z M 577.8,291.8 c 1.82258,-1.82258 1.4823,-2.60266 -1.89777,-4.35056 -2.85612,-1.47696 -3.06261,-1.92748 -2.64716,-5.77568 0.38783,-3.59236 0.0301,-4.62214 -2.56818,-7.39257 l -3.01877,-3.21881 1.73741,-3.85289 c 1.6938,-3.75618 1.68209,-3.94666 -0.46649,-7.58824 l -2.20391,-3.73535 2.88243,-3.01723 c 2.7288,-2.85641 2.78548,-3.08847 1.06342,-4.35366 -1.73931,-1.27787 -1.72893,-1.36502 0.23692,-1.98895 3.24454,-1.02978 11.24638,0.55953 15.1244,3.00397 4.21906,2.65941 9.72351,8.72379 11.02469,12.14616 3.34204,8.79023 -1.63965,22.19913 -10.43,28.07381 -4.71702,3.15243 -11.51683,4.72984 -8.83699,2.05 z m 52.77532,-19.00491 -3.81258,-16.20492 0.68007,-16.04508 c 0.58559,-13.81605 1.72178,-24.45028 4.09153,-38.29509 0.44545,-2.60248 0.22008,-3.25 -1.13121,-3.25 -8.16161,0 -33.10827,-12.63115 -42.11209,-21.32246 -4.14255,-3.99877 -6.24101,-7.31151 -10.25,-16.18124 -4.77582,-10.56628 -5.04077,-11.59614 -5.03587,-19.57468 0.006,-10.53714 3.67659,-28.16708 7.68619,-36.92162 2.47584,-5.405738 4.57929,-7.931875 12.49467,-15.005451 8.14437,-7.27821 10.51299,-8.821261 16.41582,-10.694188 9.05417,-2.872829 25.77487,-4.711982 36.16975,-3.978404 7.90563,0.557908 8.85231,0.893943 19.38887,6.882295 8.938,5.079831 11.89371,7.357979 15.30397,11.795748 5.40135,7.02875 13.48245,25.15683 15.57128,34.93057 1.59428,7.45967 1.57879,7.75258 -1.06803,20.19944 -3.22504,15.16596 -5.89976,19.51805 -19.62156,31.9266 -12.8029,11.5776 -19.24819,14.9742 -30.68179,16.169 -5.04039,0.52672 -9.4784,1.25393 -9.86225,1.61603 -1.89367,1.78638 -4.80158,28.21979 -4.79134,43.5542 0.01,14.89941 0.25308,17.03928 3.25,28.60416 3.00063,11.57919 3.66653,18 1.86677,18 -0.4068,0 -2.45529,-7.29221 -4.5522,-16.20491 z m -25.46288,-19.33302 c -9.00345,-14.04587 -16.16862,-25.73923 -15.9226,-25.98525 0.73303,-0.73302 31.60044,45.83939 32.34331,48.79923 0.37602,1.49817 0.51841,2.72395 0.31643,2.72395 -0.20198,0 -7.7337,-11.49207 -16.73714,-25.53793 z m 45.96651,-3.0454 c 0.048,-1.16495 0.28494,-1.4019 0.60416,-0.60417 0.28887,0.72187 0.25335,1.58437 -0.0789,1.91667 -0.33229,0.33229 -0.56864,-0.25834 -0.52522,-1.3125 z M 646.5,241 c 1.1,-0.47269 3.125,-0.88417 4.5,-0.9144 1.97037,-0.0433 2.18222,0.15039 1,0.9144 -0.825,0.53316 -2.85,0.94464 -4.5,0.9144 -2.57572,-0.0472 -2.71714,-0.17652 -1,-0.9144 z"
         id="path4120" />
      <path
         style="fill:#220056"
         d="m 647.38513,390.25 c 0.28595,-0.9625 3.28254,-12.00673 6.6591,-24.54272 l 6.1392,-22.79273 -11.09172,-23.22253 C 642.99127,306.91963 638,296.11422 638,295.68 c 0,-0.43422 3.65675,-7.08348 8.12612,-14.77613 8.70733,-14.98702 8.31026,-13.45727 6.46422,-24.90387 -0.31045,-1.925 0.13697,-0.97909 0.99427,2.10203 l 1.55874,5.60203 12.64061,-6.89765 c 6.95234,-3.79371 12.77586,-7.03289 12.94114,-7.19818 0.16529,-0.16529 -1.49595,-2.94746 -3.69164,-6.18261 -5.23739,-7.71677 -6.37923,-13.29184 -5.86792,-28.65026 l 0.41692,-12.52344 5.38119,-8.19655 c 6.32592,-9.63555 10.14395,-12.52101 22.37557,-16.91022 l 8.83921,-3.17189 3.92947,3.1122 3.92947,3.1122 -5.92324,4.53599 -5.92324,4.536 2.65456,7.39545 2.65455,7.39545 7,2.03439 c 3.85,1.11892 7.7875,2.26062 8.75,2.53711 1.37489,0.39497 1.75236,1.61362 1.76101,5.68534 0.0229,10.77454 0.72073,12.42591 7.07437,16.74059 3.19269,2.16811 6.22079,3.94202 6.72912,3.94202 0.50833,0 3.22383,-1.83096 6.03444,-4.0688 l 5.1102,-4.0688 2.18134,4.48984 2.18133,4.48985 -5.4109,7.89685 c -7.25762,10.59199 -10.93956,13.58557 -21.33678,17.34772 -7.48466,2.70827 -9.56613,3.07211 -14.35501,2.50927 -11.57522,-1.36044 -25.61851,-6.44139 -31.41369,-11.36567 -1.51019,-1.28323 -3.0351,-0.72876 -14.01481,5.09595 l -12.32025,6.53585 -8.30169,14.70064 -8.30168,14.70064 1.98972,4.61833 c 1.09435,2.54008 6.29928,13.70344 11.5665,24.80746 L 664,342.87826 V 367.43913 392 h -8.56739 c -7.69081,0 -8.51419,-0.17905 -8.04748,-1.75 z M 577.8,291.8 c 1.82258,-1.82258 1.4823,-2.60266 -1.89777,-4.35056 -2.85612,-1.47696 -3.06261,-1.92748 -2.64716,-5.77568 0.38783,-3.59236 0.0301,-4.62214 -2.56818,-7.39257 l -3.01877,-3.21881 1.73741,-3.85289 c 1.6938,-3.75618 1.68209,-3.94666 -0.46649,-7.58824 l -2.20391,-3.73535 2.88243,-3.01723 c 2.7288,-2.85641 2.78548,-3.08847 1.06342,-4.35366 -1.73931,-1.27787 -1.72893,-1.36502 0.23692,-1.98895 3.24454,-1.02978 11.24638,0.55953 15.1244,3.00397 4.21906,2.65941 9.72351,8.72379 11.02469,12.14616 3.34204,8.79023 -1.63965,22.19913 -10.43,28.07381 -4.71702,3.15243 -11.51683,4.72984 -8.83699,2.05 z m 52.77532,-19.00491 -3.81258,-16.20492 0.68007,-16.04508 c 0.58559,-13.81605 1.72178,-24.45028 4.09153,-38.29509 0.44545,-2.60248 0.22008,-3.25 -1.13121,-3.25 -8.18625,0 -34.42929,-13.38335 -42.62964,-21.74013 -3.45472,-3.52064 -5.98589,-7.71766 -9.72212,-16.12065 C 573.52357,150.95598 573,149.04236 573,142.67681 v -7.10163 l 4.89995,4.82628 4.89996,4.82627 4.58088,-7.86386 c 2.51949,-4.32513 4.73286,-8.29391 4.9186,-8.81951 0.19706,-0.55766 4.8107,-0.001 11.07822,1.33619 l 10.74052,2.29183 8.8474,-8.08619 c 4.86607,-4.4474 9.22699,-8.06536 9.69093,-8.0399 0.46395,0.0255 5.31014,2.65751 10.76931,5.849 l 9.92577,5.80272 9.84086,-4.52996 9.84086,-4.52997 5.16962,5.80018 c 2.84329,3.19011 5.91125,6.71607 6.81769,7.83547 1.61436,1.99365 1.73143,1.91888 5.72312,-3.65545 l 4.07504,-5.69073 1.09064,5.08545 c 1.53788,7.17089 1.31592,11.06298 -1.29375,22.68601 -2.89831,12.90857 -6.82594,19.11866 -19.11562,30.22425 -12.96461,11.71548 -19.37537,15.10476 -30.83566,16.30235 -5.04039,0.52672 -9.4784,1.25393 -9.86225,1.61603 -1.89367,1.78638 -4.80158,28.21979 -4.79134,43.5542 0.01,14.89941 0.25308,17.03928 3.25,28.60416 3.00063,11.57919 3.66653,18 1.86677,18 -0.4068,0 -2.45529,-7.29221 -4.5522,-16.20491 z m -25.46288,-19.33302 c -9.00345,-14.04587 -16.16862,-25.73923 -15.9226,-25.98525 0.73303,-0.73302 31.60044,45.83939 32.34331,48.79923 0.37602,1.49817 0.51841,2.72395 0.31643,2.72395 -0.20198,0 -7.7337,-11.49207 -16.73714,-25.53793 z m 45.96651,-3.0454 c 0.048,-1.16495 0.28494,-1.4019 0.60416,-0.60417 0.28887,0.72187 0.25335,1.58437 -0.0789,1.91667 -0.33229,0.33229 -0.56864,-0.25834 -0.52522,-1.3125 z M 646.5,241 c 1.1,-0.47269 3.125,-0.88417 4.5,-0.9144 1.97037,-0.0433 2.18222,0.15039 1,0.9144 -0.825,0.53316 -2.85,0.94464 -4.5,0.9144 -2.57572,-0.0472 -2.71714,-0.17652 -1,-0.9144 z"
         id="path4118" />
      <path
         style="fill:#156000"
         d="m 647.38513,390.25 c 0.28595,-0.9625 3.28254,-12.00673 6.6591,-24.54272 l 6.1392,-22.79273 -11.09172,-23.22253 C 642.99127,306.91963 638,296.11422 638,295.68 c 0,-0.43422 3.65675,-7.08348 8.12612,-14.77613 8.70733,-14.98702 8.31026,-13.45727 6.46422,-24.90387 -0.31045,-1.925 0.13697,-0.97909 0.99427,2.10203 l 1.55874,5.60203 12.64061,-6.89765 c 6.95234,-3.79371 12.78008,-7.03711 12.95052,-7.20756 0.17045,-0.17045 -1.34757,-2.71945 -3.37338,-5.66446 C 672.3854,236.701 671,231.47141 671,219.92263 v -9.75951 l 3.36803,-2.08156 C 676.22045,206.9367 678.1493,206 678.65436,206 c 0.50506,0 1.9872,3.08253 3.29365,6.85007 l 2.37536,6.85008 -1.83737,7.08408 -1.83738,7.08409 5.37174,7.06584 5.37173,7.06584 h 7.54842 c 7.21633,0 7.82083,0.18473 13.7404,4.19896 l 6.19199,4.19896 -3.68645,3.25941 c -2.02755,1.79268 -4.15866,3.27815 -4.73581,3.30104 -3.04517,0.1208 -19.84382,-6.08203 -23.91786,-8.83157 l -4.71405,-3.18147 -12.17418,6.45836 -12.17418,6.45837 -8.30169,14.70064 -8.30168,14.70064 1.98972,4.61833 c 1.09435,2.54008 6.29928,13.70344 11.5665,24.80746 L 664,342.87826 V 367.43913 392 h -8.56739 c -7.69081,0 -8.51419,-0.17905 -8.04748,-1.75 z M 577.8,291.8 c 1.82258,-1.82258 1.4823,-2.60266 -1.89777,-4.35056 -2.85612,-1.47696 -3.06261,-1.92748 -2.64716,-5.77568 0.38783,-3.59236 0.0301,-4.62214 -2.56818,-7.39257 l -3.01877,-3.21881 1.73741,-3.85289 c 1.6938,-3.75618 1.68209,-3.94666 -0.46649,-7.58824 l -2.20391,-3.73535 2.88243,-3.01723 c 2.7288,-2.85641 2.78548,-3.08847 1.06342,-4.35366 -1.73931,-1.27787 -1.72893,-1.36502 0.23692,-1.98895 3.24454,-1.02978 11.24638,0.55953 15.1244,3.00397 4.21906,2.65941 9.72351,8.72379 11.02469,12.14616 3.34204,8.79023 -1.63965,22.19913 -10.43,28.07381 -4.71702,3.15243 -11.51683,4.72984 -8.83699,2.05 z m 52.77532,-19.00491 -3.81258,-16.20492 0.68007,-16.04508 c 0.58559,-13.81605 1.72178,-24.45028 4.09153,-38.29509 0.44545,-2.60248 0.22008,-3.25 -1.13121,-3.25 -8.18625,0 -34.42929,-13.38335 -42.62964,-21.74013 -3.45472,-3.52064 -5.98589,-7.71766 -9.72212,-16.12065 C 573.52357,150.95598 573,149.04236 573,142.67681 v -7.10163 l 4.89995,4.82628 4.89996,4.82627 4.58088,-7.86386 c 2.51949,-4.32513 4.73286,-8.29391 4.9186,-8.81951 0.19706,-0.55766 4.8107,-0.001 11.07822,1.33619 l 10.74052,2.29183 8.8474,-8.08619 c 4.86607,-4.4474 9.22699,-8.06536 9.69093,-8.0399 0.46395,0.0255 5.31014,2.65751 10.76931,5.849 l 9.92577,5.80272 9.84086,-4.52996 9.84086,-4.52997 5.16962,5.80018 c 2.84329,3.19011 5.91125,6.71607 6.81769,7.83547 1.61436,1.99365 1.73143,1.91888 5.72312,-3.65545 l 4.07504,-5.69073 1.09064,5.08545 c 1.53788,7.17089 1.31592,11.06298 -1.29375,22.68601 -2.89831,12.90857 -6.82594,19.11866 -19.11562,30.22425 -12.96461,11.71548 -19.37537,15.10476 -30.83566,16.30235 -5.04039,0.52672 -9.4784,1.25393 -9.86225,1.61603 -1.89367,1.78638 -4.80158,28.21979 -4.79134,43.5542 0.01,14.89941 0.25308,17.03928 3.25,28.60416 3.00063,11.57919 3.66653,18 1.86677,18 -0.4068,0 -2.45529,-7.29221 -4.5522,-16.20491 z m -25.46288,-19.33302 c -9.00345,-14.04587 -16.16862,-25.73923 -15.9226,-25.98525 0.73303,-0.73302 31.60044,45.83939 32.34331,48.79923 0.37602,1.49817 0.51841,2.72395 0.31643,2.72395 -0.20198,0 -7.7337,-11.49207 -16.73714,-25.53793 z m 45.96651,-3.0454 c 0.048,-1.16495 0.28494,-1.4019 0.60416,-0.60417 0.28887,0.72187 0.25335,1.58437 -0.0789,1.91667 -0.33229,0.33229 -0.56864,-0.25834 -0.52522,-1.3125 z"
         id="path4116" />
      <path
         style="fill:#141a17"
         d="m 647.38513,390.25 c 0.28595,-0.9625 3.28254,-12.00673 6.6591,-24.54272 l 6.1392,-22.79273 -11.09172,-23.22253 C 642.99127,306.91963 638,296.11422 638,295.68 c 0,-0.43422 3.65675,-7.08348 8.12612,-14.77613 8.70733,-14.98702 8.31026,-13.45727 6.46422,-24.90387 -0.31045,-1.925 0.13697,-0.97909 0.99427,2.10203 l 1.55874,5.60203 12.64061,-6.89765 c 6.95234,-3.79371 12.78008,-7.03711 12.95052,-7.20756 0.17045,-0.17045 -1.34757,-2.71945 -3.37338,-5.66446 C 672.3854,236.701 671,231.47141 671,219.92263 v -9.75951 l 3.36803,-2.08156 C 676.22045,206.9367 678.1493,206 678.65436,206 c 0.50506,0 1.9872,3.08253 3.29365,6.85007 l 2.37536,6.85008 -1.83737,7.08408 -1.83738,7.08409 5.37174,7.06584 5.37173,7.06584 h 7.54842 c 7.21633,0 7.82083,0.18473 13.7404,4.19896 l 6.19199,4.19896 -3.68645,3.25941 c -2.02755,1.79268 -4.15866,3.27815 -4.73581,3.30104 -3.04517,0.1208 -19.84382,-6.08203 -23.91786,-8.83157 l -4.71405,-3.18147 -12.17418,6.45836 -12.17418,6.45837 -8.30169,14.70064 -8.30168,14.70064 1.98972,4.61833 c 1.09435,2.54008 6.29928,13.70344 11.5665,24.80746 L 664,342.87826 V 367.43913 392 h -8.56739 c -7.69081,0 -8.51419,-0.17905 -8.04748,-1.75 z M 577.8,291.8 c 1.82258,-1.82258 1.4823,-2.60266 -1.89777,-4.35056 -2.85612,-1.47696 -3.06261,-1.92748 -2.64716,-5.77568 0.38783,-3.59236 0.0301,-4.62214 -2.56818,-7.39257 l -3.01877,-3.21881 1.73741,-3.85289 c 1.6938,-3.75618 1.68209,-3.94666 -0.46649,-7.58824 l -2.20391,-3.73535 2.88243,-3.01723 c 2.7288,-2.85641 2.78548,-3.08847 1.06342,-4.35366 -1.73931,-1.27787 -1.72893,-1.36502 0.23692,-1.98895 3.24454,-1.02978 11.24638,0.55953 15.1244,3.00397 4.21906,2.65941 9.72351,8.72379 11.02469,12.14616 3.34204,8.79023 -1.63965,22.19913 -10.43,28.07381 -4.71702,3.15243 -11.51683,4.72984 -8.83699,2.05 z m 52.77532,-19.00491 -3.81258,-16.20492 0.68723,-16.04508 c 0.37798,-8.8248 1.54078,-21.64818 2.584,-28.49639 1.04321,-6.84822 1.79984,-12.49183 1.68139,-12.54137 -0.11845,-0.0495 -3.36536,-0.88835 -7.21536,-1.86404 -4.35326,-1.10324 -11.40175,-4.255 -18.64159,-8.33566 l -11.64159,-6.56166 -0.45627,-6.62298 c -0.25094,-3.64265 -0.32485,-6.78537 -0.16423,-6.98384 0.16062,-0.19846 4.70466,0.58095 10.09786,1.73204 8.04333,1.7167 10.2342,2.59039 12.18917,4.86084 1.31084,1.52238 4.38797,4.92856 6.83806,7.56927 l 4.45471,4.8013 12.16194,-1.17401 c 6.68907,-0.64571 12.69722,-1.68129 13.35145,-2.3013 0.65423,-0.62001 3.2015,-4.67037 5.66061,-9.00079 l 4.47111,-7.87351 8.70646,-3.87649 c 4.78856,-2.13208 9.04171,-3.8765 9.45145,-3.8765 0.40974,0 1.23161,2.8125 1.82638,6.25 l 1.0814,6.25 -8.69346,8.26736 c -12.27046,11.66903 -18.90001,15.24302 -30.52912,16.45825 -5.04039,0.52672 -9.4784,1.25393 -9.86225,1.61603 -1.89367,1.78638 -4.80158,28.21979 -4.79134,43.5542 0.01,14.89941 0.25308,17.03928 3.25,28.60416 3.00063,11.57919 3.66653,18 1.86677,18 -0.4068,0 -2.45529,-7.29221 -4.5522,-16.20491 z m -25.46288,-19.33302 c -9.00345,-14.04587 -16.16862,-25.73923 -15.9226,-25.98525 0.73303,-0.73302 31.60044,45.83939 32.34331,48.79923 0.37602,1.49817 0.51841,2.72395 0.31643,2.72395 -0.20198,0 -7.7337,-11.49207 -16.73714,-25.53793 z m 45.96651,-3.0454 c 0.048,-1.16495 0.28494,-1.4019 0.60416,-0.60417 0.28887,0.72187 0.25335,1.58437 -0.0789,1.91667 -0.33229,0.33229 -0.56864,-0.25834 -0.52522,-1.3125 z"
         id="path4114" />
    </g>
  </g>
</svg>
