<?xml version="1.0" encoding="UTF-8" standalone="no"?>
<!-- Created with Inkscape (http://www.inkscape.org/) -->

<svg
   width="49.877937mm"
   height="8.2010231mm"
   viewBox="0 0 49.877938 8.2010231"
   version="1.1"
   id="svg5"
   inkscape:version="1.1.1 (c3084ef, 2021-09-22)"
   sodipodi:docname="backbone.svg"
   xmlns:inkscape="http://www.inkscape.org/namespaces/inkscape"
   xmlns:sodipodi="http://sodipodi.sourceforge.net/DTD/sodipodi-0.dtd"
   xmlns="http://www.w3.org/2000/svg"
   xmlns:svg="http://www.w3.org/2000/svg">
  <sodipodi:namedview
     id="namedview7"
     pagecolor="#ffffff"
     bordercolor="#666666"
     borderopacity="1.0"
     inkscape:pageshadow="2"
     inkscape:pageopacity="0.0"
     inkscape:pagecheckerboard="0"
     inkscape:document-units="mm"
     showgrid="false"
     inkscape:zoom="0.64052329"
     inkscape:cx="335.66305"
     inkscape:cy="210.76517"
     inkscape:window-width="1668"
     inkscape:window-height="982"
     inkscape:window-x="223"
     inkscape:window-y="217"
     inkscape:window-maximized="0"
     inkscape:current-layer="text165" />
  <defs
     id="defs2" />
  <g
     inkscape:label="Layer 1"
     inkscape:groupmode="layer"
     id="layer1"
     transform="translate(-41.300105,-90.491369)">
    <g
       aria-label="Switch Power System
Planning Model"
       id="text165"
       style="font-size:10.5833px;line-height:1.25;-inkscape-font-specification:'sans-serif, Normal';text-align:center;text-anchor:middle;stroke-width:0.264583">
      <g
         aria-label="Backbone"
         id="text3785"
         style="stroke-width:0.0700042">
        <path
           d="m 47.103349,96.165423 q 0,0.573607 -0.21704,1.012855 -0.21704,0.439248 -0.583942,0.723468 -0.43408,0.341063 -0.956011,0.485756 -0.516762,0.144694 -1.317745,0.144694 H 41.300105 V 90.8376 h 2.278923 q 0.842323,0 1.260901,0.06201 0.418578,0.06201 0.800982,0.258382 0.423745,0.222208 0.614948,0.573606 0.191202,0.346231 0.191202,0.831988 0,0.547769 -0.279052,0.935341 -0.279052,0.382404 -0.744138,0.614947 v 0.04134 q 0.780311,0.160197 1.229895,0.687295 0.449583,0.52193 0.449583,1.322912 z M 45.38253,92.697945 q 0,-0.279051 -0.09302,-0.470254 -0.09302,-0.191202 -0.299722,-0.310057 -0.242878,-0.139526 -0.589109,-0.170532 -0.346231,-0.03617 -0.857826,-0.03617 h -1.21956 v 2.222079 h 1.322912 q 0.480589,0 0.764809,-0.04651 0.284219,-0.05168 0.527098,-0.206705 0.242878,-0.155029 0.341063,-0.397908 0.103353,-0.248046 0.103353,-0.583942 z m 0.656288,3.508819 q 0,-0.465086 -0.139526,-0.738971 -0.139526,-0.273884 -0.506427,-0.465086 -0.248046,-0.129191 -0.604612,-0.165364 -0.351399,-0.04134 -0.857826,-0.04134 h -1.607132 v 2.862865 h 1.353918 q 0.671791,0 1.100704,-0.06718 0.428913,-0.07235 0.702798,-0.258381 0.289387,-0.201538 0.423745,-0.459919 0.134358,-0.258381 0.134358,-0.666624 z"
           id="path9402" />
        <path
           d="m 52.963438,98.532196 h -0.966346 v -0.614948 q -0.129191,0.08785 -0.351398,0.248047 -0.217041,0.155028 -0.423746,0.248046 -0.242878,0.118855 -0.558104,0.196369 -0.315225,0.08268 -0.73897,0.08268 -0.780312,0 -1.322913,-0.516762 -0.5426,-0.516763 -0.5426,-1.317745 0,-0.656289 0.279051,-1.059364 0.28422,-0.408242 0.80615,-0.640785 0.527098,-0.232543 1.266069,-0.315225 0.73897,-0.08268 1.586461,-0.124024 v -0.149861 q 0,-0.330728 -0.118855,-0.547768 -0.113688,-0.21704 -0.330728,-0.341063 -0.206705,-0.118856 -0.496093,-0.160197 -0.289387,-0.04134 -0.604612,-0.04134 -0.382404,0 -0.852658,0.103353 -0.470254,0.09819 -0.971514,0.289387 h -0.05168 V 92.88398 q 0.284219,-0.07751 0.821652,-0.170532 0.537433,-0.09302 1.059364,-0.09302 0.60978,0 1.059363,0.103353 0.454751,0.09818 0.78548,0.341063 0.32556,0.237711 0.496092,0.614948 0.170531,0.377236 0.170531,0.93534 z m -0.966346,-1.421097 v -1.607132 q -0.444416,0.02584 -1.049028,0.07751 -0.599445,0.05168 -0.950843,0.149861 -0.418578,0.118856 -0.67696,0.372069 -0.258381,0.248047 -0.258381,0.687295 0,0.496092 0.299723,0.749306 0.299722,0.248046 0.914669,0.248046 0.511595,0 0.935341,-0.19637 0.423745,-0.201537 0.785479,-0.480589 z"
           id="path9404" />
        <path
           d="m 59.112914,98.170462 q -0.485757,0.232543 -0.925005,0.361734 -0.434081,0.129191 -0.925005,0.129191 -0.625283,0 -1.147213,-0.180867 -0.521931,-0.186035 -0.894,-0.558104 -0.377237,-0.372069 -0.583942,-0.940508 -0.206705,-0.568439 -0.206705,-1.32808 0,-1.41593 0.775144,-2.22208 0.780312,-0.806149 2.056716,-0.806149 0.496092,0 0.971514,0.139526 0.480589,0.139525 0.878496,0.341063 v 1.080034 h -0.05168 q -0.444416,-0.346231 -0.919838,-0.532266 -0.470254,-0.186034 -0.919837,-0.186034 -0.826821,0 -1.30741,0.558103 -0.475421,0.552937 -0.475421,1.627803 0,1.043861 0.465086,1.607132 0.470254,0.558104 1.317745,0.558104 0.294554,0 0.599444,-0.07751 0.30489,-0.07751 0.547769,-0.201537 0.211873,-0.10852 0.397907,-0.227376 0.186035,-0.124023 0.294555,-0.211873 h 0.05168 z"
           id="path9406" />
        <path
           d="m 65.603454,98.532196 h -1.281572 l -2.315096,-2.526969 -0.630451,0.599444 v 1.927525 h -0.971514 v -8.040827 h 0.971514 v 5.157291 l 2.806021,-2.888703 h 1.224728 l -2.681998,2.666495 z"
           id="path9408" />
        <path
           d="m 71.70642,95.602152 q 0,0.723467 -0.206705,1.302242 -0.201538,0.578774 -0.547769,0.971513 -0.366901,0.408243 -0.806149,0.614948 -0.439249,0.201537 -0.966347,0.201537 -0.490924,0 -0.857826,-0.118855 -0.366901,-0.113688 -0.723467,-0.310058 l -0.06201,0.268717 h -0.909502 v -8.040827 h 0.971514 v 2.8732 q 0.408242,-0.335895 0.868161,-0.547768 0.459919,-0.21704 1.033525,-0.21704 1.02319,0 1.6123,0.785479 0.594277,0.785479 0.594277,2.216912 z m -1.00252,0.02584 q 0,-1.033526 -0.341063,-1.565791 -0.341063,-0.537433 -1.100704,-0.537433 -0.423746,0 -0.857827,0.186034 -0.43408,0.180867 -0.806149,0.470254 v 3.307281 q 0.41341,0.186035 0.707965,0.258382 0.299722,0.07235 0.676959,0.07235 0.806149,0 1.260901,-0.527098 Q 70.7039,96.7597 70.7039,95.62799 Z"
           id="path9410" />
        <path
           d="m 78.140115,95.64866 q 0,1.410762 -0.723468,2.227247 -0.723468,0.816485 -1.93786,0.816485 -1.224728,0 -1.948195,-0.816485 -0.718301,-0.816485 -0.718301,-2.227247 0,-1.410762 0.718301,-2.227247 0.723467,-0.821652 1.948195,-0.821652 1.214392,0 1.93786,0.821652 0.723468,0.816485 0.723468,2.227247 z m -1.00252,0 q 0,-1.121375 -0.439248,-1.663976 -0.439248,-0.547768 -1.21956,-0.547768 -0.790647,0 -1.229895,0.547768 -0.434081,0.542601 -0.434081,1.663976 0,1.085202 0.439248,1.648473 0.439249,0.558104 1.224728,0.558104 0.775144,0 1.214392,-0.552936 0.444416,-0.558104 0.444416,-1.653641 z"
           id="path9412" />
        <path
           d="m 84.475625,98.532196 h -0.971514 v -3.286611 q 0,-0.397907 -0.04651,-0.744138 -0.04651,-0.351398 -0.170532,-0.547768 -0.129191,-0.217041 -0.372069,-0.320393 -0.242879,-0.10852 -0.630451,-0.10852 -0.397907,0 -0.831987,0.19637 -0.434081,0.196369 -0.831988,0.501259 v 4.309801 H 79.64906 v -5.772239 h 0.971514 v 0.640786 q 0.454751,-0.377237 0.940508,-0.58911 0.485757,-0.211872 0.997352,-0.211872 0.93534,0 1.426265,0.563271 0.490924,0.563271 0.490924,1.622635 z"
           id="path9414" />
        <path
           d="m 91.178039,95.746845 h -4.252956 q 0,0.532266 0.160196,0.930173 0.160196,0.39274 0.439248,0.645953 0.268717,0.248046 0.635618,0.37207 0.37207,0.124023 0.816485,0.124023 0.58911,0 1.183387,-0.232544 0.599445,-0.23771 0.852658,-0.465086 h 0.05168 v 1.059363 q -0.490925,0.206705 -1.00252,0.346231 -0.511595,0.139526 -1.074866,0.139526 -1.436601,0 -2.24275,-0.775144 -0.80615,-0.780311 -0.80615,-2.211744 0,-1.41593 0.769976,-2.247918 0.775144,-0.831987 2.036045,-0.831987 1.167884,0 1.798334,0.682126 0.635618,0.682127 0.635618,1.93786 z m -0.945675,-0.744138 q -0.0052,-0.764809 -0.387572,-1.183387 -0.377237,-0.418577 -1.152381,-0.418577 -0.780312,0 -1.245398,0.459918 -0.459919,0.459919 -0.52193,1.142046 z"
           id="path9416" />
      </g>
    </g>
  </g>
</svg>
