<svg width="402.1" height="76.954" viewBox="0 0 402.1 76.954" xmlns="http://www.w3.org/2000/svg"><g id="svgGroup" stroke-linecap="round" fill-rule="evenodd" font-size="9pt" stroke="#000" stroke-width="0.25mm" fill="#000" style="stroke:#000;stroke-width:0.25mm;fill:#000"><path d="M 220.117 40.918 L 220.117 75.977 L 212.109 75.977 L 212.109 41.309 A 24.009 24.009 0 0 0 211.862 37.739 Q 211.583 35.886 210.988 34.397 A 9.894 9.894 0 0 0 209.302 31.567 Q 206.626 28.473 201.488 28.327 A 18.117 18.117 0 0 0 200.977 28.32 A 21.11 21.11 0 0 0 196.743 28.716 Q 192.17 29.653 189.697 32.813 Q 187.083 36.153 186.413 41.843 A 35.989 35.989 0 0 0 186.182 46.045 L 186.182 75.977 L 178.125 75.977 L 178.125 41.309 Q 178.125 37.907 177.362 35.403 A 12.535 12.535 0 0 0 176.88 34.082 Q 175.635 31.201 173.169 29.761 A 9.932 9.932 0 0 0 170.38 28.68 Q 169.164 28.399 167.75 28.338 A 18.553 18.553 0 0 0 166.943 28.32 Q 161.621 28.32 158.398 30.518 Q 155.176 32.715 153.735 37.036 Q 152.557 40.572 152.343 45.431 A 50.535 50.535 0 0 0 152.295 47.656 L 152.295 75.977 L 144.189 75.977 L 144.189 22.461 L 150.732 22.461 L 151.953 30.029 L 152.393 30.029 A 16.111 16.111 0 0 1 156.445 25.342 A 17.599 17.599 0 0 1 161.914 22.461 A 20.57 20.57 0 0 1 167.511 21.5 A 23.43 23.43 0 0 1 168.359 21.484 Q 173.62 21.484 177.412 23.171 A 15.55 15.55 0 0 1 178.589 23.755 A 13.123 13.123 0 0 1 184.445 30.359 A 16.488 16.488 0 0 1 184.57 30.664 L 185.01 30.664 A 16.706 16.706 0 0 1 192.236 23.755 Q 196.826 21.484 202.295 21.484 A 26.972 26.972 0 0 1 207.394 21.935 Q 212.537 22.926 215.625 26.099 A 13.769 13.769 0 0 1 218.595 30.933 Q 220.117 34.978 220.117 40.918 Z M 0 75.977 L 0 4.59 L 20.215 4.59 Q 32.53 4.59 39.218 7.982 A 19.037 19.037 0 0 1 40.332 8.594 A 13.19 13.19 0 0 1 46.622 17.63 A 22.062 22.062 0 0 1 47.07 22.217 A 18.635 18.635 0 0 1 46.596 26.501 A 15.414 15.414 0 0 1 45.483 29.663 A 14.064 14.064 0 0 1 40.869 35.107 Q 37.842 37.256 33.398 38.086 L 33.398 38.574 A 28.384 28.384 0 0 1 38.268 39.762 A 22.855 22.855 0 0 1 41.699 41.26 Q 45.313 43.213 47.363 46.729 Q 49.15 49.791 49.38 54.298 A 26.772 26.772 0 0 1 49.414 55.664 A 23.664 23.664 0 0 1 48.871 60.861 A 17.358 17.358 0 0 1 46.362 66.797 A 18.238 18.238 0 0 1 39.503 72.836 A 22.753 22.753 0 0 1 37.744 73.657 A 28.833 28.833 0 0 1 31.459 75.432 Q 28.25 75.977 24.561 75.977 L 0 75.977 Z M 102.246 39.6 L 102.246 75.977 L 96.338 75.977 L 94.775 68.066 L 94.385 68.066 A 32.278 32.278 0 0 1 91.87 70.986 A 25.32 25.32 0 0 1 89.697 72.974 A 16.728 16.728 0 0 1 84.504 75.807 A 19.139 19.139 0 0 1 84.058 75.952 A 19.935 19.935 0 0 1 81.103 76.619 Q 79.592 76.848 77.855 76.92 A 39.485 39.485 0 0 1 76.221 76.953 A 23.798 23.798 0 0 1 71.613 76.526 A 18.539 18.539 0 0 1 67.554 75.244 A 13.36 13.36 0 0 1 61.597 70.068 Q 59.424 66.602 59.424 61.279 A 16.039 16.039 0 0 1 60.354 55.692 Q 61.854 51.627 65.771 48.975 A 21.788 21.788 0 0 1 71.055 46.436 Q 76.218 44.698 83.728 44.34 A 78.999 78.999 0 0 1 85.107 44.287 L 94.336 43.896 L 94.336 40.625 Q 94.336 33.691 91.357 30.908 A 9.738 9.738 0 0 0 87.37 28.696 Q 85.415 28.125 82.959 28.125 A 26.076 26.076 0 0 0 74.951 29.346 A 54.796 54.796 0 0 0 67.725 32.227 L 65.234 26.074 Q 68.848 24.219 73.535 22.9 Q 78.223 21.582 83.398 21.582 Q 92.969 21.582 97.607 25.879 A 13.002 13.002 0 0 1 100.937 31.034 Q 101.714 33.147 102.03 35.771 A 32.088 32.088 0 0 1 102.246 39.6 Z M 380.176 45.703 L 380.176 50.732 L 343.213 50.732 A 31.991 31.991 0 0 0 343.734 56.184 Q 344.778 61.697 347.9 65.088 A 14.792 14.792 0 0 0 355.678 69.489 A 22.359 22.359 0 0 0 360.693 70.02 A 47.71 47.71 0 0 0 364.912 69.842 Q 367.48 69.614 369.678 69.092 A 46.047 46.047 0 0 0 374.675 67.589 A 56.04 56.04 0 0 0 377.783 66.357 L 377.783 73.486 A 40.904 40.904 0 0 1 371.745 75.647 A 36.059 36.059 0 0 1 369.751 76.123 Q 366.331 76.836 361.847 76.937 A 66.892 66.892 0 0 1 360.352 76.953 A 31.944 31.944 0 0 1 353.553 76.261 A 24.615 24.615 0 0 1 346.899 73.804 Q 341.162 70.654 337.988 64.551 A 26.772 26.772 0 0 1 335.559 57.53 Q 334.931 54.459 334.833 50.931 A 47.526 47.526 0 0 1 334.814 49.609 A 43.318 43.318 0 0 1 335.371 42.491 Q 336.052 38.402 337.569 34.979 A 26.978 26.978 0 0 1 337.72 34.644 A 24.246 24.246 0 0 1 341.613 28.596 A 20.949 20.949 0 0 1 345.923 24.902 A 21.344 21.344 0 0 1 354.901 21.701 A 27.439 27.439 0 0 1 358.398 21.484 A 25.903 25.903 0 0 1 364.006 22.064 A 19.5 19.5 0 0 1 370.117 24.512 Q 375 27.539 377.588 32.983 A 26.13 26.13 0 0 1 379.74 40.043 A 35.241 35.241 0 0 1 380.176 45.703 Z M 327.734 22.119 L 326.709 29.639 Q 325.391 29.297 323.779 29.102 A 27.288 27.288 0 0 0 321.865 28.935 A 22.224 22.224 0 0 0 320.752 28.906 A 14.561 14.561 0 0 0 314.673 30.2 Q 311.816 31.494 309.668 33.911 Q 307.52 36.328 306.299 39.722 A 20.601 20.601 0 0 0 305.222 44.502 A 25.769 25.769 0 0 0 305.078 47.266 L 305.078 75.977 L 296.924 75.977 L 296.924 22.461 L 303.662 22.461 L 304.541 32.324 L 304.883 32.324 A 26.833 26.833 0 0 1 308.887 26.88 A 18.127 18.127 0 0 1 314.331 22.949 A 15.397 15.397 0 0 1 319.608 21.554 A 18.68 18.68 0 0 1 321.24 21.484 A 33.676 33.676 0 0 1 323.74 21.581 A 38.653 38.653 0 0 1 324.609 21.655 Q 326.367 21.826 327.734 22.119 Z M 127.1 0 L 127.1 75.977 L 118.945 75.977 L 118.945 0 L 127.1 0 Z M 402.1 0 L 402.1 75.977 L 393.945 75.977 L 393.945 0 L 402.1 0 Z M 282.91 49.121 Q 282.91 55.713 281.201 60.889 A 26.362 26.362 0 0 1 278.8 66.202 A 21.849 21.849 0 0 1 276.27 69.629 Q 273.047 73.193 268.481 75.073 A 24.667 24.667 0 0 1 262.307 76.689 A 31.567 31.567 0 0 1 258.154 76.953 A 26.711 26.711 0 0 1 251.793 76.219 A 23.087 23.087 0 0 1 248.315 75.073 A 21.691 21.691 0 0 1 240.601 69.629 A 23.365 23.365 0 0 1 236.759 63.82 A 28.925 28.925 0 0 1 235.571 60.889 A 31.912 31.912 0 0 1 234.13 54.618 A 42.472 42.472 0 0 1 233.789 49.121 Q 233.789 41.311 236.141 35.563 A 25.318 25.318 0 0 1 236.768 34.155 Q 239.746 27.979 245.288 24.731 A 23.222 23.222 0 0 1 253.045 21.941 A 31.212 31.212 0 0 1 258.496 21.484 Q 265.82 21.484 271.313 24.756 A 21.745 21.745 0 0 1 279.265 33.071 A 26.498 26.498 0 0 1 279.858 34.204 Q 282.728 40.013 282.899 48.089 A 48.772 48.772 0 0 1 282.91 49.121 Z M 242.188 49.121 A 40.941 40.941 0 0 0 242.509 54.389 Q 242.863 57.115 243.607 59.451 A 23.827 23.827 0 0 0 243.896 60.303 A 17.163 17.163 0 0 0 245.947 64.329 A 13.815 13.815 0 0 0 249.17 67.627 A 12.996 12.996 0 0 0 253.829 69.72 Q 255.635 70.153 257.742 70.207 A 23.652 23.652 0 0 0 258.35 70.215 A 19.645 19.645 0 0 0 262.359 69.828 Q 264.936 69.291 266.943 68.009 A 12.072 12.072 0 0 0 267.505 67.627 A 14.242 14.242 0 0 0 271.831 62.537 A 18.412 18.412 0 0 0 272.803 60.303 A 27.309 27.309 0 0 0 274.071 55.226 Q 274.512 52.394 274.512 49.121 A 40.354 40.354 0 0 0 274.208 44.033 Q 273.869 41.371 273.153 39.093 A 23.205 23.205 0 0 0 272.803 38.062 A 16.72 16.72 0 0 0 270.712 34.042 A 13.634 13.634 0 0 0 267.529 30.859 A 13.031 13.031 0 0 0 263.04 28.851 Q 261.293 28.42 259.256 28.339 A 24.1 24.1 0 0 0 258.301 28.32 A 19.864 19.864 0 0 0 253.52 28.859 A 12.427 12.427 0 0 0 246.069 33.838 A 19.185 19.185 0 0 0 243.416 39.479 Q 242.188 43.628 242.188 49.121 Z M 22.412 42.188 L 8.301 42.188 L 8.301 68.896 L 23.145 68.896 Q 31.593 68.896 35.659 65.955 A 9.55 9.55 0 0 0 36.621 65.161 A 12.385 12.385 0 0 0 40.357 57.921 A 17.732 17.732 0 0 0 40.576 55.078 A 15.424 15.424 0 0 0 40.235 51.756 A 11.515 11.515 0 0 0 38.794 48.145 Q 37.064 45.348 33.262 43.816 A 17.524 17.524 0 0 0 33.032 43.726 A 19.472 19.472 0 0 0 29.828 42.819 Q 26.666 42.188 22.412 42.188 Z M 8.301 11.67 L 8.301 35.205 L 21.973 35.205 A 44.567 44.567 0 0 0 26.277 35.013 Q 30.557 34.596 33.15 33.274 A 8.794 8.794 0 0 0 34.888 32.129 Q 38.458 29.069 38.476 23.206 A 19.396 19.396 0 0 0 38.477 23.145 A 13.651 13.651 0 0 0 38.08 19.743 A 8.665 8.665 0 0 0 34.204 14.355 A 13.798 13.798 0 0 0 30.902 12.896 Q 27.549 11.867 22.568 11.701 A 59.247 59.247 0 0 0 20.605 11.67 L 8.301 11.67 Z M 94.238 54.541 L 94.238 49.609 L 86.084 49.951 Q 76.074 50.342 71.973 53.223 A 9.173 9.173 0 0 0 67.961 59.864 A 12.31 12.31 0 0 0 67.871 61.377 A 11.956 11.956 0 0 0 68.14 63.997 Q 68.735 66.649 70.654 68.164 A 9.728 9.728 0 0 0 74.298 69.926 Q 75.667 70.28 77.273 70.346 A 18.258 18.258 0 0 0 78.027 70.361 A 21.019 21.019 0 0 0 83.297 69.733 A 15.496 15.496 0 0 0 89.697 66.406 Q 93.892 62.752 94.212 55.723 A 26.034 26.034 0 0 0 94.238 54.541 Z M 343.359 44.238 L 371.68 44.238 Q 371.631 39.453 370.19 35.815 A 13.09 13.09 0 0 0 368.178 32.329 A 11.395 11.395 0 0 0 365.82 30.151 Q 363.1 28.27 358.948 28.135 A 20.005 20.005 0 0 0 358.301 28.125 A 16.032 16.032 0 0 0 353.651 28.767 A 12.413 12.413 0 0 0 347.949 32.373 Q 344.559 36.107 343.583 42.443 A 31.738 31.738 0 0 0 343.359 44.238 Z" vector-effect="non-scaling-stroke"/></g></svg>