<?xml version="1.0" encoding="UTF-8" standalone="no"?>
<svg
   version="1.1"
   id="svg4"
   width="37.207031"
   height="9.0410156"
   xmlns="http://www.w3.org/2000/svg"
   xmlns:svg="http://www.w3.org/2000/svg">
  <defs
     id="defs8" />
  <g
     aria-label="BIRDS"
     id="text2"
     transform="translate(-1.171875,8.8828125)">
    <path
       d="m 7.7519531,-2.6835938 q 0,0.6503907 -0.2460937,1.1484376 Q 7.2597656,-1.0371094 6.84375,-0.71484375 6.3515625,-0.328125 5.7597656,-0.1640625 5.1738281,0 4.265625,0 h -3.09375 v -8.7246094 h 2.5839844 q 0.9550781,0 1.4296875,0.070312 0.4746093,0.070312 0.9082031,0.2929688 0.4804687,0.2519531 0.6972656,0.6503906 0.2167969,0.3925781 0.2167969,0.9433594 0,0.6210937 -0.3164063,1.0605469 Q 6.375,-5.273438 5.8476562,-5.0097661 v 0.046875 q 0.8847657,0.1816406 1.3945313,0.7792969 0.5097656,0.5917968 0.5097656,1.5000004 z M 5.8007812,-6.6152344 q 0,-0.3164062 -0.1054687,-0.5332031 Q 5.5898437,-7.3652344 5.3554687,-7.5 5.0800781,-7.6582031 4.6875,-7.6933594 4.2949219,-7.734375 3.7148438,-7.734375 H 2.3320313 v 2.5195313 h 1.5 q 0.5449218,0 0.8671874,-0.052734 0.3222657,-0.058594 0.5976563,-0.234375 0.2753906,-0.1757813 0.3867187,-0.4511719 0.1171875,-0.28125 0.1171875,-0.6621098 z m 0.7441407,3.9785156 q 0,-0.5273437 -0.1582032,-0.8378906 Q 6.2285156,-3.7851563 5.8125,-4.0019531 5.53125,-4.1484375 5.1269531,-4.1894531 4.7285156,-4.2363281 4.1542969,-4.2363281 H 2.3320313 v 3.24609372 h 1.5351562 q 0.7617187,0 1.2480469,-0.0761718 0.4863281,-0.082031 0.796875,-0.2929688 0.328125,-0.2285156 0.4804687,-0.5214844 0.1523438,-0.2929687 0.1523438,-0.7558594 z"
       id="path10" />
    <path
       d="M 12.474609,0 H 9.0292969 V -0.890625 H 10.171875 V -7.8339844 H 9.0292969 v -0.890625 h 3.4453121 v 0.890625 h -1.142578 v 6.9433594 h 1.142578 z"
       id="path12" />
    <path
       d="m 21.667969,0 h -1.50586 L 17.244141,-3.46875 H 15.609375 V 0 h -1.160156 v -8.7246094 h 2.443359 q 0.791016,0 1.318359,0.1054688 0.527344,0.099609 0.949219,0.3632812 0.47461,0.2988282 0.738281,0.7558594 0.269532,0.4511719 0.269532,1.1484375 0,0.9433594 -0.47461,1.5820313 -0.474609,0.6328125 -1.30664,0.9550781 z m -2.712891,-6.2695312 q 0,-0.375 -0.134766,-0.6621094 -0.128906,-0.2929688 -0.433593,-0.4921875 -0.251953,-0.1699219 -0.597657,-0.234375 -0.345703,-0.070312 -0.814453,-0.070312 h -1.365234 v 3.2929687 h 1.171875 q 0.550781,0 0.960937,-0.09375 0.410157,-0.099609 0.697266,-0.3632812 0.263672,-0.2460938 0.386719,-0.5625 0.128906,-0.3222656 0.128906,-0.8144536 z"
       id="path14" />
    <path
       d="m 30.164062,-4.3535156 q 0,1.1894531 -0.521484,2.15625 -0.515625,0.9667969 -1.376953,1.49999998 Q 27.667969,-0.328125 26.929687,-0.1640625 26.197266,0 24.996094,0 h -2.203125 v -8.7246094 h 2.179687 q 1.277344,0 2.027344,0.1875 0.755859,0.1816406 1.277344,0.5039063 0.890625,0.5566406 1.388672,1.4824219 0.498046,0.9257812 0.498046,2.1972656 z m -1.21289,-0.017578 q 0,-1.0253907 -0.357422,-1.7285157 -0.357422,-0.703125 -1.066406,-1.1074218 Q 27.011719,-7.5 26.431641,-7.6113281 25.851562,-7.7285156 25.042969,-7.7285156 h -1.089844 v 6.73242185 h 1.089844 q 0.83789,0 1.458984,-0.12304685 0.626953,-0.1230469 1.148438,-0.4570313 0.65039,-0.4160156 0.972656,-1.0957031 0.328125,-0.6796875 0.328125,-1.6992186 z"
       id="path16" />
    <path
       d="m 38.378906,-2.4902344 q 0,0.5097657 -0.240234,1.0078125 -0.234375,0.4980469 -0.66211,0.84375003 -0.46875,0.37499999 -1.095703,0.5859375 -0.621093,0.21093749 -1.5,0.21093749 -0.943359,0 -1.699218,-0.17578125 -0.75,-0.17578124 -1.529297,-0.52148437 v -1.453125 h 0.08203 q 0.662109,0.5507813 1.529297,0.8496094 0.867187,0.2988281 1.628906,0.2988281 1.078125,0 1.675781,-0.4042969 0.603516,-0.4042968 0.603516,-1.078125 0,-0.5800781 -0.287109,-0.8554687 -0.28125,-0.2753907 -0.861329,-0.4277344 -0.439453,-0.1171875 -0.955078,-0.1933594 -0.509765,-0.076172 -1.083984,-0.1933594 -1.160156,-0.2460937 -1.722656,-0.8378906 -0.556641,-0.5976562 -0.556641,-1.5527343 0,-1.0957032 0.925781,-1.7929688 0.925782,-0.703125 2.34961,-0.703125 0.919922,0 1.6875,0.1757812 0.767578,0.1757813 1.359375,0.4335938 v 1.3710938 h -0.08203 q -0.498046,-0.421875 -1.3125,-0.6972657 -0.808593,-0.28125 -1.658203,-0.28125 -0.93164,0 -1.5,0.3867188 -0.5625,0.3867187 -0.5625,0.9960937 0,0.5449219 0.28125,0.8554688 0.28125,0.3105469 0.990235,0.4746094 0.375,0.082031 1.066406,0.1992187 0.691406,0.1171875 1.171875,0.2402344 0.972656,0.2578125 1.464844,0.7792968 0.492187,0.5214844 0.492186,1.4589844 z"
       id="path18" />
  </g>
</svg>
