<svg class="be-logo" data-name="logo-full-oneline" xmlns="http://www.w3.org/2000/svg" viewBox="0 0 634 74">
                <defs>
                  <linearGradient id="a" x1="1.55" y1="36.99" x2="73.6" y2="36.99" gradientUnits="userSpaceOnUse">
                    <stop offset="0" stop-color="#40c4e0"></stop>
                    <stop offset="1" stop-color="#a6ce39"></stop>
                  </linearGradient>
                </defs>
                <path d="M121.7 45.7c0 6.3-5.4 10.6-14 10.6H89V17.7h18.1c8.1 0 12.8 3.9 12.8 10a8.74 8.74 0 01-5.7 8.5c5.1 1.1 7.5 5 7.5 9.5zM95.8 33.9h10.3c4.8 0 7.3-2.1 7.3-5.4 0-3-2.5-4.9-7.2-4.9H95.8zm11.7 16.4c5 0 7.5-2.5 7.5-5.3 0-3.2-2.8-4.8-7.3-4.8H95.8v10.1zm26.1-17.5a13.18 13.18 0 019.7-3.9V35c-4.2.2-7.4 1.7-9.7 4.5v16.6H127V29.4h6.6zm38.6 12.6h-20.6c.8 3.3 3.3 5.9 7.8 5.9 2.6 0 4.5-.8 5.4-2.5h7c-1.6 5-6.4 8.1-12.6 8.1-8.5 0-14.2-6.1-14.2-14s5.7-14 14.2-14c7.4 0 13 5.5 13.1 13.6a9.52 9.52 0 01-.1 2.9zm-20.6-4.8h14.1c-.6-3.8-2.8-6.1-6.8-6.1s-6.6 2.6-7.3 6.1zm52 15.6h-6.5v-1.8a13.78 13.78 0 01-21.7-11.5 13.78 13.78 0 0121.7-11.5v-1.8h6.5zm-6.4-8.8v-9.1a8.21 8.21 0 00-7.3-3.8c-4.6 0-7.9 3.9-7.9 8.4s3.3 8.4 7.9 8.4a8.78 8.78 0 007.3-3.9zm18.9 2.9v6h-6.5V16h6.5v25.6l11.8-12.2h8.4l-10.7 11.1 12.3 15.7h-8.6l-8.4-11zM258 56a19.81 19.81 0 01-6.7 1.1c-6.4 0-10.4-4.2-10.4-11.2V19.6h6.5v9.8h9.9V35h-9.9v11c0 3.6 1.9 5.1 5.1 5.1a22.18 22.18 0 004.5-.6zm31.4-14.5v14.8h-6.5V41.8c0-4.7-2.5-7.3-6.6-7.3-2.3 0-4.9 1.4-6.9 3.9v17.8h-6.6V16h6.6v15.6a12.6 12.6 0 018.3-3c7 0 11.7 5.1 11.7 12.9zm12.1-8.7a13.18 13.18 0 019.7-3.9V35c-4.2.2-7.4 1.7-9.7 4.5v16.6h-6.6V29.4h6.6zm40.1 10a14.25 14.25 0 01-28.5 0c0-8.1 6.1-14 14.3-14a13.84 13.84 0 0114.2 14zm-6.6 0c0-4.5-3.1-8.1-7.7-8.1s-7.8 3.6-7.8 8.1 3.1 8.3 7.8 8.3 7.7-3.7 7.7-8.3zm37 13.4h-6.5V54a12.25 12.25 0 01-8.4 3.1c-7.1 0-11.7-5.1-11.7-12.9V29.4h6.5v14.4c0 4.7 2.5 7.3 6.6 7.3a9.39 9.39 0 007-3.9V29.4h6.5v26.8zm32.7 0c0 8.4-5.7 13.4-13.6 13.4-7.5 0-13.2-4.6-13.9-11.1h6.6c.5 3 3.1 5.1 7.2 5.1s7.1-2.7 7.1-7.4v-3.3a13.86 13.86 0 01-8.3 2.5 13.49 13.49 0 01-13.4-13.2 13.28 13.28 0 0113.4-13.7 14.08 14.08 0 018.3 2.5v-1.6h6.5l.1 26.8zM398.2 46v-8.1a8.42 8.42 0 00-7.3-3.9 7.72 7.72 0 00-7.9 8.1 7.86 7.86 0 007.9 7.6 8.56 8.56 0 007.3-3.7zm39-4.5v14.8h-6.5V41.8c0-4.7-2.5-7.3-6.6-7.3-2.3 0-4.9 1.4-6.9 3.9v17.8h-6.6V16h6.6v15.6a12.6 12.6 0 018.3-3c7 0 11.7 5.1 11.7 12.9zm24.2-7.4h18.9v6.3h-18.9V50h21.1v6.2h-28V17.7h28V24h-21.1zm53 7.4v14.8h-6.5V41.8c0-4.7-2.5-7.3-6.6-7.3-2.3 0-4.9 1.4-6.9 3.9v17.8h-6.6V29.4h6.6v2.2a12.6 12.6 0 018.3-3c7 0 11.7 5.1 11.7 12.9zm31.2 3.9H525c.8 3.3 3.3 5.9 7.8 5.9 2.6 0 4.5-.8 5.4-2.5h7c-1.6 5-6.4 8.1-12.6 8.1-8.5 0-14.2-6.1-14.2-14s5.7-14 14.2-14c7.4 0 13 5.5 13.1 13.6 0 .9 0 1.9-.1 2.9zm-20.7-4.8H539c-.6-3.8-2.8-6.1-6.8-6.1s-6.5 2.6-7.3 6.1zm32-7.8a13.18 13.18 0 019.7-3.9V35c-4.2.2-7.4 1.7-9.7 4.5v16.6h-6.6V29.4h6.6zm40 23.4c0 8.4-5.7 13.4-13.6 13.4-7.5 0-13.2-4.6-13.9-11.1h6.6c.5 3 3.1 5.1 7.2 5.1s7.1-2.7 7.1-7.4v-3.3a13.86 13.86 0 01-8.3 2.5 13.49 13.49 0 01-13.4-13.2A13.28 13.28 0 01582 28.5a14.08 14.08 0 018.3 2.5v-1.6h6.5l.1 26.8zM590.4 46v-8.1a8.42 8.42 0 00-7.3-3.9 7.72 7.72 0 00-7.9 8.1 7.86 7.86 0 007.9 7.6 8.45 8.45 0 007.3-3.7zm24.5 23.6H608l5.4-12.5-13.3-27.7h7.1l9.6 20 8.7-20h6.9z" id="logotype" fill="#414042"></path>
                <path d="M8.44 24.93a3.58 3.58 0 11-1.94-4.69 3.58 3.58 0 011.94 4.69zm17.07 41.19a3.58 3.58 0 101.94 4.69 3.58 3.58 0 00-1.94-4.69zM49.64 7.86a3.58 3.58 0 10-1.94-4.68 3.57 3.57 0 001.94 4.68zm21.75 39.26a3.58 3.58 0 101.94 4.68 3.59 3.59 0 00-1.94-4.68zm0-20.25a3.59 3.59 0 10-4.69-1.94 3.6 3.6 0 004.69 1.94zm-9.11 7.44l-2.79 2.78 2.79 2.79A7.46 7.46 0 0157 52.62h-3.94v3.94a7.34 7.34 0 01-4.61 6.9 7.62 7.62 0 01-2.9.58 7.33 7.33 0 01-5.23-2.2l-2.79-2.78-2.78 2.78A7.35 7.35 0 0129.52 64a7.67 7.67 0 01-2.91-.58A7.36 7.36 0 0122 56.56v-3.94h-3.93a7.46 7.46 0 01-5.28-12.74l2.78-2.79-2.78-2.78a7.47 7.47 0 015.28-12.75H22v-3.93a7.47 7.47 0 0112.75-5.28l2.78 2.78 2.79-2.78a7.46 7.46 0 0112.74 5.28v3.93H57a7.47 7.47 0 015.28 12.75zm-21.56-16l2.38 2.39a2.93 2.93 0 002.09.86h3.37v-3.93a3 3 0 00-5.06-2.1zm7.84 11.11v-3.35h-3.37a7.43 7.43 0 01-5.28-2.19l-2.38-2.38-2.38 2.38a7.41 7.41 0 01-5.28 2.19h-3.36v3.36a7.41 7.41 0 01-2.19 5.28l-2.38 2.38 2.38 2.38a7.43 7.43 0 012.19 5.28v3.37h3.36a7.4 7.4 0 015.28 2.18l2.38 2.38 2.38-2.38a7.42 7.42 0 015.28-2.18h3.37v-3.37a7.42 7.42 0 012.18-5.28l2.38-2.38-2.38-2.38a7.4 7.4 0 01-2.18-5.28zm-22-7.87h3.36A3 3 0 0032 20.7l2.38-2.38-2.79-2.79a2.82 2.82 0 00-2-.87 3.25 3.25 0 00-1.18.23 2.91 2.91 0 00-1.83 2.74zm-7.8 12.36l2.38-2.38a3 3 0 00.86-2.1v-3.36h-3.93A3 3 0 0016 31.12zM22 48.12v-3.37a2.93 2.93 0 00-.86-2.09l-2.38-2.38L16 43.06a3 3 0 002.1 5.06zm12.35 7.75L32 53.49a3 3 0 00-2.1-.87h-3.39v3.94a3 3 0 005 2.09zm14.21-3.25h-3.37a2.94 2.94 0 00-2.09.87l-2.38 2.38 2.78 2.78a3 3 0 005.06-2.09zm7.75-12.34l-2.38 2.38a2.94 2.94 0 00-.87 2.09v3.37H57a3 3 0 002.09-5.06zm3.42-12.38A2.89 2.89 0 0057 26.07h-3.94v3.36a3 3 0 00.87 2.1l2.38 2.38 2.78-2.79a2.88 2.88 0 00.64-3.22zm-34.22-20a3.58 3.58 0 10-4.68-1.94 3.58 3.58 0 004.68 1.9zM3.76 47.12a3.58 3.58 0 104.68 1.94 3.58 3.58 0 00-4.68-1.94zm45.88 19a3.58 3.58 0 104.68 1.94 3.59 3.59 0 00-4.68-1.94z" fill="url(#a)"></path>
              </svg>
