<?xml version="1.0" encoding="UTF-8" standalone="no"?>
<svg
   version="1.1"
   id="svg4"
   width="88.564453"
   height="9.2988281"
   xmlns="http://www.w3.org/2000/svg"
   xmlns:svg="http://www.w3.org/2000/svg">
  <defs
     id="defs8" />
  <g
     aria-label="breethe-server"
     id="text2"
     transform="translate(-1.0839844,9.1171875)">
    <path
       d="m 6.84375,-3.3222656 q 0,0.8203125 -0.234375,1.4765625 -0.2285156,0.65625 -0.6210938,1.10156248 Q 5.5722656,-0.28125 5.0742187,-0.046875 4.5761719,0.18164062 3.9785156,0.18164062 3.421875,0.18164062 3.0058594,0.046875 2.5898438,-0.08203125 2.1855469,-0.3046875 L 2.1152344,0 h -1.03125 v -9.1171875 h 1.1015625 v 3.2578125 q 0.4628906,-0.3808594 0.984375,-0.6210937 0.5214844,-0.2460938 1.171875,-0.2460938 1.1601562,0 1.828125,0.890625 0.6738281,0.890625 0.6738281,2.5136719 z m -1.1367188,0.029297 q 0,-1.1718749 -0.3867187,-1.7753906 -0.3867188,-0.609375 -1.2480469,-0.609375 -0.4804687,0 -0.9726562,0.2109375 -0.4921875,0.2050782 -0.9140625,0.5332032 v 3.75 q 0.46875,0.21093745 0.8027344,0.2929687 0.3398437,0.0820313 0.7675781,0.0820313 0.9140625,0 1.4296875,-0.5976562 0.5214843,-0.6035157 0.5214843,-1.8867189 z"
       id="path10" />
    <path
       d="m 12.644531,-5.34375 h -0.05859 q -0.246094,-0.058594 -0.480469,-0.082031 -0.228516,-0.029297 -0.544922,-0.029297 -0.509766,0 -0.984375,0.2285156 -0.474609,0.2226563 -0.9140626,0.5800781 V 0 H 8.5605469 v -6.5449219 h 1.1015625 v 0.9667969 q 0.6562496,-0.5273437 1.1542966,-0.7441406 0.503907,-0.2226563 1.025391,-0.2226563 0.287109,0 0.416016,0.017578 0.128906,0.011719 0.386718,0.052734 z"
       id="path12" />
    <path
       d="m 19.160156,-3.1582031 h -4.822265 q 0,0.6035156 0.18164,1.0546875 0.181641,0.4453125 0.498047,0.7324219 0.304688,0.28125 0.720703,0.42187495 0.421875,0.140625 0.925781,0.140625 0.667969,0 1.341797,-0.26367185 0.679688,-0.2695313 0.966797,-0.5273438 h 0.05859 v 1.2011719 q -0.556641,0.234375 -1.136719,0.39257812 -0.580078,0.15820313 -1.21875,0.15820313 -1.628906,0 -2.542968,-0.87890625 -0.914063,-0.8847656 -0.914063,-2.5078125 0,-1.6054687 0.873047,-2.5488281 0.878906,-0.9433594 2.308594,-0.9433594 1.324218,0 2.039062,0.7734375 0.720703,0.7734375 0.720703,2.1972656 z m -1.072265,-0.84375 q -0.0059,-0.8671875 -0.439454,-1.3417969 -0.427734,-0.4746094 -1.30664,-0.4746094 -0.884766,0 -1.412109,0.5214844 -0.521485,0.5214844 -0.591797,1.2949219 z"
       id="path14" />
    <path
       d="m 26.308594,-3.1582031 h -4.822266 q 0,0.6035156 0.181641,1.0546875 0.18164,0.4453125 0.498047,0.7324219 0.304687,0.28125 0.720703,0.42187495 0.421875,0.140625 0.925781,0.140625 0.667969,0 1.341797,-0.26367185 0.679687,-0.2695313 0.966797,-0.5273438 h 0.05859 v 1.2011719 q -0.55664,0.234375 -1.136718,0.39257812 -0.580078,0.15820313 -1.21875,0.15820313 -1.628907,0 -2.542969,-0.87890625 -0.914063,-0.8847656 -0.914063,-2.5078125 0,-1.6054687 0.873047,-2.5488281 0.878907,-0.9433594 2.308594,-0.9433594 1.324219,0 2.039063,0.7734375 0.720703,0.7734375 0.720703,2.1972656 z m -1.072266,-0.84375 q -0.0059,-0.8671875 -0.439453,-1.3417969 -0.427734,-0.4746094 -1.306641,-0.4746094 -0.884765,0 -1.412109,0.5214844 -0.521484,0.5214844 -0.591797,1.2949219 z"
       id="path16" />
    <path
       d="m 31.376953,-0.05859375 q -0.310547,0.08203125 -0.679687,0.13476562 -0.363282,0.05273438 -0.650391,0.05273438 -1.001953,0 -1.523438,-0.5390625 -0.521484,-0.5390625 -0.521484,-1.72851565 v -3.4804687 h -0.744141 v -0.9257813 h 0.744141 v -1.8808594 h 1.101563 v 1.8808594 h 2.273437 v 0.9257813 h -2.273437 v 2.9824218 q 0,0.515625 0.02344,0.8085938 0.02344,0.2871094 0.164063,0.5390625 0.128906,0.234375 0.351562,0.34570312 0.228516,0.10546875 0.691406,0.10546875 0.269532,0 0.5625,-0.0761719 0.292969,-0.0820313 0.421875,-0.13476557 h 0.05859 z"
       id="path18" />
    <path
       d="m 38.179687,0 h -1.101562 v -3.7265625 q 0,-0.4511719 -0.05273,-0.84375 -0.05273,-0.3984375 -0.19336,-0.6210937 -0.146484,-0.2460938 -0.421875,-0.3632813 -0.27539,-0.1230469 -0.714844,-0.1230469 -0.451171,0 -0.943359,0.2226563 -0.492187,0.2226562 -0.943359,0.5683594 V 0 h -1.101563 v -9.1171875 h 1.101563 v 3.2988281 q 0.515625,-0.4277343 1.066406,-0.6679687 0.550781,-0.2402344 1.130859,-0.2402344 1.060547,0 1.617188,0.6386719 0.55664,0.6386719 0.55664,1.8398437 z"
       id="path20" />
    <path
       d="m 45.779297,-3.1582031 h -4.822266 q 0,0.6035156 0.181641,1.0546875 0.18164,0.4453125 0.498047,0.7324219 0.304687,0.28125 0.720703,0.42187495 0.421875,0.140625 0.925781,0.140625 0.667969,0 1.341797,-0.26367185 0.679687,-0.2695313 0.966797,-0.5273438 h 0.05859 v 1.2011719 q -0.556641,0.234375 -1.136719,0.39257812 -0.580078,0.15820313 -1.21875,0.15820313 -1.628906,0 -2.542969,-0.87890625 -0.914062,-0.8847656 -0.914062,-2.5078125 0,-1.6054687 0.873046,-2.5488281 0.878907,-0.9433594 2.308594,-0.9433594 1.324219,0 2.039063,0.7734375 0.720703,0.7734375 0.720703,2.1972656 z m -1.072266,-0.84375 q -0.0059,-0.8671875 -0.439453,-1.3417969 -0.427734,-0.4746094 -1.306641,-0.4746094 -0.884765,0 -1.412109,0.5214844 -0.521484,0.5214844 -0.591797,1.2949219 z"
       id="path22" />
    <path
       d="m 50.917969,-3.2871094 h -3.65625 v -1.0605468 h 3.65625 z"
       id="path24" />
    <path
       d="m 57.574219,-1.8867187 q 0,0.89648432 -0.744141,1.47070307 -0.738281,0.57421875 -2.021484,0.57421875 -0.726563,0 -1.335938,-0.16992187 Q 52.869141,-0.1875 52.458984,-0.39257813 V -1.6289062 h 0.05859 q 0.521484,0.3925781 1.160156,0.6269531 0.638672,0.2285156 1.22461,0.2285156 0.726562,0 1.136718,-0.234375 0.410157,-0.234375 0.410157,-0.7382812 0,-0.3867188 -0.222657,-0.5859376 -0.222656,-0.1992187 -0.855468,-0.3398437 -0.234375,-0.052734 -0.615235,-0.1230469 -0.375,-0.070312 -0.685547,-0.1523437 -0.861328,-0.2285157 -1.224609,-0.6679688 -0.357422,-0.4453125 -0.357422,-1.0898437 0,-0.4042969 0.164063,-0.7617188 0.169922,-0.3574218 0.509765,-0.6386718 0.328125,-0.2753907 0.832032,-0.4335938 0.509765,-0.1640625 1.136718,-0.1640625 0.585938,0 1.183594,0.1464844 0.603516,0.140625 1.001953,0.3457031 v 1.1777344 h -0.05859 q -0.421875,-0.3105469 -1.02539,-0.5214844 -0.603516,-0.2167969 -1.183594,-0.2167969 -0.603516,0 -1.019531,0.234375 -0.416016,0.2285157 -0.416016,0.6855469 0,0.4042969 0.251953,0.609375 0.246094,0.2050781 0.796875,0.3339844 0.304688,0.070312 0.679688,0.140625 0.380859,0.070312 0.632812,0.1289062 0.767578,0.1757813 1.183594,0.6035156 0.416016,0.4335938 0.416016,1.1484376 z"
       id="path26" />
    <path
       d="m 64.628906,-3.1582031 h -4.822265 q 0,0.6035156 0.18164,1.0546875 0.181641,0.4453125 0.498047,0.7324219 0.304688,0.28125 0.720703,0.42187495 0.421875,0.140625 0.925781,0.140625 0.667969,0 1.341797,-0.26367185 0.679688,-0.2695313 0.966797,-0.5273438 H 64.5 v 1.2011719 q -0.556641,0.234375 -1.136719,0.39257812 -0.580078,0.15820313 -1.21875,0.15820313 -1.628906,0 -2.542969,-0.87890625 Q 58.6875,-1.6113281 58.6875,-3.234375 q 0,-1.6054687 0.873047,-2.5488281 0.878906,-0.9433594 2.308594,-0.9433594 1.324218,0 2.039062,0.7734375 0.720703,0.7734375 0.720703,2.1972656 z m -1.072265,-0.84375 q -0.0059,-0.8671875 -0.439454,-1.3417969 -0.427734,-0.4746094 -1.30664,-0.4746094 -0.884766,0 -1.41211,0.5214844 -0.521484,0.5214844 -0.591796,1.2949219 z"
       id="path28" />
    <path
       d="m 70.382812,-5.34375 h -0.05859 q -0.246094,-0.058594 -0.480469,-0.082031 -0.228516,-0.029297 -0.544922,-0.029297 -0.509766,0 -0.984375,0.2285156 -0.474609,0.2226563 -0.914062,0.5800781 V 0 h -1.101563 v -6.5449219 h 1.101563 v 0.9667969 q 0.65625,-0.5273437 1.154296,-0.7441406 0.503907,-0.2226563 1.025391,-0.2226563 0.287109,0 0.416016,0.017578 0.128906,0.011719 0.386718,0.052734 z"
       id="path30" />
    <path
       d="M 77.080078,-6.5449219 74.431641,0 h -1.107422 l -2.63086,-6.5449219 h 1.195313 l 2.027344,5.2089844 2.009765,-5.2089844 z"
       id="path32" />
    <path
       d="m 83.894531,-3.1582031 h -4.822265 q 0,0.6035156 0.18164,1.0546875 0.181641,0.4453125 0.498047,0.7324219 0.304688,0.28125 0.720703,0.42187495 0.421875,0.140625 0.925781,0.140625 0.667969,0 1.341797,-0.26367185 0.679688,-0.2695313 0.966797,-0.5273438 h 0.05859 v 1.2011719 q -0.556641,0.234375 -1.136719,0.39257812 -0.580078,0.15820313 -1.21875,0.15820313 -1.628906,0 -2.542969,-0.87890625 -0.914062,-0.8847656 -0.914062,-2.5078125 0,-1.6054687 0.873047,-2.5488281 0.878906,-0.9433594 2.308594,-0.9433594 1.324218,0 2.039062,0.7734375 0.720703,0.7734375 0.720703,2.1972656 z m -1.072265,-0.84375 q -0.0059,-0.8671875 -0.439454,-1.3417969 -0.427734,-0.4746094 -1.30664,-0.4746094 -0.884766,0 -1.41211,0.5214844 -0.521484,0.5214844 -0.591796,1.2949219 z"
       id="path34" />
    <path
       d="m 89.648437,-5.34375 h -0.05859 q -0.246094,-0.058594 -0.480469,-0.082031 -0.228516,-0.029297 -0.544922,-0.029297 -0.509766,0 -0.984375,0.2285156 -0.474609,0.2226563 -0.914062,0.5800781 V 0 h -1.101563 v -6.5449219 h 1.101563 v 0.9667969 q 0.65625,-0.5273437 1.154296,-0.7441406 0.503907,-0.2226563 1.025391,-0.2226563 0.287109,0 0.416016,0.017578 0.128906,0.011719 0.386718,0.052734 z"
       id="path36" />
  </g>
</svg>
