<?xml version="1.0" encoding="UTF-8" standalone="no"?>
<!-- Generator: Adobe Illustrator 27.2.0, SVG Export Plug-In . SVG Version: 6.00 Build 0)  -->

<svg
   version="1.1"
   id="Layer_1"
   x="0px"
   y="0px"
   viewBox="0 0 488.06567 177.4517"
   xml:space="preserve"
   sodipodi:docname="CAEBAT OAS.svg"
   width="488.06567"
   height="177.45171"
   inkscape:version="1.2.2 (b0a84865, 2022-12-01)"
   xmlns:inkscape="http://www.inkscape.org/namespaces/inkscape"
   xmlns:sodipodi="http://sodipodi.sourceforge.net/DTD/sodipodi-0.dtd"
   xmlns="http://www.w3.org/2000/svg"
   xmlns:svg="http://www.w3.org/2000/svg"><defs
   id="defs1027" /><sodipodi:namedview
   id="namedview1025"
   pagecolor="#ffffff"
   bordercolor="#666666"
   borderopacity="1.0"
   inkscape:showpageshadow="2"
   inkscape:pageopacity="0.0"
   inkscape:pagecheckerboard="0"
   inkscape:deskcolor="#d1d1d1"
   showgrid="false"
   inkscape:zoom="1.754717"
   inkscape:cx="265.28495"
   inkscape:cy="137.62903"
   inkscape:window-width="1582"
   inkscape:window-height="893"
   inkscape:window-x="0"
   inkscape:window-y="25"
   inkscape:window-maximized="0"
   inkscape:current-layer="Layer_1" />
<style
   type="text/css"
   id="style952">
	.st0{fill:#007934;}
</style>
<g
   id="g1022"
   transform="translate(0,-2.1)">
	
	<g
   id="g1018">
		<g
   id="g996">
			<path
   class="st0"
   d="m 95.7,87.5 c 0,7.5 0.3,13.6 0.5,15 0.1,2.2 0.7,3.3 2.4,3.3 h 1.2 c 0.3,0 0.3,0.2 0.3,0.3 v 1 c 0,0.2 0,0.3 -0.3,0.3 -0.5,0 -3.4,-0.1 -5.2,-0.1 -1.2,0 -4.5,0.1 -5,0.1 -0.2,0 -0.3,-0.1 -0.3,-0.3 V 106 c 0,-0.1 0.1,-0.2 0.3,-0.2 h 1.6 c 1.2,0 1.9,-1 2.2,-3.6 0,-0.8 0.3,-6.9 0.3,-14.1 v -5.6 c 0,-2.6 -1.6,-4.6 -3.7,-4.6 h -1.6 c -0.2,0 -0.3,-0.1 -0.3,-0.3 v -1.2 c 0,-0.2 0.1,-0.2 0.3,-0.2 0.2,0 0.7,0 1.5,0.1 0.9,0 2.2,0 4.3,0 0.8,0 1.6,0 2.2,-0.1 0.7,0 1,0 1.4,0 0.6,0 0.9,0.1 1.1,0.3 0.5,0.5 9.9,11.2 10.9,12.5 0.7,0.7 8.2,9.3 9,10.1 h 0.2 v -4.5 c 0,-3.9 0,-6.1 -0.1,-8.3 -0.1,-1.7 -0.3,-6 -0.6,-6.7 -0.3,-1 -1.4,-1.7 -2.5,-1.7 H 114 c -0.3,0 -0.3,-0.2 -0.3,-0.5 v -1 c 0,-0.2 0,-0.3 0.3,-0.3 0.6,0 2.2,0.1 5.3,0.1 2.8,0 4.1,-0.1 4.6,-0.1 0.3,0 0.5,0.2 0.5,0.3 v 1 c 0,0.2 -0.1,0.5 -0.3,0.5 h -1 c -0.9,0 -1.5,0.7 -1.6,2.4 -0.2,2.9 -0.7,10.4 -0.7,14.9 v 11.7 c 0,0.6 0,1.2 -0.6,1.2 -0.7,0 -1.2,-0.3 -1.6,-0.7 -0.3,-0.5 -2.9,-3.2 -6,-6.5 -3.4,-3.7 -7.1,-7.9 -7.7,-8.6 -0.7,-0.6 -8.4,-9.4 -9,-10.1 h -0.3 c 0.1,0 0.1,5.3 0.1,5.3 z"
   id="path960" />
			<path
   class="st0"
   d="m 138,105.3 c -1,1 -2.3,1.8 -4.2,2.4 -1.1,0.3 -2.2,0.3 -3.1,0.3 -1.8,0 -3.3,-1.4 -3.3,-3.7 0,-2 0.9,-4 4.4,-5.4 2.9,-1.4 4.8,-2 5.9,-2.7 v -2.3 c -0.1,-0.9 -0.2,-1.9 -0.8,-2.5 -0.5,-0.5 -1.4,-0.7 -2.4,-0.7 -0.9,0 -2,0.2 -2.8,0.8 -0.7,0.5 -0.2,1.1 -0.2,2.2 0,1.6 -0.9,2.6 -2.8,2.6 -0.9,0 -1.6,-0.6 -1.6,-1.5 0,-1.2 0.8,-2.6 2.2,-3.6 2,-1.4 4.6,-2.5 7.8,-2.5 2.7,0 3.5,0.6 4.4,1.2 1,0.9 1.1,2.2 1.1,3.3 l 0.1,6.9 v 2.2 c 0,2.4 0.3,3.1 1.2,3.1 0.7,0 1.4,-0.3 1.6,-0.7 0.2,-0.2 0.3,-0.2 0.5,-0.2 l 0.6,0.3 c 0.2,0.1 0.3,0.2 0.1,0.7 -0.5,0.8 -1.6,2.6 -4.4,2.6 -1.8,0 -3.4,-0.8 -4.1,-2.7 z m -0.3,-7.7 c -2.2,1.2 -5.3,1.9 -5.3,5.2 0,1.8 1,2.7 2.2,2.7 1.4,-0.1 3.1,-1.4 3.1,-2.2 v -5.7 z"
   id="path962" />
			<path
   class="st0"
   d="m 147,91.5 c -0.3,0 -0.7,-0.2 -0.7,-0.6 0,-0.4 0.3,-0.6 0.9,-0.8 1.4,-0.5 5.6,-3.7 6.6,-5.6 0.2,-0.3 0.5,-0.5 0.8,-0.5 0.3,0 0.6,0.2 0.6,0.6 l -0.2,4.3 h 6.3 c 0.3,0 0.3,0.2 0.3,0.3 l -0.5,1.8 c 0,0.2 -0.2,0.2 -0.5,0.2 H 155 c -0.1,1.8 -0.1,4 -0.1,5.9 v 4 c 0,3.4 1.6,4.2 2.5,4.2 1,0 2.2,-0.2 2.8,-0.6 0.3,-0.1 0.5,-0.1 0.6,0.1 l 0.3,0.6 c 0.1,0.2 0,0.5 -0.2,0.6 -0.7,0.5 -2.7,1.8 -6,1.8 -2.8,0 -5,-2.2 -5,-4 0,-1.6 0.1,-5.1 0.1,-6.8 v -5.6 h -3 z"
   id="path964" />
			<path
   class="st0"
   d="m 166.2,94.9 c 0,-1.4 -0.3,-2.2 -2.5,-2.7 -0.5,-0.1 -0.5,-0.2 -0.5,-0.3 v -0.5 c 0,-0.2 0.1,-0.2 0.3,-0.3 0.7,-0.2 5.4,-1.8 6.2,-2.2 0.5,-0.2 0.9,-0.2 1.1,-0.2 0.3,0 0.5,0.2 0.3,0.6 -0.1,0.7 -0.1,3.5 -0.1,7.1 v 4.8 c 0,1.7 0,3.3 0.1,3.7 0.1,0.8 0.3,1.1 0.8,1.1 h 1.9 c 0.3,0 0.5,0.1 0.5,0.3 v 0.9 c 0,0.2 -0.1,0.5 -0.3,0.5 -0.3,0 -2.6,-0.1 -5.8,-0.1 -2.8,0 -4.6,0.1 -5.2,0.1 -0.2,0 -0.3,-0.1 -0.3,-0.5 v -0.8 c 0,-0.2 0.2,-0.3 0.5,-0.3 h 2.2 c 0.5,0 0.7,-0.2 0.8,-0.9 0,-1.4 0.1,-2.7 0.1,-4 V 94.9 Z M 167.9,84 c -1.5,0 -2.9,-1 -2.9,-2.5 0,-1.2 1.2,-2.5 3.2,-2.5 1.9,0 2.8,1.2 2.8,2.3 -0.1,1.4 -1,2.7 -3.1,2.7 z"
   id="path966" />
			<path
   class="st0"
   d="m 193.7,91.2 c 2.3,2 3.3,4.3 3.3,6.9 0,2.5 -1.1,4.9 -2.9,6.7 -1.9,2 -4.9,3.2 -8,3.2 -3.1,0 -5.7,-0.8 -7.8,-3.2 -2.2,-2.3 -2.6,-4.2 -2.6,-6.8 0,-2.2 1.1,-5.2 4.1,-7.4 2.4,-1.8 4.9,-2.2 6.8,-2.2 3.1,0.2 5.4,1.3 7.1,2.8 z m -2.6,6.8 c 0,-4.9 -2.8,-7.7 -5,-7.7 -1.2,0 -2.2,0.3 -3.1,1.1 -1.5,1.6 -2,3.4 -2,6.6 0,2.6 0.2,4.2 1.5,6.1 0.8,1.1 1.9,1.9 3.7,1.9 3.3,0.1 4.9,-3.5 4.9,-8 z"
   id="path968" />
			<path
   class="st0"
   d="m 204.7,88.9 c 0.3,-0.2 0.7,-0.3 0.9,-0.3 0.3,0 0.5,0.2 0.6,0.6 l 0.3,2.3 h 0.3 c 0.6,-0.6 1.5,-1.4 2.4,-1.8 1.1,-0.6 2.4,-1 3.9,-1 1.6,0 3.2,0.2 4.2,1 2.2,1.4 2.6,2.7 2.6,4.5 v 6.3 c 0,1.4 0,3.4 0,4.2 0,1 0.6,1.2 1.1,1.2 h 1.4 c 0.5,0 0.6,0.1 0.6,0.3 v 1 c 0,0.2 -0.1,0.3 -0.3,0.3 -0.3,0 -1.8,-0.1 -5.2,-0.1 -2.8,0 -4.4,0.1 -4.6,0.1 -0.3,0 -0.3,-0.2 -0.3,-0.6 v -0.8 c 0,-0.2 0.1,-0.3 0.6,-0.3 h 0.9 c 0.3,0 0.8,-0.2 0.9,-1 0.1,-1.1 0.2,-2.4 0.2,-4.2 v -5 c 0,-1.8 -0.1,-2.9 -1.2,-3.7 -0.9,-0.8 -1.8,-0.8 -2.8,-0.8 -0.8,0 -1.9,0.2 -3.1,1.1 -0.8,0.7 -1,1.9 -1,3.2 v 9.1 c 0,1 0.2,1.5 0.9,1.5 h 0.9 c 0.3,0 0.5,0.1 0.5,0.3 v 0.8 c 0,0.2 -0.1,0.5 -0.3,0.5 -0.3,0 -1.6,-0.1 -4.5,-0.1 -2.9,0 -4.5,0.1 -4.8,0.1 -0.2,0 -0.3,-0.2 -0.3,-0.5 v -0.7 c 0,-0.2 0.1,-0.3 0.5,-0.3 h 0.9 c 0.6,0 1.2,-0.2 1.2,-0.9 v -9.9 c 0,-1.4 -0.9,-2 -2,-2.6 l -0.3,-0.2 c -0.3,-0.1 -0.3,-0.2 -0.3,-0.5 v -0.3 c 0,-0.2 0.2,-0.3 0.5,-0.5 z"
   id="path970" />
			<path
   class="st0"
   d="m 236,105.3 c -1,1 -2.3,1.8 -4.2,2.4 -1.1,0.3 -2.2,0.3 -3.1,0.3 -1.8,0 -3.3,-1.4 -3.3,-3.7 0,-2 0.9,-4 4.4,-5.4 2.9,-1.4 4.8,-2 5.9,-2.7 v -2.3 c -0.1,-0.9 -0.2,-1.9 -0.8,-2.5 -0.5,-0.5 -1.4,-0.7 -2.4,-0.7 -0.9,0 -2,0.2 -2.8,0.8 -0.7,0.5 -0.2,1.1 -0.2,2.2 0,1.6 -0.9,2.6 -2.8,2.6 -0.9,0 -1.6,-0.6 -1.6,-1.5 0,-1.2 0.8,-2.6 2.2,-3.6 2,-1.4 4.6,-2.5 7.8,-2.5 2.7,0 3.5,0.6 4.4,1.2 1,0.9 1.1,2.2 1.1,3.3 l 0.1,6.9 v 2.2 c 0,2.4 0.3,3.1 1.2,3.1 0.7,0 1.4,-0.3 1.6,-0.7 0.2,-0.2 0.3,-0.2 0.5,-0.2 l 0.6,0.3 c 0.2,0.1 0.3,0.2 0.1,0.7 -0.5,0.8 -1.6,2.6 -4.4,2.6 -1.8,0 -3.4,-0.8 -4.1,-2.7 z m -0.2,-7.7 c -2.2,1.2 -5.3,1.9 -5.3,5.2 0,1.8 1,2.7 2.2,2.7 1.4,-0.1 3.1,-1.4 3.1,-2.2 v -5.7 z"
   id="path972" />
			<path
   class="st0"
   d="m 249.6,90.6 c 0,-3.1 -0.1,-6.9 -0.2,-8 -0.1,-1.5 -0.9,-2.2 -2.5,-2.6 L 246,79.8 c -0.3,-0.1 -0.3,-0.2 -0.3,-0.3 v -0.6 c 0,-0.1 0.1,-0.2 0.3,-0.3 1.9,-0.6 5.7,-1.7 7.3,-2.6 0.6,-0.2 0.9,-0.2 1,-0.2 0.3,0 0.5,0.2 0.5,0.8 -0.1,2.4 -0.2,11.6 -0.2,13.9 v 6.3 c 0,2 0,6.5 0.1,7.8 0.1,0.8 0.2,1.4 1.2,1.4 h 1.8 c 0.5,0 0.6,0.1 0.6,0.3 v 0.8 c 0,0.2 -0.1,0.5 -0.3,0.5 -0.3,0 -2.5,-0.1 -5.9,-0.1 -3.6,0 -5.6,0.1 -5.9,0.1 -0.3,0 -0.3,-0.2 -0.3,-0.5 v -0.8 c 0,-0.2 0.1,-0.3 0.7,-0.3 h 1.8 c 0.5,0 1.2,-0.3 1.2,-1.6 v -12 -1.8 z"
   id="path974" />
			<path
   class="st0"
   d="m 299.4,98.4 c 0.1,0.1 0.1,0.2 0.1,0.5 -0.2,0.2 -2.2,7.6 -2.4,8.7 -1.2,0 -15.1,-0.1 -20,-0.1 -4.3,0 -6,0.1 -6.6,0.1 -0.3,0 -0.3,-0.1 -0.3,-0.3 v -1 c 0,-0.2 0,-0.3 0.3,-0.3 h 1.9 c 1.7,0 2,-0.6 2,-1.1 0,-0.8 0.2,-11.8 0.2,-14.4 v -2.6 c 0,-2.8 -0.1,-7.5 -0.2,-8.3 -0.1,-1.1 -0.3,-1.6 -1.6,-1.6 h -2 c -0.3,0 -0.3,-0.2 -0.3,-0.5 v -1 c 0,-0.2 0.1,-0.3 0.3,-0.3 0.5,0 2.2,0.1 6.6,0.1 5.2,0 7.3,-0.1 7.6,-0.1 0.3,0 0.5,0.2 0.5,0.3 v 1 c 0,0.2 -0.1,0.3 -0.5,0.3 h -2.6 c -1.5,0 -1.6,0.5 -1.6,1.6 0,0.6 -0.2,7.3 -0.2,10.3 v 3.7 c 0,0.8 0,10.3 0.2,12.2 h 2.7 c 2.7,0 6.1,0 8,-0.2 2.7,-0.3 5.8,-5.7 6.5,-7.3 0.2,-0.2 0.3,-0.2 0.6,-0.2 z"
   id="path976" />
			<path
   class="st0"
   d="m 313,105.3 c -1,1 -2.3,1.8 -4.2,2.4 -1.1,0.3 -2.2,0.3 -3.1,0.3 -1.8,0 -3.3,-1.4 -3.3,-3.7 0,-2 0.9,-4 4.4,-5.4 2.9,-1.4 4.8,-2 5.9,-2.7 v -2.3 c -0.1,-0.9 -0.2,-1.9 -0.8,-2.5 -0.5,-0.5 -1.4,-0.7 -2.4,-0.7 -0.9,0 -2,0.2 -2.8,0.8 -0.7,0.5 -0.2,1.1 -0.2,2.2 0,1.6 -0.9,2.6 -2.8,2.6 -0.9,0 -1.6,-0.6 -1.6,-1.5 0,-1.2 0.8,-2.6 2.2,-3.6 2,-1.4 4.6,-2.5 7.8,-2.5 2.7,0 3.5,0.6 4.4,1.2 1,0.9 1.1,2.2 1.1,3.3 l 0.1,6.9 v 2.2 c 0,2.4 0.3,3.1 1.2,3.1 0.7,0 1.4,-0.3 1.6,-0.7 0.2,-0.2 0.3,-0.2 0.5,-0.2 l 0.6,0.3 c 0.2,0.1 0.3,0.2 0.1,0.7 -0.5,0.8 -1.6,2.6 -4.4,2.6 -1.8,0 -3.4,-0.8 -4.1,-2.7 z m -0.2,-7.7 c -2.2,1.2 -5.3,1.9 -5.3,5.2 0,1.8 1,2.7 2.2,2.7 1.4,-0.1 3.1,-1.4 3.1,-2.2 v -5.7 z"
   id="path978" />
			<path
   class="st0"
   d="m 325.8,107.8 c -0.2,0.1 -0.5,0.1 -0.7,0.1 l -0.7,-0.2 c -0.2,-0.1 -0.2,-0.2 -0.2,-0.3 0.1,-0.6 0.1,-4.3 0.1,-7.5 l -0.1,-16.1 c 0,-2.9 -0.6,-3.5 -2,-4 l -0.6,-0.2 c -0.6,-0.1 -0.7,-0.2 -0.7,-0.3 v -0.5 c 0,-0.1 0.1,-0.2 0.5,-0.3 1.9,-0.6 4.6,-1.8 6.2,-2.5 0.7,-0.3 1,-0.6 1.5,-0.6 0.3,0 0.6,0.2 0.5,0.7 0,0.3 -0.2,5.3 -0.2,9.2 v 5.3 c 1.6,-1.5 4.1,-2.3 6.6,-2.3 2.9,0 5.6,1.6 7,3.7 0.9,1.2 1.4,3.1 1.4,5.6 0,4.9 -4.6,10.2 -10.5,10.2 -2.8,0 -4.8,-0.6 -6.1,-1.1 z m 3.6,-9.8 c 0,3.7 0.1,5.1 0.7,6.5 0.6,1 1.9,1.9 3.5,1.9 1.6,0 3.3,-0.6 4.4,-2.3 1,-1.6 1.2,-2.9 1.2,-5 0,-5.1 -2.3,-7.9 -6.1,-7.9 -1.4,0 -2.7,0.5 -3.7,1.4 z"
   id="path980" />
			<path
   class="st0"
   d="m 365.1,91.2 c 2.3,2 3.3,4.3 3.3,6.9 0,2.5 -1.1,4.9 -2.9,6.7 -1.9,2 -4.9,3.2 -8,3.2 -3.1,0 -5.7,-0.8 -7.8,-3.2 -2.2,-2.3 -2.6,-4.2 -2.6,-6.8 0,-2.2 1.1,-5.2 4.1,-7.4 2.4,-1.8 4.9,-2.2 6.8,-2.2 3.2,0.2 5.6,1.3 7.1,2.8 z m -2.5,6.8 c 0,-4.9 -2.8,-7.7 -5,-7.7 -1.2,0 -2.2,0.3 -3.1,1.1 -1.5,1.6 -2,3.4 -2,6.6 0,2.6 0.2,4.2 1.5,6.1 0.8,1.1 1.9,1.9 3.7,1.9 3.4,0.1 4.9,-3.5 4.9,-8 z"
   id="path982" />
			<path
   class="st0"
   d="m 373.4,96.2 c 0,-2 -0.3,-2.7 -1.8,-3.4 l -0.9,-0.5 c -0.3,-0.1 -0.3,-0.2 -0.3,-0.3 v -0.2 c 0,-0.2 0.1,-0.2 0.3,-0.5 l 5.8,-2.5 c 0.3,-0.1 0.5,-0.2 0.8,-0.2 0.3,0 0.3,0.2 0.5,0.6 l 0.5,3.2 h 0.2 c 1.6,-2.5 3.6,-4 5.8,-4 1.6,0 2.5,1 2.5,2.2 0,1.2 -1.4,2.4 -2.6,2.4 -0.7,0 -1.2,-0.2 -1.6,-0.3 -0.3,-0.2 -0.9,-0.3 -1.4,-0.3 -0.6,0 -1.5,0.3 -2,1.2 -0.3,0.6 -0.6,1.6 -0.6,2.2 v 8.5 c 0,1.4 0.3,1.8 1.4,1.8 h 2.2 c 0.3,0 0.3,0.1 0.3,0.3 v 1 c 0,0.2 -0.1,0.3 -0.3,0.3 -0.3,0 -2.5,-0.1 -5.9,-0.1 -3.4,0 -5.2,0.1 -5.7,0.1 -0.2,0 -0.3,-0.1 -0.3,-0.3 v -1 c 0,-0.2 0.1,-0.3 0.5,-0.3 h 1.7 c 0.8,0 1.2,-0.3 1.2,-1.1 v -8.6 h -0.3 z"
   id="path984" />
			<path
   class="st0"
   d="m 398.7,105.3 c -1,1 -2.3,1.8 -4.2,2.4 -1.1,0.3 -2.2,0.3 -3.1,0.3 -1.8,0 -3.3,-1.4 -3.3,-3.7 0,-2 0.9,-4 4.4,-5.4 2.9,-1.4 4.8,-2 5.9,-2.7 v -2.3 c -0.1,-0.9 -0.2,-1.9 -0.8,-2.5 -0.5,-0.5 -1.4,-0.7 -2.4,-0.7 -0.9,0 -2,0.2 -2.8,0.8 -0.7,0.5 -0.2,1.1 -0.2,2.2 0,1.6 -0.9,2.6 -2.8,2.6 -0.9,0 -1.6,-0.6 -1.6,-1.5 0,-1.2 0.8,-2.6 2.2,-3.6 2,-1.4 4.6,-2.5 7.8,-2.5 2.7,0 3.5,0.6 4.4,1.2 1,0.9 1.1,2.2 1.1,3.3 l 0.1,6.9 v 2.2 c 0,2.4 0.3,3.1 1.2,3.1 0.7,0 1.4,-0.3 1.6,-0.7 0.2,-0.2 0.3,-0.2 0.5,-0.2 l 0.6,0.3 c 0.2,0.1 0.3,0.2 0.1,0.7 -0.5,0.8 -1.6,2.6 -4.4,2.6 -1.8,0 -3.4,-0.8 -4.1,-2.7 z m -0.2,-7.7 c -2.2,1.2 -5.3,1.9 -5.3,5.2 0,1.8 1,2.7 2.2,2.7 1.4,-0.1 3.1,-1.4 3.1,-2.2 v -5.7 z"
   id="path986" />
			<path
   class="st0"
   d="m 407.8,91.5 c -0.3,0 -0.7,-0.2 -0.7,-0.6 0,-0.4 0.3,-0.6 0.9,-0.8 1.4,-0.5 5.6,-3.7 6.6,-5.6 0.2,-0.3 0.5,-0.5 0.8,-0.5 0.3,0 0.6,0.2 0.6,0.6 l -0.2,4.3 h 6.3 c 0.3,0 0.3,0.2 0.3,0.3 l -0.5,1.8 c 0,0.2 -0.2,0.2 -0.5,0.2 h -5.8 c -0.1,1.8 -0.1,4 -0.1,5.9 v 4 c 0,3.4 1.6,4.2 2.5,4.2 1,0 2.2,-0.2 2.8,-0.6 0.3,-0.1 0.5,-0.1 0.6,0.1 l 0.3,0.6 c 0.1,0.2 0,0.5 -0.2,0.6 -0.7,0.5 -2.7,1.8 -6,1.8 -2.8,0 -5,-2.2 -5,-4 0,-1.6 0.1,-5.1 0.1,-6.8 v -5.6 h -2.9 v 0.1 z"
   id="path988" />
			<path
   class="st0"
   d="m 440.8,91.2 c 2.3,2 3.3,4.3 3.3,6.9 0,2.5 -1.1,4.9 -2.9,6.7 -1.9,2 -4.9,3.2 -8,3.2 -3.1,0 -5.7,-0.8 -7.8,-3.2 -2.2,-2.3 -2.6,-4.2 -2.6,-6.8 0,-2.2 1.1,-5.2 4.1,-7.4 2.4,-1.8 4.9,-2.2 6.8,-2.2 3.1,0.2 5.5,1.3 7.1,2.8 z m -2.5,6.8 c 0,-4.9 -2.8,-7.7 -5,-7.7 -1.2,0 -2.2,0.3 -3.1,1.1 -1.5,1.6 -2,3.4 -2,6.6 0,2.6 0.2,4.2 1.5,6.1 0.8,1.1 1.9,1.9 3.7,1.9 3.2,0.1 4.9,-3.5 4.9,-8 z"
   id="path990" />
			<path
   class="st0"
   d="m 449,96.2 c 0,-2 -0.3,-2.7 -1.8,-3.4 l -0.9,-0.5 C 446,92.2 446,92.1 446,92 v -0.2 c 0,-0.2 0.1,-0.2 0.3,-0.5 l 5.8,-2.5 c 0.3,-0.1 0.5,-0.2 0.8,-0.2 0.3,0 0.3,0.2 0.5,0.6 l 0.5,3.2 h 0.2 c 1.6,-2.5 3.6,-4 5.8,-4 1.6,0 2.5,1 2.5,2.2 0,1.2 -1.4,2.4 -2.6,2.4 -0.7,0 -1.2,-0.2 -1.6,-0.3 -0.3,-0.2 -0.9,-0.3 -1.4,-0.3 -0.6,0 -1.5,0.3 -2,1.2 -0.3,0.6 -0.6,1.6 -0.6,2.2 v 8.5 c 0,1.4 0.3,1.8 1.4,1.8 h 2.2 c 0.3,0 0.3,0.1 0.3,0.3 v 1 c 0,0.2 -0.1,0.3 -0.3,0.3 -0.3,0 -2.5,-0.1 -5.9,-0.1 -3.4,0 -5.2,0.1 -5.7,0.1 -0.2,0 -0.3,-0.1 -0.3,-0.3 v -1 c 0,-0.2 0.1,-0.3 0.5,-0.3 h 1.7 c 0.8,0 1.2,-0.3 1.2,-1.1 V 96.4 H 449 Z"
   id="path992" />
			<path
   class="st0"
   d="m 463,117 c 0,-1.2 1,-2.2 2.3,-2.2 0.8,0 1.6,0.2 2.2,0.6 0.3,0.2 0.9,0.2 1.2,-0.1 0.6,-0.6 3.1,-5.3 3.6,-7 -0.3,-1.4 -5.9,-15.1 -6.2,-15.8 -0.6,-1.1 -1,-1.8 -1.9,-1.8 h -0.9 c -0.3,0 -0.3,-0.1 -0.3,-0.3 v -1 c 0,-0.2 0.1,-0.3 0.3,-0.3 0.3,0 1.6,0.1 5.1,0.1 2.8,0 4.2,-0.1 4.8,-0.1 0.3,0 0.3,0.1 0.3,0.3 v 1 c 0,0.2 -0.1,0.3 -0.3,0.3 h -0.7 c -0.5,0 -0.9,0.2 -0.7,0.9 0.1,0.9 3.1,9.9 3.5,10.9 h 0.2 c 0.9,-1.7 4.2,-9.2 4.4,-10.1 0.3,-1.1 -0.1,-1.7 -1,-1.7 h -0.8 c -0.3,0 -0.3,-0.1 -0.3,-0.3 v -1 c 0,-0.2 0.1,-0.3 0.3,-0.3 0.6,0 1.6,0.1 4.1,0.1 1.6,0 2.8,-0.1 3.2,-0.1 0.2,0 0.3,0.1 0.3,0.3 v 0.9 c 0,0.2 -0.1,0.3 -0.3,0.3 h -0.6 c -0.5,0 -1.2,0.1 -1.7,0.8 -0.9,1.1 -4.2,7.7 -7.7,14.9 -2.4,4.8 -4.4,8.8 -5.3,10.3 -0.8,1.1 -1.7,2.9 -4.3,2.9 -1.7,-0.1 -2.8,-1 -2.8,-2.5 z"
   id="path994" />
		</g>
		<g
   id="g1014">
			<path
   class="st0"
   d="m 135.8,9.4 c 6,4.9 10.9,12.8 10.9,23.7 0,5.9 -1.6,12.1 -5.9,17.6 -5.1,6.5 -12,11.3 -24,11.3 C 112,62 105.1,60.5 98.7,56.7 93,53.3 87,44.6 87,33 87,28.2 88.4,20.6 94.4,13.2 101.4,4.6 110,3 117,3 c 5.9,0.1 12.2,1.2 18.8,6.4 z M 105.1,11 c -4.9,4.8 -7.3,12.9 -7.3,19.4 0,20.9 12.8,28.2 19.5,28.2 16.2,0 18.7,-17.9 18.7,-24.7 0,-17.5 -11.9,-27.4 -19.5,-27.4 -1.3,0.1 -6,-0.7 -11.4,4.5 z"
   id="path998" />
			<path
   class="st0"
   d="m 158.7,43.1 c -0.6,1.5 -3.7,10.8 -4.1,12.6 -0.1,0.6 -0.1,1 -0.1,1.4 0,0.8 1,1.6 2.4,1.6 h 2.7 c 0.6,0 0.7,0.1 0.7,0.3 v 1.6 c 0,0.3 -0.1,0.7 -0.6,0.7 -0.9,0 -3.6,-0.2 -8.2,-0.2 -4.8,0 -6.2,0.2 -7.1,0.2 -0.3,0 -0.3,-0.3 -0.3,-0.8 v -1.2 c 0,-0.3 0.1,-0.6 0.3,-0.6 h 1.9 c 1.8,0 2.9,-0.9 4.2,-2.9 0.7,-1.1 5.3,-12.9 7.3,-18.4 0.5,-1.2 5.8,-15.3 6.3,-17 0.1,-0.7 0.6,-1.8 0.1,-2.3 -0.2,-0.2 -0.3,-0.6 -0.3,-0.8 0,-0.2 0.1,-0.6 0.7,-0.7 2,-0.6 5.7,-2.5 6.5,-3.3 0.3,-0.3 0.7,-0.7 1,-0.7 0.3,0 0.7,0.8 0.8,1.1 1.1,4.1 6.2,18.6 7.4,22.8 1.6,5.1 5.7,17.2 6.7,18.9 1.1,2.3 2.8,2.9 4.2,2.9 h 2 c 0.3,0 0.6,0.1 0.6,0.5 v 1.4 c 0,0.3 -0.1,0.8 -0.7,0.8 -1.1,0 -2.5,-0.2 -9.6,-0.2 -5.4,0 -7.7,0.2 -9.1,0.2 -0.6,0 -0.7,-0.3 -0.7,-0.8 V 59 c 0,-0.3 0.1,-0.6 0.6,-0.6 h 1.7 c 1.8,0 2.4,-0.7 1.9,-2.4 -0.6,-2.4 -3.2,-10.7 -3.9,-13 h -15.3 z m 14.5,-2.6 c -0.7,-1.9 -5.1,-16.7 -5.4,-18 -0.2,-0.8 -0.3,-1.1 -0.7,-1.1 -0.4,0 -0.7,0.2 -0.8,0.8 -0.2,0.8 -6.1,16.9 -6.6,18.4 z"
   id="path1000" />
			<path
   class="st0"
   d="m 209.7,43.3 c 0,3.3 0.1,12.7 0.2,13.7 0.1,0.9 0.7,1.5 1.5,1.5 h 2.5 c 0.2,0 0.6,0.1 0.6,0.3 v 1.7 c 0,0.2 -0.1,0.6 -0.3,0.6 -0.8,0 -2.7,-0.2 -8.3,-0.2 -5.6,0 -7.7,0.2 -8.3,0.2 -0.2,0 -0.3,-0.1 -0.3,-0.5 v -1.7 c 0,-0.2 0.1,-0.3 0.3,-0.3 h 2.4 c 1.1,0 1.7,-0.6 1.7,-1.2 0.1,-0.6 0.2,-12.4 0.2,-20.4 v -3.7 c 0,-1.1 -0.1,-13.7 -0.1,-14.3 0,-0.8 -0.3,-1.6 -1.9,-1.6 H 198 c -0.3,0 -0.6,-0.1 -0.6,-0.5 v -1.8 c 0,-0.2 0.1,-0.3 0.6,-0.3 0.8,0 2.7,0.2 8.3,0.2 5.1,0 7.1,-0.2 8,-0.2 0.3,0 0.6,0.1 0.6,0.5 v 1.6 c 0,0.3 -0.1,0.6 -0.6,0.6 h -2 c -1.2,0 -1.9,0.3 -1.9,1.9 0,1 -0.2,11.2 -0.2,14.3 v 2.8 h 1.1 c 0.8,0 1.5,-0.2 2.3,-0.9 1.2,-1 12.6,-15.2 13.3,-16.1 0.9,-1.2 0.1,-2 -1,-2 h -1 c -0.2,0 -0.3,-0.1 -0.3,-0.5 v -1.7 c 0,-0.3 0.1,-0.6 0.3,-0.6 0.8,0 3.4,0.2 7.7,0.2 2.6,0 4.8,-0.2 5.6,-0.2 0.3,0 0.6,0.1 0.6,0.5 v 1.6 c 0,0.3 -0.2,0.6 -0.6,0.6 h -1.5 c -0.9,0 -2.4,0.2 -3.6,1.1 -3.1,2 -12.2,12.6 -14.7,15.9 2.6,3.3 15.9,20.4 17.8,22.7 1.1,1.5 2.8,1.6 3.9,1.6 h 1.5 c 0.3,0 0.6,0.2 0.6,0.5 v 1.6 c 0,0.3 -0.1,0.6 -0.6,0.6 -0.7,0 -2.9,-0.2 -9,-0.2 -5.4,0 -7.9,0.2 -8.8,0.2 -0.2,0 -0.3,-0.1 -0.3,-0.6 v -1.6 c 0,-0.2 0.1,-0.3 0.3,-0.3 h 0.9 c 1.1,0 1.2,-1.1 1,-1.7 C 225,56 214.5,40.8 213.5,39.7 212.8,39 212,38.8 211.2,38.8 h -1.1 v 4.5 z"
   id="path1002" />
			<path
   class="st0"
   d="m 277.2,39.9 c 0,4.8 0.1,13.7 0.3,15 0.2,1.6 0.8,3.1 2,3.1 h 4 c 0.5,0 0.7,0.2 0.7,0.6 v 1.9 c 0,0.6 -0.2,0.7 -0.9,0.7 -1,0 -2.6,-0.2 -11,-0.2 -7.8,0 -9.7,0.2 -10.5,0.2 -0.5,0 -0.7,-0.2 -0.7,-0.7 v -1.8 c 0,-0.5 0.1,-0.7 0.5,-0.7 h 2.7 c 1.8,0 3.1,-0.5 3.1,-2.6 0.1,-8 0.1,-15.5 0.1,-23 V 11.3 c 0,-2.7 -1.1,-4 -2.6,-4 h -3.2 c -0.5,0 -0.6,-0.1 -0.6,-0.5 V 4.6 c 0,-0.5 0.1,-0.6 0.6,-0.6 0.6,0 3.2,0.2 11,0.2 4.5,0 11.9,-0.2 14.3,-0.2 6.5,0 11.3,2.2 14.6,5 2.8,2.6 4.3,5.9 4.3,9 0,10.1 -6.1,14.3 -14.9,15.6 v 0.3 c 2.3,0.8 3.6,2.3 4.8,3.6 0.9,1.2 5.9,8.8 6.6,9.7 0.5,0.8 5.6,8 6.8,9.2 1.5,1.4 3.7,1.5 5.7,1.5 0.5,0 0.7,0.2 0.7,0.6 v 1.7 c 0,0.6 -0.1,0.8 -0.7,0.8 -0.7,0 -2.7,-0.2 -7.8,-0.2 -2.3,0 -5.3,0.1 -7,0.2 -0.9,-0.7 -2.5,-2.8 -3.5,-4.5 -1.5,-2.3 -4.5,-8 -5.3,-9.3 -0.8,-1.5 -3.1,-5.1 -4.3,-6.9 -2,-2.8 -3.9,-5 -7.3,-5 -0.3,0 -1.7,0.1 -2.6,0.1 l 0.1,4.5 z m 0.1,-7.1 c 1.1,0.1 2,0.3 3.1,0.3 12.5,0 15.1,-10.1 15.1,-13.7 0,-3.6 -1.5,-7.1 -3.5,-9 C 289.2,7.8 285.4,7 281.5,7 c -1.2,0 -2.3,0.1 -2.8,0.5 -0.7,0.5 -0.9,1.4 -0.9,2.3 z"
   id="path1004" />
			<path
   class="st0"
   d="m 333.6,39.8 c 0,0.7 0.1,15.6 0.1,16.3 0,2 1,2.4 2.6,2.4 h 2.7 c 0.2,0 0.6,0.1 0.6,0.5 v 1.6 c 0,0.3 -0.2,0.6 -0.7,0.6 -0.8,0 -3.4,-0.2 -9.5,-0.2 -6.5,0 -9.4,0.2 -10,0.2 -0.3,0 -0.6,-0.1 -0.6,-0.5 V 59 c 0,-0.2 0.1,-0.3 0.6,-0.3 h 2.6 c 1.2,0 2.7,-0.1 2.9,-1.9 0.1,-0.9 0.2,-15 0.2,-18.5 v -4.5 c 0,-1.6 -0.1,-13.3 -0.2,-14.2 -0.2,-1.6 -0.8,-2.3 -2.7,-2.3 h -3.4 c -0.3,0 -0.6,-0.1 -0.6,-0.5 v -1.7 c 0,-0.3 0.1,-0.5 0.3,-0.5 0.8,0 4.2,0.2 10.5,0.2 6.2,0 8.3,-0.2 9.2,-0.2 0.3,0 0.6,0.2 0.6,0.6 v 1.5 c 0,0.3 -0.2,0.6 -0.6,0.6 H 336 c -1.5,0 -2.5,0.6 -2.5,1.7 0,0.7 -0.1,15 -0.1,15.8 z"
   id="path1006" />
			<path
   class="st0"
   d="m 350.9,31 c 0,-1.7 -0.2,-10.9 -0.3,-11.9 -0.1,-1.6 -1,-1.8 -2.4,-1.8 h -3.5 c -0.2,0 -0.6,-0.1 -0.6,-0.5 V 15 c 0,-0.2 0.2,-0.3 0.6,-0.3 1.9,0 5.2,0.2 9.9,0.2 3.3,0 6.5,-0.2 9.7,-0.2 8.7,0 15.8,0.8 21.8,5.9 4.3,3.5 7.3,9 7.3,16.6 0,7.4 -2,12.4 -6.3,17 -6.3,6.9 -16.6,6.9 -21,6.9 -2.5,0 -9.1,-0.2 -12.4,-0.2 -5.8,0 -8.3,0.2 -9.2,0.2 -0.2,0 -0.3,-0.1 -0.3,-0.6 v -1.6 c 0,-0.2 0.1,-0.3 0.6,-0.3 h 3.7 c 1.2,0 1.9,-0.6 2.2,-1.6 0.2,-1.2 0.5,-16 0.5,-21 v -5 z m 8.2,6.4 c 0,0.8 0.1,11.8 0.1,15.9 0,1.2 0.2,2.4 1.1,3.6 0.8,1.2 3.3,1.7 5.8,1.7 5.1,0 10.3,-2.3 13.5,-6.6 2.7,-3.5 4.6,-8.8 4.6,-14.9 0,-5.2 -2.3,-10.8 -5.2,-14.2 -3.5,-3.7 -9.2,-6.1 -14.6,-6.1 -1.5,0 -3.2,0 -4.2,0.7 -0.9,0.6 -1.1,1.6 -1.1,2.8 C 359,23 359,31.5 359,32.5 v 4.8 h 0.1 z"
   id="path1008" />
			<path
   class="st0"
   d="m 441.5,54.6 c 0,0.9 0.2,1.6 0.2,2 0,0.6 -0.3,0.8 -1,1 -5.3,2.7 -10.7,4.3 -18.5,4.3 -6.3,0 -14.3,-2.3 -18.7,-7.6 -4.1,-4.4 -6,-10 -6,-17.7 0,-6 2.6,-12.2 7.4,-16.4 4.6,-4.2 10.7,-6.3 18.5,-6.3 6.2,0 11.2,1.9 13.3,3.5 0.8,0.6 1.1,0.3 1.6,-0.1 l 0.8,-1 c 0.3,-0.5 0.6,-0.7 0.9,-0.7 0.7,0 0.8,0.3 0.8,0.9 l 0.7,13 c 0,0.6 0,0.8 -0.2,0.9 l -1.6,0.2 c -0.3,0.1 -0.6,-0.1 -0.7,-0.6 -0.9,-2.6 -2.6,-6.2 -5.2,-9 -2.3,-2.4 -5.9,-4.5 -10.8,-4.5 -4.1,0 -7.6,1 -11.1,5.1 -3.2,3.5 -5.3,9 -5.3,14.7 0,7.7 2,14.3 5.9,18.1 3.2,2.9 6.2,4.4 10.4,4.4 4.2,0 6.7,-0.6 8.8,-1.7 1.5,-0.8 1.6,-2.6 1.6,-6 v -4.8 c 0,-2.4 -0.7,-2.9 -2.4,-2.9 h -2.7 c -0.3,0 -0.6,-0.2 -0.6,-0.6 v -1.5 c 0,-0.3 0.1,-0.6 0.3,-0.6 0.8,0 3.9,0.2 9.2,0.2 5.4,0 7.7,-0.2 8.3,-0.2 0.6,0 0.7,0.1 0.7,0.5 v 1.6 c 0,0.3 -0.1,0.6 -0.6,0.6 h -2.3 c -1.1,0 -1.9,0.6 -1.9,2.4 v 8.6 h 0.2 z"
   id="path1010" />
			<path
   class="st0"
   d="m 461.6,42.1 c 0.1,3.5 0.2,9.9 0.2,11.1 0,3.4 1.1,4.6 2.6,5.1 1,0.2 2.6,0.6 5.1,0.6 1.1,0 4.2,-0.1 5.4,-0.2 1.1,-0.1 3.6,-0.8 5.3,-2.3 1.1,-1 4.8,-5.3 6,-6.9 0.2,-0.3 0.5,-0.3 0.7,-0.2 l 1,0.7 c 0.2,0.1 0.2,0.3 0.1,0.7 l -3.2,9.7 c -0.2,0.6 -0.7,1 -1.5,1 -0.7,0 -5.8,-0.2 -27.4,-0.2 -4.8,0 -7.1,0.2 -8.3,0.2 -0.3,0 -0.6,-0.1 -0.6,-0.6 v -1.6 c 0,-0.3 0.1,-0.6 0.7,-0.6 h 2.3 c 2.9,0 3.3,-0.3 3.3,-2.8 V 40.3 34 c 0,-5.3 -0.1,-13.4 -0.2,-14.3 -0.2,-1.7 -0.9,-2.3 -2.8,-2.3 h -2.5 c -0.2,0 -0.3,-0.1 -0.3,-0.5 v -1.7 c 0,-0.3 0.1,-0.5 0.3,-0.5 1.5,0 3.7,0.2 9.1,0.2 h 1.8 c 2.8,0 17.8,-0.1 20.6,-0.1 1,0 2.3,-0.1 2.6,-0.1 0.3,0 0.5,0.1 0.6,0.3 0.2,0.8 2.7,9.7 2.9,10.3 0.1,0.3 0.1,0.6 -0.2,0.7 l -1.1,0.6 c -0.2,0.1 -0.3,0 -0.6,-0.3 -0.2,-0.3 -5.6,-6.3 -7.1,-7.3 -1.4,-0.8 -3.2,-1.6 -5,-1.7 l -9.9,-0.2 -0.1,18.8 c 1.9,0 6.7,-0.1 7.4,-0.3 1.5,-0.2 2.3,-0.8 2.9,-2.4 0.3,-0.8 1,-2.5 1,-3.6 0,-0.3 0.2,-0.6 0.6,-0.6 l 1.7,0.1 c 0.2,0 0.5,0.1 0.3,0.6 -0.1,1 -0.1,5.3 -0.1,7 0,2.6 0.2,5.7 0.3,7.1 0,0.3 -0.1,0.3 -0.6,0.5 l -1.5,0.2 c -0.2,0.1 -0.3,-0.1 -0.6,-0.5 -0.2,-1 -0.7,-2.5 -1,-3.3 -0.6,-1.2 -1.8,-2.3 -3.3,-2.4 -2.4,-0.2 -5.4,-0.3 -7.6,-0.3 z"
   id="path1012" />
		</g>
		<path
   class="st0"
   d="m 5.3,65.3 c 0,0 1.4,0.2 3.5,-1.4 2.7,-2 3.5,-2.9 4,-4 0,0 0.3,-0.9 -1.7,-2.5 C 8.8,55.6 2,51.7 2,51.7 2.5,51.5 3.9,51.7 5.2,51.4 5.2,51.4 3.7,50.5 2,48.8 0.3,47.1 0,46 0,46 c 0.6,0.1 2.4,0.5 4.8,1.9 0,0 2.7,1.6 1.8,-0.5 -0.7,-1.9 -1.2,-2 -1.2,-2 0,0 4.5,0.5 8.7,1.4 4.2,0.9 9.7,4.4 11.6,2.3 1.9,-2.2 4.2,-5.9 -0.8,-9.3 -5,-3.4 -7.7,-3.7 -11,-4.6 -3.4,-0.9 -3.9,-1 -7,-1.6 C 3.7,33 2.6,29.9 2.6,29.9 c 0,0 5.2,2.8 5.8,0.6 C 8.9,28.1 8.1,26.4 6.5,24.7 4.8,23 3.6,21.1 3.6,21.1 c 0,0 0.1,0.3 2.8,0.7 2.6,0.3 2.8,2.4 2.6,0.3 -0.1,-2 -1.5,-3.9 -1.5,-3.9 0,0 1.9,1.1 4.8,2.7 2.8,1.6 6,5 7.4,3.4 1.4,-1.5 2.9,-2.2 0.8,-5.3 -2.5,-3.9 -4.4,-9.1 -4.4,-9.1 0.7,0.5 2,1.2 2.6,1.1 0,-0.3 -1.1,-4.3 -1.8,-5.4 0,0 1.1,-0.1 3.2,1.4 2,1.6 2,1.6 2,1.6 0.1,-0.2 0.7,-1.4 0.7,-2 0,0 3.4,2.6 4.2,4.3 0.8,1.7 4.4,4.1 4.2,1.7 -0.3,-2.4 -1.4,-3.5 -1.4,-3.5 0.6,0.1 2.2,1.1 2.4,1.4 0,0 1.5,-0.3 0.6,-3.2 -1,-2.8 -1.2,-5.2 -1.2,-5.2 1.7,1.1 3.6,5.1 5.9,6 0.1,-0.8 -0.2,-2.4 -0.1,-2.8 0,0 2.6,2.4 2.4,6.8 -0.2,4.5 0.1,8.7 -0.6,12.4 -0.8,4.3 2,10.3 4.5,7.5 2.4,-2.8 3.1,-5.7 4.2,-9.5 1.4,-4.6 4.8,-7.4 4.8,-7.4 0,0 -1.1,2.7 -0.3,3.5 0.9,-1.7 1.5,-1.2 3.1,-3.2 3.7,-4.6 7.3,-6.5 7.3,-6.5 0,0 -1.9,2.2 -2.6,4.2 -0.7,2 0.2,5.6 1.2,3.9 1.2,-2 2.9,-2.9 2.9,-2.9 0,0 0.3,1.9 -2.2,7.4 -1.4,2.9 -5.3,6.2 -3.1,7.7 2.5,1.7 4.2,2 5.9,1.2 2.2,-1.1 3.4,-1.1 3.4,-1.1 -0.1,0.7 -1,1 -1.1,1.8 0.2,0.5 1.9,-1.4 3.9,-1.5 -2.5,4.6 -5,5 -4.9,6.1 0.8,0.6 2.6,0.2 3.5,1.2 0,0 -5,0.8 -7.7,2.2 -2.7,1.4 -6.2,4.9 -8.2,8.4 -2.5,4.2 -4.3,14.9 0.9,10.2 C 59.9,53 64.8,44 64.8,44 c 0,0 -0.5,4.4 1.6,3.4 2,-1 6.3,-4.9 6.3,-4.9 0,0 -0.3,3.2 -2.5,7.1 -1.4,2.5 -2.3,4.1 -1.9,5.8 0.3,0.6 1.2,-1.5 6.5,-2.6 0,0 -2.4,3.5 -5.7,6 -3.6,2.6 -6.9,5.8 -7.6,8.5 -0.8,2.8 2.3,6.7 6.3,3.2 2.4,-1.9 4.3,-4.6 5.3,-6.8 0.9,-2 2.9,-6 4.1,-7.4 0,1.1 0.7,3.3 1,3.7 0.6,0.2 1.2,-0.7 5.4,-1.8 0,4.9 -2.6,7.1 -2,7.8 0,0 0.6,0.8 2.3,0.3 2.6,-0.7 2.7,-0.5 2.7,-0.5 0,0 -3.4,4.8 -10.7,7.7 -3.9,1.6 -19,7.3 -16.7,16.2 0.5,1.8 7.4,12.9 17.6,13.5 l 1.8,-0.1 c 1,-0.1 1.5,-0.3 1.7,-0.1 0.2,0.2 0.1,0.6 0.3,1.7 0.3,1.8 -1.9,1.4 -6.3,0.2 -8,-1.9 -13.9,-10.4 -16.6,-14.2 0,0 -2.5,-3.2 -5.8,-5.1 -3.1,-1.7 -7.5,-2.8 -11.4,-2.8 -6.3,0 -12.9,2.2 -16.1,2.2 0.9,-0.8 3.1,-1.4 3.9,-2 -1.2,-1.1 -7,-1.6 -8.6,-2.7 1.9,-1.7 6.5,-2 7.3,-2.8 -0.5,-0.7 -0.9,-2.2 -0.7,-3.1 0,0 1.6,1.1 6.1,1.2 3.4,0.1 6.9,0.3 8.6,-1.2 2,-1.9 2.5,-4.9 0,-6.6 -2.5,-1.7 -4.5,-2.6 -8.6,-2.3 -4.1,0.3 -17.3,3.6 -17.3,3.6 -4,0.4 -8.8,-2.8 -9.8,-3.8 z"
   id="path1016" />
	</g>
	
</g>
<g
   aria-label="CAEBAT OAS"
   id="text1148"
   style="font-size:40px"
   transform="translate(67.923173,22.975269)"><path
     d="m 73.668262,151.7616 q -1.074218,0.46875 -1.953125,0.8789 -0.859375,0.41016 -2.265625,0.85938 -1.191406,0.37109 -2.597656,0.625 -1.386719,0.27344 -3.066406,0.27344 -3.164063,0 -5.761719,-0.87891 -2.578125,-0.89844 -4.492187,-2.79297 -1.875,-1.85547 -2.929688,-4.70703 -1.054687,-2.87109 -1.054687,-6.66016 0,-3.59375 1.015625,-6.42578 1.015625,-2.83203 2.929687,-4.78515 1.855469,-1.89454 4.472656,-2.89063 2.636719,-0.99609 5.839844,-0.99609 2.34375,0 4.667969,0.5664 2.34375,0.56641 5.195312,1.99219 v 4.58984 h -0.292968 q -2.402344,-2.01171 -4.765625,-2.92968 -2.363282,-0.91797 -5.058594,-0.91797 -2.207031,0 -3.984375,0.72265 -1.757813,0.70313 -3.144531,2.20704 -1.347657,1.46484 -2.109375,3.71093 -0.742188,2.22657 -0.742188,5.15625 0,3.06641 0.820313,5.27344 0.839843,2.20703 2.148437,3.59375 1.367188,1.44531 3.183594,2.14844 1.835937,0.68359 3.867187,0.68359 2.792969,0 5.234375,-0.95703 2.441407,-0.95703 4.570313,-2.87109 h 0.273437 z"
     id="path1150" /><path
     d="M 102.0667,153.87097 H 97.945606 L 95.094044,145.7655 H 82.515919 l -2.851563,8.10547 h -3.925781 l 10.585937,-29.08203 h 5.15625 z m -8.164063,-11.42578 -5.097656,-14.27734 -5.117187,14.27734 z"
     id="path1152" /><path
     d="m 125.64092,153.87097 h -19.16016 v -29.08203 h 19.16016 v 3.4375 h -15.29297 v 7.96875 h 15.29297 v 3.4375 h -15.29297 v 10.80078 h 15.29297 z"
     id="path1154" /><path
     d="m 153.70732,144.92566 q 0,2.16797 -0.82031,3.82812 -0.82031,1.66016 -2.20703,2.73438 -1.64062,1.28906 -3.61328,1.83594 -1.95313,0.54687 -4.98047,0.54687 h -10.3125 v -29.08203 h 8.61328 q 3.1836,0 4.76563,0.23438 1.58203,0.23437 3.02734,0.97656 1.60156,0.83984 2.32422,2.16797 0.72266,1.30859 0.72266,3.14453 0,2.07031 -1.05469,3.53515 -1.05469,1.44532 -2.8125,2.32422 v 0.15625 q 2.94922,0.60547 4.64844,2.59766 1.69921,1.97266 1.69921,5 z m -6.5039,-13.10547 q 0,-1.05469 -0.35156,-1.77734 -0.35157,-0.72266 -1.13282,-1.17188 -0.91797,-0.52734 -2.22656,-0.64453 -1.30859,-0.13672 -3.24219,-0.13672 h -4.60937 v 8.39844 h 5 q 1.8164,0 2.89062,-0.17578 1.07422,-0.19531 1.99219,-0.78125 0.91797,-0.58594 1.28906,-1.50391 0.39063,-0.9375 0.39063,-2.20703 z m 2.48047,13.26172 q 0,-1.75781 -0.52735,-2.79297 -0.52734,-1.03516 -1.91406,-1.75781 -0.9375,-0.48828 -2.28516,-0.625 -1.32812,-0.15625 -3.24218,-0.15625 h -6.07422 v 10.82031 h 5.11719 q 2.53906,0 4.16015,-0.25391 1.6211,-0.27343 2.65625,-0.97656 1.09375,-0.76172 1.60156,-1.73828 0.50782,-0.97656 0.50782,-2.51953 z"
     id="path1156" /><path
     d="m 182.12529,153.87097 h -4.12109 l -2.85156,-8.10547 h -12.57813 l -2.85156,8.10547 h -3.92578 l 10.58594,-29.08203 h 5.15625 z m -8.16406,-11.42578 -5.09766,-14.27734 -5.11718,14.27734 z"
     id="path1158" /><path
     d="m 204.93779,128.22644 h -10.39062 v 25.64453 h -3.86719 v -25.64453 h -10.39062 v -3.4375 h 24.64843 z"
     id="path1160" /><path
     d="m 244.58623,128.12878 q 1.77734,1.95313 2.71484,4.78516 0.95704,2.83203 0.95704,6.42578 0,3.59375 -0.97657,6.44531 -0.95703,2.83204 -2.69531,4.72657 -1.79687,1.97265 -4.25781,2.96875 -2.44141,0.99609 -5.58594,0.99609 -3.06641,0 -5.58594,-1.01562 -2.5,-1.01563 -4.25781,-2.94922 -1.75781,-1.9336 -2.71484,-4.7461 -0.9375,-2.8125 -0.9375,-6.42578 0,-3.55469 0.9375,-6.36719 0.9375,-2.83203 2.73437,-4.84375 1.71875,-1.91406 4.25781,-2.92968 2.5586,-1.01563 5.56641,-1.01563 3.125,0 5.60547,1.03516 2.5,1.01562 4.23828,2.91015 z m -0.35156,11.21094 q 0,-5.66406 -2.53906,-8.73047 -2.53907,-3.08593 -6.9336,-3.08593 -4.43359,0 -6.97265,3.08593 -2.51954,3.06641 -2.51954,8.73047 0,5.72266 2.57813,8.76953 2.57812,3.02735 6.91406,3.02735 4.33594,0 6.89453,-3.02735 2.57813,-3.04687 2.57813,-8.76953 z"
     id="path1162" /><path
     d="m 277.32061,153.87097 h -4.1211 l -2.85156,-8.10547 h -12.57813 l -2.85156,8.10547 h -3.92578 l 10.58594,-29.08203 h 5.15625 z m -8.16407,-11.42578 -5.09765,-14.27734 -5.11719,14.27734 z"
     id="path1164" /><path
     d="m 302.67217,145.57019 q 0,1.69922 -0.80078,3.35938 -0.78125,1.66015 -2.20703,2.8125 -1.5625,1.25 -3.65235,1.95312 -2.07031,0.70313 -5,0.70313 -3.14453,0 -5.66406,-0.58594 -2.5,-0.58594 -5.09766,-1.73828 v -4.84375 h 0.27344 q 2.20703,1.83593 5.09766,2.83203 2.89062,0.99609 5.42968,0.99609 3.59375,0 5.58594,-1.34765 2.01172,-1.34766 2.01172,-3.59375 0,-1.9336 -0.95703,-2.85157 -0.9375,-0.91797 -2.87109,-1.42578 -1.46485,-0.39062 -3.1836,-0.64453 -1.69922,-0.25391 -3.61328,-0.64453 -3.86719,-0.82031 -5.74219,-2.79297 -1.85547,-1.99219 -1.85547,-5.17578 0,-3.65234 3.08594,-5.97656 3.08594,-2.34375 7.83203,-2.34375 3.06641,0 5.625,0.58593 2.5586,0.58594 4.53125,1.44532 v 4.57031 h -0.27343 q -1.66016,-1.40625 -4.375,-2.32422 -2.69532,-0.9375 -5.52735,-0.9375 -3.10547,0 -5,1.28906 -1.875,1.28907 -1.875,3.32032 0,1.8164 0.9375,2.85156 0.9375,1.03515 3.30078,1.58203 1.25,0.27344 3.55469,0.66406 2.30469,0.39063 3.90625,0.80078 3.24219,0.85938 4.88281,2.59766 1.64063,1.73828 1.64063,4.86328 z"
     id="path1166" /></g></svg>
