<?xml version="1.0" encoding="UTF-8" standalone="no"?>
<!-- Created with Inkscape (http://www.inkscape.org/) -->

<svg
   version="1.1"
   id="svg1417"
   width="970.66669"
   height="213.33333"
   viewBox="0 0 970.66669 213.33333"
   sodipodi:docname="Calliope.svg"
   inkscape:version="1.2.2 (b0a84865, 2022-12-01)"
   xmlns:inkscape="http://www.inkscape.org/namespaces/inkscape"
   xmlns:sodipodi="http://sodipodi.sourceforge.net/DTD/sodipodi-0.dtd"
   xmlns="http://www.w3.org/2000/svg"
   xmlns:svg="http://www.w3.org/2000/svg">
  <defs
     id="defs1421" />
  <sodipodi:namedview
     id="namedview1419"
     pagecolor="#ffffff"
     bordercolor="#666666"
     borderopacity="1.0"
     inkscape:showpageshadow="2"
     inkscape:pageopacity="0.0"
     inkscape:pagecheckerboard="0"
     inkscape:deskcolor="#d1d1d1"
     showgrid="false"
     inkscape:zoom="0.68111408"
     inkscape:cx="496.24579"
     inkscape:cy="113.05008"
     inkscape:window-width="1387"
     inkscape:window-height="744"
     inkscape:window-x="293"
     inkscape:window-y="210"
     inkscape:window-maximized="0"
     inkscape:current-layer="g1423" />
  <g
     inkscape:groupmode="layer"
     inkscape:label="Image"
     id="g1423">
    <g
       id="g413">
      <path
         style="fill:#fefefe;stroke-width:1.33333"
         d="M 4.0000001,212.52825 C 5.1000001,212.2556 109.8,197.60945 236.66667,179.98126 363.53334,162.35308 468.69336,147.63181 470.35561,147.26734 l 3.02227,-0.66266 -0.3556,-73.302605 -0.3556,-73.30260723391 249,2.6611695e-4 L 970.66669,0 V 106.66666 213.33333 L 486.33335,213.17866 C 219.95001,213.0936 2.9000001,212.80092 4.0000001,212.52825 Z M 852.00002,155.33074 v -12.66926 l 4.98025,2.66926 c 5.85376,3.13743 15.80994,3.51119 22.06258,0.82824 14.12344,-6.06021 21.30598,-25.65694 16.40925,-44.77074 -3.988,-15.566691 -12.12472,-22.215527 -25.79917,-21.081535 -5.12916,0.425351 -8.69955,1.720938 -12.8981,4.68035 l -5.80562,4.092188 -0.7746,-3.872955 c -0.71807,-3.590331 -1.21487,-3.872956 -6.80792,-3.872956 h -6.03334 V 124.66666 168 h 7.33334 7.33333 z m 5.33333,-20.26093 -4.66666,-2.40315 -0.37204,-16.8489 -0.37204,-16.848904 4.07796,-3.431375 c 8.2508,-6.942589 18.10033,-5.712404 23.10761,2.886091 3.29645,5.660648 3.61817,23.015088 0.53712,28.973188 -4.67661,9.04357 -13.65479,12.13116 -22.31195,7.67305 z M 575.58777,145.9989 c 3.96091,-1.17626 9.14435,-4.16084 12.57534,-7.24074 l 5.8369,-5.23964 -4.12609,-4.19305 -4.12609,-4.19305 -5.05682,3.43165 c -9.52412,6.46325 -23.2967,7.62723 -32.70158,2.76379 -5.2334,-2.7063 -11.32264,-10.15945 -13.97547,-17.10579 -3.35913,-8.79575 -2.41163,-23.558367 2.07112,-32.269197 7.44243,-14.462031 25.21876,-19.025817 41.65955,-10.695409 l 7.74462,3.924132 3.20743,-3.924132 c 4.34519,-5.316118 4.12575,-6.676774 -1.69667,-10.520025 -7.6939,-5.078587 -15.79236,-7.404107 -25.78428,-7.404107 -17.8168,0 -33.18668,9.472112 -40.83358,25.164817 -3.3017,6.77562 -3.65848,8.923943 -3.68552,22.191881 -0.0284,13.94583 0.19242,15.14196 4.35938,23.6107 7.68866,15.62607 20.47042,23.49785 38.36867,23.62979 5.18356,0.0383 12.45696,-0.83102 16.16309,-1.93162 z m 58.91355,-2.39788 5.53994,-3.66616 1.2797,3.36591 c 1.07578,2.82947 2.13496,3.36589 6.64606,3.36589 h 5.36633 l -0.008,-22.33333 c -0.004,-12.28333 -0.62715,-24.564698 -1.38457,-27.291925 -1.63994,-5.904838 -6.81046,-12.388129 -12.03394,-15.089296 -8.05434,-4.165065 -25.44845,-1.483236 -33.84356,5.21801 -3.87028,3.08938 -3.89767,3.200756 -1.63593,6.652597 2.85561,4.35822 5.15494,4.387541 13.46474,0.171703 7.29401,-3.700491 9.79962,-4.018312 14.56427,-1.847391 4.06384,1.851357 6.21032,6.431045 6.21032,13.249042 v 5.27059 h -6.52621 c -10.12506,0 -22.78152,4.47098 -28.0532,9.90999 -3.79575,3.9162 -4.49699,5.59174 -4.4218,10.56531 0.17717,11.71962 6.86256,17.10914 20.4819,16.5118 6.97239,-0.3058 9.97155,-1.1526 14.35395,-4.05274 z m -18.16797,-6.9218 c -3.01952,-2.17785 -3.99588,-7.71457 -1.93286,-10.96084 1.53444,-2.41452 9.37192,-5.30247 17.26619,-6.36223 l 7,-0.93972 v 6.68304 c 0,6.20964 -0.33321,6.88898 -4.70413,9.59035 -6.33259,3.91375 -13.79379,4.75574 -17.6292,1.9894 z m 193.7761,6.59407 c 9.54804,-5.90311 14.18686,-15.47491 14.18686,-29.27329 0,-8.65975 -0.59378,-11.40714 -3.83524,-17.745298 -12.23157,-23.916936 -50.51984,-20.968595 -57.86601,4.455898 -4.25479,14.72544 -1.3676,29.92035 7.33963,38.62757 6.76582,6.76583 12.14753,8.59941 24.19518,8.24348 7.91671,-0.23391 10.5281,-0.93797 15.97958,-4.30836 z m -22.7761,-6.84049 c -7.61566,-2.02224 -11.33333,-9.38087 -11.33333,-22.4328 0,-14.666292 4.02653,-21.168844 14.03483,-22.665221 6.98758,-1.044739 13.8683,2.470121 16.9631,8.665219 2.88532,5.775782 3.13219,20.845332 0.44678,27.272452 -2.99456,7.16699 -12.063,11.29748 -20.11138,9.16035 z m 166.66667,8.43302 c 9.34034,-4.35464 10.88538,-6.49234 7.77702,-10.76016 -2.97831,-4.08924 -3.2368,-4.1089 -9.82587,-0.74741 -15.44691,7.88043 -28.4172,2.22513 -31.32597,-13.6587 l -0.90962,-4.96712 22.47556,-0.36622 L 964.66669,114 964.5324,106.66666 c -0.17546,-9.581248 -4.27236,-17.574396 -11.43844,-22.316689 -7.9889,-5.286796 -21.89512,-5.903516 -30.42727,-1.349403 -17.00451,9.076315 -22.20764,33.422962 -11.01259,51.530522 7.84686,12.69199 27.173,17.40863 42.34592,10.33473 z m -31.98938,-43.09689 c 2.78988,-6.677103 4.12058,-8.05207 9.51628,-9.832813 9.36029,-3.089174 18.16586,1.527662 19.95258,10.461313 l 0.85386,4.26923 H 936.1488 919.96424 Z M 682.66668,99.333332 V 51.999999 h -7.33333 -7.33333 v 47.333333 47.333328 h 7.33333 7.33333 z m 32,0 V 51.999999 h -7.33333 -7.33333 v 47.333333 47.333328 h 7.33333 7.33333 z M 745.33335,114 V 81.333332 h -7.33333 -7.33334 V 114 146.66666 h 7.33334 7.33333 z m -0.41927,-46.23242 c 3.87368,-3.639133 3.94792,-8.678165 0.18686,-12.681646 -5.77219,-6.144205 -15.76759,-2.183849 -15.76759,6.247398 0,8.311248 9.43524,12.207642 15.58073,6.434248 z M 80.000002,187.8694 C 62.934775,184.53666 45.793478,170.88632 38.007568,154.42904 20.595572,117.62485 39.402321,76.109439 78.046618,66.043878 c 29.285612,-7.627932 59.301522,6.28975 72.306982,33.527079 4.93235,10.329803 4.97974,10.588293 4.97974,27.164863 0,16.71846 -0.005,16.74654 -5.11472,27.08475 -13.03747,26.37952 -40.7303,39.80771 -70.218618,34.04883 z m -1.834303,-16.40046 c 2.8422,-1.02541 6.943307,-2.55834 9.11357,-3.40652 l 3.945933,-1.5421 -6.318307,-4.11002 c -6.963437,-4.52965 -7.575137,-6.52525 -0.95,-3.09926 5.266999,2.72366 34.070095,14.02229 35.746435,14.02229 0.68234,0 2.82823,-1.47135 4.76864,-3.26967 6.20503,-5.75062 4.26213,-18.05885 -2.85221,-18.06865 l -3.61976,-0.005 4.33334,-2.64208 c 3.87364,-2.3618 4.33333,-3.28996 4.33333,-8.74934 0,-6.44014 -2.00857,-11.82938 -3.95944,-10.62367 -0.63744,0.39395 -1.88242,-1.47574 -2.76661,-4.15488 -1.26497,-3.8329 -1.25021,-6.36106 0.0693,-11.86125 2.43315,-10.14213 0.94108,-15.744343 -6.05726,-22.742688 -3.23534,-3.235341 -6.49823,-5.88244 -7.25086,-5.88244 -0.75263,0 -1.36842,2.429796 -1.36842,5.399547 0,5.678178 -2.41564,11.625701 -5.894575,14.512951 -1.841392,1.52822 -1.907753,1.25171 -0.599949,-2.49986 1.980864,-5.682313 -1.398616,-14.538549 -7.638424,-20.017173 -6.203607,-5.44684 -8.735029,-5.413105 -7.155223,0.09535 1.365065,4.759705 -0.378398,9.798565 -5.929082,17.135908 l -3.500109,4.626725 0.848868,-4.24434 c 0.973899,-4.869485 -0.22898,-11.009105 -2.156914,-11.009105 -0.719361,0 -1.30793,0.760719 -1.30793,1.690487 0,0.929769 -1.556674,3.981338 -3.459275,6.781267 -5.151361,7.580911 -6.098216,12.183701 -3.839689,18.665271 2.448221,7.02596 2.470474,10.1963 0.07157,10.1963 -4.030569,0 -5.193555,20.65862 -1.325665,23.54835 1.849297,1.38163 1.811189,1.69463 -0.353909,2.90672 -3.147249,1.76195 -3.108651,11.95424 0.0636,16.79572 2.593566,3.95828 7.058685,4.41984 15.00906,1.55149 z m 12.50097,-32.80228 c -6.233334,-3.57742 -12.263334,-6.54092 -13.4,-6.58554 -2.944626,-0.11558 -5.266667,2.61158 -5.266667,6.18554 0,1.68667 -0.540616,3.06667 -1.20137,3.06667 -0.660753,0 -0.307932,-3.91685 0.784048,-8.70411 1.515119,-6.64231 1.641778,-9.68987 0.534703,-12.86563 -2.199352,-6.30906 -1.772145,-7.19706 1.833033,-3.81017 3.130165,2.94063 3.440982,2.98189 6.645498,0.88221 1.848963,-1.21148 3.73632,-3.69511 4.194129,-5.51917 1.202676,-4.79184 3.68554,-4.16202 2.694624,0.68354 -0.449898,2.2 -1.175985,5.73109 -1.613524,7.84688 -0.81839,3.95744 1.226827,9.48645 3.509104,9.48645 0.707532,0 1.286422,-1.15436 1.286422,-2.56525 0,-1.41089 1.845936,-3.96089 4.102081,-5.66667 C 97.024894,119.39563 101.90935,115.3 105.6231,112 l 6.75226,-6 -0.72969,4 c -0.40133,2.2 -1.12179,5.22007 -1.60102,6.71126 -0.62244,1.93685 0.47291,4.40995 3.83488,8.65847 l 4.7062,5.94721 -4.29286,2.19474 c -2.36108,1.20709 -6.84287,2.95576 -9.95953,3.8859 -6.438776,1.92162 -6.899739,2.92087 -2.70333,5.86015 6.04674,4.23529 0.0137,1.70887 -10.963341,-4.59107 z M 224.13951,167.2233 c -17.42661,-4.68628 -31.23093,-16.25273 -39.57405,-33.15858 l -5.23212,-10.60195 v -16.73139 c 0,-15.499363 0.27226,-17.312745 3.69752,-24.626571 13.36806,-28.544347 41.85105,-42.933575 71.77477,-36.259667 39.18622,8.739729 59.78286,51.99861 42.24999,88.737178 -7.43176,15.5726 -23.02908,28.2917 -40.38895,32.93588 -8.59318,2.29886 -23.38038,2.16481 -32.52716,-0.2949 z M 249.33222,153 c -0.001,-4.41531 -1.974,-28.00032 -3.40173,-40.66667 -0.70888,-6.2889 -1.11532,-7 -4.00102,-7 -3.93801,0 -4.03869,0.41979 -5.91554,24.66667 -0.79471,10.26666 -1.75014,20.61666 -2.12318,23 l -0.67825,4.33333 h 8.06043 8.06041 z m -24.45655,-42.01529 c 9.08195,-6.0288 11.99572,-7.27986 17.66667,-7.58536 3.73505,-0.20121 6.791,0.1051 6.791,0.68067 0,1.48474 6.73215,3.36577 21.13132,5.90431 19.32317,3.40663 18.51511,0.97676 -3.0594,-9.19964 -12.35984,-5.829977 -15.17949,-7.703671 -15.89739,-10.564007 -0.47997,-1.912375 -2.05953,-4.112226 -3.51012,-4.888558 -2.07968,-1.11301 -2.33868,-1.896561 -1.22472,-3.705152 1.81414,-2.94539 -8.10873,-31.626974 -10.94189,-31.626974 -1.00712,0 -1.75007,0.6 -1.651,1.333334 0.0991,0.733333 0.59505,8.571709 1.10217,17.418613 0.78954,13.773798 0.61995,16.335987 -1.18013,17.829926 -1.1562,0.959555 -2.10217,2.855771 -2.10217,4.213813 0,1.358042 -1.65,3.326074 -3.66667,4.373404 -4.79116,2.488227 -23.41702,24.410811 -22.28967,26.234891 0.93067,1.50585 0.55256,1.71504 18.832,-10.41927 z m 13.84411,-14.254061 c -3.70345,-4.462376 2.24681,-9.8974 6.34689,-5.797317 2.10862,2.108609 2.01947,3.123384 -0.49524,5.638094 -2.59814,2.59815 -3.80037,2.630863 -5.85165,0.159223 z m 128.97583,49.476481 c -24.64708,-8.39977 -40.51282,-29.15568 -42.03774,-54.994669 -1.12602,-19.08013 3.9889,-33.638358 16.60707,-47.267499 23.62778,-25.520816 64.90455,-26.108813 89.73507,-1.278296 32.97969,32.979694 19.51367,89.036804 -24.95793,103.896264 -11.58115,3.86965 -27.36676,3.72691 -39.34647,-0.3558 z m 45.32107,-59.235981 0.34998,-48.36218 -25.68332,0.362181 -25.68333,0.362183 -0.35099,46.659083 c -0.19304,25.662494 -0.0568,47.425784 0.30283,48.362864 0.50549,1.31729 6.33176,1.62146 25.68431,1.34092 l 25.03052,-0.36287 z m -35.68334,23.695511 v -4 h 10 10 v 4 4 h -10 -10 z m -7.70102,-43.566733 0.36769,-21.099928 16.47919,-0.375542 c 11.01104,-0.25093 17.09444,0.135066 18.33333,1.16326 1.36443,1.132374 1.85415,5.178209 1.85415,15.318205 v 13.779403 l -17.66667,5.53737 c -9.71667,3.045553 -18.13213,5.816321 -18.70103,6.157264 -0.5689,0.340942 -0.8689,-8.875072 -0.66666,-20.480032 z m 22.36769,3.566739 c 0,-3.377778 0.51852,-4 3.33333,-4 2.81482,0 3.33334,-0.622223 3.33334,-4 0,-3.377778 -0.51852,-4 -3.33334,-4 -2.66666,0 -3.33333,-0.666667 -3.33333,-3.333334 0,-2.920634 -0.57777,-3.333333 -4.66667,-3.333333 -4.08889,0 -4.66666,0.412699 -4.66666,3.333333 0,2.666667 -0.66667,3.333334 -3.33334,3.333334 -2.81481,0 -3.33333,0.622222 -3.33333,4 0,3.377777 0.51852,4 3.33333,4 2.60318,0 3.33334,0.681481 3.33334,3.11111 0,4.038255 0.96662,4.888889 5.55556,4.888889 3.30864,0 3.77777,-0.496731 3.77777,-3.999999 z M 0,33.358735 V 0 l 235.66667,0.15466846 c 129.61667,0.0850677 234.76667,0.37489055 233.66667,0.64405086 -1.1,0.26916028 -105.8,14.91111468 -232.66667,32.53767768 C 109.8,50.962959 4.6500001,65.684568 3.0000001,66.051082 L 0,66.717471 Z"
         id="path429" />
      <path
         style="fill:#cf9b9f;stroke-width:1.33333"
         d="m 850.94574,155 c -0.25852,-12.66095 0.66835,-16.19387 3.1816,-12.12732 0.57831,0.93572 0.36691,1.17812 -0.53911,0.61817 -1.04929,-0.64849 -1.61968,2.94124 -1.92696,12.12732 l -0.43648,13.04849 z m -790.735212,5 c 0,-1.83334 0.302631,-2.58334 0.672515,-1.66667 0.369882,0.91667 0.369882,2.41667 0,3.33333 -0.369884,0.91667 -0.672515,0.16667 -0.672515,-1.66666 z m 66.561402,-2.11111 c 0.064,-1.55327 0.37992,-1.8692 0.80556,-0.80556 0.38516,0.96249 0.33779,2.11249 -0.10527,2.55556 -0.44305,0.44305 -0.75819,-0.34445 -0.70029,-1.75 z m -64.978493,-9.27973 c -0.434246,-1.13163 -0.491617,-2.35543 -0.127493,-2.71955 0.364125,-0.36413 0.982078,0.56175 1.373226,2.05751 0.830866,3.17724 -0.09229,3.66785 -1.245733,0.66204 z m 488.623243,-1.51998 c 0.96249,-0.38516 2.11251,-0.3378 2.55556,0.1052 0.44305,0.44307 -0.34445,0.75819 -1.75,0.7003 -1.55327,-0.064 -1.8692,-0.37992 -0.80556,-0.80555 z m 17.33333,0 c 0.9625,-0.38516 2.11251,-0.3378 2.55556,0.1052 0.44306,0.44307 -0.34445,0.75819 -1.75,0.7003 -1.55326,-0.064 -1.8692,-0.37992 -0.80556,-0.80555 z m 377.33335,0 c 0.96249,-0.38516 2.1125,-0.3378 2.55556,0.1052 0.44305,0.44307 -0.34446,0.75819 -1.75,0.7003 -1.55327,-0.064 -1.8692,-0.37992 -0.80556,-0.80555 z M 652.55092,123.33333 c 10e-4,-13.2 0.20094,-18.41965 0.44342,-11.59922 0.24248,6.82042 0.24133,17.62042 -0.003,23.99999 -0.24388,6.37958 -0.44227,0.79923 -0.44087,-12.40077 z m 16.05095,-23.999998 c -4.3e-4,-26.4 0.17767,-37.388978 0.39576,-24.419953 0.21811,12.969025 0.21845,34.569021 7.9e-4,48.000001 -0.21767,13.43098 -0.39611,2.81995 -0.39655,-23.580048 z m 32,0 c -4.3e-4,-26.4 0.17767,-37.388978 0.39576,-24.419953 0.21811,12.969025 0.21845,34.569021 7.9e-4,48.000001 -0.21767,13.43098 -0.39611,2.81995 -0.39655,-23.580048 z M 731.24475,114 c -8.1e-4,-18.333335 0.18697,-26.018264 0.41731,-17.077622 0.23033,8.940642 0.231,23.940642 10e-4,33.333332 -0.22937,9.39269 -0.41783,2.07762 -0.41864,-16.25571 z m -127.41482,29 c -1.65849,-2.11475 -1.61133,-2.16191 0.50342,-0.50342 2.221,1.74183 2.9273,2.83675 1.82992,2.83675 -0.27687,0 -1.32687,-1.05 -2.33334,-2.33333 z m 165.4025,-4 -3.23241,-3.66667 3.66667,3.23241 c 2.01666,1.77784 3.66666,3.42784 3.66666,3.66667 0,1.04571 -1.07973,0.19464 -4.10092,-3.23241 z m 44.10092,1.82992 c 0,-0.27687 1.05,-1.32687 2.33334,-2.33334 2.11474,-1.65849 2.1619,-1.61133 0.50341,0.50342 -1.74183,2.221 -2.83675,2.9273 -2.83675,1.82992 z M 914.49661,139 c -1.65849,-2.11475 -1.61133,-2.16191 0.50341,-0.50342 1.28334,1.00647 2.33334,2.05647 2.33334,2.33334 0,1.09738 -1.09492,0.39108 -2.83675,-1.82992 z M 69.438598,137.88889 c 0.06397,-1.55327 0.379921,-1.8692 0.805556,-0.80556 0.385161,0.96249 0.337792,2.11249 -0.105267,2.55556 -0.443056,0.44305 -0.758188,-0.34445 -0.700293,-1.75 z m 459.144202,-2.22223 -3.91612,-4.33333 4.33333,3.91612 c 2.38334,2.15387 4.33334,4.10387 4.33334,4.33333 0,1.03008 -1.10018,0.1232 -4.75055,-3.91612 z m 25.83388,-1.91081 c 0.96249,-0.38516 2.11251,-0.3378 2.55556,0.1052 0.44305,0.44307 -0.34445,0.75819 -1.75,0.70029 -1.55327,-0.064 -1.8692,-0.37992 -0.80556,-0.80554 z m 225.41326,-1.42252 c -1.65849,-2.11474 -1.61133,-2.1619 0.50341,-0.50341 2.221,1.74182 2.92731,2.83674 1.82992,2.83674 -0.27686,0 -1.32686,-1.05 -2.33333,-2.33333 z m 94.83675,1.82992 c 0,-0.27687 1.05,-1.32687 2.33333,-2.33333 2.11475,-1.65849 2.16191,-1.61133 0.50341,0.50341 -1.74182,2.221 -2.83674,2.92731 -2.83674,1.82992 z M 30.77193,131.22222 c 0.06397,-1.55326 0.379921,-1.8692 0.805556,-0.80556 0.385161,0.9625 0.337792,2.1125 -0.105267,2.55556 -0.443056,0.44306 -0.758188,-0.34444 -0.700293,-1.75 z m 88.64713,-0.94639 c 0.50071,-1.31496 1.24626,-2.05496 1.65677,-1.64445 0.41052,0.41052 8.5e-4,1.4864 -0.91038,2.39084 -1.31682,1.30702 -1.46997,1.15387 -0.74639,-0.74639 z m 36.94409,-3.60917 c 0,-3.3 0.26003,-4.65 0.57783,-3 0.31781,1.65 0.31781,4.35 0,6 -0.3178,1.65 -0.57783,0.3 -0.57783,-3 z m 800.72021,4.42252 c 0.96249,-0.38516 2.1125,-0.33779 2.55556,0.10527 0.44305,0.44305 -0.34446,0.75818 -1.75,0.70029 -1.55327,-0.064 -1.8692,-0.37992 -0.80556,-0.80556 z m -318.03533,-6.42252 c 0.0107,-3.66666 0.26896,-5.00841 0.57543,-2.98166 0.30648,2.02675 0.29828,5.02675 -0.0181,6.66666 -0.31654,1.63992 -0.56729,-0.0183 -0.55729,-3.685 z m 212.12767,-9.33333 c 0.003,-8.8 0.21843,-12.22649 0.47953,-7.61441 0.26111,4.61207 0.25896,11.81207 -0.005,16 -0.2632,4.18792 -0.47683,0.41441 -0.4742,-8.38559 z M 539.89909,125.66666 536.66668,122 l 3.66667,3.23242 c 3.42705,3.02118 4.27812,4.10091 3.23241,4.10091 -0.23883,0 -1.88883,-1.65 -3.66667,-3.66667 z m -473.127159,0.22223 c 0.06397,-1.55326 0.379921,-1.8692 0.805556,-0.80556 0.385161,0.9625 0.337792,2.1125 -0.105267,2.55556 -0.443056,0.44305 -0.758188,-0.34445 -0.700293,-1.75 z m 5.488003,-1.22223 c 0.02717,-2.2 0.325997,-2.93858 0.664056,-1.64129 0.338057,1.29729 0.315825,3.09729 -0.0494,4 -0.365236,0.90271 -0.64183,-0.15871 -0.614656,-2.35871 z m 18.406735,-1.17007 c 0,-0.27687 1.05,-1.32687 2.333333,-2.33333 2.114742,-1.6585 2.161902,-1.61134 0.503407,0.5034 -1.741825,2.221 -2.83674,2.92731 -2.83674,1.82993 z M 30.77193,120.55555 c 0.06397,-1.55325 0.379921,-1.8692 0.805556,-0.80555 0.385161,0.9625 0.337792,2.1125 -0.105267,2.55555 -0.443056,0.44306 -0.758188,-0.34444 -0.700293,-1.75 z M 775.07985,114 c 0.008,-4.4 0.2564,-6.03926 0.55314,-3.64279 0.29675,2.39647 0.29063,5.99647 -0.0136,8 -0.30424,2.00353 -0.54702,0.0428 -0.53954,-4.35721 z m 106.46402,4.66666 c 0,-1.83333 0.30264,-2.58333 0.67252,-1.66666 0.36988,0.91666 0.36988,2.41666 0,3.33333 -0.36988,0.91667 -0.67252,0.16667 -0.67252,-1.66667 z M 109.4386,117.88889 c 0.064,-1.55326 0.37992,-1.8692 0.80555,-0.80556 0.38517,0.9625 0.3378,2.1125 -0.10526,2.55556 -0.44306,0.44305 -0.75819,-0.34445 -0.7003,-1.75 z m 518.22808,1.22807 c 0.91667,-0.36989 2.41667,-0.36989 3.33334,0 0.91666,0.36988 0.16666,0.67251 -1.66667,0.67251 -1.83333,0 -2.58333,-0.30263 -1.66667,-0.67251 z M 809.7147,114 c 0.0107,-3.66667 0.26896,-5.00842 0.57543,-2.98167 0.30648,2.02675 0.29828,5.02675 -0.0181,6.66667 -0.31654,1.63991 -0.56729,-0.0183 -0.55729,-3.685 z m 86.68487,-0.66667 c 0,-4.03333 0.24996,-5.68333 0.55545,-3.66667 0.30551,2.01667 0.30551,5.31667 0,7.33334 -0.30549,2.01666 -0.55545,0.36666 -0.55545,-3.66667 z M 760.33626,114 c 0.0148,-2.93334 0.28785,-3.97634 0.60677,-2.31779 0.31892,1.65855 0.30681,4.05855 -0.0269,5.33333 -0.3337,1.27479 -0.59464,-0.0822 -0.57984,-3.01554 z m 145.36024,-0.66667 c 0,-3.3 0.26003,-4.65 0.57783,-3 0.31781,1.65 0.31781,4.35 0,6 -0.3178,1.65 -0.57783,0.3 -0.57783,-3 z m -81.59121,0.55556 c 0.064,-1.55326 0.37992,-1.8692 0.80554,-0.80556 0.38516,0.9625 0.3378,2.1125 -0.1052,2.55556 -0.44305,0.44305 -0.75818,-0.34445 -0.70029,-1.75 z M 69.333335,113.33333 C 69.333335,112.6 69.968746,112 70.745358,112 c 0.776612,0 1.041202,0.6 0.587977,1.33333 -0.453225,0.73333 -1.088635,1.33333 -1.412023,1.33333 -0.323388,0 -0.587977,-0.6 -0.587977,-1.33333 z M 964.36317,108 c 0,-3.3 0.26003,-4.65 0.57783,-3 0.31781,1.65 0.31781,4.35 0,6 -0.3178,1.65 -0.57783,0.3 -0.57783,-3 z m -786.66669,-1.33334 c 0,-3.29999 0.26003,-4.64999 0.57783,-2.99999 0.31781,1.65 0.31781,4.34999 0,5.99999 -0.3178,1.65 -0.57783,0.3 -0.57783,-3 z m 338.4088,3.22223 c 0.064,-1.55326 0.37992,-1.8692 0.80555,-0.80556 0.38516,0.9625 0.3378,2.1125 -0.1052,2.55556 -0.44306,0.44305 -0.75819,-0.34445 -0.7003,-1.75 z m 109.58678,1.18712 c 1.29729,-0.33806 3.09729,-0.31583 4,0.0494 0.9027,0.36523 -0.15871,0.64182 -2.35871,0.61465 -2.2,-0.0272 -2.93859,-0.326 -1.64129,-0.66406 z m 13.28396,-4.40935 c 0,-2.56666 0.2744,-3.61666 0.60977,-2.33333 0.33536,1.28334 0.33536,3.38333 0,4.66667 -0.33537,1.28333 -0.60977,0.23333 -0.60977,-2.33334 z M 881.54387,108 c 0,-1.83333 0.30264,-2.58333 0.67252,-1.66667 0.36988,0.91667 0.36988,2.41667 0,3.33333 -0.36988,0.91667 -0.67252,0.16667 -0.67252,-1.66666 z M 108,108.82992 c 0,-0.27687 1.05,-1.32687 2.33334,-2.33333 2.11474,-1.65849 2.1619,-1.61133 0.5034,0.50341 C 109.09492,109.221 108,109.9273 108,108.82992 Z m -10.99169,-1.71573 c 0.921235,-0.37141 1.397628,-1.12404 1.058651,-1.67252 -0.338977,-0.54847 0.247759,-0.99723 1.303857,-0.99723 1.448972,0 1.558112,0.43626 0.444756,1.77778 -0.811484,0.97778 -2.151957,1.73041 -2.978832,1.67252 -0.936706,-0.0656 -0.872034,-0.35981 0.171568,-0.78055 z M 73.333335,105.33333 C 73.333335,104.6 73.968746,104 74.745358,104 c 0.776612,0 1.041202,0.6 0.587977,1.33333 -0.453225,0.73334 -1.088635,1.33333 -1.412023,1.33333 -0.323388,0 -0.587977,-0.59999 -0.587977,-1.33333 z m 457.669585,-4.66666 c 0.0148,-2.933338 0.28785,-3.976342 0.60677,-2.317793 0.31892,1.658553 0.30682,4.058553 -0.0269,5.333333 -0.33369,1.27478 -0.59464,-0.0822 -0.57984,-3.01554 z m -455.72441,0.57795 c -0.483378,-0.78212 -0.592911,-1.707996 -0.243407,-2.0575 0.349504,-0.349506 0.990755,0.290413 1.425002,1.42204 0.901578,2.34948 0.133133,2.76275 -1.181595,0.63546 z m 227.49343,-0.68907 c 0.064,-1.553253 0.37992,-1.869196 0.80555,-0.805552 0.38516,0.962502 0.3378,2.112502 -0.1052,2.555552 -0.44307,0.44306 -0.75819,-0.34444 -0.7003,-1.75 z M 98.877196,98.666665 c 0,-1.833333 0.30263,-2.583333 0.672514,-1.666667 0.369883,0.916667 0.369883,2.416667 0,3.333332 C 99.179826,101.25 98.877196,100.5 98.877196,98.666665 Z m 679.789494,-1.83674 c 0,-0.276875 1.05,-1.326874 2.33333,-2.333333 2.11475,-1.658495 2.16191,-1.611335 0.50341,0.503407 -1.74182,2.220997 -2.83674,2.927305 -2.83674,1.829926 z M 228.00001,95.475984 c 0,-0.288208 0.93116,-0.881336 2.06925,-1.318061 1.18656,-0.455328 1.72176,-0.231799 1.25464,0.524014 -0.78301,1.266939 -3.32389,1.873931 -3.32389,0.794047 z m 647.82993,-1.809319 c -1.65849,-2.114741 -1.61133,-2.161901 0.50341,-0.503406 1.28334,1.006458 2.33334,2.056458 2.33334,2.333333 0,1.097378 -1.09492,0.391071 -2.83675,-1.829927 z m -359.72466,-1.11111 c 0.064,-1.553258 0.37992,-1.8692 0.80555,-0.805556 0.38516,0.9625 0.3378,2.1125 -0.1052,2.555556 -0.44306,0.443054 -0.75819,-0.344446 -0.7003,-1.75 z M 105.33334,90.078688 c 0,-1.790055 0.49143,-3.558367 1.09207,-3.929583 0.60064,-0.371217 0.83254,1.093374 0.51534,3.254644 -0.69939,4.765184 -1.60741,5.146459 -1.60741,0.674939 z m 497.33334,0.973459 c 0,-0.765763 1.05,-2.215763 2.33333,-3.222222 2.15835,-1.692688 2.18664,-1.629934 0.3773,0.83674 -1.07583,1.466667 -2.12583,2.916667 -2.33334,3.222223 -0.2075,0.305555 -0.37729,-0.07098 -0.37729,-0.836741 z m 166.66667,-2.385482 c 1.72234,-1.833333 3.43151,-3.333333 3.79818,-3.333333 0.36666,0 -0.74251,1.5 -2.46484,3.333333 -1.72234,1.833334 -3.43151,3.333334 -3.79818,3.333334 -0.36666,0 0.74251,-1.5 2.46484,-3.333334 z m 145.33334,0 c 1.72233,-1.833333 3.43151,-3.333333 3.79817,-3.333333 0.36667,0 -0.7425,1.5 -2.46484,3.333333 -1.72233,1.833334 -3.4315,3.333334 -3.79817,3.333334 -0.36667,0 0.74251,-1.5 2.46484,-3.333334 z M 814.49661,88.333332 c -1.6585,-2.114741 -1.61134,-2.161901 0.50341,-0.503407 2.221,1.741826 2.92731,2.83674 1.82992,2.83674 -0.27687,0 -1.32687,-1.05 -2.33333,-2.333333 z m 38.17008,-0.333333 c 1.32732,-1.466667 2.7133,-2.666667 3.07997,-2.666667 0.36667,0 -0.41932,1.2 -1.74664,2.666667 -1.32732,1.466666 -2.71331,2.666666 -3.07997,2.666666 -0.36667,0 0.41932,-1.2 1.74664,-2.666666 z m 103.87332,-0.333334 -2.53999,-3 3,2.539984 c 1.65,1.396991 3,2.746991 3,3 0,1.067004 -1.07305,0.279276 -3.46001,-2.539984 z m -69.97424,-2 -3.23242,-3.666666 3.66667,3.232418 c 2.01667,1.777831 3.66667,3.427831 3.66667,3.666667 0,1.045699 -1.07974,0.194633 -4.10092,-3.232419 z m -37.12715,0.222223 c 0.064,-1.553257 0.37992,-1.8692 0.80555,-0.805556 0.38516,0.9625 0.3378,2.1125 -0.1052,2.555556 -0.44306,0.443055 -0.75819,-0.344445 -0.7003,-1.75 z M 621.08335,80.422513 c 0.96249,-0.385161 2.1125,-0.337792 2.55556,0.105267 0.44305,0.443056 -0.34446,0.758188 -1.75,0.700293 -1.55327,-0.06397 -1.8692,-0.379921 -0.80556,-0.805556 z m 13.33333,0 c 0.9625,-0.385161 2.11251,-0.337792 2.55556,0.105267 0.44306,0.443056 -0.34445,0.758188 -1.75,0.700293 -1.55326,-0.06397 -1.8692,-0.379921 -0.80556,-0.805556 z m 294.66668,0 c 0.96249,-0.385161 2.1125,-0.337792 2.55556,0.105267 0.44305,0.443056 -0.34446,0.758188 -1.75,0.700293 -1.55327,-0.06397 -1.8692,-0.379921 -0.80556,-0.805556 z M 582.66668,74.155507 c 0,-0.281136 1.20083,-0.825181 2.66851,-1.208988 1.46768,-0.383807 2.33226,-0.153785 1.9213,0.511159 -0.71766,1.16121 -4.58981,1.749927 -4.58981,0.697829 z m 6.49659,-11.155508 c -1.6585,-2.114741 -1.61134,-2.161901 0.50341,-0.503407 1.28333,1.006459 2.33333,2.056459 2.33333,2.333334 0,1.097378 -1.09492,0.39107 -2.83674,-1.829927 z m -37.41326,-9.244152 c 0.9625,-0.385161 2.11251,-0.337792 2.55556,0.105267 0.44306,0.443056 -0.34445,0.758188 -1.75,0.700293 -1.55326,-0.06397 -1.8692,-0.379921 -0.80556,-0.805556 z m 17.33334,0 c 0.96249,-0.385161 2.1125,-0.337792 2.55556,0.105267 0.44305,0.443056 -0.34446,0.758188 -1.75,0.700293 -1.55327,-0.06397 -1.8692,-0.379921 -0.80556,-0.805556 z"
         id="path427" />
      <path
         style="fill:#9c9c9c;stroke-width:1.33333"
         d="m 0.62235852,139.33333 c -2.0268e-4,-40.333332 0.16924963,-57.025807 0.37656069,-37.09439 0.20731109,19.93142 0.20747689,52.93142 3.6851e-4,73.33334 -0.20710838,20.4019 -0.37672652,4.09438 -0.3769292,-36.23895 z M 238.34889,169.72365 c 1.65854,-0.31892 4.05854,-0.30681 5.33333,0.0269 1.27479,0.33372 -0.0823,0.59467 -3.01555,0.57987 -2.93333,-0.0148 -3.97633,-0.28785 -2.31778,-0.60677 z m 145.98445,-20.01199 c 2.01667,-0.3055 5.31667,-0.3055 7.33334,0 2.01666,0.3055 0.36666,0.55546 -3.66667,0.55546 -4.03333,0 -5.68333,-0.24996 -3.66667,-0.55546 z m 88.28903,-75.711661 c -2e-4,-40.333333 0.16925,-57.025809 0.37656,-37.094392 0.20731,19.931417 0.20748,52.931417 3.7e-4,73.333333 -0.20712,20.40192 -0.37673,4.09439 -0.37693,-36.238941 z M 30.77193,135.22222 c 0.06397,-1.55326 0.379921,-1.8692 0.805556,-0.80556 0.385161,0.9625 0.337792,2.1125 -0.105267,2.55556 -0.443056,0.44306 -0.758188,-0.34445 -0.700293,-1.75 z m 125.33334,-1.33333 c 0.064,-1.55326 0.37992,-1.8692 0.80555,-0.80556 0.38516,0.96249 0.3378,2.11249 -0.1052,2.55556 -0.44307,0.44305 -0.75819,-0.34445 -0.7003,-1.75 z m 0,-14.66667 c 0.064,-1.55326 0.37992,-1.8692 0.80555,-0.80556 0.38516,0.9625 0.3378,2.1125 -0.1052,2.55556 -0.44307,0.44306 -0.75819,-0.34444 -0.7003,-1.75 z m 21.33333,-5.33333 c 0.064,-1.55326 0.37992,-1.8692 0.80555,-0.80556 0.38516,0.9625 0.3378,2.1125 -0.1052,2.55556 -0.44307,0.44305 -0.75819,-0.34445 -0.70029,-1.75 z M 324.39955,86.666665 c 0,-4.033333 0.24996,-5.683333 0.55546,-3.666666 0.3055,2.016666 0.3055,5.316666 0,7.333333 -0.3055,2.016667 -0.55546,0.366667 -0.55546,-3.666667 z M 92.358712,63.076011 c 1.297289,-0.338057 3.097289,-0.315825 4,0.0494 0.902709,0.365236 -0.15871,0.641829 -2.35871,0.614656 -2.2,-0.02717 -2.938581,-0.325997 -1.64129,-0.664056 z M 338.66667,46.163259 c 0,-0.276874 1.05,-1.326874 2.33334,-2.333333 2.11474,-1.658495 2.1619,-1.611335 0.50341,0.503407 -1.74183,2.220997 -2.83675,2.927305 -2.83675,1.829926 z m -56.25,-19.074078 c 0.9625,-0.385161 2.1125,-0.337792 2.55556,0.105267 0.44306,0.443056 -0.34445,0.758188 -1.75,0.700293 -1.55326,-0.06397 -1.8692,-0.379921 -0.80556,-0.805556 z m 57.33334,-8 c 0.96249,-0.385161 2.1125,-0.337792 2.55556,0.105267 0.44305,0.443056 -0.34446,0.758188 -1.75,0.700293 -1.55327,-0.06397 -1.8692,-0.379921 -0.80556,-0.805556 z m 57.33333,-8 c 0.9625,-0.385161 2.11251,-0.337792 2.55556,0.105263 0.44306,0.443055 -0.34445,0.758187 -1.75,0.700292 -1.55326,-0.06398 -1.8692,-0.37992 -0.80556,-0.805555 z m 57.33334,-7.9999997 c 0.96249,-0.3851608 2.1125,-0.3377924 2.55556,0.1052627 0.44305,0.4430555 -0.34446,0.7581871 -1.75,0.7002923 -1.55327,-0.063979 -1.8692,-0.3799204 -0.80556,-0.805555 z"
         id="path425" />
      <path
         style="fill:#778fcc;stroke-width:1.33333"
         d="m 235.57954,137 c 2.66224,-31.51629 2.69312,-31.66667 6.50216,-31.66667 1.7884,0 3.25875,0.75 3.26744,1.66667 0.009,0.91666 0.90624,11.26666 1.99456,23 2.79937,30.18061 3.39793,27.33333 -5.74605,27.33333 h -7.7357 z m 126.62648,-2 c -0.33992,-0.55 10.96738,-1 25.12732,-1 14.15995,0 25.46724,0.45 25.12732,1 -0.33992,0.55 -11.64721,1 -25.12732,1 -13.4801,0 -24.7874,-0.45 -25.12732,-1 z M 206.17435,119.66666 c 3.90118,-6.5124 19.85542,-23.666661 22.01107,-23.666661 1.41072,0 2.88436,-1.05 3.27475,-2.333334 0.3904,-1.283333 1.62222,-4.201958 2.7374,-6.485833 1.66378,-3.407432 1.85358,-7.206712 1.05784,-21.174616 -1.22058,-21.424463 0.36822,-21.688331 7.69086,-1.277305 4.02964,11.232154 4.91327,15.13404 3.82676,16.898062 -1.11396,1.808591 -0.85496,2.592142 1.22472,3.705152 1.45059,0.776332 3.02364,2.95029 3.49568,4.831018 0.69159,2.755506 3.73679,4.83224 15.6824,10.694907 15.76326,7.73629 17.78954,9.05461 15.80355,10.28201 -1.83711,1.13541 -30.84903,-4.53506 -32.71947,-6.39512 -0.90564,-0.90061 -4.48716,-1.44953 -8.29877,-1.27191 -5.82649,0.27152 -8.39001,1.46267 -19.55513,9.08639 -12.0096,8.20035 -18.62047,11.09501 -16.23166,7.10724 z m 38.57082,-22.921903 c 2.07229,-1.538833 2.29345,-2.402553 1.10952,-4.333333 -1.9469,-3.175064 -7.66923,-3.184767 -8.27986,-0.01404 -0.45113,2.342519 1.84566,6.269281 3.66694,6.269281 0.50337,0 2.0799,-0.864859 3.5034,-1.921908 z m 131.56417,13.921903 c 0,-2.56666 0.2744,-3.61666 0.60978,-2.33333 0.33536,1.28333 0.33536,3.38333 0,4.66667 -0.33538,1.28333 -0.60978,0.23333 -0.60978,-2.33334 z m 21.33334,0 c 0,-2.56666 0.2744,-3.61666 0.60977,-2.33333 0.33536,1.28333 0.33536,3.38333 0,4.66667 -0.33537,1.28333 -0.60977,0.23333 -0.60977,-2.33334 z M 368.25212,67.745355 c -0.13866,-11.506721 0.19789,-21.201206 0.74789,-21.5433 0.55,-0.342094 0.84195,5.772495 0.64876,13.587977 -0.64804,26.217268 -1.14263,29.034489 -1.39665,7.955323 z m 14.96088,5.088489 c -0.42452,-1.106274 -0.49071,-3.096457 -0.14708,-4.422628 0.40877,-1.577644 0.67822,-1.143628 0.77942,1.25545 0.12454,2.953164 0.78607,3.666666 3.39944,3.666666 2.4214,0 3.39304,-0.850018 3.82908,-3.349825 0.53515,-3.067979 0.57066,-3.039932 0.4219,0.333333 -0.13134,2.979612 -0.86426,3.763888 -3.83667,4.105787 -2.34477,0.269706 -3.95352,-0.305167 -4.44609,-1.588783 z m -6.90366,-10.167178 c 0,-2.566667 0.2744,-3.616667 0.60978,-2.333334 0.33536,1.283334 0.33536,3.383334 0,4.666667 -0.33538,1.283333 -0.60978,0.233333 -0.60978,-2.333333 z m 21.33334,0 c 0,-2.566667 0.2744,-3.616667 0.60977,-2.333334 0.33536,1.283334 0.33536,3.383334 0,4.666667 -0.33537,1.283333 -0.60977,0.233333 -0.60977,-2.333333 z m -14.71607,-7.333334 c 0.0272,-2.199999 0.326,-2.938581 0.66405,-1.64129 0.33806,1.297289 0.31583,3.097289 -0.0495,4 -0.36518,0.902709 -0.64176,-0.15871 -0.61459,-2.35871 z m 8,0 c 0.0272,-2.199999 0.326,-2.938581 0.66405,-1.64129 0.33806,1.297289 0.31583,3.097289 -0.0495,4 -0.36518,0.902709 -0.64176,-0.15871 -0.61459,-2.35871 z"
         id="path423" />
      <path
         style="fill:#b05b60;stroke-width:1.33333"
         d="m 837.9301,124.66666 c -5.1e-4,-24.19999 0.17969,-34.288101 0.40045,-22.41801 0.22076,11.87009 0.22118,31.67009 9.2e-4,44 -0.22025,12.32991 -0.40086,2.61801 -0.40137,-21.58199 z m -711.0529,38 c 0,-1.83333 0.30263,-2.58333 0.67251,-1.66666 0.36988,0.91666 0.36988,2.41666 0,3.33333 -0.36988,0.91667 -0.67251,0.16667 -0.67251,-1.66667 z m 555.058,-63.333328 c -4.2e-4,-26.4 0.17767,-37.388978 0.39576,-24.419953 0.21811,12.969025 0.21846,34.569021 7.9e-4,48.000001 -0.21767,13.43098 -0.39611,2.81995 -0.39655,-23.580048 z m 32,0 c -4.2e-4,-26.4 0.17767,-37.388978 0.39576,-24.419953 0.21811,12.969025 0.21846,34.569021 7.9e-4,48.000001 -0.21767,13.43098 -0.39611,2.81995 -0.39655,-23.580048 z M 68.611843,141.24462 c -0.483377,-0.78212 -0.592911,-1.708 -0.243407,-2.0575 0.349504,-0.34951 0.990755,0.29041 1.425002,1.42204 0.901578,2.34948 0.133133,2.76274 -1.181595,0.63546 z m 569.699277,-1.41008 c 0.90446,-0.91122 1.98032,-1.32089 2.39084,-0.91037 0.41052,0.41052 -0.32948,1.15607 -1.64444,1.65677 -1.90026,0.72358 -2.05341,0.57043 -0.7464,-0.7464 z m 321.6889,0.99538 c 0,-0.27687 1.05,-1.32687 2.33334,-2.33334 2.11474,-1.65849 2.1619,-1.61133 0.50341,0.50342 -1.74183,2.221 -2.83675,2.9273 -2.83675,1.82992 z m -370.74311,-3.81595 c 3.13332,-3.59716 3.14362,-3.69853 0.67856,-6.66667 l -2.50314,-3.01397 3.25018,3.00337 3.25016,3.00336 -3.92872,3.66331 -3.92872,3.66329 z M 65.787252,135.25972 c -0.437646,-1.1405 -0.238816,-3.3217 0.441847,-4.84712 1.042869,-2.33716 1.237569,-2.01093 1.237569,2.07362 0,5.26368 -0.443058,5.99539 -1.679416,2.7735 z m 47.376008,-10.92639 c -1.65849,-2.11474 -1.61133,-2.1619 0.50341,-0.50341 1.28333,1.00646 2.33333,2.05646 2.33333,2.33334 0,1.09738 -1.09491,0.39107 -2.83674,-1.82993 z m -27.619398,-3 c 0,-1.83333 0.302631,-2.58333 0.672515,-1.66667 0.369882,0.91667 0.369882,2.41667 0,3.33334 -0.369884,0.91666 -0.672515,0.16666 -0.672515,-1.66667 z m -5.54386,-4.50341 c 0,-0.27687 1.05,-1.32687 2.333333,-2.33333 2.114742,-1.65849 2.161902,-1.61133 0.503407,0.50341 -1.741825,2.221 -2.83674,2.9273 -2.83674,1.82992 z m 32.105268,-6.94103 c 0.064,-1.55326 0.37992,-1.8692 0.80555,-0.80556 0.38516,0.9625 0.33779,2.1125 -0.10527,2.55556 -0.44305,0.44305 -0.75818,-0.34445 -0.70029,-1.75 z m 8.20407,-3.22223 c 0,-2.56666 0.27439,-3.61666 0.60976,-2.33333 0.33537,1.28334 0.33537,3.38333 0,4.66667 -0.33537,1.28333 -0.60976,0.23333 -0.60976,-2.33334 z m 396.09022,-5.33333 c 0,-4.033332 0.24996,-5.683331 0.55545,-3.666665 0.30551,2.016667 0.30551,5.316665 0,7.333335 -0.30549,2.01666 -0.55545,0.36667 -0.55545,-3.66667 z m 337.60046,-5.333331 c 1.32732,-1.466667 2.71331,-2.666667 3.07997,-2.666667 0.36667,0 -0.41932,1.2 -1.74664,2.666667 -1.32732,1.466666 -2.7133,2.666666 -3.07997,2.666666 -0.36667,0 0.41932,-1.2 1.74664,-2.666666 z m 68.66667,0.829926 c 0,-0.276875 1.05,-1.326874 2.33333,-2.333333 2.11475,-1.658495 2.16191,-1.611335 0.50342,0.503407 -1.74183,2.220997 -2.83675,2.927305 -2.83675,1.829926 z M 525.33335,70.163259 c 0,-0.276875 1.05,-1.326875 2.33333,-2.333333 2.11475,-1.658495 2.16191,-1.611335 0.50341,0.503406 -1.74182,2.220998 -2.83674,2.927306 -2.83674,1.829927 z"
         id="path421" />
      <path
         style="fill:#4b61a6;stroke-width:1.33333"
         d="m 91.682214,189.72365 c 1.658551,-0.31892 4.058551,-0.30681 5.333334,0.0269 1.274784,0.33372 -0.08221,0.59467 -3.015546,0.57987 -2.933333,-0.0148 -3.976337,-0.28785 -2.317788,-0.60677 z M 361.95161,133.02133 c -0.35972,-0.93742 -0.49599,-22.40071 -0.30281,-47.696197 l 0.35121,-45.9918 h 25.33333 25.33334 V 86.666665 134 l -25.03052,0.36286 c -19.35716,0.28062 -25.17875,-0.0235 -25.68455,-1.34153 z m 36.71507,-22.35467 v -4 h -11.33334 -11.33333 v 4 4 h 11.33333 11.33334 z m -10.31159,-28.332889 18.35509,-5.667106 -0.35509,-15.333333 -0.35508,-15.333333 h -18.66667 -18.66666 l -0.36719,21 c -0.20196,11.55 0.098,21.000197 0.66667,21.000438 0.56861,2.43e-4 9.29364,-2.549757 19.38893,-5.666666 z m -4.35508,-12.333772 c 0,-2.666667 -0.66667,-3.333333 -3.33333,-3.333333 -2.81482,0 -3.33334,-0.622223 -3.33334,-4 0,-3.377778 0.51852,-4 3.33334,-4 2.66666,0 3.33333,-0.666667 3.33333,-3.333334 0,-2.666666 0.66667,-3.333333 3.33333,-3.333333 2.66667,0 3.33334,0.666667 3.33334,3.333333 0,2.666667 0.66666,3.333334 3.33333,3.333334 2.81481,0 3.33333,0.622222 3.33333,4 0,3.377777 -0.51852,4 -3.33333,4 -2.66667,0 -3.33333,0.666666 -3.33333,3.333333 0,2.666667 -0.66667,3.333333 -3.33334,3.333333 -2.66666,0 -3.33333,-0.666666 -3.33333,-3.333333 z M 87.750002,63.08918 c 0.9625,-0.385161 2.1125,-0.337792 2.555556,0.105267 0.443055,0.443056 -0.344445,0.758188 -1.75,0.700293 -1.553257,-0.06397 -1.8692,-0.379921 -0.805556,-0.805556 z m 10.666667,0 c 0.9625,-0.385161 2.112501,-0.337792 2.555561,0.105267 0.44305,0.443056 -0.34445,0.758188 -1.750005,0.700293 -1.553257,-0.06397 -1.8692,-0.379921 -0.805556,-0.805556 z M 239.00001,43.080898 c 1.28333,-0.335369 3.38333,-0.335369 4.66666,0 1.28334,0.335371 0.23334,0.609764 -2.33333,0.609764 -2.56667,0 -3.61667,-0.274393 -2.33333,-0.609764 z"
         id="path419" />
      <path
         style="fill:#97242c;stroke-width:1.33333"
         d="m 64.763699,170.77388 c -1.429897,-1.58002 -2.753203,-5.52892 -3.115178,-9.29608 -0.556004,-5.78643 -0.275593,-6.7385 2.40763,-8.17452 2.633685,-1.40951 2.75346,-1.78395 0.902057,-2.82004 -2.963469,-1.65844 -4.328923,-12.20884 -2.409309,-18.61594 1.824507,-6.08966 4.766435,-7.1893 3.472477,-1.29795 -0.857218,3.90289 2.18193,12.09731 4.486652,12.09731 0.608416,0 1.664284,-1.94588 2.346371,-4.32417 0.682087,-2.37831 2.272489,-4.52299 3.53423,-4.76599 1.261738,-0.24298 8.634296,2.95907 16.38346,7.11567 13.938581,7.47657 19.288611,9.04755 11.201951,3.28935 -2.29872,-1.63684 -3.68326,-3.44704 -3.07676,-4.02267 2.5494,-2.41967 22.42571,-9.1692 23.58573,-8.00918 0.67468,0.67468 1.48772,4.11201 1.80677,7.63851 0.55292,6.11167 0.37247,6.52975 -3.85485,8.93108 L 118,151.03854 l 4.33334,1.81788 c 4.06445,1.7051 4.33333,2.22942 4.33333,8.44999 0,5.69107 -0.49778,6.95827 -3.50815,8.93073 -3.35808,2.20031 -3.8734,2.17116 -12.04683,-0.68138 -4.69627,-1.63902 -14.886028,-5.69115 -22.6439,-9.00474 -7.757872,-3.31358 -14.30377,-5.82616 -14.546436,-5.58349 -0.242668,0.24267 3.135884,2.896 7.507892,5.89631 l 7.949105,5.45508 -6.355841,2.72533 c -10.418923,4.46756 -15.357631,4.9354 -18.258811,1.72963 z M 838.66669,124.58618 V 81.172357 l 4.9889,0.413822 c 3.78356,0.313838 5.09099,1.058104 5.4114,3.080486 0.94887,5.989075 1.46314,6.086628 7.55862,1.433839 7.64473,-5.835355 15.28896,-7.180092 23.08453,-4.060923 11.26519,4.507432 17.11909,17.170588 15.99985,34.610799 -1.10105,17.15671 -10.10857,28.45008 -24.53061,30.7558 -5.13127,0.82035 -8.68228,-0.23198 -19.51269,-5.78257 -0.55,-0.28188 -1,5.53749 -1,12.93195 V 168 h -6 -6 z m 37.19202,9.32811 c 4.84127,-4.07365 6.79046,-10.27154 6.80054,-21.62378 0.0128,-14.426382 -4.98728,-21.623845 -15.02212,-21.623845 -5.99814,0 -11.97234,2.790888 -14.88951,6.955727 -2.67865,3.824328 -3.00827,31.372228 -0.41427,34.623668 2.80266,3.51296 6.71252,5.00431 13.23103,5.04672 4.78064,0.0311 7.17685,-0.7553 10.29433,-3.37849 z M 548.18708,145.9848 c -14.1788,-3.97812 -24.99769,-14.52314 -28.98997,-28.25613 -3.31011,-11.38638 -2.1181,-30.967691 2.41849,-39.728671 4.06841,-7.856831 11.79235,-15.940768 18.53305,-19.396855 7.9905,-4.096873 20.65943,-5.850489 29.29407,-4.054845 7.49101,1.557819 15.95848,5.370549 20.15633,9.075997 2.12251,1.87353 2.08559,2.243583 -0.58406,5.85449 -3.46212,4.682758 -3.98384,4.704736 -12.24095,0.515633 -9.42453,-4.78138 -20.63957,-4.632 -30.27823,0.403295 -5.90748,3.086106 -7.79632,5.01039 -10.92712,11.132173 -10.06492,19.680383 -3.0556,44.529333 14.44611,51.213293 8.87551,3.38958 22.66729,2.25786 29.77065,-2.44292 3.0199,-1.99848 5.95359,-3.61474 6.51931,-3.5917 0.56572,0.023 2.14371,1.57225 3.50663,3.44267 2.45877,3.3743 2.44977,3.43027 -1.15675,7.19467 -8.19961,8.55855 -26.68723,12.50523 -40.46756,8.6389 z m 62.52577,0.27328 c -2.64002,-0.9093 -5.92617,-3.53332 -7.66666,-6.12192 -8.99136,-13.37269 2.09101,-25.33884 26.44532,-28.55425 L 640.29024,110.1562 639.67,103.70126 C 638.42699,90.764965 627.76859,86.641973 614.96577,94.144917 l -5.93518,3.478252 -2.70055,-2.700549 c -3.86329,-3.863291 -2.20467,-6.510172 6.65355,-10.617976 15.58172,-7.22568 30.42213,-3.882828 36.25516,8.166599 2.48245,5.128059 2.76127,8.152217 2.76127,29.949717 v 24.2457 h -4.02859 c -3.12417,0 -4.38211,-0.82316 -5.60331,-3.66666 -0.86609,-2.01667 -1.71382,-3.87726 -1.88384,-4.13466 -0.17001,-0.25738 -2.29853,1.0337 -4.73002,2.86907 -4.47831,3.38039 -12.88162,6.30681 -17.75425,6.18289 -1.46666,-0.0373 -4.74589,-0.78396 -7.28716,-1.65922 z m 25.00727,-11.59531 c 3.7863,-2.79933 4.2799,-3.90421 4.2799,-9.58018 v -6.41593 h -5.40958 c -17.12587,0 -27.80895,9.44815 -19.77129,17.4858 3.83338,3.83339 14.75391,3.05503 20.90097,-1.48969 z m 148.94657,12.16361 c -9.32423,-2.44046 -15.50471,-7.39156 -20.1723,-16.15972 -1.89372,-3.55738 -2.48423,-7.51911 -2.48423,-16.66666 0,-12.59399 1.61106,-17.638638 7.81249,-24.463092 11.76366,-12.945484 37.25862,-11.477889 47.55622,2.737529 8.10998,11.195493 8.27778,31.626433 0.35238,42.902923 -6.43986,9.16277 -21.83747,14.58753 -33.06456,11.64902 z m 19.3102,-13.26478 c 2.07445,-2.07446 4.42496,-6.12446 5.22333,-9.00001 3.14667,-11.33344 0.96087,-23.93898 -5.22333,-30.123187 -3.22578,-3.225767 -4.8333,-3.771738 -11.10534,-3.771738 -12.42648,0 -18.19,7.393192 -18.19,23.333335 0,15.94014 5.76352,23.33333 18.19,23.33333 6.27204,0 7.87956,-0.54597 11.10534,-3.77173 z m 125.5208,13.17465 c -7.16588,-1.80685 -15.05788,-8.18923 -18.57344,-15.02061 -3.81052,-7.40456 -5.22929,-20.55749 -3.07576,-28.51426 4.31624,-15.947449 18.98264,-25.294488 34.64375,-22.078792 13.59793,2.792067 22.0917,13.412429 21.24661,26.566142 L 963.33336,114 l -22.29359,0.36539 -22.29359,0.36539 0.79703,4.30128 c 1.34625,7.26527 4.71532,13.16402 9.01676,15.78703 5.47795,3.34044 15.39416,3.27207 22.10672,-0.15243 6.59039,-3.36216 8.26804,-3.34534 10.42248,0.10454 1.41997,2.27373 1.41771,3.15029 -0.012,4.88336 -4.58615,5.55692 -22.07335,9.47852 -31.57888,7.08174 z m 23.83567,-41.44574 c 0,-3.22353 -3.95551,-10.441467 -6.8225,-12.449587 -3.89956,-2.73136 -13.4155,-2.809155 -18.55448,-0.151688 -3.9295,2.032022 -7.95636,8.060505 -7.95636,11.911215 0,1.75587 2.50336,2.06621 16.66667,2.06621 10.56799,0 16.66667,-0.50356 16.66667,-1.37615 z M 669.33335,99.333332 V 51.999999 h 6 6 v 47.333333 47.333328 h -6 -6 z m 32,0 V 51.999999 h 6 6 v 47.333333 47.333328 h -6 -6 z M 732.00002,114 V 81.333332 h 6.66666 6.66667 V 114 146.66666 h -6.66667 -6.66666 z M 67.656812,136.16497 c -0.4351,-1.66381 -0.465984,-5.02852 -0.06863,-7.47711 0.434724,-2.6789 -0.204299,-6.87866 -1.604503,-10.54504 -2.847475,-7.45601 -2.146031,-11.55957 3.539268,-20.705306 3.776959,-6.075853 4.468424,-6.63507 5.328697,-4.309531 0.543702,1.469766 0.386428,4.853005 -0.349497,7.518307 -1.492563,5.40562 -0.77564,9.60443 0.914113,5.35371 0.583032,-1.46667 3.109646,-5.36667 5.614695,-8.666668 4.026128,-5.303776 4.486034,-6.727828 3.963424,-12.272361 -0.527626,-5.597767 -0.345757,-6.140999 1.691014,-5.050952 3.736888,1.999922 10.543139,10.441492 11.503332,14.267206 0.491655,1.958911 0.283683,5.847905 -0.462161,8.642215 -1.576438,5.90614 -0.364678,6.49327 3.434096,1.66391 3.50786,-4.45952 5.93601,-11.960178 5.16964,-15.969215 l -0.60908,-3.186195 3.80911,2.712331 C 116.69206,93.239872 120,98.964957 120,106.26022 c 0,3.67135 -0.66513,8.5832 -1.47808,10.91521 -1.11593,3.20117 -1.07196,5.22051 0.17947,8.24172 0.91165,2.20093 1.19465,4.43245 0.62888,4.95893 -0.56578,0.52649 -1.30393,0.18508 -1.64034,-0.75868 -0.33641,-0.94376 -2.12114,-3.50984 -3.96606,-5.70241 -3.27408,-3.89102 -3.38064,-5.05937 -1.14751,-12.58166 0.43541,-1.46667 0.17287,-3.56667 -0.58341,-4.66667 -1.1998,-1.74507 -1.55181,-1.69998 -2.7617,0.35378 -1.98445,3.36855 -6.45644,7.43628 -12.282072,11.17181 -2.777953,1.78129 -5.71569,4.69792 -6.528304,6.48142 -0.812613,1.78349 -1.989743,2.92611 -2.615843,2.53916 -1.618694,-1.00041 -1.409976,-9.1579 0.332146,-12.98144 1.107456,-2.4306 1.0502,-4.00972 -0.231907,-6.39607 l -1.702415,-3.16865 -1.02443,3.80993 c -1.296724,4.82261 -4.904544,8.85673 -7.920804,8.85673 -1.280995,0 -3.629882,-1.95 -5.21975,-4.33333 l -2.890667,-4.33334 0.770242,4.66667 c 2.100192,12.72445 2.156894,15.64761 0.399492,20.59505 -1.663323,4.68262 -1.956104,4.92878 -2.660126,2.23659 z M 734.25943,69.185167 c -9.10025,-5.294035 -2.47381,-19.806634 7.21185,-15.794703 6.64411,2.752083 6.96155,12.769279 0.49796,15.714283 -4.1128,1.873917 -4.6178,1.879185 -7.70981,0.08043 z"
         id="path417" />
      <path
         style="fill:#3c3c3b;stroke-width:1.33333"
         d="m 1.3333334,139.39374 c 0,-52.116049 0.4167205,-72.727074 1.4704204,-72.727074 1.6610256,0 458.1416162,-63.5352855 464.8629262,-64.7019802 l 4.33333,-0.7521873 V 73.939582 c 0,50.765688 -0.43079,72.727078 -1.4266,72.727078 -1.67515,0 -458.519197,63.5711 -464.9067432,64.69304 l -4.3333334,0.76114 z M 114.3705,186.5392 c 30.93517,-10.64327 49.33534,-44.48295 41.06978,-75.5313 -6.46185,-24.272973 -26.55713,-42.653484 -51.50765,-47.112389 -30.569723,-5.463113 -63.299874,15.73569 -71.215291,46.125019 -5.623749,21.59103 -0.230184,43.04603 14.940687,59.43239 17.491748,18.89317 42.697194,25.34874 66.712474,17.08628 z m 137.78085,-17.20426 c 16.09791,-2.98496 33.68448,-15.0418 42.78906,-29.33494 9.07348,-14.24433 11.70568,-36.16489 6.2892,-52.375395 -8.93459,-26.739554 -33.0772,-44.281326 -60.56294,-44.004392 -56.21087,0.566356 -83.95444,66.442457 -45.12599,107.150027 14.73775,15.45098 35.9275,22.39988 56.61067,18.5647 z m 148.11637,-20.14172 c 23.10769,-4.81881 42.86434,-23.49678 49.0151,-46.33894 2.37586,-8.823243 1.87316,-25.044557 -1.06908,-34.498002 C 444.6455,56.89152 440.24405,49.907378 431.07873,41.166819 417.34872,28.073097 404.4186,23.405265 384.1351,24.219958 c -11.48462,0.461283 -13.93129,1.037126 -23.28968,5.4814 -27.36849,12.997244 -42.23329,43.719568 -34.85652,72.040912 8.70303,33.41317 41.40788,54.30575 74.27882,47.45095 z"
         id="path415" />
    </g>
  </g>
</svg>
