<?xml version="1.0" encoding="UTF-8" standalone="no"?>
<!-- Created with Inkscape (http://www.inkscape.org/) -->

<svg
   version="1.1"
   id="svg519"
   width="231.29448"
   height="118.22334"
   viewBox="0 0 231.29448 118.22334"
   sodipodi:docname="carbon footprint.svg"
   inkscape:version="1.2.2 (b0a84865, 2022-12-01)"
   xmlns:inkscape="http://www.inkscape.org/namespaces/inkscape"
   xmlns:sodipodi="http://sodipodi.sourceforge.net/DTD/sodipodi-0.dtd"
   xmlns="http://www.w3.org/2000/svg"
   xmlns:svg="http://www.w3.org/2000/svg">
  <defs
     id="defs523" />
  <sodipodi:namedview
     id="namedview521"
     pagecolor="#ffffff"
     bordercolor="#666666"
     borderopacity="1.0"
     inkscape:showpageshadow="2"
     inkscape:pageopacity="0.0"
     inkscape:pagecheckerboard="0"
     inkscape:deskcolor="#d1d1d1"
     showgrid="false"
     inkscape:zoom="2.5285714"
     inkscape:cx="128.92656"
     inkscape:cy="38.559323"
     inkscape:window-width="1428"
     inkscape:window-height="663"
     inkscape:window-x="1516"
     inkscape:window-y="215"
     inkscape:window-maximized="0"
     inkscape:current-layer="g525" />
  <g
     inkscape:groupmode="layer"
     inkscape:label="Image"
     id="g525"
     transform="translate(-20.61245,-10.61548)">
    <g
       aria-label="carbon_footprint"
       id="text716"
       style="font-size:40px"
       transform="matrix(0.67844947,0,0,0.67844947,-13.009058,52.050467)">
      <path
         d="m 71.996964,103.76806 q -1.835938,0.87891 -3.496094,1.36719 -1.640625,0.48828 -3.496094,0.48828 -2.363281,0 -4.335937,-0.6836 -1.972657,-0.70312 -3.378907,-2.10937 -1.425781,-1.40625 -2.207031,-3.554689 -0.78125,-2.148437 -0.78125,-5.019531 0,-5.351562 2.929688,-8.398437 2.949218,-3.046875 7.773437,-3.046875 1.875,0 3.671875,0.527343 1.816406,0.527344 3.320313,1.289063 v 4.082031 h -0.195313 q -1.679687,-1.308594 -3.476562,-2.011719 -1.777344,-0.703125 -3.476563,-0.703125 -3.125,0 -4.941406,2.109375 -1.796875,2.089844 -1.796875,6.152344 0,3.945313 1.757812,6.07422 1.777344,2.10937 4.980469,2.10937 1.113281,0 2.265625,-0.29296 1.152344,-0.29297 2.070313,-0.76172 0.800781,-0.41016 1.503906,-0.85938 0.703125,-0.46875 1.113281,-0.80078 h 0.195313 z"
         id="path822" />
      <path
         d="m 93.65712,105.13525 h -3.652344 v -2.32422 q -0.488281,0.33203 -1.328125,0.9375 -0.820312,0.58594 -1.601562,0.9375 -0.917969,0.44922 -2.109375,0.74219 -1.191407,0.3125 -2.792969,0.3125 -2.949219,0 -5,-1.95313 -2.050781,-1.95312 -2.050781,-4.980469 0,-2.480468 1.054687,-4.003906 1.074219,-1.542969 3.046875,-2.421875 1.992188,-0.878906 4.785156,-1.191406 2.792969,-0.3125 5.996094,-0.46875 v -0.566406 q 0,-1.25 -0.449219,-2.070313 -0.429687,-0.820312 -1.25,-1.289062 -0.78125,-0.449219 -1.875,-0.605469 -1.09375,-0.15625 -2.285156,-0.15625 -1.445312,0 -3.222656,0.390625 -1.777344,0.371094 -3.671875,1.09375 H 77.055557 V 83.78759 q 1.074219,-0.292969 3.105469,-0.644531 2.03125,-0.351563 4.003906,-0.351563 2.304688,0 4.003907,0.390625 1.71875,0.371094 2.96875,1.289063 1.230468,0.898437 1.875,2.324219 0.644531,1.425781 0.644531,3.535156 z m -3.652344,-5.371097 v -6.074219 q -1.679687,0.09766 -3.964844,0.292969 -2.265625,0.195312 -3.59375,0.566406 -1.582031,0.449219 -2.558593,1.40625 -0.976563,0.9375 -0.976563,2.597656 0,1.875005 1.132813,2.832035 1.132812,0.9375 3.457031,0.9375 1.933594,0 3.535156,-0.74219 1.601563,-0.76172 2.96875,-1.816407 z"
         id="path824" />
      <path
         d="m 114.34071,87.322746 h -0.19531 q -0.82031,-0.195312 -1.60156,-0.273437 -0.76172,-0.09766 -1.81641,-0.09766 -1.69922,0 -3.28125,0.761718 -1.58203,0.742188 -3.04687,1.933594 v 15.488289 h -3.67188 V 83.31884 h 3.67188 v 3.222656 q 2.1875,-1.757812 3.84765,-2.480468 1.67969,-0.742188 3.41797,-0.742188 0.95703,0 1.38672,0.05859 0.42969,0.03906 1.28906,0.175781 z"
         id="path826" />
      <path
         d="m 136.99696,94.061028 q 0,2.734375 -0.78125,4.921875 -0.76172,2.187497 -2.07031,3.671877 -1.38672,1.54297 -3.04687,2.32422 -1.66016,0.76172 -3.65235,0.76172 -1.85547,0 -3.24219,-0.44922 -1.38671,-0.42969 -2.73437,-1.17188 l -0.23438,1.01563 h -3.4375 V 74.744621 h 3.67188 v 10.859375 q 1.54297,-1.269531 3.28125,-2.070312 1.73828,-0.820313 3.90625,-0.820313 3.86719,0 6.09375,2.96875 2.24609,2.96875 2.24609,8.378907 z m -3.78906,0.09766 q 0,-3.90625 -1.28906,-5.917969 -1.28906,-2.03125 -4.16016,-2.03125 -1.60156,0 -3.24219,0.703125 -1.64062,0.683594 -3.04687,1.777344 v 12.499992 q 1.5625,0.70313 2.67578,0.97657 1.13281,0.27343 2.55859,0.27343 3.04688,0 4.76563,-1.99218 1.73828,-2.011718 1.73828,-6.289062 z"
         id="path828" />
      <path
         d="m 161.31337,94.236809 q 0,5.332031 -2.73438,8.417971 -2.73437,3.08594 -7.32421,3.08594 -4.62891,0 -7.36329,-3.08594 -2.71484,-3.08594 -2.71484,-8.417971 0,-5.332031 2.71484,-8.417969 2.73438,-3.105469 7.36329,-3.105469 4.58984,0 7.32421,3.105469 2.73438,3.085938 2.73438,8.417969 z m -3.78906,0 q 0,-4.238281 -1.66016,-6.289063 -1.66016,-2.070312 -4.60937,-2.070312 -2.98829,0 -4.64844,2.070312 -1.64063,2.050782 -1.64063,6.289063 0,4.101562 1.66016,6.230471 1.66016,2.10937 4.62891,2.10937 2.92968,0 4.58984,-2.08984 1.67969,-2.109376 1.67969,-6.250001 z"
         id="path830" />
      <path
         d="m 185.23915,105.13525 h -3.67187 V 92.713371 q 0,-1.503906 -0.17579,-2.8125 -0.17578,-1.328125 -0.64453,-2.070312 -0.48828,-0.820313 -1.40625,-1.210938 -0.91797,-0.410156 -2.38281,-0.410156 -1.50391,0 -3.14453,0.742188 -1.64063,0.742187 -3.14453,1.894531 v 16.289066 h -3.67188 V 83.31884 h 3.67188 v 2.421875 q 1.71875,-1.425781 3.55469,-2.226562 1.83593,-0.800782 3.76953,-0.800782 3.53515,0 5.39062,2.128907 1.85547,2.128906 1.85547,6.132812 z"
         id="path832" />
      <path
         d="m 214.20399,110.99462 h -25.58593 v -2.34375 h 25.58593 z"
         id="path834" />
      <path
         d="m 229.47743,78.299309 h -0.19531 q -0.60547,-0.175781 -1.58203,-0.351563 -0.97656,-0.195312 -1.71875,-0.195312 -2.36328,0 -3.4375,1.054687 -1.05469,1.035157 -1.05469,3.769532 v 0.742187 h 6.62109 v 3.085938 h -6.5039 v 18.730472 h -3.67188 V 86.404778 h -2.48047 V 83.31884 h 2.48047 v -0.722656 q 0,-3.886719 1.9336,-5.957031 1.93359,-2.089844 5.58593,-2.089844 1.23047,0 2.20704,0.117187 0.99609,0.117188 1.8164,0.273438 z"
         id="path836" />
      <path
         d="m 250.3954,94.236809 q 0,5.332031 -2.73437,8.417971 -2.73438,3.08594 -7.32422,3.08594 -4.62891,0 -7.36328,-3.08594 -2.71485,-3.08594 -2.71485,-8.417971 0,-5.332031 2.71485,-8.417969 2.73437,-3.105469 7.36328,-3.105469 4.58984,0 7.32422,3.105469 2.73437,3.085938 2.73437,8.417969 z m -3.78906,0 q 0,-4.238281 -1.66016,-6.289063 -1.66015,-2.070312 -4.60937,-2.070312 -2.98828,0 -4.64844,2.070312 -1.64063,2.050782 -1.64063,6.289063 0,4.101562 1.66016,6.230471 1.66016,2.10937 4.62891,2.10937 2.92968,0 4.58984,-2.08984 1.67969,-2.109376 1.67969,-6.250001 z"
         id="path838" />
      <path
         d="m 274.67274,94.236809 q 0,5.332031 -2.73437,8.417971 -2.73438,3.08594 -7.32422,3.08594 -4.62891,0 -7.36328,-3.08594 -2.71484,-3.08594 -2.71484,-8.417971 0,-5.332031 2.71484,-8.417969 2.73437,-3.105469 7.36328,-3.105469 4.58984,0 7.32422,3.105469 2.73437,3.085938 2.73437,8.417969 z m -3.78906,0 q 0,-4.238281 -1.66015,-6.289063 -1.66016,-2.070312 -4.60938,-2.070312 -2.98828,0 -4.64844,2.070312 -1.64062,2.050782 -1.64062,6.289063 0,4.101562 1.66015,6.230471 1.66016,2.10937 4.62891,2.10937 2.92969,0 4.58984,-2.08984 1.67969,-2.109376 1.67969,-6.250001 z"
         id="path840" />
      <path
         d="m 291.68446,104.93993 q -1.03515,0.27344 -2.26562,0.44922 -1.21094,0.17578 -2.16797,0.17578 -3.33984,0 -5.07813,-1.79687 -1.73828,-1.79688 -1.73828,-5.76172 V 86.404778 h -2.48047 V 83.31884 h 2.48047 v -6.269531 h 3.67188 v 6.269531 h 7.57812 v 3.085938 h -7.57812 v 9.941406 q 0,1.71875 0.0781,2.695312 0.0781,0.957032 0.54688,1.796874 0.42969,0.78125 1.17187,1.15235 0.76172,0.35156 2.30469,0.35156 0.89844,0 1.875,-0.25391 0.97656,-0.27344 1.40625,-0.44922 h 0.19531 z"
         id="path842" />
      <path
         d="m 315.31728,93.963371 q 0,2.65625 -0.76172,4.863282 -0.76172,2.187497 -2.14844,3.710937 -1.28906,1.44531 -3.04688,2.24609 -1.73828,0.78125 -3.6914,0.78125 -1.69922,0 -3.08594,-0.37109 -1.36719,-0.37109 -2.79297,-1.15234 v 9.14062 h -3.67187 V 83.31884 h 3.67187 v 2.285156 q 1.46485,-1.230468 3.28125,-2.050781 1.83594,-0.839844 3.90625,-0.839844 3.94531,0 6.13281,2.988282 2.20704,2.96875 2.20704,8.261718 z m -3.78907,0.09766 q 0,-3.945313 -1.34765,-5.898438 -1.34766,-1.953125 -4.14063,-1.953125 -1.58203,0 -3.18359,0.683594 -1.60156,0.683594 -3.06641,1.796875 v 12.363283 q 1.5625,0.70312 2.67578,0.95703 1.13282,0.2539 2.5586,0.2539 3.0664,0 4.78515,-2.07031 1.71875,-2.070309 1.71875,-6.132809 z"
         id="path844" />
      <path
         d="m 334.65321,87.322746 h -0.19531 q -0.82031,-0.195312 -1.60156,-0.273437 -0.76172,-0.09766 -1.81641,-0.09766 -1.69922,0 -3.28125,0.761718 -1.58203,0.742188 -3.04687,1.933594 v 15.488289 h -3.67188 V 83.31884 h 3.67188 v 3.222656 q 2.1875,-1.757812 3.84765,-2.480468 1.67969,-0.742188 3.41797,-0.742188 0.95703,0 1.38672,0.05859 0.42969,0.03906 1.28906,0.175781 z"
         id="path846" />
      <path
         d="m 342.05556,79.666496 h -4.14063 v -3.808593 h 4.14063 z m -0.23438,25.468754 h -3.67187 V 83.31884 h 3.67187 z"
         id="path848" />
      <path
         d="m 367.32899,105.13525 h -3.67187 V 92.713371 q 0,-1.503906 -0.17578,-2.8125 -0.17578,-1.328125 -0.64453,-2.070312 -0.48828,-0.820313 -1.40625,-1.210938 -0.91797,-0.410156 -2.38282,-0.410156 -1.5039,0 -3.14453,0.742188 -1.64062,0.742187 -3.14453,1.894531 v 16.289066 h -3.67187 V 83.31884 h 3.67187 v 2.421875 q 1.71875,-1.425781 3.55469,-2.226562 1.83594,-0.800782 3.76953,-0.800782 3.53516,0 5.39063,2.128907 1.85546,2.128906 1.85546,6.132812 z"
         id="path850" />
      <path
         d="m 385.72743,104.93993 q -1.03515,0.27344 -2.26562,0.44922 -1.21094,0.17578 -2.16797,0.17578 -3.33985,0 -5.07813,-1.79687 -1.73828,-1.79688 -1.73828,-5.76172 V 86.404778 h -2.48047 V 83.31884 h 2.48047 v -6.269531 h 3.67188 v 6.269531 h 7.57812 v 3.085938 h -7.57812 v 9.941406 q 0,1.71875 0.0781,2.695312 0.0781,0.957032 0.54688,1.796874 0.42968,0.78125 1.17187,1.15235 0.76172,0.35156 2.30469,0.35156 0.89844,0 1.875,-0.25391 0.97656,-0.27344 1.40625,-0.44922 h 0.19531 z"
         id="path852" />
    </g>
    <g
       id="g646">
      <path
         style="fill:#c3ecbb;stroke-width:0.666667"
         d="m 55.779495,82.908029 c -4.177458,-6.623547 -4.406057,-7.180687 -3.401678,-8.290514 3.887229,-4.29534 11.988515,-4.334333 15.842025,-0.07625 1.190053,1.314994 1.126126,1.48798 -2.919904,7.90158 -2.275128,3.60644 -4.340318,6.784134 -4.589311,7.061541 -0.248994,0.277406 -2.468003,-2.690954 -4.931132,-6.596354 z m 24.220507,-6.24984 -7.666667,-1.764627 -0.197913,-2.635153 c -0.377714,-5.02908 5.100233,-10.499253 10.137387,-10.122989 2.97322,0.222092 2.62858,-0.475574 4.95764,10.035995 0.711453,3.21094 1.100646,5.931074 0.86488,6.044734 -0.23576,0.113667 -3.87866,-0.587413 -8.095327,-1.55796 z M 33.092311,73.833335 c 0.535734,-2.291666 1.34559,-5.816666 1.799682,-7.833333 l 0.825622,-3.666667 3.018966,0.03424 c 2.059101,0.02335 3.718416,0.532289 5.218878,1.600713 2.391851,1.703148 4.673282,5.98235 4.696567,8.809197 0.01413,1.715913 -0.239782,1.837133 -7.331186,3.5 -10.009109,2.347033 -9.391472,2.530493 -8.228529,-2.444147 z m 85.383509,-1.57974 C 118.21412,71.991895 118,64.32778 118,55.222224 V 38.666668 h 8.35475 c 9.28488,0 11.46835,0.584158 14.58918,3.903141 2.50301,2.661932 3.13879,7.982813 1.39336,11.661037 -1.82104,3.837552 -4.9156,5.322423 -11.77581,5.650414 l -5.8469,0.279544 -0.19062,6.086265 -0.19062,6.086266 -2.69086,0.198034 c -1.47996,0.10892 -2.90496,-0.01607 -3.16666,-0.277774 z m 17.4758,-19.343499 c 3.89015,-4.945531 -0.1857,-9.562197 -8.45162,-9.573043 l -2.83333,-0.0037 v 5.666666 5.666667 h 4.95161 c 4.55526,0 5.06222,-0.140605 6.33334,-1.756572 z m 11.69259,18.938446 c -0.18897,-0.49246 -0.26123,-6.134843 -0.16057,-12.538628 L 147.66667,47.666668 150.5,47.461669 c 2.22953,-0.161311 2.83334,0.02053 2.83334,0.853292 0,0.885182 0.31127,0.828154 1.90298,-0.348645 1.18306,-0.874677 2.63325,-1.323589 3.83333,-1.186625 1.75307,0.200077 1.94918,0.480528 2.13535,3.053644 l 0.205,2.833333 h -2.57758 c -4.5381,0 -4.78574,0.529678 -4.98703,10.666667 l -0.17872,9 -2.83943,0.205294 c -1.9153,0.138486 -2.95126,-0.08611 -3.18303,-0.690087 z m 21.70283,0.0741 c -4.2638,-1.701207 -6.68037,-6.073983 -6.68037,-12.088155 0,-8.518146 4.62617,-13.452051 12.17563,-12.98554 6.12112,0.378248 10.03215,4.24616 10.84122,10.721689 0.76702,6.139008 -1.763,11.723906 -6.39649,14.119979 -2.12976,1.10134 -7.44992,1.225534 -9.93999,0.232027 z m 7.81884,-4.947047 c 1.86648,-1.307338 3.06987,-5.746396 2.53134,-9.337595 -0.82388,-5.494021 -6.23491,-7.805579 -9.46939,-4.045267 -1.25544,1.45953 -1.56116,2.584853 -1.56116,5.746409 0,2.1623 0.33423,4.664999 0.74272,5.561551 1.31743,2.891456 5.13333,3.912229 7.75649,2.074902 z m 16.47049,4.054707 C 192.06706,69.460995 192,69.039295 192,60.73921 v -8.654731 l -2.16666,-0.208906 c -1.89444,-0.182656 -2.1925,-0.475469 -2.37221,-2.330434 -0.19023,-1.963531 -0.0413,-2.137302 2,-2.333333 2.07894,-0.199647 2.21731,-0.374441 2.41054,-3.045138 0.20345,-2.811955 0.22454,-2.833333 2.795,-2.833333 2.57046,0 2.59155,0.02138 2.795,2.833333 0.19242,2.659431 0.33799,2.846155 2.37167,3.042239 1.98361,0.191256 2.16666,0.402472 2.16666,2.5 0,2.184709 -0.11108,2.291094 -2.39232,2.291094 h -2.39231 l 0.22565,7.358761 c 0.23584,7.691007 0.76891,9.007687 3.39232,8.378987 C 201.79306,67.507755 202,67.920109 202,70.062415 v 2.604254 h -3.36363 c -2.68238,0 -3.69506,-0.33142 -5,-1.636367 z m 18.36398,0.8874 c -4.48519,-1.788487 -6.9105,-5.968731 -6.91447,-11.9177 -0.003,-5.235081 1.46386,-8.6678 4.78938,-11.204298 3.12456,-2.383217 9.63283,-2.586438 12.57586,-0.392683 2.90937,2.168662 4.26575,5.050811 4.41505,9.381445 l 0.13384,3.882202 -7.83334,0.187824 c -8.79592,0.210904 -9.42317,0.658242 -5.88461,4.196792 2.17722,2.177225 4.71545,2.508925 7.38461,0.965038 3.19171,-1.846132 3.4424,-1.870225 4.84681,-0.465813 1.34808,1.34808 1.35649,1.453193 0.2172,2.7121 -2.76519,3.0555 -9.47317,4.352653 -13.73033,2.655093 z m 9.33299,-15.207634 c 0,-3.515679 -3.54881,-6.001526 -6.70277,-4.695113 -1.62023,0.671121 -3.29723,3.052981 -3.29723,4.683082 0,0.349414 2.25,0.635298 5,0.635298 2.75,0 5,-0.28047 5,-0.623267 z m 13.59208,15.303221 c -2.4437,-0.987367 -4.25875,-3.95148 -4.25875,-6.954855 0,-5.04274 3.11675,-7.506024 10.35213,-8.181674 3.61324,-0.33741 4.31454,-0.603952 4.31454,-1.639828 0,-1.653218 -2.33122,-3.903597 -4.04383,-3.903597 -1.93925,0 -3.95617,1.201531 -3.95617,2.356789 0,0.712942 -0.80981,0.976544 -3,0.976544 -2.72097,0 -3,-0.148591 -3,-1.597605 0,-2.11231 3.93511,-5.53807 7.02797,-6.118294 3.18241,-0.597023 7.29723,0.0055 9.38644,1.374389 2.73697,1.793328 3.42198,4.544758 3.69501,14.84151 l 0.25191,9.500001 h -2.48088 c -1.58368,0 -2.69731,-0.386767 -3.07938,-1.069494 -0.5493,-0.98154 -0.76859,-0.98154 -2.66669,0 -2.21667,1.146294 -6.249,1.342714 -8.5423,0.416114 z m 8.65135,-5.395007 c 1.30907,-1.029717 1.75657,-1.985436 1.75657,-3.751486 v -2.369767 l -3.31121,0.318166 c -3.97968,0.382396 -5.35546,1.384276 -5.35546,3.899977 0,3.285663 3.81628,4.33671 6.9101,1.90311 z M 54.568138,65.73939 C 48.129166,63.439141 43.85791,57.332946 43.792065,50.333896 43.721194,42.800725 48.447139,36.403426 55.624453,34.316924 68.074855,30.697495 79.547135,42.330895 76.004662,54.983357 73.608995,63.539848 63.129757,68.797929 54.568138,65.73939 Z M 27.852175,55.090452 c -3.564636,-2.290133 -6.672866,-4.355587 -6.907176,-4.589896 -0.234309,-0.23431 2.66841,-2.427651 6.450488,-4.874092 5.089806,-3.292345 7.135609,-4.284637 7.873721,-3.819048 4.190241,2.643137 5.115152,9.864717 1.888001,14.741272 -1.013536,1.531556 -2.063536,2.766871 -2.333334,2.745145 -0.269798,-0.02173 -3.407062,-1.913247 -6.9717,-4.203381 z m 56.308447,2.076216 c -3.02356,-3.227687 -3.60956,-7.686405 -1.54268,-11.737824 2.42544,-4.754252 2.58136,-4.750648 10.410974,0.240661 6.275573,4.00062 6.91082,4.578817 5.83966,5.315226 -3.442247,2.366495 -12.261074,7.681937 -12.745074,7.681937 -0.30676,0 -1.19006,-0.675 -1.96288,-1.5 z M 35.68731,37.833334 c -0.906945,-2.79049 -3.110101,-13.835426 -2.917995,-14.628591 0.192632,-0.79534 1.522871,-0.673586 8.064019,0.738082 7.738144,1.669996 7.833334,1.713281 7.833334,3.561937 0,2.665389 -1.525262,5.879399 -3.751226,7.904529 -3.029516,2.756183 -8.641097,4.230232 -9.228132,2.424043 z M 79.160349,37.72847 c -3.268734,-1.185554 -4.320434,-2.108662 -5.875741,-5.157312 -1.165393,-2.284356 -1.799706,-7.237824 -0.92684,-7.237824 0.196774,0 3.82008,-0.776693 8.051794,-1.725985 4.231713,-0.949292 7.787267,-1.624292 7.901227,-1.5 0.11396,0.124292 -0.595374,3.825985 -1.576294,8.225985 -1.6647,7.467145 -1.892873,8.01013 -3.42566,8.152083 -0.903193,0.08365 -2.770006,-0.256981 -4.148486,-0.756947 z m -21.91445,-9.157741 c -1.331424,-0.366138 -3.188392,-1.469336 -4.126595,-2.45155 l -1.705825,-1.785845 4.151386,-6.589304 c 2.283262,-3.624117 4.420138,-6.624117 4.748614,-6.666667 0.601546,-0.07792 9.019856,12.712645 9.019856,13.704541 0,0.989648 -4.983577,3.792787 -7.333334,4.124819 -1.283333,0.181341 -3.422679,0.03015 -4.754102,-0.335994 z"
         id="path660" />
      <path
         style="fill:#b1e9a7;stroke-width:0.666667"
         d="m 56.100509,82.596356 c -4.572824,-7.166481 -4.611534,-7.620201 -0.81573,-9.561481 3.381621,-1.729453 7.042387,-1.90184 9.860152,-0.46432 4.541404,2.316847 4.544184,2.475954 0.164256,9.412127 -2.175144,3.44462 -4.184543,6.484427 -4.46533,6.755127 -0.280788,0.2707 -2.415294,-2.492953 -4.743348,-6.141453 z m 29.56616,-4.9347 c -0.366667,-0.1282 -3.591667,-0.87914 -7.166667,-1.668767 -6.247287,-1.379854 -6.499434,-1.50482 -6.48536,-3.21428 0.02307,-2.801807 2.296286,-7.101174 4.635233,-8.766649 1.17622,-0.837541 3.4297,-1.66833 5.007747,-1.846198 2.386647,-0.26901 2.933,-0.113938 3.24874,0.922088 0.57902,1.899913 3.09364,13.473419 3.09364,14.238426 0,0.658406 -0.998807,0.801966 -2.333333,0.33538 z M 34.527044,69.833335 c 0.909213,-4.125 1.751087,-7.613508 1.870832,-7.752241 0.119744,-0.138732 1.654209,0.107654 3.409921,0.547524 4.962691,1.243334 8.192204,4.994397 8.192204,9.515211 v 2.210033 l -6.854833,1.48974 c -3.770158,0.819354 -7.173523,1.489734 -7.563035,1.489734 -0.443831,0 -0.0911,-2.799747 0.944911,-7.500001 z m 134.168796,1.376907 c -3.9687,-2.06204 -6.02917,-5.9363 -6.02917,-11.336508 0,-4.878248 1.11883,-7.628602 4.2059,-10.339081 4.62127,-4.057524 12.47053,-3.38836 16.10198,1.372723 2.04331,2.678906 3.20618,7.7656 2.63938,11.54528 -1.24117,8.276713 -9.55784,12.581806 -16.91809,8.757586 z m 9.3244,-4.898444 c 2.23403,-2.378018 2.63757,-9.046491 0.73111,-12.08151 -4.0277,-6.411961 -11.65947,-0.776078 -10.40893,7.686751 0.83778,5.669463 6.19489,8.102163 9.67782,4.394759 z m 16.88915,5.591531 C 192.55582,70.736629 192,68.392895 192,59.6353 v -8.301965 h -2 c -1.77778,0 -2,-0.222222 -2,-2 0,-1.777778 0.22222,-2 2,-2 1.92593,0 2,-0.111112 2,-3 v -3 h 2.66667 2.66667 v 3 c 0,2.984126 0.0123,3 2.33333,3 2.14815,0 2.33333,0.15873 2.33333,2 0,1.84127 -0.18518,2 -2.33333,2 h -2.33333 v 7.533333 c 0,8.022727 0.38614,9.133334 3.17557,9.133334 1.37597,0 1.54911,0.274473 1.36667,2.166667 -0.19488,2.0212 -0.38794,2.175926 -2.87558,2.3046 -1.46666,0.07586 -3.30744,-0.179714 -4.09061,-0.56794 z m 16.69133,-0.506947 c -3.85039,-1.74864 -5.80342,-4.766617 -6.14556,-9.496622 -0.40406,-5.586168 0.31218,-8.305046 2.95982,-11.235681 2.77333,-3.069729 6.0286,-4.3101 9.74989,-3.715041 5.25881,0.840917 7.93464,4.139529 8.82932,10.884297 l 0.46427,3.5 h -7.95145 c -4.3733,0 -8.12695,0.175503 -8.34146,0.390008 -0.68821,0.688215 0.92503,4.264493 2.38498,5.287079 2.03342,1.42426 5.9498,1.241187 8.00334,-0.374127 1.64018,-1.290172 1.82478,-1.304012 3.42324,-0.25666 2.00651,1.31472 2.07264,1.7337 0.4985,3.15828 -3.46106,3.13222 -9.3371,3.91928 -13.87489,1.858467 z m 9.73262,-15.426684 c 0,-1.91266 -2.93733,-4.636363 -5,-4.636363 -2.06267,0 -5,2.723703 -5,4.636363 0,1.252526 0.40741,1.363637 5,1.363637 4.59259,0 5,-0.111111 5,-1.363637 z m 13.58553,15.739024 c -2.69837,-1.1744 -4.2522,-3.448567 -4.2522,-6.223497 0,-5.136251 3.11849,-7.655578 10.5,-8.482626 3.73628,-0.418625 4.16667,-0.621567 4.16667,-1.96473 0,-3.648157 -5.49629,-5.069405 -7.88089,-2.037867 -1.64414,2.090172 -6.11911,2.442424 -6.11911,0.48167 0,-1.955617 2.00871,-4.216349 4.92167,-5.539172 3.37922,-1.534559 6.24278,-1.599354 9.69187,-0.219304 3.90198,1.561262 4.93435,3.604471 5.19257,10.276806 0.12061,3.116666 0.3028,7.541667 0.40485,9.833333 l 0.18557,4.166667 h -2.80938 c -1.54516,0 -2.91406,-0.314067 -3.04202,-0.697933 -0.15033,-0.451007 -1.10586,-0.333074 -2.7008,0.333333 -2.99911,1.253107 -5.49708,1.27528 -8.2588,0.07332 z m 8.9328,-4.74652 c 1.10516,-0.774091 1.48167,-1.705821 1.48167,-3.66667 v -2.628864 h -3.0303 c -2.32508,0 -3.40957,0.379259 -4.65995,1.629647 -1.61016,1.610161 -1.64336,2.907578 -0.12463,4.870354 0.89742,1.159806 4.55397,1.041753 6.33321,-0.204467 z M 118,55.333335 V 38.666668 h 8.19208 c 7.18124,0 8.5543,0.185087 11.12764,1.5 3.92675,2.006474 5.50372,4.335597 5.84919,8.639019 0.23244,2.89543 0.003,3.939363 -1.27846,5.824937 -2.48987,3.662768 -5.15697,4.828288 -11.93282,5.21463 L 124,60.184942 v 5.907531 5.907529 h -3 -3 z m 15.49216,-0.699555 c 1.37068,-0.380665 2.79568,-1.25927 3.16666,-1.952454 1.1213,-2.095164 0.78842,-5.640982 -0.67727,-7.214213 -1.70395,-1.828985 -3.44901,-2.265726 -8.01718,-2.006496 l -3.63103,0.206051 -0.19798,4.93761 c -0.10889,2.715686 -0.0433,5.340686 0.14574,5.833334 0.41772,1.088538 5.60041,1.198914 9.21106,0.196168 z M 148,59.666668 V 47.333335 h 2.66667 c 1.89867,0 2.66667,0.281525 2.66667,0.977516 0,0.785057 0.45408,0.709602 2.30631,-0.383242 1.26847,-0.748416 2.99347,-1.263298 3.83333,-1.144182 1.30098,0.184516 1.52702,0.611307 1.52702,2.883241 0,2.647185 -0.0214,2.669522 -2.92915,3.057551 -4.34143,0.579345 -4.73751,1.504865 -4.73751,11.069869 v 8.205914 H 150.66667 148 Z m -92.004315,6.396868 c -3.373568,-1.066089 -5.918736,-2.761686 -8.271758,-5.510662 -6.297772,-7.35753 -4.421195,-19.052317 3.880796,-24.185045 2.547336,-1.574897 4.175419,-2.052089 7.649044,-2.241943 3.839996,-0.209878 4.887345,0.008 8.067381,1.678288 10.233354,5.374964 12.143907,18.096866 3.90394,25.995374 -1.2238,1.173083 -3.275086,2.564799 -4.55842,3.092701 -3.013588,1.239646 -8.536379,1.845846 -10.670983,1.171287 z m -23.662351,-8.37491 c -0.733333,-0.499459 -3.670532,-2.39339 -6.527109,-4.208735 l -5.193775,-3.300628 7.127111,-4.543469 7.127112,-4.543468 1.577082,1.953837 c 3.470099,4.299086 3.536807,9.589485 0.174809,13.863573 -1.542675,1.961194 -2.337254,2.105617 -4.28523,0.77889 z m 52.270955,-0.548074 c -3.636654,-3.831328 -3.45912,-11.274655 0.3442,-14.431129 0.876673,-0.727577 2.010293,-0.257756 7.355767,3.048555 3.475653,2.149779 6.329053,4.09885 6.340893,4.331268 0.0118,0.232418 -2.82774,2.245665 -6.310173,4.473884 l -6.331694,4.051305 z m -4.604287,-19.25175 c -4.44482,-1.252703 -8.4558,-6.694044 -7.881214,-10.691743 0.190927,-1.328391 1.077014,-1.685552 8.047881,-3.243899 5.855833,-1.309079 7.833333,-1.537492 7.833333,-0.904794 0,0.465497 -0.607747,3.495046 -1.350553,6.73233 -0.7428,3.237284 -1.498514,6.560972 -1.679367,7.385972 -0.357493,1.63082 -1.273607,1.763928 -4.97008,0.722134 z M 35.976,37.500001 c -0.0132,-0.275 -0.731657,-3.725 -1.59657,-7.666667 -0.864913,-3.941667 -1.465729,-7.166667 -1.335149,-7.166667 0.19604,0 5.894335,1.276397 13.45572,3.014031 3.423218,0.786668 1.069432,8.010016 -3.478655,10.675373 -2.633767,1.54349 -6.992197,2.251154 -7.045346,1.14393 z M 54.833335,26.955907 c -1.558334,-0.93398 -2.833334,-1.997603 -2.833334,-2.363606 0,-0.366002 1.249177,-2.504954 2.775949,-4.753225 1.526771,-2.248271 3.432319,-5.243328 4.234551,-6.655681 l 1.458602,-2.567915 4.354911,6.858926 c 4.093961,6.447931 4.289721,6.932926 3.267021,8.093847 -3.086933,3.504145 -8.739261,4.095761 -13.2577,1.387654 z"
         id="path658" />
      <path
         style="fill:#a1a1a1;stroke-width:0.666667"
         d="m 60.022181,80.539349 c -0.0122,-4.65336 0.230974,-8.617114 0.540384,-8.80834 1.054302,-0.651594 5.198839,0.92908 6.741437,2.571106 l 1.538326,1.637474 -3.093592,4.963467 c -1.701478,2.729906 -3.681021,5.6685 -4.398985,6.530206 l -1.30539,1.566741 z m 20.493601,-4.202293 c -9.113607,-2.130221 -8.743067,-1.911307 -8.199347,-4.844094 0.2542,-1.371127 1.048307,-3.446673 1.76468,-4.612327 1.421407,-2.312846 6.00592,-4.880633 8.713854,-4.880633 1.614513,0 1.787446,0.353386 3.180793,6.5 0.810407,3.575 1.629907,7.175 1.82112,8 0.191213,0.825 0.09014,1.466854 -0.224607,1.42634 -0.314753,-0.04053 -3.490173,-0.755693 -7.056493,-1.589286 z m 88.180058,-5.126814 c -3.9687,-2.06204 -6.02917,-5.9363 -6.02917,-11.336508 0,-4.878248 1.11883,-7.628602 4.2059,-10.339081 4.62127,-4.057524 12.47053,-3.38836 16.10198,1.372723 2.04331,2.678906 3.20618,7.7656 2.63938,11.54528 -1.24117,8.276713 -9.55784,12.581806 -16.91809,8.757586 z m 9.3244,-4.898444 c 2.23403,-2.378018 2.63757,-9.046491 0.73111,-12.08151 -4.0277,-6.411961 -11.65947,-0.776078 -10.40893,7.686751 0.83778,5.669463 6.19489,8.102163 9.67782,4.394759 z m 16.88915,5.591531 C 192.55582,70.736629 192,68.392895 192,59.6353 v -8.301965 h -2 c -1.77778,0 -2,-0.222222 -2,-2 0,-1.777778 0.22222,-2 2,-2 1.92593,0 2,-0.111112 2,-3 v -3 h 2.66667 2.66667 v 3 c 0,2.984126 0.0123,3 2.33333,3 2.14815,0 2.33333,0.15873 2.33333,2 0,1.84127 -0.18518,2 -2.33333,2 h -2.33333 v 7.533333 c 0,8.022727 0.38614,9.133334 3.17557,9.133334 1.37597,0 1.54911,0.274473 1.36667,2.166667 -0.19488,2.0212 -0.38794,2.175926 -2.87558,2.3046 -1.46666,0.07586 -3.30744,-0.179714 -4.09061,-0.56794 z m 16.69133,-0.506947 c -3.85039,-1.74864 -5.80342,-4.766617 -6.14556,-9.496622 -0.40406,-5.586168 0.31218,-8.305046 2.95982,-11.235681 2.77333,-3.069729 6.0286,-4.3101 9.74989,-3.715041 5.25881,0.840917 7.93464,4.139529 8.82932,10.884297 l 0.46427,3.5 h -7.95145 c -4.3733,0 -8.12695,0.175503 -8.34146,0.390008 -0.68821,0.688215 0.92503,4.264493 2.38498,5.287079 2.03342,1.42426 5.9498,1.241187 8.00334,-0.374127 1.64018,-1.290172 1.82478,-1.304012 3.42324,-0.25666 2.00651,1.31472 2.07264,1.7337 0.4985,3.15828 -3.46106,3.13222 -9.3371,3.91928 -13.87489,1.858467 z m 9.73262,-15.426684 c 0,-1.91266 -2.93733,-4.636363 -5,-4.636363 -2.06267,0 -5,2.723703 -5,4.636363 0,1.252526 0.40741,1.363637 5,1.363637 4.59259,0 5,-0.111111 5,-1.363637 z m 13.58553,15.739024 c -2.69837,-1.1744 -4.2522,-3.448567 -4.2522,-6.223497 0,-5.136251 3.11849,-7.655578 10.5,-8.482626 3.73628,-0.418625 4.16667,-0.621567 4.16667,-1.96473 0,-3.648157 -5.49629,-5.069405 -7.88089,-2.037867 -1.64414,2.090172 -6.11911,2.442424 -6.11911,0.48167 0,-1.955617 2.00871,-4.216349 4.92167,-5.539172 3.37922,-1.534559 6.24278,-1.599354 9.69187,-0.219304 3.90198,1.561262 4.93435,3.604471 5.19257,10.276806 0.12061,3.116666 0.3028,7.541667 0.40485,9.833333 l 0.18557,4.166667 h -2.80938 c -1.54516,0 -2.91406,-0.314067 -3.04202,-0.697933 -0.15033,-0.451007 -1.10586,-0.333074 -2.7008,0.333333 -2.99911,1.253107 -5.49708,1.27528 -8.2588,0.07332 z m 8.9328,-4.74652 c 1.10516,-0.774091 1.48167,-1.705821 1.48167,-3.66667 v -2.628864 h -3.0303 c -2.32508,0 -3.40957,0.379259 -4.65995,1.629647 -1.61016,1.610161 -1.64336,2.907578 -0.12463,4.870354 0.89742,1.159806 4.55397,1.041753 6.33321,-0.204467 z M 118,55.333335 V 38.666668 h 8.19208 c 7.18124,0 8.5543,0.185087 11.12764,1.5 3.92675,2.006474 5.50372,4.335597 5.84919,8.639019 0.23244,2.89543 0.003,3.939363 -1.27846,5.824937 -2.48987,3.662768 -5.15697,4.828288 -11.93282,5.21463 L 124,60.184942 v 5.907531 5.907529 h -3 -3 z m 15.49216,-0.699555 c 1.37068,-0.380665 2.79568,-1.25927 3.16666,-1.952454 1.1213,-2.095164 0.78842,-5.640982 -0.67727,-7.214213 -1.70395,-1.828985 -3.44901,-2.265726 -8.01718,-2.006496 l -3.63103,0.206051 -0.19798,4.93761 c -0.10889,2.715686 -0.0433,5.340686 0.14574,5.833334 0.41772,1.088538 5.60041,1.198914 9.21106,0.196168 z M 148,59.666668 V 47.333335 h 2.66667 c 1.89867,0 2.66667,0.281525 2.66667,0.977516 0,0.785057 0.45408,0.709602 2.30631,-0.383242 1.26847,-0.748416 2.99347,-1.263298 3.83333,-1.144182 1.30098,0.184516 1.52702,0.611307 1.52702,2.883241 0,2.647185 -0.0214,2.669522 -2.92915,3.057551 -4.34143,0.579345 -4.73751,1.504865 -4.73751,11.069869 v 8.205914 H 150.66667 148 Z M 55.481194,65.686853 C 47.190449,63.097948 42.312701,54.074212 44.664172,45.675579 c 0.927419,-3.312414 5.071679,-8.493327 8.008849,-10.012197 1.019526,-0.527217 3.085175,-1.1555 4.590332,-1.396184 l 2.736648,-0.437608 v 16.418539 c 0,12.714172 -0.188017,16.408478 -0.833333,16.373942 -0.458333,-0.02453 -2.116797,-0.445376 -3.685474,-0.935218 z M 27.773853,54.564401 c -5.27152,-3.315884 -6.354172,-4.25996 -5.647775,-4.924883 0.480657,-0.452439 3.470305,-2.481215 6.643661,-4.508394 l 5.769738,-3.685778 1.31362,1.443994 c 3.411435,3.750015 3.875209,9.238808 1.12287,13.289238 -0.929885,1.36845 -1.913387,2.48809 -2.185558,2.48809 -0.272172,0 -3.429622,-1.84602 -7.016556,-4.102267 z M 77.493909,36.670269 c -3.645574,-2.222731 -6.856247,-9.416275 -4.776441,-10.701662 1.016827,-0.628434 14.616241,-3.523788 14.955881,-3.18415 0.2051,0.2051 -0.92112,5.94636 -2.690474,13.715544 -0.27946,1.227108 -0.79412,1.499547 -2.828906,1.497508 -1.368014,-0.0014 -3.46504,-0.598629 -4.66006,-1.32724 z M 60.000001,19.944372 c 0,-7.461832 0.143518,-8.739307 0.889838,-7.920562 1.407162,1.543719 7.776829,11.831543 7.776829,12.560572 0,1.11265 -3.857206,3.476274 -6.326999,3.877066 l -2.339668,0.379676 z"
         id="path656" />
      <path
         style="fill:#84cd76;stroke-width:0.666667"
         d="m 60.022181,80.539349 c -0.0122,-4.65336 0.230974,-8.617114 0.540384,-8.80834 1.054302,-0.651594 5.198839,0.92908 6.741437,2.571106 l 1.538326,1.637474 -3.093592,4.963467 c -1.701478,2.729906 -3.681021,5.6685 -4.398985,6.530206 l -1.30539,1.566741 z m 20.493601,-4.202293 c -9.113607,-2.130221 -8.743067,-1.911307 -8.199347,-4.844094 0.2542,-1.371127 1.048307,-3.446673 1.76468,-4.612327 1.421407,-2.312846 6.00592,-4.880633 8.713854,-4.880633 1.614513,0 1.787446,0.353386 3.180793,6.5 0.810407,3.575 1.629907,7.175 1.82112,8 0.191213,0.825 0.09014,1.466854 -0.224607,1.42634 -0.314753,-0.04053 -3.490173,-0.755693 -7.056493,-1.589286 z M 170.2344,71.972462 c -4.70982,-1.44092 -8.06844,-7.948897 -7.33007,-14.20347 0.78971,-6.689543 4.77275,-10.435657 11.09567,-10.435657 4.18862,0 7.07406,1.465885 9.60247,4.878337 2.16477,2.921652 2.30823,11.211687 0.25528,14.751177 -0.83883,1.44624 -2.45105,3.170266 -3.58269,3.83118 -2.53839,1.4825 -7.24224,2.034573 -10.04066,1.178433 z m 6.73574,-4.38658 C 178.78168,66.890722 180,63.606226 180,59.417592 c 0,-3.311244 -0.29071,-4.327448 -1.72592,-6.033107 -3.34306,-3.972994 -8.93802,-1.963888 -9.97868,3.583258 -1.44089,7.680634 2.80054,12.872279 8.67474,10.618139 z m 18.37634,4.224487 c -2.76162,-1.397314 -3.32602,-3.47962 -3.33665,-12.310367 L 192,51.333335 h -2 c -1.77778,0 -2,-0.222222 -2,-2 0,-1.777778 0.22222,-2 2,-2 1.92593,0 2,-0.111112 2,-3 v -3 h 2.66667 2.66667 v 3 c 0,2.984126 0.0123,3 2.33333,3 2.14815,0 2.33333,0.15873 2.33333,2 0,1.84127 -0.18518,2 -2.33333,2 h -2.33333 v 7.278809 c 0,4.003344 0.18209,7.753344 0.40466,8.333331 0.23996,0.625334 1.18962,1.054527 2.33333,1.054527 1.68267,0 1.92867,0.246 1.92867,1.928673 0,2.758614 -3.15623,3.651234 -6.65352,1.881694 z m 17.716,0.16212 c -2.72903,-0.816334 -6.28926,-4.482874 -7.06528,-7.276249 -1.73946,-6.261428 0.21768,-12.932367 4.66947,-15.915927 3.23854,-2.170443 9.74416,-1.864388 12.39772,0.583246 2.35935,2.176256 3.60228,5.263799 3.60228,8.948363 v 3.021413 h -8.07227 -8.07228 l 0.43071,1.833333 c 1.04726,4.457714 7.45356,6.469834 11.20466,3.519214 1.66287,-1.308011 1.6762,-1.307979 2.86622,0.007 1.1547,1.27592 1.14223,1.3779 -0.36455,2.9818 -2.4768,2.636427 -7.28185,3.588527 -11.59668,2.29782 z m 8.27086,-16.305821 c 0,-3.964487 -5.69549,-5.868846 -8.47383,-2.833333 -0.75511,0.825 -1.57762,2.175 -1.8278,3 -0.44555,1.46919 -0.34442,1.5 4.92337,1.5 5.29237,0 5.37826,-0.02662 5.37826,-1.666667 z m 13.91813,15.928167 c -3.12998,-1.300006 -4.93599,-4.5138 -4.33545,-7.714943 0.79587,-4.242364 4.59505,-6.546557 10.79405,-6.546557 3.3877,0 3.62327,-0.104815 3.62327,-1.612142 0,-2.497024 -0.70421,-3.768466 -2.45615,-4.434551 -1.99778,-0.759559 -6.21052,0.831789 -6.21052,2.346008 0,0.76191 -0.70174,1.034018 -2.66666,1.034018 -1.80885,0 -2.66667,-0.292762 -2.66667,-0.910094 0,-1.377359 2.54521,-4.326189 4.69243,-5.436559 2.46062,-1.27244 8.16438,-1.267338 10.63354,0.0095 3.52448,1.82258 4.00736,3.227176 4.00736,11.656546 0,4.229169 0.27906,8.662415 0.62013,9.851662 l 0.62013,2.162267 h -2.95346 c -2.18086,-10e-7 -2.95346,-0.261594 -2.95346,-1.000001 0,-1.24726 0.12818,-1.2615 -3,0.333333 -3.07784,1.569167 -4.48571,1.61668 -7.74854,0.2615 z m 8.6002,-4.632633 c 1.10516,-0.774091 1.48167,-1.705821 1.48167,-3.66667 v -2.628864 h -3.33333 c -3.63055,0 -6,1.56083 -6,3.952381 0,3.0927 4.75541,4.511846 7.85166,2.343153 z M 118.66667,55.254506 V 38.50901 l 8.51713,0.26537 c 9.21173,0.287011 12.02614,1.236405 14.3985,4.857095 2.81883,4.302069 1.8597,10.534001 -2.08426,13.542553 -2.12022,1.61736 -3.12323,1.864056 -8.7792,2.159307 l -6.3855,0.333333 -0.19169,6.166667 -0.19168,6.166667 h -2.64165 -2.64165 z m 17.26539,-1.526354 c 2.07132,-1.874515 1.94506,-6.578303 -0.23509,-8.758454 -1.44821,-1.448217 -2.21474,-1.636363 -6.66667,-1.636363 H 124 v 6.07059 6.07059 l 5.2654,-0.239114 c 4.00446,-0.181852 5.60096,-0.542803 6.66666,-1.507249 z M 148,59.666668 V 47.333335 h 2.35482 c 1.76779,0 2.48129,0.341891 2.86216,1.371474 l 0.50734,1.371475 1.24116,-1.371475 c 0.78145,-0.863484 2.06716,-1.371474 3.47118,-1.371474 2.10414,0 2.23001,0.131704 2.23001,2.333333 0,2.123742 -0.17157,2.333333 -1.91009,2.333333 -1.05056,0 -2.70056,0.621775 -3.66667,1.381721 -1.73581,1.365388 -1.75657,1.483584 -1.75657,10 v 8.61828 H 150.66667 148 Z M 55.481194,65.686853 C 47.190449,63.097948 42.312701,54.074212 44.664172,45.675579 c 0.927419,-3.312414 5.071679,-8.493327 8.008849,-10.012197 1.019526,-0.527217 3.085175,-1.1555 4.590332,-1.396184 l 2.736648,-0.437608 v 16.418539 c 0,12.714172 -0.188017,16.408478 -0.833333,16.373942 -0.458333,-0.02453 -2.116797,-0.445376 -3.685474,-0.935218 z M 27.773853,54.564401 c -5.27152,-3.315884 -6.354172,-4.25996 -5.647775,-4.924883 0.480657,-0.452439 3.470305,-2.481215 6.643661,-4.508394 l 5.769738,-3.685778 1.31362,1.443994 c 3.411435,3.750015 3.875209,9.238808 1.12287,13.289238 -0.929885,1.36845 -1.913387,2.48809 -2.185558,2.48809 -0.272172,0 -3.429622,-1.84602 -7.016556,-4.102267 z M 77.493909,36.670269 c -3.645574,-2.222731 -6.856247,-9.416275 -4.776441,-10.701662 1.016827,-0.628434 14.616241,-3.523788 14.955881,-3.18415 0.2051,0.2051 -0.92112,5.94636 -2.690474,13.715544 -0.27946,1.227108 -0.79412,1.499547 -2.828906,1.497508 -1.368014,-0.0014 -3.46504,-0.598629 -4.66006,-1.32724 z M 60.000001,19.944372 c 0,-7.461832 0.143518,-8.739307 0.889838,-7.920562 1.407162,1.543719 7.776829,11.831543 7.776829,12.560572 0,1.11265 -3.857206,3.476274 -6.326999,3.877066 l -2.339668,0.379676 z"
         id="path654" />
      <path
         style="fill:#7bca6c;stroke-width:0.666667"
         d="m 60.666668,80.131349 c 0,-7.300647 0.119187,-8.131094 1.166667,-8.128854 1.493311,0.0033 5.438767,2.395547 5.89,3.571447 0.189873,0.494807 -1.3202,3.552194 -3.35572,6.7942 l -3.700947,5.894554 z m 18.666667,-4.393187 -6.333333,-1.436173 0.0534,-2.761834 c 0.09367,-4.843073 4.175946,-8.86596 9.001967,-8.870995 l 2.388733,-0.0025 1.451213,6.833334 c 0.798167,3.758333 1.448247,7.058334 1.44462,7.333334 -0.0088,0.664906 -0.6039,0.5835 -8.0066,-1.095174 z m 90.901065,-3.7657 c -4.70982,-1.44092 -8.06844,-7.948897 -7.33007,-14.20347 0.78971,-6.689543 4.77275,-10.435657 11.09567,-10.435657 4.18862,0 7.07406,1.465885 9.60247,4.878337 2.16477,2.921652 2.30823,11.211687 0.25528,14.751177 -0.83883,1.44624 -2.45105,3.170266 -3.58269,3.83118 -2.53839,1.4825 -7.24224,2.034573 -10.04066,1.178433 z m 6.73574,-4.38658 C 178.78168,66.890722 180,63.606226 180,59.417592 c 0,-3.311244 -0.29071,-4.327448 -1.72592,-6.033107 -3.34306,-3.972994 -8.93802,-1.963888 -9.97868,3.583258 -1.44089,7.680634 2.80054,12.872279 8.67474,10.618139 z m 18.37634,4.224487 c -2.76162,-1.397314 -3.32602,-3.47962 -3.33665,-12.310367 L 192,51.333335 h -2 c -1.77778,0 -2,-0.222222 -2,-2 0,-1.777778 0.22222,-2 2,-2 1.92593,0 2,-0.111112 2,-3 v -3 h 2.66667 2.66667 v 3 c 0,2.984126 0.0123,3 2.33333,3 2.14815,0 2.33333,0.15873 2.33333,2 0,1.84127 -0.18518,2 -2.33333,2 h -2.33333 v 7.278809 c 0,4.003344 0.18209,7.753344 0.40466,8.333331 0.23996,0.625334 1.18962,1.054527 2.33333,1.054527 1.68267,0 1.92867,0.246 1.92867,1.928673 0,2.758614 -3.15623,3.651234 -6.65352,1.881694 z m 17.716,0.16212 c -2.72903,-0.816334 -6.28926,-4.482874 -7.06528,-7.276249 -1.73946,-6.261428 0.21768,-12.932367 4.66947,-15.915927 3.23854,-2.170443 9.74416,-1.864388 12.39772,0.583246 2.35935,2.176256 3.60228,5.263799 3.60228,8.948363 v 3.021413 h -8.07227 -8.07228 l 0.43071,1.833333 c 1.04726,4.457714 7.45356,6.469834 11.20466,3.519214 1.66287,-1.308011 1.6762,-1.307979 2.86622,0.007 1.1547,1.27592 1.14223,1.3779 -0.36455,2.9818 -2.4768,2.636427 -7.28185,3.588527 -11.59668,2.29782 z m 8.27086,-16.305821 c 0,-3.964487 -5.69549,-5.868846 -8.47383,-2.833333 -0.75511,0.825 -1.57762,2.175 -1.8278,3 -0.44555,1.46919 -0.34442,1.5 4.92337,1.5 5.29237,0 5.37826,-0.02662 5.37826,-1.666667 z m 13.91813,15.928167 c -3.12998,-1.300006 -4.93599,-4.5138 -4.33545,-7.714943 0.79587,-4.242364 4.59505,-6.546557 10.79405,-6.546557 3.3877,0 3.62327,-0.104815 3.62327,-1.612142 0,-2.497024 -0.70421,-3.768466 -2.45615,-4.434551 -1.99778,-0.759559 -6.21052,0.831789 -6.21052,2.346008 0,0.76191 -0.70174,1.034018 -2.66666,1.034018 -1.80885,0 -2.66667,-0.292762 -2.66667,-0.910094 0,-1.377359 2.54521,-4.326189 4.69243,-5.436559 2.46062,-1.27244 8.16438,-1.267338 10.63354,0.0095 3.52448,1.82258 4.00736,3.227176 4.00736,11.656546 0,4.229169 0.27906,8.662415 0.62013,9.851662 l 0.62013,2.162267 h -2.95346 c -2.18086,-10e-7 -2.95346,-0.261594 -2.95346,-1.000001 0,-1.24726 0.12818,-1.2615 -3,0.333333 -3.07784,1.569167 -4.48571,1.61668 -7.74854,0.2615 z m 8.6002,-4.632633 c 1.10516,-0.774091 1.48167,-1.705821 1.48167,-3.66667 v -2.628864 h -3.33333 c -3.63055,0 -6,1.56083 -6,3.952381 0,3.0927 4.75541,4.511846 7.85166,2.343153 z M 118.66667,55.254506 V 38.50901 l 8.51713,0.26537 c 9.21173,0.287011 12.02614,1.236405 14.3985,4.857095 2.81883,4.302069 1.8597,10.534001 -2.08426,13.542553 -2.12022,1.61736 -3.12323,1.864056 -8.7792,2.159307 l -6.3855,0.333333 -0.19169,6.166667 -0.19168,6.166667 h -2.64165 -2.64165 z m 17.26539,-1.526354 c 2.07132,-1.874515 1.94506,-6.578303 -0.23509,-8.758454 -1.44821,-1.448217 -2.21474,-1.636363 -6.66667,-1.636363 H 124 v 6.07059 6.07059 l 5.2654,-0.239114 c 4.00446,-0.181852 5.60096,-0.542803 6.66666,-1.507249 z M 148,59.666668 V 47.333335 h 2.35482 c 1.76779,0 2.48129,0.341891 2.86216,1.371474 l 0.50734,1.371475 1.24116,-1.371475 c 0.78145,-0.863484 2.06716,-1.371474 3.47118,-1.371474 2.10414,0 2.23001,0.131704 2.23001,2.333333 0,2.123742 -0.17157,2.333333 -1.91009,2.333333 -1.05056,0 -2.70056,0.621775 -3.66667,1.381721 -1.73581,1.365388 -1.75657,1.483584 -1.75657,10 v 8.61828 H 150.66667 148 Z M 53.666668,64.733435 C 40.65434,58.695954 41.668192,39.645738 55.24809,35.018602 c 5.083177,-1.732012 4.751911,-2.776399 4.751911,14.981399 v 16.000001 l -1.833333,-0.01464 c -1.008333,-0.0081 -3.033333,-0.571421 -4.5,-1.251927 z M 28.094831,54.31629 c -3.06451,-1.964089 -5.719673,-3.718909 -5.900362,-3.899599 -0.18069,-0.18069 2.474593,-2.132118 5.900628,-4.336508 l 6.229156,-4.00798 1.485194,1.395266 c 1.940338,1.822852 3.091139,5.414001 2.58799,8.075985 -0.513977,2.719268 -2.794236,6.473265 -3.887638,6.400228 -0.463722,-0.03097 -3.350458,-1.663302 -6.414968,-3.627392 z M 78.282475,36.65377 c -3.087147,-1.528142 -5.615807,-5.370071 -5.615807,-8.532399 0,-1.99304 0.09513,-2.050774 5.166667,-3.1358 2.841667,-0.607958 6.141667,-1.354238 7.333334,-1.658402 2.617633,-0.668131 2.590153,-0.985466 0.676933,7.817999 -1.40916,6.484054 -1.580447,6.854804 -3.166667,6.854307 -0.922313,-2.89e-4 -2.89982,-0.605856 -4.39446,-1.345705 z m -17.602376,-16.487103 0.01343,-7.833333 3.639804,5.666667 c 2.001892,3.116666 3.645847,6.046076 3.653233,6.509798 0.01787,1.119911 -3.928032,3.484566 -5.8199,3.48771 -1.471351,0.0025 -1.499743,-0.147119 -1.486569,-7.830842 z"
         id="path652" />
      <path
         style="fill:#6a6a6a;stroke-width:0.666667"
         d="m 170.2344,71.972462 c -4.70982,-1.44092 -8.06844,-7.948897 -7.33007,-14.20347 0.78971,-6.689543 4.77275,-10.435657 11.09567,-10.435657 4.18862,0 7.07406,1.465885 9.60247,4.878337 2.16477,2.921652 2.30823,11.211687 0.25528,14.751177 -0.83883,1.44624 -2.45105,3.170266 -3.58269,3.83118 -2.53839,1.4825 -7.24224,2.034573 -10.04066,1.178433 z m 6.73574,-4.38658 C 178.78168,66.890722 180,63.606226 180,59.417592 c 0,-3.311244 -0.29071,-4.327448 -1.72592,-6.033107 -3.34306,-3.972994 -8.93802,-1.963888 -9.97868,3.583258 -1.44089,7.680634 2.80054,12.872279 8.67474,10.618139 z m 18.37634,4.224487 c -2.76162,-1.397314 -3.32602,-3.47962 -3.33665,-12.310367 L 192,51.333335 h -2 c -1.77778,0 -2,-0.222222 -2,-2 0,-1.777778 0.22222,-2 2,-2 1.92593,0 2,-0.111112 2,-3 v -3 h 2.66667 2.66667 v 3 c 0,2.984126 0.0123,3 2.33333,3 2.14815,0 2.33333,0.15873 2.33333,2 0,1.84127 -0.18518,2 -2.33333,2 h -2.33333 v 7.278809 c 0,4.003344 0.18209,7.753344 0.40466,8.333331 0.23996,0.625334 1.18962,1.054527 2.33333,1.054527 1.68267,0 1.92867,0.246 1.92867,1.928673 0,2.758614 -3.15623,3.651234 -6.65352,1.881694 z m 17.716,0.16212 c -2.72903,-0.816334 -6.28926,-4.482874 -7.06528,-7.276249 -1.73946,-6.261428 0.21768,-12.932367 4.66947,-15.915927 3.23854,-2.170443 9.74416,-1.864388 12.39772,0.583246 2.35935,2.176256 3.60228,5.263799 3.60228,8.948363 v 3.021413 h -8.07227 -8.07228 l 0.43071,1.833333 c 1.04726,4.457714 7.45356,6.469834 11.20466,3.519214 1.66287,-1.308011 1.6762,-1.307979 2.86622,0.007 1.1547,1.27592 1.14223,1.3779 -0.36455,2.9818 -2.4768,2.636427 -7.28185,3.588527 -11.59668,2.29782 z m 8.27086,-16.305821 c 0,-3.964487 -5.69549,-5.868846 -8.47383,-2.833333 -0.75511,0.825 -1.57762,2.175 -1.8278,3 -0.44555,1.46919 -0.34442,1.5 4.92337,1.5 5.29237,0 5.37826,-0.02662 5.37826,-1.666667 z m 13.91813,15.928167 c -3.12998,-1.300006 -4.93599,-4.5138 -4.33545,-7.714943 0.79587,-4.242364 4.59505,-6.546557 10.79405,-6.546557 3.3877,0 3.62327,-0.104815 3.62327,-1.612142 0,-2.497024 -0.70421,-3.768466 -2.45615,-4.434551 -1.99778,-0.759559 -6.21052,0.831789 -6.21052,2.346008 0,0.76191 -0.70174,1.034018 -2.66666,1.034018 -1.80885,0 -2.66667,-0.292762 -2.66667,-0.910094 0,-1.377359 2.54521,-4.326189 4.69243,-5.436559 2.46062,-1.27244 8.16438,-1.267338 10.63354,0.0095 3.52448,1.82258 4.00736,3.227176 4.00736,11.656546 0,4.229169 0.27906,8.662415 0.62013,9.851662 l 0.62013,2.162267 h -2.95346 c -2.18086,-10e-7 -2.95346,-0.261594 -2.95346,-1.000001 0,-1.24726 0.12818,-1.2615 -3,0.333333 -3.07784,1.569167 -4.48571,1.61668 -7.74854,0.2615 z m 8.6002,-4.632633 c 1.10516,-0.774091 1.48167,-1.705821 1.48167,-3.66667 v -2.628864 h -3.33333 c -3.63055,0 -6,1.56083 -6,3.952381 0,3.0927 4.75541,4.511846 7.85166,2.343153 z M 118.66667,55.254506 V 38.50901 l 8.51713,0.26537 c 9.21173,0.287011 12.02614,1.236405 14.3985,4.857095 2.81883,4.302069 1.8597,10.534001 -2.08426,13.542553 -2.12022,1.61736 -3.12323,1.864056 -8.7792,2.159307 l -6.3855,0.333333 -0.19169,6.166667 -0.19168,6.166667 h -2.64165 -2.64165 z m 17.26539,-1.526354 c 2.07132,-1.874515 1.94506,-6.578303 -0.23509,-8.758454 -1.44821,-1.448217 -2.21474,-1.636363 -6.66667,-1.636363 H 124 v 6.07059 6.07059 l 5.2654,-0.239114 c 4.00446,-0.181852 5.60096,-0.542803 6.66666,-1.507249 z M 148,59.666668 V 47.333335 h 2.35482 c 1.76779,0 2.48129,0.341891 2.86216,1.371474 l 0.50734,1.371475 1.24116,-1.371475 c 0.78145,-0.863484 2.06716,-1.371474 3.47118,-1.371474 2.10414,0 2.23001,0.131704 2.23001,2.333333 0,2.123742 -0.17157,2.333333 -1.91009,2.333333 -1.05056,0 -2.70056,0.621775 -3.66667,1.381721 -1.73581,1.365388 -1.75657,1.483584 -1.75657,10 v 8.61828 H 150.66667 148 Z"
         id="path650" />
      <path
         style="fill:#585858;stroke-width:0.666667"
         d="M 118.66667,55.666668 V 39.333334 h 8.02141 c 8.75392,0 11.21094,0.634548 13.94836,3.602285 1.28446,1.392523 1.69368,2.672875 1.90251,5.952563 0.24024,3.77283 0.0906,4.386988 -1.54168,6.326824 -2.69338,3.200899 -4.05684,3.708883 -10.99727,4.097259 l -6.33333,0.354403 -0.19169,6.166667 -0.19168,6.166667 h -2.30832 -2.30831 z m 16.25691,-1.08648 c 3.42022,-1.55836 3.86943,-6.976475 0.81621,-9.844825 -1.10718,-1.040142 -2.73544,-1.545171 -5.94941,-1.845297 -5.99988,-0.560276 -6.45704,-0.10617 -6.45704,6.413787 0,2.827326 0.2,5.340593 0.44444,5.585037 0.73791,0.737907 9.37369,0.498724 11.1458,-0.308702 z m 13.74309,5.419814 V 48.000001 h 2 c 1.33333,0 2,0.333334 2,1 0,1.287878 0.20099,1.264275 2.81722,-0.330841 1.20053,-0.731963 2.85778,-1.331963 3.68278,-1.333333 1.27031,-0.0021 1.5,0.354794 1.5,2.330841 0,2.22792 -0.10678,2.333333 -2.36363,2.333333 -1.62066,0 -2.87802,0.514375 -4,1.636364 -1.56347,1.563461 -1.63637,2.008979 -1.63637,10 v 8.363637 h -2 -2 z m 20.26417,11.047087 c -2.67572,-1.164767 -4.70382,-4.059294 -5.57831,-7.961431 -2.41833,-10.791087 6.80259,-19.059814 15.94218,-14.295906 4.03817,2.104853 5.71711,5.438987 5.66927,11.258302 -0.0419,5.096387 -1.46618,8.114108 -4.93194,10.449681 -2.5914,1.746347 -7.76348,2.002294 -11.1012,0.549354 z m 8.59766,-3.72418 c 4.85366,-3.817888 3.70102,-14.357513 -1.7696,-16.181054 -2.66105,-0.887015 -5.70936,0.576745 -6.8409,3.284915 -1.224,2.929448 -1.1647,8.495701 0.11691,10.974067 1.7148,3.316052 5.60287,4.195912 8.49359,1.922072 z m 16.96228,3.84376 C 192.57858,69.714609 192,66.800895 192,58.623268 v -7.9566 h -2 c -1.55555,0 -2,-0.296296 -2,-1.333333 0,-1.037038 0.44445,-1.333334 2,-1.333334 1.92593,0 2,-0.111111 2,-3 v -3 h 2.66667 2.66667 v 3 c 0,2.888889 0.0741,3 2,3 1.55555,0 2,0.296296 2,1.333334 0,1.037037 -0.44445,1.333333 -2,1.333333 h -2 v 8.391243 8.391244 l 2,0.754914 c 1.41696,0.534846 2,1.198173 2,2.275426 0,1.347647 -0.32658,1.520507 -2.87258,1.520507 -1.57992,0 -3.36642,-0.375 -3.96998,-0.833333 z m 16.98801,-0.275387 c -3.98704,-1.965133 -5.14545,-4.443644 -5.14545,-11.00906 0,-4.8025 0.23333,-6.096972 1.37452,-7.625475 2.24988,-3.013462 4.66727,-4.426362 8.07582,-4.720087 6.16796,-0.531514 9.96073,3.053413 10.68827,10.102557 l 0.38126,3.694118 h -8.09327 c -7.73468,0 -8.09327,0.06102 -8.09327,1.377161 0,5.179566 7.6044,7.772479 11.64958,3.972226 1.45692,-1.368709 1.45958,-1.368748 2.66308,-0.0389 0.94869,1.048297 1.03696,1.533283 0.41536,2.28227 -2.44945,2.9514 -9.80693,3.99042 -13.9159,1.965193 z m 9.99758,-15.224614 c -0.27538,-2.89421 -3.12012,-5.233071 -5.7518,-4.72896 -2.51893,0.482513 -5.0579,3.223206 -5.0579,5.459764 0,1.645951 0.0349,1.655225 5.5,1.462824 l 5.5,-0.193628 z m 13.0404,15.294134 c -3.21799,-1.74634 -4.16629,-5.793043 -2.23343,-9.530784 1.26615,-2.448446 3.78985,-3.526206 9.21667,-3.936018 3.88496,-0.293376 4.5,-0.515803 4.5,-1.627404 0,-1.491458 -1.20225,-3.979121 -2.26647,-4.689719 -1.67351,-1.117432 -4.96985,-0.510519 -6.28109,1.156458 -1.34308,1.707445 -5.45244,2.428088 -5.45244,0.956173 0,-2.7729 4.96672,-5.926891 9.33333,-5.926891 3.50838,0 7.6358,2.126869 8.51199,4.386247 0.40904,1.054792 0.84478,6.042804 0.96831,11.084471 l 0.22459,9.166667 h -2.15265 c -1.28247,0 -2.3946,-0.432333 -2.75117,-1.069493 -0.5493,-0.98154 -0.76859,-0.98154 -2.66669,0 -2.55903,1.323326 -6.54343,1.336806 -8.95095,0.03027 z m 8.84002,-3.30626 c 2.03074,-1.050135 2.91357,-3.056324 2.5318,-5.753398 -0.20315,-1.435229 -0.52078,-1.559836 -3.7561,-1.47353 -2.33499,0.06229 -3.97501,0.493215 -4.83334,1.269992 -1.77315,1.604684 -1.68016,4.626585 0.18253,5.931263 1.86272,1.3047 3.38885,1.311366 5.87511,0.02567 z"
         id="path648" />
    </g>
  </g>
</svg>
