<?xml version="1.0" encoding="UTF-8" standalone="no"?>
<svg
   version="1.1"
   id="svg4"
   width="91.19532"
   height="11.53125"
   xmlns="http://www.w3.org/2000/svg"
   xmlns:svg="http://www.w3.org/2000/svg">
  <defs
     id="defs8" />
  <g
     aria-label="Carbon Mapper"
     id="text2"
     transform="translate(-0.67382812,9.1171875)">
    <path
       d="M 7.9101562,-0.6328125 Q 7.5878906,-0.4921875 7.3242187,-0.36914063 7.0664062,-0.24609375 6.6445312,-0.11132812 6.2871094,0 5.8652344,0.07617187 5.4492187,0.15820312 4.9453125,0.15820312 q -0.9492187,0 -1.7285156,-0.26367187 Q 2.4433594,-0.375 1.8691406,-0.94335938 1.3066406,-1.5 0.99023438,-2.3554688 0.67382812,-3.2167969 0.67382812,-4.3535156 q 0,-1.078125 0.30468751,-1.9277344 0.30468747,-0.8496094 0.87890627,-1.4355469 0.5566406,-0.5683594 1.3417969,-0.8671875 0.7910156,-0.2988281 1.7519531,-0.2988281 0.703125,0 1.4003906,0.1699219 0.703125,0.1699218 1.5585937,0.5976562 v 1.3769532 H 7.8222656 Q 7.1015625,-7.3417969 6.3925781,-7.6171875 5.6835937,-7.8925781 4.875,-7.8925781 q -0.6621094,0 -1.1953125,0.2167969 -0.5273437,0.2109375 -0.9433594,0.6621093 -0.4042968,0.4394532 -0.6328125,1.1132813 -0.2226562,0.6679687 -0.2226562,1.546875 0,0.9199218 0.2460937,1.5820312 0.2519532,0.6621094 0.6445313,1.078125 0.4101562,0.4335938 0.9550781,0.6445313 0.5507812,0.2050781 1.1601562,0.2050781 0.8378907,0 1.5703125,-0.2871094 0.7324219,-0.2871093 1.3710938,-0.8613281 h 0.082031 z"
       id="path10" />
    <path
       d="m 14.548828,0 h -1.095703 v -0.69726562 q -0.146484,0.0996094 -0.398437,0.28124999 -0.246094,0.17578125 -0.480469,0.28125001 Q 12.298828,0 11.941406,0.08789062 q -0.357422,0.09375 -0.83789,0.09375 -0.884766,0 -1.5000004,-0.5859375 -0.6152343,-0.5859375 -0.6152343,-1.49414062 0,-0.7441406 0.3164062,-1.2011719 0.3222656,-0.4628906 0.9140625,-0.7265625 0.597656,-0.2636718 1.435547,-0.3574218 0.837891,-0.09375 1.798828,-0.140625 v -0.1699219 q 0,-0.375 -0.134766,-0.6210938 -0.128906,-0.2460937 -0.375,-0.3867187 -0.234375,-0.1347656 -0.5625,-0.1816406 -0.328125,-0.046875 -0.685546,-0.046875 -0.433594,0 -0.966797,0.1171875 -0.533203,0.1113281 -1.1015629,0.328125 H 9.5683594 V -6.4042969 Q 9.890625,-6.4921875 10.5,-6.5976562 q 0.609375,-0.1054688 1.201172,-0.1054688 0.691406,0 1.201172,0.1171875 0.515625,0.1113281 0.890625,0.3867188 0.36914,0.2695312 0.5625,0.6972656 0.193359,0.4277344 0.193359,1.0605469 z m -1.095703,-1.6113281 v -1.8222657 q -0.503906,0.029297 -1.189453,0.087891 -0.679688,0.058594 -1.078125,0.1699218 -0.474609,0.1347657 -0.767578,0.421875 -0.292969,0.28125 -0.292969,0.7792969 0,0.5625 0.339844,0.8496094 0.339844,0.28125 1.037109,0.28125 0.580078,0 1.060547,-0.2226562 0.480469,-0.2285157 0.890625,-0.5449222 z"
       id="path12" />
    <path
       d="m 20.753906,-5.34375 h -0.05859 q -0.246093,-0.058594 -0.480468,-0.082031 -0.228516,-0.029297 -0.544922,-0.029297 -0.509766,0 -0.984375,0.2285156 -0.47461,0.2226563 -0.914063,0.5800781 V 0 h -1.101562 v -6.5449219 h 1.101562 v 0.9667969 q 0.65625,-0.5273437 1.154297,-0.7441406 0.503906,-0.2226563 1.025391,-0.2226563 0.287109,0 0.416015,0.017578 0.128907,0.011719 0.386719,0.052734 z"
       id="path14" />
    <path
       d="m 27.550781,-3.3222656 q 0,0.8203125 -0.234375,1.4765625 -0.228515,0.65625 -0.621094,1.10156248 -0.416015,0.46289062 -0.914062,0.69726562 -0.498047,0.22851562 -1.095703,0.22851562 -0.556641,0 -0.972656,-0.13476562 -0.416016,-0.12890625 -0.820313,-0.3515625 L 22.822266,0 h -1.03125 v -9.1171875 h 1.101562 v 3.2578125 q 0.462891,-0.3808594 0.984375,-0.6210937 0.521484,-0.2460938 1.171875,-0.2460938 1.160156,0 1.828125,0.890625 0.673828,0.890625 0.673828,2.5136719 z m -1.136719,0.029297 q 0,-1.1718749 -0.386718,-1.7753906 -0.386719,-0.609375 -1.248047,-0.609375 -0.480469,0 -0.972656,0.2109375 -0.492188,0.2050782 -0.914063,0.5332032 v 3.75 q 0.46875,0.21093745 0.802734,0.2929687 0.339844,0.0820313 0.767579,0.0820313 0.914062,0 1.429687,-0.5976562 0.521484,-0.6035157 0.521484,-1.8867189 z"
       id="path16" />
    <path
       d="m 34.845703,-3.2695313 q 0,1.5996094 -0.820312,2.52539068 -0.820313,0.92578124 -2.197266,0.92578124 -1.388672,0 -2.208984,-0.92578124 -0.814454,-0.92578128 -0.814454,-2.52539068 0,-1.5996093 0.814454,-2.5253906 0.820312,-0.9316406 2.208984,-0.9316406 1.376953,0 2.197266,0.9316406 0.820312,0.9257813 0.820312,2.5253906 z m -1.136719,0 q 0,-1.2714843 -0.498047,-1.8867187 -0.498046,-0.6210937 -1.382812,-0.6210937 -0.896484,0 -1.394531,0.6210937 -0.492188,0.6152344 -0.492188,1.8867187 0,1.2304688 0.498047,1.8691407 0.498047,0.63281248 1.388672,0.63281248 0.878906,0 1.376953,-0.62695308 0.503906,-0.6328126 0.503906,-1.8750001 z"
       id="path18" />
    <path
       d="m 42.023437,0 h -1.101562 v -3.7265625 q 0,-0.4511719 -0.05273,-0.84375 -0.05273,-0.3984375 -0.19336,-0.6210937 -0.146484,-0.2460938 -0.421875,-0.3632813 -0.27539,-0.1230469 -0.714844,-0.1230469 -0.451171,0 -0.943359,0.2226563 -0.492187,0.2226562 -0.943359,0.5683594 V 0 h -1.101563 v -6.5449219 h 1.101563 v 0.7265625 q 0.515625,-0.4277343 1.066406,-0.6679687 0.550781,-0.2402344 1.130859,-0.2402344 1.060547,0 1.617188,0.6386719 0.55664,0.6386719 0.55664,1.8398437 z"
       id="path20" />
    <path
       d="m 56.220703,0 h -1.160156 v -7.5175781 l -2.425781,5.1152343 H 51.943359 L 49.535156,-7.5175781 V 0 h -1.083984 v -8.7246094 h 1.582031 l 2.326172,4.8574219 2.25,-4.8574219 h 1.611328 z"
       id="path22" />
    <path
       d="m 63.5625,0 h -1.095703 v -0.69726562 q -0.146485,0.0996094 -0.398438,0.28124999 -0.246093,0.17578125 -0.480468,0.28125001 Q 61.3125,0 60.955078,0.08789062 q -0.357422,0.09375 -0.837891,0.09375 -0.884765,0 -1.5,-0.5859375 -0.615234,-0.5859375 -0.615234,-1.49414062 0,-0.7441406 0.316406,-1.2011719 0.322266,-0.4628906 0.914063,-0.7265625 0.597656,-0.2636718 1.435547,-0.3574218 0.83789,-0.09375 1.798828,-0.140625 v -0.1699219 q 0,-0.375 -0.134766,-0.6210938 -0.128906,-0.2460937 -0.375,-0.3867187 -0.234375,-0.1347656 -0.5625,-0.1816406 -0.328125,-0.046875 -0.685547,-0.046875 -0.433593,0 -0.966797,0.1171875 -0.533203,0.1113281 -1.101562,0.328125 h -0.05859 v -1.1191407 q 0.322266,-0.087891 0.931641,-0.1933593 0.609375,-0.1054688 1.201172,-0.1054688 0.691406,0 1.201172,0.1171875 0.515625,0.1113281 0.890625,0.3867188 0.36914,0.2695312 0.5625,0.6972656 0.193359,0.4277344 0.193359,1.0605469 z m -1.095703,-1.6113281 v -1.8222657 q -0.503906,0.029297 -1.189453,0.087891 -0.679688,0.058594 -1.078125,0.1699218 -0.47461,0.1347657 -0.767578,0.421875 -0.292969,0.28125 -0.292969,0.7792969 0,0.5625 0.339844,0.8496094 0.339843,0.28125 1.037109,0.28125 0.580078,0 1.060547,-0.2226562 0.480469,-0.2285157 0.890625,-0.5449222 z"
       id="path24" />
    <path
       d="m 71.443359,-3.3515625 q 0,0.796875 -0.228515,1.4589844 -0.228516,0.65625 -0.644532,1.11328123 -0.386718,0.43359374 -0.914062,0.67382812 -0.521484,0.234375 -1.107422,0.234375 -0.509766,0 -0.925781,-0.11132812 Q 67.212891,-0.09375 66.785156,-0.328125 v 2.7421875 h -1.101562 v -8.9589844 h 1.101562 v 0.6855469 q 0.439453,-0.3691406 0.984375,-0.6152344 0.550781,-0.2519531 1.171875,-0.2519531 1.183594,0 1.839844,0.8964844 0.662109,0.890625 0.662109,2.4785156 z m -1.136718,0.029297 q 0,-1.1835938 -0.404297,-1.7695313 -0.404297,-0.5859375 -1.242188,-0.5859375 -0.474609,0 -0.955078,0.2050782 -0.480469,0.2050781 -0.919922,0.5390625 v 3.7089843 q 0.46875,0.2109375 0.802735,0.2871094 0.339843,0.0761719 0.767578,0.0761719 0.919922,0 1.435547,-0.6210938 0.515625,-0.6210937 0.515625,-1.8398437 z"
       id="path26" />
    <path
       d="m 78.919922,-3.3515625 q 0,0.796875 -0.228516,1.4589844 -0.228515,0.65625 -0.644531,1.11328123 -0.386719,0.43359374 -0.914063,0.67382812 -0.521484,0.234375 -1.107421,0.234375 -0.509766,0 -0.925782,-0.11132812 Q 74.689453,-0.09375 74.261719,-0.328125 v 2.7421875 h -1.101563 v -8.9589844 h 1.101563 v 0.6855469 q 0.439453,-0.3691406 0.984375,-0.6152344 0.550781,-0.2519531 1.171875,-0.2519531 1.183593,0 1.839843,0.8964844 0.66211,0.890625 0.66211,2.4785156 z m -1.136719,0.029297 q 0,-1.1835938 -0.404297,-1.7695313 -0.404297,-0.5859375 -1.242187,-0.5859375 -0.47461,0 -0.955078,0.2050782 -0.480469,0.2050781 -0.919922,0.5390625 v 3.7089843 q 0.46875,0.2109375 0.802734,0.2871094 0.339844,0.0761719 0.767578,0.0761719 0.919922,0 1.435547,-0.6210938 0.515625,-0.6210937 0.515625,-1.8398437 z"
       id="path28" />
    <path
       d="m 86.115234,-3.1582031 h -4.822265 q 0,0.6035156 0.18164,1.0546875 0.181641,0.4453125 0.498047,0.7324219 0.304688,0.28125 0.720703,0.42187495 0.421875,0.140625 0.925782,0.140625 0.667968,0 1.341796,-0.26367185 0.679688,-0.2695313 0.966797,-0.5273438 h 0.05859 v 1.2011719 q -0.556641,0.234375 -1.136719,0.39257812 -0.580078,0.15820313 -1.21875,0.15820313 -1.628906,0 -2.542968,-0.87890625 -0.914063,-0.8847656 -0.914063,-2.5078125 0,-1.6054687 0.873047,-2.5488281 0.878906,-0.9433594 2.308594,-0.9433594 1.324218,0 2.039062,0.7734375 0.720703,0.7734375 0.720703,2.1972656 z m -1.072265,-0.84375 q -0.0059,-0.8671875 -0.439453,-1.3417969 -0.427735,-0.4746094 -1.306641,-0.4746094 -0.884766,0 -1.412109,0.5214844 -0.521485,0.5214844 -0.591797,1.2949219 z"
       id="path30" />
    <path
       d="m 91.869141,-5.34375 h -0.05859 q -0.246094,-0.058594 -0.480469,-0.082031 -0.228516,-0.029297 -0.544922,-0.029297 -0.509765,0 -0.984375,0.2285156 -0.474609,0.2226563 -0.914062,0.5800781 V 0 H 87.78516 v -6.5449219 h 1.101563 v 0.9667969 q 0.65625,-0.5273437 1.154297,-0.7441406 0.503906,-0.2226563 1.02539,-0.2226563 0.28711,0 0.416016,0.017578 0.128906,0.011719 0.386719,0.052734 z"
       id="path32" />
  </g>
</svg>
