<svg xmlns="http://www.w3.org/2000/svg" role="img" viewBox="3.78 20.28 141.57 65.44"><path fill="#0079C1" fill-rule="evenodd" d="M28.5 49.5c-.7.5-1.6.9-2.5 1.3h8.3v-8.2c-.3.7-.8 1.8-1.3 2.5l-1.6-1.6c-.5.9-1.2 1.7-1.9 2.5-.8.8-1.6 1.4-2.5 1.9l1.5 1.6zm.1-8.7c-.4.9-1 1.8-1.8 2.6s-1.7 1.4-2.6 1.8l2.2 2.2c.9-.5 1.8-1.2 2.5-1.9.8-.8 1.4-1.6 1.9-2.5l-2.2-2.2zm5.2-.7c.5-2 .5-4.2 0-6.3h-1.1c.5 2.1.5 4.3 0 6.3h1.1zm-1.7 0c.5-1.9.6-4.2 0-6.3h-3.2c.7 2 .7 4.3 0 6.3h3.2zm.8-11.3c.4.6.9 1.6 1.3 2.5v-8.2h-8.3c.8.3 1.6.7 2.5 1.3L26.8 26c.9.5 1.7 1.1 2.5 1.9.8.8 1.4 1.6 1.9 2.5l1.7-1.6zm-8.7-.1c.9.4 1.8 1 2.6 1.8s1.3 1.6 1.8 2.6l2.2-2.2c-.5-.9-1.2-1.8-1.9-2.5-.8-.8-1.6-1.4-2.5-1.9l-2.2 2.2zm-.7-5.2c-2.1-.5-4.2-.5-6.3 0v1.1c2.1-.5 4.2-.5 6.3 0v-1.1zm0 1.7c-2.1-.6-4.2-.5-6.3 0v3.2c2-.7 4.3-.8 6.3 0v-3.2zM9.4 30.5c.5-.9 1.2-1.7 1.9-2.5.8-.8 1.6-1.4 2.5-1.9l-1.6-1.6c.8-.5 1.6-.9 2.5-1.3H6.5v8.3c.4-.9.8-1.7 1.3-2.5l1.6 1.5zm4.9-4.1c-.9.5-1.8 1.2-2.5 1.9-.8.8-1.4 1.6-1.9 2.5l2.2 2.2c.4-1 1-1.8 1.8-2.6s1.7-1.4 2.6-1.8l-2.2-2.2zm-5.7 7.4c-.5 2.1-.6 4.2 0 6.3h3.2c-.7-2-.7-4.3 0-6.3H8.6zm-1.7 0c-.5 2.1-.5 4.2 0 6.3H8c-.5-2-.5-4.2 0-6.3H6.9zm.9 11.3c-.5-.8-.9-1.6-1.3-2.5v8.3h8.2c-.9-.4-1.7-.8-2.5-1.3l1.7-1.6c-.9-.5-1.7-1.2-2.5-1.9-.8-.8-1.4-1.6-1.9-2.5l-1.7 1.5zm2-2.1c.5.9 1.2 1.8 1.9 2.5.8.8 1.6 1.4 2.5 1.9l2.2-2.2c-1-.4-1.8-1-2.6-1.8s-1.4-1.7-1.8-2.6L9.8 43zm7.4 2.5c2 .7 4.3.7 6.3 0v3.2c-2.1.6-4.2.5-6.3 0v-3.2zm0 3.8c2.1.5 4.2.5 6.3 0v1.1c-2.1.5-4.2.5-6.3 0v-1.1z" clip-rule="evenodd"/><path fill="#0079C1" d="M40.7 23h4.2l13.9 19.3V23h4.5v28h-3.8L45.2 31v19.9h-4.5V23zm35.7 13.8h3.9c3.4 0 5.5-1.8 5.5-4.7V32c0-3-2.1-4.6-5.6-4.6h-6.9v23.5h-4.7V23h12c3.4 0 6 1 7.8 2.8 1.4 1.5 2.2 3.6 2.2 6v.1c0 4.6-2.7 7.4-6.4 8.5L91.5 51h-5.6l-9.5-14.2zM95.6 23h21.3v4.4h-16v7.3h13V39h-13v7.5h16.2v4.4H95.6V23zm27 0h5.3v23.5h14.8V51h-20.1V23z"/><path fill="#5C6670" d="M9.9 58.9h-.4l-2.4-3v3h-.6v-4H7l2.4 3v-3h.6v4h-.1zm4.8 0h-.6l-.5-1h-2l-.5 1h-.6l1.8-4h.5l1.9 4zm-2.9-1.5h1.6l-.8-1.7-.8 1.7zm4.6 1.5h-.6v-3.4h-1.3V55h3.2v.5h-1.3v3.4zm2.6 0h-.6v-4h.6v4zm2.9.1c-1.2 0-2-.9-2-2 0-1.2.9-2.1 2-2.1 1.2 0 2 .9 2 2 0 1.2-.9 2.1-2 2.1zm0-3.6c-.8 0-1.5.6-1.5 1.5s.6 1.5 1.5 1.5c.8 0 1.5-.7 1.5-1.5-.1-.8-.7-1.5-1.5-1.5zm6.2 3.5h-.4l-2.4-3v3h-.6v-4h.5l2.4 3v-3h.6v4h-.1zm4.8 0h-.6l-.5-1h-2l-.5 1h-.6l1.8-4h.5l1.9 4zM30 57.4h1.6l-.8-1.7-.8 1.7zm6.2 1.5h-2.8v-4h.6v3.4h2.2v.6zm2.9 0h-.6v-4h1.7c.5 0 .9.1 1.1.4.2.2.3.5.3.8 0 .6-.4 1-1 1.2l1.2 1.6h-.7l-1.5-2h.5c.6 0 .9-.3.9-.7 0-.5-.3-.7-.9-.7H39v3.4zm50.5 0H89v-4h1.7c.5 0 .9.1 1.1.4.2.2.3.5.3.8 0 .6-.4 1-1 1.2l1.2 1.6h-.7l-1.5-2h.5c.6 0 .9-.3.9-.7 0-.5-.3-.7-.9-.7h-1.1v3.4zm30.4 0h-.6v-4h1.7c.5 0 .9.1 1.1.4.2.2.3.5.3.8 0 .6-.4 1-1 1.2l1.2 1.6h-.7l-1.5-2h.5c.6 0 .9-.3.9-.7 0-.5-.3-.7-.9-.7h-1v3.4zm15.9 0h-.6v-4h1.7c.5 0 .9.1 1.1.4.2.2.3.5.3.8 0 .6-.4 1-1 1.2l1.2 1.6h-.6l-1.5-2h.5c.6 0 .9-.3.9-.7 0-.5-.3-.7-.9-.7h-1.1v3.4zm-90.4 0h-3v-4h2.9v.5H43v1.2h2.1v.5H43v1.2h2.4v.6h.1zm4.2 0h-.4l-2.4-3v3h-.6v-4h.5l2.4 3v-3h.6v4h-.1zm3.9 0h-3v-4h2.9v.5h-2.4v1.2h2v.5h-2v1.2h2.4v.6h.1zm4.9.1H58l-1-3-1 3h-.5l-1.4-4h.6l1.1 3.1 1-3.1h.5l1 3.1 1.1-3.1h.6l-1.5 4zm5.3-.1h-.6l-.5-1h-2l-.5 1h-.6l1.8-4h.6l1.8 4zm-2.9-1.5h1.6l-.8-1.7-.8 1.7zm5.3 1.5h-1.8v-4h1.7c.4 0 .8.1 1.1.4.2.2.3.4.3.7 0 .5-.3.7-.5.9.5.2.7.5.7.9 0 .7-.6 1.1-1.5 1.1zm-1.2-.5h1.2c.6 0 .9-.2.9-.6 0-.5-.6-.6-1-.6H65v1.2zm0-1.7h1.1c.5 0 .8-.2.8-.6 0-.4-.3-.6-.8-.6H65v1.2zm6.2 2.2h-2.8v-4h.6v3.4h2.2v.6zm3.6 0h-3v-4h2.9v.5h-2.4v1.2h2v.5h-2v1.2h2.4v.6h.1zm5.4 0h-3v-4h2.9v.5h-2.4v1.2h2v.5h-2v1.2h2.4v.6h.1zm4.2 0H84l-2.4-3v3H81v-4h.5l2.3 2.9v-3h.6v4.1zm3.9 0h-3v-4h2.9v.5h-2.4v1.2h2v.5h-2v1.2h2.4v.6h.1zm6.6.1c-1.2 0-2-.8-2-2s.9-2.1 2-2.1c.6 0 1 .2 1.5.5l-.4.4c-.3-.2-.6-.4-1.1-.4-.8 0-1.4.7-1.4 1.5 0 .9.6 1.5 1.5 1.5.4 0 .8-.1 1.1-.4v-.9h-1.2v-.5h1.7v1.6c-.3.4-.9.8-1.7.8zm4.1-.1h-.6v-1.6L96.8 55h.7l1.3 1.9L100 55h.7L99 57.4v1.5zm6.6 0h-2.8v-4h.6v3.4h2.2v.6zm4.5 0h-.6l-.5-1h-2l-.5 1h-.6l1.8-4h.5l1.9 4zm-2.9-1.5h1.6l-.8-1.7-.8 1.7zm5.3 1.5h-1.8v-4h1.7c.5 0 .8.1 1.1.4.2.2.3.4.3.7 0 .5-.3.7-.5.9.5.2.7.5.7.9-.1.7-.6 1.1-1.5 1.1zm-1.3-.5h1.2c.6 0 .9-.2.9-.6 0-.5-.6-.6-1-.6h-1.2v1.2h.1zm0-1.7h1.1c.5 0 .8-.2.8-.6 0-.4-.3-.6-.8-.6h-1.1v1.2zm5.3 2.3c-1.2 0-2-.9-2-2 0-1.2.9-2.1 2-2.1 1.2 0 2 .9 2 2 .1 1.2-.8 2.1-2 2.1zm0-3.6c-.8 0-1.5.6-1.5 1.5s.6 1.5 1.5 1.5c.8 0 1.5-.7 1.5-1.5s-.6-1.5-1.5-1.5zm10.7 3.5h-.6l-.5-1h-2l-.5 1h-.6l1.8-4h.5l1.9 4zm-2.9-1.5h1.6l-.8-1.7-.8 1.7zm4.6 1.5h-.6v-3.4H127V55h3.2v.5h-1.3v3.4zm3.6.1c-1.2 0-2-.9-2-2 0-1.2.9-2.1 2-2.1 1.2 0 2 .9 2 2 0 1.2-.9 2.1-2 2.1zm0-3.6c-.8 0-1.5.6-1.5 1.5s.6 1.5 1.5 1.5c.8 0 1.5-.7 1.5-1.5-.1-.8-.7-1.5-1.5-1.5zm8.5 3.5h-.6v-1.6l-1.7-2.4h.7l1.3 1.9L142 55h.7l-1.7 2.4v1.5z"/><path d="M21.904 65.01215c-1.83063 1.84573-2.74784 4.48033-2.74784 7.89248 0 3.15925.80775 5.64665 2.41568 7.45841 1.61171 1.80421 3.82357 2.70632 6.63557 2.70632 2.27225 0 4.13686-.6681 5.59381-2.00426 1.45319-1.3324 2.35907-3.06867 2.71387-5.20126h-4.04627c-.27553 1.00779-.61901 1.76646-1.03798 2.26847-.75113.93985-1.84196 1.40789-3.27627 1.40789-1.39656 0-2.55156-.5473-3.45744-1.63813-.90588-1.09461-1.35882-2.73652-1.35882-4.9295 0-2.19299.4303-3.89151 1.2871-5.08803.85682-1.20029 2.03068-1.80043 3.51784-1.80043 1.45695 0 2.5591.42651 3.30269 1.27578.41519.47558.7549 1.18519 1.02288 2.12127h4.08401c-.06039-1.21917-.51333-2.43456-1.35127-3.64995-1.52112-2.15524-3.92925-3.23474-7.22062-3.23474-2.4572 0-4.4841.80397-6.07694 2.41568zM27.86394 62.37zm13.66746 2.64215c-1.83063 1.84573-2.74784 4.48033-2.74784 7.89248 0 3.15925.80397 5.64665 2.41568 7.45841 1.60794 1.80421 3.8198 2.70632 6.63557 2.70632 2.27225 0 4.13686-.6681 5.59381-2.00426 1.45319-1.3324 2.35907-3.06867 2.7101-5.20126h-4.04627c-.27176 1.00779-.61902 1.76646-1.03421 2.26847-.75113.93985-1.84573 1.40789-3.27627 1.40789-1.40034 0-2.55156-.5473-3.45744-1.63813-.90588-1.09461-1.3626-2.73652-1.3626-4.9295 0-2.19299.4303-3.89151 1.2871-5.08803.8606-1.20029 2.0307-1.80043 3.51784-1.80043 1.46074 0 2.56289.42651 3.30647 1.27578.41519.47558.7549 1.18519 1.01911 2.12127h4.08778c-.06039-1.21917-.51333-2.43456-1.35504-3.64995-1.52112-2.15524-3.92548-3.23474-7.21685-3.23474-2.46097 0-4.4841.80397-6.07694 2.41568zM47.48756 62.37zm15.73967 3.99342h4.29915c.9474 0 1.72495.10191 2.33642.30573.70583.29064 1.06063.89456 1.06063 1.80421 0 .82285-.26799 1.39657-.80397 1.7174-.53598.3246-1.23048.48691-2.09107.48691h-4.80116zm0 7.55277h4.8691c.84926.00755 1.5098.11701 1.97784.32838.84171.38123 1.26068 1.07951 1.26068 2.09863 0 1.20406-.43407 2.01558-1.3022 2.4421-.47559.23024-1.14367.34348-2.00426.34348h-4.80116zm10.69315-8.8663c-.99646-1.35504-2.69499-2.04955-5.09557-2.08352h-9.50042v19.55946h8.8663c1.00025 0 1.925-.08682 2.77803-.26422.85304-.1774 1.59662-.50578 2.22319-.98137.55862-.4152 1.02289-.92852 1.39279-1.54.58504-.92097.87568-1.95896.87568-3.11773 0-1.1248-.2529-2.07975-.76245-2.86862-.50956-.7851-1.26068-1.3626-2.26092-1.72495.65298-.33593 1.14744-.70583 1.48337-1.11347.60392-.7247.90211-1.6872.90211-2.87995 0-1.15877-.29819-2.15524-.9021-2.98563zm8.51905 17.47594V62.96637h-3.77827v19.55946zm11.66698-7.0319v1.4079c-.02642 1.26445-.385 2.13636-1.06818 2.61195-.68696.47936-1.43809.71715-2.2496.71715-.51334 0-.95118-.14343-1.30976-.4303-.3548-.28685-.53598-.7549-.53598-1.40033 0-.7247.29064-1.26068.87569-1.60794.34725-.20382.9172-.37367 1.71362-.5171l.84926-.15853c.42275-.07927.75868-.16608 1.00025-.25667.24534-.09436.48313-.21515.7247-.36613zm-2.29867-1.76646l-1.2871.15853c-1.45696.18872-2.56289.49823-3.31402.9323-1.37391.79642-2.0571 2.08352-2.0571 3.86131 0 1.37015.42652 2.43078 1.27956 3.17813.85303.74735 1.93632 1.12103 3.2423 1.12103 1.02666 0 1.94763-.23402 2.76293-.70583.6794-.39633 1.28333-.87946 1.8042-1.44564.02643.32838.0604.61902.1057.87569.04529.25666.12455.5322.23779.82284h4.1142v-.55863c-.24912-.11323-.43407-.26044-.55862-.43784-.12079-.17363-.19628-.50956-.2227-1.0078-.01887-.65298-.02642-1.2116-.02642-1.6721v-6.6318c0-1.74381-.61524-2.929-1.84573-3.55935-1.23049-.62656-2.6346-.93985-4.2199-.93985-2.43455 0-4.14817.63412-5.14841 1.9099-.62657.8153-.98137 1.85328-1.06064 3.11774h3.64617c.09059-.55863.268-1.00024.5322-1.32485.37368-.4454 1.00402-.66431 1.89858-.66431.79642 0 1.40034.11323 1.81176.33593.41142.22647.61524.63789.61524 1.23048 0 .48691-.26799.84172-.80774 1.07196-.30196.13588-.8002.24534-1.50225.33216zm.20005-6.05052zm16.90598.61901c-.6794-.385-1.46073-.5775-2.33641-.5775-1.90235 0-3.4197.70584-4.55582 2.12127-1.13613 1.41544-1.70608 3.3593-1.70608 5.82783 0 2.14014.5775 3.89151 1.7325 5.26165 1.155 1.36637 2.5742 2.04956 4.26518 2.04956 1.02667 0 1.88348-.19628 2.57421-.58505.69074-.38877 1.30598-1.01157 1.84573-1.87215v2.00426h3.67637V62.99279h-3.8349v6.89979c-.42651-.67941-.9776-1.21162-1.66078-1.59662zm.92853 10.30439c-.55485.79264-1.37014 1.19274-2.4421 1.19274-1.06818 0-1.86838-.4001-2.39303-1.2003-.52843-.80019-.78887-1.86837-.78887-3.20454 0-1.23804.25666-2.27603.77377-3.11396.5171-.83417 1.32862-1.25314 2.43455-1.25314.72848 0 1.3626.23025 1.91367.69074.89078.75867 1.33995 2.0269 1.33995 3.79337 0 1.26823-.27931 2.29867-.83794 3.09509zm11.67075-6.98283c.48314-.5473 1.16255-.82284 2.03823-.82284.80397 0 1.4796.26044 2.02314.77755.54352.5171.84548 1.27578.90965 2.27602h-5.88067c.12456-.93985.42652-1.67965.90965-2.23073zm5.28808-3.26494c-.9625-.44917-2.04578-.67564-3.24985-.67564-2.0269 0-3.67258.6681-4.9446 2.00426-1.26822 1.33618-1.90234 3.2574-1.90234 5.7599 0 2.67234.70206 4.6011 2.10995 5.7863 1.40411 1.1852 3.03092 1.77779 4.8691 1.77779 2.23073 0 3.96323-.70583 5.20126-2.10995.79642-.887 1.24181-1.75891 1.33995-2.61572h-3.86131c-.20383.42651-.43784.75867-.70206.99646-.48691.44162-1.12103.66432-1.89857.66432-.73226 0-1.3626-.18118-1.88348-.5473-.85681-.58128-1.31353-1.6004-1.36637-3.0498h9.89674c.01887-1.24936-.01887-2.20431-.117-2.86862-.16986-1.13235-.53599-2.12505-1.10216-2.98563-.62657-.97005-1.42299-1.68343-2.38926-2.13637zm-2.98563-.67564z"/></svg>
