<svg xmlns="http://www.w3.org/2000/svg" role="img" viewBox="48.01 123.00 415.74 325.24"><path fill="#142E5D" fill-rule="evenodd" d="M191.166 275.428C173.164 279.266 161.124 290.52 156.758 307.591 152.75 323.264 154.902 342.092 162.195 355.183 166.945 363.705 175.931 371.8 185.191 375.895 201.554 383.132 224.459 383.349 241.195 376.428L245.678 374.574V367.422C245.678 363.488 245.436 360.378 245.14 360.51 244.844 360.642 242.505 361.775 239.94 363.029 220.066 372.75 195.549 370.027 182.3 356.627 174.087 348.32 170.269 338.038 170.252 324.169 170.239 314.582 171.126 309.785 173.99 303.929 177.865 296.008 184.552 290.782 194.036 288.263 206.023 285.08 230.482 287.88 242.243 293.784 243.706 294.519 245.078 295.119 245.291 295.119 245.503 295.119 245.678 291.77 245.678 287.677V280.233L239.647 278.72C222.856 274.51 202.087 273.098 191.166 275.428zM386.261 275.776C383.302 276.055 377.781 276.325 373.99 276.377L367.1 276.471 367.349 284.899C367.882 303.068 368.104 370.284 367.642 373.839L367.153 377.605H375.543 383.936L383.289 374.556C382.934 372.879 382.73 362.87 382.838 352.311L383.033 333.116 404.775 352.311C416.733 362.87 428.072 372.888 429.973 374.575L433.427 377.642 444.713 377.443 456 377.246 452.516 374.745C450.601 373.37 443.819 367.722 437.445 362.193 431.072 356.665 420.524 347.623 414.007 342.1 407.489 336.578 402.131 331.816 402.098 331.521 402.066 331.226 402.928 330.977 404.013 330.97 407.529 330.949 416.574 328.239 421.872 325.62 428.579 322.305 433.101 317.862 435.956 311.778 438 307.424 438.221 306.29 438.221 300.14 438.22 292.142 436.625 287.637 432.3 283.422 428.971 280.175 421.744 276.894 415.609 275.843 410.557 274.979 395.084 274.943 386.261 275.776zM293.543 280.693C292.851 282.64 284.033 302.903 273.948 325.719 252.469 374.305 253.743 371.498 251.637 374.9 250.727 376.372 249.981 377.744 249.981 377.949 249.981 378.153 254.135 378.322 259.211 378.322H268.441L269.691 373.839C270.856 369.659 280.908 346.795 282.467 344.78 283.01 344.076 288.15 343.915 305.402 344.063L327.639 344.252 333.579 356.804C336.846 363.707 340.111 371.209 340.834 373.474L342.15 377.592 351.69 377.599 361.23 377.605 359.478 375.273C358.515 373.992 356.58 370.646 355.178 367.839 351.399 360.272 318.133 285.302 316.704 281.133L315.476 277.547 305.139 277.35 294.801 277.152 293.543 280.693zM56.0494 278.761C56.3403 279.232 56.7864 297.227 57.0407 318.749 57.4987 357.387 57.5256 357.934 59.1613 362.125 61.0372 366.93 65.1889 371.837 69.9493 374.877 82.4765 382.875 110.769 383.706 126.436 376.537 131.461 374.238 137.569 368.362 139.429 364.038 141.993 358.078 142.388 351.82 142.573 314.306L142.752 277.905 134.861 277.906H126.971V316.458C126.971 354.917 126.968 355.018 125.379 357.99 121.463 365.312 113.494 368.597 99.7157 368.568 85.7662 368.539 77.8173 365.177 74.1667 357.762L72.4599 354.294V316.099 277.906H63.9896C57.6086 277.906 55.6507 278.116 56.0494 278.761zM411.275 286.911C424.74 290.909 426.072 310.232 413.329 316.733 411.771 317.528 408.351 318.634 405.73 319.189 400.935 320.205 387.29 320.575 384.288 319.772L382.674 319.34V302.965 286.592L386.081 286.322C395.708 285.564 407.679 285.843 411.275 286.911zM314.126 312.152C319.085 322.506 323.143 331.14 323.143 331.339 323.143 331.537 315.046 331.7 305.151 331.7 295.193 331.7 287.267 331.421 287.399 331.074 290.219 323.685 304.272 292.49 304.622 292.84 304.89 293.107 309.166 301.798 314.126 312.152zM200.294 131.872C180.483 134.781 167.244 146.804 162.733 165.978 160.529 175.347 161.373 192.618 164.464 201.415 171.511 221.469 187.568 233.38 211.09 236.003 221.832 237.201 233.125 235.933 242.752 232.447L249.756 229.911 250.018 222.507C250.163 218.436 250.112 215.104 249.906 215.104 249.699 215.104 247.748 216.096 245.569 217.31 239 220.966 229.051 223.253 219.716 223.253 200.033 223.253 185.102 213.537 179.364 196.996 177.669 192.109 177.324 189.192 177.324 179.793 177.324 165.223 178.825 160.657 186.005 153.379 190.34 148.987 192.046 147.942 197.78 146.172 209.071 142.687 226.865 143.697 241.433 148.652 244.894 149.829 248.301 151.27 249.004 151.854 250.092 152.757 250.244 151.714 250.019 144.851L249.756 136.787 240.702 134.781C231.767 132.803 214.727 130.807 208.56 131.015 206.817 131.075 203.097 131.46 200.294 131.872zM389.64 132.701C385.407 133.106 379.092 133.479 375.606 133.528L369.268 133.618V182.961 232.305L376.964 232.307 384.66 232.308 384.36 211.031C384.197 199.327 384.305 189.753 384.602 189.753 385.259 189.753 429.414 228.675 431.172 230.803 432.214 232.064 434.32 232.307 444.205 232.307H455.995L451.564 228.924C445.972 224.655 404.664 188.876 404.334 188.015 404.199 187.664 406.728 186.852 409.954 186.21 417.089 184.792 425.295 181.026 429.725 177.136 441.589 166.719 441.506 145.579 429.571 138.009 427.278 136.555 423.366 134.747 420.876 133.991 415.39 132.326 400.137 131.696 389.64 132.701zM56 183.868V233.212L63.6959 233.213H71.3918L71.0975 193.277C70.9038 166.864 71.1111 153.451 71.7114 153.665 72.653 154.002 124.254 225.081 127.323 230.269L129.064 233.212H139.613 150.162V183.868 134.523H142.466L134.77 134.523 135.064 174.459C135.261 201.275 135.055 214.288 134.437 214.07 133.478 213.733 88.0982 151.347 81.0198 140.635L76.9808 134.523H66.4909 56V183.868zM297.588 136.108C296.001 140.677 258.708 224.412 256.458 228.459L253.814 233.212H263.264 272.715L274.127 228.353C274.904 225.68 277.952 218.245 280.901 211.829L286.262 200.165 308.124 199.922 329.987 199.68 336.23 212.795C339.664 220.008 342.916 227.553 343.456 229.561L344.44 233.212H353.973 363.506L361.75 230.722C360.784 229.352 358.963 226.185 357.703 223.684 353.383 215.108 320.91 141.794 319.821 138.158L318.732 134.523H308.435C299.441 134.523 298.068 134.724 297.588 136.108zM411.015 144.008C420.702 146.886 424.82 156.357 420.509 165.849 417.233 173.064 409.108 176.172 393.524 176.172H384.207V159.924 143.677L388.508 143.337C398.881 142.52 406.795 142.755 411.015 144.008zM317.063 168.791C321.624 178.426 325.356 186.676 325.356 187.125 325.356 187.581 317.955 187.942 308.607 187.942 296.261 187.942 291.857 187.659 291.857 186.865 291.857 186.272 294.714 179.179 298.206 171.102 301.698 163.025 305.19 154.9 305.965 153.047 306.739 151.194 307.687 150.037 308.071 150.475 308.454 150.914 312.502 159.157 317.063 168.791z" clip-rule="evenodd"/><path d="M27.56 30.87L37.83 30.87C37.27 25.41 35.46 21.60 32.40 19.44C29.34 17.29 25.41 16.21 20.60 16.21C14.95 16.21 10.52 18.04 7.31 21.69C4.10 25.35 2.50 30.47 2.50 37.05C2.50 42.89 3.95 47.64 6.86 51.29C9.76 54.95 14.30 56.78 20.46 56.78C26.62 56.78 31.28 54.59 34.42 50.20C36.39 47.48 37.49 44.60 37.72 41.55L27.49 41.55C27.28 43.57 26.68 45.21 25.70 46.48C24.71 47.74 23.05 48.38 20.71 48.38C17.40 48.38 15.15 46.78 13.96 43.59C13.30 41.88 12.97 39.62 12.97 36.81C12.97 33.86 13.30 31.49 13.96 29.71C15.20 26.36 17.51 24.68 20.88 24.68C23.25 24.68 25.00 25.45 26.12 27C26.89 28.15 27.38 29.44 27.56 30.87ZM20.78 16.10ZM67.61 30.87L77.87 30.87C77.31 25.41 75.50 21.60 72.44 19.44C69.38 17.29 65.45 16.21 60.64 16.21C55.00 16.21 50.57 18.04 47.36 21.69C44.14 25.35 42.54 30.47 42.54 37.05C42.54 42.89 43.99 47.64 46.90 51.29C49.80 54.95 54.34 56.78 60.50 56.78C66.67 56.78 71.32 54.59 74.46 50.20C76.43 47.48 77.53 44.60 77.77 41.55L67.54 41.55C67.32 43.57 66.73 45.21 65.74 46.48C64.76 47.74 63.09 48.38 60.75 48.38C57.45 48.38 55.20 46.78 54 43.59C53.34 41.88 53.02 39.62 53.02 36.81C53.02 33.86 53.34 31.49 54 29.71C55.24 26.36 57.55 24.68 60.93 24.68C63.29 24.68 65.04 25.45 66.16 27C66.94 28.15 67.42 29.44 67.61 30.87ZM60.82 16.10ZM109.14 28.44C110.49 30.71 111.16 33.33 111.16 36.28C111.16 39.87 110.43 42.74 108.97 44.89C107.50 47.05 105.37 48.13 102.59 48.13C100.66 48.13 99 47.60 97.59 46.55C95.23 44.74 94.04 41.61 94.04 37.16C94.04 34.35 94.39 32.03 95.10 30.20C96.46 26.75 98.95 25.03 102.59 25.03C105.61 25.03 107.79 26.17 109.14 28.44ZM116.84 21.23C113.74 17.93 109.95 16.28 105.47 16.28C102.40 16.28 99.75 17.13 97.52 18.84C96.30 19.80 95.16 21.12 94.08 22.78L94.08 17.12L84.48 17.12L84.48 70.52L94.39 70.52L94.39 50.55C95.45 52.17 96.53 53.40 97.63 54.25C99.64 55.77 102.18 56.53 105.22 56.53C110.00 56.53 113.91 54.76 116.95 51.22C119.98 47.68 121.50 42.54 121.50 35.79C121.50 29.39 119.95 24.54 116.84 21.23ZM153.12 28.44C154.47 30.71 155.14 33.33 155.14 36.28C155.14 39.87 154.41 42.74 152.95 44.89C151.48 47.05 149.36 48.13 146.57 48.13C144.64 48.13 142.98 47.60 141.57 46.55C139.21 44.74 138.02 41.61 138.02 37.16C138.02 34.35 138.38 32.03 139.08 30.20C140.44 26.75 142.93 25.03 146.57 25.03C149.59 25.03 151.78 26.17 153.12 28.44ZM160.82 21.23C157.72 17.93 153.93 16.28 149.45 16.28C146.38 16.28 143.73 17.13 141.50 18.84C140.29 19.80 139.14 21.12 138.06 22.78L138.06 17.12L128.46 17.12L128.46 70.52L138.38 70.52L138.38 50.55C139.43 52.17 140.51 53.40 141.61 54.25C143.62 55.77 146.16 56.53 149.20 56.53C153.98 56.53 157.89 54.76 160.93 51.22C163.96 47.68 165.48 42.54 165.48 35.79C165.48 29.39 163.93 24.54 160.82 21.23ZM169.70 30.62L169.70 40.11L189.88 40.11L189.88 30.62ZM221.08 28.44C222.43 30.71 223.10 33.33 223.10 36.28C223.10 39.87 222.37 42.74 220.90 44.89C219.44 47.05 217.31 48.13 214.52 48.13C212.60 48.13 210.94 47.60 209.53 46.55C207.16 44.74 205.98 41.61 205.98 37.16C205.98 34.35 206.33 32.03 207.04 30.20C208.39 26.75 210.89 25.03 214.52 25.03C217.55 25.03 219.73 26.17 221.08 28.44ZM228.78 21.23C225.67 17.93 221.88 16.28 217.41 16.28C214.34 16.28 211.69 17.13 209.46 18.84C208.24 19.80 207.09 21.12 206.02 22.78L206.02 17.12L196.42 17.12L196.42 70.52L206.33 70.52L206.33 50.55C207.39 52.17 208.46 53.40 209.57 54.25C211.58 55.77 214.11 56.53 217.16 56.53C221.94 56.53 225.85 54.76 228.88 51.22C231.92 47.68 233.44 42.54 233.44 35.79C233.44 29.39 231.88 24.54 228.78 21.23ZM268.26 17.37C266.33 16.55 264.18 16.14 261.81 16.14C259.70 16.14 257.69 16.58 255.78 17.46C253.87 18.33 252.19 19.89 250.73 22.11L250.73 3.80L240.75 3.80L240.75 55.44L250.73 55.44L250.73 34.70C250.73 31.42 251.42 28.89 252.79 27.12C254.16 25.35 256.17 24.47 258.82 24.47C261.38 24.47 263.11 25.36 264.02 27.14C264.73 28.41 265.08 30.07 265.08 32.13L265.08 55.44L275.31 55.44L275.31 32.94C275.31 29.52 275.19 27.05 274.96 25.54C274.72 24.03 274.08 22.56 273.02 21.13C271.78 19.44 270.19 18.19 268.26 17.37ZM286.21 62.79L286.21 70.80C287.29 70.88 288.09 70.92 288.63 70.93C289.17 70.94 289.89 70.95 290.78 70.95C295.21 70.95 298.16 70.07 299.64 68.33C301.11 66.58 303.12 62.07 305.65 54.81L318.80 17.12L308.14 17.12L300.23 45.39L291.87 17.12L280.72 17.12L294.79 57.13C294.88 57.41 294.67 58.18 294.17 59.45C293.67 60.71 293.12 61.55 292.54 61.95C291.93 62.37 291.18 62.64 290.29 62.75C289.39 62.87 288.46 62.91 287.47 62.86ZM299.78 16.10ZM332.51 43.21L322.35 43.21C322.35 47.14 323.78 50.38 326.65 52.93C329.53 55.47 333.97 56.74 340.00 56.74C345.90 56.74 350.27 55.54 353.09 53.14C355.92 50.74 357.33 47.64 357.33 43.84C357.33 40.96 356.34 38.55 354.38 36.63C352.38 34.73 349.39 33.32 345.41 32.38C339.43 31.07 335.95 30.14 334.97 29.60C333.98 29.09 333.49 28.25 333.49 27.11C333.49 26.19 333.96 25.39 334.88 24.71C335.81 24.04 337.36 23.70 339.54 23.70C342.19 23.70 344.06 24.37 345.16 25.73C345.75 26.48 346.11 27.50 346.25 28.79L356.27 28.79C355.83 24.11 354.10 20.81 351.09 18.90C348.08 16.99 344.18 16.03 339.40 16.03C334.36 16.03 330.45 17.30 327.67 19.85C324.90 22.39 323.51 25.43 323.51 28.97C323.51 31.97 324.40 34.27 326.18 35.86C327.96 37.48 331.02 38.82 335.36 39.90C341.38 41.33 344.86 42.34 345.80 42.93C346.73 43.51 347.20 44.37 347.20 45.49C347.20 46.66 346.62 47.54 345.46 48.13C344.30 48.71 342.74 49.01 340.77 49.01C337.42 49.01 335.12 48.34 333.88 47.00C333.18 46.25 332.72 44.99 332.51 43.21ZM340.17 16.10ZM375.05 12.55L375.05 3.30L364.89 3.30L364.89 12.55ZM364.89 17.12L364.89 55.44L375.05 55.44L375.05 17.12ZM407.64 30.87L417.90 30.87C417.34 25.41 415.53 21.60 412.47 19.44C409.41 17.29 405.48 16.21 400.68 16.21C395.03 16.21 390.60 18.04 387.39 21.69C384.18 25.35 382.57 30.47 382.57 37.05C382.57 42.89 384.02 47.64 386.93 51.29C389.84 54.95 394.37 56.78 400.54 56.78C406.70 56.78 411.35 54.59 414.49 50.20C416.46 47.48 417.56 44.60 417.80 41.55L407.57 41.55C407.36 43.57 406.76 45.21 405.77 46.48C404.79 47.74 403.13 48.38 400.78 48.38C397.48 48.38 395.23 46.78 394.03 43.59C393.37 41.88 393.05 39.62 393.05 36.81C393.05 33.86 393.37 31.49 394.03 29.71C395.27 26.36 397.58 24.68 400.96 24.68C403.32 24.68 405.07 25.45 406.20 27C406.97 28.15 407.45 29.44 407.64 30.87ZM400.85 16.10ZM432.60 43.21L422.44 43.21C422.44 47.14 423.87 50.38 426.74 52.93C429.62 55.47 434.06 56.74 440.09 56.74C445.99 56.74 450.36 55.54 453.18 53.14C456.01 50.74 457.42 47.64 457.42 43.84C457.42 40.96 456.43 38.55 454.46 36.63C452.47 34.73 449.48 33.32 445.50 32.38C439.52 31.07 436.04 30.14 435.06 29.60C434.07 29.09 433.58 28.25 433.58 27.11C433.58 26.19 434.04 25.39 434.97 24.71C435.90 24.04 437.45 23.70 439.63 23.70C442.28 23.70 444.15 24.37 445.25 25.73C445.84 26.48 446.20 27.50 446.34 28.79L456.36 28.79C455.92 24.11 454.19 20.81 451.18 18.90C448.17 16.99 444.27 16.03 439.49 16.03C434.45 16.03 430.54 17.30 427.76 19.85C424.99 22.39 423.60 25.43 423.60 28.97C423.60 31.97 424.49 34.27 426.27 35.86C428.05 37.48 431.11 38.82 435.45 39.90C441.47 41.33 444.95 42.34 445.89 42.93C446.82 43.51 447.29 44.37 447.29 45.49C447.29 46.66 446.71 47.54 445.55 48.13C444.39 48.71 442.83 49.01 440.86 49.01C437.51 49.01 435.21 48.34 433.97 47.00C433.27 46.25 432.81 44.99 432.60 43.21ZM440.26 16.10Z" transform="translate(89.584 389.24) scale(.72277)"/></svg>
