<svg xmlns="http://www.w3.org/2000/svg" role="img" viewBox="-5.24 28.26 272.74 128.24"><g fill="#2366ab"><path d="M100.13078 37.36062v7.07071h-20.1852v8.19104h18.52328v6.52911H79.9456v9.36744h20.6154v7.07071H71.5436V37.36078zm27.8845 10.19776c-.50417-.80291-1.12658-1.50625-1.87352-2.1162-.75314-.60375-1.59961-1.08301-2.54577-1.41912-.94609-.3361-1.93567-.51038-2.96899-.51038-1.89216 0-3.49799.36723-4.81748 1.10169-1.32576.72823-2.39632 1.71163-3.21787 2.94396-.8216 1.2324-1.4129 2.63294-1.79258 4.20132-.37344 1.56851-.56017 3.19302-.56017 4.87358 0 1.60582.18673 3.16815.56017 4.6806.37968 1.5187.97099 2.88183 1.79258 4.09552.8216 1.21373 1.89216 2.19093 3.21787 2.91911 1.31954.73446 2.92532 1.09547 4.81748 1.09547 2.57064 0 4.57481-.78426 6.01875-2.35282 1.45025-1.56851 2.3278-3.64124 2.65158-6.21171h8.1351c-.21162 2.3901-.76556 4.54995-1.6557 6.4794-.89629 1.92945-2.0727 3.5665-3.53543 4.92329s-3.17438 2.39631-5.1349 3.10585c-1.96689.7158-4.12658 1.07056-6.4794 1.07056-2.93153 0-5.56447-.51038-7.89848-1.52493-2.34039-1.01455-4.31333-2.41496-5.91916-4.20132-1.59962-1.78636-2.83211-3.88391-3.69095-6.29265-.85894-2.40875-1.2822-5.00423-1.2822-7.78647 0-2.85697.42326-5.50838 1.2822-7.95457.85893-2.43982 2.09133-4.57481 3.69095-6.39846 1.60583-1.81743 3.57893-3.24289 5.91916-4.28226 2.33401-1.03321 4.96695-1.54982 7.89848-1.54982 2.10377 0 4.09552.30497 5.96904.90873 1.87352.60997 3.54786 1.49381 5.02909 2.65158 1.48137 1.15771 2.7075 2.59549 3.6661 4.30712.96475 1.71784 1.57473 3.67852 1.82364 5.8943h-8.14132c-.13687-.96475-.46059-1.84866-.95852-2.65158m24.60235-10.19755l8.93801 26.28473h.1058l8.46494-26.28473h11.82606v38.22885h-7.86741V48.4953h-.1058l-9.36744 27.09417h-6.4794L148.76468 48.763h-.11201v26.82648h-7.86741V37.36062zm62.65248 38.22567l-6.4794-26.02341h-.1058l-6.36739 26.0234h-8.5148l-10.12065-38.22884h8.40901l6.04998 26.01703h.1058l6.6413-26.01703h7.8674l6.52913 26.3405h.11201l6.26159-26.3405h8.24712l-10.28237 38.22885z"/><path d="M262.49824 37.36062v7.07071h-18.4675v8.83222h16.00888v6.52928h-16.00889v15.79712h-8.40885V37.3611zM.21823 58.77592h18.79734v-5.0914H.21823c-.305 1.70542-.2801 3.44207 0 5.0914m62.59034 1.76867c-1.92323 10.48776-11.2161 18.26833-21.8726 18.26833-3.09964 0-6.39846-.78425-9.19934-1.98553-2.9379 1.36933-6.18063 1.98553-9.48567 1.98553-10.64964 0-19.93662-7.63716-21.84073-18.1807l13.712-.02485c1.50626 3.41083 4.97317 5.62056 8.69519 5.62056 3.99593 0 7.71811-2.71993 9.06246-6.46697 1.2884 3.84041 5.00423 6.46697 9.05625 6.46697 3.80918 0 7.33219-2.20957 8.84464-5.65163z"/><path d="M62.80857 51.90836c-1.92323-10.50018-11.2161-18.26833-21.8726-18.26833-3.09964 0-6.39846.78426-9.19934 2.01661-2.9379-1.40044-6.18063-2.0166-9.48567-2.0166-10.64964 0-19.93662 7.63094-21.84073 18.18069l13.712.02485c1.50626-3.41083 4.97317-5.61418 8.69519-5.61418 3.99593 0 7.71811 2.7075 9.06246 6.44833 1.2884-3.82799 5.00423-6.44833 9.05625-6.44833 3.80918 0 7.33219 2.20335 8.84464 5.6392z"/></g><path d="M48.39762 113.52993h9.82418c-.5357-5.22298-2.26712-8.86759-5.19428-10.93382-2.92717-2.05667-6.68657-3.08979-11.28777-3.08979-5.40473 0-9.64242 1.75056-12.71308 5.24212-3.07065 3.50112-4.6012 8.39886-4.6012 14.69322 0 5.58649 1.38706 10.13029 4.17074 13.62184 2.7741 3.50112 7.11703 5.25168 13.00962 5.25168 5.8926 0 10.3503-2.09493 13.354-6.29436 1.88448-2.60193 2.93673-5.3569 3.15674-8.2745h-9.78591c-.20088 1.9323-.77484 3.50111-1.7123 4.71598-.94702 1.2053-2.53496 1.81752-4.77338 1.81752-3.16631 0-5.31864-1.53054-6.45698-4.58206-.63135-1.63577-.94703-3.79766-.94703-6.48568 0-2.82194.31568-5.08906.94703-6.7918 1.18617-3.20457 3.3959-4.81164 6.6196-4.81164 2.26712 0 3.94115.73658 5.01253 2.21929.73658 1.10008 1.2053 2.33408 1.37749 3.702zM41.91194 99.4011zm42.33867 1.5688c-1.73142-.97572-3.702-1.46358-5.92129-1.46358-4.82121 0-8.6667 1.78883-11.54604 5.37604-2.8889 3.58721-4.32379 8.51365-4.32379 14.76975 0 5.42386 1.46359 9.86244 4.39075 13.33486 2.9176 3.46286 6.52395 5.19429 10.80947 5.19429 2.60192 0 4.77338-.49743 6.52394-1.48272 1.75056-.98528 3.3098-2.56366 4.67773-4.74468v5.07949H98.169V87.52982h-9.71896v17.48646c-1.07138-1.72186-2.47756-3.07065-4.19943-4.04637zm2.35322 26.11491c-1.41576 2.00884-3.47243 3.02283-6.18914 3.02283-2.70715 0-4.73512-1.01399-6.06478-3.04196-1.33923-2.02797-2.00884-4.73512-2.00884-8.12145 0-3.13761.66005-5.76824 1.97057-7.89186 1.31053-2.11407 3.3672-3.17588 6.17-3.17588 1.83666 0 3.4533.58352 4.84035 1.75056 2.26712 1.92274 3.3959 5.13688 3.3959 9.61373 0 3.21414-.69831 5.82563-2.11407 7.84403zm27.7411-1.75056h-9.71895c0 3.7594 1.37749 6.85875 4.1229 9.29806 2.74542 2.42974 7.00224 3.6446 12.76091 3.6446 5.65345 0 9.82418-1.1479 12.53133-3.44372 2.69759-2.29581 4.04638-5.26124 4.04638-8.89628 0-2.75498-.93746-5.06037-2.82194-6.89702-1.90362-1.81752-4.76382-3.16631-8.57105-4.0655-5.7204-1.25314-9.04934-2.14277-9.99636-2.65933-.93746-.48786-1.4062-1.2914-1.4062-2.3819 0-.88007.44004-1.64534 1.32967-2.29582.88006-.64092 2.37234-.96616 4.4577-.96616 2.5254 0 4.3238.64092 5.37604 1.94188.5644.71744.90876 1.69317 1.04269 2.92717h9.58503c-.43047-4.47685-2.0758-7.6336-4.9647-9.46068-2.87934-1.82709-6.60047-2.74541-11.18254-2.74541-4.81165 0-8.55191 1.21487-11.21123 3.65417-2.65932 2.42974-3.98898 5.33777-3.98898 8.7241 0 2.86977.85136 5.06993 2.56366 6.5909 1.70273 1.54968 4.6299 2.83151 8.77193 3.86463 5.75867 1.36792 9.09717 2.33408 9.9868 2.89847.8992.55482 1.34879 1.37749 1.34879 2.44887 0 1.1192-.55482 1.961-1.66447 2.5254-1.10964.55482-2.61149.8418-4.4864.8418-3.21415 0-5.40474-.64092-6.59091-1.92275-.67918-.71744-1.11921-1.92275-1.3201-3.62548zm7.33705-25.93315zm43.71616 19.81098v3.56808c-.06696 3.20458-.96615 5.4143-2.70715 6.6196-1.74099 1.21487-3.63504 1.81752-5.70127 1.81752-1.30097 0-2.40104-.3635-3.3098-1.09051-.90876-.727-1.35836-1.91318-1.35836-3.54895 0-1.83665.73657-3.19501 2.21929-4.07507.8705-.51656 2.31494-.94703 4.33335-1.31053l2.15233-.40177c1.08094-.20088 1.92274-.4209 2.54453-.65048.61221-.23915 1.22443-.54526 1.82708-.9279zm-5.81606-4.47684l-3.26198.40176c-3.702.4783-6.5048 1.2627-8.40842 2.36278-3.47242 2.0184-5.21342 5.28038-5.21342 9.78592 0 3.47242 1.08095 6.16044 3.24284 8.05449 2.1619 1.89404 4.9073 2.84107 8.22668 2.84107 2.60192 0 4.936-.59309 6.99267-1.78883 1.73143-1.00442 3.2524-2.22885 4.5725-3.66374.06696.83224.16262 1.56881.26785 2.2193.11479.65047.31567 1.34879.61221 2.08536h10.42683v-1.41575c-.63135-.28698-1.10007-.66005-1.41575-1.10965-.31567-.44003-.507-1.2914-.57395-2.5541-.04783-1.6549-.06696-3.07065-.06696-4.23769v-16.80728c0-4.41945-1.55925-7.42314-4.67773-9.02065-3.10892-1.58794-6.677-2.3819-10.69468-2.3819-6.16044 0-10.51292 1.60707-13.04788 4.84034-1.58794 2.06623-2.48714 4.69686-2.68802 7.90143h9.25022c.22002-1.41575.66962-2.53496 1.3488-3.35763.93745-1.12877 2.54452-1.6836 4.80208-1.6836 2.0184 0 3.54895.28698 4.59163.85137 1.04268.57395 1.5688 1.61664 1.5688 3.11848 0 1.234-.68874 2.1332-2.05666 2.71672-.76527.34437-2.02797.62178-3.79766.8418zm.50699-15.33414zm46.72942 11.80432c1.28183 2.17146 1.93231 4.67772 1.93231 7.49967 0 3.43415-.6983 6.17957-2.1045 8.23624-1.39662 2.06623-3.43415 3.09935-6.10304 3.09935-1.83665 0-3.43416-.507-4.77338-1.51142-2.26712-1.73142-3.3959-4.72555-3.3959-8.98238 0-2.68801.3348-4.9073 1.00442-6.65786 1.30096-3.30024 3.69244-4.94557 7.16486-4.94557 2.8889 0 4.98383 1.09051 6.27523 3.26197zm7.36574-6.89701c-2.975-3.15675-6.60047-4.73512-10.886-4.73512-2.93672 0-5.47169.8131-7.59532 2.44887-1.16704.91832-2.26711 2.18102-3.30023 3.76896v-5.4143h-9.18326v51.0819h9.48937v-19.1031c1.00442 1.54968 2.03753 2.72629 3.08978 3.53939 1.93232 1.45401 4.35249 2.18102 7.27009 2.18102 4.5725 0 8.31276-1.69316 11.21123-5.07949 2.90804-3.38633 4.35249-8.3032 4.35249-14.76018 0-6.12218-1.48272-10.76164-4.44815-13.92795zm21.2363-8.3032v-8.84846h-9.71895v8.84845zm-9.71895 4.37161v36.65653h9.71895v-36.65653z"/></svg>
