<?xml version="1.0" encoding="UTF-8" standalone="no"?>
<svg
   id="Layer_1"
   data-name="Layer 1"
   viewBox="0.056203842 0.1281662 369.37381 131.2547"
   version="1.1"
   sodipodi:docname="cdsc-connectivity-wg.svg"
   width="369.37381"
   height="131.2547"
   inkscape:version="1.4 (e7c3feb1, 2024-10-09)"
   xmlns:inkscape="http://www.inkscape.org/namespaces/inkscape"
   xmlns:sodipodi="http://sodipodi.sourceforge.net/DTD/sodipodi-0.dtd"
   xmlns:xlink="http://www.w3.org/1999/xlink"
   xmlns="http://www.w3.org/2000/svg"
   xmlns:svg="http://www.w3.org/2000/svg">
  <sodipodi:namedview
     id="namedview102"
     pagecolor="#ffffff"
     bordercolor="#000000"
     borderopacity="0.25"
     inkscape:showpageshadow="2"
     inkscape:pageopacity="0.0"
     inkscape:pagecheckerboard="0"
     inkscape:deskcolor="#d1d1d1"
     inkscape:zoom="1"
     inkscape:cx="184"
     inkscape:cy="46.5"
     inkscape:current-layer="Layer_1" />
  <defs
     id="defs2">
    <style
       id="style1">.cls-1{fill:#009ceb;}.cls-2{fill:#00386e;}.cls-3{fill:#534fa5;}.cls-4{fill:#00afe0;}.cls-5{fill:url(#New_Gradient_Swatch_4);}.cls-6{fill:#202546;}.cls-7{fill:url(#New_Gradient_Swatch_4-2);}.cls-8{fill:url(#New_Gradient_Swatch_4-3);}.cls-9{fill:url(#New_Gradient_Swatch_4-4);}.cls-10{fill:url(#New_Gradient_Swatch_4-5);}.cls-11{fill:url(#New_Gradient_Swatch_4-6);}.cls-12{fill:url(#New_Gradient_Swatch_4-7);}.cls-13{fill:url(#New_Gradient_Swatch_4-8);}.cls-14{fill:url(#New_Gradient_Swatch_4-9);}.cls-15{fill:url(#New_Gradient_Swatch_4-10);}.cls-16{fill:url(#New_Gradient_Swatch_4-11);}.cls-17{fill:#00a846;}</style>
    <linearGradient
       id="New_Gradient_Swatch_4"
       x1="111.37"
       y1="154.92"
       x2="42.360001"
       y2="98.769997"
       gradientUnits="userSpaceOnUse">
      <stop
         offset="0"
         stop-color="#6e2995"
         id="stop1" />
      <stop
         offset="1"
         stop-color="#ff8300"
         id="stop2" />
    </linearGradient>
    <linearGradient
       id="New_Gradient_Swatch_4-2"
       x1="347.79001"
       y1="248.44"
       x2="186.35001"
       y2="167.73"
       xlink:href="#New_Gradient_Swatch_4"
       gradientTransform="translate(-15.279999,-74.53027)" />
    <linearGradient
       id="New_Gradient_Swatch_4-3"
       x1="352.81"
       y1="238.39999"
       x2="191.37"
       y2="157.69"
       xlink:href="#New_Gradient_Swatch_4"
       gradientTransform="translate(-15.279999,-74.53027)" />
    <linearGradient
       id="New_Gradient_Swatch_4-4"
       x1="358.28"
       y1="227.45"
       x2="196.85001"
       y2="146.73"
       xlink:href="#New_Gradient_Swatch_4"
       gradientTransform="translate(-15.279999,-74.53027)" />
    <linearGradient
       id="New_Gradient_Swatch_4-5"
       x1="363.57001"
       y1="216.86"
       x2="202.14"
       y2="136.14999"
       xlink:href="#New_Gradient_Swatch_4"
       gradientTransform="translate(-15.279999,-74.53027)" />
    <linearGradient
       id="New_Gradient_Swatch_4-6"
       x1="368.79001"
       y1="206.42999"
       x2="207.36"
       y2="125.71"
       xlink:href="#New_Gradient_Swatch_4"
       gradientTransform="translate(-15.279999,-74.53027)" />
    <linearGradient
       id="New_Gradient_Swatch_4-7"
       x1="373.54999"
       y1="196.91"
       x2="212.12"
       y2="116.19"
       xlink:href="#New_Gradient_Swatch_4"
       gradientTransform="translate(-15.279999,-74.53027)" />
    <linearGradient
       id="New_Gradient_Swatch_4-8"
       x1="379.59"
       y1="184.83"
       x2="218.16"
       y2="104.12"
       xlink:href="#New_Gradient_Swatch_4"
       gradientTransform="translate(-15.279999,-74.53027)" />
    <linearGradient
       id="New_Gradient_Swatch_4-9"
       x1="382.09"
       y1="179.84"
       x2="220.66"
       y2="99.120003"
       xlink:href="#New_Gradient_Swatch_4"
       gradientTransform="translate(-15.279999,-74.53027)" />
    <linearGradient
       id="New_Gradient_Swatch_4-10"
       x1="386.32999"
       y1="171.35001"
       x2="224.89999"
       y2="90.639999"
       xlink:href="#New_Gradient_Swatch_4"
       gradientTransform="translate(-15.279999,-74.53027)" />
    <linearGradient
       id="New_Gradient_Swatch_4-11"
       x1="391.87"
       y1="160.27"
       x2="230.44"
       y2="79.559998"
       xlink:href="#New_Gradient_Swatch_4"
       gradientTransform="translate(-15.279999,-74.53027)" />
    <linearGradient
       inkscape:collect="always"
       xlink:href="#New_Gradient_Swatch_4"
       id="linearGradient104"
       gradientUnits="userSpaceOnUse"
       x1="111.37"
       y1="154.92"
       x2="42.360001"
       y2="98.769997"
       gradientTransform="translate(-15.279999,-74.53027)" />
  </defs>
  <polygon
     class="cls-1"
     points="124.04,12.49 124.04,23.64 135.2,23.64 135.2,19.95 127.8,19.95 127.8,12.49 "
     id="polygon2"
     transform="translate(8.05006e-7,-2.6962796e-4)" />
  <polygon
     class="cls-2"
     points="124.04,10.57 127.74,10.57 127.74,8.72 138.96,8.72 138.96,19.95 137.11,19.95 137.11,23.64 142.66,23.64 142.66,5.03 124.04,5.03 "
     id="polygon3"
     transform="translate(8.05006e-7,-2.6962796e-4)" />
  <path
     class="cls-2"
     d="m 147.61,5.2297304 h 5.67 V 18.88973 h 8.13 v 4.69 h -13.8 z"
     id="path3" />
  <path
     class="cls-2"
     d="m 163.85,5.2297304 h 14.26 v 4.69 h -8.58 V 12.22973 h 7.32 v 4.35 h -7.32 v 7 h -5.68 z"
     id="path4" />
  <path
     class="cls-1"
     d="m 192.72,23.70973 h -10.3 V 5.1597304 h 10.3 v 1.19 h -9 V 13.34973 h 8.45 v 1.19 h -8.45 v 7.93 h 9 z"
     id="path5" />
  <path
     class="cls-1"
     d="m 210.66,23.70973 h -1.32 L 198.18,7.2797304 h -0.13 c 0.13,2 0.13,3.4299996 0.13,4.4199996 v 12 h -1.19 V 5.1597304 h 1.32 L 209.47,21.59973 h 0.06 c -0.06,-1.52 -0.13,-3 -0.13,-4.36 V 5.1597304 h 1.26 z"
     id="path6" />
  <path
     class="cls-1"
     d="m 226.24,23.70973 h -10.3 V 5.1597304 h 10.3 v 1.19 h -9 V 13.34973 h 8.48 v 1.19 h -8.45 v 7.93 h 9 z"
     id="path7" />
  <path
     class="cls-1"
     d="m 231.85,15.65973 v 8 h -1.32 V 5.1597304 h 4.49 a 8.47,8.47 0 0 1 5.15,1.31 4.48,4.48 0 0 1 1.65,3.8299996 5.06,5.06 0 0 1 -1,3.17 5.57,5.57 0 0 1 -3,1.84 l 5.08,8.45 h -1.58 l -4.82,-8 z m 0,-1.12 h 3.56 a 5.59,5.59 0 0 0 3.7,-1.06 3.8,3.8 0 0 0 1.32,-3.1 3.66,3.66 0 0 0 -1.25,-3.0999996 7,7 0 0 0 -4.23,-1 h -3.1 z"
     id="path8" />
  <path
     class="cls-1"
     d="m 253.37,14.20973 h 6.8 v 8.26 a 15.63,15.63 0 0 1 -6,1.12 c -2.9,0 -5.15,-0.79 -6.66,-2.44 a 9.71,9.71 0 0 1 -2.32,-6.87 10.37,10.37 0 0 1 1.13,-4.8799996 8,8 0 0 1 3.3,-3.3 10.07,10.07 0 0 1 4.95,-1.19 12.92,12.92 0 0 1 5.41,1.12 l -0.52,1.12 a 11.93,11.93 0 0 0 -5,-1.12 7.37,7.37 0 0 0 -5.74,2.24 8.44,8.44 0 0 0 -2.11,5.9399996 c 0,2.7 0.66,4.75 2,6.14 1.34,1.39 3.3,2 6,2 a 11.72,11.72 0 0 0 4.29,-0.72 v -6.37 h -5.48 v -1.05 z"
     id="path9" />
  <path
     class="cls-1"
     d="m 269.08,15.25973 5.48,-10.0999996 h 1.39 L 269.72,16.46973 v 7.13 h -1.3 v -7 L 262.15,5.1797304 h 1.57 z"
     id="path10" />
  <path
     class="cls-3"
     d="m 51.370001,68.36973 a 7.87,7.87 0 0 1 0.29,-2.16 7.87,7.87 0 0 0 -0.29,2.16 z"
     id="path11" />
  <path
     class="cls-3"
     d="m 53.060001,73.08973 a 7.69,7.69 0 0 0 1,1 5.57,5.57 0 0 0 0.56,0.43 5.57,5.57 0 0 1 -0.56,-0.43 7.69,7.69 0 0 1 -1,-1 z"
     id="path12" />
  <path
     class="cls-3"
     d="m 53.060001,73.08973 a 7.64,7.64 0 0 1 -1.34,-2.55 7.64,7.64 0 0 0 1.34,2.55 z"
     id="path13" />
  <rect
     class="cls-3"
     x="51.779999"
     y="49.089729"
     height="13.61"
     id="rect13"
     width="0" />
  <path
     class="cls-3"
     d="m 55.860001,75.24973 -0.38,-0.19 z"
     id="path14" />
  <path
     class="cls-3"
     d="m 55.240001,74.92973 c -0.14,-0.07 -0.27,-0.16 -0.41,-0.24 0.14,0.08 0.27,0.17 0.41,0.24 z"
     id="path15" />
  <path
     class="cls-3"
     d="m 60.520001,60.80973 0.59,0.16 z"
     id="path16" />
  <path
     class="cls-3"
     d="m 57.330001,60.81973 h 0.26 z"
     id="path17" />
  <path
     class="cls-3"
     d="m 56.630001,61.00973 0.23,-0.07 z"
     id="path18" />
  <path
     class="cls-3"
     d="m 58.030001,60.69973 h 0.28 z"
     id="path19" />
  <path
     class="cls-3"
     d="m 59.910001,60.70973 a 2.7,2.7 0 0 1 0.41,0.07 2.7,2.7 0 0 0 -0.41,-0.07 z"
     id="path20" />
  <path
     class="cls-3"
     d="m 59.290001,60.64973 h 0.39 z"
     id="path21" />
  <path
     class="cls-3"
     d="M 58.930001,60.63973 Z"
     id="path22" />
  <path
     class="cls-3"
     d="m 63.530001,74.46973 a 7.21,7.21 0 0 0 1.09,-1 7.54,7.54 0 0 0 1.74,-3.15 7.54,7.54 0 0 1 -1.74,3.15 7.21,7.21 0 0 1 -1.09,1 z"
     id="path23" />
  <path
     class="cls-3"
     d="m 58.560001,75.90973 a 2.56,2.56 0 0 1 -0.39,0 2.56,2.56 0 0 0 0.39,0 z"
     id="path24" />
  <path
     class="cls-3"
     d="M 59.000001,75.92973 Z"
     id="path25" />
  <path
     class="cls-3"
     d="m 65.330001,64.02973 a 8,8 0 0 1 0.94,1.95 8,8 0 0 0 -0.94,-1.95 z"
     id="path26" />
  <path
     class="cls-3"
     d="m 64.390001,62.89973 a 8.41,8.41 0 0 1 0.94,1.13 8.41,8.41 0 0 0 -0.94,-1.13 z"
     id="path27" />
  <path
     class="cls-3"
     d="m 57.860001,75.83973 -0.39,-0.07 z"
     id="path28" />
  <polygon
     class="cls-3"
     points="64.4,62.9 68.98,55.28 68.98,55.28 64.4,62.9 "
     id="polygon28"
     transform="translate(8.05006e-7,-2.6962796e-4)" />
  <path
     class="cls-3"
     d="m 56.510001,75.46973 -0.38,-0.15 z"
     id="path29" />
  <path
     class="cls-3"
     d="m 57.180001,75.70973 -0.39,-0.11 z"
     id="path30" />
  <path
     class="cls-3"
     d="m 37.780001,31.95973 a 7.5,7.5 0 0 1 -0.15,0.93 7.5,7.5 0 0 0 0.15,-0.93 z"
     id="path31" />
  <path
     class="cls-3"
     d="M 30.220001,23.62973 Z"
     id="path32" />
  <path
     class="cls-3"
     d="M 30.990001,23.66973 Z"
     id="path33" />
  <path
     class="cls-3"
     d="m 37.510001,33.34973 a 6,6 0 0 1 -0.32,0.9 6,6 0 0 0 0.32,-0.9 z"
     id="path34" />
  <path
     class="cls-3"
     d="m 45.720001,48.06973 v 0 l -9.48,-12.17 a 7.48,7.48 0 0 0 1,-1.65 7.48,7.48 0 0 1 -1,1.65 z"
     id="path35" />
  <path
     class="cls-3"
     d="m 37.370001,28.64973 a 7.45,7.45 0 0 1 0.44,2.83 7.45,7.45 0 0 0 -0.44,-2.83 7.59,7.59 0 0 0 -2.88,-3.71 7.59,7.59 0 0 1 2.88,3.71 z"
     id="path36" />
  <path
     class="cls-3"
     d="m 24.170001,35.98973 a 7.86,7.86 0 0 0 2.14,1.88 7.86,7.86 0 0 1 -2.14,-1.88 z"
     id="path37" />
  <path
     class="cls-3"
     d="M 29.470001,23.66973 Z"
     id="path38" />
  <path
     class="cls-3"
     d="m 32.510001,38.53973 -0.24,0.07 z"
     id="path39" />
  <path
     class="cls-3"
     d="m 31.780001,38.73973 h -0.29 z"
     id="path40" />
  <path
     class="cls-3"
     d="m 31.040001,38.85973 h -0.32 z"
     id="path41" />
  <path
     class="cls-3"
     d="M 30.150001,38.91973 Z"
     id="path42" />
  <rect
     class="cls-3"
     x="23.5"
     y="23.569731"
     height="3.0599999"
     id="rect42"
     width="0" />
  <rect
     class="cls-3"
     x="-13.379189"
     y="30.533201"
     height="4.0700002"
     transform="rotate(-59.27)"
     id="rect43"
     width="0" />
  <path
     class="cls-3"
     d="m 29.630001,38.88973 a 3,3 0 0 1 -0.42,0 3,3 0 0 0 0.42,0 z"
     id="path43" />
  <path
     class="cls-3"
     d="m 25.320001,25.46973 0.11,-0.1 z"
     id="path44" />
  <path
     class="cls-3"
     d="m 26.560001,24.56973 0.16,-0.1 z"
     id="path45" />
  <path
     class="cls-3"
     d="m 25.960001,24.92973 h 0.09 z"
     id="path46" />
  <path
     class="cls-3"
     d="m 27.260001,24.22973 0.13,-0.05 z"
     id="path47" />
  <path
     class="cls-3"
     d="m 27.940001,23.97973 h 0.09 z"
     id="path48" />
  <path
     class="cls-3"
     d="m 28.660001,23.78973 h 0.15 z"
     id="path49" />
  <path
     class="cls-3"
     d="m 22.630001,32.10973 a 7,7 0 0 1 0,-0.8 7,7 0 0 0 0,0.8 z"
     id="path50" />
  <path
     class="cls-3"
     d="m 28.270001,38.67973 c -0.22,-0.06 -0.44,-0.12 -0.65,-0.2 0.21,0.08 0.43,0.14 0.65,0.2 z"
     id="path51" />
  <path
     class="cls-3"
     d="m 28.950001,38.81973 -0.45,-0.09 z"
     id="path52" />
  <path
     class="cls-4"
     d="m 74.610001,36.38973 0.39,0.06 z"
     id="path53" />
  <path
     class="cls-4"
     d="m 73.910001,36.31973 h 0.41 z"
     id="path54" />
  <path
     class="cls-4"
     d="m 75.290001,36.51973 0.38,0.1 z"
     id="path55" />
  <path
     class="cls-4"
     d="m 75.960001,36.70973 0.37,0.14 z"
     id="path56" />
  <path
     class="cls-4"
     d="m 77.220001,37.25973 0.39,0.24 z"
     id="path57" />
  <path
     class="cls-4"
     d="m 73.530001,36.29973 h -0.55 z"
     id="path58" />
  <path
     class="cls-4"
     d="m 67.890001,38.79973 v 0 a 8.23,8.23 0 0 1 1.07,-1 8.23,8.23 0 0 0 -1.07,1 z"
     id="path59" />
  <path
     class="cls-4"
     d="m 77.810001,37.61973 c 0.19,0.13 0.38,0.27 0.56,0.42 -0.18,-0.15 -0.37,-0.29 -0.56,-0.42 z"
     id="path60" />
  <path
     class="cls-4"
     d="m 76.600001,36.95973 a 3.26,3.26 0 0 1 0.38,0.18 3.26,3.26 0 0 0 -0.38,-0.18 z"
     id="path61" />
  <path
     class="cls-4"
     d="m 66.980001,47.81973 v 0 a 7.76,7.76 0 0 1 -0.46,-0.91 7.76,7.76 0 0 0 0.46,0.91 z"
     id="path62" />
  <path
     class="cls-4"
     d="m 66.390001,41.25973 a 7.6,7.6 0 0 1 1,-1.9 7.6,7.6 0 0 0 -1,1.9 z"
     id="path63" />
  <path
     class="cls-5"
     d="m 109.29,76.70973 a 7.73,7.73 0 0 0 -1.1,-2.16 c -0.16,-0.21 -0.33,-0.42 -0.5,-0.62 a 8.19,8.19 0 0 0 -1.2,-1.07 7.7,7.7 0 0 0 -1.4,-0.8 v 0 a 6.61,6.61 0 0 0 -0.74,-0.28 l -0.26,-0.07 a 4.77,4.77 0 0 0 -0.51,-0.13 l -0.31,-0.05 -0.47,-0.07 h -0.34 -0.45 -0.46 -0.35 l -0.48,0.08 a 3,3 0 0 0 -0.32,0.06 l -0.519999,0.14 -0.27,0.08 a 7.21,7.21 0 0 0 -0.77,0.3 l -19.2,-23.65 a 7.56,7.56 0 0 0 1.38,-3.17 7.9,7.9 0 0 0 0.11,-0.85 5.77,5.77 0 0 0 0,-0.72 6,6 0 0 0 0,-0.73 c 0,0 0,-0.09 0,-0.13 a 8,8 0 0 0 -0.29,-1.29 7.85,7.85 0 0 0 -2.41,-3.54 v 0 c -0.18,-0.15 -0.37,-0.29 -0.56,-0.42 l -0.2,-0.12 -0.39,-0.24 -0.24,-0.12 a 3.26,3.26 0 0 0 -0.38,-0.18 l -0.27,-0.11 -0.37,-0.14 -0.29,-0.09 -0.38,-0.1 -0.29,-0.07 -0.39,-0.06 h -0.29 -0.41 -0.93 a 7.63,7.63 0 0 0 -4,1.5 8.23,8.23 0 0 0 -1.07,1 c -0.17,0.18 -0.32,0.37 -0.47,0.56 a 7.6,7.6 0 0 0 -1,1.9 5.39,5.39 0 0 0 -0.22,0.68 7.48,7.48 0 0 0 -0.26,2.16 6,6 0 0 0 0,0.73 7.45,7.45 0 0 0 0.56,2.08 7.76,7.76 0 0 0 0.46,0.91 l 0.23,0.36 a 5.79,5.79 0 0 0 0.43,0.58 6.28,6.28 0 0 0 0.49,0.54 v 0 l -1.84,3.06 -5.18,8.61 -0.59,-0.16 h -0.2 a 2.7,2.7 0 0 0 -0.41,-0.07 h -0.23 -0.39 -0.63 -0.45 -0.28 a 3.64,3.64 0 0 0 -0.44,0.07 h -0.26 c -0.16,0 -0.32,0.08 -0.47,0.12 l -0.23,0.07 a 6.07,6.07 0 0 0 -0.67,0.25 l -8.36,-10.73 -1.84,-2.54 -9.48,-12.17 a 7.48,7.48 0 0 0 1,-1.65 6,6 0 0 0 0.32,-0.9 3.45,3.45 0 0 0 0.12,-0.46 7.5,7.5 0 0 0 0.15,-0.93 3.87,3.87 0 0 0 0,-0.48 7.45,7.45 0 0 0 -0.44,-2.83 7.61,7.61 0 0 0 -5.51,-4.84 6.54,6.54 0 0 0 -0.75,-0.13 h -0.12 c -0.24,0 -0.47,0 -0.71,0 h -0.14 q -0.33,0 -0.66,0 v 0 q -0.33,0 -0.66,0.09 h -0.15 l -0.63,0.16 h -0.09 l -0.55,0.2 -0.13,0.05 -0.57,0.29 -0.11,0.06 c -0.18,0.1 -0.35,0.2 -0.51,0.31 h -0.09 l -0.53,0.4 -0.11,0.1 a 5.34,5.34 0 0 0 -0.5,0.46 l -2.63,-1.57 -2.7,-1.6 -4.06,-2.41 a 8.76,8.76 0 0 0 0.24,-1.32 c 0,-0.32 0,-0.63 0,-1 v 0 a 8.35,8.35 0 0 0 -0.27,-1.86 7.85,7.85 0 0 0 -1.51,-2.94 v 0 a 5.4,5.4 0 0 0 -0.56,-0.61 l -0.03,-0.02 c -0.19,-0.18 -0.39,-0.35 -0.59,-0.51 l -0.04,-0.07 c -0.2,-0.15 -0.41,-0.29 -0.62,-0.43 l -0.11,-0.06 q -0.33,-0.2 -0.66,-0.36 h -0.11 a 6.22,6.22 0 0 0 -0.71,-0.29 h -0.08 c -0.26,-0.08 -0.5100002,-0.16 -0.7800002,-0.22 v 0 a 6.85,6.85 0 0 0 -0.79,-0.13 h -0.14 a 6.81,6.81 0 0 0 -0.78,0 h -0.13 -0.57 a 8.29,8.29 0 0 0 -1.87,0.39 8,8 0 0 0 -1.65,0.68 8.06,8.06 0 0 0 -2.08,1.91 8.52,8.52 0 0 0 -0.53,0.8 7.66,7.66 0 0 0 -0.86999999,2.22 6.94,6.94 0 0 0 -0.15,0.93 7.37,7.37 0 0 0 0,1.41 7.8,7.8 0 0 0 0.63,2.73 7.66,7.66 0 0 0 0.45999999,0.85 l 0.27,0.39 a 7.82,7.82 0 0 0 5.1,3.17 5.41,5.41 0 0 0 0.58,0.07 h 0.17 0.59 0.68 0.15 c 0.24,0 0.47,-0.06 0.7,-0.11 v 0 l 0.6600002,-0.17 h 0.13 c 0.21,-0.07 0.42,-0.14 0.63,-0.23 l 0.13,-0.05 0.63,-0.31 v 0 c 0.2,-0.12 0.4,-0.24 0.59,-0.37 l 0.11,-0.07 c 0.19,-0.13 0.37,-0.27 0.55,-0.42 a 0.39,0.39 0 0 0 0.1,-0.08 c 0.18,-0.16 0.36,-0.32 0.53,-0.49 v 0 l 3.24,1.82 2.39,1.42 0.31,0.19 3.5,2.07 v 0 a 7,7 0 0 0 -0.28,1.42 5.63,5.63 0 0 0 0,0.71 7,7 0 0 0 0,0.8 7.32,7.32 0 0 0 0.25,1.32 7.48,7.48 0 0 0 1.29,2.56 7.86,7.86 0 0 0 2.14,1.88 7.7,7.7 0 0 0 1.3,0.61 v 0 c 0.21,0.08 0.43,0.14 0.65,0.2 l 0.23,0.05 0.45,0.09 h 0.26 a 3,3 0 0 0 0.42,0 h 0.28 0.37 0.44 0.32 l 0.45,-0.07 h 0.29 l 0.49,-0.13 0.24,-0.07 c 0.24,-0.08 0.48,-0.17 0.71,-0.27 l 9.75,12.52 1.91,2.45 8.09,10.39 a 7.77,7.77 0 0 0 -1.08,1.9 c -0.08,0.22 -0.16,0.45 -0.23,0.68 a 7.87,7.87 0 0 0 -0.29,2.16 c 0,0.24 0,0.49 0,0.73 a 7.84,7.84 0 0 0 0.3,1.44 7.55,7.55 0 0 0 2.37,3.59 5.57,5.57 0 0 0 0.56,0.43 l 0.19,0.13 c 0.14,0.08 0.27,0.17 0.41,0.24 a 1.83,1.83 0 0 0 0.24,0.13 l 0.38,0.19 0.27,0.11 0.38,0.15 0.28,0.09 0.39,0.11 0.29,0.06 0.39,0.07 h 0.31 a 2.56,2.56 0 0 0 0.39,0 h 0.31 0.62 a 7.62,7.62 0 0 0 4,-1.48 7.21,7.21 0 0 0 1.09,-1 7.54,7.54 0 0 0 1.74,-3.15 7.18,7.18 0 0 0 0.27,-2.17 7.88,7.88 0 0 0 -0.36,-2.16 8,8 0 0 0 -0.94,-1.95 8.41,8.41 0 0 0 -0.94,-1.13 v 0 l 4.58,-7.61 2.44,-4 v 0 l 0.6,0.16 h 0.2 l 0.42,0.07 h 0.23 a 2.73,2.73 0 0 0 0.41,0 h 0.5 0.48 0.28 l 0.47,-0.08 0.27,-0.06 0.49,-0.14 h 0.15 0.08 a 6.65,6.65 0 0 0 0.69,-0.28 l 19.18,23.66 a 7.6,7.6 0 0 0 1.77,10.8 v 0 c 0.19,0.13 0.39,0.25 0.59,0.37 l 0.18,0.09 a 4.81,4.81 0 0 0 0.46,0.22 l 0.19,0.09 0.63,0.23 v 0 c 0.22,0.07 0.439999,0.12 0.659999,0.17 h 0.2 l 0.5,0.08 h 0.2 0.67 v 0 h 0.53 0.23 c 0.23,0 0.47,-0.06 0.7,-0.1 h 0.06 a 7.66,7.66 0 0 0 4.16,-2.3 7.85,7.85 0 0 0 1,-1.3 7.58,7.58 0 0 0 1.06,-3.84 7.47,7.47 0 0 0 -0.28,-2.3 z m -97.499999,-57.4 a 4.15,4.15 0 0 1 -0.28,0.69 c -0.06,0.11 -0.13,0.22 -0.2,0.33 a 4.41,4.41 0 0 1 -0.47,0.58 4,4 0 0 1 -0.8900002,0.66 3.48,3.48 0 0 1 -0.69,0.29 2.22,2.22 0 0 1 -0.37,0.09 v 0 l -0.35,0.05 h -0.13 -0.25 v 0 a 3.89,3.89 0 0 1 -0.49,0 h -0.12 a 2.68,2.68 0 0 1 -0.49,-0.11 v 0 a 3.61,3.61 0 0 1 -0.46,-0.17 l -0.11,-0.06 a 3.63,3.63 0 0 1 -2.06,-2.66 3.82,3.82 0 0 1 -0.08,-0.75 4.53,4.53 0 0 1 0.07,-0.74 3.64,3.64 0 0 1 0.22,-0.71 3.56,3.56 0 0 1 0.35,-0.67 4,4 0 0 1 0.45,-0.55 v 0 0 a 3.38,3.38 0 0 1 0.55,-0.45 4,4 0 0 1 1.4,-0.66 l 0.38,-0.06 h 0.38 0.49 l 0.08,0.06 a 4.15,4.15 0 0 1 0.48,0.11 v 0 a 3.66,3.66 0 0 1 0.46,0.18 h 0.12 a 3.62,3.62 0 0 1 0.4300002,0.24 l 0.23,0.17 0.09,0.07 a 3.89,3.89 0 0 1 1.35,2.23 3.81,3.81 0 0 1 -0.09,1.84 z m 21.58,14.08 a 2.37,2.37 0 0 1 -0.23,0.3 3.32,3.32 0 0 1 -0.53,0.53 3.65,3.65 0 0 1 -1.67,0.79 2.38,2.38 0 0 1 -0.37,0.06 h -0.38 a 3.89,3.89 0 0 1 -0.49,0 h -0.12 a 3.38,3.38 0 0 1 -0.48,-0.11 v 0 a 3.66,3.66 0 0 1 -0.46,-0.18 h -0.11 c -0.15,-0.08 -0.3,-0.16 -0.44,-0.25 v 0 a 3.82,3.82 0 0 1 -1.06,-5.28 3.76,3.76 0 0 1 2.06,-1.53 l 0.36,-0.1 h 0.38 0.38 a 4,4 0 0 1 0.49,0 h 0.12 a 4.15,4.15 0 0 1 0.48,0.11 v 0 a 4.37,4.37 0 0 1 0.46,0.18 h 0.11 a 2.76,2.76 0 0 1 0.44,0.25 3.82,3.82 0 0 1 1.62,2.42 3.8,3.8 0 0 1 -0.56,2.81 z m 29.27,36 a 3.9,3.9 0 0 1 -0.48,1 3.76,3.76 0 0 1 -2.06,1.53 l -0.36,0.1 h -0.15 -0.23 -0.38 a 4,4 0 0 1 -0.49,0 h -0.12 a 4.15,4.15 0 0 1 -0.48,-0.11 v 0 a 4.37,4.37 0 0 1 -0.46,-0.18 l -0.11,-0.05 c -0.15,-0.08 -0.3,-0.16 -0.44,-0.25 a 4.41,4.41 0 0 1 -0.58,-0.47 c -0.08,-0.09 -0.17,-0.18 -0.25,-0.28 a 3.8,3.8 0 0 1 -0.79,-1.67 3.74,3.74 0 0 1 0,-1.49 4.44,4.44 0 0 1 0.21,-0.71 4.17,4.17 0 0 1 0.35,-0.66 3.55,3.55 0 0 1 0.23,-0.31 3.26,3.26 0 0 1 0.53,-0.52 l 0.29,-0.23 a 5.19,5.19 0 0 1 0.66,-0.35 3.26,3.26 0 0 1 0.44,-0.15 l 0.28,-0.07 h 0.08 0.29 0.38 a 2.63,2.63 0 0 1 0.49,0 h 0.12 a 3.88,3.88 0 0 1 0.49,0.11 v 0 a 3.66,3.66 0 0 1 0.46,0.18 l 0.11,0.05 a 2.76,2.76 0 0 1 0.44,0.25 v 0 a 3.75,3.75 0 0 1 1.05,1 3.37,3.37 0 0 1 0.19,0.32 3.47,3.47 0 0 1 0.37,1.04 3.86,3.86 0 0 1 -0.08,1.88 z m 14.55,-24.3 a 3.59,3.59 0 0 1 -0.12,0.35 4.32,4.32 0 0 1 -0.36,0.67 3.94,3.94 0 0 1 -0.75,0.83 5,5 0 0 1 -0.61,0.41 4.19,4.19 0 0 1 -0.69,0.29 c -0.12,0 -0.24,0.07 -0.37,0.09 v 0 c -0.11,0 -0.23,0 -0.35,0.06 h -0.38 a 3.91,3.91 0 0 1 -0.49,0 h -0.12 a 3.88,3.88 0 0 1 -0.49,-0.11 v 0 l -0.46,-0.17 -0.11,-0.06 a 3.75,3.75 0 0 1 -0.44,-0.24 v 0 a 3.79,3.79 0 0 1 -0.58,-0.48 l -0.25,-0.27 a 4.59,4.59 0 0 1 -0.35,-0.51 4.41,4.41 0 0 1 -0.35,-0.8 2.22,2.22 0 0 1 -0.09,-0.37 3.65,3.65 0 0 1 -0.08,-0.74 4.53,4.53 0 0 1 0.07,-0.74 3.88,3.88 0 0 1 0.57,-1.38 l 0.22,-0.3 a 3.94,3.94 0 0 1 0.83,-0.75 3.76,3.76 0 0 1 1.37,-0.57 l 0.38,-0.06 h 0.12 0.25 v 0 a 4.22,4.22 0 0 1 0.49,0 h 0.12 a 4.15,4.15 0 0 1 0.48,0.11 v 0 a 3.61,3.61 0 0 1 0.46,0.17 l 0.12,0.06 a 3.62,3.62 0 0 1 0.43,0.24 3.92,3.92 0 0 1 1.06,1 3.2,3.2 0 0 1 0.26,0.48 1.63,1.63 0 0 1 0.09,0.19 3.55,3.55 0 0 1 0.22,0.7 3.85,3.85 0 0 1 -0.1,1.86 z m 28.419999,35.11 a 5,5 0 0 1 -0.28,0.69 c -0.06,0.11 -0.13,0.21 -0.2,0.32 a 3.77,3.77 0 0 1 -2.24,1.58 h -0.18 -0.08 -0.29 -0.13 -0.25 v 0 a 3.88,3.88 0 0 1 -0.48,0 h -0.13 a 4.1,4.1 0 0 1 -0.48,-0.1 v 0 a 2.54,2.54 0 0 1 -0.46,-0.17 l -0.11,-0.05 c -0.15,-0.08 -0.3,-0.16 -0.439999,-0.25 a 3.76,3.76 0 0 1 -1.68,-3.54 3.62,3.62 0 0 1 0.14,-0.73 3.48,3.48 0 0 1 0.29,-0.69 2.07,2.07 0 0 1 0.19,-0.32 3.46,3.46 0 0 1 0.22,-0.31 l 0.25,-0.28 a 3.9,3.9 0 0 1 1.229999,-0.82 3.53,3.53 0 0 1 0.72,-0.22 h 0.12 0.25 0.39 a 3.87,3.87 0 0 1 0.48,0 h 0.13 a 4.15,4.15 0 0 1 0.48,0.11 v 0 a 3.66,3.66 0 0 1 0.46,0.18 h 0.12 a 3.18,3.18 0 0 1 0.43,0.25 3.83,3.83 0 0 1 1.41,1.7 4.29,4.29 0 0 1 0.22,0.72 3.86,3.86 0 0 1 -0.1,1.89 z"
     id="path64"
     style="fill:url(#linearGradient104)" />
  <path
     class="cls-6"
     d="m 132.84,44.16973 v 0.3 c 0,2.81 -1.14,5.56 -4.81,5.56 -3.93,0 -5.15,-2.53 -5.15,-8.1 0,-5.57 1.22,-8.1 5.18,-8.1 4.43,0 4.69,3.28 4.69,4.89 v 0.29 h -2.49 v -0.26 c 0,-1.45 -0.43,-3.11 -2.23,-3 -1.8,0.11 -2.66,1.14 -2.66,6.16 0,5.02 0.83,6.29 2.66,6.29 2.08,0 2.32,-2.32 2.32,-3.76 v -0.26 z"
     id="path65" />
  <path
     class="cls-6"
     d="m 137.53,34.16973 h 3.19 l 4.11,15.59 h -2.6 l -1,-3.82 h -4.51 l -1,3.82 h -2.6 z m 3.32,9.78 -1.79,-7.69 v 0 l -1.86,7.69 z"
     id="path66" />
  <path
     class="cls-6"
     d="m 145.92,34.16973 h 5.5 c 2.18,0 4,1.09 4,4 0,2 -0.89,3.55 -2.6,3.82 v 0 c 1.55,0.15 2.36,1 2.45,3.19 0,1 0,2.23 0.09,3.16 a 1.6,1.6 0 0 0 0.74,1.36 h -2.82 a 2.62,2.62 0 0 1 -0.41,-1.38 c -0.09,-0.94 -0.07,-1.81 -0.11,-3 -0.05,-1.7 -0.57,-2.44 -2.27,-2.44 h -2 v 6.77 h -2.57 z m 4.47,6.94 a 2.29,2.29 0 0 0 2.49,-2.53 c 0,-1.66 -0.72,-2.53 -2.36,-2.53 h -2.11 v 5.06 z"
     id="path67" />
  <path
     class="cls-6"
     d="m 157.64,34.16973 h 5.08 c 2.31,0 4.19,1 4.19,3.78 0,1.9 -0.74,3 -2.29,3.53 v 0 c 1.7,0.3 2.79,1.33 2.79,4 0,2.67 -1.88,4.26 -4.8,4.26 h -4.94 z m 4.46,6.57 a 2.19,2.19 0 0 0 2.29,-2.47 c 0,-1.85 -1.11,-2.22 -2.51,-2.22 h -1.75 v 4.69 z m 0.5,7.14 c 1.48,0 2.29,-1 2.29,-2.75 a 2.37,2.37 0 0 0 -2.44,-2.64 h -2.32 v 5.39 z"
     id="path68" />
  <path
     class="cls-6"
     d="m 169,41.95973 c 0,-5.56 1.57,-8.1 5.15,-8.1 3.58,0 5.15,2.54 5.15,8.1 0,5.56 -1.57,8.1 -5.15,8.1 -3.58,0 -5.15,-2.53 -5.15,-8.1 z m 7.81,-0.06 c 0,-5.24 -1.18,-6.16 -2.66,-6.16 -1.48,0 -2.66,0.92 -2.66,6.16 0,5.24 1.18,6.29 2.66,6.29 1.48,0 2.66,-0.92 2.66,-6.29 z"
     id="path69" />
  <path
     class="cls-6"
     d="m 181.51,34.16973 h 3 l 4.52,11.61 v 0 -11.61 h 2.36 v 15.59 h -3 l -4.52,-11.92 v 0 11.92 h -2.36 z"
     id="path70" />
  <path
     class="cls-6"
     d="m 199.28,34.16973 h 4.44 c 4.9,0 5.51,3.19 5.51,7.79 0,4.6 -0.61,7.8 -5.51,7.8 h -4.43 z m 2.49,13.71 h 2 c 2.06,0 2.91,-1.35 2.91,-5.92 0,-4.39 -0.74,-5.91 -2.91,-5.91 h -2 z"
     id="path71" />
  <path
     class="cls-6"
     d="m 214.37,34.16973 h 3.19 l 4.1,15.59 h -2.6 l -1,-3.82 h -4.56 l -1,3.82 h -2.6 z m 3.32,9.78 -1.79,-7.69 v 0 l -1.86,7.69 z"
     id="path72" />
  <path
     class="cls-6"
     d="m 224.11,36.25973 h -3.71 v -2.09 h 9.84 v 2.09 h -3.64 v 13.5 h -2.49 z"
     id="path73" />
  <path
     class="cls-6"
     d="m 233.41,34.16973 h 3.19 l 4.1,15.59 h -2.6 l -1,-3.82 h -4.56 l -1,3.82 h -2.6 z m 3.32,9.78 -1.79,-7.69 v 0 l -1.86,7.69 z"
     id="path74" />
  <path
     class="cls-6"
     d="m 248.96,44.92973 v 0.4 c 0,1.9 0.83,2.86 2.55,2.86 a 2.22,2.22 0 0 0 2.36,-2.27 2.63,2.63 0 0 0 -2.23,-2.78 l -1.7,-0.59 c -2.27,-0.87 -3.25,-2 -3.25,-4.28 0,-2.84 1.92,-4.41 4.84,-4.41 4,0 4.41,2.49 4.41,4.11 v 0.35 h -2.49 v -0.33 c 0,-1.42 -0.63,-2.25 -2.18,-2.25 a 2,2 0 0 0 -2.09,2.25 c 0,1.33 0.67,2 2.33,2.64 l 1.68,0.61 c 2.21,0.79 3.17,2 3.17,4.13 0,3.32 -2,4.69 -5.15,4.69 -3.87,0 -4.74,-2.57 -4.74,-4.76 v -0.37 z"
     id="path75" />
  <path
     class="cls-6"
     d="m 258.37,34.16973 h 4.93 c 3,0 4.3,1.88 4.3,4.54 0,2.66 -1.63,4.61 -4.56,4.61 h -2.18 v 6.44 h -2.49 z m 2.49,7.27 h 1.77 c 1.33,0 2.48,-0.72 2.48,-2.69 0,-1.68 -0.67,-2.7 -2.66,-2.7 h -1.59 z"
     id="path76" />
  <path
     class="cls-6"
     d="m 269.29,34.16973 h 8.43 v 2.09 h -5.94 v 4.33 h 5.59 v 2.09 h -5.59 v 5 h 6.12 v 2.1 h -8.6 z"
     id="path77" />
  <path
     class="cls-6"
     d="m 289.37,44.16973 v 0.3 c 0,2.81 -1.13,5.56 -4.8,5.56 -3.93,0 -5.15,-2.53 -5.15,-8.1 0,-5.57 1.22,-8.1 5.17,-8.1 4.43,0 4.7,3.28 4.7,4.89 v 0.29 h -2.49 v -0.26 c 0,-1.45 -0.44,-3.11 -2.23,-3 -1.79,0.11 -2.66,1.14 -2.66,6.16 0,5.02 0.83,6.29 2.66,6.29 2.07,0 2.31,-2.32 2.31,-3.76 v -0.26 z"
     id="path78" />
  <path
     class="cls-6"
     d="m 291.01,34.16973 h 2.49 v 15.59 h -2.49 z"
     id="path79" />
  <path
     class="cls-6"
     d="m 295.97,34.16973 h 8.32 v 2.09 h -5.83 v 4.33 h 5.48 v 2.09 h -5.48 v 7.08 h -2.49 z"
     id="path80" />
  <path
     class="cls-6"
     d="m 305.97,34.16973 h 2.49 v 15.59 h -2.49 z"
     id="path81" />
  <path
     class="cls-6"
     d="m 320.51,44.16973 v 0.3 c 0,2.81 -1.14,5.56 -4.8,5.56 -3.93,0 -5.16,-2.53 -5.16,-8.1 0,-5.57 1.23,-8.1 5.18,-8.1 4.43,0 4.69,3.28 4.69,4.89 v 0.29 h -2.49 v -0.26 c 0,-1.45 -0.43,-3.11 -2.22,-3 -1.79,0.11 -2.67,1.14 -2.67,6.16 0,5.02 0.83,6.29 2.67,6.29 2.07,0 2.31,-2.32 2.31,-3.76 v -0.26 z"
     id="path82" />
  <path
     class="cls-6"
     d="m 325.2,34.16973 h 3.19 l 4.11,15.59 h -2.6 l -1,-3.82 h -4.57 l -1,3.82 h -2.6 z m 3.32,9.78 -1.8,-7.69 v 0 l -1.86,7.69 z"
     id="path83" />
  <path
     class="cls-6"
     d="m 334.94,36.25973 h -3.71 v -2.09 h 9.85 v 2.09 h -3.65 v 13.5 h -2.49 z"
     id="path84" />
  <path
     class="cls-6"
     d="m 342.39,34.16973 h 2.49 v 15.59 h -2.49 z"
     id="path85" />
  <path
     class="cls-6"
     d="m 346.97,41.95973 c 0,-5.56 1.58,-8.1 5.16,-8.1 3.58,0 5.15,2.54 5.15,8.1 0,5.56 -1.57,8.1 -5.15,8.1 -3.58,0 -5.16,-2.53 -5.16,-8.1 z m 7.82,-0.06 c 0,-5.24 -1.18,-6.16 -2.66,-6.16 -1.48,0 -2.67,0.92 -2.67,6.16 0,5.24 1.18,6.29 2.67,6.29 1.49,0 2.66,-0.92 2.66,-6.29 z"
     id="path86" />
  <path
     class="cls-6"
     d="m 359.49,34.16973 h 3 l 4.52,11.61 v 0 -11.61 h 2.36 v 15.59 h -3 l -4.52,-11.92 h -0.05 v 11.92 h -2.35 z"
     id="path87" />
  <path
     class="cls-7"
     d="m 144.99,79.74973 v 0.72 c 0,6.26 -2.52,12.37 -10.67,12.37 -8.72,0 -11.44,-5.63 -11.44,-18 0,-12.37 2.72,-18 11.49,-18 9.84,0 10.42,7.27 10.42,10.85 v 0.63 h -5.52 v -0.58 c 0,-3.2 -1,-6.88 -5,-6.74 -4,0.14 -5.91,2.53 -5.91,13.68 0,11.15 1.84,14 5.91,14 4.61,0 5.14,-5.14 5.14,-8.34 v -0.58 z"
     id="path88"
     style="fill:url(#New_Gradient_Swatch_4-2)" />
  <path
     class="cls-8"
     d="m 148.04,74.84973 c 0,-12.36 3.49,-18 11.44,-18 7.95,0 11.44,5.62 11.44,18 0,12.38 -3.49,18 -11.44,18 -7.95,0 -11.44,-5.64 -11.44,-18 z m 17.36,-0.14 c 0,-11.64 -2.62,-13.68 -5.92,-13.68 -3.3,0 -5.91,2 -5.91,13.68 0,11.92 2.62,14 5.91,14 3.29,0 5.92,-2.08 5.92,-14 z"
     id="path89"
     style="fill:url(#New_Gradient_Swatch_4-3)" />
  <path
     class="cls-9"
     d="m 175.82,57.53973 h 6.74 l 10,25.79 h 0.1 v -25.79 h 5.24 v 34.62 h -6.74 l -10,-26.47 h -0.09 v 26.47 h -5.25 z"
     id="path90"
     style="fill:url(#New_Gradient_Swatch_4-4)" />
  <path
     class="cls-10"
     d="m 207.91,81.46973 v 0.88 c 0,4.21 1.84,6.35 5.67,6.35 a 4.91,4.91 0 0 0 5.24,-5 c 0,-3.64 -1.84,-5.24 -4.94,-6.16 l -3.79,-1.31 c -5,-1.94 -7.22,-4.56 -7.22,-9.5 0,-6.3 4.27,-9.79 10.76,-9.79 8.87,0 9.8,5.52 9.8,9.11 v 0.77 h -5.53 v -0.72 c 0,-3.15 -1.41,-5 -4.85,-5 -2.37,0 -4.65,1.31 -4.65,5 0,2.95 1.5,4.46 5.18,5.86 l 3.74,1.36 c 4.89,1.75 7,4.41 7,9.16 0,7.37 -4.46,10.43 -11.44,10.43 -8.58,0 -10.52,-5.72 -10.52,-10.57 v -0.87 z"
     id="path91"
     style="fill:url(#New_Gradient_Swatch_4-5)" />
  <path
     class="cls-11"
     d="m 227.98,74.84973 c 0,-12.36 3.49,-18 11.44,-18 7.95,0 11.44,5.62 11.44,18 0,12.38 -3.49,18 -11.44,18 -7.95,0 -11.44,-5.64 -11.44,-18 z m 17.36,-0.14 c 0,-11.64 -2.62,-13.68 -5.92,-13.68 -3.3,0 -5.91,2 -5.91,13.68 0,11.92 2.62,14 5.91,14 3.29,0 5.92,-2.08 5.92,-14 z"
     id="path92"
     style="fill:url(#New_Gradient_Swatch_4-6)" />
  <path
     class="cls-12"
     d="m 255.72,57.53973 h 12.22 c 4.85,0 8.77,2.43 8.77,8.92 0,4.46 -2,7.91 -5.77,8.49 v 0.09 c 3.45,0.34 5.24,2.23 5.43,7.08 0.05,2.23 0.1,4.95 0.2,7 a 3.57,3.57 0 0 0 1.65,3 h -6.26 a 5.93,5.93 0 0 1 -0.92,-3.06 c -0.19,-2.08 -0.15,-4 -0.24,-6.54 -0.1,-3.78 -1.26,-5.43 -5,-5.43 h -4.51 v 15 h -5.57 z m 10,15.42 c 3.54,0 5.53,-2.13 5.53,-5.62 0,-3.69 -1.6,-5.63 -5.24,-5.63 h -4.7 v 11.25 z"
     id="path93"
     style="fill:url(#New_Gradient_Swatch_4-7)" />
  <path
     class="cls-13"
     d="m 286.59,62.19973 h -8.24 v -4.66 h 21.87 v 4.66 h -8.1 v 30 h -5.53 z"
     id="path94"
     style="fill:url(#New_Gradient_Swatch_4-8)" />
  <path
     class="cls-14"
     d="m 303.12,57.53973 h 5.53 v 34.62 h -5.53 z"
     id="path95"
     style="fill:url(#New_Gradient_Swatch_4-9)" />
  <path
     class="cls-15"
     d="m 319.22,57.53973 v 24.83 c 0,4.36 1.74,6.3 5.09,6.3 3.35,0 5,-1.94 5,-6.3 v -24.83 h 5.53 v 24.39 c 0,8 -4,10.91 -10.57,10.91 -6.57,0 -10.55,-2.91 -10.55,-10.91 v -24.39 z"
     id="path96"
     style="fill:url(#New_Gradient_Swatch_4-10)" />
  <path
     class="cls-16"
     d="m 340.16,57.53973 h 8.63 l 6.11,25.65 h 0.1 l 6,-25.65 h 8.43 v 34.62 h -5.23 v -28.8 h -0.1 l -7,28.8 h -4.66 l -7,-28.8 h -0.09 v 28.8 h -5.24 z"
     id="path97"
     style="fill:url(#New_Gradient_Swatch_4-11)" />
  <path
     class="cls-17"
     d="M 73.770001,51.55973 Z"
     id="path98" />
  <path
     class="cls-17"
     d="m 66.980001,47.81973 0.23,0.36 z"
     id="path99" />
  <rect
     class="cls-17"
     x="6.5025549"
     y="65.99456"
     height="3.1099999"
     transform="rotate(-37.91)"
     id="rect99"
     width="0" />
  <path
     class="cls-17"
     d="m 75.720001,51.22973 h 0.15 v 0 z"
     id="path100" />
  <polygon
     class="cls-17"
     points="71.41,51.23 68.98,55.28 "
     id="polygon100"
     transform="translate(8.05006e-7,-2.6962796e-4)" />
  <path
     class="cls-6"
     d="m 85.890001,71.56973 -4.35,-1.1 a 4.87,4.87 0 0 0 -1.43,-3 5,5 0 0 0 -3,-1.43 l -3,-11.35 c 0.13,-0.11 0.27,-0.23 0.4,-0.36 a 4.83,4.83 0 0 0 0.76,-1 9.21,9.21 0 0 1 -1.65,0.15 10.52,10.52 0 0 1 -1.26,-0.08 l -1.41,2.33 h 0.28 l 2.92,10.92 a 5.85,5.85 0 0 0 -1,0.79 4.93,4.93 0 0 0 -0.91,5.75 l -7.83,7.83 a 5,5 0 0 0 -5.76,0.91 5.14,5.14 0 0 0 -0.77,1 l -10.89,-2.92 v -0.21 a 5,5 0 0 0 -5.16,-5 l -2.92,-10.92 a 4.27,4.27 0 0 0 1,-0.76 5,5 0 0 0 0.81,-5.75 l 2.78,-2.78 -1.92,-2.46 -3.08,3.09 a 5,5 0 0 0 -5.76,0.93 4.67,4.67 0 0 0 -0.76,1 l -10.92,-2.92 a 4.92,4.92 0 0 0 -1.41,-3.76 5.05,5.05 0 0 0 -3.73,-1.45 l -2.92,-10.91 a 4.38,4.38 0 0 0 1,-0.77 5,5 0 0 0 0.91,-5.76 l 3.12,-3.11 -2.7,-1.6 -2.55,2.6 a 4.93,4.93 0 0 0 -2.24,-0.54 5,5 0 0 0 -3.5200002,1.45 5.08,5.08 0 0 0 -0.77,1 l -3.79,-1.1 a 1.5524175,1.5524175 0 1 0 -0.8,3 l 3.93,1.15 a 4.84,4.84 0 0 0 1.43,3 5,5 0 0 0 3.0000002,1.43 l 3,11.35 -0.39,0.35 a 5,5 0 0 0 -0.91,5.76 l -2.5500002,2.55 a 1.57,1.57 0 0 0 0,2.2 1.53,1.53 0 0 0 2.1900002,0 l 2.58,-2.6 a 5,5 0 0 0 2.23,0.53 5,5 0 0 0 3.55,-1.46 3.42,3.42 0 0 0 0.36,-0.4 l 1.9,0.52 9.45,2.53 a 4.91,4.91 0 0 0 1.42,3 5.09,5.09 0 0 0 3,1.43 l 3,11.35 a 3.25,3.25 0 0 0 -0.39,0.35 5,5 0 0 0 -1.45,3.52 4.81,4.81 0 0 0 0.54,2.24 l -3.06,3 a 1.56,1.56 0 0 0 0,2.19 1.55,1.55 0 0 0 2.2,0 l 3,-3 a 5,5 0 0 0 5.76,-0.91 3.25,3.25 0 0 0 0.35,-0.39 l 11.35,3 a 4.82,4.82 0 0 0 1.43,3 5,5 0 0 0 3,1.43 l 1.15,4.4 a 1.55,1.55 0 0 0 1.49,1.16 1.12,1.12 0 0 0 0.4,-0.07 1.54,1.54 0 0 0 1.1,-1.92 l -1.1,-4.25 a 4.26,4.26 0 0 0 1,-0.77 5,5 0 0 0 0.91,-5.75 l 7.83,-7.83 a 5,5 0 0 0 5.76,-0.91 4.72,4.72 0 0 0 0.76,-1 l 4.25,1.11 a 1.39,1.39 0 0 0 0.4,0.06 1.56,1.56 0 0 0 0.39,-3.06 z m -45,6.22 c 0.13,0 -0.12,0 0,0 z"
     id="path101" />
  <rect
     class="cls-17"
     x="-9.5724449"
     y="28.364008"
     height="3.1400001"
     transform="rotate(-59.27)"
     id="rect101"
     width="0" />
  <path
     class="cls-6"
     d="m 94.800001,36.89973 v 0 l -4.4,-1.15 a 4.87,4.87 0 0 0 -1.43,-3 5,5 0 0 0 -3,-1.42 l -3,-11.33 c 0.14,-0.11 0.27,-0.23 0.41,-0.36 a 5,5 0 0 0 1.45,-3.52 4.89,4.89 0 0 0 -0.54,-2.23 l 3.43,-3.42 a 1.55,1.55 0 0 0 -2.19,-2.1899996 l -3.47,3.4699996 a 5,5 0 0 0 -5.76,0.91 2.64,2.64 0 0 0 -0.35,0.4 l -11.35,-3.0999996 a 4.9,4.9 0 0 0 -1.43,-3 5,5 0 0 0 -3,-1.43 l -1.12,-4.39 a 1.56,1.56 0 0 0 -3,0.8 l 1.11,4.25 a 4.55,4.55 0 0 0 -1,0.77 5,5 0 0 0 -0.92,5.7599996 l -7.81,7.85 a 5,5 0 0 0 -5.71,0.9 2.17,2.17 0 0 0 -0.35,0.39 l -11.35,-3 a 4.92,4.92 0 0 0 -1.43,-3 5.09,5.09 0 0 0 -3,-1.43 l -1.6,-5.7699996 a 1.56,1.56 0 0 0 -3,0.81 l 1.57,5.6299996 a 4.22,4.22 0 0 0 -1,0.76 5,5 0 0 0 -1.16,5.2 l 4.22,2.51 a 9.52,9.52 0 0 1 5.6,-1.83 9.3,9.3 0 0 1 2,0.22 9.45,9.45 0 0 1 3.69,1.7 l 4.23,1.13 a 4.87,4.87 0 0 0 1.45,3.73 5,5 0 0 0 3,1.43 l 3,11.35 c -0.12,0.1 -0.27,0.23 -0.39,0.35 a 5,5 0 0 0 -1.45,3.51 l 3.68,4.73 a 5.09,5.09 0 0 0 1.33,0.19 5,5 0 0 0 3.52,-1.45 3.33,3.33 0 0 0 0.36,-0.39 l 10.22,2.74 0.89,-1.49 a 9.91,9.91 0 0 1 -1,-1.73 l -9,-2.42 v -0.21 a 5,5 0 0 0 -5.17,-5 l -2.86,-10.89 a 4.22,4.22 0 0 0 1,-0.76 5,5 0 0 0 0.91,-5.76 l 7.83,-7.83 a 5,5 0 0 0 5.76,-0.91 4.48,4.48 0 0 0 0.76,-1 l 10.9,2.92 v 0.21 a 5,5 0 0 0 1.45,3.52 4.89,4.89 0 0 0 3.52,1.45 h 0.19 l 2.94,10.92 a 4.81,4.81 0 0 0 -1,0.76 v 0 a 5,5 0 0 0 -1.26,4.95 9.41,9.41 0 0 1 1.93,3.57 l 0.57,-0.56 a 5,5 0 0 0 2.23,0.54 5,5 0 0 0 3.52,-1.45 5.14,5.14 0 0 0 0.77,-1 l 4.25,1.11 a 1.32,1.32 0 0 0 0.39,0.06 1.57,1.57 0 0 0 0.42,-3.08 z"
     id="path102" />
  <g
     id="text102"
     transform="translate(8.05006e-7,-2.6962796e-4)">
    <path
       style="-inkscape-font-specification:'Sans, Normal'"
       d="m 64.360915,126.14379 q -0.501303,0.21875 -0.91146,0.41016 -0.401042,0.1914 -1.057293,0.40104 -0.555991,0.17318 -1.212242,0.29167 -0.647136,0.1276 -1.430992,0.1276 -1.476565,0 -2.688807,-0.41016 -1.203127,-0.41927 -2.096358,-1.30338 -0.875001,-0.86589 -1.36719,-2.19662 -0.492188,-1.33985 -0.492188,-3.10808 0,-1.67709 0.473959,-2.9987 0.473959,-1.32162 1.36719,-2.23308 0.865887,-0.88412 2.087243,-1.34896 1.230471,-0.46485 2.725266,-0.46485 1.093752,0 2.178389,0.26433 1.093752,0.26432 2.424483,0.92969 v 2.14193 h -0.136719 q -1.121095,-0.93881 -2.223962,-1.36719 -1.102866,-0.42839 -2.360681,-0.42839 -1.02995,0 -1.859379,0.33724 -0.820314,0.32813 -1.46745,1.02995 -0.628908,0.6836 -0.984377,1.73177 -0.346355,1.03907 -0.346355,2.40626 0,1.43099 0.382813,2.46094 0.391928,1.02995 1.002606,1.67709 0.638022,0.67448 1.48568,1.0026 0.856773,0.31901 1.804691,0.31901 1.303388,0 2.442713,-0.44661 1.139325,-0.44662 2.132816,-1.33985 h 0.127604 z m 12.669294,-11.02867 q 0.829428,0.91146 1.266929,2.23308 0.446616,1.32162 0.446616,2.9987 0,1.67709 -0.45573,3.00782 -0.446616,1.32162 -1.257815,2.20574 -0.838543,0.92057 -1.986983,1.38541 -1.139325,0.46485 -2.606775,0.46485 -1.430993,0 -2.606776,-0.47396 -1.166669,-0.47396 -1.986983,-1.3763 -0.820314,-0.90235 -1.266929,-2.21485 -0.437501,-1.31251 -0.437501,-2.99871 0,-1.65885 0.437501,-2.97136 0.437501,-1.32161 1.276044,-2.26042 0.802085,-0.89323 1.986983,-1.36719 1.194012,-0.47396 2.597661,-0.47396 1.458336,0 2.61589,0.48308 1.166668,0.47396 1.977868,1.35807 z m -0.164063,5.23178 q 0,-2.64323 -1.184898,-4.07422 -1.184898,-1.44011 -3.235683,-1.44011 -2.069014,0 -3.253912,1.44011 -1.175783,1.43099 -1.175783,4.07422 0,2.67058 1.203127,4.09246 1.203127,1.41276 3.226568,1.41276 2.023441,0 3.217454,-1.41276 1.203127,-1.42188 1.203127,-4.09246 z m 15.093777,6.78127 h -2.233077 l -6.434907,-12.14065 v 12.14065 h -1.686201 v -13.57164 h 2.798182 l 5.869802,11.08335 v -11.08335 h 1.686201 z m 13.963567,0 h -2.23308 l -6.434905,-12.14065 v 12.14065 h -1.686201 v -13.57164 h 2.798182 l 5.869804,11.08335 v -11.08335 h 1.6862 z m 12.55081,0 h -8.94143 v -13.57164 h 8.94143 v 1.60417 h -7.13674 v 3.71875 h 7.13674 v 1.60417 h -7.13674 v 5.04038 h 7.13674 z m 13.34377,-0.98438 q -0.5013,0.21875 -0.91146,0.41016 -0.40104,0.1914 -1.05729,0.40104 -0.556,0.17318 -1.21225,0.29167 -0.64713,0.1276 -1.43099,0.1276 -1.47656,0 -2.68881,-0.41016 -1.20312,-0.41927 -2.09635,-1.30338 -0.87501,-0.86589 -1.36719,-2.19662 -0.49219,-1.33985 -0.49219,-3.10808 0,-1.67709 0.47396,-2.9987 0.47396,-1.32162 1.36719,-2.23308 0.86588,-0.88412 2.08724,-1.34896 1.23047,-0.46485 2.72527,-0.46485 1.09375,0 2.17839,0.26433 1.09375,0.26432 2.42448,0.92969 v 2.14193 h -0.13672 q -1.1211,-0.93881 -2.22396,-1.36719 -1.10287,-0.42839 -2.36068,-0.42839 -1.02995,0 -1.85938,0.33724 -0.82032,0.32813 -1.46745,1.02995 -0.62891,0.6836 -0.98438,1.73177 -0.34635,1.03907 -0.34635,2.40626 0,1.43099 0.38281,2.46094 0.39193,1.02995 1.0026,1.67709 0.63803,0.67448 1.48568,1.0026 0.85678,0.31901 1.8047,0.31901 1.30338,0 2.44271,-0.44661 1.13932,-0.44662 2.13281,-1.33985 h 0.12761 z m 12.23179,-10.98309 h -4.84897 v 11.96747 H 137.3962 V 115.1607 h -4.84897 v -1.60417 h 11.50263 z m 6.60808,11.96747 h -5.35938 v -1.38542 h 1.77735 v -10.8008 h -1.77735 v -1.38542 h 5.35938 v 1.38542 h -1.77734 v 10.8008 h 1.77734 z m 13.77217,-13.57164 -4.94012,13.57164 h -2.40625 l -4.94011,-13.57164 h 1.93229 l 4.25652,11.94012 4.25652,-11.94012 z m 6.84506,13.57164 h -5.35939 v -1.38542 h 1.77735 v -10.8008 h -1.77735 v -1.38542 h 5.35939 v 1.38542 h -1.77735 v 10.8008 h 1.77735 z M 184.0265,115.1607 h -4.84897 v 11.96747 h -1.80469 V 115.1607 h -4.84897 v -1.60417 h 11.50263 z m 11.42971,-1.60417 -4.77606,7.6198 v 5.95184 h -1.80469 v -5.76043 l -4.79428,-7.81121 h 1.9961 l 3.70964,6.07032 3.7461,-6.07032 z m 24.23571,0 -3.52735,13.57164 h -2.03255 l -2.85287,-11.26565 -2.78907,11.26565 h -1.98698 l -3.59115,-13.57164 h 1.85026 l 2.85287,11.28387 2.8073,-11.28387 h 1.83203 l 2.83464,11.39325 2.83464,-11.39325 z m 13.9818,12.56903 q -1.11198,0.51042 -2.4336,0.89323 -1.3125,0.3737 -2.54297,0.3737 -1.58594,0 -2.90756,-0.4375 -1.32162,-0.4375 -2.25131,-1.3125 -0.9388,-0.88412 -1.44922,-2.20574 -0.51042,-1.33073 -0.51042,-3.10808 0,-3.25391 1.89584,-5.13151 1.90495,-1.88673 5.22267,-1.88673 1.15755,0 2.36068,0.28256 1.21224,0.27343 2.60677,0.9388 v 2.14193 h -0.16406 q -0.28255,-0.21875 -0.82031,-0.57422 -0.53777,-0.35547 -1.0573,-0.59245 -0.62891,-0.28255 -1.43099,-0.46484 -0.79297,-0.19141 -1.80469,-0.19141 -2.27865,0 -3.60938,1.46745 -1.32162,1.45834 -1.32162,3.95574 0,2.63412 1.38542,4.10157 1.38542,1.45833 3.77344,1.45833 0.87501,0 1.74089,-0.17317 0.875,-0.17318 1.53126,-0.44662 v -3.32683 h -3.63673 v -1.58594 h 5.42319 z m 15.02997,4.75782 h -2.08724 q -1.61328,-1.85026 -2.50651,-4.03777 -0.89323,-2.1875 -0.89323,-4.93099 0,-2.7435 0.89323,-4.931 0.89323,-2.18751 2.50651,-4.03777 h 2.08724 v 0.0911 q -0.73828,0.66537 -1.41276,1.54037 -0.66536,0.86589 -1.23958,2.02344 -0.54688,1.1211 -0.89323,2.47006 -0.33724,1.34896 -0.33724,2.84376 0,1.55859 0.32812,2.85286 0.33724,1.29428 0.90235,2.46095 0.54687,1.12109 1.2487,2.02344 0.70182,0.91146 1.40364,1.54037 z m 18.95837,-17.32685 -3.52735,13.57164 h -2.03255 l -2.85287,-11.26565 -2.78907,11.26565 h -1.98698 l -3.59116,-13.57164 h 1.85027 l 2.85287,11.28387 2.80729,-11.28387 h 1.83204 l 2.83464,11.39325 2.83464,-11.39325 z m 13.9818,12.56903 q -1.11199,0.51042 -2.4336,0.89323 -1.3125,0.3737 -2.54298,0.3737 -1.58594,0 -2.90755,-0.4375 -1.32162,-0.4375 -2.25131,-1.3125 -0.9388,-0.88412 -1.44922,-2.20574 -0.51042,-1.33073 -0.51042,-3.10808 0,-3.25391 1.89584,-5.13151 1.90495,-1.88673 5.22266,-1.88673 1.15756,0 2.36069,0.28256 1.21224,0.27343 2.60677,0.9388 v 2.14193 h -0.16406 q -0.28255,-0.21875 -0.82032,-0.57422 -0.53776,-0.35547 -1.05729,-0.59245 -0.62891,-0.28255 -1.43099,-0.46484 -0.79297,-0.19141 -1.80469,-0.19141 -2.27865,0 -3.60938,1.46745 -1.32162,1.45834 -1.32162,3.95574 0,2.63412 1.38542,4.10157 1.38542,1.45833 3.77344,1.45833 0.875,0 1.74089,-0.17317 0.875,-0.17318 1.53125,-0.44662 v -3.32683 h -3.63672 v -1.58594 h 5.42319 z m 8.41277,-4.11068 h -5.68751 v -1.64975 h 5.68751 z m 10.85549,-1.42188 q 0.4375,0.39193 0.72005,0.98437 0.28255,0.59245 0.28255,1.53126 0,0.92969 -0.33724,1.70443 -0.33724,0.77474 -0.94791,1.34896 -0.6836,0.63802 -1.61329,0.94792 -0.92057,0.30078 -2.02344,0.30078 -1.13021,0 -2.22396,-0.27344 -1.09375,-0.26432 -1.79558,-0.58333 V 124.649 h 0.13672 q 0.77474,0.51041 1.82292,0.84765 1.04818,0.33724 2.02344,0.33724 0.57422,0 1.22136,-0.1914 0.64714,-0.19141 1.04818,-0.56511 0.41927,-0.40104 0.61979,-0.88411 0.20964,-0.48308 0.20964,-1.22136 0,-0.72917 -0.23698,-1.20313 -0.22787,-0.48307 -0.63803,-0.75651 -0.41015,-0.28255 -0.99349,-0.38281 -0.58333,-0.10938 -1.25781,-0.10938 h -0.82032 v -1.51302 h 0.63803 q 1.38542,0 2.20573,-0.57422 0.82943,-0.58334 0.82943,-1.69532 0,-0.49219 -0.20964,-0.85677 -0.20963,-0.3737 -0.58333,-0.61068 -0.39193,-0.23698 -0.83854,-0.32812 -0.44662,-0.0911 -1.01173,-0.0911 -0.86588,0 -1.84114,0.3099 -0.97527,0.30989 -1.84115,0.875 h -0.0912 v -1.90495 q 0.64714,-0.31901 1.72266,-0.58334 1.08464,-0.27344 2.09636,-0.27344 0.99349,0 1.75,0.1823 0.75651,0.18229 1.36719,0.58333 0.65625,0.4375 0.99349,1.05729 0.33724,0.6198 0.33724,1.44923 0,1.13021 -0.80208,1.97786 -0.79297,0.83855 -1.87761,1.0573 v 0.1276 q 0.4375,0.0729 1.00261,0.3099 0.5651,0.22786 0.95703,0.57422 z m 9.2331,1.32162 q 0,2.74349 -0.89323,4.93099 -0.89323,2.18751 -2.50652,4.03777 h -2.08724 v -0.0911 q 0.70182,-0.62891 1.40365,-1.54037 0.71094,-0.90235 1.2487,-2.02344 0.5651,-1.16667 0.89323,-2.46095 0.33724,-1.29427 0.33724,-2.85286 0,-1.4948 -0.33724,-2.84376 -0.33724,-1.34896 -0.89323,-2.47006 -0.57422,-1.15755 -1.2487,-2.02344 -0.66537,-0.875 -1.40365,-1.54037 v -0.0911 h 2.08724 q 1.61329,1.85026 2.50652,4.03777 0.89323,2.1875 0.89323,4.931 z"
       id="path103" />
    <path
       style="-inkscape-font-specification:'Sans, Normal'"
       d="m 246.38867,112.44531 -0.14844,0.17188 c -1.10962,1.27262 -1.97708,2.66754 -2.59375,4.17773 -0.62314,1.52606 -0.92968,3.23588 -0.92968,5.11914 0,1.88326 0.30654,3.59504 0.92968,5.1211 0.61667,1.51019 1.48413,2.90511 2.59375,4.17773 l 0.14844,0.16992 h 2.81445 v -0.81445 l -0.16601,-0.14844 c -0.44017,-0.39444 -0.88915,-0.8848 -1.3418,-1.47265 v -0.002 c -0.44491,-0.57203 -0.84451,-1.21639 -1.19531,-1.93554 h 0.002 c -0.36213,-0.74762 -0.65225,-1.53676 -0.86914,-2.36914 -0.20642,-0.81562 -0.3125,-1.72401 -0.3125,-2.72657 0,-0.95757 0.10858,-1.86267 0.32227,-2.71875 0.22327,-0.86959 0.50959,-1.65969 0.85742,-2.37304 v -0.002 c 0.37047,-0.74659 0.76748,-1.39089 1.1875,-1.9375 0.43321,-0.562 0.88409,-1.0533 1.35156,-1.47461 l 0.16406,-0.14843 v -0.81446 z m 57.76953,0 v 0.81446 l 0.16602,0.14843 c 0.46671,0.42062 0.91323,0.91164 1.33984,1.47266 l 0.002,0.002 0.002,0.002 c 0.42555,0.54631 0.82508,1.19115 1.19531,1.9375 0.35307,0.71193 0.63842,1.50093 0.85547,2.36914 0.21429,0.85714 0.32227,1.76372 0.32227,2.72265 0,1.003 -0.10784,1.91111 -0.32032,2.72657 l -0.002,0.002 v 0.002 c -0.21075,0.83127 -0.49576,1.61857 -0.85742,2.36524 l -0.002,0.002 c -0.34397,0.71709 -0.73986,1.361 -1.18945,1.93164 l -0.002,0.002 -0.002,0.002 c -0.45265,0.58785 -0.90164,1.07821 -1.3418,1.47265 l -0.16602,0.14844 v 0.81445 h 2.81446 l 0.15039,-0.16992 c 1.10963,-1.27262 1.97513,-2.66754 2.59179,-4.17773 0.62315,-1.52606 0.92969,-3.23784 0.92969,-5.1211 0,-1.88326 -0.30654,-3.59308 -0.92969,-5.11914 -0.61666,-1.5102 -1.48216,-2.90511 -2.59179,-4.17773 l -0.15039,-0.17188 z m -231.722653,0.32813 c -0.992043,0 -1.922795,0.169 -2.78125,0.50976 h -0.002 c -0.854375,0.34175 -1.584748,0.84421 -2.171875,1.49805 h -0.002 c -0.607902,0.68059 -1.066436,1.49948 -1.376954,2.4375 -0.311265,0.93452 -0.46289,1.97975 -0.46289,3.12891 0,1.16737 0.15091,2.2203 0.46289,3.15625 v 0.002 c 0.316561,0.9303 0.773433,1.73319 1.371094,2.39062 0.596929,0.65662 1.32554,1.16167 2.167969,1.50391 h 0.002 c 0.849092,0.34227 1.783772,0.50977 2.792969,0.50977 1.031096,0 1.967803,-0.16369 2.796875,-0.50196 0.830876,-0.33674 1.559677,-0.84471 2.166015,-1.50976 l 0.002,-0.002 c 0.592586,-0.64645 1.04535,-1.44453 1.361328,-2.3789 v -0.002 c 0.324283,-0.94763 0.482422,-2.00532 0.482422,-3.16797 0,-1.16104 -0.155157,-2.21527 -0.472657,-3.15625 -0.310515,-0.93802 -0.766629,-1.74787 -1.371093,-2.41211 l -0.002,-0.002 c -0.59046,-0.64353 -1.315285,-1.1409 -2.154296,-1.48242 -5.65e-4,-2.3e-4 -0.0014,2.4e-4 -0.002,0 -0.840144,-0.35032 -1.779898,-0.52148 -2.80664,-0.52148 z m 224.748043,0 c -0.71828,0 -1.45739,0.0984 -2.21484,0.28906 -0.73971,0.1818 -1.34339,0.38211 -1.82422,0.61914 l -0.2793,0.13867 v 2.71485 h 0.74024 l 0.125,-0.0801 c 0.54033,-0.35265 1.11147,-0.6254 1.71875,-0.81836 0.60947,-0.19367 1.17185,-0.28516 1.68945,-0.28516 0.34987,0 0.65483,0.0276 0.91211,0.0801 0.24058,0.0491 0.46185,0.1363 0.67383,0.26367 0.18179,0.11629 0.31323,0.25343 0.41211,0.42969 v 0.002 l 0.002,0.004 c 0.0913,0.15876 0.14258,0.35028 0.14258,0.60742 0,0.617 -0.18652,0.98227 -0.61719,1.28516 -0.43847,0.30643 -1.06425,0.48437 -1.91797,0.48437 h -1.13672 v 2.51172 h 1.32032 c 0.42262,0 0.80948,0.0351 1.16406,0.10156 h 0.004 l 0.004,0.002 c 0.3309,0.0569 0.58994,0.15956 0.79492,0.30078 l 0.004,0.002 0.002,0.002 c 0.19593,0.13062 0.34484,0.30441 0.46289,0.55469 l 0.004,0.004 0.002,0.006 c 0.11212,0.22423 0.1836,0.54852 0.1836,0.98047 0,0.44486 -0.0652,0.78476 -0.16797,1.02148 l -0.002,0.004 v 0.004 c -0.10431,0.2513 -0.26725,0.48508 -0.5,0.70899 -0.20038,0.18671 -0.47612,0.3407 -0.84961,0.45117 -0.39286,0.11619 -0.75087,0.17187 -1.07813,0.17187 -0.59254,0 -1.21535,-0.10152 -1.87109,-0.3125 -0.66297,-0.2133 -1.22894,-0.47794 -1.70117,-0.78906 l -0.125,-0.084 h -0.78711 v 2.72656 l 0.29296,0.13477 c 0.50865,0.2312 1.13461,0.43228 1.88282,0.61328 0.76848,0.19212 1.54995,0.28711 2.34375,0.28711 0.7807,0 1.50994,-0.1054 2.17968,-0.32422 l 0.002,-0.002 c 0.68257,-0.22752 1.288,-0.5817 1.79687,-1.05664 l 0.002,-0.002 c 0.4554,-0.42822 0.81163,-0.93736 1.0625,-1.51367 0.25403,-0.5836 0.3789,-1.22209 0.3789,-1.90234 0,-0.67604 -0.0975,-1.26046 -0.33008,-1.74805 -0.21308,-0.4468 -0.49281,-0.83149 -0.83789,-1.14063 l -0.002,-0.002 -0.35156,-0.31445 -0.0645,0.0644 c -0.21852,-0.14415 -0.42016,-0.30504 -0.67968,-0.41016 -0.0431,-0.0181 -0.0768,-0.0202 -0.11914,-0.0371 0.39521,-0.20864 0.84251,-0.31427 1.16406,-0.65429 0.61097,-0.64569 0.93945,-1.44856 0.93945,-2.32031 0,-0.62072 -0.12886,-1.19401 -0.39844,-1.68946 -0.26629,-0.48941 -0.66096,-0.90419 -1.15625,-1.23437 l -0.002,-0.002 c -0.45725,-0.30028 -0.96965,-0.51648 -1.52539,-0.65039 -0.5528,-0.13321 -1.17428,-0.19726 -1.86719,-0.19726 z m -237.425778,0.0371 c -1.048359,0 -2.019412,0.16254 -2.902343,0.49609 v 0.002 c -0.876016,0.33341 -1.638743,0.82277 -2.267578,1.46485 -0.649102,0.66235 -1.143134,1.47536 -1.480469,2.41601 -0.338659,0.94434 -0.503906,2.00086 -0.503906,3.16602 0,1.22521 0.170764,2.32119 0.523437,3.28125 0.349328,0.94447 0.843331,1.74454 1.484375,2.37891 0.647173,0.64056 1.416253,1.11712 2.285156,1.41992 l 0.002,0.002 h 0.002 c 0.866541,0.29319 1.816983,0.4375 2.847656,0.4375 0.549701,0 1.060281,-0.0462 1.529297,-0.13867 0.451935,-0.0819 0.873016,-0.18301 1.263672,-0.30469 h 0.002 0.002 c 0.449755,-0.14367 0.816808,-0.28167 1.115234,-0.42383 l 0.0039,-0.002 c 0.267931,-0.12499 0.566928,-0.26049 0.896485,-0.4043 l 0.300781,-0.13086 v -2.9414 h -0.820312 l -0.142579,0.1289 c -0.622472,0.55966 -1.280391,0.97166 -1.980468,1.2461 -0.699233,0.27409 -1.447949,0.41211 -2.259766,0.41211 -0.575856,0 -1.116186,-0.0974 -1.630859,-0.28907 -0.4941,-0.19235 -0.921366,-0.47998 -1.296875,-0.87695 -0.352017,-0.37303 -0.653824,-0.87159 -0.896485,-1.50781 -0.228862,-0.61575 -0.351562,-1.3777 -0.351562,-2.28711 0,-0.8685 0.110561,-1.61613 0.320312,-2.24609 v -0.002 c 0.21873,-0.64428 0.514414,-1.15459 0.878907,-1.55078 0.38606,-0.41835 0.810798,-0.71455 1.285156,-0.9043 l 0.002,-0.002 c 0.48606,-0.19763 1.037861,-0.29883 1.669922,-0.29883 0.781779,0 1.504245,0.13217 2.179687,0.39453 0.673635,0.26166 1.369763,0.68511 2.083985,1.28321 l 0.140625,0.11718 h 0.818359 v -2.95117 l -0.277344,-0.13867 c -0.912476,-0.45624 -1.752018,-0.78091 -2.529297,-0.96875 v 0.002 c -0.760654,-0.18537 -1.527428,-0.27929 -2.296875,-0.27929 z m 67.457028,0 c -1.04836,0 -2.01941,0.16253 -2.90234,0.49609 v 0.002 c -0.87602,0.33341 -1.63875,0.82277 -2.26758,1.46485 -0.6491,0.66235 -1.14313,1.47536 -1.48047,2.41601 -0.33866,0.94434 -0.50195,2.00086 -0.50195,3.16602 0,1.22521 0.16881,2.32119 0.52148,3.28125 0.34933,0.94448 0.84333,1.74454 1.48438,2.37891 0.64717,0.64056 1.41626,1.11712 2.28516,1.41992 l 0.002,0.002 h 0.002 c 0.86655,0.29319 1.81894,0.4375 2.84961,0.4375 0.54971,0 1.05833,-0.0462 1.52734,-0.13867 0.45194,-0.0819 0.87302,-0.18301 1.26368,-0.30469 h 0.002 0.002 c 0.44976,-0.14367 0.81681,-0.28167 1.11524,-0.42383 l 0.004,-0.002 c 0.26794,-0.12499 0.56693,-0.26049 0.89649,-0.4043 l 0.30078,-0.13086 v -2.9414 h -0.82031 l -0.14258,0.1289 c -0.62247,0.55966 -1.2804,0.97166 -1.98047,1.2461 -0.69924,0.27409 -1.44795,0.41211 -2.25977,0.41211 -0.57585,0 -1.11618,-0.0974 -1.63085,-0.28907 -0.4941,-0.19235 -0.92136,-0.47998 -1.29688,-0.87695 -0.35201,-0.37303 -0.65382,-0.87159 -0.89648,-1.50781 -0.22887,-0.61575 -0.35157,-1.3777 -0.35157,-2.28711 0,-0.8685 0.11057,-1.61613 0.32032,-2.24609 v -0.002 c 0.21873,-0.64428 0.51441,-1.15459 0.8789,-1.55078 0.38606,-0.41835 0.8108,-0.71455 1.28516,-0.9043 l 0.002,-0.002 c 0.48606,-0.19763 1.03982,-0.29883 1.67188,-0.29883 0.78177,0 1.50229,0.13217 2.17773,0.39453 0.67363,0.26166 1.36976,0.68511 2.08398,1.28321 l 0.14063,0.11718 h 0.81836 v -1.48632 h 4.57812 v 11.96875 h 2.80469 v -11.96875 h 4.84961 v -2.60352 h -12.50391 v 1.00195 l -0.006,-0.002 c -0.91248,-0.45624 -1.75202,-0.78091 -2.5293,-0.96875 v 0.002 c -0.76066,-0.18537 -1.52743,-0.27929 -2.29688,-0.27929 z m 101.48243,0 c -2.3066,0 -4.20114,0.6713 -5.57422,2.03125 -1.3665,1.35335 -2.04493,3.21995 -2.04493,5.48633 10e-6,1.23276 0.17799,2.33046 0.54493,3.2871 v 0.002 c 0.36389,0.94223 0.8888,1.74501 1.57226,2.38867 0.67562,0.63587 1.49522,1.1119 2.4375,1.42383 0.93773,0.31042 1.96119,0.46289 3.06446,0.46289 0.87093,0 1.7651,-0.13218 2.67968,-0.39258 h 0.002 c 0.90212,-0.2613 1.7374,-0.56808 2.5039,-0.91992 l 0.29102,-0.13477 v -6.64453 H 227.75 v 2.58594 h 3.63672 v 2.45508 c -0.34037,0.12184 -0.68928,0.2415 -1.12695,0.32812 h -0.002 c -0.54549,0.1091 -1.09222,0.16406 -1.64258,0.16406 -1.49023,0 -2.58534,-0.43451 -3.41015,-1.30273 -0.82036,-0.86963 -1.24805,-2.09016 -1.24805,-3.75781 0,-1.57674 0.4057,-2.75215 1.19141,-3.61914 0.79175,-0.8731 1.82651,-1.30274 3.23828,-1.30274 0.64295,0 1.206,0.0596 1.6875,0.17578 l 0.004,0.002 h 0.004 c 0.50715,0.11526 0.95087,0.26161 1.33399,0.43359 0.31973,0.14585 0.64891,0.33037 0.98828,0.55469 0.35275,0.23317 0.6204,0.41869 0.79101,0.55078 l 0.13477,0.10547 h 0.83398 v -2.95703 l -0.2832,-0.13672 c -0.95648,-0.45637 -1.85996,-0.78223 -2.71289,-0.97461 -0.8355,-0.19593 -1.65959,-0.29492 -2.4707,-0.29492 z m 47.9707,0 c -2.30592,0 -4.20123,0.67209 -5.57422,2.03125 -1.3665,1.35335 -2.04492,3.21995 -2.04492,5.48633 0,1.23276 0.17603,2.33046 0.54297,3.2871 v 0.002 h 0.002 c 0.3639,0.94223 0.8888,1.74501 1.57227,2.38867 0.67561,0.63587 1.49521,1.1119 2.4375,1.42383 0.93771,0.31042 1.96118,0.46289 3.06445,0.46289 0.87094,0 1.76511,-0.13218 2.67969,-0.39258 h 0.002 c 0.90212,-0.2613 1.73544,-0.56808 2.50195,-0.91992 l 0.29297,-0.13477 v -6.64453 h -6.42383 v 2.58594 h 3.63672 v 2.45508 c -0.34045,0.12189 -0.69108,0.24147 -1.1289,0.32812 -0.54551,0.1091 -1.09223,0.16406 -1.64258,0.16406 -1.48908,0 -2.58557,-0.4339 -3.41016,-1.30078 l -0.002,-0.002 c -0.81992,-0.86959 -1.24805,-2.09061 -1.24805,-3.75781 0,-1.57674 0.40765,-2.75215 1.19336,-3.61914 0.79175,-0.8731 1.82652,-1.30274 3.23828,-1.30274 0.64295,0 1.206,0.0596 1.6875,0.17578 l 0.004,0.002 h 0.002 c 0.50648,0.1151 0.95121,0.26191 1.33399,0.43359 0.31973,0.14585 0.65087,0.33037 0.99023,0.55469 0.35276,0.23317 0.61845,0.41869 0.78906,0.55078 l 0.13477,0.10547 h 0.83594 v -2.95703 l -0.28516,-0.13672 c -0.95648,-0.45637 -1.858,-0.78223 -2.71094,-0.97461 -0.83549,-0.19593 -1.65958,-0.29492 -2.4707,-0.29492 z m -195.562501,0.24609 v 14.57227 h 2.685547 v -10.63282 l 5.634765,10.63282 h 3.033203 v -14.57227 h -2.685547 v 9.57227 l -5.068359,-9.57227 z m 13.96289,0 v 14.57227 h 2.6875 v -10.63086 l 5.632811,10.63086 h 3.03516 v -14.57227 h -2.6875 v 9.56836 l -5.068361,-9.56836 z m 13.964841,0 v 14.57227 h 9.94141 v -2.60547 h -7.13672 v -4.03906 h 7.13672 v -2.60547 h -7.13672 v -2.71875 h 7.13672 v -2.60352 z m 35.76563,0 v 2.38477 h 1.77734 v 9.80078 h -1.77734 v 2.38672 h 6.35937 v -2.38672 h -1.77734 v -9.80078 h 1.77734 v -2.38477 z m 6.63086,0 5.30468,14.57227 h 3.10547 l 5.30469,-14.57227 h -2.9082 l -3.9043,10.95117 -3.9043,-10.95117 z m 13.98633,0 v 2.38477 h 1.77734 v 9.80078 h -1.77734 v 2.38672 h 6.35937 v -2.38672 h -1.77734 v -9.80078 h 1.77734 v -2.38477 z m 6.60742,0 v 2.60352 h 4.84961 v 11.96875 h 2.80468 v -11.96875 h 4.84961 v -0.41993 l 3.84766,6.26954 v 6.11914 h 2.80469 v -6.3086 l 5.17968,-8.26367 h -3.10546 l -3.46485,5.61524 -3.43164,-5.61524 h -1.83008 -1.33984 z m 30.23828,0 3.85742,14.57227 h 2.76172 l 2.4043,-9.71094 2.45703,9.71094 h 2.80859 l 3.78711,-14.57227 h -2.80469 l -2.44336,9.82227 -2.44531,-9.82227 h -2.61328 l -2.41992,9.72656 -2.45899,-9.72656 z m 47.9707,0 3.85547,14.57227 h 2.76367 l 2.40235,-9.70703 2.45898,9.70703 h 2.80859 l 3.78711,-14.57227 h -2.80468 l -2.44532,9.82227 -2.44336,-9.82227 h -2.61328 l -2.41992,9.72656 -2.46094,-9.72656 z m -3.34375,0.38867 h 0.76563 c -0.25334,0.27473 -0.51978,0.51484 -0.75977,0.82617 v 0.002 c -0.46682,0.60751 -0.89609,1.30936 -1.29101,2.10547 v 0.002 h -0.002 c -0.38099,0.78104 -0.68937,1.63802 -0.92773,2.56641 v 0.002 c -0.23537,0.94146 -0.35352,1.93071 -0.35352,2.96484 0,1.07415 0.11326,2.06738 0.34375,2.97657 v 0.002 h 0.002 c 0.23276,0.89332 0.54419,1.74674 0.93554,2.55469 0.37836,0.77563 0.81383,1.48023 1.30469,2.11132 0.24756,0.32139 0.49966,0.55087 0.75,0.82422 h -0.76953 c -0.97546,-1.15034 -1.76551,-2.38219 -2.31445,-3.72656 -0.56784,-1.39061 -0.85547,-2.96746 -0.85547,-4.74219 0,-1.77473 0.28763,-3.35158 0.85547,-4.74218 0.54927,-1.34518 1.34011,-2.57565 2.3164,-3.72657 z m 58.81445,0 h 0.77149 c 0.97629,1.15091 1.76518,2.38141 2.31445,3.72657 0.56783,1.3906 0.85547,2.96745 0.85547,4.74218 0,1.77473 -0.28764,3.35158 -0.85547,4.74219 -0.54894,1.34435 -1.33705,2.57623 -2.3125,3.72656 h -0.77148 c 0.24987,-0.2728 0.5029,-0.50161 0.75,-0.82226 l 0.004,-0.004 c 0.49645,-0.63076 0.92882,-1.33435 1.30079,-2.10937 l 0.002,-0.002 c 0.39067,-0.80694 0.69933,-1.65872 0.92578,-2.55078 0.23717,-0.91023 0.35352,-1.90534 0.35352,-2.98047 0,-1.03413 -0.1162,-2.02338 -0.35157,-2.96484 -0.2326,-0.93041 -0.54339,-1.78745 -0.93164,-2.57031 -0.39539,-0.79706 -0.82702,-1.50117 -1.30078,-2.10938 l 0.002,0.006 c -0.23744,-0.31225 -0.50334,-0.55458 -0.75586,-0.83008 z m -233.267573,0.32813 c 0.917015,0 1.720999,0.152 2.423828,0.44531 h 0.002 l 0.002,0.002 c 0.714779,0.29038 1.308665,0.69821 1.798828,1.23243 0.500619,0.55069 0.887645,1.22952 1.160157,2.05273 l 0.002,0.002 c 0.277208,0.82031 0.419922,1.76618 0.419922,2.83985 0,1.07277 -0.146727,2.01946 -0.429688,2.8457 v 0.002 c -0.279176,0.82614 -0.664547,1.4957 -1.152344,2.02735 l -0.002,0.002 c -0.510719,0.56068 -1.106235,0.97511 -1.804687,1.25781 h -0.002 c -0.690029,0.28154 -1.492465,0.42774 -2.417969,0.42774 -0.898794,0 -1.69935,-0.14783 -2.417969,-0.4375 -0.713129,-0.28971 -1.307864,-0.70155 -1.804687,-1.24805 -0.495171,-0.54469 -0.883295,-1.21947 -1.16211,-2.03711 -0.271354,-0.81407 -0.412109,-1.75895 -0.412109,-2.83984 0,-1.06195 0.140425,-1.9994 0.412109,-2.81446 0.272623,-0.82354 0.664205,-1.51306 1.173828,-2.08398 0.481965,-0.53673 1.07407,-0.94617 1.798828,-1.23633 0.733561,-0.29118 1.532621,-0.43945 2.41211,-0.43945 z m 224.748043,0 c 0.63175,0 1.17694,0.0601 1.63282,0.16992 0.45144,0.10878 0.85094,0.27847 1.20703,0.51172 0.37972,0.25314 0.64867,0.54388 0.83203,0.88086 0.18007,0.33095 0.27734,0.72575 0.27734,1.21094 0,0.63519 -0.20755,1.14829 -0.66601,1.63281 -0.46537,0.49211 -0.98842,0.78608 -1.61328,0.91211 l -0.4004,0.0801 v 0.96093 l 0.41797,0.0684 c 0.23945,0.0399 0.53947,0.13203 0.89063,0.2793 h 0.004 l 0.002,0.002 c 0.33148,0.13366 0.59813,0.29512 0.81054,0.48242 6.1e-4,5.4e-4 10e-4,0.001 0.002,0.002 0.23742,0.21317 0.43835,0.48396 0.60156,0.82617 0.14419,0.30234 0.23242,0.74069 0.23242,1.31641 0,0.55933 -0.0993,1.05452 -0.29492,1.5039 -0.19879,0.45668 -0.47321,0.84619 -0.83203,1.1836 -0.40233,0.37517 -0.87324,0.6524 -1.42969,0.83789 -0.5568,0.18147 -1.17685,0.27539 -1.86523,0.27539 -0.71315,0 -1.41171,-0.0854 -2.10157,-0.25782 h -0.002 l -0.002,-0.002 c -0.5868,-0.14181 -1.01984,-0.29852 -1.41406,-0.45703 v -0.83008 c 0.41559,0.21808 0.81312,0.45059 1.30664,0.60938 0.74182,0.23867 1.46993,0.36132 2.17773,0.36132 0.43837,0 0.89329,-0.0739 1.36328,-0.21289 0.48936,-0.14474 0.91175,-0.36618 1.2461,-0.67773 l 0.002,-0.002 0.004,-0.002 c 0.3228,-0.30877 0.57215,-0.66255 0.73437,-1.05273 0.17518,-0.40622 0.24805,-0.87684 0.24805,-1.41406 0,-0.53886 -0.0864,-1.01682 -0.28907,-1.42383 -0.18531,-0.38956 -0.45908,-0.71883 -0.80664,-0.95117 -0.33868,-0.23212 -0.73827,-0.38211 -1.17968,-0.45899 -10e-4,-2.3e-4 -0.003,2.3e-4 -0.004,0 -0.42213,-0.0789 -0.87039,-0.11914 -1.3457,-0.11914 h -0.32032 v -0.51172 h 0.13672 c 0.9927,0 1.83698,-0.20736 2.49219,-0.66601 h 0.002 c 0.67524,-0.4749 1.04102,-1.23788 1.04102,-2.10352 0,-0.39696 -0.0873,-0.77542 -0.27344,-1.10156 -0.17971,-0.32037 -0.43814,-0.59006 -0.75195,-0.78906 l -0.004,-0.002 -0.004,-0.004 c -0.30896,-0.18682 -0.6452,-0.31862 -0.99805,-0.39063 -0.33821,-0.069 -0.70772,-0.0996 -1.11133,-0.0996 -0.6369,0 -1.30131,0.1125 -1.99219,0.33203 -0.45239,0.14375 -0.86184,0.38832 -1.28125,0.60938 v -0.80664 c 0.36227,-0.15522 0.76705,-0.31187 1.3418,-0.45313 h 0.002 0.002 c 0.68736,-0.17328 1.34322,-0.25976 1.97265,-0.25976 z m -237.425778,0.0371 c 0.68889,0 1.375019,0.0829 2.060547,0.25 0.60019,0.14504 1.301651,0.43371 2.042969,0.78515 v 0.99805 c -0.557467,-0.39532 -1.113352,-0.81127 -1.679687,-1.03125 -0.795046,-0.30882 -1.647662,-0.46094 -2.542969,-0.46094 -0.741206,0 -1.42703,0.12102 -2.046875,0.37305 -0.618316,0.2476 -1.170392,0.63797 -1.646485,1.1543 -0.473703,0.51489 -0.834678,1.15775 -1.089843,1.91015 l -0.002,0.002 c -0.251708,0.75512 -0.371094,1.61077 -0.371094,2.56445 0,0.99858 0.132508,1.87725 0.414062,2.63476 v 0.002 l 0.002,0.002 c 0.279606,0.73478 0.644122,1.35486 1.105469,1.84375 0.473498,0.50055 1.03469,0.87986 1.667969,1.125 l 0.0039,0.002 h 0.002 c 0.627691,0.23372 1.292434,0.35157 1.980469,0.35157 0.926034,0 1.805133,-0.16104 2.625,-0.48243 0.565648,-0.22173 1.067376,-0.61904 1.578125,-0.99023 v 0.97656 c -0.214974,0.0956 -0.435129,0.19356 -0.623047,0.28125 h -0.002 l -0.002,0.002 c -0.235726,0.1125 -0.570533,0.23967 -0.994141,0.375 -0.347358,0.10802 -0.729901,0.19982 -1.148437,0.27539 l -0.0039,0.002 h -0.0039 c -0.393831,0.0777 -0.840497,0.11914 -1.335937,0.11914 -0.937372,0 -1.776039,-0.13146 -2.525391,-0.38477 h -0.002 c -0.733437,-0.25625 -1.361547,-0.64833 -1.904297,-1.18554 -0.525624,-0.52015 -0.943075,-1.18384 -1.25,-2.01367 -0.303577,-0.82641 -0.46289,-1.80312 -0.46289,-2.93555 0,-1.07096 0.152026,-2.01227 0.445312,-2.83008 0.29461,-0.82151 0.712034,-1.49785 1.253906,-2.05078 0.525301,-0.53636 1.154512,-0.94607 1.90625,-1.23242 0.757698,-0.28625 1.604128,-0.43164 2.548828,-0.43164 z m 67.457028,0 c 0.68889,0 1.37502,0.0829 2.06055,0.25 0.60019,0.14504 1.30165,0.43371 2.04297,0.78515 v 0.99805 c -0.55747,-0.39532 -1.11336,-0.81127 -1.67969,-1.03125 -0.79505,-0.30882 -1.64571,-0.46094 -2.54101,-0.46094 -0.74121,0 -1.42899,0.12102 -2.04883,0.37305 -0.61832,0.2476 -1.1704,0.63797 -1.64649,1.1543 -0.4737,0.51489 -0.83467,1.15775 -1.08984,1.91015 v 0.002 h -0.002 c -0.25171,0.75512 -0.3711,1.61077 -0.3711,2.56445 0,0.99858 0.13251,1.87725 0.41407,2.63476 v 0.002 l 0.002,0.002 c 0.27961,0.73478 0.64413,1.35486 1.10547,1.84375 0.4735,0.50055 1.03469,0.87986 1.66797,1.125 l 0.004,0.002 h 0.004 c 0.62769,0.23372 1.29048,0.35157 1.97851,0.35157 0.92603,0 1.80513,-0.16104 2.625,-0.48243 0.56565,-0.22173 1.06738,-0.61904 1.57813,-0.99023 v 0.97656 c -0.21497,0.0956 -0.43513,0.19356 -0.62305,0.28125 h -0.002 l -0.002,0.002 c -0.23573,0.1125 -0.57054,0.23967 -0.99414,0.375 -0.34737,0.10802 -0.72991,0.19982 -1.14844,0.27539 l -0.004,0.002 h -0.004 c -0.39383,0.0777 -0.83855,0.11914 -1.33399,0.11914 -0.93737,0 -1.77798,-0.13146 -2.52734,-0.38477 h -0.002 c -0.73343,-0.25625 -1.36154,-0.64833 -1.90429,-1.18554 -0.52563,-0.52015 -0.94308,-1.18385 -1.25,-2.01367 -0.30358,-0.82641 -0.46094,-1.80312 -0.46094,-2.93555 0,-1.07096 0.15007,-2.01227 0.44336,-2.83008 0.29461,-0.82151 0.71203,-1.49785 1.25391,-2.05078 0.52529,-0.53636 1.15451,-0.94607 1.90625,-1.23242 0.75769,-0.28625 1.60412,-0.43164 2.54882,-0.43164 z m 101.48243,0 c 0.73101,0 1.47875,0.0893 2.24609,0.26953 h 0.002 0.002 c 0.67631,0.15255 1.43061,0.44369 2.21679,0.79883 v 0.94922 c -0.0794,-0.0538 -0.11963,-0.0874 -0.20898,-0.14649 -0.37767,-0.24964 -0.75203,-0.45878 -1.125,-0.62891 v -0.002 h -0.002 c -0.45333,-0.20367 -0.96048,-0.36671 -1.51953,-0.49414 -0.57579,-0.13899 -1.21586,-0.20508 -1.92187,-0.20508 -1.62643,0 -2.99596,0.54736 -3.97852,1.63086 -0.97645,1.07746 -1.45117,2.53788 -1.45117,4.29102 0,1.84374 0.49535,3.35842 1.52149,4.44531 v 0.002 c 1.02241,1.07622 2.44292,1.61328 4.13671,1.61328 0.61633,0 1.22888,-0.0618 1.83789,-0.18359 0.60915,-0.12056 1.15122,-0.27639 1.62696,-0.47461 l 0.30664,-0.1289 V 121.3867 H 228.75 v -0.58594 h 4.42383 v 4.97852 c -0.64268,0.27941 -1.31724,0.53957 -2.07031,0.75781 -0.83543,0.23786 -1.63656,0.35547 -2.40625,0.35547 -1.01132,0 -1.92557,-0.1392 -2.75,-0.41211 -0.81988,-0.27141 -1.50244,-0.67038 -2.06641,-1.20117 -0.56763,-0.53457 -1.00763,-1.20282 -1.32422,-2.02149 -0.31362,-0.81766 -0.47852,-1.79265 -0.47852,-2.92968 0,-2.07217 0.58677,-3.62528 1.74805,-4.7754 1.16685,-1.15569 2.75406,-1.74218 4.8711,-1.74218 z m 47.9707,0 c 0.73102,0 1.47875,0.0893 2.24609,0.26953 h 0.002 0.002 c 0.67631,0.15255 1.43062,0.44369 2.2168,0.79883 v 0.94922 c -0.0794,-0.0538 -0.11963,-0.0874 -0.20899,-0.14649 -0.37766,-0.24964 -0.75203,-0.45878 -1.125,-0.62891 l -0.002,-0.002 c -0.45334,-0.20367 -0.96048,-0.36671 -1.51953,-0.49414 -0.5758,-0.13899 -1.21587,-0.20508 -1.92188,-0.20508 -1.62643,0 -2.99791,0.54736 -3.98047,1.63086 -0.97645,1.07746 -1.45117,2.53788 -1.45117,4.29102 0,1.84374 0.49535,3.35842 1.52149,4.44531 h 0.002 v 0.002 c 1.02241,1.07622 2.44292,1.61328 4.13672,1.61328 0.61632,0 1.22887,-0.0618 1.83789,-0.18359 0.60914,-0.12056 1.14926,-0.27638 1.625,-0.47461 l 0.30859,-0.1289 v -4.16016 h -3.63672 v -0.58594 h 4.42383 v 4.97852 c -0.6422,0.27922 -1.31788,0.53968 -2.07031,0.75781 -0.83542,0.23786 -1.63655,0.35547 -2.40625,0.35547 -1.01132,0 -1.92753,-0.1392 -2.75195,-0.41211 -0.81988,-0.27141 -1.50049,-0.67038 -2.06446,-1.20117 -0.56788,-0.53481 -1.00955,-1.20232 -1.32617,-2.02149 v -0.002 c -0.31323,-0.81733 -0.47656,-1.79144 -0.47656,-2.92773 0,-2.07217 0.58676,-3.62528 1.74804,-4.7754 1.16686,-1.15569 2.75407,-1.74218 4.8711,-1.74218 z m -194.562501,0.24609 h 1.998047 l 5.728515,10.81641 0.941406,-0.23242 v -10.58399 h 0.685547 v 12.57227 h -1.43164 l -6.292969,-11.875 -0.943359,0.23437 v 11.64063 h -0.685547 z m 13.96289,0 h 1.998047 l 5.728514,10.81641 0.94141,-0.23242 v -10.58399 h 0.6875 v 12.57227 h -1.43164 l -6.294924,-11.875 -0.941407,0.23437 v 11.64063 h -0.6875 z m 13.964841,0 h 7.94141 v 0.60352 h -7.13672 v 4.71875 h 7.13672 v 0.60547 h -7.13672 v 6.03906 h 7.13672 v 0.60547 h -7.94141 z m 23.01367,0 h 10.50391 v 0.60352 h -4.84961 v 11.96875 h -0.80469 v -11.96875 h -4.84961 z m 12.75196,0 h 4.35937 v 0.38477 h -1.77734 v 11.80078 h 1.77734 v 0.38672 h -4.35937 v -0.38672 h 1.77734 v -11.80078 h -1.77734 z m 7.05859,0 h 0.86524 l 4.48242,12.57227 h -0.77149 z m 10.08399,0 h 0.77539 l -4.57618,12.57227 h -0.68164 z m 3.47461,0 h 4.35937 v 0.38477 h -1.77734 v 11.80078 h 1.77734 v 0.38672 h -4.35937 v -0.38672 h 1.77734 v -11.80078 h -1.77734 z m 6.60742,0 h 10.5039 v 0.60352 h -4.84961 v 11.96875 h -0.80468 v -11.96875 h -4.84961 z m 11.95117,0 h 0.82226 l 3.98829,6.52539 4.02734,-6.52539 h 0.74023 l -4.37304,6.97656 v 5.59571 H 189.375 v -5.40235 z m 18.58594,0 h 0.8125 l 2.75781,10.90625 0.96875,-0.002 2.71289,-10.9043 h 1.05078 l 2.74024,11.01367 h 0.9707 l 2.74023,-11.01367 h 0.73047 l -3.26758,12.57227 h -1.25586 l -2.75781,-10.88868 -0.9707,0.002 -2.69336,10.88672 h -1.21094 z m 47.9707,0 h 0.8125 l 2.75586,10.90625 0.9707,-0.002 2.71289,-10.9043 h 1.05078 l 2.74024,11.01367 h 0.9707 l 2.74024,-11.01367 h 0.73046 l -3.26757,12.57227 h -1.25586 l -2.75782,-10.88868 -0.9707,0.002 -2.69531,10.88672 h -1.21094 z m -179.085938,0.27539 c -1.495348,0 -2.75997,0.55271 -3.640625,1.62305 -0.87972,1.07066 -1.289062,2.55628 -1.289062,4.39258 0,1.85547 0.420475,3.3483 1.322266,4.41406 v 0.002 c 0.891793,1.04718 2.142095,1.58789 3.607421,1.58789 1.465327,0 2.713718,-0.54165 3.59961,-1.58984 0.901791,-1.06576 1.320312,-2.55859 1.320312,-4.41406 0,-1.83613 -0.413188,-3.32221 -1.298828,-4.39258 -0.879855,-1.06937 -2.136866,-1.62305 -3.621094,-1.62305 z m 0,1 c 1.250153,0 2.149601,0.40703 2.84961,1.25781 v 0.002 h 0.002 c 0.693484,0.83751 1.068359,2.06842 1.068359,3.75586 0,1.7053 -0.381606,2.93944 -1.083984,3.76953 -0.706125,0.83549 -1.603343,1.23437 -2.835938,1.23437 -1.232594,0 -2.133327,-0.39983 -2.845703,-1.23633 -0.701371,-0.83006 -1.083984,-2.06355 -1.083984,-3.76757 0,-1.68802 0.374509,-2.9205 1.0625,-3.75782 0.69921,-0.84981 1.603851,-1.25781 2.867187,-1.25781 z m 211.423828,4.5332 v 2.6504 h 6.6875 v -2.6504 z m 1,1 h 4.6875 v 0.6504 h -4.6875 z"
       id="path104" />
  </g>
</svg>
