<?xml version="1.0" encoding="UTF-8"?>
<svg id="Layer_1" data-name="Layer 1" xmlns="http://www.w3.org/2000/svg" version="1.1" viewBox="0 0 483.647 110.6">
  <defs>
    <style>
      .cls-1 {
        fill: #5f8ed9;
      }

      .cls-1, .cls-2 {
        stroke-width: 0px;
      }

      .cls-2 {
        fill: #2d354a;
      }
    </style>
  </defs>
  <path class="cls-2" d="M138.91,54.738c6.811,0,11.879-3.917,12.434-9.659h-5.227c-.475,3.011-3.405,5.109-7.206,5.109-4.831,0-8.474-3.326-8.474-9.626s3.643-9.663,8.474-9.663c3.721,0,6.653,2.1,7.048,5.149h5.466c-.753-5.743-5.822-9.659-12.514-9.659-7.248,0-13.737,4.746-13.737,14.174s6.371,14.176,13.737,14.176"/>
  <path class="cls-2" d="M163.424,37.788c2.893,0,4.636,1.903,4.834,4.441h-9.826c.515-3.013,2.258-4.441,4.992-4.441M168.455,47.771c-.515,1.903-2.138,2.933-4.635,2.933-3.091,0-5.151-2.061-5.507-5.271h14.73c.04-.396.08-.988.08-1.662,0-4.753-3.007-9.62-9.699-9.62-6.536,0-9.779,4.947-9.779,10.213,0,5.229,3.64,10.374,10.175,10.374,4.911,0,8.63-2.73,9.382-6.968h-4.747Z"/>
  <path class="cls-2" d="M176.495,54.422h4.865v-10.89c0-2.93,1.902-5.07,4.636-5.07,2.496,0,4.161,1.902,4.161,4.635v11.326h4.865v-12.356c0-4.671-2.927-7.915-7.442-7.915-2.853,0-5.111,1.225-6.22,3.401v-3.085h-4.865v19.954Z"/>
  <path class="cls-2" d="M201.164,28.448v6.019h-3.92v4.074h3.92v8.914c0,4.434,2.849,6.966,7.203,6.966h3.207v-4.114h-2.653c-1.822,0-2.89-1.03-2.89-3.051v-8.715h5.543v-4.074h-5.543v-6.019h-4.867Z"/>
  <path class="cls-2" d="M226.979,38.542v-4.074h-2.336c-2.575,0-4.119.988-5.109,3.52v-3.52h-4.865v19.954h4.865v-9.426c0-3.801,1.228-6.454,4.316-6.454h3.129Z"/>
  <path class="cls-2" d="M237.751,37.788c2.893,0,4.636,1.903,4.834,4.441h-9.824c.515-3.013,2.257-4.441,4.99-4.441M242.784,47.771c-.515,1.903-2.139,2.933-4.636,2.933-3.09,0-5.151-2.061-5.507-5.271h14.732c.04-.396.079-.988.079-1.662,0-4.753-3.007-9.62-9.7-9.62-6.534,0-9.777,4.947-9.777,10.213,0,5.229,3.638,10.374,10.174,10.374,4.913,0,8.631-2.73,9.383-6.968h-4.747Z"/>
  <path class="cls-2" d="M261.949,54.422h4.867v-15.88h5.821v-4.074h-5.821v-1.627c0-1.745,1.108-2.814,2.811-2.814h3.01v-4.114h-3.564c-4.315,0-7.123,2.651-7.123,6.691v1.863h-3.92v4.074h3.92v15.88Z"/>
  <path class="cls-2" d="M283.964,50.545c-3.328,0-5.546-2.494-5.546-6.101s2.218-6.101,5.546-6.101c3.288,0,5.507,2.496,5.507,6.101s-2.219,6.101-5.507,6.101M283.964,54.738c6.061,0,10.412-4.351,10.412-10.294s-4.351-10.293-10.412-10.293c-6.101,0-10.452,4.351-10.452,10.293s4.351,10.294,10.452,10.294"/>
  <path class="cls-2" d="M309.979,38.542v-4.074h-2.336c-2.575,0-4.118.988-5.108,3.52v-3.52h-4.867v19.954h4.867v-9.426c0-3.801,1.226-6.454,4.316-6.454h3.128Z"/>
  <polygon class="cls-2" points="321.943 54.422 327.164 54.422 327.164 34.901 339.208 54.422 344.826 54.422 344.826 26.706 339.605 26.706 339.605 46.265 327.601 26.706 321.943 26.706 321.943 54.422"/>
  <path class="cls-2" d="M358.372,37.788c2.893,0,4.636,1.903,4.834,4.441h-9.825c.515-3.013,2.258-4.441,4.991-4.441M363.404,47.771c-.515,1.903-2.139,2.933-4.636,2.933-3.09,0-5.151-2.061-5.507-5.271h14.732c.04-.396.08-.988.08-1.662,0-4.753-3.007-9.62-9.701-9.62-6.534,0-9.777,4.947-9.777,10.213,0,5.229,3.638,10.374,10.174,10.374,4.913,0,8.631-2.73,9.383-6.968h-4.747Z"/>
  <path class="cls-2" d="M373.542,28.448v6.019h-3.922v4.074h3.922v8.914c0,4.434,2.849,6.966,7.202,6.966h3.208v-4.114h-2.653c-1.822,0-2.892-1.03-2.892-3.051v-8.715h5.545v-4.074h-5.545v-6.019h-4.865Z"/>
  <polygon class="cls-2" points="394.608 54.422 415.829 54.422 415.829 49.951 400.626 49.951 415.829 31.176 415.829 26.706 395.4 26.706 395.4 31.176 409.969 31.176 394.608 49.951 394.608 54.422"/>
  <path class="cls-2" d="M426.801,37.788c2.892,0,4.635,1.903,4.832,4.441h-9.824c.514-3.013,2.257-4.441,4.992-4.441M431.832,47.771c-.515,1.903-2.139,2.933-4.636,2.933-3.09,0-5.149-2.061-5.506-5.271h14.73c.04-.396.08-.988.08-1.662,0-4.753-3.007-9.62-9.699-9.62-6.536,0-9.779,4.947-9.779,10.213,0,5.229,3.64,10.374,10.174,10.374,4.913,0,8.631-2.73,9.383-6.968h-4.747Z"/>
  <path class="cls-2" d="M452.181,38.542v-4.074h-2.336c-2.573,0-4.118.988-5.108,3.52v-3.52h-4.867v19.954h4.867v-9.426c0-3.801,1.228-6.454,4.316-6.454h3.128Z"/>
  <path class="cls-2" d="M463.628,50.545c-3.328,0-5.547-2.494-5.547-6.101s2.219-6.101,5.547-6.101c3.288,0,5.506,2.496,5.506,6.101s-2.218,6.101-5.506,6.101M463.628,54.738c6.061,0,10.412-4.351,10.412-10.294s-4.351-10.293-10.412-10.293c-6.101,0-10.452,4.351-10.452,10.293s4.351,10.294,10.452,10.294"/>
  <path class="cls-1" d="M95.063,29.307c-.791-1.177-1.635-2.309-2.525-3.397-.217-.266-.62-.284-.862-.041l-4.957,4.959c-.209.207-.227.537-.043.77.571.726,1.12,1.473,1.639,2.247,4.194,6.239,6.41,13.529,6.41,21.082,0,21.362-17.792,38.647-39.336,37.813-19.639-.761-35.556-16.677-36.317-36.317-.834-21.544,16.45-39.338,37.813-39.338,7.584,0,14.9,2.234,21.154,6.461.743.502,1.459,1.03,2.159,1.579.231.182.561.166.77-.043l4.959-4.959c.243-.243.225-.645-.041-.863-1.059-.862-2.155-1.681-3.295-2.451-7.691-5.195-16.694-7.915-26.019-7.853-26.058.173-46.916,22.295-45.601,48.318,1.185,23.446,20.018,42.315,43.448,43.559,26.018,1.382,48.191-19.412,48.437-45.465.088-9.332-2.612-18.353-7.792-26.059"/>
  <path class="cls-1" d="M56.885,25.361c-16.302,0-29.564,13.263-29.564,29.564s13.263,29.564,29.564,29.564,29.564-13.263,29.564-29.564-13.263-29.564-29.564-29.564M56.885,33.492c4.443,0,8.575,1.358,12.001,3.683l-6.03,6.031c-1.793-.917-3.823-1.437-5.971-1.437-7.255,0-13.157,5.902-13.157,13.157,0,2.148.521,4.176,1.438,5.969l-6.031,6.031c-2.323-3.426-3.683-7.557-3.683-12.001,0-11.819,9.615-21.433,21.433-21.433M51.859,54.925c0-2.772,2.255-5.026,5.026-5.026s5.026,2.254,5.026,5.026-2.255,5.026-5.026,5.026-5.026-2.255-5.026-5.026M56.885,76.359c-4.443,0-8.575-1.358-12.001-3.683l6.031-6.031c1.792.917,3.821,1.438,5.969,1.438,7.255,0,13.157-5.902,13.157-13.157,0-2.149-.521-4.178-1.438-5.971l6.031-6.031c2.323,3.427,3.683,7.558,3.683,12.002,0,11.818-9.615,21.433-21.433,21.433"/>
  <g>
    <path class="cls-2" d="M130.016,84.624v5.112h-1.638v-12.69h4.032c1.452,0,2.538.34,3.258,1.018s1.08,1.604,1.08,2.781c0,1.188-.372,2.114-1.116,2.78s-1.818.999-3.222.999h-2.394ZM134.416,82.626c.438-.42.657-1.014.657-1.781,0-.792-.219-1.396-.657-1.81s-1.155-.621-2.151-.621h-2.25v4.842h2.25c.996,0,1.713-.209,2.151-.63Z"/>
    <path class="cls-2" d="M145.378,80.34c.75.408,1.338.997,1.764,1.765.426.768.639,1.668.639,2.7s-.213,1.929-.639,2.69c-.426.763-1.014,1.348-1.764,1.755-.75.408-1.599.612-2.547.612s-1.797-.204-2.547-.612c-.75-.407-1.341-.992-1.773-1.755-.432-.762-.648-1.658-.648-2.69s.216-1.933.648-2.7,1.023-1.356,1.773-1.765c.75-.407,1.599-.611,2.547-.611s1.797.204,2.547.611ZM141.203,81.565c-.498.264-.9.669-1.206,1.215s-.459,1.222-.459,2.025c0,.792.153,1.461.459,2.007s.708.951,1.206,1.215,1.041.396,1.629.396,1.131-.132,1.629-.396.9-.669,1.206-1.215c.306-.546.459-1.215.459-2.007,0-.804-.153-1.479-.459-2.025-.306-.546-.708-.951-1.206-1.215s-1.041-.396-1.629-.396-1.131.133-1.629.396Z"/>
    <path class="cls-2" d="M163.549,79.855l-2.844,9.882h-1.764l-2.718-8.046-2.736,8.046h-1.782l-2.808-9.882h1.656l2.106,8.315,2.736-8.315h1.71l2.754,8.298,2.124-8.298h1.566Z"/>
    <path class="cls-2" d="M174.151,85.147h-7.902c.036,1.128.357,1.974.963,2.538.606.563,1.347.846,2.223.846.792,0,1.455-.201,1.989-.603.534-.402.861-.939.981-1.611h1.746c-.12.684-.387,1.296-.801,1.836-.414.54-.951.96-1.611,1.26-.66.301-1.404.45-2.232.45-.948,0-1.788-.204-2.52-.612-.732-.407-1.305-.992-1.719-1.755-.414-.762-.621-1.658-.621-2.69s.207-1.933.621-2.7c.414-.768.987-1.356,1.719-1.765.732-.407,1.572-.611,2.52-.611.96,0,1.797.204,2.511.611.713.408,1.26.954,1.638,1.639.378.684.567,1.439.567,2.268,0,.349-.024.648-.072.9ZM172.207,82.519c-.276-.492-.654-.858-1.134-1.099-.48-.239-1.002-.359-1.566-.359-.9,0-1.656.278-2.268.837-.612.558-.942,1.377-.99,2.457h6.318c.036-.732-.084-1.344-.36-1.836Z"/>
    <path class="cls-2" d="M179.479,80.26c.624-.379,1.368-.567,2.232-.567v1.782h-.504c-.924,0-1.68.236-2.268.711-.588.474-.882,1.257-.882,2.349v5.202h-1.638v-9.882h1.638v1.998c.324-.685.798-1.215,1.422-1.593Z"/>
    <path class="cls-2" d="M192.403,85.147h-7.902c.036,1.128.357,1.974.963,2.538.606.563,1.347.846,2.223.846.792,0,1.455-.201,1.989-.603.534-.402.861-.939.981-1.611h1.746c-.12.684-.387,1.296-.801,1.836-.414.54-.951.96-1.611,1.26-.66.301-1.404.45-2.232.45-.948,0-1.788-.204-2.52-.612-.732-.407-1.305-.992-1.719-1.755-.414-.762-.621-1.658-.621-2.69s.207-1.933.621-2.7c.414-.768.987-1.356,1.719-1.765.732-.407,1.572-.611,2.52-.611.96,0,1.797.204,2.511.611.713.408,1.26.954,1.638,1.639.378.684.567,1.439.567,2.268,0,.349-.024.648-.072.9ZM190.459,82.519c-.276-.492-.654-.858-1.134-1.099-.48-.239-1.002-.359-1.566-.359-.9,0-1.656.278-2.268.837-.612.558-.942,1.377-.99,2.457h6.318c.036-.732-.084-1.344-.36-1.836Z"/>
    <path class="cls-2" d="M201.16,80.448c.666.48,1.131,1.122,1.395,1.926v-5.958h1.638v13.32h-1.638v-2.52c-.264.804-.729,1.445-1.395,1.926-.666.479-1.479.72-2.439.72-.876,0-1.656-.204-2.34-.612-.684-.407-1.221-.992-1.611-1.755-.39-.762-.585-1.658-.585-2.69s.195-1.933.585-2.7c.39-.768.927-1.356,1.611-1.765.684-.407,1.464-.611,2.34-.611.96,0,1.773.24,2.439.72ZM196.767,82.15c-.606.642-.909,1.527-.909,2.655s.303,2.013.909,2.654c.605.643,1.413.963,2.421.963.648,0,1.227-.149,1.737-.449s.909-.723,1.197-1.27c.288-.546.432-1.179.432-1.898s-.144-1.356-.432-1.908-.687-.975-1.197-1.27c-.51-.294-1.089-.44-1.737-.44-1.008,0-1.815.321-2.421.963Z"/>
    <path class="cls-2" d="M219.15,80.34c.684.408,1.221.997,1.611,1.765.39.768.585,1.668.585,2.7s-.195,1.929-.585,2.69c-.39.763-.927,1.348-1.611,1.755-.684.408-1.464.612-2.34.612-.96,0-1.773-.243-2.439-.729-.666-.486-1.125-1.125-1.377-1.917v2.52h-1.638v-13.32h1.638v5.958c.252-.792.711-1.431,1.377-1.917.666-.485,1.479-.729,2.439-.729.876,0,1.656.204,2.34.611ZM214.614,81.627c-.516.295-.918.718-1.206,1.27-.288.552-.432,1.188-.432,1.908s.144,1.353.432,1.898c.288.547.689.97,1.206,1.27s1.092.449,1.728.449c1.02,0,1.833-.32,2.439-.963.606-.642.909-1.526.909-2.654s-.303-2.014-.909-2.655-1.419-.963-2.439-.963c-.636,0-1.212.146-1.728.44Z"/>
    <path class="cls-2" d="M224.226,79.855l3.204,7.775,2.97-7.775h1.818l-5.868,14.562h-1.854l2.052-4.842-4.158-9.72h1.836Z"/>
    <path class="cls-2" d="M246.807,77.677c.966.552,1.729,1.322,2.286,2.312s.837,2.109.837,3.357-.279,2.37-.837,3.365c-.558.997-1.32,1.771-2.286,2.322s-2.043.828-3.23.828-2.266-.276-3.231-.828-1.728-1.325-2.286-2.322c-.558-.995-.837-2.117-.837-3.365s.279-2.367.837-3.357c.558-.99,1.32-1.761,2.286-2.312s2.043-.828,3.231-.828,2.265.276,3.23.828ZM241.614,79.693c-.564.336-1.005.819-1.323,1.449-.318.63-.477,1.365-.477,2.205s.159,1.574.477,2.205c.317.63.759,1.112,1.323,1.448s1.218.504,1.962.504,1.397-.168,1.962-.504c.563-.336,1.005-.818,1.322-1.448.318-.631.478-1.365.478-2.205s-.159-1.575-.478-2.205c-.317-.63-.759-1.113-1.322-1.449-.564-.336-1.219-.504-1.962-.504s-1.398.168-1.962.504Z"/>
    <path class="cls-2" d="M259.587,80.683c.858.696,1.396,1.644,1.611,2.844h-2.682c-.108-.528-.354-.945-.738-1.251s-.87-.459-1.458-.459c-.672,0-1.233.249-1.683.747-.45.498-.676,1.227-.676,2.187s.226,1.689.676,2.188c.449.498,1.011.747,1.683.747.588,0,1.074-.153,1.458-.459.384-.307.63-.723.738-1.251h2.682c-.216,1.2-.753,2.147-1.611,2.844-.857.696-1.929,1.044-3.213,1.044-.972,0-1.836-.207-2.592-.621s-1.344-1.005-1.764-1.772c-.421-.769-.63-1.675-.63-2.719s.209-1.953.63-2.727c.42-.774,1.008-1.365,1.764-1.773.756-.407,1.62-.611,2.592-.611,1.284,0,2.355.348,3.213,1.044Z"/>
    <path class="cls-2" d="M268.38,87.559v2.178h-1.332c-1.116,0-1.972-.27-2.565-.81s-.891-1.44-.891-2.7v-4.32h-1.387v-2.142h1.387v-2.467h2.538v2.467h2.231v2.142h-2.231v4.356c0,.479.096.815.287,1.008.192.192.517.288.973.288h.99Z"/>
    <path class="cls-2" d="M277.478,80.25c.774.408,1.383.999,1.827,1.773.443.773.666,1.683.666,2.727s-.223,1.95-.666,2.719c-.444.768-1.053,1.358-1.827,1.772-.773.414-1.646.621-2.619.621s-1.845-.207-2.619-.621c-.773-.414-1.383-1.005-1.826-1.772-.444-.769-.666-1.675-.666-2.719s.222-1.953.666-2.727c.443-.774,1.053-1.365,1.826-1.773.774-.407,1.647-.611,2.619-.611s1.846.204,2.619.611ZM273.059,82.581c-.492.498-.738,1.222-.738,2.169s.246,1.672.738,2.169c.492.498,1.092.747,1.8.747s1.308-.249,1.8-.747c.492-.497.738-1.221.738-2.169s-.246-1.671-.738-2.169c-.492-.497-1.092-.747-1.8-.747s-1.308.25-1.8.747Z"/>
    <path class="cls-2" d="M290.052,80.25c.672.408,1.197.999,1.575,1.773.378.773.566,1.683.566,2.727s-.188,1.953-.566,2.728c-.378.773-.903,1.365-1.575,1.772-.672.408-1.428.612-2.268.612s-1.558-.201-2.151-.603c-.594-.402-1.017-.939-1.269-1.611v6.84h-2.538v-14.724h2.538v2.069c.252-.672.675-1.206,1.269-1.602.594-.396,1.311-.594,2.151-.594s1.596.204,2.268.611ZM285.093,82.636c-.498.521-.747,1.227-.747,2.114,0,.876.249,1.575.747,2.098.498.521,1.131.782,1.899.782.792,0,1.428-.254,1.907-.765.48-.51.721-1.215.721-2.115s-.24-1.607-.721-2.124c-.479-.516-1.115-.773-1.907-.773-.769,0-1.401.261-1.899.783Z"/>
    <path class="cls-2" d="M303.588,79.765v9.972h-2.538v-2.016c-.265.672-.699,1.196-1.306,1.574-.605.378-1.305.567-2.097.567-1.152,0-2.07-.378-2.754-1.134s-1.026-1.812-1.026-3.168v-5.796h2.521v5.508c0,.792.204,1.407.611,1.845.408.438.96.657,1.656.657.732,0,1.314-.234,1.746-.702.433-.468.648-1.14.648-2.016v-5.292h2.538Z"/>
    <path class="cls-2" d="M312.299,80.557c.732.611,1.188,1.428,1.368,2.447h-2.376c-.097-.479-.312-.863-.648-1.151s-.773-.433-1.313-.433c-.433,0-.769.103-1.008.307-.24.204-.36.479-.36.828,0,.275.096.498.288.666.191.168.432.3.72.396.288.097.702.21,1.242.342.756.169,1.371.346,1.845.531.475.187.882.48,1.225.882.342.402.513.945.513,1.629,0,.853-.333,1.542-.999,2.07s-1.563.792-2.691.792c-1.296,0-2.334-.291-3.113-.873-.78-.582-1.254-1.413-1.422-2.493h2.43c.06.492.275.88.647,1.161.372.282.858.423,1.458.423.433,0,.763-.104.99-.314s.342-.483.342-.819c0-.288-.099-.521-.297-.702-.197-.18-.443-.317-.737-.414-.295-.096-.711-.21-1.251-.342-.745-.168-1.348-.339-1.81-.513s-.858-.453-1.188-.837c-.33-.384-.495-.912-.495-1.584,0-.864.33-1.566.989-2.106.66-.54,1.572-.81,2.736-.81,1.212,0,2.184.306,2.916.918Z"/>
    <path class="cls-2" d="M322.253,79.044v3.294h4.5v1.944h-4.5v3.42h5.04v2.034h-7.578v-12.708h7.578v2.016h-5.04Z"/>
    <path class="cls-2" d="M337.912,80.754c.685.757,1.026,1.818,1.026,3.187v5.796h-2.521v-5.508c0-.792-.204-1.407-.611-1.845-.408-.438-.967-.657-1.674-.657-.721,0-1.297.233-1.729.702-.432.468-.647,1.14-.647,2.016v5.292h-2.538v-9.972h2.538v1.998c.264-.672.698-1.197,1.305-1.575.605-.378,1.305-.567,2.097-.567,1.152,0,2.07.378,2.754,1.134Z"/>
    <path class="cls-2" d="M350.513,85.236h-7.309c.036.889.276,1.542.72,1.962.444.42.996.63,1.656.63.588,0,1.077-.144,1.467-.432.391-.288.64-.678.747-1.17h2.683c-.133.696-.414,1.32-.847,1.872-.432.552-.986.983-1.665,1.296-.678.312-1.431.468-2.259.468-.972,0-1.836-.207-2.592-.621s-1.344-1.005-1.764-1.772c-.421-.769-.63-1.675-.63-2.719s.209-1.953.63-2.727c.42-.774,1.008-1.365,1.764-1.773.756-.407,1.62-.611,2.592-.611.984,0,1.845.204,2.583.611.738.408,1.308.97,1.71,1.684s.604,1.527.604,2.438c0,.252-.03.54-.09.864ZM347.407,82.267c-.462-.42-1.029-.63-1.701-.63-.684,0-1.26.21-1.728.63s-.727,1.038-.774,1.854h4.842c.036-.815-.177-1.434-.639-1.854Z"/>
    <path class="cls-2" d="M356.47,80.169c.612-.365,1.296-.549,2.052-.549v2.718h-.737c-1.86,0-2.79.864-2.79,2.593v4.806h-2.538v-9.972h2.538v1.907c.371-.636.863-1.137,1.476-1.503Z"/>
    <path class="cls-2" d="M366.046,80.233c.601.396,1.026.93,1.278,1.602v-2.069h2.52v10.008c0,.924-.183,1.755-.549,2.493-.366.737-.912,1.316-1.638,1.736-.727.42-1.605.631-2.637.631-1.44,0-2.604-.343-3.492-1.026-.889-.685-1.429-1.614-1.62-2.79h2.502c.144.504.423.896.837,1.179s.945.423,1.593.423c.744,0,1.344-.219,1.8-.656.456-.438.685-1.102.685-1.989v-2.124c-.252.672-.678,1.209-1.278,1.611-.6.401-1.32.603-2.16.603s-1.596-.204-2.268-.612c-.672-.407-1.197-.999-1.575-1.772-.378-.774-.566-1.684-.566-2.728s.188-1.953.566-2.727c.378-.774.903-1.365,1.575-1.773.672-.407,1.428-.611,2.268-.611s1.561.197,2.16.594ZM362.77,82.626c-.48.517-.721,1.225-.721,2.124s.24,1.605.721,2.115c.479.511,1.115.765,1.907.765.769,0,1.401-.261,1.899-.782.498-.522.747-1.222.747-2.098,0-.888-.249-1.593-.747-2.114-.498-.522-1.131-.783-1.899-.783-.792,0-1.428.258-1.907.773Z"/>
    <path class="cls-2" d="M373.912,79.765l2.718,6.768,2.52-6.768h2.79l-6.102,14.724h-2.808l2.25-5.04-4.194-9.684h2.826Z"/>
    <path class="cls-2" d="M396.897,78.045c1.021.763,1.675,1.791,1.962,3.088h-2.663c-.253-.576-.651-1.035-1.197-1.378-.547-.342-1.191-.513-1.936-.513-.731,0-1.38.168-1.943.504-.564.336-1.002.816-1.314,1.44s-.468,1.356-.468,2.196c0,1.331.356,2.369,1.071,3.113.714.744,1.688,1.116,2.925,1.116.912,0,1.694-.27,2.349-.81s1.077-1.29,1.27-2.25h-4.303v-1.818h6.427v2.448c-.181.84-.531,1.614-1.054,2.321-.521.709-1.206,1.275-2.052,1.701-.846.427-1.815.64-2.907.64-1.248,0-2.349-.273-3.303-.819s-1.692-1.308-2.214-2.286c-.522-.978-.783-2.097-.783-3.356s.261-2.379.783-3.357c.521-.978,1.257-1.743,2.205-2.295.947-.552,2.046-.828,3.294-.828,1.548,0,2.832.381,3.852,1.143Z"/>
    <path class="cls-2" d="M405.052,80.169c.612-.365,1.296-.549,2.052-.549v2.718h-.737c-1.86,0-2.79.864-2.79,2.593v4.806h-2.538v-9.972h2.538v1.907c.371-.636.863-1.137,1.476-1.503Z"/>
    <path class="cls-2" d="M415.788,80.25c.774.408,1.383.999,1.827,1.773.443.773.666,1.683.666,2.727s-.223,1.95-.666,2.719c-.444.768-1.053,1.358-1.827,1.772-.773.414-1.646.621-2.619.621s-1.845-.207-2.619-.621c-.773-.414-1.383-1.005-1.826-1.772-.444-.769-.666-1.675-.666-2.719s.222-1.953.666-2.727c.443-.774,1.053-1.365,1.826-1.773.774-.407,1.647-.611,2.619-.611s1.846.204,2.619.611ZM411.369,82.581c-.492.498-.738,1.222-.738,2.169s.246,1.672.738,2.169c.492.498,1.092.747,1.8.747s1.308-.249,1.8-.747c.492-.497.738-1.221.738-2.169s-.246-1.671-.738-2.169c-.492-.497-1.092-.747-1.8-.747s-1.308.25-1.8.747Z"/>
    <path class="cls-2" d="M429.676,79.765v9.972h-2.538v-2.016c-.265.672-.699,1.196-1.306,1.574-.605.378-1.305.567-2.097.567-1.152,0-2.07-.378-2.754-1.134s-1.026-1.812-1.026-3.168v-5.796h2.521v5.508c0,.792.204,1.407.611,1.845.408.438.96.657,1.656.657.732,0,1.314-.234,1.746-.702.433-.468.648-1.14.648-2.016v-5.292h2.538Z"/>
    <path class="cls-2" d="M440.259,80.25c.672.408,1.197.999,1.575,1.773.378.773.566,1.683.566,2.727s-.188,1.953-.566,2.728c-.378.773-.903,1.365-1.575,1.772-.672.408-1.428.612-2.268.612s-1.558-.201-2.151-.603c-.594-.402-1.017-.939-1.269-1.611v6.84h-2.538v-14.724h2.538v2.069c.252-.672.675-1.206,1.269-1.602.594-.396,1.311-.594,2.151-.594s1.596.204,2.268.611ZM435.3,82.636c-.498.521-.747,1.227-.747,2.114,0,.876.249,1.575.747,2.098.498.521,1.131.782,1.899.782.792,0,1.428-.254,1.907-.765.48-.51.721-1.215.721-2.115s-.24-1.607-.721-2.124c-.479-.516-1.115-.773-1.907-.773-.769,0-1.401.261-1.899.783Z"/>
  </g>
</svg>