<?xml version="1.0" encoding="utf-8"?>
<!-- Generator: Adobe Illustrator 24.3.0, SVG Export Plug-In . SVG Version: 6.00 Build 0)  -->
<svg version="1.1" id="Layer_1" xmlns="http://www.w3.org/2000/svg" xmlns:xlink="http://www.w3.org/1999/xlink" x="0px" y="0px"
	 viewBox="0 0 288 266.42" style="enable-background:new 0 0 288 266.42;" xml:space="preserve">
<g>
	<path d="M106.13,122.29c1.39-1.42,3.16-2.13,5.31-2.13c2.88,0,4.98,0.95,6.31,2.86c0.73,1.07,1.13,2.14,1.18,3.22h-3.61
		c-0.23-0.83-0.52-1.45-0.88-1.88c-0.64-0.75-1.6-1.12-2.86-1.12c-1.29,0-2.3,0.53-3.04,1.59c-0.74,1.06-1.11,2.56-1.11,4.49
		s0.39,3.39,1.17,4.35c0.78,0.96,1.78,1.45,2.99,1.45c1.24,0,2.18-0.41,2.83-1.24c0.36-0.45,0.66-1.11,0.89-2h3.59
		c-0.31,1.88-1.1,3.41-2.37,4.59s-2.9,1.77-4.89,1.77c-2.46,0-4.39-0.8-5.8-2.39c-1.41-1.6-2.11-3.8-2.11-6.59
		C103.73,126.25,104.53,123.92,106.13,122.29z"/>
	<path d="M134.59,123.54h-9.14v3.67h8.39v3h-8.39v4.44h9.56v3.11h-13.09v-17.27h12.67V123.54z"/>
	<path d="M148.89,120.93c0.64,0.27,1.17,0.68,1.62,1.21c0.37,0.44,0.66,0.92,0.87,1.45s0.32,1.14,0.32,1.82
		c0,0.82-0.21,1.63-0.62,2.42s-1.1,1.35-2.05,1.68c0.8,0.32,1.36,0.78,1.69,1.37s0.5,1.49,0.5,2.7v1.16c0,0.79,0.03,1.32,0.1,1.61
		c0.09,0.45,0.32,0.77,0.67,0.98v0.43H148c-0.11-0.38-0.19-0.69-0.23-0.93c-0.09-0.48-0.14-0.98-0.15-1.49l-0.02-1.61
		c-0.01-1.1-0.21-1.84-0.57-2.2c-0.37-0.37-1.05-0.55-2.06-0.55h-3.53v6.77h-3.53v-17.27h8.26
		C147.35,120.51,148.26,120.66,148.89,120.93z M141.43,123.49v4.64h3.88c0.77,0,1.35-0.09,1.74-0.28c0.68-0.33,1.02-0.98,1.02-1.95
		c0-1.05-0.33-1.75-0.99-2.11c-0.37-0.2-0.93-0.3-1.67-0.3H141.43z"/>
	<path d="M167.93,123.54h-9.14v3.67h8.39v3h-8.39v4.44h9.56v3.11h-13.09v-17.27h12.67V123.54z"/>
	<path d="M173.77,132.43c0.11,0.79,0.33,1.38,0.66,1.77c0.6,0.71,1.62,1.07,3.08,1.07c0.87,0,1.58-0.09,2.12-0.28
		c1.03-0.36,1.54-1.03,1.54-2c0-0.57-0.25-1.01-0.76-1.32c-0.5-0.3-1.3-0.57-2.4-0.81l-1.87-0.41c-1.84-0.41-3.1-0.85-3.79-1.32
		c-1.16-0.8-1.75-2.04-1.75-3.74c0-1.55,0.57-2.83,1.71-3.86s2.81-1.54,5.02-1.54c1.84,0,3.41,0.48,4.71,1.45
		c1.3,0.96,1.98,2.37,2.05,4.2h-3.47c-0.06-1.04-0.53-1.78-1.39-2.21c-0.58-0.29-1.29-0.43-2.15-0.43c-0.95,0-1.71,0.19-2.28,0.56
		c-0.57,0.38-0.85,0.9-0.85,1.57c0,0.62,0.28,1.08,0.84,1.38c0.36,0.2,1.12,0.44,2.29,0.71l3.03,0.71c1.33,0.31,2.32,0.73,2.99,1.25
		c1.03,0.81,1.54,1.99,1.54,3.53c0,1.58-0.61,2.89-1.83,3.93s-2.94,1.56-5.17,1.56c-2.27,0-4.06-0.51-5.37-1.54
		s-1.95-2.44-1.95-4.24H173.77z"/>
</g>
</svg>
