<svg id="Layer_1" data-name="Layer 1" xmlns="http://www.w3.org/2000/svg" xmlns:xlink="http://www.w3.org/1999/xlink" viewBox="0 0 432 205.62"><defs><style>.cls-1{fill:#1961ae;}.cls-2{fill:url(#New_Gradient_Swatch_3);}</style><linearGradient id="New_Gradient_Swatch_3" x1="208.89" y1="253.92" x2="367.11" y2="253.92" gradientUnits="userSpaceOnUse"><stop offset="0" stop-color="#1961ae"/><stop offset="1" stop-color="#00c8ff"/></linearGradient></defs><path class="cls-1" d="M72,370.17v-.11c0-11.41,8.6-20.76,20.93-20.76,7.56,0,12.09,2.52,15.82,6.19L103.13,362c-3.09-2.81-6.25-4.53-10.26-4.53-6.77,0-11.64,5.62-11.64,12.5v.12c0,6.88,4.76,12.61,11.64,12.61,4.59,0,7.39-1.84,10.55-4.7l5.62,5.67c-4.13,4.42-8.72,7.17-16.46,7.17A20.26,20.26,0,0,1,72,370.17Z" transform="translate(-72 -185.19)"/><path class="cls-1" d="M120,350h8.83V382.1h20v8H120Z" transform="translate(-72 -185.19)"/><path class="cls-1" d="M160,350H190.3v7.85H168.8V366h18.92v7.85H168.8v8.43h21.79v7.85H160Z" transform="translate(-72 -185.19)"/><path class="cls-1" d="M217.4,349.7h8.14l17.2,40.42h-9.23l-3.67-9h-17l-3.67,9h-9Zm9.29,23.62-5.34-13-5.33,13Z" transform="translate(-72 -185.19)"/><path class="cls-1" d="M252.44,350h18.35c5.1,0,9.06,1.43,11.69,4.07a12.59,12.59,0,0,1,3.44,9.17v.12c0,6.48-3.49,10.55-8.6,12.44l9.81,14.33H276.81l-8.6-12.84h-6.94v12.84h-8.83Zm17.77,19.49c4.3,0,6.77-2.29,6.77-5.67v-.12c0-3.78-2.64-5.73-6.94-5.73h-8.77v11.52Z" transform="translate(-72 -185.19)"/><path class="cls-1" d="M308.86,354.17H295.39V350h31.53v4.18H313.45v35.95h-4.59Z" transform="translate(-72 -185.19)"/><path class="cls-1" d="M339,350h17.26c4.93,0,8.89,1.49,11.41,4a11.08,11.08,0,0,1,3.09,7.91V362c0,6.65-4.58,10.55-10.89,11.7l12.33,16.39H366.6L355,374.53H343.49v15.59H339Zm16.86,20.47c6,0,10.32-3.1,10.32-8.26v-.11c0-4.93-3.79-7.92-10.27-7.92H343.49v16.29Z" transform="translate(-72 -185.19)"/><path class="cls-1" d="M398.34,349.7h4.24l18.29,40.42H416l-4.7-10.6H389.46l-4.76,10.6h-4.65Zm11.18,25.75L400.41,355l-9.18,20.47Z" transform="translate(-72 -185.19)"/><path class="cls-1" d="M426,370.17v-.11c0-11.36,8.49-20.76,20.3-20.76,7.28,0,11.64,2.58,15.65,6.37L458.81,359c-3.39-3.21-7.17-5.5-12.62-5.5-8.88,0-15.53,7.22-15.53,16.45v.12c0,9.28,6.7,16.57,15.53,16.57,5.51,0,9.12-2.13,13-5.8l3,2.93c-4.18,4.24-8.77,7.05-16.05,7.05C434.5,390.81,426,381.69,426,370.17Z" transform="translate(-72 -185.19)"/><path class="cls-1" d="M474.7,350h29v4.13H479.23v13.7h21.9V372h-21.9v14H504v4.13H474.7Z" transform="translate(-72 -185.19)"/><path class="cls-1" d="M72,370.17v-.11c0-11.41,8.6-20.76,20.93-20.76,7.56,0,12.09,2.52,15.82,6.19L103.13,362c-3.09-2.81-6.25-4.53-10.26-4.53-6.77,0-11.64,5.62-11.64,12.5v.12c0,6.88,4.76,12.61,11.64,12.61,4.59,0,7.39-1.84,10.55-4.7l5.62,5.67c-4.13,4.42-8.72,7.17-16.46,7.17A20.26,20.26,0,0,1,72,370.17Z" transform="translate(-72 -185.19)"/><path class="cls-1" d="M120,350h8.83V382.1h20v8H120Z" transform="translate(-72 -185.19)"/><path class="cls-1" d="M160,350H190.3v7.85H168.8V366h18.92v7.85H168.8v8.43h21.79v7.85H160Z" transform="translate(-72 -185.19)"/><path class="cls-1" d="M217.4,349.7h8.14l17.2,40.42h-9.23l-3.67-9h-17l-3.67,9h-9Zm9.29,23.62-5.34-13-5.33,13Z" transform="translate(-72 -185.19)"/><path class="cls-1" d="M252.44,350h18.35c5.1,0,9.06,1.43,11.69,4.07a12.59,12.59,0,0,1,3.44,9.17v.12c0,6.48-3.49,10.55-8.6,12.44l9.81,14.33H276.81l-8.6-12.84h-6.94v12.84h-8.83Zm17.77,19.49c4.3,0,6.77-2.29,6.77-5.67v-.12c0-3.78-2.64-5.73-6.94-5.73h-8.77v11.52Z" transform="translate(-72 -185.19)"/><path class="cls-1" d="M308.86,354.17H295.39V350h31.53v4.18H313.45v35.95h-4.59Z" transform="translate(-72 -185.19)"/><path class="cls-1" d="M339,350h17.26c4.93,0,8.89,1.49,11.41,4a11.08,11.08,0,0,1,3.09,7.91V362c0,6.65-4.58,10.55-10.89,11.7l12.33,16.39H366.6L355,374.53H343.49v15.59H339Zm16.86,20.47c6,0,10.32-3.1,10.32-8.26v-.11c0-4.93-3.79-7.92-10.27-7.92H343.49v16.29Z" transform="translate(-72 -185.19)"/><path class="cls-1" d="M398.34,349.7h4.24l18.29,40.42H416l-4.7-10.6H389.46l-4.76,10.6h-4.65Zm11.18,25.75L400.41,355l-9.18,20.47Z" transform="translate(-72 -185.19)"/><path class="cls-1" d="M426,370.17v-.11c0-11.36,8.49-20.76,20.3-20.76,7.28,0,11.64,2.58,15.65,6.37L458.81,359c-3.39-3.21-7.17-5.5-12.62-5.5-8.88,0-15.53,7.22-15.53,16.45v.12c0,9.28,6.7,16.57,15.53,16.57,5.51,0,9.12-2.13,13-5.8l3,2.93c-4.18,4.24-8.77,7.05-16.05,7.05C434.5,390.81,426,381.69,426,370.17Z" transform="translate(-72 -185.19)"/><path class="cls-1" d="M474.7,350h29v4.13H479.23v13.7h21.9V372h-21.9v14H504v4.13H474.7Z" transform="translate(-72 -185.19)"/><path class="cls-2" d="M257.48,242.23a19.24,19.24,0,0,0,16.66,9.62h91.94a1,1,0,0,0,1-1V244.6a1,1,0,0,0-1-1H292.45A19.25,19.25,0,0,1,275.78,234L260.57,207.6a49,49,0,0,1,17-3.09A49.45,49.45,0,0,1,322.81,234a2.11,2.11,0,0,0,1.92,1.27h17.64a1,1,0,0,0,1-1.34,68.72,68.72,0,1,0,0,40,1,1,0,0,0-1-1.34H324.71a2.11,2.11,0,0,0-1.92,1.27A49.43,49.43,0,0,1,273,303.11a48.08,48.08,0,0,1-12.45-2.83l15.24-26.39a19.24,19.24,0,0,1,16.67-9.63h73.63a1,1,0,0,0,1-1V257a1,1,0,0,0-1-1H274.14a19.22,19.22,0,0,0-16.66,9.62l-13.88,24a49.15,49.15,0,0,1,0-71.47Z" transform="translate(-72 -185.19)"/></svg>