<?xml version="1.0" encoding="UTF-8" standalone="no"?>
<svg
   width="366.91397pt"
   height="174.57724pt"
   viewBox="0 0 1989.0599 943.66076"
   version="1.1"
   id="svg184"
   sodipodi:docname="Climate Data Dashboard of the ESA Climate Change Initiative.svg"
   inkscape:version="1.2.2 (b0a84865, 2022-12-01)"
   xmlns:inkscape="http://www.inkscape.org/namespaces/inkscape"
   xmlns:sodipodi="http://sodipodi.sourceforge.net/DTD/sodipodi-0.dtd"
   xmlns="http://www.w3.org/2000/svg"
   xmlns:svg="http://www.w3.org/2000/svg">
  <defs
     id="defs188" />
  <sodipodi:namedview
     id="namedview186"
     pagecolor="#ffffff"
     bordercolor="#666666"
     borderopacity="1.0"
     inkscape:showpageshadow="2"
     inkscape:pageopacity="0.0"
     inkscape:pagecheckerboard="0"
     inkscape:deskcolor="#d1d1d1"
     inkscape:document-units="pt"
     showgrid="false"
     inkscape:zoom="0.97035431"
     inkscape:cx="115.42176"
     inkscape:cy="121.08979"
     inkscape:window-width="1443"
     inkscape:window-height="877"
     inkscape:window-x="102"
     inkscape:window-y="109"
     inkscape:window-maximized="0"
     inkscape:current-layer="svg184" />
  <path
     fill="#003247"
     d="m 173.77864,48.417159 c 57.92,-34.44 125.82,-51.9299999 193.19,-49.31999988 54.86,1.94999998 109.24,16.82999988 157.44,43.10999988 64.74,35.12 117.72,91.190001 149.49,157.610001 19.42,40.27 31.11,84.25 34.17,128.86 1.39,22.29 1.44,44.93 -3.57,66.81 -7.45,35.06 -27.6,67.95 -57.75,87.88 -31.52,21.45 -71.33,27.86 -108.7,23.2 -32.95,-3.95 -65.66,-17.7 -88.3,-42.51 -13.66,-14.79 -23.16,-33.14 -28.41,-52.51 -9.94,-36.87 -7.55,-76.93 6.37,-112.47 7.21,-17.71 17.46,-35.11 33.34,-46.35 27.4,-18.08 65.48,-18.35 93.01,-0.37 16.29,10.57 29.7,26.34 35.41,45.1 2.36,7.97 3.68,16.39 2.79,24.7 h -143.71 c -0.01,23.58 -0.01,47.16 0,70.74 82.47,-0.01 164.94,0.05 247.41,-0.03 1.43,-39.69 -5.13,-79.89 -20.23,-116.7 -14.25,-34.77 -37.88,-66.02 -69.08,-87.26 -27.96,-19.36 -61.79,-29.92 -95.78,-30.35 -43.92,-0.72 -87.83,14.46 -122.18,41.8 -21.21,16.81 -38.68,38.46 -50.01,63.08 -27.24,61.57 -27.1,135.26 2.49,195.99 15.78,32.81 40.3,61.16 69.79,82.4 18.35,13.31 38.54,23.99 59.6,32.31 18.66,7.44 38.11,13.01 58.02,15.79 32.13,4.7 65.18,1.85 96.26,-7.38 -51.21,60.65 -123.42,103.1 -201.3,118.44 -85.09,17.16 -176.24,1.38 -250.69,-43.22 -62.13,-36.8 -112.190005,-93.32 -141.680005,-159.19 -21.04,-46.6 -31.79999973,-97.82 -31.13999973,-148.95 0.45,-46.98 10.49999973,-93.81 29.04999973,-136.96 29.2,-68.26 80.770005,-126.560001 144.700005,-164.250001 m -13.24,269.940001 c -14.16,3.4 -25.95,15.08 -29.42,29.23 -4.47,16.32 3.01,34.85 17.33,43.76 10.05,6.61 23.18,8.17 34.54,4.28 8.03,-2.71 15.2,-7.99 20.03,-14.97 6.79,-9.45 9.16,-21.95 6.16,-33.21 -2.97,-11.64 -11.46,-21.71 -22.4,-26.65 -8.15,-3.72 -17.55,-4.67 -26.24,-2.44 z m 793.45,-155.72 c 51.67996,-11.03 108.39996,0.04 150.59996,32.34 15.98,12.03 28.89,27.66 39.5,44.52 19.7,31.58 33.06,67.17 38.68,103.98 2.42,16.43 3.26,33.14 1.7,49.69 -81.89,-0.03 -163.79,0.01 -245.67996,-0.02 0,-23.75 -0.01,-47.49 0,-71.24 47.33,-0.01 94.66996,0.01 141.99996,-0.01 1.33,-29.22 -16.01,-57.59 -41.16,-71.87 -22.14,-12.8 -49.83996,-13.81 -73.73996,-5.55 -18.34,6.36 -33.65,20.1 -42.97,37.01 -13.09,23.41 -16.71,50.83 -16.52,77.28 0.22,17.9 1.58,35.92 6,53.32 3.81,14.86 10.11,29.3 19.91,41.21 6.56,7.89 14.41,14.74 23.32,19.88 15.05,8.71 32.12,14.26 49.56996,14.83 21.92,0.78 44.23,-7.86 59.29,-23.94 9.65,-10.1 16.2,-22.91 19.58,-36.41 33.5,-0.01 67.01,0 100.52,0 -1.72,17.48 -8.82,33.89 -17.12,49.18 -9.21,16.53 -20.39,32.05 -33.85,45.39 -12.61,12.38 -27.99,21.55 -43.84,29.17 -43.78,20.49 -95.32996,24.81 -141.52996,10.1 -19.25,-6.38 -37.76,-15.16 -54.55,-26.56 -23.9,-16 -43.99,-37.61 -58.3,-62.56 -17.07,-29.65 -26.13,-63.55 -27.99,-97.62 -1.3,-22.59 0.74,-45.41 6.5,-67.32 9.63,-36.88 27.32,-72.35 54.58,-99.37 23.12,-23.27 53.43,-38.92 85.5,-45.43 z m 761.06996,6.09 c 20.6,-6.82 42.33,-9.68 63.97,-10.32 23.98,-0.02 48.16,-0.48 71.86,3.8 17.29,3.19 33.94,9.63 49.08,18.53 23.13,14.11 41.53,36.76 48.64,63.08 4.26,20.28 5.91,41.01 7.36,61.65 1.94,27.05 1.17,54.17 1.32,81.26 -0.1,31.64 0.25,63.3 -0.26,94.93 0.52,25.48 1.47,52.05 12.68,75.47 -31.67,0.08 -63.34,0.01 -95,0.03 -5.82,-9.98 -8.27,-21.43 -11.18,-32.48 -24.4,21.85 -55.51,35.65 -87.66,41.22 -22.06,3.68 -44.75,3.23 -66.74,-0.68 -19.16,-3.5 -37.56,-11.01 -53.64,-22.01 -14.34,-9.42 -26.49,-22.18 -34.94,-37.12 -10.23,-17.98 -15.27,-38.81 -14.77,-59.47 -0.06,-17.34 5.52,-34.32 13.94,-49.34 8.49,-14.88 20.66,-27.5 34.77,-37.15 18.16,-12.49 39.11,-20.41 60.48,-25.35 22.4,-5.33 45.5,-6.25 68.22,-9.56 15.91,-2.27 32.02,-5.03 46.81,-11.58 9.54,-4.25 18.93,-10.84 22.98,-20.84 3.43,-9.03 3.7,-19.35 0.31,-28.43 -4.83,-13.14 -16.77,-22.21 -29.37,-27.32 -18.21,-7.19 -38.63,-8.49 -57.71,-4.32 -15.57,3.49 -30.35,12.56 -38.5,26.54 -5.95,9.95 -8.4,21.64 -8.46,33.15 -30.08,-0.01 -60.16,-0.01 -90.24,0 0.55,-19.58 3.84,-39.28 11.41,-57.43 6.73,-16.23 17.21,-30.95 30.69,-42.26 12.79,-10.93 28.04,-18.69 43.95,-24 m 121.52,206.28 c -22.97,8.1 -47.43,10.15 -70.96,16.07 -14.48,3.61 -29.32,8.4 -40.74,18.41 -7.72,6.68 -12.62,16.02 -15.43,25.71 -1.86,6.66 -2.56,13.75 -1.09,20.57 2.17,11.59 10.1,21.49 20.04,27.55 15.91,9.81 35.46,11.81 53.71,9.68 18.09,-2.27 36.5,-6.92 51.58,-17.58 13.09,-9.15 22.67,-23.71 24.26,-39.77 2.82,-24.55 2.54,-49.35 2.1,-74.01 -6.74,6.12 -14.95,10.34 -23.47,13.37 z m -509.99,-206.01 c 24.28,-7.87 50.1,-10.39 75.52,-9.25 21.7,1.13 43.29,5.39 63.62,13.14 16.25,6.22 31.86,14.53 45.27,25.71 11.11,9.11 19.67,20.99 26.31,33.66 9.64,18.98 14.93,40.31 14.22,61.65 h -83.53 c -0.94,-18.09 -7.64,-36.66 -21.54,-48.8 -12.42,-10.96 -29.13,-15.65 -45.39,-16.46 -18.21,-1.04 -37.36,1.34 -53.28,10.82 -9.13,5.47 -16.94,13.89 -19.89,24.29 -4.14,13.38 1.71,29.14 13.51,36.66 7.08,4.72 15.26,7.4 23.41,9.62 14.68,3.86 29.75,5.86 44.71,8.36 20.11,3.59 40.32,6.78 60.14,11.81 19.44,5.01 38.84,11.81 55.27,23.63 11.84,8.49 21.61,19.9 27.77,33.14 17.74,36.4 13.93,81 -5.32,116.03 -9.59,16.4 -23.08,30.49 -38.96,40.9 -14.06,9.32 -29.95,15.61 -46.26,19.72 -21.28,5.3 -43.31,6.93 -65.18,6.79 -22.26,-0.28 -44.67,-2.84 -65.92,-9.7 -18.21,-5.8 -35.41,-14.77 -50.56,-26.43 -12.7,-9.41 -22.72,-21.98 -30.77,-35.48 -12.3,-20.8 -20.32,-44.58 -20.48,-68.9 29.34,-0.02 58.67,0.02 88.01,-0.02 3.42,18.48 9.59,37.67 23.76,50.79 12.16,11.36 28.82,16.13 45,17.94 19.52,2.1 39.87,-0.01 57.86,-8.18 9.47,-4.49 18.36,-11.18 23.4,-20.56 4.48,-7.94 5.23,-17.38 4.57,-26.31 -0.68,-8.03 -4.25,-16.01 -10.62,-21.1 -7.36,-6.01 -16.64,-8.85 -25.67,-11.22 -24.62,-5.99 -49.81,-9.14 -74.53,-14.66 -21.27,-4.71 -42.45,-10.47 -62.31,-19.56 -13.34,-6.14 -26.17,-14.02 -35.96,-25.13 -15.01,-16.76 -23.45,-38.87 -24.83,-61.23 -1.28,-23.55 3.58,-47.87 16.14,-68.03 16.25,-26.32 43.58,-44.04 72.51,-53.64 z"
     id="path182"
     style="fill:#003247" />
  <g
     aria-label="Climate Data Dashboard"
     id="text1303"
     style="font-size:162.632px;font-family:Lato;-inkscape-font-specification:'Lato, Normal';stroke-width:4.06579;fill:#003247">
    <path
       d="m 234.5483,896.36577 q 1.30106,0 2.35817,1.0571 l 6.18001,6.74923 q -7.1558,8.29423 -17.40162,12.92925 -10.1645,4.63501 -24.55743,4.63501 -12.60398,0 -22.8498,-4.30975 -10.24582,-4.39106 -17.48294,-12.1974 -7.23712,-7.88765 -11.22161,-18.86531 -3.98448,-10.97766 -3.98448,-24.15085 0,-13.1732 4.22843,-24.15086 4.30975,-10.97766 12.03477,-18.86531 7.72502,-7.88765 18.45873,-12.1974 10.81503,-4.39106 23.82559,-4.39106 12.84793,0 22.11795,3.98448 9.35134,3.98448 16.58847,10.81503 l -5.12291,7.23712 q -0.56921,0.81316 -1.30106,1.38237 -0.73184,0.4879 -2.11421,0.4879 -1.05711,0 -2.27685,-0.73184 -1.13843,-0.81316 -2.76475,-1.95159 -1.62632,-1.13842 -3.82185,-2.43948 -2.19553,-1.30105 -5.20422,-2.43948 -3.0087,-1.13842 -6.99318,-1.87027 -3.98448,-0.81316 -9.18871,-0.81316 -9.35134,0 -17.15767,3.25264 -7.72502,3.17133 -13.33583,9.1074 -5.6108,5.93606 -8.78213,14.47424 -3.09,8.53819 -3.09,19.10927 0,10.89634 3.09,19.43452 3.17133,8.53818 8.53818,14.47425 5.44818,5.85475 12.84793,8.94476 7.39976,3.09001 15.93794,3.09001 5.20422,0 9.35134,-0.56922 4.14711,-0.65052 7.6437,-1.95158 3.57791,-1.30106 6.5866,-3.25264 3.09001,-2.0329 6.18002,-4.79764 1.38237,-1.21974 2.68342,-1.21974 z"
       id="path1355"
       style="fill:#003247" />
    <path
       d="M 277.64569,800.65683 V 920.4353 H 263.17145 V 800.65683 Z"
       id="path1357"
       style="fill:#003247" />
    <path
       d="m 319.27927,838.06219 v 82.37311 h -14.47425 v -82.37311 z m 3.25264,-25.85849 q 0,2.11422 -0.89448,3.98449 -0.81316,1.78895 -2.27685,3.25264 -1.38237,1.38237 -3.25264,2.19553 -1.87026,0.81316 -3.98448,0.81316 -2.11422,0 -3.98448,-0.81316 -1.78896,-0.81316 -3.25264,-2.19553 -1.38238,-1.46369 -2.19554,-3.25264 -0.81316,-1.87027 -0.81316,-3.98449 0,-2.11421 0.81316,-3.98448 0.81316,-1.95158 2.19554,-3.33396 1.46368,-1.46368 3.25264,-2.27684 1.87026,-0.81316 3.98448,-0.81316 2.11422,0 3.98448,0.81316 1.87027,0.81316 3.25264,2.27684 1.46369,1.38238 2.27685,3.33396 0.89448,1.87027 0.89448,3.98448 z"
       id="path1359"
       style="fill:#003247" />
    <path
       d="m 344.81226,920.4353 v -82.37311 h 8.6195 q 3.09001,0 3.90317,3.00869 l 1.0571,8.45687 q 4.5537,-5.61081 10.1645,-9.18871 5.69212,-3.5779 13.1732,-3.5779 8.37554,0 13.49845,4.63501 5.20423,4.63501 7.48107,12.52266 1.70764,-4.47238 4.47238,-7.72502 2.84606,-3.25264 6.34265,-5.36685 3.49659,-2.11422 7.39976,-3.09001 3.98448,-0.97579 8.05028,-0.97579 6.50528,0 11.54688,2.11421 5.1229,2.0329 8.61949,6.01739 3.57791,3.98448 5.44817,9.83923 1.87027,5.77344 1.87027,13.25451 v 52.44882 h -14.47425 v -52.44882 q 0,-9.6766 -4.22843,-14.63688 -4.22843,-5.04159 -12.27872,-5.04159 -3.5779,0 -6.83054,1.30106 -3.17132,1.21974 -5.6108,3.65922 -2.43948,2.43948 -3.90317,6.18001 -1.38237,3.65922 -1.38237,8.53818 V 920.4353 H 393.2766 v -52.44882 q 0,-9.92055 -3.98449,-14.79951 -3.98448,-4.87896 -11.62818,-4.87896 -5.36686,0 -10.00187,2.92738 -4.5537,2.84606 -8.37555,7.80633 v 61.39358 z"
       id="path1361"
       style="fill:#003247" />
    <path
       d="m 538.8321,920.4353 h -6.42396 q -2.11422,0 -3.41527,-0.65053 -1.30106,-0.65052 -1.70764,-2.76474 l -1.62632,-7.6437 q -3.25264,2.92737 -6.34265,5.28554 -3.09001,2.27684 -6.50528,3.90316 -3.41527,1.54501 -7.31844,2.35817 -3.82185,0.81316 -8.53818,0.81316 -4.79764,0 -9.02607,-1.30106 -4.14712,-1.38237 -7.23713,-4.0658 -3.09001,-2.68343 -4.96027,-6.74923 -1.78896,-4.14711 -1.78896,-9.75792 0,-4.87896 2.68343,-9.35134 2.68343,-4.55369 8.6195,-8.05028 6.01738,-3.49659 15.69399,-5.69212 9.6766,-2.27685 23.66295,-2.60211 v -6.42397 q 0,-9.59528 -4.14711,-14.47424 -4.0658,-4.96028 -12.11609,-4.96028 -5.28554,0 -8.94476,1.38237 -3.5779,1.30106 -6.26133,3.00869 -2.60211,1.62632 -4.5537,3.0087 -1.87026,1.30105 -3.74053,1.30105 -1.46369,0 -2.60211,-0.73184 -1.05711,-0.81316 -1.70764,-1.95159 l -2.60211,-4.63501 q 6.83054,-6.5866 14.71819,-9.83924 7.88766,-3.25264 17.48294,-3.25264 6.91186,0 12.27872,2.27685 5.36686,2.27685 9.02608,6.34265 3.65922,4.0658 5.52948,9.83924 1.87027,5.77343 1.87027,12.68529 z m -37.56799,-8.86344 q 3.82185,0 6.99318,-0.73185 3.17132,-0.81316 5.93606,-2.19553 2.84606,-1.46369 5.36686,-3.49659 2.60211,-2.0329 5.04159,-4.63501 v -17.15767 q -10.00187,0.32526 -16.99504,1.62632 -6.99318,1.21974 -11.38424,3.25264 -4.39107,2.0329 -6.42397,4.79764 -1.95158,2.76474 -1.95158,6.18002 0,3.25264 1.05711,5.6108 1.05711,2.35816 2.84606,3.90317 1.78895,1.46369 4.22843,2.19553 2.43948,0.65053 5.28554,0.65053 z"
       id="path1363"
       style="fill:#003247" />
    <path
       d="m 585.75145,921.73636 q -9.75792,0 -15.04346,-5.44817 -5.20423,-5.44818 -5.20423,-15.69399 v -50.41592 h -9.92055 q -1.30106,0 -2.19553,-0.73185 -0.89448,-0.81316 -0.89448,-2.43948 v -5.77343 l 13.49846,-1.70764 3.33395,-25.45191 q 0.16264,-1.21974 1.05711,-1.95158 0.89448,-0.81316 2.27685,-0.81316 h 7.31844 v 28.37928 h 23.58164 v 10.48977 h -23.58164 v 49.44013 q 0,5.20422 2.5208,7.72502 2.52079,2.52079 6.50528,2.52079 2.27685,0 3.90317,-0.56921 1.70763,-0.65053 2.92737,-1.38237 1.21974,-0.73185 2.0329,-1.30106 0.89448,-0.65053 1.54501,-0.65053 1.13842,0 2.0329,1.38238 l 4.22843,6.91186 q -3.74054,3.49658 -9.02608,5.52948 -5.28554,1.95159 -10.89634,1.95159 z"
       id="path1365"
       style="fill:#003247" />
    <path
       d="m 654.05674,836.76114 q 7.39976,0 13.66109,2.52079 6.26133,2.43948 10.81503,7.15581 4.55369,4.63501 7.07449,11.54687 2.60211,6.83055 2.60211,15.61268 0,3.41527 -0.73184,4.55369 -0.73185,1.13843 -2.76475,1.13843 h -54.80698 q 0.16263,7.80633 2.11422,13.57977 1.95158,5.77343 5.36685,9.6766 3.41527,3.82185 8.1316,5.77344 4.71633,1.87027 10.57108,1.87027 5.44817,0 9.35134,-1.21974 3.98449,-1.30106 6.83055,-2.76475 2.84606,-1.46369 4.71632,-2.68343 1.95159,-1.30105 3.33396,-1.30105 1.78895,0 2.76474,1.38237 l 4.0658,5.28554 q -2.68342,3.25264 -6.42396,5.69212 -3.74054,2.35816 -8.05028,3.90317 -4.22844,1.545 -8.78213,2.27685 -4.5537,0.81316 -9.02608,0.81316 -8.53818,0 -15.7753,-2.84606 -7.15581,-2.92738 -12.44135,-8.45687 -5.20422,-5.6108 -8.1316,-13.82372 -2.92738,-8.21291 -2.92738,-18.86531 0,-8.6195 2.60212,-16.10057 2.68342,-7.48107 7.6437,-12.92924 4.96028,-5.52949 12.11608,-8.6195 7.15581,-3.17132 16.10057,-3.17132 z m 0.32527,10.65239 q -10.48977,0 -16.50715,6.0987 -6.01739,6.01739 -7.48107,16.7511 h 44.80511 q 0,-5.04159 -1.38237,-9.18871 -1.38237,-4.22843 -4.0658,-7.23712 -2.68343,-3.09001 -6.5866,-4.71633 -3.82185,-1.70764 -8.78212,-1.70764 z"
       id="path1367"
       style="fill:#003247" />
    <path
       d="m 841.32701,862.21305 q 0,13.09187 -4.14712,23.82558 -4.14712,10.73372 -11.7095,18.37742 -7.56239,7.6437 -18.13347,11.87214 -10.57108,4.14711 -23.41901,4.14711 H 740.33253 V 803.90947 h 43.58538 q 12.84793,0 23.41901,4.22843 10.57108,4.14712 18.13347,11.87214 7.56238,7.6437 11.7095,18.37742 4.14712,10.73371 4.14712,23.82559 z m -16.18189,0 q 0,-10.73372 -2.92737,-19.19058 -2.92738,-8.45687 -8.29424,-14.31162 -5.36685,-5.85475 -13.01056,-8.94476 -7.6437,-3.09001 -16.99504,-3.09001 h -27.72876 v 90.99261 h 27.72876 q 9.35134,0 16.99504,-3.09001 7.64371,-3.09001 13.01056,-8.86344 5.36686,-5.85475 8.29424,-14.31162 2.92737,-8.45686 2.92737,-19.19057 z"
       id="path1369"
       style="fill:#003247" />
    <path
       d="m 921.01646,920.4353 h -6.42396 q -2.11422,0 -3.41528,-0.65053 -1.30105,-0.65052 -1.70763,-2.76474 l -1.62632,-7.6437 q -3.25264,2.92737 -6.34265,5.28554 -3.09001,2.27684 -6.50528,3.90316 -3.41527,1.54501 -7.31844,2.35817 -3.82185,0.81316 -8.53818,0.81316 -4.79765,0 -9.02608,-1.30106 -4.14711,-1.38237 -7.23712,-4.0658 -3.09001,-2.68343 -4.96028,-6.74923 -1.78895,-4.14711 -1.78895,-9.75792 0,-4.87896 2.68343,-9.35134 2.68343,-4.55369 8.61949,-8.05028 6.01739,-3.49659 15.69399,-5.69212 9.67661,-2.27685 23.66296,-2.60211 v -6.42397 q 0,-9.59528 -4.14712,-14.47424 -4.0658,-4.96028 -12.11608,-4.96028 -5.28554,0 -8.94476,1.38237 -3.57791,1.30106 -6.26133,3.00869 -2.60212,1.62632 -4.5537,3.0087 -1.87027,1.30105 -3.74054,1.30105 -1.46368,0 -2.60211,-0.73184 -1.05711,-0.81316 -1.70763,-1.95159 l -2.60212,-4.63501 q 6.83055,-6.5866 14.7182,-9.83924 7.88765,-3.25264 17.48294,-3.25264 6.91186,0 12.27872,2.27685 5.36685,2.27685 9.02607,6.34265 3.65922,4.0658 5.52949,9.83924 1.87027,5.77343 1.87027,12.68529 z m -37.56799,-8.86344 q 3.82185,0 6.99317,-0.73185 3.17133,-0.81316 5.93607,-2.19553 2.84606,-1.46369 5.36686,-3.49659 2.60211,-2.0329 5.04159,-4.63501 v -17.15767 q -10.00187,0.32526 -16.99505,1.62632 -6.99317,1.21974 -11.38424,3.25264 -4.39106,2.0329 -6.42396,4.79764 -1.95158,2.76474 -1.95158,6.18002 0,3.25264 1.0571,5.6108 1.05711,2.35816 2.84606,3.90317 1.78896,1.46369 4.22844,2.19553 2.43948,0.65053 5.28554,0.65053 z"
       id="path1371"
       style="fill:#003247" />
    <path
       d="m 967.93577,921.73636 q -9.75792,0 -15.04346,-5.44817 -5.20422,-5.44818 -5.20422,-15.69399 v -50.41592 h -9.92055 q -1.30106,0 -2.19554,-0.73185 -0.89447,-0.81316 -0.89447,-2.43948 v -5.77343 l 13.49846,-1.70764 3.33395,-25.45191 q 0.16263,-1.21974 1.05711,-1.95158 0.89448,-0.81316 2.27685,-0.81316 h 7.31844 v 28.37928 h 23.58164 v 10.48977 h -23.58164 v 49.44013 q 0,5.20422 2.52079,7.72502 2.5208,2.52079 6.50528,2.52079 2.27685,0 3.90317,-0.56921 1.70764,-0.65053 2.92738,-1.38237 1.21974,-0.73185 2.0329,-1.30106 0.89447,-0.65053 1.545,-0.65053 1.13843,0 2.0329,1.38238 l 4.22843,6.91186 q -3.74053,3.49658 -9.02607,5.52948 -5.28554,1.95159 -10.89635,1.95159 z"
       id="path1373"
       style="fill:#003247" />
    <path
       d="m 1064.1325,920.4353 h -6.424 q -2.1142,0 -3.4152,-0.65053 -1.3011,-0.65052 -1.7077,-2.76474 l -1.6263,-7.6437 q -3.2526,2.92737 -6.3427,5.28554 -3.09,2.27684 -6.5052,3.90316 -3.4153,1.54501 -7.3185,2.35817 -3.8218,0.81316 -8.5382,0.81316 -4.7976,0 -9.026,-1.30106 -4.1471,-1.38237 -7.2372,-4.0658 -3.09,-2.68343 -4.9602,-6.74923 -1.78898,-4.14711 -1.78898,-9.75792 0,-4.87896 2.68338,-9.35134 2.6835,-4.55369 8.6195,-8.05028 6.0174,-3.49659 15.694,-5.69212 9.6766,-2.27685 23.663,-2.60211 v -6.42397 q 0,-9.59528 -4.1471,-14.47424 -4.0658,-4.96028 -12.1161,-4.96028 -5.2856,0 -8.9448,1.38237 -3.5779,1.30106 -6.2613,3.00869 -2.6021,1.62632 -4.5537,3.0087 -1.8703,1.30105 -3.7405,1.30105 -1.4637,0 -2.6021,-0.73184 -1.0572,-0.81316 -1.7077,-1.95159 l -2.6021,-4.63501 q 6.8305,-6.5866 14.7182,-9.83924 7.8877,-3.25264 17.4829,-3.25264 6.9119,0 12.2788,2.27685 5.3668,2.27685 9.026,6.34265 3.6593,4.0658 5.5295,9.83924 1.8703,5.77343 1.8703,12.68529 z m -37.568,-8.86344 q 3.8218,0 6.9932,-0.73185 3.1713,-0.81316 5.936,-2.19553 2.8461,-1.46369 5.3669,-3.49659 2.6021,-2.0329 5.0416,-4.63501 v -17.15767 q -10.0019,0.32526 -16.9951,1.62632 -6.9931,1.21974 -11.3842,3.25264 -4.3911,2.0329 -6.424,4.79764 -1.9515,2.76474 -1.9515,6.18002 0,3.25264 1.0571,5.6108 1.0571,2.35816 2.846,3.90317 1.789,1.46369 4.2285,2.19553 2.4394,0.65053 5.2855,0.65053 z"
       id="path1375"
       style="fill:#003247" />
    <path
       d="m 1220.7469,862.21305 q 0,13.09187 -4.1471,23.82558 -4.1471,10.73372 -11.7095,18.37742 -7.5624,7.6437 -18.1335,11.87214 -10.571,4.14711 -23.419,4.14711 h -43.5853 V 803.90947 h 43.5853 q 12.848,0 23.419,4.22843 10.5711,4.14712 18.1335,11.87214 7.5624,7.6437 11.7095,18.37742 4.1471,10.73371 4.1471,23.82559 z m -16.1819,0 q 0,-10.73372 -2.9273,-19.19058 -2.9274,-8.45687 -8.2943,-14.31162 -5.3668,-5.85475 -13.0105,-8.94476 -7.6437,-3.09001 -16.9951,-3.09001 h -27.7287 v 90.99261 h 27.7287 q 9.3514,0 16.9951,-3.09001 7.6437,-3.09001 13.0105,-8.86344 5.3669,-5.85475 8.2943,-14.31162 2.9273,-8.45686 2.9273,-19.19057 z"
       id="path1377"
       style="fill:#003247" />
    <path
       d="m 1300.4363,920.4353 h -6.4239 q -2.1143,0 -3.4153,-0.65053 -1.3011,-0.65052 -1.7077,-2.76474 l -1.6263,-7.6437 q -3.2526,2.92737 -6.3426,5.28554 -3.09,2.27684 -6.5053,3.90316 -3.4153,1.54501 -7.3184,2.35817 -3.8219,0.81316 -8.5382,0.81316 -4.7977,0 -9.0261,-1.30106 -4.1471,-1.38237 -7.2371,-4.0658 -3.09,-2.68343 -4.9603,-6.74923 -1.7889,-4.14711 -1.7889,-9.75792 0,-4.87896 2.6834,-9.35134 2.6834,-4.55369 8.6195,-8.05028 6.0174,-3.49659 15.694,-5.69212 9.6766,-2.27685 23.6629,-2.60211 v -6.42397 q 0,-9.59528 -4.1471,-14.47424 -4.0658,-4.96028 -12.1161,-4.96028 -5.2855,0 -8.9447,1.38237 -3.5779,1.30106 -6.2614,3.00869 -2.6021,1.62632 -4.5537,3.0087 -1.8702,1.30105 -3.7405,1.30105 -1.4637,0 -2.6021,-0.73184 -1.0571,-0.81316 -1.7077,-1.95159 l -2.6021,-4.63501 q 6.8306,-6.5866 14.7182,-9.83924 7.8877,-3.25264 17.483,-3.25264 6.9118,0 12.2787,2.27685 5.3668,2.27685 9.0261,6.34265 3.6592,4.0658 5.5295,9.83924 1.8702,5.77343 1.8702,12.68529 z m -37.568,-8.86344 q 3.8219,0 6.9932,-0.73185 3.1713,-0.81316 5.9361,-2.19553 2.846,-1.46369 5.3668,-3.49659 2.6021,-2.0329 5.0416,-4.63501 v -17.15767 q -10.0018,0.32526 -16.995,1.62632 -6.9932,1.21974 -11.3843,3.25264 -4.391,2.0329 -6.4239,4.79764 -1.9516,2.76474 -1.9516,6.18002 0,3.25264 1.0571,5.6108 1.0571,2.35816 2.8461,3.90317 1.7889,1.46369 4.2284,2.19553 2.4395,0.65053 5.2855,0.65053 z"
       id="path1379"
       style="fill:#003247" />
    <path
       d="m 1369.555,851.64197 q -0.9758,1.78895 -3.0087,1.78895 -1.2198,0 -2.7648,-0.89448 -1.545,-0.89447 -3.8218,-1.95158 -2.1956,-1.13843 -5.2856,-2.0329 -3.09,-0.97579 -7.3184,-0.97579 -3.6592,0 -6.5866,0.97579 -2.9274,0.89447 -5.0416,2.52079 -2.0329,1.62632 -3.1713,3.82186 -1.0571,2.11421 -1.0571,4.63501 0,3.17132 1.7889,5.28554 1.8703,2.11421 4.879,3.65922 3.0087,1.545 6.8305,2.76474 3.8219,1.13843 7.8064,2.5208 4.0658,1.30105 7.8876,2.92737 3.8219,1.62632 6.8306,4.0658 3.0087,2.43948 4.7976,6.01739 1.8703,3.49659 1.8703,8.45686 0,5.69212 -2.0329,10.57108 -2.0329,4.79765 -6.0174,8.37555 -3.9845,3.49659 -9.7579,5.52949 -5.7735,2.0329 -13.3359,2.0329 -8.6194,0 -15.6126,-2.76475 -6.9932,-2.84606 -11.8722,-7.23712 l 3.4153,-5.52949 q 0.6505,-1.05711 1.545,-1.62632 0.8945,-0.56921 2.3582,-0.56921 1.4637,0 3.09,1.13842 1.6263,1.13843 3.9032,2.5208 2.3581,1.38237 5.6108,2.5208 3.3339,1.13842 8.2942,1.13842 4.2284,0 7.3997,-1.05711 3.1714,-1.13842 5.2856,-3.00869 2.1142,-1.87027 3.09,-4.30975 1.0571,-2.43948 1.0571,-5.20422 0,-3.41527 -1.8703,-5.61081 -1.7889,-2.27684 -4.7976,-3.82185 -3.0087,-1.62632 -6.9119,-2.76474 -3.8218,-1.21974 -7.8876,-2.5208 -3.9845,-1.30105 -7.8877,-2.92737 -3.8218,-1.70764 -6.8305,-4.22844 -3.0087,-2.52079 -4.879,-6.18001 -1.7889,-3.74054 -1.7889,-9.02608 0,-4.71633 1.9516,-9.02607 1.9515,-4.39107 5.6921,-7.64371 3.7405,-3.33396 9.1887,-5.28554 5.4482,-1.95158 12.4413,-1.95158 8.1316,0 14.5556,2.60211 6.5053,2.52079 11.2216,6.99318 z"
       id="path1381"
       style="fill:#003247" />
    <path
       d="M 1392.9736,920.4353 V 800.65683 h 14.4742 v 48.46434 q 5.2856,-5.61081 11.7095,-8.94476 6.424,-3.41527 14.7996,-3.41527 6.7492,0 11.8721,2.27684 5.2042,2.19554 8.6195,6.34265 3.4966,4.0658 5.2855,9.83924 1.789,5.77344 1.789,12.76661 v 52.44882 h -14.4743 v -52.44882 q 0,-9.35134 -4.3097,-14.47425 -4.2284,-5.20422 -13.0106,-5.20422 -6.4239,0 -12.0347,3.09001 -5.5295,3.09001 -10.2459,8.37555 v 60.66173 z"
       id="path1383"
       style="fill:#003247" />
    <path
       d="M 1483.8848,920.4353 V 800.65683 h 14.5556 v 49.2775 q 5.1229,-5.93607 11.7095,-9.51397 6.6679,-3.65922 15.2061,-3.65922 7.1558,0 12.9292,2.68342 5.7735,2.68343 9.8393,8.05029 4.0658,5.28554 6.2613,13.17319 2.1955,7.80634 2.1955,18.05215 0,9.1074 -2.4394,16.99505 -2.4395,7.80633 -7.0745,13.57977 -4.5537,5.69212 -11.2216,9.02608 -6.5866,3.25264 -14.8809,3.25264 -7.9689,0 -13.5797,-3.09001 -5.5295,-3.09001 -9.6767,-8.6195 l -0.7318,7.48107 q -0.6505,3.09001 -3.7405,3.09001 z m 36.7549,-72.12729 q -7.0745,0 -12.4414,3.25264 -5.2855,3.25264 -9.7579,9.18871 v 39.84484 q 3.9032,5.36685 8.6195,7.56239 4.7976,2.19553 10.6524,2.19553 11.5469,0 17.7269,-8.21292 6.18,-8.21291 6.18,-23.41901 0,-8.05028 -1.4637,-13.82372 -1.3824,-5.77343 -4.0658,-9.43265 -2.6834,-3.74054 -6.5866,-5.44817 -3.9032,-1.70764 -8.8634,-1.70764 z"
       id="path1385"
       style="fill:#003247" />
    <path
       d="m 1607.6475,836.76114 q 9.0261,0 16.2632,3.00869 7.3184,3.00869 12.36,8.53818 5.1229,5.52949 7.8064,13.41714 2.7647,7.80634 2.7647,17.48294 0,9.75792 -2.7647,17.56426 -2.6835,7.80633 -7.8064,13.33582 -5.0416,5.52949 -12.36,8.53818 -7.2371,2.92738 -16.2632,2.92738 -9.0261,0 -16.3445,-2.92738 -7.2371,-3.00869 -12.36,-8.53818 -5.123,-5.52949 -7.8877,-13.33582 -2.7647,-7.80634 -2.7647,-17.56426 0,-9.6766 2.7647,-17.48294 2.7647,-7.88765 7.8877,-13.41714 5.1229,-5.52949 12.36,-8.53818 7.3184,-3.00869 16.3445,-3.00869 z m 0,73.50966 q 12.1974,0 18.2148,-8.1316 6.0174,-8.21291 6.0174,-22.84979 0,-14.7182 -6.0174,-22.93112 -6.0174,-8.21291 -18.2148,-8.21291 -6.18,0 -10.7337,2.11421 -4.5537,2.11422 -7.6437,6.0987 -3.0087,3.98449 -4.5537,9.83924 -1.4637,5.77344 -1.4637,13.09188 0,7.31844 1.4637,13.09187 1.545,5.77344 4.5537,9.75792 3.09,3.90317 7.6437,6.01739 4.5537,2.11421 10.7337,2.11421 z"
       id="path1387"
       style="fill:#003247" />
    <path
       d="m 1725.2304,920.4353 h -6.424 q -2.1142,0 -3.4152,-0.65053 -1.3011,-0.65052 -1.7077,-2.76474 l -1.6263,-7.6437 q -3.2526,2.92737 -6.3427,5.28554 -3.09,2.27684 -6.5052,3.90316 -3.4153,1.54501 -7.3185,2.35817 -3.8218,0.81316 -8.5382,0.81316 -4.7976,0 -9.026,-1.30106 -4.1471,-1.38237 -7.2372,-4.0658 -3.09,-2.68343 -4.9602,-6.74923 -1.789,-4.14711 -1.789,-9.75792 0,-4.87896 2.6834,-9.35134 2.6835,-4.55369 8.6195,-8.05028 6.0174,-3.49659 15.694,-5.69212 9.6766,-2.27685 23.663,-2.60211 v -6.42397 q 0,-9.59528 -4.1471,-14.47424 -4.0658,-4.96028 -12.1161,-4.96028 -5.2856,0 -8.9448,1.38237 -3.5779,1.30106 -6.2613,3.00869 -2.6021,1.62632 -4.5537,3.0087 -1.8703,1.30105 -3.7405,1.30105 -1.4637,0 -2.6021,-0.73184 -1.0572,-0.81316 -1.7077,-1.95159 l -2.6021,-4.63501 q 6.8305,-6.5866 14.7182,-9.83924 7.8877,-3.25264 17.4829,-3.25264 6.9119,0 12.2788,2.27685 5.3668,2.27685 9.026,6.34265 3.6593,4.0658 5.5295,9.83924 1.8703,5.77343 1.8703,12.68529 z m -37.568,-8.86344 q 3.8218,0 6.9932,-0.73185 3.1713,-0.81316 5.936,-2.19553 2.8461,-1.46369 5.3669,-3.49659 2.6021,-2.0329 5.0416,-4.63501 v -17.15767 q -10.0019,0.32526 -16.9951,1.62632 -6.9931,1.21974 -11.3842,3.25264 -4.3911,2.0329 -6.424,4.79764 -1.9515,2.76474 -1.9515,6.18002 0,3.25264 1.0571,5.6108 1.0571,2.35816 2.846,3.90317 1.789,1.46369 4.2285,2.19553 2.4394,0.65053 5.2855,0.65053 z"
       id="path1389"
       style="fill:#003247" />
    <path
       d="m 1747.1858,920.4353 v -82.37311 h 8.2942 q 2.3581,0 3.2526,0.89448 0.8945,0.89447 1.2198,3.09001 l 0.9758,12.84793 q 4.2284,-8.6195 10.4084,-13.41715 6.2613,-4.87896 14.6369,-4.87896 3.4153,0 6.18,0.81316 2.7647,0.73185 5.1229,2.11422 l -1.8703,10.81503 q -0.5692,2.0329 -2.5208,2.0329 -1.1384,0 -3.4965,-0.73184 -2.3582,-0.81316 -6.5866,-0.81316 -7.5624,0 -12.6853,4.39106 -5.0416,4.39106 -8.4569,12.76661 v 52.44882 z"
       id="path1391"
       style="fill:#003247" />
    <path
       d="m 1870.7047,920.4353 q -3.09,0 -3.9032,-3.00869 l -1.301,-10.00187 q -5.2856,6.42397 -12.1161,10.32713 -6.7492,3.82186 -15.5314,3.82186 -7.0744,0 -12.8479,-2.68343 -5.7734,-2.76475 -9.8392,-8.05029 -4.0658,-5.28554 -6.2614,-13.17319 -2.1955,-7.88765 -2.1955,-18.13347 0,-9.10739 2.4395,-16.91372 2.4395,-7.88766 6.9932,-13.66109 4.635,-5.77344 11.2216,-9.02608 6.5866,-3.33396 14.9621,-3.33396 7.5624,0 12.9293,2.60212 5.3668,2.52079 9.5953,7.15581 v -45.6996 h 14.4742 V 920.4353 Z m -28.054,-10.57108 q 7.0745,0 12.36,-3.25264 5.3669,-3.25264 9.8393,-9.18871 v -39.84484 q -3.9845,-5.36685 -8.7822,-7.48107 -4.7163,-2.19553 -10.4897,-2.19553 -11.5469,0 -17.7269,8.21292 -6.18,8.21291 -6.18,23.419 0,8.05029 1.3823,13.82372 1.3824,5.69212 4.0658,9.43266 2.6835,3.65922 6.5866,5.36686 3.9032,1.70763 8.9448,1.70763 z"
       id="path1393"
       style="fill:#003247" />
  </g>
</svg>
