<?xml version="1.0" encoding="UTF-8" standalone="no"?>
<svg
   version="1.1"
   id="svg4"
   width="110.68359"
   height="11.595703"
   xmlns="http://www.w3.org/2000/svg"
   xmlns:svg="http://www.w3.org/2000/svg">
  <defs
     id="defs8" />
  <g
     aria-label="Climate categories"
     id="text2"
     transform="translate(-0.67382812,9.1171875)">
    <path
       d="M 7.9101562,-0.6328125 Q 7.5878906,-0.4921875 7.3242187,-0.36914063 7.0664062,-0.24609375 6.6445312,-0.11132812 6.2871094,0 5.8652344,0.07617187 5.4492187,0.15820312 4.9453125,0.15820312 q -0.9492187,0 -1.7285156,-0.26367187 Q 2.4433594,-0.375 1.8691406,-0.94335938 1.3066406,-1.5 0.99023438,-2.3554688 0.67382812,-3.2167969 0.67382812,-4.3535156 q 0,-1.078125 0.30468751,-1.9277344 0.30468747,-0.8496094 0.87890627,-1.4355469 0.5566406,-0.5683594 1.3417969,-0.8671875 0.7910156,-0.2988281 1.7519531,-0.2988281 0.703125,0 1.4003906,0.1699219 0.703125,0.1699218 1.5585937,0.5976562 v 1.3769532 H 7.8222656 Q 7.1015625,-7.3417969 6.3925781,-7.6171875 5.6835937,-7.8925781 4.875,-7.8925781 q -0.6621094,0 -1.1953125,0.2167969 -0.5273437,0.2109375 -0.9433594,0.6621093 -0.4042968,0.4394532 -0.6328125,1.1132813 -0.2226562,0.6679687 -0.2226562,1.546875 0,0.9199218 0.2460937,1.5820312 0.2519532,0.6621094 0.6445313,1.078125 0.4101562,0.4335938 0.9550781,0.6445313 0.5507812,0.2050781 1.1601562,0.2050781 0.8378907,0 1.5703125,-0.2871094 0.7324219,-0.2871093 1.3710938,-0.8613281 h 0.082031 z"
       id="path10" />
    <path
       d="M 10.576172,0 H 9.4746094 v -9.1171875 h 1.1015626 z"
       id="path12" />
    <path
       d="m 13.939453,-7.640625 h -1.242187 v -1.1425781 h 1.242187 z M 13.869141,0 h -1.101563 v -6.5449219 h 1.101563 z"
       id="path14" />
    <path
       d="m 25.599609,0 h -1.101562 v -3.7265625 q 0,-0.421875 -0.04102,-0.8144531 -0.03516,-0.3925781 -0.158203,-0.6269531 -0.134766,-0.2519532 -0.386719,-0.3808594 -0.251953,-0.1289063 -0.726562,-0.1289063 -0.462891,0 -0.925781,0.234375 -0.462891,0.2285157 -0.925782,0.5859375 0.01758,0.1347657 0.0293,0.3164063 0.01172,0.1757812 0.01172,0.3515625 V 0 h -1.101563 v -3.7265625 q 0,-0.4335937 -0.04102,-0.8203125 -0.03516,-0.3925781 -0.158203,-0.6269531 -0.134766,-0.2519531 -0.386719,-0.375 -0.251953,-0.1289063 -0.726563,-0.1289063 -0.451171,0 -0.908203,0.2226563 -0.451172,0.2226562 -0.902343,0.5683594 V 0 h -1.101563 v -6.5449219 h 1.101563 v 0.7265625 q 0.515625,-0.4277343 1.02539,-0.6679687 0.515625,-0.2402344 1.095703,-0.2402344 0.667969,0 1.13086,0.28125 0.46875,0.28125 0.697265,0.7792969 0.667969,-0.5625 1.21875,-0.8085938 0.550782,-0.2519531 1.177735,-0.2519531 1.078125,0 1.58789,0.65625 0.515625,0.6503906 0.515625,1.8222656 z"
       id="path16" />
    <path
       d="m 32.806641,0 h -1.095704 v -0.69726562 q -0.146484,0.0996094 -0.398437,0.28124999 -0.246094,0.17578125 -0.480469,0.28125001 Q 30.556641,0 30.199219,0.08789062 q -0.357422,0.09375 -0.837891,0.09375 -0.884766,0 -1.5,-0.5859375 -0.615234,-0.5859375 -0.615234,-1.49414062 0,-0.7441406 0.316406,-1.2011719 0.322266,-0.4628906 0.914062,-0.7265625 0.597657,-0.2636718 1.435547,-0.3574218 0.837891,-0.09375 1.798828,-0.140625 v -0.1699219 q 0,-0.375 -0.134765,-0.6210938 -0.128906,-0.2460937 -0.375,-0.3867187 -0.234375,-0.1347656 -0.5625,-0.1816406 -0.328125,-0.046875 -0.685547,-0.046875 -0.433594,0 -0.966797,0.1171875 -0.533203,0.1113281 -1.101562,0.328125 h -0.05859 v -1.1191407 q 0.322265,-0.087891 0.93164,-0.1933593 0.609375,-0.1054688 1.201172,-0.1054688 0.691407,0 1.201172,0.1171875 0.515625,0.1113281 0.890625,0.3867188 0.369141,0.2695312 0.5625,0.6972656 0.19336,0.4277344 0.19336,1.0605469 z m -1.095704,-1.6113281 v -1.8222657 q -0.503906,0.029297 -1.189453,0.087891 -0.679687,0.058594 -1.078125,0.1699218 -0.474609,0.1347657 -0.767578,0.421875 -0.292969,0.28125 -0.292969,0.7792969 0,0.5625 0.339844,0.8496094 0.339844,0.28125 1.03711,0.28125 0.580078,0 1.060546,-0.2226562 0.480469,-0.2285157 0.890625,-0.5449222 z"
       id="path18" />
    <path
       d="m 38.326172,-0.05859375 q -0.310547,0.08203125 -0.679688,0.13476562 -0.363281,0.05273438 -0.65039,0.05273438 -1.001953,0 -1.523438,-0.5390625 -0.521484,-0.5390625 -0.521484,-1.72851565 v -3.4804687 h -0.744141 v -0.9257813 h 0.744141 v -1.8808594 h 1.101562 v 1.8808594 h 2.273438 v 0.9257813 h -2.273438 v 2.9824218 q 0,0.515625 0.02344,0.8085938 0.02344,0.2871094 0.164062,0.5390625 0.128907,0.234375 0.351563,0.34570312 0.228515,0.10546875 0.691406,0.10546875 0.269531,0 0.5625,-0.0761719 0.292969,-0.0820313 0.421875,-0.13476557 h 0.05859 z"
       id="path20" />
    <path
       d="M 45.134766,-3.1582031 H 40.3125 q 0,0.6035156 0.181641,1.0546875 0.18164,0.4453125 0.498046,0.7324219 0.304688,0.28125 0.720704,0.42187495 0.421875,0.140625 0.925781,0.140625 0.667969,0 1.341797,-0.26367185 0.679687,-0.2695313 0.966797,-0.5273438 h 0.05859 v 1.2011719 q -0.55664,0.234375 -1.136718,0.39257812 -0.580079,0.15820313 -1.21875,0.15820313 -1.628907,0 -2.542969,-0.87890625 -0.914063,-0.8847656 -0.914063,-2.5078125 0,-1.6054687 0.873047,-2.5488281 0.878906,-0.9433594 2.308594,-0.9433594 1.324219,0 2.039062,0.7734375 0.720704,0.7734375 0.720704,2.1972656 z m -1.072266,-0.84375 q -0.0059,-0.8671875 -0.439453,-1.3417969 -0.427735,-0.4746094 -1.306641,-0.4746094 -0.884765,0 -1.412109,0.5214844 -0.521485,0.5214844 -0.591797,1.2949219 z"
       id="path22" />
    <path
       d="M 55.863281,-0.41015625 Q 55.3125,-0.14648437 54.814453,0 q -0.492187,0.14648437 -1.048828,0.14648437 -0.708984,0 -1.300781,-0.20507812 -0.591797,-0.2109375 -1.013672,-0.6328125 -0.427735,-0.42187495 -0.66211,-1.06640625 -0.234375,-0.6445313 -0.234375,-1.5058594 0,-1.6054687 0.878907,-2.5195312 0.884765,-0.9140625 2.332031,-0.9140625 0.5625,0 1.101562,0.1582031 0.544922,0.1582031 0.996094,0.3867188 v 1.2246093 h -0.05859 q -0.50391,-0.3925781 -1.042972,-0.6035156 -0.533203,-0.2109375 -1.042969,-0.2109375 -0.9375,0 -1.482422,0.6328125 -0.539062,0.6269531 -0.539062,1.8457031 0,1.1835938 0.527343,1.8222657 0.533203,0.63281245 1.494141,0.63281245 0.333984,0 0.679687,-0.0878906 0.345704,-0.0878906 0.621094,-0.22851565 0.240235,-0.1230469 0.451172,-0.2578125 0.210938,-0.140625 0.333984,-0.2402344 h 0.05859 z"
       id="path24" />
    <path
       d="m 62.361328,0 h -1.095703 v -0.69726562 q -0.146484,0.0996094 -0.398438,0.28124999 -0.246093,0.17578125 -0.480468,0.28125001 Q 60.111328,0 59.753906,0.08789062 q -0.357422,0.09375 -0.83789,0.09375 -0.884766,0 -1.5,-0.5859375 -0.615235,-0.5859375 -0.615235,-1.49414062 0,-0.7441406 0.316406,-1.2011719 0.322266,-0.4628906 0.914063,-0.7265625 0.597656,-0.2636718 1.435547,-0.3574218 0.83789,-0.09375 1.798828,-0.140625 v -0.1699219 q 0,-0.375 -0.134766,-0.6210938 -0.128906,-0.2460937 -0.375,-0.3867187 -0.234375,-0.1347656 -0.5625,-0.1816406 -0.328125,-0.046875 -0.685547,-0.046875 -0.433593,0 -0.966796,0.1171875 -0.533204,0.1113281 -1.101563,0.328125 h -0.05859 v -1.1191407 q 0.322266,-0.087891 0.931641,-0.1933593 0.609375,-0.1054688 1.201172,-0.1054688 0.691406,0 1.201172,0.1171875 0.515625,0.1113281 0.890625,0.3867188 0.36914,0.2695312 0.5625,0.6972656 0.193359,0.4277344 0.193359,1.0605469 z m -1.095703,-1.6113281 v -1.8222657 q -0.503906,0.029297 -1.189453,0.087891 -0.679688,0.058594 -1.078125,0.1699218 -0.47461,0.1347657 -0.767578,0.421875 -0.292969,0.28125 -0.292969,0.7792969 0,0.5625 0.339844,0.8496094 0.339843,0.28125 1.037109,0.28125 0.580078,0 1.060547,-0.2226562 0.480469,-0.2285157 0.890625,-0.5449222 z"
       id="path26" />
    <path
       d="m 67.880859,-0.05859375 q -0.310547,0.08203125 -0.679687,0.13476562 -0.363281,0.05273438 -0.650391,0.05273438 -1.001953,0 -1.523437,-0.5390625 -0.521485,-0.5390625 -0.521485,-1.72851565 v -3.4804687 h -0.74414 v -0.9257813 h 0.74414 v -1.8808594 h 1.101563 v 1.8808594 h 2.273437 v 0.9257813 h -2.273437 v 2.9824218 q 0,0.515625 0.02344,0.8085938 0.02344,0.2871094 0.164063,0.5390625 0.128906,0.234375 0.351562,0.34570312 0.228516,0.10546875 0.691407,0.10546875 0.269531,0 0.5625,-0.0761719 0.292968,-0.0820313 0.421875,-0.13476557 h 0.05859 z"
       id="path28" />
    <path
       d="m 74.689453,-3.1582031 h -4.822266 q 0,0.6035156 0.181641,1.0546875 0.181641,0.4453125 0.498047,0.7324219 0.304687,0.28125 0.720703,0.42187495 0.421875,0.140625 0.925781,0.140625 0.667969,0 1.341797,-0.26367185 0.679688,-0.2695313 0.966797,-0.5273438 h 0.05859 v 1.2011719 q -0.556641,0.234375 -1.136719,0.39257812 -0.580078,0.15820313 -1.21875,0.15820313 -1.628906,0 -2.542969,-0.87890625 -0.914062,-0.8847656 -0.914062,-2.5078125 0,-1.6054687 0.873047,-2.5488281 0.878906,-0.9433594 2.308593,-0.9433594 1.324219,0 2.039063,0.7734375 0.720703,0.7734375 0.720703,2.1972656 z m -1.072266,-0.84375 Q 73.611328,-4.8691406 73.177734,-5.34375 72.75,-5.8183594 71.871094,-5.8183594 q -0.884766,0 -1.41211,0.5214844 -0.521484,0.5214844 -0.591797,1.2949219 z"
       id="path30" />
    <path
       d="m 81.667969,-0.74414062 q 0,1.6640625 -0.75586,2.44335932 -0.755859,0.7792969 -2.326172,0.7792969 -0.521484,0 -1.019531,-0.076172 -0.492187,-0.070312 -0.972656,-0.2050782 v -1.125 h 0.05859 q 0.269531,0.1054688 0.855468,0.2578125 0.585938,0.1582031 1.171875,0.1582031 0.5625,0 0.931641,-0.1347656 Q 79.980469,1.21875 80.185547,0.97851563 80.390625,0.75 80.478516,0.42773438 q 0.08789,-0.32226563 0.08789,-0.72070313 V -0.890625 q -0.498047,0.3984375 -0.955078,0.59765625 -0.451172,0.19335938 -1.154297,0.19335938 -1.171875,0 -1.863281,-0.84375001 -0.685547,-0.84960932 -0.685547,-2.39062502 0,-0.84375 0.234375,-1.453125 0.240234,-0.6152343 0.650391,-1.0605468 0.380859,-0.4160157 0.925781,-0.6445313 0.544922,-0.234375 1.083984,-0.234375 0.56836,0 0.949219,0.1171875 0.386719,0.1113281 0.814453,0.3457031 l 0.07031,-0.28125 h 1.03125 z M 80.566406,-1.7988281 v -3.5683594 q -0.439453,-0.1992187 -0.820312,-0.28125 -0.375,-0.087891 -0.75,-0.087891 -0.908203,0 -1.429688,0.609375 -0.521484,0.609375 -0.521484,1.7695312 0,1.1015625 0.386719,1.6699219 0.386718,0.5683594 1.283203,0.5683594 0.480468,0 0.960937,-0.1816406 0.486328,-0.1875 0.890625,-0.4980465 z"
       id="path32" />
    <path
       d="m 89.414062,-3.2695313 q 0,1.5996094 -0.820312,2.52539068 -0.820313,0.92578124 -2.197266,0.92578124 -1.388672,0 -2.208984,-0.92578124 -0.814453,-0.92578128 -0.814453,-2.52539068 0,-1.5996093 0.814453,-2.5253906 0.820312,-0.9316406 2.208984,-0.9316406 1.376953,0 2.197266,0.9316406 0.820312,0.9257813 0.820312,2.5253906 z m -1.136718,0 q 0,-1.2714843 -0.498047,-1.8867187 -0.498047,-0.6210937 -1.382813,-0.6210937 -0.896484,0 -1.394531,0.6210937 -0.492187,0.6152344 -0.492187,1.8867187 0,1.2304688 0.498046,1.8691407 0.498047,0.63281248 1.388672,0.63281248 0.878907,0 1.376953,-0.62695308 0.503907,-0.6328126 0.503907,-1.8750001 z"
       id="path34" />
    <path
       d="m 95.203125,-5.34375 h -0.05859 q -0.246094,-0.058594 -0.480469,-0.082031 -0.228515,-0.029297 -0.544921,-0.029297 -0.509766,0 -0.984375,0.2285156 -0.47461,0.2226563 -0.914063,0.5800781 V 0 h -1.101562 v -6.5449219 h 1.101562 v 0.9667969 q 0.65625,-0.5273437 1.154297,-0.7441406 0.503906,-0.2226563 1.025391,-0.2226563 0.287109,0 0.416015,0.017578 0.128906,0.011719 0.386719,0.052734 z"
       id="path36" />
    <path
       d="m 97.423828,-7.640625 h -1.242187 v -1.1425781 h 1.242187 z M 97.353516,0 h -1.101563 v -6.5449219 h 1.101563 z"
       id="path38" />
    <path
       d="m 105.01172,-3.1582031 h -4.82227 q 0,0.6035156 0.18164,1.0546875 0.18164,0.4453125 0.49805,0.7324219 0.30469,0.28125 0.7207,0.42187495 0.42188,0.140625 0.92579,0.140625 0.66796,0 1.34179,-0.26367185 0.67969,-0.2695313 0.9668,-0.5273438 h 0.0586 v 1.2011719 q -0.55664,0.234375 -1.13672,0.39257812 -0.58007,0.15820313 -1.21875,0.15820313 -1.6289,0 -2.542965,-0.87890625 -0.914063,-0.8847656 -0.914063,-2.5078125 0,-1.6054687 0.873047,-2.5488281 0.878911,-0.9433594 2.308591,-0.9433594 1.32422,0 2.03907,0.7734375 0.7207,0.7734375 0.7207,2.1972656 z m -1.07227,-0.84375 q -0.006,-0.8671875 -0.43945,-1.3417969 -0.42773,-0.4746094 -1.30664,-0.4746094 -0.88477,0 -1.41211,0.5214844 -0.52148,0.5214844 -0.5918,1.2949219 z"
       id="path40" />
    <path
       d="m 111.35742,-1.8867187 q 0,0.89648432 -0.74414,1.47070307 -0.73828,0.57421875 -2.02148,0.57421875 -0.72657,0 -1.33594,-0.16992187 Q 106.65234,-0.1875 106.24219,-0.39257813 V -1.6289062 h 0.0586 q 0.52149,0.3925781 1.16016,0.6269531 0.63867,0.2285156 1.22461,0.2285156 0.72656,0 1.13672,-0.234375 0.41015,-0.234375 0.41015,-0.7382812 0,-0.3867188 -0.22265,-0.5859376 -0.22266,-0.1992187 -0.85547,-0.3398437 -0.23438,-0.052734 -0.61524,-0.1230469 -0.375,-0.070312 -0.68554,-0.1523437 -0.86133,-0.2285157 -1.22461,-0.6679688 -0.35743,-0.4453125 -0.35743,-1.0898437 0,-0.4042969 0.16407,-0.7617188 0.16992,-0.3574218 0.50976,-0.6386718 0.32813,-0.2753907 0.83203,-0.4335938 0.50977,-0.1640625 1.13672,-0.1640625 0.58594,0 1.1836,0.1464844 0.60351,0.140625 1.00195,0.3457031 v 1.1777344 h -0.0586 q -0.42188,-0.3105469 -1.02539,-0.5214844 -0.60352,-0.2167969 -1.1836,-0.2167969 -0.60351,0 -1.01953,0.234375 -0.41602,0.2285157 -0.41602,0.6855469 0,0.4042969 0.25196,0.609375 0.24609,0.2050781 0.79687,0.3339844 0.30469,0.070312 0.67969,0.140625 0.38086,0.070312 0.63281,0.1289062 0.76758,0.1757813 1.1836,0.6035156 0.41601,0.4335938 0.41601,1.1484376 z"
       id="path42" />
  </g>
</svg>
