<?xml version="1.0" encoding="UTF-8" standalone="no"?>
<svg
   version="1.1"
   id="svg4"
   width="95.25"
   height="10.875"
   xmlns="http://www.w3.org/2000/svg"
   xmlns:svg="http://www.w3.org/2000/svg">
  <defs
     id="defs8" />
  <g
     aria-label="Climate_Indices"
     id="text2"
     transform="translate(-0.67382812,9.1171875)">
    <path
       d="M 7.9101562,-0.6328125 Q 7.5878906,-0.4921875 7.3242187,-0.36914063 7.0664062,-0.24609375 6.6445312,-0.11132812 6.2871094,0 5.8652344,0.07617187 5.4492187,0.15820312 4.9453125,0.15820312 q -0.9492187,0 -1.7285156,-0.26367187 Q 2.4433594,-0.375 1.8691406,-0.94335938 1.3066406,-1.5 0.99023438,-2.3554688 0.67382812,-3.2167969 0.67382812,-4.3535156 q 0,-1.078125 0.30468751,-1.9277344 0.30468747,-0.8496094 0.87890627,-1.4355469 0.5566406,-0.5683594 1.3417969,-0.8671875 0.7910156,-0.2988281 1.7519531,-0.2988281 0.703125,0 1.4003906,0.1699219 0.703125,0.1699218 1.5585937,0.5976562 v 1.3769532 H 7.8222656 Q 7.1015625,-7.3417969 6.3925781,-7.6171875 5.6835937,-7.8925781 4.875,-7.8925781 q -0.6621094,0 -1.1953125,0.2167969 -0.5273437,0.2109375 -0.9433594,0.6621093 -0.4042968,0.4394532 -0.6328125,1.1132813 -0.2226562,0.6679687 -0.2226562,1.546875 0,0.9199218 0.2460937,1.5820312 0.2519532,0.6621094 0.6445313,1.078125 0.4101562,0.4335938 0.9550781,0.6445313 0.5507812,0.2050781 1.1601562,0.2050781 0.8378907,0 1.5703125,-0.2871094 0.7324219,-0.2871093 1.3710938,-0.8613281 h 0.082031 z"
       id="path10" />
    <path
       d="M 10.576172,0 H 9.4746094 v -9.1171875 h 1.1015626 z"
       id="path12" />
    <path
       d="m 13.939453,-7.640625 h -1.242187 v -1.1425781 h 1.242187 z M 13.869141,0 h -1.101563 v -6.5449219 h 1.101563 z"
       id="path14" />
    <path
       d="m 25.599609,0 h -1.101562 v -3.7265625 q 0,-0.421875 -0.04102,-0.8144531 -0.03516,-0.3925781 -0.158203,-0.6269531 -0.134766,-0.2519532 -0.386719,-0.3808594 -0.251953,-0.1289063 -0.726562,-0.1289063 -0.462891,0 -0.925781,0.234375 -0.462891,0.2285157 -0.925782,0.5859375 0.01758,0.1347657 0.0293,0.3164063 0.01172,0.1757812 0.01172,0.3515625 V 0 h -1.101563 v -3.7265625 q 0,-0.4335937 -0.04102,-0.8203125 -0.03516,-0.3925781 -0.158203,-0.6269531 -0.134766,-0.2519531 -0.386719,-0.375 -0.251953,-0.1289063 -0.726563,-0.1289063 -0.451171,0 -0.908203,0.2226563 -0.451172,0.2226562 -0.902343,0.5683594 V 0 h -1.101563 v -6.5449219 h 1.101563 v 0.7265625 q 0.515625,-0.4277343 1.02539,-0.6679687 0.515625,-0.2402344 1.095703,-0.2402344 0.667969,0 1.13086,0.28125 0.46875,0.28125 0.697265,0.7792969 0.667969,-0.5625 1.21875,-0.8085938 0.550782,-0.2519531 1.177735,-0.2519531 1.078125,0 1.58789,0.65625 0.515625,0.6503906 0.515625,1.8222656 z"
       id="path16" />
    <path
       d="m 32.806641,0 h -1.095704 v -0.69726562 q -0.146484,0.0996094 -0.398437,0.28124999 -0.246094,0.17578125 -0.480469,0.28125001 Q 30.556641,0 30.199219,0.08789062 q -0.357422,0.09375 -0.837891,0.09375 -0.884766,0 -1.5,-0.5859375 -0.615234,-0.5859375 -0.615234,-1.49414062 0,-0.7441406 0.316406,-1.2011719 0.322266,-0.4628906 0.914062,-0.7265625 0.597657,-0.2636718 1.435547,-0.3574218 0.837891,-0.09375 1.798828,-0.140625 v -0.1699219 q 0,-0.375 -0.134765,-0.6210938 -0.128906,-0.2460937 -0.375,-0.3867187 -0.234375,-0.1347656 -0.5625,-0.1816406 -0.328125,-0.046875 -0.685547,-0.046875 -0.433594,0 -0.966797,0.1171875 -0.533203,0.1113281 -1.101562,0.328125 h -0.05859 v -1.1191407 q 0.322265,-0.087891 0.93164,-0.1933593 0.609375,-0.1054688 1.201172,-0.1054688 0.691407,0 1.201172,0.1171875 0.515625,0.1113281 0.890625,0.3867188 0.369141,0.2695312 0.5625,0.6972656 0.19336,0.4277344 0.19336,1.0605469 z m -1.095704,-1.6113281 v -1.8222657 q -0.503906,0.029297 -1.189453,0.087891 -0.679687,0.058594 -1.078125,0.1699218 -0.474609,0.1347657 -0.767578,0.421875 -0.292969,0.28125 -0.292969,0.7792969 0,0.5625 0.339844,0.8496094 0.339844,0.28125 1.03711,0.28125 0.580078,0 1.060546,-0.2226562 0.480469,-0.2285157 0.890625,-0.5449222 z"
       id="path18" />
    <path
       d="m 38.326172,-0.05859375 q -0.310547,0.08203125 -0.679688,0.13476562 -0.363281,0.05273438 -0.65039,0.05273438 -1.001953,0 -1.523438,-0.5390625 -0.521484,-0.5390625 -0.521484,-1.72851565 v -3.4804687 h -0.744141 v -0.9257813 h 0.744141 v -1.8808594 h 1.101562 v 1.8808594 h 2.273438 v 0.9257813 h -2.273438 v 2.9824218 q 0,0.515625 0.02344,0.8085938 0.02344,0.2871094 0.164062,0.5390625 0.128907,0.234375 0.351563,0.34570312 0.228515,0.10546875 0.691406,0.10546875 0.269531,0 0.5625,-0.0761719 0.292969,-0.0820313 0.421875,-0.13476557 h 0.05859 z"
       id="path20" />
    <path
       d="M 45.134766,-3.1582031 H 40.3125 q 0,0.6035156 0.181641,1.0546875 0.18164,0.4453125 0.498046,0.7324219 0.304688,0.28125 0.720704,0.42187495 0.421875,0.140625 0.925781,0.140625 0.667969,0 1.341797,-0.26367185 0.679687,-0.2695313 0.966797,-0.5273438 h 0.05859 v 1.2011719 q -0.55664,0.234375 -1.136718,0.39257812 -0.580079,0.15820313 -1.21875,0.15820313 -1.628907,0 -2.542969,-0.87890625 -0.914063,-0.8847656 -0.914063,-2.5078125 0,-1.6054687 0.873047,-2.5488281 0.878906,-0.9433594 2.308594,-0.9433594 1.324219,0 2.039062,0.7734375 0.720704,0.7734375 0.720704,2.1972656 z m -1.072266,-0.84375 q -0.0059,-0.8671875 -0.439453,-1.3417969 -0.427735,-0.4746094 -1.306641,-0.4746094 -0.884765,0 -1.412109,0.5214844 -0.521485,0.5214844 -0.591797,1.2949219 z"
       id="path22" />
    <path
       d="m 53.373047,1.7578125 h -7.675781 v -0.703125 h 7.675781 z"
       id="path24" />
    <path
       d="m 57.597656,0 h -3.445312 v -0.890625 h 1.142578 v -6.9433594 h -1.142578 v -0.890625 h 3.445312 v 0.890625 h -1.142578 v 6.9433594 h 1.142578 z"
       id="path26" />
    <path
       d="m 64.957031,0 h -1.101562 v -3.7265625 q 0,-0.4511719 -0.05273,-0.84375 Q 63.75,-4.96875 63.609375,-5.1914062 63.462891,-5.4375 63.1875,-5.5546875 q -0.275391,-0.1230469 -0.714844,-0.1230469 -0.451172,0 -0.943359,0.2226563 -0.492188,0.2226562 -0.94336,0.5683594 V 0 h -1.101562 v -6.5449219 h 1.101562 v 0.7265625 q 0.515625,-0.4277343 1.066407,-0.6679687 0.550781,-0.2402344 1.130859,-0.2402344 1.060547,0 1.617188,0.6386719 0.55664,0.6386719 0.55664,1.8398437 z"
       id="path28" />
    <path
       d="m 72.386719,0 h -1.101563 v -0.68554687 q -0.474609,0.41015624 -0.990234,0.63867187 -0.515625,0.22851562 -1.119141,0.22851562 -1.171875,0 -1.863281,-0.90234374 -0.685547,-0.90234378 -0.685547,-2.50195318 0,-0.8320312 0.234375,-1.4824218 0.240234,-0.6503906 0.644531,-1.1074219 0.398438,-0.4453125 0.925782,-0.6796875 0.533203,-0.234375 1.101562,-0.234375 0.515625,0 0.914063,0.1113281 0.398437,0.1054688 0.83789,0.3339844 v -2.8359375 h 1.101563 z m -1.101563,-1.6113281 v -3.7558594 q -0.445312,-0.1992187 -0.796875,-0.2753906 -0.351562,-0.076172 -0.767578,-0.076172 -0.925781,0 -1.441406,0.6445313 -0.515625,0.6445312 -0.515625,1.8281249 0,1.1660157 0.398437,1.7753907 0.398438,0.6035156 1.277344,0.6035156 0.46875,0 0.949219,-0.2050781 0.480469,-0.2109375 0.896484,-0.5390624 z"
       id="path30" />
    <path
       d="m 75.738281,-7.640625 h -1.242187 v -1.1425781 h 1.242187 z M 75.667969,0 h -1.101563 v -6.5449219 h 1.101563 z"
       id="path32" />
    <path
       d="M 82.6875,-0.41015625 Q 82.136719,-0.14648437 81.638672,0 q -0.492188,0.14648437 -1.048828,0.14648437 -0.708985,0 -1.300782,-0.20507812 -0.591796,-0.2109375 -1.013671,-0.6328125 -0.427735,-0.42187495 -0.66211,-1.06640625 -0.234375,-0.6445313 -0.234375,-1.5058594 0,-1.6054687 0.878906,-2.5195312 0.884766,-0.9140625 2.332032,-0.9140625 0.5625,0 1.101562,0.1582031 0.544922,0.1582031 0.996094,0.3867188 v 1.2246093 H 82.62891 Q 82.125,-5.3203125 81.585937,-5.53125 q -0.533203,-0.2109375 -1.042968,-0.2109375 -0.9375,0 -1.482422,0.6328125 -0.539063,0.6269531 -0.539063,1.8457031 0,1.1835938 0.527344,1.8222657 0.533203,0.63281245 1.494141,0.63281245 0.333984,0 0.679687,-0.0878906 Q 81.568359,-0.984375 81.84375,-1.125 q 0.240234,-0.1230469 0.451172,-0.2578125 0.210937,-0.140625 0.333984,-0.2402344 h 0.05859 z"
       id="path34" />
    <path
       d="m 89.578125,-3.1582031 h -4.822266 q 0,0.6035156 0.181641,1.0546875 0.181641,0.4453125 0.498047,0.7324219 0.304687,0.28125 0.720703,0.42187495 0.421875,0.140625 0.925781,0.140625 0.667969,0 1.341797,-0.26367185 0.679688,-0.2695313 0.966797,-0.5273438 h 0.05859 v 1.2011719 q -0.556641,0.234375 -1.136719,0.39257812 -0.580078,0.15820313 -1.21875,0.15820313 -1.628906,0 -2.542969,-0.87890625 -0.914062,-0.8847656 -0.914062,-2.5078125 0,-1.6054687 0.873047,-2.5488281 0.878906,-0.9433594 2.308593,-0.9433594 1.324219,0 2.039063,0.7734375 0.720703,0.7734375 0.720703,2.1972656 z m -1.072266,-0.84375 Q 88.5,-4.8691406 88.066406,-5.34375 q -0.427734,-0.4746094 -1.30664,-0.4746094 -0.884766,0 -1.41211,0.5214844 -0.521484,0.5214844 -0.591797,1.2949219 z"
       id="path36" />
    <path
       d="m 95.923828,-1.8867187 q 0,0.89648432 -0.744141,1.47070307 -0.738281,0.57421875 -2.021484,0.57421875 -0.726562,0 -1.335937,-0.16992187 Q 91.21875,-0.1875 90.808594,-0.39257813 V -1.6289062 h 0.05859 q 0.521485,0.3925781 1.160157,0.6269531 0.638672,0.2285156 1.224609,0.2285156 0.726563,0 1.136719,-0.234375 0.410156,-0.234375 0.410156,-0.7382812 0,-0.3867188 -0.222656,-0.5859376 Q 94.353513,-2.53125 93.7207,-2.671875 q -0.234375,-0.052734 -0.615234,-0.1230469 -0.375,-0.070312 -0.685547,-0.1523437 -0.861328,-0.2285157 -1.22461,-0.6679688 -0.357421,-0.4453125 -0.357421,-1.0898437 0,-0.4042969 0.164062,-0.7617188 0.169922,-0.3574218 0.509766,-0.6386718 0.328125,-0.2753907 0.832031,-0.4335938 0.509766,-0.1640625 1.136719,-0.1640625 0.585937,0 1.183593,0.1464844 0.603516,0.140625 1.001954,0.3457031 v 1.1777344 h -0.05859 q -0.421875,-0.3105469 -1.025391,-0.5214844 -0.603515,-0.2167969 -1.183594,-0.2167969 -0.603515,0 -1.019531,0.234375 -0.416015,0.2285157 -0.416015,0.6855469 0,0.4042969 0.251953,0.609375 0.246093,0.2050781 0.796875,0.3339844 0.304687,0.070312 0.679687,0.140625 0.38086,0.070312 0.632813,0.1289062 0.767578,0.1757813 1.183593,0.6035156 0.416016,0.4335938 0.416015,1.1484376 z"
       id="path38" />
  </g>
</svg>
