<svg width="786.801" height="97.2" viewBox="0 0 786.801 97.2" xmlns="http://www.w3.org/2000/svg"><g id="svgGroup" stroke-linecap="round" fill-rule="evenodd" font-size="9pt" stroke="#000" stroke-width="0.25mm" fill="#000" style="stroke:#000;stroke-width:0.25mm;fill:#000"><path d="M 375.301 74 L 366.301 74 L 366.301 4 L 379.601 4 L 399.001 48.3 L 418.101 4 L 431.701 4 L 431.701 74 L 422.201 74 L 422.201 16.1 L 403.501 58.2 L 394.101 58.2 L 375.301 16.1 L 375.301 74 Z M 129.001 74 L 120.001 74 L 120.001 22 L 128.701 22 L 128.701 30.7 Q 131.501 26.5 135.801 23.65 A 17.205 17.205 0 0 1 145.003 20.809 A 20.858 20.858 0 0 1 145.601 20.8 A 20.994 20.994 0 0 1 150.018 21.24 Q 153.004 21.882 155.286 23.463 A 13.128 13.128 0 0 1 155.751 23.8 A 15.751 15.751 0 0 1 161.198 31.489 A 19.154 19.154 0 0 1 161.301 31.8 Q 164.401 27.2 168.651 24 A 15.669 15.669 0 0 1 175.441 21.116 A 21.446 21.446 0 0 1 179.201 20.8 A 21.437 21.437 0 0 1 184.088 21.322 Q 187.674 22.162 190.163 24.351 A 12.994 12.994 0 0 1 191.851 26.15 A 18.992 18.992 0 0 1 195.262 33.422 Q 196.001 36.472 196.001 40.1 L 196.001 74 L 187.001 74 L 187.001 40.8 A 19.042 19.042 0 0 0 186.664 37.111 Q 186.228 34.905 185.229 33.161 A 10.982 10.982 0 0 0 184.501 32.05 A 7.974 7.974 0 0 0 178.687 28.754 A 10.678 10.678 0 0 0 177.601 28.7 A 11.926 11.926 0 0 0 170.842 30.827 A 15.996 15.996 0 0 0 169.251 32.05 Q 165.401 35.4 162.501 39.9 L 162.501 74 L 153.501 74 L 153.501 40.8 A 19.042 19.042 0 0 0 153.164 37.111 Q 152.728 34.905 151.729 33.161 A 10.982 10.982 0 0 0 151.001 32.05 A 7.974 7.974 0 0 0 145.187 28.754 A 10.678 10.678 0 0 0 144.101 28.7 A 12.02 12.02 0 0 0 137.782 30.528 A 16.244 16.244 0 0 0 135.801 31.95 Q 131.901 35.2 129.001 39.6 L 129.001 74 Z M 48.901 6.4 L 46.001 14.4 Q 42.901 12.9 39.651 12 Q 36.858 11.227 33.215 11.118 A 40.705 40.705 0 0 0 32.001 11.1 A 21.173 21.173 0 0 0 24.096 12.555 A 19.981 19.981 0 0 0 20.551 14.4 A 21.167 21.167 0 0 0 14.185 20.981 A 26.978 26.978 0 0 0 12.601 23.9 Q 9.701 30.1 9.701 38.9 Q 9.701 47.3 12.551 53.6 A 25.677 25.677 0 0 0 16.137 59.428 A 21.423 21.423 0 0 0 20.451 63.4 A 19.703 19.703 0 0 0 31.596 66.897 A 23.894 23.894 0 0 0 32.001 66.9 A 33.715 33.715 0 0 0 35.972 66.678 Q 38.448 66.384 40.501 65.7 Q 44.101 64.5 47.501 62.6 L 50.401 70.5 A 37.561 37.561 0 0 1 45.906 72.544 A 47.894 47.894 0 0 1 41.951 73.85 A 33.592 33.592 0 0 1 36.985 74.841 Q 34.504 75.155 31.706 75.194 A 57.414 57.414 0 0 1 30.901 75.2 A 32.384 32.384 0 0 1 21.576 73.899 A 27.961 27.961 0 0 1 14.801 70.85 A 28.6 28.6 0 0 1 4.924 60.405 A 34.916 34.916 0 0 1 3.901 58.45 A 37.611 37.611 0 0 1 0.801 48.733 Q 0.026 44.467 0.001 39.614 A 62.816 62.816 0 0 1 0.001 39.3 Q 0.001 28.6 3.951 20.35 Q 7.901 12.1 15.151 7.45 A 29.371 29.371 0 0 1 27.831 3.039 A 37.292 37.292 0 0 1 32.101 2.8 A 45.639 45.639 0 0 1 37.159 3.068 A 35.2 35.2 0 0 1 41.201 3.75 A 38.224 38.224 0 0 1 48.675 6.294 A 35.605 35.605 0 0 1 48.901 6.4 Z M 653.301 69.8 L 657.101 62.3 A 18.557 18.557 0 0 0 660.244 64.426 Q 661.799 65.27 663.651 65.95 A 24.073 24.073 0 0 0 671.262 67.387 A 27.464 27.464 0 0 0 672.101 67.4 Q 677.493 67.4 680.336 65.685 A 7.738 7.738 0 0 0 680.551 65.55 Q 683.401 63.7 683.401 60.8 A 7.123 7.123 0 0 0 683.087 58.653 A 6.212 6.212 0 0 0 682.351 57.1 A 6.384 6.384 0 0 0 681.422 56.006 Q 680.408 55.034 678.734 54.081 A 22.3 22.3 0 0 0 678.501 53.95 A 28.462 28.462 0 0 0 676.507 52.957 Q 674.391 51.995 671.402 50.946 A 103.602 103.602 0 0 0 670.401 50.6 A 46.616 46.616 0 0 1 666.003 48.857 Q 663.889 47.883 662.213 46.795 A 19.335 19.335 0 0 1 659.451 44.65 A 11.324 11.324 0 0 1 656.157 38.654 A 16.794 16.794 0 0 1 655.801 35.1 Q 655.801 29.1 661.051 24.95 Q 665.455 21.469 672.709 20.908 A 37.527 37.527 0 0 1 675.601 20.8 A 40.794 40.794 0 0 1 680.046 21.031 Q 682.354 21.284 684.371 21.815 A 25.234 25.234 0 0 1 684.501 21.85 Q 688.401 22.9 691.501 24.5 L 689.001 31.9 Q 686.301 30.3 682.851 29.3 A 25.024 25.024 0 0 0 678.367 28.453 A 31.837 31.837 0 0 0 675.201 28.3 A 20.632 20.632 0 0 0 672.264 28.495 Q 669.178 28.94 667.301 30.4 A 9.322 9.322 0 0 0 665.943 31.673 Q 665.24 32.492 664.906 33.365 A 4.529 4.529 0 0 0 664.601 35 A 4.921 4.921 0 0 0 666.096 38.552 A 7.082 7.082 0 0 0 666.701 39.1 Q 668.766 40.772 674.699 42.734 A 84.459 84.459 0 0 0 674.901 42.8 A 67.753 67.753 0 0 1 679.963 44.698 Q 685.89 47.217 688.701 50.1 Q 692.601 54.1 692.601 60.1 Q 692.601 66.848 687.35 70.855 A 16.618 16.618 0 0 1 686.951 71.15 Q 682.211 74.547 674.762 75.095 A 40.423 40.423 0 0 1 671.801 75.2 Q 665.901 75.2 661.151 73.7 A 30.883 30.883 0 0 1 657.31 72.215 Q 655.33 71.284 653.748 70.136 A 18.229 18.229 0 0 1 653.301 69.8 Z M 542.901 27.2 L 542.901 0 L 551.901 0 L 551.901 61.4 A 12.15 12.15 0 0 0 552.002 63.036 Q 552.334 65.47 553.751 66.35 Q 555.601 67.5 557.801 67.5 L 555.901 74.5 Q 546.401 74.5 544.301 66.9 Q 542.101 70 538.151 72.6 Q 534.201 75.2 528.201 75.2 Q 521.801 75.2 516.501 71.9 A 22.692 22.692 0 0 1 508.963 64.109 A 27.622 27.622 0 0 1 508.101 62.55 A 27.533 27.533 0 0 1 505.512 54.608 A 37.221 37.221 0 0 1 505.001 48.3 A 33.94 33.94 0 0 1 505.89 40.386 A 27.963 27.963 0 0 1 508.151 34.2 A 27.291 27.291 0 0 1 512.77 27.609 A 24.186 24.186 0 0 1 516.551 24.4 Q 521.801 20.8 528.101 20.8 A 21.642 21.642 0 0 1 532.373 21.202 A 15.942 15.942 0 0 1 537.051 22.9 A 34.343 34.343 0 0 1 539.631 24.489 Q 540.854 25.324 541.826 26.174 A 16.59 16.59 0 0 1 542.901 27.2 Z M 353.001 51.7 L 316.601 51.7 A 24.088 24.088 0 0 0 317.74 56.725 Q 319.076 60.538 321.701 63.1 Q 325.901 67.2 332.801 67.2 Q 337.301 67.2 340.901 66.25 Q 344.501 65.3 347.801 63.8 L 349.901 71.5 A 40.77 40.77 0 0 1 345.566 73.126 A 51.863 51.863 0 0 1 341.801 74.15 A 38.914 38.914 0 0 1 336.709 74.969 A 52.025 52.025 0 0 1 331.701 75.2 A 28.318 28.318 0 0 1 323.955 74.195 A 21.108 21.108 0 0 1 313.951 68.05 A 23.521 23.521 0 0 1 308.746 58.51 Q 307.401 53.845 307.401 48 A 35.359 35.359 0 0 1 308.233 40.178 A 28.84 28.84 0 0 1 310.351 34.05 A 24.642 24.642 0 0 1 315.367 26.968 A 22.887 22.887 0 0 1 318.601 24.35 A 21.048 21.048 0 0 1 328.86 20.878 A 26.205 26.205 0 0 1 330.901 20.8 Q 338.401 20.8 343.351 24.05 Q 348.301 27.3 350.801 32.8 A 28.185 28.185 0 0 1 353.227 42.664 A 33.434 33.434 0 0 1 353.301 44.9 A 75.204 75.204 0 0 1 353.01 51.597 A 69.426 69.426 0 0 1 353.001 51.7 Z M 610.901 51.7 L 574.501 51.7 A 24.088 24.088 0 0 0 575.64 56.725 Q 576.976 60.538 579.601 63.1 Q 583.801 67.2 590.701 67.2 Q 595.201 67.2 598.801 66.25 Q 602.401 65.3 605.701 63.8 L 607.801 71.5 A 40.77 40.77 0 0 1 603.466 73.126 A 51.863 51.863 0 0 1 599.701 74.15 A 38.914 38.914 0 0 1 594.609 74.969 A 52.025 52.025 0 0 1 589.601 75.2 A 28.318 28.318 0 0 1 581.855 74.195 A 21.108 21.108 0 0 1 571.851 68.05 A 23.521 23.521 0 0 1 566.646 58.51 Q 565.301 53.845 565.301 48 A 35.359 35.359 0 0 1 566.133 40.178 A 28.84 28.84 0 0 1 568.251 34.05 A 24.642 24.642 0 0 1 573.267 26.968 A 22.887 22.887 0 0 1 576.501 24.35 A 21.048 21.048 0 0 1 586.76 20.878 A 26.205 26.205 0 0 1 588.801 20.8 Q 596.301 20.8 601.251 24.05 Q 606.201 27.3 608.701 32.8 A 28.185 28.185 0 0 1 611.127 42.664 A 33.434 33.434 0 0 1 611.201 44.9 A 75.204 75.204 0 0 1 610.91 51.597 A 69.426 69.426 0 0 1 610.901 51.7 Z M 275.201 56.1 L 275.201 31.7 L 266.201 31.7 L 266.201 23.9 L 275.401 23.9 L 277.301 7.5 L 284.201 7.5 L 284.201 23.9 L 298.601 23.9 L 298.601 31.7 L 284.201 31.7 L 284.201 56.8 A 21.559 21.559 0 0 0 284.368 59.596 Q 284.842 63.202 286.651 64.9 Q 289.101 67.2 292.501 67.2 Q 295.001 67.2 297.251 66.4 Q 299.501 65.6 301.401 64.5 L 303.901 71.7 A 18.546 18.546 0 0 1 302.282 72.556 Q 301.481 72.935 300.535 73.308 A 43.365 43.365 0 0 1 298.501 74.05 Q 295.101 75.2 291.401 75.2 Q 283.901 75.2 279.551 70.25 A 16.116 16.116 0 0 1 276.322 64.348 Q 275.56 61.917 275.316 58.98 A 34.777 34.777 0 0 1 275.201 56.1 Z M 247.101 26.2 L 247.101 22 L 255.301 22 L 255.301 61.4 A 12.15 12.15 0 0 0 255.402 63.036 Q 255.734 65.47 257.151 66.35 Q 259.001 67.5 261.201 67.5 L 259.301 74.5 A 17.722 17.722 0 0 1 255.036 74.028 Q 249.399 72.628 247.804 67.08 A 13.59 13.59 0 0 1 247.701 66.7 A 21.307 21.307 0 0 1 244.591 70.126 A 28.498 28.498 0 0 1 241.451 72.55 Q 237.501 75.2 231.401 75.2 Q 224.901 75.2 219.601 71.9 A 22.947 22.947 0 0 1 212.188 64.373 A 27.923 27.923 0 0 1 211.151 62.55 A 27.228 27.228 0 0 1 208.521 54.608 A 36.644 36.644 0 0 1 208.001 48.3 A 33.142 33.142 0 0 1 208.997 40.031 A 27.968 27.968 0 0 1 211.151 34.3 Q 214.301 28.1 219.851 24.45 A 22.297 22.297 0 0 1 231.045 20.844 A 27.388 27.388 0 0 1 232.601 20.8 A 22.584 22.584 0 0 1 237.394 21.29 A 18.703 18.703 0 0 1 240.751 22.35 A 26.002 26.002 0 0 1 245.037 24.644 A 22.103 22.103 0 0 1 247.101 26.2 Z M 718.101 94.9 L 720.301 87.4 Q 721.504 88.14 723.177 88.709 A 20.464 20.464 0 0 0 723.451 88.8 Q 725.301 89.4 727.201 89.4 Q 734.874 89.4 735.62 80.762 A 22.819 22.819 0 0 0 735.701 78.8 L 735.701 22 L 744.701 22 L 744.701 79.7 A 27.744 27.744 0 0 1 744.417 83.794 Q 744.092 85.965 743.397 87.758 A 14.026 14.026 0 0 1 742.501 89.65 A 14.572 14.572 0 0 1 739.262 93.6 A 13.375 13.375 0 0 1 736.601 95.35 A 17.63 17.63 0 0 1 730.27 97.111 A 21.513 21.513 0 0 1 728.301 97.2 Q 722.201 97.2 718.101 94.9 Z M 59.901 57.7 L 59.901 0 L 68.901 0 L 68.901 56.8 A 20.644 20.644 0 0 0 69.089 59.688 Q 69.551 62.952 71.151 64.8 A 7.363 7.363 0 0 0 75.734 67.276 A 10.724 10.724 0 0 0 77.401 67.4 Q 79.301 67.4 81.151 66.95 A 22.192 22.192 0 0 0 82.614 66.544 Q 83.549 66.247 84.301 65.9 L 86.501 73.2 Q 85.101 73.822 83.189 74.323 A 34.978 34.978 0 0 1 82.051 74.6 A 23.816 23.816 0 0 1 78.895 75.085 A 30.514 30.514 0 0 1 76.201 75.2 A 20.862 20.862 0 0 1 71.31 74.646 A 17.544 17.544 0 0 1 67.901 73.45 A 12.683 12.683 0 0 1 62.576 68.685 A 15.856 15.856 0 0 1 62.051 67.8 Q 60.316 64.654 59.981 60.012 A 32.105 32.105 0 0 1 59.901 57.7 Z M 622.701 57.7 L 622.701 0 L 631.701 0 L 631.701 56.8 A 20.644 20.644 0 0 0 631.889 59.688 Q 632.351 62.952 633.951 64.8 A 7.363 7.363 0 0 0 638.534 67.276 A 10.724 10.724 0 0 0 640.201 67.4 Q 642.101 67.4 643.951 66.95 A 22.192 22.192 0 0 0 645.414 66.544 Q 646.349 66.247 647.101 65.9 L 649.301 73.2 Q 647.901 73.822 645.989 74.323 A 34.978 34.978 0 0 1 644.851 74.6 A 23.816 23.816 0 0 1 641.695 75.085 A 30.514 30.514 0 0 1 639.001 75.2 A 20.862 20.862 0 0 1 634.11 74.646 A 17.544 17.544 0 0 1 630.701 73.45 A 12.683 12.683 0 0 1 625.376 68.685 A 15.856 15.856 0 0 1 624.851 67.8 Q 623.116 64.654 622.781 60.012 A 32.105 32.105 0 0 1 622.701 57.7 Z M 760.201 57.7 L 760.201 0 L 769.201 0 L 769.201 56.8 A 20.644 20.644 0 0 0 769.389 59.688 Q 769.851 62.952 771.451 64.8 A 7.363 7.363 0 0 0 776.034 67.276 A 10.724 10.724 0 0 0 777.701 67.4 Q 779.601 67.4 781.451 66.95 A 22.192 22.192 0 0 0 782.914 66.544 Q 783.849 66.247 784.601 65.9 L 786.801 73.2 Q 785.401 73.822 783.489 74.323 A 34.978 34.978 0 0 1 782.351 74.6 A 23.816 23.816 0 0 1 779.195 75.085 A 30.514 30.514 0 0 1 776.501 75.2 A 20.862 20.862 0 0 1 771.61 74.646 A 17.544 17.544 0 0 1 768.201 73.45 A 12.683 12.683 0 0 1 762.876 68.685 A 15.856 15.856 0 0 1 762.351 67.8 Q 760.616 64.654 760.281 60.012 A 32.105 32.105 0 0 1 760.201 57.7 Z M 457.301 71.75 A 24.559 24.559 0 0 0 461.899 73.84 Q 465.954 75.2 470.601 75.2 Q 478.001 75.2 483.851 71.8 Q 489.701 68.4 493.101 62.25 A 26.255 26.255 0 0 0 495.754 55.109 A 34.184 34.184 0 0 0 496.501 47.8 A 34.542 34.542 0 0 0 496.016 41.891 A 25.795 25.795 0 0 0 493.051 33.45 Q 489.601 27.4 483.751 24.1 A 24.848 24.848 0 0 0 479.109 22.073 A 27.738 27.738 0 0 0 470.601 20.8 A 31.325 31.325 0 0 0 469.021 20.839 A 26.169 26.169 0 0 0 457.401 24.1 Q 451.501 27.4 448.101 33.5 A 26.023 26.023 0 0 0 445.351 41.09 A 35.006 35.006 0 0 0 444.701 48 A 34.82 34.82 0 0 0 444.966 52.354 A 27.451 27.451 0 0 0 448.051 62.15 Q 451.401 68.3 457.301 71.75 Z M 104.001 74 L 95.001 74 L 95.001 22 L 104.001 22 L 104.001 74 Z M 470.601 67.2 Q 478.501 67.2 482.901 61.85 A 18.802 18.802 0 0 0 486.72 53.76 A 27.105 27.105 0 0 0 487.301 48 Q 487.301 42.8 485.101 38.45 A 19.198 19.198 0 0 0 480.929 32.881 A 18.17 18.17 0 0 0 479.151 31.45 Q 475.401 28.8 470.601 28.8 A 19.249 19.249 0 0 0 465.375 29.472 A 14.037 14.037 0 0 0 458.301 34 A 17.878 17.878 0 0 0 454.627 41.374 Q 453.901 44.306 453.901 47.8 Q 453.901 53 456.101 57.45 A 19.437 19.437 0 0 0 459.631 62.49 A 17.627 17.627 0 0 0 462.051 64.55 Q 465.801 67.2 470.601 67.2 Z M 246.301 60.7 L 246.301 32.8 Q 243.601 30.9 240.351 29.75 Q 237.101 28.6 233.501 28.6 A 15.924 15.924 0 0 0 228.53 29.354 A 14.024 14.024 0 0 0 225.051 31.05 A 16.301 16.301 0 0 0 220.031 36.474 A 19.962 19.962 0 0 0 219.301 37.85 A 20.663 20.663 0 0 0 217.547 43.527 A 27.678 27.678 0 0 0 217.201 48 Q 217.201 53.6 219.301 57.95 A 17.602 17.602 0 0 0 222.406 62.496 A 15.697 15.697 0 0 0 225.101 64.75 Q 228.801 67.2 233.401 67.2 Q 237.201 67.2 240.601 65.35 Q 244.001 63.5 246.301 60.7 Z M 542.901 60.9 L 542.901 35.1 A 15.847 15.847 0 0 0 540.79 32.927 Q 539.669 31.964 538.27 31.066 A 28.139 28.139 0 0 0 537.601 30.65 Q 534.201 28.6 530.101 28.6 A 14.946 14.946 0 0 0 525.145 29.4 A 13.385 13.385 0 0 0 521.701 31.2 A 16.69 16.69 0 0 0 516.531 37.35 A 19.924 19.924 0 0 0 516.151 38.15 A 22.19 22.19 0 0 0 514.411 44.514 A 28.113 28.113 0 0 0 514.201 48 A 24.757 24.757 0 0 0 514.793 53.519 A 20.327 20.327 0 0 0 516.301 57.85 A 18.205 18.205 0 0 0 519.341 62.363 A 16.122 16.122 0 0 0 522.051 64.7 Q 525.701 67.2 530.201 67.2 Q 533.901 67.2 537.251 65.45 Q 540.601 63.7 542.901 60.9 Z M 316.501 44.4 L 345.001 44.4 A 24.355 24.355 0 0 0 344.596 39.815 Q 344.101 37.231 342.996 35.207 A 12.422 12.422 0 0 0 341.201 32.7 A 12.488 12.488 0 0 0 334.24 28.924 A 18.395 18.395 0 0 0 330.701 28.6 A 13.58 13.58 0 0 0 325.589 29.535 A 12.524 12.524 0 0 0 321.101 32.65 Q 317.301 36.7 316.501 44.4 Z M 574.401 44.4 L 602.901 44.4 A 24.355 24.355 0 0 0 602.496 39.815 Q 602.001 37.231 600.896 35.207 A 12.422 12.422 0 0 0 599.101 32.7 A 12.488 12.488 0 0 0 592.14 28.924 A 18.395 18.395 0 0 0 588.601 28.6 A 13.58 13.58 0 0 0 583.489 29.535 A 12.524 12.524 0 0 0 579.001 32.65 Q 575.201 36.7 574.401 44.4 Z M 706.963 73.262 A 6.418 6.418 0 0 0 711.601 75.2 A 8.605 8.605 0 0 0 712.223 75.178 A 6.461 6.461 0 0 0 716.401 73.35 Q 718.301 71.5 718.301 68.5 A 6.225 6.225 0 0 0 717.722 65.829 A 6.955 6.955 0 0 0 716.251 63.8 Q 714.201 61.8 711.601 61.8 A 8.813 8.813 0 0 0 709.748 61.985 A 5.979 5.979 0 0 0 706.701 63.6 A 5.927 5.927 0 0 0 705.133 66.44 A 8.624 8.624 0 0 0 704.901 68.5 Q 704.901 71.2 706.901 73.2 A 8.317 8.317 0 0 0 706.963 73.262 Z M 735.638 11.288 A 5.973 5.973 0 0 0 740.001 13.1 A 8.175 8.175 0 0 0 741.497 12.969 A 5.647 5.647 0 0 0 744.601 11.35 Q 746.301 9.6 746.301 6.8 A 7.26 7.26 0 0 0 746.3 6.719 A 6.06 6.06 0 0 0 744.451 2.35 A 7.395 7.395 0 0 0 744.393 2.293 A 6.059 6.059 0 0 0 740.001 0.5 A 8.264 8.264 0 0 0 738.345 0.658 A 5.661 5.661 0 0 0 735.401 2.2 A 5.588 5.588 0 0 0 733.93 4.832 A 7.987 7.987 0 0 0 733.701 6.8 A 5.992 5.992 0 0 0 734.193 9.219 A 6.643 6.643 0 0 0 735.551 11.2 A 7.466 7.466 0 0 0 735.638 11.288 Z M 95.138 11.288 A 5.973 5.973 0 0 0 99.501 13.1 A 8.175 8.175 0 0 0 100.997 12.969 A 5.647 5.647 0 0 0 104.101 11.35 Q 105.801 9.6 105.801 6.8 A 7.26 7.26 0 0 0 105.8 6.719 A 6.06 6.06 0 0 0 103.951 2.35 A 7.395 7.395 0 0 0 103.893 2.293 A 6.059 6.059 0 0 0 99.501 0.5 A 8.264 8.264 0 0 0 97.845 0.658 A 5.661 5.661 0 0 0 94.901 2.2 A 5.588 5.588 0 0 0 93.43 4.832 A 7.987 7.987 0 0 0 93.201 6.8 A 5.992 5.992 0 0 0 93.693 9.219 A 6.643 6.643 0 0 0 95.051 11.2 A 7.466 7.466 0 0 0 95.138 11.288 Z" vector-effect="non-scaling-stroke"/></g></svg>