<?xml version="1.0" encoding="UTF-8" standalone="no"?>
<svg
   width="150.951"
   height="49.773865"
   viewBox="0 0 150.951 49.773865"
   version="1.1"
   id="svg3386"
   sodipodi:docname="Climate Action Plans.svg"
   inkscape:version="1.2.2 (b0a84865, 2022-12-01)"
   xmlns:inkscape="http://www.inkscape.org/namespaces/inkscape"
   xmlns:sodipodi="http://sodipodi.sourceforge.net/DTD/sodipodi-0.dtd"
   xmlns="http://www.w3.org/2000/svg"
   xmlns:svg="http://www.w3.org/2000/svg"
   xmlns:rdf="http://www.w3.org/1999/02/22-rdf-syntax-ns#"
   xmlns:cc="http://creativecommons.org/ns#"
   xmlns:dc="http://purl.org/dc/elements/1.1/">
  <defs
     id="defs3390" />
  <sodipodi:namedview
     id="namedview3388"
     pagecolor="#ffffff"
     bordercolor="#666666"
     borderopacity="1.0"
     inkscape:showpageshadow="2"
     inkscape:pageopacity="0.0"
     inkscape:pagecheckerboard="0"
     inkscape:deskcolor="#d1d1d1"
     showgrid="false"
     inkscape:zoom="3.2096335"
     inkscape:cx="86.45847"
     inkscape:cy="15.889665"
     inkscape:window-width="1384"
     inkscape:window-height="480"
     inkscape:window-x="1884"
     inkscape:window-y="292"
     inkscape:window-maximized="0"
     inkscape:current-layer="svg3386" />
  <title
     id="title3366">mysociety-logo-white</title>
  <g
     fill="none"
     fill-rule="evenodd"
     id="g3384">
    <path
       d="M 0.136,12.013 C 0.136,10.08 0.102,8.458 0,7.007 H 3.61 L 3.78,9.494 H 3.882 C 4.7,8.182 6.198,6.628 8.992,6.628 c 2.18,0 3.88,1.244 4.596,3.107 h 0.068 c 0.58,-0.933 1.26,-1.624 2.043,-2.106 0.92,-0.657 1.974,-1.002 3.337,-1.002 2.758,0 5.55,1.898 5.55,7.284 v 9.906 H 20.5 v -9.285 c 0,-2.797 -0.952,-4.453 -2.963,-4.453 -1.43,0 -2.485,1.035 -2.927,2.243 -0.103,0.414 -0.204,0.932 -0.204,1.415 v 10.08 h -4.088 v -9.734 c 0,-2.348 -0.92,-4.005 -2.86,-4.005 -1.566,0 -2.622,1.242 -2.997,2.415 -0.17,0.415 -0.237,0.898 -0.237,1.382 v 9.94 H 0.136 V 12.013 m 30.954,-5.006 2.996,9.01 c 0.34,1.036 0.683,2.314 0.92,3.28 h 0.103 c 0.27,-0.966 0.578,-2.21 0.884,-3.313 l 2.588,-8.976 h 4.496 l -4.155,11.46 c -2.282,6.283 -3.814,9.077 -5.79,10.804 -1.635,1.485 -3.338,2.038 -4.394,2.177 l -0.953,-3.594 c 0.715,-0.172 1.6,-0.55 2.452,-1.172 0.783,-0.517 1.702,-1.52 2.28,-2.658 0.17,-0.313 0.273,-0.552 0.273,-0.76 0,-0.173 -0.034,-0.414 -0.24,-0.828 L 26.49,7.007 h 4.596 m 14.476,12.185 c 1.362,0.794 3.405,1.485 5.55,1.485 2.69,0 4.19,-1.277 4.19,-3.174 0,-1.762 -1.16,-2.798 -4.087,-3.868 -3.78,-1.38 -6.2,-3.417 -6.2,-6.766 0,-3.798 3.135,-6.697 8.107,-6.697 2.486,0 4.325,0.552 5.517,1.173 L 57.616,4.762 C 56.798,4.314 55.198,3.657 53.053,3.657 c -2.657,0 -3.815,1.45 -3.815,2.797 0,1.795 1.328,2.623 4.393,3.832 3.984,1.52 5.925,3.556 5.925,6.904 0,3.73 -2.793,7.008 -8.717,7.008 -2.418,0 -4.937,-0.724 -6.198,-1.483 l 0.92,-3.523 M 94.765,23.3 c -0.883,0.413 -2.62,0.897 -4.698,0.897 -5.176,0 -8.548,-3.383 -8.548,-8.595 0,-5.04 3.404,-8.975 9.23,-8.975 1.532,0 3.097,0.346 4.05,0.795 l -0.747,3.175 c -0.68,-0.31 -1.67,-0.656 -3.167,-0.656 -3.2,0 -5.11,2.383 -5.074,5.455 0,3.452 2.213,5.42 5.074,5.42 1.463,0 2.487,-0.312 3.303,-0.657 l 0.575,3.143 M 97.866,7.007 h 4.222 v 16.81 h -4.222 m 4.46,-21.504 c 0,1.277 -0.92,2.28 -2.383,2.28 -1.397,0 -2.317,-1.003 -2.317,-2.28 C 97.626,1 98.58,0 99.976,0 c 1.43,0 2.317,1 2.35,2.313 m 7.218,14.291 c 0.103,3.038 2.453,4.35 5.11,4.35 1.94,0 3.336,-0.277 4.597,-0.762 l 0.613,2.936 c -1.432,0.586 -3.405,1.07 -5.79,1.07 -5.38,0 -8.546,-3.384 -8.546,-8.526 0,-4.66 2.792,-9.045 8.104,-9.045 5.415,0 7.152,4.488 7.152,8.183 0,0.793 -0.067,1.415 -0.135,1.794 h -11.103 z m 7.29,-2.968 c 0.034,-1.554 -0.648,-4.108 -3.44,-4.108 -2.59,0 -3.68,2.38 -3.85,4.108 z m 12.12,-10.944 v 4.315 h 3.986 v 3.177 h -3.986 v 7.42 c 0,2.038 0.545,3.11 2.145,3.11 0.783,0 1.156,-0.07 1.635,-0.21 l 0.068,3.247 c -0.614,0.24 -1.704,0.45 -3.03,0.45 -1.534,0 -2.828,-0.554 -3.61,-1.416 -0.886,-0.966 -1.294,-2.487 -1.294,-4.695 v -7.906 h -2.385 V 7.008 h 2.384 V 3.902 l 4.084,-1.21 m 10.014,4.315 3,9.01 c 0.34,1.036 0.678,2.314 0.918,3.28 h 0.1 c 0.275,-0.966 0.582,-2.21 0.886,-3.313 l 2.588,-8.976 h 4.494 l -4.154,11.46 c -2.282,6.283 -3.813,9.08 -5.79,10.806 -1.634,1.485 -3.338,2.036 -4.39,2.175 l -0.956,-3.592 c 0.715,-0.172 1.602,-0.553 2.452,-1.174 0.783,-0.517 1.703,-1.52 2.282,-2.656 0.172,-0.313 0.273,-0.554 0.273,-0.76 0,-0.173 -0.036,-0.416 -0.24,-0.83 l -6.06,-15.43 h 4.596"
       fill="#FFF"
       id="path3368"
       style="fill:#000000" />
    <path
       d="m 70.18,5.938 c 1.178,0 2.134,0.968 2.134,2.163 0,1.195 -0.956,2.164 -2.135,2.164 -1.18,0 -2.134,-0.97 -2.134,-2.163 0,-1.194 0.955,-2.162 2.133,-2.162"
       fill="#f94950"
       id="path3370" />
    <path
       d="m 70.18,20.387 c 1.178,0 2.134,0.97 2.134,2.164 0,1.195 -0.956,2.164 -2.135,2.164 -1.18,0 -2.134,-0.97 -2.134,-2.163 0,-1.193 0.955,-2.163 2.133,-2.163"
       fill="#41baec"
       id="path3372" />
    <path
       d="m 75.277,8.113 c 1.177,0 2.134,0.968 2.134,2.162 0,1.195 -0.956,2.163 -2.133,2.163 -1.18,0 -2.134,-0.968 -2.134,-2.163 0,-1.194 0.956,-2.162 2.134,-2.162"
       fill="#fa9c30"
       id="path3374" />
    <path
       d="m 66.572,21.923 c -0.842,0.83 -2.194,0.817 -3.017,-0.036 -0.824,-0.855 -0.807,-2.224 0.036,-3.058 0.843,-0.837 2.193,-0.82 3.017,0.033 0.823,0.853 0.808,2.22 -0.035,3.06"
       fill="#9c4cd8"
       id="path3376"
       inkscape:label="path3376" />
    <path
       d="m 77.306,13.102 c 1.177,0 2.134,0.968 2.134,2.163 0,1.192 -0.957,2.16 -2.134,2.16 -1.177,0 -2.132,-0.967 -2.132,-2.16 0,-1.195 0.955,-2.163 2.132,-2.163"
       fill="#fcee21"
       id="path3378" />
    <path
       d="m 63.053,13.223 c 1.18,0 2.134,0.97 2.134,2.163 0,1.195 -0.955,2.164 -2.134,2.164 -1.18,0 -2.134,-0.97 -2.134,-2.164 0,-1.194 0.954,-2.163 2.133,-2.163"
       fill="#c749c3"
       id="path3380" />
    <path
       d="m 73.71,21.964 c -0.832,-0.847 -0.832,-2.214 0,-3.06 0.834,-0.843 2.185,-0.843 3.018,0 0.833,0.846 0.833,2.213 0,3.06 -0.834,0.843 -2.184,0.843 -3.017,0"
       fill="#9fdb50"
       id="path3382" />
  </g>
  <g
     aria-label="Climate Action Plans"
     id="text3874"
     style="font-size:40px"
     transform="matrix(0.35974592,0,0,0.35974592,-2.8087744,36.666485)">
    <path
       d="m 38.518107,33.720261 q -1.074218,0.46875 -1.953125,0.878906 -0.859375,0.410156 -2.265625,0.859375 -1.191406,0.371094 -2.597656,0.625 -1.386719,0.273437 -3.066406,0.273437 -3.164063,0 -5.761719,-0.878906 -2.578125,-0.898437 -4.492187,-2.792969 -1.875,-1.855468 -2.929688,-4.707031 -1.054687,-2.871094 -1.054687,-6.660156 0,-3.59375 1.015625,-6.425781 1.015625,-2.832032 2.929687,-4.785157 1.855469,-1.8945309 4.472656,-2.8906246 2.636719,-0.9960938 5.839844,-0.9960938 2.34375,0 4.667969,0.5664063 2.34375,0.5664062 5.195312,1.9921875 V 13.368698 H 38.225139 Q 35.822795,11.356979 33.459514,10.439011 31.096232,9.5210419 28.40092,9.5210419 q -2.207031,0 -3.984375,0.7226561 -1.757813,0.703125 -3.144531,2.207031 -1.347657,1.464844 -2.109375,3.710938 -0.742188,2.226562 -0.742188,5.15625 0,3.066406 0.820313,5.273437 0.839843,2.207032 2.148437,3.59375 1.367188,1.445313 3.183594,2.148438 1.835937,0.683594 3.867187,0.683594 2.792969,0 5.234375,-0.957032 2.441407,-0.957031 4.570313,-2.871093 h 0.273437 z"
       id="path3876" />
    <path
       d="M 47.404826,35.829636 H 43.732951 V 5.4390106 h 3.671875 z"
       id="path3878" />
    <path
       d="M 58.615764,10.360886 H 54.475139 V 6.5522919 h 4.140625 z m -0.234375,25.46875 H 54.709514 V 14.013229 h 3.671875 z"
       id="path3880" />
    <path
       d="M 97.482951,35.829636 H 93.811076 V 23.407761 q 0,-1.40625 -0.136719,-2.714844 -0.117187,-1.308594 -0.527343,-2.089844 -0.449219,-0.839844 -1.289063,-1.269531 -0.839844,-0.429688 -2.421875,-0.429688 -1.542969,0 -3.085937,0.78125 -1.542969,0.761719 -3.085938,1.953125 0.05859,0.449219 0.09766,1.054688 0.03906,0.585937 0.03906,1.171875 V 35.829636 H 79.729045 V 23.407761 q 0,-1.445313 -0.136719,-2.734375 -0.117187,-1.308594 -0.527344,-2.089844 -0.449218,-0.839844 -1.289062,-1.25 -0.839844,-0.429688 -2.421875,-0.429688 -1.503906,0 -3.027344,0.742188 -1.503906,0.742187 -3.007812,1.894531 V 35.829636 H 65.647014 V 14.013229 h 3.671875 v 2.421875 q 1.71875,-1.425781 3.417968,-2.226562 1.71875,-0.800781 3.652344,-0.800781 2.226563,0 3.769531,0.9375 1.5625,0.9375 2.324219,2.597656 2.226563,-1.875 4.0625,-2.695313 1.835938,-0.839843 3.925781,-0.839843 3.59375,0 5.292969,2.1875 1.71875,2.167968 1.71875,6.074218 z"
       id="path3882" />
    <path
       d="m 121.50639,35.829636 h -3.65235 v -2.324219 q -0.48828,0.332031 -1.32812,0.9375 -0.82031,0.585937 -1.60156,0.9375 -0.91797,0.449219 -2.10938,0.742187 -1.1914,0.3125 -2.79297,0.3125 -2.94922,0 -5,-1.953125 -2.05078,-1.953125 -2.05078,-4.980468 0,-2.480469 1.05469,-4.003907 1.07422,-1.542968 3.04687,-2.421875 1.99219,-0.878906 4.78516,-1.191406 2.79297,-0.3125 5.99609,-0.46875 v -0.566406 q 0,-1.25 -0.44921,-2.070313 -0.42969,-0.820312 -1.25,-1.289062 -0.78125,-0.449219 -1.875,-0.605469 -1.09375,-0.15625 -2.28516,-0.15625 -1.44531,0 -3.22266,0.390625 -1.77734,0.371094 -3.67187,1.09375 h -0.19531 v -3.730469 q 1.07421,-0.292968 3.10546,-0.644531 2.03125,-0.351562 4.00391,-0.351562 2.30469,0 4.00391,0.390625 1.71875,0.371093 2.96875,1.289062 1.23047,0.898438 1.875,2.324219 0.64453,1.425781 0.64453,3.535156 z m -3.65235,-5.371094 v -6.074219 q -1.67968,0.09766 -3.96484,0.292969 -2.26562,0.195312 -3.59375,0.566406 -1.58203,0.449219 -2.55859,1.40625 -0.97657,0.9375 -0.97657,2.597656 0,1.875 1.13282,2.832032 1.13281,0.9375 3.45703,0.9375 1.93359,0 3.53515,-0.742188 1.60157,-0.761719 2.96875,-1.816406 z"
       id="path3884" />
    <path
       d="m 139.90483,35.634323 q -1.03516,0.273438 -2.26563,0.449219 -1.21094,0.175781 -2.16797,0.175781 -3.33984,0 -5.07812,-1.796875 -1.73828,-1.796875 -1.73828,-5.761719 V 17.099167 h -2.48047 v -3.085938 h 2.48047 V 7.7436981 h 3.67187 v 6.2695309 h 7.57813 v 3.085938 h -7.57813 v 9.941406 q 0,1.71875 0.0781,2.695313 0.0781,0.957031 0.54687,1.796875 0.42969,0.78125 1.17188,1.152343 0.76171,0.351563 2.30468,0.351563 0.89844,0 1.875,-0.253906 0.97657,-0.273438 1.40625,-0.449219 h 0.19532 z"
       id="path3886" />
    <path
       d="m 162.60014,25.302292 h -16.07422 q 0,2.011719 0.60547,3.515625 0.60547,1.484375 1.66015,2.441406 1.01563,0.9375 2.40235,1.40625 1.40625,0.46875 3.08594,0.46875 2.22656,0 4.47265,-0.878906 2.26563,-0.898438 3.22266,-1.757813 h 0.19531 v 4.003907 q -1.85547,0.78125 -3.78906,1.308593 -1.9336,0.527344 -4.0625,0.527344 -5.42969,0 -8.47656,-2.929687 -3.04688,-2.949219 -3.04688,-8.359375 0,-5.351563 2.91016,-8.496094 2.92968,-3.144531 7.69531,-3.144531 4.41406,0 6.79687,2.578125 2.40235,2.578125 2.40235,7.324218 z m -3.57422,-2.8125 q -0.0195,-2.890625 -1.46484,-4.472656 -1.42579,-1.582032 -4.35547,-1.582032 -2.94922,0 -4.70703,1.738282 -1.73829,1.738281 -1.97266,4.316406 z"
       id="path3888" />
    <path
       d="m 205.4517,35.829636 h -4.12109 l -2.85157,-8.105469 h -12.57812 l -2.85156,8.105469 h -3.92578 L 189.70951,6.7476044 h 5.15625 z m -8.16406,-11.425782 -5.09766,-14.277343 -5.11719,14.277343 z"
       id="path3890" />
    <path
       d="m 225.70561,34.462448 q -1.83594,0.878906 -3.4961,1.367188 -1.64062,0.488281 -3.49609,0.488281 -2.36328,0 -4.33594,-0.683594 -1.97265,-0.703125 -3.3789,-2.109375 -1.42579,-1.40625 -2.20704,-3.554687 -0.78125,-2.148438 -0.78125,-5.019532 0,-5.351562 2.92969,-8.398437 2.94922,-3.046875 7.77344,-3.046875 1.875,0 3.67187,0.527344 1.81641,0.527343 3.32032,1.289062 v 4.082031 h -0.19532 q -1.67968,-1.308593 -3.47656,-2.011718 -1.77734,-0.703125 -3.47656,-0.703125 -3.125,0 -4.94141,2.109375 -1.79687,2.089843 -1.79687,6.152343 0,3.945313 1.75781,6.074219 1.77734,2.109375 4.98047,2.109375 1.11328,0 2.26562,-0.292969 1.15235,-0.292968 2.07032,-0.761718 0.80078,-0.410157 1.5039,-0.859375 0.70313,-0.46875 1.11328,-0.800782 h 0.19532 z"
       id="path3892" />
    <path
       d="m 241.74076,35.634323 q -1.03515,0.273438 -2.26562,0.449219 -1.21094,0.175781 -2.16797,0.175781 -3.33984,0 -5.07813,-1.796875 -1.73828,-1.796875 -1.73828,-5.761719 V 17.099167 h -2.48047 v -3.085938 h 2.48047 V 7.7436981 h 3.67188 v 6.2695309 h 7.57812 v 3.085938 h -7.57812 v 9.941406 q 0,1.71875 0.0781,2.695313 0.0781,0.957031 0.54688,1.796875 0.42969,0.78125 1.17187,1.152343 0.76172,0.351563 2.30469,0.351563 0.89844,0 1.875,-0.253906 0.97656,-0.273438 1.40625,-0.449219 h 0.19531 z"
       id="path3894" />
    <path
       d="m 250.11967,10.360886 h -4.14063 V 6.5522919 h 4.14063 z m -0.23438,25.46875 h -3.67187 V 14.013229 h 3.67187 z"
       id="path3896" />
    <path
       d="m 275.74467,24.931198 q 0,5.332031 -2.73438,8.417969 -2.73437,3.085937 -7.32421,3.085937 -4.62891,0 -7.36329,-3.085937 -2.71484,-3.085938 -2.71484,-8.417969 0,-5.332031 2.71484,-8.417969 2.73438,-3.105468 7.36329,-3.105468 4.58984,0 7.32421,3.105468 2.73438,3.085938 2.73438,8.417969 z m -3.78906,0 q 0,-4.238281 -1.66016,-6.289062 -1.66016,-2.070313 -4.60937,-2.070313 -2.98829,0 -4.64844,2.070313 -1.64063,2.050781 -1.64063,6.289062 0,4.101563 1.66016,6.230469 1.66016,2.109375 4.62891,2.109375 2.92968,0 4.58984,-2.089844 1.67969,-2.109375 1.67969,-6.25 z"
       id="path3898" />
    <path
       d="m 299.67045,35.829636 h -3.67187 V 23.407761 q 0,-1.503907 -0.17579,-2.8125 -0.17578,-1.328125 -0.64453,-2.070313 -0.48828,-0.820312 -1.40625,-1.210937 -0.91797,-0.410157 -2.38281,-0.410157 -1.50391,0 -3.14453,0.742188 -1.64063,0.742187 -3.14453,1.894531 v 16.289063 h -3.67188 V 14.013229 h 3.67188 v 2.421875 q 1.71875,-1.425781 3.55469,-2.226562 1.83593,-0.800781 3.76953,-0.800781 3.53515,0 5.39062,2.128906 1.85547,2.128906 1.85547,6.132812 z"
       id="path3900" />
    <path
       d="m 340.11967,15.536667 q 0,1.933594 -0.68359,3.59375 -0.66407,1.640625 -1.875,2.851562 -1.50391,1.503907 -3.55469,2.265625 -2.05078,0.742188 -5.17578,0.742188 h -3.86719 v 10.839844 h -3.86719 V 6.7476044 h 7.89063 q 2.61718,0 4.43359,0.4492187 1.81641,0.4296875 3.22266,1.3671875 1.66015,1.1132813 2.55859,2.7734374 0.91797,1.660156 0.91797,4.199219 z m -4.02344,0.09766 q 0,-1.503906 -0.52734,-2.617187 -0.52735,-1.113282 -1.60156,-1.816407 -0.9375,-0.605468 -2.14844,-0.859375 -1.19141,-0.273437 -3.02735,-0.273437 h -3.82812 v 11.621094 h 3.26172 q 2.34375,0 3.80859,-0.410157 1.46485,-0.429687 2.38281,-1.347656 0.91797,-0.9375 1.28907,-1.972656 0.39062,-1.035156 0.39062,-2.324219 z"
       id="path3902" />
    <path
       d="m 348.63529,35.829636 h -3.67187 V 5.4390106 h 3.67187 z"
       id="path3904" />
    <path
       d="m 372.85404,35.829636 h -3.65234 v -2.324219 q -0.48828,0.332031 -1.32812,0.9375 -0.82032,0.585937 -1.60157,0.9375 -0.91797,0.449219 -2.10937,0.742187 -1.19141,0.3125 -2.79297,0.3125 -2.94922,0 -5,-1.953125 -2.05078,-1.953125 -2.05078,-4.980468 0,-2.480469 1.05469,-4.003907 1.07421,-1.542968 3.04687,-2.421875 1.99219,-0.878906 4.78516,-1.191406 2.79297,-0.3125 5.99609,-0.46875 v -0.566406 q 0,-1.25 -0.44922,-2.070313 -0.42969,-0.820312 -1.25,-1.289062 -0.78125,-0.449219 -1.875,-0.605469 -1.09375,-0.15625 -2.28515,-0.15625 -1.44532,0 -3.22266,0.390625 -1.77734,0.371094 -3.67188,1.09375 h -0.19531 v -3.730469 q 1.07422,-0.292968 3.10547,-0.644531 2.03125,-0.351562 4.00391,-0.351562 2.30468,0 4.0039,0.390625 1.71875,0.371093 2.96875,1.289062 1.23047,0.898438 1.875,2.324219 0.64453,1.425781 0.64453,3.535156 z m -3.65234,-5.371094 v -6.074219 q -1.67969,0.09766 -3.96484,0.292969 -2.26563,0.195312 -3.59375,0.566406 -1.58203,0.449219 -2.5586,1.40625 -0.97656,0.9375 -0.97656,2.597656 0,1.875 1.13281,2.832032 1.13282,0.9375 3.45703,0.9375 1.9336,0 3.53516,-0.742188 1.60156,-0.761719 2.96875,-1.816406 z"
       id="path3906" />
    <path
       d="m 398.16654,35.829636 h -3.67187 V 23.407761 q 0,-1.503907 -0.17578,-2.8125 -0.17578,-1.328125 -0.64453,-2.070313 -0.48828,-0.820312 -1.40625,-1.210937 -0.91797,-0.410157 -2.38282,-0.410157 -1.5039,0 -3.14453,0.742188 -1.64062,0.742187 -3.14453,1.894531 v 16.289063 h -3.67187 V 14.013229 h 3.67187 v 2.421875 q 1.71875,-1.425781 3.55469,-2.226562 1.83594,-0.800781 3.76953,-0.800781 3.53516,0 5.39063,2.128906 1.85546,2.128906 1.85546,6.132812 z"
       id="path3908" />
    <path
       d="m 420.82279,29.540573 q 0,2.988281 -2.48046,4.902344 -2.46094,1.914062 -6.73829,1.914062 -2.42187,0 -4.45312,-0.566406 -2.01172,-0.585937 -3.37891,-1.269531 v -4.121094 h 0.19532 q 1.73828,1.308594 3.86718,2.089844 2.12891,0.761719 4.08203,0.761719 2.42188,0 3.78907,-0.78125 1.36718,-0.78125 1.36718,-2.460938 0,-1.289062 -0.74218,-1.953125 -0.74219,-0.664062 -2.85157,-1.132812 -0.78125,-0.175782 -2.05078,-0.410157 -1.25,-0.234375 -2.28515,-0.507812 -2.8711,-0.761719 -4.08203,-2.226563 -1.19141,-1.484375 -1.19141,-3.632812 0,-1.347656 0.54687,-2.539063 0.56641,-1.191406 1.69922,-2.128906 1.09375,-0.917969 2.77344,-1.445312 1.69922,-0.546875 3.78906,-0.546875 1.95313,0 3.94532,0.488281 2.01171,0.46875 3.33984,1.152344 v 3.925781 h -0.19531 q -1.40625,-1.035156 -3.41797,-1.738281 -2.01172,-0.722657 -3.94531,-0.722657 -2.01172,0 -3.39844,0.78125 -1.38672,0.761719 -1.38672,2.285157 0,1.347656 0.83984,2.03125 0.82032,0.683593 2.65625,1.113281 1.01563,0.234375 2.26563,0.46875 1.26953,0.234375 2.10937,0.429687 2.5586,0.585938 3.94532,2.011719 1.38671,1.445313 1.38671,3.828125 z"
       id="path3910" />
  </g>
  <metadata
     id="metadata3991">
    <rdf:RDF>
      <cc:Work
         rdf:about="">
        <dc:title>mysociety-logo-white</dc:title>
      </cc:Work>
    </rdf:RDF>
  </metadata>
</svg>
