<svg xmlns="http://www.w3.org/2000/svg" role="img" viewBox="-5.24 28.26 272.74 100.49"><g fill="#2366ab"><path d="M100.13078 37.36062v7.07071h-20.1852v8.19104h18.52328v6.52911H79.9456v9.36744h20.6154v7.07071H71.5436V37.36078zm27.8845 10.19776c-.50417-.80291-1.12658-1.50625-1.87352-2.1162-.75314-.60375-1.59961-1.08301-2.54577-1.41912-.94609-.3361-1.93567-.51038-2.96899-.51038-1.89216 0-3.49799.36723-4.81748 1.10169-1.32576.72823-2.39632 1.71163-3.21787 2.94396-.8216 1.2324-1.4129 2.63294-1.79258 4.20132-.37344 1.56851-.56017 3.19302-.56017 4.87358 0 1.60582.18673 3.16815.56017 4.6806.37968 1.5187.97099 2.88183 1.79258 4.09552.8216 1.21373 1.89216 2.19093 3.21787 2.91911 1.31954.73446 2.92532 1.09547 4.81748 1.09547 2.57064 0 4.57481-.78426 6.01875-2.35282 1.45025-1.56851 2.3278-3.64124 2.65158-6.21171h8.1351c-.21162 2.3901-.76556 4.54995-1.6557 6.4794-.89629 1.92945-2.0727 3.5665-3.53543 4.92329s-3.17438 2.39631-5.1349 3.10585c-1.96689.7158-4.12658 1.07056-6.4794 1.07056-2.93153 0-5.56447-.51038-7.89848-1.52493-2.34039-1.01455-4.31333-2.41496-5.91916-4.20132-1.59962-1.78636-2.83211-3.88391-3.69095-6.29265-.85894-2.40875-1.2822-5.00423-1.2822-7.78647 0-2.85697.42326-5.50838 1.2822-7.95457.85893-2.43982 2.09133-4.57481 3.69095-6.39846 1.60583-1.81743 3.57893-3.24289 5.91916-4.28226 2.33401-1.03321 4.96695-1.54982 7.89848-1.54982 2.10377 0 4.09552.30497 5.96904.90873 1.87352.60997 3.54786 1.49381 5.02909 2.65158 1.48137 1.15771 2.7075 2.59549 3.6661 4.30712.96475 1.71784 1.57473 3.67852 1.82364 5.8943h-8.14132c-.13687-.96475-.46059-1.84866-.95852-2.65158m24.60235-10.19755l8.93801 26.28473h.1058l8.46494-26.28473h11.82606v38.22885h-7.86741V48.4953h-.1058l-9.36744 27.09417h-6.4794L148.76468 48.763h-.11201v26.82648h-7.86741V37.36062zm62.65248 38.22567l-6.4794-26.02341h-.1058l-6.36739 26.0234h-8.5148l-10.12065-38.22884h8.40901l6.04998 26.01703h.1058l6.6413-26.01703h7.8674l6.52913 26.3405h.11201l6.26159-26.3405h8.24712l-10.28237 38.22885z"/><path d="M262.49824 37.36062v7.07071h-18.4675v8.83222h16.00888v6.52928h-16.00889v15.79712h-8.40885V37.3611zM.21823 58.77592h18.79734v-5.0914H.21823c-.305 1.70542-.2801 3.44207 0 5.0914m62.59034 1.76867c-1.92323 10.48776-11.2161 18.26833-21.8726 18.26833-3.09964 0-6.39846-.78425-9.19934-1.98553-2.9379 1.36933-6.18063 1.98553-9.48567 1.98553-10.64964 0-19.93662-7.63716-21.84073-18.1807l13.712-.02485c1.50626 3.41083 4.97317 5.62056 8.69519 5.62056 3.99593 0 7.71811-2.71993 9.06246-6.46697 1.2884 3.84041 5.00423 6.46697 9.05625 6.46697 3.80918 0 7.33219-2.20957 8.84464-5.65163z"/><path d="M62.80857 51.90836c-1.92323-10.50018-11.2161-18.26833-21.8726-18.26833-3.09964 0-6.39846.78426-9.19934 2.01661-2.9379-1.40044-6.18063-2.0166-9.48567-2.0166-10.64964 0-19.93662 7.63094-21.84073 18.18069l13.712.02485c1.50626-3.41083 4.97317-5.61418 8.69519-5.61418 3.99593 0 7.71811 2.7075 9.06246 6.44833 1.2884-3.82799 5.00423-6.44833 9.05625-6.44833 3.80918 0 7.33219 2.20335 8.84464 5.6392z"/></g><path d="M41.30037 105.5803h7.17945c-.39148-3.81693-1.6568-6.48039-3.79595-7.99038-2.13916-1.503-4.8865-2.258-8.24903-2.258-3.94974 0-7.04662 1.2793-9.29064 3.8309-2.24401 2.5586-3.36252 6.13784-3.36252 10.73772 0 4.08257 1.01365 7.40315 3.04794 9.95476 2.0273 2.5586 5.20108 3.8379 9.50735 3.8379 4.30627 0 7.56394-1.53097 9.75902-4.59989 1.37717-1.90147 2.14614-3.91479 2.30693-6.04695h-7.15149c-.1468 1.41212-.56624 2.5586-1.25133 3.44641-.69208.88083-1.85254 1.32824-3.48836 1.32824-2.31392 0-3.88683-1.11852-4.71872-3.34855-.46139-1.1954-.69208-2.7753-.69208-4.7397 0-2.06225.2307-3.71905.69208-4.96339.86684-2.34188 2.4817-3.51632 4.83756-3.51632 1.6568 0 2.88017.53828 3.66313 1.62184.53828.80393.88083 1.70573 1.00666 2.7054zm-4.7397-10.32527zm23.88723 27.50141v-36.2258h-7.00468v36.2258zm14.03033-29.98311v-6.4664h-7.10255v6.4664zm-7.10255 3.19475v26.78836h7.10255V95.96808zm47.31306.09787c-1.14648-.4544-2.31392-.68509-3.48836-.68509-1.76865 0-3.37651.36352-4.8166 1.10453-1.36318.73402-2.50266 1.89448-3.41845 3.46739-.5243-1.31425-1.29328-2.38383-2.31392-3.22272-1.25832-.9018-2.91512-1.3492-4.9634-1.3492-2.16012 0-3.92178.5243-5.28496 1.5729-.76898.58723-1.5869 1.5799-2.45374 2.97105v-3.9078h-6.80894v26.73943h7.10255V106.6359c0-1.46106.18875-2.5586.56625-3.29262.68509-1.29328 2.03429-1.94342 4.03363-1.94342 1.71971 0 2.87318.65014 3.4604 1.94342.32856.72004.49634 1.8735.49634 3.46738v15.9458h7.05361v-15.9458c0-1.2024.18176-2.22304.55926-3.0759.74101-1.60786 2.07624-2.4048 4.00567-2.4048 1.67078 0 2.82424.62217 3.44642 1.86651.32157.65014.48934 1.48902.48934 2.50267v17.05731h7.17246l.05593-16.88254c0-1.74068-.0839-3.05494-.25167-3.95674-.25865-1.36318-.76897-2.50966-1.52397-3.43942-.92976-1.14648-1.97138-1.9504-3.11785-2.4118zm18.12688 6.48737c.88782-1.01365 2.14615-1.52397 3.76799-1.52397 1.49601 0 2.74035.48235 3.74702 1.44008 1.01365.95773 1.5729 2.36286 1.68475 4.2154h-10.88452c.2307-1.7407.78995-3.11087 1.68476-4.13151zm9.79397-6.04696c-1.78962-.8319-3.79595-1.25133-6.02598-1.25133-3.74701 0-6.80195 1.23735-9.15083 3.71206-2.35586 2.4747-3.5303 6.03297-3.5303 10.6678 0 4.94942 1.30726 8.52167 3.9078 10.71675 2.60753 2.19508 5.61353 3.29262 9.018 3.29262 4.1315 0 7.34024-1.30726 9.64018-3.9078 1.47504-1.64282 2.29994-3.25767 2.4817-4.84456h-7.15149c-.3775.78995-.81092 1.40513-1.30726 1.84555-.9018.81791-2.06925 1.23036-3.50933 1.23036-1.36319 0-2.52364-.33555-3.49535-1.01365-1.58689-1.07657-2.43276-2.96406-2.53063-5.64849h18.3366c.03496-2.31392-.04194-4.08256-.2237-5.31293-.30759-2.0972-.99268-3.93576-2.04128-5.52964-1.16046-1.79661-2.6355-3.11785-4.41813-3.95674zm-5.52964-1.25133zm14.17714 5.94908h3.74002v16.49106c0 1.67078.39148 2.90814 1.17444 3.71207 1.21638 1.25832 3.47438 1.83156 6.78797 1.7197l3.3136-.12582v-5.23604a11.37515 11.37515 0 0 1-.69908.04195c-.23768.00699-.46138.01398-.6781.01398-1.4261 0-2.27197-.13982-2.5516-.41245-.27963-.26565-.41944-.95074-.41944-2.04828v-14.15617h4.34821v-4.99136h-4.34821V88.7467h-6.92779v7.46606h-3.74002zm26.66952 21.55233v-36.2258h-7.00468v36.2258zm21.60126-13.02367v2.60753c-.04893 2.34188-.71305 3.95673-1.97837 4.83756-1.2723.88782-2.65646 1.32824-4.16645 1.32824-.95074 0-1.75467-.26565-2.41878-.79694-.66412-.5313-.99967-1.39814-.99967-2.59355 0-1.34222.54527-2.3349 1.62184-2.97804.64314-.3775 1.69874-.69208 3.17378-.95773l1.5729-.2936c.78296-.14681 1.40513-.3076 1.85254-.47538.4544-.17476.9018-.39847 1.34221-.6781zm-4.25034-3.27165l-2.38383.2936c-2.7054.34954-4.75368.92278-6.14483 1.72671-2.54461 1.47504-3.80993 3.85887-3.80993 7.15149 0 2.53762.78995 4.502 2.36985 5.88617 1.5799 1.38416 3.58623 2.07623 6.012 2.07623 1.89448 0 3.60021-.43342 5.1102-1.30726 1.25833-.73402 2.37684-1.62883 3.34156-2.67743.04893.60819.11185 1.14647.19574 1.62184.08389.47537.23069.98569.44041 1.52397h7.61986v-1.03462c-.4544-.20972-.80393-.48236-1.02763-.81092-.2307-.32158-.3705-.94375-.41944-1.86652-.03495-1.2094-.04894-2.24402-.04894-3.09688v-12.28266c0-3.2297-1.13948-5.42478-3.41845-6.59223-2.27897-1.16046-4.8795-1.74069-7.8156-1.74069-4.50201 0-7.68278 1.17444-9.53532 3.5373-1.16045 1.50999-1.81758 3.43243-1.96438 5.77432h6.76c.1608-1.03463.48935-1.85254.9787-2.45374.69208-.8249 1.85953-1.23036 3.51632-1.23036 1.47504 0 2.59355.20972 3.35554.62217.76199.41944 1.13949 1.18143 1.13949 2.27897 0 .9018-.49634 1.55892-1.49601 1.98536-.55926.25166-1.48203.4544-2.77531.61518zm.36351-11.2061zm39.85398 3.93577c-1.99234-2.54461-4.74668-3.80993-8.27-3.80993-1.9504 0-3.55826.40546-4.81659 1.23036-1.06258.65014-2.04128 1.60087-2.9221 2.84522V86.57957h-6.98372v36.17687h6.85788v-3.36253c.93675 1.30726 1.8036 2.22305 2.60753 2.74735 1.34221.88782 3.11785 1.32823 5.3339 1.32823 3.51633 0 6.26367-1.37018 8.22806-4.10354 1.96438-2.73336 2.95007-6.18677 2.95007-10.34623 0-4.01267-.99268-7.2913-2.98503-9.82893zm-5.8652 16.3163c-.99267 1.46105-2.3978 2.18808-4.2014 2.18808-2.07624 0-3.62818-.755-4.64183-2.26498-1.01365-1.503-1.52397-3.40447-1.52397-5.69742 0-1.9504.24467-3.5373.73402-4.76766.95074-2.31392 2.69841-3.46739 5.23604-3.46739 2.50966 0 4.22937 1.18143 5.15913 3.5373.49634 1.25133.74102 2.82424.74102 4.71872 0 2.37684-.50333 4.29229-1.503 5.75334z"/></svg>
