<?xml version="1.0" encoding="UTF-8" standalone="no"?>
<svg
   version="1.1"
   id="svg4"
   width="156.87892"
   height="11.53125"
   xmlns="http://www.w3.org/2000/svg"
   xmlns:svg="http://www.w3.org/2000/svg">
  <defs
     id="defs8" />
  <g
     aria-label="conventional power plants"
     id="text2"
     transform="translate(-0.61523437,9.1171875)">
    <path
       d="M 5.9238281,-0.41015625 Q 5.3730469,-0.14648437 4.875,0 4.3828125,0.14648437 3.8261719,0.14648437 q -0.7089844,0 -1.3007813,-0.20507812 Q 1.9335937,-0.26953125 1.5117187,-0.69140625 1.0839844,-1.1132812 0.84960938,-1.7578125 0.61523437,-2.4023438 0.61523437,-3.2636719 q 0,-1.6054687 0.87890623,-2.5195312 0.8847657,-0.9140625 2.3320313,-0.9140625 0.5625,0 1.1015625,0.1582031 0.5449218,0.1582031 0.9960937,0.3867188 v 1.2246093 H 5.8652344 Q 5.3613281,-5.3203125 4.8222656,-5.53125 4.2890625,-5.7421875 3.7792969,-5.7421875 q -0.9375,0 -1.4824219,0.6328125 -0.5390625,0.6269531 -0.5390625,1.8457031 0,1.1835938 0.5273438,1.8222657 0.5332031,0.63281245 1.4941406,0.63281245 0.3339843,0 0.6796875,-0.0878906 Q 4.8046875,-0.984375 5.0800781,-1.125 5.3203125,-1.2480469 5.53125,-1.3828125 5.7421875,-1.5234375 5.8652344,-1.6230469 h 0.058594 z"
       id="path10" />
    <path
       d="m 12.914063,-3.2695313 q 0,1.5996094 -0.820313,2.52539068 -0.820312,0.92578124 -2.1972656,0.92578124 -1.3886719,0 -2.2089844,-0.92578124 -0.8144531,-0.92578128 -0.8144531,-2.52539068 0,-1.5996093 0.8144531,-2.5253906 0.8203125,-0.9316406 2.2089844,-0.9316406 1.3769536,0 2.1972656,0.9316406 0.820313,0.9257813 0.820313,2.5253906 z m -1.136719,0 q 0,-1.2714843 -0.498047,-1.8867187 -0.498047,-0.6210937 -1.3828126,-0.6210937 -0.8964844,0 -1.3945313,0.6210937 -0.4921875,0.6152344 -0.4921875,1.8867187 0,1.2304688 0.4980469,1.8691407 0.4980469,0.63281248 1.3886719,0.63281248 0.8789066,0 1.3769536,-0.62695308 0.503906,-0.6328126 0.503906,-1.8750001 z"
       id="path12" />
    <path
       d="m 20.091797,0 h -1.101563 v -3.7265625 q 0,-0.4511719 -0.05273,-0.84375 Q 18.884774,-4.96875 18.744145,-5.1914062 18.59766,-5.4375 18.32227,-5.5546875 q -0.275391,-0.1230469 -0.714844,-0.1230469 -0.451172,0 -0.94336,0.2226563 -0.492187,0.2226562 -0.943359,0.5683594 V 0 h -1.101562 v -6.5449219 h 1.101562 v 0.7265625 q 0.515625,-0.4277343 1.066406,-0.6679687 0.550782,-0.2402344 1.13086,-0.2402344 1.060547,0 1.617187,0.6386719 0.556641,0.6386719 0.556641,1.8398437 z"
       id="path14" />
    <path
       d="M 27.755859,-6.5449219 25.107422,0 H 24 l -2.630859,-6.5449219 h 1.195312 l 2.027344,5.2089844 2.009765,-5.2089844 z"
       id="path16" />
    <path
       d="m 34.570312,-3.1582031 h -4.822265 q 0,0.6035156 0.18164,1.0546875 0.181641,0.4453125 0.498047,0.7324219 0.304688,0.28125 0.720703,0.42187495 0.421875,0.140625 0.925782,0.140625 0.667968,0 1.341797,-0.26367185 0.679687,-0.2695313 0.966796,-0.5273438 h 0.05859 v 1.2011719 q -0.55664,0.234375 -1.136719,0.39257812 -0.580078,0.15820313 -1.21875,0.15820313 -1.628906,0 -2.542968,-0.87890625 -0.914063,-0.8847656 -0.914063,-2.5078125 0,-1.6054687 0.873047,-2.5488281 0.878906,-0.9433594 2.308594,-0.9433594 1.324219,0 2.039062,0.7734375 0.720703,0.7734375 0.720703,2.1972656 z m -1.072265,-0.84375 q -0.0059,-0.8671875 -0.439453,-1.3417969 -0.427735,-0.4746094 -1.306641,-0.4746094 -0.884766,0 -1.412109,0.5214844 -0.521485,0.5214844 -0.591797,1.2949219 z"
       id="path18" />
    <path
       d="m 41.712891,0 h -1.101563 v -3.7265625 q 0,-0.4511719 -0.05273,-0.84375 -0.05273,-0.3984375 -0.19336,-0.6210937 -0.146484,-0.2460938 -0.421875,-0.3632813 -0.27539,-0.1230469 -0.714843,-0.1230469 -0.451172,0 -0.94336,0.2226563 -0.492187,0.2226562 -0.943359,0.5683594 V 0 h -1.101563 v -6.5449219 h 1.101563 v 0.7265625 q 0.515625,-0.4277343 1.066406,-0.6679687 0.550781,-0.2402344 1.130859,-0.2402344 1.060547,0 1.617188,0.6386719 0.556641,0.6386719 0.556641,1.8398437 z"
       id="path20" />
    <path
       d="m 47.232422,-0.05859375 q -0.310547,0.08203125 -0.679688,0.13476562 -0.363281,0.05273438 -0.65039,0.05273438 -1.001953,0 -1.523438,-0.5390625 -0.521484,-0.5390625 -0.521484,-1.72851565 v -3.4804687 h -0.744141 v -0.9257813 h 0.744141 v -1.8808594 h 1.101562 v 1.8808594 h 2.273438 v 0.9257813 h -2.273438 v 2.9824218 q 0,0.515625 0.02344,0.8085938 0.02344,0.2871094 0.164062,0.5390625 0.128907,0.234375 0.351563,0.34570312 0.228515,0.10546875 0.691406,0.10546875 0.269531,0 0.5625,-0.0761719 0.292969,-0.0820313 0.421875,-0.13476557 h 0.05859 z"
       id="path22" />
    <path
       d="m 49.746094,-7.640625 h -1.242188 v -1.1425781 h 1.242188 z M 49.675781,0 h -1.101562 v -6.5449219 h 1.101562 z"
       id="path24" />
    <path
       d="m 57.433594,-3.2695313 q 0,1.5996094 -0.820313,2.52539068 -0.820312,0.92578124 -2.197265,0.92578124 -1.388672,0 -2.208985,-0.92578124 -0.814453,-0.92578128 -0.814453,-2.52539068 0,-1.5996093 0.814453,-2.5253906 0.820313,-0.9316406 2.208985,-0.9316406 1.376953,0 2.197265,0.9316406 0.820313,0.9257813 0.820313,2.5253906 z m -1.136719,0 q 0,-1.2714843 -0.498047,-1.8867187 -0.498047,-0.6210937 -1.382812,-0.6210937 -0.896485,0 -1.394532,0.6210937 -0.492187,0.6152344 -0.492187,1.8867187 0,1.2304688 0.498047,1.8691407 0.498047,0.63281248 1.388672,0.63281248 0.878906,0 1.376953,-0.62695308 0.503906,-0.6328126 0.503906,-1.8750001 z"
       id="path26" />
    <path
       d="m 64.611328,0 h -1.101562 v -3.7265625 q 0,-0.4511719 -0.05273,-0.84375 -0.05273,-0.3984375 -0.193359,-0.6210937 -0.146485,-0.2460938 -0.421875,-0.3632813 -0.275391,-0.1230469 -0.714844,-0.1230469 -0.451172,0 -0.943359,0.2226563 -0.492188,0.2226562 -0.94336,0.5683594 V 0 h -1.101562 v -6.5449219 h 1.101562 v 0.7265625 q 0.515625,-0.4277343 1.066407,-0.6679687 0.550781,-0.2402344 1.130859,-0.2402344 1.060547,0 1.617187,0.6386719 0.556641,0.6386719 0.556641,1.8398437 z"
       id="path28" />
    <path
       d="m 71.818359,0 h -1.095703 v -0.69726562 q -0.146484,0.0996094 -0.398437,0.28124999 -0.246094,0.17578125 -0.480469,0.28125001 Q 69.568359,0 69.210937,0.08789062 q -0.357421,0.09375 -0.83789,0.09375 -0.884766,0 -1.5,-0.5859375 -0.615235,-0.5859375 -0.615235,-1.49414062 0,-0.7441406 0.316407,-1.2011719 0.322265,-0.4628906 0.914062,-0.7265625 0.597656,-0.2636718 1.435547,-0.3574218 0.837891,-0.09375 1.798828,-0.140625 v -0.1699219 q 0,-0.375 -0.134765,-0.6210938 -0.128907,-0.2460937 -0.375,-0.3867187 -0.234375,-0.1347656 -0.5625,-0.1816406 -0.328125,-0.046875 -0.685547,-0.046875 -0.433594,0 -0.966797,0.1171875 -0.533203,0.1113281 -1.101563,0.328125 h -0.05859 v -1.1191407 q 0.322265,-0.087891 0.93164,-0.1933593 0.609375,-0.1054688 1.201172,-0.1054688 0.691406,0 1.201172,0.1171875 0.515625,0.1113281 0.890625,0.3867188 0.369141,0.2695312 0.5625,0.6972656 0.193359,0.4277344 0.193359,1.0605469 z m -1.095703,-1.6113281 v -1.8222657 q -0.503906,0.029297 -1.189453,0.087891 -0.679687,0.058594 -1.078125,0.1699218 -0.474609,0.1347657 -0.767578,0.421875 -0.292969,0.28125 -0.292969,0.7792969 0,0.5625 0.339844,0.8496094 0.339844,0.28125 1.037109,0.28125 0.580078,0 1.060547,-0.2226562 0.480469,-0.2285157 0.890625,-0.5449222 z"
       id="path30" />
    <path
       d="m 75.052734,0 h -1.101562 v -9.1171875 h 1.101562 z"
       id="path32" />
    <path
       d="m 87.210937,-3.3515625 q 0,0.796875 -0.228515,1.4589844 -0.228516,0.65625 -0.644531,1.11328123 -0.386719,0.43359374 -0.914063,0.67382812 -0.521484,0.234375 -1.107422,0.234375 -0.509765,0 -0.925781,-0.11132812 Q 82.980469,-0.09375 82.552734,-0.328125 v 2.7421875 h -1.101562 v -8.9589844 h 1.101562 v 0.6855469 q 0.439453,-0.3691406 0.984375,-0.6152344 0.550782,-0.2519531 1.171875,-0.2519531 1.183594,0 1.839844,0.8964844 0.662109,0.890625 0.662109,2.4785156 z m -1.136718,0.029297 q 0,-1.1835938 -0.404297,-1.7695313 -0.404297,-0.5859375 -1.242188,-0.5859375 -0.474609,0 -0.955078,0.2050782 -0.480469,0.2050781 -0.919922,0.5390625 v 3.7089843 q 0.46875,0.2109375 0.802735,0.2871094 0.339843,0.0761719 0.767578,0.0761719 0.919922,0 1.435547,-0.6210938 0.515625,-0.6210937 0.515625,-1.8398437 z"
       id="path34" />
    <path
       d="m 94.505859,-3.2695313 q 0,1.5996094 -0.820312,2.52539068 -0.820313,0.92578124 -2.197266,0.92578124 -1.388672,0 -2.208984,-0.92578124 -0.814453,-0.92578128 -0.814453,-2.52539068 0,-1.5996093 0.814453,-2.5253906 0.820312,-0.9316406 2.208984,-0.9316406 1.376953,0 2.197266,0.9316406 0.820312,0.9257813 0.820312,2.5253906 z m -1.136718,0 q 0,-1.2714843 -0.498047,-1.8867187 -0.498047,-0.6210937 -1.382813,-0.6210937 -0.896484,0 -1.394531,0.6210937 -0.492188,0.6152344 -0.492188,1.8867187 0,1.2304688 0.498047,1.8691407 0.498047,0.63281248 1.388672,0.63281248 0.878906,0 1.376953,-0.62695308 0.503907,-0.6328126 0.503907,-1.8750001 z"
       id="path36" />
    <path
       d="M 104.44336,-6.5449219 102.73828,0 h -1.01953 L 100.03711,-5.0449219 98.367187,0 h -1.013671 l -1.722657,-6.5449219 h 1.148438 l 1.201172,5.0683594 1.634765,-5.0683594 h 0.908206 l 1.67578,5.0683594 1.13672,-5.0683594 z"
       id="path38" />
    <path
       d="m 111.50977,-3.1582031 h -4.82227 q 0,0.6035156 0.18164,1.0546875 0.18164,0.4453125 0.49805,0.7324219 0.30469,0.28125 0.7207,0.42187495 0.42188,0.140625 0.92578,0.140625 0.66797,0 1.3418,-0.26367185 0.67969,-0.2695313 0.9668,-0.5273438 h 0.0586 v 1.2011719 q -0.55664,0.234375 -1.13672,0.39257812 -0.58008,0.15820313 -1.21875,0.15820313 -1.62891,0 -2.54297,-0.87890625 -0.91406,-0.8847656 -0.91406,-2.5078125 0,-1.6054687 0.87305,-2.5488281 0.8789,-0.9433594 2.30859,-0.9433594 1.32422,0 2.03906,0.7734375 0.72071,0.7734375 0.72071,2.1972656 z m -1.07227,-0.84375 q -0.006,-0.8671875 -0.43945,-1.3417969 -0.42774,-0.4746094 -1.30664,-0.4746094 -0.88477,0 -1.41211,0.5214844 -0.52149,0.5214844 -0.5918,1.2949219 z"
       id="path40" />
    <path
       d="m 117.26367,-5.34375 h -0.0586 q -0.2461,-0.058594 -0.48047,-0.082031 -0.22852,-0.029297 -0.54492,-0.029297 -0.50977,0 -0.98438,0.2285156 -0.47461,0.2226563 -0.91406,0.5800781 V 0 h -1.10156 v -6.5449219 h 1.10156 v 0.9667969 q 0.65625,-0.5273437 1.1543,-0.7441406 0.5039,-0.2226563 1.02539,-0.2226563 0.28711,0 0.41601,0.017578 0.12891,0.011719 0.38672,0.052734 z"
       id="path42" />
    <path
       d="m 128.2793,-3.3515625 q 0,0.796875 -0.22852,1.4589844 -0.22851,0.65625 -0.64453,1.11328123 -0.38672,0.43359374 -0.91406,0.67382812 -0.52149,0.234375 -1.10742,0.234375 -0.50977,0 -0.92579,-0.11132812 Q 124.04883,-0.09375 123.62109,-0.328125 v 2.7421875 h -1.10156 v -8.9589844 h 1.10156 v 0.6855469 q 0.43946,-0.3691406 0.98438,-0.6152344 0.55078,-0.2519531 1.17187,-0.2519531 1.1836,0 1.83985,0.8964844 0.66211,0.890625 0.66211,2.4785156 z m -1.13672,0.029297 q 0,-1.1835938 -0.4043,-1.7695313 -0.4043,-0.5859375 -1.24219,-0.5859375 -0.47461,0 -0.95507,0.2050782 -0.48047,0.2050781 -0.91993,0.5390625 v 3.7089843 q 0.46875,0.2109375 0.80274,0.2871094 0.33984,0.0761719 0.76758,0.0761719 0.91992,0 1.43554,-0.6210938 0.51563,-0.6210937 0.51563,-1.8398437 z"
       id="path44" />
    <path
       d="m 131.10937,0 h -1.10156 v -9.1171875 h 1.10156 z"
       id="path46" />
    <path
       d="m 138.375,0 h -1.0957 v -0.69726562 q -0.14649,0.0996094 -0.39844,0.28124999 -0.24609,0.17578125 -0.48047,0.28125001 Q 136.125,0 135.76758,0.08789062 q -0.35742,0.09375 -0.83789,0.09375 -0.88477,0 -1.5,-0.5859375 -0.61524,-0.5859375 -0.61524,-1.49414062 0,-0.7441406 0.31641,-1.2011719 0.32226,-0.4628906 0.91406,-0.7265625 0.59766,-0.2636718 1.43555,-0.3574218 0.83789,-0.09375 1.79883,-0.140625 v -0.1699219 q 0,-0.375 -0.13477,-0.6210938 -0.12891,-0.2460937 -0.375,-0.3867187 -0.23437,-0.1347656 -0.5625,-0.1816406 -0.32812,-0.046875 -0.68555,-0.046875 -0.43359,0 -0.96679,0.1171875 -0.53321,0.1113281 -1.10157,0.328125 h -0.0586 v -1.1191407 q 0.32227,-0.087891 0.93164,-0.1933593 0.60938,-0.1054688 1.20117,-0.1054688 0.69141,0 1.20118,0.1171875 0.51562,0.1113281 0.89062,0.3867188 0.36914,0.2695312 0.5625,0.6972656 0.19336,0.4277344 0.19336,1.0605469 z m -1.0957,-1.6113281 v -1.8222657 q -0.50391,0.029297 -1.18946,0.087891 -0.67968,0.058594 -1.07812,0.1699218 -0.47461,0.1347657 -0.76758,0.421875 -0.29297,0.28125 -0.29297,0.7792969 0,0.5625 0.33985,0.8496094 0.33984,0.28125 1.0371,0.28125 0.58008,0 1.06055,-0.2226562 0.48047,-0.2285157 0.89063,-0.5449222 z"
       id="path48" />
    <path
       d="m 145.96875,0 h -1.10156 v -3.7265625 q 0,-0.4511719 -0.0527,-0.84375 -0.0527,-0.3984375 -0.19336,-0.6210937 -0.14648,-0.2460938 -0.42187,-0.3632813 -0.27539,-0.1230469 -0.71485,-0.1230469 -0.45117,0 -0.94335,0.2226563 -0.49219,0.2226562 -0.94336,0.5683594 V 0 h -1.10157 v -6.5449219 h 1.10157 v 0.7265625 q 0.51562,-0.4277343 1.0664,-0.6679687 0.55078,-0.2402344 1.13086,-0.2402344 1.06055,0 1.61719,0.6386719 0.55664,0.6386719 0.55664,1.8398437 z"
       id="path50" />
    <path
       d="m 151.48828,-0.05859375 q -0.31055,0.08203125 -0.67969,0.13476562 -0.36328,0.05273438 -0.65039,0.05273438 -1.00195,0 -1.52343,-0.5390625 -0.52149,-0.5390625 -0.52149,-1.72851565 v -3.4804687 h -0.74414 v -0.9257813 h 0.74414 v -1.8808594 h 1.10156 v 1.8808594 h 2.27344 v 0.9257813 h -2.27344 v 2.9824218 q 0,0.515625 0.0234,0.8085938 0.0234,0.2871094 0.16406,0.5390625 0.12891,0.234375 0.35157,0.34570312 0.22851,0.10546875 0.6914,0.10546875 0.26953,0 0.5625,-0.0761719 0.29297,-0.0820313 0.42188,-0.13476557 h 0.0586 z"
       id="path52" />
    <path
       d="m 157.49414,-1.8867187 q 0,0.89648432 -0.74414,1.47070307 -0.73828,0.57421875 -2.02148,0.57421875 -0.72657,0 -1.33594,-0.16992187 Q 152.78906,-0.1875 152.37891,-0.39257813 V -1.6289062 h 0.0586 q 0.52148,0.3925781 1.16016,0.6269531 0.63867,0.2285156 1.22461,0.2285156 0.72656,0 1.13671,-0.234375 0.41016,-0.234375 0.41016,-0.7382812 0,-0.3867188 -0.22266,-0.5859376 -0.22265,-0.1992187 -0.85546,-0.3398437 -0.23438,-0.052734 -0.61524,-0.1230469 -0.375,-0.070312 -0.68555,-0.1523437 -0.86132,-0.2285157 -1.22461,-0.6679688 -0.35742,-0.4453125 -0.35742,-1.0898437 0,-0.4042969 0.16407,-0.7617188 0.16992,-0.3574218 0.50976,-0.6386718 0.32813,-0.2753907 0.83203,-0.4335938 0.50977,-0.1640625 1.13672,-0.1640625 0.58594,0 1.18359,0.1464844 0.60352,0.140625 1.00196,0.3457031 v 1.1777344 h -0.0586 q -0.42187,-0.3105469 -1.02539,-0.5214844 -0.60351,-0.2167969 -1.18359,-0.2167969 -0.60352,0 -1.01953,0.234375 -0.41602,0.2285157 -0.41602,0.6855469 0,0.4042969 0.25196,0.609375 0.24609,0.2050781 0.79687,0.3339844 0.30469,0.070312 0.67969,0.140625 0.38086,0.070312 0.63281,0.1289062 0.76758,0.1757813 1.18359,0.6035156 0.41602,0.4335938 0.41602,1.1484376 z"
       id="path54" />
  </g>
</svg>
