<?xml version="1.0" encoding="UTF-8"?><svg id="Logo_Complet_Couleurs" xmlns="http://www.w3.org/2000/svg" viewBox="0 0 740.74 247.03"><defs><style>.cls-1{fill:#6158b5;}.cls-2{fill:#1d93d2;}</style></defs><path class="cls-1" d="m567.06,1.28c-4.63.84-8.04,1.87-9.06,2.18-2.76.85-6.71,2.25-11.26,4.52-1.22.61-2.42,1.25-3.61,1.92-5.84,3.32-11.13,7.37-15.93,12.08-1.88,1.85-3.63,3.82-5.29,5.86-3.17,3.88-5.94,8.03-8.28,12.47-2.78,5.28-4.93,10.79-6.39,16.59-.65,2.61-1.18,5.26-1.54,7.93-.2,1.47-.42,2.95-.51,4.43-.16,2.58-.27,5.17-.27,7.76-.02,30.91-.01,61.83-.01,92.75,0,1.1-.02,2.21-.02,3.31-.02,2.93-.43,5.82-1.1,8.67-1.35,5.8-3.73,11.15-7.11,16.04-2.45,3.54-5.3,6.71-8.6,9.49-5.36,4.52-11.39,7.74-18.13,9.58-2.9.79-5.85,1.34-8.87,1.45-2,.07-1.82-.07-1.82,1.95,0,8.33,0,16.65,0,24.97,0,.6,0,1.21-.01,1.82,0,0,4.61-.25,4.83-.26,2.02-.08,4.01-.38,6.01-.69,2.05-.31,4.08-.72,6.1-1.22,5.91-1.46,11.56-3.61,16.96-6.45,6.73-3.55,12.78-8.03,18.18-13.4,1.25-1.24,2.43-2.54,3.58-3.86,2.29-2.6,4.37-5.37,6.26-8.27,3.2-4.89,5.81-10.09,7.8-15.6,1.29-3.57,2.32-7.22,3.05-10.96.29-1.51.57-3.03.74-4.56.15-1.37.41-2.73.47-4.1.13-2.81.3-5.61.3-8.43-.01-30.69,0-61.39,0-92.08,0-1.43.03-2.86.05-4.3.03-2.21.37-4.39.82-6.55,1.05-5.05,2.88-9.81,5.5-14.25,3.14-5.32,7.14-9.87,11.99-13.65,5.07-3.96,10.7-6.79,16.93-8.4,2.54-.66,5.11-1.15,7.74-1.3.76-.04,1.52-.18,2.27-.27.19-.02.29-.19.31-.34.04-.38.05-.77.05-1.16,0-2.37,0-4.74,0-7.11,0-6.61,0-13.23,0-19.84-4.6.14-8.67.65-12.1,1.28Z"/><path class="cls-1" d="m272.95,132.5c-.33-8.7-1.97-17.45-5.62-25.38-9.81-23.69-33.84-40.37-63.48-40.42-17.81-.62-43.86,6.97-58.94,29.26-17.79,26.89-14.82,58.8,4.97,82.06,15.12,17.77,38.83,23.43,53.22,22.78,0,0,0,0,0,0,35.12.98,67.63-23.74,69.78-63.88.16-1.47.16-2.94.08-4.42Zm-69.92,42.5v-.03c-.4,0-.8,0-1.2,0-52.42-3.78-52.06-79.11.41-82.37,23.02-1,42.68,19.15,41.92,41.95-.4,22.5-18.72,40.64-41.13,40.45Z"/><ellipse class="cls-2" cx="203.32" cy="133.76" rx="31.8" ry="32.09"/><path class="cls-1" d="m685.86,66.98h0c-33.55-.05-69.08.02-70.44.09-2.24.1-4.46.37-6.68.66-2.17.28-4.31.7-6.44,1.2-4.37,1.02-8.6,2.46-12.71,4.29-6.39,2.86-12.17,6.68-17.36,11.4-2.89,2.63-5.51,5.51-7.87,8.63-4.41,5.83-7.77,12.23-10.12,19.17-1.1,3.24-1.93,6.55-2.51,9.91-.39,2.28-.73,4.57-.81,6.89,0,.33,0,.67-.06.99-.17,1.04-.16,2.09-.16,3.14,0,2.81.21,5.61.52,8.4.2,1.81.47,3.61.84,5.38,1.41,6.84,3.77,13.33,7.18,19.42,4.48,8.04,10.38,14.83,17.67,20.38,5.4,4.11,11.33,7.25,17.7,9.54,3.4,1.22,6.88,2.16,10.41,2.85,2.79.55,5.59.99,8.43,1.13.27.01.54.05.82.07.87.07,1.74.17,2.61.19,3.6.05,7.21.18,10.8-.26,1.48,0,2.93-.27,4.39-.46,2.38-.31,4.74-.76,7.07-1.34,6.34-1.56,12.39-3.88,18.08-7.15,6.86-3.95,12.84-8.95,17.88-15.07,4.07-4.94,7.37-10.38,9.88-16.3,2.45-5.75,4.05-11.75,4.86-17.95.28-2.13.45-4.27.47-6.43.02-3.31,0-6.61-.44-9.9-.35-2.62-.82-5.22-1.46-7.78-.97-3.91-2.28-7.7-3.92-11.38-.81-1.83-.53-1.61-2.53-1.61-9.83,0-30.48.02-30.97.03-.13,0-.3.25-.23.35.29.4,4.92,6.53,6.46,9.51,1.62,3.14,2.7,6.49,3.43,9.95.46,2.16.78,4.34.82,6.55.02,1.6-.02,3.2-.02,4.8,0,1.6-.21,3.19-.47,4.76-.51,2.99-1.3,5.9-2.44,8.72-3.09,7.68-8.04,13.84-14.85,18.45-4.08,2.76-8.54,4.65-13.33,5.75-2.93.68-5.91,1.07-8.92,1.06-1.04,0-2.08-.01-3.11-.02-2.31-.01-4.57-.36-6.82-.83-4.25-.89-8.27-2.41-12.04-4.6-4.41-2.57-8.19-5.85-11.32-9.89-5.38-6.95-8.1-14.91-8.62-23.66-.18-2.98.05-5.94.5-8.89.47-3.01,1.21-5.92,2.31-8.76,3.08-7.94,8.11-14.3,15.16-19,6.5-4.34,13.71-6.42,21.46-6.72,1.42-.06,46-.02,66.87-.02h54.87v-25.62h-54.87Z"/><path class="cls-1" d="m494.06,134.34c-.97-36.87-28.99-66.18-65.41-67.58-24.1-.57-43.45,10.66-54.99,25-1.35,1.64-2.35,3.02-2.99,3.95,0,0,0,0,0,0-.4.6-.81,1.18-1.19,1.79-10.36,16.29-11.63,32.27-10.34,43.68,2.82,26.63,22.01,49.43,47.7,56.58,6.03,1.7,12.75,2.83,18.85,2.93.43.05,1.01-.01,1-.57.01-.33.02-.66.02-.99v-21c-.03-.52.16-1.43-.54-1.54-11.16-.59-21.87-5.56-29.11-14.19-4.44-5.27-7.07-11.33-7.91-18.18-.03-.34-.08-.77.34-.9,25.34-.03,103.16-.06,103.79-.07.01,0,.03,0,.04,0h.04c.34,0,.78-.07.83-.49.06-2.8.1-5.62-.12-8.42Zm-32.14-13.73c-24.04.32-48.12.03-72.17.08h0s-.54,0-.54,0v-.22c4.95-23.09,27.28-34.85,49.33-27.05,11.75,4.28,20.38,15.03,23.55,26.95,0,.08-.1.23-.16.24Z"/><path class="cls-1" d="m125.86,169.7c-6.23-3.76-12.5-7.45-18.75-11.19-1.36-.82-2.73-1.61-4.1-2.42-.16-.1-.5-.03-.6.12-7.5,11.97-19.95,19.59-34.27,18.75h0c-17.7-.16-33.86-12.85-38.1-30.04-4.67-16.92,2.08-36.61,17.19-45.97,0,0,0,0,0,0,6.35-4.09,13.93-6.18,21.47-6.39,14.15-.38,25.79,6.61,33.35,18.37,0,.01.02.02.02.03,0,0,0,0,0,0,.25.33.51.87.97.53,1.46-.86,2.93-1.72,4.38-2.58,5.74-3.42,11.47-6.84,17.2-10.26.49-.38,1.25-.57,1.55-1.11.02-.12.01-.24-.05-.34-13.09-19.53-33.02-30.35-54.99-30.38-33.93-.97-63.16,20.43-69.92,53.63-7.39,36.35,16.23,72.09,53.03,78.83,17.96,3.58,37.27.52,52.63-9.64,7.54-4.89,14.13-11.28,19.03-18.85.26-.37.5-.8-.05-1.1Z"/><path class="cls-1" d="m361.27,70.68c-.32-.2-.64-.41-.98-.59-3.98-2.17-8.29-3.01-12.75-3.21-1.97-.09-3.92.16-5.86.53-4.67.91-8.75,3.01-12.3,6.2-1.76,1.58-2.95,3.03-3.52,3.77-1.19,1.55-2.06,3.03-2.68,4.25-.37.69-.67,1.27-.94,1.8-.12.23-.33.64-.63.66-.13,0-.21-.06-.21-.06-.11-.08-.12-.23-.13-.27v-12.88c0-.29-.23-.52-.52-.52h-24.53c-.29,0-.52.23-.52.52v126.08c0,.25.2.46.46.46h26.43c.25,0,.46-.2.46-.46v-84.49c0-1.4.13-2.81.47-4.17,0-.03.02-.06.02-.09,1.05-4.07,3.2-7.38,6.43-9.94,1.78-1.4,3.82-2.45,5.98-3.14,3.29-1.05,6.43-1.21,9.56-.29,2.05.6,4.02,1.41,5.83,2.57.18.12.35.24.65.19.07-.15.21-.38.32-.7.91-2.54,1.81-5.08,2.71-7.62,1.8-5.02,3.61-10.04,5.41-15.06.35-.98.69-1.97,1.04-2.96.07-.21-.02-.47-.21-.59Z"/></svg>