<svg xmlns="http://www.w3.org/2000/svg" role="img" viewBox="-12.75 -12.75 629.50 663.00"><path fill="#9cd4ea" d="M541.02959 637.72575c-2.66309-.61617-4.43859-2.18934-5.92044-5.24573-.51198-1.056-6.02136-13.68763-12.24306-28.07029-6.22171-14.38266-11.37037-26.09211-11.44148-26.021-.0711.0711-3.68681 13.20675-8.03487 29.19029l-7.90557 29.061-7.26209.086c-5.82554.069-7.26209.003-7.26209-.33411 0-.81421 21.71689-79.88433 22.2478-81.00314 1.33378-2.81072 4.80379-4.45349 7.97737-3.77663 1.986.42358 4.2134 1.81656 5.12573 3.20556.42711.65027 6.54822 14.42745 13.60246 30.61594 7.05424 16.1885 12.92956 29.53434 13.05627 29.65742.1267.12307 6.13304-13.33806 13.34742-29.91363 12.30492-28.2715 13.20837-30.2295 14.59213-31.62479 1.21341-1.22351 1.79948-1.55472 3.30358-1.86697 3.50214-.72704 6.85039.90115 8.21408 3.99434.48662 1.10377 21.44869 77.69767 21.94962 80.20232l.18354.91769h-14.69947l-7.96201-29.27226c-4.3791-16.09974-8.0552-29.16774-8.16909-29.04-.1139.12774-5.58007 12.59004-12.14704 27.69399-12.7066 29.22498-12.85651 29.52157-15.62136 30.90665-1.48881.74583-3.39681.99243-4.93143.63735zm-506.3096-1.42974c-12.7353-1.95461-24.11615-10.27043-29.9082-21.85347-1.4869-2.9735-3.40172-9.00706-4.02497-12.68252-.7223-4.2596-.72192-11.74425.00082-16 2.55514-15.0457 12.08463-26.36198 26.10533-31.00013 6.36796-2.10657 6.58518-2.11988 34.60342-2.11988h25.2236v14.72001H63.5916c-28.15924 0-28.94348.07-34.87668 3.11189-6.45353 3.30868-11.1454 9.58013-12.9193 17.26874-.8411 3.64559-.77117 10.20929.14868 13.9558 2.36658 9.63891 8.82082 16.50321 18.14724 19.3002 1.74933.52463 4.02301.58137 27.26846.68054l25.36.1082v15.01463l-24.56-.031c-19.1633-.0242-25.19284-.12812-27.44-.47301zm63.52-41.57599v-42.08001h32.43809c35.85446 0 35.37613-.0238 40.85762 2.03511 3.73583 1.40324 5.96656 2.78086 8.88149 5.4849 5.48758 5.09057 8.39401 11.93951 8.90573 20.98619.74946 13.24946-4.83934 24.26302-14.64996 28.86997-1.19916.56311-2.18314 1.12553-2.18663 1.24982-.003.12429 5.53767 5.83047 12.31367 12.68039 6.776 6.84993 12.32 12.54423 12.32 12.65402 0 .10978-4.65328.19961-10.34063.19961h-10.34062l-10.63671-11.677-10.6367-11.67699-15.74267-.083-15.74267-.083-.0866-6.46003-.0866-6.46003 19.60656-.12294c16.60324-.10411 19.859-.19948 21.25451-.62255 7.20409-2.18407 10.71605-8.14468 10.23695-17.37445-.41094-7.91649-3.4264-12.10303-10.20679-14.17066-1.46079-.44546-4.87935-.52664-26.3981-.6269l-24.72-.11517v69.47273h-15.04zm106.56001.00131v-42.08132h75.19999v14.72001H219.84V621.75675l30.15999.0816 30.16.0816v14.72l-37.67999.0813-37.68.0813zm87.67999 34.57676v-7.5238l33.52-.0871 33.52-.0871 2.01616-.93095c2.48531-1.14759 4.58921-3.37901 5.39176-5.71858.38925-1.1347.56612-2.56526.55148-4.46034-.0191-2.47485-.13857-3.02755-1.05788-4.89492-.82731-1.68051-1.36961-2.32532-2.68892-3.19718-3.15156-2.08271-3.09054-2.07803-27.13667-2.07803-13.61216 0-22.60037-.12726-24.17277-.34226-10.92198-1.49335-18.51336-8.20246-20.74928-18.33777-.67262-3.04899-.50579-9.48956.32431-12.51997 2.25662-8.23818 9.15244-14.2393 18.35716-15.97541 2.32465-.43845 6.90743-.5046 34.96-.5046h32.28465v14.72001l-30.48.002c-19.44306.002-31.2182.1222-32.51864.33321-3.55237.57642-5.75977 2.20818-7.12145 5.26438-.83312 1.86984-1.00751 6.1447-.34214 8.38654.61896 2.08544 2.24214 3.96014 4.37258 5.05013l1.88286.96333 23.8634.19487c24.52483.20028 25.20132.23516 29.30339 1.51124 5.30163 1.64923 9.56635 4.89607 11.94512 9.09413 2.35898 4.16311 3.5248 10.96487 2.91095 16.98326-1.11085 10.89095-7.11788 17.96427-17.63434 20.76456-2.65671.70742-2.72639.70895-36.98173.81128l-34.32.10253zm140.48-8.44332v-15.94525l-22.24-25.98126c-12.232-14.28969-22.24-26.05032-22.24-26.13475 0-.0844 4.45729-.1535 9.90509-.1535h9.90509l15.58345 18.48001c8.5709 10.164 15.90224 18.81736 16.29188 19.22969l.70843.7497 16.28303-19.2226 16.28303-19.22259 9.55908-.007 9.55908-.007-1.74849 2c-.96166 1.1-11.05925 12.85724-22.43908 26.1272l-20.69059 24.1272v31.90561h-14.72zM230.08 593.91793v-6.4021l23.27999.0821 23.28.0821.0868 6.32.0868 6.32H230.08zm58.71999-92.67477c-11.80441-.88005-16.31944-1.35778-24.16-2.55633C255.19874 497.24358 240 494.02638 240 493.47116c0-.40228 10.59099-6.21209 13.27999-7.28489 5.00199-1.99558 8.76892-2.3575 17.77625-1.70793 13.94386 1.00558 37.70046 1.00456 54.70375-.002 26.94497-1.59565 56.0592-5.47392 86.67384-11.54573 4.46262-.88507 8.18969-1.53337 8.28239-1.44067.27269.27268-14.61918 7.53489-20.94773 10.21543-24.41913 10.34303-48.31652 16.31061-75.9285 18.96061-4.9669.47669-30.70295.90088-35.04.57754zm-86.72605-21.39341c-2.41312-.52543-4.79783-1.52674-10.8243-4.54501-15.29523-7.66038-31.49924-18.0246-44.36964-28.37919-7.54339-6.06887-20.86171-18.1583-20.23443-18.36739.1831-.061 3.33475.46654 7.00367 1.17239 49.07695 9.44173 93.0702 15.02502 125.48329 15.92538 4.09889.11386 7.33889.31725 7.2.45198-.80329.7792-49.28208 31.27623-51.14171 32.17222-3.98604 1.92051-8.83857 2.50118-13.11688 1.56962zm92.3995-.17457c-8.87972-2.32661-15.61442-9.97224-17.03103-19.33462-1.39364-9.2106 3.6506-18.90286 12.15284-23.35106 3.63459-1.90154 6.3836-2.5711 10.56474-2.5732 4.36243-.002 6.65227.52477 10.521 2.42116 3.01509 1.47795 6.99502 4.99138 8.77119 7.74309l1.02781 1.59234 6.72-.20943c34.58839-1.07795 75.41701-7.86711 110.24-18.33118 3.256-.97841 6.70011-2.00685 7.65359-2.28543l1.73358-.50651 3.58856-7.38016c6.14524-12.63818 11.65704-25.61665 15.67803-36.91655l1.5146-4.25637-.92418-.96531c-.60066-.62738-1.14822-.91665-1.56418-.82632-.352.0764-3.76786 1.08837-7.59081 2.24873-30.41232 9.23096-60.80541 15.78066-90.74933 19.55648-10.18888 1.28478-23.95462 2.63108-24.21724 2.36846-.18517-.18517 12.07197-21.55814 12.75096-22.23405.20153-.20061 3.89442-.75214 8.20642-1.22562 30.58888-3.35882 58.87767-8.79654 86.89707-16.70349l8.65707-2.44299.52658-2.54662c.76808-3.7145 2.72274-7.42707 5.44514-10.34219 3.34641-3.5833 6.27305-5.40654 10.79165-6.72297l2.3975-.69848.39915-2.35644c.92357-5.4524 2.00779-13.23525 2.46806-17.71644.27116-2.64.56834-5.46358.6604-6.27462l.16738-1.47461-1.525-.56631c-2.06924-.76842-4.56755-2.19896-6.47912-3.70997-.87288-.68997-1.74244-1.25449-1.93236-1.25449-.18992 0-2.96615.78639-6.16941 1.74753-17.694 5.30912-39.02721 10.52536-57.50411 14.06049-13.27023 2.53895-32.19407 5.54457-32.56623 5.17241-.10637-.10637.47042-2.96248 1.28176-6.34692.81134-3.38443 1.94337-8.31351 2.51563-10.95351.57225-2.64 1.07308-4.84573 1.11294-4.90162.0399-.0559 3.65075-.66029 8.02419-1.34311 22.27823-3.47824 44.76645-8.39639 64.91171-14.19613 13.27901-3.82297 12.10795-3.35798 12.37343-4.91314 1.10446-6.46965 7.34478-13.77171 13.79166-16.13818l1.84509-.67729-.17121-1.47527c-.87426-7.53334-1.60976-12.93052-2.42348-17.7838-.99605-5.94075-2.74448-14.56712-3.00542-14.82806-.0816-.0816-4.7973 1.17289-10.47925 2.78783-8.35611 2.37501-29.27864 7.71496-43.57731 11.12203l-2.52648.60201-1.36482 2.63093c-3.24631 6.25783-8.45195 10.88953-14.70528 13.08395-2.29255.8045-2.97052.89551-6.55693.88017-3.44179-.0147-4.35725-.1355-6.56-.86553-13.55652-4.49283-19.91376-19.8092-13.39223-32.26565 1.43199-2.73516 4.06762-5.91953 6.18736-7.47557l1.67342-1.2284-.20974-1.58106c-.65378-4.92846-4.31206-21.58311-6.6235-30.15411-16.76149-62.15285-49.89305-112.7121-100.43531-153.26578-9.37515-7.52236-21.21549-16.00792-31.11999-22.30262-3.124-1.98542-5.68-3.69265-5.68-3.79384 0-.27221 10.86433-2.70344 17.11999-3.83113 41.86889-7.54755 84.61192-4.37418 124.75879 9.26248 6.07333 2.06292 6.8485 2.38378 6.40231 2.65007-.59897.35747-7.50645 2.16588-11.1611 2.92204-15.51453 3.21-41.72004 5.41327-72.8 6.12079-4.312.09816-9.01391.25761-10.4487.35435l-2.60871.17587 4.36187 3.89388c2.39904 2.14164 7.06537 6.54216 10.36963 9.77895l6.00775 5.88507 4.23908-.22042c22.19127-1.1539 48.43787-4.09072 72.07908-8.0652 11.77288-1.97922 11.58277-1.93356 11.80936-2.83636.34683-1.3819 3.36038-5.50647 5.45441-7.46533 2.44862-2.29056 5.3803-4.00189 8.7629-5.11521 3.50914-1.15497 9.3607-1.2088 12.85333-.11822 4.14827 1.29529 6.59143 2.78331 9.78634 5.96044 2.37132 2.35812 3.15126 3.39087 4.23682 5.61016.73176 1.496 1.55356 3.584 1.82621 4.64 2.91594 11.29376-3.2812 23.0561-14.25804 27.06216-10.07937 3.67851-20.55591.1657-27.01707-9.05891-.42033-.6001-1.30866-.49608-36.04616 4.22097-19.58837 2.65993-35.67351 4.89453-35.74474 4.96576-.0712.07124.86838 1.32664 2.08804 2.78977 4.825 5.78819 12.09368 15.5803 17.01982 22.9285l2.00329 2.98827 1.97275-.21396c5.07965-.55092 19.14465-2.55612 27.09274-3.86253 24.89362-4.0917 57.43286-11.63344 87.36-20.24772l2.08-.5987 7.84 7.0071c4.312 3.85391 8.02853 7.19452 8.25895 7.42358.46656.4638.59213.41238-12.66822 5.18716-32.355 11.65037-71.95811 20.85521-107.59073 25.00701-1.144.13329-2.07627.38617-2.07172.56195.005.17578 1.67848 3.63159 3.71984 7.67959 5.40535 10.71879 10.43089 22.32903 14.19762 32.8.66478 1.848 1.31173 3.47709 1.43766 3.62019.4844.55043 26.14155-4.33024 41.9166-7.97365 5.016-1.1585 9.13958-2.1289 9.16352-2.15645.0239-.0275.44063-1.05809.92599-2.29009 2.54768-6.4668 7.86709-11.59473 14.26211-13.74873 3.53067-1.18922 8.64546-1.47203 12.22392-.6759 3.02497.67299 6.92217 2.54547 9.25842 4.44838l1.80484 1.47006 9.3806-3.15093c12.19174-4.09518 19.94633-6.94421 32.1632-11.81672l1.6626-.6631 2.60386 4.49196c16.7649 28.92133 27.81223 62.64721 31.65002 96.62281 1.2 10.6235 1.45555 15.63438 1.45159 28.46218-.004 13.26863-.27358 18.22835-1.60823 29.6-5.45907 46.51292-23.65147 90.16499-52.85859 126.83249-7.92091 9.94414-18.92884 21.71001-24.40385 26.08415-5.46426 4.36555-12.39277 8.61846-18.56 11.39263-7.52442 3.38467-19.53043 6.55437-41.25503 10.8917-26.34372 5.25955-52.75391 8.89992-83.54497 11.5158-4.136.35138-7.808.64394-8.16.65013-.42516.007-.98732.58541-1.67469 1.72166-2.99722 4.95461-8.28705 8.76975-14.18575 10.23108-2.90566.71984-8.10617.66156-11.10611-.12447zm180.10966-68.87517c13.9011-14.87482 24.91804-30.16445 34.6429-48.07845 1.14606-2.11115 2.0292-3.89301 1.96253-3.95968-.0667-.0667-1.61594.41132-3.44282 1.0622l-3.32159 1.18342-.34693 1.86551c-1.45 7.79701-7.64159 14.72821-15.34822 17.18165-1.36894.43581-3.46136.87471-4.64983.97535l-2.16085.18297-1.31592 4.19351c-2.40369 7.65999-6.62921 19.31903-10.47895 28.91352-.37075.924-.6124 1.68-.53701 1.68.0754 0 2.32391-2.34 4.99669-5.2zm30.69689-71.83449c2.376-.98513 6.48-2.78439 9.12-3.99837 2.64-1.21397 5.77181-2.6494 6.95958-3.18984l2.15958-.98261 1.89095-5.79735c3.28752-10.07898 5.88391-20.21038 7.88164-30.75503.93203-4.91955 2.43892-14.93831 2.27194-15.10529-.0579-.0579-.95545.27279-1.9945.73491-1.91464.85155-17.86998 7.24519-20.72148 8.30354-1.68952.62707-1.61885.5134-2.88665 4.64308-1.85938 6.05665-6.03097 10.82717-11.93823 13.65223l-2.29718 1.09859-.17872 1.97532c-.86078 9.51368-1.63975 16.58289-2.42912 22.0444-.51365 3.55381-.90329 6.48472-.86586 6.51314.0374.0284.64405.41112 1.34805.85046s1.89955 1.31764 2.65677 1.95177l1.37678 1.15298 1.66322-.6504c.91478-.35771 3.60723-1.4564 5.98323-2.44153zm3.28797-73.65156c7.82874-3.13436 12.91029-5.28149 21.47486-9.07391l7.32284-3.24256-.17758-9.61874c-.17009-9.21283-.62443-15.6941-1.68373-24.01874-.5637-4.42993-1.3445-9.14681-1.54773-9.35004-.0768-.0768-4.00449 1.29623-8.72815 3.05123-10.99397 4.08462-30.20897 10.72256-35.85556 12.38653-.0369.0109.13923.90411.39138 1.98498 1.8501 7.93068 5.26432 30.75649 5.27817 35.2873.003 1.09116.0714 1.15108 2.64461 2.32748 1.45265.66412 3.07133 1.55943 3.59705 1.98958.52573.43015 1.09987.7308 1.27587.66813.176-.0627 2.87959-1.13874 6.00797-2.39124zm-86.00797-43.41012c12.91615-2.81362 35.81245-8.82578 45.84733-12.03869l2.32732-.74514-2.03932-5.92c-2.4106-6.99781-4.89421-13.48618-8.02303-20.96001l-2.27738-5.44-3.03746-.204c-5.42149-.36413-10.6079-2.67468-14.47812-6.45002l-1.52065-1.48338-5.35935 1.24623c-12.13802 2.82252-30.87186 6.5742-41.55087 8.32107l-2.27154.37158 1.70041 6.85735c1.40838 5.67963 4.66241 20.41075 6.19848 28.06075.40275 2.00575.32777 1.95369 3.30763 2.29686 4.00142.46082 9.17512 3.21713 11.83514 6.30523.96488 1.12016 1.49794 1.49608 1.97188 1.39059.35724-.0795 3.67353-.8033 7.36953-1.60842zm68.51704-19.473c17.81786-6.3166 37.56296-14.25004 37.56296-15.09253 0-.46552-2.35348-8.20625-3.73916-12.29831-2.91045-8.59485-6.9162-18.43482-10.09583-24.8-.87918-1.76-1.64452-3.25054-1.70075-3.31231-.0562-.0618-4.82769 1.48197-10.60325 3.43056-5.77555 1.94858-13.23024 4.39059-16.56596 5.42668l-6.06496 1.88379-.67561 2.20564c-1.15671 3.7763-3.1356 7.21428-5.40393 9.38842-.6328.60652-1.15055 1.26615-1.15055 1.46584 0 .19969 1.13327 3.37544 2.51838 7.05723 2.36023 6.2738 6.82473 19.47646 8.35036 24.69416.3731 1.276.72493 2.32.78185 2.32.0569 0 3.11083-1.06613 6.78645-2.36917zM199.52 422.50029c-34.10671-4.39919-65.66881-11.20393-93.44-20.14551l-3.52-1.13335-1.55298-2.08452c-5.69815-7.64844-13.84252-20.635-19.02543-30.3369-5.49056-10.27779-13.61791-28.6781-12.47344-28.23986.22652.0867 4.29985 1.48047 9.05185 3.09718 53.92933 18.34772 112.42467 29.84212 171.83999 33.76675 19.96049 1.31848 47.13092 1.8126 64.61251 1.17505 5.44087-.19843 9.93404-.31924 9.98481-.26847.10416.10416-12.01855 20.06587-13.014 21.42935l-.64248.88h-15.78334c-29.70331 0-55.64167-1.4676-88.03749-4.98118-8.07715-.87604-29.65408-3.55361-30.79907-3.822-.49151-.11521 2.9522 4.26366 10.88222 13.83732 6.3807 7.70322 12.15763 14.68986 12.83761 15.52586 1.31273 1.61393 1.32932 1.59051-.92076 1.30028zm-57.92-79.28155c-25.18315-5.20229-47.32576-11.86977-73.03407-21.99167-3.56074-1.40194-6.54404-2.6622-6.62957-2.80059-.28463-.46053-3.005-11.63912-3.97802-16.34647-2.36974-11.46461-4.08909-24.32539-4.71702-35.28342l-.21565-3.76341 2.20716.83832c37.5498 14.26209 81.98523 26.1915 124.44717 33.40985 39.14082 6.65379 75.03458 9.70217 114.23999 9.70217 20.76366 0 36.86611-.6532 54.19803-2.19856 3.05691-.27256 5.61831-.43528 5.69199-.3616.10885.10885-3.83373 16.64824-5.00847 21.01089l-.31502 1.16993-7.44327.54406c-18.97273 1.3868-30.629 1.80972-49.84326 1.80841-38.29271-.003-75.2461-2.87336-117.59999-9.13584-8.28842-1.22553-32.04211-5.16026-32.7556-5.42588-.33097-.1232-.38353.0501-.21884.72146.22265.90763 8.09603 28.40476 8.3391 29.12362.18341.54244.24885.55151-7.36466-1.02127zm-22.24-76.56435c-25.26986-7.86911-48.77254-16.28939-63.52-22.75722l-2.88-1.26309.08524-3.95704c.16404-7.61484 1.44354-19.76809 3.14546-29.87703.89912-5.34049 2.57342-13.59079 2.8051-13.82248.08237-.0824 2.862.8579 6.17698 2.08948 34.7868 12.92401 72.79353 23.18342 110.34722 29.78679 29.2109 5.13639 57.79317 8.14732 88.63999 9.33758 10.90143.42064 45.46674.21164 54.72-.33087 13.89124-.81443 26.30268-1.81233 37.35788-3.00364l3.75787-.40494.14598.97404c.0803.53572.30176 4.79004.49215 9.45404.1904 4.664.37767 9.05521.41615 9.75825l.07 1.27825-2.9033.38529c-9.59633 1.27349-31.0111 3.08575-46.6967 3.95178-10.08037.55656-39.5393.7522-50.88.3379-44.47331-1.6247-86.35407-7.31141-128.61194-17.46338l-1.89194-.45451.20977 14.52566c.11538 7.98912.10275 14.58591-.0281 14.65953-.13081.0736-5.06183-1.36835-10.95783-3.20439zm12.96-67.18043c-21.96383-4.91295-36.13488-9.16447-52.2468-15.67479-4.89737-1.97887-15.4387-6.73387-15.87716-7.16189-.8288-.80906 6.42033-20.06362 12.31922-32.72132 3.7633-8.0752 6.03408-12.14862 6.64197-11.91461.28752.11068 3.47477 1.25563 7.08277 2.54433 47.88306 17.1028 99.98758 27.45885 154.56 30.71961 29.59957 1.76861 58.45412 1.40578 89.43999-1.12466 4.4-.35933 8.40675-.68196 8.90389-.71697.89918-.0633.92443-.0111 4.8404 10.01634 2.16508 5.544 3.89254 10.12979 3.8388 10.19064-.0537.0609-2.87991.37577-6.28039.69981-53.59727 5.10748-107.47301 3.76942-162.34269-4.03195-9.63242-1.36953-24.36046-3.81255-33.76-5.59994-3.784-.71956-7.32083-1.38353-7.85961-1.47549l-.97961-.1672-2.98412 13.07207c-1.64127 7.18963-3.07245 13.23034-3.18039 13.42378-.14075.25222-.73939.23023-2.11627-.0778zm19.04-65.74555c-24.58722-4.8313-38.83418-8.67825-51.30274-13.8527-3.9921-1.65672-7.89726-3.66337-7.89726-4.05798 0-.54302 6.23137-9.63118 10.51644-15.33773 6.15515-8.19698 12.5243-15.73202 19.44598-23.0056l3.1647-3.3256 4.47644 1.03236C173.23839 85.20738 207.55341 91.05141 241.6 94.2275c18.82567 1.75619 32.63134 2.4076 51.08443 2.41041l13.80443.0021 8.01503 10 8.01503 10-2.93946.20402c-1.61671.1122-9.85147.31032-18.29947.44024-38.70023.59517-82.18578-2.5454-124.44643-8.98761-4.42247-.67416-5.45651-.74703-5.68159-.4004-.15134.23306-3.69214 6.29175-7.86845 13.46375-6.16673 10.59017-7.71448 13.03303-8.2384 13.00288-.35482-.0204-2.01312-.30593-3.68512-.63447zm36.16-63.36148c-8.23558-.71806-20.21192-2.9291-31.96493-5.90129-8.70697-2.20188-15.07507-4.01346-15.07507-4.28852 0-.32103 7.21016-6.17784 12.48-10.1375 12.12306-9.10905 24.96798-17.05587 38.23799-23.65687 7.4931-3.72735 9.68075-4.36323 15.20201-4.41873 7.16114-.07198 9.83698.98285 23.84 9.39791 13.06238 7.8498 26.92225 17.37782 36.47999 25.07833 5.59407 4.50705 8.80755 7.3604 8.56006 7.60077-.13203.12823-2.04006.40688-4.24006.6192-5.28702.51027-14.63694.22889-26.39999-.7945C231.53592 62.72566 225.95236 62.4 219.50984 62.4h-5.62109l-8.41203 4.16-8.41203 4.16-3.25235-.044c-1.78879-.0242-4.62034-.16329-6.29234-.30907z"/><path fill="#cdd621" d="M539.21575 636.89952c-1.11814-.58752-2.10646-1.43034-2.75335-2.348-.55501-.78733-6.38519-13.85322-12.95596-29.03531-6.57076-15.18209-12.04219-27.49409-12.15873-27.36-.11654.13409-3.70927 13.13181-7.98384 28.88381-4.27458 15.752-7.83955 28.82-7.92216 29.04-.11402.30367-1.8811.4-7.33752.4-6.89306 0-7.1795-.0247-6.99607-.60262.1052-.33143 5.08561-18.51143 11.06759-40.4 8.7149-31.88853 11.05001-40.04609 11.75031-41.04889 1.14353-1.6375 2.93758-2.53674 5.37-2.69163 2.42522-.15443 4.77469.76268 6.30563 2.46139.77408.85891 4.46588 9.02164 14.16267 31.31425 7.21362 16.58387 13.18767 30.15526 13.27567 30.15864.088.003 3.96676-8.74125 8.61947-19.4325 18.69734-42.96375 17.93532-41.27814 19.25933-42.60215 3.11994-3.11994 8.78761-2.43891 10.95484 1.31634.51831.89809 4.48275 14.98132 11.55482 41.04717 5.92119 21.824 10.82557 39.86 10.89863 40.08.10366.31219-1.46302.39959-7.13714.39815l-7.26995-.002-7.65914-28.23815c-4.21252-15.53099-7.83059-28.74215-8.04016-29.35815l-.38102-1.12-.78266 1.76c-.43046.968-5.87469 13.45633-12.09829 27.75184-7.48512 17.19322-11.70206 26.49999-12.45718 27.49293-1.44001 1.89353-3.138 2.78039-5.61505 2.93274-1.63748.10072-2.18818-.019-3.67074-.79801zm-505.6051-.92439c-7.94061-1.44781-15.13935-5.26265-21.01123-11.13453-5.84462-5.84462-9.50703-12.72245-11.3605-21.33445-.96332-4.47598-1.05615-14.28243-.1766-18.6547C4.3864 568.32759 15.16155 557.35268 31.84 553.50322c2.76501-.63818 3.91807-.66931 28.88-.77962l26-.11489v14.72935l-25.36.0984c-28.19288.10941-26.58446-.01-31.5716 2.34238-7.07902 3.33899-11.72844 9.02166-13.99237 17.10191-.46571 1.66217-.57943 3.20255-.56695 7.67925.0144 5.16451.08365 5.82273.89047 8.46421 2.84782 9.32351 9.19023 15.62266 18.28045 18.15576 2.52945.70486 2.85694.7147 27.44.8246l24.88.11122V636.48l-25.36-.0346c-19.8902-.0272-25.87535-.12859-27.74935-.47027zM98.56 594.56002v-41.92001l31.6.006c19.21512.004 32.47791.13116 33.84.32481 12.15193 1.7277 20.23653 8.2437 23.61909 19.03642 1.23953 3.95494 1.59752 7.21921 1.41263 12.8807-.20209 6.18829-.88573 9.17859-3.14239 13.74518-2.51332 5.08596-7.04782 9.48209-12.01975 11.65296-.85227.37212-1.60847.7288-1.68044.79262-.072.0638 5.47203 5.76914 12.32 12.6785L196.96 636.31968l-10.21452.0846c-10.14275.084-10.21978.0796-10.96458-.62009-.41254-.38756-5.17601-5.5717-10.58549-11.52032L155.36 613.44822l-15.76-.004-15.76-.004v-13.12l18.8-.006c20.32813-.006 21.42076-.0826 24.67013-1.72917 3.1104-1.57617 5.15354-4.01177 6.4853-7.73111.94432-2.63728 1.20798-9.60185.48068-12.69702-1.293-5.50259-4.49949-8.76157-10.0061-10.16993-2.32988-.59588-3.66473-.62721-26.7212-.62721H113.28v69.12H98.56zm106.24 0v-41.92001h75.19999v14.72001H219.52v54.72h60.47999v14.4H204.8zm87.67999 34.72951v-7.20951l31.76-.006c19.03982-.004 32.62959-.13208 33.9312-.32029 3.91565-.56618 6.93629-2.60064 8.45598-5.69526.80532-1.63993.89271-2.1474.89165-5.17811-.00099-2.84565-.11707-3.61677-.75825-5.03733-.87597-1.9407-2.69308-3.71073-4.68674-4.56532-2.64834-1.13521-5.69664-1.27729-27.45699-1.27977-13.13972-.002-21.96626-.12905-23.25685-.33606-2.81267-.45118-6.97561-1.91441-9.17419-3.22464-9.21875-5.49386-13.25096-17.58975-9.54439-28.63141 2.45605-7.31647 7.61827-11.80225 16.46837-14.31042 2.37911-.67426 2.83458-.68433 35.29021-.78044l32.88-.0974V567.36032h-31.30192c-34.561 0-33.21009-.076-35.96063 2.02194-2.02847 1.54717-3.20635 4.06005-3.38998 7.23215-.17844 3.08239.32305 5.34548 1.5642 7.05883 1.09927 1.5175 3.11692 3.04743 4.73237 3.58844.84203.28199 7.67379.43803 25.15596.57456l24 .18745 3.11163.84775c10.97791 2.99092 16.24837 10.48712 16.24837 23.11011 0 11.848-5.8009 20.09764-16.48 23.43672l-2.88.9005-34.8.0903-34.8.0903zm140.46877-8.72951l-.0112-15.92-20.98029-24.48c-11.53916-13.464-21.55551-25.16401-22.25856-26.00001l-1.27827-1.52 9.86979.002 9.8698.002 16.32 19.3433c15.16695 17.97664 16.35621 19.30476 16.83252 18.79786.28189-.29999 7.67195-9.00543 16.42235-19.34543l15.90981-18.80001h9.25766c5.09171 0 9.25766.0517 9.25766.11489 0 .0632-10.00431 11.76319-22.23181 26l-22.23181 25.88512-.008 15.92-.008 15.92h-14.72zm-202.86876-26.64v-6.08H276.79999v12.16H230.08zm62.39999-92.69352c-14.79793-.64167-30.21278-2.65513-44.16-5.76809-3.60799-.80529-6.88399-1.53365-7.27999-1.61859-.396-.0849-.72-.26806-.72-.40696 0-.1389 2.628-1.70966 5.84-3.49058 9.20673-5.10476 13.3366-6.13079 22.09225-5.48859 42.24594 3.09861 93.34633-1.01484 146.35301-11.78102 3.2311-.65627 5.87473-1.14878 5.87473-1.09446 0 .20181-13.05136 6.62196-17.24896 8.48501-34.35745 15.24907-73.71247 22.76937-110.75104 21.16328zm-90.40605-21.37675c-2.41312-.52543-4.79783-1.52674-10.8243-4.54501-15.29523-7.66038-31.49924-18.0246-44.36964-28.37919-7.54339-6.06887-20.86171-18.1583-20.23443-18.36739.1831-.061 3.33475.46654 7.00367 1.17239 49.07695 9.44173 93.0702 15.02502 125.48329 15.92538 4.09889.11386 7.33889.31725 7.2.45198-.80329.7792-49.28208 31.27623-51.14171 32.17222-3.98604 1.92051-8.83857 2.50118-13.11688 1.56962zm94.49034.16095c-6.86344-1.25162-12.85234-5.47939-16.33395-11.53069-2.57691-4.47885-3.47897-11.1885-2.19496-16.3264 1.13362-4.53613 2.91674-7.71842 6.09935-10.88534 4.60686-4.58416 9.71617-6.70826 16.13602-6.70826 7.83081 0 14.72396 3.64316 19.07214 10.08.59446.88 1.10883 1.63934 1.14305 1.68742.1228.17251 16.44063-.59289 22.55406-1.05792 20.78546-1.58108 42.35385-4.79957 63.36-9.45476 12.49338-2.76867 29.22466-7.23338 37.4021-9.98068l3.0779-1.03406 3.42388-6.88c5.89623-11.848 11.24015-24.32919 15.4625-36.11404l1.98994-5.55404-1.12936-1.03497-1.12936-1.03498-4.0288 1.24612c-31.98811 9.89405-63.73531 16.80626-95.8688 20.87319-6.41896.81241-22.93114 2.48724-23.05233 2.33821-.0356-.0437 2.83269-5.0805 6.37385-11.19284 5.92975-10.23522 6.51434-11.12574 7.39848-11.27026.528-.0863 3.84-.45875 7.36-.82766 23.78204-2.49241 49.66501-7.11956 73.44-13.129 8.81986-2.22934 21.61608-5.80915 21.94662-6.13968.0969-.0969.36925-1.09058.60517-2.20813 1.00594-4.76495 3.48987-9.13057 6.98318-12.27326 2.22082-1.99792 6.68632-4.36748 9.63347-5.11188 1.03864-.26235 1.93455-.5231 1.99091-.57947.49427-.49427 3.64023-23.92318 3.64054-27.1122.0001-1.06906-.0833-1.15407-1.67989-1.71272-2.28424-.79926-4.63956-2.16922-6.41248-3.72981l-1.47746-1.30052-6.49503 1.92238c-18.87888 5.58769-36.04911 9.81707-55.1553 13.58587-13.79672 2.72148-33.57391 5.89459-34.50724 5.53643-.38198-.14657-.33112-.65841.31361-3.15585.42324-1.63949 1.49018-6.22089 2.37098-10.18089.8808-3.96 1.67142-7.50366 1.75694-7.8748.13708-.5949.58237-.73859 3.76073-1.21349 25.10835-3.75162 51.41729-9.51941 73.84601-16.1895a87691.84301 87691.84301 0 0 1 7.06962-2.10225c.32175-.0956.65539-.82948.90273-1.98578.59306-2.77247 2.96009-7.30481 5.01358-9.59987 2.20487-2.46427 5.21044-4.64593 8.05206-5.84479 1.18064-.4981 2.20291-1.07452 2.27172-1.28092.17021-.51064-.47241-6.36584-1.42114-12.9486-.854-5.92549-3.55872-20.29563-3.93442-20.90352-.17003-.27512-1.57415.0164-5.17414 1.07404-11.50249 3.37949-29.48292 8.03012-48.20151 12.46729l-3.58075.84881-.95938 2.05015c-1.27707 2.72903-2.64079 4.68238-4.98078 7.13428-4.73434 4.96078-10.26872 7.49978-16.33835 7.49554-7.75342-.005-14.73538-3.81953-18.86948-10.30803-1.77871-2.79171-2.56773-4.74912-3.22768-8.00732-1.45155-7.1663.78738-14.6635 5.93716-19.88099 1.32-1.33735 2.80168-2.70813 3.29262-3.04616l.89262-.61462-1.14752-6.07474c-15.87151-84.02089-58.6311-148.40001-130.71772-196.80947-3.96-2.65932-8.32455-5.52815-9.69902-6.37517-1.37446-.84703-2.38246-1.64792-2.24-1.77975.25048-.23178 9.43103-2.31082 14.65902-3.3197C278.52051.29386 304.024-.79013 327.64871 1.61851c19.17652 1.95513 38.95328 6.3294 56.50282 12.49744l4.79155 1.68406-1.03881.42388c-1.58463.6466-9.38634 2.54821-13.41189 3.26907-12.58428 2.25345-29.36533 3.8414-50.97239 4.82338-9.03597.41066-25.47428.95516-29.28.96985l-2.88.01112 1.13712 1.03135c.62541.56723 2.56941 2.30979 4.32 3.87234 1.75058 1.56255 6.08596 5.6298 9.63415 9.03835l6.45127 6.19734 2.34873-.16548c1.29181-.091 5.66073-.38312 9.70873-.64912 20.57107-1.35178 43.95597-4.12022 64.64-7.65246 11.97264-2.04459 10.6204-1.58088 11.96731-4.10385 2.41844-4.53008 5.9678-7.92553 10.48657-10.0318 3.14862-1.46764 5.77231-2.02368 9.57493-2.02925 8.90684-.01305 16.39408 4.64849 20.29446 12.63527 1.61566 3.30838 2.22614 5.98574 2.232 9.78881.019 12.2933-9.21608 22.03285-21.43527 22.6063-4.24296.19913-7.87261-.59699-11.62697-2.55023-2.85959-1.48772-6.20861-4.4205-7.93579-6.94946-.80817-1.18334-1.2371-1.54342-1.71724-1.4416-.352.07464-16.264 2.23463-35.36 4.79998-19.096 2.56534-34.96057 4.7637-35.2546 4.88523-.43723.18072-.0107.8621 2.34168 3.74097 4.27797 5.23538 9.64321 12.41737 13.98463 18.72 2.12158 3.08 4.04436 5.84173 4.27286 6.13717.38705.50047.91824.4728 7.77543-.40505 31.77249-4.0675 65.77636-11.28395 104.1006-22.09265 5.79524-1.63445 6.9009-1.86018 7.3547-1.50155 1.01523.8023 15.39999 13.72322 15.55226 13.9696.20876.33776-10.46548 4.2783-21.88756 8.0801-30.77319 10.2427-63.97962 17.6364-97.69295 21.75219-1.72312.21036-3.08929.47196-3.03591.58133.0534.10938 1.84089 3.65486 3.97226 7.87886 5.55835 11.01566 10.27386 21.9332 14.44344 33.44 1.12768 3.11207 1.27566 3.35304 2.00534 3.26562 6.86093-.82197 31.66798-5.78153 45.91902-9.1804l4.81119-1.14746.7666-2.25172c1.50592-4.42335 5.27807-9.01391 9.52862-11.596 1.0324-.62713 3.23728-1.6037 4.89974-2.17012 2.69083-.91681 3.42663-1.03197 6.70265-1.04903 5.54114-.0289 9.41639 1.2281 14.06164 4.5609l2.39596 1.71903 7.8512-2.60474c8.6701-2.87642 21.23713-7.42758 29.60338-10.7209 5.11817-2.01471 5.45694-2.105 5.86068-1.56175.23569.31712 1.45133 2.37657 2.70143 4.57657 17.13107 30.14827 27.97027 64.14602 31.42299 98.56 1.63762 16.3225 1.63862 34.78956.003 51.04-4.55961 45.29502-21.51213 88.76442-48.79522 125.12-9.89018 13.17899-23.0842 27.5021-30.56598 33.18169-7.77635 5.9032-16.8427 10.6183-25.90809 13.47387-11.27416 3.55134-42.96683 9.939-66.14152 13.33087-17.25143 2.52492-50.38591 6.08276-56.7298 6.0914-1.58417.002-1.60865.0177-2.39299 1.52218-.43585.836-2.0916 2.82786-3.67945 4.42634-2.35757 2.37336-3.38581 3.15033-5.60701 4.23682-1.496.73177-3.584 1.55667-4.64 1.83312-2.30401.60317-7.41293.85788-9.51571.4744zm181.36247-72.66114c8.83625-9.73898 17.64041-21.44918 24.65239-32.78955 2.80457-4.53579 9.12569-15.92183 8.94148-16.10603-.15529-.15529-6.56258 2.15005-6.97922 2.51112-.14223.12325-.46306 1.21653-.71296 2.4295-.24989 1.21298-1.12811 3.57028-1.95159 5.23846-1.22801 2.48766-1.96399 3.49462-4.093 5.6-4.01332 3.96879-7.9029 5.89402-13.39907 6.63216l-2.62479.35252-1.87244 5.79113c-2.46958 7.63799-5.14542 15.12645-8.21545 22.99135l-2.50536 6.4183 2.56065-2.52925c1.40835-1.39109 4.19806-4.33396 6.19936-6.53971zm25.19179-67.32067c6.1943-2.57939 13.58123-5.88038 17.49388-7.81747 3.51869-1.74205 3.02733-.86699 6.13823-10.93141 2.30537-7.45835 4.64173-16.65755 6.17666-24.32 1.32592-6.61905 2.95725-17.5021 2.66702-17.79233-.11211-.1121-3.19869 1.02868-6.85908 2.53509-3.66039 1.5064-9.16493 3.72051-12.2323 4.92026l-5.57703 2.18134-.55081 2.23782c-1.66106 6.74859-5.89366 12.0601-12.04295 15.11277l-2.97217 1.47546v1.32483c0 3.29438-1.97682 20.94136-3.01397 26.90559l-.39887 2.29374 1.62642.98161c.89453.53989 2.13042 1.41726 2.74642 1.94971.616.53246 1.28939.97395 1.49643.9811.20704.007 2.59299-.90999 5.30212-2.03811zm4.275-74.07732c7.03624-2.78771 14.06591-5.75219 22.60645-9.53338l7.6-3.36477-.002-4.68671c-.002-5.87437-.49558-15.33314-1.13779-21.8067-.48875-4.92675-1.94345-15.79774-2.21546-16.5562-.10322-.28781-.86744-.12478-2.7936.59594-10.63433 3.97912-23.28634 8.48309-31.87971 11.34881-5.56751 1.85666-10.16925 3.42224-10.2261 3.47909-.0568.0568.40798 2.69747 1.03293 5.86806 1.82874 9.27781 3.15302 18.03138 4.19584 27.73473.28316 2.63474.57104 4.88138.63974 4.99254.0687.11115.8136.4623 1.65535.78033.84175.31802 2.39445 1.12836 3.45045 1.80074 1.056.67239 2.0071 1.22554 2.11355 1.22924.10645.004 2.33845-.84308 4.96-1.88172zm-84.29342-44.00756c8.43303-1.88174 20.71557-4.9134 28.09987-6.93579 8.0207-2.1967 19.02841-5.46407 19.31588-5.73345.52368-.49073-4.70055-15.1426-9.36617-26.26831l-2.63084-6.27354-2.77943-.20554c-5.80695-.42942-10.59073-2.50549-14.67585-6.36903l-1.724-1.63049-8.0698 1.8432c-9.44934 2.15829-27.88724 5.85332-35.42979 7.10026-2.904.48009-5.39494.97159-5.53543 1.09223-.1405.12063.39159 2.79718 1.18241 5.94789 1.69594 6.75684 2.8576 11.92518 5.02768 22.36857.87772 4.224 1.66429 7.91183 1.74794 8.19518.10848.3675.70409.57287 2.07776.71645 2.52255.26366 6.40739 1.5845 8.62821 2.93357.97609.59295 2.56148 1.93408 3.52307 2.9803.9616 1.04622 1.99142 1.91848 2.28849 1.93836.29707.0199 4.04107-.74506 8.32-1.69986zm69.87759-20.03032c12.20679-4.35039 35.07549-13.38023 35.8514-14.15614.21927-.21927-2.72837-9.83493-4.83041-15.75755-2.59463-7.31051-5.48889-14.34791-8.34979-20.30251-1.94631-4.051-2.58921-5.12071-2.98477-4.96629-1.70511.66564-22.89097 7.70121-27.50315 9.13347-3.05746.94945-5.5896 1.87232-5.627 2.05081-.0374.17849-.46439 1.54852-.94889 3.04452-1.03053 3.18205-2.49636 5.72612-4.6688 8.10312l-1.55894 1.70573 2.2404 5.89558c2.27612 5.98954 7.70195 22.02007 8.79981 25.99884.57526 2.08482.64066 2.17565 1.45049 2.01439.46644-.0929 4.12478-1.33667 8.12965-2.76397zM197.92 422.17773c-32.49733-4.27844-60.44453-10.27962-89.76-19.27443-6.15267-1.88781-5.33503-1.20384-10.64529-8.90495-8.89258-12.89632-16.21822-25.77613-22.24932-39.11834-3.05425-6.75674-5.9227-13.76936-5.71655-13.97551.08257-.0826 4.23187 1.2363 9.22065 2.93084 33.56267 11.40019 67.7135 19.90452 104.11051 25.92588 28.61848 4.73451 55.12048 7.44586 86.39999 8.83936 9.21241.41041 41.77003.44311 50.16385.0504 4.12532-.19301 5.32975-.1623 5.21619.13301-.0812.21118-3.0413 5.12757-6.57798 10.9253l-6.43034 10.54134-6.62586.24041c-10.50753.38126-35.11123-.16084-51.90586-1.14366-21.54848-1.261-45.68643-3.58049-68.27919-6.56115-4.72955-.62397-8.64267-1.09101-8.69583-1.03785-.0531.0531 5.44926 6.79151 12.22757 14.97414 6.77831 8.18262 12.47306 15.0575 12.65501 15.2775.33987.41096-.82845.47778-3.10755.17772zm-50.88-77.95719c-.88-.15401-4.984-.99357-9.12-1.86568-23.62717-4.98197-48.30993-12.67062-74.00069-23.05111-2.13144-.86122-1.88076-.33554-3.76353-7.89236-1.70855-6.85753-3.59585-16.44339-4.60933-23.41138-1.35123-9.29014-2.74442-24.64-2.23637-24.64.13275 0 3.85229 1.31133 8.26564 2.91407 59.89074 21.74971 124.5384 35.23059 189.30427 39.47535 15.47438 1.01419 24.11911 1.26761 43.2 1.2664 22.1007-.001 36.70466-.58931 54.71782-2.20278 2.72679-.24424 4.98532-.41657 5.01894-.38295.12246.12246-5.24234 21.66215-5.44604 21.86586-.26757.26757-7.62383.87331-18.45072 1.5193-50.33342 3.00315-103.86673.0466-162.07999-8.95152-9.37823-1.44961-25.76809-4.20413-26.8-4.50408-.33207-.0965-.56048.009-.56116.25878-.00064.23186 1.88055 6.946 4.18042 14.92031 2.29987 7.9743 4.13639 14.60293 4.08116 14.73028-.0552.12735-.82042.10553-1.70042-.0485zm-23.2-76.26519c-30.6818-9.58642-48.54755-15.91157-66.4-23.50806l-4.48-1.90631.24055-5.19049c.50042-10.79771 2.17166-24.22933 4.44486-35.72298.71658-3.62313 1.3286-6.6166 1.36006-6.65217.03146-.0356 2.55027.86366 5.59737 1.99828 91.03072 33.89627 192.02589 46.57131 289.11967 36.28493 3.32339-.35209 6.08578-.59692 6.13863-.54406.19777.19776 1.13909 20.79195.95861 20.97243-.43006.43005-21.12407 2.54363-33.45976 3.4174-32.39871 2.29488-64.60212 2.19024-96.15999-.31248-30.61957-2.4283-63.53699-7.51073-93.09669-14.37406-4.21119-.97778-7.70319-1.77777-7.76-1.77777-.0568 0-.10331 6.552-.10331 14.56 0 11.44932-.0855 14.55413-.4 14.53252-.22-.0151-2.92-.81484-6-1.77718zm4.48-69.44087c-21.9812-4.97876-41.63936-11.45899-58.67548-19.34211-2.96751-1.37316-5.4656-2.56678-5.55131-2.65249-.24343-.24343 3.5294-11.19619 6.12299-17.77545 2.96425-7.51952 5.87194-14.00704 9.50724-21.21213l2.85961-5.6677 2.62847.9882c1.44567.5435 6.37248 2.27638 10.94848 3.85083 71.70196 24.67026 153.01376 34.24811 235.35999 27.72342 4.664-.36955 9.39898-.68882 10.52217-.70948l2.04217-.0376 3.8308 9.86037c2.10693 5.42321 3.76601 9.92516 3.68683 10.00433-.38324.38325-23.10789 2.21286-37.68197 3.03386-9.69561.54618-44.03042.75152-55.36.33108-38.69315-1.4359-79.13175-6.14084-114.07987-13.27293-2.11193-.43099-3.86588-.75762-3.89767-.72583-.0318.0318-1.37282 5.81585-2.98007 12.85346-1.60726 7.03762-2.99501 13.04767-3.0839 13.35567-.21065.72992-.37211.71415-6.19848-.60553zm16.48-66.17241c-19.05218-3.8794-31.31411-7.19725-41.76-11.29947-4.77682-1.87592-10.88-4.75624-10.88-5.13468 0-.38949 5.28703-8.27259 8.65064-12.89834 5.81243-7.99345 14.36366-18.23808 21.30821-25.52787l3.16115-3.3183 7.68 1.78794c42.82686 9.97025 83.50987 16.55057 118.87999 19.2284 16.2133 1.22748 37.49038 1.97138 48.03858 1.67954l6.59858-.18256 7.48142 9.30854c8.10921 10.08966 8.40707 10.47575 8.22332 10.6595-.0679.0679-6.67055.29085-14.67264.49553-38.53617.98568-82.78321-1.92175-126.76751-8.32975-4.87204-.7098-8.99543-1.29055-9.1631-1.29055-.16766 0-3.81344 6.04523-8.10174 13.43383-4.88446 8.41578-7.9762 13.42904-8.2769 13.42099-.264-.007-4.944-.92181-10.4-2.03275zm43.84-61.97998c-7.6074-.57858-18.55603-2.44424-28.91339-4.92688-6.9548-1.66705-19.2482-5.01584-19.23588-5.23995.006-.1074 1.67131-1.5598 3.70088-3.22759 14.18798-11.6588 30.30334-22.12546 46.71677-30.34178C199.05347 22.54857 200.16591 22.24 206.72 22.24c4.94142 0 5.4585.05851 8.06368.91248 5.49777 1.80216 27.39961 15.1705 40.73081 24.8611 9.98231 7.25624 20.25827 15.65952 19.59985 16.028-.23357.1307-2.57785.40795-5.20951.61608-5.93161.46913-11.55317.25189-26.22483-1.01344-7.62013-.65719-14.16619-1.0202-20.48-1.13572l-9.28-.16979-8.53612 4.19065-8.53611 4.19064-2.34389-.0451c-1.28913-.0248-3.92788-.16557-5.86388-.31281z"/><path fill="#27a2d7" d="M539.21575 636.89952c-1.11814-.58752-2.10646-1.43034-2.75335-2.348-.55501-.78733-6.38519-13.85322-12.95596-29.03531-6.57076-15.18209-12.04219-27.49409-12.15873-27.36-.11654.13409-3.70927 13.13181-7.98384 28.88381-4.27458 15.752-7.83955 28.82-7.92216 29.04-.11402.30367-1.8811.4-7.33752.4-6.89306 0-7.1795-.0247-6.99607-.60262.1052-.33143 5.08561-18.51143 11.06759-40.4 8.7149-31.88853 11.05001-40.04609 11.75031-41.04889 1.14353-1.6375 2.93758-2.53674 5.37-2.69163 2.42522-.15443 4.77469.76268 6.30563 2.46139.77408.85891 4.46588 9.02164 14.16267 31.31425 7.21362 16.58387 13.18767 30.15526 13.27567 30.15864.088.003 3.96676-8.74125 8.61947-19.4325 18.69734-42.96375 17.93532-41.27814 19.25933-42.60215 3.11994-3.11994 8.78761-2.43891 10.95484 1.31634.51831.89809 4.48275 14.98132 11.55482 41.04717 5.92119 21.824 10.82557 39.86 10.89863 40.08.10366.31219-1.46302.39959-7.13714.39815l-7.26995-.002-7.65914-28.23815c-4.21252-15.53099-7.83059-28.74215-8.04016-29.35815l-.38102-1.12-.78266 1.76c-.43046.968-5.87469 13.45633-12.09829 27.75184-7.48512 17.19322-11.70206 26.49999-12.45718 27.49293-1.44001 1.89353-3.138 2.78039-5.61505 2.93274-1.63748.10072-2.18818-.019-3.67074-.79801zm-505.6051-.92439c-7.94061-1.44781-15.13935-5.26265-21.01123-11.13453-5.84462-5.84462-9.50703-12.72245-11.3605-21.33445-.96332-4.47598-1.05615-14.28243-.1766-18.6547C4.3864 568.32759 15.16155 557.35268 31.84 553.50322c2.76501-.63818 3.91807-.66931 28.88-.77962l26-.11489v14.72935l-25.36.0984c-28.19288.10941-26.58446-.01-31.5716 2.34238-7.07902 3.33899-11.72844 9.02166-13.99237 17.10191-.46571 1.66217-.57943 3.20255-.56695 7.67925.0144 5.16451.08365 5.82273.89047 8.46421 2.84782 9.32351 9.19023 15.62266 18.28045 18.15576 2.52945.70486 2.85694.7147 27.44.8246l24.88.11122V636.48l-25.36-.0346c-19.8902-.0272-25.87535-.12859-27.74935-.47027zM98.56 594.56002v-41.92001l31.6.006c19.21512.004 32.47791.13116 33.84.32481 12.15193 1.7277 20.23653 8.2437 23.61909 19.03642 1.23953 3.95494 1.59752 7.21921 1.41263 12.8807-.20209 6.18829-.88573 9.17859-3.14239 13.74518-2.51332 5.08596-7.04782 9.48209-12.01975 11.65296-.85227.37212-1.60847.7288-1.68044.79262-.072.0638 5.47203 5.76914 12.32 12.6785L196.96 636.31968l-10.21452.0846c-10.14275.084-10.21978.0796-10.96458-.62009-.41254-.38756-5.17601-5.5717-10.58549-11.52032L155.36 613.44822l-15.76-.004-15.76-.004v-13.12l18.8-.006c20.32813-.006 21.42076-.0826 24.67013-1.72917 3.1104-1.57617 5.15354-4.01177 6.4853-7.73111.94432-2.63728 1.20798-9.60185.48068-12.69702-1.293-5.50259-4.49949-8.76157-10.0061-10.16993-2.32988-.59588-3.66473-.62721-26.7212-.62721H113.28v69.12H98.56zm106.24 0v-41.92001h75.19999v14.72001H219.52v54.72h60.47999v14.4H204.8zm87.67999 34.72951v-7.20951l31.76-.006c19.03982-.004 32.62959-.13208 33.9312-.32029 3.91565-.56618 6.93629-2.60064 8.45598-5.69526.80532-1.63993.89271-2.1474.89165-5.17811-.00099-2.84565-.11707-3.61677-.75825-5.03733-.87597-1.9407-2.69308-3.71073-4.68674-4.56532-2.64834-1.13521-5.69664-1.27729-27.45699-1.27977-13.13972-.002-21.96626-.12905-23.25685-.33606-2.81267-.45118-6.97561-1.91441-9.17419-3.22464-9.21875-5.49386-13.25096-17.58975-9.54439-28.63141 2.45605-7.31647 7.61827-11.80225 16.46837-14.31042 2.37911-.67426 2.83458-.68433 35.29021-.78044l32.88-.0974V567.36032h-31.30192c-34.561 0-33.21009-.076-35.96063 2.02194-2.02847 1.54717-3.20635 4.06005-3.38998 7.23215-.17844 3.08239.32305 5.34548 1.5642 7.05883 1.09927 1.5175 3.11692 3.04743 4.73237 3.58844.84203.28199 7.67379.43803 25.15596.57456l24 .18745 3.11163.84775c10.97791 2.99092 16.24837 10.48712 16.24837 23.11011 0 11.848-5.8009 20.09764-16.48 23.43672l-2.88.9005-34.8.0903-34.8.0903zm140.46877-8.72951l-.0112-15.92-20.98029-24.48c-11.53916-13.464-21.55551-25.16401-22.25856-26.00001l-1.27827-1.52 9.86979.002 9.8698.002 16.32 19.3433c15.16695 17.97664 16.35621 19.30476 16.83252 18.79786.28189-.29999 7.67195-9.00543 16.42235-19.34543l15.90981-18.80001h9.25766c5.09171 0 9.25766.0517 9.25766.11489 0 .0632-10.00431 11.76319-22.23181 26l-22.23181 25.88512-.008 15.92-.008 15.92h-14.72zm-202.86876-26.64v-6.08H276.79999v12.16H230.08zm62.39999-92.69352c-14.79793-.64167-30.21278-2.65513-44.16-5.76809-3.60799-.80529-6.88399-1.53365-7.27999-1.61859-.396-.0849-.72-.26806-.72-.40696 0-.1389 2.628-1.70966 5.84-3.49058 9.20673-5.10476 13.3366-6.13079 22.09225-5.48859 42.24594 3.09861 93.34633-1.01484 146.35301-11.78102 3.2311-.65627 5.87473-1.14878 5.87473-1.09446 0 .20181-13.05136 6.62196-17.24896 8.48501-34.35745 15.24907-73.71247 22.76937-110.75104 21.16328zm4.08429-21.2158c-6.86344-1.25162-12.85234-5.47939-16.33395-11.53069-2.57691-4.47885-3.47897-11.1885-2.19496-16.3264 1.13362-4.53613 2.91674-7.71842 6.09935-10.88534 4.60686-4.58416 9.71617-6.70826 16.13602-6.70826 7.83081 0 14.72396 3.64316 19.07214 10.08.59446.88 1.10883 1.63934 1.14305 1.68742.1228.17251 16.44063-.59289 22.55406-1.05792 20.78546-1.58108 42.35385-4.79957 63.36-9.45476 12.49338-2.76867 29.22466-7.23338 37.4021-9.98068l3.0779-1.03406 3.42388-6.88c5.89623-11.848 11.24015-24.32919 15.4625-36.11404l1.98994-5.55404-1.12936-1.03497-1.12936-1.03498-4.0288 1.24612c-31.98811 9.89405-63.73531 16.80626-95.8688 20.87319-6.41896.81241-22.93114 2.48724-23.05233 2.33821-.0356-.0437 2.83269-5.0805 6.37385-11.19284 5.92975-10.23522 6.51434-11.12574 7.39848-11.27026.528-.0863 3.84-.45875 7.36-.82766 23.78204-2.49241 49.66501-7.11956 73.44-13.129 8.81986-2.22934 21.61608-5.80915 21.94662-6.13968.0969-.0969.36925-1.09058.60517-2.20813 1.00594-4.76495 3.48987-9.13057 6.98318-12.27326 2.22082-1.99792 6.68632-4.36748 9.63347-5.11188 1.03864-.26235 1.93455-.5231 1.99091-.57947.49427-.49427 3.64023-23.92318 3.64054-27.1122.0001-1.06906-.0833-1.15407-1.67989-1.71272-2.28424-.79926-4.63956-2.16922-6.41248-3.72981l-1.47746-1.30052-6.49503 1.92238c-18.87888 5.58769-36.04911 9.81707-55.1553 13.58587-13.79672 2.72148-33.57391 5.89459-34.50724 5.53643-.38198-.14657-.33112-.65841.31361-3.15585.42324-1.63949 1.49018-6.22089 2.37098-10.18089.8808-3.96 1.67142-7.50366 1.75694-7.8748.13708-.5949.58237-.73859 3.76073-1.21349 25.10835-3.75162 51.41729-9.51941 73.84601-16.1895a87691.84301 87691.84301 0 0 1 7.06962-2.10225c.32175-.0956.65539-.82948.90273-1.98578.59306-2.77247 2.96009-7.30481 5.01358-9.59987 2.20487-2.46427 5.21044-4.64593 8.05206-5.84479 1.18064-.4981 2.20291-1.07452 2.27172-1.28092.17021-.51064-.47241-6.36584-1.42114-12.9486-.854-5.92549-3.55872-20.29563-3.93442-20.90352-.17003-.27512-1.57415.0164-5.17414 1.07404-11.50249 3.37949-29.48292 8.03012-48.20151 12.46729l-3.58075.84881-.95938 2.05015c-1.27707 2.72903-2.64079 4.68238-4.98078 7.13428-4.73434 4.96078-10.26872 7.49978-16.33835 7.49554-7.75342-.005-14.73538-3.81953-18.86948-10.30803-1.77871-2.79171-2.56773-4.74912-3.22768-8.00732-1.45155-7.1663.78738-14.6635 5.93716-19.88099 1.32-1.33735 2.80168-2.70813 3.29262-3.04616l.89262-.61462-1.14752-6.07474c-15.87151-84.02089-58.6311-148.40001-130.71772-196.80947-3.96-2.65932-8.32455-5.52815-9.69902-6.37517-1.37446-.84703-2.38246-1.64792-2.24-1.77975.25048-.23178 9.43103-2.31082 14.65902-3.3197C278.52051.29386 304.024-.79013 327.64871 1.61851c19.17652 1.95513 38.95328 6.3294 56.50282 12.49744l4.79155 1.68406-1.03881.42388c-1.58463.6466-9.38634 2.54821-13.41189 3.26907-12.58428 2.25345-29.36533 3.8414-50.97239 4.82338-9.03597.41066-25.47428.95516-29.28.96985l-2.88.01112 1.13712 1.03135c.62541.56723 2.56941 2.30979 4.32 3.87234 1.75058 1.56255 6.08596 5.6298 9.63415 9.03835l6.45127 6.19734 2.34873-.16548c1.29181-.091 5.66073-.38312 9.70873-.64912 20.57107-1.35178 43.95597-4.12022 64.64-7.65246 11.97264-2.04459 10.6204-1.58088 11.96731-4.10385 2.41844-4.53008 5.9678-7.92553 10.48657-10.0318 3.14862-1.46764 5.77231-2.02368 9.57493-2.02925 8.90684-.01305 16.39408 4.64849 20.29446 12.63527 1.61566 3.30838 2.22614 5.98574 2.232 9.78881.019 12.2933-9.21608 22.03285-21.43527 22.6063-4.24296.19913-7.87261-.59699-11.62697-2.55023-2.85959-1.48772-6.20861-4.4205-7.93579-6.94946-.80817-1.18334-1.2371-1.54342-1.71724-1.4416-.352.07464-16.264 2.23463-35.36 4.79998-19.096 2.56534-34.96057 4.7637-35.2546 4.88523-.43723.18072-.0107.8621 2.34168 3.74097 4.27797 5.23538 9.64321 12.41737 13.98463 18.72 2.12158 3.08 4.04436 5.84173 4.27286 6.13717.38705.50047.91824.4728 7.77543-.40505 31.77249-4.0675 65.77636-11.28395 104.1006-22.09265 5.79524-1.63445 6.9009-1.86018 7.3547-1.50155 1.01523.8023 15.39999 13.72322 15.55226 13.9696.20876.33776-10.46548 4.2783-21.88756 8.0801-30.77319 10.2427-63.97962 17.6364-97.69295 21.75219-1.72312.21036-3.08929.47196-3.03591.58133.0534.10938 1.84089 3.65486 3.97226 7.87886 5.55835 11.01566 10.27386 21.9332 14.44344 33.44 1.12768 3.11207 1.27566 3.35304 2.00534 3.26562 6.86093-.82197 31.66798-5.78153 45.91902-9.1804l4.81119-1.14746.7666-2.25172c1.50592-4.42335 5.27807-9.01391 9.52862-11.596 1.0324-.62713 3.23728-1.6037 4.89974-2.17012 2.69083-.91681 3.42663-1.03197 6.70265-1.04903 5.54114-.0289 9.41639 1.2281 14.06164 4.5609l2.39596 1.71903 7.8512-2.60474c8.6701-2.87642 21.23713-7.42758 29.60338-10.7209 5.11817-2.01471 5.45694-2.105 5.86068-1.56175.23569.31712 1.45133 2.37657 2.70143 4.57657 17.13107 30.14827 27.97027 64.14602 31.42299 98.56 1.63762 16.3225 1.63862 34.78956.003 51.04-4.55961 45.29502-21.51213 88.76442-48.79522 125.12-9.89018 13.17899-23.0842 27.5021-30.56598 33.18169-7.77635 5.9032-16.8427 10.6183-25.90809 13.47387-11.27416 3.55134-42.96683 9.939-66.14152 13.33087-17.25143 2.52492-50.38591 6.08276-56.7298 6.0914-1.58417.002-1.60865.0177-2.39299 1.52218-.43585.836-2.0916 2.82786-3.67945 4.42634-2.35757 2.37336-3.38581 3.15033-5.60701 4.23682-1.496.73177-3.584 1.55667-4.64 1.83312-2.30401.60317-7.41293.85788-9.51571.4744zm181.36247-72.66114c8.83625-9.73898 17.64041-21.44918 24.65239-32.78955 2.80457-4.53579 9.12569-15.92183 8.94148-16.10603-.15529-.15529-6.56258 2.15005-6.97922 2.51112-.14223.12325-.46306 1.21653-.71296 2.4295-.24989 1.21298-1.12811 3.57028-1.95159 5.23846-1.22801 2.48766-1.96399 3.49462-4.093 5.6-4.01332 3.96879-7.9029 5.89402-13.39907 6.63216l-2.62479.35252-1.87244 5.79113c-2.46958 7.63799-5.14542 15.12645-8.21545 22.99135l-2.50536 6.4183 2.56065-2.52925c1.40835-1.39109 4.19806-4.33396 6.19936-6.53971zm25.19179-67.32067c6.1943-2.57939 13.58123-5.88038 17.49388-7.81747 3.51869-1.74205 3.02733-.86699 6.13823-10.93141 2.30537-7.45835 4.64173-16.65755 6.17666-24.32 1.32592-6.61905 2.95725-17.5021 2.66702-17.79233-.11211-.1121-3.19869 1.02868-6.85908 2.53509-3.66039 1.5064-9.16493 3.72051-12.2323 4.92026l-5.57703 2.18134-.55081 2.23782c-1.66106 6.74859-5.89366 12.0601-12.04295 15.11277l-2.97217 1.47546v1.32483c0 3.29438-1.97682 20.94136-3.01397 26.90559l-.39887 2.29374 1.62642.98161c.89453.53989 2.13042 1.41726 2.74642 1.94971.616.53246 1.28939.97395 1.49643.9811.20704.007 2.59299-.90999 5.30212-2.03811zm4.275-74.07732c7.03624-2.78771 14.06591-5.75219 22.60645-9.53338l7.6-3.36477-.002-4.68671c-.002-5.87437-.49558-15.33314-1.13779-21.8067-.48875-4.92675-1.94345-15.79774-2.21546-16.5562-.10322-.28781-.86744-.12478-2.7936.59594-10.63433 3.97912-23.28634 8.48309-31.87971 11.34881-5.56751 1.85666-10.16925 3.42224-10.2261 3.47909-.0568.0568.40798 2.69747 1.03293 5.86806 1.82874 9.27781 3.15302 18.03138 4.19584 27.73473.28316 2.63474.57104 4.88138.63974 4.99254.0687.11115.8136.4623 1.65535.78033.84175.31802 2.39445 1.12836 3.45045 1.80074 1.056.67239 2.0071 1.22554 2.11355 1.22924.10645.004 2.33845-.84308 4.96-1.88172zm-84.29342-44.00756c8.43303-1.88174 20.71557-4.9134 28.09987-6.93579 8.0207-2.1967 19.02841-5.46407 19.31588-5.73345.52368-.49073-4.70055-15.1426-9.36617-26.26831l-2.63084-6.27354-2.77943-.20554c-5.80695-.42942-10.59073-2.50549-14.67585-6.36903l-1.724-1.63049-8.0698 1.8432c-9.44934 2.15829-27.88724 5.85332-35.42979 7.10026-2.904.48009-5.39494.97159-5.53543 1.09223-.1405.12063.39159 2.79718 1.18241 5.94789 1.69594 6.75684 2.8576 11.92518 5.02768 22.36857.87772 4.224 1.66429 7.91183 1.74794 8.19518.10848.3675.70409.57287 2.07776.71645 2.52255.26366 6.40739 1.5845 8.62821 2.93357.97609.59295 2.56148 1.93408 3.52307 2.9803.9616 1.04622 1.99142 1.91848 2.28849 1.93836.29707.0199 4.04107-.74506 8.32-1.69986zm69.87759-20.03032c12.20679-4.35039 35.07549-13.38023 35.8514-14.15614.21927-.21927-2.72837-9.83493-4.83041-15.75755-2.59463-7.31051-5.48889-14.34791-8.34979-20.30251-1.94631-4.051-2.58921-5.12071-2.98477-4.96629-1.70511.66564-22.89097 7.70121-27.50315 9.13347-3.05746.94945-5.5896 1.87232-5.627 2.05081-.0374.17849-.46439 1.54852-.94889 3.04452-1.03053 3.18205-2.49636 5.72612-4.6688 8.10312l-1.55894 1.70573 2.2404 5.89558c2.27612 5.98954 7.70195 22.02007 8.79981 25.99884.57526 2.08482.64066 2.17565 1.45049 2.01439.46644-.0929 4.12478-1.33667 8.12965-2.76397zM197.92 422.17773c-32.49733-4.27844-60.44453-10.27962-89.76-19.27443-6.15267-1.88781-5.33503-1.20384-10.64529-8.90495-8.89258-12.89632-16.21822-25.77613-22.24932-39.11834-3.05425-6.75674-5.9227-13.76936-5.71655-13.97551.08257-.0826 4.23187 1.2363 9.22065 2.93084 33.56267 11.40019 67.7135 19.90452 104.11051 25.92588 28.61848 4.73451 55.12048 7.44586 86.39999 8.83936 9.21241.41041 41.77003.44311 50.16385.0504 4.12532-.19301 5.32975-.1623 5.21619.13301-.0812.21118-3.0413 5.12757-6.57798 10.9253l-6.43034 10.54134-6.62586.24041c-10.50753.38126-35.11123-.16084-51.90586-1.14366-21.54848-1.261-45.68643-3.58049-68.27919-6.56115-4.72955-.62397-8.64267-1.09101-8.69583-1.03785-.0531.0531 5.44926 6.79151 12.22757 14.97414 6.77831 8.18262 12.47306 15.0575 12.65501 15.2775.33987.41096-.82845.47778-3.10755.17772zm-50.88-77.95719c-.88-.15401-4.984-.99357-9.12-1.86568-23.62717-4.98197-48.30993-12.67062-74.00069-23.05111-2.13144-.86122-1.88076-.33554-3.76353-7.89236-1.70855-6.85753-3.59585-16.44339-4.60933-23.41138-1.35123-9.29014-2.74442-24.64-2.23637-24.64.13275 0 3.85229 1.31133 8.26564 2.91407 59.89074 21.74971 124.5384 35.23059 189.30427 39.47535 15.47438 1.01419 24.11911 1.26761 43.2 1.2664 22.1007-.001 36.70466-.58931 54.71782-2.20278 2.72679-.24424 4.98532-.41657 5.01894-.38295.12246.12246-5.24234 21.66215-5.44604 21.86586-.26757.26757-7.62383.87331-18.45072 1.5193-50.33342 3.00315-103.86673.0466-162.07999-8.95152-9.37823-1.44961-25.76809-4.20413-26.8-4.50408-.33207-.0965-.56048.009-.56116.25878-.00064.23186 1.88055 6.946 4.18042 14.92031 2.29987 7.9743 4.13639 14.60293 4.08116 14.73028-.0552.12735-.82042.10553-1.70042-.0485zm-23.2-76.26519c-30.6818-9.58642-48.54755-15.91157-66.4-23.50806l-4.48-1.90631.24055-5.19049c.50042-10.79771 2.17166-24.22933 4.44486-35.72298.71658-3.62313 1.3286-6.6166 1.36006-6.65217.03146-.0356 2.55027.86366 5.59737 1.99828 91.03072 33.89627 192.02589 46.57131 289.11967 36.28493 3.32339-.35209 6.08578-.59692 6.13863-.54406.19777.19776 1.13909 20.79195.95861 20.97243-.43006.43005-21.12407 2.54363-33.45976 3.4174-32.39871 2.29488-64.60212 2.19024-96.15999-.31248-30.61957-2.4283-63.53699-7.51073-93.09669-14.37406-4.21119-.97778-7.70319-1.77777-7.76-1.77777-.0568 0-.10331 6.552-.10331 14.56 0 11.44932-.0855 14.55413-.4 14.53252-.22-.0151-2.92-.81484-6-1.77718zm4.48-69.44087c-21.9812-4.97876-41.63936-11.45899-58.67548-19.34211-2.96751-1.37316-5.4656-2.56678-5.55131-2.65249-.24343-.24343 3.5294-11.19619 6.12299-17.77545 2.96425-7.51952 5.87194-14.00704 9.50724-21.21213l2.85961-5.6677 2.62847.9882c1.44567.5435 6.37248 2.27638 10.94848 3.85083 71.70196 24.67026 153.01376 34.24811 235.35999 27.72342 4.664-.36955 9.39898-.68882 10.52217-.70948l2.04217-.0376 3.8308 9.86037c2.10693 5.42321 3.76601 9.92516 3.68683 10.00433-.38324.38325-23.10789 2.21286-37.68197 3.03386-9.69561.54618-44.03042.75152-55.36.33108-38.69315-1.4359-79.13175-6.14084-114.07987-13.27293-2.11193-.43099-3.86588-.75762-3.89767-.72583-.0318.0318-1.37282 5.81585-2.98007 12.85346-1.60726 7.03762-2.99501 13.04767-3.0839 13.35567-.21065.72992-.37211.71415-6.19848-.60553zm21.44-65.27492c-24.9806-4.79941-43.35709-10.10829-54.79186-15.82909-1.45648-.72867-2.6991-1.37108-2.76139-1.42758-.18053-.16374 6.15501-9.49442 9.65737-14.22289 6.28684-8.48775 13.77537-17.37238 20.40892-24.2138l3.15493-3.25379 4.72602 1.11336C165.10224 83.6389 200.71638 89.9699 230.56 93.25459c21.99039 2.42034 37.49215 3.35645 60.62825 3.66116l15.50825.20425 7.72753 9.6c7.13718 8.86661 7.67591 9.62314 7.05175 9.90284-.40688.18234-11.37164.30812-27.55579.31612-28.80935.0142-34.19654-.16736-56.79999-1.91456-20.09828-1.55356-37.39249-3.52474-60.55778-6.90232-3.20397-.46715-5.14778-.62305-5.33997-.4283-.1662.16842-3.70422 6.13822-7.86225 13.26622-4.15804 7.128-7.65906 13.04898-7.78004 13.15773-.12098.10875-2.73996-.28642-5.81996-.87817zm38.88-62.87747c-7.6074-.57858-18.55603-2.44424-28.91339-4.92688-6.9548-1.66705-19.2482-5.01584-19.23588-5.23995.006-.1074 1.67131-1.5598 3.70088-3.22759 14.18798-11.6588 30.30334-22.12546 46.71677-30.34178C199.05347 22.54857 200.16591 22.24 206.72 22.24c4.94142 0 5.4585.05851 8.06368.91248 5.49777 1.80216 27.39961 15.1705 40.73081 24.8611 9.98231 7.25624 20.25827 15.65952 19.59985 16.028-.23357.1307-2.57785.40795-5.20951.61608-5.93161.46913-11.55317.25189-26.22483-1.01344-7.62013-.65719-14.16619-1.0202-20.48-1.13572l-9.28-.16979-8.53612 4.19065-8.53611 4.19064-2.34389-.0451c-1.28913-.0248-3.92788-.16557-5.86388-.31281z"/><path fill="#b9c01e" d="M197.92 422.17773c-32.49733-4.27844-60.44453-10.27962-89.76-19.27443-6.15267-1.88781-5.33503-1.20384-10.64529-8.90495-8.89258-12.89632-16.21822-25.77613-22.24932-39.11834-3.05425-6.75674-5.9227-13.76936-5.71655-13.97551.08257-.0826 4.23187 1.2363 9.22065 2.93084 33.56267 11.40019 67.7135 19.90452 104.11051 25.92588 28.61848 4.73451 55.12048 7.44586 86.39999 8.83936 9.21241.41041 41.77003.44311 50.16385.0504 4.12532-.19301 5.32975-.1623 5.21619.13301-.0812.21118-3.0413 5.12757-6.57798 10.9253l-6.43034 10.54134-6.62586.24041c-10.50753.38126-35.11123-.16084-51.90586-1.14366-21.54848-1.261-45.68643-3.58049-68.27919-6.56115-4.72955-.62397-8.64267-1.09101-8.69583-1.03785-.0531.0531 5.44926 6.79151 12.22757 14.97414 6.77831 8.18262 12.47306 15.0575 12.65501 15.2775.33987.41096-.82845.47778-3.10755.17772zm-50.88-77.95719c-.88-.15401-4.984-.99357-9.12-1.86568-23.62717-4.98197-48.30993-12.67062-74.00069-23.05111-2.13144-.86122-1.88076-.33554-3.76353-7.89236-1.70855-6.85753-3.59585-16.44339-4.60933-23.41138-1.35123-9.29014-2.74442-24.64-2.23638-24.64.13276 0 3.8523 1.31133 8.26565 2.91407 59.89074 21.74971 124.5384 35.23059 189.30427 39.47535 15.47438 1.01419 24.11911 1.26761 43.2 1.2664 22.1007-.001 36.70466-.58931 54.71782-2.20278 2.72679-.24424 4.98532-.41657 5.01894-.38295.12246.12246-5.24234 21.66215-5.44604 21.86586-.26757.26757-7.62383.87331-18.45072 1.5193-50.33342 3.00315-103.86673.0466-162.07999-8.95152-9.37823-1.44961-25.76809-4.20413-26.8-4.50408-.33207-.0965-.56048.009-.56116.25878-.00064.23186 1.88055 6.946 4.18042 14.92031 2.29987 7.9743 4.13639 14.60293 4.08116 14.73028-.0552.12735-.82042.10553-1.70042-.0485zm-23.2-76.26519c-30.6818-9.58642-48.54755-15.91157-66.4-23.50806l-4.48-1.90631.24055-5.19049c.50042-10.79771 2.17166-24.22933 4.44486-35.72298.71658-3.62313 1.3286-6.6166 1.36006-6.65217.03146-.0356 2.55027.86366 5.59737 1.99828 91.03072 33.89627 192.02589 46.57131 289.11967 36.28493 3.32339-.35209 6.08578-.59692 6.13863-.54406.19777.19776 1.13909 20.79195.95861 20.97243-.43006.43005-21.12407 2.54363-33.45976 3.4174-32.39871 2.29488-64.60212 2.19024-96.15999-.31248-30.61957-2.4283-63.53699-7.51073-93.09669-14.37406-4.21119-.97778-7.70319-1.77777-7.76-1.77777-.0568 0-.10331 6.552-.10331 14.56 0 11.44932-.0855 14.55413-.4 14.53252-.22-.0151-2.92-.81484-6-1.77718zm4.48-69.44087c-21.9812-4.97876-41.63936-11.45899-58.67548-19.34211-2.96751-1.37316-5.4656-2.56678-5.55132-2.65249-.24342-.24343 3.52941-11.19619 6.123-17.77545 2.96425-7.51952 5.87194-14.00704 9.50724-21.21213l2.85961-5.6677 2.62847.9882c1.44567.5435 6.37248 2.27638 10.94848 3.85083 71.70196 24.67026 153.01376 34.24811 235.35999 27.72342 4.664-.36955 9.39898-.68882 10.52217-.70948l2.04217-.0376 3.8308 9.86037c2.10693 5.42321 3.76601 9.92516 3.68683 10.00433-.38324.38325-23.10789 2.21286-37.68197 3.03386-9.69561.54618-44.03042.75152-55.36.33108-38.69315-1.4359-79.13175-6.14084-114.07987-13.27293-2.11193-.43099-3.86588-.75762-3.89767-.72583-.0318.0318-1.37282 5.81585-2.98007 12.85346-1.60726 7.03762-2.99501 13.04767-3.0839 13.35567-.21065.72992-.37211.71415-6.19848-.60553zm21.44-65.27492c-24.9806-4.79941-43.35709-10.10829-54.79186-15.82909-1.45648-.72867-2.6991-1.37108-2.76139-1.42758-.18053-.16374 6.15501-9.49442 9.65737-14.22289 6.28684-8.48775 13.77537-17.37238 20.40892-24.2138l3.15493-3.25379 4.72602 1.11336C165.10224 83.6389 200.71638 89.9699 230.56 93.25459c21.99039 2.42034 37.49215 3.35645 60.62825 3.66116l15.50825.20425 7.72753 9.6c7.13718 8.86661 7.67591 9.62314 7.05175 9.90284-.40688.18234-11.37164.30812-27.55579.31612-28.80935.0142-34.19654-.16736-56.79999-1.91456-20.09828-1.55356-37.39249-3.52474-60.55778-6.90232-3.20397-.46715-5.14778-.62305-5.33997-.4283-.1662.16842-3.70422 6.13822-7.86225 13.26622-4.15804 7.128-7.65906 13.04898-7.78004 13.15773-.12098.10875-2.73996-.28642-5.81996-.87817zm38.88-62.87747c-7.6074-.57858-18.55603-2.44424-28.91339-4.92688-6.9548-1.66705-19.2482-5.01584-19.23588-5.23995.006-.1074 1.67131-1.5598 3.70088-3.22759 14.18798-11.6588 30.30334-22.12546 46.71677-30.34178C199.05347 22.54857 200.16591 22.24 206.72 22.24c4.94142 0 5.4585.05851 8.06368.91248 5.49777 1.80216 27.39961 15.1705 40.73081 24.8611 9.98231 7.25624 20.25827 15.65952 19.59985 16.028-.23357.1307-2.57785.40795-5.20951.61608-5.93161.46913-11.55317.25189-26.22483-1.01344-7.62013-.65719-14.16619-1.0202-20.48-1.13572l-9.28-.16979-8.53612 4.19065-8.53611 4.19064-2.34389-.0451c-1.28913-.0248-3.92788-.16557-5.86388-.31281z"/><path fill="#86bc3d" d="M197.92 422.17773c-32.49733-4.27844-60.44453-10.27962-89.76-19.27443-6.15267-1.88781-5.33503-1.20384-10.64529-8.90495-8.89258-12.89632-16.21822-25.77613-22.24932-39.11834-3.05425-6.75674-5.9227-13.76936-5.71655-13.97551.08257-.0826 4.23187 1.2363 9.22065 2.93084 33.56267 11.40019 67.7135 19.90452 104.11051 25.92588 28.61848 4.73451 55.12048 7.44586 86.39999 8.83936 9.21241.41041 41.77003.44311 50.16385.0504 4.12532-.19301 5.32975-.1623 5.21619.13301-.0812.21118-3.0413 5.12757-6.57798 10.9253l-6.43034 10.54134-6.62586.24041c-10.50753.38126-35.11123-.16084-51.90586-1.14366-21.54848-1.261-45.68643-3.58049-68.27919-6.56115-4.72955-.62397-8.64267-1.09101-8.69583-1.03785-.0531.0531 5.44926 6.79151 12.22757 14.97414 6.77831 8.18262 12.47306 15.0575 12.65501 15.2775.33987.41096-.82845.47778-3.10755.17772zm-50.88-77.95719c-.88-.15401-4.984-.99357-9.12-1.86568-23.62717-4.98197-48.30993-12.67062-74.00069-23.05111-2.13144-.86122-1.88076-.33554-3.76353-7.89236-1.70855-6.85753-3.59585-16.44339-4.60933-23.41138-1.35123-9.29014-2.74442-24.64-2.23638-24.64.13276 0 3.8523 1.31133 8.26565 2.91407 59.89074 21.74971 124.5384 35.23059 189.30427 39.47535 15.47438 1.01419 24.11911 1.26761 43.2 1.2664 22.1007-.001 36.70466-.58931 54.71782-2.20278 2.72679-.24424 4.98532-.41657 5.01894-.38295.12246.12246-5.24234 21.66215-5.44604 21.86586-.26757.26757-7.62383.87331-18.45072 1.5193-50.33342 3.00315-103.86673.0466-162.07999-8.95152-9.37823-1.44961-25.76809-4.20413-26.8-4.50408-.33207-.0965-.56048.009-.56116.25878-.00064.23186 1.88055 6.946 4.18042 14.92031 2.29987 7.9743 4.13639 14.60293 4.08116 14.73028-.0552.12735-.82042.10553-1.70042-.0485zm-23.2-76.26519c-30.6818-9.58642-48.54755-15.91157-66.4-23.50806l-4.48-1.90631.24055-5.19049c.50042-10.79771 2.17166-24.22933 4.44486-35.72298.71658-3.62313 1.3286-6.6166 1.36006-6.65217.03146-.0356 2.55027.86366 5.59737 1.99828 91.03072 33.89627 192.02589 46.57131 289.11967 36.28493 3.32339-.35209 6.08578-.59692 6.13863-.54406.19777.19776 1.13909 20.79195.95861 20.97243-.43006.43005-21.12407 2.54363-33.45976 3.4174-32.39871 2.29488-64.60212 2.19024-96.15999-.31248-30.61957-2.4283-63.53699-7.51073-93.09669-14.37406-4.21119-.97778-7.70319-1.77777-7.76-1.77777-.0568 0-.10331 6.552-.10331 14.56 0 11.44932-.0855 14.55413-.4 14.53252-.22-.0151-2.92-.81484-6-1.77718zm4.48-69.44087c-21.9812-4.97876-41.63936-11.45899-58.67548-19.34211-2.96751-1.37316-5.4656-2.56678-5.55132-2.65249-.24342-.24343 3.52941-11.19619 6.123-17.77545 2.96425-7.51952 5.87194-14.00704 9.50724-21.21213l2.85961-5.6677 2.62847.9882c1.44567.5435 6.37248 2.27638 10.94848 3.85083 71.70196 24.67026 153.01376 34.24811 235.35999 27.72342 4.664-.36955 9.39898-.68882 10.52217-.70948l2.04217-.0376 3.8308 9.86037c2.10693 5.42321 3.76601 9.92516 3.68683 10.00433-.38324.38325-23.10789 2.21286-37.68197 3.03386-9.69561.54618-44.03042.75152-55.36.33108-38.69315-1.4359-79.13175-6.14084-114.07987-13.27293-2.11193-.43099-3.86588-.75762-3.89767-.72583-.0318.0318-1.37282 5.81585-2.98007 12.85346-1.60726 7.03762-2.99501 13.04767-3.0839 13.35567-.21065.72992-.37211.71415-6.19848-.60553zm60.32-128.1524c-7.6074-.57857-18.55603-2.44423-28.91339-4.92687-6.9548-1.66705-19.2482-5.01584-19.23588-5.23995.006-.1074 1.67131-1.5598 3.70088-3.22758 14.18798-11.6588 30.30334-22.12547 46.71677-30.3418 8.14509-4.0773 9.25753-4.38588 15.81162-4.38588 4.94142 0 5.4585.05851 8.06368.91249 5.49777 1.80215 27.39961 15.1705 40.73081 24.86109 9.98231 7.25624 20.25827 15.65953 19.59985 16.028-.23357.1307-2.57785.40795-5.20951.61609-5.93161.46912-11.55317.25188-26.22483-1.01345-7.62013-.65719-14.16619-1.0202-20.48-1.13572l-9.28-.16979-8.53612 4.19065-8.53611 4.19064-2.34389-.0451c-1.28913-.0248-3.92788-.16557-5.86388-.31281z"/><path fill="#7aab38" d="M198.72 422.18416c-.44-.0708-3.536-.48691-6.88-.92473-26.58426-3.4806-54.86465-9.66155-82.16697-17.95838l-6.96697-2.11717-2.33253-3.23194c-11.77322-16.31292-21.46011-33.81546-29.3121-52.96193-.89545-2.1835-1.57115-4.02695-1.50155-4.09655.0696-.0696 3.2031.94347 6.96333 2.25127 72.52458 25.2238 158.61227 38.18606 237.18887 35.71362 5.95765-.18746 10.87398-.29527 10.92517-.23959.0512.0557-2.87434 4.96125-6.5012 10.90125l-6.59429 10.8-6.89088.0772c-38.22444.42832-76.82804-2.03653-119.36765-7.62164-4.66221-.61211-8.66137-1.07302-8.88701-1.02425-.22563.0488 3.22891 4.48563 7.67677 9.85968 4.44785 5.37405 10.14071 12.25005 12.6508 15.28 4.8913 5.90433 4.8329 5.74948 1.99621 5.29315zm-78.24-155.33134c-24.8811-7.71252-49.4751-16.5044-63.92-22.85019l-3.44-1.51123.0032-1.9657c.0081-5.03204 1.13419-17.27294 2.41812-26.28569 1.0111-7.09755 3.33154-19.04 3.69951-19.04.1584 0 4.42602 1.49505 9.4836 3.32233 91.55718 33.07926 188.94625 44.94469 285.34916 34.76562 3.16445-.33414 5.773-.58061 5.79678-.54773.11403.15768 1.03826 20.85785.93584 20.96027-.1751.17508-12.41922 1.52481-20.64618 2.27592-19.93635 1.82016-29.94253 2.29176-52.8 2.4885-20.18171.17371-30.6679-.0618-46.08-1.0348-33.89374-2.13986-70.0257-7.41059-102.89867-15.0103-4.23428-.9789-7.84046-1.77981-8.01374-1.77981-.20408 0-.26808 5.12859-.18167 14.56.0751 8.20043.0112 14.55331-.14627 14.54469-.1538-.008-4.45564-1.30977-9.55964-2.89188zm7.2-68.60668c-22.4245-5.19052-40.66486-11.23281-58.08-19.23952-2.464-1.13284-4.68275-2.18732-4.93055-2.34329-.3836-.24144-.36657-.58521.11464-2.31345 1.49297-5.36203 6.99033-19.58772 10.76298-27.85175 1.6379-3.58782 6.39701-13.14524 6.95364-13.96453.23047-.33922 1.55822.0294 6.4945 1.80301 44.32721 15.92696 92.09613 26.05721 142.04479 30.12313 18.09624 1.47308 30.19851 1.93654 50.55999 1.93623 20.98322-.00032 35.60487-.60193 54.68315-2.24993 4.11574-.35552 7.52605-.60351 7.57847-.55108.15297.15297 7.79181 19.89907 7.72183 19.96063-.39015.3432-26.28051 2.30351-40.54345 3.06979-9.98664.53654-48.77829.5337-59.04-.004-37.29757-1.95549-67.20618-5.48688-102.23263-12.07087-5.01195-.9421-9.18795-1.59093-9.28-1.44183-.0921.1491-1.52714 6.18871-3.18908 13.42136-1.69154 7.36146-3.17063 13.13628-3.36 13.11849-.18606-.0175-3.00228-.64842-6.25828-1.40208zm62.61999-127.88062c-11.24954-.71778-24.7875-3.32126-43.17999-8.30394-3.476-.94167-6.32-1.80753-6.32-1.92413 0-.35077 6.50805-5.61113 12.64-10.21673 10.0702-7.56355 21.36615-14.73106 32.69507-20.74567 10.86638-5.76905 13.51127-6.72754 19.32363-7.00273 6.27796-.29724 9.7091.66888 16.87076 4.75037C240.7932 37.4453 257.89515 49.1588 271.49571 60.5977c3.79585 3.19254 3.81084 3.2106 2.88 3.47114-1.76034.4927-10.53372.77978-16.29696.53328-3.16731-.13547-9.97336-.61379-15.12454-1.06293-10.79369-.9411-24.2302-1.60848-27.31235-1.35657-1.9198.15691-2.90093.56474-10.47763 4.35525-6.63629 3.32004-8.60735 4.17256-9.56186 4.1357-.66131-.02555-3.04738-.16417-5.30238-.30805z"/><path fill="#35aa45" d="M198.72 422.18416c-.44-.0708-3.536-.48691-6.88-.92473-26.58426-3.4806-54.86465-9.66155-82.16697-17.95838l-6.96697-2.11717-2.33253-3.23194c-11.77322-16.31292-21.46011-33.81546-29.3121-52.96193-.89545-2.1835-1.57115-4.02695-1.50155-4.09655.0696-.0696 3.2031.94347 6.96333 2.25127 72.52458 25.2238 158.61227 38.18606 237.18887 35.71362 5.95765-.18746 10.87398-.29527 10.92517-.23959.0512.0557-2.87434 4.96125-6.5012 10.90125l-6.59429 10.8-6.89088.0772c-38.22444.42832-76.82804-2.03653-119.36765-7.62164-4.66221-.61211-8.66137-1.07302-8.88701-1.02425-.22563.0488 3.22891 4.48563 7.67677 9.85968 4.44785 5.37405 10.14071 12.25005 12.6508 15.28 4.8913 5.90433 4.8329 5.74948 1.99621 5.29315zm-78.24-155.33134c-24.8811-7.71252-49.4751-16.5044-63.92-22.85019l-3.44-1.51123.0032-1.9657c.0081-5.03204 1.13419-17.27294 2.41812-26.28569 1.0111-7.09755 3.33154-19.04 3.69951-19.04.1584 0 4.42602 1.49505 9.4836 3.32233 91.55718 33.07926 188.94625 44.94469 285.34916 34.76562 3.16445-.33414 5.773-.58061 5.79678-.54773.11403.15768 1.03826 20.85785.93584 20.96027-.1751.17508-12.41922 1.52481-20.64618 2.27592-19.93635 1.82016-29.94253 2.29176-52.8 2.4885-20.18171.17371-30.6679-.0618-46.08-1.0348-33.89374-2.13986-70.0257-7.41059-102.89867-15.0103-4.23428-.9789-7.84046-1.77981-8.01374-1.77981-.20408 0-.26808 5.12859-.18167 14.56.0751 8.20043.0112 14.55331-.14627 14.54469-.1538-.008-4.45564-1.30977-9.55964-2.89188z"/></svg>
