<svg width="468" height="72.401" viewBox="0 0 468 72.401" xmlns="http://www.w3.org/2000/svg"><g id="svgGroup" stroke-linecap="round" fill-rule="evenodd" font-size="9pt" stroke="#8eb640" stroke-width="0.25mm" fill="#8eb640" style="stroke:#8eb640;stroke-width:0.25mm;fill:#8eb640"><path d="M 62.6 15.501 L 52 22.801 A 19.452 19.452 0 0 0 49.998 19.313 A 15.119 15.119 0 0 0 47.3 16.451 A 18.22 18.22 0 0 0 43.123 13.881 A 16.329 16.329 0 0 0 41.1 13.151 A 23.881 23.881 0 0 0 35.804 12.234 A 21.777 21.777 0 0 0 34.6 12.201 A 21.703 21.703 0 0 0 30.022 12.662 A 16.575 16.575 0 0 0 25.55 14.301 Q 21.7 16.401 19.1 19.801 Q 16.5 23.201 15.25 27.401 Q 14 31.601 14 35.801 Q 14 40.501 15.5 44.851 A 24.964 24.964 0 0 0 19.082 51.698 A 23.473 23.473 0 0 0 19.75 52.551 Q 22.5 55.901 26.35 57.851 A 18.292 18.292 0 0 0 34.228 59.793 A 21.379 21.379 0 0 0 34.8 59.801 A 21.257 21.257 0 0 0 40.44 59.018 A 24.455 24.455 0 0 0 41.5 58.701 A 18.995 18.995 0 0 0 47.789 55.21 A 22.906 22.906 0 0 0 47.8 55.201 A 15.485 15.485 0 0 0 51.74 50.21 A 18.662 18.662 0 0 0 52.3 49.001 L 63.6 55.501 A 21.085 21.085 0 0 1 57.044 64.268 A 24.869 24.869 0 0 1 56.75 64.501 Q 52 68.201 46.1 70.101 A 38.591 38.591 0 0 1 36.26 71.952 A 35.6 35.6 0 0 1 34.4 72.001 A 31.827 31.827 0 0 1 24.591 70.52 A 29.009 29.009 0 0 1 20.5 68.851 Q 14.2 65.701 9.65 60.451 Q 5.1 55.201 2.55 48.651 Q 0 42.101 0 35.401 Q 0 28.901 2.35 22.651 Q 4.7 16.401 9.2 11.251 Q 13.7 6.101 20.2 3.051 A 32.036 32.036 0 0 1 29.747 0.329 A 40.791 40.791 0 0 1 35 0.001 A 37.516 37.516 0 0 1 43.538 0.93 A 28.978 28.978 0 0 1 51.95 4.301 A 28.933 28.933 0 0 1 59.309 10.507 A 26.259 26.259 0 0 1 62.6 15.501 Z M 86.7 71.401 L 72.9 71.401 L 72.9 0.401 L 104.3 0.401 A 20.977 20.977 0 0 1 111.498 1.621 A 19.769 19.769 0 0 1 113.35 2.401 Q 117.5 4.401 120.55 7.801 Q 123.6 11.201 125.25 15.401 Q 126.9 19.601 126.9 24.001 Q 126.9 28.501 125.35 32.651 Q 123.8 36.801 120.9 39.901 Q 118 43.001 114.1 44.701 L 130.3 71.401 L 115.1 71.401 L 100.5 47.601 L 86.7 47.601 L 86.7 71.401 Z M 415.9 19.001 L 429.9 19.001 L 440.9 35.401 L 441.7 37.201 L 442.7 35.401 L 453.6 19.001 L 467.7 19.001 L 449.5 45.101 L 468 71.401 L 453.9 71.401 L 442.6 55.101 L 441.7 53.401 L 440.9 55.101 L 429.7 71.401 L 415.6 71.401 L 434.1 45.401 L 415.9 19.001 Z M 330.7 71.401 L 296.4 71.401 L 296.4 0.401 L 334.4 0.401 Q 339.4 0.401 343.05 3.051 Q 346.7 5.701 348.65 9.851 Q 350.6 14.001 350.6 18.501 Q 350.6 23.601 348 28.201 Q 345.4 32.801 340.4 35.001 A 19.448 19.448 0 0 1 346.309 37.837 A 17.414 17.414 0 0 1 350.05 41.501 Q 353.6 46.201 353.6 53.101 Q 353.6 59.101 350.5 63.151 A 18.617 18.617 0 0 1 344.062 68.435 A 23.054 23.054 0 0 1 342.15 69.301 Q 336.9 71.401 330.7 71.401 Z M 285.4 58.101 L 288.1 68.701 Q 286.931 69.182 285.432 69.758 A 195.934 195.934 0 0 1 284 70.301 Q 281.6 71.201 278.85 71.751 Q 276.1 72.301 273.3 72.301 A 18.365 18.365 0 0 1 268.754 71.754 A 16.075 16.075 0 0 1 266.5 71.001 Q 263.4 69.701 261.55 66.851 A 10.677 10.677 0 0 1 260.192 63.679 Q 259.838 62.309 259.739 60.698 A 21.064 21.064 0 0 1 259.7 59.401 L 259.7 29.301 L 252.8 29.301 L 252.8 19.001 L 259.7 19.001 L 259.7 2.001 L 273.1 2.001 L 273.1 19.001 L 284.1 19.001 L 284.1 29.301 L 273.1 29.301 L 273.1 54.901 A 8.539 8.539 0 0 0 273.266 56.336 Q 273.428 57.104 273.738 57.7 A 3.655 3.655 0 0 0 274.6 58.801 A 4.938 4.938 0 0 0 277.215 59.943 A 6.622 6.622 0 0 0 278.1 60.001 Q 280.2 60.001 282.2 59.301 Q 283.989 58.675 285.138 58.208 A 30.275 30.275 0 0 0 285.4 58.101 Z M 154.067 71.794 A 32.754 32.754 0 0 0 160.5 72.401 A 34.457 34.457 0 0 0 164.746 72.147 A 27.21 27.21 0 0 0 172 70.251 A 28.488 28.488 0 0 0 172.631 69.976 A 24.725 24.725 0 0 0 180.65 64.301 Q 184.2 60.501 186.05 55.601 Q 187.9 50.701 187.9 45.301 Q 187.9 39.801 186.05 34.901 Q 184.2 30.001 180.6 26.201 Q 177 22.401 171.95 20.251 A 25.844 25.844 0 0 0 166.741 18.672 A 32.68 32.68 0 0 0 160.5 18.101 A 34.457 34.457 0 0 0 156.254 18.355 A 27.21 27.21 0 0 0 149 20.251 A 28.488 28.488 0 0 0 148.369 20.526 A 24.725 24.725 0 0 0 140.35 26.201 Q 136.8 30.001 134.9 34.901 Q 133 39.801 133 45.301 Q 133 50.701 134.9 55.601 Q 136.8 60.501 140.35 64.301 A 23.818 23.818 0 0 0 141.796 65.722 A 25.338 25.338 0 0 0 149 70.251 A 26.275 26.275 0 0 0 154.067 71.794 Z M 214.667 71.794 A 32.754 32.754 0 0 0 221.1 72.401 A 34.457 34.457 0 0 0 225.346 72.147 A 27.21 27.21 0 0 0 232.6 70.251 A 28.488 28.488 0 0 0 233.231 69.976 A 24.725 24.725 0 0 0 241.25 64.301 Q 244.8 60.501 246.65 55.601 Q 248.5 50.701 248.5 45.301 Q 248.5 39.801 246.65 34.901 Q 244.8 30.001 241.2 26.201 Q 237.6 22.401 232.55 20.251 A 25.844 25.844 0 0 0 227.341 18.672 A 32.68 32.68 0 0 0 221.1 18.101 A 34.457 34.457 0 0 0 216.854 18.355 A 27.21 27.21 0 0 0 209.6 20.251 A 28.488 28.488 0 0 0 208.969 20.526 A 24.725 24.725 0 0 0 200.95 26.201 Q 197.4 30.001 195.5 34.901 Q 193.6 39.801 193.6 45.301 Q 193.6 50.701 195.5 55.601 Q 197.4 60.501 200.95 64.301 A 23.818 23.818 0 0 0 202.396 65.722 A 25.338 25.338 0 0 0 209.6 70.251 A 26.275 26.275 0 0 0 214.667 71.794 Z M 380.867 71.794 A 32.754 32.754 0 0 0 387.3 72.401 A 34.457 34.457 0 0 0 391.546 72.147 A 27.21 27.21 0 0 0 398.8 70.251 A 28.488 28.488 0 0 0 399.431 69.976 A 24.725 24.725 0 0 0 407.45 64.301 Q 411 60.501 412.85 55.601 Q 414.7 50.701 414.7 45.301 Q 414.7 39.801 412.85 34.901 Q 411 30.001 407.4 26.201 Q 403.8 22.401 398.75 20.251 A 25.844 25.844 0 0 0 393.541 18.672 A 32.68 32.68 0 0 0 387.3 18.101 A 34.457 34.457 0 0 0 383.054 18.355 A 27.21 27.21 0 0 0 375.8 20.251 A 28.488 28.488 0 0 0 375.169 20.526 A 24.725 24.725 0 0 0 367.15 26.201 Q 363.6 30.001 361.7 34.901 Q 359.8 39.801 359.8 45.301 Q 359.8 50.701 361.7 55.601 Q 363.6 60.501 367.15 64.301 A 23.818 23.818 0 0 0 368.596 65.722 A 25.338 25.338 0 0 0 375.8 70.251 A 26.275 26.275 0 0 0 380.867 71.794 Z M 146.8 45.301 Q 146.8 49.901 148.6 53.451 Q 150.4 57.001 153.5 59.001 A 12.583 12.583 0 0 0 160.257 60.999 A 15.065 15.065 0 0 0 160.5 61.001 Q 164.3 61.001 167.4 58.951 Q 170.5 56.901 172.35 53.351 A 16.256 16.256 0 0 0 174.019 47.973 A 20.663 20.663 0 0 0 174.2 45.201 A 18.821 18.821 0 0 0 173.582 40.298 A 16.138 16.138 0 0 0 172.35 37.101 A 15.211 15.211 0 0 0 169.753 33.431 A 13.352 13.352 0 0 0 167.4 31.501 Q 164.3 29.501 160.5 29.501 Q 156.6 29.501 153.5 31.551 A 14.176 14.176 0 0 0 148.889 36.605 A 16.872 16.872 0 0 0 148.6 37.151 A 16.559 16.559 0 0 0 146.985 42.462 A 21.177 21.177 0 0 0 146.8 45.301 Z M 207.4 45.301 Q 207.4 49.901 209.2 53.451 Q 211 57.001 214.1 59.001 A 12.583 12.583 0 0 0 220.857 60.999 A 15.065 15.065 0 0 0 221.1 61.001 Q 224.9 61.001 228 58.951 Q 231.1 56.901 232.95 53.351 A 16.256 16.256 0 0 0 234.619 47.973 A 20.663 20.663 0 0 0 234.8 45.201 A 18.821 18.821 0 0 0 234.182 40.298 A 16.138 16.138 0 0 0 232.95 37.101 A 15.211 15.211 0 0 0 230.353 33.431 A 13.352 13.352 0 0 0 228 31.501 Q 224.9 29.501 221.1 29.501 Q 217.2 29.501 214.1 31.551 A 14.176 14.176 0 0 0 209.489 36.605 A 16.872 16.872 0 0 0 209.2 37.151 A 16.559 16.559 0 0 0 207.585 42.462 A 21.177 21.177 0 0 0 207.4 45.301 Z M 373.6 45.301 Q 373.6 49.901 375.4 53.451 Q 377.2 57.001 380.3 59.001 A 12.583 12.583 0 0 0 387.057 60.999 A 15.065 15.065 0 0 0 387.3 61.001 Q 391.1 61.001 394.2 58.951 Q 397.3 56.901 399.15 53.351 A 16.256 16.256 0 0 0 400.819 47.973 A 20.663 20.663 0 0 0 401 45.201 A 18.821 18.821 0 0 0 400.382 40.298 A 16.138 16.138 0 0 0 399.15 37.101 A 15.211 15.211 0 0 0 396.553 33.431 A 13.352 13.352 0 0 0 394.2 31.501 Q 391.1 29.501 387.3 29.501 Q 383.4 29.501 380.3 31.551 A 14.176 14.176 0 0 0 375.689 36.605 A 16.872 16.872 0 0 0 375.4 37.151 A 16.559 16.559 0 0 0 373.785 42.462 A 21.177 21.177 0 0 0 373.6 45.301 Z M 86.7 12.501 L 86.7 35.501 L 104 35.501 Q 106.6 35.501 108.6 33.951 A 10.37 10.37 0 0 0 111.106 31.108 A 12.954 12.954 0 0 0 111.8 29.801 Q 113 27.201 113 24.001 A 13.959 13.959 0 0 0 112.672 20.906 A 10.923 10.923 0 0 0 111.6 18.051 A 12.541 12.541 0 0 0 109.673 15.393 A 10.804 10.804 0 0 0 108.05 14.001 Q 105.9 12.501 103.4 12.501 L 86.7 12.501 Z M 331.4 41.001 L 310.2 41.001 L 310.2 59.701 L 330.7 59.701 Q 333.2 59.701 335.25 58.451 Q 337.3 57.201 338.5 55.101 Q 339.7 53.001 339.7 50.501 A 11.391 11.391 0 0 0 339.352 47.637 A 9.662 9.662 0 0 0 338.6 45.651 A 9.331 9.331 0 0 0 336.883 43.265 A 8.444 8.444 0 0 0 335.65 42.251 A 7.325 7.325 0 0 0 331.781 41.009 A 8.971 8.971 0 0 0 331.4 41.001 Z M 329.2 12.201 L 310.2 12.201 L 310.2 30.101 L 328.6 30.101 Q 330.9 30.101 332.8 29.001 Q 334.7 27.901 335.85 25.901 A 8.42 8.42 0 0 0 336.81 23.244 A 11.547 11.547 0 0 0 337 21.101 A 11.706 11.706 0 0 0 336.773 18.742 A 8.834 8.834 0 0 0 335.95 16.401 A 8.417 8.417 0 0 0 334.456 14.343 A 7.445 7.445 0 0 0 333.15 13.301 A 7.209 7.209 0 0 0 329.473 12.205 A 8.636 8.636 0 0 0 329.2 12.201 Z" vector-effect="non-scaling-stroke"/></g></svg>