<?xml version="1.0" encoding="UTF-8" standalone="no"?>
<svg
   version="1.1"
   id="svg4"
   width="223.08984"
   height="11.589844"
   xmlns="http://www.w3.org/2000/svg"
   xmlns:svg="http://www.w3.org/2000/svg">
  <defs
     id="defs8" />
  <g
     aria-label="Cryosphere Software, Data and Tools"
     id="text2"
     transform="translate(-0.67382812,9.1757813)">
    <path
       d="M 7.9101562,-0.6328125 Q 7.5878906,-0.4921875 7.3242187,-0.36914063 7.0664062,-0.24609375 6.6445312,-0.11132812 6.2871094,0 5.8652344,0.07617187 5.4492187,0.15820312 4.9453125,0.15820312 q -0.9492187,0 -1.7285156,-0.26367187 Q 2.4433594,-0.375 1.8691406,-0.94335938 1.3066406,-1.5 0.99023438,-2.3554688 0.67382812,-3.2167969 0.67382812,-4.3535156 q 0,-1.078125 0.30468751,-1.9277344 0.30468747,-0.8496094 0.87890627,-1.4355469 0.5566406,-0.5683594 1.3417969,-0.8671875 0.7910156,-0.2988281 1.7519531,-0.2988281 0.703125,0 1.4003906,0.1699219 0.703125,0.1699218 1.5585937,0.5976562 v 1.3769532 H 7.8222656 Q 7.1015625,-7.3417969 6.3925781,-7.6171875 5.6835937,-7.8925781 4.875,-7.8925781 q -0.6621094,0 -1.1953125,0.2167969 -0.5273437,0.2109375 -0.9433594,0.6621093 -0.4042968,0.4394532 -0.6328125,1.1132813 -0.2226562,0.6679687 -0.2226562,1.546875 0,0.9199218 0.2460937,1.5820312 0.2519532,0.6621094 0.6445313,1.078125 0.4101562,0.4335938 0.9550781,0.6445313 0.5507812,0.2050781 1.1601562,0.2050781 0.8378907,0 1.5703125,-0.2871094 0.7324219,-0.2871093 1.3710938,-0.8613281 h 0.082031 z"
       id="path10" />
    <path
       d="m 13.546875,-5.34375 h -0.05859 q -0.246093,-0.058594 -0.480468,-0.082031 -0.228516,-0.029297 -0.544922,-0.029297 -0.509766,0 -0.984375,0.2285156 -0.47461,0.2226563 -0.914063,0.5800781 V 0 H 9.4628906 v -6.5449219 h 1.1015624 v 0.9667969 q 0.65625,-0.5273437 1.154297,-0.7441406 0.503906,-0.2226563 1.025391,-0.2226563 0.287109,0 0.416015,0.017578 0.128907,0.011719 0.386719,0.052734 z"
       id="path12" />
    <path
       d="m 20.244141,-6.5449219 -3.820313,8.9589844 h -1.177734 l 1.21875,-2.73046875 -2.607422,-6.22851565 h 1.195312 l 2.009766,4.8515625 2.027344,-4.8515625 z"
       id="path14" />
    <path
       d="m 27.158203,-3.2695313 q 0,1.5996094 -0.820312,2.52539068 -0.820313,0.92578124 -2.197266,0.92578124 -1.388672,0 -2.208984,-0.92578124 -0.814454,-0.92578128 -0.814454,-2.52539068 0,-1.5996093 0.814454,-2.5253906 0.820312,-0.9316406 2.208984,-0.9316406 1.376953,0 2.197266,0.9316406 0.820312,0.9257813 0.820312,2.5253906 z m -1.136719,0 q 0,-1.2714843 -0.498047,-1.8867187 -0.498046,-0.6210937 -1.382812,-0.6210937 -0.896484,0 -1.394531,0.6210937 -0.492188,0.6152344 -0.492188,1.8867187 0,1.2304688 0.498047,1.8691407 0.498047,0.63281248 1.388672,0.63281248 0.878906,0 1.376953,-0.62695308 0.503906,-0.6328126 0.503906,-1.8750001 z"
       id="path16" />
    <path
       d="m 33.539062,-1.8867187 q 0,0.89648432 -0.74414,1.47070307 -0.738281,0.57421875 -2.021485,0.57421875 -0.726562,0 -1.335937,-0.16992187 Q 28.833984,-0.1875 28.423828,-0.39257813 V -1.6289062 h 0.05859 q 0.521484,0.3925781 1.160156,0.6269531 0.638672,0.2285156 1.224609,0.2285156 0.726563,0 1.136719,-0.234375 0.410156,-0.234375 0.410156,-0.7382812 0,-0.3867188 -0.222656,-0.5859376 -0.222656,-0.1992187 -0.855469,-0.3398437 -0.234375,-0.052734 -0.615234,-0.1230469 -0.375,-0.070312 -0.685547,-0.1523437 -0.861328,-0.2285157 -1.224609,-0.6679688 -0.357422,-0.4453125 -0.357422,-1.0898437 0,-0.4042969 0.164062,-0.7617188 0.169922,-0.3574218 0.509766,-0.6386718 0.328125,-0.2753907 0.832031,-0.4335938 0.509766,-0.1640625 1.136719,-0.1640625 0.585938,0 1.183594,0.1464844 0.603515,0.140625 1.001953,0.3457031 v 1.1777344 h -0.05859 q -0.421875,-0.3105469 -1.02539,-0.5214844 -0.603516,-0.2167969 -1.183594,-0.2167969 -0.603516,0 -1.019531,0.234375 -0.416016,0.2285157 -0.416016,0.6855469 0,0.4042969 0.251953,0.609375 0.246094,0.2050781 0.796875,0.3339844 0.304688,0.070312 0.679688,0.140625 0.380859,0.070312 0.632812,0.1289062 0.767578,0.1757813 1.183594,0.6035156 0.416015,0.4335938 0.416015,1.1484376 z"
       id="path18" />
    <path
       d="m 40.875,-3.3515625 q 0,0.796875 -0.228516,1.4589844 -0.228515,0.65625 -0.644531,1.11328123 -0.386719,0.43359374 -0.914062,0.67382812 -0.521485,0.234375 -1.107422,0.234375 -0.509766,0 -0.925782,-0.11132812 Q 36.644531,-0.09375 36.216797,-0.328125 v 2.7421875 h -1.101563 v -8.9589844 h 1.101563 v 0.6855469 q 0.439453,-0.3691406 0.984375,-0.6152344 0.550781,-0.2519531 1.171875,-0.2519531 1.183594,0 1.839844,0.8964844 0.662109,0.890625 0.662109,2.4785156 z m -1.136719,0.029297 q 0,-1.1835938 -0.404297,-1.7695313 -0.404297,-0.5859375 -1.242187,-0.5859375 -0.47461,0 -0.955078,0.2050782 -0.480469,0.2050781 -0.919922,0.5390625 v 3.7089843 q 0.46875,0.2109375 0.802734,0.2871094 0.339844,0.0761719 0.767578,0.0761719 0.919922,0 1.435547,-0.6210938 0.515625,-0.6210937 0.515625,-1.8398437 z"
       id="path20" />
    <path
       d="m 48.064453,0 h -1.101562 v -3.7265625 q 0,-0.4511719 -0.05273,-0.84375 -0.05273,-0.3984375 -0.193359,-0.6210937 -0.146485,-0.2460938 -0.421875,-0.3632813 -0.275391,-0.1230469 -0.714844,-0.1230469 -0.451172,0 -0.943359,0.2226563 -0.492188,0.2226562 -0.94336,0.5683594 V 0 h -1.101562 v -9.1171875 h 1.101562 v 3.2988281 q 0.515625,-0.4277343 1.066407,-0.6679687 0.550781,-0.2402344 1.130859,-0.2402344 1.060547,0 1.617187,0.6386719 0.556641,0.6386719 0.556641,1.8398437 z"
       id="path22" />
    <path
       d="m 55.664062,-3.1582031 h -4.822265 q 0,0.6035156 0.18164,1.0546875 0.181641,0.4453125 0.498047,0.7324219 0.304688,0.28125 0.720703,0.42187495 0.421875,0.140625 0.925782,0.140625 0.667968,0 1.341797,-0.26367185 0.679687,-0.2695313 0.966796,-0.5273438 h 0.05859 v 1.2011719 q -0.55664,0.234375 -1.136719,0.39257812 -0.580078,0.15820313 -1.21875,0.15820313 -1.628906,0 -2.542968,-0.87890625 -0.914063,-0.8847656 -0.914063,-2.5078125 0,-1.6054687 0.873047,-2.5488281 0.878906,-0.9433594 2.308594,-0.9433594 1.324219,0 2.039062,0.7734375 0.720703,0.7734375 0.720703,2.1972656 z m -1.072265,-0.84375 q -0.0059,-0.8671875 -0.439453,-1.3417969 -0.427735,-0.4746094 -1.306641,-0.4746094 -0.884766,0 -1.412109,0.5214844 -0.521485,0.5214844 -0.591797,1.2949219 z"
       id="path24" />
    <path
       d="m 61.417969,-5.34375 h -0.05859 q -0.246094,-0.058594 -0.480469,-0.082031 -0.228515,-0.029297 -0.544922,-0.029297 -0.509765,0 -0.984375,0.2285156 -0.474609,0.2226563 -0.914062,0.5800781 V 0 h -1.101563 v -6.5449219 h 1.101563 v 0.9667969 q 0.65625,-0.5273437 1.154297,-0.7441406 0.503906,-0.2226563 1.02539,-0.2226563 0.28711,0 0.416016,0.017578 0.128906,0.011719 0.386719,0.052734 z"
       id="path26" />
    <path
       d="m 67.933594,-3.1582031 h -4.822266 q 0,0.6035156 0.181641,1.0546875 0.18164,0.4453125 0.498047,0.7324219 0.304687,0.28125 0.720703,0.42187495 0.421875,0.140625 0.925781,0.140625 0.667969,0 1.341797,-0.26367185 0.679687,-0.2695313 0.966797,-0.5273438 h 0.05859 v 1.2011719 q -0.55664,0.234375 -1.136718,0.39257812 -0.580078,0.15820313 -1.21875,0.15820313 -1.628907,0 -2.542969,-0.87890625 -0.914063,-0.8847656 -0.914063,-2.5078125 0,-1.6054687 0.873047,-2.5488281 0.878907,-0.9433594 2.308594,-0.9433594 1.324219,0 2.039063,0.7734375 0.720703,0.7734375 0.720703,2.1972656 z m -1.072266,-0.84375 q -0.0059,-0.8671875 -0.439453,-1.3417969 -0.427734,-0.4746094 -1.306641,-0.4746094 -0.884765,0 -1.412109,0.5214844 -0.521484,0.5214844 -0.591797,1.2949219 z"
       id="path28" />
    <path
       d="m 80.25,-2.4902344 q 0,0.5097657 -0.240234,1.0078125 -0.234375,0.4980469 -0.66211,0.84375003 -0.46875,0.37499999 -1.095703,0.5859375 -0.621094,0.21093749 -1.5,0.21093749 -0.943359,0 -1.699219,-0.17578125 -0.75,-0.17578124 -1.529297,-0.52148437 v -1.453125 h 0.08203 q 0.662109,0.5507813 1.529297,0.8496094 0.867187,0.2988281 1.628906,0.2988281 1.078125,0 1.675781,-0.4042969 0.603516,-0.4042968 0.603516,-1.078125 0,-0.5800781 -0.28711,-0.8554687 -0.28125,-0.2753907 -0.861328,-0.4277344 -0.439453,-0.1171875 -0.955078,-0.1933594 -0.509766,-0.076172 -1.083984,-0.1933594 -1.160157,-0.2460937 -1.722657,-0.8378906 -0.55664,-0.5976562 -0.55664,-1.5527343 0,-1.0957032 0.925781,-1.7929688 0.925781,-0.703125 2.349609,-0.703125 0.919922,0 1.6875,0.1757812 0.767579,0.1757813 1.359375,0.4335938 v 1.3710938 h -0.08203 q -0.498047,-0.421875 -1.3125,-0.6972657 -0.808594,-0.28125 -1.658203,-0.28125 -0.931641,0 -1.5,0.3867188 -0.5625,0.3867187 -0.5625,0.9960937 0,0.5449219 0.28125,0.8554688 0.28125,0.3105469 0.990234,0.4746094 0.375,0.082031 1.066407,0.1992187 0.691406,0.1171875 1.171875,0.2402344 0.972656,0.2578125 1.464843,0.7792968 Q 80.25,-3.4277344 80.25,-2.4902344 Z"
       id="path30" />
    <path
       d="m 87.603516,-3.2695313 q 0,1.5996094 -0.820313,2.52539068 -0.820312,0.92578124 -2.197266,0.92578124 -1.388671,0 -2.208984,-0.92578124 Q 81.5625,-1.6699219 81.5625,-3.2695313 q 0,-1.5996093 0.814453,-2.5253906 0.820313,-0.9316406 2.208984,-0.9316406 1.376954,0 2.197266,0.9316406 0.820313,0.9257813 0.820313,2.5253906 z m -1.136719,0 q 0,-1.2714843 -0.498047,-1.8867187 -0.498047,-0.6210937 -1.382813,-0.6210937 -0.896484,0 -1.394531,0.6210937 -0.492187,0.6152344 -0.492187,1.8867187 0,1.2304688 0.498047,1.8691407 0.498046,0.63281248 1.388671,0.63281248 0.878907,0 1.376954,-0.62695308 0.503906,-0.6328126 0.503906,-1.8750001 z"
       id="path32" />
    <path
       d="m 92.830078,-8.0507813 h -0.05859 q -0.18164,-0.052734 -0.474609,-0.1054687 -0.292969,-0.058594 -0.515625,-0.058594 -0.708984,0 -1.03125,0.3164063 -0.316406,0.3105469 -0.316406,1.1308594 v 0.2226562 h 1.986328 v 0.9257813 H 90.46875 V 0 h -1.101563 v -5.6191406 h -0.74414 v -0.9257813 h 0.74414 v -0.2167968 q 0,-1.1660157 0.580079,-1.7871094 0.580078,-0.6269532 1.675781,-0.6269532 0.36914,0 0.662109,0.035156 0.298828,0.035156 0.544922,0.082031 z"
       id="path34" />
    <path
       d="m 96.925781,-0.05859375 q -0.310547,0.08203125 -0.679687,0.13476562 -0.363282,0.05273438 -0.650391,0.05273438 -1.001953,0 -1.523437,-0.5390625 -0.521485,-0.5390625 -0.521485,-1.72851565 v -3.4804687 h -0.74414 v -0.9257813 h 0.74414 v -1.8808594 h 1.101563 v 1.8808594 h 2.273437 v 0.9257813 h -2.273437 v 2.9824218 q 0,0.515625 0.02344,0.8085938 0.02344,0.2871094 0.164063,0.5390625 0.128906,0.234375 0.351562,0.34570312 0.228516,0.10546875 0.691406,0.10546875 0.269532,0 0.5625,-0.0761719 0.292969,-0.0820313 0.421875,-0.13476557 h 0.05859 z"
       id="path36" />
    <path
       d="M 106.48828,-6.5449219 104.7832,0 h -1.01953 L 102.08203,-5.0449219 100.41211,0 h -1.013673 l -1.722656,-6.5449219 h 1.148438 l 1.201171,5.0683594 1.63477,-5.0683594 h 0.9082 l 1.67578,5.0683594 1.13672,-5.0683594 z"
       id="path38" />
    <path
       d="m 113.04492,0 h -1.0957 v -0.69726562 q -0.14649,0.0996094 -0.39844,0.28124999 -0.24609,0.17578125 -0.48047,0.28125001 Q 110.79492,0 110.4375,0.08789062 q -0.35742,0.09375 -0.83789,0.09375 -0.88477,0 -1.5,-0.5859375 -0.61523,-0.5859375 -0.61523,-1.49414062 0,-0.7441406 0.3164,-1.2011719 0.32227,-0.4628906 0.91406,-0.7265625 0.59766,-0.2636718 1.43555,-0.3574218 0.83789,-0.09375 1.79883,-0.140625 v -0.1699219 q 0,-0.375 -0.13477,-0.6210938 -0.1289,-0.2460937 -0.375,-0.3867187 -0.23437,-0.1347656 -0.5625,-0.1816406 -0.32812,-0.046875 -0.68554,-0.046875 -0.4336,0 -0.9668,0.1171875 -0.5332,0.1113281 -1.10156,0.328125 h -0.0586 v -1.1191407 q 0.32227,-0.087891 0.93164,-0.1933593 0.60938,-0.1054688 1.20118,-0.1054688 0.6914,0 1.20117,0.1171875 0.51562,0.1113281 0.89062,0.3867188 0.36914,0.2695312 0.5625,0.6972656 0.19336,0.4277344 0.19336,1.0605469 z m -1.0957,-1.6113281 v -1.8222657 q -0.50391,0.029297 -1.18945,0.087891 -0.67969,0.058594 -1.07813,0.1699218 -0.47461,0.1347657 -0.76758,0.421875 -0.29297,0.28125 -0.29297,0.7792969 0,0.5625 0.33985,0.8496094 0.33984,0.28125 1.03711,0.28125 0.58008,0 1.06054,-0.2226562 0.48047,-0.2285157 0.89063,-0.5449222 z"
       id="path40" />
    <path
       d="m 119.25,-5.34375 h -0.0586 q -0.2461,-0.058594 -0.48047,-0.082031 -0.22852,-0.029297 -0.54492,-0.029297 -0.50977,0 -0.98438,0.2285156 -0.47461,0.2226563 -0.91406,0.5800781 V 0 h -1.10156 v -6.5449219 h 1.10156 v 0.9667969 q 0.65625,-0.5273437 1.1543,-0.7441406 0.5039,-0.2226563 1.02539,-0.2226563 0.28711,0 0.41601,0.017578 0.12891,0.011719 0.38672,0.052734 z"
       id="path42" />
    <path
       d="m 125.76563,-3.1582031 h -4.82227 q 0,0.6035156 0.18164,1.0546875 0.18164,0.4453125 0.49805,0.7324219 0.30468,0.28125 0.7207,0.42187495 0.42188,0.140625 0.92578,0.140625 0.66797,0 1.3418,-0.26367185 0.67969,-0.2695313 0.9668,-0.5273438 h 0.0586 v 1.2011719 q -0.55664,0.234375 -1.13672,0.39257812 -0.58008,0.15820313 -1.21875,0.15820313 -1.62891,0 -2.54297,-0.87890625 -0.91406,-0.8847656 -0.91406,-2.5078125 0,-1.6054687 0.87305,-2.5488281 0.8789,-0.9433594 2.30859,-0.9433594 1.32422,0 2.03906,0.7734375 0.72071,0.7734375 0.72071,2.1972656 z m -1.07227,-0.84375 q -0.006,-0.8671875 -0.43945,-1.3417969 -0.42774,-0.4746094 -1.30664,-0.4746094 -0.88477,0 -1.41211,0.5214844 -0.52149,0.5214844 -0.5918,1.2949219 z"
       id="path44" />
    <path
       d="m 129.7207,-1.6699219 -1.65234,3.8378907 h -0.85547 l 1.01953,-3.8378907 z"
       id="path46" />
    <path
       d="m 143.47852,-4.3535156 q 0,1.1894531 -0.52149,2.15625 -0.51562,0.9667969 -1.37695,1.49999998 -0.59766,0.36914062 -1.33594,0.53320312 Q 139.51172,0 138.31055,0 h -2.20313 v -8.7246094 h 2.17969 q 1.27734,0 2.02734,0.1875 0.75586,0.1816406 1.27735,0.5039063 0.89062,0.5566406 1.38867,1.4824219 0.49805,0.9257812 0.49805,2.1972656 z m -1.2129,-0.017578 q 0,-1.0253907 -0.35742,-1.7285157 -0.35742,-0.703125 -1.0664,-1.1074218 -0.51563,-0.2929688 -1.09571,-0.4042969 -0.58007,-0.1171875 -1.38867,-0.1171875 h -1.08984 v 6.73242185 h 1.08984 q 0.83789,0 1.45899,-0.12304685 0.62695,-0.1230469 1.14843,-0.4570313 0.65039,-0.4160156 0.97266,-1.0957031 0.32812,-0.6796875 0.32812,-1.6992187 z"
       id="path48" />
    <path
       d="m 150.35156,0 h -1.0957 v -0.69726562 q -0.14649,0.0996094 -0.39844,0.28124999 -0.24609,0.17578125 -0.48047,0.28125001 Q 148.10156,0 147.74414,0.08789062 q -0.35742,0.09375 -0.83789,0.09375 -0.88477,0 -1.5,-0.5859375 -0.61523,-0.5859375 -0.61523,-1.49414062 0,-0.7441406 0.3164,-1.2011719 0.32227,-0.4628906 0.91406,-0.7265625 0.59766,-0.2636718 1.43555,-0.3574218 0.83789,-0.09375 1.79883,-0.140625 v -0.1699219 q 0,-0.375 -0.13477,-0.6210938 -0.1289,-0.2460937 -0.375,-0.3867187 -0.23437,-0.1347656 -0.5625,-0.1816406 -0.32812,-0.046875 -0.68554,-0.046875 -0.4336,0 -0.9668,0.1171875 -0.5332,0.1113281 -1.10156,0.328125 h -0.0586 v -1.1191407 q 0.32227,-0.087891 0.93164,-0.1933593 0.60938,-0.1054688 1.20118,-0.1054688 0.6914,0 1.20117,0.1171875 0.51562,0.1113281 0.89062,0.3867188 0.36914,0.2695312 0.5625,0.6972656 0.19336,0.4277344 0.19336,1.0605469 z m -1.0957,-1.6113281 v -1.8222657 q -0.50391,0.029297 -1.18945,0.087891 -0.67969,0.058594 -1.07813,0.1699218 -0.47461,0.1347657 -0.76758,0.421875 -0.29297,0.28125 -0.29297,0.7792969 0,0.5625 0.33985,0.8496094 0.33984,0.28125 1.03711,0.28125 0.58008,0 1.06054,-0.2226562 0.48047,-0.2285157 0.89063,-0.5449222 z"
       id="path50" />
    <path
       d="m 155.87109,-0.05859375 q -0.31054,0.08203125 -0.67968,0.13476562 -0.36329,0.05273438 -0.65039,0.05273438 -1.00196,0 -1.52344,-0.5390625 -0.52149,-0.5390625 -0.52149,-1.72851565 v -3.4804687 h -0.74414 v -0.9257813 h 0.74414 v -1.8808594 h 1.10157 v 1.8808594 h 2.27343 v 0.9257813 h -2.27343 v 2.9824218 q 0,0.515625 0.0234,0.8085938 0.0234,0.2871094 0.16407,0.5390625 0.1289,0.234375 0.35156,0.34570312 0.22851,0.10546875 0.6914,0.10546875 0.26954,0 0.5625,-0.0761719 0.29297,-0.0820313 0.42188,-0.13476557 h 0.0586 z"
       id="path52" />
    <path
       d="m 162.28711,0 h -1.0957 v -0.69726562 q -0.14649,0.0996094 -0.39844,0.28124999 -0.2461,0.17578125 -0.48047,0.28125001 Q 160.03711,0 159.67969,0.08789062 q -0.35742,0.09375 -0.83789,0.09375 -0.88477,0 -1.5,-0.5859375 -0.61524,-0.5859375 -0.61524,-1.49414062 0,-0.7441406 0.31641,-1.2011719 0.32226,-0.4628906 0.91406,-0.7265625 0.59766,-0.2636718 1.43555,-0.3574218 0.83789,-0.09375 1.79883,-0.140625 v -0.1699219 q 0,-0.375 -0.13477,-0.6210938 -0.12891,-0.2460937 -0.375,-0.3867187 -0.23437,-0.1347656 -0.5625,-0.1816406 -0.32812,-0.046875 -0.68555,-0.046875 -0.43359,0 -0.96679,0.1171875 -0.53321,0.1113281 -1.10157,0.328125 h -0.0586 v -1.1191407 q 0.32227,-0.087891 0.93164,-0.1933593 0.60938,-0.1054688 1.20117,-0.1054688 0.69141,0 1.20117,0.1171875 0.51563,0.1113281 0.89063,0.3867188 0.36914,0.2695312 0.5625,0.6972656 0.19336,0.4277344 0.19336,1.0605469 z m -1.0957,-1.6113281 v -1.8222657 q -0.50391,0.029297 -1.18946,0.087891 -0.67968,0.058594 -1.07812,0.1699218 -0.47461,0.1347657 -0.76758,0.421875 -0.29297,0.28125 -0.29297,0.7792969 0,0.5625 0.33984,0.8496094 0.33985,0.28125 1.03711,0.28125 0.58008,0 1.06055,-0.2226562 0.48047,-0.2285157 0.89063,-0.5449222 z"
       id="path54" />
    <path
       d="m 173.71289,0 h -1.0957 v -0.69726562 q -0.14649,0.0996094 -0.39844,0.28124999 -0.24609,0.17578125 -0.48047,0.28125001 Q 171.46289,0 171.10547,0.08789062 q -0.35742,0.09375 -0.83789,0.09375 -0.88477,0 -1.5,-0.5859375 -0.61524,-0.5859375 -0.61524,-1.49414062 0,-0.7441406 0.31641,-1.2011719 0.32227,-0.4628906 0.91406,-0.7265625 0.59766,-0.2636718 1.43555,-0.3574218 0.83789,-0.09375 1.79883,-0.140625 v -0.1699219 q 0,-0.375 -0.13477,-0.6210938 -0.1289,-0.2460937 -0.375,-0.3867187 -0.23437,-0.1347656 -0.5625,-0.1816406 -0.32812,-0.046875 -0.68555,-0.046875 -0.43359,0 -0.96679,0.1171875 -0.53321,0.1113281 -1.10156,0.328125 h -0.0586 v -1.1191407 q 0.32227,-0.087891 0.93164,-0.1933593 0.60938,-0.1054688 1.20117,-0.1054688 0.69141,0 1.20118,0.1171875 0.51562,0.1113281 0.89062,0.3867188 0.36914,0.2695312 0.5625,0.6972656 0.19336,0.4277344 0.19336,1.0605469 z m -1.0957,-1.6113281 v -1.8222657 q -0.50391,0.029297 -1.18946,0.087891 -0.67968,0.058594 -1.07812,0.1699218 -0.47461,0.1347657 -0.76758,0.421875 -0.29297,0.28125 -0.29297,0.7792969 0,0.5625 0.33985,0.8496094 0.33984,0.28125 1.03711,0.28125 0.58007,0 1.06054,-0.2226562 0.48047,-0.2285157 0.89063,-0.5449222 z"
       id="path56" />
    <path
       d="m 181.30664,0 h -1.10156 v -3.7265625 q 0,-0.4511719 -0.0527,-0.84375 -0.0527,-0.3984375 -0.19336,-0.6210937 -0.14648,-0.2460938 -0.42187,-0.3632813 -0.27539,-0.1230469 -0.71484,-0.1230469 -0.45118,0 -0.94336,0.2226563 -0.49219,0.2226562 -0.94336,0.5683594 V 0 h -1.10157 v -6.5449219 h 1.10157 v 0.7265625 q 0.51562,-0.4277343 1.0664,-0.6679687 0.55078,-0.2402344 1.13086,-0.2402344 1.06055,0 1.61719,0.6386719 0.55664,0.6386719 0.55664,1.8398437 z"
       id="path58" />
    <path
       d="m 188.73633,0 h -1.10156 v -0.68554687 q -0.47461,0.41015624 -0.99024,0.63867187 -0.51562,0.22851562 -1.11914,0.22851562 -1.17187,0 -1.86328,-0.90234374 -0.68555,-0.90234378 -0.68555,-2.50195318 0,-0.8320312 0.23438,-1.4824218 0.24023,-0.6503906 0.64453,-1.1074219 0.39844,-0.4453125 0.92578,-0.6796875 0.5332,-0.234375 1.10156,-0.234375 0.51563,0 0.91406,0.1113281 0.39844,0.1054688 0.8379,0.3339844 v -2.8359375 h 1.10156 z m -1.10156,-1.6113281 v -3.7558594 q -0.44532,-0.1992187 -0.79688,-0.2753906 -0.35156,-0.076172 -0.76758,-0.076172 -0.92578,0 -1.4414,0.6445313 -0.51563,0.6445312 -0.51563,1.8281249 0,1.1660157 0.39844,1.7753907 0.39844,0.6035156 1.27734,0.6035156 0.46875,0 0.94922,-0.2050781 0.48047,-0.2109375 0.89649,-0.5390624 z"
       id="path60" />
    <path
       d="m 201.43359,-7.6933594 h -3.11718 V 0 h -1.16016 v -7.6933594 h -3.11719 v -1.03125 h 7.39453 z"
       id="path62" />
    <path
       d="m 206.80664,-3.2695313 q 0,1.5996094 -0.82031,2.52539068 -0.82031,0.92578124 -2.19727,0.92578124 -1.38867,0 -2.20898,-0.92578124 -0.81446,-0.92578128 -0.81446,-2.52539068 0,-1.5996093 0.81446,-2.5253906 0.82031,-0.9316406 2.20898,-0.9316406 1.37696,0 2.19727,0.9316406 0.82031,0.9257813 0.82031,2.5253906 z m -1.13672,0 q 0,-1.2714843 -0.49805,-1.8867187 -0.49804,-0.6210937 -1.38281,-0.6210937 -0.89648,0 -1.39453,0.6210937 -0.49219,0.6152344 -0.49219,1.8867187 0,1.2304688 0.49805,1.8691407 0.49805,0.63281248 1.38867,0.63281248 0.87891,0 1.37696,-0.62695308 0.5039,-0.6328126 0.5039,-1.8750001 z"
       id="path64" />
    <path
       d="m 214.08984,-3.2695313 q 0,1.5996094 -0.82031,2.52539068 -0.82031,0.92578124 -2.19726,0.92578124 -1.38868,0 -2.20899,-0.92578124 -0.81445,-0.92578128 -0.81445,-2.52539068 0,-1.5996093 0.81445,-2.5253906 0.82031,-0.9316406 2.20899,-0.9316406 1.37695,0 2.19726,0.9316406 0.82031,0.9257813 0.82031,2.5253906 z m -1.13672,0 q 0,-1.2714843 -0.49804,-1.8867187 -0.49805,-0.6210937 -1.38281,-0.6210937 -0.89649,0 -1.39454,0.6210937 -0.49218,0.6152344 -0.49218,1.8867187 0,1.2304688 0.49804,1.8691407 0.49805,0.63281248 1.38868,0.63281248 0.8789,0 1.37695,-0.62695308 0.5039,-0.6328126 0.5039,-1.8750001 z"
       id="path66" />
    <path
       d="m 216.9082,0 h -1.10156 v -9.1171875 h 1.10156 z"
       id="path68" />
    <path
       d="m 223.76367,-1.8867187 q 0,0.89648432 -0.74414,1.47070307 -0.73828,0.57421875 -2.02148,0.57421875 -0.72657,0 -1.33594,-0.16992187 Q 219.05859,-0.1875 218.64844,-0.39257813 V -1.6289062 h 0.0586 q 0.52149,0.3925781 1.16016,0.6269531 0.63867,0.2285156 1.22461,0.2285156 0.72656,0 1.13672,-0.234375 0.41015,-0.234375 0.41015,-0.7382812 0,-0.3867188 -0.22265,-0.5859376 -0.22266,-0.1992187 -0.85547,-0.3398437 -0.23438,-0.052734 -0.61524,-0.1230469 -0.375,-0.070312 -0.68554,-0.1523437 -0.86133,-0.2285157 -1.22461,-0.6679688 -0.35743,-0.4453125 -0.35743,-1.0898437 0,-0.4042969 0.16407,-0.7617188 0.16992,-0.3574218 0.50976,-0.6386718 0.32813,-0.2753907 0.83203,-0.4335938 0.50977,-0.1640625 1.13672,-0.1640625 0.58594,0 1.1836,0.1464844 0.60351,0.140625 1.00195,0.3457031 v 1.1777344 h -0.0586 q -0.42188,-0.3105469 -1.0254,-0.5214844 -0.60351,-0.2167969 -1.18359,-0.2167969 -0.60351,0 -1.01953,0.234375 -0.41602,0.2285157 -0.41602,0.6855469 0,0.4042969 0.25196,0.609375 0.24609,0.2050781 0.79687,0.3339844 0.30469,0.070312 0.67969,0.140625 0.38086,0.070312 0.63281,0.1289062 0.76758,0.1757813 1.1836,0.6035156 0.41601,0.4335938 0.41601,1.1484376 z"
       id="path70" />
  </g>
</svg>
