<?xml version="1.0" encoding="UTF-8" standalone="no"?>
<!-- Created with Inkscape (http://www.inkscape.org/) -->

<svg
   version="1.1"
   id="svg1878"
   width="32"
   height="32"
   viewBox="0 0 32 32"
   sodipodi:docname="CyclOSM.svg"
   inkscape:version="1.2.2 (b0a84865, 2022-12-01)"
   xmlns:inkscape="http://www.inkscape.org/namespaces/inkscape"
   xmlns:sodipodi="http://sodipodi.sourceforge.net/DTD/sodipodi-0.dtd"
   xmlns="http://www.w3.org/2000/svg"
   xmlns:svg="http://www.w3.org/2000/svg">
  <defs
     id="defs1882" />
  <sodipodi:namedview
     id="namedview1880"
     pagecolor="#ffffff"
     bordercolor="#666666"
     borderopacity="1.0"
     inkscape:showpageshadow="2"
     inkscape:pageopacity="0.0"
     inkscape:pagecheckerboard="0"
     inkscape:deskcolor="#d1d1d1"
     showgrid="false"
     inkscape:zoom="7.375"
     inkscape:cx="15.864407"
     inkscape:cy="16"
     inkscape:window-width="725"
     inkscape:window-height="480"
     inkscape:window-x="0"
     inkscape:window-y="25"
     inkscape:window-maximized="0"
     inkscape:current-layer="g1884" />
  <g
     inkscape:groupmode="layer"
     inkscape:label="Image"
     id="g1884">
    <g
       id="g2005">
      <path
         style="fill:#afb7c5;stroke-width:0.128"
         d="m 5.44,30.208 c -0.1246039,-0.201613 0.051948,-0.384 0.3717157,-0.384 0.3475605,0 0.6614682,-0.316553 0.849886,-0.857048 C 6.7824923,28.620164 6.7082478,28.336218 6.0232009,26.525398 5.5968404,25.398377 5.248,24.437103 5.248,24.389233 c 0,-0.04787 0.1249015,-0.06863 0.2775589,-0.04613 0.2281777,0.03362 0.3775511,0.314176 0.8395875,1.576902 0.3091156,0.8448 0.6088137,1.583319 0.6659956,1.641155 0.057182,0.05784 0.3561676,-0.633365 0.6644126,-1.536 0.4781641,-1.40021 0.6027279,-1.647159 0.8484454,-1.682057 0.1584,-0.0225 0.288,-0.01266 0.288,0.02185 0,0.132807 -1.814875,5.004001 -1.9918906,5.346312 C 6.7373919,29.909892 6.5425331,30.131718 6.40709,30.204206 6.0930348,30.372283 5.5428664,30.374441 5.44,30.208 Z M 1.6,28.433848 C 0.7300238,27.896468 0.39524485,27.162363 0.3952209,25.792 c -2.118e-5,-1.211242 0.30442317,-2.048878 0.925794,-2.547191 0.4292099,-0.344209 0.588462,-0.392453 1.3021763,-0.39449 0.6291522,-0.0018 0.8950379,0.05864 1.1749851,0.267061 0.3727447,0.27751 0.7181332,0.793641 0.8690206,1.29862 0.073573,0.246228 0.03839,0.288 -0.2425712,0.288 C 4.2225773,24.704 4.096,24.632367 4.096,24.518022 4.096,23.830862 3.4340517,23.296 2.5836184,23.296 c -1.0599024,0 -1.58852065,0.803044 -1.59612716,2.424736 -0.008226,1.753789 0.48633626,2.48849 1.66314606,2.4707 0.7132186,-0.01078 1.178923,-0.325442 1.3830849,-0.934499 0.09975,-0.297574 0.2395156,-0.454441 0.429874,-0.482473 0.2497225,-0.03677 0.2722891,-7.7e-5 0.1967932,0.32 -0.142459,0.60398 -0.5448915,1.155114 -1.0017516,1.371909 C 3.0696092,28.745885 2.0798482,28.730248 1.6,28.433848 Z m 8.643842,0.0817 c -1.2810641,-0.677799 -1.3312554,-3.187497 -0.08014,-4.007259 0.409243,-0.268146 1.403018,-0.270988 1.808704,-0.0052 0.596989,0.391163 0.972513,1.288884 0.539149,1.288884 -0.128051,0 -0.320458,-0.191188 -0.448,-0.445165 -0.410556,-0.817543 -1.596934,-0.812358 -2.02159,0.0088 -0.2423544,0.468662 -0.2401102,1.816333 0.0038,2.288024 0.401507,0.776427 1.809899,0.740746 2.111873,-0.0535 0.07507,-0.19744 0.223682,-0.326188 0.376526,-0.326188 0.222591,0 0.237297,0.04364 0.124115,0.368315 -0.219053,0.628375 -0.674807,0.948929 -1.425304,1.002483 -0.399079,0.02848 -0.801661,-0.02006 -0.989142,-0.119251 z M 13.696,25.6 v -3.072 h 0.256 0.256 v 3.072 3.072 h -0.256 -0.256 z m 2.946632,2.936061 c -0.759779,-0.319694 -1.220068,-1.087429 -1.35221,-2.255408 -0.173923,-1.53728 0.328366,-2.771177 1.326338,-3.258211 1.07389,-0.524084 2.32307,-0.08126 2.861486,1.014385 0.243159,0.494808 0.296457,0.810139 0.296665,1.755173 2.56e-4,0.992571 -0.04397,1.230145 -0.31933,1.716662 -0.456496,0.806574 -0.877401,1.07519 -1.757861,1.121847 -0.405746,0.0215 -0.880536,-0.021 -1.055088,-0.09445 z m 1.851617,-0.653552 c 0.194025,-0.152621 0.432193,-0.46757 0.529262,-0.699889 0.234653,-0.561605 0.22986,-2.359109 -0.0078,-2.927928 -0.220673,-0.528146 -0.872288,-0.957554 -1.454059,-0.958213 -1.116807,-0.0013 -1.6822,0.825835 -1.686833,2.467632 -0.0032,1.133449 0.18966,1.714651 0.70294,2.118398 0.484863,0.381392 1.431635,0.381392 1.916498,0 z m 2.985737,0.528873 C 20.90423,28.107286 20.608,27.707822 20.608,27.235519 c 0,-0.504892 0.338886,-0.455269 0.56359,0.08253 0.241417,0.577791 0.680972,0.848019 1.402966,0.862512 1.138072,0.02284 1.794826,-0.561338 1.500723,-1.334889 -0.142595,-0.375055 -0.502583,-0.59005 -1.547279,-0.924084 -1.404255,-0.448999 -1.909176,-1.00085 -1.740142,-1.901877 0.0942,-0.50216 0.347773,-0.764337 1.004715,-1.038824 0.623198,-0.260389 1.194056,-0.244549 1.845448,0.0512 0.564007,0.256077 0.864539,0.611731 1.007187,1.191914 0.07773,0.316154 0.05254,0.352 -0.247332,0.352 -0.267518,0 -0.333876,-0.06134 -0.333876,-0.308622 0,-0.190139 -0.157436,-0.441094 -0.410086,-0.653687 -0.360432,-0.303282 -0.493095,-0.338181 -1.095607,-0.288216 -0.823148,0.06826 -1.224973,0.397199 -1.224973,1.002772 0,0.501541 0.325133,0.769149 1.309054,1.077449 1.519181,0.476015 2.061612,0.958739 2.061612,1.834685 0,0.441007 -0.389115,0.977499 -0.900946,1.242176 -0.525375,0.271683 -1.744655,0.234326 -2.323068,-0.07118 z M 25.728,25.783498 v -2.888502 l 0.343441,0.0405 0.343439,0.0405 0.971715,2.328489 c 0.534443,1.280668 0.99922,2.355994 1.032838,2.389611 0.03362,0.03362 0.514555,-1.028602 1.06875,-2.360488 L 30.495808,22.912 H 30.863904 31.232 v 2.88 2.88 h -0.253175 -0.253176 l -0.03482,-2.399841 -0.03483,-2.399842 -1.011525,2.405467 c -0.763464,1.815561 -1.061336,2.395874 -1.214643,2.366349 -0.128602,-0.02476 -0.555808,-0.871241 -1.164475,-2.307311 L 26.304,24.068627 26.269112,26.370313 26.234225,28.672 H 25.981112 25.728 Z m 0.416223,-8.666264 C 24.041807,15.005687 23.573865,14.472038 23.631489,14.25168 23.743576,13.82306 23.515188,13.808673 22.914268,14.2065 21.063892,15.431499 18.315528,15.122265 16.700631,13.50737 15.107489,11.914226 14.782496,9.2501468 15.95071,7.36 l 0.316444,-0.512 -0.591931,0.64 C 15.349661,7.84 14.83254,8.4177764 14.526063,8.7719474 l -0.557228,0.6439475 0.06996,0.5216005 c 0.08496,0.6334166 -0.09326,1.0010806 -0.616377,1.2715956 -1.100876,0.569286 -2.1467,-0.810563 -1.366299,-1.8026817 L 12.336239,9.0502949 11.774538,7.4371475 C 11.465602,6.5499164 11.117849,5.5725051 11.001755,5.2651223 L 10.790673,4.7062447 10.314926,5.5569605 9.8391782,6.4076762 10.416709,7.0500293 c 0.839124,0.933308 1.140648,1.8260833 1.077372,3.1899707 -0.04182,0.901495 -0.114416,1.205352 -0.423473,1.772588 -0.487361,0.89449 -1.430233,1.729469 -2.3407991,2.07294 -1.0264461,0.387182 -2.4956597,0.3106 -3.4541804,-0.18005 C 2.0388712,12.248644 2.0598248,7.7216567 5.312,6.0475387 6.151254,5.6155171 7.6334616,5.5048503 8.5226337,5.8078217 8.8574624,5.9219092 9.1424846,6.0010216 9.1560165,5.9836268 9.1695484,5.9662321 9.4788193,5.4077345 9.8432852,4.7425211 10.426092,3.678799 10.489272,3.4927758 10.36755,3.1989142 10.203402,2.802626 9.6259117,2.432 9.1725834,2.432 8.5734386,2.432 8.1703697,2.2029011 8.2151245,1.8877937 L 8.256,1.6 9.6127898,1.5638644 C 11.121093,1.5236936 11.648,1.6482139 11.648,2.0448319 11.648,2.2474632 11.564231,2.304 11.264,2.304 c -0.449746,0 -0.446368,-0.011473 -0.168293,0.5716573 L 11.311414,3.328 h 2.849604 2.849603 l 0.03869,-0.672 0.03869,-0.672 1.18114,-0.036765 c 1.353828,-0.042141 1.807624,0.1168316 2.223646,0.7789797 0.315432,0.5020459 0.281797,1.6135554 -0.06026,1.9915279 l -0.218745,0.2417097 0.67711,0.056192 c 1.517386,0.1259245 3.105672,1.2722136 3.846227,2.7758794 0.723728,1.4694968 0.624293,3.5526243 -0.229642,4.8109693 -0.359889,0.530325 -0.338418,0.853845 0.05341,0.804762 0.338718,-0.04243 5.391117,4.80805 5.391117,5.175662 0,0.291999 -0.776462,1.129084 -1.047316,1.129084 -0.0973,0 -1.339512,-1.167645 -2.760461,-2.594766 z M 8.4793464,13.313224 C 9.2186931,13.036599 10.062275,12.265547 10.434925,11.525784 11.003471,10.397138 10.750341,8.6159432 9.8853321,7.6584818 L 9.4348123,7.1598102 8.7494061,8.4002483 C 8.3724328,9.0824893 8.064,9.7691508 8.064,9.9261629 8.064,10.271272 7.7145548,10.701292 7.3481124,10.807119 6.9785856,10.913837 6.4,10.441365 6.4,10.032892 6.4,9.6646033 6.972714,9.0347908 7.2209814,9.1300599 7.3317445,9.1725637 7.6230889,8.7742175 8.0608228,7.9817704 8.429457,7.3144169 8.7044767,6.74181 8.6719773,6.7093107 8.5090968,6.5464302 7.1615258,6.3715512 6.6554061,6.4476133 5.4075186,6.6351517 4.248878,7.6359067 3.8449018,8.8751359 3.6337487,9.5228644 3.6587919,10.760878 3.894457,11.324903 c 0.7580626,1.8143 2.745917,2.676369 4.5848894,1.988321 z M 21.925935,12.96053 c 1.053605,-0.570964 1.725959,-1.697147 1.744327,-2.921728 0.02951,-1.967134 -1.532119,-3.5290909 -3.501064,-3.5018055 -1.131483,0.01568 -1.134908,0.024848 -0.510884,1.3672864 0.41413,0.8908987 0.632231,1.2153537 0.880392,1.3097046 0.413218,0.1571052 0.619048,0.6540491 0.452421,1.0923075 -0.15792,0.415364 -0.683947,0.626347 -1.063507,0.426561 C 19.542808,10.530307 19.460095,10.375597 19.458825,9.856 19.458185,9.6062643 19.22172,8.886594 18.924443,8.2298257 L 18.391156,7.0516512 18.023552,7.3134085 c -0.520003,0.3702746 -1.101048,1.4539011 -1.198708,2.2355404 -0.133653,1.0697231 0.200858,1.9894491 1.022368,2.8109581 1.144019,1.144019 2.663179,1.367727 4.078723,0.600623 z M 13.248,10.177753 c 0,-0.2823883 -0.397939,-0.4230141 -0.606592,-0.2143607 -0.215137,0.2151367 -0.0029,0.5551607 0.31802,0.5095857 C 13.14825,10.446165 13.248,10.344115 13.248,10.177753 Z M 15.220666,6.7674342 C 16.282899,5.5615232 17.152,4.4959232 17.152,4.3994342 17.152,4.2561714 16.635597,4.224 14.336,4.224 c -1.5488,0 -2.816,0.019705 -2.816,0.043789 0,0.033573 1.277989,3.6595313 1.597403,4.5322109 0.03221,0.088 0.08407,0.16 0.115245,0.16 0.03118,0 0.925783,-0.9866546 1.988018,-2.1925657 z m 2.443271,-1.3061008 c 1.1e-4,-0.1864167 -0.186354,-0.038395 -0.77282,0.6134932 L 16.32,6.7096534 16.991937,6.1388266 C 17.361503,5.8248719 17.663903,5.52 17.663937,5.4613334 Z m 1.622231,-0.4313755 c 0.26207,-0.044045 0.383665,-0.126905 0.34274,-0.2335574 -0.03489,-0.090912 0.02714,-0.3404331 0.137831,-0.5544911 C 20.048358,3.6973179 20.018235,3.3665979 19.653818,3.0021818 19.388145,2.7365084 19.217715,2.688 18.549967,2.688 H 17.7603 l 0.05755,0.672 c 0.03165,0.3696 0.182343,0.9519308 0.334876,1.2940685 0.220923,0.4955465 0.323087,0.6039753 0.502304,0.5331101 0.123735,-0.048927 0.40775,-0.1196763 0.631142,-0.1572207 z M 2.336,7.851228 C 1.939265,7.691142 2.4320918,6.6437176 3.3236296,5.75218 4.5304931,4.5453164 6.3576365,3.9377882 7.9254108,4.2220799 9.0091542,4.4185999 9.344,4.5868435 9.344,4.9348513 9.344,5.3276146 9.0891832,5.3909357 8.4310418,5.1617187 7.569876,4.8617924 6.0036236,4.984341 5.1567251,5.4179116 4.2380168,5.8882454 3.627664,6.4545096 3.1751167,7.2563795 2.8068179,7.9089692 2.6879423,7.9932399 2.336,7.851228 Z M 2.9574646,5.2002237 C 2.7400521,4.9382578 2.8809135,4.7161407 3.5535529,4.2602828 4.4419779,3.6581836 5.2533711,3.3368922 6.1121853,3.2471283 6.7631762,3.1790863 6.8845649,3.1998799 6.9583145,3.3920686 7.0883698,3.7309874 6.8410916,3.9307369 6.1718756,4.0273482 5.463602,4.1295981 4.405551,4.5844961 3.7977786,5.0480667 3.3077132,5.4218579 3.1631316,5.4480375 2.9574646,5.2002237 Z"
         id="path2019" />
      <path
         style="fill:#efc144;stroke-width:0.128"
         d="m 5.504,30.08 c 0,-0.179567 0.085987,-0.256585 0.288,-0.25796 0.1584,-0.001 0.3519629,-0.04428 0.4301399,-0.096 C 6.4084745,29.602761 6.784,28.865231 6.784,28.622551 6.784,28.517961 6.4384,27.527476 6.016,26.421473 5.5936,25.315471 5.248,24.390184 5.248,24.36528 c 0,-0.159864 0.5009943,-0.0034 0.5722191,0.17872 0.048184,0.1232 0.3196565,0.8576 0.6032711,1.632 0.2836144,0.7744 0.555772,1.451338 0.6047946,1.504308 0.049023,0.05297 0.3522303,-0.667031 0.6737949,-1.6 0.3965562,-1.150545 0.6517862,-1.709623 0.7932916,-1.737693 0.1182108,-0.02345 0.2086287,0.04149 0.2086287,0.14985 0,0.105179 -0.4053896,1.304603 -0.9008657,2.665385 C 7.1065294,29.071016 6.8158465,29.711812 6.5211149,29.984 6.060934,30.408983 5.504,30.461549 5.504,30.08 Z M 1.7125276,28.488118 C 0.79503484,28.0888 0.28036393,26.778488 0.43772357,25.242569 0.5444015,24.201331 0.88343195,23.531756 1.4955098,23.153471 c 0.5873346,-0.362994 1.5719107,-0.393264 2.1901507,-0.06734 0.4775862,0.251777 0.9211482,0.896169 0.921861,1.33925 7.168e-4,0.44812 -0.4090026,0.300463 -0.5370086,-0.193528 C 3.9204182,23.652623 3.4136956,23.296 2.7407608,23.296 1.9986179,23.296 1.5863427,23.504901 1.2448563,24.053979 1.002513,24.443643 0.96,24.693481 0.96,25.728 c 0,1.386022 0.1888591,1.888794 0.8702143,2.316639 0.8144353,0.511411 2.0108194,0.06509 2.2446763,-0.83739 C 4.2019753,26.716813 4.608,26.592241 4.608,27.043685 c 0,0.447491 -0.5094493,1.144315 -1.0265514,1.404117 -0.5278125,0.265181 -1.3133257,0.282127 -1.868921,0.04032 z m 8.4532284,-0.05748 C 9.6208517,28.098351 9.344,27.449446 9.344,26.504544 c 0,-1.530671 0.6325984,-2.242068 1.909502,-2.147355 0.583816,0.0433 0.750837,0.115607 1.056,0.457144 0.390451,0.43699 0.490838,1.041667 0.172937,1.041667 -0.104259,0 -0.225932,-0.144911 -0.270385,-0.322025 C 12.098648,25.082127 11.566902,24.704 11.044892,24.704 c -0.886893,0 -1.4634154,1.057923 -1.2535285,2.300232 0.1157013,0.68483 0.4900015,1.127915 1.0399785,1.231091 0.573575,0.107603 1.022703,-0.09461 1.302587,-0.586471 0.241337,-0.42412 0.538071,-0.510886 0.538071,-0.157333 0,0.92102 -1.570732,1.509588 -2.506244,0.939114 z m 6.341127,-0.05338 c -0.854688,-0.451969 -1.147605,-1.110831 -1.144072,-2.573381 0.0043,-1.766877 0.477684,-2.573184 1.704842,-2.903622 0.956333,-0.257514 1.963556,0.25318 2.401617,1.217693 0.368723,0.811849 0.338896,2.667504 -0.05487,3.413929 -0.566036,1.072972 -1.799137,1.431505 -2.907514,0.845381 z m 1.983522,-0.393812 c 0.511304,-0.33502 0.752193,-1.057955 0.751537,-2.255437 -8.96e-4,-1.675991 -0.531227,-2.432 -1.705942,-2.432 -1.17647,0 -1.664,0.731585 -1.664,2.496988 0,1.518075 0.28688,2.05988 1.28,2.417416 0.294115,0.105885 1.017674,-0.01682 1.338405,-0.226967 z m 3.073425,0.432855 C 20.785585,28.031058 20.277192,27.008 20.864,27.008 c 0.166697,0 0.256,0.08533 0.256,0.244622 0,0.340137 0.682043,0.879652 1.245716,0.985398 0.626563,0.117544 1.444253,-0.173622 1.681882,-0.598889 0.400607,-0.716936 -0.115954,-1.322336 -1.46364,-1.715364 -1.373485,-0.40055 -1.995833,-1.117455 -1.732645,-1.995898 0.497058,-1.659029 3.724687,-1.314009 3.724687,0.398153 0,0.417762 -0.35446,0.279327 -0.512735,-0.200248 -0.401725,-1.217242 -2.793982,-1.07424 -2.811195,0.168044 -0.0065,0.467467 0.508356,0.858672 1.615067,1.227242 1.161657,0.386867 1.682789,0.824787 1.783788,1.498959 0.192421,1.284415 -1.63935,2.112913 -3.087095,1.396273 z M 13.725641,25.568 c 0.02938,-2.54473 0.06218,-2.976 0.226359,-2.976 0.164177,0 0.196979,0.43127 0.226359,2.976 l 0.03436,2.976 H 13.952 13.691282 Z M 25.728,25.728 v -2.816 h 0.306305 c 0.168469,0 0.335693,0.072 0.371611,0.16 0.694087,1.700525 1.921471,4.536393 1.996086,4.611953 0.05429,0.05497 0.554844,-0.996027 1.112351,-2.335557 l 1.013647,-2.43551 0.352,-3.84e-4 0.352,-3.84e-4 v 2.816 2.816 h -0.253175 -0.253176 l -0.03482,-2.382011 -0.03483,-2.382011 -0.982001,2.350011 c -0.722416,1.728802 -1.043856,2.35959 -1.216,2.386251 -0.191444,0.02965 -0.406681,-0.377719 -1.183525,-2.24 -0.52224,-1.251932 -0.993596,-2.327116 -1.047458,-2.389298 -0.05386,-0.06218 -0.06411,0.960218 -0.02278,2.272 l 0.07515,2.38494 H 26.003697 25.728 Z m 0.478655,-8.604563 c -1.717038,-1.761904 -2.512604,-2.665864 -2.477215,-2.81473 0.102924,-0.432949 -0.247117,-0.516571 -0.745788,-0.178164 -0.783556,0.531735 -1.695964,0.780329 -2.823652,0.76933 -1.487241,-0.0145 -2.327581,-0.372043 -3.403706,-1.448167 -0.939357,-0.939357 -1.344527,-1.782868 -1.480289,-3.081773 -0.167314,-1.6007742 0.678963,-3.5111668 1.934065,-4.3659692 0.414196,-0.2820938 0.639585,-0.711182 0.317101,-0.6036872 -0.07526,0.025086 -0.934402,0.959431 -1.909211,2.0763235 l -1.772382,2.0307133 0.133457,0.2929043 c 0.399246,0.8762513 -0.637793,1.7616783 -1.6213,1.3842713 C 11.76685,10.957745 11.635184,9.6748024 12.164732,9.3038926 L 12.415244,9.1284271 11.626935,6.9254717 C 10.758081,4.4974301 10.806346,4.5373591 10.174918,5.7242364 L 9.8194109,6.392473 10.28122,6.9036407 c 0.253996,0.2811423 0.621951,0.815636 0.81768,1.1877636 0.31714,0.6029602 0.355721,0.8089358 0.354499,1.8925957 -0.0016,1.445682 -0.275475,2.142251 -1.209311,3.076087 C 9.3255628,13.978612 8.6080439,14.266546 7.232,14.26881 5.8689093,14.271054 5.2186757,14.028201 4.2860589,13.168545 2.4808296,11.504543 2.4085571,8.8214852 4.1189804,6.965895 5.1656968,5.8303418 6.8543169,5.373802 8.373841,5.8155397 L 9.1131933,6.0304753 9.2605967,5.8281811 C 9.3416685,5.7169194 9.664881,5.1438854 9.9788468,4.5547725 L 10.549694,3.483658 10.394712,3.1435105 C 10.213767,2.7463781 9.3484369,2.310937 8.7319827,2.3068111 8.2636561,2.3036767 8.0697308,2.0295558 8.3213528,1.7263699 8.5260961,1.4796692 10.78767,1.460684 11.264,1.7016672 11.711603,1.928117 11.673834,2.2312175 11.192145,2.2783091 L 10.800291,2.3166181 11.064145,2.8862086 11.328,3.4557992 14.176,3.4558995 17.024,3.456 V 2.8416 c 0,-0.33792 0.06912,-0.68352 0.1536,-0.768 0.254665,-0.2546646 2.136055,-0.1977587 2.654508,0.08029 0.840349,0.4506846 1.149088,1.6023912 0.649295,2.4221101 l -0.25364,0.416 h 0.358887 c 0.58201,0 1.70376,0.3776454 2.360562,0.7947008 0.765799,0.4862678 1.40765,1.229343 1.852395,2.1445284 0.302431,0.6223364 0.34492,0.8648664 0.348413,1.9887708 0.0035,1.1386879 -0.03554,1.3644039 -0.353999,2.0445279 -0.196888,0.42049 -0.443142,0.858632 -0.547229,0.973647 -0.16701,0.184544 -0.166966,0.227613 3.84e-4,0.366492 0.104292,0.08656 0.256221,0.116211 0.337621,0.0659 0.159779,-0.09876 5.367203,5.013732 5.367203,5.269365 0,0.153163 -0.95461,1.069545 -1.120369,1.075502 -0.0526,0.0019 -1.233836,-1.16451 -2.624976,-2.592 z M 8.7637553,13.2469 C 9.413738,12.931468 10.11709,12.22738 10.429162,11.579755 10.732494,10.950266 10.832265,9.6396824 10.631414,8.9229847 10.480795,8.3855315 9.6911717,7.168 9.4932283,7.168 9.3102413,7.168 8.064,9.5530936 8.064,9.9032996 8.064,10.732646 6.9310202,11.052645 6.5319931,10.336 6.3559384,10.019809 6.3560059,9.9482367 6.5326587,9.6324507 6.6515876,9.4198482 6.8716644,9.2554278 7.0894751,9.2164507 7.3873167,9.163152 7.5581591,8.9554633 8.0768198,8.0161599 8.4217674,7.3914478 8.704,6.8354826 8.704,6.7806815 8.704,6.604137 7.9166385,6.4 7.2357012,6.4 5.3950806,6.4 3.888911,7.7436676 3.6346161,9.6125608 3.4299995,11.116353 4.4977162,12.843049 5.9683195,13.386591 6.6462534,13.63716 8.110346,13.563997 8.7637553,13.2469 Z M 21.402275,13.2411 C 24.290673,12.256875 24.478871,8.1514149 21.696,6.8335743 21.040451,6.523136 19.589695,6.4064449 19.229322,6.6351679 19.105958,6.7134652 19.20846,7.0377898 19.653466,7.9772078 19.976216,8.6585441 20.304086,9.216 20.382065,9.216 c 0.26459,0 0.609935,0.4222493 0.609935,0.7457596 0,0.4330904 -0.347099,0.7902404 -0.768,0.7902404 -0.47862,0 -0.812954,-0.403679 -0.740905,-0.8945782 0.04198,-0.2860599 -0.105444,-0.730539 -0.542987,-1.6370491 L 18.339489,6.976 17.760347,7.5710079 C 15.239245,10.161176 17.9689,14.410921 21.402275,13.241052 Z M 13.236686,10.330783 C 13.436658,10.013761 13.026258,9.6151072 12.742424,9.8506684 12.504035,10.048514 12.489185,10.261985 12.6992,10.472 c 0.1883,0.1883 0.357708,0.143791 0.537486,-0.141217 z m 2.045152,-3.5861142 c 1.102314,-1.2536323 1.970648,-2.3336323 1.929631,-2.4 C 17.123119,4.2017166 11.519873,4.1774291 11.520263,4.32 c 2.04e-4,0.07337 0.901217,2.6695692 1.605574,4.6263204 0.0353,0.098076 0.0839,0.1556763 0.107991,0.128 0.02409,-0.027676 0.945695,-1.0760195 2.04801,-2.3296516 z m 3.852501,-1.6376029 c 0.383406,-0.096543 0.538773,-0.1954664 0.493264,-0.3140633 -0.03654,-0.095221 0.0251,-0.3038169 0.136981,-0.4635466 0.286574,-0.4091424 0.253947,-0.9951693 -0.0749,-1.3452063 C 19.455658,2.7351368 19.282545,2.688 18.601688,2.688 H 17.792 v 0.56461 c 0,0.5971098 0.466061,1.99539 0.665083,1.99539 0.06465,0 0.369421,-0.06342 0.677256,-0.1409341 z M 2.2941738,7.7321601 C 1.8836476,7.2375063 3.4329356,5.4014378 4.8509775,4.7020797 5.5510627,4.3568078 5.8390835,4.2916623 6.8349775,4.2533325 7.5620371,4.2253495 8.2117507,4.2722874 8.5632767,4.3781916 9.2034125,4.5710455 9.4928712,4.8943288 9.2462387,5.1409613 9.1235622,5.2636378 8.9538217,5.2620078 8.4517574,5.1333325 6.3139529,4.5854296 4.3138207,5.3821356 3.112501,7.2601006 2.6454431,7.9902298 2.5527361,8.0437085 2.2941738,7.7321601 Z M 3.0153418,5.173056 2.8018487,4.9595629 3.0577371,4.6871821 C 3.726247,3.9755859 5.5500617,3.2 6.5548927,3.2 6.8516545,3.2 6.912,3.2547538 6.912,3.5240173 6.912,3.7022267 6.84,3.8664499 6.752,3.8889577 6.664,3.9114655 6.1888,4.0269142 5.696,4.1455103 5.2032,4.2641062 4.5984,4.4933423 4.352,4.6549236 4.1056,4.816505 3.7520878,5.0472221 3.5664174,5.1676285 L 3.2288349,5.3865492 Z"
         id="path2017" />
      <path
         style="fill:#919caf;stroke-width:0.128"
         d="m 5.504,30.08 c 0,-0.179567 0.085987,-0.256585 0.288,-0.25796 0.1584,-0.001 0.3519629,-0.04428 0.4301399,-0.096 C 6.4084745,29.602761 6.784,28.865231 6.784,28.622551 6.784,28.517961 6.4384,27.527476 6.016,26.421473 5.5936,25.315471 5.248,24.390184 5.248,24.36528 c 0,-0.159864 0.5009943,-0.0034 0.5722191,0.17872 0.048184,0.1232 0.3196565,0.8576 0.6032711,1.632 0.2836144,0.7744 0.555772,1.451338 0.6047946,1.504308 0.049023,0.05297 0.3522303,-0.667031 0.6737949,-1.6 0.3965562,-1.150545 0.6517862,-1.709623 0.7932916,-1.737693 0.1182108,-0.02345 0.2086287,0.04149 0.2086287,0.14985 0,0.105179 -0.4053896,1.304603 -0.9008657,2.665385 C 7.1065294,29.071016 6.8158465,29.711812 6.5211149,29.984 6.060934,30.408983 5.504,30.461549 5.504,30.08 Z M 1.7125276,28.488118 C 0.79503484,28.0888 0.28036393,26.778488 0.43772357,25.242569 0.5444015,24.201331 0.88343195,23.531756 1.4955098,23.153471 c 0.5873346,-0.362994 1.5719107,-0.393264 2.1901507,-0.06734 0.4775862,0.251777 0.9211482,0.896169 0.921861,1.33925 7.168e-4,0.44812 -0.4090026,0.300463 -0.5370086,-0.193528 C 3.9204182,23.652623 3.4136956,23.296 2.7407608,23.296 1.9986179,23.296 1.5863427,23.504901 1.2448563,24.053979 1.002513,24.443643 0.96,24.693481 0.96,25.728 c 0,1.386022 0.1888591,1.888794 0.8702143,2.316639 0.8144353,0.511411 2.0108194,0.06509 2.2446763,-0.83739 C 4.2019753,26.716813 4.608,26.592241 4.608,27.043685 c 0,0.447491 -0.5094493,1.144315 -1.0265514,1.404117 -0.5278125,0.265181 -1.3133257,0.282127 -1.868921,0.04032 z m 8.4532284,-0.05748 C 9.6208517,28.098351 9.344,27.449446 9.344,26.504544 c 0,-1.530671 0.6325984,-2.242068 1.909502,-2.147355 0.583816,0.0433 0.750837,0.115607 1.056,0.457144 0.390451,0.43699 0.490838,1.041667 0.172937,1.041667 -0.104259,0 -0.225932,-0.144911 -0.270385,-0.322025 C 12.098648,25.082127 11.566902,24.704 11.044892,24.704 c -0.886893,0 -1.4634154,1.057923 -1.2535285,2.300232 0.1157013,0.68483 0.4900015,1.127915 1.0399785,1.231091 0.573575,0.107603 1.022703,-0.09461 1.302587,-0.586471 0.241337,-0.42412 0.538071,-0.510886 0.538071,-0.157333 0,0.92102 -1.570732,1.509588 -2.506244,0.939114 z m 6.341127,-0.05338 c -0.854688,-0.451969 -1.147605,-1.110831 -1.144072,-2.573381 0.0043,-1.766877 0.477684,-2.573184 1.704842,-2.903622 0.956333,-0.257514 1.963556,0.25318 2.401617,1.217693 0.368723,0.811849 0.338896,2.667504 -0.05487,3.413929 -0.566036,1.072972 -1.799137,1.431505 -2.907514,0.845381 z m 1.983522,-0.393812 c 0.511304,-0.33502 0.752193,-1.057955 0.751537,-2.255437 -8.96e-4,-1.675991 -0.531227,-2.432 -1.705942,-2.432 -1.17647,0 -1.664,0.731585 -1.664,2.496988 0,1.518075 0.28688,2.05988 1.28,2.417416 0.294115,0.105885 1.017674,-0.01682 1.338405,-0.226967 z m 3.073425,0.432855 C 20.785585,28.031058 20.277192,27.008 20.864,27.008 c 0.166697,0 0.256,0.08533 0.256,0.244622 0,0.340137 0.682043,0.879652 1.245716,0.985398 0.626563,0.117544 1.444253,-0.173622 1.681882,-0.598889 0.400607,-0.716936 -0.115954,-1.322336 -1.46364,-1.715364 -1.373485,-0.40055 -1.995833,-1.117455 -1.732645,-1.995898 0.497058,-1.659029 3.724687,-1.314009 3.724687,0.398153 0,0.417762 -0.35446,0.279327 -0.512735,-0.200248 -0.401725,-1.217242 -2.793982,-1.07424 -2.811195,0.168044 -0.0065,0.467467 0.508356,0.858672 1.615067,1.227242 1.161657,0.386867 1.682789,0.824787 1.783788,1.498959 0.192421,1.284415 -1.63935,2.112913 -3.087095,1.396273 z M 13.725641,25.568 c 0.02938,-2.54473 0.06218,-2.976 0.226359,-2.976 0.164177,0 0.196979,0.43127 0.226359,2.976 l 0.03436,2.976 H 13.952 13.691282 Z M 25.728,25.728 v -2.816 h 0.306305 c 0.168469,0 0.335693,0.072 0.371611,0.16 0.694087,1.700525 1.921471,4.536393 1.996086,4.611953 0.05429,0.05497 0.554844,-0.996027 1.112351,-2.335557 l 1.013647,-2.43551 0.352,-3.84e-4 0.352,-3.84e-4 v 2.816 2.816 h -0.253175 -0.253176 l -0.03482,-2.382011 -0.03483,-2.382011 -0.982001,2.350011 c -0.722416,1.728802 -1.043856,2.35959 -1.216,2.386251 -0.191444,0.02965 -0.406681,-0.377719 -1.183525,-2.24 -0.52224,-1.251932 -0.993596,-2.327116 -1.047458,-2.389298 -0.05386,-0.06218 -0.06411,0.960218 -0.02278,2.272 l 0.07515,2.38494 H 26.003697 25.728 Z m 0.478655,-8.604563 c -1.717038,-1.761904 -2.512604,-2.665864 -2.477215,-2.81473 0.102924,-0.432949 -0.247117,-0.516571 -0.745788,-0.178164 -0.783556,0.531735 -1.695964,0.780329 -2.823652,0.76933 -1.487241,-0.0145 -2.327581,-0.372043 -3.403706,-1.448167 -0.939357,-0.939357 -1.344527,-1.782868 -1.480289,-3.081773 -0.167314,-1.6007742 0.678963,-3.5111668 1.934065,-4.3659692 0.414196,-0.2820938 0.639585,-0.711182 0.317101,-0.6036872 -0.07526,0.025086 -0.934402,0.959431 -1.909211,2.0763235 l -1.772382,2.0307133 0.133457,0.2929043 c 0.399246,0.8762513 -0.637793,1.7616783 -1.6213,1.3842713 C 11.76685,10.957745 11.635184,9.6748024 12.164732,9.3038926 L 12.415244,9.1284271 11.626935,6.9254717 C 10.758081,4.4974301 10.806346,4.5373591 10.174918,5.7242364 L 9.8194109,6.392473 10.28122,6.9036407 c 0.253996,0.2811423 0.621951,0.815636 0.81768,1.1877636 0.31714,0.6029602 0.355721,0.8089358 0.354499,1.8925957 -0.0016,1.445682 -0.275475,2.142251 -1.209311,3.076087 C 9.3255628,13.978612 8.6080439,14.266546 7.232,14.26881 5.8689093,14.271054 5.2186757,14.028201 4.2860589,13.168545 2.4808296,11.504543 2.4085571,8.8214852 4.1189804,6.965895 5.1656968,5.8303418 6.8543169,5.373802 8.373841,5.8155397 L 9.1131933,6.0304753 9.2605967,5.8281811 C 9.3416685,5.7169194 9.664881,5.1438854 9.9788468,4.5547725 L 10.549694,3.483658 10.394712,3.1435105 C 10.213767,2.7463781 9.3484369,2.310937 8.7319827,2.3068111 8.2636561,2.3036767 8.0697308,2.0295558 8.3213528,1.7263699 8.5260961,1.4796692 10.78767,1.460684 11.264,1.7016672 11.711603,1.928117 11.673834,2.2312175 11.192145,2.2783091 L 10.800291,2.3166181 11.064145,2.8862086 11.328,3.4557992 14.176,3.4558995 17.024,3.456 V 2.8416 c 0,-0.33792 0.06912,-0.68352 0.1536,-0.768 0.254665,-0.2546646 2.136055,-0.1977587 2.654508,0.08029 0.840349,0.4506846 1.149088,1.6023912 0.649295,2.4221101 l -0.25364,0.416 h 0.358887 c 0.58201,0 1.70376,0.3776454 2.360562,0.7947008 0.765799,0.4862678 1.40765,1.229343 1.852395,2.1445284 0.302431,0.6223364 0.34492,0.8648664 0.348413,1.9887708 0.0035,1.1386879 -0.03554,1.3644039 -0.353999,2.0445279 -0.196888,0.42049 -0.443142,0.858632 -0.547229,0.973647 -0.16701,0.184544 -0.166966,0.227613 3.84e-4,0.366492 0.104292,0.08656 0.256221,0.116211 0.337621,0.0659 0.159779,-0.09876 5.367203,5.013732 5.367203,5.269365 0,0.153163 -0.95461,1.069545 -1.120369,1.075502 -0.0526,0.0019 -1.233836,-1.16451 -2.624976,-2.592 z m 3.300668,1.726662 0.171859,-0.245363 -2.475243,-2.472801 c -1.661233,-1.659595 -2.537964,-2.448732 -2.665965,-2.399614 -0.108428,0.04161 -0.314096,-0.05814 -0.476649,-0.231168 l -0.285927,-0.304356 0.405298,-0.611887 c 0.584599,-0.882583 0.82239,-1.814116 0.750207,-2.9388891 C 24.778831,7.2764204 22.925631,5.4278186 20.551002,5.2769868 19.560145,5.2140495 18.510717,5.425802 18.597498,5.671163 c 0.02973,0.08406 0.163055,0.1313732 0.296279,0.1051397 0.133222,-0.026234 0.731823,-0.055034 1.330223,-0.064 0.925706,-0.013871 1.193014,0.033232 1.792,0.3157712 0.891324,0.4204336 1.683796,1.214012 2.139992,2.1429777 C 24.460556,8.7912408 24.512,9.0532223 24.512,9.984 c 0,0.930595 -0.05147,1.192807 -0.355757,1.812437 -0.467682,0.952353 -1.227046,1.717388 -2.120354,2.136189 -0.617142,0.289329 -0.893765,0.339012 -1.875889,0.336918 -1.007077,-0.0022 -1.237088,-0.04698 -1.828371,-0.356372 -0.901452,-0.47169 -1.643632,-1.236575 -2.055353,-2.118233 C 15.851364,10.885035 15.802324,9.370407 16.167165,8.424959 16.436608,7.7267244 17.04484,6.9199475 17.622998,6.4938973 17.908467,6.2835327 17.99742,6.1412678 17.9209,6.0174556 17.83499,5.8784488 17.690803,5.9400856 17.242445,6.3074808 15.587391,7.6636733 15.063516,10.01281 15.981044,11.963797 c 1.223872,2.602375 4.485433,3.515781 6.884459,1.928003 l 0.657502,-0.435164 0.274116,0.291784 c 0.175259,0.186555 0.243083,0.372655 0.188064,0.516029 -0.06607,0.172186 0.488036,0.798902 2.38675,2.69949 l 2.472801,2.475243 0.245363,-0.171859 C 29.22505,19.1728 29.4128,18.98505 29.507323,18.850099 Z M 8.7637553,13.2469 C 9.413738,12.931468 10.11709,12.22738 10.429162,11.579755 10.732494,10.950266 10.832265,9.6396824 10.631414,8.9229847 10.480795,8.3855315 9.6911717,7.168 9.4932283,7.168 9.3102413,7.168 8.064,9.5530936 8.064,9.9032996 8.064,10.732646 6.9310202,11.052645 6.5319931,10.336 6.3559384,10.019809 6.3560059,9.9482367 6.5326587,9.6324507 6.6515876,9.4198482 6.8716644,9.2554278 7.0894751,9.2164507 7.3873167,9.163152 7.5581591,8.9554633 8.0768198,8.0161599 8.4217674,7.3914478 8.704,6.8354826 8.704,6.7806815 8.704,6.604137 7.9166385,6.4 7.2357012,6.4 5.3950806,6.4 3.888911,7.7436676 3.6346161,9.6125608 3.4299995,11.116353 4.4977162,12.843049 5.9683195,13.386591 6.6462534,13.63716 8.110346,13.563997 8.7637553,13.2469 Z M 21.402275,13.2411 C 24.290673,12.256875 24.478871,8.1514149 21.696,6.8335743 21.040451,6.523136 19.589695,6.4064449 19.229322,6.6351679 19.105958,6.7134652 19.20846,7.0377898 19.653466,7.9772078 19.976216,8.6585441 20.304086,9.216 20.382065,9.216 c 0.26459,0 0.609935,0.4222493 0.609935,0.7457596 0,0.4330904 -0.347099,0.7902404 -0.768,0.7902404 -0.47862,0 -0.812954,-0.403679 -0.740905,-0.8945782 0.04198,-0.2860599 -0.105444,-0.730539 -0.542987,-1.6370491 L 18.339489,6.976 17.760347,7.5710079 C 15.239245,10.161176 17.9689,14.410921 21.402275,13.241052 Z M 13.236686,10.330783 C 13.436658,10.013761 13.026258,9.6151072 12.742424,9.8506684 12.504035,10.048514 12.489185,10.261985 12.6992,10.472 c 0.1883,0.1883 0.357708,0.143791 0.537486,-0.141217 z m 2.045152,-3.5861142 c 1.102314,-1.2536323 1.970648,-2.3336323 1.929631,-2.4 C 17.123119,4.2017166 11.519873,4.1774291 11.520263,4.32 c 2.04e-4,0.07337 0.901217,2.6695692 1.605574,4.6263204 0.0353,0.098076 0.0839,0.1556763 0.107991,0.128 0.02409,-0.027676 0.945695,-1.0760195 2.04801,-2.3296516 z m 3.852501,-1.6376029 c 0.383406,-0.096543 0.538773,-0.1954664 0.493264,-0.3140633 -0.03654,-0.095221 0.0251,-0.3038169 0.136981,-0.4635466 0.286574,-0.4091424 0.253947,-0.9951693 -0.0749,-1.3452063 C 19.455658,2.7351368 19.282545,2.688 18.601688,2.688 H 17.792 v 0.56461 c 0,0.5971098 0.466061,1.99539 0.665083,1.99539 0.06465,0 0.369421,-0.06342 0.677256,-0.1409341 z M 2.2941738,7.7321601 C 1.8836476,7.2375063 3.4329356,5.4014378 4.8509775,4.7020797 5.5510627,4.3568078 5.8390835,4.2916623 6.8349775,4.2533325 7.5620371,4.2253495 8.2117507,4.2722874 8.5632767,4.3781916 9.2034125,4.5710455 9.4928712,4.8943288 9.2462387,5.1409613 9.1235622,5.2636378 8.9538217,5.2620078 8.4517574,5.1333325 6.3139529,4.5854296 4.3138207,5.3821356 3.112501,7.2601006 2.6454431,7.9902298 2.5527361,8.0437085 2.2941738,7.7321601 Z M 3.0153418,5.173056 2.8018487,4.9595629 3.0577371,4.6871821 C 3.726247,3.9755859 5.5500617,3.2 6.5548927,3.2 6.8516545,3.2 6.912,3.2547538 6.912,3.5240173 6.912,3.7022267 6.84,3.8664499 6.752,3.8889577 6.664,3.9114655 6.1888,4.0269142 5.696,4.1455103 5.2032,4.2641062 4.5984,4.4933423 4.352,4.6549236 4.1056,4.816505 3.7520878,5.0472221 3.5664174,5.1676285 L 3.2288349,5.3865492 Z"
         id="path2015" />
      <path
         style="fill:#78869e;stroke-width:0.128"
         d="m 5.5961455,30.257478 c -0.1928865,-0.192885 -0.0789,-0.370236 0.250227,-0.389324 0.1904811,-0.01105 0.444576,-0.152919 0.5731254,-0.32 0.4734529,-0.615366 0.4311297,-0.965035 -0.3742257,-3.09181 -0.4173882,-1.102233 -0.729124,-2.033825 -0.6927465,-2.070203 0.2277793,-0.227779 0.441311,0.104114 0.9250811,1.437859 0.3000384,0.8272 0.6117476,1.636307 0.6926871,1.798015 l 0.1471629,0.294014 0.2326041,-0.742014 C 7.9013588,25.415356 8.3519511,24.32 8.5241053,24.32 8.6230473,24.32 8.704,24.38469 8.704,24.463763 c 0,0.189651 -1.6193861,4.646677 -1.8510904,5.094743 -0.099017,0.191477 -0.25615,0.411313 -0.3491858,0.488526 -0.2317567,0.192341 -0.7950655,0.32296 -0.9075783,0.210446 z M 1.7946321,28.536833 c -0.9210088,-0.389775 -1.316141,-1.210939 -1.32335727,-2.750201 -0.009253,-1.97363 0.67055807,-2.892918 2.13930307,-2.892918 1.1132398,0 1.760484,0.465595 1.9475603,1.400977 0.1172701,0.586351 -0.2659101,0.555886 -0.4614776,-0.03669 C 3.8743823,23.584492 3.4246212,23.296 2.5968919,23.296 c -0.5939476,0 -0.7499351,0.05335 -1.058671,0.362086 -0.437005,0.437005 -0.64055005,1.109367 -0.64150706,2.119063 -0.001402,1.479337 0.52202796,2.339979 1.50318066,2.471578 0.7423458,0.09957 1.3684551,-0.235126 1.6211168,-0.866589 0.2032817,-0.50805 0.5873904,-0.690205 0.5865102,-0.278138 -6.912e-4,0.323598 -0.4475897,1.008209 -0.8154963,1.24927 -0.3909143,0.256137 -1.5698859,0.364486 -1.9973931,0.183563 z m 8.4699899,-0.07931 C 9.6716897,28.16532 9.344,27.464438 9.344,26.488444 c 0,-0.945938 0.2766327,-1.594662 0.821756,-1.927077 0.476616,-0.290641 1.232098,-0.311105 1.742434,-0.0472 0.348275,0.1801 0.76381,0.767366 0.76381,1.079477 0,0.23879 -0.3642,0.142385 -0.44694,-0.118304 -0.21265,-0.670001 -1.240564,-0.983944 -1.8421,-0.562612 -0.8603126,0.602587 -0.8603126,2.563957 0,3.166544 0.601536,0.421332 1.62945,0.107389 1.8421,-0.562612 0.09982,-0.314516 0.44694,-0.334042 0.44694,-0.02514 0,0.574186 -0.843005,1.183991 -1.627889,1.177566 -0.195861,-0.0016 -0.546631,-0.0968 -0.779489,-0.211561 z M 16.704,28.49131 c -0.925169,-0.411195 -1.344,-1.282538 -1.344,-2.796077 0,-1.618877 0.552096,-2.518023 1.705906,-2.77825 0.984358,-0.222008 1.87673,0.213568 2.365257,1.15451 0.25872,0.498316 0.290327,0.718641 0.256,1.784507 -0.02989,0.927967 -0.102149,1.336074 -0.305077,1.722922 -0.474361,0.904295 -1.732158,1.332808 -2.678086,0.912388 z m 1.807567,-0.521739 c 0.637589,-0.417764 0.960657,-1.890276 0.695235,-3.168808 C 19.000608,23.807533 18.436986,23.296 17.548808,23.296 c -0.704597,0 -1.168323,0.288297 -1.510865,0.939302 -0.328794,0.624875 -0.308471,2.428853 0.03484,3.092698 0.470254,0.909307 1.583287,1.202113 2.438782,0.641571 z m 3.307625,0.566272 C 21.338671,28.396101 20.783205,27.82911 20.667254,27.36 c -0.07421,-0.30021 -0.0473,-0.352 0.18287,-0.352 0.18664,0 0.269876,0.08084 0.269876,0.262112 0,0.359539 0.58028,0.867085 1.103588,0.965257 0.968541,0.1817 1.968412,-0.332501 1.968412,-1.012289 0,-0.56261 -0.449143,-0.941123 -1.55292,-1.308715 -1.353634,-0.450801 -1.809989,-0.848576 -1.809989,-1.577647 0,-0.418305 0.08117,-0.626998 0.35507,-0.912887 0.584915,-0.610519 1.937758,-0.738831 2.704928,-0.256552 0.342146,0.215089 0.686911,0.7875 0.686911,1.14047 0,0.381522 -0.33999,0.333029 -0.439301,-0.06266 -0.04568,-0.182001 -0.233134,-0.470001 -0.416567,-0.64 -0.48358,-0.448168 -1.647509,-0.445551 -2.133441,0.0048 -0.596829,0.553122 -0.371799,1.265585 0.516015,1.633757 0.269112,0.111598 0.765169,0.300664 1.102349,0.420147 1.223933,0.433712 1.686105,1.160493 1.310155,2.060269 -0.317925,0.760902 -1.572252,1.138584 -2.696018,0.811781 z M 13.696,25.6 v -2.944 h 0.256 0.256 v 2.944 2.944 h -0.256 -0.256 z m 12.032,0.128 v -2.816 h 0.302689 c 0.272085,0 0.403371,0.242661 1.298462,2.4 0.547675,1.32 1.030665,2.439199 1.07331,2.487108 0.04265,0.04791 0.538339,-1.030857 1.101539,-2.397258 l 1.024,-2.484368 0.352,-0.0027 0.352,-0.0027 v 2.816 2.816 H 30.978825 30.725649 L 30.690825,26.152915 30.656,23.76183 29.646633,26.152915 c -0.718948,1.703112 -1.068821,2.3907 -1.216,2.389745 C 28.283517,28.541764 27.929051,27.832424 27.2,26.08018 l -1.024,-2.461139 -0.03476,2.46248 c -0.02925,2.071875 -0.06478,2.462479 -0.224,2.462479 -0.161248,0 -0.189236,-0.416502 -0.189236,-2.816 z m 0.52438,-8.62761 c -1.790619,-1.792217 -2.585797,-2.6728 -2.534438,-2.80664 0.04116,-0.107268 -0.004,-0.260428 -0.100261,-0.340355 -0.134911,-0.111967 -0.28741,-0.07119 -0.664392,0.177663 -2.461393,1.624794 -5.790003,0.703101 -7.129362,-1.974118 -0.996273,-1.991432 -0.624658,-4.1934465 0.966714,-5.7282887 0.304348,-0.2935362 0.653084,-0.6072658 0.774971,-0.6971767 0.142483,-0.1051039 0.183187,-0.2243289 0.113999,-0.3339048 -0.07747,-0.1226989 -0.631544,0.428036 -1.978375,1.9664637 -1.559304,1.7811298 -1.84999,2.1757054 -1.745999,2.3700153 0.205032,0.3831062 0.143829,0.7196522 -0.206615,1.1361302 -0.824566,0.97994 -2.334113,0.03956 -1.842336,-1.147697 0.08761,-0.2115016 0.241129,-0.4303509 0.341161,-0.4863317 0.148598,-0.08316 0.03698,-0.5100368 -0.609989,-2.3329668 -0.435527,-1.227151 -0.806073,-2.2483318 -0.823436,-2.2692908 -0.01736,-0.020959 -0.259746,0.3769166 -0.538628,0.8841681 l -0.5070579,0.9222753 0.5048929,0.504893 c 0.277691,0.277691 0.657415,0.8302154 0.843832,1.2278318 C 11.400567,8.777765 11.456,9.07438 11.456,9.9866915 c 0,0.9732595 -0.04507,1.1822475 -0.41863,1.9410495 C 10.557838,12.90181 9.9789513,13.463869 8.9658408,13.939058 8.3742214,14.216549 8.0747974,14.271716 7.168,14.270296 6.2396346,14.26885 5.9729066,14.216256 5.3500978,13.911886 2.1485829,12.347286 2.1217775,7.7049906 5.305209,6.1377925 6.3407336,5.6280054 7.3576563,5.5201268 8.3655794,5.8131379 8.7677266,5.9300453 9.1379859,5.9987634 9.188378,5.9658446 9.2387702,5.932926 9.568,5.3561884 9.92,4.6842056 L 10.56,3.4624187 10.365406,3.1072093 C 10.120435,2.6600416 9.4254729,2.3044576 8.7959827,2.3041989 8.2201766,2.3039622 8.0107296,1.9878149 8.3952026,1.6992461 8.7532443,1.4305155 11.176527,1.52167 11.469756,1.8148989 11.743732,2.0888753 11.59623,2.304 11.134399,2.304 h -0.370492 l 0.179504,0.352 c 0.09873,0.1936 0.20944,0.4528 0.246029,0.576 l 0.06653,0.224 H 14.139983 17.024 V 2.831673 c 0,-0.8657556 0.138179,-0.9467615 1.522469,-0.8925352 1.01141,0.03962 1.185244,0.082257 1.487548,0.3648622 0.727758,0.6803341 0.876401,1.3957591 0.459781,2.2129354 L 20.251597,4.992 h 0.367513 c 0.605638,0 1.93226,0.4979345 2.580169,0.9684406 2.027684,1.4724855 2.606106,4.3627184 1.305399,6.5227554 -0.241271,0.400671 -0.406926,0.779862 -0.368122,0.842648 0.0388,0.06279 0.226094,0.114156 0.416198,0.114156 0.278614,0 0.835685,0.490499 2.872447,2.529171 1.389739,1.391044 2.526799,2.593942 2.526799,2.673106 0,0.116882 -0.941989,1.069723 -1.05754,1.069723 -0.01804,0 -1.206977,-1.175224 -2.64208,-2.61161 z m 3.254943,1.749709 0.171859,-0.245363 -2.475243,-2.472801 c -1.661233,-1.659595 -2.537964,-2.448732 -2.665965,-2.399614 -0.108428,0.04161 -0.314096,-0.05814 -0.476649,-0.231168 l -0.285927,-0.304356 0.405298,-0.611887 c 0.584599,-0.882583 0.82239,-1.814116 0.750207,-2.9388891 C 24.778831,7.2764204 22.925631,5.4278186 20.551002,5.2769868 19.560145,5.2140495 18.510717,5.425802 18.597498,5.671163 c 0.02973,0.08406 0.163055,0.1313732 0.296279,0.1051397 0.133222,-0.026234 0.731823,-0.055034 1.330223,-0.064 0.925706,-0.013871 1.193014,0.033232 1.792,0.3157712 0.891324,0.4204336 1.683796,1.214012 2.139992,2.1429777 C 24.460556,8.7912408 24.512,9.0532223 24.512,9.984 c 0,0.930595 -0.05147,1.192807 -0.355757,1.812437 -0.467682,0.952353 -1.227046,1.717388 -2.120354,2.136189 -0.617142,0.289329 -0.893765,0.339012 -1.875889,0.336918 -1.007077,-0.0022 -1.237088,-0.04698 -1.828371,-0.356372 -0.901452,-0.47169 -1.643632,-1.236575 -2.055353,-2.118233 C 15.851364,10.885035 15.802324,9.370407 16.167165,8.424959 16.436608,7.7267244 17.04484,6.9199475 17.622998,6.4938973 17.908467,6.2835327 17.99742,6.1412678 17.9209,6.0174556 17.83499,5.8784488 17.690803,5.9400856 17.242445,6.3074808 15.587391,7.6636733 15.063516,10.01281 15.981044,11.963797 c 1.223872,2.602375 4.485433,3.515781 6.884459,1.928003 l 0.657502,-0.435164 0.274116,0.291784 c 0.175259,0.186555 0.243083,0.372655 0.188064,0.516029 -0.06607,0.172186 0.488036,0.798902 2.38675,2.69949 l 2.472801,2.475243 0.245363,-0.171859 C 29.22505,19.1728 29.4128,18.98505 29.507323,18.850099 Z M 8.990299,13.146518 c 1.169218,-0.685208 1.784289,-1.771608 1.784289,-3.1515901 0,-0.4938542 -0.08593,-1.0667401 -0.20148,-1.3432978 C 10.352122,8.1227352 9.6422449,7.168 9.4699803,7.168 9.2932347,7.168 8.0495688,9.5666725 7.9926145,10.017412 7.9021103,10.733668 7.1595496,10.99955 6.656,10.496 6.3647887,10.204789 6.3520928,10.126671 6.5229422,9.6773032 6.6023694,9.4683936 6.7909859,9.3163412 7.055838,9.2477111 7.3983959,9.1589454 7.5662909,8.9634808 8.0771081,8.0587407 8.4133321,7.4632333 8.6919291,6.9084669 8.6962124,6.8259267 8.7200805,6.3659739 6.4912599,6.2756594 5.6647072,6.7030865 4.5476172,7.2807562 3.7469993,8.4416737 3.6205111,9.667226 c -0.1473715,1.427893 0.7374633,2.968781 2.0706118,3.605849 0.5538148,0.26465 0.7911396,0.301584 1.6806669,0.261552 0.8379304,-0.03771 1.1471024,-0.111847 1.6185092,-0.388109 z m 12.91617,-0.123007 C 23.090899,12.325272 23.728255,11.233396 23.718068,9.92 23.704797,8.2088979 22.272785,6.6212376 20.646885,6.515004 19.009504,6.4080202 18.951484,6.4923534 19.640759,7.9774381 19.956931,8.6586472 20.284966,9.216 20.369729,9.216 20.645114,9.216 20.992,9.6317254 20.992,9.9617596 20.992,10.39485 20.644901,10.752 20.224,10.752 19.739601,10.752 19.453376,10.383819 19.469911,9.7819872 19.479383,9.4371872 19.317115,8.9292946 18.951694,8.16 18.65909,7.544 18.371558,7.04 18.312737,7.04 c -0.163669,0 -0.991221,0.9564317 -1.23434,1.4265697 -0.290138,0.5610654 -0.384271,1.8642023 -0.179932,2.4909123 0.346728,1.063419 1.12416,1.871852 2.231545,2.32053 0.654626,0.265234 2.123174,0.130622 2.776459,-0.254501 z M 13.1584,10.4704 C 13.511112,10.117689 13.200302,9.6315427 12.736,9.8097119 12.421024,9.9305793 12.584525,10.624 12.928,10.624 c 0.04224,0 0.14592,-0.06912 0.2304,-0.1536 z M 7.2533334,9.8986666 C 7.2064,9.8517334 7.168,9.8901334 7.168,9.984 c 0,0.093867 0.0384,0.132267 0.085333,0.085333 0.046933,-0.04693 0.046933,-0.123733 4e-7,-0.1706664 z M 15.405153,6.6340142 c 1.284302,-1.4620892 1.850091,-2.1975909 1.796978,-2.336 C 17.134783,4.1225074 16.756905,4.096 14.322305,4.096 12.022498,4.096 11.52,4.1277331 11.52,4.2729674 c 0,0.097332 0.323873,1.0909321 0.719718,2.208 1.032263,2.9130253 0.926985,2.68152 1.12287,2.4692009 0.09244,-0.1001926 1.011592,-1.1424619 2.042565,-2.3161541 z m 3.729186,-1.5269483 c 0.383406,-0.096543 0.538773,-0.1954664 0.493264,-0.3140633 -0.03654,-0.095221 0.0251,-0.3038169 0.136981,-0.4635466 0.286574,-0.4091424 0.253947,-0.9951693 -0.0749,-1.3452063 C 19.455658,2.7351368 19.282545,2.688 18.601688,2.688 H 17.792 v 0.5711983 c 0,0.6194816 0.45202,1.9888017 0.656516,1.9888017 0.06937,0 0.377988,-0.06342 0.685823,-0.1409341 z M 2.3761279,7.7657715 2.1433266,7.595543 2.371817,7.1140355 C 2.6822487,6.4598492 3.7289,5.3373007 4.3877204,4.9519501 5.6008188,4.2423968 7.2480881,4.0335105 8.5594493,4.422943 9.2309741,4.6223644 9.4921824,4.8950176 9.2467953,5.1404047 9.1571991,5.2300009 8.8039409,5.2022647 8.1327233,5.052933 7.29664,4.8669221 7.0323619,4.8573782 6.3631901,4.9890298 4.9331012,5.2703826 3.8523569,6.0474418 3.0211072,7.392 2.836132,7.6912 2.6677202,7.936 2.6468589,7.936 2.6259976,7.936 2.5041686,7.8593972 2.3761279,7.7657715 Z M 3.0852942,5.2562163 C 2.3406624,4.7960084 4.6691556,3.3651397 6.2847357,3.2901462 L 6.848,3.264 v 0.3182371 0.318237 L 6.1594575,3.9995649 C 5.38555,4.1109409 4.4947538,4.4712137 3.911047,4.9089098 3.3350885,5.340796 3.2678829,5.3690623 3.0852942,5.2562163 Z"
         id="path2013" />
      <path
         style="fill:#5f6f8c;stroke-width:0.128"
         d="M 5.664,30.240868 C 5.3822259,30.145414 5.4922538,29.974921 5.8923372,29.887048 6.1059227,29.840136 6.3677554,29.668852 6.4741876,29.506415 6.8884824,28.874122 6.832681,28.442698 6.0868253,26.511565 5.6958714,25.499325 5.376,24.616701 5.376,24.550179 c 0,-0.06652 0.09137,-0.102326 0.2030444,-0.07956 0.1298133,0.02646 0.407043,0.595366 0.7686626,1.577385 0.3110901,0.8448 0.599621,1.6224 0.6411799,1.728 0.042943,0.109117 0.3394943,-0.553943 0.6869699,-1.536 0.4321531,-1.221379 0.676122,-1.740832 0.8321356,-1.771766 C 8.7747601,24.41534 8.8125277,24.280344 7.725822,27.264 7.2771036,28.496 6.8057258,29.644899 6.6783159,29.81711 6.4429695,30.135209 5.9545041,30.339279 5.664,30.240868 Z M 1.6591219,28.384 C 0.80080742,27.951177 0.512,27.290734 0.512,25.760767 c 0,-1.346563 0.15162789,-1.82787 0.7544559,-2.394842 0.3402484,-0.32001 0.528415,-0.386126 1.2252049,-0.430493 0.6762666,-0.04306 0.9019306,-0.0038 1.2641523,0.220092 0.6258828,0.386817 1.1357178,1.548476 0.6796032,1.548476 -0.094921,0 -0.260779,-0.224524 -0.3685734,-0.498941 C 3.8178666,23.571227 3.3359311,23.253334 2.624,23.253334 c -1.1215604,0 -1.72079308,0.837674 -1.72447502,2.410666 -0.002831,1.209545 0.17145782,1.758346 0.70803792,2.229469 0.810273,0.71143 2.0133974,0.465017 2.4389514,-0.499523 C 4.3116625,26.792974 4.6868681,26.6721 4.5492077,27.232 4.4065606,27.812183 4.1060273,28.167837 3.5420215,28.423914 2.8374496,28.743813 2.3522573,28.733528 1.6591219,28.384 Z M 10.432,28.549884 C 9.7473879,28.26671 9.344,27.4765 9.344,26.418568 c 0,-1.602751 1.141435,-2.48079 2.49161,-1.916652 0.592331,0.247492 1.106648,1.226084 0.64439,1.226084 -0.1056,0 -0.192,-0.05318 -0.192,-0.118179 0,-0.065 -0.14912,-0.295399 -0.331378,-0.512 -0.592292,-0.703898 -1.66636,-0.467726 -2.050143,0.450796 -0.3639817,0.871131 -0.1317308,2.104646 0.476481,2.530655 0.588634,0.412295 1.527948,0.177817 1.806239,-0.450885 0.08871,-0.200413 0.233633,-0.364387 0.322047,-0.364387 0.42718,0 -0.07687,0.925371 -0.652952,1.19874 -0.473359,0.224624 -1.014052,0.257659 -1.426294,0.08714 z m 6.413353,-0.0108 C 15.833146,28.23618 15.309884,27.179757 15.378719,25.57806 15.457262,23.75045 16.135707,22.912 17.536,22.912 c 0.854589,0 1.436762,0.321066 1.842799,1.0163 0.320405,0.548608 0.443627,2.421262 0.206583,3.139513 -0.401655,1.217024 -1.542524,1.829618 -2.740029,1.471268 z m 1.548433,-0.5019 c 0.66851,-0.407614 0.869177,-0.925661 0.869674,-2.245181 6.4e-4,-1.814072 -0.485804,-2.496 -1.780649,-2.496 -1.195203,0 -1.861046,1.135447 -1.696864,2.893622 0.04166,0.446139 0.167263,0.988133 0.279114,1.20443 0.261092,0.504896 0.900364,0.892991 1.470939,0.892991 0.2464,0 0.632403,-0.112437 0.857786,-0.249862 z m 3.440867,0.452267 C 21.226673,28.263937 20.78128,27.833498 20.66597,27.36 c -0.07078,-0.290648 -0.0433,-0.352 0.157684,-0.352 0.164157,0 0.283281,0.135443 0.365876,0.416 0.369139,1.25387 3.00247,1.073143 3.00247,-0.206062 0,-0.574317 -0.42736,-0.928727 -1.584622,-1.314131 C 21.287145,25.464129 20.864,25.071986 20.864,24.288159 c 0,-0.582873 0.225527,-0.907664 0.855585,-1.232164 0.397067,-0.204502 1.522711,-0.17834 1.955469,0.04545 0.450241,0.232829 0.900946,0.787023 0.900946,1.107819 0,0.335877 -0.348662,0.298088 -0.454514,-0.04926 -0.138642,-0.454948 -0.442751,-0.726473 -0.973812,-0.869473 -1.324734,-0.356713 -2.439924,0.757904 -1.625574,1.62474 0.150755,0.160471 0.730488,0.443756 1.288294,0.629523 0.557807,0.185766 1.155476,0.461385 1.328156,0.612484 0.680656,0.595596 0.598288,1.720762 -0.158197,2.160972 -0.554203,0.322502 -1.528263,0.400219 -2.1457,0.171201 z M 13.696,25.6 v -2.944 h 0.256 0.256 v 2.944 2.944 h -0.256 -0.256 z m 12.032,0.128 v -2.816 h 0.29375 c 0.260349,0 0.407406,0.272892 1.29331,2.4 0.549758,1.32 1.037951,2.441501 1.084876,2.492227 0.04692,0.05072 0.547823,-1.014877 1.11311,-2.368 0.8568,-2.050918 1.07464,-2.467031 1.309374,-2.501129 l 0.28158,-0.0409 v 2.824903 c 0,2.407353 -0.02797,2.824902 -0.189236,2.824902 -0.15909,0 -0.194774,-0.385873 -0.224,-2.422257 L 30.656,23.699487 29.642299,26.126949 c -0.744353,1.782471 -1.065641,2.417461 -1.209179,2.389818 -0.11941,-0.023 -0.596613,-0.983738 -1.226299,-2.46888 L 26.176,23.616653 26.14124,26.080326 c -0.02925,2.072931 -0.06478,2.463674 -0.224,2.463674 -0.161248,0 -0.189236,-0.416502 -0.189236,-2.816 z m 0.460358,-8.69163 c -1.745552,-1.747191 -2.521729,-2.6089 -2.470407,-2.742642 0.04116,-0.107256 -0.0038,-0.26028 -0.09993,-0.340052 -0.134103,-0.111296 -0.288683,-0.07442 -0.664392,0.158502 -2.489434,1.543322 -5.714166,0.722066 -7.056931,-1.797218 -1.092494,-2.049729 -0.673564,-4.423134 1.061329,-6.0128476 0.554065,-0.5076992 0.783204,-0.8011541 0.713559,-0.9138418 -0.07164,-0.1159183 -0.666383,0.475279 -1.97156,1.9598107 l -1.868971,2.1258021 0.124682,0.3279412 C 14.21354,10.479901 13.66241,11.264 12.928,11.264 11.8997,11.264 11.43684,9.8777537 12.261963,9.2692465 12.422665,9.1507325 12.334235,8.805515 11.655726,6.9025847 11.218815,5.6772352 10.842995,4.6563287 10.82057,4.6339036 10.798145,4.6114785 10.547913,5.0112232 10.264499,5.5222249 L 9.7492013,6.4513189 10.270527,6.9696594 C 11.108673,7.8030068 11.456,8.6861656 11.456,9.984 c 0,0.9094 -0.05564,1.206673 -0.338939,1.810939 -0.432914,0.923383 -1.2201297,1.708946 -2.1381219,2.133634 -1.0380848,0.480246 -2.4737705,0.482767 -3.4903005,0.0061 C 3.8998753,13.189745 3.0707511,11.973744 2.9704754,10.241542 2.8725676,8.5502413 3.5927419,7.1421526 4.9815247,6.3095276 6.1546774,5.6061805 7.3793908,5.4959077 8.9112895,5.9556928 c 0.2361449,0.070877 0.3563643,-0.071456 0.928,-1.0987 C 10.55321,3.5740605 10.595713,3.3993217 10.297436,2.9734711 10.022336,2.5807112 9.6626377,2.4116959 8.9050738,2.3192268 8.3677422,2.2536394 8.256,2.1959279 8.256,1.984 V 1.728 L 9.8051827,1.692211 c 1.2826143,-0.02963 1.5779173,-0.00116 1.7161753,0.1654249 0.20168,0.2430092 0.06026,0.4107219 -0.395076,0.4685146 L 10.796564,2.368 11.035125,2.912 11.273687,3.456 H 14.148844 17.024 V 2.8416 c 0,-0.33792 0.06912,-0.68352 0.1536,-0.768 0.09434,-0.094344 0.556148,-0.1536 1.197071,-0.1536 0.871764,0 1.11504,0.047812 1.4784,0.2905514 0.8409,0.5617576 1.085961,1.6452369 0.5553,2.4551272 l -0.193721,0.2956561 0.691009,0.086336 c 3.511177,0.4386927 5.431004,4.5616028 3.524185,7.5683423 -0.407247,0.642163 -0.341155,0.988509 0.163453,0.856551 0.211342,-0.05527 0.771104,0.437737 2.811293,2.476015 1.401075,1.399761 2.54741,2.586757 2.54741,2.637767 0,0.198629 -0.806076,0.997654 -1.00646,0.997654 -0.116567,0 -1.357299,-1.146433 -2.757182,-2.54763 z M 29.408,19.030646 c 0.1584,-0.142599 0.288,-0.330709 0.288,-0.418023 0,-0.08731 -1.133276,-1.256763 -2.518391,-2.598777 -1.768979,-1.713932 -2.56267,-2.403277 -2.66719,-2.316534 -0.10139,0.08415 -0.239319,0.02714 -0.432918,-0.17894 l -0.284119,-0.302432 0.387186,-0.610529 c 0.623885,-0.983765 0.817838,-1.7355 0.754514,-2.9243979 C 24.868361,8.4283242 24.477245,7.5404969 23.594719,6.6384036 22.735223,5.759852 21.800052,5.3439101 20.528012,5.2744042 c -1.088331,-0.059468 -2.023288,0.1352487 -1.928864,0.4017101 0.02882,0.081337 0.161405,0.1264219 0.294629,0.1001884 0.133222,-0.026234 0.731823,-0.055034 1.330223,-0.064 0.951114,-0.014252 1.179634,0.028696 1.816332,0.3413595 1.051372,0.5162988 1.948147,1.5431314 2.276712,2.6069015 0.32599,1.0554318 0.325711,1.5923453 -0.0014,2.6513413 -0.33094,1.071463 -1.32413,2.202251 -2.330324,2.653173 -0.994388,0.44563 -2.579056,0.434414 -3.553339,-0.02515 -0.891306,-0.420436 -1.683779,-1.214014 -2.139975,-2.14298 C 15.987444,11.176759 15.936,10.914778 15.936,9.984 c 0,-0.9319814 0.05129,-1.1924422 0.357663,-1.8163311 0.211095,-0.4298667 0.638959,-0.9854212 1.044101,-1.355698 C 17.801745,6.3879183 17.990866,6.1306643 17.921336,6.018162 17.687825,5.6403322 16.368585,6.9887793 15.847223,8.1381964 15.621243,8.6364009 15.560553,9.0087135 15.556776,9.92 c -0.0051,1.233791 0.194941,1.869736 0.917259,2.915821 0.72313,1.04726 2.387875,1.884179 3.747886,1.884179 0.819386,0 2.141559,-0.420646 2.78325,-0.885485 l 0.519378,-0.376235 0.273344,0.290962 c 0.17466,0.185917 0.242277,0.371919 0.187292,0.515207 -0.06607,0.172188 0.488323,0.799189 2.388072,2.700813 1.360767,1.362111 2.535461,2.442385 2.610432,2.400609 0.07497,-0.04177 0.265911,-0.192627 0.424311,-0.335225 z M 8.7912452,13.231988 C 10.909741,12.228229 11.476409,9.4148732 9.9288666,7.584 9.7354737,7.3552 9.5300344,7.168 9.472335,7.168 9.3002309,7.168 7.9357544,9.7064223 8.007441,9.8932348 8.1055848,10.148993 7.5755634,10.752296 7.2547098,10.75004 6.3449892,10.743642 6.2009524,9.4679876 7.0843625,9.2413684 7.4261978,9.1536782 7.5905939,8.9527238 8.1580526,7.9289121 L 8.8281052,6.72 8.4780526,6.5657733 C 8.2855237,6.4809486 7.7248,6.4095113 7.232,6.4070237 6.0828032,6.4012228 5.2512979,6.7701389 4.5065299,7.6162399 3.2981734,8.9890054 3.2933265,10.973488 4.4949958,12.338657 c 1.1513426,1.307994 2.7288035,1.636 4.2962494,0.893331 z M 21.696,13.138835 c 0.721048,-0.336486 1.489628,-1.119324 1.80647,-1.839984 C 23.809532,10.600437 23.791076,9.29488 23.463817,8.564558 23.127839,7.8147776 22.393222,7.0801617 21.643442,6.7441833 20.996221,6.454162 19.434304,6.3704965 19.191933,6.612866 19.023126,6.7816744 20.120293,9.216 20.365184,9.216 c 0.536477,0 0.81172,0.863526 0.414977,1.301921 -0.479451,0.529788 -1.419602,0.03928 -1.278354,-0.6669563 C 19.554856,9.5857219 19.420936,9.1604471 19.002163,8.2642981 18.687498,7.5909341 18.380221,7.04 18.319325,7.04 c -0.236362,0 -1.138923,1.1330716 -1.356614,1.7030865 -0.512197,1.3411695 -0.03985,3.0383415 1.101609,3.9581435 0.982556,0.791758 2.484864,0.972781 3.63168,0.437605 z m -8.532801,-2.627271 c 0.09416,-0.05968 0.151759,-0.246001 0.128,-0.41404 C 13.258815,9.8684847 13.167891,9.792 12.928,9.792 c -0.239891,0 -0.330814,0.076485 -0.363199,0.305524 -0.03693,0.261223 0.144703,0.522556 0.363199,0.522556 0.0352,0 0.141039,-0.04883 0.235199,-0.108516 z M 7.2533334,9.8986666 C 7.2064,9.8517334 7.168,9.8901334 7.168,9.984 c 0,0.093867 0.0384,0.132267 0.085333,0.085333 0.046933,-0.04693 0.046933,-0.123733 4e-7,-0.1706664 z M 20.352,9.92 c 0,-0.0352 -0.0288,-0.064 -0.064,-0.064 -0.0352,0 -0.064,0.0288 -0.064,0.064 0,0.0352 0.0288,0.064 0.064,0.064 0.0352,0 0.064,-0.0288 0.064,-0.064 z M 15.534565,6.4907725 C 16.678956,5.1898595 17.280308,4.4094299 17.233107,4.2864238 17.171506,4.1258929 16.720695,4.096 14.36135,4.096 c -1.539275,0 -2.828399,0.029715 -2.864717,0.066034 -0.05872,0.05872 1.220227,3.8574146 1.572094,4.6693933 L 13.20715,9.150855 13.485051,8.8277761 c 0.152846,-0.1776934 1.075127,-1.229345 2.049514,-2.3370036 z M 19.174504,5.1262853 C 19.617407,5.0074907 19.710662,4.9334314 19.651613,4.7473865 19.610346,4.6173641 19.66353,4.4453431 19.77311,4.3543985 20.061605,4.1149684 20.024406,3.2564055 19.712,2.944 19.504762,2.7367619 19.285334,2.688 18.56,2.688 h -0.896 v 0.3639616 c 0,0.6238776 0.676983,2.3945315 0.870422,2.2765938 0.04927,-0.030038 0.337305,-0.1210596 0.640082,-0.2022701 z M 2.239769,7.6796261 C 2.1041316,7.4601604 2.8299165,6.2940142 3.4814339,5.6845961 3.8232004,5.3649134 4.4900914,4.9199 4.9634139,4.6956774 L 5.824,4.288 7.104,4.2939 c 1.3575675,0.00625 2.24,0.2505048 2.24,0.6200189 0,0.3298464 -0.2312901,0.357025 -1.1461094,0.1346779 C 7.5860243,4.8998781 7.0943219,4.8597011 6.6166172,4.9193864 5.195758,5.096911 3.6671419,6.1294258 3.0582821,7.3228895 2.8165912,7.7966428 2.4191455,7.9698637 2.239769,7.6796264 Z M 3.0721832,5.1842207 C 2.8388294,4.9030467 2.9957676,4.6507071 3.6698705,4.2232036 4.4842956,3.7067105 5.4651622,3.3530132 6.2183974,3.3042132 6.741465,3.2703252 6.8468102,3.3018542 6.8881421,3.5046621 6.9473791,3.7953265 6.7130236,3.9633967 6.2448017,3.9660399 5.7543896,3.9688086 4.5962743,4.4240658 4.0134628,4.8431834 3.2709723,5.3771311 3.2412283,5.3879077 3.0721832,5.1842207 Z"
         id="path2011" />
      <path
         style="fill:#4e5c70;stroke-width:0.128"
         d="m 5.504,30.10647 c 0,-0.05584 0.1872,-0.156642 0.416,-0.224 C 6.2317272,29.7907 6.4076416,29.615622 6.621817,29.184 L 6.907634,28.608 6.142981,26.624 c -0.4205592,-1.0912 -0.7651768,-2.0272 -0.765817,-2.08 -0.00234,-0.193402 0.3580771,-0.08928 0.4430551,0.128 0.048184,0.1232 0.3196565,0.8576 0.6032711,1.632 0.2836144,0.7744 0.5585262,1.454093 0.6109148,1.510428 0.052389,0.05634 0.3486793,-0.655874 0.6584235,-1.582692 0.4999281,-1.495883 0.7519087,-1.957665 0.9565639,-1.753011 0.1026487,0.10265 -1.8233208,5.214629 -2.0654399,5.482167 C 6.364224,30.20369 5.504,30.319648 5.504,30.10647 Z M 1.8867871,28.494838 C 1.2453953,28.258248 1.0845889,28.109985 0.77440425,27.469229 0.56963821,27.046239 0.512,26.674909 0.512,25.77871 c 0,-1.354385 0.29505997,-2.10036 1.024,-2.58889 0.6222551,-0.417032 1.8728915,-0.358089 2.3760266,0.111984 C 4.4886273,23.840512 4.8221619,24.710208 4.448,24.699361 4.36,24.696814 4.1728,24.45201 4.032,24.155361 3.5581756,23.15707 2.4053416,22.90414 1.5623002,23.613512 c -0.4677924,0.393621 -0.6670163,1.071425 -0.66348906,2.257339 0.004823,1.621405 0.58181096,2.417821 1.75083236,2.41667 0.6681893,-6.4e-4 1.2579929,-0.388774 1.4430871,-0.949615 0.1803715,-0.546531 0.5933762,-0.658533 0.4593608,-0.124574 -0.2762572,1.100697 -1.5262048,1.701684 -2.6653043,1.281506 z m 8.4903119,-0.04704 C 10.135703,28.32471 9.8226346,28.066374 9.681391,27.87372 9.3696666,27.448534 9.2506025,26.206842 9.4605555,25.570678 c 0.3367684,-1.020419 1.4219625,-1.504453 2.3672595,-1.055881 0.620391,0.294395 1.120849,1.213203 0.660811,1.213203 -0.100856,0 -0.220556,-0.117148 -0.266,-0.26033 -0.2545,-0.801859 -1.408908,-1.046478 -2.026063,-0.429324 -0.3917049,0.391705 -0.5242969,0.96059 -0.4366024,1.873243 0.051161,0.532443 0.139553,0.725473 0.4656134,1.016809 0.536469,0.479334 1.294632,0.499032 1.748244,0.04542 0.1728,-0.1728 0.314182,-0.3744 0.314182,-0.448 0,-0.0736 0.0864,-0.133818 0.192,-0.133818 0.264415,0 0.240651,0.159626 -0.08549,0.574249 -0.28427,0.361391 -0.94366,0.705907 -1.350398,0.705553 -0.125461,-1.1e-4 -0.425617,-0.10091 -0.667012,-0.224 z m 6.31684,-0.01853 C 15.685953,27.971465 15.293873,27.0838 15.387715,25.472 c 0.103758,-1.782113 0.718193,-2.496 2.148285,-2.496 0.982825,0 1.49494,0.288869 1.867634,1.05348 0.288724,0.592341 0.390561,2.197913 0.18729,2.952809 -0.265247,0.985049 -1.156232,1.694073 -2.118924,1.686186 -0.1408,-0.0012 -0.490927,-0.108796 -0.778061,-0.239205 z m 2.012176,-0.631812 c 0.47053,-0.526615 0.662616,-1.300993 0.59271,-2.389458 -0.09533,-1.484269 -0.647174,-2.160657 -1.762825,-2.160657 -1.214175,0 -1.728973,0.75887 -1.726231,2.544657 0.002,1.317824 0.200724,1.833262 0.868445,2.252786 0.622288,0.390978 1.55973,0.276645 2.027901,-0.247328 z m 3.345091,0.750262 c -0.61944,-0.147173 -1.059578,-0.485348 -1.261898,-0.969564 -0.222743,-0.5331 -0.223589,-0.570156 -0.01301,-0.570156 0.09256,0 0.263187,0.198996 0.379171,0.442216 0.292211,0.612773 0.858835,0.88024 1.714457,0.809286 1.050937,-0.08715 1.562454,-0.732157 1.242293,-1.566486 -0.09758,-0.254292 -0.761511,-0.596427 -1.752085,-0.90288 -1.005362,-0.311028 -1.496129,-0.77978 -1.496129,-1.42901 0,-0.913501 0.662359,-1.449126 1.792,-1.449126 0.982025,0 1.674415,0.440771 1.859904,1.184 0.06851,0.274513 0.04253,0.352 -0.118028,0.352 -0.113232,0 -0.205876,-0.07863 -0.205876,-0.174738 0,-0.315256 -0.507154,-0.827809 -0.970345,-0.980676 -1.302268,-0.429788 -2.528169,0.740662 -1.699555,1.622681 0.150755,0.160471 0.740489,0.447087 1.310522,0.636926 1.323066,0.440621 1.743378,0.83131 1.743378,1.620506 0,1.096284 -1.123249,1.708014 -2.524794,1.375021 z M 13.696,25.6 c 0,-2.531556 0.0269,-2.944 0.192,-2.944 0.165102,0 0.192,0.412444 0.192,2.944 0,2.531556 -0.0269,2.944 -0.192,2.944 -0.165102,0 -0.192,-0.412444 -0.192,-2.944 z m 12.032,0.128 v -2.816 h 0.292613 c 0.259317,0 0.407148,0.277234 1.299091,2.436244 0.553563,1.339935 1.045774,2.460532 1.093804,2.490216 0.04803,0.02968 0.549085,-1.052226 1.113458,-2.404244 0.844199,-2.022375 1.074969,-2.465468 1.301583,-2.499118 l 0.275451,-0.0409 v 2.824903 c 0,2.407353 -0.02797,2.824902 -0.189236,2.824902 -0.159151,0 -0.194763,-0.388082 -0.224,-2.441039 l -0.03476,-2.44104 -1.018886,2.445247 C 28.923446,27.819927 28.563089,28.541572 28.434152,28.51621 28.33001,28.495725 27.799708,27.423836 27.213034,26.048 L 26.176,23.616 26.141236,26.08 c -0.02925,2.073219 -0.06478,2.464 -0.224,2.464 -0.161248,0 -0.189236,-0.416502 -0.189236,-2.816 z m 0.464828,-8.687156 c -2.08721,-2.08917 -2.525922,-2.58994 -2.457593,-2.805228 0.14733,-0.464198 -0.179074,-0.448796 -1.172998,0.05535 L 21.590213,14.784 h -1.355106 c -1.203332,0 -1.437337,-0.03854 -2.089288,-0.344086 C 17.20779,14.000292 16.207708,13.00021 15.768086,12.062181 15.462963,11.411135 15.424,11.175507 15.424,9.9813085 V 8.634617 L 15.844931,7.7795867 C 16.133847,7.1927136 16.502714,6.7102167 17.021076,6.2411249 17.577231,5.7378335 17.746459,5.5094211 17.663107,5.3745536 17.600854,5.2738267 17.528641,5.2185458 17.502634,5.2517069 17.476627,5.2848681 16.63834,6.2443686 15.639775,7.3839304 14.020577,9.2317558 13.836641,9.4885852 13.939228,9.7584091 14.207049,10.462828 13.663555,11.264 12.917876,11.264 c -0.19778,0 -0.518332,-0.136536 -0.712338,-0.303412 C 11.74492,10.564381 11.720455,9.8758746 12.150718,9.4178798 L 12.448637,9.1007603 11.646659,6.8543802 C 11.205571,5.618871 10.825783,4.608 10.802685,4.608 c -0.0231,0 -0.271174,0.4150239 -0.551279,0.9222752 L 9.7421233,6.4525504 10.315119,7.0651296 c 0.848167,0.9067589 1.119643,1.6072239 1.131252,2.9188704 0.0083,0.943421 -0.0379,1.184784 -0.348033,1.816331 -0.214717,0.437242 -0.640526,0.986853 -1.065412,1.375175 -2.1314226,1.948 -5.4154276,1.273361 -6.727695,-1.382082 C 3.0624056,11.302054 3.011631,10.990879 3.0099863,9.984 L 3.008,8.768 3.4475528,7.9572699 C 4.2399773,6.4956876 5.5380636,5.7148596 7.168,5.7193379 c 0.5473238,0.0015 1.1839136,0.087399 1.4808855,0.1998165 L 9.1697709,6.1163336 9.8328855,4.9099073 C 10.197598,4.2463729 10.496,3.5714383 10.496,3.4100527 10.496,2.8881184 9.6637437,2.304 8.9200878,2.304 8.465146,2.304 8.1073239,2.0325631 8.2525347,1.797607 8.3807802,1.5901015 11.160328,1.6239707 11.451091,1.8365819 11.764132,2.0654831 11.597813,2.304 11.125159,2.304 h -0.379733 l 0.195287,0.3776435 c 0.107408,0.207704 0.195287,0.466904 0.195287,0.576 C 11.136,3.431036 11.506514,3.456 14.08,3.456 h 2.944 V 2.8205036 c 0,-0.4972945 0.05384,-0.6643122 0.247585,-0.768 0.35701,-0.1910663 1.863714,-0.162973 2.359035,0.043985 0.915655,0.382585 1.286367,1.361441 0.871121,2.3001734 L 20.25577,4.9527227 21.031799,5.0970405 C 22.524093,5.3745617 23.778857,6.2253053 24.49264,7.4435286 24.865583,8.0800378 25.216,9.3107144 25.216,9.984 c 0,0.719331 -0.358292,1.913907 -0.779232,2.59802 -0.415204,0.674793 -0.353824,1.024005 0.156529,0.890544 0.211342,-0.05527 0.771104,0.437737 2.811293,2.476015 1.401075,1.399761 2.54741,2.586757 2.54741,2.637767 0,0.198629 -0.806076,0.997654 -1.00646,0.997654 -0.116567,0 -1.355287,-1.14442 -2.752712,-2.543156 z m 3.144168,2.071208 C 29.534449,18.922881 29.696,18.703667 29.696,18.624911 c 0,-0.07876 -1.122546,-1.256376 -2.494546,-2.616933 -1.969984,-1.953551 -2.530849,-2.443608 -2.66719,-2.330456 -0.132469,0.10994 -0.237758,0.07397 -0.452478,-0.15459 l -0.279835,-0.297871 0.454018,-0.753973 C 24.859223,11.469287 24.998871,10.8899 24.932557,9.664 24.863105,8.3801235 24.550964,7.652886 23.669169,6.720517 22.748187,5.7467151 21.878732,5.3427384 20.557855,5.2749021 19.399172,5.2153957 18.624,5.3617972 18.624,5.6401367 c 0,0.1133993 0.09811,0.1667677 0.256,0.1392553 0.1408,-0.024534 0.7456,-0.049001 1.344,-0.054371 1.314272,-0.011793 1.996943,0.249504 2.928567,1.1209289 1.236481,1.1565841 1.684512,3.0109044 1.121944,4.6435271 -0.308499,0.895292 -1.291078,1.961731 -2.234179,2.42486 -0.62389,0.306375 -0.88435,0.357663 -1.816332,0.357663 -0.931982,0 -1.192442,-0.05129 -1.816332,-0.357663 C 17.462822,13.450351 16.481336,12.384358 16.17504,11.489477 15.874712,10.612035 15.878822,9.3444196 16.184904,8.448 16.364074,7.9232643 16.626885,7.5422726 17.217006,6.9517836 17.70992,6.4585622 17.972826,6.1014738 17.913599,6.0056435 17.688837,5.6419713 16.412567,6.9332518 15.884942,8.0581592 15.596387,8.6733663 15.553224,8.9301133 15.561176,9.984 c 0.0071,0.943747 0.06839,1.344962 0.273667,1.792 0.646977,1.408968 1.724234,2.348433 3.163562,2.758907 1.362682,0.388616 2.801137,0.11675 4.195107,-0.792868 l 0.345511,-0.225459 0.264299,0.239186 c 0.174351,0.157785 0.237148,0.324724 0.184523,0.490532 -0.06381,0.201058 0.415748,0.747354 2.39696,2.730524 1.362203,1.363548 2.502935,2.479178 2.534959,2.479178 0.03203,0 0.21978,-0.154776 0.417232,-0.343948 z M 8.6718733,13.311489 C 10.314558,12.585934 11.192807,10.741532 10.701066,9.0500009 10.501071,8.3620442 9.821675,7.3040027 9.5151137,7.2030871 9.3277039,7.1413944 7.936,9.6002719 7.936,9.993082 c 0,0.643199 -0.7047802,0.971646 -1.1739212,0.54708 C 6.299312,10.121363 6.6118353,9.2168626 7.2198385,9.2153193 7.4283648,9.2147945 7.6380827,8.9325555 8.1628767,7.9461955 L 8.8377535,6.6777522 8.3548767,6.5132165 C 6.5677728,5.9042778 4.3818058,7.0080893 3.7786595,8.8239933 2.7795071,11.832159 5.7836264,14.587194 8.6718733,13.311489 Z m 12.7532757,-0.02815 c 0.335176,-0.09967 0.790738,-0.413999 1.252189,-0.863999 0.589391,-0.574766 0.766083,-0.848927 0.942734,-1.462778 C 24.164486,9.0647498 23.079931,7.137655 21.156058,6.5783697 20.434057,6.3684785 19.400794,6.4040068 19.157718,6.6470816 19.008412,6.796388 20.100566,9.2065702 20.32,9.2120237 c 0.251319,0.00625 0.672,0.4895137 0.672,0.7719763 0,0.1408 -0.1152,0.3712 -0.256,0.512 -0.329903,0.329903 -0.698839,0.325161 -1.037334,-0.01333 C 19.500204,10.284204 19.448762,10.116192 19.503168,9.8441609 19.557755,9.5712237 19.429699,9.157614 19.011924,8.2574941 18.701132,7.5878724 18.391245,7.04 18.323286,7.04 c -0.246184,0 -1.254652,1.2662753 -1.40312,1.7618156 -0.540423,1.8037714 0.27168,3.6332554 1.951465,4.3962124 0.608548,0.276401 1.77934,0.315516 2.553518,0.08531 z m -8.122612,-2.897656 c 0.166525,-0.311155 -0.107246,-0.703278 -0.445527,-0.6381309 -0.258265,0.049737 -0.383878,0.3791449 -0.263853,0.6919259 0.100929,0.263017 0.558394,0.228326 0.70938,-0.0538 z M 7.2533334,9.8986666 C 7.2064,9.8517334 7.168,9.8901334 7.168,9.984 c 0,0.093867 0.0384,0.132267 0.085333,0.085333 0.046933,-0.04693 0.046933,-0.123733 4e-7,-0.1706664 z M 20.352,9.984 c 0,-0.0704 -0.0576,-0.128 -0.128,-0.128 -0.0704,0 -0.128,0.0576 -0.128,0.128 0,0.0704 0.0576,0.128 0.128,0.128 0.0704,0 0.128,-0.0576 0.128,-0.128 z M 15.248314,6.8418381 C 16.330541,5.606449 17.216,4.497649 17.216,4.3778381 V 4.16 L 14.289368,4.125559 c -2.322578,-0.027332 -2.91404,-9.088e-4 -2.865631,0.128 0.03355,0.089342 0.428933,1.2131418 0.878631,2.4973322 0.449698,1.2841905 0.853773,2.3353905 0.897946,2.336 0.04417,6.144e-4 0.965771,-1.0096645 2.048,-2.2450531 z m 4.402122,-1.9927693 c 0.0013,-0.097865 0.103817,-0.3915786 0.227726,-0.6526975 0.20022,-0.4219338 0.205262,-0.5226926 0.04531,-0.9055157 C 19.700863,2.7580809 19.196303,2.5308067 18.354714,2.5842225 L 17.728,2.624 l 0.0057,0.64 c 0.0036,0.4083647 0.125775,0.9005477 0.337541,1.359884 l 0.331883,0.7198842 0.622459,-0.1583818 C 19.392904,5.091913 19.649,4.9540826 19.650437,4.8490688 Z M 2.2562761,7.7063352 C 2.1376321,7.5143653 2.6507313,6.591445 3.2371035,5.9421037 4.2766606,4.7909114 5.9575141,4.1244613 7.47086,4.2634404 8.9107209,4.3956709 9.6314047,4.7557953 9.2398156,5.1473844 9.140913,5.246287 8.8881183,5.2256506 8.350422,5.0747807 7.3652436,4.7983537 6.7317667,4.8088205 5.7414829,5.1178877 4.671573,5.4518062 3.7556077,6.1612422 3.2140444,7.0754465 2.8122857,7.7536492 2.4379223,8.000245 2.2562761,7.7063352 Z M 2.9824343,5.0355331 C 2.8164876,4.603083 4.3871729,3.6696488 5.76379,3.3826159 6.7396639,3.1791405 6.912,3.2096297 6.912,3.5857541 6.912,3.7669089 6.790359,3.8482176 6.432,3.9066016 5.5385998,4.0521546 4.682624,4.3737446 4.0227062,4.8117731 3.2837783,5.3022455 3.0999544,5.3417856 2.9824343,5.0355331 Z"
         id="path2009" />
      <path
         style="fill:#2d4268;stroke-width:0.128"
         d="m 5.504,30.10647 c 0,-0.05584 0.1872,-0.156642 0.416,-0.224 0.3116911,-0.09176 0.4878043,-0.267006 0.7023668,-0.698905 l 0.286367,-0.576434 -0.766367,-2.030226 C 5.7208652,25.460282 5.376,24.524476 5.376,24.49734 5.376,24.4702 5.456708,24.448 5.5553509,24.448 c 0.1135424,0 0.4023254,0.612109 0.787033,1.668209 0.3342251,0.917515 0.6525702,1.695951 0.7074336,1.729858 0.054863,0.03391 0.1401524,-0.06879 0.1895314,-0.228208 C 7.7449876,25.98538 8.3738556,24.448 8.5359853,24.448 c 0.1041414,0 0.1701481,0.04907 0.1466813,0.109048 C 8.6592,24.617024 8.2370674,25.775863 7.744594,27.132244 7.2521208,28.488626 6.7220712,29.735555 6.5667059,29.903196 6.2972964,30.193894 5.504,30.345636 5.504,30.10647 Z M 2.0716375,28.53851 C 1.0619652,28.315814 0.51895424,27.333825 0.51481114,25.723122 0.51254021,24.840259 0.56734392,24.520692 0.8,24.060155 1.1918954,23.284408 1.7797271,22.911869 2.610929,22.912479 3.5786742,22.913247 4.2778246,23.411898 4.5392975,24.288 4.6895811,24.791546 4.292255,24.619037 4.0530592,24.076888 3.6458373,23.1539 2.318402,22.884694 1.5709221,23.573508 1.0657309,24.039049 0.89572236,24.591076 0.89881114,25.755889 0.90354088,27.539528 1.4443478,28.288 2.7283816,28.288 3.411269,28.288 3.8855078,27.958304 4.11483,27.324124 4.2031585,27.079857 4.3502563,26.88 4.4417137,26.88 c 0.2280201,0 0.2088428,0.183309 -0.077532,0.7411 -0.3896309,0.758909 -1.3211278,1.131668 -2.2925442,0.91741 z m 8.4813095,-0.0033 c -1.3370026,-0.388571 -1.6706846,-2.891423 -0.507473,-3.806405 0.696348,-0.547747 1.637857,-0.485933 2.215171,0.145437 0.351221,0.384106 0.48426,0.853708 0.241857,0.853708 -0.102712,0 -0.222708,-0.143272 -0.266658,-0.318381 -0.157358,-0.626965 -1.180437,-0.945508 -1.863178,-0.580117 -0.8389228,0.448978 -0.8563962,2.874665 -0.02392,3.320195 0.477668,0.25564 1.280432,0.168758 1.625069,-0.17588 0.1728,-0.1728 0.314182,-0.3744 0.314182,-0.448 0,-0.0736 0.0864,-0.133817 0.192,-0.133817 0.515948,0 -0.269114,0.962256 -0.936227,1.147541 -0.531553,0.147634 -0.467156,0.147912 -0.990826,-0.0043 z M 16.832,28.480476 c -0.960703,-0.338287 -1.472833,-1.30497 -1.471286,-2.777157 0.0018,-1.699283 0.852322,-2.791319 2.174029,-2.791319 1.293882,0 2.055328,0.909565 2.151447,2.569951 0.09858,1.702904 -0.443822,2.732491 -1.610164,3.056416 -0.590793,0.164079 -0.617131,0.162854 -1.244026,-0.05789 z m 1.770412,-0.574692 c 0.565569,-0.496576 0.77767,-1.250831 0.698526,-2.484044 -0.09836,-1.532643 -0.808246,-2.344849 -1.929815,-2.207968 -1.054656,0.128715 -1.511465,0.777704 -1.600208,2.273422 -0.06264,1.055719 0.08068,1.681615 0.510051,2.227472 0.329849,0.419336 0.652541,0.554784 1.34658,0.56522 0.423296,0.0064 0.63334,-0.07424 0.974866,-0.374102 z m 3.38873,0.587177 c -0.726457,-0.195572 -0.984586,-0.395271 -1.210969,-0.93685 -0.215772,-0.51619 -0.21476,-0.548111 0.01739,-0.548111 0.104258,0 0.224331,0.138538 0.26683,0.307862 0.131451,0.523744 0.625185,0.87495 1.32449,0.942145 1.181501,0.113527 1.803118,-0.253322 1.803118,-1.064119 0,-0.5071 -0.419621,-0.998824 -0.970313,-1.137039 -0.799338,-0.200621 -1.719845,-0.621915 -2.024493,-0.926563 -0.393106,-0.393107 -0.449346,-1.099494 -0.124466,-1.563327 0.42906,-0.612568 1.660021,-0.840254 2.54458,-0.470662 0.639753,0.267306 1.254828,1.351703 0.766692,1.351703 -0.1056,0 -0.192,-0.08549 -0.192,-0.18998 0,-0.10449 -0.168196,-0.37809 -0.37377,-0.608 L 23.444462,23.232 22.671868,23.2364 c -0.634834,0.0036 -0.830657,0.05894 -1.09823,0.310312 -0.319867,0.300499 -0.415574,0.773985 -0.245851,1.216279 0.09758,0.254293 0.761511,0.596428 1.752085,0.90288 1.017037,0.314641 1.496129,0.778216 1.496129,1.44767 0,0.737455 -0.458176,1.242259 -1.289294,1.420502 -0.353819,0.07588 -0.654871,0.134077 -0.669006,0.129326 -0.01413,-0.0047 -0.296086,-0.08143 -0.626558,-0.1704 z M 13.824,25.6 c 0,-1.877334 0.04638,-2.944 0.128,-2.944 0.08162,0 0.128,1.066666 0.128,2.944 0,1.877334 -0.04638,2.944 -0.128,2.944 -0.08162,0 -0.128,-1.066666 -0.128,-2.944 z m 11.904,0.128 v -2.816 l 0.288,0.0023 c 0.253251,0.002 0.411556,0.303091 1.312,2.495227 0.5632,1.371112 1.059064,2.493279 1.10192,2.493704 0.04286,3.84e-4 0.542772,-1.108027 1.110927,-2.463227 0.828579,-1.976382 1.085465,-2.472095 1.29808,-2.504903 l 0.265073,-0.0409 v 2.824903 c 0,2.531865 -0.02176,2.824902 -0.209737,2.824902 h -0.209737 l 0.06256,-2.491703 c 0.03441,-1.370437 0.02352,-2.467575 -0.0242,-2.438085 -0.04772,0.02949 -0.543089,1.151392 -1.100826,2.493113 -0.662187,1.592992 -1.073314,2.427901 -1.184809,2.406084 -0.09391,-0.01837 -0.641107,-1.148969 -1.216,-2.51243 L 26.176,23.521958 26.14129,26.032979 c -0.02923,2.115088 -0.06455,2.511021 -0.224,2.511021 -0.161322,0 -0.189294,-0.416113 -0.189294,-2.816 z m 0.473155,-8.678821 c -1.910818,-1.912612 -2.511834,-2.588531 -2.448479,-2.753631 0.04618,-0.120344 0.01754,-0.298841 -0.06364,-0.396659 -0.123176,-0.148417 -0.264133,-0.107679 -0.851753,0.246167 -0.921934,0.55516 -1.771369,0.747955 -2.97764,0.675834 -1.751152,-0.104701 -3.279725,-1.137452 -4.071475,-2.750817 L 15.424,11.328 V 9.9813085 8.634617 L 15.843913,7.7816516 C 16.247963,6.9609108 17.36373,5.7544522 17.709843,5.764055 17.79023,5.7662853 17.6832,5.8956356 17.472,6.0515002 16.82434,6.52947 16.26647,7.1986527 15.90097,7.936 15.587866,8.5676466 15.552,8.7781292 15.552,9.984 v 1.344 l 0.433976,0.800268 c 0.528116,0.973863 1.326821,1.733934 2.295605,2.184558 1.44438,0.671846 3.517765,0.48133 4.717084,-0.433435 l 0.443898,-0.338577 0.30912,0.290404 c 0.20683,0.194305 0.269081,0.338647 0.188125,0.436194 -0.08355,0.100674 0.668471,0.934517 2.430097,2.694491 l 2.551092,2.548701 0.387502,-0.371249 C 29.521624,18.935167 29.696,18.706327 29.696,18.630821 c 0,-0.07551 -1.1088,-1.244281 -2.464,-2.597279 -1.961274,-1.958085 -2.517258,-2.445897 -2.725033,-2.390891 -0.159997,0.04235 -0.342021,-0.02065 -0.470272,-0.162774 L 23.827457,13.248 24.26379,12.544 c 0.239983,-0.3872 0.532844,-1.096697 0.650801,-1.576659 0.184089,-0.749052 0.19218,-0.9936209 0.05712,-1.7266338 C 24.655763,7.526012 23.732374,6.3265505 22.162868,5.5920905 21.433453,5.2507557 21.17796,5.1975671 20.291076,5.20242 c -1.144794,0.00626 -1.9276,0.2493075 -1.743401,0.5412865 0.09106,0.1443485 0.259622,0.1497985 0.944468,0.030538 1.418821,-0.247077 2.705972,0.1611337 3.726751,1.1819131 0.813225,0.8132254 1.153916,1.6137752 1.206853,2.8358427 0.08031,1.8541047 -0.733188,3.2476897 -2.364688,4.0508747 -2.042471,1.005505 -4.50538,0.200141 -5.614787,-1.83602 C 16.140616,11.445867 16.067631,11.139095 16.025919,10.24 15.955931,8.7314291 16.276539,7.8868538 17.30005,6.8835575 L 18.047251,6.151115 17.830781,5.6971724 C 17.711722,5.4475039 17.572224,5.258703 17.520786,5.2776148 17.469347,5.2965267 16.621413,6.2336 15.636488,7.36 l -1.790773,2.048 0.0697,0.597261 c 0.06087,0.521626 0.02782,0.639144 -0.261039,0.928 -0.432423,0.432423 -1.013628,0.439123 -1.436194,0.01656 -0.409424,-0.409424 -0.42855,-1.1475798 -0.04044,-1.5607056 L 12.451488,9.0977253 12.052782,7.9559507 C 11.14065,5.3438725 10.850285,4.6112566 10.751374,4.6723866 10.69397,4.7078644 10.438169,5.1168174 10.182929,5.5811709 L 9.7188548,6.42545 10.246895,6.9983063 C 11.484696,8.3411616 11.810362,10.15593 11.092783,11.712 9.9514185,14.187048 7.0856445,15.031227 4.8631284,13.547087 2.1668072,11.746553 2.4122564,7.5477418 5.2954203,6.1520261 6.4066097,5.6141085 7.9751524,5.557429 8.8464074,6.0237106 8.9913423,6.1012774 9.1332421,6.1414246 9.1617402,6.1129266 9.1902382,6.0844285 9.5270132,5.4938193 9.910129,4.8004617 L 10.606703,3.5398115 10.451282,3.1589174 C 10.262758,2.6968959 9.5753833,2.304 8.9555971,2.304 8.4532467,2.304 8.1750266,2.1131697 8.2796972,1.8404026 8.3316689,1.7049664 8.6786232,1.6644552 9.7736946,1.6659601 10.558163,1.6670353 11.280393,1.7188248 11.378652,1.7810417 11.648366,1.9518234 11.444562,2.304 11.076017,2.304 c -0.369082,0 -0.394615,0.087898 -0.127946,0.4404646 0.103361,0.1366555 0.187929,0.3526555 0.187929,0.48 V 3.456 h 2.944 2.944 l 0.002,-0.544 c 0.003,-0.8396264 0.106545,-0.9201715 1.240634,-0.9653032 0.768722,-0.030592 1.099126,0.013156 1.441052,0.1908054 0.879024,0.4566998 1.219945,1.7193459 0.666391,2.4680667 l -0.268871,0.3636691 0.667417,0.090546 c 1.120946,0.1520744 1.965119,0.5428607 2.757592,1.2765518 1.760816,1.6302048 2.127007,3.9328722 0.96463,6.0657472 -0.46287,0.849331 -0.445611,1.090416 0.07862,1.098223 0.144993,0.0022 1.286973,1.004695 2.749294,2.413585 1.846821,1.77934 2.501285,2.488055 2.501285,2.708622 0,0.301031 -0.645024,0.961487 -0.939021,0.961487 -0.08326,0 -1.29098,-1.140669 -2.683824,-2.534821 z M 8.7900869,13.301308 C 9.0916314,13.155333 9.5982514,12.746825 9.9159091,12.393513 11.178006,10.989758 11.181834,8.9742947 9.9250394,7.5861216 L 9.402098,7.0085146 8.6690491,8.3473883 C 8.2658721,9.0837688 7.936,9.8363869 7.936,10.019873 7.936,10.36081 7.5329083,10.752 7.181598,10.752 6.8786694,10.752 6.528,10.351884 6.528,10.00624 6.528,9.6013774 6.8674556,9.216 7.224075,9.216 7.4355018,9.216 7.6387776,8.9549098 8.1322367,8.0495447 8.4819064,7.4079944 8.7845709,6.8398816 8.8048242,6.787072 8.8828406,6.5836481 7.962686,6.3365138 7.168,6.347455 5.7159848,6.3674461 4.621734,7.0521994 3.9756389,8.3451501 2.700038,10.897853 4.6802264,13.886159 7.480912,13.634964 7.8994136,13.597428 8.4885423,13.447283 8.7900869,13.301308 Z m 12.6723911,-0.0074 c 1.543658,-0.46884 2.662446,-2.557312 2.229583,-4.1620254 -0.341411,-1.265688 -1.615363,-2.4629772 -2.841012,-2.6700492 -0.64101,-0.108298 -1.77883,0.043986 -1.77975,0.2381993 -3.84e-4,0.081394 0.241813,0.6775055 0.538218,1.3246927 0.409212,0.8934955 0.610674,1.1947135 0.837055,1.2515313 0.696983,0.1749318 0.66073,1.2496963 -0.04816,1.4276153 C 19.942495,10.818277 19.395729,10.241565 19.513869,9.7708549 19.566002,9.5631396 19.418566,9.088778 19.052012,8.2848686 18.755872,7.635392 18.472182,7.05504 18.421588,6.9952 18.274926,6.8217335 17.279172,7.9053308 16.995094,8.5475368 c -0.354706,0.8018694 -0.346619,1.9610542 0.01946,2.7898332 0.767186,1.736846 2.566002,2.528096 4.447922,1.956517 z M 13.294787,10.403305 C 13.457783,10.112045 13.250249,9.728 12.929857,9.728 c -0.323425,0 -0.529409,0.37177 -0.3705,0.668695 0.155134,0.289871 0.574797,0.293643 0.73543,0.0066 z M 7.2533334,9.8986666 C 7.2064,9.8517334 7.168,9.8901334 7.168,9.984 c 0,0.093867 0.0384,0.132267 0.085333,0.085333 0.046933,-0.04693 0.046933,-0.123733 4e-7,-0.1706664 z M 20.352,9.984 c 0,-0.0704 -0.0576,-0.128 -0.128,-0.128 -0.0704,0 -0.128,0.0576 -0.128,0.128 0,0.0704 0.0576,0.128 0.128,0.128 0.0704,0 0.128,-0.0576 0.128,-0.128 z M 15.289797,6.8244753 c 1.119456,-1.2670139 1.982948,-2.3517835 1.961376,-2.464 -0.0334,-0.1737776 -0.428057,-0.2050618 -2.963485,-0.2349159 -2.319655,-0.027313 -2.913112,-8.192e-4 -2.867747,0.128 0.03146,0.089342 0.425634,1.2136406 0.875937,2.4984406 0.450303,1.2848 0.85817,2.336 0.90637,2.336 0.0482,0 0.987596,-1.0185861 2.087549,-2.2635247 z M 19.136,5.1639597 C 19.808108,5.0482445 19.898387,4.9991873 19.73673,4.8375301 19.627293,4.7280934 19.6566,4.5847478 19.853567,4.2660479 20.180399,3.7372218 20.089592,3.186225 19.613946,2.8120808 19.344059,2.5997883 19.129882,2.5562726 18.503772,2.5865211 L 17.728,2.624 l 0.0122,0.64 c 0.01682,0.8822132 0.515464,2.1581795 0.800319,2.0479252 0.116312,-0.045019 0.384278,-0.1116037 0.595478,-0.1479655 z M 2.304,7.5098616 C 2.304,7.0750703 3.1695101,5.9065545 3.9061202,5.3468566 4.9203597,4.5762075 5.7559002,4.3048125 7.104,4.3081417 8.2133519,4.3108809 9.2174461,4.5402429 9.3027148,4.8103864 9.3231328,4.8750739 9.293308,5.001404 9.2364367,5.0911201 9.1536453,5.2217266 8.9691316,5.2122502 8.31074,5.0435782 6.2007709,4.5030292 3.8664941,5.5292649 2.969017,7.392 2.7293455,7.8894438 2.304,7.9648283 2.304,7.5098616 Z M 2.9855069,5.0435404 C 2.753355,4.438562 6.1311418,2.9245115 6.7961108,3.3354849 7.0744721,3.5075217 6.8055201,3.8245219 6.3107273,3.9075816 5.4285687,4.0556675 4.6767251,4.3465167 4.0026796,4.8004454 3.259126,5.3011836 3.0990541,5.3394394 2.9855069,5.0435404 Z"
         id="path2007" />
    </g>
  </g>
</svg>
