<?xml version="1.0" encoding="UTF-8" standalone="no"?>
<svg
   version="1.1"
   id="tdwg-logo-short"
   x="0px"
   y="0px"
   viewBox="0 0 172.19999 86.678777"
   xml:space="preserve"
   sodipodi:docname="Darwin Core.svg"
   width="172.2"
   height="86.67878"
   inkscape:version="1.2.2 (b0a84865, 2022-12-01)"
   xmlns:inkscape="http://www.inkscape.org/namespaces/inkscape"
   xmlns:sodipodi="http://sodipodi.sourceforge.net/DTD/sodipodi-0.dtd"
   xmlns="http://www.w3.org/2000/svg"
   xmlns:svg="http://www.w3.org/2000/svg"><defs
     id="defs361" /><sodipodi:namedview
     id="namedview359"
     pagecolor="#ffffff"
     bordercolor="#666666"
     borderopacity="1.0"
     inkscape:showpageshadow="2"
     inkscape:pageopacity="0.0"
     inkscape:pagecheckerboard="0"
     inkscape:deskcolor="#d1d1d1"
     showgrid="false"
     inkscape:zoom="4.1476273"
     inkscape:cx="82.697884"
     inkscape:cy="54.368434"
     inkscape:window-width="1246"
     inkscape:window-height="769"
     inkscape:window-x="271"
     inkscape:window-y="139"
     inkscape:window-maximized="0"
     inkscape:current-layer="tdwg-logo-short" /><g
     fill="#ffffff"
     id="g356"
     style="fill:#043b58;fill-opacity:1"><g
       id="g6"
       style="fill:#043b58;fill-opacity:1"><path
         d="m 110.5,26.4 c -0.4,-0.1 -0.8,-0.2 -1.7,-0.2 h -3.3 v 7.3 h 3.2 c 0.2,0 1.1,0 1.8,-0.2 1,-0.4 1.9,-1.3 1.9,-3.6 0,-0.3 0,-2 -1,-2.9 -0.2,-0.1 -0.5,-0.3 -0.9,-0.4 z"
         id="path2"
         style="fill:#043b58;fill-opacity:1" /><path
         d="M 162,19.5 H 82 c -5.6,0 -10.2,4.5 -10.2,10.2 0,5.7 4.6,10.1 10.2,10.1 h 80 c 5.6,0 10.2,-4.5 10.2,-10.2 0,-5.7 -4.6,-10.1 -10.2,-10.1 z m -65.6,6.7 h -4.2 v 9.3 h -2.9 v -9.3 h -4.2 v -2.1 h 11.3 z m 17.1,7.8 c -0.3,0.3 -1,0.9 -2.1,1.2 -0.7,0.2 -1.3,0.3 -2.8,0.3 h -5.9 V 24.1 h 6.2 c 1.4,0 2.6,0.1 3.8,0.9 0.2,0.1 0.5,0.3 0.9,0.7 1,1 1.4,2.6 1.4,4 0.2,2.4 -0.8,3.7 -1.5,4.3 z m 21.3,1.5 H 132 l -2.8,-8.3 -2.7,8.3 h -2.8 l -3,-11.4 h 2.8 l 1.7,7.8 2.6,-7.8 h 3 l 2.6,7.8 1.7,-7.8 h 2.7 z m 11.8,-4.1 c 0.9,2.3 3.4,2.4 4,2.4 1.2,0 2.7,-0.4 3.6,-1.4 0.4,-0.4 0.5,-0.7 0.5,-0.9 H 151 v -2 h 6.1 v 6.1 h -2.2 v -1.3 c -0.1,0.1 -0.3,0.2 -0.4,0.4 -0.5,0.4 -1.5,1 -3,1.2 -0.4,0.1 -0.9,0.1 -1.3,0.1 -2.4,0 -3.8,-0.6 -4.6,-1.3 -0.7,-0.5 -1.7,-1.4 -2.1,-3.3 0,-0.2 -0.2,-0.8 -0.2,-1.5 0,-2.1 1,-3.5 1.5,-4 0.3,-0.3 0.7,-0.6 1.1,-0.9 1.4,-0.9 3,-1.1 4.6,-1.1 0.8,0 3.8,0 5.7,2.1 0.3,0.4 0.5,0.7 0.8,1.1 l -3.1,0.4 c -0.1,-0.1 -0.3,-0.4 -0.6,-0.7 -0.8,-0.6 -1.8,-0.9 -2.8,-0.9 -1.4,0 -2.8,0.5 -3.6,1.7 -0.2,0.4 -0.6,1.1 -0.6,2.2 0,0.3 0,0.9 0.3,1.6 z"
         id="path4"
         style="fill:#043b58;fill-opacity:1" /></g><g
       id="g354"
       style="fill:#043b58;fill-opacity:1"><g
         id="g276"
         style="fill:#043b58;fill-opacity:1"><g
           id="g10"
           style="fill:#043b58;fill-opacity:1"><ellipse
             cx="17.9"
             cy="28.200001"
             rx="2.0999999"
             ry="2"
             id="ellipse8"
             style="fill:#043b58;fill-opacity:1" /></g><g
           id="g14"
           style="fill:#043b58;fill-opacity:1"><ellipse
             cx="24.9"
             cy="2.3"
             rx="2.0999999"
             ry="2"
             id="ellipse12"
             style="fill:#043b58;fill-opacity:1" /></g><g
           id="g18"
           style="fill:#043b58;fill-opacity:1"><circle
             cx="15.7"
             cy="8.5"
             id="ellipse16"
             style="fill:#043b58;fill-opacity:1"
             r="1.7" /></g><g
           id="g22"
           style="fill:#043b58;fill-opacity:1"><circle
             cx="15.5"
             cy="14.3"
             id="ellipse20"
             style="fill:#043b58;fill-opacity:1"
             r="2.9000001" /></g><g
           id="g26"
           style="fill:#043b58;fill-opacity:1"><circle
             cx="9.8000002"
             cy="19.4"
             id="ellipse24"
             style="fill:#043b58;fill-opacity:1"
             r="1.9" /></g><g
           id="g30"
           style="fill:#043b58;fill-opacity:1"><ellipse
             cx="7"
             cy="24.6"
             rx="3.2"
             ry="3.0999999"
             id="ellipse28"
             style="fill:#043b58;fill-opacity:1" /></g><g
           id="g34"
           style="fill:#043b58;fill-opacity:1"><circle
             cx="8.6000004"
             cy="32.700001"
             id="ellipse32"
             style="fill:#043b58;fill-opacity:1"
             r="1.9" /></g><g
           id="g38"
           style="fill:#043b58;fill-opacity:1"><circle
             cx="9.1999998"
             cy="38.400002"
             id="ellipse36"
             style="fill:#043b58;fill-opacity:1"
             r="2.9000001" /></g><g
           id="g42"
           style="fill:#043b58;fill-opacity:1"><circle
             cx="14.1"
             cy="42.299999"
             id="ellipse40"
             style="fill:#043b58;fill-opacity:1"
             r="1.4" /></g><g
           id="g46"
           style="fill:#043b58;fill-opacity:1"><circle
             cx="19.5"
             cy="23.5"
             id="ellipse44"
             style="fill:#043b58;fill-opacity:1"
             r="1.4" /></g><g
           id="g50"
           style="fill:#043b58;fill-opacity:1"><ellipse
             cx="16.9"
             cy="34"
             rx="1.7"
             ry="1.6"
             id="ellipse48"
             style="fill:#043b58;fill-opacity:1" /></g><g
           id="g54"
           style="fill:#043b58;fill-opacity:1"><circle
             cx="1"
             cy="28"
             id="ellipse52"
             style="fill:#043b58;fill-opacity:1"
             r="1" /></g><g
           id="g58"
           style="fill:#043b58;fill-opacity:1"><circle
             cx="2.9000001"
             cy="36.799999"
             id="ellipse56"
             style="fill:#043b58;fill-opacity:1"
             r="1.4" /></g><g
           id="g62"
           style="fill:#043b58;fill-opacity:1"><ellipse
             cx="13"
             cy="27.700001"
             rx="1.4"
             ry="1.3"
             id="ellipse60"
             style="fill:#043b58;fill-opacity:1" /></g><g
           id="g66"
           style="fill:#043b58;fill-opacity:1"><circle
             cx="13.6"
             cy="18.9"
             id="ellipse64"
             style="fill:#043b58;fill-opacity:1"
             r="1.2" /></g><g
           id="g70"
           style="fill:#043b58;fill-opacity:1"><circle
             cx="17.6"
             cy="42.900002"
             id="ellipse68"
             style="fill:#043b58;fill-opacity:1"
             r="1.4" /></g><g
           id="g74"
           style="fill:#043b58;fill-opacity:1"><circle
             cx="24.299999"
             cy="46.700001"
             id="ellipse72"
             style="fill:#043b58;fill-opacity:1"
             r="2.5999999" /></g><g
           id="g78"
           style="fill:#043b58;fill-opacity:1"><circle
             cx="21.1"
             cy="36.299999"
             id="ellipse76"
             style="fill:#043b58;fill-opacity:1"
             r="1.5" /></g><g
           id="g82"
           style="fill:#043b58;fill-opacity:1"><circle
             cx="25.299999"
             cy="34.599998"
             id="ellipse80"
             style="fill:#043b58;fill-opacity:1"
             r="1.5" /></g><g
           id="g86"
           style="fill:#043b58;fill-opacity:1"><circle
             cx="25.200001"
             cy="7.3000002"
             id="ellipse84"
             style="fill:#043b58;fill-opacity:1"
             r="1.8" /></g><g
           id="g90"
           style="fill:#043b58;fill-opacity:1"><circle
             cx="21.5"
             cy="13.1"
             id="ellipse88"
             style="fill:#043b58;fill-opacity:1"
             r="2.4000001" /></g><g
           id="g94"
           style="fill:#043b58;fill-opacity:1"><ellipse
             cx="20.4"
             cy="7.5999999"
             rx="2.4000001"
             ry="2.3"
             id="ellipse92"
             style="fill:#043b58;fill-opacity:1" /></g><g
           id="g98"
           style="fill:#043b58;fill-opacity:1"><circle
             cx="10.6"
             cy="9.8999996"
             id="ellipse96"
             style="fill:#043b58;fill-opacity:1"
             r="2.8" /></g><g
           id="g102"
           style="fill:#043b58;fill-opacity:1"><circle
             cx="10.6"
             cy="15.9"
             id="ellipse100"
             style="fill:#043b58;fill-opacity:1"
             r="1.3" /></g><g
           id="g106"
           style="fill:#043b58;fill-opacity:1"><circle
             cx="3.5"
             cy="20"
             id="ellipse104"
             style="fill:#043b58;fill-opacity:1"
             r="1.9" /></g><g
           id="g110"
           style="fill:#043b58;fill-opacity:1"><ellipse
             cx="1.8"
             cy="24.6"
             rx="1.7"
             ry="1.6"
             id="ellipse108"
             style="fill:#043b58;fill-opacity:1" /></g><g
           id="g114"
           style="fill:#043b58;fill-opacity:1"><circle
             cx="3.3"
             cy="31.6"
             id="ellipse112"
             style="fill:#043b58;fill-opacity:1"
             r="2.7" /></g><g
           id="g118"
           style="fill:#043b58;fill-opacity:1"><circle
             cx="4.4000001"
             cy="40.799999"
             id="ellipse116"
             style="fill:#043b58;fill-opacity:1"
             r="1.6" /></g><g
           id="g122"
           style="fill:#043b58;fill-opacity:1"><circle
             cx="8.6000004"
             cy="46"
             id="ellipse120"
             style="fill:#043b58;fill-opacity:1"
             r="1.8" /></g><g
           id="g126"
           style="fill:#043b58;fill-opacity:1"><circle
             cx="15.1"
             cy="47.599998"
             id="ellipse124"
             style="fill:#043b58;fill-opacity:1"
             r="3.0999999" /></g><g
           id="g130"
           style="fill:#043b58;fill-opacity:1"><circle
             cx="18"
             cy="53.099998"
             id="ellipse128"
             style="fill:#043b58;fill-opacity:1"
             r="2" /></g><g
           id="g134"
           style="fill:#043b58;fill-opacity:1"><ellipse
             cx="23.9"
             cy="53.299999"
             rx="3.0999999"
             ry="3"
             id="ellipse132"
             style="fill:#043b58;fill-opacity:1" /></g><g
           id="g138"
           style="fill:#043b58;fill-opacity:1"><circle
             cx="6.3000002"
             cy="14"
             id="ellipse136"
             style="fill:#043b58;fill-opacity:1"
             r="1.9" /></g><g
           id="g142"
           style="fill:#043b58;fill-opacity:1"><circle
             cx="25.4"
             cy="18"
             id="ellipse140"
             style="fill:#043b58;fill-opacity:1"
             r="1.8" /></g><g
           id="g146"
           style="fill:#043b58;fill-opacity:1"><circle
             cx="12.7"
             cy="23.1"
             id="ellipse144"
             style="fill:#043b58;fill-opacity:1"
             r="2.0999999" /></g><g
           id="g150"
           style="fill:#043b58;fill-opacity:1"><circle
             cx="23.1"
             cy="21.299999"
             id="ellipse148"
             style="fill:#043b58;fill-opacity:1"
             r="1.7" /></g><g
           id="g154"
           style="fill:#043b58;fill-opacity:1"><circle
             cx="21.200001"
             cy="17.5"
             id="ellipse152"
             style="fill:#043b58;fill-opacity:1"
             r="1.3" /></g><g
           id="g158"
           style="fill:#043b58;fill-opacity:1"><circle
             cx="22.799999"
             cy="28.6"
             id="ellipse156"
             style="fill:#043b58;fill-opacity:1"
             r="1.2" /></g><g
           id="g162"
           style="fill:#043b58;fill-opacity:1"><circle
             cx="26.299999"
             cy="22.799999"
             id="ellipse160"
             style="fill:#043b58;fill-opacity:1"
             r="0.89999998" /></g><g
           id="g166"
           style="fill:#043b58;fill-opacity:1"><circle
             cx="26.200001"
             cy="29.1"
             id="ellipse164"
             style="fill:#043b58;fill-opacity:1"
             r="0.89999998" /></g><g
           id="g170"
           style="fill:#043b58;fill-opacity:1"><circle
             cx="25.799999"
             cy="14.6"
             id="ellipse168"
             style="fill:#043b58;fill-opacity:1"
             r="0.89999998" /></g><g
           id="g174"
           style="fill:#043b58;fill-opacity:1"><circle
             cx="25.9"
             cy="11.4"
             id="ellipse172"
             style="fill:#043b58;fill-opacity:1"
             r="1.2" /></g><g
           id="g178"
           style="fill:#043b58;fill-opacity:1"><circle
             cx="25.799999"
             cy="41.799999"
             id="ellipse176"
             style="fill:#043b58;fill-opacity:1"
             r="0.89999998" /></g><g
           id="g182"
           style="fill:#043b58;fill-opacity:1"><circle
             cx="12.4"
             cy="35.400002"
             id="ellipse180"
             style="fill:#043b58;fill-opacity:1"
             r="0.89999998" /></g><g
           id="g186"
           style="fill:#043b58;fill-opacity:1"><circle
             cx="7"
             cy="29.4"
             id="ellipse184"
             style="fill:#043b58;fill-opacity:1"
             r="0.89999998" /></g><g
           id="g190"
           style="fill:#043b58;fill-opacity:1"><circle
             cx="10.5"
             cy="49.200001"
             id="ellipse188"
             style="fill:#043b58;fill-opacity:1"
             r="1.2" /></g><g
           id="g194"
           style="fill:#043b58;fill-opacity:1"><circle
             cx="6.6999998"
             cy="43.5"
             id="ellipse192"
             style="fill:#043b58;fill-opacity:1"
             r="0.89999998" /></g><g
           id="g198"
           style="fill:#043b58;fill-opacity:1"><circle
             cx="20.200001"
             cy="49.299999"
             id="ellipse196"
             style="fill:#043b58;fill-opacity:1"
             r="1.3" /></g><g
           id="g202"
           style="fill:#043b58;fill-opacity:1"><circle
             cx="16.5"
             cy="3.9000001"
             id="ellipse200"
             style="fill:#043b58;fill-opacity:1"
             r="1.3" /></g><g
           id="g206"
           style="fill:#043b58;fill-opacity:1"><circle
             cx="17.200001"
             cy="19.5"
             id="ellipse204"
             style="fill:#043b58;fill-opacity:1"
             r="1.7" /></g><g
           id="g210"
           style="fill:#043b58;fill-opacity:1"><circle
             cx="16.4"
             cy="24.299999"
             id="ellipse208"
             style="fill:#043b58;fill-opacity:1"
             r="1" /></g><g
           id="g214"
           style="fill:#043b58;fill-opacity:1"><circle
             cx="13.6"
             cy="5.3000002"
             id="ellipse212"
             style="fill:#043b58;fill-opacity:1"
             r="1" /></g><g
           id="g218"
           style="fill:#043b58;fill-opacity:1"><circle
             cx="6.5999999"
             cy="17.6"
             id="ellipse216"
             style="fill:#043b58;fill-opacity:1"
             r="1.2" /></g><g
           id="g222"
           style="fill:#043b58;fill-opacity:1"><circle
             cx="9.8999996"
             cy="28.6"
             id="ellipse220"
             style="fill:#043b58;fill-opacity:1"
             r="1" /></g><g
           id="g226"
           style="fill:#043b58;fill-opacity:1"><circle
             cx="13.3"
             cy="31.700001"
             id="ellipse224"
             style="fill:#043b58;fill-opacity:1"
             r="1.9" /></g><g
           id="g230"
           style="fill:#043b58;fill-opacity:1"><circle
             cx="20.700001"
             cy="31.9"
             id="ellipse228"
             style="fill:#043b58;fill-opacity:1"
             r="1.8" /></g><g
           id="g234"
           style="fill:#043b58;fill-opacity:1"><circle
             cx="15.1"
             cy="38.200001"
             id="ellipse232"
             style="fill:#043b58;fill-opacity:1"
             r="2.0999999" /></g><g
           id="g238"
           style="fill:#043b58;fill-opacity:1"><circle
             cx="18.799999"
             cy="39.200001"
             id="ellipse236"
             style="fill:#043b58;fill-opacity:1"
             r="0.89999998" /></g><g
           id="g242"
           style="fill:#043b58;fill-opacity:1"><circle
             cx="19.6"
             cy="45.700001"
             id="ellipse240"
             style="fill:#043b58;fill-opacity:1"
             r="0.89999998" /></g><g
           id="g246"
           style="fill:#043b58;fill-opacity:1"><circle
             cx="10.7"
             cy="43.5"
             id="ellipse244"
             style="fill:#043b58;fill-opacity:1"
             r="0.89999998" /></g><g
           id="g250"
           style="fill:#043b58;fill-opacity:1"><circle
             cx="5.8000002"
             cy="35.400002"
             id="ellipse248"
             style="fill:#043b58;fill-opacity:1"
             r="0.89999998" /></g><g
           id="g254"
           style="fill:#043b58;fill-opacity:1"><circle
             cx="22"
             cy="41.599998"
             id="ellipse252"
             style="fill:#043b58;fill-opacity:1"
             r="2.0999999" /></g><g
           id="g258"
           style="fill:#043b58;fill-opacity:1"><circle
             cx="25.299999"
             cy="38.299999"
             id="ellipse256"
             style="fill:#043b58;fill-opacity:1"
             r="1.7" /></g><g
           id="g262"
           style="fill:#043b58;fill-opacity:1"><circle
             cx="26"
             cy="25.9"
             id="ellipse260"
             style="fill:#043b58;fill-opacity:1"
             r="1" /></g><g
           id="g266"
           style="fill:#043b58;fill-opacity:1"><circle
             cx="24.799999"
             cy="31.5"
             id="ellipse264"
             style="fill:#043b58;fill-opacity:1"
             r="1" /></g><g
           id="g270"
           style="fill:#043b58;fill-opacity:1"><circle
             cx="22.799999"
             cy="25.299999"
             id="ellipse268"
             style="fill:#043b58;fill-opacity:1"
             r="1.4" /></g><g
           id="g274"
           style="fill:#043b58;fill-opacity:1"><circle
             cx="19.9"
             cy="2.5999999"
             id="ellipse272"
             style="fill:#043b58;fill-opacity:1"
             r="1.4" /></g></g><path
         d="m 29.3,56.9 v 0 c -0.4,0 -0.8,-0.4 -0.8,-0.8 V 0.8 C 28.5,0.4 28.9,0 29.3,0 v 0 c 0.4,0 0.8,0.4 0.8,0.8 v 55.3 c 0.1,0.5 -0.3,0.8 -0.8,0.8 z"
         id="path278"
         style="fill:#043b58;fill-opacity:1" /><g
         id="g352"
         style="fill:#043b58;fill-opacity:1"><g
           id="g316"
           style="fill:#043b58;fill-opacity:1"><path
             d="m 31.4,53.1 c -0.1,-1.8 1.1,-3.4 2.9,-3.5 v 0 c 1.7,-0.1 3.2,1.2 3.4,3 v 0 c 0.1,1.8 -1.1,3.4 -2.9,3.5 v 0 c -0.1,0 -0.2,0 -0.3,0 v 0 c -1.6,0 -3,-1.3 -3.1,-3 z"
             id="path280"
             style="fill:#043b58;fill-opacity:1" /><path
             d="m 39.2,52 c -0.7,-1.6 0,-3.6 1.6,-4.3 v 0 c 1.6,-0.7 3.4,0 4.1,1.7 v 0 c 0.7,1.6 0,3.6 -1.6,4.3 v 0 0 0 C 42.9,53.9 42.5,54 42,54 v 0 c -1.2,-0.1 -2.3,-0.8 -2.8,-2 z"
             id="path282"
             style="fill:#043b58;fill-opacity:1" /><path
             d="M 45.8,48.4 C 44.6,47.1 44.7,45 46,43.8 v 0 c 1.3,-1.2 3.3,-1.1 4.4,0.2 v 0 c 1.2,1.3 1.1,3.4 -0.2,4.6 v 0 c -0.6,0.6 -1.4,0.9 -2.1,0.9 v 0 c -0.8,-0.1 -1.6,-0.4 -2.3,-1.1 z"
             id="path284"
             style="fill:#043b58;fill-opacity:1" /><path
             d="M 51.1,43 C 49.6,42.1 49,40.2 49.8,38.6 v 0 c 0.8,-1.6 2.7,-2.1 4.3,-1.3 v 0 c 1.5,0.9 2.1,2.8 1.3,4.4 v 0 0 0 c -0.6,1.1 -1.7,1.7 -2.8,1.7 v 0 c -0.5,0 -1,-0.1 -1.5,-0.4 z"
             id="path286"
             style="fill:#043b58;fill-opacity:1" /><path
             d="m 54.5,35.7 c -1.7,-0.3 -2.9,-2 -2.6,-3.7 v 0 c 0,0 0,-0.1 0,-0.1 v 0 c 0.3,-1.8 1.9,-3 3.6,-2.7 v 0 c 1.7,0.3 2.9,2 2.6,3.7 v 0 0 0 c 0,0 0,0.1 0,0.1 v 0 0 0 0 0 c -0.3,1.6 -1.6,2.7 -3.1,2.7 v 0 c -0.1,0.1 -0.3,0.1 -0.5,0 z"
             id="path288"
             style="fill:#043b58;fill-opacity:1" /><path
             d="m 51.9,24.9 v 0 c -0.3,-1.8 0.9,-3.4 2.6,-3.7 v 0 c 1.7,-0.3 3.3,0.9 3.6,2.7 v 0 c 0.3,1.8 -0.9,3.4 -2.6,3.7 v 0 c -0.2,0 -0.4,0 -0.5,0 v 0 c -1.5,0 -2.8,-1.1 -3.1,-2.7 z"
             id="path290"
             style="fill:#043b58;fill-opacity:1" /><path
             d="m 49.5,18.9 v 0 c -0.8,-1.6 -0.3,-3.5 1.3,-4.4 v 0 c 1.5,-0.9 3.4,-0.3 4.3,1.3 v 0 c 0,0 0,0 0,0 v 0 c 0.8,1.6 0.3,3.5 -1.3,4.4 v 0 c -0.5,0.3 -1,0.4 -1.5,0.4 v 0 c -1.1,0 -2.2,-0.6 -2.8,-1.7 z"
             id="path292"
             style="fill:#043b58;fill-opacity:1" /><path
             d="M 46,13.4 C 44.7,12.2 44.6,10.1 45.8,8.8 v 0 C 47,7.5 49,7.4 50.2,8.6 v 0 c 1.3,1.2 1.4,3.3 0.2,4.6 v 0 c -0.6,0.7 -1.5,1 -2.3,1 v 0 C 47.4,14.3 46.6,14 46,13.4 Z"
             id="path294"
             style="fill:#043b58;fill-opacity:1" /><path
             d="M 40.6,9.1 C 39,8.4 38.3,6.5 39,4.9 v 0 c 0.7,-1.6 2.5,-2.4 4.1,-1.7 v 0 c 1.6,0.7 2.3,2.6 1.6,4.3 v 0 C 44.2,8.7 43,9.4 41.8,9.4 v 0 C 41.5,9.4 41,9.3 40.6,9.1 Z"
             id="path296"
             style="fill:#043b58;fill-opacity:1" /><path
             d="M 34.5,7.1 C 32.8,7 31.5,5.4 31.6,3.7 v 0 c 0.1,-1.8 1.6,-3.1 3.3,-3 v 0 c 1.7,0.1 3,1.7 2.9,3.4 v 0 c -0.1,1.7 -1.5,3 -3.1,3 v 0 c -0.1,0 -0.1,0 -0.2,0 z"
             id="path298"
             style="fill:#043b58;fill-opacity:1" /><path
             d="m 31.7,40.3 c -0.1,-1 0.6,-1.8 1.5,-1.9 v 0 c 0.9,-0.1 1.8,0.6 1.9,1.5 v 0 c 0.1,1 -0.6,1.8 -1.5,1.9 v 0 c -0.1,0 -0.1,0 -0.2,0 v 0 c -0.8,0 -1.6,-0.7 -1.7,-1.5 z"
             id="path300"
             style="fill:#043b58;fill-opacity:1" /><path
             d="M 36.4,39.4 C 35.9,38.6 36.2,37.5 37,37 v 0 c 0.8,-0.5 1.8,-0.2 2.3,0.6 v 0 c 0.5,0.8 0.2,1.9 -0.6,2.4 v 0 c -0.3,0.2 -0.6,0.2 -0.9,0.2 v 0 C 37.3,40.3 36.7,40 36.4,39.4 Z"
             id="path302"
             style="fill:#043b58;fill-opacity:1" /><path
             d="m 40.2,36.7 c -0.8,-0.6 -0.9,-1.6 -0.4,-2.4 v 0 c 0.5,-0.8 1.6,-1 2.4,-0.4 v 0 c 0.8,0.6 0.9,1.7 0.4,2.4 v 0 C 42.3,36.8 41.8,37 41.2,37 v 0 c -0.3,0 -0.7,-0.1 -1,-0.3 z"
             id="path304"
             style="fill:#043b58;fill-opacity:1" /><path
             d="m 42.7,32.6 c -0.9,-0.2 -1.5,-1.1 -1.3,-2.1 v 0 0 0 c 0,0 0,0 0,0 v 0 c 0.2,-0.9 1.1,-1.6 2,-1.4 v 0 c 0.9,0.2 1.5,1.1 1.3,2.1 v 0 c 0,0 0,0 0,0 v 0 0 0 0 0 C 44.5,32 43.8,32.6 43,32.6 v 0 c 0,0 -0.1,0 -0.3,0 z"
             id="path306"
             style="fill:#043b58;fill-opacity:1" /><path
             d="m 41.4,26.4 c -0.2,-0.9 0.4,-1.9 1.3,-2.1 v 0 c 0.9,-0.2 1.8,0.4 2,1.3 v 0 c 0.2,0.9 -0.4,1.9 -1.3,2.1 v 0 c -0.1,0 -0.2,0 -0.4,0 v 0 c -0.7,0.1 -1.4,-0.5 -1.6,-1.3 z"
             id="path308"
             style="fill:#043b58;fill-opacity:1" /><path
             d="m 39.8,22.7 c -0.6,-0.8 -0.4,-1.9 0.4,-2.4 v 0 c 0.8,-0.6 1.8,-0.4 2.4,0.4 v 0 c 0.6,0.8 0.4,1.9 -0.4,2.4 v 0 c -0.3,0.2 -0.7,0.3 -1,0.3 v 0 c -0.6,0 -1.1,-0.2 -1.4,-0.7 z"
             id="path310"
             style="fill:#043b58;fill-opacity:1" /><path
             d="m 36.9,20 c -0.8,-0.5 -1.1,-1.5 -0.6,-2.4 v 0 c 0.5,-0.8 1.5,-1.1 2.3,-0.7 v 0 c 0.8,0.5 1.1,1.5 0.6,2.4 v 0 c -0.3,0.6 -0.9,0.9 -1.5,0.9 v 0 c -0.3,0 -0.5,-0.1 -0.8,-0.2 z"
             id="path312"
             style="fill:#043b58;fill-opacity:1" /><path
             d="m 33.1,18.8 c -0.9,-0.1 -1.6,-0.9 -1.5,-1.9 v 0 c 0.1,-1 0.9,-1.7 1.8,-1.6 v 0 c 0.9,0.1 1.6,0.9 1.5,1.9 v 0 c -0.1,0.9 -0.8,1.6 -1.7,1.6 v 0 c 0,0 0,0 -0.1,0 z"
             id="path314"
             style="fill:#043b58;fill-opacity:1" /></g><g
           id="g350"
           style="fill:#043b58;fill-opacity:1"><path
             d="m 31.5,46.1 c -0.1,-1.4 0.9,-2.7 2.3,-2.9 v 0 c 1.4,-0.1 2.6,0.9 2.8,2.3 v 0 c 0.1,1.4 -0.9,2.7 -2.3,2.9 v 0 0 0 c -0.1,0 -0.2,0 -0.3,0 v 0 c -1.3,0.1 -2.4,-0.9 -2.5,-2.3 z"
             id="path318"
             style="fill:#043b58;fill-opacity:1" /><path
             d="m 38.5,45 c -0.7,-1.3 -0.3,-2.9 0.9,-3.6 v 0 c 1.2,-0.7 2.8,-0.3 3.5,1 v 0 c 0.7,1.3 0.3,2.9 -0.9,3.6 v 0 c -0.4,0.2 -0.8,0.3 -1.3,0.3 v 0 c -0.9,0 -1.8,-0.5 -2.2,-1.3 z"
             id="path320"
             style="fill:#043b58;fill-opacity:1" /><path
             d="M 44,40.9 C 42.9,40 42.6,38.4 43.5,37.2 v 0 C 44.3,36 45.9,35.8 47,36.6 v 0 c 1.1,0.9 1.4,2.5 0.5,3.7 v 0 c -0.5,0.7 -1.3,1.1 -2,1.1 v 0 C 45,41.5 44.5,41.3 44,40.9 Z"
             id="path322"
             style="fill:#043b58;fill-opacity:1" /><path
             d="m 47.7,34.8 c -1.4,-0.3 -2.2,-1.7 -1.9,-3.1 v 0 c 0,0 0,0 0,0 v 0 c 0,0 0,0 0,0 v 0 c 0.3,-1.4 1.6,-2.3 3,-2 v 0 c 1.4,0.3 2.2,1.7 2,3.1 v 0 c 0,0 0,0 0,0 v 0 c 0,0 0,0 0,0 v 0 0 0 c -0.3,1.2 -1.3,2.1 -2.5,2.1 v 0 c -0.3,0 -0.5,-0.1 -0.6,-0.1 z"
             id="path324"
             style="fill:#043b58;fill-opacity:1" /><path
             d="m 45.7,25.5 c -0.3,-1.4 0.6,-2.8 2,-3.1 v 0 c 1.4,-0.3 2.7,0.6 3,2 v 0 c 0.3,1.4 -0.6,2.8 -2,3.1 v 0 c -0.2,0 -0.4,0.1 -0.5,0.1 v 0 C 47,27.6 46,26.7 45.7,25.5 Z"
             id="path326"
             style="fill:#043b58;fill-opacity:1" /><path
             d="m 43.5,19.9 v 0 c -0.8,-1.2 -0.6,-2.8 0.6,-3.6 v 0 c 1.1,-0.9 2.7,-0.6 3.5,0.6 v 0 c 0.8,1.2 0.6,2.8 -0.6,3.7 v 0 c -0.4,0.3 -1,0.5 -1.5,0.5 v 0 c -0.7,-0.2 -1.5,-0.5 -2,-1.2 z"
             id="path328"
             style="fill:#043b58;fill-opacity:1" /><path
             d="M 39.5,15.7 C 38.3,15 37.9,13.4 38.6,12.1 v 0 c 0.7,-1.3 2.3,-1.7 3.5,-1 v 0 c 1.2,0.7 1.6,2.3 0.9,3.6 v 0 C 42.5,15.5 41.7,16 40.8,16 v 0 c -0.5,0.1 -0.9,0 -1.3,-0.3 z"
             id="path330"
             style="fill:#043b58;fill-opacity:1" /><path
             d="m 33.8,13.9 v 0 c -1.4,-0.1 -2.4,-1.4 -2.3,-2.8 v 0 c 0.1,-1.4 1.4,-2.5 2.8,-2.4 v 0 0 0 c 1.4,0.1 2.4,1.4 2.3,2.8 v 0 c -0.1,1.4 -1.2,2.4 -2.5,2.4 v 0 c -0.1,0 -0.2,0 -0.3,0 z"
             id="path332"
             style="fill:#043b58;fill-opacity:1" /><path
             d="m 31.8,36.1 c -0.1,-0.7 0.4,-1.3 1,-1.3 v 0 c 0.6,-0.1 1.2,0.4 1.3,1.1 v 0 c 0.1,0.7 -0.4,1.3 -1,1.3 v 0 c 0,0 0,0 0,0 v 0 c 0,0 -0.1,0 -0.1,0 v 0 c -0.6,0 -1.1,-0.5 -1.2,-1.1 z"
             id="path334"
             style="fill:#043b58;fill-opacity:1" /><path
             d="M 34.8,35.6 C 34.5,35 34.7,34.3 35.2,33.9 v 0 c 0.6,-0.3 1.3,-0.1 1.6,0.4 v 0 c 0.3,0.6 0.1,1.3 -0.4,1.7 v 0 c -0.2,0.1 -0.4,0.2 -0.6,0.2 v 0 c -0.3,0 -0.7,-0.2 -1,-0.6 z"
             id="path336"
             style="fill:#043b58;fill-opacity:1" /><path
             d="m 37.4,33.9 c -0.5,-0.4 -0.6,-1.2 -0.3,-1.7 v 0 c 0.4,-0.5 1.1,-0.7 1.7,-0.3 v 0 c 0.5,0.4 0.6,1.2 0.3,1.7 v 0 0 0 c -0.2,0.3 -0.6,0.5 -1,0.5 v 0 c -0.2,0 -0.5,-0.1 -0.7,-0.2 z"
             id="path338"
             style="fill:#043b58;fill-opacity:1" /><path
             d="m 39.1,31.3 c -0.6,-0.1 -1,-0.8 -0.9,-1.4 v 0 c 0,0 0,0 0,0 v 0 c 0.1,-0.7 0.8,-1.1 1.4,-1 v 0 c 0.6,0.1 1.1,0.8 0.9,1.4 v 0 c 0,0 0,0 0,0 v 0 0 0 0 0 c -0.1,0.6 -0.6,1 -1.2,1 v 0 c -0.1,0 -0.2,0 -0.2,0 z"
             id="path340"
             style="fill:#043b58;fill-opacity:1" /><path
             d="M 38.1,27.2 C 38,26.5 38.4,25.9 39,25.7 v 0 c 0.6,-0.1 1.3,0.3 1.4,0.9 v 0 c 0.1,0.7 -0.3,1.3 -0.9,1.5 v 0 c -0.1,0 -0.2,0 -0.3,0 v 0 c -0.5,0.1 -1,-0.3 -1.1,-0.9 z"
             id="path342"
             style="fill:#043b58;fill-opacity:1" /><path
             d="m 37.1,24.8 c -0.4,-0.5 -0.3,-1.3 0.2,-1.7 v 0 c 0.5,-0.4 1.3,-0.3 1.7,0.3 v 0 c 0.4,0.5 0.3,1.3 -0.2,1.7 v 0 c -0.2,0.2 -0.5,0.2 -0.7,0.2 v 0 c -0.4,0 -0.8,-0.1 -1,-0.5 z"
             id="path344"
             style="fill:#043b58;fill-opacity:1" /><path
             d="M 35.2,23.1 C 34.6,22.8 34.4,22 34.8,21.4 v 0 c 0.3,-0.6 1,-0.8 1.6,-0.5 v 0 0 0 c 0.6,0.3 0.8,1.1 0.4,1.7 v 0 c -0.2,0.4 -0.6,0.6 -1,0.6 v 0 c -0.2,0.1 -0.4,0 -0.6,-0.1 z"
             id="path346"
             style="fill:#043b58;fill-opacity:1" /><path
             d="m 32.8,22.4 c -0.6,-0.1 -1.1,-0.6 -1.1,-1.3 v 0 C 31.8,20.4 32.3,19.9 33,20 v 0 c 0.6,0.1 1.1,0.6 1.1,1.3 v 0 c -0.1,0.6 -0.6,1.1 -1.2,1.1 v 0 c 0,0 0,0 -0.1,0 z"
             id="path348"
             style="fill:#043b58;fill-opacity:1" /></g></g></g></g><g
     aria-label="Darwin Core"
     id="text1924"
     style="font-size:40px; fill:043b58;"
     transform="matrix(0.66444084,0,0,0.66444084,-5.814,42.382277)"><path
       d="m 41.01385,51.550148 q 0,3.964844 -1.738281,7.1875 -1.71875,3.222656 -4.589844,5 -1.992187,1.230469 -4.453125,1.777344 -2.441406,0.546875 -6.445312,0.546875 h -7.34375 V 36.979836 h 7.265625 q 4.257812,0 6.757812,0.625 2.519531,0.605468 4.257813,1.679687 2.96875,1.855469 4.628906,4.941406 1.660156,3.085938 1.660156,7.324219 z m -4.042969,-0.05859 q 0,-3.417968 -1.191406,-5.761718 -1.191406,-2.34375 -3.554687,-3.691407 -1.71875,-0.976562 -3.652344,-1.347656 -1.933594,-0.390625 -4.628906,-0.390625 h -3.632813 v 22.441406 h 3.632813 q 2.792968,0 4.863281,-0.410156 2.089844,-0.410156 3.828125,-1.523437 2.167969,-1.386719 3.242187,-3.652344 1.09375,-2.265625 1.09375,-5.664063 z"
       id="path1976" /><path
       d="m 63.924006,66.061867 h -3.652343 v -2.324219 q -0.488282,0.332031 -1.328125,0.9375 -0.820313,0.585938 -1.601563,0.9375 -0.917969,0.449219 -2.109375,0.742188 -1.191406,0.3125 -2.792969,0.3125 -2.949218,0 -5,-1.953125 -2.050781,-1.953125 -2.050781,-4.980469 0,-2.480469 1.054688,-4.003906 1.074218,-1.542969 3.046875,-2.421875 1.992187,-0.878907 4.785156,-1.191407 2.792969,-0.3125 5.996094,-0.46875 v -0.566406 q 0,-1.25 -0.449219,-2.070312 -0.429688,-0.820313 -1.25,-1.289063 -0.78125,-0.449219 -1.875,-0.605469 -1.09375,-0.15625 -2.285156,-0.15625 -1.445313,0 -3.222657,0.390625 -1.777343,0.371094 -3.671875,1.09375 h -0.195312 v -3.730468 q 1.074219,-0.292969 3.105469,-0.644532 2.03125,-0.351562 4.003906,-0.351562 2.304687,0 4.003906,0.390625 1.71875,0.371094 2.96875,1.289062 1.230469,0.898438 1.875,2.324219 0.644531,1.425781 0.644531,3.535156 z m -3.652343,-5.371094 v -6.074219 q -1.679688,0.09766 -3.964844,0.292969 -2.265625,0.195313 -3.59375,0.566406 -1.582031,0.449219 -2.558594,1.40625 -0.976562,0.9375 -0.976562,2.597657 0,1.875 1.132812,2.832031 1.132813,0.9375 3.457031,0.9375 1.933594,0 3.535157,-0.742188 1.601562,-0.761718 2.96875,-1.816406 z"
       id="path1978" /><path
       d="m 84.6076,48.249367 h -0.195312 q -0.820313,-0.195313 -1.601563,-0.273438 -0.761719,-0.09766 -1.816406,-0.09766 -1.699219,0 -3.28125,0.761719 -1.582031,0.742187 -3.046875,1.933594 V 66.061867 H 70.994319 V 44.245461 h 3.671875 v 3.222656 q 2.1875,-1.757813 3.847656,-2.480469 1.679688,-0.742187 3.417969,-0.742187 0.957031,0 1.386719,0.05859 0.429687,0.03906 1.289062,0.175782 z"
       id="path1980" /><path
       d="m 115.50604,44.245461 -5.6836,21.816406 h -3.39843 L 100.81854,49.245461 95.252131,66.061867 H 91.873225 L 86.131038,44.245461 h 3.828125 l 4.003906,16.894531 5.449219,-16.894531 h 3.027342 l 5.58594,16.894531 3.78906,-16.894531 z"
       id="path1982" /><path
       d="m 124.74432,40.593117 h -4.14063 v -3.808594 h 4.14063 z m -0.23438,25.46875 h -3.67187 V 44.245461 h 3.67187 z"
       id="path1984" /><path
       d="m 150.01776,66.061867 h -3.67188 V 53.639992 q 0,-1.503906 -0.17578,-2.8125 -0.17578,-1.328125 -0.64453,-2.070313 -0.48828,-0.820312 -1.40625,-1.210937 -0.91797,-0.410156 -2.38281,-0.410156 -1.50391,0 -3.14453,0.742187 -1.64063,0.742188 -3.14454,1.894531 v 16.289063 h -3.67187 V 44.245461 h 3.67187 v 2.421875 q 1.71875,-1.425782 3.55469,-2.226563 1.83594,-0.800781 3.76953,-0.800781 3.53516,0 5.39063,2.128906 1.85547,2.128906 1.85547,6.132813 z"
       id="path1986" /><path
       d="m 193.90448,63.952492 q -1.07422,0.46875 -1.95313,0.878906 -0.85937,0.410156 -2.26562,0.859375 -1.19141,0.371094 -2.59766,0.625 -1.38672,0.273438 -3.06641,0.273438 -3.16406,0 -5.76172,-0.878907 -2.57812,-0.898437 -4.49218,-2.792968 -1.875,-1.855469 -2.92969,-4.707032 -1.05469,-2.871093 -1.05469,-6.660156 0,-3.59375 1.01563,-6.425781 1.01562,-2.832031 2.92968,-4.785156 1.85547,-1.894532 4.47266,-2.890625 2.63672,-0.996094 5.83984,-0.996094 2.34375,0 4.66797,0.566406 2.34375,0.566406 5.19532,1.992188 v 4.589843 h -0.29297 q -2.40235,-2.011718 -4.76563,-2.929687 -2.36328,-0.917969 -5.05859,-0.917969 -2.20703,0 -3.98438,0.722656 -1.75781,0.703125 -3.14453,2.207032 -1.34765,1.464843 -2.10937,3.710937 -0.74219,2.226563 -0.74219,5.15625 0,3.066406 0.82031,5.273438 0.83985,2.207031 2.14844,3.59375 1.36719,1.445312 3.18359,2.148437 1.83594,0.683594 3.86719,0.683594 2.79297,0 5.23438,-0.957031 2.4414,-0.957032 4.57031,-2.871094 h 0.27344 z"
       id="path1988" /><path
       d="m 217.67401,55.163429 q 0,5.332032 -2.73438,8.417969 -2.73437,3.085938 -7.32422,3.085938 -4.6289,0 -7.36328,-3.085938 -2.71484,-3.085937 -2.71484,-8.417969 0,-5.332031 2.71484,-8.417968 2.73438,-3.105469 7.36328,-3.105469 4.58985,0 7.32422,3.105469 2.73438,3.085937 2.73438,8.417968 z m -3.78907,0 q 0,-4.238281 -1.66015,-6.289062 -1.66016,-2.070313 -4.60938,-2.070313 -2.98828,0 -4.64843,2.070313 -1.64063,2.050781 -1.64063,6.289062 0,4.101563 1.66016,6.230469 1.66015,2.109375 4.6289,2.109375 2.92969,0 4.58985,-2.089844 1.67968,-2.109375 1.67968,-6.25 z"
       id="path1990" /><path
       d="m 236.97088,48.249367 h -0.19531 q -0.82031,-0.195313 -1.60156,-0.273438 -0.76172,-0.09766 -1.81641,-0.09766 -1.69922,0 -3.28125,0.761719 -1.58203,0.742187 -3.04687,1.933594 V 66.061867 H 223.3576 V 44.245461 h 3.67188 v 3.222656 q 2.1875,-1.757813 3.84765,-2.480469 1.67969,-0.742187 3.41797,-0.742187 0.95703,0 1.38672,0.05859 0.42969,0.03906 1.28906,0.175782 z"
       id="path1992" /><path
       d="m 258.68963,55.534523 h -16.07422 q 0,2.011719 0.60547,3.515625 0.60547,1.484375 1.66016,2.441406 1.01562,0.9375 2.40234,1.40625 1.40625,0.46875 3.08594,0.46875 2.22656,0 4.47266,-0.878906 2.26562,-0.898437 3.22265,-1.757812 h 0.19531 v 4.003906 q -1.85546,0.78125 -3.78906,1.308594 -1.93359,0.527343 -4.0625,0.527343 -5.42969,0 -8.47656,-2.929687 -3.04688,-2.949219 -3.04688,-8.359375 0,-5.351563 2.91016,-8.496094 2.92969,-3.144531 7.69531,-3.144531 4.41407,0 6.79688,2.578125 2.40234,2.578125 2.40234,7.324219 z m -3.57422,-2.8125 q -0.0195,-2.890625 -1.46484,-4.472656 -1.42578,-1.582031 -4.35547,-1.582031 -2.94922,0 -4.70703,1.738281 -1.73828,1.738281 -1.97266,4.316406 z"
       id="path1994" /></g></svg>
