<svg width="2636.701" height="98.4" viewBox="0 0 2636.701 98.4" xmlns="http://www.w3.org/2000/svg"><g id="svgGroup" stroke-linecap="round" fill-rule="evenodd" font-size="9pt" stroke="#000" stroke-width="0.25mm" fill="#000" style="stroke:#000;stroke-width:0.25mm;fill:#000"><path d="M 2445.2 75.2 L 2436.2 75.2 L 2436.2 23.2 L 2444.9 23.2 L 2444.9 31.9 Q 2447.7 27.7 2452 24.85 A 17.205 17.205 0 0 1 2461.202 22.009 A 20.858 20.858 0 0 1 2461.8 22 A 20.994 20.994 0 0 1 2466.217 22.44 Q 2469.203 23.082 2471.485 24.663 A 13.128 13.128 0 0 1 2471.95 25 A 15.751 15.751 0 0 1 2477.398 32.69 A 19.154 19.154 0 0 1 2477.5 33 Q 2480.6 28.4 2484.85 25.2 A 15.669 15.669 0 0 1 2491.641 22.317 A 21.446 21.446 0 0 1 2495.4 22 A 21.437 21.437 0 0 1 2500.288 22.523 Q 2503.874 23.362 2506.363 25.551 A 12.994 12.994 0 0 1 2508.05 27.35 A 18.992 18.992 0 0 1 2511.461 34.622 Q 2512.2 37.672 2512.2 41.3 L 2512.2 75.2 L 2503.2 75.2 L 2503.2 42 A 19.042 19.042 0 0 0 2502.863 38.311 Q 2502.427 36.105 2501.428 34.361 A 10.982 10.982 0 0 0 2500.7 33.25 A 7.974 7.974 0 0 0 2494.887 29.954 A 10.678 10.678 0 0 0 2493.8 29.9 A 11.926 11.926 0 0 0 2487.041 32.027 A 15.996 15.996 0 0 0 2485.45 33.25 Q 2481.6 36.6 2478.7 41.1 L 2478.7 75.2 L 2469.7 75.2 L 2469.7 42 A 19.042 19.042 0 0 0 2469.363 38.311 Q 2468.927 36.105 2467.928 34.361 A 10.982 10.982 0 0 0 2467.2 33.25 A 7.974 7.974 0 0 0 2461.387 29.954 A 10.678 10.678 0 0 0 2460.3 29.9 A 12.02 12.02 0 0 0 2453.981 31.728 A 16.244 16.244 0 0 0 2452 33.15 Q 2448.1 36.4 2445.2 40.8 L 2445.2 75.2 Z M 1329.8 75.2 L 1320.8 75.2 L 1320.8 5.2 L 1333.4 5.2 L 1364.3 63.4 L 1364.3 5.2 L 1373.3 5.2 L 1373.3 75.2 L 1360.9 75.2 L 1329.8 17.4 L 1329.8 75.2 Z M 279.1 75.2 L 269.2 75.2 L 252.8 25.6 L 261.1 22.7 L 274.5 65 L 286.7 26.9 L 296.4 26.9 L 308.3 65 L 321.6 22.7 L 329.6 25.6 L 313.1 75.2 L 303.2 75.2 L 291.2 36.5 L 279.1 75.2 Z M 1210.5 75.2 L 1168.5 75.2 L 1168.5 5.2 L 1210.5 5.2 L 1210.5 13.4 L 1178 13.4 L 1178 34.7 L 1206 34.7 L 1206 42.7 L 1178 42.7 L 1178 67 L 1210.5 67 L 1210.5 75.2 Z M 1559.9 75.2 L 1510.4 75.2 L 1510.4 67.8 L 1547.6 13.4 L 1512.1 13.4 L 1512.1 5.2 L 1558.5 5.2 L 1558.5 12.4 L 1521.3 66.8 L 1559.9 66.8 L 1559.9 75.2 Z M 975.4 75.2 L 966.4 75.2 L 966.4 1.2 L 975.4 1.2 L 975.4 31.5 Q 978.2 27.4 982.5 24.7 A 17.572 17.572 0 0 1 989.625 22.191 A 22.595 22.595 0 0 1 992.6 22 A 23.225 23.225 0 0 1 997.665 22.518 Q 1002.759 23.656 1005.75 27.3 Q 1009.875 32.326 1010.088 40.409 A 33.764 33.764 0 0 1 1010.1 41.3 L 1010.1 75.2 L 1001.1 75.2 L 1001.1 42.3 Q 1001.1 36.7 998.5 33.3 A 8.42 8.42 0 0 0 992.342 29.953 A 11.979 11.979 0 0 0 991.2 29.9 A 13.23 13.23 0 0 0 984.487 31.767 A 17.586 17.586 0 0 0 982.45 33.15 Q 978.3 36.4 975.4 40.8 L 975.4 75.2 Z M 2013.2 71.2 L 2017.9 63.5 A 28.895 28.895 0 0 0 2023.677 66.679 A 32.164 32.164 0 0 0 2024.1 66.85 Q 2027.5 68.2 2031.8 68.2 A 18.948 18.948 0 0 0 2036.549 67.636 A 13.678 13.678 0 0 0 2042.6 64.35 A 12.805 12.805 0 0 0 2046.691 55.061 A 17.128 17.128 0 0 0 2046.7 54.5 A 14.735 14.735 0 0 0 2045.857 49.424 A 12.876 12.876 0 0 0 2042.45 44.35 A 13.782 13.782 0 0 0 2037.001 41.297 Q 2034.065 40.4 2030.3 40.4 L 2017.9 40.4 L 2017.9 5.2 L 2052.5 5.2 L 2052.5 13.3 L 2026.4 13.3 L 2026.4 32.3 L 2031.4 32.3 A 37.701 37.701 0 0 1 2037.581 32.781 Q 2041.046 33.357 2043.936 34.624 A 22.674 22.674 0 0 1 2044.75 35 A 21.393 21.393 0 0 1 2050.171 38.702 A 18.764 18.764 0 0 1 2053.25 42.5 A 20.024 20.024 0 0 1 2056.121 51.503 A 24.706 24.706 0 0 1 2056.2 53.5 A 25.044 25.044 0 0 1 2055.339 60.181 A 21.101 21.101 0 0 1 2053.15 65.35 Q 2050.1 70.5 2044.6 73.45 A 24.425 24.425 0 0 1 2036.983 75.985 A 32.353 32.353 0 0 1 2031.7 76.4 A 46.433 46.433 0 0 1 2027.024 76.177 Q 2023.813 75.852 2021.2 75.05 Q 2016.8 73.7 2013.2 71.2 Z M 1802.9 96.4 L 1804.9 88.9 A 9.908 9.908 0 0 0 1806.065 89.474 Q 1806.888 89.819 1807.9 90.1 A 13.514 13.514 0 0 0 1810.179 90.518 A 17.358 17.358 0 0 0 1811.9 90.6 Q 1816.1 90.6 1819.4 87.9 A 12.003 12.003 0 0 0 1821.333 85.839 Q 1823.081 83.528 1824.741 79.675 A 58.58 58.58 0 0 0 1825.7 77.3 L 1828 71.3 L 1823.2 71.3 L 1802.9 25.6 L 1810.9 22 L 1830.3 65.3 L 1845.4 22.4 L 1853.7 25.6 L 1834.6 77.8 A 71.728 71.728 0 0 1 1832.547 82.887 Q 1831.445 85.326 1830.278 87.314 A 30.86 30.86 0 0 1 1828.3 90.3 A 24.268 24.268 0 0 1 1825.422 93.511 Q 1823.508 95.279 1821.405 96.318 A 14.737 14.737 0 0 1 1820.8 96.6 Q 1816.7 98.4 1811.7 98.4 Q 1808.7 98.4 1806.45 97.8 Q 1804.2 97.2 1802.9 96.4 Z M 1934.1 75.2 L 1893.5 75.2 Q 1893.2 73.4 1893.2 71.5 A 32.192 32.192 0 0 1 1893.835 64.975 A 25.813 25.813 0 0 1 1895.45 59.85 Q 1897.7 54.7 1901.3 50.45 Q 1904.9 46.2 1908.95 42.55 Q 1913 38.9 1916.55 35.55 A 46.218 46.218 0 0 0 1919.969 31.977 A 35.601 35.601 0 0 0 1922.4 28.8 Q 1924.7 25.4 1924.7 21.7 A 9.278 9.278 0 0 0 1923.876 17.754 A 9.139 9.139 0 0 0 1921.6 14.75 A 10.723 10.723 0 0 0 1916.282 12.23 A 15.011 15.011 0 0 0 1913.6 12 A 18.533 18.533 0 0 0 1908.643 12.645 A 16.281 16.281 0 0 0 1905.95 13.65 A 25.364 25.364 0 0 0 1900.162 17.501 A 28.825 28.825 0 0 0 1899.5 18.1 L 1894.5 12 Q 1898.5 8.4 1903.35 6.2 A 24.132 24.132 0 0 1 1909.656 4.363 A 32.297 32.297 0 0 1 1914.6 4 A 26.13 26.13 0 0 1 1919.802 4.495 A 19.778 19.778 0 0 1 1924.9 6.25 A 17.784 17.784 0 0 1 1929.786 9.862 A 16.365 16.365 0 0 1 1931.75 12.4 Q 1934.2 16.3 1934.2 21.1 Q 1934.2 25.9 1932.1 30 A 34.778 34.778 0 0 1 1927.108 37.248 A 38.693 38.693 0 0 1 1926.7 37.7 Q 1923.4 41.3 1919.6 44.65 Q 1915.8 48 1912.3 51.5 A 45.932 45.932 0 0 0 1907.726 56.803 A 40.289 40.289 0 0 0 1906.35 58.8 Q 1903.9 62.6 1903.3 67 L 1934.1 67 L 1934.1 75.2 Z M 2243.4 72.2 L 2234.5 76.4 L 2225.8 57.4 A 30.586 30.586 0 0 0 2223.209 52.827 Q 2220.703 49.222 2217.5 47.3 Q 2213.145 44.687 2206.664 44.35 A 37.847 37.847 0 0 0 2204.7 44.3 L 2203.2 44.3 L 2203.2 75.2 L 2193.7 75.2 L 2193.7 5.4 Q 2199 4.9 2203.85 4.65 A 187.94 187.94 0 0 1 2210.166 4.435 A 226.267 226.267 0 0 1 2214.2 4.4 Q 2227 4.4 2233.45 9.6 A 17.414 17.414 0 0 1 2238.08 15.134 Q 2239.9 18.644 2239.9 23 A 19.88 19.88 0 0 1 2239.249 28.22 A 14.672 14.672 0 0 1 2235.55 34.75 Q 2231.2 39.2 2223 41.4 A 23.656 23.656 0 0 1 2226.429 43.263 A 20.427 20.427 0 0 1 2227.8 44.25 Q 2229.769 45.797 2231.605 48.31 A 29.29 29.29 0 0 1 2231.85 48.65 Q 2233.8 51.4 2235.8 55.8 L 2243.4 72.2 Z M 500.3 94 L 503.6 86.2 A 20.562 20.562 0 0 0 507.417 88.573 A 24.737 24.737 0 0 0 509.2 89.35 Q 511.959 90.428 515.759 90.576 A 31.788 31.788 0 0 0 517 90.6 A 21.701 21.701 0 0 0 521.521 90.157 Q 524.422 89.539 526.622 88.059 A 12.576 12.576 0 0 0 528.15 86.85 A 11.352 11.352 0 0 0 531.057 82.357 Q 532.2 79.256 532.2 74.9 L 532.2 68.5 Q 530.2 70.9 526.45 73.05 Q 522.7 75.2 517.5 75.2 Q 511.6 75.2 506.3 72.15 A 22.236 22.236 0 0 1 499.008 65.312 A 27.437 27.437 0 0 1 497.7 63.2 A 25.181 25.181 0 0 1 494.987 55.576 A 35.033 35.033 0 0 1 494.4 49 A 32.06 32.06 0 0 1 495.317 41.192 A 26.682 26.682 0 0 1 497.65 35.1 A 25.706 25.706 0 0 1 503.714 27.478 A 24.448 24.448 0 0 1 506.4 25.5 Q 511.9 22 518.5 22 A 22.366 22.366 0 0 1 523.32 22.501 A 18.715 18.715 0 0 1 526.5 23.5 A 25.705 25.705 0 0 1 530.328 25.468 A 20.998 20.998 0 0 1 532.7 27.2 L 532.7 23.2 L 540.9 23.2 L 540.9 74 Q 540.9 82.6 537.9 88 Q 534.9 93.4 529.55 95.9 A 25.811 25.811 0 0 1 522.946 97.922 A 35.243 35.243 0 0 1 517 98.4 Q 512.4 98.4 508.05 97.3 A 27.232 27.232 0 0 1 502.75 95.383 A 23.518 23.518 0 0 1 500.3 94 Z M 677.6 94 L 680.9 86.2 A 20.562 20.562 0 0 0 684.717 88.573 A 24.737 24.737 0 0 0 686.5 89.35 Q 689.259 90.428 693.059 90.576 A 31.788 31.788 0 0 0 694.3 90.6 A 21.701 21.701 0 0 0 698.821 90.157 Q 701.722 89.539 703.922 88.059 A 12.576 12.576 0 0 0 705.45 86.85 A 11.352 11.352 0 0 0 708.357 82.357 Q 709.5 79.256 709.5 74.9 L 709.5 68.5 Q 707.5 70.9 703.75 73.05 Q 700 75.2 694.8 75.2 Q 688.9 75.2 683.6 72.15 A 22.236 22.236 0 0 1 676.308 65.312 A 27.437 27.437 0 0 1 675 63.2 A 25.181 25.181 0 0 1 672.287 55.576 A 35.033 35.033 0 0 1 671.7 49 A 32.06 32.06 0 0 1 672.617 41.192 A 26.682 26.682 0 0 1 674.95 35.1 A 25.706 25.706 0 0 1 681.014 27.478 A 24.448 24.448 0 0 1 683.7 25.5 Q 689.2 22 695.8 22 A 22.366 22.366 0 0 1 700.62 22.501 A 18.715 18.715 0 0 1 703.8 23.5 A 25.705 25.705 0 0 1 707.628 25.468 A 20.998 20.998 0 0 1 710 27.2 L 710 23.2 L 718.2 23.2 L 718.2 74 Q 718.2 82.6 715.2 88 Q 712.2 93.4 706.85 95.9 A 25.811 25.811 0 0 1 700.246 97.922 A 35.243 35.243 0 0 1 694.3 98.4 Q 689.7 98.4 685.35 97.3 A 27.232 27.232 0 0 1 680.05 95.383 A 23.518 23.518 0 0 1 677.6 94 Z M 447.7 75.2 L 438.7 75.2 L 438.7 23.2 L 447.4 23.2 L 447.4 31.9 Q 450.2 27.7 454.55 24.85 A 17.316 17.316 0 0 1 461.656 22.226 A 22.629 22.629 0 0 1 464.9 22 A 23.225 23.225 0 0 1 469.965 22.518 Q 475.059 23.656 478.05 27.3 Q 482.175 32.326 482.388 40.409 A 33.764 33.764 0 0 1 482.4 41.3 L 482.4 75.2 L 473.4 75.2 L 473.4 42.3 A 19.265 19.265 0 0 0 473.058 38.559 Q 472.619 36.345 471.619 34.597 A 10.966 10.966 0 0 0 470.75 33.3 A 8.579 8.579 0 0 0 464.473 29.947 A 12.061 12.061 0 0 0 463.4 29.9 A 13.122 13.122 0 0 0 456.551 31.864 A 17.353 17.353 0 0 0 454.7 33.15 Q 450.6 36.4 447.7 40.8 L 447.7 75.2 Z M 625 75.2 L 616 75.2 L 616 23.2 L 624.7 23.2 L 624.7 31.9 Q 627.5 27.7 631.85 24.85 A 17.316 17.316 0 0 1 638.956 22.226 A 22.629 22.629 0 0 1 642.2 22 A 23.225 23.225 0 0 1 647.265 22.518 Q 652.359 23.656 655.35 27.3 Q 659.475 32.326 659.688 40.409 A 33.764 33.764 0 0 1 659.7 41.3 L 659.7 75.2 L 650.7 75.2 L 650.7 42.3 A 19.265 19.265 0 0 0 650.358 38.559 Q 649.919 36.345 648.919 34.597 A 10.966 10.966 0 0 0 648.05 33.3 A 8.579 8.579 0 0 0 641.773 29.947 A 12.061 12.061 0 0 0 640.7 29.9 A 13.122 13.122 0 0 0 633.851 31.864 A 17.353 17.353 0 0 0 632 33.15 Q 627.9 36.4 625 40.8 L 625 75.2 Z M 1280.8 72.7 L 1272.1 76.2 L 1264.3 56.2 L 1231.9 56.2 L 1224.1 76 L 1216 72.7 L 1243.4 5.2 L 1253.8 5.2 L 1280.8 72.7 Z M 773.7 75.2 L 764.7 75.2 L 764.7 32.9 L 756.7 32.9 L 756.7 25.1 L 764.7 25.1 L 764.7 19 A 25.495 25.495 0 0 1 765.326 13.182 Q 766.434 8.452 769.502 5.203 A 16.387 16.387 0 0 1 769.6 5.1 A 16.367 16.367 0 0 1 780.004 0.125 A 22.463 22.463 0 0 1 782.4 0 A 29.982 29.982 0 0 1 785.91 0.195 Q 787.655 0.401 789.171 0.825 A 17.884 17.884 0 0 1 789.6 0.95 Q 792.7 1.9 795.5 3.3 L 792.8 10.9 Q 790.7 9.8 788.3 8.9 A 14.172 14.172 0 0 0 784.678 8.079 A 17.356 17.356 0 0 0 783 8 A 10.802 10.802 0 0 0 779.971 8.405 A 8.291 8.291 0 0 0 776.25 10.65 A 8.462 8.462 0 0 0 774.303 14.019 Q 773.7 15.92 773.7 18.4 L 773.7 25.1 L 789.1 25.1 L 789.1 32.9 L 773.7 32.9 L 773.7 75.2 Z M 2409.3 28.4 L 2409.3 1.2 L 2418.3 1.2 L 2418.3 62.6 A 12.15 12.15 0 0 0 2418.402 64.236 Q 2418.734 66.67 2420.15 67.55 Q 2422 68.7 2424.2 68.7 L 2422.3 75.7 Q 2412.8 75.7 2410.7 68.1 Q 2408.5 71.2 2404.55 73.8 Q 2400.6 76.4 2394.6 76.4 Q 2388.2 76.4 2382.9 73.1 A 22.692 22.692 0 0 1 2375.362 65.309 A 27.622 27.622 0 0 1 2374.5 63.75 A 27.533 27.533 0 0 1 2371.912 55.808 A 37.221 37.221 0 0 1 2371.4 49.5 A 33.94 33.94 0 0 1 2372.289 41.586 A 27.963 27.963 0 0 1 2374.55 35.4 A 27.291 27.291 0 0 1 2379.169 28.809 A 24.186 24.186 0 0 1 2382.95 25.6 Q 2388.2 22 2394.5 22 A 21.642 21.642 0 0 1 2398.772 22.402 A 15.942 15.942 0 0 1 2403.45 24.1 A 34.343 34.343 0 0 1 2406.03 25.689 Q 2407.254 26.524 2408.225 27.374 A 16.59 16.59 0 0 1 2409.3 28.4 Z M 2598.8 97.2 L 2589.8 97.2 L 2589.8 36.5 A 11.015 11.015 0 0 0 2589.673 34.764 Q 2589.342 32.698 2588.15 31.65 A 5.718 5.718 0 0 0 2585.36 30.328 A 7.991 7.991 0 0 0 2583.9 30.2 L 2585.8 23.2 Q 2591.662 23.2 2594.722 26.164 A 10.15 10.15 0 0 1 2597.3 30.5 Q 2598.255 29.067 2600.352 27.178 A 38.58 38.58 0 0 1 2600.55 27 A 18.902 18.902 0 0 1 2603.251 25.016 A 25.569 25.569 0 0 1 2606.15 23.5 A 16.955 16.955 0 0 1 2610.709 22.211 A 21.886 21.886 0 0 1 2613.8 22 Q 2619.8 22 2625.05 25.15 A 22.329 22.329 0 0 1 2632.228 32.117 A 27.464 27.464 0 0 1 2633.5 34.25 Q 2636.7 40.2 2636.7 48.7 Q 2636.7 57 2633.5 63.25 A 27.846 27.846 0 0 1 2629.566 69.082 A 23.029 23.029 0 0 1 2625.15 72.95 Q 2620 76.4 2614 76.4 Q 2609.4 76.4 2605.4 74.55 A 30.352 30.352 0 0 1 2601.984 72.711 Q 2600.191 71.585 2598.8 70.3 L 2598.8 97.2 Z M 1761.4 70.9 L 1761.4 75.2 L 1753 75.2 L 1753 1.2 L 1762 1.2 L 1762 28.6 Q 1764 26.3 1767.85 24.15 A 16.584 16.584 0 0 1 1773.081 22.328 A 22.424 22.424 0 0 1 1777 22 Q 1783 22 1788.25 25.15 A 22.329 22.329 0 0 1 1795.428 32.117 A 27.464 27.464 0 0 1 1796.7 34.25 Q 1799.9 40.2 1799.9 48.7 A 33.315 33.315 0 0 1 1799.213 55.588 A 27.75 27.75 0 0 1 1797.9 60 A 29.367 29.367 0 0 1 1794.739 66.005 A 25.482 25.482 0 0 1 1792.55 68.75 A 24.894 24.894 0 0 1 1786.419 73.664 A 23.302 23.302 0 0 1 1785 74.4 A 20.006 20.006 0 0 1 1777.634 76.361 A 19.209 19.209 0 0 1 1776.4 76.4 Q 1771.9 76.4 1767.95 74.75 A 30.274 30.274 0 0 1 1764.647 73.142 Q 1762.822 72.103 1761.4 70.9 Z M 1067.7 52.9 L 1031.3 52.9 A 24.088 24.088 0 0 0 1032.439 57.925 Q 1033.775 61.738 1036.4 64.3 Q 1040.6 68.4 1047.5 68.4 Q 1052 68.4 1055.6 67.45 Q 1059.2 66.5 1062.5 65 L 1064.6 72.7 A 40.77 40.77 0 0 1 1060.265 74.326 A 51.863 51.863 0 0 1 1056.5 75.35 A 38.914 38.914 0 0 1 1051.408 76.169 A 52.025 52.025 0 0 1 1046.4 76.4 A 28.318 28.318 0 0 1 1038.654 75.395 A 21.108 21.108 0 0 1 1028.65 69.25 A 23.521 23.521 0 0 1 1023.445 59.71 Q 1022.1 55.045 1022.1 49.2 A 35.359 35.359 0 0 1 1022.933 41.378 A 28.84 28.84 0 0 1 1025.05 35.25 A 24.642 24.642 0 0 1 1030.066 28.168 A 22.887 22.887 0 0 1 1033.3 25.55 A 21.048 21.048 0 0 1 1043.559 22.078 A 26.205 26.205 0 0 1 1045.6 22 Q 1053.1 22 1058.05 25.25 Q 1063 28.5 1065.5 34 A 28.185 28.185 0 0 1 1067.926 43.864 A 33.434 33.434 0 0 1 1068 46.1 A 75.204 75.204 0 0 1 1067.709 52.797 A 69.426 69.426 0 0 1 1067.7 52.9 Z M 1432.4 52.9 L 1396 52.9 A 24.088 24.088 0 0 0 1397.139 57.925 Q 1398.475 61.738 1401.1 64.3 Q 1405.3 68.4 1412.2 68.4 Q 1416.7 68.4 1420.3 67.45 Q 1423.9 66.5 1427.2 65 L 1429.3 72.7 A 40.77 40.77 0 0 1 1424.965 74.326 A 51.863 51.863 0 0 1 1421.2 75.35 A 38.914 38.914 0 0 1 1416.108 76.169 A 52.025 52.025 0 0 1 1411.1 76.4 A 28.318 28.318 0 0 1 1403.354 75.395 A 21.108 21.108 0 0 1 1393.35 69.25 A 23.521 23.521 0 0 1 1388.145 59.71 Q 1386.8 55.045 1386.8 49.2 A 35.359 35.359 0 0 1 1387.633 41.378 A 28.84 28.84 0 0 1 1389.75 35.25 A 24.642 24.642 0 0 1 1394.766 28.168 A 22.887 22.887 0 0 1 1398 25.55 A 21.048 21.048 0 0 1 1408.259 22.078 A 26.205 26.205 0 0 1 1410.3 22 Q 1417.8 22 1422.75 25.25 Q 1427.7 28.5 1430.2 34 A 28.185 28.185 0 0 1 1432.626 43.864 A 33.434 33.434 0 0 1 1432.7 46.1 A 75.204 75.204 0 0 1 1432.409 52.797 A 69.426 69.426 0 0 1 1432.4 52.9 Z M 1614 52.9 L 1577.6 52.9 A 24.088 24.088 0 0 0 1578.739 57.925 Q 1580.075 61.738 1582.7 64.3 Q 1586.9 68.4 1593.8 68.4 Q 1598.3 68.4 1601.9 67.45 Q 1605.5 66.5 1608.8 65 L 1610.9 72.7 A 40.77 40.77 0 0 1 1606.565 74.326 A 51.863 51.863 0 0 1 1602.8 75.35 A 38.914 38.914 0 0 1 1597.708 76.169 A 52.025 52.025 0 0 1 1592.7 76.4 A 28.318 28.318 0 0 1 1584.954 75.395 A 21.108 21.108 0 0 1 1574.95 69.25 A 23.521 23.521 0 0 1 1569.745 59.71 Q 1568.4 55.045 1568.4 49.2 A 35.359 35.359 0 0 1 1569.233 41.378 A 28.84 28.84 0 0 1 1571.35 35.25 A 24.642 24.642 0 0 1 1576.366 28.168 A 22.887 22.887 0 0 1 1579.6 25.55 A 21.048 21.048 0 0 1 1589.859 22.078 A 26.205 26.205 0 0 1 1591.9 22 Q 1599.4 22 1604.35 25.25 Q 1609.3 28.5 1611.8 34 A 28.185 28.185 0 0 1 1614.226 43.864 A 33.434 33.434 0 0 1 1614.3 46.1 A 75.204 75.204 0 0 1 1614.009 52.797 A 69.426 69.426 0 0 1 1614 52.9 Z M 130.9 57.3 L 130.9 32.9 L 121.9 32.9 L 121.9 25.1 L 131.1 25.1 L 133 8.7 L 139.9 8.7 L 139.9 25.1 L 154.3 25.1 L 154.3 32.9 L 139.9 32.9 L 139.9 58 A 21.559 21.559 0 0 0 140.068 60.796 Q 140.541 64.402 142.35 66.1 Q 144.8 68.4 148.2 68.4 Q 150.7 68.4 152.95 67.6 Q 155.2 66.8 157.1 65.7 L 159.6 72.9 A 18.546 18.546 0 0 1 157.982 73.756 Q 157.18 74.135 156.234 74.508 A 43.365 43.365 0 0 1 154.2 75.25 Q 150.8 76.4 147.1 76.4 Q 139.6 76.4 135.25 71.45 A 16.116 16.116 0 0 1 132.022 65.548 Q 131.259 63.117 131.015 60.181 A 34.777 34.777 0 0 1 130.9 57.3 Z M 928.7 57.3 L 928.7 32.9 L 919.7 32.9 L 919.7 25.1 L 928.9 25.1 L 930.8 8.7 L 937.7 8.7 L 937.7 25.1 L 952.1 25.1 L 952.1 32.9 L 937.7 32.9 L 937.7 58 A 21.559 21.559 0 0 0 937.868 60.796 Q 938.341 64.402 940.15 66.1 Q 942.6 68.4 946 68.4 Q 948.5 68.4 950.75 67.6 Q 953 66.8 954.9 65.7 L 957.4 72.9 A 18.546 18.546 0 0 1 955.782 73.756 Q 954.98 74.135 954.034 74.508 A 43.365 43.365 0 0 1 952 75.25 Q 948.6 76.4 944.9 76.4 Q 937.4 76.4 933.05 71.45 A 16.116 16.116 0 0 1 929.822 65.548 Q 929.059 63.117 928.815 60.181 A 34.777 34.777 0 0 1 928.7 57.3 Z M 1446.7 57.3 L 1446.7 32.9 L 1437.7 32.9 L 1437.7 25.1 L 1446.9 25.1 L 1448.8 8.7 L 1455.7 8.7 L 1455.7 25.1 L 1470.1 25.1 L 1470.1 32.9 L 1455.7 32.9 L 1455.7 58 A 21.559 21.559 0 0 0 1455.868 60.796 Q 1456.341 64.402 1458.15 66.1 Q 1460.6 68.4 1464 68.4 Q 1466.5 68.4 1468.75 67.6 Q 1471 66.8 1472.9 65.7 L 1475.4 72.9 A 18.546 18.546 0 0 1 1473.782 73.756 Q 1472.98 74.135 1472.034 74.508 A 43.365 43.365 0 0 1 1470 75.25 Q 1466.6 76.4 1462.9 76.4 Q 1455.4 76.4 1451.05 71.45 A 16.116 16.116 0 0 1 1447.822 65.548 Q 1447.059 63.117 1446.815 60.181 A 34.777 34.777 0 0 1 1446.7 57.3 Z M 0 75 L 0 5.4 Q 4.7 4.9 9.2 4.65 A 151.31 151.31 0 0 1 13.386 4.479 Q 16.238 4.4 19.5 4.4 A 48.608 48.608 0 0 1 26.844 4.927 Q 30.778 5.528 34.11 6.818 A 29.198 29.198 0 0 1 35.05 7.2 A 30.978 30.978 0 0 1 42.339 11.52 A 27.223 27.223 0 0 1 45.85 14.9 Q 50.1 19.8 52.15 26.25 A 44.256 44.256 0 0 1 54.122 37.246 A 51.506 51.506 0 0 1 54.2 40.1 A 45.309 45.309 0 0 1 52.719 51.798 A 41.802 41.802 0 0 1 52.1 53.9 Q 50 60.4 45.65 65.35 Q 41.3 70.3 34.55 73.15 Q 28.275 75.8 19.709 75.986 A 60.192 60.192 0 0 1 18.4 76 A 186.98 186.98 0 0 1 14.329 75.958 Q 12.315 75.914 10.522 75.824 A 101.5 101.5 0 0 1 8.45 75.7 Q 4.2 75.4 0 75 Z M 102.8 27.4 L 102.8 23.2 L 111 23.2 L 111 62.6 A 12.15 12.15 0 0 0 111.102 64.236 Q 111.434 66.67 112.85 67.55 Q 114.7 68.7 116.9 68.7 L 115 75.7 A 17.722 17.722 0 0 1 110.735 75.228 Q 105.098 73.828 103.503 68.28 A 13.59 13.59 0 0 1 103.4 67.9 A 21.307 21.307 0 0 1 100.29 71.326 A 28.498 28.498 0 0 1 97.15 73.75 Q 93.2 76.4 87.1 76.4 Q 80.6 76.4 75.3 73.1 A 22.947 22.947 0 0 1 67.887 65.574 A 27.923 27.923 0 0 1 66.85 63.75 A 27.228 27.228 0 0 1 64.22 55.808 A 36.644 36.644 0 0 1 63.7 49.5 A 33.142 33.142 0 0 1 64.697 41.231 A 27.968 27.968 0 0 1 66.85 35.5 Q 70 29.3 75.55 25.65 A 22.297 22.297 0 0 1 86.745 22.044 A 27.388 27.388 0 0 1 88.3 22 A 22.584 22.584 0 0 1 93.094 22.491 A 18.703 18.703 0 0 1 96.45 23.55 A 26.002 26.002 0 0 1 100.737 25.844 A 22.103 22.103 0 0 1 102.8 27.4 Z M 202.2 27.4 L 202.2 23.2 L 210.4 23.2 L 210.4 62.6 A 12.15 12.15 0 0 0 210.502 64.236 Q 210.834 66.67 212.25 67.55 Q 214.1 68.7 216.3 68.7 L 214.4 75.7 A 17.722 17.722 0 0 1 210.135 75.228 Q 204.498 73.828 202.903 68.28 A 13.59 13.59 0 0 1 202.8 67.9 A 21.307 21.307 0 0 1 199.69 71.326 A 28.498 28.498 0 0 1 196.55 73.75 Q 192.6 76.4 186.5 76.4 Q 180 76.4 174.7 73.1 A 22.947 22.947 0 0 1 167.287 65.574 A 27.923 27.923 0 0 1 166.25 63.75 A 27.228 27.228 0 0 1 163.62 55.808 A 36.644 36.644 0 0 1 163.1 49.5 A 33.142 33.142 0 0 1 164.097 41.231 A 27.968 27.968 0 0 1 166.25 35.5 Q 169.4 29.3 174.95 25.65 A 22.297 22.297 0 0 1 186.145 22.044 A 27.388 27.388 0 0 1 187.7 22 A 22.584 22.584 0 0 1 192.494 22.491 A 18.703 18.703 0 0 1 195.85 23.55 A 26.002 26.002 0 0 1 200.137 25.844 A 22.103 22.103 0 0 1 202.2 27.4 Z M 412.6 27.4 L 412.6 23.2 L 420.8 23.2 L 420.8 62.6 A 12.15 12.15 0 0 0 420.902 64.236 Q 421.234 66.67 422.65 67.55 Q 424.5 68.7 426.7 68.7 L 424.8 75.7 A 17.722 17.722 0 0 1 420.535 75.228 Q 414.898 73.828 413.303 68.28 A 13.59 13.59 0 0 1 413.2 67.9 A 21.307 21.307 0 0 1 410.09 71.326 A 28.498 28.498 0 0 1 406.95 73.75 Q 403 76.4 396.9 76.4 Q 390.4 76.4 385.1 73.1 A 22.947 22.947 0 0 1 377.687 65.574 A 27.923 27.923 0 0 1 376.65 63.75 A 27.228 27.228 0 0 1 374.02 55.808 A 36.644 36.644 0 0 1 373.5 49.5 A 33.142 33.142 0 0 1 374.497 41.231 A 27.968 27.968 0 0 1 376.65 35.5 Q 379.8 29.3 385.35 25.65 A 22.297 22.297 0 0 1 396.545 22.044 A 27.388 27.388 0 0 1 398.1 22 A 22.584 22.584 0 0 1 402.894 22.491 A 18.703 18.703 0 0 1 406.25 23.55 A 26.002 26.002 0 0 1 410.537 25.844 A 22.103 22.103 0 0 1 412.6 27.4 Z M 2349.8 27.4 L 2349.8 23.2 L 2358 23.2 L 2358 62.6 A 12.15 12.15 0 0 0 2358.102 64.236 Q 2358.434 66.67 2359.85 67.55 Q 2361.7 68.7 2363.9 68.7 L 2362 75.7 A 17.722 17.722 0 0 1 2357.735 75.228 Q 2352.098 73.828 2350.503 68.28 A 13.59 13.59 0 0 1 2350.4 67.9 A 21.307 21.307 0 0 1 2347.29 71.326 A 28.498 28.498 0 0 1 2344.15 73.75 Q 2340.2 76.4 2334.1 76.4 Q 2327.6 76.4 2322.3 73.1 A 22.947 22.947 0 0 1 2314.887 65.574 A 27.923 27.923 0 0 1 2313.85 63.75 A 27.228 27.228 0 0 1 2311.22 55.808 A 36.644 36.644 0 0 1 2310.7 49.5 A 33.142 33.142 0 0 1 2311.697 41.231 A 27.968 27.968 0 0 1 2313.85 35.5 Q 2317 29.3 2322.55 25.65 A 22.297 22.297 0 0 1 2333.745 22.044 A 27.388 27.388 0 0 1 2335.3 22 A 22.584 22.584 0 0 1 2340.094 22.491 A 18.703 18.703 0 0 1 2343.45 23.55 A 26.002 26.002 0 0 1 2347.737 25.844 A 22.103 22.103 0 0 1 2349.8 27.4 Z M 2563.3 27.4 L 2563.3 23.2 L 2571.5 23.2 L 2571.5 62.6 A 12.15 12.15 0 0 0 2571.602 64.236 Q 2571.934 66.67 2573.35 67.55 Q 2575.2 68.7 2577.4 68.7 L 2575.5 75.7 A 17.722 17.722 0 0 1 2571.235 75.228 Q 2565.598 73.828 2564.003 68.28 A 13.59 13.59 0 0 1 2563.9 67.9 A 21.307 21.307 0 0 1 2560.79 71.326 A 28.498 28.498 0 0 1 2557.65 73.75 Q 2553.7 76.4 2547.6 76.4 Q 2541.1 76.4 2535.8 73.1 A 22.947 22.947 0 0 1 2528.387 65.574 A 27.923 27.923 0 0 1 2527.35 63.75 A 27.228 27.228 0 0 1 2524.72 55.808 A 36.644 36.644 0 0 1 2524.2 49.5 A 33.142 33.142 0 0 1 2525.197 41.231 A 27.968 27.968 0 0 1 2527.35 35.5 Q 2530.5 29.3 2536.05 25.65 A 22.297 22.297 0 0 1 2547.245 22.044 A 27.388 27.388 0 0 1 2548.8 22 A 22.584 22.584 0 0 1 2553.594 22.491 A 18.703 18.703 0 0 1 2556.95 23.55 A 26.002 26.002 0 0 1 2561.237 25.844 A 22.103 22.103 0 0 1 2563.3 27.4 Z M 1974.6 76.4 Q 1962.9 76.4 1956.8 66.85 Q 1952.295 59.797 1951.117 48.572 A 81.32 81.32 0 0 1 1950.7 40.1 A 77.106 77.106 0 0 1 1951.31 30.059 Q 1952.653 19.863 1956.95 13.4 A 20.992 20.992 0 0 1 1963.713 6.811 Q 1968.456 4 1974.8 4 A 22.809 22.809 0 0 1 1982.787 5.336 Q 1988.495 7.454 1992.222 12.929 A 25.382 25.382 0 0 1 1992.6 13.5 Q 1997.087 20.489 1998.274 31.698 A 81.891 81.891 0 0 1 1998.7 40.3 A 77.106 77.106 0 0 1 1998.09 50.341 Q 1996.747 60.538 1992.45 67 A 20.992 20.992 0 0 1 1985.687 73.589 Q 1980.944 76.4 1974.6 76.4 Z M 2094.6 76.4 Q 2082.9 76.4 2076.8 66.85 Q 2072.295 59.797 2071.117 48.572 A 81.32 81.32 0 0 1 2070.7 40.1 A 77.106 77.106 0 0 1 2071.31 30.059 Q 2072.653 19.863 2076.95 13.4 A 20.992 20.992 0 0 1 2083.713 6.811 Q 2088.456 4 2094.8 4 A 22.809 22.809 0 0 1 2102.787 5.336 Q 2108.495 7.454 2112.222 12.929 A 25.382 25.382 0 0 1 2112.6 13.5 Q 2117.087 20.489 2118.274 31.698 A 81.891 81.891 0 0 1 2118.7 40.3 A 77.106 77.106 0 0 1 2118.09 50.341 Q 2116.747 60.538 2112.45 67 A 20.992 20.992 0 0 1 2105.687 73.589 Q 2100.944 76.4 2094.6 76.4 Z M 555.9 58.9 L 555.9 1.2 L 564.9 1.2 L 564.9 58 A 20.644 20.644 0 0 0 565.088 60.888 Q 565.55 64.152 567.15 66 A 7.363 7.363 0 0 0 571.734 68.476 A 10.724 10.724 0 0 0 573.4 68.6 Q 575.3 68.6 577.15 68.15 A 22.192 22.192 0 0 0 578.613 67.744 Q 579.548 67.447 580.3 67.1 L 582.5 74.4 Q 581.101 75.022 579.188 75.523 A 34.978 34.978 0 0 1 578.05 75.8 A 23.816 23.816 0 0 1 574.895 76.285 A 30.514 30.514 0 0 1 572.2 76.4 A 20.862 20.862 0 0 1 567.31 75.846 A 17.544 17.544 0 0 1 563.9 74.65 A 12.683 12.683 0 0 1 558.575 69.885 A 15.856 15.856 0 0 1 558.05 69 Q 556.316 65.854 555.98 61.212 A 32.105 32.105 0 0 1 555.9 58.9 Z M 349.1 75.2 L 340.1 75.2 L 340.1 23.2 L 348.8 23.2 L 348.8 34.5 Q 350.1 31.2 352.3 28.35 Q 354.5 25.5 357.8 23.75 A 14.817 14.817 0 0 1 362.48 22.226 A 19.459 19.459 0 0 1 365.5 22 Q 367 22 368.5 22.15 A 18.972 18.972 0 0 1 369.555 22.284 Q 370.055 22.362 370.482 22.463 A 8.817 8.817 0 0 1 371 22.6 L 368.3 31.9 A 9.763 9.763 0 0 0 366.155 31.288 Q 365.059 31.1 363.8 31.1 A 12.958 12.958 0 0 0 357.17 32.946 A 15.609 15.609 0 0 0 356.75 33.2 Q 353.422 35.286 351.278 39.642 A 22.927 22.927 0 0 0 351.25 39.7 Q 349.487 43.307 349.17 48.528 A 39.09 39.09 0 0 0 349.1 50.9 L 349.1 75.2 Z M 865.8 75.2 L 856.8 75.2 L 856.8 23.2 L 865.5 23.2 L 865.5 34.5 Q 866.8 31.2 869 28.35 Q 871.2 25.5 874.5 23.75 A 14.817 14.817 0 0 1 879.18 22.226 A 19.459 19.459 0 0 1 882.2 22 Q 883.7 22 885.2 22.15 A 18.972 18.972 0 0 1 886.255 22.284 Q 886.755 22.362 887.182 22.463 A 8.817 8.817 0 0 1 887.7 22.6 L 885 31.9 A 9.763 9.763 0 0 0 882.855 31.288 Q 881.759 31.1 880.5 31.1 A 12.958 12.958 0 0 0 873.87 32.946 A 15.609 15.609 0 0 0 873.45 33.2 Q 870.122 35.286 867.978 39.642 A 22.927 22.927 0 0 0 867.95 39.7 Q 866.187 43.307 865.87 48.528 A 39.09 39.09 0 0 0 865.8 50.9 L 865.8 75.2 Z M 1635.3 75.2 L 1626.3 75.2 L 1626.3 23.2 L 1635 23.2 L 1635 34.5 Q 1636.3 31.2 1638.5 28.35 Q 1640.7 25.5 1644 23.75 A 14.817 14.817 0 0 1 1648.68 22.226 A 19.459 19.459 0 0 1 1651.7 22 Q 1653.2 22 1654.7 22.15 A 18.972 18.972 0 0 1 1655.755 22.284 Q 1656.255 22.362 1656.682 22.463 A 8.817 8.817 0 0 1 1657.2 22.6 L 1654.5 31.9 A 9.763 9.763 0 0 0 1652.355 31.288 Q 1651.259 31.1 1650 31.1 A 12.958 12.958 0 0 0 1643.37 32.946 A 15.609 15.609 0 0 0 1642.95 33.2 Q 1639.622 35.286 1637.478 39.642 A 22.927 22.927 0 0 0 1637.45 39.7 Q 1635.687 43.307 1635.37 48.528 A 39.09 39.09 0 0 0 1635.3 50.9 L 1635.3 75.2 Z M 805.6 72.95 A 24.559 24.559 0 0 0 810.198 75.04 Q 814.253 76.4 818.9 76.4 Q 826.3 76.4 832.15 73 Q 838 69.6 841.4 63.45 A 26.255 26.255 0 0 0 844.053 56.309 A 34.184 34.184 0 0 0 844.8 49 A 34.542 34.542 0 0 0 844.315 43.092 A 25.795 25.795 0 0 0 841.35 34.65 Q 837.9 28.6 832.05 25.3 A 24.848 24.848 0 0 0 827.409 23.273 A 27.738 27.738 0 0 0 818.9 22 A 31.325 31.325 0 0 0 817.32 22.04 A 26.169 26.169 0 0 0 805.7 25.3 Q 799.8 28.6 796.4 34.7 A 26.023 26.023 0 0 0 793.651 42.29 A 35.006 35.006 0 0 0 793 49.2 A 34.82 34.82 0 0 0 793.265 53.554 A 27.451 27.451 0 0 0 796.35 63.35 Q 799.7 69.5 805.6 72.95 Z M 1671.8 72.95 A 24.559 24.559 0 0 0 1676.398 75.04 Q 1680.453 76.4 1685.1 76.4 Q 1692.5 76.4 1698.35 73 Q 1704.2 69.6 1707.6 63.45 A 26.255 26.255 0 0 0 1710.253 56.309 A 34.184 34.184 0 0 0 1711 49 A 34.542 34.542 0 0 0 1710.515 43.092 A 25.795 25.795 0 0 0 1707.55 34.65 Q 1704.1 28.6 1698.25 25.3 A 24.848 24.848 0 0 0 1693.609 23.273 A 27.738 27.738 0 0 0 1685.1 22 A 31.325 31.325 0 0 0 1683.52 22.04 A 26.169 26.169 0 0 0 1671.9 25.3 Q 1666 28.6 1662.6 34.7 A 26.023 26.023 0 0 0 1659.851 42.29 A 35.006 35.006 0 0 0 1659.2 49.2 A 34.82 34.82 0 0 0 1659.465 53.554 A 27.451 27.451 0 0 0 1662.55 63.35 Q 1665.9 69.5 1671.8 72.95 Z M 2263 72.95 A 24.559 24.559 0 0 0 2267.598 75.04 Q 2271.653 76.4 2276.3 76.4 Q 2283.7 76.4 2289.55 73 Q 2295.4 69.6 2298.8 63.45 A 26.255 26.255 0 0 0 2301.453 56.309 A 34.184 34.184 0 0 0 2302.2 49 A 34.542 34.542 0 0 0 2301.715 43.092 A 25.795 25.795 0 0 0 2298.75 34.65 Q 2295.3 28.6 2289.45 25.3 A 24.848 24.848 0 0 0 2284.809 23.273 A 27.738 27.738 0 0 0 2276.3 22 A 31.325 31.325 0 0 0 2274.72 22.04 A 26.169 26.169 0 0 0 2263.1 25.3 Q 2257.2 28.6 2253.8 34.7 A 26.023 26.023 0 0 0 2251.051 42.29 A 35.006 35.006 0 0 0 2250.4 49.2 A 34.82 34.82 0 0 0 2250.665 53.554 A 27.451 27.451 0 0 0 2253.75 63.35 Q 2257.1 69.5 2263 72.95 Z M 1150.5 75.2 L 1141 75.2 L 1141 5.2 L 1150.5 5.2 L 1150.5 75.2 Z M 9.5 13.1 L 9.5 67.2 Q 11.6 67.5 13.9 67.6 A 107.265 107.265 0 0 0 17.463 67.694 A 121.297 121.297 0 0 0 18.7 67.7 A 37.906 37.906 0 0 0 24.864 67.228 Q 29.793 66.415 33.4 64.2 Q 39.1 60.7 41.8 54.45 A 32.292 32.292 0 0 0 44.054 46.376 A 42.502 42.502 0 0 0 44.5 40.1 Q 44.5 32.9 41.8 26.6 Q 39.1 20.3 33.5 16.45 A 20.895 20.895 0 0 0 26.448 13.391 Q 23.607 12.711 20.296 12.616 A 38.008 38.008 0 0 0 19.2 12.6 Q 16.3 12.6 13.9 12.75 Q 11.5 12.9 9.5 13.1 Z M 1974.7 68.2 A 12.762 12.762 0 0 0 1979.121 67.455 A 11.493 11.493 0 0 0 1982.45 65.55 A 11.747 11.747 0 0 0 1984.843 62.828 Q 1986.411 60.422 1987.45 56.8 Q 1989.196 50.716 1989.2 40.453 A 120.37 120.37 0 0 0 1989.2 40.4 A 79.493 79.493 0 0 0 1988.861 32.788 Q 1988.128 25.194 1985.811 20.315 A 21.455 21.455 0 0 0 1985.35 19.4 A 17.262 17.262 0 0 0 1982.878 15.839 A 10.682 10.682 0 0 0 1974.7 12.2 A 12.762 12.762 0 0 0 1970.279 12.945 A 11.493 11.493 0 0 0 1966.95 14.85 Q 1963.7 17.5 1961.95 23.55 A 36.612 36.612 0 0 0 1960.972 28.106 Q 1960.2 33.094 1960.2 40 A 79.493 79.493 0 0 0 1960.539 47.612 Q 1961.272 55.206 1963.589 60.085 A 21.455 21.455 0 0 0 1964.05 61 A 17.262 17.262 0 0 0 1966.522 64.561 A 10.682 10.682 0 0 0 1974.7 68.2 Z M 2094.7 68.2 A 12.762 12.762 0 0 0 2099.121 67.455 A 11.493 11.493 0 0 0 2102.45 65.55 A 11.747 11.747 0 0 0 2104.843 62.828 Q 2106.411 60.422 2107.45 56.8 Q 2109.196 50.716 2109.2 40.453 A 120.37 120.37 0 0 0 2109.2 40.4 A 79.493 79.493 0 0 0 2108.861 32.788 Q 2108.128 25.194 2105.811 20.315 A 21.455 21.455 0 0 0 2105.35 19.4 A 17.262 17.262 0 0 0 2102.878 15.839 A 10.682 10.682 0 0 0 2094.7 12.2 A 12.762 12.762 0 0 0 2090.279 12.945 A 11.493 11.493 0 0 0 2086.95 14.85 Q 2083.7 17.5 2081.95 23.55 A 36.612 36.612 0 0 0 2080.972 28.106 Q 2080.2 33.094 2080.2 40 A 79.493 79.493 0 0 0 2080.539 47.612 Q 2081.272 55.206 2083.589 60.085 A 21.455 21.455 0 0 0 2084.05 61 A 17.262 17.262 0 0 0 2086.522 64.561 A 10.682 10.682 0 0 0 2094.7 68.2 Z M 600 75.2 L 591 75.2 L 591 23.2 L 600 23.2 L 600 75.2 Z M 818.9 68.4 Q 826.8 68.4 831.2 63.05 A 18.802 18.802 0 0 0 835.019 54.96 A 27.105 27.105 0 0 0 835.6 49.2 Q 835.6 44 833.4 39.65 A 19.198 19.198 0 0 0 829.228 34.081 A 18.17 18.17 0 0 0 827.45 32.65 Q 823.7 30 818.9 30 A 19.249 19.249 0 0 0 813.674 30.672 A 14.037 14.037 0 0 0 806.6 35.2 A 17.878 17.878 0 0 0 802.926 42.574 Q 802.2 45.506 802.2 49 Q 802.2 54.2 804.4 58.65 A 19.437 19.437 0 0 0 807.93 63.69 A 17.627 17.627 0 0 0 810.35 65.75 Q 814.1 68.4 818.9 68.4 Z M 1685.1 68.4 Q 1693 68.4 1697.4 63.05 A 18.802 18.802 0 0 0 1701.219 54.96 A 27.105 27.105 0 0 0 1701.8 49.2 Q 1701.8 44 1699.6 39.65 A 19.198 19.198 0 0 0 1695.428 34.081 A 18.17 18.17 0 0 0 1693.65 32.65 Q 1689.9 30 1685.1 30 A 19.249 19.249 0 0 0 1679.874 30.672 A 14.037 14.037 0 0 0 1672.8 35.2 A 17.878 17.878 0 0 0 1669.126 42.574 Q 1668.4 45.506 1668.4 49 Q 1668.4 54.2 1670.6 58.65 A 19.437 19.437 0 0 0 1674.13 63.69 A 17.627 17.627 0 0 0 1676.55 65.75 Q 1680.3 68.4 1685.1 68.4 Z M 2276.3 68.4 Q 2284.2 68.4 2288.6 63.05 A 18.802 18.802 0 0 0 2292.419 54.96 A 27.105 27.105 0 0 0 2293 49.2 Q 2293 44 2290.8 39.65 A 19.198 19.198 0 0 0 2286.628 34.081 A 18.17 18.17 0 0 0 2284.85 32.65 Q 2281.1 30 2276.3 30 A 19.249 19.249 0 0 0 2271.074 30.672 A 14.037 14.037 0 0 0 2264 35.2 A 17.878 17.878 0 0 0 2260.326 42.574 Q 2259.6 45.506 2259.6 49 Q 2259.6 54.2 2261.8 58.65 A 19.437 19.437 0 0 0 2265.33 63.69 A 17.627 17.627 0 0 0 2267.75 65.75 Q 2271.5 68.4 2276.3 68.4 Z M 102 61.9 L 102 34 Q 99.3 32.1 96.05 30.95 Q 92.8 29.8 89.2 29.8 A 15.924 15.924 0 0 0 84.229 30.554 A 14.024 14.024 0 0 0 80.75 32.25 A 16.301 16.301 0 0 0 75.731 37.674 A 19.962 19.962 0 0 0 75 39.05 A 20.663 20.663 0 0 0 73.247 44.727 A 27.678 27.678 0 0 0 72.9 49.2 Q 72.9 54.8 75 59.15 A 17.602 17.602 0 0 0 78.106 63.696 A 15.697 15.697 0 0 0 80.8 65.95 Q 84.5 68.4 89.1 68.4 Q 92.9 68.4 96.3 66.55 Q 99.7 64.7 102 61.9 Z M 201.4 61.9 L 201.4 34 Q 198.7 32.1 195.45 30.95 Q 192.2 29.8 188.6 29.8 A 15.924 15.924 0 0 0 183.629 30.554 A 14.024 14.024 0 0 0 180.15 32.25 A 16.301 16.301 0 0 0 175.131 37.674 A 19.962 19.962 0 0 0 174.4 39.05 A 20.663 20.663 0 0 0 172.647 44.727 A 27.678 27.678 0 0 0 172.3 49.2 Q 172.3 54.8 174.4 59.15 A 17.602 17.602 0 0 0 177.506 63.696 A 15.697 15.697 0 0 0 180.2 65.95 Q 183.9 68.4 188.5 68.4 Q 192.3 68.4 195.7 66.55 Q 199.1 64.7 201.4 61.9 Z M 411.8 61.9 L 411.8 34 Q 409.1 32.1 405.85 30.95 Q 402.6 29.8 399 29.8 A 15.924 15.924 0 0 0 394.029 30.554 A 14.024 14.024 0 0 0 390.55 32.25 A 16.301 16.301 0 0 0 385.531 37.674 A 19.962 19.962 0 0 0 384.8 39.05 A 20.663 20.663 0 0 0 383.047 44.727 A 27.678 27.678 0 0 0 382.7 49.2 Q 382.7 54.8 384.8 59.15 A 17.602 17.602 0 0 0 387.906 63.696 A 15.697 15.697 0 0 0 390.6 65.95 Q 394.3 68.4 398.9 68.4 Q 402.7 68.4 406.1 66.55 Q 409.5 64.7 411.8 61.9 Z M 2349 61.9 L 2349 34 Q 2346.3 32.1 2343.05 30.95 Q 2339.8 29.8 2336.2 29.8 A 15.924 15.924 0 0 0 2331.229 30.554 A 14.024 14.024 0 0 0 2327.75 32.25 A 16.301 16.301 0 0 0 2322.731 37.674 A 19.962 19.962 0 0 0 2322 39.05 A 20.663 20.663 0 0 0 2320.247 44.727 A 27.678 27.678 0 0 0 2319.9 49.2 Q 2319.9 54.8 2322 59.15 A 17.602 17.602 0 0 0 2325.106 63.696 A 15.697 15.697 0 0 0 2327.8 65.95 Q 2331.5 68.4 2336.1 68.4 Q 2339.9 68.4 2343.3 66.55 Q 2346.7 64.7 2349 61.9 Z M 2562.5 61.9 L 2562.5 34 Q 2559.8 32.1 2556.55 30.95 Q 2553.3 29.8 2549.7 29.8 A 15.924 15.924 0 0 0 2544.729 30.554 A 14.024 14.024 0 0 0 2541.25 32.25 A 16.301 16.301 0 0 0 2536.231 37.674 A 19.962 19.962 0 0 0 2535.5 39.05 A 20.663 20.663 0 0 0 2533.747 44.727 A 27.678 27.678 0 0 0 2533.4 49.2 Q 2533.4 54.8 2535.5 59.15 A 17.602 17.602 0 0 0 2538.606 63.696 A 15.697 15.697 0 0 0 2541.3 65.95 Q 2545 68.4 2549.6 68.4 Q 2553.4 68.4 2556.8 66.55 Q 2560.2 64.7 2562.5 61.9 Z M 1762 36.6 L 1762 64.4 A 17.99 17.99 0 0 0 1765.63 66.585 A 21.802 21.802 0 0 0 1767.4 67.3 A 19.462 19.462 0 0 0 1773.564 68.396 A 22.039 22.039 0 0 0 1774 68.4 Q 1778.9 68.4 1782.65 66 Q 1786.4 63.6 1788.55 59.2 Q 1790.7 54.8 1790.7 49 Q 1790.7 43 1788.55 38.7 Q 1786.4 34.4 1782.85 32.1 Q 1779.3 29.8 1775 29.8 A 14.741 14.741 0 0 0 1769.373 30.863 A 14.054 14.054 0 0 0 1767.25 31.95 Q 1763.8 34.1 1762 36.6 Z M 2598.8 36.6 L 2598.8 62.2 Q 2601.4 64.9 2604.8 66.65 Q 2608.2 68.4 2612.2 68.4 Q 2618.894 68.4 2623.117 63.216 A 17.38 17.38 0 0 0 2623.25 63.05 A 18.792 18.792 0 0 0 2626.744 55.745 Q 2627.405 53.055 2627.488 49.908 A 34.555 34.555 0 0 0 2627.5 49 Q 2627.5 43 2625.35 38.7 Q 2623.2 34.4 2619.65 32.1 Q 2616.1 29.8 2611.8 29.8 A 14.741 14.741 0 0 0 2606.173 30.863 A 14.054 14.054 0 0 0 2604.05 31.95 Q 2600.6 34.1 2598.8 36.6 Z M 2409.3 62.1 L 2409.3 36.3 A 15.847 15.847 0 0 0 2407.189 34.127 Q 2406.068 33.164 2404.669 32.266 A 28.139 28.139 0 0 0 2404 31.85 Q 2400.6 29.8 2396.5 29.8 A 14.946 14.946 0 0 0 2391.544 30.6 A 13.385 13.385 0 0 0 2388.1 32.4 A 16.69 16.69 0 0 0 2382.93 38.55 A 19.924 19.924 0 0 0 2382.55 39.35 A 22.19 22.19 0 0 0 2380.81 45.715 A 28.113 28.113 0 0 0 2380.6 49.2 A 24.757 24.757 0 0 0 2381.193 54.719 A 20.327 20.327 0 0 0 2382.7 59.05 A 18.205 18.205 0 0 0 2385.74 63.564 A 16.122 16.122 0 0 0 2388.45 65.9 Q 2392.1 68.4 2396.6 68.4 Q 2400.3 68.4 2403.65 66.65 Q 2407 64.9 2409.3 62.1 Z M 531.9 61.2 L 531.9 34 Q 529.734 32.425 526.697 31.141 A 36.018 36.018 0 0 0 526.6 31.1 A 16.249 16.249 0 0 0 522.796 30.049 A 22.135 22.135 0 0 0 519.4 29.8 Q 515.3 29.8 511.7 32 Q 508.1 34.2 505.85 38.35 Q 503.6 42.5 503.6 48.5 A 24.32 24.32 0 0 0 504.078 53.436 A 18.311 18.311 0 0 0 505.85 58.4 A 18.576 18.576 0 0 0 508.761 62.475 A 15.802 15.802 0 0 0 511.7 64.9 Q 515.3 67.2 519.5 67.2 A 15.276 15.276 0 0 0 524.078 66.532 A 13.606 13.606 0 0 0 526.7 65.4 A 20.855 20.855 0 0 0 529.681 63.384 A 16.309 16.309 0 0 0 531.9 61.2 Z M 709.2 61.2 L 709.2 34 Q 707.034 32.425 703.997 31.141 A 36.018 36.018 0 0 0 703.9 31.1 A 16.249 16.249 0 0 0 700.096 30.049 A 22.135 22.135 0 0 0 696.7 29.8 Q 692.6 29.8 689 32 Q 685.4 34.2 683.15 38.35 Q 680.9 42.5 680.9 48.5 A 24.32 24.32 0 0 0 681.378 53.436 A 18.311 18.311 0 0 0 683.15 58.4 A 18.576 18.576 0 0 0 686.061 62.475 A 15.802 15.802 0 0 0 689 64.9 Q 692.6 67.2 696.8 67.2 A 15.276 15.276 0 0 0 701.378 66.532 A 13.606 13.606 0 0 0 704 65.4 A 20.855 20.855 0 0 0 706.981 63.384 A 16.309 16.309 0 0 0 709.2 61.2 Z M 1248.1 14.6 L 1234.9 48.2 L 1261.2 48.2 L 1248.1 14.6 Z M 2203.2 12.8 L 2203.2 36.3 L 2214.2 36.3 A 26.489 26.489 0 0 0 2219.123 35.869 Q 2223.052 35.125 2225.9 33.1 Q 2230.4 29.9 2230.4 23.9 A 9.811 9.811 0 0 0 2227.127 16.436 A 13.272 13.272 0 0 0 2226.2 15.65 A 13.923 13.923 0 0 0 2221.836 13.428 Q 2219.907 12.818 2217.577 12.57 A 31.944 31.944 0 0 0 2214.2 12.4 Q 2211.026 12.4 2208.462 12.487 A 118.974 118.974 0 0 0 2208.1 12.5 Q 2205.4 12.6 2203.2 12.8 Z M 1031.2 45.6 L 1059.7 45.6 A 24.355 24.355 0 0 0 1059.296 41.015 Q 1058.8 38.431 1057.696 36.407 A 12.422 12.422 0 0 0 1055.9 33.9 A 12.488 12.488 0 0 0 1048.939 30.124 A 18.395 18.395 0 0 0 1045.4 29.8 A 13.58 13.58 0 0 0 1040.288 30.735 A 12.524 12.524 0 0 0 1035.8 33.85 Q 1032 37.9 1031.2 45.6 Z M 1395.9 45.6 L 1424.4 45.6 A 24.355 24.355 0 0 0 1423.996 41.015 Q 1423.5 38.431 1422.396 36.407 A 12.422 12.422 0 0 0 1420.6 33.9 A 12.488 12.488 0 0 0 1413.639 30.124 A 18.395 18.395 0 0 0 1410.1 29.8 A 13.58 13.58 0 0 0 1404.988 30.735 A 12.524 12.524 0 0 0 1400.5 33.85 Q 1396.7 37.9 1395.9 45.6 Z M 1577.5 45.6 L 1606 45.6 A 24.355 24.355 0 0 0 1605.596 41.015 Q 1605.1 38.431 1603.996 36.407 A 12.422 12.422 0 0 0 1602.2 33.9 A 12.488 12.488 0 0 0 1595.239 30.124 A 18.395 18.395 0 0 0 1591.7 29.8 A 13.58 13.58 0 0 0 1586.588 30.735 A 12.524 12.524 0 0 0 1582.1 33.85 Q 1578.3 37.9 1577.5 45.6 Z M 1128.6 27.5 L 1121.5 27.5 L 1120.7 5.2 L 1129.4 5.2 L 1128.6 27.5 Z M 1112.5 27.5 L 1105.4 27.5 L 1104.6 5.2 L 1113.3 5.2 L 1112.5 27.5 Z M 2151.3 27.5 L 2144.2 27.5 L 2143.4 5.2 L 2152.1 5.2 L 2151.3 27.5 Z M 2135.2 27.5 L 2128.1 27.5 L 2127.3 5.2 L 2136 5.2 L 2135.2 27.5 Z M 591.137 12.488 A 5.973 5.973 0 0 0 595.5 14.3 A 8.175 8.175 0 0 0 596.996 14.169 A 5.647 5.647 0 0 0 600.1 12.55 Q 601.8 10.8 601.8 8 A 7.26 7.26 0 0 0 601.8 7.919 A 6.06 6.06 0 0 0 599.95 3.55 A 7.395 7.395 0 0 0 599.892 3.493 A 6.059 6.059 0 0 0 595.5 1.7 A 8.264 8.264 0 0 0 593.844 1.858 A 5.661 5.661 0 0 0 590.9 3.4 A 5.588 5.588 0 0 0 589.429 6.032 A 7.987 7.987 0 0 0 589.2 8 A 5.992 5.992 0 0 0 589.692 10.419 A 6.643 6.643 0 0 0 591.05 12.4 A 7.466 7.466 0 0 0 591.137 12.488 Z" vector-effect="non-scaling-stroke"/></g></svg>