<svg width="2937.891" height="96.338" viewBox="0 0 2937.891 96.338" xmlns="http://www.w3.org/2000/svg"><g id="svgGroup" stroke-linecap="round" fill-rule="evenodd" font-size="9pt" stroke="#000" stroke-width="0.25mm" fill="#000" style="stroke:#000;stroke-width:0.25mm;fill:#000"><path d="M 2357.031 22.168 L 2365.576 22.168 L 2365.82 28.027 A 19.044 19.044 0 0 1 2379.385 21.273 A 26.654 26.654 0 0 1 2381.494 21.191 A 22.319 22.319 0 0 1 2387.169 21.863 A 13.826 13.826 0 0 1 2396.582 29.688 A 20.014 20.014 0 0 1 2403.442 23.535 Q 2407.666 21.191 2413.428 21.191 Q 2427.371 21.191 2430.318 33.035 A 29.163 29.163 0 0 1 2431.104 39.6 L 2431.104 75 L 2422.07 75 L 2422.07 40.137 A 19.793 19.793 0 0 0 2421.842 37.025 Q 2421.581 35.385 2421.019 34.076 A 8.421 8.421 0 0 0 2419.482 31.665 Q 2416.895 28.857 2410.791 28.857 A 13.838 13.838 0 0 0 2406.734 29.427 A 11.197 11.197 0 0 0 2402.441 31.86 A 11.581 11.581 0 0 0 2398.952 37.819 A 15.669 15.669 0 0 0 2398.584 39.941 L 2398.584 75 L 2389.502 75 L 2389.502 40.381 Q 2389.502 31.284 2382.473 29.368 A 16.188 16.188 0 0 0 2378.223 28.857 A 16.001 16.001 0 0 0 2373.385 29.542 Q 2368.588 31.059 2366.285 35.938 A 16.21 16.21 0 0 0 2366.064 36.426 L 2366.064 75 L 2357.031 75 L 2357.031 22.168 Z M 2287.744 52.441 L 2297.168 52.441 A 33.516 33.516 0 0 1 2295.379 60.176 A 23.323 23.323 0 0 1 2288.843 69.849 A 23.964 23.964 0 0 1 2278.359 75.097 Q 2274.735 75.949 2270.489 75.976 A 43.766 43.766 0 0 1 2270.215 75.977 A 28.37 28.37 0 0 1 2260.558 74.398 A 24.377 24.377 0 0 1 2250.024 66.943 A 30.992 30.992 0 0 1 2243.783 54.459 Q 2242.601 49.822 2242.453 44.353 A 58.464 58.464 0 0 1 2242.432 42.773 L 2242.432 35.938 A 47.233 47.233 0 0 1 2243.209 27.171 A 35.875 35.875 0 0 1 2245.972 18.506 A 28.212 28.212 0 0 1 2251.032 11 A 25.109 25.109 0 0 1 2256.006 6.958 A 26.83 26.83 0 0 1 2267.405 3.122 A 33.631 33.631 0 0 1 2271.045 2.93 A 32.911 32.911 0 0 1 2278.89 3.814 A 22.95 22.95 0 0 1 2289.209 9.253 A 24.003 24.003 0 0 1 2295.816 19.943 A 34.289 34.289 0 0 1 2297.168 26.758 L 2287.744 26.758 Q 2286.979 21.435 2285.094 17.952 A 13.588 13.588 0 0 0 2282.446 14.453 A 13.407 13.407 0 0 0 2276.832 11.374 Q 2274.754 10.787 2272.273 10.672 A 26.621 26.621 0 0 0 2271.045 10.645 A 19.477 19.477 0 0 0 2264.618 11.658 A 16.253 16.253 0 0 0 2256.958 17.285 Q 2251.855 23.926 2251.855 36.182 L 2251.855 43.066 Q 2251.855 51.672 2254.529 57.659 A 22.422 22.422 0 0 0 2256.689 61.475 A 15.335 15.335 0 0 0 2267.783 68.168 A 20.16 20.16 0 0 0 2270.215 68.311 A 27.742 27.742 0 0 0 2274.742 67.965 Q 2277.181 67.561 2279.134 66.685 A 12.836 12.836 0 0 0 2282.202 64.771 A 12.529 12.529 0 0 0 2285.035 61.204 Q 2286.852 57.904 2287.691 52.774 A 43.507 43.507 0 0 0 2287.744 52.441 Z M 2653.809 52.441 L 2663.232 52.441 A 33.516 33.516 0 0 1 2661.444 60.176 A 23.323 23.323 0 0 1 2654.907 69.849 A 23.964 23.964 0 0 1 2644.423 75.097 Q 2640.8 75.949 2636.554 75.976 A 43.766 43.766 0 0 1 2636.279 75.977 A 28.37 28.37 0 0 1 2626.623 74.398 A 24.377 24.377 0 0 1 2616.089 66.943 A 30.992 30.992 0 0 1 2609.847 54.459 Q 2608.665 49.822 2608.517 44.353 A 58.464 58.464 0 0 1 2608.496 42.773 L 2608.496 35.938 A 47.233 47.233 0 0 1 2609.274 27.171 A 35.875 35.875 0 0 1 2612.036 18.506 A 28.212 28.212 0 0 1 2617.096 11 A 25.109 25.109 0 0 1 2622.07 6.958 A 26.83 26.83 0 0 1 2633.469 3.122 A 33.631 33.631 0 0 1 2637.109 2.93 A 32.911 32.911 0 0 1 2644.955 3.814 A 22.95 22.95 0 0 1 2655.273 9.253 A 24.003 24.003 0 0 1 2661.88 19.943 A 34.289 34.289 0 0 1 2663.232 26.758 L 2653.809 26.758 Q 2653.044 21.435 2651.158 17.952 A 13.588 13.588 0 0 0 2648.511 14.453 A 13.407 13.407 0 0 0 2642.897 11.374 Q 2640.818 10.787 2638.337 10.672 A 26.621 26.621 0 0 0 2637.109 10.645 A 19.477 19.477 0 0 0 2630.683 11.658 A 16.253 16.253 0 0 0 2623.022 17.285 Q 2617.92 23.926 2617.92 36.182 L 2617.92 43.066 Q 2617.92 51.672 2620.593 57.659 A 22.422 22.422 0 0 0 2622.754 61.475 A 15.335 15.335 0 0 0 2633.848 68.168 A 20.16 20.16 0 0 0 2636.279 68.311 A 27.742 27.742 0 0 0 2640.807 67.965 Q 2643.245 67.561 2645.198 66.685 A 12.836 12.836 0 0 0 2648.267 64.771 A 12.529 12.529 0 0 0 2651.1 61.204 Q 2652.917 57.904 2653.756 52.774 A 43.507 43.507 0 0 0 2653.809 52.441 Z M 2683.643 0 L 2683.643 28.564 Q 2689.648 21.191 2699.268 21.191 A 21.166 21.166 0 0 1 2706.306 22.264 Q 2716.051 25.694 2716.162 40.088 L 2716.162 75 L 2707.129 75 L 2707.129 40.039 Q 2707.08 34.326 2704.517 31.592 Q 2702.449 29.386 2698.522 28.96 A 18.441 18.441 0 0 0 2696.533 28.857 A 13.921 13.921 0 0 0 2691.929 29.599 A 12.481 12.481 0 0 0 2688.818 31.201 A 15.915 15.915 0 0 0 2683.643 37.354 L 2683.643 75 L 2674.609 75 L 2674.609 0 L 2683.643 0 Z M 2873.047 28.027 L 2873.486 22.168 L 2881.738 22.168 L 2881.738 73.73 A 27.894 27.894 0 0 1 2880.953 80.539 A 19.315 19.315 0 0 1 2875.659 89.893 Q 2869.58 95.801 2859.326 95.801 Q 2853.613 95.801 2848.145 93.359 A 22.254 22.254 0 0 1 2843.586 90.674 A 17.364 17.364 0 0 1 2839.795 86.67 L 2844.482 81.25 A 20.991 20.991 0 0 0 2849.31 85.694 A 16.819 16.819 0 0 0 2858.691 88.428 A 18.83 18.83 0 0 0 2862.88 87.989 Q 2865.862 87.309 2868.019 85.574 A 11.523 11.523 0 0 0 2868.97 84.717 A 12.109 12.109 0 0 0 2872.048 79.243 Q 2872.656 77.005 2872.656 74.268 L 2872.656 69.727 A 17.785 17.785 0 0 1 2860.967 75.792 A 25.326 25.326 0 0 1 2857.861 75.977 Q 2848.584 75.977 2842.847 68.506 A 25.734 25.734 0 0 1 2838.589 59.839 Q 2837.572 56.299 2837.254 52.099 A 52.428 52.428 0 0 1 2837.109 48.145 A 43.443 43.443 0 0 1 2837.784 40.249 Q 2839.073 33.282 2842.822 28.491 A 18.074 18.074 0 0 1 2855.942 21.279 A 22.866 22.866 0 0 1 2857.959 21.191 A 21.899 21.899 0 0 1 2864.613 22.153 A 17.217 17.217 0 0 1 2873.047 28.027 Z M 244.922 37.695 L 235.84 37.695 Q 235.84 33.984 232.69 31.299 Q 229.541 28.613 224.756 28.613 A 18.294 18.294 0 0 0 221.751 28.845 Q 220.153 29.111 218.863 29.684 A 8.839 8.839 0 0 0 217.041 30.762 A 7.251 7.251 0 0 0 215.096 32.969 Q 214.284 34.427 214.259 36.258 A 8.552 8.552 0 0 0 214.258 36.377 A 6.531 6.531 0 0 0 214.592 38.52 A 5.329 5.329 0 0 0 216.846 41.309 A 12.15 12.15 0 0 0 218.515 42.18 Q 220.339 42.98 223.18 43.744 A 73.127 73.127 0 0 0 226.196 44.482 A 70.196 70.196 0 0 1 230.726 45.646 Q 234.468 46.751 237.158 48.096 Q 241.357 50.195 243.384 53.149 A 11.381 11.381 0 0 1 245.187 57.673 A 15.424 15.424 0 0 1 245.41 60.352 A 14.224 14.224 0 0 1 244.168 66.367 Q 242.758 69.432 239.746 71.704 Q 234.386 75.747 226.009 75.964 A 37.071 37.071 0 0 1 225.049 75.977 A 30.507 30.507 0 0 1 219.111 75.424 A 23.595 23.595 0 0 1 213.818 73.73 A 19.676 19.676 0 0 1 208.997 70.64 A 17.116 17.116 0 0 1 206.177 67.456 A 15.123 15.123 0 0 1 203.418 58.74 L 212.451 58.74 A 10.358 10.358 0 0 0 213.268 62.354 A 9.193 9.193 0 0 0 216.089 65.942 A 11.912 11.912 0 0 0 220.558 68.085 Q 222.592 68.604 225.049 68.604 A 20.695 20.695 0 0 0 228.334 68.358 Q 230.129 68.069 231.591 67.44 A 10.452 10.452 0 0 0 233.276 66.528 A 7.656 7.656 0 0 0 235.104 64.857 A 6.156 6.156 0 0 0 236.377 60.986 A 7.761 7.761 0 0 0 235.973 58.422 A 6.452 6.452 0 0 0 233.618 55.298 A 11.672 11.672 0 0 0 231.742 54.202 Q 229.644 53.2 226.366 52.36 A 59.907 59.907 0 0 0 223.999 51.807 Q 219.497 50.845 216.214 49.632 A 29.103 29.103 0 0 1 213.11 48.291 A 20.571 20.571 0 0 1 210.384 46.643 Q 208.928 45.59 207.896 44.38 A 11.305 11.305 0 0 1 207.153 43.408 A 11.071 11.071 0 0 1 205.345 38.556 A 14.346 14.346 0 0 1 205.225 36.67 A 13.405 13.405 0 0 1 209.659 26.617 A 18.819 18.819 0 0 1 210.718 25.684 Q 216.211 21.191 224.756 21.191 A 28.433 28.433 0 0 1 231.017 21.844 A 19.527 19.527 0 0 1 239.331 25.83 A 15.379 15.379 0 0 1 243.524 31.116 A 15.243 15.243 0 0 1 244.922 37.695 Z M 382.129 37.695 L 373.047 37.695 Q 373.047 33.984 369.897 31.299 Q 366.748 28.613 361.963 28.613 A 18.294 18.294 0 0 0 358.958 28.845 Q 357.36 29.111 356.07 29.684 A 8.839 8.839 0 0 0 354.248 30.762 A 7.251 7.251 0 0 0 352.303 32.969 Q 351.491 34.427 351.466 36.258 A 8.552 8.552 0 0 0 351.465 36.377 A 6.531 6.531 0 0 0 351.799 38.52 A 5.329 5.329 0 0 0 354.053 41.309 A 12.15 12.15 0 0 0 355.722 42.18 Q 357.546 42.98 360.387 43.744 A 73.127 73.127 0 0 0 363.403 44.482 A 70.196 70.196 0 0 1 367.933 45.646 Q 371.675 46.751 374.365 48.096 Q 378.564 50.195 380.591 53.149 A 11.381 11.381 0 0 1 382.394 57.673 A 15.424 15.424 0 0 1 382.617 60.352 A 14.224 14.224 0 0 1 381.375 66.367 Q 379.965 69.432 376.953 71.704 Q 371.593 75.747 363.217 75.964 A 37.071 37.071 0 0 1 362.256 75.977 A 30.507 30.507 0 0 1 356.318 75.424 A 23.595 23.595 0 0 1 351.025 73.73 A 19.676 19.676 0 0 1 346.204 70.64 A 17.116 17.116 0 0 1 343.384 67.456 A 15.123 15.123 0 0 1 340.625 58.74 L 349.658 58.74 A 10.358 10.358 0 0 0 350.475 62.354 A 9.193 9.193 0 0 0 353.296 65.942 A 11.912 11.912 0 0 0 357.765 68.085 Q 359.799 68.604 362.256 68.604 A 20.695 20.695 0 0 0 365.541 68.358 Q 367.336 68.069 368.798 67.44 A 10.452 10.452 0 0 0 370.483 66.528 A 7.656 7.656 0 0 0 372.312 64.857 A 6.156 6.156 0 0 0 373.584 60.986 A 7.761 7.761 0 0 0 373.18 58.422 A 6.452 6.452 0 0 0 370.825 55.298 A 11.672 11.672 0 0 0 368.949 54.202 Q 366.851 53.2 363.573 52.36 A 59.907 59.907 0 0 0 361.206 51.807 Q 356.704 50.845 353.421 49.632 A 29.103 29.103 0 0 1 350.317 48.291 A 20.571 20.571 0 0 1 347.591 46.643 Q 346.135 45.59 345.103 44.38 A 11.305 11.305 0 0 1 344.36 43.408 A 11.071 11.071 0 0 1 342.552 38.556 A 14.346 14.346 0 0 1 342.432 36.67 A 13.405 13.405 0 0 1 346.866 26.617 A 18.819 18.819 0 0 1 347.925 25.684 Q 353.418 21.191 361.963 21.191 A 28.433 28.433 0 0 1 368.224 21.844 A 19.527 19.527 0 0 1 376.538 25.83 A 15.379 15.379 0 0 1 380.731 31.116 A 15.243 15.243 0 0 1 382.129 37.695 Z M 613.965 37.695 L 604.883 37.695 Q 604.883 33.984 601.733 31.299 Q 598.584 28.613 593.799 28.613 A 18.294 18.294 0 0 0 590.794 28.845 Q 589.196 29.111 587.906 29.684 A 8.839 8.839 0 0 0 586.084 30.762 A 7.251 7.251 0 0 0 584.139 32.969 Q 583.327 34.427 583.302 36.258 A 8.552 8.552 0 0 0 583.301 36.377 A 6.531 6.531 0 0 0 583.635 38.52 A 5.329 5.329 0 0 0 585.889 41.309 A 12.15 12.15 0 0 0 587.558 42.18 Q 589.382 42.98 592.222 43.744 A 73.127 73.127 0 0 0 595.239 44.482 A 70.196 70.196 0 0 1 599.769 45.646 Q 603.511 46.751 606.201 48.096 Q 610.4 50.195 612.427 53.149 A 11.381 11.381 0 0 1 614.23 57.673 A 15.424 15.424 0 0 1 614.453 60.352 A 14.224 14.224 0 0 1 613.211 66.367 Q 611.801 69.432 608.789 71.704 Q 603.429 75.747 595.052 75.964 A 37.071 37.071 0 0 1 594.092 75.977 A 30.507 30.507 0 0 1 588.154 75.424 A 23.595 23.595 0 0 1 582.861 73.73 A 19.676 19.676 0 0 1 578.04 70.64 A 17.116 17.116 0 0 1 575.22 67.456 A 15.123 15.123 0 0 1 572.461 58.74 L 581.494 58.74 A 10.358 10.358 0 0 0 582.311 62.354 A 9.193 9.193 0 0 0 585.132 65.942 A 11.912 11.912 0 0 0 589.601 68.085 Q 591.635 68.604 594.092 68.604 A 20.695 20.695 0 0 0 597.377 68.358 Q 599.172 68.069 600.634 67.44 A 10.452 10.452 0 0 0 602.319 66.528 A 7.656 7.656 0 0 0 604.147 64.857 A 6.156 6.156 0 0 0 605.42 60.986 A 7.761 7.761 0 0 0 605.016 58.422 A 6.452 6.452 0 0 0 602.661 55.298 A 11.672 11.672 0 0 0 600.785 54.202 Q 598.687 53.2 595.409 52.36 A 59.907 59.907 0 0 0 593.042 51.807 Q 588.54 50.845 585.257 49.632 A 29.103 29.103 0 0 1 582.153 48.291 A 20.571 20.571 0 0 1 579.427 46.643 Q 577.971 45.59 576.939 44.38 A 11.305 11.305 0 0 1 576.196 43.408 A 11.071 11.071 0 0 1 574.388 38.556 A 14.346 14.346 0 0 1 574.268 36.67 A 13.405 13.405 0 0 1 578.702 26.617 A 18.819 18.819 0 0 1 579.761 25.684 Q 585.254 21.191 593.799 21.191 A 28.433 28.433 0 0 1 600.06 21.844 A 19.527 19.527 0 0 1 608.374 25.83 A 15.379 15.379 0 0 1 612.567 31.116 A 15.243 15.243 0 0 1 613.965 37.695 Z M 1127.051 37.695 L 1117.969 37.695 Q 1117.969 33.984 1114.819 31.299 Q 1111.67 28.613 1106.885 28.613 A 18.294 18.294 0 0 0 1103.88 28.845 Q 1102.282 29.111 1100.992 29.684 A 8.839 8.839 0 0 0 1099.17 30.762 A 7.251 7.251 0 0 0 1097.225 32.969 Q 1096.413 34.427 1096.388 36.258 A 8.552 8.552 0 0 0 1096.387 36.377 A 6.531 6.531 0 0 0 1096.721 38.52 A 5.329 5.329 0 0 0 1098.975 41.309 A 12.15 12.15 0 0 0 1100.644 42.18 Q 1102.468 42.98 1105.308 43.744 A 73.127 73.127 0 0 0 1108.325 44.482 A 70.196 70.196 0 0 1 1112.855 45.646 Q 1116.597 46.751 1119.287 48.096 Q 1123.486 50.195 1125.513 53.149 A 11.381 11.381 0 0 1 1127.316 57.673 A 15.424 15.424 0 0 1 1127.539 60.352 A 14.224 14.224 0 0 1 1126.297 66.367 Q 1124.887 69.432 1121.875 71.704 Q 1116.515 75.747 1108.138 75.964 A 37.071 37.071 0 0 1 1107.178 75.977 A 30.507 30.507 0 0 1 1101.24 75.424 A 23.595 23.595 0 0 1 1095.947 73.73 A 19.676 19.676 0 0 1 1091.126 70.64 A 17.116 17.116 0 0 1 1088.306 67.456 A 15.123 15.123 0 0 1 1085.547 58.74 L 1094.58 58.74 A 10.358 10.358 0 0 0 1095.397 62.354 A 9.193 9.193 0 0 0 1098.218 65.942 A 11.912 11.912 0 0 0 1102.687 68.085 Q 1104.721 68.604 1107.178 68.604 A 20.695 20.695 0 0 0 1110.463 68.358 Q 1112.258 68.069 1113.72 67.44 A 10.452 10.452 0 0 0 1115.405 66.528 A 7.656 7.656 0 0 0 1117.233 64.857 A 6.156 6.156 0 0 0 1118.506 60.986 A 7.761 7.761 0 0 0 1118.102 58.422 A 6.452 6.452 0 0 0 1115.747 55.298 A 11.672 11.672 0 0 0 1113.871 54.202 Q 1111.773 53.2 1108.495 52.36 A 59.907 59.907 0 0 0 1106.128 51.807 Q 1101.626 50.845 1098.343 49.632 A 29.103 29.103 0 0 1 1095.239 48.291 A 20.571 20.571 0 0 1 1092.513 46.643 Q 1091.057 45.59 1090.025 44.38 A 11.305 11.305 0 0 1 1089.282 43.408 A 11.071 11.071 0 0 1 1087.474 38.556 A 14.346 14.346 0 0 1 1087.354 36.67 A 13.405 13.405 0 0 1 1091.788 26.617 A 18.819 18.819 0 0 1 1092.847 25.684 Q 1098.34 21.191 1106.885 21.191 A 28.433 28.433 0 0 1 1113.146 21.844 A 19.527 19.527 0 0 1 1121.46 25.83 A 15.379 15.379 0 0 1 1125.653 31.116 A 15.243 15.243 0 0 1 1127.051 37.695 Z M 1761.621 37.695 L 1752.539 37.695 Q 1752.539 33.984 1749.39 31.299 Q 1746.24 28.613 1741.455 28.613 A 18.294 18.294 0 0 0 1738.45 28.845 Q 1736.853 29.111 1735.562 29.684 A 8.839 8.839 0 0 0 1733.74 30.762 A 7.251 7.251 0 0 0 1731.795 32.969 Q 1730.983 34.427 1730.958 36.258 A 8.552 8.552 0 0 0 1730.957 36.377 A 6.531 6.531 0 0 0 1731.291 38.52 A 5.329 5.329 0 0 0 1733.545 41.309 A 12.15 12.15 0 0 0 1735.214 42.18 Q 1737.038 42.98 1739.879 43.744 A 73.127 73.127 0 0 0 1742.896 44.482 A 70.196 70.196 0 0 1 1747.425 45.646 Q 1751.167 46.751 1753.857 48.096 Q 1758.057 50.195 1760.083 53.149 A 11.381 11.381 0 0 1 1761.886 57.673 A 15.424 15.424 0 0 1 1762.109 60.352 A 14.224 14.224 0 0 1 1760.867 66.367 Q 1759.457 69.432 1756.445 71.704 Q 1751.085 75.747 1742.709 75.964 A 37.071 37.071 0 0 1 1741.748 75.977 A 30.507 30.507 0 0 1 1735.81 75.424 A 23.595 23.595 0 0 1 1730.518 73.73 A 19.676 19.676 0 0 1 1725.696 70.64 A 17.116 17.116 0 0 1 1722.876 67.456 A 15.123 15.123 0 0 1 1720.117 58.74 L 1729.15 58.74 A 10.358 10.358 0 0 0 1729.967 62.354 A 9.193 9.193 0 0 0 1732.788 65.942 A 11.912 11.912 0 0 0 1737.257 68.085 Q 1739.291 68.604 1741.748 68.604 A 20.695 20.695 0 0 0 1745.033 68.358 Q 1746.828 68.069 1748.29 67.44 A 10.452 10.452 0 0 0 1749.976 66.528 A 7.656 7.656 0 0 0 1751.804 64.857 A 6.156 6.156 0 0 0 1753.076 60.986 A 7.761 7.761 0 0 0 1752.672 58.422 A 6.452 6.452 0 0 0 1750.317 55.298 A 11.672 11.672 0 0 0 1748.441 54.202 Q 1746.343 53.2 1743.066 52.36 A 59.907 59.907 0 0 0 1740.698 51.807 Q 1736.196 50.845 1732.914 49.632 A 29.103 29.103 0 0 1 1729.81 48.291 A 20.571 20.571 0 0 1 1727.084 46.643 Q 1725.628 45.59 1724.595 44.38 A 11.305 11.305 0 0 1 1723.853 43.408 A 11.071 11.071 0 0 1 1722.044 38.556 A 14.346 14.346 0 0 1 1721.924 36.67 A 13.405 13.405 0 0 1 1726.358 26.617 A 18.819 18.819 0 0 1 1727.417 25.684 Q 1732.91 21.191 1741.455 21.191 A 28.433 28.433 0 0 1 1747.716 21.844 A 19.527 19.527 0 0 1 1756.03 25.83 A 15.379 15.379 0 0 1 1760.223 31.116 A 15.243 15.243 0 0 1 1761.621 37.695 Z M 705.371 22.168 L 713.916 22.168 L 714.209 28.809 A 20.007 20.007 0 0 1 721.13 23.126 Q 724.984 21.252 729.723 21.193 A 24.818 24.818 0 0 1 730.029 21.191 A 21.166 21.166 0 0 1 737.068 22.264 Q 746.812 25.694 746.924 40.088 L 746.924 75 L 737.891 75 L 737.891 40.039 Q 737.842 34.326 735.278 31.592 Q 733.211 29.386 729.284 28.96 A 18.441 18.441 0 0 0 727.295 28.857 A 13.921 13.921 0 0 0 722.691 29.599 A 12.481 12.481 0 0 0 719.58 31.201 A 15.915 15.915 0 0 0 714.404 37.354 L 714.404 75 L 705.371 75 L 705.371 22.168 Z M 1007.813 22.168 L 1016.357 22.168 L 1016.65 28.809 A 20.007 20.007 0 0 1 1023.571 23.126 Q 1027.425 21.252 1032.164 21.193 A 24.818 24.818 0 0 1 1032.471 21.191 A 21.166 21.166 0 0 1 1039.51 22.264 Q 1049.254 25.694 1049.365 40.088 L 1049.365 75 L 1040.332 75 L 1040.332 40.039 Q 1040.283 34.326 1037.72 31.592 Q 1035.652 29.386 1031.726 28.96 A 18.441 18.441 0 0 0 1029.736 28.857 A 13.921 13.921 0 0 0 1025.132 29.599 A 12.481 12.481 0 0 0 1022.021 31.201 A 15.915 15.915 0 0 0 1016.846 37.354 L 1016.846 75 L 1007.813 75 L 1007.813 22.168 Z M 2784.082 22.168 L 2792.627 22.168 L 2792.92 28.809 A 20.007 20.007 0 0 1 2799.841 23.126 Q 2803.695 21.252 2808.434 21.193 A 24.818 24.818 0 0 1 2808.74 21.191 A 21.166 21.166 0 0 1 2815.779 22.264 Q 2825.523 25.694 2825.635 40.088 L 2825.635 75 L 2816.602 75 L 2816.602 40.039 Q 2816.553 34.326 2813.989 31.592 Q 2811.921 29.386 2807.995 28.96 A 18.441 18.441 0 0 0 2806.006 28.857 A 13.921 13.921 0 0 0 2801.402 29.599 A 12.481 12.481 0 0 0 2798.291 31.201 A 15.915 15.915 0 0 0 2793.115 37.354 L 2793.115 75 L 2784.082 75 L 2784.082 22.168 Z M 1229.15 75 L 1228.955 69.775 Q 1223.737 75.911 1213.69 75.976 A 33.325 33.325 0 0 1 1213.477 75.977 A 23.183 23.183 0 0 1 1208.367 75.448 Q 1203.579 74.366 1200.61 71.069 A 15.666 15.666 0 0 1 1197.465 65.544 Q 1196.665 63.189 1196.349 60.312 A 36.21 36.21 0 0 1 1196.143 56.543 L 1196.143 22.168 L 1205.176 22.168 L 1205.176 56.299 Q 1205.176 68.311 1214.941 68.311 A 21.414 21.414 0 0 0 1219.951 67.766 Q 1226.201 66.261 1228.711 60.596 L 1228.711 22.168 L 1237.744 22.168 L 1237.744 75 L 1229.15 75 Z M 1318.018 58.35 L 1326.563 58.35 A 15.912 15.912 0 0 1 1324.35 65.569 A 19.691 19.691 0 0 1 1323.438 66.992 A 20.315 20.315 0 0 1 1316.668 73.042 A 24.099 24.099 0 0 1 1315.747 73.535 Q 1310.938 75.977 1305.566 75.977 A 26.07 26.07 0 0 1 1297.819 74.88 A 20.435 20.435 0 0 1 1288.403 68.774 A 24.12 24.12 0 0 1 1283.251 58.996 Q 1282.031 54.541 1282.031 49.072 L 1282.031 47.559 Q 1282.031 39.844 1284.863 33.838 A 22.311 22.311 0 0 1 1289.747 27.013 A 21.018 21.018 0 0 1 1292.993 24.512 A 21.588 21.588 0 0 1 1301.397 21.484 A 28.104 28.104 0 0 1 1305.518 21.191 A 24.397 24.397 0 0 1 1312.719 22.21 A 19.847 19.847 0 0 1 1320.288 26.514 Q 1326.172 31.836 1326.563 40.332 L 1318.018 40.332 A 13.548 13.548 0 0 0 1316.882 35.729 A 12.08 12.08 0 0 0 1314.136 31.909 A 11.973 11.973 0 0 0 1306.034 28.622 A 15.573 15.573 0 0 0 1305.518 28.613 A 15.269 15.269 0 0 0 1300.835 29.296 A 12.007 12.007 0 0 0 1294.849 33.569 Q 1291.064 38.525 1291.064 47.9 L 1291.064 49.609 Q 1291.064 55.7 1292.737 59.922 A 15.655 15.655 0 0 0 1294.824 63.672 A 12.226 12.226 0 0 0 1303.565 68.495 A 17.897 17.897 0 0 0 1305.566 68.604 Q 1310.4 68.604 1314.014 65.674 A 11.194 11.194 0 0 0 1316.726 62.549 A 10.151 10.151 0 0 0 1318.018 58.35 Z M 1670.947 58.35 L 1679.492 58.35 A 15.912 15.912 0 0 1 1677.28 65.569 A 19.691 19.691 0 0 1 1676.367 66.992 A 20.315 20.315 0 0 1 1669.598 73.042 A 24.099 24.099 0 0 1 1668.677 73.535 Q 1663.867 75.977 1658.496 75.977 A 26.07 26.07 0 0 1 1650.749 74.88 A 20.435 20.435 0 0 1 1641.333 68.774 A 24.12 24.12 0 0 1 1636.181 58.996 Q 1634.961 54.541 1634.961 49.072 L 1634.961 47.559 Q 1634.961 39.844 1637.793 33.838 A 22.311 22.311 0 0 1 1642.677 27.013 A 21.018 21.018 0 0 1 1645.923 24.512 A 21.588 21.588 0 0 1 1654.326 21.484 A 28.104 28.104 0 0 1 1658.447 21.191 A 24.397 24.397 0 0 1 1665.648 22.21 A 19.847 19.847 0 0 1 1673.218 26.514 Q 1679.102 31.836 1679.492 40.332 L 1670.947 40.332 A 13.548 13.548 0 0 0 1669.812 35.729 A 12.08 12.08 0 0 0 1667.065 31.909 A 11.973 11.973 0 0 0 1658.964 28.622 A 15.573 15.573 0 0 0 1658.447 28.613 A 15.269 15.269 0 0 0 1653.764 29.296 A 12.007 12.007 0 0 0 1647.778 33.569 Q 1643.994 38.525 1643.994 47.9 L 1643.994 49.609 Q 1643.994 55.7 1645.667 59.922 A 15.655 15.655 0 0 0 1647.754 63.672 A 12.226 12.226 0 0 0 1656.494 68.495 A 17.897 17.897 0 0 0 1658.496 68.604 Q 1663.33 68.604 1666.943 65.674 A 11.194 11.194 0 0 0 1669.655 62.549 A 10.151 10.151 0 0 0 1670.947 58.35 Z M 466.602 75 L 459.814 56.445 L 430.029 56.445 L 423.34 75 L 413.672 75 L 440.82 3.906 L 449.023 3.906 L 476.221 75 L 466.602 75 Z M 106.25 75 L 96.777 75 Q 95.996 73.438 95.508 69.434 A 21.481 21.481 0 0 1 88.599 74.341 A 20.155 20.155 0 0 1 80.469 75.977 A 22.593 22.593 0 0 1 74.588 75.248 A 16.988 16.988 0 0 1 67.651 71.558 A 14.202 14.202 0 0 1 62.667 61.217 A 17.812 17.812 0 0 1 62.646 60.352 A 17.307 17.307 0 0 1 63.585 54.521 A 14.557 14.557 0 0 1 68.921 47.534 Q 75.195 42.969 86.572 42.969 L 95.361 42.969 L 95.361 38.818 A 12.803 12.803 0 0 0 94.964 35.541 A 9.196 9.196 0 0 0 92.529 31.274 Q 89.697 28.467 84.18 28.467 A 15.837 15.837 0 0 0 80.379 28.901 A 11.865 11.865 0 0 0 76.074 30.908 A 9.506 9.506 0 0 0 74.245 32.664 A 6.582 6.582 0 0 0 72.803 36.816 L 63.721 36.816 A 11.565 11.565 0 0 1 65.109 31.387 A 15.652 15.652 0 0 1 66.528 29.175 A 18.11 18.11 0 0 1 71.598 24.67 A 22.807 22.807 0 0 1 74.146 23.34 A 24.987 24.987 0 0 1 82.764 21.255 A 29.659 29.659 0 0 1 84.717 21.191 A 29.439 29.439 0 0 1 90.466 21.719 Q 95.607 22.743 99.023 25.757 A 15.51 15.51 0 0 1 104.061 34.935 A 22.2 22.2 0 0 1 104.395 38.33 L 104.395 62.646 A 46.423 46.423 0 0 0 104.594 67.1 Q 105.003 71.332 106.25 74.219 L 106.25 75 Z M 193.311 75 L 183.838 75 Q 183.057 73.438 182.568 69.434 A 21.481 21.481 0 0 1 175.659 74.341 A 20.155 20.155 0 0 1 167.529 75.977 A 22.593 22.593 0 0 1 161.648 75.248 A 16.988 16.988 0 0 1 154.712 71.558 A 14.202 14.202 0 0 1 149.728 61.217 A 17.812 17.812 0 0 1 149.707 60.352 A 17.307 17.307 0 0 1 150.645 54.521 A 14.557 14.557 0 0 1 155.981 47.534 Q 162.256 42.969 173.633 42.969 L 182.422 42.969 L 182.422 38.818 A 12.803 12.803 0 0 0 182.025 35.541 A 9.196 9.196 0 0 0 179.59 31.274 Q 176.758 28.467 171.24 28.467 A 15.837 15.837 0 0 0 167.44 28.901 A 11.865 11.865 0 0 0 163.135 30.908 A 9.506 9.506 0 0 0 161.306 32.664 A 6.582 6.582 0 0 0 159.863 36.816 L 150.781 36.816 A 11.565 11.565 0 0 1 152.169 31.387 A 15.652 15.652 0 0 1 153.589 29.175 A 18.11 18.11 0 0 1 158.659 24.67 A 22.807 22.807 0 0 1 161.206 23.34 A 24.987 24.987 0 0 1 169.825 21.255 A 29.659 29.659 0 0 1 171.777 21.191 A 29.439 29.439 0 0 1 177.527 21.719 Q 182.667 22.743 186.084 25.757 A 15.51 15.51 0 0 1 191.121 34.935 A 22.2 22.2 0 0 1 191.455 38.33 L 191.455 62.646 A 46.423 46.423 0 0 0 191.655 67.1 Q 192.064 71.332 193.311 74.219 L 193.311 75 Z M 693.066 75 L 683.594 75 Q 682.813 73.438 682.324 69.434 A 21.481 21.481 0 0 1 675.415 74.341 A 20.155 20.155 0 0 1 667.285 75.977 A 22.593 22.593 0 0 1 661.404 75.248 A 16.988 16.988 0 0 1 654.468 71.558 A 14.202 14.202 0 0 1 649.484 61.217 A 17.812 17.812 0 0 1 649.463 60.352 A 17.307 17.307 0 0 1 650.401 54.521 A 14.557 14.557 0 0 1 655.737 47.534 Q 662.012 42.969 673.389 42.969 L 682.178 42.969 L 682.178 38.818 A 12.803 12.803 0 0 0 681.781 35.541 A 9.196 9.196 0 0 0 679.346 31.274 Q 676.514 28.467 670.996 28.467 A 15.837 15.837 0 0 0 667.196 28.901 A 11.865 11.865 0 0 0 662.891 30.908 A 9.506 9.506 0 0 0 661.062 32.664 A 6.582 6.582 0 0 0 659.619 36.816 L 650.537 36.816 A 11.565 11.565 0 0 1 651.925 31.387 A 15.652 15.652 0 0 1 653.345 29.175 A 18.11 18.11 0 0 1 658.415 24.67 A 22.807 22.807 0 0 1 660.962 23.34 A 24.987 24.987 0 0 1 669.581 21.255 A 29.659 29.659 0 0 1 671.533 21.191 A 29.439 29.439 0 0 1 677.283 21.719 Q 682.423 22.743 685.84 25.757 A 15.51 15.51 0 0 1 690.877 34.935 A 22.2 22.2 0 0 1 691.211 38.33 L 691.211 62.646 A 46.423 46.423 0 0 0 691.411 67.1 Q 691.82 71.332 693.066 74.219 L 693.066 75 Z M 1950.879 75 L 1941.406 75 Q 1940.625 73.438 1940.137 69.434 A 21.481 21.481 0 0 1 1933.228 74.341 A 20.155 20.155 0 0 1 1925.098 75.977 A 22.593 22.593 0 0 1 1919.217 75.248 A 16.988 16.988 0 0 1 1912.28 71.558 A 14.202 14.202 0 0 1 1907.296 61.217 A 17.812 17.812 0 0 1 1907.275 60.352 A 17.307 17.307 0 0 1 1908.214 54.521 A 14.557 14.557 0 0 1 1913.55 47.534 Q 1919.824 42.969 1931.201 42.969 L 1939.99 42.969 L 1939.99 38.818 A 12.803 12.803 0 0 0 1939.593 35.541 A 9.196 9.196 0 0 0 1937.158 31.274 Q 1934.326 28.467 1928.809 28.467 A 15.837 15.837 0 0 0 1925.008 28.901 A 11.865 11.865 0 0 0 1920.703 30.908 A 9.506 9.506 0 0 0 1918.874 32.664 A 6.582 6.582 0 0 0 1917.432 36.816 L 1908.35 36.816 A 11.565 11.565 0 0 1 1909.738 31.387 A 15.652 15.652 0 0 1 1911.157 29.175 A 18.11 18.11 0 0 1 1916.227 24.67 A 22.807 22.807 0 0 1 1918.774 23.34 A 24.987 24.987 0 0 1 1927.393 21.255 A 29.659 29.659 0 0 1 1929.346 21.191 A 29.439 29.439 0 0 1 1935.095 21.719 Q 1940.236 22.743 1943.652 25.757 A 15.51 15.51 0 0 1 1948.69 34.935 A 22.2 22.2 0 0 1 1949.023 38.33 L 1949.023 62.646 A 46.423 46.423 0 0 0 1949.223 67.1 Q 1949.632 71.332 1950.879 74.219 L 1950.879 75 Z M 2486.816 75 L 2477.344 75 Q 2476.563 73.438 2476.074 69.434 A 21.481 21.481 0 0 1 2469.165 74.341 A 20.155 20.155 0 0 1 2461.035 75.977 A 22.593 22.593 0 0 1 2455.154 75.248 A 16.988 16.988 0 0 1 2448.218 71.558 A 14.202 14.202 0 0 1 2443.234 61.217 A 17.812 17.812 0 0 1 2443.213 60.352 A 17.307 17.307 0 0 1 2444.151 54.521 A 14.557 14.557 0 0 1 2449.487 47.534 Q 2455.762 42.969 2467.139 42.969 L 2475.928 42.969 L 2475.928 38.818 A 12.803 12.803 0 0 0 2475.531 35.541 A 9.196 9.196 0 0 0 2473.096 31.274 Q 2470.264 28.467 2464.746 28.467 A 15.837 15.837 0 0 0 2460.946 28.901 A 11.865 11.865 0 0 0 2456.641 30.908 A 9.506 9.506 0 0 0 2454.812 32.664 A 6.582 6.582 0 0 0 2453.369 36.816 L 2444.287 36.816 A 11.565 11.565 0 0 1 2445.675 31.387 A 15.652 15.652 0 0 1 2447.095 29.175 A 18.11 18.11 0 0 1 2452.165 24.67 A 22.807 22.807 0 0 1 2454.712 23.34 A 24.987 24.987 0 0 1 2463.331 21.255 A 29.659 29.659 0 0 1 2465.283 21.191 A 29.439 29.439 0 0 1 2471.033 21.719 Q 2476.173 22.743 2479.59 25.757 A 15.51 15.51 0 0 1 2484.627 34.935 A 22.2 22.2 0 0 1 2484.961 38.33 L 2484.961 62.646 A 46.423 46.423 0 0 0 2485.161 67.1 Q 2485.57 71.332 2486.816 74.219 L 2486.816 75 Z M 2771.777 75 L 2762.305 75 Q 2761.523 73.438 2761.035 69.434 A 21.481 21.481 0 0 1 2754.126 74.341 A 20.155 20.155 0 0 1 2745.996 75.977 A 22.593 22.593 0 0 1 2740.115 75.248 A 16.988 16.988 0 0 1 2733.179 71.558 A 14.202 14.202 0 0 1 2728.195 61.217 A 17.812 17.812 0 0 1 2728.174 60.352 A 17.307 17.307 0 0 1 2729.112 54.521 A 14.557 14.557 0 0 1 2734.448 47.534 Q 2740.723 42.969 2752.1 42.969 L 2760.889 42.969 L 2760.889 38.818 A 12.803 12.803 0 0 0 2760.491 35.541 A 9.196 9.196 0 0 0 2758.057 31.274 Q 2755.225 28.467 2749.707 28.467 A 15.837 15.837 0 0 0 2745.906 28.901 A 11.865 11.865 0 0 0 2741.602 30.908 A 9.506 9.506 0 0 0 2739.773 32.664 A 6.582 6.582 0 0 0 2738.33 36.816 L 2729.248 36.816 A 11.565 11.565 0 0 1 2730.636 31.387 A 15.652 15.652 0 0 1 2732.056 29.175 A 18.11 18.11 0 0 1 2737.126 24.67 A 22.807 22.807 0 0 1 2739.673 23.34 A 24.987 24.987 0 0 1 2748.292 21.255 A 29.659 29.659 0 0 1 2750.244 21.191 A 29.439 29.439 0 0 1 2755.993 21.719 Q 2761.134 22.743 2764.551 25.757 A 15.51 15.51 0 0 1 2769.588 34.935 A 22.2 22.2 0 0 1 2769.922 38.33 L 2769.922 62.646 A 46.423 46.423 0 0 0 2770.122 67.1 Q 2770.531 71.332 2771.777 74.219 L 2771.777 75 Z M 758.35 48.828 L 758.35 48.145 A 41.798 41.798 0 0 1 759.094 40.021 Q 760.42 33.328 764.111 28.589 Q 769.777 21.314 778.891 21.193 A 23.294 23.294 0 0 1 779.199 21.191 A 21.822 21.822 0 0 1 785.843 22.155 A 17.317 17.317 0 0 1 793.896 27.539 L 793.896 0 L 802.93 0 L 802.93 75 L 794.629 75 L 794.189 69.336 Q 788.77 75.977 779.102 75.977 A 17.782 17.782 0 0 1 765.538 70.116 A 23.09 23.09 0 0 1 764.136 68.457 A 26.727 26.727 0 0 1 759.418 58.387 Q 758.35 54.031 758.35 48.828 Z M 2046.631 48.828 L 2046.631 48.145 A 41.798 41.798 0 0 1 2047.375 40.021 Q 2048.701 33.328 2052.393 28.589 Q 2058.059 21.314 2067.172 21.193 A 23.294 23.294 0 0 1 2067.48 21.191 A 21.822 21.822 0 0 1 2074.125 22.155 A 17.317 17.317 0 0 1 2082.178 27.539 L 2082.178 0 L 2091.211 0 L 2091.211 75 L 2082.91 75 L 2082.471 69.336 Q 2077.051 75.977 2067.383 75.977 A 17.782 17.782 0 0 1 2053.82 70.116 A 23.09 23.09 0 0 1 2052.417 68.457 A 26.727 26.727 0 0 1 2047.699 58.387 Q 2046.631 54.031 2046.631 48.828 Z M 943.359 48.34 L 943.359 49.17 A 42.978 42.978 0 0 1 942.647 57.233 Q 941.739 61.985 939.674 65.753 A 23.997 23.997 0 0 1 937.842 68.604 A 17.447 17.447 0 0 1 925.195 75.861 A 22.362 22.362 0 0 1 922.9 75.977 Q 913.281 75.977 907.764 69.873 L 907.764 95.313 L 898.73 95.313 L 898.73 22.168 L 906.982 22.168 L 907.422 28.027 Q 912.939 21.191 922.754 21.191 A 20.317 20.317 0 0 1 929.833 22.376 A 17.739 17.739 0 0 1 937.817 28.369 Q 942.347 34.236 943.175 43.855 A 52.378 52.378 0 0 1 943.359 48.34 Z M 1459.082 48.34 L 1459.082 49.17 A 42.978 42.978 0 0 1 1458.369 57.233 Q 1457.461 61.985 1455.396 65.753 A 23.997 23.997 0 0 1 1453.564 68.604 A 17.447 17.447 0 0 1 1440.918 75.861 A 22.362 22.362 0 0 1 1438.623 75.977 Q 1429.004 75.977 1423.486 69.873 L 1423.486 95.313 L 1414.453 95.313 L 1414.453 22.168 L 1422.705 22.168 L 1423.145 28.027 Q 1428.662 21.191 1438.477 21.191 A 20.317 20.317 0 0 1 1445.556 22.376 A 17.739 17.739 0 0 1 1453.54 28.369 Q 1458.07 34.236 1458.897 43.855 A 52.378 52.378 0 0 1 1459.082 48.34 Z M 254.883 50.049 L 254.883 48.389 A 35.217 35.217 0 0 1 255.73 40.511 A 28.681 28.681 0 0 1 257.886 34.351 A 24.345 24.345 0 0 1 262.857 27.4 A 22.592 22.592 0 0 1 266.284 24.683 A 21.115 21.115 0 0 1 277.979 21.191 A 25.048 25.048 0 0 1 284.791 22.068 A 18.214 18.214 0 0 1 293.994 27.979 Q 299.707 34.766 299.707 47.412 L 299.707 51.172 L 263.916 51.172 A 23.461 23.461 0 0 0 264.706 56.817 A 16.845 16.845 0 0 0 268.481 63.794 A 14.244 14.244 0 0 0 278.86 68.589 A 18.354 18.354 0 0 0 279.59 68.604 A 19.593 19.593 0 0 0 283.236 68.281 Q 285.559 67.841 287.431 66.801 A 12.287 12.287 0 0 0 287.695 66.65 Q 291.016 64.697 293.506 61.475 L 299.023 65.771 A 21.402 21.402 0 0 1 283.471 75.675 A 30.546 30.546 0 0 1 279.102 75.977 A 26.605 26.605 0 0 1 270.755 74.722 A 21.937 21.937 0 0 1 261.621 68.921 A 23.728 23.728 0 0 1 255.574 57.13 A 34.476 34.476 0 0 1 254.883 50.049 Z M 952.539 50.049 L 952.539 48.389 A 35.217 35.217 0 0 1 953.387 40.511 A 28.681 28.681 0 0 1 955.542 34.351 A 24.345 24.345 0 0 1 960.514 27.4 A 22.592 22.592 0 0 1 963.94 24.683 A 21.115 21.115 0 0 1 975.635 21.191 A 25.048 25.048 0 0 1 982.447 22.068 A 18.214 18.214 0 0 1 991.65 27.979 Q 997.363 34.766 997.363 47.412 L 997.363 51.172 L 961.572 51.172 A 23.461 23.461 0 0 0 962.362 56.817 A 16.845 16.845 0 0 0 966.138 63.794 A 14.244 14.244 0 0 0 976.516 68.589 A 18.354 18.354 0 0 0 977.246 68.604 A 19.593 19.593 0 0 0 980.892 68.281 Q 983.215 67.841 985.087 66.801 A 12.287 12.287 0 0 0 985.352 66.65 Q 988.672 64.697 991.162 61.475 L 996.68 65.771 A 21.402 21.402 0 0 1 981.127 75.675 A 30.546 30.546 0 0 1 976.758 75.977 A 26.605 26.605 0 0 1 968.411 74.722 A 21.937 21.937 0 0 1 959.277 68.921 A 23.728 23.728 0 0 1 953.23 57.13 A 34.476 34.476 0 0 1 952.539 50.049 Z M 1334.424 50.049 L 1334.424 48.389 A 35.217 35.217 0 0 1 1335.271 40.511 A 28.681 28.681 0 0 1 1337.427 34.351 A 24.345 24.345 0 0 1 1342.399 27.4 A 22.592 22.592 0 0 1 1345.825 24.683 A 21.115 21.115 0 0 1 1357.52 21.191 A 25.048 25.048 0 0 1 1364.332 22.068 A 18.214 18.214 0 0 1 1373.535 27.979 Q 1379.248 34.766 1379.248 47.412 L 1379.248 51.172 L 1343.457 51.172 A 23.461 23.461 0 0 0 1344.247 56.817 A 16.845 16.845 0 0 0 1348.022 63.794 A 14.244 14.244 0 0 0 1358.401 68.589 A 18.354 18.354 0 0 0 1359.131 68.604 A 19.593 19.593 0 0 0 1362.777 68.281 Q 1365.1 67.841 1366.972 66.801 A 12.287 12.287 0 0 0 1367.236 66.65 Q 1370.557 64.697 1373.047 61.475 L 1378.564 65.771 A 21.402 21.402 0 0 1 1363.012 75.675 A 30.546 30.546 0 0 1 1358.643 75.977 A 26.605 26.605 0 0 1 1350.296 74.722 A 21.937 21.937 0 0 1 1341.162 68.921 A 23.728 23.728 0 0 1 1335.115 57.13 A 34.476 34.476 0 0 1 1334.424 50.049 Z M 1582.031 50.049 L 1582.031 48.389 A 35.217 35.217 0 0 1 1582.879 40.511 A 28.681 28.681 0 0 1 1585.034 34.351 A 24.345 24.345 0 0 1 1590.006 27.4 A 22.592 22.592 0 0 1 1593.433 24.683 A 21.115 21.115 0 0 1 1605.127 21.191 A 25.048 25.048 0 0 1 1611.939 22.068 A 18.214 18.214 0 0 1 1621.143 27.979 Q 1626.855 34.766 1626.855 47.412 L 1626.855 51.172 L 1591.064 51.172 A 23.461 23.461 0 0 0 1591.854 56.817 A 16.845 16.845 0 0 0 1595.63 63.794 A 14.244 14.244 0 0 0 1606.008 68.589 A 18.354 18.354 0 0 0 1606.738 68.604 A 19.593 19.593 0 0 0 1610.384 68.281 Q 1612.707 67.841 1614.58 66.801 A 12.287 12.287 0 0 0 1614.844 66.65 Q 1618.164 64.697 1620.654 61.475 L 1626.172 65.771 A 21.402 21.402 0 0 1 1610.619 75.675 A 30.546 30.546 0 0 1 1606.25 75.977 A 26.605 26.605 0 0 1 1597.903 74.722 A 21.937 21.937 0 0 1 1588.77 68.921 A 23.728 23.728 0 0 1 1582.723 57.13 A 34.476 34.476 0 0 1 1582.031 50.049 Z M 1829.248 50.049 L 1829.248 48.389 A 35.217 35.217 0 0 1 1830.096 40.511 A 28.681 28.681 0 0 1 1832.251 34.351 A 24.345 24.345 0 0 1 1837.223 27.4 A 22.592 22.592 0 0 1 1840.649 24.683 A 21.115 21.115 0 0 1 1852.344 21.191 A 25.048 25.048 0 0 1 1859.156 22.068 A 18.214 18.214 0 0 1 1868.359 27.979 Q 1874.072 34.766 1874.072 47.412 L 1874.072 51.172 L 1838.281 51.172 A 23.461 23.461 0 0 0 1839.071 56.817 A 16.845 16.845 0 0 0 1842.847 63.794 A 14.244 14.244 0 0 0 1853.225 68.589 A 18.354 18.354 0 0 0 1853.955 68.604 A 19.593 19.593 0 0 0 1857.601 68.281 Q 1859.924 67.841 1861.796 66.801 A 12.287 12.287 0 0 0 1862.061 66.65 Q 1865.381 64.697 1867.871 61.475 L 1873.389 65.771 A 21.402 21.402 0 0 1 1857.836 75.675 A 30.546 30.546 0 0 1 1853.467 75.977 A 26.605 26.605 0 0 1 1845.12 74.722 A 21.937 21.937 0 0 1 1835.986 68.921 A 23.728 23.728 0 0 1 1829.939 57.13 A 34.476 34.476 0 0 1 1829.248 50.049 Z M 1993.555 50.049 L 1993.555 48.389 A 35.217 35.217 0 0 1 1994.402 40.511 A 28.681 28.681 0 0 1 1996.558 34.351 A 24.345 24.345 0 0 1 2001.529 27.4 A 22.592 22.592 0 0 1 2004.956 24.683 A 21.115 21.115 0 0 1 2016.65 21.191 A 25.048 25.048 0 0 1 2023.463 22.068 A 18.214 18.214 0 0 1 2032.666 27.979 Q 2038.379 34.766 2038.379 47.412 L 2038.379 51.172 L 2002.588 51.172 A 23.461 23.461 0 0 0 2003.378 56.817 A 16.845 16.845 0 0 0 2007.153 63.794 A 14.244 14.244 0 0 0 2017.532 68.589 A 18.354 18.354 0 0 0 2018.262 68.604 A 19.593 19.593 0 0 0 2021.908 68.281 Q 2024.231 67.841 2026.103 66.801 A 12.287 12.287 0 0 0 2026.367 66.65 Q 2029.688 64.697 2032.178 61.475 L 2037.695 65.771 A 21.402 21.402 0 0 1 2022.143 75.675 A 30.546 30.546 0 0 1 2017.773 75.977 A 26.605 26.605 0 0 1 2009.427 74.722 A 21.937 21.937 0 0 1 2000.293 68.921 A 23.728 23.728 0 0 1 1994.246 57.13 A 34.476 34.476 0 0 1 1993.555 50.049 Z M 2529.492 50.049 L 2529.492 48.389 A 35.217 35.217 0 0 1 2530.34 40.511 A 28.681 28.681 0 0 1 2532.495 34.351 A 24.345 24.345 0 0 1 2537.467 27.4 A 22.592 22.592 0 0 1 2540.894 24.683 A 21.115 21.115 0 0 1 2552.588 21.191 A 25.048 25.048 0 0 1 2559.4 22.068 A 18.214 18.214 0 0 1 2568.604 27.979 Q 2574.316 34.766 2574.316 47.412 L 2574.316 51.172 L 2538.525 51.172 A 23.461 23.461 0 0 0 2539.315 56.817 A 16.845 16.845 0 0 0 2543.091 63.794 A 14.244 14.244 0 0 0 2553.469 68.589 A 18.354 18.354 0 0 0 2554.199 68.604 A 19.593 19.593 0 0 0 2557.845 68.281 Q 2560.168 67.841 2562.041 66.801 A 12.287 12.287 0 0 0 2562.305 66.65 Q 2565.625 64.697 2568.115 61.475 L 2573.633 65.771 A 21.402 21.402 0 0 1 2558.08 75.675 A 30.546 30.546 0 0 1 2553.711 75.977 A 26.605 26.605 0 0 1 2545.364 74.722 A 21.937 21.937 0 0 1 2536.23 68.921 A 23.728 23.728 0 0 1 2530.184 57.13 A 34.476 34.476 0 0 1 2529.492 50.049 Z M 2893.066 50.049 L 2893.066 48.389 A 35.217 35.217 0 0 1 2893.914 40.511 A 28.681 28.681 0 0 1 2896.069 34.351 A 24.345 24.345 0 0 1 2901.041 27.4 A 22.592 22.592 0 0 1 2904.468 24.683 A 21.115 21.115 0 0 1 2916.162 21.191 A 25.048 25.048 0 0 1 2922.974 22.068 A 18.214 18.214 0 0 1 2932.178 27.979 Q 2937.891 34.766 2937.891 47.412 L 2937.891 51.172 L 2902.1 51.172 A 23.461 23.461 0 0 0 2902.889 56.817 A 16.845 16.845 0 0 0 2906.665 63.794 A 14.244 14.244 0 0 0 2917.044 68.589 A 18.354 18.354 0 0 0 2917.773 68.604 A 19.593 19.593 0 0 0 2921.42 68.281 Q 2923.742 67.841 2925.615 66.801 A 12.287 12.287 0 0 0 2925.879 66.65 Q 2929.199 64.697 2931.689 61.475 L 2937.207 65.771 A 21.402 21.402 0 0 1 2921.654 75.675 A 30.546 30.546 0 0 1 2917.285 75.977 A 26.605 26.605 0 0 1 2908.938 74.722 A 21.937 21.937 0 0 1 2899.805 68.921 A 23.728 23.728 0 0 1 2893.758 57.13 A 34.476 34.476 0 0 1 2893.066 50.049 Z M 511.914 47.168 L 495.166 47.168 L 495.166 75 L 485.791 75 L 485.791 3.906 L 512.012 3.906 A 36.837 36.837 0 0 1 519.399 4.602 Q 523.872 5.518 527.323 7.64 A 20.433 20.433 0 0 1 530.298 9.863 A 19.686 19.686 0 0 1 536.823 23.387 A 27.227 27.227 0 0 1 536.914 25.635 A 26.474 26.474 0 0 1 536.15 32.189 A 17.94 17.94 0 0 1 530.444 41.577 Q 523.975 47.168 511.914 47.168 Z M 19.678 75 L 0 75 L 0 3.906 L 20.068 3.906 A 35.659 35.659 0 0 1 29.287 5.055 A 29.679 29.679 0 0 1 36.475 8.008 A 27.74 27.74 0 0 1 47.485 19.678 A 35.446 35.446 0 0 1 51.006 31.11 A 45.253 45.253 0 0 1 51.416 37.061 L 51.416 41.602 Q 51.416 51.66 47.534 59.229 A 27.305 27.305 0 0 1 36.45 70.85 A 32.013 32.013 0 0 1 25.428 74.553 A 41.308 41.308 0 0 1 19.678 75 Z M 121.777 9.375 L 130.811 9.375 L 130.811 22.168 L 140.674 22.168 L 140.674 29.15 L 130.811 29.15 L 130.811 61.914 A 12.204 12.204 0 0 0 130.927 63.659 Q 131.056 64.549 131.328 65.268 A 4.894 4.894 0 0 0 132.129 66.675 A 3.9 3.9 0 0 0 133.738 67.801 Q 134.398 68.06 135.227 68.173 A 10.308 10.308 0 0 0 136.621 68.262 A 11.617 11.617 0 0 0 137.705 68.205 Q 138.846 68.097 140.399 67.784 A 44.686 44.686 0 0 0 140.918 67.676 L 140.918 75 A 27.369 27.369 0 0 1 136.109 75.881 A 23.968 23.968 0 0 1 133.984 75.977 Q 129.017 75.977 126.054 73.511 A 9.511 9.511 0 0 1 124.854 72.314 A 12.049 12.049 0 0 1 122.608 68.085 Q 121.777 65.415 121.777 61.914 L 121.777 29.15 L 112.158 29.15 L 112.158 22.168 L 121.777 22.168 L 121.777 9.375 Z M 313.379 9.375 L 322.412 9.375 L 322.412 22.168 L 332.275 22.168 L 332.275 29.15 L 322.412 29.15 L 322.412 61.914 A 12.204 12.204 0 0 0 322.528 63.659 Q 322.657 64.549 322.93 65.268 A 4.894 4.894 0 0 0 323.73 66.675 A 3.9 3.9 0 0 0 325.34 67.801 Q 325.999 68.06 326.829 68.173 A 10.308 10.308 0 0 0 328.223 68.262 A 11.617 11.617 0 0 0 329.306 68.205 Q 330.448 68.097 332 67.784 A 44.686 44.686 0 0 0 332.52 67.676 L 332.52 75 A 27.369 27.369 0 0 1 327.711 75.881 A 23.968 23.968 0 0 1 325.586 75.977 Q 320.618 75.977 317.655 73.511 A 9.511 9.511 0 0 1 316.455 72.314 A 12.049 12.049 0 0 1 314.209 68.085 Q 313.379 65.415 313.379 61.914 L 313.379 29.15 L 303.76 29.15 L 303.76 22.168 L 313.379 22.168 L 313.379 9.375 Z M 1692.871 9.375 L 1701.904 9.375 L 1701.904 22.168 L 1711.768 22.168 L 1711.768 29.15 L 1701.904 29.15 L 1701.904 61.914 A 12.204 12.204 0 0 0 1702.02 63.659 Q 1702.149 64.549 1702.422 65.268 A 4.894 4.894 0 0 0 1703.223 66.675 A 3.9 3.9 0 0 0 1704.832 67.801 Q 1705.491 68.06 1706.321 68.173 A 10.308 10.308 0 0 0 1707.715 68.262 A 11.617 11.617 0 0 0 1708.798 68.205 Q 1709.94 68.097 1711.493 67.784 A 44.686 44.686 0 0 0 1712.012 67.676 L 1712.012 75 A 27.369 27.369 0 0 1 1707.203 75.881 A 23.968 23.968 0 0 1 1705.078 75.977 Q 1700.11 75.977 1697.148 73.511 A 9.511 9.511 0 0 1 1695.947 72.314 A 12.049 12.049 0 0 1 1693.701 68.085 Q 1692.871 65.415 1692.871 61.914 L 1692.871 29.15 L 1683.252 29.15 L 1683.252 22.168 L 1692.871 22.168 L 1692.871 9.375 Z M 1966.406 9.375 L 1975.439 9.375 L 1975.439 22.168 L 1985.303 22.168 L 1985.303 29.15 L 1975.439 29.15 L 1975.439 61.914 A 12.204 12.204 0 0 0 1975.556 63.659 Q 1975.685 64.549 1975.957 65.268 A 4.894 4.894 0 0 0 1976.758 66.675 A 3.9 3.9 0 0 0 1978.367 67.801 Q 1979.026 68.06 1979.856 68.173 A 10.308 10.308 0 0 0 1981.25 68.262 A 11.617 11.617 0 0 0 1982.333 68.205 Q 1983.475 68.097 1985.028 67.784 A 44.686 44.686 0 0 0 1985.547 67.676 L 1985.547 75 A 27.369 27.369 0 0 1 1980.738 75.881 A 23.968 23.968 0 0 1 1978.613 75.977 Q 1973.645 75.977 1970.683 73.511 A 9.511 9.511 0 0 1 1969.482 72.314 A 12.049 12.049 0 0 1 1967.237 68.085 Q 1966.406 65.415 1966.406 61.914 L 1966.406 29.15 L 1956.787 29.15 L 1956.787 22.168 L 1966.406 22.168 L 1966.406 9.375 Z M 2133.203 9.375 L 2142.236 9.375 L 2142.236 22.168 L 2152.1 22.168 L 2152.1 29.15 L 2142.236 29.15 L 2142.236 61.914 A 12.204 12.204 0 0 0 2142.353 63.659 Q 2142.482 64.549 2142.754 65.268 A 4.894 4.894 0 0 0 2143.555 66.675 A 3.9 3.9 0 0 0 2145.164 67.801 Q 2145.823 68.06 2146.653 68.173 A 10.308 10.308 0 0 0 2148.047 68.262 A 11.617 11.617 0 0 0 2149.13 68.205 Q 2150.272 68.097 2151.825 67.784 A 44.686 44.686 0 0 0 2152.344 67.676 L 2152.344 75 A 27.369 27.369 0 0 1 2147.535 75.881 A 23.968 23.968 0 0 1 2145.41 75.977 Q 2140.442 75.977 2137.48 73.511 A 9.511 9.511 0 0 1 2136.279 72.314 A 12.049 12.049 0 0 1 2134.033 68.085 Q 2133.203 65.415 2133.203 61.914 L 2133.203 29.15 L 2123.584 29.15 L 2123.584 22.168 L 2133.203 22.168 L 2133.203 9.375 Z M 2502.344 9.375 L 2511.377 9.375 L 2511.377 22.168 L 2521.24 22.168 L 2521.24 29.15 L 2511.377 29.15 L 2511.377 61.914 A 12.204 12.204 0 0 0 2511.493 63.659 Q 2511.622 64.549 2511.894 65.268 A 4.894 4.894 0 0 0 2512.695 66.675 A 3.9 3.9 0 0 0 2514.305 67.801 Q 2514.964 68.06 2515.794 68.173 A 10.308 10.308 0 0 0 2517.187 68.262 A 11.617 11.617 0 0 0 2518.271 68.205 Q 2519.412 68.097 2520.965 67.784 A 44.686 44.686 0 0 0 2521.484 67.676 L 2521.484 75 A 27.369 27.369 0 0 1 2516.676 75.881 A 23.968 23.968 0 0 1 2514.551 75.977 Q 2509.583 75.977 2506.62 73.511 A 9.511 9.511 0 0 1 2505.42 72.314 A 12.049 12.049 0 0 1 2503.174 68.085 Q 2502.344 65.415 2502.344 61.914 L 2502.344 29.15 L 2492.725 29.15 L 2492.725 22.168 L 2502.344 22.168 L 2502.344 9.375 Z M 1560.742 22.168 L 1569.775 22.168 L 1569.775 81.104 A 24.476 24.476 0 0 1 1569.161 86.853 Q 1567.293 94.554 1559.753 96.003 A 20.145 20.145 0 0 1 1555.957 96.338 A 17.712 17.712 0 0 1 1552.242 95.961 A 15.288 15.288 0 0 1 1550.439 95.459 L 1550.439 88.232 A 10.987 10.987 0 0 0 1551.629 88.455 Q 1552.875 88.623 1554.541 88.623 A 8.961 8.961 0 0 0 1556.333 88.455 Q 1557.409 88.235 1558.232 87.728 A 4.77 4.77 0 0 0 1559.155 86.987 A 4.581 4.581 0 0 0 1560.091 85.499 Q 1560.742 83.895 1560.742 81.299 L 1560.742 22.168 Z M 1894.336 0 L 1894.336 75 L 1885.303 75 L 1885.303 0 L 1894.336 0 Z M 2318.359 0 L 2318.359 75 L 2309.326 75 L 2309.326 0 L 2318.359 0 Z M 839.307 48.73 L 839.307 48.096 A 33.961 33.961 0 0 1 840.272 39.856 A 28.587 28.587 0 0 1 842.358 34.131 A 23.999 23.999 0 0 1 846.966 27.625 A 21.745 21.745 0 0 1 850.854 24.561 A 22.626 22.626 0 0 1 861.348 21.258 A 27.674 27.674 0 0 1 863.281 21.191 A 25.301 25.301 0 0 1 871.652 22.521 A 21.518 21.518 0 0 1 880.737 28.662 A 25.439 25.439 0 0 1 886.504 40.092 A 37.474 37.474 0 0 1 887.402 48.535 L 887.402 49.17 A 34.597 34.597 0 0 1 886.519 57.133 A 28.637 28.637 0 0 1 884.448 63.013 A 22.849 22.849 0 0 1 878.589 70.68 A 22.23 22.23 0 0 1 876.001 72.559 A 22.726 22.726 0 0 1 865.781 75.876 A 28.098 28.098 0 0 1 863.379 75.977 A 25.13 25.13 0 0 1 855.041 74.647 A 21.534 21.534 0 0 1 845.972 68.506 Q 839.307 61.035 839.307 48.73 Z M 1136.914 48.73 L 1136.914 48.096 A 33.961 33.961 0 0 1 1137.88 39.856 A 28.587 28.587 0 0 1 1139.966 34.131 A 23.999 23.999 0 0 1 1144.574 27.625 A 21.745 21.745 0 0 1 1148.462 24.561 A 22.626 22.626 0 0 1 1158.955 21.258 A 27.674 27.674 0 0 1 1160.889 21.191 A 25.301 25.301 0 0 1 1169.259 22.521 A 21.518 21.518 0 0 1 1178.345 28.662 A 25.439 25.439 0 0 1 1184.111 40.092 A 37.474 37.474 0 0 1 1185.01 48.535 L 1185.01 49.17 A 34.597 34.597 0 0 1 1184.126 57.133 A 28.637 28.637 0 0 1 1182.056 63.013 A 22.849 22.849 0 0 1 1176.196 70.68 A 22.23 22.23 0 0 1 1173.608 72.559 A 22.726 22.726 0 0 1 1163.389 75.876 A 28.098 28.098 0 0 1 1160.986 75.977 A 25.13 25.13 0 0 1 1152.648 74.647 A 21.534 21.534 0 0 1 1143.579 68.506 Q 1136.914 61.035 1136.914 48.73 Z M 1501.025 48.73 L 1501.025 48.096 A 33.961 33.961 0 0 1 1501.991 39.856 A 28.587 28.587 0 0 1 1504.077 34.131 A 23.999 23.999 0 0 1 1508.685 27.625 A 21.745 21.745 0 0 1 1512.573 24.561 A 22.626 22.626 0 0 1 1523.067 21.258 A 27.674 27.674 0 0 1 1525 21.191 A 25.301 25.301 0 0 1 1533.371 22.521 A 21.518 21.518 0 0 1 1542.456 28.662 A 25.439 25.439 0 0 1 1548.222 40.092 A 37.474 37.474 0 0 1 1549.121 48.535 L 1549.121 49.17 A 34.597 34.597 0 0 1 1548.238 57.133 A 28.637 28.637 0 0 1 1546.167 63.013 A 22.849 22.849 0 0 1 1540.308 70.68 A 22.23 22.23 0 0 1 1537.72 72.559 A 22.726 22.726 0 0 1 1527.5 75.876 A 28.098 28.098 0 0 1 1525.098 75.977 A 25.13 25.13 0 0 1 1516.76 74.647 A 21.534 21.534 0 0 1 1507.69 68.506 Q 1501.025 61.035 1501.025 48.73 Z M 2159.277 48.73 L 2159.277 48.096 A 33.961 33.961 0 0 1 2160.243 39.856 A 28.587 28.587 0 0 1 2162.329 34.131 A 23.999 23.999 0 0 1 2166.937 27.625 A 21.745 21.745 0 0 1 2170.825 24.561 A 22.626 22.626 0 0 1 2181.319 21.258 A 27.674 27.674 0 0 1 2183.252 21.191 A 25.301 25.301 0 0 1 2191.623 22.521 A 21.518 21.518 0 0 1 2200.708 28.662 A 25.439 25.439 0 0 1 2206.474 40.092 A 37.474 37.474 0 0 1 2207.373 48.535 L 2207.373 49.17 A 34.597 34.597 0 0 1 2206.49 57.133 A 28.637 28.637 0 0 1 2204.419 63.013 A 22.849 22.849 0 0 1 2198.56 70.68 A 22.23 22.23 0 0 1 2195.972 72.559 A 22.726 22.726 0 0 1 2185.752 75.876 A 28.098 28.098 0 0 1 2183.35 75.977 A 25.13 25.13 0 0 1 2175.012 74.647 A 21.534 21.534 0 0 1 2165.942 68.506 Q 2159.277 61.035 2159.277 48.73 Z M 1277.002 21.875 L 1277.002 30.273 A 25.009 25.009 0 0 0 1274.305 29.98 A 30.912 30.912 0 0 0 1272.559 29.932 Q 1263.916 29.932 1260.677 37.09 A 16.051 16.051 0 0 0 1260.498 37.5 L 1260.498 75 L 1251.465 75 L 1251.465 22.168 L 1260.254 22.168 L 1260.4 28.271 A 16.014 16.014 0 0 1 1264.255 23.957 Q 1267.902 21.191 1272.998 21.191 A 16.507 16.507 0 0 1 1274.381 21.245 Q 1275.812 21.366 1276.743 21.756 A 4.272 4.272 0 0 1 1277.002 21.875 Z M 1496.094 21.875 L 1496.094 30.273 A 25.009 25.009 0 0 0 1493.397 29.98 A 30.912 30.912 0 0 0 1491.65 29.932 Q 1483.008 29.932 1479.769 37.09 A 16.051 16.051 0 0 0 1479.59 37.5 L 1479.59 75 L 1470.557 75 L 1470.557 22.168 L 1479.346 22.168 L 1479.492 28.271 A 16.014 16.014 0 0 1 1483.347 23.957 Q 1486.993 21.191 1492.09 21.191 A 16.507 16.507 0 0 1 1493.473 21.245 Q 1494.904 21.366 1495.835 21.756 A 4.272 4.272 0 0 1 1496.094 21.875 Z M 1824.17 21.875 L 1824.17 30.273 A 25.009 25.009 0 0 0 1821.473 29.98 A 30.912 30.912 0 0 0 1819.727 29.932 Q 1811.084 29.932 1807.845 37.09 A 16.051 16.051 0 0 0 1807.666 37.5 L 1807.666 75 L 1798.633 75 L 1798.633 22.168 L 1807.422 22.168 L 1807.568 28.271 A 16.014 16.014 0 0 1 1811.423 23.957 Q 1815.07 21.191 1820.166 21.191 A 16.507 16.507 0 0 1 1821.549 21.245 Q 1822.98 21.366 1823.911 21.756 A 4.272 4.272 0 0 1 1824.17 21.875 Z M 558.936 3.906 L 558.936 75 L 549.561 75 L 549.561 3.906 L 558.936 3.906 Z M 20.313 11.621 L 9.375 11.621 L 9.375 67.334 L 19.238 67.334 A 27.992 27.992 0 0 0 26.266 66.501 A 19.416 19.416 0 0 0 36.108 60.596 A 21.969 21.969 0 0 0 40.678 52.279 Q 42.139 47.535 42.139 41.406 L 42.139 37.256 A 41.512 41.512 0 0 0 41.526 29.89 Q 40.272 22.943 36.45 18.433 A 18.739 18.739 0 0 0 25.384 12.111 A 27.764 27.764 0 0 0 20.312 11.621 Z M 2342.627 22.168 L 2342.627 75 L 2333.594 75 L 2333.594 22.168 L 2342.627 22.168 Z M 851.112 61.221 A 17.164 17.164 0 0 0 852.466 63.281 Q 856.543 68.604 863.379 68.604 Q 870.142 68.604 874.172 63.397 A 16.377 16.377 0 0 0 874.316 63.208 Q 877.535 58.923 878.197 51.912 A 40.609 40.609 0 0 0 878.369 48.096 Q 878.369 40.6 875.3 35.556 A 17.624 17.624 0 0 0 874.243 34.009 A 13.676 13.676 0 0 0 869.632 30.059 Q 866.951 28.681 863.611 28.616 A 17.075 17.075 0 0 0 863.281 28.613 A 13.542 13.542 0 0 0 857.429 29.852 Q 854.613 31.181 852.49 33.936 A 17.656 17.656 0 0 0 849.689 39.464 Q 848.917 41.913 848.603 44.876 A 40.845 40.845 0 0 0 848.389 49.17 Q 848.389 56.353 851.112 61.221 Z M 1148.72 61.221 A 17.164 17.164 0 0 0 1150.073 63.281 Q 1154.15 68.604 1160.986 68.604 Q 1167.749 68.604 1171.779 63.397 A 16.377 16.377 0 0 0 1171.924 63.208 Q 1175.142 58.923 1175.805 51.912 A 40.609 40.609 0 0 0 1175.977 48.096 Q 1175.977 40.6 1172.908 35.556 A 17.624 17.624 0 0 0 1171.851 34.009 A 13.676 13.676 0 0 0 1167.239 30.059 Q 1164.559 28.681 1161.219 28.616 A 17.075 17.075 0 0 0 1160.889 28.613 A 13.542 13.542 0 0 0 1155.037 29.852 Q 1152.221 31.181 1150.098 33.936 A 17.656 17.656 0 0 0 1147.296 39.464 Q 1146.524 41.913 1146.211 44.876 A 40.845 40.845 0 0 0 1145.996 49.17 Q 1145.996 56.353 1148.72 61.221 Z M 1512.831 61.221 A 17.164 17.164 0 0 0 1514.185 63.281 Q 1518.262 68.604 1525.098 68.604 Q 1531.861 68.604 1535.891 63.397 A 16.377 16.377 0 0 0 1536.035 63.208 Q 1539.254 58.923 1539.916 51.912 A 40.609 40.609 0 0 0 1540.088 48.096 Q 1540.088 40.6 1537.019 35.556 A 17.624 17.624 0 0 0 1535.962 34.009 A 13.676 13.676 0 0 0 1531.35 30.059 Q 1528.67 28.681 1525.33 28.616 A 17.075 17.075 0 0 0 1525 28.613 A 13.542 13.542 0 0 0 1519.148 29.852 Q 1516.332 31.181 1514.209 33.936 A 17.656 17.656 0 0 0 1511.407 39.464 Q 1510.636 41.913 1510.322 44.876 A 40.845 40.845 0 0 0 1510.107 49.17 Q 1510.107 56.353 1512.831 61.221 Z M 2171.083 61.221 A 17.164 17.164 0 0 0 2172.437 63.281 Q 2176.514 68.604 2183.35 68.604 Q 2190.113 68.604 2194.143 63.397 A 16.377 16.377 0 0 0 2194.287 63.208 Q 2197.506 58.923 2198.168 51.912 A 40.609 40.609 0 0 0 2198.34 48.096 Q 2198.34 40.6 2195.271 35.556 A 17.624 17.624 0 0 0 2194.214 34.009 A 13.676 13.676 0 0 0 2189.602 30.059 Q 2186.922 28.681 2183.582 28.616 A 17.075 17.075 0 0 0 2183.252 28.613 A 13.542 13.542 0 0 0 2177.4 29.852 Q 2174.584 31.181 2172.461 33.936 A 17.656 17.656 0 0 0 2169.659 39.464 Q 2168.888 41.913 2168.574 44.876 A 40.845 40.845 0 0 0 2168.359 49.17 Q 2168.359 56.353 2171.083 61.221 Z M 907.764 36.133 L 907.764 61.377 A 14.793 14.793 0 0 0 911.407 65.781 Q 914.394 68.162 918.576 68.535 A 17.933 17.933 0 0 0 920.166 68.604 A 13.154 13.154 0 0 0 925.339 67.618 Q 928.337 66.35 930.493 63.452 Q 934.326 58.301 934.326 48.145 A 33.969 33.969 0 0 0 933.896 42.565 Q 933.047 37.47 930.518 34.033 A 12.07 12.07 0 0 0 921.782 28.949 A 15.709 15.709 0 0 0 920.068 28.857 A 14.51 14.51 0 0 0 914.337 29.945 Q 910.279 31.671 907.764 36.133 Z M 1423.486 36.133 L 1423.486 61.377 A 14.793 14.793 0 0 0 1427.13 65.781 Q 1430.117 68.162 1434.299 68.535 A 17.933 17.933 0 0 0 1435.889 68.604 A 13.154 13.154 0 0 0 1441.062 67.618 Q 1444.06 66.35 1446.216 63.452 Q 1450.049 58.301 1450.049 48.145 A 33.969 33.969 0 0 0 1449.619 42.565 Q 1448.769 37.47 1446.24 34.033 A 12.07 12.07 0 0 0 1437.505 28.949 A 15.709 15.709 0 0 0 1435.791 28.857 A 14.51 14.51 0 0 0 1430.06 29.945 Q 1426.002 31.671 1423.486 36.133 Z M 793.896 60.596 L 793.896 36.328 Q 789.844 28.857 781.445 28.857 A 13.759 13.759 0 0 0 776.704 29.64 A 11.862 11.862 0 0 0 771.094 33.984 Q 768.455 37.63 767.693 43.769 A 43.942 43.942 0 0 0 767.383 49.17 Q 767.383 58.154 771.094 63.232 A 11.777 11.777 0 0 0 779.563 68.21 A 15.451 15.451 0 0 0 781.348 68.311 A 14.894 14.894 0 0 0 786.925 67.314 Q 790.6 65.843 792.969 62.201 A 18.007 18.007 0 0 0 793.896 60.596 Z M 2082.178 60.596 L 2082.178 36.328 Q 2078.125 28.857 2069.727 28.857 A 13.759 13.759 0 0 0 2064.986 29.64 A 11.862 11.862 0 0 0 2059.375 33.984 Q 2056.736 37.63 2055.974 43.769 A 43.942 43.942 0 0 0 2055.664 49.17 Q 2055.664 58.154 2059.375 63.232 A 11.777 11.777 0 0 0 2067.845 68.21 A 15.451 15.451 0 0 0 2069.629 68.311 A 14.894 14.894 0 0 0 2075.207 67.314 Q 2078.881 65.843 2081.251 62.201 A 18.007 18.007 0 0 0 2082.178 60.596 Z M 2872.656 60.547 L 2872.656 36.426 Q 2868.719 29.245 2861.045 28.877 A 17.533 17.533 0 0 0 2860.205 28.857 A 13.531 13.531 0 0 0 2855.367 29.687 Q 2852.12 30.92 2849.902 33.984 Q 2847.264 37.63 2846.501 43.769 A 43.942 43.942 0 0 0 2846.191 49.17 A 35.317 35.317 0 0 0 2846.586 54.621 Q 2847.393 59.78 2849.854 63.208 A 11.654 11.654 0 0 0 2858.311 68.21 A 15.567 15.567 0 0 0 2860.107 68.311 A 14.663 14.663 0 0 0 2865.77 67.264 Q 2870.123 65.46 2872.656 60.547 Z M 495.166 11.621 L 495.166 39.502 L 512.012 39.502 A 25.697 25.697 0 0 0 516.368 39.156 Q 518.782 38.74 520.699 37.824 A 12.186 12.186 0 0 0 523.535 35.962 A 11.421 11.421 0 0 0 527.066 29.959 Q 527.524 28.092 527.539 25.876 A 22.185 22.185 0 0 0 527.539 25.732 A 16.288 16.288 0 0 0 526.94 21.203 A 12.353 12.353 0 0 0 523.535 15.576 Q 519.653 11.884 512.972 11.633 A 25.703 25.703 0 0 0 512.549 11.621 L 495.166 11.621 Z M 444.922 15.479 L 432.861 48.73 L 457.031 48.73 L 444.922 15.479 Z M 95.361 60.205 L 95.361 49.365 L 88.281 49.365 A 42.398 42.398 0 0 0 82.639 49.707 Q 76.464 50.541 73.768 53.412 A 7.953 7.953 0 0 0 71.68 59.082 A 10.222 10.222 0 0 0 72.062 61.952 A 7.628 7.628 0 0 0 74.512 65.723 A 9.928 9.928 0 0 0 79.106 67.87 A 13.989 13.989 0 0 0 81.787 68.115 Q 86.035 68.115 89.844 65.918 Q 93.652 63.721 95.361 60.205 Z M 182.422 60.205 L 182.422 49.365 L 175.342 49.365 A 42.398 42.398 0 0 0 169.7 49.707 Q 163.524 50.541 160.829 53.412 A 7.953 7.953 0 0 0 158.74 59.082 A 10.222 10.222 0 0 0 159.122 61.952 A 7.628 7.628 0 0 0 161.572 65.723 A 9.928 9.928 0 0 0 166.166 67.87 A 13.989 13.989 0 0 0 168.848 68.115 Q 173.096 68.115 176.904 65.918 Q 180.713 63.721 182.422 60.205 Z M 682.178 60.205 L 682.178 49.365 L 675.098 49.365 A 42.398 42.398 0 0 0 669.456 49.707 Q 663.28 50.541 660.584 53.412 A 7.953 7.953 0 0 0 658.496 59.082 A 10.222 10.222 0 0 0 658.878 61.952 A 7.628 7.628 0 0 0 661.328 65.723 A 9.928 9.928 0 0 0 665.922 67.87 A 13.989 13.989 0 0 0 668.604 68.115 Q 672.852 68.115 676.66 65.918 Q 680.469 63.721 682.178 60.205 Z M 1939.99 60.205 L 1939.99 49.365 L 1932.91 49.365 A 42.398 42.398 0 0 0 1927.268 49.707 Q 1921.093 50.541 1918.397 53.412 A 7.953 7.953 0 0 0 1916.309 59.082 A 10.222 10.222 0 0 0 1916.69 61.952 A 7.628 7.628 0 0 0 1919.141 65.723 A 9.928 9.928 0 0 0 1923.735 67.87 A 13.989 13.989 0 0 0 1926.416 68.115 Q 1930.664 68.115 1934.473 65.918 Q 1938.281 63.721 1939.99 60.205 Z M 2475.928 60.205 L 2475.928 49.365 L 2468.848 49.365 A 42.398 42.398 0 0 0 2463.206 49.707 Q 2457.03 50.541 2454.334 53.412 A 7.953 7.953 0 0 0 2452.246 59.082 A 10.222 10.222 0 0 0 2452.628 61.952 A 7.628 7.628 0 0 0 2455.078 65.723 A 9.928 9.928 0 0 0 2459.672 67.87 A 13.989 13.989 0 0 0 2462.354 68.115 Q 2466.602 68.115 2470.41 65.918 Q 2474.219 63.721 2475.928 60.205 Z M 2760.889 60.205 L 2760.889 49.365 L 2753.809 49.365 A 42.398 42.398 0 0 0 2748.167 49.707 Q 2741.991 50.541 2739.295 53.412 A 7.953 7.953 0 0 0 2737.207 59.082 A 10.222 10.222 0 0 0 2737.589 61.952 A 7.628 7.628 0 0 0 2740.039 65.723 A 9.928 9.928 0 0 0 2744.633 67.87 A 13.989 13.989 0 0 0 2747.314 68.115 Q 2751.563 68.115 2755.371 65.918 Q 2759.18 63.721 2760.889 60.205 Z M 264.209 43.75 L 290.674 43.75 L 290.674 43.066 Q 290.385 37.968 288.488 34.569 A 12.557 12.557 0 0 0 286.963 32.397 A 10.923 10.923 0 0 0 279.691 28.706 A 15.439 15.439 0 0 0 277.979 28.613 Q 272.51 28.613 268.799 32.593 Q 265.537 36.09 264.463 42.059 A 30.452 30.452 0 0 0 264.209 43.75 Z M 961.865 43.75 L 988.33 43.75 L 988.33 43.066 Q 988.041 37.968 986.145 34.569 A 12.557 12.557 0 0 0 984.619 32.397 A 10.923 10.923 0 0 0 977.348 28.706 A 15.439 15.439 0 0 0 975.635 28.613 Q 970.166 28.613 966.455 32.593 Q 963.194 36.09 962.12 42.059 A 30.452 30.452 0 0 0 961.865 43.75 Z M 1343.75 43.75 L 1370.215 43.75 L 1370.215 43.066 Q 1369.926 37.968 1368.029 34.569 A 12.557 12.557 0 0 0 1366.504 32.397 A 10.923 10.923 0 0 0 1359.232 28.706 A 15.439 15.439 0 0 0 1357.52 28.613 Q 1352.051 28.613 1348.34 32.593 Q 1345.078 36.09 1344.004 42.059 A 30.452 30.452 0 0 0 1343.75 43.75 Z M 1591.357 43.75 L 1617.822 43.75 L 1617.822 43.066 Q 1617.533 37.968 1615.637 34.569 A 12.557 12.557 0 0 0 1614.111 32.397 A 10.923 10.923 0 0 0 1606.84 28.706 A 15.439 15.439 0 0 0 1605.127 28.613 Q 1599.658 28.613 1595.947 32.593 Q 1592.686 36.09 1591.612 42.059 A 30.452 30.452 0 0 0 1591.357 43.75 Z M 1838.574 43.75 L 1865.039 43.75 L 1865.039 43.066 Q 1864.75 37.968 1862.854 34.569 A 12.557 12.557 0 0 0 1861.328 32.397 A 10.923 10.923 0 0 0 1854.057 28.706 A 15.439 15.439 0 0 0 1852.344 28.613 Q 1846.875 28.613 1843.164 32.593 Q 1839.902 36.09 1838.829 42.059 A 30.452 30.452 0 0 0 1838.574 43.75 Z M 2002.881 43.75 L 2029.346 43.75 L 2029.346 43.066 Q 2029.056 37.968 2027.16 34.569 A 12.557 12.557 0 0 0 2025.635 32.397 A 10.923 10.923 0 0 0 2018.363 28.706 A 15.439 15.439 0 0 0 2016.65 28.613 Q 2011.182 28.613 2007.471 32.593 Q 2004.209 36.09 2003.135 42.059 A 30.452 30.452 0 0 0 2002.881 43.75 Z M 2538.818 43.75 L 2565.283 43.75 L 2565.283 43.066 Q 2564.994 37.968 2563.098 34.569 A 12.557 12.557 0 0 0 2561.572 32.397 A 10.923 10.923 0 0 0 2554.301 28.706 A 15.439 15.439 0 0 0 2552.588 28.613 Q 2547.119 28.613 2543.408 32.593 Q 2540.147 36.09 2539.073 42.059 A 30.452 30.452 0 0 0 2538.818 43.75 Z M 2902.393 43.75 L 2928.857 43.75 L 2928.857 43.066 Q 2928.568 37.968 2926.672 34.569 A 12.557 12.557 0 0 0 2925.146 32.397 A 10.923 10.923 0 0 0 2917.875 28.706 A 15.439 15.439 0 0 0 2916.162 28.613 Q 2910.693 28.613 2906.982 32.593 Q 2903.721 36.09 2902.647 42.059 A 30.452 30.452 0 0 0 2902.393 43.75 Z M 2333.171 6.201 A 5.95 5.95 0 0 0 2332.861 8.154 A 6.719 6.719 0 0 0 2332.888 8.758 A 5.068 5.068 0 0 0 2334.204 11.816 A 4.02 4.02 0 0 0 2335.037 12.509 Q 2335.739 12.949 2336.662 13.138 A 7.58 7.58 0 0 0 2338.184 13.281 A 8.925 8.925 0 0 0 2338.626 13.27 Q 2339.476 13.228 2340.182 13.021 A 4.363 4.363 0 0 0 2342.187 11.816 A 4.911 4.911 0 0 0 2343.274 9.995 A 5.809 5.809 0 0 0 2343.555 8.154 A 6.815 6.815 0 0 0 2343.546 7.815 A 5.264 5.264 0 0 0 2342.187 4.443 A 4.15 4.15 0 0 0 2341.519 3.846 Q 2340.77 3.312 2339.76 3.089 A 7.32 7.32 0 0 0 2338.184 2.93 Q 2335.547 2.93 2334.204 4.443 A 5.168 5.168 0 0 0 2333.171 6.201 Z M 1560.216 5.987 A 5.725 5.725 0 0 0 1559.814 8.154 Q 1559.814 10.352 1561.133 11.816 Q 1562.039 12.823 1563.569 13.138 A 7.545 7.545 0 0 0 1565.088 13.281 A 8.925 8.925 0 0 0 1565.53 13.27 Q 1566.38 13.228 1567.087 13.021 A 4.363 4.363 0 0 0 1569.092 11.816 A 4.911 4.911 0 0 0 1570.178 9.995 A 5.809 5.809 0 0 0 1570.459 8.154 A 6.815 6.815 0 0 0 1570.451 7.815 A 5.264 5.264 0 0 0 1569.092 4.443 A 4.15 4.15 0 0 0 1568.423 3.846 Q 1567.674 3.312 1566.664 3.089 A 7.32 7.32 0 0 0 1565.088 2.93 A 8.534 8.534 0 0 0 1564.944 2.931 Q 1564.098 2.945 1563.389 3.128 A 4.31 4.31 0 0 0 1561.157 4.468 A 5.353 5.353 0 0 0 1560.216 5.987 Z" vector-effect="non-scaling-stroke"/></g></svg>