<svg width="442.1" height="72.002" viewBox="0 0 442.1 72.002" xmlns="http://www.w3.org/2000/svg"><g id="svgGroup" stroke-linecap="round" fill-rule="evenodd" font-size="9pt" stroke="#000" stroke-width="0.25mm" fill="#000" style="stroke:#000;stroke-width:0.25mm;fill:#000"><path d="M 277.9 70.8 L 268.4 70.8 L 268.4 9.2 L 246.9 9.2 L 246.9 0.8 L 299.4 0.8 L 299.4 9.2 L 277.9 9.2 L 277.9 70.8 Z M 109.3 48.5 L 72.9 48.5 A 24.088 24.088 0 0 0 74.039 53.525 Q 75.375 57.338 78 59.9 Q 82.2 64 89.1 64 Q 93.6 64 97.2 63.05 Q 100.8 62.1 104.1 60.6 L 106.2 68.3 A 40.77 40.77 0 0 1 101.865 69.926 A 51.863 51.863 0 0 1 98.1 70.95 A 38.914 38.914 0 0 1 93.008 71.77 A 52.025 52.025 0 0 1 88 72 A 28.318 28.318 0 0 1 80.254 70.995 A 21.108 21.108 0 0 1 70.25 64.85 A 23.521 23.521 0 0 1 65.045 55.31 Q 63.7 50.646 63.7 44.8 A 35.359 35.359 0 0 1 64.533 36.979 A 28.84 28.84 0 0 1 66.65 30.85 A 24.642 24.642 0 0 1 71.666 23.769 A 22.887 22.887 0 0 1 74.9 21.15 A 21.048 21.048 0 0 1 85.159 17.679 A 26.205 26.205 0 0 1 87.2 17.6 Q 94.7 17.6 99.65 20.85 Q 104.6 24.1 107.1 29.6 A 28.185 28.185 0 0 1 109.526 39.464 A 33.434 33.434 0 0 1 109.6 41.7 A 75.204 75.204 0 0 1 109.309 48.397 A 69.426 69.426 0 0 1 109.3 48.5 Z M 201.4 48.5 L 165 48.5 A 24.088 24.088 0 0 0 166.139 53.525 Q 167.475 57.338 170.1 59.9 Q 174.3 64 181.2 64 Q 185.7 64 189.3 63.05 Q 192.9 62.1 196.2 60.6 L 198.3 68.3 A 40.77 40.77 0 0 1 193.965 69.926 A 51.863 51.863 0 0 1 190.2 70.95 A 38.914 38.914 0 0 1 185.108 71.77 A 52.025 52.025 0 0 1 180.1 72 A 28.318 28.318 0 0 1 172.354 70.995 A 21.108 21.108 0 0 1 162.35 64.85 A 23.521 23.521 0 0 1 157.145 55.31 Q 155.8 50.646 155.8 44.8 A 35.359 35.359 0 0 1 156.633 36.979 A 28.84 28.84 0 0 1 158.75 30.85 A 24.642 24.642 0 0 1 163.766 23.769 A 22.887 22.887 0 0 1 167 21.15 A 21.048 21.048 0 0 1 177.259 17.679 A 26.205 26.205 0 0 1 179.3 17.6 Q 186.8 17.6 191.75 20.85 Q 196.7 24.1 199.2 29.6 A 28.185 28.185 0 0 1 201.626 39.464 A 33.434 33.434 0 0 1 201.7 41.7 A 75.204 75.204 0 0 1 201.409 48.397 A 69.426 69.426 0 0 1 201.4 48.5 Z M 387.4 48.5 L 351 48.5 A 24.088 24.088 0 0 0 352.139 53.525 Q 353.475 57.338 356.1 59.9 Q 360.3 64 367.2 64 Q 371.7 64 375.3 63.05 Q 378.9 62.1 382.2 60.6 L 384.3 68.3 A 40.77 40.77 0 0 1 379.965 69.926 A 51.863 51.863 0 0 1 376.2 70.95 A 38.914 38.914 0 0 1 371.108 71.77 A 52.025 52.025 0 0 1 366.1 72 A 28.318 28.318 0 0 1 358.354 70.995 A 21.108 21.108 0 0 1 348.35 64.85 A 23.521 23.521 0 0 1 343.145 55.31 Q 341.8 50.646 341.8 44.8 A 35.359 35.359 0 0 1 342.633 36.979 A 28.84 28.84 0 0 1 344.75 30.85 A 24.642 24.642 0 0 1 349.766 23.769 A 22.887 22.887 0 0 1 353 21.15 A 21.048 21.048 0 0 1 363.259 17.679 A 26.205 26.205 0 0 1 365.3 17.6 Q 372.8 17.6 377.75 20.85 Q 382.7 24.1 385.2 29.6 A 28.185 28.185 0 0 1 387.626 39.464 A 33.434 33.434 0 0 1 387.7 41.7 A 75.204 75.204 0 0 1 387.409 48.397 A 69.426 69.426 0 0 1 387.4 48.5 Z M 441.8 48.5 L 405.4 48.5 A 24.088 24.088 0 0 0 406.539 53.525 Q 407.875 57.338 410.5 59.9 Q 414.7 64 421.6 64 Q 426.1 64 429.7 63.05 Q 433.3 62.1 436.6 60.6 L 438.7 68.3 A 40.77 40.77 0 0 1 434.365 69.926 A 51.863 51.863 0 0 1 430.6 70.95 A 38.914 38.914 0 0 1 425.508 71.77 A 52.025 52.025 0 0 1 420.5 72 A 28.318 28.318 0 0 1 412.754 70.995 A 21.108 21.108 0 0 1 402.75 64.85 A 23.521 23.521 0 0 1 397.545 55.31 Q 396.2 50.646 396.2 44.8 A 35.359 35.359 0 0 1 397.033 36.979 A 28.84 28.84 0 0 1 399.15 30.85 A 24.642 24.642 0 0 1 404.166 23.769 A 22.887 22.887 0 0 1 407.4 21.15 A 21.048 21.048 0 0 1 417.659 17.679 A 26.205 26.205 0 0 1 419.7 17.6 Q 427.2 17.6 432.15 20.85 Q 437.1 24.1 439.6 29.6 A 28.185 28.185 0 0 1 442.026 39.464 A 33.434 33.434 0 0 1 442.1 41.7 A 75.204 75.204 0 0 1 441.809 48.397 A 69.426 69.426 0 0 1 441.8 48.5 Z M 123.6 52.9 L 123.6 28.5 L 114.6 28.5 L 114.6 20.7 L 123.8 20.7 L 125.7 4.3 L 132.6 4.3 L 132.6 20.7 L 147 20.7 L 147 28.5 L 132.6 28.5 L 132.6 53.6 A 21.559 21.559 0 0 0 132.768 56.397 Q 133.241 60.002 135.05 61.7 Q 137.5 64 140.9 64 Q 143.4 64 145.65 63.2 Q 147.9 62.4 149.8 61.3 L 152.3 68.5 A 18.546 18.546 0 0 1 150.682 69.356 Q 149.88 69.735 148.934 70.109 A 43.365 43.365 0 0 1 146.9 70.85 Q 143.5 72 139.8 72 Q 132.3 72 127.95 67.05 A 16.116 16.116 0 0 1 124.722 61.148 Q 123.959 58.718 123.715 55.781 A 34.777 34.777 0 0 1 123.6 52.9 Z M 0 70.6 L 0 1 Q 4.7 0.5 9.2 0.25 A 151.31 151.31 0 0 1 13.386 0.08 Q 16.238 0 19.5 0 A 48.608 48.608 0 0 1 26.844 0.527 Q 30.778 1.129 34.11 2.418 A 29.198 29.198 0 0 1 35.05 2.8 A 30.978 30.978 0 0 1 42.339 7.121 A 27.223 27.223 0 0 1 45.85 10.5 Q 50.1 15.4 52.15 21.85 A 44.256 44.256 0 0 1 54.122 32.846 A 51.506 51.506 0 0 1 54.2 35.7 A 45.309 45.309 0 0 1 52.719 47.398 A 41.802 41.802 0 0 1 52.1 49.5 Q 50 56 45.65 60.95 Q 41.3 65.9 34.55 68.75 Q 28.275 71.4 19.709 71.586 A 60.192 60.192 0 0 1 18.4 71.6 A 186.98 186.98 0 0 1 14.329 71.558 Q 12.315 71.514 10.522 71.425 A 101.5 101.5 0 0 1 8.45 71.3 Q 4.2 71 0 70.6 Z M 249.6 20.7 L 246.9 28.3 A 30.422 30.422 0 0 0 243.996 27.025 A 23.42 23.42 0 0 0 241.55 26.25 A 20.543 20.543 0 0 0 238.507 25.725 A 26.355 26.355 0 0 0 235.9 25.6 A 15.889 15.889 0 0 0 228.647 27.243 A 16.132 16.132 0 0 0 224.15 30.65 Q 219.4 35.7 219.4 44.6 A 25.192 25.192 0 0 0 220.105 50.66 A 21.45 21.45 0 0 0 221.4 54.4 A 18.564 18.564 0 0 0 224.31 58.978 A 16.275 16.275 0 0 0 226.95 61.4 Q 230.5 64 235.3 64 Q 238.465 64 240.868 63.411 A 15.08 15.08 0 0 0 241.8 63.15 Q 244.489 62.304 247.576 60.713 A 49.095 49.095 0 0 0 247.6 60.7 L 250.4 68.3 Q 247.3 70 243.45 71 Q 239.6 72 234.7 72 A 26.803 26.803 0 0 1 227.661 71.111 A 22.074 22.074 0 0 1 221.75 68.55 Q 216.2 65.1 213.2 58.95 Q 210.2 52.8 210.2 44.8 Q 210.2 37.3 213.25 31.1 Q 216.3 24.9 222 21.25 A 23.067 23.067 0 0 1 231.668 17.829 A 29.608 29.608 0 0 1 235.4 17.6 Q 239.8 17.6 243.15 18.4 Q 246.5 19.2 249.6 20.7 Z M 317.4 70.8 L 308.4 70.8 L 308.4 18.8 L 317.1 18.8 L 317.1 30.1 Q 318.4 26.8 320.6 23.95 Q 322.8 21.1 326.1 19.35 A 14.817 14.817 0 0 1 330.78 17.826 A 19.459 19.459 0 0 1 333.8 17.6 Q 335.3 17.6 336.8 17.75 A 18.972 18.972 0 0 1 337.855 17.884 Q 338.355 17.963 338.782 18.063 A 8.817 8.817 0 0 1 339.3 18.2 L 336.6 27.5 A 9.763 9.763 0 0 0 334.455 26.888 Q 333.359 26.7 332.1 26.7 A 12.958 12.958 0 0 0 325.47 28.546 A 15.609 15.609 0 0 0 325.05 28.8 Q 321.722 30.887 319.578 35.243 A 22.927 22.927 0 0 0 319.55 35.3 Q 317.787 38.908 317.47 44.128 A 39.09 39.09 0 0 0 317.4 46.5 L 317.4 70.8 Z M 9.5 8.7 L 9.5 62.8 Q 11.6 63.1 13.9 63.2 A 107.265 107.265 0 0 0 17.463 63.294 A 121.297 121.297 0 0 0 18.7 63.3 A 37.906 37.906 0 0 0 24.864 62.829 Q 29.793 62.015 33.4 59.8 Q 39.1 56.3 41.8 50.05 A 32.292 32.292 0 0 0 44.054 41.976 A 42.502 42.502 0 0 0 44.5 35.7 Q 44.5 28.5 41.8 22.2 Q 39.1 15.9 33.5 12.05 A 20.895 20.895 0 0 0 26.448 8.991 Q 23.607 8.312 20.296 8.216 A 38.008 38.008 0 0 0 19.2 8.2 Q 16.3 8.2 13.9 8.35 Q 11.5 8.5 9.5 8.7 Z M 72.8 41.2 L 101.3 41.2 A 24.355 24.355 0 0 0 100.896 36.615 Q 100.4 34.031 99.296 32.007 A 12.422 12.422 0 0 0 97.5 29.5 A 12.488 12.488 0 0 0 90.539 25.725 A 18.395 18.395 0 0 0 87 25.4 A 13.58 13.58 0 0 0 81.888 26.335 A 12.524 12.524 0 0 0 77.4 29.45 Q 73.6 33.5 72.8 41.2 Z M 164.9 41.2 L 193.4 41.2 A 24.355 24.355 0 0 0 192.996 36.615 Q 192.5 34.031 191.396 32.007 A 12.422 12.422 0 0 0 189.6 29.5 A 12.488 12.488 0 0 0 182.639 25.725 A 18.395 18.395 0 0 0 179.1 25.4 A 13.58 13.58 0 0 0 173.988 26.335 A 12.524 12.524 0 0 0 169.5 29.45 Q 165.7 33.5 164.9 41.2 Z M 350.9 41.2 L 379.4 41.2 A 24.355 24.355 0 0 0 378.996 36.615 Q 378.5 34.031 377.396 32.007 A 12.422 12.422 0 0 0 375.6 29.5 A 12.488 12.488 0 0 0 368.639 25.725 A 18.395 18.395 0 0 0 365.1 25.4 A 13.58 13.58 0 0 0 359.988 26.335 A 12.524 12.524 0 0 0 355.5 29.45 Q 351.7 33.5 350.9 41.2 Z M 405.3 41.2 L 433.8 41.2 A 24.355 24.355 0 0 0 433.396 36.615 Q 432.9 34.031 431.796 32.007 A 12.422 12.422 0 0 0 430 29.5 A 12.488 12.488 0 0 0 423.039 25.725 A 18.395 18.395 0 0 0 419.5 25.4 A 13.58 13.58 0 0 0 414.388 26.335 A 12.524 12.524 0 0 0 409.9 29.45 Q 406.1 33.5 405.3 41.2 Z" vector-effect="non-scaling-stroke"/></g></svg>