<?xml version="1.0" encoding="UTF-8" standalone="no"?>
<svg
   version="1.1"
   id="svg4"
   width="76.751953"
   height="8.90625"
   xmlns="http://www.w3.org/2000/svg"
   xmlns:svg="http://www.w3.org/2000/svg">
  <defs
     id="defs8" />
  <g
     aria-label="Detect waste"
     id="text2"
     transform="translate(-1.171875,8.7246094)">
    <path
       d="m 8.5429688,-4.3535156 q 0,1.1894531 -0.5214844,2.15625 -0.515625,0.9667969 -1.3769532,1.49999998 Q 6.046875,-0.328125 5.3085937,-0.1640625 4.5761719,0 3.375,0 H 1.171875 v -8.7246094 h 2.1796875 q 1.2773437,0 2.0273437,0.1875 0.7558594,0.1816406 1.2773438,0.5039063 0.890625,0.5566406 1.3886719,1.4824219 0.4980469,0.9257812 0.4980469,2.1972656 z m -1.2128907,-0.017578 q 0,-1.0253907 -0.3574219,-1.7285157 Q 6.6152344,-6.8027344 5.90625,-7.2070312 5.390625,-7.5 4.8105469,-7.6113281 4.2304687,-7.7285156 3.421875,-7.7285156 H 2.3320313 v 6.73242185 H 3.421875 q 0.8378906,0 1.4589844,-0.12304685 0.6269531,-0.1230469 1.1484375,-0.4570313 0.6503906,-0.4160156 0.9726562,-1.0957031 0.328125,-0.6796875 0.328125,-1.6992186 z"
       id="path10" />
    <path
       d="m 15.808594,-3.1582031 h -4.822266 q 0,0.6035156 0.181641,1.0546875 0.18164,0.4453125 0.498047,0.7324219 0.304687,0.28125 0.720703,0.42187495 0.421875,0.140625 0.925781,0.140625 0.667969,0 1.341797,-0.26367185 0.679687,-0.2695313 0.966797,-0.5273438 h 0.05859 v 1.2011719 q -0.556641,0.234375 -1.136719,0.39257812 -0.580078,0.15820313 -1.21875,0.15820313 -1.628906,0 -2.542969,-0.87890625 -0.9140625,-0.8847656 -0.9140625,-2.5078125 0,-1.6054687 0.8730465,-2.5488281 0.878907,-0.9433594 2.308594,-0.9433594 1.324219,0 2.039063,0.7734375 0.720703,0.7734375 0.720703,2.1972656 z m -1.072266,-0.84375 q -0.0059,-0.8671875 -0.439453,-1.3417969 -0.427734,-0.4746094 -1.306641,-0.4746094 -0.884765,0 -1.412109,0.5214844 -0.521484,0.5214844 -0.591797,1.2949219 z"
       id="path12" />
    <path
       d="m 20.876953,-0.05859375 q -0.310547,0.08203125 -0.679687,0.13476562 -0.363282,0.05273438 -0.650391,0.05273438 -1.001953,0 -1.523438,-0.5390625 -0.521484,-0.5390625 -0.521484,-1.72851565 v -3.4804687 h -0.744141 v -0.9257813 h 0.744141 v -1.8808594 h 1.101563 v 1.8808594 h 2.273437 v 0.9257813 h -2.273437 v 2.9824218 q 0,0.515625 0.02344,0.8085938 0.02344,0.2871094 0.164063,0.5390625 0.128906,0.234375 0.351562,0.34570312 0.228516,0.10546875 0.691406,0.10546875 0.269532,0 0.5625,-0.0761719 0.292969,-0.0820313 0.421875,-0.13476557 h 0.05859 z"
       id="path14" />
    <path
       d="m 27.685547,-3.1582031 h -4.822266 q 0,0.6035156 0.181641,1.0546875 0.18164,0.4453125 0.498047,0.7324219 0.304687,0.28125 0.720703,0.42187495 0.421875,0.140625 0.925781,0.140625 0.667969,0 1.341797,-0.26367185 0.679687,-0.2695313 0.966797,-0.5273438 h 0.05859 v 1.2011719 Q 27,-0.1640625 26.419922,-0.00585938 q -0.580078,0.15820313 -1.21875,0.15820313 -1.628906,0 -2.542969,-0.87890625 -0.914062,-0.8847656 -0.914062,-2.5078125 0,-1.6054687 0.873046,-2.5488281 0.878907,-0.9433594 2.308594,-0.9433594 1.324219,0 2.039063,0.7734375 0.720703,0.7734375 0.720703,2.1972656 z m -1.072266,-0.84375 q -0.0059,-0.8671875 -0.439453,-1.3417969 -0.427734,-0.4746094 -1.306641,-0.4746094 -0.884765,0 -1.412109,0.5214844 -0.521484,0.5214844 -0.591797,1.2949219 z"
       id="path16" />
    <path
       d="M 34.195312,-0.41015625 Q 33.644531,-0.14648437 33.146484,0 q -0.492187,0.14648437 -1.048828,0.14648437 -0.708984,0 -1.300781,-0.20507812 -0.591797,-0.2109375 -1.013672,-0.6328125 -0.427734,-0.42187495 -0.662109,-1.06640625 -0.234375,-0.6445313 -0.234375,-1.5058594 0,-1.6054687 0.878906,-2.5195312 0.884766,-0.9140625 2.332031,-0.9140625 0.5625,0 1.101563,0.1582031 0.544922,0.1582031 0.996093,0.3867188 v 1.2246093 h -0.05859 q -0.50391,-0.3925781 -1.042972,-0.6035156 -0.533203,-0.2109375 -1.042969,-0.2109375 -0.9375,0 -1.482422,0.6328125 -0.539062,0.6269531 -0.539062,1.8457031 0,1.1835938 0.527344,1.8222657 0.533203,0.63281245 1.49414,0.63281245 0.333985,0 0.679688,-0.0878906 0.345703,-0.0878906 0.621093,-0.22851565 0.240235,-0.1230469 0.451172,-0.2578125 0.210938,-0.140625 0.333985,-0.2402344 h 0.05859 z"
       id="path18" />
    <path
       d="m 39.005859,-0.05859375 q -0.310547,0.08203125 -0.679687,0.13476562 -0.363281,0.05273438 -0.650391,0.05273438 -1.001953,0 -1.523437,-0.5390625 -0.521485,-0.5390625 -0.521485,-1.72851565 v -3.4804687 h -0.74414 v -0.9257813 h 0.74414 v -1.8808594 h 1.101563 v 1.8808594 h 2.273437 v 0.9257813 h -2.273437 v 2.9824218 q 0,0.515625 0.02344,0.8085938 0.02344,0.2871094 0.164063,0.5390625 0.128906,0.234375 0.351562,0.34570312 0.228516,0.10546875 0.691407,0.10546875 0.269531,0 0.5625,-0.0761719 0.292968,-0.0820313 0.421875,-0.13476557 h 0.05859 z"
       id="path20" />
    <path
       d="M 52.787109,-6.5449219 51.082031,0 H 50.0625 L 48.380859,-5.0449219 46.710937,0 h -1.013671 l -1.722657,-6.5449219 h 1.148438 l 1.201172,5.0683594 1.634765,-5.0683594 h 0.908203 l 1.675782,5.0683594 1.136718,-5.0683594 z"
       id="path22" />
    <path
       d="m 59.34375,0 h -1.095703 v -0.69726562 q -0.146485,0.0996094 -0.398438,0.28124999 -0.246093,0.17578125 -0.480468,0.28125001 Q 57.09375,0 56.736328,0.08789062 q -0.357422,0.09375 -0.837891,0.09375 -0.884765,0 -1.5,-0.5859375 -0.615234,-0.5859375 -0.615234,-1.49414062 0,-0.7441406 0.316406,-1.2011719 0.322266,-0.4628906 0.914063,-0.7265625 0.597656,-0.2636718 1.435547,-0.3574218 0.83789,-0.09375 1.798828,-0.140625 v -0.1699219 q 0,-0.375 -0.134766,-0.6210938 -0.128906,-0.2460937 -0.375,-0.3867187 -0.234375,-0.1347656 -0.5625,-0.1816406 -0.328125,-0.046875 -0.685547,-0.046875 -0.433593,0 -0.966797,0.1171875 -0.533203,0.1113281 -1.101562,0.328125 h -0.05859 v -1.1191407 q 0.322266,-0.087891 0.931641,-0.1933593 0.609375,-0.1054688 1.201172,-0.1054688 0.691406,0 1.201172,0.1171875 0.515625,0.1113281 0.890625,0.3867188 0.36914,0.2695312 0.5625,0.6972656 0.193359,0.4277344 0.193359,1.0605469 z m -1.095703,-1.6113281 v -1.8222657 q -0.503906,0.029297 -1.189453,0.087891 -0.679688,0.058594 -1.078125,0.1699218 -0.47461,0.1347657 -0.767578,0.421875 -0.292969,0.28125 -0.292969,0.7792969 0,0.5625 0.339844,0.8496094 0.339843,0.28125 1.037109,0.28125 0.580078,0 1.060547,-0.2226562 0.480469,-0.2285157 0.890625,-0.5449222 z"
       id="path24" />
    <path
       d="m 66.140625,-1.8867187 q 0,0.89648432 -0.744141,1.47070307 -0.738281,0.57421875 -2.021484,0.57421875 -0.726563,0 -1.335938,-0.16992187 Q 61.435547,-0.1875 61.025391,-0.39257813 V -1.6289062 h 0.05859 q 0.521485,0.3925781 1.160157,0.6269531 0.638671,0.2285156 1.224609,0.2285156 0.726562,0 1.136719,-0.234375 0.410156,-0.234375 0.410156,-0.7382812 0,-0.3867188 -0.222656,-0.5859376 Q 64.570312,-2.53125 63.9375,-2.671875 q -0.234375,-0.052734 -0.615234,-0.1230469 -0.375,-0.070312 -0.685547,-0.1523437 -0.861328,-0.2285157 -1.22461,-0.6679688 -0.357422,-0.4453125 -0.357422,-1.0898437 0,-0.4042969 0.164063,-0.7617188 0.169922,-0.3574218 0.509766,-0.6386718 0.328125,-0.2753907 0.832031,-0.4335938 0.509765,-0.1640625 1.136719,-0.1640625 0.585937,0 1.183593,0.1464844 0.603516,0.140625 1.001953,0.3457031 v 1.1777344 h -0.05859 q -0.421875,-0.3105469 -1.025391,-0.5214844 -0.603516,-0.2167969 -1.183594,-0.2167969 -0.603515,0 -1.019531,0.234375 -0.416016,0.2285157 -0.416016,0.6855469 0,0.4042969 0.251954,0.609375 0.246093,0.2050781 0.796875,0.3339844 0.304687,0.070312 0.679687,0.140625 0.380859,0.070312 0.632813,0.1289062 0.767578,0.1757813 1.183593,0.6035156 0.416016,0.4335938 0.416016,1.1484376 z"
       id="path26" />
    <path
       d="m 71.115234,-0.05859375 q -0.310547,0.08203125 -0.679687,0.13476562 -0.363281,0.05273438 -0.650391,0.05273438 -1.001953,0 -1.523437,-0.5390625 -0.521485,-0.5390625 -0.521485,-1.72851565 v -3.4804687 h -0.74414 v -0.9257813 h 0.74414 v -1.8808594 h 1.101563 v 1.8808594 h 2.273437 v 0.9257813 h -2.273437 v 2.9824218 q 0,0.515625 0.02344,0.8085938 0.02344,0.2871094 0.164063,0.5390625 0.128906,0.234375 0.351562,0.34570312 0.228516,0.10546875 0.691407,0.10546875 0.269531,0 0.5625,-0.0761719 0.292968,-0.0820313 0.421875,-0.13476557 h 0.05859 z"
       id="path28" />
    <path
       d="m 77.923828,-3.1582031 h -4.822266 q 0,0.6035156 0.181641,1.0546875 0.181641,0.4453125 0.498047,0.7324219 0.304687,0.28125 0.720703,0.42187495 0.421875,0.140625 0.925781,0.140625 0.667969,0 1.341797,-0.26367185 0.679688,-0.2695313 0.966797,-0.5273438 h 0.05859 v 1.2011719 q -0.556641,0.234375 -1.136719,0.39257812 -0.580078,0.15820313 -1.21875,0.15820313 -1.628906,0 -2.542969,-0.87890625 -0.914062,-0.8847656 -0.914062,-2.5078125 0,-1.6054687 0.873047,-2.5488281 0.878906,-0.9433594 2.308593,-0.9433594 1.324219,0 2.039063,0.7734375 0.720703,0.7734375 0.720703,2.1972656 z m -1.072266,-0.84375 q -0.0059,-0.8671875 -0.439453,-1.3417969 -0.427734,-0.4746094 -1.30664,-0.4746094 -0.884766,0 -1.41211,0.5214844 -0.521484,0.5214844 -0.591797,1.2949219 z"
       id="path30" />
  </g>
</svg>
