<svg xmlns="http://www.w3.org/2000/svg" role="img" viewBox="3.78 20.28 141.57 78.94"><path fill="#0079C1" fill-rule="evenodd" d="M28.5 49.5c-.7.5-1.6.9-2.5 1.3h8.3v-8.2c-.3.7-.8 1.8-1.3 2.5l-1.6-1.6c-.5.9-1.2 1.7-1.9 2.5-.8.8-1.6 1.4-2.5 1.9l1.5 1.6zm.1-8.7c-.4.9-1 1.8-1.8 2.6s-1.7 1.4-2.6 1.8l2.2 2.2c.9-.5 1.8-1.2 2.5-1.9.8-.8 1.4-1.6 1.9-2.5l-2.2-2.2zm5.2-.7c.5-2 .5-4.2 0-6.3h-1.1c.5 2.1.5 4.3 0 6.3h1.1zm-1.7 0c.5-1.9.6-4.2 0-6.3h-3.2c.7 2 .7 4.3 0 6.3h3.2zm.8-11.3c.4.6.9 1.6 1.3 2.5v-8.2h-8.3c.8.3 1.6.7 2.5 1.3L26.8 26c.9.5 1.7 1.1 2.5 1.9.8.8 1.4 1.6 1.9 2.5l1.7-1.6zm-8.7-.1c.9.4 1.8 1 2.6 1.8s1.3 1.6 1.8 2.6l2.2-2.2c-.5-.9-1.2-1.8-1.9-2.5-.8-.8-1.6-1.4-2.5-1.9l-2.2 2.2zm-.7-5.2c-2.1-.5-4.2-.5-6.3 0v1.1c2.1-.5 4.2-.5 6.3 0v-1.1zm0 1.7c-2.1-.6-4.2-.5-6.3 0v3.2c2-.7 4.3-.8 6.3 0v-3.2zM9.4 30.5c.5-.9 1.2-1.7 1.9-2.5.8-.8 1.6-1.4 2.5-1.9l-1.6-1.6c.8-.5 1.6-.9 2.5-1.3H6.5v8.3c.4-.9.8-1.7 1.3-2.5l1.6 1.5zm4.9-4.1c-.9.5-1.8 1.2-2.5 1.9-.8.8-1.4 1.6-1.9 2.5l2.2 2.2c.4-1 1-1.8 1.8-2.6s1.7-1.4 2.6-1.8l-2.2-2.2zm-5.7 7.4c-.5 2.1-.6 4.2 0 6.3h3.2c-.7-2-.7-4.3 0-6.3H8.6zm-1.7 0c-.5 2.1-.5 4.2 0 6.3H8c-.5-2-.5-4.2 0-6.3H6.9zm.9 11.3c-.5-.8-.9-1.6-1.3-2.5v8.3h8.2c-.9-.4-1.7-.8-2.5-1.3l1.7-1.6c-.9-.5-1.7-1.2-2.5-1.9-.8-.8-1.4-1.6-1.9-2.5l-1.7 1.5zm2-2.1c.5.9 1.2 1.8 1.9 2.5.8.8 1.6 1.4 2.5 1.9l2.2-2.2c-1-.4-1.8-1-2.6-1.8s-1.4-1.7-1.8-2.6L9.8 43zm7.4 2.5c2 .7 4.3.7 6.3 0v3.2c-2.1.6-4.2.5-6.3 0v-3.2zm0 3.8c2.1.5 4.2.5 6.3 0v1.1c-2.1.5-4.2.5-6.3 0v-1.1z" clip-rule="evenodd"/><path fill="#0079C1" d="M40.7 23h4.2l13.9 19.3V23h4.5v28h-3.8L45.2 31v19.9h-4.5V23zm35.7 13.8h3.9c3.4 0 5.5-1.8 5.5-4.7V32c0-3-2.1-4.6-5.6-4.6h-6.9v23.5h-4.7V23h12c3.4 0 6 1 7.8 2.8 1.4 1.5 2.2 3.6 2.2 6v.1c0 4.6-2.7 7.4-6.4 8.5L91.5 51h-5.6l-9.5-14.2zM95.6 23h21.3v4.4h-16v7.3h13V39h-13v7.5h16.2v4.4H95.6V23zm27 0h5.3v23.5h14.8V51h-20.1V23z"/><path fill="#5C6670" d="M9.9 58.9h-.4l-2.4-3v3h-.6v-4H7l2.4 3v-3h.6v4h-.1zm4.8 0h-.6l-.5-1h-2l-.5 1h-.6l1.8-4h.5l1.9 4zm-2.9-1.5h1.6l-.8-1.7-.8 1.7zm4.6 1.5h-.6v-3.4h-1.3V55h3.2v.5h-1.3v3.4zm2.6 0h-.6v-4h.6v4zm2.9.1c-1.2 0-2-.9-2-2 0-1.2.9-2.1 2-2.1 1.2 0 2 .9 2 2 0 1.2-.9 2.1-2 2.1zm0-3.6c-.8 0-1.5.6-1.5 1.5s.6 1.5 1.5 1.5c.8 0 1.5-.7 1.5-1.5-.1-.8-.7-1.5-1.5-1.5zm6.2 3.5h-.4l-2.4-3v3h-.6v-4h.5l2.4 3v-3h.6v4h-.1zm4.8 0h-.6l-.5-1h-2l-.5 1h-.6l1.8-4h.5l1.9 4zM30 57.4h1.6l-.8-1.7-.8 1.7zm6.2 1.5h-2.8v-4h.6v3.4h2.2v.6zm2.9 0h-.6v-4h1.7c.5 0 .9.1 1.1.4.2.2.3.5.3.8 0 .6-.4 1-1 1.2l1.2 1.6h-.7l-1.5-2h.5c.6 0 .9-.3.9-.7 0-.5-.3-.7-.9-.7H39v3.4zm50.5 0H89v-4h1.7c.5 0 .9.1 1.1.4.2.2.3.5.3.8 0 .6-.4 1-1 1.2l1.2 1.6h-.7l-1.5-2h.5c.6 0 .9-.3.9-.7 0-.5-.3-.7-.9-.7h-1.1v3.4zm30.4 0h-.6v-4h1.7c.5 0 .9.1 1.1.4.2.2.3.5.3.8 0 .6-.4 1-1 1.2l1.2 1.6h-.7l-1.5-2h.5c.6 0 .9-.3.9-.7 0-.5-.3-.7-.9-.7h-1v3.4zm15.9 0h-.6v-4h1.7c.5 0 .9.1 1.1.4.2.2.3.5.3.8 0 .6-.4 1-1 1.2l1.2 1.6h-.6l-1.5-2h.5c.6 0 .9-.3.9-.7 0-.5-.3-.7-.9-.7h-1.1v3.4zm-90.4 0h-3v-4h2.9v.5H43v1.2h2.1v.5H43v1.2h2.4v.6h.1zm4.2 0h-.4l-2.4-3v3h-.6v-4h.5l2.4 3v-3h.6v4h-.1zm3.9 0h-3v-4h2.9v.5h-2.4v1.2h2v.5h-2v1.2h2.4v.6h.1zm4.9.1H58l-1-3-1 3h-.5l-1.4-4h.6l1.1 3.1 1-3.1h.5l1 3.1 1.1-3.1h.6l-1.5 4zm5.3-.1h-.6l-.5-1h-2l-.5 1h-.6l1.8-4h.6l1.8 4zm-2.9-1.5h1.6l-.8-1.7-.8 1.7zm5.3 1.5h-1.8v-4h1.7c.4 0 .8.1 1.1.4.2.2.3.4.3.7 0 .5-.3.7-.5.9.5.2.7.5.7.9 0 .7-.6 1.1-1.5 1.1zm-1.2-.5h1.2c.6 0 .9-.2.9-.6 0-.5-.6-.6-1-.6H65v1.2zm0-1.7h1.1c.5 0 .8-.2.8-.6 0-.4-.3-.6-.8-.6H65v1.2zm6.2 2.2h-2.8v-4h.6v3.4h2.2v.6zm3.6 0h-3v-4h2.9v.5h-2.4v1.2h2v.5h-2v1.2h2.4v.6h.1zm5.4 0h-3v-4h2.9v.5h-2.4v1.2h2v.5h-2v1.2h2.4v.6h.1zm4.2 0H84l-2.4-3v3H81v-4h.5l2.3 2.9v-3h.6v4.1zm3.9 0h-3v-4h2.9v.5h-2.4v1.2h2v.5h-2v1.2h2.4v.6h.1zm6.6.1c-1.2 0-2-.8-2-2s.9-2.1 2-2.1c.6 0 1 .2 1.5.5l-.4.4c-.3-.2-.6-.4-1.1-.4-.8 0-1.4.7-1.4 1.5 0 .9.6 1.5 1.5 1.5.4 0 .8-.1 1.1-.4v-.9h-1.2v-.5h1.7v1.6c-.3.4-.9.8-1.7.8zm4.1-.1h-.6v-1.6L96.8 55h.7l1.3 1.9L100 55h.7L99 57.4v1.5zm6.6 0h-2.8v-4h.6v3.4h2.2v.6zm4.5 0h-.6l-.5-1h-2l-.5 1h-.6l1.8-4h.5l1.9 4zm-2.9-1.5h1.6l-.8-1.7-.8 1.7zm5.3 1.5h-1.8v-4h1.7c.5 0 .8.1 1.1.4.2.2.3.4.3.7 0 .5-.3.7-.5.9.5.2.7.5.7.9-.1.7-.6 1.1-1.5 1.1zm-1.3-.5h1.2c.6 0 .9-.2.9-.6 0-.5-.6-.6-1-.6h-1.2v1.2h.1zm0-1.7h1.1c.5 0 .8-.2.8-.6 0-.4-.3-.6-.8-.6h-1.1v1.2zm5.3 2.3c-1.2 0-2-.9-2-2 0-1.2.9-2.1 2-2.1 1.2 0 2 .9 2 2 .1 1.2-.8 2.1-2 2.1zm0-3.6c-.8 0-1.5.6-1.5 1.5s.6 1.5 1.5 1.5c.8 0 1.5-.7 1.5-1.5s-.6-1.5-1.5-1.5zm10.7 3.5h-.6l-.5-1h-2l-.5 1h-.6l1.8-4h.5l1.9 4zm-2.9-1.5h1.6l-.8-1.7-.8 1.7zm4.6 1.5h-.6v-3.4H127V55h3.2v.5h-1.3v3.4zm3.6.1c-1.2 0-2-.9-2-2 0-1.2.9-2.1 2-2.1 1.2 0 2 .9 2 2 0 1.2-.9 2.1-2 2.1zm0-3.6c-.8 0-1.5.6-1.5 1.5s.6 1.5 1.5 1.5c.8 0 1.5-.7 1.5-1.5-.1-.8-.7-1.5-1.5-1.5zm8.5 3.5h-.6v-1.6l-1.7-2.4h.7l1.3 1.9L142 55h.7l-1.7 2.4v1.5z"/><path d="M33.3245 72.51897c-1.11405-.62781-2.38199-.94171-3.80995-.94171-3.10212 0-5.58258 1.15098-7.43524 3.4591-1.85265 2.30813-2.78206 5.47795-2.78206 9.50332 0 3.48989.94172 6.34581 2.82515 8.58007 1.88343 2.22812 4.20386 3.34217 6.9613 3.34217 1.66801 0 3.07135-.32006 4.19771-.95403 1.12021-.63396 2.12348-1.64954 3.00364-3.05288v3.26831h5.99497V63.87119h-6.25348v11.25134c-.68935-1.1079-1.59414-1.97575-2.70204-2.60356zm1.51413 16.80315c-.91094 1.29255-2.24042 1.94498-3.98229 1.94498-1.74801 0-3.04672-.65243-3.90842-1.95729-.85554-1.30486-1.2864-3.04673-1.2864-5.2256 0-2.01883.4247-3.71146 1.26794-5.07787.84323-1.36026 2.16656-2.04346 3.96997-2.04346 1.18176 0 2.22196.37545 3.11443 1.12636 1.45873 1.23716 2.18503 3.30524 2.18503 6.18578 0 2.06808-.45547 3.7484-1.36026 5.0471zm34.98502-15.54138h6.56123c-.36314-3.07134-1.77264-5.63797-4.23464-7.69374-2.45584-2.04962-5.71184-3.0775-9.76799-3.0775-4.67164 0-8.43235 1.55721-11.27596 4.67164-2.83745 3.11443-4.25926 7.25675-4.25926 12.42079 0 5.10865 1.40334 9.12786 4.21618 12.07611 2.70204 2.92363 6.16115 4.38852 10.38964 4.38852 2.56663 0 4.7332-.54165 6.49352-1.61877 1.02173-.62165 2.17887-1.69263 3.45911-3.20676l.6709 3.98229h4.41313V78.60626H63.20702v5.32408h7.37985c-.33237 2.0927-1.21254 3.78533-2.6405 5.07788-1.42796 1.28639-3.26215 1.93267-5.49641 1.93267-2.2835 0-4.31466-.81246-6.10576-2.44354-1.78495-1.63107-2.68358-4.40698-2.68358-8.33387 0-3.88996.82477-6.80743 2.48046-8.75241 1.64954-1.93882 3.76071-2.91131 6.32734-2.91131 1.3418 0 2.56048.24004 3.65607.72013 1.96345.8617 3.19445 2.38199 3.69916 4.56086zM62.36379 63.0095zm25.9741 14.92587c.78784-.89248 1.89574-1.34179 3.3237-1.34179 1.31101 0 2.41276.4247 3.29908 1.26793.88632.84323 1.37872 2.08039 1.48336 3.71147h-9.5895c.20312-1.5326.69552-2.73898 1.48336-3.63761zm8.62315-5.32408c-1.56952-.73244-3.34216-1.10174-5.29945-1.10174-3.30524 0-5.99497 1.08943-8.06305 3.2683-2.06808 2.17888-3.10212 5.31177-3.10212 9.39254 0 4.35774 1.14483 7.50294 3.44065 9.43561 2.28966 1.93267 4.9363 2.899 7.93995 2.899 3.6376 0 6.46275-1.15098 8.48159-3.44064 1.2987-1.44642 2.02499-2.86823 2.18502-4.26541h-6.29656c-.33237.69551-.71398 1.23715-1.14483 1.62491-.794.72014-1.82804 1.08329-3.09597 1.08329-1.20022 0-2.22195-.29544-3.07134-.89248-1.40334-.94787-2.14194-2.60972-2.22811-4.97324h16.1384c.03078-2.0373-.03692-3.59452-.1908-4.6778-.27697-1.8465-.87401-3.46527-1.79726-4.8686-1.02788-1.58184-2.32043-2.74514-3.89611-3.48374zm-4.8686-1.10174zm33.96329 1.98191c-1.55106-1.28024-3.54528-1.9142-5.98266-1.9142-1.95113 0-3.55759.47393-4.82552 1.42796-.70782.52933-1.45873 1.40334-2.25273 2.61587v-3.44064h-5.95188v23.54287h6.14884V82.95785c0-1.45873.20312-2.6528.60319-3.59452.78169-1.77264 2.2158-2.65896 4.3085-2.65896 1.69878 0 2.85592.60319 3.45911 1.81573.33237.66474.49856 1.61876.49856 2.85592v14.3473h6.32118v-15.8799c0-2.96055-.77553-5.07787-2.32659-6.35196zm-8.25385-1.98191z"/></svg>
