<svg xmlns="http://www.w3.org/2000/svg" role="img" viewBox="34.55 34.05 777.40 343.90"><g fill-opacity="1" fill-rule="nonzero" stroke="none" transform="matrix(1.33333 0 0 -1.33333 0 355.747) scale(.1)"><path fill="#fcc91f" d="M1687.76 870.379l-596.18 596.181 596.18 596.17 596.17-596.17-596.17-596.181"/><path fill="#2f2d2e" d="M1884.27 668.352L1747.45 805.18l136.82 136.832 136.82-136.832-136.82-136.828"/><path fill="#cc2730" d="M1195.1 956.801l-136.83 136.819 136.83 136.82 136.82-136.82-136.82-136.819"/><path fill="#3a62a0" d="M1300.78 1804.51l-246.45 246.45 246.45 246.45 246.46-246.45-246.46-246.45"/><path fill="#236365" d="M805.371 1307.19l-433.457 433.46 433.457 433.46 433.459-433.46-433.459-433.46"/><path fill="#f14f30" d="M1399.87 371.801L1071.82 699.84l328.05 328.04 328.03-328.04-328.03-328.039"/><path fill="#3a62a0" d="M2804.25 1488.28h45.97c73.67 1.56 102.93 30.3 102.93 105.01 0 67.92-36.57 100.84-102.93 100.84h-45.97zm-97.18 289.44h160.39c114.42 0 182.87-69.49 182.87-184.95 0-122.26-69.49-188.09-182.87-188.09h-160.39v373.04"/><path fill="#3a62a0" d="M3107.3 1675.84h88.82v-271.16h-88.82zm88.82 33.96h-88.82v67.92h88.82v-67.92"/><path fill="#3a62a0" d="M3387.86 1615.76c-39.18 0-51.72-34.49-51.72-67.92 0-31.88 14.63-63.74 51.2-63.74 37.62 0 53.82 29.25 53.82 63.21 0 34.48-13.59 68.45-53.3 68.45zm137.41-178.17c0-44.4-8.36-128-135.32-128-63.21 0-122.77 14.11-133.22 86.73h88.82c2.09-12.02 6.79-19.33 15.15-23.51 7.83-4.18 18.81-5.75 32.39-5.75 42.32 0 46.5 29.78 46.5 63.22v25.6h-1.05c-16.19-25.07-43.36-39.7-72.1-39.7-82.02 0-119.12 58.51-119.12 134.79 0 72.1 42.32 132.71 119.12 132.71 32.4 0 56.95-14.11 72.63-41.8h1.04v33.96h85.16v-238.25"/><path fill="#3a62a0" d="M3589.55 1675.84h88.83v-271.16h-88.83zm88.83 33.96h-88.83v67.92h88.83v-67.92"/><path fill="#3a62a0" d="M3908.79 1618.36h-54.87v-123.3c0-21.41 12.54-26.12 31.88-26.12 7.31 0 15.16 1.04 22.99 1.04v-65.3c-16.19-.53-32.39-2.62-48.6-2.62-75.75 0-95.07 21.95-95.07 95.62v120.68h-44.95v57.48h44.95v82.03h88.8v-82.03h54.87v-57.48"/><path fill="#3a62a0" d="M4063.97 1451.7c42.32 0 56.43 24.04 54.34 79.94-12.54-7.84-35.53-9.41-54.85-14.63-19.87-4.7-36.59-13.06-36.59-34.49 0-21.94 17.25-30.82 37.1-30.82zm-114.94 140.54c1.57 35.53 18.29 58.52 42.32 72.63 24.04 13.58 55.39 18.81 86.21 18.81 64.26 0 126.43-14.11 126.43-90.91v-118.61c0-22.98 0-48.06 10.45-69.48h-89.34c-3.13 8.36-4.18 16.72-5.22 25.6-22.99-24.04-56.95-33.44-89.34-33.44-51.73 0-92.47 26.12-92.47 82.03 0 88.29 96.13 81.51 157.77 94.04 15.15 3.14 23.51 8.36 23.51 25.08 0 20.37-24.55 28.22-42.84 28.22-24.56 0-40.22-10.98-44.4-33.97h-83.08"/><path fill="#3a62a0" d="M4269.84 1777.72h88.81v-373.04h-88.81v373.04"/><path fill="#3a62a0" d="M4597.96 1777.72h297.27v-77.85h-200.09v-65.31H4878v-75.23h-182.86v-71.05h205.33v-83.6h-302.51v373.04"/><path fill="#3a62a0" d="M5067.67 1451.7c42.33 0 56.43 24.04 54.34 79.94-12.54-7.84-35.53-9.41-54.86-14.63-19.85-4.7-36.57-13.06-36.57-34.49 0-21.94 17.24-30.82 37.09-30.82zm-114.94 140.54c1.57 35.53 18.28 58.52 42.33 72.63 24.02 13.58 55.37 18.81 86.2 18.81 64.27 0 126.43-14.11 126.43-90.91v-118.61c0-22.98 0-48.06 10.45-69.48h-89.33c-3.15 8.36-4.18 16.72-5.24 25.6-22.99-24.04-56.94-33.44-89.33-33.44-51.72 0-92.48 26.12-92.48 82.03 0 88.29 96.13 81.51 157.79 94.04 15.15 3.14 23.51 8.36 23.51 25.08 0 20.37-24.57 28.22-42.85 28.22-24.55 0-40.23-10.98-44.41-33.97h-83.07"/><path fill="#3a62a0" d="M5273.53 1675.84h86.21v-47.54h1.05c13.06 34.48 43.37 52.76 81.5 52.76 6.79 0 14.12-.52 20.9-2.09v-80.98c-11.49 3.14-21.94 5.23-33.95 5.23-43.89 0-66.88-30.31-66.88-64.27v-134.27h-88.83v271.16"/><path fill="#3a62a0" d="M5660.69 1618.36h-54.85v-123.3c0-21.41 12.54-26.12 31.86-26.12 7.32 0 15.15 1.04 22.99 1.04v-65.3c-16.2-.53-32.39-2.62-48.58-2.62-75.76 0-95.1 21.95-95.1 95.62v120.68h-44.92v57.48h44.92v82.03h88.83v-82.03h54.85v-57.48"/><path fill="#3a62a0" d="M5704.59 1777.72h88.83v-138.98h1.03c13.6 27.69 50.16 44.94 82.56 44.94 90.38 0 97.7-65.83 97.7-105.02v-173.98h-88.82v131.13c0 37.1 4.18 74.72-44.41 74.72-33.43 0-48.06-28.21-48.06-58v-147.85h-88.83v373.04"/><path fill="#2f2d2e" d="M4533.43 1023.61h92.41l-45.36 130.13h-1.27zm18.65 182.27h56.38l116.57-302.65h-56.8l-28.41 80.11h-120.8l-28.41-80.11h-54.67l116.14 302.65"/><path fill="#2f2d2e" d="M4753.87 1205.88h208.97v-45.78h-155.99v-79.27h136.92v-43.23h-136.92V903.23h-52.98v302.65"/><path fill="#2f2d2e" d="M5058.23 1068.12h86.9c33.48 0 51.71 16.53 51.71 48.32 0 38.57-25.01 46.21-52.56 46.21h-86.05zm-52.99 137.76h144.54c66.14 0 100.04-30.51 100.04-81.8 0-58.08-40.26-72.91-50.02-76.3v-.85c18.24-2.55 44.94-16.12 44.94-64.02 0-35.172 5.08-67.39 16.53-79.68h-56.8c-8.06 13.141-8.06 29.668-8.06 44.508 0 55.532-11.44 80.112-60.19 80.112h-77.99V903.23h-52.99v302.65"/><path fill="#2f2d2e" d="M5303.67 1205.88h52.99V903.23h-52.99v302.65"/><path fill="#2f2d2e" d="M5625.84 1109.66c-8.91 34.76-31.37 60.2-75.46 60.2-64.85 0-91.98-57.23-91.98-115.3 0-58.08 27.13-115.298 91.98-115.298 47.05 0 72.91 35.179 77.15 79.258h51.72c-4.24-72.481-55.53-122.5-128.87-122.5-90.71 0-144.97 72.062-144.97 158.54 0 86.47 54.26 158.53 144.97 158.53 68.25-.42 122.08-38.14 128.44-103.43h-52.98"/><path fill="#2f2d2e" d="M5789.89 1023.61h92.4l-45.35 130.13h-1.28zm18.64 182.27h56.38l116.57-302.65h-56.79l-28.4 80.11h-120.81l-28.4-80.11h-54.69l116.14 302.65"/></g><path d="M121.8564 328.4955h5.96704c2.94167 0 4.90876.84304 5.8953 2.5351.98653 1.68607 1.48279 4.10757 1.48279 7.2585 0 2.28398-.32885 4.25705-.98654 5.90725-1.20776 3.01342-3.33628 4.52013-6.39155 4.52013h-5.96704zm11.85038-4.70547c-1.27353-.42451-2.86992-.64574-4.78918-.67563h-13.3511v30.98318h13.3511c4.68156 0 8.1434-1.92524 10.38552-5.7817 1.6502-2.85796 2.4753-6.34372 2.4753-10.46325 0-1.62629-.19132-3.33628-.58593-5.12998-.39462-1.7937-1.13003-3.46184-2.20625-5.00442-1.34528-1.9073-3.1031-3.2167-5.27946-3.9282zm18.62458 4.66362v-5.53058h-6.07466v5.53057zm-6.07466 2.7324v22.91153h6.07466v-22.91153zm25.26725 16.40637c-.9686 1.05829-2.15244 1.58444-3.55152 1.58444-2.10461 0-3.5575-.96262-4.37065-2.89982-.44843-1.03436-.67563-2.2182-.67563-3.55152 0-1.54258.20927-2.83405.63377-3.88635.79521-1.97905 2.2481-2.96559 4.34674-2.96559 1.54258 0 2.77425.568 3.68904 1.70402.92077 1.136 1.38115 2.78621 1.38115 4.96257 0 2.3079-.4843 3.99397-1.4529 5.05225zm-2.03884-16.4243c-.855-.35277-1.85946-.52616-3.00743-.52616-3.10908 0-5.51264 1.15993-7.21068 3.47978-1.69205 2.31387-2.54107 5.17781-2.54107 8.58584 0 3.52761.87891 6.32578 2.63674 8.39452 1.75782 2.06873 4.11355 3.1031 7.05522 3.1031 1.90132 0 3.44988-.4544 4.64568-1.3692.65769-.49027 1.27353-1.22569 1.84751-2.20624v1.47083c0 2.18831-.23916 3.74285-.7115 4.6696-.72944 1.44094-2.17636 2.1644-4.33478 2.1644-1.52464 0-2.61282-.27504-3.25855-.81913-.37668-.3109-.65171-.81314-.81912-1.51268h-6.51711c.1973 2.28398 1.21971 3.99995 3.0732 5.14792 1.84751 1.14796 4.23911 1.72195 7.16882 1.72195 4.843 0 8.12546-1.29147 9.83546-3.86841.99251-1.50073 1.48877-3.72492 1.48877-6.68453v-21.73366h-5.81757v3.3004c-.89685-1.60834-2.07471-2.72044-3.53359-3.31834zm-1.09415-.59193zm22.20002-2.12255v-5.53057h-6.07466v5.53057zm-6.07466 2.7324v22.91154h6.07466v-22.91153zm9.51857 4.47828h3.19876v14.10446c0 1.42898.33483 2.48726 1.00447 3.17485 1.04035 1.07622 2.97157 1.5665 5.80561 1.47083l2.83405-.10762v-4.47827c-.19133.01794-.39461.0299-.5979.03587-.20329.00598-.39461.01196-.57996.01196-1.21374 0-1.94318-.11958-2.18234-.35276-.23916-.2272-.35874-.81314-.35874-1.75185v-12.10747h3.71894v-4.269h-3.71894v-6.38558h-5.92519v6.38557h-3.19876zm29.327 7.29438v2.23017c-.04186 2.00296-.60986 3.38411-1.69206 4.13746-1.08818.75934-2.278 1.13601-3.56349 1.13601-.81314 0-1.5067-.2272-2.07471-.6816-.568-.4544-.84902-1.1958-.84902-2.21821 0-1.14797.46038-1.99699 1.38713-2.54705.54409-.32287 1.4529-.59193 2.71446-.81913l1.34528-.25112c.66965-.12556 1.20178-.26307 1.58443-.40657.38266-.14947.76532-.3408 1.14797-.57996zm-3.64122-2.79817l-2.03884.25111c-2.3079.29895-4.05974.78923-5.25554 1.47682-2.17038 1.26157-3.25257 3.3004-3.25257 6.11651 0 2.17038.67562 3.85048 2.02688 5.03432 1.35125 1.18384 3.06124 1.77577 5.13596 1.77577 1.62629 0 3.08516-.3707 4.37663-1.11808 1.07622-.6278 2.02688-1.3931 2.85796-2.28995.04185.52017.09566.98055.16741 1.38712.07175.40658.1973.84304.37668 1.30343h6.5171v-.8849c-.3946-.17937-.68758-.41255-.88489-.69356-.19132-.27503-.3109-.80716-.35276-1.5964-.0299-1.03436-.04185-1.91925-.04185-2.64869v-10.5051c0-2.7623-.97458-4.6397-2.92373-5.6382-1.94915-.99251-4.17932-1.48877-6.68452-1.48877-3.85646 0-6.57092 1.00447-8.15536 3.02537-.9985 1.29147-1.55454 2.9357-1.6801 4.93866h5.77572c.1435-.8849.4245-1.58444.84304-2.09863.58594-.70552 1.59041-1.0523 3.00743-1.0523 1.26157 0 2.21821.17936 2.86992.53212.65171.35874.97458 1.01046.97458 1.94916 0 .77129-.4245 1.33332-1.2795 1.69804-.47833.21524-1.26755.38863-2.37965.52615zm.31689-9.58434zm20.74713 23.52139V323.1144h-5.99096v30.98318zm41.20129-25.49446v-5.48872H259.2598v30.98318h23.47953v-5.56645h-17.15375v-7.97001h15.05512v-5.3811h-15.05512v-6.5769zm-11.20465-5.48872zm29.1536 19.8443v2.23017c-.04185 2.00296-.60387 3.38411-1.69205 4.13746-1.08818.75934-2.27202 1.13601-3.56349 1.13601-.81314 0-1.50072-.2272-2.06873-.6816-.568-.4544-.855-1.1958-.855-2.21821 0-1.14797.46637-1.99699 1.38713-2.54706.55007-.32286 1.4529-.59192 2.71447-.81912l1.34527-.25112c.66965-.12556 1.20178-.26307 1.58444-.40657.38863-.14947.77129-.3408 1.14797-.57996zm-3.63523-2.79817l-2.03883.25111c-2.31388.29895-4.06573.78923-5.25555 1.47682-2.17037 1.26157-3.25855 3.3004-3.25855 6.11651 0 2.17038.67563 3.85048 2.02688 5.03432 1.35125 1.18384 3.06723 1.77577 5.14194 1.77577 1.62629 0 3.07918-.3707 4.37065-1.11808 1.07622-.6278 2.03286-1.3931 2.85796-2.28995.04185.52017.10164.98055.16741 1.38712.07175.40658.19731.84304.38266 1.30343h6.51113v-.8849c-.38863-.17937-.6816-.41255-.87891-.69356-.19731-.27503-.31689-.80717-.35874-1.5964-.0299-1.03436-.04186-1.91925-.04186-2.64869v-10.5051c0-2.7623-.97457-4.6397-2.92373-5.6382-1.94915-.99251-4.17334-1.48877-6.68452-1.48877-3.85047 0-6.57092 1.00447-8.15535 3.02537-.99252 1.29147-1.55454 2.9357-1.6801 4.93866h5.78169c.13752-.8849.41853-1.58444.83706-2.09863.59192-.70552 1.59041-1.0523 3.00744-1.0523 1.26157 0 2.2182.17936 2.86992.53212.6517.35874.98055 1.01046.98055 1.94916 0 .77129-.43049 1.33332-1.28548 1.69803-.47832.21525-1.26755.38864-2.37367.52616zm.3169-9.58434zm27.35392.07175c-.07773-.00598-.1734-.00598-.28102-.00598-1.7937 0-3.25257.46636-4.37663 1.40506-.6816.56203-1.48877 1.60835-2.41551 3.133v-3.99397h-5.71593v22.91153h6.03282v-10.94755c0-1.84154.23318-3.19877.69356-4.08366.8251-1.5665 2.44541-2.34975 4.85495-2.34975.17937 0 .41853.00598.7115.01794.29895.01794.63377.04185 1.01045.0837v-6.13445c-.26308-.01794-.43647-.02391-.5142-.03587zm1.67412 5.01638h3.19278v14.10446c0 1.42898.33483 2.48726 1.01045 3.17485 1.03437 1.07622 2.97157 1.5665 5.79963 1.47083l2.84003-.10762v-4.47827c-.1973.01794-.4006.0299-.60388.03587-.20329.00598-.39462.01196-.57399.01196-1.21971 0-1.94915-.11958-2.1883-.35276-.23917-.2272-.35875-.81314-.35875-1.75185v-12.10747h3.72492v-4.269h-3.72492v-6.38558h-5.92519v6.38557h-3.19278zm33.17747-4.3288c-1.15395-.49028-2.43944-.73541-3.85646-.73541-1.26157 0-2.46335.26307-3.60533.78922-1.142.52018-2.14647 1.4529-3.0194 2.78024v-10.94755h-5.96704v30.87556h5.96704v-12.40045c0-1.96111.41255-3.4738 1.23167-4.53208.81913-1.05829 2.0209-1.58444 3.60534-1.58444 1.53062 0 2.565.53213 3.10908 1.5964.42451.75933.63377 1.75184.63377 2.98352v13.93705h6.11652v-13.45275c0-2.04482-.07175-3.52164-.20926-4.42446-.1435-.90283-.52616-1.78175-1.15993-2.63674-.7414-1.01045-1.69206-1.75783-2.846-2.2481zm30.7201 11.05517l3.99397-12.19118 3.86841 12.19118zm.4006-19.2763l-11.05518 30.98319h6.76823l2.14048-6.36764h11.41391l1.99699 6.36764h7.01934l-10.97146-30.98318zm3.61729 0zm27.59906-.281c-.3109-.02392-.65171-.03588-1.03437-.03588-3.31834 0-5.41697.68759-6.28393 2.06276-.8251.92674-1.23765 2.61282-1.23765 5.0642v1.47084h-3.28247v4.22716h3.34226v18.4751h5.97302v-18.4751h3.9282v-4.22716h-3.9282v-1.93121c0-.44843.14948-.86098.44843-1.23168.30493-.3707.84902-.54409 1.64422-.52615.78923.02392 1.35126.05381 1.69206.09566v-4.87886c-.53811-.04185-.95664-.07175-1.26157-.08969zm17.57826 7.81455c-.07175-.00598-.16741-.00598-.28101-.00598-1.7937 0-3.25258.46636-4.37065 1.40506-.68759.56203-1.49475 1.60835-2.4215 3.133v-3.99397h-5.71592v22.91153h6.03281v-10.94755c0-1.84154.23318-3.19877.69356-4.08366.8251-1.5665 2.44542-2.34975 4.85495-2.34975.18535 0 .42451.00598.71748.01794.29297.01794.6278.04185 1.01045.0837v-6.13445c-.26905-.01794-.44244-.02391-.52017-.03587zm10.18822-2.1943v-5.53057h-6.07467v5.53057zm-6.07467 2.7324v22.91154h6.07467v-22.91153zm25.56023 8.22113h6.13445c-.33482-3.26453-1.41702-5.54253-3.2466-6.834-1.82957-1.28548-4.17932-1.93121-7.04924-1.93121-3.37813 0-6.02683 1.09416-7.94609 3.2765-1.91926 2.1883-2.88188 5.24955-2.88188 9.18373 0 3.49174.86696 6.33177 2.60685 8.5141 1.73989 2.18831 4.44838 3.28247 8.13742 3.28247 3.68306 0 6.4633-1.3094 8.3407-3.93418 1.17787-1.62629 1.83556-3.34824 1.97905-5.17184h-6.11652c-.12555 1.20776-.4843 2.18832-1.07621 2.94765-.58595.75336-1.57846 1.13601-2.98353 1.13601-1.97307 0-3.31834-.95664-4.03582-2.86394-.38864-1.0224-.58594-2.37366-.58594-4.05376 0-1.7638.1973-3.18083.58594-4.2451.7414-2.00296 2.12254-3.00743 4.14345-3.00743 1.41104 0 2.45737.46038 3.133 1.38713.46038.68758.74737 1.45888.86097 2.31387zm-4.05974-8.83098zm26.94735 12.3825v2.23018c-.04185 2.00296-.60388 3.38411-1.69206 4.13746-1.0822.75934-2.27202 1.13601-3.56348 1.13601-.81315 0-1.50073-.2272-2.06874-.6816-.568-.4544-.84901-1.1958-.84901-2.21821 0-1.14797.46038-1.99699 1.38712-2.54706.5441-.32286 1.44692-.59192 2.7085-.81912l1.34527-.25112c.67562-.12556 1.20178-.26307 1.59041-.40657.38266-.14947.76531-.3408 1.14199-.57996zm-3.63523-2.79816l-2.03884.25111c-2.31387.29895-4.06572.78923-5.25554 1.47682-2.17038 1.26157-3.25856 3.3004-3.25856 6.11651 0 2.17038.67563 3.85048 2.02688 5.03432 1.35724 1.18384 3.06723 1.77577 5.14194 1.77577 1.6263 0 3.08517-.3707 4.37065-1.11808 1.0822-.6278 2.03286-1.3931 2.85796-2.28995.04186.52017.10165.98055.1734 1.38712.06576.40658.19132.84304.37667 1.30343h6.51711v-.8849c-.39461-.17937-.68758-.41255-.88489-.69356-.1973-.27503-.31689-.80717-.35874-1.5964-.02392-1.03436-.04185-1.91925-.04185-2.64869v-10.5051c0-2.7623-.97458-4.6397-2.91775-5.6382-1.94916-.99251-4.17933-1.48877-6.68453-1.48877-3.85645 0-6.5769 1.00447-8.16133 3.02537-.99252 1.29147-1.55454 2.9357-1.6801 4.93866h5.7817c.13751-.8849.41852-1.58444.84303-2.09863.58594-.70552 1.59042-1.0523 3.00146-1.0523 1.26157 0 2.2182.17936 2.86992.53212.65171.35874.98056 1.01046.98056 1.94916 0 .77129-.4305 1.33332-1.28549 1.69803-.47234.21525-1.26755.38864-2.37366.52616zm.31688-9.58434zm26.9653-7.4618v30.98319h6.0328v-22.0087l12.65755 22.0087h6.47526V323.1144h-6.03282v21.63202L521.7379 323.1144zm12.82495-.05978zm32.2029 24.95036c-.9387 1.24364-2.28398 1.87143-4.03583 1.87143-1.75185 0-3.1031-.6278-4.04778-1.87143-.94469-1.2496-1.41703-3.01939-1.41703-5.3213 0-2.29594.47234-4.06573 1.41703-5.30936.94468-1.23765 2.29593-1.85947 4.04778-1.85947 1.75185 0 3.09712.62182 4.03582 1.85947.9387 1.24363 1.40507 3.01342 1.40507 5.30935 0 2.30192-.46636 4.0717-1.40507 5.32131zm4.78917 3.3064c1.9372-2.38563 2.9058-5.26153 2.9058-8.6277 0-3.3064-.9686-6.17033-2.9058-8.5978-1.93121-2.4215-4.8669-3.63524-8.80706-3.63524-3.93419 0-6.86988 1.21374-8.80707 3.63523-1.93122 2.42748-2.89982 5.29142-2.89982 8.5978 0 3.36618.9686 6.24208 2.89982 8.6277 1.9372 2.3916 4.87288 3.5874 8.80707 3.5874 3.94016 0 6.87585-1.1958 8.80706-3.5874zm-8.80706-20.73518zm13.64407 5.08813h3.19279v14.10446c0 1.42898.3408 2.48726 1.01045 3.17485 1.03437 1.07622 2.97156 1.5665 5.79963 1.47083l2.84003-.10762v-4.47827a9.72893 9.72893 0 0 1-.5979.03587c-.20329.00598-.39462.01196-.57997.01196-1.21971 0-1.94915-.11958-2.18831-.35276-.23318-.2272-.35276-.81314-.35276-1.75185v-12.10747h3.71894v-4.269h-3.71894v-6.38558h-5.93117v6.38557h-3.19279zm22.49898 1.15395c.76531-.86696 1.84153-1.30343 3.22866-1.30343 1.27353 0 2.34377.41255 3.20474 1.23168.86098.81912 1.34528 2.0209 1.44094 3.60533h-9.3093c.19133-1.48877.67563-2.66065 1.43496-3.53358zm8.37658-5.17184c-1.52465-.7115-3.24062-1.07024-5.14792-1.07024-3.21072 0-5.81757 1.05828-7.83249 3.17485-2.00894 2.11656-3.01342 5.15988-3.01342 9.12395 0 4.23313 1.1121 7.2884 3.34227 9.16581 2.23016 1.8774 4.80113 2.8161 7.7129 2.8161 3.5336 0 6.27796-1.11806 8.23907-3.34225 1.26157-1.40507 1.97307-2.78622 2.12254-4.14345h-6.11651c-.32287.67563-.69357 1.20178-1.1121 1.57846-.77129.69954-1.76978 1.0523-3.00743 1.0523-1.15993 0-2.15842-.287-2.98353-.86695-1.35723-.92077-2.08069-2.5351-2.1644-4.83104h15.68292c.02392-1.97905-.03587-3.49173-.19133-4.54404-.26905-1.7937-.84901-3.36617-1.74586-4.72939-.99252-1.5366-2.25409-2.66663-3.78471-3.3841zm-4.72939-1.07024zm33.9368 3.36618c-1.69803-2.17636-4.05974-3.25856-7.07315-3.25856-1.66814 0-3.03733.34678-4.11953 1.0523-.90881.55605-1.74587 1.3692-2.49922 2.43346v-11.01332h-5.97303v30.94133h5.8654v-2.8759c.80119 1.11807 1.54259 1.90132 2.23017 2.34974 1.14797.75934 2.66663 1.13601 4.56198 1.13601 3.01341 0 5.35718-1.17188 7.04326-3.50967 1.6801-2.33779 2.52314-5.29141 2.52314-8.84892 0-3.43195-.855-6.2361-2.55901-8.40647zm-5.0104 13.95498c-.855 1.24961-2.0508 1.87143-3.59338 1.87143-1.78174 0-3.1031-.64573-3.97603-1.9372-.86696-1.28548-1.30342-2.91177-1.30342-4.87288 0-1.66814.20926-3.02538.63377-4.07768.81314-1.97905 2.30192-2.96558 4.47827-2.96558 2.14048 0 3.61132 1.01045 4.4125 3.02537.41853 1.07024.6278 2.41552.6278 4.03583 0 2.03286-.42451 3.6711-1.2795 4.92071zm26.17009.10762c-.9387 1.24364-2.28398 1.87143-4.03583 1.87143-1.75185 0-3.1031-.6278-4.04778-1.87143-.94468-1.2496-1.41702-3.01939-1.41702-5.3213 0-2.29594.47234-4.06573 1.41702-5.30936.94468-1.23765 2.29593-1.85947 4.04778-1.85947 1.75185 0 3.09712.62182 4.03583 1.85947.9387 1.24363 1.40506 3.01342 1.40506 5.30935 0 2.30192-.46636 4.0717-1.40506 5.32131zm4.78918 3.3064c1.9372-2.38563 2.90579-5.26153 2.90579-8.6277 0-3.3064-.9686-6.17033-2.9058-8.5978-1.93121-2.4215-4.8669-3.63524-8.80706-3.63524-3.93418 0-6.86987 1.21374-8.80707 3.63523-1.93122 2.42748-2.89981 5.29142-2.89981 8.5978 0 3.36618.9686 6.24208 2.89981 8.6277 1.9372 2.3916 4.87289 3.5874 8.80707 3.5874 3.94016 0 6.87585-1.1958 8.80707-3.5874zm-8.80707-20.73518zm30.31353 17.42878c-.9387 1.24364-2.28398 1.87143-4.03583 1.87143-1.75184 0-3.1031-.6278-4.04778-1.87143-.94468-1.2496-1.41702-3.01939-1.41702-5.3213 0-2.29594.47234-4.06573 1.41702-5.30936.94468-1.23765 2.29594-1.85947 4.04778-1.85947 1.75185 0 3.09712.62182 4.03583 1.85947.9387 1.24363 1.40506 3.01342 1.40506 5.30935 0 2.30192-.46636 4.0717-1.40506 5.32131zm4.78918 3.3064c1.9372-2.38563 2.9058-5.26153 2.9058-8.6277 0-3.3064-.9686-6.17033-2.9058-8.5978-1.93122-2.4215-4.8669-3.63524-8.80707-3.63524-3.93418 0-6.86987 1.21374-8.80707 3.63523-1.93121 2.42748-2.89981 5.29142-2.89981 8.5978 0 3.36618.9686 6.24208 2.89981 8.6277 1.9372 2.3916 4.87289 3.5874 8.80707 3.5874 3.94016 0 6.87585-1.1958 8.80707-3.5874zm-8.80707-20.73518zm15.93404-7.35417v30.87556h5.88931v-7.21068l2.4753-2.58293 5.48873 9.7936h7.2286l-8.32276-14.03869 8.01186-8.76521h-7.41994l-7.46179 8.61574v-16.68739zm28.67528 23.56324h-6.07466c0 2.34975.855 4.28694 2.57097 5.81159 1.71597 1.51866 4.37662 2.278 7.97598 2.278 3.53359 0 6.14641-.71748 7.8325-2.15244 1.68607-1.43496 2.53509-3.28845 2.53509-5.56047 0-1.72196-.59192-3.1629-1.76979-4.31086-1.18982-1.13601-2.97754-1.97905-5.35718-2.54108-3.57544-.78325-5.65614-1.3393-6.24208-1.66216-.59192-.30493-.88489-.80717-.88489-1.48877 0-.55007.27503-1.02839.83108-1.43496.55007-.4006 1.4828-.60388 2.78622-.60388 1.58443 0 2.7025.4006 3.3602 1.21374.35275.44842.568 1.05828.6517 1.82957h5.99096c-.26307-2.79817-1.29744-4.77124-3.09712-5.91323-1.80566-1.14199-4.13149-1.71597-6.98945-1.71597-3.01342 0-5.3512.75933-7.01337 2.28397-1.66216 1.51867-2.48726 3.33629-2.48726 5.45285 0 1.7937.53213 3.16887 1.5964 4.11953 1.06425.9686 2.89383 1.76979 5.48273 2.41552 3.60534.855 5.68603 1.45888 6.24208 1.81164.56203.34678.84304.86097.84304 1.53062 0 .69954-.34678 1.2257-1.04035 1.57846-.69356.34678-1.62628.52615-2.80415.52615-2.00296 0-3.37813-.4006-4.11953-1.20178-.4245-.44843-.69356-1.20178-.81912-2.26604zm4.57991-16.20907z"/></svg>