<?xml version="1.0" encoding="UTF-8" standalone="no"?>
<svg
   version="1.1"
   id="svg4"
   width="40.382812"
   height="9.2988281"
   xmlns="http://www.w3.org/2000/svg"
   xmlns:svg="http://www.w3.org/2000/svg">
  <defs
     id="defs8" />
  <g
     aria-label="dorado"
     id="text2"
     transform="translate(-0.6328125,9.1171875)">
    <path
       d="M 6.3925781,0 H 5.2910156 V -0.68554687 Q 4.8164062,-0.27539063 4.3007812,-0.046875 3.7851563,0.18164062 3.1816406,0.18164062 q -1.171875,0 -1.8632812,-0.90234374 -0.6855469,-0.90234378 -0.6855469,-2.50195318 0,-0.8320312 0.234375,-1.4824218 Q 1.1074219,-5.3554687 1.5117187,-5.8125 1.9101562,-6.2578125 2.4375,-6.4921875 q 0.5332031,-0.234375 1.1015625,-0.234375 0.515625,0 0.9140625,0.1113281 0.3984375,0.1054688 0.8378906,0.3339844 V -9.1171875 H 6.3925781 Z M 5.2910156,-1.6113281 V -5.3671875 Q 4.8457031,-5.5664062 4.4941406,-5.6425781 4.1425781,-5.71875 3.7265625,-5.71875 q -0.9257812,0 -1.4414062,0.6445313 -0.5156251,0.6445312 -0.5156251,1.8281249 0,1.1660157 0.3984376,1.7753907 0.3984375,0.6035156 1.2773437,0.6035156 0.46875,0 0.9492187,-0.2050781 Q 4.875,-1.2832031 5.2910156,-1.6113281 Z"
       id="path10" />
    <path
       d="m 14.138672,-3.2695313 q 0,1.5996094 -0.820313,2.52539068 -0.820312,0.92578124 -2.197265,0.92578124 -1.3886721,0 -2.2089846,-0.92578124 -0.8144531,-0.92578128 -0.8144531,-2.52539068 0,-1.5996093 0.8144531,-2.5253906 0.8203125,-0.9316406 2.2089846,-0.9316406 1.376953,0 2.197265,0.9316406 0.820313,0.9257813 0.820313,2.5253906 z m -1.136719,0 q 0,-1.2714843 -0.498047,-1.8867187 -0.498047,-0.6210937 -1.382812,-0.6210937 -0.896485,0 -1.3945315,0.6210937 -0.4921875,0.6152344 -0.4921875,1.8867187 0,1.2304688 0.4980469,1.8691407 0.4980471,0.63281248 1.3886721,0.63281248 0.878906,0 1.376953,-0.62695308 0.503906,-0.6328126 0.503906,-1.8750001 z"
       id="path12" />
    <path
       d="m 19.927734,-5.34375 h -0.05859 q -0.246094,-0.058594 -0.480469,-0.082031 -0.228516,-0.029297 -0.544922,-0.029297 -0.509766,0 -0.984375,0.2285156 -0.474609,0.2226563 -0.914063,0.5800781 V 0 H 15.84375 v -6.5449219 h 1.101562 v 0.9667969 q 0.65625,-0.5273437 1.154297,-0.7441406 0.503907,-0.2226563 1.025391,-0.2226563 0.287109,0 0.416016,0.017578 0.128906,0.011719 0.386718,0.052734 z"
       id="path14" />
    <path
       d="m 25.839844,0 h -1.095703 v -0.69726562 q -0.146485,0.0996094 -0.398438,0.28124999 -0.246094,0.17578125 -0.480469,0.28125001 Q 23.589844,0 23.232422,0.08789062 q -0.357422,0.09375 -0.837891,0.09375 -0.884765,0 -1.5,-0.5859375 -0.615234,-0.5859375 -0.615234,-1.49414062 0,-0.7441406 0.316406,-1.2011719 0.322266,-0.4628906 0.914063,-0.7265625 0.597656,-0.2636718 1.435546,-0.3574218 0.837891,-0.09375 1.798829,-0.140625 v -0.1699219 q 0,-0.375 -0.134766,-0.6210938 -0.128906,-0.2460937 -0.375,-0.3867187 Q 24,-5.6367187 23.671875,-5.6835937 q -0.328125,-0.046875 -0.685547,-0.046875 -0.433594,0 -0.966797,0.1171875 -0.533203,0.1113281 -1.101562,0.328125 h -0.05859 v -1.1191407 q 0.322266,-0.087891 0.931641,-0.1933593 0.609375,-0.1054688 1.201171,-0.1054688 0.691407,0 1.201172,0.1171875 0.515625,0.1113281 0.890625,0.3867188 0.369141,0.2695312 0.5625,0.6972656 0.19336,0.4277344 0.19336,1.0605469 z m -1.095703,-1.6113281 v -1.8222657 q -0.503907,0.029297 -1.189454,0.087891 -0.679687,0.058594 -1.078125,0.1699218 -0.474609,0.1347657 -0.767578,0.421875 -0.292968,0.28125 -0.292968,0.7792969 0,0.5625 0.339843,0.8496094 0.339844,0.28125 1.03711,0.28125 0.580078,0 1.060547,-0.2226562 0.480468,-0.2285157 0.890625,-0.5449222 z"
       id="path16" />
    <path
       d="m 33.269531,0 h -1.101562 v -0.68554687 q -0.47461,0.41015624 -0.990235,0.63867187 -0.515625,0.22851562 -1.11914,0.22851562 -1.171875,0 -1.863282,-0.90234374 -0.685546,-0.90234378 -0.685546,-2.50195318 0,-0.8320312 0.234375,-1.4824218 0.240234,-0.6503906 0.644531,-1.1074219 0.398437,-0.4453125 0.925781,-0.6796875 0.533203,-0.234375 1.101563,-0.234375 0.515625,0 0.914062,0.1113281 0.398438,0.1054688 0.837891,0.3339844 v -2.8359375 h 1.101562 z m -1.101562,-1.6113281 v -3.7558594 q -0.445313,-0.1992187 -0.796875,-0.2753906 -0.351563,-0.076172 -0.767578,-0.076172 -0.925782,0 -1.441407,0.6445313 -0.515625,0.6445312 -0.515625,1.8281249 0,1.1660157 0.398438,1.7753907 0.398437,0.6035156 1.277344,0.6035156 0.46875,0 0.949218,-0.2050781 0.480469,-0.2109375 0.896485,-0.5390624 z"
       id="path18" />
    <path
       d="m 41.015625,-3.2695313 q 0,1.5996094 -0.820313,2.52539068 -0.820312,0.92578124 -2.197265,0.92578124 -1.388672,0 -2.208985,-0.92578124 -0.814453,-0.92578128 -0.814453,-2.52539068 0,-1.5996093 0.814453,-2.5253906 0.820313,-0.9316406 2.208985,-0.9316406 1.376953,0 2.197265,0.9316406 0.820313,0.9257813 0.820313,2.5253906 z m -1.136719,0 q 0,-1.2714843 -0.498047,-1.8867187 -0.498047,-0.6210937 -1.382812,-0.6210937 -0.896485,0 -1.394531,0.6210937 -0.492188,0.6152344 -0.492188,1.8867187 0,1.2304688 0.498047,1.8691407 0.498047,0.63281248 1.388672,0.63281248 0.878906,0 1.376953,-0.62695308 0.503906,-0.6328126 0.503906,-1.8750001 z"
       id="path20" />
  </g>
</svg>
