<?xml version="1.0" encoding="UTF-8" standalone="no"?>
<!-- Created with Inkscape (http://www.inkscape.org/) -->

<svg
   version="1.1"
   id="svg1"
   width="94.218216"
   height="97.481262"
   viewBox="0 0 94.218216 97.481262"
   sodipodi:docname="draco.png"
   inkscape:version="1.3.1 (91b66b0, 2023-11-16)"
   xmlns:inkscape="http://www.inkscape.org/namespaces/inkscape"
   xmlns:sodipodi="http://sodipodi.sourceforge.net/DTD/sodipodi-0.dtd"
   xmlns="http://www.w3.org/2000/svg"
   xmlns:svg="http://www.w3.org/2000/svg">
  <defs
     id="defs1" />
  <sodipodi:namedview
     id="namedview1"
     pagecolor="#ffffff"
     bordercolor="#666666"
     borderopacity="1.0"
     inkscape:showpageshadow="2"
     inkscape:pageopacity="0.0"
     inkscape:pagecheckerboard="0"
     inkscape:deskcolor="#d1d1d1"
     inkscape:zoom="7.3139624"
     inkscape:cx="40.743988"
     inkscape:cy="86.13662"
     inkscape:window-width="1552"
     inkscape:window-height="749"
     inkscape:window-x="671"
     inkscape:window-y="227"
     inkscape:window-maximized="0"
     inkscape:current-layer="g1" />
  <g
     inkscape:groupmode="layer"
     inkscape:label="Image"
     id="g1"
     transform="translate(0,-0.06207831)">
    <path
       d="m 28.443101,87.578167 q 0,2.613607 -1.145867,4.737967 -1.132992,2.124361 -3.025605,3.295978 -1.313241,0.811119 -2.935479,1.171617 -1.609364,0.360497 -4.248721,0.360497 H 12.246462 V 77.973484 h 4.789467 q 2.806731,0 4.45472,0.411997 1.660863,0.399122 2.80673,1.107242 1.956986,1.223117 3.051354,3.257352 1.094368,2.034237 1.094368,4.828092 z m -2.665107,-0.03862 q 0,-2.253109 -0.78537,-3.798098 -0.785369,-1.544994 -2.343233,-2.433364 -1.132993,-0.643745 -2.407609,-0.888369 -1.274616,-0.257498 -3.051354,-0.257498 h -2.394733 v 14.793273 h 2.394733 q 1.841112,0 3.205853,-0.270373 1.377616,-0.270373 2.523483,-1.004243 1.429115,-0.914119 2.137235,-2.407608 0.720995,-1.49349 0.720995,-3.733725 z M 41.343761,85.40231 h -0.128748 q -0.540747,-0.12875 -1.055743,-0.180249 -0.502122,-0.06438 -1.197367,-0.06438 -1.120117,0 -2.162985,0.502121 -1.042868,0.489247 -2.008486,1.274617 V 97.144226 H 32.369948 V 82.762951 h 2.420484 v 2.12436 q 1.44199,-1.158743 2.536357,-1.635114 1.107243,-0.489246 2.25311,-0.489246 0.63087,0 0.914119,0.03862 0.283247,0.02575 0.849743,0.115875 z m 12.990786,11.741919 h -2.407608 v -1.532115 q -0.321873,0.218874 -0.875494,0.617996 -0.540747,0.386248 -1.055743,0.617996 -0.605121,0.296123 -1.390491,0.489247 -0.785369,0.205991 -1.841112,0.205991 -1.944111,0 -3.295977,-1.287484 -1.351866,-1.287491 -1.351866,-3.283102 0,-1.635114 0.695246,-2.639357 0.70812,-1.017118 2.008486,-1.596489 1.31324,-0.579371 3.154353,-0.78537 1.841112,-0.205999 3.952598,-0.308998 v -0.373372 q 0,-0.823994 -0.296123,-1.36474 -0.283248,-0.540747 -0.823995,-0.849745 -0.514996,-0.296123 -1.235991,-0.399122 -0.720995,-0.103 -1.506365,-0.103 -0.952743,0 -2.12436,0.257499 -1.171617,0.244623 -2.420483,0.720995 h -0.12875 v -2.45911 q 0.708121,-0.193124 2.047111,-0.424873 1.338991,-0.231748 2.639357,-0.231748 1.51924,0 2.639357,0.257498 1.132992,0.244624 1.956986,0.849744 0.81112,0.592246 1.235992,1.532115 0.424872,0.939868 0.424872,2.330358 z m -2.407608,-3.540601 v -4.004097 q -1.107243,0.06438 -2.613607,0.193123 -1.49349,0.12875 -2.368984,0.373373 -1.042868,0.296123 -1.686614,0.926993 -0.643745,0.617996 -0.643745,1.712364 0,1.235991 0.746745,1.866862 0.746745,0.617996 2.278859,0.617996 1.274616,0 2.330359,-0.489247 1.055743,-0.502121 1.956987,-1.197367 z m 17.703003,2.639357 q -1.210242,0.579371 -2.30461,0.901244 -1.081492,0.321872 -2.304609,0.321872 -1.557864,0 -2.85823,-0.450622 -1.300366,-0.463496 -2.22736,-1.39049 -0.939868,-0.926994 -1.454865,-2.343233 -0.514996,-1.416241 -0.514996,-3.308852 0,-3.527726 1.931237,-5.536213 1.944111,-2.008486 5.124214,-2.008486 1.235992,0 2.420483,0.347623 1.197367,0.347623 2.188736,0.849744 v 2.690857 h -0.12875 q -1.107242,-0.862619 -2.291734,-1.326116 -1.171617,-0.463497 -2.291734,-0.463497 -2.059986,0 -3.257353,1.39049 -1.184491,1.377616 -1.184491,4.055598 0,2.600731 1.158741,4.004096 1.171617,1.390491 3.283103,1.390491 0.73387,0 1.49349,-0.193123 0.759619,-0.193124 1.36474,-0.502122 0.527872,-0.270373 0.991368,-0.566496 0.463497,-0.308998 0.73387,-0.527871 h 0.12875 z m 15.359771,-6.282957 q 0,3.514851 -1.80249,5.549087 -1.802488,2.034229 -4.828092,2.034229 -3.051354,0 -4.853841,-2.034229 -1.789613,-2.034236 -1.789613,-5.549087 0,-3.51485 1.789613,-5.549086 1.802487,-2.047111 4.853841,-2.047111 3.025604,0 4.828092,2.047111 1.80249,2.034236 1.80249,5.549086 z m -2.497736,0 q 0,-2.793855 -1.094367,-4.145721 -1.094367,-1.364741 -3.038479,-1.364741 -1.969861,0 -3.064228,1.364741 -1.081493,1.351866 -1.081493,4.145721 0,2.703732 1.094367,4.107097 1.094368,1.39049 3.051354,1.39049 1.931237,0 3.025604,-1.377615 1.107242,-1.390491 1.107242,-4.119972 z"
       id="text8"
       aria-label="Draco"
       style="stroke-width:0.659195" />
    <g
       id="g2">
      <path
         style="fill:#cdd0e4"
         d="m 18.519969,69.96937 c -0.298897,-0.130566 -0.425597,-0.280312 -0.522216,-0.617203 -0.105826,-0.368993 0.03249,-0.816075 0.329896,-1.066325 l 0.244627,-0.20584 h 4.873861 4.873862 v -2.9022 c 0,-2.49724 0.01738,-2.927009 0.124537,-3.08 l 0.124536,-0.1778 h 3.379464 c 2.521805,0 3.403827,0.02436 3.475463,0.096 0.07124,0.07124 0.096,0.865777 0.096,3.08 v 2.984 h 14.88 14.88 l 5.24e-4,-0.62 c 2.89e-4,-0.341 0.144098,-7.748 0.319576,-16.460001 0.175479,-8.712 0.319243,-16.187884 0.319476,-16.613076 l 4.24e-4,-0.773076 -0.49492,0.515408 c -0.936919,0.975703 0.139618,0.759213 -13.10508,2.63541 -8.290839,1.174451 -11.768267,1.637977 -12.085791,1.610982 -0.576721,-0.04903 -1.014172,-0.277448 -1.424837,-0.743988 -1.091693,-1.240229 -0.556451,-3.158571 1.012792,-3.629916 0.29581,-0.08885 5.523836,-1.371868 11.617836,-2.851149 12.294436,-2.984399 11.798135,-2.887746 12.783833,-2.489605 l 0.483391,0.195251 0.174819,-0.488121 c 0.09615,-0.268466 0.282494,-0.658679 0.414098,-0.86714 0.305431,-0.483803 1.015033,-1.133274 1.515019,-1.386636 0.213862,-0.108372 0.388839,-0.215569 0.388839,-0.238216 0,-0.02265 -0.07574,-0.26504 -0.168321,-0.538652 C 66.677042,24.289348 66.538658,24.802319 70.467854,12.6 72.408895,6.5720002 74.077174,1.4661572 74.175142,1.2536827 c 0.345743,-0.74985307 1.077569,-1.18780035 1.984856,-1.18780035 1.241448,0 2.246958,0.9279639 2.261656,2.08723565 0.0039,0.3111097 -0.751201,3.8253763 -2.485492,11.566882 -1.370137,6.116001 -2.532188,11.318001 -2.582335,11.560001 -0.126816,0.611989 -0.426877,1.132385 -0.924062,1.602603 l -0.423863,0.400871 0.286148,0.547805 c 0.157382,0.301292 0.329436,0.740007 0.382344,0.974923 l 0.09619,0.427119 0.754705,0.0038 c 0.867087,0.0044 1.383712,0.15052 1.930724,0.546156 0.905037,0.654584 18.181961,15.230529 18.384952,15.51075 0.272093,0.375613 0.432737,1.058957 0.35958,1.529574 -0.18009,1.158524 -1.097148,1.922591 -2.298527,1.91507 -0.364265,-0.0023 -0.643942,-0.0526 -0.843491,-0.151773 C 90.477982,48.298395 71.634828,35.184506 71.290029,34.829024 l -0.34997,-0.360813 0.04935,1.305895 c 0.02714,0.718242 0.159877,8.127895 0.29497,16.465895 0.135094,8.338001 0.26328,15.310996 0.284858,15.495546 l 0.03923,0.335545 1.682484,0.02446 1.682485,0.02446 0.233281,0.261262 c 0.383951,0.430002 0.302863,1.203725 -0.159048,1.517616 -0.197314,0.134085 -1.605925,0.141975 -28.247669,0.158232 -22.977426,0.01402 -28.083337,-0.0018 -28.28003,-0.08774 z m 50.948026,-3.029368 c -0.01745,-0.583 -0.138836,-7.522 -0.269735,-15.420001 -0.130899,-7.898 -0.259928,-14.981 -0.28673,-15.74 l -0.04873,-1.38 h -0.511401 c -0.28127,0 -0.511716,0.009 -0.512101,0.02 -0.02791,0.79631 -0.558041,31.472204 -0.558547,32.320001 l -7.53e-4,1.26 h 1.109866 1.109866 z M 92.063998,46.624001 c 0.0528,-0.0528 0.096,-0.160587 0.096,-0.239528 0,-0.09273 -3.135713,-2.756513 -8.86,-7.526554 -4.873,-4.060664 -8.94901,-7.444877 -9.0578,-7.520472 -0.457248,-0.317729 -1.304626,-0.04069 -1.64333,0.537266 -0.264695,0.451667 -0.272639,1.038381 -0.01887,1.39355 0.173406,0.242694 19.121502,13.444046 19.304,13.449314 0.0462,0.0013 0.1272,-0.04078 0.18,-0.09358 z M 52.105715,34.877759 c 8.815151,-1.253301 11.337251,-1.636833 11.580788,-1.761077 0.205689,-0.104934 0.370302,-0.273848 0.485087,-0.497758 0.481962,-0.940163 -0.146363,-1.978923 -1.19701,-1.978923 -0.315507,0 -22.169321,5.039473 -22.554581,5.201069 -0.32433,0.13604 -0.166166,0.638931 0.20095,0.638931 0.118426,0 5.286571,-0.721009 11.484766,-1.602242 z M 69.78679,31.651971 c 0.561276,-0.32893 1.013208,-1.082466 1.013208,-1.689388 0,-0.424791 -0.233081,-1.069135 -0.494406,-1.366768 -0.78622,-0.895455 -2.007651,-0.991986 -2.859615,-0.225996 -0.515554,0.463527 -0.732802,0.919029 -0.746724,1.565647 -0.01667,0.774353 0.386035,1.394145 1.180745,1.817249 0.469059,0.249727 1.391963,0.200966 1.906792,-0.100744 z m 1.017471,-6.014174 c 0.566933,-0.293173 0.437296,0.196149 3.151077,-11.893871 1.389563,-6.190567 2.543691,-11.3024548 2.564729,-11.359751 0.06662,-0.1814437 -0.08862,-0.3294577 -0.291482,-0.2779076 -0.173436,0.044073 -0.474551,0.9366764 -3.748171,11.1108276 -2.661829,8.27275 -3.558283,11.155565 -3.554424,11.4303 0.01282,0.912406 1.011136,1.438814 1.878271,0.990402 z M 15.379748,54.859751 10.64,50.119501 v -1.21975 -1.21975 h 7.099752 7.099752 l 4.780247,4.77975 4.780248,4.77975 v 1.180251 1.18025 h -7.140252 -7.140252 z m 22.460251,3.561199 v -1.179052 l -4.48,-4.482605 c -2.464797,-2.46623 -4.48,-4.544834 -4.48,-4.620948 0,-0.07609 0.072,-0.210344 0.16,-0.298344 0.157468,-0.157467 0.266667,-0.16 6.899247,-0.16 h 6.739247 l 4.740753,4.740754 4.740753,4.740753 v 1.219247 1.219247 h -7.16 -7.16 z M 4.1399999,43.620181 0,39.47943 v -1.219715 -1.219714 h 7.100306 7.100306 l 3.899694,3.900303 C 20.871602,43.712034 22,44.891291 22,45.015768 c 0,0.436902 0.209512,0.424233 -7.015662,0.424233 H 8.3242771 l -0.022139,1.160466 -0.022139,1.160466 z m 18.0392541,-2.04018 c -2.125527,-2.123 -3.88566,-3.942451 -3.911406,-4.043224 -0.02983,-0.11676 0.0047,-0.240093 0.09507,-0.34 0.138778,-0.153348 0.289858,-0.156776 6.908558,-0.156776 h 6.766678 l 3.860923,3.860923 c 4.069079,4.069079 4.077123,4.078621 3.714624,4.406678 -0.133686,0.120984 -0.724963,0.132399 -6.858075,0.132399 H 26.043849 Z M 7.5999998,16.667048 C 6.635482,16.572849 5.4302434,16.231968 4.5999999,15.81855 2.8397912,14.942056 1.2473591,13.205528 0.54873838,11.400698 0.11799118,10.287897 -0.02079601,9.4106959 0.02335116,8.0800002 0.07815886,6.4279722 0.42127883,5.2748046 1.2611409,3.9200001 1.7324674,3.1596905 2.982759,1.8924274 3.7458989,1.4015139 7.5056821,-1.0170837 12.488822,-0.07538667 15.069748,3.5414567 16.214477,5.1456514 16.793761,7.3356 16.567404,9.2032582 16.208289,12.166301 14.558032,14.530201 11.96,15.803103 10.51293,16.512093 9.0274008,16.806455 7.5999998,16.667048 Z M 7.0108787,12.217165 C 7.1048621,12.163725 8.5908931,10.789834 10.31317,9.1640748 L 13.444582,6.2081493 12.824115,5.5840213 12.203647,4.9598932 11.601823,5.5461581 C 11.27082,5.8686038 10.024757,7.0539906 8.8327929,8.1803509 L 6.665586,10.228279 5.7941573,9.3541395 C 5.3148715,8.8733629 4.8852136,8.4800002 4.839362,8.4800002 c -0.045852,0 -0.3432474,0.261627 -0.6608796,0.5813934 L 3.6009693,9.6427869 4.9004846,10.932511 c 0.7147334,0.709349 1.3535153,1.308879 1.4195153,1.332291 0.2086641,0.07402 0.5139513,0.05297 0.6908788,-0.04764 z"
         id="path8" />
      <path
         style="fill:#989fc9"
         d="m 18.408805,69.888361 c -0.105157,-0.05828 -0.238881,-0.192008 -0.297165,-0.297165 -0.145994,-0.263405 -0.138579,-0.877133 0.01322,-1.093851 0.297051,-0.424099 0.20913,-0.417343 5.431171,-0.417343 h 4.843972 v -2.997186 c 0,-2.881352 0.006,-3.000386 0.154741,-3.08 0.09945,-0.05322 1.3266,-0.08281 3.434286,-0.08281 2.874738,0 3.295062,0.01552 3.405259,0.125714 0.109747,0.109747 0.125714,0.500952 0.125714,3.08 v 2.954286 h 14.88 c 10.161531,0 14.88,-0.02614 14.88,-0.08245 0,-0.198017 0.63571,-32.236245 0.660811,-33.303284 l 0.02789,-1.185734 -0.392565,0.44754 c -0.442323,0.504269 -0.947073,0.878431 -1.401124,1.03863 -0.168707,0.05952 -5.578102,0.855311 -12.020878,1.768417 -10.803558,1.531141 -11.747888,1.653166 -12.148312,1.569788 -0.238796,-0.04972 -0.572073,-0.181663 -0.740616,-0.293199 -0.897885,-0.594192 -1.274927,-1.959784 -0.798787,-2.893096 0.188117,-0.368739 0.752455,-0.910314 1.093577,-1.049467 0.132,-0.05385 5.360101,-1.339733 11.618003,-2.857524 12.541349,-3.041779 12.020997,-2.939294 13.018137,-2.563971 0.285887,0.107607 0.533915,0.170607 0.551175,0.14 0.01726,-0.03061 0.09322,-0.245108 0.1688,-0.476669 0.2872,-0.879907 1.069903,-1.772816 1.974156,-2.252118 l 0.364373,-0.193138 -0.162358,-0.406862 c -0.120835,-0.30281 -0.162448,-0.591 -0.16271,-1.126863 l -3.53e-4,-0.72 L 70.513748,12.52 c 1.971489,-6.1159998 3.635043,-11.2184294 3.696787,-11.338732 0.163807,-0.31916657 0.599079,-0.72929567 0.957191,-0.90190237 0.391456,-0.18867764 1.210395,-0.24868321 1.663311,-0.12187459 0.86922,0.24336667 1.568961,1.12916706 1.568961,1.98614466 0,0.2905736 -0.721758,3.6726387 -2.076641,9.7308653 -1.142152,5.107025 -2.313679,10.346727 -2.603392,11.643783 -0.579251,2.593324 -0.668476,2.816329 -1.375998,3.439115 l -0.357753,0.314907 0.321877,0.643091 c 0.177032,0.3537 0.345199,0.798612 0.373703,0.988695 l 0.05183,0.345604 0.773189,0.0018 c 0.882396,0.002 1.456136,0.176939 2.038516,0.62148 0.186904,0.142667 4.357278,3.629274 9.267498,7.748015 8.192271,6.871759 8.94495,7.523292 9.137423,7.909536 0.42317,0.849191 0.218336,2.014183 -0.458652,2.608587 -0.475142,0.417179 -0.757287,0.526303 -1.451597,0.561425 -0.553448,0.028 -0.688685,0.0071 -1,-0.15479 C 90.395753,48.21078 71.652353,35.170311 71.301113,34.812659 l -0.341115,-0.347342 6.77e-4,0.267342 c 3.72e-4,0.147038 0.126159,7.341342 0.279527,15.987342 0.153367,8.646001 0.279063,16.089001 0.279323,16.540001 l 4.73e-4,0.82 h 1.56257 c 1.761274,0 2.018067,0.0558 2.241027,0.486955 0.205086,0.396592 0.118514,0.928544 -0.196994,1.21045 l -0.249127,0.222595 -28.138737,-0.0028 c -23.202983,-0.0023 -28.172274,-0.02142 -28.329932,-0.108806 z m 51.08264,-3.348359 c -0.02741,-0.803 -0.160747,-8.246 -0.296309,-16.540001 -0.135562,-8.294 -0.263557,-15.197 -0.284432,-15.34 l -0.03796,-0.26 h -0.508483 -0.508483 l -0.04617,0.9 c -0.02539,0.495 -0.154197,7.488 -0.286228,15.54 -0.132032,8.052001 -0.260804,15.207001 -0.286162,15.900001 l -0.04611,1.26 h 1.175081 1.17508 z M 92.114284,46.594287 c 0.15185,-0.15185 0.155639,-0.206215 0.02571,-0.368987 -0.055,-0.0689 -4.104009,-3.458851 -8.997798,-7.533213 -5.374392,-4.474493 -8.985787,-7.42724 -9.12,-7.456691 -0.122211,-0.02682 -0.262693,-0.06089 -0.312183,-0.07572 -0.21537,-0.06453 -0.904822,0.355905 -1.122148,0.684307 -0.278984,0.421573 -0.3032,1.081844 -0.05216,1.422242 0.17491,0.237172 19.182238,13.453778 19.348414,13.453778 0.05745,0 0.16102,-0.05657 0.230163,-0.125714 z M 52.216081,34.880752 c 7.050584,-1.001124 11.304046,-1.638078 11.452936,-1.715072 0.543329,-0.280967 0.818317,-0.928015 0.649955,-1.529346 -0.144353,-0.51558 -0.502694,-0.869787 -0.998973,-0.987452 -0.390264,-0.09253 -0.672612,-0.03145 -11.6,2.509413 -6.16,1.432338 -11.254,2.634355 -11.32,2.671149 -0.176215,0.09824 -0.193502,0.400939 -0.03303,0.578265 0.102891,0.113692 0.204981,0.142772 0.386429,0.110073 0.135628,-0.02444 5.293833,-0.761106 11.462678,-1.63703 z m 17.4045,-3.13805 c 0.74932,-0.320741 1.225839,-1.117279 1.159892,-1.938849 -0.04905,-0.611058 -0.271339,-1.054189 -0.732396,-1.460028 -0.976768,-0.859785 -2.425613,-0.597867 -3.08565,0.557815 -0.476454,0.834239 -0.398403,1.652939 0.220679,2.314788 0.73447,0.785208 1.464377,0.942802 2.437475,0.526274 z m 0.951541,-5.984733 c 0.319333,-0.0887 0.8364,-0.599275 0.907337,-0.895951 0.605989,-2.534366 5.069219,-22.6556137 5.03697,-22.7077938 -0.05777,-0.093467 -0.41258,-0.097538 -0.469532,-0.00539 -0.120752,0.1953798 -7.166741,22.2432588 -7.166813,22.4259548 -1.89e-4,0.474958 0.316536,0.955215 0.759914,1.152276 0.291651,0.129625 0.546295,0.138067 0.932124,0.0309 z M 15.379748,54.859751 10.64,50.119501 v -1.21975 -1.21975 h 7.099253 7.099253 l 4.780746,4.780747 4.780747,4.780747 v 1.179253 1.179254 h -7.140252 -7.140252 z m 22.540251,3.559983 v -1.180268 l -4.48,-4.479465 c -2.961926,-2.961572 -4.479585,-4.533772 -4.478775,-4.639732 0.0032,-0.421835 -0.376857,-0.39859 6.893745,-0.421619 l 6.740835,-0.02135 4.782097,4.782097 4.782098,4.782098 v 1.179253 1.179254 h -7.12 -7.12 z M 4.1399999,43.620172 0,39.47943 v -1.219715 -1.219714 h 7.100306 7.100306 l 3.899694,3.900303 C 20.705284,43.545689 22,44.894955 22,45.004304 c 0,0.09003 -0.0432,0.206897 -0.096,0.259697 -0.07315,0.07315 -1.700871,0.096 -6.837917,0.096 H 8.3241672 l -0.022084,1.200457 -0.022084,1.200457 z M 22.138896,41.458096 C 19.994503,39.312047 18.24,37.512047 18.24,37.458095 c 0,-0.05395 0.072,-0.170094 0.16,-0.258094 0.157452,-0.157453 0.266666,-0.16 6.860306,-0.16 h 6.700306 l 3.899693,3.900303 c 2.604978,2.605385 3.899694,3.954651 3.899694,4.064 0,0.09003 -0.0432,0.206897 -0.096,0.259697 -0.07315,0.07315 -1.706023,0.096 -6.861103,0.096 H 26.037793 Z M 6.8267308,16.521543 C 3.6497782,15.945096 1.1059173,13.584691 0.26636222,10.43429 0.07938209,9.7326533 0.05469085,9.4906896 0.05469085,8.3600002 c 0,-1.1306894 0.02469124,-1.3726531 0.21167137,-2.0742895 C 1.2023655,2.7733906 4.2302849,0.30229572 7.8399998,0.10484029 11.124224,-0.07481043 14.175346,1.676724 15.678661,4.6047206 c 1.281205,2.4953956 1.170685,5.5939274 -0.287291,8.0544864 -0.511493,0.863222 -1.834047,2.208886 -2.685497,2.732421 -1.719744,1.057429 -3.9336427,1.482919 -5.8791422,1.129915 z m 0.633964,-4.657955 C 7.7353126,11.612561 9.1938497,10.240638 10.701889,8.8148694 L 13.443777,6.2225634 12.86312,5.6112818 C 12.543758,5.2750769 12.256338,5.0000001 12.224409,5.0000001 c -0.03193,0 -1.198299,1.0800001 -2.5919349,2.4000001 -1.3936356,1.32 -2.6403269,2.4861612 -2.7704249,2.5914694 L 6.6255073,10.182939 5.7311879,9.2911566 4.8368686,8.3993742 4.2177821,9.0221131 3.5986957,9.644852 4.9446756,10.982426 C 6.2562003,12.28576 6.2992406,12.32 6.6260227,12.32 c 0.2962886,0 0.3935485,-0.05318 0.8346721,-0.456412 z"
         id="path7" />
      <path
         style="fill:#df4592"
         d="m 18.272,69.728002 c -0.226125,-0.226125 -0.27195,-0.330693 -0.271701,-0.62 4.14e-4,-0.48177 0.231773,-0.836076 0.615539,-0.942645 0.197654,-0.05489 1.963954,-0.08462 5.044161,-0.08491 l 4.74,-4.46e-4 v -2.954286 c 0,-2.579048 0.01597,-2.970253 0.125715,-3.08 0.110168,-0.110168 0.528425,-0.125714 3.382199,-0.125714 2.817896,0 3.280432,0.01677 3.434286,0.124536 l 0.1778,0.124536 v 2.955464 2.955464 h 14.871804 14.871805 l 0.04754,-1.06 c 0.02615,-0.583 0.173115,-7.702 0.326598,-15.820001 0.153484,-8.118 0.301775,-15.426 0.329538,-16.24 l 0.05048,-1.48 -0.548879,0.569473 c -0.627928,0.651487 -1.142652,0.944252 -1.877787,1.068047 -0.281101,0.04734 -5.587622,0.80443 -11.79227,1.682428 -12.291705,1.739357 -11.730239,1.68298 -12.466115,1.251728 -0.889646,-0.521367 -1.301569,-1.825634 -0.89153,-2.822841 0.152442,-0.370736 0.642214,-0.877225 1.023909,-1.058858 0.184203,-0.08765 5.482914,-1.407669 11.774914,-2.933366 11.065841,-2.683267 11.459943,-2.772672 12.049777,-2.733568 0.366056,0.02427 0.761816,0.10768 0.990169,0.208691 0.486999,0.215423 0.490733,0.214866 0.550115,-0.08204 0.169872,-0.849361 1.144107,-2.050673 2.025087,-2.497099 l 0.413768,-0.209672 -0.167259,-0.461461 c -0.122965,-0.339256 -0.165838,-0.641539 -0.161894,-1.14146 0.0053,-0.671841 0.04811,-0.81265 3.568292,-11.735257 1.959611,-6.0803908 3.622988,-11.1743909 3.696393,-11.3200001 0.339935,-0.67430853 0.98605,-1.10339187 1.753198,-1.1642948 0.604631,-0.04800089 1.040425,0.0677747 1.53536,0.40789263 0.496719,0.34134409 0.906995,1.08258677 0.906989,1.63864807 -3e-6,0.2051557 -1.170877,5.6077446 -2.601943,12.0057532 -2.059008,9.205414 -2.646405,11.714444 -2.815041,12.024285 -0.199975,0.367419 -0.631559,0.82788 -0.935265,0.997843 -0.120071,0.06719 -0.104889,0.123704 0.144498,0.537853 0.153266,0.254523 0.341775,0.707752 0.418908,1.007175 l 0.140242,0.544405 0.724303,-0.0012 c 0.789199,-0.0014 1.392329,0.159954 1.907869,0.510273 0.486942,0.330885 18.002568,15.029083 18.275293,15.33567 0.705613,0.793224 0.650215,2.274494 -0.111533,2.982199 -0.573065,0.532407 -1.62081,0.773969 -2.307327,0.531963 -0.475115,-0.167484 -19.350435,-13.267909 -19.86,-13.783842 l -0.42,-0.42525 6.77e-4,0.852965 c 3.72e-4,0.469131 0.126159,7.926965 0.279527,16.572965 0.153367,8.646001 0.279063,15.837001 0.279323,15.980001 l 4.73e-4,0.26 h 1.47 c 1.695278,0 1.895831,0.02765 2.166921,0.298739 0.379777,0.379777 0.364433,0.992215 -0.03486,1.391512 l -0.229749,0.229749 H 46.718153 18.544 Z m 51.247426,-2.108 c -3.15e-4,-0.209 -0.126126,-7.4 -0.279581,-15.980001 -0.153455,-8.58 -0.279198,-15.969 -0.279428,-16.42 l -4.19e-4,-0.82 h -0.6 -0.6 l -5.36e-4,1.14 c -2.96e-4,0.627 -0.126008,8.142 -0.279361,16.7 -0.153353,8.558001 -0.279111,15.605001 -0.279463,15.660001 -4.82e-4,0.07543 0.284353,0.1 1.15936,0.1 h 1.16 z M 92.176099,46.51661 c 0.07833,-0.171918 0.06878,-0.226062 -0.06171,-0.349895 -0.08491,-0.08058 -4.15335,-3.475912 -9.040972,-7.545189 -7.163902,-5.964434 -8.943502,-7.409363 -9.180188,-7.453766 -0.210387,-0.03947 -0.390663,-0.01215 -0.636057,0.0964 -0.876856,0.387876 -1.203133,1.471164 -0.63288,2.101262 0.334797,0.369932 19.069295,13.343269 19.277426,13.349305 0.120002,0.0035 0.213188,-0.06381 0.274386,-0.198121 z M 51.8171,34.960942 c 6.194594,-0.879482 11.406899,-1.638904 11.582899,-1.687605 0.548759,-0.151846 1,-0.735389 1,-1.293198 0,-0.372869 -0.31037,-0.945875 -0.625862,-1.15547 -0.565109,-0.375426 -0.136392,-0.457839 -11.934138,2.294129 -6.05,1.411236 -11.130873,2.601107 -11.29083,2.644158 -0.315703,0.08497 -0.420715,0.278293 -0.285546,0.525682 0.06962,0.127418 0.209461,0.265552 0.273477,0.270138 0.0094,6.74e-4 5.085405,-0.718351 11.28,-1.597834 z m 17.535976,-3.086297 c 0.828156,-0.245936 1.446922,-1.052321 1.446922,-1.885651 0,-1.211308 -0.863442,-2.142638 -1.990718,-2.147236 -0.670924,-0.0027 -1.040991,0.144829 -1.495178,0.596211 -1.107132,1.100295 -0.804679,2.698781 0.637723,3.37041 0.477976,0.222561 0.820417,0.238755 1.401251,0.06627 z m 1.414837,-6.187079 c 0.446376,-0.20272 0.642898,-0.510939 0.828405,-1.299247 C 72.432497,20.834999 76.554597,2.2613159 76.524451,2.182755 76.466231,2.0310333 76.097039,2.057931 76.013236,2.22 c -0.22133,0.4280361 -7.133238,22.139038 -7.133238,22.406224 0,0.601708 0.623598,1.215276 1.231831,1.21202 0.180493,-9.67e-4 0.475731,-0.06877 0.656084,-0.150678 z M 15.380753,54.859248 10.64,50.118495 v -1.179247 -1.179247 h 7.140254 7.140254 l 4.699746,4.700252 4.699745,4.700253 v 1.219748 1.219748 h -7.099246 -7.099247 z m 22.539246,3.560486 v -1.180268 l -4.48,-4.479465 c -3.011104,-3.010744 -4.48,-4.533324 -4.48,-4.643732 0,-0.09035 0.0432,-0.207468 0.096,-0.260268 0.07315,-0.07315 1.705835,-0.096 6.860254,-0.096 h 6.764255 l 4.699745,4.700252 4.699746,4.700253 v 1.219748 1.219748 h -7.08 -7.08 z M 4.0989491,43.578187 0,39.476372 v -1.219455 -1.219454 l 7.1197061,0.02127 7.1197059,0.02127 3.841022,3.84 c 2.112562,2.112 3.860688,3.90164 3.884726,3.976978 0.02404,0.07534 0.0044,0.210338 -0.04354,0.3 -0.08673,0.162054 -0.127372,0.163022 -6.844432,0.163022 H 8.3199998 v 1.16 c 0,0.638 -0.027473,1.16 -0.061051,1.16 -0.033578,0 -1.9055778,-1.845816 -4.1599999,-4.101814 z M 22.179999,41.500095 C 18.944219,38.263722 18.32,37.603541 18.32,37.417715 c 0,-0.164342 0.05307,-0.241853 0.205208,-0.299694 0.127325,-0.04841 2.715073,-0.07802 6.818304,-0.07802 h 6.613096 l 3.918504,3.916118 c 3.818069,3.815745 3.916486,3.921857 3.839773,4.140001 l -0.07873,0.223881 -6.798078,0.0204 -6.798078,0.0204 z M 6.8267308,16.521543 C 3.6497782,15.945096 1.1059173,13.584691 0.26636222,10.43429 0.07938209,9.7326533 0.05469085,9.4906896 0.05469085,8.3600002 c 0,-1.1306894 0.02469124,-1.3726531 0.21167137,-2.0742895 C 1.2023655,2.7733906 4.2302849,0.30229572 7.8399998,0.10484029 11.124224,-0.07481043 14.175346,1.676724 15.678661,4.6047206 c 1.281205,2.4953956 1.170685,5.5939274 -0.287291,8.0544864 -0.511493,0.863222 -1.834047,2.208886 -2.685497,2.732421 -1.719744,1.057429 -3.9336427,1.482919 -5.8791422,1.129915 z m 0.633964,-4.657955 C 7.7353126,11.612561 9.1938497,10.240638 10.701889,8.8148694 L 13.443777,6.2225634 12.86312,5.6112818 C 12.543758,5.2750769 12.256338,5.0000001 12.224409,5.0000001 c -0.03193,0 -1.198299,1.0800001 -2.5919349,2.4000001 -1.3936356,1.32 -2.6403269,2.4861612 -2.7704249,2.5914694 L 6.6255073,10.182939 5.7311879,9.2911566 4.8368686,8.3993742 4.2177821,9.0221131 3.5986957,9.644852 4.9446756,10.982426 C 6.2562003,12.28576 6.2992406,12.32 6.6260227,12.32 c 0.2962886,0 0.3935485,-0.05318 0.8346721,-0.456412 z"
         id="path6" />
      <path
         style="fill:#7982ba"
         d="m 18.272,69.728002 c -0.226125,-0.226125 -0.27195,-0.330693 -0.271701,-0.62 4.14e-4,-0.48177 0.231773,-0.836076 0.615539,-0.942645 0.197654,-0.05489 1.963954,-0.08462 5.044161,-0.08491 l 4.74,-4.46e-4 v -2.954286 c 0,-2.579048 0.01597,-2.970253 0.125715,-3.08 0.110168,-0.110168 0.528425,-0.125714 3.382199,-0.125714 2.817896,0 3.280432,0.01677 3.434286,0.124536 l 0.1778,0.124536 v 2.955464 2.955464 h 14.871804 14.871805 l 0.04754,-1.06 c 0.02615,-0.583 0.173115,-7.702 0.326598,-15.820001 0.153484,-8.118 0.301775,-15.426 0.329538,-16.24 l 0.05048,-1.48 -0.548879,0.569473 c -0.627928,0.651487 -1.142652,0.944252 -1.877787,1.068047 -0.281101,0.04734 -5.587622,0.80443 -11.79227,1.682428 -12.291705,1.739357 -11.730239,1.68298 -12.466115,1.251728 -0.889646,-0.521367 -1.301569,-1.825634 -0.89153,-2.822841 0.152442,-0.370736 0.642214,-0.877225 1.023909,-1.058858 0.184203,-0.08765 5.482914,-1.407669 11.774914,-2.933366 11.065841,-2.683267 11.459943,-2.772672 12.049777,-2.733568 0.366056,0.02427 0.761816,0.10768 0.990169,0.208691 0.486999,0.215423 0.490733,0.214866 0.550115,-0.08204 0.169872,-0.849361 1.144107,-2.050673 2.025087,-2.497099 l 0.413768,-0.209672 -0.167259,-0.461461 c -0.122965,-0.339256 -0.165838,-0.641539 -0.161894,-1.14146 0.0053,-0.671841 0.04811,-0.81265 3.568292,-11.735257 1.959611,-6.0803908 3.622988,-11.1743909 3.696393,-11.3200001 0.339935,-0.67430853 0.98605,-1.10339187 1.753198,-1.1642948 0.604631,-0.04800089 1.040425,0.0677747 1.53536,0.40789263 0.496719,0.34134409 0.906995,1.08258677 0.906989,1.63864807 -3e-6,0.2051557 -1.170877,5.6077446 -2.601943,12.0057532 -2.059008,9.205414 -2.646405,11.714444 -2.815041,12.024285 -0.199975,0.367419 -0.631559,0.82788 -0.935265,0.997843 -0.120071,0.06719 -0.104889,0.123704 0.144498,0.537853 0.153266,0.254523 0.341775,0.707752 0.418908,1.007175 l 0.140242,0.544405 0.724303,-0.0012 c 0.789199,-0.0014 1.392329,0.159954 1.907869,0.510273 0.486942,0.330885 18.002568,15.029083 18.275293,15.33567 0.705613,0.793224 0.650215,2.274494 -0.111533,2.982199 -0.573065,0.532407 -1.62081,0.773969 -2.307327,0.531963 -0.475115,-0.167484 -19.350435,-13.267909 -19.86,-13.783842 l -0.42,-0.42525 6.77e-4,0.852965 c 3.72e-4,0.469131 0.126159,7.926965 0.279527,16.572965 0.153367,8.646001 0.279063,15.837001 0.279323,15.980001 l 4.73e-4,0.26 h 1.47 c 1.695278,0 1.895831,0.02765 2.166921,0.298739 0.379777,0.379777 0.364433,0.992215 -0.03486,1.391512 l -0.229749,0.229749 H 46.718153 18.544 Z m 51.247426,-2.108 c -3.15e-4,-0.209 -0.126126,-7.4 -0.279581,-15.980001 -0.153455,-8.58 -0.279198,-15.969 -0.279428,-16.42 l -4.19e-4,-0.82 h -0.6 -0.6 l -5.36e-4,1.14 c -2.96e-4,0.627 -0.126008,8.142 -0.279361,16.7 -0.153353,8.558001 -0.279111,15.605001 -0.279463,15.660001 -4.82e-4,0.07543 0.284353,0.1 1.15936,0.1 h 1.16 z M 92.176099,46.51661 c 0.07833,-0.171918 0.06878,-0.226062 -0.06171,-0.349895 -0.08491,-0.08058 -4.15335,-3.475912 -9.040972,-7.545189 -7.163902,-5.964434 -8.943502,-7.409363 -9.180188,-7.453766 -0.210387,-0.03947 -0.390663,-0.01215 -0.636057,0.0964 -0.876856,0.387876 -1.203133,1.471164 -0.63288,2.101262 0.334797,0.369932 19.069295,13.343269 19.277426,13.349305 0.120002,0.0035 0.213188,-0.06381 0.274386,-0.198121 z M 51.8171,34.960942 c 6.194594,-0.879482 11.406899,-1.638904 11.582899,-1.687605 0.548759,-0.151846 1,-0.735389 1,-1.293198 0,-0.372869 -0.31037,-0.945875 -0.625862,-1.15547 -0.565109,-0.375426 -0.136392,-0.457839 -11.934138,2.294129 -6.05,1.411236 -11.130873,2.601107 -11.29083,2.644158 -0.315703,0.08497 -0.420715,0.278293 -0.285546,0.525682 0.06962,0.127418 0.209461,0.265552 0.273477,0.270138 0.0094,6.74e-4 5.085405,-0.718351 11.28,-1.597834 z m 17.535976,-3.086297 c 0.828156,-0.245936 1.446922,-1.052321 1.446922,-1.885651 0,-1.211308 -0.863442,-2.142638 -1.990718,-2.147236 -0.670924,-0.0027 -1.040991,0.144829 -1.495178,0.596211 -1.107132,1.100295 -0.804679,2.698781 0.637723,3.37041 0.477976,0.222561 0.820417,0.238755 1.401251,0.06627 z m 1.414837,-6.187079 c 0.446376,-0.20272 0.642898,-0.510939 0.828405,-1.299247 C 72.432497,20.834999 76.554597,2.2613159 76.524451,2.182755 76.466231,2.0310333 76.097039,2.057931 76.013236,2.22 c -0.22133,0.4280361 -7.133238,22.139038 -7.133238,22.406224 0,0.601708 0.623598,1.215276 1.231831,1.21202 0.180493,-9.67e-4 0.475731,-0.06877 0.656084,-0.150678 z M 15.380753,54.859248 10.64,50.118495 v -1.179247 -1.179247 h 7.140254 7.140254 l 4.699746,4.700252 4.699745,4.700253 v 1.219748 1.219748 h -7.099246 -7.099247 z m 22.539246,3.560486 v -1.180268 l -4.48,-4.479465 c -3.011104,-3.010744 -4.48,-4.533324 -4.48,-4.643732 0,-0.09035 0.0432,-0.207468 0.096,-0.260268 0.07315,-0.07315 1.705835,-0.096 6.860254,-0.096 h 6.764255 l 4.699745,4.700252 4.699746,4.700253 v 1.219748 1.219748 h -7.08 -7.08 z M 4.0989491,43.578187 0,39.476372 v -1.219455 -1.219454 l 7.1197061,0.02127 7.1197059,0.02127 3.841022,3.84 c 2.112562,2.112 3.860688,3.90164 3.884726,3.976978 0.02404,0.07534 0.0044,0.210338 -0.04354,0.3 -0.08673,0.162054 -0.127372,0.163022 -6.844432,0.163022 H 8.3199998 v 1.16 c 0,0.638 -0.027473,1.16 -0.061051,1.16 -0.033578,0 -1.9055778,-1.845816 -4.1599999,-4.101814 z M 22.179999,41.500095 C 18.944219,38.263722 18.32,37.603541 18.32,37.417715 c 0,-0.164342 0.05307,-0.241853 0.205208,-0.299694 0.127325,-0.04841 2.715073,-0.07802 6.818304,-0.07802 h 6.613096 l 3.918504,3.916118 c 3.818069,3.815745 3.916486,3.921857 3.839773,4.140001 l -0.07873,0.223881 -6.798078,0.0204 -6.798078,0.0204 z"
         id="path5" />
      <path
         style="fill:#5a65a9"
         d="m 18.56,69.943504 c -0.439579,-0.160691 -0.648372,-0.693075 -0.485289,-1.237397 0.07747,-0.25858 0.158392,-0.347054 0.430351,-0.470526 0.316995,-0.143919 0.590996,-0.152159 5.114937,-0.153822 l 4.78,-0.0018 V 65.124538 62.169074 L 28.5778,62.044538 c 0.153779,-0.107711 0.613135,-0.124536 3.4,-0.124536 3.115533,0 3.227496,0.0053 3.382199,0.16 0.154155,0.154155 0.16,0.266666 0.16,3.08 v 2.92 h 14.88 c 8.184,0 14.88227,-0.009 14.885046,-0.02 0.01551,-0.06149 0.704197,-34.577424 0.690189,-34.591432 -0.0093,-0.0093 -0.173769,0.169502 -0.365543,0.397283 -0.473775,0.562732 -1.06298,0.990767 -1.557943,1.131787 -0.226462,0.06452 -5.631749,0.854647 -12.011749,1.755835 -12.318416,1.740002 -11.954446,1.700355 -12.590415,1.371483 -0.369051,-0.190844 -0.740068,-0.60852 -0.952268,-1.072026 -0.506927,-1.107275 -0.05605,-2.396861 1.00715,-2.880641 0.564928,-0.257055 23.08685,-5.69229 23.587076,-5.69229 0.427091,0 1.42563,0.265984 1.509798,0.40217 0.09281,0.150172 0.18133,0.07528 0.232329,-0.196566 0.02831,-0.150918 0.177118,-0.525538 0.33068,-0.83249 0.322259,-0.644159 1.084205,-1.413137 1.718892,-1.734758 0.218217,-0.110578 0.396739,-0.209445 0.396717,-0.219704 -2.2e-5,-0.01026 -0.07739,-0.216652 -0.171935,-0.458652 -0.126561,-0.323957 -0.170992,-0.608791 -0.16847,-1.08 0.0033,-0.620713 0.109739,-0.97029 3.531255,-11.600001 1.940307,-6.0279998 3.587149,-11.122 3.659649,-11.32 0.27669,-0.75565087 1.178566,-1.36 2.029541,-1.36 0.77912,0 1.660776,0.53506607 2.010179,1.2199513 0.354843,0.6955514 0.413181,0.3709178 -2.009081,11.1800487 -1.237448,5.522 -2.4123,10.778001 -2.610783,11.680001 -0.424299,1.928212 -0.611655,2.319175 -1.403167,2.928046 l -0.212852,0.163736 0.305898,0.60867 c 0.168243,0.334769 0.350883,0.809685 0.405864,1.05537 0.08715,0.389437 0.120236,0.440267 0.258078,0.396517 0.255168,-0.08099 1.124916,-0.05222 1.503511,0.04972 0.192321,0.05179 0.512277,0.177041 0.711014,0.278343 0.32155,0.163905 17.446022,14.445514 18.307941,15.268609 0.666435,0.636417 0.878355,1.431407 0.619203,2.322859 -0.355253,1.222027 -1.973058,1.865896 -3.100848,1.234104 C 90.110344,47.998423 71.687719,35.158035 71.339998,34.801513 l -0.38,-0.389617 7.16e-4,0.894053 c 3.93e-4,0.491728 0.126071,7.932052 0.279284,16.534052 0.153214,8.602001 0.278892,15.775001 0.279285,15.940001 l 7.15e-4,0.3 h 1.460528 c 1.545893,0 1.89427,0.05207 2.186725,0.326813 0.399832,0.375623 0.286834,1.217684 -0.196978,1.467873 -0.218686,0.113088 -2.976513,0.124698 -28.266301,0.118998 C 31.290787,69.990212 18.626,69.96763 18.56,69.943504 Z m 50.959365,-2.363502 c -3.48e-4,-0.231 -0.126063,-7.422 -0.279367,-15.980001 -0.153303,-8.558 -0.279018,-15.929 -0.279367,-16.38 l -6.33e-4,-0.82 h -0.6 -0.6 l -7.52e-4,1.14 c -4.14e-4,0.627 -0.126098,8.124 -0.279299,16.66 -0.153201,8.536001 -0.278862,15.583001 -0.279248,15.660001 -6.35e-4,0.126929 0.107604,0.14 1.159299,0.14 h 1.16 z M 92.224244,46.420894 c 0.01912,-0.126772 -1.871015,-1.740549 -8.937594,-7.630833 -4.929012,-4.108533 -9.090118,-7.5204 -9.246903,-7.581927 -0.72116,-0.283005 -1.719749,0.527939 -1.719749,1.396589 0,0.665518 -0.148144,0.547327 6.226936,4.967922 14.628476,10.143648 13.297821,9.24365 13.484503,9.120351 0.09271,-0.06123 0.179471,-0.183678 0.192807,-0.272102 z M 52.04731,34.931818 c 8.495576,-1.208051 11.508254,-1.66378 11.683657,-1.767393 0.760753,-0.449388 0.874315,-1.624803 0.214616,-2.221373 -0.208058,-0.188149 -0.695472,-0.383051 -0.957939,-0.383051 -0.119622,0 -5.273276,1.178178 -11.452565,2.618173 -10.263678,2.391804 -11.242104,2.633611 -11.316423,2.796723 -0.0618,0.135641 -0.04934,0.227401 0.05184,0.381827 0.07326,0.111802 0.177363,0.203187 0.231348,0.203076 0.05399,-1.11e-4 5.249446,-0.732702 11.545466,-1.627982 z m 17.595041,-3.15441 c 0.370169,-0.190941 0.844838,-0.667734 1.028833,-1.033434 0.165842,-0.329623 0.169334,-1.212135 0.0063,-1.602237 -0.195106,-0.466955 -0.496133,-0.806207 -0.942551,-1.062238 -0.347767,-0.199452 -0.502845,-0.238118 -0.957543,-0.238748 -0.298413,-4.12e-4 -0.661031,0.04875 -0.805818,0.109242 -0.376753,0.157417 -0.823243,0.573292 -1.07467,1.00098 -0.187586,0.319091 -0.216943,0.456517 -0.216943,1.01556 0,0.584189 0.02254,0.679092 0.233791,0.9842 0.282406,0.407884 0.753531,0.793113 1.152244,0.942166 0.396173,0.148103 1.176079,0.09096 1.576318,-0.115491 z m 1.160745,-6.098988 c 0.174198,-0.08887 0.403067,-0.295869 0.508597,-0.46 0.152049,-0.236481 0.717887,-2.645092 2.72622,-11.604747 1.393891,-6.2184801 2.513793,-11.3598911 2.488671,-11.4253579 -0.05789,-0.1508544 -0.443971,-0.1139104 -0.540132,0.051685 -0.03833,0.066 -1.652957,5.0471144 -3.588068,11.0691429 -2.502897,7.788964 -3.518386,11.053456 -3.518386,11.310558 0,0.962149 1.016001,1.521486 1.923098,1.058719 z M 15.401413,54.880802 10.68,50.161603 10.65424,48.960802 10.62848,47.760001 h 7.146017 7.146018 l 4.699746,4.700252 4.699745,4.700253 v 1.219748 1.219748 H 27.22142 20.122834 Z m 22.518586,3.538932 v -1.180268 l -4.48,-4.479465 c -3.011104,-3.010744 -4.48,-4.533324 -4.48,-4.643732 0,-0.09035 0.0432,-0.207468 0.096,-0.260268 0.07315,-0.07315 1.705835,-0.096 6.860254,-0.096 h 6.764255 l 4.699745,4.700252 4.699746,4.700253 v 1.219748 1.219748 h -7.08 -7.08 z M 4.0989491,43.578187 0,39.476372 v -1.219455 -1.219454 l 7.1207176,0.02127 7.1207174,0.02127 3.879282,3.881713 C 20.254323,43.096656 22,44.903085 22,44.976 c 0,0.07292 -0.05657,0.189144 -0.125715,0.258287 -0.112288,0.112288 -0.84277,0.125714 -6.84,0.125714 H 8.3199998 v 1.16 c 0,0.638 -0.027473,1.16 -0.061051,1.16 -0.033578,0 -1.9055778,-1.845816 -4.1599997,-4.101814 z M 22.17969,41.499695 c -2.535098,-2.535502 -3.85927,-3.915111 -3.858465,-4.02 0.0032,-0.421992 -0.382567,-0.399694 6.915544,-0.399694 h 6.762605 l 3.841041,3.84 c 2.112572,2.112 3.860707,3.90164 3.884744,3.976978 0.02404,0.07534 0.0044,0.210338 -0.04354,0.3 -0.08673,0.16206 -0.127246,0.163022 -6.864741,0.163022 h -6.777494 z"
         id="path4" />
      <path
         style="fill:#374497"
         d="m 18.500505,69.917696 c -0.539251,-0.216801 -0.64957,-1.12189 -0.187109,-1.535099 l 0.249128,-0.222595 h 4.918738 4.918737 v -2.990205 c 0,-2.429639 0.02048,-3.007202 0.109254,-3.080876 0.07851,-0.06516 1.063292,-0.0848 3.5,-0.0698 l 3.390746,0.02088 0.04,3.04 0.04,3.04 h 14.92 14.92 L 65.654636,51.56 c 0.184051,-9.108 0.337051,-16.909847 0.34,-17.337438 l 0.0054,-0.777437 -0.62,0.622984 c -0.367567,0.369335 -0.776831,0.695173 -1.005191,0.800287 -0.314273,0.14466 -2.51153,0.478719 -11.934472,1.814454 C 46.088268,37.583282 40.703781,38.32 40.474845,38.32 c -0.228935,0 -0.557553,-0.04234 -0.730261,-0.09408 -0.401913,-0.120416 -0.983066,-0.631437 -1.200539,-1.055662 -0.20574,-0.401335 -0.285924,-1.34025 -0.149707,-1.752991 0.144103,-0.436637 0.521179,-0.904431 0.915138,-1.135307 0.27357,-0.160323 2.997417,-0.851907 11.743373,-2.981641 10.433902,-2.540767 11.444113,-2.772813 12.067187,-2.771841 0.56703,8.85e-4 0.758026,0.03682 1.149667,0.216292 0.258317,0.118377 0.479311,0.215231 0.491097,0.215231 0.01179,0 0.04343,-0.117 0.07033,-0.26 0.163804,-0.870965 1.057677,-2.010112 1.990334,-2.536471 0.252215,-0.142341 0.458573,-0.265614 0.458573,-0.273939 0,-0.0083 -0.0757,-0.229888 -0.168226,-0.492363 -0.138813,-0.393788 -0.161565,-0.603114 -0.130125,-1.197227 0.03624,-0.684761 0.212939,-1.262254 3.610349,-11.799271 2.214962,-6.8696739 3.648016,-11.1937682 3.771667,-11.3806163 0.762008,-1.15147188 2.53339,-1.23236942 3.478337,-0.15885272 0.309663,0.35179632 0.557998,0.95558132 0.557998,1.35667982 0,0.3705267 -5.2121,23.5084682 -5.369891,23.8384172 -0.08847,0.184997 -0.372885,0.53266 -0.632033,0.772585 l -0.471178,0.436228 0.30814,0.595465 c 0.169476,0.327505 0.351639,0.789842 0.404805,1.027415 l 0.09667,0.43195 h 0.851745 c 0.782265,0 0.892413,0.01958 1.35028,0.24 0.378394,0.182163 2.672577,2.064601 9.519999,7.811413 4.961806,4.164277 9.098255,7.656277 9.192108,7.76 0.357905,0.395543 0.467072,0.719282 0.46824,1.388587 9.78e-4,0.55961 -0.02839,0.693265 -0.233801,1.064051 -0.565385,1.020572 -1.970825,1.431654 -2.96216,0.866414 -0.177607,-0.101268 -4.534921,-3.10247 -9.682921,-6.669338 -5.878101,-4.072729 -9.540664,-6.660885 -9.845659,-6.957453 l -0.485659,-0.47224 0.0275,1.044283 c 0.01512,0.574356 0.134316,7.488283 0.264869,15.364283 0.130554,7.876001 0.259659,15.013001 0.286901,15.860001 l 0.04953,1.54 h 1.660471 c 1.553786,0 1.67389,0.01055 1.869331,0.164289 0.460428,0.362173 0.43079,1.225079 -0.05219,1.519573 -0.251411,0.153296 -0.659573,0.155471 -28.29509,0.150768 -16.465162,-0.0028 -28.114094,-0.03456 -28.219494,-0.07694 z m 51.019493,-2.809972 c 0,-1.827235 -0.563146,-32.591593 -0.598353,-32.687723 -0.05059,-0.138142 -1.073751,-0.138142 -1.120535,0 -0.02876,0.08492 -0.605427,31.799206 -0.602226,33.120001 l 0.0011,0.46 h 1.16 1.16 z M 92.066749,46.672277 c 0.114273,-0.08004 0.173186,-0.192042 0.157801,-0.3 -0.01671,-0.117272 -2.846958,-2.528802 -8.864552,-7.553105 -4.862,-4.059455 -8.973566,-7.452455 -9.136813,-7.54 -0.39709,-0.212947 -0.665881,-0.198139 -1.138051,0.0627 -0.708892,0.391606 -0.997687,1.34421 -0.585136,1.930097 0.112312,0.1595 3.774984,2.749436 9.74,6.887316 5.258,3.647429 9.57899,6.63372 9.602199,6.636203 0.02321,0.0025 0.124258,-0.05296 0.224552,-0.123209 z M 51.9771,34.959183 c 6.194594,-0.88045 11.419437,-1.658779 11.610761,-1.729619 1.027896,-0.380594 1.084291,-1.973541 0.08791,-2.483108 -0.195674,-0.100072 -0.489825,-0.182962 -0.653669,-0.184202 -0.510012,-0.0039 -22.647394,5.186919 -22.762102,5.337262 -0.055,0.07209 -0.1,0.170175 -0.1,0.217975 0,0.166788 0.250255,0.44251 0.401637,0.44251 0.08391,0 5.220869,-0.720368 11.415464,-1.600818 z m 17.79477,-3.256431 c 0.717857,-0.405563 1.180878,-1.262728 1.0651,-1.971761 -0.232696,-1.425044 -1.505566,-2.253681 -2.790241,-1.816444 -0.768619,0.261598 -1.40454,1.184394 -1.405949,2.040196 -0.0013,0.802557 0.487587,1.511307 1.308258,1.896526 0.491859,0.230877 1.262421,0.168094 1.822832,-0.148517 z m 0.92292,-5.94808 c 0.275057,-0.104217 0.564518,-0.365713 0.706257,-0.638028 0.110416,-0.212134 5.158951,-22.5840846 5.158951,-22.8612429 0,-0.2102547 -0.221481,-0.2861192 -0.431272,-0.1477245 -0.228302,0.1506059 -7.25728,21.9805804 -7.252085,22.5228814 0.004,0.419025 0.242148,0.842236 0.594976,1.057385 0.277979,0.169508 0.867088,0.201646 1.223173,0.06673 z M 15.419745,54.819749 10.72,50.119497 v -1.179748 -1.179748 h 7.060252 7.060252 l 4.739747,4.74025 4.739748,4.740251 v 1.13975 1.13975 h -7.100254 -7.100254 z m 22.500254,3.561201 v -1.139052 l -4.48,-4.482605 c -2.975595,-2.977325 -4.48,-4.53712 -4.48,-4.644948 0,-0.08929 0.0432,-0.205544 0.096,-0.258344 0.07315,-0.07315 1.705609,-0.096 6.859241,-0.096 h 6.76324 l 4.700759,4.70076 4.70076,4.700759 v 1.179241 1.179241 h -7.08 -7.08 z M 4.0999999,43.500191 0,39.399424 v -1.139711 -1.139712 h 7.1011033 7.1011037 l 3.911976,3.914996 c 3.84958,3.85255 3.910018,3.917947 3.789145,4.1 l -0.122833,0.185004 -6.768054,0.02045 -6.7680536,0.02045 -0.022194,1.120027 -0.022194,1.120028 z M 22.181924,41.501116 C 19.579908,38.901147 18.32,37.588363 18.32,37.477116 c 0,-0.09081 0.0432,-0.208315 0.096,-0.261115 0.07315,-0.07315 1.705345,-0.096 6.858055,-0.096 h 6.762055 l 3.822822,3.819751 c 2.102553,2.100863 3.843672,3.885443 3.869155,3.965733 0.02645,0.08334 -0.01357,0.212176 -0.09328,0.300249 -0.135771,0.150026 -0.324526,0.154267 -6.865286,0.154267 h -6.725676 z"
         id="path3" />
      <path
         style="fill:#2a3891"
         d="m 18.497005,69.879655 c -0.536073,-0.233283 -0.631628,-1.037338 -0.177276,-1.49169 l 0.227963,-0.227963 h 4.926154 4.926153 v -2.92526 c 0,-1.863467 0.03006,-2.981426 0.08282,-3.08 0.07985,-0.149195 0.202545,-0.15474 3.424,-0.15474 2.492033,0 3.365583,0.0244 3.437185,0.096 0.07124,0.07124 0.096,0.865824 0.096,3.08021 v 2.98421 l 14.94,-0.02021 14.94,-0.02021 0.334217,-16.520001 c 0.183819,-9.086 0.336819,-16.891233 0.34,-17.344961 l 0.0058,-0.824962 -0.585324,0.602669 c -0.983729,1.012878 0.124608,0.787325 -13.029357,2.651549 -6.347846,0.899638 -11.740388,1.635353 -11.983428,1.634923 -0.876142,-0.0015 -1.713782,-0.628702 -1.963693,-1.470244 -0.152267,-0.512738 -0.150746,-1.151534 0.0036,-1.520986 0.146732,-0.351178 0.598017,-0.865394 0.950874,-1.083471 0.160766,-0.09936 4.530513,-1.199069 11.652269,-2.932463 12.728027,-3.097926 12.17558,-2.990261 13.19116,-2.570801 0.283866,0.117244 0.521718,0.205426 0.52856,0.195959 0.0068,-0.0095 0.08677,-0.240874 0.177629,-0.514239 0.315753,-0.950045 1.106088,-1.85582 1.997689,-2.289484 0.187,-0.09095 0.339982,-0.203198 0.33996,-0.249431 -2.2e-5,-0.04623 -0.07527,-0.281994 -0.167219,-0.523915 -0.135203,-0.355728 -0.161118,-0.569941 -0.135496,-1.12 0.02974,-0.638385 0.249198,-1.355503 3.574482,-11.680144 1.94854,-6.0499998 3.641561,-11.18 3.762268,-11.4 0.423328,-0.7715554 1.404962,-1.20416197 2.285326,-1.00714499 0.8799,0.19691299 1.640174,0.97567189 1.764972,1.80788549 0.04095,0.2730789 -0.447816,2.5762421 -2.523025,11.8889755 -1.415598,6.352657 -2.628814,11.705498 -2.696036,11.895203 -0.155287,0.438231 -0.536649,0.939377 -0.961352,1.263309 l -0.331503,0.252846 0.196585,0.289299 c 0.258153,0.379908 0.500587,0.953019 0.600796,1.42028 l 0.08069,0.37622 0.595722,-0.04505 c 0.71139,-0.0538 1.448485,0.117396 1.970949,0.457773 0.188588,0.122861 4.409336,3.638215 9.379441,7.811897 9.781303,8.213921 9.347693,7.814123 9.454671,8.717389 0.06699,0.56562 -0.139751,1.231549 -0.509346,1.640646 -0.571585,0.632676 -1.520804,0.919714 -2.27165,0.686933 -0.250313,-0.0776 -3.478998,-2.269733 -9.994117,-6.785547 -5.29339,-3.668999 -9.756407,-6.796908 -9.917814,-6.950908 -0.161407,-0.154 -0.332355,-0.3517 -0.379883,-0.439334 -0.04753,-0.08763 -0.100822,-0.141633 -0.11843,-0.12 -0.02296,0.02821 0.538639,32.965262 0.575281,33.739335 0.0036,0.07654 0.384759,0.10007 1.624733,0.100299 1.463399,2.7e-4 1.644659,0.01533 1.875091,0.155838 0.47153,0.287512 0.501677,1.033539 0.05859,1.449803 l -0.206565,0.19406 -28.053556,0.01705 c -24.182106,0.0147 -28.089849,0.0013 -28.31655,-0.0974 z m 51.022421,-2.859653 c -3.15e-4,-0.539 -0.126126,-8 -0.279581,-16.580001 -0.153455,-8.58 -0.279198,-15.717 -0.279428,-15.86 l -4.19e-4,-0.26 h -0.6 -0.6 l -5.36e-4,0.58 c -2.96e-4,0.319 -0.126008,7.582 -0.279361,16.14 -0.153353,8.558001 -0.279111,15.875001 -0.279463,16.260001 l -6.4e-4,0.7 h 1.16 1.16 z M 92.114028,46.646598 c 0.07635,-0.08437 0.126934,-0.224401 0.112399,-0.311177 -0.01599,-0.09546 -3.574721,-3.11425 -9.011018,-7.643833 -7.075647,-5.895508 -9.044744,-7.497344 -9.267717,-7.539174 -0.336063,-0.06305 -0.803237,0.06239 -1.099094,0.295115 -0.520333,0.409294 -0.694877,1.326263 -0.3486,1.831376 0.118772,0.173251 3.431926,2.517307 9.74,6.891046 5.258,3.645665 9.59942,6.628834 9.647601,6.629266 0.04818,4.31e-4 0.150073,-0.06825 0.226429,-0.152619 z M 52.028518,34.96166 c 12.44239,-1.761254 11.831941,-1.646983 12.188881,-2.281659 0.383949,-0.6827 0.129901,-1.605037 -0.534352,-1.94 -0.196323,-0.099 -0.502323,-0.179899 -0.68,-0.179775 -0.394177,2.74e-4 -22.581162,5.16202 -22.734239,5.289063 -0.228636,0.189751 -0.0056,0.710712 0.304246,0.710712 0.09019,0 5.245149,-0.719253 11.455464,-1.598341 z m 17.454415,-3.095035 c 0.247831,-0.08444 0.530149,-0.272089 0.769539,-0.511478 1.0104,-1.010401 0.707093,-2.682784 -0.612474,-3.377071 -0.429713,-0.226093 -1.305781,-0.234303 -1.757347,-0.01647 -0.418005,0.201645 -0.899932,0.691323 -1.087978,1.105476 -0.207505,0.45701 -0.208232,1.315543 -0.0015,1.716105 0.507265,0.98265 1.64294,1.440108 2.689713,1.083437 z m 1.301038,-6.139023 c 0.244167,-0.12704 0.511925,-0.402006 0.64731,-0.664733 0.106898,-0.207447 5.128717,-22.5235273 5.128717,-22.7911178 0,-0.2080908 -0.24611,-0.3210525 -0.450397,-0.2067274 -0.09097,0.050909 -1.266234,3.5952811 -3.681615,11.1030492 -3.821355,11.877979 -3.746358,11.608643 -3.376903,12.127495 0.265001,0.372159 0.609726,0.543793 1.092888,0.544134 0.233185,1.64e-4 0.521185,-0.05028 0.64,-0.1121 z M 15.419745,54.819749 10.72,50.119497 v -1.179748 -1.179748 h 7.060252 7.060252 l 4.739747,4.74025 4.739748,4.740251 v 1.13975 1.13975 h -7.100254 -7.100254 z m 22.500254,3.519985 v -1.180268 l -4.48,-4.479465 c -2.464,-2.463705 -4.48,-4.522013 -4.48,-4.574018 0,-0.052 0.05657,-0.151125 0.125715,-0.220267 0.112282,-0.112283 0.840975,-0.125715 6.820252,-0.125715 h 6.694537 l 4.739748,4.74025 4.739748,4.740251 v 1.13975 1.13975 h -7.08 -7.08 z M 4.0999999,43.499426 0,39.396372 v -1.138185 -1.138186 h 7.1011033 7.1011037 l 3.911976,3.914996 c 3.84958,3.85255 3.910018,3.917947 3.789145,4.1 l -0.122833,0.185004 -6.768054,0.02045 -6.7680536,0.02045 -0.022194,1.120788 -0.022194,1.120787 z M 22.219999,41.4601 C 20.075,39.314712 18.32,37.503731 18.32,37.435698 c 0,-0.317783 -0.0457,-0.315697 6.917103,-0.315697 h 6.725103 l 3.911977,3.914996 c 3.849579,3.85255 3.910018,3.917947 3.789144,4.1 l -0.122832,0.185004 -6.710248,0.0204 -6.710248,0.0204 z"
         id="path2" />
    </g>
  </g>
</svg>
