<?xml version="1.0" encoding="UTF-8" standalone="no"?>
<svg
   role="img"
   viewBox="2.23 2.73 102.42 111.67"
   version="1.1"
   id="svg10316"
   sodipodi:docname="DRIP-SLIP.svg"
   inkscape:version="1.2.2 (b0a84865, 2022-12-01)"
   xmlns:inkscape="http://www.inkscape.org/namespaces/inkscape"
   xmlns:sodipodi="http://sodipodi.sourceforge.net/DTD/sodipodi-0.dtd"
   xmlns="http://www.w3.org/2000/svg"
   xmlns:svg="http://www.w3.org/2000/svg">
  <defs
     id="defs10320" />
  <sodipodi:namedview
     id="namedview10318"
     pagecolor="#ffffff"
     bordercolor="#666666"
     borderopacity="1.0"
     inkscape:showpageshadow="2"
     inkscape:pageopacity="0.0"
     inkscape:pagecheckerboard="0"
     inkscape:deskcolor="#d1d1d1"
     showgrid="false"
     inkscape:zoom="2.1133698"
     inkscape:cx="51.10322"
     inkscape:cy="55.834999"
     inkscape:window-width="724"
     inkscape:window-height="480"
     inkscape:window-x="0"
     inkscape:window-y="25"
     inkscape:window-maximized="0"
     inkscape:current-layer="svg10316" />
  <circle
     cx="50.049"
     cy="45"
     r="40.14"
     fill="#0B3D91"
     id="circle10230" />
  <g
     fill="#FFF"
     id="g10304">
    <circle
       cx="47.679"
       cy="12.57"
       r=".45"
       id="circle10232" />
    <circle
       cx="52.299"
       cy="13.17"
       r=".45"
       id="circle10234" />
    <circle
       cx="58.359"
       cy="21.33"
       r=".45"
       id="circle10236" />
    <circle
       cx="25.119"
       cy="63.33"
       r=".45"
       id="circle10238" />
    <circle
       cx="26.289"
       cy="66.93"
       r=".45"
       id="circle10240" />
    <circle
       cx="20.709"
       cy="63.87"
       r=".337"
       id="circle10242" />
    <circle
       cx="39.009"
       cy="70.942"
       r=".338"
       id="circle10244" />
    <circle
       cx="67.711"
       cy="64.98"
       r=".337"
       id="circle10246" />
    <circle
       cx="76.052"
       cy="55.92"
       r=".338"
       id="circle10248" />
    <circle
       cx="35.169"
       cy="23.962"
       r=".337"
       id="circle10250" />
    <circle
       cx="44.349"
       cy="17.22"
       r=".337"
       id="circle10252" />
    <circle
       cx="43.352"
       cy="16.56"
       r=".337"
       id="circle10254" />
    <circle
       cx="42.452"
       cy="15.9"
       r=".337"
       id="circle10256" />
    <circle
       cx="36.609"
       cy="25.703"
       r=".337"
       id="circle10258" />
    <circle
       cx="50.131"
       cy="8.16"
       r=".337"
       id="circle10260" />
    <circle
       cx="52.352"
       cy="17.88"
       r=".337"
       id="circle10262" />
    <circle
       cx="48.849"
       cy="15.982"
       r=".337"
       id="circle10264" />
    <circle
       cx="42.849"
       cy="18.563"
       r=".337"
       id="circle10266" />
    <circle
       cx="69.309"
       cy="73.883"
       r=".337"
       id="circle10268" />
    <circle
       cx="24.549"
       cy="65.61"
       r=".338"
       id="circle10270" />
    <circle
       cx="48.009"
       cy="69.96"
       r=".338"
       id="circle10272" />
    <circle
       cx="31.531"
       cy="65.34"
       r=".338"
       id="circle10274" />
    <circle
       cx="34.449"
       cy="70.103"
       r=".338"
       id="circle10276" />
    <circle
       cx="55.929"
       cy="67.103"
       r=".337"
       id="circle10278" />
    <circle
       cx="67.771"
       cy="60.42"
       r=".337"
       id="circle10280" />
    <circle
       cx="76.749"
       cy="64.522"
       r=".337"
       id="circle10282" />
    <circle
       cx="79.809"
       cy="66.48"
       r=".337"
       id="circle10284" />
    <circle
       cx="80.312"
       cy="61.14"
       r=".337"
       id="circle10286" />
    <circle
       cx="35.671"
       cy="53.58"
       r=".337"
       id="circle10288" />
    <circle
       cx="35.799"
       cy="61.32"
       r=".45"
       id="circle10290" />
    <circle
       cx="38.499"
       cy="67.02"
       r=".45"
       id="circle10292" />
    <circle
       cx="70.839"
       cy="61.08"
       r=".45"
       id="circle10294" />
    <circle
       cx="82.479"
       cy="60.42"
       r=".45"
       id="circle10296" />
    <circle
       cx="76.719"
       cy="57.96"
       r=".45"
       id="circle10298" />
    <circle
       cx="70.839"
       cy="58.2"
       r=".45"
       id="circle10300" />
    <path
       d="M58.71 12.288l1.119-.107-1.117-.063c-.035-.216-.208-.385-.426-.413l-.107-1.114-.064 1.123c-.202.045-.357.214-.382.424l-1.144.104 1.152.062c.042.193.198.344.394.38l.104 1.148.061-1.146c.207-.035.371-.194.41-.398zM39.824 24.746l1.119-.107-1.117-.063c-.034-.216-.208-.385-.426-.413l-.107-1.114-.063 1.123c-.203.045-.358.214-.383.424l-1.144.104 1.152.062c.042.193.198.344.394.38l.104 1.148.062-1.146c.207-.034.371-.194.409-.398zm41.835 32.938l1.119-.107-1.117-.063c-.034-.216-.208-.385-.426-.413l-.107-1.114-.063 1.123c-.202.045-.357.214-.382.424l-1.144.104 1.152.062c.042.193.198.344.394.38l.104 1.148.062-1.146c.205-.034.369-.193.408-.398zM36.044 74.906l1.119-.107-1.117-.063c-.035-.216-.208-.385-.426-.413l-.107-1.113-.063 1.122c-.203.045-.358.214-.383.424l-1.144.104 1.152.062c.042.193.198.345.394.38l.104 1.148.062-1.146c.206-.034.371-.194.409-.398zm42.06-8.4l1.119-.107-1.117-.063c-.034-.216-.208-.385-.426-.413l-.107-1.114-.063 1.122c-.202.045-.357.214-.382.424l-1.144.104 1.152.062c.042.193.198.344.394.38l.104 1.148.062-1.146c.205-.033.37-.193.408-.397z"
       id="path10302" />
  </g>
  <path
     fill="#FC3D21"
     d="M59.568 35.385c-4.667 1.814-9.219 3.433-13.06 4.635-7.805 2.444-29.16 9.06-42.06 17.4l1.08.42c7.86-4.44 12.969-5.835 17.88-7.38 5.34-1.68 22.603-5.72 30.42-7.92 2.641-.743 5.734-1.716 9.01-2.9-.762-1.063-1.566-2.129-2.412-3.193-.283-.359-.57-.713-.858-1.062zm5.702 7.859c-1.13.763-2.077 1.372-2.74 1.756-3.84 2.22-22.561 15-26.82 17.94s-16.08 14.1-19.56 17.34l-.12 1.319c11.22-10.08 14.74-12.566 19.2-15.959 5.52-4.2 16.939-11.97 20.82-14.46 3.71-2.38 7.056-4.569 10.059-6.572-.049-.082-.098-.164-.147-.247-.226-.371-.457-.743-.692-1.117zM82.809 24.72c-5.466 3.204-14.081 7.071-22.439 10.352.2.245.399.492.597.741.934 1.176 1.815 2.36 2.644 3.545 6.57-2.42 13.779-5.668 19.499-9.599-2.725 2.582-11.734 9.315-17.227 13.068.283.461.557.922.822 1.381 8.322-5.569 13.922-9.668 17.185-12.409 4.5-3.78 14.76-12.24 18.66-23.58-6.841 8.701-14.929 13.68-19.741 16.501z"
     id="path10306" />
  <path
     fill="#FFF"
     d="M44.884 54.939c-.885-1.114-2.109-2.606-3.028-3.763-1.229-1.547-2.366-3.11-3.408-4.671-.34.085-.679.17-1.018.255 1.258 1.963 2.655 3.923 4.177 5.839 1.112 1.4 2.123 2.527 2.641 3.228.105.142.313.456.594.874.324-.22.651-.442.981-.666-.319-.347-.634-.712-.939-1.096zm6.46 5.864c-.727-.688-2.49-1.837-4.325-3.561-.405.278-.814.56-1.224.844 1.185 1.67 2.799 3.721 4.063 4.319 1.904.902 2.417-.72 1.486-1.602zm9.623-24.99c-10.492-13.206-23.309-20.461-28.835-16.07-4.292 3.41-2.53 13.376 3.386 23.845.306-.105.609-.208.909-.31-5.971-10.2-7.605-19.679-3.557-22.896 5.087-4.042 17.37 3.241 27.558 16.064 2.109 2.654 3.963 5.318 5.533 7.915 6.012 9.95 7.857 18.948 3.703 22.621-1.271 1.124-5.155 1.565-10.243-.725-.071.089.043.33.132.389 4.392 1.766 8.599 2.439 10.723.752 5.104-4.056 1.183-18.379-9.309-31.585z"
     id="path10308" />
  <path
     fill="#FFF"
     d="M15.969 37.38h6.72l5.64 9.57v-7.47c0-.84-1.065-1.935-1.44-2.1h4.65c-.285.075-1.2 1.185-1.2 2.1v10.98c0 .675.975 1.605 1.44 1.965h-6.48l-5.73-9.615v7.56c0 .75.735 1.47 1.5 2.085h-4.95c.705-.3 1.38-1.245 1.44-1.995s0-10.425 0-10.845c0-.915-.885-1.665-1.59-2.235zm61.47 15.045h8.94c-.495-.12-1.05-.705-1.35-1.485-.3-.78-5.04-13.56-5.04-13.56H76.59c-.964.694-1.997 1.426-3.1 2.197-.003.028-.006.056-.011.083-.148.9-2.808 10.534-2.97 11.01-.225.66-1.38 1.395-1.845 1.785h4.815c-.48-.54-.87-1.065-.78-1.665.09-.6.36-1.8.36-1.8h4.98c.225.6.393 1.139.48 1.65.105.615-.525 1.305-1.08 1.785zm-3.93-5.355l1.68-5.49 2.22 5.49h-3.9zm-.757-9.142c.247-.182.495-.365.742-.548h-1.305c.13.12.345.309.563.548zM38.559 50.79c.09-.6.36-1.8.36-1.8h4.98c.225.6.393 1.139.48 1.65.105.615-.525 1.305-1.08 1.785h7.871c.164-.11.327-.22.49-.329-.305-.27-.586-.675-.771-1.156-.3-.78-5.04-13.56-5.04-13.56h-7.8c.375.345 1.455 1.275 1.29 2.28-.147.9-2.808 10.534-2.97 11.01-.225.66-1.38 1.395-1.845 1.785h4.815c-.48-.54-.87-1.065-.78-1.665zm2.49-9.21l2.22 5.49h-3.9l1.68-5.49zm24.699 3.268c-1.468.978-3.017 1.999-4.649 3.065.732.355 1.315.801 1.371 1.377.104 1.082-2.07 1.605-4.035 1.38-.393-.045-.779-.148-1.147-.286-.408.263-.82.528-1.238.796-.425.273-.941.609-1.53.997v1.553c.39-.765 1.243-1.45 1.905-1.485.285-.015 1.275.9 5.355.675 1.98-.109 5.805-2.22 5.745-4.65-.036-1.436-.786-2.556-1.777-3.422zM54.519 48.6v1.582c.361-.241.717-.478 1.066-.709-.549-.382-.938-.739-1.066-.873zm9.834-4.745c-.38-.225-.765-.422-1.134-.596-1.92-.9-3.93-1.065-4.35-2.28-.296-.857.54-1.65 2.58-1.62 2.04.03 3.93 1.245 4.44 1.68v-3.87c-.15.15-.808.905-1.41.78-1.155-.24-3.12-.553-5.37-.54-2.58.015-4.8 2.009-4.875 4.53-.105 3.525 2.715 4.485 4.305 5.04.164.057.351.118.554.183 1.525-.992 2.731-1.756 3.437-2.163.474-.273 1.095-.665 1.823-1.144z"
     id="path10310" />
  <path
     d="m 16.2838,98.22377 h 2.28841 c 1.12816,0 1.88256,0.3233 2.2609,0.97223 0.37835,0.64662 0.56867,1.57529 0.56867,2.7837 0,0.87593 -0.12612,1.63262 -0.37835,2.26548 -0.46319,1.15568 -1.2795,1.73351 -2.45122,1.73351 H 16.2838 Z m 4.54473,-1.8046 c -0.48841,-0.1628 -1.10064,-0.24764 -1.8367,-0.2591 h -5.12027 v 11.88232 h 5.12027 c 1.79542,0 3.12307,-0.73834 3.98294,-2.21733 0.63287,-1.09605 0.9493,-2.43287 0.9493,-4.01275 0,-0.6237 -0.07337,-1.2795 -0.2247,-1.9674 -0.15135,-0.6879 -0.43338,-1.32764 -0.84612,-1.91923 -0.51593,-0.73147 -1.19007,-1.23364 -2.02472,-1.5065 z m 7.44995,1.8046 h 2.8846 c 0.53885,0 0.94242,0.0711 1.2107,0.21095 0.47695,0.24535 0.71771,0.72918 0.71771,1.44918 0,0.66726 -0.24764,1.1121 -0.74293,1.33911 -0.27975,0.1284 -0.69707,0.19261 -1.25657,0.19261 h -2.8135 z m 5.32435,-1.75644 C 33.1534,96.2793 32.51365,96.17612 31.679,96.16007 h -5.8265 v 11.88232 h 2.426 v -4.65937 h 2.56357 c 0.73146,0 1.22905,0.12611 1.49503,0.37834 0.266,0.25223 0.40357,0.75898 0.41504,1.51567 l 0.01605,1.10523 c 0.0046,0.34854 0.04127,0.6902 0.10547,1.02268 0.0321,0.1628 0.08485,0.37376 0.16052,0.63745 h 2.73325 v -0.29809 c -0.23618,-0.14446 -0.38752,-0.37146 -0.45172,-0.67643 -0.04357,-0.1949 -0.0642,-0.56179 -0.0642,-1.10523 v -0.79796 c 0,-0.83236 -0.11465,-1.45147 -0.34395,-1.85733 -0.22701,-0.40586 -0.61453,-0.72 -1.16485,-0.94013 0.6558,-0.22472 1.12586,-0.60994 1.41249,-1.15567 0.28433,-0.54574 0.4265,-1.10064 0.4265,-1.66472 0,-0.46777 -0.07567,-0.8851 -0.22472,-1.24969 -0.15133,-0.36688 -0.35541,-0.69936 -0.61452,-0.99975 -0.31185,-0.36688 -0.6902,-0.64204 -1.13962,-0.83006 z m 6.3883,11.57506 V 96.16007 h -2.46727 v 11.88232 z M 38.75749,95.92618 Z m 9.74984,2.69198 c 0.3256,0.2637 0.4884,0.70395 0.4884,1.32306 0,0.61682 -0.1628,1.06854 -0.4884,1.35517 -0.32331,0.28433 -0.77962,0.4265 -1.36663,0.4265 h -2.31364 v -3.49912 h 2.31364 c 0.587,0 1.04332,0.13299 1.36663,0.3944 z m 1.88255,4.28103 c 0.71083,-0.58013 1.06395,-1.5707 1.06395,-2.97402 0,-1.28408 -0.35312,-2.23338 -1.06395,-2.84561 -0.70853,-0.61223 -1.66013,-0.9195 -2.85249,-0.9195 h -5.1753 v 11.88233 h 2.46497 v -4.27186 h 2.5246 c 1.31618,0 2.32968,-0.2912 3.03822,-0.87134 z m 2.04765,-0.54802 v 2.17605 h 4.62727 v -2.17605 z m 8.17455,2.02471 H 58.2411 c 0,1.23593 0.44485,2.20587 1.33224,2.91211 0.8851,0.70854 2.10268,1.06166 3.65045,1.06166 1.51568,0 2.6897,-0.36 3.51976,-1.0777 0.83006,-0.71542 1.2451,-1.61886 1.2451,-2.70345 0,-1.05937 -0.35542,-1.8688 -1.06395,-2.426 -0.45631,-0.36 -1.13504,-0.64892 -2.0316,-0.86217 l -2.04765,-0.49299 c -0.79109,-0.18803 -1.30701,-0.35083 -1.54778,-0.4907 -0.37605,-0.21096 -0.56408,-0.5274 -0.56408,-0.9516 0,-0.46318 0.19032,-0.82318 0.57096,-1.08 0.38293,-0.2591 0.89198,-0.38752 1.53173,-0.38752 0.57554,0 1.05707,0.0986 1.44459,0.2981 0.58012,0.30038 0.89197,0.80942 0.93325,1.52255 h 2.38701 c -0.04357,-1.26116 -0.50675,-2.22422 -1.38956,-2.88919 -0.8851,-0.66267 -1.95363,-0.99516 -3.20561,-0.99516 -1.49962,0 -2.63466,0.35083 -3.4097,1.05478 -0.77273,0.70625 -1.16025,1.58905 -1.16025,2.653 0,1.16714 0.39898,2.02472 1.20153,2.57275 0.47236,0.3279 1.32765,0.63057 2.56358,0.91032 l 1.25656,0.28204 c 0.73605,0.16051 1.2772,0.34624 1.62115,0.5572 0.34395,0.21325 0.51593,0.51822 0.51593,0.91032 0,0.67185 -0.34625,1.13045 -1.04103,1.3781 -0.36458,0.1284 -0.84153,0.1926 -1.42624,0.1926 -0.97911,0 -1.6693,-0.24305 -2.07287,-0.73376 -0.22013,-0.26828 -0.36688,-0.67414 -0.44255,-1.21529 z m 2.40994,-8.5781 z m 6.80333,0.36229 v 11.88232 h 8.36945 v -2.13478 h -5.88613 v -9.74754 z m 12.35927,11.88232 V 96.16007 h -2.46727 v 11.88232 z M 80.95099,95.92618 Z m 9.74983,2.69198 c 0.3256,0.2637 0.48841,0.70395 0.48841,1.32306 0,0.61682 -0.1628,1.06854 -0.4884,1.35517 -0.32561,0.28433 -0.77963,0.4265 -1.36664,0.4265 h -2.31363 v -3.49912 h 2.31363 c 0.58701,0 1.04103,0.13299 1.36663,0.3944 z m 1.88256,4.28103 c 0.70853,-0.58013 1.06395,-1.5707 1.06395,-2.97402 0,-1.28408 -0.35542,-2.23338 -1.06395,-2.84561 -0.70854,-0.61223 -1.66014,-0.9195 -2.85479,-0.9195 h -5.1753 v 11.88233 h 2.46727 v -4.27186 h 2.52459 c 1.31618,0 2.32969,-0.2912 3.03823,-0.87134 z"
     id="path10314" />
</svg>
