<?xml version="1.0" encoding="UTF-8" standalone="no"?>
<svg
   width="276.173"
   height="69.379593"
   viewBox="0 0 276.173 69.379593"
   fill="none"
   version="1.1"
   id="svg10080"
   sodipodi:docname="droughtwatch.svg"
   inkscape:version="1.2.2 (b0a84865, 2022-12-01)"
   xmlns:inkscape="http://www.inkscape.org/namespaces/inkscape"
   xmlns:sodipodi="http://sodipodi.sourceforge.net/DTD/sodipodi-0.dtd"
   xmlns="http://www.w3.org/2000/svg"
   xmlns:svg="http://www.w3.org/2000/svg">
  <defs
     id="defs10084" />
  <sodipodi:namedview
     id="namedview10082"
     pagecolor="#ffffff"
     bordercolor="#666666"
     borderopacity="1.0"
     inkscape:showpageshadow="2"
     inkscape:pageopacity="0.0"
     inkscape:pagecheckerboard="0"
     inkscape:deskcolor="#d1d1d1"
     showgrid="false"
     inkscape:zoom="2.687135"
     inkscape:cx="130.99453"
     inkscape:cy="27.538624"
     inkscape:window-width="1487"
     inkscape:window-height="684"
     inkscape:window-x="193"
     inkscape:window-y="116"
     inkscape:window-maximized="0"
     inkscape:current-layer="svg10080" />
  <path
     d="m 0,13.566145 c 0,2.3975 1.94355,4.341 4.34105,4.341 2.39747,0 4.34104,-1.9435 4.34104,-4.341 0,-2.3975 -1.94357,-4.341 -4.34104,-4.341 -2.3975,0 -4.34105,1.9435 -4.34105,4.341 z"
     fill="#ffcc33"
     id="path10054" />
  <path
     d="m 0,35.271245 c 0,2.3975 1.94355,4.341 4.34105,4.341 2.39747,0 4.34104,-1.9435 4.34104,-4.341 0,-2.3975 -1.94357,-4.3411 -4.34104,-4.3411 -2.3975,0 -4.34105,1.9436 -4.34105,4.3411 z"
     fill="#ffcc33"
     id="path10056" />
  <path
     d="m 1.62793,24.418745 c 0,1.4985 1.21474,2.7132 2.71319,2.7132 1.49847,0 2.7132,-1.2147 2.7132,-2.7132 0,-1.4985 -1.21473,-2.7132 -2.7132,-2.7132 -1.49845,0 -2.71319,1.2147 -2.71319,2.7132 z"
     fill="#ffcc33"
     id="path10058" />
  <path
     d="m 1.62793,2.713195 c 0,1.49847 1.21474,2.7132 2.71319,2.7132 1.49847,0 2.7132,-1.21473 2.7132,-2.7132 C 7.05432,1.214735 5.83959,0 4.34112,0 2.84267,0 1.62793,1.214735 1.62793,2.713195 Z"
     fill="#ffcc33"
     id="path10060" />
  <path
     d="m 16.6587,28.433845 c 0,2.3974 1.9436,4.341 4.341,4.341 2.3975,0 4.3411,-1.9436 4.3411,-4.341 0,-2.3975 -1.9436,-4.3411 -4.3411,-4.3411 -2.3974,0 -4.341,1.9436 -4.341,4.3411 z"
     fill="#ffcc33"
     id="path10062" />
  <path
     d="m 18.2866,39.286345 c 0,1.4984 1.2148,2.7134 2.7132,2.7134 1.4985,0 2.7132,-1.215 2.7132,-2.7134 0,-1.4984 -1.2147,-2.7131 -2.7132,-2.7131 -1.4984,0 -2.7132,1.2147 -2.7132,2.7131 z"
     fill="#ffcc33"
     id="path10064" />
  <path
     d="m 18.2866,17.581345 c 0,1.4985 1.2148,2.7132 2.7132,2.7132 1.4985,0 2.7132,-1.2147 2.7132,-2.7132 0,-1.4984 -1.2147,-2.7132 -2.7132,-2.7132 -1.4984,0 -2.7132,1.2148 -2.7132,2.7132 z"
     fill="#ffcc33"
     id="path10066" />
  <path
     d="m 18.2866,6.728825 c 0,1.49843 1.2148,2.71322 2.7132,2.71322 1.4985,0 2.7132,-1.21479 2.7132,-2.71322 0,-1.49847 -1.2147,-2.7132 -2.7132,-2.7132 -1.4984,0 -2.7132,1.21473 -2.7132,2.7132 z"
     fill="#ffcc33"
     id="path10068" />
  <path
     d="m 33.3174,13.566145 c 0,2.3975 1.9435,4.341 4.341,4.341 2.3976,0 4.3411,-1.9435 4.3411,-4.341 0,-2.3975 -1.9435,-4.341 -4.3411,-4.341 -2.3975,0 -4.341,1.9435 -4.341,4.341 z"
     fill="#ffcc33"
     id="path10070" />
  <path
     d="m 34.9463,2.713195 c 0,1.49847 1.2147,2.7132 2.7132,2.7132 1.4983,0 2.7132,-1.21473 2.7132,-2.7132 C 40.3727,1.214735 39.1578,0 37.6595,0 36.161,0 34.9463,1.214735 34.9463,2.713195 Z"
     fill="#ffcc33"
     id="path10072" />
  <path
     d="m 34.9463,24.418745 c 0,1.4985 1.2147,2.7132 2.7132,2.7132 1.4983,0 2.7132,-1.2147 2.7132,-2.7132 0,-1.4985 -1.2149,-2.7132 -2.7132,-2.7132 -1.4985,0 -2.7132,1.2147 -2.7132,2.7132 z"
     fill="#ffcc33"
     id="path10074" />
  <path
     d="m 34.9463,35.271345 c 0,1.4984 1.2147,2.7132 2.7132,2.7132 1.4983,0 2.7132,-1.2148 2.7132,-2.7132 0,-1.4985 -1.2149,-2.7132 -2.7132,-2.7132 -1.4985,0 -2.7132,1.2147 -2.7132,2.7132 z"
     fill="#ffcc33"
     id="path10076" />
  <path
     fill-rule="evenodd"
     clip-rule="evenodd"
     d="m 124.796,22.269245 c 0,1.279 -0.028,3.1974 -0.058,4.6507 l -2.18,0.407 v 1.0464 h 6.744 v -1.0464 l -2.006,-0.407 c -0.029,-1.4533 -0.058,-3.3717 -0.058,-4.6507 v -4.0983 c 1.483,-1.3371 2.674,-1.8894 4.099,-1.8894 1.714,0 2.383,0.843 2.383,3.5171 v 2.4706 c 0,1.3371 -0.029,3.2264 -0.058,4.6798 l -2.122,0.3779 v 1.0464 h 6.743 v -1.0464 l -2.034,-0.407 c -0.029,-1.4533 -0.058,-3.3136 -0.058,-4.6507 v -2.7031 c 0,-3.8078 -1.221,-5.3774 -3.721,-5.3774 -1.831,0 -3.895,1.1046 -5.319,2.7032 v -5.6389 l 0.116,-4.12745 -0.407,-0.23253 -4.447,1.30801 v 1.01727 l 2.383,0.2907 z m -22.08,-11.2778 c 1.075,0 1.947,-0.7848 1.947,-1.8603 0,-1.13361 -0.872,-1.86027 -1.947,-1.86027 -1.105,0 -1.948,0.72666 -1.948,1.86027 0,1.0755 0.843,1.8603 1.948,1.8603 z m 3.313,16.3354 -2.034,-0.4069 c -0.03,-1.4534 -0.059,-3.3718 -0.059,-4.6507 v -3.8368 l 0.087,-3.953 -0.436,-0.2907 -4.4757,1.7731 v 1.0173 l 2.3257,0.2616 c 0.058,1.1627 0.087,2.0637 0.087,3.6624 v 1.3661 c 0,1.2789 -0.029,3.1973 -0.059,4.6507 l -2.1795,0.4069 v 1.0464 h 6.7435 z m -28.1187,1.2499 h -1.2498 l -5.0286,-15.0856 -4.7375,15.0856 H 65.6443 L 60.4122,10.410145 58,10.119445 v -1.19171 h 7.9061 v 1.19171 l -2.6744,0.3197 3.5754,13.3707 4.418,-13.3416 -2.9068,-0.3488 v -1.19171 h 7.9062 v 1.19171 l -2.9356,0.3488 4.3311,13.4579 3.6912,-13.4288 -2.6449,-0.3779 v -1.19171 h 6.5979 v 1.19171 l -2.4414,0.3488 z m 16.5287,-9.9118 c 0,-1.6567 -1.3663,-3.1391 -3.1682,-3.1391 -1.6278,0 -3.517,1.2789 -3.837,4.6506 h 5.2902 c 1.3951,0 1.715,-0.6685 1.715,-1.5115 z m -9.6792,2.9358 c 0,-4.4472 3.0521,-7.412 6.6852,-7.412 3.0228,0 5.4066,2.0637 5.4066,5.5808 0,0.6685 -0.0873,1.2499 -0.2034,1.6277 h -9.2724 c 0.058,3.5752 1.9184,5.4645 4.7087,5.4645 1.8604,0 2.994,-0.8138 4.0403,-2.0346 l 0.6976,0.5522 c -1.0756,2.0638 -2.9356,3.3718 -5.5808,3.3718 -3.9239,0 -6.4818,-2.7032 -6.4818,-7.1504 z m 32.0202,-2.7323 c 0,-2.0637 -1.047,-3.488 -2.849,-3.488 -1.831,0 -2.935,1.4824 -2.935,3.6043 0,2.1218 1.017,3.5752 2.819,3.5752 1.86,0 2.965,-1.5405 2.965,-3.6915 z m -5.901,4.1856 c -1.395,-0.7557 -2.238,-2.1219 -2.238,-4.0984 0,-3.052 2.238,-4.7669 5.261,-4.7669 1.483,0 2.762,0.3779 3.692,1.1336 l 3.284,-1.1336 0.436,0.2906 v 1.8313 h -2.848 c 0.436,0.6976 0.668,1.5986 0.668,2.645 0,3.052 -2.238,4.767 -5.261,4.767 -0.784,0 -1.511,-0.1163 -2.151,-0.3198 -0.494,0.6395 -0.726,1.1917 -0.726,1.8603 0,0.7848 0.319,1.2789 1.685,1.2789 h 3.808 c 3.197,0 4.68,1.3952 4.68,3.7496 0,2.5288 -2.413,5.0285 -7.179,5.0285 -4.215,0 -6.017,-1.4533 -6.017,-3.517 0,-1.2499 0.697,-2.2672 2.848,-3.3136 -1.279,-0.3488 -1.918,-1.0755 -1.918,-2.2091 0,-0.9011 0.523,-1.8893 1.976,-3.2264 z m -0.523,8.284 c 0,1.8893 1.454,2.6451 3.75,2.6451 3.168,0 4.883,-1.308 4.883,-2.9358 0,-1.2789 -0.814,-2.2672 -2.907,-2.2672 h -3.401 c -0.407,0 -0.813,-0.029 -1.191,-0.0581 -0.814,0.872 -1.134,1.6568 -1.134,2.616 z m 33.79,-15.2308 v 9.0106 c 0,1.4824 0.61,2.1219 1.598,2.1219 0.64,0 1.221,-0.2616 1.948,-0.7848 l 0.698,0.7557 c -0.756,0.9883 -1.948,1.5406 -3.43,1.5406 -2.035,0 -3.314,-1.0464 -3.314,-3.3136 0,-0.3231 0.006,-0.6232 0.012,-0.9566 0.008,-0.4163 0.017,-0.8845 0.017,-1.5141 v -6.8597 h -2.412 v -1.2789 l 2.586,-0.3198 0.756,-3.8949 h 1.744 l -0.145,3.9531 h 3.895 v 1.5405 z m 10.122,12.6439 c 3.749,0 5.668,-1.9475 5.668,-4.1566 0,-1.8312 -1.105,-3.1973 -4.012,-4.2728 l -0.901,-0.3197 c -1.976,-0.7266 -2.674,-1.2208 -2.674,-2.4997 0,-1.1917 0.93,-1.9765 2.703,-1.9765 0.698,0 1.367,0.1743 2.006,0.4941 l 0.465,2.3253 h 1.512 l 0.116,-2.9648 c -1.25,-0.7557 -2.5,-1.1917 -4.069,-1.1917 -3.256,0 -5.058,1.9765 -5.058,4.0984 0,1.9765 1.395,3.1392 3.517,3.924 l 1.337,0.4941 c 1.831,0.6395 2.703,1.2789 2.703,2.5288 0,1.308 -1.046,2.2091 -3.255,2.2091 -0.901,0 -1.657,-0.1454 -2.355,-0.4651 l -0.552,-2.5288 h -1.599 l 0.117,3.1974 c 1.424,0.7266 2.703,1.1045 4.331,1.1045 z m 18.718,-16.5389 c 0,1.0464 0.233,1.9474 1.308,3.2845 0.262,0.3488 0.523,0.6686 0.785,0.9592 1.802,-1.2498 3.081,-2.5288 3.081,-4.2146 0,-1.6859 -1.105,-2.7323 -2.529,-2.7323 -1.482,0 -2.645,1.1627 -2.645,2.7032 z m 14.446,14.9693 -0.116,1.2789 c -0.872,0.2035 -1.453,0.2907 -2.209,0.2907 -1.541,0 -2.442,-0.3488 -3.401,-1.337 -0.171,-0.1992 -0.341,-0.3844 -0.509,-0.566 v -2e-4 -2e-4 -3e-4 -2e-4 l -0.001,-2e-4 v -2e-4 -4e-4 c -0.174,-0.1888 -0.345,-0.3736 -0.507,-0.566 -1.279,1.3953 -3.139,2.4707 -5.93,2.4707 -3.633,0 -6.133,-2.3544 -6.133,-5.2901 0,-2.616 1.482,-4.5635 4.389,-6.0168 -0.014,-0.029 -0.036,-0.0508 -0.058,-0.0725 -0.022,-0.0219 -0.044,-0.0437 -0.058,-0.0728 -1.454,-1.6569 -2.006,-3.1393 -2.006,-4.6798 0,-2.5578 2.035,-4.12745 4.767,-4.12745 2.878,0 4.418,1.54055 4.418,3.72055 0,2.0056 -1.337,3.4298 -4.302,5.0285 0.611,0.6976 1.308,1.4824 2.326,2.5869 0.796,0.8761 1.538,1.6703 2.291,2.4762 0.346,0.3705 0.694,0.7436 1.052,1.1281 1.075,-1.8021 1.889,-3.6914 2.412,-5.9877 l -2.296,-0.3779 v -1.1627 h 5.9 v 1.1627 l -2.209,0.407 c -0.668,2.645 -1.686,4.7959 -3.023,6.8015 0.324,0.3372 0.654,0.6918 1,1.0637 l 10e-4,9e-4 0.002,0.0022 0.001,3e-4 v 4e-4 c 0.429,0.4605 0.882,0.9476 1.38,1.4613 z m -7.586,-1.8312 c -1.047,-1.1917 -1.977,-2.2381 -2.965,-3.3426 -1.308,-1.5987 -2.209,-2.6451 -3.168,-3.7496 -2.006,1.2208 -2.558,2.9648 -2.558,4.4181 0,2.1218 1.569,4.2147 4.389,4.2147 1.628,0 3.197,-0.5523 4.302,-1.5406 z m 19.71,-5.9877 c 0,2.5288 0,5.0576 -0.058,7.4992 l -2.674,0.3197 v 1.1918 h 7.994 c 5.58,0 7.76,-2.6742 7.76,-5.3193 0,-2.3543 -1.627,-4.2437 -5.493,-4.7959 3.226,-0.6686 4.505,-2.5288 4.505,-4.5926 0,-2.7613 -2.296,-4.73781 -6.336,-4.73781 h -8.43 v 1.19171 l 2.674,0.3197 c 0.058,2.4998 0.058,4.9995 0.058,7.4992 z m 4.361,-0.3779 c 4.011,0 5.755,1.3662 5.755,4.0693 0,2.5579 -1.802,3.9531 -5.523,3.9531 h -1.773 c -0.058,-2.4707 -0.058,-4.9704 -0.058,-8.0224 z m 0.465,-8.72 c 2.964,0 4.476,0.9592 4.476,3.6043 0,2.6451 -1.512,3.7787 -5.029,3.7787 h -1.511 c 0,-2.2963 0,-4.8832 0.058,-7.383 z m 15.838,-1.1336 c 0,1.0755 -0.872,1.8603 -1.948,1.8603 -1.104,0 -1.947,-0.7848 -1.947,-1.8603 0,-1.13361 0.843,-1.86027 1.947,-1.86027 1.076,0 1.948,0.72666 1.948,1.86027 z m -0.669,17.7888 2.035,0.4069 v 1.0464 h -6.743 v -1.0464 l 2.179,-0.4069 c 0.029,-1.4534 0.059,-3.3718 0.059,-4.6507 v -1.3661 c 0,-1.5987 -0.03,-2.4997 -0.088,-3.6624 l -2.325,-0.2616 v -1.0173 l 4.476,-1.7731 0.436,0.2907 -0.087,3.953 v 3.8368 c 0,1.2789 0.029,3.1973 0.058,4.6507 z m 15.024,1.744 c 1.017,0 1.831,-0.3779 2.528,-1.5115 l -0.581,-0.6395 c -0.32,0.3779 -0.64,0.6395 -1.134,0.6395 -0.639,0 -1.046,-0.465 -1.046,-1.7149 v -6.1912 c 0,-3.6624 -1.453,-5.0576 -4.505,-5.0576 -2.965,0 -5.116,1.3952 -5.668,3.6043 0.087,0.7557 0.552,1.1917 1.366,1.1917 0.785,0 1.25,-0.4941 1.512,-1.3952 l 0.552,-1.8894 c 0.61,-0.1453 1.133,-0.1743 1.569,-0.1743 1.919,0 2.733,0.6976 2.733,3.517 v 0.7267 c -1.163,0.2616 -2.384,0.6394 -3.285,0.9592 -3.924,1.4242 -4.825,2.7323 -4.825,4.389 0,2.4126 1.773,3.6334 3.895,3.6334 1.715,0 2.674,-0.7558 4.273,-2.3253 0.232,1.3661 1.221,2.2381 2.616,2.2381 z m -8.197,-3.9821 c 0,-0.8721 0.32,-1.9766 2.848,-2.9648 0.611,-0.2326 1.657,-0.5814 2.675,-0.8721 v 4.4763 c -1.657,1.1627 -2.21,1.5115 -3.198,1.5115 -1.337,0 -2.325,-0.6104 -2.325,-2.1509 z m 22.375,-0.0873 c 0,2.2091 -1.918,4.1566 -5.668,4.1566 -1.628,0 -2.907,-0.3779 -4.331,-1.1045 l -0.116,-3.1974 h 1.599 l 0.552,2.5288 c 0.697,0.3197 1.453,0.4651 2.354,0.4651 2.209,0 3.255,-0.9011 3.255,-2.2091 0,-1.2499 -0.871,-1.8893 -2.702,-2.5288 l -1.337,-0.4941 c -2.122,-0.7848 -3.518,-1.9475 -3.518,-3.924 0,-2.1219 1.802,-4.0984 5.058,-4.0984 1.57,0 2.819,0.436 4.069,1.1917 l -0.116,2.9648 h -1.512 l -0.464,-2.3253 c -0.64,-0.3198 -1.309,-0.4941 -2.006,-0.4941 -1.773,0 -2.703,0.7848 -2.703,1.9765 0,1.2789 0.697,1.7731 2.674,2.4997 l 0.901,0.3197 c 2.907,1.0755 4.011,2.4416 4.011,4.2728 z m 8.94,-9.0687 c 1.803,0 3.169,1.4824 3.169,3.1391 0,0.843 -0.32,1.5115 -1.715,1.5115 h -5.29 c 0.319,-3.3717 2.209,-4.6506 3.836,-4.6506 z m 0.175,-1.3371 c -3.634,0 -6.685,2.9648 -6.685,7.412 0,4.4472 2.557,7.1504 6.481,7.1504 2.645,0 4.506,-1.308 5.581,-3.3718 l -0.697,-0.5522 c -1.047,1.2208 -2.18,2.0346 -4.041,2.0346 -2.79,0 -4.65,-1.8893 -4.708,-5.4645 h 9.272 c 0.116,-0.3778 0.203,-0.9592 0.203,-1.6277 0,-3.5171 -2.383,-5.5808 -5.406,-5.5808 z m 18.305,10.4058 c 0,2.2091 -1.919,4.1566 -5.668,4.1566 -1.628,0 -2.907,-0.3779 -4.331,-1.1045 l -0.116,-3.1974 h 1.599 l 0.552,2.5288 c 0.697,0.3197 1.453,0.4651 2.354,0.4651 2.209,0 3.255,-0.9011 3.255,-2.2091 0,-1.2499 -0.871,-1.8893 -2.703,-2.5288 l -1.337,-0.4941 c -2.121,-0.7848 -3.517,-1.9475 -3.517,-3.924 0,-2.1219 1.802,-4.0984 5.058,-4.0984 1.569,0 2.819,0.436 4.069,1.1917 l -0.116,2.9648 h -1.512 l -0.465,-2.3253 c -0.639,-0.3198 -1.308,-0.4941 -2.005,-0.4941 -1.773,0 -2.704,0.7848 -2.704,1.9765 0,1.2789 0.698,1.7731 2.674,2.4997 l 0.902,0.3197 c 2.907,1.0755 4.011,2.4416 4.011,4.2728 z"
     fill="white"
     id="path10078"
     style="fill:#000000" />
  <g
     aria-label="Benchmark for Drought Prediction"
     id="text10205"
     style="font-size:40px;fill:#000000"
     transform="matrix(0.39297278,0,0,0.39297278,-7.9727759,43.465411)">
    <path
       d="m 57.844189,48.736938 q 0,2.167969 -0.820313,3.828125 -0.820312,1.660157 -2.207031,2.734375 -1.640625,1.289063 -3.613281,1.835938 -1.953125,0.546875 -4.980469,0.546875 h -10.3125 V 28.60022 h 8.613281 q 3.183594,0 4.765625,0.234375 1.582031,0.234375 3.027344,0.976562 1.601562,0.839844 2.324219,2.167969 0.722656,1.308594 0.722656,3.144531 0,2.070313 -1.054688,3.535156 -1.054687,1.445313 -2.8125,2.324219 v 0.15625 q 2.949219,0.605469 4.648438,2.597656 1.699219,1.972657 1.699219,5 z M 51.340282,35.63147 q 0,-1.054688 -0.351562,-1.777344 -0.351563,-0.722656 -1.132813,-1.171875 -0.917968,-0.527344 -2.226562,-0.644531 -1.308594,-0.136719 -3.242188,-0.136719 h -4.609375 v 8.398437 h 5 q 1.816407,0 2.890625,-0.175781 1.074219,-0.195312 1.992188,-0.78125 0.917969,-0.585937 1.289062,-1.503906 0.390625,-0.9375 0.390625,-2.207031 z m 2.480469,13.261718 q 0,-1.757812 -0.527344,-2.792968 -0.527343,-1.035157 -1.914062,-1.757813 -0.9375,-0.488281 -2.285156,-0.625 -1.328125,-0.15625 -3.242188,-0.15625 H 39.777782 V 54.38147 h 5.117188 q 2.539062,0 4.160156,-0.253907 1.621094,-0.273437 2.65625,-0.976562 1.09375,-0.761719 1.601563,-1.738281 0.507812,-0.976563 0.507812,-2.519532 z"
       id="path10207" />
    <path
       d="M 81.30122,47.154907 H 65.227001 q 0,2.011719 0.605469,3.515625 0.605469,1.484375 1.660156,2.441406 1.015625,0.9375 2.402344,1.40625 1.40625,0.46875 3.085937,0.46875 2.226563,0 4.472657,-0.878906 2.265625,-0.898437 3.222656,-1.757812 h 0.195312 v 4.003906 q -1.855468,0.78125 -3.789062,1.308594 -1.933594,0.527343 -4.0625,0.527343 -5.429688,0 -8.476563,-2.929687 -3.046875,-2.949219 -3.046875,-8.359375 0,-5.351563 2.910157,-8.496094 2.929687,-3.144531 7.695312,-3.144531 4.414063,0 6.796875,2.578125 2.402344,2.578125 2.402344,7.324219 z m -3.574219,-2.8125 q -0.01953,-2.890625 -1.464844,-4.472656 -1.425781,-1.582031 -4.355468,-1.582031 -2.949219,0 -4.707032,1.738281 -1.738281,1.738281 -1.972656,4.316406 z"
       id="path10209" />
    <path
       d="m 105.10981,57.682251 h -3.67187 V 45.260376 q 0,-1.503906 -0.17578,-2.8125 -0.17578,-1.328125 -0.64453,-2.070313 -0.48829,-0.820312 -1.406254,-1.210937 -0.917969,-0.410156 -2.382812,-0.410156 -1.503907,0 -3.144532,0.742187 -1.640625,0.742188 -3.144531,1.894531 V 57.682251 H 86.867626 V 35.865845 h 3.671875 v 2.421875 q 1.71875,-1.425782 3.554688,-2.226563 1.835937,-0.800781 3.769531,-0.800781 3.53516,0 5.39062,2.128906 1.85547,2.128906 1.85547,6.132813 z"
       id="path10211" />
    <path
       d="m 128.31294,56.315063 q -1.83594,0.878907 -3.4961,1.367188 -1.64062,0.488281 -3.49609,0.488281 -2.36328,0 -4.33594,-0.683594 -1.97265,-0.703125 -3.3789,-2.109375 -1.42578,-1.40625 -2.20703,-3.554687 -0.78125,-2.148438 -0.78125,-5.019531 0,-5.351563 2.92968,-8.398438 2.94922,-3.046875 7.77344,-3.046875 1.875,0 3.67188,0.527344 1.8164,0.527344 3.32031,1.289062 v 4.082032 h -0.19531 q -1.67969,-1.308594 -3.47657,-2.011719 -1.77734,-0.703125 -3.47656,-0.703125 -3.125,0 -4.94141,2.109375 -1.79687,2.089844 -1.79687,6.152344 0,3.945312 1.75781,6.074218 1.77735,2.109375 4.98047,2.109375 1.11328,0 2.26563,-0.292968 1.15234,-0.292969 2.07031,-0.761719 0.80078,-0.410156 1.5039,-0.859375 0.70313,-0.46875 1.11329,-0.800781 h 0.19531 z"
       id="path10213" />
    <path
       d="m 151.26216,57.682251 h -3.67188 V 45.260376 q 0,-1.503906 -0.17578,-2.8125 -0.17578,-1.328125 -0.64453,-2.070313 -0.48828,-0.820312 -1.40625,-1.210937 -0.91797,-0.410156 -2.38281,-0.410156 -1.50391,0 -3.14453,0.742187 -1.64063,0.742188 -3.14454,1.894531 v 16.289063 h -3.67187 V 27.291626 h 3.67187 V 38.28772 q 1.71875,-1.425782 3.55469,-2.226563 1.83594,-0.800781 3.76953,-0.800781 3.53516,0 5.39063,2.128906 1.85547,2.128906 1.85547,6.132813 z"
       id="path10215" />
    <path
       d="m 190.16841,57.682251 h -3.67188 V 45.260376 q 0,-1.40625 -0.13672,-2.714844 -0.11718,-1.308594 -0.52734,-2.089844 -0.44922,-0.839843 -1.28906,-1.269531 -0.83985,-0.429687 -2.42188,-0.429687 -1.54297,0 -3.08594,0.78125 -1.54296,0.761718 -3.08593,1.953125 0.0586,0.449218 0.0977,1.054687 0.0391,0.585938 0.0391,1.171875 V 57.682251 H 172.4145 V 45.260376 q 0,-1.445313 -0.13672,-2.734375 -0.11719,-1.308594 -0.52734,-2.089844 -0.44922,-0.839844 -1.28906,-1.25 -0.83985,-0.429687 -2.42188,-0.429687 -1.50391,0 -3.02734,0.742187 -1.50391,0.742188 -3.00782,1.894531 v 16.289063 h -3.67187 V 35.865845 h 3.67187 v 2.421875 q 1.71875,-1.425782 3.41797,-2.226563 1.71875,-0.800781 3.65235,-0.800781 2.22656,0 3.76953,0.9375 1.5625,0.9375 2.32422,2.597656 2.22656,-1.875 4.0625,-2.695312 1.83593,-0.839844 3.92578,-0.839844 3.59375,0 5.29297,2.1875 1.71875,2.167969 1.71875,6.074219 z"
       id="path10217" />
    <path
       d="m 214.19184,57.682251 h -3.65234 v -2.324219 q -0.48828,0.332031 -1.32812,0.9375 -0.82032,0.585938 -1.60157,0.9375 -0.91797,0.449219 -2.10937,0.742188 -1.19141,0.3125 -2.79297,0.3125 -2.94922,0 -5,-1.953125 -2.05078,-1.953125 -2.05078,-4.980469 0,-2.480469 1.05469,-4.003906 1.07421,-1.542969 3.04687,-2.421875 1.99219,-0.878907 4.78516,-1.191407 2.79297,-0.3125 5.99609,-0.46875 v -0.566406 q 0,-1.25 -0.44922,-2.070312 -0.42969,-0.820313 -1.25,-1.289063 -0.78125,-0.449219 -1.875,-0.605469 -1.09375,-0.15625 -2.28515,-0.15625 -1.44532,0 -3.22266,0.390625 -1.77734,0.371094 -3.67188,1.09375 h -0.19531 v -3.730468 q 1.07422,-0.292969 3.10547,-0.644532 2.03125,-0.351562 4.00391,-0.351562 2.30468,0 4.0039,0.390625 1.71875,0.371094 2.96875,1.289062 1.23047,0.898438 1.875,2.324219 0.64453,1.425781 0.64453,3.535156 z m -3.65234,-5.371094 v -6.074219 q -1.67969,0.09766 -3.96484,0.292969 -2.26563,0.195313 -3.59375,0.566406 -1.58203,0.449219 -2.5586,1.40625 -0.97656,0.9375 -0.97656,2.597657 0,1.875 1.13281,2.832031 1.13282,0.9375 3.45703,0.9375 1.9336,0 3.53516,-0.742188 1.60156,-0.761718 2.96875,-1.816406 z"
       id="path10219" />
    <path
       d="m 234.87544,39.869751 h -0.19531 q -0.82032,-0.195313 -1.60157,-0.273438 -0.76172,-0.09766 -1.8164,-0.09766 -1.69922,0 -3.28125,0.761719 -1.58203,0.742187 -3.04688,1.933594 v 15.488281 h -3.67187 V 35.865845 h 3.67187 v 3.222656 q 2.1875,-1.757813 3.84766,-2.480469 1.67969,-0.742187 3.41797,-0.742187 0.95703,0 1.38672,0.05859 0.42968,0.03906 1.28906,0.175782 z"
       id="path10221" />
    <path
       d="m 258.13716,57.682251 h -4.84375 l -8.75,-9.550781 -2.38282,2.265625 v 7.285156 h -3.67187 V 27.291626 h 3.67187 v 19.492187 l 10.60547,-10.917968 h 4.62891 L 247.25825,45.94397 Z"
       id="path10223" />
    <path
       d="m 287.80513,30.846313 h -0.19532 q -0.60547,-0.175781 -1.58203,-0.351562 -0.97656,-0.195313 -1.71875,-0.195313 -2.36328,0 -3.4375,1.054688 -1.05469,1.035156 -1.05469,3.769531 v 0.742188 h 6.6211 v 3.085937 h -6.50391 v 18.730469 h -3.67187 V 38.951782 h -2.48047 v -3.085937 h 2.48047 v -0.722657 q 0,-3.886718 1.93359,-5.957031 1.93359,-2.089844 5.58594,-2.089844 1.23047,0 2.20703,0.117188 0.99609,0.117187 1.81641,0.273437 z"
       id="path10225" />
    <path
       d="m 308.72309,46.783813 q 0,5.332032 -2.73437,8.417969 -2.73438,3.085938 -7.32422,3.085938 -4.62891,0 -7.36328,-3.085938 -2.71484,-3.085937 -2.71484,-8.417969 0,-5.332031 2.71484,-8.417968 2.73437,-3.105469 7.36328,-3.105469 4.58984,0 7.32422,3.105469 2.73437,3.085937 2.73437,8.417968 z m -3.78906,0 q 0,-4.238281 -1.66015,-6.289062 -1.66016,-2.070313 -4.60938,-2.070313 -2.98828,0 -4.64844,2.070313 -1.64062,2.050781 -1.64062,6.289062 0,4.101563 1.66015,6.230469 1.66016,2.109375 4.62891,2.109375 2.92969,0 4.58984,-2.089844 1.67969,-2.109375 1.67969,-6.25 z"
       id="path10227" />
    <path
       d="m 328.01997,39.869751 h -0.19531 q -0.82032,-0.195313 -1.60157,-0.273438 -0.76171,-0.09766 -1.8164,-0.09766 -1.69922,0 -3.28125,0.761719 -1.58203,0.742187 -3.04688,1.933594 v 15.488281 h -3.67187 V 35.865845 h 3.67187 v 3.222656 q 2.1875,-1.757813 3.84766,-2.480469 1.67969,-0.742187 3.41797,-0.742187 0.95703,0 1.38672,0.05859 0.42968,0.03906 1.28906,0.175782 z"
       id="path10229" />
    <path
       d="m 370.40278,43.170532 q 0,3.964844 -1.73828,7.1875 -1.71875,3.222656 -4.58984,5 -1.99219,1.230469 -4.45313,1.777344 -2.4414,0.546875 -6.44531,0.546875 h -7.34375 V 28.60022 h 7.26562 q 4.25782,0 6.75782,0.625 2.51953,0.605468 4.25781,1.679687 2.96875,1.855469 4.62891,4.941406 1.66015,3.085938 1.66015,7.324219 z m -4.04297,-0.05859 q 0,-3.417968 -1.1914,-5.761718 -1.19141,-2.34375 -3.55469,-3.691407 -1.71875,-0.976562 -3.65234,-1.347656 -1.9336,-0.390625 -4.62891,-0.390625 h -3.63281 v 22.441406 h 3.63281 q 2.79297,0 4.86328,-0.410156 2.08984,-0.410156 3.82813,-1.523437 2.16796,-1.386719 3.24218,-3.652344 1.09375,-2.265625 1.09375,-5.664063 z"
       id="path10231" />
    <path
       d="m 389.97309,39.869751 h -0.19531 q -0.82031,-0.195313 -1.60156,-0.273438 -0.76172,-0.09766 -1.81641,-0.09766 -1.69922,0 -3.28125,0.761719 -1.58203,0.742187 -3.04687,1.933594 v 15.488281 h -3.67188 V 35.865845 h 3.67188 v 3.222656 q 2.1875,-1.757813 3.84765,-2.480469 1.67969,-0.742187 3.41797,-0.742187 0.95703,0 1.38672,0.05859 0.42969,0.03906 1.28906,0.175782 z"
       id="path10233" />
    <path
       d="m 412.02388,46.783813 q 0,5.332032 -2.73438,8.417969 -2.73437,3.085938 -7.32422,3.085938 -4.6289,0 -7.36328,-3.085938 -2.71484,-3.085937 -2.71484,-8.417969 0,-5.332031 2.71484,-8.417968 2.73438,-3.105469 7.36328,-3.105469 4.58985,0 7.32422,3.105469 2.73438,3.085937 2.73438,8.417968 z m -3.78907,0 q 0,-4.238281 -1.66015,-6.289062 -1.66016,-2.070313 -4.60938,-2.070313 -2.98828,0 -4.64844,2.070313 -1.64062,2.050781 -1.64062,6.289062 0,4.101563 1.66016,6.230469 1.66015,2.109375 4.6289,2.109375 2.92969,0 4.58985,-2.089844 1.67968,-2.109375 1.67968,-6.25 z"
       id="path10235" />
    <path
       d="m 435.79341,57.682251 h -3.67188 v -2.421875 q -1.85547,1.464844 -3.55469,2.246094 -1.69921,0.78125 -3.75,0.78125 -3.4375,0 -5.35156,-2.089844 -1.91406,-2.109375 -1.91406,-6.171875 V 35.865845 h 3.67187 V 48.28772 q 0,1.660156 0.15625,2.851562 0.15625,1.171875 0.66407,2.011719 0.52734,0.859375 1.36718,1.25 0.83985,0.390625 2.44141,0.390625 1.42578,0 3.10547,-0.742188 1.69922,-0.742187 3.16406,-1.894531 V 35.865845 h 3.67188 z"
       id="path10237" />
    <path
       d="m 460.71528,55.201782 q 0,5.546875 -2.51953,8.144531 -2.51953,2.597657 -7.75391,2.597657 -1.73828,0 -3.39843,-0.253907 -1.64063,-0.234375 -3.24219,-0.683593 v -3.75 h 0.19531 q 0.89844,0.351562 2.85156,0.859375 1.95313,0.527343 3.90625,0.527343 1.875,0 3.10547,-0.449218 1.23047,-0.449219 1.91407,-1.25 0.68359,-0.761719 0.97656,-1.835938 0.29297,-1.074219 0.29297,-2.402344 v -1.992187 q -1.66016,1.328125 -3.1836,1.992187 -1.5039,0.644532 -3.84765,0.644532 -3.90625,0 -6.21094,-2.8125 -2.28516,-2.832032 -2.28516,-7.96875 0,-2.8125 0.78125,-4.84375 0.80078,-2.050782 2.16797,-3.535157 1.26953,-1.386718 3.08594,-2.148437 1.81641,-0.78125 3.61328,-0.78125 1.89453,0 3.16406,0.390625 1.28907,0.371094 2.71485,1.152344 l 0.23437,-0.9375 h 3.4375 z m -3.67187,-3.515625 V 39.791626 q -1.46485,-0.664063 -2.73438,-0.9375 -1.25,-0.292969 -2.5,-0.292969 -3.02734,0 -4.76562,2.03125 -1.73828,2.03125 -1.73828,5.898438 0,3.671875 1.28906,5.566406 1.28906,1.894531 4.27734,1.894531 1.60156,0 3.20313,-0.605469 1.62109,-0.625 2.96875,-1.660156 z"
       id="path10239" />
    <path
       d="m 486.18403,57.682251 h -3.67187 V 45.260376 q 0,-1.503906 -0.17578,-2.8125 -0.17579,-1.328125 -0.64454,-2.070313 -0.48828,-0.820312 -1.40625,-1.210937 -0.91796,-0.410156 -2.38281,-0.410156 -1.5039,0 -3.14453,0.742187 -1.64062,0.742188 -3.14453,1.894531 v 16.289063 h -3.67188 V 27.291626 h 3.67188 V 38.28772 q 1.71875,-1.425782 3.55469,-2.226563 1.83593,-0.800781 3.76953,-0.800781 3.53515,0 5.39062,2.128906 1.85547,2.128906 1.85547,6.132813 z"
       id="path10241" />
    <path
       d="m 504.58247,57.486938 q -1.03516,0.273438 -2.26563,0.449219 -1.21093,0.175781 -2.16796,0.175781 -3.33985,0 -5.07813,-1.796875 -1.73828,-1.796875 -1.73828,-5.761718 V 38.951782 H 490.852 v -3.085937 h 2.48047 v -6.269532 h 3.67187 v 6.269532 h 7.57813 v 3.085937 h -7.57813 v 9.941406 q 0,1.71875 0.0781,2.695313 0.0781,0.957031 0.54687,1.796875 0.42969,0.78125 1.17188,1.152344 0.76172,0.351562 2.30469,0.351562 0.89843,0 1.875,-0.253906 0.97656,-0.273438 1.40625,-0.449219 h 0.19531 z"
       id="path10243" />
    <path
       d="m 542.39497,37.389282 q 0,1.933594 -0.68359,3.59375 -0.66407,1.640625 -1.875,2.851563 -1.50391,1.503906 -3.55469,2.265625 -2.05078,0.742187 -5.17578,0.742187 h -3.86719 v 10.839844 h -3.86719 V 28.60022 h 7.89063 q 2.61718,0 4.43359,0.449218 1.81641,0.429688 3.22266,1.367188 1.66015,1.113281 2.55859,2.773437 0.91797,1.660157 0.91797,4.199219 z m -4.02344,0.09766 q 0,-1.503906 -0.52734,-2.617187 -0.52735,-1.113281 -1.60156,-1.816406 -0.9375,-0.605469 -2.14844,-0.859375 -1.19141,-0.273438 -3.02735,-0.273438 h -3.82812 V 43.54163 h 3.26172 q 2.34375,0 3.80859,-0.410156 1.46485,-0.429688 2.38281,-1.347657 0.91797,-0.9375 1.28907,-1.972656 0.39062,-1.035156 0.39062,-2.324219 z"
       id="path10245" />
    <path
       d="m 560.81294,39.869751 h -0.19531 q -0.82032,-0.195313 -1.60157,-0.273438 -0.76172,-0.09766 -1.8164,-0.09766 -1.69922,0 -3.28125,0.761719 -1.58203,0.742187 -3.04688,1.933594 v 15.488281 h -3.67187 V 35.865845 h 3.67187 v 3.222656 q 2.1875,-1.757813 3.84766,-2.480469 1.67969,-0.742187 3.41797,-0.742187 0.95703,0 1.38672,0.05859 0.42968,0.03906 1.28906,0.175782 z"
       id="path10247" />
    <path
       d="m 582.53169,47.154907 h -16.07422 q 0,2.011719 0.60547,3.515625 0.60547,1.484375 1.66015,2.441406 1.01563,0.9375 2.40235,1.40625 1.40625,0.46875 3.08594,0.46875 2.22656,0 4.47265,-0.878906 2.26563,-0.898437 3.22266,-1.757812 h 0.19531 v 4.003906 q -1.85547,0.78125 -3.78906,1.308594 -1.9336,0.527343 -4.0625,0.527343 -5.42969,0 -8.47656,-2.929687 -3.04688,-2.949219 -3.04688,-8.359375 0,-5.351563 2.91016,-8.496094 2.92968,-3.144531 7.69531,-3.144531 4.41406,0 6.79687,2.578125 2.40235,2.578125 2.40235,7.324219 z m -3.57422,-2.8125 q -0.0195,-2.890625 -1.46484,-4.472656 -1.42579,-1.582031 -4.35547,-1.582031 -2.94922,0 -4.70703,1.738281 -1.73829,1.738281 -1.97266,4.316406 z"
       id="path10249" />
    <path
       d="m 605.79341,57.682251 h -3.67188 v -2.285156 q -1.58203,1.367187 -3.30078,2.128906 -1.71875,0.761719 -3.73047,0.761719 -3.90625,0 -6.21094,-3.007813 -2.28515,-3.007812 -2.28515,-8.339844 0,-2.773437 0.78125,-4.941406 0.80078,-2.167969 2.14844,-3.691406 1.32812,-1.484375 3.08593,-2.265625 1.77735,-0.78125 3.67188,-0.78125 1.71875,0 3.04687,0.371094 1.32813,0.351562 2.79297,1.113281 v -9.453125 h 3.67188 z m -3.67188,-5.371094 V 39.791626 q -1.48437,-0.664063 -2.65625,-0.917969 -1.17187,-0.253906 -2.55859,-0.253906 -3.08594,0 -4.80469,2.148437 -1.71875,2.148438 -1.71875,6.09375 0,3.886719 1.32813,5.917969 1.32812,2.011719 4.25781,2.011719 1.5625,0 3.16406,-0.683594 1.60156,-0.703125 2.98828,-1.796875 z"
       id="path10251" />
    <path
       d="m 616.96528,32.213501 h -4.14062 v -3.808594 h 4.14062 z m -0.23437,25.46875 h -3.67188 V 35.865845 h 3.67188 z"
       id="path10253" />
    <path
       d="m 640.12934,56.315063 q -1.83593,0.878907 -3.49609,1.367188 -1.64062,0.488281 -3.49609,0.488281 -2.36328,0 -4.33594,-0.683594 -1.97266,-0.703125 -3.37891,-2.109375 -1.42578,-1.40625 -2.20703,-3.554687 -0.78125,-2.148438 -0.78125,-5.019531 0,-5.351563 2.92969,-8.398438 2.94922,-3.046875 7.77344,-3.046875 1.875,0 3.67187,0.527344 1.81641,0.527344 3.32031,1.289062 v 4.082032 h -0.19531 q -1.67969,-1.308594 -3.47656,-2.011719 -1.77734,-0.703125 -3.47656,-0.703125 -3.125,0 -4.94141,2.109375 -1.79687,2.089844 -1.79687,6.152344 0,3.945312 1.75781,6.074218 1.77734,2.109375 4.98047,2.109375 1.11328,0 2.26562,-0.292968 1.15235,-0.292969 2.07031,-0.761719 0.80079,-0.410156 1.50391,-0.859375 0.70313,-0.46875 1.11328,-0.800781 h 0.19531 z"
       id="path10255" />
    <path
       d="m 656.1645,57.486938 q -1.03516,0.273438 -2.26562,0.449219 -1.21094,0.175781 -2.16797,0.175781 -3.33985,0 -5.07813,-1.796875 -1.73828,-1.796875 -1.73828,-5.761718 V 38.951782 h -2.48047 v -3.085937 h 2.48047 v -6.269532 h 3.67188 v 6.269532 h 7.57812 v 3.085937 h -7.57812 v 9.941406 q 0,1.71875 0.0781,2.695313 0.0781,0.957031 0.54688,1.796875 0.42968,0.78125 1.17187,1.152344 0.76172,0.351562 2.30469,0.351562 0.89844,0 1.875,-0.253906 0.97656,-0.273438 1.40625,-0.449219 h 0.19531 z"
       id="path10257" />
    <path
       d="m 664.54341,32.213501 h -4.14063 v -3.808594 h 4.14063 z m -0.23438,25.46875 h -3.67187 V 35.865845 h 3.67187 z"
       id="path10259" />
    <path
       d="m 690.16841,46.783813 q 0,5.332032 -2.73438,8.417969 -2.73437,3.085938 -7.32422,3.085938 -4.6289,0 -7.36328,-3.085938 -2.71484,-3.085937 -2.71484,-8.417969 0,-5.332031 2.71484,-8.417968 2.73438,-3.105469 7.36328,-3.105469 4.58985,0 7.32422,3.105469 2.73438,3.085937 2.73438,8.417968 z m -3.78907,0 q 0,-4.238281 -1.66015,-6.289062 -1.66016,-2.070313 -4.60938,-2.070313 -2.98828,0 -4.64843,2.070313 -1.64063,2.050781 -1.64063,6.289062 0,4.101563 1.66016,6.230469 1.66015,2.109375 4.6289,2.109375 2.92969,0 4.58985,-2.089844 1.67968,-2.109375 1.67968,-6.25 z"
       id="path10261" />
    <path
       d="m 714.09419,57.682251 h -3.67188 V 45.260376 q 0,-1.503906 -0.17578,-2.8125 -0.17578,-1.328125 -0.64453,-2.070313 -0.48828,-0.820312 -1.40625,-1.210937 -0.91797,-0.410156 -2.38281,-0.410156 -1.50391,0 -3.14453,0.742187 -1.64063,0.742188 -3.14453,1.894531 V 57.682251 H 695.852 V 35.865845 h 3.67188 v 2.421875 q 1.71875,-1.425782 3.55468,-2.226563 1.83594,-0.800781 3.76953,-0.800781 3.53516,0 5.39063,2.128906 1.85547,2.128906 1.85547,6.132813 z"
       id="path10263" />
  </g>
</svg>
