<svg xmlns="http://www.w3.org/2000/svg" role="img" viewBox="3.78 20.28 141.57 66.07"><path fill="#0079C1" fill-rule="evenodd" d="M28.5 49.5c-.7.5-1.6.9-2.5 1.3h8.3v-8.2c-.3.7-.8 1.8-1.3 2.5l-1.6-1.6c-.5.9-1.2 1.7-1.9 2.5-.8.8-1.6 1.4-2.5 1.9l1.5 1.6zm.1-8.7c-.4.9-1 1.8-1.8 2.6s-1.7 1.4-2.6 1.8l2.2 2.2c.9-.5 1.8-1.2 2.5-1.9.8-.8 1.4-1.6 1.9-2.5l-2.2-2.2zm5.2-.7c.5-2 .5-4.2 0-6.3h-1.1c.5 2.1.5 4.3 0 6.3h1.1zm-1.7 0c.5-1.9.6-4.2 0-6.3h-3.2c.7 2 .7 4.3 0 6.3h3.2zm.8-11.3c.4.6.9 1.6 1.3 2.5v-8.2h-8.3c.8.3 1.6.7 2.5 1.3L26.8 26c.9.5 1.7 1.1 2.5 1.9.8.8 1.4 1.6 1.9 2.5l1.7-1.6zm-8.7-.1c.9.4 1.8 1 2.6 1.8s1.3 1.6 1.8 2.6l2.2-2.2c-.5-.9-1.2-1.8-1.9-2.5-.8-.8-1.6-1.4-2.5-1.9l-2.2 2.2zm-.7-5.2c-2.1-.5-4.2-.5-6.3 0v1.1c2.1-.5 4.2-.5 6.3 0v-1.1zm0 1.7c-2.1-.6-4.2-.5-6.3 0v3.2c2-.7 4.3-.8 6.3 0v-3.2zM9.4 30.5c.5-.9 1.2-1.7 1.9-2.5.8-.8 1.6-1.4 2.5-1.9l-1.6-1.6c.8-.5 1.6-.9 2.5-1.3H6.5v8.3c.4-.9.8-1.7 1.3-2.5l1.6 1.5zm4.9-4.1c-.9.5-1.8 1.2-2.5 1.9-.8.8-1.4 1.6-1.9 2.5l2.2 2.2c.4-1 1-1.8 1.8-2.6s1.7-1.4 2.6-1.8l-2.2-2.2zm-5.7 7.4c-.5 2.1-.6 4.2 0 6.3h3.2c-.7-2-.7-4.3 0-6.3H8.6zm-1.7 0c-.5 2.1-.5 4.2 0 6.3H8c-.5-2-.5-4.2 0-6.3H6.9zm.9 11.3c-.5-.8-.9-1.6-1.3-2.5v8.3h8.2c-.9-.4-1.7-.8-2.5-1.3l1.7-1.6c-.9-.5-1.7-1.2-2.5-1.9-.8-.8-1.4-1.6-1.9-2.5l-1.7 1.5zm2-2.1c.5.9 1.2 1.8 1.9 2.5.8.8 1.6 1.4 2.5 1.9l2.2-2.2c-1-.4-1.8-1-2.6-1.8s-1.4-1.7-1.8-2.6L9.8 43zm7.4 2.5c2 .7 4.3.7 6.3 0v3.2c-2.1.6-4.2.5-6.3 0v-3.2zm0 3.8c2.1.5 4.2.5 6.3 0v1.1c-2.1.5-4.2.5-6.3 0v-1.1z" clip-rule="evenodd"/><path fill="#0079C1" d="M40.7 23h4.2l13.9 19.3V23h4.5v28h-3.8L45.2 31v19.9h-4.5V23zm35.7 13.8h3.9c3.4 0 5.5-1.8 5.5-4.7V32c0-3-2.1-4.6-5.6-4.6h-6.9v23.5h-4.7V23h12c3.4 0 6 1 7.8 2.8 1.4 1.5 2.2 3.6 2.2 6v.1c0 4.6-2.7 7.4-6.4 8.5L91.5 51h-5.6l-9.5-14.2zM95.6 23h21.3v4.4h-16v7.3h13V39h-13v7.5h16.2v4.4H95.6V23zm27 0h5.3v23.5h14.8V51h-20.1V23z"/><path fill="#5C6670" d="M9.9 58.9h-.4l-2.4-3v3h-.6v-4H7l2.4 3v-3h.6v4h-.1zm4.8 0h-.6l-.5-1h-2l-.5 1h-.6l1.8-4h.5l1.9 4zm-2.9-1.5h1.6l-.8-1.7-.8 1.7zm4.6 1.5h-.6v-3.4h-1.3V55h3.2v.5h-1.3v3.4zm2.6 0h-.6v-4h.6v4zm2.9.1c-1.2 0-2-.9-2-2 0-1.2.9-2.1 2-2.1 1.2 0 2 .9 2 2 0 1.2-.9 2.1-2 2.1zm0-3.6c-.8 0-1.5.6-1.5 1.5s.6 1.5 1.5 1.5c.8 0 1.5-.7 1.5-1.5-.1-.8-.7-1.5-1.5-1.5zm6.2 3.5h-.4l-2.4-3v3h-.6v-4h.5l2.4 3v-3h.6v4h-.1zm4.8 0h-.6l-.5-1h-2l-.5 1h-.6l1.8-4h.5l1.9 4zM30 57.4h1.6l-.8-1.7-.8 1.7zm6.2 1.5h-2.8v-4h.6v3.4h2.2v.6zm2.9 0h-.6v-4h1.7c.5 0 .9.1 1.1.4.2.2.3.5.3.8 0 .6-.4 1-1 1.2l1.2 1.6h-.7l-1.5-2h.5c.6 0 .9-.3.9-.7 0-.5-.3-.7-.9-.7H39v3.4zm50.5 0H89v-4h1.7c.5 0 .9.1 1.1.4.2.2.3.5.3.8 0 .6-.4 1-1 1.2l1.2 1.6h-.7l-1.5-2h.5c.6 0 .9-.3.9-.7 0-.5-.3-.7-.9-.7h-1.1v3.4zm30.4 0h-.6v-4h1.7c.5 0 .9.1 1.1.4.2.2.3.5.3.8 0 .6-.4 1-1 1.2l1.2 1.6h-.7l-1.5-2h.5c.6 0 .9-.3.9-.7 0-.5-.3-.7-.9-.7h-1v3.4zm15.9 0h-.6v-4h1.7c.5 0 .9.1 1.1.4.2.2.3.5.3.8 0 .6-.4 1-1 1.2l1.2 1.6h-.6l-1.5-2h.5c.6 0 .9-.3.9-.7 0-.5-.3-.7-.9-.7h-1.1v3.4zm-90.4 0h-3v-4h2.9v.5H43v1.2h2.1v.5H43v1.2h2.4v.6h.1zm4.2 0h-.4l-2.4-3v3h-.6v-4h.5l2.4 3v-3h.6v4h-.1zm3.9 0h-3v-4h2.9v.5h-2.4v1.2h2v.5h-2v1.2h2.4v.6h.1zm4.9.1H58l-1-3-1 3h-.5l-1.4-4h.6l1.1 3.1 1-3.1h.5l1 3.1 1.1-3.1h.6l-1.5 4zm5.3-.1h-.6l-.5-1h-2l-.5 1h-.6l1.8-4h.6l1.8 4zm-2.9-1.5h1.6l-.8-1.7-.8 1.7zm5.3 1.5h-1.8v-4h1.7c.4 0 .8.1 1.1.4.2.2.3.4.3.7 0 .5-.3.7-.5.9.5.2.7.5.7.9 0 .7-.6 1.1-1.5 1.1zm-1.2-.5h1.2c.6 0 .9-.2.9-.6 0-.5-.6-.6-1-.6H65v1.2zm0-1.7h1.1c.5 0 .8-.2.8-.6 0-.4-.3-.6-.8-.6H65v1.2zm6.2 2.2h-2.8v-4h.6v3.4h2.2v.6zm3.6 0h-3v-4h2.9v.5h-2.4v1.2h2v.5h-2v1.2h2.4v.6h.1zm5.4 0h-3v-4h2.9v.5h-2.4v1.2h2v.5h-2v1.2h2.4v.6h.1zm4.2 0H84l-2.4-3v3H81v-4h.5l2.3 2.9v-3h.6v4.1zm3.9 0h-3v-4h2.9v.5h-2.4v1.2h2v.5h-2v1.2h2.4v.6h.1zm6.6.1c-1.2 0-2-.8-2-2s.9-2.1 2-2.1c.6 0 1 .2 1.5.5l-.4.4c-.3-.2-.6-.4-1.1-.4-.8 0-1.4.7-1.4 1.5 0 .9.6 1.5 1.5 1.5.4 0 .8-.1 1.1-.4v-.9h-1.2v-.5h1.7v1.6c-.3.4-.9.8-1.7.8zm4.1-.1h-.6v-1.6L96.8 55h.7l1.3 1.9L100 55h.7L99 57.4v1.5zm6.6 0h-2.8v-4h.6v3.4h2.2v.6zm4.5 0h-.6l-.5-1h-2l-.5 1h-.6l1.8-4h.5l1.9 4zm-2.9-1.5h1.6l-.8-1.7-.8 1.7zm5.3 1.5h-1.8v-4h1.7c.5 0 .8.1 1.1.4.2.2.3.4.3.7 0 .5-.3.7-.5.9.5.2.7.5.7.9-.1.7-.6 1.1-1.5 1.1zm-1.3-.5h1.2c.6 0 .9-.2.9-.6 0-.5-.6-.6-1-.6h-1.2v1.2h.1zm0-1.7h1.1c.5 0 .8-.2.8-.6 0-.4-.3-.6-.8-.6h-1.1v1.2zm5.3 2.3c-1.2 0-2-.9-2-2 0-1.2.9-2.1 2-2.1 1.2 0 2 .9 2 2 .1 1.2-.8 2.1-2 2.1zm0-3.6c-.8 0-1.5.6-1.5 1.5s.6 1.5 1.5 1.5c.8 0 1.5-.7 1.5-1.5s-.6-1.5-1.5-1.5zm10.7 3.5h-.6l-.5-1h-2l-.5 1h-.6l1.8-4h.5l1.9 4zm-2.9-1.5h1.6l-.8-1.7-.8 1.7zm4.6 1.5h-.6v-3.4H127V55h3.2v.5h-1.3v3.4zm3.6.1c-1.2 0-2-.9-2-2 0-1.2.9-2.1 2-2.1 1.2 0 2 .9 2 2 0 1.2-.9 2.1-2 2.1zm0-3.6c-.8 0-1.5.6-1.5 1.5s.6 1.5 1.5 1.5c.8 0 1.5-.7 1.5-1.5-.1-.8-.7-1.5-1.5-1.5zm8.5 3.5h-.6v-1.6l-1.7-2.4h.7l1.3 1.9L142 55h.7l-1.7 2.4v1.5z"/><path d="M24.3186 66.63349h3.98052c1.96235 0 3.27456.56238 3.93266 1.69112.6581 1.12476.98915 2.7401.98915 4.84204 0 1.5236-.21937 2.83981-.6581 3.94064-.80568 2.0102-2.22558 3.0153-4.2637 3.0153H24.3186zm7.9052-3.13895c-.84954-.28319-1.91447-.43076-3.19478-.4507H20.1227v20.6684h8.90632c3.123 0 5.43234-1.2843 6.92802-3.85688 1.10083-1.9065 1.65124-4.2318 1.65124-6.97987 0-1.08487-.12763-2.22558-.39087-3.42213-.26324-1.19655-.75383-2.30935-1.47176-3.33838-.89741-1.27233-2.07003-2.14581-3.52184-2.62044zm11.45897-.4507h-4.58678l5.8631 20.6684h4.00844l2.4968-12.08515.7299-3.99648.7259 3.99648 2.4968 12.08515h4.12411l5.81923-20.6684h-4.39134l-2.76005 11.9615-.63018 3.16688-.63417-3.2945-2.45293-11.83388h-4.55486L47.60745 74.9495l-.60226 3.2227-.5903-3.2945zm47.27968 0H74.2227v3.66144h6.2101v17.00696h4.34746V66.70528h6.18218zm8.17642 12.85892l2.66432-8.13255 2.58056 8.13255zm.26723-12.85892l-7.37474 20.6684h4.51499l1.42788-4.24775h7.61405l1.33215 4.24775h4.6825l-7.3189-20.6684zm2.40906 0zm23.2011 4.27567c.56637.45868.84955 1.22447.84955 2.30136 0 1.07291-.28318 1.85864-.84955 2.3572-.56637.49458-1.35609.74187-2.37715.74187h-4.0244v-6.08645h4.0244c1.02106 0 1.81078.23133 2.37715.68602zm3.27456 7.44653c1.23244-1.0091 1.85066-2.73212 1.85066-5.17309 0-2.23356-.61822-3.8848-1.85066-4.94972-1.23245-1.06493-2.88768-1.5994-4.96568-1.5994h-9.00205v20.66841h4.29163v-7.43057h4.39134c2.2894 0 4.05231-.50654 5.28476-1.51563z"/></svg>
