<?xml version="1.0" encoding="UTF-8" standalone="no"?>
<!-- Created with Inkscape (http://www.inkscape.org/) -->

<svg
   version="1.1"
   id="svg10900"
   width="400"
   height="177.33333"
   viewBox="0 0 400 177.33333"
   sodipodi:docname="EarthData.svg"
   inkscape:version="1.2.2 (b0a84865, 2022-12-01)"
   xmlns:inkscape="http://www.inkscape.org/namespaces/inkscape"
   xmlns:sodipodi="http://sodipodi.sourceforge.net/DTD/sodipodi-0.dtd"
   xmlns="http://www.w3.org/2000/svg"
   xmlns:svg="http://www.w3.org/2000/svg">
  <defs
     id="defs10904" />
  <sodipodi:namedview
     id="namedview10902"
     pagecolor="#ffffff"
     bordercolor="#666666"
     borderopacity="1.0"
     inkscape:showpageshadow="2"
     inkscape:pageopacity="0.0"
     inkscape:pagecheckerboard="0"
     inkscape:deskcolor="#d1d1d1"
     showgrid="false"
     inkscape:zoom="1.3308271"
     inkscape:cx="204.75988"
     inkscape:cy="96.180788"
     inkscape:window-width="1130"
     inkscape:window-height="608"
     inkscape:window-x="0"
     inkscape:window-y="25"
     inkscape:window-maximized="0"
     inkscape:current-layer="g10906" />
  <g
     inkscape:groupmode="layer"
     inkscape:label="Image"
     id="g10906">
    <g
       id="g11027">
      <path
         style="fill:#b3b3b3;stroke-width:1.33333"
         d="m 41.473267,118.5261 c -8.13047,-4.06284 -8.34093,-4.0943 -11.212963,-1.6762 -2.841035,2.392 -2.838283,2.3636 0.09372,-0.9674 2.946148,-3.34707 2.958931,-3.48764 0.518012,-5.69664 -1.376473,-1.2457 -3.581449,-4.65718 -4.899947,-7.58109 -1.969381,-4.367308 -2.894792,-5.16859 -5.184678,-4.489245 -2.501835,0.742224 -2.563582,0.642064 -0.602692,-0.977624 1.480708,-1.22306 2.399804,-4.727727 2.852185,-10.875867 1.472801,-20.016265 18.332332,-34.516095 37.813072,-32.52066 8.350223,0.855322 13.632541,3.471605 21.324544,10.561845 l 5.869563,5.410373 6.644625,-5.602831 c 8.163522,-6.883586 8.531042,-5.201431 0.911223,4.170686 -4.632968,5.698388 -5.554171,7.691665 -4.799574,10.385218 3.489907,12.457325 -0.921781,26.439155 -11.195884,35.482775 -11.03547,9.71382 -24.384456,11.246 -38.131206,4.37666 z M 58,101.33333 C 57.546775,100.6 56.575955,99.999998 55.842621,99.999998 c -0.733333,0 -0.962513,0.600002 -0.509288,1.333332 0.453226,0.73333 1.424046,1.33333 2.157379,1.33333 0.733333,0 0.962513,-0.6 0.509288,-1.33333 z m -25.995016,-10.999998 0.0049,-4.333334 2.642086,4.333334 c 2.957745,4.851054 6.863909,5.98638 5.734278,1.666666 -0.383541,-1.466666 -1.131061,-2.666666 -1.661153,-2.666666 -0.530093,0 -1.647251,-1.5 -2.482573,-3.333334 -2.474087,-5.430028 -5.242155,-4.153969 -5.784622,2.666667 -0.26246,3.3 -0.02288,6 0.532408,6 0.555284,0 1.011851,-1.95 1.014592,-4.333333 z m 25.328349,3.162832 c 0,-0.643776 -0.924465,-3.383059 -2.054368,-6.087296 -2.237193,-5.354356 -6.247557,-6.152512 -7.001996,-1.393558 -0.31753,2.002967 -0.114893,2.20476 0.828638,0.825162 0.93955,-1.373786 1.643542,-0.63059 2.841745,3 0.876032,2.654406 2.446256,4.826193 3.489384,4.826193 1.043128,0 1.896597,-0.526725 1.896597,-1.170501 z m 12.557618,0.361182 C 71.050928,93.412221 72,91.931053 72,90.56586 c 0,-1.658582 -0.663603,-2.22752 -2,-1.714696 -1.1,0.422109 -2,1.561548 -2,2.532085 0,0.970537 -1.35,2.024635 -3,2.342439 -2.954551,0.569072 -2.956203,0.580576 -0.109053,0.759401 1.590021,0.09987 3.840021,-0.182617 5,-0.627743 z m 7.328252,-4.524014 C 77.170873,88.014592 76.755576,88.241678 76,89.999998 c -1.575096,3.665447 -1.575096,5.770622 0,3.333334 0.710875,-1.1 1.259516,-2.9 1.219203,-4 z m 8.787072,3 c -0.520132,-1.283334 -1.5537,-4.013968 -2.296816,-6.068076 -1.402083,-3.875607 -4.964459,-4.50558 -6.10528,-1.079663 -0.341494,1.025513 -0.0097,1.477065 0.743313,1.011667 0.778617,-0.481212 1.733468,1.149574 2.233393,3.814405 0.662259,3.530144 1.53754,4.655 3.622184,4.655 2.089378,0 2.522007,-0.55982 1.803206,-2.333333 z M 49.333333,91.412021 c 0,-0.323388 -0.6,-0.958797 -1.333333,-1.412023 -0.733333,-0.453225 -1.333333,-0.188634 -1.333333,0.587978 0,0.776612 0.6,1.412022 1.333333,1.412022 0.733333,0 1.333333,-0.264589 1.333333,-0.587977 z m 17.94306,-3.319892 c 0.421908,-0.682661 0.147531,-1.62412 -0.609726,-2.092131 -2.120463,-1.310517 -0.206455,-3.310417 2.376033,-2.482658 1.826393,0.585409 1.9098,0.463496 0.411545,-0.601539 -3.345385,-2.378065 -8.582925,0.995441 -7.188233,4.629952 0.786696,2.050096 3.873025,2.386656 5.010381,0.546376 z m 46.056937,-0.680108 c 0,-21.175954 0.50098,-34.230931 1.33334,-34.745355 C 115.54253,52.125355 116,63.763931 116,86.587976 c 0,22.274684 -0.47855,34.745354 -1.33333,34.745354 -0.85395,0 -1.33334,-12.19599 -1.33334,-33.921309 z m 17.62563,-1.078689 0.37437,-16.333333 h 9.8889 c 6.72592,0 10.06657,0.533084 10.44444,1.666666 0.40693,1.220816 -1.79259,1.666667 -8.22223,1.666667 h -8.77777 v 5.333333 5.333333 h 8 c 6.22222,0 8,0.444444 8,2 0,1.555556 -1.77778,2 -8,2 h -8 v 5.333334 5.333333 h 8.66666 c 6.81482,0 8.66667,0.42735 8.66667,1.999995 0,1.61175 -2.07864,2 -10.70771,2 h -10.7077 z m 22.37437,15.560088 c 0,-2.827635 13.96692,-32.560088 15.29522,-32.560088 1.41228,0 15.4517,29.491379 15.39234,32.333328 -0.0583,2.7875 -4.34337,0.47288 -5.55401,-2.999995 -1.35049,-3.874001 -1.65919,-4 -9.80021,-4 -8.14103,0 -8.44972,0.126 -9.80022,4 -0.76692,2.199995 -2.32561,3.999995 -3.46376,3.999995 -1.13814,0 -2.06936,-0.34796 -2.06936,-0.77324 z m 21.25151,-12.226755 c -0.0451,-0.55 -1.42739,-3.981157 -3.07195,-7.624795 l -2.9901,-6.624795 -2.4077,5.958129 c -1.32422,3.27697 -2.70605,6.708128 -3.0707,7.624794 -0.47264,1.188098 1.10078,1.666667 5.47962,1.666667 3.37847,0 6.10583,-0.45 6.06083,-1 z M 188,85.999998 V 69.333332 h 6.06621 c 7.28743,0 13.31982,2.84148 14.34358,6.756365 1.04985,4.01466 -1.27547,9.370992 -4.42584,10.194835 -3.39496,0.887802 -3.39727,0.87374 1.4264,8.713204 2.24237,3.644301 3.76824,6.934784 3.39084,7.312184 -1.62286,1.62286 -4.80599,-1.25918 -8.33979,-7.550911 C 195.15669,85.314296 192,85.52856 192,95.333332 c 0,5.629628 -0.46464,7.333328 -2,7.333328 -1.67111,0 -2,-2.740737 -2,-16.666662 z m 13.89095,-2.809318 c 2.95418,-1.133624 2.63932,-6.813069 -0.46996,-8.477103 -1.41846,-0.759134 -4.11846,-1.380245 -6,-1.380245 -3.10227,0 -3.42099,0.496892 -3.42099,5.333333 0,5.00382 0.2404,5.333333 3.89095,5.333333 2.14002,0 4.84002,-0.364193 6,-0.809318 z m 19.44238,4.809318 V 73.333332 H 216 c -3.90971,0 -5.33333,-0.547216 -5.33333,-2.050035 0,-1.72331 1.94844,-1.988934 12.22548,-1.666666 8.30942,0.260568 12.40238,0.917232 12.77777,2.050034 0.38155,1.151396 -1.13092,1.666667 -4.89215,1.666667 h -5.44444 v 14.666666 c 0,12.148152 -0.34344,14.666662 -2,14.666662 -1.65656,0 -2,-2.51851 -2,-14.666662 z m 17.62563,-1.666666 c 0.30859,-13.463243 0.72581,-16.333333 2.37437,-16.333333 1.47263,0 2.10627,1.845784 2.40302,7 l 0.40301,6.999999 H 252 h 7.86064 l 0.40301,-6.895195 c 0.23495,-4.01974 1.09806,-7.124246 2.06968,-7.444446 C 263.60747,69.240469 264,73.062621 264,85.888888 c 0,14.02469 -0.32819,16.777772 -2,16.777772 -1.53536,0 -2,-1.7037 -2,-7.333328 v -7.333334 h -8 -8 v 7.333334 c 0,6.481488 -0.31453,7.333328 -2.70771,7.333328 -2.5944,0 -2.69204,-0.68347 -2.33333,-16.333328 z m 31.70771,-0.333334 V 69.333332 L 277,69.340799 c 8.84079,0.0104 15.40483,2.094361 19.50208,6.191608 2.82296,2.822936 3.49792,4.758262 3.49792,10.029654 0,11.899552 -6.47885,17.104599 -21.29051,17.104599 h -8.04282 z m 15.57142,8.684874 C 289.22579,94.650257 292,90.459252 292,85.980365 c 0,-5.222357 -3.81399,-8.647033 -9.63001,-8.647033 -3.70196,0 -3.70332,0.0035 -3.70332,9.488841 0,9.189605 0.0947,9.463488 3,8.684873 1.65,-0.442182 3.70714,-0.812161 4.57142,-0.822174 z m 15.24879,4.315126 c 0.74148,-2.016666 3.87475,-9.366666 6.96281,-16.333333 4.43971,-10.015962 6.24214,-12.756666 8.61307,-13.096742 3.19184,-0.45782 3.30749,-0.255218 13.37588,23.430075 l 4.1092,9.666662 h -4.39323 c -3.39222,0 -4.73929,-0.7595 -5.91201,-3.333329 -1.29267,-2.837106 -2.41244,-3.333333 -7.52195,-3.333333 -5.29141,0 -6.10237,0.39522 -6.8398,3.333333 -0.68345,2.723129 -1.65174,3.333329 -5.28937,3.333329 -4.29549,0 -4.40515,-0.1295 -3.1046,-3.666662 z m 18.46587,-10.666666 c -0.026,-0.55 -0.79554,-2.347094 -1.71012,-3.99354 l -1.66287,-2.993542 -1.5074,3.993542 c -1.41508,3.748994 -1.31036,3.99354 1.71012,3.99354 1.76964,0 3.19625,-0.45 3.17027,-1 z M 340,89.999998 V 77.333332 h -4.66667 c -4.30866,0 -4.66666,-0.310563 -4.66666,-4.048283 v -4.048282 l 13,0.381616 c 12.87601,0.377976 13,0.413408 13,3.714949 0,2.786089 -0.71142,3.401927 -4.33334,3.751144 L 348,77.502288 v 12.582188 12.582184 h -4 -4 z M 353.72075,101 c 4.17885,-10.353263 12.35404,-28.709477 13.38956,-30.064344 3.33396,-4.362108 6.42845,-1.004403 13.00737,14.113698 3.60193,8.277147 6.54899,15.627146 6.54899,16.333336 0,0.70619 -1.7037,1.28397 -3.78598,1.28397 -2.74449,0 -4.20378,-0.91697 -5.30476,-3.333329 -1.28205,-2.813801 -2.42501,-3.333333 -7.33333,-3.333333 -4.90831,0 -6.05128,0.519532 -7.33333,3.333333 -1.14891,2.521579 -2.53458,3.333329 -5.69,3.333329 -2.80688,0 -3.9512,-0.54514 -3.49852,-1.66666 z m 19.56533,-12.666668 c -0.026,-0.55 -0.8396,-2.429426 -1.80803,-4.1765 l -1.7608,-3.1765 -1.45593,4.1765 c -1.37309,3.938877 -1.27023,4.1765 1.80804,4.1765 1.79519,0 3.24271,-0.45 3.21672,-1 z"
         id="path11041" />
      <path
         style="fill:#6d8bbc;stroke-width:1.33333"
         d="m 44.747175,120.05319 c -3.622388,-1.45975 -7.488695,-3.55662 -8.591795,-4.65972 -1.785291,-1.78529 -2.306827,-1.75716 -4.747175,0.256 -2.637137,2.1755 -2.657068,2.16797 -0.52338,-0.19779 2.084891,-2.31166 1.989178,-2.77553 -1.593081,-7.72069 -11.933717,-16.47402 -6.445735,-39.192023 11.966352,-49.535799 6.077208,-3.414132 8.680396,-4.071552 16,-4.040707 10.135311,0.04271 20.11526,4.338976 25.815476,11.113299 1.881513,2.236052 4.073076,4.065549 4.870139,4.065549 0.797062,0 4.229178,-2.55 7.626925,-5.666667 4.826024,-4.42679 5.806084,-4.937327 4.479234,-2.333333 -0.934171,1.833333 -3.742286,5.473721 -6.240259,8.089752 -4.536686,4.751093 -4.539994,4.764111 -2.955235,11.629657 5.993321,25.964489 -21.256979,49.014549 -46.107201,39.000449 z m 10.447522,-21.053192 -3.861364,-3.666666 3.476192,-0.403516 3.476192,-0.403518 -2.132349,-5.929816 c -2.932084,-8.153785 -6.976283,-8.275781 -9.111849,-0.274865 -1.356326,5.081483 -0.878472,9.444074 0.585465,5.345048 0.327381,-0.916667 1.780648,-1.666667 3.229483,-1.666667 1.448834,0 2.257376,0.609787 1.796758,1.355083 -0.460618,0.745295 -1.546028,0.93012 -2.412022,0.410721 -1.503676,-0.90186 0.06451,1.527556 4.239306,6.567528 1.063035,1.28333 2.527412,2.33333 3.254171,2.33333 0.72676,0 -0.416233,-1.65 -2.539983,-3.666662 z m -23.159218,-8 0.03548,-3.666666 2.273342,3.666666 c 3.64628,5.88107 6.592268,4.814988 6.44553,-2.33248 -0.123267,-6.004198 -2.061268,-8.655994 -2.1931,-3.000853 l -0.06993,3 -2.092693,-3 c -3.605497,-5.168689 -6.429005,-3.857515 -6.469407,3.004248 -0.01942,3.297664 0.430583,5.995752 1,5.995752 0.569416,0 1.051268,-1.65 1.070782,-3.666667 z m 39.824265,1.835664 C 74.044987,90.202608 72.288437,86.100764 69.844289,88.129226 68.829931,88.97107 68,90.44653 68,91.408028 c 0,0.961497 -1.65,1.998132 -3.666667,2.303632 -3.05359,0.46258 -2.857952,0.588856 1.170074,0.755229 2.699817,0.11152 5.508114,-0.60918 6.356337,-1.631227 z M 76,93.333332 c 0,-0.733334 1.2,-1.333334 2.666667,-1.333334 1.466666,0 2.666666,0.6 2.666666,1.333334 0,0.733333 1.464419,1.333333 3.254263,1.333333 3.124904,0 3.178231,-0.145752 1.341548,-3.666667 -1.051993,-2.016666 -1.916412,-4.3432 -1.920929,-5.170073 -0.012,-2.198491 -3.213359,-4.494236 -4.769536,-3.420324 -1.940531,1.339153 -5.917483,12.257064 -4.464752,12.257064 0.67434,0 1.226073,-0.6 1.226073,-1.333333 z m 2,-5.333334 c 0.453225,-0.733333 1.088635,-1.333333 1.412023,-1.333333 0.323388,0 0.587977,0.6 0.587977,1.333333 0,0.733334 -0.635411,1.333334 -1.412023,1.333334 -0.776612,0 -1.041202,-0.6 -0.587977,-1.333334 z m -10.8899,-2.06343 c -2.317296,-1.756167 -2.288564,-1.85395 0.556567,-1.894166 3.68002,-0.05202 3.958722,-2.147342 0.409089,-3.075592 -2.542425,-0.66486 -6.742423,2.577347 -6.742423,5.204843 0,2.80132 3.017871,4.400876 5.647695,2.993437 2.485372,-1.33013 2.489744,-1.439485 0.129067,-3.228522 z m 48.1375,1.396764 c 7.7e-4,-19.066667 0.18803,-26.68125 0.41614,-16.921297 0.22812,9.759951 0.22749,25.359951 -0.001,34.666665 -0.22893,9.30671 -0.41557,1.3213 -0.41481,-17.745368 z m 16.30796,14.444448 c -0.48889,-0.48889 -0.88889,-7.688892 -0.88889,-16.000004 V 70.666665 h 10 c 5.77777,0 10,0.562963 10,1.333334 0,0.740741 -3.55556,1.333333 -8,1.333333 h -8 v 5.333333 5.333333 h 8 c 4.44444,0 8,0.592592 8,1.333334 0,0.740741 -3.55556,1.333333 -8,1.333333 h -8 v 5.936377 5.936376 l 8.2275,0.396957 c 5.09434,0.245788 8.43707,1.031651 8.77778,2.063625 0.40709,1.23298 -2.02292,1.66666 -9.33862,1.66666 -5.43889,0 -10.28889,-0.4 -10.77777,-0.88888 z M 153.70499,101 C 159.97427,85.095101 167.32424,70.601673 168.95157,70.935221 170.45555,71.243487 184,99.248006 184,102.04935 c 0,0.33953 -0.82721,0.61731 -1.83824,0.61731 -1.01103,0 -2.58383,-1.8 -3.49509,-3.999995 -1.59131,-3.841756 -1.98692,-4 -10,-4 -8.01308,0 -8.4087,0.158244 -10,4 -0.91127,2.199995 -2.54826,3.999995 -3.63775,3.999995 -1.08949,0 -1.68527,-0.75 -1.32393,-1.66666 z m 20.19097,-13.32779 c -0.52272,-1.646949 -1.94551,-5.337537 -3.16176,-8.201305 l -2.21135,-5.20685 -2.92809,7.045774 c -1.61045,3.875177 -2.92809,7.565765 -2.92809,8.201307 0,0.635541 2.74042,1.155529 6.08985,1.155529 5.70529,0 6.02983,-0.189092 5.13944,-2.994455 z M 188,86.666665 v -16 h 7.90476 c 9.02423,0 12.09524,2.031218 12.09524,8 0,3.721467 -2.34584,7.226391 -5.55187,8.295068 -1.06396,0.354655 -0.14633,3.073023 2.74071,8.119048 5.87771,10.273169 2.04288,10.509829 -4.09227,0.252551 -3.2547,-5.441498 -5.16582,-7.333334 -7.40808,-7.333334 -2.77393,0 -3.02182,0.601591 -3.02182,7.333334 0,4.033333 -0.6,7.333328 -1.33334,7.333328 C 188.51852,102.66666 188,96.444442 188,86.666665 Z M 201.89095,83.19068 C 203.11579,82.720664 204,80.823994 204,78.666665 c 0,-4.152898 -1.94235,-5.333333 -8.77572,-5.333333 -4.42833,0 -4.55761,0.151291 -4.55761,5.333333 0,5.182043 0.12933,5.333333 4.55761,5.333333 2.50669,0 5.50669,-0.364193 6.66667,-0.809318 z m 19.44238,4.920429 V 73.333332 H 216 c -2.93333,0 -5.33333,-0.6 -5.33333,-1.333333 0,-0.795322 5.1111,-1.333334 12.66666,-1.333334 7.55556,0 12.66667,0.538012 12.66667,1.333334 0,0.733333 -2.37971,1.333333 -5.28823,1.333333 h -5.28822 l -0.37844,14.224861 C 224.78135,97.472574 224.16163,101.9506 223,102.33597 c -1.26635,0.42011 -1.66667,-2.996639 -1.66667,-14.224861 z M 240,86.666665 c 0,-9.777777 0.51852,-16 1.33333,-16 0.73334,0 1.33334,3 1.33334,6.666667 v 6.666666 H 251.33333 260 v -6.666666 c 0,-5.037037 0.48889,-6.666667 2,-6.666667 1.66667,0 2,2.666667 2,16 0,13.333333 -0.33333,15.999995 -2,15.999995 -1.55731,0 -2,-1.78484 -2,-8.063618 v -8.063624 l -8.33333,0.396958 -8.33334,0.396956 -0.39986,7.666666 c -0.21994,4.216667 -0.96994,7.666662 -1.66667,7.666662 -0.7298,0 -1.2668,-6.782484 -1.2668,-15.999995 z m 30.66667,-0.14118 v -16.14118 l 10.78986,0.489994 c 10.22362,0.46428 10.99334,0.717701 14.66667,4.828882 4.25373,4.760744 5.18021,11.977335 2.33841,18.214404 -2.23197,4.898638 -11.12893,8.749075 -20.2159,8.749075 h -7.57904 z m 19.42904,6.576784 c 6.06409,-6.204829 1.49957,-15.768937 -7.52582,-15.768937 h -5.23656 v 9.508892 9.508892 l 5.51678,-0.739955 c 3.03422,-0.406976 6.29474,-1.535977 7.2456,-2.508892 z m 17.00598,-6.435604 c 6.17027,-14.435473 7.16784,-15.997624 10.20199,-15.975698 3.01185,0.02176 4.02732,1.587917 9.72572,14.999999 3.49949,8.236635 6.34949,15.425694 6.33333,15.975694 -0.0161,0.55 -1.76436,1 -3.88485,1 -3.00051,0 -4.04097,-0.73917 -4.69207,-3.333329 -0.753,-3.000195 -1.50365,-3.333333 -7.51088,-3.333333 -5.89237,0 -6.82273,0.390502 -7.9416,3.333333 -0.95332,2.507419 -2.23406,3.333329 -5.16898,3.333329 h -3.90166 z M 320,88.753465 c 0,-0.318928 -0.64521,-2.268928 -1.4338,-4.333333 l -1.43379,-3.753467 -1.85229,3.333333 c -2.58741,4.65623 -2.41137,5.333334 1.38655,5.333334 1.83333,0 3.33333,-0.26094 3.33333,-0.579867 z m 20,0.668429 V 75.999999 h -4.66667 c -3.77777,0 -4.66666,-0.507936 -4.66666,-2.666667 0,-2.479532 0.88889,-2.666667 12.66666,-2.666667 11.77778,0 12.66667,0.187135 12.66667,2.666667 0,2.066833 -0.88889,2.666667 -3.95172,2.666667 h -3.95172 L 347.71495,88.999998 347.33333,102 343.66667,102.42189 340,102.84379 Z m 18.16896,2.244771 c 2.60397,-6.05 5.65929,-13.282318 6.78961,-16.07182 1.71476,-4.231861 2.61596,-5.004721 5.44158,-4.666666 2.92004,0.34935 4.27346,2.418213 9.82649,15.020781 3.54201,8.038594 6.44003,15.08859 6.44003,15.66667 0,0.57807 -1.78858,1.05103 -3.9746,1.05103 -3.12759,0 -4.15288,-0.71035 -4.81122,-3.333329 -0.75037,-2.989719 -1.51188,-3.333333 -7.38732,-3.333333 -5.69352,0 -6.74944,0.436178 -8.06946,3.333333 -1.09395,2.400939 -2.56364,3.333329 -5.25419,3.333329 h -3.7354 z m 15.16437,-2.801036 c 0,-0.257236 -0.68458,-2.431505 -1.5213,-4.831709 -1.57072,-4.505795 -2.46864,-4.037323 -4.40726,2.299412 -0.78638,2.570432 -0.42764,3 2.50538,3 1.88276,0 3.42318,-0.210467 3.42318,-0.467703 z"
         id="path11039" />
      <path
         style="fill:#df4132;stroke-width:1.33333"
         d="m 47.843044,120.82589 c -2.652993,-0.94804 -6.893288,-3.00284 -9.422877,-4.56621 -4.078755,-2.52081 -4.853184,-2.6209 -6.843044,-0.88442 -2.018875,1.7618 -2.057695,1.74334 -0.387276,-0.18416 1.613094,-1.86134 1.329822,-2.98949 -2.160471,-8.6042 -8.919663,-14.348731 -7.142752,-30.935064 4.568772,-42.646588 6.414588,-6.414588 13.627789,-9.215081 23.735185,-9.215081 10.37159,0 17.566414,2.90116 24.242446,9.77525 2.581482,2.658068 5.3964,4.832851 6.25537,4.832851 0.858971,0 4.34174,-2.55 7.739487,-5.666667 4.826024,-4.42679 5.806084,-4.937327 4.479234,-2.333333 -0.934171,1.833333 -3.783981,5.51642 -6.332913,8.184637 l -4.634422,4.851304 1.511092,7.278891 c 3.661526,17.637478 -8.030328,35.865436 -25.393442,39.589166 -8.414406,1.80456 -11.350718,1.73496 -17.357141,-0.41144 z m 27.545115,-14.24793 c 1.368084,-2.21361 0.140149,-2.52057 -1.774062,-0.44348 C 72.668519,107.16051 72.483108,108 73.202075,108 c 0.718968,0 1.702705,-0.63992 2.186084,-1.42204 z m -20.029554,-7.571605 -3.94748,-3.66031 3.480974,-0.673023 3.480974,-0.673024 -2.351388,-6 C 52.648051,79.391547 49.098473,79.237951 47.129513,87.61522 45.509715,94.506921 45.81088,96.055785 48.288889,93.577776 50.2472,91.619465 52,91.541177 52,93.412021 c 0,0.776612 -0.75,0.961437 -1.666667,0.410723 -1.059577,-0.636574 -0.959822,-0.05815 0.273859,1.587977 4.167868,5.561259 5.861748,7.255939 7.2525,7.255939 0.795516,0 -0.329973,-1.64714 -2.501087,-3.660305 z m 20.21888,-1.923023 c -0.425634,-1.063644 -0.741577,-0.747702 -0.805556,0.805555 -0.05789,1.405555 0.257238,2.193053 0.700294,1.75 0.443054,-0.443056 0.490424,-1.593056 0.105266,-2.555555 z m -43.162117,-6.083334 -0.548175,-3.666666 2.108987,3.666666 c 1.1754,2.04354 3.270591,3.666667 4.733069,3.666667 2.235646,0 2.630362,-0.937512 2.666488,-6.333333 0.03923,-5.858619 0.189136,-6.139338 2,-3.74516 2.503522,3.30995 2.473387,2.305285 -0.1168,-3.893898 -2.879098,-6.890653 -2.118364,-13.238591 1.650814,-13.775183 3.805018,-0.541695 9.624654,2.544416 15.824484,8.391608 4.69632,4.4292 4.862928,4.854459 2.796469,7.13787 -2.593177,2.865431 -2.753824,4.461645 -0.659779,6.555691 1.12218,1.12218 2.267786,1.146808 4.240295,0.09116 2.625072,-1.404896 2.631033,-1.498846 0.207565,-3.270928 -2.092976,-1.530431 -2.149613,-1.824494 -0.351402,-1.824494 1.17905,0 2.382453,0.716174 2.674226,1.591495 0.784486,2.353457 -2.077378,7.829229 -3.762521,7.199055 -0.799835,-0.299106 -2.299835,-0.0085 -3.333333,0.645726 -1.303576,0.82523 -0.39773,1.19581 2.957652,1.209974 5.688797,0.02401 8.606642,-2.660378 6.769288,-6.227687 -0.685128,-1.330209 -0.97687,-3.168247 -0.648314,-4.084528 0.328555,-0.916281 -0.489502,-2.083039 -1.817906,-2.592796 -1.328406,-0.509756 -3.916506,-2.710933 -5.751336,-4.891505 -4.290208,-5.098623 -14.406338,-11.5164 -18.15292,-11.5164 -4.604504,0 -6.367816,3.24756 -5.439744,10.018585 0.490442,3.578172 0.294378,5.981415 -0.487982,5.981415 -0.719305,0 -1.331849,1.65 -1.36121,3.666666 l -0.05339,3.666667 -1.9892,-3.666667 c -1.130648,-2.084117 -3.121761,-3.666666 -4.613279,-3.666666 -2.260012,0 -2.624084,0.92495 -2.624084,6.666666 0,4.735215 0.525868,6.666667 1.815104,6.666667 1.224116,0 1.636622,-1.193848 1.266931,-3.666667 z m 44.917965,2.333334 c 0,-0.733334 0.935411,-1.333334 2.07869,-1.333334 1.143278,0 1.707869,0.6 1.254644,1.333334 -0.479502,0.775849 0.850412,1.333333 3.180752,1.333333 h 4.004797 L 85.081675,87.999998 C 83.557876,84.333332 81.941128,81.34252 81.4889,81.353749 c -2.063525,0.05124 -4.023508,2.382188 -6.005712,7.142415 -2.618564,6.288428 -2.6157,6.170501 -0.149855,6.170501 1.1,0 2,-0.6 2,-1.333333 z m 37.914267,-6 c 7.7e-4,-19.066667 0.18803,-26.68125 0.41614,-16.921297 0.22812,9.759951 0.22749,25.359951 -0.001,34.666665 -0.22893,9.30671 -0.41557,1.3213 -0.41481,-17.745368 z M 132,86.666665 v -16 h 9.33333 c 5.33334,0 9.33334,0.571428 9.33334,1.333334 0,0.740741 -3.55556,1.333333 -8,1.333333 h -8 v 5.333333 5.333333 h 8 c 4.44444,0 8,0.592592 8,1.333334 0,0.740741 -3.55556,1.333333 -8,1.333333 h -8 v 6.666667 6.666666 h 8.66666 c 4.8889,0 8.66667,0.581192 8.66667,1.333332 0,0.77037 -4.22223,1.33333 -10,1.33333 H 132 Z M 153.70499,101 c 5.22984,-13.26787 13.61978,-30.333335 14.91286,-30.333335 1.2934,0 9.6877,16.970192 15.00435,30.333335 1.53059,3.84704 -3.30571,1.29234 -5.04824,-2.666669 -1.84663,-4.195486 -2.16179,-4.333333 -9.90729,-4.333333 -7.74551,0 -8.06067,0.137847 -9.9073,4.333333 -1.74385,3.962029 -6.56829,6.507369 -5.05438,2.666669 z m 20.87985,-12.000002 c -0.0451,-0.916666 -1.41873,-4.628022 -3.05273,-8.247458 l -2.9709,-6.580792 -2.94728,7.091928 c -1.621,3.900561 -2.94726,7.611918 -2.94726,8.24746 0,0.635541 2.7,1.155529 6,1.155529 3.95474,0 5.9721,-0.568124 5.91817,-1.666667 z M 188,86.666665 v -16 h 7.79335 c 8.70921,0 12.20665,2.358531 12.20665,8.231671 0,3.471394 -3.62141,7.768329 -6.54707,7.768329 -1.56577,0 -0.32225,2.571703 6.28603,13 1.67033,2.635875 1.65159,2.999995 -0.15443,2.999995 -1.13052,0 -3.94356,-3.299995 -6.2512,-7.333328 -3.2735,-5.721495 -4.90685,-7.333334 -7.43118,-7.333334 -3.03291,0 -3.23548,0.459144 -3.23548,7.333334 0,4.033333 -0.6,7.333328 -1.33334,7.333328 -0.81481,0 -1.33333,-6.222218 -1.33333,-15.999995 z m 15.95309,-5.245679 c 1.78506,-3.33541 1.76379,-3.51363 -0.715,-5.992415 -1.19365,-1.193652 -4.3492,-2.095239 -7.33333,-2.095239 -5.22223,0 -5.23809,0.01616 -5.23809,5.333333 v 5.333333 h 5.95309 c 4.52103,0 6.28511,-0.620397 7.33333,-2.579012 z m 17.38024,6.579012 V 73.333332 H 216 c -2.93333,0 -5.33333,-0.6 -5.33333,-1.333333 0,-0.790124 4.88889,-1.333334 12,-1.333334 7.1111,0 12,0.54321 12,1.333334 0,0.733333 -2.4,1.333333 -5.33334,1.333333 H 224 v 14.666666 c 0,8.88889 -0.52525,14.666662 -1.33333,14.666662 -0.80808,0 -1.33334,-5.777772 -1.33334,-14.666662 z M 240,86.666665 c 0,-9.777777 0.51852,-16 1.33333,-16 0.73334,0 1.33334,3 1.33334,6.666667 v 6.666666 H 251.33333 260 v -6.666666 c 0,-5.037037 0.48889,-6.666667 2,-6.666667 1.66743,0 2,2.679012 2,16.111111 0,12.293218 -0.39496,15.980824 -1.66667,15.561324 -1.00452,-0.33136 -1.82553,-3.55379 -2.06653,-8.111107 l -0.39988,-7.561328 h -8.60012 -8.60013 v 8 c 0,4.444444 -0.59259,7.999995 -1.33334,7.999995 -0.81481,0 -1.33333,-6.222218 -1.33333,-15.999995 z m 30.66667,0 v -16 h 8.73288 c 13.93469,0 20.60045,4.999272 20.60045,15.450197 0,10.352176 -8.2226,16.549798 -21.95717,16.549798 h -7.37616 z m 16.4988,8.063824 c 6.33781,-2.409633 7.7479,-10.293308 2.73729,-15.303921 -1.19167,-1.191661 -4.34933,-2.093236 -7.33133,-2.093236 h -5.2381 v 9.333333 c 0,9.000124 0.11587,9.333333 3.24654,9.333333 1.7856,0 4.7491,-0.57128 6.5856,-1.269509 z m 14.14816,6.936171 c -0.0107,-0.55 2.82173,-7.777058 6.29458,-16.060132 5.81692,-13.87392 6.57536,-15.029147 9.62904,-14.666667 2.84004,0.337119 4.2242,2.494012 9.66475,15.060137 3.49248,8.066667 6.36828,15.116662 6.39065,15.666662 0.0224,0.55 -1.47218,1 -3.32124,1 -2.29214,0 -3.84518,-1.06067 -4.88068,-3.333329 -1.31702,-2.890551 -2.38029,-3.333333 -8.00442,-3.333333 -5.69118,0 -6.64088,0.408322 -7.75298,3.333333 -0.88994,2.340739 -2.26974,3.333329 -4.63366,3.333329 -1.85148,0 -3.3752,-0.45 -3.38604,-1 z M 320,88.086798 c 0,-0.685594 -0.64659,-2.935594 -1.43687,-5 l -1.43686,-3.753466 -1.89647,4.486413 c -2.42111,5.727551 -2.47687,5.513587 1.43687,5.513587 1.83333,0 3.33333,-0.56094 3.33333,-1.246534 z m 20,1.246534 V 75.999999 h -4.66667 c -3.77777,0 -4.66666,-0.507936 -4.66666,-2.666667 0,-2.479532 0.88889,-2.666667 12.66666,-2.666667 11.63964,0 12.66667,0.209366 12.66667,2.58219 0,1.938644 -1.07997,2.686317 -4.33333,3 l -4.33334,0.41781 -0.38161,13 c -0.37644,12.823565 -0.4262,12.999995 -3.66667,12.999995 -3.27217,0 -3.28505,-0.0522 -3.28505,-13.333328 z m 18.16896,2.333333 c 2.60397,-6.05 5.65929,-13.282318 6.78961,-16.07182 1.69384,-4.18024 2.6314,-5.000598 5.33334,-4.666666 2.79288,0.34517 4.24769,2.633222 9.82649,15.454509 3.60155,8.277146 6.54827,15.327142 6.54827,15.666662 0,0.33953 -1.73496,0.61731 -3.85546,0.61731 -3.0005,0 -4.04097,-0.73917 -4.69206,-3.333329 -0.75292,-2.999827 -1.50395,-3.333333 -7.50647,-3.333333 -5.82061,0 -6.86323,0.424416 -8.18861,3.333333 -1.09395,2.400939 -2.56364,3.333329 -5.25419,3.333329 h -3.7354 z m 15.11712,-4 c -0.026,-0.916667 -0.8396,-3.096092 -1.80803,-4.843167 l -1.7608,-3.176499 -1.52529,4.375463 c -1.95924,5.620303 -2.06459,5.31087 1.80804,5.31087 1.83333,0 3.31207,-0.75 3.28608,-1.666667 z"
         id="path11037" />
      <path
         style="fill:#25519c;stroke-width:1.33333"
         d="m 49.101831,121.36127 c -4.310134,-1.30118 -14.445952,-6.88698 -14.407911,-7.94013 0.01499,-0.41496 4.001824,-3.69457 8.859633,-7.28803 7.454695,-5.51444 9.215408,-6.294345 11.287988,-5 3.635502,2.27041 4.536452,1.86287 2.022596,-0.91491 -2.086437,-2.305487 -2.016982,-2.539065 1.18942,-3.999999 1.872888,-0.853345 5.403552,-1.551536 7.84592,-1.551536 5.287586,0 8.22706,-2.8194 6.380194,-6.119567 -2.060346,-3.681633 -0.408012,-6.62753 4.814718,-8.584021 2.698086,-1.01073 5.430707,-1.690873 6.07249,-1.511425 0.641784,0.179447 2.239721,-0.644643 3.550972,-1.831308 2.251704,-2.037764 2.467465,-1.755973 3.88548,5.074568 3.651545,17.589401 -8.062563,35.823528 -25.403146,39.542418 -7.592604,1.62832 -11.027542,1.65477 -16.098354,0.12394 z m 26.286328,-14.78331 c 1.368084,-2.21361 0.140149,-2.52057 -1.774062,-0.44348 C 72.668519,107.16051 72.483108,108 73.202075,108 c 0.718968,0 1.702705,-0.63992 2.186084,-1.42204 z m 0.189326,-9.494628 c -0.425634,-1.063644 -0.741577,-0.747702 -0.805556,0.805555 -0.05789,1.405555 0.257238,2.193053 0.700294,1.75 0.443054,-0.443056 0.490424,-1.593056 0.105266,-2.555555 z m 1.755848,-3.75 c 0,-0.733334 0.935411,-1.333334 2.07869,-1.333334 1.143278,0 1.707869,0.6 1.254644,1.333334 -0.480483,0.777437 0.869438,1.333333 3.23783,1.333333 h 4.061876 l -3.197505,-7.230127 c -1.758627,-3.976569 -2.801061,-7.657841 -2.31652,-8.180605 1.620831,-1.748688 -4.409952,1.965995 -7.785681,4.795619 -3.115996,2.611908 -3.134582,2.696573 -0.28504,1.298509 l 3.048293,-1.495577 -2.048293,4.902256 c -2.50641,5.998682 -2.505684,5.909925 -0.04829,5.909925 1.1,0 2,-0.6 2,-1.333333 z m 37.914267,-6 c 7.7e-4,-19.066667 0.18803,-26.68125 0.41614,-16.921297 0.22812,9.759951 0.22749,25.359951 -0.001,34.666665 -0.22893,9.30671 -0.41557,1.3213 -0.41481,-17.745368 z M 28.039483,105 c -2.207952,-3.85 -4.02009,-7.40957 -4.026971,-7.910151 -0.02065,-1.502037 5.620696,-2.830693 11.654155,-2.744803 3.807892,0.05421 5.666666,-0.489057 5.666666,-1.656204 0,-0.95528 0.949072,-2.101066 2.10905,-2.546192 3.201829,-1.228657 3.47428,-1.030802 2.557617,1.857348 -0.864627,2.724199 1.176364,3.744695 2.666667,1.333334 C 49.756,91.570752 52,91.623726 52,93.412025 c 0,0.776612 -0.75,0.961437 -1.666667,0.410723 -1.080958,-0.64942 -1.007104,-0.188648 0.210158,1.311152 1.116964,1.376221 1.386874,2.787211 0.666666,3.485087 C 48.122901,101.61051 34.082701,112 33.127249,112 c -0.590318,0 -2.879814,-3.15 -5.087766,-7 z M 132,86.666665 v -16 h 9.33333 c 5.33334,0 9.33334,0.571428 9.33334,1.333334 0,0.740741 -3.55556,1.333333 -8,1.333333 h -8 v 5.333333 5.333333 h 8 c 4.44444,0 8,0.592592 8,1.333334 0,0.740741 -3.55556,1.333333 -8,1.333333 h -8 v 6.666667 6.666666 h 8.66666 c 4.8889,0 8.66667,0.581192 8.66667,1.333332 0,0.77037 -4.22223,1.33333 -10,1.33333 H 132 Z M 153.70499,101 c 5.22984,-13.26787 13.61978,-30.333335 14.91286,-30.333335 1.2934,0 9.6877,16.970192 15.00435,30.333335 1.53059,3.84704 -3.30571,1.29234 -5.04824,-2.666669 -1.84663,-4.195486 -2.16179,-4.333333 -9.90729,-4.333333 -7.74551,0 -8.06067,0.137847 -9.9073,4.333333 -1.74385,3.962029 -6.56829,6.507369 -5.05438,2.666669 z m 20.87985,-12.000002 c -0.0451,-0.916666 -1.41873,-4.628022 -3.05273,-8.247458 l -2.9709,-6.580792 -2.94728,7.091928 c -1.621,3.900561 -2.94726,7.611918 -2.94726,8.24746 0,0.635541 2.7,1.155529 6,1.155529 3.95474,0 5.9721,-0.568124 5.91817,-1.666667 z M 188,86.666665 v -16 h 7.79335 c 8.70921,0 12.20665,2.358531 12.20665,8.231671 0,3.471394 -3.62141,7.768329 -6.54707,7.768329 -1.56577,0 -0.32225,2.571703 6.28603,13 1.67033,2.635875 1.65159,2.999995 -0.15443,2.999995 -1.13052,0 -3.94356,-3.299995 -6.2512,-7.333328 -3.2735,-5.721495 -4.90685,-7.333334 -7.43118,-7.333334 -3.03291,0 -3.23548,0.459144 -3.23548,7.333334 0,4.033333 -0.6,7.333328 -1.33334,7.333328 -0.81481,0 -1.33333,-6.222218 -1.33333,-15.999995 z m 15.95309,-5.245679 c 1.78506,-3.33541 1.76379,-3.51363 -0.715,-5.992415 -1.19365,-1.193652 -4.3492,-2.095239 -7.33333,-2.095239 -5.22223,0 -5.23809,0.01616 -5.23809,5.333333 v 5.333333 h 5.95309 c 4.52103,0 6.28511,-0.620397 7.33333,-2.579012 z m 17.38024,6.579012 V 73.333332 H 216 c -2.93333,0 -5.33333,-0.6 -5.33333,-1.333333 0,-0.790124 4.88889,-1.333334 12,-1.333334 7.1111,0 12,0.54321 12,1.333334 0,0.733333 -2.4,1.333333 -5.33334,1.333333 H 224 v 14.666666 c 0,8.88889 -0.52525,14.666662 -1.33333,14.666662 -0.80808,0 -1.33334,-5.777772 -1.33334,-14.666662 z M 240,86.666665 c 0,-9.777777 0.51852,-16 1.33333,-16 0.73334,0 1.33334,3 1.33334,6.666667 v 6.666666 H 251.33333 260 v -6.666666 c 0,-5.037037 0.48889,-6.666667 2,-6.666667 1.66743,0 2,2.679012 2,16.111111 0,12.293218 -0.39496,15.980824 -1.66667,15.561324 -1.00452,-0.33136 -1.82553,-3.55379 -2.06653,-8.111107 l -0.39988,-7.561328 h -8.60012 -8.60013 v 8 c 0,4.444444 -0.59259,7.999995 -1.33334,7.999995 -0.81481,0 -1.33333,-6.222218 -1.33333,-15.999995 z m 30.66667,0 v -16 h 8.73288 c 13.93469,0 20.60045,4.999272 20.60045,15.450197 0,10.352176 -8.2226,16.549798 -21.95717,16.549798 h -7.37616 z m 16.4988,8.063824 c 6.33781,-2.409633 7.7479,-10.293308 2.73729,-15.303921 -1.19167,-1.191661 -4.34933,-2.093236 -7.33133,-2.093236 h -5.2381 v 9.333333 c 0,9.000124 0.11587,9.333333 3.24654,9.333333 1.7856,0 4.7491,-0.57128 6.5856,-1.269509 z m 14.14816,6.936171 c -0.0107,-0.55 2.82173,-7.777058 6.29458,-16.060132 5.81692,-13.87392 6.57536,-15.029147 9.62904,-14.666667 2.84004,0.337119 4.2242,2.494012 9.66475,15.060137 3.49248,8.066667 6.36828,15.116662 6.39065,15.666662 0.0224,0.55 -1.47218,1 -3.32124,1 -2.29214,0 -3.84518,-1.06067 -4.88068,-3.333329 -1.31702,-2.890551 -2.38029,-3.333333 -8.00442,-3.333333 -5.69118,0 -6.64088,0.408322 -7.75298,3.333333 -0.88994,2.340739 -2.26974,3.333329 -4.63366,3.333329 -1.85148,0 -3.3752,-0.45 -3.38604,-1 z M 320,88.086798 c 0,-0.685594 -0.64659,-2.935594 -1.43687,-5 l -1.43686,-3.753466 -1.89647,4.486413 c -2.42111,5.727551 -2.47687,5.513587 1.43687,5.513587 1.83333,0 3.33333,-0.56094 3.33333,-1.246534 z m 20,1.246534 V 75.999999 h -4.66667 c -3.77777,0 -4.66666,-0.507936 -4.66666,-2.666667 0,-2.479532 0.88889,-2.666667 12.66666,-2.666667 11.63964,0 12.66667,0.209366 12.66667,2.58219 0,1.938644 -1.07997,2.686317 -4.33333,3 l -4.33334,0.41781 -0.38161,13 c -0.37644,12.823565 -0.4262,12.999995 -3.66667,12.999995 -3.27217,0 -3.28505,-0.0522 -3.28505,-13.333328 z m 18.16896,2.333333 c 2.60397,-6.05 5.65929,-13.282318 6.78961,-16.07182 1.69384,-4.18024 2.6314,-5.000598 5.33334,-4.666666 2.79288,0.34517 4.24769,2.633222 9.82649,15.454509 3.60155,8.277146 6.54827,15.327142 6.54827,15.666662 0,0.33953 -1.73496,0.61731 -3.85546,0.61731 -3.0005,0 -4.04097,-0.73917 -4.69206,-3.333329 -0.75292,-2.999827 -1.50395,-3.333333 -7.50647,-3.333333 -5.82061,0 -6.86323,0.424416 -8.18861,3.333333 -1.09395,2.400939 -2.56364,3.333329 -5.25419,3.333329 h -3.7354 z m 15.11712,-4 c -0.026,-0.916667 -0.8396,-3.096092 -1.80803,-4.843167 l -1.7608,-3.176499 -1.52529,4.375463 c -1.95924,5.620303 -2.06459,5.31087 1.80804,5.31087 1.83333,0 3.31207,-0.75 3.28608,-1.666667 z M 52.630677,95.941766 c -0.43343,-0.701305 0.447355,-1.275101 1.9573,-1.275101 3.21942,0 3.544207,0.741481 0.788056,1.799116 -1.076514,0.413097 -2.311925,0.177291 -2.745356,-0.524015 z M 23.462911,91.374914 C 23.008513,89.56445 23.259739,85.303193 24.021188,81.905453 27.854631,64.799865 40.044693,54.755374 57.042825,54.695948 68.794023,54.654868 77.404623,58.64583 84.198007,67.282217 l 2.706338,3.440552 -9.762844,4.522062 -9.762844,4.522061 -5.536849,-5.103689 C 48.085155,61.982762 38.671593,62.286011 40.462475,75.351917 c 0.490442,3.578172 0.294378,5.981415 -0.487982,5.981415 -0.719305,0 -1.331849,1.65 -1.36121,3.666666 l -0.05339,3.666667 -1.9892,-3.666667 c -1.130648,-2.084117 -3.121761,-3.666666 -4.613279,-3.666666 -2.211669,0 -2.624084,0.920573 -2.624084,5.857348 0,4.111148 -0.628753,6.098624 -2.109049,6.666666 -2.929285,1.124072 -2.841688,1.181886 -3.761373,-2.482432 z m 33.870422,0.734134 c 0,-0.673355 -0.333934,-2.094503 -0.742077,-3.158104 -1.116037,-2.908348 4.019684,-3.74721 5.771159,-0.942652 1.047649,1.677553 1.031665,2.73096 -0.05797,3.8206 -1.810604,1.810602 -4.971108,1.98872 -4.971108,0.280156 z m 8,-0.10905 c 0,-0.733333 0.6,-1.333333 1.333334,-1.333333 0.733333,0 1.333333,0.6 1.333333,1.333333 0,0.733334 -0.6,1.333334 -1.333333,1.333334 -0.733334,0 -1.333334,-0.6 -1.333334,-1.333334 z m -33.22807,-2.11111 c 0.06397,-1.553258 0.379921,-1.8692 0.805556,-0.805556 0.385161,0.9625 0.337792,2.1125 -0.105267,2.555556 -0.443056,0.443054 -0.758188,-0.344446 -0.700293,-1.75 z m 9.22807,-4.634246 c 0,-1.509945 0.6,-2.374536 1.333334,-1.92131 C 43.4,83.786557 44,85.021966 44,86.078688 c 0,1.056721 -0.6,1.92131 -1.333333,1.92131 -0.733334,0 -1.333334,-1.23541 -1.333334,-2.745356 z M 43.478107,81.30635 C 37.433408,66.19916 44.041007,62.215659 57.763939,72.693896 61.193772,75.312769 64,78.227331 64,79.1707 64,81.257769 54.991531,84.270994 53.92262,82.541462 52.446173,80.152521 48,81.24746 48,83.999998 c 0,4.366979 -2.227777,3.039914 -4.521893,-2.693648 z m 23.18856,4.026982 C 64.957471,84.228764 65.005937,84.037864 67,84.020416 c 1.283333,-0.01123 2.333333,0.579582 2.333333,1.312916 0,1.626146 -0.150382,1.626146 -2.666666,0 z"
         id="path11035" />
      <path
         style="fill:#595959;stroke-width:1.33333"
         d="M 42.983465,118.5181 C 32.986701,113.56979 22.762211,99.371121 26.502383,95.630949 c 0.724165,-0.724165 4.662368,-1.2866 8.751561,-1.249856 4.775069,0.04291 7.131321,-0.424389 6.586323,-1.306215 -0.466716,-0.755162 -0.02171,-1.896753 0.988913,-2.536868 3.015047,-1.909698 4.019129,-1.36877 2.551065,1.374334 -1.868565,3.491445 -1.740294,4.142125 0.636735,3.229974 1.109339,-0.425693 2.916737,-0.02725 4.016441,0.885418 2.466136,2.04671 0.297876,5.305594 -3.530014,5.305594 -1.37848,0 -2.503407,0.93408 -2.503407,2.07869 0,1.14328 -0.45,1.86415 -1,1.60194 -0.55,-0.26221 -2.611735,1.20238 -4.581635,3.25465 -5.038628,5.2493 -3.676121,4.66527 5.633558,-2.4148 7.522902,-5.72121 8.245678,-5.997787 10.45321,-4 2.851439,2.58052 4.161534,2.72751 4.161534,0.46692 0,-0.9236 -1.2,-2.428687 -2.666667,-3.344635 -3.289199,-2.054138 -3.465019,-4.316415 -0.333333,-4.289013 2.016968,0.01765 2.062164,0.215482 0.333333,1.45911 -1.601832,1.152272 -1.469109,1.244984 0.666667,0.46569 1.466666,-0.53515 5.066666,-1.059268 8,-1.164702 2.933333,-0.10544 6.020462,-0.620739 6.860286,-1.145118 1.845942,-1.152586 3.139714,1.82213 3.139714,7.219008 0,2.3069 -0.558486,3.62448 -1.333334,3.14559 C 72.6,104.21344 72,104.54797 72,105.41008 c 0,0.95299 -1.306721,1.31766 -3.333333,0.93025 -1.833334,-0.35046 -3.333334,-0.12041 -3.333334,0.51123 0,0.63164 2.07889,1.14844 4.619755,1.14844 5.167884,0 8.124681,-3.55401 6.697593,-8.050366 -1.135428,-3.577417 0.432699,-7.949636 2.851192,-7.949636 1.093862,0 1.618019,0.6 1.164794,1.333334 -0.487883,0.78941 1.032396,1.333333 3.726704,1.333333 h 4.550749 l -3.15884,-6.600408 c -1.737361,-3.630224 -3.746257,-6.963452 -4.464213,-7.407173 -0.717956,-0.443722 -3.362,0.7619 -5.875655,2.679157 -3.932977,2.999829 -4.478689,3.13568 -3.913456,0.974227 0.628515,-2.403444 7.743248,-5.893663 12.923885,-6.339968 1.350714,-0.11636 2.916035,-0.956175 3.478491,-1.866249 1.339768,-2.16779 2.732335,4.783714 2.732335,13.639449 0,4.08444 -1.082768,8.982399 -2.744575,12.41523 -3.171331,6.5511 -11.555357,14.59814 -18.026516,17.30196 -6.858736,2.86576 -20.157039,2.3989 -26.912111,-0.94479 z m 3.683202,-4.43941 c 0,-0.32339 -0.6,-0.9588 -1.333334,-1.41203 C 44.6,112.21344 44,112.47803 44,113.25464 c 0,0.77661 0.6,1.41202 1.333333,1.41202 0.733334,0 1.333334,-0.26458 1.333334,-0.58797 z m -9.699938,-8.74536 c -0.221129,-2.93557 -2.300062,-3.739 -2.300062,-0.88889 0,1.59072 1.182233,3.55556 2.139357,3.55556 0.198868,0 0.271185,-1.2 0.160705,-2.66667 z m 44.214235,-0.0942 c -2.139681,-1.3224 -3.113627,-0.62092 -1.889013,1.36054 0.49077,0.79409 1.51491,1.059 2.275864,0.58871 0.895826,-0.55365 0.759456,-1.2408 -0.386851,-1.94925 z m 4.131952,-3.5725 c -0.0603,-2.953491 -6.646249,-5.779468 -6.646249,-2.851847 0,0.651852 1.23541,1.185185 2.745356,1.185185 1.509945,0 2.374536,0.600002 1.92131,1.333332 -0.453225,0.73333 -0.188634,1.33333 0.587978,1.33333 0.776612,0 1.402834,-0.45 1.391605,-1 z M 115.2476,87.333332 c 7.7e-4,-19.066667 0.18803,-26.68125 0.41614,-16.921297 0.22812,9.759951 0.22749,25.359951 -0.001,34.666665 -0.22893,9.30671 -0.41557,1.3213 -0.41481,-17.745368 z M 132,86.666665 v -16 h 9.33333 c 5.33334,0 9.33334,0.571428 9.33334,1.333334 0,0.740741 -3.55556,1.333333 -8,1.333333 h -8 v 5.333333 5.333333 h 8 c 4.44444,0 8,0.592592 8,1.333334 0,0.740741 -3.55556,1.333333 -8,1.333333 h -8 v 6.666667 6.666666 h 8.66666 c 4.8889,0 8.66667,0.581192 8.66667,1.333332 0,0.77037 -4.22223,1.33333 -10,1.33333 H 132 Z M 153.70499,101 c 5.22984,-13.26787 13.61978,-30.333335 14.91286,-30.333335 1.2934,0 9.6877,16.970192 15.00435,30.333335 1.53059,3.84704 -3.30571,1.29234 -5.04824,-2.666669 -1.84663,-4.195486 -2.16179,-4.333333 -9.90729,-4.333333 -7.74551,0 -8.06067,0.137847 -9.9073,4.333333 -1.74385,3.962029 -6.56829,6.507369 -5.05438,2.666669 z m 20.87985,-12.000002 c -0.0451,-0.916666 -1.41873,-4.628022 -3.05273,-8.247458 l -2.9709,-6.580792 -2.94728,7.091928 c -1.621,3.900561 -2.94726,7.611918 -2.94726,8.24746 0,0.635541 2.7,1.155529 6,1.155529 3.95474,0 5.9721,-0.568124 5.91817,-1.666667 z M 188,86.666665 v -16 h 7.79335 c 8.70921,0 12.20665,2.358531 12.20665,8.231671 0,3.471394 -3.62141,7.768329 -6.54707,7.768329 -1.56577,0 -0.32225,2.571703 6.28603,13 1.67033,2.635875 1.65159,2.999995 -0.15443,2.999995 -1.13052,0 -3.94356,-3.299995 -6.2512,-7.333328 -3.2735,-5.721495 -4.90685,-7.333334 -7.43118,-7.333334 -3.03291,0 -3.23548,0.459144 -3.23548,7.333334 0,4.033333 -0.6,7.333328 -1.33334,7.333328 -0.81481,0 -1.33333,-6.222218 -1.33333,-15.999995 z m 15.95309,-5.245679 c 1.78506,-3.33541 1.76379,-3.51363 -0.715,-5.992415 -1.19365,-1.193652 -4.3492,-2.095239 -7.33333,-2.095239 -5.22223,0 -5.23809,0.01616 -5.23809,5.333333 v 5.333333 h 5.95309 c 4.52103,0 6.28511,-0.620397 7.33333,-2.579012 z m 17.38024,6.579012 V 73.333332 H 216 c -2.93333,0 -5.33333,-0.6 -5.33333,-1.333333 0,-0.790124 4.88889,-1.333334 12,-1.333334 7.1111,0 12,0.54321 12,1.333334 0,0.733333 -2.4,1.333333 -5.33334,1.333333 H 224 v 14.666666 c 0,8.88889 -0.52525,14.666662 -1.33333,14.666662 -0.80808,0 -1.33334,-5.777772 -1.33334,-14.666662 z M 240,86.666665 c 0,-9.777777 0.51852,-16 1.33333,-16 0.73334,0 1.33334,3 1.33334,6.666667 v 6.666666 H 251.33333 260 v -6.666666 c 0,-5.037037 0.48889,-6.666667 2,-6.666667 1.66743,0 2,2.679012 2,16.111111 0,12.293218 -0.39496,15.980824 -1.66667,15.561324 -1.00452,-0.33136 -1.82553,-3.55379 -2.06653,-8.111107 l -0.39988,-7.561328 h -8.60012 -8.60013 v 8 c 0,4.444444 -0.59259,7.999995 -1.33334,7.999995 -0.81481,0 -1.33333,-6.222218 -1.33333,-15.999995 z m 30.66667,0 v -16 h 8.73288 c 13.93469,0 20.60045,4.999272 20.60045,15.450197 0,10.352176 -8.2226,16.549798 -21.95717,16.549798 h -7.37616 z m 16.4988,8.063824 c 6.33781,-2.409633 7.7479,-10.293308 2.73729,-15.303921 -1.19167,-1.191661 -4.34933,-2.093236 -7.33133,-2.093236 h -5.2381 v 9.333333 c 0,9.000124 0.11587,9.333333 3.24654,9.333333 1.7856,0 4.7491,-0.57128 6.5856,-1.269509 z m 14.14816,6.936171 c -0.0107,-0.55 2.82173,-7.777058 6.29458,-16.060132 5.81692,-13.87392 6.57536,-15.029147 9.62904,-14.666667 2.84004,0.337119 4.2242,2.494012 9.66475,15.060137 3.49248,8.066667 6.36828,15.116662 6.39065,15.666662 0.0224,0.55 -1.47218,1 -3.32124,1 -2.29214,0 -3.84518,-1.06067 -4.88068,-3.333329 -1.31702,-2.890551 -2.38029,-3.333333 -8.00442,-3.333333 -5.69118,0 -6.64088,0.408322 -7.75298,3.333333 -0.88994,2.340739 -2.26974,3.333329 -4.63366,3.333329 -1.85148,0 -3.3752,-0.45 -3.38604,-1 z M 320,88.086798 c 0,-0.685594 -0.64659,-2.935594 -1.43687,-5 l -1.43686,-3.753466 -1.89647,4.486413 c -2.42111,5.727551 -2.47687,5.513587 1.43687,5.513587 1.83333,0 3.33333,-0.56094 3.33333,-1.246534 z m 20,1.246534 V 75.999999 h -4.66667 c -3.77777,0 -4.66666,-0.507936 -4.66666,-2.666667 0,-2.479532 0.88889,-2.666667 12.66666,-2.666667 11.63964,0 12.66667,0.209366 12.66667,2.58219 0,1.938644 -1.07997,2.686317 -4.33333,3 l -4.33334,0.41781 -0.38161,13 c -0.37644,12.823565 -0.4262,12.999995 -3.66667,12.999995 -3.27217,0 -3.28505,-0.0522 -3.28505,-13.333328 z m 18.16896,2.333333 c 2.60397,-6.05 5.65929,-13.282318 6.78961,-16.07182 1.69384,-4.18024 2.6314,-5.000598 5.33334,-4.666666 2.79288,0.34517 4.24769,2.633222 9.82649,15.454509 3.60155,8.277146 6.54827,15.327142 6.54827,15.666662 0,0.33953 -1.73496,0.61731 -3.85546,0.61731 -3.0005,0 -4.04097,-0.73917 -4.69206,-3.333329 -0.75292,-2.999827 -1.50395,-3.333333 -7.50647,-3.333333 -5.82061,0 -6.86323,0.424416 -8.18861,3.333333 -1.09395,2.400939 -2.56364,3.333329 -5.25419,3.333329 h -3.7354 z m 15.11712,-4 c -0.026,-0.916667 -0.8396,-3.096092 -1.80803,-4.843167 l -1.7608,-3.176499 -1.52529,4.375463 c -1.95924,5.620303 -2.06459,5.31087 1.80804,5.31087 1.83333,0 3.31207,-0.75 3.28608,-1.666667 z m -349.273055,0 c 0.0153,-8.224009 4.389015,-18.530226 10.151671,-23.921398 9.507081,-8.894217 24.898265,-11.553677 36.501971,-6.307215 6.362994,2.876944 14.666666,10.036335 14.666666,12.64554 0,0.858264 -4.044878,3.368359 -8.98862,5.577987 l -8.98862,4.017506 -7.344713,-6.712654 c -4.039592,-3.69196 -7.344713,-7.169755 -7.344713,-7.728432 0,-0.558678 -0.45,-1.465778 -1,-2.015778 -0.55,-0.55 -1,-0.33622 -1,0.475068 0,0.811288 -2.25,1.661288 -5,1.88889 l -5,0.41382 0.03357,7.666666 c 0.02201,5.026558 -0.508937,7.666667 -1.541841,7.666667 -0.950483,0 -1.300155,1.190036 -0.881498,3 l 0.693919,3 -2.227684,-3 c -1.225223,-1.65 -3.559513,-3 -5.187309,-3 -2.663038,0 -2.907143,0.550373 -2.435876,5.492068 0.349753,3.667512 -0.08149,5.875505 -1.298099,6.646249 -3.291567,2.085277 -3.822004,1.276844 -3.808827,-5.804984 z M 65.333333,59.999999 c 0,-0.733333 -0.264589,-1.333333 -0.587977,-1.333333 -0.323388,0 -0.958797,0.6 -1.412023,1.333333 -0.453225,0.733333 -0.188634,1.333333 0.587978,1.333333 0.776612,0 1.412022,-0.6 1.412022,-1.333333 z m -7.876864,30.333333 c -0.844453,-2.253346 -0.584874,-3.203571 1.042966,-3.817934 1.274746,-0.4811 2.344762,-0.06929 2.59833,1 0.237104,0.999864 1.029962,1.817934 1.761906,1.817934 0.731942,0 0.430805,0.9 -0.669195,2 -2.684929,2.684929 -3.410497,2.531662 -4.734007,-1 z m 15.897282,-2 c -0.01123,-1.65 0.579582,-3 1.312916,-3 1.670562,0 1.670562,1.414988 0,4 -1.045166,1.617278 -1.296407,1.425917 -1.312916,-1 z m -32,-3.333334 c 0.01651,-2.425917 0.26775,-2.617278 1.312916,-1 1.670562,2.585012 1.670562,4 0,4 -0.733334,0 -1.324146,-1.35 -1.312916,-3 z m 2.610342,-4 C 39.529032,71.229348 41.401144,65.628943 48.506243,67.412209 51.922501,68.269636 64,77.995859 64,79.889606 c 0,0.54797 -2.1,1.640818 -4.666667,2.42855 -2.625298,0.805726 -4.666666,0.903585 -4.666666,0.223708 0,-0.664692 -1.743828,-1.208532 -3.875174,-1.208532 -3.218734,0 -3.757046,0.451722 -3.177825,2.666666 1.2243,4.681732 -0.988277,2.862963 -3.649575,-3 z m 5.36924,-10.047618 c 0,-0.576191 -1.155949,-1.04762 -2.568774,-1.04762 -1.412827,0 -2.277416,0.471429 -1.921311,1.04762 0.356105,0.576191 1.512053,1.047619 2.568775,1.047619 1.056721,0 1.92131,-0.471428 1.92131,-1.047619 z"
         id="path11033" />
      <path
         style="fill:#0a3c8f;stroke-width:1.33333"
         d="m 44.666667,119.42181 c -2.2,-0.99393 -5.2,-2.77084 -6.666667,-3.9487 -2.652884,-2.13049 -2.650824,-2.15499 0.398489,-4.74048 1.685836,-1.42942 4.085836,-2.27242 5.333334,-1.87334 1.74644,0.55869 1.852058,0.4283 0.45916,-0.56685 -1.393428,-0.99553 -1.435759,-1.52313 -0.184262,-2.2966 0.90103,-0.55686 2.208294,-0.18567 2.934794,0.83334 1.031268,1.44648 1.158532,1.36238 0.598056,-0.39522 -0.447323,-1.40276 0.451732,-2.9952 2.418613,-4.28395 2.742476,-1.79694 3.331297,-1.80942 4.749465,-0.10063 C 55.598028,103.12222 56.853052,104 57.496593,104 59.298747,104 58.88172,100.30284 57,99.597445 c -3.020037,-1.132106 3.348997,-4.692425 7.462879,-4.171784 2.128693,0.269401 4.935398,-0.08017 6.237121,-0.776836 1.746104,-0.934485 2.576551,-0.719979 3.166719,0.817975 1.313756,3.423594 0.92655,10.10215 -0.533386,9.19986 C 72.6,104.21344 72,104.54797 72,105.41008 c 0,0.95299 -1.306721,1.31766 -3.333333,0.93025 -1.833334,-0.35046 -3.333334,-0.12041 -3.333334,0.51123 0,0.63164 2.07889,1.14844 4.619755,1.14844 5.167884,0 8.124681,-3.55401 6.697593,-8.050366 -1.135428,-3.577417 0.432699,-7.949636 2.851192,-7.949636 1.093862,0 1.618019,0.6 1.164794,1.333334 -0.487883,0.78941 1.032396,1.333333 3.726704,1.333333 h 4.550749 l -3.309808,-6.915855 -3.309807,-6.915856 3.116431,-2.523531 c 3.005556,-2.433752 3.150619,-2.436746 4.077368,-0.08415 2.055481,5.21795 1.191307,18.175412 -1.596212,23.933657 -3.171331,6.5511 -11.555357,14.59814 -18.026516,17.30196 -5.646108,2.3591 -19.967885,2.33578 -25.228909,-0.0411 z m 2,-5.34312 c 0,-0.32339 -0.6,-0.9588 -1.333334,-1.41203 C 44.6,112.21344 44,112.47803 44,113.25464 c 0,0.77661 0.6,1.41202 1.333333,1.41202 0.733334,0 1.333334,-0.26458 1.333334,-0.58797 z m 34.514297,-8.83953 c -2.139681,-1.32239 -3.113627,-0.62092 -1.889013,1.36055 0.49077,0.79408 1.51491,1.059 2.275864,0.5887 0.895826,-0.55365 0.759456,-1.24079 -0.386851,-1.94925 z m 4.131952,-3.5725 c -0.0603,-2.953491 -6.646249,-5.779468 -6.646249,-2.851847 0,0.651852 1.23541,1.185185 2.745356,1.185185 1.509945,0 2.374536,0.600002 1.92131,1.333332 -0.453225,0.73333 -0.188634,1.33333 0.587978,1.33333 0.776612,0 1.402834,-0.45 1.391605,-1 z m -55.091299,6.06549 c -1.84103,-2.41935 -3.748253,-6.00565 -4.238272,-7.969551 -0.799442,-3.204014 -0.42928,-3.698203 3.60427,-4.811921 2.472368,-0.682653 6.434314,-0.956589 8.804326,-0.608745 3.557094,0.522071 4.164871,0.256556 3.4826,-1.521412 -0.558114,-1.454427 -0.101542,-2.153856 1.405991,-2.153856 1.593565,0 2.000311,0.731568 1.421207,2.556165 -0.638174,2.010704 -0.28182,2.417704 1.669958,1.907303 1.36469,-0.356873 3.250395,0.277896 4.190456,1.410601 1.451042,1.748397 1.13489,2.311645 -2.093142,3.729086 -2.09129,0.91829 -5.163647,3.18325 -6.827463,5.03323 -2.502316,2.78231 -3.236,3.02897 -4.245356,1.42728 -0.671131,-1.06499 -0.924417,-2.41499 -0.562859,-3 0.361559,-0.58502 0.02197,-1.06367 -0.754644,-1.06367 -1.812882,0 -1.82682,3.05187 -0.02219,4.85651 0.964233,0.96424 0.796157,1.88256 -0.548862,2.99883 -1.5847,1.31518 -2.549916,0.80576 -5.28603,-2.78985 z M 132,85.999998 V 70.666665 h 9.33333 c 5.33334,0 9.33334,0.571428 9.33334,1.333334 0,0.740741 -3.55556,1.333333 -8,1.333333 h -8 v 5.333333 5.333333 H 142 c 4.03333,0 7.33333,0.6 7.33333,1.333334 0,0.733333 -3.3,1.333333 -7.33333,1.333333 h -7.33333 v 6.603044 6.603042 L 143,100.34614 l 8.33333,0.47338 -9.66666,0.2569 L 132,101.33333 Z m 22.66667,14.563492 c 0,-2.475309 12.80817,-29.896825 13.96436,-29.896825 1.12605,0 9.46104,17.549837 13.45642,28.333333 1.50811,4.070392 -1.6898,2.512312 -3.42078,-1.666666 -1.59131,-3.841756 -1.98692,-4 -10,-4 -8.01308,0 -8.4087,0.158244 -10,4 -1.43036,3.453188 -4,5.528278 -4,3.230158 z m 20.45685,-9.563492 c 0.80924,-1.31748 -4.79759,-15.198371 -6.24556,-15.462213 -0.87009,-0.158542 -7.54463,14.015749 -7.54463,16.022045 0,0.925844 13.20696,0.38969 13.79019,-0.559832 z m 12.87648,-5 V 70.666665 h 7.33333 c 5.55556,0 7.9798,0.646464 10,2.666667 3.85162,3.851608 3.42392,8.798122 -1,11.565716 -2.01666,1.261621 -3.8557,2.414496 -4.08676,2.561944 -0.23105,0.147446 1.38299,3.165 3.58676,6.705673 2.20378,3.540673 3.78274,6.661715 3.5088,6.935645 -1.10632,1.10632 -3.4049,-1.523428 -6.8265,-7.810054 -2.73852,-5.031555 -4.35708,-6.625591 -6.72754,-6.625591 -2.89465,0 -3.12142,0.532757 -3.12142,7.333333 0,4.033333 -0.6,7.333332 -1.33334,7.333332 -0.8116,0 -1.33333,-5.999998 -1.33333,-15.333332 z m 14.36999,-2.742272 c 6.17646,-4.326165 2.80886,-9.924394 -5.96999,-9.924394 h -5.73333 v 6 c 0,5.890666 0.0796,6 4.36998,6 2.40351,0 5.70351,-0.934023 7.33334,-2.075606 z m 18.96334,4.075606 v -14 H 216 c -2.93333,0 -5.33333,-0.6 -5.33333,-1.333333 0,-0.790124 4.88889,-1.333334 12,-1.333334 7.1111,0 12,0.54321 12,1.333334 0,0.733333 -2.4,1.333333 -5.33334,1.333333 H 224 v 14 c 0,8.444444 -0.52911,13.999998 -1.33333,13.999998 -0.80423,0 -1.33334,-5.555554 -1.33334,-13.999998 z M 240,85.999998 c 0,-9.333333 0.52173,-15.333333 1.33333,-15.333333 0.73334,0 1.33334,3 1.33334,6.666667 v 6.666666 h 9.26365 9.26365 l 0.48971,-6.999999 c 0.26933,-3.85 0.48724,0.2 0.48423,8.999999 -0.003,8.8 -0.22196,12.55 -0.48656,8.333334 l -0.4811,-7.666667 h -9.26678 -9.2668 v 7.333333 c 0,4.033333 -0.6,7.333332 -1.33334,7.333332 -0.8116,0 -1.33333,-5.999998 -1.33333,-15.333332 z m 30.66667,0 V 70.666665 l 7,0.0075 c 14.46756,0.01537 22.3149,5.254032 22.32834,14.905764 0.0147,10.555502 -6.6787,15.740921 -20.32834,15.748481 l -9,0.005 z m 19.58073,7.100915 c 3.05077,-2.866059 3.86561,-6.850995 2.25769,-11.041179 -1.0705,-2.789705 -7.42317,-6.059735 -11.77221,-6.059735 -3.34165,0 -3.39955,0.170284 -3.39955,9.999999 v 10 h 4.91407 c 3.21032,0 5.98399,-1.005137 8,-2.899085 z m 12.04776,5.899085 c 0.48296,-1.283333 3.35531,-8.033333 6.38297,-15 4.60599,-10.598382 5.99314,-12.666666 8.49516,-12.666666 2.53728,0 3.97123,2.272453 9.46518,15 l 6.47488,14.999998 h -3.74547 c -2.88317,0 -3.93807,-0.76741 -4.58207,-3.333332 -0.753,-3.000196 -1.50365,-3.333333 -7.51088,-3.333333 -5.89237,0 -6.82273,0.390501 -7.9416,3.333333 -0.88413,2.325452 -2.27254,3.333332 -4.59181,3.333332 -2.61183,0 -3.13625,-0.5002 -2.44636,-2.333332 z m 17.50419,-13.669117 c -1.97299,-5.659748 -3.31791,-5.963618 -5.0028,-1.130336 -0.80476,2.30856 -1.46322,4.407848 -1.46322,4.665084 0,0.257236 1.76879,0.467703 3.93064,0.467703 3.7889,0 3.88032,-0.144338 2.53538,-4.002451 z M 340,88.666665 V 75.999999 h -4 c -3.11111,0 -4,-0.592592 -4,-2.666667 0,-2.469136 0.88889,-2.666667 12,-2.666667 11.11111,0 12,0.197531 12,2.666667 0,2.158731 -0.88889,2.666667 -4.66667,2.666667 h -4.66666 v 12.666666 c 0,12.622225 -0.012,12.666665 -3.33334,12.666665 -3.32164,0 -3.33333,-0.0444 -3.33333,-12.666665 z m 14.88889,11.544955 c 0.24444,-0.616949 3.14444,-7.511186 6.44444,-15.320532 8.13694,-19.255788 9.4943,-19.247503 17.84202,0.108906 3.39978,7.883334 6.17616,14.783333 6.1697,15.333336 -0.007,0.55 -1.41541,1 -3.13102,1 -2.03339,0 -3.64806,-1.16045 -4.6381,-3.333336 -1.29582,-2.844029 -2.40854,-3.333333 -7.58034,-3.333333 -5.23886,0 -6.2336,0.452433 -7.32892,3.333333 -0.90471,2.379556 -2.26235,3.333336 -4.74478,3.333336 -1.9126,0 -3.27745,-0.50477 -3.033,-1.12172 z m 19.22983,-12.019522 c -0.38792,-0.627677 -1.36853,-2.877677 -2.17915,-5 l -1.47382,-3.858766 -1.8523,3.333333 c -2.85921,5.145372 -2.37273,6.666667 2.13191,6.666667 2.24328,0 3.76129,-0.513555 3.37336,-1.141234 z m -320.785387,7.8079 c 0,-0.733333 0.635411,-1.333333 1.412023,-1.333333 0.776612,0 1.041203,0.6 0.587977,1.333333 -0.453225,0.733334 -1.088634,1.333334 -1.412022,1.333334 -0.323388,0 -0.587978,-0.6 -0.587978,-1.333334 z m -29.320308,-8.45816 c 0.04527,-23.893489 25.631371,-39.95091 47.320308,-29.697451 7.183022,3.395777 14.787478,10.469424 13.498015,12.555818 -0.436309,0.705963 -4.675865,2.933686 -9.421236,4.950495 l -8.627947,3.666927 -7.057749,-6.345523 c -3.881761,-3.490039 -7.057749,-6.819005 -7.057749,-7.397704 0,-0.578699 -0.45,-1.502179 -1,-2.052179 -0.55,-0.55 -1,-0.33622 -1,0.475068 0,0.811288 -2.25,1.661288 -5,1.88889 l -5,0.41382 0.03357,7.666666 c 0.02201,5.026558 -0.508937,7.666667 -1.541841,7.666667 -0.950483,0 -1.300155,1.190036 -0.881498,3 l 0.693919,3 -2.227684,-3 c -1.225223,-1.65 -3.547981,-3 -5.161683,-3 -2.645181,0 -2.888489,0.572254 -2.471654,5.813265 0.396085,4.980119 0.06305,5.917685 -2.323726,6.541841 -2.560974,0.66971 -2.785021,0.1731 -2.773048,-6.1466 z M 65.333333,59.999999 c 0,-0.733333 -0.264589,-1.333333 -0.587977,-1.333333 -0.323388,0 -0.958797,0.6 -1.412023,1.333333 -0.453225,0.733333 -0.188634,1.333333 0.587978,1.333333 0.776612,0 1.412022,-0.6 1.412022,-1.333333 z m -7.189585,32.36597 c -1.367691,-1.367692 -0.897877,-5.699304 0.618157,-5.699304 0.785714,0 2.223251,0.79468 3.194527,1.765956 1.46572,1.46572 1.360625,2.019091 -0.618156,3.25486 -1.311261,0.818896 -2.7488,1.124216 -3.194528,0.678488 z m 15.210003,-3.287281 c -0.01123,-1.240055 0.579582,-2.625464 1.312916,-3.07869 1.687462,-1.042909 1.687462,0.722171 0,3.333334 -1.113866,1.723582 -1.295322,1.688389 -1.312916,-0.254644 z M 41.333333,85.412021 c 0,-3.21942 0.741482,-3.544207 1.799116,-0.788056 0.413098,1.076515 0.177291,2.311925 -0.524014,2.745356 -0.701306,0.433431 -1.275102,-0.447355 -1.275102,-1.9573 z m 2.144774,-5.439004 c -2.637824,-6.592572 -2.71239,-9.842086 -0.272311,-11.867172 2.930463,-2.432068 8.283107,-0.338226 15.169953,5.934166 l 6.290918,5.72963 -3.484148,1.346117 c -1.916282,0.740366 -5.97839,1.01157 -9.026907,0.602678 -4.748947,-0.636967 -5.422997,-0.431348 -4.706533,1.435728 0.459924,1.198542 0.23718,2.179168 -0.494987,2.179168 -0.732167,0 -2.29636,-2.412142 -3.475985,-5.360315 z m 5.855226,-9.020637 c 0,-0.576191 -1.155949,-1.04762 -2.568774,-1.04762 -1.412827,0 -2.277416,0.471429 -1.921311,1.04762 0.356105,0.576191 1.512053,1.047619 2.568775,1.047619 1.056721,0 1.92131,-0.471428 1.92131,-1.047619 z m 23.333334,11.714285 c 0.453225,-0.733333 1.424045,-1.333333 2.157378,-1.333333 0.733334,0 0.962514,0.6 0.509288,1.333333 -0.453225,0.733333 -1.424045,1.333333 -2.157378,1.333333 -0.733334,0 -0.962514,-0.6 -0.509288,-1.333333 z"
         id="path11031" />
      <path
         style="fill:#030303;stroke-width:1.33333"
         d="M 132,85.999998 V 70.666665 h 9.33333 c 5.33334,0 9.33334,0.571428 9.33334,1.333334 0,0.740741 -3.55556,1.333333 -8,1.333333 h -8 v 5.333333 5.333333 H 142 c 4.03333,0 7.33333,0.6 7.33333,1.333334 0,0.733333 -3.3,1.333333 -7.33333,1.333333 h -7.33333 v 6.603044 6.603042 L 143,100.34614 l 8.33333,0.47338 -9.66666,0.2569 L 132,101.33333 Z m 22.66667,14.563492 c 0,-2.475309 12.80817,-29.896825 13.96436,-29.896825 1.12605,0 9.46104,17.549837 13.45642,28.333333 1.50811,4.070392 -1.6898,2.512312 -3.42078,-1.666666 -1.59131,-3.841756 -1.98692,-4 -10,-4 -8.01308,0 -8.4087,0.158244 -10,4 -1.43036,3.453188 -4,5.528278 -4,3.230158 z m 20.45685,-9.563492 c 0.80924,-1.31748 -4.79759,-15.198371 -6.24556,-15.462213 -0.87009,-0.158542 -7.54463,14.015749 -7.54463,16.022045 0,0.925844 13.20696,0.38969 13.79019,-0.559832 z m 12.87648,-5 V 70.666665 h 7.33333 c 5.55556,0 7.9798,0.646464 10,2.666667 3.85162,3.851608 3.42392,8.798122 -1,11.565716 -2.01666,1.261621 -3.8557,2.414496 -4.08676,2.561944 -0.23105,0.147446 1.38299,3.165 3.58676,6.705673 2.20378,3.540673 3.78274,6.661715 3.5088,6.935645 -1.10632,1.10632 -3.4049,-1.523428 -6.8265,-7.810054 -2.73852,-5.031555 -4.35708,-6.625591 -6.72754,-6.625591 -2.89465,0 -3.12142,0.532757 -3.12142,7.333333 0,4.033333 -0.6,7.333332 -1.33334,7.333332 -0.8116,0 -1.33333,-5.999998 -1.33333,-15.333332 z m 14.36999,-2.742272 c 6.17646,-4.326165 2.80886,-9.924394 -5.96999,-9.924394 h -5.73333 v 6 c 0,5.890666 0.0796,6 4.36998,6 2.40351,0 5.70351,-0.934023 7.33334,-2.075606 z m 18.96334,4.075606 v -14 H 216 c -2.93333,0 -5.33333,-0.6 -5.33333,-1.333333 0,-0.790124 4.88889,-1.333334 12,-1.333334 7.1111,0 12,0.54321 12,1.333334 0,0.733333 -2.4,1.333333 -5.33334,1.333333 H 224 v 14 c 0,8.444444 -0.52911,13.999998 -1.33333,13.999998 -0.80423,0 -1.33334,-5.555554 -1.33334,-13.999998 z M 240,85.999998 c 0,-9.333333 0.52173,-15.333333 1.33333,-15.333333 0.73334,0 1.33334,3 1.33334,6.666667 v 6.666666 h 9.26365 9.26365 l 0.48971,-6.999999 c 0.26933,-3.85 0.48724,0.2 0.48423,8.999999 -0.003,8.8 -0.22196,12.55 -0.48656,8.333334 l -0.4811,-7.666667 h -9.26678 -9.2668 v 7.333333 c 0,4.033333 -0.6,7.333332 -1.33334,7.333332 -0.8116,0 -1.33333,-5.999998 -1.33333,-15.333332 z m 30.66667,0 V 70.666665 l 7,0.0075 c 14.46756,0.01537 22.3149,5.254032 22.32834,14.905764 0.0147,10.555502 -6.6787,15.740921 -20.32834,15.748481 l -9,0.005 z m 19.58073,7.100915 c 3.05077,-2.866059 3.86561,-6.850995 2.25769,-11.041179 -1.0705,-2.789705 -7.42317,-6.059735 -11.77221,-6.059735 -3.34165,0 -3.39955,0.170284 -3.39955,9.999999 v 10 h 4.91407 c 3.21032,0 5.98399,-1.005137 8,-2.899085 z m 12.04776,5.899085 c 0.48296,-1.283333 3.35531,-8.033333 6.38297,-15 4.60599,-10.598382 5.99314,-12.666666 8.49516,-12.666666 2.53728,0 3.97123,2.272453 9.46518,15 l 6.47488,14.999998 h -3.74547 c -2.88317,0 -3.93807,-0.76741 -4.58207,-3.333332 -0.753,-3.000196 -1.50365,-3.333333 -7.51088,-3.333333 -5.89237,0 -6.82273,0.390501 -7.9416,3.333333 -0.88413,2.325452 -2.27254,3.333332 -4.59181,3.333332 -2.61183,0 -3.13625,-0.5002 -2.44636,-2.333332 z m 17.50419,-13.669117 c -1.97299,-5.659748 -3.31791,-5.963618 -5.0028,-1.130336 -0.80476,2.30856 -1.46322,4.407848 -1.46322,4.665084 0,0.257236 1.76879,0.467703 3.93064,0.467703 3.7889,0 3.88032,-0.144338 2.53538,-4.002451 z M 340,88.666665 V 75.999999 h -4 c -3.11111,0 -4,-0.592592 -4,-2.666667 0,-2.469136 0.88889,-2.666667 12,-2.666667 11.11111,0 12,0.197531 12,2.666667 0,2.158731 -0.88889,2.666667 -4.66667,2.666667 h -4.66666 v 12.666666 c 0,12.622225 -0.012,12.666665 -3.33334,12.666665 -3.32164,0 -3.33333,-0.0444 -3.33333,-12.666665 z m 14.88889,11.544955 c 0.24444,-0.616949 3.14444,-7.511186 6.44444,-15.320532 8.13694,-19.255788 9.4943,-19.247503 17.84202,0.108906 3.39978,7.883334 6.17616,14.783333 6.1697,15.333336 -0.007,0.55 -1.41541,1 -3.13102,1 -2.03339,0 -3.64806,-1.16045 -4.6381,-3.333336 -1.29582,-2.844029 -2.40854,-3.333333 -7.58034,-3.333333 -5.23886,0 -6.2336,0.452433 -7.32892,3.333333 -0.90471,2.379556 -2.26235,3.333336 -4.74478,3.333336 -1.9126,0 -3.27745,-0.50477 -3.033,-1.12172 z m 19.22983,-12.019522 c -0.38792,-0.627677 -1.36853,-2.877677 -2.17915,-5 l -1.47382,-3.858766 -1.8523,3.333333 c -2.85921,5.145372 -2.37273,6.666667 2.13191,6.666667 2.24328,0 3.76129,-0.513555 3.37336,-1.141234 z"
         id="path11029" />
    </g>
  </g>
</svg>
