<?xml version="1.0" encoding="utf-8"?>
<!-- Generator: Adobe Illustrator 16.0.4, SVG Export Plug-In . SVG Version: 6.00 Build 0)  -->
<!DOCTYPE svg PUBLIC "-//W3C//DTD SVG 1.1//EN" "http://www.w3.org/Graphics/SVG/1.1/DTD/svg11.dtd">
<svg version="1.1"
	 id="svg8" xmlns:sodipodi="http://sodipodi.sourceforge.net/DTD/sodipodi-0.dtd" sodipodi:docname="eaton.svg" inkscape:version="0.92.3 (2405546, 2018-03-11)" xmlns:cc="http://creativecommons.org/ns#" xmlns:dc="http://purl.org/dc/elements/1.1/" xmlns:inkscape="http://www.inkscape.org/namespaces/inkscape" xmlns:rdf="http://www.w3.org/1999/02/22-rdf-syntax-ns#" xmlns:svg="http://www.w3.org/2000/svg"
	 xmlns="http://www.w3.org/2000/svg" xmlns:xlink="http://www.w3.org/1999/xlink" x="0px" y="0px" width="594px" height="470px"
	 viewBox="-103.89795 -201.77612 594 470" enable-background="new -103.89795 -201.77612 594 470" xml:space="preserve">
<sodipodi:namedview  units="px" inkscape:zoom="1.979899" borderopacity="1.0" pagecolor="#00ffff" showgrid="false" inkscape:cy="12.666744" bordercolor="#666666" fit-margin-left="0.5" inkscape:cx="79.010967" fit-margin-top="0.5" id="base" inkscape:window-maximized="1" inkscape:window-width="1920" inkscape:window-y="-9" fit-margin-right="0.5" inkscape:window-x="-9" fit-margin-bottom="0.5" inkscape:current-layer="layer1" inkscape:document-units="mm" inkscape:window-height="1001" inkscape:pageopacity="0" inkscape:pageshadow="2">
	</sodipodi:namedview>
<g id="layer1" transform="translate(-0.4050392,-183.33155)" inkscape:label="Layer 1" inkscape:groupmode="layer">
	<g id="path674-5">
		<path inkscape:connector-curvature="0" fill="#1175C7" d="M106.5481,201.92358l8.38867,30.18066H97.56079L106.5481,201.92358z
			 M91.29565,253.24487l-7.6333,25.03418h44.62549l-7.17725-25.03418H91.29565z M207.76978,183.83179h-85.66895v26.88477h27.02783
			v67.5625h43.49268c-2.68359-1.6543-21.14062-16.30762-21.14062-43.64844
			C171.48071,211.90112,185.27368,189.66675,207.76978,183.83179 M222.61841,254.09155
			c10.1084,0,18.22266-8.38867,18.22266-18.99121c0-10.53809-7.60645-20.07227-17.84473-20.07227
			c-10.29102,0-18.37891,9.53418-18.37891,20.07227C204.61743,245.70288,212.21118,254.09155,222.61841,254.09155
			 M312.46802,243.2019l-17.38965-59.37012h-44.52051v94.44727h27.80957v-59.2002h0.19531l17.23242,59.2002h44.89844v-94.44727
			h-28.05664v59.37012H312.46802z M48.37671,278.27905l8.03662-26.48047H26.62378v-8.01074h32.2251l7.65918-25.38672H26.62378
			v-7.68457h42.09863l8.12793-26.88477H-5.51001v94.44727H48.37671z"/>
	</g>
</g>
<g>
	<path d="M135.99512,124.75513c1.39111-1.42188,3.16113-2.13281,5.31006-2.13281c2.875,0,4.97705,0.95312,6.30664,2.85938
		c0.73438,1.07031,1.12842,2.14453,1.18262,3.22266h-3.60938c-0.22949-0.82812-0.52441-1.45312-0.88379-1.875
		c-0.64307-0.75-1.59619-1.125-2.85889-1.125c-1.28564,0-2.2998,0.5293-3.04248,1.58789
		c-0.74219,1.05859-1.11328,2.55664-1.11328,4.49414s0.3916,3.38867,1.1748,4.35352
		c0.78369,0.96484,1.77881,1.44727,2.98633,1.44727c1.23779,0,2.18164-0.41406,2.83154-1.24219
		c0.35889-0.44531,0.65723-1.11328,0.89404-2.00391h3.58594c-0.30908,1.88281-1.09961,3.41406-2.37109,4.59375
		s-2.8999,1.76953-4.88623,1.76953c-2.45801,0-4.39014-0.79688-5.79688-2.39062c-1.40674-1.60156-2.10986-3.79688-2.10986-6.58594
		C133.59521,128.71216,134.39502,126.38794,135.99512,124.75513z"/>
	<path d="M161.53271,122.95044h4.08984l-5.77734,10.79688v6.47656h-3.60938v-6.47656l-5.97656-10.79688h4.25391l3.58594,7.52344
		L161.53271,122.95044z"/>
	<path d="M179.14404,122.95044h5.19336v17.27344h-3.36328v-11.68359c0-0.33594,0.00391-0.80664,0.01172-1.41211
		s0.01172-1.07227,0.01172-1.40039l-3.27344,14.49609h-3.50781l-3.25-14.49609c0,0.32812,0.00391,0.79492,0.01172,1.40039
		s0.01172,1.07617,0.01172,1.41211v11.68359h-3.36328v-17.27344h5.25195l3.14453,13.58203L179.14404,122.95044z"/>
	<path d="M200.45068,126.00903h-9.14062v3.66797h8.39062v3h-8.39062v4.44141h9.5625v3.10547h-13.08984v-17.27344h12.66797V126.00903
		z"/>
</g>
</svg>
