<?xml version="1.0" encoding="UTF-8" standalone="no"?>
<svg
   version="1.1"
   id="svg4"
   width="56.132812"
   height="11.53125"
   xmlns="http://www.w3.org/2000/svg"
   xmlns:svg="http://www.w3.org/2000/svg">
  <defs
     id="defs8" />
  <g
     aria-label="Echopype"
     id="text2"
     transform="translate(-1.171875,9.1171875)">
    <path
       d="M 6.9199219,0 H 1.171875 v -8.7246094 h 5.7480469 v 1.03125 H 2.3320313 v 2.390625 h 4.5878906 v 1.03125 H 2.3320313 V -1.03125 h 4.5878906 z"
       id="path10" />
    <path
       d="M 13.511719,-0.41015625 Q 12.960938,-0.14648437 12.462891,0 q -0.492188,0.14648437 -1.048828,0.14648437 -0.708985,0 -1.300782,-0.20507812 Q 9.5214844,-0.26953125 9.0996094,-0.69140625 8.671875,-1.1132812 8.4375,-1.7578125 8.203125,-2.4023438 8.203125,-3.2636719 q 0,-1.6054687 0.8789063,-2.5195312 0.8847656,-0.9140625 2.3320317,-0.9140625 0.5625,0 1.101562,0.1582031 0.544922,0.1582031 0.996094,0.3867188 v 1.2246093 h -0.05859 Q 12.949223,-5.3203125 12.41016,-5.53125 q -0.533203,-0.2109375 -1.042968,-0.2109375 -0.9375,0 -1.4824224,0.6328125 -0.5390625,0.6269531 -0.5390625,1.8457031 0,1.1835938 0.5273438,1.8222657 0.5332031,0.63281245 1.4941411,0.63281245 0.333984,0 0.679687,-0.0878906 0.345703,-0.0878906 0.621094,-0.22851565 0.240234,-0.1230469 0.451172,-0.2578125 0.210937,-0.140625 0.333984,-0.2402344 h 0.05859 z"
       id="path12" />
    <path
       d="m 20.396484,0 h -1.101562 v -3.7265625 q 0,-0.4511719 -0.05273,-0.84375 -0.05273,-0.3984375 -0.193359,-0.6210937 -0.146484,-0.2460938 -0.421875,-0.3632813 -0.275391,-0.1230469 -0.714844,-0.1230469 -0.451172,0 -0.943359,0.2226563 -0.492188,0.2226562 -0.943359,0.5683594 V 0 h -1.101563 v -9.1171875 h 1.101563 v 3.2988281 q 0.515625,-0.4277343 1.066406,-0.6679687 0.550781,-0.2402344 1.130859,-0.2402344 1.060547,0 1.617188,0.6386719 0.55664,0.6386719 0.55664,1.8398437 z"
       id="path14" />
    <path
       d="m 28.095703,-3.2695313 q 0,1.5996094 -0.820312,2.52539068 -0.820313,0.92578124 -2.197266,0.92578124 -1.388672,0 -2.208984,-0.92578124 -0.814454,-0.92578128 -0.814454,-2.52539068 0,-1.5996093 0.814454,-2.5253906 0.820312,-0.9316406 2.208984,-0.9316406 1.376953,0 2.197266,0.9316406 0.820312,0.9257813 0.820312,2.5253906 z m -1.136719,0 q 0,-1.2714843 -0.498047,-1.8867187 -0.498046,-0.6210937 -1.382812,-0.6210937 -0.896484,0 -1.394531,0.6210937 -0.492188,0.6152344 -0.492188,1.8867187 0,1.2304688 0.498047,1.8691407 0.498047,0.63281248 1.388672,0.63281248 0.878906,0 1.376953,-0.62695308 0.503906,-0.6328126 0.503906,-1.8750001 z"
       id="path16" />
    <path
       d="m 35.560547,-3.3515625 q 0,0.796875 -0.228516,1.4589844 -0.228515,0.65625 -0.644531,1.11328123 -0.386719,0.43359374 -0.914063,0.67382812 -0.521484,0.234375 -1.107421,0.234375 -0.509766,0 -0.925782,-0.11132812 Q 31.330078,-0.09375 30.902344,-0.328125 v 2.7421875 h -1.101563 v -8.9589844 h 1.101563 v 0.6855469 q 0.439453,-0.3691406 0.984375,-0.6152344 0.550781,-0.2519531 1.171875,-0.2519531 1.183593,0 1.839843,0.8964844 0.66211,0.890625 0.66211,2.4785156 z m -1.136719,0.029297 q 0,-1.1835938 -0.404297,-1.7695313 -0.404297,-0.5859375 -1.242187,-0.5859375 -0.47461,0 -0.955078,0.2050782 -0.480469,0.2050781 -0.919922,0.5390625 v 3.7089843 q 0.46875,0.2109375 0.802734,0.2871094 0.339844,0.0761719 0.767578,0.0761719 0.919922,0 1.435547,-0.6210938 0.515625,-0.6210937 0.515625,-1.8398437 z"
       id="path18" />
    <path
       d="m 42.908203,-6.5449219 -3.820312,8.9589844 h -1.177735 l 1.21875,-2.73046875 -2.607422,-6.22851565 h 1.195313 l 2.009765,4.8515625 2.027344,-4.8515625 z"
       id="path20" />
    <path
       d="m 50.109375,-3.3515625 q 0,0.796875 -0.228516,1.4589844 -0.228515,0.65625 -0.644531,1.11328123 -0.386719,0.43359374 -0.914062,0.67382812 -0.521485,0.234375 -1.107422,0.234375 -0.509766,0 -0.925782,-0.11132812 Q 45.878906,-0.09375 45.451172,-0.328125 v 2.7421875 h -1.101563 v -8.9589844 h 1.101563 v 0.6855469 q 0.439453,-0.3691406 0.984375,-0.6152344 0.550781,-0.2519531 1.171875,-0.2519531 1.183594,0 1.839844,0.8964844 0.662109,0.890625 0.662109,2.4785156 z m -1.136719,0.029297 q 0,-1.1835938 -0.404297,-1.7695313 -0.404297,-0.5859375 -1.242187,-0.5859375 -0.47461,0 -0.955078,0.2050782 -0.480469,0.2050781 -0.919922,0.5390625 v 3.7089843 q 0.46875,0.2109375 0.802734,0.2871094 0.339844,0.0761719 0.767578,0.0761719 0.919922,0 1.435547,-0.6210938 0.515625,-0.6210937 0.515625,-1.8398437 z"
       id="path22" />
    <path
       d="m 57.304687,-3.1582031 h -4.822265 q 0,0.6035156 0.18164,1.0546875 0.181641,0.4453125 0.498047,0.7324219 0.304688,0.28125 0.720703,0.42187495 0.421875,0.140625 0.925782,0.140625 0.667968,0 1.341797,-0.26367185 0.679687,-0.2695313 0.966796,-0.5273438 h 0.05859 v 1.2011719 q -0.55664,0.234375 -1.136719,0.39257812 -0.580078,0.15820313 -1.21875,0.15820313 -1.628906,0 -2.542968,-0.87890625 -0.914063,-0.8847656 -0.914063,-2.5078125 0,-1.6054687 0.873047,-2.5488281 0.878906,-0.9433594 2.308594,-0.9433594 1.324219,0 2.039062,0.7734375 0.720703,0.7734375 0.720703,2.1972656 z m -1.072265,-0.84375 q -0.0059,-0.8671875 -0.439453,-1.3417969 -0.427735,-0.4746094 -1.306641,-0.4746094 -0.884766,0 -1.412109,0.5214844 -0.521485,0.5214844 -0.591797,1.2949219 z"
       id="path24" />
  </g>
</svg>
