<svg xmlns="http://www.w3.org/2000/svg" role="img" viewBox="-5.24 28.26 272.74 109.24"><g fill="#2366ab"><path d="M100.13078 37.36062v7.07071h-20.1852v8.19104h18.52328v6.52911H79.9456v9.36744h20.6154v7.07071H71.5436V37.36078zm27.8845 10.19776c-.50417-.80291-1.12658-1.50625-1.87352-2.1162-.75314-.60375-1.59961-1.08301-2.54577-1.41912-.94609-.3361-1.93567-.51038-2.96899-.51038-1.89216 0-3.49799.36723-4.81748 1.10169-1.32576.72823-2.39632 1.71163-3.21787 2.94396-.8216 1.2324-1.4129 2.63294-1.79258 4.20132-.37344 1.56851-.56017 3.19302-.56017 4.87358 0 1.60582.18673 3.16815.56017 4.6806.37968 1.5187.97099 2.88183 1.79258 4.09552.8216 1.21373 1.89216 2.19093 3.21787 2.91911 1.31954.73446 2.92532 1.09547 4.81748 1.09547 2.57064 0 4.57481-.78426 6.01875-2.35282 1.45025-1.56851 2.3278-3.64124 2.65158-6.21171h8.1351c-.21162 2.3901-.76556 4.54995-1.6557 6.4794-.89629 1.92945-2.0727 3.5665-3.53543 4.92329s-3.17438 2.39631-5.1349 3.10585c-1.96689.7158-4.12658 1.07056-6.4794 1.07056-2.93153 0-5.56447-.51038-7.89848-1.52493-2.34039-1.01455-4.31333-2.41496-5.91916-4.20132-1.59962-1.78636-2.83211-3.88391-3.69095-6.29265-.85894-2.40875-1.2822-5.00423-1.2822-7.78647 0-2.85697.42326-5.50838 1.2822-7.95457.85893-2.43982 2.09133-4.57481 3.69095-6.39846 1.60583-1.81743 3.57893-3.24289 5.91916-4.28226 2.33401-1.03321 4.96695-1.54982 7.89848-1.54982 2.10377 0 4.09552.30497 5.96904.90873 1.87352.60997 3.54786 1.49381 5.02909 2.65158 1.48137 1.15771 2.7075 2.59549 3.6661 4.30712.96475 1.71784 1.57473 3.67852 1.82364 5.8943h-8.14132c-.13687-.96475-.46059-1.84866-.95852-2.65158m24.60235-10.19755l8.93801 26.28473h.1058l8.46494-26.28473h11.82606v38.22885h-7.86741V48.4953h-.1058l-9.36744 27.09417h-6.4794L148.76468 48.763h-.11201v26.82648h-7.86741V37.36062zm62.65248 38.22567l-6.4794-26.02341h-.1058l-6.36739 26.0234h-8.5148l-10.12065-38.22884h8.40901l6.04998 26.01703h.1058l6.6413-26.01703h7.8674l6.52913 26.3405h.11201l6.26159-26.3405h8.24712l-10.28237 38.22885z"/><path d="M262.49824 37.36062v7.07071h-18.4675v8.83222h16.00888v6.52928h-16.00889v15.79712h-8.40885V37.3611zM.21823 58.77592h18.79734v-5.0914H.21823c-.305 1.70542-.2801 3.44207 0 5.0914m62.59034 1.76867c-1.92323 10.48776-11.2161 18.26833-21.8726 18.26833-3.09964 0-6.39846-.78425-9.19934-1.98553-2.9379 1.36933-6.18063 1.98553-9.48567 1.98553-10.64964 0-19.93662-7.63716-21.84073-18.1807l13.712-.02485c1.50626 3.41083 4.97317 5.62056 8.69519 5.62056 3.99593 0 7.71811-2.71993 9.06246-6.46697 1.2884 3.84041 5.00423 6.46697 9.05625 6.46697 3.80918 0 7.33219-2.20957 8.84464-5.65163z"/><path d="M62.80857 51.90836c-1.92323-10.50018-11.2161-18.26833-21.8726-18.26833-3.09964 0-6.39846.78426-9.19934 2.01661-2.9379-1.40044-6.18063-2.0166-9.48567-2.0166-10.64964 0-19.93662 7.63094-21.84073 18.18069l13.712.02485c1.50626-3.41083 4.97317-5.61418 8.69519-5.61418 3.99593 0 7.71811 2.7075 9.06246 6.44833 1.2884-3.82799 5.00423-6.44833 9.05625-6.44833 3.80918 0 7.33219 2.20335 8.84464 5.6392z"/></g><path d="M59.3643 94.90931V87.0853H26.97728v44.16567h33.46943v-7.93482h-24.4522V111.9551h21.45214v-7.6706H35.99451v-9.3752zM43.40091 87.0853zm28.52615 4.61941c-4.14213 4.1677-6.20467 10.11668-6.20467 17.82139 0 7.13366 1.81537 12.75025 5.45465 16.84125 3.63076 4.07394 8.62518 6.11092 14.97474 6.11092 5.1393 0 9.34962-1.50856 12.63093-4.52566 3.28984-3.00859 5.32682-6.92912 6.12797-11.74456h-9.13655c-.62217 2.27561-1.39775 3.98872-2.33527 5.12226-1.69606 2.1222-4.1677 3.17904-7.4064 3.17904-3.15348 0-5.75296-1.23582-7.79846-3.69893-2.05402-2.47165-3.07676-6.1791-3.07676-11.13091 0-4.9518.9716-8.78711 2.9063-11.48887 1.94323-2.71028 4.58532-4.06542 7.94335-4.06542 3.29836 0 5.77852.96308 7.45753 2.88074.93752 1.07388 1.7131 2.67619 2.30971 4.78987h9.2303c-.14489-2.7529-1.15911-5.49728-3.05972-8.24165-3.43473-4.86657-8.86382-7.30412-16.29578-7.30412-5.55694 0-10.13373 1.81537-13.72187 5.45465zm13.44913-5.96603zm35.8047 9.01723h10.73034c1.99436 0 3.49439.26421 4.49157.7841 1.78128.91196 2.66766 2.71029 2.66766 5.38648 0 2.48016-.92047 4.1336-2.7529 4.97737-1.03979.47729-2.59948.71593-4.67907.71593h-10.4576zm19.79018-6.52854c-1.66197-.69888-4.04838-1.08241-7.1422-1.14207h-21.6652v44.16567h9.01723v-17.31854h9.5286c2.7188 0 4.56827.46876 5.55693 1.40628.98866.93752 1.50855 2.82108 1.54264 5.63364l.05966 4.10804c.02557 1.29548.15342 2.5654.39206 3.80121.11932.60513.32387 1.38923.5966 2.36937h10.1593v-1.10798c-.87786-.53694-1.44037-1.3807-1.67901-2.51425-.15342-.72445-.23865-2.08812-.23865-4.10804v-2.96597c0-3.09381-.42614-5.395-1.2699-6.90355-.8523-1.50855-2.29267-2.6762-4.32964-3.49439 2.43755-.83524 4.18474-2.2671 5.24158-4.29554 1.05684-2.02845 1.58526-4.091 1.58526-6.18763 0-1.73867-.27273-3.28984-.83524-4.64498-.56251-1.36366-1.32105-2.59948-2.27562-3.71598-1.15911-1.36367-2.57391-2.38641-4.2444-3.0853zm27.37555 26.33576l5.6933-17.3782 5.51432 17.3782zm.57104-27.47783l-15.76737 44.16567h9.64793l3.05972-9.0769h16.27021l2.84665 9.0769h10.00589l-15.63952-44.16567zm5.14783 0zm35.48083 7.67061h8.50586c4.19326 0 6.9973 1.20173 8.40358 3.6137 1.4148 2.40347 2.11368 5.85524 2.11368 10.34681 0 3.25575-.46876 6.0683-1.40628 8.42063-1.72163 4.29554-4.75578 6.4433-9.11098 6.4433h-8.50586zm16.90091-6.70752c-1.8239-.60513-4.09951-.92048-6.83536-.96309h-19.02312v44.16567h19.02312c6.67343 0 11.60819-2.74438 14.80428-8.24165 2.35232-4.07394 3.537-9.0428 3.537-14.91507 0-2.31823-.28126-4.75578-.84377-7.31265-.55399-2.55687-1.61083-4.93476-3.14495-7.13367-1.91765-2.7188-4.42338-4.58532-7.5172-5.59954z"/></svg>
