<?xml version="1.0" encoding="UTF-8"?>
<svg id="Logo" xmlns="http://www.w3.org/2000/svg" viewBox="0 0 510.24 97.94">
  <defs>
    <style>
      .cls-1 {
        fill: #0094ff;
      }

      .cls-1, .cls-2 {
        stroke-width: 0px;
      }

      .cls-2 {
        fill: #003778;
      }
    </style>
  </defs>
  <g>
    <polygon class="cls-1" points="12.53 50.51 12.53 25.51 0 25.51 0 63.04 37.47 63.04 37.47 50.51 12.53 50.51"/>
    <polygon class="cls-2" points="62.42 .46 0 .46 0 19.23 12.42 19.23 12.42 13.09 50 13.09 50 50.51 43.71 50.51 43.71 63.04 62.42 63.04 62.42 .46"/>
    <polygon class="cls-2" points="79.02 1.24 98.09 1.24 98.09 47.21 125.41 47.21 125.41 63.04 79.02 63.04 79.02 1.24"/>
    <polygon class="cls-2" points="133.55 1.24 181.33 1.24 181.33 17.06 152.57 17.06 152.57 24.79 177.21 24.79 177.21 39.48 152.57 39.48 152.57 63.04 133.5 63.04 133.5 1.24 133.55 1.24"/>
    <polygon class="cls-1" points="230.51 63.35 195.92 63.35 195.92 1.08 230.51 1.08 230.51 5.1 200.41 5.1 200.41 28.66 228.81 28.66 228.81 32.68 200.41 32.68 200.41 59.43 230.51 59.43 230.51 63.35"/>
    <path class="cls-1" d="M290.71,63.35h-4.48l-37.42-55.31h-.31c.31,6.55.52,11.55.52,14.9v40.36h-4.23V1.08h4.38l37.42,55.26h.26c-.26-5.1-.41-10-.41-14.54V1.08h4.28v62.27h0Z"/>
    <polygon class="cls-1" points="343.13 63.35 308.6 63.35 308.6 1.08 343.13 1.08 343.13 5.1 313.08 5.1 313.08 28.66 341.48 28.66 341.48 32.68 313.08 32.68 313.08 59.43 343.13 59.43 343.13 63.35"/>
    <path class="cls-1" d="M361.84,36.24v27.16h-4.38V1.08h15.05c7.83,0,13.61,1.44,17.42,4.28s5.62,7.16,5.62,12.89c0,4.23-1.08,7.73-3.35,10.62-2.27,2.89-5.62,4.95-10.15,6.13l17.16,28.35h-5.36l-16.34-27.16h-15.62v.05h-.05ZM361.84,32.52h12.01c5.31,0,9.48-1.19,12.37-3.51,2.94-2.37,4.38-5.77,4.38-10.36s-1.44-8.14-4.28-10.36c-2.83-2.22-7.58-3.3-14.12-3.3h-10.36v27.52h0Z"/>
    <path class="cls-1" d="M434.21,31.24h22.78v27.73c-5.98,2.53-12.68,3.76-20.21,3.76-9.74,0-17.22-2.68-22.37-8.14-5.1-5.46-7.83-13.09-7.83-23.04,0-6.24,1.29-11.7,3.87-16.49,2.58-4.79,6.29-8.5,11.08-11.08,4.79-2.63,10.36-3.97,16.55-3.97,6.7,0,12.78,1.24,18.14,3.71l-1.75,3.87c-5.36-2.42-10.93-3.71-16.65-3.71-8.14,0-14.64,2.42-19.33,7.42-4.69,5-7.16,11.6-7.16,20,0,9.17,2.27,16.08,6.8,20.67,4.54,4.64,11.19,6.91,20,6.91,5.72,0,10.52-.77,14.43-2.37v-21.29h-18.4v-3.97c.15,0,.05,0,.05,0Z"/>
    <polygon class="cls-1" points="487.1 34.95 505.5 1.08 510.24 1.08 489.26 39.07 489.26 63.04 484.73 63.04 484.73 39.43 463.75 1.08 468.75 1.08 487.1 34.95"/>
  </g>
  <g>
    <path class="cls-2" d="M308.58,76.81h15.43v3.81h-10.9v4.42h10v3.53h-10v5.06h11.13v3.81h-15.66v-20.63Z"/>
    <path class="cls-2" d="M337.63,97.45h-5.12l-6.71-20.63h4.68l4.6,14.51h.06l4.65-14.51h4.68l-6.85,20.63Z"/>
    <path class="cls-2" d="M368.61,83.75c-.29-2.05-2.25-3.61-4.51-3.61-4.08,0-5.61,3.47-5.61,7.08s1.53,6.91,5.61,6.91c2.77,0,4.33-1.91,4.68-4.62h4.39c-.46,5.14-4.02,8.44-9.07,8.44-6.39,0-10.14-4.77-10.14-10.72s3.76-10.9,10.14-10.9c4.54,0,8.35,2.66,8.9,7.43h-4.39Z"/>
    <path class="cls-2" d="M376.43,76.81h4.54v7.92h8.35v-7.92h4.54v20.63h-4.54v-8.9h-8.35v8.9h-4.54v-20.63Z"/>
    <path class="cls-2" d="M403.84,76.81h4.65l7.72,20.63h-4.71l-1.56-4.59h-7.72l-1.62,4.59h-4.59l7.83-20.63ZM403.41,89.47h5.35l-2.6-7.57h-.06l-2.69,7.57Z"/>
    <path class="cls-2" d="M418.34,76.81h11.13c3.7,0,6.04,2.57,6.04,5.69,0,2.43-.98,4.25-3.27,5.17v.06c2.22.58,2.86,2.75,3,4.83.09,1.3.06,3.73.87,4.88h-4.54c-.55-1.3-.49-3.29-.72-4.94-.32-2.17-1.16-3.12-3.44-3.12h-4.54v8.06h-4.54v-20.63ZM422.88,86.15h4.97c2.02,0,3.12-.87,3.12-2.95s-1.1-2.86-3.12-2.86h-4.97v5.81Z"/>
    <path class="cls-2" d="M454.09,95.11c-1.59,2.05-3.67,2.83-5.66,2.83-6.39,0-10.14-4.77-10.14-10.72s3.76-10.9,10.14-10.9c4.22,0,8.21,2.6,8.7,7.28h-4.33c-.52-2.28-2.23-3.47-4.36-3.47-4.08,0-5.61,3.47-5.61,7.08s1.53,6.91,5.61,6.91c2.95,0,4.65-1.59,4.91-4.45h-4.57v-3.38h8.67v11.16h-2.89l-.46-2.34Z"/>
    <path class="cls-2" d="M461.48,76.81h4.54v20.63h-4.54v-20.63Z"/>
    <path class="cls-2" d="M470.25,76.81h4.51l8.61,13.84h.06v-13.84h4.25v20.63h-4.54l-8.58-13.81h-.06v13.81h-4.25v-20.63Z"/>
    <path class="cls-2" d="M506.79,95.11c-1.59,2.05-3.67,2.83-5.66,2.83-6.39,0-10.14-4.77-10.14-10.72s3.76-10.9,10.14-10.9c4.22,0,8.21,2.6,8.7,7.28h-4.33c-.52-2.28-2.23-3.47-4.36-3.47-4.08,0-5.61,3.47-5.61,7.08s1.53,6.91,5.61,6.91c2.95,0,4.65-1.59,4.91-4.45h-4.57v-3.38h8.67v11.16h-2.89l-.46-2.34Z"/>
  </g>
</svg>
