<?xml version="1.0" encoding="UTF-8"?>
<svg id="Layer_1" data-name="Layer 1" xmlns="http://www.w3.org/2000/svg" width="43.18mm" height="21.6mm" viewBox="0 0 122.39 61.23">
  <defs>
    <style>
      .cls-1 {
        fill: #c72127;
      }

      .cls-1, .cls-2 {
        stroke-width: 0px;
      }

      .cls-2 {
        fill: #fff;
        opacity: 0;
      }
    </style>
  </defs>
  <rect class="cls-2" width="122.39" height="61.23"/>
  <g>
    <g>
      <path class="cls-1" d="m28.04,19.59v26.32h-8.22v-26.32h-9.61v-6.84h27.45v6.84h-9.61Z"/>
      <path class="cls-1" d="m68.96,38.87c-.69,1.64-1.67,3.04-2.96,4.22-1.28,1.17-2.83,2.08-4.64,2.74-1.81.66-3.82.98-6.03.98s-4.26-.33-6.06-.98c-1.79-.66-3.32-1.57-4.57-2.74-1.25-1.17-2.21-2.58-2.88-4.22-.67-1.64-1.01-3.46-1.01-5.46V12.76h8.17v20c0,.91.12,1.76.36,2.58.24.81.61,1.54,1.11,2.18.5.64,1.15,1.15,1.97,1.52s1.8.56,2.96.56,2.14-.19,2.96-.56,1.48-.88,1.99-1.52c.51-.64.88-1.37,1.11-2.18.22-.81.34-1.67.34-2.58V12.76h8.22v20.66c0,2-.34,3.82-1.03,5.46Z"/>
    </g>
    <polygon class="cls-1" points="75.08 51.02 91.75 10.2 85.79 10.2 69.13 51.02 75.08 51.02"/>
    <path class="cls-1" d="m99.84,21.97c-6.86,0-12.42,5.56-12.42,12.42s5.56,12.42,12.42,12.42c4.4,0,8.9-1.93,11.32-5.39l-5.63-2.3c-1.5,1.66-3.55,2.32-5.69,2.32-3.16,0-5.83-2.08-6.72-4.94h18.96c.12-.68.18-1.39.18-2.11,0-6.86-5.56-12.42-12.42-12.42Zm0,5.37c2.94,0,5.46,1.81,6.52,4.37h-13.03c1.05-2.56,3.57-4.37,6.52-4.37Z"/>
  </g>
</svg>