<?xml version="1.0" encoding="UTF-8" standalone="no"?>
<!-- Created with Inkscape (http://www.inkscape.org/) -->

<svg
   version="1.1"
   id="svg567"
   width="165.81818"
   height="192"
   viewBox="0 0 165.81818 192"
   sodipodi:docname="eixport.svg"
   inkscape:version="1.2.2 (b0a84865, 2022-12-01)"
   xmlns:inkscape="http://www.inkscape.org/namespaces/inkscape"
   xmlns:sodipodi="http://sodipodi.sourceforge.net/DTD/sodipodi-0.dtd"
   xmlns="http://www.w3.org/2000/svg"
   xmlns:svg="http://www.w3.org/2000/svg">
  <defs
     id="defs571" />
  <sodipodi:namedview
     id="namedview569"
     pagecolor="#ffffff"
     bordercolor="#666666"
     borderopacity="1.0"
     inkscape:showpageshadow="2"
     inkscape:pageopacity="0.0"
     inkscape:pagecheckerboard="0"
     inkscape:deskcolor="#d1d1d1"
     showgrid="false"
     inkscape:zoom="1.2291667"
     inkscape:cx="82.169492"
     inkscape:cy="96"
     inkscape:window-width="729"
     inkscape:window-height="480"
     inkscape:window-x="0"
     inkscape:window-y="25"
     inkscape:window-maximized="0"
     inkscape:current-layer="g573" />
  <g
     inkscape:groupmode="layer"
     inkscape:label="Image"
     id="g573">
    <g
       id="g694">
      <path
         style="fill:#b2dceb;stroke-width:0.436364"
         d="m 77.672726,189.27906 c -2.52,-1.47387 -20.978181,-12.15055 -41.018181,-23.72596 L 0.21818182,144.5069 0.11154705,96.144358 0.0049123,47.781818 40.816068,24.218182 C 63.262201,11.258182 82.062915,0.59721085 82.595427,0.52713521 83.457368,0.41370895 101.45624,10.639674 156.65454,42.603429 l 8.94546,5.180056 0.11099,48.276201 0.11099,48.276204 -3.82008,2.18224 c -2.10105,1.20023 -20.6934,11.92466 -41.31633,23.83205 -20.62295,11.9074 -37.706583,21.64055 -37.963641,21.62922 -0.257062,-0.0113 -2.529203,-1.22648 -5.049203,-2.70034 z M 123.00776,164.72727 162.31843,142.03636 162.21376,96.048825 162.10909,50.061286 122.48046,27.178868 82.851839,4.2964492 74.648534,9.020952 C 70.136713,11.619429 52.28972,21.894545 34.988544,31.854545 L 3.5318638,49.963636 3.5113865,96.024545 3.4909091,142.08545 42.872727,164.85548 c 21.66,12.52351 39.706389,22.72337 40.103087,22.66636 0.396703,-0.057 18.411076,-10.31457 40.031946,-22.79457 z m -17.73503,-17.30306 -2.72728,-1.75833 -0.008,-3.56021 -0.008,-3.56022 -2.82874,-1.6841 -2.82874,-1.68411 v -3.55349 -3.5535 l -2.655927,-1.6602 -2.655923,-1.6602 -2.82658,1.77226 -2.826576,1.77226 -1.826588,-1.24624 c -3.578535,-2.44156 -3.486004,-2.4319 -6.265274,-0.65402 C 76.435108,127.27735 75.098875,128 74.84643,128 c -0.252445,0 -1.577394,-0.74257 -2.944325,-1.65016 l -2.485326,-1.65017 -2.814354,1.77743 -2.814353,1.77742 -2.657686,-1.71774 -2.657686,-1.71775 v -3.46131 -3.46131 l -2.836363,-1.79132 -2.836364,-1.79133 0.0076,-3.59324 0.0076,-3.59325 2.781054,-1.65542 2.781051,-1.65543 2.736458,1.73022 2.736454,1.73023 2.656686,-1.68755 2.656687,-1.68755 0.127204,-3.54338 0.127204,-3.543389 2.81825,-1.796714 2.818251,-1.796719 0.0048,-3.519875 0.0048,-3.519875 2.613377,-1.617508 2.613377,-1.617509 v -3.503009 -3.503009 l 2.836364,-1.791326 2.836364,-1.791325 -0.0076,-3.560884 -0.0076,-3.560884 -2.781055,-1.655424 -2.78105,-1.655429 -2.736458,1.730221 -2.736454,1.730226 -2.656686,-1.687667 -2.656687,-1.687667 -0.113633,-3.623494 -0.113629,-3.623494 2.840902,-1.684106 c 3.181684,-1.886103 3.658176,-2.897712 1.364923,-2.897712 -1.336193,0 -1.651078,-0.268691 -3.323982,-2.836363 -1.016378,-1.56 -1.998197,-2.836364 -2.181818,-2.836364 -0.183622,0 -1.16544,1.276364 -2.181819,2.836364 -1.672904,2.567672 -1.987789,2.836363 -3.323982,2.836363 -0.811811,0 -1.476018,-0.09891 -1.476018,-0.219809 0,-0.120895 1.174102,-1.91352 2.60911,-3.983616 1.435013,-2.070096 2.483097,-3.98391 2.329078,-4.25292 -0.154019,-0.26901 -1.341644,-2.010928 -2.639167,-3.870928 l -2.35913,-3.381818 h 1.671256 c 1.59034,0 1.759051,0.1414 3.484599,2.920566 l 1.813339,2.920565 1.861947,-2.920565 c 1.760779,-2.761883 1.951797,-2.920566 3.515677,-2.920566 h 1.653726 l -2.606579,3.725672 c -1.43362,2.049119 -2.606583,3.809195 -2.606583,3.911281 0,0.102086 1.129091,1.791853 2.509091,3.755036 l 2.509091,3.569428 0.128265,-2.617235 c 0.111037,-2.265709 0.272212,-2.69427 1.2,-3.190807 1.026497,-0.549365 1.071735,-0.754648 1.071735,-4.863475 v -4.2899 h 1.527273 c 1.224523,0 1.527272,0.169068 1.527272,0.852893 0,0.787022 0.08272,0.770171 1.071077,-0.218182 0.873242,-0.873245 1.507152,-1.071074 3.432061,-1.071074 2.746184,0 4.406286,1.030458 5.367922,3.331977 0.736198,1.761974 0.78621,7.078101 0.08849,9.406878 -0.520102,1.735946 -2.529963,3.842963 -3.66576,3.842963 -1.260611,0 -0.548749,0.820586 2.2153,2.553639 l 2.836364,1.778396 v 3.4933 3.4933 l 2.509091,1.609938 c 1.379999,0.885469 2.705454,1.609937 2.945454,1.609937 0.24,0 1.577463,-0.732152 2.972143,-1.627008 l 2.53578,-1.627012 2.70059,1.687139 2.70058,1.687143 0.12578,3.520499 0.12578,3.520499 -2.85305,1.78886 -2.85306,1.788859 v 3.499955 3.499955 l -2.836361,1.791325 -2.836364,1.791325 v 3.461311 3.46131 l -2.657686,1.717741 -2.657685,1.717746 -2.80632,-1.772352 -2.80632,-1.772352 -2.826904,1.841799 -2.826903,1.841804 v 3.458512 3.45851 l -2.613377,1.6175 -2.613378,1.61751 -0.0048,3.60542 -0.0048,3.60542 2.492732,1.59458 c 1.370998,0.87702 2.699276,1.59458 2.951721,1.59458 0.252445,0 1.577393,-0.74257 2.944324,-1.65016 l 2.485327,-1.65017 2.814353,1.77743 2.814353,1.77742 2.703574,-1.7474 2.703574,-1.7474 2.782852,1.6565 2.782858,1.65651 0.008,3.55126 0.008,3.55126 2.83636,1.77839 2.83637,1.7784 v 3.49995 3.49996 l 2.83636,1.79132 2.83636,1.79133 v 3.38977 3.38977 l -2.7161,1.69838 c -1.49386,0.93412 -2.81932,1.73537 -2.94546,1.78057 -0.12614,0.0452 -1.45662,-0.70908 -2.95662,-1.67615 z M 87.202681,46.452196 c 0.649859,-1.42628 0.656335,-6.809356 0.0099,-8.228126 -0.935904,-2.054093 -4.626288,-2.390817 -5.827816,-0.531751 -0.329114,0.509225 -0.723678,1.436072 -0.876811,2.059661 -0.253152,1.030891 -0.0189,1.288328 2.581008,2.836363 2.706218,1.61134 2.85984,1.790245 2.867053,3.33893 0.0089,1.897444 0.52272,2.113819 1.246669,0.524923 z m -59.619398,79.999144 -2.743989,-1.76659 0.125807,-3.49568 0.125808,-3.49568 2.726742,-1.72251 2.726743,-1.72251 2.7691,1.74884 2.769101,1.74885 2.733662,-1.72845 2.733662,-1.72846 2.781052,1.65543 2.781055,1.65542 0.0076,3.58659 0.0076,3.58659 -2.50909,1.60994 c -1.38,0.88547 -2.712818,1.6115 -2.961816,1.61341 -0.248999,0.002 -1.593695,-0.7264 -2.988212,-1.61846 l -2.535488,-1.62193 -2.818807,1.76738 c -1.550344,0.97206 -2.856558,1.75097 -2.902697,1.7309 -0.04614,-0.0201 -1.318685,-0.83146 -2.827879,-1.80308 z M 55.511607,74.139247 52.799999,72.415196 v -3.496128 -3.496124 l -2.853054,-1.78886 -2.853055,-1.788859 0.125782,-3.520499 0.125782,-3.520499 2.730471,-1.705833 2.730467,-1.705828 2.83317,1.845879 2.833165,1.845884 v 3.458509 3.458509 l 2.613377,1.617508 2.613377,1.617509 0.0048,3.58659 0.0048,3.586591 -2.290909,1.456407 c -1.26,0.80102 -2.49432,1.578113 -2.742938,1.726874 -0.248614,0.148761 -1.67225,-0.505353 -3.163636,-1.453579 z M 41.846348,49.627667 c -2.196689,-1.467487 -3.008629,-3.437642 -3.008629,-7.300394 0,-3.86275 0.81194,-5.832909 3.008629,-7.300393 1.971926,-1.31733 5.74559,-1.369065 7.815385,-0.107143 1.693488,1.032493 3.11489,3.852661 3.128684,6.207536 l 0.0096,1.636363 h -5.512001 -5.512 l 0.238657,1.779325 c 0.287142,2.140805 1.213888,3.266383 2.980239,3.619654 1.515386,0.303077 4.031764,-0.608155 4.629631,-1.676483 0.29461,-0.526437 0.721802,-0.643287 1.571834,-0.429944 1.363274,0.342161 1.355463,0.314151 0.531953,1.906638 -1.375867,2.66064 -6.97844,3.604517 -9.881964,1.664841 z m 7.899106,-9.894243 c 0,-0.466616 -0.470068,-1.394881 -1.044598,-2.06281 -1.488746,-1.730771 -4.276603,-1.730771 -5.765351,0 -0.574528,0.667929 -1.044596,1.596194 -1.044596,2.06281 0,0.777439 0.328455,0.848394 3.927272,0.848394 3.598818,0 3.927273,-0.07095 3.927273,-0.848394 z m 47.345454,10.468454 c -2.400894,-0.993077 -3.765347,-3.772569 -3.789905,-7.720335 -0.02116,-3.399542 0.623384,-5.347408 2.301373,-6.955022 1.236235,-1.184389 1.563643,-1.271976 4.754754,-1.271976 3.04939,0 3.55741,0.120234 4.6094,1.09091 1.73808,1.603714 2.37901,3.510925 2.37825,7.076893 -0.001,5.534517 -2.28246,8.220833 -6.93658,8.168173 -1.344514,-0.01523 -2.837292,-0.190102 -3.317292,-0.388643 z M 103.2,47.072513 c 0.74491,-0.718856 0.87273,-1.413857 0.87273,-4.74524 0,-3.468359 -0.10959,-4.012619 -0.98403,-4.887053 -1.48018,-1.48018 -4.233674,-1.367052 -5.60774,0.230394 -0.906851,1.054277 -1.044597,1.658731 -1.044597,4.583898 0,3.606599 0.580638,5.035852 2.3376,5.754041 1.279577,0.523047 3.372807,0.08036 4.426037,-0.93604 z m 18.36702,2.597272 c -0.55326,-0.789888 -0.69429,-2.212504 -0.69429,-7.003242 0,-5.721088 -0.0422,-6.011998 -0.87273,-6.011998 -0.64,0 -0.87273,-0.290909 -0.87273,-1.090909 0,-0.796502 0.23328,-1.090909 0.86442,-1.090909 0.58834,0 0.94838,-0.383246 1.12735,-1.2 0.46811,-2.136354 0.58305,-2.290909 1.70363,-2.290909 0.99779,0 1.1046,0.168775 1.1046,1.745455 0,1.648485 0.0727,1.745454 1.30909,1.745454 1.10546,0 1.30909,0.169697 1.30909,1.090909 0,0.921212 -0.20363,1.090909 -1.30909,1.090909 h -1.30909 v 5.626042 c 0,5.995718 0.14257,6.379125 2.17451,5.847761 0.83359,-0.21799 0.93201,-0.09442 0.80572,1.011665 -0.13559,1.187533 -0.27332,1.267492 -2.39502,1.390503 -1.92811,0.111788 -2.3508,-0.01174 -2.94546,-0.860731 z M 55.854545,42.327273 v -7.854546 h 1.527273 1.527272 v 7.854546 7.854545 h -1.527272 -1.527273 z m 54.545455,0 v -7.854546 h 1.52727 c 1.13734,0 1.52727,0.186537 1.52727,0.73061 0,0.620391 0.15236,0.587476 1.00995,-0.218182 0.60059,-0.564225 1.57336,-0.948791 2.4,-0.948791 1.25555,0 1.39005,0.127478 1.39005,1.317404 0,1.166381 -0.11801,1.287784 -1.0295,1.059017 -0.72551,-0.182093 -1.40195,0.06188 -2.2909,0.826255 -1.2591,1.082653 -1.26169,1.095525 -1.41332,7.013709 l -0.1519,5.929069 H 111.88446 110.4 Z M 55.854545,30.109091 c 0,-1.205195 0.121213,-1.309091 1.527273,-1.309091 1.406059,0 1.527272,0.103896 1.527272,1.309091 0,1.205195 -0.121213,1.309091 -1.527272,1.309091 -1.40606,0 -1.527273,-0.103896 -1.527273,-1.309091 z"
         id="path708" />
      <path
         style="fill:#649cc8;stroke-width:0.436364"
         d="M 41.343479,168.14766 -0.00379218,144.2856 0.10719482,96.033709 0.21818182,47.781818 41.223605,24.109091 C 63.776587,11.089091 82.529314,0.44196336 82.896331,0.44880746 83.263347,0.45565156 102.02182,11.127187 124.58182,24.163331 L 165.6,47.865412 l 0.111,48.036219 0.111,48.036219 -1.20191,0.83784 c -1.28812,0.89794 -80.662204,46.74777 -81.455714,47.05227 -0.260492,0.1 -19.0799,-10.55617 -41.820897,-23.6803 z m 81.383791,-3.19613 39.6,-22.83124 -0.018,-46.078329 -0.018,-46.078325 -38.20471,-22.036363 C 103.07402,15.807273 85.157576,5.5292876 84.272294,5.0873057 L 82.662689,4.2837023 42.967708,27.198119 3.2727272,50.112537 3.1616334,95.978893 3.0505396,141.84525 l 1.614754,0.96829 c 6.8750634,4.12261 78.0733044,45.11909 78.2437964,45.05336 0.12,-0.0463 18.03818,-10.35818 39.81818,-22.91537 z m -17.47138,-17.53797 -2.7441,-1.76897 0.12592,-3.50287 0.12593,-3.50287 2.70113,-1.70632 2.70114,-1.70632 2.8625,1.80782 2.8625,1.80784 v 3.38977 3.38977 l -2.71611,1.69838 c -1.49386,0.93412 -2.81931,1.73537 -2.94545,1.78057 -0.12615,0.0452 -1.4642,-0.71386 -2.97346,-1.6868 z m -66.335806,-20.883 -2.701903,-1.70838 0.0048,-3.61109 0.0048,-3.61109 2.667767,-1.65139 2.667767,-1.6514 2.774349,1.6514 2.774352,1.65139 0.0076,3.58659 0.0076,3.58659 -2.29091,1.45641 c -1.26,0.80102 -2.498689,1.58081 -2.752642,1.73287 -0.253954,0.15206 -1.67759,-0.4923 -3.163636,-1.4319 z m 22.210328,0.006 -2.657685,-1.71774 v -3.46131 -3.46132 l -2.836364,-1.79132 -2.836364,-1.79133 0.0076,-3.59324 0.0076,-3.59325 2.781055,-1.65542 2.78105,-1.65543 2.736458,1.73022 2.736454,1.73023 2.656686,-1.68755 2.656687,-1.68755 0.127204,-3.54338 0.127205,-3.543387 2.81825,-1.796715 2.81825,-1.796718 0.0048,-3.519875 0.0048,-3.519875 2.613377,-1.617508 2.613378,-1.617509 v -3.503009 -3.50301 l 2.819171,-1.780468 2.819175,-1.780468 0.126279,-3.551446 0.126284,-3.551446 2.70058,-1.687143 2.700585,-1.687139 2.535779,1.627012 c 1.394683,0.894855 2.732146,1.627008 2.972146,1.627008 0.24,0 1.577464,-0.732153 2.972148,-1.627008 l 2.53578,-1.627012 2.70059,1.687139 2.70058,1.687143 0.12578,3.520499 0.12578,3.520499 -2.85305,1.788859 -2.85306,1.78886 v 3.499955 3.499955 l -2.836366,1.791325 -2.836363,1.791325 v 3.461311 3.46131 l -2.657686,1.717741 -2.657686,1.717746 -2.80632,-1.772352 -2.80632,-1.772352 -2.826903,1.841799 -2.826903,1.841804 v 3.45851 3.45851 l -2.613378,1.61751 -2.613377,1.6175 -0.0048,3.60542 -0.0048,3.60542 2.492731,1.59459 c 1.370998,0.87701 2.699276,1.59457 2.951721,1.59457 0.252445,0 1.577629,-0.74273 2.944848,-1.65051 l 2.485855,-1.65052 2.744242,1.73358 2.744239,1.73358 0.125782,3.4941 0.125782,3.49409 -2.881013,1.80639 -2.881012,1.80639 -1.826588,-1.24624 c -3.578535,-2.44156 -3.486004,-2.43189 -6.265274,-0.65402 -1.380724,0.88324 -2.716957,1.60589 -2.969402,1.60589 -0.252445,0 -1.577393,-0.74257 -2.944324,-1.65016 l -2.485327,-1.65017 -2.814353,1.77743 -2.814354,1.77742 -2.657685,-1.71774 z m -5.618805,-52.397553 -2.711608,-1.724051 0.01239,-3.589419 0.01239,-3.589413 2.496715,-1.527273 c 1.373193,-0.84 2.69308,-1.527273 2.93308,-1.527273 0.24,0 1.565454,0.684057 2.945454,1.52013 l 2.509091,1.520129 v 3.593734 3.593734 l -2.290909,1.456407 c -1.26,0.80102 -2.49432,1.578113 -2.742938,1.726874 -0.248614,0.148761 -1.67225,-0.505353 -3.163636,-1.453579 z m 16.597483,-10.516176 -2.727273,-1.739006 0.0076,-3.560216 0.0076,-3.560213 2.82874,-1.684106 c 3.160975,-1.881923 3.6418,-2.897712 1.371605,-2.897712 -1.330595,0 -1.62353,-0.265217 -3.373767,-3.054545 -1.054159,-1.68 -2.018461,-3.052447 -2.142891,-3.049881 -0.124429,0.0026 -1.109869,1.375012 -2.189869,3.049881 -1.777523,2.756592 -2.100493,3.045656 -3.407572,3.04988 -1.663444,0.0054 -1.748077,0.25262 1.514858,-4.425412 1.280994,-1.836545 2.329078,-3.475737 2.329078,-3.64265 0,-0.166914 -1.08,-1.836004 -2.4,-3.709091 -1.32,-1.873087 -2.4,-3.522985 -2.4,-3.666442 0,-0.143457 0.596884,-0.260831 1.326406,-0.260831 1.156128,0 1.558542,0.364121 3.13467,2.836364 0.994547,1.56 1.925686,2.836364 2.069197,2.836364 0.143516,0 1.040187,-1.275898 1.992603,-2.835329 1.558594,-2.55195 1.873409,-2.835432 3.149851,-2.836364 0.78,-5.67e-4 1.418182,0.08149 1.418182,0.182355 0,0.100865 -1.098109,1.777513 -2.440241,3.725885 -1.342133,1.948372 -2.342326,3.780392 -2.222649,4.071156 0.119677,0.290763 1.315968,2.09435 2.658423,4.007975 l 2.440831,3.479315 v -2.860124 c 0,-2.6042 0.09761,-2.912365 1.090909,-3.44396 1.050065,-0.56198 1.090909,-0.744443 1.090909,-4.873737 v -4.2899 h 1.279684 c 0.901798,0 1.362519,0.260989 1.560196,0.883814 0.2734,0.861399 0.313728,0.855866 1.590162,-0.218182 2.415054,-2.032137 6.56146,-1.197202 8.108025,1.632664 0.584011,1.068607 0.771024,2.416276 0.771024,5.55625 0,4.842493 -0.699029,6.600977 -3.074265,7.733646 -0.829156,0.395398 -1.507554,0.861295 -1.507554,1.03533 0,0.174035 -1.276363,1.122523 -2.836363,2.107754 l -2.836364,1.791325 v 3.454442 c 0,3.802582 0.123452,3.613685 -3.927272,6.009133 L 74.83629,65.361836 Z M 87.650386,44.634537 C 88.16814,41.359249 87.624902,37.995015 86.420792,37.02 c -2.104521,-1.704138 -5.412471,-0.310287 -5.952336,2.508099 -0.245062,1.279364 -0.115279,1.431189 2.611025,3.054546 2.84736,1.695435 2.868965,1.722895 2.876531,3.656318 0.0069,1.749321 0.07579,1.879881 0.675845,1.279828 0.367522,-0.367523 0.825861,-1.665438 1.018529,-2.884254 z m -45.329922,5.187722 c -4.699603,-2.460122 -4.699603,-12.529851 0,-14.989972 1.878298,-0.983239 4.847464,-1.024645 6.806711,-0.09492 1.906442,0.904666 3.101995,2.875565 3.481994,5.740165 l 0.303264,2.286106 H 47.14882 41.385202 l 0.295687,1.418182 c 0.39649,1.901651 1.344248,3.320854 2.599704,3.892879 1.488707,0.678301 3.970215,0.08067 4.976391,-1.198477 0.669984,-0.851743 1.105222,-1.029391 1.982549,-0.809197 0.618257,0.155175 1.124103,0.43073 1.124103,0.612344 0,0.67159 -1.861388,2.667264 -3.071407,3.292988 -1.717475,0.88814 -5.128699,0.8147 -6.971765,-0.150096 z m 7.42499,-9.874454 c 0,-1.958679 -1.884833,-3.729623 -3.969473,-3.729623 -0.740627,0 -3.448709,1.124683 -3.448709,1.432268 0,0.05542 -0.182656,0.737652 -0.405903,1.516067 l -0.405903,1.415301 h 4.114996 c 3.307632,0 4.114992,-0.124393 4.114992,-0.634013 z m 47.127272,9.906064 c -0.985414,-0.49227 -1.886531,-1.459636 -2.539867,-2.726596 -0.871392,-1.689818 -0.989324,-2.455379 -0.845721,-5.490088 0.133632,-2.823998 0.369988,-3.8117 1.186551,-4.958461 1.830851,-2.571188 6.061111,-3.436534 9.180851,-1.878046 4.70363,2.349727 4.70826,12.560494 0.007,15.021581 -1.92147,1.00584 -5.010465,1.019808 -6.988624,0.03159 z m 5.907544,-2.412035 c 2.57276,-2.213001 2.23189,-9.484571 -0.50302,-10.730683 -2.26385,-1.031478 -4.598887,-0.241846 -5.484121,1.854545 -0.739754,1.75186 -0.738916,5.773252 0.0017,7.526937 1.012193,2.397181 3.987521,3.067846 5.985571,1.349201 z m 19.57596,2.853666 c -1.17496,-0.81213 -1.4835,-2.463426 -1.4835,-7.93954 0,-5.410505 -0.0445,-5.701415 -0.87273,-5.701415 -0.64,0 -0.87273,-0.290909 -0.87273,-1.090909 0,-0.805618 0.23182,-1.090909 0.88642,-1.090909 0.90382,0 1.02412,-0.185532 1.48545,-2.290909 0.17896,-0.816753 0.53901,-1.2 1.12735,-1.2 0.71758,0 0.86442,0.296505 0.86442,1.745455 0,1.703896 0.0363,1.745454 1.52727,1.745454 1.33818,0 1.52727,0.135065 1.52727,1.090909 0,0.955844 -0.18909,1.090909 -1.52727,1.090909 h -1.52727 v 5.046869 c 0,5.762762 0.32154,6.73495 2.22752,6.73495 1.12353,0 1.30296,0.148712 1.18464,0.981818 -0.11806,0.831299 -0.44047,0.999246 -2.10307,1.095499 -1.08,0.06252 -2.17969,-0.03565 -2.44377,-0.218181 z M 55.854545,42.327273 v -7.854546 h 1.527273 1.527272 v 7.854546 7.854545 h -1.527272 -1.527273 z m 54.981815,1.363636 c 0,-3.57 -0.12272,-7.104545 -0.27272,-7.854545 -0.25891,-1.294546 -0.20364,-1.363637 1.0909,-1.363637 1.07273,0 1.36364,0.186182 1.36364,0.872728 0,1.124941 0.16931,1.100108 1.4876,-0.218182 0.68603,-0.686025 1.58413,-1.090909 2.41984,-1.090909 1.12661,0 1.32892,0.166078 1.32892,1.090909 0,0.880181 -0.21627,1.090909 -1.11959,1.090909 -2.96966,0 -3.68041,1.697964 -3.68041,8.792387 v 5.171249 h -1.30909 -1.30909 z M 55.854545,30.109091 c 0,-1.205195 0.121213,-1.309091 1.527273,-1.309091 1.406059,0 1.527272,0.103896 1.527272,1.309091 0,1.205195 -0.121213,1.309091 -1.527272,1.309091 -1.40606,0 -1.527273,-0.103896 -1.527273,-1.309091 z"
         id="path706" />
      <path
         style="fill:#4774b4;stroke-width:0.436364"
         d="M 40.907835,167.86532 -0.00251042,144.21818 0.1078357,96.030991 0.21818182,47.843799 41.236363,24.134542 C 67.499153,8.95417 82.568491,0.48469615 83.127272,0.59043949 83.607272,0.68127412 102.36,11.370385 124.8,24.344019 l 40.8,23.588423 0.111,47.978767 c 0.088,38.053671 -0.002,48.070231 -0.43637,48.420931 -1.89839,1.53354 -81.78618,47.22659 -82.532803,47.20591 -0.508005,-0.0141 -19.3333,-10.66681 -41.833992,-23.67273 z m 81.572225,-2.67474 39.62903,-22.88216 0.10405,-46.172388 0.10404,-46.172396 -39.31502,-22.690909 C 101.37891,14.792727 83.364811,4.5372079 82.970844,4.4826847 82.576878,4.428161 64.483636,14.657501 42.763636,27.21455 L 3.2727272,50.045551 3.1639484,96.040957 3.0551695,142.03636 l 39.8178695,22.998 c 21.899827,12.64889 39.853895,23.00708 39.897929,23.01818 0.04403,0.0111 17.913122,-10.27678 39.709092,-22.86196 z m -17.22417,-17.77702 -2.7441,-1.76897 0.12592,-3.50287 0.12593,-3.50287 2.70113,-1.70632 2.70114,-1.70632 2.8625,1.80782 2.8625,1.80784 v 3.38977 3.38977 l -2.71611,1.69838 c -1.49386,0.93412 -2.81931,1.73537 -2.94545,1.78057 -0.12615,0.0452 -1.4642,-0.71386 -2.97346,-1.6868 z m -66.335806,-20.883 -2.701903,-1.70838 0.0048,-3.61109 0.0048,-3.61109 2.667767,-1.65139 2.667767,-1.6514 2.774349,1.6514 2.774352,1.65139 0.0076,3.58659 0.0076,3.58659 -2.29091,1.45641 c -1.26,0.80102 -2.498689,1.58081 -2.752642,1.73287 -0.253954,0.15206 -1.67759,-0.4923 -3.163636,-1.4319 z m 22.210328,0.006 -2.657685,-1.71774 v -3.46131 -3.46132 l -2.836364,-1.79132 -2.836364,-1.79133 0.0076,-3.59324 0.0076,-3.59325 2.781055,-1.65542 2.78105,-1.65543 2.733665,1.72846 2.733661,1.72845 2.778031,-1.75448 2.77803,-1.75449 2.826904,1.8418 2.826903,1.84181 v 3.44507 3.44507 l 2.492731,1.59459 c 1.370998,0.87701 2.699276,1.59457 2.951721,1.59457 0.252445,0 1.577629,-0.74273 2.944848,-1.65051 l 2.485855,-1.65052 2.744242,1.73358 2.744239,1.73358 0.125782,3.4941 0.125782,3.49409 -2.881013,1.80639 -2.881012,1.80639 -1.826588,-1.24624 c -3.578535,-2.44156 -3.486004,-2.43189 -6.265274,-0.65402 -1.380724,0.88324 -2.716957,1.60589 -2.969402,1.60589 -0.252445,0 -1.577393,-0.74257 -2.944324,-1.65016 l -2.485327,-1.65017 -2.814353,1.77743 -2.814354,1.77742 -2.657685,-1.71774 z m 16.642595,-31.413956 -2.718462,-1.718845 0.0048,-3.611093 0.0048,-3.611088 2.595242,-1.606211 2.595242,-1.606206 0.127226,-3.583458 0.127226,-3.583457 2.726741,-1.722511 2.726744,-1.722515 2.769103,1.748845 2.769098,1.748846 2.685975,-1.698302 2.685975,-1.698305 v -3.462881 -3.462886 l 2.86852,-1.811634 2.868523,-1.811633 2.69511,1.683722 2.69512,1.683722 0.12578,3.520499 0.12578,3.520499 -2.85305,1.78886 -2.85306,1.788859 v 3.499955 3.499955 l -2.836359,1.791325 -2.836364,1.791325 v 3.461311 3.46131 l -2.657685,1.717741 -2.657686,1.717746 -2.811447,-1.77559 -2.811452,-1.775594 -1.621776,1.065447 c -4.222416,2.773977 -3.507347,2.689541 -6.539673,0.772242 z m -22.2614,-20.983597 -2.711608,-1.724051 0.01239,-3.589419 0.01239,-3.589413 2.496715,-1.527273 c 1.373193,-0.84 2.69308,-1.527273 2.93308,-1.527273 0.24,0 1.565454,0.684057 2.945454,1.52013 l 2.509091,1.520129 v 3.593734 3.593734 l -2.290909,1.456407 c -1.26,0.80102 -2.49432,1.578113 -2.742938,1.726874 -0.248614,0.148761 -1.67225,-0.505353 -3.163636,-1.453579 z m 16.597483,-10.516176 -2.727273,-1.739006 0.0076,-3.560216 0.0076,-3.560213 2.82874,-1.684106 c 3.14027,-1.869578 3.638649,-2.895046 1.410559,-2.902377 -1.275185,-0.0044 -1.616177,-0.31172 -3.381818,-3.04988 -1.08,-1.674869 -2.0821,-3.047315 -2.226886,-3.049881 -0.14479,-0.0026 -1.177265,1.369881 -2.294387,3.049881 -1.774826,2.669088 -2.198919,3.054545 -3.36072,3.054545 h -1.329587 l 2.6892,-3.926334 c 1.479059,-2.159485 2.58377,-4.201081 2.454912,-4.536881 -0.128858,-0.3358 -1.23003,-2.006022 -2.447048,-3.711606 -1.21704,-1.705584 -2.212783,-3.198534 -2.212783,-3.317666 0,-0.119132 0.58605,-0.216604 1.302336,-0.216604 1.12824,0 1.541799,0.379164 3.093661,2.836364 0.985231,1.56 1.934034,2.836364 2.108448,2.836364 0.174419,0 1.130841,-1.276364 2.125388,-2.836364 1.583559,-2.483899 1.974999,-2.836364 3.150021,-2.836364 1.584219,0 1.578912,0.01465 -1.649768,4.554557 l -2.152931,3.027283 2.665968,3.877567 2.665968,3.877566 0.127126,-2.785056 c 0.117687,-2.578254 0.225146,-2.842957 1.447143,-3.564812 l 1.320022,-0.779754 -0.138057,-4.104654 -0.138052,-4.104654 1.2,9.6e-4 c 1.011128,8.29e-4 1.2,0.185529 1.2,1.173527 v 1.172549 l 1.275922,-1.222412 c 1.622832,-1.554772 4.508972,-1.974761 6.498925,-0.945717 2.179187,1.1269 2.881392,2.933145 2.899955,7.459395 0.01929,4.707356 -0.782945,6.754997 -3.072157,7.841298 -0.821454,0.389808 -1.493555,0.878286 -1.493555,1.085515 0,0.207225 -1.276363,1.182869 -2.836363,2.168099 l -2.836364,1.791325 v 3.454442 c 0,3.802582 0.123452,3.613685 -3.927272,6.009134 l -1.5272,0.903412 -2.727273,-1.739005 z M 87.902098,44.306675 c 0.958189,-6.389667 -2.760319,-10.388314 -6.335664,-6.812969 -2.0737,2.073699 -1.747327,3.1481 1.553215,5.113096 2.802388,1.66842 2.828945,1.702399 2.850881,3.647743 l 0.02212,1.963637 0.806299,-0.966053 C 87.242416,46.7208 87.738824,45.395345 87.90208,44.306675 Z M 42.545454,49.79544 c -2.662972,-1.225985 -3.490909,-2.997207 -3.490909,-7.468167 0,-4.525617 0.962361,-6.486427 3.7263,-7.592336 4.410293,-1.76465 8.546759,0.201762 9.545517,4.53779 0.854011,3.707625 1.179787,3.490909 -5.247653,3.490909 H 41.357418 L 41.643213,44.4 c 0.651959,3.732895 4.734635,5.289281 7.257306,2.766615 0.856084,-0.856088 1.55595,-1.194907 2.148248,-1.040016 1.064357,0.278335 1.111096,0.910783 0.166931,2.258767 -1.53641,2.19353 -5.550488,2.846352 -8.670244,1.410074 z m 7.175555,-10.631804 c -0.219936,-0.78 -0.817074,-1.761818 -1.326973,-2.181818 -1.02785,-0.846636 -3.48538,-1.008183 -4.781843,-0.314337 -0.830312,0.444369 -2.157648,2.570609 -2.157648,3.456304 0,0.289052 1.598631,0.458033 4.333174,0.458033 h 4.333178 z m 47.14491,10.641557 c -2.257187,-1.206908 -3.169047,-3.097597 -3.37279,-6.993276 -0.14839,-2.837258 -0.02614,-3.602335 0.839319,-5.252357 1.219235,-2.324536 3.269704,-3.523466 6.024382,-3.522518 2.56535,8.72e-4 4.77535,1.148117 5.88287,3.053867 1.22386,2.105931 1.24792,7.760671 0.0434,10.200812 -1.47871,2.995597 -6.17251,4.248388 -9.417184,2.513472 z m 6.425561,-2.51105 c 1.79665,-2.457068 1.73355,-8.19969 -0.11036,-10.043601 -1.12895,-1.128951 -3.510661,-1.392694 -5.064932,-0.560873 -2.64871,1.417546 -2.821161,9.247195 -0.244687,11.109154 1.269932,0.917747 4.607089,0.607008 5.419979,-0.50468 z m 18.50348,2.196955 c -0.83425,-1.060577 -0.92223,-1.728816 -0.92223,-7.004491 0,-5.541152 -0.0435,-5.832062 -0.87273,-5.832062 -0.64,0 -0.87273,-0.290909 -0.87273,-1.090909 0,-0.857054 0.2219,-1.090909 1.03514,-1.090909 0.87023,0 1.0796,-0.278062 1.31425,-1.745454 0.21707,-1.357498 0.47194,-1.745455 1.14668,-1.745455 0.72126,0 0.86757,0.294368 0.86757,1.745455 0,1.703896 0.0363,1.745454 1.52727,1.745454 1.33818,0 1.52727,0.135065 1.52727,1.090909 0,0.955844 -0.18909,1.090909 -1.52727,1.090909 h -1.52727 v 5.367273 c 0,5.711738 0.22803,6.414546 2.08126,6.414546 0.82269,0 1.00549,0.200635 0.89454,0.981818 -0.11519,0.811078 -0.45334,1.004731 -1.94448,1.113578 -1.52257,0.111146 -1.94936,-0.05171 -2.72727,-1.040662 z M 56.290908,42.327273 v -7.854546 h 1.09091 1.090909 v 7.854546 7.854545 h -1.090909 -1.09091 z m 54.545452,0 v -7.854546 h 1.09091 c 0.93628,0 1.09339,0.201023 1.10838,1.418182 l 0.0175,1.418182 0.64526,-1.189029 c 1.21552,-2.239814 4.11981,-2.939691 4.11981,-0.992789 0,0.784495 -0.23511,1.090909 -0.83704,1.090909 -2.85878,0 -3.5266,1.607216 -3.5266,8.487421 v 5.476215 h -1.30909 -1.30909 z M 56.290908,30.109091 c 0,-1.105454 0.169698,-1.309091 1.09091,-1.309091 0.921211,0 1.090909,0.203637 1.090909,1.309091 0,1.105454 -0.169698,1.309091 -1.090909,1.309091 -0.921212,0 -1.09091,-0.203637 -1.09091,-1.309091 z"
         id="path704" />
      <path
         style="fill:#364da0;stroke-width:0.436364"
         d="M 42.089659,168.50901 C 20.238972,155.86906 1.8290208,145.17854 1.1786565,144.75233 L -0.00382412,143.97737 0.10717885,95.937351 0.21818182,47.897324 41.018181,24.327823 C 63.458181,11.364598 82.118569,0.67428938 82.485708,0.57158273 83.145494,0.38700773 164.86385,47.259103 165.48533,48.178591 c 0.17694,0.261774 0.27512,21.97467 0.21818,48.250882 L 165.6,144.2044 124.59149,167.88402 c -22.55468,13.02379 -41.405584,23.66322 -41.890908,23.64318 -0.485319,-0.02 -18.760237,-10.37823 -40.610923,-23.01819 z m 78.909111,-2.41933 c 20.93068,-12.09068 38.79214,-22.41917 39.69214,-22.9522 l 1.63636,-0.96914 -0.003,-46.102353 -0.003,-46.102351 -1.19723,-0.688525 c -0.65877,-0.378689 -18.42411,-10.638689 -39.47883,-22.8 C 100.59125,14.3138 83.114888,4.3671591 82.809603,4.3714643 82.504323,4.3757699 64.483636,14.643062 42.763636,27.187669 L 3.2727272,49.996045 3.1616569,96.029005 3.0505865,142.06197 42.870747,165.05932 c 21.901089,12.64855 39.876884,23.00097 39.946209,23.00538 0.06932,0.004 17.251144,-9.88435 38.181814,-21.97502 z m -15.74288,-18.67612 -2.7441,-1.76897 0.12592,-3.50287 0.12593,-3.50287 2.70113,-1.70632 2.70114,-1.70632 2.8625,1.80782 2.8625,1.80784 v 3.38977 3.38977 l -2.71611,1.69838 c -1.49386,0.93412 -2.81931,1.73537 -2.94545,1.78057 -0.12615,0.0452 -1.4642,-0.71386 -2.97346,-1.6868 z m -44.125478,-20.87678 -2.657685,-1.71775 v -3.61075 -3.61076 l 2.600378,-1.62547 2.600378,-1.62548 0.126894,-3.56295 0.126895,-3.56295 2.736205,-1.7285 2.736205,-1.72849 2.827431,1.84214 2.827432,1.84215 v 3.44507 3.44507 l 2.492731,1.59458 c 1.370998,0.87702 2.699276,1.59458 2.951721,1.59458 0.252445,0 1.577629,-0.74273 2.944848,-1.65051 l 2.485854,-1.65052 2.744243,1.73358 2.744239,1.73357 0.125782,3.4941 0.125781,3.4941 -2.881012,1.80639 -2.881012,1.80639 -1.826588,-1.24624 c -3.578535,-2.44156 -3.486004,-2.4319 -6.265274,-0.65402 C 76.435134,127.27735 75.098901,128 74.846456,128 c -0.252445,0 -1.577394,-0.74257 -2.944324,-1.65016 l -2.485327,-1.65017 -2.814353,1.77743 -2.814354,1.77742 z m 27.560496,-31.500847 -2.727273,-1.733686 -0.0076,-3.560216 -0.0076,-3.560213 -2.845453,-1.69416 -2.845453,-1.69416 0.125803,-3.495504 0.125804,-3.495508 2.72674,-1.722511 2.726745,-1.722515 2.769102,1.748845 2.769099,1.748846 2.685975,-1.698302 2.685975,-1.698305 v -3.462881 -3.462886 l 2.868519,-1.811634 2.868519,-1.811633 2.69512,1.683722 2.69511,1.683722 0.12578,3.520499 0.12579,3.520499 -2.85306,1.78886 -2.85305,1.788859 v 3.499955 3.499955 l -2.836364,1.791325 -2.836364,1.791325 v 3.430831 3.43083 l -1.854545,1.265472 c -3.440649,2.347772 -3.323817,2.339821 -6.327273,0.430569 z m -33.179301,-20.896686 -2.711608,-1.724051 0.01239,-3.589419 0.01239,-3.589413 2.496715,-1.527273 c 1.373193,-0.84 2.69308,-1.527273 2.93308,-1.527273 0.24,0 1.565454,0.684057 2.945454,1.52013 l 2.509091,1.520129 v 3.593734 3.593734 l -2.290909,1.456407 c -1.26,0.80102 -2.49432,1.578113 -2.742938,1.726874 -0.248614,0.148761 -1.67225,-0.505353 -3.163636,-1.453579 z m 16.597483,-10.516176 -2.727273,-1.739006 0.0076,-3.560216 0.0076,-3.560213 2.82874,-1.684106 c 3.140239,-1.869561 3.639046,-2.895578 1.410559,-2.901447 -1.283961,-0.0035 -1.596314,-0.292482 -3.300292,-3.054546 -1.035186,-1.677944 -2.037286,-3.05081 -2.226912,-3.05081 -0.189631,0 -1.258792,1.374546 -2.375913,3.054546 -1.779565,2.676218 -2.196877,3.054545 -3.369299,3.054545 h -1.338157 l 2.820484,-4.045409 2.820485,-4.045414 -2.165813,-3.045498 c -3.226738,-4.537333 -3.240065,-4.57277 -1.720001,-4.57277 1.114796,0 1.545914,0.408745 3.264785,3.095353 l 1.98038,3.095353 1.984071,-3.095353 c 1.750918,-2.731611 2.141267,-3.095353 3.321775,-3.095353 0.878518,0 1.233722,0.168246 1.034788,0.49013 -0.166604,0.269572 -1.335678,1.985233 -2.597939,3.81258 l -2.295024,3.322449 2.68128,3.880057 2.681276,3.880063 0.127126,-2.809209 c 0.117224,-2.590342 0.227716,-2.868628 1.418181,-3.571856 1.285519,-0.759373 1.291056,-0.780326 1.291056,-4.883429 0,-4.104595 0.0043,-4.120785 1.09091,-4.120785 0.892983,0 1.090909,0.212739 1.090909,1.172549 v 1.172549 l 1.260401,-1.207541 c 2.511356,-2.40603 7.10883,-1.76237 8.478908,1.187071 2.232663,4.806372 0.972837,11.654766 -2.446508,13.299185 -0.651041,0.313095 -1.183711,0.73731 -1.183711,0.942698 0,0.205392 -1.276363,1.179534 -2.836363,2.164765 l -2.836364,1.791325 v 3.454442 c 0,3.802582 0.123452,3.613685 -3.927272,6.009133 L 74.83629,65.362076 Z M 87.952899,44.272102 c 0.679628,-4.53206 -0.856346,-8.05392 -3.512517,-8.05392 -2.06064,0 -2.780749,0.364388 -3.511069,1.776664 -1.135139,2.195122 -0.845787,2.804382 2.190336,4.611956 2.802388,1.66842 2.828945,1.702399 2.850881,3.647743 l 0.02212,1.963637 0.834292,-1.000626 c 0.458862,-0.550341 0.965533,-1.875796 1.125936,-2.945454 z M 42.981818,50.002193 C 41.158745,49.191923 39.876072,47.651175 39.316986,45.6 c -1.889621,-6.932649 2.016963,-12.50201 7.984199,-11.382549 2.947815,0.553012 4.725338,2.761186 5.210967,6.473458 l 0.271152,2.072727 h -5.664379 c -6.278597,0 -6.235926,-0.02431 -5.195366,2.960636 1.093478,3.136756 5.745939,3.702436 7.709531,0.937383 0.334552,-0.471102 0.877654,-0.675752 1.418182,-0.534401 1.714159,0.448263 0.657264,2.490759 -1.886478,3.645713 -2.125013,0.964835 -4.342888,1.047059 -6.182976,0.229226 z m 7.2,-9.652572 c 0,-0.868556 -1.38895,-3.270745 -2.116189,-3.659952 -1.114368,-0.596391 -3.359625,-0.607578 -4.453436,-0.02219 -0.830312,0.44437 -2.157648,2.57061 -2.157648,3.456305 0,0.289266 1.607824,0.458033 4.363636,0.458033 2.4,0 4.363637,-0.104488 4.363637,-0.232196 z m 46.90909,9.445819 c -2.665065,-1.22695 -3.491686,-2.99726 -3.487139,-7.468167 0.0047,-4.580132 0.766281,-6.243969 3.406988,-7.442889 2.315642,-1.051337 4.390113,-1.051337 6.705753,0 2.16376,0.982376 3.06612,2.504528 3.45717,5.831713 0.864,7.351334 -4.1091,11.829516 -10.082772,9.079343 z m 6.093972,-2.395196 c 1.22354,-1.223541 1.77819,-4.161394 1.3388,-7.091396 -0.39279,-2.619323 -1.8138,-4.090666 -3.95072,-4.090666 -0.86668,0 -1.972234,0.212169 -2.456772,0.471487 -2.737047,1.464823 -2.798588,9.674744 -0.08435,11.2525 1.471052,0.855102 4.024552,0.58656 5.153042,-0.541925 z m 18.93619,2.384771 c -0.98041,-0.792934 -1.03702,-1.130107 -1.17223,-6.981819 -0.13236,-5.728025 -0.19953,-6.148651 -0.98182,-6.148651 -0.60482,0 -0.83975,-0.305191 -0.83975,-1.090909 0,-0.862126 0.22074,-1.090909 1.05255,-1.090909 0.88793,0 1.09868,-0.27301 1.34745,-1.745454 0.22386,-1.324984 0.49589,-1.745455 1.12927,-1.745455 0.68252,0 0.83437,0.317655 0.83437,1.745455 0,1.703896 0.0363,1.745454 1.52727,1.745454 1.33818,0 1.52727,0.135065 1.52727,1.090909 0,0.955844 -0.18909,1.090909 -1.52727,1.090909 h -1.52727 v 5.200675 c 0,2.860371 0.11919,5.51128 0.26487,5.890908 0.15706,0.409309 0.77866,0.690236 1.52727,0.690236 0.94771,0 1.2624,0.205915 1.2624,0.82604 0,1.531811 -2.77176,1.859211 -4.42438,0.522611 z M 56.290908,42.327273 v -7.854546 h 1.09091 1.090909 v 7.854546 7.854545 h -1.090909 -1.09091 z m 54.545452,0 v -7.854546 h 1.09091 c 0.9346,0 1.09459,0.203207 1.11657,1.418182 0.0231,1.276777 0.0775,1.334981 0.54546,0.583745 1.01116,-1.623249 2.06008,-2.43829 3.13797,-2.43829 0.87273,0 1.09091,0.218181 1.09091,1.090909 0,0.908005 -0.20814,1.090909 -1.24146,1.090909 -2.44638,0 -2.88784,1.144799 -3.04607,7.898954 l -0.14207,6.064682 h -1.27611 -1.27611 z M 56.290908,30.109091 c 0,-1.105454 0.169698,-1.309091 1.09091,-1.309091 0.921211,0 1.090909,0.203637 1.090909,1.309091 0,1.105454 -0.169698,1.309091 -1.090909,1.309091 -0.921212,0 -1.09091,-0.203637 -1.09091,-1.309091 z"
         id="path702" />
      <path
         style="fill:#c82c2f;stroke-width:0.436364"
         d="M 42.086207,168.40697 C 20.018793,155.67081 1.5209577,144.9639 0.97990611,144.61384 L -0.00382412,143.97737 0.10717885,95.967181 0.21818182,47.956988 41.409826,24.174692 C 66.312693,9.796838 82.862155,0.49242916 83.260699,0.64536519 84.420047,1.0902481 164.25993,47.230857 165.05645,47.916301 c 0.72243,0.621674 0.7593,3.349999 0.65455,48.430674 l -0.111,47.771885 -41.01818,23.70736 c -22.56,13.03904 -41.323028,23.71411 -41.695613,23.72238 -0.372589,0.008 -18.732589,-10.40546 -40.8,-23.14163 z M 122.89865,165.05503 162.76759,142.03734 162.65652,96.028617 162.54545,50.019892 122.65662,26.990981 82.767787,3.9620695 80.983893,5.0263165 C 80.002751,5.6116525 62.073508,15.962005 41.141125,28.0271 L 3.0822501,49.963636 3.0683978,96.050609 3.0545454,142.13758 42.654545,165.06008 c 21.78,12.60738 39.774414,22.94279 39.987586,22.96758 0.213173,0.0248 18.328609,-10.3129 40.256519,-22.97263 z m -28.55068,-80.443056 -2.711607,-1.724051 0.0048,-3.589418 0.0048,-3.589414 2.613377,-1.617508 2.613377,-1.617509 v -3.470649 -3.470648 l 2.86852,-1.811634 2.868523,-1.811633 2.69511,1.683722 2.69512,1.683722 0.12578,3.520499 0.12578,3.520499 -2.85305,1.78886 -2.85306,1.788859 v 3.493301 3.4933 l -2.2909,1.456407 c -1.260004,0.80102 -2.494324,1.578114 -2.742943,1.726874 -0.248613,0.148761 -1.67225,-0.505352 -3.163636,-1.453579 z M 77.547307,56.020032 c -0.387212,-0.387207 -0.397484,-7.149434 -0.0233,-15.329123 0.281385,-6.150909 0.295532,-6.218182 1.307494,-6.218182 0.860448,0 1.025227,0.225387 1.036856,1.418182 l 0.01383,1.418182 0.874364,-1.171262 c 1.621296,-2.171816 5.547591,-2.616326 7.542663,-0.853931 1.616365,1.427858 2.185536,3.211913 2.17745,6.825193 -0.01261,5.64302 -1.524838,7.941486 -5.521239,8.39194 -1.563639,0.176243 -2.09352,0.02112 -3.249089,-0.951238 l -1.380751,-1.161826 -0.126432,3.842382 c -0.123404,3.750327 -0.152959,3.845472 -1.23367,3.971503 -0.608984,0.07102 -1.247166,-0.01078 -1.418182,-0.18182 z m 9.059768,-8.565487 c 1.952989,-1.699186 2.077645,-8.279128 0.195129,-10.299775 -0.997959,-1.071181 -3.690035,-1.282189 -4.916522,-0.385361 -1.302943,0.952736 -1.891357,3.492559 -1.557168,6.72134 0.252655,2.441027 0.504275,3.117796 1.467103,3.945984 1.475376,1.269063 3.365266,1.276063 4.811458,0.0178 z m -43.12669,2.737344 c -2.99868,-0.952442 -4.368252,-3.399608 -4.401483,-7.864616 -0.02693,-3.618063 0.742866,-5.506919 2.899392,-7.114291 1.688593,-1.258597 5.94652,-1.286553 7.632206,-0.05011 1.656358,1.214932 2.751639,3.501508 2.752459,5.746218 l 6.77e-4,1.854545 H 46.90909 c -5.192373,0 -5.454545,0.04262 -5.454545,0.886744 0,1.431914 1.16388,3.804837 2.116189,4.314497 1.64191,0.878723 4.365089,0.575332 5.559844,-0.619422 1.797897,-1.797897 3.452671,-1.188624 2.154166,0.793147 -1.214535,1.853612 -5.162657,2.892345 -7.804359,2.053288 z m 6.701433,-10.068104 c 0,-0.885695 -1.327336,-3.011935 -2.157648,-3.456304 -1.662537,-0.889762 -3.932352,-0.535523 -5.294101,0.826225 -0.701538,0.701539 -1.275524,1.683357 -1.275524,2.181819 0,0.857062 0.237037,0.906293 4.363636,0.906293 2.755811,0 4.363637,-0.168767 4.363637,-0.458033 z M 97.890723,50.16168 c -3.510576,-1.073053 -5.366622,-6.189225 -4.029451,-11.107135 1.18968,-4.375474 6.051172,-6.191464 10.464808,-3.909085 1.80427,0.933025 2.73588,3.388446 2.74012,7.222046 0.004,3.617053 -0.74177,5.498735 -2.77529,7.002554 -1.3191,0.975491 -4.508166,1.369937 -6.400187,0.79162 z m 4.720357,-2.196803 c 1.22788,-0.657142 2.11619,-3.023629 2.11619,-5.637604 0,-2.613975 -0.88831,-4.980462 -2.11619,-5.637604 -1.52201,-0.814556 -3.842188,-0.559261 -5.151331,0.566813 -1.066002,0.916939 -1.22767,1.4024 -1.383107,4.15331 -0.193292,3.420733 0.362081,5.364009 1.826042,6.389407 1.07054,0.749834 3.459796,0.833908 4.708396,0.165678 z m 19.66783,1.974018 c -0.92607,-0.648646 -0.96982,-0.963635 -0.96982,-6.98182 v -6.30253 h -1.09091 c -0.87273,0 -1.09091,-0.218181 -1.09091,-1.090909 0,-0.862126 0.22074,-1.090909 1.05255,-1.090909 0.88793,0 1.09868,-0.27301 1.34745,-1.745454 0.22386,-1.324984 0.49589,-1.745455 1.12927,-1.745455 0.68252,0 0.83437,0.317655 0.83437,1.745455 0,1.648485 0.0727,1.745454 1.30909,1.745454 1.10545,0 1.30909,0.169697 1.30909,1.090909 0,0.923536 -0.20279,1.090909 -1.32176,1.090909 h -1.32175 l 0.12175,5.781819 0.12176,5.781818 1.41818,0.136739 c 2.5947,0.250176 1.53019,2.23279 -1.21199,2.257304 -0.36661,0.0035 -1.10297,-0.299725 -1.63637,-0.67333 z M 56.290908,42.327273 v -7.854546 h 1.09091 1.090909 v 7.854546 7.854545 h -1.090909 -1.09091 z m 7.61637,3.856359 2.787251,-3.998184 -2.256358,-3.295778 c -1.240992,-1.812678 -2.413383,-3.54804 -2.605309,-3.85636 -0.254518,-0.408875 6.24e-4,-0.560583 0.942785,-0.560583 1.128882,0 1.529389,0.385118 3.176618,3.054546 1.036683,1.68 1.986974,3.046532 2.11176,3.036738 0.124787,-0.0098 1.077465,-1.38434 2.117067,-3.054546 1.658037,-2.663777 2.051044,-3.036738 3.199959,-3.036738 h 1.30978 l -2.509051,3.580685 c -1.379979,1.969377 -2.507608,3.78574 -2.50584,4.036364 0.0017,0.250623 1.207461,2.17386 2.679312,4.27386 l 2.676091,3.818182 h -1.284192 c -1.112928,0 -1.584057,-0.444379 -3.532656,-3.332077 l -2.248459,-3.332077 -2.147276,3.332077 c -1.870368,2.902381 -2.311789,3.332077 -3.423002,3.332077 h -1.275727 z m 46.929082,-3.856359 v -7.854546 h 1.09091 c 0.96474,0 1.09414,0.18926 1.11882,1.636364 l 0.0279,1.636364 0.68529,-1.374863 c 1.12561,-2.258281 4.05888,-3.17678 4.05888,-1.270966 0,0.872895 -0.24619,1.087743 -1.37504,1.2 -2.54428,0.253011 -3.14978,1.73803 -3.35175,8.220413 -0.17523,5.62399 -0.18334,5.661779 -1.21571,5.661779 h -1.03932 z M 56.290908,30.109091 c 0,-1.105454 0.169698,-1.309091 1.09091,-1.309091 0.921211,0 1.090909,0.203637 1.090909,1.309091 0,1.105454 -0.169698,1.309091 -1.090909,1.309091 -0.921212,0 -1.09091,-0.203637 -1.09091,-1.309091 z"
         id="path700" />
      <path
         style="fill:#171a8f;stroke-width:0.436364"
         d="M 42.086207,168.40697 C 20.018793,155.67081 1.5209577,144.9639 0.97990611,144.61384 L -0.00382412,143.97737 0.10717885,95.967181 0.21818182,47.956988 41.409826,24.174692 C 66.312693,9.796838 82.862155,0.49242916 83.260699,0.64536519 84.420047,1.0902481 164.25993,47.230857 165.05645,47.916301 c 0.72243,0.621674 0.7593,3.349999 0.65455,48.430674 l -0.111,47.771885 -41.01818,23.70736 c -22.56,13.03904 -41.323028,23.71411 -41.695613,23.72238 -0.372589,0.008 -18.732589,-10.40546 -40.8,-23.14163 z M 122.89865,165.05503 162.76759,142.03734 162.65652,96.028617 162.54545,50.019892 122.65662,26.990981 82.767787,3.9620695 80.983893,5.0263165 C 80.002751,5.6116525 62.073508,15.962005 41.141125,28.0271 L 3.0822501,49.963636 3.0683978,96.050609 3.0545454,142.13758 42.654545,165.06008 c 21.78,12.60738 39.774414,22.94279 39.987586,22.96758 0.213173,0.0248 18.328609,-10.3129 40.256519,-22.97263 z M 77.547307,56.020032 c -0.387212,-0.387207 -0.397484,-7.149434 -0.0233,-15.329123 0.281385,-6.150909 0.295532,-6.218182 1.307494,-6.218182 0.860448,0 1.025227,0.225387 1.036856,1.418182 l 0.01383,1.418182 0.874364,-1.171262 c 1.621296,-2.171816 5.547591,-2.616326 7.542663,-0.853931 1.616365,1.427858 2.185536,3.211913 2.17745,6.825193 -0.01261,5.64302 -1.524838,7.941486 -5.521239,8.39194 -1.563639,0.176243 -2.09352,0.02112 -3.249089,-0.951238 l -1.380751,-1.161826 -0.126432,3.842382 c -0.123404,3.750327 -0.152959,3.845472 -1.23367,3.971503 -0.608984,0.07102 -1.247166,-0.01078 -1.418182,-0.18182 z m 9.059768,-8.565487 c 1.952989,-1.699186 2.077645,-8.279128 0.195129,-10.299775 -0.997959,-1.071181 -3.690035,-1.282189 -4.916522,-0.385361 -1.302943,0.952736 -1.891357,3.492559 -1.557168,6.72134 0.252655,2.441027 0.504275,3.117796 1.467103,3.945984 1.475376,1.269063 3.365266,1.276063 4.811458,0.0178 z m -43.12669,2.737344 c -2.99868,-0.952442 -4.368252,-3.399608 -4.401483,-7.864616 -0.02693,-3.618063 0.742866,-5.506919 2.899392,-7.114291 1.688593,-1.258597 5.94652,-1.286553 7.632206,-0.05011 1.656358,1.214932 2.751639,3.501508 2.752459,5.746218 l 6.77e-4,1.854545 H 46.90909 c -5.192373,0 -5.454545,0.04262 -5.454545,0.886744 0,1.431914 1.16388,3.804837 2.116189,4.314497 1.64191,0.878723 4.365089,0.575332 5.559844,-0.619422 1.797897,-1.797897 3.452671,-1.188624 2.154166,0.793147 -1.214535,1.853612 -5.162657,2.892345 -7.804359,2.053288 z m 6.701433,-10.068104 c 0,-0.885695 -1.327336,-3.011935 -2.157648,-3.456304 -1.662537,-0.889762 -3.932352,-0.535523 -5.294101,0.826225 -0.701538,0.701539 -1.275524,1.683357 -1.275524,2.181819 0,0.857062 0.237037,0.906293 4.363636,0.906293 2.755811,0 4.363637,-0.168767 4.363637,-0.458033 z M 97.890723,50.16168 c -3.510576,-1.073053 -5.366622,-6.189225 -4.029451,-11.107135 1.18968,-4.375474 6.051172,-6.191464 10.464808,-3.909085 1.80427,0.933025 2.73588,3.388446 2.74012,7.222046 0.004,3.617053 -0.74177,5.498735 -2.77529,7.002554 -1.3191,0.975491 -4.508166,1.369937 -6.400187,0.79162 z m 4.720357,-2.196803 c 1.22788,-0.657142 2.11619,-3.023629 2.11619,-5.637604 0,-2.613975 -0.88831,-4.980462 -2.11619,-5.637604 -1.52201,-0.814556 -3.842188,-0.559261 -5.151331,0.566813 -1.066002,0.916939 -1.22767,1.4024 -1.383107,4.15331 -0.193292,3.420733 0.362081,5.364009 1.826042,6.389407 1.07054,0.749834 3.459796,0.833908 4.708396,0.165678 z m 19.66783,1.974018 c -0.92607,-0.648646 -0.96982,-0.963635 -0.96982,-6.98182 v -6.30253 h -1.09091 c -0.87273,0 -1.09091,-0.218181 -1.09091,-1.090909 0,-0.862126 0.22074,-1.090909 1.05255,-1.090909 0.88793,0 1.09868,-0.27301 1.34745,-1.745454 0.22386,-1.324984 0.49589,-1.745455 1.12927,-1.745455 0.68252,0 0.83437,0.317655 0.83437,1.745455 0,1.648485 0.0727,1.745454 1.30909,1.745454 1.10545,0 1.30909,0.169697 1.30909,1.090909 0,0.923536 -0.20279,1.090909 -1.32176,1.090909 h -1.32175 l 0.12175,5.781819 0.12176,5.781818 1.41818,0.136739 c 2.5947,0.250176 1.53019,2.23279 -1.21199,2.257304 -0.36661,0.0035 -1.10297,-0.299725 -1.63637,-0.67333 z M 56.290908,42.327273 v -7.854546 h 1.09091 1.090909 v 7.854546 7.854545 h -1.090909 -1.09091 z m 7.61637,3.856359 2.787251,-3.998184 -2.256358,-3.295778 c -1.240992,-1.812678 -2.413383,-3.54804 -2.605309,-3.85636 -0.254518,-0.408875 6.24e-4,-0.560583 0.942785,-0.560583 1.128882,0 1.529389,0.385118 3.176618,3.054546 1.036683,1.68 1.986974,3.046532 2.11176,3.036738 0.124787,-0.0098 1.077465,-1.38434 2.117067,-3.054546 1.658037,-2.663777 2.051044,-3.036738 3.199959,-3.036738 h 1.30978 l -2.509051,3.580685 c -1.379979,1.969377 -2.507608,3.78574 -2.50584,4.036364 0.0017,0.250623 1.207461,2.17386 2.679312,4.27386 l 2.676091,3.818182 h -1.284192 c -1.112928,0 -1.584057,-0.444379 -3.532656,-3.332077 l -2.248459,-3.332077 -2.147276,3.332077 c -1.870368,2.902381 -2.311789,3.332077 -3.423002,3.332077 h -1.275727 z m 46.929082,-3.856359 v -7.854546 h 1.09091 c 0.96474,0 1.09414,0.18926 1.11882,1.636364 l 0.0279,1.636364 0.68529,-1.374863 c 1.12561,-2.258281 4.05888,-3.17678 4.05888,-1.270966 0,0.872895 -0.24619,1.087743 -1.37504,1.2 -2.54428,0.253011 -3.14978,1.73803 -3.35175,8.220413 -0.17523,5.62399 -0.18334,5.661779 -1.21571,5.661779 h -1.03932 z M 56.290908,30.109091 c 0,-1.105454 0.169698,-1.309091 1.09091,-1.309091 0.921211,0 1.090909,0.203637 1.090909,1.309091 0,1.105454 -0.169698,1.309091 -1.090909,1.309091 -0.921212,0 -1.09091,-0.203637 -1.09091,-1.309091 z"
         id="path698" />
      <path
         style="fill:#070707;stroke-width:0.436364"
         d="M 42.086207,168.40697 C 20.018793,155.67081 1.5209577,144.9639 0.97990611,144.61384 L -0.00382412,143.97737 0.10717885,95.967181 0.21818182,47.956988 41.409826,24.174692 C 65.506472,10.262317 82.867858,0.49461788 83.243353,0.63870864 84.388956,1.0783176 164.26672,47.238297 165.05645,47.917091 c 0.72244,0.620932 0.7593,3.348899 0.65455,48.42871 l -0.111,47.770719 -41.01818,23.70704 c -22.56,13.03887 -41.323028,23.71447 -41.695613,23.72356 -0.372589,0.009 -18.732589,-10.40398 -40.8,-23.14015 z M 122.89865,165.05503 162.76759,142.03734 162.65652,96.028617 162.54545,50.019892 122.65662,26.990981 82.767787,3.9620695 81.013627,5.0081254 C 80.048835,5.583456 62.118266,15.933809 41.167907,28.008909 L 3.07635,49.963636 3.0654477,96.059009 3.0545454,142.15438 42.654545,165.06899 c 21.78,12.60304 39.774414,22.93467 39.987586,22.95918 0.213173,0.0245 18.328609,-10.31341 40.256519,-22.97314 z"
         id="path696" />
    </g>
  </g>
</svg>
