<?xml version="1.0" encoding="UTF-8" standalone="no"?>
<!-- Created with Inkscape (http://www.inkscape.org/) -->

<svg
   version="1.1"
   id="svg7111"
   width="184.14081"
   height="220.98863"
   viewBox="0 0 184.14081 220.98863"
   sodipodi:docname="elpv-dataset.svg"
   inkscape:version="1.2.2 (b0a84865, 2022-12-01)"
   xmlns:inkscape="http://www.inkscape.org/namespaces/inkscape"
   xmlns:sodipodi="http://sodipodi.sourceforge.net/DTD/sodipodi-0.dtd"
   xmlns="http://www.w3.org/2000/svg"
   xmlns:svg="http://www.w3.org/2000/svg">
  <defs
     id="defs7115" />
  <sodipodi:namedview
     id="namedview7113"
     pagecolor="#ffffff"
     bordercolor="#666666"
     borderopacity="1.0"
     inkscape:showpageshadow="2"
     inkscape:pageopacity="0.0"
     inkscape:pagecheckerboard="0"
     inkscape:deskcolor="#d1d1d1"
     showgrid="false"
     inkscape:zoom="1.2870098"
     inkscape:cx="94.404876"
     inkscape:cy="84.303943"
     inkscape:window-width="1131"
     inkscape:window-height="713"
     inkscape:window-x="0"
     inkscape:window-y="25"
     inkscape:window-maximized="0"
     inkscape:current-layer="g7117" />
  <g
     inkscape:groupmode="layer"
     inkscape:label="Image"
     id="g7117"
     transform="translate(0.23068117,-10.832766)">
    <g
       aria-label="elpv-dataset"
       id="text7256"
       style="font-size:40px"
       transform="matrix(0.65635349,0,0,0.65635349,2.3856449,85.274432)">
      <path
         d="M 33.529923,204.70024 H 17.455705 q 0,2.01172 0.605468,3.51563 0.605469,1.48437 1.660157,2.4414 1.015625,0.9375 2.402343,1.40625 1.40625,0.46875 3.085938,0.46875 2.226562,0 4.472656,-0.8789 2.265625,-0.89844 3.222656,-1.75782 h 0.195313 v 4.00391 q -1.855469,0.78125 -3.789063,1.30859 -1.933593,0.52735 -4.0625,0.52735 -5.429687,0 -8.476562,-2.92969 -3.046875,-2.94922 -3.046875,-8.35938 0,-5.35156 2.910156,-8.49609 2.929688,-3.14453 7.695313,-3.14453 4.414062,0 6.796875,2.57812 2.402343,2.57813 2.402343,7.32422 z m -3.574218,-2.8125 q -0.01953,-2.89062 -1.464844,-4.47266 -1.425781,-1.58203 -4.355469,-1.58203 -2.949219,0 -4.707031,1.73828 -1.738281,1.73829 -1.972656,4.31641 z"
         id="path7262" />
      <path
         d="m 42.807267,215.22758 h -3.671875 v -30.39062 h 3.671875 z"
         id="path7264" />
      <path
         d="m 69.272111,204.05571 q 0,2.65625 -0.761719,4.86328 -0.761719,2.1875 -2.148437,3.71094 -1.289063,1.44531 -3.046875,2.24609 -1.738282,0.78125 -3.691407,0.78125 -1.699218,0 -3.085937,-0.37109 -1.367188,-0.3711 -2.792969,-1.15235 v 9.14063 h -3.671875 v -29.86328 h 3.671875 v 2.28515 q 1.464844,-1.23046 3.28125,-2.05078 1.835938,-0.83984 3.90625,-0.83984 3.945313,0 6.132813,2.98828 2.207031,2.96875 2.207031,8.26172 z m -3.789063,0.0977 q 0,-3.94532 -1.347656,-5.89844 -1.347656,-1.95313 -4.140625,-1.95313 -1.582031,0 -3.183594,0.6836 -1.601562,0.68359 -3.066406,1.79687 v 12.36328 q 1.5625,0.70313 2.675781,0.95703 1.132813,0.25391 2.558594,0.25391 3.066406,0 4.785156,-2.07031 1.71875,-2.07031 1.71875,-6.13281 z"
         id="path7266" />
      <path
         d="m 93.861955,193.41118 -8.828125,21.8164 h -3.691407 l -8.769531,-21.8164 h 3.984375 l 6.757813,17.36328 6.699218,-17.36328 z"
         id="path7268" />
      <path
         d="M 109.44789,204.27055 H 97.260392 v -3.53515 h 12.187498 z"
         id="path7270" />
      <path
         d="m 133.74477,215.22758 h -3.67188 v -2.28515 q -1.58203,1.36719 -3.30078,2.1289 -1.71875,0.76172 -3.73047,0.76172 -3.90625,0 -6.21094,-3.00781 -2.28515,-3.00781 -2.28515,-8.33984 0,-2.77344 0.78125,-4.94141 0.80078,-2.16797 2.14844,-3.69141 1.32812,-1.48437 3.08593,-2.26562 1.77735,-0.78125 3.67188,-0.78125 1.71875,0 3.04687,0.37109 1.32813,0.35157 2.79297,1.11328 v -9.45312 h 3.67188 z m -3.67188,-5.37109 v -12.51953 q -1.48437,-0.66406 -2.65625,-0.91797 -1.17187,-0.25391 -2.55859,-0.25391 -3.08594,0 -4.80469,2.14844 -1.71875,2.14844 -1.71875,6.09375 0,3.88672 1.32813,5.91797 1.32812,2.01172 4.25781,2.01172 1.5625,0 3.16406,-0.68359 1.60156,-0.70313 2.98828,-1.79688 z"
         id="path7272" />
      <path
         d="m 157.92445,215.22758 h -3.65234 v -2.32421 q -0.48828,0.33203 -1.32812,0.9375 -0.82032,0.58593 -1.60157,0.9375 -0.91797,0.44921 -2.10937,0.74218 -1.19141,0.3125 -2.79297,0.3125 -2.94922,0 -5,-1.95312 -2.05078,-1.95313 -2.05078,-4.98047 0,-2.48047 1.05469,-4.00391 1.07421,-1.54297 3.04687,-2.42187 1.99219,-0.87891 4.78516,-1.19141 2.79297,-0.3125 5.99609,-0.46875 v -0.5664 q 0,-1.25 -0.44922,-2.07032 -0.42969,-0.82031 -1.25,-1.28906 -0.78125,-0.44922 -1.875,-0.60547 -1.09375,-0.15625 -2.28515,-0.15625 -1.44532,0 -3.22266,0.39063 -1.77734,0.37109 -3.67188,1.09375 h -0.19531 v -3.73047 q 1.07422,-0.29297 3.10547,-0.64453 2.03125,-0.35157 4.00391,-0.35157 2.30468,0 4.0039,0.39063 1.71875,0.37109 2.96875,1.28906 1.23047,0.89844 1.875,2.32422 0.64453,1.42578 0.64453,3.53516 z m -3.65234,-5.37109 v -6.07422 q -1.67969,0.0977 -3.96484,0.29297 -2.26563,0.19531 -3.59375,0.56641 -1.58203,0.44922 -2.5586,1.40625 -0.97656,0.9375 -0.97656,2.59765 0,1.875 1.13281,2.83203 1.13282,0.9375 3.45703,0.9375 1.9336,0 3.53516,-0.74218 1.60156,-0.76172 2.96875,-1.81641 z"
         id="path7274" />
      <path
         d="m 176.32289,215.03227 q -1.03515,0.27344 -2.26562,0.44922 -1.21094,0.17578 -2.16797,0.17578 -3.33985,0 -5.07813,-1.79687 -1.73828,-1.79688 -1.73828,-5.76172 v -11.60156 h -2.48047 v -3.08594 h 2.48047 v -6.26953 h 3.67188 v 6.26953 h 7.57812 v 3.08594 h -7.57812 v 9.9414 q 0,1.71875 0.0781,2.69531 0.0781,0.95704 0.54688,1.79688 0.42968,0.78125 1.17187,1.15234 0.76172,0.35157 2.30469,0.35157 0.89844,0 1.875,-0.25391 0.97656,-0.27344 1.40625,-0.44922 h 0.19531 z"
         id="path7276" />
      <path
         d="m 197.70961,215.22758 h -3.65234 v -2.32421 q -0.48828,0.33203 -1.32813,0.9375 -0.82031,0.58593 -1.60156,0.9375 -0.91797,0.44921 -2.10938,0.74218 -1.1914,0.3125 -2.79296,0.3125 -2.94922,0 -5,-1.95312 -2.05079,-1.95313 -2.05079,-4.98047 0,-2.48047 1.05469,-4.00391 1.07422,-1.54297 3.04688,-2.42187 1.99218,-0.87891 4.78515,-1.19141 2.79297,-0.3125 5.9961,-0.46875 v -0.5664 q 0,-1.25 -0.44922,-2.07032 -0.42969,-0.82031 -1.25,-1.28906 -0.78125,-0.44922 -1.875,-0.60547 -1.09375,-0.15625 -2.28516,-0.15625 -1.44531,0 -3.22265,0.39063 -1.77735,0.37109 -3.67188,1.09375 h -0.19531 v -3.73047 q 1.07422,-0.29297 3.10547,-0.64453 2.03125,-0.35157 4.0039,-0.35157 2.30469,0 4.00391,0.39063 1.71875,0.37109 2.96875,1.28906 1.23047,0.89844 1.875,2.32422 0.64453,1.42578 0.64453,3.53516 z m -3.65234,-5.37109 v -6.07422 q -1.67969,0.0977 -3.96485,0.29297 -2.26562,0.19531 -3.59375,0.56641 -1.58203,0.44922 -2.55859,1.40625 -0.97656,0.9375 -0.97656,2.59765 0,1.875 1.13281,2.83203 1.13281,0.9375 3.45703,0.9375 1.93359,0 3.53516,-0.74218 1.60156,-0.76172 2.96875,-1.81641 z"
         id="path7278" />
      <path
         d="m 220.36586,208.93852 q 0,2.98828 -2.48047,4.90235 -2.46094,1.91406 -6.73828,1.91406 -2.42187,0 -4.45312,-0.56641 -2.01172,-0.58594 -3.37891,-1.26953 v -4.12109 h 0.19531 q 1.73828,1.30859 3.86719,2.08984 2.12891,0.76172 4.08203,0.76172 2.42188,0 3.78906,-0.78125 1.36719,-0.78125 1.36719,-2.46094 0,-1.28906 -0.74219,-1.95312 -0.74218,-0.66407 -2.85156,-1.13282 -0.78125,-0.17578 -2.05078,-0.41015 -1.25,-0.23438 -2.28516,-0.50781 -2.87109,-0.76172 -4.08203,-2.22657 -1.1914,-1.48437 -1.1914,-3.63281 0,-1.34766 0.54687,-2.53906 0.56641,-1.19141 1.69922,-2.12891 1.09375,-0.91797 2.77344,-1.44531 1.69922,-0.54688 3.78906,-0.54688 1.95312,0 3.94531,0.48829 2.01172,0.46875 3.33985,1.15234 v 3.92578 h -0.19532 q -1.40625,-1.03516 -3.41797,-1.73828 -2.01171,-0.72266 -3.94531,-0.72266 -2.01172,0 -3.39844,0.78125 -1.38671,0.76172 -1.38671,2.28516 0,1.34766 0.83984,2.03125 0.82031,0.68359 2.65625,1.11328 1.01562,0.23438 2.26562,0.46875 1.26954,0.23438 2.10938,0.42969 2.55859,0.58594 3.94531,2.01172 1.38672,1.44531 1.38672,3.82812 z"
         id="path7280" />
      <path
         d="m 243.88149,204.70024 h -16.07422 q 0,2.01172 0.60547,3.51563 0.60546,1.48437 1.66015,2.4414 1.01563,0.9375 2.40235,1.40625 1.40625,0.46875 3.08593,0.46875 2.22657,0 4.47266,-0.8789 2.26562,-0.89844 3.22266,-1.75782 h 0.19531 v 4.00391 q -1.85547,0.78125 -3.78906,1.30859 -1.9336,0.52735 -4.0625,0.52735 -5.42969,0 -8.47657,-2.92969 -3.04687,-2.94922 -3.04687,-8.35938 0,-5.35156 2.91015,-8.49609 2.92969,-3.14453 7.69532,-3.14453 4.41406,0 6.79687,2.57812 2.40235,2.57813 2.40235,7.32422 z m -3.57422,-2.8125 q -0.0195,-2.89062 -1.46485,-4.47266 -1.42578,-1.58203 -4.35547,-1.58203 -2.94921,0 -4.70703,1.73828 -1.73828,1.73829 -1.97265,4.31641 z"
         id="path7282" />
      <path
         d="m 260.77602,215.03227 q -1.03516,0.27344 -2.26563,0.44922 -1.21094,0.17578 -2.16797,0.17578 -3.33984,0 -5.07812,-1.79687 -1.73828,-1.79688 -1.73828,-5.76172 v -11.60156 h -2.48047 v -3.08594 h 2.48047 v -6.26953 h 3.67187 v 6.26953 h 7.57813 v 3.08594 h -7.57813 v 9.9414 q 0,1.71875 0.0781,2.69531 0.0781,0.95704 0.54687,1.79688 0.42969,0.78125 1.17188,1.15234 0.76172,0.35157 2.30468,0.35157 0.89844,0 1.875,-0.25391 0.97657,-0.27344 1.40625,-0.44922 h 0.19532 z"
         id="path7284" />
    </g>
    <g
       id="g7238">
      <path
         style="fill:#facda8;stroke-width:1.07865"
         d="m 4.3146068,173.1118 v -1.62977 l 5.3643524,-8.5595 5.3643518,-8.5595 -5.0946889,-0.32758 -5.0946894,-0.32758 v -1.61798 -1.61798 l 7.8202253,-0.31692 7.820224,-0.31691 v 2.26374 2.26375 l -4.340224,6.39125 -4.340225,6.39127 -0.629112,1.63944 -0.629111,1.63944 h 4.969336 4.969336 v 2.1573 2.15731 H 12.404495 4.3146068 Z m 17.8770642,-0.79719 0.764011,-2.42697 3.50326,-9.70786 3.50326,-9.70787 h 2.441765 2.441764 l 4.150169,11.21939 4.150168,11.21941 v 0.91543 0.91544 h -2.184001 -2.184001 l -1.025256,-2.69663 -1.025257,-2.69663 h -4.368002 -4.368002 l -1.025256,2.69663 -1.025257,2.69663 h -2.256689 -2.256688 z m 12.043243,-11.05618 -1.158666,-3.77528 h -0.716697 -0.716697 l -1.158666,3.77528 -1.158667,3.77528 h 3.03403 3.034031 z m 11.068458,1.07865 v -12.40449 h 6.47191 6.47191 v 2.1573 2.1573 h -4.314607 -4.314607 v 2.69663 2.69663 h 3.775281 3.775281 v 2.15731 2.1573 h -3.775281 -3.775281 v 3.23595 3.23596 h 4.314607 4.314607 v 2.1573 2.15731 h -6.47191 -6.47191 z m 24.808989,0 v -12.40449 h 5.153252 5.153252 l 2.39731,1.67913 2.39731,1.67915 v 3.11114 3.11113 l -1.01465,0.62708 -1.01465,0.62709 1.778555,3.09895 1.778556,3.09896 -1.289974,2.83118 -1.289975,2.83119 -2.780106,1.05699 -2.780106,1.057 h -4.244388 -4.244386 z m 10.786517,6.47191 1.342802,-1.61798 -1.342802,-1.61797 -1.342802,-1.61798 h -2.564555 -2.564553 v 3.23595 3.23596 h 2.564553 2.564555 z m -0.665762,-10.29592 0.952214,-0.88492 -0.648699,-1.69047 -0.648698,-1.69049 H 77.15745 74.426968 v 3.30865 3.30864 l 2.426966,-0.73325 2.426966,-0.73325 z m 7.202576,14.88019 0.0649,-1.34831 4.001827,-10.78652 4.001828,-10.78652 2.267891,-0.32669 2.267892,-0.32669 0.77009,1.94467 0.77009,1.94467 3.68181,10.1062 3.6818,10.1062 v 0.41065 0.41066 h -2.18043 -2.18043 l -1.22866,-2.69663 -1.22867,-2.69663 h -4.563859 -4.563858 l -0.676811,2.69663 -0.676811,2.69663 H 89.50754 87.370788 Z m 12.878918,-9.27724 v -0.91769 l -1.264902,-3.6285 -1.2649,-3.62849 -1.349667,3.7372 -1.349668,3.73719 -0.08206,0.80899 -0.08206,0.80899 h 2.696629 2.696628 z m 12.94382,5.74086 v -4.88468 l -3.23596,-6.4104 -3.23595,-6.41039 v -1.10941 -1.10941 h 2.02448 2.02446 l 2.43138,5.65188 2.43138,5.65189 2.49434,-5.65189 2.49434,-5.65188 h 2.21834 2.21836 v 0.56625 0.56626 l -3.77528,7.4967 -3.77528,7.49671 v 4.34154 4.34153 h -2.15731 -2.1573 z m 14.02247,-7.5198 v -12.40449 h 6.47191 6.47191 v 2.1573 2.1573 h -4.31461 -4.3146 v 2.63152 2.63152 l 4.03597,0.33477 4.03598,0.33478 0.35772,1.88764 0.35773,1.88764 h -4.39371 -4.39369 v 3.23595 3.23596 h 4.3146 4.31461 v 2.1573 2.15731 h -6.47191 -6.47191 z m 16.67446,11.05913 -0.57746,-1.50482 0.31105,-10.70974 0.31105,-10.70974 4.94036,-0.32127 4.94035,-0.32129 2.47538,2.00444 2.47537,2.00444 v 3.11087 3.11087 l -2.7492,2.2172 -2.7492,2.21722 2.6677,3.23595 2.6677,3.23596 1.06327,1.88764 1.06328,1.88764 h -2.58789 -2.58788 l -3.11299,-4.50725 -3.11299,-4.50724 -0.53932,4.22714 -0.53933,4.22714 -1.8909,0.35981 -1.89091,0.35983 z m 9.75251,-15.91306 v -2.69663 l -2.42697,-0.34468 -2.42696,-0.34469 v 3.386 3.38599 l 2.42696,-0.34468 2.42697,-0.34468 z m 9.16854,4.85393 v -12.40449 h 2.68223 2.68223 l 5.01391,8.62921 5.01391,8.62921 0.12409,0.002 0.12408,0.002 v -8.34269 -8.34269 l 1.88764,-0.36741 1.88764,-0.36741 v 12.48359 12.48358 h -2.4556 -2.45558 l -4.82531,-8.14981 -4.82531,-8.1498 -0.31503,8.1498 -0.31504,8.14981 h -2.11193 -2.11193 v -12.4045 z m 15.10112,-37.21348 v -1.07865 h -65.0318 -65.031808 l -6.166656,-1.60621 -6.166655,-1.60621 -6.697504,-3.3809 -6.697504,-3.38088 -6.608128,-6.60841 L 8.9693468,100.85393 4.7828695,92.224721 0.5963922,83.595507 0.18285552,71.494515 -0.23068117,59.393524 2.0304298,51.949308 l 2.2611109,-7.444215 4.403505,-6.594302 4.4035053,-6.5943 5.04623,-4.32054 5.046231,-4.32054 6.180882,-3.299684 6.180884,-3.299684 7.302262,-1.547382 7.302264,-1.547382 63.910116,-0.01873 63.91011,-0.01873 v -1.055526 -1.055527 l 2.69663,1.228667 2.69663,1.228666 v 1.819331 1.819329 l -2.42697,1.084125 -2.42696,1.084125 2.42696,0.771374 2.42697,0.771374 v 2.011928 2.011928 l -2.25105,0.714456 -2.25106,0.714457 2.25106,1.576698 2.25105,1.576699 v 1.44141 1.441409 l -1.7648,0.677219 -1.76481,0.677219 1.76481,1.950085 1.7648,1.950085 v 1.209783 1.209783 l -1.68614,0.943609 -1.68614,0.943608 1.68614,1.399369 1.68614,1.399367 v 1.432305 1.432304 l -1.88764,1.13225 -1.88764,1.132249 1.88764,1.13225 1.88764,1.13225 v 1.510781 1.510782 l -1.88764,1.13225 -1.88764,1.132249 1.88764,1.13225 1.88764,1.13225 v 1.510781 1.510782 l -1.88764,1.132249 -1.88764,1.13225 1.88764,1.13225 1.88764,1.13225 v 1.510781 1.510781 l -1.88764,1.13225 -1.88764,1.13225 1.88764,1.13225 1.88764,1.13225 v 1.432304 1.432305 l -1.68614,1.399367 -1.68614,1.399368 1.68614,0.943609 1.68614,0.943609 v 1.209782 1.209784 l -1.7648,1.950084 -1.76481,1.950086 1.76481,0.677219 1.7648,0.677218 v 1.44141 1.44141 l -2.25105,1.576699 -2.25106,1.576698 2.25106,0.714457 2.25105,0.714456 v 2.011928 2.011934 l -2.42697,0.77137 -2.42696,0.77137 2.42696,1.08413 2.42697,1.08412 v 1.87707 1.87706 l -1.7648,0.67722 -1.76481,0.67722 1.76481,1.95009 1.7648,1.95008 v 1.14798 1.14797 l -1.7648,0.67723 -1.76481,0.67722 1.76481,1.95008 1.7648,1.95008 v 1.22544 1.22542 l -2.08639,1.11661 -2.0864,1.1166 h -0.61023 -0.61024 z m 0,-7.01124 v -1.61798 l -47.73034,0.0382 -47.730334,0.0382 -2.69663,1.54154 -2.696629,1.54153 50.426963,0.0382 50.42697,0.0383 z m 0,-7.55056 v -1.61798 l -42.33708,0.0343 -42.337077,0.0343 -2.093804,1.58367 -2.093802,1.58368 h 44.430883 44.43088 v -1.61798 z m 0,-7.55056 v -1.61798 H 138.73881 99.500107 l -1.342802,1.61798 -1.342801,1.61798 h 40.581516 40.58151 z m 0,-7.550564 v -1.617978 h -37.09808 -37.09808 l -0.62087,1.617978 -0.62088,1.617978 h 37.71895 37.71896 z m 0,-7.550562 v -1.617978 h -35.5955 -35.59551 v 1.617978 1.617978 h 35.59551 35.5955 z m 0,-7.550562 v -1.617977 h -34.51685 -34.51686 v 1.617977 1.617978 h 34.51686 34.51685 z m 0,-7.550562 V 71.191013 H 144 110.02247 v 1.617977 1.617978 H 144 177.97753 Z m 0,-8.089888 V 62.561799 H 144 110.02247 v 2.157303 2.157304 H 144 177.97753 Z m 0,-7.550562 v -2.157303 h -34.51685 -34.51686 v 1.438202 1.438203 l 0.71911,0.7191 0.71909,0.719102 h 33.79776 33.79775 z m 0,-8.089887 v -1.617978 h -35.5955 -35.59551 v 1.617978 1.617977 h 35.59551 35.5955 z m 0,-7.550562 v -1.617978 h -37.71896 -37.71895 l 0.62088,1.617978 0.62087,1.617977 h 37.09808 37.09808 z m 0,-7.550562 V 32.359551 H 137.39602 96.814504 l 1.342801,1.617978 1.342802,1.617977 h 39.238703 39.23872 z m 0,-7.550562 V 24.808989 H 133.62074 89.263942 l 1.342801,1.617978 1.342802,1.617977 h 43.013985 43.014 z m 0,-7.550562 v -1.617978 l -50.42697,0.03822 -50.426963,0.03823 2.696629,1.541533 2.69663,1.541532 47.730334,0.03823 47.73034,0.03822 z"
         id="path7252" />
      <path
         style="fill:#f7ad92;stroke-width:1.07865"
         d="m 4.8095632,173.59113 -0.7110129,-1.15044 5.4397133,-8.82709 5.4397124,-8.82708 -4.792358,-0.32876 -4.7923595,-0.32876 v -2.09821 -2.0982 h 7.5505615 7.550562 v 1.78801 1.78803 l -5.370588,8.45916 -5.3705883,8.45918 h 5.3705883 5.370588 v 2.1573 2.15731 H 13.007479 5.5205761 Z m 18.1675018,-1.81585 0.595043,-2.96629 3.43838,-9.49706 3.438381,-9.49707 2.160627,0.32853 2.160628,0.32852 3.496648,9.70787 3.496648,9.70786 0.764011,2.42697 0.764013,2.42697 h -2.209441 -2.209441 l -0.67681,-2.69663 -0.676811,-2.69663 h -5.15939 -5.159389 l -0.676811,2.69663 -0.676811,2.69663 h -1.732259 -1.732258 z m 12.618441,-6.34676 v -0.68384 l -1.249389,-4.17009 -1.249388,-4.17009 h -0.737178 -0.737177 l -1.249389,4.17009 -1.249389,4.17009 v 0.68384 0.68384 h 3.235955 3.235955 z m 9.707866,-3.09144 v -12.51215 l 6.202247,0.3235 6.202247,0.32348 v 1.61798 1.61798 l -4.044944,0.33478 -4.044944,0.33477 v 3.17085 3.17083 h 3.775281 3.775281 v 1.61798 1.61798 h -3.775281 -3.775281 v 3.17084 3.17084 l 4.044944,0.33477 4.044944,0.33479 v 1.61797 1.61798 l -6.202247,0.32349 -6.202247,0.3235 z m 24.808989,0 v -12.40449 l 4.58427,0.0159 4.584269,0.0159 2.69663,1.35741 2.696629,1.3574 0.328224,2.8057 0.328224,2.80569 -1.588901,1.58891 -1.588903,1.58889 2.069667,1.77211 2.069666,1.77211 v 1.69943 1.69945 l -1.055882,1.97294 -1.055882,1.97293 -3.419684,1.19212 -3.419686,1.19219 h -3.61432 -3.614321 z m 9.680682,8.08989 h 0.875027 l 0.620876,-1.61798 0.620877,-1.61798 -0.620877,-1.61797 -0.620876,-1.61798 h -3.120551 -3.120551 v 3.05618 3.05618 l 0.752646,0.75264 0.752646,0.75265 1.492877,-0.57287 1.492878,-0.57287 z m -0.188547,-11.00225 1.294382,-1.29438 v -1.81577 -1.81577 l -2.426966,-0.65039 -2.426967,-0.65041 -0.808989,-0.0148 -0.808988,-0.0147 v 3.77528 3.77528 h 1.941573 1.941573 z m 7.823036,14.50787 0.05675,-0.80899 4.081175,-11.32584 4.081176,-11.32585 2.172248,-0.32348 2.172248,-0.32349 3.947021,11.11 3.94702,11.11001 -0.01,1.34831 -0.0103,1.34832 h -1.64467 -1.64468 l -1.02526,-2.69663 -1.02525,-2.69663 h -4.707491 -4.707491 l -1.228666,2.69663 -1.228666,2.69663 H 89.011593 87.37049 l 0.05675,-0.80899 z m 13.965728,-8.1674 v -0.34718 l -1.80127,-5.28644 -1.801271,-5.28644 -1.352623,3.74598 -1.352623,3.74597 -0.08206,1.88764 -0.08206,1.88764 h 3.235955 3.235952 z m 12.58427,8.25728 -0.7191,-0.71909 v -4.16559 -4.16559 l -3.23596,-6.4104 -3.23595,-6.41039 v -1.10941 -1.10941 h 1.5998 1.59981 l 2.84895,5.62212 2.84895,5.62214 2.694,-5.35247 2.69401,-5.35247 0.36129,-0.40292 0.36127,-0.40292 1.69015,0.64858 1.69015,0.64857 -3.80093,7.54765 -3.80093,7.54764 v 4.34154 4.34153 h -1.4382 -1.43821 z m 13.76746,-0.70599 -0.54686,-1.42509 0.31105,-10.70974 0.31105,-10.70974 6.20224,-0.32348 6.20225,-0.3235 v 2.21114 2.21112 h -4.31461 -4.3146 v 3.23596 3.23595 H 136 h 4.4045 l -0.44294,1.34832 -0.44292,1.34831 -3.96157,0.33478 -3.96156,0.33477 v 3.17085 3.17084 h 4.3146 4.31461 v 2.1573 2.15731 h -5.96643 -5.96644 z m 16.79434,-11.11664 v -12.54173 l 5.35747,0.51479 5.35747,0.51479 1.65376,1.37249 1.65377,1.37251 v 3.02684 3.02683 l -1.59871,1.59872 -1.59873,1.59871 -1.33212,0.44404 -1.33212,0.44405 3.47017,4.71869 3.47016,4.7187 v 0.86615 0.86616 h -2.04485 -2.04487 l -3.61805,-5.6537 -3.61807,-5.65369 -0.32603,5.65369 -0.32604,5.6537 h -1.5616 -1.56161 z m 9.49624,-4.84537 0.32771,-2.82531 -2.40254,-0.62828 -2.40253,-0.62827 -0.89146,0.55094 -0.89147,0.55096 v 3.24395 3.24393 l 2.9663,-0.3413 2.96629,-0.34131 z m 9.33935,16.05171 -0.58129,-1.51479 0.31105,-10.70974 0.31105,-10.70974 2.30723,-0.32899 2.30722,-0.329 5.51227,9.49754 5.51227,9.49753 7.3e-4,-9.4382 7.3e-4,-9.4382 h 1.61798 1.61798 v 12.47951 12.47952 l -2.42697,-0.34469 -2.42696,-0.34468 -5.0763,-8.46647 -5.0763,-8.46645 -0.31696,8.37989 -0.31696,8.3799 -1.34774,0.44592 -1.34776,0.44594 z M 111.64045,124.07115 43.685394,123.49014 36.26508,120.61486 28.844767,117.73958 22.87875,113.63063 16.912732,109.52168 12.68485,104.173 8.4569671,98.824328 5.9667563,93.906547 3.4765455,88.988766 1.7382727,83.130068 0,77.27137 v -8.776987 -8.776986 l 1.7208586,-5.858698 1.7208586,-5.858698 3.2542458,-6.147628 3.2542457,-6.147628 6.8148963,-6.543999 6.814897,-6.544 7.895392,-3.735292 7.895393,-3.735292 7.674101,-1.076552 7.674101,-1.076552 63.412591,-0.07501 63.4126,-0.075 1.12904,1.129036 1.12903,1.129038 -1.13832,1.138323 -1.13832,1.138323 -52.74033,-0.03789 -52.740335,-0.03789 2.69663,1.574487 2.696629,1.574486 50.041416,-0.04024 50.04142,-0.04024 1.1406,1.140607 1.14061,1.140611 -1.14574,1.14574 -1.14574,1.145741 -46.18803,-0.0997 -46.188039,-0.09971 2.084336,2.318447 2.084336,2.318448 14.022467,-0.660204 14.02248,-0.660204 30.051,-0.104964 30.051,-0.104963 1.17596,1.175966 1.17597,1.175965 -1.15099,1.150985 -1.15098,1.150985 -42.26735,-0.107056 -42.267348,-0.107057 1.173138,2.192031 1.17314,2.192022 h 39.1171 39.11711 l 1.0827,-1.082693 1.08268,-1.082693 2.09934,1.549404 2.09933,1.549403 -1.20919,1.227877 -1.20921,1.227877 -39.5099,-0.113129 -39.50991,-0.113129 v 0.899441 0.89944 l 1.29438,1.294382 1.29439,1.294382 h 36.39476 36.39478 l 0.66844,-1.081568 0.66845,-1.08157 2.09184,1.11952 2.09184,1.119521 v 1.580026 1.580026 l -1.34831,0.03909 -1.34832,0.03908 -37.54141,-0.07705 -37.54142,-0.07705 1.17487,2.19527 1.17488,2.195263 h 34.95457 34.95457 l 0.66844,-1.081568 0.66845,-1.08157 2.09184,1.11952 2.09184,1.11952 v 1.526429 1.526428 l -1.88764,1.13225 -1.88764,1.132249 1.88764,1.13225 1.88764,1.13225 v 1.510781 1.510782 l -1.88764,1.132249 -1.88764,1.13225 1.88764,1.13225 1.88764,1.13225 v 1.526428 1.526428 l -2.09184,1.119521 -2.09184,1.11952 -0.66845,-1.08157 -0.66844,-1.081568 h -33.91388 -33.91387 v 2.19692 2.196921 l 35.32585,-0.08068 35.32584,-0.08068 1.34832,0.04106 1.34831,0.04107 v 1.580026 1.580026 l -2.09184,1.119521 -2.09184,1.11952 -0.66845,-1.08157 -0.66844,-1.081568 h -34.45321 -34.45319 v 2.196446 2.196447 l 36.2681,-0.121603 36.26811,-0.121603 1.21504,1.233728 1.21505,1.233726 -1.73665,1.284205 -1.73666,1.284205 -8.51054,-0.632148 -8.51054,-0.63215 -27.70799,-0.240153 -27.70801,-0.240153 -1.2042,2.250077 -1.2042,2.250077 37.94738,-0.117394 37.94738,-0.117394 1.15808,1.15808 1.15808,1.158079 -1.13609,1.136087 -1.13608,1.136086 -33.86617,-0.101177 -33.86616,-0.101178 -4.52384,-0.537582 -4.52384,-0.537583 -1.19666,2.235984 -1.19666,2.235984 39.56748,-0.113293 39.56749,-0.113294 1.15527,1.155262 1.15526,1.155266 -1.15264,1.15263 -1.15263,1.15264 -40.96947,-0.10889 -40.969467,-0.10889 -1.40081,1.68788 -1.40081,1.68787 42.371927,-0.10733 42.37193,-0.10732 1.15098,1.15098 1.15099,1.15099 -1.14716,1.14716 -1.14716,1.14716 -44.71477,-0.10096 -44.714771,-0.10085 -2.004591,2.21504 -2.004593,2.21506 37.133945,-0.13734 37.13393,-0.13732 9.16854,-0.79876 9.16854,-0.79877 1.57175,1.44236 1.57175,1.44237 -1.14951,1.14952 -1.14953,1.14953 -49.02768,-0.0932 -49.02769,-0.0932 -4.248477,1.91765 -4.248479,1.9177 51.112596,0.28032 51.1126,0.2803 1.29051,-1.07102 1.2905,-1.07103 2.0281,1.48298 2.02809,1.48297 -1.43968,1.73471 -1.43967,1.7347 -0.67691,-0.23572 -0.67692,-0.23573 z m 67.21072,-59.082385 -0.36319,-1.88764 -34.23275,-0.284815 -34.23276,-0.284815 v 2.172456 2.172455 h 34.59595 34.59595 z m -1e-5,-8.089888 0.36321,-1.88764 h -35.13528 -35.13527 v 2.172246 2.172246 l 34.77208,-0.284606 34.77207,-0.284605 z"
         id="path7250" />
      <path
         style="fill:#f69c64;stroke-width:1.07865"
         d="m 5.3932585,171.96417 v -1.69877 l 4.8539325,-7.50342 4.853933,-7.5034 v -0.50569 -0.5057 H 10.247191 5.3932585 v -1.61797 -1.61798 h 7.5505615 7.550562 l -0.04952,1.34831 -0.04952,1.34832 -5.301961,8.08989 -5.3019592,8.08988 5.3514762,0.32604 5.351477,0.32603 v 1.56161 1.5616 H 12.943812 5.3932499 v -1.69875 z m 17.2593565,0.88977 9.28e-4,-0.80899 3.653083,-10.24719 3.653084,-10.2472 2.276833,-0.34445 2.276834,-0.34446 1.173263,3.04109 1.173264,3.04108 3.067735,8.35955 3.067734,8.35955 h -2.182939 -2.182938 l -0.564148,-2.1573 -0.564148,-2.1573 h -5.194766 -5.194766 l -0.684701,2.1573 -0.684701,2.1573 h -1.545291 -1.545289 z m 12.942891,-7.42542 v -0.68384 l -1.249389,-4.17009 -1.249388,-4.17009 h -0.737178 -0.737177 l -1.249389,4.17009 -1.249389,4.17009 v 0.68384 0.68384 h 3.235955 3.235955 z m 9.707866,-3.09144 v -11.32584 h 5.932584 5.932584 v 1.01353 1.01355 l -4.044943,0.33477 -4.044944,0.33478 v 3.23595 3.23596 l 4.044944,0.33478 4.044943,0.33477 v 1.55287 1.55286 h -4.314606 -4.314607 v 3.23595 3.23596 h 4.314607 4.314606 v 1.61798 1.61797 h -5.932584 -5.932584 z m 24.808989,-0.0514 v -11.37731 l 6.719874,0.32113 6.719874,0.32114 1.044875,2.98324 1.044874,2.98324 -1.75248,1.75249 -1.752481,1.75247 2.184814,2.95512 2.184813,2.95513 -1.347323,2.55634 -1.347325,2.55633 -1.186836,0.79247 -1.186836,0.79247 -5.662922,0.0165 -5.662921,0.0165 v -11.37731 z m 9.778777,8.10341 2.086392,-1.11663 v -2.05569 -2.0557 l -0.808989,-0.45384 -0.808989,-0.45385 -2.966292,-0.70901 -2.966292,-0.70901 v 4.33516 4.33515 h 1.688889 1.68889 l 2.086391,-1.1166 z m -0.698457,-10.32467 1.706197,-0.65473 v -2.46582 -2.46582 l -1.706197,-0.65473 -1.706199,-0.65473 h -1.529756 -1.529758 v 3.77528 3.77528 h 1.529758 1.529756 z m 12.302945,2.28054 3.96505,-11.318 2.337753,-0.008 2.337751,-0.008 1.67989,4.58427 1.67989,4.58427 2.18406,5.93258 2.18406,5.93259 5.5e-4,0.80899 5.4e-4,0.80841 h -2.0315 -2.0315 l -0.56414,-2.1573 -0.56415,-2.1573 h -4.88223 -4.882228 l -0.684701,2.1573 -0.684701,2.1573 h -2.004722 -2.004722 z m 9.297644,1.34049 -0.74537,-2.42697 -1.237093,-3.09651 -1.237095,-3.09651 -1.766338,5.52348 -1.766339,5.52347 h 3.748801 3.748804 z m 12.21916,4.85393 -0.45421,-5.1236 -2.87224,-6.20224 -2.87226,-6.20225 h 2.01088 2.01086 l 2.37707,5.52565 2.37707,5.52564 2.56007,-5.52564 2.56007,-5.52565 h 1.66761 1.6676 v 0.57009 0.57008 l -3.23596,6.41039 -3.23595,6.4104 v 4.34535 4.34537 h -2.05321 -2.05319 z m 14.26847,-6.20225 v -11.32584 h 6.47191 6.47191 v 1.07865 1.07865 h -4.31461 -4.3146 v 3.77528 3.77528 h 3.77528 3.77528 v 1.61798 1.61798 h -3.77528 -3.77528 v 3.17084 3.17084 l 3.96156,0.33477 3.96157,0.33479 0.44292,1.34831 0.44294,1.34831 h -6.5618 -6.5618 z m 17.25843,0 v -11.32584 h 5.71685 5.71686 l 1.29438,1.29438 1.29438,1.29438 v 2.94194 2.94194 l -2.78134,2.18779 -2.78132,2.1878 3.37247,4.90173 3.37248,4.90172 h -2.1421 -2.1421 l -3.57263,-4.98978 -3.57265,-4.98979 -0.32876,4.98979 -0.32876,4.98978 h -1.55888 -1.55888 z m 9.66777,-3.70037 1.11446,-2.0824 -1.69288,-1.69288 -1.69289,-1.69289 h -2.08025 -2.08026 v 3.77528 3.77528 h 2.65869 2.65867 z m 8.66931,3.62873 V 150.868 l 2.91168,0.34131 2.91168,0.3413 5.17479,8.62922 5.1748,8.62921 0.003,-8.89887 0.003,-8.89888 h 1.61797 1.61798 v 11.32584 11.32584 h -2.59411 -2.59412 l -5.05896,-8.62921 -5.05896,-8.62921 h -0.17514 -0.17515 l 0.39187,8.62921 0.39187,8.62921 h -2.27151 -2.27152 v -11.39748 z m -50.69663,-38.22123 -67.415734,-0.60152 -5.932585,-1.95699 -5.932584,-1.95698 -5.573915,-3.16339 -5.573916,-3.16338 -5.8336,-5.8336 -5.833599,-5.8336 L 6.7627819,95.261759 3.4417172,88.988766 1.7208586,83.130068 0,77.27137 v -8.206814 -8.206813 l 1.6089902,-6.177331 1.6089902,-6.17733 2.7016297,-5.331411 2.7016299,-5.33141 6.442174,-6.886704 6.442174,-6.886704 6.633337,-3.535532 6.633337,-3.535531 5.535218,-1.687856 5.535218,-1.687857 67.415732,-0.607791 67.41573,-0.607791 1.61798,1.414239 1.61798,1.41424 -2.06881,1.533774 -2.06881,1.533774 -1.2905,-1.071027 -1.29051,-1.071028 -51.1126,0.280318 -51.112596,0.280316 4.541298,2.426967 4.541298,2.426966 h 46.74859 46.74859 l 1.0827,-1.082693 1.08268,-1.082693 2.09934,1.549404 2.09933,1.549403 -1.19968,1.218357 -1.19967,1.218355 -46.18803,-0.0997 -46.188039,-0.09971 1.981851,2.18992 1.98185,2.189919 h 42.223838 42.22383 l 1.0827,-1.082693 1.08268,-1.082693 2.09934,1.549404 2.09933,1.549403 -1.20492,1.2236 -1.20492,1.223601 -42.26735,-0.107056 -42.267348,-0.107057 1.173138,2.192031 1.17314,2.192022 h 39.1171 39.11711 l 1.0827,-1.082693 1.08268,-1.082693 2.09934,1.549404 2.09933,1.549403 -1.20919,1.227877 -1.20921,1.227877 -39.5099,-0.113129 -39.50991,-0.113129 v 0.899441 0.89944 l 1.29438,1.294382 1.29439,1.294382 h 36.90787 36.90785 l 0.372,-1.115985 0.37199,-1.115985 2.14487,1.582695 2.14486,1.582696 -1.21202,1.230694 -1.21201,1.230695 -37.79794,-0.116931 -37.79793,-0.116931 0.57395,2.194807 0.57396,2.194807 h 36.00902 36.00903 v -1.24583 -1.245829 l 2.1828,1.975399 2.18279,1.975398 -0.97088,0.970868 -0.97086,0.970868 -36.26811,-0.121603 -36.2681,-0.121602 v 2.196446 2.196447 h 34.9663 34.96628 l 0.38714,-1.161414 0.38714,-1.161413 1.86879,2.064985 1.86878,2.064985 -2.16603,1.960236 -2.16604,1.960234 v -1.245828 -1.24583 h -34.51685 -34.51686 v 2.19692 2.196921 l 35.72772,-0.12314 35.72772,-0.12314 0.97193,0.971931 0.97193,0.971931 -2.18279,1.975399 -2.1828,1.975398 v -1.245828 -1.24583 h -34.51685 -34.51686 v 2.19692 2.196921 l 35.72772,-0.12314 35.72772,-0.12314 1.2161,1.23479 1.21611,1.23479 -2.14486,1.582696 -2.14487,1.582695 -0.37199,-1.115985 -0.372,-1.115985 h -34.96628 -34.9663 v 2.196446 2.196447 l 36.2681,-0.121603 36.26811,-0.121603 1.21504,1.233728 1.21505,1.233726 -2.09933,1.549403 -2.09934,1.549404 -1.08268,-1.082693 -1.0827,-1.082693 h -34.8025 -34.80249 l -1.17488,2.19527 -1.17487,2.195269 37.94738,-0.117394 37.94738,-0.117394 1.21201,1.230696 1.21202,1.230694 -2.09933,1.549403 -2.09934,1.549403 -1.08268,-1.082692 -1.0827,-1.082693 h -36.2427 -36.24269 l -1.29439,1.294382 -1.29438,1.294382 v 0.89944 0.89944 l 39.50991,-0.113129 39.5099,-0.113129 1.15527,1.155262 1.15526,1.155262 -1.12817,1.128173 -1.12817,1.12817 -40.74637,-0.0731 -40.74637,-0.0731 -1.487259,1.23432 -1.487257,1.23431 v 0.94658 0.94658 h 40.233706 40.23371 l 1.0827,-1.0827 1.08268,-1.08269 2.09934,1.5494 2.09933,1.54941 -1.20109,1.21977 -1.2011,1.21978 -44.71477,-0.10096 -44.714771,-0.10085 -1.981652,2.18969 -1.981652,2.18971 h 44.715495 44.71549 l 1.0827,-1.0827 1.08268,-1.08268 2.09934,1.54939 2.09933,1.54941 -1.19514,1.21382 -1.19513,1.21382 -49.76652,-0.0927 -49.766521,-0.0927 -3.510258,1.91775 -3.510257,1.91775 51.112596,0.28032 51.1126,0.2803 1.29051,-1.07102 1.2905,-1.07103 2.0281,1.48298 2.02809,1.48297 -1.43968,1.73471 -1.43967,1.7347 -0.67691,-0.23892 -0.67692,-0.23894 z"
         id="path7248" />
      <path
         style="fill:#f8a50c;stroke-width:1.07865"
         d="m 5.3932585,172.27047 v -1.39244 l 5.4278045,-8.58509 5.427805,-8.58507 -5.427805,-0.32604 -5.4278045,-0.32603 v -1.02228 -1.02228 h 7.5505615 7.550562 v 0.85313 0.85311 l -5.393258,8.54095 -5.3932586,8.54095 v 0.8023 0.8023 l 5.3932586,-0.63876 5.393258,-0.63874 v 1.76822 1.76822 H 12.94382 5.3932585 Z m 17.2584275,0.93397 v -0.45848 l 3.923302,-10.92299 3.923302,-10.92298 2.130551,0.32529 2.130552,0.32528 3.653083,10.2472 3.653083,10.24719 9.29e-4,0.80899 9.29e-4,0.80898 h -1.444838 -1.444838 l -1.228666,-2.69662 -1.228667,-2.69663 h -4.760123 -4.760123 l -0.676811,2.69663 -0.676811,2.69662 H 24.249113 22.651686 Z M 34.751125,160.7191 33.02643,155.32585 h -0.666879 -0.666878 l -1.724695,5.39325 -1.724697,5.39326 h 4.11627 4.11627 z m 10.552247,1.61798 v -11.32584 h 5.932584 5.932584 v 1.07865 1.07865 h -4.314606 -4.314607 v 3.77528 3.77528 h 4.314607 4.314606 v 1.07866 1.07865 h -4.314606 -4.314607 v 4.3146 4.31461 h 4.314607 4.314606 v 1.07865 1.07865 h -5.932584 -5.932584 z m 24.808989,0 v -11.32584 h 5.855537 5.855539 l 1.695023,1.69502 1.695025,1.69503 v 1.30092 1.30093 l -1.598155,2.28168 -1.598156,2.28168 1.598156,1.32636 1.598155,1.32635 v 3.04271 3.04272 l -2.39731,1.67915 -2.39731,1.67913 h -5.153252 -5.153252 z m 10.570787,7.87416 1.294382,-1.29438 v -1.9647 -1.9647 l -2.627844,-1.19733 -2.627844,-1.19732 -1.686763,0.64728 -1.686763,0.64726 v 3.09004 3.09003 l 0.719101,0.7191 0.719101,0.7191 h 2.301124 2.301124 z m 0.08631,-11.40763 1.025142,-1.9155 -1.040789,-1.85978 -1.040784,-1.85979 H 76.53067 73.348313 v 3.77528 3.77528 h 3.198004 3.198004 l 1.025142,-1.91549 z m 7.679979,13.9136 v -0.94573 l 3.648646,-10.11045 3.648646,-10.11047 2.117306,-0.32285 2.117305,-0.32284 3.56421,10.03071 3.5642,10.03072 0.49311,1.34831 0.49312,1.34831 h -1.76008 -1.76008 l -1.02526,-2.69662 -1.02525,-2.69663 h -4.860085 -4.86008 l -0.676811,2.69663 -0.676811,2.69662 h -1.50104 -1.501043 z m 12.512823,-9.25391 -0.66487,-2.64905 -1.202731,-3.01387 -1.202725,-3.01386 -1.351941,3.23595 -1.351941,3.23596 -0.745366,2.42697 -0.745366,2.42696 h 3.964903 3.964907 z m 13.37482,6.39742 v -3.80221 l -3.78884,-7.52363 -3.78884,-7.52364 1.9012,0.0255 1.9012,0.0255 2.52634,5.6375 2.52636,5.6375 2.82034,-5.66293 2.82032,-5.66292 h 1.3949 1.39489 v 0.57009 0.57008 l -3.23596,6.4104 -3.23595,6.41039 v 4.34536 4.34537 h -1.61798 -1.61798 v -3.8022 z m 14.02247,-7.52364 v -11.32584 h 5.93259 5.93258 v 1.07865 1.07865 h -4.31461 -4.3146 v 3.77528 3.77528 h 3.77528 3.77528 v 1.07866 1.07865 h -3.77528 -3.77528 v 4.3146 4.31461 h 4.3146 4.31461 v 1.07865 1.07865 h -5.93258 -5.93259 z m 16.17978,0 v -11.32584 h 5.31621 5.31621 l 1.69503,1.69502 1.69502,1.69503 v 2.4524 2.4524 l -1.88764,1.64441 -1.88764,1.6444 -1.41804,0.43366 -1.41803,0.43365 3.89441,5.10036 3.89441,5.10035 h -2.02385 -2.02387 l -3.68847,-5.12359 -3.68847,-5.1236 -0.32876,5.1236 -0.32876,5.12359 h -1.55888 -1.55888 z m 7.24517,-1.20985 2.39124,-0.64105 0.66417,-2.09261 0.66417,-2.0926 -1.29985,-1.56621 -1.29984,-1.56622 h -2.56455 -2.56456 v 4.31461 4.31461 l 0.80899,-0.0148 0.80899,-0.0148 2.39124,-0.64106 z m 12.17056,1.20985 v -11.32584 h 2.1429 2.14291 l 5.13799,8.85366 5.138,8.85366 0.31328,-8.85366 0.31328,-8.85366 h 1.57436 1.57436 v 11.32584 11.32584 h -2.53508 -2.53509 l -5.28514,-9.42734 -5.28514,-9.42735 -0.31166,9.42735 -0.31166,9.42734 h -1.03665 -1.03666 z M 112.7191,123.98 45.842698,123.37573 40.30748,121.68435 34.772262,119.99298 28.138925,116.45744 21.505588,112.92191 15.14144,106.11862 8.7772917,99.315325 5.5806464,92.534067 2.3840011,85.752811 1.1920005,80.036797 0,74.320783 v -6.192194 -6.192194 l 1.6521307,-6.428871 1.6521307,-6.428871 2.9156033,-5.932585 2.9156033,-5.932584 7.027772,-7.089982 7.027772,-7.089981 6.073848,-2.951308 6.073847,-2.951306 5.791321,-1.541415 5.791321,-1.541415 66.067421,-0.0128 66.06741,-0.0128 v -1.044798 -1.044798 l 1.61798,0.620876 1.61798,0.620876 v 1.926496 1.926496 l -1.54829,0.594134 -1.54828,0.594134 -0.34286,-1.028577 -0.34286,-1.028577 -52.31111,0.280183 -52.311098,0.280184 4.617486,2.426967 4.617484,2.426966 h 47.966778 47.96679 v -1.044798 -1.044798 l 1.61798,0.620876 1.61798,0.620876 v 1.926496 1.926496 l -1.61798,0.620876 -1.61798,0.620876 V 24.775136 23.730338 H 133.75281 88.44944 v 0.954596 0.954595 l 2.658679,1.742034 2.658678,1.742033 h 42.644693 42.64469 V 28.078798 27.034 l 1.61798,0.620876 1.61798,0.620876 v 1.926496 1.926495 l -1.58343,0.607621 -1.58344,0.607621 -0.63753,-1.031543 -0.63752,-1.031543 H 137.46443 97.078654 v 1.402248 1.402247 l 1.294382,1.294382 1.294382,1.294382 h 39.694382 39.69438 v -1.210727 -1.210726 l 1.61798,1.342801 1.61798,1.342802 v 1.370499 1.370498 l -1.58343,0.607621 -1.58344,0.607621 -0.49741,-0.804832 -0.49742,-0.804832 -37.82926,-0.322689 -37.82927,-0.322691 v 1.086411 1.08641 l 0.66876,1.74275 0.66875,1.742748 38.9717,-0.114463 38.97169,-0.114464 v 1.77573 1.77573 l -38.15252,-0.118028 -38.15254,-0.118028 0.66939,1.744386 0.66938,1.744386 v 0.489333 0.489334 l 37.48315,-0.119068 37.48314,-0.119068 v 1.780683 1.780683 l -37.07423,-0.120971 -37.07423,-0.120971 0.66974,1.745303 0.66973,1.745304 v 0.490248 0.490249 l 36.4045,-0.12206 36.40449,-0.12206 v 1.783811 1.783812 l -36.31367,-0.121756 -36.31366,-0.121755 0.58454,2.23529 0.58453,2.23529 35.72913,-0.123144 35.72913,-0.123145 v 1.78597 1.78597 l -35.72913,-0.123144 -35.72913,-0.123144 -0.58453,2.23529 -0.58454,2.23529 36.31366,-0.121755 36.31367,-0.121756 v 1.783811 1.783812 l -36.26857,-0.121605 -36.26858,-0.121604 -0.55793,2.133532 -0.55793,2.133532 0.60179,0.601784 0.60178,0.601785 27.59551,-0.06668 27.59551,-0.06668 7.72199,-0.775047 7.72199,-0.775046 1.17688,0.392294 1.17689,0.392295 v 1.396015 1.396014 l -1.61798,1.342794 -1.61798,1.342802 v -1.210726 -1.210727 h -36.01942 -36.01943 l -0.65473,1.706197 -0.65473,1.706198 v 0.990431 0.990432 h 36.67416 36.67415 v -1.044798 -1.044798 l 1.61798,0.620876 1.61798,0.620876 v 1.926496 1.926496 l -1.61798,0.620876 -1.61798,0.620876 v -1.044798 -1.044798 h -37.6374 -37.63741 l -0.65473,1.706197 -0.65473,1.706198 v 0.990431 0.990432 h 38.29214 38.29213 v -1.044798 -1.044798 l 1.61798,0.620876 1.61798,0.620876 v 1.926496 1.926489 l -1.61798,0.62088 -1.61798,0.62088 v -1.05793 -1.05793 l -40.04855,0.28279 -40.048568,0.28279 -1.611095,2.42697 -1.611096,2.42697 h 41.659659 41.65965 v -1.0448 -1.0448 l 1.61798,0.62088 1.61798,0.62087 v 1.9265 1.92649 l -1.61798,0.62089 -1.61798,0.62087 v -1.0448 -1.0448 H 136.09813 93.140095 l -2.533352,2.69663 -2.533351,2.69663 h 45.491398 45.49139 v -1.21072 -1.21074 l 1.61798,1.34281 1.61798,1.3428 v 1.3705 1.37049 l -1.58343,0.60763 -1.58344,0.60762 -0.63753,-1.03154 -0.63752,-1.03155 -47.12736,0.0487 -47.127353,0.0487 -4.853932,2.59915 -4.853933,2.59915 52.584268,0.0488 52.58427,0.0487 v -1.21072 -1.21073 l 1.61798,1.3428 1.61798,1.3428 v 1.3705 1.3705 l -1.34832,0.38506 -1.34831,0.38507 z"
         id="path7246" />
      <path
         style="fill:#f6920f;stroke-width:1.07865"
         d="m 5.3932585,172.27047 v -1.39244 l 5.4278045,-8.58509 5.427805,-8.58507 -5.427805,-0.32604 -5.4278045,-0.32603 v -1.02228 -1.02228 h 7.5505615 7.550562 v 0.85313 0.85311 l -5.393258,8.54095 -5.3932586,8.54095 v 0.8023 0.8023 l 5.3932586,-0.63876 5.393258,-0.63874 v 1.76822 1.76822 H 12.94382 5.3932585 Z m 17.2584275,0.93397 v -0.45848 l 3.923302,-10.92299 3.923302,-10.92298 2.130551,0.32529 2.130552,0.32528 3.653083,10.2472 3.653083,10.24719 9.29e-4,0.80899 9.29e-4,0.80898 h -1.444838 -1.444838 l -1.228666,-2.69662 -1.228667,-2.69663 h -4.760123 -4.760123 l -0.676811,2.69663 -0.676811,2.69662 H 24.249113 22.651686 Z M 34.751125,160.7191 33.02643,155.32585 h -0.666879 -0.666878 l -1.724695,5.39325 -1.724697,5.39326 h 4.11627 4.11627 z m 10.552247,1.61798 v -11.32584 h 5.932584 5.932584 v 1.07865 1.07865 h -4.314606 -4.314607 v 3.77528 3.77528 h 4.314607 4.314606 v 1.07866 1.07865 h -4.314606 -4.314607 v 4.3146 4.31461 h 4.314607 4.314606 v 1.07865 1.07865 h -5.932584 -5.932584 z m 24.808989,0 v -11.32584 h 5.855537 5.855539 l 1.695023,1.69502 1.695025,1.69503 v 1.30092 1.30093 l -1.598155,2.28168 -1.598156,2.28168 1.598156,1.32636 1.598155,1.32635 v 3.04271 3.04272 l -2.39731,1.67915 -2.39731,1.67913 h -5.153252 -5.153252 z m 10.570787,7.87416 1.294382,-1.29438 v -1.9647 -1.9647 l -2.627844,-1.19733 -2.627844,-1.19732 -1.686763,0.64728 -1.686763,0.64726 v 3.09004 3.09003 l 0.719101,0.7191 0.719101,0.7191 h 2.301124 2.301124 z m 0.08631,-11.40763 1.025142,-1.9155 -1.040789,-1.85978 -1.040784,-1.85979 H 76.53067 73.348313 v 3.77528 3.77528 h 3.198004 3.198004 l 1.025142,-1.91549 z m 7.679979,13.9136 v -0.94573 l 3.648646,-10.11045 3.648646,-10.11047 2.117306,-0.32285 2.117305,-0.32284 3.56421,10.03071 3.5642,10.03072 0.49311,1.34831 0.49312,1.34831 h -1.76008 -1.76008 l -1.02526,-2.69662 -1.02525,-2.69663 h -4.860085 -4.86008 l -0.676811,2.69663 -0.676811,2.69662 h -1.50104 -1.501043 z m 12.512823,-9.25391 -0.66487,-2.64905 -1.202731,-3.01387 -1.202725,-3.01386 -1.351941,3.23595 -1.351941,3.23596 -0.745366,2.42697 -0.745366,2.42696 h 3.964903 3.964907 z m 13.37482,6.39742 v -3.80221 l -3.78884,-7.52363 -3.78884,-7.52364 1.9012,0.0255 1.9012,0.0255 2.52634,5.6375 2.52636,5.6375 2.82034,-5.66293 2.82032,-5.66292 h 1.3949 1.39489 v 0.57009 0.57008 l -3.23596,6.4104 -3.23595,6.41039 v 4.34536 4.34537 h -1.61798 -1.61798 v -3.8022 z m 14.02247,-7.52364 v -11.32584 h 5.93259 5.93258 v 1.07865 1.07865 h -4.31461 -4.3146 v 3.77528 3.77528 h 3.77528 3.77528 v 1.07866 1.07865 h -3.77528 -3.77528 v 4.3146 4.31461 h 4.3146 4.31461 v 1.07865 1.07865 h -5.93258 -5.93259 z m 16.17978,0 v -11.32584 h 5.31621 5.31621 l 1.69503,1.69502 1.69502,1.69503 v 2.4524 2.4524 l -1.88764,1.64441 -1.88764,1.6444 -1.41804,0.43366 -1.41803,0.43365 3.89441,5.10036 3.89441,5.10035 h -2.02385 -2.02387 l -3.68847,-5.12359 -3.68847,-5.1236 -0.32876,5.1236 -0.32876,5.12359 h -1.55888 -1.55888 z m 7.24517,-1.20985 2.39124,-0.64105 0.66417,-2.09261 0.66417,-2.0926 -1.29985,-1.56621 -1.29984,-1.56622 h -2.56455 -2.56456 v 4.31461 4.31461 l 0.80899,-0.0148 0.80899,-0.0148 2.39124,-0.64106 z m 12.17056,1.20985 v -11.32584 h 2.1429 2.14291 l 5.13799,8.85366 5.138,8.85366 0.31328,-8.85366 0.31328,-8.85366 h 1.57436 1.57436 v 11.32584 11.32584 h -2.53508 -2.53509 l -5.28514,-9.42734 -5.28514,-9.42735 -0.31166,9.42735 -0.31166,9.42734 h -1.03665 -1.03666 z m -29.1236,-38.41139 -44.764046,-0.65859 -0.808988,-0.1504 -0.808989,-0.15041 v -1.07865 -1.07865 h 45.303373 45.30337 v -1.21072 -1.21073 l 1.61798,1.3428 1.61798,1.3428 v 1.3705 1.3705 l -1.34832,0.38506 -1.34831,0.38507 z m 43.65628,-7.47841 -0.63752,-1.03155 H 132.54685 87.243471 l 0.666643,-1.07865 0.666643,-1.07865 h 45.239713 45.23971 v -1.21072 -1.21074 l 1.61798,1.34281 1.61798,1.3428 v 1.3705 1.37049 l -1.58343,0.60763 -1.58344,0.60762 z m -90.022576,-8.72508 0.202844,-3.63231 -0.109285,-39.164784 -0.109286,-39.164783 -1.245312,0.769646 -1.245313,0.769645 0.81978,-1.326433 0.819781,-1.326433 2.382693,2.238425 2.382692,2.238423 h 43.346212 43.34621 V 28.078798 27.034 l 1.61798,0.620876 1.61798,0.620876 v 1.926496 1.926495 l -1.58343,0.607621 -1.58344,0.607621 -0.63753,-1.031543 -0.63752,-1.031543 H 136.9251 96.000002 v 0.911474 0.911475 l 1.972574,1.785154 1.972574,1.785156 h 39.55552 39.55551 v -1.210727 -1.210726 l 1.61798,1.342801 1.61798,1.342802 v 1.370499 1.370498 l -1.58343,0.607621 -1.58344,0.607621 -0.49741,-0.804832 -0.49742,-0.804832 -37.82926,-0.322689 -37.82927,-0.322691 v 1.086411 1.08641 l 0.66876,1.74275 0.66875,1.742748 38.9717,-0.114463 38.97169,-0.114464 v 1.77573 1.77573 l -38.15252,-0.118028 -38.15254,-0.118028 0.66939,1.744386 0.66938,1.744386 v 0.489333 0.489334 l 37.48315,-0.119068 37.48314,-0.119068 v 1.780683 1.780683 l -37.07423,-0.120971 -37.07423,-0.120971 0.66974,1.745303 0.66973,1.745304 v 0.490248 0.490249 l 36.4045,-0.12206 36.40449,-0.12206 v 1.783811 1.783812 l -36.31367,-0.121756 -36.31366,-0.121755 0.58454,2.23529 0.58453,2.23529 35.72913,-0.123144 35.72913,-0.123145 v 1.78597 1.78597 l -35.72913,-0.123144 -35.72913,-0.123144 -0.58453,2.23529 -0.58454,2.23529 36.31366,-0.121755 36.31367,-0.121756 v 1.783811 1.783812 l -36.26857,-0.121605 -36.26858,-0.121604 -0.55793,2.133532 -0.55793,2.133532 0.60179,0.601784 0.60178,0.601785 27.59551,-0.06668 27.59551,-0.06668 7.72199,-0.775047 7.72199,-0.775046 1.17688,0.392294 1.17689,0.392295 v 1.396015 1.396014 l -1.61798,1.342794 -1.61798,1.342802 v -1.210726 -1.210727 h -36.01942 -36.01943 l -0.65473,1.706197 -0.65473,1.706198 v 0.990431 0.990432 h 36.67416 36.67415 v -1.044798 -1.044798 l 1.61798,0.620876 1.61798,0.620876 v 1.926496 1.926496 l -1.61798,0.620876 -1.61798,0.620876 v -1.044798 -1.044798 h -37.6374 -37.63741 l -0.65473,1.706197 -0.65473,1.706198 v 0.990431 0.990432 h 38.29214 38.29213 v -1.044798 -1.044798 l 1.61798,0.620876 1.61798,0.620876 v 1.926496 1.926489 l -1.61798,0.62088 -1.61798,0.62088 v -1.05793 -1.05793 l -40.04855,0.28279 -40.048568,0.28279 -1.611095,2.42697 -1.611096,2.42697 h 41.659659 41.65965 v -1.0448 -1.0448 l 1.61798,0.62088 1.61798,0.62087 v 1.9265 1.92649 l -1.61798,0.62089 -1.61798,0.62087 v -1.0448 -1.0448 H 136.15013 93.24406 l -2.490869,1.74468 -2.49087,1.74466 z M 179.05618,24.775136 V 23.730338 H 133.75281 88.44944 v -1.078652 -1.078652 h 45.30337 45.30337 v -1.044798 -1.044798 l 1.61798,0.620876 1.61798,0.620876 v 1.926496 1.926496 l -1.61798,0.620876 -1.61798,0.620876 z m 0,-7.550562 V 16.179776 H 133.75281 88.44944 v -1.078652 -1.078652 h 45.30337 45.30337 v -1.044798 -1.044798 l 1.61798,0.620876 1.61798,0.620876 v 1.926496 1.926496 l -1.61798,0.620876 -1.61798,0.620876 z"
         id="path7244" />
      <path
         style="fill:#f26f14;stroke-width:1.07865"
         d="m 5.3932585,172.27047 v -1.39244 l 5.4278045,-8.58509 5.427805,-8.58507 -5.427805,-0.32604 -5.4278045,-0.32603 v -1.02228 -1.02228 h 7.5505615 7.550562 v 0.85313 0.85311 l -5.393258,8.54095 -5.3932586,8.54095 v 0.8023 0.8023 l 5.3932586,-0.63876 5.393258,-0.63874 v 1.76822 1.76822 H 12.94382 5.3932585 Z m 17.2584275,0.93397 v -0.45848 l 3.923302,-10.92299 3.923302,-10.92298 2.130551,0.32529 2.130552,0.32528 3.653083,10.2472 3.653083,10.24719 9.29e-4,0.80899 9.29e-4,0.80898 h -1.444838 -1.444838 l -1.228666,-2.69662 -1.228667,-2.69663 h -4.760123 -4.760123 l -0.676811,2.69663 -0.676811,2.69662 H 24.249113 22.651686 Z M 34.751125,160.7191 33.02643,155.32585 h -0.666879 -0.666878 l -1.724695,5.39325 -1.724697,5.39326 h 4.11627 4.11627 z m 10.552247,1.61798 v -11.32584 h 5.932584 5.932584 v 1.07865 1.07865 h -4.314606 -4.314607 v 3.77528 3.77528 h 4.314607 4.314606 v 1.07866 1.07865 h -4.314606 -4.314607 v 4.3146 4.31461 h 4.314607 4.314606 v 1.07865 1.07865 h -5.932584 -5.932584 z m 24.808989,0 v -11.32584 h 5.855537 5.855539 l 1.695023,1.69502 1.695025,1.69503 v 1.30092 1.30093 l -1.598155,2.28168 -1.598156,2.28168 1.598156,1.32636 1.598155,1.32635 v 3.04271 3.04272 l -2.39731,1.67915 -2.39731,1.67913 h -5.153252 -5.153252 z m 10.570787,7.87416 1.294382,-1.29438 v -1.9647 -1.9647 l -2.627844,-1.19733 -2.627844,-1.19732 -1.686763,0.64728 -1.686763,0.64726 v 3.09004 3.09003 l 0.719101,0.7191 0.719101,0.7191 h 2.301124 2.301124 z m 0.08631,-11.40763 1.025142,-1.9155 -1.040789,-1.85978 -1.040784,-1.85979 H 76.53067 73.348313 v 3.77528 3.77528 h 3.198004 3.198004 l 1.025142,-1.91549 z m 7.679979,13.9136 v -0.94573 l 3.648646,-10.11045 3.648646,-10.11047 2.117306,-0.32285 2.117305,-0.32284 3.56421,10.03071 3.5642,10.03072 0.49311,1.34831 0.49312,1.34831 h -1.76008 -1.76008 l -1.02526,-2.69662 -1.02525,-2.69663 h -4.860085 -4.86008 l -0.676811,2.69663 -0.676811,2.69662 h -1.50104 -1.501043 z m 12.512823,-9.25391 -0.66487,-2.64905 -1.202731,-3.01387 -1.202725,-3.01386 -1.351941,3.23595 -1.351941,3.23596 -0.745366,2.42697 -0.745366,2.42696 h 3.964903 3.964907 z m 13.37482,6.39742 v -3.80221 l -3.78884,-7.52363 -3.78884,-7.52364 1.9012,0.0255 1.9012,0.0255 2.52634,5.6375 2.52636,5.6375 2.82034,-5.66293 2.82032,-5.66292 h 1.3949 1.39489 v 0.57009 0.57008 l -3.23596,6.4104 -3.23595,6.41039 v 4.34536 4.34537 h -1.61798 -1.61798 v -3.8022 z m 14.02247,-7.52364 v -11.32584 h 5.93259 5.93258 v 1.07865 1.07865 h -4.31461 -4.3146 v 3.77528 3.77528 h 3.77528 3.77528 v 1.07866 1.07865 h -3.77528 -3.77528 v 4.3146 4.31461 h 4.3146 4.31461 v 1.07865 1.07865 h -5.93258 -5.93259 z m 16.17978,0 v -11.32584 h 5.31621 5.31621 l 1.69503,1.69502 1.69502,1.69503 v 2.4524 2.4524 l -1.88764,1.64441 -1.88764,1.6444 -1.41804,0.43366 -1.41803,0.43365 3.89441,5.10036 3.89441,5.10035 h -2.02385 -2.02387 l -3.68847,-5.12359 -3.68847,-5.1236 -0.32876,5.1236 -0.32876,5.12359 h -1.55888 -1.55888 z m 7.24517,-1.20985 2.39124,-0.64105 0.66417,-2.09261 0.66417,-2.0926 -1.29985,-1.56621 -1.29984,-1.56622 h -2.56455 -2.56456 v 4.31461 4.31461 l 0.80899,-0.0148 0.80899,-0.0148 2.39124,-0.64106 z m 12.17056,1.20985 v -11.32584 h 2.1429 2.14291 l 5.13799,8.85366 5.138,8.85366 0.31328,-8.85366 0.31328,-8.85366 h 1.57436 1.57436 v 11.32584 11.32584 h -2.53508 -2.53509 l -5.28514,-9.42734 -5.28514,-9.42735 -0.31166,9.42735 -0.31166,9.42734 h -1.03665 -1.03666 z m -11.62769,-38.36789 -27.26814,-0.6358 -1.2622,-1.2622 -1.2622,-1.2622 h 28.26068 28.26067 v -1.21072 -1.21073 l 1.61798,1.3428 1.61798,1.3428 v 1.3705 1.3705 l -1.34832,0.39542 -1.34831,0.39543 z m 26.16037,-7.52191 -0.63752,-1.03155 h -26.83898 -26.83898 l -0.66664,-1.07865 -0.66664,-1.07865 h 28.1086 28.1086 v -1.21072 -1.21074 l 1.61798,1.34281 1.61798,1.3428 v 1.3705 1.37049 l -1.58343,0.60763 -1.58344,0.60762 z m 0.56844,-7.53731 v -1.0448 h -28.1086 -28.1086 l 0.66664,-1.07865 0.66664,-1.07865 h 27.44197 27.44195 v -1.0448 -1.0448 l 1.61798,0.62088 1.61798,0.62087 v 1.9265 1.92649 l -1.61798,0.62089 -1.61798,0.62087 z m 0,-7.55056 v -1.0448 h -28.04494 -28.04495 v -1.078653 -1.078652 h 28.04495 28.04494 v -1.044798 -1.044798 l 1.61798,0.620876 1.61798,0.620876 v 1.926496 1.926493 l -1.61798,0.62088 -1.61798,0.62088 z m 0,-7.550565 v -1.044798 h -28.1086 -28.1086 l 0.66664,-1.078652 0.66664,-1.078652 h 27.44197 27.44195 v -1.044798 -1.044798 l 1.61798,0.620876 1.61798,0.620876 v 1.926496 1.926496 l -1.61798,0.620876 -1.61798,0.620876 z m 0,-7.384633 v -1.210727 h -28.1086 -28.1086 l 0.66664,-1.078652 0.66664,-1.078652 20.16107,-0.06668 20.16106,-0.06668 7.72199,-0.775047 7.72199,-0.775046 1.17688,0.392294 1.17689,0.392295 v 1.396015 1.396014 l -1.61798,1.342794 -1.61798,1.342802 z M 151.2809,77.920166 122.96629,77.627104 v -0.912958 -0.912959 l 9.97753,-0.676675 9.97753,-0.676675 19.41573,-0.151474 19.41573,-0.151474 v 1.938793 1.938791 l -1.07865,0.09537 -1.07865,0.09538 -28.31461,-0.293063 z m 0,-7.550562 -28.31461,-0.293062 v -1.600068 -1.600068 l 28.04495,-0.161798 28.04494,-0.161798 1.34832,-0.107865 1.34831,-0.107865 v 2.067416 2.067415 l -1.07865,0.09537 -1.07865,0.09538 -28.31461,-0.293063 z m 0.80899,-7.53659 -27.50562,-0.280505 -1.52868,-0.570042 -1.52868,-0.570042 0.99494,-0.994944 0.99495,-0.994944 29.118,-0.149464 29.11801,-0.149466 v 1.898872 1.89887 l -1.07865,0.09609 -1.07865,0.09609 z M 151.2809,55.26848 122.96629,54.975418 v -1.600067 -1.600069 l 28.04495,-0.161798 28.04494,-0.161798 1.34832,-0.107865 1.34831,-0.107865 v 2.067416 2.067415 l -1.07865,0.09537 -1.07865,0.09537 -28.31461,-0.293063 z m 0.80899,-7.870095 -27.50562,-0.711461 -1.02472,-0.15245 -1.02472,-0.152451 1.02958,-1.029574 1.02957,-1.029574 28.57942,-0.151807 28.57941,-0.151809 v 1.900483 1.900483 l -1.07865,0.144811 -1.07865,0.144812 z m 26.57337,-7.162089 -0.60383,-0.603828 -5.70386,-0.230116 -5.70388,-0.230116 -21.8427,-0.170388 -21.8427,-0.170387 V 37.75281 36.674158 h 28.04495 28.04494 v -1.210727 -1.210726 l 1.61798,1.342801 1.61798,1.342802 v 1.370499 1.370498 l -1.51252,0.58041 -1.51253,0.580409 z m -0.17552,-7.923854 -0.63752,-1.031543 h -27.44197 -27.44196 v -1.078651 -1.078652 h 28.04495 28.04494 V 28.078798 27.034 l 1.61798,0.620876 1.61798,0.620876 v 1.926496 1.926495 l -1.58343,0.607621 -1.58344,0.607621 z m 0.56844,-7.537306 v -1.044798 h -27.44195 -27.44197 l -0.66664,-1.078652 -0.66664,-1.078652 h 28.1086 28.1086 v -1.044798 -1.044798 l 1.61798,0.620876 1.61798,0.620876 v 1.926496 1.926496 l -1.61798,0.620876 -1.61798,0.620876 z m 0,-7.550562 v -1.044798 l -28.85393,-0.01652 -28.85393,-0.01652 1.61797,-1.045617 1.61798,-1.045617 27.23596,-0.01652 27.23595,-0.01652 v -1.044798 -1.044798 l 1.61798,0.620876 1.61798,0.620876 v 1.926496 1.926496 l -1.61798,0.620876 -1.61798,0.620876 z"
         id="path7242" />
      <path
         style="fill:#ef4a1a;stroke-width:1.07865"
         d="m 5.3934039,172.31461 1.453e-4,-1.34831 5.3931138,-8.41728 5.393113,-8.41728 v -0.4816 -0.4816 H 10.786517 5.3932585 v -1.07865 -1.07865 h 7.5505615 7.550562 v 0.94025 0.94026 l -5.393258,8.26164 -5.3932586,8.26164 v 1.0453 1.04529 h 5.3932586 5.393258 v 1.07865 1.07865 H 12.94382 5.3932585 Z m 17.5205881,0 0.493115,-1.34831 3.545178,-9.97753 3.545179,-9.97753 h 1.878833 1.878832 l 1.172261,2.96629 1.17226,2.96629 2.733884,7.40933 2.733883,7.40932 v 0.95023 0.95022 h -1.597428 -1.597427 l -0.67681,-2.69662 -0.676811,-2.69663 h -5.15939 -5.159389 l -0.676811,2.69663 -0.676811,2.69662 H 24.133709 22.420878 Z M 34.751125,160.7191 33.02643,155.32585 h -0.666879 -0.666878 l -1.724695,5.39325 -1.724697,5.39326 h 4.11627 4.11627 z m 10.552247,1.61798 v -11.32584 h 5.932584 5.932584 v 1.07865 1.07865 h -4.314606 -4.314607 v 3.77528 3.77528 h 4.314607 4.314606 v 1.07866 1.07865 h -4.314606 -4.314607 v 4.3146 4.31461 h 4.314607 4.314606 v 1.07865 1.07865 h -5.932584 -5.932584 z m 24.808989,0 v -11.32584 h 5.765406 5.765408 l 2.027108,2.23993 2.027109,2.23993 -1.774605,3.09207 -1.774604,3.09206 1.532651,1.27199 1.532651,1.27199 v 3.04271 3.04272 l -2.39731,1.67915 -2.39731,1.67913 h -5.153252 -5.153252 z m 10.570787,7.87416 1.294382,-1.29438 v -1.90363 -1.90361 l -2.086392,-1.11661 -2.086391,-1.1166 h -2.228216 -2.228215 v 4.3146 4.31461 h 3.020225 3.020225 z m 0.252631,-11.71839 1.191455,-2.22625 -1.28558,-1.54903 -1.285578,-1.54903 h -3.10388 -3.10388 v 3.77528 3.77528 h 3.198004 3.198004 z m 7.513661,14.22436 v -0.94573 l 3.648646,-10.11045 3.648646,-10.11047 2.129586,-0.32445 2.129582,-0.32446 3.31778,9.493 3.31778,9.49299 0.72726,1.88764 0.72726,1.88764 h -1.76008 -1.76008 l -1.02526,-2.69662 -1.02525,-2.69663 h -4.860082 -4.86008 l -0.676811,2.69663 -0.676811,2.69662 H 89.950483 88.44944 Z m 12.51282,-9.25391 -0.66487,-2.64905 -1.202728,-3.01387 -1.202725,-3.01386 -1.351941,3.23595 -1.351941,3.23596 -0.745366,2.42697 -0.745366,2.42696 h 3.964903 3.964904 z m 13.37482,6.39742 v -3.80221 l -3.78884,-7.52363 -3.78884,-7.52364 h 1.61336 1.61337 l 2.86565,5.65507 2.86564,5.65507 2.76888,-5.65507 2.76886,-5.65507 h 1.3949 1.39489 v 0.57009 0.57008 l -3.23596,6.41039 -3.23595,6.4104 v 4.34535 4.34537 h -1.61798 -1.61798 z m 14.02247,-7.52364 v -11.32584 h 5.93259 5.93258 v 1.07865 1.07865 h -4.31461 -4.3146 v 3.77528 3.77528 h 3.77528 3.77528 v 1.07866 1.07865 h -3.77528 -3.77528 v 4.3146 4.31461 h 4.3146 4.31461 v 1.07865 1.07865 h -5.93258 -5.93259 z m 16.17978,0 v -11.32584 h 5.22608 5.22608 l 1.98189,2.18996 1.98189,2.18997 -1.02363,2.91071 -1.02364,2.9107 -2.4174,1.20521 -2.4174,1.2052 3.83304,5.01997 3.83303,5.01996 h -2.02385 -2.02387 l -3.68847,-5.12359 -3.68847,-5.1236 -0.32876,5.1236 -0.32876,5.12359 h -1.55888 -1.55888 z m 9.09149,-2.23435 1.69503,-1.69503 v -1.32519 -1.3252 l -1.29439,-1.29439 -1.29438,-1.29438 h -2.4809 -2.4809 v 4.31461 4.31461 h 2.08026 2.08025 z m 10.32424,2.15933 V 150.8612 l 2.32729,0.34468 2.32727,0.34468 5.22329,9.1243 5.22327,9.12428 v -9.39395 -9.39395 h 1.61798 1.61798 v 11.32584 11.32584 h -2.53508 -2.53509 l -5.28514,-9.42734 -5.28514,-9.42735 -0.31166,9.42735 -0.31166,9.42734 h -1.03665 -1.03666 z m 10.24719,-38.34106 -5.39326,-0.76571 -7.2809,-0.0945 -7.2809,-0.0945 v -1.07865 -1.07865 l 12.4045,-0.1618 12.40449,-0.16179 1.33354,-0.10787 1.33355,-0.10786 0.33739,1.75191 0.33738,1.75192 -1.40127,0.45661 -1.40126,0.4566 z m 4.85393,-7.46046 v -1.04481 h -12.40449 -12.4045 v -1.07865 -1.07865 h 12.4045 12.40449 v -1.21072 -1.21074 l 1.61798,1.34281 1.61798,1.3428 v 1.3705 1.37049 l -1.61798,0.62089 -1.61798,0.62087 z m 0,-7.55057 v -1.0448 h -12.40449 -12.4045 v -1.07865 -1.07865 h 12.4045 12.40449 v -1.0448 -1.0448 l 1.61798,0.62088 1.61798,0.62087 v 1.9265 1.92649 l -1.61798,0.62089 -1.61798,0.62087 z m 0,-7.55056 v -1.0448 h -12.40449 -12.4045 v -1.078653 -1.078652 h 12.4045 12.40449 v -1.044798 -1.044798 l 1.61798,0.620876 1.61798,0.620876 v 1.926496 1.926493 l -1.61798,0.62088 -1.61798,0.62088 z m 0,-7.384636 v -1.210727 h -12.40449 -12.4045 v -1.078652 -1.078652 h 12.4045 12.40449 v -1.044798 -1.044798 l 1.61798,0.620876 1.61798,0.620876 v 1.370499 1.370499 l -1.61798,1.342801 -1.61798,1.342802 z m -12.13483,-8.48814 -12.67416,-0.341612 v -1.04442 -1.044421 h 11.64944 11.64944 l 1.03374,-1.033735 1.03373,-1.033736 1.49648,0.924873 1.49647,0.924873 -0.66265,1.72684 -0.66265,1.72684 -0.84284,-0.231945 -0.84284,-0.231945 z m 0,-7.550562 -12.67416,-0.341612 v -1.04442 -1.044421 l 7.2809,-0.07874 7.2809,-0.07874 5.64601,-0.804357 5.64601,-0.804356 1.25274,0.774239 1.25274,0.774238 -0.66265,1.726841 -0.66265,1.726834 -0.84284,-0.231946 -0.84284,-0.231945 z m 0,-7.56277 -12.67416,-0.329404 v -1.583746 -1.583746 l 12.4045,-0.161798 12.40449,-0.161798 1.34832,-0.107865 1.34831,-0.107865 v 2.067416 2.067415 l -1.07865,0.115397 -1.07865,0.115398 z m 0,-7.550562 -12.67416,-0.329404 V 60.90959 59.325844 l 12.4045,-0.161798 12.40449,-0.161798 1.34832,-0.107865 1.34831,-0.107865 v 2.067416 2.067415 l -1.07865,0.115398 -1.07865,0.115397 z m 0,-7.550562 -12.67416,-0.329404 v -1.583746 -1.583746 l 12.4045,-0.161798 12.40449,-0.161798 1.34832,-0.107865 1.34831,-0.107865 v 2.067416 2.067415 l -1.07865,0.115398 -1.07865,0.115397 z m 0.40178,-7.997975 -12.27237,-0.807719 -0.58156,-0.581556 -0.58155,-0.581556 0.45539,-0.455396 0.4554,-0.455396 13.47718,-0.270439 13.47719,-0.270439 0.32262,1.668762 0.32261,1.668764 -1.40127,0.446347 -1.40126,0.446348 z m 11.16461,-7.411199 -0.63752,-1.031543 H 166.0487 154.24719 V 37.75281 36.674158 h 12.4045 12.40449 v -1.210727 -1.210726 l 1.61798,1.342801 1.61798,1.342802 v 1.370499 1.370498 l -1.58343,0.607621 -1.58344,0.607621 z m 0.56844,-7.537306 v -1.044799 h -12.40449 -12.4045 v -1.078651 -1.078652 h 12.4045 12.40449 v -1.210727 -1.210726 l 1.61798,1.342801 1.61798,1.342802 v 1.370499 1.370498 l -1.61798,0.620877 -1.61798,0.620876 z m 0,-7.550562 v -1.044798 h -12.40449 -12.4045 v -1.078652 -1.078652 h 12.4045 12.40449 v -1.044798 -1.044798 l 1.61798,0.620876 1.61798,0.620876 v 1.926496 1.926496 l -1.61798,0.620876 -1.61798,0.620876 z m 0,-7.550562 v -1.044798 h -12.40449 -12.4045 v -1.078652 -1.078652 h 12.4045 12.40449 v -1.044798 -1.044798 l 1.61798,0.620876 1.61798,0.620876 v 1.926496 1.926496 l -1.61798,0.620876 -1.61798,0.620876 z"
         id="path7240" />
    </g>
  </g>
</svg>
