<?xml version="1.0" encoding="utf-8"?>
<!-- Generator: Adobe Illustrator 24.3.0, SVG Export Plug-In . SVG Version: 6.00 Build 0)  -->
<svg version="1.1" id="Layer_1" xmlns="http://www.w3.org/2000/svg" xmlns:xlink="http://www.w3.org/1999/xlink" x="0px" y="0px"
	 viewBox="0 0 288 225.82" style="enable-background:new 0 0 288 225.82;" xml:space="preserve">
<g>
	<path d="M104.81,103.24h-9.14v3.67h8.39v3h-8.39v4.44h9.56v3.11H92.14v-17.27h12.67V103.24z"/>
	<path d="M119.51,100.18h5.19v17.27h-3.36v-11.68c0-0.34,0-0.81,0.01-1.41s0.01-1.07,0.01-1.4l-3.27,14.5h-3.51l-3.25-14.5
		c0,0.33,0,0.79,0.01,1.4s0.01,1.08,0.01,1.41v11.68h-3.36v-17.27h5.25l3.14,13.58L119.51,100.18z"/>
	<path d="M140.59,100.18v3.06h-5.17v14.21h-3.63v-14.21h-5.19v-3.06H140.59z"/>
	<path d="M154.3,109.98c-1.01,0.84-2.46,1.27-4.33,1.27h-3.6v6.21h-3.59v-17.27h7.42c1.71,0,3.07,0.45,4.09,1.34
		c1.02,0.89,1.53,2.27,1.53,4.14C155.81,107.69,155.31,109.14,154.3,109.98z M151.54,103.76c-0.46-0.38-1.1-0.57-1.92-0.57h-3.25
		v5.09h3.25c0.82,0,1.46-0.21,1.92-0.62s0.69-1.07,0.69-1.97S152,104.14,151.54,103.76z"/>
	<path d="M157.43,109.18h6.54v3.16h-6.54V109.18z"/>
	<path d="M177.77,100.63c0.64,0.27,1.17,0.68,1.62,1.21c0.37,0.44,0.66,0.92,0.87,1.45s0.32,1.14,0.32,1.82
		c0,0.82-0.21,1.63-0.62,2.42s-1.1,1.35-2.05,1.68c0.8,0.32,1.36,0.78,1.69,1.37s0.5,1.49,0.5,2.7v1.16c0,0.79,0.03,1.32,0.1,1.61
		c0.09,0.45,0.32,0.77,0.67,0.98v0.43h-3.98c-0.11-0.38-0.19-0.69-0.23-0.93c-0.09-0.48-0.14-0.98-0.15-1.49l-0.02-1.61
		c-0.01-1.1-0.21-1.84-0.57-2.2c-0.37-0.37-1.05-0.55-2.06-0.55h-3.53v6.77h-3.53v-17.27h8.26
		C176.22,100.21,177.13,100.35,177.77,100.63z M170.31,103.18v4.64h3.88c0.77,0,1.35-0.09,1.74-0.28c0.68-0.33,1.02-0.98,1.02-1.95
		c0-1.05-0.33-1.75-0.99-2.11c-0.37-0.2-0.93-0.3-1.67-0.3H170.31z"/>
	<path d="M193.72,100.18h3.75l-5.89,17.27h-3.41l-5.84-17.27h3.86l3.75,13.11L193.72,100.18z"/>
</g>
</svg>
