<svg xmlns="http://www.w3.org/2000/svg" role="img" viewBox="8.00 230.00 624.00 229.00"><style>svg {enable-background:new 0 0 652 652}</style><style>.st4{fill:#2c3779}.st5{fill:#26316d}</style><g id="Layer_1"><path id="path240" fill="#4a4a89" d="M506.9 284.1c-20 10.6-34.8 28.4-35 45.1.3 19.9 20.9 41.2 46.8 50.3-2.2-15.8-11.7-79.8-11.8-95.4z"/><path id="path242" fill="#24316a" d="M578.9 298.7c-18.2-6.1-39.6-1.7-54.6 13.1-5.2 5.3-9 11.4-11.6 17.7 12.7 17.5 36.5 29.9 58 29.9 3.1 0 6.1-.3 8.9-.6 5-8.3 8.1-18.2 8.1-29.5.1-11.8-3.2-22.2-8.8-30.6z"/><path id="path244" fill="#9899c6" d="M578.7 298.9c7.2 2.3 10.9 7.8 16.5 13.3 6.2 6.2 14.4 13.3 17.7 22.6 4.7-8.8 7.2-19.7 7.2-32.3 0-35.2-16.5-74.5-70.3-55.1-26.6 9.7-38.1 24.3-42.9 36.6 5.8-3.1 12.8-3.2 19.3-4.9 19.6-5.1 40.6 1.7 52.5 19.8z"/><path id="path246" fill="#515ca2" d="M579.4 358.4c-14.6 18-33.6 28.2-53.5 22.8-2.3-.6-4.9-.9-7.1-1.7 1.6 2.1 3.1 4 5 5.8 19.7 19.7 61.2 28.1 82 7.5 14-14.2 14.6-38 7.2-57.9-6.9 13-20.5 19.2-33.6 23.5z"/><path id="path248" d="M578.7 298.9c5.4 8.4 8.8 18.6 8.8 30.3 0 11.1-3.1 21.1-8.1 29.2 15-2.3 26.6-10.5 33.6-23.5-3.4-9.3-8.5-17.7-14.7-24-5.8-5.6-12.4-9.5-19.6-12z" class="st4"/><path id="path250" d="M504.2 306.6c.5 8.1 3.9 15.9 8.9 23 2.6-6.3 6.5-12.4 11.6-17.6 14.9-14.6 35.9-18.9 54-12.9-11.9-18.2-33.7-27.4-53.3-22.1-6.5 1.7-12.7 4.1-18.5 7.2-4.8 12.3-2.7 22.4-2.7 22.4z" class="st4"/><path id="path252" d="M579.4 358.4c-2.8.4-5.7.6-8.8.6-21.5 0-45-12.3-57.5-29.6-6.7 16.5-4.9 35.7 5.7 50.2 2.2.8 4.5 1.6 6.7 2.1 19.9 5.4 42.2-4.3 53.9-23.3z" class="st4"/><path id="path254" d="M79.6 343.8l14.1 1.7c-2.2 8.3-6.3 14.6-12.3 19.1-5.9 4.5-13.7 6.9-23 6.9-11.8 0-21.1-3.6-27.9-10.9s-10.3-17.5-10.3-30.5c0-13.6 3.5-24 10.5-31.5s16-11.2 27.1-11.2c10.7 0 19.5 3.6 26.4 11 6.9 7.4 10.2 17.6 10.2 30.9 0 .8 0 2.1-.1 3.6H34.1c.5 8.8 3 15.6 7.5 20.3s10.1 7 16.8 7c5 0 9.3-1.3 12.8-3.9 3.5-2.7 6.4-6.8 8.4-12.5zm-44.7-22h44.9c-.6-6.7-2.3-11.9-5.2-15.3-4.4-5.3-10-7.9-16.9-7.9-6.2 0-11.5 2.1-15.8 6.3-4.2 4.2-6.5 9.8-7 16.9z" class="st5"/><path id="path256" d="M129.4 369.6v-80.4h12.3v11.4c5.9-8.8 14.5-13.2 25.6-13.2 4.8 0 9.3.9 13.3 2.6 4 1.7 7.1 4 9.2 6.9s3.5 6.2 4.3 10.1c.5 2.6.8 7 .8 13.2v49.4h-13.6v-48.7c0-5.6-.5-9.7-1.6-12.4-1-2.7-3-4.9-5.7-6.6-2.7-1.7-5.8-2.5-9.4-2.5-5.8 0-10.9 1.8-15 5.6-4.3 3.7-6.3 10.7-6.3 20.9v44h-13.8v-.3z" class="st5"/><path id="path258" d="M264 357.5l1.9 12c-3.9.8-7.2 1.2-10.3 1.2-4.9 0-8.8-.8-11.5-2.3-2.7-1.6-4.7-3.6-5.7-6.2-1.2-2.6-1.7-7.9-1.7-16v-46.3h-10v-10.6h10v-19.9l13.6-8.1v28.1H264V300h-13.7v47.1c0 3.9.3 6.3.8 7.5s1.3 1.9 2.3 2.7c1 .6 2.6 1 4.7 1 1.5-.3 3.4-.4 5.9-.8z" class="st5"/><path id="path260" d="M290.5 345.7l13.4-2.1c.8 5.4 2.8 9.6 6.3 12.4 3.5 2.8 8.3 4.3 14.5 4.3s10.9-1.3 14-3.9c3-2.6 4.5-5.6 4.5-8.9 0-3.1-1.3-5.6-4-7.2-1.8-1.2-6.5-2.7-14-4.7-10-2.5-16.9-4.7-20.8-6.6-3.9-1.8-6.7-4.4-8.8-7.6-1.9-3.2-3-6.9-3-10.7 0-3.6.8-6.9 2.5-10 1.7-3.1 3.9-5.6 6.7-7.6 2.1-1.6 5-2.8 8.7-4 3.6-1 7.6-1.7 11.8-1.7 6.3 0 11.9.9 16.7 2.7 4.8 1.8 8.3 4.3 10.6 7.4 2.3 3.1 3.9 7.2 4.7 12.4l-13.3 1.8c-.6-4.1-2.3-7.4-5.3-9.7-2.8-2.3-7-3.5-12.3-3.5-6.2 0-10.7 1-13.4 3.1-2.7 2.1-4 4.5-4 7.2 0 1.8.5 3.4 1.7 4.8s2.8 2.7 5.2 3.6c1.4.5 5.4 1.7 12 3.5 9.7 2.6 16.4 4.7 20.2 6.3s6.9 4 8.9 7.1c2.2 3.1 3.2 7 3.2 11.6 0 4.5-1.3 8.8-4 12.8-2.6 4-6.5 7.1-11.5 9.3-5 2.2-10.6 3.2-16.9 3.2-10.5 0-18.4-2.2-23.9-6.5-5.4-3.9-8.9-10.2-10.4-18.8z" class="st5"/><path id="path262" d="M387.1 329.4c0-14.9 4.1-25.9 12.4-33.1 6.9-5.9 15.4-8.9 25.3-8.9 11 0 20 3.6 27.1 10.9 7 7.2 10.5 17.2 10.5 30 0 10.3-1.6 18.5-4.7 24.4-3.1 5.9-7.6 10.5-13.6 13.8-5.9 3.2-12.4 4.9-19.4 4.9-11.2 0-20.3-3.6-27.3-10.9-7-7-10.3-17.5-10.3-31.1zm13.9 0c0 10.3 2.2 18 6.7 23.1 4.5 5.2 10.1 7.6 16.9 7.6 6.7 0 12.4-2.6 16.9-7.8 4.5-5.2 6.7-13.1 6.7-23.5 0-10-2.2-17.5-6.7-22.6-4.5-5.2-10.1-7.6-16.8-7.6-6.9 0-12.4 2.6-16.9 7.6-4.6 5.3-6.8 13-6.8 23.2z" class="st5"/><path id="path264" fill="#fcc40f" d="M557.2 343.8l14.1 1.7c-2.2 8.3-6.3 14.6-12.3 19.1-5.9 4.5-13.7 6.9-23 6.9-11.8 0-21.1-3.6-27.9-10.9-6.9-7.2-10.3-17.5-10.3-30.5 0-13.6 3.5-24 10.5-31.5s16-11.2 27.1-11.2c10.7 0 19.5 3.6 26.4 11 6.9 7.4 10.2 17.6 10.2 30.9 0 .8 0 2.1-.1 3.6h-60c.5 8.8 3 15.6 7.5 20.3s10.1 7 16.8 7c5 0 9.3-1.3 12.8-3.9 3.3-2.6 6.1-6.8 8.2-12.5zm-44.7-22h44.9c-.6-6.7-2.3-11.9-5.2-15.3-4.4-5.3-10-7.9-16.9-7.9-6.2 0-11.5 2.1-15.8 6.3-4.2 4.2-6.7 9.8-7 16.9z"/></g><path d="M74.97006 420.43086c-2.10892 2.12632-3.16556 5.16144-3.16556 9.0923 0 3.63953.93054 6.50506 2.78291 8.59224 1.85673 2.07849 4.40483 3.11773 7.64431 3.11773 2.61768 0 4.76574-.76965 6.44418-2.30895 1.6741-1.53495 2.7177-3.53516 3.12643-5.99195h-4.66138c-.31742 1.161-.71312 2.035-1.19578 2.61332-.8653 1.08273-2.12197 1.62192-3.77432 1.62192-1.60887 0-2.93945-.6305-3.98304-1.88716-1.0436-1.261-1.5654-3.15252-1.5654-5.67888 0-2.52636.49571-4.4831 1.48278-5.86151.98706-1.38276 2.33938-2.07414 4.05261-2.07414 1.67845 0 2.94815.49136 3.80477 1.46973.4783.54788.86966 1.36536 1.17838 2.44374h4.70487c-.06958-1.4045-.59137-2.80465-1.5567-4.2048-1.75236-2.48289-4.52658-3.7265-8.3183-3.7265-2.83074 0-5.16577.92619-7.00076 2.78291zm6.86597-3.0438zm17.86716 23.21992v-22.5329h-4.67442v22.5329zm-2.33503-22.97642zm21.65888.44352l-4.06566 17.71933-4.0961-17.71933h-6.84857v22.5329h4.38743v-15.2408c0-.43917-.00435-1.05228-.0174-1.84368-.00869-.78704-.01304-1.3958-.01304-1.82628l4.23525 18.91076h4.57006l4.26568-18.91076c0 .43048-.00434 1.03924-.01739 1.82628-.0087.7914-.01304 1.4045-.01304 1.84368v15.2408h4.38743v-22.5329zm13.33189 2.35678c-2.10893 2.12632-3.16557 5.16144-3.16557 9.0923 0 3.63953.9262 6.50506 2.78292 8.59224 1.85237 2.07849 4.40048 3.11773 7.6443 3.11773 2.61768 0 4.76574-.76965 6.44419-2.30895 1.6741-1.53495 2.71769-3.53516 3.12643-5.99195h-4.66573c-.31308 1.161-.71312 2.035-1.19143 2.61332-.86532 1.08273-2.12632 1.62192-3.77433 1.62192-1.61322 0-2.93945-.6305-3.98304-1.88716-1.0436-1.261-1.56539-3.15252-1.56539-5.67888 0-2.52636.49136-4.4831 1.48277-5.86151.98707-1.38276 2.33504-2.07414 4.04827-2.07414 1.68279 0 2.9525.49136 3.8091 1.46973.47832.54788.86967 1.36536 1.17405 2.44374h4.7092c-.06956-1.4045-.59136-2.80465-1.56103-4.2048-1.75237-2.48289-4.52223-3.7265-8.31395-3.7265-2.8351 0-5.16578.92619-7.00076 2.78291zm6.86161-3.0438zm23.61997 18.789c-.68268.90444-1.66105 1.36102-2.9351 1.36102s-2.25677-.45658-2.9438-1.36102c-.68703-.9088-1.03055-2.1959-1.03055-3.86999 0-1.66975.34352-2.95684 1.03055-3.86129.68703-.9001 1.66975-1.35232 2.9438-1.35232s2.25242.45222 2.9351 1.35232c.68268.90445 1.0262 2.19154 1.0262 3.86129 0 1.6741-.34352 2.9612-1.0262 3.86999zm3.48734 2.4046c1.4045-1.73496 2.10892-3.8265 2.10892-6.27459 0-2.4046-.70442-4.48745-2.10892-6.25285-1.40885-1.76107-3.54387-2.64377-6.40505-2.64377-2.86553 0-5.00054.8827-6.4094 2.64377-1.4045 1.7654-2.10892 3.84824-2.10892 6.25285 0 2.4481.70443 4.53963 2.10893 6.2746 1.40885 1.73932 3.54386 2.60898 6.40939 2.60898 2.86118 0 4.9962-.86966 6.40505-2.60898zm-6.40505-15.0799zm25.0897 1.40016c-1.09578-.90445-2.50463-1.35233-4.22656-1.35233-1.37406 0-2.50897.33482-3.40906 1.00881-.50006.37395-1.0262.99141-1.58713 1.84803v-2.4307h-4.2048v16.63225h4.3396v-9.01838c0-1.03055.14349-1.87412.43048-2.5394.54788-1.25232 1.56538-1.87847 3.03946-1.87847 1.20448 0 2.0176.42613 2.4481 1.28275.2348.46961.3522 1.1436.3522 2.0176v10.1359h4.46136v-11.21862c0-2.09153-.54789-3.58735-1.64366-4.48744zm-5.83108-1.40016zm9.78368 3.7004h2.32634v10.25765c0 1.03924.2435 1.80889.73051 2.30894.7566.7827 2.1611 1.13926 4.2222 1.06969l2.0611-.07827v-3.25688a7.07548 7.07548 0 0 1-.43484.02609c-.14784.00435-.28698.0087-.42178.0087-.88705 0-1.4132-.08697-1.58713-.25655-.17393-.16524-.2609-.59137-.2609-1.27406v-8.8053h2.70464v-3.10469h-2.70464v-4.64398h-4.30916v4.64398h-2.32634zm16.367.83923c.55223-.6305 1.33493-.94793 2.34373-.94793.93054 0 1.70453.30003 2.33069.89575.6305.59572.97837 1.46972 1.04794 2.62202h-6.7703c.1435-1.08272.49135-1.93499 1.04794-2.56984zm6.09197-3.76128c-1.11317-.51745-2.36113-.77835-3.74824-.77835-2.33069 0-4.2309.76965-5.69192 2.30895-1.46538 1.5393-2.1959 3.75258-2.1959 6.6355 0 3.0786.81314 5.30058 2.4307 6.66595 1.62192 1.36537 3.49169 2.04805 5.60931 2.04805 2.56985 0 4.56572-.81313 5.9963-2.4307.9175-1.02185 1.4306-2.0263 1.54365-3.01337h-4.4483c-.23482.49136-.50441.874-.81314 1.14795-.56093.50875-1.2871.7653-2.18285.7653-.84791 0-1.56973-.20872-2.17415-.6305-.98706-.66964-1.5132-1.84368-1.57408-3.51343h11.40559c.02174-1.43929-.02609-2.5394-.13915-3.3047-.19132-1.3045-.61745-2.4481-1.2697-3.43951-.72182-1.11752-1.6393-1.93935-2.74812-2.46114zm-3.43951-.77835zm8.89662 17.10622h5.28753l2.89162-4.9962 2.87423 4.9962h5.42668l-5.68758-8.51398 5.47016-8.11827H227.965l-2.72204 4.83096-2.7829-4.83096h-5.33537l5.44407 8.19654zm17.33233-13.40581h2.32634v10.25764c0 1.03924.2435 1.80889.73486 2.30894.75226.7827 2.15676 1.13926 4.21785 1.06969l2.0611-.07827v-3.25688c-.13915.01304-.287.02174-.43484.02609-.14784.00435-.28698.0087-.41743.0087-.88706 0-1.41755-.08697-1.59148-.25655-.17393-.16524-.2609-.59137-.2609-1.27406v-8.8053h2.70464v-3.10469h-2.70464v-4.64398h-4.30916v4.64398h-2.32634zm22.55028 8.97489c-.68268.90444-1.66105 1.36102-2.9351 1.36102s-2.25677-.45658-2.9438-1.36102c-.68703-.9088-1.03055-2.1959-1.03055-3.86999 0-1.66975.34352-2.95684 1.03055-3.86129.68703-.9001 1.66975-1.35232 2.9438-1.35232s2.25242.45222 2.9351 1.35232c.68268.90445 1.0262 2.19154 1.0262 3.8613 0 1.67409-.34352 2.96118-1.0262 3.86998zm3.48734 2.4046c1.4045-1.73496 2.10892-3.8265 2.10892-6.27459 0-2.4046-.70442-4.48745-2.10892-6.25285-1.40885-1.76107-3.54387-2.64377-6.40505-2.64377-2.86553 0-5.00054.8827-6.4094 2.64377-1.4045 1.7654-2.10892 3.84824-2.10892 6.25285 0 2.4481.70443 4.53963 2.10893 6.2746 1.40885 1.73932 3.54386 2.60898 6.40939 2.60898 2.86118 0 4.9962-.86966 6.40505-2.60898zm-6.40505-15.0799zm20.88923.05218c-.05652-.00435-.1261-.00435-.20871-.00435-1.3045 0-2.36548.33917-3.17861 1.02185-.50006.40874-1.08708 1.1697-1.75672 2.27851v-2.90466h-4.16132v16.66269h4.38744v-7.96174c0-1.33928.16958-2.32634.5044-2.9699.60441-1.13925 1.77845-1.70887 3.53082-1.70887.1348 0 .30873.00435.5218.01304.21306.01305.45657.03044.73486.06088v-4.46136c-.19568-.01304-.32178-.0174-.37396-.02609zm18.13676 8.54006l2.90467-8.86618 2.81335 8.86618zm.29134-14.01892l-8.04436 22.5329h4.92663l1.55669-4.63094h8.3009l1.45234 4.63094h5.1049l-7.97913-22.5329zm2.62637 0zm26.63769 6.82684c-1.09577-.90445-2.50462-1.35233-4.22655-1.35233-1.37406 0-2.50897.33482-3.40907 1.00881-.50005.37395-1.0262.99141-1.58713 1.84803v-2.4307h-4.2048v16.63225h4.3396v-9.01838c0-1.03055.1435-1.87412.43048-2.5394.54789-1.25232 1.5654-1.87847 3.03946-1.87847 1.20448 0 2.01762.42613 2.4481 1.28275.2348.46961.35221 1.1436.35221 2.0176v10.1359h4.46136v-11.21862c0-2.09153-.54789-3.58735-1.64366-4.48744zm-5.83107-1.40016zm20.33265.71312c-.78704-.44352-1.6828-.66529-2.6916-.66529-2.19154 0-3.93956.81314-5.2484 2.44375-1.31318 1.63061-1.96543 3.86999-1.96543 6.71377 0 2.46549.6653 4.4831 1.99587 6.06153 1.32623 1.57409 2.96554 2.36113 4.91358 2.36113 1.18274 0 2.1698-.22611 2.96554-.67399.79574-.44787 1.50451-1.16534 2.12632-2.15675v2.30895h4.2309v-22.50246h-4.41788v7.9487c-.487-.7827-1.1262-1.3958-1.9089-1.83934zm1.06968 11.87086c-.64355.91315-1.57843 1.37407-2.81335 1.37407-1.23057 0-2.1524-.46092-2.75682-1.38276-.60876-.92184-.91314-2.15241-.91314-3.69171 0-1.42624.30003-2.62203.89574-3.58735.59572-.96097 1.5306-1.44363 2.80466-1.44363.83487 0 1.56973.26524 2.20024.79574 1.03055.874 1.548 2.33503 1.548 4.37004 0 1.46103-.32178 2.64811-.96533 3.5656zm20.4544-15.65388c-2.10892 2.12632-3.16556 5.16144-3.16556 9.0923 0 3.63953.92619 6.50506 2.78291 8.59224 1.85673 2.07849 4.40483 3.11773 7.64431 3.11773 2.61768 0 4.76574-.76965 6.44419-2.30895 1.6741-1.53495 2.71768-3.53516 3.12642-5.99195h-4.66572c-.31308 1.161-.71312 2.035-1.19144 2.61332-.8653 1.08273-2.12632 1.62192-3.77432 1.62192-1.61322 0-2.93945-.6305-3.98304-1.88716-1.0436-1.261-1.5654-3.15252-1.5654-5.67888 0-2.52636.49137-4.4831 1.48278-5.86151.98706-1.38276 2.33938-2.07414 4.04827-2.07414 1.68279 0 2.9525.49136 3.8091 1.46973.47832.54788.86967 1.36536 1.17405 2.44374h4.7092c-.06957-1.4045-.59136-2.80465-1.55669-4.2048-1.7567-2.48289-4.52658-3.7265-8.3183-3.7265-2.83074 0-5.16577.92619-7.00076 2.78291zm6.86162-3.0438zm17.87151 23.21992v-22.5329h-4.67877v22.5329zm-2.33938-22.97642zm21.66323.44352l-4.06566 17.71933-4.0961-17.71933h-6.84857v22.5329h4.38743v-15.2408c0-.43917-.0087-1.05228-.0174-1.84368-.00869-.78704-.01304-1.3958-.01304-1.82628l4.2309 18.91076h4.57441l4.26134-18.91076c0 .43048-.00435 1.03924-.01305 1.82628-.0087.7914-.0174 1.4045-.0174 1.84368v15.2408h4.38744v-22.5329zm14.55376 15.57996h-4.49614c0 2.34374.84357 4.18307 2.52201 5.52234 1.6828 1.34363 3.99174 2.01327 6.92684 2.01327 2.87423 0 5.09621-.68269 6.6703-2.0437 1.57843-1.35667 2.36547-3.0699 2.36547-5.12665 0-2.00891-.67399-3.54386-2.01761-4.6005-.86966-.68268-2.1524-1.23057-3.8526-1.63496l-3.88303-.93489c-1.50016-.35656-2.47853-.66529-2.9351-.93053-.71312-.40005-1.06968-1.00011-1.06968-1.80455 0-.87835.3609-1.56104 1.08273-2.04805.72616-.49135 1.69148-.73486 2.90466-.73486 1.09142 0 2.00457.18698 2.73508.56528 1.10447.56963 1.69584 1.53495 1.7741 2.88727h4.52659c-.08262-2.39156-.96098-4.21785-2.63942-5.47886-1.6741-1.25666-3.7004-1.88716-6.07458-1.88716-2.84378 0-5.00054.6653-6.46592 2.00022-1.46972 1.33928-2.20024 3.01337-2.20024 5.03098 0 2.21329.7566 3.83955 2.27416 4.8788.9001.6218 2.51767 1.19578 4.8614 1.72627l2.38722.53484c1.3958.30438 2.41765.6566 3.0699 1.05664.65224.40439.97837.98271.97837 1.72627 0 1.27405-.6566 2.14371-1.96978 2.61333-.69138.2435-1.59583.36526-2.70465.36526-1.85672 0-3.16556-.46092-3.93086-1.39146-.41744-.50875-.69573-1.2784-.83922-2.3046zm4.57006-16.26699zm13.22318 26.41593v3.48298c.46962.03479.82183.05218 1.05664.05653.23046.00435.54354.0087.93054.0087 1.9263 0 3.20904-.38265 3.85259-1.13926.64355-.76095 1.5132-2.72203 2.61333-5.8789l5.71801-16.38874h-4.63094l-3.4395 12.29264-3.63953-12.29264h-4.844l6.1137 17.39755c.03914.12175-.04783.45657-.26959 1.0088-.21742.54789-.45657.91315-.70877 1.08708-.26525.18263-.59137.30003-.97837.34786-.387.05218-.79574.06958-1.22187.04783zm5.90065-20.30222zm24.2983 1.40016c-1.09578-.90445-2.50462-1.35233-4.22655-1.35233-1.37406 0-2.51332.33482-3.40907 1.00881-.50005.37395-1.03055.99141-1.59148 1.84803v-2.4307h-4.20045v16.63225h4.3396v-9.01838c0-1.03055.1435-1.87412.43048-2.5394.54789-1.25232 1.56104-1.87847 3.03946-1.87847 1.20448 0 2.01761.42613 2.4481 1.28275.2348.46961.3522 1.1436.3522 2.0176v10.1359h4.46136v-11.21862c0-2.09153-.54788-3.58735-1.64365-4.48744zm-5.83107-1.40016zm9.78367 3.7004h2.322v10.25765c0 1.03924.24785 1.80889.73486 2.30894.75225.7827 2.1611 1.13926 4.21785 1.06969l2.06544-.07827v-3.25688a7.07548 7.07548 0 0 1-.43483.02609c-.14784.00435-.28699.0087-.42179.0087-.88705 0-1.41754-.08697-1.59147-.25655-.16959-.16524-.25655-.59137-.25655-1.27406v-8.8053h2.70464v-3.10469h-2.70464v-4.64398h-4.31352v4.64398h-2.32199zm21.32406 5.30493v1.62192c-.03043 1.45668-.43917 2.46114-1.23056 3.00902-.78705.55224-1.65236.82618-2.5916.82618-.59136 0-1.09141-.16524-1.5045-.4957-.4131-.33048-.61746-.86967-.61746-1.61323 0-.83487.33482-1.45233 1.0088-1.85237.3957-.23481 1.0523-.43048 1.96978-.59572l.97837-.18263c.49136-.09131.874-.19132 1.15665-.29568.27829-.10871.55658-.24786.83052-.42179zm-2.64376-2.035l-1.48277.18263c-1.6828.21741-2.95685.57397-3.82216 1.07403-1.57843.91749-2.36982 2.40026-2.36982 4.4483 0 1.57844.49136 2.80031 1.47407 3.66128.98707.86096 2.23068 1.29144 3.73954 1.29144 1.18274 0 2.24372-.2696 3.1786-.81313.78705-.45657 1.47843-1.01315 2.0785-1.6654.03043.3783.07392.71312.1261 1.0088.04783.29569.13914.61312.27394.94794h4.73965v-.64355c-.287-.13045-.50006-.30004-.64355-.5044-.1435-.20003-.23046-.58703-.2609-1.161-.0174-.75226-.03044-1.3958-.03044-1.9263v-7.63996c0-2.00892-.70877-3.37428-2.12197-4.10045-1.41755-.72182-3.03946-1.08273-4.8614-1.08273-2.80465 0-4.78313.73052-5.93543 2.20024-.72182.93924-1.13056 2.13502-1.22187 3.5917h4.2048c.10002-.64355.30439-1.1523.61312-1.52625.42613-.5131 1.15664-.7653 2.18284-.7653.9175 0 1.61322.13044 2.08719.387.47396.2609.71312.73486.71312 1.41754 0 .56093-.31308.96967-.93489 1.23492-.34351.15654-.92184.28264-1.72627.38265zm.23046-6.97033zm9.00098 17.10622h5.29188l2.88727-4.9962 2.87423 4.9962h5.42668l-5.68758-8.51398 5.4745-8.11827h-5.18316l-2.7177 4.83096-2.7829-4.83096h-5.33537l5.43973 8.19654zm28.78574-4.73096c-.70007.76965-1.56103 1.1523-2.58289 1.1523-1.52625 0-2.58723-.70007-3.1786-2.10892-.32613-.75226-.49136-1.61322-.49136-2.5829 0-1.12185.15654-2.06109.46092-2.82639.58267-1.43928 1.63496-2.15675 3.16556-2.15675 1.11751 0 2.01326.41309 2.6829 1.23926.6653.82618 1.00011 2.02631 1.00011 3.6091 0 1.67844-.35221 2.90466-1.05664 3.6743zm-1.48277-11.94478c-.6218-.25654-1.34797-.38265-2.18284-.38265-2.26547 0-4.01348.84357-5.24405 2.53071-1.23492 1.6828-1.85238 3.76563-1.85238 6.24416 0 2.5655.6392 4.6005 1.92195 6.10502 1.2784 1.5045 2.98728 2.25676 5.12665 2.25676 1.3871 0 2.51331-.33047 3.37863-.99576.4783-.35656.92618-.8914 1.34362-1.60452v1.06968c0 1.59148-.16958 2.72204-.51745 3.39603-.53049 1.04794-1.57843 1.57408-3.14817 1.57408-1.11316 0-1.9002-.20002-2.36982-.59572-.2783-.2261-.47396-.59137-.59572-1.10012h-4.73964c.14349 1.66105.88705 2.90902 2.23067 3.74389 1.34363.83487 3.08295 1.25231 5.21362 1.25231 3.52647 0 5.90934-.93923 7.15295-2.81335.72617-1.09142 1.08707-2.709 1.08707-4.8614v-15.80607h-4.23524v2.40026c-.65225-1.1697-1.50886-1.97848-2.56985-2.4133zm-.79139-.43048zm15.8887 4.53963c.55657-.6305 1.33927-.94793 2.34807-.94793.9262 0 1.70454.30003 2.3307.89575.62615.59572.97401 1.46972 1.04793 2.62202h-6.77465c.1435-1.08272.49136-1.93499 1.04794-2.56984zm6.09196-3.76128c-1.10882-.51745-2.36113-.77835-3.74389-.77835-2.33503 0-4.23524.76965-5.69627 2.30895s-2.19154 3.75258-2.19154 6.6355c0 3.0786.80878 5.30058 2.4307 6.66595 1.61757 1.36537 3.48733 2.04805 5.6093 2.04805 2.5655 0 4.56572-.81313 5.99196-2.4307.9175-1.02185 1.4306-2.0263 1.54365-3.01337h-4.44831c-.23481.49136-.5044.874-.80879 1.14795-.56093.50875-1.29144.7653-2.1872.7653-.84791 0-1.56973-.20872-2.1698-.6305-.9914-.66964-1.5132-1.84368-1.57408-3.51343h11.40125c.02174-1.43929-.0261-2.5394-.1348-3.3047-.19568-1.3045-.61746-2.4481-1.2697-3.43951-.72617-1.11752-1.64366-1.93935-2.75248-2.46114zm-3.4395-.77835zm23.99391 1.40016c-1.09577-.90445-2.50462-1.35233-4.22654-1.35233-1.37841 0-2.51332.33482-3.40907 1.00881-.50005.37395-1.03055.99141-1.59148 1.84803v-2.4307h-4.2048v16.63225h4.34395v-9.01838c0-1.03055.1435-1.87412.42613-2.5394.55223-1.25232 1.56539-1.87847 3.04381-1.87847 1.20013 0 2.01761.42613 2.44375 1.28275.2348.46961.3522 1.1436.3522 2.0176v10.1359h4.46571v-11.21862c0-2.09153-.54788-3.58735-1.64366-4.48744zm-5.83107-1.40016z"/></svg>