<?xml version="1.0" encoding="UTF-8" standalone="no"?>
<svg
   version="1.1"
   id="svg4"
   width="175.82812"
   height="11.53125"
   xmlns="http://www.w3.org/2000/svg"
   xmlns:svg="http://www.w3.org/2000/svg">
  <defs
     id="defs8" />
  <g
     aria-label="Environmental Footprint Data"
     id="text2"
     transform="translate(-1.171875,9.1171875)">
    <path
       d="M 6.9199219,0 H 1.171875 v -8.7246094 h 5.7480469 v 1.03125 H 2.3320313 v 2.390625 h 4.5878906 v 1.03125 H 2.3320313 V -1.03125 h 4.5878906 z"
       id="path10" />
    <path
       d="m 14.144531,0 h -1.101562 v -3.7265625 q 0,-0.4511719 -0.05274,-0.84375 Q 12.9375,-4.96875 12.796875,-5.1914062 12.650391,-5.4375 12.375,-5.5546875 q -0.275391,-0.1230469 -0.714844,-0.1230469 -0.451172,0 -0.943359,0.2226563 -0.492188,0.2226562 -0.9433595,0.5683594 V 0 H 8.671875 v -6.5449219 h 1.1015625 v 0.7265625 q 0.5156255,-0.4277343 1.0664065,-0.6679687 0.550781,-0.2402344 1.130859,-0.2402344 1.060547,0 1.617188,0.6386719 0.55664,0.6386719 0.55664,1.8398437 z"
       id="path12" />
    <path
       d="M 21.808594,-6.5449219 19.160156,0 h -1.107422 l -2.630859,-6.5449219 h 1.195312 l 2.027344,5.2089844 2.009766,-5.2089844 z"
       id="path14" />
    <path
       d="m 24.433594,-7.640625 h -1.242188 v -1.1425781 h 1.242188 z M 24.363281,0 h -1.101562 v -6.5449219 h 1.101562 z"
       id="path16" />
    <path
       d="m 30.626953,-5.34375 h -0.05859 q -0.246093,-0.058594 -0.480468,-0.082031 -0.228516,-0.029297 -0.544922,-0.029297 -0.509766,0 -0.984375,0.2285156 -0.47461,0.2226563 -0.914063,0.5800781 V 0 h -1.101562 v -6.5449219 h 1.101562 v 0.9667969 q 0.65625,-0.5273437 1.154297,-0.7441406 0.503906,-0.2226563 1.025391,-0.2226563 0.287109,0 0.416015,0.017578 0.128907,0.011719 0.386719,0.052734 z"
       id="path18" />
    <path
       d="m 37.242187,-3.2695313 q 0,1.5996094 -0.820312,2.52539068 -0.820313,0.92578124 -2.197266,0.92578124 -1.388672,0 -2.208984,-0.92578124 -0.814453,-0.92578128 -0.814453,-2.52539068 0,-1.5996093 0.814453,-2.5253906 0.820312,-0.9316406 2.208984,-0.9316406 1.376953,0 2.197266,0.9316406 0.820312,0.9257813 0.820312,2.5253906 z m -1.136718,0 q 0,-1.2714843 -0.498047,-1.8867187 -0.498047,-0.6210937 -1.382813,-0.6210937 -0.896484,0 -1.394531,0.6210937 -0.492187,0.6152344 -0.492187,1.8867187 0,1.2304688 0.498046,1.8691407 0.498047,0.63281248 1.388672,0.63281248 0.878907,0 1.376953,-0.62695308 0.503907,-0.6328126 0.503907,-1.8750001 z"
       id="path20" />
    <path
       d="m 44.419922,0 h -1.101563 v -3.7265625 q 0,-0.4511719 -0.05273,-0.84375 Q 43.212891,-4.96875 43.072266,-5.1914062 42.925781,-5.4375 42.650391,-5.5546875 42.375,-5.6777344 41.935547,-5.6777344 q -0.451172,0 -0.94336,0.2226563 Q 40.5,-5.2324219 40.048828,-4.8867187 V 0 h -1.101562 v -6.5449219 h 1.101562 v 0.7265625 q 0.515625,-0.4277343 1.066406,-0.6679687 0.550782,-0.2402344 1.13086,-0.2402344 1.060547,0 1.617187,0.6386719 0.556641,0.6386719 0.556641,1.8398437 z"
       id="path22" />
    <path
       d="m 56.091797,0 h -1.101563 v -3.7265625 q 0,-0.421875 -0.04102,-0.8144531 -0.03516,-0.3925781 -0.158203,-0.6269531 -0.134766,-0.2519532 -0.386719,-0.3808594 -0.251953,-0.1289063 -0.726563,-0.1289063 -0.46289,0 -0.925781,0.234375 -0.462891,0.2285157 -0.925781,0.5859375 0.01758,0.1347657 0.0293,0.3164063 0.01172,0.1757812 0.01172,0.3515625 V 0 h -1.101562 v -3.7265625 q 0,-0.4335937 -0.04102,-0.8203125 -0.03516,-0.3925781 -0.158203,-0.6269531 -0.134765,-0.2519531 -0.386719,-0.375 -0.251953,-0.1289063 -0.726562,-0.1289063 -0.451172,0 -0.908203,0.2226563 -0.451172,0.2226562 -0.902344,0.5683594 V 0 h -1.101562 v -6.5449219 h 1.101562 v 0.7265625 q 0.515625,-0.4277343 1.025391,-0.6679687 0.515625,-0.2402344 1.095703,-0.2402344 0.667969,0 1.130859,0.28125 0.46875,0.28125 0.697266,0.7792969 0.667969,-0.5625 1.21875,-0.8085938 0.550781,-0.2519531 1.177734,-0.2519531 1.078125,0 1.587891,0.65625 0.515625,0.6503906 0.515625,1.8222656 z"
       id="path24" />
    <path
       d="m 63.691406,-3.1582031 h -4.822265 q 0,0.6035156 0.18164,1.0546875 0.181641,0.4453125 0.498047,0.7324219 0.304688,0.28125 0.720703,0.42187495 0.421875,0.140625 0.925781,0.140625 0.667969,0 1.341797,-0.26367185 0.679688,-0.2695313 0.966797,-0.5273438 h 0.05859 v 1.2011719 q -0.556641,0.234375 -1.136719,0.39257812 -0.580078,0.15820313 -1.21875,0.15820313 -1.628906,0 -2.542969,-0.87890625 Q 57.75,-1.6113281 57.75,-3.234375 q 0,-1.6054687 0.873047,-2.5488281 0.878906,-0.9433594 2.308594,-0.9433594 1.324218,0 2.039062,0.7734375 0.720703,0.7734375 0.720703,2.1972656 z m -1.072265,-0.84375 q -0.0059,-0.8671875 -0.439454,-1.3417969 -0.427734,-0.4746094 -1.30664,-0.4746094 -0.884766,0 -1.41211,0.5214844 -0.521484,0.5214844 -0.591796,1.2949219 z"
       id="path26" />
    <path
       d="m 70.833984,0 h -1.101562 v -3.7265625 q 0,-0.4511719 -0.05273,-0.84375 -0.05273,-0.3984375 -0.193359,-0.6210937 -0.146484,-0.2460938 -0.421875,-0.3632813 -0.275391,-0.1230469 -0.714844,-0.1230469 -0.451172,0 -0.943359,0.2226563 -0.492188,0.2226562 -0.943359,0.5683594 V 0 h -1.101563 v -6.5449219 h 1.101563 v 0.7265625 q 0.515625,-0.4277343 1.066406,-0.6679687 0.550781,-0.2402344 1.130859,-0.2402344 1.060547,0 1.617188,0.6386719 0.55664,0.6386719 0.55664,1.8398437 z"
       id="path28" />
    <path
       d="m 76.353516,-0.05859375 q -0.310547,0.08203125 -0.679688,0.13476562 -0.363281,0.05273438 -0.650391,0.05273438 -1.001953,0 -1.523437,-0.5390625 -0.521484,-0.5390625 -0.521484,-1.72851565 v -3.4804687 h -0.744141 v -0.9257813 h 0.744141 v -1.8808594 h 1.101562 v 1.8808594 h 2.273438 v 0.9257813 h -2.273438 v 2.9824218 q 0,0.515625 0.02344,0.8085938 0.02344,0.2871094 0.164062,0.5390625 0.128906,0.234375 0.351563,0.34570312 0.228515,0.10546875 0.691406,0.10546875 0.269531,0 0.5625,-0.0761719 0.292969,-0.0820313 0.421875,-0.13476557 h 0.05859 z"
       id="path30" />
    <path
       d="m 82.769531,0 h -1.095703 v -0.69726562 q -0.146484,0.0996094 -0.398437,0.28124999 -0.246094,0.17578125 -0.480469,0.28125001 Q 80.519531,0 80.162109,0.08789062 q -0.357422,0.09375 -0.83789,0.09375 -0.884766,0 -1.5,-0.5859375 -0.615235,-0.5859375 -0.615235,-1.49414062 0,-0.7441406 0.316407,-1.2011719 0.322265,-0.4628906 0.914062,-0.7265625 0.597656,-0.2636718 1.435547,-0.3574218 0.837891,-0.09375 1.798828,-0.140625 v -0.1699219 q 0,-0.375 -0.134766,-0.6210938 -0.128906,-0.2460937 -0.375,-0.3867187 -0.234375,-0.1347656 -0.5625,-0.1816406 -0.328125,-0.046875 -0.685546,-0.046875 -0.433594,0 -0.966797,0.1171875 -0.533203,0.1113281 -1.101563,0.328125 h -0.05859 v -1.1191407 q 0.322266,-0.087891 0.931641,-0.1933593 0.609375,-0.1054688 1.201172,-0.1054688 0.691406,0 1.201172,0.1171875 0.515625,0.1113281 0.890625,0.3867188 0.36914,0.2695312 0.5625,0.6972656 0.193359,0.4277344 0.193359,1.0605469 z m -1.095703,-1.6113281 v -1.8222657 q -0.503906,0.029297 -1.189453,0.087891 -0.679688,0.058594 -1.078125,0.1699218 -0.474609,0.1347657 -0.767578,0.421875 -0.292969,0.28125 -0.292969,0.7792969 0,0.5625 0.339844,0.8496094 0.339844,0.28125 1.037109,0.28125 0.580078,0 1.060547,-0.2226562 0.480469,-0.2285157 0.890625,-0.5449222 z"
       id="path32" />
    <path
       d="m 86.003906,0 h -1.101562 v -9.1171875 h 1.101562 z"
       id="path34" />
    <path
       d="m 98.0625,-7.6933594 h -4.412109 v 2.4609375 h 3.791015 v 1.03125 H 93.650391 V 0 H 92.490234 V -8.7246094 H 98.0625 Z"
       id="path36" />
    <path
       d="m 104.58398,-3.2695313 q 0,1.5996094 -0.82031,2.52539068 -0.82031,0.92578124 -2.19726,0.92578124 -1.38868,0 -2.208988,-0.92578124 -0.814453,-0.92578128 -0.814453,-2.52539068 0,-1.5996093 0.814453,-2.5253906 0.820308,-0.9316406 2.208988,-0.9316406 1.37695,0 2.19726,0.9316406 0.82031,0.9257813 0.82031,2.5253906 z m -1.13671,0 q 0,-1.2714843 -0.49805,-1.8867187 -0.49805,-0.6210937 -1.38281,-0.6210937 -0.89649,0 -1.39453,0.6210937 -0.492193,0.6152344 -0.492193,1.8867187 0,1.2304688 0.498043,1.8691407 0.49805,0.63281248 1.38868,0.63281248 0.8789,0 1.37695,-0.62695308 0.50391,-0.6328126 0.50391,-1.8750001 z"
       id="path38" />
    <path
       d="m 111.86719,-3.2695313 q 0,1.5996094 -0.82031,2.52539068 -0.82032,0.92578124 -2.19727,0.92578124 -1.38867,0 -2.20898,-0.92578124 -0.81446,-0.92578128 -0.81446,-2.52539068 0,-1.5996093 0.81446,-2.5253906 0.82031,-0.9316406 2.20898,-0.9316406 1.37695,0 2.19727,0.9316406 0.82031,0.9257813 0.82031,2.5253906 z m -1.13672,0 q 0,-1.2714843 -0.49805,-1.8867187 -0.49804,-0.6210937 -1.38281,-0.6210937 -0.89648,0 -1.39453,0.6210937 -0.49219,0.6152344 -0.49219,1.8867187 0,1.2304688 0.49805,1.8691407 0.49804,0.63281248 1.38867,0.63281248 0.87891,0 1.37695,-0.62695308 0.50391,-0.6328126 0.50391,-1.8750001 z"
       id="path40" />
    <path
       d="m 116.9707,-0.05859375 q -0.31054,0.08203125 -0.67968,0.13476562 -0.36329,0.05273438 -0.65039,0.05273438 -1.00196,0 -1.52344,-0.5390625 -0.52149,-0.5390625 -0.52149,-1.72851565 v -3.4804687 h -0.74414 v -0.9257813 h 0.74414 v -1.8808594 h 1.10157 v 1.8808594 h 2.27343 v 0.9257813 h -2.27343 v 2.9824218 q 0,0.515625 0.0234,0.8085938 0.0234,0.2871094 0.16407,0.5390625 0.1289,0.234375 0.35156,0.34570312 0.22851,0.10546875 0.6914,0.10546875 0.26954,0 0.5625,-0.0761719 0.29297,-0.0820313 0.42188,-0.13476557 h 0.0586 z"
       id="path42" />
    <path
       d="m 124.06055,-3.3515625 q 0,0.796875 -0.22852,1.4589844 -0.22851,0.65625 -0.64453,1.11328123 -0.38672,0.43359374 -0.91406,0.67382812 -0.52149,0.234375 -1.10742,0.234375 -0.50977,0 -0.92579,-0.11132812 Q 119.83008,-0.09375 119.40234,-0.328125 v 2.7421875 h -1.10156 v -8.9589844 h 1.10156 v 0.6855469 q 0.43946,-0.3691406 0.98438,-0.6152344 0.55078,-0.2519531 1.17187,-0.2519531 1.1836,0 1.83985,0.8964844 0.66211,0.890625 0.66211,2.4785156 z m -1.13672,0.029297 q 0,-1.1835938 -0.4043,-1.7695313 -0.4043,-0.5859375 -1.24219,-0.5859375 -0.47461,0 -0.95507,0.2050782 -0.48047,0.2050781 -0.91993,0.5390625 v 3.7089843 q 0.46875,0.2109375 0.80274,0.2871094 0.33984,0.0761719 0.76758,0.0761719 0.91992,0 1.43554,-0.6210938 0.51563,-0.6210937 0.51563,-1.8398437 z"
       id="path44" />
    <path
       d="m 129.86133,-5.34375 h -0.0586 q -0.24609,-0.058594 -0.48046,-0.082031 -0.22852,-0.029297 -0.54493,-0.029297 -0.50976,0 -0.98437,0.2285156 -0.47461,0.2226563 -0.91406,0.5800781 V 0 h -1.10157 v -6.5449219 h 1.10157 v 0.9667969 q 0.65625,-0.5273437 1.15429,-0.7441406 0.50391,-0.2226563 1.02539,-0.2226563 0.28711,0 0.41602,0.017578 0.12891,0.011719 0.38672,0.052734 z"
       id="path46" />
    <path
       d="m 132.08203,-7.640625 h -1.24219 v -1.1425781 h 1.24219 z M 132.01172,0 h -1.10156 v -6.5449219 h 1.10156 z"
       id="path48" />
    <path
       d="m 139.66406,0 h -1.10156 v -3.7265625 q 0,-0.4511719 -0.0527,-0.84375 -0.0527,-0.3984375 -0.19336,-0.6210937 -0.14649,-0.2460938 -0.42188,-0.3632813 -0.27539,-0.1230469 -0.71484,-0.1230469 -0.45117,0 -0.94336,0.2226563 -0.49219,0.2226562 -0.94336,0.5683594 V 0 h -1.10156 v -6.5449219 h 1.10156 v 0.7265625 q 0.51562,-0.4277343 1.0664,-0.6679687 0.55079,-0.2402344 1.13086,-0.2402344 1.06055,0 1.61719,0.6386719 0.55664,0.6386719 0.55664,1.8398437 z"
       id="path50" />
    <path
       d="m 145.18359,-0.05859375 q -0.31054,0.08203125 -0.67968,0.13476562 -0.36329,0.05273438 -0.65039,0.05273438 -1.00196,0 -1.52344,-0.5390625 -0.52149,-0.5390625 -0.52149,-1.72851565 v -3.4804687 h -0.74414 v -0.9257813 h 0.74414 v -1.8808594 h 1.10157 v 1.8808594 h 2.27343 v 0.9257813 h -2.27343 v 2.9824218 q 0,0.515625 0.0234,0.8085938 0.0234,0.2871094 0.16407,0.5390625 0.1289,0.234375 0.35156,0.34570312 0.22851,0.10546875 0.6914,0.10546875 0.26954,0 0.5625,-0.0761719 0.29297,-0.0820313 0.42188,-0.13476557 h 0.0586 z"
       id="path52" />
    <path
       d="m 158.19141,-4.3535156 q 0,1.1894531 -0.52149,2.15625 -0.51562,0.9667969 -1.37695,1.49999998 -0.59766,0.36914062 -1.33594,0.53320312 Q 154.22461,0 153.02344,0 h -2.20313 V -8.7246094 H 153 q 1.27734,0 2.02734,0.1875 0.75586,0.1816406 1.27735,0.5039063 0.89062,0.5566406 1.38867,1.4824219 0.49805,0.9257812 0.49805,2.1972656 z m -1.21289,-0.017578 q 0,-1.0253907 -0.35743,-1.7285157 -0.35742,-0.703125 -1.0664,-1.1074218 -0.51563,-0.2929688 -1.09571,-0.4042969 -0.58007,-0.1171875 -1.38867,-0.1171875 h -1.08984 v 6.73242185 h 1.08984 q 0.83789,0 1.45899,-0.12304685 0.62695,-0.1230469 1.14843,-0.4570313 0.65039,-0.4160156 0.97266,-1.0957031 0.32813,-0.6796875 0.32813,-1.6992187 z"
       id="path54" />
    <path
       d="m 165.06445,0 h -1.0957 v -0.69726562 q -0.14648,0.0996094 -0.39844,0.28124999 -0.24609,0.17578125 -0.48047,0.28125001 Q 162.81445,0 162.45703,0.08789062 q -0.35742,0.09375 -0.83789,0.09375 -0.88477,0 -1.5,-0.5859375 -0.61523,-0.5859375 -0.61523,-1.49414062 0,-0.7441406 0.3164,-1.2011719 0.32227,-0.4628906 0.91406,-0.7265625 0.59766,-0.2636718 1.43555,-0.3574218 0.83789,-0.09375 1.79883,-0.140625 v -0.1699219 q 0,-0.375 -0.13477,-0.6210938 -0.1289,-0.2460937 -0.375,-0.3867187 -0.23437,-0.1347656 -0.5625,-0.1816406 -0.32812,-0.046875 -0.68554,-0.046875 -0.4336,0 -0.9668,0.1171875 -0.5332,0.1113281 -1.10156,0.328125 h -0.0586 v -1.1191407 q 0.32227,-0.087891 0.93164,-0.1933593 0.60938,-0.1054688 1.20118,-0.1054688 0.6914,0 1.20117,0.1171875 0.51562,0.1113281 0.89062,0.3867188 0.36914,0.2695312 0.5625,0.6972656 0.19336,0.4277344 0.19336,1.0605469 z m -1.0957,-1.6113281 v -1.8222657 q -0.50391,0.029297 -1.18945,0.087891 -0.67969,0.058594 -1.07813,0.1699218 -0.47461,0.1347657 -0.76758,0.421875 -0.29297,0.28125 -0.29297,0.7792969 0,0.5625 0.33985,0.8496094 0.33984,0.28125 1.03711,0.28125 0.58008,0 1.06054,-0.2226562 0.48047,-0.2285157 0.89063,-0.5449222 z"
       id="path56" />
    <path
       d="m 170.58398,-0.05859375 q -0.31054,0.08203125 -0.67968,0.13476562 -0.36328,0.05273438 -0.65039,0.05273438 -1.00196,0 -1.52344,-0.5390625 -0.52149,-0.5390625 -0.52149,-1.72851565 v -3.4804687 h -0.74414 v -0.9257813 h 0.74414 v -1.8808594 h 1.10157 v 1.8808594 h 2.27343 v 0.9257813 h -2.27343 v 2.9824218 q 0,0.515625 0.0234,0.8085938 0.0234,0.2871094 0.16407,0.5390625 0.1289,0.234375 0.35156,0.34570312 0.22851,0.10546875 0.69141,0.10546875 0.26953,0 0.5625,-0.0761719 0.29296,-0.0820313 0.42187,-0.13476557 h 0.0586 z"
       id="path58" />
    <path
       d="m 177,0 h -1.0957 v -0.69726562 q -0.14649,0.0996094 -0.39844,0.28124999 -0.24609,0.17578125 -0.48047,0.28125001 Q 174.75,0 174.39258,0.08789062 q -0.35742,0.09375 -0.83789,0.09375 -0.88477,0 -1.5,-0.5859375 -0.61524,-0.5859375 -0.61524,-1.49414062 0,-0.7441406 0.31641,-1.2011719 0.32226,-0.4628906 0.91406,-0.7265625 0.59766,-0.2636718 1.43555,-0.3574218 0.83789,-0.09375 1.79883,-0.140625 v -0.1699219 q 0,-0.375 -0.13477,-0.6210938 -0.12891,-0.2460937 -0.375,-0.3867187 -0.23437,-0.1347656 -0.5625,-0.1816406 -0.32812,-0.046875 -0.68555,-0.046875 -0.43359,0 -0.96679,0.1171875 -0.53321,0.1113281 -1.10157,0.328125 h -0.0586 v -1.1191407 q 0.32227,-0.087891 0.93164,-0.1933593 0.60938,-0.1054688 1.20117,-0.1054688 0.69141,0 1.20118,0.1171875 0.51562,0.1113281 0.89062,0.3867188 0.36914,0.2695312 0.5625,0.6972656 Q 177,-5.0742187 177,-4.4414062 Z m -1.0957,-1.6113281 v -1.8222657 q -0.50391,0.029297 -1.18946,0.087891 -0.67968,0.058594 -1.07812,0.1699218 -0.47461,0.1347657 -0.76758,0.421875 -0.29297,0.28125 -0.29297,0.7792969 0,0.5625 0.33985,0.8496094 0.33984,0.28125 1.0371,0.28125 0.58008,0 1.06055,-0.2226562 0.48047,-0.2285157 0.89063,-0.5449222 z"
       id="path60" />
  </g>
</svg>
