<?xml version="1.0" encoding="UTF-8" standalone="no"?>
<svg
   version="1.1"
   id="svg4"
   width="19.171875"
   height="9.2988281"
   xmlns="http://www.w3.org/2000/svg"
   xmlns:svg="http://www.w3.org/2000/svg">
  <defs
     id="defs8" />
  <g
     aria-label="esd"
     id="text2"
     transform="translate(-0.62109405,9.1171875)">
    <path
       d="M 6.5625,-3.1582031 H 1.7402344 q 0,0.6035156 0.1816406,1.0546875 0.1816406,0.4453125 0.4980469,0.7324219 0.3046875,0.28125 0.7207031,0.42187495 0.421875,0.140625 0.9257812,0.140625 0.6679688,0 1.3417969,-0.26367185 Q 6.0878906,-1.3417969 6.375,-1.5996094 h 0.058594 v 1.2011719 q -0.5566406,0.234375 -1.1367187,0.39257812 -0.5800781,0.15820313 -1.21875,0.15820313 -1.6289062,0 -2.5429688,-0.87890625 -0.91406245,-0.8847656 -0.91406245,-2.5078125 0,-1.6054687 0.87304685,-2.5488281 0.8789063,-0.9433594 2.3085938,-0.9433594 1.3242187,0 2.0390625,0.7734375 Q 6.5625,-5.1796875 6.5625,-3.7558594 Z m -1.0722656,-0.84375 Q 5.484375,-4.8691406 5.0507812,-5.34375 4.6230469,-5.8183594 3.7441406,-5.8183594 q -0.8847656,0 -1.4121093,0.5214844 -0.5214844,0.5214844 -0.5917969,1.2949219 z"
       id="path10" />
    <path
       d="m 12.908203,-1.8867187 q 0,0.89648432 -0.74414,1.47070307 -0.738282,0.57421875 -2.021485,0.57421875 -0.7265624,0 -1.3359374,-0.16992187 Q 8.203125,-0.1875 7.7929687,-0.39257813 V -1.6289062 h 0.058594 q 0.5214844,0.3925781 1.1601563,0.6269531 0.6386718,0.2285156 1.224609,0.2285156 0.726563,0 1.136719,-0.234375 0.410156,-0.234375 0.410156,-0.7382812 0,-0.3867188 -0.222656,-0.5859376 Q 11.337891,-2.53125 10.705078,-2.671875 10.470703,-2.7246094 10.089844,-2.7949219 9.7148438,-2.8652344 9.4042969,-2.9472656 8.5429688,-3.1757813 8.1796875,-3.6152344 7.8222656,-4.0605469 7.8222656,-4.7050781 q 0,-0.4042969 0.1640625,-0.7617188 0.1699219,-0.3574218 0.5097657,-0.6386718 0.328125,-0.2753907 0.8320312,-0.4335938 0.5097656,-0.1640625 1.136719,-0.1640625 0.585937,0 1.183594,0.1464844 0.603515,0.140625 1.001953,0.3457031 v 1.1777344 h -0.05859 Q 12.169926,-5.34375 11.56641,-5.5546875 q -0.603515,-0.2167969 -1.183593,-0.2167969 -0.6035161,0 -1.0195317,0.234375 -0.4160157,0.2285157 -0.4160157,0.6855469 0,0.4042969 0.2519532,0.609375 0.2460937,0.2050781 0.796875,0.3339844 0.3046872,0.070312 0.6796872,0.140625 0.38086,0.070312 0.632813,0.1289062 0.767578,0.1757813 1.183594,0.6035156 0.416015,0.4335938 0.416015,1.1484376 z"
       id="path12" />
    <path
       d="m 19.792969,0 h -1.101563 v -0.68554687 q -0.474609,0.41015624 -0.990234,0.63867187 -0.515625,0.22851562 -1.119141,0.22851562 -1.171875,0 -1.863281,-0.90234374 -0.685547,-0.90234378 -0.685547,-2.50195318 0,-0.8320312 0.234375,-1.4824218 0.240235,-0.6503906 0.644531,-1.1074219 0.398438,-0.4453125 0.925782,-0.6796875 0.533203,-0.234375 1.101562,-0.234375 0.515625,0 0.914063,0.1113281 0.398437,0.1054688 0.83789,0.3339844 v -2.8359375 h 1.101563 z m -1.101563,-1.6113281 v -3.7558594 q -0.445312,-0.1992187 -0.796875,-0.2753906 -0.351562,-0.076172 -0.767578,-0.076172 -0.925781,0 -1.441406,0.6445313 -0.515625,0.6445312 -0.515625,1.8281249 0,1.1660157 0.398437,1.7753907 0.398438,0.6035156 1.277344,0.6035156 0.46875,0 0.949219,-0.2050781 0.480469,-0.2109375 0.896484,-0.5390624 z"
       id="path14" />
  </g>
</svg>
