<svg width="1045.501" height="98.4" viewBox="0 0 1045.501 98.4" xmlns="http://www.w3.org/2000/svg"><g id="svgGroup" stroke-linecap="round" fill-rule="evenodd" font-size="9pt" stroke="#000" stroke-width="0.25mm" fill="#000" style="stroke:#000;stroke-width:0.25mm;fill:#000"><path d="M 371.901 75.2 L 362.901 75.2 L 362.901 23.2 L 371.601 23.2 L 371.601 31.9 Q 374.401 27.7 378.701 24.85 A 17.205 17.205 0 0 1 387.903 22.009 A 20.858 20.858 0 0 1 388.501 22 A 20.994 20.994 0 0 1 392.918 22.44 Q 395.904 23.082 398.186 24.663 A 13.128 13.128 0 0 1 398.651 25 A 15.751 15.751 0 0 1 404.098 32.69 A 19.154 19.154 0 0 1 404.201 33 Q 407.301 28.4 411.551 25.2 A 15.669 15.669 0 0 1 418.341 22.317 A 21.446 21.446 0 0 1 422.101 22 A 21.437 21.437 0 0 1 426.988 22.523 Q 430.574 23.362 433.063 25.551 A 12.994 12.994 0 0 1 434.751 27.35 A 18.992 18.992 0 0 1 438.162 34.622 Q 438.901 37.672 438.901 41.3 L 438.901 75.2 L 429.901 75.2 L 429.901 42 A 19.042 19.042 0 0 0 429.563 38.311 Q 429.128 36.105 428.129 34.361 A 10.982 10.982 0 0 0 427.401 33.25 A 7.974 7.974 0 0 0 421.587 29.954 A 10.678 10.678 0 0 0 420.501 29.9 A 11.926 11.926 0 0 0 413.741 32.027 A 15.996 15.996 0 0 0 412.151 33.25 Q 408.301 36.6 405.401 41.1 L 405.401 75.2 L 396.401 75.2 L 396.401 42 A 19.042 19.042 0 0 0 396.063 38.311 Q 395.628 36.105 394.629 34.361 A 10.982 10.982 0 0 0 393.901 33.25 A 7.974 7.974 0 0 0 388.087 29.954 A 10.678 10.678 0 0 0 387.001 29.9 A 12.02 12.02 0 0 0 380.682 31.728 A 16.244 16.244 0 0 0 378.701 33.15 Q 374.801 36.4 371.901 40.8 L 371.901 75.2 Z M 106.601 75.2 L 97.601 75.2 L 97.601 1.2 L 106.601 1.2 L 106.601 31.5 Q 109.401 27.4 113.701 24.7 A 17.572 17.572 0 0 1 120.825 22.191 A 22.595 22.595 0 0 1 123.801 22 A 23.225 23.225 0 0 1 128.866 22.518 Q 133.96 23.656 136.951 27.3 Q 141.075 32.326 141.289 40.409 A 33.764 33.764 0 0 1 141.301 41.3 L 141.301 75.2 L 132.301 75.2 L 132.301 42.3 Q 132.301 36.7 129.701 33.3 A 8.42 8.42 0 0 0 123.543 29.953 A 11.979 11.979 0 0 0 122.401 29.9 A 13.23 13.23 0 0 0 115.687 31.767 A 17.586 17.586 0 0 0 113.651 33.15 Q 109.501 36.4 106.601 40.8 L 106.601 75.2 Z M 994.701 96.4 L 996.701 88.9 A 9.908 9.908 0 0 0 997.865 89.474 Q 998.688 89.819 999.701 90.1 A 13.514 13.514 0 0 0 1001.979 90.518 A 17.358 17.358 0 0 0 1003.701 90.6 Q 1007.901 90.6 1011.201 87.9 A 12.003 12.003 0 0 0 1013.133 85.839 Q 1014.882 83.528 1016.541 79.675 A 58.58 58.58 0 0 0 1017.501 77.3 L 1019.801 71.3 L 1015.001 71.3 L 994.701 25.6 L 1002.701 22 L 1022.101 65.3 L 1037.201 22.4 L 1045.501 25.6 L 1026.401 77.8 A 71.728 71.728 0 0 1 1024.348 82.887 Q 1023.245 85.326 1022.078 87.314 A 30.86 30.86 0 0 1 1020.101 90.3 A 24.268 24.268 0 0 1 1017.222 93.511 Q 1015.308 95.279 1013.205 96.318 A 14.737 14.737 0 0 1 1012.601 96.6 Q 1008.501 98.4 1003.501 98.4 Q 1000.501 98.4 998.251 97.8 Q 996.001 97.2 994.701 96.4 Z M 302.001 57 L 302.001 23.2 L 311.001 23.2 L 311.001 55.8 A 22.981 22.981 0 0 0 311.254 59.334 Q 311.542 61.181 312.157 62.67 A 10.136 10.136 0 0 0 313.601 65.15 A 8.404 8.404 0 0 0 318.714 68.171 A 12.807 12.807 0 0 0 321.201 68.4 Q 325.301 68.4 329.151 66.75 Q 333.001 65.1 336.001 62.3 L 336.001 23.2 L 345.001 23.2 L 345.001 61.7 A 15.602 15.602 0 0 0 345.102 63.554 Q 345.434 66.317 346.851 67.35 Q 348.701 68.7 350.901 68.7 L 349.001 75.7 Q 339.701 75.7 337.501 68.3 Q 334.001 71.9 329.401 74.15 Q 324.801 76.4 319.501 76.4 Q 315.001 76.4 311.001 74.5 A 14.441 14.441 0 0 1 305.491 69.861 A 18.266 18.266 0 0 1 304.501 68.35 A 16.24 16.24 0 0 1 302.836 64.257 Q 302.001 61.105 302.001 57 Z M 523.401 75.2 L 514.401 75.2 L 514.401 23.2 L 523.101 23.2 L 523.101 31.9 Q 525.901 27.7 530.251 24.85 A 17.316 17.316 0 0 1 537.356 22.226 A 22.629 22.629 0 0 1 540.601 22 A 23.225 23.225 0 0 1 545.666 22.518 Q 550.76 23.656 553.751 27.3 Q 557.875 32.326 558.089 40.409 A 33.764 33.764 0 0 1 558.101 41.3 L 558.101 75.2 L 549.101 75.2 L 549.101 42.3 A 19.265 19.265 0 0 0 548.758 38.559 Q 548.32 36.345 547.319 34.597 A 10.966 10.966 0 0 0 546.451 33.3 A 8.579 8.579 0 0 0 540.174 29.947 A 12.061 12.061 0 0 0 539.101 29.9 A 13.122 13.122 0 0 0 532.251 31.864 A 17.353 17.353 0 0 0 530.401 33.15 Q 526.301 36.4 523.401 40.8 L 523.401 75.2 Z M 583.601 75.2 L 574.601 75.2 L 574.601 32.9 L 566.601 32.9 L 566.601 25.1 L 574.601 25.1 L 574.601 19 A 25.495 25.495 0 0 1 575.226 13.182 Q 576.334 8.452 579.403 5.203 A 16.387 16.387 0 0 1 579.501 5.1 A 16.367 16.367 0 0 1 589.905 0.125 A 22.463 22.463 0 0 1 592.301 0 A 29.982 29.982 0 0 1 595.811 0.195 Q 597.556 0.401 599.072 0.825 A 17.884 17.884 0 0 1 599.501 0.95 Q 602.601 1.9 605.401 3.3 L 602.701 10.9 Q 600.601 9.8 598.201 8.9 A 14.172 14.172 0 0 0 594.578 8.079 A 17.356 17.356 0 0 0 592.901 8 A 10.802 10.802 0 0 0 589.871 8.405 A 8.291 8.291 0 0 0 586.151 10.65 A 8.462 8.462 0 0 0 584.204 14.019 Q 583.601 15.92 583.601 18.4 L 583.601 25.1 L 599.001 25.1 L 599.001 32.9 L 583.601 32.9 L 583.601 75.2 Z M 45.601 52.9 L 9.201 52.9 A 24.088 24.088 0 0 0 10.34 57.925 Q 11.676 61.738 14.301 64.3 Q 18.501 68.4 25.401 68.4 Q 29.901 68.4 33.501 67.45 Q 37.101 66.5 40.401 65 L 42.501 72.7 A 40.77 40.77 0 0 1 38.166 74.326 A 51.863 51.863 0 0 1 34.401 75.35 A 38.914 38.914 0 0 1 29.309 76.169 A 52.025 52.025 0 0 1 24.301 76.4 A 28.318 28.318 0 0 1 16.554 75.395 A 21.108 21.108 0 0 1 6.551 69.25 A 23.521 23.521 0 0 1 1.345 59.71 Q 0.001 55.045 0.001 49.2 A 35.359 35.359 0 0 1 0.833 41.378 A 28.84 28.84 0 0 1 2.951 35.25 A 24.642 24.642 0 0 1 7.967 28.168 A 22.887 22.887 0 0 1 11.201 25.55 A 21.048 21.048 0 0 1 21.46 22.078 A 26.205 26.205 0 0 1 23.501 22 Q 31.001 22 35.951 25.25 Q 40.901 28.5 43.401 34 A 28.185 28.185 0 0 1 45.827 43.864 A 33.434 33.434 0 0 1 45.901 46.1 A 75.204 75.204 0 0 1 45.61 52.797 A 69.426 69.426 0 0 1 45.601 52.9 Z M 198.901 52.9 L 162.501 52.9 A 24.088 24.088 0 0 0 163.64 57.925 Q 164.976 61.738 167.601 64.3 Q 171.801 68.4 178.701 68.4 Q 183.201 68.4 186.801 67.45 Q 190.401 66.5 193.701 65 L 195.801 72.7 A 40.77 40.77 0 0 1 191.466 74.326 A 51.863 51.863 0 0 1 187.701 75.35 A 38.914 38.914 0 0 1 182.609 76.169 A 52.025 52.025 0 0 1 177.601 76.4 A 28.318 28.318 0 0 1 169.854 75.395 A 21.108 21.108 0 0 1 159.851 69.25 A 23.521 23.521 0 0 1 154.645 59.71 Q 153.301 55.045 153.301 49.2 A 35.359 35.359 0 0 1 154.133 41.378 A 28.84 28.84 0 0 1 156.251 35.25 A 24.642 24.642 0 0 1 161.267 28.168 A 22.887 22.887 0 0 1 164.501 25.55 A 21.048 21.048 0 0 1 174.76 22.078 A 26.205 26.205 0 0 1 176.801 22 Q 184.301 22 189.251 25.25 Q 194.201 28.5 196.701 34 A 28.185 28.185 0 0 1 199.127 43.864 A 33.434 33.434 0 0 1 199.201 46.1 A 75.204 75.204 0 0 1 198.91 52.797 A 69.426 69.426 0 0 1 198.901 52.9 Z M 290.201 52.9 L 253.801 52.9 A 24.088 24.088 0 0 0 254.94 57.925 Q 256.276 61.738 258.901 64.3 Q 263.101 68.4 270.001 68.4 Q 274.501 68.4 278.101 67.45 Q 281.701 66.5 285.001 65 L 287.101 72.7 A 40.77 40.77 0 0 1 282.766 74.326 A 51.863 51.863 0 0 1 279.001 75.35 A 38.914 38.914 0 0 1 273.909 76.169 A 52.025 52.025 0 0 1 268.901 76.4 A 28.318 28.318 0 0 1 261.154 75.395 A 21.108 21.108 0 0 1 251.151 69.25 A 23.521 23.521 0 0 1 245.945 59.71 Q 244.601 55.045 244.601 49.2 A 35.359 35.359 0 0 1 245.433 41.378 A 28.84 28.84 0 0 1 247.551 35.25 A 24.642 24.642 0 0 1 252.567 28.168 A 22.887 22.887 0 0 1 255.801 25.55 A 21.048 21.048 0 0 1 266.06 22.078 A 26.205 26.205 0 0 1 268.101 22 Q 275.601 22 280.551 25.25 Q 285.501 28.5 288.001 34 A 28.185 28.185 0 0 1 290.427 43.864 A 33.434 33.434 0 0 1 290.501 46.1 A 75.204 75.204 0 0 1 290.21 52.797 A 69.426 69.426 0 0 1 290.201 52.9 Z M 908.501 75.2 L 899.101 75.2 L 878.201 25.6 L 886.401 22.2 L 904.101 65 L 921.801 22.2 L 929.501 25.6 L 908.501 75.2 Z M 59.901 57.3 L 59.901 32.9 L 50.901 32.9 L 50.901 25.1 L 60.101 25.1 L 62.001 8.7 L 68.901 8.7 L 68.901 25.1 L 83.301 25.1 L 83.301 32.9 L 68.901 32.9 L 68.901 58 A 21.559 21.559 0 0 0 69.068 60.796 Q 69.542 64.402 71.351 66.1 Q 73.801 68.4 77.201 68.4 Q 79.701 68.4 81.951 67.6 Q 84.201 66.8 86.101 65.7 L 88.601 72.9 A 18.546 18.546 0 0 1 86.982 73.756 Q 86.18 74.135 85.235 74.508 A 43.365 43.365 0 0 1 83.201 75.25 Q 79.801 76.4 76.101 76.4 Q 68.601 76.4 64.251 71.45 A 16.116 16.116 0 0 1 61.022 65.548 Q 60.26 63.117 60.016 60.181 A 34.777 34.777 0 0 1 59.901 57.3 Z M 614.901 57.3 L 614.901 32.9 L 605.901 32.9 L 605.901 25.1 L 615.101 25.1 L 617.001 8.7 L 623.901 8.7 L 623.901 25.1 L 638.301 25.1 L 638.301 32.9 L 623.901 32.9 L 623.901 58 A 21.559 21.559 0 0 0 624.068 60.796 Q 624.542 64.402 626.351 66.1 Q 628.801 68.4 632.201 68.4 Q 634.701 68.4 636.951 67.6 Q 639.201 66.8 641.101 65.7 L 643.601 72.9 A 18.546 18.546 0 0 1 641.982 73.756 Q 641.18 74.135 640.235 74.508 A 43.365 43.365 0 0 1 638.201 75.25 Q 634.801 76.4 631.101 76.4 Q 623.601 76.4 619.251 71.45 A 16.116 16.116 0 0 1 616.022 65.548 Q 615.26 63.117 615.016 60.181 A 34.777 34.777 0 0 1 614.901 57.3 Z M 822.501 57.3 L 822.501 32.9 L 813.501 32.9 L 813.501 25.1 L 822.701 25.1 L 824.601 8.7 L 831.501 8.7 L 831.501 25.1 L 845.901 25.1 L 845.901 32.9 L 831.501 32.9 L 831.501 58 A 21.559 21.559 0 0 0 831.668 60.796 Q 832.142 64.402 833.951 66.1 Q 836.401 68.4 839.801 68.4 Q 842.301 68.4 844.551 67.6 Q 846.801 66.8 848.701 65.7 L 851.201 72.9 A 18.546 18.546 0 0 1 849.582 73.756 Q 848.78 74.135 847.835 74.508 A 43.365 43.365 0 0 1 845.801 75.25 Q 842.401 76.4 838.701 76.4 Q 831.201 76.4 826.851 71.45 A 16.116 16.116 0 0 1 823.622 65.548 Q 822.86 63.117 822.616 60.181 A 34.777 34.777 0 0 1 822.501 57.3 Z M 965.501 57.3 L 965.501 32.9 L 956.501 32.9 L 956.501 25.1 L 965.701 25.1 L 967.601 8.7 L 974.501 8.7 L 974.501 25.1 L 988.901 25.1 L 988.901 32.9 L 974.501 32.9 L 974.501 58 A 21.559 21.559 0 0 0 974.668 60.796 Q 975.142 64.402 976.951 66.1 Q 979.401 68.4 982.801 68.4 Q 985.301 68.4 987.551 67.6 Q 989.801 66.8 991.701 65.7 L 994.201 72.9 A 18.546 18.546 0 0 1 992.582 73.756 Q 991.78 74.135 990.835 74.508 A 43.365 43.365 0 0 1 988.801 75.25 Q 985.401 76.4 981.701 76.4 Q 974.201 76.4 969.851 71.45 A 16.116 16.116 0 0 1 966.622 65.548 Q 965.86 63.117 965.616 60.181 A 34.777 34.777 0 0 1 965.501 57.3 Z M 809.201 25.1 L 806.501 32.7 A 30.422 30.422 0 0 0 803.596 31.424 A 23.42 23.42 0 0 0 801.151 30.65 A 20.543 20.543 0 0 0 798.108 30.125 A 26.355 26.355 0 0 0 795.501 30 A 15.889 15.889 0 0 0 788.248 31.643 A 16.132 16.132 0 0 0 783.751 35.05 Q 779.001 40.1 779.001 49 A 25.192 25.192 0 0 0 779.706 55.06 A 21.45 21.45 0 0 0 781.001 58.8 A 18.564 18.564 0 0 0 783.911 63.378 A 16.275 16.275 0 0 0 786.551 65.8 Q 790.101 68.4 794.901 68.4 Q 798.066 68.4 800.468 67.81 A 15.08 15.08 0 0 0 801.401 67.55 Q 804.09 66.703 807.176 65.113 A 49.095 49.095 0 0 0 807.201 65.1 L 810.001 72.7 Q 806.901 74.4 803.051 75.4 Q 799.201 76.4 794.301 76.4 A 26.803 26.803 0 0 1 787.262 75.51 A 22.074 22.074 0 0 1 781.351 72.95 Q 775.801 69.5 772.801 63.35 Q 769.801 57.2 769.801 49.2 Q 769.801 41.7 772.851 35.5 Q 775.901 29.3 781.601 25.65 A 23.067 23.067 0 0 1 791.268 22.229 A 29.608 29.608 0 0 1 795.001 22 Q 799.401 22 802.751 22.8 Q 806.101 23.6 809.201 25.1 Z M 748.201 27.4 L 748.201 23.2 L 756.401 23.2 L 756.401 62.6 A 12.15 12.15 0 0 0 756.502 64.236 Q 756.834 66.67 758.251 67.55 Q 760.101 68.7 762.301 68.7 L 760.401 75.7 A 17.722 17.722 0 0 1 756.136 75.228 Q 750.499 73.828 748.904 68.28 A 13.59 13.59 0 0 1 748.801 67.9 A 21.307 21.307 0 0 1 745.691 71.326 A 28.498 28.498 0 0 1 742.551 73.75 Q 738.601 76.4 732.501 76.4 Q 726.001 76.4 720.701 73.1 A 22.947 22.947 0 0 1 713.287 65.574 A 27.923 27.923 0 0 1 712.251 63.75 A 27.228 27.228 0 0 1 709.62 55.808 A 36.644 36.644 0 0 1 709.101 49.5 A 33.142 33.142 0 0 1 710.097 41.231 A 27.968 27.968 0 0 1 712.251 35.5 Q 715.401 29.3 720.951 25.65 A 22.297 22.297 0 0 1 732.145 22.044 A 27.388 27.388 0 0 1 733.701 22 A 22.584 22.584 0 0 1 738.494 22.491 A 18.703 18.703 0 0 1 741.851 23.55 A 26.002 26.002 0 0 1 746.137 25.844 A 22.103 22.103 0 0 1 748.201 27.4 Z M 220.201 75.2 L 211.201 75.2 L 211.201 23.2 L 219.901 23.2 L 219.901 34.5 Q 221.201 31.2 223.401 28.35 Q 225.601 25.5 228.901 23.75 A 14.817 14.817 0 0 1 233.58 22.226 A 19.459 19.459 0 0 1 236.601 22 Q 238.101 22 239.601 22.15 A 18.972 18.972 0 0 1 240.655 22.284 Q 241.155 22.362 241.582 22.463 A 8.817 8.817 0 0 1 242.101 22.6 L 239.401 31.9 A 9.763 9.763 0 0 0 237.255 31.288 Q 236.16 31.1 234.901 31.1 A 12.958 12.958 0 0 0 228.271 32.946 A 15.609 15.609 0 0 0 227.851 33.2 Q 224.523 35.286 222.379 39.642 A 22.927 22.927 0 0 0 222.351 39.7 Q 220.588 43.307 220.27 48.528 A 39.09 39.09 0 0 0 220.201 50.9 L 220.201 75.2 Z M 869.201 75.2 L 860.201 75.2 L 860.201 23.2 L 869.201 23.2 L 869.201 75.2 Z M 947.501 75.2 L 938.501 75.2 L 938.501 23.2 L 947.501 23.2 L 947.501 75.2 Z M 747.401 61.9 L 747.401 34 Q 744.701 32.1 741.451 30.95 Q 738.201 29.8 734.601 29.8 A 15.924 15.924 0 0 0 729.629 30.554 A 14.024 14.024 0 0 0 726.151 32.25 A 16.301 16.301 0 0 0 721.131 37.674 A 19.962 19.962 0 0 0 720.401 39.05 A 20.663 20.663 0 0 0 718.647 44.727 A 27.678 27.678 0 0 0 718.301 49.2 Q 718.301 54.8 720.401 59.15 A 17.602 17.602 0 0 0 723.506 63.696 A 15.697 15.697 0 0 0 726.201 65.95 Q 729.901 68.4 734.501 68.4 Q 738.301 68.4 741.701 66.55 Q 745.101 64.7 747.401 61.9 Z M 493.401 45 L 459.401 45 L 459.401 36.8 L 493.401 36.8 L 493.401 45 Z M 691.601 45 L 657.601 45 L 657.601 36.8 L 691.601 36.8 L 691.601 45 Z M 9.101 45.6 L 37.601 45.6 A 24.355 24.355 0 0 0 37.196 41.015 Q 36.7 38.431 35.596 36.407 A 12.422 12.422 0 0 0 33.801 33.9 A 12.488 12.488 0 0 0 26.84 30.124 A 18.395 18.395 0 0 0 23.301 29.8 A 13.58 13.58 0 0 0 18.189 30.735 A 12.524 12.524 0 0 0 13.701 33.85 Q 9.901 37.9 9.101 45.6 Z M 162.401 45.6 L 190.901 45.6 A 24.355 24.355 0 0 0 190.496 41.015 Q 190 38.431 188.896 36.407 A 12.422 12.422 0 0 0 187.101 33.9 A 12.488 12.488 0 0 0 180.14 30.124 A 18.395 18.395 0 0 0 176.601 29.8 A 13.58 13.58 0 0 0 171.489 30.735 A 12.524 12.524 0 0 0 167.001 33.85 Q 163.201 37.9 162.401 45.6 Z M 253.701 45.6 L 282.201 45.6 A 24.355 24.355 0 0 0 281.796 41.015 Q 281.3 38.431 280.196 36.407 A 12.422 12.422 0 0 0 278.401 33.9 A 12.488 12.488 0 0 0 271.44 30.124 A 18.395 18.395 0 0 0 267.901 29.8 A 13.58 13.58 0 0 0 262.789 30.735 A 12.524 12.524 0 0 0 258.301 33.85 Q 254.501 37.9 253.701 45.6 Z M 860.338 12.488 A 5.973 5.973 0 0 0 864.701 14.3 A 8.175 8.175 0 0 0 866.197 14.169 A 5.647 5.647 0 0 0 869.301 12.55 Q 871.001 10.8 871.001 8 A 7.26 7.26 0 0 0 871 7.919 A 6.06 6.06 0 0 0 869.151 3.55 A 7.395 7.395 0 0 0 869.093 3.493 A 6.059 6.059 0 0 0 864.701 1.7 A 8.264 8.264 0 0 0 863.045 1.858 A 5.661 5.661 0 0 0 860.101 3.4 A 5.588 5.588 0 0 0 858.63 6.032 A 7.987 7.987 0 0 0 858.401 8 A 5.992 5.992 0 0 0 858.892 10.419 A 6.643 6.643 0 0 0 860.251 12.4 A 7.466 7.466 0 0 0 860.338 12.488 Z M 938.638 12.488 A 5.973 5.973 0 0 0 943.001 14.3 A 8.175 8.175 0 0 0 944.497 14.169 A 5.647 5.647 0 0 0 947.601 12.55 Q 949.301 10.8 949.301 8 A 7.26 7.26 0 0 0 949.3 7.919 A 6.06 6.06 0 0 0 947.451 3.55 A 7.395 7.395 0 0 0 947.393 3.493 A 6.059 6.059 0 0 0 943.001 1.7 A 8.264 8.264 0 0 0 941.345 1.858 A 5.661 5.661 0 0 0 938.401 3.4 A 5.588 5.588 0 0 0 936.93 6.032 A 7.987 7.987 0 0 0 936.701 8 A 5.992 5.992 0 0 0 937.192 10.419 A 6.643 6.643 0 0 0 938.551 12.4 A 7.466 7.466 0 0 0 938.638 12.488 Z" vector-effect="non-scaling-stroke"/></g></svg>