<?xml version="1.0" encoding="UTF-8" standalone="no"?>
<!-- Created with Inkscape (http://www.inkscape.org/) -->

<svg
   version="1.1"
   id="svg602"
   width="165.75999"
   height="192"
   viewBox="0 0 165.75999 192"
   sodipodi:docname="eurostat R package.svg"
   inkscape:version="1.2.2 (b0a84865, 2022-12-01)"
   xmlns:inkscape="http://www.inkscape.org/namespaces/inkscape"
   xmlns:sodipodi="http://sodipodi.sourceforge.net/DTD/sodipodi-0.dtd"
   xmlns="http://www.w3.org/2000/svg"
   xmlns:svg="http://www.w3.org/2000/svg">
  <defs
     id="defs606" />
  <sodipodi:namedview
     id="namedview604"
     pagecolor="#ffffff"
     bordercolor="#666666"
     borderopacity="1.0"
     inkscape:showpageshadow="2"
     inkscape:pageopacity="0.0"
     inkscape:pagecheckerboard="0"
     inkscape:deskcolor="#d1d1d1"
     showgrid="false"
     inkscape:zoom="1.2291667"
     inkscape:cx="82.169492"
     inkscape:cy="96"
     inkscape:window-width="729"
     inkscape:window-height="480"
     inkscape:window-x="1972"
     inkscape:window-y="320"
     inkscape:window-maximized="0"
     inkscape:current-layer="g608" />
  <g
     inkscape:groupmode="layer"
     inkscape:label="Image"
     id="g608">
    <g
       id="g729">
      <path
         style="fill:#a2a5a7;stroke-width:0.32"
         d="M 41.038964,167.95813 -0.00206658,144.25275 0.07896671,96.04777 0.15999999,47.842797 41.38345,24.040718 C 80.161317,1.6506995 82.656459,0.26122205 83.442309,0.61927968 84.909873,1.2879473 163.63733,46.774701 164.71999,47.579494 l 1.04,0.773076 v 47.819174 47.819176 l -1.2,0.78162 c -4.0934,2.66622 -81.263294,46.90592 -81.809051,46.89921 -0.369018,-0.005 -19.139407,-10.67566 -41.711975,-23.71362 z M 91.519994,152.96 c 0,-1.16075 0.07649,-1.28 0.821037,-1.28 1.747875,0 2.992925,-1.16736 3.008787,-2.82104 0.02061,-2.14725 -1.586697,-3.43396 -3.073017,-2.46009 -0.685789,0.44935 -0.756807,0.44838 -0.756807,-0.0104 0,-0.27845 -0.144,-0.41727 -0.32,-0.3085 -0.185587,0.1147 -0.319999,1.86999 -0.319999,4.17889 0,2.44074 0.123814,3.98111 0.319999,3.98111 0.176,0 0.32,-0.576 0.32,-1.28 z m 0,-3.616 c 0,-1.83382 0.374634,-2.464 1.46482,-2.464 0.946729,0 1.517871,0.77369 1.482761,2.00859 -0.03362,1.18241 -1.016854,2.15141 -2.18303,2.15141 -0.709898,0 -0.764551,-0.12124 -0.764551,-1.696 z m -45.839997,2.59699 c 0.656199,0.0472 0.72,-0.0878 0.72,-1.52374 0,-2.02333 -0.412662,-3.08316 -1.289792,-3.31253 -0.806697,-0.21096 -2.230208,0.24825 -2.230208,0.71944 0,0.21203 0.288628,0.21026 0.855421,-0.005 0.654215,-0.24873 0.964192,-0.21645 1.317862,0.13722 0.600682,0.60068 0.236714,1.16386 -0.752169,1.16386 -0.779946,0 -2.061114,0.99454 -2.061114,1.6 0,0.176 0.295367,0.61536 0.656368,0.97636 0.46817,0.46817 0.858122,0.58991 1.36,0.42458 0.386999,-0.12749 1.027632,-0.20847 1.423632,-0.17996 z m -2.08,-0.47292 c -0.433347,-0.17486 -0.55088,-1.26565 -0.16,-1.48494 0.132,-0.074 0.636,-0.2293 1.12,-0.34498 0.780266,-0.18651 0.88,-0.12026 0.88,0.58449 0,0.64418 -0.8508,1.55416 -1.338963,1.4321 -0.05557,-0.0139 -0.281037,-0.0979 -0.501037,-0.18667 z m 9.659277,0.56546 c 0.09738,-0.15756 -0.03813,-0.36904 -0.301114,-0.46996 -0.687213,-0.2637 -0.685504,-3.72357 0.0018,-3.72357 0.264,0 0.48,-0.144 0.48,-0.32 0,-0.176 -0.216,-0.32 -0.48,-0.32 -0.302797,0 -0.48,-0.30518 -0.48,-0.82667 0,-1.00247 -0.751511,-0.89274 -0.902256,0.13174 -0.05624,0.38221 -0.30824,0.69493 -0.56,0.69493 -0.25176,0 -0.457744,0.144 -0.457744,0.32 0,0.176 0.216,0.32 0.48,0.32 0.367718,0 0.48,0.40635 0.48,1.73714 0,1.15256 0.169222,1.90637 0.502857,2.24 0.566868,0.56687 0.9756,0.63841 1.23642,0.21639 z m 7.81406,-0.45954 c 1.391699,-1.11662 1.011763,-3.7665 -0.62168,-4.33592 -1.020112,-0.35561 -2.144061,-0.0907 -2.759081,0.65038 -1.950647,2.35039 1.015161,5.58356 3.380761,3.68554 z M 58.6312,151.18186 c -1.031357,-0.72239 -0.981936,-2.50972 0.0888,-3.21129 0.741079,-0.48557 0.858922,-0.48557 1.6,0 1.070733,0.70157 1.120154,2.4889 0.0888,3.21129 -0.391158,0.27397 -0.79112,0.49814 -0.888797,0.49814 -0.09768,0 -0.497638,-0.22417 -0.888796,-0.49814 z M 38.399998,150.72 c 0,-1.21313 0.05091,-1.28 0.974544,-1.28 1.100137,0 2.545455,-1.22319 2.545455,-2.15425 0,-0.32084 -0.224166,-0.90339 -0.498143,-1.29455 -0.400535,-0.57184 -0.808116,-0.7112 -2.08,-0.7112 h -1.581856 v 3.36 c 0,2.02667 0.126985,3.36 0.32,3.36 0.176,0 0.32,-0.576 0.32,-1.28 z m 0,-3.36 c 0,-1.30968 0.07003,-1.44 0.773827,-1.44 1.322902,0 1.786173,0.33795 1.786173,1.30298 0,0.97284 -0.727524,1.57702 -1.898964,1.57702 -0.570118,0 -0.661036,-0.19806 -0.661036,-1.44 z M 48.705831,150 c 0.141395,-2.3051 0.03887,-2.8 -0.580071,-2.8 -0.341395,0 -0.445763,0.56192 -0.445763,2.4 0,1.85286 0.102947,2.4 0.451578,2.4 0.327516,0 0.48528,-0.54946 0.574256,-2 z m 15.614165,-0.08 c 0,-1.86667 0.06564,-2.08 0.64,-2.08 0.352,0 0.64,-0.144 0.64,-0.32 0,-0.176 -0.288,-0.32 -0.64,-0.32 -0.475494,0 -0.64,-0.21333 -0.64,-0.82996 0,-0.56084 0.207527,-0.88423 0.64,-0.99732 0.796646,-0.20833 0.842448,-0.73272 0.064,-0.73272 -0.83119,0 -1.344,0.63491 -1.344,1.664 0,0.58311 -0.167619,0.896 -0.48,0.896 -0.264,0 -0.48,0.144 -0.48,0.32 0,0.176 0.216,0.32 0.48,0.32 0.377437,0 0.48,0.44444 0.48,2.08 0,1.17333 0.139488,2.08 0.32,2.08 0.180512,0 0.32,-0.90667 0.32,-2.08 z m 7.36,-0.30874 c 0,-1.7178 0.105001,-2.12494 0.618963,-2.4 0.936339,-0.50112 2.261037,-0.41397 2.261037,0.14874 0,0.264 0.196031,0.48 0.435625,0.48 0.287382,0 0.385619,-0.26158 0.288682,-0.76868 -0.183408,-0.95944 -1.485408,-1.28083 -2.724307,-0.67248 -0.745488,0.36606 -0.88,0.36402 -0.88,-0.0133 0,-0.26446 -0.195005,-0.3706 -0.48,-0.26124 -0.373911,0.14349 -0.48,0.77782 -0.48,2.86996 0,2.17402 0.09146,2.68577 0.48,2.68577 0.377168,0 0.48,-0.4432 0.48,-2.06875 z m 29.253824,1.8745 c 0.98648,-0.37854 0.48809,-0.77043 -0.73175,-0.57537 -1.056668,0.16897 -1.314358,0.0888 -1.759996,-0.54742 -0.287146,-0.40996 -0.52208,-0.85733 -0.52208,-0.99417 0,-0.13684 0.864,-0.2488 1.92,-0.2488 1.896756,0 1.919996,-0.011 1.919996,-0.9104 0,-1.47948 -1.61057,-2.51307 -3.058252,-1.96266 -1.150406,0.43738 -1.805174,2.1365 -1.395325,3.62085 0.175328,0.63498 0.565107,1.29811 0.866179,1.47363 0.620384,0.36166 2.006118,0.43411 2.761228,0.14434 z m -3.013826,-3.27616 c 0,-0.4796 1.151498,-1.3296 1.801197,-1.3296 0.721769,0 1.398799,0.57306 1.398799,1.184 0,0.28587 -0.50051,0.416 -1.599996,0.416 -0.88,0 -1.6,-0.12168 -1.6,-0.2704 z m 7.039996,1.2365 c 0,-2.11542 0.0424,-2.24455 0.79929,-2.43451 1.50431,-0.37756 1.76071,-0.0254 1.76071,2.41837 0,1.7867 0.0988,2.25004 0.48,2.25004 0.64293,0 0.68226,-4.08108 0.0477,-4.94889 -0.50444,-0.68986 -2.39709,-0.76467 -2.81154,-0.11113 -0.20167,0.31802 -0.26755,0.28646 -0.27126,-0.12994 -0.003,-0.35649 -0.17375,-0.48516 -0.4849,-0.36576 -0.37391,0.14348 -0.48,0.77781 -0.48,2.86996 0,2.17401 0.0915,2.68576 0.48,2.68576 0.38083,0 0.48,-0.46155 0.48,-2.2339 z m 9.94104,1.90264 c 0.48436,-0.25922 0.61896,-0.67676 0.61896,-1.92 V 147.84 h -1.12 c -0.616,0 -1.12,0.144 -1.12,0.32 0,0.176 0.36,0.32 0.8,0.32 0.67345,0 0.8,0.15008 0.8,0.94874 0,1.77807 -2.38806,2.14547 -3.14514,0.48387 -0.20617,-0.45249 -0.37486,-1.51363 -0.37486,-2.35807 0,-1.86852 0.71611,-2.67642 2.2947,-2.58882 1.60508,0.0891 1.7624,0.0171 1.08414,-0.4959 -1.00864,-0.76289 -2.35983,-0.57806 -3.40345,0.46557 -0.82599,0.82598 -0.93539,1.15993 -0.93539,2.85544 0,1.59879 0.13862,2.08481 0.82845,2.90462 0.8857,1.05259 2.41739,1.32505 3.67259,0.65329 z m 6.3665,-0.36908 c 0.7081,-0.76006 0.88675,-2.74396 0.33922,-3.76704 -0.48722,-0.91038 -1.9536,-1.29408 -3.10132,-0.8115 -1.08589,0.45659 -1.38544,1.00617 -1.38544,2.5419 0,2.37488 2.62948,3.66608 4.14754,2.03664 z m -3.05429,-1.07434 c -0.6115,-1.46351 -0.0743,-2.81568 1.17651,-2.9615 1.04306,-0.1216 1.62433,0.56944 1.66427,1.97857 0.0379,1.33736 -0.54777,2.11761 -1.58954,2.11761 -0.58761,0 -0.89277,-0.27673 -1.25124,-1.13468 z m 9.31351,-0.80561 c 0.47262,-1.41917 0.78203,-2.65759 0.68757,-2.75205 -0.40611,-0.4061 -0.84059,0.36213 -1.37243,2.42668 l -0.56876,2.20788 -0.81657,-2.52463 c -0.52975,-1.63784 -0.94001,-2.4426 -1.16801,-2.2911 -0.24463,0.16253 -0.10067,1.03592 0.47364,2.87351 1.10042,3.52094 1.60821,3.5319 2.76456,0.0597 z M 50.239997,147.2919 c 0,-0.46802 -0.07006,-0.48773 -0.773827,-0.21766 -0.718627,0.27576 -0.62792,0.73516 0.133827,0.67778 0.352,-0.0265 0.64,-0.23357 0.64,-0.46012 z M 17.747454,107.37979 c 0.841044,-0.25312 1.872737,-0.78298 2.292652,-1.17747 l 0.763481,-0.71725 -0.679283,-0.72306 -0.679282,-0.72307 -1.157773,0.62053 c -1.536937,0.82375 -4.036197,0.81999 -5.394342,-0.008 -1.135133,-0.69211 -2.332908,-2.74131 -2.332908,-3.99121 v -0.805362 l 5.68,-0.08739 5.68,-0.08738 0.09747,-1.340934 c 0.281966,-3.879216 -2.164808,-7.048589 -5.870562,-7.604304 -4.44402,-0.66642 -8.1565064,2.955452 -8.2621199,8.06046 -0.065656,3.17358 0.5925302,5.07257 2.3764299,6.85647 2.053122,2.05312 4.516682,2.6218 7.486239,1.7281 z M 9.9274743,98.034237 c 0.021517,-0.789434 1.8948177,-3.54944 2.8398477,-4.184061 2.556611,-1.716854 6.752677,0.02051 6.752677,2.795914 v 0.879779 l -4.24,0.148368 c -2.332,0.0816 -4.492,0.257686 -4.8,0.391302 -0.308,0.133613 -0.5566358,0.119527 -0.5525247,-0.0313 z m 26.5583407,9.286103 c 0.812346,-0.32504 1.503901,-0.89432 1.846477,-1.52 l 0.547706,-1.00034 0.0984,1.36 c 0.09792,1.35339 0.104531,1.36 1.36,1.36 h 1.261599 v -8.514237 c 0,-7.6324 -0.05242,-8.494118 -0.506172,-8.32 -0.278394,0.106832 -0.854394,0.194237 -1.28,0.194237 h -0.773827 v 6.184221 c 0,6.005619 -0.0208,6.203159 -0.72,6.840009 -0.396,0.36069 -1.034535,0.81779 -1.418963,1.01578 -1.044119,0.53776 -3.678813,0.44392 -4.543639,-0.16183 -1.398112,-0.97928 -1.637398,-2.21592 -1.637398,-8.462138 0,-5.161488 -0.05607,-5.782999 -0.506172,-5.610279 C 29.935431,90.792595 29.34641,90.88 28.904889,90.88 h -0.802765 l 0.108937,6.32 c 0.106994,6.20727 0.12444,6.34637 0.978024,7.79836 1.454277,2.4738 4.497204,3.44212 7.29673,2.32198 z m 40.532296,-0.39153 c 2.685465,-1.37698 3.992409,-3.89825 3.992409,-7.701885 0,-4.715066 -2.227549,-7.765818 -6.216761,-8.514199 -3.356173,-0.629622 -7.051907,1.850026 -8.084323,5.424164 -0.96001,3.323478 -0.197856,7.12624 1.886672,9.41351 2.01407,2.20997 5.642185,2.80377 8.422003,1.37841 z m -5.432243,-1.89733 c -1.453741,-0.89664 -2.522343,-3.47664 -2.522343,-6.089838 0,-3.849498 1.79408,-6.13786 4.814119,-6.140445 1.191555,-9.6e-4 1.576303,0.177459 2.609247,1.210403 0.747821,0.747821 1.359501,1.758368 1.597981,2.64 0.490586,1.813622 0.25487,5.27789 -0.452144,6.6451 -1.08568,2.09948 -4.068272,2.95515 -6.04686,1.73478 z m 24.17596,1.97965 c 1.860979,-0.6566 2.723497,-1.27333 3.452246,-2.46852 0.795596,-1.30481 0.795156,-2.98113 -0.0013,-4.28707 -0.791242,-1.297687 -1.778377,-1.792106 -4.972953,-2.490772 -3.491478,-0.763603 -4.775882,-1.39911 -4.895146,-2.422067 -0.157977,-1.355015 0.92104,-2.025162 3.494928,-2.170599 1.233427,-0.0697 2.874106,0.0534 3.66567,0.275024 0.788096,0.220653 1.499271,0.334816 1.580391,0.253696 0.08112,-0.08112 0.235779,-0.58894 0.343689,-1.128492 0.182346,-0.911728 0.109143,-1.011613 -1.036665,-1.414474 -1.978042,-0.695475 -6.042182,-0.51511 -8.048505,0.35719 -2.053111,0.89264 -2.778125,2.035812 -2.522285,3.977034 0.222179,1.685798 1.919184,3.222378 4.282672,3.877805 0.932387,0.258563 2.486406,0.689895 3.453372,0.958505 2.275098,0.63201 2.996288,1.57274 2.274999,2.96756 -0.933431,1.80506 -4.926826,2.55122 -8.269638,1.54519 -1.424122,-0.4286 -1.466487,-0.42076 -1.810861,0.33505 -0.516608,1.13383 -0.446982,1.36333 0.527379,1.73836 2.556576,0.98401 5.859965,1.02163 8.481833,0.0966 z m 21.222862,-0.26127 c 1.87292,-0.85745 1.9576,-0.98902 1.24394,-1.93265 -0.45517,-0.60183 -0.52212,-0.60446 -1.98982,-0.0784 -1.9139,0.68597 -3.22422,0.6898 -3.97362,0.0116 -0.52281,-0.47314 -0.5852,-1.10427 -0.5852,-5.920007 V 93.44 h 3.32268 c 3.17524,0 3.33124,-0.03194 3.51563,-0.72 0.49493,-1.846835 0.50786,-1.84 -3.47831,-1.84 h -3.68 v -2.271424 -2.271424 l -1.04,0.656506 c -0.91875,0.579968 -1.05127,0.844777 -1.13672,2.271424 L 109.08655,90.88 h -2.22328 -2.22328 v 1.28 1.28 h 2.24 2.24 v 5.433523 c 0,6.244537 0.32365,7.599397 2.02326,8.469707 1.32843,0.68023 3.55315,0.45424 5.84144,-0.59337 z m 16.20943,0.62479 c 0.48077,-0.10114 1.38077,-0.62873 2,-1.17242 l 1.12587,-0.98853 v 1.15315 c 0,1.1433 0.0116,1.15315 1.36,1.15323 l 1.36,8e-5 -0.0854,-5.36008 c -0.1041,-6.531613 -0.23449,-7.647504 -1.05036,-8.98911 -1.23217,-2.026128 -5.08074,-2.870135 -8.80796,-1.93161 -1.73321,0.436429 -1.91125,0.67609 -1.2509,1.68391 0.44938,0.68584 0.63655,0.74562 1.53119,0.48904 1.41144,-0.404793 4.19176,-0.365932 5.15298,0.07203 0.90519,0.412432 1.79047,2.039203 1.79047,3.290119 0,0.75928 -0.0824,0.815052 -0.88,0.595516 -0.484,-0.133219 -1.96044,-0.240377 -3.28098,-0.238128 -1.90503,0.0032 -2.73129,0.167696 -4,0.796122 -4.65122,2.303861 -3.45914,8.605221 1.80501,9.541381 1.40325,0.24954 1.62465,0.24305 3.2301,-0.0947 z m -2.62907,-2.11498 c -1.4552,-0.32563 -2.56506,-1.6276 -2.56506,-3.00907 0,-2.15437 2.92498,-3.412549 6.72,-2.8906 l 1.6,0.220058 v 2.036482 2.03648 l -1.36,0.77474 c -1.6297,0.92837 -2.8942,1.16772 -4.39494,0.83191 z m 25.45964,1.49019 c 1.87291,-0.85745 1.95759,-0.98902 1.24393,-1.93265 -0.45516,-0.60183 -0.52211,-0.60446 -1.98982,-0.0784 -1.91389,0.68597 -3.22421,0.6898 -3.97361,0.0116 -0.52281,-0.47314 -0.5852,-1.10427 -0.5852,-5.920007 V 93.44 h 3.32268 c 3.17523,0 3.33124,-0.03194 3.51563,-0.72 0.49493,-1.846835 0.50785,-1.84 -3.47831,-1.84 h -3.68 v -2.271424 -2.271424 l -1.04,0.656506 c -0.91875,0.579968 -1.05128,0.844777 -1.13672,2.271424 L 148.12654,90.88 h -2.22327 -2.22328 v 1.28 1.28 h 2.24 2.24 v 5.433523 c 0,6.244537 0.32365,7.599397 2.02326,8.469707 1.32842,0.68023 3.55314,0.45424 5.84144,-0.59337 z m -105.784693,-5.0267 v -5.796843 l 1.192089,-1.091911 c 1.456656,-1.334246 2.896708,-1.792521 5.207911,-1.657344 l 1.759999,0.102938 0.478506,1.384298 c 0.445872,1.2899 0.54248,1.371504 1.416666,1.196668 0.51599,-0.1032 0.968672,-0.222134 1.005964,-0.2643 0.03729,-0.04217 -0.10086,-0.997892 -0.307004,-2.123834 -0.458637,-2.505059 -0.773687,-2.681357 -4.834131,-2.705117 -3.282903,-0.0192 -3.949219,0.239827 -5.011398,1.948237 L 50.399997,93.92 50.302323,92.212547 c -0.07875,-1.376569 -0.192342,-1.671129 -0.586172,-1.52 C 49.447475,90.795645 48.879431,90.88 48.453824,90.88 h -0.773827 v 8.32 8.32 h 1.28 1.28 z"
         id="path743" />
      <path
         style="fill:#fe9754;stroke-width:0.32"
         d="M 41.038964,167.95813 -0.00206658,144.25275 0.07896671,96.04777 0.15999999,47.842797 41.38345,24.040718 C 80.161317,1.6506995 82.656459,0.26122205 83.442309,0.61927968 84.909873,1.2879473 163.63733,46.774701 164.71999,47.579494 l 1.04,0.773076 v 47.819174 47.819176 l -1.2,0.78162 c -4.0934,2.66622 -81.263294,46.90592 -81.809051,46.89921 -0.369018,-0.005 -19.139407,-10.67566 -41.711975,-23.71362 z M 91.519994,152.96 c 0,-1.15865 0.07735,-1.28 0.815892,-1.28 1.043769,0 2.568409,-0.78481 2.825331,-1.45434 0.453945,-1.18296 0.194633,-2.7389 -0.586679,-3.5202 -0.91527,-0.91528 -1.367619,-0.97074 -2.34334,-0.28732 -0.64833,0.45411 -0.711204,0.45175 -0.711204,-0.0266 0,-0.28865 -0.18,-0.46504 -0.399999,-0.39197 -0.285428,0.0948 -0.425655,1.29399 -0.489562,4.18667 -0.07653,3.46427 -0.01837,4.05382 0.4,4.05382 0.357821,0 0.489561,-0.34445 0.489561,-1.28 z m 0,-3.576 c 0,-1.86038 0.370132,-2.504 1.44,-2.504 0.984503,0 1.44,0.61518 1.44,1.94482 0,1.33339 -0.419744,1.80313 -1.870499,2.09328 l -1.009501,0.2019 z m -45.839997,2.58428 c 0.669251,0.0228 0.72,-0.11053 0.72,-1.89186 0,-1.48975 -0.142489,-2.05891 -0.64,-2.55642 -0.679507,-0.67951 -1.009843,-0.74654 -2.16,-0.43831 -1.162128,0.31144 -0.873459,0.96771 0.362205,0.82346 0.628733,-0.0734 1.182262,0.0356 1.320995,0.26003 0.278429,0.45051 -0.373619,0.94287 -1.258003,0.94992 -0.800669,0.006 -1.785197,0.90882 -1.785197,1.63635 0,0.78062 1.285399,1.64118 2.08,1.39254 0.352,-0.11015 0.964,-0.18922 1.36,-0.17571 z m -2.3584,-1.07296 c -0.277696,-0.72366 0.149175,-1.13532 1.177287,-1.13532 0.95871,0 1.091814,0.19494 0.746876,1.09383 -0.243612,0.63485 -1.684547,0.66592 -1.924163,0.0415 z m 10.35855,0.86468 c 0.07812,-0.23462 -0.142451,-0.4 -0.533485,-0.4 -0.594745,0 -0.666665,-0.18987 -0.666665,-1.76 0,-1.54667 0.07757,-1.76 0.64,-1.76 0.352,0 0.64,-0.144 0.64,-0.32 0,-0.176 -0.288,-0.32 -0.64,-0.32 -0.474839,0 -0.64,-0.21333 -0.64,-0.82667 0,-1.0014 -0.751418,-0.89326 -0.902003,0.12981 -0.08387,0.56982 -0.311418,0.69056 -1.28,0.67922 -2.843616,-0.0333 -2.617997,-0.24195 -2.617997,2.42122 0,1.91682 0.09606,2.39642 0.48,2.39642 0.366288,0 0.48,-0.40178 0.48,-1.696 0,-1.96942 0.366118,-2.464 1.824,-2.464 h 1.056 v 1.9041 c 0,1.4742 0.126435,1.97871 0.56,2.23457 0.694893,0.41007 1.423977,0.31044 1.60015,-0.21867 z m 6.923165,0.19849 c 0.999308,-0.45532 1.600319,-1.86711 1.326182,-3.11524 -0.34361,-1.56445 -1.818986,-2.28549 -3.365635,-1.64485 -1.841462,0.76276 -2.04561,3.83612 -0.31305,4.71282 0.980592,0.4962 1.35088,0.50364 2.352503,0.0473 z M 58.303996,150.976 c -0.977846,-0.97785 -0.177308,-3.136 1.163258,-3.136 1.151651,0 1.652742,0.53361 1.652742,1.76 0,1.21045 -0.499587,1.76 -1.6,1.76 -0.4576,0 -1.0048,-0.1728 -1.216,-0.384 z M 38.399998,150.72 c 0,-1.22546 0.04344,-1.28 1.019376,-1.28 1.28104,0 2.500623,-1.09549 2.500623,-2.24619 0,-1.27394 -1.037231,-2.03169 -2.81222,-2.05447 l -1.507779,-0.0193 -0.09083,3.44 c -0.07703,2.91764 -0.01629,3.44 0.4,3.44 0.359296,0 0.490826,-0.34301 0.490826,-1.28 z m 0,-3.36 c 0,-1.37305 0.04281,-1.44 0.920819,-1.44 0.506448,0 1.098528,0.21413 1.315731,0.47584 0.563021,0.6784 0.144083,1.97188 -0.71305,2.20155 -1.384096,0.37088 -1.5235,0.25766 -1.5235,-1.23739 z m 25.919998,2.56 c 0,-1.86667 0.06564,-2.08 0.64,-2.08 0.352,0 0.64,-0.144 0.64,-0.32 0,-0.176 -0.288,-0.32 -0.64,-0.32 -0.475494,0 -0.64,-0.21333 -0.64,-0.82996 0,-0.56084 0.207527,-0.88423 0.64,-0.99732 0.819875,-0.2144 0.83271,-0.73272 0.01814,-0.73272 -0.690921,0 -1.618144,1.12571 -1.618144,1.96453 0,0.29818 -0.18,0.62614 -0.4,0.7288 -0.32,0.14934 -0.32,0.224 0,0.37334 0.259047,0.12089 0.4,0.91022 0.4,2.24 0,1.61185 0.103203,2.05333 0.48,2.05333 0.377437,0 0.48,-0.44444 0.48,-2.08 z m 64.108744,-3.98095 c -0.30832,-0.35051 -1.06592,0.95279 -1.62203,2.79039 l -0.60812,2.00945 -0.75563,-2.40945 c -0.7158,-2.28239 -1.02971,-2.75811 -1.4119,-2.13971 -0.30366,0.49134 1.51079,5.46258 2.03321,5.57061 0.36611,0.0757 0.75623,-0.65347 1.49209,-2.78892 0.54801,-1.59028 0.94058,-2.95485 0.87238,-3.03237 z m -56.748744,3.92615 c 0,-1.23963 0.167846,-2.00028 0.529596,-2.4 0.651927,-0.72037 2.350404,-0.79639 2.350404,-0.1052 0,0.264 0.225702,0.48 0.501564,0.48 0.372381,0 0.44456,-0.18544 0.280247,-0.72 -0.308471,-1.00354 -0.346461,-1.02546 -1.777373,-1.02546 -0.777942,0 -1.393565,0.1847 -1.575706,0.47273 -0.24864,0.3932 -0.299756,0.37403 -0.303833,-0.11394 -0.0026,-0.32531 -0.183095,-0.52764 -0.404899,-0.45417 -0.269024,0.0891 -0.430275,1.04087 -0.492458,2.90666 -0.07745,2.32385 -0.01251,2.77418 0.4,2.77418 0.385389,0 0.492458,-0.39457 0.492458,-1.8148 z m 29.684484,1.2463 c 0.10103,-0.3068 -0.18101,-0.35804 -1.13291,-0.20583 -1.089624,0.17424 -1.340658,0.0981 -1.789496,-0.5427 -0.287146,-0.40996 -0.52208,-0.85733 -0.52208,-0.99417 0,-0.13684 0.936,-0.2488 2.08,-0.2488 1.143996,0 2.079996,-0.12251 2.079996,-0.27225 0,-0.97363 -0.7975,-2.27534 -1.59686,-2.60645 -1.827587,-0.75701 -3.703686,0.992 -3.387881,3.15839 0.24711,1.69517 1.018012,2.327 2.70286,2.21526 0.804071,-0.0533 1.490831,-0.27405 1.566371,-0.50345 z M 98.317636,147.76 c 0.613065,-0.92791 1.837294,-1.11748 2.384424,-0.36923 0.68072,0.93094 0.50327,1.08923 -1.221096,1.08923 -1.627354,0 -1.635642,-0.005 -1.163328,-0.72 z m 6.642354,1.6861 c 0,-2.11542 0.0424,-2.24455 0.79929,-2.43451 1.50431,-0.37756 1.76071,-0.0254 1.76071,2.41837 0,1.7867 0.0988,2.25004 0.48,2.25004 0.38387,0 0.48,-0.47918 0.48,-2.39262 0,-2.19462 -0.0657,-2.43571 -0.79452,-2.91322 -0.62566,-0.40995 -0.99569,-0.45046 -1.74108,-0.19061 -0.6738,0.23488 -0.98051,0.22813 -1.06436,-0.0235 -0.0648,-0.19438 -0.28931,-0.24742 -0.49892,-0.11787 -0.24612,0.15212 -0.38112,1.19234 -0.38112,2.93667 0,2.18765 0.0913,2.70111 0.48,2.70111 0.38083,0 0.48,-0.46155 0.48,-2.2339 z m 10.1688,1.73576 c 0.55349,-0.38768 0.7112,-0.81346 0.7112,-1.92 V 147.84 h -1.28 c -0.704,0 -1.28,0.144 -1.28,0.32 0,0.176 0.36913,0.32 0.82028,0.32 0.73185,0 0.80946,0.11149 0.72,1.03422 -0.0782,0.80666 -0.30124,1.10447 -1.01359,1.35349 -0.80333,0.28082 -1.00562,0.21194 -1.68,-0.57207 -0.57482,-0.66827 -0.76669,-1.26945 -0.76669,-2.40228 0,-2.07973 0.68505,-2.99301 2.19359,-2.9244 1.7245,0.0784 1.86862,0.0177 1.18525,-0.49914 -0.74826,-0.56595 -2.3859,-0.5976 -3.08657,-0.0596 -0.86183,0.66169 -1.32611,1.85986 -1.32611,3.42226 0,1.54011 0.70865,3.34432 1.42711,3.63339 0.86121,0.3465 2.69574,0.19217 3.37553,-0.28397 z M 121.06,151.28 c 0.81938,-0.60434 1.15415,-2.16614 0.73813,-3.44359 -0.62277,-1.91232 -2.85211,-2.40349 -4.11814,-0.90731 -0.79561,0.94025 -0.75006,3.28083 0.08,4.1109 0.72848,0.72848 2.46635,0.85487 3.30001,0.24 z m -2.47715,-0.74286 c -0.59271,-0.5927 -0.67003,-2.72197 -0.11886,-3.27314 0.2112,-0.2112 0.6864,-0.384 1.056,-0.384 1.00895,0 1.44,0.62263 1.44,2.08 0,1.94631 -1.2071,2.74718 -2.37714,1.57714 z M 17.928063,107.47978 c 0.661273,-0.19813 1.61398,-0.69314 2.117126,-1.10005 l 0.91481,-0.73981 -0.808984,-0.82167 -0.808983,-0.82167 -1.258678,0.64171 c -3.165906,1.61407 -6.771257,-0.14324 -7.38234,-3.59829 l -0.212241,-1.2 h 5.795613 5.795613 l -0.0018,-1.68 c -0.0027,-2.564614 -0.559454,-4.08545 -2.03611,-5.562106 -2.932573,-2.932572 -7.45704,-2.691616 -10.2271728,0.544663 -2.6437739,3.088653 -2.8239486,8.174123 -0.4183907,11.809163 1.5692245,2.37127 5.3326905,3.48645 8.5315215,2.52806 z m -7.680589,-9.857825 c 0.0041,-0.100073 0.400112,-0.901955 0.88,-1.781955 1.084143,-1.988054 2.513039,-2.815984 4.509081,-2.612643 1.811466,0.184534 2.969669,1.068585 3.549272,2.709136 0.256206,0.725184 0.400206,1.379069 0.32,1.453078 -0.227644,0.210055 -9.266756,0.436938 -9.258353,0.232384 z m 26.347333,9.777545 c 0.579844,-0.24227 1.362656,-0.85427 1.739587,-1.36 l 0.685328,-0.9195 0.01014,1.2 c 0.01002,1.18498 0.02618,1.2 1.290138,1.2 h 1.28 v -8.48 c 0,-9.287677 0.108297,-8.800432 -1.84,-8.278307 -0.714602,0.191504 -0.72,0.238483 -0.72,6.267241 v 6.074296 l -0.982921,0.91818 c -1.694173,1.5826 -4.79624,1.64146 -6.208311,0.11781 -0.926653,-0.99987 -1.128774,-2.55125 -1.128774,-8.663882 0,-2.703437 -0.126,-4.915338 -0.28,-4.915338 -0.154,0 -0.73,0.09 -1.28,0.2 l -1,0.2 0.01404,5.96 c 0.0146,6.19599 0.259108,7.69835 1.475528,9.06638 1.456986,1.63857 4.785031,2.31572 6.945235,1.41312 z m 40.047934,-0.15629 c 1.468589,-0.66717 3.205968,-2.5104 3.939901,-4.17994 0.694111,-1.57896 0.665212,-6.17806 -0.04883,-7.771356 -1.878404,-4.191408 -6.164326,-5.850061 -10.077558,-3.900013 -2.965549,1.477792 -4.442262,4.577753 -4.146093,8.703589 0.32593,4.54041 3.383584,7.71099 7.449837,7.72496 0.879999,0.003 2.177235,-0.25674 2.882745,-0.57724 z m -4.978121,-2.3643 c -1.701773,-1.14682 -2.326791,-2.53539 -2.471783,-5.491416 -0.110528,-2.253376 -0.02941,-2.769084 0.628096,-3.993785 1.883971,-3.509095 6.060742,-3.392807 7.71616,0.214825 1.005149,2.190512 0.967248,5.805166 -0.08032,7.659876 -1.285648,2.27624 -3.776537,2.96883 -5.792153,1.6105 z m 23.488667,2.42369 c 1.379923,-0.38719 2.302618,-0.90853 3.300995,-1.86515 1.282112,-1.22848 1.385712,-1.45063 1.385712,-2.97146 0,-1.37603 -0.158944,-1.82475 -0.975994,-2.755318 -1.047036,-1.192506 -1.670444,-1.449635 -5.482524,-2.261302 -3.736605,-0.795597 -5.162022,-2.339725 -3.291334,-3.565447 1.158064,-0.75879 4.761318,-0.94936 6.497798,-0.343657 l 1.387942,0.484131 0.452058,-1.08192 c 0.24863,-0.595056 0.452054,-1.154525 0.452054,-1.243261 0,-0.08874 -0.820845,-0.399965 -1.824099,-0.691616 -3.351958,-0.974442 -8.271286,-0.106022 -9.701891,1.712698 -0.947804,1.204937 -0.853276,3.290016 0.206244,4.54918 1.072697,1.274832 2.570905,2.01842 5.480716,2.720186 1.276531,0.307866 2.680531,0.842586 3.12,1.188266 2.688246,2.11458 -1.659386,4.77986 -6.250201,3.83164 -1.066455,-0.22027 -2.119901,-0.46991 -2.340989,-0.55475 -0.22936,-0.088 -0.629075,0.32198 -0.930822,0.95475 l -0.528845,1.109 1.344944,0.48645 c 2.69927,0.9763 4.966902,1.06395 7.698236,0.29758 z m 20.596823,0.0545 c 0.89445,-0.26563 1.94027,-0.73721 2.32404,-1.04797 0.62197,-0.50365 0.6542,-0.66063 0.29666,-1.44533 -0.2206,-0.48418 -0.55629,-0.81319 -0.74596,-0.73114 -1.25467,0.54279 -3.8186,1.17554 -4.41578,1.08979 -1.26079,-0.18106 -1.51929,-1.32441 -1.52436,-6.7424 l -0.005,-5.04 h 3.52 3.52 v -1.28 -1.28 h -3.52 -3.52 v -2.24 c 0,-1.232 -0.13577,-2.24 -0.30171,-2.24 -0.16593,0 -0.81393,0.302224 -1.44,0.67161 -1.0582,0.624355 -1.13829,0.781952 -1.13829,2.24 V 90.88 h -2.08 -2.08 v 1.28 1.28 h 2.04031 2.0403 l 0.14114,5.68 c 0.11235,4.52124 0.25184,5.89051 0.68372,6.71189 1.02016,1.94016 3.09213,2.44948 6.20465,1.52516 z m 17.35125,0.16829 c 0.60342,-0.17306 1.57447,-0.7773 2.15788,-1.34277 l 1.06075,-1.02812 v 1.18278 1.18277 h 1.39946 1.39947 l -0.12526,-4.4 c -0.25392,-8.919158 -0.25174,-8.901072 -1.22687,-10.179526 -1.12623,-1.47657 -2.61747,-2.102228 -5.09555,-2.137866 -2.09813,-0.03017 -5.31125,0.607613 -5.31125,1.054253 0,0.150163 0.1723,0.651177 0.38289,1.113366 0.31149,0.683645 0.53525,0.804912 1.2,0.650336 1.84941,-0.430045 4.39128,-0.540096 5.20038,-0.225155 1.06109,0.41303 1.8269,1.532826 2.06914,3.025568 l 0.18316,1.128669 -1.23779,-0.287187 c -5.29483,-1.2285 -10.03778,1.13088 -10.03778,4.993292 0,2.35113 1.48123,4.19863 4.12322,5.14277 1.41459,0.50552 2.42223,0.53864 3.85815,0.12682 z m -3.53719,-2.72522 c -1.01865,-0.55363 -1.7092,-2.09876 -1.43184,-3.20384 0.36872,-1.46907 1.89202,-2.073736 5.22766,-2.075083 l 2.96,-0.0012 v 1.870403 c 0,2.02292 -0.24615,2.40992 -2.14411,3.37101 -1.25105,0.63351 -3.48284,0.65224 -4.61171,0.0387 z m 25.22594,2.55693 c 0.89445,-0.26563 1.94026,-0.73721 2.32403,-1.04797 0.62198,-0.50365 0.65421,-0.66063 0.29667,-1.44533 -0.22061,-0.48418 -0.55629,-0.81319 -0.74596,-0.73114 -1.25467,0.54279 -3.8186,1.17554 -4.41578,1.08979 -1.26079,-0.18106 -1.51929,-1.32441 -1.52436,-6.7424 l -0.005,-5.04 h 3.52 3.52 v -1.28 -1.28 h -3.52 -3.52 v -2.24 c 0,-1.232 -0.13577,-2.24 -0.30171,-2.24 -0.16594,0 -0.81394,0.302224 -1.44,0.67161 -1.0582,0.624355 -1.13829,0.781952 -1.13829,2.24 V 90.88 h -2.08 -2.08 v 1.28 1.28 h 2.04031 2.0403 l 0.14114,5.68 c 0.11235,4.52124 0.25184,5.89051 0.68372,6.71189 1.02016,1.94016 3.09213,2.44948 6.20465,1.52516 z M 50.239997,101.79724 v -5.72277 l 1.25735,-1.135939 c 1.289699,-1.165168 2.966509,-1.816944 4.66265,-1.812377 1.794617,0.0048 2.296703,0.307196 2.690019,1.619968 C 59.178182,95.841443 59.346726,96 60.182886,96 c 1.215721,0 1.327859,-0.359805 0.847709,-2.72 -0.362048,-1.779667 -0.472461,-1.947917 -1.510599,-2.301939 -1.402422,-0.47825 -4.893586,-0.521805 -6.481362,-0.08086 -0.931408,0.258663 -1.362842,0.635767 -1.92,1.678215 L 50.399997,93.92 50.303274,92.24 c -0.0532,-0.924 -0.215197,-1.68 -0.36,-1.68 -0.144803,0 -0.713277,0.09 -1.263277,0.2 l -1,0.2 v 8.28 8.28 h 1.28 1.28 z"
         id="path741" />
      <path
         style="fill:#7e8286;stroke-width:0.32"
         d="M 41.919997,168.29764 C 19.655999,155.44203 1.1159999,144.71263 0.71999996,144.45452 L 0,143.98524 V 96.202218 C 0,51.095386 0.03136405,48.391629 0.55999997,47.927059 1.6532452,46.966304 82.207905,0.64 82.785272,0.64 c 0.711907,0 82.007468,46.864934 82.574718,47.602339 0.31591,0.410669 0.39897,10.480333 0.3951,47.898823 -0.003,26.058358 -0.11069,47.544798 -0.24,47.747638 -0.19778,0.31026 -78.540762,45.69914 -81.579204,47.26382 -0.563261,0.29006 -1.139261,0.52546 -1.28,0.52312 -0.140739,-0.002 -18.47189,-10.52249 -40.735889,-23.3781 z M 91.519994,152.96 c 0,-1.15865 0.07735,-1.28 0.815892,-1.28 1.043769,0 2.568409,-0.78481 2.825331,-1.45434 0.453945,-1.18296 0.194633,-2.7389 -0.586679,-3.5202 -0.91527,-0.91528 -1.367619,-0.97074 -2.34334,-0.28732 -0.64833,0.45411 -0.711204,0.45175 -0.711204,-0.0266 0,-0.28865 -0.18,-0.46504 -0.399999,-0.39197 -0.285428,0.0948 -0.425655,1.29399 -0.489562,4.18667 -0.07653,3.46427 -0.01837,4.05382 0.4,4.05382 0.357821,0 0.489561,-0.34445 0.489561,-1.28 z m 0,-3.576 c 0,-1.86038 0.370132,-2.504 1.44,-2.504 0.984503,0 1.44,0.61518 1.44,1.94482 0,1.33339 -0.419744,1.80313 -1.870499,2.09328 l -1.009501,0.2019 z m -45.839997,2.58428 c 0.669251,0.0228 0.72,-0.11053 0.72,-1.89186 0,-1.48975 -0.142489,-2.05891 -0.64,-2.55642 -0.679507,-0.67951 -1.009843,-0.74654 -2.16,-0.43831 -1.162128,0.31144 -0.873459,0.96771 0.362205,0.82346 0.628733,-0.0734 1.182262,0.0356 1.320995,0.26003 0.278429,0.45051 -0.373619,0.94287 -1.258003,0.94992 -0.800669,0.006 -1.785197,0.90882 -1.785197,1.63635 0,0.78062 1.285399,1.64118 2.08,1.39254 0.352,-0.11015 0.964,-0.18922 1.36,-0.17571 z m -2.3584,-1.07296 c -0.277696,-0.72366 0.149175,-1.13532 1.177287,-1.13532 0.95871,0 1.091814,0.19494 0.746876,1.09383 -0.243612,0.63485 -1.684547,0.66592 -1.924163,0.0415 z m 10.35855,0.86468 c 0.07812,-0.23462 -0.142451,-0.4 -0.533485,-0.4 -0.594745,0 -0.666665,-0.18987 -0.666665,-1.76 0,-1.54667 0.07757,-1.76 0.64,-1.76 0.352,0 0.64,-0.144 0.64,-0.32 0,-0.176 -0.288,-0.32 -0.64,-0.32 -0.474839,0 -0.64,-0.21333 -0.64,-0.82667 0,-1.0014 -0.751418,-0.89326 -0.902003,0.12981 -0.08387,0.56982 -0.311418,0.69056 -1.28,0.67922 -2.843616,-0.0333 -2.617997,-0.24195 -2.617997,2.42122 0,1.91682 0.09606,2.39642 0.48,2.39642 0.366288,0 0.48,-0.40178 0.48,-1.696 0,-1.96942 0.366118,-2.464 1.824,-2.464 h 1.056 v 1.9041 c 0,1.4742 0.126435,1.97871 0.56,2.23457 0.694893,0.41007 1.423977,0.31044 1.60015,-0.21867 z m 6.923165,0.19849 c 0.999308,-0.45532 1.600319,-1.86711 1.326182,-3.11524 -0.34361,-1.56445 -1.818986,-2.28549 -3.365635,-1.64485 -1.841462,0.76276 -2.04561,3.83612 -0.31305,4.71282 0.980592,0.4962 1.35088,0.50364 2.352503,0.0473 z M 58.303996,150.976 c -0.977846,-0.97785 -0.177308,-3.136 1.163258,-3.136 1.151651,0 1.652742,0.53361 1.652742,1.76 0,1.21045 -0.499587,1.76 -1.6,1.76 -0.4576,0 -1.0048,-0.1728 -1.216,-0.384 z M 38.399998,150.72 c 0,-1.22546 0.04344,-1.28 1.019376,-1.28 1.28104,0 2.500623,-1.09549 2.500623,-2.24619 0,-1.27394 -1.037231,-2.03169 -2.81222,-2.05447 l -1.507779,-0.0193 -0.09083,3.44 c -0.07703,2.91764 -0.01629,3.44 0.4,3.44 0.359296,0 0.490826,-0.34301 0.490826,-1.28 z m 0,-3.36 c 0,-1.37305 0.04281,-1.44 0.920819,-1.44 0.506448,0 1.098528,0.21413 1.315731,0.47584 0.563021,0.6784 0.144083,1.97188 -0.71305,2.20155 -1.384096,0.37088 -1.5235,0.25766 -1.5235,-1.23739 z m 25.919998,2.56 c 0,-1.86667 0.06564,-2.08 0.64,-2.08 0.352,0 0.64,-0.144 0.64,-0.32 0,-0.176 -0.288,-0.32 -0.64,-0.32 -0.475494,0 -0.64,-0.21333 -0.64,-0.82996 0,-0.56084 0.207527,-0.88423 0.64,-0.99732 0.819875,-0.2144 0.83271,-0.73272 0.01814,-0.73272 -0.690921,0 -1.618144,1.12571 -1.618144,1.96453 0,0.29818 -0.18,0.62614 -0.4,0.7288 -0.32,0.14934 -0.32,0.224 0,0.37334 0.259047,0.12089 0.4,0.91022 0.4,2.24 0,1.61185 0.103203,2.05333 0.48,2.05333 0.377437,0 0.48,-0.44444 0.48,-2.08 z m 64.108744,-3.98095 c -0.30832,-0.35051 -1.06592,0.95279 -1.62203,2.79039 l -0.60812,2.00945 -0.75563,-2.40945 c -0.7158,-2.28239 -1.02971,-2.75811 -1.4119,-2.13971 -0.30366,0.49134 1.51079,5.46258 2.03321,5.57061 0.36611,0.0757 0.75623,-0.65347 1.49209,-2.78892 0.54801,-1.59028 0.94058,-2.95485 0.87238,-3.03237 z m -56.748744,3.92615 c 0,-1.23963 0.167846,-2.00028 0.529596,-2.4 0.651927,-0.72037 2.350404,-0.79639 2.350404,-0.1052 0,0.264 0.225702,0.48 0.501564,0.48 0.372381,0 0.44456,-0.18544 0.280247,-0.72 -0.308471,-1.00354 -0.346461,-1.02546 -1.777373,-1.02546 -0.777942,0 -1.393565,0.1847 -1.575706,0.47273 -0.24864,0.3932 -0.299756,0.37403 -0.303833,-0.11394 -0.0026,-0.32531 -0.183095,-0.52764 -0.404899,-0.45417 -0.269024,0.0891 -0.430275,1.04087 -0.492458,2.90666 -0.07745,2.32385 -0.01251,2.77418 0.4,2.77418 0.385389,0 0.492458,-0.39457 0.492458,-1.8148 z m 29.684484,1.2463 c 0.10103,-0.3068 -0.18101,-0.35804 -1.13291,-0.20583 -1.089624,0.17424 -1.340658,0.0981 -1.789496,-0.5427 -0.287146,-0.40996 -0.52208,-0.85733 -0.52208,-0.99417 0,-0.13684 0.936,-0.2488 2.08,-0.2488 1.143996,0 2.079996,-0.12251 2.079996,-0.27225 0,-0.97363 -0.7975,-2.27534 -1.59686,-2.60645 -1.827587,-0.75701 -3.703686,0.992 -3.387881,3.15839 0.24711,1.69517 1.018012,2.327 2.70286,2.21526 0.804071,-0.0533 1.490831,-0.27405 1.566371,-0.50345 z M 98.317636,147.76 c 0.613065,-0.92791 1.837294,-1.11748 2.384424,-0.36923 0.68072,0.93094 0.50327,1.08923 -1.221096,1.08923 -1.627354,0 -1.635642,-0.005 -1.163328,-0.72 z m 6.642354,1.6861 c 0,-2.11542 0.0424,-2.24455 0.79929,-2.43451 1.50431,-0.37756 1.76071,-0.0254 1.76071,2.41837 0,1.7867 0.0988,2.25004 0.48,2.25004 0.38387,0 0.48,-0.47918 0.48,-2.39262 0,-2.19462 -0.0657,-2.43571 -0.79452,-2.91322 -0.62566,-0.40995 -0.99569,-0.45046 -1.74108,-0.19061 -0.6738,0.23488 -0.98051,0.22813 -1.06436,-0.0235 -0.0648,-0.19438 -0.28931,-0.24742 -0.49892,-0.11787 -0.24612,0.15212 -0.38112,1.19234 -0.38112,2.93667 0,2.18765 0.0913,2.70111 0.48,2.70111 0.38083,0 0.48,-0.46155 0.48,-2.2339 z m 10.1688,1.73576 c 0.55349,-0.38768 0.7112,-0.81346 0.7112,-1.92 V 147.84 h -1.28 c -0.704,0 -1.28,0.144 -1.28,0.32 0,0.176 0.36913,0.32 0.82028,0.32 0.73185,0 0.80946,0.11149 0.72,1.03422 -0.0782,0.80666 -0.30124,1.10447 -1.01359,1.35349 -0.80333,0.28082 -1.00562,0.21194 -1.68,-0.57207 -0.57482,-0.66827 -0.76669,-1.26945 -0.76669,-2.40228 0,-2.07973 0.68505,-2.99301 2.19359,-2.9244 1.7245,0.0784 1.86862,0.0177 1.18525,-0.49914 -0.74826,-0.56595 -2.3859,-0.5976 -3.08657,-0.0596 -0.86183,0.66169 -1.32611,1.85986 -1.32611,3.42226 0,1.54011 0.70865,3.34432 1.42711,3.63339 0.86121,0.3465 2.69574,0.19217 3.37553,-0.28397 z M 121.06,151.28 c 0.81938,-0.60434 1.15415,-2.16614 0.73813,-3.44359 -0.62277,-1.91232 -2.85211,-2.40349 -4.11814,-0.90731 -0.79561,0.94025 -0.75006,3.28083 0.08,4.1109 0.72848,0.72848 2.46635,0.85487 3.30001,0.24 z m -2.47715,-0.74286 c -0.59271,-0.5927 -0.67003,-2.72197 -0.11886,-3.27314 0.2112,-0.2112 0.6864,-0.384 1.056,-0.384 1.00895,0 1.44,0.62263 1.44,2.08 0,1.94631 -1.2071,2.74718 -2.37714,1.57714 z M 17.928063,107.47978 c 0.661273,-0.19813 1.61398,-0.69314 2.117126,-1.10005 l 0.91481,-0.73981 -0.808984,-0.82167 -0.808983,-0.82167 -1.258678,0.64171 c -3.165906,1.61407 -6.771257,-0.14324 -7.38234,-3.59829 l -0.212241,-1.2 h 5.795613 5.795613 l -0.0018,-1.68 c -0.0027,-2.564614 -0.559454,-4.08545 -2.03611,-5.562106 -2.932573,-2.932572 -7.45704,-2.691616 -10.2271728,0.544663 -2.6437739,3.088653 -2.8239486,8.174123 -0.4183907,11.809163 1.5692245,2.37127 5.3326905,3.48645 8.5315215,2.52806 z m -7.680589,-9.857825 c 0.0041,-0.100073 0.400112,-0.901955 0.88,-1.781955 1.084143,-1.988054 2.513039,-2.815984 4.509081,-2.612643 1.811466,0.184534 2.969669,1.068585 3.549272,2.709136 0.256206,0.725184 0.400206,1.379069 0.32,1.453078 -0.227644,0.210055 -9.266756,0.436938 -9.258353,0.232384 z m 26.347333,9.777545 c 0.579844,-0.24227 1.362656,-0.85427 1.739587,-1.36 l 0.685328,-0.9195 0.01014,1.2 c 0.01002,1.18498 0.02618,1.2 1.290138,1.2 h 1.28 v -8.48 c 0,-9.287677 0.108297,-8.800432 -1.84,-8.278307 -0.714602,0.191504 -0.72,0.238483 -0.72,6.267241 v 6.074296 l -0.982921,0.91818 c -1.694173,1.5826 -4.79624,1.64146 -6.208311,0.11781 -0.926653,-0.99987 -1.128774,-2.55125 -1.128774,-8.663882 0,-2.703437 -0.126,-4.915338 -0.28,-4.915338 -0.154,0 -0.73,0.09 -1.28,0.2 l -1,0.2 0.01404,5.96 c 0.0146,6.19599 0.259108,7.69835 1.475528,9.06638 1.456986,1.63857 4.785031,2.31572 6.945235,1.41312 z m 40.047934,-0.15629 c 1.468589,-0.66717 3.205968,-2.5104 3.939901,-4.17994 0.694111,-1.57896 0.665212,-6.17806 -0.04883,-7.771356 -1.878404,-4.191408 -6.164326,-5.850061 -10.077558,-3.900013 -2.965549,1.477792 -4.442262,4.577753 -4.146093,8.703589 0.32593,4.54041 3.383584,7.71099 7.449837,7.72496 0.879999,0.003 2.177235,-0.25674 2.882745,-0.57724 z m -4.978121,-2.3643 c -1.701773,-1.14682 -2.326791,-2.53539 -2.471783,-5.491416 -0.110528,-2.253376 -0.02941,-2.769084 0.628096,-3.993785 1.883971,-3.509095 6.060742,-3.392807 7.71616,0.214825 1.005149,2.190512 0.967248,5.805166 -0.08032,7.659876 -1.285648,2.27624 -3.776537,2.96883 -5.792153,1.6105 z m 23.488667,2.42369 c 1.379923,-0.38719 2.302618,-0.90853 3.300995,-1.86515 1.282112,-1.22848 1.385712,-1.45063 1.385712,-2.97146 0,-1.37603 -0.158944,-1.82475 -0.975994,-2.755318 -1.047036,-1.192506 -1.670444,-1.449635 -5.482524,-2.261302 -3.736605,-0.795597 -5.162022,-2.339725 -3.291334,-3.565447 1.158064,-0.75879 4.761318,-0.94936 6.497798,-0.343657 l 1.387942,0.484131 0.452058,-1.08192 c 0.24863,-0.595056 0.452054,-1.154525 0.452054,-1.243261 0,-0.08874 -0.820845,-0.399965 -1.824099,-0.691616 -3.351958,-0.974442 -8.271286,-0.106022 -9.701891,1.712698 -0.947804,1.204937 -0.853276,3.290016 0.206244,4.54918 1.072697,1.274832 2.570905,2.01842 5.480716,2.720186 1.276531,0.307866 2.680531,0.842586 3.12,1.188266 2.688246,2.11458 -1.659386,4.77986 -6.250201,3.83164 -1.066455,-0.22027 -2.119901,-0.46991 -2.340989,-0.55475 -0.22936,-0.088 -0.629075,0.32198 -0.930822,0.95475 l -0.528845,1.109 1.344944,0.48645 c 2.69927,0.9763 4.966902,1.06395 7.698236,0.29758 z m 20.596823,0.0545 c 0.89445,-0.26563 1.94027,-0.73721 2.32404,-1.04797 0.62197,-0.50365 0.6542,-0.66063 0.29666,-1.44533 -0.2206,-0.48418 -0.55629,-0.81319 -0.74596,-0.73114 -1.25467,0.54279 -3.8186,1.17554 -4.41578,1.08979 -1.26079,-0.18106 -1.51929,-1.32441 -1.52436,-6.7424 l -0.005,-5.04 h 3.52 3.52 v -1.28 -1.28 h -3.52 -3.52 v -2.24 c 0,-1.232 -0.13577,-2.24 -0.30171,-2.24 -0.16593,0 -0.81393,0.302224 -1.44,0.67161 -1.0582,0.624355 -1.13829,0.781952 -1.13829,2.24 V 90.88 h -2.08 -2.08 v 1.28 1.28 h 2.04031 2.0403 l 0.14114,5.68 c 0.11235,4.52124 0.25184,5.89051 0.68372,6.71189 1.02016,1.94016 3.09213,2.44948 6.20465,1.52516 z m 17.35125,0.16829 c 0.60342,-0.17306 1.57447,-0.7773 2.15788,-1.34277 l 1.06075,-1.02812 v 1.18278 1.18277 h 1.39946 1.39947 l -0.12526,-4.4 c -0.25392,-8.919158 -0.25174,-8.901072 -1.22687,-10.179526 -1.12623,-1.47657 -2.61747,-2.102228 -5.09555,-2.137866 -2.09813,-0.03017 -5.31125,0.607613 -5.31125,1.054253 0,0.150163 0.1723,0.651177 0.38289,1.113366 0.31149,0.683645 0.53525,0.804912 1.2,0.650336 1.84941,-0.430045 4.39128,-0.540096 5.20038,-0.225155 1.06109,0.41303 1.8269,1.532826 2.06914,3.025568 l 0.18316,1.128669 -1.23779,-0.287187 c -5.29483,-1.2285 -10.03778,1.13088 -10.03778,4.993292 0,2.35113 1.48123,4.19863 4.12322,5.14277 1.41459,0.50552 2.42223,0.53864 3.85815,0.12682 z m -3.53719,-2.72522 c -1.01865,-0.55363 -1.7092,-2.09876 -1.43184,-3.20384 0.36872,-1.46907 1.89202,-2.073736 5.22766,-2.075083 l 2.96,-0.0012 v 1.870403 c 0,2.02292 -0.24615,2.40992 -2.14411,3.37101 -1.25105,0.63351 -3.48284,0.65224 -4.61171,0.0387 z m 25.22594,2.55693 c 0.89445,-0.26563 1.94026,-0.73721 2.32403,-1.04797 0.62198,-0.50365 0.65421,-0.66063 0.29667,-1.44533 -0.22061,-0.48418 -0.55629,-0.81319 -0.74596,-0.73114 -1.25467,0.54279 -3.8186,1.17554 -4.41578,1.08979 -1.26079,-0.18106 -1.51929,-1.32441 -1.52436,-6.7424 l -0.005,-5.04 h 3.52 3.52 v -1.28 -1.28 h -3.52 -3.52 v -2.24 c 0,-1.232 -0.13577,-2.24 -0.30171,-2.24 -0.16594,0 -0.81394,0.302224 -1.44,0.67161 -1.0582,0.624355 -1.13829,0.781952 -1.13829,2.24 V 90.88 h -2.08 -2.08 v 1.28 1.28 h 2.04031 2.0403 l 0.14114,5.68 c 0.11235,4.52124 0.25184,5.89051 0.68372,6.71189 1.02016,1.94016 3.09213,2.44948 6.20465,1.52516 z M 50.239997,101.79724 v -5.72277 l 1.25735,-1.135939 c 1.289699,-1.165168 2.966509,-1.816944 4.66265,-1.812377 1.794617,0.0048 2.296703,0.307196 2.690019,1.619968 C 59.178182,95.841443 59.346726,96 60.182886,96 c 1.215721,0 1.327859,-0.359805 0.847709,-2.72 -0.362048,-1.779667 -0.472461,-1.947917 -1.510599,-2.301939 -1.402422,-0.47825 -4.893586,-0.521805 -6.481362,-0.08086 -0.931408,0.258663 -1.362842,0.635767 -1.92,1.678215 L 50.399997,93.92 50.303274,92.24 c -0.0532,-0.924 -0.215197,-1.68 -0.36,-1.68 -0.144803,0 -0.713277,0.09 -1.263277,0.2 l -1,0.2 v 8.28 8.28 h 1.28 1.28 z"
         id="path739" />
      <path
         style="fill:#fc6400;stroke-width:0.32"
         d="M 41.919997,168.29764 C 19.655999,155.44203 1.1159999,144.71263 0.71999996,144.45452 L 0,143.98524 V 96.202218 C 0,51.095386 0.03136405,48.391629 0.55999997,47.927059 1.6532452,46.966304 82.207905,0.64 82.785272,0.64 c 0.711907,0 82.007468,46.864934 82.574718,47.602339 0.31591,0.410669 0.39897,10.480333 0.3951,47.898823 -0.003,26.058358 -0.11069,47.544798 -0.24,47.747638 -0.19778,0.31026 -78.540762,45.69914 -81.579204,47.26382 -0.563261,0.29006 -1.139261,0.52546 -1.28,0.52312 -0.140739,-0.002 -18.47189,-10.52249 -40.735889,-23.3781 z M 91.519994,152.96 c 0,-1.21499 0.04983,-1.28 0.981037,-1.28 1.397261,0 2.204928,-0.52825 2.730349,-1.78576 0.396272,-0.94841 0.396272,-1.24007 0,-2.18848 -0.698307,-1.67129 -2.214077,-2.27735 -3.208528,-1.2829 -0.457142,0.45714 -0.502858,0.45471 -0.502858,-0.0267 0,-0.29124 -0.18,-0.46975 -0.399999,-0.39668 -0.285428,0.0948 -0.425655,1.29399 -0.489562,4.18667 -0.07653,3.46427 -0.01837,4.05382 0.4,4.05382 0.357821,0 0.489561,-0.34444 0.489561,-1.28 z m 0,-3.59057 c 0,-1.84649 0.371908,-2.48943 1.44,-2.48943 0.946314,0 1.44,0.60437 1.44,1.76284 0,1.2942 -0.553952,1.96636 -1.84,2.23266 l -1.04,0.21535 z m -45.839997,2.60927 c 0.66809,0.0131 0.72,-0.12404 0.72,-1.90228 0,-1.48975 -0.142489,-2.05891 -0.64,-2.55642 -0.679507,-0.67951 -1.009843,-0.74654 -2.16,-0.43831 -1.181324,0.31659 -0.863497,0.9958 0.446784,0.95481 0.641735,-0.0201 1.225661,0.13128 1.297616,0.33634 0.128352,0.36578 -0.142358,0.49152 -1.899526,0.88229 -1.155939,0.25707 -1.518653,1.54775 -0.691738,2.46148 0.425514,0.47019 0.813511,0.59492 1.397927,0.44939 0.444915,-0.11079 1.132937,-0.19507 1.528937,-0.1873 z m -2.3584,-1.08338 c -0.09807,-0.25557 -0.08505,-0.61557 0.02893,-0.8 0.302359,-0.48922 2.089472,-0.42022 2.089472,0.0807 0,1.04138 -1.764851,1.64066 -2.1184,0.71932 z M 53.6816,151.76 c 0.07711,-0.23415 -0.144678,-0.4 -0.534938,-0.4 -0.594745,0 -0.666665,-0.18987 -0.666665,-1.76 0,-1.54667 0.07757,-1.76 0.64,-1.76 0.352,0 0.64,-0.144 0.64,-0.32 0,-0.176 -0.288,-0.32 -0.64,-0.32 -0.474839,0 -0.64,-0.21333 -0.64,-0.82667 0,-0.98905 -0.750365,-0.8992 -0.899101,0.10766 -0.07999,0.5415 -0.326793,0.67131 -1.28,0.67325 -2.855577,0.006 -2.620899,-0.21352 -2.620899,2.44934 0,1.91682 0.09606,2.39642 0.48,2.39642 0.356579,0 0.48,-0.37567 0.48,-1.46104 0,-2.05588 0.422035,-2.69896 1.771258,-2.69896 h 1.108742 v 1.856 c 0,1.0488 0.172339,2.02834 0.396262,2.25226 0.481136,0.48114 1.583607,0.36357 1.765341,-0.18826 z m 6.921712,0.19849 c 1.614313,-0.73553 1.874191,-3.57964 0.420144,-4.59809 -1.476324,-1.03406 -3.594848,-0.15799 -3.929315,1.62489 -0.451008,2.40407 1.370707,3.94755 3.509171,2.9732 z m -2.427415,-1.41138 c -0.251478,-0.55194 -0.272483,-1.09126 -0.06543,-1.68 C 58.362425,148.15066 58.607331,148 59.519996,148 c 0.912666,0 1.157572,0.15066 1.409533,0.86711 0.469078,1.33381 -0.186291,2.49289 -1.409533,2.49289 -0.73222,0 -1.06558,-0.20161 -1.344099,-0.81289 z M 38.399998,150.72 c 0,-1.22546 0.04344,-1.28 1.019376,-1.28 1.296105,0 2.500623,-1.09466 2.500623,-2.27255 0,-1.2613 -1.321497,-2.20745 -3.083155,-2.20745 h -1.396844 v 3.52 c 0,2.91556 0.08243,3.52 0.48,3.52 0.346665,0 0.48,-0.35556 0.48,-1.28 z m 0,-3.36 c 0,-1.36381 0.04741,-1.44 0.896,-1.44 1.664128,0 2.252707,1.47136 0.952796,2.38186 -1.327052,0.9295 -1.848796,0.6637 -1.848796,-0.94186 z m 25.919998,2.56 c 0,-1.86667 0.06564,-2.08 0.64,-2.08 0.352,0 0.64,-0.144 0.64,-0.32 0,-0.176 -0.288,-0.32 -0.64,-0.32 -0.352,0 -0.64,-0.20422 -0.64,-0.45383 0,-0.88243 0.395843,-1.46617 0.994237,-1.46617 0.333168,0 0.605763,-0.144 0.605763,-0.32 0,-0.176 -0.351834,-0.32 -0.781856,-0.32 -0.830678,0 -1.778144,1.04678 -1.778144,1.96453 0,0.29818 -0.18,0.62614 -0.4,0.7288 -0.32,0.14934 -0.32,0.224 0,0.37334 0.259047,0.12089 0.4,0.91022 0.4,2.24 0,1.61185 0.103203,2.05333 0.48,2.05333 0.377437,0 0.48,-0.44444 0.48,-2.08 z m 37.057064,1.1488 c 0.1034,-0.3102 -0.11079,-0.36149 -0.84038,-0.20125 -1.164449,0.25576 -2.151585,-0.19812 -2.386756,-1.09742 -0.15808,-0.6045 -0.02333,-0.65013 1.920026,-0.65013 h 2.09004 l -0.20714,-1.03572 c -0.25867,-1.29334 -0.73137,-1.77598 -1.984933,-2.0267 -0.767187,-0.15343 -1.188544,-0.0204 -1.915715,0.60516 -1.687283,1.45133 -1.073504,4.77088 0.94121,5.09039 0.985436,0.15628 2.221758,-0.19866 2.383648,-0.68433 z M 98.317636,147.76 c 0.595136,-0.90077 1.601993,-1.07465 2.282474,-0.39417 0.85924,0.85925 0.60318,1.11417 -1.119146,1.11417 -1.627354,0 -1.635642,-0.005 -1.163328,-0.72 z m 17.073374,3.25426 c 0.26019,-0.21594 0.44898,-0.96166 0.44898,-1.77344 V 147.84 h -1.28 c -0.704,0 -1.28,0.144 -1.28,0.32 0,0.176 0.36,0.32 0.8,0.32 0.67701,0 0.8,0.14881 0.8,0.96792 0,0.74459 -0.18941,1.03994 -0.82095,1.28004 -1.59071,0.6048 -2.69905,-0.60894 -2.69905,-2.95572 0,-1.95373 0.71732,-2.87042 2.19359,-2.80328 1.7245,0.0784 1.86862,0.0177 1.18525,-0.49914 -0.84255,-0.63727 -2.51672,-0.59233 -3.35918,0.0902 -1.3909,1.12681 -1.44247,5.36795 -0.0799,6.5752 0.98894,0.87625 2.95998,0.81798 4.09131,-0.12094 z m 6.30418,-0.68558 c 1.131,-2.28479 -0.51348,-4.83301 -2.71953,-4.21407 -2.34647,0.65833 -2.70355,4.46523 -0.50552,5.38943 1.43377,0.60286 2.54535,0.19775 3.22505,-1.17536 z m -3.11234,0.20846 c -0.59271,-0.5927 -0.67003,-2.72197 -0.11886,-3.27314 0.58788,-0.58788 1.79446,-0.45692 2.16475,0.23496 0.56641,1.05836 0.40689,2.83804 -0.28771,3.20978 -0.84092,0.45005 -1.16851,0.41808 -1.75818,-0.1716 z m 8.42053,0.42286 c 0.1724,-0.572 0.59797,-1.94 0.9457,-3.04 0.50445,-1.59573 0.54386,-2 0.19499,-2 -0.26374,0 -0.73905,0.95724 -1.19779,2.41223 l -0.76053,2.41223 -0.70091,-2.41223 c -0.46368,-1.59583 -0.86063,-2.41223 -1.17287,-2.41223 -0.61572,0 -0.61563,6.4e-4 0.39024,3.08946 0.51583,1.58393 1.0622,2.70155 1.36,2.78194 0.27378,0.0739 0.52701,0.15106 0.56274,0.17148 0.0357,0.0204 0.20602,-0.43088 0.37843,-1.00288 z m -55.323384,-1.18186 c 0,-1.60256 0.11192,-1.98024 0.711203,-2.4 0.914765,-0.64072 2.168797,-0.65122 2.168797,-0.0181 0,0.264 0.215999,0.48 0.479999,0.48 0.264,0 0.48,-0.20572 0.48,-0.45714 0,-0.7463 -0.940486,-1.46286 -1.919999,-1.46286 -0.502858,0 -1.140573,0.22628 -1.417143,0.50286 -0.457142,0.45714 -0.502857,0.45714 -0.502857,0 0,-0.27658 -0.216,-0.50286 -0.48,-0.50286 -0.391111,0 -0.48,0.53333 -0.48,2.88 0,2.34667 0.08889,2.88 0.48,2.88 0.372825,0 0.48,-0.42465 0.48,-1.90186 z m 33.279994,-0.33204 c 0,-2.11542 0.0424,-2.24455 0.79929,-2.43451 1.50431,-0.37756 1.76071,-0.0254 1.76071,2.41837 0,1.7867 0.0988,2.25004 0.48,2.25004 0.38387,0 0.48,-0.47918 0.48,-2.39262 0,-2.22378 -0.0587,-2.43111 -0.83229,-2.93797 -0.67435,-0.44185 -1.00835,-0.47889 -1.76,-0.19517 -0.51732,0.19526 -0.92771,0.22091 -0.92771,0.058 0,-0.16071 -0.216,-0.2922 -0.48,-0.2922 -0.39111,0 -0.48,0.53333 -0.48,2.88 0,2.34667 0.0889,2.88 0.48,2.88 0.38083,0 0.48,-0.46155 0.48,-2.2339 z M 18.736678,107.19193 c 0.736309,-0.35645 1.573558,-0.90755 1.860554,-1.22467 0.486296,-0.53735 0.466807,-0.62827 -0.286347,-1.33582 l -0.808158,-0.75923 -1.031364,0.612 c -1.461992,0.86752 -4.360647,0.85558 -5.566892,-0.023 -0.959265,-0.69863 -2.344472,-3.09098 -2.344472,-4.04906 0,-0.528405 0.440852,-0.5722 5.76,-0.5722 h 5.76 v -2.043459 c 0,-4.285664 -2.835352,-7.236541 -6.953236,-7.236541 -5.3892631,0 -8.7777336,5.81784 -6.9833945,11.99015 0.6163353,2.12012 2.5617125,4.30261 4.3399175,4.86889 1.888953,0.60155 4.756757,0.4974 6.253392,-0.22711 z m -8.493676,-9.585213 c 0.0017,-0.09169 0.428678,-0.908909 0.948947,-1.816029 0.76656,-1.336547 1.22311,-1.755165 2.407528,-2.207498 1.245834,-0.475788 1.654533,-0.500374 2.768688,-0.166566 1.565446,0.469021 2.680225,1.585334 2.954966,2.959034 0.110722,0.553612 0.164312,1.040012 0.11909,1.080892 -0.176581,0.159626 -9.202043,0.306957 -9.199219,0.150167 z m 26.539671,9.762243 c 0.500989,-0.25907 1.209277,-0.87107 1.573971,-1.36 l 0.663078,-0.88896 0.01014,1.2 c 0.01002,1.18498 0.02618,1.2 1.290138,1.2 h 1.28 v -8.48 -8.48 h -0.773827 c -1.815306,0 -1.786179,-0.103939 -1.786179,6.373898 0,5.675042 -0.03554,6.023572 -0.685319,6.721022 -1.047161,1.124 -2.741036,1.71294 -4.25111,1.47807 -2.84781,-0.44294 -3.063571,-1.0396 -3.063571,-8.471953 V 90.56 H 30.10617 c -2.002882,0 -1.946833,-0.188288 -1.939144,6.514237 0.0087,7.576123 0.379548,8.710873 3.353685,10.261633 1.212077,0.632 4.069063,0.64996 5.261962,0.0331 z m 40.858558,-0.67263 c 1.179276,-0.72909 1.779247,-1.40794 2.513862,-2.84436 0.852601,-1.66713 0.964537,-2.20592 0.961776,-4.629343 -0.0022,-2.106649 -0.158458,-3.076544 -0.672986,-4.182627 -2.629686,-5.653046 -10.01343,-6.068208 -13.13677,-0.73863 -0.700448,1.195225 -0.893683,1.985168 -1.005162,4.109126 -0.153309,2.920934 0.136119,4.127354 1.509834,6.293484 2.000534,3.15451 6.480838,4.06264 9.829446,1.99235 z m -5.63952,-1.64102 c -3.29841,-1.6969 -3.871379,-8.347675 -0.959494,-11.137435 1.179225,-1.129773 3.495487,-1.304339 4.921138,-0.370886 2.081315,1.362749 2.99121,6.576111 1.625296,9.312361 -1.176982,2.35778 -3.498639,3.27031 -5.58694,2.19596 z m 24.863669,1.64282 c 1.530953,-0.77441 1.987987,-1.20713 2.618864,-2.4795 0.668626,-1.34852 0.719566,-1.6905 0.407142,-2.73329 -0.629133,-2.099852 -1.854106,-2.923298 -5.859958,-3.939154 -3.626509,-0.919655 -4.751433,-1.515472 -4.751433,-2.516599 0,-0.820201 0.68638,-1.245987 2.684063,-1.665005 1.707402,-0.358131 3.932061,-0.145772 5.658503,0.540144 0.666134,0.264653 1.466947,-2.050595 0.848022,-2.45174 -1.741283,-1.128583 -7.183827,-1.141556 -9.350588,-0.02227 -1.931719,0.997852 -2.504723,1.787286 -2.480087,3.416838 0.04042,2.673558 1.415872,3.824042 6.160086,5.152526 3.293277,0.92219 4.16,1.46104 4.16,2.58631 0,1.71317 -3.816723,3.05901 -6.852614,2.41635 -0.895062,-0.18948 -1.951286,-0.43737 -2.347164,-0.55088 -0.598164,-0.1715 -0.797018,-0.0243 -1.176909,0.87089 -0.259034,0.61044 -0.336906,1.20056 -0.179696,1.36179 0.629094,0.64518 3.47408,1.14479 5.981769,1.05048 2.145193,-0.0807 2.964598,-0.27033 4.48,-1.03687 z m 20.4975,0.0623 1.68289,-0.85419 -0.54604,-0.87314 c -0.30032,-0.48023 -0.57281,-0.91634 -0.60554,-0.96913 -0.0327,-0.0528 -0.96425,0.20881 -2.07007,0.58133 -2.3206,0.78175 -3.39736,0.63714 -3.83545,-0.51512 -0.16977,-0.44654 -0.30868,-3.03452 -0.30868,-5.751062 V 93.44 h 3.48639 3.48639 l 0.12207,-1.28 0.12206,-1.28 h -3.60845 -3.60846 v -2.432493 -2.432493 l -1.36,0.801287 c -1.28627,0.757853 -1.36524,0.889712 -1.45672,2.432496 L 108.76655,90.88 h -2.22328 -2.22328 v 1.28 1.28 h 2.20892 2.20892 l 0.11873,5.68 c 0.12701,6.07647 0.36878,7.10318 1.94161,8.24532 1.08924,0.79097 4.41917,0.48417 6.56471,-0.60484 z m 16.32739,0.58306 c 0.65435,-0.27306 1.50854,-0.88506 1.89821,-1.36 l 0.70849,-0.86354 0.0115,1.2 0.0115,1.2 h 1.39926 1.39927 l -0.13363,-5.84 c -0.16313,-7.128982 -0.23774,-7.648474 -1.27575,-8.882074 -1.55079,-1.843011 -4.09152,-2.540972 -7.16907,-1.969404 -2.80138,0.520275 -3.58415,0.903507 -3.20367,1.568454 0.82344,1.439082 0.76561,1.419718 3.05122,1.021696 3.55407,-0.618915 5.24622,0.209187 5.72107,2.79975 l 0.18667,1.018423 -2.78768,-0.176589 c -4.22553,-0.26767 -6.6633,0.69337 -7.91918,3.121974 -0.60456,1.16908 -0.59928,3.27666 0.0112,4.45712 1.32989,2.57173 5.26008,3.88535 8.09061,2.70419 z m -3.73943,-2.45002 c -0.42303,-0.22743 -1.05789,-0.80247 -1.41078,-1.27785 -0.52404,-0.70592 -0.58704,-1.05782 -0.34376,-1.92 0.45996,-1.63012 1.89914,-2.206876 5.24369,-2.101427 l 2.72,0.08576 0.0955,1.825177 c 0.0951,1.81732 0.0899,1.82891 -1.20787,2.68774 -1.51188,1.00051 -3.92261,1.33189 -5.09681,0.7006 z m 26.20915,1.99509 c 0.792,-0.4 1.49538,-0.77696 1.56307,-0.83769 0.14359,-0.1288 -0.6174,-2.05092 -0.81199,-2.05092 -0.0722,0 -1.01468,0.2976 -2.0944,0.66133 -2.27313,0.76576 -3.35247,0.61443 -3.788,-0.5311 -0.16977,-0.44654 -0.30868,-3.03452 -0.30868,-5.751062 V 93.44 h 3.52 3.52 v -1.28 -1.28 h -3.52 -3.52 v -2.432493 -2.432493 l -1.36,0.801287 c -1.28628,0.757853 -1.36524,0.889712 -1.45672,2.432496 L 147.80654,90.88 h -2.22327 -2.22328 v 1.28 1.28 h 2.20892 2.20891 l 0.11873,5.68 c 0.12702,6.07647 0.36879,7.10318 1.94161,8.24532 1.02177,0.74197 4.41558,0.48606 6.32183,-0.47671 z M 50.559997,101.6233 v -5.896705 l 1.168224,-0.96295 c 1.381027,-1.138359 3.761654,-1.786083 5.490806,-1.493946 1.099667,0.185789 1.270073,0.340643 1.52927,1.389693 0.266819,1.07991 0.397427,1.18928 1.531283,1.282285 l 1.239584,0.101677 -0.222547,-1.541677 c -0.393846,-2.728317 -0.53671,-3.031085 -1.649677,-3.496112 -1.26608,-0.529002 -5.379132,-0.589296 -6.7843,-0.09945 -0.546074,0.190365 -1.285136,0.802365 -1.642361,1.36 L 50.570778,93.28 l -0.0054,-1.36 c -0.0051,-1.288077 -0.05479,-1.36 -0.939232,-1.36 -2.038003,0 -1.946173,-0.409293 -1.946173,8.674237 V 107.52 h 1.44 1.44 z"
         id="path737" />
      <path
         style="fill:#585d62;stroke-width:0.32"
         d="M 42.970372,165.17298 3.2207505,142.24 3.2103752,96.124189 3.1999998,50.008378 42.479997,27.343915 C 64.083996,14.87846 81.991969,4.5404426 82.275496,4.3705418 82.67587,4.1306189 91.696913,9.2001914 122.66945,27.070816 L 162.54791,50.08 l -0.074,46.040102 -0.074,46.040098 -37.92,21.90144 c -20.856,12.0458 -38.783995,22.38359 -39.839995,22.97288 l -1.92,1.07144 z M 91.519994,152.96 c 0,-1.21499 0.04983,-1.28 0.981037,-1.28 1.397261,0 2.204928,-0.52825 2.730349,-1.78576 0.396272,-0.94841 0.396272,-1.24007 0,-2.18848 -0.698307,-1.67129 -2.214077,-2.27735 -3.208528,-1.2829 -0.457142,0.45714 -0.502858,0.45471 -0.502858,-0.0267 0,-0.29124 -0.18,-0.46975 -0.399999,-0.39668 -0.285428,0.0948 -0.425655,1.29399 -0.489562,4.18667 -0.07653,3.46427 -0.01837,4.05382 0.4,4.05382 0.357821,0 0.489561,-0.34444 0.489561,-1.28 z m 0,-3.59057 c 0,-1.84649 0.371908,-2.48943 1.44,-2.48943 0.946314,0 1.44,0.60437 1.44,1.76284 0,1.2942 -0.553952,1.96636 -1.84,2.23266 l -1.04,0.21535 z m -6.144108,3.77914 c 0.475261,-0.24829 1.250947,-0.86029 1.72375,-1.36 2.434938,-2.57352 1.950611,-6.88609 -0.996096,-8.86948 -4.91382,-3.30742 -11.166594,1.95315 -8.701711,7.32091 1.028336,2.2394 2.827027,3.35502 5.414057,3.35803 0.932739,9.6e-4 2.084739,-0.20118 2.56,-0.44946 z m -5.16326,-0.70594 c -0.866426,-0.46956 -0.882573,-0.51915 -0.357847,-1.09897 0.537818,-0.59428 0.567479,-0.59442 1.392675,-0.007 0.463738,0.33021 1.344768,0.81876 1.95785,1.08567 l 1.114691,0.48529 -1.6,0.0133 c -0.88,0.007 -2.008317,-0.208 -2.507369,-0.47846 z m 2.288105,-1.09378 c -1.610592,-0.85068 -1.660432,-1.03444 -0.565187,-2.08375 l 0.95279,-0.91283 1.595831,1.57184 c 0.877705,0.8645 1.59583,1.68524 1.59583,1.82386 0,0.48633 -2.41209,0.21736 -3.579264,-0.39912 z m -4.210233,-0.85119 c -0.669389,-1.29446 -0.96689,-3.14651 -0.608349,-3.78719 0.257024,-0.45928 0.331526,-0.40208 0.486669,0.37362 0.100755,0.50375 0.541913,1.44452 0.980358,2.09059 0.771709,1.13717 0.778323,1.19174 0.207062,1.70872 -0.557475,0.50451 -0.616406,0.48318 -1.06574,-0.38574 z m 6.666582,-1.06062 -1.578858,-1.60296 0.950887,-0.94976 0.950886,-0.94977 0.758925,1.10933 c 0.765542,1.11901 1.3348,3.99612 0.790662,3.99612 -0.161504,0 -1.004131,-0.72133 -1.872502,-1.60296 z m -5.257024,-0.6682 c -0.951699,-1.54678 -1.437011,-3.30095 -1.086522,-3.92724 0.244128,-0.43623 0.5688,-0.23759 2.029978,1.24196 l 1.739369,1.76125 -1.006441,1.00644 -1.006442,1.00644 z m 7.128044,-1.55367 c -0.742633,-1.36754 -0.917193,-1.95808 -0.656,-2.21928 0.195741,-0.19574 0.467396,-0.35589 0.603677,-0.35589 0.525194,0 1.255107,2.00882 1.161738,3.19727 l -0.09752,1.24129 z m -5.824636,-1.73115 c -1.542765,-1.56217 -1.63376,-1.73191 -1.015171,-1.89368 1.207133,-0.31567 4.491702,1.04656 4.491702,1.86287 0,0.33835 -1.31553,1.74679 -1.631555,1.74679 -0.08267,0 -0.912909,-0.77219 -1.844976,-1.71598 z m 3.182934,-1.30454 c -0.58592,-0.43228 -1.515552,-0.88991 -2.065856,-1.01696 -0.985324,-0.2275 -0.988374,-0.23412 -0.200547,-0.43522 1.099965,-0.28079 3.154227,0.12978 3.779904,0.75546 0.461062,0.46106 0.464813,0.56967 0.03452,0.99996 -0.430291,0.43029 -0.598419,0.39735 -1.548021,-0.30324 z m -38.506401,7.79922 c 0.66809,0.0131 0.72,-0.12404 0.72,-1.90228 0,-1.48975 -0.142489,-2.05891 -0.64,-2.55642 -0.679507,-0.67951 -1.009843,-0.74654 -2.16,-0.43831 -1.181324,0.31659 -0.863497,0.9958 0.446784,0.95481 0.641735,-0.0201 1.225661,0.13128 1.297616,0.33634 0.128352,0.36578 -0.142358,0.49152 -1.899526,0.88229 -1.155939,0.25707 -1.518653,1.54775 -0.691738,2.46148 0.425514,0.47019 0.813511,0.59492 1.397927,0.44939 0.444915,-0.11079 1.132937,-0.19507 1.528937,-0.1873 z m -2.3584,-1.08338 c -0.09807,-0.25557 -0.08505,-0.61557 0.02893,-0.8 0.302359,-0.48922 2.089472,-0.42022 2.089472,0.0807 0,1.04138 -1.764851,1.64066 -2.1184,0.71932 z M 53.6816,151.76 c 0.07711,-0.23415 -0.144678,-0.4 -0.534938,-0.4 -0.594745,0 -0.666665,-0.18987 -0.666665,-1.76 0,-1.54667 0.07757,-1.76 0.64,-1.76 0.352,0 0.64,-0.144 0.64,-0.32 0,-0.176 -0.288,-0.32 -0.64,-0.32 -0.474839,0 -0.64,-0.21333 -0.64,-0.82667 0,-0.98905 -0.750365,-0.8992 -0.899101,0.10766 -0.07999,0.5415 -0.326793,0.67131 -1.28,0.67325 -2.855577,0.006 -2.620899,-0.21352 -2.620899,2.44934 0,1.91682 0.09606,2.39642 0.48,2.39642 0.356579,0 0.48,-0.37567 0.48,-1.46104 0,-2.05588 0.422035,-2.69896 1.771258,-2.69896 h 1.108742 v 1.856 c 0,1.0488 0.172339,2.02834 0.396262,2.25226 0.481136,0.48114 1.583607,0.36357 1.765341,-0.18826 z m 6.921712,0.19849 c 1.614313,-0.73553 1.874191,-3.57964 0.420144,-4.59809 -1.476324,-1.03406 -3.594848,-0.15799 -3.929315,1.62489 -0.451008,2.40407 1.370707,3.94755 3.509171,2.9732 z m -2.427415,-1.41138 c -0.251478,-0.55194 -0.272483,-1.09126 -0.06543,-1.68 C 58.362425,148.15066 58.607331,148 59.519996,148 c 0.912666,0 1.157572,0.15066 1.409533,0.86711 0.469078,1.33381 -0.186291,2.49289 -1.409533,2.49289 -0.73222,0 -1.06558,-0.20161 -1.344099,-0.81289 z M 38.399998,150.72 c 0,-1.22546 0.04344,-1.28 1.019376,-1.28 1.296105,0 2.500623,-1.09466 2.500623,-2.27255 0,-1.2613 -1.321497,-2.20745 -3.083155,-2.20745 h -1.396844 v 3.52 c 0,2.91556 0.08243,3.52 0.48,3.52 0.346665,0 0.48,-0.35556 0.48,-1.28 z m 0,-3.36 c 0,-1.36381 0.04741,-1.44 0.896,-1.44 1.664128,0 2.252707,1.47136 0.952796,2.38186 -1.327052,0.9295 -1.848796,0.6637 -1.848796,-0.94186 z m 25.919998,2.56 c 0,-1.86667 0.06564,-2.08 0.64,-2.08 0.352,0 0.64,-0.144 0.64,-0.32 0,-0.176 -0.288,-0.32 -0.64,-0.32 -0.352,0 -0.64,-0.20422 -0.64,-0.45383 0,-0.88243 0.395843,-1.46617 0.994237,-1.46617 0.333168,0 0.605763,-0.144 0.605763,-0.32 0,-0.176 -0.351834,-0.32 -0.781856,-0.32 -0.830678,0 -1.778144,1.04678 -1.778144,1.96453 0,0.29818 -0.18,0.62614 -0.4,0.7288 -0.32,0.14934 -0.32,0.224 0,0.37334 0.259047,0.12089 0.4,0.91022 0.4,2.24 0,1.61185 0.103203,2.05333 0.48,2.05333 0.377437,0 0.48,-0.44444 0.48,-2.08 z m 37.057064,1.1488 c 0.1034,-0.3102 -0.11079,-0.36149 -0.84038,-0.20125 -1.164449,0.25576 -2.151585,-0.19812 -2.386756,-1.09742 -0.15808,-0.6045 -0.02333,-0.65013 1.920026,-0.65013 h 2.09004 l -0.20714,-1.03572 c -0.25867,-1.29334 -0.73137,-1.77598 -1.984933,-2.0267 -0.767187,-0.15343 -1.188544,-0.0204 -1.915715,0.60516 -1.687283,1.45133 -1.073504,4.77088 0.94121,5.09039 0.985436,0.15628 2.221758,-0.19866 2.383648,-0.68433 z M 98.317636,147.76 c 0.595136,-0.90077 1.601993,-1.07465 2.282474,-0.39417 0.85924,0.85925 0.60318,1.11417 -1.119146,1.11417 -1.627354,0 -1.635642,-0.005 -1.163328,-0.72 z m 17.073374,3.25426 c 0.26019,-0.21594 0.44898,-0.96166 0.44898,-1.77344 V 147.84 h -1.28 c -0.704,0 -1.28,0.144 -1.28,0.32 0,0.176 0.36,0.32 0.8,0.32 0.67701,0 0.8,0.14881 0.8,0.96792 0,0.74459 -0.18941,1.03994 -0.82095,1.28004 -1.59071,0.6048 -2.69905,-0.60894 -2.69905,-2.95572 0,-1.95373 0.71732,-2.87042 2.19359,-2.80328 1.7245,0.0784 1.86862,0.0177 1.18525,-0.49914 -0.84255,-0.63727 -2.51672,-0.59233 -3.35918,0.0902 -1.3909,1.12681 -1.44247,5.36795 -0.0799,6.5752 0.98894,0.87625 2.95998,0.81798 4.09131,-0.12094 z m 6.30418,-0.68558 c 1.131,-2.28479 -0.51348,-4.83301 -2.71953,-4.21407 -2.34647,0.65833 -2.70355,4.46523 -0.50552,5.38943 1.43377,0.60286 2.54535,0.19775 3.22505,-1.17536 z m -3.11234,0.20846 c -0.59271,-0.5927 -0.67003,-2.72197 -0.11886,-3.27314 0.58788,-0.58788 1.79446,-0.45692 2.16475,0.23496 0.56641,1.05836 0.40689,2.83804 -0.28771,3.20978 -0.84092,0.45005 -1.16851,0.41808 -1.75818,-0.1716 z m 8.42053,0.42286 c 0.1724,-0.572 0.59797,-1.94 0.9457,-3.04 0.50445,-1.59573 0.54386,-2 0.19499,-2 -0.26374,0 -0.73905,0.95724 -1.19779,2.41223 l -0.76053,2.41223 -0.70091,-2.41223 c -0.46368,-1.59583 -0.86063,-2.41223 -1.17287,-2.41223 -0.61572,0 -0.61563,6.4e-4 0.39024,3.08946 0.51583,1.58393 1.0622,2.70155 1.36,2.78194 0.27378,0.0739 0.52701,0.15106 0.56274,0.17148 0.0357,0.0204 0.20602,-0.43088 0.37843,-1.00288 z m -55.323384,-1.18186 c 0,-1.60256 0.11192,-1.98024 0.711203,-2.4 0.914765,-0.64072 2.168797,-0.65122 2.168797,-0.0181 0,0.264 0.215999,0.48 0.479999,0.48 0.264,0 0.48,-0.20572 0.48,-0.45714 0,-0.7463 -0.940486,-1.46286 -1.919999,-1.46286 -0.502858,0 -1.140573,0.22628 -1.417143,0.50286 -0.457142,0.45714 -0.502857,0.45714 -0.502857,0 0,-0.27658 -0.216,-0.50286 -0.48,-0.50286 -0.391111,0 -0.48,0.53333 -0.48,2.88 0,2.34667 0.08889,2.88 0.48,2.88 0.372825,0 0.48,-0.42465 0.48,-1.90186 z m 33.279994,-0.33204 c 0,-2.11542 0.0424,-2.24455 0.79929,-2.43451 1.50431,-0.37756 1.76071,-0.0254 1.76071,2.41837 0,1.7867 0.0988,2.25004 0.48,2.25004 0.38387,0 0.48,-0.47918 0.48,-2.39262 0,-2.22378 -0.0587,-2.43111 -0.83229,-2.93797 -0.67435,-0.44185 -1.00835,-0.47889 -1.76,-0.19517 -0.51732,0.19526 -0.92771,0.22091 -0.92771,0.058 0,-0.16071 -0.216,-0.2922 -0.48,-0.2922 -0.39111,0 -0.48,0.53333 -0.48,2.88 0,2.34667 0.0889,2.88 0.48,2.88 0.38083,0 0.48,-0.46155 0.48,-2.2339 z M 18.736678,107.19193 c 0.736309,-0.35645 1.573558,-0.90755 1.860554,-1.22467 0.486296,-0.53735 0.466807,-0.62827 -0.286347,-1.33582 l -0.808158,-0.75923 -1.031364,0.612 c -1.461992,0.86752 -4.360647,0.85558 -5.566892,-0.023 -0.959265,-0.69863 -2.344472,-3.09098 -2.344472,-4.04906 0,-0.528405 0.440852,-0.5722 5.76,-0.5722 h 5.76 v -2.043459 c 0,-4.285664 -2.835352,-7.236541 -6.953236,-7.236541 -5.3892631,0 -8.7777336,5.81784 -6.9833945,11.99015 0.6163353,2.12012 2.5617125,4.30261 4.3399175,4.86889 1.888953,0.60155 4.756757,0.4974 6.253392,-0.22711 z m -8.493676,-9.585213 c 0.0017,-0.09169 0.428678,-0.908909 0.948947,-1.816029 0.76656,-1.336547 1.22311,-1.755165 2.407528,-2.207498 1.245834,-0.475788 1.654533,-0.500374 2.768688,-0.166566 1.565446,0.469021 2.680225,1.585334 2.954966,2.959034 0.110722,0.553612 0.164312,1.040012 0.11909,1.080892 -0.176581,0.159626 -9.202043,0.306957 -9.199219,0.150167 z m 26.539671,9.762243 c 0.500989,-0.25907 1.209277,-0.87107 1.573971,-1.36 l 0.663078,-0.88896 0.01014,1.2 c 0.01002,1.18498 0.02618,1.2 1.290138,1.2 h 1.28 v -8.48 -8.48 h -0.773827 c -1.815306,0 -1.786179,-0.103939 -1.786179,6.373898 0,5.675042 -0.03554,6.023572 -0.685319,6.721022 -1.047161,1.124 -2.741036,1.71294 -4.25111,1.47807 -2.84781,-0.44294 -3.063571,-1.0396 -3.063571,-8.471953 V 90.56 H 30.10617 c -2.002882,0 -1.946833,-0.188288 -1.939144,6.514237 0.0087,7.576123 0.379548,8.710873 3.353685,10.261633 1.212077,0.632 4.069063,0.64996 5.261962,0.0331 z m 40.858558,-0.67263 c 1.179276,-0.72909 1.779247,-1.40794 2.513862,-2.84436 0.852601,-1.66713 0.964537,-2.20592 0.961776,-4.629343 -0.0022,-2.106649 -0.158458,-3.076544 -0.672986,-4.182627 -2.629686,-5.653046 -10.01343,-6.068208 -13.13677,-0.73863 -0.700448,1.195225 -0.893683,1.985168 -1.005162,4.109126 -0.153309,2.920934 0.136119,4.127354 1.509834,6.293484 2.000534,3.15451 6.480838,4.06264 9.829446,1.99235 z m -5.63952,-1.64102 c -3.29841,-1.6969 -3.871379,-8.347675 -0.959494,-11.137435 1.179225,-1.129773 3.495487,-1.304339 4.921138,-0.370886 2.081315,1.362749 2.99121,6.576111 1.625296,9.312361 -1.176982,2.35778 -3.498639,3.27031 -5.58694,2.19596 z m 24.863669,1.64282 c 1.530953,-0.77441 1.987987,-1.20713 2.618864,-2.4795 0.668626,-1.34852 0.719566,-1.6905 0.407142,-2.73329 -0.629133,-2.099852 -1.854106,-2.923298 -5.859958,-3.939154 -3.626509,-0.919655 -4.751433,-1.515472 -4.751433,-2.516599 0,-0.820201 0.68638,-1.245987 2.684063,-1.665005 1.707402,-0.358131 3.932061,-0.145772 5.658503,0.540144 0.666134,0.264653 1.466947,-2.050595 0.848022,-2.45174 -1.741283,-1.128583 -7.183827,-1.141556 -9.350588,-0.02227 -1.931719,0.997852 -2.504723,1.787286 -2.480087,3.416838 0.04042,2.673558 1.415872,3.824042 6.160086,5.152526 3.293277,0.92219 4.16,1.46104 4.16,2.58631 0,1.71317 -3.816723,3.05901 -6.852614,2.41635 -0.895062,-0.18948 -1.951286,-0.43737 -2.347164,-0.55088 -0.598164,-0.1715 -0.797018,-0.0243 -1.176909,0.87089 -0.259034,0.61044 -0.336906,1.20056 -0.179696,1.36179 0.629094,0.64518 3.47408,1.14479 5.981769,1.05048 2.145193,-0.0807 2.964598,-0.27033 4.48,-1.03687 z m 20.4975,0.0623 1.68289,-0.85419 -0.54604,-0.87314 c -0.30032,-0.48023 -0.57281,-0.91634 -0.60554,-0.96913 -0.0327,-0.0528 -0.96425,0.20881 -2.07007,0.58133 -2.3206,0.78175 -3.39736,0.63714 -3.83545,-0.51512 -0.16977,-0.44654 -0.30868,-3.03452 -0.30868,-5.751062 V 93.44 h 3.48639 3.48639 l 0.12207,-1.28 0.12206,-1.28 h -3.60845 -3.60846 v -2.432493 -2.432493 l -1.36,0.801287 c -1.28627,0.757853 -1.36524,0.889712 -1.45672,2.432496 L 108.76655,90.88 h -2.22328 -2.22328 v 1.28 1.28 h 2.20892 2.20892 l 0.11873,5.68 c 0.12701,6.07647 0.36878,7.10318 1.94161,8.24532 1.08924,0.79097 4.41917,0.48417 6.56471,-0.60484 z m 16.32739,0.58306 c 0.65435,-0.27306 1.50854,-0.88506 1.89821,-1.36 l 0.70849,-0.86354 0.0115,1.2 0.0115,1.2 h 1.39926 1.39927 l -0.13363,-5.84 c -0.16313,-7.128982 -0.23774,-7.648474 -1.27575,-8.882074 -1.55079,-1.843011 -4.09152,-2.540972 -7.16907,-1.969404 -2.80138,0.520275 -3.58415,0.903507 -3.20367,1.568454 0.82344,1.439082 0.76561,1.419718 3.05122,1.021696 3.55407,-0.618915 5.24622,0.209187 5.72107,2.79975 l 0.18667,1.018423 -2.78768,-0.176589 c -4.22553,-0.26767 -6.6633,0.69337 -7.91918,3.121974 -0.60456,1.16908 -0.59928,3.27666 0.0112,4.45712 1.32989,2.57173 5.26008,3.88535 8.09061,2.70419 z m -3.73943,-2.45002 c -0.42303,-0.22743 -1.05789,-0.80247 -1.41078,-1.27785 -0.52404,-0.70592 -0.58704,-1.05782 -0.34376,-1.92 0.45996,-1.63012 1.89914,-2.206876 5.24369,-2.101427 l 2.72,0.08576 0.0955,1.825177 c 0.0951,1.81732 0.0899,1.82891 -1.20787,2.68774 -1.51188,1.00051 -3.92261,1.33189 -5.09681,0.7006 z m 26.20915,1.99509 c 0.792,-0.4 1.49538,-0.77696 1.56307,-0.83769 0.14359,-0.1288 -0.6174,-2.05092 -0.81199,-2.05092 -0.0722,0 -1.01468,0.2976 -2.0944,0.66133 -2.27313,0.76576 -3.35247,0.61443 -3.788,-0.5311 -0.16977,-0.44654 -0.30868,-3.03452 -0.30868,-5.751062 V 93.44 h 3.52 3.52 v -1.28 -1.28 h -3.52 -3.52 v -2.432493 -2.432493 l -1.36,0.801287 c -1.28628,0.757853 -1.36524,0.889712 -1.45672,2.432496 L 147.80654,90.88 h -2.22327 -2.22328 v 1.28 1.28 h 2.20892 2.20891 l 0.11873,5.68 c 0.12702,6.07647 0.36879,7.10318 1.94161,8.24532 1.02177,0.74197 4.41558,0.48606 6.32183,-0.47671 z M 50.559997,101.6233 v -5.896705 l 1.168224,-0.96295 c 1.381027,-1.138359 3.761654,-1.786083 5.490806,-1.493946 1.099667,0.185789 1.270073,0.340643 1.52927,1.389693 0.266819,1.07991 0.397427,1.18928 1.531283,1.282285 l 1.239584,0.101677 -0.222547,-1.541677 c -0.393846,-2.728317 -0.53671,-3.031085 -1.649677,-3.496112 -1.26608,-0.529002 -5.379132,-0.589296 -6.7843,-0.09945 -0.546074,0.190365 -1.285136,0.802365 -1.642361,1.36 L 50.570778,93.28 l -0.0054,-1.36 c -0.0051,-1.288077 -0.05479,-1.36 -0.939232,-1.36 -2.038003,0 -1.946173,-0.409293 -1.946173,8.674237 V 107.52 h 1.44 1.44 z"
         id="path735" />
      <path
         style="fill:#954e1f;stroke-width:0.32"
         d="M 42.970372,165.17298 3.2207505,142.24 3.2103752,96.124189 3.1999998,50.008378 42.479997,27.343915 C 64.083996,14.87846 81.991969,4.5404426 82.275496,4.3705418 82.67587,4.1306189 91.696913,9.2001914 122.66945,27.070816 L 162.54791,50.08 l -0.074,46.040102 -0.074,46.040098 -37.92,21.90144 c -20.856,12.0458 -38.783995,22.38359 -39.839995,22.97288 l -1.92,1.07144 z M 91.519994,152.96 c 0,-1.24558 0.02963,-1.28 1.102157,-1.28 1.693696,0 2.883299,-1.18824 2.883299,-2.88 0,-1.07751 -0.178665,-1.50161 -0.890573,-2.11396 -1.032329,-0.88798 -1.881059,-0.97415 -2.592025,-0.26318 -0.457142,0.45714 -0.502858,0.45714 -0.502858,0 0,-0.27658 -0.216,-0.50286 -0.479999,-0.50286 -0.402052,0 -0.48,0.67556 -0.48,4.16 0,3.48444 0.07795,4.16 0.48,4.16 0.346665,0 0.479999,-0.35556 0.479999,-1.28 z m 0,-3.82874 c 0,-1.55072 0.484224,-2.25126 1.556106,-2.25126 0.621261,0 1.323894,1.01901 1.323894,1.92 0,1.17345 -0.755443,1.92 -1.942857,1.92 -0.910352,0 -0.937143,-0.0454 -0.937143,-1.58874 z m -6.144108,4.01731 c 0.475261,-0.24829 1.250947,-0.86029 1.72375,-1.36 2.434938,-2.57352 1.950611,-6.88609 -0.996096,-8.86948 -4.91382,-3.30742 -11.166594,1.95315 -8.701711,7.32091 1.028336,2.2394 2.827027,3.35502 5.414057,3.35803 0.932739,9.6e-4 2.084739,-0.20118 2.56,-0.44946 z m -5.16326,-0.70594 c -0.866426,-0.46956 -0.882573,-0.51915 -0.357847,-1.09897 0.537818,-0.59428 0.567479,-0.59442 1.392675,-0.007 0.463738,0.33021 1.344768,0.81876 1.95785,1.08567 l 1.114691,0.48529 -1.6,0.0133 c -0.88,0.007 -2.008317,-0.208 -2.507369,-0.47846 z m 2.288105,-1.09378 c -1.610592,-0.85068 -1.660432,-1.03444 -0.565187,-2.08375 l 0.95279,-0.91283 1.595831,1.57184 c 0.877705,0.8645 1.59583,1.68524 1.59583,1.82386 0,0.48633 -2.41209,0.21736 -3.579264,-0.39912 z m -4.210233,-0.85119 c -0.669389,-1.29446 -0.96689,-3.14651 -0.608349,-3.78719 0.257024,-0.45928 0.331526,-0.40208 0.486669,0.37362 0.100755,0.50375 0.541913,1.44452 0.980358,2.09059 0.771709,1.13717 0.778323,1.19174 0.207062,1.70872 -0.557475,0.50451 -0.616406,0.48318 -1.06574,-0.38574 z m 6.666582,-1.06062 -1.578858,-1.60296 0.950887,-0.94976 0.950886,-0.94977 0.758925,1.10933 c 0.765542,1.11901 1.3348,3.99612 0.790662,3.99612 -0.161504,0 -1.004131,-0.72133 -1.872502,-1.60296 z m -5.257024,-0.6682 c -0.951699,-1.54678 -1.437011,-3.30095 -1.086522,-3.92724 0.244128,-0.43623 0.5688,-0.23759 2.029978,1.24196 l 1.739369,1.76125 -1.006441,1.00644 -1.006442,1.00644 z m 7.128044,-1.55367 c -0.742633,-1.36754 -0.917193,-1.95808 -0.656,-2.21928 0.195741,-0.19574 0.467396,-0.35589 0.603677,-0.35589 0.525194,0 1.255107,2.00882 1.161738,3.19727 l -0.09752,1.24129 z m -5.824636,-1.73115 c -1.542765,-1.56217 -1.63376,-1.73191 -1.015171,-1.89368 1.207133,-0.31567 4.491702,1.04656 4.491702,1.86287 0,0.33835 -1.31553,1.74679 -1.631555,1.74679 -0.08267,0 -0.912909,-0.77219 -1.844976,-1.71598 z m 3.182934,-1.30454 c -0.58592,-0.43228 -1.515552,-0.88991 -2.065856,-1.01696 -0.985324,-0.2275 -0.988374,-0.23412 -0.200547,-0.43522 1.099965,-0.28079 3.154227,0.12978 3.779904,0.75546 0.461062,0.46106 0.464813,0.56967 0.03452,0.99996 -0.430291,0.43029 -0.598419,0.39735 -1.548021,-0.30324 z m -38.506401,7.79922 c 0.672371,0.0132 0.72,-0.11995 0.72,-2.01269 0,-2.59105 -0.65055,-3.35771 -2.461648,-2.90099 -1.685894,0.42514 -1.824304,1.17385 -0.168041,0.90901 0.847779,-0.13557 1.349404,-0.0734 1.510496,0.18728 0.291123,0.47104 -0.37658,0.94703 -1.337949,0.95379 -0.38343,0.003 -0.92343,0.23118 -1.2,0.50776 -1.11465,1.11465 -0.129613,2.92272 1.387648,2.54707 0.456224,-0.11295 1.153494,-0.199 1.549494,-0.19123 z m -2.376672,-1.13099 c -0.108121,-0.28177 0.0044,-0.63956 0.250042,-0.79511 0.674864,-0.42732 1.88663,-0.34806 1.88663,0.1234 0,1.07553 -1.768384,1.63145 -2.136672,0.67171 z M 53.6816,151.76 c 0.07711,-0.23415 -0.144678,-0.4 -0.534938,-0.4 -0.594745,0 -0.666665,-0.18987 -0.666665,-1.76 0,-1.54667 0.07757,-1.76 0.64,-1.76 0.352,0 0.64,-0.144 0.64,-0.32 0,-0.176 -0.288,-0.32 -0.64,-0.32 -0.474839,0 -0.64,-0.21333 -0.64,-0.82667 0,-1.00806 -0.751981,-0.89004 -0.903578,0.14181 -0.09005,0.61295 -0.241964,0.67905 -1.163353,0.5062 -0.587274,-0.11018 -1.147594,-0.0567 -1.256743,0.11988 -0.108329,0.17528 -0.484819,0.24342 -0.836646,0.15142 -0.598224,-0.15644 -0.63968,-0.009 -0.63968,2.27004 0,1.95317 0.09535,2.43732 0.48,2.43732 0.356579,0 0.48,-0.37567 0.48,-1.46104 0,-2.05588 0.422035,-2.69896 1.771258,-2.69896 h 1.108742 v 1.856 c 0,1.0488 0.172339,2.02834 0.396262,2.25226 0.481136,0.48114 1.583607,0.36357 1.765341,-0.18826 z m 7.68078,-0.18524 c 0.24569,-0.24569 0.525152,-1.03157 0.621034,-1.74641 0.149049,-1.11126 0.04929,-1.42473 -0.688054,-2.16208 -1.640647,-1.64064 -4.335363,-0.40763 -4.335363,1.98373 0,1.64168 1.27518,2.80645 2.801347,2.55879 0.634883,-0.10303 1.355347,-0.38834 1.601036,-0.63403 z m -3.186483,-1.02765 c -0.251478,-0.55194 -0.272483,-1.09126 -0.06543,-1.68 C 58.361033,148.15461 58.608988,148 59.501036,148 c 0.908916,0 1.135072,0.14834 1.389396,0.91131 0.457545,1.37263 -0.144685,2.44869 -1.370436,2.44869 -0.73222,0 -1.06558,-0.20161 -1.344099,-0.81289 z M 38.399998,150.72 c 0,-1.24952 0.02666,-1.28 1.12,-1.28 1.372928,0 2.399999,-0.93243 2.399999,-2.17884 0,-1.51056 -0.662838,-2.06386 -2.672044,-2.23048 l -1.807955,-0.14993 v 3.55962 c 0,2.95078 0.0821,3.55963 0.48,3.55963 0.346665,0 0.48,-0.35556 0.48,-1.28 z m 0,-3.32531 c 0,-1.4018 0.04428,-1.47469 0.896,-1.47469 1.012684,0 1.664,0.51073 1.664,1.30482 0,0.67323 -0.551856,1.14055 -1.681789,1.42414 -0.862458,0.21647 -0.878211,0.19396 -0.878211,-1.25427 z M 64.319996,149.92 c 0,-1.86667 0.06564,-2.08 0.64,-2.08 0.352,0 0.64,-0.144 0.64,-0.32 0,-0.176 -0.298016,-0.32 -0.662256,-0.32 -0.910278,0 -0.711853,-1.32852 0.262256,-1.75588 1.002067,-0.43963 0.898387,-0.80412 -0.228742,-0.80412 -1.008493,0 -1.611258,0.71039 -1.611258,1.89896 0,0.37426 -0.20824,0.66104 -0.48,0.66104 -0.264,0 -0.48,0.144 -0.48,0.32 0,0.176 0.216,0.32 0.48,0.32 0.377437,0 0.48,0.44444 0.48,2.08 0,1.63556 0.102563,2.08 0.48,2.08 0.377437,0 0.48,-0.44444 0.48,-2.08 z m 36.916114,1.43192 c 0.53953,-0.50052 -0.10978,-0.97783 -0.81601,-0.59986 -0.887383,0.47491 -2.180106,-0.10928 -2.180106,-0.9852 0,-0.57727 0.206547,-0.64686 1.919996,-0.64686 1.84381,0 1.92,-0.0323 1.92,-0.81454 0,-1.05942 -1.33972,-2.38546 -2.410066,-2.38546 -1.250679,0 -2.70993,1.6005 -2.70993,2.97223 0,1.2846 0.9764,2.68557 2.006378,2.87883 0.812774,0.1525 1.862498,-0.0413 2.269738,-0.41914 z M 98.317636,147.76 c 0.595136,-0.90077 1.601993,-1.07465 2.282474,-0.39417 0.85924,0.85925 0.60318,1.11417 -1.119146,1.11417 -1.627354,0 -1.635642,-0.005 -1.163328,-0.72 z m 16.962354,3.34742 c 0.37275,-0.3239 0.56,-0.95153 0.56,-1.87702 V 147.84 h -1.44 c -1.64303,0 -1.92379,0.46324 -0.45839,0.75632 0.84628,0.16926 0.96761,0.31816 0.88,1.08 -0.0919,0.79947 -0.22269,0.88368 -1.37216,0.88368 -1.03399,0 -1.3459,-0.14895 -1.67528,-0.8 -0.51977,-1.02738 -0.51813,-2.8178 0.004,-3.84 0.33584,-0.65811 0.64243,-0.8 1.72856,-0.8 1.47333,0 2.07898,-0.36064 1.36448,-0.8125 -0.7322,-0.46306 -2.65354,-0.35988 -3.43035,0.18422 -1.44419,1.01155 -1.64893,4.72832 -0.35133,6.37795 0.92822,1.18005 2.97306,1.29605 4.19095,0.23775 z m 6.22085,-0.13466 c 0.37752,-0.41715 0.57915,-1.13924 0.57915,-2.07406 0,-2.52198 -2.36782,-3.80978 -4.15296,-2.2587 -1.1299,0.98176 -1.3495,2.65351 -0.52215,3.97515 0.90954,1.45294 2.94395,1.63057 4.09596,0.35761 z m -2.89125,-0.51796 c -1.02419,-1.13171 -0.402,-3.5748 0.9104,-3.5748 0.76562,0 1.44,0.97411 1.44,2.08 0,1.80029 -1.31632,2.63745 -2.3504,1.4948 z m 8.93105,-1.0948 c 0.48027,-1.452 0.94511,-2.8346 1.03297,-3.07245 0.10411,-0.28181 -0.0388,-0.39328 -0.41016,-0.32 -0.38593,0.0762 -0.79478,0.80697 -1.26646,2.26388 l -0.69655,2.15142 -0.71867,-2.23142 c -0.45037,-1.39832 -0.891,-2.23143 -1.18023,-2.23143 -0.60078,0 -0.59619,0.0434 0.31887,3.00898 0.6984,2.2635 1.1692,3.0509 1.8333,3.06612 0.11755,0.003 0.60667,-1.1831 1.08693,-2.6351 z m -55.860644,0.41814 c 0,-1.60256 0.11192,-1.98024 0.711203,-2.4 0.900531,-0.63075 1.814893,-0.63883 2.053075,-0.0181 0.209481,0.5459 1.075721,0.6578 1.075721,0.13896 0,-0.18757 -0.149065,-0.61957 -0.331257,-0.96 -0.368979,-0.68944 -1.861482,-0.83803 -2.889779,-0.2877 -0.426666,0.22834 -0.618963,0.22834 -0.618963,0 0,-0.18219 -0.216,-0.33126 -0.48,-0.33126 -0.391111,0 -0.48,0.53333 -0.48,2.88 0,2.34667 0.08889,2.88 0.48,2.88 0.372825,0 0.48,-0.42465 0.48,-1.90186 z m 33.279994,-0.16688 c 0,-1.75402 0.0992,-2.12184 0.65209,-2.41773 0.35865,-0.19194 0.93465,-0.2593 1.28,-0.14969 0.54434,0.17276 0.62791,0.49457 0.62791,2.41772 0,1.75861 0.0995,2.21844 0.48,2.21844 0.70692,0 0.68715,-4.54714 -0.0228,-5.25714 -0.5951,-0.59509 -2.08946,-0.66255 -2.63315,-0.11886 -0.29866,0.29867 -0.384,0.29867 -0.384,0 0,-0.2112 -0.216,-0.384 -0.48,-0.384 -0.39111,0 -0.48,0.53333 -0.48,2.88 0,2.34667 0.0889,2.88 0.48,2.88 0.37717,0 0.48,-0.44319 0.48,-2.06874 z M 18.259894,107.48447 c 0.781057,-0.37155 1.745627,-0.97408 2.143488,-1.33896 l 0.723383,-0.66343 -0.835026,-0.87158 -0.835026,-0.87158 -1.110334,0.65512 c -1.5966,0.94201 -4.139333,0.92787 -5.485266,-0.0305 -1.134181,-0.80761 -1.785282,-1.89418 -2.087412,-3.48352 L 10.575999,99.84 h 5.752 5.752 v -2.18967 c 0,-2.723821 -0.891077,-4.589101 -2.852133,-5.97033 -1.250411,-0.880701 -1.583123,-0.96 -4.027867,-0.96 -2.445028,0 -2.779337,0.07971 -4.052434,0.966163 -1.305268,0.908858 -1.5774293,1.322522 -3.5195795,5.349495 -0.3562743,0.73872 -0.3430448,3.947782 0.019165,4.648682 0.1579324,0.30562 0.5341542,1.15514 0.8360482,1.88783 1.5325883,3.71956 6.2301493,5.59936 9.7766953,3.9123 z M 10.844898,96.638806 c 1.178249,-2.631705 3.27665,-3.809171 5.630291,-3.159299 1.374936,0.379639 2.72481,1.957514 2.72481,3.185047 V 97.6 l -3.76,0.0044 c -2.068,0.0026 -4.084542,0.09134 -4.481205,0.197638 l -0.721205,0.193268 0.607309,-1.356468 z m 25.854473,10.847844 c 0.659363,-0.37034 1.379164,-0.91034 1.599558,-1.2 0.351789,-0.46235 0.401958,-0.41921 0.410893,0.35335 0.0097,0.84131 0.08052,0.88 1.610176,0.88 h 1.599999 v -8.497533 -8.497533 l -1.519999,0.09753 -1.52,0.09753 -0.0866,6.270419 c -0.08479,6.139347 -0.102537,6.285387 -0.849072,6.986717 -1.566534,1.47169 -4.796364,1.46717 -6.133512,-0.009 -0.550214,-0.60725 -0.620605,-1.30586 -0.709468,-7.04135 L 31.002695,90.56 h -1.421348 -1.421349 v 6.410278 c 0,6.992592 0.157996,7.809442 1.800589,9.309162 2.123523,1.93883 4.635126,2.38876 6.738784,1.20721 z m 40.095818,-0.18491 c 0.90984,-0.47204 2.059942,-1.35042 2.555779,-1.95196 2.194425,-2.66222 2.551648,-7.676078 0.780867,-10.960068 -1.319853,-2.447728 -3.067241,-3.602157 -5.706771,-3.770227 -2.503942,-0.15944 -4.055708,0.320761 -5.628639,1.741811 -2.711949,2.45008 -3.548576,7.524339 -1.822327,11.052664 0.981242,2.00558 1.754317,2.81087 3.754874,3.91132 1.975817,1.08684 3.940697,1.07922 6.066217,-0.0236 z m -4.063542,-1.92322 c -2.129008,-0.42073 -3.855597,-4.04247 -3.5124,-7.367704 0.32329,-3.132384 2.014333,-4.997482 4.531101,-4.997482 2.677667,0 4.310546,2.432506 4.32262,6.439415 0.01069,3.552481 -1.217017,5.529651 -3.672972,5.915091 -0.528,0.0829 -1.278759,0.0877 -1.668349,0.0107 z m 21.946834,2.28514 c 3.189574,-1.11078 4.620764,-2.18518 5.183926,-3.89157 0.520283,-1.57646 0.116979,-3.13136 -1.137594,-4.385936 -0.917437,-0.91744 -1.567923,-1.193767 -4.224614,-1.794631 -4.389372,-0.992745 -5.465238,-1.595369 -5.070217,-2.839971 0.404259,-1.273709 3.900368,-1.880586 6.665625,-1.157066 1.020586,0.267034 1.909421,0.485514 1.975184,0.485514 0.296979,0 0.848521,-2.32568 0.603744,-2.545786 -1.147686,-1.032 -6.358195,-1.315744 -8.811436,-0.47984 -2.837527,0.966842 -4.077053,3.336496 -2.918416,5.579248 0.945094,1.829399 2.304272,2.538733 7.34502,3.833248 1.946675,0.49993 2.817488,1.30309 2.553453,2.35509 -0.470176,1.87333 -3.69449,2.73961 -7.354688,1.976 -1.258659,-0.26259 -2.320774,-0.47755 -2.360256,-0.4777 -0.03948,-1.4e-4 -0.303734,0.44829 -0.587232,0.99651 -0.621766,1.20237 -0.468582,1.38708 1.797059,2.16687 2.171895,0.74752 4.519472,0.81418 6.340442,0.18002 z M 116.13448,107.37 c 2.82778,-1.1082 3.00433,-1.29068 2.39285,-2.47317 -0.39811,-0.76986 -0.63292,-0.91539 -1.19158,-0.7385 -2.48868,0.78799 -3.94634,1.09796 -4.43455,0.94301 -0.88874,-0.28208 -1.2175,-2.19662 -1.21942,-7.10134 l -0.002,-4.56 h 3.52 c 3.50959,0 3.52,-0.0022 3.52,-0.773827 0,-0.425607 0.0874,-1.001607 0.19424,-1.28 0.17024,-0.443648 -0.26457,-0.506173 -3.52,-0.506173 h -3.71424 v -2.4 c 0,-1.32 -0.11057,-2.4 -0.24572,-2.4 -0.13514,0 -0.78314,0.36519 -1.44,0.811536 -1.10965,0.754032 -1.19428,0.92409 -1.19428,2.4 V 90.88 h -2.24 -2.24 v 1.28 1.28 h 2.24 2.24 l 0.002,5.2 c 0.002,6.12764 0.23842,7.22386 1.84227,8.54589 1.47566,1.21636 2.74761,1.25901 5.49044,0.18411 z m 17.18643,0.27933 c 0.68149,-0.28087 1.56308,-0.80997 1.95908,-1.17578 l 0.72,-0.66511 v 0.85578 c 0,0.81897 0.0723,0.8558 1.68,0.85629 l 1.68,6.4e-4 -0.16883,-6.32051 c -0.15935,-5.965686 -0.21325,-6.39984 -0.96,-7.733715 -1.42573,-2.546672 -4.87919,-3.495104 -8.93918,-2.454986 -1.13167,0.289923 -2.11195,0.581488 -2.17838,0.647927 -0.0664,0.06644 0.11579,0.578316 0.40497,1.13751 0.51974,1.005069 0.54475,1.01377 2.18359,0.759306 3.41886,-0.530848 5.11562,-0.194474 5.81201,1.152198 0.2672,0.51671 0.48582,1.27728 0.48582,1.690154 0,0.743132 -0.0299,0.749369 -2.97823,0.620422 -2.5656,-0.112211 -3.21145,-0.02992 -4.66153,0.593882 -2.18916,0.941616 -3.24024,2.419822 -3.24024,4.556832 0,2.51154 1.16583,4.12273 3.84,5.30694 1.78188,0.78908 2.76955,0.82808 4.36092,0.17222 z m -3.7316,-3.08933 c -1.95384,-1.3205 -1.79824,-3.40344 0.33513,-4.48616 0.83383,-0.423184 1.72164,-0.544403 3.51555,-0.48 l 2.4,0.08616 0.0943,1.96423 0.0943,1.96423 -1.67717,0.83577 c -2.05724,1.02517 -3.36943,1.05707 -4.76219,0.11577 z m 25.58517,2.81 c 2.82777,-1.1082 3.00433,-1.29068 2.39284,-2.47317 -0.39811,-0.76986 -0.63291,-0.91539 -1.19157,-0.7385 -2.48868,0.78799 -3.94634,1.09796 -4.43455,0.94301 -0.88875,-0.28208 -1.2175,-2.19662 -1.21942,-7.10134 l -0.002,-4.56 h 3.52 c 3.50959,0 3.52,-0.0022 3.52,-0.773827 0,-0.425607 0.0874,-1.001607 0.19424,-1.28 0.17024,-0.443648 -0.26458,-0.506173 -3.52,-0.506173 h -3.71424 v -2.4 c 0,-1.32 -0.11057,-2.4 -0.24572,-2.4 -0.13514,0 -0.78314,0.36519 -1.44,0.811536 -1.10965,0.754032 -1.19428,0.92409 -1.19428,2.4 V 90.88 h -2.24 -2.24 v 1.28 1.28 h 2.24 2.24 l 0.002,5.2 c 0.002,6.12764 0.23842,7.22386 1.84227,8.54589 1.47566,1.21636 2.74761,1.25901 5.49043,0.18411 z M 50.559997,101.8312 c 0,-6.354781 0.08677,-6.661498 2.181145,-7.709853 1.484532,-0.743094 3.154858,-1.007232 4.556547,-0.720557 0.906739,0.18545 1.142928,0.417072 1.415335,1.387975 0.179836,0.640957 0.434972,1.175696 0.566972,1.188307 0.132,0.01261 0.690551,0.02291 1.241226,0.02291 h 1.001225 l -0.219116,-1.68 C 60.841907,90.782198 60.534198,90.56 56.096355,90.56 c -3.026813,0 -4.284854,0.460707 -5.035433,1.844022 L 50.585623,93.28 l -0.0128,-1.36 -0.0128,-1.36 h -1.44 -1.44 v 8.48 8.48 h 1.44 1.44 v -5.6888 z"
         id="path733" />
      <path
         style="fill:#33393e;stroke-width:0.32"
         d="M 42.879997,164.95558 3.3599998,142.10917 3.2934116,96.094586 3.2268235,50.08 42.933969,27.2 C 64.772902,14.616 82.787973,4.3630358 82.967461,4.4156349 83.146949,4.4682339 101.05647,14.764234 122.7664,27.295635 L 162.239,50.08 162.1595,96.134643 162.08,142.18929 122.56,165.0112 c -21.736,12.55205 -39.663995,22.81491 -39.839995,22.80635 -0.176,-0.009 -18.103999,-10.29645 -39.839998,-22.86197 z M 91.519994,152.96 c 0,-1.24558 0.02963,-1.28 1.102157,-1.28 1.693696,0 2.883299,-1.18824 2.883299,-2.88 0,-1.07751 -0.178665,-1.50161 -0.890573,-2.11396 -1.032329,-0.88798 -1.881059,-0.97415 -2.592025,-0.26318 -0.457142,0.45714 -0.502858,0.45714 -0.502858,0 0,-0.27658 -0.216,-0.50286 -0.479999,-0.50286 -0.402052,0 -0.48,0.67556 -0.48,4.16 0,3.48444 0.07795,4.16 0.48,4.16 0.346665,0 0.479999,-0.35556 0.479999,-1.28 z m 0,-3.82874 c 0,-1.55072 0.484224,-2.25126 1.556106,-2.25126 0.621261,0 1.323894,1.01901 1.323894,1.92 0,1.17345 -0.755443,1.92 -1.942857,1.92 -0.910352,0 -0.937143,-0.0454 -0.937143,-1.58874 z m -5.6255,3.73363 c 4.079773,-2.25945 3.653398,-8.60997 -0.707594,-10.53904 -6.163577,-2.72644 -11.31909,5.32162 -6.368386,9.94143 1.862118,1.73765 4.599939,1.96888 7.07598,0.59761 z m -5.334499,-0.40792 c -0.989363,-0.53674 -1.085184,-0.84832 -0.428489,-1.39333 0.339654,-0.28188 0.507923,-0.28344 0.679212,-0.006 0.125236,0.20263 0.966055,0.71222 1.86849,1.13241 l 1.640787,0.76399 -1.44,-0.01 c -0.792,-0.005 -1.836,-0.22452 -2.32,-0.48709 z m 2.564579,-0.91759 c -0.481481,-0.25117 -1.162768,-0.65794 -1.513971,-0.90393 -0.624505,-0.43742 -0.616931,-0.46781 0.344349,-1.38136 l 0.982902,-0.93409 1.411072,1.55096 c 0.776086,0.85303 1.411069,1.68103 1.411069,1.84 0,0.44613 -1.658259,0.33817 -2.635421,-0.17158 z m -4.813987,-1.18241 c -0.630768,-1.01029 -0.898166,-2.59717 -0.534505,-3.17204 0.253894,-0.40135 0.294784,-0.39851 0.299014,0.0208 0.0026,0.26714 0.380474,1.03842 0.83951,1.71396 0.744192,1.09517 0.782285,1.28057 0.351604,1.71125 -0.430682,0.43068 -0.534215,0.401 -0.955623,-0.27396 z m 6.632889,-0.93374 -1.564143,-1.58802 0.837056,-0.83706 c 0.494761,-0.49476 0.995142,-0.73935 1.223651,-0.59812 0.521926,0.32257 1.584201,2.71069 1.592928,3.58108 0.01213,1.21062 -0.47594,1.0803 -2.089492,-0.55788 z m -5.524556,-1.2268 C 78.849509,147.1833 78.423627,144.64 78.823387,144.64 c 0.05687,0 0.8472,0.69466 1.756301,1.54368 l 1.652905,1.54367 -0.893811,0.85633 c -0.491593,0.47098 -0.967411,0.85632 -1.057372,0.85632 -0.08996,0 -0.47808,-0.55961 -0.86249,-1.24357 z m 7.414982,-1.18941 c -0.879267,-1.49002 -0.945494,-1.75523 -0.525373,-2.1039 0.393133,-0.32627 0.56113,-0.289 0.922023,0.20455 0.489465,0.66939 0.88887,2.41148 0.719062,3.13635 -0.0625,0.2668 -0.542067,-0.2649 -1.115712,-1.237 z m -5.648598,-1.34071 c -0.82792,-0.84056 -1.505309,-1.63135 -1.505309,-1.7573 0,-0.41755 1.966096,-0.23716 3.056918,0.28047 1.709472,0.81119 1.855111,1.18345 0.842541,2.15356 l -0.888838,0.85156 z m 2.037312,-2.03146 -1.737383,-0.91485 h 1.353271 c 0.744301,0 1.788313,0.22497 2.320025,0.49993 0.787754,0.40736 0.896058,0.58511 0.584928,0.96 -0.465565,0.56097 -0.388861,0.57755 -2.520841,-0.54508 z m -37.542619,8.34385 c 0.672371,0.0132 0.72,-0.11995 0.72,-2.01269 0,-2.59105 -0.65055,-3.35771 -2.461648,-2.90099 -1.685894,0.42514 -1.824304,1.17385 -0.168041,0.90901 0.847779,-0.13557 1.349404,-0.0734 1.510496,0.18728 0.291123,0.47104 -0.37658,0.94703 -1.337949,0.95379 -0.38343,0.003 -0.92343,0.23118 -1.2,0.50776 -1.11465,1.11465 -0.129613,2.92272 1.387648,2.54707 0.456224,-0.11295 1.153494,-0.199 1.549494,-0.19123 z m -2.376672,-1.13099 c -0.108121,-0.28177 0.0044,-0.63956 0.250042,-0.79511 0.674864,-0.42732 1.88663,-0.34806 1.88663,0.1234 0,1.07553 -1.768384,1.63145 -2.136672,0.67171 z M 53.6816,151.76 c 0.07711,-0.23415 -0.144678,-0.4 -0.534938,-0.4 -0.594745,0 -0.666665,-0.18987 -0.666665,-1.76 0,-1.54667 0.07757,-1.76 0.64,-1.76 0.352,0 0.64,-0.144 0.64,-0.32 0,-0.176 -0.288,-0.32 -0.64,-0.32 -0.474839,0 -0.64,-0.21333 -0.64,-0.82667 0,-1.00806 -0.751981,-0.89004 -0.903578,0.14181 -0.09005,0.61295 -0.241964,0.67905 -1.163353,0.5062 -0.587274,-0.11018 -1.147594,-0.0567 -1.256743,0.11988 -0.108329,0.17528 -0.484819,0.24342 -0.836646,0.15142 -0.598224,-0.15644 -0.63968,-0.009 -0.63968,2.27004 0,1.95317 0.09535,2.43732 0.48,2.43732 0.356579,0 0.48,-0.37567 0.48,-1.46104 0,-2.05588 0.422035,-2.69896 1.771258,-2.69896 h 1.108742 v 1.856 c 0,1.0488 0.172339,2.02834 0.396262,2.25226 0.481136,0.48114 1.583607,0.36357 1.765341,-0.18826 z m 7.68078,-0.18524 c 0.24569,-0.24569 0.525152,-1.03157 0.621034,-1.74641 0.149049,-1.11126 0.04929,-1.42473 -0.688054,-2.16208 -1.640647,-1.64064 -4.335363,-0.40763 -4.335363,1.98373 0,1.64168 1.27518,2.80645 2.801347,2.55879 0.634883,-0.10303 1.355347,-0.38834 1.601036,-0.63403 z m -3.186483,-1.02765 c -0.251478,-0.55194 -0.272483,-1.09126 -0.06543,-1.68 C 58.361033,148.15461 58.608988,148 59.501036,148 c 0.908916,0 1.135072,0.14834 1.389396,0.91131 0.457545,1.37263 -0.144685,2.44869 -1.370436,2.44869 -0.73222,0 -1.06558,-0.20161 -1.344099,-0.81289 z M 38.399998,150.72 c 0,-1.24952 0.02666,-1.28 1.12,-1.28 1.372928,0 2.399999,-0.93243 2.399999,-2.17884 0,-1.51056 -0.662838,-2.06386 -2.672044,-2.23048 l -1.807955,-0.14993 v 3.55962 c 0,2.95078 0.0821,3.55963 0.48,3.55963 0.346665,0 0.48,-0.35556 0.48,-1.28 z m 0,-3.32531 c 0,-1.4018 0.04428,-1.47469 0.896,-1.47469 1.012684,0 1.664,0.51073 1.664,1.30482 0,0.67323 -0.551856,1.14055 -1.681789,1.42414 -0.862458,0.21647 -0.878211,0.19396 -0.878211,-1.25427 z M 64.319996,149.92 c 0,-1.86667 0.06564,-2.08 0.64,-2.08 0.352,0 0.64,-0.144 0.64,-0.32 0,-0.176 -0.298016,-0.32 -0.662256,-0.32 -0.910278,0 -0.711853,-1.32852 0.262256,-1.75588 1.002067,-0.43963 0.898387,-0.80412 -0.228742,-0.80412 -1.008493,0 -1.611258,0.71039 -1.611258,1.89896 0,0.37426 -0.20824,0.66104 -0.48,0.66104 -0.264,0 -0.48,0.144 -0.48,0.32 0,0.176 0.216,0.32 0.48,0.32 0.377437,0 0.48,0.44444 0.48,2.08 0,1.63556 0.102563,2.08 0.48,2.08 0.377437,0 0.48,-0.44444 0.48,-2.08 z m 36.916114,1.43192 c 0.53953,-0.50052 -0.10978,-0.97783 -0.81601,-0.59986 -0.887383,0.47491 -2.180106,-0.10928 -2.180106,-0.9852 0,-0.57727 0.206547,-0.64686 1.919996,-0.64686 1.84381,0 1.92,-0.0323 1.92,-0.81454 0,-1.05942 -1.33972,-2.38546 -2.410066,-2.38546 -1.250679,0 -2.70993,1.6005 -2.70993,2.97223 0,1.2846 0.9764,2.68557 2.006378,2.87883 0.812774,0.1525 1.862498,-0.0413 2.269738,-0.41914 z M 98.317636,147.76 c 0.595136,-0.90077 1.601993,-1.07465 2.282474,-0.39417 0.85924,0.85925 0.60318,1.11417 -1.119146,1.11417 -1.627354,0 -1.635642,-0.005 -1.163328,-0.72 z m 16.962354,3.34742 c 0.37275,-0.3239 0.56,-0.95153 0.56,-1.87702 V 147.84 h -1.44 c -1.64303,0 -1.92379,0.46324 -0.45839,0.75632 0.84628,0.16926 0.96761,0.31816 0.88,1.08 -0.0919,0.79947 -0.22269,0.88368 -1.37216,0.88368 -1.03399,0 -1.3459,-0.14895 -1.67528,-0.8 -0.51977,-1.02738 -0.51813,-2.8178 0.004,-3.84 0.33584,-0.65811 0.64243,-0.8 1.72856,-0.8 1.47333,0 2.07898,-0.36064 1.36448,-0.8125 -0.7322,-0.46306 -2.65354,-0.35988 -3.43035,0.18422 -1.44419,1.01155 -1.64893,4.72832 -0.35133,6.37795 0.92822,1.18005 2.97306,1.29605 4.19095,0.23775 z m 6.22085,-0.13466 c 0.37752,-0.41715 0.57915,-1.13924 0.57915,-2.07406 0,-2.52198 -2.36782,-3.80978 -4.15296,-2.2587 -1.1299,0.98176 -1.3495,2.65351 -0.52215,3.97515 0.90954,1.45294 2.94395,1.63057 4.09596,0.35761 z m -2.89125,-0.51796 c -1.02419,-1.13171 -0.402,-3.5748 0.9104,-3.5748 0.76562,0 1.44,0.97411 1.44,2.08 0,1.80029 -1.31632,2.63745 -2.3504,1.4948 z m 8.93105,-1.0948 c 0.48027,-1.452 0.94511,-2.8346 1.03297,-3.07245 0.10411,-0.28181 -0.0388,-0.39328 -0.41016,-0.32 -0.38593,0.0762 -0.79478,0.80697 -1.26646,2.26388 l -0.69655,2.15142 -0.71867,-2.23142 c -0.45037,-1.39832 -0.891,-2.23143 -1.18023,-2.23143 -0.60078,0 -0.59619,0.0434 0.31887,3.00898 0.6984,2.2635 1.1692,3.0509 1.8333,3.06612 0.11755,0.003 0.60667,-1.1831 1.08693,-2.6351 z m -55.860644,0.41814 c 0,-1.60256 0.11192,-1.98024 0.711203,-2.4 0.900531,-0.63075 1.814893,-0.63883 2.053075,-0.0181 0.209481,0.5459 1.075721,0.6578 1.075721,0.13896 0,-0.18757 -0.149065,-0.61957 -0.331257,-0.96 -0.368979,-0.68944 -1.861482,-0.83803 -2.889779,-0.2877 -0.426666,0.22834 -0.618963,0.22834 -0.618963,0 0,-0.18219 -0.216,-0.33126 -0.48,-0.33126 -0.391111,0 -0.48,0.53333 -0.48,2.88 0,2.34667 0.08889,2.88 0.48,2.88 0.372825,0 0.48,-0.42465 0.48,-1.90186 z m 33.279994,-0.16688 c 0,-1.75402 0.0992,-2.12184 0.65209,-2.41773 0.35865,-0.19194 0.93465,-0.2593 1.28,-0.14969 0.54434,0.17276 0.62791,0.49457 0.62791,2.41772 0,1.75861 0.0995,2.21844 0.48,2.21844 0.70692,0 0.68715,-4.54714 -0.0228,-5.25714 -0.5951,-0.59509 -2.08946,-0.66255 -2.63315,-0.11886 -0.29866,0.29867 -0.384,0.29867 -0.384,0 0,-0.2112 -0.216,-0.384 -0.48,-0.384 -0.39111,0 -0.48,0.53333 -0.48,2.88 0,2.34667 0.0889,2.88 0.48,2.88 0.37717,0 0.48,-0.44319 0.48,-2.06874 z M 18.259894,107.48447 c 0.781057,-0.37155 1.745627,-0.97408 2.143488,-1.33896 l 0.723383,-0.66343 -0.835026,-0.87158 -0.835026,-0.87158 -1.110334,0.65512 c -1.5966,0.94201 -4.139333,0.92787 -5.485266,-0.0305 -1.134181,-0.80761 -1.785282,-1.89418 -2.087412,-3.48352 L 10.575999,99.84 h 5.752 5.752 v -2.18967 c 0,-2.723821 -0.891077,-4.589101 -2.852133,-5.97033 -1.250411,-0.880701 -1.583123,-0.96 -4.027867,-0.96 -2.445028,0 -2.779337,0.07971 -4.052434,0.966163 -1.305268,0.908858 -1.5774293,1.322522 -3.5195795,5.349495 -0.3562743,0.73872 -0.3430448,3.947782 0.019165,4.648682 0.1579324,0.30562 0.5341542,1.15514 0.8360482,1.88783 1.5325883,3.71956 6.2301493,5.59936 9.7766953,3.9123 z M 10.844898,96.638806 c 1.178249,-2.631705 3.27665,-3.809171 5.630291,-3.159299 1.374936,0.379639 2.72481,1.957514 2.72481,3.185047 V 97.6 l -3.76,0.0044 c -2.068,0.0026 -4.084542,0.09134 -4.481205,0.197638 l -0.721205,0.193268 0.607309,-1.356468 z m 25.854473,10.847844 c 0.659363,-0.37034 1.379164,-0.91034 1.599558,-1.2 0.351789,-0.46235 0.401958,-0.41921 0.410893,0.35335 0.0097,0.84131 0.08052,0.88 1.610176,0.88 h 1.599999 v -8.497533 -8.497533 l -1.519999,0.09753 -1.52,0.09753 -0.0866,6.270419 c -0.08479,6.139347 -0.102537,6.285387 -0.849072,6.986717 -1.566534,1.47169 -4.796364,1.46717 -6.133512,-0.009 -0.550214,-0.60725 -0.620605,-1.30586 -0.709468,-7.04135 L 31.002695,90.56 h -1.421348 -1.421349 v 6.410278 c 0,6.992592 0.157996,7.809442 1.800589,9.309162 2.123523,1.93883 4.635126,2.38876 6.738784,1.20721 z m 40.095818,-0.18491 c 0.90984,-0.47204 2.059942,-1.35042 2.555779,-1.95196 2.194425,-2.66222 2.551648,-7.676078 0.780867,-10.960068 -1.319853,-2.447728 -3.067241,-3.602157 -5.706771,-3.770227 -2.503942,-0.15944 -4.055708,0.320761 -5.628639,1.741811 -2.711949,2.45008 -3.548576,7.524339 -1.822327,11.052664 0.981242,2.00558 1.754317,2.81087 3.754874,3.91132 1.975817,1.08684 3.940697,1.07922 6.066217,-0.0236 z m -4.063542,-1.92322 c -2.129008,-0.42073 -3.855597,-4.04247 -3.5124,-7.367704 0.32329,-3.132384 2.014333,-4.997482 4.531101,-4.997482 2.677667,0 4.310546,2.432506 4.32262,6.439415 0.01069,3.552481 -1.217017,5.529651 -3.672972,5.915091 -0.528,0.0829 -1.278759,0.0877 -1.668349,0.0107 z m 21.946834,2.28514 c 3.189574,-1.11078 4.620764,-2.18518 5.183926,-3.89157 0.520283,-1.57646 0.116979,-3.13136 -1.137594,-4.385936 -0.917437,-0.91744 -1.567923,-1.193767 -4.224614,-1.794631 -4.389372,-0.992745 -5.465238,-1.595369 -5.070217,-2.839971 0.404259,-1.273709 3.900368,-1.880586 6.665625,-1.157066 1.020586,0.267034 1.909421,0.485514 1.975184,0.485514 0.296979,0 0.848521,-2.32568 0.603744,-2.545786 -1.147686,-1.032 -6.358195,-1.315744 -8.811436,-0.47984 -2.837527,0.966842 -4.077053,3.336496 -2.918416,5.579248 0.945094,1.829399 2.304272,2.538733 7.34502,3.833248 1.946675,0.49993 2.817488,1.30309 2.553453,2.35509 -0.470176,1.87333 -3.69449,2.73961 -7.354688,1.976 -1.258659,-0.26259 -2.320774,-0.47755 -2.360256,-0.4777 -0.03948,-1.4e-4 -0.303734,0.44829 -0.587232,0.99651 -0.621766,1.20237 -0.468582,1.38708 1.797059,2.16687 2.171895,0.74752 4.519472,0.81418 6.340442,0.18002 z M 116.13448,107.37 c 2.82778,-1.1082 3.00433,-1.29068 2.39285,-2.47317 -0.39811,-0.76986 -0.63292,-0.91539 -1.19158,-0.7385 -2.48868,0.78799 -3.94634,1.09796 -4.43455,0.94301 -0.88874,-0.28208 -1.2175,-2.19662 -1.21942,-7.10134 l -0.002,-4.56 h 3.52 c 3.50959,0 3.52,-0.0022 3.52,-0.773827 0,-0.425607 0.0874,-1.001607 0.19424,-1.28 0.17024,-0.443648 -0.26457,-0.506173 -3.52,-0.506173 h -3.71424 v -2.4 c 0,-1.32 -0.11057,-2.4 -0.24572,-2.4 -0.13514,0 -0.78314,0.36519 -1.44,0.811536 -1.10965,0.754032 -1.19428,0.92409 -1.19428,2.4 V 90.88 h -2.24 -2.24 v 1.28 1.28 h 2.24 2.24 l 0.002,5.2 c 0.002,6.12764 0.23842,7.22386 1.84227,8.54589 1.47566,1.21636 2.74761,1.25901 5.49044,0.18411 z m 17.18643,0.27933 c 0.68149,-0.28087 1.56308,-0.80997 1.95908,-1.17578 l 0.72,-0.66511 v 0.85578 c 0,0.81897 0.0723,0.8558 1.68,0.85629 l 1.68,6.4e-4 -0.16883,-6.32051 c -0.15935,-5.965686 -0.21325,-6.39984 -0.96,-7.733715 -1.42573,-2.546672 -4.87919,-3.495104 -8.93918,-2.454986 -1.13167,0.289923 -2.11195,0.581488 -2.17838,0.647927 -0.0664,0.06644 0.11579,0.578316 0.40497,1.13751 0.51974,1.005069 0.54475,1.01377 2.18359,0.759306 3.41886,-0.530848 5.11562,-0.194474 5.81201,1.152198 0.2672,0.51671 0.48582,1.27728 0.48582,1.690154 0,0.743132 -0.0299,0.749369 -2.97823,0.620422 -2.5656,-0.112211 -3.21145,-0.02992 -4.66153,0.593882 -2.18916,0.941616 -3.24024,2.419822 -3.24024,4.556832 0,2.51154 1.16583,4.12273 3.84,5.30694 1.78188,0.78908 2.76955,0.82808 4.36092,0.17222 z m -3.7316,-3.08933 c -1.95384,-1.3205 -1.79824,-3.40344 0.33513,-4.48616 0.83383,-0.423184 1.72164,-0.544403 3.51555,-0.48 l 2.4,0.08616 0.0943,1.96423 0.0943,1.96423 -1.67717,0.83577 c -2.05724,1.02517 -3.36943,1.05707 -4.76219,0.11577 z m 25.58517,2.81 c 2.82777,-1.1082 3.00433,-1.29068 2.39284,-2.47317 -0.39811,-0.76986 -0.63291,-0.91539 -1.19157,-0.7385 -2.48868,0.78799 -3.94634,1.09796 -4.43455,0.94301 -0.88875,-0.28208 -1.2175,-2.19662 -1.21942,-7.10134 l -0.002,-4.56 h 3.52 c 3.50959,0 3.52,-0.0022 3.52,-0.773827 0,-0.425607 0.0874,-1.001607 0.19424,-1.28 0.17024,-0.443648 -0.26458,-0.506173 -3.52,-0.506173 h -3.71424 v -2.4 c 0,-1.32 -0.11057,-2.4 -0.24572,-2.4 -0.13514,0 -0.78314,0.36519 -1.44,0.811536 -1.10965,0.754032 -1.19428,0.92409 -1.19428,2.4 V 90.88 h -2.24 -2.24 v 1.28 1.28 h 2.24 2.24 l 0.002,5.2 c 0.002,6.12764 0.23842,7.22386 1.84227,8.54589 1.47566,1.21636 2.74761,1.25901 5.49043,0.18411 z M 50.559997,101.8312 c 0,-6.354781 0.08677,-6.661498 2.181145,-7.709853 1.484532,-0.743094 3.154858,-1.007232 4.556547,-0.720557 0.906739,0.18545 1.142928,0.417072 1.415335,1.387975 0.179836,0.640957 0.434972,1.175696 0.566972,1.188307 0.132,0.01261 0.690551,0.02291 1.241226,0.02291 h 1.001225 l -0.219116,-1.68 C 60.841907,90.782198 60.534198,90.56 56.096355,90.56 c -3.026813,0 -4.284854,0.460707 -5.035433,1.844022 L 50.585623,93.28 l -0.0128,-1.36 -0.0128,-1.36 h -1.44 -1.44 v 8.48 8.48 h 1.44 1.44 v -5.6888 z"
         id="path731" />
    </g>
  </g>
</svg>
