<svg width="187.4" height="72.002" viewBox="0 0 187.4 72.002" xmlns="http://www.w3.org/2000/svg"><g id="svgGroup" stroke-linecap="round" fill-rule="evenodd" font-size="9pt" stroke="#000" stroke-width="0.25mm" fill="#000" style="stroke:#000;stroke-width:0.25mm;fill:#000"><path d="M 187.4 67.801 L 178.5 72.001 L 169.8 53.001 A 30.586 30.586 0 0 0 167.209 48.427 Q 164.703 44.823 161.5 42.901 Q 157.145 40.287 150.664 39.95 A 37.847 37.847 0 0 0 148.7 39.901 L 147.2 39.901 L 147.2 70.801 L 137.7 70.801 L 137.7 1.001 Q 143 0.501 147.85 0.251 A 187.94 187.94 0 0 1 154.166 0.036 A 226.267 226.267 0 0 1 158.2 0.001 Q 171 0.001 177.45 5.201 A 17.414 17.414 0 0 1 182.08 10.735 Q 183.9 14.244 183.9 18.601 A 19.88 19.88 0 0 1 183.249 23.821 A 14.672 14.672 0 0 1 179.55 30.351 Q 175.2 34.801 167 37.001 A 23.656 23.656 0 0 1 170.429 38.863 A 20.427 20.427 0 0 1 171.8 39.851 Q 173.769 41.397 175.605 43.911 A 29.29 29.29 0 0 1 175.85 44.251 Q 177.8 47.001 179.8 51.401 L 187.4 67.801 Z M 9.5 70.801 L 0 70.801 L 0 0.801 L 41.5 0.801 L 41.5 9.001 L 9.5 9.001 L 9.5 30.401 L 36.2 30.401 L 36.2 38.201 L 9.5 38.201 L 9.5 70.801 Z M 83.1 23.001 L 83.1 18.801 L 91.3 18.801 L 91.3 58.201 A 12.15 12.15 0 0 0 91.402 59.836 Q 91.734 62.27 93.15 63.151 Q 95 64.301 97.2 64.301 L 95.3 71.301 A 17.722 17.722 0 0 1 91.035 70.828 Q 85.398 69.428 83.803 63.881 A 13.59 13.59 0 0 1 83.7 63.501 A 21.307 21.307 0 0 1 80.59 66.927 A 28.498 28.498 0 0 1 77.45 69.351 Q 73.5 72.001 67.4 72.001 Q 60.9 72.001 55.6 68.701 A 22.947 22.947 0 0 1 48.187 61.174 A 27.923 27.923 0 0 1 47.15 59.351 A 27.228 27.228 0 0 1 44.52 51.408 A 36.644 36.644 0 0 1 44 45.101 A 33.142 33.142 0 0 1 44.997 36.832 A 27.968 27.968 0 0 1 47.15 31.101 Q 50.3 24.901 55.85 21.251 A 22.297 22.297 0 0 1 67.045 17.644 A 27.388 27.388 0 0 1 68.6 17.601 A 22.584 22.584 0 0 1 73.394 18.091 A 18.703 18.703 0 0 1 76.75 19.151 A 26.002 26.002 0 0 1 81.037 21.444 A 22.103 22.103 0 0 1 83.1 23.001 Z M 119.7 70.801 L 110.2 70.801 L 110.2 0.801 L 119.7 0.801 L 119.7 70.801 Z M 82.3 57.501 L 82.3 29.601 Q 79.6 27.701 76.35 26.551 Q 73.1 25.401 69.5 25.401 A 15.924 15.924 0 0 0 64.529 26.154 A 14.024 14.024 0 0 0 61.05 27.851 A 16.301 16.301 0 0 0 56.031 33.274 A 19.962 19.962 0 0 0 55.3 34.651 A 20.663 20.663 0 0 0 53.547 40.327 A 27.678 27.678 0 0 0 53.2 44.801 Q 53.2 50.401 55.3 54.751 A 17.602 17.602 0 0 0 58.406 59.297 A 15.697 15.697 0 0 0 61.1 61.551 Q 64.8 64.001 69.4 64.001 Q 73.2 64.001 76.6 62.151 Q 80 60.301 82.3 57.501 Z M 147.2 8.401 L 147.2 31.901 L 158.2 31.901 A 26.489 26.489 0 0 0 163.123 31.469 Q 167.052 30.726 169.9 28.701 Q 174.4 25.501 174.4 19.501 A 9.811 9.811 0 0 0 171.127 12.036 A 13.272 13.272 0 0 0 170.2 11.251 A 13.923 13.923 0 0 0 165.836 9.029 Q 163.907 8.418 161.577 8.17 A 31.944 31.944 0 0 0 158.2 8.001 Q 155.026 8.001 152.462 8.088 A 118.974 118.974 0 0 0 152.1 8.101 Q 149.4 8.201 147.2 8.401 Z" vector-effect="non-scaling-stroke"/></g></svg>