<?xml version="1.0" encoding="UTF-8" standalone="no"?>
<!-- Created with Inkscape (http://www.inkscape.org/) -->

<svg
   version="1.1"
   id="svg1"
   width="127.968"
   height="160.032"
   viewBox="0 0 127.968 160.032"
   sodipodi:docname="fame.svg"
   inkscape:version="1.3.2 (091e20e, 2023-11-25)"
   xmlns:inkscape="http://www.inkscape.org/namespaces/inkscape"
   xmlns:sodipodi="http://sodipodi.sourceforge.net/DTD/sodipodi-0.dtd"
   xmlns="http://www.w3.org/2000/svg"
   xmlns:svg="http://www.w3.org/2000/svg">
  <defs
     id="defs1" />
  <sodipodi:namedview
     id="namedview1"
     pagecolor="#ffffff"
     bordercolor="#666666"
     borderopacity="1.0"
     inkscape:showpageshadow="2"
     inkscape:pageopacity="0.0"
     inkscape:pagecheckerboard="0"
     inkscape:deskcolor="#d1d1d1"
     inkscape:zoom="3.6982838"
     inkscape:cx="63.813382"
     inkscape:cy="80.037124"
     inkscape:window-width="1264"
     inkscape:window-height="837"
     inkscape:window-x="0"
     inkscape:window-y="25"
     inkscape:window-maximized="0"
     inkscape:current-layer="g1" />
  <g
     inkscape:groupmode="layer"
     inkscape:label="Image"
     id="g1">
    <g
       id="g2">
      <path
         style="fill:#99a4a0"
         d="M 1.7723533,158.856 C 1.7472618,158.79 1.7378176,150.9168 1.7513662,141.36 L 1.776,123.984 h 9.744 9.744 l 0.02545,2.74842 0.02545,2.74842 -0.217453,0.0583 c -0.1196,0.032 -2.906654,0.0589 -6.193454,0.0596 L 8.9280002,129.6 v 4.224 4.224 h 5.8448038 5.844803 l 0.05789,0.216 c 0.03184,0.1188 0.05848,1.32531 0.0592,2.68114 0.0011,2.11422 -0.02017,2.48662 -0.149547,2.616 -0.133786,0.13379 -0.80187,0.15086 -5.904,0.15086 H 8.9280002 l -0.00131,7.416 c -7.21e-4,4.0788 -0.027359,7.5132 -0.059197,7.632 l -0.057886,0.216 H 5.3137905 c -2.7083219,0 -3.5060933,-0.027 -3.5414372,-0.12 z M 20.67215,158.664 c 0.0315,-0.1716 3.074239,-8.0448 6.761642,-17.496 l 6.70437,-17.184 3.973039,-0.0251 c 2.185172,-0.0138 4.008701,0.0106 4.052288,0.0542 0.150741,0.15074 13.682034,34.72335 13.637085,34.84291 -0.06565,0.17463 -7.635798,0.17463 -7.780486,0 -0.05468,-0.066 -0.746871,-1.848 -1.538198,-3.96 l -1.438776,-3.84 -7.013846,-0.0246 c -6.606161,-0.0232 -7.019056,-0.0148 -7.103474,0.144 -0.0493,0.0927 -0.723169,1.83053 -1.497495,3.86175 -0.774327,2.03122 -1.453754,3.74842 -1.509837,3.816 -0.07953,0.0958 -0.894438,0.12287 -3.702777,0.12287 h -3.600806 z m 22.239851,-13.45316 c 0,-0.14581 -4.769315,-13.78816 -4.847685,-13.86653 -0.02657,-0.0266 -0.06842,-0.0282 -0.09299,-0.004 -0.07297,0.073 -4.851324,13.74297 -4.851324,13.87875 0,0.10048 0.947264,0.12458 4.896,0.12458 4.110906,0 4.896,-0.0214 4.896,-0.13316 z m 16.668825,13.55037 c -0.07587,-0.28316 -0.07619,-34.32611 -3.17e-4,-34.60921 l 0.05788,-0.216 h 5.601426 c 5.463306,0 5.603907,0.005 5.702033,0.18798 0.05533,0.1034 1.913483,5.96467 4.129221,13.02505 2.215737,7.06038 4.063771,12.87221 4.106742,12.91518 0.04297,0.043 1.884205,-5.6779 4.091632,-12.71304 2.207427,-7.03514 4.071835,-12.93157 4.14313,-13.10317 l 0.129626,-0.312 h 5.609703 5.609702 l 0.05788,0.216 c 0.07587,0.2831 0.07556,34.32605 -3.17e-4,34.60921 l -0.0582,0.21722 -3.372486,-0.0252 -3.372485,-0.0252 -0.048,-14.112 c -0.03849,-11.31713 -0.07157,-14.06447 -0.167001,-13.872 -0.06545,0.132 -2.133017,6.4176 -4.594592,13.968 -2.461574,7.5504 -4.515543,13.8036 -4.564376,13.896 -0.08197,0.1551 -0.346289,0.168 -3.442032,0.168 -3.096038,0 -3.359995,-0.0129 -3.441257,-0.168 -0.04841,-0.0924 -2.101846,-6.3456 -4.5632,-13.896 -2.461353,-7.5504 -4.529267,-13.836 -4.595365,-13.968 -0.09699,-0.1937 -0.129438,2.48257 -0.168178,13.872 l -0.048,14.112 -3.372485,0.0252 -3.372486,0.0252 z m 46.463684,-0.001 c -0.0757,-0.28234 -0.0757,-34.32566 0,-34.608 l 0.0579,-0.216 H 116.4 126.69761 l 0.0579,0.216 c 0.0318,0.1188 0.0585,1.32531 0.0592,2.68114 0.001,2.11422 -0.0202,2.48662 -0.14954,2.616 -0.13425,0.13425 -0.88488,0.15086 -6.81701,0.15086 h -6.66616 l 0.025,4.2 0.025,4.2 6.15699,0.0247 6.15699,0.0247 0.0577,0.2153 c 0.0317,0.11841 0.0583,1.32461 0.059,2.68044 0.001,2.11422 -0.0202,2.48662 -0.14954,2.616 -0.13398,0.13397 -0.8325,0.15086 -6.2409,0.15086 h -6.09004 l 0.0249,4.776 0.0249,4.776 6.78097,0.0246 6.78097,0.0246 0.0577,0.21536 c 0.0754,0.28112 0.0752,4.95015 -1.7e-4,5.23136 l -0.0579,0.216 H 116.448 106.1024 Z M 64.656001,123.3589 c -7.675224,-0.4797 -14.620703,-2.31681 -21.408,-5.6625 -9.631461,-4.74769 -17.353883,-11.87334 -22.993252,-21.216401 -1.034145,-1.713327 -2.886928,-5.489177 -3.721415,-7.584 -1.994259,-5.006214 -3.137858,-9.697626 -3.717466,-15.250254 -0.170451,-1.632917 -0.175992,-1.81227 -0.05216,-1.68844 0.05044,0.05044 0.225094,0.717878 0.388123,1.4832 2.484138,11.661479 8.417411,21.580178 17.664172,29.529335 4.202395,3.61267 9.887317,6.95903 15.888,9.35226 9.140837,3.64561 19.455433,4.95905 28.944,3.68567 4.741917,-0.63638 9.196212,-1.76078 13.680001,-3.45327 11.165738,-4.21472 20.700298,-11.75236 27.619018,-21.834501 3.74683,-5.459977 6.35011,-11.292708 8.38729,-18.792 0.17742,-0.653122 0.32969,-0.784352 0.32969,-0.284136 0,0.488379 -0.44885,2.893929 -0.92626,4.964136 -1.64571,7.136402 -4.70918,14.22029 -8.80132,20.352 -3.81706,5.719511 -8.73463,10.932531 -14.17642,15.028141 -2.623279,1.97434 -6.085476,4.16889 -8.543998,5.4157 -6.596082,3.34514 -13.18018,5.21507 -20.640001,5.86189 -1.572579,0.13635 -6.333058,0.19236 -7.92,0.0932 z m -30.24,-6.79901 c -0.1584,-0.0951 -0.8928,-0.535 -1.632,-0.97758 -4.264852,-2.5535 -9.243856,-6.53097 -12.582478,-10.05149 C 13.49531,98.459234 8.7584157,90.473517 5.8608923,81.3546 2.9728203,72.265428 2.2640142,61.999545 3.8926588,52.847999 4.35886,50.22836 5.2026995,46.947297 6.0036315,44.639999 6.9820006,41.821548 8.8439729,37.764247 10.378805,35.106348 18.542965,20.968315 32.422765,11.150099 48.460063,8.1686383 51.920974,7.5252277 54.928281,7.2586659 58.656001,7.2648905 c 7.429217,0.012406 14.678472,1.5102198 21.581905,4.4591735 1.932578,0.825543 4.626096,2.160339 4.626096,2.292501 0,0.133716 -0.142042,0.1193 -0.555084,-0.05633 C 83.108169,13.449644 80.037277,12.478938 77.808001,11.905297 72.552824,10.553026 66.87898,9.9703965 61.920001,10.273808 48.942364,11.067835 37.39383,16.137633 27.786809,25.258256 19.9425,32.705412 14.57161,41.456361 11.576588,51.670046 8.3599175,62.639601 8.3422986,73.474057 11.523155,84.527999 c 2.029017,7.051132 5.518413,13.813046 10.205143,19.776001 3.131153,3.98378 7.506411,8.16618 11.895703,11.37135 1.092001,0.79741 1.382219,1.0642 1.152,1.05903 -0.0396,-8.9e-4 -0.2016,-0.0794 -0.36,-0.17449 z m 57.840001,-8.92894 c 0,-0.0446 0.5724,-0.46218 1.272,-0.92799 8.336828,-5.55087 15.029048,-13.36071 19.056288,-22.23874 2.26157,-4.985638 3.69063,-10.225458 4.35504,-15.968221 0.28607,-2.472699 0.35542,-7.37892 0.13975,-9.888 -0.71909,-8.3662 -2.639,-15.314879 -6.15369,-22.272 C 105.30511,25.211018 96.036984,15.942889 84.912002,10.322614 78.035233,6.8485109 70.931518,4.8724813 62.928001,4.2073579 c -1.892354,-0.157262 -7.000122,-0.156196 -8.88,0.00185 -6.256662,0.5260238 -11.912148,1.8562721 -17.616,4.1435261 -0.6864,0.2752475 -1.302,0.5219047 -1.368,0.5481272 -0.066,0.026223 -0.12,-0.01325 -0.12,-0.087716 0,-0.1465411 3.505813,-1.9058793 5.616,-2.818303 5.512219,-2.3834282 11.828641,-3.9904122 18.336,-4.6649285 1.832427,-0.1899392 2.61396,-0.2182527 5.904,-0.2138911 3.612531,0.00479 3.914675,0.019226 6.384,0.3050394 7.880352,0.9121154 14.970277,3.0638987 21.792001,6.6138444 4.147647,2.1583875 6.837654,3.9019145 10.607998,6.8755685 1.18426,0.934016 3.44137,3.039652 4.83417,4.509732 9.4301,9.953351 14.95283,23.243342 15.3733,36.994564 0.33302,10.891509 -2.91005,22.351903 -8.94064,31.594535 -5.15936,7.907364 -12.12994,14.252631 -20.640094,18.788531 -1.649646,0.87926 -1.954734,1.00928 -1.954734,0.83311 z M 80.592001,94.429132 c -0.658686,-0.16978 -0.738679,-0.21349 -6.861375,-3.749218 -3.32646,-1.92096 -5.467446,-3.213653 -5.540599,-3.345323 -0.164448,-0.295996 -0.155225,-0.850183 0.01827,-1.097885 0.178349,-0.254629 0.738451,-0.449728 1.030195,-0.358846 0.119629,0.03727 2.609289,1.44766 5.532578,3.134209 2.923289,1.686549 5.374889,3.089406 5.448,3.117462 0.112301,0.04309 0.133158,-0.825814 0.134399,-5.599261 8.09e-4,-3.107649 0.03425,-5.701836 0.07432,-5.76486 0.08039,-0.126449 1.70553,-0.200057 1.823093,-0.08257 0.03801,0.03799 0.09072,2.634391 0.117115,5.769786 l 0.048,5.700719 6.912001,-3.988337 c 3.8016,-2.193585 7.013304,-4.082087 7.137121,-4.196671 0.515955,-0.477481 0.494879,-0.09879 0.494879,-8.891567 0,-5.945104 -0.02913,-8.164767 -0.107139,-8.164767 -0.05893,0 -2.284195,1.257243 -4.945039,2.793872 -2.855165,1.648849 -4.89649,2.771389 -4.980861,2.739013 -0.07863,-0.03017 -0.142961,-0.100474 -0.142961,-0.156225 0,-0.05575 -0.178757,-0.384408 -0.397238,-0.730347 -0.334798,-0.530115 -0.376295,-0.648253 -0.264,-0.75159 0.07328,-0.06743 2.220869,-1.323426 4.772418,-2.791092 2.55155,-1.467666 4.729867,-2.741917 4.840705,-2.831668 0.199064,-0.161193 0.194583,-0.167248 -0.36718,-0.49612 -6.134066,-3.591056 -14.003167,-8.0588 -14.132401,-8.023782 -0.172679,0.04679 -14.314397,8.192383 -14.451701,8.324142 -0.116043,0.111356 0.03175,0.201846 5.105698,3.126206 2.553266,1.471568 4.663077,2.729717 4.688468,2.795887 0.02539,0.06617 -0.06071,0.262823 -0.191336,0.437007 -0.130627,0.174183 -0.33188,0.50454 -0.44723,0.734125 -0.148772,0.29611 -0.256587,0.40481 -0.370965,0.37401 -0.08868,-0.02388 -2.342839,-1.30299 -5.009239,-2.842466 l -4.848,-2.799048 -0.048,9.017065 c -0.0264,4.959385 -0.0696,9.037513 -0.096,9.062507 -0.09432,0.0893 -15.537647,8.983996 -16.042902,9.240028 -0.711864,0.360729 -1.912358,0.435151 -2.677098,0.16596 -0.2904,-0.102221 -3.8328,-2.094481 -7.872,-4.427243 -8.008177,-4.62497 -7.95006,-4.585461 -8.340915,-5.670275 -0.188394,-0.522887 -0.194629,-0.789564 -0.222456,-9.513966 l -0.02863,-8.976 0.304476,-0.6427 c 0.167462,-0.353486 0.491462,-0.824261 0.72,-1.046168 0.276161,-0.268148 2.443968,-1.57318 6.463524,-3.891079 6.661338,-3.841296 6.504729,-3.770092 7.063384,-3.211437 0.32922,0.329219 0.371259,0.773763 0.11211,1.185501 -0.11879,0.188735 -1.82666,1.223245 -5.873393,3.557698 -3.138245,1.810369 -5.719527,3.332463 -5.736183,3.38243 -0.01666,0.04997 2.119638,1.331212 4.747319,2.847209 2.627682,1.515997 4.861567,2.817753 4.964189,2.892793 0.180721,0.132146 0.17402,0.155631 -0.213159,0.747094 -0.21986,0.335862 -0.459752,0.694846 -0.533094,0.797742 -0.127176,0.178422 -0.361814,0.05525 -5.068262,-2.660627 l -4.934911,-2.84771 -0.05089,1.556627 c -0.02799,0.856145 -0.0636,4.506351 -0.07914,8.11157 -0.02811,6.521235 -0.0272,6.557115 0.176279,6.977454 0.137169,0.283352 0.352948,0.516922 0.65514,0.709157 0.247832,0.157655 3.451463,2.017886 7.119179,4.133847 5.688177,3.281596 6.681556,3.824007 6.75687,3.689428 0.05305,-0.0948 0.06142,-2.326487 0.02097,-5.591302 -0.03703,-2.98844 -0.0382,-5.509127 -0.0026,-5.601527 0.05527,-0.143449 0.196237,-0.168 0.964627,-0.168 0.890481,0 0.90056,0.0026 0.962934,0.251146 0.03467,0.138131 0.03459,2.676131 -1.66e-4,5.64 -0.03753,3.199852 -0.02766,5.442755 0.0243,5.521546 0.06866,0.10412 1.583308,-0.72987 7.033995,-3.873035 3.82057,-2.203151 7.10849,-4.110275 7.30649,-4.238055 l 0.36,-0.232326 v -8.446638 c 0,-4.645651 -0.01474,-8.446638 -0.03275,-8.446638 -0.01801,0 -2.24093,1.2744 -4.939819,2.832 -2.698889,1.5576 -4.951275,2.832 -5.005301,2.832 -0.05403,0 -0.190442,-0.1836 -0.303146,-0.408 -0.112704,-0.2244 -0.307982,-0.545518 -0.433951,-0.713595 -0.125969,-0.168077 -0.227124,-0.362477 -0.224787,-0.432 0.0023,-0.06952 2.148136,-1.357605 4.768443,-2.862405 2.620308,-1.5048 4.84919,-2.803891 4.953072,-2.886869 0.178704,-0.142745 -0.230541,-0.39311 -7.599294,-4.649056 -7.32105,-4.228395 -7.791383,-4.515877 -7.84177,-4.793131 -0.02948,-0.162219 -0.0408,-4.463744 -0.02515,-9.558944 l 0.02845,-9.264 0.29774,-0.624 c 0.557721,-1.168866 0.430545,-1.082811 8.39026,-5.677322 4.0392,-2.33151 7.549664,-4.319111 7.80103,-4.416893 0.615628,-0.239479 1.736556,-0.238971 2.34994,0.0011 0.251367,0.09837 3.71863,2.061342 7.70503,4.362166 5.155404,2.975534 7.376904,4.308164 7.694475,4.61575 0.501402,0.485636 0.903877,1.253415 1.043791,1.991181 0.05503,0.290177 0.09373,3.106594 0.09373,6.82098 0,6.049161 -0.0081,6.34257 -0.184299,6.687979 -0.376999,0.738978 -1.392553,0.777882 -1.717011,0.06578 -0.08491,-0.186362 -0.11469,-1.770973 -0.11469,-6.1032 0,-4.257231 -0.02931,-5.851483 -0.10759,-5.851483 -0.05917,0 -2.24448,1.2344 -4.856235,2.743111 -2.611754,1.508711 -4.80192,2.722667 -4.867036,2.69768 -0.121706,-0.0467 -0.730313,-1.403842 -0.727653,-1.6226 8.18e-4,-0.06721 2.247218,-1.417213 4.992001,-3.000017 2.744782,-1.582805 4.990513,-2.932192 4.990513,-2.998638 0,-0.169379 0.04295,-0.143589 -7.584,-4.554164 L 65.328001,28.08 h -0.672 -0.672 l -6.96,4.022405 c -3.828,2.212323 -7.0788,4.105264 -7.224,4.206537 -0.1452,0.101272 -0.264,0.237733 -0.264,0.303246 0,0.06551 2.247951,1.412572 4.995446,2.993463 4.720871,2.71636 4.992955,2.88754 4.950117,3.114348 -0.07243,0.383495 -0.625587,1.536 -0.737218,1.536 -0.05596,0 -2.23449,-1.2312 -4.84118,-2.736 -2.606691,-1.5048 -4.785276,-2.736 -4.841301,-2.736 -0.07101,0 -0.101864,2.436353 -0.101864,8.043072 v 8.043072 l 7.176,4.142958 c 3.9468,2.278626 7.2516,4.171866 7.344,4.207198 0.158818,0.06073 0.168,-0.242876 0.168,-5.555172 0,-4.980558 0.01715,-5.636564 0.150857,-5.770271 0.212956,-0.212955 1.501331,-0.212955 1.714286,0 0.133707,0.133707 0.150857,0.789713 0.150857,5.770271 0,5.025218 0.01566,5.613403 0.14813,5.562571 0.08147,-0.03126 3.548271,-2.020378 7.704,-4.420254 4.155729,-2.399877 7.621592,-4.38855 7.701918,-4.419275 0.209065,-0.07997 16.147844,9.126511 16.684995,9.637504 0.23656,0.225041 0.546183,0.672523 0.72,1.040578 l 0.304958,0.645748 v 8.976 8.976 l -0.314323,0.642591 c -0.172877,0.353425 -0.496877,0.81799 -0.72,1.032366 -0.456103,0.438224 -14.736045,8.724306 -15.456977,8.969069 -0.638857,0.216897 -1.303725,0.260547 -1.844701,0.121107 z m -33.6,-16.080735 c -2.3114,-0.665827 -3.462489,-3.106599 -2.467676,-5.232466 0.513359,-1.097023 1.380338,-1.822773 2.549294,-2.134019 1.037664,-0.276289 2.183552,-0.05394 3.138889,0.609066 1.117386,0.775471 1.780799,2.349116 1.540388,3.653871 -0.227438,1.234351 -0.948746,2.257818 -1.949617,2.766321 -1.040146,0.528457 -1.821891,0.622231 -2.811278,0.337227 z m 33.216,-0.01866 c -1.245523,-0.405403 -2.145371,-1.315482 -2.542935,-2.571846 -0.241336,-0.762658 -0.244532,-1.367418 -0.01119,-2.117156 0.868879,-2.791712 4.158838,-3.698406 6.290403,-1.733599 0.45089,0.415617 0.853578,1.092512 1.065541,1.791114 0.430954,1.420368 -0.216032,3.197593 -1.487413,4.085818 -1.010989,0.706308 -2.212927,0.904189 -3.314409,0.545669 z m -16.608,-28.826834 c -1.436569,-0.476115 -2.309038,-1.434245 -2.701702,-2.966962 -0.367592,-1.434854 0.45202,-3.212026 1.851749,-4.015164 0.778225,-0.446532 1.654337,-0.626205 2.416699,-0.495618 1.314729,0.225203 2.360246,1.005169 2.903473,2.166018 0.556935,1.190144 0.559552,2.101917 0.0094,3.277551 -0.349039,0.745879 -1.008944,1.401126 -1.806528,1.793775 -0.540119,0.2659 -0.75398,0.315611 -1.460921,0.339583 -0.505989,0.01716 -0.977564,-0.02143 -1.212176,-0.09918 z"
         id="path8" />
      <path
         style="fill:#4f9b8d"
         d="m 1.92,141.456 v -17.328 h 9.6 9.6 v 2.63929 l 0,2.6393 -6.168,0.0247 -6.1679998,0.0247 -0.025008,4.26095 c -0.017995,3.06605 0.00549,4.2977 0.083755,4.392 0.089705,0.10808 1.1246893,0.13105 5.906551,0.13105 h 5.797788 l -0.02554,2.616 -0.02554,2.616 -5.856,0.048 -5.8559998,0.048 -0.024578,7.608 -0.024578,7.608 H 5.327422 1.92 Z m 18.947532,17.112 c 0.03099,-0.1188 3.054042,-7.9056 6.717894,-17.304 l 6.661548,-17.088 h 3.922534 3.922534 l 6.693396,17.04 c 3.681367,9.372 6.736411,17.1588 6.788985,17.304 l 0.09559,0.264 h -3.774788 -3.774789 l -1.319788,-3.528 c -0.725884,-1.9404 -1.406302,-3.7332 -1.51204,-3.984 l -0.192251,-0.456 h -7.0888 -7.088801 l -0.110843,0.20711 c -0.101957,0.19051 -2.967912,7.65286 -2.967912,7.72782 0,0.0182 -1.581484,0.0331 -3.514408,0.0331 H 20.811186 Z M 43.08349,145.296 c 0.02401,-0.16769 -4.807121,-14.12363 -4.932621,-14.24913 -0.02644,-0.0265 -0.114635,-0.006 -0.195982,0.0452 -0.142797,0.0901 -5.026411,13.85072 -5.026731,14.16391 -8.6e-5,0.0836 0.02903,0.18118 0.06469,0.21685 0.03567,0.0357 2.314466,0.0537 5.064,0.04 4.916463,-0.0244 4.999607,-0.028 5.026642,-0.21685 z m 16.628511,-3.84 v -17.328 l 5.544,3.5e-4 5.544,3.5e-4 4.08,13.01967 c 2.244,7.16082 4.134,13.08987 4.2,13.17565 0.11033,0.14341 0.129671,0.1435 0.24,0.001 0.066,-0.0851 1.956,-6.01389 4.200001,-13.17501 l 4.08,-13.02022 5.544,-9.9e-4 5.544,-9.9e-4 v 17.328 17.328 h -3.264 -3.264 l -0.0015,-14.184 c -9.98e-4,-9.62958 -0.03342,-14.23024 -0.100969,-14.328 -0.08756,-0.12673 -0.112483,-0.12505 -0.207733,0.014 -0.05953,0.0869 -2.186061,6.5237 -4.725628,14.304 l -4.617395,14.146 h -3.305611 -3.305611 l -4.63449,-14.2019 c -2.548969,-7.81104 -4.680074,-14.24748 -4.735789,-14.3032 -0.07107,-0.0711 -0.12832,-0.0586 -0.191832,0.0419 -0.05564,0.088 -0.0911,5.61022 -0.092,14.3272 l -0.0015,14.184 h -3.264 -3.264 z m 46.463999,0 v -17.328 h 10.22555 10.22554 l -0.0255,2.616 -0.0256,2.616 -6.66296,0.0247 c -4.7277,0.0175 -6.70044,0.0558 -6.792,0.13175 -0.17837,0.14804 -0.19169,8.43054 -0.0138,8.60839 0.0872,0.0872 1.60461,0.1152 6.24155,0.1152 h 6.12634 l -0.0255,2.616 -0.0255,2.616 -6.08703,0.0247 c -4.30178,0.0175 -6.12486,0.0561 -6.216,0.13175 -0.17858,0.14821 -0.19188,9.58221 -0.0138,9.76033 0.0874,0.0874 1.74294,0.1152 6.864,0.1152 h 6.7488 v 2.64 2.64 H 116.448 106.176 Z M 64.944001,123.26285 c -6.458357,-0.4034 -12.4553,-1.78022 -18.384,-4.22071 -1.548833,-0.63756 -4.897591,-2.29109 -6.432,-3.17595 -8.016686,-4.62305 -14.810866,-11.31527 -19.681554,-19.386191 -0.985241,-1.632584 -2.960995,-5.632188 -3.746401,-7.584 -1.678603,-4.1715 -2.858913,-8.604564 -3.494294,-13.124029 -0.135164,-0.961416 -0.244438,-1.825416 -0.242833,-1.92 0.0047,-0.274733 0.151913,0.04378 0.231161,0.500029 0.130431,0.75091 0.83932,3.288566 1.367687,4.896 3.330486,10.132222 9.755115,19.123912 18.222234,25.503211 8.432969,6.35357 18.688888,10.38457 29.276945,11.50703 10.734621,1.138 21.557014,-0.6925 31.395056,-5.31016 2.282745,-1.07145 5.623517,-2.97657 7.918718,-4.51575 8.99133,-6.02966 16.34428,-14.852614 20.73965,-24.885937 0.88335,-2.016434 2.14371,-5.44071 2.63035,-7.146394 0.14311,-0.5016 0.32641,-1.143119 0.40734,-1.425598 0.2617,-0.91344 0.31305,-0.384272 0.0824,0.849598 -1.72888,9.250372 -5.66083,18.294661 -11.12252,25.584 -2.51712,3.359421 -6.51344,7.612921 -9.61599,10.234801 -9.521202,8.04611 -20.090434,12.49787 -32.111999,13.52558 -1.607968,0.13747 -5.882716,0.19175 -7.44,0.0945 z M 32.102309,114.97968 C 30.943873,114.29368 28.250967,112.38619 26.64,111.11052 22.481743,107.81775 18.544947,103.78639 15.381091,99.581177 4.8551027,85.590653 0.74379854,66.967839 4.5235054,50.399999 5.9360773,44.208179 8.4054567,38.356363 11.985748,32.716338 15.067246,27.86206 19.473337,23.034089 24.336,19.183556 32.113228,13.025107 41.592649,9.0493276 51.504001,7.7889799 c 2.601417,-0.3308015 4.306177,-0.4328414 7.152,-0.4280894 7.429089,0.012405 14.676846,1.5098747 21.581905,4.4590685 1.834655,0.783592 3.711149,1.702987 3.633762,1.780375 -0.02892,0.02892 -0.886673,-0.230921 -1.906122,-0.577417 -4.320756,-1.468566 -9.324256,-2.4719 -13.940764,-2.795493 -3.449139,-0.241766 -5.878483,-0.168653 -9.752781,0.293517 -11.685662,1.393999 -22.624146,6.798008 -31.525622,15.574806 -2.888296,2.847841 -5.022174,5.395828 -7.369999,8.800252 -8.337476,12.089617 -11.8449671,27.149576 -9.7259764,41.76 2.1275174,14.669216 9.8263814,28.052291 21.4535974,37.293191 2.061003,1.63801 2.110531,1.68913 0.998308,1.03049 z m 61.068946,-7.84895 c 0.03239,-0.0524 0.455314,-0.36118 0.939822,-0.68615 5.196705,-3.48552 9.935543,-8.13883 13.618383,-13.372581 5.20728,-7.40015 8.24769,-15.429612 9.30587,-24.576 0.28607,-2.472699 0.35542,-7.37892 0.13975,-9.888 -0.71909,-8.3662 -2.639,-15.314879 -6.15369,-22.272 C 108.11924,30.591374 104.59746,25.775685 99.81754,21.015808 96.303452,17.516458 92.516771,14.582944 88.176002,11.997193 81.504948,8.0233161 73.621203,5.3664881 65.568001,4.3782795 62.271594,3.9737774 57.117133,3.8551762 54.048001,4.1132111 47.905097,4.6296708 42.162896,5.9660189 36.684009,8.1542287 c -0.547795,0.2187837 -1.016812,0.3769674 -1.04226,0.3515194 -0.02545,-0.025448 0.617148,-0.378599 1.427991,-0.78478 6.855829,-3.4343354 13.940429,-5.4776503 21.826261,-6.2950513 1.832427,-0.1899392 2.61396,-0.2182527 5.904,-0.2138911 3.612531,0.00479 3.914675,0.019226 6.384,0.3050394 7.880352,0.9121154 14.970277,3.0638987 21.792001,6.6138444 4.168379,2.1691765 6.755065,3.8539665 10.703998,6.9718535 2.19575,1.733656 5.03311,4.592407 7.21086,7.265237 1.67432,2.054934 1.94689,2.418927 3.27101,4.368 6.62267,9.748487 10.08247,22.094819 9.48708,33.854774 -0.48763,9.631516 -3.65061,19.38221 -8.89421,27.418674 -1.0393,1.59286 -3.20613,4.50739 -3.97458,5.346091 -0.29252,0.319253 -0.87364,0.96926 -1.2914,1.44446 -1.10008,1.251359 -4.00395,4.039827 -5.61676,5.393541 -1.85307,1.55538 -4.270105,3.29884 -6.383998,4.60492 -2.215566,1.3689 -4.476213,2.5903 -4.316747,2.33227 z M 46.976456,94.200381 C 46.23948,93.949962 31.907518,85.654883 31.473025,85.227277 c -0.199357,-0.196196 -0.482743,-0.584996 -0.629746,-0.864 L 30.576001,83.855999 30.550092,74.8647 c -0.0257,-8.92062 -0.02433,-8.995519 0.174973,-9.5282 0.401006,-1.071784 0.678968,-1.306712 3.411816,-2.883601 3.943492,-2.275445 6.989824,-4.04682 8.387188,-4.876964 1.555826,-0.924282 1.873566,-1.001071 2.315136,-0.559501 0.262205,0.262205 0.296735,0.352151 0.248737,0.647925 -0.03065,0.1889 -0.127541,0.422799 -0.215305,0.519777 -0.08776,0.09698 -0.791611,0.531301 -1.564104,0.965162 -3.08248,1.731235 -9.861178,5.667279 -9.996532,5.804475 -0.128032,0.129775 -0.126947,0.158617 0.0098,0.260093 0.08458,0.06277 2.320183,1.364199 4.968,2.892058 2.647817,1.527858 4.814213,2.819781 4.814213,2.870938 0,0.05116 -0.101597,0.226692 -0.225772,0.390075 -0.124174,0.163384 -0.298083,0.437462 -0.386465,0.609062 -0.08838,0.1716 -0.205567,0.312 -0.260412,0.312 -0.05485,0 -2.278573,-1.257408 -4.941617,-2.79424 -2.880625,-1.662397 -4.900194,-2.771869 -4.985816,-2.739013 -0.12634,0.04848 -0.143918,1.058616 -0.143918,8.270064 0,7.994036 0.0051,8.224839 0.189826,8.586929 0.104405,0.20465 0.309605,0.455684 0.456,0.557853 0.23299,0.162604 10.899662,6.333548 13.231244,7.654614 0.477989,0.270827 0.920789,0.475173 0.984,0.454103 0.08753,-0.02918 0.11493,-1.404014 0.11493,-5.76631 v -5.728 h 0.81526 0.81526 l 0.02474,5.76 c 0.02266,5.275934 0.038,5.759021 0.182581,5.74836 0.169367,-0.01249 14.032863,-7.975922 14.554159,-8.360161 l 0.312,-0.22997 v -8.339263 c 0,-4.586595 -0.02622,-8.407596 -0.05827,-8.491114 -0.03205,-0.08352 -0.09616,-0.151852 -0.142471,-0.151852 -0.04631,0 -1.758888,0.964705 -3.805729,2.14379 -6.543917,3.769628 -6.109699,3.53481 -6.217529,3.36235 -0.0528,-0.08445 -0.260254,-0.41242 -0.46101,-0.72883 -0.200755,-0.31641 -0.351955,-0.58597 -0.336,-0.599023 0.03428,-0.02804 0.58542,-0.34811 5.83701,-3.389757 2.1912,-1.269112 3.994769,-2.365313 4.007931,-2.436003 0.01479,-0.07946 -2.929525,-1.832151 -7.712155,-4.590888 -4.254846,-2.454298 -7.748897,-4.484698 -7.764557,-4.512 -0.01566,-0.0273 -0.04439,-4.304839 -0.06385,-9.505639 l -0.03537,-9.456 0.225871,-0.559946 c 0.147213,-0.364951 0.414662,-0.754742 0.768,-1.119314 0.480398,-0.495672 1.370879,-1.036599 7.820323,-4.750496 4.003007,-2.305122 7.453638,-4.253031 7.66807,-4.328687 0.498226,-0.175785 1.66915,-0.17723 2.163903,-0.0027 0.385963,0.136176 14.474701,8.232336 15.097833,8.676042 0.435879,0.310371 0.903924,0.938029 1.175602,1.576508 l 0.216398,0.508564 0.02777,6.619007 c 0.02059,4.905787 -0.0014,6.689473 -0.08499,6.891254 -0.275728,0.665665 -0.964771,0.842517 -1.438164,0.369124 l -0.280616,-0.280616 v -6.017655 c 0,-5.621175 -0.01074,-6.013535 -0.162988,-5.955111 -0.08964,0.0344 -2.29101,1.291822 -4.891925,2.794271 -2.600915,1.50245 -4.76798,2.731726 -4.815701,2.731726 -0.114291,0 -0.713575,-1.431663 -0.657876,-1.571638 0.02371,-0.0596 2.255772,-1.382762 4.960127,-2.940362 2.704355,-1.5576 4.939966,-2.889597 4.968025,-2.959994 0.02806,-0.0704 -0.03059,-0.20777 -0.130323,-0.305274 -0.09974,-0.0975 -3.378139,-2.027106 -7.285339,-4.288005 l -7.104,-4.110726 h -0.672 -0.672 l -7.133491,4.12598 c -3.92342,2.269289 -7.223668,4.209992 -7.333884,4.312674 l -0.200392,0.186693 0.198347,0.160612 c 0.109091,0.08834 2.366218,1.409233 5.015839,2.935326 2.64962,1.526093 4.83736,2.823833 4.861644,2.883866 0.05457,0.134909 -0.553556,1.570848 -0.665262,1.570848 -0.0755,0 -1.539658,-0.837857 -7.357231,-4.210154 -1.288336,-0.746815 -2.374713,-1.357846 -2.414169,-1.357846 -0.08157,0 -0.144501,4.034873 -0.174433,11.184502 -0.01621,3.871323 0.0054,4.931754 0.103266,5.064872 0.06807,0.0926 3.406966,2.065592 7.419766,4.38442 6.411656,3.705024 7.310351,4.197495 7.414397,4.062971 0.09236,-0.119414 0.104921,-1.362597 0.05712,-5.653153 -0.04895,-4.393457 -0.0366,-5.529807 0.06136,-5.647844 0.170939,-0.205969 1.464234,-0.209681 1.634361,-0.0047 0.09222,0.111113 0.110927,1.386085 0.08376,5.70714 -0.02283,3.630722 -0.0016,5.595595 0.06101,5.654809 0.06164,0.05827 1.367257,-0.647046 3.648,-1.970707 7.024169,-4.076573 11.810654,-6.835472 11.954048,-6.890236 0.192474,-0.07351 16.143928,9.126001 16.639361,9.596239 0.203175,0.192842 0.505575,0.638859 0.672,0.99115 l 0.302592,0.640528 v 8.928 8.928 l -0.224579,0.556494 c -0.44542,1.103725 -0.526207,1.158475 -8.415421,5.703158 -3.96,2.281209 -7.365223,4.216336 -7.567163,4.300281 -0.518395,0.215495 -1.459153,0.283093 -2.096994,0.150677 -0.368347,-0.07647 -0.986165,-0.368314 -1.919509,-0.906741 -10.898593,-6.287174 -10.448335,-6.000826 -10.448335,-6.64475 0,-0.365745 0.402033,-0.711119 0.827779,-0.711119 0.382248,0 0.117324,-0.144889 7.469873,4.085349 2.002909,1.152359 3.730909,2.097775 3.84,2.100925 0.198037,0.0057 0.198387,-0.0032 0.223101,-5.706274 l 0.02475,-5.712 0.815248,-0.0056 0.815247,-0.0056 0.0015,5.621646 c 8.89e-4,3.400452 0.03766,5.678542 0.09307,5.765646 0.07025,0.110435 0.131442,0.11971 0.26253,0.03979 0.09401,-0.05731 3.15173,-1.822005 6.79493,-3.921533 3.6432,-2.099529 6.778379,-3.921629 6.967064,-4.049111 0.188685,-0.127482 0.437085,-0.399074 0.552,-0.603538 l 0.208936,-0.371751 0,-8.213263 c 0,-4.517295 -0.03577,-8.235367 -0.07948,-8.262383 -0.04371,-0.02702 -2.256292,1.207999 -4.916845,2.744475 -2.660553,1.536477 -4.892861,2.798031 -4.960685,2.803454 -0.06782,0.0054 -0.315564,-0.292541 -0.550534,-0.662141 -0.400926,-0.630645 -0.417163,-0.681722 -0.263839,-0.82998 0.08986,-0.08689 2.28018,-1.376452 4.86738,-2.865693 2.5872,-1.489242 4.745348,-2.74686 4.795885,-2.794706 0.05791,-0.05482 0.04016,-0.137799 -0.048,-0.224387 -0.173113,-0.170032 -14.286314,-8.323438 -14.508159,-8.381581 -0.09117,-0.02389 -1.93317,0.979572 -4.272,2.327251 -2.26145,1.303091 -5.54911,3.197221 -7.305913,4.209176 -2.011697,1.158781 -3.184492,1.88852 -3.168,1.971199 0.0144,0.0722 2.186186,1.380866 4.826186,2.908139 2.64,1.527273 4.855734,2.810084 4.923853,2.850693 0.09406,0.05607 0.04339,0.210951 -0.210652,0.643861 -0.183978,0.313515 -0.392211,0.650608 -0.462741,0.749095 -0.12017,0.167804 -0.438048,2.4e-4 -5.053764,-2.664 -2.70904,-1.563687 -4.960319,-2.843067 -5.002841,-2.843067 -0.04252,0 -0.103535,0.06833 -0.135584,0.151852 -0.03205,0.08352 -0.05834,4.155118 -0.05842,9.047999 l -1.53e-4,8.896149 -7.869316,4.540278 c -4.328124,2.497154 -8.068426,4.628355 -8.311784,4.736004 -0.621334,0.274845 -1.67813,0.324212 -2.314138,0.1081 z M 46.848001,78.16163 c -1.043838,-0.346532 -1.742076,-0.960585 -2.198293,-1.933251 -0.219286,-0.467522 -0.249707,-0.65518 -0.249707,-1.54038 0,-0.890883 0.02967,-1.071301 0.255399,-1.552814 0.341303,-0.728064 0.911318,-1.326331 1.6404,-1.721704 0.578795,-0.313874 0.637862,-0.325482 1.656201,-0.325482 0.974162,0 1.100544,0.02187 1.630775,0.282203 0.723433,0.355192 1.35809,0.991527 1.729225,1.733797 0.265735,0.53147 0.287846,0.653927 0.286013,1.584 -0.0019,0.948522 -0.02044,1.043568 -0.31479,1.610791 -0.65042,1.253395 -1.743417,1.953468 -3.134866,2.007908 -0.557695,0.02182 -0.919104,-0.0185 -1.300357,-0.145068 z m 33.080933,-0.06332 c -0.992833,-0.408166 -1.695655,-1.127985 -2.064875,-2.114813 -0.250665,-0.669963 -0.262439,-1.895048 -0.02462,-2.561313 0.538762,-1.509353 2.157849,-2.583223 3.698436,-2.453012 0.987061,0.08343 1.654498,0.397639 2.374903,1.118045 0.720405,0.720405 1.034617,1.387841 1.118044,2.374902 0.130765,1.547134 -1.014268,3.242981 -2.507462,3.713669 -0.772994,0.243665 -1.894758,0.210166 -2.594429,-0.07748 z M 63.626492,49.399537 c -0.636443,-0.182963 -1.219097,-0.545897 -1.681193,-1.047212 -0.505067,-0.547933 -0.762605,-1.05686 -0.946186,-1.869783 -0.130998,-0.580076 -0.131104,-0.722048 -0.001,-1.345986 0.330831,-1.586677 1.449525,-2.683196 3.067441,-3.006637 1.059775,-0.211862 2.561414,0.289042 3.292522,1.098291 0.427266,0.472932 0.865938,1.395444 0.99465,2.091713 0.274894,1.487034 -0.702126,3.217947 -2.208716,3.913017 -0.636396,0.293604 -1.806387,0.371028 -2.517509,0.166597 z"
         id="path7" />
      <path
         style="fill:#5b9c74"
         d="m 1.92,141.456 v -17.328 h 9.6 9.6 v 2.63929 l 0,2.6393 -6.168,0.0247 -6.1679998,0.0247 -0.025008,4.26095 c -0.017995,3.06605 0.00549,4.2977 0.083755,4.392 0.089705,0.10808 1.1246893,0.13105 5.906551,0.13105 h 5.797788 l -0.02554,2.616 -0.02554,2.616 -5.856,0.048 -5.8559998,0.048 -0.024578,7.608 -0.024578,7.608 H 5.327422 1.92 Z m 18.947532,17.112 c 0.03099,-0.1188 3.054042,-7.9056 6.717894,-17.304 l 6.661548,-17.088 h 3.922534 3.922534 l 6.693396,17.04 c 3.681367,9.372 6.736411,17.1588 6.788985,17.304 l 0.09559,0.264 h -3.774788 -3.774789 l -1.319788,-3.528 c -0.725884,-1.9404 -1.406302,-3.7332 -1.51204,-3.984 l -0.192251,-0.456 h -7.0888 -7.088801 l -0.110843,0.20711 c -0.101957,0.19051 -2.967912,7.65286 -2.967912,7.72782 0,0.0182 -1.581484,0.0331 -3.514408,0.0331 H 20.811186 Z M 43.08349,145.296 c 0.02401,-0.16769 -4.807121,-14.12363 -4.932621,-14.24913 -0.02644,-0.0265 -0.114635,-0.006 -0.195982,0.0452 -0.142797,0.0901 -5.026411,13.85072 -5.026731,14.16391 -8.6e-5,0.0836 0.02903,0.18118 0.06469,0.21685 0.03567,0.0357 2.314466,0.0537 5.064,0.04 4.916463,-0.0244 4.999607,-0.028 5.026642,-0.21685 z m 16.628511,-3.84 v -17.328 l 5.544,3.5e-4 5.544,3.5e-4 4.08,13.01967 c 2.244,7.16082 4.134,13.08987 4.2,13.17565 0.11033,0.14341 0.129671,0.1435 0.24,0.001 0.066,-0.0851 1.956,-6.01389 4.200001,-13.17501 l 4.08,-13.02022 5.544,-9.9e-4 5.544,-9.9e-4 v 17.328 17.328 h -3.264 -3.264 l -0.0015,-14.184 c -9.98e-4,-9.62958 -0.03342,-14.23024 -0.100969,-14.328 -0.08756,-0.12673 -0.112483,-0.12505 -0.207733,0.014 -0.05953,0.0869 -2.186061,6.5237 -4.725628,14.304 l -4.617395,14.146 h -3.305611 -3.305611 l -4.63449,-14.2019 c -2.548969,-7.81104 -4.680074,-14.24748 -4.735789,-14.3032 -0.07107,-0.0711 -0.12832,-0.0586 -0.191832,0.0419 -0.05564,0.088 -0.0911,5.61022 -0.092,14.3272 l -0.0015,14.184 h -3.264 -3.264 z m 46.463999,0 v -17.328 h 10.22555 10.22554 l -0.0255,2.616 -0.0256,2.616 -6.66296,0.0247 c -4.7277,0.0175 -6.70044,0.0558 -6.792,0.13175 -0.17837,0.14804 -0.19169,8.43054 -0.0138,8.60839 0.0872,0.0872 1.60461,0.1152 6.24155,0.1152 h 6.12634 l -0.0255,2.616 -0.0255,2.616 -6.08703,0.0247 c -4.30178,0.0175 -6.12486,0.0561 -6.216,0.13175 -0.17858,0.14821 -0.19188,9.58221 -0.0138,9.76033 0.0874,0.0874 1.74294,0.1152 6.864,0.1152 h 6.7488 v 2.64 2.64 H 116.448 106.176 Z M 64.944001,123.2622 c -6.442944,-0.39931 -12.454641,-1.7793 -18.384,-4.22006 -1.548833,-0.63756 -4.897591,-2.29109 -6.432,-3.17595 -8.016686,-4.62305 -14.810866,-11.31527 -19.681554,-19.386191 -0.985241,-1.632584 -2.960995,-5.632188 -3.746401,-7.584 -1.678603,-4.1715 -2.858913,-8.604564 -3.494294,-13.124029 -0.135164,-0.961416 -0.244438,-1.825416 -0.242833,-1.92 0.0047,-0.274733 0.151913,0.04378 0.231161,0.500029 0.130431,0.75091 0.83932,3.288566 1.367687,4.896 3.330486,10.132222 9.755115,19.123912 18.222234,25.503211 5.566247,4.19373 11.995244,7.4069 18.96,9.4761 4.124649,1.22541 9.849373,2.2195 13.695272,2.37816 l 1.551273,0.064 3.141577,3.14266 3.141577,3.14266 -0.37285,0.0595 c -1.313252,0.20969 -6.144648,0.3602 -7.956849,0.24789 z M 32.102309,114.97968 C 30.943873,114.29368 28.250967,112.38619 26.64,111.11052 20.267622,106.06446 14.86793,99.762132 11.020505,92.879999 6.2815556,84.403138 3.6576146,75.148723 3.1813585,65.231999 c -0.096304,-2.00526 0.01903,-6.492191 0.1775986,-6.909257 0.053374,-0.140383 0.097073,-0.43603 0.09711,-0.656992 7.94e-5,-0.475228 0.4568248,-3.818643 0.5319259,-3.893744 0.028491,-0.02849 1.3020083,1.199152 2.8300384,2.728096 l 2.7782367,2.779897 -0.1930016,1.68 c -0.2034424,1.770883 -0.2255097,2.166563 -0.3346245,6 -0.2108048,7.406027 1.1363708,15.15641 3.8713308,22.272 3.699295,9.624515 10.053609,18.271321 18.164028,24.717191 2.061003,1.63801 2.110531,1.68913 0.998308,1.03049 z m 63.280386,-2.07698 -1.815412,-1.8173 0.472359,-0.22184 c 0.878116,-0.41239 3.440831,-1.83407 4.69636,-2.60532 5.059888,-3.1082 9.805088,-7.03548 13.247998,-10.964481 4.55303,-5.195847 7.69982,-10.070188 10.22457,-15.83776 0.80249,-1.833211 2.13493,-5.410708 2.52968,-6.792 0.0868,-0.3036 0.22655,-0.792803 0.31063,-1.087119 0.22302,-0.780618 0.26534,-0.57569 0.0835,0.404251 -0.77328,4.16674 -2.2759,9.140665 -3.91125,12.946868 -3.1077,7.233063 -7.34027,13.455161 -13.02911,19.153471 -1.188,1.18997 -2.7864,2.68809 -3.552,3.32915 -1.58183,1.32451 -4.35591,3.39374 -5.567998,4.15327 -0.4488,0.28122 -1.042136,0.6564 -1.318523,0.83371 -0.276388,0.17732 -0.514414,0.3224 -0.528948,0.3224 -0.01453,0 -0.84336,-0.81779 -1.841836,-1.8173 z m -0.481893,-6.80717 c 0.05016,-0.0442 0.372,-0.28932 0.7152,-0.54459 5.698368,-4.2384 10.589598,-9.573829 14.080228,-15.358941 4.14052,-6.862182 6.51377,-13.818379 7.43477,-21.792 0.28589,-2.475125 0.3543,-7.206535 0.14019,-9.696 -0.72339,-8.410617 -2.6345,-15.304016 -6.20128,-22.368 C 105.384,25.075066 96.172936,15.864004 84.912002,10.17809 77.928593,6.652 70.870634,4.6821461 62.832001,4.0156314 c -1.891349,-0.1568192 -6.809076,-0.1557701 -8.688,0.00185 -5.947912,0.498972 -12.113502,1.9117447 -16.98416,3.891721 -0.338887,0.1377616 -0.635019,0.2316153 -0.658071,0.2085639 -0.06368,-0.063683 1.750478,-0.9537282 3.578166,-1.7554837 5.762934,-2.5280377 12.016675,-4.1451068 18.720065,-4.8405654 1.842107,-0.1911136 2.60885,-0.218476 6,-0.2141192 3.721421,0.00478 3.999053,0.017859 6.48,0.3052355 7.845266,0.9087448 14.97382,3.0664393 21.696001,6.5670176 3.38015,1.760215 5.844645,3.2913055 8.447998,5.2483995 2.11887,1.592881 2.69035,2.060601 4.18773,3.427407 6.33289,5.780673 11.45408,13.402371 14.48772,21.56161 4.92356,13.242333 4.66742,27.644474 -0.72359,40.686728 -1.81141,4.382284 -3.86421,7.979345 -6.76405,11.852481 -1.63272,2.180718 -3.02812,3.756978 -5.28291,5.967641 -3.24439,3.180899 -6.15173,5.474599 -9.64672,7.610639 -2.305333,1.40896 -3.14046,1.87759 -2.781378,1.56077 z M 80.61451,94.173164 c -0.19882,-0.04993 -0.54442,-0.183302 -0.768,-0.296378 -0.602022,-0.304476 -3.743457,-2.113641 -3.910509,-2.252078 -0.0792,-0.06563 -1.0944,-0.665866 -2.256,-1.333849 l -2.112,-1.214516 -1.410789,-1.40377 c -0.775935,-0.772073 -1.388985,-1.439051 -1.362335,-1.482172 0.105561,-0.1708 0.398928,-0.04399 1.892216,0.817924 0.8541,0.49298 1.617708,0.920552 1.696908,0.950161 0.0792,0.02961 1.871173,1.051862 3.982162,2.271674 2.110988,1.219811 3.936188,2.217839 4.056,2.217839 h 0.217838 l 4.3e-5,-5.784 4.2e-5,-5.784 0.719958,-0.0039 0.719957,-0.0039 v 5.680187 c 0,4.78105 0.02151,5.698038 0.135879,5.792957 0.109076,0.09052 0.644024,-0.184791 2.712,-1.395753 1.416867,-0.829687 4.001722,-2.336476 5.744122,-3.348421 6.633584,-3.852628 6.002652,-3.44748 6.276727,-4.03055 0.202047,-0.429835 0.203273,-0.481687 0.203273,-8.596503 0,-7.196616 -0.0172,-8.170658 -0.14513,-8.21975 -0.08509,-0.03265 -0.889243,0.372934 -1.944,0.980496 -5.987127,3.448713 -7.925611,4.553221 -7.991198,4.553221 -0.08138,0 -0.900685,-1.340819 -0.848325,-1.388314 0.0553,-0.05016 2.65195,-1.559975 6.272653,-3.647211 1.9008,-1.095759 3.497348,-2.03134 3.547885,-2.079068 0.05788,-0.05466 0.04012,-0.137633 -0.048,-0.224195 -0.117705,-0.115627 -13.62117,-7.951928 -14.425222,-8.371212 -0.248056,-0.129352 -0.301152,-0.122485 -0.672,0.08691 -0.221465,0.125049 -1.720264,0.984454 -3.330664,1.90979 -1.6104,0.925337 -3.143679,1.80237 -3.407287,1.948964 -1.181269,0.656909 -7.045101,4.030052 -7.368713,4.238819 -0.198,0.127732 -0.36,0.270366 -0.36,0.316965 0,0.0466 2.1924,1.348632 4.872,2.893409 2.6796,1.544776 4.921775,2.84702 4.982611,2.893875 0.07954,0.06126 0.01955,0.239122 -0.213591,0.633229 -0.17831,0.301421 -0.358792,0.607129 -0.401071,0.679352 -0.05864,0.100165 -1.245324,-0.543131 -5.002825,-2.712 -2.709276,-1.563823 -4.98193,-2.843314 -5.050343,-2.843314 -0.06841,0 -0.150436,0.0972 -0.182273,0.216 -0.03184,0.1188 -0.05848,3.778919 -0.0592,8.133597 l -0.0013,7.917598 -0.72,-0.715195 -0.72,-0.715195 v -7.266551 c 0,-3.996603 -0.02622,-7.334884 -0.05827,-7.418402 -0.03205,-0.08352 -0.131712,-0.151852 -0.221473,-0.151852 -0.08976,0 -1.28394,0.639818 -2.653729,1.421817 -3.083599,1.760396 -4.880047,2.77078 -5.754527,3.236542 -0.3696,0.196854 -0.728141,0.402722 -0.796759,0.457483 -0.09319,0.07438 -0.244997,-0.01887 -0.6,-0.368529 -0.261382,-0.257453 -0.475241,-0.493303 -0.475241,-0.524112 0,-0.03081 0.21279,-0.183633 0.472866,-0.339609 1.242327,-0.745061 3.576591,-2.122636 6.151134,-3.630114 1.907308,-1.116791 2.832,-1.710221 2.832,-1.817465 0,-0.109794 -2.056761,-1.347791 -6.624,-3.98709 -3.6432,-2.105318 -7.1424,-4.131064 -7.776,-4.501657 l -1.152,-0.673806 -0.07415,-7.23673 c -0.04078,-3.980201 -0.06192,-8.25193 -0.04699,-9.49273 l 0.02716,-2.256 0.305361,-0.624 c 0.167949,-0.3432 0.491493,-0.804862 0.718986,-1.025916 0.227494,-0.221054 1.212825,-0.864837 2.189625,-1.430629 9.574377,-5.545768 12.77703,-7.37817 13.104,-7.497471 0.499404,-0.182216 1.806493,-0.181761 2.304,8.03e-4 0.2112,0.0775 3.6456,2.022053 7.632,4.321227 5.092112,2.936899 7.378796,4.306943 7.68773,4.606028 0.494954,0.479176 0.819834,1.095623 0.956103,1.814169 0.05313,0.280149 0.09217,3.206781 0.09217,6.90966 0,6.797819 -0.0039,6.860567 -0.436301,7.026496 -0.271244,0.104086 -0.768375,0.06448 -0.96135,-0.07659 -0.18017,-0.131711 -0.18794,-0.337823 -0.234349,-6.216 -0.04766,-6.037447 -0.04936,-6.079734 -0.243391,-6.074363 -0.107465,0.003 -2.30385,1.223374 -4.880854,2.712 -2.577005,1.488625 -4.737893,2.706591 -4.801974,2.706591 -0.06408,0 -0.251579,-0.323593 -0.416663,-0.719096 l -0.300154,-0.719097 0.201516,-0.141147 c 0.110833,-0.07763 2.359005,-1.384837 4.995938,-2.904903 2.636932,-1.520066 4.817336,-2.821354 4.845341,-2.891751 0.02801,-0.0704 -0.03068,-0.207807 -0.13042,-0.305354 -0.09974,-0.09755 -3.421339,-2.048751 -7.381339,-4.336006 l -7.2,-4.158645 h -0.576 -0.576 l -5.232,3.016349 c -2.8776,1.658992 -6.1824,3.564438 -7.344,4.234324 -1.824091,1.05194 -2.112,1.249284 -2.112,1.447651 0,0.26324 -0.255782,0.105413 5.950635,3.671749 2.707429,1.555746 3.985341,2.340714 3.985289,2.448 -1e-4,0.208961 -0.546015,1.357926 -0.6452,1.357926 -0.04259,0 -0.660021,-0.33815 -1.372077,-0.751444 -6.770056,-3.929505 -8.372365,-4.832562 -8.442293,-4.758058 -0.04414,0.04703 -0.11129,3.74026 -0.149226,8.207187 l -0.06898,8.121684 0.274924,0.19081 c 0.238131,0.165274 6.304059,3.663929 12.741435,7.348896 1.38839,0.794761 2.033177,1.115637 2.102509,1.046305 0.06687,-0.06687 0.103143,-1.986187 0.109489,-5.792689 l 0.0095,-5.692691 h 0.768 0.768 l 0.02477,5.70797 c 0.01362,3.139383 0.06249,5.745689 0.108592,5.791792 0.0834,0.0834 0.981268,-0.426666 9.418638,-5.350522 5.252756,-3.065387 6.253607,-3.624075 6.416143,-3.581571 0.09251,0.02419 3.751135,2.112371 8.130268,4.640394 5.191483,2.996985 8.091239,4.725587 8.333296,4.967643 0.20418,0.204181 0.485775,0.615375 0.625765,0.913766 l 0.254529,0.542528 v 9.024 9.024 l -0.256338,0.546864 c -0.313955,0.669784 -0.904209,1.275237 -1.665291,1.708172 -0.315904,0.1797 -2.107971,1.209573 -3.982371,2.288608 -1.8744,1.079034 -3.625554,2.080209 -3.891454,2.224831 -0.265899,0.144623 -1.713099,0.967438 -3.216,1.828477 -1.5029,0.86104 -2.94079,1.645149 -3.195311,1.742466 -0.564101,0.215686 -1.427143,0.292197 -1.914727,0.169747 z M 40.416001,90.335999 c -0.2376,-0.1501 -0.482008,-0.276304 -0.543129,-0.280454 -0.06112,-0.0042 -1.65018,-0.891391 -3.531243,-1.971645 C 34.460566,87.003646 32.66071,85.980794 32.341949,85.810895 31.630955,85.43194 31.077698,84.821411 30.819202,84.130519 30.650741,83.680268 30.624001,83.382761 30.624001,81.9588 v -1.649996 l 0.72,0.715195 0.72,0.715195 v 0.750227 c 0,1.265536 0.189833,1.501506 2.064,2.565638 2.599324,1.475868 2.85146,1.665199 4.890489,3.672291 1.059031,1.042443 1.903911,1.892248 1.877511,1.888454 -0.0264,-0.0038 -0.2424,-0.129706 -0.48,-0.279805 z M 80.33258,78.150642 c -1.454731,-0.465135 -2.272894,-1.387242 -2.595493,-2.92524 -0.193385,-0.921971 0.143409,-2.098842 0.830289,-2.901307 1.402058,-1.637989 3.861253,-1.713301 5.350301,-0.16385 0.485572,0.505268 0.696688,0.867751 0.904838,1.553591 0.562933,1.85483 -0.673561,3.984032 -2.59376,4.46637 -0.783903,0.196911 -1.208572,0.190289 -1.896175,-0.02956 z M 41.607482,59.121502 c -0.386589,-0.397286 -0.445554,-0.500857 -0.327481,-0.575222 1.188886,-0.748797 2.220925,-1.365883 2.55409,-1.527165 0.364191,-0.176302 0.44741,-0.185364 0.679649,-0.07401 0.648186,0.310798 0.567626,0.996335 -0.167384,1.42438 -0.234495,0.136562 -0.840589,0.470651 -1.346874,0.742419 l -0.920519,0.494124 z M 63.3742,49.236116 c -0.509854,-0.161449 -0.716143,-0.29944 -1.258618,-0.841915 -0.537795,-0.537795 -0.683506,-0.754343 -0.851537,-1.26551 -0.292875,-0.890952 -0.338933,-1.329852 -0.206712,-1.969825 0.329611,-1.595379 1.431684,-2.674454 3.007051,-2.944303 2.019761,-0.34597 3.812819,0.956375 4.199944,3.050531 0.313145,1.693957 -0.823357,3.544257 -2.483942,4.04402 -0.62306,0.187513 -1.685263,0.155289 -2.406186,-0.073 z M 15.899661,33.419666 13.416706,30.935333 13.812353,30.399766 C 14.029959,30.105203 14.208,29.836717 14.208,29.803129 c 0,-0.03359 0.409322,-0.581173 0.909605,-1.216856 3.921482,-4.982825 8.08624,-8.822228 13.250396,-12.21526 6.091568,-4.002375 12.719945,-6.6576869 19.996062,-8.0103747 3.488872,-0.6486089 6.471462,-0.9107537 10.291938,-0.9045758 7.527439,0.012172 14.735477,1.4950817 21.677905,4.4597945 1.694603,0.723667 3.311473,1.511146 3.119431,1.519284 -0.06307,0.0027 -0.797465,-0.234026 -1.632,-0.525996 -2.536758,-0.88751 -6.303623,-1.802835 -9.245336,-2.246561 -4.010026,-0.60487 -7.252022,-0.7831722 -10.56,-0.580776 -8.339295,0.510233 -15.957093,2.739456 -23.166327,6.779243 -2.921297,1.636987 -4.772192,2.890644 -7.697673,5.21383 -2.399656,1.905616 -5.109431,4.480093 -7.28064,6.917119 -0.635052,0.7128 -1.179914,1.3176 -1.210805,1.344 -0.290048,0.247882 -2.368702,2.939352 -3.07689,3.984 -0.178972,0.263999 -0.375699,0.523199 -0.437173,0.575999 -0.06147,0.0528 -0.249458,0.3012 -0.417743,0.552 -0.168285,0.2508 -0.31501,0.456 -0.326054,0.456 -0.01104,0 -1.13741,-1.117949 -2.503035,-2.484333 z"
         id="path6" />
      <path
         style="fill:#6c6d70"
         d="m 1.92,141.456 v -17.328 h 9.6 9.6 v 2.63929 l 0,2.6393 -6.168,0.0247 -6.1679998,0.0247 -0.025008,4.26095 c -0.017995,3.06605 0.00549,4.2977 0.083755,4.392 0.089705,0.10808 1.1246893,0.13105 5.906551,0.13105 h 5.797788 l -0.02554,2.616 -0.02554,2.616 -5.856,0.048 -5.8559998,0.048 -0.024578,7.608 -0.024578,7.608 H 5.327422 1.92 Z m 18.947532,17.112 c 0.03099,-0.1188 3.054042,-7.9056 6.717894,-17.304 l 6.661548,-17.088 h 3.922534 3.922534 l 6.693396,17.04 c 3.681367,9.372 6.736411,17.1588 6.788985,17.304 l 0.09559,0.264 h -3.774788 -3.774789 l -1.319788,-3.528 c -0.725884,-1.9404 -1.406302,-3.7332 -1.51204,-3.984 l -0.192251,-0.456 h -7.0888 -7.088801 l -0.110843,0.20711 c -0.101957,0.19051 -2.967912,7.65286 -2.967912,7.72782 0,0.0182 -1.581484,0.0331 -3.514408,0.0331 H 20.811186 Z M 43.08349,145.296 c 0.02401,-0.16769 -4.807121,-14.12363 -4.932621,-14.24913 -0.02644,-0.0265 -0.114635,-0.006 -0.195982,0.0452 -0.142797,0.0901 -5.026411,13.85072 -5.026731,14.16391 -8.6e-5,0.0836 0.02903,0.18118 0.06469,0.21685 0.03567,0.0357 2.314466,0.0537 5.064,0.04 4.916463,-0.0244 4.999607,-0.028 5.026642,-0.21685 z m 16.628511,-3.84 v -17.328 l 5.544,3.5e-4 5.544,3.5e-4 4.08,13.01967 c 2.244,7.16082 4.134,13.08987 4.2,13.17565 0.11033,0.14341 0.129671,0.1435 0.24,0.001 0.066,-0.0851 1.956,-6.01389 4.200001,-13.17501 l 4.08,-13.02022 5.544,-9.9e-4 5.544,-9.9e-4 v 17.328 17.328 h -3.264 -3.264 l -0.0015,-14.184 c -9.98e-4,-9.62958 -0.03342,-14.23024 -0.100969,-14.328 -0.08756,-0.12673 -0.112483,-0.12505 -0.207733,0.014 -0.05953,0.0869 -2.186061,6.5237 -4.725628,14.304 l -4.617395,14.146 h -3.305611 -3.305611 l -4.63449,-14.2019 c -2.548969,-7.81104 -4.680074,-14.24748 -4.735789,-14.3032 -0.07107,-0.0711 -0.12832,-0.0586 -0.191832,0.0419 -0.05564,0.088 -0.0911,5.61022 -0.092,14.3272 l -0.0015,14.184 h -3.264 -3.264 z m 46.463999,0 v -17.328 h 10.22555 10.22554 l -0.0255,2.616 -0.0256,2.616 -6.66296,0.0247 c -4.7277,0.0175 -6.70044,0.0558 -6.792,0.13175 -0.17837,0.14804 -0.19169,8.43054 -0.0138,8.60839 0.0872,0.0872 1.60461,0.1152 6.24155,0.1152 h 6.12634 l -0.0255,2.616 -0.0255,2.616 -6.08703,0.0247 c -4.30178,0.0175 -6.12486,0.0561 -6.216,0.13175 -0.17858,0.14821 -0.19188,9.58221 -0.0138,9.76033 0.0874,0.0874 1.74294,0.1152 6.864,0.1152 h 6.7488 v 2.64 2.64 h -10.272 -10.272 z m -10.793305,-28.5533 -1.815412,-1.8173 0.472359,-0.22184 c 0.878116,-0.41239 3.440831,-1.83407 4.69636,-2.60532 5.059888,-3.1082 9.805088,-7.03548 13.247998,-10.964481 4.55303,-5.195847 7.69982,-10.070188 10.22457,-15.83776 0.80249,-1.833211 2.13493,-5.410708 2.52968,-6.792 0.0868,-0.3036 0.22655,-0.792803 0.31063,-1.087119 0.22302,-0.780618 0.26534,-0.57569 0.0835,0.404251 -0.77328,4.16674 -2.2759,9.140665 -3.91125,12.946868 -3.1077,7.233063 -7.34027,13.455161 -13.02911,19.153471 -1.188,1.18997 -2.7864,2.68809 -3.552,3.32915 -1.58183,1.32451 -4.35591,3.39374 -5.567998,4.15327 -0.4488,0.28122 -1.042136,0.6564 -1.318523,0.83371 -0.276388,0.17732 -0.514414,0.3224 -0.528948,0.3224 -0.01453,0 -0.84336,-0.81779 -1.841836,-1.8173 z m -0.481893,-6.80717 c 0.05016,-0.0442 0.372,-0.28932 0.7152,-0.54459 5.698368,-4.2384 10.589598,-9.573829 14.080228,-15.358941 4.14052,-6.862182 6.51377,-13.818379 7.43477,-21.792 0.28589,-2.475125 0.3543,-7.206535 0.14019,-9.696 -0.72339,-8.410617 -2.6345,-15.304016 -6.20128,-22.368 C 105.384,25.075066 96.172936,15.864004 84.912002,10.17809 77.928593,6.652 70.870634,4.6821461 62.832001,4.0156314 c -1.891349,-0.1568192 -6.809076,-0.1557701 -8.688,0.00185 -5.947912,0.498972 -12.113502,1.9117447 -16.98416,3.891721 -0.338887,0.1377616 -0.635019,0.2316153 -0.658071,0.2085639 -0.06368,-0.063683 1.750478,-0.9537282 3.578166,-1.7554837 5.762934,-2.5280377 12.016675,-4.1451068 18.720065,-4.8405654 1.842107,-0.1911136 2.60885,-0.218476 6,-0.2141192 3.721421,0.00478 3.999053,0.017859 6.48,0.3052355 7.845266,0.9087448 14.97382,3.0664393 21.696001,6.5670176 3.38015,1.760215 5.844645,3.2913055 8.447998,5.2483995 2.11887,1.592881 2.69035,2.060601 4.18773,3.427407 6.33289,5.780673 11.45408,13.402371 14.48772,21.56161 4.92356,13.242333 4.66742,27.644474 -0.72359,40.686728 -1.81141,4.382284 -3.86421,7.979345 -6.76405,11.852481 -1.63272,2.180718 -3.02812,3.756978 -5.28291,5.967641 -3.24439,3.180899 -6.15173,5.474599 -9.64672,7.610639 -2.305333,1.40896 -3.14046,1.87759 -2.781378,1.56077 z M 80.61451,94.173164 c -0.19882,-0.04993 -0.54442,-0.183302 -0.768,-0.296378 -0.602022,-0.304476 -3.743457,-2.113641 -3.910509,-2.252078 -0.0792,-0.06563 -1.0944,-0.665866 -2.256,-1.333849 l -2.112,-1.214516 -1.410789,-1.40377 c -0.775935,-0.772073 -1.388985,-1.439051 -1.362335,-1.482172 0.105561,-0.1708 0.398928,-0.04399 1.892216,0.817924 0.8541,0.49298 1.617708,0.920552 1.696908,0.950161 0.0792,0.02961 1.871173,1.051862 3.982162,2.271674 2.110988,1.219811 3.936188,2.217839 4.056,2.217839 h 0.217838 l 4.3e-5,-5.784 4.2e-5,-5.784 0.719958,-0.0039 0.719957,-0.0039 v 5.680187 c 0,4.78105 0.02151,5.698038 0.135879,5.792957 0.109076,0.09052 0.644024,-0.184791 2.712,-1.395753 1.416867,-0.829687 4.001722,-2.336476 5.744122,-3.348421 6.633584,-3.852628 6.002652,-3.44748 6.276727,-4.03055 0.202047,-0.429835 0.203273,-0.481687 0.203273,-8.596503 0,-7.196616 -0.0172,-8.170658 -0.14513,-8.21975 -0.08509,-0.03265 -0.889243,0.372934 -1.944,0.980496 -5.987127,3.448713 -7.925611,4.553221 -7.991198,4.553221 -0.08138,0 -0.900685,-1.340819 -0.848325,-1.388314 0.0553,-0.05016 2.65195,-1.559975 6.272653,-3.647211 1.9008,-1.095759 3.497348,-2.03134 3.547885,-2.079068 0.05788,-0.05466 0.04012,-0.137633 -0.048,-0.224195 -0.117705,-0.115627 -13.62117,-7.951928 -14.425222,-8.371212 -0.248056,-0.129352 -0.301152,-0.122485 -0.672,0.08691 -0.221465,0.125049 -1.720264,0.984454 -3.330664,1.90979 -1.6104,0.925337 -3.143679,1.80237 -3.407287,1.948964 -1.181269,0.656909 -7.045101,4.030052 -7.368713,4.238819 -0.198,0.127732 -0.36,0.270366 -0.36,0.316965 0,0.0466 2.1924,1.348632 4.872,2.893409 2.6796,1.544776 4.921775,2.84702 4.982611,2.893875 0.07954,0.06126 0.01955,0.239122 -0.213591,0.633229 -0.17831,0.301421 -0.358792,0.607129 -0.401071,0.679352 -0.05864,0.100165 -1.245324,-0.543131 -5.002825,-2.712 -2.709276,-1.563823 -4.98193,-2.843314 -5.050343,-2.843314 -0.06841,0 -0.150436,0.0972 -0.182273,0.216 -0.03184,0.1188 -0.05848,3.778919 -0.0592,8.133597 l -0.0013,7.917598 -0.72,-0.715195 -0.72,-0.715195 v -7.266551 c 0,-3.996603 -0.02622,-7.334884 -0.05827,-7.418402 -0.03205,-0.08352 -0.131712,-0.151852 -0.221473,-0.151852 -0.08976,0 -1.28394,0.639818 -2.653729,1.421817 -3.083599,1.760396 -4.880047,2.77078 -5.754527,3.236542 -0.3696,0.196854 -0.728141,0.402722 -0.796759,0.457483 -0.09319,0.07438 -0.244997,-0.01887 -0.6,-0.368529 -0.261382,-0.257453 -0.475241,-0.493303 -0.475241,-0.524112 0,-0.03081 0.21279,-0.183633 0.472866,-0.339609 1.242327,-0.745061 3.576591,-2.122636 6.151134,-3.630114 1.907308,-1.116791 2.832,-1.710221 2.832,-1.817465 0,-0.109794 -2.056761,-1.347791 -6.624,-3.98709 -3.6432,-2.105318 -7.1424,-4.131064 -7.776,-4.501657 l -1.152,-0.673806 -0.07415,-7.23673 c -0.04078,-3.980201 -0.06192,-8.25193 -0.04699,-9.49273 l 0.02716,-2.256 0.305361,-0.624 c 0.167949,-0.3432 0.491493,-0.804862 0.718986,-1.025916 0.227494,-0.221054 1.212825,-0.864837 2.189625,-1.430629 9.574377,-5.545768 12.77703,-7.37817 13.104,-7.497471 0.499404,-0.182216 1.806493,-0.181761 2.304,8.03e-4 0.2112,0.0775 3.6456,2.022053 7.632,4.321227 5.092112,2.936899 7.378796,4.306943 7.68773,4.606028 0.494954,0.479176 0.819834,1.095623 0.956103,1.814169 0.05313,0.280149 0.09217,3.206781 0.09217,6.90966 0,6.797819 -0.0039,6.860567 -0.436301,7.026496 -0.271244,0.104086 -0.768375,0.06448 -0.96135,-0.07659 -0.18017,-0.131711 -0.18794,-0.337823 -0.234349,-6.216 -0.04766,-6.037447 -0.04936,-6.079734 -0.243391,-6.074363 -0.107465,0.003 -2.30385,1.223374 -4.880854,2.712 -2.577005,1.488625 -4.737893,2.706591 -4.801974,2.706591 -0.06408,0 -0.251579,-0.323593 -0.416663,-0.719096 l -0.300154,-0.719097 0.201516,-0.141147 c 0.110833,-0.07763 2.359005,-1.384837 4.995938,-2.904903 2.636932,-1.520066 4.817336,-2.821354 4.845341,-2.891751 0.02801,-0.0704 -0.03068,-0.207807 -0.13042,-0.305354 -0.09974,-0.09755 -3.421339,-2.048751 -7.381339,-4.336006 l -7.2,-4.158645 h -0.576 -0.576 l -5.232,3.016349 c -2.8776,1.658992 -6.1824,3.564438 -7.344,4.234324 -1.824091,1.05194 -2.112,1.249284 -2.112,1.447651 0,0.26324 -0.255782,0.105413 5.950635,3.671749 2.707429,1.555746 3.985341,2.340714 3.985289,2.448 -1e-4,0.208961 -0.546015,1.357926 -0.6452,1.357926 -0.04259,0 -0.660021,-0.33815 -1.372077,-0.751444 -6.770056,-3.929505 -8.372365,-4.832562 -8.442293,-4.758058 -0.04414,0.04703 -0.11129,3.74026 -0.149226,8.207187 l -0.06898,8.121684 0.274924,0.19081 c 0.238131,0.165274 6.304059,3.663929 12.741435,7.348896 1.38839,0.794761 2.033177,1.115637 2.102509,1.046305 0.06687,-0.06687 0.103143,-1.986187 0.109489,-5.792689 l 0.0095,-5.692691 h 0.768 0.768 l 0.02477,5.70797 c 0.01362,3.139383 0.06249,5.745689 0.108592,5.791792 0.0834,0.0834 0.981268,-0.426666 9.418638,-5.350522 5.252756,-3.065387 6.253607,-3.624075 6.416143,-3.581571 0.09251,0.02419 3.751135,2.112371 8.130268,4.640394 5.191483,2.996985 8.091239,4.725587 8.333296,4.967643 0.20418,0.204181 0.485775,0.615375 0.625765,0.913766 l 0.254529,0.542528 v 9.024 9.024 l -0.256338,0.546864 c -0.313955,0.669784 -0.904209,1.275237 -1.665291,1.708172 -0.315904,0.1797 -2.107971,1.209573 -3.982371,2.288608 -1.8744,1.079034 -3.625554,2.080209 -3.891454,2.224831 -0.265899,0.144623 -1.713099,0.967438 -3.216,1.828477 -1.5029,0.86104 -2.94079,1.645149 -3.195311,1.742466 -0.564101,0.215686 -1.427143,0.292197 -1.914727,0.169747 z M 80.33258,78.150642 c -1.454731,-0.465135 -2.272894,-1.387242 -2.595493,-2.92524 -0.193385,-0.921971 0.143409,-2.098842 0.830289,-2.901307 1.402058,-1.637989 3.861253,-1.713301 5.350301,-0.16385 0.485572,0.505268 0.696688,0.867751 0.904838,1.553591 0.562933,1.85483 -0.673561,3.984032 -2.59376,4.46637 -0.783903,0.196911 -1.208572,0.190289 -1.896175,-0.02956 z M 41.607482,59.121502 c -0.386589,-0.397286 -0.445554,-0.500857 -0.327481,-0.575222 1.188886,-0.748797 2.220925,-1.365883 2.55409,-1.527165 0.364191,-0.176302 0.44741,-0.185364 0.679649,-0.07401 0.648186,0.310798 0.567626,0.996335 -0.167384,1.42438 -0.234495,0.136562 -0.840589,0.470651 -1.346874,0.742419 l -0.920519,0.494124 z M 63.3742,49.236116 c -0.509854,-0.161449 -0.716143,-0.29944 -1.258618,-0.841915 -0.537795,-0.537795 -0.683506,-0.754343 -0.851537,-1.26551 -0.292875,-0.890952 -0.338933,-1.329852 -0.206712,-1.969825 0.329611,-1.595379 1.431684,-2.674454 3.007051,-2.944303 2.019761,-0.34597 3.812819,0.956375 4.199944,3.050531 0.313145,1.693957 -0.823357,3.544257 -2.483942,4.04402 -0.62306,0.187513 -1.685263,0.155289 -2.406186,-0.073 z M 15.899661,33.419666 13.416706,30.935333 13.812353,30.399766 C 14.029959,30.105203 14.208,29.836717 14.208,29.803129 c 0,-0.03359 0.409322,-0.581173 0.909605,-1.216856 3.921482,-4.982825 8.08624,-8.822228 13.250396,-12.21526 6.091568,-4.002375 12.719945,-6.6576869 19.996062,-8.0103747 3.488872,-0.6486089 6.471462,-0.9107537 10.291938,-0.9045758 7.527439,0.012172 14.735477,1.4950817 21.677905,4.4597945 1.694603,0.723667 3.311473,1.511146 3.119431,1.519284 -0.06307,0.0027 -0.797465,-0.234026 -1.632,-0.525996 -2.536758,-0.88751 -6.303623,-1.802835 -9.245336,-2.246561 -4.010026,-0.60487 -7.252022,-0.7831722 -10.56,-0.580776 -8.339295,0.510233 -15.957093,2.739456 -23.166327,6.779243 -2.921297,1.636987 -4.772192,2.890644 -7.697673,5.21383 -2.399656,1.905616 -5.109431,4.480093 -7.28064,6.917119 -0.635052,0.7128 -1.179914,1.3176 -1.210805,1.344 -0.290048,0.247882 -2.368702,2.939352 -3.07689,3.984 -0.178972,0.263999 -0.375699,0.523199 -0.437173,0.575999 -0.06147,0.0528 -0.249458,0.3012 -0.417743,0.552 -0.168285,0.2508 -0.31501,0.456 -0.326054,0.456 -0.01104,0 -1.13741,-1.117949 -2.503035,-2.484333 z"
         id="path5" />
      <path
         style="fill:#158b9f"
         d="m 95.382695,112.9027 -1.815412,-1.8173 0.472359,-0.22184 c 0.878116,-0.41239 3.440831,-1.83407 4.69636,-2.60532 5.059888,-3.1082 9.805088,-7.03548 13.247998,-10.964481 4.55303,-5.195847 7.69982,-10.070188 10.22457,-15.83776 0.80249,-1.833211 2.13493,-5.410708 2.52968,-6.792 0.0868,-0.3036 0.22655,-0.792803 0.31063,-1.087119 0.22302,-0.780618 0.26534,-0.57569 0.0835,0.404251 -0.77328,4.16674 -2.2759,9.140665 -3.91125,12.946868 -3.1077,7.233063 -7.34027,13.455161 -13.02911,19.153471 -1.188,1.18997 -2.7864,2.68809 -3.552,3.32915 -1.58183,1.32451 -4.35591,3.39374 -5.567998,4.15327 -0.4488,0.28122 -1.042136,0.6564 -1.318523,0.83371 -0.276388,0.17732 -0.514414,0.3224 -0.528948,0.3224 -0.01453,0 -0.84336,-0.81779 -1.841836,-1.8173 z m -0.481893,-6.80717 c 0.05016,-0.0442 0.372,-0.28932 0.7152,-0.54459 5.698368,-4.2384 10.589598,-9.573829 14.080228,-15.358941 4.14052,-6.862182 6.51377,-13.818379 7.43477,-21.792 0.28589,-2.475125 0.3543,-7.206535 0.14019,-9.696 -0.72339,-8.410617 -2.6345,-15.304016 -6.20128,-22.368 C 105.384,25.075066 96.172936,15.864004 84.912002,10.17809 77.928593,6.652 70.870634,4.6821461 62.832001,4.0156314 c -1.891349,-0.1568192 -6.809076,-0.1557701 -8.688,0.00185 -5.947912,0.498972 -12.113502,1.9117447 -16.98416,3.891721 -0.338887,0.1377616 -0.635019,0.2316153 -0.658071,0.2085639 -0.06368,-0.063683 1.750478,-0.9537282 3.578166,-1.7554837 5.762934,-2.5280377 12.016675,-4.1451068 18.720065,-4.8405654 1.842107,-0.1911136 2.60885,-0.218476 6,-0.2141192 3.721421,0.00478 3.999053,0.017859 6.48,0.3052355 7.845266,0.9087448 14.97382,3.0664393 21.696001,6.5670176 3.38015,1.760215 5.844645,3.2913055 8.447998,5.2483995 2.11887,1.592881 2.69035,2.060601 4.18773,3.427407 6.33289,5.780673 11.45408,13.402371 14.48772,21.56161 4.92356,13.242333 4.66742,27.644474 -0.72359,40.686728 -1.81141,4.382284 -3.86421,7.979345 -6.76405,11.852481 -1.63272,2.180718 -3.02812,3.756978 -5.28291,5.967641 -3.24439,3.180899 -6.15173,5.474599 -9.64672,7.610639 -2.305333,1.40896 -3.14046,1.87759 -2.781378,1.56077 z M 80.61451,94.173164 c -0.19882,-0.04993 -0.54442,-0.183302 -0.768,-0.296378 -0.602022,-0.304476 -3.743457,-2.113641 -3.910509,-2.252078 -0.0792,-0.06563 -1.0944,-0.665866 -2.256,-1.333849 l -2.112,-1.214516 -1.410789,-1.40377 c -0.775935,-0.772073 -1.388985,-1.439051 -1.362335,-1.482172 0.105561,-0.1708 0.398928,-0.04399 1.892216,0.817924 0.8541,0.49298 1.617708,0.920552 1.696908,0.950161 0.0792,0.02961 1.871173,1.051862 3.982162,2.271674 2.110988,1.219811 3.936188,2.217839 4.056,2.217839 h 0.217838 l 4.3e-5,-5.784 4.2e-5,-5.784 0.719958,-0.0039 0.719957,-0.0039 v 5.680187 c 0,4.78105 0.02151,5.698038 0.135879,5.792957 0.109076,0.09052 0.644024,-0.184791 2.712,-1.395753 1.416867,-0.829687 4.001722,-2.336476 5.744122,-3.348421 6.633584,-3.852628 6.002652,-3.44748 6.276727,-4.03055 0.202047,-0.429835 0.203273,-0.481687 0.203273,-8.596503 0,-7.196616 -0.0172,-8.170658 -0.14513,-8.21975 -0.08509,-0.03265 -0.889243,0.372934 -1.944,0.980496 -5.987127,3.448713 -7.925611,4.553221 -7.991198,4.553221 -0.08138,0 -0.900685,-1.340819 -0.848325,-1.388314 0.0553,-0.05016 2.65195,-1.559975 6.272653,-3.647211 1.9008,-1.095759 3.497348,-2.03134 3.547885,-2.079068 0.05788,-0.05466 0.04012,-0.137633 -0.048,-0.224195 -0.117705,-0.115627 -13.62117,-7.951928 -14.425222,-8.371212 -0.248056,-0.129352 -0.301152,-0.122485 -0.672,0.08691 -0.221465,0.125049 -1.720264,0.984454 -3.330664,1.90979 -1.6104,0.925337 -3.143679,1.80237 -3.407287,1.948964 -1.181269,0.656909 -7.045101,4.030052 -7.368713,4.238819 -0.198,0.127732 -0.36,0.270366 -0.36,0.316965 0,0.0466 2.1924,1.348632 4.872,2.893409 2.6796,1.544776 4.921775,2.84702 4.982611,2.893875 0.07954,0.06126 0.01955,0.239122 -0.213591,0.633229 -0.17831,0.301421 -0.358792,0.607129 -0.401071,0.679352 -0.05864,0.100165 -1.245324,-0.543131 -5.002825,-2.712 -2.709276,-1.563823 -4.98193,-2.843314 -5.050343,-2.843314 -0.06841,0 -0.150436,0.0972 -0.182273,0.216 -0.03184,0.1188 -0.05848,3.778919 -0.0592,8.133597 l -0.0013,7.917598 -0.72,-0.715195 -0.72,-0.715195 v -7.266551 c 0,-3.996603 -0.02622,-7.334884 -0.05827,-7.418402 -0.03205,-0.08352 -0.131712,-0.151852 -0.221473,-0.151852 -0.08976,0 -1.28394,0.639818 -2.653729,1.421817 -3.083599,1.760396 -4.880047,2.77078 -5.754527,3.236542 -0.3696,0.196854 -0.728141,0.402722 -0.796759,0.457483 -0.09319,0.07438 -0.244997,-0.01887 -0.6,-0.368529 -0.261382,-0.257453 -0.475241,-0.493303 -0.475241,-0.524112 0,-0.03081 0.21279,-0.183633 0.472866,-0.339609 1.242327,-0.745061 3.576591,-2.122636 6.151134,-3.630114 1.907308,-1.116791 2.832,-1.710221 2.832,-1.817465 0,-0.109794 -2.056761,-1.347791 -6.624,-3.98709 -3.6432,-2.105318 -7.1424,-4.131064 -7.776,-4.501657 l -1.152,-0.673806 -0.07415,-7.23673 c -0.04078,-3.980201 -0.06192,-8.25193 -0.04699,-9.49273 l 0.02716,-2.256 0.305361,-0.624 c 0.167949,-0.3432 0.491493,-0.804862 0.718986,-1.025916 0.227494,-0.221054 1.212825,-0.864837 2.189625,-1.430629 9.574377,-5.545768 12.77703,-7.37817 13.104,-7.497471 0.499404,-0.182216 1.806493,-0.181761 2.304,8.03e-4 0.2112,0.0775 3.6456,2.022053 7.632,4.321227 5.092112,2.936899 7.378796,4.306943 7.68773,4.606028 0.494954,0.479176 0.819834,1.095623 0.956103,1.814169 0.05313,0.280149 0.09217,3.206781 0.09217,6.90966 0,6.797819 -0.0039,6.860567 -0.436301,7.026496 -0.271244,0.104086 -0.768375,0.06448 -0.96135,-0.07659 -0.18017,-0.131711 -0.18794,-0.337823 -0.234349,-6.216 -0.04766,-6.037447 -0.04936,-6.079734 -0.243391,-6.074363 -0.107465,0.003 -2.30385,1.223374 -4.880854,2.712 -2.577005,1.488625 -4.737893,2.706591 -4.801974,2.706591 -0.06408,0 -0.251579,-0.323593 -0.416663,-0.719096 l -0.300154,-0.719097 0.201516,-0.141147 c 0.110833,-0.07763 2.359005,-1.384837 4.995938,-2.904903 2.636932,-1.520066 4.817336,-2.821354 4.845341,-2.891751 0.02801,-0.0704 -0.03068,-0.207807 -0.13042,-0.305354 -0.09974,-0.09755 -3.421339,-2.048751 -7.381339,-4.336006 l -7.2,-4.158645 h -0.576 -0.576 l -5.232,3.016349 c -2.8776,1.658992 -6.1824,3.564438 -7.344,4.234324 -1.824091,1.05194 -2.112,1.249284 -2.112,1.447651 0,0.26324 -0.255782,0.105413 5.950635,3.671749 2.707429,1.555746 3.985341,2.340714 3.985289,2.448 -1e-4,0.208961 -0.546015,1.357926 -0.6452,1.357926 -0.04259,0 -0.660021,-0.33815 -1.372077,-0.751444 -6.770056,-3.929505 -8.372365,-4.832562 -8.442293,-4.758058 -0.04414,0.04703 -0.11129,3.74026 -0.149226,8.207187 l -0.06898,8.121684 0.274924,0.19081 c 0.238131,0.165274 6.304059,3.663929 12.741435,7.348896 1.38839,0.794761 2.033177,1.115637 2.102509,1.046305 0.06687,-0.06687 0.103143,-1.986187 0.109489,-5.792689 l 0.0095,-5.692691 h 0.768 0.768 l 0.02477,5.70797 c 0.01362,3.139383 0.06249,5.745689 0.108592,5.791792 0.0834,0.0834 0.981268,-0.426666 9.418638,-5.350522 5.252756,-3.065387 6.253607,-3.624075 6.416143,-3.581571 0.09251,0.02419 3.751135,2.112371 8.130268,4.640394 5.191483,2.996985 8.091239,4.725587 8.333296,4.967643 0.20418,0.204181 0.485775,0.615375 0.625765,0.913766 l 0.254529,0.542528 v 9.024 9.024 l -0.256338,0.546864 c -0.313955,0.669784 -0.904209,1.275237 -1.665291,1.708172 -0.315904,0.1797 -2.107971,1.209573 -3.982371,2.288608 -1.8744,1.079034 -3.625554,2.080209 -3.891454,2.224831 -0.265899,0.144623 -1.713099,0.967438 -3.216,1.828477 -1.5029,0.86104 -2.94079,1.645149 -3.195311,1.742466 -0.564101,0.215686 -1.427143,0.292197 -1.914727,0.169747 z M 80.33258,78.150642 c -1.454731,-0.465135 -2.272894,-1.387242 -2.595493,-2.92524 -0.193385,-0.921971 0.143409,-2.098842 0.830289,-2.901307 1.402058,-1.637989 3.861253,-1.713301 5.350301,-0.16385 0.485572,0.505268 0.696688,0.867751 0.904838,1.553591 0.562933,1.85483 -0.673561,3.984032 -2.59376,4.46637 -0.783903,0.196911 -1.208572,0.190289 -1.896175,-0.02956 z M 41.607482,59.121502 c -0.386589,-0.397286 -0.445554,-0.500857 -0.327481,-0.575222 1.188886,-0.748797 2.220925,-1.365883 2.55409,-1.527165 0.364191,-0.176302 0.44741,-0.185364 0.679649,-0.07401 0.648186,0.310798 0.567626,0.996335 -0.167384,1.42438 -0.234495,0.136562 -0.840589,0.470651 -1.346874,0.742419 l -0.920519,0.494124 z M 63.3742,49.236116 c -0.509854,-0.161449 -0.716143,-0.29944 -1.258618,-0.841915 -0.537795,-0.537795 -0.683506,-0.754343 -0.851537,-1.26551 -0.292875,-0.890952 -0.338933,-1.329852 -0.206712,-1.969825 0.329611,-1.595379 1.431684,-2.674454 3.007051,-2.944303 2.019761,-0.34597 3.812819,0.956375 4.199944,3.050531 0.313145,1.693957 -0.823357,3.544257 -2.483942,4.04402 -0.62306,0.187513 -1.685263,0.155289 -2.406186,-0.073 z M 15.899661,33.419666 13.416706,30.935333 13.812353,30.399766 C 14.029959,30.105203 14.208,29.836717 14.208,29.803129 c 0,-0.03359 0.409322,-0.581173 0.909605,-1.216856 3.921482,-4.982825 8.08624,-8.822228 13.250396,-12.21526 6.091568,-4.002375 12.719945,-6.6576869 19.996062,-8.0103747 3.488872,-0.6486089 6.471462,-0.9107537 10.291938,-0.9045758 7.527439,0.012172 14.735477,1.4950817 21.677905,4.4597945 1.694603,0.723667 3.311473,1.511146 3.119431,1.519284 -0.06307,0.0027 -0.797465,-0.234026 -1.632,-0.525996 -2.536758,-0.88751 -6.303623,-1.802835 -9.245336,-2.246561 -4.010026,-0.60487 -7.252022,-0.7831722 -10.56,-0.580776 -8.339295,0.510233 -15.957093,2.739456 -23.166327,6.779243 -2.921297,1.636987 -4.772192,2.890644 -7.697673,5.21383 -2.399656,1.905616 -5.109431,4.480093 -7.28064,6.917119 -0.635052,0.7128 -1.179914,1.3176 -1.210805,1.344 -0.290048,0.247882 -2.368702,2.939352 -3.07689,3.984 -0.178972,0.263999 -0.375699,0.523199 -0.437173,0.575999 -0.06147,0.0528 -0.249458,0.3012 -0.417743,0.552 -0.168285,0.2508 -0.31501,0.456 -0.326054,0.456 -0.01104,0 -1.13741,-1.117949 -2.503035,-2.484333 z"
         id="path4" />
      <path
         style="fill:#007cc1"
         d="m 119.34963,88.869898 -0.4983,-0.50457 0.20437,-0.334665 c 0.41833,-0.685024 2.53802,-4.788826 2.62736,-5.086664 0.0396,-0.132 0.39437,-0.9744 0.78839,-1.872 0.72456,-1.65059 2.0976,-5.413139 2.32966,-6.384 0.0694,-0.2904 0.14293,-0.478287 0.16337,-0.417527 0.0205,0.06076 -0.0702,0.55756 -0.20136,1.104 -0.13119,0.54644 -0.35217,1.490327 -0.49107,2.097527 -0.34602,1.512671 -1.30479,4.676093 -1.81239,5.97994 -0.2304,0.591833 -0.45105,1.18406 -0.49033,1.31606 -0.21854,0.734368 -1.83146,4.293146 -2.05548,4.535235 -0.0362,0.03918 -0.29015,-0.155822 -0.56422,-0.433336 z m -4.57148,-4.571734 -1.23509,-1.237834 0.24699,-0.658166 c 1.88437,-5.021312 2.96545,-9.487812 3.48206,-14.386165 0.20692,-1.961971 0.28669,-6.769841 0.14217,-8.568976 -0.14398,-1.792333 -0.36881,-3.865375 -0.48665,-4.487024 -0.05,-0.264 -0.20194,-1.1496 -0.33756,-1.968 C 114.96321,43.174539 110.76876,33.854408 104.40944,25.92645 97.777557,17.658687 88.829671,11.179556 79.019476,7.5416683 75.312525,6.1670298 71.857964,5.2429844 68.256001,4.6625937 c -0.8184,-0.1318703 -1.7472,-0.283972 -2.064,-0.3380038 -2.95049,-0.5032207 -8.395904,-0.6869651 -11.952,-0.4032959 -4.40117,0.3510806 -8.906334,1.1904868 -12.815214,2.3877424 -2.133692,0.6535312 -2.137923,0.6546461 -2.016786,0.531459 0.134337,-0.1366115 2.200249,-1.0263355 3.408,-1.4677201 0.5544,-0.202611 1.338158,-0.4979247 1.741684,-0.6562527 1.01351,-0.3976619 4.130151,-1.3048607 6.034316,-1.756482 4.741798,-1.1246385 11.40719,-1.8238418 15.966943,-1.6749412 2.757726,0.090055 6.699032,0.5296758 9.473057,1.0566438 9.153114,1.738772 18.216409,5.715118 25.487999,11.1823688 3.94716,2.967728 6.4406,5.352207 9.4646,9.051024 2.47216,3.023825 5.85188,8.263326 6.86386,10.640864 0.16855,0.396 0.55376,1.2384 0.85601,1.871999 0.84056,1.762003 2.17035,5.447781 2.8637,7.937272 0.80753,2.899501 1.43324,6.197409 1.73615,9.150728 0.27625,2.693376 0.38614,6.190144 0.25041,7.968 -0.0524,0.6864 -0.13685,1.788 -0.18765,2.448 -0.27051,3.513954 -1.19675,8.10437 -2.39742,11.881485 -0.67145,2.112292 -1.09106,3.208664 -2.36004,6.166515 -0.44214,1.030576 -2.48139,4.896 -2.58294,4.896 -0.007,0 -0.56924,-0.557026 -1.24853,-1.237835 z M 97.944002,67.465465 c -0.3828,-0.38609 -0.696,-0.754965 -0.696,-0.819723 0,-0.06476 -0.05548,-0.117743 -0.12328,-0.117743 -0.0678,0 -0.359403,-0.240031 -0.648,-0.533403 -0.462648,-0.470303 -0.504846,-0.544684 -0.35672,-0.62877 0.0924,-0.05245 0.167523,-0.190421 0.166939,-0.306597 -8.46e-4,-0.16857 -0.228659,-0.341704 -1.128,-0.857261 -1.05942,-0.607325 -1.236223,-0.755631 -2.950939,-2.475292 l -1.824,-1.829261 2.333393,1.347292 c 1.283366,0.741011 2.354046,1.347292 2.379288,1.347292 0.02524,0 0.549685,0.28927 1.165428,0.642822 1.892058,1.086394 2.333394,1.726069 2.404659,3.48532 0.06432,1.587822 0.08817,1.563229 -0.722768,0.745324 z M 81.03928,50.559567 80.640001,50.152732 V 44.38412 c 0,-4.930887 -0.02028,-5.785444 -0.139661,-5.88452 -0.113364,-0.09408 -0.311191,-0.01496 -1.050664,0.420246 -0.501051,0.294884 -0.931177,0.536153 -0.955835,0.536153 -0.02466,0 -0.98043,0.54 -2.123939,1.2 -1.143509,0.66 -2.101266,1.2 -2.12835,1.2 -0.02708,0 -0.311617,0.153773 -0.632295,0.341717 l -0.583052,0.341718 -0.465102,-0.458109 c -0.255806,-0.251959 -0.465102,-0.482931 -0.465102,-0.513269 0,-0.03034 0.27,-0.21612 0.6,-0.412847 1.251896,-0.746308 4.686483,-2.770264 6,-3.535719 1.494717,-0.87105 1.629201,-1.042154 1.104,-1.404611 -0.1452,-0.100207 -2.64,-1.55592 -5.544,-3.234917 -2.904,-1.678997 -6.1008,-3.533151 -7.104,-4.120342 l -1.824,-1.06762 h -0.672 c -0.654547,0 -0.701211,0.01683 -1.796712,0.648 -0.618591,0.3564 -1.14461,0.648 -1.16893,0.648 -0.02432,0 -0.338999,0.171193 -0.699288,0.380429 l -0.65507,0.38043 -0.501573,-0.494753 -0.501573,-0.494754 0.597573,-0.334113 c 0.328665,-0.183762 0.619173,-0.361858 0.645573,-0.395767 0.106849,-0.137244 2.761161,-1.615691 3.093764,-1.723221 0.448856,-0.145115 1.617262,-0.146505 2.053774,-0.0024 0.181491,0.0599 3.579542,1.981465 7.551223,4.27015 7.804867,4.497562 8.004246,4.630855 8.495642,5.679688 l 0.261597,0.558354 0.02771,6.645588 c 0.02439,5.849118 0.0099,6.680052 -0.120993,6.933154 -0.265551,0.513519 -0.449215,0.527573 -0.899441,0.06883 z M 42.675499,12.195502 c -0.947376,-0.948474 -1.702926,-1.743073 -1.679,-1.765775 0.117109,-0.11112 2.980506,-0.9706222 4.349981,-1.3057285 4.639482,-1.1352664 8.471809,-1.5851072 13.405521,-1.573548 7.522225,0.017624 14.74694,1.4828669 21.456,4.3514875 3.16946,1.355179 3.634072,1.702633 1.038788,0.776843 -1.558059,-0.555791 -5.703522,-1.593103 -7.518788,-1.881413 -0.8712,-0.138369 -2.1024,-0.334183 -2.736,-0.435142 -0.6336,-0.100959 -2.260338,-0.257853 -3.614974,-0.348653 -2.134069,-0.1430437 -2.759526,-0.1497811 -4.68368,-0.050452 -1.221388,0.06305 -3.15865,0.2262143 -4.305026,0.3625853 -1.994926,0.237314 -5.613973,0.911203 -6.93232,1.29084 -0.3432,0.09883 -1.1856,0.334735 -1.872,0.524235 -0.6864,0.1895 -1.7664,0.534925 -2.4,0.767611 -0.6336,0.232686 -1.512091,0.555488 -1.952202,0.717337 -0.440111,0.161849 -0.807761,0.294271 -0.817,0.294271 -0.0092,0 -0.791924,-0.776024 -1.7393,-1.724498 z"
         id="path3" />
      <path
         style="fill:#007dbc"
         d="m 119.34963,88.869898 -0.4983,-0.50457 0.20437,-0.334665 c 0.41833,-0.685024 2.53802,-4.788826 2.62736,-5.086664 0.0396,-0.132 0.39437,-0.9744 0.78839,-1.872 0.72456,-1.65059 2.0976,-5.413139 2.32966,-6.384 0.0694,-0.2904 0.14293,-0.478287 0.16337,-0.417527 0.0205,0.06076 -0.0702,0.55756 -0.20136,1.104 -0.13119,0.54644 -0.35217,1.490327 -0.49107,2.097527 -0.34602,1.512671 -1.30479,4.676093 -1.81239,5.97994 -0.2304,0.591833 -0.45105,1.18406 -0.49033,1.31606 -0.21854,0.734368 -1.83146,4.293146 -2.05548,4.535235 -0.0362,0.03918 -0.29015,-0.155822 -0.56422,-0.433336 z m -4.57148,-4.571734 -1.23509,-1.237834 0.24699,-0.658166 c 1.88437,-5.021312 2.96545,-9.487812 3.48206,-14.386165 0.20692,-1.961971 0.28669,-6.769841 0.14217,-8.568976 -0.14398,-1.792333 -0.36881,-3.865375 -0.48665,-4.487024 -0.05,-0.264 -0.20194,-1.1496 -0.33756,-1.968 C 115.12414,44.145712 111.47929,35.37695 106.30843,28.256473 105.91879,27.719933 105.6,27.252911 105.6,27.218647 c 0,-0.03426 -0.35159,-0.502477 -0.7813,-1.040473 -0.58891,-0.737293 1.33784,1.137646 7.82414,7.613764 8.5169,8.503537 8.60737,8.597864 8.79306,9.167999 0.64259,1.972999 1.36702,5.450801 1.68977,8.112062 0.12487,1.0296 0.2675,2.1744 0.31695,2.544 0.14467,1.081049 0.21458,5.17136 0.11158,6.528 -0.0521,0.6864 -0.13632,1.788 -0.18712,2.448 -0.27051,3.513954 -1.19675,8.10437 -2.39742,11.881485 -0.67145,2.112292 -1.09106,3.208664 -2.36004,6.166515 -0.44214,1.030576 -2.48139,4.896 -2.58294,4.896 -0.007,0 -0.56924,-0.557026 -1.24853,-1.237835 z M 97.944002,67.465465 c -0.3828,-0.38609 -0.696,-0.754965 -0.696,-0.819723 0,-0.06476 -0.05548,-0.117743 -0.12328,-0.117743 -0.0678,0 -0.359403,-0.240031 -0.648,-0.533403 -0.462648,-0.470303 -0.504846,-0.544684 -0.35672,-0.62877 0.0924,-0.05245 0.167523,-0.190421 0.166939,-0.306597 -8.46e-4,-0.16857 -0.228659,-0.341704 -1.128,-0.857261 -1.05942,-0.607325 -1.236223,-0.755631 -2.950939,-2.475292 l -1.824,-1.829261 2.333393,1.347292 c 1.283366,0.741011 2.354046,1.347292 2.379288,1.347292 0.02524,0 0.549685,0.28927 1.165428,0.642822 1.892058,1.086394 2.333394,1.726069 2.404659,3.48532 0.06432,1.587822 0.08817,1.563229 -0.722768,0.745324 z M 81.03928,50.559567 80.640001,50.152732 V 44.38412 c 0,-4.930887 -0.02028,-5.785444 -0.139661,-5.88452 -0.113364,-0.09408 -0.311191,-0.01496 -1.050664,0.420246 -0.501051,0.294884 -0.931177,0.536153 -0.955835,0.536153 -0.02466,0 -0.98043,0.54 -2.123939,1.2 -1.143509,0.66 -2.101266,1.2 -2.12835,1.2 -0.02708,0 -0.311617,0.153773 -0.632295,0.341717 l -0.583052,0.341718 -0.465102,-0.458109 c -0.255806,-0.251959 -0.465102,-0.482931 -0.465102,-0.513269 0,-0.03034 0.27,-0.21612 0.6,-0.412847 1.251896,-0.746308 4.686483,-2.770264 6,-3.535719 1.494717,-0.87105 1.629201,-1.042154 1.104,-1.404611 -0.1452,-0.100207 -2.64,-1.55592 -5.544,-3.234917 -2.904,-1.678997 -6.1008,-3.533151 -7.104,-4.120342 l -1.824,-1.06762 h -0.672 c -0.654547,0 -0.701211,0.01683 -1.796712,0.648 -0.618591,0.3564 -1.14461,0.648 -1.16893,0.648 -0.02432,0 -0.338999,0.171193 -0.699288,0.380429 l -0.65507,0.38043 -0.501573,-0.494753 -0.501573,-0.494754 0.597573,-0.334113 c 0.328665,-0.183762 0.619173,-0.361858 0.645573,-0.395767 0.106849,-0.137244 2.761161,-1.615691 3.093764,-1.723221 0.448856,-0.145115 1.617262,-0.146505 2.053774,-0.0024 0.181491,0.0599 3.579542,1.981465 7.551223,4.27015 7.804867,4.497562 8.004246,4.630855 8.495642,5.679688 l 0.261597,0.558354 0.02771,6.645588 c 0.02439,5.849118 0.0099,6.680052 -0.120993,6.933154 -0.265551,0.513519 -0.449215,0.527573 -0.899441,0.06883 z M 95.040002,16.416 c -0.5016,-0.416651 -0.948213,-0.759899 -0.992473,-0.762774 -0.04426,-0.0029 -0.51946,-0.324017 -1.056,-0.71365 C 85.87062,9.7683972 76.955373,6.0643392 68.256001,4.6625937 c -0.8184,-0.1318703 -1.7472,-0.283972 -2.064,-0.3380038 -2.95049,-0.5032207 -8.395904,-0.6869651 -11.952,-0.4032959 -4.40117,0.3510806 -8.906334,1.1904868 -12.815214,2.3877424 -2.133692,0.6535312 -2.137923,0.6546461 -2.016786,0.531459 0.134337,-0.1366115 2.200249,-1.0263355 3.408,-1.4677201 0.5544,-0.202611 1.338158,-0.4979247 1.741684,-0.6562527 1.01351,-0.3976619 4.130151,-1.3048607 6.034316,-1.756482 4.756063,-1.1280218 11.40216,-1.8235556 15.992602,-1.6736732 4.22363,0.1379056 9.214808,0.8942232 13.479398,2.0425448 1.0824,0.2914567 2.208701,0.6150649 2.502891,0.7191293 0.504068,0.178305 0.907888,0.5622356 7.007734,6.6625835 3.560063,3.560356 6.451362,6.471023 6.425109,6.468148 -0.02625,-0.0029 -0.458133,-0.346122 -0.959733,-0.762773 z M 42.675499,12.195502 c -0.947376,-0.948474 -1.702926,-1.743073 -1.679,-1.765775 0.117109,-0.11112 2.980506,-0.9706222 4.349981,-1.3057285 4.639482,-1.1352664 8.471809,-1.5851072 13.405521,-1.573548 7.522225,0.017624 14.74694,1.4828669 21.456,4.3514875 3.16946,1.355179 3.634072,1.702633 1.038788,0.776843 -1.558059,-0.555791 -5.703522,-1.593103 -7.518788,-1.881413 -0.8712,-0.138369 -2.1024,-0.334183 -2.736,-0.435142 -0.6336,-0.100959 -2.260338,-0.257853 -3.614974,-0.348653 -2.134069,-0.1430437 -2.759526,-0.1497811 -4.68368,-0.050452 -1.221388,0.06305 -3.15865,0.2262143 -4.305026,0.3625853 -1.994926,0.237314 -5.613973,0.911203 -6.93232,1.29084 -0.3432,0.09883 -1.1856,0.334735 -1.872,0.524235 -0.6864,0.1895 -1.7664,0.534925 -2.4,0.767611 -0.6336,0.232686 -1.512091,0.555488 -1.952202,0.717337 -0.440111,0.161849 -0.807761,0.294271 -0.817,0.294271 -0.0092,0 -0.791924,-0.776024 -1.7393,-1.724498 z"
         id="path2" />
    </g>
  </g>
</svg>
