<?xml version="1.0" encoding="UTF-8" standalone="no"?>
<!-- Created with Inkscape (http://www.inkscape.org/) -->

<svg
   version="1.1"
   id="svg1721"
   width="768"
   height="186.56"
   viewBox="0 0 768 186.56"
   sodipodi:docname="FarmOS.svg"
   inkscape:version="1.2.2 (b0a84865, 2022-12-01)"
   xmlns:inkscape="http://www.inkscape.org/namespaces/inkscape"
   xmlns:sodipodi="http://sodipodi.sourceforge.net/DTD/sodipodi-0.dtd"
   xmlns="http://www.w3.org/2000/svg"
   xmlns:svg="http://www.w3.org/2000/svg">
  <defs
     id="defs1725" />
  <sodipodi:namedview
     id="namedview1723"
     pagecolor="#ffffff"
     bordercolor="#666666"
     borderopacity="1.0"
     inkscape:showpageshadow="2"
     inkscape:pageopacity="0.0"
     inkscape:pagecheckerboard="0"
     inkscape:deskcolor="#d1d1d1"
     showgrid="false"
     inkscape:zoom="1.2650086"
     inkscape:cx="384.18711"
     inkscape:cy="93.279999"
     inkscape:window-width="729"
     inkscape:window-height="480"
     inkscape:window-x="0"
     inkscape:window-y="25"
     inkscape:window-maximized="0"
     inkscape:current-layer="g1727" />
  <g
     inkscape:groupmode="layer"
     inkscape:label="Image"
     id="g1727">
    <g
       id="g1848">
      <path
         style="fill:#b3c6b2;stroke-width:0.32"
         d="m 126.08,183.52915 c -9.86516,-1.66573 -17.88819,-5.83083 -24.96,-12.95782 -3.736653,-3.76581 -6.290995,-7.16888 -8.855213,-11.79753 C 82.793325,141.67695 81.249718,115.60093 88.548806,96 93.459037,82.81409 102.39724,72.57279 113.68998,67.193501 c 10.52229,-5.012285 23.65063,-5.754819 35.5807,-2.012429 9.85364,3.091027 17.50317,9.577734 22.25728,18.873888 L 172.8,86.542314 V 75.911155 65.28 h 8.00086 8.00086 l -0.0809,58.16 -0.0809,58.16 h -7.84 -7.84 l -0.0878,-11.04 -0.0878,-11.04 -1.41197,2.63426 c -2.12007,3.95534 -4.13746,6.63855 -7.52286,10.00574 -7.98016,7.93723 -18.32818,11.89201 -30.88964,11.80531 -2.464,-0.017 -5.56,-0.21328 -6.88,-0.43616 z m 18.4,-16.93925 c 13.69151,-3.55338 23.74909,-15.11852 27.01984,-31.0699 2.02204,-9.86151 1.48791,-20.74202 -1.46095,-29.76 -4.77965,-14.616726 -17.09302,-25.053443 -31.10242,-26.36215 -16.26718,-1.51962 -30.52887,8.797427 -36.21528,26.1985 -1.92763,5.8988 -2.39685,9.31361 -2.39685,17.44365 0,6.38699 0.0962,7.83616 0.72783,10.96173 3.56288,17.63139 14.17859,29.93229 28.54783,33.07965 3.94775,0.8647 10.48673,0.64872 14.88,-0.49148 z m 408,17.03742 c -16.20314,-1.82904 -31.38477,-9.38178 -42.68784,-21.23688 -13.12038,-13.76119 -20.98829,-32.69778 -23.09747,-55.59145 -0.50263,-5.4559 -0.20717,-21.187787 0.49133,-26.15899 3.8815,-27.624986 16.20864,-48.872889 35.69398,-61.524658 20.45446,-13.281014 48.41018,-14.6302953 70.29306,-3.39269 17.99417,9.24062 31.37382,26.150385 37.99072,48.014222 5.46086,18.044035 5.95728,41.507536 1.27497,60.263126 -4.13248,16.55315 -11.61033,30.06762 -22.39849,40.48 -11.08154,10.69554 -24.29044,16.99532 -39.89664,19.02811 -4.13498,0.5386 -13.39469,0.60109 -17.66362,0.11921 z m 14.88838,-16.28423 c 11.92765,-1.482 21.97181,-6.21188 30.45645,-14.34219 5.07501,-4.86305 8.64627,-9.5926 11.91831,-15.7838 6.832,-12.92716 10.06764,-29.42389 9.13286,-46.563164 C 617.7408,69.839869 611.10141,52.86689 599.39235,40.845779 587.98,29.12931 573.92275,23.747097 557.2,24.691262 c -12.80304,0.722858 -24.34278,5.959511 -33.70506,15.295135 -2.21379,2.207481 -4.83417,5.108742 -5.82307,6.447248 C 508.82422,58.4092 503.82205,73.691792 503.07168,91.04 c -1.0857,25.10008 5.64381,46.12286 19.28822,60.25588 8.71114,9.02309 19.48228,14.44088 31.8801,16.03544 3.05222,0.39257 10.01334,0.39881 13.12838,0.0118 z M 700.32,183.78896 C 682.78979,181.68632 669.31562,172.46435 662.05539,157.6 c -3.00089,-6.14397 -4.77219,-12.38627 -5.28915,-18.64 l -0.21827,-2.64 h 8.21606 c 6.3,0 8.24208,0.0933 8.32765,0.4 0.0613,0.22 0.2792,1.696 0.48406,3.28 0.46538,3.5981 2.35562,9.24748 4.13364,12.35432 4.17769,7.29994 11.2471,12.44233 19.77273,14.38297 3.73184,0.84947 10.87811,1.15764 14.95242,0.64481 9.03181,-1.13684 16.47126,-4.63718 21.67353,-10.19759 3.71844,-3.97443 6.16484,-8.66955 7.19376,-13.80628 0.7402,-3.6954 0.49405,-10.86561 -0.50598,-14.73823 -2.39424,-9.27184 -8.35997,-16.10501 -18.02352,-20.64419 -3.70352,-1.73963 -3.6615,-1.72592 -18.66784,-6.0928 -6.89453,-2.006325 -14.02253,-4.207122 -15.84,-4.890655 -13.1913,-4.961136 -22.48941,-12.978035 -26.90851,-23.200685 -2.66311,-6.160531 -3.59971,-11.975772 -3.34509,-20.768864 0.17978,-6.208044 0.72202,-9.588803 2.32691,-14.507456 3.19303,-9.786105 9.97459,-18.376767 18.62387,-23.592161 10.38621,-6.2627596 24.4024,-8.3846495 37.14644,-5.6235503 20.10211,4.3552943 33.20825,20.2526493 34.20179,41.4858593 l 0.18371,3.925497 -8.28682,-0.0855 -8.28678,-0.0855 -0.21267,-3.2 c -0.90544,-13.623709 -9.39738,-23.628125 -22.2625,-26.227699 -3.40464,-0.687953 -9.88925,-0.68847 -13.49613,-0.0011 -11.11411,2.118087 -19.48307,9.867662 -22.4504,20.788775 -0.98838,3.637735 -1.23056,11.482004 -0.47046,15.239444 1.93411,9.560928 8.38902,16.351696 19.53216,20.548364 1.232,0.463991 8,2.491786 15.04,4.506212 14.79501,4.233443 17.28109,5.064371 22.08,7.379843 12.73654,6.145392 21.01395,15.608886 24.63597,28.166136 1.56547,5.42747 1.90304,8.13643 1.91392,15.36 0.009,5.89641 -0.0813,7.1286 -0.73626,10.05401 -3.95584,17.67077 -17.01385,30.61013 -35.41363,35.09178 -4.97235,1.21112 -9.86528,1.73946 -15.61638,1.68626 -2.85098,-0.0264 -5.61562,-0.0998 -6.14362,-0.16309 z M 30.613333,181.54667 C 30.496,181.42933 30.4,158.53333 30.4,130.66667 V 80 H 20 9.6 v -7.36 -7.36 h 10.360486 10.360486 l 0.1721,-10.64 C 30.677222,43.255037 31.038923,39.438387 32.532502,33.12 35.904461,18.855385 42.91281,9.4948214 53.515395,5.0946131 c 1.185466,-0.4919837 3.633466,-1.284535 5.44,-1.7612246 3.080528,-0.8128591 3.816807,-0.875869 11.850371,-1.0141427 L 79.371533,2.1718118 79.285766,9.9659059 79.2,17.76 72.32,17.949327 c -5.932352,0.16325 -7.188538,0.288767 -9.12,0.911264 -5.541446,1.785969 -9.489075,5.092746 -12.056672,10.099409 -3.511414,6.847053 -4.720579,14.505254 -4.736736,30 L 46.4,65.28 h 13.286006 13.28601 l -0.08601,7.28 -0.08601,7.28 -13.2,0.08355 -13.2,0.08355 V 130.88355 181.76 H 38.61333 c -4.282668,0 -7.882667,-0.096 -8.000001,-0.21333 z m 190.405467,0.005 C 220.89846,181.43179 220.8,155.21886 220.8,123.30117 V 65.269011 l 8.08,0.08549 8.08,0.08549 0.16,10.848064 0.16,10.848064 0.60319,-1.728064 c 0.33175,-0.950435 1.31497,-3.167501 2.18492,-4.92681 6.92796,-14.01048 19.97873,-21.052771 34.36997,-18.546284 2.89405,0.504048 6.20192,1.360681 6.20192,1.606099 0,0.07461 -0.65865,0.445254 -1.46367,0.823657 -2.4991,1.17472 -5.21877,4.953552 -11.02258,15.315274 -8.84226,15.786365 -13.64879,22.248559 -20.27648,27.260939 -2.27376,1.7196 -7.8498,4.73906 -8.75163,4.73906 -0.17617,0 -0.66351,0.756 -1.08297,1.68 l -0.76267,1.68 -0.16,33.28 -0.16,33.28 -7.8612,0.0855 c -4.32367,0.047 -7.95967,-0.013 -8.08,-0.13333 z M 301.12,123.52559 V 65.28 h 8 8 l 0.0115,9.36 0.0114,9.36 0.94762,-2.189542 c 5.66896,-13.098535 19.34179,-20.362413 35.33913,-18.774432 13.77613,1.367488 23.00279,7.626713 28.79981,19.537334 0.80259,1.649011 1.69959,3.760602 1.99331,4.692422 0.29373,0.931818 0.62896,1.694218 0.74496,1.694218 0.116,0 0.38762,-0.589741 0.60356,-1.310531 1.82489,-6.09096 6.75424,-13.044259 12.09907,-17.066935 6.94038,-5.22351 14.91872,-7.677584 24.8896,-7.655824 11.59657,0.02531 19.93542,3.144618 26.95981,10.084842 6.51827,6.440131 10.5246,16.001754 12.31385,29.388448 0.30915,2.31279 0.40634,12.1493 0.40634,41.12 v 38.08 l -7.90195,0.0856 -7.90196,0.0855 -0.12598,-37.52555 c -0.12266,-36.53612 -0.14374,-37.61847 -0.79923,-41.04944 -1.64611,-8.616155 -4.43095,-14.341438 -8.94512,-18.390059 -1.99501,-1.789264 -6.54867,-4.163686 -9.20576,-4.800166 -4.32522,-1.036064 -11.14586,-0.967107 -15.57271,0.15744 -2.9807,0.757181 -7.49059,3.06152 -9.89443,5.055584 -4.45753,3.697696 -8.08211,9.908867 -9.93277,17.021091 -1.71081,6.57482 -1.64902,5.12248 -1.85129,43.52 l -0.1888,35.84 h -8 -8 l -0.17527,-37.76 -0.17529,-37.76 -0.7257,-3.2 C 370.00707,90.372128 364.26694,83.107882 355.03997,80.349037 347.87328,78.206211 338.07936,79.257744 332.25683,82.795162 324.3792,87.581136 320.08122,95.25257 317.68737,108.8 c -0.25407,1.43784 -0.42309,12.99665 -0.54747,37.44 l -0.1799,35.36 -7.92,0.0856 -7.92,0.0856 z"
         id="path1862" />
      <path
         style="fill:#95af95;stroke-width:0.32"
         d="m 126.67824,183.50768 c -5.49243,-0.85583 -9.73002,-2.22654 -14.26628,-4.61465 C 96.712029,170.62782 86.672022,153.79877 84.465238,132.04877 83.90263,126.50371 84.227869,114.52911 85.074963,109.6 87.759248,93.980557 94.171558,81.735328 103.93325,73.587398 c 5.5844,-4.661209 10.96987,-7.421385 18.25893,-9.358112 3.65522,-0.971203 3.87427,-0.99071 11.24782,-1.001648 6.6011,-0.0098 7.91509,0.07539 10.7533,0.697146 C 157.07611,66.74695 165.64199,73.061171 171.42737,84 l 1.35395,2.56 0.009,-10.64 0.009,-10.64 h 8 8 v 58.08 58.08 h -8 -8 l -6.4e-4,-10.96 -6.4e-4,-10.96 -1.59866,2.85012 c -5.69372,10.15085 -13.85136,16.68815 -24.77442,19.85353 -5.72965,1.66039 -13.91579,2.19268 -19.74722,1.28403 z m 18.21981,-16.9165 C 162.05168,161.81909 172.8,145.10405 172.8,123.2 c 0,-22.07717 -11.46453,-38.761178 -29.73828,-43.277258 -4.18769,-1.034924 -10.89327,-0.953939 -15.22172,0.18384 -15.67107,4.119303 -26.35335,19.065168 -27.64917,38.684678 -1.594011,24.13421 10.54965,44.19541 29.28879,48.38477 3.53448,0.79017 11.57169,0.48531 15.41843,-0.58485 z M 553.28,183.64143 c -11.2175,-1.12805 -22.43773,-5.1905 -32,-11.58607 -14.32317,-9.5798 -25.39638,-25.57767 -30.70454,-44.3599 -2.69024,-9.5191 -3.83306,-17.45192 -4.08439,-28.351556 -0.41696,-18.084323 2.41155,-33.261206 8.85738,-47.525795 11.0184,-24.383642 32.29984,-40.395404 57.35894,-43.155812 3.99104,-0.4396375 12.51418,-0.4396375 16.50522,0 33.87805,3.731867 59.18774,30.713479 65.0128,69.307453 1.06809,7.076698 1.38918,12.701133 1.20713,21.144932 -0.22985,10.661078 -1.05404,16.941828 -3.43993,26.213868 -4.38743,17.05046 -13.15792,31.72151 -25.05383,41.90943 -14.62211,12.5227 -33.83721,18.39674 -53.65878,16.40345 z m 18.61667,-16.89334 c 14.84403,-3.21983 26.63741,-11.54596 35.26973,-24.90045 14.48986,-22.41624 16.0377,-59.700485 3.52326,-84.867474 C 605.46784,46.478912 599.14237,39.05639 590.46589,33.248883 580.69302,26.707519 568.38624,23.549326 556.72,24.588931 c -7.52963,0.670981 -13.49245,2.334972 -19.76,5.514234 -11.55066,5.859165 -19.83811,14.637427 -26.1105,27.656835 -9.27916,19.260579 -10.68076,46.5143 -3.50528,68.16 4.94784,14.92572 13.78218,26.71667 25.45578,33.97516 5.79146,3.60106 12.71459,6.1639 19.72083,7.30037 4.29069,0.69598 15.2737,0.44235 19.37584,-0.44744 z M 700.96,183.7749 c -2.95021,-0.27084 -8.59091,-1.43 -11.35642,-2.33373 -11.25993,-3.67958 -20.55299,-11.32145 -26.3446,-21.66378 -3.13847,-5.60446 -5.19456,-11.75723 -6.13111,-18.347 -0.26189,-1.84272 -0.47878,-3.67439 -0.48201,-4.07039 l -0.006,-0.72 h 8.17005 c 6.2632,0 8.19609,0.0934 8.28163,0.4 0.0613,0.22 0.27846,1.67037 0.48243,3.22304 1.48154,11.27713 8.52115,20.7066 18.54432,24.83982 4.9049,2.02261 7.24125,2.41337 14.44157,2.41534 7.08614,0.002 9.10282,-0.25829 13.80672,-1.7816 11.02397,-3.57004 18.38778,-11.29096 20.96394,-21.98066 0.347,-1.43982 0.51558,-3.53772 0.50755,-6.31594 -0.0453,-15.65135 -8.49671,-26.51458 -24.71821,-31.772 -1.672,-0.5419 -7.792,-2.35816 -13.6,-4.03615 C 689.09555,97.464502 685.20954,96.071949 680.05315,93.222502 664.41149,84.57887 657.40864,71.777267 658.02838,52.96 c 0.26794,-8.134819 1.6962,-14.04241 4.96618,-20.540922 6.08634,-12.095521 16.82013,-20.102125 31.08544,-23.1873766 2.91949,-0.6314179 4.30394,-0.7283292 10.56,-0.7391955 7.9017,-0.013725 10.26774,0.2987869 15.8849,2.0981241 17.70748,5.672217 28.61916,20.467232 29.77337,40.36937 l 0.19952,3.44 h -8.1816 -8.1816 l -0.21696,-2.48 c -0.83475,-9.540982 -4.52793,-16.955728 -10.81389,-21.710816 -8.371,-6.332367 -21.067,-7.610624 -31.59488,-3.181033 -7.92528,3.334543 -13.95564,10.491391 -16.11712,19.127759 -1.67587,6.696221 -1.30688,14.201831 0.97421,19.81562 1.94119,4.77728 6.27539,9.586668 11.32717,12.56902 4.01859,2.37242 7.54083,3.618992 21.74608,7.696327 15.56454,4.467488 16.66842,4.835001 21.69181,7.221888 17.59411,8.359905 26.38035,21.964665 27.16406,42.061235 0.51853,13.29615 -3.89971,24.69956 -13.1504,33.94116 -8.22105,8.21296 -18.65904,12.8724 -31.81859,14.20361 -3.11629,0.31524 -9.51152,0.3722 -12.36608,0.11013 z M 30.4,130.56 V 79.68 H 20 9.6 v -7.2 -7.2 h 10.355095 10.355094 l 0.183933,-10 C 30.691787,44.533386 30.956686,41.390813 32.180445,35.274694 35.103162,20.66752 41.46295,11.141932 51.68,6.0685786 57.46727,3.1948662 62.75256,2.24 72.871606,2.24 H 79.36 V 9.8791549 17.51831 l -6.32,0.165234 c -9.640909,0.252057 -13.528826,1.544576 -18.030429,5.994129 -6.346249,6.272872 -8.598086,15.168669 -8.606269,33.998778 l -0.0033,7.596448 13.2,0.08355 13.2,0.08355 0.08612,7.12 0.08612,7.12 H 59.686128 46.400006 V 130.56 181.44 h -8 -8 v -50.88 z m 190.47914,-7.12 0.0809,-58 7.92,-0.08559 7.92,-0.08559 0.01,11.605591 0.01,11.60559 1.22135,-3.2 c 1.56536,-4.101357 2.56644,-6.077334 4.7825,-9.44 5.52364,-8.381603 14.48059,-13.703424 24.05628,-14.293187 3.36973,-0.207536 8.72261,0.441507 12,1.455021 1.90244,0.588313 1.91176,0.597062 1.01917,0.955958 -0.49545,0.199213 -1.02399,0.362208 -1.17453,0.362208 -0.58437,0 -4.10981,4.296883 -5.96727,7.27305 -1.07337,1.719824 -3.35797,5.64695 -5.0769,8.72695 -4.27288,7.656227 -6.57921,11.458653 -9.12238,15.04 -5.6271,7.924189 -11.14177,12.766829 -17.64669,15.496199 -2.08017,0.8728 -2.15116,0.94206 -3.12,3.04399 L 236.8,116.05104 V 148.74552 181.44 h -8.00086 -8.00087 z M 301.12,123.36 V 65.28 h 8 8 l 0.004,9.52 0.004,9.52 1.10842,-2.539069 c 3.93199,-9.007056 11.31071,-15.106717 21.56904,-17.830208 3.5298,-0.937133 12.15728,-1.177104 16.66295,-0.463478 11.90509,1.885581 20.48422,8.291718 25.75664,19.232755 0.76329,1.584 1.64528,3.708 1.95993,4.72 0.31463,1.012 0.66698,1.84 0.78298,1.84 0.116,0 0.39021,-0.612 0.60931,-1.36 0.67427,-2.301763 3.09383,-7.148694 4.80237,-9.62016 1.91523,-2.77048 6.11398,-6.940915 8.82054,-8.761062 4.32023,-2.905319 10.03648,-5.089655 15.79751,-6.036637 4.41933,-0.726442 13.59597,-0.494167 17.64249,0.446563 13.11642,3.049267 21.8688,11.521789 26.33332,25.491296 1.22752,3.840915 1.87657,6.778326 2.68873,12.16836 0.46378,3.07782 0.54423,8.22583 0.65133,41.67164 l 0.12218,38.16 h -8.00535 -8.00534 l -0.1057,-37.52 c -0.11536,-40.93903 -0.0488,-39.39884 -1.99088,-46.100451 -2.7927,-9.637053 -8.43347,-15.576576 -16.96829,-17.86705 -3.80643,-1.021523 -11.03443,-1.009878 -15.04,0.02422 -3.56265,0.919757 -5.68182,1.843059 -8.44224,3.678167 -5.38377,3.579142 -9.37638,9.576444 -11.68969,17.559224 -2.00487,6.91837 -1.91699,4.99822 -2.02778,44.30589 l -0.10128,35.92 h -7.97443 -7.97443 l -0.11123,-36.56 c -0.12055,-39.62372 -0.0648,-38.29797 -1.89991,-45.200007 -2.87891,-10.828035 -9.18547,-17.524714 -18.75059,-19.910442 -3.24838,-0.810214 -10.91453,-0.70983 -14.30842,0.18736 -11.98294,3.167747 -19.3138,13.246061 -21.40883,29.432439 -0.44027,3.40167 -0.51116,8.6715 -0.51116,38.00001 V 181.44 h -8 -8 z"
         id="path1860" />
      <path
         style="fill:#6b906a;stroke-width:0.32"
         d="m 127.04,183.51767 c -13.68894,-1.87492 -25.60702,-9.89393 -33.288045,-22.39767 -4.3992,-7.16134 -7.2464,-15.55244 -9.012125,-26.56 -0.653785,-4.07572 -0.553468,-18.9393 0.158743,-23.52 0.78536,-5.05117 2.28959,-11.054662 3.728323,-14.88 C 95.429984,78.071773 108.50848,66.563754 125.6,63.626656 c 3.27633,-0.563021 4.68551,-0.63392 9.6,-0.482998 6.35575,0.19518 9.93322,0.781929 14.88731,2.441705 9.40556,3.151152 16.70107,9.472807 21.27352,18.433802 l 1.43041,2.803299 0.0844,-10.691232 L 172.96,65.44 h 7.84 7.84 l 0.0809,58 0.0809,58 H 180.80086 172.8 l -0.009,-11.12 -0.009,-11.12 -1.35394,2.56 c -2.97571,5.62638 -6.95243,10.33394 -11.83997,14.01592 -8.44005,6.35823 -20.94028,9.33154 -32.5474,7.74175 z m 14.86586,-16.20182 c 14.53178,-2.50013 26.02846,-14.56173 29.56138,-31.01398 1.08394,-5.04776 1.43036,-9.28463 1.2404,-15.17074 -0.26877,-8.32835 -1.52745,-13.93179 -4.5492,-20.25223 C 165.91809,96.19288 163.67557,92.964941 160.32,89.596051 146.8982,76.120986 126.70029,75.5444 113.2298,88.251779 c -9.37658,8.845389 -14.423218,23.967461 -13.10462,39.267541 1.08455,12.58429 5.1643,22.40965 12.44658,29.97541 7.98751,8.29844 18.23764,11.73021 29.3341,9.82112 z M 555.84,183.81372 c -0.616,-0.0719 -2.488,-0.28662 -4.16,-0.47705 -3.56294,-0.40582 -7.97341,-1.31409 -11.44669,-2.35729 C 506.10278,170.72826 485.31504,136.73794 486.50048,93.12 486.96163,76.15193 490.14646,62.435891 496.68954,49.239165 500.83782,40.872506 505.64797,34.211101 512.0441,27.97516 525.32016,15.031589 542.02371,8.32 560.96115,8.32 c 19.74547,0 36.96512,7.257605 50.58045,21.318251 3.81642,3.94124 5.95258,6.61884 9.04794,11.34132 9.77011,14.905888 14.93996,34.106189 14.92716,55.437859 -0.0106,17.42955 -3.32425,32.706 -10.07868,46.46257 -4.75661,9.68757 -10.78772,17.64907 -18.23802,24.07542 -10.14627,8.75179 -22.15398,14.2394 -35.52,16.23286 -3.3625,0.5015 -13.48042,0.901 -15.84,0.62544 z m 14.69782,-16.81322 c 21.87482,-3.64435 39.23117,-21.24213 45.64941,-46.28433 4.49443,-17.53614 3.9225,-37.874404 -1.52653,-54.282151 C 607.90278,46.085056 593.90304,31.607823 576,26.454726 c -10.42467,-3.00057 -22.56611,-2.702487 -32.62186,0.800899 -21.71072,7.563911 -35.97248,27.671287 -39.9072,56.264375 -0.69638,5.060362 -0.78822,18.95546 -0.15971,24.16 3.14186,26.01684 15.05514,45.26079 33.83792,54.65962 10.01495,5.01144 21.58765,6.62693 33.38867,4.66088 z m 130.13946,16.64829 c -8.69197,-0.91675 -16.24211,-3.55481 -22.97158,-8.02638 -3.94397,-2.62067 -9.43898,-8.12159 -12.07431,-12.08731 -4.62717,-6.96303 -7.42349,-14.41326 -8.53059,-22.72805 -0.24656,-1.85188 -0.4511,-3.54705 -0.45456,-3.76705 -0.005,-0.30968 1.83184,-0.4 8.13414,-0.4 h 8.14042 l 0.20099,1.52 c 2.09107,15.81282 10.83277,25.77612 25.44119,28.99651 0.44163,0.0974 2.43721,0.33113 4.43465,0.5195 9.05059,0.85349 18.72883,-1.3161 25.54586,-5.72669 6.34281,-4.10379 10.68422,-10.00346 12.61974,-17.14932 0.9745,-3.59793 0.98595,-10.86557 0.0237,-15.09511 -2.23427,-9.82119 -8.32025,-17.11699 -18.11942,-21.72135 -3.83719,-1.803 -5.53859,-2.36147 -19.86755,-6.52139 -6.688,-1.941628 -13.456,-4.01686 -15.04,-4.611625 -3.88295,-1.457984 -9.02487,-4.058234 -12.27008,-6.204935 -4.86231,-3.216416 -10.16416,-8.820553 -12.79597,-13.52559 -5.80823,-10.383558 -6.80445,-26.497072 -2.41747,-39.100573 2.35113,-6.754651 5.41251,-11.658751 10.35084,-16.581409 6.43386,-6.413442 13.857,-10.28316 23.45978,-12.2297156 3.09558,-0.627495 4.54518,-0.7264317 10.4729,-0.7147866 5.91606,0.011622 7.35075,0.1151876 10.24,0.7391956 20.16252,4.3546216 32.73881,18.5540536 34.86185,39.3611926 0.18599,1.82265 0.33815,3.87465 0.33815,4.56 V 54.4 h -8.10103 -8.10102 l -0.37619,-3.6 c -0.20692,-1.98 -0.669,-4.654995 -1.02688,-5.944438 -3.69652,-13.318862 -15.26592,-21.220546 -29.91488,-20.4313 -8.34202,0.449445 -15.32343,3.482157 -20.5266,8.916708 -3.56236,3.720806 -5.80806,7.950096 -7.22185,13.600796 -0.99898,3.992778 -0.98877,11.861956 0.0202,15.618234 2.31661,8.623878 8.40989,14.891821 18.34086,18.866634 1.56378,0.625888 8.85165,2.853977 16.19527,4.951312 15.41494,4.402496 16.81369,4.872102 21.99203,7.383379 5.67731,2.753261 9.38134,5.342451 13.47424,9.418805 5.18227,5.16128 8.23891,10.07975 10.54253,16.96396 1.78707,5.34055 2.45788,9.91879 2.48736,16.97591 0.0275,6.60009 -0.42656,9.68749 -2.21732,15.0733 -4.40083,13.23572 -15.20937,23.82677 -29.17686,28.58967 -7.69245,2.62312 -17.84723,3.73759 -26.11267,2.86582 z M 30.4,130.56 V 79.68 H 20 9.6 v -7.2 -7.2 H 19.949502 30.299004 L 30.498828,55.6 C 30.705289,45.598464 31.186763,40.109491 32.35224,34.470467 34.274243,25.171071 38.159862,17.313796 43.43279,12.06402 48.22809,7.2897741 53.268733,4.6541594 60.48,3.1505023 62.826429,2.6612364 65.326934,2.4755688 71.44,2.3366989 L 79.36,2.1567812 V 9.8415805 17.52638 l -6.48,0.154746 C 63.021763,17.916548 59.646896,19.067052 54.847965,23.828312 52.709805,25.949687 51.99616,26.932317 50.77241,29.44 47.538435,36.066986 46.710368,40.99967 46.488278,54.96 L 46.324102,65.28 H 59.482051 72.64 v 7.2 7.2 H 59.52 46.4 v 50.88 50.88 h -8 -8 z m 190.72,-7.2 V 65.28 h 7.84 7.84 l 0.016,11.76 0.016,11.76 1.04783,-2.88 c 2.30178,-6.326499 5.36802,-11.356186 9.35143,-15.3396 4.03791,-4.03791 8.66956,-6.675482 14.47265,-8.241677 4.43666,-1.197414 13.00759,-0.791152 17.53563,0.831191 l 1.2405,0.444457 -1.12,0.489351 c -1.14772,0.501465 -2.97756,2.266105 -4.70389,4.536278 -1.38049,1.815392 -3.12305,4.723066 -7.80102,13.016992 -8.14675,14.443949 -13.22173,21.064418 -19.63377,25.612848 -2.1686,1.53831 -6.4238,3.80696 -7.83054,4.17483 -0.4485,0.11729 -0.98865,0.88415 -1.63071,2.31518 L 236.8,115.89966 V 148.66983 181.44 h -7.84 -7.84 z m 80,-0.006 V 65.26881 l 7.92,0.08559 7.92,0.08559 0.0911,9.44 0.0911,9.44 1.06986,-2.443606 c 3.04521,-6.955341 7.87206,-11.975344 14.75548,-15.345885 4.65219,-2.278006 8.48323,-3.182739 14.39248,-3.398896 13.62634,-0.498448 23.97158,3.851354 30.89757,12.991299 1.80179,2.37777 5.08246,8.662317 5.93693,11.37298 0.30931,0.98126 0.64627,1.784108 0.74883,1.784108 0.10256,0 0.45187,-0.756 0.77625,-1.68 1.79693,-5.118448 4.48308,-9.578377 7.99808,-13.279555 4.92932,-5.190422 10.74311,-8.403344 18.56141,-10.257705 3.26317,-0.773962 4.12285,-0.844244 10.28093,-0.840484 5.7225,0.0035 7.14749,0.104948 9.6,0.683482 17.22739,4.063875 26.33555,15.818154 29.47968,38.044092 0.47408,3.35142 0.55472,8.36621 0.66966,41.65017 l 0.13069,37.84 h -8.00768 -8.00768 l -0.11981,-37.84 c -0.1031,-32.57285 -0.18908,-38.19973 -0.61763,-40.42433 -2.53616,-13.164889 -8.28406,-20.540786 -18.12131,-23.253858 -3.57306,-0.985431 -11.87965,-0.965888 -15.56592,0.03662 -6.27286,1.705958 -11.58931,5.457568 -15.16954,10.704537 -2.60918,3.823872 -4.93174,10.025481 -5.94777,15.881511 -0.96445,5.55873 -1.10826,11.07819 -1.11543,42.81552 L 389.76,181.44 h -7.84 -7.84 v -34.6861 c 0,-20.99228 -0.12781,-35.99439 -0.32371,-38 C 371.94506,90.212291 363.17389,79.935174 348.48,79.137882 334.49325,78.378954 324.45283,85.431366 319.86791,99.235117 317.14077,107.44564 317.12,107.80754 317.12,147.11161 V 181.44 h -8 -8 v -58.08559 z"
         id="path1858" />
      <path
         style="fill:#5ead30;stroke-width:0.32"
         d="m 128.7078,183.67467 c -7.44756,-0.77042 -14.32994,-3.24611 -20.60209,-7.41086 -3.84159,-2.55084 -9.998158,-8.68196 -12.636049,-12.58381 -7.96968,-11.78841 -11.737354,-26.26297 -11.203155,-43.04 0.616323,-19.35627 6.59534,-34.552426 17.784244,-45.200125 9.0432,-8.605773 20.2803,-12.758128 33.30925,-12.308496 10.28028,0.354775 18.57841,3.000224 25.34817,8.081011 4.40579,3.306599 7.69218,7.282164 10.56173,12.776567 L 172.7798,86.88 172.78991,76.24 172.8,65.6 h 8 8 v 57.92 57.92 h -8 -8 l -0.005,-11.12 -0.005,-11.12 -1.44991,2.70076 c -6.20052,11.54967 -16.65482,19.03261 -29.73509,21.28367 -3.43862,0.59177 -9.6372,0.8274 -12.89651,0.49024 z M 140,167.64526 c 5.3057,-0.65019 10.41076,-2.53638 15.04,-5.55689 2.76044,-1.80114 8.11789,-7.25484 10.06751,-10.24837 3.23181,-4.96228 5.48042,-10.66257 6.80929,-17.2618 0.97598,-4.84678 1.04693,-16.83506 0.1289,-21.7782 -0.82412,-4.4374 -2.47376,-9.40398 -4.34295,-13.075318 C 156.58481,77.887597 130.18715,72.20239 113.4544,88.041331 105.04089,96.005421 100.5836,106.77119 99.957757,120.64 c -0.662691,14.68547 4.148763,28.45496 13.066763,37.3946 7.52901,7.54728 16.81533,10.85576 26.97548,9.61066 z m 416.32,16.15011 c -6.03357,-0.39969 -13.90579,-1.99605 -19.52,-3.95834 -4.02646,-1.40734 -10.63766,-4.67731 -14.24,-7.04325 -8.99158,-5.90549 -17.02454,-14.28732 -22.62038,-23.60275 C 490.57722,133.60538 485.81331,113.58334 486.5223,92.8 487.45725,65.393245 496.36848,42.967741 512.42077,27.625336 522.91472,17.595458 535.36742,11.483914 550.24,9.0643798 c 4.95427,-0.805983 16.504,-0.8042822 21.44,0.00317 16.03334,2.6227532 29.15651,9.4207252 40.00758,20.7244302 18.59802,19.373821 27.06269,50.273559 22.69536,82.84803 -3.51881,26.2459 -15.65673,47.2426 -34.64752,59.93493 -3.39216,2.26712 -10.72041,5.91045 -14.61542,7.26624 -3.88934,1.35383 -9.7705,2.76682 -13.88858,3.33684 -3.58252,0.4959 -11.68252,0.83125 -14.91142,0.61736 z m 9.80608,-16.13109 c 19.35328,-1.96063 35.22829,-13.26837 44.41667,-31.63788 4.03789,-8.07264 6.44346,-16.15307 7.91485,-26.5864 0.7071,-5.01388 0.80579,-20.121347 0.16512,-25.28 -3.94758,-31.78623 -21.65926,-53.763835 -47.50099,-58.941681 -5.21821,-1.045561 -15.10525,-1.045561 -20.32346,0 -5.13705,1.029303 -8.91267,2.327386 -13.67827,4.702692 -18.63408,9.287747 -30.65686,28.632343 -33.80934,54.398989 -0.56103,4.585498 -0.56794,19.33303 -0.0112,23.84 3.38275,27.38329 17.16899,47.8558 37.68793,55.96646 7.94426,3.14018 16.78397,4.38421 25.13866,3.53782 z M 701.44,183.6579 C 676.7825,181.60953 659.11702,163.58277 656.85392,138.16 l -0.1353,-1.52 h 8.09767 8.09766 l 0.20426,1.84 c 0.28589,2.57508 1.54553,7.60757 2.48861,9.94239 3.70633,9.17594 11.36796,15.82986 21.08355,18.31047 7.27133,1.85654 16.70307,1.47206 24.01942,-0.97916 5.52231,-1.85013 9.3649,-4.21945 13.21021,-8.1453 5.72749,-5.84745 8.53904,-13.49275 8.05744,-21.91012 -0.71568,-12.50836 -6.62765,-21.59758 -17.64989,-27.13541 -4.21011,-2.11525 -5.71769,-2.62804 -20.00281,-6.80393 -15.13386,-4.423983 -16.50349,-4.889926 -21.6072,-7.350655 -8.82407,-4.254464 -15.19914,-9.848112 -19.37728,-17.002099 -5.92708,-10.148548 -7.03594,-26.203191 -2.70714,-39.194762 4.30762,-12.928002 14.5496,-23.038356 27.68733,-27.331573 5.62182,-1.8371198 9.39088,-2.3818856 16.47955,-2.3818856 5.35635,0 6.98589,0.1173002 9.9929,0.7193197 20.36892,4.0780019 33.19356,18.6230539 35.28339,40.0166189 0.17805,1.82265 0.32371,3.73065 0.32371,4.24 V 54.4 h -8.16 -8.16 v -1.52 c 0,-0.836 -0.21226,-2.816 -0.47008,-4.4 -1.61328,-9.911466 -7.17069,-17.534981 -15.63293,-21.444764 -3.63987,-1.681732 -7.15664,-2.460223 -11.89571,-2.633294 -13.04122,-0.47627 -23.19597,5.142498 -28.47936,15.758058 -2.5607,5.145066 -3.18134,7.983338 -3.1839,14.56 -0.003,6.175264 0.40003,8.176048 2.5424,12.64 2.50739,5.224454 6.58688,9.1912 12.64086,12.291475 4.15526,2.12793 5.76442,2.667405 21.05907,7.060109 7.33751,2.107373 14.49293,4.276838 15.90093,4.821034 7.58032,2.929811 13.74646,6.820662 18.72198,11.813622 7.87008,7.89765 11.75604,16.93193 12.80669,29.77376 1.99527,24.38739 -13.52605,44.4595 -38.22998,49.4389 -6.29626,1.26908 -12.15978,1.61895 -18.41869,1.099 z M 30.640985,130.64 30.56,79.84 20.08,79.755629 9.6,79.671254 V 72.64 65.608746 L 20.08,65.524371 30.56,65.44 30.747002,54.24 C 30.943956,42.443901 31.231851,39.436138 32.799178,32.8 35.808912,20.056634 42.178723,10.935809 51.256157,6.3717658 57.066509,3.450377 61.441053,2.5817345 71.6,2.3321381 l 7.44,-0.1827942 v 7.6924734 7.6924737 l -6.48,0.146984 C 65.236054,17.847401 63.794131,18.12556 59.591149,20.183067 53.220691,23.301628 49.229059,29.767488 47.327315,40.048675 46.75801,43.126442 46.630941,45.350742 46.49375,54.64 L 46.331888,65.6 H 59.485942 72.64 v 7.04 7.04 H 59.52 46.4 v 50.88 50.88 H 38.560986 30.721969 Z M 221.12,123.52 V 65.6 h 7.84 7.84 l 0.008,11.76 0.008,11.76 0.80551,-2.4 c 0.44303,-1.32 1.57943,-3.991456 2.52533,-5.936566 4.60914,-9.47801 12.08069,-15.912109 21.20699,-18.262308 4.12041,-1.061088 9.6072,-1.115324 14.38256,-0.142166 1.78863,0.364499 3.58758,0.788086 3.99765,0.941306 0.72486,0.270828 0.71444,0.291817 -0.3744,0.754483 -2.60538,1.107069 -5.5982,5.215827 -11.59994,15.925251 -4.77916,8.527862 -6.85286,11.94209 -9.58869,15.787248 -2.63364,3.701517 -7.48909,8.861802 -10.46391,11.120872 -2.12819,1.61611 -7.47556,4.45188 -8.39487,4.45188 -0.30356,0 -0.89102,0.85296 -1.50524,2.18552 L 236.8,115.73104 V 148.58552 181.44 h -7.84 -7.84 z m 80,0 V 65.6 h 7.84 7.84 v 9.44 c 0,6.08 0.1139,9.44 0.32,9.44 0.176,0 0.32,-0.187616 0.32,-0.416928 0,-0.229309 0.57128,-1.598259 1.26951,-3.042109 4.88723,-10.106153 13.39385,-16.065798 25.22441,-17.671917 3.25395,-0.44176 10.08602,-0.27176 13.34608,0.332087 11.55091,2.13951 19.96141,8.649469 24.97494,19.331305 0.75056,1.599159 1.62055,3.735562 1.93328,4.747562 0.31277,1.012 0.66007,1.84 0.77178,1.84 0.11171,0 0.46109,-0.828 0.77635,-1.84 0.3153,-1.012 1.20611,-3.120579 1.97959,-4.685731 6.07491,-12.292499 17.47638,-19.260493 32.60406,-19.925952 24.14198,-1.061997 38.75539,13.285875 41.41984,40.667263 0.21814,2.24157 0.34016,16.79208 0.34016,40.56 V 181.44 h -7.8289 -7.82892 l -0.11012,-38.16 c -0.10899,-37.77074 -0.11721,-38.19244 -0.80515,-41.34058 -2.97897,-13.632111 -9.53341,-20.806937 -20.63721,-22.590534 -3.31226,-0.532051 -9.86672,-0.224665 -12.96634,0.608087 -2.63472,0.707853 -6.41786,2.420633 -8.47926,3.838931 -3.39373,2.334941 -7.39946,7.357606 -9.30586,11.668346 -1.3583,3.071372 -2.6552,7.50046 -3.43635,11.73575 -0.73683,3.99485 -0.73792,4.04522 -0.84544,39.12 l -0.10768,35.12 h -7.81184 -7.81187 l -0.11572,-37.2 c -0.12524,-40.2717 -0.0511,-38.48027 -1.86259,-44.981994 -2.18857,-7.855011 -6.89776,-14.290368 -12.62486,-17.25255 -4.47162,-2.312829 -6.79447,-2.80584 -13.10189,-2.780797 -4.98003,0.01978 -5.6825,0.0956 -8.3081,0.8968 -11.39769,3.478023 -17.89619,12.455088 -20.52869,28.358541 -0.49824,3.00997 -0.56909,6.98525 -0.68009,38.16 l -0.1239,34.8 H 308.93961 301.12 Z"
         id="path1856" />
      <path
         style="fill:#4a764a;stroke-width:0.32"
         d="m 128.7078,183.67467 c -7.44756,-0.77042 -14.32994,-3.24611 -20.60209,-7.41086 -3.84159,-2.55084 -9.998158,-8.68196 -12.636049,-12.58381 -7.96968,-11.78841 -11.737354,-26.26297 -11.203155,-43.04 0.616323,-19.35627 6.59534,-34.552426 17.784244,-45.200125 9.0432,-8.605773 20.2803,-12.758128 33.30925,-12.308496 10.28028,0.354775 18.57841,3.000224 25.34817,8.081011 4.40579,3.306599 7.69218,7.282164 10.56173,12.776567 L 172.7798,86.88 172.78991,76.24 172.8,65.6 h 8 8 v 57.92 57.92 h -8 -8 l -0.005,-11.12 -0.005,-11.12 -1.44991,2.70076 c -6.20052,11.54967 -16.65482,19.03261 -29.73509,21.28367 -3.43862,0.59177 -9.6372,0.8274 -12.89651,0.49024 z M 140,167.64526 c 5.3057,-0.65019 10.41076,-2.53638 15.04,-5.55689 2.76044,-1.80114 8.11789,-7.25484 10.06751,-10.24837 3.23181,-4.96228 5.48042,-10.66257 6.80929,-17.2618 0.97598,-4.84678 1.04693,-16.83506 0.1289,-21.7782 -0.82412,-4.4374 -2.47376,-9.40398 -4.34295,-13.075318 C 156.58481,77.887597 130.18715,72.20239 113.4544,88.041331 105.04089,96.005421 100.5836,106.77119 99.957757,120.64 c -0.662691,14.68547 4.148763,28.45496 13.066763,37.3946 7.52901,7.54728 16.81533,10.85576 26.97548,9.61066 z m 416.32,16.15011 c -6.03357,-0.39969 -13.90579,-1.99605 -19.52,-3.95834 -4.02646,-1.40734 -10.63766,-4.67731 -14.24,-7.04325 -8.99158,-5.90549 -17.02454,-14.28732 -22.62038,-23.60275 C 490.57722,133.60538 485.81331,113.58334 486.5223,92.8 487.45725,65.393245 496.36848,42.967741 512.42077,27.625336 522.91472,17.595458 535.36742,11.483914 550.24,9.0643798 c 4.95427,-0.805983 16.504,-0.8042822 21.44,0.00317 16.03334,2.6227532 29.15651,9.4207252 40.00758,20.7244302 18.59802,19.373821 27.06269,50.273559 22.69536,82.84803 -3.51881,26.2459 -15.65673,47.2426 -34.64752,59.93493 -3.39216,2.26712 -10.72041,5.91045 -14.61542,7.26624 -3.88934,1.35383 -9.7705,2.76682 -13.88858,3.33684 -3.58252,0.4959 -11.68252,0.83125 -14.91142,0.61736 z m 9.80608,-16.13109 c 19.35328,-1.96063 35.22829,-13.26837 44.41667,-31.63788 4.03789,-8.07264 6.44346,-16.15307 7.91485,-26.5864 0.7071,-5.01388 0.80579,-20.121347 0.16512,-25.28 -3.94758,-31.78623 -21.65926,-53.763835 -47.50099,-58.941681 -5.21821,-1.045561 -15.10525,-1.045561 -20.32346,0 -5.13705,1.029303 -8.91267,2.327386 -13.67827,4.702692 -18.63408,9.287747 -30.65686,28.632343 -33.80934,54.398989 -0.56103,4.585498 -0.56794,19.33303 -0.0112,23.84 3.38275,27.38329 17.16899,47.8558 37.68793,55.96646 7.94426,3.14018 16.78397,4.38421 25.13866,3.53782 z M 701.44,183.6579 C 676.7825,181.60953 659.11702,163.58277 656.85392,138.16 l -0.1353,-1.52 h 8.09767 8.09766 l 0.20426,1.84 c 0.28589,2.57508 1.54553,7.60757 2.48861,9.94239 3.70633,9.17594 11.36796,15.82986 21.08355,18.31047 7.27133,1.85654 16.70307,1.47206 24.01942,-0.97916 5.52231,-1.85013 9.3649,-4.21945 13.21021,-8.1453 5.72749,-5.84745 8.53904,-13.49275 8.05744,-21.91012 -0.71568,-12.50836 -6.62765,-21.59758 -17.64989,-27.13541 -4.21011,-2.11525 -5.71769,-2.62804 -20.00281,-6.80393 -15.13386,-4.423983 -16.50349,-4.889926 -21.6072,-7.350655 -8.82407,-4.254464 -15.19914,-9.848112 -19.37728,-17.002099 -5.92708,-10.148548 -7.03594,-26.203191 -2.70714,-39.194762 4.30762,-12.928002 14.5496,-23.038356 27.68733,-27.331573 5.62182,-1.8371198 9.39088,-2.3818856 16.47955,-2.3818856 5.35635,0 6.98589,0.1173002 9.9929,0.7193197 20.36892,4.0780019 33.19356,18.6230539 35.28339,40.0166189 0.17805,1.82265 0.32371,3.73065 0.32371,4.24 V 54.4 h -8.16 -8.16 v -1.52 c 0,-0.836 -0.21226,-2.816 -0.47008,-4.4 -1.61328,-9.911466 -7.17069,-17.534981 -15.63293,-21.444764 -3.63987,-1.681732 -7.15664,-2.460223 -11.89571,-2.633294 -13.04122,-0.47627 -23.19597,5.142498 -28.47936,15.758058 -2.5607,5.145066 -3.18134,7.983338 -3.1839,14.56 -0.003,6.175264 0.40003,8.176048 2.5424,12.64 2.50739,5.224454 6.58688,9.1912 12.64086,12.291475 4.15526,2.12793 5.76442,2.667405 21.05907,7.060109 7.33751,2.107373 14.49293,4.276838 15.90093,4.821034 7.58032,2.929811 13.74646,6.820662 18.72198,11.813622 7.87008,7.89765 11.75604,16.93193 12.80669,29.77376 1.99527,24.38739 -13.52605,44.4595 -38.22998,49.4389 -6.29626,1.26908 -12.15978,1.61895 -18.41869,1.099 z M 30.640985,130.64 30.56,79.84 20.08,79.755629 9.6,79.671254 V 72.64 65.608746 L 20.08,65.524371 30.56,65.44 30.747002,54.24 C 30.943956,42.443901 31.231851,39.436138 32.799178,32.8 35.808912,20.056634 42.178723,10.935809 51.256157,6.3717658 57.066509,3.450377 61.441053,2.5817345 71.6,2.3321381 l 7.44,-0.1827942 v 7.6924734 7.6924737 l -6.48,0.146984 C 65.236054,17.847401 63.794131,18.12556 59.591149,20.183067 53.220691,23.301628 49.229059,29.767488 47.327315,40.048675 46.75801,43.126442 46.630941,45.350742 46.49375,54.64 L 46.331888,65.6 H 59.485942 72.64 v 7.04 7.04 H 59.52 46.4 v 50.88 50.88 H 38.560986 30.721969 Z M 221.12,123.52 V 65.6 h 7.84 7.84 l 0.0176,11.76 0.0176,11.76 0.93404,-2.72 c 2.22701,-6.485258 5.84887,-12.328717 10.13922,-16.358451 2.89664,-2.720685 4.56942,-3.857962 8.21374,-5.584291 4.1816,-1.980842 7.71731,-2.755082 12.52591,-2.742893 3.58483,0.0091 8.81159,0.761664 11.0559,1.591888 0.65914,0.24383 0.61048,0.306464 -0.62088,0.799158 -0.73484,0.294023 -1.63624,0.534589 -2.00312,0.534589 -0.80124,0 -3.25888,1.202406 -5.33166,2.608518 -4.40929,2.991127 -11.44971,9.838813 -16.08493,15.644605 -6.95778,8.714893 -11.37186,16.05945 -16.27613,27.081787 l -2.58729,5.8149 v 32.8251 32.82509 h -7.84 -7.84 z m 80,0 V 65.6 h 7.84 7.84 v 9.44 c 0,6.08 0.1139,9.44 0.32,9.44 0.176,0 0.32,-0.187616 0.32,-0.416928 0,-0.229309 0.57128,-1.598259 1.26951,-3.042109 4.88723,-10.106153 13.39385,-16.065798 25.22441,-17.671917 3.25395,-0.44176 10.08602,-0.27176 13.34608,0.332087 11.55091,2.13951 19.96141,8.649469 24.97494,19.331305 0.75056,1.599159 1.62055,3.735562 1.93328,4.747562 0.31277,1.012 0.66007,1.84 0.77178,1.84 0.11171,0 0.46109,-0.828 0.77635,-1.84 0.3153,-1.012 1.20611,-3.120579 1.97959,-4.685731 6.07491,-12.292499 17.47638,-19.260493 32.60406,-19.925952 24.14198,-1.061997 38.75539,13.285875 41.41984,40.667263 0.21814,2.24157 0.34016,16.79208 0.34016,40.56 V 181.44 h -7.8289 -7.82892 l -0.11012,-38.16 c -0.10899,-37.77074 -0.11721,-38.19244 -0.80515,-41.34058 -2.97897,-13.632111 -9.53341,-20.806937 -20.63721,-22.590534 -3.31226,-0.532051 -9.86672,-0.224665 -12.96634,0.608087 -2.63472,0.707853 -6.41786,2.420633 -8.47926,3.838931 -3.39373,2.334941 -7.39946,7.357606 -9.30586,11.668346 -1.3583,3.071372 -2.6552,7.50046 -3.43635,11.73575 -0.73683,3.99485 -0.73792,4.04522 -0.84544,39.12 l -0.10768,35.12 h -7.81184 -7.81187 l -0.11572,-37.2 c -0.12524,-40.2717 -0.0511,-38.48027 -1.86259,-44.981994 -2.18857,-7.855011 -6.89776,-14.290368 -12.62486,-17.25255 -4.47162,-2.312829 -6.79447,-2.80584 -13.10189,-2.780797 -4.98003,0.01978 -5.6825,0.0956 -8.3081,0.8968 -11.39769,3.478023 -17.89619,12.455088 -20.52869,28.358541 -0.49824,3.00997 -0.56909,6.98525 -0.68009,38.16 l -0.1239,34.8 H 308.93961 301.12 Z"
         id="path1854" />
      <path
         style="fill:#4d8a30;stroke-width:0.32"
         d="m 129.58021,183.63523 c -5.45575,-0.34614 -11.45222,-1.99243 -16.47969,-4.52439 -15.127762,-7.61872 -25.238245,-23.50398 -28.182235,-44.27899 -0.868976,-6.13214 -0.794835,-17.86963 0.151689,-24.01558 3.923578,-25.476363 17.988736,-42.290884 39.216726,-46.882558 4.23406,-0.91584 13.7577,-0.989226 18.34875,-0.141392 12.70923,2.347037 21.49318,8.163686 27.53093,18.230723 0.72011,1.200675 1.57126,2.820135 1.89145,3.5988 0.3202,0.778666 0.69017,1.416298 0.82217,1.416957 0.132,6.4e-4 0.24,-4.8228 0.24,-10.7188 V 65.6 h 7.68 7.68 v 57.92 57.92 h -7.67591 -7.6759 l -0.0841,-11.28 -0.0841,-11.28 -1.4959,2.72 c -2.3066,4.19411 -4.58642,7.25125 -7.76048,10.40648 -8.60304,8.552 -20.21993,12.51087 -34.12341,11.62875 z M 140.32,167.66603 c 12.34394,-1.77052 22.29821,-9.3409 27.80659,-21.14734 6.46682,-13.86074 6.40274,-33.3725 -0.15244,-46.4101 -2.1761,-4.328046 -4.07362,-6.965361 -7.4749,-10.389172 -4.92852,-4.961178 -10.15217,-8.039383 -16.61008,-9.788039 -2.19823,-0.595232 -3.46597,-0.708464 -8.04917,-0.718941 -4.71382,-0.01078 -5.80309,0.0864 -8.16,0.727984 -17.5977,4.79034 -28.602499,22.778168 -27.738358,45.339578 0.285208,7.44654 1.474068,13.09262 4.059898,19.28125 6.71114,16.06164 21.19259,25.27433 36.31846,23.10478 z m 415.84,15.9892 c -22.2409,-1.31054 -41.66771,-12.65941 -54.44781,-31.8076 -2.81718,-4.22095 -6.96061,-12.37775 -8.72134,-17.169 -7.32048,-19.92011 -8.52202,-44.667302 -3.21408,-66.19863 6.01936,-24.417094 20.24979,-43.2638 39.98323,-52.953561 6.55222,-3.217352 13.15798,-5.278755 20.64,-6.4409449 4.56883,-0.7096797 15.69459,-0.8069043 20,-0.1747735 16.0031,2.3496234 29.02486,8.7689094 40.01485,19.7259774 7.86809,7.844531 13.72035,16.915769 18.00297,27.905408 8.41079,21.582924 9.33764,49.472404 2.40663,72.417894 -10.78176,35.69366 -39.5457,56.76461 -74.66445,54.69523 z m 10.49261,-15.99663 c 9.21872,-1.01281 18.08019,-4.29832 25.24937,-9.36151 3.76596,-2.65968 9.57002,-8.3193 12.44589,-12.1362 8.20855,-10.8944 13.02423,-24.347 14.55184,-40.6504 0.56304,-6.009184 0.22704,-18.676628 -0.64617,-24.36066 C 617.40266,75.611107 615.50061,68.096688 613.83155,63.68 610.05904,53.697107 605.13341,46.05272 598.11091,39.28217 590.45434,31.900313 582.18288,27.529878 571.52,25.232179 c -2.92842,-0.631036 -4.2848,-0.724033 -10.56,-0.724033 -8.05661,0 -10.78886,0.404619 -17.23254,2.551968 -11.25239,3.749848 -21.23002,11.574993 -28.33693,22.223822 -4.57011,6.847731 -8.28343,15.7612 -10.40675,24.980499 -2.61044,11.334221 -2.98999,26.906145 -0.95095,39.015565 4.28711,25.46055 18.71619,44.60177 38.92419,51.63571 7.56013,2.63151 15.91092,3.59816 23.69559,2.74289 z M 702.56,183.65077 c -20.34746,-1.24188 -36.22538,-13.1666 -42.82166,-32.16016 -1.39501,-4.01684 -2.38676,-8.52798 -2.66199,-12.1086 L 656.86557,136.64 h 8.00589 8.00588 l 0.21748,2 c 0.32966,3.0313 1.3455,7.0354 2.48076,9.77823 4.97031,12.00825 14.93133,18.71612 28.90442,19.46452 8.5696,0.45898 16.76733,-1.43168 23.67363,-5.45994 3.18394,-1.85709 8.24445,-6.99058 10.04755,-10.1924 2.9538,-5.24518 4.07069,-10.13755 3.7784,-16.55041 -0.61753,-13.54847 -7.724,-23.2877 -21.01958,-28.8068 -1.32,-0.54794 -8.088,-2.65113 -15.04,-4.67375 C 691.84486,98.104413 688.78038,97.111133 684.7488,95.337277 674.41498,90.790515 666.63885,83.925939 662.48122,75.68 c -5.2384,-10.389462 -5.89325,-25.772477 -1.61341,-37.901866 3.79133,-10.744865 11.24992,-19.248758 21.3263,-24.315066 11.29859,-5.6808094 26.47479,-6.6791179 38.87283,-2.557101 10.12704,3.366973 18.67888,10.46741 23.55501,19.557299 3.32359,6.195659 4.97191,12.515185 5.59661,21.456734 l 0.17328,2.48 h -8.10765 -8.10768 l -0.19632,-2.96 C 733.0608,37.580419 724.58147,27.626018 711.36147,24.886584 708.82893,24.361787 707.51683,24.284541 703.52,24.42493 c -2.69053,0.0945 -5.67971,0.388306 -6.80176,0.668529 -11.20893,2.799388 -18.93098,10.522899 -21.70067,21.704791 -0.67837,2.738684 -0.95027,10.041638 -0.48487,13.021667 0.90112,5.769798 3.17677,10.282333 7.19655,14.270467 2.9408,2.917667 6.24473,5.098019 10.52646,6.94665 1.61936,0.699152 9.40147,3.125856 17.2936,5.392672 18.32963,5.264729 21.95824,6.697097 29.15223,11.507609 9.63747,6.444455 15.81468,15.824925 18.4271,27.982685 0.99958,4.65186 1.25235,14.88983 0.47571,19.26752 -3.00211,16.92185 -14.43961,29.97868 -31.17097,35.58421 -4.0786,1.36646 -10.10132,2.54038 -14.12282,2.75275 -1.84282,0.0973 -3.92656,0.21828 -4.63056,0.26881 -0.704,0.0505 -3.008,-0.0136 -5.12,-0.14252 z M 30.72,130.56 V 79.68 H 20.16 9.6 V 72.64 65.6 h 10.56 10.56 l 0.0011,-8.88 C 30.722592,44.458454 31.301096,38.682906 33.277259,31.2 36.098294,20.517916 41.166176,12.811638 48.547066,7.9805568 54.85681,3.8505834 62.183126,2.2596064 74.96,2.2447455 L 79.04,2.24 v 7.6476653 7.6476657 l -6.64,0.151921 c -7.345853,0.168071 -8.867728,0.447582 -12.72895,2.337828 -6.405229,3.135652 -10.467504,9.647629 -12.360868,19.81492 -0.552457,2.966688 -0.680816,5.267965 -0.81656,14.64 L 46.33256,65.6 H 59.486278 72.64 v 7.04 7.04 H 59.52 46.4 v 50.88 50.88 h -7.84 -7.84 z m 190.4,-7.04 V 65.6 h 7.84 7.84 l 0.0176,11.76 0.0176,11.76 0.93404,-2.72 c 2.22701,-6.485258 5.84887,-12.328717 10.13922,-16.358451 2.89664,-2.720685 4.56942,-3.857962 8.21374,-5.584291 4.1816,-1.980842 7.71731,-2.755082 12.52591,-2.742893 3.58483,0.0091 8.81159,0.761664 11.0559,1.591888 0.65914,0.24383 0.61048,0.306464 -0.62088,0.799158 -0.73484,0.294023 -1.63624,0.534589 -2.00312,0.534589 -0.80124,0 -3.25888,1.202406 -5.33166,2.608518 -4.40929,2.991127 -11.44971,9.838813 -16.08493,15.644605 -6.95778,8.714893 -11.37186,16.05945 -16.27613,27.081787 l -2.58729,5.8149 v 32.8251 32.82509 h -7.84 -7.84 z m 80,0 V 65.6 h 7.84 7.84 v 9.653334 c 0,5.309332 0.088,9.565296 0.19564,9.457696 0.1076,-0.1076 0.65706,-1.257081 1.22103,-2.554406 1.60223,-3.685686 3.31011,-6.25264 6.08227,-9.141613 6.75844,-7.043222 15.89367,-10.395008 26.90106,-9.870217 16.40544,0.782147 27.5328,9.012518 32.84682,24.295206 0.41308,1.188 0.82572,2.16 0.91702,2.16 0.0913,0 0.43024,-0.756 0.75328,-1.68 3.79146,-10.845034 11.43594,-18.680448 21.8881,-22.434803 4.75142,-1.706685 8.31408,-2.240397 14.95478,-2.240336 6.75757,6.1e-5 9.78019,0.472665 14.83795,2.320019 11.43843,4.177878 19.08042,13.62536 22.54794,27.87512 2.01075,8.26316 1.93309,6.407168 2.05184,49.04 l 0.10854,38.96 h -7.84208 -7.84208 l -0.11005,-38.32 c -0.10768,-37.49531 -0.12444,-38.38567 -0.78009,-41.37136 -1.75863,-8.008563 -4.36919,-13.079651 -8.80352,-17.101088 -2.2033,-1.998138 -5.87082,-3.935456 -9.20845,-4.86425 -3.21501,-0.894665 -12.3392,-0.799753 -15.84,0.164775 -11.34675,3.126221 -18.0776,11.796253 -21.03248,27.091923 -0.66314,3.43274 -0.68291,4.39858 -0.79805,38.96 l -0.11808,35.44 H 381.9057 374.08 v -35.66361 c 0,-29.79891 -0.0786,-36.25831 -0.47776,-39.28 -1.85584,-14.047235 -7.97651,-22.941545 -18.03766,-26.211568 -2.71447,-0.882236 -3.64135,-1.020918 -7.72458,-1.155769 -6.14768,-0.203031 -9.65658,0.476336 -14.24,2.757043 -9.65056,4.802102 -15.19196,15.204054 -16.46746,30.911634 C 316.93175,115.2704 316.8,129.67987 316.8,149.16647 V 181.44 h -7.84 -7.84 z"
         id="path1852" />
      <path
         style="fill:#326532;stroke-width:0.32"
         d="m 129.58021,183.63523 c -5.45575,-0.34614 -11.45222,-1.99243 -16.47969,-4.52439 -15.127762,-7.61872 -25.238245,-23.50398 -28.182235,-44.27899 -0.868976,-6.13214 -0.794835,-17.86963 0.151689,-24.01558 3.923578,-25.476363 17.988736,-42.290884 39.216726,-46.882558 4.23406,-0.91584 13.7577,-0.989226 18.34875,-0.141392 12.70923,2.347037 21.49318,8.163686 27.53093,18.230723 0.72011,1.200675 1.57126,2.820135 1.89145,3.5988 0.3202,0.778666 0.69017,1.416298 0.82217,1.416957 0.132,6.4e-4 0.24,-4.8228 0.24,-10.7188 V 65.6 h 7.68 7.68 v 57.92 57.92 h -7.67591 -7.6759 l -0.0841,-11.28 -0.0841,-11.28 -1.4959,2.72 c -2.3066,4.19411 -4.58642,7.25125 -7.76048,10.40648 -8.60304,8.552 -20.21993,12.51087 -34.12341,11.62875 z M 140.32,167.66603 c 12.34394,-1.77052 22.29821,-9.3409 27.80659,-21.14734 6.46682,-13.86074 6.40274,-33.3725 -0.15244,-46.4101 -2.1761,-4.328046 -4.07362,-6.965361 -7.4749,-10.389172 -4.92852,-4.961178 -10.15217,-8.039383 -16.61008,-9.788039 -2.19823,-0.595232 -3.46597,-0.708464 -8.04917,-0.718941 -4.71382,-0.01078 -5.80309,0.0864 -8.16,0.727984 -17.5977,4.79034 -28.602499,22.778168 -27.738358,45.339578 0.285208,7.44654 1.474068,13.09262 4.059898,19.28125 6.71114,16.06164 21.19259,25.27433 36.31846,23.10478 z m 415.84,15.9892 c -22.2409,-1.31054 -41.66771,-12.65941 -54.44781,-31.8076 -2.81718,-4.22095 -6.96061,-12.37775 -8.72134,-17.169 -7.32048,-19.92011 -8.52202,-44.667302 -3.21408,-66.19863 6.01936,-24.417094 20.24979,-43.2638 39.98323,-52.953561 6.55222,-3.217352 13.15798,-5.278755 20.64,-6.4409449 4.56883,-0.7096797 15.69459,-0.8069043 20,-0.1747735 16.0031,2.3496234 29.02486,8.7689094 40.01485,19.7259774 7.86809,7.844531 13.72035,16.915769 18.00297,27.905408 8.41079,21.582924 9.33764,49.472404 2.40663,72.417894 -10.78176,35.69366 -39.5457,56.76461 -74.66445,54.69523 z m 10.49261,-15.99663 c 9.21872,-1.01281 18.08019,-4.29832 25.24937,-9.36151 3.76596,-2.65968 9.57002,-8.3193 12.44589,-12.1362 8.20855,-10.8944 13.02423,-24.347 14.55184,-40.6504 0.56304,-6.009184 0.22704,-18.676628 -0.64617,-24.36066 C 617.40266,75.611107 615.50061,68.096688 613.83155,63.68 610.05904,53.697107 605.13341,46.05272 598.11091,39.28217 590.45434,31.900313 582.18288,27.529878 571.52,25.232179 c -2.92842,-0.631036 -4.2848,-0.724033 -10.56,-0.724033 -8.05661,0 -10.78886,0.404619 -17.23254,2.551968 -11.25239,3.749848 -21.23002,11.574993 -28.33693,22.223822 -4.57011,6.847731 -8.28343,15.7612 -10.40675,24.980499 -2.61044,11.334221 -2.98999,26.906145 -0.95095,39.015565 4.28711,25.46055 18.71619,44.60177 38.92419,51.63571 7.56013,2.63151 15.91092,3.59816 23.69559,2.74289 z M 702.56,183.65077 c -20.34746,-1.24188 -36.22538,-13.1666 -42.82166,-32.16016 -1.39501,-4.01684 -2.38676,-8.52798 -2.66199,-12.1086 L 656.86557,136.64 h 8.00589 8.00588 l 0.21748,2 c 0.32966,3.0313 1.3455,7.0354 2.48076,9.77823 4.97031,12.00825 14.93133,18.71612 28.90442,19.46452 8.5696,0.45898 16.76733,-1.43168 23.67363,-5.45994 3.18394,-1.85709 8.24445,-6.99058 10.04755,-10.1924 2.9538,-5.24518 4.07069,-10.13755 3.7784,-16.55041 -0.61753,-13.54847 -7.724,-23.2877 -21.01958,-28.8068 -1.32,-0.54794 -8.088,-2.65113 -15.04,-4.67375 C 691.84486,98.104413 688.78038,97.111133 684.7488,95.337277 674.41498,90.790515 666.63885,83.925939 662.48122,75.68 c -5.2384,-10.389462 -5.89325,-25.772477 -1.61341,-37.901866 3.79133,-10.744865 11.24992,-19.248758 21.3263,-24.315066 11.29859,-5.6808094 26.47479,-6.6791179 38.87283,-2.557101 10.12704,3.366973 18.67888,10.46741 23.55501,19.557299 3.32359,6.195659 4.97191,12.515185 5.59661,21.456734 l 0.17328,2.48 h -8.10765 -8.10768 l -0.19632,-2.96 C 733.0608,37.580419 724.58147,27.626018 711.36147,24.886584 708.82893,24.361787 707.51683,24.284541 703.52,24.42493 c -2.69053,0.0945 -5.67971,0.388306 -6.80176,0.668529 -11.20893,2.799388 -18.93098,10.522899 -21.70067,21.704791 -0.67837,2.738684 -0.95027,10.041638 -0.48487,13.021667 0.90112,5.769798 3.17677,10.282333 7.19655,14.270467 2.9408,2.917667 6.24473,5.098019 10.52646,6.94665 1.61936,0.699152 9.40147,3.125856 17.2936,5.392672 18.32963,5.264729 21.95824,6.697097 29.15223,11.507609 9.63747,6.444455 15.81468,15.824925 18.4271,27.982685 0.99958,4.65186 1.25235,14.88983 0.47571,19.26752 -3.00211,16.92185 -14.43961,29.97868 -31.17097,35.58421 -4.0786,1.36646 -10.10132,2.54038 -14.12282,2.75275 -1.84282,0.0973 -3.92656,0.21828 -4.63056,0.26881 -0.704,0.0505 -3.008,-0.0136 -5.12,-0.14252 z M 30.72,130.56 V 79.68 H 20.16 9.6 V 72.64 65.6 h 10.56 10.56 l 0.0011,-8.88 C 30.722592,44.458454 31.301096,38.682906 33.277259,31.2 36.098294,20.517916 41.166176,12.811638 48.547066,7.9805568 54.85681,3.8505834 62.183126,2.2596064 74.96,2.2447455 L 79.04,2.24 v 7.6476653 7.6476657 l -6.64,0.151921 c -7.345853,0.168071 -8.867728,0.447582 -12.72895,2.337828 -6.405229,3.135652 -10.467504,9.647629 -12.360868,19.81492 -0.552457,2.966688 -0.680816,5.267965 -0.81656,14.64 L 46.33256,65.6 H 59.486278 72.64 v 7.04 7.04 H 59.52 46.4 v 50.88 50.88 h -7.84 -7.84 z m 190.4,-7.04 V 65.6 h 7.84 7.84 v 57.92 57.92 h -7.84 -7.84 z m 80,0 V 65.6 h 7.84 7.84 v 9.653334 c 0,5.309332 0.088,9.565296 0.19564,9.457696 0.1076,-0.1076 0.65706,-1.257081 1.22103,-2.554406 1.60223,-3.685686 3.31011,-6.25264 6.08227,-9.141613 6.75844,-7.043222 15.89367,-10.395008 26.90106,-9.870217 16.40544,0.782147 27.5328,9.012518 32.84682,24.295206 0.41308,1.188 0.82572,2.16 0.91702,2.16 0.0913,0 0.43024,-0.756 0.75328,-1.68 3.79146,-10.845034 11.43594,-18.680448 21.8881,-22.434803 4.75142,-1.706685 8.31408,-2.240397 14.95478,-2.240336 6.75757,6.1e-5 9.78019,0.472665 14.83795,2.320019 11.43843,4.177878 19.08042,13.62536 22.54794,27.87512 2.01075,8.26316 1.93309,6.407168 2.05184,49.04 l 0.10854,38.96 h -7.84208 -7.84208 l -0.11005,-38.32 c -0.10768,-37.49531 -0.12444,-38.38567 -0.78009,-41.37136 -1.75863,-8.008563 -4.36919,-13.079651 -8.80352,-17.101088 -2.2033,-1.998138 -5.87082,-3.935456 -9.20845,-4.86425 -3.21501,-0.894665 -12.3392,-0.799753 -15.84,0.164775 -11.34675,3.126221 -18.0776,11.796253 -21.03248,27.091923 -0.66314,3.43274 -0.68291,4.39858 -0.79805,38.96 l -0.11808,35.44 H 381.9057 374.08 v -35.66361 c 0,-29.79891 -0.0786,-36.25831 -0.47776,-39.28 -1.85584,-14.047235 -7.97651,-22.941545 -18.03766,-26.211568 -2.71447,-0.882236 -3.64135,-1.020918 -7.72458,-1.155769 -6.14768,-0.203031 -9.65658,0.476336 -14.24,2.757043 -9.65056,4.802102 -15.19196,15.204054 -16.46746,30.911634 C 316.93175,115.2704 316.8,129.67987 316.8,149.16647 V 181.44 h -7.84 -7.84 z"
         id="path1850" />
    </g>
  </g>
</svg>
