<svg xmlns="http://www.w3.org/2000/svg" role="img" viewBox="3.78 20.28 141.57 60.70"><path fill="#0079C1" fill-rule="evenodd" d="M28.5 49.5c-.7.5-1.6.9-2.5 1.3h8.3v-8.2c-.3.7-.8 1.8-1.3 2.5l-1.6-1.6c-.5.9-1.2 1.7-1.9 2.5-.8.8-1.6 1.4-2.5 1.9l1.5 1.6zm.1-8.7c-.4.9-1 1.8-1.8 2.6s-1.7 1.4-2.6 1.8l2.2 2.2c.9-.5 1.8-1.2 2.5-1.9.8-.8 1.4-1.6 1.9-2.5l-2.2-2.2zm5.2-.7c.5-2 .5-4.2 0-6.3h-1.1c.5 2.1.5 4.3 0 6.3h1.1zm-1.7 0c.5-1.9.6-4.2 0-6.3h-3.2c.7 2 .7 4.3 0 6.3h3.2zm.8-11.3c.4.6.9 1.6 1.3 2.5v-8.2h-8.3c.8.3 1.6.7 2.5 1.3L26.8 26c.9.5 1.7 1.1 2.5 1.9.8.8 1.4 1.6 1.9 2.5l1.7-1.6zm-8.7-.1c.9.4 1.8 1 2.6 1.8s1.3 1.6 1.8 2.6l2.2-2.2c-.5-.9-1.2-1.8-1.9-2.5-.8-.8-1.6-1.4-2.5-1.9l-2.2 2.2zm-.7-5.2c-2.1-.5-4.2-.5-6.3 0v1.1c2.1-.5 4.2-.5 6.3 0v-1.1zm0 1.7c-2.1-.6-4.2-.5-6.3 0v3.2c2-.7 4.3-.8 6.3 0v-3.2zM9.4 30.5c.5-.9 1.2-1.7 1.9-2.5.8-.8 1.6-1.4 2.5-1.9l-1.6-1.6c.8-.5 1.6-.9 2.5-1.3H6.5v8.3c.4-.9.8-1.7 1.3-2.5l1.6 1.5zm4.9-4.1c-.9.5-1.8 1.2-2.5 1.9-.8.8-1.4 1.6-1.9 2.5l2.2 2.2c.4-1 1-1.8 1.8-2.6s1.7-1.4 2.6-1.8l-2.2-2.2zm-5.7 7.4c-.5 2.1-.6 4.2 0 6.3h3.2c-.7-2-.7-4.3 0-6.3H8.6zm-1.7 0c-.5 2.1-.5 4.2 0 6.3H8c-.5-2-.5-4.2 0-6.3H6.9zm.9 11.3c-.5-.8-.9-1.6-1.3-2.5v8.3h8.2c-.9-.4-1.7-.8-2.5-1.3l1.7-1.6c-.9-.5-1.7-1.2-2.5-1.9-.8-.8-1.4-1.6-1.9-2.5l-1.7 1.5zm2-2.1c.5.9 1.2 1.8 1.9 2.5.8.8 1.6 1.4 2.5 1.9l2.2-2.2c-1-.4-1.8-1-2.6-1.8s-1.4-1.7-1.8-2.6L9.8 43zm7.4 2.5c2 .7 4.3.7 6.3 0v3.2c-2.1.6-4.2.5-6.3 0v-3.2zm0 3.8c2.1.5 4.2.5 6.3 0v1.1c-2.1.5-4.2.5-6.3 0v-1.1z" clip-rule="evenodd"/><path fill="#0079C1" d="M40.7 23h4.2l13.9 19.3V23h4.5v28h-3.8L45.2 31v19.9h-4.5V23zm35.7 13.8h3.9c3.4 0 5.5-1.8 5.5-4.7V32c0-3-2.1-4.6-5.6-4.6h-6.9v23.5h-4.7V23h12c3.4 0 6 1 7.8 2.8 1.4 1.5 2.2 3.6 2.2 6v.1c0 4.6-2.7 7.4-6.4 8.5L91.5 51h-5.6l-9.5-14.2zM95.6 23h21.3v4.4h-16v7.3h13V39h-13v7.5h16.2v4.4H95.6V23zm27 0h5.3v23.5h14.8V51h-20.1V23z"/><path fill="#5C6670" d="M9.9 58.9h-.4l-2.4-3v3h-.6v-4H7l2.4 3v-3h.6v4h-.1zm4.8 0h-.6l-.5-1h-2l-.5 1h-.6l1.8-4h.5l1.9 4zm-2.9-1.5h1.6l-.8-1.7-.8 1.7zm4.6 1.5h-.6v-3.4h-1.3V55h3.2v.5h-1.3v3.4zm2.6 0h-.6v-4h.6v4zm2.9.1c-1.2 0-2-.9-2-2 0-1.2.9-2.1 2-2.1 1.2 0 2 .9 2 2 0 1.2-.9 2.1-2 2.1zm0-3.6c-.8 0-1.5.6-1.5 1.5s.6 1.5 1.5 1.5c.8 0 1.5-.7 1.5-1.5-.1-.8-.7-1.5-1.5-1.5zm6.2 3.5h-.4l-2.4-3v3h-.6v-4h.5l2.4 3v-3h.6v4h-.1zm4.8 0h-.6l-.5-1h-2l-.5 1h-.6l1.8-4h.5l1.9 4zM30 57.4h1.6l-.8-1.7-.8 1.7zm6.2 1.5h-2.8v-4h.6v3.4h2.2v.6zm2.9 0h-.6v-4h1.7c.5 0 .9.1 1.1.4.2.2.3.5.3.8 0 .6-.4 1-1 1.2l1.2 1.6h-.7l-1.5-2h.5c.6 0 .9-.3.9-.7 0-.5-.3-.7-.9-.7H39v3.4zm50.5 0H89v-4h1.7c.5 0 .9.1 1.1.4.2.2.3.5.3.8 0 .6-.4 1-1 1.2l1.2 1.6h-.7l-1.5-2h.5c.6 0 .9-.3.9-.7 0-.5-.3-.7-.9-.7h-1.1v3.4zm30.4 0h-.6v-4h1.7c.5 0 .9.1 1.1.4.2.2.3.5.3.8 0 .6-.4 1-1 1.2l1.2 1.6h-.7l-1.5-2h.5c.6 0 .9-.3.9-.7 0-.5-.3-.7-.9-.7h-1v3.4zm15.9 0h-.6v-4h1.7c.5 0 .9.1 1.1.4.2.2.3.5.3.8 0 .6-.4 1-1 1.2l1.2 1.6h-.6l-1.5-2h.5c.6 0 .9-.3.9-.7 0-.5-.3-.7-.9-.7h-1.1v3.4zm-90.4 0h-3v-4h2.9v.5H43v1.2h2.1v.5H43v1.2h2.4v.6h.1zm4.2 0h-.4l-2.4-3v3h-.6v-4h.5l2.4 3v-3h.6v4h-.1zm3.9 0h-3v-4h2.9v.5h-2.4v1.2h2v.5h-2v1.2h2.4v.6h.1zm4.9.1H58l-1-3-1 3h-.5l-1.4-4h.6l1.1 3.1 1-3.1h.5l1 3.1 1.1-3.1h.6l-1.5 4zm5.3-.1h-.6l-.5-1h-2l-.5 1h-.6l1.8-4h.6l1.8 4zm-2.9-1.5h1.6l-.8-1.7-.8 1.7zm5.3 1.5h-1.8v-4h1.7c.4 0 .8.1 1.1.4.2.2.3.4.3.7 0 .5-.3.7-.5.9.5.2.7.5.7.9 0 .7-.6 1.1-1.5 1.1zm-1.2-.5h1.2c.6 0 .9-.2.9-.6 0-.5-.6-.6-1-.6H65v1.2zm0-1.7h1.1c.5 0 .8-.2.8-.6 0-.4-.3-.6-.8-.6H65v1.2zm6.2 2.2h-2.8v-4h.6v3.4h2.2v.6zm3.6 0h-3v-4h2.9v.5h-2.4v1.2h2v.5h-2v1.2h2.4v.6h.1zm5.4 0h-3v-4h2.9v.5h-2.4v1.2h2v.5h-2v1.2h2.4v.6h.1zm4.2 0H84l-2.4-3v3H81v-4h.5l2.3 2.9v-3h.6v4.1zm3.9 0h-3v-4h2.9v.5h-2.4v1.2h2v.5h-2v1.2h2.4v.6h.1zm6.6.1c-1.2 0-2-.8-2-2s.9-2.1 2-2.1c.6 0 1 .2 1.5.5l-.4.4c-.3-.2-.6-.4-1.1-.4-.8 0-1.4.7-1.4 1.5 0 .9.6 1.5 1.5 1.5.4 0 .8-.1 1.1-.4v-.9h-1.2v-.5h1.7v1.6c-.3.4-.9.8-1.7.8zm4.1-.1h-.6v-1.6L96.8 55h.7l1.3 1.9L100 55h.7L99 57.4v1.5zm6.6 0h-2.8v-4h.6v3.4h2.2v.6zm4.5 0h-.6l-.5-1h-2l-.5 1h-.6l1.8-4h.5l1.9 4zm-2.9-1.5h1.6l-.8-1.7-.8 1.7zm5.3 1.5h-1.8v-4h1.7c.5 0 .8.1 1.1.4.2.2.3.4.3.7 0 .5-.3.7-.5.9.5.2.7.5.7.9-.1.7-.6 1.1-1.5 1.1zm-1.3-.5h1.2c.6 0 .9-.2.9-.6 0-.5-.6-.6-1-.6h-1.2v1.2h.1zm0-1.7h1.1c.5 0 .8-.2.8-.6 0-.4-.3-.6-.8-.6h-1.1v1.2zm5.3 2.3c-1.2 0-2-.9-2-2 0-1.2.9-2.1 2-2.1 1.2 0 2 .9 2 2 .1 1.2-.8 2.1-2 2.1zm0-3.6c-.8 0-1.5.6-1.5 1.5s.6 1.5 1.5 1.5c.8 0 1.5-.7 1.5-1.5s-.6-1.5-1.5-1.5zm10.7 3.5h-.6l-.5-1h-2l-.5 1h-.6l1.8-4h.5l1.9 4zm-2.9-1.5h1.6l-.8-1.7-.8 1.7zm4.6 1.5h-.6v-3.4H127V55h3.2v.5h-1.3v3.4zm3.6.1c-1.2 0-2-.9-2-2 0-1.2.9-2.1 2-2.1 1.2 0 2 .9 2 2 0 1.2-.9 2.1-2 2.1zm0-3.6c-.8 0-1.5.6-1.5 1.5s.6 1.5 1.5 1.5c.8 0 1.5-.7 1.5-1.5-.1-.8-.7-1.5-1.5-1.5zm8.5 3.5h-.6v-1.6l-1.7-2.4h.7l1.3 1.9L142 55h.7l-1.7 2.4v1.5z"/><path d="M19.55305 62.68818v15.26108h3.17313v-6.40818h6.70897v-2.6541h-6.70897v-3.51226h7.6615v-2.68654zm17.14844 9.48693l1.96993-6.013 1.908 6.013zm.19758-9.50757l-5.4527 15.28172h3.33827l1.05574-3.14069h5.62964l.98497 3.14069h3.46507l-5.41141-15.28172zm1.78414 0zM50.16957 73.2338H47.1203c0 1.5895.57211 2.83693 1.71337 3.74522 1.13832.91125 2.70424 1.3654 4.69481 1.3654 1.94929 0 3.45918-.463 4.52672-1.38604 1.06753-.92009 1.6013-2.082 1.6013-3.47687 0-1.36244-.4571-2.40343-1.36833-3.12004-.58685-.463-1.45976-.83457-2.61282-1.10883l-2.63345-.63403c-1.0174-.24182-1.68093-.4512-1.99058-.63109-.48364-.2713-.72545-.67827-.72545-1.22383 0-.5957.24476-1.0587.7343-1.38898.49248-.33324 1.14716-.49838 1.96993-.49838.7402 0 1.35949.1268 1.85787.38337.7461.38632 1.14716 1.041 1.2032 1.95814h3.06695c-.05603-1.62196-.65173-2.86054-1.7871-3.71575-1.1383-.85226-2.51254-1.27986-4.1227-1.27986-1.92864 0-3.3884.4512-4.38516 1.35654-.99381.9083-1.4922 2.04366-1.4922 3.412 0 1.50103.51313 2.60396 1.54528 3.30877.6075.4217 1.70748.81098 3.29699 1.17075l1.61605.36273c.94663.20643 1.6426.4453 2.08494.7166.44235.27426.66353.66648.66353 1.17076 0 .86406-.4453 1.45386-1.33885 1.77235-.46889.16514-1.08228.24772-1.83428.24772-1.25922 0-2.14687-.3126-2.6659-.94368-.2831-.34504-.47183-.86701-.56915-1.56297zm3.0994-11.03221zm19.85562.46594h-12.3799v2.70718h4.59159v12.57454h3.2144V65.37472h4.5739zm1.57476 12.19116v3.09056h3.14069V74.8587zm6.18995-12.17052v15.26108h3.17313v-6.40818h6.70602v-2.6541h-6.70602v-3.51226h7.6615v-2.68654zm18.96207 9.76709v1.09998c-.02064.98791-.29785 1.66913-.83456 2.0407-.53672.37453-1.12062.56031-1.7576.56031-.40107 0-.7402-.11206-1.02036-.33618-.28016-.22413-.4217-.5898-.4217-1.09408 0-.5662.23001-.98497.68416-1.25627.2713-.15925.7166-.29196 1.33884-.40402l.66353-.12386c.33029-.06193.59275-.12975.78149-.20053.19168-.07372.38042-.1681.5662-.28605zm-1.79299-1.38013l-1.0056.12385c-1.14127.14746-2.00533.38927-2.59218.7284-1.07049.62225-1.6072 1.62786-1.6072 3.01683 0 1.0705.33323 1.89916.9997 2.48306.66648.5839 1.51284.87586 2.53615.87586.80212 0 1.51873-.18284 2.15572-.55147.53082-.30964 1.00266-.68711 1.40962-1.12946a8.56539 8.56539 0 0 0 .08257.68416c.03539.20054.09732.41581.18874.64289h3.21146v-.43646c-.19169-.08847-.33619-.20348-.4335-.34208-.09732-.13565-.1563-.39812-.17695-.78738-.01474-.51018-.02064-.94663-.02064-1.30641v-5.1814c0-1.36243-.48069-2.28842-1.44206-2.7809-.96137-.48953-2.0584-.7343-3.29698-.7343-1.89916 0-3.24095.49543-4.02244 1.4922-.48953.63698-.76674 1.44795-.82867 2.43587h2.85169c.06782-.43646.20643-.78149.41286-1.0351.29195-.34798.78443-.51903 1.48334-.51903.62224 0 1.09408.08847 1.41552.26246.32144.17694.48069.49839.48069.96138 0 .38042-.20938.65763-.63109.83751-.23592.10617-.62518.19169-1.17075.25952zm.15335-4.72725zm13.49462.03539c-.03833-.00295-.08552-.00295-.1386-.00295-.8847 0-1.60426.23002-2.15867.69301-.33618.27721-.7343.79328-1.1914 1.54528v-1.96993h-2.81924v11.30057h2.97554v-5.39962c0-.9083.11207-1.57772.34209-2.01417.40696-.77264 1.20614-1.15896 2.39458-1.15896.08847 0 .20643.00295.35094.00885.14745.00885.31259.02064.49838.04129v-3.02568c-.12976-.00885-.21528-.0118-.25362-.0177zm16.0868.3067c-.48659-.1917-.97612-.289-1.4745-.289-.7461 0-1.42142.15334-2.03186.46593-.5721.30965-1.0528.79918-1.43911 1.4627-.22118-.5544-.54852-1.0056-.97612-1.35948-.53082-.38042-1.22974-.56916-2.0938-.56916-.91123 0-1.65438.22118-2.22944.66353-.32439.24771-.66942.66647-1.0351 1.25332v-1.64849h-2.87232v11.27993h2.99618v-6.8004c0-.61634.07962-1.07933.23887-1.38898.289-.54556.85521-.81982 1.69862-.81982.72546 0 1.215.27426 1.4627.81982.13861.30375.20644.79034.20644 1.4627v6.72668h2.97554v-6.72667c0-.50723.07962-.93778.23887-1.29756.3126-.67827.87585-1.01446 1.68978-1.01446.7048 0 1.18844.26246 1.4509.78738.1386.27426.20938.62814.20938 1.05575v7.19556h3.02568l.02064-7.12184c0-.7343-.03539-1.28871-.10322-1.66913-.1091-.57506-.32439-1.0587-.64288-1.45091-.39516-.48364-.83162-.82277-1.31525-1.0174z"/></svg>
