<?xml version="1.0" encoding="UTF-8" standalone="no"?>
<!-- Created with Inkscape (http://www.inkscape.org/) -->

<svg
   width="229.02559"
   height="323.07336"
   id="svg3332"
   version="1.1"
   inkscape:version="1.2.2 (b0a84865, 2022-12-01)"
   sodipodi:docname="FOQUS.svg"
   xmlns:inkscape="http://www.inkscape.org/namespaces/inkscape"
   xmlns:sodipodi="http://sodipodi.sourceforge.net/DTD/sodipodi-0.dtd"
   xmlns="http://www.w3.org/2000/svg"
   xmlns:svg="http://www.w3.org/2000/svg"
   xmlns:rdf="http://www.w3.org/1999/02/22-rdf-syntax-ns#"
   xmlns:cc="http://creativecommons.org/ns#"
   xmlns:dc="http://purl.org/dc/elements/1.1/">
  <defs
     id="defs3334" />
  <sodipodi:namedview
     id="base"
     pagecolor="#ffffff"
     bordercolor="#666666"
     borderopacity="1.0"
     inkscape:pageopacity="0.0"
     inkscape:pageshadow="2"
     inkscape:zoom="1.9313783"
     inkscape:cx="95.00987"
     inkscape:cy="210.98922"
     inkscape:document-units="px"
     inkscape:current-layer="layer1"
     showgrid="true"
     width="256px"
     inkscape:window-width="1560"
     inkscape:window-height="871"
     inkscape:window-x="0"
     inkscape:window-y="25"
     inkscape:window-maximized="0"
     inkscape:showpageshadow="2"
     inkscape:pagecheckerboard="0"
     inkscape:deskcolor="#d1d1d1">
    <inkscape:grid
       type="xygrid"
       id="grid3340"
       empspacing="5"
       visible="true"
       enabled="true"
       snapvisiblegridlinesonly="true"
       spacingx="1"
       spacingy="1"
       empcolor="#0000ff"
       empopacity="0.25098039"
       color="#006970"
       opacity="0.1254902"
       originx="-12.541876"
       originy="-15.220635" />
  </sodipodi:namedview>
  <metadata
     id="metadata3337">
    <rdf:RDF>
      <cc:Work
         rdf:about="">
        <dc:format>image/svg+xml</dc:format>
        <dc:type
           rdf:resource="http://purl.org/dc/dcmitype/StillImage" />
        <dc:title />
      </cc:Work>
    </rdf:RDF>
  </metadata>
  <g
     inkscape:label="Layer 1"
     inkscape:groupmode="layer"
     id="layer1"
     transform="translate(-12.541876,-811.58282)">
    <g
       aria-label="FOQUS"
       id="text1481"
       style="font-size:40px"
       transform="matrix(1.5543392,0,0,1.5543392,-69.637563,-591.52267)">
      <path
         d="M 77.881317,1077.2345 H 63.174286 v 8.2031 h 12.636719 v 3.4375 H 63.174286 v 14.0039 h -3.867188 v -29.082 h 18.574219 z"
         id="path1483" />
      <path
         d="m 103.97507,1077.1368 q 1.77734,1.9532 2.71484,4.7852 0.95703,2.832 0.95703,6.4258 0,3.5937 -0.97656,6.4453 -0.95703,2.832 -2.69531,4.7266 -1.79688,1.9726 -4.257815,2.9687 -2.441407,0.9961 -5.585938,0.9961 -3.066406,0 -5.585937,-1.0156 -2.5,-1.0157 -4.257813,-2.9492 -1.757812,-1.9336 -2.714844,-4.7461 -0.9375,-2.8125 -0.9375,-6.4258 0,-3.5547 0.9375,-6.3672 0.9375,-2.832 2.734375,-4.8438 1.71875,-1.914 4.257813,-2.9296 2.558594,-1.0157 5.566406,-1.0157 3.125,0 5.605469,1.0352 2.500004,1.0156 4.238284,2.9101 z m -0.35157,11.211 q 0,-5.6641 -2.53906,-8.7305 -2.53906,-3.0859 -6.933592,-3.0859 -4.433593,0 -6.972656,3.0859 -2.519531,3.0664 -2.519531,8.7305 0,5.7226 2.578125,8.7695 2.578125,3.0274 6.914062,3.0274 4.335938,0 6.894532,-3.0274 2.57812,-3.0469 2.57812,-8.7695 z"
         id="path1485" />
      <path
         d="m 139.71725,1110.0079 q -1.17187,0.293 -2.32421,0.4102 -1.13282,0.1367 -2.32422,0.1367 -3.39844,0 -5.46875,-1.875 -2.05078,-1.8555 -2.22657,-5.332 -0.46875,0.078 -0.91796,0.098 -0.42969,0.039 -0.83985,0.039 -3.0664,0 -5.58594,-1.0156 -2.5,-1.0157 -4.25781,-2.9492 -1.75781,-1.9336 -2.71484,-4.7461 -0.9375,-2.8125 -0.9375,-6.4258 0,-3.5547 0.9375,-6.3672 0.9375,-2.832 2.73437,-4.8438 1.71875,-1.914 4.25782,-2.9296 2.55859,-1.0157 5.5664,-1.0157 3.125,0 5.60547,1.0352 2.5,1.0156 4.23828,2.9101 1.77735,1.9532 2.71485,4.7852 0.95703,2.832 0.95703,6.4258 0,5.332 -2.1875,8.9844 -2.16797,3.6523 -5.83985,5.1171 0.0781,2.2266 1.05469,3.4571 0.97656,1.2304 3.55469,1.2304 0.80078,0 1.89453,-0.2539 1.11328,-0.2343 1.58203,-0.4297 h 0.52734 z m -4.60937,-21.6601 q 0,-5.6641 -2.53906,-8.7305 -2.53907,-3.0859 -6.9336,-3.0859 -4.43359,0 -6.97265,3.0859 -2.51953,3.0664 -2.51953,8.7305 0,5.7226 2.57812,8.7695 2.57813,3.0274 6.91406,3.0274 4.33594,0 6.89453,-3.0274 2.57813,-3.0469 2.57813,-8.7695 z"
         id="path1487" />
      <path
         d="m 167.15866,1091.1993 q 0,3.1641 -0.70312,5.5274 -0.6836,2.3437 -2.26563,3.9062 -1.50391,1.4844 -3.51562,2.168 -2.01172,0.6836 -4.6875,0.6836 -2.73438,0 -4.76563,-0.7227 -2.03125,-0.7226 -3.41797,-2.1289 -1.58203,-1.6015 -2.28515,-3.8672 -0.6836,-2.2656 -0.6836,-5.5664 v -17.4023 h 3.86719 v 17.5977 q 0,2.3632 0.3125,3.7304 0.33203,1.3672 1.09375,2.4805 0.85937,1.2695 2.32422,1.9141 1.48437,0.6445 3.55469,0.6445 2.08984,0 3.55468,-0.625 1.46485,-0.6445 2.34375,-1.9336 0.76172,-1.1133 1.07422,-2.5391 0.33203,-1.4453 0.33203,-3.5742 v -17.6953 h 3.86719 z"
         id="path1489" />
      <path
         d="m 195.67429,1094.5782 q 0,1.6993 -0.80079,3.3594 -0.78125,1.6602 -2.20703,2.8125 -1.5625,1.25 -3.65234,1.9531 -2.07031,0.7032 -5,0.7032 -3.14453,0 -5.66406,-0.586 -2.5,-0.5859 -5.09766,-1.7382 v -4.8438 h 0.27344 q 2.20703,1.8359 5.09765,2.832 2.89063,0.9961 5.42969,0.9961 3.59375,0 5.58594,-1.3476 2.01172,-1.3477 2.01172,-3.5938 0,-1.9336 -0.95703,-2.8515 -0.9375,-0.918 -2.8711,-1.4258 -1.46484,-0.3906 -3.18359,-0.6446 -1.69922,-0.2539 -3.61328,-0.6445 -3.86719,-0.8203 -5.74219,-2.793 -1.85547,-1.9921 -1.85547,-5.1757 0,-3.6524 3.08594,-5.9766 3.08594,-2.3437 7.83203,-2.3437 3.06641,0 5.625,0.5859 2.55859,0.5859 4.53125,1.4453 v 4.5703 h -0.27344 q -1.66015,-1.4062 -4.375,-2.3242 -2.69531,-0.9375 -5.52734,-0.9375 -3.10547,0 -5,1.2891 -1.875,1.289 -1.875,3.3203 0,1.8164 0.9375,2.8515 0.9375,1.0352 3.30078,1.5821 1.25,0.2734 3.55469,0.664 2.30469,0.3907 3.90625,0.8008 3.24219,0.8594 4.88281,2.5977 1.64063,1.7382 1.64063,4.8632 z"
         id="path1491" />
    </g>
    <circle
       style="fill:#3771c8;stroke:none"
       id="path3016"
       transform="matrix(1.034501,-0.58510098,0.59726938,1.0134246,-40.903644,769.0374)"
       cx="62.5"
       cy="137.5"
       r="12.5" />
    <circle
       style="fill:#3771c8;fill-opacity:1;stroke:none"
       id="path3012"
       transform="matrix(1.034501,-0.58510098,0.59726938,1.0134246,-25.971902,794.37299)"
       cx="62.5"
       cy="67.5"
       r="12.5" />
    <circle
       style="fill:#000000;fill-opacity:0.622642;stroke:none"
       id="path3014"
       transform="matrix(0.80461171,-0.45507848,0.46454289,0.78821922,-5.4652618,796.66238)"
       cx="62.5"
       cy="102.5"
       r="22.5" />
    <circle
       style="fill:#3771c8;stroke:none"
       id="path3016-9"
       transform="matrix(0.89289146,0.77734944,-0.79351605,0.87470023,219.24429,713.2316)"
       cx="62.5"
       cy="137.5"
       r="12.5" />
    <circle
       style="fill:#3771c8;fill-opacity:1;stroke:none"
       id="path3012-4"
       transform="matrix(0.89289146,0.77734944,-0.79351605,0.87470023,199.40642,735.09909)"
       cx="62.5"
       cy="67.5"
       r="12.5" />
    <circle
       style="fill:#000000;fill-opacity:0.622642;stroke:none"
       id="path3014-8"
       transform="matrix(0.69447107,0.60460504,-0.61717921,0.68032245,203.6521,754.88561)"
       cx="62.5"
       cy="102.5"
       r="22.5" />
    <circle
       style="fill:#3771c8;stroke:none"
       id="path3016-8"
       transform="matrix(-0.25453349,-1.1433277,1.1671056,-0.24934779,-64.575305,1034.4906)"
       cx="62.5"
       cy="137.5"
       r="12.5" />
    <circle
       style="fill:#3771c8;fill-opacity:1;stroke:none"
       id="path3012-2"
       transform="matrix(-0.25453349,-1.1433277,1.1671056,-0.24934779,-35.397675,1028.2569)"
       cx="62.5"
       cy="67.5"
       r="12.5" />
    <circle
       style="fill:#000000;fill-opacity:0.622642;stroke:none"
       id="path3014-4"
       transform="matrix(-0.19797048,-0.88925478,0.90774889,-0.1939372,-26.937626,1009.8147)"
       cx="62.5"
       cy="102.5"
       r="22.5" />
    <circle
       style="fill:#3771c8;stroke:none"
       id="path3016-5"
       transform="matrix(-0.4908313,1.0668522,-1.0890397,-0.48083141,358.04884,936.29138)"
       cx="62.5"
       cy="137.5"
       r="12.5" />
    <circle
       style="fill:#3771c8;fill-opacity:1;stroke:none"
       id="path3012-5"
       transform="matrix(-0.4908313,1.0668522,-1.0890397,-0.48083141,330.82287,924.27059)"
       cx="62.5"
       cy="67.5"
       r="12.5" />
    <circle
       style="fill:#000000;fill-opacity:0.622642;stroke:none"
       id="path3014-1"
       transform="matrix(-0.38175765,0.82977387,-0.84703095,-0.37397999,312.81285,934.14615)"
       cx="62.5"
       cy="102.5"
       r="22.5" />
    <circle
       style="fill:#3771c8;stroke:none"
       id="path3016-7"
       transform="matrix(-1.1889529,-0.11303493,0.11538573,-1.1647299,184.80343,1138.6907)"
       cx="62.5"
       cy="137.5"
       r="12.5" />
    <circle
       style="fill:#3771c8;fill-opacity:1;stroke:none"
       id="path3012-1"
       transform="matrix(-1.1889529,-0.11303493,0.11538573,-1.1647299,187.68807,1109.5725)"
       cx="62.5"
       cy="67.5"
       r="12.5" />
    <circle
       style="fill:#000000;fill-opacity:0.622642;stroke:none"
       id="path3014-15"
       transform="matrix(-0.92474101,-0.08791604,0.08974444,-0.9059011,172.36072,1096.0317)"
       cx="62.5"
       cy="102.5"
       r="22.5" />
  </g>
</svg>
