<svg width="234" height="72.201" viewBox="0 0 234 72.201" xmlns="http://www.w3.org/2000/svg"><g id="svgGroup" stroke-linecap="round" fill-rule="evenodd" font-size="9pt" stroke="#000" stroke-width="0.25mm" fill="#000" style="stroke:#000;stroke-width:0.25mm;fill:#000"><path d="M 54.6 60.901 L 64.6 50.801 A 23.961 23.961 0 0 0 72.252 56.674 A 22.688 22.688 0 0 0 82.1 58.801 A 21.856 21.856 0 0 0 85.021 58.619 Q 86.525 58.415 87.743 57.984 A 8.338 8.338 0 0 0 90.4 56.501 A 7.499 7.499 0 0 0 93.082 51.014 A 10.2 10.2 0 0 0 93.1 50.401 A 8.671 8.671 0 0 0 92.799 48.064 A 6.792 6.792 0 0 0 91.5 45.551 Q 89.9 43.601 85 42.901 L 78.1 42.001 A 43.414 43.414 0 0 1 71.888 40.785 Q 68.76 39.914 66.308 38.6 A 18.016 18.016 0 0 1 61.85 35.301 A 17.835 17.835 0 0 1 57.119 25.935 A 25.577 25.577 0 0 1 56.7 21.201 Q 56.7 16.501 58.5 12.601 Q 60.3 8.701 63.65 5.901 A 22.032 22.032 0 0 1 68.423 2.889 A 28.158 28.158 0 0 1 71.85 1.551 A 31.724 31.724 0 0 1 77.558 0.319 A 42.86 42.86 0 0 1 82.9 0.001 A 42.384 42.384 0 0 1 89.889 0.55 A 31.353 31.353 0 0 1 96.8 2.501 Q 102.8 5.001 107.1 9.801 L 97 20.001 Q 94.5 17.101 90.95 15.251 Q 87.902 13.662 83.49 13.438 A 29.316 29.316 0 0 0 82 13.401 A 23.206 23.206 0 0 0 79.337 13.543 Q 76.421 13.881 74.663 15.021 A 6.545 6.545 0 0 0 74.4 15.201 A 5.711 5.711 0 0 0 71.949 19.328 A 7.5 7.5 0 0 0 71.9 20.201 A 10.459 10.459 0 0 0 72.063 22.115 Q 72.257 23.155 72.682 23.959 A 4.663 4.663 0 0 0 73.85 25.401 Q 75.8 27.001 80.2 27.701 L 87.1 28.801 A 47.105 47.105 0 0 1 93.303 30.18 Q 96.413 31.113 98.861 32.43 A 19.493 19.493 0 0 1 103.1 35.451 Q 108.3 40.401 108.3 49.501 A 24.274 24.274 0 0 1 107.525 55.719 A 21.469 21.469 0 0 1 106.5 58.701 Q 104.7 62.901 101.25 65.901 Q 97.8 68.901 92.7 70.551 A 33.089 33.089 0 0 1 86.611 71.873 A 44.444 44.444 0 0 1 81.1 72.201 Q 72.967 72.201 67.022 69.739 A 25.787 25.787 0 0 1 65.5 69.051 A 36.035 36.035 0 0 1 55.755 62.122 A 34.09 34.09 0 0 1 54.6 60.901 Z M 175.2 16.401 L 162.1 23.201 A 17.954 17.954 0 0 0 160.447 19.46 A 14.076 14.076 0 0 0 157.75 16.151 A 9.403 9.403 0 0 0 154.38 14.248 Q 152.973 13.781 151.262 13.606 A 21.229 21.229 0 0 0 149.1 13.501 A 16.75 16.75 0 0 0 144.27 14.164 A 13.093 13.093 0 0 0 138.35 17.851 Q 134.3 22.201 134.3 30.501 L 134.3 41.701 Q 134.3 47.415 136.22 51.257 A 13.102 13.102 0 0 0 138.35 54.351 A 13.435 13.435 0 0 0 146.875 58.572 A 18.71 18.71 0 0 0 149.1 58.701 A 16.664 16.664 0 0 0 152.909 58.289 A 11.328 11.328 0 0 0 158.05 55.651 Q 161.4 52.601 163 48.301 L 175.4 55.501 Q 171.5 63.501 165.15 67.851 Q 159.013 72.055 149.747 72.196 A 42.516 42.516 0 0 1 149.1 72.201 A 38.645 38.645 0 0 1 141.951 71.566 A 30.916 30.916 0 0 1 136.3 69.951 Q 130.6 67.701 126.6 63.251 Q 122.6 58.801 120.4 52.151 A 41.364 41.364 0 0 1 118.759 44.999 Q 118.2 41.085 118.2 36.601 A 60.36 60.36 0 0 1 118.683 28.779 A 44.399 44.399 0 0 1 120.4 20.951 Q 122.6 14.101 126.6 9.451 Q 130.6 4.801 136.3 2.401 Q 142 0.001 149.1 0.001 A 39.276 39.276 0 0 1 155.897 0.556 Q 161.163 1.482 165.1 3.951 A 23.599 23.599 0 0 1 171.53 10.013 Q 173.589 12.798 175.2 16.401 Z M 15.2 71.001 L 0 71.001 L 0 1.201 L 46.3 1.201 L 46.3 14.701 L 15.2 14.701 L 15.2 29.001 L 41.7 29.001 L 41.7 42.401 L 15.2 42.401 L 15.2 71.001 Z M 234 14.701 L 215.1 14.701 L 215.1 71.001 L 199.9 71.001 L 199.9 14.701 L 181 14.701 L 181 1.201 L 234 1.201 L 234 14.701 Z" vector-effect="non-scaling-stroke"/></g></svg>