<svg width="579.7" height="98.4" viewBox="0 0 579.7 98.4" xmlns="http://www.w3.org/2000/svg"><g id="svgGroup" stroke-linecap="round" fill-rule="evenodd" font-size="9pt" stroke="#000" stroke-width="0.25mm" fill="#000" style="stroke:#000;stroke-width:0.25mm;fill:#000"><path d="M 286.9 75.2 L 277.9 75.2 L 277.9 23.2 L 286.6 23.2 L 286.6 31.9 Q 289.4 27.7 293.7 24.85 A 17.205 17.205 0 0 1 302.902 22.009 A 20.858 20.858 0 0 1 303.5 22 A 20.994 20.994 0 0 1 307.917 22.44 Q 310.903 23.082 313.185 24.663 A 13.128 13.128 0 0 1 313.65 25 A 15.751 15.751 0 0 1 319.098 32.69 A 19.154 19.154 0 0 1 319.2 33 Q 322.3 28.4 326.55 25.2 A 15.669 15.669 0 0 1 333.341 22.317 A 21.446 21.446 0 0 1 337.1 22 A 21.437 21.437 0 0 1 341.988 22.523 Q 345.574 23.362 348.063 25.551 A 12.994 12.994 0 0 1 349.75 27.35 A 18.992 18.992 0 0 1 353.161 34.622 Q 353.9 37.672 353.9 41.3 L 353.9 75.2 L 344.9 75.2 L 344.9 42 A 19.042 19.042 0 0 0 344.563 38.311 Q 344.127 36.105 343.128 34.361 A 10.982 10.982 0 0 0 342.4 33.25 A 7.974 7.974 0 0 0 336.587 29.954 A 10.678 10.678 0 0 0 335.5 29.9 A 11.926 11.926 0 0 0 328.741 32.027 A 15.996 15.996 0 0 0 327.15 33.25 Q 323.3 36.6 320.4 41.1 L 320.4 75.2 L 311.4 75.2 L 311.4 42 A 19.042 19.042 0 0 0 311.063 38.311 Q 310.627 36.105 309.628 34.361 A 10.982 10.982 0 0 0 308.9 33.25 A 7.974 7.974 0 0 0 303.087 29.954 A 10.678 10.678 0 0 0 302 29.9 A 12.02 12.02 0 0 0 295.681 31.728 A 16.244 16.244 0 0 0 293.7 33.15 Q 289.8 36.4 286.9 40.8 L 286.9 75.2 Z M 492.7 94 L 496 86.2 A 20.562 20.562 0 0 0 499.817 88.573 A 24.737 24.737 0 0 0 501.6 89.35 Q 504.359 90.428 508.159 90.576 A 31.788 31.788 0 0 0 509.4 90.6 A 21.701 21.701 0 0 0 513.921 90.157 Q 516.822 89.539 519.022 88.059 A 12.576 12.576 0 0 0 520.55 86.85 A 11.352 11.352 0 0 0 523.457 82.357 Q 524.6 79.256 524.6 74.9 L 524.6 68.5 Q 522.6 70.9 518.85 73.05 Q 515.1 75.2 509.9 75.2 Q 504 75.2 498.7 72.15 A 22.236 22.236 0 0 1 491.408 65.312 A 27.437 27.437 0 0 1 490.1 63.2 A 25.181 25.181 0 0 1 487.387 55.576 A 35.033 35.033 0 0 1 486.8 49 A 32.06 32.06 0 0 1 487.717 41.192 A 26.682 26.682 0 0 1 490.05 35.1 A 25.706 25.706 0 0 1 496.114 27.478 A 24.448 24.448 0 0 1 498.8 25.5 Q 504.3 22 510.9 22 A 22.366 22.366 0 0 1 515.72 22.501 A 18.715 18.715 0 0 1 518.9 23.5 A 25.705 25.705 0 0 1 522.728 25.468 A 20.998 20.998 0 0 1 525.1 27.2 L 525.1 23.2 L 533.3 23.2 L 533.3 74 Q 533.3 82.6 530.3 88 Q 527.3 93.4 521.95 95.9 A 25.811 25.811 0 0 1 515.346 97.922 A 35.243 35.243 0 0 1 509.4 98.4 Q 504.8 98.4 500.45 97.3 A 27.232 27.232 0 0 1 495.15 95.383 A 23.518 23.518 0 0 1 492.7 94 Z M 440.1 75.2 L 431.1 75.2 L 431.1 23.2 L 439.8 23.2 L 439.8 31.9 Q 442.6 27.7 446.95 24.85 A 17.316 17.316 0 0 1 454.056 22.226 A 22.629 22.629 0 0 1 457.3 22 A 23.225 23.225 0 0 1 462.365 22.518 Q 467.459 23.656 470.45 27.3 Q 474.575 32.326 474.788 40.409 A 33.764 33.764 0 0 1 474.8 41.3 L 474.8 75.2 L 465.8 75.2 L 465.8 42.3 A 19.265 19.265 0 0 0 465.458 38.559 Q 465.019 36.345 464.019 34.597 A 10.966 10.966 0 0 0 463.15 33.3 A 8.579 8.579 0 0 0 456.873 29.947 A 12.061 12.061 0 0 0 455.8 29.9 A 13.122 13.122 0 0 0 448.951 31.864 A 17.353 17.353 0 0 0 447.1 33.15 Q 443 36.4 440.1 40.8 L 440.1 75.2 Z M 186.9 71 L 190.7 63.5 A 18.557 18.557 0 0 0 193.844 65.626 Q 195.398 66.47 197.25 67.15 A 24.073 24.073 0 0 0 204.861 68.587 A 27.464 27.464 0 0 0 205.7 68.6 Q 211.092 68.6 213.935 66.885 A 7.738 7.738 0 0 0 214.15 66.75 Q 217 64.9 217 62 A 7.123 7.123 0 0 0 216.686 59.853 A 6.212 6.212 0 0 0 215.95 58.3 A 6.384 6.384 0 0 0 215.021 57.206 Q 214.007 56.234 212.334 55.281 A 22.3 22.3 0 0 0 212.1 55.15 A 28.462 28.462 0 0 0 210.106 54.157 Q 207.99 53.195 205.001 52.146 A 103.602 103.602 0 0 0 204 51.8 A 46.616 46.616 0 0 1 199.602 50.057 Q 197.488 49.083 195.812 47.995 A 19.335 19.335 0 0 1 193.05 45.85 A 11.324 11.324 0 0 1 189.756 39.854 A 16.794 16.794 0 0 1 189.4 36.3 Q 189.4 30.3 194.65 26.15 Q 199.054 22.669 206.308 22.108 A 37.527 37.527 0 0 1 209.2 22 A 40.794 40.794 0 0 1 213.646 22.231 Q 215.954 22.484 217.97 23.016 A 25.234 25.234 0 0 1 218.1 23.05 Q 222 24.1 225.1 25.7 L 222.6 33.1 Q 219.9 31.5 216.45 30.5 A 25.024 25.024 0 0 0 211.967 29.653 A 31.837 31.837 0 0 0 208.8 29.5 A 20.632 20.632 0 0 0 205.863 29.695 Q 202.777 30.14 200.9 31.6 A 9.322 9.322 0 0 0 199.542 32.874 Q 198.84 33.692 198.505 34.565 A 4.529 4.529 0 0 0 198.2 36.2 A 4.921 4.921 0 0 0 199.695 39.752 A 7.082 7.082 0 0 0 200.3 40.3 Q 202.365 41.972 208.298 43.934 A 84.459 84.459 0 0 0 208.5 44 A 67.753 67.753 0 0 1 213.562 45.898 Q 219.489 48.417 222.3 51.3 Q 226.2 55.3 226.2 61.3 Q 226.2 68.048 220.949 72.055 A 16.618 16.618 0 0 1 220.55 72.35 Q 215.81 75.748 208.362 76.295 A 40.423 40.423 0 0 1 205.4 76.4 Q 199.5 76.4 194.75 74.9 A 30.883 30.883 0 0 1 190.91 73.415 Q 188.929 72.484 187.348 71.336 A 18.229 18.229 0 0 1 186.9 71 Z M 17 75.2 L 8 75.2 L 8 32.9 L 0 32.9 L 0 25.1 L 8 25.1 L 8 19 A 25.495 25.495 0 0 1 8.626 13.182 Q 9.734 8.452 12.802 5.203 A 16.387 16.387 0 0 1 12.9 5.1 A 16.367 16.367 0 0 1 23.304 0.125 A 22.463 22.463 0 0 1 25.7 0 A 29.982 29.982 0 0 1 29.21 0.195 Q 30.955 0.401 32.471 0.825 A 17.884 17.884 0 0 1 32.9 0.95 Q 36 1.9 38.8 3.3 L 36.1 10.9 Q 34 9.8 31.6 8.9 A 14.172 14.172 0 0 0 27.978 8.079 A 17.356 17.356 0 0 0 26.3 8 A 10.802 10.802 0 0 0 23.271 8.405 A 8.291 8.291 0 0 0 19.55 10.65 A 8.462 8.462 0 0 0 17.603 14.019 Q 17 15.92 17 18.4 L 17 25.1 L 32.4 25.1 L 32.4 32.9 L 17 32.9 L 17 75.2 Z M 179.1 52.9 L 142.7 52.9 A 24.088 24.088 0 0 0 143.839 57.925 Q 145.175 61.738 147.8 64.3 Q 152 68.4 158.9 68.4 Q 163.4 68.4 167 67.45 Q 170.6 66.5 173.9 65 L 176 72.7 A 40.77 40.77 0 0 1 171.665 74.326 A 51.863 51.863 0 0 1 167.9 75.35 A 38.914 38.914 0 0 1 162.808 76.169 A 52.025 52.025 0 0 1 157.8 76.4 A 28.318 28.318 0 0 1 150.054 75.395 A 21.108 21.108 0 0 1 140.05 69.25 A 23.521 23.521 0 0 1 134.845 59.71 Q 133.5 55.045 133.5 49.2 A 35.359 35.359 0 0 1 134.333 41.378 A 28.84 28.84 0 0 1 136.45 35.25 A 24.642 24.642 0 0 1 141.466 28.168 A 22.887 22.887 0 0 1 144.7 25.55 A 21.048 21.048 0 0 1 154.959 22.078 A 26.205 26.205 0 0 1 157 22 Q 164.5 22 169.45 25.25 Q 174.4 28.5 176.9 34 A 28.185 28.185 0 0 1 179.326 43.864 A 33.434 33.434 0 0 1 179.4 46.1 A 75.204 75.204 0 0 1 179.109 52.797 A 69.426 69.426 0 0 1 179.1 52.9 Z M 240.2 57.3 L 240.2 32.9 L 231.2 32.9 L 231.2 25.1 L 240.4 25.1 L 242.3 8.7 L 249.2 8.7 L 249.2 25.1 L 263.6 25.1 L 263.6 32.9 L 249.2 32.9 L 249.2 58 A 21.559 21.559 0 0 0 249.368 60.796 Q 249.841 64.402 251.65 66.1 Q 254.1 68.4 257.5 68.4 Q 260 68.4 262.25 67.6 Q 264.5 66.8 266.4 65.7 L 268.9 72.9 A 18.546 18.546 0 0 1 267.282 73.756 Q 266.48 74.135 265.534 74.508 A 43.365 43.365 0 0 1 263.5 75.25 Q 260.1 76.4 256.4 76.4 Q 248.9 76.4 244.55 71.45 A 16.116 16.116 0 0 1 241.322 65.548 Q 240.559 63.117 240.315 60.181 A 34.777 34.777 0 0 1 240.2 57.3 Z M 405 27.4 L 405 23.2 L 413.2 23.2 L 413.2 62.6 A 12.15 12.15 0 0 0 413.302 64.236 Q 413.634 66.67 415.05 67.55 Q 416.9 68.7 419.1 68.7 L 417.2 75.7 A 17.722 17.722 0 0 1 412.935 75.228 Q 407.298 73.828 405.703 68.28 A 13.59 13.59 0 0 1 405.6 67.9 A 21.307 21.307 0 0 1 402.49 71.326 A 28.498 28.498 0 0 1 399.35 73.75 Q 395.4 76.4 389.3 76.4 Q 382.8 76.4 377.5 73.1 A 22.947 22.947 0 0 1 370.087 65.574 A 27.923 27.923 0 0 1 369.05 63.75 A 27.228 27.228 0 0 1 366.42 55.808 A 36.644 36.644 0 0 1 365.9 49.5 A 33.142 33.142 0 0 1 366.897 41.231 A 27.968 27.968 0 0 1 369.05 35.5 Q 372.2 29.3 377.75 25.65 A 22.297 22.297 0 0 1 388.945 22.044 A 27.388 27.388 0 0 1 390.5 22 A 22.584 22.584 0 0 1 395.294 22.491 A 18.703 18.703 0 0 1 398.65 23.55 A 26.002 26.002 0 0 1 402.937 25.844 A 22.103 22.103 0 0 1 405 27.4 Z M 109.1 75.2 L 100.1 75.2 L 100.1 23.2 L 108.8 23.2 L 108.8 34.5 Q 110.1 31.2 112.3 28.35 Q 114.5 25.5 117.8 23.75 A 14.817 14.817 0 0 1 122.48 22.226 A 19.459 19.459 0 0 1 125.5 22 Q 127 22 128.5 22.15 A 18.972 18.972 0 0 1 129.555 22.284 Q 130.055 22.362 130.482 22.463 A 8.817 8.817 0 0 1 131 22.6 L 128.3 31.9 A 9.763 9.763 0 0 0 126.155 31.288 Q 125.059 31.1 123.8 31.1 A 12.958 12.958 0 0 0 117.17 32.946 A 15.609 15.609 0 0 0 116.75 33.2 Q 113.422 35.286 111.278 39.642 A 22.927 22.927 0 0 0 111.25 39.7 Q 109.487 43.307 109.17 48.528 A 39.09 39.09 0 0 0 109.1 50.9 L 109.1 75.2 Z M 557.8 75.2 L 548.8 75.2 L 548.8 23.2 L 557.5 23.2 L 557.5 34.5 Q 558.8 31.2 561 28.35 Q 563.2 25.5 566.5 23.75 A 14.817 14.817 0 0 1 571.18 22.226 A 19.459 19.459 0 0 1 574.2 22 Q 575.7 22 577.2 22.15 A 18.972 18.972 0 0 1 578.255 22.284 Q 578.755 22.362 579.182 22.463 A 8.817 8.817 0 0 1 579.7 22.6 L 577 31.9 A 9.763 9.763 0 0 0 574.855 31.288 Q 573.759 31.1 572.5 31.1 A 12.958 12.958 0 0 0 565.87 32.946 A 15.609 15.609 0 0 0 565.45 33.2 Q 562.122 35.286 559.978 39.642 A 22.927 22.927 0 0 0 559.95 39.7 Q 558.187 43.307 557.87 48.528 A 39.09 39.09 0 0 0 557.8 50.9 L 557.8 75.2 Z M 48.9 72.95 A 24.559 24.559 0 0 0 53.498 75.04 Q 57.553 76.4 62.2 76.4 Q 69.6 76.4 75.45 73 Q 81.3 69.6 84.7 63.45 A 26.255 26.255 0 0 0 87.353 56.309 A 34.184 34.184 0 0 0 88.1 49 A 34.542 34.542 0 0 0 87.615 43.092 A 25.795 25.795 0 0 0 84.65 34.65 Q 81.2 28.6 75.35 25.3 A 24.848 24.848 0 0 0 70.709 23.273 A 27.738 27.738 0 0 0 62.2 22 A 31.325 31.325 0 0 0 60.62 22.04 A 26.169 26.169 0 0 0 49 25.3 Q 43.1 28.6 39.7 34.7 A 26.023 26.023 0 0 0 36.951 42.29 A 35.006 35.006 0 0 0 36.3 49.2 A 34.82 34.82 0 0 0 36.565 53.554 A 27.451 27.451 0 0 0 39.65 63.35 Q 43 69.5 48.9 72.95 Z M 62.2 68.4 Q 70.1 68.4 74.5 63.05 A 18.802 18.802 0 0 0 78.319 54.96 A 27.105 27.105 0 0 0 78.9 49.2 Q 78.9 44 76.7 39.65 A 19.198 19.198 0 0 0 72.528 34.081 A 18.17 18.17 0 0 0 70.75 32.65 Q 67 30 62.2 30 A 19.249 19.249 0 0 0 56.974 30.672 A 14.037 14.037 0 0 0 49.9 35.2 A 17.878 17.878 0 0 0 46.226 42.574 Q 45.5 45.506 45.5 49 Q 45.5 54.2 47.7 58.65 A 19.437 19.437 0 0 0 51.23 63.69 A 17.627 17.627 0 0 0 53.65 65.75 Q 57.4 68.4 62.2 68.4 Z M 404.2 61.9 L 404.2 34 Q 401.5 32.1 398.25 30.95 Q 395 29.8 391.4 29.8 A 15.924 15.924 0 0 0 386.429 30.554 A 14.024 14.024 0 0 0 382.95 32.25 A 16.301 16.301 0 0 0 377.931 37.674 A 19.962 19.962 0 0 0 377.2 39.05 A 20.663 20.663 0 0 0 375.447 44.727 A 27.678 27.678 0 0 0 375.1 49.2 Q 375.1 54.8 377.2 59.15 A 17.602 17.602 0 0 0 380.306 63.696 A 15.697 15.697 0 0 0 383 65.95 Q 386.7 68.4 391.3 68.4 Q 395.1 68.4 398.5 66.55 Q 401.9 64.7 404.2 61.9 Z M 524.3 61.2 L 524.3 34 Q 522.134 32.425 519.097 31.141 A 36.018 36.018 0 0 0 519 31.1 A 16.249 16.249 0 0 0 515.196 30.049 A 22.135 22.135 0 0 0 511.8 29.8 Q 507.7 29.8 504.1 32 Q 500.5 34.2 498.25 38.35 Q 496 42.5 496 48.5 A 24.32 24.32 0 0 0 496.478 53.436 A 18.311 18.311 0 0 0 498.25 58.4 A 18.576 18.576 0 0 0 501.161 62.475 A 15.802 15.802 0 0 0 504.1 64.9 Q 507.7 67.2 511.9 67.2 A 15.276 15.276 0 0 0 516.478 66.532 A 13.606 13.606 0 0 0 519.1 65.4 A 20.855 20.855 0 0 0 522.081 63.384 A 16.309 16.309 0 0 0 524.3 61.2 Z M 142.6 45.6 L 171.1 45.6 A 24.355 24.355 0 0 0 170.696 41.015 Q 170.2 38.431 169.096 36.407 A 12.422 12.422 0 0 0 167.3 33.9 A 12.488 12.488 0 0 0 160.339 30.124 A 18.395 18.395 0 0 0 156.8 29.8 A 13.58 13.58 0 0 0 151.688 30.735 A 12.524 12.524 0 0 0 147.2 33.85 Q 143.4 37.9 142.6 45.6 Z" vector-effect="non-scaling-stroke"/></g></svg>