<?xml version="1.0" encoding="UTF-8" standalone="no"?>
<svg
   version="1.1"
   id="svg4"
   width="141.58008"
   height="9.2988281"
   xmlns="http://www.w3.org/2000/svg"
   xmlns:svg="http://www.w3.org/2000/svg">
  <defs
     id="defs8" />
  <g
     aria-label="Forest Carbon database"
     id="text2"
     transform="translate(-1.171875,9.1171875)">
    <path
       d="M 6.7441406,-7.6933594 H 2.3320313 v 2.4609375 h 3.7910156 v 1.03125 H 2.3320313 V 0 H 1.171875 v -8.7246094 h 5.5722656 z"
       id="path10" />
    <path
       d="m 13.265625,-3.2695313 q 0,1.5996094 -0.820312,2.52539068 -0.820313,0.92578124 -2.197266,0.92578124 -1.388672,0 -2.2089845,-0.92578124 -0.8144531,-0.92578128 -0.8144531,-2.52539068 0,-1.5996093 0.8144531,-2.5253906 0.8203125,-0.9316406 2.2089845,-0.9316406 1.376953,0 2.197266,0.9316406 0.820312,0.9257813 0.820312,2.5253906 z m -1.136719,0 q 0,-1.2714843 -0.498047,-1.8867187 -0.498046,-0.6210937 -1.382812,-0.6210937 -0.8964845,0 -1.3945314,0.6210937 -0.4921875,0.6152344 -0.4921875,1.8867187 0,1.2304688 0.4980469,1.8691407 0.4980469,0.63281248 1.388672,0.63281248 0.878906,0 1.376953,-0.62695308 0.503906,-0.6328126 0.503906,-1.8750001 z"
       id="path12" />
    <path
       d="m 19.054687,-5.34375 h -0.05859 q -0.246094,-0.058594 -0.480469,-0.082031 -0.228516,-0.029297 -0.544922,-0.029297 -0.509766,0 -0.984375,0.2285156 -0.474609,0.2226563 -0.914062,0.5800781 V 0 h -1.101563 v -6.5449219 h 1.101563 v 0.9667969 q 0.65625,-0.5273437 1.154296,-0.7441406 0.503907,-0.2226563 1.025391,-0.2226563 0.287109,0 0.416016,0.017578 0.128906,0.011719 0.386718,0.052734 z"
       id="path14" />
    <path
       d="m 25.570312,-3.1582031 h -4.822265 q 0,0.6035156 0.18164,1.0546875 0.181641,0.4453125 0.498047,0.7324219 0.304688,0.28125 0.720703,0.42187495 0.421875,0.140625 0.925782,0.140625 0.667968,0 1.341797,-0.26367185 0.679687,-0.2695313 0.966796,-0.5273438 h 0.05859 v 1.2011719 q -0.55664,0.234375 -1.136719,0.39257812 -0.580078,0.15820313 -1.21875,0.15820313 -1.628906,0 -2.542968,-0.87890625 -0.914063,-0.8847656 -0.914063,-2.5078125 0,-1.6054687 0.873047,-2.5488281 0.878906,-0.9433594 2.308594,-0.9433594 1.324219,0 2.039062,0.7734375 0.720703,0.7734375 0.720703,2.1972656 z m -1.072265,-0.84375 q -0.0059,-0.8671875 -0.439453,-1.3417969 -0.427735,-0.4746094 -1.306641,-0.4746094 -0.884766,0 -1.412109,0.5214844 -0.521485,0.5214844 -0.591797,1.2949219 z"
       id="path16" />
    <path
       d="m 31.916016,-1.8867187 q 0,0.89648432 -0.744141,1.47070307 -0.738281,0.57421875 -2.021484,0.57421875 -0.726563,0 -1.335938,-0.16992187 Q 27.210937,-0.1875 26.800781,-0.39257813 V -1.6289062 h 0.05859 q 0.521484,0.3925781 1.160156,0.6269531 0.638672,0.2285156 1.22461,0.2285156 0.726562,0 1.136718,-0.234375 0.410157,-0.234375 0.410157,-0.7382812 0,-0.3867188 -0.222657,-0.5859376 -0.222656,-0.1992187 -0.855468,-0.3398437 -0.234375,-0.052734 -0.615235,-0.1230469 -0.375,-0.070312 -0.685547,-0.1523437 -0.861328,-0.2285157 -1.224609,-0.6679688 -0.357422,-0.4453125 -0.357422,-1.0898437 0,-0.4042969 0.164063,-0.7617188 0.169921,-0.3574218 0.509765,-0.6386718 0.328125,-0.2753907 0.832031,-0.4335938 0.509766,-0.1640625 1.136719,-0.1640625 0.585938,0 1.183594,0.1464844 0.603516,0.140625 1.001953,0.3457031 v 1.1777344 h -0.05859 q -0.421875,-0.3105469 -1.02539,-0.5214844 -0.603516,-0.2167969 -1.183594,-0.2167969 -0.603516,0 -1.019531,0.234375 -0.416016,0.2285157 -0.416016,0.6855469 0,0.4042969 0.251953,0.609375 0.246094,0.2050781 0.796875,0.3339844 0.304688,0.070312 0.679688,0.140625 0.380859,0.070312 0.632812,0.1289062 0.767578,0.1757813 1.183594,0.6035156 0.416016,0.4335938 0.416016,1.1484376 z"
       id="path18" />
    <path
       d="m 36.890625,-0.05859375 q -0.310547,0.08203125 -0.679688,0.13476562 -0.363281,0.05273438 -0.65039,0.05273438 -1.001953,0 -1.523438,-0.5390625 -0.521484,-0.5390625 -0.521484,-1.72851565 v -3.4804687 h -0.744141 v -0.9257813 h 0.744141 v -1.8808594 h 1.101562 v 1.8808594 h 2.273438 v 0.9257813 h -2.273438 v 2.9824218 q 0,0.515625 0.02344,0.8085938 0.02344,0.2871094 0.164062,0.5390625 0.128907,0.234375 0.351563,0.34570312 0.228516,0.10546875 0.691406,0.10546875 0.269531,0 0.5625,-0.0761719 0.292969,-0.0820313 0.421875,-0.13476557 h 0.05859 z"
       id="path20" />
    <path
       d="m 49.265625,-0.6328125 q -0.322266,0.140625 -0.585938,0.26367187 Q 48.421875,-0.24609375 48,-0.11132812 47.642578,0 47.220703,0.07617187 q -0.416016,0.08203125 -0.919922,0.08203125 -0.949219,0 -1.728515,-0.26367187 Q 43.798828,-0.375 43.224609,-0.94335938 42.662109,-1.5 42.345703,-2.3554688 q -0.316406,-0.8613281 -0.316406,-1.9980468 0,-1.078125 0.304687,-1.9277344 0.304688,-0.8496094 0.878907,-1.4355469 0.55664,-0.5683594 1.341796,-0.8671875 0.791016,-0.2988281 1.751954,-0.2988281 0.703125,0 1.40039,0.1699219 0.703125,0.1699218 1.558594,0.5976562 v 1.3769532 h -0.08789 q -0.720703,-0.6035157 -1.429687,-0.8789063 -0.708985,-0.2753906 -1.517578,-0.2753906 -0.66211,0 -1.195313,0.2167969 -0.527344,0.2109375 -0.943359,0.6621093 -0.404297,0.4394532 -0.632813,1.1132813 -0.222656,0.6679687 -0.222656,1.546875 0,0.9199218 0.246094,1.5820312 0.251953,0.6621094 0.644531,1.078125 0.410156,0.4335938 0.955078,0.6445313 0.550781,0.2050781 1.160156,0.2050781 0.837891,0 1.570313,-0.2871094 0.732422,-0.2871093 1.371094,-0.8613281 h 0.08203 z"
       id="path22" />
    <path
       d="m 55.904297,0 h -1.095703 v -0.69726562 q -0.146485,0.0996094 -0.398438,0.28124999 -0.246094,0.17578125 -0.480469,0.28125001 Q 53.654297,0 53.296875,0.08789062 q -0.357422,0.09375 -0.837891,0.09375 -0.884765,0 -1.5,-0.5859375 -0.615234,-0.5859375 -0.615234,-1.49414062 0,-0.7441406 0.316406,-1.2011719 0.322266,-0.4628906 0.914063,-0.7265625 0.597656,-0.2636718 1.435547,-0.3574218 0.83789,-0.09375 1.798828,-0.140625 v -0.1699219 q 0,-0.375 -0.134766,-0.6210938 -0.128906,-0.2460937 -0.375,-0.3867187 -0.234375,-0.1347656 -0.5625,-0.1816406 -0.328125,-0.046875 -0.685547,-0.046875 -0.433594,0 -0.966797,0.1171875 -0.533203,0.1113281 -1.101562,0.328125 h -0.05859 v -1.1191407 q 0.322266,-0.087891 0.931641,-0.1933593 0.609375,-0.1054688 1.201172,-0.1054688 0.691406,0 1.201171,0.1171875 0.515625,0.1113281 0.890625,0.3867188 0.369141,0.2695312 0.5625,0.6972656 0.19336,0.4277344 0.19336,1.0605469 z m -1.095703,-1.6113281 v -1.8222657 q -0.503907,0.029297 -1.189453,0.087891 -0.679688,0.058594 -1.078125,0.1699218 -0.47461,0.1347657 -0.767579,0.421875 -0.292968,0.28125 -0.292968,0.7792969 0,0.5625 0.339843,0.8496094 0.339844,0.28125 1.03711,0.28125 0.580078,0 1.060547,-0.2226562 0.480468,-0.2285157 0.890625,-0.5449222 z"
       id="path24" />
    <path
       d="m 62.109375,-5.34375 h -0.05859 q -0.246094,-0.058594 -0.480469,-0.082031 -0.228515,-0.029297 -0.544921,-0.029297 -0.509766,0 -0.984375,0.2285156 -0.47461,0.2226563 -0.914063,0.5800781 V 0 h -1.101562 v -6.5449219 h 1.101562 v 0.9667969 q 0.65625,-0.5273437 1.154297,-0.7441406 0.503906,-0.2226563 1.025391,-0.2226563 0.287109,0 0.416015,0.017578 0.128906,0.011719 0.386719,0.052734 z"
       id="path26" />
    <path
       d="m 68.90625,-3.3222656 q 0,0.8203125 -0.234375,1.4765625 -0.228516,0.65625 -0.621094,1.10156248 -0.416015,0.46289062 -0.914062,0.69726562 -0.498047,0.22851562 -1.095703,0.22851562 -0.556641,0 -0.972657,-0.13476562 -0.416015,-0.12890625 -0.820312,-0.3515625 L 64.177734,0 h -1.03125 v -9.1171875 h 1.101563 v 3.2578125 q 0.46289,-0.3808594 0.984375,-0.6210937 0.521484,-0.2460938 1.171875,-0.2460938 1.160156,0 1.828125,0.890625 0.673828,0.890625 0.673828,2.5136719 z m -1.136719,0.029297 q 0,-1.1718749 -0.386719,-1.7753906 -0.386718,-0.609375 -1.248046,-0.609375 -0.480469,0 -0.972657,0.2109375 -0.492187,0.2050782 -0.914062,0.5332032 v 3.75 q 0.46875,0.21093745 0.802734,0.2929687 0.339844,0.0820313 0.767578,0.0820313 0.914063,0 1.429688,-0.5976562 0.521484,-0.6035157 0.521484,-1.8867189 z"
       id="path28" />
    <path
       d="m 76.201172,-3.2695313 q 0,1.5996094 -0.820313,2.52539068 -0.820312,0.92578124 -2.197265,0.92578124 -1.388672,0 -2.208985,-0.92578124 -0.814453,-0.92578128 -0.814453,-2.52539068 0,-1.5996093 0.814453,-2.5253906 0.820313,-0.9316406 2.208985,-0.9316406 1.376953,0 2.197265,0.9316406 0.820313,0.9257813 0.820313,2.5253906 z m -1.136719,0 q 0,-1.2714843 -0.498047,-1.8867187 -0.498047,-0.6210937 -1.382812,-0.6210937 -0.896485,0 -1.394532,0.6210937 -0.492187,0.6152344 -0.492187,1.8867187 0,1.2304688 0.498047,1.8691407 0.498047,0.63281248 1.388672,0.63281248 0.878906,0 1.376953,-0.62695308 0.503906,-0.6328126 0.503906,-1.8750001 z"
       id="path30" />
    <path
       d="m 83.378906,0 h -1.101562 v -3.7265625 q 0,-0.4511719 -0.05273,-0.84375 Q 82.171875,-4.96875 82.03125,-5.1914062 81.884766,-5.4375 81.609375,-5.5546875 q -0.275391,-0.1230469 -0.714844,-0.1230469 -0.451172,0 -0.943359,0.2226563 -0.492188,0.2226562 -0.94336,0.5683594 V 0 H 77.90625 v -6.5449219 h 1.101562 v 0.7265625 q 0.515625,-0.4277343 1.066407,-0.6679687 0.550781,-0.2402344 1.130859,-0.2402344 1.060547,0 1.617188,0.6386719 0.55664,0.6386719 0.55664,1.8398437 z"
       id="path32" />
    <path
       d="m 95.027344,0 h -1.101563 v -0.68554687 q -0.474609,0.41015624 -0.990234,0.63867187 -0.515625,0.22851562 -1.119141,0.22851562 -1.171875,0 -1.863281,-0.90234374 -0.685547,-0.90234378 -0.685547,-2.50195318 0,-0.8320312 0.234375,-1.4824218 0.240234,-0.6503906 0.644531,-1.1074219 0.398438,-0.4453125 0.925782,-0.6796875 0.533203,-0.234375 1.101562,-0.234375 0.515625,0 0.914063,0.1113281 0.398437,0.1054688 0.83789,0.3339844 v -2.8359375 h 1.101563 z m -1.101563,-1.6113281 v -3.7558594 q -0.445312,-0.1992187 -0.796875,-0.2753906 -0.351562,-0.076172 -0.767578,-0.076172 -0.925781,0 -1.441406,0.6445313 -0.515625,0.6445312 -0.515625,1.8281249 0,1.1660157 0.398437,1.7753907 0.398438,0.6035156 1.277344,0.6035156 0.46875,0 0.949219,-0.2050781 0.480469,-0.2109375 0.896484,-0.5390624 z"
       id="path34" />
    <path
       d="m 102.28125,0 h -1.0957 v -0.69726562 q -0.14649,0.0996094 -0.39844,0.28124999 -0.24609,0.17578125 -0.48047,0.28125001 Q 100.03125,0 99.673828,0.08789062 q -0.357422,0.09375 -0.837891,0.09375 -0.884765,0 -1.5,-0.5859375 -0.615234,-0.5859375 -0.615234,-1.49414062 0,-0.7441406 0.316406,-1.2011719 0.322266,-0.4628906 0.914063,-0.7265625 0.597656,-0.2636718 1.435547,-0.3574218 0.837891,-0.09375 1.798831,-0.140625 v -0.1699219 q 0,-0.375 -0.13477,-0.6210938 -0.1289,-0.2460937 -0.375,-0.3867187 -0.23437,-0.1347656 -0.5625,-0.1816406 -0.328124,-0.046875 -0.685546,-0.046875 -0.433593,0 -0.966797,0.1171875 -0.533203,0.1113281 -1.101562,0.328125 h -0.05859 v -1.1191407 q 0.322266,-0.087891 0.931641,-0.1933593 0.609375,-0.1054688 1.201172,-0.1054688 0.691402,0 1.201172,0.1171875 0.51562,0.1113281 0.89062,0.3867188 0.36914,0.2695312 0.5625,0.6972656 0.19336,0.4277344 0.19336,1.0605469 z m -1.0957,-1.6113281 v -1.8222657 q -0.50391,0.029297 -1.189456,0.087891 -0.679688,0.058594 -1.078125,0.1699218 -0.47461,0.1347657 -0.767578,0.421875 -0.292969,0.28125 -0.292969,0.7792969 0,0.5625 0.339844,0.8496094 0.339843,0.28125 1.037109,0.28125 0.580078,0 1.060545,-0.2226562 0.48047,-0.2285157 0.89063,-0.5449222 z"
       id="path36" />
    <path
       d="m 107.80078,-0.05859375 q -0.31055,0.08203125 -0.67969,0.13476562 -0.36328,0.05273438 -0.65039,0.05273438 -1.00195,0 -1.52343,-0.5390625 -0.52149,-0.5390625 -0.52149,-1.72851565 v -3.4804687 h -0.74414 v -0.9257813 h 0.74414 v -1.8808594 h 1.10156 v 1.8808594 h 2.27344 v 0.9257813 h -2.27344 v 2.9824218 q 0,0.515625 0.0234,0.8085938 0.0234,0.2871094 0.16406,0.5390625 0.12891,0.234375 0.35157,0.34570312 0.22851,0.10546875 0.6914,0.10546875 0.26953,0 0.5625,-0.0761719 0.29297,-0.0820313 0.42188,-0.13476557 h 0.0586 z"
       id="path38" />
    <path
       d="m 114.2168,0 h -1.09571 v -0.69726562 q -0.14648,0.0996094 -0.39843,0.28124999 -0.2461,0.17578125 -0.48047,0.28125001 Q 111.9668,0 111.60938,0.08789062 q -0.35743,0.09375 -0.8379,0.09375 -0.88476,0 -1.5,-0.5859375 -0.61523,-0.5859375 -0.61523,-1.49414062 0,-0.7441406 0.31641,-1.2011719 0.32226,-0.4628906 0.91406,-0.7265625 0.59766,-0.2636718 1.43555,-0.3574218 0.83789,-0.09375 1.79882,-0.140625 v -0.1699219 q 0,-0.375 -0.13476,-0.6210938 -0.12891,-0.2460937 -0.375,-0.3867187 -0.23438,-0.1347656 -0.5625,-0.1816406 -0.32813,-0.046875 -0.68555,-0.046875 -0.43359,0 -0.9668,0.1171875 -0.5332,0.1113281 -1.10156,0.328125 h -0.0586 v -1.1191407 q 0.32226,-0.087891 0.93164,-0.1933593 0.60937,-0.1054688 1.20117,-0.1054688 0.69141,0 1.20117,0.1171875 0.51563,0.1113281 0.89063,0.3867188 0.36914,0.2695312 0.5625,0.6972656 0.19336,0.4277344 0.19336,1.0605469 z m -1.09571,-1.6113281 v -1.8222657 q -0.5039,0.029297 -1.18945,0.087891 -0.67969,0.058594 -1.07812,0.1699218 -0.47461,0.1347657 -0.76758,0.421875 -0.29297,0.28125 -0.29297,0.7792969 0,0.5625 0.33984,0.8496094 0.33985,0.28125 1.03711,0.28125 0.58008,0 1.06055,-0.2226562 0.48047,-0.2285157 0.89062,-0.5449222 z"
       id="path40" />
    <path
       d="m 122.09766,-3.3222656 q 0,0.8203125 -0.23438,1.4765625 -0.22851,0.65625 -0.62109,1.10156248 -0.41602,0.46289062 -0.91406,0.69726562 -0.49805,0.22851562 -1.09571,0.22851562 -0.55664,0 -0.97265,-0.13476562 -0.41602,-0.12890625 -0.82032,-0.3515625 L 117.36914,0 h -1.03125 v -9.1171875 h 1.10156 v 3.2578125 q 0.46289,-0.3808594 0.98438,-0.6210937 0.52148,-0.2460938 1.17187,-0.2460938 1.16016,0 1.82813,0.890625 0.67383,0.890625 0.67383,2.5136719 z m -1.13672,0.029297 q 0,-1.1718749 -0.38672,-1.7753906 -0.38672,-0.609375 -1.24805,-0.609375 -0.48047,0 -0.97265,0.2109375 -0.49219,0.2050782 -0.91407,0.5332032 v 3.75 q 0.46875,0.21093745 0.80274,0.2929687 0.33984,0.0820313 0.76758,0.0820313 0.91406,0 1.42968,-0.5976562 0.52149,-0.6035157 0.52149,-1.8867189 z"
       id="path42" />
    <path
       d="m 128.90039,0 h -1.0957 v -0.69726562 q -0.14649,0.0996094 -0.39844,0.28124999 -0.24609,0.17578125 -0.48047,0.28125001 Q 126.65039,0 126.29297,0.08789062 q -0.35742,0.09375 -0.83789,0.09375 -0.88477,0 -1.5,-0.5859375 -0.61524,-0.5859375 -0.61524,-1.49414062 0,-0.7441406 0.31641,-1.2011719 0.32227,-0.4628906 0.91406,-0.7265625 0.59766,-0.2636718 1.43555,-0.3574218 0.83789,-0.09375 1.79883,-0.140625 v -0.1699219 q 0,-0.375 -0.13477,-0.6210938 -0.1289,-0.2460937 -0.375,-0.3867187 -0.23437,-0.1347656 -0.5625,-0.1816406 -0.32812,-0.046875 -0.68554,-0.046875 -0.4336,0 -0.9668,0.1171875 -0.5332,0.1113281 -1.10156,0.328125 h -0.0586 v -1.1191407 q 0.32227,-0.087891 0.93164,-0.1933593 0.60938,-0.1054688 1.20117,-0.1054688 0.69141,0 1.20118,0.1171875 0.51562,0.1113281 0.89062,0.3867188 0.36914,0.2695312 0.5625,0.6972656 0.19336,0.4277344 0.19336,1.0605469 z m -1.0957,-1.6113281 v -1.8222657 q -0.50391,0.029297 -1.18946,0.087891 -0.67968,0.058594 -1.07812,0.1699218 -0.47461,0.1347657 -0.76758,0.421875 -0.29297,0.28125 -0.29297,0.7792969 0,0.5625 0.33985,0.8496094 0.33984,0.28125 1.03711,0.28125 0.58007,0 1.06054,-0.2226562 0.48047,-0.2285157 0.89063,-0.5449222 z"
       id="path44" />
    <path
       d="m 135.69727,-1.8867187 q 0,0.89648432 -0.74415,1.47070307 -0.73828,0.57421875 -2.02148,0.57421875 -0.72656,0 -1.33594,-0.16992187 Q 130.99219,-0.1875 130.58203,-0.39257813 V -1.6289062 h 0.0586 q 0.52149,0.3925781 1.16016,0.6269531 0.63867,0.2285156 1.22461,0.2285156 0.72656,0 1.13672,-0.234375 0.41016,-0.234375 0.41016,-0.7382812 0,-0.3867188 -0.22266,-0.5859376 -0.22266,-0.1992187 -0.85547,-0.3398437 -0.23437,-0.052734 -0.61523,-0.1230469 -0.375,-0.070312 -0.68555,-0.1523437 -0.86133,-0.2285157 -1.22461,-0.6679688 -0.35742,-0.4453125 -0.35742,-1.0898437 0,-0.4042969 0.16406,-0.7617188 0.16992,-0.3574218 0.50977,-0.6386718 0.32812,-0.2753907 0.83203,-0.4335938 0.50976,-0.1640625 1.13672,-0.1640625 0.58593,0 1.18359,0.1464844 0.60352,0.140625 1.00195,0.3457031 v 1.1777344 h -0.0586 q -0.42188,-0.3105469 -1.02539,-0.5214844 -0.60352,-0.2167969 -1.1836,-0.2167969 -0.60351,0 -1.01953,0.234375 -0.41601,0.2285157 -0.41601,0.6855469 0,0.4042969 0.25195,0.609375 0.24609,0.2050781 0.79688,0.3339844 0.30468,0.070312 0.67968,0.140625 0.38086,0.070312 0.63282,0.1289062 0.76757,0.1757813 1.18359,0.6035156 0.41602,0.4335938 0.41602,1.1484376 z"
       id="path46" />
    <path
       d="m 142.75195,-3.1582031 h -4.82226 q 0,0.6035156 0.18164,1.0546875 0.18164,0.4453125 0.49804,0.7324219 0.30469,0.28125 0.72071,0.42187495 0.42187,0.140625 0.92578,0.140625 0.66797,0 1.3418,-0.26367185 0.67968,-0.2695313 0.96679,-0.5273438 h 0.0586 v 1.2011719 q -0.55664,0.234375 -1.13672,0.39257812 -0.58008,0.15820313 -1.21875,0.15820313 -1.62891,0 -2.54297,-0.87890625 -0.91406,-0.8847656 -0.91406,-2.5078125 0,-1.6054687 0.87304,-2.5488281 0.87891,-0.9433594 2.3086,-0.9433594 1.32422,0 2.03906,0.7734375 0.7207,0.7734375 0.7207,2.1972656 z m -1.07226,-0.84375 q -0.006,-0.8671875 -0.43946,-1.3417969 -0.42773,-0.4746094 -1.30664,-0.4746094 -0.88476,0 -1.41211,0.5214844 -0.52148,0.5214844 -0.59179,1.2949219 z"
       id="path48" />
  </g>
</svg>
