<svg xmlns="http://www.w3.org/2000/svg" role="img" viewBox="-0.19 -1.19 204.88 75.38"><title>Freedm Systems Center logo</title><style>svg {enable-background:new 0 0 203.8 72}</style><path d="M5.5 65.9v.4c0 1.9 1.2 2.5 2.3 2.5 1.4 0 2.5-.6 2.5-2.3 0-3.1-6.2-2.7-6.2-6.9 0-2.5 1.8-3.8 4.1-3.8 2.5 0 4 1.2 3.9 4.1h-1.8c0-1.5-.5-2.5-2.1-2.5-1.1 0-2.1.5-2.1 2 0 3.1 6.2 2.6 6.2 7 0 2.9-2 3.9-4.3 3.9-4.1 0-4.1-3.1-4.1-4.4h1.6zm19.6-9.8h1.8l-3.8 8.6V70h-1.8v-5.3l-3.7-8.6h2l2.7 6.7 2.8-6.7zm9 9.8v.4c0 1.9 1.2 2.5 2.3 2.5 1.4 0 2.5-.6 2.5-2.3 0-3.1-6.2-2.7-6.2-6.9 0-2.5 1.8-3.8 4.1-3.8 2.5 0 4 1.2 3.9 4.1h-1.8c0-1.5-.5-2.5-2.1-2.5-1.1 0-2.1.5-2.1 2 0 3.1 6.2 2.6 6.2 7 0 2.9-2 3.9-4.3 3.9-4.1 0-4.1-3.1-4.1-4.4h1.6zm21.3-9.8v1.5h-3.7V70H50V57.7h-3.7v-1.5h9.1zm6 13.9V56.1h7.2v1.5h-5.4v4.5h5v1.5h-5v4.8h5.5V70h-7.3zm15.5 0h-1.7V56.1h2.9l3.5 11.7 3.5-11.7H88V70h-1.8V57.7L82.4 70h-1.7l-3.8-12.4V70zm19.9-4.1v.4c0 1.9 1.2 2.5 2.3 2.5 1.4 0 2.5-.6 2.5-2.3 0-3.1-6.2-2.7-6.2-6.9 0-2.5 1.8-3.8 4.1-3.8 2.5 0 4 1.2 3.9 4.1h-1.8c0-1.5-.5-2.5-2.1-2.5-1.1 0-2.1.5-2.1 2 0 3.1 6.2 2.6 6.2 7 0 2.9-2 3.9-4.3 3.9-4.1 0-4.1-3.1-4.1-4.4h1.6zm28.4-5.9c0-.8 0-1.6-.4-2-.4-.4-1.2-.6-1.6-.6-1.5 0-2 .9-2.1 1.1-.1.2-.4.5-.4 2.9V65c0 3.4 1.1 3.8 2.5 3.8.5 0 2.2-.2 2.2-2.9h1.8c.1 4.4-3 4.4-3.9 4.4-1.7 0-4.4-.1-4.4-5.5v-3.9c0-3.9 1.7-5 4.5-5s3.8 1.4 3.6 4.1h-1.8zm8.8 10V56.1h7.2v1.5h-5.4v4.5h5v1.5h-5v4.8h5.5V70H134zm23.4-13.9V70H155l-5.5-12v12h-1.6V56.1h2.5l5.4 11.9V56.1h1.6zm15.2 0v1.5h-3.7V70h-1.8V57.7h-3.7v-1.5h9.2zm5.9 13.9V56.1h7.2v1.5h-5.4v4.5h5v1.5h-5v4.8h5.5V70h-7.3zm15.6-6.4V70h-1.8V56.1h4.8c2.5 0 3.3 1.7 3.3 3.5 0 1.6-.9 2.9-2.5 3.2 1.6.3 2.2.8 2.3 3.6 0 .6.2 2.8.5 3.6h-1.8c-.5-1-.4-2.8-.5-4.6-.1-1.7-1.5-1.8-2.1-1.8h-2.2zm0-1.5h2.7c1.3 0 1.9-1.1 1.9-2.3 0-1-.5-2.1-1.9-2.1h-2.7v4.4z"/><path fill="#77bd43" d="M200.8 21.1v4.4h-53.6c-.1 2.6-1.3 5.4-3.5 7.7-1.4 1.5-4.3 2.3-6.6 2.3H125v-2.9h-12.1v-4H125V17.9h-11.9v-4H125V11h12.7c2.9 0 5.1.6 7 2.7 1.7 1.9 2.3 5.1 2.5 7.3h53.6z"/><path d="M156.5 18h-5.8c-.5-2.3-1.5-4.9-3.3-6.9-2.6-2.9-5.9-3.6-10.8-3.6H125V2.9h11c5.5 0 11.9 0 16.4 5.3 2.4 2.8 3.6 6.1 4.1 9.8zm0 10.5h-5.8c-.5 2.3-1.5 4.9-3.3 6.9-2.6 2.9-5.9 3.6-10.8 3.6H125v4.6h11c5.5 0 11.9 0 16.4-5.3 2.4-2.8 3.6-6.1 4.1-9.8zM4.2 43.6V3h22.1v4.5h-17v13.6h15.4v4.5H9.3v18H4.2zm34.5-18.1v18h-5.2V3H48c7.2 0 9.7 5.1 9.7 10.1 0 4.8-2.6 9.1-7.4 9.9v-.1c4.7.7 6.4 2.4 6.6 10 .1 1.7.6 8.1 1.4 10.6H53c-1.5-2.8-1-8.1-1.6-13.5-.5-4.5-4.4-4.5-6.1-4.5h-6.6zm0-4.5H47c3.7 0 5.5-3.8 5.5-7.4 0-2.9-1.5-6.2-5.5-6.2h-8.4V21zm27 22.6V3h22.4v4.5H70.9v13.6h15.7v4.5H70.9v13.5h17.5v4.5H65.7zm29.8 0V3h22.6v4.5h-17.4V21h15.7v4.5h-15.7v13.6h17.8v4.5h-23zM163 28.5h4.8v15.1H163zm32.4 0h5.2v15.1h-5.2zm-6.7 0l-4.8 15.1h-4.8l-4.7-15.1h4.7l2.5 8.6h.1l2.6-8.6zM175.9 18l-4.5-15H163v15h4.8V7.5h.1l3.3 10.5zM192 3l-4.5 15h4.5l3.3-10.5h.1V18h5.2V3z"/></svg>