<?xml version="1.0" encoding="UTF-8" standalone="no"?>
<!-- Created with PhotoLine 19.03 (www.pl32.de) -->
<!DOCTYPE svg PUBLIC "-//W3C//DTD SVG 1.1//EN" "http://www.w3.org/Graphics/SVG/1.1/DTD/svg11.dtd">
<svg width="240" height="65" viewBox="0 0 240 65" version="1.1" xmlns="http://www.w3.org/2000/svg" xmlns:xlink="http://www.w3.org/1999/xlink">
  <g transform="matrix(1 0 0 1 0 10)">
    <g transform="matrix(1.090674 0 0 1.092498 -24 -26.727273)">
      <path fill="#003366" d="M235.54 70.6 C235.25 70.73 234.96 70.79 234.66 70.79 C234.19 70.79 233.76 70.71 233.39 70.54 C233.01 70.38 232.7 70.16 232.44 69.87 C232.18 69.58 231.98 69.24 231.85 68.86 C231.71 68.47 231.64 68.05 231.64 67.61 C231.64 67.15 231.71 66.72 231.85 66.33 C231.98 65.94 232.18 65.6 232.44 65.3 C232.7 65.01 233.01 64.78 233.39 64.61 C233.76 64.45 234.19 64.37 234.66 64.37 C234.97 64.37 235.28 64.41 235.57 64.51 C235.87 64.6 236.14 64.74 236.37 64.92 C236.61 65.11 236.81 65.33 236.96 65.6 C237.12 65.87 237.21 66.18 237.25 66.53 L235.96 66.53 C235.88 66.19 235.72 65.93 235.49 65.76 C235.26 65.59 234.98 65.5 234.66 65.5 C234.35 65.5 234.1 65.56 233.88 65.68 C233.67 65.79 233.5 65.95 233.37 66.15 C233.24 66.35 233.14 66.57 233.08 66.82 C233.02 67.08 232.99 67.34 232.99 67.61 C232.99 67.87 233.02 68.12 233.08 68.36 C233.14 68.6 233.24 68.82 233.37 69.02 C233.5 69.21 233.67 69.37 233.88 69.49 C234.1 69.6 234.35 69.66 234.66 69.66 C235.11 69.66 235.45 69.55 235.69 69.32 C235.94 69.1 236.08 68.77 236.12 68.34 L234.76 68.34 L234.76 67.33 L237.34 67.33 L237.34 70.65 L236.48 70.65 L236.34 69.96 C236.1 70.26 235.84 70.48 235.54 70.6 Z M228.83 64.51 C229.11 64.51 229.36 64.56 229.58 64.64 C229.8 64.73 229.99 64.85 230.14 65.01 C230.3 65.16 230.42 65.34 230.51 65.55 C230.59 65.75 230.63 65.97 230.63 66.21 C230.63 66.57 230.55 66.88 230.4 67.14 C230.25 67.41 230 67.61 229.66 67.75 L229.66 67.76 C229.82 67.81 229.96 67.88 230.07 67.97 C230.18 68.07 230.27 68.18 230.34 68.31 C230.41 68.44 230.46 68.58 230.49 68.73 C230.52 68.89 230.54 69.04 230.55 69.2 C230.56 69.29 230.56 69.41 230.57 69.54 C230.57 69.67 230.59 69.81 230.6 69.95 C230.61 70.08 230.64 70.21 230.67 70.34 C230.7 70.46 230.75 70.56 230.81 70.65 L229.46 70.65 C229.39 70.46 229.34 70.22 229.32 69.95 C229.3 69.68 229.28 69.43 229.24 69.18 C229.2 68.86 229.1 68.62 228.95 68.47 C228.8 68.33 228.56 68.25 228.22 68.25 L226.87 68.25 L226.87 70.65 L225.52 70.65 L225.52 64.51 L228.83 64.51 Z M228.35 67.29 C228.66 67.29 228.89 67.22 229.05 67.08 C229.2 66.95 229.28 66.72 229.28 66.41 C229.28 66.11 229.2 65.9 229.05 65.76 C228.89 65.63 228.66 65.56 228.35 65.56 L226.87 65.56 L226.87 67.29 L228.35 67.29 Z M224.11 64.51 L224.11 65.65 L220.87 65.65 L220.87 66.96 L223.85 66.96 L223.85 68.01 L220.87 68.01 L220.87 69.52 L224.18 69.52 L224.18 70.65 L219.52 70.65 L219.52 64.51 L224.11 64.51 Z M216.05 69.6 C216.18 69.6 216.31 69.59 216.43 69.56 C216.55 69.54 216.65 69.49 216.74 69.43 C216.84 69.37 216.91 69.29 216.96 69.19 C217.02 69.09 217.05 68.95 217.05 68.79 C217.05 68.48 216.96 68.25 216.78 68.12 C216.6 67.98 216.37 67.92 216.07 67.92 L214.6 67.92 L214.6 69.6 L216.05 69.6 Z M216.14 64.51 C216.44 64.51 216.7 64.54 216.94 64.59 C217.18 64.64 217.39 64.73 217.56 64.84 C217.73 64.96 217.87 65.12 217.96 65.31 C218.06 65.51 218.1 65.75 218.1 66.03 C218.1 66.34 218.03 66.6 217.89 66.81 C217.75 67.01 217.54 67.18 217.27 67.32 C217.65 67.42 217.93 67.61 218.12 67.89 C218.3 68.16 218.4 68.49 218.4 68.87 C218.4 69.18 218.34 69.45 218.22 69.68 C218.09 69.9 217.93 70.09 217.73 70.23 C217.53 70.38 217.29 70.48 217.03 70.55 C216.77 70.62 216.5 70.65 216.23 70.65 L213.25 70.65 L213.25 64.51 L216.14 64.51 Z M215.97 67 C216.21 67 216.41 66.94 216.56 66.83 C216.72 66.71 216.8 66.52 216.8 66.27 C216.8 66.12 216.77 66.01 216.72 65.91 C216.67 65.82 216.6 65.75 216.51 65.7 C216.43 65.65 216.33 65.61 216.22 65.59 C216.1 65.57 215.99 65.56 215.87 65.56 L214.6 65.56 L214.6 67 L215.97 67 Z M207.86 64.51 L210.42 68.63 L210.44 68.63 L210.44 64.51 L211.7 64.51 L211.7 70.65 L210.35 70.65 L207.8 66.54 L207.78 66.54 L207.78 70.65 L206.52 70.65 L206.52 64.51 L207.86 64.51 Z M203.33 64.51 C203.6 64.51 203.85 64.56 204.07 64.64 C204.29 64.73 204.48 64.85 204.64 65.01 C204.8 65.16 204.92 65.34 205 65.55 C205.08 65.75 205.12 65.97 205.12 66.21 C205.12 66.57 205.05 66.88 204.9 67.14 C204.74 67.41 204.5 67.61 204.15 67.75 L204.15 67.76 C204.32 67.81 204.46 67.88 204.57 67.97 C204.67 68.07 204.76 68.18 204.83 68.31 C204.9 68.44 204.95 68.58 204.98 68.73 C205.01 68.89 205.04 69.04 205.05 69.2 C205.05 69.29 205.06 69.41 205.06 69.54 C205.07 69.67 205.08 69.81 205.09 69.95 C205.11 70.08 205.13 70.21 205.16 70.34 C205.19 70.46 205.24 70.56 205.31 70.65 L203.95 70.65 C203.88 70.46 203.83 70.22 203.82 69.95 C203.8 69.68 203.77 69.43 203.74 69.18 C203.69 68.86 203.6 68.62 203.45 68.47 C203.3 68.33 203.05 68.25 202.72 68.25 L201.37 68.25 L201.37 70.65 L200.01 70.65 L200.01 64.51 L203.33 64.51 Z M202.85 67.29 C203.16 67.29 203.39 67.22 203.54 67.08 C203.7 66.95 203.78 66.72 203.78 66.41 C203.78 66.11 203.7 65.9 203.54 65.76 C203.39 65.63 203.16 65.56 202.85 65.56 L201.37 65.56 L201.37 67.29 L202.85 67.29 Z M197.93 70.18 C197.47 70.59 196.83 70.79 196.01 70.79 C195.18 70.79 194.53 70.59 194.08 70.19 C193.62 69.79 193.39 69.17 193.39 68.33 L193.39 64.51 L194.74 64.51 L194.74 68.33 C194.74 68.5 194.76 68.66 194.79 68.82 C194.81 68.98 194.88 69.12 194.97 69.25 C195.06 69.37 195.19 69.47 195.35 69.55 C195.51 69.62 195.73 69.66 196.01 69.66 C196.49 69.66 196.82 69.56 197.01 69.34 C197.19 69.13 197.28 68.79 197.28 68.33 L197.28 64.51 L198.63 64.51 L198.63 68.33 C198.63 69.16 198.4 69.78 197.93 70.18 Z M197.48 63.82 L196.32 63.82 L196.32 62.82 L197.48 62.82 L197.48 63.82 Z M195.71 63.82 L194.55 63.82 L194.55 62.82 L195.71 62.82 L195.71 63.82 Z M188.07 64.51 L190.63 68.63 L190.65 68.63 L190.65 64.51 L191.92 64.51 L191.92 70.65 L190.56 70.65 L188.01 66.54 L187.99 66.54 L187.99 70.65 L186.73 70.65 L186.73 64.51 L188.07 64.51 Z M185.18 68.83 L182.59 68.83 L182.59 67.78 L185.18 67.78 L185.18 68.83 Z M177.21 64.51 L179.78 68.63 L179.79 68.63 L179.79 64.51 L181.06 64.51 L181.06 70.65 L179.71 70.65 L177.15 66.54 L177.14 66.54 L177.14 70.65 L175.87 70.65 L175.87 64.51 L177.21 64.51 Z M174.46 64.51 L174.46 65.65 L171.22 65.65 L171.22 66.96 L174.2 66.96 L174.2 68.01 L171.22 68.01 L171.22 69.52 L174.53 69.52 L174.53 70.65 L169.87 70.65 L169.87 64.51 L174.46 64.51 Z M166.75 70.6 C166.46 70.73 166.16 70.79 165.86 70.79 C165.39 70.79 164.97 70.71 164.59 70.54 C164.22 70.38 163.9 70.16 163.64 69.87 C163.38 69.58 163.19 69.24 163.05 68.86 C162.91 68.47 162.84 68.05 162.84 67.61 C162.84 67.15 162.91 66.72 163.05 66.33 C163.19 65.94 163.38 65.6 163.64 65.3 C163.9 65.01 164.22 64.78 164.59 64.61 C164.97 64.45 165.39 64.37 165.86 64.37 C166.18 64.37 166.48 64.41 166.78 64.51 C167.07 64.6 167.34 64.74 167.58 64.92 C167.82 65.11 168.01 65.33 168.17 65.6 C168.32 65.87 168.42 66.18 168.45 66.53 L167.16 66.53 C167.08 66.19 166.93 65.93 166.7 65.76 C166.47 65.59 166.19 65.5 165.86 65.5 C165.56 65.5 165.3 65.56 165.09 65.68 C164.88 65.79 164.7 65.95 164.57 66.15 C164.44 66.35 164.34 66.57 164.28 66.82 C164.22 67.08 164.19 67.34 164.19 67.61 C164.19 67.87 164.22 68.12 164.28 68.36 C164.35 68.6 164.44 68.82 164.57 69.02 C164.7 69.21 164.88 69.37 165.09 69.49 C165.3 69.6 165.56 69.66 165.86 69.66 C166.31 69.66 166.66 69.55 166.9 69.32 C167.14 69.1 167.28 68.77 167.32 68.34 L165.97 68.34 L165.97 67.33 L168.55 67.33 L168.55 70.65 L167.69 70.65 L167.55 69.96 C167.31 70.26 167.04 70.48 166.75 70.6 Z M157.87 64.51 L160.44 68.63 L160.45 68.63 L160.45 64.51 L161.72 64.51 L161.72 70.65 L160.37 70.65 L157.81 66.54 L157.8 66.54 L157.8 70.65 L156.53 70.65 L156.53 64.51 L157.87 64.51 Z M153.47 64.51 L155.77 70.65 L154.37 70.65 L153.9 69.28 L151.6 69.28 L151.12 70.65 L149.76 70.65 L152.09 64.51 L153.47 64.51 Z M153.55 68.28 L152.77 66.02 L152.76 66.02 L151.96 68.28 L153.55 68.28 Z M146.21 64.51 L146.21 69.52 L149.2 69.52 L149.2 70.65 L144.86 70.65 L144.86 64.51 L146.21 64.51 Z M141.84 64.51 C142.12 64.51 142.37 64.56 142.59 64.64 C142.81 64.73 143 64.85 143.16 65.01 C143.31 65.16 143.43 65.34 143.52 65.55 C143.6 65.75 143.64 65.97 143.64 66.21 C143.64 66.57 143.56 66.88 143.41 67.14 C143.26 67.41 143.01 67.61 142.67 67.75 L142.67 67.76 C142.84 67.81 142.97 67.88 143.08 67.97 C143.19 68.07 143.28 68.18 143.35 68.31 C143.42 68.44 143.47 68.58 143.5 68.73 C143.53 68.89 143.55 69.04 143.56 69.2 C143.57 69.29 143.57 69.41 143.58 69.54 C143.59 69.67 143.6 69.81 143.61 69.95 C143.62 70.08 143.65 70.21 143.68 70.34 C143.71 70.46 143.76 70.56 143.82 70.65 L142.47 70.65 C142.4 70.46 142.35 70.22 142.33 69.95 C142.31 69.68 142.29 69.43 142.26 69.18 C142.21 68.86 142.11 68.62 141.96 68.47 C141.81 68.33 141.57 68.25 141.23 68.25 L139.88 68.25 L139.88 70.65 L138.53 70.65 L138.53 64.51 L141.84 64.51 Z M141.36 67.29 C141.67 67.29 141.9 67.22 142.06 67.08 C142.21 66.95 142.29 66.72 142.29 66.41 C142.29 66.11 142.21 65.9 142.06 65.76 C141.9 65.63 141.67 65.56 141.36 65.56 L139.88 65.56 L139.88 67.29 L141.36 67.29 Z M137.21 64.51 L137.21 65.65 L133.97 65.65 L133.97 66.96 L136.94 66.96 L136.94 68.01 L133.97 68.01 L133.97 69.52 L137.28 69.52 L137.28 70.65 L132.62 70.65 L132.62 64.51 L137.21 64.51 Z"/>
    </g>
    <g transform="matrix(1.090674 0 0 1.092498 -24 -26.727273)">
      <path fill="#003366" d="M186.53 56.36 L186.53 55.22 L191.56 55.22 L191.56 56.36 L189.72 56.36 L189.72 61.36 L188.37 61.36 L188.37 56.36 L186.53 56.36 Z M184.36 55.22 L186.66 61.36 L185.26 61.36 L184.8 60 L182.5 60 L182.02 61.36 L180.66 61.36 L182.98 55.22 L184.36 55.22 Z M184.44 58.99 L183.67 56.74 L183.65 56.74 L182.85 58.99 L184.44 58.99 Z M185.12 54.54 L183.96 54.54 L183.96 53.53 L185.12 53.53 L185.12 54.54 Z M183.35 54.54 L182.19 54.54 L182.19 53.53 L183.35 53.53 L183.35 54.54 Z M175.72 56.36 L175.72 55.22 L180.75 55.22 L180.75 56.36 L178.91 56.36 L178.91 61.36 L177.56 61.36 L177.56 56.36 L175.72 56.36 Z M174.64 61.36 L173.29 61.36 L173.29 55.22 L174.64 55.22 L174.64 61.36 Z M168.36 59.85 C168.43 59.99 168.53 60.11 168.66 60.2 C168.78 60.29 168.93 60.35 169.09 60.4 C169.26 60.44 169.43 60.46 169.61 60.46 C169.73 60.46 169.86 60.45 170 60.43 C170.13 60.41 170.26 60.37 170.38 60.31 C170.5 60.26 170.6 60.18 170.68 60.08 C170.76 59.98 170.8 59.85 170.8 59.7 C170.8 59.53 170.75 59.39 170.65 59.29 C170.54 59.19 170.4 59.1 170.23 59.03 C170.06 58.96 169.86 58.9 169.64 58.85 C169.43 58.8 169.21 58.74 168.98 58.68 C168.75 58.62 168.53 58.55 168.31 58.47 C168.09 58.39 167.9 58.28 167.73 58.15 C167.55 58.02 167.41 57.85 167.31 57.65 C167.2 57.46 167.15 57.22 167.15 56.94 C167.15 56.62 167.22 56.35 167.35 56.11 C167.49 55.88 167.66 55.69 167.88 55.53 C168.1 55.38 168.34 55.26 168.62 55.19 C168.89 55.11 169.17 55.08 169.44 55.08 C169.77 55.08 170.07 55.11 170.37 55.18 C170.66 55.26 170.93 55.37 171.16 55.53 C171.39 55.69 171.57 55.9 171.7 56.15 C171.84 56.4 171.9 56.7 171.9 57.05 L170.6 57.05 C170.58 56.87 170.55 56.72 170.48 56.6 C170.42 56.48 170.33 56.38 170.22 56.32 C170.11 56.25 169.99 56.2 169.84 56.17 C169.7 56.14 169.55 56.13 169.38 56.13 C169.28 56.13 169.17 56.14 169.06 56.16 C168.95 56.18 168.85 56.22 168.76 56.28 C168.67 56.34 168.6 56.41 168.54 56.5 C168.48 56.58 168.46 56.69 168.46 56.82 C168.46 56.94 168.48 57.04 168.52 57.12 C168.57 57.19 168.66 57.26 168.79 57.32 C168.93 57.39 169.11 57.45 169.35 57.51 C169.59 57.57 169.9 57.66 170.29 57.75 C170.4 57.78 170.56 57.82 170.76 57.88 C170.97 57.94 171.17 58.03 171.37 58.17 C171.57 58.3 171.74 58.47 171.89 58.69 C172.04 58.92 172.11 59.2 172.11 59.54 C172.11 59.82 172.06 60.08 171.95 60.32 C171.84 60.57 171.68 60.77 171.46 60.95 C171.25 61.12 170.98 61.26 170.66 61.36 C170.34 61.45 169.97 61.5 169.56 61.5 C169.22 61.5 168.89 61.46 168.57 61.38 C168.26 61.29 167.97 61.16 167.73 60.99 C167.49 60.81 167.29 60.58 167.15 60.31 C167.01 60.03 166.94 59.7 166.94 59.33 L168.25 59.33 C168.25 59.53 168.29 59.71 168.36 59.85 Z M164.18 55.22 C164.46 55.22 164.7 55.27 164.93 55.36 C165.15 55.45 165.33 55.57 165.49 55.72 C165.65 55.88 165.77 56.06 165.85 56.26 C165.94 56.46 165.98 56.68 165.98 56.92 C165.98 57.28 165.9 57.59 165.75 57.85 C165.6 58.12 165.35 58.32 165.01 58.46 L165.01 58.47 C165.17 58.52 165.31 58.59 165.42 58.68 C165.53 58.78 165.62 58.89 165.69 59.02 C165.75 59.15 165.8 59.29 165.84 59.45 C165.87 59.6 165.89 59.76 165.9 59.91 C165.91 60.01 165.91 60.12 165.92 60.25 C165.92 60.39 165.93 60.52 165.95 60.66 C165.96 60.8 165.98 60.93 166.02 61.05 C166.05 61.17 166.09 61.28 166.16 61.36 L164.81 61.36 C164.73 61.17 164.69 60.94 164.67 60.67 C164.65 60.4 164.63 60.14 164.59 59.89 C164.55 59.57 164.45 59.34 164.3 59.19 C164.15 59.04 163.91 58.96 163.57 58.96 L162.22 58.96 L162.22 61.36 L160.87 61.36 L160.87 55.22 L164.18 55.22 Z M163.7 58 C164.01 58 164.24 57.93 164.4 57.79 C164.55 57.66 164.63 57.43 164.63 57.12 C164.63 56.83 164.55 56.61 164.4 56.48 C164.24 56.34 164.01 56.27 163.7 56.27 L162.22 56.27 L162.22 58 L163.7 58 Z M159.55 55.22 L159.55 56.36 L156.31 56.36 L156.31 57.67 L159.28 57.67 L159.28 58.72 L156.31 58.72 L156.31 60.23 L159.62 60.23 L159.62 61.36 L154.96 61.36 L154.96 55.22 L159.55 55.22 Z M150.4 61.36 L148.41 55.22 L149.8 55.22 L151.16 59.54 L151.18 59.54 L152.56 55.22 L153.96 55.22 L151.92 61.36 L150.4 61.36 Z M147.44 61.36 L146.09 61.36 L146.09 55.22 L147.44 55.22 L147.44 61.36 Z M140.74 55.22 L143.3 59.34 L143.32 59.34 L143.32 55.22 L144.58 55.22 L144.58 61.36 L143.23 61.36 L140.68 57.25 L140.66 57.25 L140.66 61.36 L139.39 61.36 L139.39 55.22 L140.74 55.22 Z M137.18 60.9 C136.71 61.3 136.07 61.5 135.25 61.5 C134.42 61.5 133.77 61.3 133.32 60.9 C132.86 60.5 132.63 59.88 132.63 59.04 L132.63 55.22 L133.99 55.22 L133.99 59.04 C133.99 59.21 134 59.37 134.03 59.53 C134.06 59.69 134.12 59.83 134.21 59.96 C134.3 60.08 134.43 60.18 134.59 60.26 C134.76 60.34 134.98 60.37 135.25 60.37 C135.73 60.37 136.06 60.27 136.25 60.05 C136.43 59.84 136.52 59.5 136.52 59.04 L136.52 55.22 L137.87 55.22 L137.87 59.04 C137.87 59.87 137.64 60.49 137.18 60.9 Z"/>
    </g>
    <g transform="matrix(1.090674 0 0 1.092498 -24 -26.727273)">
      <path fill="#003366" d="M239.21 45.82 C239.49 45.82 239.73 45.86 239.95 45.95 C240.18 46.04 240.36 46.16 240.52 46.32 C240.68 46.47 240.8 46.65 240.88 46.86 C240.97 47.06 241.01 47.28 241.01 47.52 C241.01 47.88 240.93 48.19 240.78 48.45 C240.63 48.72 240.38 48.92 240.04 49.06 L240.04 49.07 C240.2 49.12 240.34 49.19 240.45 49.28 C240.56 49.38 240.65 49.49 240.72 49.62 C240.78 49.75 240.83 49.89 240.86 50.04 C240.9 50.2 240.92 50.35 240.93 50.51 C240.94 50.61 240.94 50.72 240.95 50.85 C240.95 50.98 240.96 51.12 240.98 51.26 C240.99 51.4 241.01 51.53 241.05 51.65 C241.08 51.77 241.12 51.88 241.19 51.96 L239.84 51.96 C239.76 51.77 239.72 51.54 239.7 51.27 C239.68 51 239.66 50.74 239.62 50.49 C239.58 50.17 239.48 49.94 239.33 49.79 C239.18 49.64 238.94 49.56 238.6 49.56 L237.25 49.56 L237.25 51.96 L235.9 51.96 L235.9 45.82 L239.21 45.82 Z M238.73 48.6 C239.04 48.6 239.27 48.53 239.43 48.39 C239.58 48.25 239.66 48.03 239.66 47.72 C239.66 47.42 239.58 47.21 239.43 47.07 C239.27 46.94 239.04 46.87 238.73 46.87 L237.25 46.87 L237.25 48.6 L238.73 48.6 Z M234.62 45.82 L234.62 46.96 L231.38 46.96 L231.38 48.27 L234.35 48.27 L234.35 49.32 L231.38 49.32 L231.38 50.83 L234.69 50.83 L234.69 51.96 L230.03 51.96 L230.03 45.82 L234.62 45.82 Z M226.13 45.82 C226.53 45.82 226.9 45.88 227.24 46.01 C227.58 46.14 227.87 46.32 228.12 46.58 C228.37 46.83 228.57 47.14 228.71 47.52 C228.85 47.9 228.92 48.35 228.92 48.86 C228.92 49.3 228.86 49.72 228.75 50.09 C228.63 50.47 228.46 50.8 228.23 51.08 C227.99 51.35 227.7 51.57 227.36 51.72 C227.01 51.88 226.6 51.96 226.13 51.96 L223.48 51.96 L223.48 45.82 L226.13 45.82 Z M226.04 50.83 C226.23 50.83 226.42 50.79 226.6 50.73 C226.79 50.67 226.95 50.56 227.09 50.42 C227.24 50.27 227.35 50.08 227.44 49.85 C227.52 49.61 227.57 49.32 227.57 48.99 C227.57 48.68 227.54 48.4 227.48 48.15 C227.42 47.9 227.32 47.68 227.18 47.51 C227.04 47.33 226.86 47.19 226.63 47.1 C226.41 47 226.13 46.96 225.8 46.96 L224.83 46.96 L224.83 50.83 L226.04 50.83 Z M218.19 45.82 L220.76 49.94 L220.77 49.94 L220.77 45.82 L222.04 45.82 L222.04 51.96 L220.69 51.96 L218.13 47.85 L218.12 47.85 L218.12 51.96 L216.85 51.96 L216.85 45.82 L218.19 45.82 Z M213.75 45.82 L216.05 51.96 L214.65 51.96 L214.18 50.59 L211.89 50.59 L211.41 51.96 L210.05 51.96 L212.37 45.82 L213.75 45.82 Z M213.83 49.59 L213.06 47.33 L213.04 47.33 L212.24 49.59 L213.83 49.59 Z M203.88 45.82 L205.45 45.82 L206.65 47.78 L207.9 45.82 L209.38 45.82 L207.41 48.75 L209.55 51.96 L207.94 51.96 L206.6 49.84 L205.23 51.96 L203.72 51.96 L205.86 48.75 L203.88 45.82 Z M202.84 45.82 L202.84 46.96 L199.6 46.96 L199.6 48.27 L202.57 48.27 L202.57 49.32 L199.6 49.32 L199.6 50.83 L202.91 50.83 L202.91 51.96 L198.25 51.96 L198.25 45.82 L202.84 45.82 Z M194.18 45.82 L194.18 50.83 L197.17 50.83 L197.17 51.96 L192.83 51.96 L192.83 45.82 L194.18 45.82 Z M189.6 45.82 L191.89 51.96 L190.49 51.96 L190.03 50.59 L187.73 50.59 L187.25 51.96 L185.89 51.96 L188.21 45.82 L189.6 45.82 Z M189.68 49.59 L188.9 47.33 L188.88 47.33 L188.08 49.59 L189.68 49.59 Z M185.24 50.14 L182.65 50.14 L182.65 49.09 L185.24 49.09 L185.24 50.14 Z M177.29 45.82 L177.29 48.18 L179.77 48.18 L179.77 45.82 L181.12 45.82 L181.12 51.96 L179.77 51.96 L179.77 49.31 L177.29 49.31 L177.29 51.96 L175.94 51.96 L175.94 45.82 L177.29 45.82 Z M173.19 47.46 C173.11 47.33 173 47.22 172.88 47.12 C172.76 47.02 172.63 46.95 172.48 46.89 C172.33 46.84 172.17 46.81 172 46.81 C171.69 46.81 171.44 46.87 171.23 46.99 C171.01 47.1 170.84 47.26 170.71 47.46 C170.58 47.66 170.48 47.88 170.42 48.13 C170.36 48.39 170.33 48.65 170.33 48.92 C170.33 49.17 170.36 49.43 170.42 49.67 C170.48 49.91 170.58 50.13 170.71 50.33 C170.84 50.52 171.01 50.68 171.23 50.8 C171.44 50.91 171.7 50.97 172 50.97 C172.41 50.97 172.73 50.85 172.97 50.59 C173.2 50.34 173.34 50.01 173.39 49.6 L174.7 49.6 C174.67 49.98 174.58 50.33 174.43 50.64 C174.29 50.95 174.1 51.21 173.87 51.43 C173.63 51.65 173.35 51.81 173.04 51.93 C172.73 52.04 172.38 52.1 172 52.1 C171.53 52.1 171.11 52.02 170.73 51.85 C170.36 51.69 170.04 51.47 169.78 51.18 C169.52 50.89 169.32 50.56 169.19 50.17 C169.05 49.78 168.98 49.36 168.98 48.92 C168.98 48.46 169.05 48.03 169.19 47.64 C169.32 47.25 169.52 46.91 169.78 46.61 C170.04 46.32 170.36 46.09 170.73 45.92 C171.11 45.76 171.53 45.67 172 45.67 C172.34 45.67 172.66 45.72 172.96 45.82 C173.26 45.92 173.53 46.06 173.77 46.25 C174.01 46.43 174.2 46.66 174.36 46.94 C174.51 47.21 174.61 47.53 174.65 47.88 L173.34 47.88 C173.32 47.73 173.27 47.59 173.19 47.46 Z M167.8 51.96 L166.44 51.96 L166.44 45.82 L167.8 45.82 L167.8 51.96 Z M163.29 45.82 C163.56 45.82 163.81 45.86 164.03 45.95 C164.25 46.04 164.44 46.16 164.6 46.32 C164.75 46.47 164.87 46.65 164.96 46.86 C165.04 47.06 165.08 47.28 165.08 47.52 C165.08 47.88 165.01 48.19 164.85 48.45 C164.7 48.72 164.45 48.92 164.11 49.06 L164.11 49.07 C164.28 49.12 164.41 49.19 164.52 49.28 C164.63 49.38 164.72 49.49 164.79 49.62 C164.86 49.75 164.91 49.89 164.94 50.04 C164.97 50.2 164.99 50.35 165 50.51 C165.01 50.61 165.02 50.72 165.02 50.85 C165.03 50.98 165.04 51.12 165.05 51.26 C165.07 51.4 165.09 51.53 165.12 51.65 C165.15 51.77 165.2 51.88 165.26 51.96 L163.91 51.96 C163.84 51.77 163.79 51.54 163.77 51.27 C163.76 51 163.73 50.74 163.7 50.49 C163.65 50.17 163.55 49.94 163.4 49.79 C163.26 49.64 163.01 49.56 162.67 49.56 L161.32 49.56 L161.32 51.96 L159.97 51.96 L159.97 45.82 L163.29 45.82 Z M162.8 48.6 C163.11 48.6 163.35 48.53 163.5 48.39 C163.66 48.25 163.73 48.03 163.73 47.72 C163.73 47.42 163.66 47.21 163.5 47.07 C163.35 46.94 163.11 46.87 162.8 46.87 L161.33 46.87 L161.33 48.6 L162.8 48.6 Z M156.09 45.82 C156.49 45.82 156.86 45.88 157.2 46.01 C157.54 46.14 157.83 46.32 158.08 46.58 C158.33 46.83 158.53 47.14 158.67 47.52 C158.81 47.9 158.88 48.35 158.88 48.86 C158.88 49.3 158.82 49.72 158.71 50.09 C158.59 50.47 158.42 50.8 158.19 51.08 C157.95 51.35 157.67 51.57 157.32 51.72 C156.97 51.88 156.56 51.96 156.09 51.96 L153.44 51.96 L153.44 45.82 L156.09 45.82 Z M156 50.83 C156.19 50.83 156.38 50.79 156.57 50.73 C156.75 50.67 156.91 50.56 157.06 50.42 C157.2 50.27 157.31 50.08 157.4 49.85 C157.49 49.61 157.53 49.32 157.53 48.99 C157.53 48.68 157.5 48.4 157.44 48.15 C157.38 47.9 157.28 47.68 157.14 47.51 C157 47.33 156.82 47.19 156.6 47.1 C156.37 47 156.09 46.96 155.76 46.96 L154.79 46.96 L154.79 50.83 L156 50.83 Z M152.12 45.82 L152.12 46.96 L148.88 46.96 L148.88 48.27 L151.86 48.27 L151.86 49.32 L148.88 49.32 L148.88 50.83 L152.19 50.83 L152.19 51.96 L147.53 51.96 L147.53 45.82 L152.12 45.82 Z M145.98 51.96 L144.63 51.96 L144.63 45.82 L145.98 45.82 L145.98 51.96 Z M141.34 45.82 C141.62 45.82 141.87 45.86 142.09 45.95 C142.31 46.04 142.5 46.16 142.65 46.32 C142.81 46.47 142.93 46.65 143.02 46.86 C143.1 47.06 143.14 47.28 143.14 47.52 C143.14 47.88 143.06 48.19 142.91 48.45 C142.76 48.72 142.51 48.92 142.17 49.06 L142.17 49.07 C142.33 49.12 142.47 49.19 142.58 49.28 C142.69 49.38 142.78 49.49 142.85 49.62 C142.92 49.75 142.97 49.89 143 50.04 C143.03 50.2 143.05 50.35 143.06 50.51 C143.07 50.61 143.07 50.72 143.08 50.85 C143.09 50.98 143.1 51.12 143.11 51.26 C143.12 51.4 143.15 51.53 143.18 51.65 C143.21 51.77 143.26 51.88 143.32 51.96 L141.97 51.96 C141.9 51.77 141.85 51.54 141.83 51.27 C141.81 51 141.79 50.74 141.75 50.49 C141.71 50.17 141.61 49.94 141.46 49.79 C141.31 49.64 141.07 49.56 140.73 49.56 L139.38 49.56 L139.38 51.96 L138.03 51.96 L138.03 45.82 L141.34 45.82 Z M140.86 48.6 C141.17 48.6 141.4 48.53 141.56 48.39 C141.71 48.25 141.79 48.03 141.79 47.72 C141.79 47.42 141.71 47.21 141.56 47.07 C141.4 46.94 141.17 46.87 140.86 46.87 L139.38 46.87 L139.38 48.6 L140.86 48.6 Z M136.94 45.82 L136.94 46.96 L133.97 46.96 L133.97 48.37 L136.54 48.37 L136.54 49.42 L133.97 49.42 L133.97 51.96 L132.62 51.96 L132.62 45.82 L136.94 45.82 Z"/>
    </g>
    <g transform="matrix(1.090674 0 0 1.092498 -24 -26.727273)">
      <path fill="#003366" d="M119.16 67.74 L93.56 67.74 C95.13 69.02 96.95 69.99 98.88 70.66 L113.83 70.66 C115.76 69.99 117.59 69.02 119.16 67.74 Z"/>
    </g>
    <g transform="matrix(1.090674 0 0 1.092498 -24 -26.727273)">
      <path fill="#003366" d="M48.67 66.28 L59.77 66.28 L59.79 66.23 L59.76 66.23 L60.68 63.36 L49.78 63.36"/>
    </g>
    <g transform="matrix(1.090674 0 0 1.092498 -24 -26.727273)">
      <path fill="#003366" d="M48.17 67.74 L47.06 70.66 L58.37 70.66 L59.33 67.74"/>
    </g>
    <g transform="matrix(1.090674 0 0 1.092498 -24 -26.727273)">
      <rect fill="#003366" x="24.48" y="67.74" width="10.6" height="2.92"/>
    </g>
    <g transform="matrix(1.090674 0 0 1.092498 -24 -26.727273)">
      <rect fill="#003366" x="24.48" y="63.36" width="10.6" height="2.92"/>
    </g>
    <g transform="matrix(1.090674 0 0 1.092498 -24 -26.727273)">
      <rect fill="#003366" x="24.48" y="58.99" width="10.6" height="2.92"/>
    </g>
    <g transform="matrix(1.090674 0 0 1.092498 -24 -26.727273)">
      <rect fill="#003366" x="24.48" y="54.61" width="10.6" height="2.92"/>
    </g>
    <g transform="matrix(1.090674 0 0 1.092498 -24 -26.727273)">
      <rect fill="#003366" x="24.48" y="41.48" width="10.6" height="2.92"/>
    </g>
    <g transform="matrix(1.090674 0 0 1.092498 -24 -26.727273)">
      <rect fill="#003366" x="24.48" y="37.1" width="10.6" height="2.92"/>
    </g>
    <g transform="matrix(1.090674 0 0 1.092498 -24 -26.727273)">
      <rect fill="#003366" x="24.48" y="28.35" width="32.38" height="2.92"/>
    </g>
    <g transform="matrix(1.090674 0 0 1.092498 -24 -26.727273)">
      <rect fill="#003366" x="24.48" y="32.72" width="32.38" height="2.92"/>
    </g>
    <g transform="matrix(1.090674 0 0 1.092498 -24 -26.727273)">
      <path fill="#003366" d="M67.4 41.48 L57.85 41.48 L56.74 44.4 L66.51 44.4"/>
    </g>
    <g transform="matrix(1.090674 0 0 1.092498 -24 -26.727273)">
      <path fill="#003366" d="M61.58 31.26 L74.77 31.26 L73.64 28.35 L62.69 28.35"/>
    </g>
    <g transform="matrix(1.090674 0 0 1.092498 -24 -26.727273)">
      <path fill="#003366" d="M59.97 35.64 L76.42 35.64 L75.29 32.72 L61.08 32.72"/>
    </g>
    <g transform="matrix(1.090674 0 0 1.092498 -24 -26.727273)">
      <path fill="#003366" d="M68.76 40.02 L78.08 40.02 L76.94 37.1 L59.46 37.1 L58.36 40.02 L67.82 40.02 L68.23 38.68 L68.34 38.68"/>
    </g>
    <g transform="matrix(1.090674 0 0 1.092498 -24 -26.727273)">
      <path fill="#003366" d="M70.06 44.4 L79.73 44.4 L78.59 41.48 L69.17 41.48"/>
    </g>
    <g transform="matrix(1.090674 0 0 1.092498 -24 -26.727273)">
      <path fill="#003366" d="M71.37 48.77 L81.38 48.77 L80.24 45.85 L70.48 45.85"/>
    </g>
    <g transform="matrix(1.090674 0 0 1.092498 -24 -26.727273)">
      <path fill="#003366" d="M72.68 53.14 L83.03 53.14 L81.9 50.22 L71.78 50.22"/>
    </g>
    <g transform="matrix(1.090674 0 0 1.092498 -24 -26.727273)">
      <path fill="#003366" d="M51.9 57.53 L84.68 57.53 L83.55 54.61 L53.01 54.61"/>
    </g>
    <g transform="matrix(1.090674 0 0 1.092498 -24 -26.727273)">
      <path fill="#003366" d="M50.29 61.9 L86.33 61.9 L85.2 58.99 L51.39 58.99"/>
    </g>
    <g transform="matrix(1.090674 0 0 1.092498 -24 -26.727273)">
      <path fill="#003366" d="M76.89 66.28 L87.98 66.28 L86.85 63.36 L75.91 63.36"/>
    </g>
    <g transform="matrix(1.090674 0 0 1.092498 -24 -26.727273)">
      <path fill="#003366" d="M77.3 67.74 L78.26 70.66 L89.63 70.66 L88.5 67.74"/>
    </g>
    <g transform="matrix(1.090674 0 0 1.092498 -24 -26.727273)">
      <rect fill="#003366" x="88.42" y="28.35" width="10.6" height="2.92"/>
    </g>
    <g transform="matrix(1.090674 0 0 1.092498 -24 -26.727273)">
      <rect fill="#003366" x="88.42" y="32.72" width="10.6" height="2.92"/>
    </g>
    <g transform="matrix(1.090674 0 0 1.092498 -24 -26.727273)">
      <rect fill="#003366" x="88.42" y="37.1" width="10.6" height="2.92"/>
    </g>
    <g transform="matrix(1.090674 0 0 1.092498 -24 -26.727273)">
      <rect fill="#003366" x="88.42" y="41.48" width="10.6" height="2.92"/>
    </g>
    <g transform="matrix(1.090674 0 0 1.092498 -24 -26.727273)">
      <rect fill="#003366" x="88.42" y="45.85" width="10.6" height="2.92"/>
    </g>
    <g transform="matrix(1.090674 0 0 1.092498 -24 -26.727273)">
      <rect fill="#003366" x="88.42" y="50.22" width="10.6" height="2.92"/>
    </g>
    <g transform="matrix(1.090674 0 0 1.092498 -24 -26.727273)">
      <path fill="#003366" d="M88.5 57.53 L99.21 57.53 C99.08 56.77 99.01 55.97 99.01 55.12 L99.01 54.61 L88.42 54.61 L88.42 55.99 C88.42 56.52 88.46 57.03 88.5 57.53 Z"/>
    </g>
    <g transform="matrix(1.090674 0 0 1.092498 -24 -26.727273)">
      <path fill="#003366" d="M89.45 61.9 L101.53 61.9 C100.59 61.17 99.95 60.17 99.55 58.99 L88.67 58.99 C88.85 60.03 89.1 61.01 89.45 61.9 Z"/>
    </g>
    <g transform="matrix(1.090674 0 0 1.092498 -24 -26.727273)">
      <path fill="#003366" d="M122.68 63.36 L90.05 63.36 C90.62 64.45 91.32 65.42 92.12 66.28 L120.61 66.28 C121.41 65.42 122.11 64.45 122.68 63.36 Z"/>
    </g>
    <g transform="matrix(1.090674 0 0 1.092498 -24 -26.727273)">
      <path fill="#003366" d="M124.06 58.99 L113.18 58.99 C112.77 60.17 112.13 61.17 111.18 61.9 L123.28 61.9 C123.63 61.01 123.88 60.03 124.06 58.99 Z"/>
    </g>
    <g transform="matrix(1.090674 0 0 1.092498 -24 -26.727273)">
      <rect fill="#003366" x="113.72" y="28.35" width="10.6" height="2.92"/>
    </g>
    <g transform="matrix(1.090674 0 0 1.092498 -24 -26.727273)">
      <rect fill="#003366" x="113.72" y="32.72" width="10.6" height="2.92"/>
    </g>
    <g transform="matrix(1.090674 0 0 1.092498 -24 -26.727273)">
      <rect fill="#003366" x="113.72" y="37.1" width="10.6" height="2.92"/>
    </g>
    <g transform="matrix(1.090674 0 0 1.092498 -24 -26.727273)">
      <rect fill="#003366" x="113.72" y="41.48" width="10.6" height="2.92"/>
    </g>
    <g transform="matrix(1.090674 0 0 1.092498 -24 -26.727273)">
      <rect fill="#003366" x="113.72" y="45.85" width="10.6" height="2.92"/>
    </g>
    <g transform="matrix(1.090674 0 0 1.092498 -24 -26.727273)">
      <rect fill="#003366" x="113.72" y="50.22" width="10.6" height="2.92"/>
    </g>
    <g transform="matrix(1.090674 0 0 1.092498 -24 -26.727273)">
      <path fill="#003366" d="M124.31 55.99 L124.31 54.61 L113.72 54.61 L113.72 55.12 C113.72 55.97 113.65 56.77 113.52 57.53 L124.23 57.53 C124.27 57.03 124.31 56.52 124.31 55.99 Z"/>
    </g>
    <g transform="matrix(1.090674 0 0 1.092498 -24 -26.727273)">
      <path fill="#003366" d="M24.48 50.22 L24.48 53.14 L63.89 53.14 L64.79 50.22"/>
    </g>
    <g transform="matrix(1.090674 0 0 1.092498 -24 -26.727273)">
      <path fill="#003366" d="M24.48 45.85 L24.48 48.77 L65.2 48.77 L66.1 45.85"/>
    </g>
  </g>
</svg>
