<?xml version="1.0" encoding="utf-8"?>
<!-- Generator: Adobe Illustrator 27.5.0, SVG Export Plug-In . SVG Version: 6.00 Build 0)  -->
<svg version="1.1" id="GE_Vernova_SVG" xmlns="http://www.w3.org/2000/svg" xmlns:xlink="http://www.w3.org/1999/xlink" x="0px"
	 y="0px" viewBox="0 0 1274 281.3" style="enable-background:new 0 0 1274 281.3;" xml:space="preserve">
<style type="text/css">
	.st0{fill:#005E60;}
</style>
<path id="Path_1" class="st0" d="M432.8,119.2c-6.9-6.6-16.1-10.3-25.7-10.1c-17.3,0-30.3,13.7-30.3,31.5
	c0,17.8,13.2,31.5,31.1,31.5c8.2,0,17.2-2.3,23.1-6.1v-17.3h-25.8v-13h40v37.2c-8.5,7.8-24,12.7-37.3,12.7
	c-25.7,0-45.7-20-45.7-44.9c-0.1-24.7,19.8-44.8,44.5-44.9c0.1,0,0.3,0,0.4,0c14.1,0,26.3,5,35.1,13.4L432.8,119.2L432.8,119.2z
	 M487.6,146.7v23.5h51.3v13.1h-65.7V97.9h65.7v13.1h-51.3v22.7H531v13.1L487.6,146.7z M591.4,97.9H607l28.8,68.2l28.8-68.2h14.9
	l-36.6,85.4H628L591.4,97.9z M712.8,146.7v23.5h51.3v13.1h-65.7V97.9h65.7v13.1h-51.3v22.7h43.4v13.1L712.8,146.7z M849,183.3
	l-18.5-32.1h-25.1v32.1H791V97.9h45.5c16.7,0,29.1,11.5,29.1,26.7c0,12.2-8,22-19.7,25.4l19.7,33.3L849,183.3L849,183.3z M851,124.6
	c0-8.5-5.5-13.7-14.5-13.7h-31.1v27.2h31.1C845.5,138.1,851,133,851,124.6L851,124.6z M893.2,97.9h15.1l47.8,63.3V97.9h14.1v85.4
	h-14.5l-48.4-63.7v63.7h-14.1V97.9z M995.9,140.6c0-24.9,20.1-45.1,45-45.2c24.9,0,45.1,20.1,45.2,45c0,24.9-20.1,45.1-45,45.2
	c0,0-0.1,0-0.1,0c-24.8,0.1-45-19.9-45.1-44.7C995.9,140.8,995.9,140.7,995.9,140.6z M1071.5,140.6c0-17.8-13.3-31.5-30.5-31.5
	c-17.2,0-30.5,13.7-30.5,31.5c0,17.8,13.3,31.6,30.5,31.6C1058.2,172.2,1071.5,158.4,1071.5,140.6L1071.5,140.6z M1096.6,97.9h15.6
	l28.8,68.2l28.8-68.2h14.9l-36.6,85.4h-14.9L1096.6,97.9z M1274,183.3h-15.5l-9-21.5H1209l-9,21.5h-14.7l36.6-85.4h15.6L1274,183.3z
	 M1244,148.8l-14.7-35.4l-14.7,35.4H1244L1244,148.8z M172.1,104c0-16,10.8-31.5,16.7-28.6C195.5,78.8,183.7,93.9,172.1,104
	 M98.5,109.9c0-12.9,12.7-37.3,20.4-34.7C128.1,78.2,111.3,102.8,98.5,109.9L98.5,109.9z M85.6,201.8c-5.8,0.3-9.7-3.5-9.7-9.7
	c0-16.8,23.2-32.7,40.7-41.3C113.5,174.2,105.6,200.9,85.6,201.8L85.6,201.8z M192.7,147.3c-13.2,0-23.4,9.7-23.4,21.4
	c0,9.7,5.8,17.5,13.6,17.5c2.7,0,5.4-1.6,5.4-5.1c0-5.1-6.7-6.3-6.2-13.9c0.3-5,5-8.3,9.7-8.3c9.3,0,13.7,9.1,13.7,18.4
	c-0.4,14.4-11,24.4-23.4,24.4c-16.4,0-26.8-15.6-26.8-32.3c0-24.9,16.3-34.7,24.9-37c0.1,0,22.4,4,21.7-5.9c-0.3-4.3-6.7-6-11.4-6.2
	c-3.5,0-7,0.5-10.4,1.7c-2.8-1.6-4.8-4.1-5.8-7.2c16-12.1,27.2-23.8,27.2-37c0-7-4.7-13.2-13.6-13.2c-16,0-28,20.3-28,38.6
	c-0.1,3,0.1,6,0.8,9c-10.1,7.4-17.6,12-31.3,20.2c0.2-4,0.7-7.9,1.5-11.8c4.7-5.1,11.1-12.6,11.1-18.5c0-2.7-1.6-5.1-4.7-5.1
	c-7.8,0-13.6,11.7-15.2,19.9c-3.5,4.3-10.5,9.7-16.4,9.7c-4.7,0-6.2-4.3-6.6-5.8c14.8-5.1,33.1-25.3,33.1-43.6
	c0-3.9-1.6-12.5-13.2-12.5c-17.5,0-32.3,26.1-32.3,46.4c-6.2,0-8.6-6.6-8.6-11.7s1.9-10.1,1.9-11.7s-0.8-3.5-3.1-3.5
	c-5.8,0-9.3,7.8-9.3,16.8c0.4,12.5,8.6,20.3,19.5,21c1.6,7.4,8.2,14.4,16.4,14.4c5.1,0,11.3-1.6,15.6-5.5c-0.4,2.7-0.8,5.1-1.2,7.4
	c-17.1,9-29.6,15.2-40.9,25.3c-8.9,8.2-14,19.1-14,27.7c0,11.7,7.4,22.6,22.6,22.6c17.9,0,31.5-14.4,38.1-34.3
	c3.1-9.4,4.4-23,5.1-35.4c12.3-6.8,24.3-14.4,35.7-22.6c1,1.8,2.3,3.4,3.9,4.7c-8.2,4.3-27.6,16.4-27.6,44.8
	c0,20.3,13.6,42.9,40.5,42.9c22.2,0,37.4-18.3,37.4-35.8C218.8,162,209.8,147.2,192.7,147.3L192.7,147.3z M259.6,180.7
	c-0.1,0.1-0.3,0.3-0.7,0.2c-0.3-0.1-0.4-0.3-0.4-0.5c3-9.7,4.6-19.8,4.7-30c-0.1-17.1-7-27.7-16-27.7c-5.5,0-9.3,3.9-9.3,9.7
	c0,10.5,12.8,11.3,12.8,34.3c0,9.4-1.9,18.3-5.1,28.1c-14.4,48.7-60.3,71.3-105.1,71.3c-20.6,0-35.3-4.2-39.7-6.2
	c-0.2-0.2-0.3-0.5-0.2-0.8c0.1-0.3,0.4-0.5,0.6-0.4c9.7,3.1,19.8,4.7,29.9,4.7c17.1,0,27.3-7,27.3-15.6c0-5.3-4.2-9.7-9.6-9.7
	c-0.1,0-0.1,0-0.2,0c-10.5,0-11.3,13.2-33.9,13.2c-9.7,0-18.3-1.9-28.4-5.1c-48.3-14.8-71.3-60.4-71.2-105.6
	c0-13.5,2.1-26.9,6.3-39.7c0.2-0.2,0.5-0.2,0.7-0.1c0.3,0.1,0.4,0.4,0.4,0.5c-3,9.7-4.6,19.8-4.7,30c0,17.1,7,27.3,16,27.3
	c5.1,0.1,9.3-4,9.3-9.1c0-0.1,0-0.2,0-0.2c0-10.5-12.8-11.7-12.8-34.3c0-9.7,1.9-18.3,5.1-28.4c14.8-48.3,60.3-71,105.1-71.3
	c20.8-0.2,39,6.1,39.7,6.6c0.2,0.2,0.2,0.5,0.1,0.7c-0.1,0.4-0.4,0.4-0.5,0.4c-0.2,0-12.1-5-30-5c-16.7,0-27.2,7-27.2,16
	c0,5.1,4.1,9.3,9.3,9.4c0.2,0,0.3,0,0.5,0c10.5,0,11.3-12.9,33.9-12.9c9.7,0,18.3,1.9,28.4,5.1c48.7,14.8,70.8,60.8,71.2,105.2
	C266,154.2,263.9,167.8,259.6,180.7L259.6,180.7z M140.5,6.6C66.5,6.5,6.5,66.5,6.4,140.5s59.9,134.1,133.9,134.1
	c74,0.1,134.1-59.9,134.1-133.9c0,0,0-0.1,0-0.1C274.4,66.7,214.5,6.7,140.5,6.6z M140.5,281.3c-77.7-0.2-140.5-63.3-140.3-141
	C0.5,62.9,63.2,0.2,140.5,0C218,0,281.1,63.1,281.1,140.6S218,281.3,140.5,281.3L140.5,281.3z"/>
</svg>
