<svg xmlns="http://www.w3.org/2000/svg" role="img" viewBox="-9.23 -9.23 479.96 303.96"><path fill="#FFF" d="M1.73.01h460v192h-460z"/><path fill="#1E59AE" d="M35.92.01v17.53H18.95V.01h16.97zM15.88 21.82c-1.12-.07-1.72-.78-1.79-2.1V.01h-.76v19.73c.09 1.72 1 2.75 2.53 2.84h15.28l-4.83 5H14.52c-3.04-.36-6.22-2.93-6.14-6.98V.01H7.6V20.6c-.09 4.49 3.45 7.34 6.86 7.75h11.09l-4.59 4.75h-6.68c-4.57-.17-11.09-3.66-11.29-11.97V.01H.05v37.3h35.87V17.62l-4.05 4.19-15.99.01zm29.98-4.62V.81h3.34v13.61h8.3v2.78H45.86zm15.31-8.32l-2.87-.51c.32-1.16.88-2.01 1.67-2.57.79-.56 1.96-.83 3.52-.83 1.41 0 2.46.17 3.16.5.69.33 1.18.76 1.46 1.27s.42 1.46.42 2.84l-.03 3.7c0 1.05.05 1.83.15 2.33.1.5.29 1.04.57 1.61h-3.13c-.08-.21-.18-.52-.3-.94-.05-.19-.09-.31-.11-.37-.54.53-1.12.92-1.74 1.18-.62.26-1.27.39-1.97.39-1.23 0-2.2-.33-2.91-1-.71-.67-1.07-1.51-1.07-2.54 0-.68.16-1.28.48-1.81.32-.53.78-.94 1.36-1.22.58-.28 1.42-.53 2.52-.74 1.48-.28 2.51-.54 3.08-.78v-.31c0-.61-.15-1.04-.45-1.3-.3-.26-.87-.39-1.7-.39-.56 0-1 .11-1.32.33-.34.22-.59.61-.79 1.16zm4.24 2.57c-.41.14-1.05.3-1.93.48-.88.19-1.45.37-1.73.55-.41.29-.62.67-.62 1.12 0 .44.16.83.5 1.15s.75.48 1.26.48c.57 0 1.12-.19 1.63-.56.38-.29.63-.64.76-1.05.08-.27.12-.78.12-1.54v-.63zm7.43 5.75L69.05 5.23h3.08l2.24 7.85 2.06-7.85h3.05l1.99 7.85 2.29-7.85h3.12L83.05 17.2h-3.04l-2.06-7.7-2.03 7.7h-3.08zm17.72 0h-3.17V5.23h2.94v1.7c.5-.8.96-1.33 1.36-1.59.4-.26.86-.38 1.37-.38.72 0 1.42.2 2.09.6l-.98 2.76c-.53-.35-1.03-.52-1.49-.52-.44 0-.82.12-1.13.37-.31.24-.55.68-.73 1.32-.18.64-.26 1.98-.26 4.01v3.7zm11.84-3.81l3.16.53c-.41 1.16-1.05 2.04-1.92 2.64-.87.6-1.97.91-3.29.91-2.08 0-3.62-.68-4.62-2.04-.79-1.09-1.18-2.46-1.18-4.13 0-1.98.52-3.54 1.56-4.66s2.35-1.69 3.93-1.69c1.78 0 3.19.59 4.22 1.76s1.52 2.98 1.48 5.41H97.8c.02.94.28 1.67.77 2.19s1.1.78 1.83.78c.5 0 .91-.14 1.25-.41.32-.25.58-.69.75-1.29zm.18-3.2c-.02-.92-.26-1.61-.71-2.09s-1-.72-1.65-.72c-.69 0-1.26.25-1.71.76-.45.5-.67 1.19-.67 2.05h4.74zm15.58 7.01h-3.17v-6.11c0-1.29-.07-2.13-.2-2.51-.14-.38-.36-.67-.66-.89-.3-.21-.67-.32-1.1-.32-.55 0-1.04.15-1.48.45-.44.3-.73.7-.9 1.19-.16.5-.24 1.41-.24 2.75v5.42h-3.17V5.23h2.94v1.76c1.04-1.35 2.36-2.03 3.94-2.03.7 0 1.34.13 1.92.38.58.25 1.02.57 1.31.96.3.39.5.83.62 1.33.12.5.17 1.21.17 2.13v7.44zm12.61-8.43l-3.12.56c-.11-.62-.34-1.09-.72-1.41-.37-.32-.85-.47-1.45-.47-.79 0-1.42.27-1.89.82-.47.55-.7 1.46-.7 2.73 0 1.42.24 2.42.72 3.01.48.59 1.12.88 1.92.88.6 0 1.09-.17 1.48-.51.38-.34.65-.93.81-1.76l3.11.53c-.32 1.43-.94 2.51-1.86 3.24-.92.73-2.15 1.09-3.69 1.09-1.75 0-3.15-.55-4.19-1.66-1.04-1.1-1.56-2.63-1.56-4.59 0-1.98.52-3.52 1.57-4.62 1.04-1.1 2.46-1.65 4.24-1.65 1.46 0 2.62.31 3.48.94s1.48 1.59 1.85 2.87zm8.3 4.62l3.16.53c-.41 1.16-1.05 2.04-1.92 2.64-.87.6-1.97.91-3.29.91-2.08 0-3.62-.68-4.62-2.04-.79-1.09-1.18-2.46-1.18-4.13 0-1.98.52-3.54 1.56-4.66s2.35-1.69 3.93-1.69c1.78 0 3.19.59 4.22 1.76s1.52 2.98 1.48 5.41h-7.94c.02.94.28 1.67.77 2.19s1.1.78 1.83.78c.5 0 .91-.14 1.25-.41.32-.25.57-.69.75-1.29zm.18-3.2c-.02-.92-.26-1.61-.71-2.09s-1-.72-1.65-.72c-.69 0-1.26.25-1.71.76-.45.5-.67 1.19-.67 2.05h4.74zm10.17 7.01V.81h3.34v13.61h8.3v2.78h-11.64zm12.95-13.59V.68h3.17v2.93h-3.17zm0 13.59V5.23h3.17V17.2h-3.17zm8.67 0l-4.82-11.97h3.33l2.25 6.11.65 2.04c.17-.52.28-.86.33-1.03.11-.34.22-.68.34-1.01l2.28-6.11h3.26L173.9 17.2h-2.86zm15.44-3.81l3.16.53c-.41 1.16-1.05 2.04-1.92 2.64-.87.6-1.97.91-3.29.91-2.08 0-3.62-.68-4.62-2.04-.79-1.09-1.18-2.46-1.18-4.13 0-1.98.52-3.54 1.56-4.66s2.35-1.69 3.93-1.69c1.78 0 3.19.59 4.22 1.76s1.52 2.98 1.48 5.41h-7.94c.02.94.28 1.67.77 2.19s1.1.78 1.83.78c.5 0 .91-.14 1.25-.41.32-.25.58-.69.75-1.29zm.18-3.2c-.02-.92-.26-1.61-.71-2.09s-1-.72-1.65-.72c-.69 0-1.26.25-1.71.76-.45.5-.67 1.19-.67 2.05h4.74zm7.72 7.01h-3.17V5.23h2.94v1.7c.5-.8.96-1.33 1.36-1.59.4-.26.86-.38 1.37-.38.72 0 1.42.2 2.09.6l-.98 2.76c-.53-.35-1.03-.52-1.49-.52-.44 0-.82.12-1.13.37-.31.24-.55.69-.73 1.32-.18.64-.26 1.98-.26 4.01v3.7zm4.68-11.97h2.92v1.63c1.04-1.27 2.29-1.91 3.73-1.91.77 0 1.43.16 2 .47.56.32 1.03.79 1.39 1.43.53-.64 1.09-1.12 1.7-1.43.61-.32 1.26-.47 1.95-.47.88 0 1.62.18 2.23.54.61.36 1.06.88 1.36 1.57.22.51.33 1.34.33 2.48v7.65h-3.17v-6.84c0-1.19-.11-1.95-.33-2.3-.29-.45-.74-.68-1.35-.68-.44 0-.86.14-1.25.41-.39.27-.67.67-.85 1.19-.17.52-.26 1.35-.26 2.47v5.75h-3.17v-6.56c0-1.16-.06-1.92-.17-2.25s-.29-.59-.52-.76c-.24-.17-.56-.25-.96-.25-.49 0-.93.13-1.32.39s-.67.64-.84 1.14c-.17.5-.25 1.32-.25 2.47v5.82h-3.17V5.23zm18.99 5.82c0-1.05.26-2.07.78-3.05s1.25-1.74 2.2-2.25c.95-.52 2.01-.78 3.18-.78 1.81 0 3.3.59 4.45 1.76 1.16 1.18 1.74 2.66 1.74 4.46 0 1.81-.58 3.31-1.75 4.5s-2.64 1.79-4.41 1.79c-1.1 0-2.14-.25-3.14-.74s-1.75-1.22-2.27-2.18c-.52-.97-.78-2.14-.78-3.51zm3.24.17c0 1.19.28 2.1.85 2.73s1.26.95 2.09.95c.83 0 1.52-.32 2.08-.95.56-.63.84-1.55.84-2.75 0-1.17-.28-2.07-.84-2.71-.56-.63-1.25-.95-2.08-.95-.83 0-1.52.32-2.09.95s-.85 1.54-.85 2.73zm13.59 5.98h-3.17V5.23h2.94v1.7c.5-.8.96-1.33 1.36-1.59.4-.26.86-.38 1.37-.38.72 0 1.42.2 2.09.6l-.98 2.76c-.53-.35-1.03-.52-1.49-.52-.44 0-.82.12-1.13.37-.31.24-.55.69-.73 1.32-.18.64-.26 1.98-.26 4.01v3.7zm11.84-3.81l3.16.53c-.41 1.16-1.05 2.04-1.92 2.64-.87.6-1.97.91-3.29.91-2.08 0-3.62-.68-4.62-2.04-.79-1.09-1.18-2.46-1.18-4.13 0-1.98.52-3.54 1.56-4.66s2.35-1.69 3.93-1.69c1.78 0 3.19.59 4.22 1.76s1.52 2.98 1.48 5.41h-7.94c.02.94.28 1.67.77 2.19s1.1.78 1.83.78c.5 0 .91-.14 1.25-.41.32-.25.58-.69.75-1.29zm.18-3.2c-.02-.92-.26-1.61-.71-2.09s-1-.72-1.65-.72c-.69 0-1.26.25-1.71.76-.45.5-.67 1.19-.67 2.05h4.74zM45.8 36.99V20.46h3.25l6.76 11.04V20.46h3.1v16.53h-3.35L48.9 26.21v10.78h-3.1zm17.94-8.32l-2.87-.52c.32-1.16.88-2.01 1.67-2.57.79-.56 1.96-.83 3.52-.83 1.41 0 2.46.17 3.16.5.69.33 1.18.76 1.46 1.27s.42 1.46.42 2.84l-.03 3.7c0 1.05.05 1.83.15 2.33.1.5.29 1.04.57 1.61h-3.13c-.08-.21-.18-.52-.3-.94-.05-.19-.09-.31-.11-.37-.54.53-1.12.92-1.74 1.18-.62.26-1.27.39-1.97.39-1.23 0-2.2-.33-2.91-1-.71-.67-1.07-1.51-1.07-2.54 0-.68.16-1.28.48-1.81.32-.53.78-.94 1.36-1.22.58-.28 1.42-.53 2.52-.74 1.48-.28 2.51-.54 3.08-.78v-.32c0-.61-.15-1.04-.45-1.3-.3-.26-.87-.39-1.7-.39-.56 0-1 .11-1.32.33-.34.23-.59.62-.79 1.18zm4.24 2.57c-.41.14-1.05.3-1.93.48-.88.19-1.45.37-1.73.55-.41.29-.62.67-.62 1.12 0 .44.16.83.5 1.15.33.32.75.48 1.26.48.57 0 1.12-.19 1.63-.56.38-.29.63-.64.76-1.05.08-.27.12-.78.12-1.54v-.63zm10.69-6.22v2.53H76.5v4.82c0 .98.02 1.55.06 1.71.04.16.14.3.28.4.15.11.32.16.54.16.29 0 .72-.1 1.27-.3l.27 2.46c-.74.32-1.57.47-2.5.47-.57 0-1.09-.1-1.54-.29-.46-.19-.79-.44-1.01-.74-.21-.3-.36-.72-.44-1.23-.07-.37-.1-1.11-.1-2.23v-5.22h-1.45v-2.53h1.45v-2.38l3.18-1.85v4.23h2.16zm1.16-1.63v-2.93H83v2.93h-3.17zm0 13.6V25.02H83v11.97h-3.17zm4.64-6.16c0-1.05.26-2.07.78-3.05s1.25-1.74 2.2-2.25c.95-.52 2.01-.78 3.18-.78 1.81 0 3.3.59 4.45 1.76 1.16 1.18 1.74 2.66 1.74 4.46 0 1.81-.58 3.31-1.75 4.5s-2.64 1.79-4.41 1.79c-1.1 0-2.14-.25-3.14-.74-1-.5-1.75-1.22-2.27-2.18-.52-.97-.78-2.13-.78-3.51zm3.24.17c0 1.19.28 2.1.85 2.73.56.63 1.26.95 2.09.95s1.52-.32 2.08-.95c.56-.63.84-1.55.84-2.75 0-1.17-.28-2.07-.84-2.71-.56-.63-1.25-.95-2.08-.95s-1.52.32-2.09.95c-.56.63-.85 1.54-.85 2.73zm21.44 5.99h-3.17v-6.11c0-1.29-.07-2.13-.2-2.51-.14-.38-.36-.67-.66-.89s-.67-.32-1.1-.32c-.55 0-1.04.15-1.48.45-.44.3-.73.7-.9 1.19-.16.5-.24 1.41-.24 2.75v5.42h-3.17V25.02h2.94v1.76c1.04-1.35 2.36-2.03 3.94-2.03.7 0 1.34.13 1.92.38.58.25 1.02.57 1.31.96s.5.83.62 1.33c.12.5.17 1.21.17 2.13v7.44zm4.54-8.32l-2.87-.52c.32-1.16.88-2.01 1.67-2.57.79-.56 1.96-.83 3.52-.83 1.41 0 2.46.17 3.16.5.69.33 1.18.76 1.46 1.27s.42 1.46.42 2.84l-.03 3.7c0 1.05.05 1.83.15 2.33.1.5.29 1.04.57 1.61h-3.13c-.08-.21-.18-.52-.3-.94-.05-.19-.09-.31-.11-.37-.54.53-1.12.92-1.74 1.18-.62.26-1.27.39-1.97.39-1.23 0-2.2-.33-2.91-1-.71-.67-1.07-1.51-1.07-2.54 0-.68.16-1.28.48-1.81.32-.53.78-.94 1.36-1.22.58-.28 1.42-.53 2.52-.74 1.48-.28 2.51-.54 3.08-.78v-.32c0-.61-.15-1.04-.45-1.3-.3-.26-.87-.39-1.7-.39-.56 0-1 .11-1.32.33-.34.23-.59.62-.79 1.18zm4.24 2.57c-.41.14-1.05.3-1.93.48-.88.19-1.45.37-1.73.55-.41.29-.62.67-.62 1.12 0 .44.16.83.5 1.15.33.32.75.48 1.26.48.57 0 1.12-.19 1.63-.56.38-.29.63-.64.76-1.05.08-.27.12-.78.12-1.54v-.63zm5.2 5.75V20.46h3.17v16.53h-3.17zm10.86 0V20.6h3.34v13.6h8.3v2.78h-11.64zm15.32-8.32l-2.87-.52c.32-1.16.88-2.01 1.67-2.57.79-.56 1.96-.83 3.52-.83 1.41 0 2.46.17 3.16.5.69.33 1.18.76 1.46 1.27s.42 1.46.42 2.84l-.03 3.7c0 1.05.05 1.83.15 2.33.1.5.29 1.04.57 1.61h-3.13c-.08-.21-.18-.52-.3-.94-.05-.19-.09-.31-.11-.37-.54.53-1.12.92-1.74 1.18-.62.26-1.27.39-1.97.39-1.23 0-2.2-.33-2.91-1-.71-.67-1.07-1.51-1.07-2.54 0-.68.16-1.28.48-1.81.32-.53.78-.94 1.36-1.22.58-.28 1.42-.53 2.52-.74 1.48-.28 2.51-.54 3.08-.78v-.32c0-.61-.15-1.04-.45-1.3-.3-.26-.87-.39-1.7-.39-.56 0-1 .11-1.32.33-.34.23-.6.62-.79 1.18zm4.24 2.57c-.41.14-1.05.3-1.93.48-.88.19-1.45.37-1.73.55-.41.29-.62.67-.62 1.12 0 .44.16.83.5 1.15.33.32.75.48 1.26.48.57 0 1.12-.19 1.63-.56.38-.29.63-.64.76-1.05.08-.27.12-.78.12-1.54v-.63zm5.06 5.75V20.46h3.17v5.95c.98-1.11 2.13-1.67 3.47-1.67 1.46 0 2.66.53 3.62 1.58.95 1.06 1.43 2.57 1.43 4.55 0 2.04-.49 3.62-1.46 4.72s-2.15 1.66-3.55 1.66c-.68 0-1.36-.17-2.02-.51-.67-.34-1.24-.85-1.72-1.52v1.76h-2.94zm3.14-6.25c0 1.24.2 2.16.59 2.75.55.84 1.28 1.26 2.19 1.26.7 0 1.29-.3 1.79-.9.49-.6.74-1.54.74-2.82 0-1.37-.25-2.35-.74-2.96-.5-.6-1.13-.91-1.91-.91-.76 0-1.39.3-1.89.89-.52.59-.77 1.49-.77 2.69zm9.32.09c0-1.05.26-2.07.78-3.05s1.25-1.74 2.2-2.25c.95-.52 2.01-.78 3.18-.78 1.81 0 3.3.59 4.45 1.76 1.16 1.18 1.74 2.66 1.74 4.46 0 1.81-.58 3.31-1.75 4.5s-2.64 1.79-4.41 1.79c-1.1 0-2.14-.25-3.14-.74-1-.5-1.75-1.22-2.27-2.18-.52-.97-.78-2.13-.78-3.51zm3.25.17c0 1.19.28 2.1.85 2.73s1.26.95 2.09.95c.83 0 1.52-.32 2.08-.95.56-.63.84-1.55.84-2.75 0-1.17-.28-2.07-.84-2.71-.56-.63-1.25-.95-2.08-.95-.83 0-1.52.32-2.09.95s-.85 1.54-.85 2.73zm13.58 5.99h-3.17V25.02h2.94v1.7c.5-.8.96-1.33 1.36-1.59.4-.26.86-.38 1.37-.38.72 0 1.42.2 2.09.6l-.98 2.76c-.53-.35-1.03-.52-1.49-.52-.44 0-.82.12-1.13.37s-.55.69-.73 1.32c-.18.64-.26 1.98-.26 4.01v3.7zm7.28-8.32l-2.87-.52c.32-1.16.88-2.01 1.67-2.57.79-.56 1.96-.83 3.52-.83 1.41 0 2.46.17 3.16.5.69.33 1.18.76 1.46 1.27s.42 1.46.42 2.84l-.03 3.7c0 1.05.05 1.83.15 2.33.1.5.29 1.04.57 1.61h-3.13c-.08-.21-.18-.52-.3-.94-.05-.19-.09-.31-.11-.37-.54.53-1.12.92-1.74 1.18-.62.26-1.27.39-1.97.39-1.23 0-2.2-.33-2.91-1-.71-.67-1.07-1.51-1.07-2.54 0-.68.16-1.28.48-1.81.32-.53.78-.94 1.36-1.22.58-.28 1.42-.53 2.52-.74 1.48-.28 2.51-.54 3.08-.78v-.32c0-.61-.15-1.04-.45-1.3-.3-.26-.87-.39-1.7-.39-.56 0-1 .11-1.32.33-.34.23-.6.62-.79 1.18zm4.24 2.57c-.41.14-1.05.3-1.93.48-.88.19-1.45.37-1.73.55-.41.29-.62.67-.62 1.12 0 .44.16.83.5 1.15.33.32.75.48 1.26.48.57 0 1.12-.19 1.63-.56.38-.29.63-.64.76-1.05.08-.27.12-.78.12-1.54v-.63zm10.68-6.22v2.53h-2.16v4.82c0 .98.02 1.55.06 1.71.04.16.14.3.28.4.15.11.32.16.54.16.29 0 .72-.1 1.27-.3l.27 2.46c-.74.32-1.57.47-2.5.47-.57 0-1.09-.1-1.54-.29-.46-.19-.79-.44-1.01-.74-.21-.3-.36-.72-.44-1.23-.07-.37-.1-1.11-.1-2.23v-5.22h-1.45v-2.53h1.45v-2.38l3.18-1.85v4.23h2.15zm.43 5.81c0-1.05.26-2.07.78-3.05s1.25-1.74 2.2-2.25c.95-.52 2.01-.78 3.18-.78 1.81 0 3.3.59 4.45 1.76 1.16 1.18 1.74 2.66 1.74 4.46 0 1.81-.58 3.31-1.75 4.5s-2.64 1.79-4.41 1.79c-1.1 0-2.14-.25-3.14-.74-1-.5-1.75-1.22-2.27-2.18-.52-.97-.78-2.13-.78-3.51zm3.24.17c0 1.19.28 2.1.85 2.73.56.63 1.26.95 2.09.95.83 0 1.52-.32 2.08-.95.56-.63.84-1.55.84-2.75 0-1.17-.28-2.07-.84-2.71-.56-.63-1.25-.95-2.08-.95-.83 0-1.52.32-2.09.95-.56.63-.85 1.54-.85 2.73zm13.59 5.99h-3.17V25.02h2.94v1.7c.5-.8.96-1.33 1.36-1.59.4-.26.86-.38 1.37-.38.72 0 1.42.2 2.09.6l-.98 2.76c-.53-.35-1.03-.52-1.49-.52-.44 0-.82.12-1.13.37s-.55.69-.73 1.32c-.18.64-.26 1.98-.26 4.01v3.7zm3.41-11.97h3.37l2.86 8.5 2.8-8.5h3.28l-4.23 11.52-.75 2.09c-.28.7-.54 1.23-.79 1.6-.25.37-.54.67-.87.9-.33.23-.73.41-1.21.54-.48.13-1.02.19-1.62.19-.61 0-1.21-.06-1.79-.19l-.28-2.48c.5.1.94.15 1.34.15.74 0 1.28-.22 1.63-.65.35-.43.62-.98.81-1.65l-4.55-12.02z"/><path d="M99.22261 230.40352h15.98382c-.88466-7.4821-4.31833-13.73469-10.316-18.74275-5.9827-4.99307-13.91463-7.4971-23.7958-7.4971-11.3806 0-20.54206 3.79353-27.46938 11.3806-6.91232 7.58706-10.37598 17.67816-10.37598 30.2583 0 12.44518 3.41867 22.2364 10.27102 29.41862 6.58246 7.12224 15.0092 10.69086 25.31021 10.69086 6.25258 0 11.53054-1.31949 15.81888-3.94347 2.48904-1.51442 5.29296-4.1234 8.42674-7.81198l1.63437 9.70124h10.75084v-41.69887H83.10385v12.96999h17.96305c-.7947 5.09803-2.93886 9.22143-6.41752 12.37021-3.47865 3.13379-7.94692 4.70818-13.38982 4.70818-5.56285 0-10.51093-1.97923-14.87424-5.9527-4.34832-3.97346-6.53747-10.73584-6.53747-20.30214 0-9.47634 2.00922-16.58359 6.04266-21.32176 4.01844-4.72317 9.16145-7.09225 15.41404-7.09225 3.26873 0 6.23758.58477 8.90655 1.75432 4.78315 2.09919 7.78199 5.80276 9.01151 11.1107zm-18.17297-26.23985zm107.37347 15.7589V206.1579h-56.99295v77.69994h58.88222v-13.9596H147.309v-19.98726h37.7404V236.4162h-37.7404v-16.49362zm-28.09913-13.76467zm92.33428 58.98718c-3.77854 4.75316-8.89156 7.12225-15.32407 7.12225-6.43251 0-11.56053-2.36909-15.38405-7.12225-3.83851-4.73816-5.74278-11.48555-5.74278-20.24217 0-8.74162 1.90427-15.489 5.74278-20.24217 3.82352-4.73816 8.95154-7.12224 15.38405-7.12224 6.43251 0 11.54553 2.38408 15.32407 7.15223 3.77854 4.75316 5.66781 11.50055 5.66781 20.21218 0 8.75662-1.88927 15.504-5.6678 20.24217zm10.13608 11.81543c7.84197-7.42213 11.75546-18.098 11.75546-32.0576 0-14.2295-3.9135-24.92036-11.75546-32.0426-5.86273-6.05766-14.34945-9.0715-25.46015-9.0715-11.0957 0-19.58242 3.01384-25.46015 9.0715-7.87196 7.12224-11.80044 17.8131-11.80044 32.0426 0 13.9596 3.92848 24.63547 11.80044 32.0576 5.87773 6.04267 14.36444 9.0565 25.46015 9.0565 11.1107 0 19.59742-3.01383 25.46015-9.0565zm-25.46015-73.1717zm61.37126 56.0933h-15.504c0 8.08188 2.89388 14.42443 8.69663 19.04264 5.80276 4.63321 13.76468 6.94232 23.88576 6.94232 9.91117 0 17.5732-2.3541 23.0011-7.04728 5.4279-4.67819 8.14186-10.5859 8.14186-17.67816 0-6.92732-2.3091-12.22027-6.95731-15.86386-2.98385-2.3541-7.40714-4.24336-13.28486-5.63782l-13.38982-3.22375c-5.158-1.22953-8.5317-2.29412-10.12109-3.20876-2.45905-1.37947-3.68857-3.44867-3.68857-6.2226 0-3.02882 1.24452-5.38291 3.74855-7.06226 2.48904-1.69435 5.83274-2.53402 10.01613-2.53402 3.76354 0 6.89733.64475 9.43135 1.94924 3.79353 1.96424 5.83274 5.29295 6.11763 9.95615h15.60896c-.28489-8.2468-3.31372-14.54437-9.10148-18.8927-5.77276-4.33331-12.76006-6.50747-20.9469-6.50747-9.8062 0-17.24332 2.2941-22.29637 6.89733-5.06804 4.61821-7.60206 10.39098-7.60206 17.34829 0 7.63205 2.62399 13.23988 7.85696 16.82349 3.0888 2.14417 8.68164 4.1234 16.76352 5.9527l8.23181 1.84428c4.81314 1.0496 8.33678 2.26413 10.5859 3.6436 2.24914 1.39446 3.3737 3.38868 3.3737 5.9527 0 4.3933-2.26412 7.39213-6.79237 9.0115-2.39907.83968-5.50287 1.25952-9.34139 1.25952-6.38752 0-10.90078-1.58939-13.53976-4.79815-1.43944-1.75432-2.41406-4.40829-2.89388-7.94692zm15.7589-56.0933zm56.873 80.06903l15.60897-26.46476 14.7543 26.46476h19.71736l-25.25023-40.21444 23.7658-37.4855h-18.75774l-14.2295 25.25023-13.86963-25.25023h-19.4025l23.78081 38.11526-24.99533 39.58468z"/></svg>
