<svg xmlns="http://www.w3.org/2000/svg" role="img" viewBox="-14.14 -14.14 735.28 279.28"><path fill="#FCB813" d="M345.181 182.758h314.664v3.815H345.181z"/><circle cx="138.854" cy="137.644" r=".418" fill="none"/><radialGradient id="a" cx="137.378" cy="130.264" r="134.447" gradientUnits="userSpaceOnUse"><stop offset="0" stop-color="#fff"/><stop offset=".126" stop-color="#fffefc"/><stop offset=".237" stop-color="#fffaf1"/><stop offset=".342" stop-color="#fff4df"/><stop offset=".443" stop-color="#ffebc6"/><stop offset=".541" stop-color="#ffe0a5"/><stop offset=".6" stop-color="#ffd88e"/><stop offset=".616" stop-color="#ffd581"/><stop offset=".663" stop-color="#fecc5f"/><stop offset=".713" stop-color="#fdc543"/><stop offset=".767" stop-color="#fdbf2e"/><stop offset=".827" stop-color="#fcbb1f"/><stop offset=".897" stop-color="#fcb916"/><stop offset="1" stop-color="#fcb813"/></radialGradient><path fill="url(#a)" d="M271.827 106.235C257.585 45.347 202.95 0 137.72 0 71.392 0 16.017 46.888 2.93 109.324l29.087-16.572 16.036 11.226s9.382-4.246 11.356-5.493l11.595 12.22s25.174 19.95 25.911 19.95c.743 0 22.215-12.464 22.215-12.464l19.252-13.224 16.777 12.222 12.586 2.496 12.832 8.727s31.097-20.702 36.034-23.191c0 0 13.571 4.984 14.803 4.741 1.233-.255 22.457-16.712 22.457-16.712l17.956 12.985z"/><radialGradient id="b" cx="73.233" cy="137.686" r="137.768" gradientTransform="matrix(.9145 0 0 1 70.803 0)" gradientUnits="userSpaceOnUse"><stop offset=".53" stop-color="#fff"/><stop offset=".598" stop-color="#fff7e9"/><stop offset=".74" stop-color="#ffe3b0"/><stop offset=".77" stop-color="#ffdfa3"/><stop offset=".804" stop-color="#ffd991"/><stop offset=".871" stop-color="#ffc961"/><stop offset=".88" stop-color="#ffc75a"/><stop offset=".91" stop-color="#fec34a"/><stop offset=".966" stop-color="#fdbe32"/><stop offset="1" stop-color="#fdbc29"/></radialGradient><path fill="url(#b)" d="M139.052 67.228c1.321 0 2.717.033 4.02.104l4.9-66.953C144.588.129 141.17 0 137.72 0c-2.23 0-4.448.058-6.653.162l3.268 67.229c1.559-.103 3.13-.163 4.717-.163z"/><radialGradient id="c" cx="55.936" cy="-197.177" r="137.957" gradientTransform="matrix(.8479 -.3426 .3746 .9272 164.208 339.67)" gradientUnits="userSpaceOnUse"><stop offset=".53" stop-color="#fff"/><stop offset=".598" stop-color="#fff7e9"/><stop offset=".74" stop-color="#ffe3b0"/><stop offset=".77" stop-color="#ffdfa3"/><stop offset=".804" stop-color="#ffd991"/><stop offset=".871" stop-color="#ffc961"/><stop offset=".88" stop-color="#ffc75a"/><stop offset=".91" stop-color="#fec34a"/><stop offset=".966" stop-color="#fdbe32"/><stop offset="1" stop-color="#fdbc29"/></radialGradient><path fill="url(#c)" d="M116.206 71.055L95.523 6.593c-5.388 1.734-10.629 3.788-15.703 6.142l28.442 61.586c2.557-1.243 5.226-2.334 7.944-3.266z"/><radialGradient id="d" cx="172.672" cy="-504.873" r="137.985" gradientTransform="matrix(.6578 -.6352 .6947 .7193 374.923 610.523)" gradientUnits="userSpaceOnUse"><stop offset=".53" stop-color="#fff"/><stop offset=".598" stop-color="#fff7e9"/><stop offset=".74" stop-color="#ffe3b0"/><stop offset=".77" stop-color="#ffdfa3"/><stop offset=".804" stop-color="#ffd991"/><stop offset=".871" stop-color="#ffc961"/><stop offset=".88" stop-color="#ffc75a"/><stop offset=".91" stop-color="#fec34a"/><stop offset=".966" stop-color="#fdbe32"/><stop offset="1" stop-color="#fdbc29"/></radialGradient><path fill="url(#d)" d="M93.373 84.155L49.73 31.775c-4.347 3.616-8.465 7.492-12.338 11.608l49.772 46.802c1.919-2.108 4.051-4.171 6.209-6.03z"/><radialGradient id="e" cx="137.773" cy="137.69" r="137.876" gradientUnits="userSpaceOnUse"><stop offset=".53" stop-color="#fff"/><stop offset=".598" stop-color="#fff7e9"/><stop offset=".74" stop-color="#ffe3b0"/><stop offset=".77" stop-color="#ffdfa3"/><stop offset=".804" stop-color="#ffd991"/><stop offset=".871" stop-color="#ffc961"/><stop offset=".88" stop-color="#ffc75a"/><stop offset=".91" stop-color="#fec34a"/><stop offset=".966" stop-color="#fdbe32"/><stop offset="1" stop-color="#fdbc29"/></radialGradient><path fill="url(#e)" d="M77.174 104.239L16.743 71.856c-2.296 4.113-5.613 11.152-7.164 15.301l64.11 24.863c1.012-2.651 2.171-5.291 3.485-7.781z"/><radialGradient id="f" cx="227.458" cy="445.356" r="137.845" gradientTransform="matrix(.8479 .3426 -.3746 .9272 111.746 -353.175)" gradientUnits="userSpaceOnUse"><stop offset=".53" stop-color="#fff"/><stop offset=".598" stop-color="#fff7e9"/><stop offset=".74" stop-color="#ffe3b0"/><stop offset=".77" stop-color="#ffdfa3"/><stop offset=".804" stop-color="#ffd991"/><stop offset=".871" stop-color="#ffc961"/><stop offset=".88" stop-color="#ffc75a"/><stop offset=".91" stop-color="#fec34a"/><stop offset=".966" stop-color="#fdbe32"/><stop offset="1" stop-color="#fdbc29"/></radialGradient><path fill="url(#f)" d="M169.293 74.083l29.422-59.864c-5.041-2.493-10.253-4.688-15.62-6.559l-21.998 63.108c2.781.923 5.582 2.071 8.196 3.315z"/><radialGradient id="g" cx="500.451" cy="685.441" r="137.538" gradientTransform="matrix(.6578 .6352 -.6947 .7193 284.753 -673.236)" gradientUnits="userSpaceOnUse"><stop offset=".53" stop-color="#fff"/><stop offset=".598" stop-color="#fff7e9"/><stop offset=".74" stop-color="#ffe3b0"/><stop offset=".77" stop-color="#ffdfa3"/><stop offset=".804" stop-color="#ffd991"/><stop offset=".871" stop-color="#ffc961"/><stop offset=".88" stop-color="#ffc75a"/><stop offset=".91" stop-color="#fec34a"/><stop offset=".966" stop-color="#fdbe32"/><stop offset="1" stop-color="#fdbc29"/></radialGradient><path fill="url(#g)" d="M190.456 89.712l49.512-44.25c-3.75-4.152-7.745-8.076-11.969-11.746l-43.795 49.959c2.207 1.877 4.293 3.905 6.252 6.037z"/><radialGradient id="h" cx="850.423" cy="817.296" r="137.358" gradientTransform="matrix(.3719 .8354 -.9135 .4067 568.104 -905.15)" gradientUnits="userSpaceOnUse"><stop offset=".53" stop-color="#fff"/><stop offset=".598" stop-color="#fff7e9"/><stop offset=".74" stop-color="#ffe3b0"/><stop offset=".77" stop-color="#ffdfa3"/><stop offset=".804" stop-color="#ffd991"/><stop offset=".871" stop-color="#ffc961"/><stop offset=".88" stop-color="#ffc75a"/><stop offset=".91" stop-color="#fec34a"/><stop offset=".966" stop-color="#fdbe32"/><stop offset="1" stop-color="#fdbc29"/></radialGradient><path fill="url(#h)" d="M204.582 112.424l62.364-22.415c-1.942-5.263-4.197-10.372-6.742-15.308l-59.154 29.851c1.329 2.559 2.519 5.139 3.532 7.872z"/><radialGradient id="i" cx="137.499" cy="137.734" r="137.794" gradientUnits="userSpaceOnUse"><stop offset=".72" stop-color="#fff"/><stop offset=".809" stop-color="#fff8ed"/><stop offset=".986" stop-color="#ffe6bd"/><stop offset="1" stop-color="#ffe5b9"/></radialGradient><path fill="url(#i)" d="M119.13 118.191l19.252-13.224 16.777 12.222 12.586 2.496 12.832 8.727s13.996-9.315 24.697-16.2c-1.848-4.867-4.212-9.479-7.036-13.766l46.458-35.964-49.388 31.839c-4.438-5.79-9.748-10.88-15.736-15.065l29.12-49.927-33.298 47.22c-6.206-3.72-13.03-6.517-20.283-8.2l8.337-57.479L150.2 67.396c-3.631-.572-7.354-.875-11.148-.875-4.041 0-8.001.342-11.854.992l-13.277-56.642 8.362 57.65c-7.187 1.748-13.947 4.584-20.09 8.336L68.676 29.33l29.333 50.29c-5.885 4.189-11.099 9.263-15.455 15.016L32.676 62.482l46.938 36.34c-2.703 4.165-4.981 8.627-6.774 13.333 5.8 4.585 23.461 18.5 24.075 18.5.743 0 22.215-12.464 22.215-12.464z"/><path fill="#004B8D" d="M271.592 105.311l-17.721-12.825s-21.224 16.46-22.457 16.709c-1.232.25-14.803-4.739-14.803-4.739-4.938 2.495-36.034 23.195-36.034 23.195l-12.832-8.732-12.586-2.49-16.777-12.22-19.252 13.216s-21.472 12.47-22.215 12.47c-.737 0-25.911-19.953-25.911-19.953l-11.595-12.22c-1.975 1.248-11.356 5.491-11.356 5.491L32.017 91.988l-28.889 16.46C1.086 117.884 0 127.671 0 137.721c0 8.801.836 17.411 2.414 25.754 12.102-2.205 34.172-5.338 52.428-3.034 26.652 3.37 43.309 7.857 71.443 14.217 28.131 6.358 48.865 12.347 79.216 8.977 28.413-3.147 49.043-8.927 67.955-22.542 1.299-7.601 1.982-15.406 1.982-23.371 0-11.167-1.335-22.021-3.846-32.411z"/><path fill="#004B8D" d="M353.25 46.422c0-6.387-.45-8.08-4.762-8.426l-2.999-.207c-.489-.388-.351-2.118.096-2.158 5.171-.461 11.689-.69 20.599-.69 6.036 0 11.785.432 16.098 2.417 4.119 1.813 7.281 5.265 7.281 10.789 0 6.216-4.025 9.41-9.773 11.826 0 .862.768 1.123 1.82 1.294 5.174.865 12.838 5.18 12.838 14.416 0 10.013-8.238 16.746-25.485 16.746-2.778 0-7.473-.26-11.497-.26-4.216 0-7.473.175-11.019.26-.575-.26-.767-1.64-.191-2.159l1.725-.259c5.077-.777 5.269-1.726 5.269-10.789v-32.8zm7.856 11.479c0 2.418.096 2.59 4.982 2.418 9.771-.346 15.043-2.937 15.043-11.049 0-8.459-6.996-11.653-14.275-11.653-2.109 0-3.547.173-4.408.518-.958.259-1.342.692-1.342 2.243v17.523zm0 20.026c0 3.108.191 7.509 2.012 9.409 1.821 1.985 4.696 2.416 7.57 2.416 8.526 0 15.041-3.452 15.041-12.083 0-6.819-3.832-14.761-19.065-14.761-5.174 0-5.558.518-5.558 2.244v12.775zm99.936-23.009c0-7.815-.164-9.068-4.992-9.436l-2.047-.148c-.492-.295-.326-1.623.164-1.844 4.092.147 6.875.222 10.311.222 3.275 0 6.057-.075 10.148-.222.492.222.654 1.549.164 1.844l-2.045.148c-4.83.368-4.992 1.621-4.992 9.436v26.249c0 7.815.162 8.848 4.992 9.364l2.045.22c.49.295.328 1.621-.164 1.843-4.092-.148-6.873-.223-10.148-.223-3.436 0-6.219.075-10.311.223-.49-.223-.656-1.401-.164-1.843l2.047-.22c4.828-.517 4.992-1.549 4.992-9.364V54.918zm45.402 26.396c0 7.741.152 8.847 4.602 9.216l2.453.22c.459.295.307 1.621-.152 1.843-4.371-.148-6.979-.223-10.047-.223-3.066 0-5.75.075-10.656.223-.461-.223-.615-1.474 0-1.843l2.76-.22c4.371-.37 4.752-1.476 4.752-9.216V48.355c0-2.285 0-2.357-2.299-2.357h-4.217c-3.297 0-7.514.147-9.432 1.842-1.84 1.623-2.607 3.245-3.449 5.087-.615.443-1.688.074-1.994-.516 1.225-3.317 2.377-8.036 2.912-10.985.232-.147 1.229-.221 1.457 0 .461 2.358 2.992 2.285 6.52 2.285h31.053c4.141 0 4.83-.147 5.98-2.063.385-.148 1.229-.074 1.381.22-.844 3.024-1.381 8.996-1.15 11.208-.307.59-1.609.59-1.992.148-.23-1.845-.768-4.572-1.918-5.383-1.764-1.254-4.676-1.842-8.895-1.842h-5.443c-2.301 0-2.225.073-2.225 2.505v32.81zm32.865-26.396c0-7.815-.164-9.068-4.992-9.436l-2.047-.148c-.49-.295-.326-1.623.164-1.844 4.092.147 6.875.222 10.312.222 3.273 0 6.055-.075 10.146-.222.492.222.656 1.549.166 1.844l-2.049.148c-4.828.368-4.99 1.621-4.99 9.436v26.249c0 7.815.162 8.848 4.99 9.364l2.049.22c.49.295.326 1.621-.166 1.843-4.092-.148-6.873-.223-10.146-.223-3.438 0-6.221.075-10.312.223-.49-.223-.654-1.401-.164-1.843l2.047-.22c4.828-.517 4.992-1.549 4.992-9.364V54.918zm36.674 38.431c-7.309 0-11.92-1.917-13.572-2.727-1.045-1.623-2.176-6.857-2.35-10.323.436-.517 1.74-.664 2.088-.222 1.307 3.761 4.873 10.985 14.965 10.985 7.309 0 10.875-4.055 10.875-8.479 0-3.243-.783-6.855-7.135-10.322l-8.264-4.572c-4.35-2.433-9.396-6.635-9.396-12.681 0-7.004 6.438-12.682 17.748-12.682 2.695 0 5.828.443 8.09.959 1.131.295 2.35.442 3.045.442.783 1.771 1.568 5.899 1.568 8.996-.35.443-1.742.663-2.176.221-1.131-3.538-3.48-8.331-11.832-8.331-8.527 0-10.354 4.793-10.354 8.183 0 4.277 4.176 7.375 7.395 9.069l6.959 3.686c5.482 2.875 10.877 7.151 10.877 14.157 0 8.111-7.221 13.641-18.531 13.641zm43.789-24.791c-3.807 0-3.965.147-3.965 2.359v10.397c0 7.741.396 8.773 4.84 9.216l2.299.22c.477.295.318 1.621-.158 1.843-4.283-.148-6.98-.223-10.076-.223-3.412 0-6.109.148-9.203.223-.475-.223-.635-1.401-.158-1.843l1.348-.22c4.445-.738 4.602-1.476 4.602-9.216V54.771c0-7.742-.553-8.994-4.68-9.289l-2.062-.148c-.477-.295-.318-1.623.158-1.844 3.887.075 6.584.222 9.996.222 3.096 0 5.793-.075 9.203-.222.477.222.635 1.549.16 1.844l-1.51.148c-4.6.442-4.758 1.547-4.758 9.289v8.479c0 2.285.158 2.359 3.965 2.359h22.691c3.809 0 3.967-.075 3.967-2.359v-8.479c0-7.742-.158-8.847-4.838-9.289l-1.508-.148c-.477-.295-.318-1.623.158-1.844 3.65.147 6.348.222 9.6.222 3.094 0 5.791-.075 9.361-.222.477.222.635 1.549.158 1.844l-1.664.148c-4.602.442-4.762 1.547-4.762 9.289v26.543c0 7.741.16 8.7 4.762 9.216l1.904.22c.475.295.316 1.621-.158 1.843-3.811-.148-6.508-.223-9.602-.223-3.252 0-6.109.075-9.6.223-.477-.223-.635-1.401-.158-1.843l1.508-.22c4.838-.738 4.838-1.476 4.838-9.216V70.917c0-2.212-.158-2.359-3.967-2.359h-22.691zm-311.929 40.236c6.521-5.073 14.829-7.565 24.12-7.565 4.823 0 11.612.979 15.812 2.137 1.072.267 1.697.445 2.501.355.089 2.048.536 7.654 1.25 13.085-.446.623-1.786.713-2.411.18-1.34-6.054-5.36-12.998-18.313-12.998-13.668 0-25.281 8.636-25.281 27.062 0 18.693 11.881 29.021 26.531 29.021 11.523 0 16.616-7.479 18.67-12.731.626-.443 1.967-.267 2.322.357-.624 4.629-2.948 10.503-4.288 12.195-1.072.179-2.144.534-3.126.889-1.966.715-8.397 2.049-14.115 2.049-8.04 0-15.722-1.602-22.243-5.965-7.147-4.896-12.686-12.994-12.686-24.478 0-9.884 4.468-18.34 11.257-23.593zm48.856 28.794c0-14.746 11.612-26.026 27.561-26.026 17.882 0 26.862 12.312 26.862 25.289 0 14.895-11.922 25.732-26.862 25.732-17.186 0-27.561-11.725-27.561-24.995zm46.68 1.549c0-12.166-5.65-25.29-20.437-25.29-8.052 0-18.502 5.235-18.502 21.383 0 10.911 5.573 25.068 20.823 25.068 9.292 0 18.116-6.636 18.116-21.161zm95.082-7.889c0-4.571-.156-13.052-1.486-15.262-.547-.886-1.953-1.402-3.906-1.55l-1.953-.147c-.469-.516-.314-1.474.154-1.771 2.971.147 5.863.223 8.91.223 3.283 0 5.395-.075 8.207-.22.625.368.547 1.325.156 1.768l-1.877.147c-1.953.147-3.439.812-3.906 1.771-1.094 2.432-1.094 10.912-1.094 15.041v8.331c0 6.416-1.096 13.198-5.471 17.621-3.361 3.466-9.145 5.383-14.928 5.383-5.393 0-10.785-.959-14.615-4.055-4.143-3.243-6.096-8.626-6.096-17.399v-17.402c0-7.667-.156-8.921-4.688-9.29l-1.955-.147c-.469-.295-.314-1.547.154-1.771 3.91.147 6.566.223 9.693.223 3.203 0 5.783-.075 9.611-.22.469.221.627 1.473.158 1.768l-1.877.147c-4.533.369-4.689 1.623-4.689 9.29v15.927c0 11.87 3.908 19.687 15.865 19.687 11.332 0 15.631-8.407 15.631-19.611v-8.482zm90.838-9.21c0-5.512-.346-6.927-4.232-7.224l-2.766-.269c-.314-.284-.482-1.776.086-1.818 4.666-.349 10.539-.594 18.574-.594 5.441 0 10.623.372 14.512 2.083 3.715 1.565 6.564 4.544 6.564 9.311 0 5.36-3.629 8.117-8.811 10.202 0 .745.689.968 1.641 1.117 4.666.744 11.576 4.469 11.576 12.436 0 8.638-7.43 14.446-22.979 14.446-2.504 0-6.738-.223-10.365-.223-3.801 0-6.738.147-9.934.223-.52-.223-.693-1.414-.174-1.859l1.555-.225c4.58-.67 4.752-1.49 4.752-9.308v-28.298zm7.084 9.902c0 2.087.086 2.235 4.49 2.087 8.812-.298 13.562-2.531 13.562-9.532 0-7.299-6.305-10.055-12.871-10.055-1.9 0-3.195.149-3.973.448-.865.223-1.209.595-1.209 1.936v15.116zm0 17.279c0 2.681.172 6.478 1.812 8.117 1.643 1.713 4.234 2.085 6.824 2.085 7.689 0 13.562-2.979 13.562-10.426 0-5.884-3.455-12.732-17.189-12.732-4.666 0-5.01.444-5.01 1.936v11.02z"/><g><path fill="#004B8D" d="M448.532 90.752l-2.047-.177c-.414-.044-.781-.096-1.131-.153-2.994-.531-4.193-3.196-5.604-5.671l-7.076-12.324c-1.223-2.055-2.533-4.819-5.33-5.213 7.252-.87 13.807-5.056 13.807-12.245 0-8.297-8.215-12.009-16.516-12.009-4.98 0-9.52.135-14.588.135-2.795 0-6.121-.135-8.916-.135-1.553 0-1.572.316-1.572 1.185 0 1.283.541.924 2.186 1.017 5.904.332 5.678 1.433 5.678 6.489v32.313c0 4.625.4 6.005-4.455 6.44 0 0-.744.076-1.166.121l-2.057.211c-.492.441-.326 1.621.164 1.842 1.094-.04 3.033-.116 3.033-.116 2.688-.08 5.375-.285 8.062-.285 2.703 0 5.289.208 7.947.286v.002c.943.029 1.939.062 3.031.102.492-.221.656-1.401.164-1.842l-2.07-.196c-.422-.045-1.148-.11-1.148-.11-4.902-.332-4.602-1.715-4.602-6.456V71.795c0-.711-.09-2.606.436-3.16.438-.476 1.223-.396 1.922-.396 6.643 0 6.553.633 9.699 6.163l8.562 15.405c.699 1.187 1.223 2.686 2.973 2.686h7.438c.938.03 1.924.062 3.012.102.49-.222.654-1.402.164-1.843zm-29.828-24.228c-1.486 0-4.457.553-4.457-1.42V50.961c0-5.53.176-6.32 6.816-6.32 7.775 0 12.582 3.949 12.582 11.217 0 3.16-1.137 6.083-4.02 8.059-3.32 2.292-6.904 2.607-10.921 2.607z"/></g><g><path fill="#004B8D" d="M420.307 123.978c0-7.741-.162-8.923-5.27-9.291l-2.029-.146c-.486-.296-.324-1.621.162-1.845 4.543.148 7.299.222 10.543.222 3.164 0 5.92-.073 9.977-.219.486.221.648 1.546.162 1.842l-1.947.146c-4.783.368-4.947 1.55-4.947 9.291v25.659c0 4.645.244 6.562 1.703 7.962.893.81 2.434 1.696 8.84 1.696 6.895 0 8.598-.296 9.896-.958 1.621-.887 3.73-3.539 5.352-7.301.488-.366 2.027-.074 2.027.442 0 .812-2.271 8.333-3.406 10.322-4.135-.147-11.842-.222-20.195-.222h-7.461c-3.406 0-6 .074-10.543.222-.486-.222-.648-1.401-.162-1.843l2.434-.221c4.703-.442 4.865-1.476 4.865-9.216v-26.542zm217.264.146c0-7.814-.158-9.069-4.855-9.438l-1.992-.146c-.477-.296-.318-1.621.162-1.845 3.979.148 6.686.222 10.031.222 3.186 0 5.893-.073 9.875-.219.477.221.637 1.546.158 1.842l-1.992.146c-4.697.368-4.855 1.623-4.855 9.438v26.25c0 7.815.158 8.847 4.855 9.363l1.992.221c.479.295.318 1.621-.158 1.843-3.982-.147-6.689-.222-9.875-.222-3.346 0-6.053.074-10.031.222-.48-.222-.639-1.401-.162-1.843l1.992-.221c4.697-.517 4.855-1.548 4.855-9.363v-26.25zm-63.629 35.596c-.408-.044-1.172-.104-1.172-.104-.838-.085-1.592-.205-2.188-.855-1.033-1.098-.947-4.226-.947-5.478v-32.308c0-1.409-.344-4.459.689-5.556.518-.577 1.592-.674 2.549-.729v-.004c.582-.044.596-.046 1.105-.07l2.047-.146c.49-.296.326-1.622-.164-1.844-1.094.038-2.088.023-3.033.053v.004h-8.699c-.947 0-1.809 0-2.324 1.018l-17.727 36.923-15.658-35.671c-.518-1.252-.602-2.27-2.238-2.27h-9.055c-.943-.029-1.984-.019-3.078-.057-.49.222-.656 1.548-.164 1.844l2.047.146c.422.033 1.186.086 1.186.086 3.396.218 3.607.977 3.299 4.552l-2.668 34.653c-.232 3.479-.424 5.318-4.068 5.657 0 0-.77.097-1.193.142l-2.045.222c-.492.44-.328 1.62.164 1.841 1.078-.04 2.996-.096 2.996-.096 1.848-.091 3.729-.255 5.611-.255 2.029 0 4.062.191 6.096.272v.004c.941.029 1.938.062 3.031.101.492-.221.656-1.4.164-1.842l-2.045-.222c-.539-.042-1.143-.102-1.143-.102-5.26-.36-5.143-4.073-4.814-8.615l2.496-32.229h.604l16.951 39.659c.17.548.428 1.486 1.289 1.486.775 0 1.033-.858 1.291-1.409l19.102-40.679h.604v35.438c0 1.407.172 4.303-1.291 5.396-.764.569-3.25.911-3.25.911-.342.054-.701.104-1.109.146l-2.045.221c-.492.441-.328 1.621.164 1.843 1.078-.039 2.99-.099 2.99-.099 2.773-.077 5.592-.283 8.412-.283 2.027 0 5.998.192 5.998.192.945.029 2.023.133 3.117.172.492-.222.656-1.4.164-1.842l-2.048-.217z"/><path fill="#004B8D" d="M706.917 159.92l-.275-.221c-.408-.043-.771-.093-1.113-.149-3.189-.712-4.432-4.552-5.609-7.288l-16.408-38.834c-.164-.466-.488-1.471-1.139-1.471-.895 0-1.137 1.083-1.381 1.7l-15.676 38.76c-.57 1.47-2.031 5.031-3.088 6.111-.809.829-1.863.987-2.986 1.104 0 0-.885.084-1.307.13l-1.928.196c-.49.441-.326 1.621.164 1.843 1.094-.039 3.033-.109 3.033-.109 2.145-.029 4.289-.301 6.436-.301 1.807 0 3.611.192 5.414.272 0 0 1.939.069 3.033.11.49-.223.654-1.402.164-1.844l-2.047-.222c-.406-.042-1.109-.108-1.109-.108-1.887-.209-4.236-.546-4.236-2.62 0-1.392.65-3.017 1.137-4.255l2.436-5.8c1.221-2.784.732-3.096 3.98-3.096h11.049c3.898 0 3.328 0 5.037 3.948l2.598 5.876c.406 1.008 1.137 2.709 1.137 3.795 0 1.942-2.123 2.07-4.105 2.238 0 0-.658.056-1.229.1l-1.969.143c-.49.441-.326 1.621.166 1.843 1.092-.039 3.031-.118 3.031-.118 2.311-.084 4.637-.263 6.867-.263 2.846 0 5.691.193 8.535.274v-.003c.934.028.145.062 1.225.101.489-.221.653-1.401.163-1.842zm-21.495-18.25h-9.574c-.334 0-2.998.313-2.998-.468 0-.235.166-.704.25-.938l5.746-14.228c.166-.392.748-2.347 1.414-2.347.5 0 1.166 2.033 1.332 2.347l5.662 13.288c0 .157.582 1.407.582 1.721 0 .861-1.914.625-2.414.625z"/></g><path d="M78.61582 232.29097c-1.15069 1.25723-2.55708 1.8823-4.21918 1.8823-2.50026 0-4.22629-1.14359-5.1923-3.44496-.53272-1.22882-.80263-2.63521-.80263-4.21918 0-1.83258.2486-3.36683.75291-4.61695.9447-2.3511 2.67073-3.5231 5.16389-3.5231 1.83257 0 3.29579.6748 4.38255 2.02436 1.09386 1.34957 1.64079 3.31 1.64079 5.8955 0 2.74175-.57534 4.7448-1.72603 6.00203zm-2.42212-19.51194c-1.01573-.41908-2.20904-.62507-3.57281-.62507-3.69356 0-6.54897 1.37798-8.56622 4.13395-2.01015 2.74886-3.01877 6.1512-3.01877 10.1999 0 4.19078 1.04414 7.51498 3.13242 9.97262 2.08828 2.45764 4.88686 3.68646 8.38154 3.68646 2.25875 0 4.09843-.53983 5.51903-1.6266.78133-.58244 1.51294-1.4561 2.19483-2.621v1.74734c0 2.5997-.28412 4.44648-.84526 5.54744-.86657 1.71183-2.5855 2.57129-5.14968 2.57129-1.81126 0-3.104-.32674-3.87113-.97311-.44749-.36936-.77423-.96601-.97311-1.79706h-7.74227c.2344 2.71334 1.44901 4.7519 3.65094 6.11568 2.19483 1.36378 5.03603 2.04567 8.5165 2.04567 5.75343 0 9.65297-1.53425 11.68443-4.59565 1.1791-1.78285 1.76865-4.42516 1.76865-7.94115v-25.8194h-6.91122v3.92085c-1.06545-1.9107-2.46474-3.23186-4.19787-3.94216zm-1.29985-.7032zm38.64742.90208c-1.37798-.58245-2.90512-.87367-4.58143-.87367-1.49874 0-2.92644.31253-4.28311.9376-1.35667.61796-2.55708 1.72603-3.58702 3.3029v-13.0056h-7.0888v36.6799h7.0888V225.2874c0-2.32978.49011-4.12684 1.46322-5.38407.97311-1.25723 2.40082-1.8823 4.28311-1.8823 1.81127 0 3.04719.63217 3.69356 1.8965.49721.90208.74582 2.08118.74582 3.5444v16.5571h7.27347v-15.98176c0-2.42922-.08524-4.18366-.25571-5.25622-.16337-1.07255-.62506-2.1167-1.37088-3.13242-.88077-1.2004-2.01015-2.08828-3.38103-2.67073zm27.55254 19.31306c-1.15069 1.25723-2.55708 1.8823-4.21918 1.8823-2.50026 0-4.22629-1.14359-5.1923-3.44496-.53272-1.22882-.80263-2.63521-.80263-4.21918 0-1.83258.2486-3.36683.75291-4.61695.9447-2.3511 2.67073-3.5231 5.16388-3.5231 1.83258 0 3.2958.6748 4.38256 2.02436 1.09386 1.34957 1.64079 3.31 1.64079 5.8955 0 2.74175-.57534 4.7448-1.72603 6.00203zm-2.42212-19.51194c-1.01573-.41908-2.20193-.62507-3.57281-.62507-3.69356 0-6.54897 1.37798-8.55912 4.13395-2.01725 2.74886-3.02588 6.1512-3.02588 10.1999 0 4.19078 1.04415 7.51498 3.13243 9.97262 2.08828 2.45764 4.88686 3.68646 8.38154 3.68646 2.26585 0 4.10553-.53983 5.51903-1.6266.78133-.58244 1.51294-1.4561 2.19483-2.621v1.74734c0 2.5997-.28412 4.44648-.84526 5.54744-.86657 1.71183-2.5855 2.57129-5.14968 2.57129-1.81126 0-3.104-.32674-3.87113-.97311-.4475-.36936-.76713-.96601-.97311-1.79706h-7.73517c.2273 2.71335 1.4419 4.7519 3.64384 6.11568 2.19483 1.36378 5.03603 2.04567 8.5165 2.04567 5.76053 0 9.65297-1.53425 11.68443-4.59564 1.1791-1.78286 1.77575-4.42517 1.77575-7.94116v-25.8194h-6.91832v3.92085c-1.06545-1.9107-2.46474-3.23186-4.19787-3.94216zm-1.29985-.7032zm40.16746 7.41553c.90919-1.02993 2.18773-1.54845 3.83562-1.54845 1.51294 0 2.78438.4901 3.80721 1.46322 1.02283.9731 1.59107 2.40081 1.71182 4.2831h-11.06647c.2344-1.76864.80264-3.16083 1.71182-4.19787zm9.9513-6.1441c-1.81126-.84525-3.84982-1.27143-6.11568-1.27143-3.8143 0-6.91122 1.25723-9.30493 3.7717-2.3866 2.51446-3.57991 6.12988-3.57991 10.83917 0 5.02893 1.32116 8.65856 3.97058 10.8889 2.64231 2.23034 5.6966 3.34551 9.16287 3.34551 4.19787 0 7.45815-1.32826 9.78793-3.97057 1.49873-1.6692 2.33689-3.31 2.52157-4.92238h-7.26637c-.38357.80264-.82395 1.4277-1.32116 1.87519-.91629.83105-2.1096 1.25013-3.57281 1.25013-1.37798 0-2.56418-.34095-3.5444-1.02994-1.61238-1.09386-2.47184-3.01167-2.57128-5.73922h18.62406c.03552-2.3511-.03551-4.14815-.22019-5.39828-.31964-2.1309-1.00863-3.999-2.07408-5.61847-1.1791-1.82548-2.67783-3.16794-4.4962-4.0203zm-5.61847-1.27143zm51.17001.82395c-1.16489-.4617-2.35109-.6961-3.5515-.6961-1.79706 0-3.42364.36936-4.89396 1.12228-1.37798.74581-2.53577 1.92491-3.46627 3.52309-.53272-1.33537-1.31405-2.42213-2.35109-3.27449-1.27854-.91628-2.96195-1.37088-5.04313-1.37088-2.19483 0-3.98478.53273-5.36987 1.59818-.78133.59665-1.61238 1.60528-2.49315 3.01877v-3.97057h-6.91832v27.16897h7.21665v-16.37952c0-1.48452.19178-2.5997.57534-3.3455.6961-1.31406 2.05987-1.97464 4.09133-1.97464 1.74733 0 2.92643.66058 3.52308 1.97463.33385.73161.49721 1.9036.49721 3.52309v16.20194h7.16693V223.8171c0-1.22172.19178-2.25875.57534-3.12532.75292-1.6337 2.1096-2.44343 4.07002-2.44343 1.69762 0 2.86251.63216 3.49468 1.8965.33384.66058.50431 1.51294.50431 2.54287v17.33132h7.28768l.04972-17.15374c0-1.76865-.07813-3.10401-.2486-4.0203-.26281-1.38509-.78133-2.54998-1.54846-3.49468-.9447-1.16489-2.00304-1.98173-3.16794-2.45053zm18.82295-3.34551v-6.57028h-7.21664v6.57028zm-7.21664 3.24607v27.2187h7.21664v-27.2187zm19.654 18.53172h-7.21665c0 2.79148 1.02283 5.09285 3.0614 6.90412 2.03855 1.80416 5.19939 2.70624 9.4754 2.70624 4.19787 0 7.29478-.85236 9.30492-2.55708 2.00305-1.70472 3.00457-3.90665 3.00457-6.60579 0-2.04566-.6961-3.75748-2.09538-5.12126-1.4135-1.34957-3.5373-2.3511-6.3714-3.01878-4.24048-.93049-6.71233-1.59107-7.41552-1.97463-.6961-.36225-1.04415-.9589-1.04415-1.76865 0-.65347.32674-1.22171.98732-1.70472.65348-.4759 1.75444-.7174 3.3029-.7174 1.8823 0 3.21766.4759 3.99899 1.4419.41197.53273.67478 1.25724.77422 2.17353h7.1172c-.31963-3.3242-1.54845-5.6682-3.68645-7.02487-2.138-1.35667-4.90817-2.03856-8.3034-2.03856-3.57992 0-6.35009.90208-8.32472 2.71335-1.97464 1.80416-2.96195 3.96347-2.96195 6.47793 0 2.1309.63216 3.7646 1.8965 4.89397 1.27144 1.15068 3.43785 2.10249 6.52055 2.86961 4.276 1.01573 6.74785 1.73313 7.41553 2.1522.66769.41198 1.00153 1.02284 1.00153 1.81838 0 .83105-.41198 1.45611-1.23592 1.87519-.82395.41197-1.93912.62506-3.33841.62506-2.37951 0-4.0061-.4759-4.89397-1.4277-.49721-.53273-.82395-1.4277-.97311-2.69204zm5.448-19.25623zm22.99951 19.25623h-7.21665c0 2.79148 1.01573 5.09285 3.0543 6.90412 2.03856 1.80416 5.19939 2.70624 9.4754 2.70624 4.19787 0 7.29478-.85236 9.30493-2.55708 2.00304-1.70472 3.01167-3.90665 3.01167-6.60579 0-2.04566-.7032-3.75748-2.10249-5.12126-1.4135-1.34957-3.5373-2.3511-6.36429-3.01878-4.2476-.93049-6.71944-1.59107-7.41553-1.97463-.7032-.36225-1.05124-.9589-1.05124-1.76865 0-.65347.32673-1.22171.98731-1.70472.65348-.4759 1.76155-.7174 3.31-.7174 1.8752 0 3.21056.4759 3.99189 1.4419.41907.53273.67478 1.25724.77422 2.17353h7.11721c-.31253-3.3242-1.54135-5.6682-3.67935-7.02487-2.14511-1.35667-4.90818-2.03856-8.30341-2.03856-3.57991 0-6.35719.90208-8.33182 2.71335-1.97463 1.80416-2.95485 3.96347-2.95485 6.47793 0 2.1309.63217 3.7646 1.8965 4.89397 1.26434 1.15068 3.43786 2.10249 6.51345 2.86961 4.28311 1.01573 6.75496 1.73313 7.41554 2.1522.66768.41198 1.00152 1.02284 1.00152 1.81838 0 .83105-.41198 1.45611-1.23592 1.87519-.82395.41197-1.93202.62506-3.33131.62506-2.3795 0-4.0132-.4759-4.89397-1.4277-.50431-.53273-.82394-1.4277-.9731-2.69204zm5.4409-19.25623zm24.76816-2.52156v-6.57028h-7.21665v6.57028zm-7.21665 3.24607v27.2187h7.21665v-27.2187zm31.11825 19.98074c-1.11517 1.47742-2.71335 2.22323-4.79453 2.22323s-3.68646-.74581-4.80873-2.22323c-1.12227-1.48453-1.68341-3.58702-1.68341-6.32167 0-2.72756.56114-4.83004 1.68341-6.30747 1.12227-1.47032 2.72755-2.20903 4.80873-2.20903s3.67936.73871 4.79453 2.20903c1.11517 1.47742 1.6692 3.57991 1.6692 6.30746 0 2.73466-.55403 4.83715-1.6692 6.32168zm5.6895 3.92795c2.30137-2.8341 3.45206-6.25064 3.45206-10.24963 0-3.92795-1.15069-7.3303-3.45206-10.2141-2.29427-2.87672-5.78184-4.31863-10.46272-4.31863-4.67377 0-8.16135 1.4419-10.46272 4.31862-2.29427 2.88382-3.44495 6.28616-3.44495 10.21411 0 3.999 1.15068 7.41554 3.44495 10.24963 2.30137 2.8412 5.78895 4.2618 10.46272 4.2618 4.68088 0 8.16845-1.4206 10.46272-4.2618zm-10.46272-24.6332zm40.99141 2.28717c-1.78995-1.47743-4.09132-2.20904-6.90411-2.20904-2.24455 0-4.10554.54693-5.56875 1.6479-.81685.61086-1.67631 1.61948-2.5926 3.01877v-3.97057h-6.8686v27.16897h7.0888v-14.73162c0-1.68341.2344-3.0614.70319-4.14815.89498-2.04567 2.54998-3.0685 4.965-3.0685 1.96753 0 3.29579.6961 3.99899 2.09539.38356.76712.57534 1.86809.57534 3.29579v16.5571h7.28768v-18.32575c0-3.41654-.89498-5.85997-2.68494-7.3303zm-9.52512-2.28717zm24.32067 19.25623h-7.21665c0 2.79148 1.02284 5.09285 3.0614 6.90412 2.03856 1.80416 5.1994 2.70624 9.4754 2.70624 4.19787 0 7.29478-.85236 9.30493-2.55708 2.00305-1.70472 3.00457-3.90665 3.00457-6.60579 0-2.04566-.6961-3.75749-2.09539-5.12126-1.4135-1.34957-3.5373-2.3511-6.36428-3.01878-4.2476-.93049-6.71944-1.59107-7.42264-1.97463-.6961-.36225-1.04414-.9589-1.04414-1.76865 0-.65347.32674-1.22171.98732-1.70472.65347-.4759 1.75444-.7174 3.3029-.7174 1.88229 0 3.21765.4759 3.99898 1.4419.41908.53273.67479 1.25724.77423 2.17353h7.1172c-.31963-3.3242-1.54845-5.6682-3.68645-7.02487-2.138-1.35667-4.90818-2.03856-8.30341-2.03856-3.57991 0-6.35008.90208-8.32472 2.71335-1.97463 1.80416-2.96195 3.96347-2.96195 6.47793 0 2.1309.63217 3.7646 1.8965 4.89397 1.27144 1.15068 3.43786 2.10249 6.52056 2.86961 4.276 1.01573 6.74785 1.73313 7.41553 2.1522.66768.41198 1.00152 1.02284 1.00152 1.81838 0 .83105-.41197 1.45611-1.23592 1.87519-.82395.41197-1.93912.62506-3.33841.62506-2.3795 0-4.0061-.4759-4.89397-1.4277-.4972-.53273-.82395-1.4277-.9731-2.69204zm5.448-19.25623zm38.98127-2.52157V202.984h-7.21665v6.57027zm-7.21665 3.24608v27.2187h7.21665v-27.2187zm36.09034 1.56266c-1.78995-1.47743-4.09133-2.20904-6.90411-2.20904-2.24455 0-4.09843.54693-5.56876 1.6479-.80974.61086-1.6763 1.61948-2.5926 3.01877v-3.97057h-6.8686v27.16897h7.0888v-14.73162c0-1.68341.2344-3.0614.7032-4.14815.89498-2.04567 2.55708-3.0685 4.965-3.0685 1.96753 0 3.29579.6961 3.99899 2.09539.38356.76712.57534 1.86809.57534 3.29579v16.5571h7.28768v-18.32575c0-3.41654-.89498-5.85997-2.68494-7.3303zm-9.52512-2.28717zm33.21363 1.1649c-1.27854-.72451-2.74886-1.08677-4.39676-1.08677-3.57991 0-6.43532 1.32826-8.57332 3.99189-2.1451 2.66362-3.21056 6.32167-3.21056 10.96703 0 4.0274 1.08676 7.3232 3.26028 9.90158 2.17352 2.57129 4.84425 3.85693 8.02639 3.85693 1.93202 0 3.5444-.36935 4.84425-1.10096 1.29985-.73161 2.45763-1.9036 3.47336-3.5231v3.7717h6.91122v-36.75802h-7.21665v12.98428c-.79553-1.27854-1.83967-2.28006-3.11821-3.00457zm1.74734 19.39118c-1.05125 1.49163-2.5784 2.24455-4.59565 2.24455-2.01014 0-3.51598-.75292-4.5033-2.25875-.99442-1.50584-1.49163-3.51599-1.49163-6.03045 0-2.32978.4901-4.28311 1.46322-5.85998.97311-1.56976 2.50026-2.3582 4.58144-2.3582 1.36377 0 2.56418.4333 3.59411 1.29986 1.68341 1.4277 2.52867 3.8143 2.52867 7.13851 0 2.38661-.52562 4.32573-1.57686 5.82446zm22.37445-23.07765V202.984h-7.21665v6.57027zm-7.21665 3.24608v27.2187h7.21665v-27.2187zm30.36532 9.76662h7.29478c-.40487-3.87824-1.69051-6.58448-3.86403-8.11873-2.16641-1.52714-4.965-2.29427-8.37444-2.29427-4.0132 0-7.15982 1.29985-9.43988 3.89245-2.28007 2.5997-3.42365 6.23643-3.42365 10.9102 0 4.14816 1.03704 7.52208 3.0969 10.11468 2.06698 2.5997 5.29174 3.89954 9.6672 3.89954 4.37544 0 7.68544-1.55555 9.91578-4.67377 1.39219-1.93202 2.18062-3.97768 2.34399-6.1441h-7.26637c-.14916 1.43481-.57534 2.5997-1.27144 3.50178-.7032.89498-1.8823 1.34957-3.5444 1.34957-2.35109 0-3.94926-1.13648-4.79452-3.40233-.4688-1.21462-.7032-2.8199-.7032-4.81584 0-2.09538.2344-3.7788.7032-5.04313.88077-2.3795 2.52157-3.5728 4.91528-3.5728 1.6834 0 2.91933.54693 3.72197 1.64789.54693.81685.88788 1.73313 1.02283 2.74886zm-4.81583-10.49113zm32.01322 14.71031v2.64942c-.04972 2.3795-.7245 4.0203-2.01015 4.91528-1.29275.90208-2.70624 1.34957-4.23339 1.34957-.966 0-1.78995-.26992-2.46474-.80974-.67478-.53983-1.00862-1.4206-1.00862-2.63522 0-1.36377.54693-2.3724 1.6479-3.02587.64636-.38357 1.72602-.7032 3.22475-.97312l1.59818-.29832c.79553-.14916 1.4277-.31253 1.8823-.483.45459-.17758.90918-.40488 1.36377-.689zm-4.32573-3.3242l-2.42212.29832c-2.74176.35516-4.82294.9376-6.24354 1.75445-2.57839 1.49873-3.86403 3.92085-3.86403 7.26637 0 2.57838.80264 4.57433 2.40792 5.98072 1.60528 1.4064 3.63673 2.1096 6.10147 2.1096 1.93202 0 3.66515-.4404 5.1994-1.32827 1.27854-.74581 2.40792-1.655 3.39523-2.72045.04973.61796.11365 1.1649.19889 1.6479.08523.483.2344 1.00152.44749 1.54845h7.74227v-1.05124c-.4688-.2131-.81685-.4901-1.05125-.82395-.2273-.32674-.36935-.9589-.41907-1.8965-.03552-1.22882-.04972-2.28006-.04972-3.14663v-12.47997c0-3.28159-1.1578-5.51193-3.47337-6.69813-2.31558-1.1791-4.965-1.76865-7.94116-1.76865-4.58143 0-7.8062 1.1933-9.68849 3.59412-1.1862 1.53425-1.84678 3.48757-1.99594 5.86708h6.8615c.17047-1.05124.50431-1.8823 1.00152-2.49315.6961-.83816 1.8894-1.25013 3.5728-1.25013 1.49874 0 2.63522.21309 3.40945.63217.77423.42618 1.15779 1.2004 1.15779 2.31557 0 .91629-.50431 1.58397-1.52004 2.01726-.56824.2557-1.50584.46169-2.827.62506zm.37646-11.38611zm14.58246 6.04465h3.8001v16.75598c0 1.69762.39777 2.95485 1.1933 3.7717 1.23593 1.27853 3.5302 1.86098 6.89702 1.74733l3.36682-.12785v-5.32015c-.2344.0213-.4688.03552-.7103.04262-.2415.0071-.4688.0142-.68899.0142-1.4419 0-2.30847-.14206-2.5926-.41907-.28411-.26992-.42617-.96601-.42617-2.08118v-14.38358h4.41806v-5.07154h-4.41806v-7.586h-7.03907v7.586h-3.80011zm36.83616 14.6606c-1.11517 1.47742-2.71335 2.22323-4.79453 2.22323s-3.68645-.74581-4.80873-2.22323c-1.12227-1.48453-1.6834-3.58702-1.6834-6.32167 0-2.72756.56113-4.83004 1.6834-6.30747 1.12228-1.47032 2.72755-2.20903 4.80873-2.20903s3.67936.73871 4.79453 2.20903c1.11517 1.47742 1.6692 3.57991 1.6692 6.30746 0 2.73466-.55403 4.83715-1.6692 6.32168zm5.6895 3.92795c2.30137-2.8341 3.45206-6.25064 3.45206-10.24963 0-3.92795-1.15069-7.3303-3.45206-10.2141-2.29427-2.87672-5.78184-4.31863-10.46272-4.31863-4.67377 0-8.16135 1.4419-10.46272 4.31862-2.29427 2.88382-3.44495 6.28616-3.44495 10.21411 0 3.999 1.15068 7.41554 3.44495 10.24963 2.30137 2.8412 5.78895 4.2618 10.46272 4.2618 4.68088 0 8.16845-1.4206 10.46272-4.2618zm-10.46272-24.6332zm34.12281.08524c-.08523-.0071-.19888-.0071-.33384-.0071-2.1309 0-3.86403.55403-5.19229 1.6692-.81684.66768-1.77575 1.9107-2.87671 3.72197v-4.7448h-6.79047v27.2187h7.16692v-13.0056c0-2.18773.27702-3.8001.82395-4.85135.98022-1.86099 2.90513-2.79148 5.76764-2.79148.2202 0 .50431.0071.85236.02131.34805.0213.74581.04972 1.2004.09944v-7.28768c-.31963-.0213-.52562-.0284-.61796-.04261z"/></svg>
