<?xml version="1.0" encoding="UTF-8" standalone="no"?>
<!-- Created with Inkscape (http://www.inkscape.org/) -->

<svg
   version="1.1"
   id="svg3315"
   width="165.75999"
   height="192"
   viewBox="0 0 165.75999 192"
   sodipodi:docname="giscoR.svg"
   inkscape:version="1.2.2 (b0a84865, 2022-12-01)"
   xmlns:inkscape="http://www.inkscape.org/namespaces/inkscape"
   xmlns:sodipodi="http://sodipodi.sourceforge.net/DTD/sodipodi-0.dtd"
   xmlns="http://www.w3.org/2000/svg"
   xmlns:svg="http://www.w3.org/2000/svg">
  <defs
     id="defs3319" />
  <sodipodi:namedview
     id="namedview3317"
     pagecolor="#ffffff"
     bordercolor="#666666"
     borderopacity="1.0"
     inkscape:showpageshadow="2"
     inkscape:pageopacity="0.0"
     inkscape:pagecheckerboard="0"
     inkscape:deskcolor="#d1d1d1"
     showgrid="false"
     inkscape:zoom="1.2291667"
     inkscape:cx="82.169492"
     inkscape:cy="96"
     inkscape:window-width="729"
     inkscape:window-height="480"
     inkscape:window-x="0"
     inkscape:window-y="25"
     inkscape:window-maximized="0"
     inkscape:current-layer="g3321" />
  <g
     inkscape:groupmode="layer"
     inkscape:label="Image"
     id="g3321">
    <g
       id="g3442">
      <path
         style="fill:#fe9754;stroke-width:0.32"
         d="M 41.038964,167.95813 -0.00206658,144.25275 0.07896671,96.04777 0.15999999,47.842797 41.38345,24.040718 C 80.161317,1.6506995 82.656459,0.26122205 83.442309,0.61927968 84.909873,1.2879473 163.63733,46.774701 164.71999,47.579494 l 1.04,0.773076 v 47.819174 47.819176 l -1.2,0.78162 c -4.0934,2.66622 -81.263294,46.90592 -81.809051,46.89921 -0.369018,-0.005 -19.139407,-10.67566 -41.711975,-23.71362 z M 91.519994,152.96 c 0,-1.15865 0.07735,-1.28 0.815892,-1.28 1.043769,0 2.568409,-0.78481 2.825331,-1.45434 0.307091,-0.80026 0.235472,-2.35917 -0.140679,-3.06202 -0.531821,-0.99371 -1.83847,-1.35792 -2.743737,-0.76477 -0.685789,0.44935 -0.756807,0.44838 -0.756807,-0.0104 0,-0.27845 -0.144,-0.41727 -0.32,-0.3085 -0.185587,0.1147 -0.319999,1.86999 -0.319999,4.17889 0,2.44074 0.123814,3.98111 0.319999,3.98111 0.176,0 0.32,-0.576 0.32,-1.28 z m 0,-3.616 c 0,-1.83382 0.374634,-2.464 1.46482,-2.464 0.946729,0 1.517871,0.77369 1.482761,2.00859 -0.03362,1.18241 -1.016854,2.15141 -2.18303,2.15141 -0.709898,0 -0.764551,-0.12124 -0.764551,-1.696 z m -45.839997,2.59699 c 0.656199,0.0472 0.72,-0.0878 0.72,-1.52374 0,-2.02333 -0.412662,-3.08316 -1.289792,-3.31253 -0.806697,-0.21096 -2.230208,0.24825 -2.230208,0.71944 0,0.21203 0.288628,0.21026 0.855421,-0.005 0.654215,-0.24873 0.964192,-0.21645 1.317862,0.13722 0.600682,0.60068 0.236714,1.16386 -0.752169,1.16386 -0.779946,0 -2.061114,0.99454 -2.061114,1.6 0,0.176 0.295367,0.61536 0.656368,0.97636 0.46817,0.46817 0.858122,0.58991 1.36,0.42458 0.386999,-0.12749 1.027632,-0.20847 1.423632,-0.17996 z m -2.08,-0.47292 c -0.433347,-0.17486 -0.55088,-1.26565 -0.16,-1.48494 0.132,-0.074 0.636,-0.2293 1.12,-0.34498 0.780266,-0.18651 0.88,-0.12026 0.88,0.58449 0,0.64418 -0.8508,1.55416 -1.338963,1.4321 -0.05557,-0.0139 -0.281037,-0.0979 -0.501037,-0.18667 z m 9.659277,0.56546 c 0.09738,-0.15756 -0.03813,-0.36904 -0.301114,-0.46996 -0.687213,-0.2637 -0.685504,-3.72357 0.0018,-3.72357 0.264,0 0.48,-0.144 0.48,-0.32 0,-0.176 -0.216,-0.32 -0.48,-0.32 -0.302797,0 -0.48,-0.30518 -0.48,-0.82667 0,-1.00247 -0.751511,-0.89274 -0.902256,0.13174 -0.05624,0.38221 -0.30824,0.69493 -0.56,0.69493 -0.25176,0 -0.457744,0.144 -0.457744,0.32 0,0.176 0.216,0.32 0.48,0.32 0.367718,0 0.48,0.40635 0.48,1.73714 0,1.15256 0.169222,1.90637 0.502857,2.24 0.566868,0.56687 0.9756,0.63841 1.23642,0.21639 z m 7.812268,-0.44611 c 1.346153,-1.1172 1.020541,-3.71967 -0.546611,-4.36881 -2.078954,-0.86113 -4.13759,1.34633 -3.25121,3.48624 0.621965,1.50156 2.520407,1.94274 3.797821,0.88257 z M 58.6312,151.18186 c -1.031357,-0.72239 -0.981936,-2.50972 0.0888,-3.21129 0.741079,-0.48557 0.858922,-0.48557 1.6,0 1.070733,0.70157 1.120154,2.4889 0.0888,3.21129 -0.391158,0.27397 -0.79112,0.49814 -0.888797,0.49814 -0.09768,0 -0.497638,-0.22417 -0.888796,-0.49814 z M 38.399998,150.72 c 0,-1.21313 0.05091,-1.28 0.974544,-1.28 1.100137,0 2.545455,-1.22319 2.545455,-2.15425 0,-0.32084 -0.224166,-0.90339 -0.498143,-1.29455 -0.400535,-0.57184 -0.808116,-0.7112 -2.08,-0.7112 h -1.581856 v 3.36 c 0,2.02667 0.126985,3.36 0.32,3.36 0.176,0 0.32,-0.576 0.32,-1.28 z m 0,-3.36 c 0,-1.30968 0.07003,-1.44 0.773827,-1.44 1.322902,0 1.786173,0.33795 1.786173,1.30298 0,0.97284 -0.727524,1.57702 -1.898964,1.57702 -0.570118,0 -0.661036,-0.19806 -0.661036,-1.44 z M 48.705831,150 c 0.141395,-2.3051 0.03887,-2.8 -0.580071,-2.8 -0.341395,0 -0.445763,0.56192 -0.445763,2.4 0,1.85286 0.102947,2.4 0.451578,2.4 0.327516,0 0.48528,-0.54946 0.574256,-2 z m 15.614165,-0.08 c 0,-1.86667 0.06564,-2.08 0.64,-2.08 0.352,0 0.64,-0.144 0.64,-0.32 0,-0.176 -0.288,-0.32 -0.64,-0.32 -0.475494,0 -0.64,-0.21333 -0.64,-0.82996 0,-0.56084 0.207527,-0.88423 0.64,-0.99732 0.796646,-0.20833 0.842448,-0.73272 0.064,-0.73272 -0.83119,0 -1.344,0.63491 -1.344,1.664 0,0.58311 -0.167619,0.896 -0.48,0.896 -0.264,0 -0.48,0.144 -0.48,0.32 0,0.176 0.216,0.32 0.48,0.32 0.377437,0 0.48,0.44444 0.48,2.08 0,1.17333 0.139488,2.08 0.32,2.08 0.180512,0 0.32,-0.90667 0.32,-2.08 z m 7.36,-0.30874 c 0,-1.7178 0.105001,-2.12494 0.618963,-2.4 0.936339,-0.50112 2.261037,-0.41397 2.261037,0.14874 0,0.264 0.196031,0.48 0.435625,0.48 0.287382,0 0.385619,-0.26158 0.288682,-0.76868 -0.183408,-0.95944 -1.485408,-1.28083 -2.724307,-0.67248 -0.745488,0.36606 -0.88,0.36402 -0.88,-0.0133 0,-0.26446 -0.195005,-0.3706 -0.48,-0.26124 -0.373911,0.14349 -0.48,0.77782 -0.48,2.86996 0,2.17402 0.09146,2.68577 0.48,2.68577 0.377168,0 0.48,-0.4432 0.48,-2.06875 z m 29.253824,1.8745 c 0.98648,-0.37854 0.48809,-0.77043 -0.73175,-0.57537 -1.056668,0.16897 -1.314358,0.0888 -1.759996,-0.54742 -0.287146,-0.40996 -0.52208,-0.85733 -0.52208,-0.99417 0,-0.13684 0.864,-0.2488 1.92,-0.2488 1.896756,0 1.919996,-0.011 1.919996,-0.9104 0,-0.9154 -0.6384,-1.70146 -1.68277,-2.07198 -1.732986,-0.61483 -3.467136,1.75253 -2.788983,3.80735 0.197869,0.59955 0.60096,1.23083 0.89576,1.40283 0.610359,0.35613 1.999663,0.42583 2.749823,0.13796 z m -3.013826,-3.27616 c 0,-0.4796 1.151498,-1.3296 1.801197,-1.3296 0.721769,0 1.398799,0.57306 1.398799,1.184 0,0.28587 -0.50051,0.416 -1.599996,0.416 -0.88,0 -1.6,-0.12168 -1.6,-0.2704 z m 7.039996,1.2365 c 0,-2.11542 0.0424,-2.24455 0.79929,-2.43451 1.50431,-0.37756 1.76071,-0.0254 1.76071,2.41837 0,1.7867 0.0988,2.25004 0.48,2.25004 0.64293,0 0.68226,-4.08108 0.0477,-4.94889 -0.50444,-0.68986 -2.39709,-0.76467 -2.81154,-0.11113 -0.20167,0.31802 -0.26755,0.28646 -0.27126,-0.12994 -0.003,-0.35649 -0.17375,-0.48516 -0.4849,-0.36576 -0.37391,0.14348 -0.48,0.77781 -0.48,2.86996 0,2.17401 0.0915,2.68576 0.48,2.68576 0.38083,0 0.48,-0.46155 0.48,-2.2339 z m 9.94104,1.90264 c 0.48436,-0.25922 0.61896,-0.67676 0.61896,-1.92 V 147.84 h -1.12 c -0.616,0 -1.12,0.144 -1.12,0.32 0,0.176 0.36,0.32 0.8,0.32 0.67345,0 0.8,0.15008 0.8,0.94874 0,1.77807 -2.38806,2.14547 -3.14514,0.48387 -0.20617,-0.45249 -0.37486,-1.51363 -0.37486,-2.35807 0,-1.86852 0.71611,-2.67642 2.2947,-2.58882 1.60508,0.0891 1.7624,0.0171 1.08414,-0.4959 -1.00864,-0.76289 -2.35983,-0.57806 -3.40345,0.46557 -0.82599,0.82598 -0.93539,1.15993 -0.93539,2.85544 0,1.59879 0.13862,2.08481 0.82845,2.90462 0.8857,1.05259 2.41739,1.32505 3.67259,0.65329 z m 6.3665,-0.36908 c 0.7081,-0.76006 0.88675,-2.74396 0.33922,-3.76704 -0.48722,-0.91038 -1.9536,-1.29408 -3.10132,-0.8115 -1.08589,0.45659 -1.38544,1.00617 -1.38544,2.5419 0,2.37488 2.62948,3.66608 4.14754,2.03664 z m -3.05429,-1.07434 c -0.6115,-1.46351 -0.0743,-2.81568 1.17651,-2.9615 1.04306,-0.1216 1.62433,0.56944 1.66427,1.97857 0.0379,1.33736 -0.54777,2.11761 -1.58954,2.11761 -0.58761,0 -0.89277,-0.27673 -1.25124,-1.13468 z m 9.31351,-0.80561 c 0.47262,-1.41917 0.78203,-2.65759 0.68757,-2.75205 -0.40611,-0.4061 -0.84059,0.36213 -1.37243,2.42668 l -0.56876,2.20788 -0.81657,-2.52463 c -0.52975,-1.63784 -0.94001,-2.4426 -1.16801,-2.2911 -0.24463,0.16253 -0.10067,1.03592 0.47364,2.87351 1.10042,3.52094 1.60821,3.5319 2.76456,0.0597 z M 50.239997,147.2919 c 0,-0.46802 -0.07006,-0.48773 -0.773827,-0.21766 -0.718627,0.27576 -0.62792,0.73516 0.133827,0.67778 0.352,-0.0265 0.64,-0.23357 0.64,-0.46012 z M 20.824304,120.91903 c 0.931591,-0.40075 2.11937,-1.27847 2.843718,-2.10137 2.214464,-2.51577 2.251976,-2.80034 2.251976,-17.08378 V 89.02177 L 24.319799,88.910883 22.719601,88.8 22.7198,90.32 c 1.09e-4,0.836 -0.124666,1.52 -0.277278,1.52 -0.152612,0 -0.652398,-0.566544 -1.110635,-1.258989 -0.70012,-1.057952 -1.060293,-1.293049 -2.255584,-1.472294 -1.658173,-0.248659 -4.271969,0.243171 -6.17596,1.162109 -1.723061,0.831616 -3.4713247,2.777814 -4.5370907,5.050771 -0.7348934,1.567305 -0.8432528,2.209609 -0.8432528,4.998403 0,2.77834 0.1096784,3.43384 0.8323562,4.9746 2.0318683,4.33199 5.8263923,6.72626 9.8620753,6.22278 1.518489,-0.18945 1.963142,-0.40933 2.97275,-1.47007 0.65295,-0.68602 1.285527,-1.24731 1.405726,-1.24731 0.51047,0 -0.153131,5.15577 -0.848481,6.59217 -1.475133,3.04722 -4.891237,4.12563 -8.352325,2.63671 l -1.606543,-0.69111 -0.761271,0.93111 c -0.418699,0.51212 -0.76645,1.02738 -0.772779,1.14502 -0.02065,0.38389 2.322673,1.66797 3.812671,2.08924 1.886918,0.53349 4.734048,0.28749 6.760125,-0.58411 z m -6.482532,-13.36717 c -3.972815,-2.51949 -4.4918625,-9.832778 -0.964616,-13.591271 2.224028,-2.369837 5.99951,-2.41369 8.462843,-0.0983 l 0.88,0.827149 v 5.555412 5.55541 l -0.88,0.82334 c -2.265777,2.11988 -5.071524,2.46723 -7.498227,0.92826 z m 37.424638,3.32035 c 0.920473,-0.27335 1.673587,-0.57166 1.673587,-0.6629 0,-0.0913 -0.158781,-0.79649 -0.352848,-1.5672 -0.323267,-1.2838 -0.414576,-1.37782 -1.089021,-1.1214 -1.607785,0.61128 -4.559888,0.9732 -5.383622,0.66001 -1.671158,-0.63537 -1.814509,-1.47001 -1.814509,-10.564829 V 89.28 h -5.119999 c -3.884544,0 -5.119149,0.09652 -5.116477,0.4 0.0019,0.22 0.09278,0.94 0.201869,1.6 l 0.198345,1.2 1.638132,-0.0038 c 0.900972,-0.0022 2.394131,-0.205056 3.318131,-0.451037 1.650419,-0.439363 2.02518,-0.338345 1.328684,0.358151 -0.241446,0.241446 -0.314169,2.588278 -0.232534,7.504 0.106221,6.396306 0.18863,7.304966 0.779312,8.592686 0.766272,1.67053 1.268038,2.14504 2.921504,2.76281 1.428115,0.53357 4.559036,0.36897 7.049446,-0.3706 z m 20.869275,-0.12618 c 3.89383,-1.2119 5.901453,-3.34355 5.901453,-6.26603 0,-3.06218 -2.290522,-5.301574 -5.897142,-5.765523 -2.088131,-0.268611 -6.540342,-1.622007 -7.582768,-2.305031 -0.893021,-0.585129 -0.985558,-2.009513 -0.177232,-2.728044 1.366346,-1.214564 6.329837,-1.6044 9.229142,-0.724864 0.863971,0.262092 1.665321,0.478092 1.780777,0.48 0.115456,0.0019 0.433997,-0.654167 0.707866,-1.457936 l 0.497949,-1.461399 -1.030167,-0.430429 c -4.276892,-1.787001 -10.94917,-1.142809 -13.675586,1.320346 -2.784819,2.515917 -1.660934,6.326618 2.476864,8.398176 0.740765,0.370854 2.784221,0.980354 4.541014,1.354434 3.646505,0.77647 5.041337,1.48738 5.352758,2.72817 0.79553,3.16965 -5.236742,5.21363 -10.971865,3.71772 l -2.291248,-0.59763 -0.508752,1.06686 c -0.769363,1.61337 -0.645587,1.90827 1.035309,2.46657 3.808141,1.26486 7.006851,1.32654 10.611628,0.20461 z m 29.413565,-0.0494 c 0.80891,-0.35737 1.7921,-0.85989 2.18487,-1.11671 l 0.71413,-0.46695 -0.66637,-1.37158 -0.66637,-1.37159 -1.62358,0.80351 c -1.90612,0.94332 -5.023949,1.25021 -6.787728,0.66811 -2.585395,-0.85326 -4.557324,-3.51153 -4.872873,-6.56891 -0.412845,-4.000086 0.944838,-6.876432 3.936726,-8.340227 1.552214,-0.759424 2.018189,-0.837523 4.218451,-0.707024 1.478285,0.08768 2.909334,0.373881 3.556744,0.711328 l 1.08326,0.564617 0.95662,-0.95662 c 0.52614,-0.526141 0.85691,-1.117962 0.73503,-1.315159 -0.46361,-0.750141 -2.86341,-1.671712 -5.264489,-2.021673 -5.993517,-0.873565 -11.133872,2.248182 -12.727273,7.729292 -1.741651,5.991066 2.161325,12.912096 8.128627,14.414246 1.736982,0.43726 5.384585,0.10065 7.094225,-0.65466 z m 24.58421,-0.15956 c 3.91672,-1.91386 6.10987,-7.02274 5.28962,-12.32201 -0.88646,-5.727008 -4.45643,-9.067315 -9.68309,-9.060163 -3.05704,0.0042 -5.19545,0.895216 -7.14153,2.975738 -4.68606,5.009769 -3.62489,14.552935 2.00571,18.037575 2.73025,1.68969 6.52558,1.83659 9.52929,0.36886 z m -6.79942,-2.50298 c -2.61507,-1.13946 -4.17425,-4.63783 -3.92512,-8.806866 0.17263,-2.888788 0.98746,-4.699994 2.70321,-6.008656 1.03738,-0.791252 1.45145,-0.898538 3.46786,-0.898538 1.99942,0 2.4347,0.110502 3.43215,0.871299 1.74158,1.328365 2.59308,3.399191 2.75036,6.688781 0.2017,4.21871 -0.97548,6.85401 -3.68147,8.24152 -0.93803,0.48098 -3.55289,0.43276 -4.74699,-0.0875 z M 143.03999,105.28 V 99.2 h 1.41408 1.41408 l 4.09966,5.95834 c 2.25481,3.27708 4.2626,6.02086 4.46175,6.09729 0.19915,0.0764 1.18294,0.0952 2.1862,0.0417 l 1.82411,-0.0973 -3.9571,-5.73905 c -3.12028,-4.52541 -4.15648,-5.7996 -4.89994,-6.025356 -0.51856,-0.157466 -1.15884,-0.3601 -1.42284,-0.450295 -0.26409,-0.09023 0.404,-0.439101 1.48524,-0.775581 4.44318,-1.382729 6.79879,-4.032633 7.08012,-7.964681 0.21141,-2.954679 -0.4327,-4.672199 -2.4024,-6.405994 -2.3347,-2.055088 -4.61944,-2.596989 -10.48989,-2.488016 -4.09137,0.07595 -4.77008,0.159245 -4.63607,0.568973 0.0864,0.264 0.2024,6.996 0.2579,14.96 l 0.10091,14.48 h 1.7421 1.74209 z m -0.0533,-14.680858 c -0.0293,-3.013529 -0.0653,-5.731142 -0.08,-6.039142 -0.0236,-0.495946 0.32105,-0.55993 3.01333,-0.559389 2.75015,6.4e-4 3.18498,0.08577 4.56054,0.893805 3.82373,2.246131 3.71098,7.538397 -0.21237,9.968323 -1.31593,0.815021 -1.90864,0.961216 -4.37515,1.079139 l -2.85302,0.136407 z M 44.799997,83.2 v -1.92 h -1.92 -1.919999 v 1.92 1.92 h 1.919999 1.92 z"
         id="path3456" />
      <path
         style="fill:#a0a2a5;stroke-width:0.32"
         d="M 41.919997,168.29764 C 19.655999,155.44203 1.1159999,144.71263 0.71999996,144.45452 L 0,143.98524 V 96.202218 C 0,51.095386 0.03136405,48.391629 0.55999997,47.927059 1.6532452,46.966304 82.207905,0.64 82.785272,0.64 c 0.711907,0 82.007468,46.864934 82.574718,47.602339 0.31591,0.410669 0.39897,10.480333 0.3951,47.898823 -0.003,26.058358 -0.11069,47.544798 -0.24,47.747638 -0.19778,0.31026 -78.540762,45.69914 -81.579204,47.26382 -0.563261,0.29006 -1.139261,0.52546 -1.28,0.52312 -0.140739,-0.002 -18.47189,-10.52249 -40.735889,-23.3781 z M 91.519994,152.96 c 0,-1.15865 0.07735,-1.28 0.815892,-1.28 1.043769,0 2.568409,-0.78481 2.825331,-1.45434 0.307091,-0.80026 0.235472,-2.35917 -0.140679,-3.06202 -0.531821,-0.99371 -1.83847,-1.35792 -2.743737,-0.76477 -0.685789,0.44935 -0.756807,0.44838 -0.756807,-0.0104 0,-0.27845 -0.144,-0.41727 -0.32,-0.3085 -0.185587,0.1147 -0.319999,1.86999 -0.319999,4.17889 0,2.44074 0.123814,3.98111 0.319999,3.98111 0.176,0 0.32,-0.576 0.32,-1.28 z m 0,-3.616 c 0,-1.83382 0.374634,-2.464 1.46482,-2.464 0.946729,0 1.517871,0.77369 1.482761,2.00859 -0.03362,1.18241 -1.016854,2.15141 -2.18303,2.15141 -0.709898,0 -0.764551,-0.12124 -0.764551,-1.696 z m -45.839997,2.59699 c 0.656199,0.0472 0.72,-0.0878 0.72,-1.52374 0,-2.02333 -0.412662,-3.08316 -1.289792,-3.31253 -0.806697,-0.21096 -2.230208,0.24825 -2.230208,0.71944 0,0.21203 0.288628,0.21026 0.855421,-0.005 0.654215,-0.24873 0.964192,-0.21645 1.317862,0.13722 0.600682,0.60068 0.236714,1.16386 -0.752169,1.16386 -0.779946,0 -2.061114,0.99454 -2.061114,1.6 0,0.176 0.295367,0.61536 0.656368,0.97636 0.46817,0.46817 0.858122,0.58991 1.36,0.42458 0.386999,-0.12749 1.027632,-0.20847 1.423632,-0.17996 z m -2.08,-0.47292 c -0.433347,-0.17486 -0.55088,-1.26565 -0.16,-1.48494 0.132,-0.074 0.636,-0.2293 1.12,-0.34498 0.780266,-0.18651 0.88,-0.12026 0.88,0.58449 0,0.64418 -0.8508,1.55416 -1.338963,1.4321 -0.05557,-0.0139 -0.281037,-0.0979 -0.501037,-0.18667 z m 9.659277,0.56546 c 0.09738,-0.15756 -0.03813,-0.36904 -0.301114,-0.46996 -0.687213,-0.2637 -0.685504,-3.72357 0.0018,-3.72357 0.264,0 0.48,-0.144 0.48,-0.32 0,-0.176 -0.216,-0.32 -0.48,-0.32 -0.302797,0 -0.48,-0.30518 -0.48,-0.82667 0,-1.00247 -0.751511,-0.89274 -0.902256,0.13174 -0.05624,0.38221 -0.30824,0.69493 -0.56,0.69493 -0.25176,0 -0.457744,0.144 -0.457744,0.32 0,0.176 0.216,0.32 0.48,0.32 0.367718,0 0.48,0.40635 0.48,1.73714 0,1.15256 0.169222,1.90637 0.502857,2.24 0.566868,0.56687 0.9756,0.63841 1.23642,0.21639 z m 7.812268,-0.44611 c 1.346153,-1.1172 1.020541,-3.71967 -0.546611,-4.36881 -2.078954,-0.86113 -4.13759,1.34633 -3.25121,3.48624 0.621965,1.50156 2.520407,1.94274 3.797821,0.88257 z M 58.6312,151.18186 c -1.031357,-0.72239 -0.981936,-2.50972 0.0888,-3.21129 0.741079,-0.48557 0.858922,-0.48557 1.6,0 1.070733,0.70157 1.120154,2.4889 0.0888,3.21129 -0.391158,0.27397 -0.79112,0.49814 -0.888797,0.49814 -0.09768,0 -0.497638,-0.22417 -0.888796,-0.49814 z M 38.399998,150.72 c 0,-1.21313 0.05091,-1.28 0.974544,-1.28 1.100137,0 2.545455,-1.22319 2.545455,-2.15425 0,-0.32084 -0.224166,-0.90339 -0.498143,-1.29455 -0.400535,-0.57184 -0.808116,-0.7112 -2.08,-0.7112 h -1.581856 v 3.36 c 0,2.02667 0.126985,3.36 0.32,3.36 0.176,0 0.32,-0.576 0.32,-1.28 z m 0,-3.36 c 0,-1.30968 0.07003,-1.44 0.773827,-1.44 1.322902,0 1.786173,0.33795 1.786173,1.30298 0,0.97284 -0.727524,1.57702 -1.898964,1.57702 -0.570118,0 -0.661036,-0.19806 -0.661036,-1.44 z M 48.705831,150 c 0.141395,-2.3051 0.03887,-2.8 -0.580071,-2.8 -0.341395,0 -0.445763,0.56192 -0.445763,2.4 0,1.85286 0.102947,2.4 0.451578,2.4 0.327516,0 0.48528,-0.54946 0.574256,-2 z m 15.614165,-0.08 c 0,-1.86667 0.06564,-2.08 0.64,-2.08 0.352,0 0.64,-0.144 0.64,-0.32 0,-0.176 -0.288,-0.32 -0.64,-0.32 -0.475494,0 -0.64,-0.21333 -0.64,-0.82996 0,-0.56084 0.207527,-0.88423 0.64,-0.99732 0.796646,-0.20833 0.842448,-0.73272 0.064,-0.73272 -0.83119,0 -1.344,0.63491 -1.344,1.664 0,0.58311 -0.167619,0.896 -0.48,0.896 -0.264,0 -0.48,0.144 -0.48,0.32 0,0.176 0.216,0.32 0.48,0.32 0.377437,0 0.48,0.44444 0.48,2.08 0,1.17333 0.139488,2.08 0.32,2.08 0.180512,0 0.32,-0.90667 0.32,-2.08 z m 7.36,-0.30874 c 0,-1.7178 0.105001,-2.12494 0.618963,-2.4 0.936339,-0.50112 2.261037,-0.41397 2.261037,0.14874 0,0.264 0.196031,0.48 0.435625,0.48 0.287382,0 0.385619,-0.26158 0.288682,-0.76868 -0.183408,-0.95944 -1.485408,-1.28083 -2.724307,-0.67248 -0.745488,0.36606 -0.88,0.36402 -0.88,-0.0133 0,-0.26446 -0.195005,-0.3706 -0.48,-0.26124 -0.373911,0.14349 -0.48,0.77782 -0.48,2.86996 0,2.17402 0.09146,2.68577 0.48,2.68577 0.377168,0 0.48,-0.4432 0.48,-2.06875 z m 29.253824,1.8745 c 0.98648,-0.37854 0.48809,-0.77043 -0.73175,-0.57537 -1.056668,0.16897 -1.314358,0.0888 -1.759996,-0.54742 -0.287146,-0.40996 -0.52208,-0.85733 -0.52208,-0.99417 0,-0.13684 0.864,-0.2488 1.92,-0.2488 1.896756,0 1.919996,-0.011 1.919996,-0.9104 0,-0.9154 -0.6384,-1.70146 -1.68277,-2.07198 -1.732986,-0.61483 -3.467136,1.75253 -2.788983,3.80735 0.197869,0.59955 0.60096,1.23083 0.89576,1.40283 0.610359,0.35613 1.999663,0.42583 2.749823,0.13796 z m -3.013826,-3.27616 c 0,-0.4796 1.151498,-1.3296 1.801197,-1.3296 0.721769,0 1.398799,0.57306 1.398799,1.184 0,0.28587 -0.50051,0.416 -1.599996,0.416 -0.88,0 -1.6,-0.12168 -1.6,-0.2704 z m 7.039996,1.2365 c 0,-2.11542 0.0424,-2.24455 0.79929,-2.43451 1.50431,-0.37756 1.76071,-0.0254 1.76071,2.41837 0,1.7867 0.0988,2.25004 0.48,2.25004 0.64293,0 0.68226,-4.08108 0.0477,-4.94889 -0.50444,-0.68986 -2.39709,-0.76467 -2.81154,-0.11113 -0.20167,0.31802 -0.26755,0.28646 -0.27126,-0.12994 -0.003,-0.35649 -0.17375,-0.48516 -0.4849,-0.36576 -0.37391,0.14348 -0.48,0.77781 -0.48,2.86996 0,2.17401 0.0915,2.68576 0.48,2.68576 0.38083,0 0.48,-0.46155 0.48,-2.2339 z m 9.94104,1.90264 c 0.48436,-0.25922 0.61896,-0.67676 0.61896,-1.92 V 147.84 h -1.12 c -0.616,0 -1.12,0.144 -1.12,0.32 0,0.176 0.36,0.32 0.8,0.32 0.67345,0 0.8,0.15008 0.8,0.94874 0,1.77807 -2.38806,2.14547 -3.14514,0.48387 -0.20617,-0.45249 -0.37486,-1.51363 -0.37486,-2.35807 0,-1.86852 0.71611,-2.67642 2.2947,-2.58882 1.60508,0.0891 1.7624,0.0171 1.08414,-0.4959 -1.00864,-0.76289 -2.35983,-0.57806 -3.40345,0.46557 -0.82599,0.82598 -0.93539,1.15993 -0.93539,2.85544 0,1.59879 0.13862,2.08481 0.82845,2.90462 0.8857,1.05259 2.41739,1.32505 3.67259,0.65329 z m 6.3665,-0.36908 c 0.7081,-0.76006 0.88675,-2.74396 0.33922,-3.76704 -0.48722,-0.91038 -1.9536,-1.29408 -3.10132,-0.8115 -1.08589,0.45659 -1.38544,1.00617 -1.38544,2.5419 0,2.37488 2.62948,3.66608 4.14754,2.03664 z m -3.05429,-1.07434 c -0.6115,-1.46351 -0.0743,-2.81568 1.17651,-2.9615 1.04306,-0.1216 1.62433,0.56944 1.66427,1.97857 0.0379,1.33736 -0.54777,2.11761 -1.58954,2.11761 -0.58761,0 -0.89277,-0.27673 -1.25124,-1.13468 z m 9.31351,-0.80561 c 0.47262,-1.41917 0.78203,-2.65759 0.68757,-2.75205 -0.40611,-0.4061 -0.84059,0.36213 -1.37243,2.42668 l -0.56876,2.20788 -0.81657,-2.52463 c -0.52975,-1.63784 -0.94001,-2.4426 -1.16801,-2.2911 -0.24463,0.16253 -0.10067,1.03592 0.47364,2.87351 1.10042,3.52094 1.60821,3.5319 2.76456,0.0597 z M 50.239997,147.2919 c 0,-0.46802 -0.07006,-0.48773 -0.773827,-0.21766 -0.718627,0.27576 -0.62792,0.73516 0.133827,0.67778 0.352,-0.0265 0.64,-0.23357 0.64,-0.46012 z M 20.824304,120.91903 c 0.931591,-0.40075 2.11937,-1.27847 2.843718,-2.10137 2.214464,-2.51577 2.251976,-2.80034 2.251976,-17.08378 V 89.02177 L 24.319799,88.910883 22.719601,88.8 22.7198,90.32 c 1.09e-4,0.836 -0.124666,1.52 -0.277278,1.52 -0.152612,0 -0.652398,-0.566544 -1.110635,-1.258989 -0.70012,-1.057952 -1.060293,-1.293049 -2.255584,-1.472294 -1.658173,-0.248659 -4.271969,0.243171 -6.17596,1.162109 -1.723061,0.831616 -3.4713247,2.777814 -4.5370907,5.050771 -0.7348934,1.567305 -0.8432528,2.209609 -0.8432528,4.998403 0,2.77834 0.1096784,3.43384 0.8323562,4.9746 2.0318683,4.33199 5.8263923,6.72626 9.8620753,6.22278 1.518489,-0.18945 1.963142,-0.40933 2.97275,-1.47007 0.65295,-0.68602 1.285527,-1.24731 1.405726,-1.24731 0.51047,0 -0.153131,5.15577 -0.848481,6.59217 -1.475133,3.04722 -4.891237,4.12563 -8.352325,2.63671 l -1.606543,-0.69111 -0.761271,0.93111 c -0.418699,0.51212 -0.76645,1.02738 -0.772779,1.14502 -0.02065,0.38389 2.322673,1.66797 3.812671,2.08924 1.886918,0.53349 4.734048,0.28749 6.760125,-0.58411 z m -6.482532,-13.36717 c -3.972815,-2.51949 -4.4918625,-9.832778 -0.964616,-13.591271 2.224028,-2.369837 5.99951,-2.41369 8.462843,-0.0983 l 0.88,0.827149 v 5.555412 5.55541 l -0.88,0.82334 c -2.265777,2.11988 -5.071524,2.46723 -7.498227,0.92826 z m 37.424638,3.32035 c 0.920473,-0.27335 1.673587,-0.57166 1.673587,-0.6629 0,-0.0913 -0.158781,-0.79649 -0.352848,-1.5672 -0.323267,-1.2838 -0.414576,-1.37782 -1.089021,-1.1214 -1.607785,0.61128 -4.559888,0.9732 -5.383622,0.66001 -1.671158,-0.63537 -1.814509,-1.47001 -1.814509,-10.564829 V 89.28 h -5.119999 c -3.884544,0 -5.119149,0.09652 -5.116477,0.4 0.0019,0.22 0.09278,0.94 0.201869,1.6 l 0.198345,1.2 1.638132,-0.0038 c 0.900972,-0.0022 2.394131,-0.205056 3.318131,-0.451037 1.650419,-0.439363 2.02518,-0.338345 1.328684,0.358151 -0.241446,0.241446 -0.314169,2.588278 -0.232534,7.504 0.106221,6.396306 0.18863,7.304966 0.779312,8.592686 0.766272,1.67053 1.268038,2.14504 2.921504,2.76281 1.428115,0.53357 4.559036,0.36897 7.049446,-0.3706 z m 20.869275,-0.12618 c 3.89383,-1.2119 5.901453,-3.34355 5.901453,-6.26603 0,-3.06218 -2.290522,-5.301574 -5.897142,-5.765523 -2.088131,-0.268611 -6.540342,-1.622007 -7.582768,-2.305031 -0.893021,-0.585129 -0.985558,-2.009513 -0.177232,-2.728044 1.366346,-1.214564 6.329837,-1.6044 9.229142,-0.724864 0.863971,0.262092 1.665321,0.478092 1.780777,0.48 0.115456,0.0019 0.433997,-0.654167 0.707866,-1.457936 l 0.497949,-1.461399 -1.030167,-0.430429 c -4.276892,-1.787001 -10.94917,-1.142809 -13.675586,1.320346 -2.784819,2.515917 -1.660934,6.326618 2.476864,8.398176 0.740765,0.370854 2.784221,0.980354 4.541014,1.354434 3.646505,0.77647 5.041337,1.48738 5.352758,2.72817 0.79553,3.16965 -5.236742,5.21363 -10.971865,3.71772 l -2.291248,-0.59763 -0.508752,1.06686 c -0.769363,1.61337 -0.645587,1.90827 1.035309,2.46657 3.808141,1.26486 7.006851,1.32654 10.611628,0.20461 z m 29.413565,-0.0494 c 0.80891,-0.35737 1.7921,-0.85989 2.18487,-1.11671 l 0.71413,-0.46695 -0.66637,-1.37158 -0.66637,-1.37159 -1.62358,0.80351 c -1.90612,0.94332 -5.023949,1.25021 -6.787728,0.66811 -2.585395,-0.85326 -4.557324,-3.51153 -4.872873,-6.56891 -0.412845,-4.000086 0.944838,-6.876432 3.936726,-8.340227 1.552214,-0.759424 2.018189,-0.837523 4.218451,-0.707024 1.478285,0.08768 2.909334,0.373881 3.556744,0.711328 l 1.08326,0.564617 0.95662,-0.95662 c 0.52614,-0.526141 0.85691,-1.117962 0.73503,-1.315159 -0.46361,-0.750141 -2.86341,-1.671712 -5.264489,-2.021673 -5.993517,-0.873565 -11.133872,2.248182 -12.727273,7.729292 -1.741651,5.991066 2.161325,12.912096 8.128627,14.414246 1.736982,0.43726 5.384585,0.10065 7.094225,-0.65466 z m 24.58421,-0.15956 c 3.91672,-1.91386 6.10987,-7.02274 5.28962,-12.32201 -0.88646,-5.727008 -4.45643,-9.067315 -9.68309,-9.060163 -3.05704,0.0042 -5.19545,0.895216 -7.14153,2.975738 -4.68606,5.009769 -3.62489,14.552935 2.00571,18.037575 2.73025,1.68969 6.52558,1.83659 9.52929,0.36886 z m -6.79942,-2.50298 c -2.61507,-1.13946 -4.17425,-4.63783 -3.92512,-8.806866 0.17263,-2.888788 0.98746,-4.699994 2.70321,-6.008656 1.03738,-0.791252 1.45145,-0.898538 3.46786,-0.898538 1.99942,0 2.4347,0.110502 3.43215,0.871299 1.74158,1.328365 2.59308,3.399191 2.75036,6.688781 0.2017,4.21871 -0.97548,6.85401 -3.68147,8.24152 -0.93803,0.48098 -3.55289,0.43276 -4.74699,-0.0875 z M 143.03999,105.28 V 99.2 h 1.41408 1.41408 l 4.09966,5.95834 c 2.25481,3.27708 4.2626,6.02086 4.46175,6.09729 0.19915,0.0764 1.18294,0.0952 2.1862,0.0417 l 1.82411,-0.0973 -3.9571,-5.73905 c -3.12028,-4.52541 -4.15648,-5.7996 -4.89994,-6.025356 -0.51856,-0.157466 -1.15884,-0.3601 -1.42284,-0.450295 -0.26409,-0.09023 0.404,-0.439101 1.48524,-0.775581 4.44318,-1.382729 6.79879,-4.032633 7.08012,-7.964681 0.21141,-2.954679 -0.4327,-4.672199 -2.4024,-6.405994 -2.3347,-2.055088 -4.61944,-2.596989 -10.48989,-2.488016 -4.09137,0.07595 -4.77008,0.159245 -4.63607,0.568973 0.0864,0.264 0.2024,6.996 0.2579,14.96 l 0.10091,14.48 h 1.7421 1.74209 z m -0.0533,-14.680858 c -0.0293,-3.013529 -0.0653,-5.731142 -0.08,-6.039142 -0.0236,-0.495946 0.32105,-0.55993 3.01333,-0.559389 2.75015,6.4e-4 3.18498,0.08577 4.56054,0.893805 3.82373,2.246131 3.71098,7.538397 -0.21237,9.968323 -1.31593,0.815021 -1.90864,0.961216 -4.37515,1.079139 l -2.85302,0.136407 z M 44.799997,83.2 v -1.92 h -1.92 -1.919999 v 1.92 1.92 h 1.919999 1.92 z"
         id="path3454" />
      <path
         style="fill:#fc6400;stroke-width:0.32"
         d="M 41.919997,168.29764 C 19.655999,155.44203 1.1159999,144.71263 0.71999996,144.45452 L 0,143.98524 V 96.202218 C 0,51.095386 0.03136405,48.391629 0.55999997,47.927059 1.6532452,46.966304 82.207905,0.64 82.785272,0.64 c 0.711907,0 82.007468,46.864934 82.574718,47.602339 0.31591,0.410669 0.39897,10.480333 0.3951,47.898823 -0.003,26.058358 -0.11069,47.544798 -0.24,47.747638 -0.19778,0.31026 -78.540762,45.69914 -81.579204,47.26382 -0.563261,0.29006 -1.139261,0.52546 -1.28,0.52312 -0.140739,-0.002 -18.47189,-10.52249 -40.735889,-23.3781 z M 91.519994,152.96 c 0,-1.21499 0.04983,-1.28 0.981037,-1.28 1.365504,0 2.200138,-0.52175 2.68703,-1.67972 1.001584,-2.38207 -1.51558,-5.22705 -3.165209,-3.57742 -0.457142,0.45714 -0.502858,0.45471 -0.502858,-0.0267 0,-0.29124 -0.18,-0.46975 -0.399999,-0.39668 -0.285428,0.0948 -0.425655,1.29399 -0.489562,4.18667 -0.07653,3.46427 -0.01837,4.05382 0.4,4.05382 0.357821,0 0.489561,-0.34444 0.489561,-1.28 z m 0,-3.576 c 0,-1.86038 0.370132,-2.504 1.44,-2.504 0.946314,0 1.44,0.60437 1.44,1.76284 0,1.31698 -0.572198,2.02379 -1.84,2.27285 l -1.04,0.20431 z m -45.839997,2.5947 c 0.66809,0.0131 0.72,-0.12404 0.72,-1.90228 0,-1.48975 -0.142489,-2.05891 -0.64,-2.55642 -0.679507,-0.67951 -1.009843,-0.74654 -2.16,-0.43831 -1.162128,0.31144 -0.873459,0.96771 0.362205,0.82346 0.628733,-0.0734 1.182262,0.0356 1.320995,0.26003 0.278429,0.45051 -0.373619,0.94287 -1.258003,0.94992 -0.759545,0.006 -1.785197,0.89617 -1.785197,1.5493 0,0.90502 1.036442,1.7194 1.911063,1.5016 0.444915,-0.11079 1.132937,-0.19507 1.528937,-0.1873 z m -2.3584,-1.08338 c -0.09807,-0.25557 -0.08505,-0.61557 0.02893,-0.8 0.302359,-0.48922 2.089472,-0.42022 2.089472,0.0807 0,1.04138 -1.764851,1.64066 -2.1184,0.71932 z M 53.6816,151.76 c 0.07711,-0.23415 -0.144678,-0.4 -0.534938,-0.4 -0.594745,0 -0.666665,-0.18987 -0.666665,-1.76 0,-1.54667 0.07757,-1.76 0.64,-1.76 0.352,0 0.64,-0.144 0.64,-0.32 0,-0.176 -0.288,-0.32 -0.64,-0.32 -0.474839,0 -0.64,-0.21333 -0.64,-0.82667 0,-0.98905 -0.750365,-0.8992 -0.899101,0.10766 -0.07999,0.5415 -0.326793,0.67131 -1.28,0.67325 -2.855577,0.006 -2.620899,-0.21352 -2.620899,2.44934 0,1.91682 0.09606,2.39642 0.48,2.39642 0.366288,0 0.48,-0.40178 0.48,-1.696 0,-1.96942 0.366118,-2.464 1.824,-2.464 h 1.056 v 1.856 c 0,1.0488 0.172339,2.02834 0.396262,2.25226 0.481136,0.48114 1.583607,0.36357 1.765341,-0.18826 z m 6.921712,0.19849 c 2.603196,-1.1861 1.194764,-5.63932 -1.564532,-4.94678 -2.27038,0.56983 -2.806476,3.87826 -0.793468,4.89677 0.986272,0.49902 1.355347,0.50685 2.358,0.05 z m -2.427415,-1.41138 c -0.251478,-0.55194 -0.272483,-1.09126 -0.06543,-1.68 C 58.362425,148.15066 58.607331,148 59.519996,148 c 0.912666,0 1.157572,0.15066 1.409533,0.86711 0.469078,1.33381 -0.186291,2.49289 -1.409533,2.49289 -0.73222,0 -1.06558,-0.20161 -1.344099,-0.81289 z M 38.399998,150.72 c 0,-1.22546 0.04344,-1.28 1.019376,-1.28 1.296105,0 2.500623,-1.09466 2.500623,-2.27255 0,-1.2613 -1.321497,-2.20745 -3.083155,-2.20745 h -1.396844 v 3.52 c 0,2.91556 0.08243,3.52 0.48,3.52 0.346665,0 0.48,-0.35556 0.48,-1.28 z m 0,-3.36 c 0,-1.37305 0.04281,-1.44 0.920819,-1.44 0.506448,0 1.098528,0.21413 1.315731,0.47584 0.563021,0.6784 0.144083,1.97188 -0.71305,2.20155 -1.384096,0.37088 -1.5235,0.25766 -1.5235,-1.23739 z m 25.919998,2.56 c 0,-1.86667 0.06564,-2.08 0.64,-2.08 0.352,0 0.64,-0.144 0.64,-0.32 0,-0.176 -0.288,-0.32 -0.64,-0.32 -0.475494,0 -0.64,-0.21333 -0.64,-0.82996 0,-0.56084 0.207527,-0.88423 0.64,-0.99732 0.819875,-0.2144 0.83271,-0.73272 0.01814,-0.73272 -0.690921,0 -1.618144,1.12571 -1.618144,1.96453 0,0.29818 -0.18,0.62614 -0.4,0.7288 -0.32,0.14934 -0.32,0.224 0,0.37334 0.259047,0.12089 0.4,0.91022 0.4,2.24 0,1.61185 0.103203,2.05333 0.48,2.05333 0.377437,0 0.48,-0.44444 0.48,-2.08 z m 63.390044,-1.36 c 0.68935,-2.04626 0.789,-2.64 0.44308,-2.64 -0.27507,0 -0.73861,0.92714 -1.20819,2.41653 l -0.76189,2.41653 -0.71739,-2.41653 c -0.45614,-1.53652 -0.88277,-2.41653 -1.17152,-2.41653 -0.59583,0 -0.59432,0.0114 0.40808,3.08946 0.53448,1.64121 1.05143,2.68672 1.36,2.75055 0.27378,0.0566 0.55644,-0.0462 0.62812,-0.22852 0.0717,-0.18232 0.53056,-1.51949 1.01971,-2.97149 z m -56.030044,1.21814 c 0,-1.60256 0.11192,-1.98024 0.711203,-2.4 0.914765,-0.64072 2.168797,-0.65122 2.168797,-0.0181 0,0.264 0.225702,0.48 0.501564,0.48 0.373383,0 0.444141,-0.18401 0.276871,-0.72 -0.123584,-0.396 -0.385287,-0.83322 -0.581565,-0.9716 -0.502506,-0.35428 -2.492688,-0.0137 -2.806077,0.48026 -0.189632,0.29887 -0.262333,0.25093 -0.265894,-0.17533 -0.0026,-0.32531 -0.183095,-0.52764 -0.404899,-0.45417 -0.269024,0.0891 -0.430275,1.04087 -0.492458,2.90666 -0.07745,2.32385 -0.01251,2.77418 0.4,2.77418 0.388038,0 0.492458,-0.40327 0.492458,-1.90186 z m 29.692904,1.30811 c 0.10893,-0.33057 -0.09,-0.3826 -0.83622,-0.2187 -1.164449,0.25576 -2.151585,-0.19812 -2.386756,-1.09742 -0.157831,-0.60354 -0.02312,-0.65013 1.880026,-0.65013 1.12753,0 2.05004,-0.12251 2.05004,-0.27225 0,-1.0127 -0.79794,-2.27553 -1.66468,-2.63454 -0.817943,-0.33881 -1.122858,-0.32882 -1.814602,0.0594 -1.122154,0.62985 -1.695792,1.82137 -1.505459,3.12703 0.24711,1.69517 1.018012,2.327 2.70286,2.21526 0.851461,-0.0565 1.489791,-0.27077 1.574791,-0.5287 z M 98.317636,147.76 c 0.613065,-0.92791 1.837294,-1.11748 2.384424,-0.36923 0.68072,0.93094 0.50327,1.08923 -1.221096,1.08923 -1.627354,0 -1.635642,-0.005 -1.163328,-0.72 z m 6.642354,1.6861 c 0,-2.11542 0.0424,-2.24455 0.79929,-2.43451 1.50431,-0.37756 1.76071,-0.0254 1.76071,2.41837 0,1.7867 0.0988,2.25004 0.48,2.25004 0.38387,0 0.48,-0.47918 0.48,-2.39262 0,-2.22378 -0.0587,-2.43111 -0.83229,-2.93797 -0.66916,-0.43844 -1.01112,-0.47785 -1.74455,-0.20101 -0.6485,0.24479 -0.9453,0.24516 -1.02659,0.001 -0.0629,-0.18866 -0.28584,-0.23703 -0.49545,-0.10748 -0.24612,0.15214 -0.38112,1.19236 -0.38112,2.93669 0,2.18765 0.0913,2.70111 0.48,2.70111 0.38083,0 0.48,-0.46155 0.48,-2.2339 z m 10.1688,1.73576 c 0.55349,-0.38768 0.7112,-0.81346 0.7112,-1.92 V 147.84 h -1.28 c -0.704,0 -1.28,0.144 -1.28,0.32 0,0.176 0.36,0.32 0.8,0.32 0.67345,0 0.8,0.15008 0.8,0.94874 0,0.61049 -0.22068,1.06685 -0.61896,1.28 -0.91116,0.48764 -1.24553,0.41586 -2.11558,-0.4542 -0.6168,-0.61679 -0.78546,-1.11685 -0.78546,-2.32879 0,-2.11393 0.6765,-3.02579 2.19359,-2.95679 1.7245,0.0784 1.86862,0.0177 1.18525,-0.49914 -0.8822,-0.66726 -2.49607,-0.58356 -3.30651,0.17148 -0.72019,0.67096 -1.45647,2.81833 -1.22216,3.56443 0.075,0.23885 0.22407,0.83393 0.33124,1.32241 0.29873,1.36147 1.27847,2.15186 2.66739,2.15186 0.66484,0 1.52884,-0.22417 1.92,-0.49814 z M 121.06,151.28 c 0.81938,-0.60434 1.15415,-2.16614 0.73813,-3.44359 -0.62277,-1.91232 -2.85211,-2.40349 -4.11814,-0.90731 -0.79561,0.94025 -0.75006,3.28083 0.08,4.1109 0.72848,0.72848 2.46635,0.85487 3.30001,0.24 z m -2.47715,-0.74286 c -0.59271,-0.5927 -0.67003,-2.72197 -0.11886,-3.27314 0.2112,-0.2112 0.6864,-0.384 1.056,-0.384 1.00895,0 1.44,0.62263 1.44,2.08 0,1.94631 -1.2071,2.74718 -2.37714,1.57714 z M 20.344731,121.24326 c 2.140352,-0.80081 4.045283,-2.5807 5.033562,-4.70316 0.676284,-1.45242 0.701608,-1.9146 0.796666,-14.5401 0.0833,-11.06384 0.02969,-13.04 -0.353728,-13.04 -0.248549,0 -1.120005,-0.09157 -1.93657,-0.203494 l -1.484662,-0.203498 v 1.717779 1.717779 L 21.54427,90.714282 c -0.47065,-0.700855 -1.01065,-1.389444 -1.2,-1.530196 -0.189349,-0.140752 -1.496271,-0.201334 -2.904271,-0.134627 -3.141105,0.148823 -5.105987,1.053923 -7.239469,3.334791 -2.8877048,3.08719 -3.8119425,8.21335 -2.2239202,12.33468 0.9121321,2.36722 3.4932812,5.21779 5.6224162,6.20928 2.832617,1.31909 6.308928,0.91303 7.877992,-0.92022 l 0.896971,-1.04799 0.006,2.4 c 0.007,2.79689 -0.64254,4.54358 -2.166302,5.82574 -2.019188,1.69903 -4.490026,1.90254 -7.076808,0.58286 l -1.204413,-0.61445 -1.01078,1.04286 -1.0107794,1.04287 0.7601644,0.71413 c 2.045074,1.92125 6.42453,2.50492 9.673684,1.28925 z m -5.15797,-13.36475 c -1.575395,-0.7156 -2.781173,-2.09405 -3.516895,-4.02051 -0.813315,-2.12964 -0.535126,-5.868678 0.602391,-8.096538 1.889499,-3.700633 6.125125,-4.67255 9.175871,-2.105516 l 0.951871,0.800947 v 5.875267 5.87527 l -1.04,0.77209 c -2.102071,1.56057 -4.082007,1.8489 -6.173238,0.89899 z m 36.813236,3.0703 c 1.239321,-0.45382 1.27792,-0.51224 1.214502,-1.83826 -0.03603,-0.75325 -0.182921,-1.48697 -0.326441,-1.63049 -0.143517,-0.14352 -1.050045,-0.051 -2.014503,0.2057 -3.688854,0.98165 -5.423993,0.44206 -5.87799,-1.82792 C 44.888004,105.32003 44.799997,101.37 44.799997,97.08 v -7.8 h -5.119999 -5.12 l 0.0049,1.2 c 0.0079,1.938781 0.246374,2.095146 2.916797,1.912682 1.297068,-0.08862 2.646303,-0.256772 2.998303,-0.373655 0.629204,-0.208934 0.638365,-0.09106 0.543111,6.987303 -0.06006,4.46267 0.03438,7.68734 0.248416,8.48219 0.418483,1.55414 1.711283,3.15823 3.032608,3.76284 1.219551,0.55804 5.842002,0.37632 7.695864,-0.30255 z m 21.073458,-0.17599 c 5.287955,-1.88519 7.282118,-6.44327 4.303254,-9.83601 -1.297683,-1.477978 -2.285334,-1.959639 -4.862441,-2.371335 -3.022647,-0.48287 -7.030803,-1.810249 -7.70039,-2.550137 -0.394381,-0.435783 -0.505312,-0.886237 -0.360419,-1.46353 0.538047,-2.143754 7.063778,-2.717478 11.109618,-0.97673 0.411437,0.177024 0.633408,-0.09873 1.04,-1.292012 0.284304,-0.834391 0.516918,-1.621885 0.516918,-1.749991 0,-0.483891 -3.137423,-1.309529 -5.599999,-1.473683 -4.589914,-0.305962 -8.533766,0.920858 -10.028502,3.119578 -1.019328,1.499408 -0.855222,3.926422 0.374502,5.538675 1.129021,1.480221 4.148938,2.907475 7.574,3.579565 1.496,0.29356 3.114643,0.73678 3.596985,0.98493 4.32961,2.22745 -0.473897,6.42247 -6.564963,5.73335 -1.040438,-0.11771 -2.202278,-0.32827 -2.581865,-0.4679 -2.002032,-0.73646 -2.413821,-0.70659 -2.879552,0.20884 -1.021853,2.00852 -0.98375,2.22081 0.497654,2.77269 2.455524,0.91478 3.883888,1.12849 6.811741,1.01915 1.867382,-0.0697 3.538716,-0.34239 4.753459,-0.77545 z m 29.223725,-0.0292 c 0.91145,-0.39753 1.89336,-0.98377 2.18204,-1.30274 0.48813,-0.53938 0.47733,-0.67311 -0.15437,-1.91135 -0.37358,-0.73227 -0.77949,-1.27862 -0.90204,-1.21412 -2.54087,1.33731 -3.593254,1.64519 -5.662816,1.6567 -4.328707,0.0241 -6.855388,-2.36756 -7.400412,-7.00486 -0.450378,-3.832024 1.790844,-7.543812 5.11743,-8.475198 1.892304,-0.529814 4.883918,-0.249034 6.583188,0.617866 l 1.25233,0.638892 0.83697,-0.994681 c 0.99174,-1.178618 0.93635,-1.486967 -0.43391,-2.415523 -1.45179,-0.983796 -4.23838,-1.488029 -7.130847,-1.290324 -4.377001,0.299178 -8.082825,2.974359 -9.564774,6.904666 -0.951958,2.52471 -0.776755,6.483152 0.400359,9.045472 1.408278,3.06553 3.799353,5.27143 6.763404,6.23962 1.985613,0.64859 6.062388,0.40016 8.113448,-0.49442 z m 23.05364,0.45323 c 2.2761,-0.67592 4.5411,-2.79138 5.71822,-5.34068 0.84932,-1.83937 0.93095,-2.3248 0.93095,-5.53615 0,-3.18943 -0.0851,-3.704106 -0.90591,-5.480358 -1.02782,-2.22416 -2.59254,-3.881629 -4.69409,-4.972301 -1.19674,-0.621095 -1.9265,-0.747341 -4.32,-0.747341 -2.59463,0 -3.04991,0.09411 -4.59481,0.949808 -2.12778,1.178538 -3.66421,2.939408 -4.59375,5.2648 -0.571,1.428451 -0.71403,2.425146 -0.71543,4.985392 -0.002,2.84987 0.0992,3.42028 0.92078,5.21327 1.0889,2.37636 3.63254,4.88212 5.69788,5.61302 1.78691,0.63238 4.52582,0.65349 6.55616,0.0506 z m -5.59395,-3.39207 c -4.22239,-2.09005 -5.24179,-9.91379 -1.78961,-13.734942 2.82744,-3.129639 7.68383,-2.167549 9.47278,1.876636 0.88094,1.991479 1.08701,5.577516 0.44701,7.779016 -0.64608,2.22247 -1.5527,3.38958 -3.22191,4.1477 -1.71689,0.77978 -3.23755,0.75858 -4.90827,-0.0684 z M 143.35999,105.28 V 99.2 h 1.12066 c 1.26853,0 1.43614,0.197994 6.71934,7.9376 l 2.88,4.21905 2.16,0.002 c 1.188,9.6e-4 2.16,-0.087 2.16,-0.19541 0,-0.10839 -1.76286,-2.76004 -3.91746,-5.89255 -3.59647,-5.2288 -4.02244,-5.726933 -5.19877,-6.079368 l -1.28131,-0.383888 1.75877,-0.548717 c 2.54134,-0.792864 3.54811,-1.391488 5.01304,-2.980749 1.61002,-1.746662 2.1684,-3.304544 2.15865,-6.022563 -0.0127,-3.547527 -2.01323,-6.034941 -6.05292,-7.526167 -1.30474,-0.481638 -2.52725,-0.590211 -6.62474,-0.588361 -2.76361,0.0013 -5.11352,0.09104 -5.22201,0.199533 -0.1085,0.108496 -0.0434,1.029808 0.14474,2.04736 0.20688,1.119161 0.34201,7.010934 0.34201,14.911401 V 111.36 h 1.92 1.92 z m -0.083,-15.075882 c -0.1327,-4.295942 -0.0813,-5.944396 0.19066,-6.117443 0.64673,-0.411459 3.54921,-0.266557 5.34543,0.266861 3.3313,0.989293 4.99313,3.70376 4.16051,6.795875 -0.77683,2.884922 -3.16862,4.500291 -7.05807,4.76688 l -2.45687,0.168397 z M 44.799997,83.02473 v -2.095268 l -2,0.09527 -1.999999,0.09527 -0.09527,2 -0.09527,2 h 2.095267 2.09527 z"
         id="path3452" />
      <path
         style="fill:#595e62;stroke-width:0.32"
         d="M 42.970372,165.17298 3.2207505,142.24 3.2103752,96.124189 3.1999998,50.008378 42.479997,27.343915 C 64.083996,14.87846 81.991969,4.5404426 82.275496,4.3705418 82.67587,4.1306189 91.696913,9.2001914 122.66945,27.070816 L 162.54791,50.08 l -0.074,46.040102 -0.074,46.040098 -37.92,21.90144 c -20.856,12.0458 -38.783995,22.38359 -39.839995,22.97288 l -1.92,1.07144 z M 91.519994,152.96 c 0,-1.21499 0.04983,-1.28 0.981037,-1.28 1.365504,0 2.200138,-0.52175 2.68703,-1.67972 1.001584,-2.38207 -1.51558,-5.22705 -3.165209,-3.57742 -0.457142,0.45714 -0.502858,0.45471 -0.502858,-0.0267 0,-0.29124 -0.18,-0.46975 -0.399999,-0.39668 -0.285428,0.0948 -0.425655,1.29399 -0.489562,4.18667 -0.07653,3.46427 -0.01837,4.05382 0.4,4.05382 0.357821,0 0.489561,-0.34444 0.489561,-1.28 z m 0,-3.576 c 0,-1.86038 0.370132,-2.504 1.44,-2.504 0.946314,0 1.44,0.60437 1.44,1.76284 0,1.31698 -0.572198,2.02379 -1.84,2.27285 l -1.04,0.20431 z m -6.144108,3.76457 c 0.475261,-0.24829 1.250947,-0.86029 1.72375,-1.36 2.434938,-2.57352 1.950611,-6.88609 -0.996096,-8.86948 -4.91382,-3.30742 -11.166594,1.95315 -8.701711,7.32091 1.028336,2.2394 2.827027,3.35502 5.414057,3.35803 0.932739,9.6e-4 2.084739,-0.20118 2.56,-0.44946 z m -5.16326,-0.70594 c -0.866426,-0.46956 -0.882573,-0.51915 -0.357847,-1.09897 0.537818,-0.59428 0.567479,-0.59442 1.392675,-0.007 0.463738,0.33021 1.344768,0.81876 1.95785,1.08567 l 1.114691,0.48529 -1.6,0.0133 c -0.88,0.007 -2.008317,-0.208 -2.507369,-0.47846 z m 2.288105,-1.09378 c -1.610592,-0.85068 -1.660432,-1.03444 -0.565187,-2.08375 l 0.95279,-0.91283 1.595831,1.57184 c 0.877705,0.8645 1.59583,1.68524 1.59583,1.82386 0,0.48633 -2.41209,0.21736 -3.579264,-0.39912 z m -4.210233,-0.85119 c -0.669389,-1.29446 -0.96689,-3.14651 -0.608349,-3.78719 0.257024,-0.45928 0.331526,-0.40208 0.486669,0.37362 0.100755,0.50375 0.541913,1.44452 0.980358,2.09059 0.771709,1.13717 0.778323,1.19174 0.207062,1.70872 -0.557475,0.50451 -0.616406,0.48318 -1.06574,-0.38574 z m 6.666582,-1.06062 -1.578858,-1.60296 0.950887,-0.94976 0.950886,-0.94977 0.758925,1.10933 c 0.765542,1.11901 1.3348,3.99612 0.790662,3.99612 -0.161504,0 -1.004131,-0.72133 -1.872502,-1.60296 z m -5.257024,-0.6682 c -0.951699,-1.54678 -1.437011,-3.30095 -1.086522,-3.92724 0.244128,-0.43623 0.5688,-0.23759 2.029978,1.24196 l 1.739369,1.76125 -1.006441,1.00644 -1.006442,1.00644 z m 7.128044,-1.55367 c -0.742633,-1.36754 -0.917193,-1.95808 -0.656,-2.21928 0.195741,-0.19574 0.467396,-0.35589 0.603677,-0.35589 0.525194,0 1.255107,2.00882 1.161738,3.19727 l -0.09752,1.24129 z m -5.824636,-1.73115 c -1.542765,-1.56217 -1.63376,-1.73191 -1.015171,-1.89368 1.207133,-0.31567 4.491702,1.04656 4.491702,1.86287 0,0.33835 -1.31553,1.74679 -1.631555,1.74679 -0.08267,0 -0.912909,-0.77219 -1.844976,-1.71598 z m 3.182934,-1.30454 c -0.58592,-0.43228 -1.515552,-0.88991 -2.065856,-1.01696 -0.985324,-0.2275 -0.988374,-0.23412 -0.200547,-0.43522 1.099965,-0.28079 3.154227,0.12978 3.779904,0.75546 0.461062,0.46106 0.464813,0.56967 0.03452,0.99996 -0.430291,0.43029 -0.598419,0.39735 -1.548021,-0.30324 z m -38.506401,7.79922 c 0.66809,0.0131 0.72,-0.12404 0.72,-1.90228 0,-1.48975 -0.142489,-2.05891 -0.64,-2.55642 -0.679507,-0.67951 -1.009843,-0.74654 -2.16,-0.43831 -1.162128,0.31144 -0.873459,0.96771 0.362205,0.82346 0.628733,-0.0734 1.182262,0.0356 1.320995,0.26003 0.278429,0.45051 -0.373619,0.94287 -1.258003,0.94992 -0.759545,0.006 -1.785197,0.89617 -1.785197,1.5493 0,0.90502 1.036442,1.7194 1.911063,1.5016 0.444915,-0.11079 1.132937,-0.19507 1.528937,-0.1873 z m -2.3584,-1.08338 c -0.09807,-0.25557 -0.08505,-0.61557 0.02893,-0.8 0.302359,-0.48922 2.089472,-0.42022 2.089472,0.0807 0,1.04138 -1.764851,1.64066 -2.1184,0.71932 z M 53.6816,151.76 c 0.07711,-0.23415 -0.144678,-0.4 -0.534938,-0.4 -0.594745,0 -0.666665,-0.18987 -0.666665,-1.76 0,-1.54667 0.07757,-1.76 0.64,-1.76 0.352,0 0.64,-0.144 0.64,-0.32 0,-0.176 -0.288,-0.32 -0.64,-0.32 -0.474839,0 -0.64,-0.21333 -0.64,-0.82667 0,-0.98905 -0.750365,-0.8992 -0.899101,0.10766 -0.07999,0.5415 -0.326793,0.67131 -1.28,0.67325 -2.855577,0.006 -2.620899,-0.21352 -2.620899,2.44934 0,1.91682 0.09606,2.39642 0.48,2.39642 0.366288,0 0.48,-0.40178 0.48,-1.696 0,-1.96942 0.366118,-2.464 1.824,-2.464 h 1.056 v 1.856 c 0,1.0488 0.172339,2.02834 0.396262,2.25226 0.481136,0.48114 1.583607,0.36357 1.765341,-0.18826 z m 6.921712,0.19849 c 2.603196,-1.1861 1.194764,-5.63932 -1.564532,-4.94678 -2.27038,0.56983 -2.806476,3.87826 -0.793468,4.89677 0.986272,0.49902 1.355347,0.50685 2.358,0.05 z m -2.427415,-1.41138 c -0.251478,-0.55194 -0.272483,-1.09126 -0.06543,-1.68 C 58.362425,148.15066 58.607331,148 59.519996,148 c 0.912666,0 1.157572,0.15066 1.409533,0.86711 0.469078,1.33381 -0.186291,2.49289 -1.409533,2.49289 -0.73222,0 -1.06558,-0.20161 -1.344099,-0.81289 z M 38.399998,150.72 c 0,-1.22546 0.04344,-1.28 1.019376,-1.28 1.296105,0 2.500623,-1.09466 2.500623,-2.27255 0,-1.2613 -1.321497,-2.20745 -3.083155,-2.20745 h -1.396844 v 3.52 c 0,2.91556 0.08243,3.52 0.48,3.52 0.346665,0 0.48,-0.35556 0.48,-1.28 z m 0,-3.36 c 0,-1.37305 0.04281,-1.44 0.920819,-1.44 0.506448,0 1.098528,0.21413 1.315731,0.47584 0.563021,0.6784 0.144083,1.97188 -0.71305,2.20155 -1.384096,0.37088 -1.5235,0.25766 -1.5235,-1.23739 z m 25.919998,2.56 c 0,-1.86667 0.06564,-2.08 0.64,-2.08 0.352,0 0.64,-0.144 0.64,-0.32 0,-0.176 -0.288,-0.32 -0.64,-0.32 -0.475494,0 -0.64,-0.21333 -0.64,-0.82996 0,-0.56084 0.207527,-0.88423 0.64,-0.99732 0.819875,-0.2144 0.83271,-0.73272 0.01814,-0.73272 -0.690921,0 -1.618144,1.12571 -1.618144,1.96453 0,0.29818 -0.18,0.62614 -0.4,0.7288 -0.32,0.14934 -0.32,0.224 0,0.37334 0.259047,0.12089 0.4,0.91022 0.4,2.24 0,1.61185 0.103203,2.05333 0.48,2.05333 0.377437,0 0.48,-0.44444 0.48,-2.08 z m 63.390044,-1.36 c 0.68935,-2.04626 0.789,-2.64 0.44308,-2.64 -0.27507,0 -0.73861,0.92714 -1.20819,2.41653 l -0.76189,2.41653 -0.71739,-2.41653 c -0.45614,-1.53652 -0.88277,-2.41653 -1.17152,-2.41653 -0.59583,0 -0.59432,0.0114 0.40808,3.08946 0.53448,1.64121 1.05143,2.68672 1.36,2.75055 0.27378,0.0566 0.55644,-0.0462 0.62812,-0.22852 0.0717,-0.18232 0.53056,-1.51949 1.01971,-2.97149 z m -56.030044,1.21814 c 0,-1.60256 0.11192,-1.98024 0.711203,-2.4 0.914765,-0.64072 2.168797,-0.65122 2.168797,-0.0181 0,0.264 0.225702,0.48 0.501564,0.48 0.373383,0 0.444141,-0.18401 0.276871,-0.72 -0.123584,-0.396 -0.385287,-0.83322 -0.581565,-0.9716 -0.502506,-0.35428 -2.492688,-0.0137 -2.806077,0.48026 -0.189632,0.29887 -0.262333,0.25093 -0.265894,-0.17533 -0.0026,-0.32531 -0.183095,-0.52764 -0.404899,-0.45417 -0.269024,0.0891 -0.430275,1.04087 -0.492458,2.90666 -0.07745,2.32385 -0.01251,2.77418 0.4,2.77418 0.388038,0 0.492458,-0.40327 0.492458,-1.90186 z m 29.692904,1.30811 c 0.10893,-0.33057 -0.09,-0.3826 -0.83622,-0.2187 -1.164449,0.25576 -2.151585,-0.19812 -2.386756,-1.09742 -0.157831,-0.60354 -0.02312,-0.65013 1.880026,-0.65013 1.12753,0 2.05004,-0.12251 2.05004,-0.27225 0,-1.0127 -0.79794,-2.27553 -1.66468,-2.63454 -0.817943,-0.33881 -1.122858,-0.32882 -1.814602,0.0594 -1.122154,0.62985 -1.695792,1.82137 -1.505459,3.12703 0.24711,1.69517 1.018012,2.327 2.70286,2.21526 0.851461,-0.0565 1.489791,-0.27077 1.574791,-0.5287 z M 98.317636,147.76 c 0.613065,-0.92791 1.837294,-1.11748 2.384424,-0.36923 0.68072,0.93094 0.50327,1.08923 -1.221096,1.08923 -1.627354,0 -1.635642,-0.005 -1.163328,-0.72 z m 6.642354,1.6861 c 0,-2.11542 0.0424,-2.24455 0.79929,-2.43451 1.50431,-0.37756 1.76071,-0.0254 1.76071,2.41837 0,1.7867 0.0988,2.25004 0.48,2.25004 0.38387,0 0.48,-0.47918 0.48,-2.39262 0,-2.22378 -0.0587,-2.43111 -0.83229,-2.93797 -0.66916,-0.43844 -1.01112,-0.47785 -1.74455,-0.20101 -0.6485,0.24479 -0.9453,0.24516 -1.02659,0.001 -0.0629,-0.18866 -0.28584,-0.23703 -0.49545,-0.10748 -0.24612,0.15214 -0.38112,1.19236 -0.38112,2.93669 0,2.18765 0.0913,2.70111 0.48,2.70111 0.38083,0 0.48,-0.46155 0.48,-2.2339 z m 10.1688,1.73576 c 0.55349,-0.38768 0.7112,-0.81346 0.7112,-1.92 V 147.84 h -1.28 c -0.704,0 -1.28,0.144 -1.28,0.32 0,0.176 0.36,0.32 0.8,0.32 0.67345,0 0.8,0.15008 0.8,0.94874 0,0.61049 -0.22068,1.06685 -0.61896,1.28 -0.91116,0.48764 -1.24553,0.41586 -2.11558,-0.4542 -0.6168,-0.61679 -0.78546,-1.11685 -0.78546,-2.32879 0,-2.11393 0.6765,-3.02579 2.19359,-2.95679 1.7245,0.0784 1.86862,0.0177 1.18525,-0.49914 -0.8822,-0.66726 -2.49607,-0.58356 -3.30651,0.17148 -0.72019,0.67096 -1.45647,2.81833 -1.22216,3.56443 0.075,0.23885 0.22407,0.83393 0.33124,1.32241 0.29873,1.36147 1.27847,2.15186 2.66739,2.15186 0.66484,0 1.52884,-0.22417 1.92,-0.49814 z M 121.06,151.28 c 0.81938,-0.60434 1.15415,-2.16614 0.73813,-3.44359 -0.62277,-1.91232 -2.85211,-2.40349 -4.11814,-0.90731 -0.79561,0.94025 -0.75006,3.28083 0.08,4.1109 0.72848,0.72848 2.46635,0.85487 3.30001,0.24 z m -2.47715,-0.74286 c -0.59271,-0.5927 -0.67003,-2.72197 -0.11886,-3.27314 0.2112,-0.2112 0.6864,-0.384 1.056,-0.384 1.00895,0 1.44,0.62263 1.44,2.08 0,1.94631 -1.2071,2.74718 -2.37714,1.57714 z M 20.344731,121.24326 c 2.140352,-0.80081 4.045283,-2.5807 5.033562,-4.70316 0.676284,-1.45242 0.701608,-1.9146 0.796666,-14.5401 0.0833,-11.06384 0.02969,-13.04 -0.353728,-13.04 -0.248549,0 -1.120005,-0.09157 -1.93657,-0.203494 l -1.484662,-0.203498 v 1.717779 1.717779 L 21.54427,90.714282 c -0.47065,-0.700855 -1.01065,-1.389444 -1.2,-1.530196 -0.189349,-0.140752 -1.496271,-0.201334 -2.904271,-0.134627 -3.141105,0.148823 -5.105987,1.053923 -7.239469,3.334791 -2.8877048,3.08719 -3.8119425,8.21335 -2.2239202,12.33468 0.9121321,2.36722 3.4932812,5.21779 5.6224162,6.20928 2.832617,1.31909 6.308928,0.91303 7.877992,-0.92022 l 0.896971,-1.04799 0.006,2.4 c 0.007,2.79689 -0.64254,4.54358 -2.166302,5.82574 -2.019188,1.69903 -4.490026,1.90254 -7.076808,0.58286 l -1.204413,-0.61445 -1.01078,1.04286 -1.0107794,1.04287 0.7601644,0.71413 c 2.045074,1.92125 6.42453,2.50492 9.673684,1.28925 z m -5.15797,-13.36475 c -1.575395,-0.7156 -2.781173,-2.09405 -3.516895,-4.02051 -0.813315,-2.12964 -0.535126,-5.868678 0.602391,-8.096538 1.889499,-3.700633 6.125125,-4.67255 9.175871,-2.105516 l 0.951871,0.800947 v 5.875267 5.87527 l -1.04,0.77209 c -2.102071,1.56057 -4.082007,1.8489 -6.173238,0.89899 z m 36.813236,3.0703 c 1.239321,-0.45382 1.27792,-0.51224 1.214502,-1.83826 -0.03603,-0.75325 -0.182921,-1.48697 -0.326441,-1.63049 -0.143517,-0.14352 -1.050045,-0.051 -2.014503,0.2057 -3.688854,0.98165 -5.423993,0.44206 -5.87799,-1.82792 C 44.888004,105.32003 44.799997,101.37 44.799997,97.08 v -7.8 h -5.119999 -5.12 l 0.0049,1.2 c 0.0079,1.938781 0.246374,2.095146 2.916797,1.912682 1.297068,-0.08862 2.646303,-0.256772 2.998303,-0.373655 0.629204,-0.208934 0.638365,-0.09106 0.543111,6.987303 -0.06006,4.46267 0.03438,7.68734 0.248416,8.48219 0.418483,1.55414 1.711283,3.15823 3.032608,3.76284 1.219551,0.55804 5.842002,0.37632 7.695864,-0.30255 z m 21.073458,-0.17599 c 5.287955,-1.88519 7.282118,-6.44327 4.303254,-9.83601 -1.297683,-1.477978 -2.285334,-1.959639 -4.862441,-2.371335 -3.022647,-0.48287 -7.030803,-1.810249 -7.70039,-2.550137 -0.394381,-0.435783 -0.505312,-0.886237 -0.360419,-1.46353 0.538047,-2.143754 7.063778,-2.717478 11.109618,-0.97673 0.411437,0.177024 0.633408,-0.09873 1.04,-1.292012 0.284304,-0.834391 0.516918,-1.621885 0.516918,-1.749991 0,-0.483891 -3.137423,-1.309529 -5.599999,-1.473683 -4.589914,-0.305962 -8.533766,0.920858 -10.028502,3.119578 -1.019328,1.499408 -0.855222,3.926422 0.374502,5.538675 1.129021,1.480221 4.148938,2.907475 7.574,3.579565 1.496,0.29356 3.114643,0.73678 3.596985,0.98493 4.32961,2.22745 -0.473897,6.42247 -6.564963,5.73335 -1.040438,-0.11771 -2.202278,-0.32827 -2.581865,-0.4679 -2.002032,-0.73646 -2.413821,-0.70659 -2.879552,0.20884 -1.021853,2.00852 -0.98375,2.22081 0.497654,2.77269 2.455524,0.91478 3.883888,1.12849 6.811741,1.01915 1.867382,-0.0697 3.538716,-0.34239 4.753459,-0.77545 z m 29.223725,-0.0292 c 0.91145,-0.39753 1.89336,-0.98377 2.18204,-1.30274 0.48813,-0.53938 0.47733,-0.67311 -0.15437,-1.91135 -0.37358,-0.73227 -0.77949,-1.27862 -0.90204,-1.21412 -2.54087,1.33731 -3.593254,1.64519 -5.662816,1.6567 -4.328707,0.0241 -6.855388,-2.36756 -7.400412,-7.00486 -0.450378,-3.832024 1.790844,-7.543812 5.11743,-8.475198 1.892304,-0.529814 4.883918,-0.249034 6.583188,0.617866 l 1.25233,0.638892 0.83697,-0.994681 c 0.99174,-1.178618 0.93635,-1.486967 -0.43391,-2.415523 -1.45179,-0.983796 -4.23838,-1.488029 -7.130847,-1.290324 -4.377001,0.299178 -8.082825,2.974359 -9.564774,6.904666 -0.951958,2.52471 -0.776755,6.483152 0.400359,9.045472 1.408278,3.06553 3.799353,5.27143 6.763404,6.23962 1.985613,0.64859 6.062388,0.40016 8.113448,-0.49442 z m 23.05364,0.45323 c 2.2761,-0.67592 4.5411,-2.79138 5.71822,-5.34068 0.84932,-1.83937 0.93095,-2.3248 0.93095,-5.53615 0,-3.18943 -0.0851,-3.704106 -0.90591,-5.480358 -1.02782,-2.22416 -2.59254,-3.881629 -4.69409,-4.972301 -1.19674,-0.621095 -1.9265,-0.747341 -4.32,-0.747341 -2.59463,0 -3.04991,0.09411 -4.59481,0.949808 -2.12778,1.178538 -3.66421,2.939408 -4.59375,5.2648 -0.571,1.428451 -0.71403,2.425146 -0.71543,4.985392 -0.002,2.84987 0.0992,3.42028 0.92078,5.21327 1.0889,2.37636 3.63254,4.88212 5.69788,5.61302 1.78691,0.63238 4.52582,0.65349 6.55616,0.0506 z m -5.59395,-3.39207 c -4.22239,-2.09005 -5.24179,-9.91379 -1.78961,-13.734942 2.82744,-3.129639 7.68383,-2.167549 9.47278,1.876636 0.88094,1.991479 1.08701,5.577516 0.44701,7.779016 -0.64608,2.22247 -1.5527,3.38958 -3.22191,4.1477 -1.71689,0.77978 -3.23755,0.75858 -4.90827,-0.0684 z M 143.35999,105.28 V 99.2 h 1.12066 c 1.26853,0 1.43614,0.197994 6.71934,7.9376 l 2.88,4.21905 2.16,0.002 c 1.188,9.6e-4 2.16,-0.087 2.16,-0.19541 0,-0.10839 -1.76286,-2.76004 -3.91746,-5.89255 -3.59647,-5.2288 -4.02244,-5.726933 -5.19877,-6.079368 l -1.28131,-0.383888 1.75877,-0.548717 c 2.54134,-0.792864 3.54811,-1.391488 5.01304,-2.980749 1.61002,-1.746662 2.1684,-3.304544 2.15865,-6.022563 -0.0127,-3.547527 -2.01323,-6.034941 -6.05292,-7.526167 -1.30474,-0.481638 -2.52725,-0.590211 -6.62474,-0.588361 -2.76361,0.0013 -5.11352,0.09104 -5.22201,0.199533 -0.1085,0.108496 -0.0434,1.029808 0.14474,2.04736 0.20688,1.119161 0.34201,7.010934 0.34201,14.911401 V 111.36 h 1.92 1.92 z m -0.083,-15.075882 c -0.1327,-4.295942 -0.0813,-5.944396 0.19066,-6.117443 0.64673,-0.411459 3.54921,-0.266557 5.34543,0.266861 3.3313,0.989293 4.99313,3.70376 4.16051,6.795875 -0.77683,2.884922 -3.16862,4.500291 -7.05807,4.76688 l -2.45687,0.168397 z M 44.799997,83.02473 v -2.095268 l -2,0.09527 -1.999999,0.09527 -0.09527,2 -0.09527,2 h 2.095267 2.09527 z"
         id="path3450" />
      <path
         style="fill:#954e1f;stroke-width:0.32"
         d="M 42.970372,165.17298 3.2207505,142.24 3.2103752,96.124189 3.1999998,50.008378 42.479997,27.343915 C 64.083996,14.87846 81.991969,4.5404426 82.275496,4.3705418 82.67587,4.1306189 91.696913,9.2001914 122.66945,27.070816 L 162.54791,50.08 l -0.074,46.040102 -0.074,46.040098 -37.92,21.90144 c -20.856,12.0458 -38.783995,22.38359 -39.839995,22.97288 l -1.92,1.07144 z M 91.519994,152.96 c 0,-1.24558 0.02963,-1.28 1.102157,-1.28 1.693696,0 2.883299,-1.18824 2.883299,-2.88 0,-1.07751 -0.178665,-1.50161 -0.890573,-2.11396 -1.032329,-0.88798 -1.881059,-0.97415 -2.592025,-0.26318 -0.457142,0.45714 -0.502858,0.45714 -0.502858,0 0,-0.27658 -0.216,-0.50286 -0.479999,-0.50286 -0.402052,0 -0.48,0.67556 -0.48,4.16 0,3.48444 0.07795,4.16 0.48,4.16 0.346665,0 0.479999,-0.35556 0.479999,-1.28 z m 0,-3.82874 c 0,-1.55072 0.484224,-2.25126 1.556106,-2.25126 0.621261,0 1.323894,1.01901 1.323894,1.92 0,1.17345 -0.755443,1.92 -1.942857,1.92 -0.910352,0 -0.937143,-0.0454 -0.937143,-1.58874 z m -6.144108,4.01731 c 0.475261,-0.24829 1.250947,-0.86029 1.72375,-1.36 2.434938,-2.57352 1.950611,-6.88609 -0.996096,-8.86948 -4.91382,-3.30742 -11.166594,1.95315 -8.701711,7.32091 1.028336,2.2394 2.827027,3.35502 5.414057,3.35803 0.932739,9.6e-4 2.084739,-0.20118 2.56,-0.44946 z m -5.16326,-0.70594 c -0.866426,-0.46956 -0.882573,-0.51915 -0.357847,-1.09897 0.537818,-0.59428 0.567479,-0.59442 1.392675,-0.007 0.463738,0.33021 1.344768,0.81876 1.95785,1.08567 l 1.114691,0.48529 -1.6,0.0133 c -0.88,0.007 -2.008317,-0.208 -2.507369,-0.47846 z m 2.288105,-1.09378 c -1.610592,-0.85068 -1.660432,-1.03444 -0.565187,-2.08375 l 0.95279,-0.91283 1.595831,1.57184 c 0.877705,0.8645 1.59583,1.68524 1.59583,1.82386 0,0.48633 -2.41209,0.21736 -3.579264,-0.39912 z m -4.210233,-0.85119 c -0.669389,-1.29446 -0.96689,-3.14651 -0.608349,-3.78719 0.257024,-0.45928 0.331526,-0.40208 0.486669,0.37362 0.100755,0.50375 0.541913,1.44452 0.980358,2.09059 0.771709,1.13717 0.778323,1.19174 0.207062,1.70872 -0.557475,0.50451 -0.616406,0.48318 -1.06574,-0.38574 z m 6.666582,-1.06062 -1.578858,-1.60296 0.950887,-0.94976 0.950886,-0.94977 0.758925,1.10933 c 0.765542,1.11901 1.3348,3.99612 0.790662,3.99612 -0.161504,0 -1.004131,-0.72133 -1.872502,-1.60296 z m -5.257024,-0.6682 c -0.951699,-1.54678 -1.437011,-3.30095 -1.086522,-3.92724 0.244128,-0.43623 0.5688,-0.23759 2.029978,1.24196 l 1.739369,1.76125 -1.006441,1.00644 -1.006442,1.00644 z m 7.128044,-1.55367 c -0.742633,-1.36754 -0.917193,-1.95808 -0.656,-2.21928 0.195741,-0.19574 0.467396,-0.35589 0.603677,-0.35589 0.525194,0 1.255107,2.00882 1.161738,3.19727 l -0.09752,1.24129 z m -5.824636,-1.73115 c -1.542765,-1.56217 -1.63376,-1.73191 -1.015171,-1.89368 1.207133,-0.31567 4.491702,1.04656 4.491702,1.86287 0,0.33835 -1.31553,1.74679 -1.631555,1.74679 -0.08267,0 -0.912909,-0.77219 -1.844976,-1.71598 z m 3.182934,-1.30454 c -0.58592,-0.43228 -1.515552,-0.88991 -2.065856,-1.01696 -0.985324,-0.2275 -0.988374,-0.23412 -0.200547,-0.43522 1.099965,-0.28079 3.154227,0.12978 3.779904,0.75546 0.461062,0.46106 0.464813,0.56967 0.03452,0.99996 -0.430291,0.43029 -0.598419,0.39735 -1.548021,-0.30324 z m -38.506401,7.79922 c 0.672371,0.0132 0.72,-0.11995 0.72,-2.01269 0,-2.59105 -0.65055,-3.35771 -2.461648,-2.90099 -1.685894,0.42514 -1.824304,1.17385 -0.168041,0.90901 0.847779,-0.13557 1.349404,-0.0734 1.510496,0.18728 0.291123,0.47104 -0.37658,0.94703 -1.337949,0.95379 -0.38343,0.003 -0.92343,0.23118 -1.2,0.50776 -1.11465,1.11465 -0.129613,2.92272 1.387648,2.54707 0.456224,-0.11295 1.153494,-0.199 1.549494,-0.19123 z m -2.376672,-1.13099 c -0.108121,-0.28177 0.0044,-0.63956 0.250042,-0.79511 0.674864,-0.42732 1.88663,-0.34806 1.88663,0.1234 0,1.07553 -1.768384,1.63145 -2.136672,0.67171 z M 53.6816,151.76 c 0.07711,-0.23415 -0.144678,-0.4 -0.534938,-0.4 -0.594745,0 -0.666665,-0.18987 -0.666665,-1.76 0,-1.54667 0.07757,-1.76 0.64,-1.76 0.352,0 0.64,-0.144 0.64,-0.32 0,-0.176 -0.288,-0.32 -0.64,-0.32 -0.474839,0 -0.64,-0.21333 -0.64,-0.82667 0,-1.00806 -0.751981,-0.89004 -0.903578,0.14181 -0.09005,0.61295 -0.241964,0.67905 -1.163353,0.5062 -0.587274,-0.11018 -1.147594,-0.0567 -1.256743,0.11988 -0.108329,0.17528 -0.484819,0.24342 -0.836646,0.15142 -0.598224,-0.15644 -0.63968,-0.009 -0.63968,2.27004 0,1.95317 0.09535,2.43732 0.48,2.43732 0.356579,0 0.48,-0.37567 0.48,-1.46104 0,-2.05588 0.422035,-2.69896 1.771258,-2.69896 h 1.108742 v 1.856 c 0,1.0488 0.172339,2.02834 0.396262,2.25226 0.481136,0.48114 1.583607,0.36357 1.765341,-0.18826 z m 7.68078,-0.18524 c 0.24569,-0.24569 0.525152,-1.03157 0.621034,-1.74641 0.149049,-1.11126 0.04929,-1.42473 -0.688054,-2.16208 -1.640647,-1.64064 -4.335363,-0.40763 -4.335363,1.98373 0,1.64168 1.27518,2.80645 2.801347,2.55879 0.634883,-0.10303 1.355347,-0.38834 1.601036,-0.63403 z m -3.186483,-1.02765 c -0.251478,-0.55194 -0.272483,-1.09126 -0.06543,-1.68 C 58.361033,148.15461 58.608988,148 59.501036,148 c 0.908916,0 1.135072,0.14834 1.389396,0.91131 0.457545,1.37263 -0.144685,2.44869 -1.370436,2.44869 -0.73222,0 -1.06558,-0.20161 -1.344099,-0.81289 z M 38.399998,150.72 c 0,-1.24952 0.02666,-1.28 1.12,-1.28 1.372928,0 2.399999,-0.93243 2.399999,-2.17884 0,-1.51056 -0.662838,-2.06386 -2.672044,-2.23048 l -1.807955,-0.14993 v 3.55962 c 0,2.95078 0.0821,3.55963 0.48,3.55963 0.346665,0 0.48,-0.35556 0.48,-1.28 z m 0,-3.32531 c 0,-1.4018 0.04428,-1.47469 0.896,-1.47469 1.012684,0 1.664,0.51073 1.664,1.30482 0,0.67323 -0.551856,1.14055 -1.681789,1.42414 -0.862458,0.21647 -0.878211,0.19396 -0.878211,-1.25427 z M 64.319996,149.92 c 0,-1.86667 0.06564,-2.08 0.64,-2.08 0.352,0 0.64,-0.144 0.64,-0.32 0,-0.176 -0.298016,-0.32 -0.662256,-0.32 -0.910278,0 -0.711853,-1.32852 0.262256,-1.75588 1.002067,-0.43963 0.898387,-0.80412 -0.228742,-0.80412 -1.008493,0 -1.611258,0.71039 -1.611258,1.89896 0,0.37426 -0.20824,0.66104 -0.48,0.66104 -0.264,0 -0.48,0.144 -0.48,0.32 0,0.176 0.216,0.32 0.48,0.32 0.377437,0 0.48,0.44444 0.48,2.08 0,1.63556 0.102563,2.08 0.48,2.08 0.377437,0 0.48,-0.44444 0.48,-2.08 z m 36.916114,1.43192 c 0.53953,-0.50052 -0.10978,-0.97783 -0.81601,-0.59986 -0.887383,0.47491 -2.180106,-0.10928 -2.180106,-0.9852 0,-0.57727 0.206547,-0.64686 1.919996,-0.64686 1.84381,0 1.92,-0.0323 1.92,-0.81454 0,-1.05942 -1.33972,-2.38546 -2.410066,-2.38546 -1.250679,0 -2.70993,1.6005 -2.70993,2.97223 0,1.2846 0.9764,2.68557 2.006378,2.87883 0.812774,0.1525 1.862498,-0.0413 2.269738,-0.41914 z M 98.317636,147.76 c 0.595136,-0.90077 1.601993,-1.07465 2.282474,-0.39417 0.85924,0.85925 0.60318,1.11417 -1.119146,1.11417 -1.627354,0 -1.635642,-0.005 -1.163328,-0.72 z m 16.962354,3.34742 c 0.37275,-0.3239 0.56,-0.95153 0.56,-1.87702 V 147.84 h -1.44 c -1.64303,0 -1.92379,0.46324 -0.45839,0.75632 0.84628,0.16926 0.96761,0.31816 0.88,1.08 -0.0919,0.79947 -0.22269,0.88368 -1.37216,0.88368 -1.03399,0 -1.3459,-0.14895 -1.67528,-0.8 -0.51977,-1.02738 -0.51813,-2.8178 0.004,-3.84 0.33584,-0.65811 0.64243,-0.8 1.72856,-0.8 1.47333,0 2.07898,-0.36064 1.36448,-0.8125 -0.7322,-0.46306 -2.65354,-0.35988 -3.43035,0.18422 -1.44419,1.01155 -1.64893,4.72832 -0.35133,6.37795 0.92822,1.18005 2.97306,1.29605 4.19095,0.23775 z m 6.22085,-0.13466 c 0.37752,-0.41715 0.57915,-1.13924 0.57915,-2.07406 0,-2.52198 -2.36782,-3.80978 -4.15296,-2.2587 -1.1299,0.98176 -1.3495,2.65351 -0.52215,3.97515 0.90954,1.45294 2.94395,1.63057 4.09596,0.35761 z m -2.89125,-0.51796 c -1.02419,-1.13171 -0.402,-3.5748 0.9104,-3.5748 0.76562,0 1.44,0.97411 1.44,2.08 0,1.80029 -1.31632,2.63745 -2.3504,1.4948 z m 8.93105,-1.0948 c 0.48027,-1.452 0.94511,-2.8346 1.03297,-3.07245 0.10411,-0.28181 -0.0388,-0.39328 -0.41016,-0.32 -0.38593,0.0762 -0.79478,0.80697 -1.26646,2.26388 l -0.69655,2.15142 -0.71867,-2.23142 c -0.45037,-1.39832 -0.891,-2.23143 -1.18023,-2.23143 -0.60078,0 -0.59619,0.0434 0.31887,3.00898 0.6984,2.2635 1.1692,3.0509 1.8333,3.06612 0.11755,0.003 0.60667,-1.1831 1.08693,-2.6351 z m -55.860644,0.41814 c 0,-1.60256 0.11192,-1.98024 0.711203,-2.4 0.900531,-0.63075 1.814893,-0.63883 2.053075,-0.0181 0.209481,0.5459 1.075721,0.6578 1.075721,0.13896 0,-0.18757 -0.149065,-0.61957 -0.331257,-0.96 -0.368979,-0.68944 -1.861482,-0.83803 -2.889779,-0.2877 -0.426666,0.22834 -0.618963,0.22834 -0.618963,0 0,-0.18219 -0.216,-0.33126 -0.48,-0.33126 -0.391111,0 -0.48,0.53333 -0.48,2.88 0,2.34667 0.08889,2.88 0.48,2.88 0.372825,0 0.48,-0.42465 0.48,-1.90186 z m 33.279994,-0.16688 c 0,-1.75402 0.0992,-2.12184 0.65209,-2.41773 0.35865,-0.19194 0.93465,-0.2593 1.28,-0.14969 0.54434,0.17276 0.62791,0.49457 0.62791,2.41772 0,1.75861 0.0995,2.21844 0.48,2.21844 0.70692,0 0.68715,-4.54714 -0.0228,-5.25714 -0.5951,-0.59509 -2.08946,-0.66255 -2.63315,-0.11886 -0.29866,0.29867 -0.384,0.29867 -0.384,0 0,-0.2112 -0.216,-0.384 -0.48,-0.384 -0.39111,0 -0.48,0.53333 -0.48,2.88 0,2.34667 0.0889,2.88 0.48,2.88 0.37717,0 0.48,-0.44319 0.48,-2.06874 z m -85.903991,-27.6526 c 0.1672,-0.15474 0.831862,-0.4499 1.477027,-0.65592 1.737139,-0.5547 3.903071,-2.62476 4.78238,-4.57068 0.760146,-1.68222 0.765135,-1.76764 0.857951,-14.68939 l 0.09336,-12.997326 -1.013358,-0.202672 C 24.69601,88.731203 23.833888,88.64 23.337532,88.64 c -0.847874,0 -0.908367,0.09083 -1,1.501478 l -0.09753,1.501479 -0.908962,-1.378381 -0.908961,-1.378381 -2.931038,0.130458 c -2.490858,0.110867 -3.188568,0.271065 -4.645855,1.06671 -2.751823,1.502432 -4.4129992,3.701203 -5.3644132,7.100464 -0.8782576,3.137883 -0.8744444,3.718713 0.041844,6.373443 1.0456505,3.02952 2.2577567,4.86246 4.1923302,6.33962 2.00837,1.5335 3.294143,1.88979 6.156829,1.70608 2.332358,-0.14968 2.464024,-0.20167 3.476202,-1.37259 l 1.052024,-1.21701 -0.0031,2.21331 c -0.0082,5.77868 -4.291174,8.8694 -9.079021,6.55164 l -1.473077,-0.7131 -0.882388,1.04866 c -0.485303,0.57676 -0.882378,1.20109 -0.882378,1.38739 0,0.1863 1.008,0.8674 2.24,1.51355 1.887136,0.98974 2.570181,1.17878 4.336,1.2 1.1528,0.0138 2.2328,-0.10142 2.4,-0.25616 z M 15.74765,108.11382 c -1.48578,-0.42147 -3.400687,-2.46168 -4.022023,-4.2852 -1.14497,-3.3603 -0.36995,-7.428508 1.835291,-9.63375 2.290648,-2.290646 4.855584,-2.488844 7.639081,-0.590288 l 1.2,0.81849 v 5.688598 5.68859 l -0.88,0.82077 c -0.484,0.45142 -1.168,0.96262 -1.52,1.136 -1.025162,0.50493 -3.112655,0.68008 -4.252349,0.35679 z m 35.634267,3.08739 c 2.366419,-0.71796 2.400259,-0.75886 1.994157,-2.41021 -0.193552,-0.78705 -0.395533,-1.48418 -0.448845,-1.54918 -0.05331,-0.065 -1.091763,0.12561 -2.30767,0.42358 -2.918493,0.71522 -4.136317,0.5765 -4.987923,-0.56816 -0.636484,-0.85551 -0.67704,-1.35383 -0.774861,-9.520002 L 44.753553,88.96 h -5.294099 -5.294099 l 0.19295,0.72 c 0.106125,0.396 0.194922,1.202326 0.197325,1.79184 l 0.0044,1.07184 2.8,-0.135587 c 1.54,-0.07457 3.068752,-0.254733 3.397225,-0.400362 0.542109,-0.240336 0.560243,-0.19567 0.196509,0.483975 -0.528598,0.987696 -0.243171,13.700764 0.344592,15.348294 0.59295,1.66207 1.434093,2.7275 2.611491,3.30781 1.355229,0.66797 5.352345,0.69653 7.472102,0.0534 z m 21.010661,-0.15748 c 4.103913,-1.26757 6.322652,-3.55449 6.325779,-6.52016 0.0035,-3.32753 -2.102464,-5.354812 -6.329155,-6.092693 -3.361382,-0.586823 -6.692803,-1.694474 -7.487984,-2.489655 -2.490921,-2.490921 4.969514,-4.464092 9.752054,-2.579267 0.667303,0.262989 1.30992,0.381514 1.428042,0.263392 0.118125,-0.118121 0.462864,-0.868352 0.766093,-1.667177 l 0.551324,-1.45241 -1.499366,-0.69288 c -1.296579,-0.599168 -2.062016,-0.692214 -5.659369,-0.687962 -3.677274,0.0044 -4.355216,0.09259 -5.842329,0.76041 -0.92528,0.41552 -2.11328,1.246317 -2.64,1.846214 -0.806739,0.918826 -0.957671,1.358893 -0.957671,2.792269 0,3.329271 2.478055,5.476299 7.602569,6.586979 4.129399,0.89501 5.963581,1.79393 6.100682,2.98989 0.326105,2.84472 -4.355997,4.60757 -9.445478,3.55631 -1.366797,-0.28232 -2.732682,-0.64582 -3.035296,-0.80777 -0.455069,-0.24355 -0.663664,-0.038 -1.206342,1.18883 -0.360874,0.81582 -0.656135,1.59709 -0.656135,1.73616 0,0.28025 2.259856,1.20088 3.902755,1.58992 2.105853,0.49867 6.186125,0.34172 8.329827,-0.3204 z m 28.867612,0.17824 c 0.83706,-0.25192 2.08177,-0.82852 2.76604,-1.28135 l 1.24413,-0.82333 -0.69895,-1.43864 c -0.38442,-0.79126 -0.81999,-1.43865 -0.96793,-1.43865 -0.14794,0 -0.84175,0.2922 -1.54179,0.64934 -5.854883,2.98694 -11.555801,-0.32275 -11.614588,-6.7429 -0.03693,-4.033112 2.21942,-7.045438 5.774847,-7.709662 1.744746,-0.325956 4.971831,0.147372 6.138701,0.90038 0.72525,0.468026 0.8146,0.436279 1.92,-0.68223 l 1.15934,-1.173098 -0.96,-0.786064 c -1.40221,-1.148156 -3.73824,-1.736812 -6.858076,-1.728169 -5.749244,0.01594 -9.791804,3.072816 -11.10271,8.395609 -1.304102,5.295184 1.437303,11.040914 6.384506,13.381344 1.643398,0.77746 2.385449,0.93499 4.405427,0.9352 1.336028,1.3e-4 3.114003,-0.20586 3.951053,-0.45778 z m 25.0125,-0.30846 c 0.89798,-0.41813 2.17673,-1.30427 2.84166,-1.9692 4.16275,-4.16275 4.17948,-12.9712 0.0326,-17.186995 -1.80076,-1.830704 -3.48787,-2.560691 -6.30751,-2.729158 -3.48825,-0.208416 -5.35204,0.473206 -7.69192,2.813085 -2.41195,2.411952 -3.29201,5.039555 -3.08854,9.221438 0.22643,4.65352 2.12053,7.81763 5.77209,9.64233 2.59036,1.29443 5.93218,1.37696 8.44159,0.2085 z m -5.74304,-2.89288 c -2.38334,-0.86411 -3.80202,-2.87948 -4.32354,-6.14198 -0.45655,-2.856064 0.0683,-5.519754 1.45775,-7.398986 1.04209,-1.409382 2.48178,-2.091091 4.41613,-2.091091 3.86346,0 6.01836,2.877792 6.05887,8.091427 0.0183,2.35602 -0.0987,2.96401 -0.8743,4.54344 -1.37568,2.8014 -4.02413,3.98003 -6.73491,2.99719 z M 143.35999,105.28 V 99.2 h 0.96 c 0.528,0 1.21284,0.252838 1.52186,0.561862 0.30903,0.309028 2.26822,3.045028 4.35376,6.079998 l 3.79188,5.51814 h 2.38215 c 1.8804,0 2.32825,-0.0883 2.12625,-0.41904 -0.14074,-0.23048 -1.9572,-2.88363 -4.03656,-5.8959 -2.99371,-4.33683 -3.99285,-5.553342 -4.8,-5.844295 l -1.01934,-0.367437 1.96884,-0.725098 c 3.75241,-1.381961 6.05096,-4.141776 6.41893,-7.707068 0.46964,-4.550365 -2.37452,-7.956861 -7.61645,-9.122343 -1.86421,-0.414486 -9.97567,-0.341133 -10.41095,0.09415 -0.12671,0.126704 -0.0616,1.146224 0.14463,2.265596 0.24663,1.338551 0.375,6.431533 0.375,14.87833 V 111.36 h 1.92 1.92 z m -0.003,-13.473043 c -0.002,-2.357827 -0.0913,-5.023936 -0.19957,-5.924688 l -0.19678,-1.637735 1.39956,-0.20952 c 1.67102,-0.250153 4.46504,0.230756 6.02969,1.037834 0.62143,0.320554 1.46634,1.074298 1.87756,1.674989 0.63832,0.932409 0.73078,1.401577 0.63207,3.207475 -0.0924,1.690102 -0.2876,2.34079 -0.97117,3.236998 -1.16824,1.531636 -3.27941,2.454503 -6.17491,2.699261 l -2.39357,0.202339 z M 44.959997,83.2 v -2.08 l -2.16,-0.09462 -2.159999,-0.09462 v 2.041287 c 0,1.12271 0.102089,2.143379 0.226867,2.268157 0.124777,0.124774 1.096777,0.184774 2.16,0.133331 L 44.959997,85.28 Z"
         id="path3448" />
      <path
         style="fill:#66442e;stroke-width:0.32"
         d="M 42.879997,164.98498 3.3599998,142.15188 3.2863089,96.115936 3.212618,50.08 42.902724,27.2 C 64.732284,14.616 82.765445,4.365616 82.976414,4.4213693 83.187384,4.4771222 101.10848,14.765988 122.80107,27.285516 l 39.44107,22.762778 -0.0811,46.090804 -0.0811,46.090802 -39.50185,22.80505 c -21.72602,12.54278 -39.654023,22.80012 -39.840001,22.79409 -0.185981,-0.006 -18.122143,-10.28586 -39.858142,-22.84406 z M 91.519994,152.96 c 0,-1.24558 0.02963,-1.28 1.102157,-1.28 1.693696,0 2.883299,-1.18824 2.883299,-2.88 0,-1.07751 -0.178665,-1.50161 -0.890573,-2.11396 -1.032329,-0.88798 -1.881059,-0.97415 -2.592025,-0.26318 -0.457142,0.45714 -0.502858,0.45714 -0.502858,0 0,-0.27658 -0.216,-0.50286 -0.479999,-0.50286 -0.402052,0 -0.48,0.67556 -0.48,4.16 0,3.48444 0.07795,4.16 0.48,4.16 0.346665,0 0.479999,-0.35556 0.479999,-1.28 z m 0,-3.82874 c 0,-1.55072 0.484224,-2.25126 1.556106,-2.25126 0.621261,0 1.323894,1.01901 1.323894,1.92 0,1.17345 -0.755443,1.92 -1.942857,1.92 -0.910352,0 -0.937143,-0.0454 -0.937143,-1.58874 z m -5.64862,3.72488 c 1.703322,-0.95343 2.768621,-2.86846 2.768621,-4.977 0,-5.24867 -5.857594,-8.01935 -9.673837,-4.5758 -1.503519,1.3567 -2.169116,2.72738 -2.159135,4.44638 0.01418,2.44272 2.037065,5.2657 4.097635,5.71836 0.470435,0.10335 0.999337,0.24053 1.175337,0.30485 0.632381,0.23112 2.583485,-0.24067 3.791379,-0.91679 z m -5.480713,-0.42792 c -0.998691,-0.49224 -1.02321,-0.54606 -0.508058,-1.1153 0.476256,-0.52626 0.602992,-0.54224 1.055088,-0.13311 0.282595,0.25575 1.159222,0.75775 1.948058,1.11557 l 1.434246,0.65057 -1.44,-2.6e-4 c -0.792,-1.5e-4 -1.912201,-0.23301 -2.489334,-0.51747 z m 2.649334,-0.88698 c -0.528,-0.23855 -1.218506,-0.63174 -1.534458,-0.87376 -0.540652,-0.41414 -0.51687,-0.49521 0.40417,-1.37762 l 0.978627,-0.93759 1.581456,1.55768 c 0.869802,0.85672 1.507427,1.67746 1.416947,1.82386 -0.247213,0.4 -1.761913,0.29753 -2.846742,-0.19257 z m -4.736989,-1.18427 c -0.664623,-1.04771 -0.967497,-2.70709 -0.610534,-3.34495 0.251376,-0.44918 0.333306,-0.3916 0.524019,0.36826 0.124333,0.49537 0.523043,1.31776 0.886029,1.82752 0.592416,0.83198 0.60985,0.97697 0.170323,1.41649 -0.439529,0.43953 -0.538797,0.41217 -0.969837,-0.26732 z m 6.64047,-0.93374 -1.564143,-1.58802 0.837056,-0.83706 c 0.97711,-0.97711 1.324563,-0.84201 2.188179,0.85081 0.657894,1.28958 0.832992,2.71117 0.369241,2.99778 -0.146403,0.0905 -0.970051,-0.5501 -1.830333,-1.42351 z m -5.397826,-0.98597 c -0.758276,-1.28366 -1.139319,-2.96974 -0.796503,-3.52443 0.201853,-0.3266 0.660163,-0.045 1.876269,1.15281 l 1.609177,1.58498 -0.857168,0.89469 c -0.471443,0.49208 -0.94318,0.89469 -1.048303,0.89469 -0.105127,0 -0.457687,-0.45123 -0.783472,-1.00274 z m 7.900306,-0.21141 c -0.210393,-0.57979 -0.67408,-1.46359 -1.030409,-1.96401 -0.588883,-0.82701 -0.601363,-0.94845 -0.137085,-1.33377 0.432096,-0.3586 0.578774,-0.33093 0.95209,0.1796 0.527753,0.72175 0.868579,2.35555 0.711439,3.41041 -0.104905,0.70423 -0.142463,0.6821 -0.496035,-0.29223 z m -6.260652,-2.55954 c -0.82792,-0.84056 -1.505309,-1.63135 -1.505309,-1.7573 0,-0.38314 1.876198,-0.25591 2.970278,0.20142 1.740186,0.72741 1.956861,1.24802 0.929181,2.23261 l -0.888838,0.85156 z m 2.05815,-2.01415 -1.716541,-0.93216 h 1.332432 c 0.732839,0 1.767472,0.22497 2.299184,0.49993 0.787754,0.40736 0.896058,0.58511 0.584928,0.96 -0.481152,0.57975 -0.447472,0.58686 -2.500003,-0.52777 z m -37.563457,8.32654 c 0.672371,0.0132 0.72,-0.11995 0.72,-2.01269 0,-2.59105 -0.65055,-3.35771 -2.461648,-2.90099 -1.685894,0.42514 -1.824304,1.17385 -0.168041,0.90901 0.847779,-0.13557 1.349404,-0.0734 1.510496,0.18728 0.291123,0.47104 -0.37658,0.94703 -1.337949,0.95379 -0.38343,0.003 -0.92343,0.23118 -1.2,0.50776 -1.11465,1.11465 -0.129613,2.92272 1.387648,2.54707 0.456224,-0.11295 1.153494,-0.199 1.549494,-0.19123 z m -2.376672,-1.13099 c -0.108121,-0.28177 0.0044,-0.63956 0.250042,-0.79511 0.674864,-0.42732 1.88663,-0.34806 1.88663,0.1234 0,1.07553 -1.768384,1.63145 -2.136672,0.67171 z M 53.6816,151.76 c 0.07711,-0.23415 -0.144678,-0.4 -0.534938,-0.4 -0.594745,0 -0.666665,-0.18987 -0.666665,-1.76 0,-1.54667 0.07757,-1.76 0.64,-1.76 0.352,0 0.64,-0.144 0.64,-0.32 0,-0.176 -0.288,-0.32 -0.64,-0.32 -0.474839,0 -0.64,-0.21333 -0.64,-0.82667 0,-1.00806 -0.751981,-0.89004 -0.903578,0.14181 -0.09005,0.61295 -0.241964,0.67905 -1.163353,0.5062 -0.587274,-0.11018 -1.147594,-0.0567 -1.256743,0.11988 -0.108329,0.17528 -0.484819,0.24342 -0.836646,0.15142 -0.598224,-0.15644 -0.63968,-0.009 -0.63968,2.27004 0,1.95317 0.09535,2.43732 0.48,2.43732 0.356579,0 0.48,-0.37567 0.48,-1.46104 0,-2.05588 0.422035,-2.69896 1.771258,-2.69896 h 1.108742 v 1.856 c 0,1.0488 0.172339,2.02834 0.396262,2.25226 0.481136,0.48114 1.583607,0.36357 1.765341,-0.18826 z m 7.68078,-0.18524 c 0.24569,-0.24569 0.525152,-1.03157 0.621034,-1.74641 0.149049,-1.11126 0.04929,-1.42473 -0.688054,-2.16208 -1.640647,-1.64064 -4.335363,-0.40763 -4.335363,1.98373 0,1.64168 1.27518,2.80645 2.801347,2.55879 0.634883,-0.10303 1.355347,-0.38834 1.601036,-0.63403 z m -3.186483,-1.02765 c -0.251478,-0.55194 -0.272483,-1.09126 -0.06543,-1.68 C 58.361033,148.15461 58.608988,148 59.501036,148 c 0.908916,0 1.135072,0.14834 1.389396,0.91131 0.457545,1.37263 -0.144685,2.44869 -1.370436,2.44869 -0.73222,0 -1.06558,-0.20161 -1.344099,-0.81289 z M 38.399998,150.72 c 0,-1.24952 0.02666,-1.28 1.12,-1.28 1.372928,0 2.399999,-0.93243 2.399999,-2.17884 0,-1.51056 -0.662838,-2.06386 -2.672044,-2.23048 l -1.807955,-0.14993 v 3.55962 c 0,2.95078 0.0821,3.55963 0.48,3.55963 0.346665,0 0.48,-0.35556 0.48,-1.28 z m 0,-3.32531 c 0,-1.4018 0.04428,-1.47469 0.896,-1.47469 1.012684,0 1.664,0.51073 1.664,1.30482 0,0.67323 -0.551856,1.14055 -1.681789,1.42414 -0.862458,0.21647 -0.878211,0.19396 -0.878211,-1.25427 z M 64.319996,149.92 c 0,-1.86667 0.06564,-2.08 0.64,-2.08 0.352,0 0.64,-0.144 0.64,-0.32 0,-0.176 -0.298016,-0.32 -0.662256,-0.32 -0.910278,0 -0.711853,-1.32852 0.262256,-1.75588 1.002067,-0.43963 0.898387,-0.80412 -0.228742,-0.80412 -1.008493,0 -1.611258,0.71039 -1.611258,1.89896 0,0.37426 -0.20824,0.66104 -0.48,0.66104 -0.264,0 -0.48,0.144 -0.48,0.32 0,0.176 0.216,0.32 0.48,0.32 0.377437,0 0.48,0.44444 0.48,2.08 0,1.63556 0.102563,2.08 0.48,2.08 0.377437,0 0.48,-0.44444 0.48,-2.08 z m 36.916114,1.43192 c 0.53953,-0.50052 -0.10978,-0.97783 -0.81601,-0.59986 -0.887383,0.47491 -2.180106,-0.10928 -2.180106,-0.9852 0,-0.57727 0.206547,-0.64686 1.919996,-0.64686 1.84381,0 1.92,-0.0323 1.92,-0.81454 0,-1.05942 -1.33972,-2.38546 -2.410066,-2.38546 -1.250679,0 -2.70993,1.6005 -2.70993,2.97223 0,1.2846 0.9764,2.68557 2.006378,2.87883 0.812774,0.1525 1.862498,-0.0413 2.269738,-0.41914 z M 98.317636,147.76 c 0.595136,-0.90077 1.601993,-1.07465 2.282474,-0.39417 0.85924,0.85925 0.60318,1.11417 -1.119146,1.11417 -1.627354,0 -1.635642,-0.005 -1.163328,-0.72 z m 16.962354,3.34742 c 0.37275,-0.3239 0.56,-0.95153 0.56,-1.87702 V 147.84 h -1.44 c -1.64303,0 -1.92379,0.46324 -0.45839,0.75632 0.84628,0.16926 0.96761,0.31816 0.88,1.08 -0.0919,0.79947 -0.22269,0.88368 -1.37216,0.88368 -1.03399,0 -1.3459,-0.14895 -1.67528,-0.8 -0.51977,-1.02738 -0.51813,-2.8178 0.004,-3.84 0.33584,-0.65811 0.64243,-0.8 1.72856,-0.8 1.47333,0 2.07898,-0.36064 1.36448,-0.8125 -0.7322,-0.46306 -2.65354,-0.35988 -3.43035,0.18422 -1.44419,1.01155 -1.64893,4.72832 -0.35133,6.37795 0.92822,1.18005 2.97306,1.29605 4.19095,0.23775 z m 6.22085,-0.13466 c 0.37752,-0.41715 0.57915,-1.13924 0.57915,-2.07406 0,-2.52198 -2.36782,-3.80978 -4.15296,-2.2587 -1.1299,0.98176 -1.3495,2.65351 -0.52215,3.97515 0.90954,1.45294 2.94395,1.63057 4.09596,0.35761 z m -2.89125,-0.51796 c -1.02419,-1.13171 -0.402,-3.5748 0.9104,-3.5748 0.76562,0 1.44,0.97411 1.44,2.08 0,1.80029 -1.31632,2.63745 -2.3504,1.4948 z m 8.93105,-1.0948 c 0.48027,-1.452 0.94511,-2.8346 1.03297,-3.07245 0.10411,-0.28181 -0.0388,-0.39328 -0.41016,-0.32 -0.38593,0.0762 -0.79478,0.80697 -1.26646,2.26388 l -0.69655,2.15142 -0.71867,-2.23142 c -0.45037,-1.39832 -0.891,-2.23143 -1.18023,-2.23143 -0.60078,0 -0.59619,0.0434 0.31887,3.00898 0.6984,2.2635 1.1692,3.0509 1.8333,3.06612 0.11755,0.003 0.60667,-1.1831 1.08693,-2.6351 z m -55.860644,0.41814 c 0,-1.60256 0.11192,-1.98024 0.711203,-2.4 0.900531,-0.63075 1.814893,-0.63883 2.053075,-0.0181 0.209481,0.5459 1.075721,0.6578 1.075721,0.13896 0,-0.18757 -0.149065,-0.61957 -0.331257,-0.96 -0.368979,-0.68944 -1.861482,-0.83803 -2.889779,-0.2877 -0.426666,0.22834 -0.618963,0.22834 -0.618963,0 0,-0.18219 -0.216,-0.33126 -0.48,-0.33126 -0.391111,0 -0.48,0.53333 -0.48,2.88 0,2.34667 0.08889,2.88 0.48,2.88 0.372825,0 0.48,-0.42465 0.48,-1.90186 z m 33.279994,-0.16688 c 0,-1.75402 0.0992,-2.12184 0.65209,-2.41773 0.35865,-0.19194 0.93465,-0.2593 1.28,-0.14969 0.54434,0.17276 0.62791,0.49457 0.62791,2.41772 0,1.75861 0.0995,2.21844 0.48,2.21844 0.70692,0 0.68715,-4.54714 -0.0228,-5.25714 -0.5951,-0.59509 -2.08946,-0.66255 -2.63315,-0.11886 -0.29866,0.29867 -0.384,0.29867 -0.384,0 0,-0.2112 -0.216,-0.384 -0.48,-0.384 -0.39111,0 -0.48,0.53333 -0.48,2.88 0,2.34667 0.0889,2.88 0.48,2.88 0.37717,0 0.48,-0.44319 0.48,-2.06874 z m -85.903991,-27.6526 c 0.1672,-0.15474 0.831862,-0.4499 1.477027,-0.65592 1.737139,-0.5547 3.903071,-2.62476 4.78238,-4.57068 0.760146,-1.68222 0.765135,-1.76764 0.857951,-14.68939 l 0.09336,-12.997326 -1.013358,-0.202672 C 24.69601,88.731203 23.833888,88.64 23.337532,88.64 c -0.847874,0 -0.908367,0.09083 -1,1.501478 l -0.09753,1.501479 -0.908962,-1.378381 -0.908961,-1.378381 -2.931038,0.130458 c -2.490858,0.110867 -3.188568,0.271065 -4.645855,1.06671 -2.751823,1.502432 -4.4129992,3.701203 -5.3644132,7.100464 -0.8782576,3.137883 -0.8744444,3.718713 0.041844,6.373443 1.0456505,3.02952 2.2577567,4.86246 4.1923302,6.33962 2.00837,1.5335 3.294143,1.88979 6.156829,1.70608 2.332358,-0.14968 2.464024,-0.20167 3.476202,-1.37259 l 1.052024,-1.21701 -0.0031,2.21331 c -0.0082,5.77868 -4.291174,8.8694 -9.079021,6.55164 l -1.473077,-0.7131 -0.882388,1.04866 c -0.485303,0.57676 -0.882378,1.20109 -0.882378,1.38739 0,0.1863 1.008,0.8674 2.24,1.51355 1.887136,0.98974 2.570181,1.17878 4.336,1.2 1.1528,0.0138 2.2328,-0.10142 2.4,-0.25616 z M 15.74765,108.11382 c -1.48578,-0.42147 -3.400687,-2.46168 -4.022023,-4.2852 -1.14497,-3.3603 -0.36995,-7.428508 1.835291,-9.63375 2.290648,-2.290646 4.855584,-2.488844 7.639081,-0.590288 l 1.2,0.81849 v 5.688598 5.68859 l -0.88,0.82077 c -0.484,0.45142 -1.168,0.96262 -1.52,1.136 -1.025162,0.50493 -3.112655,0.68008 -4.252349,0.35679 z m 35.634267,3.08739 c 2.366419,-0.71796 2.400259,-0.75886 1.994157,-2.41021 -0.193552,-0.78705 -0.395533,-1.48418 -0.448845,-1.54918 -0.05331,-0.065 -1.091763,0.12561 -2.30767,0.42358 -2.918493,0.71522 -4.136317,0.5765 -4.987923,-0.56816 -0.636484,-0.85551 -0.67704,-1.35383 -0.774861,-9.520002 L 44.753553,88.96 h -5.294099 -5.294099 l 0.19295,0.72 c 0.106125,0.396 0.194922,1.202326 0.197325,1.79184 l 0.0044,1.07184 2.8,-0.135587 c 1.54,-0.07457 3.068752,-0.254733 3.397225,-0.400362 0.542109,-0.240336 0.560243,-0.19567 0.196509,0.483975 -0.528598,0.987696 -0.243171,13.700764 0.344592,15.348294 0.59295,1.66207 1.434093,2.7275 2.611491,3.30781 1.355229,0.66797 5.352345,0.69653 7.472102,0.0534 z m 21.010661,-0.15748 c 4.103913,-1.26757 6.322652,-3.55449 6.325779,-6.52016 0.0035,-3.32753 -2.102464,-5.354812 -6.329155,-6.092693 -3.361382,-0.586823 -6.692803,-1.694474 -7.487984,-2.489655 -2.490921,-2.490921 4.969514,-4.464092 9.752054,-2.579267 0.667303,0.262989 1.30992,0.381514 1.428042,0.263392 0.118125,-0.118121 0.462864,-0.868352 0.766093,-1.667177 l 0.551324,-1.45241 -1.499366,-0.69288 c -1.296579,-0.599168 -2.062016,-0.692214 -5.659369,-0.687962 -3.677274,0.0044 -4.355216,0.09259 -5.842329,0.76041 -0.92528,0.41552 -2.11328,1.246317 -2.64,1.846214 -0.806739,0.918826 -0.957671,1.358893 -0.957671,2.792269 0,3.329271 2.478055,5.476299 7.602569,6.586979 4.129399,0.89501 5.963581,1.79393 6.100682,2.98989 0.326105,2.84472 -4.355997,4.60757 -9.445478,3.55631 -1.366797,-0.28232 -2.732682,-0.64582 -3.035296,-0.80777 -0.455069,-0.24355 -0.663664,-0.038 -1.206342,1.18883 -0.360874,0.81582 -0.656135,1.59709 -0.656135,1.73616 0,0.28025 2.259856,1.20088 3.902755,1.58992 2.105853,0.49867 6.186125,0.34172 8.329827,-0.3204 z m 28.867612,0.17824 c 0.83706,-0.25192 2.08177,-0.82852 2.76604,-1.28135 l 1.24413,-0.82333 -0.69895,-1.43864 c -0.38442,-0.79126 -0.81999,-1.43865 -0.96793,-1.43865 -0.14794,0 -0.84175,0.2922 -1.54179,0.64934 -5.854883,2.98694 -11.555801,-0.32275 -11.614588,-6.7429 -0.03693,-4.033112 2.21942,-7.045438 5.774847,-7.709662 1.744746,-0.325956 4.971831,0.147372 6.138701,0.90038 0.72525,0.468026 0.8146,0.436279 1.92,-0.68223 l 1.15934,-1.173098 -0.96,-0.786064 c -1.40221,-1.148156 -3.73824,-1.736812 -6.858076,-1.728169 -5.749244,0.01594 -9.791804,3.072816 -11.10271,8.395609 -1.304102,5.295184 1.437303,11.040914 6.384506,13.381344 1.643398,0.77746 2.385449,0.93499 4.405427,0.9352 1.336028,1.3e-4 3.114003,-0.20586 3.951053,-0.45778 z m 25.0125,-0.30846 c 0.89798,-0.41813 2.17673,-1.30427 2.84166,-1.9692 4.16275,-4.16275 4.17948,-12.9712 0.0326,-17.186995 -1.80076,-1.830704 -3.48787,-2.560691 -6.30751,-2.729158 -3.48825,-0.208416 -5.35204,0.473206 -7.69192,2.813085 -2.41195,2.411952 -3.29201,5.039555 -3.08854,9.221438 0.22643,4.65352 2.12053,7.81763 5.77209,9.64233 2.59036,1.29443 5.93218,1.37696 8.44159,0.2085 z m -5.74304,-2.89288 c -2.38334,-0.86411 -3.80202,-2.87948 -4.32354,-6.14198 -0.45655,-2.856064 0.0683,-5.519754 1.45775,-7.398986 1.04209,-1.409382 2.48178,-2.091091 4.41613,-2.091091 3.86346,0 6.01836,2.877792 6.05887,8.091427 0.0183,2.35602 -0.0987,2.96401 -0.8743,4.54344 -1.37568,2.8014 -4.02413,3.98003 -6.73491,2.99719 z M 143.35999,105.28 V 99.2 h 0.96 c 0.528,0 1.21284,0.252838 1.52186,0.561862 0.30903,0.309028 2.26822,3.045028 4.35376,6.079998 l 3.79188,5.51814 h 2.38215 c 1.8804,0 2.32825,-0.0883 2.12625,-0.41904 -0.14074,-0.23048 -1.9572,-2.88363 -4.03656,-5.8959 -2.99371,-4.33683 -3.99285,-5.553342 -4.8,-5.844295 l -1.01934,-0.367437 1.96884,-0.725098 c 3.75241,-1.381961 6.05096,-4.141776 6.41893,-7.707068 0.46964,-4.550365 -2.37452,-7.956861 -7.61645,-9.122343 -1.86421,-0.414486 -9.97567,-0.341133 -10.41095,0.09415 -0.12671,0.126704 -0.0616,1.146224 0.14463,2.265596 0.24663,1.338551 0.375,6.431533 0.375,14.87833 V 111.36 h 1.92 1.92 z m -0.003,-13.473043 c -0.002,-2.357827 -0.0913,-5.023936 -0.19957,-5.924688 l -0.19678,-1.637735 1.39956,-0.20952 c 1.67102,-0.250153 4.46504,0.230756 6.02969,1.037834 0.62143,0.320554 1.46634,1.074298 1.87756,1.674989 0.63832,0.932409 0.73078,1.401577 0.63207,3.207475 -0.0924,1.690102 -0.2876,2.34079 -0.97117,3.236998 -1.16824,1.531636 -3.27941,2.454503 -6.17491,2.699261 l -2.39357,0.202339 z M 44.959997,83.2 v -2.08 l -2.16,-0.09462 -2.159999,-0.09462 v 2.041287 c 0,1.12271 0.102089,2.143379 0.226867,2.268157 0.124777,0.124774 1.096777,0.184774 2.16,0.133331 L 44.959997,85.28 Z"
         id="path3446" />
      <path
         style="fill:#33393e;stroke-width:0.32"
         d="M 42.798916,164.88556 3.197838,141.97598 3.2789188,96.049635 3.3599998,50.123286 43.039997,27.196179 82.719995,4.2690717 84.189182,5.094536 C 84.997236,5.5485411 102.88517,15.856 123.94015,28 l 38.28178,22.08 -0.071,46.032064 -0.071,46.032066 -39.36,22.73143 c -21.648,12.50229 -39.575995,22.77377 -39.839995,22.82551 -0.264,0.0517 -18.300485,-10.21524 -40.081079,-22.81551 z M 91.519994,152.96 c 0,-1.24558 0.02963,-1.28 1.102157,-1.28 1.693696,0 2.883299,-1.18824 2.883299,-2.88 0,-1.07751 -0.178665,-1.50161 -0.890573,-2.11396 -1.032329,-0.88798 -1.881059,-0.97415 -2.592025,-0.26318 -0.457142,0.45714 -0.502858,0.45714 -0.502858,0 0,-0.27658 -0.216,-0.50286 -0.479999,-0.50286 -0.402052,0 -0.48,0.67556 -0.48,4.16 0,3.48444 0.07795,4.16 0.48,4.16 0.346665,0 0.479999,-0.35556 0.479999,-1.28 z m 0,-3.82874 c 0,-1.55072 0.484224,-2.25126 1.556106,-2.25126 0.621261,0 1.323894,1.01901 1.323894,1.92 0,1.17345 -0.755443,1.92 -1.942857,1.92 -0.910352,0 -0.937143,-0.0454 -0.937143,-1.58874 z m -5.759999,3.8672 c 1.31151,-0.6723 2.42478,-2.1879 2.898003,-3.94531 0.261565,-0.97139 0.225939,-1.63099 -0.159744,-2.9577 -1.497658,-5.15176 -8.702457,-5.84189 -11.019491,-1.05553 -2.617753,5.40755 2.904595,10.71472 8.281232,7.95854 z m -5.04,-0.51554 c -1.117507,-0.48571 -1.257603,-0.77732 -0.660368,-1.37455 0.292839,-0.29284 0.500403,-0.27033 0.907911,0.0985 0.290556,0.26295 1.091721,0.75924 1.780371,1.10288 l 1.252086,0.62479 -1.12,2.2e-4 c -0.616,1.3e-4 -1.588,-0.20318 -2.16,-0.4518 z m 2.100736,-1.13407 c -1.593942,-0.84189 -1.734822,-1.18101 -0.872125,-2.0993 l 0.735664,-0.78308 1.537863,1.51473 c 0.845823,0.83311 1.537862,1.62815 1.537862,1.76677 0,0.46657 -1.750224,0.22891 -2.939264,-0.39912 z m -4.416217,-0.78341 c -0.23128,-0.27867 -0.473274,-1.2579 -0.53777,-2.17606 -0.09487,-1.35056 -0.05474,-1.52547 0.210093,-0.91583 0.180045,0.41445 0.632973,1.18275 1.006505,1.70732 0.596432,0.83762 0.622058,1.01087 0.21041,1.42252 -0.411648,0.41164 -0.519949,0.40702 -0.889238,-0.0379 z m 6.538962,-1.14221 -1.564143,-1.58802 0.837056,-0.83706 c 0.494761,-0.49476 0.995142,-0.73935 1.223651,-0.59812 0.521926,0.32257 1.584201,2.71069 1.592928,3.58108 0.01213,1.21062 -0.47594,1.0803 -2.089492,-0.55788 z m -5.001775,-0.53109 c -0.860739,-0.98598 -1.221706,-1.9277 -1.221706,-3.18729 v -1.21723 l 1.674458,1.67446 1.67446,1.67446 -0.813875,0.81387 c -0.775584,0.77559 -0.837369,0.78696 -1.313337,0.24173 z m 6.892201,-1.87848 c -0.853581,-1.45212 -0.936954,-1.76896 -0.549997,-2.0901 0.361235,-0.2998 0.550749,-0.25218 0.91121,0.22896 0.430966,0.57525 1.01686,3.23436 0.76343,3.46488 -0.0652,0.0593 -0.571293,-0.66238 -1.124643,-1.60374 z m -5.648598,-1.34735 c -0.82792,-0.84056 -1.505309,-1.63135 -1.505309,-1.7573 0,-0.41755 1.966096,-0.23716 3.056918,0.28047 1.709472,0.81119 1.855111,1.18345 0.842541,2.15356 l -0.888838,0.85156 z m 2.974691,-1.63226 c -0.44,-0.32212 -1.232,-0.73819 -1.76,-0.9246 -0.954342,-0.33693 -0.951888,-0.33907 0.415891,-0.36419 1.801898,-0.0331 3.468054,0.78342 2.927571,1.43467 -0.482201,0.58101 -0.606166,0.56959 -1.583462,-0.14588 z m -38.479998,7.94465 c 0.672371,0.0132 0.72,-0.11995 0.72,-2.01269 0,-2.59105 -0.65055,-3.35771 -2.461648,-2.90099 -1.685894,0.42514 -1.824304,1.17385 -0.168041,0.90901 0.847779,-0.13557 1.349404,-0.0734 1.510496,0.18728 0.291123,0.47104 -0.37658,0.94703 -1.337949,0.95379 -0.38343,0.003 -0.92343,0.23118 -1.2,0.50776 -1.11465,1.11465 -0.129613,2.92272 1.387648,2.54707 0.456224,-0.11295 1.153494,-0.199 1.549494,-0.19123 z m -2.376672,-1.13099 c -0.108121,-0.28177 0.0044,-0.63956 0.250042,-0.79511 0.674864,-0.42732 1.88663,-0.34806 1.88663,0.1234 0,1.07553 -1.768384,1.63145 -2.136672,0.67171 z M 53.6816,151.76 c 0.07711,-0.23415 -0.144678,-0.4 -0.534938,-0.4 -0.594745,0 -0.666665,-0.18987 -0.666665,-1.76 0,-1.54667 0.07757,-1.76 0.64,-1.76 0.352,0 0.64,-0.144 0.64,-0.32 0,-0.176 -0.288,-0.32 -0.64,-0.32 -0.474839,0 -0.64,-0.21333 -0.64,-0.82667 0,-1.00806 -0.751981,-0.89004 -0.903578,0.14181 -0.09005,0.61295 -0.241964,0.67905 -1.163353,0.5062 -0.587274,-0.11018 -1.147594,-0.0567 -1.256743,0.11988 -0.108329,0.17528 -0.484819,0.24342 -0.836646,0.15142 -0.598224,-0.15644 -0.63968,-0.009 -0.63968,2.27004 0,1.95317 0.09535,2.43732 0.48,2.43732 0.356579,0 0.48,-0.37567 0.48,-1.46104 0,-2.05588 0.422035,-2.69896 1.771258,-2.69896 h 1.108742 v 1.856 c 0,1.0488 0.172339,2.02834 0.396262,2.25226 0.481136,0.48114 1.583607,0.36357 1.765341,-0.18826 z m 7.68078,-0.18524 c 0.24569,-0.24569 0.525152,-1.03157 0.621034,-1.74641 0.149049,-1.11126 0.04929,-1.42473 -0.688054,-2.16208 -1.640647,-1.64064 -4.335363,-0.40763 -4.335363,1.98373 0,1.64168 1.27518,2.80645 2.801347,2.55879 0.634883,-0.10303 1.355347,-0.38834 1.601036,-0.63403 z m -3.186483,-1.02765 c -0.251478,-0.55194 -0.272483,-1.09126 -0.06543,-1.68 C 58.361033,148.15461 58.608988,148 59.501036,148 c 0.908916,0 1.135072,0.14834 1.389396,0.91131 0.457545,1.37263 -0.144685,2.44869 -1.370436,2.44869 -0.73222,0 -1.06558,-0.20161 -1.344099,-0.81289 z M 38.399998,150.72 c 0,-1.24952 0.02666,-1.28 1.12,-1.28 1.372928,0 2.399999,-0.93243 2.399999,-2.17884 0,-1.51056 -0.662838,-2.06386 -2.672044,-2.23048 l -1.807955,-0.14993 v 3.55962 c 0,2.95078 0.0821,3.55963 0.48,3.55963 0.346665,0 0.48,-0.35556 0.48,-1.28 z m 0,-3.32531 c 0,-1.4018 0.04428,-1.47469 0.896,-1.47469 1.012684,0 1.664,0.51073 1.664,1.30482 0,0.67323 -0.551856,1.14055 -1.681789,1.42414 -0.862458,0.21647 -0.878211,0.19396 -0.878211,-1.25427 z M 64.319996,149.92 c 0,-1.86667 0.06564,-2.08 0.64,-2.08 0.352,0 0.64,-0.144 0.64,-0.32 0,-0.176 -0.298016,-0.32 -0.662256,-0.32 -0.910278,0 -0.711853,-1.32852 0.262256,-1.75588 1.002067,-0.43963 0.898387,-0.80412 -0.228742,-0.80412 -1.008493,0 -1.611258,0.71039 -1.611258,1.89896 0,0.37426 -0.20824,0.66104 -0.48,0.66104 -0.264,0 -0.48,0.144 -0.48,0.32 0,0.176 0.216,0.32 0.48,0.32 0.377437,0 0.48,0.44444 0.48,2.08 0,1.63556 0.102563,2.08 0.48,2.08 0.377437,0 0.48,-0.44444 0.48,-2.08 z m 36.916114,1.43192 c 0.53953,-0.50052 -0.10978,-0.97783 -0.81601,-0.59986 -0.887383,0.47491 -2.180106,-0.10928 -2.180106,-0.9852 0,-0.57727 0.206547,-0.64686 1.919996,-0.64686 1.84381,0 1.92,-0.0323 1.92,-0.81454 0,-1.05942 -1.33972,-2.38546 -2.410066,-2.38546 -1.250679,0 -2.70993,1.6005 -2.70993,2.97223 0,1.2846 0.9764,2.68557 2.006378,2.87883 0.812774,0.1525 1.862498,-0.0413 2.269738,-0.41914 z M 98.317636,147.76 c 0.595136,-0.90077 1.601993,-1.07465 2.282474,-0.39417 0.85924,0.85925 0.60318,1.11417 -1.119146,1.11417 -1.627354,0 -1.635642,-0.005 -1.163328,-0.72 z m 16.962354,3.34742 c 0.37275,-0.3239 0.56,-0.95153 0.56,-1.87702 V 147.84 h -1.44 c -1.64303,0 -1.92379,0.46324 -0.45839,0.75632 0.84628,0.16926 0.96761,0.31816 0.88,1.08 -0.0919,0.79947 -0.22269,0.88368 -1.37216,0.88368 -1.03399,0 -1.3459,-0.14895 -1.67528,-0.8 -0.51977,-1.02738 -0.51813,-2.8178 0.004,-3.84 0.33584,-0.65811 0.64243,-0.8 1.72856,-0.8 1.47333,0 2.07898,-0.36064 1.36448,-0.8125 -0.7322,-0.46306 -2.65354,-0.35988 -3.43035,0.18422 -1.44419,1.01155 -1.64893,4.72832 -0.35133,6.37795 0.92822,1.18005 2.97306,1.29605 4.19095,0.23775 z m 6.22085,-0.13466 c 0.37752,-0.41715 0.57915,-1.13924 0.57915,-2.07406 0,-2.52198 -2.36782,-3.80978 -4.15296,-2.2587 -1.1299,0.98176 -1.3495,2.65351 -0.52215,3.97515 0.90954,1.45294 2.94395,1.63057 4.09596,0.35761 z m -2.89125,-0.51796 c -1.02419,-1.13171 -0.402,-3.5748 0.9104,-3.5748 0.76562,0 1.44,0.97411 1.44,2.08 0,1.80029 -1.31632,2.63745 -2.3504,1.4948 z m 8.93105,-1.0948 c 0.48027,-1.452 0.94511,-2.8346 1.03297,-3.07245 0.10411,-0.28181 -0.0388,-0.39328 -0.41016,-0.32 -0.38593,0.0762 -0.79478,0.80697 -1.26646,2.26388 l -0.69655,2.15142 -0.71867,-2.23142 c -0.45037,-1.39832 -0.891,-2.23143 -1.18023,-2.23143 -0.60078,0 -0.59619,0.0434 0.31887,3.00898 0.6984,2.2635 1.1692,3.0509 1.8333,3.06612 0.11755,0.003 0.60667,-1.1831 1.08693,-2.6351 z m -55.860644,0.41814 c 0,-1.60256 0.11192,-1.98024 0.711203,-2.4 0.900531,-0.63075 1.814893,-0.63883 2.053075,-0.0181 0.209481,0.5459 1.075721,0.6578 1.075721,0.13896 0,-0.18757 -0.149065,-0.61957 -0.331257,-0.96 -0.368979,-0.68944 -1.861482,-0.83803 -2.889779,-0.2877 -0.426666,0.22834 -0.618963,0.22834 -0.618963,0 0,-0.18219 -0.216,-0.33126 -0.48,-0.33126 -0.391111,0 -0.48,0.53333 -0.48,2.88 0,2.34667 0.08889,2.88 0.48,2.88 0.372825,0 0.48,-0.42465 0.48,-1.90186 z m 33.279994,-0.16688 c 0,-1.75402 0.0992,-2.12184 0.65209,-2.41773 0.35865,-0.19194 0.93465,-0.2593 1.28,-0.14969 0.54434,0.17276 0.62791,0.49457 0.62791,2.41772 0,1.75861 0.0995,2.21844 0.48,2.21844 0.70692,0 0.68715,-4.54714 -0.0228,-5.25714 -0.5951,-0.59509 -2.08946,-0.66255 -2.63315,-0.11886 -0.29866,0.29867 -0.384,0.29867 -0.384,0 0,-0.2112 -0.216,-0.384 -0.48,-0.384 -0.39111,0 -0.48,0.53333 -0.48,2.88 0,2.34667 0.0889,2.88 0.48,2.88 0.37717,0 0.48,-0.44319 0.48,-2.06874 z m -85.903991,-27.6526 c 0.1672,-0.15474 0.831862,-0.4499 1.477027,-0.65592 1.737139,-0.5547 3.903071,-2.62476 4.78238,-4.57068 0.760146,-1.68222 0.765135,-1.76764 0.857951,-14.68939 l 0.09336,-12.997326 -1.013358,-0.202672 C 24.69601,88.731203 23.833888,88.64 23.337532,88.64 c -0.847874,0 -0.908367,0.09083 -1,1.501478 l -0.09753,1.501479 -0.908962,-1.378381 -0.908961,-1.378381 -2.931038,0.130458 c -2.490858,0.110867 -3.188568,0.271065 -4.645855,1.06671 -2.751823,1.502432 -4.4129992,3.701203 -5.3644132,7.100464 -0.8782576,3.137883 -0.8744444,3.718713 0.041844,6.373443 1.0456505,3.02952 2.2577567,4.86246 4.1923302,6.33962 2.00837,1.5335 3.294143,1.88979 6.156829,1.70608 2.332358,-0.14968 2.464024,-0.20167 3.476202,-1.37259 l 1.052024,-1.21701 -0.0031,2.21331 c -0.0082,5.77868 -4.291174,8.8694 -9.079021,6.55164 l -1.473077,-0.7131 -0.882388,1.04866 c -0.485303,0.57676 -0.882378,1.20109 -0.882378,1.38739 0,0.1863 1.008,0.8674 2.24,1.51355 1.887136,0.98974 2.570181,1.17878 4.336,1.2 1.1528,0.0138 2.2328,-0.10142 2.4,-0.25616 z M 15.74765,108.11382 c -1.48578,-0.42147 -3.400687,-2.46168 -4.022023,-4.2852 -1.14497,-3.3603 -0.36995,-7.428508 1.835291,-9.63375 2.290648,-2.290646 4.855584,-2.488844 7.639081,-0.590288 l 1.2,0.81849 v 5.688598 5.68859 l -0.88,0.82077 c -0.484,0.45142 -1.168,0.96262 -1.52,1.136 -1.025162,0.50493 -3.112655,0.68008 -4.252349,0.35679 z m 35.634267,3.08739 c 2.366419,-0.71796 2.400259,-0.75886 1.994157,-2.41021 -0.193552,-0.78705 -0.395533,-1.48418 -0.448845,-1.54918 -0.05331,-0.065 -1.091763,0.12561 -2.30767,0.42358 -2.918493,0.71522 -4.136317,0.5765 -4.987923,-0.56816 -0.636484,-0.85551 -0.67704,-1.35383 -0.774861,-9.520002 L 44.753553,88.96 h -5.294099 -5.294099 l 0.19295,0.72 c 0.106125,0.396 0.194922,1.202326 0.197325,1.79184 l 0.0044,1.07184 2.8,-0.135587 c 1.54,-0.07457 3.068752,-0.254733 3.397225,-0.400362 0.542109,-0.240336 0.560243,-0.19567 0.196509,0.483975 -0.528598,0.987696 -0.243171,13.700764 0.344592,15.348294 0.59295,1.66207 1.434093,2.7275 2.611491,3.30781 1.355229,0.66797 5.352345,0.69653 7.472102,0.0534 z m 21.010661,-0.15748 c 4.103913,-1.26757 6.322652,-3.55449 6.325779,-6.52016 0.0035,-3.32753 -2.102464,-5.354812 -6.329155,-6.092693 -3.361382,-0.586823 -6.692803,-1.694474 -7.487984,-2.489655 -2.490921,-2.490921 4.969514,-4.464092 9.752054,-2.579267 0.667303,0.262989 1.30992,0.381514 1.428042,0.263392 0.118125,-0.118121 0.462864,-0.868352 0.766093,-1.667177 l 0.551324,-1.45241 -1.499366,-0.69288 c -1.296579,-0.599168 -2.062016,-0.692214 -5.659369,-0.687962 -3.677274,0.0044 -4.355216,0.09259 -5.842329,0.76041 -0.92528,0.41552 -2.11328,1.246317 -2.64,1.846214 -0.806739,0.918826 -0.957671,1.358893 -0.957671,2.792269 0,3.329271 2.478055,5.476299 7.602569,6.586979 4.129399,0.89501 5.963581,1.79393 6.100682,2.98989 0.326105,2.84472 -4.355997,4.60757 -9.445478,3.55631 -1.366797,-0.28232 -2.732682,-0.64582 -3.035296,-0.80777 -0.455069,-0.24355 -0.663664,-0.038 -1.206342,1.18883 -0.360874,0.81582 -0.656135,1.59709 -0.656135,1.73616 0,0.28025 2.259856,1.20088 3.902755,1.58992 2.105853,0.49867 6.186125,0.34172 8.329827,-0.3204 z m 28.867612,0.17824 c 0.83706,-0.25192 2.08177,-0.82852 2.76604,-1.28135 l 1.24413,-0.82333 -0.69895,-1.43864 c -0.38442,-0.79126 -0.81999,-1.43865 -0.96793,-1.43865 -0.14794,0 -0.84175,0.2922 -1.54179,0.64934 -5.854883,2.98694 -11.555801,-0.32275 -11.614588,-6.7429 -0.03693,-4.033112 2.21942,-7.045438 5.774847,-7.709662 1.744746,-0.325956 4.971831,0.147372 6.138701,0.90038 0.72525,0.468026 0.8146,0.436279 1.92,-0.68223 l 1.15934,-1.173098 -0.96,-0.786064 c -1.40221,-1.148156 -3.73824,-1.736812 -6.858076,-1.728169 -5.749244,0.01594 -9.791804,3.072816 -11.10271,8.395609 -1.304102,5.295184 1.437303,11.040914 6.384506,13.381344 1.643398,0.77746 2.385449,0.93499 4.405427,0.9352 1.336028,1.3e-4 3.114003,-0.20586 3.951053,-0.45778 z m 25.0125,-0.30846 c 0.89798,-0.41813 2.17673,-1.30427 2.84166,-1.9692 4.16275,-4.16275 4.17948,-12.9712 0.0326,-17.186995 -1.80076,-1.830704 -3.48787,-2.560691 -6.30751,-2.729158 -3.48825,-0.208416 -5.35204,0.473206 -7.69192,2.813085 -2.41195,2.411952 -3.29201,5.039555 -3.08854,9.221438 0.22643,4.65352 2.12053,7.81763 5.77209,9.64233 2.59036,1.29443 5.93218,1.37696 8.44159,0.2085 z m -5.74304,-2.89288 c -2.38334,-0.86411 -3.80202,-2.87948 -4.32354,-6.14198 -0.45655,-2.856064 0.0683,-5.519754 1.45775,-7.398986 1.04209,-1.409382 2.48178,-2.091091 4.41613,-2.091091 3.86346,0 6.01836,2.877792 6.05887,8.091427 0.0183,2.35602 -0.0987,2.96401 -0.8743,4.54344 -1.37568,2.8014 -4.02413,3.98003 -6.73491,2.99719 z M 143.35999,105.28 V 99.2 h 0.96 c 0.528,0 1.21284,0.252838 1.52186,0.561862 0.30903,0.309028 2.26822,3.045028 4.35376,6.079998 l 3.79188,5.51814 h 2.38215 c 1.8804,0 2.32825,-0.0883 2.12625,-0.41904 -0.14074,-0.23048 -1.9572,-2.88363 -4.03656,-5.8959 -2.99371,-4.33683 -3.99285,-5.553342 -4.8,-5.844295 l -1.01934,-0.367437 1.96884,-0.725098 c 3.75241,-1.381961 6.05096,-4.141776 6.41893,-7.707068 0.46964,-4.550365 -2.37452,-7.956861 -7.61645,-9.122343 -1.86421,-0.414486 -9.97567,-0.341133 -10.41095,0.09415 -0.12671,0.126704 -0.0616,1.146224 0.14463,2.265596 0.24663,1.338551 0.375,6.431533 0.375,14.87833 V 111.36 h 1.92 1.92 z m -0.003,-13.473043 c -0.002,-2.357827 -0.0913,-5.023936 -0.19957,-5.924688 l -0.19678,-1.637735 1.39956,-0.20952 c 1.67102,-0.250153 4.46504,0.230756 6.02969,1.037834 0.62143,0.320554 1.46634,1.074298 1.87756,1.674989 0.63832,0.932409 0.73078,1.401577 0.63207,3.207475 -0.0924,1.690102 -0.2876,2.34079 -0.97117,3.236998 -1.16824,1.531636 -3.27941,2.454503 -6.17491,2.699261 l -2.39357,0.202339 z M 44.959997,83.2 v -2.08 l -2.16,-0.09462 -2.159999,-0.09462 v 2.041287 c 0,1.12271 0.102089,2.143379 0.226867,2.268157 0.124777,0.124774 1.096777,0.184774 2.16,0.133331 L 44.959997,85.28 Z"
         id="path3444" />
    </g>
  </g>
</svg>
