<svg xmlns="http://www.w3.org/2000/svg" role="img" viewBox="-5.24 28.26 272.74 74.99"><g fill="#2366ab"><path d="M116.7 722.33v4.4375h-12.668v5.1406h11.625v4.0976h-11.625v5.8789h12.938v4.4375h-18.211v-23.992zM134.2 728.73c-.31641-.5039-.70703-.94531-1.1758-1.3281-.47266-.37891-1.0039-.67969-1.5977-.89063-.59375-.21093-1.2148-.32031-1.8633-.32031-1.1875 0-2.1953.23047-3.0234.69141-.83203.45703-1.5039 1.0742-2.0195 1.8476-.51562.77344-.88672 1.6524-1.125 2.6367-.23437.98438-.35156 2.0039-.35156 3.0586 0 1.0078.11719 1.9883.35156 2.9375.23828.95312.60938 1.8086 1.125 2.5703.51563.76172 1.1875 1.375 2.0195 1.832.82813.46094 1.8359.6875 3.0234.6875 1.6133 0 2.8711-.49219 3.7773-1.4766.91016-.98438 1.4609-2.2852 1.6641-3.8984h5.1055c-.13281 1.5-.48046 2.8555-1.0391 4.0664-.5625 1.2109-1.3008 2.2383-2.2188 3.0898s-1.9922 1.5039-3.2226 1.9492c-1.2344.44922-2.5898.67187-4.0664.67187-1.8398 0-3.4922-.32031-4.957-.95703-1.4688-.63672-2.707-1.5156-3.7148-2.6367-1.0039-1.1211-1.7774-2.4375-2.3164-3.9492-.53906-1.5117-.80469-3.1406-.80469-4.8867 0-1.793.26563-3.457.80469-4.9922.53906-1.5312 1.3125-2.8711 2.3164-4.0156 1.0078-1.1406 2.2461-2.0352 3.7148-2.6875 1.4648-.64843 3.1172-.97265 4.957-.97265 1.3203 0 2.5703.1914 3.7461.57031 1.1758.38281 2.2266.9375 3.1562 1.6641.92969.72657 1.6992 1.6289 2.3008 2.7031.60547 1.0781.98829 2.3086 1.1445 3.6992h-5.1094c-.0859-.60547-.28906-1.1602-.60156-1.6641M149.64 722.33l5.6094 16.496h.0664l5.3125-16.496h7.4219v23.992h-4.9375v-17.004h-.0664l-5.8789 17.004h-4.0664l-5.8789-16.836h-.0703v16.836h-4.9375v-23.992zM188.96 746.32l-4.0664-16.332h-.0664l-3.9961 16.332h-5.3438l-6.3516-23.992h5.2774l3.7969 16.328h.0664l4.168-16.328h4.9375l4.0976 16.531h.0703l3.9297-16.531h5.1758l-6.4531 23.992z" transform="translate(-85.819 -1113.6) scale(1.5934)"/><g><path d="M218.6 722.33v4.4375h-11.59v5.543h10.047v4.0977h-10.047v9.9141h-5.2773v-23.992zM53.996 735.77h11.797v-3.1953h-11.797c-.19141 1.0703-.17578 2.1602 0 3.1953M93.277 736.88c-1.207 6.582-7.0391 11.465-13.727 11.465-1.9453 0-4.0156-.49219-5.7734-1.2461-1.8438.85938-3.8789 1.2461-5.9531 1.2461-6.6836 0-12.512-4.793-13.707-11.41l8.6055-.0156c.94531 2.1406 3.1211 3.5274 5.457 3.5274 2.5078 0 4.8438-1.707 5.6875-4.0586.80859 2.4102 3.1406 4.0586 5.6836 4.0586 2.3906 0 4.6016-1.3867 5.5508-3.5469z" transform="translate(-85.819 -1113.6) scale(1.5934)"/></g><path d="m93.277 731.46c-1.207-6.5898-7.0391-11.465-13.727-11.465-1.9453 0-4.0156 0.49219-5.7734 1.2656-1.8438-0.8789-3.8789-1.2656-5.9531-1.2656-6.6836 0-12.512 4.7891-13.707 11.41l8.6055 0.0156c0.94531-2.1406 3.1211-3.5234 5.457-3.5234 2.5078 0 4.8438 1.6992 5.6875 4.0469 0.80859-2.4024 3.1406-4.0469 5.6836-4.0469 2.3906 0 4.6016 1.3828 5.5508 3.5391z" transform="translate(-85.819 -1113.6) scale(1.5934)"/></g><path d="M40.32 19.79L50.98 19.79C50.39 14.80 48.10 10.63 44.10 7.29C40.11 3.96 34.82 2.29 28.23 2.29C20.64 2.29 14.53 4.82 9.91 9.88C5.30 14.94 2.99 21.67 2.99 30.06C2.99 38.36 5.27 44.89 9.84 49.68C14.23 54.43 19.85 56.81 26.72 56.81C30.89 56.81 34.41 55.93 37.27 54.18C38.93 53.17 40.80 51.43 42.89 48.97L43.98 55.44L51.15 55.44L51.15 27.63L29.57 27.63L29.57 36.28L41.55 36.28C41.02 39.68 39.59 42.43 37.27 44.53C34.95 46.62 31.97 47.67 28.34 47.67C24.63 47.67 21.33 46.35 18.42 43.70C15.52 41.05 14.06 36.54 14.06 30.16C14.06 23.84 15.40 19.10 18.09 15.94C20.77 12.79 24.20 11.21 28.37 11.21C30.55 11.21 32.53 11.60 34.31 12.38C37.50 13.78 39.50 16.25 40.32 19.79ZM28.20 2.29ZM70.91 55.44L70.91 3.62L60.89 3.62L60.89 55.44ZM104.63 45.25C103.05 47.33 100.80 48.38 97.88 48.38C94.95 48.38 92.69 47.33 91.11 45.25C89.53 43.16 88.73 40.20 88.73 36.35C88.73 32.51 89.53 29.55 91.11 27.47C92.69 25.40 94.95 24.36 97.88 24.36C100.80 24.36 103.05 25.40 104.63 27.47C106.20 29.55 106.98 32.51 106.98 36.35C106.98 40.20 106.20 43.16 104.63 45.25ZM112.64 50.78C115.88 46.79 117.49 41.98 117.49 36.35C117.49 30.82 115.88 26.03 112.64 21.97C109.41 17.92 104.50 15.89 97.91 15.89C91.32 15.89 86.41 17.92 83.18 21.97C79.95 26.03 78.33 30.82 78.33 36.35C78.33 41.98 79.95 46.79 83.18 50.78C86.41 54.78 91.32 56.78 97.91 56.78C104.50 56.78 109.41 54.78 112.64 50.78ZM97.91 16.10ZM157.20 21.73C154.35 18.09 150.41 16.28 145.37 16.28C142.58 16.28 140.29 16.86 138.48 18.04C136.96 18.97 135.56 20.33 134.30 22.11L134.30 3.69L124.31 3.69L124.31 55.44L134.12 55.44L134.12 50.63C135.46 52.50 136.70 53.81 137.85 54.56C139.77 55.83 142.31 56.46 145.48 56.46C150.52 56.46 154.44 54.50 157.25 50.59C160.07 46.68 161.47 41.74 161.47 35.79C161.47 30.05 160.05 25.36 157.20 21.73ZM148.82 45.07C147.39 47.16 145.38 48.20 142.80 48.20C139.83 48.20 137.61 47.12 136.16 44.96C134.71 42.81 133.98 40.09 133.98 36.81C133.98 34.02 134.33 31.75 135.04 29.99C136.39 26.68 138.89 25.03 142.52 25.03C146.11 25.03 148.57 26.72 149.91 30.09C150.61 31.88 150.96 34.13 150.96 36.84C150.96 40.24 150.25 42.98 148.82 45.07ZM189.77 36.81L189.77 40.54C189.70 43.89 188.76 46.20 186.94 47.46C185.13 48.73 183.14 49.36 180.98 49.36C179.62 49.36 178.47 48.98 177.52 48.22C176.57 47.46 176.10 46.22 176.10 44.51C176.10 42.59 176.87 41.17 178.42 40.25C179.33 39.71 180.84 39.26 182.95 38.88L185.20 38.46C186.33 38.25 187.21 38.02 187.86 37.78C188.50 37.53 189.14 37.21 189.77 36.81ZM183.69 32.13L180.28 32.55C176.41 33.05 173.48 33.87 171.49 35.02C167.86 37.13 166.04 40.54 166.04 45.25C166.04 48.88 167.17 51.69 169.44 53.67C171.70 55.65 174.56 56.64 178.03 56.64C180.75 56.64 183.19 56.02 185.34 54.77C187.15 53.72 188.74 52.44 190.13 50.94C190.20 51.81 190.29 52.58 190.41 53.26C190.52 53.94 190.73 54.67 191.04 55.44L201.94 55.44L201.94 53.96C201.28 53.66 200.79 53.27 200.46 52.80C200.13 52.34 199.93 51.45 199.86 50.13C199.82 48.40 199.79 46.92 199.79 45.70L199.79 28.13C199.79 23.51 198.16 20.37 194.91 18.70C191.65 17.04 187.92 16.21 183.73 16.21C177.28 16.21 172.73 17.89 170.09 21.27C168.42 23.43 167.48 26.18 167.27 29.53L176.94 29.53C177.18 28.05 177.64 26.88 178.35 26.02C179.33 24.84 181.01 24.26 183.38 24.26C185.48 24.26 187.08 24.56 188.17 25.15C189.26 25.75 189.81 26.84 189.81 28.41C189.81 29.70 189.09 30.64 187.66 31.25C186.87 31.61 185.54 31.90 183.69 32.13ZM184.22 16.10ZM218.92 55.44L218.92 3.62L208.90 3.62L208.90 55.44ZM287.82 12.80L287.82 3.62L249.82 3.62L249.82 55.44L289.09 55.44L289.09 46.13L260.40 46.13L260.40 32.80L285.57 32.80L285.57 23.80L260.40 23.80L260.40 12.80ZM269.09 3.62ZM302.55 9.04C297.70 13.93 295.28 20.91 295.28 29.95C295.28 38.32 297.41 44.91 301.68 49.71C305.94 54.49 311.80 56.88 319.25 56.88C325.28 56.88 330.22 55.11 334.07 51.57C337.93 48.04 340.32 43.44 341.26 37.79L330.54 37.79C329.81 40.46 328.90 42.47 327.80 43.80C325.80 46.29 322.91 47.53 319.11 47.53C315.41 47.53 312.36 46.08 309.96 43.19C307.55 40.29 306.35 35.94 306.35 30.13C306.35 24.32 307.49 19.82 309.76 16.65C312.04 13.47 315.14 11.88 319.08 11.88C322.95 11.88 325.86 13.01 327.83 15.26C328.93 16.52 329.84 18.40 330.54 20.88L341.37 20.88C341.20 17.65 340.01 14.43 337.78 11.21C333.75 5.50 327.38 2.64 318.66 2.64C312.14 2.64 306.77 4.77 302.55 9.04ZM318.34 2.04ZM383.87 3.62L374.52 44.37L365.10 3.62L349.35 3.62L349.35 55.44L359.44 55.44L359.44 20.39C359.44 19.38 359.43 17.97 359.40 16.15C359.38 14.34 359.37 12.94 359.37 11.95L369.11 55.44L379.62 55.44L389.43 11.95C389.43 12.94 389.41 14.34 389.39 16.15C389.37 17.97 389.36 19.38 389.36 20.39L389.36 55.44L399.45 55.44L399.45 3.62ZM416.57 3.62L405.07 3.62L419.77 55.44L429.82 55.44L436.08 25.14L437.91 15.12L439.73 25.14L445.99 55.44L456.33 55.44L470.92 3.62L459.91 3.62L452.99 33.61L451.41 41.55L449.82 33.29L443.67 3.62L432.25 3.62L426.41 33.47L424.90 41.55L423.42 33.29ZM477.46 3.69L477.46 55.44L488.21 55.44L488.21 33.71L510.96 33.71L510.96 24.71L488.21 24.71L488.21 12.80L514.20 12.80L514.20 3.69ZM541.44 3.69L541.44 55.44L552.20 55.44L552.20 33.71L574.95 33.71L574.95 24.71L552.20 24.71L552.20 12.80L578.18 12.80L578.18 3.69ZM594.91 12.55L594.91 3.30L584.75 3.30L584.75 12.55ZM584.75 17.12L584.75 55.44L594.91 55.44L594.91 17.12ZM625.90 16.22C625.78 16.21 625.62 16.21 625.43 16.21C622.43 16.21 619.99 16.99 618.12 18.56C616.97 19.50 615.62 21.25 614.07 23.80L614.07 17.12L604.51 17.12L604.51 55.44L614.60 55.44L614.60 37.13C614.60 34.05 614.99 31.78 615.76 30.30C617.14 27.68 619.85 26.37 623.88 26.37C624.19 26.37 624.59 26.38 625.08 26.40C625.57 26.43 626.13 26.47 626.77 26.54L626.77 16.28C626.32 16.25 626.03 16.24 625.90 16.22ZM642.36 26.54C643.63 25.09 645.43 24.36 647.75 24.36C649.89 24.36 651.67 25.05 653.12 26.42C654.56 27.79 655.36 29.80 655.52 32.45L639.95 32.45C640.28 29.96 641.08 28.00 642.36 26.54ZM656.37 17.89C653.81 16.70 650.94 16.10 647.75 16.10C642.39 16.10 638.02 17.87 634.66 21.41C631.29 24.95 629.61 30.04 629.61 36.67C629.61 43.75 631.48 48.86 635.20 52.00C638.93 55.14 643.23 56.71 648.11 56.71C654.01 56.71 658.61 54.84 661.89 51.12C664.00 48.77 665.18 46.46 665.44 44.19L655.21 44.19C654.67 45.32 654.05 46.20 653.34 46.83C652.05 48.00 650.38 48.59 648.32 48.59C646.37 48.59 644.71 48.11 643.32 47.14C641.05 45.60 639.84 42.90 639.70 39.06L665.93 39.06C665.98 35.75 665.87 33.22 665.61 31.46C665.17 28.46 664.20 25.83 662.70 23.55C661.03 20.98 658.92 19.09 656.37 17.89ZM648.46 16.10ZM693.49 3.69L693.49 55.44L704.25 55.44L704.25 33.71L727.00 33.71L727.00 24.71L704.25 24.71L704.25 12.80L730.23 12.80L730.23 3.69ZM760.61 45.25C759.04 47.33 756.79 48.38 753.86 48.38C750.93 48.38 748.67 47.33 747.09 45.25C745.51 43.16 744.71 40.20 744.71 36.35C744.71 32.51 745.51 29.55 747.09 27.47C748.67 25.40 750.93 24.36 753.86 24.36C756.79 24.36 759.04 25.40 760.61 27.47C762.18 29.55 762.96 32.51 762.96 36.35C762.96 40.20 762.18 43.16 760.61 45.25ZM768.62 50.78C771.86 46.79 773.47 41.98 773.47 36.35C773.47 30.82 771.86 26.03 768.62 21.97C765.39 17.92 760.48 15.89 753.89 15.89C747.30 15.89 742.39 17.92 739.16 21.97C735.93 26.03 734.31 30.82 734.31 36.35C734.31 41.98 735.93 46.79 739.16 50.78C742.39 54.78 747.30 56.78 753.89 56.78C760.48 56.78 765.39 54.78 768.62 50.78ZM753.89 16.10ZM801.93 16.22C801.80 16.21 801.64 16.21 801.46 16.21C798.46 16.21 796.02 16.99 794.14 18.56C793.00 19.50 791.65 21.25 790.10 23.80L790.10 17.12L780.54 17.12L780.54 55.44L790.63 55.44L790.63 37.13C790.63 34.05 791.02 31.78 791.79 30.30C793.17 27.68 795.88 26.37 799.91 26.37C800.21 26.37 800.61 26.38 801.11 26.40C801.60 26.43 802.16 26.47 802.79 26.54L802.79 16.28C802.35 16.25 802.06 16.24 801.93 16.22ZM818.38 26.54C819.66 25.09 821.46 24.36 823.78 24.36C825.91 24.36 827.70 25.05 829.14 26.42C830.58 27.79 831.39 29.80 831.55 32.45L815.98 32.45C816.30 29.96 817.11 28.00 818.38 26.54ZM832.39 17.89C829.84 16.70 826.97 16.10 823.78 16.10C818.41 16.10 814.05 17.87 810.69 21.41C807.32 24.95 805.64 30.04 805.64 36.67C805.64 43.75 807.50 48.86 811.23 52.00C814.96 55.14 819.26 56.71 824.13 56.71C830.04 56.71 834.63 54.84 837.91 51.12C840.02 48.77 841.21 46.46 841.46 44.19L831.23 44.19C830.70 45.32 830.07 46.20 829.37 46.83C828.08 48.00 826.41 48.59 824.34 48.59C822.40 48.59 820.73 48.11 819.35 47.14C817.08 45.60 815.87 42.90 815.73 39.06L841.96 39.06C842.00 35.75 841.90 33.22 841.64 31.46C841.20 28.46 840.22 25.83 838.72 23.55C837.06 20.98 834.95 19.09 832.39 17.89ZM824.48 16.10ZM871.59 30.87L881.86 30.87C881.30 25.41 879.49 21.60 876.43 19.44C873.37 17.29 869.44 16.21 864.63 16.21C858.98 16.21 854.55 18.04 851.34 21.69C848.13 25.35 846.53 30.47 846.53 37.05C846.53 42.89 847.98 47.64 850.89 51.29C853.79 54.95 858.33 56.78 864.49 56.78C870.66 56.78 875.31 54.59 878.45 50.20C880.42 47.48 881.52 44.60 881.75 41.55L871.52 41.55C871.31 43.57 870.71 45.21 869.73 46.48C868.75 47.74 867.08 48.38 864.74 48.38C861.43 48.38 859.18 46.78 857.99 43.59C857.33 41.88 857.00 39.62 857.00 36.81C857.00 33.86 857.33 31.49 857.99 29.71C859.23 26.36 861.54 24.68 864.91 24.68C867.28 24.68 869.03 25.45 870.15 27C870.93 28.15 871.41 29.44 871.59 30.87ZM864.81 16.10ZM909.88 36.81L909.88 40.54C909.81 43.89 908.87 46.20 907.05 47.46C905.23 48.73 903.25 49.36 901.09 49.36C899.73 49.36 898.58 48.98 897.63 48.22C896.68 47.46 896.20 46.22 896.20 44.51C896.20 42.59 896.98 41.17 898.52 40.25C899.44 39.71 900.95 39.26 903.06 38.88L905.31 38.46C906.43 38.25 907.32 38.02 907.96 37.78C908.61 37.53 909.25 37.21 909.88 36.81ZM903.80 32.13L900.39 32.55C896.52 33.05 893.59 33.87 891.60 35.02C887.96 37.13 886.15 40.54 886.15 45.25C886.15 48.88 887.28 51.69 889.54 53.67C891.80 55.65 894.67 56.64 898.14 56.64C900.86 56.64 903.29 56.02 905.45 54.77C907.25 53.72 908.85 52.44 910.23 50.94C910.30 51.81 910.39 52.58 910.51 53.26C910.63 53.94 910.84 54.67 911.14 55.44L922.04 55.44L922.04 53.96C921.39 53.66 920.89 53.27 920.57 52.80C920.24 52.34 920.04 51.45 919.97 50.13C919.92 48.40 919.90 46.92 919.90 45.70L919.90 28.13C919.90 23.51 918.27 20.37 915.01 18.70C911.75 17.04 908.03 16.21 903.83 16.21C897.39 16.21 892.84 17.89 890.19 21.27C888.53 23.43 887.59 26.18 887.38 29.53L897.05 29.53C897.28 28.05 897.75 26.88 898.45 26.02C899.44 24.84 901.11 24.26 903.48 24.26C905.59 24.26 907.19 24.56 908.28 25.15C909.37 25.75 909.91 26.84 909.91 28.41C909.91 29.70 909.20 30.64 907.77 31.25C906.97 31.61 905.65 31.90 903.80 32.13ZM904.32 16.10ZM936.60 43.21L926.44 43.21C926.44 47.14 927.87 50.38 930.74 52.93C933.62 55.47 938.06 56.74 944.09 56.74C949.99 56.74 954.36 55.54 957.18 53.14C960.01 50.74 961.42 47.64 961.42 43.84C961.42 40.96 960.43 38.55 958.46 36.63C956.47 34.73 953.48 33.32 949.50 32.38C943.52 31.07 940.04 30.14 939.06 29.60C938.07 29.09 937.58 28.25 937.58 27.11C937.58 26.19 938.04 25.39 938.97 24.71C939.90 24.04 941.45 23.70 943.63 23.70C946.28 23.70 948.15 24.37 949.25 25.73C949.84 26.48 950.20 27.50 950.34 28.79L960.36 28.79C959.92 24.11 958.19 20.81 955.18 18.90C952.17 16.99 948.27 16.03 943.49 16.03C938.45 16.03 934.54 17.30 931.76 19.85C928.99 22.39 927.60 25.43 927.60 28.97C927.60 31.97 928.49 34.27 930.27 35.86C932.05 37.48 935.11 38.82 939.45 39.90C945.47 41.33 948.95 42.34 949.89 42.93C950.82 43.51 951.29 44.37 951.29 45.49C951.29 46.66 950.71 47.54 949.55 48.13C948.39 48.71 946.83 49.01 944.86 49.01C941.51 49.01 939.21 48.34 937.97 47.00C937.27 46.25 936.81 44.99 936.60 43.21ZM944.26 16.10ZM964.90 24.61L970.24 24.61L970.24 48.20C970.24 50.59 970.80 52.36 971.93 53.51C973.66 55.31 976.90 56.13 981.63 55.97L986.38 55.79L986.38 48.30C986.05 48.33 985.72 48.35 985.38 48.36C985.04 48.37 984.71 48.38 984.41 48.38C982.37 48.38 981.15 48.18 980.75 47.79C980.36 47.41 980.16 46.43 980.16 44.86L980.16 24.61L986.38 24.61L986.38 17.47L980.16 17.47L980.16 6.79L970.24 6.79L970.24 17.47L964.90 17.47ZM1003.11 12.55L1003.11 3.30L992.95 3.30L992.95 12.55ZM992.95 17.12L992.95 55.44L1003.11 55.44L1003.11 17.12ZM1043.77 19.32C1041.25 17.24 1038.01 16.21 1034.05 16.21C1030.89 16.21 1028.27 16.98 1026.21 18.53C1025.06 19.39 1023.84 20.81 1022.55 22.78L1022.55 17.19L1012.89 17.19L1012.89 55.44L1022.87 55.44L1022.87 34.70C1022.87 32.33 1023.20 30.39 1023.86 28.86C1025.12 25.98 1027.45 24.54 1030.85 24.54C1033.62 24.54 1035.49 25.52 1036.48 27.49C1037.02 28.57 1037.29 30.12 1037.29 32.13L1037.29 55.44L1047.55 55.44L1047.55 29.64C1047.55 24.83 1046.29 21.39 1043.77 19.32ZM1030.36 16.10ZM1079.19 44.56C1077.57 46.33 1075.59 47.21 1073.25 47.21C1069.73 47.21 1067.30 45.60 1065.94 42.36C1065.19 40.63 1064.81 38.65 1064.81 36.42C1064.81 33.84 1065.16 31.68 1065.87 29.92C1067.20 26.61 1069.63 24.96 1073.14 24.96C1075.72 24.96 1077.78 25.91 1079.31 27.81C1080.85 29.71 1081.62 32.47 1081.62 36.11C1081.62 39.97 1080.81 42.79 1079.19 44.56ZM1075.78 17.09C1074.35 16.50 1072.68 16.21 1070.75 16.21C1065.55 16.21 1061.53 18.15 1058.70 22.03C1055.86 25.90 1054.44 30.69 1054.44 36.39C1054.44 42.29 1055.91 46.97 1058.85 50.43C1061.79 53.89 1065.73 55.62 1070.65 55.62C1073.84 55.62 1076.43 54.86 1078.42 53.33C1079.52 52.51 1080.55 51.28 1081.51 49.64L1081.51 52.10C1081.51 55.76 1081.11 58.36 1080.32 59.91C1079.10 62.32 1076.68 63.53 1073.07 63.53C1070.52 63.53 1068.70 63.07 1067.63 62.16C1066.99 61.64 1066.54 60.80 1066.25 59.63L1055.36 59.63C1055.68 63.45 1057.39 66.32 1060.49 68.24C1063.58 70.16 1067.58 71.12 1072.48 71.12C1080.59 71.12 1086.07 68.96 1088.93 64.65C1090.59 62.14 1091.43 58.42 1091.43 53.47L1091.43 17.12L1081.69 17.12L1081.69 22.64C1080.19 19.95 1078.22 18.09 1075.78 17.09ZM1073.95 16.10Z" transform="translate(22.034 84) scale(.19906)"/></svg>
