<svg width="1016.116" height="73.049" viewBox="0 0 1016.116 73.049" xmlns="http://www.w3.org/2000/svg"><g id="svgGroup" stroke-linecap="round" fill-rule="evenodd" font-size="9pt" stroke="#000" stroke-width="0.25mm" fill="#000" style="stroke:#000;stroke-width:0.25mm;fill:#000"><path d="M 54.786 36.671 L 54.786 62.745 A 21.051 21.051 0 0 1 46.749 69.573 A 26.271 26.271 0 0 1 44.703 70.484 A 35.134 35.134 0 0 1 37.23 72.484 Q 33.779 73.03 29.891 73.047 A 57.314 57.314 0 0 1 29.64 73.048 Q 20.948 73.048 14.21 68.971 A 26.997 26.997 0 0 1 4.138 58.071 A 32.488 32.488 0 0 1 3.785 57.374 Q 0.099 49.854 0.001 39.942 L 0.001 33.741 Q 0.001 17.677 7.496 8.839 Q 14.991 0.001 28.566 0.001 A 35.462 35.462 0 0 1 36.155 0.768 Q 41.342 1.904 45.243 4.722 A 21.876 21.876 0 0 1 46.485 5.689 Q 53.273 11.378 54.786 21.827 L 45.411 21.827 Q 43.112 9.521 32.049 7.947 A 24.387 24.387 0 0 0 28.614 7.716 A 21.301 21.301 0 0 0 22.675 8.498 A 15.402 15.402 0 0 0 14.332 14.332 A 22.067 22.067 0 0 0 11.178 20.687 Q 10.21 23.696 9.776 27.365 A 54.12 54.12 0 0 0 9.425 33.497 L 9.425 39.308 A 42.518 42.518 0 0 0 10.071 46.952 Q 11.305 53.696 14.894 58.326 A 17.438 17.438 0 0 0 27.556 65.285 A 22.986 22.986 0 0 0 29.689 65.382 Q 34.499 65.382 38.212 64.407 A 23.408 23.408 0 0 0 38.917 64.21 A 15.076 15.076 0 0 0 43.23 62.183 A 13.522 13.522 0 0 0 45.46 60.255 L 45.46 44.288 L 29.005 44.288 L 29.005 36.671 L 54.786 36.671 Z M 443.019 21.534 L 433.595 21.534 A 16.286 16.286 0 0 0 433.042 17.173 A 11.848 11.848 0 0 0 429.493 11.402 A 13.451 13.451 0 0 0 424.276 8.553 Q 422.224 7.938 419.758 7.775 A 27.804 27.804 0 0 0 417.921 7.716 Q 410.987 7.716 407.106 10.767 A 9.916 9.916 0 0 0 403.274 18.042 A 14.08 14.08 0 0 0 403.224 19.239 A 8.951 8.951 0 0 0 406.199 25.964 A 12.603 12.603 0 0 0 406.91 26.588 Q 410.02 29.121 416.811 31.289 A 78.891 78.891 0 0 0 419.459 32.081 Q 425.251 33.708 429.396 35.555 A 36.633 36.633 0 0 1 433.326 37.574 A 26.017 26.017 0 0 1 437.089 40.286 Q 439.201 42.135 440.559 44.275 A 16.107 16.107 0 0 1 440.748 44.581 A 16.649 16.649 0 0 1 442.929 50.756 A 21.644 21.644 0 0 1 443.165 54.005 Q 443.165 62.647 436.427 67.848 Q 429.689 73.048 418.409 73.048 Q 411.085 73.048 404.737 70.24 A 26.476 26.476 0 0 1 399.425 67.152 A 20.817 20.817 0 0 1 394.947 62.55 A 18.768 18.768 0 0 1 391.505 51.466 L 400.929 51.466 A 14.01 14.01 0 0 0 401.699 56.213 A 11.929 11.929 0 0 0 405.69 61.646 A 16.542 16.542 0 0 0 411.65 64.561 Q 414.678 65.382 418.409 65.382 A 29.197 29.197 0 0 0 422.709 65.086 Q 427.067 64.436 429.786 62.354 A 9.653 9.653 0 0 0 433.68 55.374 A 12.794 12.794 0 0 0 433.741 54.102 A 11.931 11.931 0 0 0 433.268 50.653 A 9.062 9.062 0 0 0 430.079 46.021 A 17.328 17.328 0 0 0 427.59 44.443 Q 424.806 42.957 420.388 41.491 A 97.523 97.523 0 0 0 416.798 40.382 A 76.133 76.133 0 0 1 410.216 38.183 Q 403.107 35.415 399.244 31.861 A 16.667 16.667 0 0 1 394.765 25.327 A 17.047 17.047 0 0 1 393.751 19.386 Q 393.751 10.987 400.465 5.494 A 23.562 23.562 0 0 1 410.359 0.79 A 34.301 34.301 0 0 1 417.921 0.001 A 32.365 32.365 0 0 1 425.255 0.8 A 26.353 26.353 0 0 1 430.983 2.833 A 22.784 22.784 0 0 1 436.883 6.953 A 20.38 20.38 0 0 1 439.869 10.645 A 19.977 19.977 0 0 1 443.019 21.534 Z M 1015.968 21.534 L 1006.544 21.534 A 16.286 16.286 0 0 0 1005.991 17.173 A 11.848 11.848 0 0 0 1002.442 11.402 A 13.451 13.451 0 0 0 997.226 8.553 Q 995.173 7.938 992.708 7.775 A 27.804 27.804 0 0 0 990.87 7.716 Q 983.937 7.716 980.055 10.767 A 9.916 9.916 0 0 0 976.223 18.042 A 14.08 14.08 0 0 0 976.173 19.239 A 8.951 8.951 0 0 0 979.149 25.964 A 12.603 12.603 0 0 0 979.859 26.588 Q 982.969 29.121 989.76 31.289 A 78.891 78.891 0 0 0 992.408 32.081 Q 998.2 33.708 1002.345 35.555 A 36.633 36.633 0 0 1 1006.275 37.574 A 26.017 26.017 0 0 1 1010.038 40.286 Q 1012.15 42.135 1013.508 44.275 A 16.107 16.107 0 0 1 1013.697 44.581 A 16.649 16.649 0 0 1 1015.878 50.756 A 21.644 21.644 0 0 1 1016.114 54.005 Q 1016.114 62.647 1009.376 67.848 Q 1002.638 73.048 991.358 73.048 Q 984.034 73.048 977.687 70.24 A 26.476 26.476 0 0 1 972.374 67.152 A 20.817 20.817 0 0 1 967.897 62.55 A 18.768 18.768 0 0 1 964.454 51.466 L 973.878 51.466 A 14.01 14.01 0 0 0 974.649 56.213 A 11.929 11.929 0 0 0 978.639 61.646 A 16.542 16.542 0 0 0 984.6 64.561 Q 987.628 65.382 991.358 65.382 A 29.197 29.197 0 0 0 995.659 65.086 Q 1000.016 64.436 1002.735 62.354 A 9.653 9.653 0 0 0 1006.629 55.374 A 12.794 12.794 0 0 0 1006.691 54.102 A 11.931 11.931 0 0 0 1006.218 50.653 A 9.062 9.062 0 0 0 1003.028 46.021 A 17.328 17.328 0 0 0 1000.539 44.443 Q 997.755 42.957 993.337 41.491 A 97.523 97.523 0 0 0 989.747 40.382 A 76.133 76.133 0 0 1 983.165 38.183 Q 976.056 35.415 972.193 31.861 A 16.667 16.667 0 0 1 967.714 25.327 A 17.047 17.047 0 0 1 966.7 19.386 Q 966.7 10.987 973.414 5.494 A 23.562 23.562 0 0 1 983.308 0.79 A 34.301 34.301 0 0 1 990.87 0.001 A 32.365 32.365 0 0 1 998.204 0.8 A 26.353 26.353 0 0 1 1003.932 2.833 A 22.784 22.784 0 0 1 1009.832 6.953 A 20.38 20.38 0 0 1 1012.818 10.645 A 19.977 19.977 0 0 1 1015.968 21.534 Z M 685.401 72.071 L 669.972 43.311 L 653.273 43.311 L 653.273 72.071 L 643.849 72.071 L 643.849 0.977 L 667.384 0.977 A 42.321 42.321 0 0 1 674.51 1.539 Q 678.315 2.19 681.355 3.596 A 19.874 19.874 0 0 1 685.865 6.446 A 17.646 17.646 0 0 1 691.703 16.32 A 27.252 27.252 0 0 1 692.335 22.364 A 20.706 20.706 0 0 1 691.322 28.938 A 18.222 18.222 0 0 1 688.746 33.936 A 20.539 20.539 0 0 1 681.425 40.122 A 26.027 26.027 0 0 1 678.761 41.309 L 695.46 71.485 L 695.46 72.071 L 685.401 72.071 Z M 838.282 0.977 L 838.282 8.692 L 815.431 8.692 L 815.431 72.071 L 806.105 72.071 L 806.105 8.692 L 783.302 8.692 L 783.302 0.977 L 838.282 0.977 Z M 298.097 72.071 L 291.31 53.517 L 261.525 53.517 L 254.835 72.071 L 245.167 72.071 L 272.316 0.977 L 280.519 0.977 L 307.716 72.071 L 298.097 72.071 Z M 624.708 72.071 L 617.921 53.517 L 588.136 53.517 L 581.446 72.071 L 571.778 72.071 L 598.927 0.977 L 607.13 0.977 L 634.327 72.071 L 624.708 72.071 Z M 776.271 72.071 L 769.483 53.517 L 739.698 53.517 L 733.009 72.071 L 723.341 72.071 L 750.489 0.977 L 758.692 0.977 L 785.89 72.071 L 776.271 72.071 Z M 949.61 72.071 L 942.823 53.517 L 913.038 53.517 L 906.349 72.071 L 896.681 72.071 L 923.829 0.977 L 932.032 0.977 L 959.23 72.071 L 949.61 72.071 Z M 214.454 72.071 L 189.796 72.071 L 189.796 0.977 L 213.038 0.977 Q 224.61 0.977 230.445 5.763 A 15.372 15.372 0 0 1 235.682 14.388 A 24.045 24.045 0 0 1 236.28 19.923 A 14.44 14.44 0 0 1 233.448 28.736 A 17.653 17.653 0 0 1 227.772 33.667 A 21.915 21.915 0 0 1 225.733 34.669 A 17.455 17.455 0 0 1 231.451 37.401 A 16.069 16.069 0 0 1 234.84 40.797 A 17.015 17.015 0 0 1 238.084 49.443 A 21.793 21.793 0 0 1 238.185 51.563 A 23.767 23.767 0 0 1 237.349 58.039 A 17.527 17.527 0 0 1 231.983 66.602 A 20.359 20.359 0 0 1 224.294 70.767 Q 221.332 71.664 217.792 71.944 A 42.332 42.332 0 0 1 214.454 72.071 Z M 79.835 0.977 L 79.835 64.405 L 113.526 64.405 L 113.526 72.071 L 70.411 72.071 L 70.411 0.977 L 79.835 0.977 Z M 326.71 0.977 L 326.71 64.405 L 360.401 64.405 L 360.401 72.071 L 317.286 72.071 L 317.286 0.977 L 326.71 0.977 Z M 533.351 0.977 L 533.351 64.405 L 567.042 64.405 L 567.042 72.071 L 523.927 72.071 L 523.927 0.977 L 533.351 0.977 Z M 858.253 0.977 L 858.253 64.405 L 891.944 64.405 L 891.944 72.071 L 848.829 72.071 L 848.829 0.977 L 858.253 0.977 Z M 175.733 34.327 L 175.733 38.819 A 52.539 52.539 0 0 1 175.012 47.742 A 38.392 38.392 0 0 1 172.218 57.057 A 29.42 29.42 0 0 1 167.813 64.108 A 24.73 24.73 0 0 1 162.257 68.946 A 26.243 26.243 0 0 1 150.938 72.844 A 33.257 33.257 0 0 1 147.218 73.048 A 29.087 29.087 0 0 1 138.258 71.706 A 25.698 25.698 0 0 1 132.325 68.922 A 26.573 26.573 0 0 1 123.435 59.456 A 32.814 32.814 0 0 1 122.242 57.154 A 38.071 38.071 0 0 1 119.165 46.943 A 50.383 50.383 0 0 1 118.556 39.454 L 118.556 34.327 A 50.218 50.218 0 0 1 119.392 24.955 A 38.458 38.458 0 0 1 122.12 16.212 A 29.878 29.878 0 0 1 126.661 8.992 A 25.278 25.278 0 0 1 132.203 4.176 A 26.547 26.547 0 0 1 145.05 0.066 A 32.447 32.447 0 0 1 147.12 0.001 Q 155.665 0.001 162.184 4.127 A 25.667 25.667 0 0 1 170.778 13.253 A 32.361 32.361 0 0 1 172.218 16.09 A 39.162 39.162 0 0 1 175.108 26.008 A 52.924 52.924 0 0 1 175.733 34.327 Z M 509.864 34.327 L 509.864 38.819 A 52.539 52.539 0 0 1 509.143 47.742 A 38.392 38.392 0 0 1 506.349 57.057 A 29.42 29.42 0 0 1 501.944 64.108 A 24.73 24.73 0 0 1 496.388 68.946 A 26.243 26.243 0 0 1 485.069 72.844 A 33.257 33.257 0 0 1 481.349 73.048 A 29.087 29.087 0 0 1 472.389 71.706 A 25.698 25.698 0 0 1 466.456 68.922 A 26.573 26.573 0 0 1 457.566 59.456 A 32.814 32.814 0 0 1 456.373 57.154 A 38.071 38.071 0 0 1 453.296 46.943 A 50.383 50.383 0 0 1 452.687 39.454 L 452.687 34.327 A 50.218 50.218 0 0 1 453.523 24.955 A 38.458 38.458 0 0 1 456.251 16.212 A 29.878 29.878 0 0 1 460.792 8.992 A 25.278 25.278 0 0 1 466.334 4.176 A 26.547 26.547 0 0 1 479.181 0.066 A 32.447 32.447 0 0 1 481.251 0.001 Q 489.796 0.001 496.315 4.127 A 25.667 25.667 0 0 1 504.909 13.253 A 32.361 32.361 0 0 1 506.349 16.09 A 39.162 39.162 0 0 1 509.239 26.008 A 52.924 52.924 0 0 1 509.864 34.327 Z M 166.407 39.503 L 166.407 34.229 A 50.57 50.57 0 0 0 165.911 26.9 Q 165.366 23.185 164.22 20.165 A 21.595 21.595 0 0 0 161.329 14.82 Q 156.251 8.058 147.12 8.058 A 18.706 18.706 0 0 0 140.524 9.174 A 16.332 16.332 0 0 0 133.131 14.82 A 23.472 23.472 0 0 0 129.524 22.027 Q 127.962 27.026 127.882 33.595 L 127.882 38.819 Q 127.882 51.075 133.033 58.082 A 16.351 16.351 0 0 0 144.887 64.965 A 21.456 21.456 0 0 0 147.218 65.089 A 19.886 19.886 0 0 0 153.423 64.168 A 15.809 15.809 0 0 0 161.28 58.473 Q 166.261 51.856 166.407 39.503 Z M 500.538 39.503 L 500.538 34.229 A 50.57 50.57 0 0 0 500.042 26.9 Q 499.497 23.185 498.351 20.165 A 21.595 21.595 0 0 0 495.46 14.82 Q 490.382 8.058 481.251 8.058 A 18.706 18.706 0 0 0 474.655 9.174 A 16.332 16.332 0 0 0 467.262 14.82 A 23.472 23.472 0 0 0 463.655 22.027 Q 462.093 27.026 462.013 33.595 L 462.013 38.819 Q 462.013 51.075 467.164 58.082 A 16.351 16.351 0 0 0 479.018 64.965 A 21.456 21.456 0 0 0 481.349 65.089 A 19.886 19.886 0 0 0 487.554 64.168 A 15.809 15.809 0 0 0 495.411 58.473 Q 500.392 51.856 500.538 39.503 Z M 653.273 8.692 L 653.273 35.645 L 667.677 35.645 A 21.848 21.848 0 0 0 672.303 35.184 Q 675.296 34.535 677.569 32.977 A 13.041 13.041 0 0 0 678.785 32.032 A 11.876 11.876 0 0 0 682.847 23.84 A 16.513 16.513 0 0 0 682.911 22.364 Q 682.911 16.337 679.625 12.881 A 11.111 11.111 0 0 0 678.981 12.257 A 12.799 12.799 0 0 0 674.354 9.664 Q 672.451 9.043 670.149 8.819 A 27.89 27.89 0 0 0 667.628 8.692 L 653.273 8.692 Z M 214.796 38.819 L 199.171 38.819 L 199.171 64.405 L 214.65 64.405 Q 221.192 64.405 224.977 61.012 A 11.146 11.146 0 0 0 228.549 54.333 A 16.207 16.207 0 0 0 228.761 51.661 A 16.863 16.863 0 0 0 228.006 46.385 Q 225.515 38.819 214.796 38.819 Z M 276.417 12.55 L 264.357 45.802 L 288.526 45.802 L 276.417 12.55 Z M 603.028 12.55 L 590.968 45.802 L 615.138 45.802 L 603.028 12.55 Z M 754.591 12.55 L 742.53 45.802 L 766.7 45.802 L 754.591 12.55 Z M 927.931 12.55 L 915.87 45.802 L 940.04 45.802 L 927.931 12.55 Z M 199.171 8.692 L 199.171 31.3 L 213.331 31.3 Q 218.591 31.3 222.048 29.052 A 11.729 11.729 0 0 0 223.17 28.224 A 10.056 10.056 0 0 0 226.812 21.001 A 14.115 14.115 0 0 0 226.857 19.874 A 15.816 15.816 0 0 0 226.555 16.677 Q 225.842 13.225 223.439 11.353 Q 220.036 8.705 213.103 8.692 A 36.595 36.595 0 0 0 213.038 8.692 L 199.171 8.692 Z" vector-effect="non-scaling-stroke"/></g></svg>