<svg xmlns="http://www.w3.org/2000/svg" role="img" viewBox="-1.97 -1.97 77.69 95.94"><defs><style>.cls-2{fill:#fff}</style></defs><g id="Digital_Logo" data-name="Digital Logo"><g id="For_Print" data-name="For Print"><path id="Water" fill="#0085ca" d="M70.17 20.61c-5.27 7.93-14 19-24.19 22.69l-1.26.53a2.86 2.86 0 0 0 .77.23h1.2c2.58-.1 6.3-1.19 7.06 1.43A30.55 30.55 0 0 0 39 49.41c-4.61 2.53-10.45 4.81-14.27 1.26 3.06-.41 8.71-2.26 10.7-4.07C19.25 46.38 12.06 36.3 7 30.79c-1.82-2.11-3.69-3.88-5.6-4.06a37 37 0 1 0 68.74-6.12z"/><path id="Bird" d="M7 30.77c5 5.51 12.22 15.58 28.42 15.81-2 1.8-7.64 3.65-10.7 4.07C28.53 54.22 34.41 52 39 49.39a30.46 30.46 0 0 1 14.69-3.87C53 42.9 49.23 44 46.65 44.08h-1.2a2.63 2.63 0 0 1-.77-.23l1.26-.52c10.16-3.79 18.91-14.79 24.19-22.78a35.57 35.57 0 0 0-3.78-6c-9.52 1.74-12.6 15.68-18 22.59-7.16 10.08-14 7.85-21.27 1.13S14.44 19.61 6.77 15.54a37.06 37.06 0 0 0-5.39 11.18c1.96.19 3.83 1.96 5.62 4.05z" class="cls-2"/><path id="Sky" fill="#003087" d="M27.1 38.26c7.22 6.72 14.11 8.92 21.28-1.14 5.45-6.91 8.5-20.85 18-22.59a37 37 0 0 0-59.58 1c7.69 4.08 13.08 16.12 20.3 22.73z"/><path d="M26.45 24h1.94v-7.75a2.06 2.06 0 0 0-2.25-1.87h-4V24h1.95v-7.75h1.78c.38 0 .59.26.59.7zm11.25 0v-7.75a2.07 2.07 0 0 1 1.94-1.87h2.41A1.87 1.87 0 0 1 44 16.17V24h-1.95v-3.62h-2.41V24zm4.35-7a.69.69 0 0 0-.68-.7h-1a.72.72 0 0 0-.66.7v1.58h2.39zm3.43 7v-7.75a2.08 2.08 0 0 1 2-1.87h2.32a1.87 1.87 0 0 1 1.94 1.79V24H49.8v-3.62h-2.37V24zm4.32-7a.69.69 0 0 0-.68-.7h-1a.71.71 0 0 0-.64.7v1.58h2.32zm-15.58-2.62h-2.38a1.93 1.93 0 0 0-1.95 1.85v6A2.19 2.19 0 0 0 31.84 24h2.38a2.24 2.24 0 0 0 1.94-1.8v-6a1.89 1.89 0 0 0-1.93-1.85zm0 7.2a.63.63 0 0 1-.63.63h-1.11a.62.62 0 0 1-.64-.62v-4.76a.63.63 0 0 1 .63-.63h1.11a.63.63 0 0 1 .64.61v4.77z" class="cls-2" id="Wordmark"/></g></g><path d="M18.03153 81.21824h3.15557c-.17465-1.47714-.85254-2.71155-2.03662-3.70025-1.18112-.98575-2.74706-1.4801-4.69784-1.4801-2.24679 0-4.05547.74893-5.42308 2.24679-1.36465 1.49786-2.04846 3.49007-2.04846 5.97368 0 2.45697.67493 4.38998 2.02774 5.80791 1.29952 1.4061 2.96316 2.11063 4.99681 2.11063 1.2344 0 2.2764-.2605 3.12302-.77854.49139-.29898 1.04495-.81405 1.66363-1.54226l.32266 1.91525h2.12246v-8.23232h-6.3881v2.56058h3.54631c-.15689 1.00646-.5802 1.82052-1.26696 2.44216-.68677.61868-1.56891.9295-2.64346.9295-1.09824 0-2.0751-.39074-2.93652-1.1752-.85846-.78445-1.29065-2.1195-1.29065-4.0081 0-1.87085.39667-3.27399 1.19296-4.20941.79334-.93246 1.80868-1.40018 3.04309-1.40018.64532 0 1.23144.11545 1.75836.34635.9443.41443 1.53634 1.1456 1.77908 2.1935zm-3.58777-5.18035zm19.66165 12.03913c-.74597.93838-1.75244 1.4061-3.02236 1.4061-1.26993 0-2.28232-.46772-3.04013-1.4061-.75485-.93542-1.13375-2.26751-1.13375-3.99627 0-1.7258.3789-3.05789 1.13375-3.99627.75781-.93542 1.7702-1.4061 3.04013-1.4061 1.26992 0 2.2764.47068 3.02236 1.41202.74597.93838 1.11896 2.27047 1.11896 3.99035 0 1.72876-.37299 3.06085-1.11896 3.99627zm2.00406 2.33264c1.54818-1.4653 2.3208-3.57296 2.3208-6.32891 0-2.80923-.77262-4.91985-2.3208-6.32595-1.15744-1.19592-2.83291-1.79092-5.02642-1.79092s-3.86898.595-5.02642 1.79092c-1.5541 1.4061-2.33264 3.51672-2.33264 6.32595 0 2.75595.77853 4.8636 2.33264 6.3289 1.15744 1.19297 2.83291 1.78797 5.02642 1.78797 2.1935 0 3.86898-.595 5.02642-1.78796zm-5.02642-14.44578zm9.79234.46771v15.33976h10.80177V89.0154h-7.59587V76.4316zm16.13013 2.66418h2.95724c1.45642 0 2.43032.4174 2.91876 1.25513.48843.83477.73413 2.03365.73413 3.59368 0 1.1308-.16281 2.10766-.48844 2.92468-.59796 1.49194-1.65179 2.2379-3.16445 2.2379h-2.95724zm5.87008-2.32968c-.63053-.21017-1.4209-.3197-2.37112-.3345h-6.61013v15.33976h6.61013c2.31783 0 4.02883-.95319 5.1389-2.86251.81998-1.41498 1.22849-3.14078 1.22849-5.18035 0-.80518-.09769-1.6518-.2901-2.53986-.19538-.88806-.55948-1.71395-1.09232-2.47768-.66604-.9443-1.53634-1.5926-2.61385-1.94485z"/></svg>
