<svg width="241.501" height="72.401" viewBox="0 0 241.501 72.401" xmlns="http://www.w3.org/2000/svg"><g id="svgGroup" stroke-linecap="round" fill-rule="evenodd" font-size="9pt" stroke="#000" stroke-width="0.25mm" fill="#000" style="stroke:#000;stroke-width:0.25mm;fill:#000"><path d="M 53.201 5.7 L 49.701 13.6 Q 45.501 11.3 41.151 9.8 A 27.36 27.36 0 0 0 35.051 8.48 A 34.225 34.225 0 0 0 31.501 8.3 A 20.13 20.13 0 0 0 24.014 9.671 A 18.919 18.919 0 0 0 20.301 11.65 A 20.295 20.295 0 0 0 14.976 17.068 A 27.457 27.457 0 0 0 12.551 21.5 A 31.614 31.614 0 0 0 10.505 28.231 Q 9.902 31.363 9.751 34.955 A 58.311 58.311 0 0 0 9.701 37.4 Q 9.701 44.709 11.669 50.163 A 26.036 26.036 0 0 0 12.301 51.75 A 24.18 24.18 0 0 0 15.233 56.797 A 19.102 19.102 0 0 0 19.501 60.9 A 17.93 17.93 0 0 0 29.31 64.086 A 21.993 21.993 0 0 0 30.101 64.1 A 22.762 22.762 0 0 0 35.698 63.437 A 18.835 18.835 0 0 0 40.051 61.75 A 40.361 40.361 0 0 0 43.053 59.967 Q 45.338 58.463 46.901 56.9 L 46.901 41.6 L 32.401 41.6 L 32.401 34.1 L 55.901 34.1 L 55.901 71.2 L 47.501 71.2 L 47.501 64.2 A 35.883 35.883 0 0 1 43.122 67.492 A 47.354 47.354 0 0 1 39.001 69.85 A 23.594 23.594 0 0 1 29.594 72.35 A 28.131 28.131 0 0 1 27.901 72.4 A 26.572 26.572 0 0 1 18.588 70.8 A 24.511 24.511 0 0 1 13.501 68.2 Q 7.201 64 3.601 56.25 A 37.529 37.529 0 0 1 0.693 46.68 A 51.837 51.837 0 0 1 0.001 38 A 56.301 56.301 0 0 1 0.836 28.083 A 42.572 42.572 0 0 1 3.801 18.25 A 32.73 32.73 0 0 1 9.585 9.302 A 29.455 29.455 0 0 1 14.751 4.85 Q 21.901 0 32.001 0 Q 38.501 0 43.601 1.6 Q 48.701 3.2 53.201 5.7 Z M 121.101 68.2 L 112.201 72.4 L 103.501 53.4 A 30.586 30.586 0 0 0 100.909 48.827 Q 98.404 45.222 95.201 43.3 Q 90.845 40.687 84.365 40.35 A 37.847 37.847 0 0 0 82.401 40.3 L 80.901 40.3 L 80.901 71.2 L 71.401 71.2 L 71.401 1.4 Q 76.701 0.9 81.551 0.65 A 187.94 187.94 0 0 1 87.867 0.435 A 226.267 226.267 0 0 1 91.901 0.4 Q 104.701 0.4 111.151 5.6 A 17.414 17.414 0 0 1 115.78 11.134 Q 117.601 14.644 117.601 19 A 19.88 19.88 0 0 1 116.95 24.22 A 14.672 14.672 0 0 1 113.251 30.75 Q 108.901 35.2 100.701 37.4 A 23.656 23.656 0 0 1 104.129 39.263 A 20.427 20.427 0 0 1 105.501 40.25 Q 107.469 41.797 109.306 44.31 A 29.29 29.29 0 0 1 109.551 44.65 Q 111.501 47.4 113.501 51.8 L 121.101 68.2 Z M 189.901 68.7 L 181.201 72.2 L 173.401 52.2 L 141.001 52.2 L 133.201 72 L 125.101 68.7 L 152.501 1.2 L 162.901 1.2 L 189.901 68.7 Z M 241.501 71.2 L 199.901 71.2 L 199.901 1.2 L 209.401 1.2 L 209.401 62.7 L 241.501 62.7 L 241.501 71.2 Z M 157.201 10.6 L 144.001 44.2 L 170.301 44.2 L 157.201 10.6 Z M 80.901 8.8 L 80.901 32.3 L 91.901 32.3 A 26.489 26.489 0 0 0 96.824 31.869 Q 100.753 31.125 103.601 29.1 Q 108.101 25.9 108.101 19.9 A 9.811 9.811 0 0 0 104.827 12.436 A 13.272 13.272 0 0 0 103.901 11.65 A 13.923 13.923 0 0 0 99.537 9.429 Q 97.608 8.818 95.277 8.57 A 31.944 31.944 0 0 0 91.901 8.4 Q 88.726 8.4 86.162 8.487 A 118.974 118.974 0 0 0 85.801 8.5 Q 83.101 8.6 80.901 8.8 Z" vector-effect="non-scaling-stroke"/></g></svg>