<?xml version="1.0" encoding="UTF-8" standalone="no"?>
<svg
   version="1.1"
   id="svg4"
   width="285.94336"
   height="11.595704"
   xmlns="http://www.w3.org/2000/svg"
   xmlns:svg="http://www.w3.org/2000/svg">
  <defs
     id="defs8" />
  <g
     aria-label="Grid Singularity Energy Exchange Engine (D3A)"
     id="text2"
     transform="translate(-0.67382812,9.1171881)">
    <path
       d="M 8.4492188,-0.64453125 Q 7.734375,-0.31640625 6.8847656,-0.0703125 6.0410156,0.16992187 5.25,0.16992187 q -1.0195313,0 -1.8691406,-0.28124999 Q 2.53125,-0.39257813 1.9335937,-0.95507813 1.3300781,-1.5234375 1.0019531,-2.3730469 0.67382812,-3.2285156 0.67382812,-4.3710937 q 0,-2.0917969 1.21874998,-3.2988282 Q 3.1171875,-8.8828125 5.25,-8.8828125 q 0.7441406,0 1.5175781,0.1816406 0.7792969,0.1757813 1.6757813,0.6035156 v 1.3769532 H 8.3378906 Q 8.15625,-6.8613281 7.8105469,-7.0898437 7.4648437,-7.3183594 7.1308594,-7.4707031 6.7265625,-7.6523437 6.2109375,-7.7695312 5.7011719,-7.8925781 5.0507812,-7.8925781 q -1.4648437,0 -2.3203124,0.9433594 -0.8496094,0.9375 -0.8496094,2.5429687 0,1.6933594 0.890625,2.6367188 0.890625,0.93749995 2.4257812,0.93749995 0.5625,0 1.1191406,-0.11132813 0.5625,-0.11132812 0.984375,-0.28710932 V -3.3691406 H 4.9628906 v -1.0195313 h 3.4863282 z"
       id="path10" />
    <path
       d="m 14.472656,-5.34375 h -0.05859 q -0.246094,-0.058594 -0.480469,-0.082031 -0.228516,-0.029297 -0.544922,-0.029297 -0.509766,0 -0.984375,0.2285156 -0.474609,0.2226563 -0.914063,0.5800781 V 0 h -1.101562 v -6.5449219 h 1.101562 v 0.9667969 q 0.65625,-0.5273437 1.154297,-0.7441406 0.503907,-0.2226563 1.025391,-0.2226563 0.287109,0 0.416016,0.017578 0.128906,0.011719 0.386718,0.052734 z"
       id="path12" />
    <path
       d="m 16.693359,-7.640625 h -1.242187 v -1.1425781 h 1.242187 z M 16.623047,0 h -1.101563 v -6.5449219 h 1.101563 z"
       id="path14" />
    <path
       d="m 24.111328,0 h -1.101562 v -0.68554687 q -0.47461,0.41015624 -0.990235,0.63867187 -0.515625,0.22851562 -1.11914,0.22851562 -1.171875,0 -1.863282,-0.90234374 -0.685547,-0.90234378 -0.685547,-2.50195318 0,-0.8320312 0.234375,-1.4824218 0.240235,-0.6503906 0.644532,-1.1074219 0.398437,-0.4453125 0.925781,-0.6796875 0.533203,-0.234375 1.101562,-0.234375 0.515625,0 0.914063,0.1113281 0.398437,0.1054688 0.837891,0.3339844 v -2.8359375 h 1.101562 z m -1.101562,-1.6113281 v -3.7558594 q -0.445313,-0.1992187 -0.796875,-0.2753906 -0.351563,-0.076172 -0.767579,-0.076172 -0.925781,0 -1.441406,0.6445313 -0.515625,0.6445312 -0.515625,1.8281249 0,1.1660157 0.398438,1.7753907 0.398437,0.6035156 1.277343,0.6035156 0.46875,0 0.949219,-0.2050781 0.480469,-0.2109375 0.896485,-0.5390624 z"
       id="path16" />
    <path
       d="m 36.925781,-2.4902344 q 0,0.5097657 -0.240234,1.0078125 -0.234375,0.4980469 -0.66211,0.84375003 -0.46875,0.37499999 -1.095703,0.5859375 -0.621093,0.21093749 -1.5,0.21093749 -0.943359,0 -1.699218,-0.17578125 -0.75,-0.17578124 -1.529297,-0.52148437 v -1.453125 h 0.08203 q 0.662109,0.5507813 1.529297,0.8496094 0.867187,0.2988281 1.628906,0.2988281 1.078125,0 1.675781,-0.4042969 0.603516,-0.4042968 0.603516,-1.078125 0,-0.5800781 -0.287109,-0.8554687 -0.28125,-0.2753907 -0.861329,-0.4277344 -0.439453,-0.1171875 -0.955078,-0.1933594 -0.509765,-0.076172 -1.083984,-0.1933594 -1.160156,-0.2460937 -1.722656,-0.8378906 -0.556641,-0.5976562 -0.556641,-1.5527343 0,-1.0957032 0.925781,-1.7929688 0.925782,-0.703125 2.34961,-0.703125 0.919922,0 1.6875,0.1757812 0.767578,0.1757813 1.359375,0.4335938 v 1.3710938 h -0.08203 q -0.498046,-0.421875 -1.3125,-0.6972657 -0.808593,-0.28125 -1.658203,-0.28125 -0.93164,0 -1.5,0.3867188 -0.5625,0.3867187 -0.5625,0.9960937 0,0.5449219 0.28125,0.8554688 0.28125,0.3105469 0.990235,0.4746094 0.375,0.082031 1.066406,0.1992187 0.691406,0.1171875 1.171875,0.2402344 0.972656,0.2578125 1.464844,0.7792968 0.492187,0.5214844 0.492186,1.4589844 z"
       id="path18" />
    <path
       d="m 39.884766,-7.640625 h -1.242188 v -1.1425781 h 1.242188 z M 39.814453,0 h -1.101562 v -6.5449219 h 1.101562 z"
       id="path20" />
    <path
       d="m 47.466797,0 h -1.101563 v -3.7265625 q 0,-0.4511719 -0.05273,-0.84375 Q 46.259774,-4.96875 46.119145,-5.1914062 45.97266,-5.4375 45.69727,-5.5546875 q -0.275391,-0.1230469 -0.714844,-0.1230469 -0.451172,0 -0.94336,0.2226563 -0.492187,0.2226562 -0.943359,0.5683594 V 0 h -1.101562 v -6.5449219 h 1.101562 v 0.7265625 q 0.515625,-0.4277343 1.066406,-0.6679687 0.550782,-0.2402344 1.13086,-0.2402344 1.060547,0 1.617187,0.6386719 0.556641,0.6386719 0.556641,1.8398437 z"
       id="path22" />
    <path
       d="m 54.896484,-0.74414062 q 0,1.6640625 -0.755859,2.44335932 -0.755859,0.7792969 -2.326172,0.7792969 -0.521484,0 -1.019531,-0.076172 -0.492188,-0.070312 -0.972656,-0.2050782 v -1.125 h 0.05859 q 0.269532,0.1054688 0.855469,0.2578125 0.585938,0.1582031 1.171875,0.1582031 0.5625,0 0.931641,-0.1347656 Q 53.208984,1.21875 53.414062,0.97851563 53.619141,0.75 53.707031,0.42773438 q 0.08789,-0.32226563 0.08789,-0.72070313 V -0.890625 q -0.498047,0.3984375 -0.955078,0.59765625 -0.451172,0.19335938 -1.154297,0.19335938 -1.171875,0 -1.863281,-0.84375001 -0.685547,-0.84960932 -0.685547,-2.39062502 0,-0.84375 0.234375,-1.453125 0.240234,-0.6152343 0.65039,-1.0605468 0.38086,-0.4160157 0.925782,-0.6445313 0.544921,-0.234375 1.083984,-0.234375 0.568359,0 0.949219,0.1171875 0.386718,0.1113281 0.814453,0.3457031 l 0.07031,-0.28125 h 1.03125 z M 53.794922,-1.7988281 v -3.5683594 q -0.439453,-0.1992187 -0.820313,-0.28125 -0.375,-0.087891 -0.75,-0.087891 -0.908203,0 -1.429687,0.609375 -0.521485,0.609375 -0.521485,1.7695312 0,1.1015625 0.386719,1.6699219 0.386719,0.5683594 1.283203,0.5683594 0.480469,0 0.960938,-0.1816406 0.486328,-0.1875 0.890625,-0.4980465 z"
       id="path24" />
    <path
       d="m 62.490234,0 h -1.101562 v -0.7265625 q -0.556641,0.43945312 -1.066406,0.67382813 -0.509766,0.23437499 -1.125,0.23437499 -1.03125,0 -1.605469,-0.62695312 -0.574219,-0.6328125 -0.574219,-1.8515625 v -4.2480469 h 1.101563 v 3.7265625 q 0,0.4980469 0.04687,0.8554688 0.04687,0.3515625 0.199218,0.6035156 0.158203,0.2578125 0.410157,0.375 0.251953,0.1171875 0.732421,0.1171875 0.427735,0 0.931641,-0.2226562 0.509766,-0.2226563 0.949219,-0.5683594 v -4.8867188 h 1.101562 z"
       id="path26" />
    <path
       d="m 65.771484,0 h -1.101562 v -9.1171875 h 1.101562 z"
       id="path28" />
    <path
       d="m 73.037109,0 h -1.095703 v -0.69726562 q -0.146484,0.0996094 -0.398437,0.28124999 Q 71.296875,-0.24023438 71.0625,-0.13476562 70.787109,0 70.429687,0.08789062 q -0.357421,0.09375 -0.83789,0.09375 -0.884766,0 -1.5,-0.5859375 -0.615235,-0.5859375 -0.615235,-1.49414062 0,-0.7441406 0.316407,-1.2011719 0.322265,-0.4628906 0.914062,-0.7265625 0.597656,-0.2636718 1.435547,-0.3574218 0.837891,-0.09375 1.798828,-0.140625 v -0.1699219 q 0,-0.375 -0.134765,-0.6210938 -0.128907,-0.2460937 -0.375,-0.3867187 -0.234375,-0.1347656 -0.5625,-0.1816406 -0.328125,-0.046875 -0.685547,-0.046875 -0.433594,0 -0.966797,0.1171875 -0.533203,0.1113281 -1.101563,0.328125 h -0.05859 v -1.1191407 q 0.322265,-0.087891 0.93164,-0.1933593 0.609375,-0.1054688 1.201172,-0.1054688 0.691406,0 1.201172,0.1171875 0.515625,0.1113281 0.890625,0.3867188 0.369141,0.2695312 0.5625,0.6972656 0.193359,0.4277344 0.193359,1.0605469 z m -1.095703,-1.6113281 v -1.8222657 q -0.503906,0.029297 -1.189453,0.087891 -0.679687,0.058594 -1.078125,0.1699218 -0.474609,0.1347657 -0.767578,0.421875 -0.292969,0.28125 -0.292969,0.7792969 0,0.5625 0.339844,0.8496094 0.339844,0.28125 1.037109,0.28125 0.580078,0 1.060547,-0.2226562 0.480469,-0.2285157 0.890625,-0.5449222 z"
       id="path30" />
    <path
       d="m 79.242187,-5.34375 h -0.05859 q -0.246094,-0.058594 -0.480469,-0.082031 -0.228516,-0.029297 -0.544922,-0.029297 -0.509766,0 -0.984375,0.2285156 -0.474609,0.2226563 -0.914062,0.5800781 V 0 h -1.101563 v -6.5449219 h 1.101563 v 0.9667969 q 0.65625,-0.5273437 1.154296,-0.7441406 0.503907,-0.2226563 1.025391,-0.2226563 0.287109,0 0.416016,0.017578 0.128906,0.011719 0.386718,0.052734 z"
       id="path32" />
    <path
       d="m 81.462891,-7.640625 h -1.242188 v -1.1425781 h 1.242188 z M 81.392578,0 h -1.101562 v -6.5449219 h 1.101562 z"
       id="path34" />
    <path
       d="m 86.970703,-0.05859375 q -0.310547,0.08203125 -0.679687,0.13476562 -0.363282,0.05273438 -0.650391,0.05273438 -1.001953,0 -1.523438,-0.5390625 -0.521484,-0.5390625 -0.521484,-1.72851565 v -3.4804687 h -0.744141 v -0.9257813 h 0.744141 v -1.8808594 h 1.101563 v 1.8808594 h 2.273437 v 0.9257813 h -2.273437 v 2.9824218 q 0,0.515625 0.02344,0.8085938 0.02344,0.2871094 0.164063,0.5390625 0.128906,0.234375 0.351562,0.34570312 0.228516,0.10546875 0.691406,0.10546875 0.269532,0 0.5625,-0.0761719 0.292969,-0.0820313 0.421875,-0.13476557 h 0.05859 z"
       id="path36" />
    <path
       d="m 93.902344,-6.5449219 -3.820313,8.9589844 h -1.177734 l 1.21875,-2.73046875 -2.607422,-6.22851565 h 1.195312 l 2.009766,4.8515625 2.027344,-4.8515625 z"
       id="path38" />
    <path
       d="m 105.39844,0 h -5.748049 v -8.7246094 h 5.748049 v 1.03125 h -4.58789 v 2.390625 h 4.58789 v 1.03125 h -4.58789 V -1.03125 h 4.58789 z"
       id="path40" />
    <path
       d="m 112.62305,0 h -1.10157 v -3.7265625 q 0,-0.4511719 -0.0527,-0.84375 -0.0527,-0.3984375 -0.19336,-0.6210937 -0.14648,-0.2460938 -0.42187,-0.3632813 -0.27539,-0.1230469 -0.71485,-0.1230469 -0.45117,0 -0.94336,0.2226563 -0.49218,0.2226562 -0.94336,0.5683594 V 0 h -1.10156 v -6.5449219 h 1.10156 v 0.7265625 q 0.51563,-0.4277343 1.06641,-0.6679687 0.55078,-0.2402344 1.13086,-0.2402344 1.06055,0 1.61719,0.6386719 0.55664,0.6386719 0.55664,1.8398437 z"
       id="path42" />
    <path
       d="m 120.22266,-3.1582031 h -4.82227 q 0,0.6035156 0.18164,1.0546875 0.18164,0.4453125 0.49805,0.7324219 0.30469,0.28125 0.7207,0.42187495 0.42188,0.140625 0.92578,0.140625 0.66797,0 1.3418,-0.26367185 0.67969,-0.2695313 0.9668,-0.5273438 h 0.0586 v 1.2011719 q -0.55664,0.234375 -1.13672,0.39257812 -0.58008,0.15820313 -1.21875,0.15820313 -1.6289,0 -2.54297,-0.87890625 -0.91406,-0.8847656 -0.91406,-2.5078125 0,-1.6054687 0.87305,-2.5488281 0.8789,-0.9433594 2.30859,-0.9433594 1.32422,0 2.03906,0.7734375 0.72071,0.7734375 0.72071,2.1972656 z m -1.07227,-0.84375 q -0.006,-0.8671875 -0.43945,-1.3417969 -0.42774,-0.4746094 -1.30664,-0.4746094 -0.88477,0 -1.41211,0.5214844 -0.52149,0.5214844 -0.5918,1.2949219 z"
       id="path44" />
    <path
       d="m 125.97656,-5.34375 h -0.0586 q -0.24609,-0.058594 -0.48047,-0.082031 -0.22852,-0.029297 -0.54492,-0.029297 -0.50977,0 -0.98438,0.2285156 -0.47461,0.2226563 -0.91406,0.5800781 V 0 h -1.10156 v -6.5449219 h 1.10156 v 0.9667969 q 0.65625,-0.5273437 1.1543,-0.7441406 0.5039,-0.2226563 1.02539,-0.2226563 0.28711,0 0.41601,0.017578 0.12891,0.011719 0.38672,0.052734 z"
       id="path46" />
    <path
       d="m 132.32227,-0.74414062 q 0,1.6640625 -0.75586,2.44335932 -0.75586,0.7792969 -2.32618,0.7792969 -0.52148,0 -1.01953,-0.076172 -0.49218,-0.070312 -0.97265,-0.2050782 v -1.125 h 0.0586 q 0.26953,0.1054688 0.85547,0.2578125 0.58594,0.1582031 1.17187,0.1582031 0.5625,0 0.93164,-0.1347656 0.36915,-0.1347656 0.57422,-0.37499997 0.20508,-0.22851563 0.29297,-0.55078125 0.0879,-0.32226563 0.0879,-0.72070313 V -0.890625 q -0.49804,0.3984375 -0.95508,0.59765625 -0.45117,0.19335938 -1.15429,0.19335938 -1.17188,0 -1.86328,-0.84375001 -0.68555,-0.84960932 -0.68555,-2.39062502 0,-0.84375 0.23438,-1.453125 0.24023,-0.6152343 0.65039,-1.0605468 0.38086,-0.4160157 0.92578,-0.6445313 0.54492,-0.234375 1.08398,-0.234375 0.56836,0 0.94922,0.1171875 0.38672,0.1113281 0.81445,0.3457031 l 0.0703,-0.28125 h 1.03125 z M 131.2207,-1.7988281 v -3.5683594 q -0.43945,-0.1992187 -0.82031,-0.28125 -0.375,-0.087891 -0.75,-0.087891 -0.9082,0 -1.42969,0.609375 -0.52148,0.609375 -0.52148,1.7695312 0,1.1015625 0.38672,1.6699219 0.38672,0.5683594 1.2832,0.5683594 0.48047,0 0.96094,-0.1816406 0.48633,-0.1875 0.89062,-0.4980465 z"
       id="path48" />
    <path
       d="m 140.15039,-6.5449219 -3.82031,8.9589844 h -1.17774 l 1.21875,-2.73046875 -2.60742,-6.22851565 h 1.19531 l 2.00977,4.8515625 2.02734,-4.8515625 z"
       id="path50" />
    <path
       d="m 151.64648,0 h -5.74804 v -8.7246094 h 5.74804 v 1.03125 h -4.58789 v 2.390625 h 4.58789 v 1.03125 h -4.58789 V -1.03125 h 4.58789 z"
       id="path52" />
    <path
       d="m 159.06445,0 h -1.38867 L 155.81836,-2.5136719 153.94922,0 h -1.2832 l 2.55468,-3.2636719 -2.53125,-3.28125 h 1.38867 l 1.84571,2.4726563 1.85156,-2.4726563 h 1.28906 l -2.57226,3.2226563 z"
       id="path54" />
    <path
       d="M 165.22266,-0.41015625 Q 164.67187,-0.14648437 164.17383,0 q -0.49219,0.14648437 -1.04883,0.14648437 -0.70898,0 -1.30078,-0.20507812 -0.5918,-0.2109375 -1.01367,-0.6328125 -0.42774,-0.42187495 -0.66211,-1.06640625 -0.23438,-0.6445313 -0.23438,-1.5058594 0,-1.6054687 0.87891,-2.5195312 0.88476,-0.9140625 2.33203,-0.9140625 0.5625,0 1.10156,0.1582031 0.54492,0.1582031 0.9961,0.3867188 v 1.2246093 h -0.0586 q -0.5039,-0.3925781 -1.04297,-0.6035156 -0.5332,-0.2109375 -1.04297,-0.2109375 -0.9375,0 -1.48242,0.6328125 -0.53906,0.6269531 -0.53906,1.8457031 0,1.1835938 0.52734,1.8222657 0.53321,0.63281245 1.49414,0.63281245 0.33399,0 0.67969,-0.0878906 0.34571,-0.0878906 0.6211,-0.22851565 0.24023,-0.1230469 0.45117,-0.2578125 0.21094,-0.140625 0.33398,-0.2402344 h 0.0586 z"
       id="path56" />
    <path
       d="m 172.10742,0 h -1.10156 v -3.7265625 q 0,-0.4511719 -0.0527,-0.84375 -0.0527,-0.3984375 -0.19335,-0.6210937 -0.14649,-0.2460938 -0.42188,-0.3632813 -0.27539,-0.1230469 -0.71484,-0.1230469 -0.45118,0 -0.94336,0.2226563 -0.49219,0.2226562 -0.94336,0.5683594 V 0 h -1.10156 v -9.1171875 h 1.10156 v 3.2988281 q 0.51562,-0.4277343 1.0664,-0.6679687 0.55079,-0.2402344 1.13086,-0.2402344 1.06055,0 1.61719,0.6386719 0.55664,0.6386719 0.55664,1.8398437 z"
       id="path58" />
    <path
       d="m 179.31445,0 h -1.0957 v -0.69726562 q -0.14648,0.0996094 -0.39844,0.28124999 -0.24609,0.17578125 -0.48047,0.28125001 Q 177.06445,0 176.70703,0.08789062 q -0.35742,0.09375 -0.83789,0.09375 -0.88477,0 -1.5,-0.5859375 -0.61523,-0.5859375 -0.61523,-1.49414062 0,-0.7441406 0.3164,-1.2011719 0.32227,-0.4628906 0.91406,-0.7265625 0.59766,-0.2636718 1.43555,-0.3574218 0.83789,-0.09375 1.79883,-0.140625 v -0.1699219 q 0,-0.375 -0.13477,-0.6210938 -0.1289,-0.2460937 -0.375,-0.3867187 -0.23437,-0.1347656 -0.5625,-0.1816406 -0.32812,-0.046875 -0.68554,-0.046875 -0.4336,0 -0.9668,0.1171875 -0.5332,0.1113281 -1.10156,0.328125 h -0.0586 v -1.1191407 q 0.32227,-0.087891 0.93164,-0.1933593 0.60938,-0.1054688 1.20118,-0.1054688 0.6914,0 1.20117,0.1171875 0.51562,0.1113281 0.89062,0.3867188 0.36914,0.2695312 0.5625,0.6972656 0.19336,0.4277344 0.19336,1.0605469 z m -1.0957,-1.6113281 v -1.8222657 q -0.50391,0.029297 -1.18945,0.087891 -0.67969,0.058594 -1.07813,0.1699218 -0.47461,0.1347657 -0.76758,0.421875 -0.29297,0.28125 -0.29297,0.7792969 0,0.5625 0.33985,0.8496094 0.33984,0.28125 1.03711,0.28125 0.58008,0 1.06054,-0.2226562 0.48047,-0.2285157 0.89063,-0.5449222 z"
       id="path60" />
    <path
       d="m 186.9082,0 h -1.10156 v -3.7265625 q 0,-0.4511719 -0.0527,-0.84375 -0.0527,-0.3984375 -0.19336,-0.6210937 -0.14649,-0.2460938 -0.42188,-0.3632813 -0.27539,-0.1230469 -0.71484,-0.1230469 -0.45117,0 -0.94336,0.2226563 -0.49219,0.2226562 -0.94336,0.5683594 V 0 h -1.10156 v -6.5449219 h 1.10156 v 0.7265625 q 0.51562,-0.4277343 1.06641,-0.6679687 0.55078,-0.2402344 1.13085,-0.2402344 1.06055,0 1.61719,0.6386719 0.55664,0.6386719 0.55664,1.8398437 z"
       id="path62" />
    <path
       d="m 194.33789,-0.74414062 q 0,1.6640625 -0.75586,2.44335932 -0.75586,0.7792969 -2.32617,0.7792969 -0.52149,0 -1.01953,-0.076172 -0.49219,-0.070312 -0.97266,-0.2050782 v -1.125 h 0.0586 q 0.26953,0.1054688 0.85546,0.2578125 0.58594,0.1582031 1.17188,0.1582031 0.5625,0 0.93164,-0.1347656 0.36914,-0.1347656 0.57422,-0.37499997 0.20508,-0.22851563 0.29297,-0.55078125 0.0879,-0.32226563 0.0879,-0.72070313 V -0.890625 q -0.49805,0.3984375 -0.95508,0.59765625 -0.45117,0.19335938 -1.1543,0.19335938 -1.17187,0 -1.86328,-0.84375001 -0.68555,-0.84960932 -0.68555,-2.39062502 0,-0.84375 0.23438,-1.453125 0.24023,-0.6152343 0.65039,-1.0605468 0.38086,-0.4160157 0.92578,-0.6445313 0.54492,-0.234375 1.08399,-0.234375 0.56836,0 0.94921,0.1171875 0.38672,0.1113281 0.81446,0.3457031 l 0.0703,-0.28125 h 1.03125 z m -1.10156,-1.05468748 v -3.5683594 q -0.43946,-0.1992187 -0.82031,-0.28125 -0.375,-0.087891 -0.75,-0.087891 -0.90821,0 -1.42969,0.609375 -0.52149,0.609375 -0.52149,1.7695312 0,1.1015625 0.38672,1.6699219 0.38672,0.5683594 1.28321,0.5683594 0.48046,0 0.96093,-0.1816406 0.48633,-0.1875 0.89063,-0.4980465 z"
       id="path64" />
    <path
       d="m 201.98437,-3.1582031 h -4.82226 q 0,0.6035156 0.18164,1.0546875 0.18164,0.4453125 0.49805,0.7324219 0.30468,0.28125 0.7207,0.42187495 0.42187,0.140625 0.92578,0.140625 0.66797,0 1.3418,-0.26367185 0.67969,-0.2695313 0.96679,-0.5273438 h 0.0586 v 1.2011719 q -0.55664,0.234375 -1.13672,0.39257812 -0.58008,0.15820313 -1.21875,0.15820313 -1.62891,0 -2.54297,-0.87890625 -0.91406,-0.8847656 -0.91406,-2.5078125 0,-1.6054687 0.87305,-2.5488281 0.8789,-0.9433594 2.30859,-0.9433594 1.32422,0 2.03906,0.7734375 0.7207,0.7734375 0.7207,2.1972656 z m -1.07226,-0.84375 q -0.006,-0.8671875 -0.43945,-1.3417969 -0.42774,-0.4746094 -1.30664,-0.4746094 -0.88477,0 -1.41211,0.5214844 -0.52149,0.5214844 -0.5918,1.2949219 z"
       id="path66" />
    <path
       d="m 213.70898,0 h -5.74804 v -8.7246094 h 5.74804 v 1.03125 h -4.58789 v 2.390625 h 4.58789 v 1.03125 h -4.58789 V -1.03125 h 4.58789 z"
       id="path68" />
    <path
       d="m 220.93359,0 h -1.10156 v -3.7265625 q 0,-0.4511719 -0.0527,-0.84375 -0.0527,-0.3984375 -0.19336,-0.6210937 -0.14649,-0.2460938 -0.42188,-0.3632813 -0.27539,-0.1230469 -0.71484,-0.1230469 -0.45117,0 -0.94336,0.2226563 -0.49219,0.2226562 -0.94336,0.5683594 V 0 h -1.10156 v -6.5449219 h 1.10156 v 0.7265625 q 0.51562,-0.4277343 1.06641,-0.6679687 0.55078,-0.2402344 1.13086,-0.2402344 1.06054,0 1.61718,0.6386719 0.55664,0.6386719 0.55664,1.8398437 z"
       id="path70" />
    <path
       d="m 228.36328,-0.74414062 q 0,1.6640625 -0.75586,2.44335932 -0.75586,0.7792969 -2.32617,0.7792969 -0.52148,0 -1.01953,-0.076172 -0.49219,-0.070312 -0.97266,-0.2050782 v -1.125 h 0.0586 q 0.26953,0.1054688 0.85546,0.2578125 0.58594,0.1582031 1.17188,0.1582031 0.5625,0 0.93164,-0.1347656 0.36914,-0.1347656 0.57422,-0.37499997 0.20508,-0.22851563 0.29297,-0.55078125 0.0879,-0.32226563 0.0879,-0.72070313 V -0.890625 q -0.49805,0.3984375 -0.95508,0.59765625 -0.45117,0.19335938 -1.1543,0.19335938 -1.17187,0 -1.86328,-0.84375001 -0.68554,-0.84960932 -0.68554,-2.39062502 0,-0.84375 0.23437,-1.453125 0.24023,-0.6152343 0.65039,-1.0605468 0.38086,-0.4160157 0.92578,-0.6445313 0.54492,-0.234375 1.08399,-0.234375 0.56836,0 0.94922,0.1171875 0.38671,0.1113281 0.81445,0.3457031 l 0.0703,-0.28125 h 1.03125 z m -1.10156,-1.05468748 v -3.5683594 q -0.43945,-0.1992187 -0.82031,-0.28125 -0.375,-0.087891 -0.75,-0.087891 -0.90821,0 -1.42969,0.609375 -0.52149,0.609375 -0.52149,1.7695312 0,1.1015625 0.38672,1.6699219 0.38672,0.5683594 1.28321,0.5683594 0.48046,0 0.96093,-0.1816406 0.48633,-0.1875 0.89063,-0.4980465 z"
       id="path72" />
    <path
       d="m 231.71484,-7.640625 h -1.24218 v -1.1425781 h 1.24218 z M 231.64453,0 h -1.10156 v -6.5449219 h 1.10156 z"
       id="path74" />
    <path
       d="m 239.29687,0 h -1.10156 v -3.7265625 q 0,-0.4511719 -0.0527,-0.84375 -0.0527,-0.3984375 -0.19336,-0.6210937 -0.14649,-0.2460938 -0.42188,-0.3632813 -0.27539,-0.1230469 -0.71484,-0.1230469 -0.45117,0 -0.94336,0.2226563 -0.49219,0.2226562 -0.94336,0.5683594 V 0 h -1.10156 v -6.5449219 h 1.10156 v 0.7265625 q 0.51563,-0.4277343 1.06641,-0.6679687 0.55078,-0.2402344 1.13086,-0.2402344 1.06054,0 1.61718,0.6386719 0.55664,0.6386719 0.55664,1.8398437 z"
       id="path76" />
    <path
       d="m 246.89648,-3.1582031 h -4.82226 q 0,0.6035156 0.18164,1.0546875 0.18164,0.4453125 0.49805,0.7324219 0.30468,0.28125 0.7207,0.42187495 0.42187,0.140625 0.92578,0.140625 0.66797,0 1.3418,-0.26367185 0.67968,-0.2695313 0.96679,-0.5273438 h 0.0586 v 1.2011719 q -0.55664,0.234375 -1.13672,0.39257812 -0.58008,0.15820313 -1.21875,0.15820313 -1.62891,0 -2.54297,-0.87890625 -0.91406,-0.8847656 -0.91406,-2.5078125 0,-1.6054687 0.87304,-2.5488281 0.87891,-0.9433594 2.3086,-0.9433594 1.32422,0 2.03906,0.7734375 0.7207,0.7734375 0.7207,2.1972656 z m -1.07226,-0.84375 q -0.006,-0.8671875 -0.43945,-1.3417969 -0.42774,-0.4746094 -1.30665,-0.4746094 -0.88476,0 -1.4121,0.5214844 -0.52149,0.5214844 -0.5918,1.2949219 z"
       id="path78" />
    <path
       d="m 256.28906,2.4140625 h -1.34179 q -1.03711,-1.1894531 -1.61133,-2.59570312 -0.57422,-1.40624998 -0.57422,-3.16992188 0,-1.7636719 0.57422,-3.1699219 0.57422,-1.40625 1.61133,-2.5957031 h 1.34179 v 0.058594 q -0.47461,0.4277344 -0.9082,0.9902344 -0.42774,0.5566407 -0.79688,1.3007813 -0.35156,0.7207031 -0.57421,1.5878906 -0.2168,0.8671875 -0.2168,1.828125 0,1.0019531 0.21094,1.8339844 0.21679,0.83203123 0.58007,1.58203122 0.35157,0.72070313 0.80274,1.30078128 0.45117,0.5859375 0.90234,0.9902344 z"
       id="path80" />
    <path
       d="m 265.69336,-4.3535156 q 0,1.1894531 -0.52149,2.15625 -0.51562,0.9667969 -1.37695,1.49999998 -0.59765,0.36914062 -1.33594,0.53320312 Q 261.72656,0 260.52539,0 h -2.20312 v -8.7246094 h 2.17968 q 1.27735,0 2.02735,0.1875 0.75586,0.1816406 1.27734,0.5039063 0.89063,0.5566406 1.38867,1.4824219 0.49805,0.9257812 0.49805,2.1972656 z m -1.21289,-0.017578 q 0,-1.0253907 -0.35742,-1.7285157 -0.35743,-0.703125 -1.06641,-1.1074218 -0.51562,-0.2929688 -1.0957,-0.4042969 -0.58008,-0.1171875 -1.38867,-0.1171875 h -1.08985 v 6.73242185 h 1.08985 q 0.83789,0 1.45898,-0.12304685 0.62695,-0.1230469 1.14844,-0.4570313 0.65039,-0.4160156 0.97265,-1.0957031 0.32813,-0.6796875 0.32813,-1.6992187 z"
       id="path82" />
    <path
       d="m 272.47852,-4.2011719 q 0.28125,0.2519531 0.46289,0.6328125 0.18164,0.3808594 0.18164,0.984375 0,0.5976563 -0.2168,1.0957032 -0.2168,0.49804682 -0.60938,0.86718745 -0.43945,0.41015625 -1.0371,0.609375 -0.5918,0.19335937 -1.30079,0.19335937 -0.72656,0 -1.42968,-0.17578124 -0.70313,-0.16992188 -1.1543,-0.37500001 V -1.59375 h 0.0879 q 0.49805,0.328125 1.17188,0.5449219 0.67382,0.21679685 1.30078,0.21679685 0.36914,0 0.78515,-0.12304688 0.41602,-0.12304687 0.67383,-0.36328127 0.26953,-0.2578125 0.39844,-0.5683593 0.13476,-0.3105469 0.13476,-0.7851563 0,-0.46875 -0.15234,-0.7734375 -0.14648,-0.3105469 -0.41016,-0.4863281 -0.26367,-0.1816406 -0.63867,-0.2460938 -0.375,-0.070312 -0.80859,-0.070312 h -0.52735 v -0.9726562 h 0.41016 q 0.89063,0 1.41797,-0.3691406 0.5332,-0.375 0.5332,-1.0898438 0,-0.3164062 -0.13476,-0.5507812 -0.13477,-0.2402344 -0.375,-0.3925782 -0.25196,-0.1523437 -0.53907,-0.2109375 -0.2871,-0.058594 -0.65039,-0.058594 -0.55664,0 -1.18359,0.1992187 -0.62695,0.1992188 -1.18359,0.5625 h -0.0586 v -1.2246094 q 0.41602,-0.2050781 1.10742,-0.375 0.69727,-0.1757812 1.34766,-0.1757812 0.63867,0 1.125,0.1171875 0.48633,0.1171875 0.87891,0.375 0.42187,0.28125 0.63867,0.6796875 0.2168,0.3984375 0.2168,0.9316406 0,0.7265625 -0.51563,1.2714844 -0.50976,0.5390625 -1.20703,0.6796875 v 0.082031 q 0.28125,0.046875 0.64453,0.1992187 0.36328,0.1464844 0.61524,0.3691406 z"
       id="path84" />
    <path
       d="m 282.07617,0 h -1.23633 l -0.85547,-2.4316406 h -3.77343 L 275.35547,0 h -1.17774 l 3.17579,-8.7246094 h 1.54687 z m -2.44922,-3.4277344 -1.52929,-4.2832031 -1.53516,4.2832031 z"
       id="path86" />
    <path
       d="m 286.61719,-3.3515625 q 0,1.7636719 -0.57422,3.16992188 -0.57422,1.40625002 -1.61133,2.59570312 h -1.3418 v -0.058594 q 0.45118,-0.4042969 0.90235,-0.9902344 0.45703,-0.58007815 0.80273,-1.30078128 0.36328,-0.74999999 0.57422,-1.58203122 0.2168,-0.8320313 0.2168,-1.8339844 0,-0.9609375 -0.2168,-1.828125 -0.2168,-0.8671875 -0.57422,-1.5878906 -0.36914,-0.7441406 -0.80273,-1.3007813 -0.42774,-0.5625 -0.90235,-0.9902344 v -0.058594 h 1.3418 q 1.03711,1.1894531 1.61133,2.5957031 0.57422,1.40625 0.57422,3.1699225 z"
       id="path88" />
  </g>
</svg>
