<?xml version="1.0" encoding="utf-8"?>
<!-- Generator: Adobe Illustrator 16.0.4, SVG Export Plug-In . SVG Version: 6.00 Build 0)  -->
<!DOCTYPE svg PUBLIC "-//W3C//DTD SVG 1.1//EN" "http://www.w3.org/Graphics/SVG/1.1/DTD/svg11.dtd">
<svg version="1.1" id="Layer_1" xmlns="http://www.w3.org/2000/svg" xmlns:xlink="http://www.w3.org/1999/xlink" x="0px" y="0px"
	 width="368.6665px" height="343.33301px" viewBox="-55.3335 -61.5 368.6665 343.33301"
	 enable-background="new -55.3335 -61.5 368.6665 343.33301" xml:space="preserve">
<title>GridProtectionAlliance</title>
<g id="Page-1">
	<g id="Artboard" transform="translate(-82.000000, -78.000000)">
		<g id="GridProtectionAlliance" transform="translate(82.000000, 78.000000)">
			<g id="GridProtectionAllianceLogo" transform="translate(47.000000, 0.000000)">
				<g id="Combined-Shape">
					<path fill="#979696" d="M82.03711,0c18.22559,0,33,14.77441,33,33l0.00195,24.75781
						c18.17578,13.17432,29.99805,34.57764,29.99805,58.74219c0,40.04102-32.45898,72.5-72.5,72.5
						c-40.04053,0-72.5-32.45898-72.5-72.5c0-23.71924,11.39062-44.77832,29-58.00537V33c0-18.22559,14.77441-33,33-33H82.03711z
						 M78.53711,13h-13c-12.30225,0-22.29834,9.87305-22.49707,22.12793L43.03711,35.5l-0.00049,14.75342
						C52.04883,46.23438,62.03223,44,72.53711,44c10.11816,0,19.75195,2.07275,28.50195,5.81689L101.03711,35.5
						C101.03711,23.07373,90.96289,13,78.53711,13z"/>
				</g>
				<g id="Path">
					
						<linearGradient id="SVGID_1_" gradientUnits="userSpaceOnUse" x1="-403.53174" y1="389.90723" x2="-403.53174" y2="389.83969" gradientTransform="matrix(93 0 0 -90.3784 37601 35353.64453)">
						<stop  offset="0" style="stop-color:#B1E2BB"/>
						<stop  offset="1" style="stop-color:#ADE2BB"/>
					</linearGradient>
					<path fill="url(#SVGID_1_)" d="M72.53711,172.5c-30.32715,0-55-24.67285-55-55c0-23.31152,14.76807-44.16699,36.74902-51.89697
						l5.63965,16.03711C44.74023,86.98047,34.53711,101.3916,34.53711,117.5c0,20.95312,17.04688,38,38,38s38-17.04688,38-38
						c0-16.08838-10.18652-30.49316-25.34668-35.84473l5.6582-16.03027c21.94434,7.74561,36.68848,28.59277,36.68848,51.875
						C127.53711,147.82715,102.86426,172.5,72.53711,172.5z"/>
				</g>
				<g id="Rectangle" opacity="0.97459" enable-background="new    ">
					<g>
						<defs>
							<path id="SVGID_2_" d="M73.03711,58L73.03711,58c3.86621,0,7,3.13379,7,7v42c0,3.86621-3.13379,7-7,7l0,0
								c-3.86621,0-7-3.13379-7-7V65C66.03711,61.13379,69.1709,58,73.03711,58z"/>
						</defs>
						<clipPath id="SVGID_3_">
							<use xlink:href="#SVGID_2_"  overflow="visible"/>
						</clipPath>
						<path clip-path="url(#SVGID_3_)" fill="#ADE2BB" d="M80.03906,58h-14H80.03906z"/>
						<rect x="66.03906" y="58" clip-path="url(#SVGID_3_)" fill="#ADE2BB" width="14" height="1.60156"/>
						<rect x="66.03906" y="59.60352" clip-path="url(#SVGID_3_)" fill="#AEE2BB" width="14" height="1.60156"/>
						<rect x="66.03906" y="61.20312" clip-path="url(#SVGID_3_)" fill="#AFE2BB" width="14" height="1.60547"/>
						<rect x="66.03906" y="62.80859" clip-path="url(#SVGID_3_)" fill="#B0E2BB" width="14" height="1.60156"/>
						<rect x="66.03906" y="64.41016" clip-path="url(#SVGID_3_)" fill="#B1E2BB" width="14" height="1.60156"/>
						<rect x="66.03906" y="66.01172" clip-path="url(#SVGID_3_)" fill="#B2E2BA" width="14" height="1.60547"/>
						<rect x="66.03906" y="67.61719" clip-path="url(#SVGID_3_)" fill="#B3E2BA" width="14" height="1.60156"/>
						<rect x="66.03906" y="69.21875" clip-path="url(#SVGID_3_)" fill="#B4E2BA" width="14" height="1.60156"/>
						<rect x="66.03906" y="70.82031" clip-path="url(#SVGID_3_)" fill="#B5E2BA" width="14" height="1.60156"/>
						<rect x="66.03906" y="72.42188" clip-path="url(#SVGID_3_)" fill="#B6E2BA" width="14" height="1.60547"/>
						<rect x="66.03906" y="74.02734" clip-path="url(#SVGID_3_)" fill="#B7E2BA" width="14" height="1.60156"/>
						<rect x="66.03906" y="75.62891" clip-path="url(#SVGID_3_)" fill="#B8E2BA" width="14" height="1.60156"/>
						<rect x="66.03906" y="77.23047" clip-path="url(#SVGID_3_)" fill="#BAE2BA" width="14" height="1.60547"/>
						<rect x="66.03906" y="78.83594" clip-path="url(#SVGID_3_)" fill="#BBE1B9" width="14" height="1.60156"/>
						<rect x="66.03906" y="80.4375" clip-path="url(#SVGID_3_)" fill="#BCE1B9" width="14" height="1.60156"/>
						<rect x="66.03906" y="82.03906" clip-path="url(#SVGID_3_)" fill="#BDE1B9" width="14" height="1.60156"/>
						<rect x="66.03906" y="83.64062" clip-path="url(#SVGID_3_)" fill="#BEE1B9" width="14" height="1.60547"/>
						<rect x="66.03906" y="85.24609" clip-path="url(#SVGID_3_)" fill="#BFE1B9" width="14" height="1.60156"/>
						<rect x="66.03906" y="86.84766" clip-path="url(#SVGID_3_)" fill="#C0E1B9" width="14" height="1.60156"/>
						<rect x="66.03906" y="88.44922" clip-path="url(#SVGID_3_)" fill="#C1E1B9" width="14" height="1.60547"/>
						<rect x="66.03906" y="90.05469" clip-path="url(#SVGID_3_)" fill="#C2E1B9" width="14" height="1.60156"/>
						<rect x="66.03906" y="91.65625" clip-path="url(#SVGID_3_)" fill="#C3E1B8" width="14" height="1.60156"/>
						<rect x="66.03906" y="93.25781" clip-path="url(#SVGID_3_)" fill="#C4E1B8" width="14" height="1.60156"/>
						<rect x="66.03906" y="94.85938" clip-path="url(#SVGID_3_)" fill="#C5E1B8" width="14" height="1.60547"/>
						<rect x="66.03906" y="96.46484" clip-path="url(#SVGID_3_)" fill="#C6E1B8" width="14" height="1.60156"/>
						<rect x="66.03906" y="98.06641" clip-path="url(#SVGID_3_)" fill="#C6E1B8" width="14" height="15.93359"/>
					</g>
				</g>
			</g>
		</g>
	</g>
</g>
<g>
	<path d="M12.56006,221.75586c-1.12793,0.38379-3.26416,0.91211-5.40039,0.91211c-2.95215,0-5.08838-0.74414-6.57666-2.18457
		c-1.48779-1.3916-2.3042-3.50391-2.28027-5.87988c0.02441-5.37695,3.93652-8.44922,9.24121-8.44922
		c2.08789,0,3.69629,0.4082,4.48828,0.79199l-0.76807,2.92871c-0.88818-0.38379-1.99219-0.69629-3.76855-0.69629
		c-3.04834,0-5.35254,1.72852-5.35254,5.23242c0,3.33691,2.08838,5.30469,5.08887,5.30469c0.83984,0,1.51172-0.0957,1.7998-0.24023
		v-3.38379H6.53564v-2.85645h6.02441V221.75586z"/>
	<path d="M15.3667,214.62695c0-1.72754-0.04834-2.85547-0.09619-3.86426h3.14404l0.12012,2.16016h0.09619
		c0.6001-1.7041,2.04004-2.42383,3.16797-2.42383c0.33643,0,0.50439,0,0.76807,0.04785v3.43262
		c-0.26367-0.04785-0.57568-0.09668-0.98389-0.09668c-1.34424,0-2.25635,0.7207-2.49609,1.84863
		c-0.04834,0.24023-0.07227,0.52832-0.07227,0.81641V222.5H15.3667V214.62695z"/>
	<path d="M28.25488,207.49902c0,1.00781-0.76807,1.82422-1.96826,1.82422c-1.15186,0-1.91992-0.81641-1.896-1.82422
		c-0.02393-1.05664,0.74414-1.84863,1.91992-1.84863C27.48682,205.65039,28.23096,206.44238,28.25488,207.49902z M24.48682,222.5
		v-11.7373h3.64795V222.5H24.48682z"/>
	<path d="M42.43896,205.45898v13.53711c0,1.31934,0.04785,2.71191,0.0957,3.50391h-3.24023l-0.16797-1.72852h-0.04785
		c-0.74414,1.32031-2.16016,1.99219-3.67236,1.99219c-2.78418,0-5.0166-2.37598-5.0166-6.02441
		c-0.02393-3.95996,2.44824-6.24023,5.25635-6.24023c1.44043,0,2.56836,0.50391,3.09668,1.32031h0.04785v-6.36035H42.43896z
		 M38.79053,215.73145c0-0.19238-0.02393-0.45605-0.04785-0.64844c-0.21631-0.9834-1.0083-1.7998-2.13623-1.7998
		c-1.65625,0-2.52051,1.48828-2.52051,3.33594c0,1.99219,0.98438,3.24023,2.49609,3.24023c1.05615,0,1.89648-0.71973,2.1123-1.75195
		c0.07227-0.26367,0.09619-0.52832,0.09619-0.83984V215.73145z"/>
	<path d="M45.48584,206.53906c1.12842-0.19238,2.7124-0.33691,4.94482-0.33691c2.25586,0,3.86426,0.43262,4.94434,1.29688
		c1.03174,0.81543,1.72803,2.16016,1.72803,3.74414s-0.52783,2.92773-1.48828,3.83984
		c-1.24805,1.17676-3.09619,1.7041-5.25635,1.7041c-0.47998,0-0.91211-0.02344-1.24805-0.07129V222.5h-3.62451V206.53906z
		 M49.11035,213.88281c0.31201,0.07227,0.6958,0.09668,1.22412,0.09668c1.94434,0,3.14404-0.98438,3.14404-2.64062
		c0-1.48828-1.03174-2.37598-2.85596-2.37598c-0.74414,0-1.24805,0.07227-1.51221,0.14355V213.88281z"/>
	<path d="M59.09424,214.62695c0-1.72754-0.04834-2.85547-0.09619-3.86426h3.14404l0.12012,2.16016h0.09619
		c0.6001-1.7041,2.04004-2.42383,3.16797-2.42383c0.33643,0,0.50439,0,0.76807,0.04785v3.43262
		c-0.26367-0.04785-0.57568-0.09668-0.98389-0.09668c-1.34424,0-2.25635,0.7207-2.49609,1.84863
		c-0.04834,0.24023-0.07227,0.52832-0.07227,0.81641V222.5h-3.64795V214.62695z"/>
	<path d="M79.61523,216.49902c0,4.29688-3.04883,6.26465-6.19336,6.26465c-3.43213,0-6.07227-2.25586-6.07227-6.04785
		c0-3.79297,2.49609-6.2168,6.26465-6.2168C77.21484,210.49902,79.61523,212.9707,79.61523,216.49902z M71.11816,216.61914
		c0,2.0166,0.83984,3.52832,2.40039,3.52832c1.41602,0,2.32812-1.41602,2.32812-3.52832c0-1.75195-0.67188-3.52832-2.32812-3.52832
		C71.76611,213.09082,71.11816,214.8916,71.11816,216.61914z"/>
	<path d="M85.9502,207.40234v3.36035h2.61621v2.68848H85.9502v4.24805c0,1.41602,0.33594,2.06445,1.43945,2.06445
		c0.45605,0,0.81641-0.04785,1.08008-0.0957l0.02441,2.75977c-0.48047,0.19238-1.34473,0.3125-2.37598,0.3125
		c-1.17676,0-2.16016-0.4082-2.73633-1.00781c-0.67285-0.69629-1.00879-1.82422-1.00879-3.48047v-4.80078h-1.55957v-2.68848h1.55957
		v-2.54395L85.9502,207.40234z"/>
	<path d="M93.36621,217.7959c0.12012,1.51172,1.6084,2.23145,3.3125,2.23145c1.24805,0,2.25586-0.16797,3.24023-0.47949
		l0.47949,2.47168c-1.2002,0.48047-2.66406,0.7207-4.24805,0.7207c-3.98438,0-6.26465-2.30469-6.26465-5.97656
		c0-2.97656,1.84863-6.26465,5.92871-6.26465c3.79199,0,5.23242,2.95215,5.23242,5.85645c0,0.62402-0.07227,1.17578-0.12012,1.44043
		H93.36621z M97.66211,215.2998c0-0.88867-0.38379-2.37695-2.06348-2.37695c-1.53613,0-2.16016,1.39258-2.25684,2.37695H97.66211z"
		/>
	<path d="M112.03809,222.21191c-0.64746,0.28809-1.87207,0.52832-3.26367,0.52832c-3.79297,0-6.2168-2.30469-6.2168-6.00098
		c0-3.43164,2.35254-6.24023,6.7207-6.24023c0.95996,0,2.0166,0.16797,2.78418,0.45605l-0.57617,2.71191
		c-0.43164-0.19141-1.08008-0.35938-2.04004-0.35938c-1.91992,0-3.16797,1.36816-3.14453,3.28809
		c0,2.16016,1.44043,3.28809,3.2168,3.28809c0.86426,0,1.53613-0.14355,2.08789-0.36035L112.03809,222.21191z"/>
	<path d="M118.51758,207.40234v3.36035h2.61621v2.68848h-2.61621v4.24805c0,1.41602,0.33594,2.06445,1.43945,2.06445
		c0.45605,0,0.81641-0.04785,1.08008-0.0957l0.02441,2.75977c-0.48047,0.19238-1.34473,0.3125-2.37598,0.3125
		c-1.17676,0-2.16016-0.4082-2.73633-1.00781c-0.67188-0.69629-1.00879-1.82422-1.00879-3.48047v-4.80078h-1.55957v-2.68848h1.55957
		v-2.54395L118.51758,207.40234z"/>
	<path d="M127.01367,207.49902c0,1.00781-0.76758,1.82422-1.96777,1.82422c-1.15234,0-1.9209-0.81641-1.89648-1.82422
		c-0.02441-1.05664,0.74414-1.84863,1.91992-1.84863C126.24609,205.65039,126.98926,206.44238,127.01367,207.49902z
		 M123.24512,222.5v-11.7373h3.64844V222.5H123.24512z"/>
	<path d="M141.41406,216.49902c0,4.29688-3.04883,6.26465-6.19336,6.26465c-3.43164,0-6.07227-2.25586-6.07227-6.04785
		c0-3.79297,2.49609-6.2168,6.26465-6.2168C139.01367,210.49902,141.41406,212.9707,141.41406,216.49902z M132.91699,216.61914
		c0,2.0166,0.83984,3.52832,2.40039,3.52832c1.41602,0,2.32812-1.41602,2.32812-3.52832c0-1.75195-0.67188-3.52832-2.32812-3.52832
		C133.56445,213.09082,132.91699,214.8916,132.91699,216.61914z"/>
	<path d="M143.66797,214.50684c0-1.46387-0.04785-2.71191-0.0957-3.74414h3.16797l0.16797,1.6084h0.07227
		c0.48047-0.74414,1.68066-1.87207,3.62402-1.87207c2.40039,0,4.20117,1.58398,4.20117,5.04004V222.5h-3.64844v-6.50488
		c0-1.51172-0.52832-2.54395-1.84863-2.54395c-1.00781,0-1.6084,0.69629-1.84766,1.36816
		c-0.09668,0.21582-0.14453,0.57617-0.14453,0.91211V222.5h-3.64844V214.50684z"/>
	<path d="M161.62109,218.34766L160.46875,222.5h-3.79199l4.94434-16.17773h4.80078L171.4375,222.5h-3.93555l-1.24805-4.15234
		H161.62109z M165.72559,215.61133l-1.00879-3.43262c-0.28711-0.95996-0.5752-2.16016-0.81543-3.12012h-0.04785
		c-0.24023,0.95996-0.48047,2.18457-0.74414,3.12012l-0.95996,3.43262H165.72559z"/>
	<path d="M173.33203,205.45898h3.64844V222.5h-3.64844V205.45898z"/>
	<path d="M179.93164,205.45898h3.64844V222.5h-3.64844V205.45898z"/>
	<path d="M190.30078,207.49902c0,1.00781-0.76758,1.82422-1.96777,1.82422c-1.15234,0-1.9209-0.81641-1.89648-1.82422
		c-0.02441-1.05664,0.74414-1.84863,1.91992-1.84863C189.5332,205.65039,190.27637,206.44238,190.30078,207.49902z M186.53223,222.5
		v-11.7373h3.64844V222.5H186.53223z"/>
	<path d="M199.78027,222.5l-0.21582-1.17578h-0.07227c-0.76758,0.93555-1.96777,1.43945-3.36035,1.43945
		c-2.37598,0-3.79199-1.72754-3.79199-3.59961c0-3.04883,2.73633-4.5127,6.88867-4.48828v-0.16895
		c0-0.62402-0.33594-1.51172-2.13672-1.51172c-1.2002,0-2.47168,0.4082-3.24023,0.8877l-0.67188-2.35156
		c0.81641-0.45605,2.42383-1.03223,4.56055-1.03223c3.91211,0,5.16016,2.30371,5.16016,5.06445v4.08008
		c0,1.12793,0.04785,2.20801,0.16797,2.85645H199.78027z M199.34863,216.95508c-1.9209-0.02344-3.40918,0.43262-3.40918,1.84863
		c0,0.93652,0.625,1.3916,1.44043,1.3916c0.91211,0,1.65625-0.59961,1.89648-1.34375
		c0.04785-0.19141,0.07227-0.4082,0.07227-0.62402V216.95508z"/>
	<path d="M205.7793,214.50684c0-1.46387-0.04785-2.71191-0.0957-3.74414h3.16797l0.16797,1.6084h0.07227
		c0.48047-0.74414,1.68066-1.87207,3.62402-1.87207c2.40039,0,4.20117,1.58398,4.20117,5.04004V222.5h-3.64844v-6.50488
		c0-1.51172-0.52832-2.54395-1.84863-2.54395c-1.00781,0-1.6084,0.69629-1.84766,1.36816
		c-0.09668,0.21582-0.14453,0.57617-0.14453,0.91211V222.5h-3.64844V214.50684z"/>
	<path d="M228.65234,222.21191c-0.64746,0.28809-1.87207,0.52832-3.26367,0.52832c-3.79297,0-6.2168-2.30469-6.2168-6.00098
		c0-3.43164,2.35254-6.24023,6.7207-6.24023c0.95996,0,2.0166,0.16797,2.78418,0.45605l-0.57617,2.71191
		c-0.43164-0.19141-1.08008-0.35938-2.04004-0.35938c-1.91992,0-3.16797,1.36816-3.14453,3.28809
		c0,2.16016,1.44043,3.28809,3.2168,3.28809c0.86426,0,1.53613-0.14355,2.08789-0.36035L228.65234,222.21191z"/>
	<path d="M233.21191,217.7959c0.12012,1.51172,1.6084,2.23145,3.3125,2.23145c1.24805,0,2.25586-0.16797,3.24023-0.47949
		l0.47949,2.47168c-1.2002,0.48047-2.66406,0.7207-4.24805,0.7207c-3.98438,0-6.26465-2.30469-6.26465-5.97656
		c0-2.97656,1.84863-6.26465,5.92871-6.26465c3.79199,0,5.23242,2.95215,5.23242,5.85645c0,0.62402-0.07227,1.17578-0.12012,1.44043
		H233.21191z M237.50781,215.2998c0-0.88867-0.38379-2.37695-2.06348-2.37695c-1.53613,0-2.16016,1.39258-2.25684,2.37695H237.50781
		z"/>
</g>
</svg>
