<?xml version="1.0" encoding="UTF-8" standalone="no"?>
<svg
   version="1.1"
   id="svg4"
   width="48.439453"
   height="11.53125"
   xmlns="http://www.w3.org/2000/svg"
   xmlns:svg="http://www.w3.org/2000/svg">
  <defs
     id="defs8" />
  <g
     aria-label="Grid2Op"
     id="text2"
     transform="translate(-0.67382812,9.1171875)">
    <path
       d="M 8.4492188,-0.64453125 Q 7.734375,-0.31640625 6.8847656,-0.0703125 6.0410156,0.16992187 5.25,0.16992187 q -1.0195313,0 -1.8691406,-0.28124999 Q 2.53125,-0.39257813 1.9335937,-0.95507813 1.3300781,-1.5234375 1.0019531,-2.3730469 0.67382812,-3.2285156 0.67382812,-4.3710937 q 0,-2.0917969 1.21874998,-3.2988282 Q 3.1171875,-8.8828125 5.25,-8.8828125 q 0.7441406,0 1.5175781,0.1816406 0.7792969,0.1757813 1.6757813,0.6035156 v 1.3769532 H 8.3378906 Q 8.15625,-6.8613281 7.8105469,-7.0898437 7.4648437,-7.3183594 7.1308594,-7.4707031 6.7265625,-7.6523437 6.2109375,-7.7695312 5.7011719,-7.8925781 5.0507812,-7.8925781 q -1.4648437,0 -2.3203124,0.9433594 -0.8496094,0.9375 -0.8496094,2.5429687 0,1.6933594 0.890625,2.6367188 0.890625,0.93749995 2.4257812,0.93749995 0.5625,0 1.1191406,-0.11132813 0.5625,-0.11132812 0.984375,-0.28710932 V -3.3691406 H 4.9628906 v -1.0195313 h 3.4863282 z"
       id="path10" />
    <path
       d="m 14.472656,-5.34375 h -0.05859 q -0.246094,-0.058594 -0.480469,-0.082031 -0.228516,-0.029297 -0.544922,-0.029297 -0.509766,0 -0.984375,0.2285156 -0.474609,0.2226563 -0.914063,0.5800781 V 0 h -1.101562 v -6.5449219 h 1.101562 v 0.9667969 q 0.65625,-0.5273437 1.154297,-0.7441406 0.503907,-0.2226563 1.025391,-0.2226563 0.287109,0 0.416016,0.017578 0.128906,0.011719 0.386718,0.052734 z"
       id="path12" />
    <path
       d="m 16.693359,-7.640625 h -1.242187 v -1.1425781 h 1.242187 z M 16.623047,0 h -1.101563 v -6.5449219 h 1.101563 z"
       id="path14" />
    <path
       d="m 24.111328,0 h -1.101562 v -0.68554687 q -0.47461,0.41015624 -0.990235,0.63867187 -0.515625,0.22851562 -1.11914,0.22851562 -1.171875,0 -1.863282,-0.90234374 -0.685547,-0.90234378 -0.685547,-2.50195318 0,-0.8320312 0.234375,-1.4824218 0.240235,-0.6503906 0.644532,-1.1074219 0.398437,-0.4453125 0.925781,-0.6796875 0.533203,-0.234375 1.101562,-0.234375 0.515625,0 0.914063,0.1113281 0.398437,0.1054688 0.837891,0.3339844 v -2.8359375 h 1.101562 z m -1.101562,-1.6113281 v -3.7558594 q -0.445313,-0.1992187 -0.796875,-0.2753906 -0.351563,-0.076172 -0.767579,-0.076172 -0.925781,0 -1.441406,0.6445313 -0.515625,0.6445312 -0.515625,1.8281249 0,1.1660157 0.398438,1.7753907 0.398437,0.6035156 1.277343,0.6035156 0.46875,0 0.949219,-0.2050781 0.480469,-0.2109375 0.896485,-0.5390624 z"
       id="path16" />
    <path
       d="m 32.044922,0 h -5.90625 v -1.2246094 q 0.615234,-0.5273437 1.230469,-1.0546875 0.621093,-0.5273437 1.154296,-1.0488281 1.125,-1.0898437 1.541016,-1.7285156 0.416016,-0.6445313 0.416016,-1.3886719 0,-0.6796875 -0.451172,-1.0605469 -0.445313,-0.3867187 -1.248047,-0.3867187 -0.533203,0 -1.154297,0.1875 -0.621094,0.1875 -1.212891,0.5742187 h -0.05859 v -1.2304687 q 0.416015,-0.2050782 1.107422,-0.375 0.697265,-0.1699219 1.347656,-0.1699219 1.341797,0 2.103515,0.6503906 0.761719,0.6445313 0.761719,1.7519532 0,0.4980468 -0.128906,0.9316406 -0.123047,0.4277344 -0.369141,0.8144531 -0.228515,0.3632813 -0.539062,0.7148438 -0.304688,0.3515624 -0.744141,0.7792968 -0.626953,0.6152344 -1.294922,1.1953125 -0.667968,0.5742188 -1.248047,1.0664063 h 4.69336 z"
       id="path18" />
    <path
       d="m 40.5,-7.7226562 q 0.533203,0.5859375 0.814453,1.4355468 0.287109,0.8496094 0.287109,1.9277344 0,1.078125 -0.292968,1.9335937 -0.28711,0.8496094 -0.808594,1.4179688 -0.539063,0.59179687 -1.277344,0.890625 -0.732422,0.29882812 -1.675781,0.29882812 -0.919922,0 -1.675781,-0.30468749 -0.75,-0.30468751 -1.277344,-0.88476563 -0.527344,-0.5800781 -0.814453,-1.4238281 -0.28125,-0.84375 -0.28125,-1.9277344 0,-1.0664062 0.28125,-1.9101562 0.28125,-0.8496094 0.820312,-1.453125 0.515625,-0.5742188 1.277344,-0.8789063 0.767578,-0.3046875 1.669922,-0.3046875 0.9375,0 1.681641,0.3105469 0.75,0.3046875 1.271484,0.8730469 z m -0.105469,3.3632812 q 0,-1.6992187 -0.761719,-2.6191406 -0.761718,-0.9257813 -2.080078,-0.9257813 -1.330078,0 -2.091797,0.9257813 -0.755859,0.9199219 -0.755859,2.6191406 0,1.7167969 0.773438,2.6308594 0.773437,0.9082031 2.074218,0.9082031 1.300782,0 2.06836,-0.9082031 0.773437,-0.9140625 0.773437,-2.6308594 z"
       id="path20" />
    <path
       d="m 49.113281,-3.3515625 q 0,0.796875 -0.228515,1.4589844 -0.228516,0.65625 -0.644532,1.11328123 -0.386718,0.43359374 -0.914062,0.67382812 -0.521485,0.234375 -1.107422,0.234375 -0.509766,0 -0.925781,-0.11132812 Q 44.882812,-0.09375 44.455078,-0.328125 v 2.7421875 h -1.101562 v -8.9589844 h 1.101562 v 0.6855469 q 0.439453,-0.3691406 0.984375,-0.6152344 0.550781,-0.2519531 1.171875,-0.2519531 1.183594,0 1.839844,0.8964844 0.662109,0.890625 0.662109,2.4785156 z m -1.136719,0.029297 q 0,-1.1835938 -0.404296,-1.7695313 -0.404297,-0.5859375 -1.242188,-0.5859375 -0.474609,0 -0.955078,0.2050782 -0.480469,0.2050781 -0.919922,0.5390625 v 3.7089843 q 0.46875,0.2109375 0.802734,0.2871094 0.339844,0.0761719 0.767579,0.0761719 0.919921,0 1.435546,-0.6210938 0.515625,-0.6210937 0.515625,-1.8398437 z"
       id="path22" />
  </g>
</svg>
