<?xml version="1.0" encoding="UTF-8"?><svg id="Layer_1" xmlns="http://www.w3.org/2000/svg" xmlns:xlink="http://www.w3.org/1999/xlink" viewBox="0 0 1920 620"><defs><style>.cls-1{fill:#02353c;}.cls-2{fill:#003778;}.cls-3{fill:url(#linear-gradient-2);}.cls-4{fill:url(#linear-gradient);}.cls-5{fill:#0094ff;}</style><linearGradient id="linear-gradient" x1="1285.92" y1="363.83" x2="1492.35" y2="363.83" gradientUnits="userSpaceOnUse"><stop offset="0" stop-color="#00d4ad"/><stop offset=".1" stop-color="#09ce9d"/><stop offset=".36" stop-color="#1fc27a"/><stop offset=".6" stop-color="#2fba61"/><stop offset=".82" stop-color="#39b452"/><stop offset="1" stop-color="#3db34d"/></linearGradient><linearGradient id="linear-gradient-2" x1="2.5" y1="262.25" x2="526.71" y2="262.25" xlink:href="#linear-gradient"/></defs><path class="cls-1" d="M795.43,277.66v237.67c0,68.81-28.73,103.21-86.17,103.21-51.13,0-78.91-21.15-83.33-63.44h39.77c1.89,21.46,15.46,32.19,40.72,32.19,9.78,0,18.07-1.58,24.86-4.73,6.78-3.16,11.67-6.39,14.68-9.71,3-3.31,5.28-8.37,6.87-15.15,1.58-6.79,2.44-11.53,2.6-14.2.16-2.69.24-7.03.24-13.02v-33.14h-.95c-4.11,10.42-11.44,18.7-22.02,24.86-10.58,6.15-22.33,9.23-35.27,9.23-11.68,0-22.1-2.29-31.25-6.87-9.16-4.57-16.5-10.89-22.02-18.94-5.53-8.05-10.11-16.33-13.73-24.86-3.63-8.52-6.24-18.07-7.81-28.64-1.58-10.57-2.6-19.33-3.08-26.28-.47-6.94-.71-14.04-.71-21.31,0-24.93,2.29-46.79,6.87-65.57,4.57-18.78,13.26-34.8,26.04-48.06,12.78-13.26,29.43-19.89,49.95-19.89,13.26,0,25.01,3.87,35.27,11.6,10.25,7.74,16.81,16.81,19.65,27.22h.95v-32.19h37.88ZM706.89,305.12c-17.36,0-29.44,8.37-36.22,25.09-6.79,16.73-10.18,41.51-10.18,74.33,0,61.87,15.31,92.8,45.93,92.8,19.89,0,33.45-8.05,40.72-24.15,7.26-16.1,10.89-38.98,10.89-68.65,0-66.28-17.04-99.43-51.13-99.43Z"/><path class="cls-1" d="M847.51,531.44v-253.77h39.77v37.88h.95c13.89-29.66,32.19-44.5,54.92-44.5,7.89,0,13.73.95,17.52,2.84v38.82c-10.11-1.26-17.21-1.89-21.31-1.89-12,0-23.67,5.29-35.04,15.86-11.36,10.58-17.04,25.33-17.04,44.27v160.5h-39.77Z"/><path class="cls-1" d="M990.01,238.84v-45.45h39.77v45.45h-39.77ZM990.01,531.44v-253.77h39.77v253.77h-39.77Z"/><path class="cls-1" d="M1251.36,193.39v338.05h-37.88v-31.25h-.95c-2.84,10.11-9.4,18.94-19.65,26.51-10.26,7.58-22.02,11.36-35.27,11.36-55.24,0-82.85-44.5-82.85-133.51s26.67-133.51,80.01-133.51c11.67,0,22.8,3.24,33.38,9.71,10.57,6.47,18.07,15.08,22.49,25.8h.95v-113.16h39.77ZM1126.6,330.22c-6.79,16.73-10.18,41.51-10.18,74.33s3.39,57.61,10.18,74.33c6.78,16.73,18.86,25.09,36.22,25.09,20.2,0,33.77-8.36,40.72-25.09,6.94-16.73,10.42-41.5,10.42-74.33,0-66.28-17.04-99.43-51.13-99.43-17.36,0-29.44,8.37-36.22,25.09Z"/><path class="cls-4" d="M1285.92,531.44c0-14.83,1.49-28.72,4.5-41.66,3-12.94,7.58-25.25,13.73-36.93,6.15-11.67,13.89-23.12,23.2-34.33,9.31-11.2,20.12-22.49,32.43-33.85l27.46-25.57c7.58-6.63,13.65-12.78,18.23-18.46,4.57-5.68,8.12-11.36,10.65-17.04,2.52-5.68,4.18-11.84,4.97-18.46.78-6.63,1.18-14.2,1.18-22.73,0-27.77-11.05-41.66-33.14-41.66-8.52,0-15.23,1.74-20.12,5.21-4.9,3.48-8.68,8.21-11.36,14.2-2.69,6-4.42,12.95-5.21,20.83-.79,7.89-1.18,16.26-1.18,25.09h-65.34v-12.78c0-31.25,8.36-55.23,25.09-71.97,16.73-16.73,43.08-25.09,79.07-25.09,34.09,0,59.34,7.89,75.75,23.67,16.41,15.79,24.62,38.35,24.62,67.7,0,10.73-.95,20.76-2.84,30.06-1.89,9.31-4.9,18.23-9,26.75-4.11,8.52-9.47,16.81-16.1,24.86-6.63,8.05-14.68,16.33-24.15,24.86l-37.88,35.04c-10.11,9.16-17.99,18.07-23.67,26.75-5.68,8.68-9.31,16.18-10.89,22.49h126.41v53.03h-206.43Z"/><path class="cls-1" d="M1609.76,538.06c-60.92,0-91.38-44.5-91.38-133.51s30.46-133.51,91.38-133.51,91.38,44.5,91.38,133.51-30.46,133.51-91.38,133.51ZM1608.81,506.82c19.25,0,32.51-9.07,39.77-27.22,7.26-18.15,10.89-43.16,10.89-75.04,0-15.15-.71-28.33-2.13-39.53-1.42-11.2-3.87-21.85-7.34-31.96-3.48-10.1-8.68-17.75-15.62-22.96-6.95-5.21-15.47-7.81-25.57-7.81s-17.99,2.69-24.62,8.05c-6.63,5.37-11.6,13.02-14.91,22.96s-5.68,20.6-7.1,31.96c-1.42,11.36-2.13,24.46-2.13,39.3s.63,28.33,1.89,39.53c1.26,11.21,3.62,21.86,7.1,31.96,3.47,10.11,8.52,17.75,15.15,22.96,6.63,5.21,14.83,7.81,24.62,7.81Z"/><path class="cls-1" d="M1740.9,614.76v-337.1h37.88v31.25h.95c2.84-10.1,9.39-18.94,19.65-26.51,10.25-7.58,22.02-11.36,35.27-11.36,55.23,0,82.85,42.93,82.85,128.78,0,12.63-.71,24.86-2.13,36.69-1.42,11.84-4.11,24.07-8.05,36.69-3.95,12.63-8.92,23.6-14.91,32.91-6,9.31-13.97,16.97-23.91,22.96-9.94,5.99-21.23,9-33.85,9-11.36,0-21.94-3.24-31.72-9.71-9.79-6.47-16.89-15.07-21.31-25.8h-.95v112.21h-39.77ZM1778.3,404.55c0,66.28,17.04,99.43,51.13,99.43,17.36,0,29.43-8.6,36.22-25.8,6.78-17.2,10.18-43.32,10.18-78.36,0-30.61-3.4-54.05-10.18-70.31-6.79-16.25-18.86-24.38-36.22-24.38-20.2,0-33.78,8.37-40.72,25.09-6.95,16.73-10.42,41.51-10.42,74.33Z"/><path class="cls-3" d="M495.84,464.78H150.03v-105.64h336.69c4.3,5.02,10.75,8.15,17.93,7.95,11.63-.33,21.28-9.64,22.02-21.25.83-13.22-9.64-24.2-22.68-24.2-6.91,0-13.1,3.09-17.27,7.96H150.03c-16.32,0-29.55,13.23-29.55,29.55v105.64h-55.26v-98.45c0-20.25,7.96-39.17,22.4-53.29,14.3-13.98,33.4-21.68,53.78-21.68h246.41c36.94,0,71.59-13.87,97.56-39.09,25.84-25.08,40.06-58.51,40.06-94.12V1.45H3.78l.04,96.16c0,16.32,13.23,29.54,29.55,29.54h254.41c4.3,5.02,10.76,8.15,17.94,7.95,11.63-.33,21.28-9.64,22.01-21.25.83-13.22-9.64-24.2-22.68-24.2-6.91,0-13.1,3.09-17.27,7.96H33.37v-37.89h345.81v104.89H42.54c-4.3-5.05-10.76-8.2-17.95-8-11.64.32-21.32,9.63-22.05,21.25-.83,13.22,9.64,24.2,22.68,24.2,6.89,0,13.05-3.07,17.22-7.9h336.73c16.32,0,29.55-13.23,29.55-29.55V59.71h55.26v98.45c0,20.25-7.96,39.17-22.4,53.29-14.3,13.98-33.4,21.68-53.78,21.68h-246.41c-36.94,0-71.59,13.87-97.56,39.09-25.84,25.08-40.06,58.51-40.06,94.12v156.71h521.66l-.04-96.15c0-16.32-13.23-29.54-29.55-29.54h-254.47c-4.31-4.99-10.75-8.09-17.92-7.87-11.61.36-21.24,9.66-21.97,21.25-.83,13.22,9.64,24.2,22.68,24.2,6.95,0,13.16-3.12,17.33-8.03h254.33v37.88Z"/><path class="cls-5" d="M646.91,87.82v-42.75h-21.44v64.2h64.19v-21.44h-42.74Z"/><polygon class="cls-2" points="732.4 2.18 625.46 2.18 625.46 34.27 646.77 34.27 646.77 23.76 711.1 23.76 711.1 87.82 700.3 87.82 700.3 109.26 732.4 109.26 732.4 2.18"/><polygon class="cls-2" points="760.76 3.47 793.43 3.47 793.43 82.21 840.2 82.21 840.2 109.26 760.76 109.26 760.76 3.47"/><polygon class="cls-2" points="854.16 3.47 935.92 3.47 935.92 30.53 886.7 30.53 886.7 43.77 928.87 43.77 928.87 68.96 886.7 68.96 886.7 109.26 854.02 109.26 854.02 3.47 854.16 3.47"/><polygon class="cls-5" points="1020.12 109.83 960.96 109.83 960.96 3.18 1020.12 3.18 1020.12 10.09 968.59 10.09 968.59 50.39 1017.24 50.39 1017.24 57.3 968.59 57.3 968.59 103.08 1020.12 103.08 1020.12 109.83"/><path class="cls-5" d="M1123.17,109.83h-7.63l-64.05-94.7h-.57c.57,11.23.86,19.72.86,25.48v69.09h-7.2V3.18h7.48l64.05,94.56h.43c-.43-8.78-.72-17.13-.72-24.9V3.18h7.34v106.65h0Z"/><polygon class="cls-5" points="1212.98 109.83 1153.84 109.83 1153.84 3.18 1212.98 3.18 1212.98 10.09 1161.46 10.09 1161.46 50.39 1210.11 50.39 1210.11 57.3 1161.46 57.3 1161.46 103.08 1212.98 103.08 1212.98 109.83"/><path class="cls-5" d="M1279.49,61.19c7.77-2.02,13.53-5.61,17.42-10.51,3.88-4.9,5.75-10.94,5.75-18.13,0-9.79-3.17-17.13-9.64-22.03-6.48-4.9-16.41-7.34-29.8-7.34h-25.77v106.66h7.48v-46.49h0v-.15h26.77l27.93,46.5h9.21l-29.36-48.51ZM1265.52,57.01h-20.59s0,0,0,0V9.95h17.7c11.22,0,19.28,1.87,24.18,5.61,4.9,3.74,7.34,9.64,7.34,17.7s-2.45,13.67-7.48,17.7c-4.9,4.03-12.09,6.04-21.16,6.04Z"/><path class="cls-5" d="M1368.86,54.85h39v47.5c-10.22,4.32-21.73,6.48-34.55,6.48-16.7,0-29.5-4.61-38.29-13.96-8.77-9.35-13.38-22.46-13.38-39.44,0-10.65,2.16-20,6.62-28.21,4.46-8.21,10.79-14.54,19-19,8.21-4.46,17.7-6.77,28.35-6.77,11.52,0,21.88,2.15,31.09,6.34l-3.02,6.62c-9.21-4.17-18.71-6.34-28.5-6.34-13.96,0-25.04,4.17-33.1,12.66-8.06,8.49-12.24,19.86-12.24,34.26,0,15.69,3.89,27.49,11.66,35.4,7.77,7.92,19.14,11.8,34.26,11.8,9.79,0,17.99-1.3,24.75-4.02v-36.55h-31.52v-6.77h-.13Z"/><polygon class="cls-5" points="1459.4 61.19 1490.92 3.18 1498.98 3.18 1463.14 68.25 1463.14 109.26 1455.37 109.26 1455.37 68.82 1419.38 3.18 1428.02 3.18 1459.4 61.19 1459.4 61.19"/></svg>