<?xml version="1.0" encoding="utf-8"?>
<!-- Generator: Adobe Illustrator 24.3.0, SVG Export Plug-In . SVG Version: 6.00 Build 0)  -->
<svg version="1.1" id="Layer_1" xmlns="http://www.w3.org/2000/svg" xmlns:xlink="http://www.w3.org/1999/xlink" x="0px" y="0px"
	 viewBox="0 0 288 248.24" style="enable-background:new 0 0 288 248.24;" xml:space="preserve">
<g>
	<path d="M87.43,116.79c-0.27-1.18-0.94-2-2-2.47c-0.59-0.26-1.25-0.39-1.98-0.39c-1.39,0-2.53,0.52-3.43,1.57s-1.34,2.63-1.34,4.73
		c0,2.12,0.48,3.62,1.45,4.5c0.97,0.88,2.07,1.32,3.3,1.32c1.21,0,2.2-0.35,2.98-1.04c0.77-0.7,1.25-1.61,1.43-2.73h-4v-2.88h7.2
		v9.27h-2.39l-0.36-2.16c-0.7,0.82-1.32,1.39-1.88,1.73c-0.95,0.58-2.12,0.88-3.52,0.88c-2.29,0-4.16-0.79-5.62-2.38
		c-1.52-1.59-2.29-3.77-2.29-6.53c0-2.79,0.77-5.04,2.31-6.72c1.54-1.69,3.57-2.53,6.11-2.53c2.2,0,3.96,0.56,5.29,1.67
		s2.1,2.5,2.29,4.17H87.43z"/>
	<path d="M101.31,115.6c0.04,0,0.14,0.01,0.29,0.02v3.42c-0.21-0.02-0.4-0.04-0.56-0.05s-0.3-0.01-0.4-0.01
		c-1.34,0-2.25,0.44-2.71,1.31c-0.26,0.49-0.39,1.25-0.39,2.27v6.11h-3.36v-12.77h3.19v2.23c0.52-0.85,0.96-1.43,1.35-1.75
		c0.62-0.52,1.44-0.79,2.44-0.79C101.22,115.59,101.27,115.59,101.31,115.6z"/>
	<path d="M106.99,114.37h-3.39v-3.08h3.39V114.37z M103.61,115.89h3.39v12.77h-3.39V115.89z"/>
	<path d="M117,116.1c0.6,0.34,1.09,0.81,1.46,1.41v-6.09h3.39v17.25h-3.25v-1.77c-0.48,0.76-1.02,1.31-1.63,1.65
		s-1.37,0.52-2.27,0.52c-1.49,0-2.75-0.6-3.77-1.81s-1.53-2.76-1.53-4.65c0-2.18,0.5-3.89,1.51-5.14s2.35-1.88,4.03-1.88
		C115.71,115.59,116.4,115.76,117,116.1z M117.82,125.2c0.49-0.7,0.74-1.61,0.74-2.73c0-1.56-0.39-2.68-1.18-3.35
		c-0.48-0.41-1.05-0.61-1.69-0.61c-0.98,0-1.69,0.37-2.15,1.11s-0.69,1.65-0.69,2.75c0,1.18,0.23,2.12,0.7,2.83s1.17,1.06,2.12,1.06
		S117.33,125.9,117.82,125.2z"/>
	<path d="M130.1,111.39h4.08l6.11,17.27h-3.91l-1.14-3.55h-6.36l-1.17,3.55h-3.78L130.1,111.39z M129.86,122.14h4.42l-2.18-6.8
		L129.86,122.14z"/>
	<path d="M154.08,121.19c-1.01,0.84-2.46,1.27-4.33,1.27h-3.6v6.21h-3.59v-17.27h7.42c1.71,0,3.07,0.45,4.09,1.34
		c1.02,0.89,1.53,2.27,1.53,4.14C155.6,118.91,155.1,120.35,154.08,121.19z M151.33,114.97c-0.46-0.38-1.1-0.57-1.92-0.57h-3.25
		v5.09h3.25c0.82,0,1.46-0.21,1.92-0.62s0.69-1.07,0.69-1.97S151.79,115.35,151.33,114.97z"/>
	<path d="M170.09,121.19c-1.01,0.84-2.46,1.27-4.33,1.27h-3.6v6.21h-3.59v-17.27H166c1.71,0,3.07,0.45,4.09,1.34
		c1.02,0.89,1.53,2.27,1.53,4.14C171.61,118.91,171.1,120.35,170.09,121.19z M167.34,114.97c-0.46-0.38-1.1-0.57-1.92-0.57h-3.25
		v5.09h3.25c0.82,0,1.46-0.21,1.92-0.62s0.69-1.07,0.69-1.97S167.79,115.35,167.34,114.97z"/>
	<path d="M177.11,123.34c0.11,0.79,0.33,1.38,0.66,1.77c0.6,0.71,1.62,1.07,3.08,1.07c0.87,0,1.58-0.09,2.12-0.28
		c1.03-0.36,1.54-1.03,1.54-2c0-0.57-0.25-1.01-0.76-1.32c-0.5-0.3-1.3-0.57-2.4-0.81l-1.87-0.41c-1.84-0.41-3.1-0.85-3.79-1.32
		c-1.16-0.8-1.75-2.04-1.75-3.74c0-1.55,0.57-2.83,1.71-3.86s2.81-1.54,5.02-1.54c1.84,0,3.41,0.48,4.71,1.45
		c1.3,0.96,1.98,2.37,2.05,4.2h-3.47c-0.06-1.04-0.53-1.78-1.39-2.21c-0.58-0.29-1.29-0.43-2.15-0.43c-0.95,0-1.71,0.19-2.28,0.56
		c-0.57,0.38-0.85,0.9-0.85,1.57c0,0.62,0.28,1.08,0.84,1.38c0.36,0.2,1.12,0.44,2.29,0.71l3.03,0.71c1.33,0.31,2.32,0.73,2.99,1.25
		c1.03,0.81,1.54,1.99,1.54,3.53c0,1.58-0.61,2.89-1.83,3.93s-2.94,1.56-5.17,1.56c-2.27,0-4.06-0.51-5.37-1.54
		s-1.95-2.44-1.95-4.24H177.11z"/>
	<path d="M189.23,120.39h6.54v3.16h-6.54V120.39z"/>
	<path d="M208.62,111.77c1.21,0.4,2.19,1.13,2.94,2.19c0.6,0.86,1.01,1.79,1.23,2.79c0.22,1,0.33,1.95,0.33,2.86
		c0,2.3-0.46,4.24-1.38,5.84c-1.25,2.15-3.18,3.22-5.79,3.22h-7.45v-17.27h7.45C207.02,111.41,207.91,111.54,208.62,111.77z
		 M202.01,114.39v11.27h3.33c1.71,0,2.9-0.84,3.57-2.52c0.37-0.92,0.55-2.02,0.55-3.29c0-1.76-0.28-3.11-0.83-4.05
		c-0.55-0.94-1.65-1.41-3.29-1.41H202.01z"/>
</g>
</svg>
