<svg xmlns="http://www.w3.org/2000/svg" role="img" viewBox="3.77 1.15 128.96 69.58"><path fill="#484F5E" d="M72.6332 27.8422c-.052-.2776-.1214-.5725-.1908-.85-.0867-.3296-.2082-.6419-.347-.9541-.0173-.0347-.0347-.0868-.052-.1214-1.2143-2.6542-3.8684-4.545-6.9389-4.5971-2.6541-.052-5.0134 1.249-6.4532 3.244-.3122.4163-.5725.8847-.798 1.3704-.0173.0347-.0347.0694-.052.1214-.1388.3123-.2429.6245-.347.9541-.0867.2776-.1387.5551-.1908.8501-.052.2602-.0867.5377-.1041.8153-.0173.2255-.0173.4337-.0173.6592 0 .3643.0347.7286.1041 1.0755.052.3296.1214.6419.2081.9541.9368 3.2093 3.8685 5.6032 7.3553 5.6726 2.6541.052 5.0133-1.249 6.4532-3.244l-4.0246-1.4745c-.5725.5378-1.3184.85-2.099.8847-1.3531.0694-2.498-.6071-3.1052-1.8561-.1388-.2949-.2602-.6072-.3296-.9541h10.9808c.0347-.2256.0694-.4684.0868-.7113.0173-.2255.0173-.4337.0173-.6592-.052-.399-.0867-.798-.1561-1.1796zm-10.9808 0c.0867-.2949.1908-.5898.3296-.85.1908-.3643.4163-.6766.6939-.9541h.0173-.0173c.0347-.0347.0867-.0694.1214-.1041.5551-.4857 1.2317-.798 1.9602-.8327.9021-.052 1.7001.2602 2.3246.8327.0347.0347.0867.0694.1214.1214.2602.2602.4857.5898.6592.9541.1214.2602.2255.5378.3123.8501h-6.5226v-.0174zM21.979 10.8419c0-2.96635-1.8041-5.5164-4.3715-6.60928-.8673-.3643-1.8041-.57246-2.7929-.57246H6.34912l.01735 19.98414h4.35413v-5.6379h3.2266l2.7583 5.6379h4.7531l-3.2613-6.4879c2.2552-1.2143 3.7817-3.5909 3.7817-6.3145zm-4.3541 0c0 1.5613-1.2664 2.8277-2.8276 2.8277h-4.0767V8.01433h4.0767c1.5612 0 2.8276 1.26636 2.8276 2.82757z"/><path fill="#484F5E" d="M27.3915 17.2431v-1.5439l-3.695 3.3827 3.695 3.5389v-1.5439c3.5215 0 5.6205 3.0531 5.6205 6.1583 0 3.1051-2.1684 6.2624-5.6205 6.2624-3.7471 0-5.6206-3.1573-5.6206-6.2624h-4.3715c0 5.5164 4.4756 9.992 9.9921 9.992 5.5164 0 9.992-4.4756 9.992-9.992.0174-5.5338-4.4582-9.9921-9.992-9.9921zm92.0965 13.6002c-.485 1.4572-1.682 2.2898-3.018 2.3592-1.527.0694-2.776-.7979-3.331-2.3766-.121-.3469-.208-.7285-.243-1.1449-.017-.2255-.034-.451-.034-.6939 0-.104 0-.2255.017-.3296.035-.4163.104-.7979.243-1.1622.503-1.4052 1.683-2.3419 3.001-2.4113 1.526-.0694 2.775.8327 3.313 2.4286l4.285-.7633c-1.006-3.0878-3.886-5.3776-7.268-5.4297-3.539-.0694-6.54 2.2552-7.581 5.4297-.226.6766-.347 1.4052-.382 2.1511V29.4382c.017.7459.156 1.4571.382 2.151 1.006 3.0879 3.886 5.3777 7.268 5.4297 3.539.0694 6.54-2.2551 7.581-5.4297l-4.233-.7459zm10.721-9.0552h-4.354v14.9013h4.354V21.7881zm-.312-2.9144h-3.661c-.19 0-.364-.1561-.364-.3643v-3.6429c0-.1908.156-.3643.364-.3643h3.661c.19 0 .364.1561.364.3643v3.6603c0 .1908-.174.3469-.364.3469zm-24.148 8.3268c-1.336-1.7001-4.649-2.8797-6.2622-3.4695-1.4398-.5204-1.9602-.9367-1.9429-1.648.0521-1.3531 1.3704-1.648 2.2552-1.648 1.9599 0 2.2549 2.0644 2.2549 2.0644l3.851-.9542s-.746-4.8745-6.7478-4.8745c-1.9429 0-4.0593 1.1449-5.1695 2.6021-.9888 1.301-1.1102 2.897-.4684 4.4929.8501 2.1337 2.6021 2.7756 4.3716 3.4174 1.3184.4857 3.0881.9715 4.1981 2.0817.538.5378.642 1.4572.26 2.2378-.399.85-1.526 1.4398-2.6193 1.4398-2.394 0-3.3654-2.151-3.4001-2.2378l-.1214-.2949-4.3369.8674.1041.3643c.0174.052.399 1.3531 1.5613 2.6715 1.0755 1.2143 3.0358 2.6715 6.3144 2.6715 2.7929 0 5.0129-1.197 6.2099-3.3654 1.128-2.0123 1.18-4.5277-.312-6.4185zm-57.5234-5.8634c-1.5786-.0347-3.2093.4163-4.0593 1.2143v-.7286h-4.3542v21.8403h4.3542v-7.8063c.7633.7286 2.3072 1.1622 3.7644 1.1969 4.4235.0868 7.546-3.5735 7.4767-7.9971-.0868-4.1807-3.0185-7.6328-7.1818-7.7195zm-.4511 11.9002c-2.0296.1041-3.5908-1.4745-3.6082-4.1633v-.1041c.0174-2.1858 1.5092-3.7817 3.2439-3.8685 2.0297-.104 3.6083 1.5786 3.6083 4.2675 0 2.3766-1.5092 3.7643-3.244 3.8684zm34.9721-11.8481c-2.602 0-3.8164 1.7173-3.8164 1.7173v-1.3184H74.871v14.9014h4.0592v-7.0083c0-2.446 1.1276-4.3889 3.1226-4.3889 1.9949 0 3.0704 1.7347 3.0704 4.3889v7.0083h4.1113v-8.3094c0-1.5959-.3816-6.9909-6.4879-6.9909z"/><path d="M32.42104 53.84294h4.1654c-.23055-1.94984-1.12537-3.57927-2.68837-4.88437-1.55909-1.3012-3.62615-1.95375-6.2012-1.95375-2.96579 0-5.35327.9886-7.15854 2.96579-1.80135 1.9772-2.70399 4.60694-2.70399 7.88533 0 3.24323.89091 5.79483 2.67664 7.66652 1.7154 1.85606 3.9114 2.78605 6.59586 2.78605 1.62943 0 3.00487-.34386 4.12241-1.02768.64865-.39465 1.37935-1.07456 2.19602-2.0358l.42591 2.52815h2.80168V56.90642h-8.43238v3.37999h4.68118c-.2071 1.32855-.76587 2.40311-1.6724 3.22369-.90655.81666-2.07098 1.22695-3.4894 1.22695-1.44969 0-2.73916-.51579-3.87625-1.55128-1.13317-1.03548-1.70367-2.79777-1.70367-5.29075 0-2.46954.52361-4.3217 1.57473-5.55647 1.0472-1.23086 2.38748-1.84824 4.0169-1.84824.85184 0 1.62553.15239 2.32106.45717 1.2465.54705 2.028 1.5122 2.34841 2.89546zm-4.73589-6.83812zM43.7567 61.52509h-4.04036c0 2.10614.75806 3.75901 2.26635 4.96252 1.5122 1.20742 3.58709 1.80917 6.22465 1.80917 2.58286 0 4.57959-.61347 5.9941-1.83652 1.41843-1.21914 2.12568-2.7587 2.12568-4.60694 0-1.80527-.60566-3.18461-1.81308-4.13414-.7815-.61347-1.9342-1.10582-3.46204-1.46922l-3.4894-.84011c-1.34809-.32041-2.22727-.59785-2.63756-.8362-.64083-.3595-.96125-.89873-.96125-1.62162 0-.78931.32433-1.40279.97297-1.84043.65255-.44155 1.52002-.66037 2.61021-.66037.98078 0 1.80136.16803 2.45782.50798.9925.51188 1.52002 1.37935 1.59426 2.59458h4.0677c-.07424-2.14913-.86355-3.79028-2.37185-4.92345-1.50438-1.12927-3.32528-1.69586-5.45877-1.69586-2.5555 0-4.49363.59785-5.81046 1.79745-1.32073 1.20351-1.97719 2.7079-1.97719 4.52098 0 1.98892.6799 3.45032 2.04362 4.38422.80885.55877 2.26244 1.07456 4.36859 1.55127l2.14521.48063c1.25431.27352 2.17257.59003 2.7587.94952.58612.3634.87919.8831.87919 1.55128 0 1.1449-.59003 1.9264-1.7701 2.3484-.6213.21882-1.43405.32823-2.43046.32823-1.6685 0-2.84467-.4142-3.53238-1.2504-.37512-.45717-.6252-1.1488-.75415-2.07097zm4.10678-14.61796zm24.543 15.98949c-.98468 1.23868-2.31714 1.85606-3.99346 1.85606-1.67632 0-3.01268-.61738-4.0091-1.85606-1.00031-1.23477-1.49657-2.99315-1.49657-5.27513 0-2.27807.49626-4.03644 1.49658-5.27512.99641-1.23477 2.33277-1.85606 4.0091-1.85606 1.67631 0 3.00877.62129 3.99346 1.86387.98469 1.23868 1.47703 2.99706 1.47703 5.26731 0 2.28198-.49234 4.04036-1.47703 5.27513zm2.64148 3.07911c2.04362-1.93421 3.06348-4.71635 3.06348-8.35424 0-3.70821-1.01986-6.49426-3.06348-8.35032-1.52784-1.57863-3.73948-2.36404-6.63494-2.36404-2.89155 0-5.1032.7854-6.63493 2.36404-2.05144 1.85606-3.0752 4.6421-3.0752 8.35032 0 3.63789 1.02376 6.42003 3.0752 8.35424 1.53174 1.57472 3.74338 2.36013 6.63493 2.36013 2.89546 0 5.1071-.7854 6.63494-2.36013zm-6.63494-19.0686zm17.0367 4.13413h3.89969c1.92249 0 3.20805.55096 3.8528 1.65678.64864 1.10192.96905 2.68446.96905 4.74371 0 1.49266-.21491 2.78214-.64474 3.86061-.78931 1.96938-2.18038 2.95407-4.17711 2.95407h-3.89969zm7.74857-3.0752c-.8362-.27743-1.8795-.422-3.13381-.44155h-8.72154v20.24867h8.72154c3.05957 0 5.32202-1.25821 6.78733-3.77855 1.07847-1.86779 1.62161-4.14586 1.62161-6.83813 0-1.06284-.12895-2.18038-.38684-3.35263-.2579-1.17225-.73852-2.26245-1.44187-3.27058-.87919-1.2465-2.028-2.10223-3.44641-2.56723zm12.69156 3.0752h4.91955c.91435 0 1.60207.12114 2.05925.3595.81667.4181 1.22305 1.24258 1.22305 2.46953 0 1.13709-.42201 1.89514-1.26603 2.28199-.47672.21881-1.18788.32822-2.14131.32822h-4.7945zm9.07322-2.99314c-.76587-.32042-1.85606-.49625-3.27448-.5236h-9.93287v20.24866h4.13414v-7.94004h4.36858c1.2465 0 2.09442.21491 2.54769.64474.45327.42982.68772 1.29338.70726 2.58286l.02735 1.88341c.01172.59394.07033 1.17616.17974 1.74275.05471.27743.14458.63692.27353 1.08628h4.65774v-.50797c-.40247-.24618-.66037-.63302-.76978-1.15272-.07424-.33213-.1094-.95733-.1094-1.88341v-1.35981c0-1.41842-.19538-2.47345-.58223-3.16508-.39075-.69162-1.05111-1.22695-1.985-1.60207 1.11754-.38294 1.91858-1.0394 2.4031-1.96938.48454-.92999.7268-1.8756.7268-2.83685 0-.79713-.12895-1.5083-.38293-2.12958-.2579-.6252-.60566-1.1918-1.0433-1.70367-.53142-.6252-1.18007-1.0941-1.94594-1.41452z"/></svg>
