<?xml version="1.0" encoding="UTF-8" standalone="no"?>
<svg
   version="1.1"
   id="svg4"
   width="58.681641"
   height="11.296875"
   xmlns="http://www.w3.org/2000/svg"
   xmlns:svg="http://www.w3.org/2000/svg">
  <defs
     id="defs8" />
  <g
     aria-label="Gym-ANM"
     id="text2"
     transform="translate(-0.67382812,8.8828125)">
    <path
       d="M 8.4492188,-0.64453125 Q 7.734375,-0.31640625 6.8847656,-0.0703125 6.0410156,0.16992187 5.25,0.16992187 q -1.0195313,0 -1.8691406,-0.28124999 Q 2.53125,-0.39257813 1.9335937,-0.95507813 1.3300781,-1.5234375 1.0019531,-2.3730469 0.67382812,-3.2285156 0.67382812,-4.3710937 q 0,-2.0917969 1.21874998,-3.2988282 Q 3.1171875,-8.8828125 5.25,-8.8828125 q 0.7441406,0 1.5175781,0.1816406 0.7792969,0.1757813 1.6757813,0.6035156 v 1.3769532 H 8.3378906 Q 8.15625,-6.8613281 7.8105469,-7.0898437 7.4648437,-7.3183594 7.1308594,-7.4707031 6.7265625,-7.6523437 6.2109375,-7.7695312 5.7011719,-7.8925781 5.0507812,-7.8925781 q -1.4648437,0 -2.3203124,0.9433594 -0.8496094,0.9375 -0.8496094,2.5429687 0,1.6933594 0.890625,2.6367188 0.890625,0.93749995 2.4257812,0.93749995 0.5625,0 1.1191406,-0.11132813 0.5625,-0.11132812 0.984375,-0.28710932 V -3.3691406 H 4.9628906 v -1.0195313 h 3.4863282 z"
       id="path10" />
    <path
       d="m 16.048828,-6.5449219 -3.820312,8.9589844 h -1.177735 l 1.21875,-2.73046875 -2.6074216,-6.22851565 h 1.1953126 l 2.009766,4.8515625 2.027343,-4.8515625 z"
       id="path12" />
    <path
       d="m 27.041016,0 h -1.101563 v -3.7265625 q 0,-0.421875 -0.04102,-0.8144531 -0.03516,-0.3925781 -0.158203,-0.6269531 -0.134765,-0.2519532 -0.386718,-0.3808594 -0.251954,-0.1289063 -0.726563,-0.1289063 -0.462891,0 -0.925781,0.234375 -0.462891,0.2285157 -0.925781,0.5859375 0.01758,0.1347657 0.0293,0.3164063 0.01172,0.1757812 0.01172,0.3515625 V 0 h -1.101562 v -3.7265625 q 0,-0.4335937 -0.04102,-0.8203125 -0.03516,-0.3925781 -0.158203,-0.6269531 -0.134766,-0.2519531 -0.386719,-0.375 -0.251953,-0.1289063 -0.726562,-0.1289063 -0.451172,0 -0.908203,0.2226563 -0.451172,0.2226562 -0.902344,0.5683594 V 0 h -1.101563 v -6.5449219 h 1.101563 v 0.7265625 q 0.515625,-0.4277343 1.02539,-0.6679687 0.515625,-0.2402344 1.095704,-0.2402344 0.667968,0 1.130859,0.28125 0.46875,0.28125 0.697266,0.7792969 0.667968,-0.5625 1.21875,-0.8085938 0.550781,-0.2519531 1.177734,-0.2519531 1.078125,0 1.587891,0.65625 0.515625,0.6503906 0.515625,1.8222656 z"
       id="path14" />
    <path
       d="m 32.630859,-3.2871094 h -3.65625 v -1.0605468 h 3.65625 z"
       id="path16" />
    <path
       d="M 41.285156,0 H 40.048828 L 39.193359,-2.4316406 H 35.419922 L 34.564453,0 H 33.386719 L 36.5625,-8.7246094 h 1.546875 z m -2.449219,-3.4277344 -1.529296,-4.2832031 -1.535157,4.2832031 z"
       id="path18" />
    <path
       d="M 49.265625,0 H 47.830078 L 43.693359,-7.8046875 V 0 h -1.083984 v -8.7246094 h 1.798828 l 3.773438,7.125 v -7.125 h 1.083984 z"
       id="path20" />
    <path
       d="m 59.355469,0 h -1.160157 v -7.5175781 l -2.425781,5.1152343 H 55.078125 L 52.669922,-7.5175781 V 0 h -1.083985 v -8.7246094 h 1.582032 l 2.326172,4.8574219 2.25,-4.8574219 h 1.611328 z"
       id="path22" />
  </g>
</svg>
