<svg xmlns="http://www.w3.org/2000/svg" role="img" viewBox="-3.12 -3.12 162.11 108.98"><path fill="#fff" d="M0 0h155.91v45.301H0z"/><path fill="#023d6b" d="M94.289 36.93h-.64001a.23.23 0 0 0-.23.24v2.81c0 .83001-.42001 1.28-1.06 1.28-.64001 0-1-.45-1-1.28v-2.81a.25.25 0 0 0-.25001-.24h-.63a.24.24 0 0 0-.24.24v2.68c0 1.45.59 2.35 1.81 2.35a1.51 1.51 0 0 0 1.38-.66001v.32a.23.23 0 0 0 .23.24h.64001a.24.24 0 0 0 .24-.24v-4.69a.24.24 0 0 0-.25-.24zm-8.0001-.11a1.58 1.58 0 0 0-1.43.70001v-2.41a.25.25 0 0 0-.25-.25h-.63001a.24.24 0 0 0-.24.25v6.7501a.23.23 0 0 0 .24.24h.67001a.24.24 0 0 0 .25-.24v-2.8c0-.83001.45001-1.29 1.1-1.29.65001 0 1.09.46 1.09 1.29v2.8a.24.24 0 0 0 .24001.24h.63a.24.24 0 0 0 .25-.24v-2.68c-.01-1.41-.62-2.36-1.89-2.36zm1.71-28.84h-2.49a.93001.93001 0 0 0-.93001.93001v11.88c0 3.09-1.5 4.41-3.63 4.41s-3.57-1.32-3.57-4.41v-11.88a.93001.93001 0 0 0-.93-.93001h-2.49a.93001.93001 0 0 0-.93001.93001v11.88c0 5.2501 3.18 8.4901 7.9201 8.4901s8.0001-3.24 8.0001-8.4901v-11.88a.93001.93001 0 0 0-.92001-.93001zm-17.46 29h-.13001a1.57 1.57 0 0 0-1.38.77001v-.53a.23.23 0 0 0-.23-.24h-.58001a.24.24 0 0 0-.24.24v4.69a.23.23 0 0 0 .24.24h.62001a.25.25 0 0 0 .25-.24v-2.39c0-1 .44001-1.49 1.31-1.49h.14001a.24.24 0 0 0 .25-.23V37.17a.25.25 0 0 0-.22-.24zm9.4101.84001a1.07 1.07 0 0 1 1.08.92001.17.17 0 0 0 .17.15h.72001a.15.15 0 0 0 .15-.17.32.32 0 0 0 0-.13 2.11 2.11 0 0 0-2.1-1.72 2.19 2.19 0 0 0-2.2 2.36v.67001a2.18 2.18 0 0 0 2.2 2.35 2.07 2.07 0 0 0 2.1-1.66 1.28 1.28 0 0 0 0-.17.16.16 0 0 0-.17-.16H81.179a.15.15 0 0 0-.16.14 1 1 0 0 1-1.07.91001c-.64001 0-1.11-.45-1.11-1.28v-.92001c.03-.88001.5-1.34 1.14-1.34zm-6.6301.52c0-.43.39001-.57.84001-.57a.88001.88001 0 0 1 1 .64001c0 .11.07.16.19.16h.65001a.17.17 0 0 0 .17-.18.44.44 0 0 0 0-.13 1.81 1.81 0 0 0-1.93-1.39c-1 0-2 .45-2 1.52 0 2.1 2.94 1.23 2.94 2.31 0 .48-.36.66001-1 .66001a1 1 0 0 1-1.06-.69001c0-.1-.07-.17-.18-.17h-.64001a.19.19 0 0 0-.19.17.31.31 0 0 0 0 .14 1.89 1.89 0 0 0 2 1.44c1.07 0 2-.4 2-1.57.17-2.12-2.76-1.26-2.76-2.39zm4.66-32.14a2.16 2.16 0 1 0-2.16-2.16 2 2 0 0 0 2.19 2.11zm6.3001 0a2.16 2.16 0 1 0-2.16-2.16 2 2 0 0 0 2.19 2.11zm-15.88 2.76a.93001.93001 0 0 0-.93001-.93001h-2.49a.93001.93001 0 0 0-.93001.93001v13.51a2.54 2.54 0 1 1-5.07 0v-.27a.93001.93001 0 0 0-.93001-.93001h-2.4a.93001.93001 0 0 0-.93001.93001v.21a6.8401 6.8401 0 1 0 13.68 0zm-52.131 10.34l7.3801-19.17a22.7 22.7 0 0 0-22.61 12.2.50001.50001 0 0 1 0 .13l-.32.83001c-2.24 5.7901 1.18 10.08 4.5 11.36a8.5501 8.5501 0 0 0 11.05-5.3501zm47.76 17.52a2.2 2.2 0 0 0-2.22 2.36v.67001a2.23 2.23 0 1 0 4.46 0v-.67001a2.2 2.2 0 0 0-2.24-2.36zm1.12 3.16c0 .83001-.46 1.28-1.12 1.28s-1.1-.45-1.1-1.28V39.06c0-.83001.47-1.29 1.1-1.29s1.12.46 1.12 1.29zm-35.5-15.71c-4.4 11.5-15 15.81-24.71 14.15a22.67 22.67 0 1 0 31.77-32.33zm31 10.59h-4a.24.24 0 0 0-.23.25v6.7501a.23.23 0 0 0 .23.24h.63001a.24.24 0 0 0 .25-.24v-2.65h2.5a.24.24 0 0 0 .24-.24v-.55001a.25.25 0 0 0-.24-.25h-2.5v-2.27h3.12a.25.25 0 0 0 .25-.24v-.55a.25.25 0 0 0-.25-.25zm85.451 2.07h-.63a.24.24 0 0 0-.24001.24v2.81c0 .83001-.42 1.28-1.06 1.28-.64 0-1-.45-1-1.28v-2.81a.25.25 0 0 0-.25-.24h-.63001a.24.24 0 0 0-.24.24v2.68c0 1.45.59001 2.35 1.81 2.35a1.51 1.51 0 0 0 1.38-.66001v.32a.23.23 0 0 0 .24001.24h.63a.24.24 0 0 0 .24-.24v-4.69a.24.24 0 0 0-.28-.24zm-10.59-15.45h-3.09c-.6 0-.72.48-.78001.93001a3.13 3.13 0 0 1-3.42 2.79c-2.19 0-4-1.62-4-4.71v-4c0-3.09 1.77-4.77 4-4.77a3.27 3.27 0 0 1 3.43 2.92c.09.60001.42.81001.75.81001h3.06a.63001.63001 0 0 0 .66001-.75001 7.5501 7.5501 0 0 0-7.9001-7.0601c-4.8 0-8.3101 3.54-8.3101 8.7901v4c0 5.2501 3.51 8.7901 8.3101 8.7901a7.7101 7.7101 0 0 0 8.0001-7.0801.68001.68001 0 0 0-.71001-.66001zm4.6 15.45h-.14a1.54 1.54 0 0 0-1.37.77001v-.53a.24.24 0 0 0-.24001-.24h-.58a.24.24 0 0 0-.24001.24v4.69a.23.23 0 0 0 .24001.24h.62a.25.25 0 0 0 .25001-.24v-2.34c0-1 .44-1.49 1.31-1.49h.15a.23.23 0 0 0 .24-.23v-.63001a.24.24 0 0 0-.24-.24zm-4.69 0h-1.05v-1.1a.24.24 0 0 0-.24-.25h-.61001a.24.24 0 0 0-.23.25v.45c0 .53-.21.65001-.72001.65001a.24.24 0 0 0-.24.24v.47a.24.24 0 0 0 .24.24h.71001v2.56c0 1.07.36001 1.66 1.6 1.66h.54a.24.24 0 0 0 .24001-.24v-.53a.23.23 0 0 0-.24001-.23h-.36c-.62001 0-.69001-.22-.69001-.81001v-2.38h1.05a.24.24 0 0 0 .23001-.27v-.5a.24.24 0 0 0-.23001-.21zm18.62-.11a1.81 1.81 0 0 0-1.61.84001 1.64 1.64 0 0 0-1.52-.84001 1.47 1.47 0 0 0-1.34.70001v-.35a.25.25 0 0 0-.25001-.24h-.67a.24.24 0 0 0-.24.24v4.69a.23.23 0 0 0 .24.24h.63a.25.25 0 0 0 .25001-.24v-2.64c0-.83001.16-1.45 1-1.45s1 .51 1 1.45v2.64a.24.24 0 0 0 .24.24h.64001a.24.24 0 0 0 .24-.24v-2.64c0-.89001.21-1.45 1.05-1.45s1 .56 1 1.45v2.64a.23.23 0 0 0 .24.24h.71001a.25.25 0 0 0 .25-.24v-2.53c-.04-1.49-.34-2.51-1.86-2.51zm-25 0a1.57 1.57 0 0 0-1.42.71001v-.36a.24.24 0 0 0-.24-.24h-.64a.23.23 0 0 0-.23001.24v4.69a.23.23 0 0 0 .23001.24h.64a.24.24 0 0 0 .24-.24v-2.8c0-.83001.46001-1.29 1.1-1.29.64 0 1.1.46 1.1 1.29v2.8a.23.23 0 0 0 .24.24h.59a.24.24 0 0 0 .24001-.24v-2.68c.02-1.41-.60001-2.36-1.87-2.36zm26-28.84h-2.49a.93001.93001 0 0 0-.93001.93001v7.5001h-7.1701v-7.5001a.93001.93001 0 0 0-.93-.93001h-2.49a.93001.93001 0 0 0-.93001.93001v19.14a.93001.93001 0 0 0 .93001.93001h2.49a.93001.93001 0 0 0 .93-.93001v-7.5601h7.1101v7.5601a.93001.93001 0 0 0 .93001.93001h2.49a.93001.93001 0 0 0 .93001-.93001v-19.14a.93001.93001 0 0 0-.93001-.93001zm-55.821 28.84a1.57 1.57 0 0 0-1.42.71001v-.36a.24.24 0 0 0-.24-.24h-.63001a.24.24 0 0 0-.24.24v4.69a.23.23 0 0 0 .24.24h.63001a.24.24 0 0 0 .24-.24v-2.8c0-.83001.46001-1.29 1.1-1.29.64001 0 1.1.46 1.1 1.29v2.8a.23.23 0 0 0 .24001.24h.63a.25.25 0 0 0 .25001-.24v-2.68c0-1.41-.62001-2.36-1.9-2.36zm6.6601 4.28h-1.34c-.35 0-.5-.11-.5-.37a.36.36 0 0 1 .41-.37h1a1.73 1.73 0 0 0 2-1.76v-2.12a.24.24 0 0 0-.24-.24h-.56001a.24.24 0 0 0-.24.24v.67001a1.87 1.87 0 0 0-1.06-.33h-.26a1.77 1.77 0 0 0-2 1.78 1.4 1.4 0 0 0 .66 1.26.83001.83001 0 0 0-.7.85001.82001.82001 0 0 0 .47.79001 1.26 1.26 0 0 0-.70001 1.19 1.61 1.61 0 0 0 1.83 1.58h1.2a1.6 1.6 0 1 0 0-3.17zm-.75-3.41h.28a.91001.91001 0 1 1 0 1.81h-.28a.87001.87001 0 0 1-1-.90001.88001.88001 0 0 1 1-.91001zm.54 5.7201h-.82001c-.7 0-.95001-.28-.95001-.72001 0-.44.25001-.75001.95001-.75001h.80001c.71001 0 1 .29 1 .75001 0 .46-.27.72001-1 .72001zm4.6-5.1201c0-.43.39-.57001.84001-.57001a.89001.89001 0 0 1 1 .64001c0 .11.07.16.18.16h.66001a.17.17 0 0 0 .17-.18.44.44 0 0 0 0-.13 1.81 1.81 0 0 0-1.93-1.39c-1 0-2 .45-2 1.52 0 2.1 2.94 1.23 2.94 2.31 0 .48-.36001.66001-.95001.66001a1 1 0 0 1-1.06-.69001c0-.1-.07-.17-.18001-.17h-.65a.18.18 0 0 0-.18.17.31.31 0 0 0 0 .14 1.88 1.88 0 0 0 2.05 1.44c1.07 0 2-.4 2-1.57.04-2.07-2.89-1.21-2.89-2.34zm-3.11-10.24v-2.22a.93001.93001 0 0 0-.93001-.93001h-8.0001v-16a.93001.93001 0 0 0-.93001-.93001h-2.49a.93001.93001 0 0 0-.93001.93001v19.15a.93001.93001 0 0 0 .93001.93001h11.4a.93001.93001 0 0 0 .95001-.93001zm8.2501 0v-19.14a.93001.93001 0 0 0-.93001-.93001h-2.49a.93001.93001 0 0 0-.93001.93001v19.14a.93001.93001 0 0 0 .93001.93001h2.49a.93001.93001 0 0 0 .93001-.93001zm3 8.8801h-3.41a.25.25 0 0 0-.25001.24v.47a.24.24 0 0 0 .25001.24h2.35l-2.41 3.08a.56001.56001 0 0 0-.19001.46v.42a.24.24 0 0 0 .25001.24h3.41a.23.23 0 0 0 .24-.24v-.47a.24.24 0 0 0-.24-.25h-2.39l2.48-3.07a.53001.53001 0 0 0 .15-.41v-.5a.24.24 0 0 0-.2-.21zm4-.11a2.21 2.21 0 0 0-2.24 2.36v.67001a2.21 2.21 0 0 0 2.25 2.35 2.12 2.12 0 0 0 2-1.37.64001.64001 0 0 0 0-.17.17.17 0 0 0-.17-.18h-.67001a.3.3 0 0 0-.24.15 1 1 0 0 1-1 .63001 1.14 1.14 0 0 1-1.13-1.23v-.14h3.07a.25.25 0 0 0 .37-.25v-.48a2.2 2.2 0 0 0-2.19-2.34zm1.12 2.28h-2.24v-.12a1.12 1.12 0 1 1 2.24 0z"/><path d="M18.4072 102.83867h10.54393V80.10974H48.85v22.72893h10.5636V51.91723H48.85v19.41736H28.95113V51.91723H18.4072zm60.90526 0V51.91723h-10.5636v50.92144zm-5.27689-51.92375zm48.9463 1.0023l-9.18787 40.0434-9.25666-40.0434h-15.4769v50.92145h9.91504V68.39644c0-.99249-.00982-2.37804-.0393-4.16648-.01966-1.77862-.02948-3.15434-.02948-4.12717l9.5711 42.73588h10.32776l9.6399-42.73588c0 .97283-.00983 2.34855-.0393 4.12717-.01966 1.78844-.02949 3.174-.02949 4.16648v34.44223h9.91504V51.91723z"/></svg>
