<?xml version="1.0" encoding="UTF-8" standalone="no"?>
<!-- Created with Inkscape (http://www.inkscape.org/) -->

<svg
   version="1.1"
   id="svg35003"
   width="518"
   height="600"
   viewBox="0 0 518 600"
   sodipodi:docname="hockeystick.svg"
   inkscape:version="1.2.2 (b0a84865, 2022-12-01)"
   xmlns:inkscape="http://www.inkscape.org/namespaces/inkscape"
   xmlns:sodipodi="http://sodipodi.sourceforge.net/DTD/sodipodi-0.dtd"
   xmlns="http://www.w3.org/2000/svg"
   xmlns:svg="http://www.w3.org/2000/svg">
  <defs
     id="defs35007" />
  <sodipodi:namedview
     id="namedview35005"
     pagecolor="#ffffff"
     bordercolor="#666666"
     borderopacity="1.0"
     inkscape:showpageshadow="2"
     inkscape:pageopacity="0.0"
     inkscape:pagecheckerboard="0"
     inkscape:deskcolor="#d1d1d1"
     showgrid="false"
     inkscape:zoom="0.39333333"
     inkscape:cx="256.77966"
     inkscape:cy="300"
     inkscape:window-width="724"
     inkscape:window-height="480"
     inkscape:window-x="0"
     inkscape:window-y="25"
     inkscape:window-maximized="0"
     inkscape:current-layer="g35009" />
  <g
     inkscape:groupmode="layer"
     inkscape:label="Image"
     id="g35009">
    <g
       id="g35130">
      <path
         style="fill:#d0e7ee"
         d="M 129,523.03479 1.5,449.28025 1.2467228,300.65648 0.99344566,152.03271 4.7467228,149.60126 C 7.9896424,147.50043 237.6611,14.823729 253.18899,6.0810296 L 258.87798,2.8779469 387.43899,77.096868 516,151.31579 v 148.71966 c 0,117.77598 -0.26008,148.92763 -1.25,149.71919 C 510.62175,453.0557 259.7807,596.98071 258.30565,596.89467 257.31254,596.83673 199.125,563.59979 129,523.03479 Z M 276.74251,423.75 c -0.18982,-3.9875 -0.34512,-0.725 -0.34512,7.25 0,7.975 0.1553,11.2375 0.34512,7.25 0.18981,-3.9875 0.18981,-10.5125 0,-14.5 z m 85.6757,10.64301 c 1.407,-0.53991 1.57933,-5.09822 1.55955,-41.25 C 363.95559,352.6205 363.94973,352.50741 362,355 c -1.86312,2.38186 -1.95658,4.3311 -1.97776,41.25 -0.0122,21.3125 0.16596,38.75 0.39597,38.75 0.23002,0 1.13002,-0.27314 2,-0.60699 z M 370,386.18643 c 0,-38.52302 -0.17003,-43.34389 -1.4682,-41.62756 -1.23671,1.63508 -1.47321,8.70065 -1.5,44.81357 -0.0282,37.9978 0.13875,42.7309 1.4682,41.62756 1.29133,-1.07171 1.5,-7.30581 1.5,-44.81357 z M 390.99076,358.5 l -0.006,-51 -4.55875,8 c -2.50731,4.4 -4.97897,8.4275 -5.49257,8.95 -0.55359,0.56319 -0.91511,20.51459 -0.88788,49 l 0.0459,48.05 5.45227,-6 5.45226,-6 -0.006,-51 z m 5.97744,-8.37244 c -0.0281,-46.49261 -0.20296,-52.40128 -1.5,-50.68643 -1.24717,1.64889 -1.4682,9.75931 -1.4682,53.87244 0,46.04779 0.16994,51.79028 1.5,50.68643 1.29932,-1.07834 1.49575,-8.28588 1.4682,-53.87244 z m 9.95058,-17.5 c -0.0701,-49.27856 -0.26995,-56.71538 -1.45489,-54.12756 -1.11042,2.42507 -1.38233,13.61183 -1.41879,58.37244 -0.04,49.10991 0.12455,55.23165 1.4549,54.12756 1.30307,-1.08145 1.48934,-8.74493 1.41878,-58.37244 z M 413.88698,319 c -0.0426,-52.1213 -0.23966,-60.08453 -1.42309,-57.5 -1.11416,2.43322 -1.3822,14.22993 -1.41879,62.44113 -0.0398,52.47266 0.12702,59.21356 1.4231,57.5 1.25466,-1.65881 1.46101,-10.74017 1.41878,-62.44113 z m 14.07789,-27.71055 -0.0351,-67.78945 -3.41558,8 -3.41558,8 -0.0493,64.98665 -0.0493,64.98665 3.5,-5.1972 3.5,-5.1972 -0.0351,-67.78945 z m -188.57271,-143.8041 3.89216,2.36026 3.70565,-2.33928 3.70564,-2.33927 4.03079,2.28953 4.0308,2.28954 3.6214,-2.06962 c 3.32607,-1.90084 3.62203,-2.44096 3.6291,-6.62307 0.007,-4.26047 0.26457,-4.70013 4,-6.8333 C 273.72239,132.09881 274,131.63152 274,127.5 c 0,-4.13152 0.27761,-4.59881 3.9923,-6.72014 3.73794,-2.13461 3.99279,-2.57076 4,-6.84572 0.007,-4.2782 -0.24094,-4.7056 -3.9389,-6.78397 -3.611,-2.0295 -3.97239,-2.61489 -4.25,-6.88426 -0.26761,-4.11567 -0.70579,-4.900427 -3.71425,-6.65202 l -3.41084,-1.985872 -3.97167,2.175498 -3.97167,2.175498 -3.94494,-2.217179 -3.94494,-2.217179 -3.822,2.199666 -3.822,2.199666 -3.9397,-2.157985 -3.9397,-2.157985 -3.41084,1.985872 c -3.00846,1.751593 -3.44664,2.53635 -3.71425,6.65202 -0.27761,4.26937 -0.639,4.85476 -4.25,6.88426 -3.69274,2.07543 -3.9471,2.51181 -3.9543,6.78397 -0.007,4.27496 -0.26206,4.71111 -4,6.84572 -3.71671,2.12248 -3.9923,2.58703 -3.9923,6.72968 0,4.18467 0.23834,4.5714 4,6.49046 3.81439,1.94596 4.00013,2.26012 4.0027,6.77032 0.003,4.42839 0.24141,4.86169 3.75,6.80194 l 3.7473,2.07226 4,-2.25971 4,-2.25971 z"
         id="path35144" />
      <path
         style="fill:#aed7e3"
         d="M 130,523.33765 C 59.875,482.84279 2.1693907,449.21324 1.7653128,448.60531 c -0.404078,-0.60792 -0.741578,-67.58244 -0.75,-148.83226 L 1,152.04611 3.25,150.59204 c 1.2375,-0.79973 59.149937,-34.30145 128.69431,-74.448253 l 126.4443,-72.994189 3.0557,1.5691664 C 268.3726,8.2765936 512.6406,149.43972 514.25327,150.81774 c 1.65855,1.41722 1.73958,9.52215 1.5,150.03686 L 515.5,449.39331 387.68013,523.19666 c -70.30093,40.59184 -128.35093,73.79539 -129,73.78567 C 258.03106,596.97261 200.125,563.8325 130,523.33765 Z m 100,-87.40101 v -12.06336 l -3.25,0.31336 -3.25,0.31336 -0.28174,11.75 -0.28173,11.75 H 226.46826 230 Z M 240,435.5 c 0,-10.44444 -0.24667,-12.5 -1.5,-12.5 -1.25333,0 -1.5,2.05556 -1.5,12.5 0,10.44444 0.24667,12.5 1.5,12.5 1.25333,0 1.5,-2.05556 1.5,-12.5 z m 36.74413,-12.20429 c -0.1879,-4.28764 -0.34279,-1.04571 -0.34419,7.20429 -0.001,8.25 0.15234,11.75807 0.34164,7.79571 0.18931,-3.96237 0.19045,-10.71237 0.003,-15 z M 337,413.53138 c 0,-24.0057 -0.1891,-27.39605 -1.5,-26.89301 -1.28188,0.49191 -1.5,4.48621 -1.5,27.46862 0,23.23823 0.20385,26.89301 1.5,26.89301 1.29693,0 1.5,-3.71874 1.5,-27.46862 z m 13.97776,-9.39801 C 350.95558,369.57496 350.9513,369.50541 349,372 c -1.84863,2.36334 -1.95674,4.28511 -1.97776,35.15638 -0.0219,32.16944 0.008,32.64858 1.97776,32.13337 1.95198,-0.51046 1.99947,-1.35453 1.97776,-35.15638 z m 13.01217,29.50567 c 12.27128,-6.72107 22.48377,-17.16069 41.10992,-42.02424 L 417,375.7296 416.9674,313.1148 c -0.0372,-71.44908 1.19132,-65.82642 -8.9835,-41.1148 -9.24593,22.45564 -27.90966,55.86933 -45.62414,81.68089 L 354,365.86178 v 35.97549 35.97549 l 2.25,-0.58343 c 1.2375,-0.32088 4.72047,-1.93651 7.73993,-3.59029 z m 60.91286,-69.48755 3.11128,-4.84851 -0.25703,-67.90149 L 427.5,223.5 l -3.25538,8 -3.25537,8 0.005,64.75 c 0.003,35.6125 0.18347,64.75 0.40113,64.75 0.21767,0 1.79584,-2.18183 3.50704,-4.84851 z M 452,322.5 c 0,-0.275 -0.225,-0.5 -0.5,-0.5 -0.275,0 -0.5,0.225 -0.5,0.5 0,0.275 0.225,0.5 0.5,0.5 0.275,0 0.5,-0.225 0.5,-0.5 z m -204.87923,-134.67288 3.96586,2.28246 3.56332,-2.20225 3.56331,-2.20225 4.21999,2.05023 4.21999,2.05023 3.67338,-2.09933 c 3.38322,-1.9335 3.67403,-2.459 3.68163,-6.65277 0.008,-4.27907 0.24877,-4.68401 4,-6.72036 L 282,172.16616 l 3.89264,2.13221 c 3.88199,2.12637 3.90251,2.12689 7.5,0.18951 3.33677,-1.79696 3.60736,-2.28687 3.60736,-6.53114 0,-4.31185 0.24114,-4.72398 4,-6.83658 3.725,-2.09357 4,-2.55224 4,-6.6716 0,-4.0732 0.31674,-4.62342 4,-6.94856 3.69287,-2.33121 4,-2.86808 4,-6.99222 0,-4.20488 -0.23483,-4.58693 -4,-6.50778 -3.76166,-1.91906 -4,-2.30579 -4,-6.49046 0,-4.14265 0.27559,-4.6072 3.9923,-6.72968 3.73794,-2.13461 3.99279,-2.57076 4,-6.84572 0.007,-4.2782 -0.24094,-4.7056 -3.9389,-6.78397 -3.6218,-2.03557 -3.97156,-2.60622 -4.25,-6.93414 -0.27692,-4.304465 -0.63042,-4.890569 -4.0507,-6.71603 -3.52501,-1.88136 -3.74746,-2.282731 -3.75,-6.766179 -0.003,-4.461457 -0.22647,-4.872887 -3.5027,-6.435212 -3.28125,-1.564719 -3.5,-1.968688 -3.5,-6.463497 0,-4.616166 -0.15444,-4.873251 -4.15279,-6.913058 l -4.15278,-2.118594 -3.86211,2.170625 -3.86211,2.170625 -3.64487,-2.252654 -3.64487,-2.252655 -3.83145,2.205104 -3.83145,2.205104 -4.16157,-2.123074 -4.16157,-2.123075 -3.81722,2.145395 -3.81721,2.145394 -3.87024,-2.227424 -3.87023,-2.227424 -3.57411,2.208919 -3.5741,2.208919 -4.3691,-2.12267 -4.36909,-2.12267 -3.71657,2.192826 C 212.32548,69.005512 212,69.581897 212,73.586231 c 0,4.032612 -0.32453,4.593549 -4,6.913769 -3.67547,2.32022 -4,2.881157 -4,6.913769 0,3.955624 -0.34536,4.592449 -3.5,6.45373 -3.16997,1.870326 -3.5,2.486526 -3.5,6.534791 0,4.17334 -0.26525,4.61882 -4,6.71787 -3.75345,2.10955 -4.00017,2.52955 -4.0027,6.81398 -0.003,4.25198 -0.26031,4.70335 -3.75,6.56586 -3.41779,1.82413 -3.77393,2.41352 -4.05016,6.70271 -0.29591,4.59481 -0.20987,4.75015 3.75,6.77032 3.87361,1.97617 4.05298,2.2768 4.05556,6.79729 0.003,4.44127 0.23121,4.85164 3.75,6.72968 3.36474,1.79582 3.79835,2.48668 4.2473,6.76715 0.42363,4.03902 0.98773,5.06249 3.6932,6.70076 2.74399,1.6616 3.23635,2.58199 3.5,6.5427 0.27724,4.16498 0.6745,4.81862 4.12279,6.78352 l 3.81599,2.17441 3.83347,-2.20626 3.83346,-2.20627 4.0923,2.222 c 3.89639,2.11562 4.09269,2.44824 4.10054,6.9481 0.008,4.44741 0.22939,4.84024 3.75825,6.66149 3.73922,1.92981 3.761,1.92922 7.57745,-0.20379 l 3.82746,-2.13915 z"
         id="path35142" />
      <path
         style="fill:#a1d0dd"
         d="M 130,523.33765 C 59.875,482.84279 2.1693907,449.21324 1.7653128,448.60531 c -0.404078,-0.60792 -0.741578,-67.58244 -0.75,-148.83226 L 1,152.04611 3.25,150.59204 c 1.2375,-0.79973 59.149937,-34.30145 128.69431,-74.448253 l 126.4443,-72.994189 3.0557,1.5691664 C 268.3726,8.2765936 512.6406,149.43972 514.25327,150.81774 c 1.65855,1.41722 1.73958,9.52215 1.5,150.03686 L 515.5,449.39331 387.68013,523.19666 c -70.30093,40.59184 -128.35093,73.79539 -129,73.78567 C 258.03106,596.97261 200.125,563.8325 130,523.33765 Z m 111.75,-75.8846 c 0.91364,-0.28526 1.25,-3.79754 1.25,-13.05251 v -12.66222 l -3.75,0.65053 c -2.0625,0.3578 -6.5625,0.93175 -10,1.27545 l -6.25,0.62491 v 12.24473 12.24474 l 8.75,-0.46768 c 4.8125,-0.25722 9.3125,-0.6433 10,-0.85795 z M 270,432 c 0,-11.77778 -0.2381,-14 -1.5,-14 -1.2619,0 -1.5,2.22222 -1.5,14 0,11.77778 0.2381,14 1.5,14 1.2619,0 1.5,-2.22222 1.5,-14 z m 6.74413,-8.70429 c -0.1879,-4.28764 -0.34279,-1.04571 -0.34419,7.20429 -0.001,8.25 0.15234,11.75807 0.34164,7.79571 0.18931,-3.96237 0.19045,-10.71237 0.003,-15 z M 287,429.5 c 0,-12.22222 -0.23563,-14.5 -1.5,-14.5 -1.26437,0 -1.5,2.27778 -1.5,14.5 0,12.22222 0.23563,14.5 1.5,14.5 1.26437,0 1.5,-2.27778 1.5,-14.5 z m 10,-2.08333 c 0,-12.82167 -0.28354,-16.48906 -1.25,-16.16772 -0.91575,0.30448 -1.32347,4.73891 -1.52477,16.58333 C 293.98829,441.77379 294.16041,444 295.47523,444 296.78029,444 297,441.61048 297,427.41667 Z m 40,-14.53911 c 0,-24.88435 -0.17271,-27.97911 -1.5,-26.87756 -1.26525,1.05006 -1.5,5.45124 -1.5,28.12244 0,23.2245 0.20387,26.87756 1.5,26.87756 1.29777,0 1.5,-3.79138 1.5,-28.12244 z m 20.64582,23.9491 c 13.77114,-5.0644 25.58819,-16.14611 45.9395,-43.08082 L 417,375.99168 416.9691,312.74584 416.9382,249.5 410.51675,265.35433 C 399.99013,291.34413 393.26847,304.05826 369.996,342 c -4.39266,7.16148 -16.61938,24.58743 -20.19652,28.7848 L 347,374.06959 v 32.98426 32.98425 l 2.75,-0.65952 c 1.5125,-0.36274 5.06562,-1.51111 7.89582,-2.55192 z M 419,373.5 c 0,-0.275 -0.225,-0.5 -0.5,-0.5 -0.275,0 -0.5,0.225 -0.5,0.5 0,0.275 0.225,0.5 0.5,0.5 0.275,0 0.5,-0.225 0.5,-0.5 z m 5.90279,-9.34851 3.11128,-4.84851 -0.25703,-67.90149 L 427.5,223.5 l -3.25538,8 -3.25537,8 0.005,64.75 c 0.003,35.6125 0.18347,64.75 0.40113,64.75 0.21767,0 1.79584,-2.18183 3.50704,-4.84851 z M 436,348.5 c 0,-0.275 -0.225,-0.5 -0.5,-0.5 -0.275,0 -0.5,0.225 -0.5,0.5 0,0.275 0.225,0.5 0.5,0.5 0.275,0 0.5,-0.225 0.5,-0.5 z m 1,-2 c 0,-0.275 -0.225,-0.5 -0.5,-0.5 -0.275,0 -0.5,0.225 -0.5,0.5 0,0.275 0.225,0.5 0.5,0.5 0.275,0 0.5,-0.225 0.5,-0.5 z m 2,-3 c 0,-0.275 -0.225,-0.5 -0.5,-0.5 -0.275,0 -0.5,0.225 -0.5,0.5 0,0.275 0.225,0.5 0.5,0.5 0.275,0 0.5,-0.225 0.5,-0.5 z m 2,-3 c 0,-0.275 -0.225,-0.5 -0.5,-0.5 -0.275,0 -0.5,0.225 -0.5,0.5 0,0.275 0.225,0.5 0.5,0.5 0.275,0 0.5,-0.225 0.5,-0.5 z m 11,-18 c 0,-0.275 -0.225,-0.5 -0.5,-0.5 -0.275,0 -0.5,0.225 -0.5,0.5 0,0.275 0.225,0.5 0.5,0.5 0.275,0 0.5,-0.225 0.5,-0.5 z m 2,-3 c 0,-0.275 -0.225,-0.5 -0.5,-0.5 -0.275,0 -0.5,0.225 -0.5,0.5 0,0.275 0.225,0.5 0.5,0.5 0.275,0 0.5,-0.225 0.5,-0.5 z m -25,-98 c 0,-0.275 -0.225,-0.5 -0.5,-0.5 -0.275,0 -0.5,0.225 -0.5,0.5 0,0.275 0.225,0.5 0.5,0.5 0.275,0 0.5,-0.225 0.5,-0.5 z M 222.53518,215.38499 C 224.59815,214.03328 225,212.97357 225,208.88499 225,204.341 225.17451,204 227.5,204 c 2.33161,0 2.5,0.33505 2.5,4.97432 0,4.43872 0.30201,5.1305 2.8049,6.42479 2.54766,1.31744 3.09794,1.26494 6,-0.57252 2.80317,-1.77484 3.1951,-2.56295 3.1951,-6.42479 0,-4.22422 0.12103,-4.4018 3,-4.4018 2.96142,0 3,0.0692 3,5.37756 0,3.56009 0.50696,5.79829 1.5,6.62244 2.26636,1.88091 4.5,-0.49852 4.5,-4.7937 0,-5.93518 2.04582,-7.2063 11.59828,-7.2063 7.43129,0 8.44928,0.22981 9.84502,2.22251 0.85618,1.22237 1.5567,2.79737 1.5567,3.5 0,1.82156 -5.65312,1.62383 -6.36163,-0.22251 -0.8406,-2.19058 -9.47976,-2.0769 -10.3289,0.13592 -0.34527,0.89976 -0.17307,2.36226 0.38266,3.25 1.2819,2.04775 7.92652,2.65613 11.00652,1.00777 1.96246,-1.05028 2.92705,-0.94652 6.06739,0.65266 2.05368,1.04581 4.07146,2.06321 4.48396,2.2609 0.4125,0.19768 0.75,-1.70308 0.75,-4.22392 0,-3.4074 -0.38485,-4.58333 -1.5,-4.58333 -0.83333,0 -1.5,-0.88889 -1.5,-2 0,-1.11111 0.66667,-2 1.5,-2 1.04762,0 1.5,-1.05556 1.5,-3.5 0,-3.22222 0.2381,-3.5 3,-3.5 2.76395,0 3,0.27638 3,3.51254 v 3.51255 l 3.97714,-2.51066 3.97713,-2.51065 4.41624,2.14557 4.41623,2.14557 3.60663,-2.22902 C 312.64905,199.05378 313,198.40985 313,194.4483 c 0,-4.07122 0.2887,-4.55345 3.9923,-6.66844 3.74328,-2.13765 3.99278,-2.56632 4,-6.87239 0.007,-4.21973 0.29181,-4.74553 3.5077,-6.4774 3.21762,-1.73281 3.5,-2.25507 3.5,-6.47333 0,-4.3015 0.24682,-4.72718 3.9466,-6.80657 3.6218,-2.03557 3.97156,-2.60622 4.25,-6.93414 0.27692,-4.30447 0.63042,-4.89057 4.0507,-6.71603 3.51879,-1.87804 3.74746,-2.28841 3.75,-6.72968 0.003,-4.51215 -0.18126,-4.82352 -3.9973,-6.77032 -3.76166,-1.91906 -4,-2.30579 -4,-6.49046 0,-4.14265 0.27559,-4.6072 3.9923,-6.72968 3.73794,-2.13461 3.99279,-2.57076 4,-6.84572 0.007,-4.2782 -0.24094,-4.7056 -3.9389,-6.78397 -3.6218,-2.03557 -3.97156,-2.60622 -4.25,-6.93414 -0.27692,-4.304465 -0.63042,-4.890569 -4.0507,-6.71603 -3.52501,-1.88136 -3.74746,-2.282731 -3.75,-6.766179 -0.003,-4.461457 -0.22647,-4.872887 -3.5027,-6.435212 C 321.21875,78.73389 321,78.329921 321,73.835112 321,69.248345 320.82672,68.952246 317,67 c -3.81439,-1.945956 -4.00013,-2.260117 -4.0027,-6.770324 -0.003,-4.441269 -0.23121,-4.851632 -3.75,-6.729676 -3.36474,-1.795818 -3.79835,-2.486682 -4.2473,-6.767152 -0.43178,-4.116695 -0.96663,-5.049797 -3.91992,-6.838638 l -3.41993,-2.071487 -3.93697,2.212701 -3.93697,2.212702 -3.8931,-2.188048 L 282,37.872031 l -3.89311,2.188047 -3.8931,2.188048 -4.1069,-2.308204 c -3.86986,-2.174988 -4.10733,-2.571718 -4.11459,-6.874063 -0.007,-4.226465 -0.28588,-4.723647 -3.75,-6.688575 l -3.7423,-2.122716 -3.6673,2.334936 -3.6673,2.334936 -4.08706,-2.21222 -4.08706,-2.21222 -3.74564,2.140229 c -3.36096,1.920423 -3.77674,2.608636 -4.04843,6.701068 -0.26553,3.999563 -0.73772,4.829638 -3.83693,6.745056 L 227.82614,42.270569 223.91307,40.0713 220,37.872031 l -3.86424,2.171824 c -3.08737,1.735199 -4.27788,1.950453 -5.92171,1.070699 C 207.28145,39.545074 197,45.391958 197,48.629156 c 0,3.176719 -6.04332,6.739877 -9.96888,5.877679 C 182.9845,53.618048 173,59.401922 173,62.634856 c 0,1.417239 -1.21159,2.882449 -3.5,4.232643 -3.16997,1.870326 -3.5,2.486526 -3.5,6.534791 0,4.173343 -0.26525,4.618818 -4,6.717866 -3.75175,2.1086 -4.00048,2.531499 -4.0077,6.813985 -0.007,4.274959 -0.26206,4.711114 -4,6.845719 -3.7074,2.117163 -3.9923,2.594293 -3.9923,6.68601 0,4.09917 0.2787,4.5628 4,6.65429 3.75529,2.11059 3.99983,2.52745 3.9973,6.81398 -0.003,4.25198 -0.26031,4.70335 -3.75,6.56586 -3.41779,1.82413 -3.77393,2.41352 -4.05016,6.70271 -0.29591,4.59481 -0.20987,4.75015 3.75,6.77032 3.87361,1.97617 4.05298,2.2768 4.05556,6.79729 0.003,4.44127 0.23121,4.85164 3.75,6.72968 3.36474,1.79582 3.79835,2.48668 4.2473,6.76715 0.42578,4.05949 0.98245,5.05932 3.75,6.7353 2.88505,1.74714 3.25,2.46794 3.25,6.41887 0,4.15114 0.26923,4.60203 4,6.69884 3.75175,2.1086 4.00048,2.5315 4.0077,6.81398 0.007,4.27496 0.26206,4.71111 4,6.84572 3.7036,2.11499 3.9923,2.59722 3.9923,6.66844 0,3.9745 0.34582,4.60231 3.66515,6.65377 l 3.66516,2.26519 3.96808,-2.17353 3.96807,-2.17353 4.61677,2.34933 c 2.53922,1.29212 5.85427,2.93862 7.36677,3.65887 2.49234,1.18686 2.75,1.80906 2.75,6.64058 0,2.93206 0.24083,5.33102 0.53518,5.33102 0.29435,0 1.64435,-0.72675 3,-1.61501 z M 301.4057,197.61486 C 300.50782,195.27501 301.82093,194 305.12857,194 c 2.55005,0 2.96165,0.34415 2.69098,2.25 -0.38924,2.74071 -5.47092,3.82208 -6.41385,1.36486 z M 214,211.05902 c 0,-1.06754 -0.45,-2.2191 -1,-2.55902 -0.56716,-0.35052 -1,0.48962 -1,1.94098 0,1.40746 0.45,2.55902 1,2.55902 0.55,0 1,-0.87344 1,-1.94098 z M 289.66228,208.75 c -0.27741,-0.6875 -0.50439,-0.125 -0.50439,1.25 0,1.375 0.22698,1.9375 0.50439,1.25 0.27741,-0.6875 0.27741,-1.8125 0,-2.5 z"
         id="path35140" />
      <path
         style="fill:#ee9878"
         d="M 130,523.33765 C 59.875,482.84279 2.1693907,449.21324 1.7653128,448.60531 c -0.404078,-0.60792 -0.741578,-67.58244 -0.75,-148.83226 L 1,152.04611 3.25,150.59204 c 1.2375,-0.79973 59.149937,-34.30145 128.69431,-74.448253 l 126.4443,-72.994189 3.0557,1.5691664 C 268.3726,8.2765936 512.6406,149.43972 514.25327,150.81774 c 1.65855,1.41722 1.73958,9.52215 1.5,150.03686 L 515.5,449.39331 387.68013,523.19666 c -70.30093,40.59184 -128.35093,73.79539 -129,73.78567 C 258.03106,596.97261 200.125,563.8325 130,523.33765 Z M 384.15341,517.61857 509.5,445.23715 l 0.25337,-144.60216 0.25336,-144.60216 -3.75336,-2.42336 C 501.37584,150.46029 263.18098,13.039581 260.41737,11.780397 258.6364,10.968932 239.11625,21.906173 133.15686,83.085139 L 8,155.34837 8.0470216,300.42418 8.0940431,445.5 133.29702,517.72046 c 68.86164,39.72126 125.27202,72.23376 125.35639,72.25 0.0844,0.0163 56.55938,-32.5421 125.5,-72.35189 z M 56,448.01905 c 0,-8.512 0.117484,-9.00472 2.25,-9.43625 2.387367,-0.48309 18.291353,-1.81529 78.75,-6.5965 20.625,-1.63107 44.025,-3.63635 52,-4.45618 7.975,-0.81983 16.6375,-1.4995 19.25,-1.51036 L 213,426 v 11.42804 11.42805 l -5.25,0.5332 c -2.8875,0.29327 -9.75,0.78511 -15.25,1.09299 -31.81057,1.78068 -65.97528,3.51456 -79.5,4.03468 -8.525,0.32785 -23.020108,1.02065 -32.21135,1.53957 C 71.597407,456.57544 62.259907,457 60.03865,457 H 56 Z M 243,434.5 c 0,-11.83333 0.10667,-12.5 2,-12.5 1.89333,0 2,0.66667 2,12.5 0,11.83333 -0.10667,12.5 -2,12.5 -1.89333,0 -2,-0.66667 -2,-12.5 z m 7,-0.43261 c 0,-14.46684 -0.64106,-13.33667 8.25,-14.5446 l 4.75,-0.64534 v 13.42535 13.42535 l -4.63957,0.63593 C 249.3178,447.60351 250,448.6069 250,434.06739 Z M 270.22182,431.8678 270.5,417.5 l 2.75,-0.31642 2.75,-0.31642 v 14.06642 C 276,442.40986 275.73886,445 274.58179,445 c -0.78002,0 -2.1427,0.27801 -3.02818,0.6178 -1.44158,0.55319 -1.58087,-0.88487 -1.33179,-13.75 z M 277,430.5 c 0,-12.22222 0.23563,-14.5 1.5,-14.5 1.26437,0 1.5,2.27778 1.5,14.5 0,12.22222 -0.23563,14.5 -1.5,14.5 -1.26437,0 -1.5,-2.27778 -1.5,-14.5 z m 26,-4.47134 v -17.99497 l 4.96676,-2.51684 c 2.73171,-1.38427 5.20671,-2.51685 5.5,-2.51685 0.29328,0 0.53324,8.78912 0.53324,19.53138 0,14.75298 -0.30582,19.62564 -1.25,19.91663 -0.6875,0.21189 -3.1625,0.65308 -5.5,0.98043 l -4.25,0.5952 z m 14,-4.92167 c 0,-17.64908 0.2329,-20.98238 1.5,-21.46862 1.30463,-0.50063 1.5,2.22064 1.5,20.89301 C 320,438.94793 319.78675,442 318.5,442 c -1.28547,0 -1.5,-2.98811 -1.5,-20.89301 z m 10,-2.98455 c 0,-20.00454 0.2433,-24.07948 1.5,-25.12244 1.32656,-1.10095 1.5,1.65988 1.5,23.87756 C 330,438.54195 329.79353,442 328.5,442 c -1.29145,0 -1.5,-3.31973 -1.5,-23.87756 z m 10,-5 c 0,-23.56009 0.23231,-28.07035 1.5,-29.12244 1.32749,-1.10172 1.5,2.10432 1.5,27.87756 C 340,437.09751 339.799,441 338.5,441 c -1.29746,0 -1.5,-3.76417 -1.5,-27.87756 z m 7,-3.93131 c 0,-25.54098 0.25104,-31.14078 1.4682,-32.75 1.30075,-1.71975 1.47182,1.79394 1.5,30.80887 0.0276,28.45858 -0.16475,32.75 -1.4682,32.75 -1.30088,0 -1.5,-4.08987 -1.5,-30.80887 z m 73.07416,-97.30627 C 417.14378,252.38921 417.26194,248.25457 419,244.5 c 1.82515,-3.9427 1.85274,-3.07108 1.92584,60.84227 0.0725,63.38634 0.0292,64.89936 -1.92584,67.38486 l -2,2.54259 0.0742,-63.38486 z M 428.24396,290 428.5,220.5 l 3.93192,-7.74285 C 439.73732,198.37112 445.21364,194 455.93165,194 c 7.16268,0 15.10507,3.16517 21.99183,8.76408 6.2931,5.11628 7.61433,6.7819 11.18219,14.09702 6.59974,13.53136 3.35482,28.26579 -13.79477,62.6389 -8.51018,17.05703 -14.60031,28.29882 -20.31527,37.5 -14.41316,23.20542 -21.20391,33.98398 -23.94089,38 l -3.06683,4.5 z M 227,243.04206 c 0,-1.75036 0.82161,-1.98889 7.75,-2.25 l 7.75,-0.29206 0.29578,-5 0.29578,-5 -7.12302,0.33509 C 225.4353,231.3306 225,230.7357 225,215.84501 V 204 h 2.46725 c 2.46003,0 2.46807,0.0329 2.75,11.25 l 0.28275,11.25 4.82769,0.30796 C 242.51104,227.2662 243,226.47401 243,214.37756 V 204 h 2.5 2.5 v 18.5 c 0,22.95008 0.25005,22.5 -12.5,22.5 -7.77246,0 -8.5,-0.16759 -8.5,-1.95794 z M 84,211.5 V 192 h 2.5 c 2.40024,0 2.49991,0.2494 2.497747,6.25 l -0.0023,6.25 6.92329,-0.32896 c 5.939493,-0.28222 7.218703,-0.0335 9.002253,1.75 C 106.78528,207.78528 107,209.18773 107,219.5 V 231 h -2.46725 c -2.46003,0 -2.46807,-0.0329 -2.75,-11.25 L 101.5,208.5 97.595323,208.18041 C 89.112443,207.48611 89,207.64099 89,220.01905 V 231 H 86.5 84 Z m 30.65499,17.67126 c -2.53569,-2.8019 -2.39984,-21.1872 0.17375,-23.51627 2.75413,-2.49246 17.21994,-2.36367 19.51627,0.17375 2.53569,2.8019 2.39984,21.1872 -0.17375,23.51627 -2.75413,2.49246 -17.21994,2.36367 -19.51627,-0.17375 z M 131,217.45228 v -9.54771 l -6.25,0.29771 -6.25,0.29772 -0.29497,7.91161 c -0.16224,4.35138 -0.0639,8.51388 0.21861,9.25 0.35041,0.91315 2.42992,1.33839 6.54498,1.33839 H 131 Z m 12.65499,11.71898 c -2.53569,-2.8019 -2.39984,-21.1872 0.17375,-23.51627 2.84015,-2.5703 15.49625,-2.33 18.17126,0.34501 1.1,1.1 2,2.675 2,3.5 0,2.01457 -4.60585,1.96951 -5.38183,-0.0526 -0.4563,-1.18909 -1.82773,-1.48178 -5.85699,-1.25 L 147.5,208.5 v 9 9 l 5.26118,0.30265 c 4.02926,0.23178 5.40069,-0.0609 5.85699,-1.25 C 159.39415,223.53049 164,223.48543 164,225.5 c 0,0.825 -0.9,2.4 -2,3.5 -2.8096,2.8096 -15.8472,2.93131 -18.34501,0.17126 z M 169,211.5 V 192 h 2.5 2.5 v 12 c 0,11.2813 0.11824,12 1.97432,12 1.16401,0 2.58559,-1.18207 3.46369,-2.88012 2.44536,-4.7288 6.61062,-9.11988 8.65088,-9.11988 2.61277,0 2.40085,2.44431 -0.45165,5.20953 -1.29953,1.25976 -3.17899,3.72325 -4.1766,5.47442 -1.79428,3.14964 -1.7868,3.22509 0.69366,7 1.37911,2.09883 3.31033,5.05355 4.2916,6.56605 l 1.78412,2.75 h -2.62743 c -2.09164,0 -3.3449,-1.12158 -6.14574,-5.5 -2.31163,-3.61366 -4.19371,-5.5 -5.48758,-5.5 -1.72033,0 -1.96927,0.69527 -1.96927,5.5 0,5.2 -0.13636,5.5 -2.5,5.5 H 169 Z m 28.65499,17.67126 C 196.34688,227.72581 196,225.24317 196,217.32625 196,204.52728 196.4619,204 207.67375,204 217.81147,204 219,205.03139 219,213.82874 V 220 h -9.06336 -9.06336 l 0.31336,3.25 0.31336,3.25 7.76272,0.0627 c 4.26949,0.0345 8.25778,0.55778 8.86286,1.16286 2.34295,2.34295 -0.36791,3.27442 -9.52961,3.27442 -7.72613,0 -9.564,-0.30719 -10.94098,-1.82874 z M 213.81037,212.25 213.5,208.5 h -6 -6 l -0.31037,3.75 -0.31036,3.75 h 6.62073 6.62073 z m 41.84462,16.92126 C 253.19557,226.45363 253.54574,224 256.39301,224 c 1.31616,0 2.65203,0.675 2.96862,1.5 0.41565,1.08317 2.11269,1.5 6.10699,1.5 H 271 v -4 -4 h -6.5 c -8.42451,0 -11.01551,-2.1199 -10.18243,-8.33101 0.74141,-5.52758 2.66148,-6.66899 11.21857,-6.66899 5.66058,0 7.49935,0.38173 8.80887,1.82874 2.50196,2.76463 2.1087,5.17126 -0.84501,5.17126 -1.59133,0 -2.5,-0.56334 -2.5,-1.5499 0,-1.25495 -1.09427,-1.49283 -5.75,-1.25 -5.65558,0.29498 -5.75,0.34916 -5.75,3.2999 0,2.99348 0.0141,3.00066 6.4806,3.3037 C 274.20005,215.18889 276,216.66133 276,223 c 0,6.72685 -1.77823,8 -11.17375,8 -6.01165,0 -7.84757,-0.36608 -9.17126,-1.82874 z m 30.09501,0.43669 c -1.46191,-1.10974 -1.75,-2.97847 -1.75,-11.35156 0,-9.18212 -0.16781,-10.06701 -2,-10.54614 -1.1,-0.28766 -2,-1.24014 -2,-2.11663 0,-0.92695 0.83667,-1.59362 2,-1.59362 1.61905,0 2,-0.66667 2,-3.5 0,-3.06667 0.30952,-3.5 2.5,-3.5 2.19048,0 2.5,0.43333 2.5,3.5 0,3.33333 0.16667,3.5 3.5,3.5 2.83333,0 3.5,0.38095 3.5,2 0,1.61905 -0.66667,2 -3.5,2 H 289 v 9.43963 9.43964 l 3.74168,0.31036 c 2.61495,0.21691 3.84155,0.83735 4.07333,2.06037 0.27932,1.47395 -0.42922,1.74498 -4.49169,1.7182 -2.65282,-0.0175 -5.61082,-0.6296 -6.57332,-1.36025 z M 302,217.5 V 204 h 2.5 2.5 v 13.5 13.5 h -2.5 -2.5 z m 12.65499,11.67126 c -2.53569,-2.8019 -2.39984,-21.1872 0.17375,-23.51627 2.84015,-2.5703 15.49625,-2.33 18.17126,0.34501 1.1,1.1 2,2.675 2,3.5 0,2.01457 -4.60585,1.96951 -5.38183,-0.0526 -0.4563,-1.18909 -1.82773,-1.48178 -5.85699,-1.25 L 318.5,208.5 v 9 9 l 5.26118,0.30265 c 4.02926,0.23178 5.40069,-0.0609 5.85699,-1.25 C 330.39415,223.53049 335,223.48543 335,225.5 c 0,0.825 -0.9,2.4 -2,3.5 -2.8096,2.8096 -15.8472,2.93131 -18.34501,0.17126 z M 340,211.5 V 192 h 2.5 2.5 v 12 c 0,11.2813 0.11824,12 1.97432,12 1.16401,0 2.58559,-1.18207 3.46369,-2.88012 2.44536,-4.7288 6.61062,-9.11988 8.65088,-9.11988 2.61277,0 2.40085,2.44431 -0.45165,5.20953 -1.29953,1.25976 -3.17899,3.72325 -4.1766,5.47442 -1.79428,3.14964 -1.7868,3.22509 0.69366,7 1.37911,2.09883 3.31033,5.05355 4.2916,6.56605 l 1.78412,2.75 h -2.62743 c -2.09164,0 -3.3449,-1.12158 -6.14574,-5.5 -2.31163,-3.61366 -4.19371,-5.5 -5.48758,-5.5 -1.72033,0 -1.96927,0.69527 -1.96927,5.5 0,5.2 -0.13636,5.5 -2.5,5.5 H 340 Z m -38,-15 c 0,-2.28224 0.36621,-2.59071 2.75,-2.31642 1.97786,0.22758 2.75,0.87798 2.75,2.31642 0,1.43844 -0.77214,2.08884 -2.75,2.31642 -2.38379,0.27429 -2.75,-0.0342 -2.75,-2.31642 z"
         id="path35138" />
      <path
         style="fill:#559ac6"
         d="M 130.46861,523.12245 2.5,449.2449 2.2689923,300.37245 2.0379847,151.5 129.88372,77.75 C 200.19887,37.1875 258.20149,4 258.77843,4 c 0.57693,0 58.5753,33.212506 128.88527,73.805568 L 515.5,151.61114 l 0.25328,148.03647 c 0.23957,140.02297 0.15837,148.11982 -1.5,149.57611 C 512.68113,450.6043 259.58888,597 258.77425,597 258.58888,597 200.85134,563.7551 130.46861,523.12245 Z M 385.34263,517.37695 509.94019,445.5 509.9701,300.37439 510,155.24878 430.25,109.20002 C 386.3875,83.873201 329.87572,51.2291 304.66827,36.657574 l -45.83172,-26.493683 -3.16828,1.823663 C 251.967,14.118012 162.39648,65.817244 72.682958,117.60489 38.133585,137.54871 9.2195744,154.40281 8.4296005,155.05843 7.1911498,156.08625 7.0281868,176.16076 7.2466422,300.78048 L 7.5,445.31051 l 125,72.29971 c 68.75,39.76484 125.73014,72.1521 126.62253,71.9717 0.8924,-0.18041 57.69144,-32.67264 126.2201,-72.20497 z M 56,448.01905 c 0,-8.512 0.117484,-9.00472 2.25,-9.43625 2.387367,-0.48309 18.291353,-1.81529 78.75,-6.5965 20.625,-1.63107 44.025,-3.63635 52,-4.45618 7.975,-0.81983 16.6375,-1.4995 19.25,-1.51036 L 213,426 v 11.42804 11.42805 l -5.25,0.5332 c -2.8875,0.29327 -9.75,0.78511 -15.25,1.09299 -31.81057,1.78068 -65.97528,3.51456 -79.5,4.03468 -8.525,0.32785 -23.020108,1.02065 -32.21135,1.53957 C 71.597407,456.57544 62.259907,457 60.03865,457 H 56 Z M 243,434.5 c 0,-11.83333 0.10667,-12.5 2,-12.5 1.89333,0 2,0.66667 2,12.5 0,11.83333 -0.10667,12.5 -2,12.5 -1.89333,0 -2,-0.66667 -2,-12.5 z m 7,-0.43261 c 0,-14.46684 -0.64106,-13.33667 8.25,-14.5446 l 4.75,-0.64534 v 13.42535 13.42535 l -4.63957,0.63593 C 249.3178,447.60351 250,448.6069 250,434.06739 Z M 270.22182,431.8678 270.5,417.5 l 2.75,-0.31642 2.75,-0.31642 v 14.06642 C 276,442.40986 275.73886,445 274.58179,445 c -0.78002,0 -2.1427,0.27801 -3.02818,0.6178 -1.44158,0.55319 -1.58087,-0.88487 -1.33179,-13.75 z M 277,430.5 c 0,-12.22222 0.23563,-14.5 1.5,-14.5 1.26437,0 1.5,2.27778 1.5,14.5 0,12.22222 -0.23563,14.5 -1.5,14.5 -1.26437,0 -1.5,-2.27778 -1.5,-14.5 z m 26,-4.47134 v -17.99497 l 4.96676,-2.51684 c 2.73171,-1.38427 5.20671,-2.51685 5.5,-2.51685 0.29328,0 0.53324,8.78912 0.53324,19.53138 0,14.75298 -0.30582,19.62564 -1.25,19.91663 -0.6875,0.21189 -3.1625,0.65308 -5.5,0.98043 l -4.25,0.5952 z m 14,-4.92167 c 0,-17.64908 0.2329,-20.98238 1.5,-21.46862 1.30463,-0.50063 1.5,2.22064 1.5,20.89301 C 320,438.94793 319.78675,442 318.5,442 c -1.28547,0 -1.5,-2.98811 -1.5,-20.89301 z m 10,-2.98455 c 0,-20.00454 0.2433,-24.07948 1.5,-25.12244 1.32656,-1.10095 1.5,1.65988 1.5,23.87756 C 330,438.54195 329.79353,442 328.5,442 c -1.29145,0 -1.5,-3.31973 -1.5,-23.87756 z m 10,-5 c 0,-23.56009 0.23231,-28.07035 1.5,-29.12244 1.32749,-1.10172 1.5,2.10432 1.5,27.87756 C 340,437.09751 339.799,441 338.5,441 c -1.29746,0 -1.5,-3.76417 -1.5,-27.87756 z m 7,-3.93131 c 0,-25.54098 0.25104,-31.14078 1.4682,-32.75 1.30075,-1.71975 1.47182,1.79394 1.5,30.80887 0.0276,28.45858 -0.16475,32.75 -1.4682,32.75 -1.30088,0 -1.5,-4.08987 -1.5,-30.80887 z M 474.04656,240.66597 474,199.83194 l 3.94547,3.12488 c 9.49698,7.52174 14.26321,16.77606 14.22071,27.61156 -0.0372,9.47823 -6.58254,28.92091 -15.46285,45.93162 l -2.61021,5 -0.0466,-40.83403 z M 227.18633,243.25 c 0.27409,-1.44053 1.746,-1.83842 8.32332,-2.25 l 7.99035,-0.5 0.2999,-5.75 c 0.27674,-5.30583 -0.70423,-7.33184 -2.2999,-4.75 -0.33992,0.55 -3.29148,1 -6.55902,1 C 225.78133,231 225,229.78174 225,215.5 c 0,-10.83333 0.11594,-11.5 2,-11.5 1.86557,0 2,0.66667 2,9.91821 0,5.45502 0.27314,10.63002 0.60699,11.5 C 230.0441,226.55731 231.56049,227 235.0252,227 243.12383,227 243,227.188 243,214.89301 243,204.66667 243.1224,204 245,204 c 1.92961,0 2,0.66667 2,18.9433 0,22.69369 0.3551,22.0567 -12.29583,22.0567 -6.93715,0 -7.81207,-0.20366 -7.51784,-1.75 z M 85,211.5 c 0,-16.66667 0.217949,-19.5 1.5,-19.5 1.190476,0 1.5,1.44444 1.5,7 0,6.3988 0.907479,8.57675 2.5,6 0.339919,-0.55 3.221732,-1 6.404029,-1 C 105.43565,204 106,204.95106 106,219.32874 106,230.26856 105.87671,231 104.03275,231 c -1.823,0 -1.98798,-0.82492 -2.25,-11.25 L 101.5,208.5 96.168824,208.19493 C 88.422325,207.75163 88,208.39413 88,220.62244 88,229.18027 87.736972,231 86.5,231 85.217949,231 85,228.16667 85,211.5 Z m 30,17.5 c -1.7193,-1.7193 -2,-3.33333 -2,-11.5 0,-12.42142 0.90101,-13.5 11.27749,-13.5 11.11558,0 11.72251,0.69896 11.72251,13.5 0,12.80104 -0.60693,13.5 -11.72251,13.5 -5.94416,0 -7.64392,-0.36643 -9.27749,-2 z m 16.5,-11.5 v -9 l -6.75,-0.29569 -6.75,-0.29569 v 9.59138 9.59138 l 6.75,-0.29569 L 131.5,226.5 Z M 144,229 c -1.7193,-1.7193 -2,-3.33333 -2,-11.5 0,-12.30834 0.9573,-13.5 10.84501,-13.5 7.17096,0 10.15499,1.56584 10.15499,5.32874 0,2.09563 -3.56939,2.23578 -4.36163,0.17126 -0.83826,-2.18447 -11.18874,-2.11411 -12.03138,0.0818 -0.78724,2.0515 -0.78724,13.78492 0,15.83642 0.84264,2.1959 11.19312,2.26626 12.03138,0.0818 C 159.47595,223.31731 163,223.59607 163,225.84501 163,229.40025 159.79467,231 152.67126,231 147.33333,231 145.60028,230.60028 144,229 Z m 25,-17.5 c 0,-18.83333 0.0684,-19.5 2,-19.5 1.88889,0 2,0.66667 2,12 v 12 h 2.87868 c 2.26483,0 3.14749,-0.64896 4.13927,-3.04333 1.44647,-3.4921 6.25615,-8.95667 7.88326,-8.95667 1.81479,0 1.23976,3.56245 -0.88548,5.48576 -1.09135,0.98766 -2.84947,3.26214 -3.90693,5.05441 l -1.92266,3.25866 4.428,6.60058 c 4.35027,6.48474 4.38472,6.60059 1.96299,6.60059 -1.92247,0 -3.18906,-1.21053 -5.7547,-5.5 -2.72054,-4.54844 -3.7683,-5.5 -6.05606,-5.5 -2.68651,0 -2.76637,0.15878 -2.76637,5.5 0,4.83333 -0.24242,5.5 -2,5.5 -1.93162,0 -2,-0.66667 -2,-19.5 z m 29,17.5 c -1.7193,-1.7193 -2,-3.33333 -2,-11.5 0,-12.42996 0.89657,-13.5 11.31144,-13.5 C 217.11099,204 219,205.62241 219,214.03896 V 220 h -9.5 c -9.18972,0 -9.4995,0.0735 -9.48469,2.25 0.0292,4.29634 1.22276,4.90284 9.19045,4.67019 8.36823,-0.24434 10.57705,0.43166 8.72035,2.66884 C 217.08858,230.59819 214.36939,231 208.37756,231 201.33333,231 199.68169,230.68169 198,229 Z m 16,-17.04569 v -4.04569 l -6.75,0.29569 -6.75,0.29569 -0.31037,3.75 -0.31036,3.75 H 206.93963 214 Z M 256,229 c -1.1,-1.1 -2,-2.675 -2,-3.5 0,-1.9783 3.61771,-1.93861 4.38007,0.048 0.46685,1.21659 1.93504,1.48424 6.85699,1.25 L 271.5,226.5 v -3.5 -3.5 l -6.4806,-0.3037 C 256.99372,218.82019 255,217.28873 255,211.5 c 0,-5.96555 2.06767,-7.5 10.10623,-7.5 7.06975,0 10.89377,1.77505 10.89377,5.0567 0,2.36434 -3.50383,2.67869 -4.38091,0.39304 -0.46208,-1.20416 -1.88133,-1.48323 -6.35699,-1.25 -5.66894,0.29541 -5.7621,0.34876 -5.7621,3.30026 0,2.97979 0.0444,3.00337 6.59993,3.5 8.39085,0.63568 9.90007,1.86526 9.90007,8.06574 0,6.44682 -2.10389,7.93426 -11.22251,7.93426 -5.44416,0 -7.17095,-0.39346 -8.77749,-2 z m 30.22251,0.4433 C 284.17922,228.01212 284,227.0848 284,217.9433 284,210.11089 283.70427,208 282.60699,208 c -0.76616,0 -1.66616,-0.7118 -2,-1.58179 C 279.72655,204.12382 279.79787,204 282,204 c 1.61905,0 2,-0.66667 2,-3.5 0,-2.83333 0.38095,-3.5 2,-3.5 1.61236,0 2,0.66667 2,3.43963 0,3.25137 0.2048,3.45663 3.74168,3.75 2.61495,0.21691 3.84155,0.83735 4.07333,2.06037 0.27226,1.43665 -0.40444,1.75 -3.77921,1.75 h -4.11085 l 0.28752,9.25 0.28753,9.25 3.64756,0.30426 c 2.61945,0.2185 3.79097,0.85268 4.15638,2.25 0.44422,1.69869 -0.0224,1.94574 -3.67505,1.94574 -2.30113,0 -5.18401,-0.70052 -6.40638,-1.5567 z M 303,217.5 c 0,-12.83333 0.0988,-13.5 2,-13.5 1.90123,0 2,0.66667 2,13.5 0,12.83333 -0.0988,13.5 -2,13.5 -1.90123,0 -2,-0.66667 -2,-13.5 z m 12,11.5 c -1.7193,-1.7193 -2,-3.33333 -2,-11.5 0,-12.30834 0.9573,-13.5 10.84501,-13.5 7.17096,0 10.15499,1.56584 10.15499,5.32874 0,2.09563 -3.56939,2.23578 -4.36163,0.17126 -0.41376,-1.07824 -2.1008,-1.5 -6,-1.5 -6.37186,0 -6.63837,0.3814 -6.63837,9.5 0,9.1186 0.26651,9.5 6.63837,9.5 3.8992,0 5.58624,-0.42176 6,-1.5 C 330.47595,223.31731 334,223.59607 334,225.84501 334,229.40025 330.79467,231 323.67126,231 318.33333,231 316.60028,230.60028 315,229 Z m 25,-17.5 c 0,-18.83333 0.0684,-19.5 2,-19.5 1.88889,0 2,0.66667 2,12 v 12 h 2.87868 c 2.26483,0 3.14749,-0.64896 4.13927,-3.04333 1.44647,-3.4921 6.25615,-8.95667 7.88326,-8.95667 1.81479,0 1.23976,3.56245 -0.88548,5.48576 -1.09135,0.98766 -2.84947,3.26214 -3.90693,5.05441 l -1.92266,3.25866 4.428,6.60058 c 4.35027,6.48474 4.38472,6.60059 1.96299,6.60059 -1.92247,0 -3.18906,-1.21053 -5.7547,-5.5 -2.72054,-4.54844 -3.7683,-5.5 -6.05606,-5.5 -2.68651,0 -2.76637,0.15878 -2.76637,5.5 0,4.83333 -0.24242,5.5 -2,5.5 -1.93162,0 -2,-0.66667 -2,-19.5 z M 302.38,197.54789 C 301.6046,195.52721 302.7578,194 305.05902,194 c 1.40371,0 1.94098,0.692 1.94098,2.5 0,1.84621 -0.53124,2.5 -2.03138,2.5 -1.11727,0 -2.28214,-0.65345 -2.58862,-1.45211 z"
         id="path35136" />
      <path
         style="fill:#2468a9"
         d="M 130.46861,523.12245 2.5,449.2449 2.2689923,300.37245 2.0379847,151.5 129.88372,77.75 C 200.19887,37.1875 258.20149,4 258.77843,4 c 0.57693,0 58.5753,33.212506 128.88527,73.805568 L 515.5,151.61114 l 0.25328,148.03647 c 0.23957,140.02297 0.15837,148.11982 -1.5,149.57611 C 512.68113,450.6043 259.58888,597 258.77425,597 258.58888,597 200.85134,563.7551 130.46861,523.12245 Z M 385.34263,517.37695 509.94019,445.5 509.9701,300.37439 510,155.24878 430.25,109.20002 C 386.3875,83.873201 329.87572,51.2291 304.66827,36.657574 l -45.83172,-26.493683 -3.16828,1.823663 C 251.967,14.118012 162.39648,65.817244 72.682958,117.60489 38.133585,137.54871 9.2195744,154.40281 8.4296005,155.05843 7.1911498,156.08625 7.0281868,176.16076 7.2466422,300.78048 L 7.5,445.31051 l 125,72.29971 c 68.75,39.76484 125.73014,72.1521 126.62253,71.9717 0.8924,-0.18041 57.69144,-32.67264 126.2201,-72.20497 z M 56,448.14674 c 0,-8.01422 0.216679,-9.15659 1.75,-9.22626 0.9625,-0.0437 5.4625,-0.38828 10,-0.76567 L 76,437.46866 v 9.26567 C 76,455.79235 75.947354,456 73.650878,456 c -1.292018,0 -5.792018,0.29103 -10,0.64674 L 56,457.29347 Z m 26,-1.70889 C 82,437.66667 82.141275,437 84,437 c 1.856433,0 2,0.66667 2,9.2872 0,8.57031 -0.154381,9.29882 -2,9.43785 -1.869367,0.14081 -2,-0.4658 -2,-9.2872 z M 96,445 v -10 h 6.5 6.5 v 10 10 H 102.5 96 Z m 17,-0.88765 v -9.95316 l 6.75,-0.59655 c 3.7125,-0.3281 8.90253,-0.7945 11.53339,-1.03643 l 4.7834,-0.43989 -0.2834,10.70684 L 135.5,453.5 124.25,453.78275 113,454.0655 Z m 30,-1.49572 c 0,-11.91475 -0.29754,-11.57793 10.25,-11.60298 L 159,431 v 10.36408 10.36407 l -4.63957,0.63593 c -2.55177,0.34975 -6.15177,0.63592 -8,0.63592 H 143 Z M 163,441 v -11 l 2.75,-0.011 c 1.5125,-0.006 4.4375,-0.28993 6.5,-0.63084 l 3.75,-0.61983 v 10.99491 10.99492 l -4.63957,0.63593 C 162.38782,452.59391 163,453.3528 163,441 Z m 17,-0.89301 c 0,-8.76019 0.2937,-11.00571 1.5,-11.46862 1.2796,-0.49102 1.5,1.10953 1.5,10.89301 C 183,449.05904 182.74614,451 181.5,451 180.25847,451 180,449.123 180,440.10699 Z M 186,439 c 0,-10.33333 0.12121,-11 2,-11 1.87879,0 2,0.66667 2,11 0,10.33333 -0.12121,11 -2,11 -1.87879,0 -2,-0.66667 -2,-11 z m 13,-0.5 c 0,-10.83333 0.11594,-11.5 2,-11.5 1.88406,0 2,0.66667 2,11.5 0,10.83333 -0.11594,11.5 -2,11.5 -1.88406,0 -2,-0.66667 -2,-11.5 z M 474.04656,240.66597 474,199.83194 l 3.94547,3.12488 c 5.55091,4.39639 8.69181,8.37835 11.56721,14.66461 3.19581,6.98677 3.35635,16.74491 0.43676,26.54835 -2.28802,7.68275 -9.25072,24.67684 -13.24611,32.33022 l -2.61021,5 -0.0466,-40.83403 z M 227.18633,243.25 c 0.27409,-1.44053 1.746,-1.83842 8.32332,-2.25 l 7.99035,-0.5 0.2999,-5.75 c 0.27674,-5.30583 -0.70423,-7.33184 -2.2999,-4.75 -0.33992,0.55 -3.29148,1 -6.55902,1 C 225.78133,231 225,229.78174 225,215.5 c 0,-10.83333 0.11594,-11.5 2,-11.5 1.86557,0 2,0.66667 2,9.91821 0,5.45502 0.27314,10.63002 0.60699,11.5 C 230.0441,226.55731 231.56049,227 235.0252,227 243.12383,227 243,227.188 243,214.89301 243,204.66667 243.1224,204 245,204 c 1.92961,0 2,0.66667 2,18.9433 0,22.69369 0.3551,22.0567 -12.29583,22.0567 -6.93715,0 -7.81207,-0.20366 -7.51784,-1.75 z M 85,211.5 c 0,-16.66667 0.217949,-19.5 1.5,-19.5 1.190476,0 1.5,1.44444 1.5,7 0,6.3988 0.907479,8.57675 2.5,6 0.339919,-0.55 3.221732,-1 6.404029,-1 C 105.43565,204 106,204.95106 106,219.32874 106,230.26856 105.87671,231 104.03275,231 c -1.823,0 -1.98798,-0.82492 -2.25,-11.25 L 101.5,208.5 96.168824,208.19493 C 88.422325,207.75163 88,208.39413 88,220.62244 88,229.18027 87.736972,231 86.5,231 85.217949,231 85,228.16667 85,211.5 Z m 30,17.5 c -1.7193,-1.7193 -2,-3.33333 -2,-11.5 0,-12.42142 0.90101,-13.5 11.27749,-13.5 11.11558,0 11.72251,0.69896 11.72251,13.5 0,12.80104 -0.60693,13.5 -11.72251,13.5 -5.94416,0 -7.64392,-0.36643 -9.27749,-2 z m 16.5,-11.5 v -9 l -6.75,-0.29569 -6.75,-0.29569 v 9.59138 9.59138 l 6.75,-0.29569 L 131.5,226.5 Z M 144,229 c -1.7193,-1.7193 -2,-3.33333 -2,-11.5 0,-12.30834 0.9573,-13.5 10.84501,-13.5 7.17096,0 10.15499,1.56584 10.15499,5.32874 0,2.09563 -3.56939,2.23578 -4.36163,0.17126 -0.83826,-2.18447 -11.18874,-2.11411 -12.03138,0.0818 -0.78724,2.0515 -0.78724,13.78492 0,15.83642 0.84264,2.1959 11.19312,2.26626 12.03138,0.0818 C 159.47595,223.31731 163,223.59607 163,225.84501 163,229.40025 159.79467,231 152.67126,231 147.33333,231 145.60028,230.60028 144,229 Z m 25,-17.5 c 0,-18.83333 0.0684,-19.5 2,-19.5 1.88889,0 2,0.66667 2,12 v 12 h 2.87868 c 2.26483,0 3.14749,-0.64896 4.13927,-3.04333 1.44647,-3.4921 6.25615,-8.95667 7.88326,-8.95667 1.81479,0 1.23976,3.56245 -0.88548,5.48576 -1.09135,0.98766 -2.84947,3.26214 -3.90693,5.05441 l -1.92266,3.25866 4.428,6.60058 c 4.35027,6.48474 4.38472,6.60059 1.96299,6.60059 -1.92247,0 -3.18906,-1.21053 -5.7547,-5.5 -2.72054,-4.54844 -3.7683,-5.5 -6.05606,-5.5 -2.68651,0 -2.76637,0.15878 -2.76637,5.5 0,4.83333 -0.24242,5.5 -2,5.5 -1.93162,0 -2,-0.66667 -2,-19.5 z m 29,17.5 c -1.7193,-1.7193 -2,-3.33333 -2,-11.5 0,-12.42996 0.89657,-13.5 11.31144,-13.5 C 217.11099,204 219,205.62241 219,214.03896 V 220 h -9.5 c -9.18972,0 -9.4995,0.0735 -9.48469,2.25 0.0292,4.29634 1.22276,4.90284 9.19045,4.67019 8.36823,-0.24434 10.57705,0.43166 8.72035,2.66884 C 217.08858,230.59819 214.36939,231 208.37756,231 201.33333,231 199.68169,230.68169 198,229 Z m 16,-17.04569 v -4.04569 l -6.75,0.29569 -6.75,0.29569 -0.31037,3.75 -0.31036,3.75 H 206.93963 214 Z M 256,229 c -1.1,-1.1 -2,-2.675 -2,-3.5 0,-1.9783 3.61771,-1.93861 4.38007,0.048 0.46685,1.21659 1.93504,1.48424 6.85699,1.25 L 271.5,226.5 v -3.5 -3.5 l -6.4806,-0.3037 C 256.99372,218.82019 255,217.28873 255,211.5 c 0,-5.96555 2.06767,-7.5 10.10623,-7.5 7.06975,0 10.89377,1.77505 10.89377,5.0567 0,2.36434 -3.50383,2.67869 -4.38091,0.39304 -0.46208,-1.20416 -1.88133,-1.48323 -6.35699,-1.25 -5.66894,0.29541 -5.7621,0.34876 -5.7621,3.30026 0,2.97979 0.0444,3.00337 6.59993,3.5 8.39085,0.63568 9.90007,1.86526 9.90007,8.06574 0,6.44682 -2.10389,7.93426 -11.22251,7.93426 -5.44416,0 -7.17095,-0.39346 -8.77749,-2 z m 30.22251,0.4433 C 284.17922,228.01212 284,227.0848 284,217.9433 284,210.11089 283.70427,208 282.60699,208 c -0.76616,0 -1.66616,-0.7118 -2,-1.58179 C 279.72655,204.12382 279.79787,204 282,204 c 1.61905,0 2,-0.66667 2,-3.5 0,-2.83333 0.38095,-3.5 2,-3.5 1.61236,0 2,0.66667 2,3.43963 0,3.25137 0.2048,3.45663 3.74168,3.75 2.61495,0.21691 3.84155,0.83735 4.07333,2.06037 0.27226,1.43665 -0.40444,1.75 -3.77921,1.75 h -4.11085 l 0.28752,9.25 0.28753,9.25 3.64756,0.30426 c 2.61945,0.2185 3.79097,0.85268 4.15638,2.25 0.44422,1.69869 -0.0224,1.94574 -3.67505,1.94574 -2.30113,0 -5.18401,-0.70052 -6.40638,-1.5567 z M 303,217.5 c 0,-12.83333 0.0988,-13.5 2,-13.5 1.90123,0 2,0.66667 2,13.5 0,12.83333 -0.0988,13.5 -2,13.5 -1.90123,0 -2,-0.66667 -2,-13.5 z m 12,11.5 c -1.7193,-1.7193 -2,-3.33333 -2,-11.5 0,-12.30834 0.9573,-13.5 10.84501,-13.5 7.17096,0 10.15499,1.56584 10.15499,5.32874 0,2.09563 -3.56939,2.23578 -4.36163,0.17126 -0.41376,-1.07824 -2.1008,-1.5 -6,-1.5 -6.37186,0 -6.63837,0.3814 -6.63837,9.5 0,9.1186 0.26651,9.5 6.63837,9.5 3.8992,0 5.58624,-0.42176 6,-1.5 C 330.47595,223.31731 334,223.59607 334,225.84501 334,229.40025 330.79467,231 323.67126,231 318.33333,231 316.60028,230.60028 315,229 Z m 25,-17.5 c 0,-18.83333 0.0684,-19.5 2,-19.5 1.88889,0 2,0.66667 2,12 v 12 h 2.87868 c 2.26483,0 3.14749,-0.64896 4.13927,-3.04333 1.44647,-3.4921 6.25615,-8.95667 7.88326,-8.95667 1.81479,0 1.23976,3.56245 -0.88548,5.48576 -1.09135,0.98766 -2.84947,3.26214 -3.90693,5.05441 l -1.92266,3.25866 4.428,6.60058 c 4.35027,6.48474 4.38472,6.60059 1.96299,6.60059 -1.92247,0 -3.18906,-1.21053 -5.7547,-5.5 -2.72054,-4.54844 -3.7683,-5.5 -6.05606,-5.5 -2.68651,0 -2.76637,0.15878 -2.76637,5.5 0,4.83333 -0.24242,5.5 -2,5.5 -1.93162,0 -2,-0.66667 -2,-19.5 z M 302.38,197.54789 C 301.6046,195.52721 302.7578,194 305.05902,194 c 1.40371,0 1.94098,0.692 1.94098,2.5 0,1.84621 -0.53124,2.5 -2.03138,2.5 -1.11727,0 -2.28214,-0.65345 -2.58862,-1.45211 z"
         id="path35134" />
      <path
         style="fill:#dc3310"
         d="M 130.46861,523.12245 2.5,449.2449 2.2689923,300.37245 2.0379847,151.5 129.88372,77.75 C 200.19887,37.1875 258.20149,4 258.77843,4 c 0.57693,0 58.5753,33.212506 128.88527,73.805568 L 515.5,151.61114 l 0.25328,148.03647 c 0.23957,140.02297 0.15837,148.11982 -1.5,149.57611 C 512.68113,450.6043 259.58888,597 258.77425,597 258.58888,597 200.85134,563.7551 130.46861,523.12245 Z M 385.34263,517.37695 509.94019,445.5 509.9701,300.37439 510,155.24878 430.25,109.20002 C 386.3875,83.873201 329.87572,51.2291 304.66827,36.657574 l -45.83172,-26.493683 -3.16828,1.823663 C 251.967,14.118012 162.39648,65.817244 72.682958,117.60489 38.133585,137.54871 9.2195744,154.40281 8.4296005,155.05843 7.1911498,156.08625 7.0281868,176.16076 7.2466422,300.78048 L 7.5,445.31051 l 125,72.29971 c 68.75,39.76484 125.73014,72.1521 126.62253,71.9717 0.8924,-0.18041 57.69144,-32.67264 126.2201,-72.20497 z M 474.04656,240.66597 474,199.83194 l 3.94547,3.12488 c 12.79477,10.13364 17.01424,24.38942 12.10144,40.88565 -2.37158,7.96334 -9.2843,24.88177 -13.34358,32.65753 l -2.61021,5 -0.0466,-40.83403 z M 227.18633,243.25 c 0.27409,-1.44053 1.746,-1.83842 8.32332,-2.25 l 7.99035,-0.5 0.2999,-5.75 c 0.27674,-5.30583 -0.70423,-7.33184 -2.2999,-4.75 -0.33992,0.55 -3.29148,1 -6.55902,1 C 225.78133,231 225,229.78174 225,215.5 c 0,-10.83333 0.11594,-11.5 2,-11.5 1.86557,0 2,0.66667 2,9.91821 0,5.45502 0.27314,10.63002 0.60699,11.5 C 230.0441,226.55731 231.56049,227 235.0252,227 243.12383,227 243,227.188 243,214.89301 243,204.66667 243.1224,204 245,204 c 1.92961,0 2,0.66667 2,18.9433 0,22.69369 0.3551,22.0567 -12.29583,22.0567 -6.93715,0 -7.81207,-0.20366 -7.51784,-1.75 z M 85,211.5 c 0,-16.66667 0.217949,-19.5 1.5,-19.5 1.190476,0 1.5,1.44444 1.5,7 0,6.3988 0.907479,8.57675 2.5,6 0.339919,-0.55 3.221732,-1 6.404029,-1 C 105.43565,204 106,204.95106 106,219.32874 106,230.26856 105.87671,231 104.03275,231 c -1.823,0 -1.98798,-0.82492 -2.25,-11.25 L 101.5,208.5 96.168824,208.19493 C 88.422325,207.75163 88,208.39413 88,220.62244 88,229.18027 87.736972,231 86.5,231 85.217949,231 85,228.16667 85,211.5 Z m 30,17.5 c -1.7193,-1.7193 -2,-3.33333 -2,-11.5 0,-12.42142 0.90101,-13.5 11.27749,-13.5 11.11558,0 11.72251,0.69896 11.72251,13.5 0,12.80104 -0.60693,13.5 -11.72251,13.5 -5.94416,0 -7.64392,-0.36643 -9.27749,-2 z m 16.5,-11.5 v -9 l -6.75,-0.29569 -6.75,-0.29569 v 9.59138 9.59138 l 6.75,-0.29569 L 131.5,226.5 Z M 144,229 c -1.7193,-1.7193 -2,-3.33333 -2,-11.5 0,-12.30834 0.9573,-13.5 10.84501,-13.5 7.17096,0 10.15499,1.56584 10.15499,5.32874 0,2.09563 -3.56939,2.23578 -4.36163,0.17126 -0.83826,-2.18447 -11.18874,-2.11411 -12.03138,0.0818 -0.78724,2.0515 -0.78724,13.78492 0,15.83642 0.84264,2.1959 11.19312,2.26626 12.03138,0.0818 C 159.47595,223.31731 163,223.59607 163,225.84501 163,229.40025 159.79467,231 152.67126,231 147.33333,231 145.60028,230.60028 144,229 Z m 25,-17.5 c 0,-18.83333 0.0684,-19.5 2,-19.5 1.88889,0 2,0.66667 2,12 v 12 h 2.87868 c 2.26483,0 3.14749,-0.64896 4.13927,-3.04333 1.44647,-3.4921 6.25615,-8.95667 7.88326,-8.95667 1.81479,0 1.23976,3.56245 -0.88548,5.48576 -1.09135,0.98766 -2.84947,3.26214 -3.90693,5.05441 l -1.92266,3.25866 4.428,6.60058 c 4.35027,6.48474 4.38472,6.60059 1.96299,6.60059 -1.92247,0 -3.18906,-1.21053 -5.7547,-5.5 -2.72054,-4.54844 -3.7683,-5.5 -6.05606,-5.5 -2.68651,0 -2.76637,0.15878 -2.76637,5.5 0,4.83333 -0.24242,5.5 -2,5.5 -1.93162,0 -2,-0.66667 -2,-19.5 z m 29,17.5 c -1.7193,-1.7193 -2,-3.33333 -2,-11.5 0,-12.42996 0.89657,-13.5 11.31144,-13.5 C 217.11099,204 219,205.62241 219,214.03896 V 220 h -9.5 c -9.18972,0 -9.4995,0.0735 -9.48469,2.25 0.0292,4.29634 1.22276,4.90284 9.19045,4.67019 8.36823,-0.24434 10.57705,0.43166 8.72035,2.66884 C 217.08858,230.59819 214.36939,231 208.37756,231 201.33333,231 199.68169,230.68169 198,229 Z m 16,-17.04569 v -4.04569 l -6.75,0.29569 -6.75,0.29569 -0.31037,3.75 -0.31036,3.75 H 206.93963 214 Z M 256,229 c -1.1,-1.1 -2,-2.675 -2,-3.5 0,-1.9783 3.61771,-1.93861 4.38007,0.048 0.46685,1.21659 1.93504,1.48424 6.85699,1.25 L 271.5,226.5 v -3.5 -3.5 l -6.4806,-0.3037 C 256.99372,218.82019 255,217.28873 255,211.5 c 0,-5.96555 2.06767,-7.5 10.10623,-7.5 7.06975,0 10.89377,1.77505 10.89377,5.0567 0,2.36434 -3.50383,2.67869 -4.38091,0.39304 -0.46208,-1.20416 -1.88133,-1.48323 -6.35699,-1.25 -5.66894,0.29541 -5.7621,0.34876 -5.7621,3.30026 0,2.97979 0.0444,3.00337 6.59993,3.5 8.39085,0.63568 9.90007,1.86526 9.90007,8.06574 0,6.44682 -2.10389,7.93426 -11.22251,7.93426 -5.44416,0 -7.17095,-0.39346 -8.77749,-2 z m 30.22251,0.4433 C 284.17922,228.01212 284,227.0848 284,217.9433 284,210.11089 283.70427,208 282.60699,208 c -0.76616,0 -1.66616,-0.7118 -2,-1.58179 C 279.72655,204.12382 279.79787,204 282,204 c 1.61905,0 2,-0.66667 2,-3.5 0,-2.83333 0.38095,-3.5 2,-3.5 1.61236,0 2,0.66667 2,3.43963 0,3.25137 0.2048,3.45663 3.74168,3.75 2.61495,0.21691 3.84155,0.83735 4.07333,2.06037 0.27226,1.43665 -0.40444,1.75 -3.77921,1.75 h -4.11085 l 0.28752,9.25 0.28753,9.25 3.64756,0.30426 c 2.61945,0.2185 3.79097,0.85268 4.15638,2.25 0.44422,1.69869 -0.0224,1.94574 -3.67505,1.94574 -2.30113,0 -5.18401,-0.70052 -6.40638,-1.5567 z M 303,217.5 c 0,-12.83333 0.0988,-13.5 2,-13.5 1.90123,0 2,0.66667 2,13.5 0,12.83333 -0.0988,13.5 -2,13.5 -1.90123,0 -2,-0.66667 -2,-13.5 z m 12,11.5 c -1.7193,-1.7193 -2,-3.33333 -2,-11.5 0,-12.30834 0.9573,-13.5 10.84501,-13.5 7.17096,0 10.15499,1.56584 10.15499,5.32874 0,2.09563 -3.56939,2.23578 -4.36163,0.17126 -0.41376,-1.07824 -2.1008,-1.5 -6,-1.5 -6.37186,0 -6.63837,0.3814 -6.63837,9.5 0,9.1186 0.26651,9.5 6.63837,9.5 3.8992,0 5.58624,-0.42176 6,-1.5 C 330.47595,223.31731 334,223.59607 334,225.84501 334,229.40025 330.79467,231 323.67126,231 318.33333,231 316.60028,230.60028 315,229 Z m 25,-17.5 c 0,-18.83333 0.0684,-19.5 2,-19.5 1.88889,0 2,0.66667 2,12 v 12 h 2.87868 c 2.26483,0 3.14749,-0.64896 4.13927,-3.04333 1.44647,-3.4921 6.25615,-8.95667 7.88326,-8.95667 1.81479,0 1.23976,3.56245 -0.88548,5.48576 -1.09135,0.98766 -2.84947,3.26214 -3.90693,5.05441 l -1.92266,3.25866 4.428,6.60058 c 4.35027,6.48474 4.38472,6.60059 1.96299,6.60059 -1.92247,0 -3.18906,-1.21053 -5.7547,-5.5 -2.72054,-4.54844 -3.7683,-5.5 -6.05606,-5.5 -2.68651,0 -2.76637,0.15878 -2.76637,5.5 0,4.83333 -0.24242,5.5 -2,5.5 -1.93162,0 -2,-0.66667 -2,-19.5 z M 302.38,197.54789 C 301.6046,195.52721 302.7578,194 305.05902,194 c 1.40371,0 1.94098,0.692 1.94098,2.5 0,1.84621 -0.53124,2.5 -2.03138,2.5 -1.11727,0 -2.28214,-0.65345 -2.58862,-1.45211 z"
         id="path35132" />
    </g>
  </g>
</svg>
