<?xml version="1.0" encoding="utf-8"?>
<!-- Generator: Adobe Illustrator 24.2.3, SVG Export Plug-In . SVG Version: 6.00 Build 0)  -->
<svg version="1.1" id="Layer_1" xmlns="http://www.w3.org/2000/svg" xmlns:xlink="http://www.w3.org/1999/xlink" x="0px" y="0px"
	 viewBox="0 0 288 252.48" style="enable-background:new 0 0 288 252.48;" xml:space="preserve">
<g>
	<path d="M77.8,130.79v-17.27h3.59v6.59h6.71v-6.59h3.59v17.27H88.1v-7.71h-6.71v7.71H77.8z"/>
	<path d="M108.46,129.25c-1.3,1.34-3.19,2.02-5.66,2.02s-4.36-0.67-5.66-2.02c-1.75-1.65-2.62-4.02-2.62-7.12
		c0-3.16,0.88-5.54,2.62-7.12c1.3-1.34,3.19-2.02,5.66-2.02s4.36,0.67,5.66,2.02c1.74,1.59,2.61,3.96,2.61,7.12
		C111.07,125.23,110.2,127.61,108.46,129.25z M106.2,126.63c0.84-1.05,1.26-2.55,1.26-4.5c0-1.94-0.42-3.44-1.26-4.49
		s-1.97-1.59-3.4-1.59s-2.57,0.53-3.42,1.58s-1.28,2.55-1.28,4.5s0.43,3.45,1.28,4.5s1.99,1.58,3.42,1.58
		S105.36,127.68,106.2,126.63z"/>
	<path d="M125.28,113.52h5.19v17.27h-3.36v-11.68c0-0.34,0-0.81,0.01-1.41s0.01-1.07,0.01-1.4l-3.27,14.5h-3.51l-3.25-14.5
		c0,0.33,0,0.79,0.01,1.4s0.01,1.08,0.01,1.41v11.68h-3.36v-17.27h5.25l3.14,13.58L125.28,113.52z"/>
	<path d="M146.59,116.57h-9.14v3.67h8.39v3h-8.39v4.44h9.56v3.11h-13.09v-17.27h12.67V116.57z"/>
	<path d="M160.89,113.96c0.64,0.27,1.17,0.68,1.62,1.21c0.37,0.44,0.66,0.92,0.87,1.45s0.32,1.14,0.32,1.82
		c0,0.82-0.21,1.63-0.62,2.42s-1.1,1.35-2.05,1.68c0.8,0.32,1.36,0.78,1.69,1.37s0.5,1.49,0.5,2.7v1.16c0,0.79,0.03,1.32,0.1,1.61
		c0.09,0.45,0.32,0.77,0.67,0.98v0.43H160c-0.11-0.38-0.19-0.69-0.23-0.93c-0.09-0.48-0.14-0.98-0.15-1.49l-0.02-1.61
		c-0.01-1.1-0.21-1.84-0.57-2.2c-0.37-0.37-1.05-0.55-2.06-0.55h-3.53v6.77h-3.53v-17.27h8.26
		C159.35,113.54,160.26,113.69,160.89,113.96z M153.43,116.52v4.64h3.88c0.77,0,1.35-0.09,1.74-0.28c0.68-0.33,1.02-0.98,1.02-1.95
		c0-1.05-0.33-1.75-0.99-2.11c-0.37-0.2-0.93-0.3-1.67-0.3H153.43z"/>
	<path d="M185.42,123.31c-1.01,0.84-2.46,1.27-4.33,1.27h-3.6v6.21h-3.59v-17.27h7.42c1.71,0,3.07,0.45,4.09,1.34
		c1.02,0.89,1.53,2.27,1.53,4.14C186.94,121.03,186.43,122.47,185.42,123.31z M182.67,117.09c-0.46-0.38-1.1-0.57-1.92-0.57h-3.25
		v5.09h3.25c0.82,0,1.46-0.21,1.92-0.62s0.69-1.07,0.69-1.97S183.12,117.47,182.67,117.09z"/>
	<path d="M196.66,117.72c0.04,0,0.14,0.01,0.29,0.02v3.42c-0.21-0.02-0.4-0.04-0.56-0.05s-0.3-0.01-0.4-0.01
		c-1.34,0-2.25,0.44-2.71,1.31c-0.26,0.49-0.39,1.25-0.39,2.27v6.11h-3.36v-12.77h3.19v2.23c0.52-0.85,0.96-1.43,1.35-1.75
		c0.62-0.52,1.44-0.79,2.44-0.79C196.56,117.71,196.62,117.71,196.66,117.72z"/>
	<path d="M209.55,129.23c-1.08,1.33-2.71,2-4.91,2s-3.83-0.67-4.91-2c-1.08-1.33-1.62-2.93-1.62-4.81c0-1.84,0.54-3.44,1.62-4.79
		c1.08-1.35,2.71-2.03,4.91-2.03s3.83,0.68,4.91,2.03c1.08,1.35,1.62,2.95,1.62,4.79C211.17,126.29,210.63,127.9,209.55,129.23z
		 M206.88,127.38c0.52-0.69,0.79-1.68,0.79-2.96s-0.26-2.26-0.79-2.95s-1.27-1.04-2.25-1.04s-1.73,0.35-2.26,1.04
		s-0.79,1.68-0.79,2.95s0.26,2.27,0.79,2.96s1.28,1.04,2.26,1.04S206.36,128.07,206.88,127.38z"/>
</g>
</svg>
