<?xml version="1.0" encoding="UTF-8" standalone="no"?>
<!-- Created with Inkscape (http://www.inkscape.org/) -->

<svg
   width="271.44739"
   height="333.33221"
   id="svg2"
   version="1.1"
   inkscape:version="1.2.2 (b0a84865, 2022-12-01)"
   sodipodi:docname="HydroFunctions.svg"
   xmlns:inkscape="http://www.inkscape.org/namespaces/inkscape"
   xmlns:sodipodi="http://sodipodi.sourceforge.net/DTD/sodipodi-0.dtd"
   xmlns="http://www.w3.org/2000/svg"
   xmlns:svg="http://www.w3.org/2000/svg"
   xmlns:rdf="http://www.w3.org/1999/02/22-rdf-syntax-ns#"
   xmlns:cc="http://creativecommons.org/ns#"
   xmlns:dc="http://purl.org/dc/elements/1.1/">
  <defs
     id="defs4" />
  <sodipodi:namedview
     id="base"
     pagecolor="#ffffff"
     bordercolor="#666666"
     borderopacity="1.0"
     inkscape:pageopacity="0.0"
     inkscape:pageshadow="2"
     inkscape:zoom="1"
     inkscape:cx="-139"
     inkscape:cy="122.5"
     inkscape:document-units="px"
     inkscape:current-layer="layer1"
     showgrid="false"
     inkscape:window-width="1680"
     inkscape:window-height="729"
     inkscape:window-x="0"
     inkscape:window-y="25"
     inkscape:window-maximized="0"
     fit-margin-top="0"
     fit-margin-left="1"
     fit-margin-right="0"
     fit-margin-bottom="0"
     inkscape:showpageshadow="2"
     inkscape:pagecheckerboard="0"
     inkscape:deskcolor="#d1d1d1" />
  <metadata
     id="metadata7">
    <rdf:RDF>
      <cc:Work
         rdf:about="">
        <dc:format>image/svg+xml</dc:format>
        <dc:type
           rdf:resource="http://purl.org/dc/dcmitype/StillImage" />
        <dc:title />
      </cc:Work>
    </rdf:RDF>
  </metadata>
  <g
     inkscape:groupmode="layer"
     id="layer2"
     inkscape:label="backgaround"
     style="display:inline"
     transform="translate(-234.65407,-231.31396)" />
  <g
     inkscape:label="Layer 1"
     inkscape:groupmode="layer"
     id="layer1"
     style="display:inline"
     transform="translate(-234.65407,-231.31396)">
    <g
       id="g3082">
      <title
         id="title3106">hydrofunctions</title>
      <g
         transform="matrix(1.6038897,0,0,1.6038897,-146.51517,-319.05243)"
         inkscape:export-filename="C:\Users\Marty\Google Drive\2017Spring Working Folder\Research\HydroPy Logo\hp-logo-16.png"
         inkscape:export-ydpi="14.973192"
         inkscape:export-xdpi="14.973192"
         id="g3788">
        <path
           style="fill:#0000ff;stroke:#ffffff;stroke-width:5.64695;stroke-linecap:butt;stroke-linejoin:miter;stroke-miterlimit:4;stroke-dasharray:none;stroke-opacity:1"
           d="m 320.00002,347.60501 c 0,0 -71.34968,86.58628 -70.47143,125.71506 0.87826,39.12878 31.8301,54.94214 70.47143,54.94214 38.64134,0 70.08556,-16.54616 70.47143,-54.94214 0.38587,-38.39598 -70.47143,-125.71506 -70.47143,-125.71506 z"
           id="path2985"
           inkscape:connector-curvature="0"
           sodipodi:nodetypes="czzzc"
           inkscape:export-filename="C:\Users\Marty\Google Drive\2017Spring Working Folder\Research\HydroPy Logo\hp-logo.png"
           inkscape:export-xdpi="14.998835"
           inkscape:export-ydpi="14.998835" />
        <g
           aria-label="[hf]:"
           transform="scale(0.87092272,1.1482075)"
           id="text2987"
           style="font-weight:bold;line-height:0%;-inkscape-font-specification:'Sans Bold';letter-spacing:0px;word-spacing:0px">
          <path
             d="m 315.73578,379.36953 h 18.91415 v 6.85295 h -8.55858 v 41.90962 h 8.55858 v 6.85295 h -18.91415 z"
             style="font-size:62.3771px;line-height:125%;fill:#00ff00"
             id="path32" />
          <path
             d="m 378.41745,411.98944 v 20.77207 h -10.96472 v -3.3808 -12.45714 q 0,-4.47726 -0.2132,-6.15243 -0.18275,-1.67517 -0.67007,-2.46706 -0.63961,-1.06602 -1.73608,-1.64471 -1.09647,-0.60915 -2.49752,-0.60915 -3.41125,0 -5.36053,2.64981 -1.94929,2.61935 -1.94929,7.27935 v 16.78213 h -10.90381 v -47.39198 h 10.90381 v 18.27454 q 2.46706,-2.98484 5.2387,-4.38589 2.77164,-1.43151 6.12197,-1.43151 5.90877,0 8.95453,3.62445 3.07621,3.62445 3.07621,10.53832 z"
             style="font-size:62.3771px;line-height:125%;fill:#ff0000"
             id="path34" />
          <path
             d="m 410.9766,385.36953 v 7.15753 h -6.0306 q -2.31478,0 -3.22851,0.85281 -0.91372,0.82235 -0.91372,2.89347 v 2.37569 h 9.32001 v 7.79714 h -9.32001 v 26.31534 h -10.90381 v -26.31534 h -5.42145 v -7.79714 h 5.42145 v -2.37569 q 0,-5.57374 3.10667,-8.22355 3.10667,-2.68026 9.62459,-2.68026 z"
             style="font-size:62.3771px;line-height:125%;fill:#ff0000"
             id="path36" />
          <path
             d="m 433.57611,434.98505 h -18.91415 v -6.85295 h 8.55858 v -41.90962 h -8.55858 v -6.85295 h 18.91415 z"
             style="font-size:62.3771px;line-height:125%;fill:#00ff00"
             id="path38" />
          <path
             d="m 445.91143,392.64903 h 10.99518 v 11.78708 h -10.99518 z m 0,22.3254 h 10.99518 v 11.78708 h -10.99518 z"
             style="font-size:62.3771px;line-height:125%;fill:#00ff00"
             id="path40" />
        </g>
      </g>
      <g
         id="text2991"
         style="font-style:normal;font-variant:normal;font-weight:normal;font-stretch:normal;font-size:16px;line-height:166%;font-family:Consolas;-inkscape-font-specification:Consolas;letter-spacing:0px;word-spacing:0px;display:inline;fill:#000000;fill-opacity:1;stroke:none">
        <path
           id="path3046"
           style="fill:#0000ff"
           d="m 234.65407,522.73993 h 6.79687 v 14.25 h 0.11719 c 1.67186,-2.3281 3.60155,-3.49217 5.78906,-3.49219 1.56249,2e-5 2.77733,0.51174 3.64453,1.53516 0.86717,1.02346 1.30077,2.46486 1.30079,4.32422 v 16.40625 h -6.82032 v -13.14844 c -1e-5,-0.84374 -0.16798,-1.50389 -0.5039,-1.98047 -0.33595,-0.47655 -0.8008,-0.71483 -1.39453,-0.71484 -1.42189,10e-6 -2.13283,0.96095 -2.13282,2.88281 v 12.96094 h -6.79687 z" />
        <path
           id="path3048"
           style="fill:#0000ff"
           d="m 255.20876,534.20087 h 6.72656 l 1.71094,5.60156 c 0.59374,1.96876 1.10936,3.89845 1.54687,5.78906 h 0.11719 c 0.35936,-1.79686 0.65624,-3.08592 0.89062,-3.86719 l 2.27344,-7.52343 h 6.82031 l -9.1875,30.44531 h -6.79687 l 2.76562,-9.16406 z" />
        <path
           id="path3050"
           style="fill:#0000ff"
           d="m 289.07594,522.73993 h 6.77344 v 33.02344 h -6.82031 v -2.83594 h -0.0937 c -1.51564,2.375 -3.22657,3.5625 -5.13281,3.5625 -2.00001,0 -3.61329,-1.04688 -4.83985,-3.14063 -1.22656,-2.09374 -1.83984,-4.89061 -1.83984,-8.39062 0,-3.48436 0.625,-6.26561 1.875,-8.34375 1.24999,-2.0781 2.89843,-3.11717 4.94531,-3.11719 1.85937,2e-5 3.5703,1.07034 5.13281,3.21094 z m 0,22.07812 c -10e-6,-3.54686 -0.85938,-5.32029 -2.57812,-5.32031 -1.76564,2e-5 -2.64845,1.88283 -2.64844,5.64844 -10e-6,1.67188 0.23827,2.96485 0.71484,3.87891 0.47656,0.91406 1.13671,1.37109 1.98047,1.37109 0.78124,0 1.39843,-0.48437 1.85157,-1.45313 0.45311,-0.96874 0.67967,-2.34374 0.67968,-4.125 z" />
        <path
           id="path3052"
           style="fill:#0000ff"
           d="m 307.54469,534.20087 v 3.60937 h 0.0937 c 1.62499,-2.81248 3.33593,-4.21873 5.13282,-4.21875 0.26561,2e-5 0.63279,0.0469 1.10156,0.14063 v 6.67968 c -0.82814,-0.14061 -1.59377,-0.21092 -2.29688,-0.21093 -2.50001,10e-6 -3.75001,1.6172 -3.75,4.85156 v 10.71094 h -6.79687 v -21.5625 z" />
        <path
           id="path3054"
           style="fill:#0000ff"
           d="m 325.63844,533.45087 c 3.10936,2e-5 5.47655,1.03517 7.10157,3.10547 1.62498,2.07033 2.43748,4.94923 2.4375,8.63671 -2e-5,3.60939 -0.84377,6.40235 -2.53125,8.37891 -1.68752,1.97656 -4.02346,2.96484 -7.00782,2.96484 -2.85938,0 -5.12891,-1.00781 -6.80859,-3.02343 -1.67969,-2.01562 -2.51953,-4.78906 -2.51953,-8.32032 0,-3.68748 0.80078,-6.56638 2.40234,-8.63671 1.60156,-2.0703 3.91015,-3.10545 6.92578,-3.10547 z m 0.0469,16.99218 c 0.89061,10e-6 1.55858,-0.41405 2.0039,-1.24218 0.4453,-0.82812 0.66796,-2.24218 0.66797,-4.24219 -1e-5,-1.98436 -0.21876,-3.37499 -0.65625,-4.17188 -0.43751,-0.79686 -1.09376,-1.19529 -1.96875,-1.19531 -0.85938,2e-5 -1.51563,0.38674 -1.96875,1.16016 -0.45313,0.77345 -0.67969,2.19142 -0.67968,4.2539 -10e-6,3.62501 0.86717,5.43751 2.60156,5.4375 z" />
        <path
           id="path3056"
           style="font-weight:300;font-size:48px;line-height:166%;font-family:'Tw Cen MT Condensed Extra Bold';-inkscape-font-specification:'Tw Cen MT Condensed Extra Bold'"
           d="m 339.74782,534.20087 v -4.99219 c -10e-6,-2.0156 0.65234,-3.59763 1.95703,-4.74609 1.30468,-1.14841 3.12108,-1.72263 5.44922,-1.72266 h 2.71875 v 6.72656 h -1.71094 c -0.48439,3e-5 -0.87892,0.17581 -1.18359,0.52735 -0.3047,0.35158 -0.45704,0.81643 -0.45703,1.39453 v 2.8125 h 3.35156 v 5.67187 h -3.35156 v 15.89063 h -6.77344 v -15.89063 h -2.39063 v -5.67187 z" />
        <path
           id="path3058"
           style="font-weight:300;font-size:48px;line-height:166%;font-family:'Tw Cen MT Condensed Extra Bold';-inkscape-font-specification:'Tw Cen MT Condensed Extra Bold'"
           d="m 352.52126,534.20087 h 6.82031 v 13.875 c -10e-6,0.71875 0.16796,1.31641 0.5039,1.79297 0.33593,0.47656 0.79296,0.71484 1.3711,0.71484 1.31249,0 1.96873,-0.96093 1.96875,-2.88281 v -13.5 h 6.82031 v 12.49218 c -2e-5,3.17189 -0.74221,5.59766 -2.22656,7.27735 -1.48439,1.67969 -3.62502,2.51953 -6.42188,2.51953 -3.12501,0 -5.37891,-0.85938 -6.76172,-2.57813 -1.38281,-1.71874 -2.07422,-3.86718 -2.07421,-6.44531 z" />
        <path
           id="path3060"
           style="font-weight:300;font-size:48px;line-height:166%;font-family:'Tw Cen MT Condensed Extra Bold';-inkscape-font-specification:'Tw Cen MT Condensed Extra Bold'"
           d="m 381.88844,534.20087 v 2.92968 h 0.11719 c 1.59374,-2.42185 3.53905,-3.63279 5.83594,-3.63281 1.49998,2e-5 2.69139,0.50002 3.57422,1.5 0.88279,1.00002 1.3242,2.35158 1.32422,4.05469 v 16.71094 h -6.82032 V 542.4743 c -10e-6,-0.73436 -0.17189,-1.33592 -0.51562,-1.80468 -0.34376,-0.46874 -0.78908,-0.70311 -1.33594,-0.70313 -1.45313,2e-5 -2.1797,0.91408 -2.17969,2.74219 v 13.05469 h -6.79687 v -21.5625 z" />
        <path
           id="path3062"
           style="font-weight:300;font-size:48px;line-height:166%;font-family:'Tw Cen MT Condensed Extra Bold';-inkscape-font-specification:'Tw Cen MT Condensed Extra Bold'"
           d="m 409.47438,549.17743 v 5.625 c -1.62501,1.09375 -3.25782,1.64062 -4.89844,1.64062 -2.42188,0 -4.36328,-1.05078 -5.82422,-3.15234 -1.46094,-2.10156 -2.1914,-4.92577 -2.1914,-8.47266 0,-3.35936 0.75,-6.09373 2.25,-8.20312 1.49999,-2.10935 3.43749,-3.16404 5.8125,-3.16406 1.65624,2e-5 3.28905,0.58596 4.89844,1.75781 v 5.57812 c -0.92189,-0.48436 -1.75002,-0.72654 -2.48438,-0.72656 -1.09376,2e-5 -1.97657,0.44142 -2.64844,1.32422 -0.67188,0.88283 -1.00782,2.05861 -1.00781,3.52734 -10e-6,1.54689 0.32812,2.76564 0.98438,3.65625 0.65624,0.89064 1.54686,1.33595 2.67187,1.33594 0.68749,10e-6 1.49999,-0.24218 2.4375,-0.72656 z" />
        <path
           id="path3064"
           style="font-weight:300;font-size:48px;line-height:166%;font-family:'Tw Cen MT Condensed Extra Bold';-inkscape-font-specification:'Tw Cen MT Condensed Extra Bold'"
           d="m 414.37282,528.45868 h 6.82031 v 5.74219 h 2.64844 v 5.67187 h -2.69531 v 15.89063 h -6.77344 v -15.9375 h -2.57813 v -5.625 h 2.57813 z" />
        <path
           id="path3066"
           style="font-weight:300;font-size:48px;line-height:166%;font-family:'Tw Cen MT Condensed Extra Bold';-inkscape-font-specification:'Tw Cen MT Condensed Extra Bold'"
           d="m 427.31032,527.73212 c 0,-0.99997 0.35156,-1.85154 1.05469,-2.55469 0.70312,-0.70309 1.54687,-1.05466 2.53125,-1.05469 0.99999,3e-5 1.85155,0.3516 2.55468,1.05469 0.70312,0.70315 1.05468,1.55472 1.05469,2.55469 -10e-6,0.9844 -0.35157,1.83205 -1.05469,2.54297 -0.70313,0.71096 -1.55469,1.06643 -2.55468,1.0664 -0.96876,3e-5 -1.8086,-0.35544 -2.51954,-1.0664 -0.71094,-0.71092 -1.0664,-1.55857 -1.0664,-2.54297 z m 0.1875,6.46875 h 6.82031 v 21.5625 h -6.82031 z" />
        <path
           id="path3068"
           style="font-weight:300;font-size:48px;line-height:166%;font-family:'Tw Cen MT Condensed Extra Bold';-inkscape-font-specification:'Tw Cen MT Condensed Extra Bold'"
           d="m 447.79469,533.45087 c 3.10936,2e-5 5.47655,1.03517 7.10157,3.10547 1.62498,2.07033 2.43748,4.94923 2.4375,8.63671 -2e-5,3.60939 -0.84377,6.40235 -2.53125,8.37891 -1.68752,1.97656 -4.02346,2.96484 -7.00782,2.96484 -2.85938,0 -5.12891,-1.00781 -6.80859,-3.02343 -1.67969,-2.01562 -2.51953,-4.78906 -2.51953,-8.32032 0,-3.68748 0.80078,-6.56638 2.40234,-8.63671 1.60156,-2.0703 3.91015,-3.10545 6.92578,-3.10547 z m 0.0469,16.99218 c 0.89061,10e-6 1.55858,-0.41405 2.0039,-1.24218 0.4453,-0.82812 0.66796,-2.24218 0.66797,-4.24219 -1e-5,-1.98436 -0.21876,-3.37499 -0.65625,-4.17188 -0.43751,-0.79686 -1.09376,-1.19529 -1.96875,-1.19531 -0.85938,2e-5 -1.51563,0.38674 -1.96875,1.16016 -0.45313,0.77345 -0.67969,2.19142 -0.67968,4.2539 -10e-6,3.62501 0.86717,5.43751 2.60156,5.4375 z" />
        <path
           id="path3070"
           style="font-weight:300;font-size:48px;line-height:166%;font-family:'Tw Cen MT Condensed Extra Bold';-inkscape-font-specification:'Tw Cen MT Condensed Extra Bold'"
           d="m 468.13844,534.20087 v 2.92968 h 0.11719 c 1.59374,-2.42185 3.53905,-3.63279 5.83594,-3.63281 1.49998,2e-5 2.69139,0.50002 3.57422,1.5 0.88279,1.00002 1.3242,2.35158 1.32422,4.05469 v 16.71094 h -6.82032 V 542.4743 c -10e-6,-0.73436 -0.17189,-1.33592 -0.51562,-1.80468 -0.34376,-0.46874 -0.78908,-0.70311 -1.33594,-0.70313 -1.45313,2e-5 -2.1797,0.91408 -2.17969,2.74219 v 13.05469 h -6.79687 v -21.5625 z" />
        <path
           id="path3072"
           style="font-weight:300;font-size:48px;line-height:166%;font-family:'Tw Cen MT Condensed Extra Bold';-inkscape-font-specification:'Tw Cen MT Condensed Extra Bold'"
           d="m 484.82594,548.80243 c 2.32812,1.375 4.00781,2.0625 5.03907,2.0625 0.56249,0 1.03124,-0.14453 1.40625,-0.43359 0.37499,-0.28906 0.56249,-0.63672 0.5625,-1.04297 -10e-6,-0.4375 -0.15626,-0.75781 -0.46875,-0.96094 -0.31251,-0.20312 -1.48439,-0.74999 -3.51563,-1.64063 -1.625,-0.71874 -2.79688,-1.56639 -3.51562,-2.54296 -0.71876,-0.97655 -1.07813,-2.1914 -1.07813,-3.64454 0,-2.0781 0.71484,-3.78904 2.14453,-5.13281 1.42968,-1.34373 3.2539,-2.0156 5.47266,-2.01562 2.15624,2e-5 4.79686,0.85939 7.92187,2.57812 l -2.625,4.85156 c -2.03126,-1.24998 -3.69532,-1.87498 -4.99218,-1.875 -1.12501,2e-5 -1.68751,0.45315 -1.6875,1.35938 -10e-6,0.43751 0.20702,0.81642 0.62109,1.13672 0.41405,0.32032 1.16796,0.67579 2.26172,1.0664 2.04686,0.71877 3.53514,1.57814 4.46484,2.57813 0.92967,1.00001 1.39452,2.26563 1.39453,3.79687 -10e-6,2.18751 -0.73439,3.98438 -2.20312,5.39063 -1.46877,1.40625 -3.34376,2.10937 -5.625,2.10937 -2.46876,0 -5.10938,-0.86718 -7.92188,-2.60156 z" />
      </g>
    </g>
  </g>
</svg>
