<?xml version="1.0" encoding="UTF-8" standalone="no"?>
<!-- Created with Inkscape (http://www.inkscape.org/) -->

<svg
   width="135.17479mm"
   height="21.430166mm"
   viewBox="0 0 135.17479 21.430166"
   version="1.1"
   id="svg5"
   inkscape:version="1.2.2 (b0a84865, 2022-12-01)"
   sodipodi:docname="Hyperspectral Soilmoisture Dataset.svg"
   xmlns:inkscape="http://www.inkscape.org/namespaces/inkscape"
   xmlns:sodipodi="http://sodipodi.sourceforge.net/DTD/sodipodi-0.dtd"
   xmlns="http://www.w3.org/2000/svg"
   xmlns:svg="http://www.w3.org/2000/svg">
  <sodipodi:namedview
     id="namedview7"
     pagecolor="#ffffff"
     bordercolor="#666666"
     borderopacity="1.0"
     inkscape:showpageshadow="2"
     inkscape:pageopacity="0.0"
     inkscape:pagecheckerboard="0"
     inkscape:deskcolor="#d1d1d1"
     inkscape:document-units="mm"
     showgrid="false"
     inkscape:zoom="0.41799165"
     inkscape:cx="369.62461"
     inkscape:cy="287.08707"
     inkscape:window-width="1332"
     inkscape:window-height="712"
     inkscape:window-x="0"
     inkscape:window-y="25"
     inkscape:window-maximized="0"
     inkscape:current-layer="layer1" />
  <defs
     id="defs2" />
  <g
     inkscape:label="Layer 1"
     inkscape:groupmode="layer"
     id="layer1"
     transform="translate(-25.407387,-85.008283)">
    <g
       aria-label="Hyperspectral benchmark
dataset on soil moisture"
       id="text1387"
       style="font-size:10.5833px;line-height:1.25;stroke-width:0.264583">
      <path
         d="m 31.293314,93.04911 h -1.02319 v -3.7672 h -3.839547 v 3.7672 h -1.02319 v -7.694596 h 1.02319 v 3.017894 h 3.839547 v -3.017894 h 1.02319 z"
         style="text-align:center;text-anchor:middle"
         id="path1391" />
      <path
         d="m 38.274778,87.276871 -3.369293,7.901302 h -1.038693 l 1.074866,-2.408114 -2.299594,-5.493188 h 1.054196 l 1.772496,4.278795 1.787999,-4.278795 z"
         style="text-align:center;text-anchor:middle"
         id="path1393" />
      <path
         d="m 44.62579,90.093228 q 0,0.702797 -0.201537,1.286739 -0.201538,0.578774 -0.568439,0.981849 -0.341063,0.382404 -0.80615,0.594277 -0.459919,0.206705 -0.976681,0.206705 -0.449584,0 -0.816485,-0.09819 -0.361734,-0.09819 -0.738971,-0.30489 v 2.41845 h -0.971514 v -7.901302 h 0.971514 v 0.604613 q 0.387572,-0.325561 0.868161,-0.542601 0.485757,-0.222208 1.033526,-0.222208 1.04386,0 1.622634,0.790647 0.583942,0.785479 0.583942,2.185906 z m -1.002519,0.02584 q 0,-1.043861 -0.356567,-1.560623 -0.356566,-0.516763 -1.095536,-0.516763 -0.418578,0 -0.842324,0.180867 -0.423745,0.180867 -0.811317,0.475422 v 3.271107 q 0.41341,0.186035 0.707965,0.253214 0.299722,0.06718 0.676959,0.06718 0.811317,0 1.266069,-0.547768 0.454751,-0.547769 0.454751,-1.622636 z"
         style="text-align:center;text-anchor:middle"
         id="path1395" />
      <path
         d="m 50.971635,90.26376 h -4.252956 q 0,0.532265 0.160196,0.930172 0.160196,0.39274 0.439248,0.645954 0.268717,0.248046 0.635618,0.372069 0.372069,0.124023 0.816485,0.124023 0.58911,0 1.183387,-0.232543 0.599445,-0.237711 0.852658,-0.465087 h 0.05168 v 1.059364 q -0.490925,0.206705 -1.00252,0.346231 -0.511595,0.139526 -1.074866,0.139526 -1.436601,0 -2.24275,-0.775144 -0.80615,-0.780312 -0.80615,-2.211745 0,-1.415929 0.769976,-2.247917 0.775144,-0.831988 2.036045,-0.831988 1.167884,0 1.798334,0.682127 0.635618,0.682126 0.635618,1.93786 z M 50.02596,89.519621 q -0.0052,-0.764808 -0.387572,-1.183386 -0.377237,-0.418578 -1.152381,-0.418578 -0.780312,0 -1.245398,0.459919 -0.459919,0.459919 -0.52193,1.142045 z"
         style="text-align:center;text-anchor:middle"
         id="path1397" />
      <path
         d="m 56.046246,88.336235 h -0.05168 q -0.21704,-0.05168 -0.423745,-0.07235 -0.201538,-0.02584 -0.480589,-0.02584 -0.449584,0 -0.868162,0.201537 -0.418578,0.19637 -0.80615,0.511595 v 4.097928 h -0.971513 v -5.772239 h 0.971513 v 0.852659 q 0.578775,-0.465087 1.018023,-0.656289 0.444416,-0.19637 0.904335,-0.19637 0.253213,0 0.366901,0.0155 0.113688,0.01033 0.341063,0.04651 z"
         style="text-align:center;text-anchor:middle"
         id="path1399" />
      <path
         d="m 61.084681,91.385135 q 0,0.790646 -0.656289,1.297074 -0.651121,0.506427 -1.782831,0.506427 -0.640786,0 -1.178219,-0.149861 -0.532265,-0.155029 -0.893999,-0.335896 V 91.61251 h 0.05168 q 0.459919,0.346231 1.02319,0.552936 0.563272,0.201538 1.080034,0.201538 0.640786,0 1.00252,-0.206705 0.361734,-0.206705 0.361734,-0.651121 0,-0.341064 -0.19637,-0.516763 -0.19637,-0.175699 -0.754474,-0.299722 -0.206705,-0.04651 -0.5426,-0.108521 -0.330729,-0.06201 -0.604613,-0.134358 -0.759641,-0.201537 -1.080034,-0.589109 -0.315225,-0.39274 -0.315225,-0.961179 0,-0.356566 0.144694,-0.671791 0.149861,-0.315226 0.449583,-0.563272 0.289387,-0.242878 0.733803,-0.382404 0.449584,-0.144694 1.00252,-0.144694 0.516762,0 1.04386,0.129191 0.532266,0.124023 0.883664,0.30489 v 1.038693 h -0.05168 Q 60.43356,88.336235 59.901295,88.1502 q -0.532266,-0.191202 -1.043861,-0.191202 -0.532266,0 -0.899167,0.206705 -0.366902,0.201538 -0.366902,0.604612 0,0.356567 0.222208,0.537434 0.217041,0.180867 0.702798,0.294554 0.268716,0.06201 0.599444,0.124023 0.335896,0.06201 0.558104,0.113688 0.676959,0.155029 1.043861,0.532266 0.366901,0.382404 0.366901,1.012855 z"
         style="text-align:center;text-anchor:middle"
         id="path1401" />
      <path
         d="m 67.554551,90.093228 q 0,0.702797 -0.201538,1.286739 -0.201537,0.578774 -0.568439,0.981849 -0.341063,0.382404 -0.806149,0.594277 -0.459919,0.206705 -0.976682,0.206705 -0.449583,0 -0.816485,-0.09819 -0.361734,-0.09819 -0.73897,-0.30489 v 2.41845 h -0.971514 v -7.901302 h 0.971514 v 0.604613 q 0.387572,-0.325561 0.868161,-0.542601 0.485757,-0.222208 1.033525,-0.222208 1.043861,0 1.622635,0.790647 0.583942,0.785479 0.583942,2.185906 z m -1.00252,0.02584 q 0,-1.043861 -0.356566,-1.560623 -0.356566,-0.516763 -1.095537,-0.516763 -0.418578,0 -0.842323,0.180867 -0.423745,0.180867 -0.811317,0.475422 v 3.271107 q 0.41341,0.186035 0.707964,0.253214 0.299723,0.06718 0.676959,0.06718 0.811318,0 1.266069,-0.547768 0.454751,-0.547769 0.454751,-1.622636 z"
         style="text-align:center;text-anchor:middle"
         id="path1403" />
      <path
         d="m 73.900396,90.26376 h -4.252957 q 0,0.532265 0.160196,0.930172 0.160197,0.39274 0.439249,0.645954 0.268716,0.248046 0.635618,0.372069 0.372069,0.124023 0.816485,0.124023 0.589109,0 1.183386,-0.232543 0.599445,-0.237711 0.852659,-0.465087 h 0.05168 v 1.059364 q -0.490924,0.206705 -1.00252,0.346231 -0.511595,0.139526 -1.074866,0.139526 -1.4366,0 -2.24275,-0.775144 -0.80615,-0.780312 -0.80615,-2.211745 0,-1.415929 0.769977,-2.247917 0.775144,-0.831988 2.036045,-0.831988 1.167883,0 1.798334,0.682127 0.635618,0.682126 0.635618,1.93786 z M 72.95472,89.519621 q -0.0052,-0.764808 -0.387572,-1.183386 -0.377237,-0.418578 -1.152381,-0.418578 -0.780311,0 -1.245398,0.459919 -0.459918,0.459919 -0.52193,1.142045 z"
         style="text-align:center;text-anchor:middle"
         id="path1405" />
      <path
         d="m 79.641629,92.687377 q -0.485757,0.232543 -0.925005,0.361733 -0.434081,0.129191 -0.925005,0.129191 -0.625283,0 -1.147214,-0.180867 -0.52193,-0.186034 -0.893999,-0.558104 -0.377237,-0.372069 -0.583942,-0.940508 -0.206705,-0.568439 -0.206705,-1.32808 0,-1.415929 0.775144,-2.222079 0.780312,-0.80615 2.056716,-0.80615 0.496092,0 0.971513,0.139526 0.48059,0.139526 0.878497,0.341063 v 1.080034 h -0.05168 q -0.444416,-0.346231 -0.919838,-0.532265 -0.470254,-0.186035 -0.919837,-0.186035 -0.826821,0 -1.30741,0.558104 -0.475422,0.552936 -0.475422,1.627802 0,1.043861 0.465087,1.607132 0.470254,0.558104 1.317745,0.558104 0.294554,0 0.599444,-0.07751 0.30489,-0.07752 0.547769,-0.201538 0.211872,-0.10852 0.397907,-0.227376 0.186035,-0.124023 0.294555,-0.211872 h 0.05168 z"
         style="text-align:center;text-anchor:middle"
         id="path1407" />
      <path
         d="m 83.884252,92.997434 q -0.273885,0.07235 -0.599445,0.118856 -0.320393,0.04651 -0.573607,0.04651 -0.883664,0 -1.343583,-0.475421 -0.459918,-0.475422 -0.459918,-1.52445 V 88.093356 H 80.25141 v -0.816485 h 0.656289 v -1.658808 h 0.971513 v 1.658808 h 2.00504 v 0.816485 h -2.00504 v 2.630322 q 0,0.454752 0.02067,0.713133 0.02067,0.253214 0.144693,0.475422 0.113688,0.206705 0.310058,0.30489 0.201537,0.09302 0.60978,0.09302 0.237711,0 0.496092,-0.06718 0.258381,-0.07235 0.372069,-0.118856 h 0.05168 z"
         style="text-align:center;text-anchor:middle"
         id="path1409" />
      <path
         d="m 88.659141,88.336235 h -0.05168 q -0.21704,-0.05168 -0.423745,-0.07235 -0.201538,-0.02584 -0.480589,-0.02584 -0.449584,0 -0.868162,0.201537 -0.418577,0.19637 -0.80615,0.511595 v 4.097928 h -0.971513 v -5.772239 h 0.971513 v 0.852659 q 0.578775,-0.465087 1.018023,-0.656289 0.444416,-0.19637 0.904335,-0.19637 0.253213,0 0.366901,0.0155 0.113688,0.01033 0.341064,0.04651 z"
         style="text-align:center;text-anchor:middle"
         id="path1411" />
      <path
         d="m 93.873272,93.04911 h -0.966346 v -0.614947 q -0.129191,0.08785 -0.351399,0.248046 -0.21704,0.155029 -0.423745,0.248046 -0.242879,0.118855 -0.558104,0.19637 -0.315225,0.08268 -0.738971,0.08268 -0.780311,0 -1.322912,-0.516763 -0.542601,-0.516763 -0.542601,-1.317745 0,-0.656288 0.279052,-1.059363 0.284219,-0.408243 0.80615,-0.640786 0.527098,-0.232543 1.266068,-0.315225 0.738971,-0.08268 1.586462,-0.124023 v -0.149861 q 0,-0.330728 -0.118856,-0.547769 -0.113687,-0.21704 -0.330728,-0.341063 -0.206705,-0.118856 -0.496092,-0.160197 -0.289387,-0.04134 -0.604612,-0.04134 -0.382405,0 -0.852659,0.103353 -0.470254,0.09819 -0.971514,0.289387 h -0.05168 v -0.987017 q 0.28422,-0.07751 0.821653,-0.170531 0.537433,-0.09302 1.059363,-0.09302 0.60978,0 1.059364,0.103353 0.454751,0.09819 0.785479,0.341063 0.325561,0.237711 0.496092,0.614948 0.170532,0.377237 0.170532,0.93534 z m -0.966346,-1.421097 v -1.607132 q -0.444416,0.02584 -1.049029,0.07751 -0.599444,0.05168 -0.950843,0.149861 -0.418578,0.118855 -0.676959,0.372069 -0.258381,0.248046 -0.258381,0.687294 0,0.496092 0.299722,0.749306 0.299722,0.248046 0.91467,0.248046 0.511595,0 0.93534,-0.19637 0.423746,-0.201537 0.78548,-0.480589 z"
         style="text-align:center;text-anchor:middle"
         id="path1413" />
      <path
         d="m 96.725807,93.04911 h -0.971514 v -8.040827 h 0.971514 z"
         style="text-align:center;text-anchor:middle"
         id="path1415" />
      <path
         d="m 107.44863,90.119066 q 0,0.723468 -0.20671,1.302242 -0.20153,0.578774 -0.54777,0.971514 -0.3669,0.408242 -0.80615,0.614947 -0.43924,0.201538 -0.96634,0.201538 -0.49093,0 -0.85783,-0.118856 -0.3669,-0.113687 -0.72347,-0.310057 l -0.062,0.268716 h -0.9095 v -8.040827 h 0.97151 v 2.873201 q 0.40825,-0.335896 0.86817,-0.547769 0.45991,-0.21704 1.03352,-0.21704 1.02319,0 1.6123,0.785479 0.59428,0.785479 0.59428,2.216912 z m -1.00252,0.02584 q 0,-1.033525 -0.34106,-1.565791 -0.34107,-0.537433 -1.10071,-0.537433 -0.42374,0 -0.85783,0.186035 -0.43408,0.180867 -0.80615,0.470254 v 3.307281 q 0.41341,0.186034 0.70797,0.258381 0.29972,0.07235 0.67696,0.07235 0.80615,0 1.2609,-0.527098 0.45992,-0.532266 0.45992,-1.663976 z"
         style="text-align:center;text-anchor:middle"
         id="path1417" />
      <path
         d="m 113.79448,90.26376 h -4.25296 q 0,0.532265 0.1602,0.930172 0.16019,0.39274 0.43924,0.645954 0.26872,0.248046 0.63562,0.372069 0.37207,0.124023 0.81649,0.124023 0.58911,0 1.18338,-0.232543 0.59945,-0.237711 0.85266,-0.465087 h 0.0517 v 1.059364 q -0.49093,0.206705 -1.00252,0.346231 -0.5116,0.139526 -1.07487,0.139526 -1.4366,0 -2.24275,-0.775144 -0.80615,-0.780312 -0.80615,-2.211745 0,-1.415929 0.76998,-2.247917 0.77514,-0.831988 2.03604,-0.831988 1.16789,0 1.79834,0.682127 0.63562,0.682126 0.63562,1.93786 z m -0.94568,-0.744139 q -0.005,-0.764808 -0.38757,-1.183386 -0.37724,-0.418578 -1.15238,-0.418578 -0.78031,0 -1.2454,0.459919 -0.45992,0.459919 -0.52193,1.142045 z"
         style="text-align:center;text-anchor:middle"
         id="path1419" />
      <path
         d="M 120.09381,93.04911 H 119.1223 V 89.7625 q 0,-0.397907 -0.0465,-0.744138 -0.0465,-0.351399 -0.17053,-0.547769 -0.12919,-0.21704 -0.37207,-0.320393 -0.24288,-0.10852 -0.63045,-0.10852 -0.39791,0 -0.83199,0.19637 -0.43408,0.19637 -0.83199,0.50126 v 4.3098 h -0.97151 v -5.772239 h 0.97151 v 0.640786 q 0.45476,-0.377237 0.94051,-0.589109 0.48576,-0.211873 0.99735,-0.211873 0.93534,0 1.42627,0.563271 0.49092,0.563272 0.49092,1.622635 z"
         style="text-align:center;text-anchor:middle"
         id="path1421" />
      <path
         d="m 126.23295,92.687377 q -0.48575,0.232543 -0.925,0.361733 -0.43408,0.129191 -0.92501,0.129191 -0.62528,0 -1.14721,-0.180867 -0.52193,-0.186034 -0.894,-0.558104 -0.37724,-0.372069 -0.58394,-0.940508 -0.20671,-0.568439 -0.20671,-1.32808 0,-1.415929 0.77515,-2.222079 0.78031,-0.80615 2.05671,-0.80615 0.49609,0 0.97152,0.139526 0.48059,0.139526 0.87849,0.341063 v 1.080034 h -0.0517 q -0.44442,-0.346231 -0.91984,-0.532265 -0.47026,-0.186035 -0.91984,-0.186035 -0.82682,0 -1.30741,0.558104 -0.47542,0.552936 -0.47542,1.627802 0,1.043861 0.46509,1.607132 0.47025,0.558104 1.31774,0.558104 0.29456,0 0.59945,-0.07751 0.30489,-0.07752 0.54776,-0.201538 0.21188,-0.10852 0.39791,-0.227376 0.18604,-0.124023 0.29456,-0.211872 h 0.0517 z"
         style="text-align:center;text-anchor:middle"
         id="path1423" />
      <path
         d="M 132.30491,93.04911 H 131.3334 V 89.7625 q 0,-0.397907 -0.0465,-0.744138 -0.0465,-0.351399 -0.17053,-0.547769 -0.12919,-0.21704 -0.37207,-0.320393 -0.24288,-0.10852 -0.63045,-0.10852 -0.39791,0 -0.83199,0.19637 -0.43408,0.19637 -0.83199,0.50126 v 4.3098 h -0.97151 v -8.040827 h 0.97151 v 2.909374 q 0.45475,-0.377237 0.94051,-0.589109 0.48576,-0.211873 0.99735,-0.211873 0.93534,0 1.42627,0.563271 0.49092,0.563272 0.49092,1.622635 z"
         style="text-align:center;text-anchor:middle"
         id="path1425" />
      <path
         d="m 142.59883,93.04911 h -0.97151 V 89.7625 q 0,-0.372069 -0.0362,-0.7183 -0.031,-0.346231 -0.13952,-0.552936 -0.11886,-0.222208 -0.34107,-0.335896 -0.2222,-0.113688 -0.64078,-0.113688 -0.40824,0 -0.81649,0.206705 -0.40824,0.201538 -0.81648,0.516763 0.0155,0.118855 0.0258,0.279052 0.0103,0.155028 0.0103,0.310057 v 3.694853 h -0.97151 V 89.7625 q 0,-0.382405 -0.0362,-0.723468 -0.031,-0.346231 -0.13952,-0.552936 -0.11886,-0.222208 -0.34107,-0.330728 -0.2222,-0.113688 -0.64078,-0.113688 -0.39791,0 -0.80098,0.19637 -0.39791,0.19637 -0.79582,0.50126 v 4.3098 h -0.97151 v -5.772239 h 0.97151 v 0.640786 q 0.45475,-0.377237 0.90434,-0.589109 0.45475,-0.211873 0.96634,-0.211873 0.58911,0 0.99736,0.248046 0.41341,0.248046 0.61494,0.687294 0.58911,-0.496092 1.07487,-0.713132 0.48576,-0.222208 1.03869,-0.222208 0.95085,0 1.40043,0.578774 0.45475,0.573607 0.45475,1.607132 z"
         style="text-align:center;text-anchor:middle"
         id="path1427" />
      <path
         d="m 148.95501,93.04911 h -0.96635 v -0.614947 q -0.12919,0.08785 -0.3514,0.248046 -0.21704,0.155029 -0.42374,0.248046 -0.24288,0.118855 -0.55811,0.19637 -0.31522,0.08268 -0.73897,0.08268 -0.78031,0 -1.32291,-0.516763 -0.5426,-0.516763 -0.5426,-1.317745 0,-0.656288 0.27905,-1.059363 0.28422,-0.408243 0.80615,-0.640786 0.5271,-0.232543 1.26607,-0.315225 0.73897,-0.08268 1.58646,-0.124023 v -0.149861 q 0,-0.330728 -0.11886,-0.547769 -0.11368,-0.21704 -0.33072,-0.341063 -0.20671,-0.118856 -0.4961,-0.160197 -0.28938,-0.04134 -0.60461,-0.04134 -0.3824,0 -0.85266,0.103353 -0.47025,0.09819 -0.97151,0.289387 h -0.0517 v -0.987017 q 0.28422,-0.07751 0.82166,-0.170531 0.53743,-0.09302 1.05936,-0.09302 0.60978,0 1.05936,0.103353 0.45475,0.09819 0.78548,0.341063 0.32556,0.237711 0.49609,0.614948 0.17054,0.377237 0.17054,0.93534 z m -0.96635,-1.421097 v -1.607132 q -0.44442,0.02584 -1.04903,0.07751 -0.59944,0.05168 -0.95084,0.149861 -0.41858,0.118855 -0.67696,0.372069 -0.25838,0.248046 -0.25838,0.687294 0,0.496092 0.29972,0.749306 0.29972,0.248046 0.91467,0.248046 0.51159,0 0.93534,-0.19637 0.42375,-0.201537 0.78548,-0.480589 z"
         style="text-align:center;text-anchor:middle"
         id="path1429" />
      <path
         d="m 154.42753,88.336235 h -0.0517 q -0.21704,-0.05168 -0.42374,-0.07235 -0.20154,-0.02584 -0.48059,-0.02584 -0.44959,0 -0.86816,0.201537 -0.41858,0.19637 -0.80615,0.511595 v 4.097928 h -0.97152 v -5.772239 h 0.97152 v 0.852659 q 0.57877,-0.465087 1.01802,-0.656289 0.44441,-0.19637 0.90433,-0.19637 0.25322,0 0.3669,0.0155 0.11369,0.01033 0.34107,0.04651 z"
         style="text-align:center;text-anchor:middle"
         id="path1431" />
      <path
         d="m 160.58218,93.04911 h -1.28158 l -2.31509,-2.526969 -0.63045,0.599445 v 1.927524 h -0.97152 v -8.040827 h 0.97152 v 5.157292 l 2.80602,-2.888704 h 1.22473 l -2.682,2.666496 z"
         style="text-align:center;text-anchor:middle"
         id="path1433" />
      <path
         d="m 33.990815,106.27823 h -0.971514 v -0.60461 q -0.418578,0.36174 -0.873329,0.56327 -0.454751,0.20154 -0.987017,0.20154 -1.033525,0 -1.643305,-0.79581 -0.604612,-0.79582 -0.604612,-2.20658 0,-0.7338 0.206705,-1.30741 0.211873,-0.57361 0.568439,-0.97668 0.351398,-0.39274 0.816485,-0.59945 0.470254,-0.2067 0.971514,-0.2067 0.454751,0 0.806149,0.0982 0.351399,0.093 0.738971,0.29456 v -2.501132 h 0.971514 z m -0.971514,-1.42109 v -3.31245 q -0.39274,-0.1757 -0.702797,-0.24288 -0.310058,-0.0672 -0.676959,-0.0672 -0.816485,0 -1.271236,0.56844 -0.454752,0.56844 -0.454752,1.6123 0,1.02836 0.351399,1.56579 0.351399,0.53227 1.126543,0.53227 0.41341,0 0.837155,-0.18087 0.423746,-0.18604 0.790647,-0.47542 z"
         style="text-align:center;text-anchor:middle"
         id="path1435" />
      <path
         d="M 40.388337,106.27823 H 39.42199 v -0.61494 q -0.12919,0.0879 -0.351398,0.24804 -0.21704,0.15503 -0.423746,0.24805 -0.242878,0.11885 -0.558103,0.19637 -0.315225,0.0827 -0.738971,0.0827 -0.780311,0 -1.322912,-0.51676 -0.542601,-0.51676 -0.542601,-1.31775 0,-0.65628 0.279052,-1.05936 0.284219,-0.40824 0.80615,-0.64079 0.527097,-0.23254 1.266068,-0.31522 0.738971,-0.0827 1.586461,-0.12402 v -0.14986 q 0,-0.33073 -0.118855,-0.54777 -0.113688,-0.21704 -0.330728,-0.34107 -0.206705,-0.11885 -0.496092,-0.16019 -0.289387,-0.0413 -0.604613,-0.0413 -0.382404,0 -0.852658,0.10335 -0.470254,0.0982 -0.971514,0.28939 h -0.05168 v -0.98702 q 0.284219,-0.0775 0.821653,-0.17053 0.537433,-0.093 1.059363,-0.093 0.60978,0 1.059364,0.10335 0.454751,0.0982 0.785479,0.34107 0.32556,0.23771 0.496092,0.61494 0.170532,0.37724 0.170532,0.93534 z m -0.966347,-1.42109 v -1.60713 q -0.444415,0.0258 -1.049028,0.0775 -0.599444,0.0517 -0.950843,0.14986 -0.418578,0.11886 -0.676959,0.37207 -0.258382,0.24805 -0.258382,0.68729 0,0.4961 0.299723,0.74931 0.299722,0.24805 0.91467,0.24805 0.511595,0 0.93534,-0.19637 0.423746,-0.20154 0.785479,-0.48059 z"
         style="text-align:center;text-anchor:middle"
         id="path1437" />
      <path
         d="m 45.256242,106.22656 q -0.273884,0.0724 -0.599445,0.11885 -0.320393,0.0465 -0.573606,0.0465 -0.883665,0 -1.343583,-0.47542 -0.459919,-0.47542 -0.459919,-1.52445 v -3.06957 H 41.6234 V 100.506 h 0.656289 v -1.658812 h 0.971514 V 100.506 h 2.005039 v 0.81648 h -2.005039 v 2.63032 q 0,0.45475 0.02067,0.71314 0.02067,0.25321 0.144694,0.47542 0.113687,0.2067 0.310057,0.30489 0.201538,0.093 0.60978,0.093 0.237711,0 0.496092,-0.0672 0.258382,-0.0724 0.37207,-0.11886 h 0.05168 z"
         style="text-align:center;text-anchor:middle"
         id="path1439" />
      <path
         d="m 50.914793,106.27823 h -0.966346 v -0.61494 q -0.129191,0.0879 -0.351399,0.24804 -0.21704,0.15503 -0.423745,0.24805 -0.242879,0.11885 -0.558104,0.19637 -0.315225,0.0827 -0.73897,0.0827 -0.780312,0 -1.322913,-0.51676 -0.542601,-0.51676 -0.542601,-1.31775 0,-0.65628 0.279052,-1.05936 0.28422,-0.40824 0.80615,-0.64079 0.527098,-0.23254 1.266068,-0.31522 0.738971,-0.0827 1.586462,-0.12402 v -0.14986 q 0,-0.33073 -0.118856,-0.54777 -0.113687,-0.21704 -0.330728,-0.34107 -0.206705,-0.11885 -0.496092,-0.16019 -0.289387,-0.0413 -0.604612,-0.0413 -0.382405,0 -0.852659,0.10335 -0.470254,0.0982 -0.971513,0.28939 h -0.05168 v -0.98702 q 0.28422,-0.0775 0.821653,-0.17053 0.537433,-0.093 1.059363,-0.093 0.60978,0 1.059364,0.10335 0.454751,0.0982 0.785479,0.34107 0.325561,0.23771 0.496092,0.61494 0.170532,0.37724 0.170532,0.93534 z m -0.966346,-1.42109 v -1.60713 q -0.444416,0.0258 -1.049028,0.0775 -0.599445,0.0517 -0.950844,0.14986 -0.418577,0.11886 -0.676959,0.37207 -0.258381,0.24805 -0.258381,0.68729 0,0.4961 0.299722,0.74931 0.299723,0.24805 0.91467,0.24805 0.511595,0 0.935341,-0.19637 0.423745,-0.20154 0.785479,-0.48059 z"
         style="text-align:center;text-anchor:middle"
         id="path1441" />
      <path
         d="m 56.909239,104.61426 q 0,0.79065 -0.656288,1.29707 -0.651121,0.50643 -1.782831,0.50643 -0.640786,0 -1.178219,-0.14986 -0.532266,-0.15503 -0.894,-0.3359 v -1.09037 h 0.05168 q 0.459919,0.34624 1.023191,0.55294 0.563271,0.20154 1.080034,0.20154 0.640785,0 1.002519,-0.20671 0.361734,-0.2067 0.361734,-0.65112 0,-0.34106 -0.19637,-0.51676 -0.19637,-0.1757 -0.754473,-0.29972 -0.206705,-0.0465 -0.542601,-0.10852 -0.330728,-0.062 -0.604612,-0.13436 -0.759642,-0.20154 -1.080034,-0.58911 -0.315226,-0.39274 -0.315226,-0.96118 0,-0.35657 0.144694,-0.67179 0.149861,-0.31523 0.449583,-0.56327 0.289387,-0.24288 0.733803,-0.38241 0.449584,-0.14469 1.00252,-0.14469 0.516763,0 1.043861,0.12919 0.532265,0.12402 0.883664,0.30489 v 1.03869 h -0.05168 q -0.37207,-0.27388 -0.904335,-0.45992 -0.532266,-0.1912 -1.043861,-0.1912 -0.532265,0 -0.899167,0.20671 -0.366901,0.20154 -0.366901,0.60461 0,0.35657 0.222208,0.53743 0.21704,0.18087 0.702797,0.29456 0.268716,0.062 0.599445,0.12402 0.335895,0.062 0.558103,0.11369 0.676959,0.15503 1.043861,0.53226 0.366901,0.38241 0.366901,1.01286 z"
         style="text-align:center;text-anchor:middle"
         id="path1443" />
      <path
         d="m 63.131063,103.49288 h -4.252957 q 0,0.53227 0.160197,0.93018 0.160196,0.39274 0.439248,0.64595 0.268716,0.24805 0.635618,0.37207 0.372069,0.12402 0.816485,0.12402 0.589109,0 1.183387,-0.23254 0.599444,-0.23771 0.852658,-0.46509 h 0.05168 v 1.05937 q -0.490924,0.2067 -1.002519,0.34623 -0.511595,0.13952 -1.074867,0.13952 -1.4366,0 -2.24275,-0.77514 -0.80615,-0.78031 -0.80615,-2.21175 0,-1.41592 0.769977,-2.24791 0.775144,-0.83199 2.036045,-0.83199 1.167883,0 1.798334,0.68213 0.635618,0.68212 0.635618,1.93786 z m -0.945676,-0.74413 q -0.0052,-0.76481 -0.387572,-1.18339 -0.377236,-0.41858 -1.15238,-0.41858 -0.780312,0 -1.245399,0.45992 -0.459918,0.45992 -0.52193,1.14205 z"
         style="text-align:center;text-anchor:middle"
         id="path1445" />
      <path
         d="m 67.60106,106.22656 q -0.273884,0.0724 -0.599445,0.11885 -0.320393,0.0465 -0.573606,0.0465 -0.883665,0 -1.343583,-0.47542 -0.459919,-0.47542 -0.459919,-1.52445 v -3.06957 H 63.968218 V 100.506 h 0.656289 v -1.658812 h 0.971514 V 100.506 h 2.005039 v 0.81648 h -2.005039 v 2.63032 q 0,0.45475 0.02067,0.71314 0.02067,0.25321 0.144694,0.47542 0.113688,0.2067 0.310057,0.30489 0.201538,0.093 0.60978,0.093 0.237711,0 0.496093,-0.0672 0.258381,-0.0724 0.372069,-0.11886 h 0.05168 z"
         style="text-align:center;text-anchor:middle"
         id="path1447" />
      <path
         d="m 77.414382,103.3947 q 0,1.41076 -0.723468,2.22725 -0.723468,0.81648 -1.93786,0.81648 -1.224728,0 -1.948196,-0.81648 -0.7183,-0.81649 -0.7183,-2.22725 0,-1.41076 0.7183,-2.22725 0.723468,-0.82165 1.948196,-0.82165 1.214392,0 1.93786,0.82165 0.723468,0.81649 0.723468,2.22725 z m -1.00252,0 q 0,-1.12138 -0.439248,-1.66398 -0.439249,-0.54777 -1.21956,-0.54777 -0.790647,0 -1.229895,0.54777 -0.434081,0.5426 -0.434081,1.66398 0,1.0852 0.439248,1.64847 0.439249,0.55811 1.224728,0.55811 0.775144,0 1.214392,-0.55294 0.444416,-0.5581 0.444416,-1.65364 z"
         style="text-align:center;text-anchor:middle"
         id="path1449" />
      <path
         d="m 83.744727,106.27823 h -0.971514 v -3.28661 q 0,-0.3979 -0.04651,-0.74413 -0.04651,-0.3514 -0.170532,-0.54777 -0.129191,-0.21704 -0.372069,-0.3204 -0.242879,-0.10852 -0.630451,-0.10852 -0.397907,0 -0.831988,0.19637 -0.43408,0.19637 -0.831988,0.50126 v 4.3098 H 78.918164 V 100.506 h 0.971513 v 0.64078 q 0.454752,-0.37724 0.940509,-0.58911 0.485756,-0.21187 0.997351,-0.21187 0.935341,0 1.426265,0.56327 0.490925,0.56327 0.490925,1.62264 z"
         style="text-align:center;text-anchor:middle"
         id="path1451" />
      <path
         d="m 93.459864,104.61426 q 0,0.79065 -0.656288,1.29707 -0.651121,0.50643 -1.782832,0.50643 -0.640785,0 -1.178219,-0.14986 -0.532265,-0.15503 -0.893999,-0.3359 v -1.09037 h 0.05168 q 0.459919,0.34624 1.02319,0.55294 0.563272,0.20154 1.080034,0.20154 0.640786,0 1.00252,-0.20671 0.361734,-0.2067 0.361734,-0.65112 0,-0.34106 -0.19637,-0.51676 -0.19637,-0.1757 -0.754473,-0.29972 -0.206706,-0.0465 -0.542601,-0.10852 -0.330728,-0.062 -0.604613,-0.13436 -0.759641,-0.20154 -1.080034,-0.58911 -0.315225,-0.39274 -0.315225,-0.96118 0,-0.35657 0.144694,-0.67179 0.149861,-0.31523 0.449583,-0.56327 0.289387,-0.24288 0.733803,-0.38241 0.449584,-0.14469 1.00252,-0.14469 0.516763,0 1.04386,0.12919 0.532266,0.12402 0.883665,0.30489 v 1.03869 h -0.05168 q -0.372069,-0.27388 -0.904334,-0.45992 -0.532266,-0.1912 -1.043861,-0.1912 -0.532265,0 -0.899167,0.20671 -0.366901,0.20154 -0.366901,0.60461 0,0.35657 0.222207,0.53743 0.217041,0.18087 0.702798,0.29456 0.268716,0.062 0.599444,0.12402 0.335896,0.062 0.558104,0.11369 0.676959,0.15503 1.043861,0.53226 0.366901,0.38241 0.3669,1.01286 z"
         style="text-align:center;text-anchor:middle"
         id="path1453" />
      <path
         d="m 99.769534,103.3947 q 0,1.41076 -0.723468,2.22725 -0.723468,0.81648 -1.93786,0.81648 -1.224728,0 -1.948195,-0.81648 -0.7183,-0.81649 -0.7183,-2.22725 0,-1.41076 0.7183,-2.22725 0.723467,-0.82165 1.948195,-0.82165 1.214392,0 1.93786,0.82165 0.723468,0.81649 0.723468,2.22725 z m -1.00252,0 q 0,-1.12138 -0.439248,-1.66398 -0.439248,-0.54777 -1.21956,-0.54777 -0.790647,0 -1.229895,0.54777 -0.434081,0.5426 -0.434081,1.66398 0,1.0852 0.439248,1.64847 0.439249,0.55811 1.224728,0.55811 0.775144,0 1.214392,-0.55294 0.444416,-0.5581 0.444416,-1.65364 z"
         style="text-align:center;text-anchor:middle"
         id="path1455" />
      <path
         d="m 102.31718,99.53965 h -1.09554 v -1.007688 h 1.09554 z m -0.062,6.73858 h -0.97151 V 100.506 h 0.97151 z"
         style="text-align:center;text-anchor:middle"
         id="path1457" />
      <path
         d="m 105.15937,106.27823 h -0.97151 v -8.040822 h 0.97151 z"
         style="text-align:center;text-anchor:middle"
         id="path1459" />
      <path
         d="m 119.22565,106.27823 h -0.97151 v -3.28661 q 0,-0.37206 -0.0362,-0.7183 -0.031,-0.34623 -0.13953,-0.55293 -0.11886,-0.22221 -0.34106,-0.3359 -0.22221,-0.11369 -0.64079,-0.11369 -0.40824,0 -0.81648,0.20671 -0.40825,0.20154 -0.81649,0.51676 0.0155,0.11886 0.0258,0.27905 0.0103,0.15503 0.0103,0.31006 v 3.69485 h -0.97151 v -3.28661 q 0,-0.3824 -0.0362,-0.72346 -0.031,-0.34623 -0.13953,-0.55294 -0.11885,-0.22221 -0.34106,-0.33073 -0.22221,-0.11369 -0.64079,-0.11369 -0.3979,0 -0.80098,0.19637 -0.39791,0.19637 -0.79581,0.50126 v 4.3098 h -0.97152 V 100.506 h 0.97152 v 0.64078 q 0.45475,-0.37724 0.90433,-0.58911 0.45475,-0.21187 0.96635,-0.21187 0.58911,0 0.99735,0.24805 0.41341,0.24804 0.61495,0.68729 0.58911,-0.49609 1.07486,-0.71313 0.48576,-0.22221 1.0387,-0.22221 0.95084,0 1.40042,0.57877 0.45475,0.57361 0.45475,1.60714 z"
         style="text-align:center;text-anchor:middle"
         id="path1461" />
      <path
         d="m 126.01591,103.3947 q 0,1.41076 -0.72347,2.22725 -0.72347,0.81648 -1.93786,0.81648 -1.22473,0 -1.94819,-0.81648 -0.7183,-0.81649 -0.7183,-2.22725 0,-1.41076 0.7183,-2.22725 0.72346,-0.82165 1.94819,-0.82165 1.21439,0 1.93786,0.82165 0.72347,0.81649 0.72347,2.22725 z m -1.00252,0 q 0,-1.12138 -0.43925,-1.66398 -0.43925,-0.54777 -1.21956,-0.54777 -0.79064,0 -1.22989,0.54777 -0.43408,0.5426 -0.43408,1.66398 0,1.0852 0.43924,1.64847 0.43925,0.55811 1.22473,0.55811 0.77515,0 1.21439,-0.55294 0.44442,-0.5581 0.44442,-1.65364 z"
         style="text-align:center;text-anchor:middle"
         id="path1463" />
      <path
         d="m 128.56355,99.53965 h -1.09553 v -1.007688 h 1.09553 z m -0.062,6.73858 h -0.97151 V 100.506 h 0.97151 z"
         style="text-align:center;text-anchor:middle"
         id="path1465" />
      <path
         d="m 134.54766,104.61426 q 0,0.79065 -0.65629,1.29707 -0.65112,0.50643 -1.78283,0.50643 -0.64078,0 -1.17822,-0.14986 -0.53226,-0.15503 -0.89399,-0.3359 v -1.09037 h 0.0517 q 0.45992,0.34624 1.02319,0.55294 0.56327,0.20154 1.08004,0.20154 0.64078,0 1.00252,-0.20671 0.36173,-0.2067 0.36173,-0.65112 0,-0.34106 -0.19637,-0.51676 -0.19637,-0.1757 -0.75447,-0.29972 -0.20671,-0.0465 -0.54261,-0.10852 -0.33072,-0.062 -0.60461,-0.13436 -0.75964,-0.20154 -1.08003,-0.58911 -0.31523,-0.39274 -0.31523,-0.96118 0,-0.35657 0.1447,-0.67179 0.14986,-0.31523 0.44958,-0.56327 0.28939,-0.24288 0.7338,-0.38241 0.44959,-0.14469 1.00252,-0.14469 0.51677,0 1.04386,0.12919 0.53227,0.12402 0.88367,0.30489 v 1.03869 h -0.0517 q -0.37207,-0.27388 -0.90433,-0.45992 -0.53227,-0.1912 -1.04386,-0.1912 -0.53227,0 -0.89917,0.20671 -0.3669,0.20154 -0.3669,0.60461 0,0.35657 0.22221,0.53743 0.21704,0.18087 0.70279,0.29456 0.26872,0.062 0.59945,0.12402 0.33589,0.062 0.5581,0.11369 0.67696,0.15503 1.04386,0.53226 0.3669,0.38241 0.3669,1.01286 z"
         style="text-align:center;text-anchor:middle"
         id="path1467" />
      <path
         d="m 138.93498,106.22656 q -0.27388,0.0724 -0.59944,0.11885 -0.32039,0.0465 -0.57361,0.0465 -0.88366,0 -1.34358,-0.47542 -0.45992,-0.47542 -0.45992,-1.52445 v -3.06957 h -0.65629 V 100.506 h 0.65629 v -1.658812 h 0.97151 V 100.506 h 2.00504 v 0.81648 h -2.00504 v 2.63032 q 0,0.45475 0.0207,0.71314 0.0207,0.25321 0.1447,0.47542 0.11369,0.2067 0.31006,0.30489 0.20153,0.093 0.60978,0.093 0.23771,0 0.49609,-0.0672 0.25838,-0.0724 0.37207,-0.11886 h 0.0517 z"
         style="text-align:center;text-anchor:middle"
         id="path1469" />
      <path
         d="m 144.89325,106.27823 h -0.97151 v -0.64078 q -0.49092,0.38757 -0.94051,0.59428 -0.44958,0.2067 -0.99218,0.2067 -0.9095,0 -1.41593,-0.55293 -0.50643,-0.55811 -0.50643,-1.63297 V 100.506 h 0.97152 v 3.28661 q 0,0.43924 0.0413,0.75447 0.0413,0.31006 0.1757,0.53227 0.13952,0.22737 0.36173,0.33072 0.22221,0.10336 0.64595,0.10336 0.37724,0 0.82166,-0.19637 0.44958,-0.19637 0.83715,-0.50126 v -4.3098 h 0.97151 z"
         style="text-align:center;text-anchor:middle"
         id="path1471" />
      <path
         d="m 150.40711,101.56536 h -0.0517 q -0.21704,-0.0517 -0.42374,-0.0724 -0.20154,-0.0258 -0.48059,-0.0258 -0.44958,0 -0.86816,0.20154 -0.41858,0.19637 -0.80615,0.5116 v 4.09792 h -0.97151 V 100.506 h 0.97151 v 0.85265 q 0.57877,-0.46508 1.01802,-0.65628 0.44442,-0.19637 0.90434,-0.19637 0.25321,0 0.3669,0.0155 0.11369,0.0103 0.34106,0.0465 z"
         style="text-align:center;text-anchor:middle"
         id="path1473" />
      <path
         d="m 156.15351,103.49288 h -4.25296 q 0,0.53227 0.1602,0.93018 0.16019,0.39274 0.43925,0.64595 0.26871,0.24805 0.63561,0.37207 0.37207,0.12402 0.81649,0.12402 0.58911,0 1.18339,-0.23254 0.59944,-0.23771 0.85265,-0.46509 h 0.0517 v 1.05937 q -0.49092,0.2067 -1.00252,0.34623 -0.51159,0.13952 -1.07487,0.13952 -1.4366,0 -2.24275,-0.77514 -0.80614,-0.78031 -0.80614,-2.21175 0,-1.41592 0.76997,-2.24791 0.77515,-0.83199 2.03605,-0.83199 1.16788,0 1.79833,0.68213 0.63562,0.68212 0.63562,1.93786 z m -0.94568,-0.74413 q -0.005,-0.76481 -0.38757,-1.18339 -0.37724,-0.41858 -1.15238,-0.41858 -0.78031,0 -1.2454,0.45992 -0.45992,0.45992 -0.52193,1.14205 z"
         style="text-align:center;text-anchor:middle"
         id="path1475" />
    </g>
  </g>
</svg>
