<?xml version="1.0" encoding="UTF-8" standalone="no"?>
<!-- Created with Inkscape (http://www.inkscape.org/) -->

<svg
   version="1.1"
   id="svg2"
   width="104"
   height="73.333336"
   viewBox="0 0 104 73.333336"
   sodipodi:docname="Iceberg Locations.eps"
   xmlns:inkscape="http://www.inkscape.org/namespaces/inkscape"
   xmlns:sodipodi="http://sodipodi.sourceforge.net/DTD/sodipodi-0.dtd"
   xmlns="http://www.w3.org/2000/svg"
   xmlns:svg="http://www.w3.org/2000/svg">
  <defs
     id="defs6">
    <clipPath
       clipPathUnits="userSpaceOnUse"
       id="clipPath18">
      <path
         d="M 0,150 V 550 H 774 V 150 Z"
         id="path16" />
    </clipPath>
  </defs>
  <sodipodi:namedview
     id="namedview4"
     pagecolor="#ffffff"
     bordercolor="#000000"
     borderopacity="0.25"
     inkscape:showpageshadow="2"
     inkscape:pageopacity="0.0"
     inkscape:pagecheckerboard="0"
     inkscape:deskcolor="#d1d1d1" />
  <g
     id="g8"
     inkscape:groupmode="layer"
     inkscape:label="ink_ext_XXXXXX"
     transform="matrix(1.3333333,0,0,-1.3333333,0,73.333333)">
    <g
       id="g10"
       transform="scale(0.1)">
      <g
         id="g12">
        <g
           id="g14"
           clip-path="url(#clipPath18)">
          <path
             d="m 24.7695,313.012 c 10.461,0 16.4805,-5.282 16.4805,-13.524 v -2.218 c 0,-6.758 -3.75,-9.77 -8.9805,-11.25 5.9688,-1.532 9.7188,-5.282 9.7188,-12.04 v -2.96 c 0,-9.032 -5.9688,-13.52 -16.4766,-13.52 H 0 v 56.25 H 24.7695 Z M 11.9883,288.98 H 22.5 c 4.4883,0 7.5,2.27 7.5,6.02 v 3.012 c 0,3.75 -2.2695,5.226 -6.7617,5.226 h -11.25 z m 0,-23.242 h 11.25 c 4.4922,0 6.7617,2.274 6.7617,6.024 v 3.008 c 0,3.75 -2.2695,5.968 -6.7617,5.968 h -11.25 z"
             style="fill:#002f5d;fill-opacity:1;fill-rule:nonzero;stroke:none"
             id="path20" />
          <path
             d="M 75.7383,256.762 H 63.75 v 56.25 h 24.7695 c 11.9925,0 17.9605,-6.024 17.9605,-15.742 v -4.54 c 0,-6.71 -3.75,-11.992 -10.4605,-14.21 L 108.012,256.762 H 95.2305 l -11.25,20.226 h -8.2422 z m 0,30 h 9.7734 c 5.9688,0 8.2383,2.218 8.2383,6.758 v 2.96 c 0,4.54 -2.2695,6.758 -8.2383,6.758 h -9.7734 z"
             style="fill:#002f5d;fill-opacity:1;fill-rule:nonzero;stroke:none"
             id="path22" />
          <path
             d="m 128.98,256.762 h 12.0313 v 56.25 H 128.98 Z"
             style="fill:#002f5d;fill-opacity:1;fill-rule:nonzero;stroke:none"
             id="path24" />
          <path
             d="M 207.73,295.738 V 293.52 H 195.738 V 295 c 0,6.02 -3.008,8.98 -9.718,8.98 -7.5,0 -11.25,-5.23 -11.25,-12.73 v -12.73 c 0,-8.29 4.492,-12.782 11.25,-12.782 5.968,0 10.46,3.75 10.46,10.512 v 2.27 h -10.46 v 8.242 h 21.71 v -30 H 202.5 L 201.02,265 c -3.008,-5.23 -7.5,-9.77 -16.532,-9.77 -12.726,0 -20.968,9.032 -20.968,22.5 v 12.782 c 0,13.468 8.98,23.238 23.242,23.238 13.468,0 20.968,-6.762 20.968,-18.012"
             style="fill:#002f5d;fill-opacity:1;fill-rule:nonzero;stroke:none"
             id="path26" />
          <path
             d="m 263.98,290.512 v 22.5 h 12.04 v -56.25 H 263.98 V 280 h -20.23 v -23.238 h -11.988 v 56.25 h 11.988 v -22.5 z"
             style="fill:#002f5d;fill-opacity:1;fill-rule:nonzero;stroke:none"
             id="path28" />
          <path
             d="M 330.738,267.27 H 310.512 L 307.5,256.762 h -11.988 l 18.75,56.25 h 13.468 l 18.75,-56.25 h -12.73 z m -17.218,8.98 h 14.21 l -6.71,23.238 z"
             style="fill:#002f5d;fill-opacity:1;fill-rule:nonzero;stroke:none"
             id="path30" />
          <path
             d="m 396.762,273.98 12.726,39.032 h 17.274 v -56.25 h -11.25 v 41.988 h -0.742 l -13.52,-41.988 h -9.77 l -14.21,41.988 v -41.988 h -10.508 v 56.25 h 17.218 z"
             style="fill:#002f5d;fill-opacity:1;fill-rule:nonzero;stroke:none"
             id="path32" />
          <path
             d="m 511.48,313.012 h 12.782 L 505.512,277.73 V 256.762 H 493.52 v 20.968 l -18.75,35.282 h 13.468 l 11.25,-24.032 z"
             style="fill:#002f5d;fill-opacity:1;fill-rule:nonzero;stroke:none"
             id="path34" />
          <path
             d="m 582.73,290.512 v -11.25 c 0,-15.742 -8.98,-24.032 -23.98,-24.032 -14.262,0 -23.98,8.29 -23.98,24.032 v 11.25 c 0,15.738 8.98,23.976 23.98,23.976 14.262,-0.738 23.98,-8.976 23.98,-23.976 m -35.23,0 V 278.52 c 0,-9.032 4.488,-13.52 11.25,-13.52 7.5,0 11.25,3.75 11.25,13.52 v 11.992 c 0,8.976 -4.488,13.468 -11.25,13.468 -7.5,0 -11.25,-4.492 -11.25,-13.468"
             style="fill:#002f5d;fill-opacity:1;fill-rule:nonzero;stroke:none"
             id="path36" />
          <path
             d="m 611.988,313.012 v -36.024 c 0,-6.758 3.75,-10.508 9.774,-10.508 6.758,0 9.718,3.75 9.718,10.508 v 36.024 h 11.25 v -36.024 c 0,-13.468 -7.5,-21.758 -21.71,-21.758 -15,0 -21.758,7.5 -21.758,21.758 v 36.024 z"
             style="fill:#002f5d;fill-opacity:1;fill-rule:nonzero;stroke:none"
             id="path38" />
          <path
             d="m 698.238,276.988 v 36.024 h 11.25 v -56.25 H 697.5 L 675.738,292.73 H 675 l 0.738,-35.968 h -11.25 v 56.25 h 11.992 z"
             style="fill:#002f5d;fill-opacity:1;fill-rule:nonzero;stroke:none"
             id="path40" />
          <path
             d="M 773.238,295.738 V 293.52 H 761.25 V 295 c 0,6.02 -3.012,8.98 -9.77,8.98 -7.5,0 -11.25,-5.23 -11.25,-12.73 v -12.73 c 0,-8.29 4.54,-12.782 11.25,-12.782 6.02,0 10.508,3.75 10.508,10.512 v 2.27 H 751.48 v 8.242 h 21.758 v -30 h -5.226 L 766.48,265 c -2.96,-5.23 -7.5,-9.77 -16.48,-9.77 -12.73,0 -21.02,9.032 -21.02,22.5 v 12.782 c 0,13.468 9.032,23.238 23.29,23.238 13.468,0 20.968,-6.762 20.968,-18.012"
             style="fill:#002f5d;fill-opacity:1;fill-rule:nonzero;stroke:none"
             id="path42" />
          <path
             d="M 160.512,196.762 V 167.5 c 0,-5.23 3.008,-8.98 8.238,-8.98 5.23,0 8.238,2.96 8.238,8.98 v 29.262 h 9.032 v -28.524 c 0,-11.25 -6.02,-17.218 -17.27,-17.218 -11.988,0 -17.27,5.968 -17.27,17.218 v 28.524 z"
             style="fill:#002f5d;fill-opacity:1;fill-rule:nonzero;stroke:none"
             id="path44" />
          <path
             d="m 233.98,167.5 v 29.262 h 9.032 v -45 h -9.774 L 216.02,180.23 v -28.468 h -9.032 v 45 h 9.774 z"
             style="fill:#002f5d;fill-opacity:1;fill-rule:nonzero;stroke:none"
             id="path46" />
          <path
             d="m 264.77,151.762 h 9.73047 v 45 H 264.77 Z"
             style="fill:#002f5d;fill-opacity:1;fill-rule:nonzero;stroke:none"
             id="path48" />
          <path
             d="m 313.52,164.488 9.718,32.274 h 9.774 l -15,-45.742 h -9.774 l -15,45.742 h 10.512 z"
             style="fill:#002f5d;fill-opacity:1;fill-rule:nonzero;stroke:none"
             id="path50" />
          <path
             d="m 360.738,187.73 v -9.718 h 16.532 v -7.5 H 360.738 V 160 h 21.024 v -8.238 H 351.02 v 45 h 30.742 v -9.032 z"
             style="fill:#002f5d;fill-opacity:1;fill-rule:nonzero;stroke:none"
             id="path52" />
          <path
             d="m 411.02,151.762 h -9.77 v 45 h 19.488 c 9.774,0 14.262,-4.492 14.262,-12.782 v -3.75 c 0,-5.23 -3.012,-9.718 -8.238,-11.25 l 9.718,-17.218 h -10.46 l -8.29,15.738 h -6.71 z m 0,23.238 h 7.5 c 4.492,0 6.71,2.27 6.71,5.23 v 2.27 c 0,3.75 -2.218,5.23 -6.71,5.23 h -8.29 V 175 Z"
             style="fill:#002f5d;fill-opacity:1;fill-rule:nonzero;stroke:none"
             id="path54" />
          <path
             d="m 488.98,183.98 v -1.48 h -9.718 v 1.48 c 0,3.008 -2.274,6.02 -7.5,6.02 -4.492,0 -6.762,-2.27 -6.762,-4.488 0,-3.75 2.27,-4.492 9.77,-6.762 11.25,-3.012 15,-6.762 15,-13.52 0,-8.242 -6.758,-13.468 -17.27,-13.468 -11.988,0 -17.27,5.226 -17.27,13.468 v 2.27 H 465 v -1.48 c 0,-4.54 3.012,-6.758 8.238,-6.758 4.492,0 7.5,1.476 7.5,5.226 0,3.75 -1.476,4.492 -10.508,7.5 -10.46,3.012 -14.21,6.024 -14.21,13.524 0,7.5 5.968,12.726 16.48,12.726 10.512,-0.738 16.48,-6.758 16.48,-14.258"
             style="fill:#002f5d;fill-opacity:1;fill-rule:nonzero;stroke:none"
             id="path56" />
          <path
             d="m 509.262,151.762 h 9.72656 v 45 H 509.262 Z"
             style="fill:#002f5d;fill-opacity:1;fill-rule:nonzero;stroke:none"
             id="path58" />
          <path
             d="m 560.23,187.73 v -35.968 h -9.718 V 187.73 H 537.73 v 9.032 h 35.282 v -9.032 z"
             style="fill:#002f5d;fill-opacity:1;fill-rule:nonzero;stroke:none"
             id="path60" />
          <path
             d="m 615.738,196.762 h 10.512 l -15,-28.524 v -16.476 h -9.77 v 16.476 l -15,28.524 h 10.508 l 9.774,-19.492 z"
             style="fill:#002f5d;fill-opacity:1;fill-rule:nonzero;stroke:none"
             id="path62" />
          <path
             d="m 193.52,496.762 v 23.976 c 0,1.532 0,3.012 0,3.012 0,0 1.48,0 2.96,0 h 18.008 c 14.262,0 21.762,-2.27 21.762,-15 0,-8.238 -5.23,-15.738 -21.762,-15.738 h -18.75 c -1.476,0 -3.008,0 -3.008,0 0,0 0.79,2.218 0.79,3.75 m 0,-55.512 v 27.73 c 0,2.27 0,3.008 0,3.008 0,0 1.48,0 2.96,0 h 15.79 c 11.992,0 26.992,0 26.992,-17.218 0,-12.782 -10.512,-17.27 -25.512,-17.27 h -17.27 c -1.48,0 -2.96,0 -2.96,0 0,0 0,2.27 0,3.75 m -44.258,97.5 V 422.5 c 0,-3.75 0,-5.23 -2.274,-6.762 -2.218,-1.476 -5.226,-2.218 -9.718,-3.008 -0.79,0 0,-1.48 0,-1.48 h 94.492 c 39.718,0 56.25,15.738 56.25,40.512 0,18.008 -8.242,29.258 -25.512,33.75 v 0.738 c 10.512,3.012 20.23,11.25 20.23,30 0,25.512 -17.218,34.488 -55.46,34.488 l -90,-0.738 c -0.79,0 -0.79,-1.48 0,-1.48 4.492,-0.79 6.71,-0.79 9.718,-3.008 2.274,-1.532 2.274,-3.012 2.274,-6.762"
             style="fill:#002f5d;fill-opacity:1;fill-rule:nonzero;stroke:none"
             id="path64" />
          <path
             d="m 623.98,538.75 c 0,3.75 0,5.23 2.27,6.762 2.27,1.476 5.23,2.218 9.77,3.008 0.742,0 0,1.48 0,1.48 h -69.77 c -0.738,0 -0.738,-1.48 0,-1.48 4.488,-0.79 6.762,-0.79 8.98,-2.27 3.008,-1.48 2.27,-3.012 2.27,-6.762 V 469.77 c 0,-15.79 -8.98,-28.52 -26.988,-28.52 -18.012,0 -26.992,11.988 -26.992,28.52 v 69.718 c 0,3.75 0,5.282 2.218,6.762 2.274,1.48 4.492,2.27 9.032,3.012 0.742,0 0,1.476 0,1.476 h -65.282 c -0.738,0 -0.738,-1.476 0,-1.476 2.274,0 3.75,0 5.282,-1.532 2.218,-1.48 2.218,-3.75 2.218,-7.5 v -68.98 c 0,-33.012 18.012,-61.48 73.524,-61.48 55.508,0 73.468,28.468 73.468,61.48 z"
             style="fill:#002f5d;fill-opacity:1;fill-rule:nonzero;stroke:none"
             id="path66" />
          <path
             d="m 413.238,411.25 c 0.742,0 0.742,1.48 0,1.48 -4.488,0.79 -6.758,0.79 -9.718,3.008 -3.008,1.532 -2.27,3.012 -2.27,6.762 v 44.262 l 48.012,71.25 c 3.008,3.75 4.488,5.968 6.758,7.5 0,0 1.48,0.738 1.48,1.476 2.27,0.742 3.012,1.532 5.23,1.532 0.79,0 0.79,1.48 0,1.48 h -64.492 c -0.738,0 -0.738,-1.48 0,-1.48 3.012,0 6.762,0 6.762,-4.54 0,-4.492 -18.75,-31.48 -25.512,-41.992 -0.738,-1.476 -1.476,-3.008 -2.218,-4.488 0,1.48 -1.532,3.75 -2.27,4.488 -8.98,13.524 -25.512,36.024 -25.512,41.992 -0.738,4.54 3.012,4.54 6.762,4.54 0.738,0 0.738,1.48 0,1.48 h -68.238 c -0.742,0 0,-1.48 0,-1.48 3.008,0 4.488,0 8.238,-1.532 0.738,0 1.48,-0.738 1.48,-1.476 2.27,-1.532 3.75,-3.75 6.02,-7.5 l 48.012,-71.25 V 422.5 c 0,-3.75 0,-5.23 -2.274,-6.762 -2.218,-1.476 -5.226,-2.218 -9.718,-3.008 -0.79,0 0,-1.48 0,-1.48 z"
             style="fill:#002f5d;fill-opacity:1;fill-rule:nonzero;stroke:none"
             id="path68" />
        </g>
      </g>
      <path
         d="M 35.4688,21.4102 H 10.7383 v 6.3593 h 8.2109 v 49.8516 h -8.2109 v 6.3984 H 35.4688 V 77.6211 H 27.2695 V 27.7695 h 8.1993 z"
         style="fill:#000000;fill-opacity:1;fill-rule:nonzero;stroke:none"
         id="path70" />
      <path
         d="m 83.75,24.3398 c -2.6211,-1.25 -5.1602,-2.2695 -7.5391,-2.9296 -2.3398,-0.711 -4.8398,-1.0586 -7.5,-1.0586 -3.4023,0 -6.5195,0.4687 -9.332,1.4492 -2.8594,1.0078 -5.2773,2.539 -7.3086,4.5703 -2.0312,1.9883 -3.6289,4.5703 -4.7305,7.6484 -1.1289,3.0899 -1.7187,6.6797 -1.7187,10.7813 0,7.6992 2.1094,13.7187 6.3281,18.0898 4.2227,4.3789 9.8125,6.5586 16.7617,6.5586 2.6602,0 5.3086,-0.3476 7.8907,-1.1289 2.6172,-0.7422 5,-1.6797 7.1484,-2.7695 v -8.7891 h -0.4297 c -2.3789,1.8672 -4.8789,3.3164 -7.4609,4.3281 -2.5781,1.0196 -5.0781,1.5313 -7.5,1.5313 -4.4883,0 -8.0508,-1.5313 -10.6289,-4.5703 -2.6094,-2.9727 -3.9024,-7.3906 -3.9024,-13.25 0,-5.6602 1.293,-10 3.793,-13.082 2.5781,-3.0079 6.1289,-4.5274 10.7383,-4.5274 1.6015,0 3.2422,0.1875 4.8789,0.6172 1.6406,0.4297 3.1328,0.9805 4.4609,1.6406 1.1289,0.5899 2.2227,1.211 3.2422,1.8789 1.0078,0.6602 1.7891,1.25 2.3789,1.7227 H 83.75 Z"
         style="fill:#000000;fill-opacity:1;fill-rule:nonzero;stroke:none"
         id="path72" />
      <path
         d="M 133.199,44.0586 H 98.5898 c 0,-2.8867 0.4297,-5.4297 1.3321,-7.5781 0.8591,-2.1016 2.0271,-3.8594 3.5581,-5.2696 1.442,-1.332 3.2,-2.3398 5.192,-3.0117 1.988,-0.6601 4.219,-1.0078 6.637,-1.0078 3.211,0 6.41,0.6172 9.613,1.9102 3.277,1.289 5.59,2.539 6.957,3.75 h 0.422 v -8.5899 c -2.653,-1.1406 -5.391,-2.0703 -8.16,-2.8125 -2.77,-0.789 -5.7,-1.1406 -8.75,-1.1406 -7.813,0 -13.911,2.0703 -18.2816,6.293 -4.3399,4.2187 -6.5196,10.2382 -6.5196,18.0078 0,7.6914 2.0704,13.789 6.25,18.2812 4.2112,4.5313 9.7192,6.8008 16.5582,6.8008 6.332,0 11.211,-1.8828 14.653,-5.5508 3.429,-3.7109 5.148,-8.9804 5.148,-15.7812 z m -7.687,6.0625 c 0,4.1406 -1.063,7.3398 -3.133,9.6484 -2.07,2.2618 -5.188,3.3907 -9.41,3.3907 -4.219,0 -7.578,-1.25 -10.117,-3.75 -2.5,-2.5 -3.9028,-5.5821 -4.2622,-9.2891 z"
         style="fill:#000000;fill-opacity:1;fill-rule:nonzero;stroke:none"
         id="path74" />
      <path
         d="m 186.559,45.2305 c 0,-3.9024 -0.579,-7.461 -1.68,-10.5821 -1.09,-3.1679 -2.578,-5.7773 -4.449,-7.9296 -1.989,-2.1875 -4.18,-3.8672 -6.559,-5 -2.391,-1.0977 -5.043,-1.6407 -7.891,-1.6407 -2.66,0 -5,0.3125 -7,0.9727 -1.949,0.6289 -3.941,1.4492 -5.859,2.5 l -0.5,-2.1406 h -7.422 v 65.4296 h 7.922 V 63.4414 c 2.188,1.8281 4.578,3.3203 7.078,4.4492 2.5,1.211 5.27,1.8008 8.391,1.8008 5.551,0 9.93,-2.1523 13.129,-6.4101 3.242,-4.2618 4.84,-10.2696 4.84,-18.0508 z m -8.161,-0.1914 c 0,5.582 -0.937,9.8398 -2.777,12.7304 -1.871,2.9297 -4.84,4.3789 -8.98,4.3789 -2.262,0 -4.61,-0.5078 -6.95,-1.5273 -2.39,-0.9727 -4.57,-2.2617 -6.57,-3.8203 V 29.8789 c 2.231,-1.0078 4.149,-1.7187 5.75,-2.1094 1.641,-0.3906 3.469,-0.5781 5.508,-0.5781 4.371,0 7.812,1.4375 10.269,4.2891 2.5,2.8984 3.75,7.3906 3.75,13.5586 z"
         style="fill:#000000;fill-opacity:1;fill-rule:nonzero;stroke:none"
         id="path76" />
      <path
         d="M 238.199,44.0586 H 203.59 c 0,-2.8867 0.43,-5.4297 1.289,-7.5781 0.902,-2.1016 2.07,-3.8594 3.601,-5.2696 1.442,-1.332 3.161,-2.3398 5.149,-3.0117 2.031,-0.6601 4.262,-1.0078 6.641,-1.0078 3.21,0 6.41,0.6172 9.652,1.9102 3.238,1.289 5.547,2.539 6.957,3.75 h 0.391 v -8.5899 c -2.661,-1.1406 -5.36,-2.0703 -8.129,-2.8125 -2.813,-0.789 -5.7,-1.1406 -8.75,-1.1406 -7.813,0 -13.911,2.0703 -18.282,6.293 -4.379,4.2187 -6.558,10.2382 -6.558,18.0078 0,7.6914 2.109,13.789 6.289,18.2812 4.18,4.5313 9.719,6.8008 16.558,6.8008 6.332,0 11.211,-1.8828 14.653,-5.5508 3.429,-3.7109 5.148,-8.9804 5.148,-15.7812 z m -7.687,6.0625 c -0.043,4.1406 -1.102,7.3398 -3.172,9.6484 -2.031,2.2618 -5.149,3.3907 -9.371,3.3907 -4.219,0 -7.617,-1.25 -10.117,-3.75 -2.5,-2.5 -3.903,-5.5821 -4.262,-9.2891 z"
         style="fill:#000000;fill-opacity:1;fill-rule:nonzero;stroke:none"
         id="path78" />
      <path
         d="m 279.531,59.7695 h -0.429 c -1.172,0.2696 -2.34,0.461 -3.481,0.5821 -1.09,0.1172 -2.383,0.1992 -3.902,0.1992 -2.418,0 -4.77,-0.5508 -7.071,-1.6406 -2.269,-1.0586 -4.449,-2.461 -6.558,-4.1797 V 21.4102 h -7.891 v 46.9492 h 7.891 v -6.9102 c 3.16,2.5 5.93,4.2891 8.32,5.3125 2.379,1.0899 4.84,1.5977 7.34,1.5977 1.371,0 2.379,-0.0391 2.969,-0.1211 0.621,-0.0391 1.562,-0.1875 2.812,-0.3867 z"
         style="fill:#000000;fill-opacity:1;fill-rule:nonzero;stroke:none"
         id="path80" />
      <path
         d="m 325.078,26.7188 c 0,-7.9688 -1.84,-13.7891 -5.43,-17.53911 -3.628,-3.71094 -9.179,-5.58985 -16.718,-5.58985 -2.5,0 -4.918,0.19922 -7.309,0.55079 -2.34,0.34765 -4.68,0.82031 -6.992,1.48046 v 8.05081 h 0.43 c 1.293,-0.4727 3.32,-1.0938 6.14,-1.8321 2.813,-0.75 5.621,-1.1406 8.43,-1.1406 2.66,0 4.922,0.3203 6.68,0.9805 1.761,0.6211 3.132,1.5195 4.101,2.6992 0.981,1.0899 1.68,2.3828 2.11,3.9414 0.429,1.5195 0.628,3.2813 0.628,5.1602 v 4.289 c -2.378,-1.9101 -4.648,-3.3203 -6.839,-4.289 -2.188,-0.9024 -4.918,-1.3711 -8.278,-1.3711 -5.621,0 -10.082,1.9922 -13.402,6.0508 -3.277,4.0703 -4.918,9.7695 -4.918,17.1484 0,4.0703 0.59,7.543 1.68,10.4297 1.168,2.9726 2.73,5.5117 4.687,7.6211 1.801,1.9922 4.024,3.5508 6.641,4.6523 2.621,1.0899 5.191,1.6797 7.769,1.6797 2.742,0 5,-0.3125 6.84,-0.8633 1.832,-0.5078 3.793,-1.3672 5.82,-2.457 l 0.512,1.9883 h 7.418 z m -7.93,7.582 v 25.6211 c -2.109,0.9375 -4.058,1.5976 -5.859,2.0273 -1.801,0.3906 -3.59,0.6289 -5.391,0.6289 -4.378,0 -7.777,-1.4883 -10.277,-4.3789 -2.5,-2.9297 -3.742,-7.1484 -3.742,-12.6875 0,-5.2812 0.93,-9.3008 2.769,-11.9922 1.872,-2.7382 4.922,-4.1093 9.223,-4.1093 2.301,0 4.609,0.4296 6.91,1.3281 2.309,0.9023 4.449,2.0703 6.367,3.5625 z"
         style="fill:#000000;fill-opacity:1;fill-rule:nonzero;stroke:none"
         id="path82" />
      <path
         d="m 411.172,21.4102 h -39.613 v 62.6093 h 8.32 V 28.7891 h 31.293 z"
         style="fill:#000000;fill-opacity:1;fill-rule:nonzero;stroke:none"
         id="path84" />
      <path
         d="m 458.91,44.8398 c 0,-7.6484 -1.961,-13.6679 -5.898,-18.121 -3.91,-4.418 -9.184,-6.6407 -15.742,-6.6407 -6.68,0 -11.961,2.2227 -15.86,6.6407 -3.91,4.4531 -5.859,10.4726 -5.859,18.121 0,7.6602 1.949,13.711 5.859,18.129 3.899,4.4921 9.18,6.7226 15.86,6.7226 6.558,0 11.832,-2.2305 15.742,-6.7226 3.937,-4.418 5.898,-10.4688 5.898,-18.129 z m -8.172,0 c 0,6.1016 -1.168,10.629 -3.547,13.5586 -2.39,2.9727 -5.711,4.4532 -9.921,4.4532 -4.301,0 -7.661,-1.4805 -10.04,-4.4532 -2.351,-2.9296 -3.519,-7.457 -3.519,-13.5586 0,-5.8593 1.168,-10.3515 3.559,-13.3906 2.378,-3.0508 5.699,-4.539 10,-4.539 4.179,0 7.5,1.4882 9.878,4.5 2.383,3 3.59,7.5 3.59,13.4296 z"
         style="fill:#000000;fill-opacity:1;fill-rule:nonzero;stroke:none"
         id="path86" />
      <path
         d="m 505.898,24.3398 c -2.66,-1.25 -5.16,-2.2695 -7.539,-2.9296 -2.339,-0.711 -4.839,-1.0586 -7.539,-1.0586 -3.359,0 -6.48,0.4687 -9.34,1.4492 -2.808,1.0078 -5.23,2.539 -7.261,4.5703 -2.028,1.9883 -3.629,4.5703 -4.77,7.6484 -1.09,3.0899 -1.679,6.6797 -1.679,10.7813 0,7.6992 2.109,13.7187 6.332,18.0898 4.218,4.3789 9.808,6.5586 16.718,6.5586 2.7,0 5.352,-0.3476 7.93,-1.1289 2.621,-0.7422 5,-1.6797 7.148,-2.7695 v -8.7891 h -0.429 c -2.418,1.8672 -4.879,3.3164 -7.5,4.3281 -2.539,1.0196 -5.039,1.5313 -7.457,1.5313 -4.492,0 -8.051,-1.5313 -10.672,-4.5703 -2.57,-2.9727 -3.86,-7.3906 -3.86,-13.25 0,-5.6602 1.29,-10 3.79,-13.082 2.57,-3.0079 6.128,-4.5274 10.742,-4.5274 1.597,0 3.199,0.1875 4.879,0.6172 1.64,0.4297 3.129,0.9805 4.449,1.6406 1.14,0.5899 2.23,1.211 3.25,1.8789 1.012,0.6602 1.789,1.25 2.379,1.7227 h 0.429 z"
         style="fill:#000000;fill-opacity:1;fill-rule:nonzero;stroke:none"
         id="path88" />
      <path
         d="m 552.539,21.4102 h -7.848 v 5 c -0.711,-0.5118 -1.679,-1.1797 -2.89,-2.0313 -1.18,-0.8594 -2.313,-1.5273 -3.442,-2.0391 -1.328,-0.621 -2.808,-1.1679 -4.531,-1.6015 -1.719,-0.4297 -3.707,-0.6602 -6.019,-0.6602 -4.219,0 -7.809,1.4024 -10.778,4.2227 -2.929,2.8086 -4.41,6.3594 -4.41,10.6992 0,3.5898 0.777,6.4492 2.258,8.6289 1.57,2.2305 3.75,3.9492 6.57,5.2422 2.891,1.25 6.281,2.1094 10.313,2.5391 4.019,0.4687 8.316,0.7812 12.929,1.0117 v 1.207 c 0,1.8008 -0.351,3.2813 -0.98,4.4922 -0.621,1.1797 -1.52,2.0781 -2.691,2.7773 -1.141,0.6211 -2.469,1.0508 -4.032,1.293 -1.597,0.2305 -3.238,0.3477 -4.918,0.3477 -2.07,0 -4.41,-0.3086 -6.949,-0.8594 -2.543,-0.5508 -5.199,-1.3281 -7.891,-2.3399 h -0.429 v 8 c 1.519,0.4297 3.75,0.8985 6.679,1.4102 2.93,0.5117 5.782,0.7383 8.629,0.7383 3.282,0 6.172,-0.2695 8.59,-0.8164 2.5,-0.5508 4.61,-1.4414 6.41,-2.7735 1.762,-1.289 3.121,-2.9687 4.063,-5 0.898,-2.0703 1.367,-4.6093 1.367,-7.6171 z m -7.848,11.5586 v 13.082 c -2.421,-0.1524 -5.281,-0.3516 -8.562,-0.6602 -3.238,-0.2695 -5.82,-0.6601 -7.731,-1.2109 -2.269,-0.6289 -4.097,-1.6406 -5.507,-3.0078 -1.411,-1.3711 -2.11,-3.2422 -2.11,-5.6211 0,-2.6992 0.821,-4.7305 2.457,-6.1016 1.602,-1.3281 4.102,-1.9883 7.422,-1.9883 2.781,0 5.32,0.5079 7.621,1.5586 2.309,1.1016 4.418,2.4297 6.41,3.9493 z"
         style="fill:#000000;fill-opacity:1;fill-rule:nonzero;stroke:none"
         id="path90" />
      <path
         d="m 592.148,21.8008 c -1.488,-0.3906 -3.089,-0.711 -4.847,-0.9414 -1.75,-0.2696 -3.321,-0.3906 -4.68,-0.3906 -4.812,0 -8.441,1.2929 -10.941,3.871 -2.5,2.5704 -3.75,6.711 -3.75,12.4219 v 24.9571 h -5.352 v 6.6406 h 5.352 v 13.5195 h 7.929 V 68.3594 h 16.289 V 61.7188 H 575.859 V 40.3086 c 0,-2.457 0.039,-4.4102 0.161,-5.8203 0.109,-1.3672 0.5,-2.6485 1.171,-3.8672 0.618,-1.0898 1.438,-1.9102 2.539,-2.4609 1.09,-0.5 2.731,-0.7813 4.961,-0.7813 1.289,0 2.61,0.1992 4.02,0.5508 1.41,0.4297 2.418,0.7422 3.051,0.9805 h 0.386 z"
         style="fill:#000000;fill-opacity:1;fill-rule:nonzero;stroke:none"
         id="path92" />
      <path
         d="m 610.199,76.25 h -8.91016 v 8.19922 h 8.91016 z m -0.508,-54.8398 h -7.89063 v 46.9492 h 7.89063 z"
         style="fill:#000000;fill-opacity:1;fill-rule:nonzero;stroke:none"
         id="path94" />
      <path
         d="m 665.391,44.8398 c 0,-7.6484 -1.95,-13.6679 -5.903,-18.121 -3.898,-4.418 -9.179,-6.6407 -15.738,-6.6407 -6.68,0 -11.949,2.2227 -15.859,6.6407 -3.911,4.4531 -5.86,10.4726 -5.86,18.121 0,7.6602 1.949,13.711 5.86,18.129 3.91,4.4921 9.179,6.7226 15.859,6.7226 6.559,0 11.84,-2.2305 15.738,-6.7226 3.953,-4.418 5.903,-10.4688 5.903,-18.129 z m -8.161,0 c 0,6.1016 -1.179,10.629 -3.558,13.5586 -2.383,2.9727 -5.703,4.4532 -9.922,4.4532 -4.301,0 -7.66,-1.4805 -10.039,-4.4532 -2.34,-2.9296 -3.512,-7.457 -3.512,-13.5586 0,-5.8593 1.172,-10.3515 3.551,-13.3906 2.379,-3.0508 5.699,-4.539 10,-4.539 4.18,0 7.5,1.4882 9.879,4.5 2.391,3 3.601,7.5 3.601,13.4296 z"
         style="fill:#000000;fill-opacity:1;fill-rule:nonzero;stroke:none"
         id="path96" />
      <path
         d="m 716.91,21.4102 h -7.89 v 26.7109 c 0,2.1875 -0.11,4.1797 -0.391,6.0586 -0.231,1.9101 -0.699,3.3984 -1.359,4.4922 -0.711,1.1679 -1.719,2.0273 -3.051,2.5781 -1.328,0.5898 -3.008,0.8984 -5.117,0.8984 -2.192,0 -4.411,-0.5468 -6.801,-1.5976 -2.34,-1.0625 -4.602,-2.4297 -6.75,-4.0703 V 21.4102 h -7.93 v 46.9492 h 7.93 v -5.1992 c 2.461,2.039 5,3.6406 7.648,4.8086 2.621,1.1328 5.352,1.7226 8.129,1.7226 5.082,0 8.942,-1.5312 11.602,-4.6133 2.66,-3.0468 3.98,-7.457 3.98,-13.1992 z"
         style="fill:#000000;fill-opacity:1;fill-rule:nonzero;stroke:none"
         id="path98" />
      <path
         d="m 765.699,34.9219 c 0,-4.3008 -1.75,-7.8125 -5.308,-10.543 -3.551,-2.7383 -8.403,-4.1484 -14.532,-4.1484 -3.48,0 -6.679,0.4297 -9.57,1.25 -2.891,0.8203 -5.309,1.7578 -7.309,2.7383 v 8.871 h 0.43 c 2.5,-1.8789 5.281,-3.3984 8.32,-4.5 3.09,-1.0898 6.02,-1.6406 8.79,-1.6406 3.48,0 6.21,0.5508 8.171,1.6797 1.95,1.1016 2.969,2.8906 2.969,5.2813 0,1.8711 -0.551,3.2812 -1.609,4.2109 -1.09,0.9375 -3.121,1.7578 -6.172,2.4687 -1.09,0.2305 -2.578,0.5391 -4.41,0.8594 -1.797,0.3516 -3.438,0.6992 -4.918,1.0899 -4.102,1.0898 -7.031,2.6914 -8.789,4.8007 -1.684,2.1094 -2.543,4.7305 -2.543,7.8204 0,1.9492 0.39,3.75 1.172,5.4609 0.82,1.7187 2.031,3.25 3.629,4.6094 1.601,1.289 3.601,2.3476 5.98,3.0898 2.461,0.7813 5.16,1.168 8.16,1.168 2.82,0 5.668,-0.3477 8.52,-1.0469 2.89,-0.6719 5.269,-1.4922 7.191,-2.4609 V 57.5 h -0.43 c -2.031,1.5195 -4.461,2.7305 -7.351,3.75 -2.891,1.0508 -5.738,1.5586 -8.512,1.5586 -2.887,0 -5.308,-0.5391 -7.308,-1.6797 -1.989,-1.0898 -3,-2.7305 -3,-4.918 0,-1.9101 0.621,-3.4023 1.832,-4.3711 1.168,-0.9804 3.089,-1.7617 5.699,-2.3906 1.449,-0.3476 3.09,-0.6601 4.89,-1.0078 1.829,-0.3516 3.321,-0.6719 4.528,-0.9414 3.672,-0.8203 6.519,-2.2695 8.511,-4.3398 2,-2.0704 2.969,-4.8008 2.969,-8.2383 z"
         style="fill:#000000;fill-opacity:1;fill-rule:nonzero;stroke:none"
         id="path100" />
    </g>
  </g>
</svg>
