<svg xmlns="http://www.w3.org/2000/svg" role="img" viewBox="3.78 20.28 141.57 55.20"><path fill="#0079C1" fill-rule="evenodd" d="M28.5 49.5c-.7.5-1.6.9-2.5 1.3h8.3v-8.2c-.3.7-.8 1.8-1.3 2.5l-1.6-1.6c-.5.9-1.2 1.7-1.9 2.5-.8.8-1.6 1.4-2.5 1.9l1.5 1.6zm.1-8.7c-.4.9-1 1.8-1.8 2.6s-1.7 1.4-2.6 1.8l2.2 2.2c.9-.5 1.8-1.2 2.5-1.9.8-.8 1.4-1.6 1.9-2.5l-2.2-2.2zm5.2-.7c.5-2 .5-4.2 0-6.3h-1.1c.5 2.1.5 4.3 0 6.3h1.1zm-1.7 0c.5-1.9.6-4.2 0-6.3h-3.2c.7 2 .7 4.3 0 6.3h3.2zm.8-11.3c.4.6.9 1.6 1.3 2.5v-8.2h-8.3c.8.3 1.6.7 2.5 1.3L26.8 26c.9.5 1.7 1.1 2.5 1.9.8.8 1.4 1.6 1.9 2.5l1.7-1.6zm-8.7-.1c.9.4 1.8 1 2.6 1.8s1.3 1.6 1.8 2.6l2.2-2.2c-.5-.9-1.2-1.8-1.9-2.5-.8-.8-1.6-1.4-2.5-1.9l-2.2 2.2zm-.7-5.2c-2.1-.5-4.2-.5-6.3 0v1.1c2.1-.5 4.2-.5 6.3 0v-1.1zm0 1.7c-2.1-.6-4.2-.5-6.3 0v3.2c2-.7 4.3-.8 6.3 0v-3.2zM9.4 30.5c.5-.9 1.2-1.7 1.9-2.5.8-.8 1.6-1.4 2.5-1.9l-1.6-1.6c.8-.5 1.6-.9 2.5-1.3H6.5v8.3c.4-.9.8-1.7 1.3-2.5l1.6 1.5zm4.9-4.1c-.9.5-1.8 1.2-2.5 1.9-.8.8-1.4 1.6-1.9 2.5l2.2 2.2c.4-1 1-1.8 1.8-2.6s1.7-1.4 2.6-1.8l-2.2-2.2zm-5.7 7.4c-.5 2.1-.6 4.2 0 6.3h3.2c-.7-2-.7-4.3 0-6.3H8.6zm-1.7 0c-.5 2.1-.5 4.2 0 6.3H8c-.5-2-.5-4.2 0-6.3H6.9zm.9 11.3c-.5-.8-.9-1.6-1.3-2.5v8.3h8.2c-.9-.4-1.7-.8-2.5-1.3l1.7-1.6c-.9-.5-1.7-1.2-2.5-1.9-.8-.8-1.4-1.6-1.9-2.5l-1.7 1.5zm2-2.1c.5.9 1.2 1.8 1.9 2.5.8.8 1.6 1.4 2.5 1.9l2.2-2.2c-1-.4-1.8-1-2.6-1.8s-1.4-1.7-1.8-2.6L9.8 43zm7.4 2.5c2 .7 4.3.7 6.3 0v3.2c-2.1.6-4.2.5-6.3 0v-3.2zm0 3.8c2.1.5 4.2.5 6.3 0v1.1c-2.1.5-4.2.5-6.3 0v-1.1z" clip-rule="evenodd"/><path fill="#0079C1" d="M40.7 23h4.2l13.9 19.3V23h4.5v28h-3.8L45.2 31v19.9h-4.5V23zm35.7 13.8h3.9c3.4 0 5.5-1.8 5.5-4.7V32c0-3-2.1-4.6-5.6-4.6h-6.9v23.5h-4.7V23h12c3.4 0 6 1 7.8 2.8 1.4 1.5 2.2 3.6 2.2 6v.1c0 4.6-2.7 7.4-6.4 8.5L91.5 51h-5.6l-9.5-14.2zM95.6 23h21.3v4.4h-16v7.3h13V39h-13v7.5h16.2v4.4H95.6V23zm27 0h5.3v23.5h14.8V51h-20.1V23z"/><path fill="#5C6670" d="M9.9 58.9h-.4l-2.4-3v3h-.6v-4H7l2.4 3v-3h.6v4h-.1zm4.8 0h-.6l-.5-1h-2l-.5 1h-.6l1.8-4h.5l1.9 4zm-2.9-1.5h1.6l-.8-1.7-.8 1.7zm4.6 1.5h-.6v-3.4h-1.3V55h3.2v.5h-1.3v3.4zm2.6 0h-.6v-4h.6v4zm2.9.1c-1.2 0-2-.9-2-2 0-1.2.9-2.1 2-2.1 1.2 0 2 .9 2 2 0 1.2-.9 2.1-2 2.1zm0-3.6c-.8 0-1.5.6-1.5 1.5s.6 1.5 1.5 1.5c.8 0 1.5-.7 1.5-1.5-.1-.8-.7-1.5-1.5-1.5zm6.2 3.5h-.4l-2.4-3v3h-.6v-4h.5l2.4 3v-3h.6v4h-.1zm4.8 0h-.6l-.5-1h-2l-.5 1h-.6l1.8-4h.5l1.9 4zM30 57.4h1.6l-.8-1.7-.8 1.7zm6.2 1.5h-2.8v-4h.6v3.4h2.2v.6zm2.9 0h-.6v-4h1.7c.5 0 .9.1 1.1.4.2.2.3.5.3.8 0 .6-.4 1-1 1.2l1.2 1.6h-.7l-1.5-2h.5c.6 0 .9-.3.9-.7 0-.5-.3-.7-.9-.7H39v3.4zm50.5 0H89v-4h1.7c.5 0 .9.1 1.1.4.2.2.3.5.3.8 0 .6-.4 1-1 1.2l1.2 1.6h-.7l-1.5-2h.5c.6 0 .9-.3.9-.7 0-.5-.3-.7-.9-.7h-1.1v3.4zm30.4 0h-.6v-4h1.7c.5 0 .9.1 1.1.4.2.2.3.5.3.8 0 .6-.4 1-1 1.2l1.2 1.6h-.7l-1.5-2h.5c.6 0 .9-.3.9-.7 0-.5-.3-.7-.9-.7h-1v3.4zm15.9 0h-.6v-4h1.7c.5 0 .9.1 1.1.4.2.2.3.5.3.8 0 .6-.4 1-1 1.2l1.2 1.6h-.6l-1.5-2h.5c.6 0 .9-.3.9-.7 0-.5-.3-.7-.9-.7h-1.1v3.4zm-90.4 0h-3v-4h2.9v.5H43v1.2h2.1v.5H43v1.2h2.4v.6h.1zm4.2 0h-.4l-2.4-3v3h-.6v-4h.5l2.4 3v-3h.6v4h-.1zm3.9 0h-3v-4h2.9v.5h-2.4v1.2h2v.5h-2v1.2h2.4v.6h.1zm4.9.1H58l-1-3-1 3h-.5l-1.4-4h.6l1.1 3.1 1-3.1h.5l1 3.1 1.1-3.1h.6l-1.5 4zm5.3-.1h-.6l-.5-1h-2l-.5 1h-.6l1.8-4h.6l1.8 4zm-2.9-1.5h1.6l-.8-1.7-.8 1.7zm5.3 1.5h-1.8v-4h1.7c.4 0 .8.1 1.1.4.2.2.3.4.3.7 0 .5-.3.7-.5.9.5.2.7.5.7.9 0 .7-.6 1.1-1.5 1.1zm-1.2-.5h1.2c.6 0 .9-.2.9-.6 0-.5-.6-.6-1-.6H65v1.2zm0-1.7h1.1c.5 0 .8-.2.8-.6 0-.4-.3-.6-.8-.6H65v1.2zm6.2 2.2h-2.8v-4h.6v3.4h2.2v.6zm3.6 0h-3v-4h2.9v.5h-2.4v1.2h2v.5h-2v1.2h2.4v.6h.1zm5.4 0h-3v-4h2.9v.5h-2.4v1.2h2v.5h-2v1.2h2.4v.6h.1zm4.2 0H84l-2.4-3v3H81v-4h.5l2.3 2.9v-3h.6v4.1zm3.9 0h-3v-4h2.9v.5h-2.4v1.2h2v.5h-2v1.2h2.4v.6h.1zm6.6.1c-1.2 0-2-.8-2-2s.9-2.1 2-2.1c.6 0 1 .2 1.5.5l-.4.4c-.3-.2-.6-.4-1.1-.4-.8 0-1.4.7-1.4 1.5 0 .9.6 1.5 1.5 1.5.4 0 .8-.1 1.1-.4v-.9h-1.2v-.5h1.7v1.6c-.3.4-.9.8-1.7.8zm4.1-.1h-.6v-1.6L96.8 55h.7l1.3 1.9L100 55h.7L99 57.4v1.5zm6.6 0h-2.8v-4h.6v3.4h2.2v.6zm4.5 0h-.6l-.5-1h-2l-.5 1h-.6l1.8-4h.5l1.9 4zm-2.9-1.5h1.6l-.8-1.7-.8 1.7zm5.3 1.5h-1.8v-4h1.7c.5 0 .8.1 1.1.4.2.2.3.4.3.7 0 .5-.3.7-.5.9.5.2.7.5.7.9-.1.7-.6 1.1-1.5 1.1zm-1.3-.5h1.2c.6 0 .9-.2.9-.6 0-.5-.6-.6-1-.6h-1.2v1.2h.1zm0-1.7h1.1c.5 0 .8-.2.8-.6 0-.4-.3-.6-.8-.6h-1.1v1.2zm5.3 2.3c-1.2 0-2-.9-2-2 0-1.2.9-2.1 2-2.1 1.2 0 2 .9 2 2 .1 1.2-.8 2.1-2 2.1zm0-3.6c-.8 0-1.5.6-1.5 1.5s.6 1.5 1.5 1.5c.8 0 1.5-.7 1.5-1.5s-.6-1.5-1.5-1.5zm10.7 3.5h-.6l-.5-1h-2l-.5 1h-.6l1.8-4h.5l1.9 4zm-2.9-1.5h1.6l-.8-1.7-.8 1.7zm4.6 1.5h-.6v-3.4H127V55h3.2v.5h-1.3v3.4zm3.6.1c-1.2 0-2-.9-2-2 0-1.2.9-2.1 2-2.1 1.2 0 2 .9 2 2 0 1.2-.9 2.1-2 2.1zm0-3.6c-.8 0-1.5.6-1.5 1.5s.6 1.5 1.5 1.5c.8 0 1.5-.7 1.5-1.5-.1-.8-.7-1.5-1.5-1.5zm8.5 3.5h-.6v-1.6l-1.7-2.4h.7l1.3 1.9L142 55h.7l-1.7 2.4v1.5z"/><path d="M20.35911 70.3196v-8.15025h-1.69233v8.15025zm-.84616-8.31067zm7.17354 2.62972c-.39478-.32714-.90436-.48914-1.52877-.48914-.497 0-.9075.1211-1.23307.36489-.1793.13526-.37118.3586-.57407.66844v-.8792h-1.5209v6.01596h1.56965v-3.26198c0-.37276.0519-.67788.15571-.91852.19817-.45297.56621-.67945 1.09939-.67945.43566 0 .73135.15414.88549.46398.08493.16986.1274.41364.1274.72978v3.6662H27.281v-4.05783c0-.75652-.19817-1.29756-.59451-1.62313zm-2.10913-.50644zm7.35441.25794c-.2831-.16043-.60867-.24064-.97356-.24064-.79269 0-1.42496.29411-1.89837.88391-.47341.5898-.7109 1.3998-.7109 2.4284 0 .89178.24063 1.62156.72191 2.19249.48128.56935 1.07265.85403 1.77727.85403.4278 0 .78482-.08179 1.07264-.24378.28783-.162.5442-.42152.7691-.78011v.83515h1.53191v-8.13924h-1.59796v2.87508c-.17773-.2831-.40736-.50487-.69204-.6653zm.38691 4.29374c-.23277.33029-.57092.497-1.0176.497-.4451 0-.77853-.16671-.99715-.50014-.2202-.33344-.32872-.77854-.32872-1.33531 0-.51588.10695-.9484.32243-1.29756.21547-.34759.55362-.52217 1.01445-.52217.30198 0 .56778.09594.79741.28782.37118.31613.55834.8446.55834 1.58067 0 .52846-.11638.95783-.34916 1.2897zm4.90557-4.39126h-1.61527v3.63317c0 .68889.0865 1.21106.25951 1.56494.30984.6417.91065.96255 1.80243.96255.30984 0 .58036-.0409.81-.12268.2312-.08021.47026-.2312.71719-.45296.08021-.07078.15099-.151.20918-.24379.05977-.09122.09594-.14784.1101-.16514v.85088h1.5319v-6.02697h-1.59796v3.2793c0 .3869-.0519.69831-.15413.93423-.19975.43567-.56778.65272-1.10568.65272-.41994 0-.70304-.15256-.84617-.45926-.08178-.173-.1211-.43095-.1211-.77382zm1.10567-.16042zm5.46863 4.26386h-1.59796c0 .6181.2249 1.1277.6763 1.52876.4514.3995 1.15129.59924 2.09811.59924.92953 0 1.61684-.18874 2.06037-.56621.44353-.37747.66687-.86504.66687-1.4627 0-.45297-.1557-.83202-.46555-1.134-.31299-.29883-.78325-.52059-1.40923-.66843-.94053-.20604-1.48787-.35231-1.642-.43724-.1557-.08021-.23278-.21233-.23278-.39163 0-.1447.07235-.27052.21862-.37747.1447-.10538.39006-.15885.73293-.15885.4168 0 .7109.10537.88391.31927.0928.11796.14942.27839.17144.48128h1.57594c-.0692-.73607-.3413-1.2551-.8147-1.5555-.475-.3004-1.08681-.4514-1.83861-.4514-.7927 0-1.40766.19975-1.8449.60082-.43723.39949-.65428.87762-.65428 1.4344 0 .47183.13998.83358.41994 1.08365.27996.2548.76123.46555 1.44226.63541.9484.22491 1.49573.38377 1.642.47656.14784.09122.22176.22648.22176.40264 0 .18401-.09122.32242-.27366.41522-.18245.09122-.4278.1384-.73765.1384-.52688 0-.88863-.10537-1.08366-.31613-.11166-.11796-.18244-.31613-.21547-.5961zm1.20477-4.26386zm3.24625 1.33845h.83988v3.71024c0 .3759.08808.65428.2658.83515.2721.2831.78168.41208 1.52562.38691l.74708-.0283v-1.17804a2.63609 2.63609 0 0 1-.15728.00944c-.05348.00157-.10538.00315-.15256.00315-.32085 0-.51274-.03146-.57565-.0928-.06291-.05977-.09437-.2139-.09437-.46083v-3.18492h.97986v-1.12298h-.97986v-1.67975h-1.55864v1.67975h-.83988zm7.73818-1.31958c-.02045-.00157-.04561-.00157-.0755-.00157-.47183 0-.85402.12268-1.14971.3696-.18087.14785-.3932.42309-.63541.82415v-1.05063h-1.5036v6.02697h1.58696v-2.8798c0-.48442.05976-.84144.18244-1.07422.21705-.41207.6417-.6181 1.27711-.6181.04719 0 .1101.00157.18717.00471.07707.00472.16671.01101.2658.02202v-1.6137c-.07077-.00471-.11481-.00628-.13526-.00943zm1.30228 7.32453v1.25981c.16986.01259.29569.01888.38062.02045.08493.00157.19817.00315.33815.00315.69675 0 1.16072-.13841 1.3935-.41208.2312-.27524.54733-.98457.94525-2.12642l2.06823-5.92789h-1.6766l-1.24409 4.4463-1.31486-4.4463h-1.75367l2.21293 6.29278c.01416.04403-.01887.16514-.09751.36489-.07864.19817-.16515.33028-.25637.3932-.09594.06605-.2139.10852-.35388.12582-.14155.01887-.28782.02516-.44353.0173zm2.13429-7.3434zm13.22096-.51903v-1.44383h-5.97822v8.15025h6.17639v-1.46427h-4.51237v-2.09655h3.96032v-1.41552h-3.96032v-1.73008zm-2.94743-1.44383zm9.21503 2.4693c-.39634-.32714-.90593-.48914-1.53033-.48914-.497 0-.9075.1211-1.2315.36489-.18088.13526-.37276.3586-.57565.66844v-.8792h-1.5209v6.01596h1.57123v-3.26198c0-.37276.05033-.67788.15414-.91852.19974-.45297.5662-.67945 1.10096-.67945.43409 0 .72977.15414.8839.46398.08494.16986.1274.41364.1274.72978v3.6662h1.6137v-4.05783c0-.75652-.1966-1.29756-.59295-1.62313zm-2.1107-.50644zm5.68725 1.642c.20132-.22805.48442-.34287.84931-.34287.335 0 .61654.10852.84302.324.22649.21547.35231.5316.37905.9484h-2.45042c.0519-.39163.17772-.6999.37904-.92953zm2.2035-1.36047c-.40107-.18716-.85246-.28153-1.35419-.28153-.8446 0-1.53033.27838-2.06037.83515-.52846.55678-.79269 1.35733-.79269 2.4001 0 1.11354.29254 1.91724.8792 2.4111.58508.49386 1.26138.74079 2.02891.74079.92953 0 1.65144-.29411 2.16732-.8792.33186-.3696.51745-.73292.55834-1.08995h-1.60897c-.08493.17773-.18245.31614-.29254.41522-.2029.18402-.46712.27682-.79112.27682-.30512 0-.56778-.0755-.78483-.22806-.3586-.24221-.54733-.66687-.56935-1.27082h4.12388c.00786-.5206-.00786-.91852-.04876-1.19533-.07077-.47184-.22333-.88549-.45925-1.24409-.26109-.4042-.59295-.70146-.99559-.8902zm-1.2441-.28153zm7.15782.01887c-.02045-.00157-.04561-.00157-.07392-.00157-.47184 0-.8556.12268-1.15129.3696-.1793.14785-.39163.42309-.63541.82415v-1.05063h-1.5036v6.02697h1.58696v-2.8798c0-.48442.06134-.84144.18244-1.07422.21705-.41207.64328-.6181 1.27712-.6181.04718 0 .1101.00157.18716.00471.07864.00472.16672.01101.2658.02202v-1.6137c-.0692-.00471-.11481-.00628-.13526-.00943zm4.58157 4.45732c-.2548.27838-.56621.41679-.93425.41679-.55362 0-.93738-.25322-1.15129-.7628-.11796-.2721-.17615-.58352-.17615-.93425 0-.40578.05505-.74551.16515-1.02232.21075-.5206.59294-.78011 1.145-.78011.40578 0 .72977.14941.97041.44825.24221.29883.36175.73292.36175 1.30542 0 .6071-.12583 1.05063-.38062 1.32902zm-.53633-4.32048c-.2249-.0928-.48914-.13841-.79112-.13841-.81785 0-1.45012.30512-1.8968.91537-.4451.60867-.66843 1.36204-.66843 2.25854 0 .92795.2312 1.66402.6936 2.20821.4624.54419 1.08052.81628 1.8559.81628.50016 0 .90751-.11953 1.2205-.36017.17458-.12897.33658-.32242.48757-.58036v.3869c0 .57565-.06291.98458-.18874 1.22836-.19188.37905-.57093.56936-1.1387.56936-.40107 0-.68732-.07235-.85718-.21548-.09909-.08178-.17144-.2139-.21548-.39791h-1.71435c.0519.6008.32085 1.0522.80685 1.35418.48757.30197 1.11511.45296 1.88579.45296 1.27554 0 2.139-.33972 2.58882-1.0176.26109-.39477.39163-.97985.39163-1.75839v-5.71713h-1.5319v.86819c-.23593-.42308-.5442-.71562-.92796-.8729zm-.28782-.15571zm4.46203 7.3434v1.25981c.16987.01259.29726.01888.3822.02045.08493.00157.1966.00315.33657.00315.69675 0 1.16073-.13841 1.3935-.41208.23278-.27524.54734-.98457.94526-2.12642l2.06823-5.92789h-1.67503l-1.24409 4.4463-1.31643-4.4463h-1.7521l2.21136 6.29278c.01415.04403-.0173.16514-.09752.36489-.07864.19817-.16514.33028-.25636.3932-.09594.06605-.2139.10852-.35388.12582-.13998.01887-.28783.02516-.44196.0173zm2.1343-7.3434zm13.11557-1.96286h-6.60104v1.44383h2.44885v6.70642h1.71435v-6.70642h2.43784zm4.63347 6.54757c-.24693.32714-.6008.49229-1.06164.49229-.46083 0-.8147-.16515-1.06321-.49229-.25008-.32872-.37433-.79426-.37433-1.3998 0-.60395.12425-1.0695.37433-1.39664.2485-.32557.60238-.48914 1.06321-.48914.46083 0 .81471.16357 1.06164.48914.24693.32714.37118.7927.37118 1.39665 0 .60553-.12425 1.07107-.37118 1.39979zm1.26139.86976c.50801-.62755.7628-1.38407.7628-2.26955 0-.86976-.25479-1.62313-.7628-2.26169-.50959-.63698-1.28183-.95626-2.31674-.95626-1.03647 0-1.80872.31928-2.31673.95626-.50959.63856-.76281 1.39193-.76281 2.26169 0 .88548.25322 1.642.7628 2.26955.50802.62912 1.28027.94368 2.31674.94368 1.0349 0 1.80715-.31456 2.31674-.94368zm-2.31674-5.45447zm7.97253 4.58471c-.24693.32714-.60081.49229-1.06164.49229-.46083 0-.81471-.16515-1.06322-.49229-.25007-.32872-.37432-.79426-.37432-1.3998 0-.60395.12425-1.0695.37432-1.39664.2485-.32557.60239-.48914 1.06322-.48914.46083 0 .8147.16357 1.06164.48914.24693.32714.37118.7927.37118 1.39665 0 .60553-.12425 1.07107-.37118 1.39979zm1.26138.86976c.50802-.62755.76281-1.38407.76281-2.26955 0-.86976-.2548-1.62313-.7628-2.26169-.5096-.63698-1.28184-.95626-2.31674-.95626-1.03648 0-1.80872.31928-2.31674.95626-.50958.63856-.7628 1.39193-.7628 2.26169 0 .88548.25322 1.642.7628 2.26955.50802.62912 1.28026.94368 2.31674.94368 1.0349 0 1.80714-.31456 2.31673-.94368zm-2.31673-5.45447zm5.81621 6.1874v-8.15026h-1.57594v8.15025z"/></svg>
