<svg xmlns="http://www.w3.org/2000/svg" role="img" viewBox="3.78 20.28 141.57 52.70"><path fill="#0079C1" fill-rule="evenodd" d="M28.5 49.5c-.7.5-1.6.9-2.5 1.3h8.3v-8.2c-.3.7-.8 1.8-1.3 2.5l-1.6-1.6c-.5.9-1.2 1.7-1.9 2.5-.8.8-1.6 1.4-2.5 1.9l1.5 1.6zm.1-8.7c-.4.9-1 1.8-1.8 2.6s-1.7 1.4-2.6 1.8l2.2 2.2c.9-.5 1.8-1.2 2.5-1.9.8-.8 1.4-1.6 1.9-2.5l-2.2-2.2zm5.2-.7c.5-2 .5-4.2 0-6.3h-1.1c.5 2.1.5 4.3 0 6.3h1.1zm-1.7 0c.5-1.9.6-4.2 0-6.3h-3.2c.7 2 .7 4.3 0 6.3h3.2zm.8-11.3c.4.6.9 1.6 1.3 2.5v-8.2h-8.3c.8.3 1.6.7 2.5 1.3L26.8 26c.9.5 1.7 1.1 2.5 1.9.8.8 1.4 1.6 1.9 2.5l1.7-1.6zm-8.7-.1c.9.4 1.8 1 2.6 1.8s1.3 1.6 1.8 2.6l2.2-2.2c-.5-.9-1.2-1.8-1.9-2.5-.8-.8-1.6-1.4-2.5-1.9l-2.2 2.2zm-.7-5.2c-2.1-.5-4.2-.5-6.3 0v1.1c2.1-.5 4.2-.5 6.3 0v-1.1zm0 1.7c-2.1-.6-4.2-.5-6.3 0v3.2c2-.7 4.3-.8 6.3 0v-3.2zM9.4 30.5c.5-.9 1.2-1.7 1.9-2.5.8-.8 1.6-1.4 2.5-1.9l-1.6-1.6c.8-.5 1.6-.9 2.5-1.3H6.5v8.3c.4-.9.8-1.7 1.3-2.5l1.6 1.5zm4.9-4.1c-.9.5-1.8 1.2-2.5 1.9-.8.8-1.4 1.6-1.9 2.5l2.2 2.2c.4-1 1-1.8 1.8-2.6s1.7-1.4 2.6-1.8l-2.2-2.2zm-5.7 7.4c-.5 2.1-.6 4.2 0 6.3h3.2c-.7-2-.7-4.3 0-6.3H8.6zm-1.7 0c-.5 2.1-.5 4.2 0 6.3H8c-.5-2-.5-4.2 0-6.3H6.9zm.9 11.3c-.5-.8-.9-1.6-1.3-2.5v8.3h8.2c-.9-.4-1.7-.8-2.5-1.3l1.7-1.6c-.9-.5-1.7-1.2-2.5-1.9-.8-.8-1.4-1.6-1.9-2.5l-1.7 1.5zm2-2.1c.5.9 1.2 1.8 1.9 2.5.8.8 1.6 1.4 2.5 1.9l2.2-2.2c-1-.4-1.8-1-2.6-1.8s-1.4-1.7-1.8-2.6L9.8 43zm7.4 2.5c2 .7 4.3.7 6.3 0v3.2c-2.1.6-4.2.5-6.3 0v-3.2zm0 3.8c2.1.5 4.2.5 6.3 0v1.1c-2.1.5-4.2.5-6.3 0v-1.1z" clip-rule="evenodd"/><path fill="#0079C1" d="M40.7 23h4.2l13.9 19.3V23h4.5v28h-3.8L45.2 31v19.9h-4.5V23zm35.7 13.8h3.9c3.4 0 5.5-1.8 5.5-4.7V32c0-3-2.1-4.6-5.6-4.6h-6.9v23.5h-4.7V23h12c3.4 0 6 1 7.8 2.8 1.4 1.5 2.2 3.6 2.2 6v.1c0 4.6-2.7 7.4-6.4 8.5L91.5 51h-5.6l-9.5-14.2zM95.6 23h21.3v4.4h-16v7.3h13V39h-13v7.5h16.2v4.4H95.6V23zm27 0h5.3v23.5h14.8V51h-20.1V23z"/><path fill="#5C6670" d="M9.9 58.9h-.4l-2.4-3v3h-.6v-4H7l2.4 3v-3h.6v4h-.1zm4.8 0h-.6l-.5-1h-2l-.5 1h-.6l1.8-4h.5l1.9 4zm-2.9-1.5h1.6l-.8-1.7-.8 1.7zm4.6 1.5h-.6v-3.4h-1.3V55h3.2v.5h-1.3v3.4zm2.6 0h-.6v-4h.6v4zm2.9.1c-1.2 0-2-.9-2-2 0-1.2.9-2.1 2-2.1 1.2 0 2 .9 2 2 0 1.2-.9 2.1-2 2.1zm0-3.6c-.8 0-1.5.6-1.5 1.5s.6 1.5 1.5 1.5c.8 0 1.5-.7 1.5-1.5-.1-.8-.7-1.5-1.5-1.5zm6.2 3.5h-.4l-2.4-3v3h-.6v-4h.5l2.4 3v-3h.6v4h-.1zm4.8 0h-.6l-.5-1h-2l-.5 1h-.6l1.8-4h.5l1.9 4zM30 57.4h1.6l-.8-1.7-.8 1.7zm6.2 1.5h-2.8v-4h.6v3.4h2.2v.6zm2.9 0h-.6v-4h1.7c.5 0 .9.1 1.1.4.2.2.3.5.3.8 0 .6-.4 1-1 1.2l1.2 1.6h-.7l-1.5-2h.5c.6 0 .9-.3.9-.7 0-.5-.3-.7-.9-.7H39v3.4zm50.5 0H89v-4h1.7c.5 0 .9.1 1.1.4.2.2.3.5.3.8 0 .6-.4 1-1 1.2l1.2 1.6h-.7l-1.5-2h.5c.6 0 .9-.3.9-.7 0-.5-.3-.7-.9-.7h-1.1v3.4zm30.4 0h-.6v-4h1.7c.5 0 .9.1 1.1.4.2.2.3.5.3.8 0 .6-.4 1-1 1.2l1.2 1.6h-.7l-1.5-2h.5c.6 0 .9-.3.9-.7 0-.5-.3-.7-.9-.7h-1v3.4zm15.9 0h-.6v-4h1.7c.5 0 .9.1 1.1.4.2.2.3.5.3.8 0 .6-.4 1-1 1.2l1.2 1.6h-.6l-1.5-2h.5c.6 0 .9-.3.9-.7 0-.5-.3-.7-.9-.7h-1.1v3.4zm-90.4 0h-3v-4h2.9v.5H43v1.2h2.1v.5H43v1.2h2.4v.6h.1zm4.2 0h-.4l-2.4-3v3h-.6v-4h.5l2.4 3v-3h.6v4h-.1zm3.9 0h-3v-4h2.9v.5h-2.4v1.2h2v.5h-2v1.2h2.4v.6h.1zm4.9.1H58l-1-3-1 3h-.5l-1.4-4h.6l1.1 3.1 1-3.1h.5l1 3.1 1.1-3.1h.6l-1.5 4zm5.3-.1h-.6l-.5-1h-2l-.5 1h-.6l1.8-4h.6l1.8 4zm-2.9-1.5h1.6l-.8-1.7-.8 1.7zm5.3 1.5h-1.8v-4h1.7c.4 0 .8.1 1.1.4.2.2.3.4.3.7 0 .5-.3.7-.5.9.5.2.7.5.7.9 0 .7-.6 1.1-1.5 1.1zm-1.2-.5h1.2c.6 0 .9-.2.9-.6 0-.5-.6-.6-1-.6H65v1.2zm0-1.7h1.1c.5 0 .8-.2.8-.6 0-.4-.3-.6-.8-.6H65v1.2zm6.2 2.2h-2.8v-4h.6v3.4h2.2v.6zm3.6 0h-3v-4h2.9v.5h-2.4v1.2h2v.5h-2v1.2h2.4v.6h.1zm5.4 0h-3v-4h2.9v.5h-2.4v1.2h2v.5h-2v1.2h2.4v.6h.1zm4.2 0H84l-2.4-3v3H81v-4h.5l2.3 2.9v-3h.6v4.1zm3.9 0h-3v-4h2.9v.5h-2.4v1.2h2v.5h-2v1.2h2.4v.6h.1zm6.6.1c-1.2 0-2-.8-2-2s.9-2.1 2-2.1c.6 0 1 .2 1.5.5l-.4.4c-.3-.2-.6-.4-1.1-.4-.8 0-1.4.7-1.4 1.5 0 .9.6 1.5 1.5 1.5.4 0 .8-.1 1.1-.4v-.9h-1.2v-.5h1.7v1.6c-.3.4-.9.8-1.7.8zm4.1-.1h-.6v-1.6L96.8 55h.7l1.3 1.9L100 55h.7L99 57.4v1.5zm6.6 0h-2.8v-4h.6v3.4h2.2v.6zm4.5 0h-.6l-.5-1h-2l-.5 1h-.6l1.8-4h.5l1.9 4zm-2.9-1.5h1.6l-.8-1.7-.8 1.7zm5.3 1.5h-1.8v-4h1.7c.5 0 .8.1 1.1.4.2.2.3.4.3.7 0 .5-.3.7-.5.9.5.2.7.5.7.9-.1.7-.6 1.1-1.5 1.1zm-1.3-.5h1.2c.6 0 .9-.2.9-.6 0-.5-.6-.6-1-.6h-1.2v1.2h.1zm0-1.7h1.1c.5 0 .8-.2.8-.6 0-.4-.3-.6-.8-.6h-1.1v1.2zm5.3 2.3c-1.2 0-2-.9-2-2 0-1.2.9-2.1 2-2.1 1.2 0 2 .9 2 2 .1 1.2-.8 2.1-2 2.1zm0-3.6c-.8 0-1.5.6-1.5 1.5s.6 1.5 1.5 1.5c.8 0 1.5-.7 1.5-1.5s-.6-1.5-1.5-1.5zm10.7 3.5h-.6l-.5-1h-2l-.5 1h-.6l1.8-4h.5l1.9 4zm-2.9-1.5h1.6l-.8-1.7-.8 1.7zm4.6 1.5h-.6v-3.4H127V55h3.2v.5h-1.3v3.4zm3.6.1c-1.2 0-2-.9-2-2 0-1.2.9-2.1 2-2.1 1.2 0 2 .9 2 2 0 1.2-.9 2.1-2 2.1zm0-3.6c-.8 0-1.5.6-1.5 1.5s.6 1.5 1.5 1.5c.8 0 1.5-.7 1.5-1.5-.1-.8-.7-1.5-1.5-1.5zm8.5 3.5h-.6v-1.6l-1.7-2.4h.7l1.3 1.9L142 55h.7l-1.7 2.4v1.5z"/><path d="M19.82427 68.39417v-6.35054h-1.31864v6.35054zm-.65932-6.47554zm5.5895 2.04904c-.3076-.2549-.70466-.38113-1.19118-.38113-.38726 0-.70711.09436-.9608.28431-.1397.1054-.2892.27942-.4473.52084v-.68506h-1.18506v4.68754h1.22305v-2.54169c0-.29044.04044-.52819.12133-.71569.1544-.35294.44118-.52941.85662-.52941.33946 0 .56986.1201.68996.36152.06617.13235.09926.3223.09926.56863v2.85664h1.25737v-3.16179c0-.58946-.15442-1.01104-.46324-1.26471zm-1.64339-.39461zm5.73044.20098c-.2206-.125-.47427-.1875-.75859-.1875-.61765 0-1.1103.22916-1.47917.68873-.36888.45956-.55393 1.0907-.55393 1.89217 0 .69486.1875 1.26349.5625 1.70835.375.44363.8358.66544 1.38482.66544.33334 0 .61152-.06372.8358-.18995.22426-.12623.42401-.32843.59926-.60785v.65074h1.19364v-6.34196h-1.24511v2.24021c-.13848-.22059-.3174-.39338-.53922-.51838zm.30147 3.34561c-.18137.25736-.44485.38726-.7929.38726-.34681 0-.60662-.1299-.77696-.3897-.17157-.25981-.25613-.60663-.25613-1.04046 0-.40196.08333-.73897.25122-1.01104.1679-.27083.43138-.40686.79045-.40686.2353 0 .4424.07475.62133.22426.28922.24633.43505.6581.43505 1.23163 0 .41177-.09068.74633-.27206 1.00491zm3.82234-3.4216h-1.2586v2.83091c0 .53677.06741.94364.20222 1.21937.24142.5.70956.75001 1.40442.75001.24142 0 .4522-.03186.63113-.09559.18015-.0625.36643-.18015.55883-.35294.0625-.05515.11765-.11765.163-.18996.04656-.07107.07475-.1152.08578-.12867v.663h1.19363v-4.69612h-1.2451v2.55516c0 .30148-.04045.54413-.1201.72795-.15564.33946-.44241.50858-.86153.50858-.32721 0-.5478-.11887-.65932-.35784-.06373-.1348-.09436-.33579-.09436-.60295zm.86152-.125zm4.26107 3.32234h-1.24511c0 .48162.17525.87868.52696 1.19118.35172.31128.89707.46692 1.63482.46692.72427 0 1.25981-.14706 1.6054-.44118.3456-.29412.51962-.67403.51962-1.13972 0-.35294-.12133-.64829-.36275-.88358-.24388-.23285-.6103-.40564-1.09805-.52084-.73285-.16054-1.15932-.27451-1.27942-.34069-.12133-.0625-.18137-.16544-.18137-.30515 0-.11275.05637-.21079.17034-.29412.11275-.0821.30392-.12377.57108-.12377.32476 0 .55393.0821.68873.24877.0723.09191.11643.21692.13358.375h1.22795c-.05392-.57353-.26593-.97794-.6348-1.21201-.3701-.23408-.84683-.35172-1.43261-.35172-.61766 0-1.09683.15564-1.43752.46814-.34068.31127-.5098.68383-.5098 1.11765 0 .36765.10907.64952.3272.84437.21814.19853.59315.36275 1.12379.4951.73897.17525 1.16545.29903 1.27942.37133.1152.07108.1728.17647.1728.31373 0 .14338-.07108.25123-.21324.32353-.14216.07108-.33334.10785-.57476.10785-.41054 0-.6924-.08211-.84437-.24633-.08701-.09191-.14216-.24633-.1679-.46446zm.93873-3.32234zm2.52943 1.0429h.65442v2.89096c0 .2929.06863.5098.2071.65074.21202.22059.60908.32108 1.18874.30147l.58212-.02206v-.9179a2.054 2.054 0 0 1-.12255.00736c-.04167.00122-.08211.00245-.11888.00245-.25 0-.39951-.02451-.44853-.0723-.04902-.04657-.07353-.16667-.07353-.35908v-2.48163h.76349v-.87501h-.7635V62.4321h-1.21446v1.30884h-.65442zm6.02946-1.02819c-.01593-.00122-.03554-.00122-.05882-.00122-.36765 0-.66545.09558-.89584.28799-.14094.1152-.30638.32966-.4951.64216v-.81863h-1.17158v4.69611h1.23653v-2.24389c0-.37745.04657-.65564.14215-.83701.16912-.32109.5-.48163.99511-.48163.03677 0 .08579.00123.14584.00368.06004.00368.1299.00858.2071.01716V63.5951c-.05514-.00367-.08946-.0049-.10539-.00735zm1.01472 5.70715v.98163c.13235.0098.23039.0147.29657.01593.06617.00123.15441.00245.26348.00245.5429 0 .90442-.10784 1.0858-.32108.18014-.21446.42647-.76716.73652-1.65687l1.61153-4.61891h-1.30638l-.96937 3.46448-1.02452-3.46448h-1.36643l1.72427 4.90322c.01103.03432-.0147.12868-.07598.28432-.06127.15441-.12867.25735-.19975.30637-.07476.05147-.16667.08456-.27574.09804-.1103.0147-.22427.01961-.3456.01348zm1.663-5.72185zm10.30155-.40442v-1.125h-4.65812v6.35053h4.81254v-1.14094h-3.51596v-1.63359h3.0858v-1.10295h-3.0858v-1.34805zm-2.29658-1.125zm7.1802 1.92403c-.30883-.2549-.70589-.38113-1.19241-.38113-.38726 0-.70712.09436-.95957.28431-.14093.1054-.29044.27942-.44853.52084v-.68506h-1.18506v4.68754h1.22427V65.8525c0-.29045.03922-.5282.1201-.7157.15564-.35294.44118-.52941.85785-.52941.33824 0 .56864.1201.68873.36152.06618.13235.09927.3223.09927.56863v2.85664h1.25736v-3.16179c0-.58946-.15318-1.01104-.46201-1.26471zm-1.64462-.39461zm4.4314 1.27942c.15687-.1777.37746-.26716.66178-.26716.26103 0 .4804.08456.65686.25245.17648.1679.27452.41422.29535.73898h-1.90933c.04044-.30515.13848-.54535.29535-.72427zm1.71693-1.06006c-.3125-.14583-.66422-.21936-1.05515-.21936-.6581 0-1.19241.2169-1.6054.65074-.41178.43382-.61766 1.0576-.61766 1.8701 0 .86766.22794 1.4939.68505 1.8787.45589.3848.98286.57721 1.5809.57721.72427 0 1.28677-.22917 1.68874-.68505.25858-.288.40319-.57109.43505-.84928h-1.25369c-.06617.13849-.14215.24633-.22794.32354-.15809.14338-.36397.21568-.61643.21568-.23774 0-.4424-.05882-.61152-.1777-.27941-.18872-.42647-.5196-.44363-.9902h3.21326c.00613-.40564-.00613-.71569-.038-.93138-.05514-.36765-.17401-.68995-.35784-.96937-.20343-.31495-.46201-.54657-.77574-.69363zm-.96937-.21936zm5.57725.0147c-.01593-.00122-.03554-.00122-.0576-.00122-.36765 0-.66667.09558-.89706.28799-.1397.1152-.30515.32966-.4951.64216v-.81863h-1.17158v4.69611h1.23653v-2.24389c0-.37745.0478-.65564.14216-.83701.16911-.32109.50122-.48163.9951-.48163.03677 0 .08579.00123.14584.00368.06127.00368.1299.00858.2071.01716V63.5951c-.05392-.00367-.08946-.0049-.10539-.00735zm3.56988 3.47307c-.19853.21691-.44118.32476-.72794.32476-.43138 0-.7304-.19731-.89707-.59437-.09191-.21201-.13726-.45466-.13726-.72795 0-.31618.0429-.58089.12868-.79657.16422-.40564.46202-.60785.89217-.60785.31618 0 .56863.11642.75613.34927.18873.23284.28186.57108.28186 1.01716 0 .47304-.09804.81863-.29657 1.03555zm-.4179-3.36645c-.17524-.0723-.38112-.10784-.61642-.10784-.63726 0-1.12991.23774-1.47795.71324-.34682.47427-.52084 1.06128-.52084 1.75981 0 .72305.18015 1.29658.54045 1.7206.3603.42403.84191.63604 1.44609.63604.3897 0 .70711-.09314.95098-.28064.13603-.10049.26226-.25123.3799-.4522v.30146c0 .44854-.04901.76717-.14705.95712-.14951.29535-.44486.44363-.88726.44363-.3125 0-.53555-.05637-.6679-.1679-.0772-.06372-.13358-.16666-.1679-.31004H75.2083c.04044.46814.25.81986.62868 1.05515.3799.2353.86888.35295 1.46938.35295.99388 0 1.66668-.26471 2.01717-.7929.20343-.3076.30515-.76349.30515-1.37011v-4.4547h-1.19364v.67648c-.18382-.32966-.42402-.5576-.72304-.68015zm-.22426-.12132zm3.47675 5.72185v.98163c.13235.0098.23161.0147.2978.01593a13.8868 13.8868 0 0 0 .26225.00245c.5429 0 .90442-.10784 1.0858-.32108.18137-.21446.42647-.76716.73652-1.65687l1.61153-4.61891h-1.30516l-.96937 3.46448-1.02574-3.46448h-1.3652l1.72304 4.90322c.01103.03432-.01348.12868-.07598.28432-.06127.15441-.12867.25735-.19975.30637-.07476.05147-.16667.08456-.27574.09804-.10907.0147-.22427.01961-.34437.01348zm1.663-5.72185zm6.89344-.42648h1.22427c.60295 0 1.00491.1728 1.20834.51961.20221.3456.30393.84192.30393 1.48776 0 .46814-.06863.87256-.20344 1.2108-.24632.61765-.68382.92647-1.30883.92647h-1.22427zm2.43016-.96447c-.26103-.087-.58946-.13235-.98285-.13848h-2.73531v6.35054h2.73531c.95957 0 1.66913-.3946 2.1287-1.18506.33946-.58579.50858-1.30025.50858-2.14462 0-.33334-.04044-.68383-.12133-1.05148-.07965-.36765-.2304-.70956-.4522-1.02574-.27574-.39094-.63604-.65932-1.0809-.80516zm5.14465 3.92896v.4571c-.00858.41055-.125.69364-.34681.84805-.22305.15564-.46692.23285-.7304.23285-.16667 0-.30883-.04657-.42525-.1397-.11642-.09315-.17402-.2451-.17402-.45467 0-.2353.09436-.40932.28431-.52206.11152-.06618.2978-.12133.55638-.1679l.27574-.05147c.13725-.02573.24632-.05392.32476-.08333.07843-.03064.15686-.06985.2353-.11887zm-.74633-.57354l-.4179.05147c-.47304.06128-.8321.16177-1.0772.3027-.44486.25858-.66668.67648-.66668 1.25369 0 .44485.13848.78922.41544 1.03187.27697.24265.62746.36397 1.0527.36397.33334 0 .63237-.07598.89707-.22917.2206-.12867.41545-.28554.5858-.46936.00857.10662.0196.20098.0343.28431.01471.08334.04045.1728.07721.26716h1.3358v-.18137c-.08088-.03677-.14093-.08456-.18137-.14216-.03922-.05637-.06373-.16544-.0723-.3272-.00614-.21202-.00859-.3934-.00859-.5429v-2.1532c0-.56619-.19975-.951-.59927-1.15565-.39951-.20344-.85662-.30515-1.3701-.30515-.79045 0-1.34683.20588-1.67159.6201-.20466.2647-.31863.60172-.34436 1.01226h1.18383c.02941-.18137.08701-.32476.1728-.43015.1201-.1446.32598-.21569.61642-.21569.25858 0 .45466.03677.58824.10907.13358.07353.19976.20711.19976.39952 0 .15809-.08701.27328-.26226.34804-.09804.04412-.2598.07966-.48775.10784zm.06495-1.96447zm2.51596 1.0429h.65564v2.89095c0 .2929.06863.5098.20588.65074.21324.2206.60907.32108 1.18996.30147l.58089-.02206v-.9179a1.99411 1.99411 0 0 1-.12255.00736c-.04167.00122-.08088.00245-.11887.00245-.24878 0-.3983-.02451-.44731-.0723-.04902-.04657-.07353-.16667-.07353-.35908v-2.48163h.76226v-.87501h-.76226V62.4321h-1.21447v1.30884h-.65564zm6.01107 1.4951v.45712c-.00858.41054-.125.69363-.34681.84804-.22304.15564-.46692.23285-.7304.23285-.16667 0-.30883-.04657-.42525-.1397-.11642-.09315-.17402-.2451-.17402-.45467 0-.2353.09436-.40932.28431-.52206.11152-.06618.2978-.12133.55638-.1679l.27574-.05147c.13726-.02573.2451-.05392.32476-.08333.07843-.03064.15686-.06985.2353-.11887zm-.74633-.57353l-.4179.05147c-.47304.06128-.8321.16177-1.0772.3027-.44486.25858-.6679.67648-.6679 1.25369 0 .44485.1397.78922.41667 1.03187.27696.24265.62745.36397 1.0527.36397.33334 0 .63236-.07598.89707-.22917.22059-.12867.41544-.28554.58578-.46936.00858.10662.01961.20098.03432.28431.0147.08334.04044.1728.0772.26716h1.3358v-.18137c-.08088-.03677-.14093-.08456-.18137-.14216-.04045-.05637-.06373-.16544-.0723-.3272-.00614-.21202-.00981-.3934-.00981-.5429v-2.1532c0-.56619-.19853-.951-.59805-1.15565-.3995-.20344-.85662-.30515-1.3701-.30515-.79045 0-1.34683.20588-1.67159.6201-.20466.2647-.31863.60172-.34436 1.01226h1.18383c.02941-.18137.08701-.32476.1728-.43015.1201-.1446.32598-.21569.61642-.21569.25858 0 .45466.03677.58824.10907.13358.07353.19976.20711.19976.39952 0 .15809-.08701.27328-.26226.34804-.09804.04412-.26103.07966-.48775.10784zm.06495-1.96447zm6.83707-.42648h1.39584c.3076 0 .56006.03309.75859.09927.2304.09436.34436.29044.34436.58579 0 .26715-.08578.45343-.2598.5576-.17402.1054-.40074.15809-.67893.15809h-1.56006zm0 2.45223h1.58212c.27574.00245.48897.03799.64094.10662.27328.12377.40931.35049.40931.68137 0 .39094-.1397.65442-.42157.7929-.15564.07476-.37255.11152-.65074.11152h-1.56006zm3.47307-2.8787c-.32476-.43996-.87624-.66545-1.65443-.67648h-3.08458v6.35054h2.87747c.32476 0 .62623-.02818.9032-.08578.27696-.0576.51716-.16422.72181-.31863.18015-.1348.33089-.30148.45221-.5.18873-.29903.28432-.63604.28432-1.01227 0-.3652-.08333-.67525-.24755-.93138-.16544-.2549-.41054-.4424-.7353-.56005.21324-.10907.37378-.22917.48285-.36153.19485-.2353.29289-.5478.29289-.93505 0-.37623-.09804-.69976-.2929-.96937zm4.44611 4.42528c-.1924.2549-.46814.38358-.82721.38358s-.63481-.12868-.82967-.38358c-.19362-.25613-.29044-.61888-.29044-1.0907 0-.47059.09682-.83334.29044-1.08824.19486-.25368.4706-.38113.82967-.38113s.6348.12745.82721.38113c.1924.2549.28922.61765.28922 1.08824 0 .47182-.09682.83457-.28922 1.0907zm.98285.6777c.39584-.48898.59437-1.07844.59437-1.7684 0-.6777-.19853-1.26471-.59437-1.76227-.39706-.49632-.99878-.7451-1.80516-.7451-.8076 0-1.40933.24878-1.80516.7451-.39706.49756-.5956 1.08457-.5956 1.76227 0 .68996.19854 1.27942.5956 1.7684.39583.4902.99756.7353 1.80516.7353.80638 0 1.4081-.2451 1.80516-.7353zm-1.80516-4.25003zm6.21206 3.57233c-.1924.2549-.46814.38358-.82721.38358s-.63481-.12868-.82967-.38358c-.19363-.25613-.29044-.61888-.29044-1.0907 0-.47059.09681-.83334.29044-1.08824.19486-.25368.4706-.38113.82967-.38113s.6348.12745.8272.38113c.19241.2549.28923.61765.28923 1.08824 0 .47182-.09682.83457-.28922 1.0907zm.98285.6777c.39584-.48898.59437-1.07844.59437-1.7684 0-.6777-.19853-1.26471-.59437-1.76227-.39706-.49632-.99878-.7451-1.80516-.7451-.8076 0-1.40933.24878-1.80516.7451-.39706.49756-.5956 1.08457-.5956 1.76227 0 .68996.19854 1.27942.5956 1.7684.39583.4902.99755.7353 1.80516.7353.80638 0 1.4081-.2451 1.80516-.7353zm-1.80516-4.25003zm3.26473-1.50737v6.32848h1.20712v-1.47795l.50858-.52942 1.12378 2.00737h1.48286l-1.70712-2.87747 1.64217-1.79658h-1.52085l-1.52942 1.76594V62.0657z"/></svg>
