<?xml version="1.0" encoding="UTF-8" standalone="no"?>
<svg
   version="1.1"
   id="svg4"
   width="36.937504"
   height="11.53125"
   xmlns="http://www.w3.org/2000/svg"
   xmlns:svg="http://www.w3.org/2000/svg">
  <defs
     id="defs8" />
  <g
     aria-label="Kepler"
     id="text2"
     transform="translate(-1.2011719,9.1171875)">
    <path
       d="M 8.1855469,0 H 6.6796875 L 3.2285156,-3.8847656 2.3613281,-2.9589844 V 0 H 1.2011719 v -8.7246094 h 1.1601562 v 4.5527344 l 4.2363281,-4.5527344 h 1.4062501 l -3.8964844,4.1015625 z"
       id="path10" />
    <path
       d="M 14.466797,-3.1582031 H 9.6445313 q 0,0.6035156 0.1816406,1.0546875 0.1816411,0.4453125 0.4980471,0.7324219 0.304687,0.28125 0.720703,0.42187495 0.421875,0.140625 0.925781,0.140625 0.667969,0 1.341797,-0.26367185 0.679688,-0.2695313 0.966797,-0.5273438 h 0.05859 v 1.2011719 q -0.556641,0.234375 -1.136719,0.39257812 -0.580078,0.15820313 -1.21875,0.15820313 -1.628906,0 -2.5429689,-0.87890625 -0.9140625,-0.8847656 -0.9140625,-2.5078125 0,-1.6054687 0.8730469,-2.5488281 0.8789065,-0.9433594 2.3085935,-0.9433594 1.324219,0 2.039063,0.7734375 0.720703,0.7734375 0.720703,2.1972656 z m -1.072266,-0.84375 q -0.0059,-0.8671875 -0.439453,-1.3417969 -0.427734,-0.4746094 -1.30664,-0.4746094 -0.884766,0 -1.41211,0.5214844 -0.5214842,0.5214844 -0.5917967,1.2949219 z"
       id="path12" />
    <path
       d="m 21.896484,-3.3515625 q 0,0.796875 -0.228515,1.4589844 -0.228516,0.65625 -0.644532,1.11328123 -0.386718,0.43359374 -0.914062,0.67382812 -0.521484,0.234375 -1.107422,0.234375 -0.509766,0 -0.925781,-0.11132812 Q 17.666016,-0.09375 17.238281,-0.328125 v 2.7421875 h -1.101562 v -8.9589844 h 1.101562 v 0.6855469 q 0.439453,-0.3691406 0.984375,-0.6152344 0.550781,-0.2519531 1.171875,-0.2519531 1.183594,0 1.839844,0.8964844 0.662109,0.890625 0.662109,2.4785156 z m -1.136718,0.029297 q 0,-1.1835938 -0.404297,-1.7695313 -0.404297,-0.5859375 -1.242188,-0.5859375 -0.474609,0 -0.955078,0.2050782 -0.480469,0.2050781 -0.919922,0.5390625 v 3.7089843 q 0.46875,0.2109375 0.802735,0.2871094 0.339843,0.0761719 0.767578,0.0761719 0.919922,0 1.435547,-0.6210938 0.515625,-0.6210937 0.515625,-1.8398437 z"
       id="path14" />
    <path
       d="M 24.726562,0 H 23.625 v -9.1171875 h 1.101562 z"
       id="path16" />
    <path
       d="M 32.384766,-3.1582031 H 27.5625 q 0,0.6035156 0.181641,1.0546875 0.18164,0.4453125 0.498046,0.7324219 0.304688,0.28125 0.720704,0.42187495 0.421875,0.140625 0.925781,0.140625 0.667969,0 1.341797,-0.26367185 0.679687,-0.2695313 0.966797,-0.5273438 h 0.05859 v 1.2011719 q -0.55664,0.234375 -1.136718,0.39257812 -0.580079,0.15820313 -1.21875,0.15820313 -1.628907,0 -2.542969,-0.87890625 -0.914063,-0.8847656 -0.914063,-2.5078125 0,-1.6054687 0.873047,-2.5488281 0.878906,-0.9433594 2.308594,-0.9433594 1.324219,0 2.039062,0.7734375 0.720704,0.7734375 0.720704,2.1972656 z m -1.072266,-0.84375 q -0.0059,-0.8671875 -0.439453,-1.3417969 -0.427735,-0.4746094 -1.306641,-0.4746094 -0.884765,0 -1.412109,0.5214844 -0.521485,0.5214844 -0.591797,1.2949219 z"
       id="path18" />
    <path
       d="m 38.138672,-5.34375 h -0.05859 q -0.246094,-0.058594 -0.480469,-0.082031 -0.228515,-0.029297 -0.544922,-0.029297 -0.509765,0 -0.984375,0.2285156 -0.474609,0.2226563 -0.914062,0.5800781 V 0 h -1.101563 v -6.5449219 h 1.101563 v 0.9667969 q 0.65625,-0.5273437 1.154297,-0.7441406 0.503906,-0.2226563 1.02539,-0.2226563 0.28711,0 0.416016,0.017578 0.128906,0.011719 0.386719,0.052734 z"
       id="path20" />
  </g>
</svg>
