<?xml version="1.0" encoding="UTF-8" standalone="no"?>
<svg
   version="1.1"
   id="svg4"
   width="86.601562"
   height="11.589844"
   xmlns="http://www.w3.org/2000/svg"
   xmlns:svg="http://www.w3.org/2000/svg">
  <defs
     id="defs8" />
  <g
     aria-label="leaflet-velocity"
     id="text2"
     transform="translate(-1.0957031,9.1757813)">
    <path
       d="M 2.1972656,0 H 1.0957031 v -9.1171875 h 1.1015625 z"
       id="path10" />
    <path
       d="M 9.8554688,-3.1582031 H 5.0332031 q 0,0.6035156 0.1816406,1.0546875 0.1816407,0.4453125 0.4980469,0.7324219 0.3046875,0.28125 0.7207031,0.42187495 0.421875,0.140625 0.9257813,0.140625 0.6679688,0 1.3417969,-0.26367185 0.6796875,-0.2695313 0.9667969,-0.5273438 h 0.058594 v 1.2011719 q -0.5566406,0.234375 -1.1367187,0.39257812 -0.5800782,0.15820313 -1.2187501,0.15820313 -1.6289062,0 -2.5429687,-0.87890625 -0.9140625,-0.8847656 -0.9140625,-2.5078125 0,-1.6054687 0.8730469,-2.5488281 0.8789062,-0.9433594 2.3085937,-0.9433594 1.3242188,0 2.0390625,0.7734375 0.7207032,0.7734375 0.7207032,2.1972656 z m -1.0722657,-0.84375 Q 8.7773438,-4.8691406 8.34375,-5.34375 7.9160156,-5.8183594 7.0371094,-5.8183594 q -0.8847657,0 -1.4121094,0.5214844 -0.5214844,0.5214844 -0.5917969,1.2949219 z"
       id="path12" />
    <path
       d="m 16.611328,0 h -1.095703 v -0.69726562 q -0.146484,0.0996094 -0.398437,0.28124999 -0.246094,0.17578125 -0.480469,0.28125001 Q 14.361328,0 14.003906,0.08789062 q -0.357422,0.09375 -0.83789,0.09375 -0.884766,0 -1.5,-0.5859375 -0.615235,-0.5859375 -0.615235,-1.49414062 0,-0.7441406 0.316407,-1.2011719 0.322265,-0.4628906 0.914062,-0.7265625 0.597656,-0.2636718 1.435547,-0.3574218 0.837891,-0.09375 1.798828,-0.140625 v -0.1699219 q 0,-0.375 -0.134766,-0.6210938 -0.128906,-0.2460937 -0.375,-0.3867187 -0.234375,-0.1347656 -0.5625,-0.1816406 -0.328125,-0.046875 -0.685546,-0.046875 -0.433594,0 -0.966797,0.1171875 -0.533203,0.1113281 -1.101563,0.328125 h -0.05859 v -1.1191407 q 0.322266,-0.087891 0.931641,-0.1933593 0.609375,-0.1054688 1.201172,-0.1054688 0.691406,0 1.201172,0.1171875 0.515625,0.1113281 0.890625,0.3867188 0.36914,0.2695312 0.5625,0.6972656 0.193359,0.4277344 0.193359,1.0605469 z m -1.095703,-1.6113281 v -1.8222657 q -0.503906,0.029297 -1.189453,0.087891 -0.679688,0.058594 -1.078125,0.1699218 -0.474609,0.1347657 -0.767578,0.421875 -0.292969,0.28125 -0.292969,0.7792969 0,0.5625 0.339844,0.8496094 0.339844,0.28125 1.037109,0.28125 0.580078,0 1.060547,-0.2226562 0.480469,-0.2285157 0.890625,-0.5449222 z"
       id="path14" />
    <path
       d="m 22.253906,-8.0507813 h -0.05859 q -0.18164,-0.052734 -0.474609,-0.1054687 -0.292969,-0.058594 -0.515625,-0.058594 -0.708984,0 -1.03125,0.3164063 -0.316406,0.3105469 -0.316406,1.1308594 v 0.2226562 h 1.986328 v 0.9257813 H 19.892578 V 0 h -1.101562 v -5.6191406 h -0.744141 v -0.9257813 h 0.744141 v -0.2167968 q 0,-1.1660157 0.580078,-1.7871094 0.580078,-0.6269532 1.675781,-0.6269532 0.369141,0 0.662109,0.035156 0.298828,0.035156 0.544922,0.082031 z"
       id="path16" />
    <path
       d="m 24.064453,0 h -1.101562 v -9.1171875 h 1.101562 z"
       id="path18" />
    <path
       d="m 31.722656,-3.1582031 h -4.822265 q 0,0.6035156 0.18164,1.0546875 0.181641,0.4453125 0.498047,0.7324219 0.304688,0.28125 0.720703,0.42187495 0.421875,0.140625 0.925781,0.140625 0.667969,0 1.341797,-0.26367185 0.679688,-0.2695313 0.966797,-0.5273438 h 0.05859 v 1.2011719 q -0.556641,0.234375 -1.136719,0.39257812 -0.580078,0.15820313 -1.21875,0.15820313 -1.628906,0 -2.542969,-0.87890625 -0.914062,-0.8847656 -0.914062,-2.5078125 0,-1.6054687 0.873047,-2.5488281 0.878906,-0.9433594 2.308594,-0.9433594 1.324218,0 2.039062,0.7734375 0.720703,0.7734375 0.720703,2.1972656 z m -1.072265,-0.84375 q -0.0059,-0.8671875 -0.439454,-1.3417969 -0.427734,-0.4746094 -1.30664,-0.4746094 -0.884766,0 -1.41211,0.5214844 -0.521484,0.5214844 -0.591796,1.2949219 z"
       id="path20" />
    <path
       d="m 36.791016,-0.05859375 q -0.310547,0.08203125 -0.679688,0.13476562 -0.363281,0.05273438 -0.650391,0.05273438 -1.001953,0 -1.523437,-0.5390625 -0.521484,-0.5390625 -0.521484,-1.72851565 v -3.4804687 h -0.744141 v -0.9257813 h 0.744141 v -1.8808594 h 1.101562 v 1.8808594 h 2.273438 v 0.9257813 h -2.273438 v 2.9824218 q 0,0.515625 0.02344,0.8085938 0.02344,0.2871094 0.164062,0.5390625 0.128906,0.234375 0.351563,0.34570312 0.228515,0.10546875 0.691406,0.10546875 0.269531,0 0.5625,-0.0761719 0.292969,-0.0820313 0.421875,-0.13476557 h 0.05859 z"
       id="path22" />
    <path
       d="m 41.355469,-3.2871094 h -3.65625 v -1.0605468 h 3.65625 z"
       id="path24" />
    <path
       d="M 48.761719,-6.5449219 46.113281,0 H 45.005859 L 42.375,-6.5449219 h 1.195312 l 2.027344,5.2089844 2.009766,-5.2089844 z"
       id="path26" />
    <path
       d="m 55.576172,-3.1582031 h -4.822266 q 0,0.6035156 0.181641,1.0546875 0.18164,0.4453125 0.498047,0.7324219 0.304687,0.28125 0.720703,0.42187495 0.421875,0.140625 0.925781,0.140625 0.667969,0 1.341797,-0.26367185 0.679687,-0.2695313 0.966797,-0.5273438 h 0.05859 v 1.2011719 q -0.556641,0.234375 -1.136719,0.39257812 -0.580078,0.15820313 -1.21875,0.15820313 -1.628906,0 -2.542969,-0.87890625 -0.914062,-0.8847656 -0.914062,-2.5078125 0,-1.6054687 0.873046,-2.5488281 0.878907,-0.9433594 2.308594,-0.9433594 1.324219,0 2.039063,0.7734375 0.720703,0.7734375 0.720703,2.1972656 z m -1.072266,-0.84375 q -0.0059,-0.8671875 -0.439453,-1.3417969 -0.427734,-0.4746094 -1.306641,-0.4746094 -0.884765,0 -1.412109,0.5214844 -0.521484,0.5214844 -0.591797,1.2949219 z"
       id="path28" />
    <path
       d="m 58.359375,0 h -1.101563 v -9.1171875 h 1.101563 z"
       id="path30" />
    <path
       d="m 66.117187,-3.2695313 q 0,1.5996094 -0.820312,2.52539068 -0.820313,0.92578124 -2.197266,0.92578124 -1.388672,0 -2.208984,-0.92578124 -0.814453,-0.92578128 -0.814453,-2.52539068 0,-1.5996093 0.814453,-2.5253906 0.820312,-0.9316406 2.208984,-0.9316406 1.376953,0 2.197266,0.9316406 0.820312,0.9257813 0.820312,2.5253906 z m -1.136718,0 q 0,-1.2714843 -0.498047,-1.8867187 -0.498047,-0.6210937 -1.382813,-0.6210937 -0.896484,0 -1.394531,0.6210937 -0.492187,0.6152344 -0.492187,1.8867187 0,1.2304688 0.498046,1.8691407 0.498047,0.63281248 1.388672,0.63281248 0.878907,0 1.376953,-0.62695308 0.503907,-0.6328126 0.503907,-1.8750001 z"
       id="path32" />
    <path
       d="M 72.662109,-0.41015625 Q 72.111328,-0.14648437 71.613281,0 q -0.492187,0.14648437 -1.048828,0.14648437 -0.708984,0 -1.300781,-0.20507812 -0.591797,-0.2109375 -1.013672,-0.6328125 -0.427734,-0.42187495 -0.662109,-1.06640625 -0.234375,-0.6445313 -0.234375,-1.5058594 0,-1.6054687 0.878906,-2.5195312 0.884765,-0.9140625 2.332031,-0.9140625 0.5625,0 1.101563,0.1582031 0.544921,0.1582031 0.996093,0.3867188 v 1.2246093 h -0.05859 Q 72.099612,-5.3203125 71.56055,-5.53125 q -0.533203,-0.2109375 -1.042969,-0.2109375 -0.9375,0 -1.482422,0.6328125 -0.539062,0.6269531 -0.539062,1.8457031 0,1.1835938 0.527343,1.8222657 0.533204,0.63281245 1.494141,0.63281245 0.333984,0 0.679688,-0.0878906 0.345703,-0.0878906 0.621093,-0.22851565 0.240235,-0.1230469 0.451172,-0.2578125 0.210938,-0.140625 0.333985,-0.2402344 h 0.05859 z"
       id="path34" />
    <path
       d="m 75.257812,-7.640625 h -1.242187 v -1.1425781 h 1.242187 z M 75.1875,0 H 74.085937 V -6.5449219 H 75.1875 Z"
       id="path36" />
    <path
       d="m 80.765625,-0.05859375 q -0.310547,0.08203125 -0.679688,0.13476562 -0.363281,0.05273438 -0.65039,0.05273438 -1.001953,0 -1.523438,-0.5390625 -0.521484,-0.5390625 -0.521484,-1.72851565 v -3.4804687 h -0.744141 v -0.9257813 h 0.744141 v -1.8808594 h 1.101562 v 1.8808594 h 2.273438 v 0.9257813 h -2.273438 v 2.9824218 q 0,0.515625 0.02344,0.8085938 0.02344,0.2871094 0.164062,0.5390625 0.128907,0.234375 0.351563,0.34570312 0.228516,0.10546875 0.691406,0.10546875 0.269531,0 0.5625,-0.0761719 0.292969,-0.0820313 0.421875,-0.13476557 h 0.05859 z"
       id="path38" />
    <path
       d="m 87.697266,-6.5449219 -3.820313,8.9589844 h -1.177734 l 1.21875,-2.73046875 -2.607422,-6.22851565 h 1.195312 l 2.009766,4.8515625 2.027344,-4.8515625 z"
       id="path40" />
  </g>
</svg>
