<?xml version="1.0" encoding="UTF-8"?><svg id="a" xmlns="http://www.w3.org/2000/svg" viewBox="0 0 1000 262"><defs><style>.b{fill:#173963;}.c{fill:#1b98d5;}</style></defs><g><polygon class="c" points="29.35 111.99 29.35 63.54 5.05 63.54 5.05 136.29 77.79 136.29 77.79 111.99 29.35 111.99"/><polygon class="b" points="126.23 14.94 5.05 14.94 5.05 51.31 29.19 51.31 29.19 39.4 102.1 39.4 102.1 111.99 89.86 111.99 89.86 136.29 126.23 136.29 126.23 14.94"/><polygon class="b" points="158.37 16.4 195.39 16.4 195.39 105.63 248.4 105.63 248.4 136.29 158.37 136.29 158.37 16.4"/><polygon class="b" points="264.22 16.4 356.87 16.4 356.87 47.07 301.09 47.07 301.09 62.07 348.88 62.07 348.88 90.62 301.09 90.62 301.09 136.29 264.06 136.29 264.06 16.4 264.22 16.4"/><polygon class="c" points="452.29 136.94 385.25 136.94 385.25 16.08 452.29 16.08 452.29 23.91 393.89 23.91 393.89 69.58 449.03 69.58 449.03 77.41 393.89 77.41 393.89 129.28 452.29 129.28 452.29 136.94"/><path class="c" d="M569.07,136.94h-8.65L487.84,29.62h-.65c.65,12.73,.98,22.35,.98,28.87v78.29h-8.16V16.08h8.48l72.58,107.16h.49c-.49-9.95-.82-19.41-.82-28.22V16.08h8.32v120.86h.01Z"/><polygon class="c" points="670.85 136.94 603.82 136.94 603.82 16.08 670.85 16.08 670.85 23.91 612.46 23.91 612.46 69.58 667.59 69.58 667.59 77.41 612.46 77.41 612.46 129.28 670.85 129.28 670.85 136.94"/><path class="c" d="M707.06,84.26v52.69h-8.48V16.08h29.2c15.17,0,26.43,2.77,33.77,8.32,7.34,5.55,10.93,13.87,10.93,24.96,0,8.15-2.12,15-6.52,20.55-4.41,5.55-10.93,9.62-19.74,11.91l33.27,54.97h-10.44l-31.65-52.7h-30.34v.17Zm0-7.18h23.33c10.28,0,18.43-2.28,23.98-6.85,5.7-4.57,8.48-11.25,8.48-20.06s-2.77-15.82-8.32-20.06-14.68-6.36-27.4-6.36h-20.06v53.33h0Z"/><path class="c" d="M847.5,74.63h44.2v53.83c-11.58,4.89-24.63,7.34-39.15,7.34-18.92,0-33.43-5.22-43.39-15.82-9.94-10.6-15.16-25.45-15.16-44.69,0-12.07,2.45-22.67,7.5-31.97,5.05-9.3,12.23-16.48,21.53-21.53,9.3-5.05,20.06-7.67,32.13-7.67,13.05,0,24.79,2.44,35.23,7.18l-3.42,7.5c-10.44-4.73-21.2-7.18-32.3-7.18-15.82,0-28.38,4.73-37.51,14.35-9.13,9.62-13.87,22.51-13.87,38.82,0,17.78,4.41,31.15,13.21,40.12,8.81,8.97,21.69,13.37,38.82,13.37,11.09,0,20.39-1.47,28.05-4.56v-41.42h-35.72v-7.67h-.15Z"/><polygon class="c" points="950.1 81.81 985.82 16.08 994.95 16.08 954.34 89.81 954.34 136.29 945.53 136.29 945.53 90.46 904.75 16.08 914.54 16.08 950.1 81.81"/></g><g><path d="M37.91,233.97c0,3.28-.83,6.02-2.48,8.23-1.65,2.21-3.89,3.88-6.71,4.99-2.83,1.11-6.02,1.67-9.6,1.67-2.23,0-4.24-.11-6.06-.32-1.81-.21-3.45-.49-4.91-.84-1.46-.35-2.79-.75-3.99-1.2v-3.86c1.95,.75,4.21,1.41,6.77,1.97,2.56,.56,5.36,.84,8.38,.84,2.85,0,5.38-.41,7.59-1.24,2.21-.82,3.96-2.07,5.23-3.75,1.27-1.67,1.91-3.79,1.91-6.34,0-2.25-.53-4.09-1.59-5.53s-2.66-2.67-4.78-3.71c-2.13-1.04-4.8-2.09-8.02-3.17-2.25-.77-4.29-1.59-6.13-2.46-1.84-.86-3.41-1.86-4.71-3-1.3-1.14-2.29-2.51-2.98-4.12-.69-1.61-1.03-3.52-1.03-5.72,0-3.02,.77-5.57,2.31-7.63,1.54-2.06,3.62-3.62,6.26-4.69,2.64-1.06,5.61-1.59,8.91-1.59,2.62,0,5.12,.24,7.48,.73,2.36,.49,4.64,1.22,6.84,2.19l-1.35,3.34c-2.2-.95-4.4-1.65-6.6-2.1-2.2-.45-4.38-.67-6.52-.67-2.58,0-4.87,.38-6.88,1.14-2.01,.76-3.61,1.91-4.78,3.43-1.18,1.52-1.76,3.45-1.76,5.77s.54,4.34,1.63,5.81c1.09,1.48,2.64,2.7,4.65,3.67,2.01,.97,4.39,1.93,7.14,2.85,3.25,1.1,6.05,2.26,8.4,3.47,2.35,1.21,4.17,2.74,5.46,4.59,1.29,1.85,1.93,4.26,1.93,7.24Z"/><path d="M59.66,245.6c1.17,0,2.27-.09,3.28-.26,1.01-.17,1.91-.4,2.68-.67v3.15c-.8,.28-1.74,.52-2.81,.73-1.08,.21-2.26,.32-3.56,.32-2.3,0-4.21-.43-5.74-1.29-1.53-.86-2.68-2.17-3.45-3.94s-1.16-4.01-1.16-6.73v-26.4h-6.07v-2.25l6.04-1.16,1.31-9.6h2.51v9.86h12.71v3.15h-12.71v26.17c0,2.92,.54,5.14,1.63,6.66s2.87,2.27,5.34,2.27Z"/><path d="M88.57,206.64c4.48,0,7.82,1.12,10.05,3.38s3.34,5.84,3.34,10.76v27.34h-2.93l-.67-7.12h-.23c-.88,1.53-1.94,2.88-3.19,4.07-1.25,1.19-2.78,2.12-4.59,2.79s-4.02,1.01-6.62,1.01-4.87-.44-6.73-1.31c-1.86-.88-3.3-2.15-4.31-3.83-1.01-1.67-1.52-3.71-1.52-6.11,0-4.05,1.67-7.13,5.02-9.24,3.35-2.11,8.16-3.31,14.44-3.58l7.58-.38v-2.96c0-4.17-.83-7.15-2.48-8.92-1.65-1.77-4.09-2.66-7.31-2.66-2.1,0-4.12,.27-6.06,.81-1.94,.54-3.91,1.31-5.91,2.31l-1.2-3.15c1.95-.92,4.04-1.69,6.28-2.29,2.24-.6,4.58-.9,7.03-.9Zm9.6,20.74l-7.12,.3c-5.17,.25-9.11,1.18-11.81,2.78-2.7,1.6-4.05,4-4.05,7.2,0,2.58,.81,4.55,2.42,5.92,1.61,1.38,3.86,2.06,6.73,2.06,4.47,0,7.89-1.28,10.26-3.83,2.36-2.55,3.56-6.02,3.58-10.42v-4.01Z"/><path d="M132.97,206.56c4.58,0,8.09,1.2,10.54,3.6,2.45,2.4,3.67,6.16,3.67,11.29v26.66h-3.75v-26.44c0-4.05-.92-7.02-2.77-8.92-1.85-1.9-4.54-2.85-8.06-2.85-4.48,0-7.89,1.31-10.26,3.92s-3.54,6.56-3.54,11.83v22.46h-3.79v-40.76h3.07l.56,7.42h.23c.72-1.52,1.72-2.91,2.98-4.14,1.26-1.24,2.82-2.22,4.67-2.96,1.85-.74,4-1.11,6.45-1.11Z"/><path d="M175.12,248.86c-5.58,0-9.82-1.76-12.73-5.27-2.91-3.51-4.37-8.63-4.37-15.36s1.54-12.42,4.61-16.12c3.07-3.7,7.36-5.55,12.86-5.55,2.35,0,4.39,.36,6.13,1.09,1.74,.73,3.2,1.71,4.39,2.94,1.19,1.24,2.11,2.64,2.76,4.22h.3c-.1-1.32-.18-2.75-.23-4.27-.05-1.52-.08-2.92-.08-4.2v-16.58h3.79v58.35h-3.07l-.49-7.46h-.23c-.67,1.5-1.61,2.88-2.79,4.12-1.19,1.25-2.67,2.24-4.44,2.98-1.78,.74-3.91,1.11-6.41,1.11Zm.41-3.3c4.8,0,8.21-1.49,10.24-4.48,2.03-2.99,3.04-7.26,3.04-12.81v-.6c0-5.75-1.01-10.16-3.04-13.22-2.02-3.06-5.32-4.59-9.9-4.59s-7.98,1.57-10.37,4.72c-2.39,3.15-3.58,7.72-3.58,13.72,0,5.65,1.12,9.94,3.36,12.86,2.24,2.92,5.66,4.39,10.26,4.39Z"/><path d="M220.31,206.64c4.48,0,7.82,1.12,10.05,3.38s3.34,5.84,3.34,10.76v27.34h-2.93l-.67-7.12h-.23c-.88,1.53-1.94,2.88-3.19,4.07-1.25,1.19-2.78,2.12-4.59,2.79s-4.02,1.01-6.62,1.01-4.87-.44-6.73-1.31c-1.86-.88-3.3-2.15-4.31-3.83-1.01-1.67-1.52-3.71-1.52-6.11,0-4.05,1.67-7.13,5.02-9.24,3.35-2.11,8.16-3.31,14.44-3.58l7.58-.38v-2.96c0-4.17-.83-7.15-2.48-8.92-1.65-1.77-4.09-2.66-7.31-2.66-2.1,0-4.12,.27-6.06,.81-1.94,.54-3.91,1.31-5.91,2.31l-1.2-3.15c1.95-.92,4.04-1.69,6.28-2.29,2.24-.6,4.58-.9,7.03-.9Zm9.6,20.74l-7.12,.3c-5.17,.25-9.11,1.18-11.81,2.78-2.7,1.6-4.05,4-4.05,7.2,0,2.58,.81,4.55,2.42,5.92,1.61,1.38,3.86,2.06,6.73,2.06,4.47,0,7.89-1.28,10.26-3.83,2.36-2.55,3.56-6.02,3.58-10.42v-4.01Z"/><path d="M262.98,206.64c1.07,0,2.09,.06,3.04,.19,.95,.13,1.84,.3,2.66,.53l-.6,3.49c-.82-.22-1.66-.39-2.51-.51-.85-.11-1.76-.17-2.74-.17-1.93,0-3.64,.36-5.16,1.09-1.51,.73-2.79,1.76-3.84,3.11-1.05,1.35-1.85,2.97-2.4,4.87-.55,1.9-.83,4.03-.83,6.38v22.5h-3.82v-40.76h3.26l.38,7.69h.23c.62-1.58,1.51-2.99,2.64-4.26,1.14-1.26,2.52-2.27,4.14-3.02s3.47-1.12,5.55-1.12Z"/><path d="M291.41,248.86c-5.58,0-9.82-1.76-12.73-5.27-2.91-3.51-4.37-8.63-4.37-15.36s1.54-12.42,4.61-16.12c3.07-3.7,7.36-5.55,12.86-5.55,2.35,0,4.39,.36,6.13,1.09,1.74,.73,3.2,1.71,4.39,2.94,1.19,1.24,2.11,2.64,2.76,4.22h.3c-.1-1.32-.18-2.75-.23-4.27-.05-1.52-.08-2.92-.08-4.2v-16.58h3.79v58.35h-3.07l-.49-7.46h-.23c-.67,1.5-1.61,2.88-2.79,4.12-1.19,1.25-2.67,2.24-4.44,2.98-1.78,.74-3.91,1.11-6.41,1.11Zm.41-3.3c4.8,0,8.21-1.49,10.24-4.48,2.03-2.99,3.04-7.26,3.04-12.81v-.6c0-5.75-1.01-10.16-3.04-13.22-2.02-3.06-5.32-4.59-9.9-4.59s-7.98,1.57-10.37,4.72c-2.39,3.15-3.58,7.72-3.58,13.72,0,5.65,1.12,9.94,3.36,12.86,2.24,2.92,5.66,4.39,10.26,4.39Z"/><path d="M347.85,237.42c0,2.43-.61,4.49-1.82,6.21-1.21,1.71-2.98,3.01-5.31,3.9-2.32,.89-5.19,1.33-8.59,1.33-2.83,0-5.35-.25-7.57-.75-2.23-.5-4.09-1.11-5.59-1.84v-3.75c1.88,.93,3.95,1.68,6.23,2.25,2.27,.58,4.61,.86,7.01,.86,4.2,0,7.22-.71,9.07-2.14s2.77-3.38,2.77-5.85c0-1.62-.46-2.97-1.37-4.03s-2.22-1.98-3.92-2.76c-1.7-.77-3.75-1.56-6.15-2.36-2.5-.85-4.72-1.69-6.66-2.53-1.94-.84-3.46-1.95-4.56-3.34-1.1-1.39-1.65-3.28-1.65-5.68,0-3.27,1.31-5.82,3.94-7.65,2.62-1.83,6.15-2.74,10.57-2.74,2.45,0,4.73,.23,6.84,.69,2.11,.46,4.03,1.06,5.76,1.78l-1.35,3.22c-1.55-.72-3.34-1.31-5.36-1.76-2.02-.45-4.05-.67-6.07-.67-3.33,0-5.92,.59-7.8,1.76-1.88,1.18-2.81,2.9-2.81,5.17,0,1.75,.45,3.12,1.35,4.11,.9,.99,2.19,1.81,3.86,2.47,1.67,.66,3.66,1.39,5.96,2.19,2.37,.82,4.57,1.69,6.58,2.59,2.01,.9,3.62,2.06,4.82,3.49,1.2,1.42,1.8,3.36,1.8,5.81Z"/><path d="M392.32,206.64c4.48,0,7.82,1.12,10.05,3.38s3.34,5.84,3.34,10.76v27.34h-2.93l-.67-7.12h-.23c-.88,1.53-1.94,2.88-3.19,4.07-1.25,1.19-2.78,2.12-4.59,2.79s-4.02,1.01-6.62,1.01-4.87-.44-6.73-1.31c-1.86-.88-3.3-2.15-4.31-3.83-1.01-1.67-1.52-3.71-1.52-6.11,0-4.05,1.67-7.13,5.02-9.24,3.35-2.11,8.16-3.31,14.44-3.58l7.58-.38v-2.96c0-4.17-.83-7.15-2.48-8.92-1.65-1.77-4.09-2.66-7.31-2.66-2.1,0-4.12,.27-6.06,.81-1.94,.54-3.91,1.31-5.91,2.31l-1.2-3.15c1.95-.92,4.04-1.69,6.28-2.29,2.24-.6,4.58-.9,7.03-.9Zm9.6,20.74l-7.12,.3c-5.17,.25-9.11,1.18-11.81,2.78-2.7,1.6-4.05,4-4.05,7.2,0,2.58,.81,4.55,2.42,5.92,1.61,1.38,3.86,2.06,6.73,2.06,4.47,0,7.89-1.28,10.26-3.83,2.36-2.55,3.56-6.02,3.58-10.42v-4.01Z"/><path d="M436.72,206.56c4.58,0,8.09,1.2,10.54,3.6,2.45,2.4,3.67,6.16,3.67,11.29v26.66h-3.75v-26.44c0-4.05-.92-7.02-2.77-8.92-1.85-1.9-4.54-2.85-8.06-2.85-4.48,0-7.89,1.31-10.26,3.92s-3.54,6.56-3.54,11.83v22.46h-3.79v-40.76h3.07l.56,7.42h.23c.72-1.52,1.72-2.91,2.98-4.14,1.26-1.24,2.82-2.22,4.67-2.96,1.85-.74,4-1.11,6.45-1.11Z"/><path d="M478.87,248.86c-5.58,0-9.82-1.76-12.73-5.27-2.91-3.51-4.37-8.63-4.37-15.36s1.54-12.42,4.61-16.12c3.07-3.7,7.36-5.55,12.86-5.55,2.35,0,4.39,.36,6.13,1.09,1.74,.73,3.2,1.71,4.39,2.94,1.19,1.24,2.11,2.64,2.76,4.22h.3c-.1-1.32-.18-2.75-.23-4.27-.05-1.52-.08-2.92-.08-4.2v-16.58h3.79v58.35h-3.07l-.49-7.46h-.23c-.67,1.5-1.61,2.88-2.79,4.12-1.19,1.25-2.67,2.24-4.44,2.98-1.78,.74-3.91,1.11-6.41,1.11Zm.41-3.3c4.8,0,8.21-1.49,10.24-4.48,2.03-2.99,3.04-7.26,3.04-12.81v-.6c0-5.75-1.01-10.16-3.04-13.22-2.02-3.06-5.32-4.59-9.9-4.59s-7.98,1.57-10.37,4.72c-2.39,3.15-3.58,7.72-3.58,13.72,0,5.65,1.12,9.94,3.36,12.86,2.24,2.92,5.66,4.39,10.26,4.39Z"/><path d="M560.92,233.97c0,3.28-.83,6.02-2.48,8.23-1.65,2.21-3.89,3.88-6.71,4.99s-6.03,1.67-9.6,1.67c-2.23,0-4.24-.11-6.06-.32-1.81-.21-3.45-.49-4.91-.84-1.46-.35-2.79-.75-3.99-1.2v-3.86c1.95,.75,4.21,1.41,6.77,1.97s5.36,.84,8.38,.84c2.85,0,5.38-.41,7.59-1.24,2.21-.82,3.96-2.07,5.23-3.75,1.28-1.67,1.91-3.79,1.91-6.34,0-2.25-.53-4.09-1.59-5.53-1.06-1.44-2.66-2.67-4.78-3.71-2.12-1.04-4.8-2.09-8.03-3.17-2.25-.77-4.29-1.59-6.13-2.46-1.84-.86-3.41-1.86-4.71-3-1.3-1.14-2.29-2.51-2.98-4.12s-1.03-3.52-1.03-5.72c0-3.02,.77-5.57,2.31-7.63,1.54-2.06,3.62-3.62,6.26-4.69s5.61-1.59,8.91-1.59c2.62,0,5.12,.24,7.48,.73,2.36,.49,4.64,1.22,6.84,2.19l-1.35,3.34c-2.2-.95-4.4-1.65-6.6-2.1s-4.38-.67-6.52-.67c-2.58,0-4.87,.38-6.88,1.14s-3.61,1.91-4.78,3.43c-1.17,1.52-1.76,3.45-1.76,5.77s.54,4.34,1.63,5.81c1.09,1.48,2.64,2.7,4.65,3.67,2.01,.97,4.39,1.93,7.14,2.85,3.25,1.1,6.05,2.26,8.4,3.47,2.35,1.21,4.17,2.74,5.46,4.59,1.29,1.85,1.93,4.26,1.93,7.24Z"/><path d="M589.72,206.56c5.25,0,9.32,1.76,12.21,5.29,2.89,3.52,4.33,8.72,4.33,15.6,0,4.6-.69,8.49-2.06,11.68-1.38,3.19-3.33,5.61-5.87,7.26-2.54,1.65-5.58,2.47-9.13,2.47-2.45,0-4.58-.37-6.39-1.11-1.81-.74-3.32-1.74-4.52-3-1.2-1.26-2.13-2.66-2.78-4.18h-.26c.08,1.42,.14,2.91,.19,4.46,.05,1.55,.08,3.01,.08,4.39v16.72h-3.83v-58.8h3.15l.45,8.14h.22c.67-1.55,1.62-3.01,2.85-4.39s2.78-2.48,4.65-3.3c1.88-.83,4.11-1.24,6.71-1.24Zm-.49,3.34c-3.08,0-5.63,.67-7.67,2.01-2.04,1.34-3.55,3.29-4.54,5.85s-1.49,5.69-1.52,9.39v.64c0,3.97,.49,7.28,1.48,9.92,.99,2.64,2.47,4.61,4.46,5.91,1.99,1.3,4.46,1.95,7.41,1.95s5.35-.71,7.35-2.14c2-1.42,3.52-3.49,4.57-6.19s1.58-5.97,1.58-9.82c0-5.72-1.09-10.08-3.28-13.05-2.19-2.98-5.47-4.46-9.84-4.46Z"/><path d="M632.8,206.56c3.47,0,6.37,.81,8.68,2.44,2.31,1.63,4.04,3.85,5.17,6.67,1.14,2.83,1.71,6.06,1.71,9.71v2.74h-29.44c0,5.6,1.29,9.9,3.88,12.9,2.59,3,6.29,4.5,11.12,4.5,2.53,0,4.72-.21,6.58-.62,1.86-.41,3.93-1.12,6.21-2.12v3.49c-2,.9-4,1.56-6,1.97-2,.41-4.3,.62-6.9,.62-4.12,0-7.58-.86-10.37-2.57-2.79-1.71-4.89-4.13-6.3-7.26-1.41-3.12-2.12-6.77-2.12-10.95s.68-7.74,2.04-10.99c1.36-3.25,3.36-5.82,6-7.71,2.64-1.89,5.88-2.83,9.73-2.83Zm-.04,3.26c-3.9,0-7.06,1.29-9.47,3.88-2.41,2.59-3.83,6.32-4.26,11.19h25.39c0-2.97-.42-5.6-1.27-7.88-.85-2.27-2.13-4.04-3.84-5.31-1.71-1.26-3.89-1.89-6.54-1.89Z"/><path d="M675.89,248.86c-4.05,0-7.47-.84-10.26-2.53-2.79-1.69-4.89-4.1-6.3-7.24-1.41-3.14-2.12-6.86-2.12-11.16s.81-8.31,2.44-11.49,3.91-5.63,6.86-7.33,6.41-2.55,10.39-2.55c1.95,0,3.76,.18,5.44,.53,1.67,.35,3.19,.84,4.54,1.46l-1.01,3.34c-1.4-.62-2.89-1.1-4.46-1.42-1.58-.32-3.09-.49-4.54-.49-3.35,0-6.19,.73-8.53,2.19-2.34,1.46-4.12,3.54-5.36,6.22-1.24,2.69-1.86,5.86-1.86,9.51,0,3.42,.52,6.46,1.57,9.09,1.05,2.64,2.66,4.71,4.84,6.22s4.96,2.27,8.36,2.27c1.97,0,3.86-.2,5.64-.6,1.79-.4,3.42-.91,4.89-1.54v3.45c-1.33,.6-2.86,1.09-4.59,1.48-1.74,.39-3.72,.58-5.94,.58Z"/><path d="M697.98,192.28c.95,0,1.65,.28,2.1,.84s.67,1.32,.67,2.27-.22,1.7-.67,2.25c-.45,.55-1.15,.83-2.1,.83-.9,0-1.58-.27-2.03-.83-.45-.55-.67-1.3-.67-2.25s.22-1.71,.67-2.27,1.12-.84,2.03-.84Zm1.84,15.08v40.76h-3.79v-40.76h3.79Z"/><path d="M728.58,210.5h-9.6v37.61h-3.79v-37.61h-7.58v-2.25l7.58-.97v-4.5c0-3,.43-5.49,1.29-7.48,.86-1.99,2.17-3.47,3.94-4.46s3.99-1.48,6.69-1.48c1.4,0,2.66,.11,3.79,.32,1.12,.21,2.18,.48,3.15,.81l-.86,3.19c-.88-.3-1.84-.55-2.91-.75-1.06-.2-2.11-.3-3.13-.3-2.88,0-4.96,.79-6.24,2.38-1.29,1.59-1.93,4.17-1.93,7.74v4.61h9.6v3.15Zm9.82-18.22c.95,0,1.65,.28,2.1,.84,.45,.56,.67,1.32,.67,2.27s-.23,1.7-.67,2.25c-.45,.55-1.15,.83-2.1,.83-.9,0-1.57-.27-2.02-.83-.45-.55-.67-1.3-.67-2.25s.22-1.71,.67-2.27,1.12-.84,2.02-.84Zm1.84,15.08v40.76h-3.79v-40.76h3.79Z"/><path d="M770.16,248.86c-4.05,0-7.47-.84-10.26-2.53-2.79-1.69-4.89-4.1-6.3-7.24-1.41-3.14-2.12-6.86-2.12-11.16s.81-8.31,2.44-11.49,3.91-5.63,6.86-7.33,6.41-2.55,10.39-2.55c1.95,0,3.76,.18,5.44,.53,1.67,.35,3.19,.84,4.54,1.46l-1.01,3.34c-1.4-.62-2.89-1.1-4.46-1.42-1.58-.32-3.09-.49-4.54-.49-3.35,0-6.19,.73-8.53,2.19-2.34,1.46-4.12,3.54-5.36,6.22-1.24,2.69-1.86,5.86-1.86,9.51,0,3.42,.52,6.46,1.57,9.09,1.05,2.64,2.66,4.71,4.84,6.22s4.96,2.27,8.36,2.27c1.97,0,3.86-.2,5.64-.6,1.79-.4,3.42-.91,4.89-1.54v3.45c-1.33,.6-2.86,1.09-4.59,1.48-1.74,.39-3.72,.58-5.94,.58Z"/><path d="M804.55,206.64c4.47,0,7.82,1.12,10.05,3.38,2.22,2.25,3.34,5.84,3.34,10.76v27.34h-2.92l-.67-7.12h-.22c-.88,1.53-1.94,2.88-3.19,4.07-1.25,1.19-2.78,2.12-4.59,2.79-1.81,.67-4.02,1.01-6.62,1.01s-4.87-.44-6.73-1.31-3.3-2.15-4.31-3.83c-1.01-1.67-1.52-3.71-1.52-6.11,0-4.05,1.67-7.13,5.03-9.24,3.35-2.11,8.16-3.31,14.44-3.58l7.57-.38v-2.96c0-4.17-.82-7.15-2.47-8.92-1.65-1.77-4.09-2.66-7.31-2.66-2.1,0-4.12,.27-6.06,.81-1.94,.54-3.91,1.31-5.91,2.31l-1.2-3.15c1.95-.92,4.04-1.69,6.28-2.29,2.24-.6,4.58-.9,7.03-.9Zm9.6,20.74l-7.12,.3c-5.17,.25-9.11,1.18-11.81,2.78s-4.05,4-4.05,7.2c0,2.58,.81,4.55,2.42,5.92s3.86,2.06,6.73,2.06c4.47,0,7.89-1.28,10.26-3.83s3.56-6.02,3.58-10.42v-4.01Z"/><path d="M842.01,245.6c1.17,0,2.27-.09,3.28-.26,1.01-.17,1.91-.4,2.68-.67v3.15c-.8,.28-1.74,.52-2.81,.73-1.08,.21-2.26,.32-3.56,.32-2.3,0-4.21-.43-5.74-1.29-1.53-.86-2.68-2.17-3.45-3.94-.78-1.76-1.16-4.01-1.16-6.73v-26.4h-6.08v-2.25l6.04-1.16,1.31-9.6h2.51v9.86h12.71v3.15h-12.71v26.17c0,2.92,.54,5.14,1.63,6.66,1.09,1.51,2.87,2.27,5.34,2.27Z"/><path d="M858.63,192.28c.95,0,1.65,.28,2.1,.84s.67,1.32,.67,2.27-.22,1.7-.67,2.25c-.45,.55-1.15,.83-2.1,.83-.9,0-1.58-.27-2.03-.83-.45-.55-.67-1.3-.67-2.25s.22-1.71,.67-2.27,1.12-.84,2.03-.84Zm1.84,15.08v40.76h-3.79v-40.76h3.79Z"/><path d="M907.86,227.67c0,3.15-.39,6.02-1.16,8.61-.78,2.59-1.93,4.82-3.45,6.69-1.53,1.88-3.42,3.33-5.68,4.35-2.26,1.02-4.89,1.54-7.89,1.54s-5.39-.51-7.61-1.52c-2.22-1.01-4.11-2.46-5.64-4.33-1.54-1.88-2.71-4.11-3.51-6.69-.8-2.59-1.2-5.47-1.2-8.64,0-4.37,.73-8.14,2.19-11.31,1.46-3.16,3.56-5.59,6.3-7.28,2.74-1.69,6.02-2.53,9.84-2.53s7.24,.89,9.88,2.68c2.64,1.79,4.62,4.27,5.94,7.44,1.33,3.18,1.99,6.84,1.99,10.99Zm-32.25,0c0,3.58,.51,6.7,1.54,9.38,1.02,2.68,2.58,4.76,4.67,6.26,2.09,1.5,4.73,2.25,7.93,2.25s5.96-.75,8.06-2.25c2.1-1.5,3.65-3.6,4.65-6.3,1-2.7,1.5-5.81,1.5-9.34s-.48-6.47-1.43-9.15-2.45-4.78-4.5-6.32c-2.05-1.54-4.73-2.31-8.03-2.31-4.72,0-8.31,1.58-10.74,4.72-2.44,3.15-3.66,7.5-3.66,13.05Z"/><path d="M937.04,206.56c4.58,0,8.09,1.2,10.54,3.6,2.45,2.4,3.68,6.16,3.68,11.29v26.66h-3.75v-26.44c0-4.05-.93-7.02-2.78-8.92-1.85-1.9-4.54-2.85-8.06-2.85-4.48,0-7.89,1.31-10.26,3.92s-3.54,6.56-3.54,11.83v22.46h-3.79v-40.76h3.08l.56,7.42h.22c.72-1.52,1.72-2.91,2.98-4.14,1.26-1.24,2.82-2.22,4.67-2.96,1.85-.74,4-1.11,6.45-1.11Z"/><path d="M989.91,237.42c0,2.43-.61,4.49-1.82,6.21-1.21,1.71-2.98,3.01-5.31,3.9-2.33,.89-5.19,1.33-8.59,1.33-2.83,0-5.35-.25-7.58-.75-2.22-.5-4.09-1.11-5.59-1.84v-3.75c1.88,.93,3.95,1.68,6.22,2.25,2.27,.58,4.61,.86,7.01,.86,4.2,0,7.22-.71,9.08-2.14,1.85-1.42,2.77-3.38,2.77-5.85,0-1.62-.46-2.97-1.37-4.03-.91-1.06-2.22-1.98-3.92-2.76-1.7-.77-3.75-1.56-6.15-2.36-2.5-.85-4.72-1.69-6.66-2.53-1.94-.84-3.46-1.95-4.56-3.34-1.1-1.39-1.65-3.28-1.65-5.68,0-3.27,1.31-5.82,3.94-7.65s6.15-2.74,10.58-2.74c2.45,0,4.73,.23,6.84,.69,2.11,.46,4.03,1.06,5.76,1.78l-1.35,3.22c-1.55-.72-3.34-1.31-5.36-1.76-2.03-.45-4.05-.67-6.08-.67-3.33,0-5.92,.59-7.8,1.76-1.88,1.18-2.81,2.9-2.81,5.17,0,1.75,.45,3.12,1.35,4.11,.9,.99,2.19,1.81,3.86,2.47,1.67,.66,3.66,1.39,5.96,2.19,2.38,.82,4.57,1.69,6.58,2.59,2.01,.9,3.62,2.06,4.82,3.49,1.2,1.42,1.8,3.36,1.8,5.81Z"/></g></svg>