<?xml version="1.0" encoding="UTF-8" standalone="no"?>
<svg
   version="1.1"
   id="svg4"
   width="42.703129"
   height="9.2988281"
   xmlns="http://www.w3.org/2000/svg"
   xmlns:svg="http://www.w3.org/2000/svg">
  <defs
     id="defs8" />
  <g
     aria-label="lowtran"
     id="text2"
     transform="translate(-1.0957031,9.1171875)">
    <path
       d="M 2.1972656,0 H 1.0957031 v -9.1171875 h 1.1015625 z"
       id="path10" />
    <path
       d="m 9.9550781,-3.2695313 q 0,1.5996094 -0.8203125,2.52539068 Q 8.3144531,0.18164062 6.9375,0.18164062 q -1.3886719,0 -2.2089844,-0.92578124 -0.8144531,-0.92578128 -0.8144531,-2.52539068 0,-1.5996093 0.8144531,-2.5253906 0.8203125,-0.9316406 2.2089844,-0.9316406 1.3769531,0 2.1972656,0.9316406 0.8203125,0.9257813 0.8203125,2.5253906 z m -1.1367187,0 q 0,-1.2714843 -0.4980469,-1.8867187 Q 7.8222656,-5.7773437 6.9375,-5.7773437 q -0.8964844,0 -1.3945313,0.6210937 -0.4921875,0.6152344 -0.4921875,1.8867187 0,1.2304688 0.4980469,1.8691407 0.4980469,0.63281248 1.3886719,0.63281248 0.8789062,0 1.3769531,-0.62695308 0.5039063,-0.6328126 0.5039063,-1.8750001 z"
       id="path12" />
    <path
       d="M 19.892578,-6.5449219 18.1875,0 H 17.167969 L 15.486328,-5.0449219 13.816406,0 h -1.013672 l -1.722656,-6.5449219 h 1.148438 l 1.201172,5.0683594 1.634765,-5.0683594 h 0.908203 l 1.675781,5.0683594 1.136719,-5.0683594 z"
       id="path14" />
    <path
       d="m 24.878906,-0.05859375 q -0.310547,0.08203125 -0.679687,0.13476562 -0.363282,0.05273438 -0.650391,0.05273438 -1.001953,0 -1.523437,-0.5390625 -0.521485,-0.5390625 -0.521485,-1.72851565 v -3.4804687 h -0.74414 v -0.9257813 h 0.74414 v -1.8808594 h 1.101563 v 1.8808594 h 2.273437 v 0.9257813 h -2.273437 v 2.9824218 q 0,0.515625 0.02344,0.8085938 0.02344,0.2871094 0.164063,0.5390625 0.128906,0.234375 0.351562,0.34570312 0.228516,0.10546875 0.691406,0.10546875 0.269532,0 0.5625,-0.0761719 0.292969,-0.0820313 0.421875,-0.13476557 h 0.05859 z"
       id="path16" />
    <path
       d="m 30.292969,-5.34375 h -0.05859 q -0.246094,-0.058594 -0.480469,-0.082031 -0.228515,-0.029297 -0.544922,-0.029297 -0.509765,0 -0.984375,0.2285156 -0.474613,0.2226562 -0.914066,0.580078 V 0 h -1.101563 v -6.5449219 h 1.101563 v 0.9667969 q 0.65625,-0.5273437 1.154297,-0.7441406 0.503906,-0.2226563 1.02539,-0.2226563 0.28711,0 0.416016,0.017578 0.128906,0.011719 0.386719,0.052734 z"
       id="path18" />
    <path
       d="m 36.205078,0 h -1.095703 v -0.69726562 q -0.146484,0.0996094 -0.398438,0.28124999 -0.246093,0.17578125 -0.480468,0.28125001 Q 33.955078,0 33.597656,0.08789062 q -0.357422,0.09375 -0.83789,0.09375 -0.884766,0 -1.5,-0.5859375 -0.615235,-0.5859375 -0.615235,-1.49414062 0,-0.7441406 0.316406,-1.2011719 0.322266,-0.4628906 0.914063,-0.7265625 0.597656,-0.2636718 1.435547,-0.3574218 0.83789,-0.09375 1.798828,-0.140625 v -0.1699219 q 0,-0.375 -0.134766,-0.6210938 -0.128906,-0.2460937 -0.375,-0.3867187 -0.234375,-0.1347656 -0.5625,-0.1816406 -0.328125,-0.046875 -0.685547,-0.046875 -0.433593,0 -0.966796,0.1171875 -0.533204,0.1113281 -1.101563,0.328125 h -0.05859 v -1.1191407 q 0.322266,-0.087891 0.931641,-0.1933593 0.609375,-0.1054688 1.201172,-0.1054688 0.691406,0 1.201172,0.1171875 0.515625,0.1113281 0.890625,0.3867188 0.36914,0.2695312 0.5625,0.6972656 0.193359,0.4277344 0.193359,1.0605469 z m -1.095703,-1.6113281 v -1.8222657 q -0.503906,0.029297 -1.189453,0.087891 -0.679688,0.058594 -1.078125,0.1699218 -0.47461,0.1347657 -0.767578,0.421875 -0.292969,0.28125 -0.292969,0.7792969 0,0.5625 0.339844,0.8496094 0.339843,0.28125 1.037109,0.28125 0.580078,0 1.060547,-0.2226562 0.480469,-0.2285157 0.890625,-0.5449222 z"
       id="path20" />
    <path
       d="m 43.798828,0 h -1.101562 v -3.7265625 q 0,-0.4511719 -0.05273,-0.84375 -0.05273,-0.3984375 -0.193359,-0.6210937 -0.146485,-0.2460938 -0.421875,-0.3632813 -0.275391,-0.1230469 -0.714844,-0.1230469 -0.451172,0 -0.943359,0.2226563 -0.492188,0.2226562 -0.94336,0.5683594 V 0 h -1.101562 v -6.5449219 h 1.101562 v 0.7265625 q 0.515625,-0.4277343 1.066407,-0.6679687 0.550781,-0.2402344 1.130859,-0.2402344 1.060547,0 1.617187,0.6386719 0.556641,0.6386719 0.556641,1.8398437 z"
       id="path22" />
  </g>
</svg>
