<?xml version="1.0" encoding="UTF-8" standalone="no"?>
<!-- Created with Inkscape (http://www.inkscape.org/) -->

<svg
   version="1.1"
   id="svg3414"
   width="440"
   height="93"
   viewBox="0 0 440 93"
   sodipodi:docname="MAAP.svg"
   inkscape:version="1.2.2 (b0a84865, 2022-12-01)"
   xmlns:inkscape="http://www.inkscape.org/namespaces/inkscape"
   xmlns:sodipodi="http://sodipodi.sourceforge.net/DTD/sodipodi-0.dtd"
   xmlns="http://www.w3.org/2000/svg"
   xmlns:svg="http://www.w3.org/2000/svg">
  <defs
     id="defs3418" />
  <sodipodi:namedview
     id="namedview3416"
     pagecolor="#ffffff"
     bordercolor="#666666"
     borderopacity="1.0"
     inkscape:showpageshadow="2"
     inkscape:pageopacity="0.0"
     inkscape:pagecheckerboard="0"
     inkscape:deskcolor="#d1d1d1"
     showgrid="false"
     inkscape:zoom="2.5376344"
     inkscape:cx="220.2839"
     inkscape:cy="46.5"
     inkscape:window-width="745"
     inkscape:window-height="480"
     inkscape:window-x="0"
     inkscape:window-y="25"
     inkscape:window-maximized="0"
     inkscape:current-layer="g3420" />
  <g
     inkscape:groupmode="layer"
     inkscape:label="Image"
     id="g3420">
    <g
       id="g3541">
      <path
         style="fill:#e9a06d"
         d="m 69,84.459017 c 0,-3.487541 0.45,-6.619098 1,-6.959017 0.55,-0.339919 0.993109,-1.153976 0.984687,-1.809017 -0.01018,-0.791706 -0.30517,-0.733463 -0.879913,0.173729 -0.684496,1.08043 -1.530982,0.770963 -4.063606,-1.485614 C 63.569023,72.176406 62.93435,70.900663 63.247889,68.764385 63.51707,66.930336 63.207086,66 62.326807,66 61.597063,66 61,65.1 61,64 61,62.293333 60.333333,62 56.454545,62 53.0725,62 51.33253,61.423439 49.656458,59.747367 46.768855,56.859764 45.951844,54.680786 47.09252,52.909316 47.866062,51.708005 48.14341,51.72139 48.971659,53 c 0.669009,1.032785 0.772985,0.254092 0.333816,-2.5 -0.603717,-3.785993 -0.53994,-3.919747 1.192061,-2.5 1.713358,1.404466 1.753546,1.356699 0.631,-0.75 C 50.469139,46.0125 49.270465,45 48.464816,45 47.659167,45 47,44.55 47,44 c 0,-0.55 -0.762938,-1 -1.695417,-1 -1.194212,0 -0.583762,-1.018237 2.064957,-3.444368 3.159719,-2.894191 3.592994,-3.75712 2.712502,-5.402335 -0.778996,-1.455567 -2.335375,-2.047174 -6.065578,-2.305631 -4.570963,-0.316712 -5.017652,-0.156866 -5.017086,1.795345 3.42e-4,1.178656 0.724322,2.420721 1.608844,2.760144 1.173825,0.450439 1.498173,1.559776 1.200801,4.106989 C 41.52828,42.914908 41.805558,44 42.700801,44 43.41536,44 44,44.675 44,45.5 44,46.333333 43.111111,47 42,47 40.9,47 40,46.55 40,46 40,45.45 38.2,45 36,45 33.111111,45 32,44.583333 32,43.5 32,42.675 31.401041,42 30.66898,42 29.936919,42 28.735878,40.875 28,39.5 27.264122,38.125 26.063081,37 25.33102,37 24.54662,37 23.998382,35.870637 23.99606,34.25 L 23.99216,31.5 H 15.168599 C 6.5908628,31.5 6.2565986,31.411584 3.1724993,28.326923 0.05089375,25.204749 0,25.000212 0,15.576923 0,9.8589744 0.40294511,6 1,6 1.55,6 2,5.325 2,4.5 2,3.675 2.675,3 3.5,3 4.325,3 5,2.55 5,2 5,1.3636364 13,1 27,1 c 14,0 22,0.3636364 22,1 0,0.55 0.675,1 1.5,1 0.825,0 1.5,0.675 1.5,1.5 0,0.825 0.675,1.5 1.5,1.5 1.233333,0 1.5,1.7777778 1.5,10 0,7.982898 -0.287105,10 -1.423355,10 -1.195707,0 -1.16856,0.51075 0.169733,3.193422 1.147365,2.299947 1.265814,3.302514 0.423356,3.583333 C 53.52638,32.991207 53,34.029167 53,35.083333 53,36.1375 52.55,37 52,37 c -0.55,0 -1,0.972506 -1,2.161125 0,1.895063 0.385004,1.710395 3.127253,-1.5 C 57.077145,34.20764 57.591629,34 63.198682,34 68.972974,34 72,35.351149 72,37.928571 72,38.517857 72.45,39 73,39 c 0.556989,0 1,2.6928 1,6.078401 0,5.782166 -0.194539,6.265313 -3.991719,9.913643 -4.497306,4.32101 -6.406415,10.534211 -3.571119,11.622216 C 67.296723,66.944105 68,67.872976 68,68.678417 68,71.714321 70.745518,73 77.228571,73 c 3.694346,0 6.88612,0.514691 7.596388,1.224959 0.966613,0.966613 1.638639,0.966613 3.186432,0 C 90.498159,72.671947 99,72.594609 99,74.125 c 0,1.464852 6.07471,0.304365 7.27642,-1.390058 0.68654,-0.968021 0.98336,-0.971098 1.37328,-0.01424 0.39158,0.960938 0.77864,0.960938 1.81891,0 0.72681,-0.671387 1.06988,-1.634676 0.76238,-2.140643 -0.30749,-0.505966 0.14746,-0.648814 1.01101,-0.317439 0.90001,0.345365 2.30739,-0.212213 3.29769,-1.30648 0.95018,-1.049939 2.12861,-1.661143 2.61873,-1.358231 0.49012,0.302912 0.82669,0.1798 0.74794,-0.273581 C 117.27826,63.708649 118.19478,45 119,45 c 0.61111,0 1,4.666667 1,12 0,7.333333 -0.38889,12 -1,12 -0.55,0 -1,0.605256 -1,1.345012 0,0.739757 -0.9,2.159502 -2,3.154988 -1.67205,1.513184 -2,3.079967 -2,9.554988 V 90.8 h -3.5 -3.5 v -6.9 c 0,-3.933333 -0.42995,-6.9 -1,-6.9 -0.56931,0 -1,2.949273 -1,6.84782 v 6.84782 l -3,0.0853 -3,0.0853 V 84.933123 C 99,81.262088 98.577944,79 97.893011,79 97.284167,79 97.001874,78.4375 97.265692,77.75 97.6079,76.858222 96.385447,76.5 93,76.5 c -3.385447,0 -4.6079,0.358222 -4.265692,1.25 C 89.042451,78.553009 88.281737,79 86.606989,79 84.087336,79 84,79.201004 84,85 v 6 h -3 -3 v -6 c 0,-3.333333 -0.444444,-6 -1,-6 -0.553672,0 -1,2.633333 -1,5.9 v 5.9 H 72.5 69 Z M 38,39 C 38,37.888889 37.333333,37 36.5,37 35.388889,37 35,35.833333 35,32.5 V 28 h 7 c 5.555556,0 7,-0.309524 7,-1.5 0,-0.825 0.45,-1.5 1,-1.5 0.592593,0 1,-3.666667 1,-9 C 51,10.666667 50.592593,7 50,7 49.45,7 49,6.325 49,5.5 49,4.2142857 46,4 28,4 2.3219333,4 3,3.674528 3,16 3,27.357988 3.7757647,28 17.5,28 H 28 v 4 c 0,2.2 0.45,4 1,4 0.55,0 1,0.675 1,1.5 0,0.825 0.675,1.5 1.5,1.5 0.825,0 1.5,0.45 1.5,1 0,0.55 1.125,1 2.5,1 1.833333,0 2.5,-0.533333 2.5,-2 z M 8,15.559017 c 0,-5.210256 1.403128,-6.5532355 3.872277,-3.706282 1.744547,2.011478 1.783265,2.012601 3.167688,0.09182 C 17.259395,8.8652573 18,9.629735 18,15 c 0,2.75 -0.45,5 -1,5 -0.55,0 -1,-1.1801 -1,-2.622445 0,-2.062539 -0.282637,-2.387877 -1.323794,-1.523793 -0.966696,0.802287 -1.641078,0.781366 -2.5,-0.07756 C 11.274598,14.874598 11,15.230344 11,17.3 11,19.033333 10.462963,20 9.5,20 8.391842,20 8,18.839891 8,15.559017 Z m 11.666667,3.774316 C 17.427918,17.094585 20.473842,10 23.673753,10 c 2.044423,0 4.472789,3.851763 4.151203,6.584447 C 27.480153,19.514408 25,21.269319 25,18.583333 25,17.7125 24.325,17 23.5,17 22.675,17 22,17.675 22,18.5 c 0,1.561574 -1.1827,1.983967 -2.333333,0.833333 z m 5.0625,-5.9375 c -0.332292,-0.332291 -1.194792,-0.367818 -1.916667,-0.07895 -0.797733,0.319226 -0.560776,0.556183 0.604167,0.604167 1.054166,0.04342 1.644791,-0.192928 1.3125,-0.52522 z m 4.463335,2.456012 C 29.583116,10.582458 31.96746,8.7555887 34.941464,11.447026 37.438215,13.706554 37.849196,20 35.5,20 34.675,20 34,19.325 34,18.5 34,17.675 33.325,17 32.5,17 31.675,17 31,17.675 31,18.5 c 0,0.825 -0.475874,1.5 -1.057498,1.5 -0.622795,0 -0.931095,-1.705171 -0.75,-4.148155 z m 4.536665,-2.456012 c -0.332292,-0.332291 -1.194792,-0.367818 -1.916667,-0.07895 -0.797733,0.319226 -0.560776,0.556183 0.604167,0.604167 1.054166,0.04342 1.644791,-0.192928 1.3125,-0.52522 z M 38,15 c 0,-4.703704 0.152381,-5 2.571429,-5 1.414285,0 3.266167,0.694738 4.115291,1.543863 1.391818,1.391818 1.36952,1.736511 -0.226416,3.5 C 43.486651,16.119738 42.084769,17 41.345012,17 40.605256,17 40,17.675 40,18.5 40,19.325 39.55,20 39,20 38.45,20 38,17.75 38,15 Z m 4.729167,-1.604167 c -0.332292,-0.332291 -1.194792,-0.367818 -1.916667,-0.07895 -0.797733,0.319226 -0.560776,0.556183 0.604167,0.604167 1.054166,0.04342 1.644791,-0.192928 1.3125,-0.52522 z M 53,31.559017 C 53,30.057853 51.204665,28.462002 50.40993,29.256736 49.712453,29.954214 51.093301,33 52.106989,33 52.598145,33 53,32.351558 53,31.559017 Z M 135,83 c 0,-1.981352 0.66667,-2 71.5,-2 70.83333,0 71.5,0.01865 71.5,2 0,1.981352 -0.66667,2 -71.5,2 C 135.66667,85 135,84.981352 135,83 Z M 215.21257,68.493393 C 211.72941,66.98003 209,62.164342 209,57.532119 209,55.103974 209.24637,55 215,55 c 5.12201,0 6,0.264695 6,1.80887 0,3.141046 2.41155,5.512672 4.8262,4.746293 1.66715,-0.529134 2.1738,-1.478075 2.1738,-4.071469 0,-3.172903 -0.39629,-3.570662 -6.42328,-6.447078 -3.5328,-1.686052 -7.62949,-4.499055 -9.10376,-6.251118 -2.41933,-2.875212 -2.64121,-3.802276 -2.27741,-9.515611 0.35047,-5.50404 0.8168,-6.743773 3.57368,-9.500656 2.7553,-2.755298 3.99794,-3.223295 9.48662,-3.572787 8.2147,-0.523073 12.81938,1.33497 15.07183,6.081658 C 239.24746,30.216388 240,32.74675 240,33.901129 240,35.799749 239.42755,36 234,36 c -5.2029,0 -6,-0.249432 -6,-1.877555 0,-1.032656 -0.675,-2.437756 -1.5,-3.122445 -2.13809,-1.774459 -4.69167,0.549827 -4.30056,3.914404 0.24103,2.073504 1.53598,3.181839 6.53831,5.596078 3.43077,1.655764 7.48077,4.253492 9,5.772727 2.48041,2.480408 2.76225,3.46344 2.76225,9.634531 0,7.69975 -1.46782,10.286536 -7.21788,12.720276 -4.15855,1.760125 -13.86437,1.682443 -18.06955,-0.144623 z M 138,46 V 23 h 6.75525 6.75525 L 155.00525,36.25 158.5,49.5 158.77903,36.25 159.05805,23 H 164.52903 170 v 23.04569 23.04569 l -6.71498,-0.29569 -6.71499,-0.29569 -3.7013,-13 -3.70131,-13 -0.0837,13.25 L 149,69 h -5.5 -5.5 z m 34.41462,21.25 c 0.30216,-0.9625 2.60834,-10.525 5.12484,-21.25 2.5165,-10.725 4.80492,-20.2875 5.08538,-21.25 0.42875,-1.471371 1.73822,-1.75 8.2245,-1.75 h 7.71457 l 5.55085,23 5.55085,23 H 202.8328 C 196.27277,69 196,68.903463 196,66.581787 196,61.981117 195.03692,61 190.52082,61 c -4.2028,0 -4.27456,0.05852 -4.90483,4 l -0.63963,4 h -6.55557 c -5.78602,0 -6.49107,-0.205429 -6.00617,-1.75 z m 21.22582,-17 C 193.36855,49.2875 192.85536,46.475 192.5,44 c -1.21774,-8.481389 -1.78078,-8.843223 -3.11211,-2 -1.89434,9.737105 -1.85019,10 1.6795,10 2.44297,0 2.96676,-0.356239 2.57305,-1.75 z m 48.77418,17 c 0.30216,-0.9625 2.60834,-10.525 5.12484,-21.25 2.5165,-10.725 4.80492,-20.2875 5.08538,-21.25 0.42879,-1.471521 1.7385,-1.75 8.23043,-1.75 h 7.72049 l 5.59588,22.75 5.59589,22.75 0.11623,-22.75 L 280,23 h 8.84723 8.84723 l 1.74927,10.25 c 2.80438,16.43261 2.71689,16.386183 5.18208,2.75 1.24288,-6.875 2.28552,-12.6125 2.31698,-12.75 C 306.97426,23.1125 310.825,23 315.5,23 h 8.5 v 23 23 h -5.5 -5.5 l -0.079,-15.75 c -0.0434,-8.6625 -0.23344,-15.3 -0.42227,-14.75 -0.18882,0.55 -1.56156,7.659777 -3.05052,15.799504 l -2.7072,14.799503 -4.62053,-0.299503 L 297.5,68.5 295,54.5 292.5,40.5 292.22254,54.75 291.94509,69 H 278.97254 266 V 66.581787 C 266,61.981117 265.03692,61 260.52082,61 c -4.2028,0 -4.27456,0.05852 -4.90483,4 l -0.63963,4 h -6.55557 c -5.78602,0 -6.49107,-0.205429 -6.00617,-1.75 z m 21.22582,-17 C 263.36855,49.2875 262.85536,46.475 262.5,44 c -1.21774,-8.481389 -1.78078,-8.843223 -3.11211,-2 -1.89434,9.737105 -1.85019,10 1.6795,10 2.44297,0 2.96676,-0.356239 2.57305,-1.75 z m 62.77418,17 c 0.30216,-0.9625 2.60834,-10.525 5.12484,-21.25 2.5165,-10.725 4.80492,-20.2875 5.08538,-21.25 0.42889,-1.471856 1.73914,-1.75 8.24372,-1.75 h 7.73379 l 4.87553,20.25 4.87554,20.25 3.90987,-16.5 c 2.15043,-9.075 4.33825,-18.1875 4.86183,-20.25 L 372.07709,23 h 7.74341 7.74341 l 5.55085,23 5.55085,23 H 391.8328 C 385.27277,69 385,68.903463 385,66.581787 385,61.981117 384.03692,61 379.52082,61 c -4.2028,0 -4.27456,0.05852 -4.90483,4 l -0.63963,4 H 361.98818 350 V 66.581787 C 350,61.981117 349.03692,61 344.52082,61 c -4.2028,0 -4.27456,0.05852 -4.90483,4 l -0.63963,4 h -6.55557 c -5.78602,0 -6.49107,-0.205429 -6.00617,-1.75 z m 21.22582,-17 C 347.36855,49.2875 346.85536,46.475 346.5,44 c -1.21774,-8.481389 -1.78078,-8.843223 -3.11211,-2 -1.89434,9.737105 -1.85019,10 1.6795,10 2.44297,0 2.96676,-0.356239 2.57305,-1.75 z m 35,0 C 382.36855,49.2875 381.85536,46.475 381.5,44 c -1.21774,-8.481389 -1.78078,-8.843223 -3.11211,-2 -1.89434,9.737105 -1.85019,10 1.6795,10 2.44297,0 2.96676,-0.356239 2.57305,-1.75 z M 400,46 V 23 h 11.04966 c 12.16889,0 15.40462,0.991991 18.4635,5.660432 2.42016,3.693627 2.48386,12.717864 0.12119,17.168346 C 427.58188,49.694944 422.87473,52 417.03212,52 H 413 v 8.5 8.5 h -6.5 -6.5 z m 17.42857,-4.571429 C 420.44689,38.410253 418.40726,32 414.42857,32 413.36364,32 413,33.4 413,37.5 c 0,5.877083 1.31422,7.042923 4.42857,3.928571 z M 77.25,46.504169 c -1.68346,-1.912083 -1.57501,-4.322016 0.277879,-6.174905 1.292886,-1.292886 1.792142,-1.320351 3.246074,-0.178571 4.394666,3.451153 4.562715,3.819811 2.686351,5.89317 C 81.392003,48.329311 79.012213,48.5057 77.25,46.504169 Z M 116,44.559017 C 116,43.701558 116.45,43 117,43 c 0.55,0 1,0.423442 1,0.940983 0,0.517541 -0.45,1.219098 -1,1.559017 -0.55,0.339919 -1,-0.08352 -1,-0.940983 z m -2.40344,-1.402786 c -0.34605,-0.559919 -0.1419,-1.31919 0.45366,-1.687268 1.53748,-0.950218 2.52947,0.35135 1.24598,1.634836 -0.71818,0.71818 -1.27752,0.735435 -1.69964,0.05243 z M 110.25,39.504169 C 108.7177,37.76378 108.66324,37 110.07143,37 111.19585,37 114,39.447256 114,40.428571 c 0,1.100984 -2.51196,0.481766 -3.75,-0.924402 z M 76.629263,32.917048 C 72.771386,29.013015 72.732069,29 64.795929,29 58.871358,29 56.93947,28.680063 57.24801,27.75 c 0.273402,-0.824142 2.991875,-1.329406 7.979406,-1.483077 l 7.564729,-0.233078 4.012443,4.483078 C 80.487057,34.631321 85,36.549338 85,34 c 0,-0.55 1.548442,-1 3.440983,-1 1.892541,0 3.719098,0.45 4.059017,1 0.339919,0.55 1.491476,1 2.559017,1 C 96.126558,35 97,34.55 97,34 c 0,-0.55 1.8,-1 4,-1 2.2,0 4,0.45 4,1 0,0.55 1.15156,1 2.55902,1 1.45136,0 2.2915,0.432842 1.94098,1 -0.33992,0.55 -1.49148,1 -2.55902,1 C 105.87344,37 105,36.55 105,36 c 0,-0.55 -1.8,-1 -4,-1 -2.2,0 -4,0.45 -4,1 0,0.55 -1.125,1 -2.5,1 -1.375,0 -2.5,-0.45 -2.5,-1 0,-0.55 -1.575,-1 -3.5,-1 -1.925,0 -3.5,0.45 -3.5,1 0,2.311448 -4.779654,0.551096 -8.370737,-3.082952 z m -21.89696,-3.83272 c -0.275527,-1.053619 -0.122988,-2.293643 0.338978,-2.755609 0.461965,-0.461965 0.993317,-4.662413 1.180783,-9.334328 L 56.592909,8.5 56.796455,17.75 C 56.942586,24.390859 56.661517,27 55.8,27 c -0.933333,0 -0.933333,0.266667 0,1.2 1.411179,1.411179 1.56823,2.8 0.316631,2.8 -0.485852,0 -1.1088,-0.862052 -1.384328,-1.915672 z"
         id="path3555" />
      <path
         style="fill:#9ca2a2"
         d="m 69,84.459017 c 0,-3.487541 0.45,-6.619098 1,-6.959017 0.55,-0.339919 0.993109,-1.153976 0.984687,-1.809017 -0.01018,-0.791706 -0.30517,-0.733463 -0.879913,0.173729 -0.684496,1.08043 -1.530982,0.770963 -4.063606,-1.485614 C 63.569023,72.176406 62.93435,70.900663 63.247889,68.764385 63.51707,66.930336 63.207086,66 62.326807,66 61.597063,66 61,65.1 61,64 61,62.293333 60.333333,62 56.454545,62 53.0725,62 51.33253,61.423439 49.656458,59.747367 46.502471,56.59338 45.828402,54.314455 47.54249,52.600367 48.34412,51.798737 49,50.120714 49,48.871429 c 0,-1.792379 0.258347,-2.013082 1.224959,-1.04647 0.966613,0.966613 0.966613,1.638639 0,3.186432 C 46.908733,56.321513 49.695782,60 57.035285,60 c 4.91835,0 5.412687,-0.249821 9.853066,-4.979418 4.19478,-4.468002 4.697965,-5.508968 4.899263,-10.135387 C 72.066698,38.47102 70.541921,37.07587 63.204545,37.031803 56.822999,36.993477 53,39.961628 53,44.954545 53,48.152927 51.619364,49.056419 50.638374,46.5 50.321791,45.675 49.373646,45 48.531385,45 47.689123,45 47,44.55 47,44 c 0,-0.55 -0.762938,-1 -1.695417,-1 -1.194212,0 -0.583762,-1.018237 2.064957,-3.444368 3.159719,-2.894191 3.592994,-3.75712 2.712502,-5.402335 -0.778996,-1.455567 -2.335375,-2.047174 -6.065578,-2.305631 -4.570963,-0.316712 -5.017652,-0.156866 -5.017086,1.795345 3.42e-4,1.178656 0.724322,2.420721 1.608844,2.760144 1.173825,0.450439 1.498173,1.559776 1.200801,4.106989 C 41.52828,42.914908 41.805558,44 42.700801,44 43.41536,44 44,44.675 44,45.5 44,46.333333 43.111111,47 42,47 40.9,47 40,46.55 40,46 40,45.45 38.2,45 36,45 33.111111,45 32,44.583333 32,43.5 32,42.675 31.401041,42 30.66898,42 29.936919,42 28.735878,40.875 28,39.5 27.264122,38.125 26.063081,37 25.33102,37 24.54662,37 23.998382,35.870637 23.99606,34.25 L 23.99216,31.5 H 15.168599 C 6.5908628,31.5 6.2565986,31.411584 3.1724993,28.326923 0.05089375,25.204749 0,25.000212 0,15.576923 0,9.8589744 0.40294511,6 1,6 1.55,6 2,5.325 2,4.5 2,3.675 2.675,3 3.5,3 4.325,3 5,2.55 5,2 5,1.3636364 13,1 27,1 c 14,0 22,0.3636364 22,1 0,0.55 0.675,1 1.5,1 0.825,0 1.5,0.675 1.5,1.5 0,0.825 0.675,1.5 1.5,1.5 1.233333,0 1.5,1.7777778 1.5,10 0,7.982898 -0.287105,10 -1.423355,10 -1.195707,0 -1.16856,0.51075 0.169733,3.193422 1.147365,2.299947 1.265814,3.302514 0.423356,3.583333 C 53.52638,32.991207 53,34.029167 53,35.083333 53,36.1375 52.55,37 52,37 c -0.55,0 -1,0.972506 -1,2.161125 0,1.895063 0.385004,1.710395 3.127253,-1.5 C 57.077145,34.20764 57.591629,34 63.198682,34 68.972974,34 72,35.351149 72,37.928571 72,38.517857 72.45,39 73,39 c 0.556989,0 1,2.6928 1,6.078401 0,5.697821 -0.234794,6.310649 -3.75,9.787757 -2.0625,2.040146 -4.249506,4.59789 -4.860012,5.683875 C 64.179727,62.702875 65.230888,67 66.967776,67 67.535499,67 68,67.707143 68,68.571429 68,71.726976 70.675111,73 77.306127,73 c 4.559888,0 6.819781,0.446784 7.714811,1.525228 1.134485,1.366971 1.440699,1.366971 2.951185,0 C 89.959637,72.726553 99,72.398457 99,74.125 c 0,0.74908 1.08599,0.886327 3.25,0.410733 1.7875,-0.392846 3.925,-0.786596 4.75,-0.875 1.93238,-0.207065 3.92192,-1.942969 3.33602,-2.910733 -0.64714,-1.068928 0.46335,-0.927741 2.88135,0.366334 1.73707,0.92965 1.98686,0.858263 1.4937,-0.426887 -0.65809,-1.714958 1.54801,-4.097029 2.71427,-2.930771 C 117.83307,68.166404 118.07588,68.05 117.96491,67.5 117.27865,64.098546 118.15726,45 119,45 c 0.61111,0 1,4.666667 1,12 0,7.333333 -0.38889,12 -1,12 -0.55,0 -1,0.605256 -1,1.345012 0,0.739757 -0.9,2.159502 -2,3.154988 -1.67205,1.513184 -2,3.079967 -2,9.554988 V 90.8 h -3.5 -3.5 v -6.9 c 0,-3.933333 -0.42995,-6.9 -1,-6.9 -0.56931,0 -1,2.949273 -1,6.84782 v 6.84782 l -3,0.0853 -3,0.0853 V 84.933123 C 99,81.262088 98.577944,79 97.893011,79 97.284167,79 97.001874,78.4375 97.265692,77.75 97.6079,76.858222 96.385447,76.5 93,76.5 c -3.385447,0 -4.6079,0.358222 -4.265692,1.25 C 89.042451,78.553009 88.281737,79 86.606989,79 84.087336,79 84,79.201004 84,85 v 6 h -3 -3 v -6 c 0,-3.333333 -0.444444,-6 -1,-6 -0.553672,0 -1,2.633333 -1,5.9 v 5.9 H 72.5 69 Z m 5,-3.018034 C 74,78.998442 73.55,77 73,77 c -0.55,0 -1,2.276558 -1,5.059017 0,3.118034 0.383668,4.821897 1,4.440983 0.55,-0.339919 1,-2.616476 1,-5.059017 z M 82,82 c 0,-2.75 -0.45,-5 -1,-5 -0.55,0 -1,2.25 -1,5 0,2.75 0.45,5 1,5 0.55,0 1,-2.25 1,-5 z m 21,0.940983 C 103,80.489616 102.60393,79.12675 102,79.5 100.30663,80.546562 100.88027,87 102.66667,87 102.85,87 103,85.173442 103,82.940983 Z M 112,81 c 0,-2.685081 -0.45,-5.160081 -1,-5.5 -0.62504,-0.386299 -1,1.675955 -1,5.5 0,3.824045 0.37496,5.886299 1,5.5 0.55,-0.339919 1,-2.814919 1,-5.5 z M 50,42 c 0,-0.55 -0.675,-1 -1.5,-1 -0.825,0 -1.5,0.45 -1.5,1 0,0.55 0.675,1 1.5,1 0.825,0 1.5,-0.45 1.5,-1 z M 38,39 C 38,37.888889 37.333333,37 36.5,37 35.388889,37 35,35.833333 35,32.5 V 28 h 7 c 5.555556,0 7,-0.309524 7,-1.5 0,-0.825 0.45,-1.5 1,-1.5 0.592593,0 1,-3.666667 1,-9 C 51,10.666667 50.592593,7 50,7 49.45,7 49,6.325 49,5.5 49,4.2142857 46,4 28,4 2.3219333,4 3,3.674528 3,16 3,27.357988 3.7757647,28 17.5,28 H 28 v 4 c 0,2.2 0.45,4 1,4 0.55,0 1,0.675 1,1.5 0,0.825 0.675,1.5 1.5,1.5 0.825,0 1.5,0.45 1.5,1 0,0.55 1.125,1 2.5,1 1.833333,0 2.5,-0.533333 2.5,-2 z M 8,15.559017 c 0,-5.210256 1.403128,-6.5532355 3.872277,-3.706282 1.744547,2.011478 1.783265,2.012601 3.167688,0.09182 C 17.259395,8.8652573 18,9.629735 18,15 c 0,2.75 -0.45,5 -1,5 -0.55,0 -1,-1.1801 -1,-2.622445 0,-2.062539 -0.282637,-2.387877 -1.323794,-1.523793 -0.966696,0.802287 -1.641078,0.781366 -2.5,-0.07756 C 11.274598,14.874598 11,15.230344 11,17.3 11,19.033333 10.462963,20 9.5,20 8.391842,20 8,18.839891 8,15.559017 Z m 11.666667,3.774316 C 17.427918,17.094585 20.473842,10 23.673753,10 c 2.044423,0 4.472789,3.851763 4.151203,6.584447 C 27.480153,19.514408 25,21.269319 25,18.583333 25,17.7125 24.325,17 23.5,17 22.675,17 22,17.675 22,18.5 c 0,1.561574 -1.1827,1.983967 -2.333333,0.833333 z m 5.0625,-5.9375 c -0.332292,-0.332291 -1.194792,-0.367818 -1.916667,-0.07895 -0.797733,0.319226 -0.560776,0.556183 0.604167,0.604167 1.054166,0.04342 1.644791,-0.192928 1.3125,-0.52522 z m 4.463335,2.456012 C 29.583116,10.582458 31.96746,8.7555887 34.941464,11.447026 37.438215,13.706554 37.849196,20 35.5,20 34.675,20 34,19.325 34,18.5 34,17.675 33.325,17 32.5,17 31.675,17 31,17.675 31,18.5 c 0,0.825 -0.475874,1.5 -1.057498,1.5 -0.622795,0 -0.931095,-1.705171 -0.75,-4.148155 z m 4.536665,-2.456012 c -0.332292,-0.332291 -1.194792,-0.367818 -1.916667,-0.07895 -0.797733,0.319226 -0.560776,0.556183 0.604167,0.604167 1.054166,0.04342 1.644791,-0.192928 1.3125,-0.52522 z M 38,15 c 0,-4.703704 0.152381,-5 2.571429,-5 1.414285,0 3.266167,0.694738 4.115291,1.543863 1.391818,1.391818 1.36952,1.736511 -0.226416,3.5 C 43.486651,16.119738 42.084769,17 41.345012,17 40.605256,17 40,17.675 40,18.5 40,19.325 39.55,20 39,20 38.45,20 38,17.75 38,15 Z m 4.729167,-1.604167 c -0.332292,-0.332291 -1.194792,-0.367818 -1.916667,-0.07895 -0.797733,0.319226 -0.560776,0.556183 0.604167,0.604167 1.054166,0.04342 1.644791,-0.192928 1.3125,-0.52522 z M 53,31.559017 C 53,30.057853 51.204665,28.462002 50.40993,29.256736 49.712453,29.954214 51.093301,33 52.106989,33 52.598145,33 53,32.351558 53,31.559017 Z M 135,83 c 0,-1.981352 0.66667,-2 71.5,-2 70.83333,0 71.5,0.01865 71.5,2 0,1.981352 -0.66667,2 -71.5,2 C 135.66667,85 135,84.981352 135,83 Z M 215.21257,68.493393 C 211.72941,66.98003 209,62.164342 209,57.532119 209,55.103974 209.24637,55 215,55 c 5.12201,0 6,0.264695 6,1.80887 0,3.141046 2.41155,5.512672 4.8262,4.746293 1.66715,-0.529134 2.1738,-1.478075 2.1738,-4.071469 0,-3.172903 -0.39629,-3.570662 -6.42328,-6.447078 -3.5328,-1.686052 -7.62949,-4.499055 -9.10376,-6.251118 -2.41933,-2.875212 -2.64121,-3.802276 -2.27741,-9.515611 0.35047,-5.50404 0.8168,-6.743773 3.57368,-9.500656 2.7553,-2.755298 3.99794,-3.223295 9.48662,-3.572787 8.2147,-0.523073 12.81938,1.33497 15.07183,6.081658 C 239.24746,30.216388 240,32.74675 240,33.901129 240,35.799749 239.42755,36 234,36 c -5.2029,0 -6,-0.249432 -6,-1.877555 0,-1.032656 -0.675,-2.437756 -1.5,-3.122445 -2.13809,-1.774459 -4.69167,0.549827 -4.30056,3.914404 0.24103,2.073504 1.53598,3.181839 6.53831,5.596078 3.43077,1.655764 7.48077,4.253492 9,5.772727 2.48041,2.480408 2.76225,3.46344 2.76225,9.634531 0,7.69975 -1.46782,10.286536 -7.21788,12.720276 -4.15855,1.760125 -13.86437,1.682443 -18.06955,-0.144623 z M 138,46 V 23 h 6.75525 6.75525 L 155.00525,36.25 158.5,49.5 158.77903,36.25 159.05805,23 H 164.52903 170 v 23.04569 23.04569 l -6.71498,-0.29569 -6.71499,-0.29569 -3.7013,-13 -3.70131,-13 -0.0837,13.25 L 149,69 h -5.5 -5.5 z m 34.41462,21.25 c 0.30216,-0.9625 2.60834,-10.525 5.12484,-21.25 2.5165,-10.725 4.80492,-20.2875 5.08538,-21.25 0.42875,-1.471371 1.73822,-1.75 8.2245,-1.75 h 7.71457 l 5.55085,23 5.55085,23 H 202.8328 C 196.27277,69 196,68.903463 196,66.581787 196,61.981117 195.03692,61 190.52082,61 c -4.2028,0 -4.27456,0.05852 -4.90483,4 l -0.63963,4 h -6.55557 c -5.78602,0 -6.49107,-0.205429 -6.00617,-1.75 z m 21.22582,-17 C 193.36855,49.2875 192.85536,46.475 192.5,44 c -1.21774,-8.481389 -1.78078,-8.843223 -3.11211,-2 -1.89434,9.737105 -1.85019,10 1.6795,10 2.44297,0 2.96676,-0.356239 2.57305,-1.75 z m 48.77418,17 c 0.30216,-0.9625 2.60834,-10.525 5.12484,-21.25 2.5165,-10.725 4.80492,-20.2875 5.08538,-21.25 0.42879,-1.471521 1.7385,-1.75 8.23043,-1.75 h 7.72049 l 5.59588,22.75 5.59589,22.75 0.11623,-22.75 L 280,23 h 8.84723 8.84723 l 1.74927,10.25 c 2.80438,16.43261 2.71689,16.386183 5.18208,2.75 1.24288,-6.875 2.28552,-12.6125 2.31698,-12.75 C 306.97426,23.1125 310.825,23 315.5,23 h 8.5 v 23 23 h -5.5 -5.5 l -0.079,-15.75 c -0.0434,-8.6625 -0.23344,-15.3 -0.42227,-14.75 -0.18882,0.55 -1.56156,7.659777 -3.05052,15.799504 l -2.7072,14.799503 -4.62053,-0.299503 L 297.5,68.5 295,54.5 292.5,40.5 292.22254,54.75 291.94509,69 H 278.97254 266 V 66.581787 C 266,61.981117 265.03692,61 260.52082,61 c -4.2028,0 -4.27456,0.05852 -4.90483,4 l -0.63963,4 h -6.55557 c -5.78602,0 -6.49107,-0.205429 -6.00617,-1.75 z m 21.22582,-17 C 263.36855,49.2875 262.85536,46.475 262.5,44 c -1.21774,-8.481389 -1.78078,-8.843223 -3.11211,-2 -1.89434,9.737105 -1.85019,10 1.6795,10 2.44297,0 2.96676,-0.356239 2.57305,-1.75 z m 62.77418,17 c 0.30216,-0.9625 2.60834,-10.525 5.12484,-21.25 2.5165,-10.725 4.80492,-20.2875 5.08538,-21.25 0.42889,-1.471856 1.73914,-1.75 8.24372,-1.75 h 7.73379 l 4.87553,20.25 4.87554,20.25 3.90987,-16.5 c 2.15043,-9.075 4.33825,-18.1875 4.86183,-20.25 L 372.07709,23 h 7.74341 7.74341 l 5.55085,23 5.55085,23 H 391.8328 C 385.27277,69 385,68.903463 385,66.581787 385,61.981117 384.03692,61 379.52082,61 c -4.2028,0 -4.27456,0.05852 -4.90483,4 l -0.63963,4 H 361.98818 350 V 66.581787 C 350,61.981117 349.03692,61 344.52082,61 c -4.2028,0 -4.27456,0.05852 -4.90483,4 l -0.63963,4 h -6.55557 c -5.78602,0 -6.49107,-0.205429 -6.00617,-1.75 z m 21.22582,-17 C 347.36855,49.2875 346.85536,46.475 346.5,44 c -1.21774,-8.481389 -1.78078,-8.843223 -3.11211,-2 -1.89434,9.737105 -1.85019,10 1.6795,10 2.44297,0 2.96676,-0.356239 2.57305,-1.75 z m 35,0 C 382.36855,49.2875 381.85536,46.475 381.5,44 c -1.21774,-8.481389 -1.78078,-8.843223 -3.11211,-2 -1.89434,9.737105 -1.85019,10 1.6795,10 2.44297,0 2.96676,-0.356239 2.57305,-1.75 z M 400,46 V 23 h 11.04966 c 12.16889,0 15.40462,0.991991 18.4635,5.660432 2.42016,3.693627 2.48386,12.717864 0.12119,17.168346 C 427.58188,49.694944 422.87473,52 417.03212,52 H 413 v 8.5 8.5 h -6.5 -6.5 z m 17.42857,-4.571429 C 420.44689,38.410253 418.40726,32 414.42857,32 413.36364,32 413,33.4 413,37.5 c 0,5.877083 1.31422,7.042923 4.42857,3.928571 z M 52.25,56.504169 C 50.320456,54.312583 50.683072,54 55.154988,54 c 4.091645,0 4.127395,0.03049 2.345012,2 -2.114663,2.336677 -3.517953,2.471437 -5.25,0.504169 z m 25,-10 c -1.68346,-1.912083 -1.57501,-4.322016 0.277879,-6.174905 1.292886,-1.292886 1.792142,-1.320351 3.246074,-0.178571 4.394666,3.451153 4.562715,3.819811 2.686351,5.89317 C 81.392003,48.329311 79.012213,48.5057 77.25,46.504169 Z M 82,44.428571 C 82,43.324891 79.231245,41.102088 78.619048,41.714286 77.283734,43.049599 78.103468,45 80,45 c 1.1,0 2,-0.257143 2,-0.571429 z M 63.683333,45.35 C 62.618063,44.28473 62.880881,41 64.031385,41 c 1.478521,0 2.409436,2.959179 1.284731,4.083884 -0.522197,0.522197 -1.256949,0.641949 -1.632783,0.266116 z M 116,44.559017 C 116,43.701558 116.45,43 117,43 c 0.55,0 1,0.423442 1,0.940983 0,0.517541 -0.45,1.219098 -1,1.559017 -0.55,0.339919 -1,-0.08352 -1,-0.940983 z M 59,43 c 0,-1.1 0.45,-2 1,-2 0.55,0 1,0.9 1,2 0,1.1 -0.45,2 -1,2 -0.55,0 -1,-0.9 -1,-2 z m 54.59656,0.156231 c -0.34605,-0.559919 -0.1419,-1.31919 0.45366,-1.687268 1.53748,-0.950218 2.52947,0.35135 1.24598,1.634836 -0.71818,0.71818 -1.27752,0.735435 -1.69964,0.05243 z M 110.25,39.504169 C 108.7177,37.76378 108.66324,37 110.07143,37 111.19585,37 114,39.447256 114,40.428571 c 0,1.100984 -2.51196,0.481766 -3.75,-0.924402 z M 76.629263,32.917048 C 72.771386,29.013015 72.732069,29 64.795929,29 58.871358,29 56.93947,28.680063 57.24801,27.75 c 0.273402,-0.824142 2.991875,-1.329406 7.979406,-1.483077 l 7.564729,-0.233078 4.012443,4.483078 C 80.487057,34.631321 85,36.549338 85,34 c 0,-0.55 1.548442,-1 3.440983,-1 1.892541,0 3.719098,0.45 4.059017,1 0.339919,0.55 1.491476,1 2.559017,1 C 96.126558,35 97,34.55 97,34 c 0,-0.55 1.8,-1 4,-1 2.2,0 4,0.45 4,1 0,0.55 1.15156,1 2.55902,1 1.45136,0 2.2915,0.432842 1.94098,1 -0.33992,0.55 -1.49148,1 -2.55902,1 C 105.87344,37 105,36.55 105,36 c 0,-0.55 -1.8,-1 -4,-1 -2.2,0 -4,0.45 -4,1 0,0.55 -1.125,1 -2.5,1 -1.375,0 -2.5,-0.45 -2.5,-1 0,-0.55 -1.575,-1 -3.5,-1 -1.925,0 -3.5,0.45 -3.5,1 0,2.311448 -4.779654,0.551096 -8.370737,-3.082952 z m -21.89696,-3.83272 c -0.275527,-1.053619 -0.122988,-2.293643 0.338978,-2.755609 0.461965,-0.461965 0.993317,-4.662413 1.180783,-9.334328 L 56.592909,8.5 56.796455,17.75 C 56.942586,24.390859 56.661517,27 55.8,27 c -0.933333,0 -0.933333,0.266667 0,1.2 1.411179,1.411179 1.56823,2.8 0.316631,2.8 -0.485852,0 -1.1088,-0.862052 -1.384328,-1.915672 z"
         id="path3553" />
      <path
         style="fill:#6b90ad"
         d="m 70,84.322785 c 0,-4.705876 0.45443,-6.920072 1.669643,-8.135285 1.2142,-1.2142 1.782489,-1.331105 2.083333,-0.428571 0.53942,1.618258 5.907693,1.611066 6.663691,-0.0089 0.466666,-1 0.7,-1 1.166666,0 0.320834,0.6875 1.895834,1.25 3.5,1.25 C 86.6875,77 88,77.45 88,78 c 0,0.55 -0.9,1 -2,1 -1.771429,0 -2,0.666667 -2,5.833333 v 5.833334 h -3.080418 -3.080419 l 0.330419,-5.835156 c 0.284091,-5.017029 0.08506,-5.8349 -1.419582,-5.833333 -1.463475,0.0015 -1.750116,0.943262 -1.750706,5.751822 -6.67e-4,5.427561 -0.140857,5.758087 -2.5,5.894213 C 70.076399,90.784018 70,90.590783 70,84.322785 Z M 74,82 c 0,-2.75 -0.45,-5 -1,-5 -0.55,0 -1,2.25 -1,5 0,2.75 0.45,5 1,5 0.55,0 1,-2.25 1,-5 z m 8,0 c 0,-2.75 -0.45,-5 -1,-5 -0.55,0 -1,2.25 -1,5 0,2.75 0.45,5 1,5 0.55,0 1,-2.25 1,-5 z m 17,2.833333 C 99,81.611111 98.552381,79 98,79 c -0.55,0 -1,-0.45 -1,-1 0,-0.55 1.35,-1 3,-1 1.65,0 3,-0.45 3,-1 0,-0.55 1.575,-1 3.5,-1 2.24139,0 3.5,-0.477123 3.5,-1.326807 0,-0.918283 0.96587,-1.185047 3.13696,-0.866399 2.52423,0.370478 2.81722,0.639345 1.5,1.376497 -1.29481,0.72461 -1.63711,2.525593 -1.63767,8.616399 -6.8e-4,7.473009 -0.0733,7.70449 -2.45837,7.841932 -2.36894,0.136509 -2.4682,-0.116217 -2.7493,-7 C 107.63123,79.71373 107.05,76.5 106.5,76.5 c -0.55,0 -1.1307,3.1875 -1.29045,7.083333 l -0.29044,7.083334 h -2.95956 C 99.018383,90.666667 99,90.630433 99,84.833333 Z m 13,-3.89235 C 112,77.646994 111.55445,75 111,75 c -0.56503,0 -1,2.853006 -1,6.559017 0,4.118034 0.37216,6.329011 1,5.940983 0.55,-0.339919 1,-3.291476 1,-6.559017 z M 103,83 c 0,-2.2 -0.45,-4 -1,-4 -0.55,0 -1,1.8 -1,4 0,2.2 0.45,4 1,4 0.55,0 1,-1.8 1,-4 z m 32,0.5 c 0,-1.319347 8.61111,-1.5 71.5,-1.5 62.88889,0 71.5,0.180653 71.5,1.5 0,1.319347 -8.61111,1.5 -71.5,1.5 C 143.61111,85 135,84.819347 135,83.5 Z M 68,76 c 0,-0.55 0.476558,-1 1.059017,-1 0.582459,0 0.780902,0.45 0.440983,1 -0.339919,0.55 -0.816476,1 -1.059017,1 C 68.198442,77 68,76.55 68,76 Z m 22.26375,-0.717581 c 1.520062,-0.229855 3.770062,-0.223712 5,0.01365 1.229937,0.237362 -0.01375,0.425424 -2.76375,0.417917 -2.75,-0.0075 -3.756313,-0.201713 -2.23625,-0.431567 z M 64,68.940983 c 0,-1.682459 0.389651,-2.8182 0.865891,-2.523867 C 65.671457,66.914983 65.232015,72 64.383423,72 64.17254,72 64,70.623442 64,68.940983 Z m 52,1 c 0,-1.132459 0.45,-1.780902 1,-1.440983 0.55,0.339919 1,1.266476 1,2.059017 C 118,71.351558 117.55,72 117,72 c -0.55,0 -1,-0.926558 -1,-2.059017 z M 217.09366,68.754067 C 213.1627,67.306854 210.4353,63.894475 209.4974,59.25 L 208.84109,56 h 6.07945 C 220.10817,56 221,56.264053 221,57.8 c 0,4.186485 5.13121,5.691869 7.0677,2.073507 1.86881,-3.491918 -0.24112,-6.226033 -7.46906,-9.678624 -9.86352,-4.71153 -12.94547,-11.642359 -9.18217,-20.649221 1.8236,-4.364477 5.12357,-6.473321 11.20705,-7.161862 9.10159,-1.030137 15.35301,2.809135 16.87908,10.3662 l 0.65631,3.25 h -5.48163 c -5.19163,0 -5.53696,-0.158711 -6.52744,-3 -1.24166,-3.561855 -4.51459,-4.055484 -6.18573,-0.932942 -1.71572,3.205852 1.1204,6.497927 8.46815,9.829555 7.37367,3.343381 9.70525,6.272836 10.27537,12.910229 0.49573,5.771315 -1.98458,11.109954 -6.06123,13.046233 -4.00954,1.904401 -13.50354,2.391733 -17.55274,0.900992 z M 138,45.95431 V 22.90862 l 6.68863,0.29569 L 151.37727,23.5 154.93863,37 158.5,50.5 158.77822,36.75 159.05644,23 H 164.52822 170 v 23 23 h -6.47207 -6.47206 l -1.4817,-5.25 c -0.81493,-2.8875 -2.5965,-9.075 -3.95905,-13.75 l -2.47736,-8.5 -0.0689,13.75 L 149,69 H 143.5 138 Z M 177.65256,46.75 c 2.93688,-12.2375 5.3415,-22.606429 5.34361,-23.042064 0.002,-0.435636 3.47454,-0.660636 7.71652,-0.5 L 198.42539,23.5 203.66663,45 c 2.88269,11.825 5.26198,22.0625 5.28731,22.75 0.0318,0.8638 -1.77464,1.25 -5.84695,1.25 C 196.83848,69 196,68.341464 196,63.418213 196,61.188794 195.6165,61 191.0879,61 h -4.9121 l -0.6758,4 -0.6758,4 h -6.2557 -6.2557 z M 194,51.183659 C 194,49.964528 192.04021,38.871128 191.31761,36 190.83206,34.07072 190.39558,35.098016 189.40566,40.5 187.41267,51.375754 187.49921,52 191,52 c 1.65,0 3,-0.367353 3,-0.816341 z M 247.65256,46.75 c 2.93688,-12.2375 5.3415,-22.606429 5.34361,-23.042064 0.002,-0.435636 3.47454,-0.660636 7.71652,-0.5 L 268.42539,23.5 273.66663,45 c 2.88269,11.825 5.26198,22.0625 5.28731,22.75 0.0318,0.8638 -1.77464,1.25 -5.84695,1.25 C 266.83848,69 266,68.341464 266,63.418213 266,61.188794 265.6165,61 261.0879,61 h -4.9121 l -0.6758,4 -0.6758,4 h -6.2557 -6.2557 z M 264,51.183659 C 264,49.964528 262.04021,38.871128 261.31761,36 260.83206,34.07072 260.39558,35.098016 259.40566,40.5 257.41267,51.375754 257.49921,52 261,52 c 1.65,0 3,-0.367353 3,-0.816341 z m 16,-5.222592 V 22.922134 l 8.73837,0.288933 8.73837,0.288933 2.1954,12.350438 c 1.20747,6.792741 2.39028,12.545317 2.62847,12.783502 0.23818,0.238184 0.72876,-1.494513 1.09016,-3.850439 0.36141,-2.355925 1.36809,-8.221001 2.23706,-13.033501 L 307.20778,23 H 315.60389 324 v 23 23 h -5.47523 -5.47523 L 312.77477,52.75 312.5,36.5 309.56602,52.75 306.63203,69 h -4.31601 c -2.37381,0 -4.32339,-0.1125 -4.3324,-0.25 -0.16275,-2.483344 -5.95646,-31.056171 -6.38394,-31.483649 C 291.26986,36.936525 291,43.941667 291,52.833333 V 69 H 285.5 280 Z M 331.65256,46.75 c 2.93688,-12.2375 5.3415,-22.606429 5.34361,-23.042064 0.002,-0.435636 3.47859,-0.660636 7.72552,-0.5 l 7.72169,0.292064 4.94515,20.5 4.94516,20.5 1.73746,-7 c 0.9556,-3.85 3.20406,-13.205105 4.99657,-20.789123 l 3.2591,-13.789122 7.54928,0.289122 7.54929,0.289123 5.24124,21.5 c 2.88269,11.825 5.26198,22.0625 5.28731,22.75 0.0318,0.8638 -1.77464,1.25 -5.84695,1.25 C 385.83848,69 385,68.341464 385,63.418213 385,61.188794 384.6165,61 380.0879,61 h -4.9121 l -0.6758,4 -0.6758,4 H 362.51909 C 350.36747,69 350,68.836157 350,63.418213 350,61.188794 349.6165,61 345.0879,61 h -4.9121 l -0.6758,4 -0.6758,4 h -6.2557 -6.2557 z M 348,51.183659 C 348,49.964528 346.04021,38.871128 345.31761,36 344.83206,34.07072 344.39558,35.098016 343.40566,40.5 341.41267,51.375754 341.49921,52 345,52 c 1.65,0 3,-0.367353 3,-0.816341 z m 35,0 C 383,49.964528 381.04021,38.871128 380.31761,36 379.83206,34.07072 379.39558,35.098016 378.40566,40.5 376.41267,51.375754 376.49921,52 380,52 c 1.65,0 3,-0.367353 3,-0.816341 z M 400,46 V 23 h 10.59887 C 426.82397,23 431,26.035146 431,37.827567 c 0,5.001525 -0.43347,6.534131 -2.56428,9.066451 -2.67026,3.17343 -7.62728,5.090867 -13.18572,5.100405 L 412,52 v 8.5 8.5 h -6 -6 z m 17.8,-4.2 c 0.66,-0.66 1.2,-2.595 1.2,-4.3 0,-3.684083 -1.55178,-5.5 -4.7,-5.5 -2.12121,0 -2.3,0.427536 -2.3,5.5 0,5.072464 0.17879,5.5 2.3,5.5 1.265,0 2.84,-0.54 3.5,-1.2 z M 118,57 c 0,-6.666667 0.39394,-11 1,-11 0.60606,0 1,4.333333 1,11 0,6.666667 -0.39394,11 -1,11 -0.60606,0 -1,-4.333333 -1,-11 z M 62.149832,64.25 C 62.013822,62.207555 61.492642,62 56.5,62 53.475,62 51,61.55 51,61 c 0,-0.55 2.48464,-1 5.521423,-1 5.274333,0 5.744221,-0.220466 10.5,-4.926459 C 71.726222,50.417993 72,49.860395 72,44.933783 c 0,-6.467076 -1.548704,-7.858457 -8.795455,-7.90198 -4.314133,-0.02591 -5.750315,0.423058 -7.75,2.422742 -1.35,1.35 -2.454545,3.6 -2.454545,5 C 53,45.854545 52.55,47 52,47 c -0.55,0 -1,-0.45 -1,-1 0,-0.55 -0.9,-1 -2,-1 -1.1,0 -2,-0.45 -2,-1 0,-0.55 0.620738,-1 1.379418,-1 0.75868,0 3.234195,-1.8 5.501145,-4 3.802378,-3.690083 4.551296,-4 9.666036,-4 C 71.253608,35 74,37.707436 74,45.305126 c 0,5.253137 -0.143409,5.527387 -5.415299,10.356032 -3.613169,3.309384 -5.560017,5.938193 -5.850168,7.899419 -0.319489,2.159532 -0.474622,2.34245 -0.584701,0.689423 z M 49,59 c 0,-0.55 0.476558,-1 1.059017,-1 0.582459,0 0.780902,0.45 0.440983,1 -0.339919,0.55 -0.816476,1 -1.059017,1 C 49.198442,60 49,59.55 49,59 Z m -2,-4 c 0,-1.824045 0.415001,-2.861549 1,-2.5 0.55,0.339919 1,1.464919 1,2.5 0,1.035081 -0.45,2.160081 -1,2.5 -0.584999,0.361549 -1,-0.675955 -1,-2.5 z m 5.25,1.504169 C 50.320456,54.312583 50.683072,54 55.154988,54 c 4.091645,0 4.127395,0.03049 2.345012,2 -2.114663,2.336677 -3.517953,2.471437 -5.25,0.504169 z M 49,49.440983 c 0,-0.857459 0.45,-1.280902 1,-0.940983 0.55,0.339919 1,1.041476 1,1.559017 C 51,50.576558 50.55,51 50,51 49.45,51 49,50.298442 49,49.440983 Z M 41,46 C 41,45.45 39.2,45 37,45 34.111111,45 33,44.583333 33,43.5 33,42.675 32.325,42 31.5,42 30.675,42 30,41.325 30,40.5 30,39.675 29.325,39 28.5,39 27.675,39 27,38.325 27,37.5 27,36.675 26.325,36 25.5,36 24.675,36 24.053289,35.6625 24.118421,35.25 24.752696,31.232927 24.225546,31 14.5,31 6.7222222,31 5,30.72807 5,29.5 5,28.675 4.325,28 3.5,28 2.675,28 2,27.325 2,26.5 2,25.675 1.55,25 1,25 0.40677966,25 0,21.307692 0,15.923077 0,7.2240216 0.12168622,6.7244676 2.9230769,3.9230769 L 5.8461538,1 H 26.972643 48.099132 l 3.340855,3.25 C 54.753899,7.4737883 54.77971,7.570534 54.640421,16.245553 54.445491,28.385996 52.573497,28.003707 52.213788,15.75 51.985921,7.9875525 51.629181,6 50.463788,6 49.658705,6 49,5.325 49,4.5 49,3.2121212 45.888889,3 27,3 8.8620834,3 5,3.2445421 5,4.3930112 5,5.1591674 4.325,6.0450442 3.5,6.3616264 1.2938767,7.2081953 1.2938767,25 3.5,25 4.325,25 5,25.675 5,26.5 5,27.742424 6.8888889,28 16,28 h 11 v 3.466667 c 0,2.634801 0.847863,4.31453 3.533333,7 C 35.036265,42.969599 38,43.181294 38,39 38,37 37.5,36 36.5,36 35.416667,36 35,34.888889 35,32 v -4 h 7 c 5.555556,0 7,-0.309524 7,-1.5 0,-0.825 0.675,-1.5 1.5,-1.5 0.825,0 1.5,0.675 1.5,1.5 0,0.825 -0.675,1.5 -1.5,1.5 -0.825,0 -1.5,0.675 -1.5,1.5 0,1.151515 -1.277778,1.5 -5.5,1.5 -5.2,0 -5.5,0.136364 -5.5,2.5 0,1.555556 0.566667,2.5 1.5,2.5 1.111111,0 1.5,1.166667 1.5,4.5 0,3.333333 0.388889,4.5 1.5,4.5 0.825,0 1.5,0.45 1.5,1 0,0.55 -0.675,1 -1.5,1 C 41.675,47 41,46.55 41,46 Z m 36.25,-0.495831 c -1.645045,-1.868451 -1.578083,-3.318943 0.237013,-5.134039 1.316017,-1.316017 1.782709,-1.191318 4.058442,1.084415 2.275733,2.275733 2.400432,2.742425 1.084415,4.058442 -1.846695,1.846695 -3.748961,1.843577 -5.37987,-0.0088 z M 82,44.428571 C 82,43.686315 79.313685,41 78.571429,41 78.257143,41 78,41.9 78,43 c 0,1.333333 0.666667,2 2,2 1.1,0 2,-0.257143 2,-0.571429 z M 59,43 c 0,-1.1 0.45,-2 1,-2 0.55,0 1,0.9 1,2 0,1.1 -0.45,2 -1,2 -0.55,0 -1,-0.9 -1,-2 z m 4,0 c 0,-1.1 0.45,-2 1,-2 0.55,0 1,0.9 1,2 0,1.1 -0.45,2 -1,2 -0.55,0 -1,-0.9 -1,-2 z M 47,40.428571 c 0,-1.10368 2.768755,-3.326483 3.380952,-2.714285 C 51.716266,39.049599 50.896532,41 49,41 47.9,41 47,40.742857 47,40.428571 Z m 4,-5.487588 c 0,-1.132459 0.45,-1.780902 1,-1.440983 0.55,0.339919 1,1.266476 1,2.059017 C 53,36.351558 52.55,37 52,37 51.45,37 51,36.073442 51,34.940983 Z M 80,36 c 0,-0.55 0.9,-1 2,-1 1.1,0 2,0.45 2,1 0,0.55 -0.9,1 -2,1 -1.1,0 -2,-0.45 -2,-1 z m 13,0 c 0,-0.55 0.9,-1 2,-1 1.1,0 2,0.45 2,1 0,0.55 -0.9,1 -2,1 -1.1,0 -2,-0.45 -2,-1 z m 13,0 c 0,-0.55 0.675,-1 1.5,-1 0.825,0 1.5,0.45 1.5,1 0,0.55 -0.675,1 -1.5,1 -0.825,0 -1.5,-0.45 -1.5,-1 z M 78,34 c 0,-0.55 0.476558,-1 1.059017,-1 0.582459,0 0.780902,0.45 0.440983,1 -0.339919,0.55 -0.816476,1 -1.059017,1 C 78.198442,35 78,34.55 78,34 Z m 7,0 c 0,-0.55 1.575,-1 3.5,-1 1.925,0 3.5,0.45 3.5,1 0,0.55 -1.575,1 -3.5,1 C 86.575,35 85,34.55 85,34 Z m 12.5,0 c -0.37325,-0.603931 0.989616,-1 3.44098,-1 2.23246,0 4.05902,0.45 4.05902,1 0,0.55 -1.54844,1 -3.44098,1 C 99.666476,35 97.839919,34.55 97.5,34 Z M 76,32 c 0,-0.55 0.476558,-1 1.059017,-1 0.582459,0 0.780902,0.45 0.440983,1 -0.339919,0.55 -0.816476,1 -1.059017,1 C 76.198442,33 76,32.55 76,32 Z M 60.75,27.267795 c 2.3375,-0.210535 6.1625,-0.210535 8.5,0 2.3375,0.210535 0.425,0.382791 -4.25,0.382791 -4.675,0 -6.5875,-0.172256 -4.25,-0.382791 z M 9,15.5 c 0,-4.692309 0.8779827,-5.5568744 3.020938,-2.974772 1.134485,1.366971 1.440699,1.366971 2.951185,0 C 17.553772,10.188868 18,10.62727 18,15.5 18,17.975 17.55,20 17,20 16.45,20 16,18.5949 16,16.877555 16,14.148329 15.801503,13.919849 14.423785,15.063253 13.11749,16.147382 12.691997,16.125538 11.939097,14.935698 11.285309,13.902488 11.026333,14.411115 11.015313,16.75 11.006891,18.5375 10.55,20 10,20 9.45,20 9,17.975 9,15.5 Z m 11,1.122445 C 20,12.55292 22.371797,10.117652 24.833823,11.659266 26.698149,12.826626 27.753026,20 26.060365,20 25.477164,20 25,19.1 25,18 c 0,-1.111111 -0.666667,-2 -1.5,-2 -0.833333,0 -1.5,0.888889 -1.5,2 0,1.1 -0.45,2 -1,2 -0.55,0 -1,-1.5199 -1,-3.377555 z m 4.729167,-3.226612 c -0.332292,-0.332291 -1.194792,-0.367818 -1.916667,-0.07895 -0.797733,0.319226 -0.560776,0.556183 0.604167,0.604167 1.054166,0.04342 1.644791,-0.192928 1.3125,-0.52522 z m 4.460468,2.955444 c 0.383749,-4.511438 3.010474,-6.579739 5.365435,-4.224778 1.047486,1.047486 1.448093,2.753074 1.170413,4.983049 C 35.347128,20.148022 35.22354,20.266417 34.535018,18.25 33.583173,15.46241 31,15.279726 31,18 c 0,1.1 -0.477164,2 -1.060365,2 -0.61012,0 -0.92858,-1.549299 -0.75,-3.648723 z m 4.539532,-2.955444 c -0.332292,-0.332291 -1.194792,-0.367818 -1.916667,-0.07895 -0.797733,0.319226 -0.560776,0.556183 0.604167,0.604167 1.054166,0.04342 1.644791,-0.192928 1.3125,-0.52522 z M 38,15.5 c 0,-4.290782 0.133786,-4.5 2.877555,-4.5 1.582656,0 3.437527,0.674724 4.121936,1.499387 1.064328,1.282436 0.828831,1.446651 -1.627555,1.134916 C 41.792371,13.433844 41.2875,13.465418 42.25,13.704467 44.64817,14.300083 44.463037,16 42,16 c -1.333333,0 -2,0.666667 -2,2 0,1.1 -0.45,2 -1,2 -0.55,0 -1,-2.025 -1,-4.5 z"
         id="path3551" />
      <path
         style="fill:#305c9c"
         d="m 70,84.322785 c 0,-4.705876 0.45443,-6.920072 1.669643,-8.135285 1.2142,-1.2142 1.782489,-1.331105 2.083333,-0.428571 0.53942,1.618258 5.907693,1.611066 6.663691,-0.0089 0.466666,-1 0.7,-1 1.166666,0 0.320834,0.6875 1.895834,1.25 3.5,1.25 C 86.6875,77 88,77.45 88,78 c 0,0.55 -0.9,1 -2,1 -1.771429,0 -2,0.666667 -2,5.833333 v 5.833334 h -3.108135 -3.108136 l 0.421946,-5.833334 C 78.576178,79.71118 78.406486,79 76.81381,79 c -1.541368,0 -1.813916,0.863675 -1.814516,5.75 -6.67e-4,5.427561 -0.140857,5.758087 -2.5,5.894213 C 70.076399,90.784018 70,90.590783 70,84.322785 Z M 74,82 c 0,-2.75 -0.45,-5 -1,-5 -0.55,0 -1,2.25 -1,5 0,2.75 0.45,5 1,5 0.55,0 1,-2.25 1,-5 z m 8,0 c 0,-2.75 -0.45,-5 -1,-5 -0.55,0 -1,2.25 -1,5 0,2.75 0.45,5 1,5 0.55,0 1,-2.25 1,-5 z m 18.00071,2.75 C 100.00032,81.583804 99.550643,79 99,79 c -0.55,0 -1,-0.45 -1,-1 0,-0.55 1.125,-1 2.5,-1 1.375,0 2.5,-0.45 2.5,-1 0,-0.55 1.575,-1 3.5,-1 1.925,0 3.5,-0.45 3.5,-1 0,-0.55 1.215,-1 2.7,-1 2.1,0 2.43333,0.266667 1.5,1.2 -0.72127,0.721268 -1.20028,4.212021 -1.20071,8.75 -6.8e-4,7.347427 -0.0678,7.553869 -2.5,7.694213 C 108.0459,90.785778 108,90.652618 108,83.394213 108,77.488246 107.69809,76 106.5,76 c -1.19809,0 -1.5,1.488246 -1.5,7.394213 0,7.258405 -0.0459,7.391565 -2.49929,7.25 -2.35915,-0.136126 -2.49934,-0.466652 -2.5,-5.894213 z M 112,80.940983 C 112,77.646994 111.55445,75 111,75 c -0.56503,0 -1,2.853006 -1,6.559017 0,4.118034 0.37216,6.329011 1,5.940983 0.55,-0.339919 1,-3.291476 1,-6.559017 z M 103,83 c 0,-2.2 -0.45,-4 -1,-4 -0.55,0 -1,1.8 -1,4 0,2.2 0.45,4 1,4 0.55,0 1,-1.8 1,-4 z m 32,0.5 c 0,-1.319347 8.61111,-1.5 71.5,-1.5 62.88889,0 71.5,0.180653 71.5,1.5 0,1.319347 -8.61111,1.5 -71.5,1.5 C 143.61111,85 135,84.819347 135,83.5 Z M 90.75,75.294267 c 1.2375,-0.238353 3.2625,-0.238353 4.5,0 1.2375,0.238353 0.225,0.433369 -2.25,0.433369 -2.475,0 -3.4875,-0.195016 -2.25,-0.433369 z M 64.232003,69 c 0,-1.925 0.205795,-2.7125 0.457323,-1.75 0.251527,0.9625 0.251527,2.5375 0,3.5 -0.251528,0.9625 -0.457323,0.175 -0.457323,-1.75 z M 116,70.5 c 0,-0.825 0.45,-1.5 1,-1.5 0.55,0 1,0.675 1,1.5 0,0.825 -0.45,1.5 -1,1.5 -0.55,0 -1,-0.675 -1,-1.5 z M 217.31291,68.956901 C 213.12271,67.666507 210,63.570696 210,59.365141 V 56 h 5.43045 c 4.78922,0 5.46818,0.253621 5.75,2.147872 0.73399,4.93354 6.91294,4.889061 7.64631,-0.05504 0.44179,-2.978346 -1.46022,-5.037766 -6.82676,-7.391731 -9.96386,-4.370524 -12.82635,-8.704943 -11.51665,-17.438659 1.24712,-8.316367 8.41937,-12.468364 18.57442,-10.75268 5.56919,0.940908 8.95918,4.114372 9.90184,9.269372 L 239.73145,36 h -5.14649 c -4.80001,0 -5.22272,-0.201967 -6.27886,-3 -1.43479,-3.801207 -4.86255,-4.067588 -6.4862,-0.504062 -1.52551,3.348117 0.72766,5.808493 8.83219,9.644436 3.38366,1.60151 6.86077,3.993409 7.72693,5.315331 4.14834,6.331169 2.53602,16.535216 -3.13465,19.838499 -3.78341,2.203917 -13.30657,3.086953 -17.93146,1.662697 z M 138,46 V 23 h 6.46146 6.46145 l 1.12513,4.25 c 0.61881,2.3375 2.40034,8.75 3.95895,14.25 l 2.83382,10 0.0796,-14.25 L 159,23 h 5.5 5.5 v 23 23 h -6.38451 -6.3845 L 153.19272,54.75 149.15445,40.5 149.07725,54.75 149,69 h -5.5 -5.5 z m 34.99432,22.25 c -0.003,-0.4125 2.3582,-10.7625 5.24739,-23 L 183.49477,23 H 190.68 c 5.97317,0 7.27522,0.295202 7.71871,1.75 C 199.03494,26.83701 209,68.075647 209,68.621556 209,68.8297 206.30532,69 203.01182,69 h -5.98818 l -0.63963,-4 -0.63963,-4 h -4.7652 C 185.92632,61 185,61.864755 185,66.581787 185,68.870714 184.67922,69 179,69 c -3.3,0 -6.00255,-0.3375 -6.00568,-0.75 z m 20.95307,-18 c -0.0824,-2.742287 -2.60116,-16.237107 -3.1291,-16.765039 -0.26066,-0.260669 -1.03071,3.163099 -1.7112,7.608373 -0.68049,4.445273 -1.48112,8.717794 -1.77917,9.494491 C 186.92294,51.643209 187.69734,52 190.39301,52 c 2.7886,0 3.59505,-0.397056 3.55438,-1.75 z m 49.04693,18 c -0.003,-0.4125 2.3582,-10.7625 5.24739,-23 L 253.49477,23 H 260.68 c 5.97317,0 7.27522,0.295202 7.71871,1.75 C 269.03494,26.83701 279,68.075647 279,68.621556 279,68.8297 276.30532,69 273.01182,69 h -5.98818 l -0.63963,-4 -0.63963,-4 h -4.7652 C 255.92632,61 255,61.864755 255,66.581787 255,68.870714 254.67922,69 249,69 c -3.3,0 -6.00255,-0.3375 -6.00568,-0.75 z m 20.95307,-18 c -0.0824,-2.742287 -2.60116,-16.237107 -3.1291,-16.765039 -0.26066,-0.260669 -1.03071,3.163099 -1.7112,7.608373 -0.68049,4.445273 -1.48112,8.717794 -1.77917,9.494491 C 256.92294,51.643209 257.69734,52 260.39301,52 c 2.7886,0 3.59505,-0.397056 3.55438,-1.75 z M 281,46 V 23 h 7.98095 c 9.19562,0 7.90529,-1.81171 10.89636,15.299196 1.03826,5.939558 2.08991,11.001358 2.337,11.248444 0.24708,0.247087 1.48431,-5.625051 2.74938,-13.049196 L 307.26383,23 H 315.63191 324 v 23 23 h -5.5 -5.5 l -0.0976,-17.25 -0.0976,-17.25 -3.15588,17 -3.15588,17 -4.11676,0.301156 -4.11675,0.301157 -2.70751,-14.801157 C 291.5654,32.507359 291.16805,32.280737 291.07895,51.75 L 291,69 h -5 -5 z m 45.99432,22.25 c -0.003,-0.4125 2.3582,-10.7625 5.24739,-23 L 337.49477,23 h 7.21407 7.21407 l 1.00019,3.75 c 0.5501,2.0625 2.64685,10.725 4.65942,19.25 2.01258,8.525 3.99283,16.120757 4.40056,16.87946 0.61447,1.143413 7.10499,-23.52223 9.63868,-36.62946 L 372.25,23 h 7.30761 c 6.08973,0 7.39653,0.291654 7.8411,1.75 C 388.03494,26.83701 398,68.075647 398,68.621556 398,68.8297 395.30532,69 392.01182,69 h -5.98818 l -0.63963,-4 -0.63963,-4 h -4.7652 C 374.92632,61 374,61.864755 374,66.581787 374,68.999074 373.9956,69 362.51182,69 h -11.48818 l -0.63963,-4 -0.63963,-4 h -4.7652 C 339.92632,61 339,61.864755 339,66.581787 339,68.870714 338.67922,69 333,69 c -3.3,0 -6.00255,-0.3375 -6.00568,-0.75 z m 20.95307,-18 c -0.0824,-2.742287 -2.60116,-16.237107 -3.1291,-16.765039 -0.26066,-0.260669 -1.03071,3.163099 -1.7112,7.608373 -0.68049,4.445273 -1.48112,8.717794 -1.77917,9.494491 C 340.92294,51.643209 341.69734,52 344.39301,52 c 2.7886,0 3.59505,-0.397056 3.55438,-1.75 z m 35,0 c -0.0824,-2.742287 -2.60116,-16.237107 -3.1291,-16.765039 -0.26066,-0.260669 -1.03071,3.163099 -1.7112,7.608373 -0.68049,4.445273 -1.48112,8.717794 -1.77917,9.494491 C 375.92294,51.643209 376.69734,52 379.39301,52 c 2.7886,0 3.59505,-0.397056 3.55438,-1.75 z M 401,46 V 23 h 9.53212 c 15.24862,0 19.65251,2.898868 20.21506,13.306601 0.53859,9.964324 -3.19864,14.368454 -13.05601,15.385824 L 412,52.279806 V 60.639903 69 h -5.5 -5.5 z m 16.8,-4.2 c 0.66,-0.66 1.2,-2.595 1.2,-4.3 0,-3.684083 -1.55178,-5.5 -4.7,-5.5 -2.12121,0 -2.3,0.427536 -2.3,5.5 0,5.072464 0.17879,5.5 2.3,5.5 1.265,0 2.84,-0.54 3.5,-1.2 z M 118,57 c 0,-6.666667 0.39394,-11 1,-11 0.60606,0 1,4.333333 1,11 0,6.666667 -0.39394,11 -1,11 -0.60606,0 -1,-4.333333 -1,-11 z M 62.149832,64.25 C 62.013822,62.207555 61.492642,62 56.5,62 53.475,62 51,61.55 51,61 c 0,-0.55 2.534717,-1 5.632705,-1 4.52718,0 6.000441,-0.424004 7.506343,-2.160323 1.030501,-1.188178 2.16793,-1.866033 2.527619,-1.506344 0.359689,0.359689 -0.279257,1.463373 -1.41988,2.452629 -1.140622,0.989257 -2.270343,3.129612 -2.510491,4.756344 -0.317923,2.153571 -0.477367,2.345976 -0.586464,0.707694 z M 49,59 c 0,-0.55 0.476558,-1 1.059017,-1 0.582459,0 0.780902,0.45 0.440983,1 -0.339919,0.55 -0.816476,1 -1.059017,1 C 49.198442,60 49,59.55 49,59 Z m 3.25,-2.495831 C 50.320456,54.312583 50.683072,54 55.154988,54 c 4.091645,0 4.127395,0.03049 2.345012,2 -2.114663,2.336677 -3.517953,2.471437 -5.25,0.504169 z M 47,54.333333 c 0,-3.007404 0.851559,-2.700415 1.473942,0.53136 C 48.700115,56.039112 48.461003,57 47.942582,57 47.424162,57 47,55.8 47,54.333333 Z m 20.54026,0.73181 C 67.178198,54.479314 67.550528,54 68.367659,54 c 0.817131,0 1.641746,-0.7875 1.832478,-1.75 0.221744,-1.119 0.600251,-1.347475 1.049743,-0.633647 0.386626,0.613994 -0.141756,1.880809 -1.174184,2.815143 -1.230814,1.113871 -2.103802,1.332045 -2.535436,0.633647 z M 49,49.440983 c 0,-0.857459 0.45,-1.280902 1,-0.940983 0.55,0.339919 1,1.041476 1,1.559017 C 51,50.576558 50.55,51 50,51 49.45,51 49,50.298442 49,49.440983 Z m 23,-4.35765 c 0,-3.828571 -0.441147,-6.074219 -1.25,-6.363095 -0.6875,-0.245536 -0.933929,-0.786607 -0.547619,-1.202381 0.386309,-0.415774 1.398809,-0.05952 2.25,0.791667 C 74.203621,40.060764 74.675671,51 73,51 72.446009,51 72,48.361111 72,45.083333 Z M 41,46 c 0,-0.55 -1.8,-1 -4,-1 -2.888889,0 -4,-0.416667 -4,-1.5 0,-0.933333 0.944444,-1.5 2.5,-1.5 2.111111,0 2.5,-0.466667 2.5,-3 0,-2.051582 -0.493293,-3 -1.560365,-3 -1.191598,0 -1.487016,-0.886252 -1.25,-3.75 L 35.5,28.5 41.798989,28.201011 C 50.959983,27.766174 52,26.420299 52,15 52,7.6666667 51.722222,6 50.5,6 49.675,6 49,5.325 49,4.5 49,3.2121212 45.888889,3 27,3 8.1111111,3 5,3.2121212 5,4.5 5,5.325 4.55,6 4,6 2.545661,6 2.7759135,4.0812294 4.4285714,2.4285714 5.5766,1.2805429 10.010256,1 27.005495,1 h 21.148351 l 3.173077,3.1715882 C 54.337231,7.180484 54.517928,7.7960454 54.849498,16.171588 55.1492,23.742148 54.971103,25 53.599498,25 52.719774,25 52,25.675 52,26.5 52,27.325 51.325,28 50.5,28 49.675,28 49,28.675 49,29.5 49,30.651515 47.722222,31 43.5,31 38.365573,31 38,31.159058 38,33.393011 c 0,1.316156 0.675,2.652033 1.5,2.968615 0.990092,0.379935 1.5,1.946027 1.5,4.606989 C 41,43.185877 41.45,45 42,45 c 0.55,0 1,0.45 1,1 0,0.55 -0.45,1 -1,1 -0.55,0 -1,-0.45 -1,-1 z m 10,0 c 0,-0.55 -0.9,-1 -2,-1 -1.1,0 -2,-0.45 -2,-1 0,-0.55 0.71028,-1 1.578401,-1 0.86812,0 3.30784,-1.8 5.421599,-4 3.665174,-3.814712 4.127496,-4 9.980616,-4 3.836968,0 5.905764,0.374824 5.519384,1 -0.339919,0.55 -3.086931,1 -6.104472,1 -4.491773,0 -5.931434,0.444997 -7.940983,2.454545 -1.35,1.35 -2.454545,3.6 -2.454545,5 C 53,45.854545 52.55,47 52,47 51.45,47 51,46.55 51,46 Z m 26.25,-0.495831 c -1.645045,-1.868451 -1.578083,-3.318943 0.237013,-5.134039 1.316017,-1.316017 1.782709,-1.191318 4.058442,1.084415 2.275733,2.275733 2.400432,2.742425 1.084415,4.058442 -1.846695,1.846695 -3.748961,1.843577 -5.37987,-0.0088 z M 82,44.428571 C 82,43.686315 79.313685,41 78.571429,41 78.257143,41 78,41.9 78,43 c 0,1.333333 0.666667,2 2,2 1.1,0 2,-0.257143 2,-0.571429 z M 59,43 c 0,-1.1 0.45,-2 1,-2 0.55,0 1,0.9 1,2 0,1.1 -0.45,2 -1,2 -0.55,0 -1,-0.9 -1,-2 z m 4,0 c 0,-1.1 0.45,-2 1,-2 0.55,0 1,0.9 1,2 0,1.1 -0.45,2 -1,2 -0.55,0 -1,-0.9 -1,-2 z M 30,40.5 C 30,39.675 29.325,39 28.5,39 27.675,39 27,38.325 27,37.5 27,36.675 26.298442,36 25.440983,36 c -0.857459,0 -1.305999,-0.409391 -0.996756,-0.909758 0.309244,-0.500367 0.287657,-1.625367 -0.04797,-2.5 C 23.898367,31.292764 22.056765,31 14.393011,31 6.7103346,31 5,30.726871 5,29.5 5,28.675 4.55,28 4,28 3.45,28 3,27.325 3,26.5 3,25.675 3.45,25 4,25 c 0.55,0 1,0.675 1,1.5 0,1.242424 1.8888889,1.5 11,1.5 h 11 v 3.547749 c 0,2.499753 0.738494,4.232162 2.5,5.864671 C 32.060013,39.78496 32.784264,42 31,42 30.45,42 30,41.325 30,40.5 Z m 17,-0.07143 c 0,-1.10368 2.768755,-3.326483 3.380952,-2.714285 C 51.716266,39.049599 50.896532,41 49,41 47.9,41 47,40.742857 47,40.42857 Z m 4,-4.869554 C 51,34.701558 51.45,34 52,34 c 0.55,0 1,0.423442 1,0.940983 0,0.517541 -0.45,1.219098 -1,1.559017 -0.55,0.339919 -1,-0.08352 -1,-0.940984 z M 80,36 c 0,-0.55 0.9,-1 2,-1 1.1,0 2,0.45 2,1 0,0.55 -0.9,1 -2,1 -1.1,0 -2,-0.45 -2,-1 z m 13,0 c 0,-0.55 0.9,-1 2,-1 1.1,0 2,0.45 2,1 0,0.55 -0.9,1 -2,1 -1.1,0 -2,-0.45 -2,-1 z m 13,0 c 0,-0.55 0.675,-1 1.5,-1 0.825,0 1.5,0.45 1.5,1 0,0.55 -0.675,1 -1.5,1 -0.825,0 -1.5,-0.45 -1.5,-1 z M 78,34 c 0,-0.55 0.476558,-1 1.059017,-1 0.582459,0 0.780902,0.45 0.440983,1 -0.339919,0.55 -0.816476,1 -1.059017,1 C 78.198442,35 78,34.55 78,34 Z m 7,0 c 0,-0.55 1.575,-1 3.5,-1 1.925,0 3.5,0.45 3.5,1 0,0.55 -1.575,1 -3.5,1 C 86.575,35 85,34.55 85,34 Z m 13,0 c 0,-0.55 1.575,-1 3.5,-1 1.925,0 3.5,0.45 3.5,1 0,0.55 -1.575,1 -3.5,1 C 99.575,35 98,34.55 98,34 Z M 60.75,27.267795 c 2.3375,-0.210535 6.1625,-0.210535 8.5,0 2.3375,0.210535 0.425,0.382791 -4.25,0.382791 -4.675,0 -6.5875,-0.172256 -4.25,-0.382791 z M 0,15.5 C 0,9.8333333 0.40350877,6 1,6 1.5964912,6 2,9.8333333 2,15.5 2,21.166667 1.5964912,25 1,25 0.40350877,25 0,21.166667 0,15.5 Z m 9,0.2 C 9,13.115 9.45,11 10,11 11.616151,11 11.547421,17.75221 9.913989,19.45 9.3568958,20.029042 9,18.564736 9,15.7 Z m 7,1.3 c 0,-1.65 -0.45,-3 -1,-3 -0.55,0 -1,0.525 -1,1.166667 0,0.641666 -0.304752,0.861914 -0.677227,0.48944 C 12.690688,15.024022 16.264703,11 17.458187,11 17.756184,11 18,13.025 18,15.5 18,17.975 17.55,20 17,20 16.45,20 16,18.65 16,17 Z m 4,-0.240983 C 20,13.586807 20.194648,13.4 23.5,13.4 26.805352,13.4 27,13.586807 27,16.759017 27,18.743718 26.590858,19.86517 26,19.5 25.45,19.160081 25,18.233524 25,17.440983 25,16.648442 24.325,16 23.5,16 22.675,16 22,16.648442 22,17.440983 22,18.233524 21.55,19.160081 21,19.5 20.409142,19.86517 20,18.743718 20,16.759017 Z m 9,-0.08404 c 0,-3.147133 0.187097,-3.321012 3.497057,-3.25 3.298484,0.07077 3.497224,0.269034 3.5,3.491693 0.0016,1.879166 -0.334557,3.079166 -0.747057,2.666666 -0.4125,-0.4125 -0.75,-1.268837 -0.75,-1.902971 0,-0.634135 -0.7875,-1.304631 -1.75,-1.489991 C 31.53767,15.956897 31,16.49036 31,17.926676 31,19.067004 30.55,20 30,20 29.45,20 29,18.503738 29,16.674974 Z M 38,15.5 c 0,-4.270546 0.140222,-4.494085 2.75,-4.383999 1.691897,0.07137 2.076662,0.291963 1,0.573325 C 39.612141,12.248007 39.422586,14 41.5,14 c 0.825,0 1.5,0.45 1.5,1 0,0.55 -0.675,1 -1.5,1 -0.833333,0 -1.5,0.888889 -1.5,2 0,1.1 -0.45,2 -1,2 -0.55,0 -1,-2.025 -1,-4.5 z M 22.8125,11.316886 c 0.721875,-0.288871 1.584375,-0.253344 1.916667,0.07895 0.332291,0.332292 -0.258334,0.568641 -1.3125,0.52522 -1.164943,-0.04798 -1.4019,-0.284941 -0.604167,-0.604167 z m 9,0 c 0.721875,-0.288871 1.584375,-0.253344 1.916667,0.07895 0.332291,0.332292 -0.258334,0.568641 -1.3125,0.52522 -1.164943,-0.04798 -1.4019,-0.284941 -0.604167,-0.604167 z"
         id="path3549" />
      <path
         style="fill:#0a3c90"
         d="m 70,84.551016 c 0,-4.919054 0.44269,-7.136564 1.669643,-8.363516 1.2142,-1.2142 1.782489,-1.331105 2.083333,-0.428571 0.53942,1.618258 5.907693,1.611066 6.663691,-0.0089 0.466666,-1 0.7,-1 1.166666,0 0.320834,0.6875 2.008334,1.256891 3.75,1.265313 2.314943,0.01119 2.776061,0.262412 1.714413,0.934017 -0.79874,0.505287 -1.81124,0.696839 -2.25,0.42567 C 84.358986,78.103831 84,80.888624 84,84.563428 c 0,5.638326 -0.220286,6.49864 -1.410972,5.510458 C 81.624473,89.273377 80.97302,89.234637 80.530011,89.951442 79.104469,92.258017 78.5,90.709745 78.5,84.751823 78.5,79.861314 78.17338,78.5 77,78.5 c -1.128205,0 -1.623932,1.611111 -2,6.5 -0.309437,4.022684 -0.819775,6.005086 -1.339028,5.201442 -0.646229,-1.000165 -1.163252,-1.029476 -2.25,-0.127556 C 70.220242,91.062105 70,90.200027 70,84.551016 Z m 4,-2.610033 C 74,79.223442 73.55,77 73,77 c -0.55,0 -1,2.501558 -1,5.559017 0,3.451367 0.379141,5.324695 1,4.940983 0.55,-0.339919 1,-2.841476 1,-5.559017 z M 82,82.5 C 82,79.475 81.55,77 81,77 c -0.55,0 -1,2.475 -1,5.5 0,3.025 0.45,5.5 1,5.5 0.55,0 1,-2.475 1,-5.5 z m 18,2.7 c 0,-3.466667 -0.44086,-6.2 -1,-6.2 -0.55,0 -1,-0.45 -1,-1 0,-0.55 1.098442,-1 2.44098,-1 1.34254,0 2.7191,-0.45 3.05902,-1 0.33992,-0.55 1.94148,-1 3.55902,-1 C 108.67656,75 110,74.55 110,74 c 0,-0.55 1.2375,-0.964474 2.75,-0.921053 1.5125,0.04342 2.1875,0.305921 1.5,0.583334 -0.86303,0.34824 -1.25,3.14788 -1.25,9.043497 0,6.971776 -0.24298,8.337456 -1.32379,7.44046 -0.9667,-0.802287 -1.64108,-0.781366 -2.5,0.07756 C 108.2746,91.125402 108,89.602353 108,83.7 c 0,-6.177778 -0.29654,-7.7 -1.5,-7.7 -1.20214,0 -1.5,1.513605 -1.5,7.622445 0,6.211189 -0.24509,7.419035 -1.32379,6.523793 -0.9667,-0.802287 -1.64108,-0.781366 -2.5,0.07756 C 100.2746,91.125402 100,89.952544 100,85.2 Z m 3,-1.7 c 0,-2.475 -0.45,-4.5 -1,-4.5 -1.10443,0 -1.39528,7.271383 -0.33333,8.333333 C 102.84819,88.514857 103,88.078402 103,83.5 Z m 9,-2.559017 C 112,77.646994 111.55445,75 111,75 c -0.56503,0 -1,2.853006 -1,6.559017 0,4.118034 0.37216,6.329011 1,5.940983 0.55,-0.339919 1,-3.291476 1,-6.559017 z M 135,83 c 0,-0.657343 24.5,-1 71.5,-1 47,0 71.5,0.342657 71.5,1 0,0.657343 -24.5,1 -71.5,1 -47,0 -71.5,-0.342657 -71.5,-1 z M 90.75,75.294267 c 1.2375,-0.238353 3.2625,-0.238353 4.5,0 1.2375,0.238353 0.225,0.433369 -2.25,0.433369 -2.475,0 -3.4875,-0.195016 -2.25,-0.433369 z M 64.194949,69.5 c 0.02038,-1.65 0.244498,-2.203936 0.498042,-1.230968 0.253543,0.972967 0.236869,2.322967 -0.03705,3 C 64.382014,71.946064 64.174569,71.15 64.194949,69.5 Z M 116,70.5 c 0,-0.825 0.375,-1.5 0.83333,-1.5 0.45834,0 0.83334,0.675 0.83334,1.5 0,0.825 -0.375,1.5 -0.83334,1.5 C 116.375,72 116,71.325 116,70.5 Z m 104.5,-0.932165 c -0.55,-0.216091 -2.25146,-0.669332 -3.78102,-1.007201 -3.27218,-0.722803 -6.70978,-5.771721 -6.71524,-9.862894 -0.004,-2.750144 0.0931,-2.796638 5.20562,-2.5 4.62293,0.268234 5.27484,0.583694 5.791,2.80226 1.09257,4.696148 7.99964,3.429112 7.99964,-1.467457 0,-2.716818 -1.98399,-4.541985 -8.5,-7.819558 -7.43491,-3.739781 -9.83928,-6.759077 -9.92702,-12.465863 -0.0939,-6.108367 1.98546,-10.967422 5.4629,-12.765677 7.5643,-3.911649 17.7341,-2.546679 21.00599,2.81938 1.07286,1.759546 1.95234,4.436675 1.95439,5.949175 0.004,2.624443 -0.21884,2.75 -4.87126,2.75 -4.61667,0 -4.90679,-0.158974 -5.475,-3 -0.46688,-2.334397 -1.13305,-3 -3.00256,-3 -3.1771,0 -5.02386,2.364099 -4.25129,5.442247 0.44805,1.785188 2.60564,3.518345 7.79673,6.262986 8.98058,4.748233 11.21434,7.620058 11.11375,14.288314 -0.12774,8.467355 -4.48577,12.848639 -13.47917,13.551075 -2.9301,0.228858 -5.77746,0.239304 -6.32746,0.02321 z M 138,46 V 23 h 6.39045 6.39045 l 2.20386,8.25 c 1.21212,4.5375 3.02945,11.175 4.03852,14.75 l 1.83467,6.5 0.071,-14.75 L 159,23 h 5.5 5.5 v 23 23 h -6.35411 -6.35411 L 153.46463,55 C 151.3597,47.3 149.26905,41 148.81874,41 148.36843,41 148,47.3 148,55 v 14 h -5 -5 z m 35.02594,22.25 c 0.0143,-0.4125 2.38791,-10.65 5.27475,-22.75 l 5.2488,-22 7.19536,-0.293206 c 6.79341,-0.276827 7.22484,-0.165102 7.7232,2 0.29032,1.261263 2.54859,10.618206 5.01838,20.793206 2.4698,10.175 4.72929,19.5125 5.02111,20.75 0.50464,2.140068 0.24078,2.25 -5.40059,2.25 h -5.93115 l -0.68407,-4.048925 -0.68406,-4.048924 -5.15383,0.298924 L 185.5,61.5 185.18963,65.25 184.87927,69 h -5.93964 c -3.26679,0 -5.92795,-0.3375 -5.91369,-0.75 z M 194,50.442629 c 0,-3.084003 -2.29773,-15.960245 -2.98694,-16.738502 -0.38764,-0.437731 -1.24544,2.487269 -1.90622,6.5 -0.66078,4.01273 -1.45392,8.308373 -1.76254,9.545873 -0.50408,2.021307 -0.19435,2.25 3.04729,2.25 C 192.99148,52 194,51.564727 194,50.442629 Z M 243.02594,68.25 c 0.0143,-0.4125 2.38791,-10.65 5.27475,-22.75 l 5.2488,-22 7.19536,-0.293206 c 6.79341,-0.276827 7.22484,-0.165102 7.7232,2 0.29032,1.261263 2.54859,10.618206 5.01838,20.793206 2.4698,10.175 4.72929,19.5125 5.02111,20.75 0.50464,2.140068 0.24078,2.25 -5.40059,2.25 h -5.93115 l -0.68407,-4.048925 -0.68406,-4.048924 -5.15383,0.298924 L 255.5,61.5 255.18963,65.25 254.87927,69 h -5.93964 c -3.26679,0 -5.92795,-0.3375 -5.91369,-0.75 z M 264,50.442629 c 0,-3.084003 -2.29773,-15.960245 -2.98694,-16.738502 -0.38764,-0.437731 -1.24544,2.487269 -1.90622,6.5 -0.66078,4.01273 -1.45392,8.308373 -1.76254,9.545873 -0.50408,2.021307 -0.19435,2.25 3.04729,2.25 C 262.99148,52 264,51.564727 264,50.442629 Z M 281,46 V 23 h 8 c 4.4,0 8.00243,0.1125 8.00539,0.25 0.0351,1.628359 4.87521,26.963929 5.21635,27.30507 0.25502,0.255025 1.52046,-5.840537 2.81207,-13.545694 L 307.3822,23 H 315.6911 324 v 23 23 h -5.47639 -5.47638 L 312.77361,51.75 312.5,34.5 l -2.8948,16 c -1.59214,8.8 -3.10278,16.5625 -3.35699,17.25 -0.25654,0.693827 -2.12099,1.25 -4.19034,1.25 h -3.72815 l -2.83147,-15.75 c -1.55732,-8.6625 -3.19282,-16.425 -3.63446,-17.25 -0.44163,-0.825 -0.81666,6.2625 -0.83338,15.75 L 291,69 h -5 -5 z m 46.02594,22.25 c 0.0143,-0.4125 2.38791,-10.65 5.27475,-22.75 l 5.2488,-22 7.14448,-0.292179 c 6.16352,-0.252062 7.21276,-0.04611 7.64174,1.5 0.27349,0.985698 2.6514,10.722545 5.28423,21.637436 l 4.78697,19.845257 3.28572,-13.845257 C 367.49977,44.730366 369.79165,35.125 370.78569,31 l 1.80735,-7.5 7.17358,-0.293206 c 6.77073,-0.27674 7.20323,-0.164423 7.70143,2 0.29032,1.261263 2.54859,10.618206 5.01838,20.793206 2.4698,10.175 4.72929,19.5125 5.02111,20.75 0.50464,2.140068 0.24078,2.25 -5.40059,2.25 h -5.93115 l -0.68407,-4.048925 -0.68406,-4.048924 -5.15383,0.298924 L 374.5,61.5 374.18963,65.25 373.87927,69 H 362.52753 351.1758 l -0.68407,-4.048925 -0.68406,-4.048924 -5.15383,0.298924 L 339.5,61.5 339.18963,65.25 338.87927,69 h -5.93964 c -3.26679,0 -5.92795,-0.3375 -5.91369,-0.75 z M 348,50.442629 c 0,-3.084003 -2.29773,-15.960245 -2.98694,-16.738502 -0.38764,-0.437731 -1.24544,2.487269 -1.90622,6.5 -0.66078,4.01273 -1.45392,8.308373 -1.76254,9.545873 -0.50408,2.021307 -0.19435,2.25 3.04729,2.25 C 346.99148,52 348,51.564727 348,50.442629 Z m 35,0 c 0,-3.084003 -2.29773,-15.960245 -2.98694,-16.738502 -0.38764,-0.437731 -1.24544,2.487269 -1.90622,6.5 -0.66078,4.01273 -1.45392,8.308373 -1.76254,9.545873 -0.50408,2.021307 -0.19435,2.25 3.04729,2.25 C 381.99148,52 383,51.564727 383,50.442629 Z M 401,46 V 23 l 9.75,0.0016 c 11.52787,0.0018 15.81314,1.623068 18.49845,6.998446 3.3343,6.674526 1.5674,15.924963 -3.70115,19.377048 -1.49905,0.98222 -5.16045,2.037158 -8.13643,2.344306 L 412,52.279806 V 60.639903 69 h -5.5 -5.5 z m 18.03138,-6 c 1.11336,-4.563126 -0.31592,-7.465822 -3.8473,-7.813358 L 412,31.873283 V 37.5 43.126717 l 3.2107,-0.313359 C 417.6794,42.572418 418.56237,41.922246 419.03138,40 Z M 118,57 c 0,-6.666667 0.39394,-11 1,-11 0.60606,0 1,4.333333 1,11 0,6.666667 -0.39394,11 -1,11 -0.60606,0 -1,-4.333333 -1,-11 z M 62.149832,64.25 C 62.016013,62.240466 61.471938,62 57.059017,62 54.341476,62 51.839919,61.55 51.5,61 c -0.385686,-0.624053 1.628505,-1 5.35765,-1 3.875785,0 6.132562,-0.439259 6.422112,-1.25 0.245536,-0.6875 0.832503,-0.888032 1.304373,-0.445627 0.471869,0.442405 0.349081,1.118868 -0.272863,1.50325 -0.621944,0.384383 -1.328987,2.047415 -1.571207,3.695627 -0.314588,2.140643 -0.483205,2.353973 -0.590233,0.74675 z M 49,59 c 0,-0.55 0.476558,-1 1.059017,-1 0.582459,0 0.780902,0.45 0.440983,1 -0.339919,0.55 -0.816476,1 -1.059017,1 C 49.198442,60 49,59.55 49,59 Z m 3.25,-2.495831 C 50.320456,54.312583 50.683072,54 55.154988,54 c 4.091645,0 4.127395,0.03049 2.345012,2 -2.114663,2.336677 -3.517953,2.471437 -5.25,0.504169 z M 65.5,57 C 65.160081,56.45 65.358524,56 65.940983,56 66.523442,56 67,56.45 67,57 67,57.55 66.801558,58 66.559017,58 66.316476,58 65.839919,57.55 65.5,57 Z M 47,54.5 c 0,-1.375 0.17254,-2.5 0.383423,-2.5 0.210882,0 0.59848,1.125 0.861328,2.5 0.262848,1.375 0.09031,2.5 -0.383423,2.5 C 47.387598,57 47,55.875 47,54.5 Z m 2,-5.059017 c 0,-0.857459 0.45,-1.280902 1,-0.940983 0.55,0.339919 1,1.041476 1,1.559017 C 51,50.576558 50.55,51 50,51 49.45,51 49,50.298442 49,49.440983 Z m 23,-4.5 c 0,-3.784701 0.375361,-5.827031 1,-5.440983 0.55,0.339919 1,3.066476 1,6.059017 C 74,48.551558 73.55,51 73,51 72.443362,51 72,48.313661 72,44.940983 Z M 41,46 c 0,-0.55 0.45,-1 1,-1 0.55,0 1,0.45 1,1 0,0.55 -0.45,1 -1,1 -0.55,0 -1,-0.45 -1,-1 z m 10,0 c 0,-0.55 -0.9,-1 -2,-1 -1.1,0 -2,-0.45 -2,-1 0,-0.55 0.71028,-1 1.578401,-1 0.86812,0 3.30784,-1.8 5.421599,-4 3.583146,-3.729337 4.220665,-4 9.421599,-4 C 66.48972,35 69,35.45 69,36 c 0,0.55 -2.495455,1 -5.545455,1 -4.554433,0 -5.984103,0.438649 -8,2.454545 -1.35,1.35 -2.454545,3.6 -2.454545,5 C 53,45.854545 52.55,47 52,47 51.45,47 51,46.55 51,46 Z m 26.25,-0.495831 c -1.648022,-1.871832 -1.577715,-3.319311 0.25,-5.147026 1.333333,-1.333333 1.679894,-1.320106 3.119048,0.119047 0.890476,0.890477 1.278869,1.93512 0.863095,2.321429 C 81.066369,43.183929 80.525298,42.9375 80.279762,42.25 79.574808,40.276128 78,40.794211 78,43 c 0,2.255046 2.867104,2.732896 4.8,0.8 0.66,-0.66 1.2,-0.852857 1.2,-0.428571 0,1.263535 -2.755765,3.631489 -4.178571,3.590534 C 79.094643,46.941042 77.9375,46.285035 77.25,45.504169 Z M 34.159981,44.219994 C 32.04469,43.514897 32.959103,42 35.5,42 c 2,0 2.5,-0.5 2.5,-2.5 0,-1.555556 0.566667,-2.5 1.5,-2.5 1.038043,0 1.5,1.042945 1.5,3.386501 0,2.955873 -0.361136,3.439504 -2.840019,3.803327 -1.562011,0.229254 -3.362011,0.242829 -4,0.03017 z M 59,43 c 0,-1.1 0.45,-2 1,-2 0.55,0 1,0.9 1,2 0,1.1 -0.45,2 -1,2 -0.55,0 -1,-0.9 -1,-2 z m 4,0 c 0,-1.1 0.45,-2 1,-2 0.55,0 1,0.9 1,2 0,1.1 -0.45,2 -1,2 -0.55,0 -1,-0.9 -1,-2 z M 30,40.5 C 30,39.675 29.325,39 28.5,39 27.675,39 27,38.55 27,38 27,36.545661 28.918771,36.775913 30.571429,38.428571 32.224087,40.081229 32.454339,42 31,42 30.45,42 30,41.325 30,40.5 Z m 17,-0.07143 c 0,-0.314285 0.675,-1.246428 1.5,-2.071428 C 49.833333,37.02381 50,37.087302 50,38.928571 50,40.103175 49.350575,41 48.5,41 47.675,41 47,40.742857 47,40.42857 Z M 81,36 c 0,-0.55 0.675,-1 1.5,-1 0.825,0 1.5,0.45 1.5,1 0,0.55 -0.675,1 -1.5,1 C 81.675,37 81,36.55 81,36 Z m 12,0 c 0,-0.55 0.9,-1 2,-1 1.1,0 2,0.45 2,1 0,0.55 -0.9,1 -2,1 -1.1,0 -2,-0.45 -2,-1 z m 13,0 c 0,-0.55 0.675,-1 1.5,-1 0.825,0 1.5,0.45 1.5,1 0,0.55 -0.675,1 -1.5,1 -0.825,0 -1.5,-0.45 -1.5,-1 z M 25,33.536212 c 0,-2.43035 -0.132326,-2.467672 -9.75,-2.75 -13.3504618,-0.391904 -12.6431114,-2.209825 1,-2.570044 L 27,27.932337 v 4.033831 C 27,34.184776 26.55,36 26,36 25.45,36 25,34.891295 25,33.536212 Z M 36,32 v -4 h 6.5 c 3.666667,0 6.5,-0.435897 6.5,-1 0,-0.55 0.675,-1 1.5,-1 0.825,0 1.5,0.45 1.5,1 0,0.55 -0.675,1 -1.5,1 -0.825,0 -1.5,0.675 -1.5,1.5 0,1.151515 -1.277778,1.5 -5.5,1.5 -5.2,0 -5.5,0.136364 -5.5,2.5 0,1.375 -0.45,2.5 -1,2.5 -0.55,0 -1,-1.8 -1,-4 z m 50.761659,1.292739 c 1.243913,-0.239193 3.043913,-0.230112 4,0.02018 C 91.717747,33.563212 90.7,33.758916 88.5,33.747817 86.3,33.736717 85.517747,33.531932 86.761659,33.292739 Z M 99.25,33.310674 c 0.9625,-0.251527 2.5375,-0.251527 3.5,0 0.9625,0.251528 0.175,0.457323 -1.75,0.457323 -1.925,0 -2.7125,-0.205795 -1.75,-0.457323 z M 3,27 c 0,-0.55 0.45,-1 1,-1 0.55,0 1,0.45 1,1 0,0.55 -0.45,1 -1,1 -0.55,0 -1,-0.45 -1,-1 z m 58.776433,0.266503 c 2.352038,-0.211245 5.952038,-0.208273 8,0.0066 C 71.824395,27.487985 69.9,27.660822 65.5,27.65719 61.1,27.653557 59.424395,27.477749 61.776433,27.266503 Z M 0,15.5 C 0,9.8333333 0.40350877,6 1,6 1.5964912,6 2,9.8333333 2,15.5 2,21.166667 1.5964912,25 1,25 0.40350877,25 0,21.166667 0,15.5 Z m 52,0 C 52,7.7222222 51.72807,6 50.5,6 49.675,6 49,5.55 49,5 49,3.545661 50.918771,3.7759135 52.571429,5.4285714 54.268404,7.1255472 54.659816,25 53,25 52.403509,25 52,21.166667 52,15.5 Z M 9,15.436572 c 0,-4.064882 0.1991841,-4.516153 1.512331,-3.426338 1.142792,0.948433 1.237631,1.586117 0.388125,2.60971 -0.618314,0.745022 -0.868517,2.020906 -0.556006,2.835296 0.312511,0.814391 0.137855,1.746679 -0.3881239,2.071752 C 9.3999098,19.870876 9,18.160373 9,15.436572 Z M 16.805716,19 c -1.251287,-2.989264 -1.543481,-5.806271 -0.737521,-7.110342 1.352088,-2.1877243 2.079297,-0.378934 1.711192,4.256259 C 17.589207,18.540663 17.151055,19.825 16.805716,19 Z m 3.25767,-2.372445 c -0.05598,-3.420222 0.121266,-3.719197 1.517815,-2.560164 1.244954,1.03322 1.98924,1.057456 3.5,0.113971 C 26.842237,13.081577 27,13.285221 27,16.658193 c 0,2.021327 -0.3375,3.33764 -0.75,2.92514 -0.4125,-0.4125 -0.75,-1.268837 -0.75,-1.902971 0,-2.263834 -3.491251,-1.874414 -4.441374,0.495397 -0.821776,2.049685 -0.939341,1.8668 -0.99524,-1.548204 z M 29,16.559017 c 0,-3.455228 1.369846,-4.838859 2.286013,-2.309017 0.36164,0.998607 0.881186,0.996903 2.583334,-0.0085 2.026221,-1.196791 2.123978,-1.074255 1.994471,2.5 -0.08409,2.320771 -0.301959,2.897807 -0.569551,1.5085 C 34.812121,15.746755 31,15.028572 31,17.440983 31,18.233524 30.55,19.160081 30,19.5 29.404882,19.867803 29,18.677051 29,16.559017 Z M 38,15 c 0,-3.725091 0.189,-3.992028 2.75,-3.883999 1.691897,0.07137 2.076662,0.291963 1,0.573325 C 40.7875,11.940853 40,12.755657 40,13.5 c 0,0.744343 0.7875,1.559147 1.75,1.810674 1.666667,0.435546 1.666667,0.462847 0,0.573325 C 40.7875,15.947799 40,16.675 40,17.5 40,18.325 39.55,19 39,19 38.45,19 38,17.2 38,15 Z M 22.8125,11.316886 c 0.721875,-0.288871 1.584375,-0.253344 1.916667,0.07895 0.332291,0.332292 -0.258334,0.568641 -1.3125,0.52522 -1.164943,-0.04798 -1.4019,-0.284941 -0.604167,-0.604167 z m 9,0 c 0.721875,-0.288871 1.584375,-0.253344 1.916667,0.07895 0.332291,0.332292 -0.258334,0.568641 -1.3125,0.52522 -1.164943,-0.04798 -1.4019,-0.284941 -0.604167,-0.604167 z M 3,5 C 3,4.45 3.45,4 4,4 4.55,4 5,4.45 5,5 5,5.55 4.55,6 4,6 3.45,6 3,5.55 3,5 Z M 5,2 C 5,1.3636364 13,1 27,1 41,1 49,1.3636364 49,2 49,2.6363636 41,3 27,3 13,3 5,2.6363636 5,2 Z"
         id="path3547" />
      <path
         style="fill:#00456d"
         d="m 70,84.551016 c 0,-4.919054 0.44269,-7.136564 1.669643,-8.363516 1.2142,-1.2142 1.782489,-1.331105 2.083333,-0.428571 0.53942,1.618258 5.907693,1.611066 6.663691,-0.0089 0.466666,-1 0.7,-1 1.166666,0 0.320834,0.6875 2.008334,1.256891 3.75,1.265313 2.314943,0.01119 2.776061,0.262412 1.714413,0.934017 -0.79874,0.505287 -1.81124,0.696839 -2.25,0.42567 C 84.358986,78.103831 84,80.888624 84,84.563428 c 0,5.638326 -0.220286,6.49864 -1.410972,5.510458 C 81.624473,89.273377 80.97302,89.234637 80.530011,89.951442 79.104469,92.258017 78.5,90.709745 78.5,84.751823 78.5,79.861314 78.17338,78.5 77,78.5 c -1.128205,0 -1.623932,1.611111 -2,6.5 -0.309437,4.022684 -0.819775,6.005086 -1.339028,5.201442 -0.646229,-1.000165 -1.163252,-1.029476 -2.25,-0.127556 C 70.220242,91.062105 70,90.200027 70,84.551016 Z m 4,-2.610033 C 74,79.223442 73.55,77 73,77 c -0.55,0 -1,2.501558 -1,5.559017 0,3.451367 0.379141,5.324695 1,4.940983 0.55,-0.339919 1,-2.841476 1,-5.559017 z M 82,82.5 C 82,79.475 81.55,77 81,77 c -0.55,0 -1,2.475 -1,5.5 0,3.025 0.45,5.5 1,5.5 0.55,0 1,-2.475 1,-5.5 z m 18,2.7 c 0,-3.466667 -0.44086,-6.2 -1,-6.2 -0.55,0 -1,-0.45 -1,-1 0,-0.55 1.098442,-1 2.44098,-1 1.34254,0 2.7191,-0.45 3.05902,-1 0.33992,-0.55 1.94148,-1 3.55902,-1 C 108.67656,75 110,74.55 110,74 c 0,-0.55 1.2375,-0.964474 2.75,-0.921053 1.5125,0.04342 2.1875,0.305921 1.5,0.583334 -0.86303,0.34824 -1.25,3.14788 -1.25,9.043497 0,6.971776 -0.24298,8.337456 -1.32379,7.44046 -0.9667,-0.802287 -1.64108,-0.781366 -2.5,0.07756 C 108.2746,91.125402 108,89.602353 108,83.7 c 0,-6.177778 -0.29654,-7.7 -1.5,-7.7 -1.20214,0 -1.5,1.513605 -1.5,7.622445 0,6.211189 -0.24509,7.419035 -1.32379,6.523793 -0.9667,-0.802287 -1.64108,-0.781366 -2.5,0.07756 C 100.2746,91.125402 100,89.952544 100,85.2 Z m 3,-1.7 c 0,-2.475 -0.45,-4.5 -1,-4.5 -1.10443,0 -1.39528,7.271383 -0.33333,8.333333 C 102.84819,88.514857 103,88.078402 103,83.5 Z m 9,-2.559017 C 112,77.646994 111.55445,75 111,75 c -0.56503,0 -1,2.853006 -1,6.559017 0,4.118034 0.37216,6.329011 1,5.940983 0.55,-0.339919 1,-3.291476 1,-6.559017 z M 90.75,75.294267 c 1.2375,-0.238353 3.2625,-0.238353 4.5,0 1.2375,0.238353 0.225,0.433369 -2.25,0.433369 -2.475,0 -3.4875,-0.195016 -2.25,-0.433369 z M 64.194949,69.5 c 0.02038,-1.65 0.244498,-2.203936 0.498042,-1.230968 0.253543,0.972967 0.236869,2.322967 -0.03705,3 C 64.382014,71.946064 64.174569,71.15 64.194949,69.5 Z M 116,70.5 c 0,-0.825 0.375,-1.5 0.83333,-1.5 0.45834,0 0.83334,0.675 0.83334,1.5 0,0.825 -0.375,1.5 -0.83334,1.5 C 116.375,72 116,71.325 116,70.5 Z M 281,46 V 23 h 8 c 4.4,0 8.00243,0.1125 8.00539,0.25 0.0351,1.628359 4.87521,26.963929 5.21635,27.30507 0.25502,0.255025 1.52046,-5.840537 2.81207,-13.545694 L 307.3822,23 H 315.6911 324 v 23 23 h -5.47639 -5.47638 L 312.77361,51.75 312.5,34.5 l -2.8948,16 c -1.59214,8.8 -3.10278,16.5625 -3.35699,17.25 -0.25654,0.693827 -2.12099,1.25 -4.19034,1.25 h -3.72815 l -2.83147,-15.75 c -1.55732,-8.6625 -3.19282,-16.425 -3.63446,-17.25 -0.44163,-0.825 -0.81666,6.2625 -0.83338,15.75 L 291,69 h -5 -5 z m 46.02594,22.25 c 0.0143,-0.4125 2.38791,-10.65 5.27475,-22.75 l 5.2488,-22 7.14448,-0.292179 c 6.16352,-0.252062 7.21276,-0.04611 7.64174,1.5 0.27349,0.985698 2.6514,10.722545 5.28423,21.637436 l 4.78697,19.845257 3.28572,-13.845257 C 367.49977,44.730366 369.79165,35.125 370.78569,31 l 1.80735,-7.5 7.17358,-0.293206 c 6.77073,-0.27674 7.20323,-0.164423 7.70143,2 0.29032,1.261263 2.54859,10.618206 5.01838,20.793206 2.4698,10.175 4.72929,19.5125 5.02111,20.75 0.50464,2.140068 0.24078,2.25 -5.40059,2.25 h -5.93115 l -0.68407,-4.048925 -0.68406,-4.048924 -5.15383,0.298924 L 374.5,61.5 374.18963,65.25 373.87927,69 H 362.52753 351.1758 l -0.68407,-4.048925 -0.68406,-4.048924 -5.15383,0.298924 L 339.5,61.5 339.18963,65.25 338.87927,69 h -5.93964 c -3.26679,0 -5.92795,-0.3375 -5.91369,-0.75 z M 348,50.442629 c 0,-3.084003 -2.29773,-15.960245 -2.98694,-16.738502 -0.38764,-0.437731 -1.24544,2.487269 -1.90622,6.5 -0.66078,4.01273 -1.45392,8.308373 -1.76254,9.545873 -0.50408,2.021307 -0.19435,2.25 3.04729,2.25 C 346.99148,52 348,51.564727 348,50.442629 Z m 35,0 c 0,-3.084003 -2.29773,-15.960245 -2.98694,-16.738502 -0.38764,-0.437731 -1.24544,2.487269 -1.90622,6.5 -0.66078,4.01273 -1.45392,8.308373 -1.76254,9.545873 -0.50408,2.021307 -0.19435,2.25 3.04729,2.25 C 381.99148,52 383,51.564727 383,50.442629 Z M 401,46 V 23 l 9.75,0.0016 c 11.52787,0.0018 15.81314,1.623068 18.49845,6.998446 3.3343,6.674526 1.5674,15.924963 -3.70115,19.377048 -1.49905,0.98222 -5.16045,2.037158 -8.13643,2.344306 L 412,52.279806 V 60.639903 69 h -5.5 -5.5 z m 18.03138,-6 c 1.11336,-4.563126 -0.31592,-7.465822 -3.8473,-7.813358 L 412,31.873283 V 37.5 43.126717 l 3.2107,-0.313359 C 417.6794,42.572418 418.56237,41.922246 419.03138,40 Z M 118,57 c 0,-6.666667 0.39394,-11 1,-11 0.60606,0 1,4.333333 1,11 0,6.666667 -0.39394,11 -1,11 -0.60606,0 -1,-4.333333 -1,-11 z M 62.149832,64.25 C 62.016013,62.240466 61.471938,62 57.059017,62 54.341476,62 51.839919,61.55 51.5,61 c -0.385686,-0.624053 1.628505,-1 5.35765,-1 3.875785,0 6.132562,-0.439259 6.422112,-1.25 0.245536,-0.6875 0.832503,-0.888032 1.304373,-0.445627 0.471869,0.442405 0.349081,1.118868 -0.272863,1.50325 -0.621944,0.384383 -1.328987,2.047415 -1.571207,3.695627 -0.314588,2.140643 -0.483205,2.353973 -0.590233,0.74675 z M 49,59 c 0,-0.55 0.476558,-1 1.059017,-1 0.582459,0 0.780902,0.45 0.440983,1 -0.339919,0.55 -0.816476,1 -1.059017,1 C 49.198442,60 49,59.55 49,59 Z m 3.25,-2.495831 C 50.320456,54.312583 50.683072,54 55.154988,54 c 4.091645,0 4.127395,0.03049 2.345012,2 -2.114663,2.336677 -3.517953,2.471437 -5.25,0.504169 z M 65.5,57 C 65.160081,56.45 65.358524,56 65.940983,56 66.523442,56 67,56.45 67,57 67,57.55 66.801558,58 66.559017,58 66.316476,58 65.839919,57.55 65.5,57 Z M 47,54.5 c 0,-1.375 0.17254,-2.5 0.383423,-2.5 0.210882,0 0.59848,1.125 0.861328,2.5 0.262848,1.375 0.09031,2.5 -0.383423,2.5 C 47.387598,57 47,55.875 47,54.5 Z m 2,-5.059017 c 0,-0.857459 0.45,-1.280902 1,-0.940983 0.55,0.339919 1,1.041476 1,1.559017 C 51,50.576558 50.55,51 50,51 49.45,51 49,50.298442 49,49.440983 Z m 23,-4.5 c 0,-3.784701 0.375361,-5.827031 1,-5.440983 0.55,0.339919 1,3.066476 1,6.059017 C 74,48.551558 73.55,51 73,51 72.443362,51 72,48.313661 72,44.940983 Z M 41,46 c 0,-0.55 0.45,-1 1,-1 0.55,0 1,0.45 1,1 0,0.55 -0.45,1 -1,1 -0.55,0 -1,-0.45 -1,-1 z m 10,0 c 0,-0.55 -0.9,-1 -2,-1 -1.1,0 -2,-0.45 -2,-1 0,-0.55 0.71028,-1 1.578401,-1 0.86812,0 3.30784,-1.8 5.421599,-4 3.583146,-3.729337 4.220665,-4 9.421599,-4 C 66.48972,35 69,35.45 69,36 c 0,0.55 -2.495455,1 -5.545455,1 -4.554433,0 -5.984103,0.438649 -8,2.454545 -1.35,1.35 -2.454545,3.6 -2.454545,5 C 53,45.854545 52.55,47 52,47 51.45,47 51,46.55 51,46 Z m 26.25,-0.495831 c -1.648022,-1.871832 -1.577715,-3.319311 0.25,-5.147026 1.333333,-1.333333 1.679894,-1.320106 3.119048,0.119047 0.890476,0.890477 1.278869,1.93512 0.863095,2.321429 C 81.066369,43.183929 80.525298,42.9375 80.279762,42.25 79.574808,40.276128 78,40.794211 78,43 c 0,2.255046 2.867104,2.732896 4.8,0.8 0.66,-0.66 1.2,-0.852857 1.2,-0.428571 0,1.263535 -2.755765,3.631489 -4.178571,3.590534 C 79.094643,46.941042 77.9375,46.285035 77.25,45.504169 Z M 34.159981,44.219994 C 32.04469,43.514897 32.959103,42 35.5,42 c 2,0 2.5,-0.5 2.5,-2.5 0,-1.555556 0.566667,-2.5 1.5,-2.5 1.038043,0 1.5,1.042945 1.5,3.386501 0,2.955873 -0.361136,3.439504 -2.840019,3.803327 -1.562011,0.229254 -3.362011,0.242829 -4,0.03017 z M 59,43 c 0,-1.1 0.45,-2 1,-2 0.55,0 1,0.9 1,2 0,1.1 -0.45,2 -1,2 -0.55,0 -1,-0.9 -1,-2 z m 4,0 c 0,-1.1 0.45,-2 1,-2 0.55,0 1,0.9 1,2 0,1.1 -0.45,2 -1,2 -0.55,0 -1,-0.9 -1,-2 z M 30,40.5 C 30,39.675 29.325,39 28.5,39 27.675,39 27,38.55 27,38 27,36.545661 28.918771,36.775913 30.571429,38.428571 32.224087,40.081229 32.454339,42 31,42 30.45,42 30,41.325 30,40.5 Z m 17,-0.07143 c 0,-0.314285 0.675,-1.246428 1.5,-2.071428 C 49.833333,37.02381 50,37.087302 50,38.928571 50,40.103175 49.350575,41 48.5,41 47.675,41 47,40.742857 47,40.42857 Z M 81,36 c 0,-0.55 0.675,-1 1.5,-1 0.825,0 1.5,0.45 1.5,1 0,0.55 -0.675,1 -1.5,1 C 81.675,37 81,36.55 81,36 Z m 12,0 c 0,-0.55 0.9,-1 2,-1 1.1,0 2,0.45 2,1 0,0.55 -0.9,1 -2,1 -1.1,0 -2,-0.45 -2,-1 z m 13,0 c 0,-0.55 0.675,-1 1.5,-1 0.825,0 1.5,0.45 1.5,1 0,0.55 -0.675,1 -1.5,1 -0.825,0 -1.5,-0.45 -1.5,-1 z M 25,33.536212 c 0,-2.43035 -0.132326,-2.467672 -9.75,-2.75 -13.3504618,-0.391904 -12.6431114,-2.209825 1,-2.570044 L 27,27.932337 v 4.033831 C 27,34.184776 26.55,36 26,36 25.45,36 25,34.891295 25,33.536212 Z M 36,32 v -4 h 6.5 c 3.666667,0 6.5,-0.435897 6.5,-1 0,-0.55 0.675,-1 1.5,-1 0.825,0 1.5,0.45 1.5,1 0,0.55 -0.675,1 -1.5,1 -0.825,0 -1.5,0.675 -1.5,1.5 0,1.151515 -1.277778,1.5 -5.5,1.5 -5.2,0 -5.5,0.136364 -5.5,2.5 0,1.375 -0.45,2.5 -1,2.5 -0.55,0 -1,-1.8 -1,-4 z m 50.761659,1.292739 c 1.243913,-0.239193 3.043913,-0.230112 4,0.02018 C 91.717747,33.563212 90.7,33.758916 88.5,33.747817 86.3,33.736717 85.517747,33.531932 86.761659,33.292739 Z M 99.25,33.310674 c 0.9625,-0.251527 2.5375,-0.251527 3.5,0 0.9625,0.251528 0.175,0.457323 -1.75,0.457323 -1.925,0 -2.7125,-0.205795 -1.75,-0.457323 z M 3,27 c 0,-0.55 0.45,-1 1,-1 0.55,0 1,0.45 1,1 0,0.55 -0.45,1 -1,1 -0.55,0 -1,-0.45 -1,-1 z m 58.776433,0.266503 c 2.352038,-0.211245 5.952038,-0.208273 8,0.0066 C 71.824395,27.487985 69.9,27.660822 65.5,27.65719 61.1,27.653557 59.424395,27.477749 61.776433,27.266503 Z M 0,15.5 C 0,9.8333333 0.40350877,6 1,6 1.5964912,6 2,9.8333333 2,15.5 2,21.166667 1.5964912,25 1,25 0.40350877,25 0,21.166667 0,15.5 Z m 52,0 C 52,7.7222222 51.72807,6 50.5,6 49.675,6 49,5.55 49,5 49,3.545661 50.918771,3.7759135 52.571429,5.4285714 54.268404,7.1255472 54.659816,25 53,25 52.403509,25 52,21.166667 52,15.5 Z M 9,15.436572 c 0,-4.064882 0.1991841,-4.516153 1.512331,-3.426338 1.142792,0.948433 1.237631,1.586117 0.388125,2.60971 -0.618314,0.745022 -0.868517,2.020906 -0.556006,2.835296 0.312511,0.814391 0.137855,1.746679 -0.3881239,2.071752 C 9.3999098,19.870876 9,18.160373 9,15.436572 Z M 16.805716,19 c -1.251287,-2.989264 -1.543481,-5.806271 -0.737521,-7.110342 1.352088,-2.1877243 2.079297,-0.378934 1.711192,4.256259 C 17.589207,18.540663 17.151055,19.825 16.805716,19 Z m 3.25767,-2.372445 c -0.05598,-3.420222 0.121266,-3.719197 1.517815,-2.560164 1.244954,1.03322 1.98924,1.057456 3.5,0.113971 C 26.842237,13.081577 27,13.285221 27,16.658193 c 0,2.021327 -0.3375,3.33764 -0.75,2.92514 -0.4125,-0.4125 -0.75,-1.268837 -0.75,-1.902971 0,-2.263834 -3.491251,-1.874414 -4.441374,0.495397 -0.821776,2.049685 -0.939341,1.8668 -0.99524,-1.548204 z M 29,16.559017 c 0,-3.455228 1.369846,-4.838859 2.286013,-2.309017 0.36164,0.998607 0.881186,0.996903 2.583334,-0.0085 2.026221,-1.196791 2.123978,-1.074255 1.994471,2.5 -0.08409,2.320771 -0.301959,2.897807 -0.569551,1.5085 C 34.812121,15.746755 31,15.028572 31,17.440983 31,18.233524 30.55,19.160081 30,19.5 29.404882,19.867803 29,18.677051 29,16.559017 Z M 38,15 c 0,-3.725091 0.189,-3.992028 2.75,-3.883999 1.691897,0.07137 2.076662,0.291963 1,0.573325 C 40.7875,11.940853 40,12.755657 40,13.5 c 0,0.744343 0.7875,1.559147 1.75,1.810674 1.666667,0.435546 1.666667,0.462847 0,0.573325 C 40.7875,15.947799 40,16.675 40,17.5 40,18.325 39.55,19 39,19 38.45,19 38,17.2 38,15 Z M 22.8125,11.316886 c 0.721875,-0.288871 1.584375,-0.253344 1.916667,0.07895 0.332291,0.332292 -0.258334,0.568641 -1.3125,0.52522 -1.164943,-0.04798 -1.4019,-0.284941 -0.604167,-0.604167 z m 9,0 c 0.721875,-0.288871 1.584375,-0.253344 1.916667,0.07895 0.332291,0.332292 -0.258334,0.568641 -1.3125,0.52522 -1.164943,-0.04798 -1.4019,-0.284941 -0.604167,-0.604167 z M 3,5 C 3,4.45 3.45,4 4,4 4.55,4 5,4.45 5,5 5,5.55 4.55,6 4,6 3.45,6 3,5.55 3,5 Z M 5,2 C 5,1.3636364 13,1 27,1 41,1 49,1.3636364 49,2 49,2.6363636 41,3 27,3 13,3 5,2.6363636 5,2 Z"
         id="path3545" />
      <path
         style="fill:#141212"
         d="m 70,84.551016 c 0,-4.919054 0.44269,-7.136564 1.669643,-8.363516 1.2142,-1.2142 1.782489,-1.331105 2.083333,-0.428571 0.53942,1.618258 5.907693,1.611066 6.663691,-0.0089 0.466666,-1 0.7,-1 1.166666,0 0.320834,0.6875 2.008334,1.311282 3.75,1.386182 2.353224,0.1012 2.588695,0.247504 0.916667,0.569551 C 84.189662,78.1026 84,78.691503 84,84.692025 c 0,5.852236 -0.168534,6.413022 -1.576215,5.244751 -1.304751,-1.082847 -1.726103,-1.065621 -2.446509,0.100021 -0.563275,0.911398 -0.977357,-0.871618 -1.173784,-5.054259 -0.244909,-5.214977 -0.641296,-6.526773 -2.053492,-6.79579 -1.527104,-0.290907 -1.75195,0.535712 -1.765313,6.489957 -0.01006,4.482611 -0.32696,6.330814 -0.923784,5.387626 -0.7529,-1.18984 -1.178393,-1.211684 -2.484688,-0.127555 C 70.16796,91.105495 70,90.531597 70,84.551016 Z m 4,-2.610033 C 74,79.223442 73.55,77 73,77 c -0.55,0 -1,2.501558 -1,5.559017 0,3.451367 0.379141,5.324695 1,4.940983 0.55,-0.339919 1,-2.841476 1,-5.559017 z M 82,82.5 C 82,79.475 81.55,77 81,77 c -0.55,0 -1,2.475 -1,5.5 0,3.025 0.45,5.5 1,5.5 0.55,0 1,-2.475 1,-5.5 z m 18.01531,2.95 c -0.008,-3.351782 -0.550494,-6.585184 -1.21531,-7.25 -0.933333,-0.933333 -0.488889,-1.2 2,-1.2 1.76,0 3.2,-0.45 3.2,-1 0,-0.55 1.35,-1 3,-1 1.65,0 3,-0.45 3,-1 0,-0.55 1.2375,-0.964474 2.75,-0.921053 1.5125,0.04342 2.1875,0.305921 1.5,0.583334 -0.86303,0.34824 -1.25,3.14788 -1.25,9.043497 0,6.971776 -0.24298,8.337456 -1.32379,7.44046 -0.9667,-0.802287 -1.64108,-0.781366 -2.5,0.07756 C 108.2746,91.125402 108,89.602353 108,83.7 c 0,-6.177778 -0.29654,-7.7 -1.5,-7.7 -1.20214,0 -1.5,1.513605 -1.5,7.622445 0,6.825933 -0.16471,7.485749 -1.57622,6.314302 -1.30629,-1.084129 -1.73178,-1.062285 -2.48468,0.127555 -0.60347,0.953689 -0.91362,-0.595476 -0.92379,-4.614302 z M 103,83.5 c 0,-2.475 -0.45,-4.5 -1,-4.5 -1.10443,0 -1.39528,7.271383 -0.33333,8.333333 C 102.84819,88.514857 103,88.078402 103,83.5 Z m 9,-2.559017 C 112,77.646994 111.55445,75 111,75 c -0.56503,0 -1,2.853006 -1,6.559017 0,4.118034 0.37216,6.329011 1,5.940983 0.55,-0.339919 1,-3.291476 1,-6.559017 z M 90.75,75.294267 c 1.2375,-0.238353 3.2625,-0.238353 4.5,0 1.2375,0.238353 0.225,0.433369 -2.25,0.433369 -2.475,0 -3.4875,-0.195016 -2.25,-0.433369 z M 64.194949,69.5 c 0.02038,-1.65 0.244498,-2.203936 0.498042,-1.230968 0.253543,0.972967 0.236869,2.322967 -0.03705,3 C 64.382014,71.946064 64.174569,71.15 64.194949,69.5 Z M 116,70.5 c 0,-0.825 0.17686,-1.5 0.39301,-1.5 0.21616,0 0.65203,0.675 0.96862,1.5 0.31658,0.825 0.13972,1.5 -0.39301,1.5 C 116.43588,72 116,71.325 116,70.5 Z m 2.66667,-3.166667 C 117.68788,66.354552 117.852,46 118.83868,46 c 0.46127,0 0.82967,4.95 0.81867,11 -0.011,6.05 -0.0884,11 -0.17201,11 -0.0836,0 -0.45201,-0.3 -0.81867,-0.666667 z M 61.837761,63.306014 c -0.521267,-1.84096 -1.483404,-2.253687 -5.979493,-2.565017 L 50.5,60.369965 56.666667,60.184982 c 3.883431,-0.116491 6.331958,-0.6478 6.613095,-1.434982 0.245536,-0.6875 0.832503,-0.888032 1.304373,-0.445627 0.471869,0.442405 0.353843,1.117405 -0.26228,1.5 C 63.705731,60.186968 63.034536,61.625 62.830309,63 c -0.359331,2.419267 -0.391384,2.429149 -0.992548,0.306014 z M 49,59 c 0,-0.55 0.476558,-1 1.059017,-1 0.582459,0 0.780902,0.45 0.440983,1 -0.339919,0.55 -0.816476,1 -1.059017,1 C 49.198442,60 49,59.55 49,59 Z m 3.25,-2.495831 C 50.320456,54.312583 50.683072,54 55.154988,54 c 4.091645,0 4.127395,0.03049 2.345012,2 -2.114663,2.336677 -3.517953,2.471437 -5.25,0.504169 z M 65.5,57 C 65.160081,56.45 65.358524,56 65.940983,56 66.523442,56 67,56.45 67,57 67,57.55 66.801558,58 66.559017,58 66.316476,58 65.839919,57.55 65.5,57 Z M 47,54.5 c 0,-1.375 0.17254,-2.5 0.383423,-2.5 0.210882,0 0.59848,1.125 0.861328,2.5 0.262848,1.375 0.09031,2.5 -0.383423,2.5 C 47.387598,57 47,55.875 47,54.5 Z m 2,-5.059017 c 0,-0.857459 0.45,-1.280902 1,-0.940983 0.55,0.339919 1,1.041476 1,1.559017 C 51,50.576558 50.55,51 50,51 49.45,51 49,50.298442 49,49.440983 Z m 23,-4.60765 c 0,-3.391666 0.276724,-5.889942 0.614942,-5.551724 C 73.511385,40.178052 73.636121,51.001472 72.75,51.000675 72.3375,51.000304 72,48.225 72,44.833333 Z M 41,46 c 0,-0.55 0.45,-1 1,-1 0.55,0 1,0.45 1,1 0,0.55 -0.45,1 -1,1 -0.55,0 -1,-0.45 -1,-1 z m 9.598559,-0.603754 C 50.247185,44.48058 49.343185,44.038066 48.491571,44.364861 47.671207,44.679664 47,44.501354 47,43.968615 47,43.435877 47.71028,43 48.578401,43 49.446521,43 51.886241,41.2 54,39 57.583146,35.270663 58.220665,35 63.421599,35 66.48972,35 69,35.45 69,36 c 0,0.55 -2.495455,1 -5.545455,1 -4.554433,0 -5.984103,0.438649 -8,2.454545 -1.35,1.35 -2.454545,3.6 -2.454545,5 0,2.841733 -1.453596,3.411745 -2.401441,0.941701 z M 77.25,45.504169 c -1.571968,-1.785449 -1.536069,-2.542423 0.231245,-4.876156 1.324127,-1.748506 1.52777,-1.761856 3.087244,-0.202381 0.918284,0.918283 1.329428,1.985678 0.913654,2.371987 C 81.066369,43.183929 80.525298,42.9375 80.279762,42.25 79.556014,40.223506 78,40.820723 78,43.125 c 0,1.83674 0.414828,2.042034 3.058036,1.513393 2.706009,-0.541202 2.886904,-0.440476 1.571428,0.875 -1.846312,1.846312 -3.748661,1.843051 -5.379464,-0.0092 z M 59,43 c 0,-1.1 0.45,-2 1,-2 0.55,0 1,0.9 1,2 0,1.1 -0.45,2 -1,2 -0.55,0 -1,-0.9 -1,-2 z m 4,0 c 0,-1.1 0.45,-2 1,-2 0.55,0 1,0.9 1,2 0,1.1 -0.45,2 -1,2 -0.55,0 -1,-0.9 -1,-2 z m -30,0 c 0,-0.55 1.125,-1 2.5,-1 2,0 2.5,-0.5 2.5,-2.5 0,-1.555556 0.566667,-2.5 1.5,-2.5 1.047619,0 1.5,1.055556 1.5,3.5 0,3.416667 -0.09524,3.5 -4,3.5 -2.2,0 -4,-0.45 -4,-1 z M 30.542705,41.069098 C 30.226274,40.557102 30.424717,39.855545 30.983688,39.510081 31.54266,39.164618 32,39.583524 32,40.440983 c 0,1.756526 -0.600055,2.015159 -1.457295,0.628115 z M 47,39.940983 c 0,-0.582459 0.415943,-0.80195 0.924318,-0.487757 0.508375,0.314193 1.131174,-0.221749 1.383999,-1.190983 C 49.658131,36.921187 49.795722,37.037764 49.883999,38.75 49.955398,40.134889 49.42326,41 48.5,41 47.675,41 47,40.523442 47,39.940983 Z M 27.5,38 c -0.339919,-0.55 0.110081,-1 1,-1 0.889919,0 1.339919,0.45 1,1 -0.339919,0.55 -0.789919,1 -1,1 -0.210081,0 -0.660081,-0.45 -1,-1 z M 81,36 c 0,-0.55 0.675,-1 1.5,-1 0.825,0 1.5,0.45 1.5,1 0,0.55 -0.675,1 -1.5,1 C 81.675,37 81,36.55 81,36 Z m 12.5,0 c 0.339919,-0.55 1.041476,-1 1.559017,-1 C 95.576558,35 96,35.45 96,36 96,36.55 95.298442,37 94.440983,37 93.583524,37 93.160081,36.55 93.5,36 Z m 12.5,0 c 0,-0.55 0.70156,-1 1.55902,-1 0.85746,0 1.2809,0.45 0.94098,1 -0.33992,0.55 -1.04148,1 -1.55902,1 C 106.42344,37 106,36.55 106,36 Z M 25,33.536212 c 0,-2.43035 -0.132326,-2.467672 -9.75,-2.75 C 2.031235,30.398174 2.8615054,28.5 16.25,28.5 H 26.5 l 0.310365,3.75 C 26.990028,34.420786 26.674186,36 26.060365,36 25.477164,36 25,34.891295 25,33.536212 Z M 36,32 v -4 h 6.5 c 3.666667,0 6.5,-0.435897 6.5,-1 0,-0.55 0.675,-1 1.5,-1 0.825,0 1.5,0.45 1.5,1 0,0.55 -0.675,1 -1.5,1 -0.825,0 -1.5,0.675 -1.5,1.5 0,1.151515 -1.277778,1.5 -5.5,1.5 -5.2,0 -5.5,0.136364 -5.5,2.5 0,1.375 -0.45,2.5 -1,2.5 -0.55,0 -1,-1.8 -1,-4 z m 50.761659,1.292739 c 1.243913,-0.239193 3.043913,-0.230112 4,0.02018 C 91.717747,33.563212 90.7,33.758916 88.5,33.747817 86.3,33.736717 85.517747,33.531932 86.761659,33.292739 Z M 99.25,33.310674 c 0.9625,-0.251527 2.5375,-0.251527 3.5,0 0.9625,0.251528 0.175,0.457323 -1.75,0.457323 -1.925,0 -2.7125,-0.205795 -1.75,-0.457323 z M 3,27 c 0,-0.55 0.45,-1 1,-1 0.55,0 1,0.45 1,1 0,0.55 -0.45,1 -1,1 -0.55,0 -1,-0.45 -1,-1 z m 58.776433,0.266503 c 2.352038,-0.211245 5.952038,-0.208273 8,0.0066 C 71.824395,27.487985 69.9,27.660822 65.5,27.65719 61.1,27.653557 59.424395,27.477749 61.776433,27.266503 Z M 0,15.5 C 0,9.8333333 0.40350877,6 1,6 1.5964912,6 2,9.8333333 2,15.5 2,21.166667 1.5964912,25 1,25 0.40350877,25 0,21.166667 0,15.5 Z m 52,0.559017 C 52,11.141476 52.45,6.8399187 53,6.5 53.640028,6.1044412 54,9.322949 54,15.440983 54,21.146994 53.596924,25 53,25 52.407896,25 52,21.353006 52,16.059017 Z M 9.1361821,15.627555 c -0.1185922,-4.243096 0.059158,-4.710327 1.3761489,-3.617321 0.962723,0.798989 1.179254,1.661178 0.595818,2.372445 C 10.604067,14.997205 9.9848001,16.625 9.7320002,18 9.4716888,19.415856 9.2133077,18.387027 9.1361821,15.627555 Z m 10.9999999,1 c -0.120405,-3.423825 0.047,-3.720418 1.445019,-2.560164 1.244954,1.03322 1.98924,1.057456 3.5,0.113971 1.76684,-1.10341 1.913779,-0.900658 1.855413,2.560164 C 26.881643,20.000972 26.753148,20.201258 25.968838,18.25 25.461627,16.988127 24.202506,16 23.101775,16 c -1.240292,0 -2.122179,0.828134 -2.396042,2.25 -0.258722,1.343252 -0.48825,0.689408 -0.569551,-1.622445 z M 35,17.930449 c 0,-1.58125 -0.530877,-1.988553 -2.25,-1.726259 -1.2375,0.188811 -2.1375,0.895109 -2,1.569551 C 30.8875,18.448183 30.55,19 30,19 c -0.55,0 -1,-1.353813 -1,-3.008474 0,-2.715709 0.186725,-2.891862 1.918799,-1.810164 1.51076,0.943485 2.255046,0.919249 3.5,-0.113971 C 35.810909,12.912042 36,13.188308 36,16.377555 36,18.3699 35.775,20 35.5,20 35.225,20 35,19.068702 35,17.930449 Z M 15.810172,16.159981 C 15.325941,12.860705 15.785047,11 17.083333,11 17.5875,11 18,12.8 18,15 c 0,4.581963 -1.56585,5.411414 -2.189828,1.159981 z M 38,15 c 0,-3.725091 0.189,-3.992028 2.75,-3.883999 1.691897,0.07137 2.076662,0.291963 1,0.573325 C 40.7875,11.940853 40,12.755657 40,13.5 c 0,0.744343 0.7875,1.559147 1.75,1.810674 1.666667,0.435546 1.666667,0.462847 0,0.573325 C 40.7875,15.947799 40,16.675 40,17.5 40,18.325 39.55,19 39,19 38.45,19 38,17.2 38,15 Z M 22.8125,11.316886 c 0.721875,-0.288871 1.584375,-0.253344 1.916667,0.07895 0.332291,0.332292 -0.258334,0.568641 -1.3125,0.52522 -1.164943,-0.04798 -1.4019,-0.284941 -0.604167,-0.604167 z m 9,0 c 0.721875,-0.288871 1.584375,-0.253344 1.916667,0.07895 0.332291,0.332292 -0.258334,0.568641 -1.3125,0.52522 -1.164943,-0.04798 -1.4019,-0.284941 -0.604167,-0.604167 z M 3,5 C 3,4.45 3.45,4 4,4 4.55,4 5,4.45 5,5 5,5.55 4.55,6 4,6 3.45,6 3,5.55 3,5 Z M 49,5 C 49,4.45 49.701558,4 50.559017,4 51.416476,4 51.839919,4.45 51.5,5 51.160081,5.55 50.458524,6 49.940983,6 49.423442,6 49,5.55 49,5 Z M 5.5,2 C 5.0951118,1.3448771 12.489616,1 26.940983,1 40.980328,1 49,1.3635553 49,2 49,3.3603894 6.3407669,3.3603894 5.5,2 Z"
         id="path3543" />
    </g>
  </g>
</svg>
