<?xml version="1.0" encoding="UTF-8" standalone="no"?>
<svg
   version="1.1"
   id="svg4"
   width="47.835938"
   height="8.7246094"
   xmlns="http://www.w3.org/2000/svg"
   xmlns:svg="http://www.w3.org/2000/svg">
  <defs
     id="defs8" />
  <g
     aria-label="MARIDA"
     id="text2"
     transform="translate(-1.171875,8.7246094)">
    <path
       d="M 8.9414063,0 H 7.78125 V -7.5175781 L 5.3554687,-2.4023438 H 4.6640625 L 2.2558594,-7.5175781 V 0 H 1.171875 v -8.7246094 h 1.5820313 l 2.3261718,4.8574219 2.25,-4.8574219 h 1.6113282 z"
       id="path10" />
    <path
       d="M 18.164062,0 H 16.927734 L 16.072266,-2.4316406 H 12.298828 L 11.443359,0 h -1.177734 l 3.175781,-8.7246094 h 1.546875 z m -2.449218,-3.4277344 -1.529297,-4.2832031 -1.535156,4.2832031 z"
       id="path12" />
    <path
       d="M 26.707031,0 H 25.201172 L 22.283203,-3.46875 H 20.648437 V 0 h -1.160156 v -8.7246094 h 2.44336 q 0.791015,0 1.318359,0.1054688 0.527344,0.099609 0.949219,0.3632812 0.474609,0.2988282 0.738281,0.7558594 0.269531,0.4511719 0.269531,1.1484375 0,0.9433594 -0.474609,1.5820313 -0.47461,0.6328125 -1.306641,0.9550781 z m -2.71289,-6.2695312 q 0,-0.375 -0.134766,-0.6621094 -0.128906,-0.2929688 -0.433594,-0.4921875 -0.251953,-0.1699219 -0.597656,-0.234375 -0.345703,-0.070312 -0.814453,-0.070312 h -1.365235 v 3.2929687 h 1.171875 q 0.550782,0 0.960938,-0.09375 0.410156,-0.099609 0.697266,-0.3632812 0.263671,-0.2460938 0.386718,-0.5625 0.128907,-0.3222656 0.128907,-0.8144536 z"
       id="path14" />
    <path
       d="m 30.908203,0 h -3.445312 v -0.890625 h 1.142578 v -6.9433594 h -1.142578 v -0.890625 h 3.445312 v 0.890625 h -1.142578 v 6.9433594 h 1.142578 z"
       id="path16" />
    <path
       d="m 40.253906,-4.3535156 q 0,1.1894531 -0.521484,2.15625 -0.515625,0.9667969 -1.376953,1.49999998 Q 37.757812,-0.328125 37.019531,-0.1640625 36.287109,0 35.085937,0 H 32.882812 V -8.7246094 H 35.0625 q 1.277344,0 2.027344,0.1875 0.755859,0.1816406 1.277343,0.5039063 0.890625,0.5566406 1.388672,1.4824219 0.498047,0.9257812 0.498047,2.1972656 z m -1.21289,-0.017578 q 0,-1.0253907 -0.357422,-1.7285157 -0.357422,-0.703125 -1.066407,-1.1074218 Q 37.101562,-7.5 36.521484,-7.6113281 35.941406,-7.7285156 35.132812,-7.7285156 h -1.089843 v 6.73242185 h 1.089843 q 0.837891,0 1.458985,-0.12304685 0.626953,-0.1230469 1.148437,-0.4570313 0.650391,-0.4160156 0.972657,-1.0957031 0.328125,-0.6796875 0.328125,-1.6992186 z"
       id="path18" />
    <path
       d="M 49.007812,0 H 47.771484 L 46.916016,-2.4316406 H 43.142578 L 42.287109,0 h -1.177734 l 3.175781,-8.7246094 h 1.546875 z m -2.449218,-3.4277344 -1.529297,-4.2832031 -1.535156,4.2832031 z"
       id="path20" />
  </g>
</svg>
