<?xml version="1.0" encoding="UTF-8" standalone="no"?>
<!-- Created with Inkscape (http://www.inkscape.org/) -->

<svg
   width="60.936649mm"
   height="8.0149899mm"
   viewBox="0 0 60.936649 8.0149899"
   version="1.1"
   id="svg5"
   inkscape:version="1.1.1 (c3084ef, 2021-09-22)"
   sodipodi:docname="matpower.svg"
   xmlns:inkscape="http://www.inkscape.org/namespaces/inkscape"
   xmlns:sodipodi="http://sodipodi.sourceforge.net/DTD/sodipodi-0.dtd"
   xmlns="http://www.w3.org/2000/svg"
   xmlns:svg="http://www.w3.org/2000/svg">
  <sodipodi:namedview
     id="namedview7"
     pagecolor="#ffffff"
     bordercolor="#666666"
     borderopacity="1.0"
     inkscape:pageshadow="2"
     inkscape:pageopacity="0.0"
     inkscape:pagecheckerboard="0"
     inkscape:document-units="mm"
     showgrid="false"
     inkscape:zoom="0.64052329"
     inkscape:cx="242.77025"
     inkscape:cy="113.1887"
     inkscape:window-width="1183"
     inkscape:window-height="819"
     inkscape:window-x="58"
     inkscape:window-y="25"
     inkscape:window-maximized="0"
     inkscape:current-layer="layer1" />
  <defs
     id="defs2" />
  <g
     inkscape:label="Layer 1"
     inkscape:groupmode="layer"
     id="layer1"
     transform="translate(-40.6886,-118.54576)">
    <g
       aria-label="MATPOWER"
       id="text605"
       style="font-size:10.5833px;line-height:1.25;stroke-width:0.264583">
      <path
         d="m 47.540874,126.40055 h -1.023191 v -6.63006 l -2.139397,4.51133 h -0.60978 l -2.123895,-4.51133 v 6.63006 H 40.6886 v -7.6946 h 1.39526 l 2.051547,4.28397 1.984369,-4.28397 h 1.421098 z"
         id="path607" />
      <path
         d="m 55.685053,126.40055 h -1.090369 l -0.754474,-2.14456 h -3.327951 l -0.754474,2.14456 h -1.038693 l 2.800854,-7.6946 h 1.364253 z m -2.160068,-3.02306 -1.34875,-3.77754 -1.353919,3.77754 z"
         id="path609" />
      <path
         d="M 62.340957,119.61546 H 59.59178 v 6.78509 h -1.02319 v -6.78509 h -2.749178 v -0.90951 h 6.521545 z"
         id="path611" />
      <path
         d="m 68.418085,121.03139 q 0,0.51159 -0.180866,0.95084 -0.1757,0.43408 -0.496093,0.75447 -0.397907,0.39791 -0.940508,0.59945 -0.542601,0.19637 -1.369421,0.19637 h -1.02319 v 2.86803 h -1.02319 v -7.6946 h 2.087721 q 0.692462,0 1.173052,0.11886 0.480589,0.11369 0.852658,0.36173 0.439248,0.29456 0.676959,0.73381 0.242878,0.43925 0.242878,1.11104 z m -1.064531,0.0258 q 0,-0.3979 -0.139526,-0.69246 -0.139525,-0.29455 -0.423745,-0.48059 -0.248046,-0.16019 -0.568439,-0.22737 -0.315225,-0.0724 -0.800982,-0.0724 h -1.012855 v 3.07474 h 0.862994 q 0.620115,0 1.007687,-0.10852 0.387572,-0.11369 0.63045,-0.35657 0.242879,-0.24804 0.341064,-0.52193 0.103352,-0.27388 0.103352,-0.61495 z"
         id="path613" />
      <path
         d="m 75.508069,119.58962 q 0.470254,0.51676 0.7183,1.26607 0.253214,0.7493 0.253214,1.70015 0,0.95084 -0.258382,1.70531 -0.253213,0.74931 -0.713132,1.25057 -0.475422,0.52193 -1.126543,0.78548 -0.645953,0.26355 -1.477941,0.26355 -0.811318,0 -1.477941,-0.26872 -0.661457,-0.26872 -1.126543,-0.78031 -0.465086,-0.5116 -0.7183,-1.25573 -0.248046,-0.74414 -0.248046,-1.70015 0,-0.94051 0.248046,-1.68465 0.248046,-0.74931 0.723468,-1.28157 0.454751,-0.50643 1.126542,-0.77515 0.676959,-0.26871 1.472774,-0.26871 0.82682,0 1.483109,0.27388 0.661456,0.26872 1.121375,0.76998 z m -0.09302,2.96622 q 0,-1.49862 -0.671792,-2.30993 -0.671791,-0.81649 -1.834507,-0.81649 -1.173052,0 -1.844843,0.81649 -0.666624,0.81131 -0.666624,2.30993 0,1.51411 0.682127,2.32026 0.682126,0.80098 1.82934,0.80098 1.147213,0 1.824172,-0.80098 0.682127,-0.80615 0.682127,-2.32026 z"
         id="path615" />
      <path
         d="m 87.057714,118.70595 -1.999872,7.6946 h -1.152381 l -1.617467,-6.38719 -1.581293,6.38719 h -1.126543 l -2.036045,-7.6946 h 1.049028 l 1.617467,6.39753 1.591629,-6.39753 h 1.038693 l 1.607132,6.45954 1.607132,-6.45954 z"
         id="path617" />
      <path
         d="m 93.630937,126.40055 h -5.069442 v -7.6946 h 5.069442 v 0.90951 h -4.046252 v 2.10839 h 4.046252 v 0.9095 h -4.046252 v 2.8577 h 4.046252 z"
         id="path619" />
      <path
         d="m 101.62525,126.40055 h -1.32808 l -2.573475,-3.05923 h -1.441767 v 3.05923 h -1.023191 v -7.6946 h 2.154901 q 0.697629,0 1.162716,0.093 0.465086,0.0879 0.837155,0.32039 0.418578,0.26355 0.651121,0.66663 0.23771,0.39791 0.23771,1.01285 0,0.83199 -0.418577,1.39526 -0.418577,0.55811 -1.15238,0.84233 z m -2.392608,-5.52936 q 0,-0.33073 -0.118855,-0.58394 -0.113688,-0.25838 -0.382404,-0.43408 -0.222208,-0.14986 -0.527098,-0.20671 -0.30489,-0.062 -0.7183,-0.062 h -1.204057 v 2.90421 h 1.033525 q 0.485757,0 0.847491,-0.0827 0.361734,-0.0879 0.614947,-0.3204 0.232543,-0.21704 0.341064,-0.49609 0.113687,-0.28422 0.113687,-0.7183 z"
         id="path621" />
    </g>
  </g>
</svg>
