<?xml version="1.0" encoding="UTF-8" standalone="no"?>
<svg
   version="1.1"
   id="svg4"
   width="30.398438"
   height="8.7832031"
   xmlns="http://www.w3.org/2000/svg"
   xmlns:svg="http://www.w3.org/2000/svg">
  <defs
     id="defs8" />
  <g
     aria-label="MiMA"
     id="text2"
     transform="translate(-1.171875,8.7832031)">
    <path
       d="M 8.9414063,0 H 7.78125 V -7.5175781 L 5.3554687,-2.4023438 H 4.6640625 L 2.2558594,-7.5175781 V 0 H 1.171875 v -8.7246094 h 1.5820313 l 2.3261718,4.8574219 2.25,-4.8574219 h 1.6113282 z"
       id="path10" />
    <path
       d="m 12.380859,-7.640625 h -1.242187 v -1.1425781 h 1.242187 z M 12.310547,0 h -1.101563 v -6.5449219 h 1.101563 z"
       id="path12" />
    <path
       d="M 22.347656,0 H 21.1875 v -7.5175781 l -2.425781,5.1152343 H 18.070312 L 15.662109,-7.5175781 V 0 h -1.083984 v -8.7246094 h 1.582031 l 2.326172,4.8574219 2.25,-4.8574219 h 1.611328 z"
       id="path14" />
    <path
       d="M 31.570312,0 H 30.333984 L 29.478516,-2.4316406 H 25.705078 L 24.849609,0 h -1.177734 l 3.175781,-8.7246094 h 1.546875 z m -2.449218,-3.4277344 -1.529297,-4.2832031 -1.535156,4.2832031 z"
       id="path16" />
  </g>
</svg>
