<?xml version="1.0" encoding="utf-8"?>
<!-- Generator: Adobe Illustrator 25.1.0, SVG Export Plug-In . SVG Version: 6.00 Build 0)  -->
<svg version="1.1" id="Ebene_1" xmlns="http://www.w3.org/2000/svg" xmlns:xlink="http://www.w3.org/1999/xlink" x="0px" y="0px"
	 viewBox="0 0 1250 507" style="enable-background:new 0 0 1250 507;" xml:space="preserve">
<style type="text/css">
	.st0{fill:#E69F00;}
	.st1{fill:none;stroke:#E69F00;stroke-width:2;stroke-miterlimit:10;}
	.st2{fill:#56B4E9;}
	.st3{fill:none;stroke:#56B4E9;stroke-width:4;stroke-miterlimit:10;}
</style>
<g>
	<circle class="st0" cx="88.6" cy="337.03" r="25.89"/>
	<circle class="st0" cx="88.6" cy="116.14" r="25.89"/>
	<circle class="st0" cx="223.51" cy="171.43" r="25.89"/>
	<circle class="st0" cx="88.6" cy="226.63" r="25.89"/>
	<circle class="st0" cx="223.51" cy="281.83" r="25.89"/>
	<circle class="st0" cx="223.51" cy="392.23" r="25.89"/>
	<circle class="st0" cx="223.51" cy="61.03" r="25.89"/>
	<circle class="st0" cx="358.98" cy="171.43" r="25.89"/>
	<circle class="st0" cx="358.98" cy="281.83" r="25.89"/>
	<polyline class="st1" points="88.6,226.63 223.51,61.03 88.6,116.14 223.51,171.43 88.6,226.63 223.51,281.83 88.6,337.03 
		223.51,392.23 88.6,116.14 223.51,281.83 	"/>
	<polygon class="st1" points="223.51,171.43 88.6,337.03 223.51,61.03 358.98,171.43 	"/>
	<polyline class="st1" points="223.51,61.03 358.98,281.83 223.51,171.43 	"/>
	<polyline class="st1" points="223.51,392.23 358.98,281.83 223.51,281.83 358.98,171.43 223.51,392.23 88.6,226.63 	"/>
</g>
<g>
	<path d="M237.55,60.12h68.65l17.39,122.96c2.29,18.15,4.42,36.46,6.25,54.77h3.51c1.83-18.31,3.97-36.61,6.25-54.77L357,60.12
		h68.65l0.15,222.74h-35.55V146.16V97.34h-5.49c-1.83,16.32-3.66,32.65-5.95,48.82l-20.14,136.69h-54.16l-20.14-136.69
		c-2.29-16.17-4.12-32.49-5.95-48.82h-5.49v48.82v136.69H237.4L237.55,60.12z"/>
	<path d="M458.61,60.12h40.58v189.94h48.97v32.8h-89.55V60.12z"/>
	<path class="st2" d="M766.32,283.16c-2.04-0.21-4.17-0.3-6.41-0.3c-2.24,0-4.78,0-7.63,0c-2.85,0-5.34,0-7.48,0
		c-2.14,0-4.22,0.1-6.26,0.3c-0.61-4.88-1.53-11.24-2.75-19.07c-1.22-7.83-2.49-15.71-3.81-23.65c-1.33-7.93-2.65-15.41-3.97-22.43
		c-1.33-7.02-2.39-12.46-3.2-16.32c-3.05-0.2-8.44-0.41-16.17-0.61c-7.73-0.2-15.87-0.3-24.41-0.3c-6.71,0-13.43,0.11-20.14,0.3
		c-6.71,0.21-13.43,0.41-20.14,0.61c-2.85,4.07-6.46,9.72-10.83,16.93c-4.38,7.22-8.9,14.85-13.58,22.88
		c-4.68,8.04-9.15,15.87-13.43,23.49c-4.27,7.63-7.63,13.68-10.07,18.15c-1.43-0.21-2.85-0.3-4.27-0.3c-1.43,0-3.26,0-5.49,0
		c-1.63,0-3.26,0-4.88,0c-1.63,0-3.56,0.1-5.8,0.3c17.49-25.63,34.73-51.26,51.72-76.89c16.98-25.63,34.12-51.77,51.41-78.42
		c7.52-11.8,14.19-21.92,19.99-30.36c5.8-8.44,11.34-17.03,16.63-25.78h5.8c1.01,5.29,2.64,13.53,4.88,24.71
		c2.24,11.19,4.78,23.8,7.63,37.83c2.85,14.04,5.84,28.83,9,44.4c3.15,15.56,6.26,30.31,9.31,44.24
		c3.05,13.94,5.84,26.35,8.39,37.23C762.91,271.01,764.9,278.69,766.32,283.16z M704.69,108.93l-53.09,80.86
		c11.59,0.61,23.39,0.92,35.39,0.92c11.79,0,23.59-0.3,35.39-0.92l-16.78-80.86H704.69z"/>
	<path class="st2" d="M850.53,139.45c-1.02,3.26-2.39,8.29-4.12,15.1c-1.73,6.82-3.66,14.6-5.8,23.34
		c-2.14,8.75-4.27,18.05-6.41,27.92c-2.14,9.87-4.17,19.58-6.1,29.14c-1.94,9.56-3.66,18.61-5.19,27.16
		c-1.53,8.54-2.59,15.56-3.2,21.05c-2.24-0.21-4.58-0.3-7.02-0.3c-2.44,0-4.78,0-7.02,0c-2.44,0-4.63,0-6.56,0
		c-1.94,0-3.71,0.1-5.34,0.3c2.24-6.51,4.58-14.44,7.02-23.8c2.44-9.35,4.78-19.12,7.02-29.29c2.24-10.17,4.37-20.24,6.41-30.21
		c2.03-9.96,3.81-19.12,5.34-27.46c1.53-8.34,2.79-15.46,3.81-21.36c1.01-5.9,1.63-9.76,1.83-11.59c4.07,0.82,8.34,1.22,12.81,1.22
		C843.1,140.67,847.28,140.26,850.53,139.45z M833.75,91.24c0-4.07,1.42-7.52,4.27-10.37c2.85-2.85,6.3-4.27,10.37-4.27
		c4.07,0,7.52,1.43,10.37,4.27c2.85,2.85,4.27,6.31,4.27,10.37c0,4.07-1.43,7.53-4.27,10.37c-2.85,2.85-6.31,4.27-10.37,4.27
		c-4.07,0-7.53-1.42-10.37-4.27C835.17,98.77,833.75,95.31,833.75,91.24z"/>
	<path class="st2" d="M952.44,161.72c-2.04-0.61-4.27-0.92-6.71-0.92c-7.12,0-14.09,3-20.9,9c-6.82,6-11.95,15.1-15.41,27.31
		c-0.41,0.82-1.07,3.16-1.98,7.02c-0.92,3.87-1.98,8.5-3.2,13.88c-1.22,5.39-2.49,11.29-3.81,17.7c-1.33,6.41-2.59,12.66-3.81,18.76
		c-1.22,6.1-2.29,11.75-3.2,16.93c-0.91,5.19-1.58,9.11-1.98,11.75c-1.63-0.21-3.36-0.3-5.19-0.3c-1.83,0-3.87,0-6.1,0
		c-2.24,0-4.42,0-6.56,0s-4.12,0.1-5.95,0.3c1.22-3.46,2.75-8.8,4.58-16.02c1.83-7.22,3.76-15.3,5.8-24.26
		c2.03-8.95,4.12-18.41,6.26-28.38c2.14-9.96,4.07-19.63,5.8-28.99c1.73-9.35,3.3-18.05,4.73-26.09c1.42-8.03,2.44-14.69,3.05-19.99
		c1.63,0.41,3.51,0.72,5.65,0.92c2.14,0.21,4.22,0.3,6.25,0.3c4.47,0,8.24-0.41,11.29-1.22c-0.41,1.22-0.97,3-1.68,5.34
		c-0.72,2.34-1.48,5.03-2.29,8.09c-0.82,3.05-1.58,6.26-2.29,9.61c-0.71,3.36-1.27,6.67-1.68,9.92h1.53
		c3.25-4.07,6.56-8.24,9.92-12.51c3.36-4.27,6.91-8.09,10.68-11.44c3.76-3.36,7.98-6.1,12.66-8.24c4.68-2.14,9.96-3.1,15.87-2.9
		c-1.02,5.09-1.78,9.51-2.29,13.27c-0.51,3.77-0.76,7.58-0.76,11.44l-2.75,1.53C956.3,162.94,954.47,162.33,952.44,161.72z"/>
</g>
<path class="st3" d="M917.78,281.21h238.28c0,0,22.8-2.24,22.8-29.51s-29.06-29.51-29.06-29.51s-35.17-2.38-29.51,37.11"/>
<path class="st3" d="M995.77,378.18c-10.42,72.68,54.31,68.3,54.31,68.3s53.48,0.05,53.48-54.31c0-51.38-41.96-54.31-41.96-54.31
	H731.71"/>
<polyline class="st3" points="575.98,309.5 952.9,309.5 1061.97,309.5 "/>
<g>
</g>
<g>
</g>
<g>
</g>
<g>
</g>
<g>
</g>
<g>
</g>
<g>
</g>
<g>
</g>
<g>
</g>
<g>
</g>
<g>
</g>
<g>
</g>
<g>
</g>
<g>
</g>
<g>
</g>
</svg>
