<?xml version="1.0" encoding="UTF-8" standalone="no"?>
<svg
   version="1.1"
   id="svg4"
   width="185.05078"
   height="9.2988281"
   xmlns="http://www.w3.org/2000/svg"
   xmlns:svg="http://www.w3.org/2000/svg">
  <defs
     id="defs8" />
  <g
     aria-label="ModBus Measurement Daemon"
     id="text2"
     transform="translate(-1.171875,9.1171875)">
    <path
       d="M 8.9414063,0 H 7.78125 V -7.5175781 L 5.3554687,-2.4023438 H 4.6640625 L 2.2558594,-7.5175781 V 0 H 1.171875 v -8.7246094 h 1.5820313 l 2.3261718,4.8574219 2.25,-4.8574219 h 1.6113282 z"
       id="path10" />
    <path
       d="m 16.775391,-3.2695313 q 0,1.5996094 -0.820313,2.52539068 -0.820312,0.92578124 -2.197265,0.92578124 -1.388672,0 -2.208985,-0.92578124 -0.814453,-0.92578128 -0.814453,-2.52539068 0,-1.5996093 0.814453,-2.5253906 0.820313,-0.9316406 2.208985,-0.9316406 1.376953,0 2.197265,0.9316406 0.820313,0.9257813 0.820313,2.5253906 z m -1.136719,0 q 0,-1.2714843 -0.498047,-1.8867187 -0.498047,-0.6210937 -1.382812,-0.6210937 -0.896485,0 -1.394532,0.6210937 -0.492187,0.6152344 -0.492187,1.8867187 0,1.2304688 0.498047,1.8691407 0.498047,0.63281248 1.388672,0.63281248 0.878906,0 1.376953,-0.62695308 0.503906,-0.6328126 0.503906,-1.8750001 z"
       id="path12" />
    <path
       d="M 23.789062,0 H 22.6875 v -0.68554687 q -0.474609,0.41015624 -0.990234,0.63867187 -0.515625,0.22851562 -1.119141,0.22851562 -1.171875,0 -1.863281,-0.90234374 -0.685547,-0.90234378 -0.685547,-2.50195318 0,-0.8320312 0.234375,-1.4824218 0.240234,-0.6503906 0.644531,-1.1074219 0.398438,-0.4453125 0.925781,-0.6796875 0.533203,-0.234375 1.101563,-0.234375 0.515625,0 0.914062,0.1113281 0.398438,0.1054688 0.837891,0.3339844 v -2.8359375 h 1.101562 z M 22.6875,-1.6113281 v -3.7558594 q -0.445313,-0.1992187 -0.796875,-0.2753906 -0.351563,-0.076172 -0.767578,-0.076172 -0.925781,0 -1.441406,0.6445313 -0.515625,0.6445312 -0.515625,1.8281249 0,1.1660157 0.398437,1.7753907 0.398438,0.6035156 1.277344,0.6035156 0.46875,0 0.949219,-0.2050781 0.480468,-0.2109375 0.896484,-0.5390624 z"
       id="path14" />
    <path
       d="m 32.625,-2.6835938 q 0,0.6503907 -0.246094,1.1484376 -0.246094,0.4980468 -0.662109,0.82031245 Q 31.224609,-0.328125 30.632812,-0.1640625 30.046875,0 29.138672,0 h -3.09375 v -8.7246094 h 2.583984 q 0.955078,0 1.429688,0.070312 0.474609,0.070312 0.908203,0.2929688 0.480469,0.2519531 0.697265,0.6503906 0.216797,0.3925781 0.216797,0.9433594 0,0.6210937 -0.316406,1.0605469 -0.316406,0.4335937 -0.84375,0.6972656 v 0.046875 q 0.884766,0.1816406 1.394531,0.7792969 0.509766,0.5917968 0.509766,1.5000004 z m -1.951172,-3.9316406 q 0,-0.3164062 -0.105469,-0.5332031 Q 30.462891,-7.3652344 30.228516,-7.5 29.953125,-7.6582031 29.560547,-7.6933594 29.167969,-7.734375 28.587891,-7.734375 h -1.382813 v 2.5195313 h 1.5 q 0.544922,0 0.867188,-0.052734 0.322265,-0.058594 0.597656,-0.234375 0.27539,-0.1757813 0.386719,-0.4511719 0.117187,-0.28125 0.117187,-0.6621098 z m 0.744141,3.9785156 q 0,-0.5273437 -0.158203,-0.8378906 -0.158204,-0.3105469 -0.574219,-0.5273437 -0.28125,-0.1464844 -0.685547,-0.1875 -0.398438,-0.046875 -0.972656,-0.046875 h -1.822266 v 3.24609372 h 1.535156 q 0.761719,0 1.248047,-0.0761718 0.486328,-0.082031 0.796875,-0.2929688 0.328125,-0.2285156 0.480469,-0.5214844 0.152344,-0.2929687 0.152344,-0.7558594 z"
       id="path16" />
    <path
       d="m 39.609375,0 h -1.101563 v -0.7265625 q -0.55664,0.43945312 -1.066406,0.67382813 -0.509765,0.23437499 -1.125,0.23437499 -1.03125,0 -1.605469,-0.62695312 -0.574218,-0.6328125 -0.574218,-1.8515625 v -4.2480469 h 1.101562 v 3.7265625 q 0,0.4980469 0.04687,0.8554688 0.04687,0.3515625 0.199219,0.6035156 0.158203,0.2578125 0.410156,0.375 0.251953,0.1171875 0.732422,0.1171875 0.427734,0 0.931641,-0.2226562 0.509765,-0.2226563 0.949218,-0.5683594 v -4.8867188 h 1.101563 z"
       id="path18" />
    <path
       d="m 46.453125,-1.8867187 q 0,0.89648432 -0.744141,1.47070307 -0.738281,0.57421875 -2.021484,0.57421875 -0.726563,0 -1.335938,-0.16992187 Q 41.748047,-0.1875 41.337891,-0.39257813 V -1.6289062 h 0.05859 q 0.521485,0.3925781 1.160157,0.6269531 0.638671,0.2285156 1.224609,0.2285156 0.726562,0 1.136719,-0.234375 0.410156,-0.234375 0.410156,-0.7382812 0,-0.3867188 -0.222656,-0.5859376 Q 44.882812,-2.53125 44.25,-2.671875 q -0.234375,-0.052734 -0.615234,-0.1230469 -0.375,-0.070312 -0.685547,-0.1523437 -0.861328,-0.2285157 -1.22461,-0.6679688 -0.357422,-0.4453125 -0.357422,-1.0898437 0,-0.4042969 0.164063,-0.7617188 0.169922,-0.3574218 0.509766,-0.6386718 0.328125,-0.2753907 0.832031,-0.4335938 0.509765,-0.1640625 1.136719,-0.1640625 0.585937,0 1.183593,0.1464844 0.603516,0.140625 1.001953,0.3457031 v 1.1777344 h -0.05859 q -0.421875,-0.3105469 -1.025391,-0.5214844 -0.603516,-0.2167969 -1.183594,-0.2167969 -0.603515,0 -1.019531,0.234375 -0.416016,0.2285157 -0.416016,0.6855469 0,0.4042969 0.251954,0.609375 0.246093,0.2050781 0.796875,0.3339844 0.304687,0.070312 0.679687,0.140625 0.380859,0.070312 0.632813,0.1289062 0.767578,0.1757813 1.183593,0.6035156 0.416016,0.4335938 0.416016,1.1484376 z"
       id="path20" />
    <path
       d="m 60.105469,0 h -1.160157 v -7.5175781 l -2.425781,5.1152343 H 55.828125 L 53.419922,-7.5175781 V 0 h -1.083985 v -8.7246094 h 1.582032 l 2.326172,4.8574219 2.25,-4.8574219 h 1.611328 z"
       id="path22" />
    <path
       d="m 67.839844,-3.1582031 h -4.822266 q 0,0.6035156 0.181641,1.0546875 0.18164,0.4453125 0.498047,0.7324219 0.304687,0.28125 0.720703,0.42187495 0.421875,0.140625 0.925781,0.140625 0.667969,0 1.341797,-0.26367185 0.679687,-0.2695313 0.966797,-0.5273438 h 0.05859 v 1.2011719 q -0.55664,0.234375 -1.136718,0.39257812 -0.580078,0.15820313 -1.21875,0.15820313 -1.628907,0 -2.542969,-0.87890625 -0.914063,-0.8847656 -0.914063,-2.5078125 0,-1.6054687 0.873047,-2.5488281 0.878907,-0.9433594 2.308594,-0.9433594 1.324219,0 2.039063,0.7734375 0.720703,0.7734375 0.720703,2.1972656 z m -1.072266,-0.84375 q -0.0059,-0.8671875 -0.439453,-1.3417969 -0.427734,-0.4746094 -1.306641,-0.4746094 -0.884765,0 -1.412109,0.5214844 -0.521484,0.5214844 -0.591797,1.2949219 z"
       id="path24" />
    <path
       d="M 74.595703,0 H 73.5 v -0.69726562 q -0.146484,0.0996094 -0.398438,0.28124999 -0.246093,0.17578125 -0.480468,0.28125001 Q 72.345703,0 71.988281,0.08789062 q -0.357422,0.09375 -0.83789,0.09375 -0.884766,0 -1.5,-0.5859375 -0.615235,-0.5859375 -0.615235,-1.49414062 0,-0.7441406 0.316406,-1.2011719 0.322266,-0.4628906 0.914063,-0.7265625 0.597656,-0.2636718 1.435547,-0.3574218 0.83789,-0.09375 1.798828,-0.140625 v -0.1699219 q 0,-0.375 -0.134766,-0.6210938 -0.128906,-0.2460937 -0.375,-0.3867187 -0.234375,-0.1347656 -0.5625,-0.1816406 -0.328125,-0.046875 -0.685547,-0.046875 -0.433593,0 -0.966796,0.1171875 -0.533204,0.1113281 -1.101563,0.328125 h -0.05859 v -1.1191407 q 0.322266,-0.087891 0.931641,-0.1933593 0.609375,-0.1054688 1.201172,-0.1054688 0.691406,0 1.201172,0.1171875 0.515625,0.1113281 0.890625,0.3867188 0.36914,0.2695312 0.5625,0.6972656 0.193359,0.4277344 0.193359,1.0605469 z M 73.5,-1.6113281 v -1.8222657 q -0.503906,0.029297 -1.189453,0.087891 -0.679688,0.058594 -1.078125,0.1699218 -0.47461,0.1347657 -0.767578,0.421875 -0.292969,0.28125 -0.292969,0.7792969 0,0.5625 0.339844,0.8496094 0.339843,0.28125 1.037109,0.28125 0.580078,0 1.060547,-0.2226562 0.480469,-0.228516 0.890625,-0.5449222 z"
       id="path26" />
    <path
       d="m 81.392578,-1.8867187 q 0,0.89648432 -0.744141,1.47070307 -0.738281,0.57421875 -2.021484,0.57421875 -0.726562,0 -1.335937,-0.16992187 Q 76.6875,-0.1875 76.277344,-0.39257813 V -1.6289062 h 0.05859 q 0.521485,0.3925781 1.160157,0.6269531 0.638672,0.2285156 1.224609,0.2285156 0.726563,0 1.136719,-0.234375 0.410156,-0.234375 0.410156,-0.7382812 0,-0.3867188 -0.222656,-0.5859376 -0.222656,-0.1992187 -0.855469,-0.3398437 -0.234375,-0.052734 -0.615234,-0.1230469 -0.375,-0.070312 -0.685547,-0.1523437 -0.861328,-0.2285157 -1.22461,-0.6679688 -0.357421,-0.4453125 -0.357421,-1.0898437 0,-0.4042969 0.164062,-0.7617188 0.169922,-0.3574218 0.509766,-0.6386718 0.328125,-0.2753907 0.832031,-0.4335938 0.509766,-0.1640625 1.136719,-0.1640625 0.585937,0 1.183593,0.1464844 0.603516,0.140625 1.001954,0.3457031 v 1.1777344 h -0.05859 q -0.421875,-0.3105469 -1.025391,-0.5214844 -0.603515,-0.2167969 -1.183594,-0.2167969 -0.603515,0 -1.019531,0.234375 -0.416015,0.2285157 -0.416015,0.6855469 0,0.4042969 0.251953,0.609375 0.246093,0.2050781 0.796875,0.3339844 0.304687,0.070312 0.679687,0.140625 0.38086,0.070312 0.632813,0.1289062 0.767578,0.1757813 1.183593,0.6035156 0.416016,0.4335938 0.416015,1.1484376 z"
       id="path28" />
    <path
       d="m 88.394531,0 h -1.101562 v -0.7265625 q -0.556641,0.43945312 -1.066407,0.67382813 -0.509765,0.23437499 -1.125,0.23437499 -1.03125,0 -1.605468,-0.62695312 -0.574219,-0.6328125 -0.574219,-1.8515625 v -4.2480469 h 1.101562 v 3.7265625 q 0,0.4980469 0.04687,0.8554688 0.04687,0.3515625 0.199219,0.6035156 0.158203,0.2578125 0.410156,0.375 0.251954,0.1171875 0.732422,0.1171875 0.427735,0 0.931641,-0.2226562 0.509766,-0.2226563 0.949219,-0.5683594 v -4.8867188 h 1.101562 z"
       id="path30" />
    <path
       d="m 94.646484,-5.34375 h -0.05859 q -0.246094,-0.058594 -0.480469,-0.082031 -0.228516,-0.029297 -0.544922,-0.029297 -0.509766,0 -0.984375,0.2285156 -0.474609,0.2226563 -0.914063,0.5800781 V 0 H 90.5625 v -6.5449219 h 1.101562 v 0.9667969 q 0.65625,-0.5273437 1.154297,-0.7441406 0.503907,-0.2226563 1.025391,-0.2226563 0.287109,0 0.416016,0.017578 0.128906,0.011719 0.386718,0.052734 z"
       id="path32" />
    <path
       d="m 101.16211,-3.1582031 h -4.822266 q 0,0.6035156 0.18164,1.0546875 0.181641,0.4453125 0.498047,0.7324219 0.304688,0.28125 0.720703,0.42187495 0.421875,0.140625 0.925782,0.140625 0.667968,0 1.341794,-0.26367185 0.67969,-0.2695313 0.9668,-0.5273438 h 0.0586 v 1.2011719 q -0.55664,0.234375 -1.136716,0.39257812 -0.580078,0.15820313 -1.21875,0.15820313 -1.628906,0 -2.542968,-0.87890625 -0.914063,-0.8847656 -0.914063,-2.5078125 0,-1.6054687 0.873047,-2.5488281 0.878906,-0.9433594 2.308594,-0.9433594 1.324218,0 2.039066,0.7734375 0.7207,0.7734375 0.7207,2.1972656 z m -1.07227,-0.84375 q -0.006,-0.8671875 -0.439449,-1.3417969 -0.427735,-0.4746094 -1.306641,-0.4746094 -0.884766,0 -1.412109,0.5214844 -0.521485,0.5214844 -0.591797,1.2949219 z"
       id="path34" />
    <path
       d="m 112.38281,0 h -1.10156 v -3.7265625 q 0,-0.421875 -0.041,-0.8144531 -0.0352,-0.3925781 -0.1582,-0.6269531 -0.13476,-0.2519532 -0.38672,-0.3808594 -0.25195,-0.1289063 -0.72656,-0.1289063 -0.46289,0 -0.92578,0.234375 -0.46289,0.2285157 -0.92578,0.5859375 0.0176,0.1347657 0.0293,0.3164063 0.0117,0.1757812 0.0117,0.3515625 V 0 h -1.10156 v -3.7265625 q 0,-0.4335937 -0.041,-0.8203125 -0.0352,-0.3925781 -0.15821,-0.6269531 -0.13476,-0.2519531 -0.38672,-0.375 -0.25195,-0.1289063 -0.72656,-0.1289063 -0.45117,0 -0.9082,0.2226563 -0.45117,0.2226562 -0.90235,0.5683594 V 0 h -1.10156 v -6.5449219 h 1.10156 v 0.7265625 q 0.51563,-0.4277343 1.02539,-0.6679687 0.51563,-0.2402344 1.09571,-0.2402344 0.66797,0 1.13086,0.28125 0.46875,0.28125 0.69726,0.7792969 0.66797,-0.5625 1.21875,-0.8085938 0.55078,-0.2519531 1.17774,-0.2519531 1.07812,0 1.58789,0.65625 0.51562,0.6503906 0.51562,1.8222656 z"
       id="path36" />
    <path
       d="m 119.98242,-3.1582031 h -4.82226 q 0,0.6035156 0.18164,1.0546875 0.18164,0.4453125 0.49804,0.7324219 0.30469,0.28125 0.72071,0.42187495 0.42187,0.140625 0.92578,0.140625 0.66797,0 1.3418,-0.26367185 0.67968,-0.2695313 0.96679,-0.5273438 h 0.0586 v 1.2011719 q -0.55664,0.234375 -1.13672,0.39257812 -0.58008,0.15820313 -1.21875,0.15820313 -1.62891,0 -2.54297,-0.87890625 -0.91406,-0.8847656 -0.91406,-2.5078125 0,-1.6054687 0.87304,-2.5488281 0.87891,-0.9433594 2.3086,-0.9433594 1.32422,0 2.03906,0.7734375 0.7207,0.7734375 0.7207,2.1972656 z m -1.07226,-0.84375 q -0.006,-0.8671875 -0.43946,-1.3417969 -0.42773,-0.4746094 -1.30664,-0.4746094 -0.88476,0 -1.41211,0.5214844 -0.52148,0.5214844 -0.59179,1.2949219 z"
       id="path38" />
    <path
       d="m 127.125,0 h -1.10156 v -3.7265625 q 0,-0.4511719 -0.0527,-0.84375 -0.0527,-0.3984375 -0.19336,-0.6210937 -0.14648,-0.2460938 -0.42187,-0.3632813 -0.27539,-0.1230469 -0.71484,-0.1230469 -0.45118,0 -0.94336,0.2226563 -0.49219,0.2226562 -0.94336,0.5683594 V 0 h -1.10157 v -6.5449219 h 1.10157 v 0.7265625 q 0.51562,-0.4277343 1.0664,-0.6679687 0.55078,-0.2402344 1.13086,-0.2402344 1.06055,0 1.61719,0.6386719 0.55664,0.6386719 0.55664,1.8398437 z"
       id="path40" />
    <path
       d="m 132.64453,-0.05859375 q -0.31055,0.08203125 -0.67969,0.13476562 -0.36328,0.05273438 -0.65039,0.05273438 -1.00195,0 -1.52343,-0.5390625 -0.52149,-0.5390625 -0.52149,-1.72851565 v -3.4804687 h -0.74414 v -0.9257813 h 0.74414 v -1.8808594 h 1.10156 v 1.8808594 h 2.27344 v 0.9257813 h -2.27344 v 2.9824218 q 0,0.515625 0.0234,0.8085938 0.0234,0.2871094 0.16406,0.5390625 0.12891,0.234375 0.35157,0.34570312 0.22851,0.10546875 0.6914,0.10546875 0.26953,0 0.5625,-0.0761719 0.29297,-0.0820313 0.42188,-0.13476557 h 0.0586 z"
       id="path42" />
    <path
       d="m 145.65234,-4.3535156 q 0,1.1894531 -0.52148,2.15625 -0.51563,0.9667969 -1.37695,1.49999998 -0.59766,0.36914062 -1.33594,0.53320312 Q 141.68555,0 140.48437,0 h -2.20312 v -8.7246094 h 2.17969 q 1.27734,0 2.02734,0.1875 0.75586,0.1816406 1.27734,0.5039063 0.89063,0.5566406 1.38868,1.4824219 0.49804,0.9257812 0.49804,2.1972656 z m -1.21289,-0.017578 q 0,-1.0253907 -0.35742,-1.7285157 -0.35742,-0.703125 -1.06641,-1.1074218 Q 142.5,-7.5 141.91992,-7.6113281 q -0.58008,-0.1171875 -1.38867,-0.1171875 h -1.08984 v 6.73242185 h 1.08984 q 0.83789,0 1.45898,-0.12304685 0.62696,-0.1230469 1.14844,-0.4570313 0.65039,-0.4160156 0.97266,-1.0957031 0.32812,-0.6796875 0.32812,-1.6992186 z"
       id="path44" />
    <path
       d="m 152.52539,0 h -1.0957 v -0.69726562 q -0.14649,0.0996094 -0.39844,0.28124999 -0.24609,0.17578125 -0.48047,0.28125001 Q 150.27539,0 149.91797,0.08789062 q -0.35742,0.09375 -0.83789,0.09375 -0.88477,0 -1.5,-0.5859375 -0.61524,-0.5859375 -0.61524,-1.49414062 0,-0.7441406 0.31641,-1.2011719 0.32227,-0.4628906 0.91406,-0.7265625 0.59766,-0.2636718 1.43555,-0.3574218 0.83789,-0.09375 1.79883,-0.140625 v -0.1699219 q 0,-0.375 -0.13477,-0.6210938 -0.1289,-0.2460937 -0.375,-0.3867187 -0.23437,-0.1347656 -0.5625,-0.1816406 -0.32812,-0.046875 -0.68555,-0.046875 -0.43359,0 -0.96679,0.1171875 -0.53321,0.1113281 -1.10156,0.328125 h -0.0586 v -1.1191407 q 0.32227,-0.087891 0.93164,-0.1933593 0.60938,-0.1054688 1.20117,-0.1054688 0.69141,0 1.20118,0.1171875 0.51562,0.1113281 0.89062,0.3867188 0.36914,0.2695312 0.5625,0.6972656 0.19336,0.4277344 0.19336,1.0605469 z m -1.0957,-1.6113281 v -1.8222657 q -0.50391,0.029297 -1.18946,0.087891 -0.67968,0.058594 -1.07812,0.1699218 -0.47461,0.1347657 -0.76758,0.421875 -0.29297,0.28125 -0.29297,0.7792969 0,0.5625 0.33985,0.8496094 0.33984,0.28125 1.03711,0.28125 0.58007,0 1.06054,-0.2226562 0.48047,-0.2285157 0.89063,-0.5449222 z"
       id="path46" />
    <path
       d="m 160.125,-3.1582031 h -4.82227 q 0,0.6035156 0.18164,1.0546875 0.18165,0.4453125 0.49805,0.7324219 0.30469,0.28125 0.7207,0.42187495 0.42188,0.140625 0.92579,0.140625 0.66796,0 1.34179,-0.26367185 0.67969,-0.2695313 0.9668,-0.5273438 h 0.0586 v 1.2011719 q -0.55664,0.234375 -1.13672,0.39257812 -0.58007,0.15820313 -1.21875,0.15820313 -1.6289,0 -2.54296,-0.87890625 -0.91407,-0.8847656 -0.91407,-2.5078125 0,-1.6054687 0.87305,-2.5488281 0.87891,-0.9433594 2.30859,-0.9433594 1.32422,0 2.03907,0.7734375 0.7207,0.7734375 0.7207,2.1972656 z m -1.07227,-0.84375 q -0.006,-0.8671875 -0.43945,-1.3417969 -0.42773,-0.4746094 -1.30664,-0.4746094 -0.88477,0 -1.41211,0.5214844 -0.52148,0.5214844 -0.5918,1.2949219 z"
       id="path48" />
    <path
       d="m 171.3457,0 h -1.10156 v -3.7265625 q 0,-0.421875 -0.041,-0.8144531 -0.0352,-0.3925781 -0.1582,-0.6269531 -0.13476,-0.2519532 -0.38672,-0.3808594 -0.25195,-0.1289063 -0.72656,-0.1289063 -0.46289,0 -0.92578,0.234375 -0.46289,0.2285157 -0.92578,0.5859375 0.0176,0.1347657 0.0293,0.3164063 0.0117,0.1757812 0.0117,0.3515625 V 0 h -1.10156 v -3.7265625 q 0,-0.4335937 -0.041,-0.8203125 -0.0352,-0.3925781 -0.15821,-0.6269531 -0.13476,-0.2519531 -0.38672,-0.375 -0.25195,-0.1289063 -0.72656,-0.1289063 -0.45117,0 -0.9082,0.2226563 -0.45117,0.2226562 -0.90235,0.5683594 V 0 h -1.10156 v -6.5449219 h 1.10156 v 0.7265625 q 0.51563,-0.4277343 1.02539,-0.6679687 0.51563,-0.2402344 1.09571,-0.2402344 0.66797,0 1.13086,0.28125 0.46875,0.28125 0.69726,0.7792969 0.66797,-0.5625 1.21875,-0.8085938 0.55078,-0.2519531 1.17774,-0.2519531 1.07812,0 1.58789,0.65625 0.51562,0.6503906 0.51562,1.8222656 z"
       id="path50" />
    <path
       d="m 179.04492,-3.2695313 q 0,1.5996094 -0.82031,2.52539068 -0.82031,0.92578124 -2.19727,0.92578124 -1.38867,0 -2.20898,-0.92578124 -0.81445,-0.92578128 -0.81445,-2.52539068 0,-1.5996093 0.81445,-2.5253906 0.82031,-0.9316406 2.20898,-0.9316406 1.37696,0 2.19727,0.9316406 0.82031,0.9257813 0.82031,2.5253906 z m -1.13672,0 q 0,-1.2714843 -0.49804,-1.8867187 -0.49805,-0.6210937 -1.38282,-0.6210937 -0.89648,0 -1.39453,0.6210937 -0.49219,0.6152344 -0.49219,1.8867187 0,1.2304688 0.49805,1.8691407 0.49805,0.63281248 1.38867,0.63281248 0.87891,0 1.37696,-0.62695308 0.5039,-0.6328126 0.5039,-1.8750001 z"
       id="path52" />
    <path
       d="m 186.22266,0 h -1.10157 v -3.7265625 q 0,-0.4511719 -0.0527,-0.84375 -0.0527,-0.3984375 -0.19336,-0.6210937 -0.14648,-0.2460938 -0.42188,-0.3632813 -0.27539,-0.1230469 -0.71484,-0.1230469 -0.45117,0 -0.94336,0.2226563 -0.49219,0.2226562 -0.94336,0.5683594 V 0 H 180.75 v -6.5449219 h 1.10156 v 0.7265625 q 0.51563,-0.4277343 1.06641,-0.6679687 0.55078,-0.2402344 1.13086,-0.2402344 1.06054,0 1.61719,0.6386719 0.55664,0.6386719 0.55664,1.8398437 z"
       id="path54" />
  </g>
</svg>
