<svg xmlns="http://www.w3.org/2000/svg" role="img" viewBox="-10.24 151.26 532.48 290.98"><style>svg {enable-background:new 0 0 512 512}</style><style>.st0{fill:#007150}</style><g id="XMLID_1_"><path id="XMLID_7_" d="M238.31 163.55v92.59c0 19.5-11.08 40.12-44.33 40.12-30.02 0-44.47-15.57-44.47-40.12v-92.59h27.36v90.77c0 16.13 6.87 22.45 16.84 22.45 11.93 0 17.4-8 17.4-22.45v-90.77h27.2m44.48 132.85c-33.81 0-40.12-19.92-38.72-42.51h27.36c0 12.49.56 23.01 15.57 23.01 9.26 0 13.75-6.03 13.75-14.87 0-23.57-55-24.97-55-63.83 0-20.48 9.82-36.76 43.07-36.76 26.66 0 39.84 11.93 38.02 39.28h-26.66c0-9.82-1.68-19.78-12.63-19.78-8.84 0-14.17 4.91-14.17 13.89 0 24.83 55 22.59 55 63.69 0 33.96-24.83 37.88-45.59 37.88m183.64 0c-33.81 0-40.12-19.92-38.72-42.51h27.36c0 12.49.56 23.01 15.57 23.01 9.26 0 13.75-6.03 13.75-14.87 0-23.57-55-24.97-55-63.83 0-20.48 9.82-36.76 43.07-36.76 26.66 0 39.84 11.93 38.02 39.28h-26.66c0-9.82-1.68-19.78-12.63-19.78-8.84 0-14.17 4.91-14.17 13.89 0 24.83 55 22.59 55 63.69.01 33.96-24.83 37.88-45.59 37.88m-86.98-50.78h16.13v28.76l-1.4.56c-4.21 1.4-8.98 2.53-13.61 2.53-15.57 0-19.5-7.3-19.5-48.12 0-25.39 0-48.26 16.98-48.26 13.19 0 15.99 8.98 16.27 19.78h27.22c.28-25.39-16.13-39.28-41.81-39.28-44.75 0-46.3 33.53-46.3 66.36 0 49.52 5.33 68.74 51.35 68.74 10.66 0 27.64-2.39 35.49-4.49.42-.14 1.26-.7 1.26-1.26v-64.96h-42.09v19.64" class="st0"/><path id="XMLID_15_" d="M35.45 207.32l.42.42c12.77 10.66 26.66 9.68 37.18 2.67 6.59-4.35 36.62-24.41 53.59-35.63v-11.22H.23v29.74c7.72-1.27 20.2-.01 35.22 14.02m47.56 49.52l-14.87-14.31c-2.1-1.96-3.93-3.37-4.21-3.65-12.21-8.56-23.57-6.03-28.48-4.21-1.54.56-2.95 1.4-3.93 2.1L.37 257.67v37.74h126.41v-27.22c-2.95 1.84-20.06 11.1-43.77-11.35m-48.69-46.16c-.7-.56-1.4-1.26-2.1-1.82-14.87-11.5-29.04-5.89-31.99-4.49v13.05l7.3-4.91s11.22-8.42 28.76.28l-1.97-2.11m17.54 16.84c-.7-.56-1.26-1.12-1.96-1.82-13.19-11.22-26.09-8.42-31.29-6.45-1.54.56-2.95 1.4-3.93 2.1L.37 230.89v13.33l23.85-16.13s11.08-8.28 28.48 0l-.84-.57m74.78 14.03c-4.91 3.37-9.96 6.73-12.07 8.14-4.49 2.95-14.87 10.52-32.27 2.24l2.1 1.96c.7.7 1.68 1.54 2.67 2.24 12.49 9.26 25.67 8 35.63 1.4 1.4-.98 2.67-1.68 3.79-2.53l.15-13.45m0-26.8c-10.94 7.3-25.67 17.26-28.48 19.08-4.49 2.95-15.01 10.52-31.99 2.53l1.96 1.82c.28.14.42.42.7.56 13.19 11.08 27.64 9.4 37.6 2.81 5.61-3.79 13.61-9.12 20.2-13.61l.01-13.19m0-26.65c-15.71 10.52-41.53 27.92-44.75 29.88-4.49 3.09-15.29 10.66-31.99 2.67l1.96 1.96c1.26 1.12 2.81 2.53 4.63 3.65 11.64 7.44 23.71 6.03 33.53-.56 7.16-4.77 24.55-16.27 36.48-24.27V188.1" class="st0"/><path id="XMLID_51_" d="M6.69 334.28c-.28.98-.42 2.1-.28 2.81.28.7.84 1.12 2.1 1.12s2.53-.84 2.95-2.39c.98-4.91-10.52-3.79-8.98-11.08 1.12-4.91 6.31-6.45 10.52-6.45 4.35 0 7.86 2.1 6.45 7.01h-6.31c.28-1.54.42-2.53 0-2.95-.28-.42-.84-.56-1.54-.56-1.4 0-2.39.98-2.67 2.53-.84 3.65 10.52 3.51 8.98 10.8-.84 4.07-4.77 7.01-10.1 7.01-5.61 0-9.12-1.4-7.3-7.86l6.18.01m27.49-7.43c.7-3.37.14-4.63-1.96-4.63-2.81 0-3.51 2.39-4.49 7.16-1.54 7.01-1.26 8.56 1.12 8.56 1.96 0 3.37-1.82 3.93-4.77h6.45c-1.26 6.31-5.33 8.98-11.36 8.98-8.28 0-8.28-5.05-6.73-12.35 1.4-6.31 3.37-11.64 11.93-11.64 5.89 0 8.7 2.67 7.44 8.7l-6.33-.01m20.07-17.12l-1.12 5.05h-6.45l1.12-5.05h6.45m-6.74 31.99h-6.45l4.91-23.01h6.45l-4.91 23.01zm308.09-31.99l-1.12 5.05h-6.45l1.12-5.05h6.45m-6.88 31.99h-6.45l4.91-23.01h6.45l-4.91 23.01zM66.59 327.55c.42-2.24 1.26-5.47-1.82-5.47-2.95 0-3.65 3.51-4.07 5.47h5.89m-6.73 3.65c-.56 2.81-1.4 6.87 1.4 6.87 2.24 0 3.23-2.24 3.65-4.07h6.59c-.56 2.53-1.82 4.63-3.79 6.03-1.82 1.4-4.21 2.24-7.3 2.24-8.28 0-8.28-5.05-6.73-12.35 1.4-6.31 3.37-11.64 11.93-11.64 8.7 0 8.42 5.61 6.59 13.05l-12.34-.13zm24.55-10.24c1.82-2.1 3.65-2.81 6.17-2.81 3.09 0 5.33 1.82 4.63 5.05l-3.93 18.52h-6.45l3.37-15.85c.42-2.1.42-3.65-1.68-3.65s-2.81 1.54-3.23 3.65l-3.37 15.85h-6.45l4.91-23.01h6.45l-.42 2.25m25.53 5.89c.7-3.37.14-4.63-1.96-4.63-2.81 0-3.51 2.39-4.49 7.16-1.54 7.01-1.26 8.56 1.12 8.56 1.96 0 3.37-1.82 3.93-4.77h6.45c-1.26 6.31-5.33 8.98-11.36 8.98-8.28 0-8.28-5.05-6.73-12.35 1.4-6.31 3.37-11.64 11.93-11.64 5.89 0 8.7 2.67 7.44 8.7l-6.33-.01m21.33.7c.42-2.24 1.26-5.47-1.82-5.47-2.95 0-3.65 3.51-4.07 5.47h5.89m-6.6 3.65c-.56 2.81-1.4 6.87 1.4 6.87 2.24 0 3.23-2.24 3.65-4.07h6.59c-.56 2.53-1.82 4.63-3.79 6.03-1.82 1.4-4.21 2.24-7.3 2.24-8.28 0-8.28-5.05-6.73-12.35 1.4-6.31 3.37-11.64 11.93-11.64 8.7 0 8.42 5.61 6.59 13.05l-12.34-.13zm39.29-17.4c-2.53-.14-3.37.84-3.79 3.09l-.42 1.68h3.09l-.84 3.93h-2.95l-4.07 19.08h-6.45l4.07-19.08h-2.81l.84-3.93h2.95c1.26-5.75 2.39-8.98 9.26-8.98.84 0 1.54 0 2.24.14l-1.12 4.07m10.52 15.71c.98-4.77 1.26-7.16-1.4-7.16-2.81 0-3.51 2.39-4.49 7.16-1.54 7.01-1.26 8.56 1.12 8.56 2.24 0 3.22-1.54 4.77-8.56m-12.49.43c1.4-6.31 3.37-11.64 11.93-11.64s8.28 5.33 6.87 11.64c-1.54 7.16-3.65 12.35-12.07 12.35-8.27-.15-8.27-5.2-6.73-12.35zm30.31-11.37l-.56 2.95h.14c1.68-2.67 4.07-3.37 6.73-3.37l-1.26 5.75c-5.61-.42-6.31 2.95-6.87 5.19l-2.67 12.49h-6.45l4.91-23.01h6.03m19.5 16c-.28 1.68-.56 3.65 1.54 3.65 3.79 0 4.35-5.05 4.77-7.58-3.23 0-5.47-.28-6.31 3.93m11.22 2.8c-.28 1.4-.42 2.95-.56 4.35h-6.03l.42-3.09h-.14c-1.82 2.39-3.93 3.51-6.73 3.51-4.49 0-5.47-3.37-4.49-7.3 1.68-7.58 7.58-8 13.61-7.86l.42-1.82c.42-1.96.42-3.37-1.82-3.37s-2.81 1.68-3.23 3.51h-6.31c.56-2.81 1.82-4.63 3.51-5.61 1.68-1.12 3.93-1.54 6.31-1.54 8.14 0 8.42 3.51 7.58 7.72l-2.54 11.5zm25.53-10.52c.7-3.37.14-4.63-1.96-4.63-2.81 0-3.51 2.39-4.49 7.16-1.54 7.01-1.26 8.56 1.12 8.56 1.96 0 3.37-1.82 3.93-4.77h6.45c-1.26 6.31-5.33 8.98-11.36 8.98-8.28 0-8.28-5.05-6.73-12.35 1.4-6.31 3.37-11.64 11.93-11.64 5.89 0 8.7 2.67 7.44 8.7l-6.33-.01m35.36 7.72c-.42 1.68-.56 3.65 1.54 3.65 3.79 0 4.35-5.05 4.77-7.58-3.23 0-5.47-.28-6.31 3.93m11.22 2.8c-.28 1.4-.42 2.95-.56 4.35h-6.03l.42-3.09h-.14c-1.82 2.39-3.93 3.51-6.73 3.51-4.49 0-5.47-3.37-4.49-7.3 1.68-7.58 7.58-8 13.61-7.86l.42-1.82c.42-1.96.42-3.37-1.82-3.37s-2.81 1.68-3.23 3.51h-6.31c.56-2.81 1.82-4.63 3.51-5.61 1.68-1.12 3.93-1.54 6.31-1.54 8.14 0 8.42 3.51 7.58 7.72l-2.54 11.5zm14.17-16.41c1.82-2.1 3.65-2.81 6.17-2.81 3.09 0 5.33 1.82 4.63 5.05l-3.93 18.52h-6.45l3.37-15.85c.42-2.1.42-3.65-1.68-3.65s-2.81 1.54-3.23 3.65l-3.37 15.85h-6.45l4.91-23.01h6.45l-.42 2.25m20.2 16.41c2.39 0 3.23-2.39 4.21-7.3 1.12-5.05 1.4-8-.98-8-2.39 0-3.23 1.68-4.63 8.7-.42 2.25-1.68 6.6 1.4 6.6m13.05-18.66l-5.05 23.99c-.28 1.54-1.54 7.86-10.38 7.86-4.77 0-8.7-1.26-7.58-6.87h6.31c-.14.98-.28 1.82 0 2.39s.98.98 1.96.98c1.54 0 2.67-1.54 3.23-3.79l.98-4.49h-.28c-1.4 1.82-3.37 2.67-5.47 2.67-7.01 0-5.33-6.45-4.35-11.64 1.12-5.05 2.53-11.5 9.26-11.5 2.24 0 4.07.98 4.49 3.09h.14l.56-2.67 6.18-.02zm21.61 2.25c1.82-2.1 3.65-2.81 6.17-2.81 3.09 0 5.33 1.82 4.63 5.05l-3.93 18.52h-6.45l3.37-15.85c.42-2.1.42-3.65-1.68-3.65s-2.81 1.54-3.23 3.65l-3.37 15.85h-6.45l4.91-23.01h6.45l-.42 2.25m20.34 16.41c2.39 0 3.23-2.39 4.21-7.3 1.12-5.05 1.4-8-.84-8-2.39 0-3.23 1.68-4.63 8.7-.56 2.25-1.83 6.6 1.26 6.6m13.05-18.66l-5.05 23.99c-.28 1.54-1.54 7.86-10.38 7.86-4.77 0-8.7-1.26-7.58-6.87h6.31c-.14.98-.28 1.82 0 2.39s.98.98 1.96.98c1.54 0 2.67-1.54 3.23-3.79l.98-4.49h-.14c-1.4 1.82-3.37 2.67-5.47 2.67-7.01 0-5.33-6.45-4.35-11.64 1.12-5.05 2.53-11.5 9.26-11.5 2.24 0 4.07.98 4.49 3.09h.14l.56-2.67 6.04-.02zm10.1 0h6.45l-.56 17.4h.14l7.72-17.4h6.87l.14 17.4h.14l7.01-17.4h6.17l-10.94 23.01h-6.73l-.7-15.29h-.42l-7.72 15.29h-6.87l-.7-23.01m44.89 10.8c.98-4.77 1.26-7.16-1.4-7.16-2.81 0-3.51 2.39-4.49 7.16-1.54 7.01-1.26 8.56 1.12 8.56 2.39 0 3.23-1.54 4.77-8.56m-12.48.43c1.4-6.31 3.37-11.64 11.93-11.64s8.28 5.33 6.87 11.64c-1.54 7.16-3.65 12.35-12.07 12.35-8.42-.01-8.28-5.2-6.73-12.35zm30.72-11.23l-.7 2.95h.14c1.68-2.67 4.07-3.37 6.73-3.37l-1.26 5.75c-5.61-.42-6.31 2.95-6.87 5.19l-2.67 12.49h-6.45l4.91-23.01h6.17m-198.66-.56c-2.39 0-4.35.7-6.03 2.81h-.14l2.39-11.22h-6.45l-6.73 31.99h6.45l3.37-15.85c.42-2.1 1.12-3.65 3.23-3.65 2.1 0 2.1 1.54 1.68 3.65l-3.37 15.85h6.45l3.93-18.52c.55-3.24-1.69-5.06-4.78-5.06m209.46-8.42l-6.73 31.99h6.45l6.73-31.99h-6.45m17.12 20.21c-1.26 5.75-2.1 8.28-4.35 8.28-2.39 0-2.24-2.39-.98-8.28.98-4.63 1.54-7.86 4.35-7.86 2.8.14 1.96 3.23.98 7.86m4.35-20.21l-2.39 11.08h-.14c-.84-1.96-2.39-2.67-4.63-2.67-6.45 0-7.86 7.16-8.84 11.78-.98 4.77-2.81 12.21 3.79 12.21 2.53 0 4.35-.84 6.03-2.95h.14l-.56 2.53h6.17l6.73-31.99h-6.3v.01z" class="st0"/></g><path d="M109.55745 382.1231c-2.07928-.82411-4.19659-1.2425-6.32658-1.2425-3.22033 0-6.12371.65928-8.73548 2.0032-2.4723 1.33124-4.5389 3.43587-6.19979 6.28854-.95089-2.38356-2.34552-4.32337-4.19658-5.8448-2.28213-1.63552-5.28694-2.44694-9.00174-2.44694-3.91765 0-7.11264.95089-9.58494 2.85266-1.39464 1.065-2.87802 2.86534-4.45016 5.38836v-7.08728H48.71332v48.49526h12.88136v-29.23662c0-2.6498.34232-4.64033 1.02696-5.97157 1.2425-2.34552 3.68944-3.52462 7.30282-3.52462 3.13158 0 5.22354 1.1791 6.28853 3.52462.5959 1.30588.8875 3.39784.8875 6.28854v28.91965h12.7926v-28.91965c0-2.1807.34232-4.03177 1.02696-5.57854 1.34392-2.91606 3.76552-4.3614 7.26478-4.3614 3.03016 0 5.10944 1.12838 6.2505 3.38515.58321 1.1791.8875 2.70052.8875 4.5389v30.93554h13.00814l.08875-30.61857c0-3.15695-.13947-5.5405-.44375-7.17603-.4691-2.47231-1.39463-4.55159-2.76391-6.23783-1.68624-2.07927-3.57534-3.5373-5.65461-4.37408zm50.90417 35.48711c-1.99052 2.63713-4.84318 3.96837-8.55798 3.96837-3.7148 0-6.58014-1.33124-8.58335-3.96837-2.0032-2.6498-3.0048-6.40264-3.0048-11.28386 0-4.86855 1.0016-8.62138 3.0048-11.25851 2.0032-2.62445 4.86855-3.94301 8.58335-3.94301 3.7148 0 6.56746 1.31856 8.55798 3.94301 1.99053 2.63713 2.97945 6.38996 2.97945 11.2585 0 4.88123-.98892 8.63407-2.97945 11.28387zm10.15548 7.01121c4.10784-5.05872 6.14908-11.15708 6.14908-18.29507 0-7.01121-2.04124-13.08421-6.14908-18.23169-4.09515-5.13479-10.3203-7.70852-18.67543-7.70852-8.34245 0-14.5676 2.57373-18.67543 7.70852-4.09515 5.14748-6.14907 11.22048-6.14907 18.23169 0 7.138 2.05392 13.23635 6.14907 18.29507 4.10784 5.0714 10.33298 7.6071 18.67543 7.6071 8.35513 0 14.58028-2.5357 18.67543-7.6071zm-18.67543-43.96904zm59.69038 2.07928c-2.2948-1.2932-4.90658-1.93981-7.848-1.93981-6.38996 0-11.4994 2.37088-15.31562 7.12532-3.81623 4.75443-5.73068 11.28386-5.73068 19.5756 0 7.1887 1.9398 13.07153 5.81943 17.67383 3.87962 4.58962 8.65942 6.88442 14.33938 6.88442 3.43588 0 6.32657-.65928 8.64674-1.96516 2.30749-1.30589 4.37408-3.39784 6.1871-6.28854v6.73228h12.34887v-65.61123H217.1979v23.1763c-1.42-2.28214-3.28373-4.0698-5.56586-5.36301zm3.11891 34.6123c-1.87642 2.66249-4.61497 4.00641-8.20299 4.00641-3.6007 0-6.27586-1.34392-8.05085-4.03176-1.7623-2.68784-2.6498-6.27586-2.6498-10.76405 0-4.15855.87481-7.64514 2.61177-10.45976 1.73695-2.80195 4.46283-4.20926 8.17763-4.20926 2.43427 0 4.57694.77338 6.41532 2.32016 3.0048 2.54838 4.50087 6.80836 4.50087 12.7419 0 4.25997-.93821 7.7212-2.80195 10.39636zm46.97384-53.11023c-.6466-.05072-1.38195-.07607-2.1807-.07607-7.04924 0-11.48672 1.45802-13.3251 4.37408-1.76231 1.96517-2.63713 5.5405-2.63713 10.73869v3.11891h-6.94782v8.9637h7.08728v39.17656h12.65315v-39.17656h8.34245v-8.9637h-8.34245v-4.09516c0-.95088.31696-1.8257.96356-2.61177.63393-.78606 1.80035-1.15374 3.47391-1.1157 1.68624.0507 2.87802.1141 3.58802.20285v-10.34565c-1.12839-.08875-2.01588-.15215-2.67517-.19018zm23.26505 66.29587v-65.69998H272.286v65.69998zm42.7519-12.91939c-1.99052 2.63713-4.84318 3.96837-8.55798 3.96837-3.7148 0-6.58015-1.33124-8.58335-3.96837-2.0032-2.6498-3.0048-6.40264-3.0048-11.28386 0-4.86855 1.0016-8.62138 3.0048-11.25851 2.0032-2.62445 4.86854-3.94301 8.58335-3.94301 3.7148 0 6.56746 1.31856 8.55798 3.943 1.99053 2.63714 2.97945 6.38997 2.97945 11.25852 0 4.88122-.98892 8.63406-2.97945 11.28386zm10.15548 7.01121c4.10784-5.05872 6.16175-11.15708 6.16175-18.29507 0-7.01121-2.05391-13.08421-6.16175-18.23169-4.09515-5.13479-10.3203-7.70852-18.67543-7.70852-8.34245 0-14.5676 2.57373-18.67543 7.70852-4.09516 5.14748-6.14907 11.22048-6.14907 18.23169 0 7.138 2.05392 13.23635 6.14907 18.29507 4.10783 5.0714 10.33298 7.6071 18.67543 7.6071 8.35513 0 14.58028-2.5357 18.67543-7.6071zm-18.67543-43.96904zm56.83772 1.29321l-6.99854 34.8532-7.58174-34.8532h-13.64206l13.64206 48.58401h13.19832l7.70853-35.38569 7.61978 35.3857h13.05885l14.08582-48.58402h-13.23636l-7.58174 34.99266-7.39157-34.99266zm60.5652 36.64087c-1.86375-2.19338-2.80196-5.03337-2.80196-8.51996 0-4.298 1.2425-7.41692 3.74016-9.35673 1.67356-1.30588 3.58802-1.95249 5.75604-1.95249 2.67516 0 4.93194 1.0016 6.77032 3.0048 1.85106 2.00321 2.76391 4.8939 2.76391 8.6721 0 3.38516-.81142 6.1364-2.4216 8.26638-1.62284 2.11731-3.84158 3.1823-6.66888 3.1823-2.87802 0-5.26158-1.10302-7.138-3.2964zm15.07473-36.41266h12.65314c-.44375-5.10943-2.44695-9.20459-6.0096-12.28546-3.57535-3.0682-8.35514-4.61498-14.35207-4.61498-4.17123 0-7.73389.9509-10.72601 2.85267-2.97945 1.90177-5.40104 4.41211-7.23943 7.53103-2.14266 3.66408-3.58801 8.24102-4.32336 13.73081-.4184 3.09356-.62125 7.09996-.62125 12.0319 0 8.41852 1.49606 15.27759 4.50087 20.60256 3.85426 6.79568 9.86387 10.2062 18.00347 10.2062 7.58174 0 13.16028-2.3075 16.76097-6.90979 3.58802-4.6023 5.38837-9.92727 5.38837-15.96223 0-6.06032-1.83839-11.0303-5.50247-14.93527-3.66409-3.8923-8.36781-5.83211-14.11117-5.83211-2.67517 0-5.04605.43106-7.12532 1.2932-2.07927.86214-3.90498 2.23142-5.48979 4.09516.36768-4.98265 1.01428-8.76085 1.96517-11.3219 1.74963-4.62765 4.69104-6.94782 8.82423-6.94782 2.76392 0 4.83051 1.01428 6.19979 3.03016.79875 1.2425 1.20446 2.39624 1.20446 3.43587z"/></svg>
