<svg width="296.144" height="73.049" viewBox="0 0 296.144 73.049" xmlns="http://www.w3.org/2000/svg"><g id="svgGroup" stroke-linecap="round" fill-rule="evenodd" font-size="9pt" stroke="#000" stroke-width="0.25mm" fill="#000" style="stroke:#000;stroke-width:0.25mm;fill:#000"><path d="M 0 0.977 L 12.109 0.977 L 35.352 58.985 L 58.594 0.977 L 70.752 0.977 L 70.752 72.071 L 61.377 72.071 L 61.377 44.386 L 62.256 14.503 L 38.916 72.071 L 31.738 72.071 L 8.447 14.649 L 9.375 44.386 L 9.375 72.071 L 0 72.071 L 0 0.977 Z M 295.996 21.534 L 286.572 21.534 A 16.286 16.286 0 0 0 286.019 17.173 A 11.848 11.848 0 0 0 282.471 11.402 A 13.451 13.451 0 0 0 277.254 8.553 Q 275.201 7.938 272.736 7.775 A 27.804 27.804 0 0 0 270.898 7.716 Q 263.965 7.716 260.083 10.767 A 9.916 9.916 0 0 0 256.251 18.042 A 14.08 14.08 0 0 0 256.201 19.239 A 8.951 8.951 0 0 0 259.177 25.964 A 12.603 12.603 0 0 0 259.888 26.588 Q 262.997 29.121 269.789 31.289 A 78.891 78.891 0 0 0 272.437 32.081 Q 278.229 33.708 282.373 35.555 A 36.633 36.633 0 0 1 286.304 37.574 A 26.017 26.017 0 0 1 290.066 40.286 Q 292.178 42.135 293.536 44.275 A 16.107 16.107 0 0 1 293.726 44.581 A 16.649 16.649 0 0 1 295.907 50.756 A 21.644 21.644 0 0 1 296.143 54.005 Q 296.143 62.647 289.404 67.848 Q 282.666 73.048 271.387 73.048 Q 264.063 73.048 257.715 70.24 A 26.476 26.476 0 0 1 252.402 67.152 A 20.817 20.817 0 0 1 247.925 62.55 A 18.768 18.768 0 0 1 244.482 51.466 L 253.906 51.466 A 14.01 14.01 0 0 0 254.677 56.213 A 11.929 11.929 0 0 0 258.667 61.646 A 16.542 16.542 0 0 0 264.628 64.561 Q 267.656 65.382 271.387 65.382 A 29.197 29.197 0 0 0 275.687 65.086 Q 280.045 64.436 282.764 62.354 A 9.653 9.653 0 0 0 286.657 55.374 A 12.794 12.794 0 0 0 286.719 54.102 A 11.931 11.931 0 0 0 286.246 50.653 A 9.062 9.062 0 0 0 283.057 46.021 A 17.328 17.328 0 0 0 280.567 44.443 Q 277.783 42.957 273.365 41.491 A 97.523 97.523 0 0 0 269.775 40.382 A 76.133 76.133 0 0 1 263.193 38.183 Q 256.084 35.415 252.222 31.861 A 16.667 16.667 0 0 1 247.743 25.327 A 17.047 17.047 0 0 1 246.729 19.386 Q 246.729 10.987 253.442 5.494 A 23.562 23.562 0 0 1 263.336 0.79 A 34.301 34.301 0 0 1 270.898 0.001 A 32.365 32.365 0 0 1 278.233 0.8 A 26.353 26.353 0 0 1 283.96 2.833 A 22.784 22.784 0 0 1 289.861 6.953 A 20.38 20.38 0 0 1 292.847 10.645 A 19.977 19.977 0 0 1 295.996 21.534 Z M 175.732 72.071 L 156.055 72.071 L 156.055 0.977 L 176.123 0.977 A 35.659 35.659 0 0 1 185.342 2.127 A 29.679 29.679 0 0 1 192.529 5.079 A 27.74 27.74 0 0 1 203.54 16.749 A 35.446 35.446 0 0 1 207.061 28.181 A 45.253 45.253 0 0 1 207.471 34.132 L 207.471 38.673 Q 207.471 48.731 203.589 56.3 A 27.305 27.305 0 0 1 192.505 67.921 A 32.013 32.013 0 0 1 181.483 71.624 A 41.308 41.308 0 0 1 175.732 72.071 Z M 141.992 34.327 L 141.992 38.819 A 52.539 52.539 0 0 1 141.27 47.742 A 38.392 38.392 0 0 1 138.477 57.057 A 29.42 29.42 0 0 1 134.072 64.108 A 24.73 24.73 0 0 1 128.516 68.946 A 26.243 26.243 0 0 1 117.197 72.844 A 33.257 33.257 0 0 1 113.477 73.048 A 29.087 29.087 0 0 1 104.516 71.706 A 25.698 25.698 0 0 1 98.584 68.922 A 26.573 26.573 0 0 1 89.693 59.456 A 32.814 32.814 0 0 1 88.501 57.154 A 38.071 38.071 0 0 1 85.423 46.943 A 50.383 50.383 0 0 1 84.814 39.454 L 84.814 34.327 A 50.218 50.218 0 0 1 85.651 24.955 A 38.458 38.458 0 0 1 88.379 16.212 A 29.878 29.878 0 0 1 92.92 8.992 A 25.278 25.278 0 0 1 98.462 4.176 A 26.547 26.547 0 0 1 111.309 0.066 A 32.447 32.447 0 0 1 113.379 0.001 Q 121.924 0.001 128.442 4.127 A 25.667 25.667 0 0 1 137.037 13.253 A 32.361 32.361 0 0 1 138.477 16.09 A 39.162 39.162 0 0 1 141.366 26.008 A 52.924 52.924 0 0 1 141.992 34.327 Z M 231.689 0.977 L 231.689 72.071 L 222.314 72.071 L 222.314 0.977 L 231.689 0.977 Z M 176.367 8.692 L 165.43 8.692 L 165.43 64.405 L 175.293 64.405 A 27.992 27.992 0 0 0 182.32 63.572 A 19.416 19.416 0 0 0 192.163 57.667 A 21.969 21.969 0 0 0 196.733 49.35 Q 198.193 44.606 198.193 38.477 L 198.193 34.327 A 41.512 41.512 0 0 0 197.581 26.961 Q 196.327 20.015 192.505 15.504 A 18.739 18.739 0 0 0 181.439 9.182 A 27.764 27.764 0 0 0 176.367 8.692 Z M 132.666 39.503 L 132.666 34.229 A 50.57 50.57 0 0 0 132.17 26.9 Q 131.625 23.185 130.479 20.165 A 21.595 21.595 0 0 0 127.588 14.82 Q 122.51 8.058 113.379 8.058 A 18.706 18.706 0 0 0 106.783 9.174 A 16.332 16.332 0 0 0 99.39 14.82 A 23.472 23.472 0 0 0 95.783 22.027 Q 94.221 27.026 94.141 33.595 L 94.141 38.819 Q 94.141 51.075 99.292 58.082 A 16.351 16.351 0 0 0 111.146 64.965 A 21.456 21.456 0 0 0 113.477 65.089 A 19.886 19.886 0 0 0 119.682 64.168 A 15.809 15.809 0 0 0 127.539 58.473 Q 132.52 51.856 132.666 39.503 Z" vector-effect="non-scaling-stroke"/></g></svg>