<?xml version="1.0" encoding="UTF-8" standalone="no"?>
<svg
   version="1.1"
   id="svg4"
   width="35.279297"
   height="9.0878906"
   xmlns="http://www.w3.org/2000/svg"
   xmlns:svg="http://www.w3.org/2000/svg">
  <defs
     id="defs8" />
  <g
     aria-label="MOM5"
     id="text2"
     transform="translate(-1.171875,8.90625)">
    <path
       d="M 8.9414063,0 H 7.78125 V -7.5175781 L 5.3554687,-2.4023438 H 4.6640625 L 2.2558594,-7.5175781 V 0 H 1.171875 v -8.7246094 h 1.5820313 l 2.3261718,4.8574219 2.25,-4.8574219 h 1.6113282 z"
       id="path10" />
    <path
       d="m 17.789062,-7.7226562 q 0.533204,0.5859375 0.814454,1.4355468 0.287109,0.8496094 0.287109,1.9277344 0,1.078125 -0.292969,1.9335937 -0.287109,0.8496094 -0.808594,1.4179688 -0.539062,0.59179687 -1.277343,0.890625 -0.732422,0.29882812 -1.675781,0.29882812 -0.919922,0 -1.675782,-0.30468749 -0.75,-0.30468751 -1.277343,-0.88476563 -0.527344,-0.5800781 -0.814454,-1.4238281 -0.28125,-0.84375 -0.28125,-1.9277344 0,-1.0664062 0.28125,-1.9101562 0.28125,-0.8496094 0.820313,-1.453125 0.515625,-0.5742188 1.277344,-0.8789063 0.767578,-0.3046875 1.669922,-0.3046875 0.9375,0 1.68164,0.3105469 0.75,0.3046875 1.271484,0.8730469 z m -0.105468,3.3632812 q 0,-1.6992187 -0.761719,-2.6191406 -0.761719,-0.9257813 -2.080078,-0.9257813 -1.330078,0 -2.091797,0.9257813 -0.755859,0.9199219 -0.755859,2.6191406 0,1.7167969 0.773437,2.6308594 0.773438,0.9082031 2.074219,0.9082031 1.300781,0 2.068359,-0.9082031 0.773438,-0.9140625 0.773438,-2.6308594 z"
       id="path12" />
    <path
       d="m 28.5,0 h -1.160156 v -7.5175781 l -2.425782,5.1152343 H 24.222656 L 21.814453,-7.5175781 V 0 H 20.730469 V -8.7246094 H 22.3125 l 2.326172,4.8574219 2.25,-4.8574219 H 28.5 Z"
       id="path14" />
    <path
       d="m 36.451172,-2.7714844 q 0,0.609375 -0.222656,1.1660157 -0.222657,0.5566406 -0.609375,0.93749995 -0.421875,0.41015625 -1.007813,0.6328125 -0.580078,0.21679687 -1.347656,0.21679687 -0.714844,0 -1.376953,-0.15234374 -0.66211,-0.14648438 -1.119141,-0.35742188 v -1.2363281 h 0.08203 q 0.480469,0.3046875 1.125,0.5214844 0.644532,0.21093745 1.265625,0.21093745 0.416016,0 0.802735,-0.1171875 0.392578,-0.11718745 0.697265,-0.41015625 0.257813,-0.2519531 0.386719,-0.6035156 0.134766,-0.3515625 0.134766,-0.8144532 0,-0.4511718 -0.158203,-0.7617187 -0.152344,-0.3105469 -0.427735,-0.4980469 -0.304687,-0.2226562 -0.74414,-0.3105468 -0.433594,-0.09375 -0.972657,-0.09375 -0.515625,0 -0.996093,0.070312 -0.47461,0.070312 -0.820313,0.140625 v -4.4941407 h 5.25 v 1.0253907 h -4.119141 v 2.3203125 q 0.251954,-0.023437 0.515625,-0.035156 0.263672,-0.011719 0.457032,-0.011719 0.708984,0 1.242187,0.1230468 0.533203,0.1171875 0.978516,0.421875 0.46875,0.3222657 0.726562,0.8320313 0.257813,0.5097656 0.257813,1.2773437 z"
       id="path16" />
  </g>
</svg>
