<?xml version="1.0" encoding="UTF-8" standalone="no"?>
<svg
   version="1.1"
   id="svg4"
   width="41.179691"
   height="8.9648438"
   xmlns="http://www.w3.org/2000/svg"
   xmlns:svg="http://www.w3.org/2000/svg">
  <defs
     id="defs8" />
  <g
     aria-label="monica"
     id="text2"
     transform="translate(-1.0839844,8.7832031)">
    <path
       d="M 10.634766,0 H 9.5332031 v -3.7265625 q 0,-0.421875 -0.041016,-0.8144531 Q 9.4570313,-4.9335937 9.3339844,-5.1679687 9.1992188,-5.4199219 8.9472656,-5.5488281 8.6953125,-5.6777344 8.2207031,-5.6777344 q -0.4628906,0 -0.9257812,0.234375 -0.4628907,0.2285157 -0.9257813,0.5859375 0.017578,0.1347657 0.029297,0.3164063 0.011719,0.1757812 0.011719,0.3515625 V 0 H 5.3085937 v -3.7265625 q 0,-0.4335937 -0.041016,-0.8203125 -0.035156,-0.3925781 -0.1582031,-0.6269531 -0.1347656,-0.2519531 -0.3867188,-0.375 -0.2519531,-0.1289063 -0.7265624,-0.1289063 -0.4511719,0 -0.9082032,0.2226563 -0.4511718,0.2226562 -0.9023437,0.5683594 V 0 H 1.0839844 v -6.5449219 h 1.1015625 v 0.7265625 q 0.515625,-0.4277343 1.0253906,-0.6679687 0.515625,-0.2402344 1.0957031,-0.2402344 0.6679688,0 1.1308594,0.28125 0.46875,0.28125 0.6972656,0.7792969 0.6679688,-0.5625 1.21875,-0.8085938 0.5507813,-0.2519531 1.1777344,-0.2519531 1.078125,0 1.587891,0.65625 0.515625,0.6503906 0.515625,1.8222656 z"
       id="path10" />
    <path
       d="m 18.333984,-3.2695313 q 0,1.5996094 -0.820312,2.52539068 -0.820313,0.92578124 -2.197266,0.92578124 -1.388672,0 -2.208984,-0.92578124 -0.814453,-0.92578128 -0.814453,-2.52539068 0,-1.5996093 0.814453,-2.5253906 0.820312,-0.9316406 2.208984,-0.9316406 1.376953,0 2.197266,0.9316406 0.820312,0.9257813 0.820312,2.5253906 z m -1.136718,0 q 0,-1.2714843 -0.498047,-1.8867187 -0.498047,-0.6210937 -1.382813,-0.6210937 -0.896484,0 -1.394531,0.6210937 -0.492187,0.6152344 -0.492187,1.8867187 0,1.2304688 0.498046,1.8691407 0.498047,0.63281248 1.388672,0.63281248 0.878906,0 1.376953,-0.62695308 0.503907,-0.6328126 0.503907,-1.8750001 z"
       id="path12" />
    <path
       d="m 25.511719,0 h -1.101563 v -3.7265625 q 0,-0.4511719 -0.05273,-0.84375 -0.05273,-0.3984375 -0.19336,-0.6210937 -0.146484,-0.2460938 -0.421875,-0.3632813 -0.27539,-0.1230469 -0.714843,-0.1230469 -0.451172,0 -0.94336,0.2226563 -0.492187,0.2226562 -0.943359,0.5683594 V 0 h -1.101563 v -6.5449219 h 1.101563 v 0.7265625 q 0.515625,-0.4277343 1.066406,-0.6679687 0.550781,-0.2402344 1.13086,-0.2402344 1.060546,0 1.617187,0.6386719 0.556641,0.6386719 0.556641,1.8398437 z"
       id="path14" />
    <path
       d="m 28.816406,-7.640625 h -1.242187 v -1.1425781 h 1.242187 z M 28.746094,0 h -1.101563 v -6.5449219 h 1.101563 z"
       id="path16" />
    <path
       d="M 35.765625,-0.41015625 Q 35.214844,-0.14648437 34.716797,0 q -0.492188,0.14648437 -1.048828,0.14648437 -0.708985,0 -1.300782,-0.20507812 -0.591796,-0.2109375 -1.013671,-0.6328125 -0.427735,-0.42187495 -0.66211,-1.06640625 -0.234375,-0.6445313 -0.234375,-1.5058594 0,-1.6054687 0.878906,-2.5195312 0.884766,-0.9140625 2.332032,-0.9140625 0.5625,0 1.101562,0.1582031 0.544922,0.1582031 0.996094,0.3867188 v 1.2246093 h -0.05859 q -0.503906,-0.3925781 -1.042969,-0.6035156 -0.533203,-0.2109375 -1.042968,-0.2109375 -0.9375,0 -1.482422,0.6328125 -0.539063,0.6269531 -0.539063,1.8457031 0,1.1835938 0.527344,1.8222657 0.533203,0.63281245 1.494141,0.63281245 0.333984,0 0.679687,-0.0878906 0.345703,-0.0878906 0.621094,-0.22851565 0.240234,-0.1230469 0.451172,-0.2578125 0.210937,-0.140625 0.333984,-0.2402344 h 0.05859 z"
       id="path18" />
    <path
       d="m 42.263672,0 h -1.095703 v -0.69726562 q -0.146485,0.0996094 -0.398438,0.28124999 -0.246094,0.17578125 -0.480469,0.28125001 Q 40.013672,0 39.65625,0.08789062 q -0.357422,0.09375 -0.837891,0.09375 -0.884765,0 -1.5,-0.5859375 -0.615234,-0.5859375 -0.615234,-1.49414062 0,-0.7441406 0.316406,-1.2011719 0.322266,-0.4628906 0.914063,-0.7265625 0.597656,-0.2636718 1.435547,-0.3574218 0.83789,-0.09375 1.798828,-0.140625 v -0.1699219 q 0,-0.375 -0.134766,-0.6210938 -0.128906,-0.2460937 -0.375,-0.3867187 -0.234375,-0.1347656 -0.5625,-0.1816406 -0.328125,-0.046875 -0.685547,-0.046875 -0.433594,0 -0.966797,0.1171875 -0.533203,0.1113281 -1.101562,0.328125 h -0.05859 v -1.1191407 q 0.322266,-0.087891 0.931641,-0.1933593 0.609375,-0.1054688 1.201172,-0.1054688 0.691406,0 1.201171,0.1171875 0.515625,0.1113281 0.890625,0.3867188 0.369141,0.2695312 0.5625,0.6972656 0.19336,0.4277344 0.19336,1.0605469 z m -1.095703,-1.6113281 v -1.8222657 q -0.503907,0.029297 -1.189453,0.087891 -0.679688,0.058594 -1.078125,0.1699218 -0.47461,0.1347657 -0.767579,0.421875 -0.292968,0.28125 -0.292968,0.7792969 0,0.5625 0.339843,0.8496094 0.339844,0.28125 1.03711,0.28125 0.580078,0 1.060547,-0.2226562 0.480468,-0.2285157 0.890625,-0.5449222 z"
       id="path20" />
  </g>
</svg>
