<svg width="881" height="96.4" viewBox="0 0 881 96.4" xmlns="http://www.w3.org/2000/svg"><g id="svgGroup" stroke-linecap="round" fill-rule="evenodd" font-size="9pt" stroke="#000" stroke-width="0.25mm" fill="#000" style="stroke:#000;stroke-width:0.25mm;fill:#000"><path d="M 38.9 67.6 L 32.8 67.6 Q 32.034 65.686 30.77 62.834 A 299.787 299.787 0 0 0 29.95 61 Q 28.1 56.9 25.8 52.05 A 1636.12 1636.12 0 0 1 21.4 42.693 A 1781.552 1781.552 0 0 1 21.1 42.05 Q 18.7 36.9 16.5 32.4 Q 14.3 27.9 12.6 24.5 Q 11.034 21.369 10.232 19.934 A 28.827 28.827 0 0 0 10.1 19.7 Q 8.8 32.2 8.05 46.85 Q 7.3 61.5 6.7 77.6 L 0 77.6 Q 0.9 58.7 2.05 41.4 Q 3.2 24.1 4.9 8.3 L 10.9 8.3 Q 13.9 13.3 17.3 19.85 A 430.387 430.387 0 0 1 23.841 33.01 A 467.839 467.839 0 0 1 24.05 33.45 Q 27.4 40.5 30.55 47.35 A 835.515 835.515 0 0 1 33.338 53.475 Q 34.639 56.365 35.778 58.964 A 500.711 500.711 0 0 1 36.1 59.7 A 584.522 584.522 0 0 1 38.601 54.055 Q 40.026 50.882 41.65 47.35 Q 44.8 40.5 48.15 33.45 A 432.655 432.655 0 0 1 54.688 20.26 A 397.491 397.491 0 0 1 54.9 19.85 A 260.343 260.343 0 0 1 58 14.05 Q 59.706 10.956 61.3 8.3 L 67 8.3 Q 68.7 24.1 69.85 41.4 Q 71 58.7 71.9 77.6 L 65 77.6 Q 64.4 61.5 63.65 46.85 Q 62.9 32.2 61.6 19.7 A 39.225 39.225 0 0 0 61.144 20.525 Q 60.375 21.95 59.1 24.5 Q 57.639 27.422 55.809 31.156 A 1404.44 1404.44 0 0 0 55.2 32.4 Q 53 36.9 50.6 42.05 A 1653.653 1653.653 0 0 1 46.188 51.443 A 1518.21 1518.21 0 0 1 45.9 52.05 Q 43.6 56.9 41.75 61 Q 40.334 64.139 39.415 66.34 A 93.148 93.148 0 0 0 38.9 67.6 Z M 602.6 77.6 L 596.1 77.6 L 596.1 1.2 L 602.6 0 L 602.6 27.4 Q 605.8 26.2 609.1 25.55 Q 612.4 24.9 615.7 24.9 A 35.063 35.063 0 0 1 619.919 25.139 Q 622.07 25.4 623.886 25.947 A 17.638 17.638 0 0 1 625.7 26.6 Q 629.7 28.3 632.1 31.45 Q 634.5 34.6 635.45 39 A 41.34 41.34 0 0 1 636.218 44.235 A 52.925 52.925 0 0 1 636.4 48.7 L 636.4 77.6 L 629.9 77.6 L 629.9 50.8 A 67.465 67.465 0 0 0 629.795 46.914 Q 629.619 43.875 629.15 41.5 A 19.941 19.941 0 0 0 628.376 38.645 Q 627.689 36.726 626.65 35.3 Q 624.9 32.9 622 31.85 Q 619.1 30.8 614.7 30.8 A 21.987 21.987 0 0 0 612.593 30.906 A 27.505 27.505 0 0 0 611.05 31.1 Q 609.1 31.4 607.4 31.75 Q 605.7 32.1 604.35 32.5 A 40.083 40.083 0 0 0 603.805 32.665 Q 603.073 32.894 602.731 33.04 A 2.45 2.45 0 0 0 602.6 33.1 L 602.6 77.6 Z M 322.5 11.4 L 320.1 17.1 A 20.938 20.938 0 0 0 316.666 15.201 A 28.59 28.59 0 0 0 313.05 13.9 A 30.792 30.792 0 0 0 306.532 12.78 A 36.49 36.49 0 0 0 304.1 12.7 A 29.172 29.172 0 0 0 300.562 12.906 A 23.104 23.104 0 0 0 298.05 13.35 A 14.474 14.474 0 0 0 295.23 14.317 A 11.831 11.831 0 0 0 293.3 15.45 Q 291.3 16.9 290.15 19.1 Q 289.033 21.238 289.001 24.225 A 16.508 16.508 0 0 0 289 24.4 A 14.171 14.171 0 0 0 289.198 26.835 Q 289.487 28.494 290.2 29.8 A 11.592 11.592 0 0 0 293.22 33.346 A 13.466 13.466 0 0 0 293.55 33.6 A 23.951 23.951 0 0 0 296.206 35.305 A 30.996 30.996 0 0 0 298.6 36.5 Q 301.5 37.8 304.9 39.2 A 205.829 205.829 0 0 1 310.679 41.697 A 177.649 177.649 0 0 1 312.65 42.6 A 30.076 30.076 0 0 1 316.746 44.895 A 24.914 24.914 0 0 1 319 46.6 Q 321.7 48.9 323.3 52.2 Q 324.732 55.154 324.882 59.311 A 27.422 27.422 0 0 1 324.9 60.3 A 21.425 21.425 0 0 1 324.195 65.963 A 14.931 14.931 0 0 1 318.35 74.4 A 23.032 23.032 0 0 1 311.188 77.774 Q 306.55 79.1 300.6 79.1 A 55.572 55.572 0 0 1 296.548 78.959 A 42.328 42.328 0 0 1 293.3 78.6 A 54.474 54.474 0 0 1 290.178 78.038 A 39.763 39.763 0 0 1 287.4 77.35 Q 285.409 76.776 283.888 76.172 A 23.717 23.717 0 0 1 283 75.8 Q 281.331 75.058 280.349 74.488 A 12.181 12.181 0 0 1 280.2 74.4 L 282.4 68.5 A 18.871 18.871 0 0 0 283.093 68.895 Q 283.931 69.35 285.1 69.9 A 28.048 28.048 0 0 0 286.702 70.59 Q 287.53 70.919 288.465 71.238 A 47.732 47.732 0 0 0 289.1 71.45 Q 291.4 72.2 294.3 72.7 A 33.712 33.712 0 0 0 297.752 73.104 A 43.757 43.757 0 0 0 300.7 73.2 A 36.038 36.038 0 0 0 305.411 72.912 Q 307.809 72.595 309.781 71.93 A 15.321 15.321 0 0 0 313.3 70.25 A 9.575 9.575 0 0 0 317.478 63.971 A 15.622 15.622 0 0 0 317.8 60.7 A 16.489 16.489 0 0 0 317.579 57.922 Q 317.234 55.904 316.35 54.35 Q 314.9 51.8 312.5 50.05 A 24.047 24.047 0 0 0 308.869 47.88 A 28.904 28.904 0 0 0 307 47.05 Q 303.9 45.8 300.5 44.4 Q 296.2 42.7 292.8 40.9 A 29.722 29.722 0 0 1 289.38 38.797 A 23.481 23.481 0 0 1 287 36.85 Q 284.6 34.6 283.35 31.7 A 14.8 14.8 0 0 1 282.357 28.229 A 20.536 20.536 0 0 1 282.1 24.9 A 21.353 21.353 0 0 1 282.766 19.406 A 14.628 14.628 0 0 1 288 11.4 Q 292.823 7.64 300.718 6.953 A 42.523 42.523 0 0 1 304.4 6.8 Q 307.2 6.8 309.9 7.2 A 44.866 44.866 0 0 1 313.138 7.798 A 37.877 37.877 0 0 1 314.95 8.25 A 41.662 41.662 0 0 1 317.6 9.075 A 33.463 33.463 0 0 1 319.25 9.7 A 22.183 22.183 0 0 1 320.727 10.367 Q 321.728 10.866 322.5 11.4 Z M 584.2 11.4 L 582 17.3 Q 580.086 16.152 577.381 15.032 A 58.123 58.123 0 0 0 575.65 14.35 A 20.518 20.518 0 0 0 572.072 13.385 Q 570.274 13.059 568.196 12.952 A 40.836 40.836 0 0 0 566.1 12.9 A 32.512 32.512 0 0 0 560.548 13.352 A 23.825 23.825 0 0 0 554.75 15.1 Q 549.9 17.3 546.6 21.3 A 25.927 25.927 0 0 0 542.451 28.465 A 31.095 31.095 0 0 0 541.65 30.8 A 38.759 38.759 0 0 0 540.242 38.046 A 49.199 49.199 0 0 0 540 43 A 49.75 49.75 0 0 0 540.439 49.757 A 38.147 38.147 0 0 0 541.65 55.45 A 29.514 29.514 0 0 0 543.918 61.027 A 23.983 23.983 0 0 0 546.5 64.9 Q 549.7 68.8 554.35 70.9 A 23.383 23.383 0 0 0 560.69 72.705 A 30.366 30.366 0 0 0 565 73 A 57.778 57.778 0 0 0 569.648 72.824 Q 571.897 72.642 573.822 72.272 A 27.347 27.347 0 0 0 576.05 71.75 A 54.963 54.963 0 0 0 578.562 70.984 Q 580.911 70.201 582.436 69.398 A 13.72 13.72 0 0 0 582.8 69.2 L 584.7 75 A 4.829 4.829 0 0 1 584.242 75.285 Q 583.756 75.555 583.021 75.862 A 25.203 25.203 0 0 1 582.3 76.15 Q 581.135 76.596 579.546 77.065 A 66.597 66.597 0 0 1 578 77.5 A 38.659 38.659 0 0 1 575.387 78.101 Q 574.004 78.372 572.448 78.589 A 65.222 65.222 0 0 1 572 78.65 Q 568.6 79.1 564.4 79.1 Q 557.7 79.1 551.95 76.7 Q 546.2 74.3 541.95 69.7 A 31.012 31.012 0 0 1 537.004 62.454 A 38.845 38.845 0 0 1 535.25 58.35 A 39.798 39.798 0 0 1 533.269 50.139 A 53.504 53.504 0 0 1 532.8 42.9 Q 532.8 34.2 535.45 27.45 A 37.637 37.637 0 0 1 538.985 20.537 A 30.98 30.98 0 0 1 542.5 16.1 Q 546.9 11.5 552.7 9.15 Q 558.5 6.8 564.8 6.8 Q 568.7 6.8 571.9 7.3 A 48.456 48.456 0 0 1 574.547 7.785 Q 576.15 8.128 577.5 8.55 Q 579.338 9.124 580.765 9.698 A 27.524 27.524 0 0 1 581.6 10.05 A 30.215 30.215 0 0 1 582.584 10.504 Q 583.476 10.937 584.065 11.312 A 7.904 7.904 0 0 1 584.2 11.4 Z M 775 75 L 775 71.6 A 6.238 6.238 0 0 1 774.566 71.927 Q 774.025 72.303 773.2 72.75 Q 772 73.4 770.25 74.1 Q 768.5 74.8 766.25 75.25 Q 764 75.7 761.2 75.7 Q 756.7 75.7 752.5 74.3 Q 748.3 72.9 745.15 69.9 A 19.687 19.687 0 0 1 741.701 65.466 A 25.583 25.583 0 0 1 740.1 62.15 A 24.731 24.731 0 0 1 738.752 57.336 Q 738.2 54.266 738.2 50.6 Q 738.2 45.1 739.9 40.4 Q 741.6 35.7 744.75 32.25 A 21.934 21.934 0 0 1 752.149 26.981 A 25.216 25.216 0 0 1 752.45 26.85 A 24.029 24.029 0 0 1 759.083 25.11 A 30.295 30.295 0 0 1 762.7 24.9 Q 769.9 24.9 774.25 25.85 Q 777.381 26.534 779.709 27.192 A 49.787 49.787 0 0 1 781.4 27.7 L 781.4 74.9 Q 781.4 86.5 775.4 91.45 A 18.834 18.834 0 0 1 769.518 94.655 Q 764.484 96.4 757.3 96.4 Q 752.3 96.4 748.25 95.65 A 64.036 64.036 0 0 1 745.374 95.052 Q 743.961 94.723 742.723 94.355 A 34.495 34.495 0 0 1 741.3 93.9 L 742.6 88 A 18.363 18.363 0 0 0 744.457 88.721 Q 746.427 89.375 749.15 89.9 Q 753.3 90.7 757.5 90.7 A 37.771 37.771 0 0 0 762.215 90.427 Q 767.851 89.715 770.85 87.15 A 10.368 10.368 0 0 0 773.687 83.077 Q 775 79.838 775 75 Z M 199.4 8.3 L 250.6 8.3 L 250.6 14.2 L 228.4 14.2 L 228.4 77.6 L 221.6 77.6 L 221.6 14.2 L 199.4 14.2 L 199.4 8.3 Z M 838.7 53.1 L 802.4 53.1 A 34.319 34.319 0 0 0 803.026 58.798 Q 803.645 61.867 804.857 64.3 A 16.299 16.299 0 0 0 807.1 67.7 A 13.507 13.507 0 0 0 813.02 71.603 Q 815.271 72.389 818.047 72.659 A 31.573 31.573 0 0 0 821.1 72.8 A 45.97 45.97 0 0 0 824.198 72.702 Q 827.263 72.495 829.357 71.845 A 13.293 13.293 0 0 0 829.5 71.8 Q 832.6 70.8 834 70.1 L 835.2 75.7 A 8.872 8.872 0 0 1 834.347 76.119 Q 832.837 76.775 829.95 77.6 Q 826.1 78.7 820.9 78.7 A 38.681 38.681 0 0 1 815.705 78.37 Q 812.15 77.888 809.3 76.7 A 21.952 21.952 0 0 1 803.964 73.575 A 19.406 19.406 0 0 1 801.4 71.1 A 21.755 21.755 0 0 1 797.289 63.804 A 25.626 25.626 0 0 1 796.9 62.55 Q 795.5 57.6 795.5 51.7 Q 795.5 45.378 797.185 40.569 A 24.374 24.374 0 0 1 797.45 39.85 A 29.344 29.344 0 0 1 799.84 34.983 A 23.18 23.18 0 0 1 802.55 31.4 A 20.354 20.354 0 0 1 808.384 26.969 A 19.365 19.365 0 0 1 809.75 26.35 Q 813.8 24.7 818.1 24.7 A 23.513 23.513 0 0 1 824.903 25.637 A 18.192 18.192 0 0 1 833.25 30.9 A 19.005 19.005 0 0 1 837.012 37.324 Q 838.059 40.218 838.526 43.802 A 48.121 48.121 0 0 1 838.9 50 Q 838.9 50.8 838.85 51.6 A 20.408 20.408 0 0 1 838.768 52.561 A 16.896 16.896 0 0 1 838.7 53.1 Z M 104.4 50.8 L 95 50.8 L 95 77.6 L 88.2 77.6 L 88.2 9.6 Q 91.8 8.6 96.65 8.15 A 107.589 107.589 0 0 1 102.18 7.774 A 86.074 86.074 0 0 1 105.7 7.7 Q 120.4 7.7 127.6 13.3 A 18.214 18.214 0 0 1 134.624 26.096 A 26.571 26.571 0 0 1 134.8 29.2 A 27.781 27.781 0 0 1 134.453 33.705 Q 133.947 36.786 132.7 39.25 Q 130.6 43.4 126.7 45.95 A 23.454 23.454 0 0 1 122.062 48.264 Q 119.798 49.111 117.15 49.65 Q 111.5 50.8 104.4 50.8 Z M 163.6 50.8 L 154.2 50.8 L 154.2 77.6 L 147.4 77.6 L 147.4 9.6 Q 151 8.6 155.85 8.15 A 107.589 107.589 0 0 1 161.38 7.774 A 86.074 86.074 0 0 1 164.9 7.7 Q 179.6 7.7 186.8 13.3 A 18.214 18.214 0 0 1 193.824 26.096 A 26.571 26.571 0 0 1 194 29.2 A 27.781 27.781 0 0 1 193.653 33.705 Q 193.147 36.786 191.9 39.25 Q 189.8 43.4 185.9 45.95 A 23.454 23.454 0 0 1 181.262 48.264 Q 178.998 49.111 176.35 49.65 Q 170.7 50.8 163.6 50.8 Z M 455.1 43.8 L 455.1 76.4 Q 454.334 76.63 453.041 76.889 A 55.415 55.415 0 0 1 452.2 77.05 A 152.561 152.561 0 0 1 450.423 77.366 Q 449.206 77.575 447.8 77.8 Q 445.3 78.2 442.25 78.45 Q 439.2 78.7 436 78.7 Q 431.9 78.7 428.45 77.8 A 17.779 17.779 0 0 1 424.512 76.277 A 15.305 15.305 0 0 1 422.45 74.95 Q 419.9 73 418.45 69.95 A 14.121 14.121 0 0 1 417.374 66.621 Q 417.07 65.088 417.013 63.326 A 25.56 25.56 0 0 1 417 62.5 A 18.438 18.438 0 0 1 417.301 59.083 A 13.174 13.174 0 0 1 418.6 55.3 Q 420.2 52.3 423.1 50.35 A 18.438 18.438 0 0 1 427.148 48.325 A 23.743 23.743 0 0 1 430 47.5 A 36.686 36.686 0 0 1 435.273 46.727 A 45.19 45.19 0 0 1 438.7 46.6 A 29.182 29.182 0 0 1 440.696 46.671 A 34.23 34.23 0 0 1 441.65 46.75 A 40.992 40.992 0 0 1 444.468 47.119 A 37.656 37.656 0 0 1 444.65 47.15 Q 445.76 47.341 446.636 47.533 A 28.466 28.466 0 0 1 447.15 47.65 Q 448.183 47.896 448.587 48.093 A 1.685 1.685 0 0 1 448.6 48.1 L 448.6 44.9 Q 448.6 42.2 448.2 39.65 Q 447.8 37.1 446.45 35.05 A 9.315 9.315 0 0 0 443.704 32.357 A 11.604 11.604 0 0 0 442.65 31.75 Q 440.768 30.79 437.972 30.567 A 22.347 22.347 0 0 0 436.2 30.5 A 64.966 64.966 0 0 0 433.223 30.563 Q 430.535 30.687 428.726 31.053 A 13.453 13.453 0 0 0 427.7 31.3 Q 424.951 32.085 423.648 32.582 A 15.434 15.434 0 0 0 423.6 32.6 L 422.7 26.9 Q 424.114 26.235 426.806 25.639 A 50.506 50.506 0 0 1 427.95 25.4 Q 431.5 24.7 436.5 24.7 Q 440.737 24.7 443.904 25.701 A 16.21 16.21 0 0 1 445.15 26.15 A 16.446 16.446 0 0 1 448.541 28.001 A 13.501 13.501 0 0 1 450.9 30.15 A 15.485 15.485 0 0 1 453.831 35.34 A 18.192 18.192 0 0 1 454.1 36.2 Q 455.1 39.7 455.1 43.8 Z M 687.3 43.8 L 687.3 76.4 Q 686.534 76.63 685.241 76.889 A 55.415 55.415 0 0 1 684.4 77.05 A 152.561 152.561 0 0 1 682.623 77.366 Q 681.406 77.575 680 77.8 Q 677.5 78.2 674.45 78.45 Q 671.4 78.7 668.2 78.7 Q 664.1 78.7 660.65 77.8 A 17.779 17.779 0 0 1 656.712 76.277 A 15.305 15.305 0 0 1 654.65 74.95 Q 652.1 73 650.65 69.95 A 14.121 14.121 0 0 1 649.574 66.621 Q 649.27 65.088 649.213 63.326 A 25.56 25.56 0 0 1 649.2 62.5 A 18.438 18.438 0 0 1 649.501 59.083 A 13.174 13.174 0 0 1 650.8 55.3 Q 652.4 52.3 655.3 50.35 A 18.438 18.438 0 0 1 659.348 48.325 A 23.743 23.743 0 0 1 662.2 47.5 A 36.686 36.686 0 0 1 667.473 46.727 A 45.19 45.19 0 0 1 670.9 46.6 A 29.182 29.182 0 0 1 672.896 46.671 A 34.23 34.23 0 0 1 673.85 46.75 A 40.992 40.992 0 0 1 676.668 47.119 A 37.656 37.656 0 0 1 676.85 47.15 Q 677.96 47.341 678.836 47.533 A 28.466 28.466 0 0 1 679.35 47.65 Q 680.383 47.896 680.787 48.093 A 1.685 1.685 0 0 1 680.8 48.1 L 680.8 44.9 Q 680.8 42.2 680.4 39.65 Q 680 37.1 678.65 35.05 A 9.315 9.315 0 0 0 675.904 32.357 A 11.604 11.604 0 0 0 674.85 31.75 Q 672.968 30.79 670.172 30.567 A 22.347 22.347 0 0 0 668.4 30.5 A 64.966 64.966 0 0 0 665.423 30.563 Q 662.735 30.687 660.926 31.053 A 13.453 13.453 0 0 0 659.9 31.3 Q 657.151 32.085 655.848 32.582 A 15.434 15.434 0 0 0 655.8 32.6 L 654.9 26.9 Q 656.314 26.235 659.006 25.639 A 50.506 50.506 0 0 1 660.15 25.4 Q 663.7 24.7 668.7 24.7 Q 672.937 24.7 676.104 25.701 A 16.21 16.21 0 0 1 677.35 26.15 A 16.446 16.446 0 0 1 680.741 28.001 A 13.501 13.501 0 0 1 683.1 30.15 A 15.485 15.485 0 0 1 686.031 35.34 A 18.192 18.192 0 0 1 686.3 36.2 Q 687.3 39.7 687.3 43.8 Z M 409.3 73.1 L 408.4 78.5 A 27.326 27.326 0 0 1 405.675 78.288 Q 404.028 78.072 402.65 77.65 A 11.278 11.278 0 0 1 400.21 76.59 A 9.364 9.364 0 0 1 398.55 75.35 A 9.169 9.169 0 0 1 396.625 72.725 A 11.627 11.627 0 0 1 396.05 71.35 A 13.778 13.778 0 0 1 395.5 69.153 Q 395.312 68.055 395.242 66.786 A 28.737 28.737 0 0 1 395.2 65.2 L 395.2 1.2 L 401.7 0 L 401.7 65 A 21.152 21.152 0 0 0 401.744 66.407 Q 401.792 67.119 401.891 67.722 A 8.434 8.434 0 0 0 402.15 68.85 A 6.336 6.336 0 0 0 402.625 69.995 A 4.568 4.568 0 0 0 403.5 71.15 A 4.856 4.856 0 0 0 404.758 71.998 A 6.645 6.645 0 0 0 405.85 72.4 A 22.396 22.396 0 0 0 407.015 72.686 Q 407.662 72.828 408.393 72.954 A 41.279 41.279 0 0 0 409.3 73.1 Z M 380.646 58.314 A 36.826 36.826 0 0 0 381.2 51.8 Q 381.2 45.7 379.45 40.7 Q 377.7 35.7 374.55 32.15 Q 371.4 28.6 367.1 26.65 A 21.06 21.06 0 0 0 363.748 25.462 A 24.105 24.105 0 0 0 357.6 24.7 A 26.413 26.413 0 0 0 355.603 24.774 A 22.054 22.054 0 0 0 348.1 26.65 Q 343.8 28.6 340.65 32.15 A 23.119 23.119 0 0 0 338.403 35.145 A 27.101 27.101 0 0 0 335.75 40.7 A 29.807 29.807 0 0 0 334.554 45.286 A 36.826 36.826 0 0 0 334 51.8 Q 334 57.9 335.75 62.9 A 28.723 28.723 0 0 0 336.845 65.594 A 23.521 23.521 0 0 0 340.65 71.4 Q 343.8 74.9 348.1 76.85 A 21.06 21.06 0 0 0 351.452 78.038 A 24.105 24.105 0 0 0 357.6 78.8 A 26.413 26.413 0 0 0 359.597 78.726 A 22.054 22.054 0 0 0 367.1 76.85 Q 371.4 74.9 374.55 71.4 A 22.506 22.506 0 0 0 376.898 68.277 A 26.748 26.748 0 0 0 379.45 62.9 A 29.807 29.807 0 0 0 380.646 58.314 Z M 499.3 26.4 L 498 32 A 3.962 3.962 0 0 0 497.534 31.81 Q 496.714 31.525 495.106 31.217 A 46.3 46.3 0 0 0 494.75 31.15 Q 492.354 30.71 488.476 30.7 A 70.229 70.229 0 0 0 488.3 30.7 A 48.621 48.621 0 0 0 485.836 30.759 Q 483.344 30.885 481.607 31.287 A 14.407 14.407 0 0 0 481.55 31.3 A 52.96 52.96 0 0 0 480.518 31.553 Q 479.123 31.911 478.453 32.186 A 3.792 3.792 0 0 0 478.2 32.3 L 478.2 77.6 L 471.7 77.6 L 471.7 28.3 A 27.658 27.658 0 0 1 473.448 27.608 Q 475.434 26.892 478.202 26.155 A 93.114 93.114 0 0 1 478.6 26.05 A 31.934 31.934 0 0 1 482.489 25.305 Q 485.559 24.9 489.3 24.9 A 36.701 36.701 0 0 1 493.535 25.136 A 31.614 31.614 0 0 1 495.35 25.4 Q 498.188 25.898 499.291 26.396 A 4.078 4.078 0 0 1 499.3 26.4 Z M 731.5 26.4 L 730.2 32 A 3.962 3.962 0 0 0 729.734 31.81 Q 728.914 31.525 727.306 31.217 A 46.3 46.3 0 0 0 726.95 31.15 Q 724.554 30.71 720.676 30.7 A 70.229 70.229 0 0 0 720.5 30.7 A 48.621 48.621 0 0 0 718.036 30.759 Q 715.544 30.885 713.807 31.287 A 14.407 14.407 0 0 0 713.75 31.3 A 52.96 52.96 0 0 0 712.718 31.553 Q 711.323 31.911 710.653 32.186 A 3.792 3.792 0 0 0 710.4 32.3 L 710.4 77.6 L 703.9 77.6 L 703.9 28.3 A 27.658 27.658 0 0 1 705.648 27.608 Q 707.634 26.892 710.402 26.155 A 93.114 93.114 0 0 1 710.8 26.05 A 31.934 31.934 0 0 1 714.689 25.305 Q 717.759 24.9 721.5 24.9 A 36.701 36.701 0 0 1 725.735 25.136 A 31.614 31.614 0 0 1 727.55 25.4 Q 730.388 25.898 731.491 26.396 A 4.078 4.078 0 0 1 731.5 26.4 Z M 881 26.4 L 879.7 32 A 3.962 3.962 0 0 0 879.234 31.81 Q 878.414 31.525 876.806 31.217 A 46.3 46.3 0 0 0 876.45 31.15 Q 874.054 30.71 870.176 30.7 A 70.229 70.229 0 0 0 870 30.7 A 48.621 48.621 0 0 0 867.536 30.759 Q 865.044 30.885 863.307 31.287 A 14.407 14.407 0 0 0 863.25 31.3 A 52.96 52.96 0 0 0 862.218 31.553 Q 860.823 31.911 860.153 32.186 A 3.792 3.792 0 0 0 859.9 32.3 L 859.9 77.6 L 853.4 77.6 L 853.4 28.3 A 27.658 27.658 0 0 1 855.148 27.608 Q 857.134 26.892 859.902 26.155 A 93.114 93.114 0 0 1 860.3 26.05 A 31.934 31.934 0 0 1 864.189 25.305 Q 867.259 24.9 871 24.9 A 36.701 36.701 0 0 1 875.235 25.136 A 31.614 31.614 0 0 1 877.05 25.4 Q 879.888 25.898 880.991 26.396 A 4.078 4.078 0 0 1 881 26.4 Z M 374.3 51.8 A 34.042 34.042 0 0 0 373.768 45.598 Q 372.753 40.123 369.8 36.35 A 14.412 14.412 0 0 0 359.275 30.671 A 19.283 19.283 0 0 0 357.6 30.6 Q 349.9 30.6 345.4 36.35 A 19.931 19.931 0 0 0 341.922 43.452 Q 340.9 47.177 340.9 51.8 A 33.944 33.944 0 0 0 341.432 57.996 Q 342.447 63.459 345.4 67.2 A 14.45 14.45 0 0 0 355.954 72.832 A 19.474 19.474 0 0 0 357.6 72.9 A 16.728 16.728 0 0 0 363.328 71.959 A 14.39 14.39 0 0 0 369.8 67.2 A 19.619 19.619 0 0 0 373.244 60.258 Q 374.3 56.498 374.3 51.8 Z M 774.9 65.5 L 774.9 32.2 Q 773.2 31.7 770.5 31.25 A 25.539 25.539 0 0 0 768.694 31.022 Q 766.316 30.8 762.8 30.8 Q 758.6 30.8 755.35 32.25 Q 752.1 33.7 749.8 36.35 A 17.627 17.627 0 0 0 746.789 41.316 A 20.842 20.842 0 0 0 746.3 42.65 A 23.918 23.918 0 0 0 745.242 47.764 A 29.629 29.629 0 0 0 745.1 50.7 A 31.252 31.252 0 0 0 745.331 54.604 Q 745.584 56.613 746.115 58.334 A 17.595 17.595 0 0 0 746.5 59.45 A 20.27 20.27 0 0 0 747.999 62.575 A 14.992 14.992 0 0 0 750.15 65.4 Q 752.4 67.7 755.3 68.75 Q 758.2 69.8 761.2 69.8 A 25.906 25.906 0 0 0 766.099 69.354 A 21.454 21.454 0 0 0 769.25 68.5 A 26.611 26.611 0 0 0 771.564 67.559 Q 772.702 67.028 773.616 66.443 A 11.862 11.862 0 0 0 774.9 65.5 Z M 95 14.3 L 95 44.9 L 103.6 44.9 Q 109.1 44.9 113.55 44.25 Q 117.848 43.622 120.933 41.968 A 16.444 16.444 0 0 0 121.15 41.85 Q 124.3 40.1 126 37 A 12.784 12.784 0 0 0 127.217 33.735 Q 127.564 32.243 127.662 30.501 A 25.032 25.032 0 0 0 127.7 29.1 Q 127.7 24.5 125.85 21.5 Q 124 18.5 120.95 16.75 A 20.369 20.369 0 0 0 116.184 14.792 A 24.764 24.764 0 0 0 114 14.3 Q 110.1 13.6 106 13.6 A 96.892 96.892 0 0 0 103.312 13.635 Q 102.259 13.664 101.319 13.718 A 48.056 48.056 0 0 0 99.55 13.85 Q 97.728 14.022 96.261 14.17 A 302.984 302.984 0 0 0 95 14.3 Z M 154.2 14.3 L 154.2 44.9 L 162.8 44.9 Q 168.3 44.9 172.75 44.25 Q 177.048 43.622 180.133 41.968 A 16.444 16.444 0 0 0 180.35 41.85 Q 183.5 40.1 185.2 37 A 12.784 12.784 0 0 0 186.417 33.735 Q 186.764 32.243 186.862 30.501 A 25.032 25.032 0 0 0 186.9 29.1 Q 186.9 24.5 185.05 21.5 Q 183.2 18.5 180.15 16.75 A 20.369 20.369 0 0 0 175.384 14.792 A 24.764 24.764 0 0 0 173.2 14.3 Q 169.3 13.6 165.2 13.6 A 96.892 96.892 0 0 0 162.512 13.635 Q 161.459 13.664 160.519 13.718 A 48.056 48.056 0 0 0 158.75 13.85 Q 156.928 14.022 155.461 14.17 A 302.984 302.984 0 0 0 154.2 14.3 Z M 802.6 47.6 L 832.2 47.6 A 30.441 30.441 0 0 0 831.703 42.672 Q 830.819 38.023 828.4 35 A 11.707 11.707 0 0 0 820.57 30.658 A 17.117 17.117 0 0 0 818.2 30.5 A 15.003 15.003 0 0 0 814.693 30.895 A 12.391 12.391 0 0 0 811.95 31.9 Q 809.2 33.3 807.15 35.65 A 17.349 17.349 0 0 0 804.041 40.859 A 19.659 19.659 0 0 0 803.95 41.1 Q 802.8 44.2 802.6 47.6 Z M 448.6 72 L 448.6 53.8 A 8.792 8.792 0 0 0 447.878 53.515 Q 447.154 53.261 446.113 52.995 A 41.871 41.871 0 0 0 445.1 52.75 A 17.414 17.414 0 0 0 443.424 52.46 Q 441.387 52.2 438.5 52.2 Q 436.1 52.2 433.5 52.55 Q 430.9 52.9 428.7 54.05 Q 426.5 55.2 425.1 57.2 A 7.216 7.216 0 0 0 424.061 59.484 Q 423.802 60.447 423.729 61.584 A 14.302 14.302 0 0 0 423.7 62.5 A 14.733 14.733 0 0 0 423.851 64.668 Q 424.022 65.815 424.386 66.778 A 8.235 8.235 0 0 0 424.65 67.4 Q 425.6 69.4 427.35 70.6 A 10.867 10.867 0 0 0 429.743 71.821 A 14.172 14.172 0 0 0 431.55 72.35 Q 433.962 72.891 437.003 72.9 A 34.742 34.742 0 0 0 437.1 72.9 A 99.994 99.994 0 0 0 439.816 72.865 Q 441.969 72.806 443.75 72.65 A 61.802 61.802 0 0 0 445.768 72.441 Q 446.757 72.322 447.616 72.179 A 30.363 30.363 0 0 0 448.6 72 Z M 680.8 72 L 680.8 53.8 A 8.792 8.792 0 0 0 680.078 53.515 Q 679.354 53.261 678.313 52.995 A 41.871 41.871 0 0 0 677.3 52.75 A 17.414 17.414 0 0 0 675.624 52.46 Q 673.588 52.2 670.7 52.2 Q 668.3 52.2 665.7 52.55 Q 663.1 52.9 660.9 54.05 Q 658.7 55.2 657.3 57.2 A 7.216 7.216 0 0 0 656.261 59.484 Q 656.002 60.447 655.929 61.584 A 14.302 14.302 0 0 0 655.9 62.5 A 14.733 14.733 0 0 0 656.051 64.668 Q 656.222 65.815 656.586 66.778 A 8.235 8.235 0 0 0 656.85 67.4 Q 657.8 69.4 659.55 70.6 A 10.867 10.867 0 0 0 661.943 71.821 A 14.172 14.172 0 0 0 663.75 72.35 Q 666.162 72.891 669.203 72.9 A 34.742 34.742 0 0 0 669.3 72.9 A 99.994 99.994 0 0 0 672.016 72.865 Q 674.169 72.806 675.95 72.65 A 61.802 61.802 0 0 0 677.968 72.441 Q 678.957 72.322 679.816 72.179 A 30.363 30.363 0 0 0 680.8 72 Z M 251.4 51.8 L 251.4 45.5 L 274 45.5 L 274 51.8 L 251.4 51.8 Z M 501.2 51.8 L 501.2 45.5 L 523.8 45.5 L 523.8 51.8 L 501.2 51.8 Z" vector-effect="non-scaling-stroke"/></g></svg>