<?xml version="1.0" encoding="UTF-8" standalone="no"?>
<!-- Created with Inkscape (http://www.inkscape.org/) -->

<svg
   version="1.1"
   id="svg2063"
   width="512"
   height="512"
   viewBox="0 0 512 512"
   sodipodi:docname="multicycles.svg"
   inkscape:version="1.2.2 (b0a84865, 2022-12-01)"
   xmlns:inkscape="http://www.inkscape.org/namespaces/inkscape"
   xmlns:sodipodi="http://sodipodi.sourceforge.net/DTD/sodipodi-0.dtd"
   xmlns="http://www.w3.org/2000/svg"
   xmlns:svg="http://www.w3.org/2000/svg">
  <defs
     id="defs2067" />
  <sodipodi:namedview
     id="namedview2065"
     pagecolor="#ffffff"
     bordercolor="#666666"
     borderopacity="1.0"
     inkscape:showpageshadow="2"
     inkscape:pageopacity="0.0"
     inkscape:pagecheckerboard="0"
     inkscape:deskcolor="#d1d1d1"
     showgrid="false"
     inkscape:zoom="0.4609375"
     inkscape:cx="267.9322"
     inkscape:cy="270.10169"
     inkscape:window-width="1097"
     inkscape:window-height="775"
     inkscape:window-x="0"
     inkscape:window-y="25"
     inkscape:window-maximized="0"
     inkscape:current-layer="g2069" />
  <g
     inkscape:groupmode="layer"
     inkscape:label="Image"
     id="g2069">
    <g
       id="g2190">
      <path
         style="fill:#d6f0d5"
         d="M 0,256 V 0 H 256 512 V 256 512 H 256 0 Z m 143.04469,194.55486 c 28.99883,-2.51891 57.40577,-23.21718 70.00761,-51.00992 5.36252,-11.8268 7.28936,-21.57161 7.33378,-37.09 l 0.0402,-14.04505 12.50883,-8.45495 c 6.87986,-4.65022 13.1189,-8.60717 13.86454,-8.79322 1.10787,-0.27644 1.24304,1.73449 0.73939,11 -1.61492,29.70932 -2.42453,68.18372 -1.47224,69.9631 0.92744,1.73293 3.21266,2.37138 6.9332,1.93703 4.23924,-0.49491 4.59929,-2.00897 19.4131,-81.633 l 6.33883,-34.07115 6.00118,-8.92885 c 6.84387,-10.18265 16.00033,-26.42234 19.29199,-34.21583 1.22815,-2.90784 2.66722,-5.14225 3.19792,-4.96535 0.5307,0.1769 3.33583,5.93104 6.23362,12.78698 2.89779,6.85594 6.90101,16.00903 8.89604,20.34019 1.99502,4.33117 3.62732,8.47246 3.62732,9.20288 0,0.73042 -1.85095,2.81174 -4.11323,4.62516 -10.80236,8.65906 -22.77581,28.27941 -27.03262,44.29712 -3.07656,11.57664 -3.05735,31.71175 0.0414,43.40773 11.23163,42.39268 50.00272,69.75204 93.44795,65.94284 12.08254,-1.05938 19.76616,-3.25349 31.15649,-8.89694 17.33062,-8.58664 30.32518,-21.22899 38.84192,-37.78914 8.29183,-16.12282 11.5924,-33.15869 9.67516,-49.93839 -2.39892,-20.99541 -9.94823,-37.10414 -24.41103,-52.08831 C 432.28824,290.412 420.47158,283.25994 404.29659,278.34567 396.55134,275.99252 393.767,275.66703 381,275.62231 c -14.65094,-0.0513 -20.51718,0.88586 -31.77229,5.07594 -2.34977,0.87477 -4.42059,1.41303 -4.60184,1.19612 -0.18126,-0.2169 -6.97534,-17.21034 -15.09797,-37.76319 -9.63171,-24.37129 -15.68309,-38.35542 -17.39816,-40.20538 -2.49272,-2.68877 -4.32311,-3.15355 -35.12974,-8.92011 -27.61526,-5.16919 -32.81475,-6.41587 -34.59412,-8.29462 -1.15176,-1.21609 -12.60124,-13.63451 -25.44328,-27.5965 -25.14851,-27.34168 -27.29877,-29.057 -36.4626,-29.08703 -7.28618,-0.0239 -12.12009,1.63444 -16.62323,5.70276 -4.81359,4.34878 -5.75293,6.00805 -7.4736,13.20144 -2.54876,10.65534 -0.77427,93.51952 2.1215,99.06826 2.57203,4.92843 8.47572,9.07552 43.47533,30.53958 19.525,11.97401 37.24059,22.86522 39.36798,24.20269 l 3.86797,2.43177 -3.86797,4.00941 c -6.91668,7.1696 -23.61451,18.82627 -26.94884,18.81285 -0.50553,-0.002 -2.46764,-2.99819 -4.36025,-6.65813 -8.177,-15.81272 -22.48138,-29.33536 -39.55889,-37.39698 -14.50015,-6.84495 -22.05533,-8.4615 -39,-8.34463 -12.1187,0.0836 -15.18207,0.45434 -22.79659,2.75912 -16.149271,4.88809 -27.983247,12.04761 -39.309457,23.78211 -14.530527,15.05433 -22.010845,31.07862 -24.441675,52.35879 -1.200472,10.50927 0.08013,24.12983 3.237671,34.43606 4.873175,15.90607 15.869886,32.22441 28.836064,42.79067 7.683497,6.26135 23.889577,14.53373 32.939877,16.81413 6.66372,1.67905 20.99855,3.35158 24.53411,2.86255 1.1,-0.15216 4.94511,-0.53246 8.54469,-0.84513 z M 122.3872,432.00118 C 115.27339,430.95861 107.71388,428.37411 99.5,424.17631 89.39428,419.01167 76.720879,406.12129 71.306376,395.5 64.87496,382.88389 63.58181,377.4061 63.634051,363 c 0.03893,-10.73609 0.417123,-13.6289 2.680052,-20.5 3.716546,-11.28482 9.004453,-19.80309 17.687502,-28.49271 21.491525,-21.50781 53.547495,-26.16989 81.285115,-11.82176 10.86145,5.61842 22.64908,17.22006 28.08106,27.63798 2.10019,4.02793 3.63474,7.5073 3.41011,7.73193 -1.29132,1.29132 -20.35903,9.55225 -26.27789,11.38468 -9.0027,2.78716 -23.95188,5.04496 -33.5,5.05956 -15.90234,0.0243 -21.08484,4.69724 -16.32768,14.72222 2.39954,5.05664 6.7132,6.60363 18.32768,6.57275 14.82142,-0.0394 35.47845,-4.92401 54.18107,-12.81177 4.54202,-1.91559 8.38437,-3.48288 8.53857,-3.48288 1.09628,0 -0.0881,14.13309 -1.72548,20.59004 -8.90072,35.09968 -42.21481,57.59804 -77.60696,52.41114 z m 247.58567,0.003 C 330.62269,425.7638 304.34074,387.58102 312.49534,348.5 c 2.04508,-9.80107 9.15792,-23.68339 16.01146,-31.25 3.11355,-3.4375 6.03452,-6.25 6.49104,-6.25 0.45651,0 2.51643,3.0375 4.57758,6.75 9.90104,17.83351 26.98239,42.53751 35.26346,51 3.1214,3.18978 4.93144,4.25 7.25572,4.25 3.78053,0 8.32954,-2.55549 9.95478,-5.59227 1.85263,-3.46166 0.40599,-6.92977 -5.62866,-13.49397 -7.71538,-8.3924 -14.1089,-18.54795 -23.98445,-38.09722 l -8.50658,-16.83931 2.78263,-1.05795 c 11.3869,-4.3293 28.23741,-5.1291 40.73262,-1.93336 23.0577,5.89716 41.6475,23.45749 49.24096,46.51408 2.26293,6.8711 2.64112,9.76391 2.68005,20.5 0.0522,14.39634 -1.23724,19.86549 -7.66246,32.5 -5.34103,10.50258 -18.0071,23.37807 -28.20349,28.6698 -13.56803,7.04155 -29.94217,9.98868 -43.52713,7.83432 z M 235.56177,252.7697 203.84096,225.596 l 0.32952,-17.2167 c 0.18124,-9.46918 0.66314,-17.5494 1.0709,-17.95604 0.40775,-0.40664 4.57637,1.91927 9.26359,5.1687 4.68722,3.24942 12.62619,8.72054 17.64216,12.15804 l 9.11993,6.25 h 27.36647 c 26.0702,0 27.36647,0.0886 27.36647,1.87087 0,2.46823 -5.19484,20.22875 -7.85657,26.86067 -4.2722,10.6445 -17.72474,35.27363 -20.05236,36.71218 -0.44467,0.27482 -15.08285,-11.72849 -32.5293,-26.67402 z m 169.8861,7.9803 c 2.27509,-2.00006 3.05886,-4.77476 7.05576,-24.97857 2.473,-12.50071 4.49637,-23.85611 4.49637,-25.23422 0,-1.37811 -1.31297,-3.97526 -2.9177,-5.77143 L 411.16459,201.5 H 379.8323 c -17.23277,0 -32.58271,0.34931 -34.111,0.77625 -1.75344,0.48985 -3.36856,2.01321 -4.37737,4.1287 -1.86037,3.90124 -1.33132,6.90079 6.27808,35.59505 6.00311,22.6371 3.47901,21 32.37799,21 22.31119,0 22.95302,-0.0568 25.44787,-2.25 z M 196.65226,120.65277 c 5.80892,-2.97169 11.28426,-8.5145 14.47441,-14.65277 3.19567,-6.148905 3.31903,-18.376406 0.25272,-25.050805 -6.43355,-14.003829 -20.96766,-21.219821 -35.32932,-17.540535 -22.66582,5.806715 -31.31605,32.551564 -16.12449,49.8538 9.12655,10.39457 24.72037,13.53243 36.72668,7.39031 z"
         id="path2204" />
      <path
         style="fill:#a7dfa5"
         d="M 0,256 V 0 H 256 512 V 256 512 H 256 0 Z m 153.89255,192.96667 c 14.92451,-3.56462 27.95047,-10.78046 39.46895,-21.86417 11.9828,-11.53049 19.40852,-23.70304 24.28313,-39.80591 2.29826,-7.59212 2.69496,-10.84621 2.89724,-23.76551 l 0.23437,-14.96892 5.86188,-3.91827 c 3.22403,-2.15504 8.90894,-6.10653 12.63312,-8.78108 3.72419,-2.67454 7.05823,-4.86281 7.40899,-4.86281 0.62269,0 -0.046,32.35131 -1.33588,64.6286 l -0.64453,16.12861 2.64281,1.73163 c 3.24475,2.12605 7.04324,1.37808 9.12329,-1.79648 1.59405,-2.43283 5.65903,-22.32997 15.93198,-77.98345 l 6.42201,-34.79108 7.66271,-11.68264 c 4.21449,-6.42544 10.44251,-17.4001 13.84005,-24.38813 3.39753,-6.98802 6.44392,-12.73735 6.76975,-12.77628 0.32583,-0.0389 4.72587,9.54088 9.77785,21.28847 l 9.18543,21.35924 -7.3873,7.39076 c -18.60731,18.61601 -27.65021,41.73569 -26.35881,67.39075 1.98402,39.41468 29.16816,72.32096 67.48115,81.68562 10.9962,2.68774 29.40562,2.912 39.44657,0.48053 33.4359,-8.09671 58.23226,-32.05902 66.91695,-64.66615 3.12208,-11.72202 3.10715,-31.77543 -0.0324,-43.5 -9.01378,-33.66193 -35.0559,-58.15748 -69.18045,-65.072 -11.77085,-2.38508 -29.33896,-1.55801 -41.09087,1.93448 -4.75719,1.41376 -9.21396,2.69806 -9.90392,2.854 -0.80162,0.18117 -6.55479,-13.04594 -15.9372,-36.6412 -9.74122,-24.49764 -15.66321,-38.06923 -17.59608,-40.32544 L 309.5,200.84912 278.41535,195.04443 c -17.09656,-3.19258 -31.94656,-6.11848 -33,-6.50199 C 244.36191,188.15893 232.475,175.7556 219,160.97949 191.83837,131.1952 190.29569,129.99132 179.31462,130.00977 c -11.68448,0.0196 -20.2207,6.66405 -22.88643,17.81436 -1.67121,6.99038 -1.86136,43.58586 -0.3958,76.17587 1.29019,28.69059 0.005,26.48218 24.00294,41.24013 9.60557,5.90707 27.91431,17.15707 40.6861,25 12.77178,7.84293 23.23428,14.73104 23.25,15.30692 0.0323,1.18503 -5.28642,6.38392 -11.97143,11.70163 C 228.40784,320.10613 215.60858,328 214.56762,328 c -0.13214,0 -2.61386,-4.00995 -5.51493,-8.91099 -15.98469,-27.00433 -41.62214,-42.47502 -72.61841,-43.82092 -18.36486,-0.79742 -33.66874,2.91633 -48.670042,11.81065 -47.857186,28.37468 -58.119123,94.24097 -21.01634,134.89349 14.634678,16.03483 33.467532,26.1559 53.869722,28.95044 9.13865,1.25175 23.33969,0.41697 33.27493,-1.956 z M 124.21916,431.85492 C 108.82478,430.14813 95.979257,423.81498 83.947455,412 70.407225,398.70377 63.844964,383.1493 63.696787,364 c -0.09667,-12.49216 1.228283,-18.66909 6.402806,-29.84998 10.818184,-23.37548 32.621637,-38.2462 58.435547,-39.8551 26.8818,-1.67546 52.63806,12.79092 65.39854,36.73204 l 3.13503,5.88191 -2.28435,1.4931 c -3.28983,2.1503 -13.21577,6.47516 -20.98829,9.14487 -10.40563,3.57414 -21.42375,5.48787 -36.36531,6.31627 -13.28628,0.73663 -13.78286,0.84492 -16.07034,3.50427 -5.03721,5.8561 -1.44286,15.17861 6.67094,17.30214 12.44845,3.25799 38.76771,-1.26749 62.3241,-10.71634 5.4205,-2.17425 10.258,-3.95318 10.75,-3.95318 0.492,0 0.89454,2.04397 0.89454,4.54216 0,8.22428 -2.99808,19.70418 -7.68046,29.40915 -8.64738,17.92306 -26.90938,32.53961 -45.47192,36.39486 -10.06003,2.08936 -16.0706,2.45757 -24.62846,1.50875 z M 372.5,431.87136 c -16.1818,-1.7795 -28.96342,-8.11181 -41.16485,-20.39403 -6.69499,-6.73933 -8.9805,-9.90737 -12.69571,-17.59812 -12.88405,-26.67085 -8.71401,-56.13112 11.00419,-77.74189 2.82899,-3.10053 5.34615,-5.41232 5.59367,-5.13732 0.24752,0.275 3.0665,5 6.2644,10.5 13.05144,22.44692 30.74729,46.85641 36.50919,50.36043 3.86088,2.34794 8.21257,1.66739 12.00779,-1.87788 4.89926,-4.57659 4.17887,-7.36339 -4.53165,-17.53053 -8.14581,-9.50799 -13.77835,-18.62723 -24.24103,-39.24693 -6.26065,-12.33838 -6.61966,-13.38985 -4.99,-14.61463 6.00294,-4.51151 31.4298,-5.52225 43.744,-1.73885 21.92572,6.73642 39.07546,23.57569 46.46107,45.61995 5.75222,17.169 3.27488,39.37715 -6.18459,55.44193 -14.09385,23.93521 -40.1596,36.99487 -67.77648,33.95787 z M 235.78339,252.74646 205.06678,226.5 l -0.0334,-18.25 c -0.0184,-10.0375 0.25103,-18.25 0.59866,-18.25 0.34763,0 4.96013,3.07495 10.25,6.83322 5.28987,3.75827 13.08513,9.15827 17.32279,12 L 240.90967,214 h 27.54516 c 15.14984,0 27.54201,0.3375 27.53815,0.75 -0.0499,5.33914 -7.97605,29.31999 -13.00643,39.35131 -4.46195,8.89778 -14.36692,24.89859 -15.41083,24.89515 -0.59165,-0.002 -14.89821,-11.81445 -31.79234,-26.25 z m 164.07424,10.32458 c 7.36757,-1.42335 7.84904,-2.43293 12.72922,-26.69144 5.14152,-25.55766 5.30645,-28.12366 2.03456,-31.6541 -3.34612,-3.61052 -6.8625,-3.91895 -40.4593,-3.54876 l -29.3379,0.32326 -2.4121,2.80576 c -1.36372,1.58628 -2.41211,4.08083 -2.41211,5.7394 0,2.47219 7.47932,33.23838 10.95293,45.05493 1.39435,4.7433 4.18297,7.12235 9.33305,7.9623 6.08867,0.99302 34.44423,0.99922 39.57165,0.009 z M 194.5012,121.91367 c 15.01283,-5.61702 23.22764,-23.613837 17.90677,-39.229733 -2.06676,-6.065608 -9.34663,-14.098643 -15.80037,-17.435061 -4.22907,-2.18632 -6.48363,-2.649817 -13.1076,-2.694686 -6.7903,-0.046 -8.85595,0.366148 -13.66054,2.725592 C 158.65286,70.773301 152.53457,80.583756 152.55175,93 c 0.0138,9.95664 2.81457,16.30623 10.14977,23.01018 8.71201,7.96229 20.46526,10.14424 31.79968,5.90349 z"
         id="path2202" />
      <path
         style="fill:#76cd72"
         d="M 0,256 V 0 H 256 512 V 256 512 H 256 0 Z m 150.56477,194.10286 c 27.34495,-5.6437 49.66441,-23.15095 61.96229,-48.60286 6.41926,-13.28542 7.60155,-18.63642 8.18759,-37.05674 l 0.51084,-16.05674 7.13725,-4.56607 c 3.9255,-2.51134 9.79841,-6.50081 13.05093,-8.8655 l 5.91366,-4.29942 -0.66258,15.92223 c -0.36443,8.75723 -0.95741,26.95827 -1.31774,40.44674 -0.59888,22.41843 -0.50696,24.67269 1.07035,26.25 2.22151,2.22152 6.77951,2.20971 9.46288,-0.0245 2.33798,-1.94664 3.33723,-6.62229 16.1505,-75.57069 l 7.21437,-38.82068 7.20393,-10.78235 c 3.96216,-5.9303 10.09451,-16.66303 13.62744,-23.85053 3.53294,-7.1875 6.70799,-13.10363 7.05567,-13.14696 0.34768,-0.0433 3.56108,6.78371 7.14089,15.17121 3.57981,8.3875 7.64456,17.76376 9.03277,20.83613 l 2.52403,5.58613 -7.50593,7.41387 c -13.10265,12.94195 -21.30867,27.95525 -24.97805,45.69853 -1.97047,9.52816 -1.35511,31.64373 1.13288,40.71534 2.36662,8.62905 9.54607,22.95022 15.31735,30.55421 27.98668,36.87401 80.84402,45.84804 119.47999,20.2851 C 462.39954,415.42365 476.97474,373.85559 464.80914,336 449.99488,289.9026 400.01092,264.02497 353.91336,278.58718 c -4.48317,1.41624 -8.50727,2.20099 -8.94246,1.74389 C 344.53571,279.87398 337.84463,263.525 330.10182,244 c -7.7428,-19.525 -14.98219,-36.97168 -16.08753,-38.77039 -1.10533,-1.79872 -3.02323,-3.70416 -4.26199,-4.23432 -1.23877,-0.53016 -15.7523,-3.46655 -32.2523,-6.52532 -16.5,-3.05876 -30.71061,-5.77174 -31.57913,-6.02883 -0.86852,-0.2571 -12.74202,-12.63351 -26.38556,-27.50313 -16.17921,-17.63316 -26.1742,-27.73346 -28.73926,-29.04206 -7.84521,-4.00233 -17.72852,-3.46361 -24.80219,1.35192 -6.09272,4.14774 -8.73906,8.5863 -10.58408,17.75213 -1.57728,7.83575 -1.61305,11.82127 -0.45773,51 1.35485,45.94482 1.37064,46.05867 7.15734,51.60711 1.65941,1.59109 20.65115,13.75011 42.20386,27.02004 21.55271,13.26993 39.18675,24.64937 39.18675,25.28763 0,1.77275 -12.04751,11.64434 -20.89284,17.11934 l -7.89284,4.88544 -4.60716,-7.98321 C 180.93721,269.39109 113.85084,259.15885 71.787422,298.83935 53.497449,316.09318 44,338.27069 44,363.72582 c 0,55.83852 51.656828,97.70943 106.56477,86.37704 z M 116,430.01358 C 95.709847,424.58385 80.29357,412.16272 71.03785,393.78688 60.337209,372.54236 61.93911,345.21958 75.033071,325.64249 88.276307,305.84221 108.40543,294.92149 132,294.73603 c 19.47048,-0.15304 34.87491,6.08516 48.53295,19.65399 C 187.75524,321.56514 196,333.4595 196,336.70367 c 0,1.45341 -16.37937,8.74945 -26.1679,11.65625 -10.55558,3.13458 -18.38534,4.38227 -32.8321,5.23186 -12.30353,0.72355 -16.43405,2.0497 -17.57434,5.64244 -2.02298,6.37386 0.87208,12.86751 6.79293,15.23656 10.88258,4.35435 39.41118,-0.22459 64.78141,-10.39765 6.40363,-2.56776 9.69872,-3.44492 10.1097,-2.69124 0.96522,1.77008 -0.77718,16.09145 -2.66027,21.86569 -7.29297,22.36289 -23.04788,38.22363 -45.44943,45.75472 -9.61003,3.23076 -26.93648,3.70432 -37,1.01128 z m 249.37604,0.49544 C 340.0012,424.98989 318.47456,403.2245 312.94849,377.5 c -0.59075,-2.75 -1.06599,-9.275 -1.05608,-14.5 0.0334,-17.59641 6.0685,-33.34598 17.38353,-45.3648 4.70724,-5.00002 5.95627,-5.85766 6.75054,-4.6352 0.53603,0.825 4.61203,7.57468 9.05777,14.99929 10.49759,17.53151 20.79322,31.91327 28.55843,39.89266 5.96569,6.13026 6.3767,6.3671 10.03884,5.78467 4.39342,-0.69873 10.86804,-6.80211 9.89786,-9.33034 C 393.26072,363.51586 393,362.2436 393,361.51905 c 0,-0.72456 -2.75199,-4.3541 -6.11554,-8.06564 -3.36355,-3.71154 -8.12252,-9.85073 -10.57549,-13.64264 C 372.24816,333.53341 355,301.09485 355,299.73507 c 0,-1.07461 9.47538,-3.70336 17.16665,-4.76254 19.06478,-2.62543 40.27733,4.21165 54.80941,17.66579 22.15156,20.50844 28.34988,53.6254 15.10929,80.72731 -9.05884,18.54235 -25.09896,31.45634 -45.49531,36.62853 -9.18225,2.32847 -21.91044,2.53842 -31.214,0.51486 z M 235.75,252.33984 205,225.83439 v -17.97621 c 0,-14.11664 0.26838,-17.81425 1.25,-17.22183 0.6875,0.4149 8.51488,5.84146 17.39417,12.05901 L 239.78834,214 H 267.39417 295 l -7.1e-4,2.25 c -10e-4,3.507 -4.6662,19.66695 -8.04026,27.85158 -5.01014,12.15339 -17.96826,35.01159 -19.73976,34.82106 -0.3956,-0.0426 -14.55677,-12.00481 -31.46927,-26.5828 z m 167.70163,10.24482 c 1.86306,-0.77844 3.82708,-2.24094 4.36449,-3.25 1.37667,-2.58491 9.31043,-42.63827 9.51485,-48.0355 0.14701,-3.88141 -0.25636,-4.84282 -3.09675,-7.38093 L 410.96845,201 h -31.93717 c -21.60639,0 -32.73921,0.36543 -34.41664,1.12972 -2.89505,1.31907 -5.10589,6.0063 -4.78978,10.15488 0.29538,3.87652 9.83784,40.97236 11.66383,45.34258 2.36401,5.65786 5.18378,6.28908 28.29343,6.33368 15.29981,0.0295 21.11423,-0.30854 23.66951,-1.3762 z M 194.49012,122.27104 c 7.04707,-2.24722 15.54737,-10.86864 18.02409,-18.28092 5.07084,-15.175905 -0.96529,-31.019358 -14.65705,-38.471344 -7.38157,-4.017555 -17.91935,-4.634323 -26.14588,-1.530299 -7.74696,2.923076 -14.79973,9.975842 -17.7228,17.722808 -4.43786,11.761549 -1.09723,26.595985 7.73573,34.351425 9.49624,8.33782 19.90398,10.30983 32.76591,6.20833 z"
         id="path2200" />
      <path
         style="fill:#58c353"
         d="M 0,256 V 0 H 256 512 V 256 512 H 256 0 Z m 147.56634,194.94902 c 30.68125,-5.43432 56.25556,-26.28415 67.84785,-55.31395 4.33934,-10.86671 5.88203,-19.759 5.88372,-33.91456 l 0.002,-12.77949 12.44047,-8.54699 c 6.84226,-4.70085 12.65803,-8.32944 12.92393,-8.06353 0.2659,0.2659 3.2e-4,12.08014 -0.59018,26.25385 C 245.48314,372.75807 245,390.7841 245,398.64219 245,414.41691 245.24165,415 251.77927,415 c 6.16261,0 6.13183,0.11635 20.24261,-76.5 l 7.18281,-39 7.32368,-11.25015 c 4.02803,-6.18759 10.31809,-17.13897 13.97793,-24.3364 3.65983,-7.19743 6.82995,-12.91053 7.04471,-12.69577 0.21476,0.21475 2.82467,6.21613 5.7998,13.33639 2.97513,7.12026 6.9614,16.32093 8.85837,20.44593 l 3.44903,7.5 -7.13088,7 c -17.79306,17.46651 -26.8487,38.91085 -26.81514,63.5 0.0324,23.70876 7.8002,43.60855 23.69248,60.69583 C 332.77769,442.37519 354.99008,452 380.72582,452 c 39.00571,0 72.64972,-24.98933 84.81909,-63 3.90288,-12.19053 4.61191,-32.55907 1.57601,-45.27432 -5.28331,-22.12803 -17.47169,-40.31191 -35.77504,-53.37291 -21.96664,-15.67507 -52.72554,-20.29089 -78.25091,-11.74269 -4.07276,1.36392 -7.71934,2.12213 -8.10351,1.68489 -0.38417,-0.43723 -7.14129,-17.12143 -15.01582,-37.076 -10.4589,-26.50353 -15.14714,-37.1958 -17.39648,-39.67545 L 309.5,200.1491 l -31,-5.70758 c -17.05,-3.13918 -31.73649,-5.98522 -32.63665,-6.32455 -0.90016,-0.33934 -12.87172,-12.7969 -26.60346,-27.68349 -16.98201,-18.4102 -26.21299,-27.66189 -28.86335,-28.92813 -9.49089,-4.53435 -20.97971,-2.56255 -28.25372,4.84913 -5.51916,5.62361 -7.19034,11.14907 -7.8796,26.05247 -0.83777,18.11432 1.65917,82.47788 3.3261,85.73693 2.42407,4.73935 6.86041,8.24683 22.50718,17.79471 8.47192,5.16969 26.33207,16.15045 39.68921,24.40169 l 24.28571,15.00225 -3.78571,3.90111 C 234.02955,315.69051 217.64427,327 214.56016,327 c -0.28573,0 -1.492,-1.9125 -2.68059,-4.25 -11.50173,-22.61943 -33.98645,-40.14548 -59.55066,-46.41765 -10.26295,-2.51802 -29.40287,-2.29137 -40.63026,0.48113 -32.885641,8.12079 -57.750641,33.24934 -65.69629,66.39263 -2.420076,10.09474 -2.660754,28.02238 -0.512334,38.16286 7.329121,34.59323 34.285301,61.52832 69.025544,68.97154 8.29293,1.77679 24.74473,2.07969 33.05077,0.60851 z M 118.48107,430.59648 C 94.091763,425.01835 74.258873,406.87314 67.004184,383.5 c -2.98363,-9.61265 -3.691725,-24.67424 -1.621959,-34.5 4.138074,-19.64459 18.481686,-38.28529 36.074855,-46.88222 11.85199,-5.7915 15.80678,-6.61917 31.54292,-6.60145 13.17707,0.0148 15.16918,0.25928 21.8346,2.67921 4.03404,1.46459 9.87251,4.15724 12.97438,5.98367 10.03342,5.90784 24.30617,21.87254 27.7281,31.0151 0.49884,1.33279 -0.89692,2.46535 -6.54133,5.30783 -16.18959,8.15295 -30.00371,11.36849 -56.29956,13.10499 -11.24308,0.74245 -14.24653,2.80432 -14.10326,9.68186 0.12123,5.81927 3.27045,10.30119 8.20017,11.67033 12.87779,3.57658 40.77727,-1.15517 64.9569,-11.0167 l 9.25,-3.77255 v 6.255 c 0,27.08197 -20.83686,53.96659 -48.5,62.57681 -8.92937,2.77929 -25.4527,3.5538 -34.01893,1.5946 z m 249.59412,0.31626 c -21.49244,-4.21674 -39.22257,-17.6401 -49.03734,-37.12586 -5.58103,-11.08029 -7.43384,-20.45865 -6.7534,-34.18354 0.67883,-13.69239 3.82541,-23.62061 10.76196,-33.95655 4.57602,-6.81861 11.52021,-14.49561 12.28228,-13.57844 0.19726,0.23741 2.97365,4.93165 6.16977,10.43165 12.11207,20.84296 30.5185,46.31541 36.11941,49.98527 7.18742,4.70938 18.33386,-3.22164 15.39423,-10.95345 -0.59302,-1.55976 -3.47555,-5.42533 -6.40563,-8.59016 -7.53889,-8.1429 -12.40066,-15.90157 -22.65884,-36.16019 l -8.97198,-17.71852 5.76218,-1.78148 c 8.27,-2.55681 31.52566,-2.52661 39.26217,0.051 19.75534,6.58193 33.02558,17.99283 42.06085,36.16755 9.70697,19.52585 9.04599,43.84571 -1.72011,63.28912 -4.26016,7.69378 -13.86141,18.13177 -21.36609,23.22809 -14.53515,9.87063 -34.42379,14.12799 -50.89946,10.89553 z M 236.23034,252.34518 205,225.5999 V 208.29995 C 205,198.78498 205.39176,191 205.87057,191 c 0.47881,0 5.08474,2.98277 10.2354,6.62837 5.15066,3.64561 12.5214,8.75243 16.37943,11.34849 l 7.0146,4.72011 21.5,0.6363 c 11.825,0.34997 24.36258,0.64315 27.86129,0.65152 l 6.36129,0.0152 -0.65873,3.75 c -1.18455,6.74338 -6.42721,22.70047 -10.12173,30.80756 -3.34518,7.34052 -12.47837,23.54793 -15.63072,27.73768 -1.23903,1.64678 -3.93325,-0.41641 -32.58106,-24.95006 z m 167.78968,10.14447 c 1.60638,-0.83069 3.36856,-2.3472 3.91595,-3.37001 1.07663,-2.0117 8.42597,-37.27886 9.55993,-45.87506 0.66407,-5.03412 0.55098,-5.3977 -2.68594,-8.63462 l -3.3792,-3.3792 -15.76845,-0.73901 c -17.16361,-0.8044 -47.55014,0.1349 -51.37209,1.58801 -1.34542,0.51153 -3.0542,2.50445 -3.91612,4.56731 -1.47801,3.53739 -1.34397,4.39338 4.00778,25.59379 6.03054,23.88934 7.82606,28.60086 11.61812,30.48651 3.93228,1.95536 44.1642,1.7562 48.02002,-0.23772 z M 195.84313,121.95899 c 6.20011,-2.73228 13.52379,-10.08966 16.29213,-16.3671 1.6527,-3.74762 2.25779,-7.07343 2.29197,-12.597658 0.0589,-9.518239 -3.22108,-16.825379 -10.48339,-23.354818 C 197.83543,64.147426 191.80242,62 182.48158,62 c -12.57463,0 -22.73102,6.750303 -28.23067,18.763119 -3.27534,7.154294 -3.00313,19.323381 0.5869,26.236881 7.98387,15.37493 25.53353,21.77715 41.00532,14.95899 z"
         id="path2198" />
      <path
         style="fill:#39b833"
         d="M 0,256 V 0 H 256 512 V 256 512 H 256 0 Z m 152.73656,194.01134 c 17.64711,-4.23077 31.64791,-12.38414 44.45692,-25.88952 13.1254,-13.83897 19.98647,-27.67932 23.38602,-47.17494 1.17273,-6.72532 1.46596,-12.09477 1.01785,-18.63805 l -0.62945,-9.19117 7.13987,-4.61876 c 3.92693,-2.54031 9.59412,-6.43181 12.59376,-8.64778 2.99964,-2.21597 5.62049,-3.86243 5.8241,-3.65882 0.20362,0.20362 -0.28666,17.81332 -1.0895,39.13267 -1.04635,27.78577 -1.15597,39.32999 -0.38712,40.76661 2.55415,4.77247 10.80496,4.18944 12.82817,-0.90648 1.23705,-3.11581 4.30094,-18.56796 14.5176,-73.21673 l 7.37865,-39.46837 7.61142,-11.39132 c 4.18628,-6.26522 10.38394,-16.96018 13.77259,-23.76657 l 6.16118,-12.37525 7.93034,18.26657 c 4.36169,10.04661 8.42265,19.46167 9.02437,20.92235 1.02173,2.4803 0.72042,2.99724 -4.55983,7.82309 -21.22252,19.39619 -32.16172,51.04704 -27.293,78.96801 3.39962,19.49606 10.26057,33.33591 23.38683,47.17579 8.82838,9.30834 15.44312,14.21732 26.49209,19.66053 21.06608,10.37808 50.21499,11.07826 72.01912,1.72996 12.73962,-5.46198 18.64472,-9.47968 28.67987,-19.51316 17.8764,-17.87342 26.12805,-37.47314 26.31303,-62.5 0.30093,-40.71505 -26.64536,-75.67089 -66.81144,-86.67052 -6.54214,-1.79159 -10.64238,-2.18769 -22.5,-2.1736 -12.72218,0.0151 -15.54217,0.3351 -23,2.60981 -4.675,1.42592 -9.23291,2.87667 -10.12868,3.22388 -1.34913,0.52294 -4.16137,-5.75746 -16.38452,-36.59061 -11.12014,-28.05079 -15.52346,-38.03684 -17.87132,-40.5294 -3.09625,-3.28708 -3.31397,-3.34468 -35.27798,-9.33396 l -32.1625,-6.02646 -5.93301,-6.25457 C 235.97883,178.31456 224.8771,166.275 214.57147,155 193.02463,131.42642 189.75163,129 179.5,129 c -12.40462,0 -21.35149,7.48044 -24.06117,20.11745 -1.71884,8.01608 -1.82728,32.10486 -0.31233,69.38255 l 1.13791,28 2.88584,4.2064 c 3.02037,4.4025 2.08911,3.79094 60.6583,39.83421 l 24.30856,14.95939 -6.30242,5.84871 C 232.26651,316.49748 216.854,327 214.84633,327 c -0.4055,0 -2.36362,-3.09495 -4.35138,-6.87766 C 195.25387,291.11853 161.4542,272.3481 128,274.30932 80.251791,277.10851 43.687454,315.58017 43.706366,363 c 0.01019,25.56132 9.621204,47.80738 28.13909,65.13196 11.885489,11.11959 26.821764,19.08891 41.654544,22.22499 10.50826,2.22175 29.21503,2.05697 39.23656,-0.34561 z m -31.48924,-19.05291 c -14.119,-2.53407 -26.8337,-9.33111 -37.422503,-20.00538 -32.283012,-32.54356 -23.578072,-86.96848 17.350023,-108.47558 33.13144,-17.41009 75.43058,-3.76923 92.47354,29.82136 l 2.4348,4.79882 -9.52325,4.45024 c -16.29138,7.613 -32.80997,11.44565 -49.38229,11.45769 -13.99843,0.0102 -19.89575,3.53754 -18.8629,11.28252 1.20482,9.03456 6.43472,12.05867 20.68526,11.96095 15.02951,-0.10306 39.45367,-5.9447 55.89887,-13.36958 l 6.39887,-2.88904 -0.5929,8.25478 c -1.24099,17.27791 -7.53663,30.81203 -20.17189,43.36477 -8.75317,8.696 -19.36721,14.92959 -30.53295,17.93192 -7.04653,1.89472 -21.98721,2.63079 -28.75268,1.41653 z M 372.5,431.44218 c -1.1,-0.25403 -4.475,-0.94314 -7.5,-1.53137 -3.025,-0.58822 -9.72064,-3.09711 -14.87921,-5.57531 -16.5287,-7.94045 -29.63806,-23.18473 -35.11661,-40.8355 -4.70722,-15.16571 -3.51711,-34.39588 2.98913,-48.2994 5.08913,-10.87522 16.61725,-25.55169 17.6996,-22.53339 0.96894,2.70202 14.86163,25.3586 20.98818,34.2281 7.95068,11.51033 17.57588,23.47084 20.58327,25.5773 6.57691,4.60665 18.23735,-2.35319 16.3749,-9.77379 -0.33802,-1.34676 -3.88263,-6.27156 -7.87692,-10.94401 -8.29169,-9.69946 -13.66897,-18.43697 -23.41126,-38.04084 -7.7906,-15.67659 -7.94896,-14.72046 2.84633,-17.18498 34.7467,-7.93252 70.26945,12.72245 80.78146,46.97101 5.03972,16.41963 3.45059,33.67634 -4.64424,50.43251 -3.7742,7.81255 -5.9546,10.82249 -12.69571,17.52589 -8.75895,8.70994 -19.68709,15.16275 -30.63892,18.09154 -5.64355,1.50923 -21.92639,2.71751 -25.5,1.89224 z M 236.22554,252.15884 205.00955,225.5 l 0.0105,-16 c 0.006,-8.8 0.36056,-16.55095 0.78837,-17.22432 0.55448,-0.87276 3.06262,0.3947 8.73469,4.41398 4.37627,3.10107 12.09293,8.46262 17.14813,11.91456 l 9.19128,6.27626 26.75266,0.087 c 14.71397,0.0479 26.9287,0.26308 27.14387,0.47824 0.71961,0.71962 -3.98154,17.96446 -6.9664,25.55425 -3.44165,8.75129 -12.29112,25.8195 -17.0528,32.89019 l -3.31837,4.9275 -31.21598,-26.65885 z M 405.95833,261.25 c 2.7268,-2.50803 3.2914,-4.24582 6.41673,-19.75 6.70231,-33.24901 6.73983,-35.14995 0.77381,-39.20125 -2.41382,-1.63914 -5.49237,-1.79875 -34.69333,-1.79875 -35.44839,0 -35.78667,0.0568 -38.43575,6.45223 -1.12488,2.7157 -0.93941,4.58376 1.47218,14.82746 6.46848,27.47618 9.3543,36.56552 12.5316,39.47031 l 3.00798,2.75 H 380 402.96845 Z M 196.14332,122.06265 c 6.88379,-3.23576 11.20432,-7.36566 14.89487,-14.23767 3.04633,-5.67244 3.39819,-7.15033 3.41051,-14.32498 0.0171,-9.941419 -2.51323,-16.174379 -9.25383,-22.795285 -8.9744,-8.815043 -20.98752,-11.44526 -33.18499,-7.265702 -7.56635,2.592665 -15.97845,11.004908 -18.57056,18.570864 -2.50379,7.308167 -2.36192,17.11601 0.3358,23.214653 2.38648,5.39503 9.29601,13.23808 13.67301,15.52032 9.05244,4.72009 20.35308,5.23906 28.69519,1.3178 z"
         id="path2196" />
      <path
         style="fill:#20b019"
         d="M 0,256 V 0 H 256 512 V 256 512 H 256 0 Z m 153.98456,193.9447 c 30.67403,-7.3263 55.10892,-30.94271 64.60885,-62.4447 2.34943,-7.79078 2.74544,-10.99454 2.94739,-23.84492 l 0.23329,-14.84491 6.86296,-4.50593 c 3.77462,-2.47826 8.94824,-6.03555 11.49693,-7.90509 2.54868,-1.86953 4.91118,-3.39915 5.25,-3.39915 0.92484,0 0.76107,15.14403 -0.52368,48.4248 l -1.15519,29.9248 2.70321,2.3252 c 3.1515,2.71081 4.65263,2.86216 8.5252,0.85958 3.75769,-1.94318 4.20178,-3.84561 16.58185,-71.03438 9.06905,-49.21925 7.35948,-43.08729 15.35844,-55.08848 3.9064,-5.86095 10.04921,-16.4512 13.6507,-23.53389 C 304.126,257.79493 307.2341,252 307.43139,252 c 0.19729,0 2.01113,4.12855 4.03076,9.17455 2.01963,5.046 5.9157,14.08575 8.65795,20.08834 l 4.9859,10.9138 -7.8094,8.16166 c -9.28804,9.70699 -14.52907,17.37679 -19.10229,27.95458 -12.81139,29.63255 -7.81822,65.28865 12.76521,91.1562 18.52194,23.27683 50.13076,36.24252 79.41439,32.57516 37.51357,-4.69805 67.00023,-30.4876 76.73819,-67.11656 2.89041,-10.87216 3.16937,-30.85176 0.57609,-41.26116 -8.87572,-35.62709 -35.93789,-61.54032 -71.21281,-68.18942 -15.49387,-2.9205 -36.27987,-0.85381 -49.51414,4.92303 -1.24497,0.54344 -4.36983,-6.47488 -16.36681,-36.75928 -15.07187,-38.04644 -17.58147,-42.90672 -22.74872,-44.05687 -1.29014,-0.28717 -15.82867,-3.03068 -32.30784,-6.09669 -16.47918,-3.06601 -30.52868,-6.04475 -31.22113,-6.61943 C 243.6243,186.27323 232.35726,174.10968 219.27888,159.8178 192.73863,130.81498 190.43609,129 180.18247,129 c -13.23383,0 -21.81216,6.5153 -24.74776,18.79609 -1.67719,7.01636 -1.85218,39.14228 -0.40409,74.18667 1.33152,32.22324 -0.9955,28.61308 30.96938,48.04613 34.83978,21.18084 57,35.16466 57,35.96886 0,1.95789 -14.75905,13.40467 -23.31914,18.08578 l -5.08578,2.78118 -3.41392,-6.15956 C 185.52077,274.40747 126.64938,259.91108 82.962437,289.1328 64.190413,301.6892 51.010443,320.77228 45.311809,343.64657 42.723537,354.03588 42.999143,374.00875 45.882446,385 c 9.255951,35.28401 39.176114,62.02246 74.907204,66.94156 8.99916,1.23891 23.23192,0.38273 33.19491,-1.99686 z M 123.7231,430.87552 C 104.45857,428.3956 86.851814,417.53288 76.14127,401.51928 65.338597,385.36795 61.714491,365.78503 66.096124,347.24017 66.712108,344.63308 69.253369,338.225 71.74337,333 79.657173,316.39374 94.792649,303.49179 113,297.83157 c 6.09855,-1.89589 9.74232,-2.33157 19.5,-2.33157 9.75768,0 13.40145,0.43568 19.5,2.33157 17.68942,5.49921 31.78192,16.98026 40.93695,33.35101 l 3.17787,5.68258 -6.80741,3.17944 c -18.12657,8.46613 -30.81334,11.67055 -49.80741,12.58034 -7.84127,0.37558 -14.2347,1.18791 -16.11144,2.04706 -6.79497,3.11066 -7.1234,12.73305 -0.63503,18.60495 3.3437,3.02601 13.09203,4.12717 24.83696,2.80558 12.1429,-1.36638 31.77526,-6.53126 43.89276,-11.54732 4.69709,-1.94436 8.7599,-3.53521 9.02846,-3.53521 1.00255,0 0.4364,8.34065 -1.07194,15.79216 -7.06466,34.90079 -40.30264,58.64222 -75.71667,54.08336 z m 248.2184,0.10405 c -8.14202,-0.9649 -19.31986,-4.78829 -26.7761,-9.15878 -3.11597,-1.82644 -9.11923,-6.75971 -13.34058,-10.96283 C 309.36,388.49016 305.69353,352.18731 323.25359,325.99163 327.34869,319.88266 333.43925,313 334.75005,313 c 0.46861,0 2.82169,3.4875 5.22907,7.75 10.40667,18.42605 26.97336,42.00564 34.89292,49.66355 3.32095,3.21123 4.70717,3.88873 7.72452,3.7753 4.21224,-0.15835 7.65802,-2.12157 10.00163,-5.69836 2.70168,-4.12329 1.11704,-8.65084 -5.51436,-15.75532 C 383.88285,349.30583 379.23256,343.35 376.74987,339.5 371.82224,331.85854 356,301.96653 356,300.2985 c 0,-0.56922 2.8125,-1.87069 6.25,-2.89216 9.5759,-2.84551 27.89263,-2.63919 37.75,0.42523 11.42866,3.55289 19.54172,8.53745 28.61468,17.5805 6.77893,6.75659 8.8599,9.65171 12.64195,17.58793 2.49,5.225 5.03126,11.63308 5.64725,14.24017 4.42427,18.72532 0.70213,38.43459 -10.31837,54.6373 -14.06732,20.68225 -39.41223,32.09228 -64.64401,29.1021 z M 236.25,251.95824 206,225.98135 v -17.5412 -17.5412 l 6.25,4.43555 c 3.4375,2.43955 11.1843,7.86229 17.21511,12.05052 L 240.43022,215 h 27.30394 27.30394 l -0.61414,2.75 c -3.35388,15.01801 -8.29597,28.54068 -14.95724,40.92642 -5.44704,10.12804 -11.29182,19.33424 -12.24745,19.29115 -0.3956,-0.0178 -14.33177,-11.72203 -30.96927,-26.00933 z m 168.66602,10.43229 c 3.82694,-2.26063 4.58062,-4.63793 9.53878,-30.08789 4.37769,-22.4705 4.43025,-24.57144 0.70778,-28.29391 -3.91945,-3.91945 -6.98456,-4.20709 -40.83364,-3.83199 l -29.17107,0.32326 -2.56362,2.40993 c -4.12932,3.88176 -4.15101,7.35614 -0.14818,23.73643 3.88621,15.90311 6.99152,27.14147 8.74306,31.64186 2.19264,5.63374 7.76123,6.6939 32.93495,6.27023 15.07927,-0.25378 18.08149,-0.56681 20.79194,-2.16792 z M 194.35958,122.96665 c 25.75099,-9.63468 27.73068,-45.45564 3.2036,-57.96665 -6.08994,-3.106417 -7.71626,-3.496507 -14.46236,-3.468936 -9.52811,0.03894 -15.9281,2.689127 -22.3961,9.274063 -6.52638,6.64436 -9.07985,12.866366 -9.14899,22.293169 -0.0497,6.768638 0.32644,8.347784 3.44427,14.462364 7.4792,14.66792 24.02392,21.1438 39.35958,15.40599 z"
         id="path2194" />
      <path
         style="fill:#08a802"
         d="M 0,256 V 0 H 256 512 V 256 512 H 256 0 Z m 154.07906,194.14451 c 22.27324,-5.80483 40.36889,-18.53996 52.84332,-37.18944 10.71776,-16.02322 15.54761,-32.94945 14.93236,-52.3306 l -0.3564,-11.22741 12.00083,-8.17015 12.00083,-8.17016 0.32599,4.72163 c 0.1793,2.59689 -0.1582,16.69423 -0.75,31.32742 -1.57035,38.82976 -1.49533,42.47486 0.92401,44.8942 4.20304,4.20304 11.15562,1.64259 12.97808,-4.77948 1.02831,-3.62359 10.36671,-52.25297 17.46644,-90.95587 l 3.52857,-19.23534 5.8614,-8.76466 c 7.65225,-11.44253 13.62602,-21.81533 17.93641,-31.14461 l 3.48203,-7.5364 3.46838,8.45818 c 1.90761,4.652 5.89621,13.85818 8.86357,20.45818 l 5.39518,12 -5.40423,5 c -26.90276,24.89048 -35.84681,63.93097 -22.54724,98.41792 8.44192,21.89062 27.6547,41.4099 49.28478,50.07101 12.83014,5.13743 19.82013,6.41902 34.68663,6.35967 16.02214,-0.064 24.61691,-2.0056 38.5,-8.69748 42.43141,-20.45264 61.69885,-71.28087 43.54799,-114.88121 -8.29686,-19.92995 -24.52389,-36.92082 -44.17268,-46.25199 -12.27763,-5.83062 -19.87114,-7.64591 -34.45671,-8.23713 -13.7655,-0.55798 -24.24328,0.83299 -34.24348,4.54599 l -4.67346,1.73522 -14.83201,-37.29588 c -11.52978,-28.99223 -15.53752,-38.01636 -18.00083,-40.53195 -3.12375,-3.19006 -3.6263,-3.32026 -35.33283,-9.15402 l -32.16402,-5.91793 -25.2748,-27.47087 C 191.82363,129.67859 190.37183,128.54393 179.5,128.61884 c -10.43937,0.0719 -18.60695,5.20184 -22.89692,14.38116 -1.93825,4.14731 -2.12725,6.53777 -2.41146,30.5 -0.38709,32.63663 1.0538,71.18739 2.78642,74.55051 2.83877,5.51018 9.00589,9.90162 44.97674,32.02672 20.69477,12.72903 38.46962,23.75993 39.49967,24.51312 1.76218,1.28854 1.58635,1.62169 -2.97652,5.63954 -7.22696,6.36374 -12.34101,10.11575 -18.59755,13.64442 l -5.61962,3.16944 -1.31691,-3.1793 C 210.54642,318.07652 202.2818,306.32528 196.64252,300.686 185.43534,289.47882 171.5774,281.19363 156.97251,276.96865 146.32549,273.88863 126.29117,273.15885 114.9186,275.43679 98.640203,278.69736 84.132,286.33066 71.349548,298.36007 51.813153,316.74554 42.143059,340.41023 43.301242,367 c 1.156394,26.54867 12.966288,49.8579 33.547673,66.21317 11.73941,9.32888 25.262905,15.46608 40.492655,18.37627 9.47729,1.81097 26.86919,1.12693 36.73749,-1.44493 z M 115.21553,428.98135 C 95.947389,423.93312 80.429055,410.98246 71.501171,392.5 66.402359,381.94447 64.754774,374.71637 64.781005,363.01806 64.839866,336.76725 79.233287,313.68559 102.5,302.53093 c 20.81553,-9.97951 39.86202,-9.93288 60.47827,0.14806 7.79558,3.81189 10.90489,6.07147 17.51418,12.72785 4.81291,4.8472 9.33372,10.55575 11.27173,14.23314 1.7797,3.37699 3.23582,6.40801 3.23582,6.7356 0,0.86987 -10.41188,5.9161 -18.5,8.96622 -10.61274,4.00219 -23.59363,6.47505 -38,7.239 -17.24829,0.91466 -20.5,2.64412 -20.5,10.90312 0,4.87903 2.35898,9.11339 6.26693,11.24915 2.66066,1.4541 5.5347,1.7458 16.23307,1.64758 11.48937,-0.10548 14.56873,-0.53392 26.5,-3.68696 11.05743,-2.92211 21.62385,-6.59076 32.88344,-11.41708 1.13887,-0.48816 1.25858,0.62827 0.67719,6.3152 -2.63835,25.80718 -15.77098,45.40881 -37.91046,56.58478 -13.48051,6.80494 -32.46189,8.72761 -47.43464,4.80476 z m 248.15714,0.0399 c -22.03231,-5.77636 -40.10341,-22.39278 -47.39181,-43.5769 -5.77415,-16.78284 -4.51802,-35.59061 3.46925,-51.94436 3.82004,-7.82145 13.33303,-20.5 15.38159,-20.5 0.36946,0 1.79596,2.13176 3.17002,4.73725 7.24626,13.74038 25.00254,39.97528 33.34198,49.26275 6.38708,7.11318 9.03219,8.50356 13.58333,7.14001 5.08476,-1.52343 9.07297,-5.62995 9.07297,-9.34212 0,-3.98128 -1.33607,-6.22701 -8.12571,-13.65809 C 379.2113,343.84733 372.06266,332.2109 362.60613,313.26427 358.97276,305.98463 356,299.84561 356,299.622 c 0,-0.22361 3.2625,-1.24254 7.25,-2.26428 8.62189,-2.20925 24.55339,-2.44343 32.75,-0.4814 8.7189,2.08706 22.8808,9.4141 29.268,15.14259 14.79095,13.26557 22.9069,31.30716 22.951,51.01959 0.0256,11.46921 -1.64037,18.71946 -6.76991,29.4615 -8.86768,18.57028 -24.54705,31.53779 -44.21553,36.56814 -9.84589,2.51816 -24.15281,2.49835 -33.86089,-0.0469 z M 236.25,251.73575 206,225.65882 V 208.82941 C 206,199.57323 206.23202,192 206.51559,192 c 0.28357,0 7.91697,5.175 16.96309,11.5 l 16.44751,11.5 h 27.17283 27.17283 l -0.63216,4.6121 c -0.93402,6.81444 -6.92665,24.00698 -11.69042,33.53922 -5.14944,10.30397 -13.8449,24.88141 -14.76639,24.75503 -0.37558,-0.0515 -14.29538,-11.82828 -30.93288,-26.1706 z m 165.15096,12.31166 c 6.84449,-1.58767 7.37144,-2.74004 12.19454,-26.66781 2.42564,-12.03378 4.48343,-23.58503 4.57287,-25.66945 0.18108,-4.22012 -2.34417,-8.43053 -6.26477,-10.44541 -3.08083,-1.5833 -60.55128,-1.768 -66.152,-0.2126 -4.20795,1.16861 -6.7516,4.89373 -6.7516,9.8876 0,2.55321 7.41333,33.11934 10.95293,45.16035 1.28914,4.38539 3.89288,6.88171 8.25611,7.91547 4.63549,1.09827 38.48693,1.12323 43.19192,0.0319 z M 196,122.43139 c 6.80441,-3.15361 12.34979,-8.38368 15.83159,-14.93139 2.33945,-4.39946 2.65938,-6.14103 2.6636,-14.5 0.004,-8.666025 -0.25559,-9.970134 -2.96149,-14.855407 -10.6092,-19.154035 -35.79339,-22.937536 -51.06002,-7.670909 -11.73572,11.735726 -12.59595,30.845546 -1.94846,43.284746 6.56946,7.67494 14.29526,11.13585 24.97478,11.18791 5.4473,0.0266 8.21998,-0.5313 12.5,-2.51495 z"
         id="path2192" />
    </g>
    <g
       aria-label="Multicycles"
       id="text2208"
       style="font-size:40px"
       transform="matrix(2.2417252,0,0,2.2417252,-19.376145,-807.39007)">
      <path
         d="M 42.821636,642.16949 H 38.954449 V 617.1109 l -8.085938,17.05078 H 28.563824 L 20.53648,617.1109 v 25.05859 h -3.613281 v -29.08203 h 5.273437 l 7.753906,16.19141 7.5,-16.19141 h 5.371094 z"
         id="path2212" />
      <path
         d="M 68.427105,642.16949 H 64.75523 v -2.42187 q -1.855469,1.46484 -3.554688,2.24609 -1.699218,0.78125 -3.75,0.78125 -3.4375,0 -5.351562,-2.08984 -1.914063,-2.10938 -1.914063,-6.17188 v -14.16015 h 3.671875 v 12.42187 q 0,1.66016 0.15625,2.85157 0.15625,1.17187 0.664063,2.01171 0.527344,0.85938 1.367187,1.25 0.839844,0.39063 2.441407,0.39063 1.425781,0 3.105468,-0.74219 1.699219,-0.74219 3.164063,-1.89453 v -16.28906 h 3.671875 z"
         id="path2214" />
      <path
         d="M 79.364605,642.16949 H 75.69273 v -30.39062 h 3.671875 z"
         id="path2216" />
      <path
         d="m 97.958355,641.97418 q -1.035156,0.27344 -2.265625,0.44922 -1.210938,0.17578 -2.167969,0.17578 -3.339844,0 -5.078125,-1.79687 -1.738281,-1.79688 -1.738281,-5.76172 v -11.60156 h -2.480469 v -3.08594 h 2.480469 v -6.26953 h 3.671875 v 6.26953 h 7.578125 v 3.08594 H 90.38023 v 9.9414 q 0,1.71875 0.07813,2.69531 0.07813,0.95704 0.546875,1.79688 0.429687,0.78125 1.171875,1.15234 0.761719,0.35157 2.304687,0.35157 0.898438,0 1.875,-0.25391 0.976563,-0.27344 1.40625,-0.44922 h 0.195313 z"
         id="path2218" />
      <path
         d="m 106.33726,616.70074 h -4.14062 v -3.80859 h 4.14062 z m -0.23437,25.46875 h -3.67188 v -21.8164 h 3.67188 z"
         id="path2220" />
      <path
         d="m 129.50132,640.80231 q -1.83593,0.8789 -3.49609,1.36718 -1.64063,0.48829 -3.49609,0.48829 -2.36329,0 -4.33594,-0.6836 -1.97266,-0.70312 -3.37891,-2.10937 -1.42578,-1.40625 -2.20703,-3.55469 -0.78125,-2.14844 -0.78125,-5.01953 0,-5.35156 2.92969,-8.39844 2.94922,-3.04687 7.77344,-3.04687 1.875,0 3.67187,0.52734 1.81641,0.52734 3.32031,1.28906 v 4.08203 h -0.19531 q -1.67969,-1.30859 -3.47656,-2.01172 -1.77735,-0.70312 -3.47656,-0.70312 -3.125,0 -4.94141,2.10937 -1.79688,2.08985 -1.79688,6.15235 0,3.94531 1.75782,6.07422 1.77734,2.10937 4.98047,2.10937 1.11328,0 2.26562,-0.29297 1.15234,-0.29297 2.07031,-0.76172 0.80078,-0.41015 1.50391,-0.85937 0.70312,-0.46875 1.11328,-0.80078 h 0.19531 z"
         id="path2222" />
      <path
         d="m 153.07554,620.35309 -12.73437,29.86328 h -3.92578 l 4.0625,-9.10156 -8.69141,-20.76172 h 3.98437 l 6.69922,16.17187 6.75782,-16.17187 z"
         id="path2224" />
      <path
         d="m 173.66148,640.80231 q -1.83594,0.8789 -3.49609,1.36718 -1.64063,0.48829 -3.4961,0.48829 -2.36328,0 -4.33594,-0.6836 -1.97265,-0.70312 -3.3789,-2.10937 -1.42578,-1.40625 -2.20703,-3.55469 -0.78125,-2.14844 -0.78125,-5.01953 0,-5.35156 2.92968,-8.39844 2.94922,-3.04687 7.77344,-3.04687 1.875,0 3.67188,0.52734 1.8164,0.52734 3.32031,1.28906 v 4.08203 h -0.19531 q -1.67969,-1.30859 -3.47657,-2.01172 -1.77734,-0.70312 -3.47656,-0.70312 -3.125,0 -4.9414,2.10937 -1.79688,2.08985 -1.79688,6.15235 0,3.94531 1.75781,6.07422 1.77735,2.10937 4.98047,2.10937 1.11328,0 2.26563,-0.29297 1.15234,-0.29297 2.07031,-0.76172 0.80078,-0.41015 1.50391,-0.85937 0.70312,-0.46875 1.11328,-0.80078 h 0.19531 z"
         id="path2226" />
      <path
         d="m 182.07945,642.16949 h -3.67188 v -30.39062 h 3.67188 z"
         id="path2228" />
      <path
         d="m 207.60679,631.64215 h -16.07422 q 0,2.01172 0.60547,3.51563 0.60547,1.48437 1.66016,2.4414 1.01562,0.9375 2.40234,1.40625 1.40625,0.46875 3.08594,0.46875 2.22656,0 4.47266,-0.8789 2.26562,-0.89844 3.22265,-1.75782 h 0.19531 v 4.00391 q -1.85546,0.78125 -3.78906,1.30859 -1.93359,0.52735 -4.0625,0.52735 -5.42969,0 -8.47656,-2.92969 -3.04688,-2.94922 -3.04688,-8.35938 0,-5.35156 2.91016,-8.49609 2.92969,-3.14453 7.69531,-3.14453 4.41407,0 6.79688,2.57812 2.40234,2.57813 2.40234,7.32422 z m -3.57422,-2.8125 q -0.0195,-2.89062 -1.46484,-4.47266 -1.42578,-1.58203 -4.35547,-1.58203 -2.94922,0 -4.70703,1.73828 -1.73828,1.73829 -1.97266,4.31641 z"
         id="path2230" />
      <path
         d="m 228.75914,635.88043 q 0,2.98828 -2.48047,4.90235 -2.46094,1.91406 -6.73828,1.91406 -2.42188,0 -4.45313,-0.56641 -2.01172,-0.58594 -3.37891,-1.26953 v -4.12109 h 0.19532 q 1.73828,1.30859 3.86718,2.08984 2.12891,0.76172 4.08204,0.76172 2.42187,0 3.78906,-0.78125 1.36719,-0.78125 1.36719,-2.46094 0,-1.28906 -0.74219,-1.95312 -0.74219,-0.66407 -2.85156,-1.13282 -0.78125,-0.17578 -2.05079,-0.41015 -1.25,-0.23438 -2.28515,-0.50781 -2.8711,-0.76172 -4.08203,-2.22657 -1.19141,-1.48437 -1.19141,-3.63281 0,-1.34766 0.54688,-2.53906 0.5664,-1.19141 1.69921,-2.12891 1.09375,-0.91797 2.77344,-1.44531 1.69922,-0.54688 3.78906,-0.54688 1.95313,0 3.94532,0.48829 2.01172,0.46875 3.33984,1.15234 v 3.92578 h -0.19531 q -1.40625,-1.03516 -3.41797,-1.73828 -2.01172,-0.72266 -3.94531,-0.72266 -2.01172,0 -3.39844,0.78125 -1.38672,0.76172 -1.38672,2.28516 0,1.34766 0.83984,2.03125 0.82032,0.68359 2.65625,1.11328 1.01563,0.23438 2.26563,0.46875 1.26953,0.23438 2.10937,0.42969 2.5586,0.58594 3.94532,2.01172 1.38672,1.44531 1.38672,3.82812 z"
         id="path2232" />
    </g>
  </g>
</svg>
