<?xml version="1.0" encoding="UTF-8" standalone="no"?>
<svg
   version="1.1"
   id="svg4"
   width="38.208984"
   height="8.9648438"
   xmlns="http://www.w3.org/2000/svg"
   xmlns:svg="http://www.w3.org/2000/svg">
  <defs
     id="defs8" />
  <g
     aria-label="navitia"
     id="text2"
     transform="translate(-1.0839844,8.7832031)">
    <path
       d="M 6.5566406,0 H 5.4550781 v -3.7265625 q 0,-0.4511719 -0.052734,-0.84375 Q 5.3496094,-4.96875 5.2089844,-5.1914062 5.0625,-5.4375 4.7871094,-5.5546875 4.5117187,-5.6777344 4.0722656,-5.6777344 q -0.4511718,0 -0.9433593,0.2226563 -0.4921875,0.2226562 -0.9433594,0.5683594 V 0 H 1.0839844 v -6.5449219 h 1.1015625 v 0.7265625 q 0.515625,-0.4277343 1.0664062,-0.6679687 0.5507813,-0.2402344 1.1308594,-0.2402344 1.0605469,0 1.6171875,0.6386719 0.5566406,0.6386719 0.5566406,1.8398437 z"
       id="path10" />
    <path
       d="m 13.763672,0 h -1.095703 v -0.69726562 q -0.146485,0.0996094 -0.398438,0.28124999 -0.246093,0.17578125 -0.480468,0.28125001 Q 11.513672,0 11.15625,0.08789062 q -0.357422,0.09375 -0.837891,0.09375 -0.8847652,0 -1.4999996,-0.5859375 -0.6152344,-0.5859375 -0.6152344,-1.49414062 0,-0.7441406 0.3164063,-1.2011719 0.3222656,-0.4628906 0.9140625,-0.7265625 0.5976562,-0.2636718 1.4355472,-0.3574218 0.83789,-0.09375 1.798828,-0.140625 v -0.1699219 q 0,-0.375 -0.134766,-0.6210938 -0.128906,-0.2460937 -0.375,-0.3867187 -0.234375,-0.1347656 -0.5625,-0.1816406 -0.328125,-0.046875 -0.685547,-0.046875 -0.433593,0 -0.9667966,0.1171875 -0.5332031,0.1113281 -1.1015625,0.328125 h -0.058594 v -1.1191407 q 0.3222657,-0.087891 0.9316407,-0.1933593 0.6093754,-0.1054688 1.2011724,-0.1054688 0.691406,0 1.201172,0.1171875 0.515625,0.1113281 0.890625,0.3867188 0.36914,0.2695312 0.5625,0.6972656 0.193359,0.4277344 0.193359,1.0605469 z m -1.095703,-1.6113281 v -1.8222657 q -0.503906,0.029297 -1.189453,0.087891 -0.679688,0.058594 -1.078125,0.1699218 -0.4746097,0.1347657 -0.7675785,0.421875 -0.2929687,0.28125 -0.2929687,0.7792969 0,0.5625 0.3398437,0.8496094 0.3398435,0.28125 1.0371095,0.28125 0.580078,0 1.060547,-0.2226562 0.480469,-0.2285157 0.890625,-0.5449222 z"
       id="path12" />
    <path
       d="M 21.451172,-6.5449219 18.802734,0 h -1.107422 l -2.630859,-6.5449219 h 1.195313 l 2.027343,5.2089844 2.009766,-5.2089844 z"
       id="path14" />
    <path
       d="m 24.076172,-7.640625 h -1.242188 v -1.1425781 h 1.242188 z M 24.005859,0 h -1.101562 v -6.5449219 h 1.101562 z"
       id="path16" />
    <path
       d="m 29.583984,-0.05859375 q -0.310547,0.08203125 -0.679687,0.13476562 -0.363281,0.05273438 -0.650391,0.05273438 -1.001953,0 -1.523437,-0.5390625 -0.521485,-0.5390625 -0.521485,-1.72851565 v -3.4804687 h -0.74414 v -0.9257813 h 0.74414 v -1.8808594 h 1.101563 v 1.8808594 h 2.273437 v 0.9257813 h -2.273437 v 2.9824218 q 0,0.515625 0.02344,0.8085938 0.02344,0.2871094 0.164063,0.5390625 0.128906,0.234375 0.351562,0.34570312 0.228516,0.10546875 0.691407,0.10546875 0.269531,0 0.5625,-0.0761719 0.292968,-0.0820313 0.421875,-0.13476557 h 0.05859 z"
       id="path18" />
    <path
       d="m 32.097656,-7.640625 h -1.242187 v -1.1425781 h 1.242187 z M 32.027344,0 h -1.101563 v -6.5449219 h 1.101563 z"
       id="path20" />
    <path
       d="m 39.292969,0 h -1.095703 v -0.69726562 q -0.146485,0.0996094 -0.398438,0.28124999 -0.246094,0.17578125 -0.480469,0.28125001 Q 37.042969,0 36.685547,0.08789062 q -0.357422,0.09375 -0.837891,0.09375 -0.884765,0 -1.5,-0.5859375 -0.615234,-0.5859375 -0.615234,-1.49414062 0,-0.7441406 0.316406,-1.2011719 0.322266,-0.4628906 0.914063,-0.7265625 0.597656,-0.2636718 1.435546,-0.3574218 0.837891,-0.09375 1.798829,-0.140625 v -0.1699219 q 0,-0.375 -0.134766,-0.6210938 -0.128906,-0.2460937 -0.375,-0.3867187 -0.234375,-0.1347656 -0.5625,-0.1816406 -0.328125,-0.046875 -0.685547,-0.046875 -0.433594,0 -0.966797,0.1171875 -0.533203,0.1113281 -1.101562,0.328125 H 34.3125 v -1.1191407 q 0.322266,-0.087891 0.931641,-0.1933593 0.609375,-0.1054688 1.201171,-0.1054688 0.691407,0 1.201172,0.1171875 0.515625,0.1113281 0.890625,0.3867188 0.369141,0.2695312 0.5625,0.6972656 0.19336,0.4277344 0.19336,1.0605469 z m -1.095703,-1.6113281 v -1.8222657 q -0.503907,0.029297 -1.189454,0.087891 -0.679687,0.058594 -1.078125,0.1699218 -0.474609,0.1347657 -0.767578,0.421875 -0.292968,0.28125 -0.292968,0.7792969 0,0.5625 0.339843,0.8496094 0.339844,0.28125 1.03711,0.28125 0.580078,0 1.060547,-0.2226562 0.480468,-0.2285157 0.890625,-0.5449222 z"
       id="path22" />
  </g>
</svg>
