<?xml version="1.0" encoding="UTF-8" standalone="no"?>
<svg
   version="1.1"
   id="svg4"
   width="24.960938"
   height="9.0878906"
   xmlns="http://www.w3.org/2000/svg"
   xmlns:svg="http://www.w3.org/2000/svg">
  <defs
     id="defs8" />
  <g
     aria-label="NCO"
     id="text2"
     transform="translate(-1.171875,8.90625)">
    <path
       d="M 7.828125,0 H 6.3925781 L 2.2558594,-7.8046875 V 0 H 1.171875 v -8.7246094 h 1.7988281 l 3.7734375,7.125 v -7.125 H 7.828125 Z"
       id="path10" />
    <path
       d="m 16.886719,-0.6328125 q -0.322266,0.140625 -0.585938,0.26367187 -0.257812,0.12304688 -0.679687,0.25781251 Q 15.263672,0 14.841797,0.07617187 q -0.416016,0.08203125 -0.919922,0.08203125 -0.949219,0 -1.728516,-0.26367187 Q 11.419922,-0.375 10.845703,-0.94335938 10.283203,-1.5 9.9667969,-2.3554688 9.6503906,-3.2167969 9.6503906,-4.3535156 q 0,-1.078125 0.3046875,-1.9277344 0.3046879,-0.8496094 0.8789059,-1.4355469 0.556641,-0.5683594 1.341797,-0.8671875 0.791016,-0.2988281 1.751953,-0.2988281 0.703125,0 1.400391,0.1699219 0.703125,0.1699218 1.558594,0.5976562 v 1.3769532 h -0.08789 q -0.720703,-0.6035157 -1.429687,-0.8789063 -0.708985,-0.2753906 -1.517578,-0.2753906 -0.66211,0 -1.195313,0.2167969 -0.527344,0.2109375 -0.943359,0.6621093 -0.404297,0.4394532 -0.632813,1.1132813 -0.222656,0.6679687 -0.222656,1.546875 0,0.9199218 0.246094,1.5820312 0.251953,0.6621094 0.644531,1.078125 0.410156,0.4335938 0.955078,0.6445313 0.550781,0.2050781 1.160156,0.2050781 0.837891,0 1.570313,-0.2871094 0.732422,-0.2871093 1.371093,-0.8613281 h 0.08203 z"
       id="path12" />
    <path
       d="m 25.03125,-7.7226562 q 0.533203,0.5859375 0.814453,1.4355468 0.287109,0.8496094 0.287109,1.9277344 0,1.078125 -0.292968,1.9335937 -0.28711,0.8496094 -0.808594,1.4179688 -0.539063,0.59179687 -1.277344,0.890625 -0.732422,0.29882812 -1.675781,0.29882812 -0.919922,0 -1.675781,-0.30468749 -0.75,-0.30468751 -1.277344,-0.88476563 -0.527344,-0.5800781 -0.814453,-1.4238281 -0.28125,-0.84375 -0.28125,-1.9277344 0,-1.0664062 0.28125,-1.9101562 0.28125,-0.8496094 0.820312,-1.453125 0.515625,-0.5742188 1.277344,-0.8789063 0.767578,-0.3046875 1.669922,-0.3046875 0.9375,0 1.681641,0.3105469 0.75,0.3046875 1.271484,0.8730469 z m -0.105469,3.3632812 q 0,-1.6992187 -0.761719,-2.6191406 -0.761718,-0.9257813 -2.080078,-0.9257813 -1.330078,0 -2.091797,0.9257813 -0.755859,0.9199219 -0.755859,2.6191406 0,1.7167969 0.773438,2.6308594 0.773437,0.9082031 2.074218,0.9082031 1.300782,0 2.06836,-0.9082031 0.773437,-0.9140625 0.773437,-2.6308594 z"
       id="path14" />
  </g>
</svg>
