<?xml version="1.0" encoding="UTF-8" standalone="no"?>
<!-- Created with Inkscape (http://www.inkscape.org/) -->

<svg
   version="1.1"
   id="svg1098"
   width="222.46094"
   height="252.1241"
   viewBox="0 0 222.46094 252.1241"
   sodipodi:docname="NeonTreeEvaluation.svg"
   inkscape:version="1.2.2 (b0a84865, 2022-12-01)"
   xmlns:inkscape="http://www.inkscape.org/namespaces/inkscape"
   xmlns:sodipodi="http://sodipodi.sourceforge.net/DTD/sodipodi-0.dtd"
   xmlns="http://www.w3.org/2000/svg"
   xmlns:svg="http://www.w3.org/2000/svg">
  <defs
     id="defs1102" />
  <sodipodi:namedview
     id="namedview1100"
     pagecolor="#ffffff"
     bordercolor="#666666"
     borderopacity="1.0"
     inkscape:showpageshadow="2"
     inkscape:pageopacity="0.0"
     inkscape:pagecheckerboard="0"
     inkscape:deskcolor="#d1d1d1"
     showgrid="false"
     inkscape:zoom="1.18"
     inkscape:cx="111.86441"
     inkscape:cy="109.74576"
     inkscape:window-width="1236"
     inkscape:window-height="777"
     inkscape:window-x="0"
     inkscape:window-y="25"
     inkscape:window-maximized="0"
     inkscape:current-layer="g1104" />
  <g
     inkscape:groupmode="layer"
     inkscape:label="Image"
     id="g1104"
     transform="translate(7.1106987,0.0094289)">
    <g
       id="g1225">
      <path
         style="fill:#cccccc"
         d="M 25.25,199.29427 C 24.0125,199.05591 23,198.4422 23,197.93045 23,197.4187 22.425008,197 21.722241,197 20.274128,197 17.794638,194.36514 16.50489,191.45572 16.028055,190.38007 15.058804,181.175 14.350999,171 13.165393,153.95642 11.181177,132.80971 9.1433815,115.5 8.690138,111.65 7.7753649,103.325 7.1105524,97 6.4457399,90.675 5.4970321,83.667542 5.0023129,81.427871 4.5075937,79.188201 3.788392,71.988201 3.4040868,65.427871 3.0197817,58.867542 2.3417922,53.260893 1.8974435,52.968651 1.4530948,52.67641 0.77700856,42.959911 0.3950296,31.376431 -0.24023775,12.112003 -0.14534061,10.054626 1.5075704,7.2564709 5.6578465,0.23061339 19.046542,-2.466514 24.532892,2.6180633 c 3.422505,3.1718713 5.374984,11.7885207 5.430353,23.9651557 0.02022,4.44577 0.498386,10.52077 1.062602,13.5 C 31.590062,43.062448 32.488876,50.675 33.023211,57 c 1.722951,20.394814 3.565782,37.461153 4.211237,39 0.346038,0.825 0.946952,6 1.335363,11.5 0.388411,5.5 0.814468,9.55 0.946793,9 0.132324,-0.55 0.725253,-2.8 1.31762,-5 0.592367,-2.2 1.322113,-5.575 1.621657,-7.5 0.561037,-3.60546 4.403426,-9 6.410468,-9 C 49.489857,95 50,94.577573 50,94.061273 c 0,-0.5163 1.97699,-1.235195 4.393311,-1.597545 C 60.177972,91.596265 69,95.500847 69,98.928571 69,99.517857 69.365675,100 69.812612,100 70.778186,100 75,109.36717 75,111.50954 c 0,0.81975 0.3375,1.49431 0.75,1.49901 0.4125,0.005 1.592598,2.8172 2.62244,6.25 3.977191,13.25727 4.29699,14.04528 4.978864,12.26835 C 83.708087,130.59714 84,128.07323 84,125.91821 84,123.7632 84.379101,122 84.842446,122 c 0.463345,0 1.365243,-4.8375 2.004217,-10.75 0.638974,-5.9125 1.822607,-16.6 2.630296,-23.75 0.807689,-7.15 1.927282,-17.95 2.487985,-24 0.560703,-6.05 1.27819,-11.9 1.594416,-13 0.316226,-1.1 0.993541,-5.15 1.505143,-9 C 96.58925,30.025719 98.449927,20.206233 99.25,19.411583 c 0.4125,-0.409704 0.76497,-1.457416 0.78327,-2.32825 C 100.07379,15.154909 103.40479,11 104.91029,11 105.50963,11 106,10.621229 106,10.158288 c 0,-0.4629422 1.73971,-1.3629422 3.86602,-2.0000004 5.08656,-1.5239712 66.03797,-1.6147838 69.35525,-0.1033336 5.66468,2.581003 8.53708,12.190024 5.79773,19.39508 C 183.42116,31.652662 178.30934,36 174.96552,36 173.33448,36 172,36.45 172,37 c 0,0.638167 -8.46404,1 -23.39213,1 h -23.39213 l -0.72705,10.25 c -0.39988,5.6375 -1.05518,10.475 -1.45622,10.75 -0.40104,0.275 -1.01035,4.8875 -1.35402,10.25 L 121.05358,79 h 24.06884 c 22.73009,0 24.23039,0.115031 26.97321,2.068094 1.5974,1.137452 2.90437,2.712452 2.90437,3.5 C 175,85.355642 175.45,86 176,86 c 1.57771,0 1.16486,10.362263 -0.5498,13.799373 -0.85239,1.708657 -2.91192,4.252797 -4.57673,5.653637 L 167.84655,108 h -25.34368 -25.34368 l -0.64825,6.75 c -0.35654,3.7125 -1.04537,7.875 -1.53074,9.25 -0.48538,1.375 -1.18414,5.65 -1.5528,9.5 -0.36867,3.85 -1.00578,7.45 -1.4158,8 -0.41002,0.55 -1.05107,3.40176 -1.42456,6.33725 -0.37349,2.93549 -1.05544,6.08549 -1.51544,7 -0.46,0.91451 -1.35993,3.68775 -1.99985,6.16275 -0.63992,2.475 -1.54546,5.9625 -2.01231,7.75 l -0.84882,3.25 h 29.66029 c 26.98814,0 29.97221,0.16728 33.12252,1.85681 7.07329,3.79345 8.83604,11.5966 4.47327,19.80184 -1.39331,2.62046 -3.08081,5.11238 -3.75,5.5376 -0.66918,0.42522 -22.60419,0.78002 -48.74446,0.78844 C 74.931617,199.99888 71.335012,199.8716 69.95247,198.25 67.940033,195.88959 64,185.40552 64,182.41102 64,181.08496 63.58238,180 63.071956,180 c -0.510424,0 -1.24095,-2.5875 -1.623392,-5.75 -0.382442,-3.1625 -1.050004,-6.2 -1.483471,-6.75 -0.433467,-0.55 -0.949687,-2.35 -1.147156,-4 -0.342478,-2.86168 -0.483696,-2.73611 -3.06275,2.72337 -1.487044,3.14786 -2.989081,6.86036 -3.33786,8.25 C 52.068548,175.86302 51.417722,177 50.971047,177 c -0.446675,0 -1.108646,1.35 -1.471047,3 -0.362401,1.65 -1.037401,3 -1.5,3 -0.462599,0 -1.137599,1.35 -1.5,3 -0.362401,1.65 -1.073156,3 -1.579455,3 C 44.414245,189 44,189.81457 44,190.81016 c 0,0.99559 -1.348012,3.18894 -2.995583,4.87412 -3.778162,3.86439 -8.644366,4.97944 -15.754417,3.60999 z"
         id="path1239" />
      <path
         style="fill:#afafaf"
         d="M 71.476902,199.23469 C 69.869808,198.08063 67,193.21833 67,191.64949 c 0,-0.78148 -0.672228,-2.70981 -1.493839,-4.28518 -0.821612,-1.57537 -1.496612,-4.07525 -1.5,-5.55529 -0.0034,-1.48004 -0.424667,-2.94964 -0.936174,-3.26577 -0.511507,-0.31612 -1.239101,-3.04863 -1.616875,-6.07223 -0.377773,-3.0236 -1.084267,-5.74306 -1.569986,-6.04325 -0.48572,-0.30019 -0.897438,-1.98175 -0.914929,-3.73679 -0.03061,-3.07069 -0.08949,-3.11559 -1.562094,-1.19098 -0.841659,1.1 -1.783597,3.2375 -2.093196,4.75 C 55.003308,167.7625 54.35625,169 53.875,169 53.39375,169 53,169.71807 53,170.59571 c 0,0.87764 -0.616965,2.79014 -1.371032,4.25 -0.754068,1.45986 -3.335531,6.63696 -5.736584,11.50466 C 40.706511,196.86379 38.19932,199 31.04597,199 23.457855,199 18.157192,195.6981 16.597952,190 16.221694,188.625 15.249307,178.5 14.437092,167.5 13.040337,148.58346 12.197957,140.00792 8.5923739,108 7.755973,100.575 6.6220309,90.225 6.0725025,85 5.5229742,79.775 4.7919925,73.933712 4.4480987,72.01936 4.1042049,70.105008 3.4105612,63.805008 2.9066683,58.01936 2.4027754,52.233712 1.5746186,43.45 1.0663199,38.5 -0.51417966,23.108514 -0.25532708,10.814392 1.7090759,7.9725062 4.0770278,4.5468093 4.9788488,3.769391 9.1005159,1.6006865 14.061331,-1.0095539 21.256587,-0.19795851 24.829384,3.3748386 27.798104,6.3435585 28.248896,9.0717689 29.972302,34.5 30.568724,43.3 31.493947,52.386769 32.028353,54.69282 32.562759,56.998871 33,60.914222 33,63.393599 c 0,2.479377 0.45199,6.667608 1.004423,9.30718 0.552432,2.639572 1.42578,9.524221 1.940773,15.299221 0.514994,5.775 1.483707,15.19834 2.152696,20.94075 l 1.216344,10.44075 1.327702,-4.44075 c 0.730235,-2.44241 1.334532,-5.91219 1.342881,-7.71062 0.02165,-4.6625 4.386127,-11.069348 8.795808,-12.91183 4.565571,-1.907618 11.484553,-1.254939 15.083609,1.42286 C 68.674001,97.831704 75,109.24003 75,112.21662 75,113.19748 75.410446,114 75.912102,114 c 0.501656,0 1.215812,1.79764 1.587013,3.99476 0.3712,2.19712 1.085754,4.24868 1.587897,4.55902 0.502144,0.31034 0.915498,1.3252 0.918565,2.25524 0.009,2.72531 2.086674,9.43206 2.724399,8.79434 1.149711,-1.14971 4.71868,-23.52704 6.236609,-39.10336 0.535982,-5.5 1.252273,-11.35 1.591758,-13 0.339486,-1.65 1.002123,-6.825 1.472528,-11.5 2.300531,-22.863274 5.600023,-44.997479 7.597308,-50.965541 1.742071,-5.205467 6.394691,-9.7658242 10.785591,-10.571716 1.69742,-0.3115407 17.96893,-0.4306064 36.15889,-0.2645903 35.63891,0.3252689 33.75201,0.0364 37.71826,5.7743533 3.63692,5.261503 1.26837,14.973644 -4.77604,19.58394 -3.19382,2.436051 -3.2786,2.443601 -27.60927,2.458867 -13.42309,0.0084 -24.8766,0.345922 -25.45226,0.75 -1.08663,0.762749 -3.03646,13.182862 -4.51105,28.734687 -0.46934,4.95 -1.10694,10.0125 -1.41688,11.25 l -0.56352,2.25 23.26905,0.0016 c 25.81648,0.0017 28.45141,0.538639 31.89132,6.498446 2.96399,5.135255 1.72978,13.823605 -2.56278,18.040924 C 168.09827,107.92395 167.57528,108 141.89413,108 h -24.66087 l -0.60297,2.25 c -0.33164,1.2375 -0.60913,4.36094 -0.61664,6.94098 -0.008,2.58004 -0.39722,4.92805 -0.86604,5.21779 -0.46881,0.28974 -1.13112,3.51177 -1.47181,7.16006 -0.34068,3.64829 -1.04473,8.05029 -1.56454,9.78221 -0.51982,1.73193 -1.85553,6.97396 -2.96826,11.64896 -1.11272,4.675 -2.67084,10.75 -3.46247,13.5 -0.79164,2.75 -1.60611,5.675 -1.80994,6.5 -0.32243,1.30508 3.69354,1.53434 30.9041,1.76428 l 31.27468,0.26428 2.82695,2.51882 c 6.05525,5.39526 5.96124,15.38824 -0.20324,21.60275 L 165.84615,200 119.17308,199.9847 c -25.670195,-0.008 -47.133474,-0.34592 -47.696178,-0.75 z"
         id="path1237" />
      <path
         style="fill:#8d8d8d"
         d="m 70.861858,198.25 c -2.381478,-2.87793 -3.497299,-5.79995 -7.943766,-20.80247 -0.497583,-1.67887 -1.334877,-5.05387 -1.860655,-7.5 -0.525777,-2.44614 -1.323072,-5.96548 -1.771766,-7.82076 -0.812378,-3.35905 -0.820771,-3.36325 -1.996137,-1 C 54.831493,166.06903 52,172.93072 52,173.94514 52,174.52531 51.55,175 51,175 c -0.55,0 -1,0.65973 -1,1.46607 0,1.41433 -2.977704,8.51163 -4,9.53393 -0.275,0.275 -1.566622,2.54784 -2.87027,5.05075 -1.303649,2.50292 -3.702617,5.31542 -5.33104,6.25 -3.750085,2.15226 -10.788562,2.18596 -14.476579,0.0693 -5.428159,-3.11533 -6.705989,-5.9967 -7.473474,-16.85187 C 13.83877,152.091 13.099219,143.23834 12.545615,140.97999 12.21125,139.616 11.533501,134 11.039505,128.5 10.54551,123 9.4142395,112.425 8.5255715,105 5.6998414,81.390459 3.9857263,65.803052 3.0271742,55 2.5147598,49.225 1.6277138,40.45 1.0559607,35.5 0.48420763,30.55 0.01271749,23.116961 0.00820483,18.982135 0.00121325,12.575933 0.37470764,10.912837 2.5340416,7.7350917 7.1393235,0.95781018 16.675784,-1.9901982 22.027494,1.7090759 27.83283,5.7219109 27.235393,3.1095356 29.869649,36 c 0.594681,7.425 1.51926,16.425 2.054618,20 0.535359,3.575 1.499298,11.675 2.142086,18 1.546292,15.215427 2.460581,23.347288 4.047587,36 1.314532,10.48036 1.319254,10.49252 2.524676,6.5 0.664224,-2.2 1.242264,-5.61836 1.284532,-7.59636 0.08686,-4.06469 2.438655,-9.487066 5.326672,-12.28134 4.449642,-4.305211 15.358575,-4.013905 19.903984,0.531504 C 69.199957,99.199957 75,110.04856 75,111.82961 c 0,0.51797 0.672228,2.23071 1.493839,3.80608 0.821612,1.57537 1.496612,3.80181 1.5,4.94764 0.0034,1.14584 0.343661,2.41797 0.756161,2.82697 0.4125,0.409 1.2,2.76104 1.75,5.22675 1.220441,5.47139 2.734102,5.73381 3.785434,0.65629 1.319,-6.37026 3.678001,-22.29326 4.7102,-31.79334 0.537825,-4.95 1.210562,-10.125 1.49497,-11.5 0.284408,-1.375 0.97814,-7.45 1.541627,-13.5 C 92.595719,66.45 93.674245,56.775 94.428956,51 97.82905,24.982696 99.725505,16.745133 103.16509,13.053176 107.63435,8.2559857 109.73153,8 144.56359,8 c 36.2982,0 36.66471,0.061498 39.8217,6.681774 C 187.16999,20.521351 185.98332,26.621631 181,32.08445 177.68999,35.712951 175.45655,36 150.53436,36 131.70677,36 125.85655,36.293202 125.59327,37.25 124.29715,41.960245 120.9901,67.870954 120.6475,76 L 120.5,79.5 145.52563,80 c 23.31618,0.465846 25.16361,0.636616 27.04554,2.5 2.39071,2.367155 4.42883,6.789139 4.42883,9.608978 0,1.10818 -1.11628,4.374505 -2.48063,7.258499 C 170.57328,107.70883 169.44515,108 141.07306,108 114.93751,108 116,107.74289 116,114.06744 c 0,1.59712 -0.43001,4.82282 -0.95558,7.16821 -0.52557,2.34539 -1.47038,7.18935 -2.09958,10.76435 -2.75729,15.66652 -5.03125,25.84991 -6.16209,27.59538 -0.39032,0.60246 -1.01022,2.97494 -1.37756,5.27217 -0.36734,2.29722 -1.05879,4.41836 -1.53654,4.71363 C 103.39089,169.87645 103,170.76648 103,171.55902 103,172.78299 107.71676,173 134.31989,173 h 31.31989 l 3.43011,3.06293 c 3.27991,2.92881 3.42775,3.35843 3.3762,9.81116 -0.0497,6.22307 -0.31514,7.0353 -3.41068,10.43707 L 165.67864,200 h -46.68433 c -43.242941,0 -46.791085,-0.129 -48.132452,-1.75 z"
         id="path1235" />
      <path
         style="fill:#6d6d6d"
         d="m 71.356415,198.61809 c -1.942616,-2.21824 -3.999922,-6.85541 -5.819913,-13.11809 -0.959009,-3.3 -2.178054,-7.35 -2.708988,-9 -0.530933,-1.65 -1.406959,-5.25 -1.946723,-8 -2.251658,-11.47179 -1.990904,-10.79026 -3.366927,-8.79999 -0.684455,0.99 -1.583801,2.92499 -1.998547,4.29999 -2.394367,7.93801 -13.579449,29.90529 -16.327516,32.06692 -5.166979,4.06434 -13.924101,3.26787 -19.314709,-1.75671 C 17.59231,192.1843 17.161711,190.78376 16.605073,183.68084 14.927452,162.27374 11.2137,124.44524 9.911528,115.5 9.3510781,111.65 8.4353594,104.225 7.8765976,99 7.3178357,93.775 6.2354415,83.65 5.471277,76.5 4.7071125,69.35 3.6184731,58.325 3.0520784,52 2.4856836,45.675 1.5672591,36.06482 1.0111349,30.644045 -0.62565248,14.689595 -0.40143191,11.854238 2.8522289,7.3626893 5.0168786,4.3744773 7.0491216,2.9682364 11.282416,1.5292953 16.640621,-0.29201454 17.013951,-0.29745756 20.758583,1.3911361 25.849912,3.6870056 28,7.461173 28,14.102393 c 0,2.911595 0.457569,8.917163 1.01682,13.345708 C 29.576071,31.876645 30.49847,41.125 31.066596,48 c 1.624891,19.663132 2.5683,29.129247 3.749402,37.621294 C 35.418686,89.954582 36.414565,97.775 37.029064,103 c 1.71386,14.57274 2.156612,17.00328 3.002153,16.48071 0.429778,-0.26562 1.065131,-2.84494 1.411895,-5.73183 1.149755,-9.57195 2.656592,-13.62924 6.225549,-16.762823 C 50.620373,94.39442 51.847385,94 56.958071,94 c 4.772753,0 6.434279,0.459261 8.769055,2.423846 3.151858,2.652113 8.029007,11.950424 10.792602,20.576154 0.969179,3.025 2.111232,6.22136 2.537895,7.10303 0.426663,0.88166 1.090166,3.69969 1.474452,6.26229 0.826537,5.51175 2.175674,6.8296 2.995033,2.92558 0.322159,-1.535 0.981854,-4.5909 1.46599,-6.7909 0.484136,-2.2 1.559111,-8.725 2.388834,-14.5 2.277513,-15.851858 3.460538,-26.007886 6.639642,-57 0.53597,-5.225 1.395855,-11.525 1.910856,-14 0.515001,-2.475 1.204211,-6.525 1.531577,-9 1.453765,-10.990966 2.997133,-15.432569 6.629743,-19.079543 1.97657,-1.984387 5.0703,-3.9032676 6.875,-4.264207 C 112.77344,8.2953125 128.41182,8 145.72071,8 c 35.51796,0 35.51383,-7.872e-4 38.55037,7.34089 2.22421,5.377623 2.19807,5.798486 -0.74346,11.971035 C 179.4532,35.861732 178.92,36 150.024,36 h -24.81393 l -0.48275,3.75 c -0.26552,2.0625 -0.99253,7.8 -1.61559,12.75 -0.62305,4.95 -1.57808,11.502088 -2.12228,14.560195 C 120.44525,70.118303 120,74.259156 120,76.262091 v 3.6417 l 25.27536,0.298104 c 24.1948,0.285361 25.37303,0.389171 27.55988,2.42822 1.6357,1.525146 2.44453,3.680491 2.84793,7.589053 0.71836,6.960222 -1.53005,12.027802 -6.81747,15.365612 C 165.09084,107.96774 164.71413,108 140.65977,108 h -24.37996 l -0.73533,5.75 c -2.32817,18.2057 -3.80511,26.53289 -6.13939,34.61483 -0.7728,2.67566 -1.40509,5.91161 -1.40509,7.19099 0,1.27938 -0.39808,2.57217 -0.88461,2.87287 -0.48654,0.30069 -1.18754,2.56676 -1.55778,5.0357 -0.37024,2.46895 -1.09717,4.75104 -1.61539,5.07132 C 103.424,168.85599 103,169.99148 103,171.05902 103,172.93799 103.97646,173 133.56574,173 c 20.86156,0 31.25921,0.36054 32.75,1.13561 3.67443,1.91036 5.4248,4.35295 6.0539,8.44807 0.81764,5.32243 -0.31167,9.41308 -3.79947,13.76261 L 165.64034,200 119.07017,199.962 c -37.030364,-0.0302 -46.804431,-0.30553 -47.713755,-1.34387 z"
         id="path1233" />
      <path
         style="fill:#4d4d4d"
         d="m 71.019083,197.75 c -2.7258,-4.19494 -3.828731,-6.60665 -4.54243,-9.93264 -0.391516,-1.82455 -0.994721,-3.76736 -1.340457,-4.31736 -0.649631,-1.03344 -2.531803,-8.63537 -4.085255,-16.5 -0.488872,-2.475 -1.332528,-5.625 -1.874792,-7 -0.977428,-2.47843 -1.00008,-2.46549 -2.625866,1.5 -2.629412,6.41347 -3.075298,7.38946 -9.137031,20 -7.463268,15.52622 -7.96567,16 -16.966705,16 -6.620492,0 -7.311799,-0.21141 -10.228253,-3.12786 -3.453271,-3.45327 -3.00588,-0.23593 -6.23975,-44.87214 -0.518013,-7.15 -1.400101,-14.88677 -1.960193,-17.19282 C 11.458258,130.00113 11,125.92128 11,123.24084 11,120.5604 10.55235,115.92217 10.005222,112.93366 9.4580945,109.94515 8.5532735,103 7.994509,97.5 7.4357445,92 6.3102126,81.65 5.4933269,74.5 4.2190103,63.346218 2.4896795,45.241462 0.31192698,20.254746 -0.53680762,10.516684 2.7300318,4.9024315 11.106665,1.7033662 15.400506,0.06353312 15.908263,0.06176451 20.251585,1.6715127 26.235452,3.8892902 27.239113,6.0939575 28.140271,19 c 0.950929,13.618853 3.489799,40.169169 5.354991,56 0.810014,6.875 1.905926,16.775 2.43536,22 1.44767,14.28709 3.35634,25.24335 4.144701,23.79165 0.385794,-0.71041 1.019971,-3.76665 1.409283,-6.79165 1.858828,-14.443319 5.987438,-20 14.859985,-20 10.718691,0 15.142412,6.30552 23.056755,32.86483 0.87926,2.95066 1.598654,6.25066 1.598654,7.33334 0,1.08267 0.5185,1.79566 1.152222,1.58442 1.412912,-0.47097 3.743519,-8.97772 3.803645,-13.88337 0.02427,-1.98042 0.488333,-4.90542 1.031245,-6.5 C 87.530023,113.80465 88.448866,108 89.028985,102.5 c 0.58012,-5.5 1.675217,-15.4 2.43355,-22 0.758333,-6.6 1.869557,-16.95 2.469387,-23 0.59983,-6.05 1.509438,-12.8 2.021352,-15 0.511913,-2.2 1.193463,-6.25 1.514555,-9 1.648372,-14.117541 4.141691,-20.036272 9.745121,-23.133326 2.94711,-1.628883 6.64292,-1.8518171 35.73638,-2.1556467 37.91986,-0.3960055 38.48833,-0.2881764 41.37834,7.8488587 1.49839,4.218798 1.50968,5.052999 0.12244,9.043798 -1.87899,5.405447 -3.08034,6.909359 -7.30622,9.146316 -2.88661,1.528012 -6.38965,1.75 -27.61552,1.75 h -24.30956 l -0.60937,3.75 c -0.33515,2.0625 -1.07593,7.8 -1.64618,12.75 -0.57024,4.95 -1.47026,10.918958 -2.00003,13.264351 C 120.43345,68.109744 120,72.272244 120,75.014351 V 80 h 24.48422 24.48423 l 3.26577,2.91821 c 3.06416,2.738045 3.26142,3.31369 3.19524,9.323977 -0.0842,7.649726 -1.91848,10.732043 -8.16856,13.726693 C 163.37378,107.83135 161.08299,108 139.67204,108 h -23.34976 l -1.24319,8.75 c -0.68376,4.8125 -1.68718,10.82926 -2.22984,13.37058 -0.54265,2.54132 -1.37492,7.04132 -1.84948,10 -1.15309,7.18894 -2.92102,14.9231 -3.97273,17.37942 -0.76149,1.7785 -2.09439,6.52999 -3.71693,13.25 l -0.54326,2.25 h 29.79557 c 31.68278,0 34.5312,0.35691 37.83044,4.74019 2.53891,3.37314 2.58044,12.12541 0.0757,15.94817 -4.32896,6.60683 -1.30631,6.24173 -51.97799,6.27837 L 72.481094,200 Z"
         id="path1231" />
      <path
         style="fill:#2d2d2d"
         d="m 71.782589,198.25 c -1.716898,-1.96713 -4.297083,-7.47938 -5.265927,-11.25 -0.3533,-1.375 -1.037838,-3.4 -1.521196,-4.5 -0.906337,-2.06259 -2.23366,-7.59963 -4.304484,-17.95649 -0.65504,-3.27607 -1.624641,-5.92423 -2.154668,-5.88479 -1.008801,0.0751 -1.345358,0.62909 -3.85215,6.34128 C 50.774199,173.90959 50,175.8766 50,176.90113 50,177.50551 49.55,178 49,178 c -0.55,0 -1,0.51692 -1,1.1487 0,1.90305 -6.354833,14.08349 -8.5,16.29213 -1.653479,1.7024 -3.245327,2.05917 -9.187601,2.05917 -6.851158,0 -7.323784,-0.15254 -10.096967,-3.2587 -2.826399,-3.16577 -2.942716,-3.72186 -4.07879,-19.5 C 13.661011,140.359 13.04664,133.34034 12.088959,128.5 11.544861,125.75 10.591447,118.55 9.9702622,112.5 9.3490774,106.45 8.4109527,97.9 7.8855407,93.5 5.3482392,72.251673 3.7867495,56.963362 2.4723231,40.5 1.6819122,30.6 0.74476535,20.993557 0.38977459,19.152348 -1.6803513,8.4153558 9.0677846,-0.94373991 20.067067,2.0180594 25.606744,3.5097393 28,8.4025878 28,18.236396 c 0,4.02384 0.436575,10.904267 0.970166,15.289838 C 29.503757,37.911805 30.440999,46.675 31.052925,53 c 0.611927,6.325 1.730563,17.125 2.485859,24 0.755296,6.875 2.040699,18.575 2.85645,26 2.337745,21.27823 3.638439,24.10296 5.41048,11.75 1.786106,-12.451 3.131096,-15.588389 8.166792,-19.050244 3.137275,-2.15676 10.368509,-2.2021 13.948315,-0.08746 2.895485,1.710405 7.631947,8.757604 8.672493,12.903474 C 72.93624,109.8821 73.618032,111 74.108408,111 74.598784,111 75,111.94449 75,113.09887 c 0,1.15438 0.611997,3.51688 1.359993,5.25 C 78.366163,122.99721 81,132.35697 81,134.83789 81,136.02705 81.461138,137 82.024751,137 c 1.43236,0 2.79219,-3.98653 3.482977,-10.21085 0.322851,-2.90903 1.024278,-6.86415 1.558727,-8.78915 0.534448,-1.925 1.44868,-8 2.031625,-13.5 2.854629,-26.932985 3.877784,-36.019506 5.404867,-48 2.416121,-18.955295 3.264838,-24.526109 4.418172,-29 0.567142,-2.2 1.041903,-5.4625 1.055024,-7.25 C 99.989265,18.4625 100.45,17 101,17 c 0.55,0 1,-0.574992 1,-1.277759 0,-2.103711 3.57377,-4.518185 9.12973,-6.1681263 4.21733,-1.2524113 10.8764,-1.5498512 34.30177,-1.5321527 37.81665,0.028571 39.24541,0.549982 38.8913,14.192908 -0.13584,5.233753 -2.43419,8.958381 -7.38623,11.969897 C 174.26793,35.807666 171.35831,36 149.47583,36 125.61169,36 125,36.050322 125,38.013569 c 0,1.107463 -0.42856,2.794963 -0.95235,3.75 -0.52379,0.955037 -1.45056,6.686431 -2.05948,12.736431 -0.60892,6.05 -1.45855,13.925 -1.88806,17.5 -0.4295,3.575 -0.60118,6.8375 -0.3815,7.25 0.21968,0.4125 10.97745,0.75 23.90615,0.75 15.59358,0 24.24202,0.382284 25.69098,1.135609 4.66267,2.424148 5.68426,4.46387 5.68426,11.349227 0,5.973213 -0.28643,6.883227 -3.16068,10.041814 -1.73837,1.91034 -3.96181,3.47335 -4.94098,3.47335 -0.97917,0 -2.05842,0.45 -2.39834,1 -0.38412,0.62153 -9.66195,1 -24.5137,1 h -23.89567 l -0.58154,3.25 c -0.31984,1.7875 -1.00783,6.175 -1.52887,9.75 -2.15243,14.76866 -3.5161,22.55653 -4.11487,23.5 -0.34905,0.55 -0.94772,3.025 -1.33037,5.5 -0.7049,4.55928 -1.03731,5.78664 -4.46173,16.47417 -1.05281,3.28579 -1.69843,6.32329 -1.43471,6.75 0.26372,0.42671 14.66255,0.77583 31.9974,0.77583 h 31.51791 l 2.92307,2.92308 c 2.58045,2.58044 2.92308,3.62556 2.92308,8.91614 0,5.55999 -0.27519,6.28819 -3.80813,10.07693 L 164.38373,200 h -45.53688 c -42.119924,0 -45.651485,-0.13131 -47.064261,-1.75 z"
         id="path1229" />
      <path
         style="fill:#000000"
         d="m 71.900289,197.25 c -1.336669,-1.5125 -3.305422,-5.45 -4.375008,-8.75 -1.069585,-3.3 -2.256962,-6.45 -2.638617,-7 -0.381654,-0.55 -1.014135,-3.5875 -1.405513,-6.75 -0.391379,-3.1625 -1.109747,-5.75 -1.596374,-5.75 -0.486627,0 -0.887287,-1.2375 -0.890354,-2.75 -0.0031,-1.5125 -0.488068,-4.48766 -1.07778,-6.61146 -0.979772,-3.52858 -1.181685,-3.70099 -2.342221,-2 -0.69851,1.0238 -2.108572,4.11146 -3.13347,6.86146 -1.024899,2.75 -2.440617,6.125 -3.146041,7.5 -0.705424,1.375 -1.285362,3.25 -1.28875,4.16667 -0.0034,0.91666 -0.343661,1.81666 -0.756161,2 -0.4125,0.18333 -2.512539,3.84719 -4.666753,8.14192 -2.154215,4.29472 -5.027401,8.68222 -6.384859,9.75 -4.436839,3.49002 -14.326079,2.10726 -18.185239,-2.54275 -1.730929,-2.08564 -3.932805,-17.69867 -3.977955,-28.20682 -0.01936,-4.50504 -0.421381,-8.42966 -0.893387,-8.72138 -0.472006,-0.29171 -1.18385,-6.94586 -1.581875,-14.78698 -0.398025,-7.84113 -1.024338,-14.71651 -1.391807,-15.27863 C 11.800656,125.95991 10.958108,119.65 10.295796,112.5 9.6334843,105.35 8.4025505,93.65 7.5603878,86.5 6.7182252,79.35 5.5914386,69 5.0564178,63.5 4.521397,58 3.618246,49.675 3.0494156,45 2.4805852,40.325 2.0117634,32.5625 2.0075893,27.75 2.0031124,22.588393 1.589898,19 1,19 0.45,19 0,17.875 0,16.5 0,15.125 0.45,14 1,14 1.55,14 2,12.943854 2,11.65301 2,6.4793186 8.51883,2 16.048192,2 20.612162,2 22.054637,2.4292565 23.825686,4.3144512 25.021559,5.5873994 26,7.6123994 26,8.8144512 26,10.016503 26.379649,11 26.843665,11 c 0.464016,0 1.145042,7.66607 1.51339,17.03571 0.368348,9.369641 1.102987,18.932141 1.63253,21.25 0.911016,3.987599 2.561474,19.775336 3.681318,35.21429 0.279255,3.85 0.877608,7.45 1.329672,8 0.452065,0.55 1.147812,6.7375 1.546106,13.75 0.398293,7.0125 1.113228,12.75 1.588744,12.75 C 38.610941,119 39,119.675 39,120.5 c 0,0.825 0.347677,1.5 0.772615,1.5 0.771655,0 2.569444,-6.94204 3.755086,-14.5 1.310201,-8.351973 6.45087,-13.5 13.480705,-13.5 3.150807,0 9.510877,3.10431 10.605766,5.176607 C 72.641125,108.69113 76,116.36771 76,118.34211 c 0,0.84692 0.390686,1.78131 0.868192,2.07643 0.477505,0.29511 1.165551,2.77818 1.528991,5.51792 0.363439,2.73974 1.097753,5.25139 1.631808,5.58146 C 80.563046,131.84798 81,133.66648 81,135.55902 81,137.45156 81.341754,139 81.759453,139 c 1.711108,0 3.133918,-4.15419 3.808177,-11.11877 0.393028,-4.05967 1.039606,-7.60623 1.43684,-7.88123 0.397235,-0.275 1.246129,-5.45 1.886432,-11.5 0.640303,-6.05 1.547448,-14.15 2.015878,-18 0.468429,-3.85 1.381016,-12.4 2.027971,-19 0.646954,-6.6 1.592617,-14.025 2.101472,-16.5 0.508856,-2.475 1.218428,-8.1 1.576828,-12.5 0.3584,-4.4 0.983445,-8.45 1.388989,-9 0.405545,-0.55 1.050164,-3.872858 1.432488,-7.384129 1.042002,-9.569719 5.008462,-14.963217 11.660322,-15.855419 2.17465,-0.2916816 4.1945,-0.9196077 4.48855,-1.3953911 C 116.35656,7.6140567 175,7.74724 175,9 c 0,0.55 0.87682,1 1.94848,1 1.07166,0 3.09666,1.064102 4.5,2.364671 2.1694,2.010531 2.55152,3.231938 2.55152,8.155609 0,4.672289 -0.49446,6.439206 -2.55967,9.146842 -4.45539,5.841308 -6.99452,6.331971 -32.81245,6.34068 l -23.12788,0.0078 -1.25,2.691563 c -0.6875,1.480359 -1.25,4.01065 -1.25,5.622869 0,1.612218 -0.64345,7.260004 -1.42988,12.550635 -0.78644,5.290631 -1.66951,12.656829 -1.96238,16.369329 l -0.53249,6.75 h 23.42845 c 19.905,0 23.95992,0.253442 26.96237,1.685212 1.94366,0.926867 3.53393,2.276867 3.53393,3 0,0.723136 0.45,1.31479 1,1.31479 1.82247,0 1.12717,12.279191 -0.82106,14.5 -5.44494,6.20677 -4.21784,5.95776 -32.03178,6.5 l -25.64716,0.5 -1,9 c -0.55,4.95 -1.28211,9.45 -1.62692,10 -0.34481,0.55 -0.95158,4.15 -1.34838,8 -0.3968,3.85 -1.07386,7.45 -1.50457,8 -0.43072,0.55 -1.03813,2.575 -1.34981,4.5 -0.89024,5.49831 -3.10679,14.39023 -3.88757,15.59538 -0.39032,0.60246 -1.00862,2.96496 -1.37402,5.25 -0.36539,2.28504 -1.14683,4.15462 -1.73654,4.15462 -0.68441,0 -0.72526,0.34693 -0.11297,0.95922 0.55985,0.55985 14.30913,1.0803 33.02272,1.25 34.4414,0.31234 33.05907,0.0996 36.16806,5.56588 C 173.82835,185.18748 169.98124,198 165.27776,198 164.57499,198 164,198.45 164,199 c 0,0.6518 -15.61157,1 -44.8347,1 H 74.330596 Z"
         id="path1227" />
    </g>
    <g
       aria-label="NeonTreeEvaluation"
       id="text1675"
       style="font-size:40px"
       transform="matrix(0.56077427,0,0,0.56077427,-14.164694,120.15111)">
      <path
         d="M 37.627119,230.49904 H 32.841963 L 19.0529,204.48341 v 26.01563 h -3.613281 v -29.08203 h 5.996094 l 12.578125,23.75 v -23.75 h 3.613281 z"
         id="path1677" />
      <path
         d="M 63.330244,219.97169 H 47.256025 q 0,2.01172 0.605469,3.51563 0.605469,1.48437 1.660156,2.44141 1.015625,0.9375 2.402344,1.40625 1.40625,0.46875 3.085938,0.46875 2.226562,0 4.472656,-0.87891 2.265625,-0.89844 3.222656,-1.75781 h 0.195313 v 4.0039 q -1.855469,0.78125 -3.789063,1.3086 -1.933594,0.52734 -4.0625,0.52734 -5.429687,0 -8.476562,-2.92969 -3.046875,-2.94922 -3.046875,-8.35937 0,-5.35156 2.910156,-8.4961 2.929687,-3.14453 7.695312,-3.14453 4.414063,0 6.796875,2.57813 2.402344,2.57812 2.402344,7.32422 z m -3.574219,-2.8125 q -0.01953,-2.89062 -1.464843,-4.47265 -1.425782,-1.58203 -4.355469,-1.58203 -2.949219,0 -4.707031,1.73828 -1.738282,1.73828 -1.972657,4.3164 z"
         id="path1679" />
      <path
         d="m 87.4904,219.6006 q 0,5.33203 -2.734375,8.41797 -2.734375,3.08594 -7.324218,3.08594 -4.628907,0 -7.363282,-3.08594 -2.714843,-3.08594 -2.714843,-8.41797 0,-5.33203 2.714843,-8.41797 2.734375,-3.10547 7.363282,-3.10547 4.589843,0 7.324218,3.10547 2.734375,3.08594 2.734375,8.41797 z m -3.789062,0 q 0,-4.23828 -1.660156,-6.28906 -1.660157,-2.07031 -4.609375,-2.07031 -2.988282,0 -4.648438,2.07031 -1.640625,2.05078 -1.640625,6.28906 0,4.10156 1.660156,6.23047 1.660157,2.10937 4.628907,2.10937 2.929687,0 4.589843,-2.08984 1.679688,-2.10937 1.679688,-6.25 z"
         id="path1681" />
      <path
         d="m 111.41618,230.49904 h -3.67187 v -12.42188 q 0,-1.5039 -0.17578,-2.8125 -0.17579,-1.32812 -0.64454,-2.07031 -0.48828,-0.82031 -1.40625,-1.21094 -0.91796,-0.41015 -2.38281,-0.41015 -1.5039,0 -3.14453,0.74218 -1.640625,0.74219 -3.144531,1.89454 v 16.28906 h -3.671875 v -21.81641 h 3.671875 v 2.42188 q 1.71875,-1.42578 3.554691,-2.22657 1.83593,-0.80078 3.76953,-0.80078 3.53515,0 5.39062,2.12891 1.85547,2.12891 1.85547,6.13281 z"
         id="path1683" />
      <path
         d="m 139.52165,204.85451 h -10.39062 v 25.64453 h -3.86719 v -25.64453 h -10.39063 v -3.4375 h 24.64844 z"
         id="path1685" />
      <path
         d="m 152.84196,212.68654 h -0.19531 q -0.82031,-0.19531 -1.60156,-0.27344 -0.76172,-0.0977 -1.81641,-0.0977 -1.69922,0 -3.28125,0.76172 -1.58203,0.74219 -3.04687,1.9336 V 230.499 h -3.67188 v -21.81641 h 3.67188 v 3.22266 q 2.1875,-1.75781 3.84765,-2.48047 1.67969,-0.74219 3.41797,-0.74219 0.95703,0 1.38672,0.0586 0.42969,0.0391 1.28906,0.17578 z"
         id="path1687" />
      <path
         d="m 174.56071,219.97169 h -16.07422 q 0,2.01172 0.60547,3.51563 0.60547,1.48437 1.66016,2.44141 1.01562,0.9375 2.40234,1.40625 1.40625,0.46875 3.08594,0.46875 2.22656,0 4.47266,-0.87891 2.26562,-0.89844 3.22265,-1.75781 h 0.19532 v 4.0039 q -1.85547,0.78125 -3.78907,1.3086 -1.93359,0.52734 -4.0625,0.52734 -5.42968,0 -8.47656,-2.92969 -3.04687,-2.94922 -3.04687,-8.35937 0,-5.35156 2.91015,-8.4961 2.92969,-3.14453 7.69531,-3.14453 4.41407,0 6.79688,2.57813 2.40234,2.57812 2.40234,7.32422 z m -3.57422,-2.8125 q -0.0195,-2.89062 -1.46484,-4.47265 -1.42578,-1.58203 -4.35547,-1.58203 -2.94922,0 -4.70703,1.73828 -1.73828,1.73828 -1.97266,4.3164 z"
         id="path1689" />
      <path
         d="m 198.38884,219.97169 h -16.07422 q 0,2.01172 0.60547,3.51563 0.60547,1.48437 1.66015,2.44141 1.01563,0.9375 2.40235,1.40625 1.40625,0.46875 3.08594,0.46875 2.22656,0 4.47265,-0.87891 2.26563,-0.89844 3.22266,-1.75781 h 0.19531 v 4.0039 q -1.85547,0.78125 -3.78906,1.3086 -1.9336,0.52734 -4.0625,0.52734 -5.42969,0 -8.47656,-2.92969 -3.04688,-2.94922 -3.04688,-8.35937 0,-5.35156 2.91016,-8.4961 2.92968,-3.14453 7.69531,-3.14453 4.41406,0 6.79687,2.57813 2.40235,2.57812 2.40235,7.32422 z m -3.57422,-2.8125 q -0.0195,-2.89062 -1.46484,-4.47265 -1.42579,-1.58203 -4.35547,-1.58203 -2.94922,0 -4.70703,1.73828 -1.73829,1.73828 -1.97266,4.3164 z"
         id="path1691" />
      <path
         d="m 223.40837,230.49904 h -19.16016 v -29.08203 h 19.16016 v 3.4375 H 208.1154 v 7.96875 h 15.29297 v 3.4375 H 208.1154 v 10.80078 h 15.29297 z"
         id="path1693" />
      <path
         d="m 248.1154,208.68263 -8.82812,21.81641 h -3.69141 l -8.76953,-21.81641 h 3.98437 l 6.75782,17.36328 6.69921,-17.36328 z"
         id="path1695" />
      <path
         d="m 269.09196,230.49904 h -3.65234 v -2.32422 q -0.48828,0.33203 -1.32813,0.9375 -0.82031,0.58594 -1.60156,0.9375 -0.91797,0.44922 -2.10937,0.74219 -1.19141,0.3125 -2.79297,0.3125 -2.94922,0 -5,-1.95313 -2.05078,-1.95312 -2.05078,-4.98047 0,-2.48047 1.05468,-4.0039 1.07422,-1.54297 3.04688,-2.42188 1.99219,-0.8789 4.78516,-1.1914 2.79296,-0.3125 5.99609,-0.46875 v -0.56641 q 0,-1.25 -0.44922,-2.07031 -0.42969,-0.82032 -1.25,-1.28907 -0.78125,-0.44921 -1.875,-0.60546 -1.09375,-0.15625 -2.28516,-0.15625 -1.44531,0 -3.22265,0.39062 -1.77735,0.37109 -3.67188,1.09375 h -0.19531 v -3.73047 q 1.07422,-0.29297 3.10547,-0.64453 2.03125,-0.35156 4.00391,-0.35156 2.30468,0 4.0039,0.39062 1.71875,0.3711 2.96875,1.28907 1.23047,0.89843 1.875,2.32421 0.64453,1.42579 0.64453,3.53516 z m -3.65234,-5.3711 v -6.07421 q -1.67969,0.0976 -3.96484,0.29296 -2.26563,0.19532 -3.59375,0.56641 -1.58204,0.44922 -2.5586,1.40625 -0.97656,0.9375 -0.97656,2.59766 0,1.875 1.13281,2.83203 1.13281,0.9375 3.45703,0.9375 1.9336,0 3.53516,-0.74219 1.60156,-0.76172 2.96875,-1.81641 z"
         id="path1697" />
      <path
         d="m 279.87321,230.49904 h -3.67187 v -30.39063 h 3.67187 z"
         id="path1699" />
      <path
         d="m 305.22478,230.49904 h -3.67188 v -2.42188 q -1.85547,1.46485 -3.55469,2.2461 -1.69922,0.78125 -3.75,0.78125 -3.4375,0 -5.35156,-2.08985 -1.91406,-2.10937 -1.91406,-6.17187 v -14.16016 h 3.67187 v 12.42188 q 0,1.66015 0.15625,2.85156 0.15625,1.17187 0.66407,2.01172 0.52734,0.85937 1.36718,1.25 0.83985,0.39062 2.44141,0.39062 1.42578,0 3.10547,-0.74218 1.69922,-0.74219 3.16406,-1.89454 v -16.28906 h 3.67188 z"
         id="path1701" />
      <path
         d="m 329.40446,230.49904 h -3.65234 v -2.32422 q -0.48828,0.33203 -1.32813,0.9375 -0.82031,0.58594 -1.60156,0.9375 -0.91797,0.44922 -2.10937,0.74219 -1.19141,0.3125 -2.79297,0.3125 -2.94922,0 -5,-1.95313 -2.05078,-1.95312 -2.05078,-4.98047 0,-2.48047 1.05468,-4.0039 1.07422,-1.54297 3.04688,-2.42188 1.99219,-0.8789 4.78516,-1.1914 2.79296,-0.3125 5.99609,-0.46875 v -0.56641 q 0,-1.25 -0.44922,-2.07031 -0.42969,-0.82032 -1.25,-1.28907 -0.78125,-0.44921 -1.875,-0.60546 -1.09375,-0.15625 -2.28516,-0.15625 -1.44531,0 -3.22265,0.39062 -1.77735,0.37109 -3.67188,1.09375 h -0.19531 v -3.73047 q 1.07422,-0.29297 3.10547,-0.64453 2.03125,-0.35156 4.00391,-0.35156 2.30468,0 4.0039,0.39062 1.71875,0.3711 2.96875,1.28907 1.23047,0.89843 1.875,2.32421 0.64453,1.42579 0.64453,3.53516 z m -3.65234,-5.3711 v -6.07421 q -1.67969,0.0976 -3.96484,0.29296 -2.26563,0.19532 -3.59375,0.56641 -1.58204,0.44922 -2.5586,1.40625 -0.97656,0.9375 -0.97656,2.59766 0,1.875 1.13281,2.83203 1.13281,0.9375 3.45703,0.9375 1.9336,0 3.53516,-0.74219 1.60156,-0.76172 2.96875,-1.81641 z"
         id="path1703" />
      <path
         d="m 347.8029,230.30373 q -1.03516,0.27343 -2.26562,0.44921 -1.21094,0.17579 -2.16797,0.17579 -3.33985,0 -5.07813,-1.79688 -1.73828,-1.79687 -1.73828,-5.76172 v -11.60156 h -2.48047 v -3.08594 h 2.48047 v -6.26953 h 3.67188 v 6.26953 h 7.57812 v 3.08594 h -7.57812 v 9.94141 q 0,1.71875 0.0781,2.69531 0.0781,0.95703 0.54688,1.79687 0.42968,0.78125 1.17187,1.15235 0.76172,0.35156 2.30469,0.35156 0.89844,0 1.875,-0.25391 0.97656,-0.27343 1.40625,-0.44922 h 0.19531 z"
         id="path1705" />
      <path
         d="m 356.18181,205.03029 h -4.14063 v -3.8086 h 4.14063 z m -0.23438,25.46875 h -3.67187 v -21.81641 h 3.67187 z"
         id="path1707" />
      <path
         d="m 381.80681,219.6006 q 0,5.33203 -2.73438,8.41797 -2.73437,3.08594 -7.32422,3.08594 -4.6289,0 -7.36328,-3.08594 -2.71484,-3.08594 -2.71484,-8.41797 0,-5.33203 2.71484,-8.41797 2.73438,-3.10547 7.36328,-3.10547 4.58985,0 7.32422,3.10547 2.73438,3.08594 2.73438,8.41797 z m -3.78907,0 q 0,-4.23828 -1.66015,-6.28906 -1.66016,-2.07031 -4.60938,-2.07031 -2.98828,0 -4.64843,2.07031 -1.64063,2.05078 -1.64063,6.28906 0,4.10156 1.66016,6.23047 1.66015,2.10937 4.6289,2.10937 2.92969,0 4.58985,-2.08984 1.67968,-2.10937 1.67968,-6.25 z"
         id="path1709" />
      <path
         d="m 405.73259,230.49904 h -3.67188 v -12.42188 q 0,-1.5039 -0.17578,-2.8125 -0.17578,-1.32812 -0.64453,-2.07031 -0.48828,-0.82031 -1.40625,-1.21094 -0.91797,-0.41015 -2.38281,-0.41015 -1.50391,0 -3.14453,0.74218 -1.64063,0.74219 -3.14453,1.89454 v 16.28906 h -3.67188 v -21.81641 h 3.67188 v 2.42188 q 1.71875,-1.42578 3.55468,-2.22657 1.83594,-0.80078 3.76953,-0.80078 3.53516,0 5.39063,2.12891 1.85547,2.12891 1.85547,6.13281 z"
         id="path1711" />
    </g>
  </g>
</svg>
