<?xml version="1.0" encoding="UTF-8" standalone="no"?>
<!DOCTYPE svg PUBLIC "-//W3C//DTD SVG 1.1//EN" "http://www.w3.org/Graphics/SVG/1.1/DTD/svg11.dtd">
<svg width="100%" height="100%" viewBox="0 0 539 120" version="1.1" xmlns="http://www.w3.org/2000/svg" xmlns:xlink="http://www.w3.org/1999/xlink" xml:space="preserve" xmlns:serif="http://www.serif.com/" style="fill-rule:evenodd;clip-rule:evenodd;stroke-linejoin:round;stroke-miterlimit:2;">
    <g transform="matrix(0.0598025,0,0,0.0597907,0,0)">
        <path d="M2571.88,261.98L2571.88,855.371C2571.88,860.605 2567.63,864.855 2562.4,864.855L2528,864.855C2522.76,864.855 2518.51,860.605 2518.51,855.371L2518.51,169.23C2518.51,165.871 2521.23,163.146 2524.59,163.146L2560.04,163.146C2561.9,163.146 2563.66,163.996 2564.81,165.459L3047.26,775.905L3047.26,172.634C3047.26,167.396 3051.5,163.146 3056.74,163.146L3091.14,163.146C3096.38,163.146 3100.63,167.396 3100.63,172.634L3100.63,858.896C3100.63,862.188 3097.96,864.855 3094.67,864.855L3052.11,864.855C3050.3,864.855 3048.58,864.021 3047.45,862.592L2571.88,261.98Z" style="fill:rgb(39,16,57);fill-rule:nonzero;"/>
    </g>
    <g transform="matrix(0.0598025,0,0,0.0597907,0,0)">
        <path d="M3812.29,822.468L3812.29,858.813C3812.29,862.147 3809.59,864.855 3806.25,864.855L3343.83,864.855L3343.83,163.147L3797.36,163.147C3800.69,163.147 3803.4,165.855 3803.4,169.188L3803.4,205.534C3803.4,208.872 3800.69,211.576 3797.36,211.576L3397.2,211.576L3397.2,483.363L3745.97,483.363C3749.3,483.363 3752.01,486.068 3752.01,489.405L3752.01,523.772C3752.01,527.109 3749.3,529.813 3745.97,529.813L3397.2,529.813L3397.2,816.426L3806.25,816.426C3809.59,816.426 3812.29,819.13 3812.29,822.468" style="fill:rgb(39,16,57);fill-rule:nonzero;"/>
    </g>
    <g transform="matrix(0.0598025,0,0,0.0597907,0,0)">
        <path d="M4609.15,211.577L4359.31,211.577L4359.31,858.714C4359.31,862.106 4356.57,864.856 4353.18,864.856L4312.08,864.856C4308.7,864.856 4305.95,862.106 4305.95,858.714L4305.95,211.577L4057.1,211.577C4053.71,211.577 4050.96,208.827 4050.96,205.439L4050.96,169.285C4050.96,165.898 4053.71,163.148 4057.1,163.148L4609.15,163.148C4612.54,163.148 4615.29,165.898 4615.29,169.285L4615.29,205.439C4615.29,208.827 4612.54,211.577 4609.15,211.577" style="fill:rgb(39,16,57);fill-rule:nonzero;"/>
    </g>
    <g transform="matrix(0.0598025,0,0,0.0597907,0,0)">
        <path d="M5070.82,819.645L5564.57,211.575L5082.59,211.575C5079.14,211.575 5076.34,208.779 5076.34,205.329L5076.34,169.395C5076.34,165.945 5079.14,163.145 5082.59,163.145L5621.57,163.145C5625.02,163.145 5627.82,165.945 5627.82,169.395L5627.82,204.429C5627.82,205.854 5627.33,207.241 5626.43,208.354L5135.64,816.425L5619.59,816.425C5623.04,816.425 5625.84,819.22 5625.84,822.675L5625.84,858.608C5625.84,862.058 5623.04,864.854 5619.59,864.854L5075.67,864.854C5072.22,864.854 5069.42,862.058 5069.42,858.608L5069.42,823.583C5069.42,822.15 5069.92,820.758 5070.82,819.645" style="fill:rgb(39,16,57);fill-rule:nonzero;"/>
    </g>
    <g transform="matrix(0.0598025,0,0,0.0597907,0,0)">
        <path d="M6317.66,822.758L6317.66,858.521C6317.66,862.017 6314.82,864.854 6311.32,864.854L5855.53,864.854C5852.04,864.854 5849.2,862.017 5849.2,858.521L5849.2,169.479C5849.2,165.983 5852.04,163.146 5855.53,163.146L6302.43,163.146C6305.93,163.146 6308.76,165.983 6308.76,169.479L6308.76,205.242C6308.76,208.742 6305.93,211.575 6302.43,211.575L5908.9,211.575C5905.41,211.575 5902.57,214.413 5902.57,217.908L5902.57,477.029C5902.57,480.529 5905.41,483.363 5908.9,483.363L6251.04,483.363C6254.54,483.363 6257.37,486.2 6257.37,489.696L6257.37,523.479C6257.37,526.979 6254.54,529.813 6251.04,529.813L5908.9,529.813C5905.41,529.813 5902.57,532.65 5902.57,536.146L5902.57,810.092C5902.57,813.592 5905.41,816.425 5908.9,816.425L6311.32,816.425C6314.82,816.425 6317.66,819.263 6317.66,822.758" style="fill:rgb(39,16,57);fill-rule:nonzero;"/>
    </g>
    <g transform="matrix(0.0598025,0,0,0.0597907,0,0)">
        <path d="M6593.62,552.545L6837.73,552.545C6867.38,552.545 6893.23,544.316 6915.32,527.837C6937.38,511.375 6954.35,490.129 6966.21,464.091C6978.07,438.07 6983.99,410.566 6983.99,381.566C6983.99,351.266 6977.08,323.258 6963.24,297.562C6949.41,271.862 6930.96,251.108 6907.9,235.295C6884.83,219.483 6859.14,211.575 6830.82,211.575L6593.62,211.575L6593.62,552.545ZM6540.25,858.725L6540.25,169.275C6540.25,165.891 6542.99,163.145 6546.38,163.145L6832.79,163.145C6863.09,163.145 6890.6,169.416 6915.32,181.925C6940.02,194.45 6961.6,211.079 6980.05,231.837C6998.49,252.591 7012.82,275.983 7023.04,302.008C7033.24,328.045 7038.36,354.558 7038.36,381.566C7038.36,415.833 7031.44,448.12 7017.61,478.42C7003.77,508.733 6984.65,534.108 6960.28,554.525C6935.9,574.954 6907.24,587.475 6874.3,592.079L7042.23,855.433C7044.83,859.512 7041.9,864.854 7037.07,864.854L6991.3,864.854C6989.21,864.854 6987.27,863.795 6986.15,862.045L6817.97,600.975L6593.62,600.975L6593.62,858.725C6593.62,862.108 6590.88,864.854 6587.49,864.854L6546.38,864.854C6542.99,864.854 6540.25,862.108 6540.25,858.725" style="fill:rgb(39,16,57);fill-rule:nonzero;"/>
    </g>
    <g transform="matrix(0.0598025,0,0,0.0597907,0,0)">
        <path d="M7274.79,514C7274.79,553.533 7281.53,591.754 7295.05,628.646C7308.55,665.554 7327.49,698.321 7351.88,726.983C7376.24,755.646 7405.25,778.546 7438.85,795.675C7472.45,812.813 7509.66,821.367 7550.53,821.367C7592.04,821.367 7629.59,812.471 7663.19,794.683C7696.79,776.896 7725.61,753.346 7749.67,724.017C7773.72,694.708 7792.17,661.754 7805.02,625.188C7817.86,588.617 7824.29,551.558 7824.29,514C7824.29,474.471 7817.52,436.263 7804.03,399.358C7790.51,362.467 7771.41,329.679 7746.71,301.017C7721.99,272.358 7693,249.629 7659.74,232.825C7626.45,216.025 7590.06,207.621 7550.53,207.621C7508.36,207.621 7470.31,216.363 7436.38,233.813C7402.44,251.279 7373.62,274.675 7349.89,303.983C7326.18,333.308 7307.72,366.092 7294.55,402.321C7281.37,438.567 7274.79,475.796 7274.79,514M7549.54,869.796C7500.77,869.796 7456.3,859.758 7416.12,839.654C7375.92,819.558 7341.33,792.708 7312.35,759.104C7283.34,725.5 7260.95,687.45 7245.14,644.954C7229.33,602.454 7221.42,558.813 7221.42,514C7221.42,467.225 7229.65,422.583 7246.12,380.083C7262.59,337.588 7285.82,299.708 7315.81,266.429C7345.77,233.167 7380.69,206.804 7420.56,187.363C7460.42,167.933 7503.73,158.208 7550.53,158.208C7599.94,158.208 7644.57,168.429 7684.44,188.846C7724.3,209.275 7758.72,236.625 7787.72,270.875C7816.71,305.142 7839.11,343.358 7854.92,385.521C7870.74,427.696 7878.64,470.517 7878.64,514C7878.64,561.442 7870.4,606.408 7853.94,648.904C7837.46,691.404 7814.24,729.3 7784.26,762.563C7754.27,795.842 7719.36,822.029 7679.5,841.138C7639.63,860.254 7596.32,869.796 7549.54,869.796" style="fill:rgb(39,16,57);fill-rule:nonzero;"/>
    </g>
    <g transform="matrix(0.0598025,0,0,0.0597907,0,0)">
        <path d="M3103.08,1213.65L2846.15,1213.65L2846.15,1874.03L2741.04,1874.03L2741.04,1213.65L2484.11,1213.65L2484.11,1120.22L3103.08,1120.22L3103.08,1213.65Z" style="fill:rgb(39,16,57);fill-rule:nonzero;"/>
    </g>
    <g transform="matrix(0.0598025,0,0,0.0597907,0,0)">
        <path d="M3440.69,1513.05L3660.46,1513.05C3685.23,1513.05 3706.81,1506.33 3725.22,1492.88C3743.62,1479.44 3758.14,1461.21 3768.75,1438.2C3779.37,1415.2 3784.68,1390.26 3784.68,1363.35C3784.68,1335.74 3778.66,1310.62 3766.63,1287.97C3754.59,1265.32 3738.84,1247.28 3719.39,1233.82C3699.91,1220.38 3678.14,1213.65 3654.09,1213.65L3440.69,1213.65L3440.69,1513.05ZM3335.58,1874.03L3335.58,1120.22L3660.46,1120.22C3694.44,1120.22 3725.22,1127.12 3752.83,1140.92C3780.43,1154.73 3804.67,1173.3 3825.55,1196.66C3846.42,1220.02 3862.53,1246.03 3873.86,1274.69C3885.18,1303.36 3890.85,1332.93 3890.85,1363.35C3890.85,1396.63 3884.48,1428.83 3871.74,1459.96C3859,1491.12 3841.12,1517.66 3818.12,1539.59C3795.12,1561.54 3768.04,1577.11 3736.9,1586.31L3918.45,1874.03L3798.48,1874.03L3630.74,1606.48L3440.69,1606.48L3440.69,1874.03L3335.58,1874.03Z" style="fill:rgb(39,16,57);fill-rule:nonzero;"/>
    </g>
    <g transform="matrix(0.0598025,0,0,0.0597907,0,0)">
        <path d="M4582.34,1578.87L4455.67,1239.12L4327.85,1578.87L4582.34,1578.87ZM4407.89,1120.21L4501.32,1120.21L4803.9,1874.02L4692.42,1874.02L4612.45,1659.56L4297.49,1659.56L4216.79,1874.02L4105.31,1874.02L4407.89,1120.21Z" style="fill:rgb(39,16,57);fill-rule:nonzero;"/>
    </g>
    <g transform="matrix(0.0598025,0,0,0.0597907,0,0)">
        <path d="M4932.36,1490.75C4932.36,1444.75 4940.33,1399.62 4956.25,1355.38C4972.18,1311.15 4995.7,1270.81 5026.85,1234.35C5057.99,1197.9 5096.03,1168.88 5140.98,1147.29C5185.92,1125.7 5236.7,1114.9 5293.34,1114.9C5361.28,1114.9 5419.49,1130.3 5467.99,1161.09C5516.46,1191.88 5552.39,1231.34 5575.75,1279.47L5494,1334.67C5479.14,1302.83 5460.56,1277.71 5438.26,1259.3C5415.96,1240.9 5391.71,1227.98 5365.53,1220.54C5339.34,1213.11 5313.86,1209.4 5289.09,1209.4C5248.03,1209.4 5211.94,1217.73 5180.8,1234.35C5149.64,1250.98 5123.46,1272.93 5102.23,1300.17C5081,1327.43 5065.07,1358.22 5054.46,1392.54C5043.84,1426.88 5038.53,1461.02 5038.53,1495C5038.53,1532.52 5044.9,1568.96 5057.64,1604.35C5070.38,1639.75 5087.9,1670.71 5110.2,1697.25C5132.49,1723.79 5159.2,1745.03 5190.36,1760.95C5221.49,1776.88 5255.46,1784.84 5292.28,1784.84C5317.04,1784.84 5343.05,1780.43 5370.31,1771.57C5397.55,1762.73 5422.86,1748.92 5446.22,1730.16C5469.58,1711.41 5487.98,1686.47 5501.43,1655.31L5588.49,1704.15C5572.91,1741.67 5548.84,1773.53 5516.29,1799.7C5483.73,1825.9 5447.28,1845.72 5406.94,1859.16C5366.6,1872.61 5326.94,1879.33 5288.03,1879.33C5235.64,1879.33 5187.86,1868.18 5144.71,1845.88C5101.52,1823.59 5064.01,1793.86 5032.16,1756.7C5000.31,1719.55 4975.71,1677.79 4958.38,1631.42C4941.02,1585.08 4932.36,1538.17 4932.36,1490.75" style="fill:rgb(39,16,57);fill-rule:nonzero;"/>
    </g>
    <g transform="matrix(0.0598025,0,0,0.0597907,0,0)">
        <path d="M5811.44,1874.02L5811.44,1120.21L5916.55,1120.21L5916.55,1526.35L6291.32,1119.15L6405.99,1119.15L6105.53,1452.99L6422.97,1874.02L6304.06,1874.02L6038.64,1516.79L5916.55,1644.38L5916.55,1874.02L5811.44,1874.02Z" style="fill:rgb(39,16,57);fill-rule:nonzero;"/>
    </g>
    <g transform="matrix(0.0598025,0,0,0.0597907,0,0)">
        <path d="M7126.87,1780.6L7126.87,1874.03L6613.01,1874.03L6613.01,1120.22L7117.32,1120.22L7117.32,1213.65L6718.12,1213.65L6718.12,1445.1L7064.23,1445.1L7064.23,1533.22L6718.12,1533.22L6718.12,1780.6L7126.87,1780.6Z" style="fill:rgb(39,16,57);fill-rule:nonzero;"/>
    </g>
    <g transform="matrix(0.0598025,0,0,0.0597907,0,0)">
        <path d="M7423.07,1513.05L7642.85,1513.05C7667.61,1513.05 7689.19,1506.33 7707.61,1492.88C7726,1479.44 7740.52,1461.21 7751.13,1438.2C7761.75,1415.2 7767.06,1390.26 7767.06,1363.35C7767.06,1335.74 7761.04,1310.62 7749.02,1287.97C7736.97,1265.32 7721.22,1247.28 7701.77,1233.82C7682.29,1220.38 7660.52,1213.65 7636.47,1213.65L7423.07,1213.65L7423.07,1513.05ZM7317.96,1874.03L7317.96,1120.22L7642.85,1120.22C7676.82,1120.22 7707.61,1127.12 7735.21,1140.92C7762.81,1154.73 7787.05,1173.3 7807.94,1196.66C7828.8,1220.02 7844.91,1246.03 7856.24,1274.69C7867.56,1303.36 7873.23,1332.93 7873.23,1363.35C7873.23,1396.63 7866.86,1428.83 7854.12,1459.96C7841.38,1491.12 7823.5,1517.66 7800.51,1539.59C7777.49,1561.54 7750.42,1577.11 7719.29,1586.31L7900.83,1874.03L7780.86,1874.03L7613.12,1606.48L7423.07,1606.48L7423.07,1874.03L7317.96,1874.03Z" style="fill:rgb(39,16,57);fill-rule:nonzero;"/>
    </g>
    <g transform="matrix(0.0598025,0,0,0.0597907,0,0)">
        <path d="M1684.71,1737.87C1677.05,1737.87 1669.39,1734.95 1663.54,1729.1L1322.11,1387.66C1310.52,1376.07 1310.41,1357.31 1321.87,1345.58L1326.57,1340.77C1407.55,1254.62 1452.14,1142.05 1452.14,1023.75C1452.14,768.478 1244.46,560.799 989.194,560.799C733.919,560.799 526.24,768.478 526.24,1023.75C526.24,1279.02 733.919,1486.7 989.194,1486.7C1063.37,1486.7 1134.21,1469.7 1199.75,1436.16C1206.74,1432.59 1213.75,1428.77 1220.58,1424.83C1234.89,1416.55 1253.2,1421.45 1261.47,1435.76C1269.74,1450.07 1264.84,1468.38 1250.53,1476.65C1242.82,1481.11 1234.91,1485.41 1227.02,1489.46C1152.95,1527.35 1072.94,1546.56 989.194,1546.56C700.915,1546.56 466.381,1312.03 466.381,1023.75C466.381,735.47 700.915,500.94 989.194,500.94C1277.47,500.94 1512,735.47 1512,1023.75C1512,1150.08 1466.96,1270.64 1384.74,1365.64L1705.87,1686.78C1717.56,1698.47 1717.56,1717.41 1705.87,1729.1C1700.03,1734.95 1692.37,1737.87 1684.71,1737.87" style="fill:rgb(39,16,57);fill-rule:nonzero;"/>
    </g>
    <g transform="matrix(0.0598025,0,0,0.0597907,0,0)">
        <path d="M987.636,2006.31C892.953,2006.31 798.07,1992.33 705.136,1964.3C572.566,1924.32 452.453,1858.43 348.141,1768.48C338.416,1760.09 337.328,1745.4 345.716,1735.68C354.099,1725.95 368.786,1724.86 378.516,1733.26C477.861,1818.93 592.274,1881.68 718.57,1919.77C911.207,1977.87 1112.81,1972.61 1301.55,1904.54C1313.64,1900.18 1326.96,1906.45 1331.32,1918.53C1335.67,1930.61 1329.41,1943.93 1317.33,1948.29C1210.18,1986.93 1099.05,2006.31 987.636,2006.31" style="fill:rgb(125,112,136);fill-rule:nonzero;"/>
    </g>
    <g transform="matrix(0.0598025,0,0,0.0597907,0,0)">
        <path d="M349.239,1771.38C341.085,1771.38 332.906,1768.45 326.414,1762.51C191.06,1638.68 92.139,1479.65 40.36,1302.59C-12.844,1120.67 -13.457,927.688 38.585,744.518C43.689,726.547 62.397,716.113 80.368,721.222C98.339,726.33 108.768,745.038 103.664,763.009C55.106,933.905 55.668,1113.92 105.293,1283.6C153.601,1448.78 245.856,1597.12 372.081,1712.6C385.864,1725.2 386.814,1746.6 374.206,1760.38C367.535,1767.68 358.401,1771.38 349.239,1771.38" style="fill:rgb(226,59,37);fill-rule:nonzero;"/>
    </g>
    <g transform="matrix(0.0598025,0,0,0.0597907,0,0)">
        <path d="M62.911,831.881C59.099,831.881 55.228,831.41 51.365,830.423C26.474,824.065 11.457,798.731 17.815,773.844C21.19,760.64 23.944,751.423 24.661,749.077C74.315,575.198 169.199,417.819 299.074,293.902C425.236,173.531 581.115,87.385 749.853,44.777C774.744,38.494 800.044,53.581 806.332,78.49C812.619,103.394 797.532,128.681 772.624,134.969C619.415,173.656 477.865,251.89 363.29,361.21C245.286,473.794 159.082,616.885 113.999,775.01C113.899,775.344 113.803,775.677 113.699,776.01C113.686,776.06 111.169,784.248 107.944,796.873C102.569,817.898 83.657,831.881 62.911,831.881" style="fill:rgb(250,165,66);fill-rule:nonzero;"/>
    </g>
    <g transform="matrix(0.0598025,0,0,0.0597907,0,0)">
        <path d="M1684.13,416.972C1668.05,416.972 1652,410.689 1639.96,398.193C1530.48,284.522 1391.93,201.326 1239.28,157.597C1086.61,113.868 925.017,111.08 771.955,149.551C739.117,157.805 705.805,137.872 697.551,105.035C689.296,72.193 709.23,38.88 742.067,30.626C916.042,-13.095 1099.65,-9.953 1273.04,39.718C1446.43,89.385 1603.84,183.93 1728.28,313.13C1751.77,337.518 1751.04,376.335 1726.65,399.822C1714.76,411.276 1699.43,416.972 1684.13,416.972" style="fill:rgb(59,124,195);fill-rule:nonzero;"/>
    </g>
    <g transform="matrix(0.0598025,0,0,0.0597907,0,0)">
        <path d="M1916.85,1359.57C1910.49,1359.57 1904.02,1358.69 1897.6,1356.85C1860.56,1346.24 1839.13,1307.61 1849.75,1270.57C1892.66,1120.76 1895.77,962.099 1858.74,811.741C1822.8,665.795 1750.02,530.12 1648.28,419.378L1644.36,415.132C1618.1,386.928 1619.69,342.786 1647.9,316.532C1676.1,290.278 1720.25,291.866 1746.5,320.074C1748.02,321.711 1749.54,323.353 1751.05,325.003C1868.59,452.941 1952.69,609.72 1994.23,778.374C2037.07,952.332 2033.5,1135.82 1983.88,1309C1975.11,1339.62 1947.19,1359.57 1916.85,1359.57" style="fill:rgb(95,168,69);fill-rule:nonzero;"/>
    </g>
    <g transform="matrix(0.0598025,0,0,0.0597907,0,0)">
        <path d="M8188.32,226.468C8188.32,218.218 8186.5,210.593 8182.88,203.593C8179.26,196.597 8174.38,190.972 8168.26,186.718C8162.13,182.468 8155.07,180.343 8147.07,180.343L8051.82,180.343L8051.82,271.843L8144.45,271.843C8152.7,271.843 8160.13,269.722 8166.76,265.468C8173.38,261.222 8178.63,255.659 8182.51,248.78C8186.38,241.909 8188.32,234.472 8188.32,226.468M8051.82,64.093L8051.82,152.968L8136.57,152.968C8144.57,152.968 8151.63,150.972 8157.76,146.968C8163.88,142.972 8168.76,137.593 8172.38,130.843C8176,124.093 8177.82,116.722 8177.82,108.718C8177.82,100.222 8176.13,92.659 8172.76,86.03C8169.38,79.409 8164.76,74.097 8158.89,70.093C8153,66.097 8146.32,64.093 8138.82,64.093L8051.82,64.093ZM8222.44,232.468C8222.44,246.222 8218.94,258.222 8211.94,268.468C8204.94,278.722 8195.51,286.718 8183.63,292.468C8171.75,298.222 8158.7,301.093 8144.45,301.093L8018.07,301.093L8018.07,34.843L8150.45,34.843C8162.95,34.843 8173.75,38.159 8182.88,44.78C8192.01,51.409 8199.01,59.909 8203.88,70.28C8208.76,80.659 8211.19,91.468 8211.19,102.718C8211.19,115.718 8207.88,127.909 8201.26,139.28C8194.63,150.659 8185.19,159.097 8172.95,164.593C8188.2,169.093 8200.26,177.409 8209.13,189.53C8218,201.659 8222.44,215.968 8222.44,232.468" style="fill:rgb(39,16,57);fill-rule:nonzero;"/>
    </g>
    <g transform="matrix(0.0598025,0,0,0.0597907,0,0)">
        <path d="M8481.57,271.092L8481.57,301.092L8300.82,301.092L8300.82,34.842L8478.19,34.842L8478.19,64.842L8334.57,64.842L8334.57,151.092L8459.44,151.092L8459.44,179.217L8334.57,179.217L8334.57,271.092L8481.57,271.092Z" style="fill:rgb(39,16,57);fill-rule:nonzero;"/>
    </g>
    <g transform="matrix(0.0598025,0,0,0.0597907,0,0)">
        <path d="M8750.82,64.842L8658.94,64.842L8658.94,301.092L8625.19,301.092L8625.19,64.842L8533.32,64.842L8533.32,34.842L8750.82,34.842L8750.82,64.842Z" style="fill:rgb(39,16,57);fill-rule:nonzero;"/>
    </g>
    <g transform="matrix(0.0598025,0,0,0.0597907,0,0)">
        <path d="M8936.29,196.843L8889.19,73.843L8841.9,196.843L8936.29,196.843ZM8874.94,34.843L8903.44,34.843L9012.2,301.093L8976.19,301.093L8946.33,223.093L8831.81,223.093L8801.82,301.093L8765.82,301.093L8874.94,34.843Z" style="fill:rgb(39,16,57);fill-rule:nonzero;"/>
    </g>
</svg>
