<?xml version="1.0" encoding="UTF-8" standalone="no"?>
<svg
   version="1.1"
   id="svg4"
   width="98.695312"
   height="11.595703"
   xmlns="http://www.w3.org/2000/svg"
   xmlns:svg="http://www.w3.org/2000/svg">
  <defs
     id="defs8" />
  <g
     aria-label="NeuralHydrology"
     id="text2"
     transform="translate(-1.171875,9.1171875)">
    <path
       d="M 7.828125,0 H 6.3925781 L 2.2558594,-7.8046875 V 0 H 1.171875 v -8.7246094 h 1.7988281 l 3.7734375,7.125 v -7.125 H 7.828125 Z"
       id="path10" />
    <path
       d="m 15.539063,-3.1582031 h -4.822266 q 0,0.6035156 0.181641,1.0546875 0.18164,0.4453125 0.498046,0.7324219 0.304688,0.28125 0.720704,0.42187495 0.421875,0.140625 0.925781,0.140625 0.667969,0 1.341797,-0.26367185 0.679687,-0.2695313 0.966797,-0.5273438 h 0.05859 v 1.2011719 q -0.55664,0.234375 -1.136718,0.39257812 -0.580079,0.15820313 -1.21875,0.15820313 -1.628907,0 -2.542969,-0.87890625 -0.9140627,-0.8847656 -0.9140627,-2.5078125 0,-1.6054687 0.8730467,-2.5488281 0.878906,-0.9433594 2.308594,-0.9433594 1.324219,0 2.039062,0.7734375 0.720704,0.7734375 0.720704,2.1972656 z m -1.072266,-0.84375 q -0.0059,-0.8671875 -0.439453,-1.3417969 -0.427735,-0.4746094 -1.306641,-0.4746094 -0.884765,0 -1.412109,0.5214844 -0.521485,0.5214844 -0.591797,1.2949219 z"
       id="path12" />
    <path
       d="m 22.634766,0 h -1.101563 v -0.7265625 q -0.556641,0.43945312 -1.066406,0.67382813 -0.509766,0.23437499 -1.125,0.23437499 -1.03125,0 -1.605469,-0.62695312 -0.574219,-0.6328125 -0.574219,-1.8515625 v -4.2480469 h 1.101563 v 3.7265625 q 0,0.4980469 0.04687,0.8554688 0.04687,0.3515625 0.199219,0.6035156 0.158203,0.2578125 0.410156,0.375 0.251953,0.1171875 0.732422,0.1171875 0.427734,0 0.93164,-0.2226562 0.509766,-0.2226563 0.949219,-0.5683594 v -4.8867188 h 1.101563 z"
       id="path14" />
    <path
       d="m 28.886719,-5.34375 h -0.05859 q -0.246094,-0.058594 -0.480469,-0.082031 -0.228515,-0.029297 -0.544922,-0.029297 -0.509765,0 -0.984375,0.2285156 -0.474609,0.2226563 -0.914062,0.5800781 V 0 h -1.101563 v -6.5449219 h 1.101563 v 0.9667969 q 0.65625,-0.5273437 1.154297,-0.7441406 0.503906,-0.2226563 1.02539,-0.2226563 0.28711,0 0.416016,0.017578 0.128906,0.011719 0.386719,0.052734 z"
       id="path16" />
    <path
       d="m 34.798828,0 h -1.095703 v -0.69726562 q -0.146484,0.0996094 -0.398438,0.28124999 -0.246093,0.17578125 -0.480468,0.28125001 Q 32.548828,0 32.191406,0.08789062 q -0.357422,0.09375 -0.83789,0.09375 -0.884766,0 -1.5,-0.5859375 -0.615235,-0.5859375 -0.615235,-1.49414062 0,-0.7441406 0.316406,-1.2011719 0.322266,-0.4628906 0.914063,-0.7265625 0.597656,-0.2636718 1.435547,-0.3574218 0.83789,-0.09375 1.798828,-0.140625 v -0.1699219 q 0,-0.375 -0.134766,-0.6210938 -0.128906,-0.2460937 -0.375,-0.3867187 -0.234375,-0.1347656 -0.5625,-0.1816406 -0.328125,-0.046875 -0.685547,-0.046875 -0.433593,0 -0.966796,0.1171875 -0.533204,0.1113281 -1.101563,0.328125 h -0.05859 v -1.1191407 q 0.322266,-0.087891 0.931641,-0.1933593 0.609375,-0.1054688 1.201172,-0.1054688 0.691406,0 1.201172,0.1171875 0.515625,0.1113281 0.890625,0.3867188 0.36914,0.2695312 0.5625,0.6972656 0.193359,0.4277344 0.193359,1.0605469 z m -1.095703,-1.6113281 v -1.8222657 q -0.503906,0.029297 -1.189453,0.087891 -0.679688,0.058594 -1.078125,0.1699218 -0.47461,0.1347657 -0.767578,0.421875 -0.292969,0.28125 -0.292969,0.7792969 0,0.5625 0.339844,0.8496094 0.339843,0.28125 1.037109,0.28125 0.580078,0 1.060547,-0.2226562 0.480469,-0.2285157 0.890625,-0.5449222 z"
       id="path18" />
    <path
       d="m 38.033203,0 h -1.101562 v -9.1171875 h 1.101562 z"
       id="path20" />
    <path
       d="M 46.974609,0 H 45.814453 V -4.2714844 H 41.460937 V 0 h -1.160156 v -8.7246094 h 1.160156 v 3.421875 h 4.353516 v -3.421875 h 1.160156 z"
       id="path22" />
    <path
       d="m 54.890625,-6.5449219 -3.820313,8.9589844 h -1.177734 l 1.21875,-2.73046875 -2.607422,-6.22851565 h 1.195313 l 2.009765,4.8515625 2.027344,-4.8515625 z"
       id="path24" />
    <path
       d="m 61.582031,0 h -1.101562 v -0.68554687 q -0.47461,0.41015624 -0.990235,0.63867187 -0.515625,0.22851562 -1.11914,0.22851562 -1.171875,0 -1.863282,-0.90234374 -0.685546,-0.90234378 -0.685546,-2.50195318 0,-0.8320312 0.234375,-1.4824218 0.240234,-0.6503906 0.644531,-1.1074219 0.398437,-0.4453125 0.925781,-0.6796875 0.533203,-0.234375 1.101563,-0.234375 0.515625,0 0.914062,0.1113281 0.398438,0.1054688 0.837891,0.3339844 v -2.8359375 h 1.101562 z m -1.101562,-1.6113281 v -3.7558594 q -0.445313,-0.1992187 -0.796875,-0.2753906 -0.351563,-0.076172 -0.767578,-0.076172 -0.925782,0 -1.441407,0.6445313 -0.515625,0.6445312 -0.515625,1.8281249 0,1.1660157 0.398438,1.7753907 0.398437,0.6035156 1.277344,0.6035156 0.46875,0 0.949218,-0.2050781 0.480469,-0.2109375 0.896485,-0.5390624 z"
       id="path26" />
    <path
       d="m 67.833984,-5.34375 h -0.05859 q -0.246094,-0.058594 -0.480469,-0.082031 -0.228516,-0.029297 -0.544922,-0.029297 -0.509766,0 -0.984375,0.2285156 -0.474609,0.2226563 -0.914063,0.5800781 V 0 H 63.75 v -6.5449219 h 1.101562 v 0.9667969 q 0.65625,-0.5273437 1.154297,-0.7441406 0.503907,-0.2226563 1.025391,-0.2226563 0.287109,0 0.416016,0.017578 0.128906,0.011719 0.386718,0.052734 z"
       id="path28" />
    <path
       d="m 74.449219,-3.2695313 q 0,1.5996094 -0.820313,2.52539068 -0.820312,0.92578124 -2.197265,0.92578124 -1.388672,0 -2.208985,-0.92578124 -0.814453,-0.92578128 -0.814453,-2.52539068 0,-1.5996093 0.814453,-2.5253906 0.820313,-0.9316406 2.208985,-0.9316406 1.376953,0 2.197265,0.9316406 0.820313,0.9257813 0.820313,2.5253906 z m -1.136719,0 q 0,-1.2714843 -0.498047,-1.8867187 -0.498047,-0.6210937 -1.382812,-0.6210937 -0.896485,0 -1.394532,0.6210937 -0.492187,0.6152344 -0.492187,1.8867187 0,1.2304688 0.498047,1.8691407 0.498047,0.63281248 1.388672,0.63281248 0.878906,0 1.376953,-0.62695308 0.503906,-0.6328126 0.503906,-1.8750001 z"
       id="path30" />
    <path
       d="m 77.267578,0 h -1.101562 v -9.1171875 h 1.101562 z"
       id="path32" />
    <path
       d="m 85.025391,-3.2695313 q 0,1.5996094 -0.820313,2.52539068 -0.820312,0.92578124 -2.197266,0.92578124 -1.388671,0 -2.208984,-0.92578124 -0.814453,-0.92578128 -0.814453,-2.52539068 0,-1.5996093 0.814453,-2.5253906 0.820313,-0.9316406 2.208984,-0.9316406 1.376954,0 2.197266,0.9316406 0.820313,0.9257813 0.820313,2.5253906 z m -1.136719,0 q 0,-1.2714843 -0.498047,-1.8867187 -0.498047,-0.6210937 -1.382813,-0.6210937 -0.896484,0 -1.394531,0.6210937 -0.492187,0.6152344 -0.492187,1.8867187 0,1.2304688 0.498047,1.8691407 0.498046,0.63281248 1.388671,0.63281248 0.878907,0 1.376954,-0.62695308 0.503906,-0.6328126 0.503906,-1.8750001 z"
       id="path34" />
    <path
       d="m 92.039062,-0.74414062 q 0,1.6640625 -0.755859,2.44335932 -0.755859,0.7792969 -2.326172,0.7792969 -0.521484,0 -1.019531,-0.076172 -0.492188,-0.070312 -0.972656,-0.2050782 v -1.125 h 0.05859 q 0.269532,0.1054688 0.855469,0.2578125 0.585938,0.1582031 1.171875,0.1582031 0.5625,0 0.931641,-0.1347656 Q 90.351562,1.21875 90.556641,0.97851563 90.761719,0.75 90.849609,0.42773438 90.9375,0.10546875 90.9375,-0.29296875 V -0.890625 q -0.498047,0.3984375 -0.955078,0.59765625 -0.451172,0.19335938 -1.154297,0.19335938 -1.171875,0 -1.863281,-0.84375001 -0.685547,-0.84960932 -0.685547,-2.39062502 0,-0.84375 0.234375,-1.453125 0.240234,-0.6152343 0.65039,-1.0605468 0.38086,-0.4160157 0.925782,-0.6445313 0.544922,-0.234375 1.083984,-0.234375 0.568359,0 0.949219,0.1171875 0.386719,0.1113281 0.814453,0.3457031 l 0.07031,-0.28125 h 1.03125 z M 90.9375,-1.7988281 v -3.5683594 q -0.439453,-0.1992187 -0.820313,-0.28125 -0.375,-0.087891 -0.75,-0.087891 -0.908203,0 -1.429687,0.609375 -0.521484,0.609375 -0.521484,1.7695312 0,1.1015625 0.386718,1.6699219 0.386719,0.5683594 1.283203,0.5683594 0.480469,0 0.960938,-0.1816406 0.486328,-0.1875 0.890625,-0.4980465 z"
       id="path36" />
    <path
       d="m 99.867187,-6.5449219 -3.820312,8.9589844 h -1.177734 l 1.21875,-2.73046875 -2.607422,-6.22851565 h 1.195312 l 2.009766,4.8515625 2.027344,-4.8515625 z"
       id="path38" />
  </g>
</svg>
