<svg xmlns="http://www.w3.org/2000/svg" role="img" viewBox="-10.24 151.26 532.48 282.48"><style>svg {enable-background:new 0 0 512 512}</style><style>.st0{fill:#007150}</style><g id="XMLID_1_"><path id="XMLID_7_" d="M238.31 163.55v92.59c0 19.5-11.08 40.12-44.33 40.12-30.02 0-44.47-15.57-44.47-40.12v-92.59h27.36v90.77c0 16.13 6.87 22.45 16.84 22.45 11.93 0 17.4-8 17.4-22.45v-90.77h27.2m44.48 132.85c-33.81 0-40.12-19.92-38.72-42.51h27.36c0 12.49.56 23.01 15.57 23.01 9.26 0 13.75-6.03 13.75-14.87 0-23.57-55-24.97-55-63.83 0-20.48 9.82-36.76 43.07-36.76 26.66 0 39.84 11.93 38.02 39.28h-26.66c0-9.82-1.68-19.78-12.63-19.78-8.84 0-14.17 4.91-14.17 13.89 0 24.83 55 22.59 55 63.69 0 33.96-24.83 37.88-45.59 37.88m183.64 0c-33.81 0-40.12-19.92-38.72-42.51h27.36c0 12.49.56 23.01 15.57 23.01 9.26 0 13.75-6.03 13.75-14.87 0-23.57-55-24.97-55-63.83 0-20.48 9.82-36.76 43.07-36.76 26.66 0 39.84 11.93 38.02 39.28h-26.66c0-9.82-1.68-19.78-12.63-19.78-8.84 0-14.17 4.91-14.17 13.89 0 24.83 55 22.59 55 63.69.01 33.96-24.83 37.88-45.59 37.88m-86.98-50.78h16.13v28.76l-1.4.56c-4.21 1.4-8.98 2.53-13.61 2.53-15.57 0-19.5-7.3-19.5-48.12 0-25.39 0-48.26 16.98-48.26 13.19 0 15.99 8.98 16.27 19.78h27.22c.28-25.39-16.13-39.28-41.81-39.28-44.75 0-46.3 33.53-46.3 66.36 0 49.52 5.33 68.74 51.35 68.74 10.66 0 27.64-2.39 35.49-4.49.42-.14 1.26-.7 1.26-1.26v-64.96h-42.09v19.64" class="st0"/><path id="XMLID_15_" d="M35.45 207.32l.42.42c12.77 10.66 26.66 9.68 37.18 2.67 6.59-4.35 36.62-24.41 53.59-35.63v-11.22H.23v29.74c7.72-1.27 20.2-.01 35.22 14.02m47.56 49.52l-14.87-14.31c-2.1-1.96-3.93-3.37-4.21-3.65-12.21-8.56-23.57-6.03-28.48-4.21-1.54.56-2.95 1.4-3.93 2.1L.37 257.67v37.74h126.41v-27.22c-2.95 1.84-20.06 11.1-43.77-11.35m-48.69-46.16c-.7-.56-1.4-1.26-2.1-1.82-14.87-11.5-29.04-5.89-31.99-4.49v13.05l7.3-4.91s11.22-8.42 28.76.28l-1.97-2.11m17.54 16.84c-.7-.56-1.26-1.12-1.96-1.82-13.19-11.22-26.09-8.42-31.29-6.45-1.54.56-2.95 1.4-3.93 2.1L.37 230.89v13.33l23.85-16.13s11.08-8.28 28.48 0l-.84-.57m74.78 14.03c-4.91 3.37-9.96 6.73-12.07 8.14-4.49 2.95-14.87 10.52-32.27 2.24l2.1 1.96c.7.7 1.68 1.54 2.67 2.24 12.49 9.26 25.67 8 35.63 1.4 1.4-.98 2.67-1.68 3.79-2.53l.15-13.45m0-26.8c-10.94 7.3-25.67 17.26-28.48 19.08-4.49 2.95-15.01 10.52-31.99 2.53l1.96 1.82c.28.14.42.42.7.56 13.19 11.08 27.64 9.4 37.6 2.81 5.61-3.79 13.61-9.12 20.2-13.61l.01-13.19m0-26.65c-15.71 10.52-41.53 27.92-44.75 29.88-4.49 3.09-15.29 10.66-31.99 2.67l1.96 1.96c1.26 1.12 2.81 2.53 4.63 3.65 11.64 7.44 23.71 6.03 33.53-.56 7.16-4.77 24.55-16.27 36.48-24.27V188.1" class="st0"/><path id="XMLID_51_" d="M6.69 334.28c-.28.98-.42 2.1-.28 2.81.28.7.84 1.12 2.1 1.12s2.53-.84 2.95-2.39c.98-4.91-10.52-3.79-8.98-11.08 1.12-4.91 6.31-6.45 10.52-6.45 4.35 0 7.86 2.1 6.45 7.01h-6.31c.28-1.54.42-2.53 0-2.95-.28-.42-.84-.56-1.54-.56-1.4 0-2.39.98-2.67 2.53-.84 3.65 10.52 3.51 8.98 10.8-.84 4.07-4.77 7.01-10.1 7.01-5.61 0-9.12-1.4-7.3-7.86l6.18.01m27.49-7.43c.7-3.37.14-4.63-1.96-4.63-2.81 0-3.51 2.39-4.49 7.16-1.54 7.01-1.26 8.56 1.12 8.56 1.96 0 3.37-1.82 3.93-4.77h6.45c-1.26 6.31-5.33 8.98-11.36 8.98-8.28 0-8.28-5.05-6.73-12.35 1.4-6.31 3.37-11.64 11.93-11.64 5.89 0 8.7 2.67 7.44 8.7l-6.33-.01m20.07-17.12l-1.12 5.05h-6.45l1.12-5.05h6.45m-6.74 31.99h-6.45l4.91-23.01h6.45l-4.91 23.01zm308.09-31.99l-1.12 5.05h-6.45l1.12-5.05h6.45m-6.88 31.99h-6.45l4.91-23.01h6.45l-4.91 23.01zM66.59 327.55c.42-2.24 1.26-5.47-1.82-5.47-2.95 0-3.65 3.51-4.07 5.47h5.89m-6.73 3.65c-.56 2.81-1.4 6.87 1.4 6.87 2.24 0 3.23-2.24 3.65-4.07h6.59c-.56 2.53-1.82 4.63-3.79 6.03-1.82 1.4-4.21 2.24-7.3 2.24-8.28 0-8.28-5.05-6.73-12.35 1.4-6.31 3.37-11.64 11.93-11.64 8.7 0 8.42 5.61 6.59 13.05l-12.34-.13zm24.55-10.24c1.82-2.1 3.65-2.81 6.17-2.81 3.09 0 5.33 1.82 4.63 5.05l-3.93 18.52h-6.45l3.37-15.85c.42-2.1.42-3.65-1.68-3.65s-2.81 1.54-3.23 3.65l-3.37 15.85h-6.45l4.91-23.01h6.45l-.42 2.25m25.53 5.89c.7-3.37.14-4.63-1.96-4.63-2.81 0-3.51 2.39-4.49 7.16-1.54 7.01-1.26 8.56 1.12 8.56 1.96 0 3.37-1.82 3.93-4.77h6.45c-1.26 6.31-5.33 8.98-11.36 8.98-8.28 0-8.28-5.05-6.73-12.35 1.4-6.31 3.37-11.64 11.93-11.64 5.89 0 8.7 2.67 7.44 8.7l-6.33-.01m21.33.7c.42-2.24 1.26-5.47-1.82-5.47-2.95 0-3.65 3.51-4.07 5.47h5.89m-6.6 3.65c-.56 2.81-1.4 6.87 1.4 6.87 2.24 0 3.23-2.24 3.65-4.07h6.59c-.56 2.53-1.82 4.63-3.79 6.03-1.82 1.4-4.21 2.24-7.3 2.24-8.28 0-8.28-5.05-6.73-12.35 1.4-6.31 3.37-11.64 11.93-11.64 8.7 0 8.42 5.61 6.59 13.05l-12.34-.13zm39.29-17.4c-2.53-.14-3.37.84-3.79 3.09l-.42 1.68h3.09l-.84 3.93h-2.95l-4.07 19.08h-6.45l4.07-19.08h-2.81l.84-3.93h2.95c1.26-5.75 2.39-8.98 9.26-8.98.84 0 1.54 0 2.24.14l-1.12 4.07m10.52 15.71c.98-4.77 1.26-7.16-1.4-7.16-2.81 0-3.51 2.39-4.49 7.16-1.54 7.01-1.26 8.56 1.12 8.56 2.24 0 3.22-1.54 4.77-8.56m-12.49.43c1.4-6.31 3.37-11.64 11.93-11.64s8.28 5.33 6.87 11.64c-1.54 7.16-3.65 12.35-12.07 12.35-8.27-.15-8.27-5.2-6.73-12.35zm30.31-11.37l-.56 2.95h.14c1.68-2.67 4.07-3.37 6.73-3.37l-1.26 5.75c-5.61-.42-6.31 2.95-6.87 5.19l-2.67 12.49h-6.45l4.91-23.01h6.03m19.5 16c-.28 1.68-.56 3.65 1.54 3.65 3.79 0 4.35-5.05 4.77-7.58-3.23 0-5.47-.28-6.31 3.93m11.22 2.8c-.28 1.4-.42 2.95-.56 4.35h-6.03l.42-3.09h-.14c-1.82 2.39-3.93 3.51-6.73 3.51-4.49 0-5.47-3.37-4.49-7.3 1.68-7.58 7.58-8 13.61-7.86l.42-1.82c.42-1.96.42-3.37-1.82-3.37s-2.81 1.68-3.23 3.51h-6.31c.56-2.81 1.82-4.63 3.51-5.61 1.68-1.12 3.93-1.54 6.31-1.54 8.14 0 8.42 3.51 7.58 7.72l-2.54 11.5zm25.53-10.52c.7-3.37.14-4.63-1.96-4.63-2.81 0-3.51 2.39-4.49 7.16-1.54 7.01-1.26 8.56 1.12 8.56 1.96 0 3.37-1.82 3.93-4.77h6.45c-1.26 6.31-5.33 8.98-11.36 8.98-8.28 0-8.28-5.05-6.73-12.35 1.4-6.31 3.37-11.64 11.93-11.64 5.89 0 8.7 2.67 7.44 8.7l-6.33-.01m35.36 7.72c-.42 1.68-.56 3.65 1.54 3.65 3.79 0 4.35-5.05 4.77-7.58-3.23 0-5.47-.28-6.31 3.93m11.22 2.8c-.28 1.4-.42 2.95-.56 4.35h-6.03l.42-3.09h-.14c-1.82 2.39-3.93 3.51-6.73 3.51-4.49 0-5.47-3.37-4.49-7.3 1.68-7.58 7.58-8 13.61-7.86l.42-1.82c.42-1.96.42-3.37-1.82-3.37s-2.81 1.68-3.23 3.51h-6.31c.56-2.81 1.82-4.63 3.51-5.61 1.68-1.12 3.93-1.54 6.31-1.54 8.14 0 8.42 3.51 7.58 7.72l-2.54 11.5zm14.17-16.41c1.82-2.1 3.65-2.81 6.17-2.81 3.09 0 5.33 1.82 4.63 5.05l-3.93 18.52h-6.45l3.37-15.85c.42-2.1.42-3.65-1.68-3.65s-2.81 1.54-3.23 3.65l-3.37 15.85h-6.45l4.91-23.01h6.45l-.42 2.25m20.2 16.41c2.39 0 3.23-2.39 4.21-7.3 1.12-5.05 1.4-8-.98-8-2.39 0-3.23 1.68-4.63 8.7-.42 2.25-1.68 6.6 1.4 6.6m13.05-18.66l-5.05 23.99c-.28 1.54-1.54 7.86-10.38 7.86-4.77 0-8.7-1.26-7.58-6.87h6.31c-.14.98-.28 1.82 0 2.39s.98.98 1.96.98c1.54 0 2.67-1.54 3.23-3.79l.98-4.49h-.28c-1.4 1.82-3.37 2.67-5.47 2.67-7.01 0-5.33-6.45-4.35-11.64 1.12-5.05 2.53-11.5 9.26-11.5 2.24 0 4.07.98 4.49 3.09h.14l.56-2.67 6.18-.02zm21.61 2.25c1.82-2.1 3.65-2.81 6.17-2.81 3.09 0 5.33 1.82 4.63 5.05l-3.93 18.52h-6.45l3.37-15.85c.42-2.1.42-3.65-1.68-3.65s-2.81 1.54-3.23 3.65l-3.37 15.85h-6.45l4.91-23.01h6.45l-.42 2.25m20.34 16.41c2.39 0 3.23-2.39 4.21-7.3 1.12-5.05 1.4-8-.84-8-2.39 0-3.23 1.68-4.63 8.7-.56 2.25-1.83 6.6 1.26 6.6m13.05-18.66l-5.05 23.99c-.28 1.54-1.54 7.86-10.38 7.86-4.77 0-8.7-1.26-7.58-6.87h6.31c-.14.98-.28 1.82 0 2.39s.98.98 1.96.98c1.54 0 2.67-1.54 3.23-3.79l.98-4.49h-.14c-1.4 1.82-3.37 2.67-5.47 2.67-7.01 0-5.33-6.45-4.35-11.64 1.12-5.05 2.53-11.5 9.26-11.5 2.24 0 4.07.98 4.49 3.09h.14l.56-2.67 6.04-.02zm10.1 0h6.45l-.56 17.4h.14l7.72-17.4h6.87l.14 17.4h.14l7.01-17.4h6.17l-10.94 23.01h-6.73l-.7-15.29h-.42l-7.72 15.29h-6.87l-.7-23.01m44.89 10.8c.98-4.77 1.26-7.16-1.4-7.16-2.81 0-3.51 2.39-4.49 7.16-1.54 7.01-1.26 8.56 1.12 8.56 2.39 0 3.23-1.54 4.77-8.56m-12.48.43c1.4-6.31 3.37-11.64 11.93-11.64s8.28 5.33 6.87 11.64c-1.54 7.16-3.65 12.35-12.07 12.35-8.42-.01-8.28-5.2-6.73-12.35zm30.72-11.23l-.7 2.95h.14c1.68-2.67 4.07-3.37 6.73-3.37l-1.26 5.75c-5.61-.42-6.31 2.95-6.87 5.19l-2.67 12.49h-6.45l4.91-23.01h6.17m-198.66-.56c-2.39 0-4.35.7-6.03 2.81h-.14l2.39-11.22h-6.45l-6.73 31.99h6.45l3.37-15.85c.42-2.1 1.12-3.65 3.23-3.65 2.1 0 2.1 1.54 1.68 3.65l-3.37 15.85h6.45l3.93-18.52c.55-3.24-1.69-5.06-4.78-5.06m209.46-8.42l-6.73 31.99h6.45l6.73-31.99h-6.45m17.12 20.21c-1.26 5.75-2.1 8.28-4.35 8.28-2.39 0-2.24-2.39-.98-8.28.98-4.63 1.54-7.86 4.35-7.86 2.8.14 1.96 3.23.98 7.86m4.35-20.21l-2.39 11.08h-.14c-.84-1.96-2.39-2.67-4.63-2.67-6.45 0-7.86 7.16-8.84 11.78-.98 4.77-2.81 12.21 3.79 12.21 2.53 0 4.35-.84 6.03-2.95h.14l-.56 2.53h6.17l6.73-31.99h-6.3v.01z" class="st0"/></g><path d="M75.1687 377.67881c-2.27462-1.87747-5.19914-2.80718-8.77356-2.80718-2.8523 0-5.2172.69503-7.07662 2.0941-1.03802.77627-2.13923 2.058-3.30362 3.83618v-5.0457h-8.7194v34.5256h9.00824v-18.72055c0-2.13923.29787-3.89033.88458-5.27136 1.14634-2.59957 3.24947-3.89936 6.3184-3.89936 2.5003 0 4.18821.88458 5.08181 2.66276.4784.97484.7221 2.37392.7221 4.1882v21.0403h9.27002v-23.28785c0-4.34165-1.13732-7.4467-3.41194-9.31514zm-12.10426-2.90647zm48.76007 1.14634c-1.7511-.74015-3.69176-1.11023-5.82196-1.11023-1.90455 0-3.71884.39716-5.44286 1.19147-1.72402.78529-3.24947 2.1934-4.55828 4.19723v-16.52716h-9.00825v46.61182h9.00825v-18.72055c0-2.96063.62281-5.24428 1.85942-6.84193 1.2366-1.59766 3.05088-2.39197 5.44285-2.39197 2.30171 0 3.87229.80334 4.69368 2.41002.63184 1.14634.94776 2.6447.94776 4.50412v21.0403h9.24293v-20.30917c0-3.087-.10831-5.31649-.32494-6.67946-.2076-1.36297-.79432-2.68984-1.74208-3.9806-1.11926-1.52544-2.55444-2.65373-4.29652-3.39389zm33.14457.33398c-1.63376-.92069-3.49317-1.38103-5.58727-1.38103-4.54926 0-8.17783 1.68792-10.90378 5.07278-2.71691 3.38487-4.07086 8.03341-4.07086 13.93661 0 5.11791 1.38103 9.30612 4.13405 12.58266 2.76205 3.26752 6.16496 4.90128 10.20874 4.90128 2.45516 0 4.50413-.46936 6.15594-1.39907 1.64279-.92971 3.11407-2.41905 4.40484-4.47705v4.79297h8.79161v-46.7111h-9.17072v16.50007c-1.01095-1.62473-2.33781-2.89744-3.96255-3.81812zm2.22047 24.6418c-1.33589 1.89552-3.27654 2.8523-5.84001 2.8523-2.56347 0-4.46802-.95678-5.7317-2.87036-1.25466-1.91357-1.8865-4.46802-1.8865-7.66333 0-2.96062.62282-5.44286 1.85942-7.4467 1.2366-1.9948 3.17726-2.99673 5.82196-2.99673 1.73305 0 3.2585.5506 4.56731 1.65182 2.13923 1.81428 3.20434 4.84712 3.20434 9.07143 0 3.03284-.66795 5.49702-1.99482 7.40157zm41.14188-14.98366c1.21855 2.04897 1.82331 4.41386 1.82331 7.07662 0 3.24044-.65892 5.83099-1.98578 7.77164-1.31784 1.94968-3.24045 2.92452-5.75878 2.92452-1.73305 0-3.23142-.4784-4.50413-1.42615-2.13923-1.63376-3.20433-4.459-3.20433-8.4757 0-2.53639.31592-4.6305.94776-6.2823 1.22758-3.11408 3.48415-4.6666 6.7607-4.6666 2.72594 0 4.7027 1.029 5.92125 3.07797zm6.95025-6.50797c-2.80718-2.97867-6.22815-4.46801-10.27193-4.46801-2.77107 0-5.15402.76723-7.16688 2.31073-1.1012.86652-2.13923 2.058-3.11407 3.55636v-5.10888h-8.65623v48.20044h8.94507v-18.02552c.94776 1.46226 1.9226 2.5725 2.9155 3.33973 1.8233 1.372 4.10696 2.058 6.85998 2.058 4.31457 0 7.84386-1.59766 10.57882-4.79297 2.744-3.19531 4.116-7.83483 4.116-13.92758 0-5.77683-1.4081-10.15459-4.20626-13.1423zm19.9752 30.87898v-46.77429h-9.04435v46.77429zm17.83597-34.58878h-9.27v20.85075c0 3.95352.49644 6.95025 1.48933 8.98117 1.77818 3.68273 5.22623 5.5241 10.34414 5.5241 1.77818 0 3.3307-.2347 4.64855-.70406 1.32686-.46034 2.69886-1.32686 4.11599-2.59957.46034-.40619.86652-.86653 1.2005-1.39908.343-.52352.5506-.84847.64086-.94776v4.88323h8.7826v-34.58878h-9.17073v18.81983c0 2.22047-.28884 4.00768-.88457 5.36162-1.14634 2.50029-3.2585 3.74592-6.3455 3.74592-2.41002 0-4.03475-.87555-4.85614-2.63568-.46937-.9929-.69503-2.4732-.69503-4.44094zm6.3455-.92069zm31.38444 24.4703h-9.17073c0 3.54734 1.29077 6.47186 3.88131 8.77357 2.59055 2.29268 6.60726 3.43902 12.05011 3.43902 5.32552 0 9.27001-1.08316 11.81543-3.24947s3.82715-4.96447 3.82715-8.39446c0-2.59958-.8936-4.77491-2.67178-6.50796-1.79624-1.715-4.4951-2.9877-8.08757-3.83618-5.39772-1.18245-8.53888-2.0219-9.42345-2.50931-.8936-.46034-1.3359-1.21855-1.3359-2.24755 0-.83042.41521-1.55252 1.25466-2.16631.83944-.60476 2.23852-.91166 4.20625-.91166 2.39197 0 4.0799.60476 5.07279 1.83234.53255.67697.8575 1.59766.98386 2.76205h9.04435c-.39715-4.22431-1.9587-7.20299-4.67562-8.92701-2.71692-1.72403-6.23717-2.59055-10.55174-2.59055-4.54926 0-8.07854 1.14634-10.58785 3.44805-2.50029 2.29268-3.75494 5.03667-3.75494 8.23198 0 2.7079.80334 4.78394 2.41002 6.21912 1.60668 1.46226 4.36873 2.67179 8.27711 3.64663 5.44286 1.29076 8.58402 2.20241 9.43249 2.73497.83944.52352 1.26368 1.29978 1.26368 2.31073 0 1.05608-.52353 1.85039-1.57058 2.38294-1.04705.52353-2.45515.79432-4.23333.79432-3.02381 0-5.09986-.60477-6.21912-1.81429-.64087-.67697-1.04705-1.81429-1.2366-3.42097zm6.91414-24.4703zm56.9018-11.26482h-37.89241v8.28614h14.05395v38.48815h9.83867v-38.48815h13.99979zm26.59148 37.57649c-1.41713 1.87747-3.44805 2.82523-6.09276 2.82523-2.6447 0-4.68465-.94776-6.1108-2.82523-1.42616-1.8865-2.13923-4.55828-2.13923-8.0334 0-3.4661.71307-6.1379 2.13923-8.01536 1.42615-1.86845 3.4661-2.80718 6.1108-2.80718 2.64471 0 4.67563.93873 6.09276 2.80718 1.41713 1.87747 2.12118 4.54925 2.12118 8.01535 0 3.47513-.70405 6.14691-2.12118 8.0334zm7.23006 4.99154c2.92452-3.6015 4.37776-7.94314 4.37776-13.02495 0-4.99154-1.45324-9.31514-4.37776-12.97982-2.9155-3.65565-7.3474-5.48799-13.29574-5.48799-5.9393 0-10.37122 1.83234-13.29574 5.488-2.9155 3.66467-4.37775 7.98827-4.37775 12.97981 0 5.0818 1.46226 9.42346 4.37775 13.02495 2.92452 3.61052 7.35644 5.41578 13.29574 5.41578 5.94833 0 10.38025-1.80526 13.29574-5.41578zm-13.29574-31.3032zm45.76334 26.31166c-1.41713 1.87747-3.44804 2.82523-6.09275 2.82523-2.6447 0-4.68465-.94776-6.1108-2.82523-1.42616-1.8865-2.13924-4.55828-2.13924-8.0334 0-3.4661.71308-6.1379 2.13924-8.01536 1.42615-1.86845 3.4661-2.80718 6.1108-2.80718 2.6447 0 4.67562.93873 6.09275 2.80718 1.41713 1.87747 2.12118 4.54925 2.12118 8.01535 0 3.47513-.70405 6.14691-2.12118 8.0334zm7.23007 4.99154c2.92452-3.6015 4.37776-7.94314 4.37776-13.02495 0-4.99154-1.45324-9.31514-4.37776-12.97982-2.9155-3.65565-7.3474-5.48799-13.29574-5.48799-5.9393 0-10.37122 1.83234-13.29574 5.488-2.9155 3.66467-4.37776 7.98827-4.37776 12.97981 0 5.0818 1.46227 9.42346 4.37776 13.02495 2.92452 3.61052 7.35643 5.41578 13.29574 5.41578 5.94833 0 10.38025-1.80526 13.29574-5.41578zm-13.29574-31.3032zm33.38828 35.50946v-46.77429h-9.04435v46.77429zm15.86824-11.03917h-9.17975c0 3.54734 1.29979 6.47186 3.89034 8.77357 2.59055 2.29268 6.60725 3.43902 12.04108 3.43902 5.33455 0 9.27001-1.08316 11.82445-3.24947 2.54542-2.16631 3.82716-4.96447 3.82716-8.39446 0-2.59958-.8936-4.77491-2.67179-6.50796-1.79623-1.715-4.4951-2.9877-8.08756-3.83618-5.39773-1.18245-8.53888-2.0219-9.42346-2.50931-.8936-.46034-1.3359-1.21855-1.3359-2.24755 0-.83042.41522-1.55252 1.25466-2.16631.83042-.60476 2.23852-.91166 4.20626-.91166 2.38294 0 4.07989.60476 5.07278 1.83234.53255.67697.8575 1.59766.98387 2.76205h9.04435c-.39716-4.22431-1.9587-7.20299-4.67563-8.92701-2.72594-1.72403-6.23717-2.59055-10.55174-2.59055-4.54926 0-8.07854 1.14634-10.58785 3.44805-2.50931 2.29268-3.75494 5.03667-3.75494 8.23198 0 2.7079.80334 4.78394 2.41002 6.21912 1.60668 1.46226 4.36873 2.67179 8.27712 3.64663 5.44286 1.29076 8.58401 2.20241 9.42346 2.73497.84847.52352 1.2727 1.29978 1.2727 2.31073 0 1.05608-.52352 1.85039-1.57057 2.38294-1.04705.52353-2.45516.79432-4.23334.79432-3.0238 0-5.09986-.60477-6.21912-1.81429-.64086-.67697-1.04705-1.81429-1.2366-3.42097zm6.91415-24.4703z"/></svg>
