<?xml version="1.0" encoding="UTF-8" standalone="no"?>
<!DOCTYPE svg PUBLIC "-//W3C//DTD SVG 1.1//EN" "http://www.w3.org/Graphics/SVG/1.1/DTD/svg11.dtd">
<svg width="144" height="34" viewBox="0 0 144 34" version="1.1" xmlns="http://www.w3.org/2000/svg" xmlns:xlink="http://www.w3.org/1999/xlink" xml:space="preserve" xmlns:serif="http://www.serif.com/" style="fill-rule:evenodd;clip-rule:evenodd;stroke-linejoin:round;stroke-miterlimit:2;">
    <g id="NMF.earth">
        <g transform="matrix(1,0,0,1,0,27)">
            <g transform="matrix(28,0,0,28,0,0)">
                <path d="M0.672,-0.727L0.518,-0.727L0.518,-0.27L0.512,-0.27L0.198,-0.727L0.063,-0.727L0.063,0L0.217,0L0.217,-0.458L0.222,-0.458L0.539,0L0.672,0L0.672,-0.727Z" style="fill:rgb(34,34,34);fill-rule:nonzero;"/>
            </g>
            <g transform="matrix(28,0,0,28,20.5824,0)">
                <path d="M0.063,-0.727L0.063,0L0.212,0L0.212,-0.475L0.218,-0.475L0.407,-0.004L0.508,-0.004L0.696,-0.473L0.702,-0.473L0.702,0L0.852,0L0.852,-0.727L0.662,-0.727L0.462,-0.239L0.453,-0.239L0.253,-0.727L0.063,-0.727Z" style="fill:rgb(34,34,34);fill-rule:nonzero;"/>
            </g>
            <g transform="matrix(28,0,0,28,46.4545,0)">
                <path d="M0.063,0L0.217,0L0.217,-0.3L0.513,-0.3L0.513,-0.427L0.217,-0.427L0.217,-0.6L0.545,-0.6L0.545,-0.727L0.063,-0.727L0.063,0Z" style="fill:rgb(34,34,34);fill-rule:nonzero;"/>
            </g>
        </g>
        <g transform="matrix(1,0,0,1,62.831,27)">
            <g transform="matrix(28,0,0,28,0,0)">
                <path d="M0.149,0.009C0.194,0.009 0.234,-0.029 0.234,-0.076C0.234,-0.123 0.194,-0.161 0.149,-0.161C0.102,-0.161 0.063,-0.123 0.064,-0.076C0.063,-0.029 0.102,0.009 0.149,0.009Z" style="fill:rgb(75,179,119);fill-rule:nonzero;"/>
            </g>
        </g>
        <g transform="matrix(1,0,0,1,71.1634,27)">
            <g transform="matrix(28,0,0,28,0,0)">
                <path d="M0.309,0.011C0.444,0.011 0.535,-0.055 0.556,-0.156L0.416,-0.165C0.401,-0.124 0.362,-0.102 0.311,-0.102C0.236,-0.102 0.188,-0.152 0.188,-0.234L0.188,-0.234L0.559,-0.234L0.559,-0.276C0.559,-0.461 0.447,-0.553 0.303,-0.553C0.142,-0.553 0.038,-0.439 0.038,-0.27C0.038,-0.097 0.141,0.011 0.309,0.011ZM0.188,-0.328C0.191,-0.39 0.238,-0.44 0.305,-0.44C0.371,-0.44 0.417,-0.393 0.417,-0.328L0.188,-0.328Z" style="fill:rgb(34,34,34);fill-rule:nonzero;"/>
            </g>
            <g transform="matrix(28,0,0,28,16.7344,0)">
                <path d="M0.216,0.01C0.297,0.01 0.349,-0.025 0.375,-0.076L0.38,-0.076L0.38,0L0.523,0L0.523,-0.368C0.523,-0.498 0.413,-0.553 0.292,-0.553C0.161,-0.553 0.075,-0.49 0.054,-0.391L0.194,-0.379C0.204,-0.415 0.237,-0.442 0.291,-0.442C0.342,-0.442 0.372,-0.416 0.372,-0.371L0.372,-0.369C0.372,-0.334 0.335,-0.33 0.24,-0.32C0.132,-0.31 0.035,-0.274 0.035,-0.152C0.035,-0.044 0.112,0.01 0.216,0.01ZM0.259,-0.094C0.213,-0.094 0.179,-0.116 0.179,-0.157C0.179,-0.2 0.214,-0.221 0.268,-0.228C0.301,-0.233 0.355,-0.241 0.373,-0.253L0.373,-0.195C0.373,-0.138 0.326,-0.094 0.259,-0.094Z" style="fill:rgb(34,34,34);fill-rule:nonzero;"/>
            </g>
            <g transform="matrix(28,0,0,28,32.9815,0)">
                <path d="M0.06,0L0.212,0L0.212,-0.309C0.212,-0.376 0.261,-0.422 0.327,-0.422C0.348,-0.422 0.377,-0.418 0.391,-0.414L0.391,-0.548C0.378,-0.551 0.359,-0.553 0.344,-0.553C0.283,-0.553 0.233,-0.518 0.213,-0.45L0.207,-0.45L0.207,-0.545L0.06,-0.545L0.06,0Z" style="fill:rgb(34,34,34);fill-rule:nonzero;"/>
            </g>
            <g transform="matrix(28,0,0,28,45.3807,0)">
                <path d="M0.35,-0.545L0.248,-0.545L0.248,-0.676L0.097,-0.676L0.097,-0.545L0.022,-0.545L0.022,-0.432L0.097,-0.432L0.097,-0.148C0.096,-0.041 0.169,0.012 0.278,0.007C0.317,0.006 0.345,-0.002 0.36,-0.007L0.337,-0.119C0.329,-0.118 0.313,-0.114 0.299,-0.114C0.269,-0.114 0.248,-0.126 0.248,-0.168L0.248,-0.432L0.35,-0.432L0.35,-0.545Z" style="fill:rgb(34,34,34);fill-rule:nonzero;"/>
            </g>
            <g transform="matrix(28,0,0,28,56.5767,0)">
                <path d="M0.212,-0.315C0.212,-0.386 0.255,-0.427 0.317,-0.427C0.378,-0.427 0.414,-0.387 0.414,-0.32L0.414,0L0.565,0L0.565,-0.347C0.566,-0.475 0.49,-0.553 0.377,-0.553C0.294,-0.553 0.239,-0.513 0.214,-0.449L0.207,-0.449L0.207,-0.727L0.06,-0.727L0.06,0L0.212,0L0.212,-0.315Z" style="fill:rgb(34,34,34);fill-rule:nonzero;"/>
            </g>
        </g>
    </g>
</svg>
