<?xml version="1.0" encoding="UTF-8" standalone="no"?>
<svg
   version="1.1"
   id="svg4"
   width="69.890625"
   height="9.140625"
   xmlns="http://www.w3.org/2000/svg"
   xmlns:svg="http://www.w3.org/2000/svg">
  <defs
     id="defs8" />
  <g
     aria-label="noaa_coops"
     id="text2"
     transform="translate(-1.0839844,6.7265625)">
    <path
       d="M 6.5566406,0 H 5.4550781 v -3.7265625 q 0,-0.4511719 -0.052734,-0.84375 Q 5.3496094,-4.96875 5.2089844,-5.1914062 5.0625,-5.4375 4.7871094,-5.5546875 4.5117187,-5.6777344 4.0722656,-5.6777344 q -0.4511718,0 -0.9433593,0.2226563 -0.4921875,0.2226562 -0.9433594,0.5683594 V 0 H 1.0839844 v -6.5449219 h 1.1015625 v 0.7265625 q 0.515625,-0.4277343 1.0664062,-0.6679687 0.5507813,-0.2402344 1.1308594,-0.2402344 1.0605469,0 1.6171875,0.6386719 0.5566406,0.6386719 0.5566406,1.8398437 z"
       id="path10" />
    <path
       d="m 14.255859,-3.2695313 q 0,1.5996094 -0.820312,2.52539068 -0.820313,0.92578124 -2.197266,0.92578124 -1.3886716,0 -2.2089841,-0.92578124 -0.8144531,-0.92578128 -0.8144531,-2.52539068 0,-1.5996093 0.8144531,-2.5253906 0.8203125,-0.9316406 2.2089841,-0.9316406 1.376953,0 2.197266,0.9316406 0.820312,0.9257813 0.820312,2.5253906 z m -1.136718,0 q 0,-1.2714843 -0.498047,-1.8867187 -0.498047,-0.6210937 -1.382813,-0.6210937 -0.896484,0 -1.394531,0.6210937 -0.4921875,0.6152344 -0.4921875,1.8867187 0,1.2304688 0.4980469,1.8691407 0.4980466,0.63281248 1.3886716,0.63281248 0.878907,0 1.376953,-0.62695308 0.503907,-0.6328126 0.503907,-1.8750001 z"
       id="path12" />
    <path
       d="m 21.046875,0 h -1.095703 v -0.69726562 q -0.146485,0.0996094 -0.398438,0.28124999 -0.246093,0.17578125 -0.480468,0.28125001 Q 18.796875,0 18.439453,0.08789062 q -0.357422,0.09375 -0.837891,0.09375 -0.884765,0 -1.5,-0.5859375 -0.615234,-0.5859375 -0.615234,-1.49414062 0,-0.7441406 0.316406,-1.2011719 0.322266,-0.4628906 0.914063,-0.7265625 0.597656,-0.2636718 1.435547,-0.3574218 0.83789,-0.09375 1.798828,-0.140625 v -0.1699219 q 0,-0.375 -0.134766,-0.6210938 -0.128906,-0.2460937 -0.375,-0.3867187 -0.234375,-0.1347656 -0.5625,-0.1816406 -0.328125,-0.046875 -0.685547,-0.046875 -0.433593,0 -0.966797,0.1171875 -0.533203,0.1113281 -1.101562,0.328125 h -0.05859 v -1.1191407 q 0.322266,-0.087891 0.931641,-0.1933593 0.609375,-0.1054688 1.201172,-0.1054688 0.691406,0 1.201172,0.1171875 0.515625,0.1113281 0.890625,0.3867188 0.36914,0.2695312 0.5625,0.6972656 0.193359,0.4277344 0.193359,1.0605469 z m -1.095703,-1.6113281 v -1.8222657 q -0.503906,0.029297 -1.189453,0.087891 -0.679688,0.058594 -1.078125,0.1699218 -0.47461,0.1347657 -0.767578,0.421875 -0.292969,0.28125 -0.292969,0.7792969 0,0.5625 0.339844,0.8496094 0.339843,0.28125 1.037109,0.28125 0.580078,0 1.060547,-0.2226562 0.480469,-0.2285157 0.890625,-0.5449222 z"
       id="path14" />
    <path
       d="m 28.253906,0 h -1.095703 v -0.69726562 q -0.146484,0.0996094 -0.398437,0.28124999 -0.246094,0.17578125 -0.480469,0.28125001 Q 26.003906,0 25.646484,0.08789062 q -0.357422,0.09375 -0.83789,0.09375 -0.884766,0 -1.5,-0.5859375 -0.615235,-0.5859375 -0.615235,-1.49414062 0,-0.7441406 0.316407,-1.2011719 0.322265,-0.4628906 0.914062,-0.7265625 0.597656,-0.2636718 1.435547,-0.3574218 0.837891,-0.09375 1.798828,-0.140625 v -0.1699219 q 0,-0.375 -0.134766,-0.6210938 -0.128906,-0.2460937 -0.375,-0.3867187 -0.234375,-0.1347656 -0.5625,-0.1816406 -0.328125,-0.046875 -0.685546,-0.046875 -0.433594,0 -0.966797,0.1171875 -0.533203,0.1113281 -1.101563,0.328125 h -0.05859 v -1.1191407 q 0.322266,-0.087891 0.931641,-0.1933593 0.609375,-0.1054688 1.201172,-0.1054688 0.691406,0 1.201172,0.1171875 0.515625,0.1113281 0.890625,0.3867188 0.36914,0.2695312 0.5625,0.6972656 0.193359,0.4277344 0.193359,1.0605469 z m -1.095703,-1.6113281 v -1.8222657 q -0.503906,0.029297 -1.189453,0.087891 -0.679688,0.058594 -1.078125,0.1699218 -0.474609,0.1347657 -0.767578,0.421875 -0.292969,0.28125 -0.292969,0.7792969 0,0.5625 0.339844,0.8496094 0.339844,0.28125 1.037109,0.28125 0.580078,0 1.060547,-0.2226562 0.480469,-0.2285157 0.890625,-0.5449222 z"
       id="path16" />
    <path
       d="m 36.943359,1.7578125 h -7.675781 v -0.703125 h 7.675781 z"
       id="path18" />
    <path
       d="M 42.84375,-0.41015625 Q 42.292969,-0.14648437 41.794922,0 q -0.492188,0.14648437 -1.048828,0.14648437 -0.708985,0 -1.300782,-0.20507812 -0.591796,-0.2109375 -1.013671,-0.6328125 -0.427735,-0.42187495 -0.66211,-1.06640625 -0.234375,-0.6445313 -0.234375,-1.5058594 0,-1.6054687 0.878906,-2.5195312 0.884766,-0.9140625 2.332032,-0.9140625 0.5625,0 1.101562,0.1582031 0.544922,0.1582031 0.996094,0.3867188 v 1.2246093 h -0.05859 q -0.50391,-0.3925781 -1.042973,-0.6035156 -0.533203,-0.2109375 -1.042968,-0.2109375 -0.9375,0 -1.482422,0.6328125 -0.539063,0.6269531 -0.539063,1.8457031 0,1.1835938 0.527344,1.8222657 0.533203,0.63281245 1.494141,0.63281245 0.333984,0 0.679687,-0.0878906 Q 41.724609,-0.984375 42,-1.125 q 0.240234,-0.1230469 0.451172,-0.2578125 0.210937,-0.140625 0.333984,-0.2402344 h 0.05859 z"
       id="path20" />
    <path
       d="m 49.833984,-3.2695313 q 0,1.5996094 -0.820312,2.52539068 -0.820313,0.92578124 -2.197266,0.92578124 -1.388672,0 -2.208984,-0.92578124 -0.814453,-0.92578128 -0.814453,-2.52539068 0,-1.5996093 0.814453,-2.5253906 0.820312,-0.9316406 2.208984,-0.9316406 1.376953,0 2.197266,0.9316406 0.820312,0.9257813 0.820312,2.5253906 z m -1.136718,0 q 0,-1.2714843 -0.498047,-1.8867187 -0.498047,-0.6210937 -1.382813,-0.6210937 -0.896484,0 -1.394531,0.6210937 -0.492188,0.6152344 -0.492188,1.8867187 0,1.2304688 0.498047,1.8691407 0.498047,0.63281248 1.388672,0.63281248 0.878906,0 1.376953,-0.62695308 0.503907,-0.6328126 0.503907,-1.8750001 z"
       id="path22" />
    <path
       d="m 57.117187,-3.2695313 q 0,1.5996094 -0.820312,2.52539068 -0.820313,0.92578124 -2.197266,0.92578124 -1.388672,0 -2.208984,-0.92578124 -0.814453,-0.92578128 -0.814453,-2.52539068 0,-1.5996093 0.814453,-2.5253906 0.820312,-0.9316406 2.208984,-0.9316406 1.376953,0 2.197266,0.9316406 0.820312,0.9257813 0.820312,2.5253906 z m -1.136718,0 q 0,-1.2714843 -0.498047,-1.8867187 -0.498047,-0.6210937 -1.382813,-0.6210937 -0.896484,0 -1.394531,0.6210937 -0.492187,0.6152344 -0.492187,1.8867187 0,1.2304688 0.498046,1.8691407 0.498047,0.63281248 1.388672,0.63281248 0.878907,0 1.376953,-0.62695308 0.503907,-0.6328126 0.503907,-1.8750001 z"
       id="path24" />
    <path
       d="m 64.582031,-3.3515625 q 0,0.796875 -0.228515,1.4589844 -0.228516,0.65625 -0.644532,1.11328123 -0.386718,0.43359374 -0.914062,0.67382812 -0.521485,0.234375 -1.107422,0.234375 -0.509766,0 -0.925781,-0.11132812 Q 60.351562,-0.09375 59.923828,-0.328125 v 2.7421875 h -1.101562 v -8.9589844 h 1.101562 v 0.6855469 q 0.439453,-0.3691406 0.984375,-0.6152344 0.550781,-0.2519531 1.171875,-0.2519531 1.183594,0 1.839844,0.8964844 0.662109,0.890625 0.662109,2.4785156 z m -1.136719,0.029297 q 0,-1.1835938 -0.404296,-1.7695313 -0.404297,-0.5859375 -1.242188,-0.5859375 -0.474609,0 -0.955078,0.2050782 -0.480469,0.2050781 -0.919922,0.5390625 v 3.7089843 q 0.46875,0.2109375 0.802734,0.2871094 0.339844,0.0761719 0.767579,0.0761719 0.919921,0 1.435546,-0.6210938 0.515625,-0.6210937 0.515625,-1.8398437 z"
       id="path26" />
    <path
       d="m 70.974609,-1.8867187 q 0,0.89648432 -0.74414,1.47070307 -0.738282,0.57421875 -2.021485,0.57421875 -0.726562,0 -1.335937,-0.16992187 Q 66.269531,-0.1875 65.859375,-0.39257813 V -1.6289062 h 0.05859 q 0.521484,0.3925781 1.160156,0.6269531 0.638672,0.2285156 1.224609,0.2285156 0.726563,0 1.136719,-0.234375 0.410156,-0.234375 0.410156,-0.7382812 0,-0.3867188 -0.222656,-0.5859376 -0.222656,-0.1992187 -0.855469,-0.3398437 -0.234375,-0.052734 -0.615234,-0.1230469 -0.375,-0.070312 -0.685547,-0.1523437 -0.861328,-0.2285157 -1.224609,-0.6679688 -0.357422,-0.4453125 -0.357422,-1.0898437 0,-0.4042969 0.164062,-0.7617188 0.169922,-0.3574218 0.509766,-0.6386718 0.328125,-0.2753907 0.832031,-0.4335938 0.509766,-0.1640625 1.136719,-0.1640625 0.585937,0 1.183594,0.1464844 0.603515,0.140625 1.001953,0.3457031 v 1.1777344 h -0.05859 q -0.421875,-0.3105469 -1.025391,-0.5214844 -0.603515,-0.2167969 -1.183593,-0.2167969 -0.603516,0 -1.019532,0.234375 -0.416015,0.2285157 -0.416015,0.6855469 0,0.4042969 0.251953,0.609375 0.246094,0.2050781 0.796875,0.3339844 0.304687,0.070312 0.679687,0.140625 0.38086,0.070312 0.632813,0.1289062 0.767578,0.1757813 1.183594,0.6035156 0.416015,0.4335938 0.416015,1.1484376 z"
       id="path28" />
  </g>
</svg>
