<?xml version="1.0" encoding="UTF-8" standalone="no"?>
<svg
   version="1.1"
   id="svg4"
   width="76.435547"
   height="9.2988281"
   xmlns="http://www.w3.org/2000/svg"
   xmlns:svg="http://www.w3.org/2000/svg">
  <defs
     id="defs8" />
  <g
     aria-label="NYISOToolkit"
     id="text2"
     transform="translate(-1.171875,9.1171875)">
    <path
       d="M 7.828125,0 H 6.3925781 L 2.2558594,-7.8046875 V 0 H 1.171875 v -8.7246094 h 1.7988281 l 3.7734375,7.125 v -7.125 H 7.828125 Z"
       id="path10" />
    <path
       d="m 16.324219,-8.7246094 -3.070313,4.8984375 V 0 H 12.09375 V -3.703125 L 9.0117188,-8.7246094 h 1.2832032 l 2.384766,3.9023438 2.408203,-3.9023438 z"
       id="path12" />
    <path
       d="m 20.607422,0 h -3.445313 v -0.890625 h 1.142578 v -6.9433594 h -1.142578 v -0.890625 h 3.445313 v 0.890625 h -1.142578 v 6.9433594 h 1.142578 z"
       id="path14" />
    <path
       d="m 28.921875,-2.4902344 q 0,0.5097657 -0.240234,1.0078125 -0.234375,0.4980469 -0.66211,0.84375003 -0.46875,0.37499999 -1.095703,0.5859375 -0.621094,0.21093749 -1.5,0.21093749 -0.943359,0 -1.699219,-0.17578125 -0.75,-0.17578124 -1.529297,-0.52148437 v -1.453125 h 0.08203 q 0.662109,0.5507813 1.529297,0.8496094 0.867187,0.2988281 1.628906,0.2988281 1.078125,0 1.675781,-0.4042969 0.603516,-0.4042968 0.603516,-1.078125 0,-0.5800781 -0.28711,-0.8554687 -0.28125,-0.2753907 -0.861328,-0.4277344 -0.439453,-0.1171875 -0.955078,-0.1933594 -0.509766,-0.076172 -1.083984,-0.1933594 -1.160157,-0.2460937 -1.722657,-0.8378906 -0.55664,-0.5976562 -0.55664,-1.5527343 0,-1.0957032 0.925781,-1.7929688 0.925781,-0.703125 2.349609,-0.703125 0.919922,0 1.6875,0.1757812 0.767579,0.1757813 1.359375,0.4335938 v 1.3710938 h -0.08203 q -0.498047,-0.421875 -1.3125,-0.6972657 -0.808594,-0.28125 -1.658203,-0.28125 -0.931641,0 -1.5,0.3867188 -0.5625,0.3867187 -0.5625,0.9960937 0,0.5449219 0.28125,0.8554688 0.28125,0.3105469 0.990234,0.4746094 0.375,0.082031 1.066407,0.1992187 0.691406,0.1171875 1.171875,0.2402344 0.972656,0.2578125 1.464843,0.7792968 0.492188,0.5214844 0.492188,1.4589844 z"
       id="path16" />
    <path
       d="m 37.289062,-7.7226562 q 0.533204,0.5859375 0.814454,1.4355468 0.287109,0.8496094 0.287109,1.9277344 0,1.078125 -0.292969,1.9335937 -0.287109,0.8496094 -0.808594,1.4179688 -0.539062,0.59179687 -1.277343,0.890625 -0.732422,0.29882812 -1.675782,0.29882812 -0.919921,0 -1.675781,-0.30468749 -0.75,-0.30468751 -1.277344,-0.88476563 -0.527343,-0.5800781 -0.814453,-1.4238281 -0.28125,-0.84375 -0.28125,-1.9277344 0,-1.0664062 0.28125,-1.9101562 0.28125,-0.8496094 0.820313,-1.453125 0.515625,-0.5742188 1.277344,-0.8789063 0.767578,-0.3046875 1.669921,-0.3046875 0.9375,0 1.681641,0.3105469 0.75,0.3046875 1.271484,0.8730469 z m -0.105468,3.3632812 q 0,-1.6992187 -0.761719,-2.6191406 -0.761719,-0.9257813 -2.080078,-0.9257813 -1.330078,0 -2.091797,0.9257813 -0.755859,0.9199219 -0.755859,2.6191406 0,1.7167969 0.773437,2.6308594 0.773438,0.9082031 2.074219,0.9082031 1.300781,0 2.068359,-0.9082031 0.773438,-0.9140625 0.773438,-2.6308594 z"
       id="path18" />
    <path
       d="M 46.160156,-7.6933594 H 43.042969 V 0 h -1.160157 v -7.6933594 h -3.117187 v -1.03125 h 7.394531 z"
       id="path20" />
    <path
       d="m 51.533203,-3.2695313 q 0,1.5996094 -0.820312,2.52539068 -0.820313,0.92578124 -2.197266,0.92578124 -1.388672,0 -2.208984,-0.92578124 -0.814454,-0.92578128 -0.814454,-2.52539068 0,-1.5996093 0.814454,-2.5253906 0.820312,-0.9316406 2.208984,-0.9316406 1.376953,0 2.197266,0.9316406 0.820312,0.9257813 0.820312,2.5253906 z m -1.136719,0 q 0,-1.2714843 -0.498047,-1.8867187 -0.498046,-0.6210937 -1.382812,-0.6210937 -0.896484,0 -1.394531,0.6210937 -0.492188,0.6152344 -0.492188,1.8867187 0,1.2304688 0.498047,1.8691407 0.498047,0.63281248 1.388672,0.63281248 0.878906,0 1.376953,-0.62695308 0.503906,-0.6328126 0.503906,-1.8750001 z"
       id="path22" />
    <path
       d="m 58.816406,-3.2695313 q 0,1.5996094 -0.820312,2.52539068 -0.820313,0.92578124 -2.197266,0.92578124 -1.388672,0 -2.208984,-0.92578124 -0.814453,-0.92578128 -0.814453,-2.52539068 0,-1.5996093 0.814453,-2.5253906 0.820312,-0.9316406 2.208984,-0.9316406 1.376953,0 2.197266,0.9316406 0.820312,0.9257813 0.820312,2.5253906 z m -1.136719,0 q 0,-1.2714843 -0.498046,-1.8867187 -0.498047,-0.6210937 -1.382813,-0.6210937 -0.896484,0 -1.394531,0.6210937 -0.492188,0.6152344 -0.492188,1.8867187 0,1.2304688 0.498047,1.8691407 0.498047,0.63281248 1.388672,0.63281248 0.878906,0 1.376953,-0.62695308 0.503906,-0.6328126 0.503906,-1.8750001 z"
       id="path24" />
    <path
       d="m 61.634766,0 h -1.101563 v -9.1171875 h 1.101563 z"
       id="path26" />
    <path
       d="m 69.755859,0 h -1.453125 l -2.625,-2.8652344 -0.714843,0.6796875 V 0 h -1.101563 v -9.1171875 h 1.101563 v 5.8476562 l 3.18164,-3.2753906 h 1.388672 l -3.041016,3.0234375 z"
       id="path28" />
    <path
       d="m 72.099609,-7.640625 h -1.242187 v -1.1425781 h 1.242187 z M 72.029297,0 h -1.101563 v -6.5449219 h 1.101563 z"
       id="path30" />
    <path
       d="m 77.607422,-0.05859375 q -0.310547,0.08203125 -0.679688,0.13476562 -0.363281,0.05273438 -0.65039,0.05273438 -1.001953,0 -1.523438,-0.5390625 -0.521484,-0.5390625 -0.521484,-1.72851565 v -3.4804687 h -0.744141 v -0.9257813 h 0.744141 v -1.8808594 h 1.101562 v 1.8808594 h 2.273438 v 0.9257813 h -2.273438 v 2.9824218 q 0,0.515625 0.02344,0.8085938 0.02344,0.2871094 0.164062,0.5390625 0.128907,0.234375 0.351563,0.34570312 0.228515,0.10546875 0.691406,0.10546875 0.269531,0 0.5625,-0.0761719 0.292969,-0.0820313 0.421875,-0.13476557 h 0.05859 z"
       id="path32" />
  </g>
</svg>
