<?xml version="1.0" encoding="UTF-8" standalone="no"?>
<svg
   version="1.1"
   id="svg4"
   width="59.367188"
   height="11.320312"
   xmlns="http://www.w3.org/2000/svg"
   xmlns:svg="http://www.w3.org/2000/svg">
  <defs
     id="defs8" />
  <g
     aria-label="OceanSpy"
     id="text2"
     transform="translate(-0.67382812,8.90625)">
    <path
       d="m 7.6757812,-7.7226562 q 0.5332032,0.5859375 0.8144532,1.4355468 0.2871094,0.8496094 0.2871094,1.9277344 0,1.078125 -0.2929688,1.9335937 -0.2871094,0.8496094 -0.8085938,1.4179688 -0.5390625,0.59179687 -1.2773437,0.890625 -0.7324219,0.29882812 -1.6757813,0.29882812 -0.9199218,0 -1.6757812,-0.30468749 -0.75,-0.30468751 -1.2773438,-0.88476563 -0.5273437,-0.5800781 -0.81445307,-1.4238281 -0.28125001,-0.84375 -0.28125001,-1.9277344 0,-1.0664062 0.28125001,-1.9101562 Q 1.2363281,-7.1191406 1.7753906,-7.7226562 2.2910156,-8.296875 3.0527344,-8.6015625 3.8203125,-8.90625 4.7226562,-8.90625 q 0.9375,0 1.6816407,0.3105469 0.75,0.3046875 1.2714843,0.8730469 z M 7.5703125,-4.359375 q 0,-1.6992187 -0.7617188,-2.6191406 -0.7617187,-0.9257813 -2.0800781,-0.9257813 -1.3300781,0 -2.0917968,0.9257813 -0.7558594,0.9199219 -0.7558594,2.6191406 0,1.7167969 0.7734375,2.6308594 0.7734375,0.9082031 2.0742187,0.9082031 1.3007813,0 2.0683594,-0.9082031 0.7734375,-0.9140625 0.7734375,-2.6308594 z"
       id="path10" />
    <path
       d="M 15.369141,-0.41015625 Q 14.818359,-0.14648437 14.320313,0 q -0.492188,0.14648437 -1.048829,0.14648437 -0.708984,0 -1.300781,-0.20507812 -0.591797,-0.2109375 -1.013672,-0.6328125 -0.427734,-0.42187495 -0.662109,-1.06640625 -0.234375,-0.6445313 -0.234375,-1.5058594 0,-1.6054687 0.878906,-2.5195312 0.884766,-0.9140625 2.332031,-0.9140625 0.5625,0 1.101563,0.1582031 0.544922,0.1582031 0.996094,0.3867188 v 1.2246093 h -0.05859 q -0.503906,-0.3925781 -1.042969,-0.6035156 -0.533203,-0.2109375 -1.042969,-0.2109375 -0.9375,0 -1.482421,0.6328125 -0.539063,0.6269531 -0.539063,1.8457031 0,1.1835938 0.527344,1.8222657 0.533203,0.63281245 1.49414,0.63281245 0.333985,0 0.679688,-0.0878906 Q 14.25,-0.984375 14.525391,-1.125 q 0.240234,-0.1230469 0.451172,-0.2578125 0.210937,-0.140625 0.333984,-0.2402344 h 0.05859 z"
       id="path12" />
    <path
       d="M 22.259766,-3.1582031 H 17.4375 q 0,0.6035156 0.181641,1.0546875 0.18164,0.4453125 0.498046,0.7324219 0.304688,0.28125 0.720704,0.42187495 0.421875,0.140625 0.925781,0.140625 0.667969,0 1.341797,-0.26367185 0.679687,-0.2695313 0.966797,-0.5273438 h 0.05859 v 1.2011719 q -0.55664,0.234375 -1.136718,0.39257812 -0.580079,0.15820313 -1.21875,0.15820313 -1.628907,0 -2.542969,-0.87890625 -0.914063,-0.8847656 -0.914063,-2.5078125 0,-1.6054687 0.873047,-2.5488281 0.878906,-0.9433594 2.308594,-0.9433594 1.324219,0 2.039062,0.7734375 0.720704,0.7734375 0.720704,2.1972656 z m -1.072266,-0.84375 q -0.0059,-0.8671875 -0.439453,-1.3417969 -0.427735,-0.4746094 -1.306641,-0.4746094 -0.884765,0 -1.412109,0.5214844 -0.521485,0.5214844 -0.591797,1.2949219 z"
       id="path14" />
    <path
       d="m 29.015625,0 h -1.095703 v -0.69726562 q -0.146485,0.0996094 -0.398438,0.28124999 -0.246093,0.17578125 -0.480468,0.28125001 Q 26.765625,0 26.408203,0.08789062 q -0.357422,0.09375 -0.837891,0.09375 -0.884765,0 -1.5,-0.5859375 -0.615234,-0.5859375 -0.615234,-1.49414062 0,-0.7441406 0.316406,-1.2011719 0.322266,-0.4628906 0.914063,-0.7265625 0.597656,-0.2636718 1.435547,-0.3574218 0.83789,-0.09375 1.798828,-0.140625 v -0.1699219 q 0,-0.375 -0.134766,-0.6210938 -0.128906,-0.2460937 -0.375,-0.3867187 -0.234375,-0.1347656 -0.5625,-0.1816406 -0.328125,-0.046875 -0.685547,-0.046875 -0.433593,0 -0.966797,0.1171875 -0.533203,0.1113281 -1.101562,0.328125 h -0.05859 v -1.1191407 q 0.322266,-0.087891 0.931641,-0.1933593 0.609375,-0.1054688 1.201172,-0.1054688 0.691406,0 1.201172,0.1171875 0.515625,0.1113281 0.890625,0.3867188 0.36914,0.2695312 0.5625,0.6972656 0.193359,0.4277344 0.193359,1.0605469 z m -1.095703,-1.6113281 v -1.8222657 q -0.503906,0.029297 -1.189453,0.087891 -0.679688,0.058594 -1.078125,0.1699218 -0.47461,0.1347657 -0.767578,0.421875 -0.292969,0.28125 -0.292969,0.7792969 0,0.5625 0.339844,0.8496094 0.339843,0.28125 1.037109,0.28125 0.580078,0 1.060547,-0.2226562 0.480469,-0.2285157 0.890625,-0.5449222 z"
       id="path16" />
    <path
       d="m 36.609375,0 h -1.101563 v -3.7265625 q 0,-0.4511719 -0.05273,-0.84375 Q 35.402344,-4.96875 35.261719,-5.1914062 35.115234,-5.4375 34.839844,-5.5546875 34.564453,-5.6777344 34.125,-5.6777344 q -0.451172,0 -0.943359,0.2226563 -0.492188,0.2226562 -0.94336,0.5683594 V 0 h -1.101562 v -6.5449219 h 1.101562 v 0.7265625 q 0.515625,-0.4277343 1.066406,-0.6679687 0.550782,-0.2402344 1.13086,-0.2402344 1.060547,0 1.617187,0.6386719 0.556641,0.6386719 0.556641,1.8398437 z"
       id="path18" />
    <path
       d="m 45.158203,-2.4902344 q 0,0.5097657 -0.240234,1.0078125 -0.234375,0.4980469 -0.66211,0.84375003 -0.46875,0.37499999 -1.095703,0.5859375 -0.621094,0.21093749 -1.5,0.21093749 -0.943359,0 -1.699219,-0.17578125 -0.75,-0.17578124 -1.529296,-0.52148437 v -1.453125 h 0.08203 q 0.662109,0.5507813 1.529297,0.8496094 0.867187,0.2988281 1.628906,0.2988281 1.078125,0 1.675781,-0.4042969 0.603516,-0.4042968 0.603516,-1.078125 0,-0.5800781 -0.28711,-0.8554687 -0.28125,-0.2753907 -0.861328,-0.4277344 -0.439453,-0.1171875 -0.955078,-0.1933594 -0.509765,-0.076172 -1.083984,-0.1933594 -1.160156,-0.2460937 -1.722656,-0.8378906 -0.556641,-0.5976562 -0.556641,-1.5527343 0,-1.0957032 0.925781,-1.7929688 0.925781,-0.703125 2.34961,-0.703125 0.919921,0 1.6875,0.1757812 0.767578,0.1757813 1.359375,0.4335938 v 1.3710938 h -0.08203 q -0.498047,-0.421875 -1.3125,-0.6972657 -0.808593,-0.28125 -1.658203,-0.28125 -0.93164,0 -1.5,0.3867188 -0.5625,0.3867187 -0.5625,0.9960937 0,0.5449219 0.28125,0.8554688 0.28125,0.3105469 0.990235,0.4746094 0.375,0.082031 1.066406,0.1992187 0.691406,0.1171875 1.171875,0.2402344 0.972656,0.2578125 1.464844,0.7792968 0.492187,0.5214844 0.492186,1.4589844 z"
       id="path20" />
    <path
       d="m 52.693359,-3.3515625 q 0,0.796875 -0.228515,1.4589844 -0.228516,0.65625 -0.644532,1.11328123 -0.386718,0.43359374 -0.914062,0.67382812 -0.521484,0.234375 -1.107422,0.234375 -0.509766,0 -0.925781,-0.11132812 Q 48.462891,-0.09375 48.035156,-0.328125 v 2.7421875 h -1.101562 v -8.9589844 h 1.101562 v 0.6855469 q 0.439453,-0.3691406 0.984375,-0.6152344 0.550781,-0.2519531 1.171875,-0.2519531 1.183594,0 1.839844,0.8964844 0.662109,0.890625 0.662109,2.4785156 z m -1.136718,0.029297 q 0,-1.1835938 -0.404297,-1.7695313 -0.404297,-0.5859375 -1.242188,-0.5859375 -0.474609,0 -0.955078,0.2050782 -0.480469,0.2050781 -0.919922,0.5390625 v 3.7089843 q 0.46875,0.2109375 0.802735,0.2871094 0.339843,0.0761719 0.767578,0.0761719 0.919922,0 1.435547,-0.6210938 0.515625,-0.6210937 0.515625,-1.8398437 z"
       id="path22" />
    <path
       d="m 60.041016,-6.5449219 -3.820313,8.9589844 h -1.177734 l 1.21875,-2.73046875 -2.607422,-6.22851565 h 1.195312 l 2.009766,4.8515625 2.027344,-4.8515625 z"
       id="path24" />
  </g>
</svg>
