<?xml version="1.0" encoding="UTF-8" standalone="no"?>
<svg
   version="1.1"
   id="svg4"
   width="59.34375"
   height="9.0878906"
   xmlns="http://www.w3.org/2000/svg"
   xmlns:svg="http://www.w3.org/2000/svg">
  <defs
     id="defs8" />
  <g
     aria-label="ONEARMY"
     id="text2"
     transform="translate(-0.67382812,8.90625)">
    <path
       d="m 7.6757812,-7.7226562 q 0.5332032,0.5859375 0.8144532,1.4355468 0.2871094,0.8496094 0.2871094,1.9277344 0,1.078125 -0.2929688,1.9335937 -0.2871094,0.8496094 -0.8085938,1.4179688 -0.5390625,0.59179687 -1.2773437,0.890625 -0.7324219,0.29882812 -1.6757813,0.29882812 -0.9199218,0 -1.6757812,-0.30468749 -0.75,-0.30468751 -1.2773438,-0.88476563 -0.5273437,-0.5800781 -0.81445307,-1.4238281 -0.28125001,-0.84375 -0.28125001,-1.9277344 0,-1.0664062 0.28125001,-1.9101562 Q 1.2363281,-7.1191406 1.7753906,-7.7226562 2.2910156,-8.296875 3.0527344,-8.6015625 3.8203125,-8.90625 4.7226562,-8.90625 q 0.9375,0 1.6816407,0.3105469 0.75,0.3046875 1.2714843,0.8730469 z M 7.5703125,-4.359375 q 0,-1.6992187 -0.7617188,-2.6191406 -0.7617187,-0.9257813 -2.0800781,-0.9257813 -1.3300781,0 -2.0917968,0.9257813 -0.7558594,0.9199219 -0.7558594,2.6191406 0,1.7167969 0.7734375,2.6308594 0.7734375,0.9082031 2.0742187,0.9082031 1.3007813,0 2.0683594,-0.9082031 0.7734375,-0.9140625 0.7734375,-2.6308594 z"
       id="path10" />
    <path
       d="M 17.273437,0 H 15.837891 L 11.701172,-7.8046875 V 0 h -1.083984 v -8.7246094 h 1.798828 l 3.773437,7.125 v -7.125 h 1.083984 z"
       id="path12" />
    <path
       d="M 25.341797,0 H 19.59375 v -8.7246094 h 5.748047 v 1.03125 h -4.587891 v 2.390625 h 4.587891 v 1.03125 H 20.753906 V -1.03125 h 4.587891 z"
       id="path14" />
    <path
       d="M 34.060547,0 H 32.824219 L 31.96875,-2.4316406 H 28.195312 L 27.339844,0 h -1.177735 l 3.175782,-8.7246094 h 1.546875 z m -2.449219,-3.4277344 -1.529297,-4.2832031 -1.535156,4.2832031 z"
       id="path16" />
    <path
       d="m 42.603516,0 h -1.50586 L 38.179687,-3.46875 H 36.544922 V 0 h -1.160156 v -8.7246094 h 2.443359 q 0.791016,0 1.318359,0.1054688 0.527344,0.099609 0.949219,0.3632812 0.474609,0.2988282 0.738281,0.7558594 0.269532,0.4511719 0.269532,1.1484375 0,0.9433594 -0.47461,1.5820313 -0.474609,0.6328125 -1.30664,0.9550781 z m -2.712891,-6.2695312 q 0,-0.375 -0.134766,-0.6621094 -0.128906,-0.2929688 -0.433593,-0.4921875 -0.251954,-0.1699219 -0.597657,-0.234375 -0.345703,-0.070312 -0.814453,-0.070312 h -1.365234 v 3.2929687 h 1.171875 q 0.550781,0 0.960937,-0.09375 0.410157,-0.099609 0.697266,-0.3632812 0.263672,-0.2460938 0.386719,-0.5625 0.128906,-0.3222656 0.128906,-0.8144536 z"
       id="path18" />
    <path
       d="m 51.498047,0 h -1.160156 v -7.5175781 l -2.425782,5.1152343 H 47.220703 L 44.8125,-7.5175781 V 0 h -1.083984 v -8.7246094 h 1.582031 l 2.326172,4.8574219 2.25,-4.8574219 h 1.611328 z"
       id="path20" />
    <path
       d="m 60.017578,-8.7246094 -3.070312,4.8984375 V 0 h -1.160157 v -3.703125 l -3.082031,-5.0214844 h 1.283203 l 2.384766,3.9023438 2.408203,-3.9023438 z"
       id="path22" />
  </g>
</svg>
