<?xml version="1.0" encoding="utf-8"?>
<!-- Generator: Adobe Illustrator 16.0.4, SVG Export Plug-In . SVG Version: 6.00 Build 0)  -->
<!DOCTYPE svg PUBLIC "-//W3C//DTD SVG 1.1//EN" "http://www.w3.org/Graphics/SVG/1.1/DTD/svg11.dtd">
<svg version="1.1" id="Layer_1" xmlns="http://www.w3.org/2000/svg" xmlns:xlink="http://www.w3.org/1999/xlink" x="0px" y="0px"
	 width="960px" height="560px" viewBox="0 0 960 560" enable-background="new 0 0 960 560" xml:space="preserve">
<g>
	<path d="M328.97754,228.77441c-3.26221,3.35938-7.979,5.03906-14.15039,5.03906c-6.17188,0-10.88867-1.67969-14.15039-5.03906
		c-4.37549-4.12061-6.5625-10.05859-6.5625-17.8125c0-7.91016,2.18701-13.84717,6.5625-17.8125
		c3.26172-3.35889,7.97852-5.03906,14.15039-5.03906c6.17139,0,10.88818,1.68018,14.15039,5.03906
		c4.35498,3.96533,6.5332,9.90234,6.5332,17.8125C335.51074,218.71582,333.33252,224.65381,328.97754,228.77441z
		 M323.33789,222.21191c2.09912-2.63672,3.14941-6.38672,3.14941-11.25c0-4.84375-1.05029-8.58838-3.14941-11.23535
		c-2.09961-2.64648-4.93652-3.96973-8.51074-3.96973s-6.42627,1.31836-8.55469,3.95508
		c-2.12891,2.63672-3.19336,6.38672-3.19336,11.25s1.06445,8.61328,3.19336,11.25c2.12842,2.63672,4.98047,3.95508,8.55469,3.95508
		S321.23828,224.84863,323.33789,222.21191z"/>
	<path d="M368.57617,204.10645c2.60498,2.75391,3.90723,6.79688,3.90723,12.12891c0,5.625-1.27295,9.9126-3.81885,12.86133
		c-2.54541,2.94922-5.82373,4.42383-9.8335,4.42383c-2.55566,0-4.67871-0.63477-6.36914-1.9043
		c-0.92383-0.70312-1.82861-1.72852-2.71289-3.07617v16.64062h-8.26172v-44.50195h7.99805v4.7168
		c0.9043-1.38672,1.86719-2.47998,2.88965-3.28125c1.86719-1.42529,4.08789-2.13867,6.66357-2.13867
		C362.79248,199.97559,365.97168,201.35254,368.57617,204.10645z M362.16797,210.1123
		c-1.13477-1.89404-2.97461-2.8418-5.51953-2.8418c-3.05859,0-5.16016,1.43555-6.3042,4.30664
		c-0.59229,1.52344-0.88818,3.45703-0.88818,5.80078c0,3.71094,0.99561,6.31836,2.98682,7.82227
		c1.18408,0.87891,2.58496,1.31836,4.20361,1.31836c2.34863,0,4.13965-0.89795,5.37354-2.69531
		c1.23291-1.79688,1.8501-4.18945,1.8501-7.17773C363.87012,214.18457,363.30273,212.00684,362.16797,210.1123z"/>
	<path d="M399.18115,201.32568c2.22754,0.99756,4.06738,2.57227,5.51807,4.72412c1.30811,1.89746,2.15625,4.09766,2.54443,6.60156
		c0.22461,1.46729,0.31641,3.58008,0.2749,6.33789h-23.25781c0.12939,3.20361,1.24268,5.44922,3.33936,6.73828
		c1.27539,0.80127,2.80957,1.20117,4.604,1.20117c1.90186,0,3.44727-0.48779,4.63574-1.46484
		c0.64844-0.52734,1.22168-1.25977,1.71875-2.19727h8.52441c-0.22461,1.89453-1.25635,3.81885-3.09521,5.77148
		c-2.86084,3.10547-6.86523,4.6582-12.01416,4.6582c-4.25,0-7.99951-1.30957-11.24805-3.9292
		c-3.24902-2.61914-4.87305-6.88086-4.87305-12.78467c0-5.53174,1.46631-9.77393,4.39893-12.72559s6.73926-4.42773,11.41943-4.42773
		C394.4502,199.8291,396.95361,200.32812,399.18115,201.32568z M386.68994,208.53857
		c-1.18018,1.21631-1.9209,2.86377-2.22412,4.94287h14.38477c-0.15186-2.21631-0.89307-3.89844-2.22412-5.0459
		c-1.33154-1.14746-2.98193-1.72168-4.95215-1.72168C389.53076,206.71387,387.86963,207.32227,386.68994,208.53857z"/>
	<path d="M437.4917,202.50977c2.09082,1.72852,3.13623,4.59521,3.13623,8.59863v21.50391h-8.55469v-19.42383
		c0-1.67969-0.22314-2.96875-0.66895-3.86719c-0.81445-1.64062-2.36572-2.46094-4.65283-2.46094
		c-2.81201,0-4.74072,1.20117-5.7876,3.60352c-0.54297,1.27002-0.81445,2.89062-0.81445,4.86328v17.28516h-8.34961v-31.875h8.08594
		v4.6582c1.06934-1.64062,2.08105-2.82227,3.03418-3.54492c1.71094-1.28906,3.87988-1.93359,6.50586-1.93359
		C432.7124,199.91699,435.40088,200.78125,437.4917,202.50977z"/>
	<path d="M477.7124,189.42871h12.98389v43.18359h-8.4082v-29.20898c0-0.83936,0.00977-2.0166,0.0293-3.53027
		c0.01953-1.51318,0.0293-2.68066,0.0293-3.50098l-8.18359,36.24023h-8.76953l-8.125-36.24023
		c0,0.82031,0.00977,1.98779,0.0293,3.50098c0.01904,1.51367,0.0293,2.69092,0.0293,3.53027v29.20898h-8.4082v-43.18359h13.13037
		l7.86084,33.95508L477.7124,189.42871z"/>
	<path d="M499.0459,189.42871h9.16992v26.52197c0,2.96631,0.35059,5.13232,1.05078,6.49854
		c1.08984,2.41992,3.46387,3.62988,7.12305,3.62988c3.63965,0,6.00391-1.20996,7.09375-3.62988
		c0.7002-1.36621,1.05078-3.53223,1.05078-6.49854v-26.52197h9.16992v26.54297c0,4.58984-0.71191,8.16406-2.13477,10.72266
		c-2.65234,4.6875-7.71191,7.03125-15.17969,7.03125s-12.53809-2.34375-15.20898-7.03125
		c-1.42383-2.55859-2.13477-6.13281-2.13477-10.72266V189.42871z"/>
	<path d="M546.50098,193.94043c3.47754-3.55469,7.90234-5.33203,13.27441-5.33203c7.18848,0,12.44336,2.3833,15.76758,7.14844
		c1.83496,2.67627,2.82031,5.36133,2.95605,8.05664h-9.02344c-0.57422-2.06982-1.31055-3.63281-2.20996-4.6875
		c-1.60742-1.875-3.98926-2.8125-7.14648-2.8125c-3.21484,0-5.75,1.32324-7.60645,3.96973
		c-1.85547,2.64697-2.7832,6.3916-2.7832,11.23535c0,4.84424,0.97949,8.47168,2.9375,10.88379
		c1.95801,2.4126,4.44629,3.61816,7.46484,3.61816c3.0957,0,5.45508-1.03516,7.0791-3.10547
		c0.89746-1.11328,1.64258-2.7832,2.23535-5.00977h8.96484c-0.77344,4.70703-2.74902,8.53564-5.92676,11.48438
		c-3.17871,2.94922-7.25098,4.42383-12.2168,4.42383c-6.14453,0-10.97559-1.99219-14.49219-5.97656
		c-3.5166-4.00342-5.27441-9.49219-5.27441-16.46484C540.50098,203.83301,542.50098,198.02295,546.50098,193.94043z"/>
</g>
</svg>
