<svg xmlns="http://www.w3.org/2000/svg" role="img" viewBox="-38.40 -38.40 1996.80 597.80"><style>svg {enable-background:new 0 0 1920 376.2}</style><g><g><linearGradient id="SVGID_1_" x1="124.699" x2="230.69" y1="351.773" y2="154.108" gradientUnits="userSpaceOnUse"><stop offset="0" stop-color="#62c1ab"/><stop offset=".466" stop-color="#5fbfab"/><stop offset=".781" stop-color="#56b8ac"/><stop offset=".994" stop-color="#4bafac"/></linearGradient><path fill="url(#SVGID_1_)" d="M142.4,375.6c0,0,82.2-54,82.2-54c24.8-16.3,41.1-43.4,43.9-72.8c1.7-17.7-1.7-36-9.4-52.1 c-3.3-6.9-8.7-12.6-15.3-16.4l-88.8-50.7c12.1,18.4,17.8,41.4,15.7,63.3c-2.8,29.5-19.2,56.6-43.9,72.8c0,0-82.2,54-82.2,54 L142.4,375.6z"/><linearGradient id="SVGID_00000014606923795637060520000005964493445451487410_" x1="-957.311" x2="-851.32" y1="-2780.32" y2="-2977.984" gradientTransform="rotate(180 -406.406 -1378.221)" gradientUnits="userSpaceOnUse"><stop offset="0" stop-color="#3f9493"/><stop offset=".453" stop-color="#409796"/><stop offset=".758" stop-color="#42a09e"/><stop offset=".994" stop-color="#45adaa"/></linearGradient><path fill="url(#SVGID_00000014606923795637060520000005964493445451487410_)" d="M126.8,0c0,0-82.2,54-82.2,54 C19.8,70.2,3.5,97.3,0.7,126.8c-1.7,17.7,1.7,36,9.4,52.1c3.3,6.9,8.7,12.6,15.3,16.4l88.8,50.7c-12.1-18.4-17.8-41.4-15.7-63.3 c2.8-29.5,19.2-56.6,43.9-72.8c0,0,82.2-54,82.2-54L126.8,0z"/></g></g><g><path fill="#2d2d2d" d="M542.7 190.6c-5.8-5.2-12.7-9.5-20.6-13.1-7.9-3.5-16.6-6.4-26.1-8.5l-19.5-4.7c-4.7-1.1-9.2-2.3-13.4-3.9-4.2-1.5-7.8-3.3-11-5.4-3.2-2.1-5.7-4.6-7.5-7.5-1.8-2.9-2.6-6.3-2.5-10.2 0-4.7 1.4-8.8 4.1-12.5 2.7-3.7 6.7-6.6 11.8-8.6 5.2-2.1 11.5-3.1 19-3.1 11 0 19.8 2.4 26.2 7.1 6.4 4.7 10.1 11.4 10.9 19.9h44c-.2-12.9-3.7-24.3-10.4-34.2-6.7-9.8-16.1-17.5-28.2-23-12.1-5.5-26.2-8.3-42.3-8.3-15.8 0-30 2.8-42.4 8.3-12.5 5.5-22.2 13.2-29.3 23-7.1 9.8-10.6 21.3-10.6 34.5-.1 16.1 5.2 28.8 15.8 38.3 10.6 9.5 25.1 16.5 43.4 20.9l23.7 5.9c7.9 1.9 14.6 4 20.1 6.4 5.5 2.3 9.7 5.2 12.5 8.5 2.9 3.3 4.3 7.4 4.3 12.3 0 5.2-1.6 9.9-4.8 13.9-3.2 4-7.7 7.2-13.4 9.4-5.8 2.3-12.5 3.4-20.3 3.4-7.9 0-15-1.2-21.3-3.7-6.3-2.4-11.2-6.1-15-10.9-3.7-4.8-5.8-10.9-6.3-18.2h-44.5c.4 15.6 4.2 28.7 11.4 39.3 7.3 10.6 17.4 18.5 30.3 23.9 13 5.4 28.2 8.1 45.8 8.1 17.7 0 32.8-2.7 45.4-8 12.6-5.3 22.2-12.9 28.9-22.6 6.7-9.7 10.1-21.2 10.1-34.5-.1-9.1-1.7-17.1-4.9-24.1C553 201.8 548.5 195.7 542.7 190.6zM588.6 132H633.8000000000001V295H588.6zM611.3 65.2c-6.7 0-12.4 2.2-17.2 6.7-4.8 4.5-7.2 9.9-7.2 16.1 0 6.3 2.4 11.7 7.2 16.2 4.8 4.5 10.6 6.7 17.3 6.7 6.7 0 12.5-2.2 17.2-6.7 4.8-4.5 7.2-9.9 7.2-16.2 0-6.2-2.4-11.6-7.2-16.1C623.9 67.5 618.1 65.2 611.3 65.2zM790.1 137.3c-8.4-5-18.3-7.4-29.6-7.4-12.1 0-22.4 2.8-30.9 8.3-8.5 5.6-14.5 13.1-18.1 22.5h-1.9V132h-43.1v163h45.2v-94.2c.1-7 1.4-13 4-18 2.6-5 6.2-8.8 10.8-11.4 4.6-2.6 10-3.9 16.1-3.9 9.1 0 16.2 2.8 21.3 8.4 5.2 5.6 7.7 13.4 7.6 23.4V295h45.2V191.2c0-12.7-2.3-23.6-7-32.7C805.1 149.3 798.5 142.2 790.1 137.3zM956 159.4h-1.7c-2.1-4.4-5-8.9-8.8-13.4-3.8-4.6-8.8-8.4-14.9-11.5-6.2-3.1-13.8-4.6-22.9-4.6-12 0-22.9 3.1-32.9 9.2-10 6.2-18 15.4-24 27.8-6 12.4-9 27.8-9 46.3 0 18 3 32.9 8.9 44.7 5.9 11.8 13.9 20.5 23.9 26.2 10 5.7 21.1 8.5 33.4 8.5 8.6 0 16.1-1.3 22.3-3.8 6.2-2.5 11.3-5.8 15.3-9.9 4-4 6.9-8.3 8.9-12.8h1.9v29.8c0 10.7-3.2 18.4-9.6 23-6.4 4.7-14.5 7-24.4 7-6.6 0-12.1-.9-16.7-2.6-4.6-1.7-8.2-3.9-11-6.5-2.8-2.7-4.8-5.5-6.1-8.4l-41.8 5.6c1.8 8.2 5.8 15.7 12 22.4 6.2 6.7 14.4 12.1 24.9 16 10.4 4 23 5.9 37.6 5.9 15.6 0 29.3-2.3 41.3-7 12-4.7 21.4-11.6 28.2-20.7 6.8-9.2 10.2-20.5 10.2-34.1V132H956V159.4zM952.3 237.5c-2.7 6.8-6.6 12.1-11.7 15.7-5.1 3.6-11.2 5.5-18.5 5.5-7.4 0-13.7-1.9-18.7-5.6-5.1-3.7-8.9-9-11.6-15.8-2.7-6.8-4-14.9-4-24.3 0-9.3 1.3-17.4 3.9-24.5 2.6-7.1 6.5-12.6 11.6-16.6 5.1-4 11.4-6 18.8-6 7.3 0 13.5 1.9 18.6 5.8 5.1 3.9 9 9.4 11.7 16.4 2.7 7 4 15.3 4 24.9C956.4 222.5 955.1 230.7 952.3 237.5zM1137.6 225.6c.1 7.3-1.4 13.4-4.3 18.4-2.9 5-6.8 8.7-11.5 11.2-4.7 2.5-9.8 3.8-15.3 3.8-8.6 0-15.4-2.8-20.5-8.4-5.1-5.6-7.7-13.2-7.7-22.8V132h-45.2v103.8c.1 12.7 2.4 23.7 7.1 32.8 4.6 9.1 11.1 16.2 19.4 21.1 8.3 5 17.9 7.4 28.8 7.4 12.2 0 22.6-2.9 31.1-8.7 8.5-5.8 14.6-13.5 18.3-23h1.7V295h43.4V132h-45.2V225.6zM1215.4 77.7H1260.6000000000001V295H1215.4zM1409.9 142.9c-6.5-4.5-13.9-7.7-22.2-9.9-8.3-2.1-17-3.2-26-3.2-13 0-24.5 2-34.3 5.9-9.9 3.9-17.9 9.5-24.1 16.8-6.2 7.3-10.4 15.8-12.5 25.7l41.8 3.4c1.6-5.4 4.7-9.9 9.5-13.4 4.8-3.6 11.3-5.4 19.4-5.4 7.7 0 13.7 1.8 17.9 5.5 4.2 3.7 6.3 8.9 6.3 15.6v.6c0 3.5-1.3 6.1-3.9 7.9-2.6 1.8-6.8 3.1-12.6 4-5.8.9-13.4 1.8-22.9 2.8-8.1.8-15.8 2.1-23.1 4-7.3 1.9-13.8 4.7-19.6 8.5-5.7 3.7-10.3 8.7-13.6 14.9-3.3 6.2-5 13.8-5 22.8 0 10.8 2.3 19.7 7.1 26.9 4.7 7.2 11.1 12.6 19.3 16.2 8.1 3.6 17.4 5.5 27.8 5.5 8.1 0 15.2-1.1 21.3-3.2 6.2-2.2 11.4-5.2 15.8-9 4.4-3.9 7.9-8.3 10.5-13.4h1.3V295h42.9V185c0-9.7-1.9-18-5.6-25C1421.5 153.1 1416.4 147.4 1409.9 142.9zM1386 236.7c0 5.7-1.4 10.9-4.3 15.4-2.9 4.5-6.9 8.1-12 10.8-5.1 2.7-11 4-17.6 4-6.9 0-12.6-1.6-17.1-4.8-4.5-3.2-6.7-7.9-6.7-14.1 0-4.2 1.1-7.8 3.3-10.7 2.2-2.9 5.3-5.1 9.2-6.8 4-1.7 8.6-2.9 13.9-3.7 2.5-.4 5.2-.8 8.3-1.2 3-.5 6.1-1 9.1-1.6 3-.6 5.8-1.3 8.2-2 2.4-.7 4.4-1.6 5.8-2.5V236.7zM1547.5 129.6c-9.1 0-17.2 2.6-24.2 7.8-7 5.2-12 12.9-15 23h-1.7V132h-43.8v163h45.2v-92.2c0-6.6 1.5-12.5 4.5-17.6 3-5.1 7.1-9.1 12.3-11.9 5.2-2.9 11.1-4.3 17.8-4.3 3.1 0 6.5.2 10.3.7 3.7.5 6.7 1.1 8.8 1.7v-40.1c-2-.5-4.3-.9-6.9-1.2C1552.2 129.8 1549.8 129.6 1547.5 129.6zM1579.2 132H1624.4V295H1579.2zM1601.9 65.2c-6.7 0-12.4 2.2-17.2 6.7-4.8 4.5-7.2 9.9-7.2 16.1 0 6.3 2.4 11.7 7.2 16.2 4.8 4.5 10.6 6.7 17.3 6.7s12.5-2.2 17.2-6.7c4.8-4.5 7.2-9.9 7.2-16.2 0-6.2-2.4-11.6-7.2-16.1C1614.5 67.5 1608.7 65.2 1601.9 65.2zM1731.9 260.2c-2.1.4-4.2.6-6.4.6-3 0-5.7-.5-8-1.4-2.3-.9-4.1-2.5-5.4-4.8-1.3-2.3-1.9-5.5-1.9-9.7v-78.9h30.7v-34h-30.7v-39H1665v39h-22.3v34h22.3v84.9c-.1 10.7 2.2 19.5 6.7 26.5 4.5 7 10.9 12.2 19 15.5 8.2 3.3 17.7 4.8 28.6 4.4 5.9-.2 10.9-.8 15-1.8 4.1-1 7.3-1.8 9.5-2.5l-7.1-33.6C1735.6 259.5 1734 259.8 1731.9 260.2zM1872.1 132l-34.1 119.7h-1.7L1802.6 132h-47.5l58.5 167.7-2.7 6.9c-3.2 7.4-7.5 11.6-13 12.8-5.5 1.2-12.2.5-20.2-2l-10.2 33.8c3.3 1.3 7.4 2.3 12.4 3.2 5 .9 10.3 1.3 16.1 1.3 11.2 0 20.7-1.8 28.7-5.4 7.9-3.6 14.5-8.6 19.7-15.1 5.2-6.5 9.3-14.1 12.4-22.8l63.4-180.4L1872.1 132z"/></g><path d="M38.62 42.96C36.10 46.13 32.70 47.71 28.41 47.71C24.12 47.71 20.70 46.13 18.14 42.96C15.59 39.80 14.31 35.30 14.31 29.46C14.31 23.63 15.59 19.13 18.14 15.96C20.70 12.80 24.12 11.21 28.41 11.21C32.70 11.21 36.10 12.80 38.62 15.98C41.14 19.15 42.40 23.65 42.40 29.46C42.40 35.30 41.14 39.80 38.62 42.96ZM45.39 50.84C50.61 45.89 53.23 38.77 53.23 29.46C53.23 19.97 50.61 12.84 45.39 8.09C41.47 4.05 35.81 2.04 28.41 2.04C21.00 2.04 15.34 4.05 11.43 8.09C6.18 12.84 3.55 19.97 3.55 29.46C3.55 38.77 6.18 45.89 11.43 50.84C15.34 54.87 21.00 56.88 28.41 56.88C35.81 56.88 41.47 54.87 45.39 50.84ZM28.41 2.04ZM85.06 28.44C86.41 30.71 87.08 33.33 87.08 36.28C87.08 39.87 86.35 42.74 84.88 44.89C83.42 47.05 81.29 48.13 78.50 48.13C76.58 48.13 74.92 47.60 73.51 46.55C71.14 44.74 69.96 41.61 69.96 37.16C69.96 34.35 70.31 32.03 71.02 30.20C72.38 26.75 74.87 25.03 78.50 25.03C81.53 25.03 83.71 26.17 85.06 28.44ZM92.76 21.23C89.65 17.93 85.86 16.28 81.39 16.28C78.32 16.28 75.67 17.13 73.44 18.84C72.22 19.80 71.07 21.12 70.00 22.78L70.00 17.12L60.40 17.12L60.40 70.52L70.31 70.52L70.31 50.55C71.37 52.17 72.45 53.40 73.55 54.25C75.56 55.77 78.09 56.53 81.14 56.53C85.92 56.53 89.83 54.76 92.87 51.22C95.90 47.68 97.42 42.54 97.42 35.79C97.42 29.39 95.87 24.54 92.76 21.23ZM114.38 26.54C115.66 25.09 117.46 24.36 119.78 24.36C121.91 24.36 123.70 25.05 125.14 26.42C126.58 27.79 127.38 29.80 127.55 32.45L111.97 32.45C112.30 29.96 113.10 28.00 114.38 26.54ZM128.39 17.89C125.84 16.70 122.96 16.10 119.78 16.10C114.41 16.10 110.04 17.87 106.68 21.41C103.32 24.95 101.64 30.04 101.64 36.67C101.64 43.75 103.50 48.86 107.23 52.00C110.95 55.14 115.25 56.71 120.13 56.71C126.04 56.71 130.63 54.84 133.91 51.12C136.02 48.77 137.20 46.46 137.46 44.19L127.23 44.19C126.69 45.32 126.07 46.20 125.37 46.83C124.08 48.00 122.40 48.59 120.34 48.59C118.39 48.59 116.73 48.11 115.35 47.14C113.07 45.60 111.87 42.90 111.73 39.06L137.95 39.06C138.00 35.75 137.89 33.22 137.64 31.46C137.19 28.46 136.22 25.83 134.72 23.55C133.05 20.98 130.95 19.09 128.39 17.89ZM120.48 16.10ZM175.66 19.32C173.14 17.24 169.90 16.21 165.94 16.21C162.77 16.21 160.16 16.98 158.10 18.53C156.95 19.39 155.73 20.81 154.44 22.78L154.44 17.19L144.77 17.19L144.77 55.44L154.76 55.44L154.76 34.70C154.76 32.33 155.09 30.39 155.74 28.86C157.01 25.98 159.34 24.54 162.74 24.54C165.50 24.54 167.38 25.52 168.36 27.49C168.90 28.57 169.17 30.12 169.17 32.13L169.17 55.44L179.44 55.44L179.44 29.64C179.44 24.83 178.18 21.39 175.66 19.32ZM162.25 16.10ZM244.34 19.79L254.99 19.79C254.40 14.80 252.11 10.63 248.12 7.29C244.12 3.96 238.83 2.29 232.24 2.29C224.65 2.29 218.54 4.82 213.93 9.88C209.31 14.94 207 21.67 207 30.06C207 38.36 209.29 44.89 213.86 49.68C218.24 54.43 223.86 56.81 230.73 56.81C234.90 56.81 238.42 55.93 241.28 54.18C242.94 53.17 244.82 51.43 246.90 48.97L247.99 55.44L255.16 55.44L255.16 27.63L233.58 27.63L233.58 36.28L245.57 36.28C245.03 39.68 243.60 42.43 241.28 44.53C238.96 46.62 235.98 47.67 232.35 47.67C228.64 47.67 225.34 46.35 222.43 43.70C219.53 41.05 218.07 36.54 218.07 30.16C218.07 23.84 219.42 19.10 222.10 15.94C224.78 12.79 228.21 11.21 232.38 11.21C234.56 11.21 236.54 11.60 238.32 12.38C241.51 13.78 243.52 16.25 244.34 19.79ZM232.21 2.29ZM285.98 16.22C285.85 16.21 285.69 16.21 285.50 16.21C282.50 16.21 280.07 16.99 278.19 18.56C277.04 19.50 275.70 21.25 274.15 23.80L274.15 17.12L264.59 17.12L264.59 55.44L274.68 55.44L274.68 37.13C274.68 34.05 275.06 31.78 275.84 30.30C277.22 27.68 279.93 26.37 283.96 26.37C284.26 26.37 284.66 26.38 285.15 26.40C285.64 26.43 286.21 26.47 286.84 26.54L286.84 16.28C286.39 16.25 286.11 16.24 285.98 16.22ZM303.01 12.55L303.01 3.30L292.85 3.30L292.85 12.55ZM292.85 17.12L292.85 55.44L303.01 55.44L303.01 17.12ZM333.04 17.74C331.23 16.72 329.17 16.21 326.85 16.21C321.81 16.21 317.78 18.08 314.77 21.83C311.76 25.58 310.25 30.73 310.25 37.27C310.25 42.94 311.78 47.58 314.84 51.21C317.90 54.83 321.67 56.64 326.14 56.64C328.86 56.64 331.14 56.12 332.96 55.09C334.79 54.06 336.42 52.41 337.85 50.13L337.85 55.44L347.59 55.44L347.59 3.69L337.43 3.69L337.43 21.97C336.30 20.17 334.84 18.76 333.04 17.74ZM335.50 45.04C334.02 47.14 331.86 48.20 329.03 48.20C326.19 48.20 324.08 47.14 322.68 45.02C321.29 42.90 320.59 40.07 320.59 36.53C320.59 33.25 321.28 30.50 322.65 28.28C324.02 26.07 326.17 24.96 329.10 24.96C331.02 24.96 332.71 25.57 334.16 26.79C336.53 28.80 337.71 32.16 337.71 36.84C337.71 40.20 336.97 42.93 335.50 45.04ZM415.83 12.80L415.83 3.62L377.82 3.62L377.82 55.44L417.09 55.44L417.09 46.13L388.41 46.13L388.41 32.80L413.58 32.80L413.58 23.80L388.41 23.80L388.41 12.80ZM397.09 3.62ZM472.54 17.26C470.89 16.61 469.23 16.28 467.54 16.28C465.01 16.28 462.71 16.80 460.65 17.86C458.71 18.91 457.08 20.57 455.77 22.82C455.02 20.94 453.91 19.41 452.46 18.21C450.66 16.92 448.29 16.28 445.36 16.28C442.27 16.28 439.75 17.03 437.80 18.53C436.70 19.37 435.53 20.79 434.29 22.78L434.29 17.19L424.55 17.19L424.55 55.44L434.71 55.44L434.71 32.38C434.71 30.29 434.98 28.72 435.52 27.67C436.50 25.82 438.42 24.89 441.28 24.89C443.74 24.89 445.39 25.82 446.24 27.67C446.71 28.70 446.94 30.35 446.94 32.63L446.94 55.44L457.03 55.44L457.03 32.63C457.03 30.91 457.30 29.45 457.84 28.23C458.89 25.93 460.80 24.79 463.57 24.79C465.96 24.79 467.60 25.68 468.49 27.46C468.96 28.39 469.20 29.59 469.20 31.04L469.20 55.44L479.46 55.44L479.53 31.29C479.53 28.80 479.41 26.92 479.18 25.63C478.80 23.68 478.08 22.04 477 20.71C475.66 19.07 474.18 17.92 472.54 17.26ZM499.04 12.55L499.04 3.30L488.88 3.30L488.88 12.55ZM488.88 17.12L488.88 55.44L499.04 55.44L499.04 17.12ZM516.55 43.21L506.39 43.21C506.39 47.14 507.83 50.38 510.70 52.93C513.57 55.47 518.02 56.74 524.04 56.74C529.95 56.74 534.31 55.54 537.13 53.14C539.96 50.74 541.37 47.64 541.37 43.84C541.37 40.96 540.39 38.55 538.42 36.63C536.43 34.73 533.44 33.32 529.45 32.38C523.48 31.07 520.00 30.14 519.01 29.60C518.03 29.09 517.54 28.25 517.54 27.11C517.54 26.19 518.00 25.39 518.92 24.71C519.85 24.04 521.40 23.70 523.58 23.70C526.23 23.70 528.11 24.37 529.21 25.73C529.79 26.48 530.16 27.50 530.30 28.79L540.32 28.79C539.87 24.11 538.14 20.81 535.13 18.90C532.12 16.99 528.22 16.03 523.44 16.03C518.40 16.03 514.49 17.30 511.72 19.85C508.94 22.39 507.55 25.43 507.55 28.97C507.55 31.97 508.44 34.27 510.22 35.86C512.00 37.48 515.06 38.82 519.40 39.90C525.42 41.33 528.90 42.34 529.84 42.93C530.78 43.51 531.25 44.37 531.25 45.49C531.25 46.66 530.67 47.54 529.51 48.13C528.35 48.71 526.78 49.01 524.81 49.01C521.46 49.01 519.16 48.34 517.92 47.00C517.22 46.25 516.76 44.99 516.55 43.21ZM524.21 16.10ZM556.59 43.21L546.43 43.21C546.43 47.14 547.87 50.38 550.74 52.93C553.61 55.47 558.06 56.74 564.08 56.74C569.99 56.74 574.35 55.54 577.18 53.14C580.00 50.74 581.41 47.64 581.41 43.84C581.41 40.96 580.43 38.55 578.46 36.63C576.47 34.73 573.48 33.32 569.50 32.38C563.52 31.07 560.04 30.14 559.05 29.60C558.07 29.09 557.58 28.25 557.58 27.11C557.58 26.19 558.04 25.39 558.97 24.71C559.89 24.04 561.45 23.70 563.63 23.70C566.27 23.70 568.15 24.37 569.25 25.73C569.84 26.48 570.20 27.50 570.34 28.79L580.36 28.79C579.91 24.11 578.19 20.81 575.17 18.90C572.16 16.99 568.27 16.03 563.48 16.03C558.45 16.03 554.54 17.30 551.76 19.85C548.98 22.39 547.59 25.43 547.59 28.97C547.59 31.97 548.48 34.27 550.27 35.86C552.05 37.48 555.11 38.82 559.44 39.90C565.46 41.33 568.95 42.34 569.88 42.93C570.82 43.51 571.29 44.37 571.29 45.49C571.29 46.66 570.71 47.54 569.55 48.13C568.39 48.71 566.82 49.01 564.86 49.01C561.50 49.01 559.21 48.34 557.96 47.00C557.26 46.25 556.80 44.99 556.59 43.21ZM564.26 16.10ZM599.13 12.55L599.13 3.30L588.97 3.30L588.97 12.55ZM588.97 17.12L588.97 55.44L599.13 55.44L599.13 17.12ZM632.78 45.25C631.21 47.33 628.96 48.38 626.03 48.38C623.10 48.38 620.84 47.33 619.26 45.25C617.68 43.16 616.89 40.20 616.89 36.35C616.89 32.51 617.68 29.55 619.26 27.47C620.84 25.40 623.10 24.36 626.03 24.36C628.96 24.36 631.21 25.40 632.78 27.47C634.35 29.55 635.13 32.51 635.13 36.35C635.13 40.20 634.35 43.16 632.78 45.25ZM640.79 50.78C644.03 46.79 645.64 41.98 645.64 36.35C645.64 30.82 644.03 26.03 640.79 21.97C637.56 17.92 632.65 15.89 626.06 15.89C619.48 15.89 614.57 17.92 611.33 21.97C608.10 26.03 606.48 30.82 606.48 36.35C606.48 41.98 608.10 46.79 611.33 50.78C614.57 54.78 619.48 56.78 626.06 56.78C632.65 56.78 637.56 54.78 640.79 50.78ZM626.06 16.10ZM683.77 19.32C681.25 17.24 678.01 16.21 674.05 16.21C670.89 16.21 668.27 16.98 666.21 18.53C665.06 19.39 663.84 20.81 662.55 22.78L662.55 17.19L652.89 17.19L652.89 55.44L662.87 55.44L662.87 34.70C662.87 32.33 663.20 30.39 663.86 28.86C665.12 25.98 667.45 24.54 670.85 24.54C673.62 24.54 675.49 25.52 676.48 27.49C677.02 28.57 677.29 30.12 677.29 32.13L677.29 55.44L687.55 55.44L687.55 29.64C687.55 24.83 686.29 21.39 683.77 19.32ZM670.36 16.10ZM704.60 43.21L694.44 43.21C694.44 47.14 695.88 50.38 698.75 52.93C701.62 55.47 706.07 56.74 712.09 56.74C718.00 56.74 722.36 55.54 725.19 53.14C728.01 50.74 729.42 47.64 729.42 43.84C729.42 40.96 728.44 38.55 726.47 36.63C724.48 34.73 721.49 33.32 717.50 32.38C711.53 31.07 708.05 30.14 707.06 29.60C706.08 29.09 705.59 28.25 705.59 27.11C705.59 26.19 706.05 25.39 706.97 24.71C707.90 24.04 709.45 23.70 711.63 23.70C714.28 23.70 716.16 24.37 717.26 25.73C717.84 26.48 718.21 27.50 718.35 28.79L728.37 28.79C727.92 24.11 726.19 20.81 723.18 18.90C720.17 16.99 716.27 16.03 711.49 16.03C706.45 16.03 702.54 17.30 699.77 19.85C696.99 22.39 695.60 25.43 695.60 28.97C695.60 31.97 696.49 34.27 698.27 35.86C700.05 37.48 703.11 38.82 707.45 39.90C713.47 41.33 716.95 42.34 717.89 42.93C718.83 43.51 719.30 44.37 719.30 45.49C719.30 46.66 718.72 47.54 717.56 48.13C716.40 48.71 714.83 49.01 712.86 49.01C709.51 49.01 707.21 48.34 705.97 47.00C705.27 46.25 704.81 44.99 704.60 43.21ZM712.27 16.10ZM767.57 55.44L767.57 3.62L756.81 3.62L756.81 55.44ZM762.19 2.60ZM807.80 19.32C805.28 17.24 802.04 16.21 798.08 16.21C794.92 16.21 792.30 16.98 790.24 18.53C789.09 19.39 787.88 20.81 786.59 22.78L786.59 17.19L776.92 17.19L776.92 55.44L786.90 55.44L786.90 34.70C786.90 32.33 787.23 30.39 787.89 28.86C789.15 25.98 791.48 24.54 794.88 24.54C797.65 24.54 799.52 25.52 800.51 27.49C801.05 28.57 801.32 30.12 801.32 32.13L801.32 55.44L811.58 55.44L811.58 29.64C811.58 24.83 810.32 21.39 807.80 19.32ZM794.39 16.10ZM831.13 12.55L831.13 3.30L820.97 3.30L820.97 12.55ZM820.97 17.12L820.97 55.44L831.13 55.44L831.13 17.12ZM836.89 24.61L842.24 24.61L842.24 48.20C842.24 50.59 842.80 52.36 843.93 53.51C845.66 55.31 848.89 56.13 853.63 55.97L858.38 55.79L858.38 48.30C858.05 48.33 857.71 48.35 857.37 48.36C857.03 48.37 856.71 48.38 856.41 48.38C854.37 48.38 853.15 48.18 852.75 47.79C852.35 47.41 852.15 46.43 852.15 44.86L852.15 24.61L858.38 24.61L858.38 17.47L852.15 17.47L852.15 6.79L842.24 6.79L842.24 17.47L836.89 17.47ZM875.11 12.55L875.11 3.30L864.95 3.30L864.95 12.55ZM864.95 17.12L864.95 55.44L875.11 55.44L875.11 17.12ZM905.94 36.81L905.94 40.54C905.87 43.89 904.93 46.20 903.11 47.46C901.29 48.73 899.31 49.36 897.15 49.36C895.79 49.36 894.64 48.98 893.69 48.22C892.74 47.46 892.27 46.22 892.27 44.51C892.27 42.59 893.04 41.17 894.59 40.25C895.50 39.71 897.01 39.26 899.12 38.88L901.37 38.46C902.50 38.25 903.38 38.02 904.03 37.78C904.67 37.53 905.31 37.21 905.94 36.81ZM899.86 32.13L896.45 32.55C892.58 33.05 889.65 33.87 887.66 35.02C884.03 37.13 882.21 40.54 882.21 45.25C882.21 48.88 883.34 51.69 885.60 53.67C887.87 55.65 890.73 56.64 894.20 56.64C896.92 56.64 899.36 56.02 901.51 54.77C903.32 53.72 904.91 52.44 906.29 50.94C906.36 51.81 906.46 52.58 906.57 53.26C906.69 53.94 906.90 54.67 907.21 55.44L918.11 55.44L918.11 53.96C917.45 53.66 916.96 53.27 916.63 52.80C916.30 52.34 916.10 51.45 916.03 50.13C915.98 48.40 915.96 46.92 915.96 45.70L915.96 28.13C915.96 23.51 914.33 20.37 911.07 18.70C907.82 17.04 904.09 16.21 899.89 16.21C893.45 16.21 888.90 17.89 886.25 21.27C884.59 23.43 883.65 26.18 883.44 29.53L893.11 29.53C893.34 28.05 893.81 26.88 894.52 26.02C895.50 24.84 897.18 24.26 899.54 24.26C901.65 24.26 903.25 24.56 904.34 25.15C905.43 25.75 905.98 26.84 905.98 28.41C905.98 29.70 905.26 30.64 903.83 31.25C903.04 31.61 901.71 31.90 899.86 32.13ZM900.39 16.10ZM920.92 24.61L926.26 24.61L926.26 48.20C926.26 50.59 926.82 52.36 927.95 53.51C929.68 55.31 932.92 56.13 937.65 55.97L942.40 55.79L942.40 48.30C942.07 48.33 941.74 48.35 941.40 48.36C941.06 48.37 940.73 48.38 940.43 48.38C938.39 48.38 937.17 48.18 936.77 47.79C936.38 47.41 936.18 46.43 936.18 44.86L936.18 24.61L942.40 24.61L942.40 17.47L936.18 17.47L936.18 6.79L926.26 6.79L926.26 17.47L920.92 17.47ZM959.13 12.55L959.13 3.30L948.97 3.30L948.97 12.55ZM948.97 17.12L948.97 55.44L959.13 55.44L959.13 17.12ZM992.46 17.12L984.30 45.39L976.32 17.12L965.07 17.12L978.82 55.44L989.40 55.44L1003.22 17.12ZM1018.60 26.54C1019.88 25.09 1021.68 24.36 1024.00 24.36C1026.13 24.36 1027.92 25.05 1029.36 26.42C1030.80 27.79 1031.60 29.80 1031.77 32.45L1016.19 32.45C1016.52 29.96 1017.32 28.00 1018.60 26.54ZM1032.61 17.89C1030.05 16.70 1027.18 16.10 1024.00 16.10C1018.63 16.10 1014.26 17.87 1010.90 21.41C1007.54 24.95 1005.86 30.04 1005.86 36.67C1005.86 43.75 1007.72 48.86 1011.45 52.00C1015.17 55.14 1019.47 56.71 1024.35 56.71C1030.25 56.71 1034.85 54.84 1038.13 51.12C1040.24 48.77 1041.42 46.46 1041.68 44.19L1031.45 44.19C1030.91 45.32 1030.29 46.20 1029.59 46.83C1028.30 48.00 1026.62 48.59 1024.56 48.59C1022.61 48.59 1020.95 48.11 1019.57 47.14C1017.29 45.60 1016.09 42.90 1015.95 39.06L1042.17 39.06C1042.22 35.75 1042.11 33.22 1041.86 31.46C1041.41 28.46 1040.44 25.83 1038.94 23.55C1037.27 20.98 1035.16 19.09 1032.61 17.89ZM1024.70 16.10Z" transform="translate(161.28 413.4) scale(1.52975)"/></svg>