<?xml version="1.0" encoding="UTF-8" standalone="no"?>
<svg
   version="1.1"
   id="svg4"
   width="76.283203"
   height="11.53125"
   xmlns="http://www.w3.org/2000/svg"
   xmlns:svg="http://www.w3.org/2000/svg">
  <defs
     id="defs8" />
  <g
     aria-label="Open Models"
     id="text2"
     transform="translate(-0.67382812,9.1171875)">
    <path
       d="m 7.6757812,-7.7226562 q 0.5332032,0.5859375 0.8144532,1.4355468 0.2871094,0.8496094 0.2871094,1.9277344 0,1.078125 -0.2929688,1.9335937 -0.2871094,0.8496094 -0.8085938,1.4179688 -0.5390625,0.59179687 -1.2773437,0.890625 -0.7324219,0.29882812 -1.6757813,0.29882812 -0.9199218,0 -1.6757812,-0.30468749 -0.75,-0.30468751 -1.2773438,-0.88476563 -0.5273437,-0.5800781 -0.81445307,-1.4238281 -0.28125001,-0.84375 -0.28125001,-1.9277344 0,-1.0664062 0.28125001,-1.9101562 Q 1.2363281,-7.1191406 1.7753906,-7.7226562 2.2910156,-8.296875 3.0527344,-8.6015625 3.8203125,-8.90625 4.7226562,-8.90625 q 0.9375,0 1.6816407,0.3105469 0.75,0.3046875 1.2714843,0.8730469 z M 7.5703125,-4.359375 q 0,-1.6992187 -0.7617188,-2.6191406 -0.7617187,-0.9257813 -2.0800781,-0.9257813 -1.3300781,0 -2.0917968,0.9257813 -0.7558594,0.9199219 -0.7558594,2.6191406 0,1.7167969 0.7734375,2.6308594 0.7734375,0.9082031 2.0742187,0.9082031 1.3007813,0 2.0683594,-0.9082031 0.7734375,-0.9140625 0.7734375,-2.6308594 z"
       id="path10" />
    <path
       d="m 16.289062,-3.3515625 q 0,0.796875 -0.228515,1.4589844 -0.228516,0.65625 -0.644531,1.11328123 -0.386719,0.43359374 -0.914063,0.67382812 -0.521484,0.234375 -1.107422,0.234375 -0.509765,0 -0.925781,-0.11132812 Q 12.058594,-0.09375 11.630859,-0.328125 v 2.7421875 h -1.101562 v -8.9589844 h 1.101562 v 0.6855469 q 0.439454,-0.3691406 0.984375,-0.6152344 0.550782,-0.2519531 1.171875,-0.2519531 1.183594,0 1.839844,0.8964844 0.662109,0.890625 0.662109,2.4785156 z m -1.136718,0.029297 q 0,-1.1835938 -0.404297,-1.7695313 -0.404297,-0.5859375 -1.242188,-0.5859375 -0.474609,0 -0.955078,0.2050782 -0.480468,0.2050781 -0.919922,0.5390625 v 3.7089843 q 0.46875,0.2109375 0.802735,0.2871094 0.339844,0.0761719 0.767578,0.0761719 0.919922,0 1.435547,-0.6210938 0.515625,-0.6210937 0.515625,-1.8398437 z"
       id="path12" />
    <path
       d="m 23.484375,-3.1582031 h -4.822266 q 0,0.6035156 0.181641,1.0546875 0.181641,0.4453125 0.498047,0.7324219 0.304687,0.28125 0.720703,0.42187495 0.421875,0.140625 0.925781,0.140625 0.667969,0 1.341797,-0.26367185 0.679688,-0.2695313 0.966797,-0.5273438 h 0.05859 v 1.2011719 Q 22.798828,-0.1640625 22.21875,-0.00585938 21.638672,0.15234375 21,0.15234375 q -1.628906,0 -2.542969,-0.87890625 -0.914062,-0.8847656 -0.914062,-2.5078125 0,-1.6054687 0.873047,-2.5488281 0.878906,-0.9433594 2.308593,-0.9433594 1.324219,0 2.039063,0.7734375 0.720703,0.7734375 0.720703,2.1972656 z m -1.072266,-0.84375 q -0.0059,-0.8671875 -0.439453,-1.3417969 -0.427734,-0.4746094 -1.30664,-0.4746094 -0.884766,0 -1.41211,0.5214844 -0.521484,0.5214844 -0.591797,1.2949219 z"
       id="path14" />
    <path
       d="m 30.626953,0 h -1.101562 v -3.7265625 q 0,-0.4511719 -0.05273,-0.84375 -0.05273,-0.3984375 -0.193359,-0.6210937 -0.146485,-0.2460938 -0.421875,-0.3632813 -0.275391,-0.1230469 -0.714844,-0.1230469 -0.451172,0 -0.943359,0.2226563 -0.492188,0.2226562 -0.94336,0.5683594 V 0 h -1.101562 v -6.5449219 h 1.101562 v 0.7265625 q 0.515625,-0.4277343 1.066407,-0.6679687 0.550781,-0.2402344 1.130859,-0.2402344 1.060547,0 1.617187,0.6386719 0.556641,0.6386719 0.556641,1.8398437 z"
       id="path16" />
    <path
       d="m 44.824219,0 h -1.160157 v -7.5175781 l -2.425781,5.1152343 H 40.546875 L 38.138672,-7.5175781 V 0 h -1.083985 v -8.7246094 h 1.582032 l 2.326172,4.8574219 2.25,-4.8574219 h 1.611328 z"
       id="path18" />
    <path
       d="m 52.658203,-3.2695313 q 0,1.5996094 -0.820312,2.52539068 -0.820313,0.92578124 -2.197266,0.92578124 -1.388672,0 -2.208984,-0.92578124 -0.814454,-0.92578128 -0.814454,-2.52539068 0,-1.5996093 0.814454,-2.5253906 0.820312,-0.9316406 2.208984,-0.9316406 1.376953,0 2.197266,0.9316406 0.820312,0.9257813 0.820312,2.5253906 z m -1.136719,0 q 0,-1.2714843 -0.498047,-1.8867187 -0.498046,-0.6210937 -1.382812,-0.6210937 -0.896484,0 -1.394531,0.6210937 -0.492188,0.6152344 -0.492188,1.8867187 0,1.2304688 0.498047,1.8691407 0.498047,0.63281248 1.388672,0.63281248 0.878906,0 1.376953,-0.62695308 0.503906,-0.6328126 0.503906,-1.8750001 z"
       id="path20" />
    <path
       d="m 59.671875,0 h -1.101563 v -0.68554687 q -0.474609,0.41015624 -0.990234,0.63867187 -0.515625,0.22851562 -1.119141,0.22851562 -1.171875,0 -1.863281,-0.90234374 -0.685547,-0.90234378 -0.685547,-2.50195318 0,-0.8320312 0.234375,-1.4824218 0.240235,-0.6503906 0.644532,-1.1074219 0.398437,-0.4453125 0.925781,-0.6796875 0.533203,-0.234375 1.101562,-0.234375 0.515625,0 0.914063,0.1113281 0.398437,0.1054688 0.83789,0.3339844 v -2.8359375 h 1.101563 z M 58.570312,-1.6113281 V -5.3671875 Q 58.125,-5.5664062 57.773437,-5.6425781 57.421875,-5.71875 57.005859,-5.71875 q -0.925781,0 -1.441406,0.6445313 -0.515625,0.6445312 -0.515625,1.8281249 0,1.1660157 0.398438,1.7753907 0.398437,0.6035156 1.277343,0.6035156 0.46875,0 0.949219,-0.2050781 0.480469,-0.2109375 0.896484,-0.5390625 z"
       id="path22" />
    <path
       d="m 67.318359,-3.1582031 h -4.822265 q 0,0.6035156 0.18164,1.0546875 0.181641,0.4453125 0.498047,0.7324219 0.304688,0.28125 0.720703,0.42187495 0.421875,0.140625 0.925782,0.140625 0.667968,0 1.341796,-0.26367185 0.679688,-0.2695313 0.966797,-0.5273438 h 0.05859 v 1.2011719 q -0.556641,0.234375 -1.136719,0.39257812 -0.580078,0.15820313 -1.21875,0.15820313 -1.628906,0 -2.542968,-0.87890625 -0.914063,-0.8847656 -0.914063,-2.5078125 0,-1.6054687 0.873047,-2.5488281 0.878906,-0.9433594 2.308594,-0.9433594 1.324218,0 2.039062,0.7734375 0.720703,0.7734375 0.720703,2.1972656 z m -1.072265,-0.84375 Q 66.240234,-4.8691406 65.806641,-5.34375 65.378906,-5.8183594 64.5,-5.8183594 q -0.884766,0 -1.412109,0.5214844 -0.521485,0.5214844 -0.591797,1.2949219 z"
       id="path24" />
    <path
       d="M 70.101562,0 H 69 v -9.1171875 h 1.101562 z"
       id="path26" />
    <path
       d="m 76.957031,-1.8867187 q 0,0.89648432 -0.74414,1.47070307 -0.738282,0.57421875 -2.021485,0.57421875 -0.726562,0 -1.335937,-0.16992187 Q 72.251953,-0.1875 71.841797,-0.39257813 V -1.6289062 h 0.05859 q 0.521484,0.3925781 1.160156,0.6269531 0.638672,0.2285156 1.224609,0.2285156 0.726563,0 1.136719,-0.234375 0.410156,-0.234375 0.410156,-0.7382812 0,-0.3867188 -0.222656,-0.5859376 -0.222656,-0.1992187 -0.855469,-0.3398437 -0.234375,-0.052734 -0.615234,-0.1230469 -0.375,-0.070312 -0.685547,-0.1523437 -0.861328,-0.2285157 -1.224609,-0.6679688 -0.357422,-0.4453125 -0.357422,-1.0898437 0,-0.4042969 0.164062,-0.7617188 0.169922,-0.3574218 0.509766,-0.6386718 0.328125,-0.2753907 0.832031,-0.4335938 0.509766,-0.1640625 1.136719,-0.1640625 0.585937,0 1.183594,0.1464844 0.603515,0.140625 1.001953,0.3457031 v 1.1777344 h -0.05859 Q 76.21875,-5.34375 75.615234,-5.5546875 q -0.603515,-0.2167969 -1.183593,-0.2167969 -0.603516,0 -1.019532,0.234375 -0.416015,0.2285157 -0.416015,0.6855469 0,0.4042969 0.251953,0.609375 0.246094,0.2050781 0.796875,0.3339844 0.304687,0.070312 0.679687,0.140625 0.38086,0.070312 0.632813,0.1289062 0.767578,0.1757813 1.183594,0.6035156 0.416015,0.4335938 0.416015,1.1484376 z"
       id="path28" />
  </g>
</svg>
