<?xml version="1.0" encoding="UTF-8" standalone="no"?>
<svg
   version="1.1"
   id="svg4"
   width="171.67969"
   height="11.595703"
   xmlns="http://www.w3.org/2000/svg"
   xmlns:svg="http://www.w3.org/2000/svg">
  <defs
     id="defs8" />
  <g
     aria-label="Open Energy System Models"
     id="text2"
     transform="translate(-0.67382812,9.1171875)">
    <path
       d="m 7.6757812,-7.7226562 q 0.5332032,0.5859375 0.8144532,1.4355468 0.2871094,0.8496094 0.2871094,1.9277344 0,1.078125 -0.2929688,1.9335937 -0.2871094,0.8496094 -0.8085938,1.4179688 -0.5390625,0.59179687 -1.2773437,0.890625 -0.7324219,0.29882812 -1.6757813,0.29882812 -0.9199218,0 -1.6757812,-0.30468749 -0.75,-0.30468751 -1.2773438,-0.88476563 -0.5273437,-0.5800781 -0.81445307,-1.4238281 -0.28125001,-0.84375 -0.28125001,-1.9277344 0,-1.0664062 0.28125001,-1.9101562 Q 1.2363281,-7.1191406 1.7753906,-7.7226562 2.2910156,-8.296875 3.0527344,-8.6015625 3.8203125,-8.90625 4.7226562,-8.90625 q 0.9375,0 1.6816407,0.3105469 0.75,0.3046875 1.2714843,0.8730469 z M 7.5703125,-4.359375 q 0,-1.6992187 -0.7617188,-2.6191406 -0.7617187,-0.9257813 -2.0800781,-0.9257813 -1.3300781,0 -2.0917968,0.9257813 -0.7558594,0.9199219 -0.7558594,2.6191406 0,1.7167969 0.7734375,2.6308594 0.7734375,0.9082031 2.0742187,0.9082031 1.3007813,0 2.0683594,-0.9082031 0.7734375,-0.9140625 0.7734375,-2.6308594 z"
       id="path10" />
    <path
       d="m 16.289062,-3.3515625 q 0,0.796875 -0.228515,1.4589844 -0.228516,0.65625 -0.644531,1.11328123 -0.386719,0.43359374 -0.914063,0.67382812 -0.521484,0.234375 -1.107422,0.234375 -0.509765,0 -0.925781,-0.11132812 Q 12.058594,-0.09375 11.630859,-0.328125 v 2.7421875 h -1.101562 v -8.9589844 h 1.101562 v 0.6855469 q 0.439454,-0.3691406 0.984375,-0.6152344 0.550782,-0.2519531 1.171875,-0.2519531 1.183594,0 1.839844,0.8964844 0.662109,0.890625 0.662109,2.4785156 z m -1.136718,0.029297 q 0,-1.1835938 -0.404297,-1.7695313 -0.404297,-0.5859375 -1.242188,-0.5859375 -0.474609,0 -0.955078,0.2050782 -0.480468,0.2050781 -0.919922,0.5390625 v 3.7089843 q 0.46875,0.2109375 0.802735,0.2871094 0.339844,0.0761719 0.767578,0.0761719 0.919922,0 1.435547,-0.6210938 0.515625,-0.6210937 0.515625,-1.8398437 z"
       id="path12" />
    <path
       d="m 23.484375,-3.1582031 h -4.822266 q 0,0.6035156 0.181641,1.0546875 0.181641,0.4453125 0.498047,0.7324219 0.304687,0.28125 0.720703,0.42187495 0.421875,0.140625 0.925781,0.140625 0.667969,0 1.341797,-0.26367185 0.679688,-0.2695313 0.966797,-0.5273438 h 0.05859 v 1.2011719 Q 22.798828,-0.1640625 22.21875,-0.00585938 21.638672,0.15234375 21,0.15234375 q -1.628906,0 -2.542969,-0.87890625 -0.914062,-0.8847656 -0.914062,-2.5078125 0,-1.6054687 0.873047,-2.5488281 0.878906,-0.9433594 2.308593,-0.9433594 1.324219,0 2.039063,0.7734375 0.720703,0.7734375 0.720703,2.1972656 z m -1.072266,-0.84375 q -0.0059,-0.8671875 -0.439453,-1.3417969 -0.427734,-0.4746094 -1.30664,-0.4746094 -0.884766,0 -1.41211,0.5214844 -0.521484,0.5214844 -0.591797,1.2949219 z"
       id="path14" />
    <path
       d="m 30.626953,0 h -1.101562 v -3.7265625 q 0,-0.4511719 -0.05273,-0.84375 -0.05273,-0.3984375 -0.193359,-0.6210937 -0.146485,-0.2460938 -0.421875,-0.3632813 -0.275391,-0.1230469 -0.714844,-0.1230469 -0.451172,0 -0.943359,0.2226563 -0.492188,0.2226562 -0.94336,0.5683594 V 0 h -1.101562 v -6.5449219 h 1.101562 v 0.7265625 q 0.515625,-0.4277343 1.066407,-0.6679687 0.550781,-0.2402344 1.130859,-0.2402344 1.060547,0 1.617187,0.6386719 0.556641,0.6386719 0.556641,1.8398437 z"
       id="path16" />
    <path
       d="m 42.802734,0 h -5.748047 v -8.7246094 h 5.748047 v 1.03125 h -4.58789 v 2.390625 h 4.58789 v 1.03125 h -4.58789 V -1.03125 h 4.58789 z"
       id="path18" />
    <path
       d="m 50.027344,0 h -1.101563 v -3.7265625 q 0,-0.4511719 -0.05273,-0.84375 -0.05273,-0.3984375 -0.19336,-0.6210937 -0.146484,-0.2460938 -0.421875,-0.3632813 -0.27539,-0.1230469 -0.714843,-0.1230469 -0.451172,0 -0.94336,0.2226563 -0.492187,0.2226562 -0.943359,0.5683594 V 0 h -1.101563 v -6.5449219 h 1.101563 v 0.7265625 q 0.515625,-0.4277343 1.066406,-0.6679687 0.550781,-0.2402344 1.13086,-0.2402344 1.060546,0 1.617187,0.6386719 0.556641,0.6386719 0.556641,1.8398437 z"
       id="path20" />
    <path
       d="m 57.626953,-3.1582031 h -4.822266 q 0,0.6035156 0.181641,1.0546875 0.181641,0.4453125 0.498047,0.7324219 0.304687,0.28125 0.720703,0.42187495 0.421875,0.140625 0.925781,0.140625 0.667969,0 1.341797,-0.26367185 0.679688,-0.2695313 0.966797,-0.5273438 h 0.05859 v 1.2011719 q -0.556641,0.234375 -1.136719,0.39257812 -0.580078,0.15820313 -1.21875,0.15820313 -1.628906,0 -2.542969,-0.87890625 -0.914062,-0.8847656 -0.914062,-2.5078125 0,-1.6054687 0.873047,-2.5488281 0.878906,-0.9433594 2.308593,-0.9433594 1.324219,0 2.039063,0.7734375 0.720703,0.7734375 0.720703,2.1972656 z m -1.072266,-0.84375 q -0.0059,-0.8671875 -0.439453,-1.3417969 -0.427734,-0.4746094 -1.30664,-0.4746094 -0.884766,0 -1.41211,0.5214844 -0.521484,0.5214844 -0.591797,1.2949219 z"
       id="path22" />
    <path
       d="m 63.380859,-5.34375 h -0.05859 q -0.246094,-0.058594 -0.480469,-0.082031 -0.228516,-0.029297 -0.544922,-0.029297 -0.509766,0 -0.984375,0.2285156 -0.474609,0.2226563 -0.914063,0.5800781 V 0 h -1.101562 v -6.5449219 h 1.101562 v 0.9667969 q 0.65625,-0.5273437 1.154297,-0.7441406 0.503907,-0.2226563 1.025391,-0.2226563 0.287109,0 0.416016,0.017578 0.128906,0.011719 0.386718,0.052734 z"
       id="path24" />
    <path
       d="m 69.726562,-0.74414062 q 0,1.6640625 -0.755859,2.44335932 -0.755859,0.7792969 -2.326172,0.7792969 -0.521484,0 -1.019531,-0.076172 -0.492188,-0.070312 -0.972656,-0.2050782 v -1.125 h 0.05859 q 0.269532,0.1054688 0.855469,0.2578125 0.585938,0.1582031 1.171875,0.1582031 0.5625,0 0.931641,-0.1347656 Q 68.039062,1.21875 68.244141,0.97851563 68.449219,0.75 68.537109,0.42773438 68.625,0.10546875 68.625,-0.29296875 V -0.890625 q -0.498047,0.3984375 -0.955078,0.59765625 -0.451172,0.19335938 -1.154297,0.19335938 -1.171875,0 -1.863281,-0.84375001 -0.685547,-0.84960932 -0.685547,-2.39062502 0,-0.84375 0.234375,-1.453125 0.240234,-0.6152343 0.65039,-1.0605468 0.38086,-0.4160157 0.925782,-0.6445313 0.544922,-0.234375 1.083984,-0.234375 0.568359,0 0.949219,0.1171875 0.386719,0.1113281 0.814453,0.3457031 l 0.07031,-0.28125 h 1.03125 z M 68.625,-1.7988281 v -3.5683594 q -0.439453,-0.1992187 -0.820313,-0.28125 -0.375,-0.087891 -0.75,-0.087891 -0.908203,0 -1.429687,0.609375 -0.521484,0.609375 -0.521484,1.7695312 0,1.1015625 0.386718,1.6699219 0.386719,0.5683594 1.283203,0.5683594 0.480469,0 0.960938,-0.1816406 0.486328,-0.1875 0.890625,-0.4980465 z"
       id="path26" />
    <path
       d="m 77.554687,-6.5449219 -3.820312,8.9589844 h -1.177734 l 1.21875,-2.73046875 -2.607422,-6.22851565 h 1.195312 l 2.009766,4.8515625 2.027344,-4.8515625 z"
       id="path28" />
    <path
       d="m 89.642578,-2.4902344 q 0,0.5097657 -0.240234,1.0078125 -0.234375,0.4980469 -0.66211,0.84375003 -0.46875,0.37499999 -1.095703,0.5859375 -0.621094,0.21093749 -1.5,0.21093749 -0.943359,0 -1.699219,-0.17578125 -0.75,-0.17578124 -1.529296,-0.52148437 v -1.453125 h 0.08203 q 0.662109,0.5507813 1.529297,0.8496094 0.867187,0.2988281 1.628906,0.2988281 1.078125,0 1.675781,-0.4042969 0.603516,-0.4042968 0.603516,-1.078125 0,-0.5800781 -0.28711,-0.8554687 -0.28125,-0.2753907 -0.861328,-0.4277344 -0.439453,-0.1171875 -0.955078,-0.1933594 -0.509765,-0.076172 -1.083984,-0.1933594 -1.160156,-0.2460937 -1.722656,-0.8378906 -0.556641,-0.5976562 -0.556641,-1.5527343 0,-1.0957032 0.925781,-1.7929688 0.925781,-0.703125 2.34961,-0.703125 0.919921,0 1.6875,0.1757812 0.767578,0.1757813 1.359375,0.4335938 v 1.3710938 h -0.08203 q -0.498047,-0.421875 -1.3125,-0.6972657 -0.808593,-0.28125 -1.658203,-0.28125 -0.93164,0 -1.5,0.3867188 -0.5625,0.3867187 -0.5625,0.9960937 0,0.5449219 0.28125,0.8554688 0.28125,0.3105469 0.990235,0.4746094 0.375,0.082031 1.066406,0.1992187 0.691406,0.1171875 1.171875,0.2402344 0.972656,0.2578125 1.464844,0.7792968 0.492187,0.5214844 0.492186,1.4589844 z"
       id="path30" />
    <path
       d="m 96.902344,-6.5449219 -3.820313,8.9589844 h -1.177734 l 1.21875,-2.73046875 -2.607422,-6.22851565 h 1.195312 l 2.009766,4.8515625 2.027344,-4.8515625 z"
       id="path32" />
    <path
       d="m 103.01953,-1.8867187 q 0,0.89648432 -0.74414,1.47070307 -0.73828,0.57421875 -2.02148,0.57421875 -0.726566,0 -1.335941,-0.16992187 Q 98.314453,-0.1875 97.904297,-0.39257813 V -1.6289062 h 0.05859 q 0.521484,0.3925781 1.160156,0.6269531 0.638672,0.2285156 1.224617,0.2285156 0.72656,0 1.13672,-0.234375 0.41015,-0.234375 0.41015,-0.7382812 0,-0.3867188 -0.22265,-0.5859376 -0.22266,-0.1992187 -0.85547,-0.3398437 -0.23438,-0.052734 -0.61524,-0.1230469 -0.375002,-0.070312 -0.685549,-0.1523437 -0.861328,-0.2285157 -1.224609,-0.6679688 -0.357422,-0.4453125 -0.357422,-1.0898437 0,-0.4042969 0.164062,-0.7617188 0.169922,-0.3574218 0.509766,-0.6386718 0.328125,-0.2753907 0.832031,-0.4335938 0.509766,-0.1640625 1.136721,-0.1640625 0.58594,0 1.1836,0.1464844 0.60351,0.140625 1.00195,0.3457031 v 1.1777344 h -0.0586 q -0.42188,-0.3105469 -1.0254,-0.5214844 -0.60351,-0.2167969 -1.18359,-0.2167969 -0.603519,0 -1.019535,0.234375 -0.416015,0.2285157 -0.416015,0.6855469 0,0.4042969 0.251953,0.609375 0.246094,0.2050781 0.796877,0.3339844 0.30469,0.070312 0.67969,0.140625 0.38086,0.070312 0.63281,0.1289062 0.76758,0.1757813 1.1836,0.6035156 0.41601,0.4335938 0.41601,1.1484376 z"
       id="path34" />
    <path
       d="m 107.99414,-0.05859375 q -0.31055,0.08203125 -0.67969,0.13476562 -0.36328,0.05273438 -0.65039,0.05273438 -1.00195,0 -1.52343,-0.5390625 -0.52149,-0.5390625 -0.52149,-1.72851565 V -5.6191406 H 103.875 v -0.9257813 h 0.74414 v -1.8808594 h 1.10156 v 1.8808594 h 2.27344 v 0.9257813 h -2.27344 v 2.9824218 q 0,0.515625 0.0234,0.8085938 0.0234,0.2871094 0.16406,0.5390625 0.12891,0.234375 0.35157,0.34570312 0.22851,0.10546875 0.6914,0.10546875 0.26953,0 0.5625,-0.0761719 0.29297,-0.0820313 0.42188,-0.13476557 h 0.0586 z"
       id="path36" />
    <path
       d="m 114.80273,-3.1582031 h -4.82226 q 0,0.6035156 0.18164,1.0546875 0.18164,0.4453125 0.49805,0.7324219 0.30468,0.28125 0.7207,0.42187495 0.42187,0.140625 0.92578,0.140625 0.66797,0 1.3418,-0.26367185 0.67969,-0.2695313 0.96679,-0.5273438 h 0.0586 v 1.2011719 q -0.55664,0.234375 -1.13672,0.39257812 -0.58008,0.15820313 -1.21875,0.15820313 -1.62891,0 -2.54297,-0.87890625 -0.91406,-0.8847656 -0.91406,-2.5078125 0,-1.6054687 0.87305,-2.5488281 0.8789,-0.9433594 2.30859,-0.9433594 1.32422,0 2.03906,0.7734375 0.7207,0.7734375 0.7207,2.1972656 z m -1.07226,-0.84375 q -0.006,-0.8671875 -0.43945,-1.3417969 -0.42774,-0.4746094 -1.30664,-0.4746094 -0.88477,0 -1.41211,0.5214844 -0.52149,0.5214844 -0.5918,1.2949219 z"
       id="path38" />
    <path
       d="m 126.02344,0 h -1.10156 v -3.7265625 q 0,-0.421875 -0.041,-0.8144531 -0.0352,-0.3925781 -0.1582,-0.6269531 -0.13477,-0.2519532 -0.38672,-0.3808594 -0.25196,-0.1289063 -0.72656,-0.1289063 -0.4629,0 -0.92579,0.234375 -0.46289,0.2285157 -0.92578,0.5859375 0.0176,0.1347657 0.0293,0.3164063 0.0117,0.1757812 0.0117,0.3515625 V 0 h -1.10156 v -3.7265625 q 0,-0.4335937 -0.041,-0.8203125 -0.0352,-0.3925781 -0.1582,-0.6269531 -0.13477,-0.2519531 -0.38672,-0.375 -0.25195,-0.1289063 -0.72656,-0.1289063 -0.45118,0 -0.90821,0.2226563 -0.45117,0.2226562 -0.90234,0.5683594 V 0 h -1.10156 v -6.5449219 h 1.10156 v 0.7265625 q 0.51562,-0.4277343 1.02539,-0.6679687 0.51562,-0.2402344 1.0957,-0.2402344 0.66797,0 1.13086,0.28125 0.46875,0.28125 0.69727,0.7792969 0.66797,-0.5625 1.21875,-0.8085938 0.55078,-0.2519531 1.17773,-0.2519531 1.07813,0 1.58789,0.65625 0.51563,0.6503906 0.51563,1.8222656 z"
       id="path40" />
    <path
       d="m 140.2207,0 h -1.16015 v -7.5175781 l -2.42578,5.1152343 h -0.69141 l -2.4082,-5.1152343 V 0 h -1.08399 v -8.7246094 h 1.58203 l 2.32617,4.8574219 2.25,-4.8574219 h 1.61133 z"
       id="path42" />
    <path
       d="m 148.05469,-3.2695313 q 0,1.5996094 -0.82032,2.52539068 -0.82031,0.92578124 -2.19726,0.92578124 -1.38867,0 -2.20899,-0.92578124 -0.81445,-0.92578128 -0.81445,-2.52539068 0,-1.5996093 0.81445,-2.5253906 0.82032,-0.9316406 2.20899,-0.9316406 1.37695,0 2.19726,0.9316406 0.82032,0.9257813 0.82032,2.5253906 z m -1.13672,0 q 0,-1.2714843 -0.49805,-1.8867187 -0.49805,-0.6210937 -1.38281,-0.6210937 -0.89649,0 -1.39453,0.6210937 -0.49219,0.6152344 -0.49219,1.8867187 0,1.2304688 0.49805,1.8691407 0.49804,0.63281248 1.38867,0.63281248 0.87891,0 1.37695,-0.62695308 0.50391,-0.6328126 0.50391,-1.8750001 z"
       id="path44" />
    <path
       d="m 155.06836,0 h -1.10156 v -0.68554687 q -0.47461,0.41015624 -0.99024,0.63867187 -0.51562,0.22851562 -1.11914,0.22851562 -1.17187,0 -1.86328,-0.90234374 -0.68555,-0.90234378 -0.68555,-2.50195318 0,-0.8320312 0.23438,-1.4824218 0.24023,-0.6503906 0.64453,-1.1074219 0.39844,-0.4453125 0.92578,-0.6796875 0.5332,-0.234375 1.10156,-0.234375 0.51563,0 0.91407,0.1113281 0.39843,0.1054688 0.83789,0.3339844 v -2.8359375 h 1.10156 z m -1.10156,-1.6113281 v -3.7558594 q -0.44532,-0.1992187 -0.79688,-0.2753906 -0.35156,-0.076172 -0.76758,-0.076172 -0.92578,0 -1.4414,0.6445313 -0.51563,0.6445312 -0.51563,1.8281249 0,1.1660157 0.39844,1.7753907 0.39844,0.6035156 1.27734,0.6035156 0.46875,0 0.94922,-0.2050781 0.48047,-0.2109375 0.89649,-0.5390624 z"
       id="path46" />
    <path
       d="m 162.71484,-3.1582031 h -4.82226 q 0,0.6035156 0.18164,1.0546875 0.18164,0.4453125 0.49805,0.7324219 0.30468,0.28125 0.7207,0.42187495 0.42187,0.140625 0.92578,0.140625 0.66797,0 1.3418,-0.26367185 0.67968,-0.2695313 0.96679,-0.5273438 h 0.0586 v 1.2011719 q -0.55664,0.234375 -1.13672,0.39257812 -0.58008,0.15820313 -1.21875,0.15820313 -1.62891,0 -2.54297,-0.87890625 -0.91406,-0.8847656 -0.91406,-2.5078125 0,-1.6054687 0.87304,-2.5488281 0.87891,-0.9433594 2.3086,-0.9433594 1.32422,0 2.03906,0.7734375 0.7207,0.7734375 0.7207,2.1972656 z m -1.07226,-0.84375 q -0.006,-0.8671875 -0.43946,-1.3417969 -0.42773,-0.4746094 -1.30664,-0.4746094 -0.88476,0 -1.41211,0.5214844 -0.52148,0.5214844 -0.59179,1.2949219 z"
       id="path48" />
    <path
       d="m 165.49805,0 h -1.10157 v -9.1171875 h 1.10157 z"
       id="path50" />
    <path
       d="m 172.35352,-1.8867187 q 0,0.89648432 -0.74415,1.47070307 -0.73828,0.57421875 -2.02148,0.57421875 -0.72656,0 -1.33594,-0.16992187 Q 167.64844,-0.1875 167.23828,-0.39257813 V -1.6289062 h 0.0586 q 0.52149,0.3925781 1.16016,0.6269531 0.63867,0.2285156 1.22461,0.2285156 0.72656,0 1.13672,-0.234375 0.41016,-0.234375 0.41016,-0.7382812 0,-0.3867188 -0.22266,-0.5859376 -0.22266,-0.1992187 -0.85547,-0.3398437 -0.23437,-0.052734 -0.61523,-0.1230469 -0.375,-0.070312 -0.68555,-0.1523437 -0.86133,-0.2285157 -1.22461,-0.6679688 -0.35742,-0.4453125 -0.35742,-1.0898437 0,-0.4042969 0.16406,-0.7617188 0.16992,-0.3574218 0.50977,-0.6386718 0.32812,-0.2753907 0.83203,-0.4335938 0.50976,-0.1640625 1.13672,-0.1640625 0.58593,0 1.18359,0.1464844 0.60352,0.140625 1.00195,0.3457031 v 1.1777344 h -0.0586 q -0.42188,-0.3105469 -1.02539,-0.5214844 -0.60352,-0.2167969 -1.1836,-0.2167969 -0.60351,0 -1.01953,0.234375 -0.41601,0.2285157 -0.41601,0.6855469 0,0.4042969 0.25195,0.609375 0.24609,0.2050781 0.79688,0.3339844 0.30468,0.070312 0.67968,0.140625 0.38086,0.070312 0.63282,0.1289062 0.76757,0.1757813 1.18359,0.6035156 0.41602,0.4335938 0.41602,1.1484376 z"
       id="path52" />
  </g>
</svg>
