<?xml version="1.0" encoding="utf-8"?>
<!-- Generator: Adobe Illustrator 25.2.2, SVG Export Plug-In . SVG Version: 6.00 Build 0)  -->
<svg version="1.1" id="Layer_1" xmlns="http://www.w3.org/2000/svg" xmlns:xlink="http://www.w3.org/1999/xlink" x="0px" y="0px"
	 viewBox="0 0 990.5 237.6" style="enable-background:new 0 0 990.5 237.6;" xml:space="preserve">
<style type="text/css">
	.st0{fill:#1D99D6;}
	.st1{fill:#163963;}
	.st2{fill:#F47E45;}
	.st3{fill:none;}
</style>
<g>
	<polygon class="st0" points="264.8,52.2 264.8,34 255.7,34 255.7,61.2 282.9,61.2 282.9,52.2 	"/>
	<polygon class="st1" points="301.1,15.8 255.7,15.8 255.7,29.3 264.7,29.3 264.7,24.8 292.1,24.8 292.1,52.2 287.6,52.2 
		287.6,61.2 301.1,61.2 	"/>
	<path class="st1" d="M313.2,16.1h13.9v33.4h19.8V61h-33.7V16.1z"/>
	<path class="st1" d="M352.9,16.1h34.8v11.4h-21v5.7h17.9v10.6h-17.9V61h-13.8V16.1z"/>
	<path class="st0" d="M423.3,61.4h-25.3V16.1h25.3v2.9h-21.9v17.1h20.6v2.8h-20.6v19.4h21.9L423.3,61.4z"/>
	<path class="st0" d="M467.1,61.4h-3.2l-27.1-40.2h-0.3c0.3,4.9,0.3,8.4,0.3,10.8v29.4h-3V16.1h3.2l27.2,40.2h0.2
		c-0.2-3.7-0.3-7.3-0.3-10.6V16.1h3V61.4z"/>
	<path class="st0" d="M505.2,61.4h-25.1V16.1h25.1v2.9h-21.9v17.1h20.6v2.8h-20.6v19.4h21.9V61.4z"/>
	<path class="st0" d="M518.9,41.7v19.7h-3.2V16.1h11c4.4-0.4,8.9,0.7,12.6,3.1c2.8,2.3,4.3,5.8,4,9.3c0.1,2.8-0.8,5.5-2.5,7.7
		c-1.9,2.3-4.5,3.9-7.4,4.5l12.4,20.6h-3.9l-11.6-19.7H518.9z M518.9,39h8.7c3.2,0.2,6.4-0.6,9-2.5c2.2-1.9,3.4-4.7,3.2-7.6
		c0.3-2.9-0.9-5.7-3.1-7.6c-3.1-1.9-6.7-2.8-10.3-2.5h-7.6V39z"/>
	<path class="st0" d="M571.5,38.2h16.6v20.2c-4.7,1.9-9.7,2.8-14.7,2.7c-7.1,0-12.6-1.9-16.3-6c-4-4.6-6-10.6-5.7-16.8
		c-0.1-4.1,0.9-8.2,2.8-11.9c1.8-3.4,4.6-6.3,8.1-8.1c3.7-2,7.9-3,12.1-2.9c4.5,0,9.1,0.9,13.2,2.7l-1.3,2.8
		c-3.8-1.8-7.9-2.7-12.1-2.8c-5.3-0.3-10.4,1.7-14,5.5c-3.5,4-5.3,9.2-5.1,14.5c0,6.6,1.6,11.6,5.1,15c3.4,3.4,8.1,5.1,14.5,5.1
		c3.6,0.1,7.1-0.5,10.5-1.8V40.7h-13.4v-2.5L571.5,38.2z"/>
	<path class="st0" d="M609.8,40.7l13.4-24.6h3.4l-15.2,27.6v17.4h-3.2V43.9l-15.3-27.8h3.7L609.8,40.7z"/>
	<path class="st2" d="M282.7,204.4c-19.5,0-32.4-11.7-32.4-50.8c0-27.3,10.1-44.6,32.4-44.6c22.3,0,32.4,17.3,32.4,44.6
		C315,192.9,302.5,204.4,282.7,204.4z M282.7,120c-13.2,0-19.1,10.4-19.1,37.8c0,21.3,4.1,35.8,19.1,35.8c15,0,19.1-14.5,19.1-35.8
		C301.6,130.4,296.1,120,282.7,120z"/>
	<path class="st2" d="M347.9,232.6H335V111.5h12.4v10.1h0.3c3.4-7.4,10.6-12.3,18.7-12.6c22.9,0,29.6,23.1,29.6,41.7
		c0,25.7-4.6,53.7-29,53.7c-9.1,0-14.3-4.5-18.9-11.9h-0.3V232.6z M365,120c-16.8,0-17.1,23.8-17.1,36.6c0,12.9-0.5,36.9,17.3,36.9
		c13.3,0,17.7-14,17.7-38.4C382.7,143.2,381.4,120,365,120L365,120z"/>
	<path class="st2" d="M468.4,171.9c0.8,17.7-8.3,32.5-27.3,32.5c-17.1,0-29.3-11.4-29.3-47.9c0-19.1,5.1-47.5,29-47.5
		c29.3,0,27.7,27.7,28.3,48.8h-43.9c0.3,12.2-1.8,35.7,16.3,35.7c12.4,0,15.8-11.4,15-21.6L468.4,171.9z M455.7,147.3
		c-0.5-10.6,0.2-27.3-14.8-27.3s-15.3,16.6-15.8,27.3H455.7z"/>
	<path class="st2" d="M501.4,121.4h0.3c6.2-7.8,12.9-12.4,22.6-12.4c13.5,0,22.3,7.2,22.3,23.1V202h-12.9v-66.3
		c0-9.4-3.1-15.8-13.5-15.8c-4.7,0-9.2,1.8-12.6,5.1c-5.2,4.7-5.9,9.9-5.9,16.5v60.6h-12.9v-90.6h12.6L501.4,121.4z"/>
	<path class="st0" d="M571.9,202V79.9h13.5v109.9h49.8V202L571.9,202z"/>
	<path class="st0" d="M651.8,202V79.9h61.1v12.2h-47.5v40.4H710v12.2h-44.6v45.1h47.9V202L651.8,202z"/>
	<path class="st0" d="M722.7,202l26.7-122.1h34.5L810.4,202h-29l-4.1-23.8h-22.5l-3.4,23.8H722.7z M766.6,102.1h-0.3l-8.3,54.7h16.6
		L766.6,102.1z"/>
	<path class="st0" d="M819.2,202V79.9h31.1c10.4,0,22.9,0.3,32.2,5.7c11.1,6.5,12.9,18.4,12.9,30.1v54.2
		c-0.2,12.2-3.9,21.2-12.2,26.4c-7.6,4.9-16.6,5.7-25.4,5.7L819.2,202z M847.9,180c19.2,1.3,19.4-6.5,18.9-22.7v-40.1
		c-0.2-14.3-4.9-15.2-18.9-15.5V180z"/>
	<path class="st0" d="M937.7,202h-28.7V79.9h41.8c23.5,0,35.2,9.4,35.2,33.7c0,13-3.1,22.3-15.2,27.8v0.3c8,1.2,13.9,7.9,14.3,15.9
		c0.8,9.8,1,30.8,2.5,38.6c0.6,1.6,1.5,3.1,2.8,4.2v1.6h-31.3c-0.9-2.2-1.4-4.6-1.6-7c-0.5-10.7,0.2-20.8-0.7-28.3
		c-0.8-7.5-3.1-12.4-9.8-12.9h-9.5L937.7,202z M937.7,131.8h9.8c8.3,0,10.3-7.6,10.3-15.2c0-14.5-6-15.2-20-14.8V131.8z"/>
	<path class="st3" d="M206.3,219.3c4.8,0,8.7-3.9,8.7-8.7s-3.9-8.7-8.7-8.7c-4.8,0-8.7,3.9-8.7,8.7l0,0
		C197.6,215.4,201.5,219.3,206.3,219.3z"/>
	
		<ellipse transform="matrix(0.9871 -0.1602 0.1602 0.9871 -17.8395 19.932)" class="st3" cx="114.7" cy="120.6" rx="32.4" ry="32.4"/>
	<circle class="st3" cx="23.5" cy="65.4" r="12.3"/>
	<path class="st0" d="M206.3,183.5c-4.7,0-9.3,1.2-13.3,3.5l-42.2-42c-0.7,1-1.4,1.9-2.1,2.9c-0.7,0.9-1.5,1.8-2.4,2.7l45.8,45.8
		l2.5-1.8c8.9-6.5,21.3-4.5,27.8,4.3c2.5,3.4,3.8,7.5,3.8,11.7c0.4,11-8.2,20.2-19.2,20.6c-11,0.4-20.2-8.2-20.6-19.2
		c0-0.5,0-0.9,0-1.4c0-3,0.7-6,2-8.8l1.1-2.3l-46.3-46.3c-0.9,0.8-1.8,1.6-2.8,2.3s-2,1.4-3,2L181,201c-1.2,3.1-1.8,6.3-1.7,9.6
		c0,14.9,12.1,27,27,27c14.9,0,27-12.1,27-27C233.3,195.6,221.2,183.5,206.3,183.5L206.3,183.5z"/>
	<path class="st0" d="M206.3,226.4c8.8,0,15.8-7.1,15.8-15.8c0-8.8-7.1-15.8-15.8-15.8c-8.8,0-15.8,7.1-15.8,15.8
		C190.5,219.3,197.6,226.4,206.3,226.4L206.3,226.4z M206.3,201.8c4.8,0,8.7,3.9,8.7,8.7s-3.9,8.7-8.7,8.7c-4.8,0-8.7-3.9-8.7-8.7
		l0,0C197.6,205.7,201.5,201.8,206.3,201.8z"/>
	<path class="st0" d="M87.5,154.7c-0.9-0.7-1.8-1.5-2.7-2.4l-20.6,20.2L66,175c3.9,5.2,5.9,11.5,5.9,18c0,16.9-13.7,30.6-30.5,30.6
		s-30.6-13.7-30.6-30.5c0-16.9,13.7-30.6,30.5-30.6c6.2,0,12.3,1.9,17.5,5.5l2.5,1.7l20.7-20.2c-0.8-0.9-1.5-1.8-2.2-2.8
		c-0.7-0.9-1.4-2-2-3l-17.2,16.8c-18-10.5-41-4.4-51.5,13.5c-10.5,18-4.4,41,13.5,51.5s41,4.4,51.5-13.5c7-12,6.8-26.9-0.4-38.7
		l16.9-16.5C89.4,156.1,88.4,155.4,87.5,154.7z"/>
	<path class="st0" d="M15,193c0,14.6,11.9,26.5,26.5,26.5c14.6,0,26.5-11.9,26.5-26.5c0-14.6-11.9-26.5-26.5-26.5c0,0,0,0,0,0
		C26.8,166.6,15,178.4,15,193z M22.1,193c0-10.7,8.7-19.4,19.4-19.4c10.7,0,19.4,8.7,19.4,19.4c0,10.7-8.7,19.4-19.4,19.4
		S22.1,203.7,22.1,193L22.1,193z"/>
	<path class="st0" d="M23.5,88.8c6.3,0,12.3-2.5,16.8-7l34.8,20.6c1.5-3.4,3.5-6.6,5.9-9.5l-35-20.7c0.7-2.2,1-4.5,1-6.8
		c0-13-10.5-23.5-23.5-23.5S0,52.4,0,65.4C0,78.4,10.5,88.9,23.5,88.8C23.5,88.9,23.5,88.9,23.5,88.8L23.5,88.8z M23.5,53.1
		c6.8,0,12.3,5.5,12.3,12.3s-5.5,12.3-12.3,12.3s-12.3-5.5-12.3-12.3C11.2,58.6,16.7,53.1,23.5,53.1z"/>
	<path class="st0" d="M148.7,58.9c-11.7-12-11.4-31.2,0.6-42.9c12-11.7,31.2-11.4,42.9,0.6c11.7,12,11.4,31.2-0.6,42.9
		c-9.3,9-23.2,11.2-34.8,5.3l-2.8-1.4L139.9,85c1,0.7,1.9,1.4,2.8,2.2c0.9,0.8,1.8,1.6,2.7,2.5l11.2-17.1c4.5,1.8,9.2,2.7,14,2.7
		c20.8,0,37.7-16.9,37.7-37.7c0-20.8-16.9-37.7-37.7-37.7c-20.8,0-37.7,16.9-37.7,37.7c0,8.8,3.1,17.4,8.8,24.2l-11.8,18
		c1.1,0.4,2.2,0.9,3.3,1.4c1.1,0.5,2.1,1.1,3.2,1.7L150.7,61L148.7,58.9z"/>
	<path class="st2" d="M41.4,173.6c-10.7,0-19.4,8.7-19.4,19.4c0,10.7,8.7,19.4,19.4,19.4c10.7,0,19.3-8.6,19.4-19.3
		C60.8,182.3,52.2,173.6,41.4,173.6C41.5,173.6,41.5,173.6,41.4,173.6z"/>
	<path class="st2" d="M142.7,87.2c-0.9-0.8-1.8-1.5-2.8-2.2c-1.1-0.8-2.2-1.5-3.4-2.2c-1-0.6-2.1-1.2-3.2-1.7
		c-1.1-0.5-2.2-1-3.3-1.4c-17.5-6.6-37.1-1.3-48.9,13.2c-2.4,2.9-4.4,6.1-5.9,9.5c-6.2,13.3-5.2,28.8,2.5,41.2c0.7,1,1.3,2,2,3
		c0.7,1,1.5,1.9,2.2,2.8c0.8,0.9,1.8,2,2.8,2.9c0.9,0.8,1.8,1.6,2.7,2.4c0.9,0.8,1.9,1.5,2.9,2.1c14.2,9.5,32.7,9.9,47.2,0.8
		c1-0.6,2-1.3,3-2c1-0.7,1.9-1.5,2.8-2.3c0.9-0.8,2-1.8,2.9-2.8s1.6-1.8,2.4-2.7s1.5-1.9,2.1-2.9c11.7-17.3,9.4-40.5-5.5-55.2
		C144.5,88.8,143.7,88,142.7,87.2z M147.1,120.6c0,17.9-14.5,32.4-32.4,32.4s-32.4-14.5-32.4-32.4s14.5-32.4,32.4-32.4
		C132.5,88.2,147.1,102.7,147.1,120.6z"/>
	<path class="st2" d="M170.5,11.1c-14.6,0-26.5,11.9-26.5,26.5c0,14.6,11.9,26.5,26.5,26.5c14.6,0,26.5-11.9,26.5-26.5
		C197,23,185.2,11.1,170.5,11.1z M170.5,56.9c-10.7,0-19.4-8.7-19.4-19.4c0-10.7,8.7-19.4,19.4-19.4s19.4,8.7,19.4,19.4l0,0
		C189.9,48.3,181.2,56.9,170.5,56.9z"/>
</g>
</svg>
