<?xml version="1.0" encoding="UTF-8" standalone="no"?>
<!-- Created with Inkscape (http://www.inkscape.org/) -->

<svg
   version="1.1"
   id="svg2428"
   width="418.53152"
   height="201.77618"
   viewBox="0 0 418.53152 201.77618"
   sodipodi:docname="OpenFLUID.svg"
   inkscape:version="1.2.2 (b0a84865, 2022-12-01)"
   xmlns:inkscape="http://www.inkscape.org/namespaces/inkscape"
   xmlns:sodipodi="http://sodipodi.sourceforge.net/DTD/sodipodi-0.dtd"
   xmlns="http://www.w3.org/2000/svg"
   xmlns:svg="http://www.w3.org/2000/svg">
  <defs
     id="defs2432" />
  <sodipodi:namedview
     id="namedview2430"
     pagecolor="#ffffff"
     bordercolor="#666666"
     borderopacity="1.0"
     inkscape:showpageshadow="2"
     inkscape:pageopacity="0.0"
     inkscape:pagecheckerboard="0"
     inkscape:deskcolor="#d1d1d1"
     showgrid="false"
     inkscape:zoom="1.1696127"
     inkscape:cx="215.02844"
     inkscape:cy="106.44549"
     inkscape:window-width="1564"
     inkscape:window-height="833"
     inkscape:window-x="0"
     inkscape:window-y="25"
     inkscape:window-maximized="0"
     inkscape:current-layer="g2436">
    <inkscape:page
       x="0"
       y="0"
       id="page2434"
       width="418.53152"
       height="201.77618" />
  </sodipodi:namedview>
  <g
     id="g2436"
     inkscape:groupmode="layer"
     inkscape:label="Page 1"
     transform="matrix(1.3333333,0,0,-1.3333333,0,201.77618)">
    <g
       id="g2438">
      <path
         d="m 69.418,62.43 c 0,-4.727 -1.172,-8.36 -3.516,-10.899 -2.343,-2.543 -5.703,-3.812 -10.074,-3.812 -4.375,0 -7.734,1.269 -10.078,3.812 -2.344,2.539 -3.516,6.184 -3.516,10.938 0,4.754 1.172,8.379 3.516,10.879 2.355,2.511 5.727,3.769 10.113,3.769 4.391,0 7.742,-1.261 10.059,-3.789 2.332,-2.527 3.496,-6.16 3.496,-10.898 z m -20.836,0 c 0,-3.192 0.606,-5.594 1.816,-7.207 1.211,-1.617 3.02,-2.422 5.43,-2.422 4.828,0 7.242,3.207 7.242,9.629 0,6.433 -2.402,9.648 -7.207,9.648 -2.406,0 -4.222,-0.812 -5.445,-2.441 -1.227,-1.613 -1.836,-4.02 -1.836,-7.207 z"
         style="fill:#47617b;fill-opacity:1;fill-rule:nonzero;stroke:none"
         id="path2440" />
      <path
         d="m 86.898,47.719 c -2.566,0 -4.578,0.933 -6.035,2.797 h -0.312 c 0.207,-1.824 0.312,-2.879 0.312,-3.168 V 38.5 h -5.957 v 31.449 h 4.844 l 0.84,-2.832 h 0.273 c 1.395,2.16 3.457,3.242 6.192,3.242 2.578,0 4.593,-0.996 6.054,-2.988 1.457,-1.992 2.188,-4.762 2.188,-8.301 0,-2.332 -0.348,-4.355 -1.035,-6.074 -0.68,-1.719 -1.649,-3.031 -2.91,-3.929 -1.266,-0.899 -2.75,-1.348 -4.454,-1.348 z m -1.757,17.875 c -1.473,0 -2.547,-0.457 -3.223,-1.367 -0.676,-0.899 -1.027,-2.391 -1.055,-4.473 v -0.645 c 0,-2.343 0.344,-4.023 1.035,-5.039 0.704,-1.015 1.809,-1.523 3.321,-1.523 2.668,0 4.004,2.199 4.004,6.602 0,2.148 -0.332,3.753 -0.996,4.824 -0.653,1.078 -1.68,1.621 -3.086,1.621 z"
         style="fill:#47617b;fill-opacity:1;fill-rule:nonzero;stroke:none"
         id="path2442" />
      <path
         d="m 109.258,66.121 c -1.262,0 -2.25,-0.406 -2.969,-1.211 -0.715,-0.797 -1.125,-1.929 -1.23,-3.398 h 8.359 c -0.023,1.469 -0.41,2.601 -1.152,3.398 -0.743,0.805 -1.743,1.211 -3.008,1.211 z m 0.84,-18.402 c -3.516,0 -6.262,0.973 -8.239,2.914 -1.98,1.937 -2.968,4.687 -2.968,8.242 0,3.656 0.91,6.484 2.734,8.477 1.836,2.004 4.367,3.007 7.594,3.007 3.086,0 5.488,-0.878 7.207,-2.636 1.719,-1.758 2.578,-4.188 2.578,-7.285 v -2.891 h -14.078 c 0.062,-1.695 0.562,-3.016 1.5,-3.965 0.937,-0.953 2.254,-1.426 3.945,-1.426 1.317,0 2.559,0.137 3.731,0.411 1.171,0.273 2.398,0.707 3.671,1.308 v -4.613 c -1.039,-0.52 -2.152,-0.903 -3.339,-1.153 -1.184,-0.257 -2.629,-0.39 -4.336,-0.39 z"
         style="fill:#47617b;fill-opacity:1;fill-rule:nonzero;stroke:none"
         id="path2444" />
      <path
         d="m 144.043,48.109 h -5.957 v 12.758 c 0,1.575 -0.281,2.754 -0.84,3.535 -0.558,0.793 -1.453,1.192 -2.676,1.192 -1.668,0 -2.871,-0.563 -3.613,-1.68 -0.742,-1.109 -1.113,-2.949 -1.113,-5.527 V 48.109 h -5.957 v 21.84 h 4.551 l 0.8,-2.793 h 0.332 c 0.664,1.055 1.575,1.848 2.735,2.383 1.172,0.547 2.5,0.82 3.984,0.82 2.539,0 4.465,-0.691 5.781,-2.07 1.313,-1.367 1.973,-3.347 1.973,-5.937 z"
         style="fill:#47617b;fill-opacity:1;fill-rule:nonzero;stroke:none"
         id="path2446" />
      <path
         d="m 156.637,48.109 h -5.953 v 28.559 h 16.363 v -4.961 h -10.41 v -7.363 h 9.687 v -4.942 h -9.687 z"
         style="fill:#47617b;fill-opacity:1;fill-rule:nonzero;stroke:none"
         id="path2448" />
      <path
         d="m 172.633,48.109 v 28.559 h 6.055 V 53.113 h 11.582 v -5.004 z"
         style="fill:#47617b;fill-opacity:1;fill-rule:nonzero;stroke:none"
         id="path2450" />
      <path
         d="M 218.449,76.668 V 58.192 c 0,-2.11 -0.472,-3.961 -1.426,-5.547 -0.937,-1.59 -2.296,-2.809 -4.082,-3.657 -1.781,-0.843 -3.89,-1.269 -6.328,-1.269 -3.668,0 -6.519,0.937 -8.551,2.816 -2.031,1.887 -3.046,4.465 -3.046,7.735 v 18.398 h 6.035 v -17.48 c 0,-2.204 0.441,-3.817 1.328,-4.844 0.883,-1.031 2.348,-1.543 4.391,-1.543 1.98,0 3.414,0.512 4.296,1.543 0.899,1.039 1.348,2.668 1.348,4.883 v 17.441 z"
         style="fill:#47617b;fill-opacity:1;fill-rule:nonzero;stroke:none"
         id="path2452" />
      <path
         d="m 225.441,76.668 h 6.055 V 48.109 h -6.055 z"
         style="fill:#47617b;fill-opacity:1;fill-rule:nonzero;stroke:none"
         id="path2454" />
      <path
         d="m 262.41,62.664 c 0,-4.703 -1.34,-8.301 -4.023,-10.801 -2.668,-2.504 -6.528,-3.754 -11.578,-3.754 h -8.086 v 28.559 h 8.965 c 4.66,0 8.277,-1.23 10.855,-3.691 2.578,-2.461 3.867,-5.899 3.867,-10.313 z m -6.289,-0.156 c 0,6.133 -2.707,9.199 -8.121,9.199 h -3.223 V 53.113 h 2.598 c 5.832,0 8.746,3.129 8.746,9.395 z"
         style="fill:#47617b;fill-opacity:1;fill-rule:nonzero;stroke:none"
         id="path2456" />
      <path
         d="M 7.434,15.371 H 4.852 V 6.379 h -1.54 v 8.992 H 1.5 v 0.696 l 1.812,0.558 v 0.567 c 0,2.503 1.09,3.757 3.27,3.757 0.535,0 1.164,-0.109 1.887,-0.324 L 8.07,19.387 C 7.48,19.578 6.973,19.676 6.555,19.676 5.973,19.676 5.543,19.481 5.266,19.09 4.988,18.703 4.852,18.086 4.852,17.231 V 16.57 h 2.582 z"
         style="fill:#86ae39;fill-opacity:1;fill-rule:nonzero;stroke:none"
         id="path2458" />
      <path
         d="m 18.059,11.481 c 0,-1.661 -0.418,-2.957 -1.25,-3.895 -0.832,-0.93 -1.985,-1.394 -3.454,-1.394 -0.906,0 -1.71,0.214 -2.414,0.64 -0.703,0.43 -1.246,1.043 -1.629,1.844 -0.382,0.797 -0.574,1.734 -0.574,2.805 0,1.664 0.414,2.957 1.239,3.878 0.828,0.93 1.976,1.395 3.445,1.395 1.418,0 2.543,-0.473 3.379,-1.422 0.84,-0.949 1.258,-2.23 1.258,-3.851 z m -7.731,0 c 0,-1.301 0.262,-2.293 0.777,-2.973 0.52,-0.684 1.282,-1.024 2.29,-1.024 1.003,0 1.765,0.336 2.285,1.012 0.523,0.684 0.785,1.68 0.785,2.985 0,1.296 -0.262,2.281 -0.785,2.949 -0.52,0.676 -1.285,1.015 -2.305,1.015 -1.004,0 -1.766,-0.332 -2.277,-0.996 -0.512,-0.664 -0.77,-1.652 -0.77,-2.968 z"
         style="fill:#86ae39;fill-opacity:1;fill-rule:nonzero;stroke:none"
         id="path2460" />
      <path
         d="m 25.371,16.754 c 0.449,0 0.856,-0.035 1.211,-0.109 l -0.211,-1.434 c -0.422,0.094 -0.789,0.141 -1.113,0.141 -0.82,0 -1.524,-0.336 -2.11,-1.004 -0.578,-0.672 -0.871,-1.504 -0.871,-2.504 V 6.379 H 20.742 V 16.57 h 1.27 l 0.176,-1.89 h 0.074 c 0.375,0.664 0.828,1.176 1.359,1.535 0.531,0.359 1.113,0.539 1.75,0.539 z"
         style="fill:#86ae39;fill-opacity:1;fill-rule:nonzero;stroke:none"
         id="path2462" />
      <path
         d="m 41.273,9.996 c 0,-1.199 -0.433,-2.133 -1.296,-2.801 -0.864,-0.668 -2.036,-1.003 -3.52,-1.003 -1.602,0 -2.836,0.207 -3.699,0.621 V 8.34 c 0.554,-0.238 1.16,-0.422 1.812,-0.559 0.657,-0.136 1.301,-0.203 1.946,-0.203 1.046,0 1.836,0.196 2.367,0.594 0.531,0.402 0.797,0.961 0.797,1.672 0,0.473 -0.094,0.855 -0.285,1.156 -0.188,0.301 -0.5,0.582 -0.946,0.836 -0.437,0.254 -1.109,0.543 -2.008,0.863 -1.261,0.453 -2.16,0.989 -2.703,1.61 -0.539,0.621 -0.804,1.429 -0.804,2.425 0,1.051 0.39,1.883 1.175,2.504 0.782,0.621 1.821,0.93 3.11,0.93 1.343,0 2.582,-0.25 3.711,-0.746 l -0.492,-1.375 c -1.118,0.473 -2.204,0.707 -3.258,0.707 -0.832,0 -1.485,-0.18 -1.953,-0.539 -0.469,-0.359 -0.704,-0.859 -0.704,-1.496 0,-0.473 0.086,-0.86 0.262,-1.164 0.172,-0.297 0.461,-0.574 0.867,-0.828 0.414,-0.246 1.043,-0.524 1.891,-0.828 1.418,-0.508 2.395,-1.051 2.922,-1.637 0.539,-0.582 0.808,-1.336 0.808,-2.266 z"
         style="fill:#86ae39;fill-opacity:1;fill-rule:nonzero;stroke:none"
         id="path2464" />
      <path
         d="m 48.527,6.192 c -0.66,0 -1.265,0.121 -1.812,0.363 -0.543,0.246 -1,0.625 -1.371,1.133 h -0.11 c 0.075,-0.594 0.11,-1.161 0.11,-1.692 V 1.801 H 43.809 V 16.57 h 1.25 l 0.211,-1.394 h 0.074 c 0.394,0.555 0.855,0.961 1.379,1.207 0.523,0.246 1.125,0.371 1.804,0.371 1.348,0 2.383,-0.461 3.11,-1.383 0.734,-0.926 1.101,-2.222 1.101,-3.89 0,-1.672 -0.371,-2.973 -1.117,-3.903 C 50.879,6.652 49.848,6.192 48.527,6.192 Z m -0.222,9.253 c -1.035,0 -1.785,-0.289 -2.246,-0.867 -0.465,-0.574 -0.704,-1.492 -0.715,-2.75 v -0.347 c 0,-1.43 0.238,-2.457 0.715,-3.079 0.472,-0.613 1.234,-0.918 2.285,-0.918 0.875,0 1.558,0.356 2.054,1.071 0.5,0.711 0.75,1.695 0.75,2.945 0,1.274 -0.25,2.246 -0.75,2.922 -0.496,0.68 -1.191,1.023 -2.093,1.023 z"
         style="fill:#86ae39;fill-opacity:1;fill-rule:nonzero;stroke:none"
         id="path2466" />
      <path
         d="m 61.672,6.379 -0.305,1.449 h -0.074 c -0.508,-0.64 -1.012,-1.074 -1.52,-1.301 -0.5,-0.226 -1.125,-0.335 -1.878,-0.335 -1.004,0 -1.797,0.261 -2.368,0.781 -0.57,0.519 -0.851,1.261 -0.851,2.222 0,2.059 1.636,3.137 4.914,3.235 l 1.719,0.058 v 0.629 c 0,0.801 -0.172,1.391 -0.516,1.77 -0.34,0.383 -0.887,0.574 -1.641,0.574 -0.843,0 -1.8,-0.258 -2.867,-0.781 l -0.473,1.183 c 0.5,0.274 1.047,0.485 1.637,0.641 0.602,0.156 1.199,0.23 1.797,0.23 1.211,0 2.106,-0.269 2.684,-0.808 0.586,-0.539 0.879,-1.402 0.879,-2.594 V 6.379 Z m -3.473,1.086 c 0.957,0 1.707,0.262 2.25,0.789 0.551,0.527 0.824,1.266 0.824,2.215 v 0.922 L 59.738,11.324 C 58.516,11.281 57.633,11.09 57.09,10.746 56.555,10.414 56.285,9.891 56.285,9.176 c 0,-0.559 0.164,-0.981 0.5,-1.274 0.34,-0.293 0.809,-0.437 1.414,-0.437 z"
         style="fill:#86ae39;fill-opacity:1;fill-rule:nonzero;stroke:none"
         id="path2468" />
      <path
         d="m 69.262,7.465 c 0.269,0 0.531,0.019 0.785,0.055 0.254,0.043 0.453,0.089 0.601,0.132 V 6.469 C 70.484,6.391 70.234,6.324 69.91,6.274 69.59,6.219 69.297,6.192 69.039,6.192 c -1.961,0 -2.945,1.039 -2.945,3.113 v 6.066 h -1.453 v 0.742 l 1.453,0.641 0.648,2.176 h 0.891 v -2.36 h 2.941 v -1.199 h -2.941 v -6 c 0,-0.613 0.144,-1.086 0.433,-1.414 0.289,-0.328 0.688,-0.492 1.196,-0.492 z"
         style="fill:#86ae39;fill-opacity:1;fill-rule:nonzero;stroke:none"
         id="path2470" />
      <path
         d="M 74.223,6.379 H 72.684 V 16.57 h 1.539 z m -1.668,12.953 c 0,0.352 0.086,0.61 0.261,0.77 0.172,0.168 0.387,0.25 0.649,0.25 0.246,0 0.457,-0.082 0.637,-0.25 0.179,-0.168 0.269,-0.426 0.269,-0.77 0,-0.348 -0.09,-0.609 -0.269,-0.781 -0.18,-0.168 -0.391,-0.254 -0.637,-0.254 -0.262,0 -0.477,0.086 -0.649,0.254 -0.175,0.172 -0.261,0.433 -0.261,0.781 z"
         style="fill:#86ae39;fill-opacity:1;fill-rule:nonzero;stroke:none"
         id="path2472" />
      <path
         d="M 83.738,6.379 83.43,7.828 H 83.355 C 82.852,7.188 82.344,6.754 81.84,6.527 81.34,6.301 80.715,6.192 79.961,6.192 c -1.008,0 -1.797,0.261 -2.371,0.781 -0.567,0.519 -0.852,1.261 -0.852,2.222 0,2.059 1.641,3.137 4.914,3.235 l 1.723,0.058 v 0.629 c 0,0.801 -0.172,1.391 -0.516,1.77 -0.339,0.383 -0.886,0.574 -1.64,0.574 -0.844,0 -1.801,-0.258 -2.867,-0.781 l -0.473,1.183 c 0.5,0.274 1.043,0.485 1.637,0.641 0.597,0.156 1.199,0.23 1.796,0.23 1.208,0 2.102,-0.269 2.684,-0.808 0.586,-0.539 0.879,-1.402 0.879,-2.594 V 6.379 Z m -3.472,1.086 c 0.957,0 1.707,0.262 2.25,0.789 0.546,0.527 0.824,1.266 0.824,2.215 v 0.922 l -1.539,-0.067 c -1.219,-0.043 -2.102,-0.234 -2.645,-0.578 -0.539,-0.332 -0.804,-0.855 -0.804,-1.57 0,-0.559 0.164,-0.981 0.5,-1.274 0.336,-0.293 0.808,-0.437 1.414,-0.437 z"
         style="fill:#86ae39;fill-opacity:1;fill-rule:nonzero;stroke:none"
         id="path2474" />
      <path
         d="m 88.051,20.848 h 1.535 V 6.379 h -1.535 z"
         style="fill:#86ae39;fill-opacity:1;fill-rule:nonzero;stroke:none"
         id="path2476" />
      <path
         d="M 104.008,6.379 99.414,18.43 h -0.07 c 0.086,-0.957 0.129,-2.09 0.129,-3.406 V 6.379 H 98.02 v 13.594 h 2.367 l 4.285,-11.215 h 0.074 l 4.324,11.215 h 2.352 V 6.379 h -1.574 v 8.758 c 0,1.004 0.043,2.094 0.129,3.273 h -0.075 L 105.273,6.379 Z"
         style="fill:#86ae39;fill-opacity:1;fill-rule:nonzero;stroke:none"
         id="path2478" />
      <path
         d="m 123.648,11.481 c 0,-1.661 -0.418,-2.957 -1.25,-3.895 -0.832,-0.93 -1.984,-1.394 -3.453,-1.394 -0.906,0 -1.711,0.214 -2.414,0.64 -0.703,0.43 -1.246,1.043 -1.629,1.844 -0.382,0.797 -0.574,1.734 -0.574,2.805 0,1.664 0.414,2.957 1.238,3.878 0.829,0.93 1.977,1.395 3.446,1.395 1.418,0 2.543,-0.473 3.375,-1.422 0.84,-0.949 1.261,-2.23 1.261,-3.851 z m -7.73,0 c 0,-1.301 0.262,-2.293 0.777,-2.973 0.52,-0.684 1.282,-1.024 2.289,-1.024 1.004,0 1.766,0.336 2.286,1.012 0.523,0.684 0.785,1.68 0.785,2.985 0,1.296 -0.262,2.281 -0.785,2.949 -0.52,0.676 -1.29,1.015 -2.305,1.015 -1.008,0 -1.766,-0.332 -2.277,-0.996 -0.512,-0.664 -0.77,-1.652 -0.77,-2.968 z"
         style="fill:#86ae39;fill-opacity:1;fill-rule:nonzero;stroke:none"
         id="path2480" />
      <path
         d="m 133.234,7.742 h -0.082 c -0.711,-1.035 -1.769,-1.55 -3.183,-1.55 -1.328,0 -2.36,0.457 -3.102,1.367 -0.734,0.91 -1.101,2.207 -1.101,3.886 0,1.68 0.371,2.985 1.113,3.914 0.738,0.93 1.769,1.395 3.09,1.395 1.375,0 2.429,-0.5 3.164,-1.504 h 0.121 l -0.063,0.734 -0.039,0.715 v 4.149 h 1.536 V 6.379 h -1.247 z m -3.07,-0.258 c 1.047,0 1.809,0.286 2.277,0.856 0.473,0.574 0.711,1.504 0.711,2.781 v 0.324 c 0,1.446 -0.238,2.473 -0.722,3.086 -0.473,0.621 -1.235,0.93 -2.285,0.93 -0.903,0 -1.59,-0.352 -2.075,-1.059 -0.472,-0.699 -0.711,-1.691 -0.711,-2.976 0,-1.301 0.239,-2.285 0.711,-2.945 0.477,-0.664 1.172,-0.997 2.094,-0.997 z"
         style="fill:#86ae39;fill-opacity:1;fill-rule:nonzero;stroke:none"
         id="path2482" />
      <path
         d="m 142.242,6.192 c -1.5,0 -2.683,0.457 -3.554,1.375 -0.864,0.917 -1.297,2.191 -1.297,3.824 0,1.64 0.402,2.945 1.203,3.914 0.808,0.965 1.894,1.449 3.25,1.449 1.269,0 2.277,-0.422 3.019,-1.266 0.739,-0.836 1.11,-1.941 1.11,-3.316 v -0.977 h -6.989 c 0.032,-1.199 0.328,-2.105 0.899,-2.726 0.574,-0.621 1.379,-0.93 2.414,-0.93 1.094,0 2.172,0.231 3.238,0.688 V 6.852 c -0.543,-0.235 -1.055,-0.403 -1.543,-0.504 -0.48,-0.106 -1.066,-0.156 -1.75,-0.156 z m -0.418,9.269 c -0.812,0 -1.465,-0.266 -1.953,-0.797 -0.48,-0.535 -0.762,-1.273 -0.851,-2.215 h 5.304 c 0,0.973 -0.215,1.719 -0.648,2.231 -0.43,0.523 -1.047,0.781 -1.852,0.781 z"
         style="fill:#86ae39;fill-opacity:1;fill-rule:nonzero;stroke:none"
         id="path2484" />
      <path
         d="m 148.582,20.848 h 1.535 V 6.379 h -1.535 z"
         style="fill:#86ae39;fill-opacity:1;fill-rule:nonzero;stroke:none"
         id="path2486" />
      <path
         d="m 153.395,20.848 h 1.535 V 6.379 h -1.535 z"
         style="fill:#86ae39;fill-opacity:1;fill-rule:nonzero;stroke:none"
         id="path2488" />
      <path
         d="m 159.746,6.379 h -1.539 V 16.57 h 1.539 z m -1.668,12.953 c 0,0.352 0.086,0.61 0.258,0.77 0.176,0.168 0.391,0.25 0.648,0.25 0.246,0 0.461,-0.082 0.641,-0.25 0.18,-0.168 0.27,-0.426 0.27,-0.77 0,-0.348 -0.09,-0.609 -0.27,-0.781 -0.18,-0.168 -0.395,-0.254 -0.641,-0.254 -0.257,0 -0.472,0.086 -0.648,0.254 -0.172,0.172 -0.258,0.433 -0.258,0.781 z"
         style="fill:#86ae39;fill-opacity:1;fill-rule:nonzero;stroke:none"
         id="path2490" />
      <path
         d="m 169.961,6.379 v 6.59 c 0,0.832 -0.188,1.453 -0.563,1.859 -0.375,0.41 -0.964,0.617 -1.769,0.617 -1.059,0 -1.836,-0.289 -2.332,-0.867 -0.492,-0.574 -0.738,-1.527 -0.738,-2.855 V 6.379 H 163.02 V 16.57 h 1.25 l 0.25,-1.394 h 0.074 c 0.316,0.5 0.758,0.887 1.324,1.16 0.566,0.281 1.199,0.418 1.898,0.418 1.223,0 2.141,-0.297 2.758,-0.891 0.617,-0.589 0.926,-1.535 0.926,-2.836 V 6.379 Z"
         style="fill:#86ae39;fill-opacity:1;fill-rule:nonzero;stroke:none"
         id="path2492" />
      <path
         d="m 182.949,16.57 v -0.976 l -1.879,-0.223 c 0.172,-0.219 0.328,-0.504 0.461,-0.859 0.137,-0.344 0.203,-0.738 0.203,-1.18 0,-0.996 -0.336,-1.793 -1.015,-2.39 -0.68,-0.594 -1.61,-0.891 -2.797,-0.891 -0.301,0 -0.586,0.023 -0.852,0.074 -0.652,-0.348 -0.98,-0.785 -0.98,-1.312 0,-0.278 0.113,-0.485 0.344,-0.621 0.226,-0.133 0.617,-0.196 1.175,-0.196 h 1.793 c 1.102,0 1.942,-0.234 2.528,-0.699 0.593,-0.465 0.89,-1.141 0.89,-2.027 0,-1.129 -0.453,-1.985 -1.351,-2.575 -0.903,-0.597 -2.215,-0.894 -3.946,-0.894 -1.324,0 -2.351,0.25 -3.07,0.746 -0.719,0.496 -1.074,1.195 -1.074,2.102 0,0.617 0.195,1.156 0.59,1.609 0.398,0.449 0.953,0.758 1.668,0.918 -0.258,0.117 -0.477,0.301 -0.657,0.551 -0.175,0.246 -0.261,0.535 -0.261,0.863 0,0.371 0.101,0.699 0.297,0.977 0.199,0.277 0.511,0.546 0.937,0.808 -0.527,0.219 -0.957,0.586 -1.289,1.106 -0.328,0.523 -0.488,1.117 -0.488,1.789 0,1.113 0.332,1.972 0.996,2.574 0.668,0.605 1.613,0.91 2.836,0.91 0.527,0 1.008,-0.062 1.433,-0.184 z m -8.09,-11.906 c 0,-0.551 0.231,-0.969 0.696,-1.254 0.461,-0.285 1.125,-0.426 1.988,-0.426 1.289,0 2.242,0.196 2.859,0.586 0.625,0.383 0.938,0.907 0.938,1.571 0,0.551 -0.172,0.937 -0.512,1.152 -0.34,0.211 -0.976,0.316 -1.914,0.316 h -1.844 c -0.695,0 -1.238,-0.167 -1.629,-0.503 -0.386,-0.332 -0.582,-0.813 -0.582,-1.442 z m 0.832,8.641 c 0,-0.711 0.204,-1.254 0.602,-1.617 0.402,-0.368 0.961,-0.551 1.676,-0.551 1.5,0 2.25,0.734 2.25,2.195 0,1.531 -0.758,2.297 -2.278,2.297 -0.722,0 -1.277,-0.195 -1.668,-0.586 -0.386,-0.391 -0.582,-0.969 -0.582,-1.738 z"
         style="fill:#86ae39;fill-opacity:1;fill-rule:nonzero;stroke:none"
         id="path2494" />
      <path
         d="m 191.512,6.379 h -1.539 V 16.57 h 1.539 z m -1.668,12.953 c 0,0.352 0.086,0.61 0.258,0.77 0.175,0.168 0.39,0.25 0.648,0.25 0.246,0 0.461,-0.082 0.641,-0.25 0.179,-0.168 0.265,-0.426 0.265,-0.77 0,-0.348 -0.086,-0.609 -0.265,-0.781 -0.18,-0.168 -0.395,-0.254 -0.641,-0.254 -0.258,0 -0.473,0.086 -0.648,0.254 -0.172,0.172 -0.258,0.433 -0.258,0.781 z"
         style="fill:#86ae39;fill-opacity:1;fill-rule:nonzero;stroke:none"
         id="path2496" />
      <path
         d="m 201.727,6.379 v 6.59 c 0,0.832 -0.188,1.453 -0.563,1.859 -0.375,0.41 -0.965,0.617 -1.769,0.617 -1.059,0 -1.836,-0.289 -2.333,-0.867 -0.492,-0.574 -0.738,-1.527 -0.738,-2.855 V 6.379 h -1.539 V 16.57 h 1.25 l 0.25,-1.394 h 0.074 c 0.317,0.5 0.758,0.887 1.325,1.16 0.566,0.281 1.199,0.418 1.898,0.418 1.223,0 2.141,-0.297 2.758,-0.891 0.617,-0.589 0.926,-1.535 0.926,-2.836 V 6.379 Z"
         style="fill:#86ae39;fill-opacity:1;fill-rule:nonzero;stroke:none"
         id="path2498" />
      <path
         d="m 211.566,6.379 v 13.594 h 1.575 V 7.809 h 5.968 v -1.43 z"
         style="fill:#86ae39;fill-opacity:1;fill-rule:nonzero;stroke:none"
         id="path2500" />
      <path
         d="m 227.422,6.379 -0.305,1.449 h -0.074 c -0.508,-0.64 -1.012,-1.074 -1.52,-1.301 -0.5,-0.226 -1.125,-0.335 -1.878,-0.335 -1.004,0 -1.793,0.261 -2.368,0.781 -0.57,0.519 -0.851,1.261 -0.851,2.222 0,2.059 1.636,3.137 4.914,3.235 l 1.722,0.058 v 0.629 c 0,0.801 -0.175,1.391 -0.519,1.77 -0.34,0.383 -0.887,0.574 -1.637,0.574 -0.847,0 -1.804,-0.258 -2.871,-0.781 l -0.473,1.183 c 0.5,0.274 1.047,0.485 1.641,0.641 0.598,0.156 1.195,0.23 1.793,0.23 1.211,0 2.106,-0.269 2.684,-0.808 0.586,-0.539 0.882,-1.402 0.882,-2.594 V 6.379 Z m -3.469,1.086 c 0.953,0 1.703,0.262 2.246,0.789 0.551,0.527 0.824,1.266 0.824,2.215 v 0.922 l -1.535,-0.067 c -1.222,-0.043 -2.105,-0.234 -2.648,-0.578 -0.535,-0.332 -0.805,-0.855 -0.805,-1.57 0,-0.559 0.168,-0.981 0.5,-1.274 0.34,-0.293 0.813,-0.437 1.418,-0.437 z"
         style="fill:#86ae39;fill-opacity:1;fill-rule:nonzero;stroke:none"
         id="path2502" />
      <path
         d="m 238.676,6.379 v 6.59 c 0,0.832 -0.188,1.453 -0.563,1.859 -0.379,0.41 -0.965,0.617 -1.769,0.617 -1.059,0 -1.84,-0.289 -2.332,-0.867 -0.492,-0.574 -0.739,-1.527 -0.739,-2.855 V 6.379 h -1.539 V 16.57 h 1.25 l 0.25,-1.394 h 0.075 c 0.316,0.5 0.757,0.887 1.324,1.16 0.566,0.281 1.199,0.418 1.898,0.418 1.219,0 2.141,-0.297 2.758,-0.891 0.617,-0.589 0.926,-1.535 0.926,-2.836 V 6.379 Z"
         style="fill:#86ae39;fill-opacity:1;fill-rule:nonzero;stroke:none"
         id="path2504" />
      <path
         d="m 250.266,7.742 h -0.082 c -0.711,-1.035 -1.774,-1.55 -3.188,-1.55 -1.324,0 -2.359,0.457 -3.098,1.367 -0.734,0.91 -1.101,2.207 -1.101,3.886 0,1.68 0.371,2.985 1.109,3.914 0.742,0.93 1.77,1.395 3.09,1.395 1.379,0 2.434,-0.5 3.168,-1.504 h 0.121 l -0.066,0.734 -0.035,0.715 v 4.149 h 1.535 V 6.379 h -1.25 z m -3.075,-0.258 c 1.051,0 1.809,0.286 2.278,0.856 0.476,0.574 0.715,1.504 0.715,2.781 v 0.324 c 0,1.446 -0.243,2.473 -0.723,3.086 -0.477,0.621 -1.238,0.93 -2.289,0.93 -0.899,0 -1.59,-0.352 -2.07,-1.059 -0.477,-0.699 -0.715,-1.691 -0.715,-2.976 0,-1.301 0.238,-2.285 0.715,-2.945 0.472,-0.664 1.171,-0.997 2.089,-0.997 z"
         style="fill:#86ae39;fill-opacity:1;fill-rule:nonzero;stroke:none"
         id="path2506" />
      <path
         d="m 261.531,9.156 c 0,-0.949 -0.355,-1.679 -1.058,-2.195 -0.703,-0.512 -1.688,-0.769 -2.961,-0.769 -1.344,0 -2.395,0.214 -3.145,0.64 v 1.434 c 0.485,-0.25 1.008,-0.446 1.563,-0.586 0.562,-0.145 1.101,-0.215 1.621,-0.215 0.801,0 1.418,0.129 1.851,0.383 0.43,0.258 0.645,0.652 0.645,1.179 0,0.399 -0.172,0.735 -0.516,1.012 -0.34,0.285 -1.008,0.621 -2,1.008 -0.945,0.352 -1.617,0.66 -2.019,0.918 -0.395,0.266 -0.692,0.566 -0.887,0.902 -0.191,0.336 -0.289,0.735 -0.289,1.2 0,0.832 0.34,1.484 1.012,1.964 0.672,0.481 1.593,0.723 2.765,0.723 1.094,0 2.16,-0.223 3.203,-0.668 l -0.546,-1.258 c -1.016,0.422 -1.942,0.633 -2.766,0.633 -0.731,0 -1.277,-0.113 -1.649,-0.344 -0.371,-0.226 -0.554,-0.543 -0.554,-0.949 0,-0.269 0.066,-0.504 0.203,-0.695 0.141,-0.192 0.367,-0.375 0.676,-0.551 0.308,-0.172 0.902,-0.422 1.777,-0.75 1.203,-0.441 2.016,-0.887 2.434,-1.332 0.425,-0.445 0.64,-1.008 0.64,-1.684 z"
         style="fill:#86ae39;fill-opacity:1;fill-rule:nonzero;stroke:none"
         id="path2508" />
      <path
         d="m 268.074,6.192 c -1.469,0 -2.609,0.453 -3.418,1.355 -0.801,0.914 -1.203,2.199 -1.203,3.859 0,1.707 0.41,3.024 1.223,3.953 0.82,0.93 1.988,1.395 3.5,1.395 0.488,0 0.972,-0.051 1.461,-0.156 0.488,-0.106 0.871,-0.231 1.148,-0.371 l -0.473,-1.313 c -0.339,0.137 -0.71,0.246 -1.109,0.336 -0.402,0.09 -0.758,0.137 -1.066,0.137 -2.059,0 -3.09,-1.32 -3.09,-3.961 0,-1.25 0.25,-2.211 0.75,-2.883 0.504,-0.668 1.254,-1.004 2.238,-1.004 0.848,0 1.715,0.184 2.602,0.551 V 6.723 c -0.68,-0.356 -1.532,-0.531 -2.563,-0.531 z"
         style="fill:#86ae39;fill-opacity:1;fill-rule:nonzero;stroke:none"
         id="path2510" />
      <path
         d="m 279.293,6.379 -0.309,1.449 h -0.074 c -0.504,-0.64 -1.012,-1.074 -1.515,-1.301 -0.5,-0.226 -1.129,-0.335 -1.879,-0.335 -1.008,0 -1.797,0.261 -2.371,0.781 -0.567,0.519 -0.852,1.261 -0.852,2.222 0,2.059 1.641,3.137 4.914,3.235 l 1.723,0.058 v 0.629 c 0,0.801 -0.172,1.391 -0.52,1.77 -0.336,0.383 -0.883,0.574 -1.637,0.574 -0.843,0 -1.8,-0.258 -2.871,-0.781 l -0.468,1.183 c 0.5,0.274 1.043,0.485 1.636,0.641 0.598,0.156 1.196,0.23 1.797,0.23 1.207,0 2.102,-0.269 2.684,-0.808 0.586,-0.539 0.879,-1.402 0.879,-2.594 V 6.379 Z m -3.473,1.086 c 0.957,0 1.707,0.262 2.25,0.789 0.547,0.527 0.825,1.266 0.825,2.215 v 0.922 l -1.54,-0.067 c -1.218,-0.043 -2.101,-0.234 -2.644,-0.578 -0.539,-0.332 -0.809,-0.855 -0.809,-1.57 0,-0.559 0.168,-0.981 0.5,-1.274 0.34,-0.293 0.813,-0.437 1.418,-0.437 z"
         style="fill:#86ae39;fill-opacity:1;fill-rule:nonzero;stroke:none"
         id="path2512" />
      <path
         d="m 288.324,6.192 c -0.66,0 -1.265,0.121 -1.812,0.363 -0.543,0.246 -1,0.625 -1.371,1.133 h -0.11 c 0.074,-0.594 0.11,-1.161 0.11,-1.692 V 1.801 h -1.536 V 16.57 h 1.25 l 0.211,-1.394 h 0.075 c 0.394,0.555 0.855,0.961 1.379,1.207 0.523,0.246 1.125,0.371 1.804,0.371 1.344,0 2.383,-0.461 3.11,-1.383 0.734,-0.926 1.101,-2.222 1.101,-3.89 0,-1.672 -0.371,-2.973 -1.117,-3.903 -0.742,-0.926 -1.773,-1.386 -3.094,-1.386 z m -0.222,9.253 c -1.036,0 -1.786,-0.289 -2.25,-0.867 -0.461,-0.574 -0.7,-1.492 -0.711,-2.75 v -0.347 c 0,-1.43 0.238,-2.457 0.711,-3.079 0.476,-0.613 1.238,-0.918 2.289,-0.918 0.875,0 1.558,0.356 2.054,1.071 0.5,0.711 0.75,1.695 0.75,2.945 0,1.274 -0.25,2.246 -0.75,2.922 -0.496,0.68 -1.191,1.023 -2.093,1.023 z"
         style="fill:#86ae39;fill-opacity:1;fill-rule:nonzero;stroke:none"
         id="path2514" />
      <path
         d="m 299.516,6.192 c -1.5,0 -2.684,0.457 -3.555,1.375 -0.863,0.917 -1.297,2.191 -1.297,3.824 0,1.64 0.402,2.945 1.203,3.914 0.809,0.965 1.891,1.449 3.25,1.449 1.27,0 2.278,-0.422 3.016,-1.266 0.742,-0.836 1.113,-1.941 1.113,-3.316 v -0.977 h -6.988 c 0.031,-1.199 0.328,-2.105 0.898,-2.726 0.571,-0.621 1.379,-0.93 2.414,-0.93 1.094,0 2.172,0.231 3.239,0.688 V 6.852 c -0.543,-0.235 -1.059,-0.403 -1.543,-0.504 -0.485,-0.106 -1.067,-0.156 -1.75,-0.156 z m -0.418,9.269 c -0.813,0 -1.465,-0.266 -1.953,-0.797 -0.481,-0.535 -0.766,-1.273 -0.852,-2.215 h 5.305 c 0,0.973 -0.215,1.719 -0.649,2.231 -0.433,0.523 -1.051,0.781 -1.851,0.781 z"
         style="fill:#86ae39;fill-opacity:1;fill-rule:nonzero;stroke:none"
         id="path2516" />
      <path
         d="m 312.398,9.156 c 0,-0.949 -0.351,-1.679 -1.054,-2.195 -0.703,-0.512 -1.692,-0.769 -2.961,-0.769 -1.348,0 -2.395,0.214 -3.149,0.64 v 1.434 c 0.489,-0.25 1.008,-0.446 1.567,-0.586 0.558,-0.145 1.097,-0.215 1.617,-0.215 0.805,0 1.422,0.129 1.852,0.383 0.433,0.258 0.648,0.652 0.648,1.179 0,0.399 -0.172,0.735 -0.52,1.012 -0.339,0.285 -1.003,0.621 -2,1.008 -0.941,0.352 -1.613,0.66 -2.015,0.918 -0.395,0.266 -0.692,0.566 -0.891,0.902 -0.191,0.336 -0.285,0.735 -0.285,1.2 0,0.832 0.336,1.484 1.008,1.964 0.672,0.481 1.597,0.723 2.769,0.723 1.09,0 2.161,-0.223 3.204,-0.668 l -0.547,-1.258 c -1.02,0.422 -1.942,0.633 -2.77,0.633 -0.726,0 -1.277,-0.113 -1.644,-0.344 -0.372,-0.226 -0.559,-0.543 -0.559,-0.949 0,-0.269 0.07,-0.504 0.203,-0.695 0.145,-0.192 0.367,-0.375 0.676,-0.551 0.308,-0.172 0.902,-0.422 1.777,-0.75 1.203,-0.441 2.016,-0.887 2.438,-1.332 0.426,-0.445 0.636,-1.008 0.636,-1.684 z"
         style="fill:#86ae39;fill-opacity:1;fill-rule:nonzero;stroke:none"
         id="path2518" />
      <path
         d="m 124.859,29.774 c 0,-1.196 -0.429,-2.129 -1.297,-2.801 -0.863,-0.668 -2.035,-1.004 -3.515,-1.004 -1.606,0 -2.84,0.207 -3.703,0.625 v 1.523 c 0.554,-0.234 1.16,-0.422 1.816,-0.558 0.652,-0.137 1.301,-0.203 1.942,-0.203 1.05,0 1.839,0.199 2.371,0.593 0.531,0.407 0.797,0.961 0.797,1.676 0,0.469 -0.098,0.856 -0.29,1.152 -0.183,0.305 -0.5,0.582 -0.945,0.836 -0.437,0.254 -1.105,0.543 -2.008,0.868 -1.257,0.453 -2.16,0.988 -2.703,1.609 -0.535,0.617 -0.804,1.426 -0.804,2.426 0,1.047 0.394,1.883 1.175,2.5 0.785,0.621 1.821,0.929 3.11,0.929 1.347,0 2.582,-0.246 3.711,-0.742 l -0.489,-1.375 c -1.117,0.469 -2.203,0.703 -3.257,0.703 -0.832,0 -1.485,-0.179 -1.954,-0.539 -0.468,-0.359 -0.703,-0.855 -0.703,-1.496 0,-0.472 0.086,-0.859 0.258,-1.16 0.172,-0.301 0.465,-0.574 0.871,-0.828 0.414,-0.25 1.043,-0.524 1.887,-0.828 1.422,-0.508 2.394,-1.055 2.926,-1.637 0.535,-0.582 0.804,-1.34 0.804,-2.269 z"
         style="fill:#86ae39;fill-opacity:1;fill-rule:nonzero;stroke:none"
         id="path2520" />
      <path
         d="m 136.152,31.262 c 0,-1.66 -0.418,-2.961 -1.25,-3.899 -0.832,-0.929 -1.984,-1.394 -3.453,-1.394 -0.906,0 -1.711,0.215 -2.414,0.644 -0.703,0.426 -1.246,1.039 -1.629,1.84 -0.383,0.801 -0.574,1.735 -0.574,2.809 0,1.66 0.414,2.953 1.238,3.879 0.828,0.929 1.977,1.394 3.446,1.394 1.418,0 2.543,-0.476 3.379,-1.426 0.835,-0.945 1.257,-2.23 1.257,-3.847 z m -7.73,0 c 0,-1.301 0.262,-2.293 0.777,-2.977 0.52,-0.679 1.281,-1.023 2.289,-1.023 1.004,0 1.766,0.34 2.285,1.015 0.524,0.68 0.786,1.676 0.786,2.985 0,1.297 -0.262,2.277 -0.786,2.945 -0.519,0.676 -1.285,1.016 -2.304,1.016 -1.008,0 -1.766,-0.332 -2.278,-0.996 -0.511,-0.664 -0.769,-1.653 -0.769,-2.965 z"
         style="fill:#86ae39;fill-opacity:1;fill-rule:nonzero;stroke:none"
         id="path2522" />
      <path
         d="m 143.41,35.149 h -2.586 v -8.993 h -1.535 v 8.993 h -1.812 v 0.695 l 1.812,0.558 v 0.571 c 0,2.504 1.09,3.754 3.27,3.754 0.535,0 1.164,-0.11 1.886,-0.325 l -0.398,-1.238 c -0.594,0.195 -1.098,0.289 -1.52,0.289 -0.578,0 -1.007,-0.195 -1.285,-0.586 -0.277,-0.383 -0.418,-1.004 -0.418,-1.859 v -0.66 h 2.586 z"
         style="fill:#86ae39;fill-opacity:1;fill-rule:nonzero;stroke:none"
         id="path2524" />
      <path
         d="m 148.555,27.242 c 0.269,0 0.535,0.02 0.785,0.059 0.254,0.043 0.453,0.086 0.601,0.129 v -1.18 c -0.164,-0.082 -0.41,-0.148 -0.738,-0.195 -0.32,-0.059 -0.613,-0.086 -0.871,-0.086 -1.961,0 -2.941,1.039 -2.941,3.117 v 6.063 h -1.453 v 0.742 l 1.453,0.644 0.644,2.176 h 0.891 v -2.363 h 2.941 v -1.199 h -2.941 v -6 c 0,-0.614 0.144,-1.082 0.433,-1.411 0.293,-0.328 0.688,-0.496 1.196,-0.496 z"
         style="fill:#86ae39;fill-opacity:1;fill-rule:nonzero;stroke:none"
         id="path2526" />
      <path
         d="m 160.262,26.156 -1.86,5.981 c -0.117,0.363 -0.336,1.195 -0.656,2.492 h -0.074 c -0.246,-1.086 -0.465,-1.922 -0.649,-2.512 l -1.918,-5.961 h -1.773 l -2.77,10.192 h 1.61 c 0.656,-2.559 1.152,-4.512 1.492,-5.848 0.344,-1.34 0.543,-2.242 0.594,-2.707 h 0.07 c 0.07,0.352 0.176,0.809 0.324,1.367 0.157,0.563 0.289,1.012 0.399,1.34 l 1.863,5.848 h 1.664 l 1.813,-5.848 c 0.347,-1.066 0.582,-1.965 0.707,-2.687 h 0.074 c 0.023,0.222 0.086,0.566 0.191,1.031 0.114,0.465 0.758,2.965 1.934,7.504 h 1.594 l -2.805,-10.192 z"
         style="fill:#86ae39;fill-opacity:1;fill-rule:nonzero;stroke:none"
         id="path2528" />
      <path
         d="m 172.953,26.156 -0.305,1.45 h -0.074 c -0.508,-0.637 -1.012,-1.071 -1.519,-1.301 -0.5,-0.223 -1.125,-0.336 -1.879,-0.336 -1.004,0 -1.797,0.262 -2.371,0.781 -0.567,0.524 -0.852,1.262 -0.852,2.223 0,2.058 1.641,3.136 4.918,3.238 l 1.719,0.055 v 0.633 c 0,0.8 -0.172,1.386 -0.516,1.765 -0.34,0.387 -0.886,0.578 -1.64,0.578 -0.844,0 -1.801,-0.261 -2.868,-0.781 l -0.472,1.18 c 0.5,0.273 1.047,0.488 1.636,0.64 0.602,0.157 1.2,0.235 1.797,0.235 1.211,0 2.106,-0.27 2.684,-0.809 0.586,-0.539 0.879,-1.406 0.879,-2.594 v -6.957 z m -3.473,1.086 c 0.958,0 1.708,0.266 2.25,0.793 0.551,0.528 0.825,1.266 0.825,2.211 v 0.922 l -1.535,-0.066 c -1.223,-0.043 -2.106,-0.235 -2.649,-0.575 -0.535,-0.335 -0.805,-0.859 -0.805,-1.574 0,-0.554 0.164,-0.98 0.5,-1.273 0.34,-0.289 0.809,-0.438 1.414,-0.438 z"
         style="fill:#86ae39;fill-opacity:1;fill-rule:nonzero;stroke:none"
         id="path2530" />
      <path
         d="m 181.895,36.535 c 0.449,0 0.851,-0.039 1.21,-0.113 l -0.21,-1.434 c -0.422,0.094 -0.793,0.141 -1.114,0.141 -0.82,0 -1.523,-0.336 -2.109,-1.004 -0.578,-0.668 -0.871,-1.504 -0.871,-2.5 v -5.469 h -1.535 v 10.192 h 1.269 l 0.176,-1.887 h 0.074 c 0.375,0.664 0.828,1.176 1.36,1.535 0.531,0.36 1.113,0.539 1.75,0.539 z"
         style="fill:#86ae39;fill-opacity:1;fill-rule:nonzero;stroke:none"
         id="path2532" />
      <path
         d="m 189.289,25.969 c -1.5,0 -2.684,0.461 -3.555,1.379 -0.863,0.918 -1.296,2.191 -1.296,3.82 0,1.645 0.402,2.949 1.203,3.914 0.808,0.969 1.894,1.453 3.25,1.453 1.269,0 2.277,-0.422 3.015,-1.265 0.742,-0.836 1.114,-1.946 1.114,-3.321 v -0.976 h -6.989 c 0.031,-1.196 0.328,-2.106 0.899,-2.723 0.574,-0.621 1.379,-0.933 2.414,-0.933 1.094,0 2.172,0.23 3.238,0.691 v -1.379 c -0.543,-0.234 -1.055,-0.402 -1.543,-0.5 -0.48,-0.105 -1.066,-0.16 -1.75,-0.16 z m -0.418,9.273 c -0.812,0 -1.465,-0.269 -1.953,-0.8 -0.48,-0.532 -0.766,-1.27 -0.852,-2.215 h 5.305 c 0,0.976 -0.215,1.718 -0.648,2.234 -0.43,0.52 -1.047,0.781 -1.852,0.781 z"
         style="fill:#86ae39;fill-opacity:1;fill-rule:nonzero;stroke:none"
         id="path2534" />
      <path
         d="m 208.328,26.156 h -7.543 V 39.75 h 7.543 v -1.402 h -5.969 v -4.379 h 5.606 v -1.395 h -5.606 V 27.57 h 5.969 z"
         style="fill:#86ae39;fill-opacity:1;fill-rule:nonzero;stroke:none"
         id="path2536" />
      <path
         d="m 218.047,26.156 v 6.594 c 0,0.828 -0.188,1.449 -0.567,1.859 -0.375,0.411 -0.964,0.614 -1.765,0.614 -1.063,0 -1.84,-0.289 -2.332,-0.864 -0.496,-0.578 -0.742,-1.531 -0.742,-2.855 v -5.348 h -1.536 v 10.192 h 1.25 l 0.25,-1.395 h 0.075 c 0.312,0.5 0.754,0.891 1.32,1.164 0.57,0.278 1.203,0.418 1.898,0.418 1.223,0 2.141,-0.301 2.758,-0.894 0.617,-0.59 0.926,-1.535 0.926,-2.836 v -6.649 z"
         style="fill:#86ae39;fill-opacity:1;fill-rule:nonzero;stroke:none"
         id="path2538" />
      <path
         d="m 224.949,26.156 -3.847,10.192 h 1.644 l 2.188,-6.043 c 0.492,-1.414 0.781,-2.332 0.867,-2.754 h 0.074 c 0.07,0.328 0.281,1.008 0.641,2.035 0.363,1.035 1.175,3.289 2.433,6.762 h 1.649 l -3.852,-10.192 z"
         style="fill:#86ae39;fill-opacity:1;fill-rule:nonzero;stroke:none"
         id="path2540" />
      <path
         d="m 233.781,26.156 h -1.535 v 10.192 h 1.535 z m -1.668,12.953 c 0,0.356 0.09,0.61 0.262,0.774 0.172,0.164 0.387,0.25 0.648,0.25 0.247,0 0.457,-0.086 0.637,-0.25 0.18,-0.168 0.27,-0.426 0.27,-0.774 0,-0.347 -0.09,-0.605 -0.27,-0.781 -0.18,-0.168 -0.39,-0.25 -0.637,-0.25 -0.261,0 -0.476,0.082 -0.648,0.25 -0.172,0.176 -0.262,0.434 -0.262,0.781 z"
         style="fill:#86ae39;fill-opacity:1;fill-rule:nonzero;stroke:none"
         id="path2542" />
      <path
         d="m 241.684,36.535 c 0.453,0 0.855,-0.039 1.214,-0.113 l -0.214,-1.434 c -0.418,0.094 -0.789,0.141 -1.11,0.141 -0.82,0 -1.523,-0.336 -2.109,-1.004 -0.582,-0.668 -0.871,-1.504 -0.871,-2.5 v -5.469 h -1.535 v 10.192 h 1.265 l 0.176,-1.887 h 0.074 c 0.379,0.664 0.832,1.176 1.364,1.535 0.527,0.36 1.113,0.539 1.746,0.539 z"
         style="fill:#86ae39;fill-opacity:1;fill-rule:nonzero;stroke:none"
         id="path2544" />
      <path
         d="m 253.551,31.262 c 0,-1.66 -0.418,-2.961 -1.25,-3.899 -0.832,-0.929 -1.985,-1.394 -3.453,-1.394 -0.907,0 -1.711,0.215 -2.414,0.644 -0.704,0.426 -1.246,1.039 -1.629,1.84 -0.383,0.801 -0.575,1.735 -0.575,2.809 0,1.66 0.415,2.953 1.243,3.879 0.824,0.929 1.972,1.394 3.441,1.394 1.418,0 2.547,-0.476 3.379,-1.426 0.84,-0.945 1.258,-2.23 1.258,-3.847 z m -7.727,0 c 0,-1.301 0.258,-2.293 0.778,-2.977 0.515,-0.679 1.277,-1.023 2.285,-1.023 1.004,0 1.765,0.34 2.285,1.015 0.523,0.68 0.789,1.676 0.789,2.985 0,1.297 -0.266,2.277 -0.789,2.945 -0.52,0.676 -1.285,1.016 -2.305,1.016 -1.004,0 -1.765,-0.332 -2.277,-0.996 -0.512,-0.664 -0.766,-1.653 -0.766,-2.965 z"
         style="fill:#86ae39;fill-opacity:1;fill-rule:nonzero;stroke:none"
         id="path2546" />
      <path
         d="m 263.176,26.156 v 6.594 c 0,0.828 -0.188,1.449 -0.563,1.859 -0.379,0.411 -0.965,0.614 -1.769,0.614 -1.063,0 -1.84,-0.289 -2.332,-0.864 -0.492,-0.578 -0.739,-1.531 -0.739,-2.855 v -5.348 h -1.539 v 10.192 h 1.25 l 0.25,-1.395 h 0.075 c 0.316,0.5 0.757,0.891 1.324,1.164 0.566,0.278 1.199,0.418 1.898,0.418 1.219,0 2.141,-0.301 2.758,-0.894 0.617,-0.59 0.926,-1.535 0.926,-2.836 v -6.649 z"
         style="fill:#86ae39;fill-opacity:1;fill-rule:nonzero;stroke:none"
         id="path2548" />
      <path
         d="m 280.789,26.156 v 6.629 c 0,0.813 -0.172,1.422 -0.516,1.824 -0.347,0.411 -0.882,0.614 -1.613,0.614 -0.953,0 -1.66,-0.278 -2.117,-0.828 -0.457,-0.551 -0.688,-1.403 -0.688,-2.547 v -5.692 h -1.535 v 6.629 c 0,0.813 -0.172,1.422 -0.519,1.824 -0.344,0.411 -0.883,0.614 -1.617,0.614 -0.965,0 -1.672,-0.293 -2.122,-0.875 -0.445,-0.574 -0.664,-1.524 -0.664,-2.844 v -5.348 h -1.539 v 10.192 h 1.25 l 0.25,-1.395 h 0.075 c 0.289,0.496 0.699,0.883 1.222,1.164 0.532,0.278 1.121,0.418 1.778,0.418 1.586,0 2.621,-0.578 3.109,-1.73 h 0.074 c 0.301,0.531 0.738,0.953 1.313,1.265 0.574,0.309 1.23,0.465 1.965,0.465 1.144,0 2.003,-0.301 2.57,-0.894 0.574,-0.59 0.863,-1.535 0.863,-2.836 v -6.649 z"
         style="fill:#86ae39;fill-opacity:1;fill-rule:nonzero;stroke:none"
         id="path2550" />
      <path
         d="m 289.77,25.969 c -1.5,0 -2.684,0.461 -3.555,1.379 -0.863,0.918 -1.297,2.191 -1.297,3.82 0,1.645 0.402,2.949 1.203,3.914 0.809,0.969 1.891,1.453 3.25,1.453 1.27,0 2.277,-0.422 3.016,-1.265 0.742,-0.836 1.113,-1.946 1.113,-3.321 v -0.976 h -6.988 c 0.031,-1.196 0.328,-2.106 0.898,-2.723 0.57,-0.621 1.379,-0.933 2.414,-0.933 1.094,0 2.172,0.23 3.238,0.691 v -1.379 c -0.542,-0.234 -1.058,-0.402 -1.542,-0.5 -0.485,-0.105 -1.067,-0.16 -1.75,-0.16 z m -0.418,9.273 c -0.813,0 -1.465,-0.269 -1.954,-0.8 -0.48,-0.532 -0.765,-1.27 -0.851,-2.215 h 5.305 c 0,0.976 -0.215,1.718 -0.649,2.234 -0.433,0.52 -1.051,0.781 -1.851,0.781 z"
         style="fill:#86ae39;fill-opacity:1;fill-rule:nonzero;stroke:none"
         id="path2552" />
      <path
         d="m 303.051,26.156 v 6.594 c 0,0.828 -0.188,1.449 -0.567,1.859 -0.375,0.411 -0.964,0.614 -1.765,0.614 -1.063,0 -1.84,-0.289 -2.332,-0.864 -0.496,-0.578 -0.742,-1.531 -0.742,-2.855 v -5.348 h -1.536 v 10.192 h 1.25 l 0.25,-1.395 h 0.075 c 0.312,0.5 0.754,0.891 1.32,1.164 0.57,0.278 1.203,0.418 1.898,0.418 1.223,0 2.141,-0.301 2.758,-0.894 0.617,-0.59 0.926,-1.535 0.926,-2.836 v -6.649 z"
         style="fill:#86ae39;fill-opacity:1;fill-rule:nonzero;stroke:none"
         id="path2554" />
      <path
         d="m 311.012,27.242 c 0.269,0 0.531,0.02 0.785,0.059 0.254,0.043 0.453,0.086 0.601,0.129 v -1.18 c -0.168,-0.082 -0.414,-0.148 -0.742,-0.195 -0.32,-0.059 -0.609,-0.086 -0.867,-0.086 -1.965,0 -2.945,1.039 -2.945,3.117 v 6.063 h -1.453 v 0.742 l 1.453,0.644 0.648,2.176 h 0.891 v -2.363 h 2.941 v -1.199 h -2.941 v -6 c 0,-0.614 0.144,-1.082 0.433,-1.411 0.289,-0.328 0.688,-0.496 1.196,-0.496 z"
         style="fill:#86ae39;fill-opacity:1;fill-rule:nonzero;stroke:none"
         id="path2556" />
      <path
         d="m 275.336,106.344 26.25,0.133 2.226,3.496 c 0,0 8.583,-6.746 8.586,-8.492 0.004,-1.711 -19.875,-8.661 -19.875,-8.661 l 3.016,4.422 -26.254,-0.179 z"
         style="fill:#f1a631;fill-opacity:1;fill-rule:nonzero;stroke:none"
         id="path2558" />
      <g
         id="g2560"
         transform="matrix(1,0,0,-1,0,151.33214)">
        <path
           d="m 189.898,44.391 c 19.696,-23.985 17.497,16.285 35.989,-6.36"
           style="fill:none;stroke:#4f75d1;stroke-width:6.75;stroke-linecap:butt;stroke-linejoin:miter;stroke-miterlimit:4;stroke-dasharray:none;stroke-opacity:1"
           id="path2562" />
      </g>
      <path
         d="m 173.715,128.563 c -2.543,12.793 12.082,20.578 22.066,21.269 -1.39,-11.992 -11.679,-20.574 -20.23,-22.457 -0.906,-1.875 -1.696,-3.5 -2.606,-5.375 -1.91,1.031 -1.133,0.149 -3.047,1.176 1.274,1.797 2.543,3.594 3.817,5.387 z"
         style="fill:#4fcd4f;fill-opacity:1;fill-rule:nonzero;stroke:none"
         id="path2564" />
      <path
         d="m 238.203,117.535 26.352,-0.113 v -2.48 h -8.754 l -0.871,-7.59 2.664,-12.961 h -4.18 l -2.141,9.453 -2.039,-9.453 h -4.179 l 2.566,12.961 -1.113,7.59 h -8.305 z"
         style="fill:#999999;fill-opacity:1;fill-rule:nonzero;stroke:none"
         id="path2566" />
      <path
         d="m 254.738,121.535 c 0,-1.898 -1.531,-3.437 -3.414,-3.437 -1.886,0 -3.418,1.539 -3.418,3.437 0,1.899 1.532,3.438 3.418,3.438 1.883,0 3.414,-1.539 3.414,-3.438 z"
         style="fill:#999999;fill-opacity:1;fill-rule:nonzero;stroke:none"
         id="path2568" />
      <path
         d="m 293.809,108.082 3.003,4.539 c 0.758,1.149 0.407,2.887 -0.738,3.645 -1.148,0.761 -2.875,0.41 -3.636,-0.739 l -5.032,-7.55 z"
         style="fill:#917c6f;fill-opacity:1;fill-rule:nonzero;stroke:none"
         id="path2570" />
      <path
         d="m 143.672,142.598 c -3.828,-0.02 -7.246,-1.016 -10.149,-3.071 -2.906,-2.054 -5.285,-5.039 -7.617,-8.929 -4.672,-7.781 -9.324,-19.379 -17.086,-36.188 -0.578,-1.25 0.035,-2.914 1.289,-3.492 1.25,-0.574 2.914,0.039 3.493,1.289 7.808,16.91 12.562,28.594 16.828,35.695 2.129,3.555 4.086,5.903 6.117,7.336 2.027,1.438 4.144,2.094 7.148,2.11 1.571,0.011 4.282,-1.922 7.43,-5.977 3.145,-4.051 6.66,-9.762 10.664,-15.773 8.008,-12.02 18.031,-25.481 32.836,-29.227 23.355,-5.91 52.309,-3.582 81.281,-3.281 0.864,0.008 1.707,0.473 2.18,1.195 l 7.476,11.324 -6.374,-0.113 -4.735,-7.179 c -28.715,-0.356 -56.883,-2.34 -78.539,3.14 -12.387,3.137 -21.902,15.242 -29.766,27.047 -3.933,5.906 -7.429,11.664 -10.875,16.102 -3.449,4.441 -6.929,8.019 -11.601,7.992 z"
         style="fill:#917c6f;fill-opacity:1;fill-rule:nonzero;stroke:none"
         id="path2572" />
    </g>
  </g>
</svg>
