<?xml version="1.0" encoding="UTF-8" standalone="no"?>
<svg
   version="1.1"
   id="svg4"
   width="79.605469"
   height="11.320312"
   xmlns="http://www.w3.org/2000/svg"
   xmlns:svg="http://www.w3.org/2000/svg">
  <defs
     id="defs8" />
  <g
     aria-label="OpenConcept"
     id="text2"
     transform="translate(-0.67382812,8.90625)">
    <path
       d="m 7.6757812,-7.7226562 q 0.5332032,0.5859375 0.8144532,1.4355468 0.2871094,0.8496094 0.2871094,1.9277344 0,1.078125 -0.2929688,1.9335937 -0.2871094,0.8496094 -0.8085938,1.4179688 -0.5390625,0.59179687 -1.2773437,0.890625 -0.7324219,0.29882812 -1.6757813,0.29882812 -0.9199218,0 -1.6757812,-0.30468749 -0.75,-0.30468751 -1.2773438,-0.88476563 -0.5273437,-0.5800781 -0.81445307,-1.4238281 -0.28125001,-0.84375 -0.28125001,-1.9277344 0,-1.0664062 0.28125001,-1.9101562 Q 1.2363281,-7.1191406 1.7753906,-7.7226562 2.2910156,-8.296875 3.0527344,-8.6015625 3.8203125,-8.90625 4.7226562,-8.90625 q 0.9375,0 1.6816407,0.3105469 0.75,0.3046875 1.2714843,0.8730469 z M 7.5703125,-4.359375 q 0,-1.6992187 -0.7617188,-2.6191406 -0.7617187,-0.9257813 -2.0800781,-0.9257813 -1.3300781,0 -2.0917968,0.9257813 -0.7558594,0.9199219 -0.7558594,2.6191406 0,1.7167969 0.7734375,2.6308594 0.7734375,0.9082031 2.0742187,0.9082031 1.3007813,0 2.0683594,-0.9082031 0.7734375,-0.9140625 0.7734375,-2.6308594 z"
       id="path10" />
    <path
       d="m 16.289062,-3.3515625 q 0,0.796875 -0.228515,1.4589844 -0.228516,0.65625 -0.644531,1.11328123 -0.386719,0.43359374 -0.914063,0.67382812 -0.521484,0.234375 -1.107422,0.234375 -0.509765,0 -0.925781,-0.11132812 Q 12.058594,-0.09375 11.630859,-0.328125 v 2.7421875 h -1.101562 v -8.9589844 h 1.101562 v 0.6855469 q 0.439454,-0.3691406 0.984375,-0.6152344 0.550782,-0.2519531 1.171875,-0.2519531 1.183594,0 1.839844,0.8964844 0.662109,0.890625 0.662109,2.4785156 z m -1.136718,0.029297 q 0,-1.1835938 -0.404297,-1.7695313 -0.404297,-0.5859375 -1.242188,-0.5859375 -0.474609,0 -0.955078,0.2050782 -0.480468,0.2050781 -0.919922,0.5390625 v 3.7089843 q 0.46875,0.2109375 0.802735,0.2871094 0.339844,0.0761719 0.767578,0.0761719 0.919922,0 1.435547,-0.6210938 0.515625,-0.6210937 0.515625,-1.8398437 z"
       id="path12" />
    <path
       d="m 23.484375,-3.1582031 h -4.822266 q 0,0.6035156 0.181641,1.0546875 0.181641,0.4453125 0.498047,0.7324219 0.304687,0.28125 0.720703,0.42187495 0.421875,0.140625 0.925781,0.140625 0.667969,0 1.341797,-0.26367185 0.679688,-0.2695313 0.966797,-0.5273438 h 0.05859 v 1.2011719 Q 22.798828,-0.1640625 22.21875,-0.00585938 21.638672,0.15234375 21,0.15234375 q -1.628906,0 -2.542969,-0.87890625 -0.914062,-0.8847656 -0.914062,-2.5078125 0,-1.6054687 0.873047,-2.5488281 0.878906,-0.9433594 2.308593,-0.9433594 1.324219,0 2.039063,0.7734375 0.720703,0.7734375 0.720703,2.1972656 z m -1.072266,-0.84375 q -0.0059,-0.8671875 -0.439453,-1.3417969 -0.427734,-0.4746094 -1.30664,-0.4746094 -0.884766,0 -1.41211,0.5214844 -0.521484,0.5214844 -0.591797,1.2949219 z"
       id="path14" />
    <path
       d="m 30.626953,0 h -1.101562 v -3.7265625 q 0,-0.4511719 -0.05273,-0.84375 -0.05273,-0.3984375 -0.193359,-0.6210937 -0.146485,-0.2460938 -0.421875,-0.3632813 -0.275391,-0.1230469 -0.714844,-0.1230469 -0.451172,0 -0.943359,0.2226563 -0.492188,0.2226562 -0.94336,0.5683594 V 0 h -1.101562 v -6.5449219 h 1.101562 v 0.7265625 q 0.515625,-0.4277343 1.066407,-0.6679687 0.550781,-0.2402344 1.130859,-0.2402344 1.060547,0 1.617187,0.6386719 0.556641,0.6386719 0.556641,1.8398437 z"
       id="path16" />
    <path
       d="m 39.574219,-0.6328125 q -0.322266,0.140625 -0.585938,0.26367187 -0.257812,0.12304688 -0.679687,0.25781251 Q 37.951172,0 37.529297,0.07617187 q -0.416016,0.08203125 -0.919922,0.08203125 -0.949219,0 -1.728516,-0.26367187 Q 34.107422,-0.375 33.533203,-0.94335938 32.970703,-1.5 32.654297,-2.3554688 q -0.316406,-0.8613281 -0.316406,-1.9980468 0,-1.078125 0.304687,-1.9277344 0.304688,-0.8496094 0.878906,-1.4355469 0.556641,-0.5683594 1.341797,-0.8671875 0.791016,-0.2988281 1.751953,-0.2988281 0.703125,0 1.400391,0.1699219 0.703125,0.1699218 1.558594,0.5976562 v 1.3769532 h -0.08789 q -0.720703,-0.6035157 -1.429687,-0.8789063 -0.708985,-0.2753906 -1.517579,-0.2753906 -0.662109,0 -1.195312,0.2167969 -0.527344,0.2109375 -0.943359,0.6621093 -0.404297,0.4394532 -0.632813,1.1132813 -0.222656,0.6679687 -0.222656,1.546875 0,0.9199218 0.246094,1.5820312 0.251953,0.6621094 0.644531,1.078125 0.410156,0.4335938 0.955078,0.6445313 0.550781,0.2050781 1.160156,0.2050781 0.837891,0 1.570313,-0.2871094 0.732422,-0.2871093 1.371093,-0.8613281 h 0.08203 z"
       id="path18" />
    <path
       d="m 46.705078,-3.2695313 q 0,1.5996094 -0.820312,2.52539068 -0.820313,0.92578124 -2.197266,0.92578124 -1.388672,0 -2.208984,-0.92578124 -0.814454,-0.92578128 -0.814454,-2.52539068 0,-1.5996093 0.814454,-2.5253906 0.820312,-0.9316406 2.208984,-0.9316406 1.376953,0 2.197266,0.9316406 0.820312,0.9257813 0.820312,2.5253906 z m -1.136719,0 q 0,-1.2714843 -0.498047,-1.8867187 -0.498046,-0.6210937 -1.382812,-0.6210937 -0.896484,0 -1.394531,0.6210937 -0.492188,0.6152344 -0.492188,1.8867187 0,1.2304688 0.498047,1.8691407 0.498047,0.63281248 1.388672,0.63281248 0.878906,0 1.376953,-0.62695308 0.503906,-0.6328126 0.503906,-1.8750001 z"
       id="path20" />
    <path
       d="M 53.882812,0 H 52.78125 v -3.7265625 q 0,-0.4511719 -0.05273,-0.84375 Q 52.67579,-4.96875 52.53516,-5.1914062 52.388676,-5.4375 52.113285,-5.5546875 q -0.27539,-0.1230469 -0.714844,-0.1230469 -0.451171,0 -0.943359,0.2226563 -0.492187,0.2226562 -0.943359,0.5683594 V 0 H 48.41016 v -6.5449219 h 1.101563 v 0.7265625 q 0.515625,-0.4277343 1.066406,-0.6679687 0.550781,-0.2402344 1.130859,-0.2402344 1.060547,0 1.617188,0.6386719 0.55664,0.6386719 0.55664,1.8398437 z"
       id="path22" />
    <path
       d="M 60.84375,-0.41015625 Q 60.292969,-0.14648437 59.794922,0 q -0.492188,0.14648437 -1.048828,0.14648437 -0.708985,0 -1.300782,-0.20507812 -0.591796,-0.2109375 -1.013671,-0.6328125 -0.427735,-0.42187495 -0.66211,-1.06640625 -0.234375,-0.6445313 -0.234375,-1.5058594 0,-1.6054687 0.878906,-2.5195312 0.884766,-0.9140625 2.332032,-0.9140625 0.5625,0 1.101562,0.1582031 0.544922,0.1582031 0.996094,0.3867188 v 1.2246093 h -0.05859 q -0.50391,-0.3925781 -1.042973,-0.6035156 -0.533203,-0.2109375 -1.042968,-0.2109375 -0.9375,0 -1.482422,0.6328125 -0.539063,0.6269531 -0.539063,1.8457031 0,1.1835938 0.527344,1.8222657 0.533203,0.63281245 1.494141,0.63281245 0.333984,0 0.679687,-0.0878906 Q 59.724609,-0.984375 60,-1.125 q 0.240234,-0.1230469 0.451172,-0.2578125 0.210937,-0.140625 0.333984,-0.2402344 h 0.05859 z"
       id="path24" />
    <path
       d="m 67.734375,-3.1582031 h -4.822266 q 0,0.6035156 0.181641,1.0546875 0.181641,0.4453125 0.498047,0.7324219 0.304687,0.28125 0.720703,0.42187495 0.421875,0.140625 0.925781,0.140625 0.667969,0 1.341797,-0.26367185 0.679688,-0.2695313 0.966797,-0.5273438 h 0.05859 v 1.2011719 q -0.556641,0.234375 -1.136719,0.39257812 -0.580078,0.15820313 -1.21875,0.15820313 -1.628906,0 -2.542969,-0.87890625 -0.914062,-0.8847656 -0.914062,-2.5078125 0,-1.6054687 0.873047,-2.5488281 0.878906,-0.9433594 2.308593,-0.9433594 1.324219,0 2.039063,0.7734375 0.720703,0.7734375 0.720703,2.1972656 z m -1.072266,-0.84375 q -0.0059,-0.8671875 -0.439453,-1.3417969 -0.427734,-0.4746094 -1.30664,-0.4746094 -0.884766,0 -1.41211,0.5214844 -0.521484,0.5214844 -0.591797,1.2949219 z"
       id="path26" />
    <path
       d="m 75.164062,-3.3515625 q 0,0.796875 -0.228515,1.4589844 -0.228516,0.65625 -0.644531,1.11328123 -0.386719,0.43359374 -0.914063,0.67382812 -0.521484,0.234375 -1.107422,0.234375 -0.509765,0 -0.925781,-0.11132812 Q 70.933594,-0.09375 70.505859,-0.328125 v 2.7421875 h -1.101562 v -8.9589844 h 1.101562 v 0.6855469 q 0.439453,-0.3691406 0.984375,-0.6152344 0.550782,-0.2519531 1.171875,-0.2519531 1.183594,0 1.839844,0.8964844 0.662109,0.890625 0.662109,2.4785156 z m -1.136718,0.029297 q 0,-1.1835938 -0.404297,-1.7695313 -0.404297,-0.5859375 -1.242188,-0.5859375 -0.474609,0 -0.955078,0.2050782 -0.480469,0.2050781 -0.919922,0.5390625 v 3.7089843 q 0.46875,0.2109375 0.802735,0.2871094 0.339843,0.0761719 0.767578,0.0761719 0.919922,0 1.435547,-0.6210938 0.515625,-0.6210937 0.515625,-1.8398437 z"
       id="path28" />
    <path
       d="m 80.279297,-0.05859375 q -0.310547,0.08203125 -0.679688,0.13476562 -0.363281,0.05273438 -0.65039,0.05273438 -1.001953,0 -1.523438,-0.5390625 -0.521484,-0.5390625 -0.521484,-1.72851565 v -3.4804687 h -0.744141 v -0.9257813 h 0.744141 v -1.8808594 h 1.101562 v 1.8808594 h 2.273438 v 0.9257813 h -2.273438 v 2.9824218 q 0,0.515625 0.02344,0.8085938 0.02344,0.2871094 0.164062,0.5390625 0.128907,0.234375 0.351563,0.34570312 0.228515,0.10546875 0.691406,0.10546875 0.269531,0 0.5625,-0.0761719 0.292969,-0.0820313 0.421875,-0.13476557 h 0.05859 z"
       id="path30" />
  </g>
</svg>
