<?xml version="1.0" encoding="UTF-8" standalone="no"?>
<svg
   version="1.1"
   id="svg4"
   width="66.199219"
   height="11.296875"
   xmlns="http://www.w3.org/2000/svg"
   xmlns:svg="http://www.w3.org/2000/svg">
  <defs
     id="defs8" />
  <g
     aria-label="openTEPES"
     id="text2"
     transform="translate(-0.62109375,8.8828125)">
    <path
       d="m 6.6621094,-3.2695313 q 0,1.5996094 -0.8203125,2.52539068 -0.8203125,0.92578124 -2.1972656,0.92578124 -1.3886719,0 -2.2089844,-0.92578124 -0.81445315,-0.92578128 -0.81445315,-2.52539068 0,-1.5996093 0.81445315,-2.5253906 0.8203125,-0.9316406 2.2089844,-0.9316406 1.3769531,0 2.1972656,0.9316406 0.8203125,0.9257813 0.8203125,2.5253906 z m -1.1367188,0 q 0,-1.2714843 -0.4980469,-1.8867187 -0.4980468,-0.6210937 -1.3828124,-0.6210937 -0.8964844,0 -1.3945313,0.6210937 -0.4921875,0.6152344 -0.4921875,1.8867187 0,1.2304688 0.4980469,1.8691407 0.4980469,0.63281248 1.3886719,0.63281248 0.8789062,0 1.3769531,-0.62695308 0.5039062,-0.6328126 0.5039062,-1.8750001 z"
       id="path10" />
    <path
       d="m 14.126953,-3.3515625 q 0,0.796875 -0.228515,1.4589844 -0.228516,0.65625 -0.644532,1.11328123 -0.386718,0.43359374 -0.914062,0.67382812 -0.521485,0.234375 -1.107422,0.234375 -0.509766,0 -0.925781,-0.11132812 Q 9.8964844,-0.09375 9.46875,-0.328125 V 2.4140625 H 8.3671875 V -6.5449219 H 9.46875 v 0.6855469 q 0.4394531,-0.3691406 0.984375,-0.6152344 0.550781,-0.2519531 1.171875,-0.2519531 1.183594,0 1.839844,0.8964844 0.662109,0.890625 0.662109,2.4785156 z m -1.136719,0.029297 q 0,-1.1835938 -0.404296,-1.7695313 -0.404297,-0.5859375 -1.242188,-0.5859375 -0.474609,0 -0.955078,0.2050782 -0.4804689,0.2050781 -0.919922,0.5390625 v 3.7089843 q 0.46875,0.2109375 0.802734,0.2871094 0.339844,0.0761719 0.767579,0.0761719 0.919921,0 1.435546,-0.6210938 0.515625,-0.6210937 0.515625,-1.8398437 z"
       id="path12" />
    <path
       d="M 21.322266,-3.1582031 H 16.5 q 0,0.6035156 0.181641,1.0546875 0.18164,0.4453125 0.498046,0.7324219 0.304688,0.28125 0.720704,0.42187495 0.421875,0.140625 0.925781,0.140625 0.667969,0 1.341797,-0.26367185 0.679687,-0.2695313 0.966797,-0.5273438 h 0.05859 v 1.2011719 q -0.55664,0.234375 -1.136718,0.39257812 -0.580079,0.15820313 -1.21875,0.15820313 -1.628907,0 -2.542969,-0.87890625 -0.914063,-0.8847656 -0.914063,-2.5078125 0,-1.6054687 0.873047,-2.5488281 0.878906,-0.9433594 2.308594,-0.9433594 1.324219,0 2.039062,0.7734375 0.720704,0.7734375 0.720704,2.1972656 z M 20.25,-4.0019531 q -0.0059,-0.8671875 -0.439453,-1.3417969 -0.427735,-0.4746094 -1.306641,-0.4746094 -0.884765,0 -1.412109,0.5214844 Q 16.570312,-4.7753906 16.5,-4.0019531 Z"
       id="path14" />
    <path
       d="m 28.464844,0 h -1.101563 v -3.7265625 q 0,-0.4511719 -0.05273,-0.84375 -0.05273,-0.3984375 -0.19336,-0.6210937 -0.146484,-0.2460938 -0.421875,-0.3632813 -0.27539,-0.1230469 -0.714843,-0.1230469 -0.451172,0 -0.94336,0.2226563 -0.492187,0.2226562 -0.943359,0.5683594 V 0 h -1.101563 v -6.5449219 h 1.101563 v 0.7265625 q 0.515625,-0.4277343 1.066406,-0.6679687 0.550781,-0.2402344 1.13086,-0.2402344 1.060546,0 1.617187,0.6386719 0.556641,0.6386719 0.556641,1.8398437 z"
       id="path16" />
    <path
       d="M 36.896484,-7.6933594 H 33.779297 V 0 h -1.160156 v -7.6933594 h -3.117188 v -1.03125 h 7.394531 z"
       id="path18" />
    <path
       d="m 43.816406,0 h -5.748047 v -8.7246094 h 5.748047 v 1.03125 h -4.58789 v 2.390625 h 4.58789 v 1.03125 h -4.58789 V -1.03125 h 4.58789 z"
       id="path20" />
    <path
       d="m 51.363281,-6.0878906 q 0,0.5800781 -0.205078,1.078125 -0.199219,0.4921875 -0.5625,0.8554687 -0.451172,0.4511719 -1.066406,0.6796875 -0.615235,0.2226563 -1.552735,0.2226563 H 46.816406 V 0 H 45.65625 v -8.7246094 h 2.367187 q 0.785157,0 1.330079,0.1347656 0.544921,0.1289063 0.966796,0.4101563 0.498047,0.3339844 0.767579,0.8320313 0.27539,0.4980468 0.27539,1.2597656 z m -1.207031,0.029297 q 0,-0.4511719 -0.158203,-0.7851563 -0.158203,-0.3339844 -0.480469,-0.5449219 -0.28125,-0.1816406 -0.644531,-0.2578125 -0.357422,-0.082031 -0.908203,-0.082031 h -1.148438 v 3.4863281 h 0.978516 q 0.703125,0 1.142578,-0.1230469 0.439453,-0.1289062 0.714844,-0.4042968 0.27539,-0.28125 0.386718,-0.5917969 0.117188,-0.3105469 0.117188,-0.6972658 z"
       id="path22" />
    <path
       d="m 58.640625,0 h -5.748047 v -8.7246094 h 5.748047 v 1.03125 h -4.587891 v 2.390625 h 4.587891 v 1.03125 H 54.052734 V -1.03125 h 4.587891 z"
       id="path24" />
    <path
       d="m 66.820312,-2.4902344 q 0,0.5097657 -0.240234,1.0078125 -0.234375,0.4980469 -0.662109,0.84375003 -0.46875,0.37499999 -1.095703,0.5859375 -0.621094,0.21093749 -1.5,0.21093749 -0.94336,0 -1.699219,-0.17578125 -0.75,-0.17578124 -1.529297,-0.52148437 v -1.453125 h 0.08203 q 0.66211,0.5507813 1.529297,0.8496094 0.867188,0.2988281 1.628906,0.2988281 1.078125,0 1.675782,-0.4042969 0.603515,-0.4042968 0.603515,-1.078125 0,-0.5800781 -0.287109,-0.8554687 Q 65.044922,-3.4570313 64.464844,-3.609375 64.025391,-3.7265625 63.509766,-3.8027344 63,-3.8789063 62.425781,-3.9960938 q -1.160156,-0.2460937 -1.722656,-0.8378906 -0.556641,-0.5976562 -0.556641,-1.5527343 0,-1.0957032 0.925782,-1.7929688 0.925781,-0.703125 2.349609,-0.703125 0.919922,0 1.6875,0.1757812 0.767578,0.1757813 1.359375,0.4335938 v 1.3710938 h -0.08203 q -0.498047,-0.421875 -1.3125,-0.6972657 -0.808594,-0.28125 -1.658203,-0.28125 -0.931641,0 -1.5,0.3867188 -0.5625,0.3867187 -0.5625,0.9960937 0,0.5449219 0.28125,0.8554688 0.28125,0.3105469 0.990234,0.4746094 0.375,0.082031 1.066406,0.1992187 0.691406,0.1171875 1.171875,0.2402344 0.972656,0.2578125 1.464844,0.7792968 0.492187,0.5214844 0.492186,1.4589844 z"
       id="path26" />
  </g>
</svg>
