<?xml version="1.0" encoding="UTF-8" standalone="no"?>
<!-- Created with Inkscape (http://www.inkscape.org/) -->

<svg
   version="1.1"
   id="svg4308"
   width="186"
   height="64"
   viewBox="0 0 186 64"
   sodipodi:docname="openv2g.svg"
   inkscape:version="1.2.2 (b0a84865, 2022-12-01)"
   xmlns:inkscape="http://www.inkscape.org/namespaces/inkscape"
   xmlns:sodipodi="http://sodipodi.sourceforge.net/DTD/sodipodi-0.dtd"
   xmlns="http://www.w3.org/2000/svg"
   xmlns:svg="http://www.w3.org/2000/svg">
  <defs
     id="defs4312" />
  <sodipodi:namedview
     id="namedview4310"
     pagecolor="#ffffff"
     bordercolor="#666666"
     borderopacity="1.0"
     inkscape:showpageshadow="2"
     inkscape:pageopacity="0.0"
     inkscape:pagecheckerboard="0"
     inkscape:deskcolor="#d1d1d1"
     showgrid="false"
     inkscape:zoom="3.6875"
     inkscape:cx="93.830508"
     inkscape:cy="34.576271"
     inkscape:window-width="1243"
     inkscape:window-height="667"
     inkscape:window-x="2034"
     inkscape:window-y="342"
     inkscape:window-maximized="0"
     inkscape:current-layer="g4314" />
  <g
     inkscape:groupmode="layer"
     inkscape:label="Image"
     id="g4314">
    <g
       id="g4435">
      <path
         style="fill:#a9dde9"
         d="M 12.58758,59.5 C 11.313273,58.125 9.6348882,57 8.8578355,57 6.2803694,57 3,53.928263 3,51.514725 3,48.596337 5.4482717,46 8.2002278,46 9.3317816,46 12.000935,44.425 14.13168,42.5 17.734374,39.245182 18.467903,39 24.602881,39 30.809112,39 31.407379,39.207379 34.7,42.5 36.625,44.425 39.022857,46 40.028571,46 42.046812,46 45,48.520293 45,50.242688 c 0,0.604907 0.719083,1.894408 1.597961,2.865558 1.822689,2.014048 0.969914,4.607938 -0.982268,2.987771 C 43.99983,54.754969 38.176253,56.80633 35.242455,59.75 32.394595,62.607442 31.483189,62.574098 28.409091,59.5 27.034091,58.125 25.05,57 24,57 c -1.05,0 -3.034091,1.125 -4.409091,2.5 -1.375,1.375 -2.991941,2.5 -3.593203,2.5 -0.601262,0 -2.135819,-1.125 -3.410126,-2.5 z M 55.5,61.234687 C 54.065556,60.18082 54.111161,56 55.5571,56 c 0.668746,0 1.414039,1.35 1.656208,3 0.448245,3.054087 0.07126,3.545789 -1.713308,2.234687 z m 2.889987,-0.66078 C 57.480191,58.203016 58.76749,55.808574 60.746976,56.189788 61.853999,56.402982 62.5,57.438563 62.5,59 c 0,2.850627 -3.156276,4.059306 -4.110013,1.573907 z M 60.683114,58.8125 c -0.319226,-0.797733 -0.556183,-0.560776 -0.604167,0.604167 -0.04342,1.054166 0.192928,1.644791 0.52522,1.3125 0.332291,-0.332292 0.367818,-1.194792 0.07895,-1.916667 z m 3.859965,0.694733 C 64.662911,56.769823 66,54.699666 66,57.251546 c 0,0.871683 0.273145,2.296683 0.606989,3.166667 C 66.981077,61.39307 66.680632,62 65.823967,62 64.979848,62 64.476812,61.021029 64.543079,59.507233 Z M 68.6875,61.354167 C 68.309375,60.976042 68,59.616667 68,58.333333 68,56.641666 68.568266,56 70.066422,56 c 1.652081,0 2.002976,0.535944 1.75,2.672881 -0.316551,2.673972 -1.835012,3.975195 -3.128922,2.681286 z M 70.683114,57.8125 c -0.319226,-0.797733 -0.556183,-0.560776 -0.604167,0.604167 -0.04342,1.054166 0.192928,1.644791 0.52522,1.3125 0.332291,-0.332292 0.367818,-1.194792 0.07895,-1.916667 z m 10.823634,3.198419 C 81.163118,60.454913 81.358524,60 81.940983,60 82.523442,60 83,59.084167 83,57.964816 83,56.287247 82.671672,56.105349 81.131483,56.929632 79.281131,57.919911 78,57.46263 78,55.811895 78,55.34177 79.125,54.444538 80.5,53.818046 82.952719,52.700512 83,52.464515 83,41.339485 V 30 h 6.5 6.5 v 14.005561 14.005562 l 17.07193,-8.547136 17.07193,-8.547136 -0.26377,-4.969797 c -0.24327,-4.58345 0.0394,-5.280227 3.63552,-8.963036 l 3.89929,-3.99324 4.21171,4.133483 c 2.31644,2.273415 3.98755,4.717657 3.71356,5.431648 -0.34805,0.907013 0.2036,1.154428 1.83084,0.821127 L 149.5,32.899998 147.25,34.571971 C 144.03491,36.961098 144.38025,39 148,39 c 1.73354,0 2.99984,-0.527692 2.99961,-1.25 -7e-4,-2.257219 6.38142,-13.75 7.63558,-13.75 2.24584,0 1.895,-4.288792 -0.81197,-9.925831 C 154.61804,7.39966 153.20239,2.3890129 154.80094,3.3769772 156.60328,4.4908799 162.18752,13.249435 163.48665,17 c 1.15366,3.330574 1.49798,3.534646 7.11285,4.215723 14.82385,1.798112 16.37523,3.176839 4.79565,4.261935 -4.78981,0.448841 -7.98132,0.336175 -8.62186,-0.304368 -1.2803,-1.280295 -3.76801,-0.403617 -3.29018,1.159469 0.19625,0.641982 0.63615,8.3097 0.97756,17.039371 0.34141,8.729672 0.71493,16.379672 0.83004,17 0.27927,1.504978 -82.856887,2.138828 -83.783962,0.638789 z M 121.99114,55.25 129.5,51.5 122.81386,51.205766 c -6.11793,-0.26923 -7.35018,0.04521 -14.5,3.70001 l -7.81386,3.994245 6.99114,0.04999 c 6.13164,0.04384 7.9143,-0.411044 14.5,-3.700011 z M 143.5,55.027504 l 8,-3.854139 -7.5,-0.03719 C 137.1933,51.102418 135.8067,51.459588 129,55 l -7.5,3.901021 7,-0.0097 c 6.06098,-0.0084 8.07317,-0.526707 15,-3.863828 z M 161,55 c 0,-3.496145 -0.28342,-3.993766 -2.25,-3.95051 C 157.5125,51.07671 153.125,52.854439 149,55 l -7.5,3.901021 9.75,0.04949 L 161,59 Z m -17,-10.273904 7.5,-3.65426 -7.77496,-0.03592 c -6.93875,-0.03205 -8.52515,0.341868 -14.75,3.476654 C 125.13877,46.444486 122,48.143673 122,48.288543 c 0,0.144869 3.2625,0.224792 7.25,0.177605 6.20946,-0.07348 8.32642,-0.610263 14.75,-3.740052 z m 15.34949,3.007619 c 1.46727,-1.072898 1.68736,-2.684885 1.44113,-10.55515 L 160.5,27.8897 l -3.86083,5.177633 c -2.79524,3.748596 -3.51889,5.388973 -2.62189,5.943347 1.82796,1.12974 0.41286,2.729145 -4.83805,5.468183 -8.34416,4.352574 -8.33264,4.48927 0.37964,4.505824 4.94711,0.0094 8.72755,-0.473636 9.79062,-1.250972 z M 138.5,37 c 0.33992,-0.55 -0.0835,-1 -0.94098,-1 C 136.70156,36 136,36.45 136,37 c 0,0.55 0.42344,1 0.94098,1 0.51754,0 1.2191,-0.45 1.55902,-1 z M 93,34 c 0,-0.55 -1.575,-1 -3.5,-1 -1.925,0 -3.5,0.45 -3.5,1 0,0.55 1.575,1 3.5,1 1.925,0 3.5,-0.45 3.5,-1 z m 71,-11.440983 c 0,-1.055475 -1.91911,-1.498911 -2.48992,-0.575329 C 161.16462,22.54266 161.58352,23 162.44098,23 163.29844,23 164,22.801558 164,22.559017 Z M 49.666667,59.333333 C 49.3,58.966667 49,57.583671 49,56.260009 c 0,-3.492519 3.400758,-2.602734 3.816422,0.998542 0.302745,2.622951 -1.44821,3.776327 -3.149755,2.074782 z M 52,57.5 C 52,56.675 51.564123,56 51.031385,56 c -0.532739,0 -0.709594,0.675 -0.393011,1.5 0.316582,0.825 0.752459,1.5 0.968615,1.5 C 51.823145,59 52,58.325 52,57.5 Z M 73.453534,57.333192 C 73.47909,55.866447 74.0625,54.478947 74.75,54.249858 75.569789,53.976688 76,54.89452 76,56.916667 76,58.775604 75.485172,60 74.703534,60 c -0.749471,0 -1.276861,-1.125159 -1.25,-2.666808 z M 21.209558,16.79803 21.5,8.5960605 25.706541,8.3169404 c 3.390034,-0.2249417 4.506133,0.1486072 5.75,1.9244756 C 34.684942,14.850605 32.10526,21 26.943296,21 24.666667,21 24,21.453007 24,23 c 0,1.134448 -0.666667,2 -1.540442,2 -1.285655,0 -1.492404,-1.356597 -1.25,-8.20197 z M 28.8,17.8 C 30.493247,16.106753 30.292998,11.326412 28.5,10.638374 25.77055,9.5909855 24,11.086883 24,14.440322 24,18.999095 26.118263,20.481737 28.8,17.8 Z M 5.4545455,18.545455 C -1.8808473,11.210062 8.1033063,-0.59543803 16.139216,5.9116469 c 3.384746,2.7408009 3.384746,10.4359051 0,13.1767061 -3.286608,2.661334 -7.7049378,2.436834 -10.6846705,-0.542898 z M 14.171259,17.345012 C 17.782343,14.077027 15.454607,6 10.901716,6 8.7515617,6 6,9.6487527 6,12.5 c 0,2.753785 2.7249181,6.5 4.727963,6.5 0.888006,0 2.437489,-0.744744 3.443296,-1.654988 z m 22.483729,1.826247 C 32.921378,15.045667 35.742955,8 41.128741,8 44.219982,8 46,9.7174378 46,12.7 c 0,2.056866 -0.472379,2.3 -4.468615,2.3 -3.509545,0 -4.348212,0.313765 -3.907619,1.461933 0.793834,2.068697 3.939656,2.842084 6.338461,1.558282 C 45.570452,17.159519 46,17.230686 46,18.357827 c 0,3.019489 -6.811953,3.612432 -9.345012,0.813432 z M 43,11.5 c -1.549221,-1.8666969 -2.12759,-1.8707317 -4.55887,-0.0318 -1.815556,1.373217 -1.690618,1.470254 1.931315,1.5 C 43.702878,12.995549 44.070647,12.790051 43,11.5 Z m 6,3.126823 V 8.2536463 l 4.484516,-0.090014 C 58.815026,8.0566369 60,9.5608193 60,16.434259 60,19.826029 59.614311,21 58.5,21 57.369056,21 57,19.784335 57,16.059017 57,10.859743 56.211324,9.5979409 53.590242,10.603744 52.436398,11.046516 52,12.556729 52,16.106989 52,19.789665 51.62896,21 50.5,21 49.323574,21 49,19.625203 49,14.626823 Z m 18,5.941396 C 67,20.33074 65.649088,16.472568 63.997974,11.994505 61.4524,5.0905363 61.24895,3.9017914 62.659909,4.1762856 c 1.033038,0.2009717 2.500397,2.7383637 3.869925,6.6919684 2.415148,6.972137 2.441078,6.968936 4.913477,-0.606492 1.630216,-4.994978 3.089118,-7.0626665 4.199654,-5.9521307 0.280446,0.2804463 -0.697659,4.1505073 -2.173567,8.6001357 C 71.371107,19.235782 70.373135,21 68.892965,21 67.851834,21 67,20.805699 67,20.568219 Z m 11,-0.68524 c 0,-0.614361 1.8,-2.863861 4,-4.998889 4.067874,-3.947737 5.148169,-7.5062657 2.578141,-8.4924782 -0.782023,-0.3000902 -2.39721,-0.023627 -3.589305,0.6143627 -1.880871,1.0066117 -2.121452,0.9176298 -1.81959,-0.6729966 0.415874,-2.1913937 4.796702,-2.9567532 7.781301,-1.3594445 3.270698,1.7504248 2.604527,5.8736946 -1.653495,10.2343036 L 81.594104,19 h 4.202948 C 88.108674,19 90,19.45 90,20 c 0,0.555556 -2.666667,1 -6,1 -3.75238,0 -6,-0.41844 -6,-1.117021 z M 94.860784,19.088353 C 92.988776,17.572493 92.5,16.208443 92.5,12.5 92.5,8.791557 92.988776,7.4275072 94.860784,5.9116469 98.586786,2.8945134 107,3.6765214 107,7.0399866 c 0,1.6852563 -0.20784,1.7030398 -3.09143,0.2645137 -5.733877,-2.8604326 -10.779811,2.293157 -8.069495,8.2416537 1.115514,2.448286 5.199015,4.166375 7.104085,2.988972 C 104.8525,17.35509 104.15475,14 102,14 c -1.1,0 -2,-0.45 -2,-1 0,-0.55 1.575,-1 3.5,-1 3.39915,0 3.5,0.1119 3.5,3.883369 0,3.18187 -0.40644,3.992291 -2.25,4.486345 -4.09213,1.096648 -7.497388,0.655424 -9.889216,-1.281361 z"
         id="path4449" />
      <path
         style="fill:#64c7f2"
         d="M 59.032479,60.060688 C 58.342281,58.771041 58.330495,57.913777 58.997296,57.501671 59.548783,57.160833 60,57.835081 60,59 c 0,1.247498 0.439032,1.846698 1.068174,1.457866 0.587495,-0.363092 0.785835,-1.402149 0.440754,-2.309017 C 61.056866,56.960838 61.18672,56.802627 61.973537,57.582783 63.137034,58.736429 62.364704,62 60.928195,62 60.45639,62 59.603318,61.12731 59.032479,60.060688 Z M 64.5,59.5 c 0,-1.375 0.28504,-2.5 0.633423,-2.5 0.348382,0 0.84848,1.125 1.111328,2.5 0.277882,1.453647 0.01277,2.5 -0.633423,2.5 C 65.000098,62 64.5,60.875 64.5,59.5 Z m 25.39621,1.79542 c -7.403315,-0.364416 -7.591724,-0.437406 -7.146127,-2.768396 0.38068,-1.991398 0.122755,-2.306531 -1.533351,-1.87345 -2.98082,0.779502 -3.524463,-1.192332 -0.685375,-2.485907 C 82.938854,53.070737 83,52.769888 83,42.021439 V 31 H 89.5 96 V 44.455174 57.910348 L 113.00329,49.705174 130.00657,41.5 129.82008,36.229784 c -0.17283,-4.884114 0.0985,-5.562118 3.70416,-9.254611 l 3.89066,-3.984395 4.06995,3.994357 c 3.64925,3.581468 4.03043,4.40889 3.68752,8.004611 -0.34638,3.632077 -0.16035,4.019654 1.97259,4.109934 L 149.5,39.19936 147,40 c -1.375,0.440352 -4.53973,0.845496 -7.03272,0.90032 -3.19856,0.07034 -6.58349,1.203461 -11.5,3.84968 L 121.5,48.5 l 6.52236,0.290501 c 5.50646,0.245253 7.56682,-0.183079 13.22804,-2.75 8.27858,-3.753686 10.78309,-3.886293 4.7496,-0.251479 L 141.5,48.5 147.66777,49 c 5.53181,0.448445 8.40963,1.380231 7.2489,2.34706 -0.22917,0.190883 -3.25251,1.924555 -6.71853,3.852605 l -6.30187,3.505545 9.17343,0.692502 c 5.04538,0.380876 9.35547,0.510456 9.57797,0.287955 0.2225,-0.222501 0.2803,-7.521427 0.12844,-16.219837 L 160.5,27.650541 l -4.43335,5.874671 c -2.43835,3.23107 -4.60101,5.371712 -4.80592,4.756982 C 150.7216,36.664786 156.807,25.011293 158.5375,24.347235 159.34188,24.038568 160,22.934167 160,21.893011 160,20.540466 160.71376,20 162.5,20 c 1.375,0 2.5,0.407871 2.5,0.90638 0,0.49851 0.87251,0.678215 1.93891,0.399345 C 169.56163,20.619868 183,22.949775 183,24.090351 183,24.590658 181.03125,25 178.625,25 c -2.40625,0 -5.70759,0.266518 -7.33631,0.592262 -1.92467,0.384935 -3.46614,0.08743 -4.40345,-0.849879 -1.14595,-1.145953 -1.68068,-1.186786 -2.60358,-0.198818 -0.63879,0.683828 -1.02531,1.403774 -0.85894,1.599879 0.16637,0.196106 0.59864,8.256171 0.9606,17.911257 l 0.65811,17.5547 -33.77071,0.03015 C 112.69682,61.656136 94.078294,61.501276 89.89621,61.29542 Z M 123,55 130.5,51.098979 H 123 c -6.7699,0 -8.2301,0.379751 -15,3.901021 l -7.5,3.901021 h 7.5 c 6.7699,0 8.2301,-0.379751 15,-3.901021 z m 20.64621,0.25 7.85379,-3.75 -7.5747,-0.288909 c -7.14694,-0.272593 -8.02068,-0.06083 -15.47236,3.75 L 120.55527,59 h 7.61857 c 6.74079,0 8.52346,-0.432062 15.47237,-3.75 z M 138.5,37 c 0.33992,-0.55 -0.0835,-1 -0.94098,-1 C 136.70156,36 136,36.45 136,37 c 0,0.55 0.42344,1 0.94098,1 0.51754,0 1.2191,-0.45 1.55902,-1 z M 94,34.5 C 94,33.388889 92.833333,33 89.5,33 86.166667,33 85,33.388889 85,34.5 c 0,1.111111 1.166667,1.5 4.5,1.5 3.333333,0 4.5,-0.388889 4.5,-1.5 z m 69.74986,-13.083469 c -0.95295,-0.952958 -2.86349,0.590599 -2.1533,1.7397 0.42212,0.683003 0.98146,0.665748 1.69964,-0.05243 0.58876,-0.588756 0.79291,-1.348027 0.45366,-1.687268 z M 12.408043,58.5 C 11.442071,57.025741 9.8207341,56 8.4564186,56 6.0943792,56 3,53.653777 3,51.86283 3,49.491146 5.2516402,47 7.3953047,47 8.6788365,47 11.382541,45.432251 13.431323,43.5 16.967792,40.16468 17.48271,40 24.375035,40 31.328074,40 31.738804,40.1353 35,43.5 c 1.865783,1.925 4.349124,3.5 5.518535,3.5 1.389093,0 3.065029,1.433941 4.834269,4.13623 2.692698,4.112755 2.885863,6.136661 0.387824,4.063473 -0.832151,-0.690623 -1.840992,-0.748013 -2.774166,-0.157813 -0.806554,0.510116 -2.349558,0.934375 -3.428897,0.942797 -1.07934,0.0084 -2.913963,1.208642 -4.076942,2.667156 -1.677572,2.103877 -2.653083,2.516669 -4.720914,1.997676 C 29.306184,60.289727 27.847983,59.096398 27.499262,57.997676 27.055352,56.599038 25.985829,56 23.932612,56 22.319676,56 21,56.417857 21,56.928571 21,58.532183 17.940026,61 15.951624,61 14.903589,61 13.308978,59.875 12.408043,58.5 Z M 55,58.5 c 0,-1.375 0.3375,-2.5 0.75,-2.5 0.4125,0 0.75,1.125 0.75,2.5 0,1.375 -0.3375,2.5 -0.75,2.5 C 55.3375,61 55,59.875 55,58.5 Z m 13.168791,0.349179 c 0.183999,-1.293707 1.145112,-2.483945 2.162418,-2.677927 1.417724,-0.270335 1.756423,0.176649 1.5,1.979569 -0.183999,1.293707 -1.145112,2.483945 -2.162418,2.677927 -1.417724,0.270335 -1.756423,-0.176649 -1.5,-1.979569 z M 71,58.5 C 71,57.675 70.55,57 70,57 c -0.55,0 -1,0.675 -1,1.5 0,0.825 0.45,1.5 1,1.5 0.55,0 1,-0.675 1,-1.5 z M 50.010569,58.51273 C 48.552225,56.755538 49.453195,53.65379 51.250526,54.243961 52.71656,54.725347 53.576426,60 52.188867,60 51.669679,60 50.689445,59.330731 50.010569,58.512735 Z m 1.577828,-3.257671 c -1.092399,-1.092399 -1.841474,0.644857 -1.057177,2.451808 0.743676,1.713366 0.797586,1.711803 1.211936,-0.03514 0.238501,-1.005548 0.16886,-2.093048 -0.154759,-2.416667 z M 74.070285,57.25 C 74.132567,54.813156 74.238438,54.72775 75,56.5 c 1.173714,2.73138 1.173714,3.5 0,3.5 -0.55,0 -0.968372,-1.2375 -0.929715,-2.75 z M 22,16.657648 V 8.3152962 l 4.236919,0.092352 c 3.573034,0.077881 4.43973,0.5156311 5.531258,2.7937208 2.425789,5.062781 -1.084998,10.733561 -5.87041,9.482148 C 24.422348,20.297686 24,20.722779 24,22.59362 24,23.917129 23.55,25 23,25 22.413247,25 22,21.552549 22,16.657648 Z m 6.418213,1.735363 C 29.422927,18.007466 30,16.569704 30,14.452028 30,10.681101 28.88624,9.5839431 25.991051,10.50284 24.538404,10.963892 24,12.017927 24,14.400721 c 0,4.430144 0.976882,5.312853 4.418213,3.99229 z M 6.0254361,19.025436 C 3.2929272,16.292927 2.543323,12.516729 4.0238703,8.9423719 6.1376624,3.8392264 11.776515,2.3789456 16.039322,5.8307575 c 3.33487,2.7004139 3.39431,10.5887515 0.09989,13.2570995 -3.049554,2.47002 -7.6094824,2.441877 -10.1137799,-0.06242 z M 14.171259,17.345012 C 17.652402,14.194622 15.487271,6 11.173753,6 6.6558277,6 4.303543,13.467955 7.6549876,17.171259 c 2.053585,2.269186 4.1393884,2.324803 6.5162714,0.173753 z m 22.483729,1.826247 C 33.064939,15.204301 35.710512,8 40.757312,8 43.384116,8 46,10.530433 46,13.071429 46,14.690476 45.277778,15 41.5,15 c -4.721681,0 -5.557314,0.877618 -2.919833,3.066533 1.216332,1.009465 2.252464,1.057659 4.5,0.209309 C 45.378834,17.408192 46,17.451598 46,18.479875 c 0,2.913149 -6.874089,3.421724 -9.345012,0.691384 z M 43,11.5 C 42.315311,10.675 41.190311,10 40.5,10 c -0.690311,0 -1.815311,0.675 -2.5,1.5 -1.068877,1.287918 -0.715408,1.5 2.5,1.5 3.215408,0 3.568877,-0.212082 2.5,-1.5 z m 6,3.152847 V 8.3056931 l 4.470465,0.1509519 c 2.458756,0.083024 4.784276,0.4647631 5.167823,0.8483101 0.383547,0.3835469 0.902562,3.1718379 1.153365,6.1962019 C 60.166979,20.027089 59.969602,21 58.67609,21 57.485276,21 57.031288,19.728042 56.80226,15.75 56.544183,11.26742 56.20765,10.5 54.5,10.5 c -1.70765,0 -2.044183,0.76742 -2.30226,5.25 C 51.98031,19.526586 51.489172,21 50.44774,21 49.336148,21 49,19.526265 49,14.652847 Z M 64.629131,13.75 C 61.8052,5.9912548 61.457806,4 62.928151,4 63.802679,4 68,13.961911 68,16.037513 68,16.566881 68.405117,17 68.900259,17 c 0.495143,0 1.431234,-2.213349 2.080202,-4.918553 0.648969,-2.7052042 1.78206,-5.7419967 2.51798,-6.7484278 C 76.193035,1.6479418 76.125606,5.0666908 73.348615,12.92935 69.668716,23.348469 68.173869,23.489159 64.629131,13.75 Z M 78,20.361831 c 0,-0.350993 1.8,-2.590939 4,-4.977657 4.088599,-4.435606 5.115873,-8.0187429 2.578141,-8.9925622 -0.782023,-0.3000902 -2.357023,-0.045134 -3.5,0.5665686 C 79.42485,7.8429946 79,7.7783907 79,6.6421726 79,3.811346 84.91683,3.0596871 87.428571,5.5714286 89.87887,8.0217268 89.307917,10.653411 85.383638,14.997119 L 81.767275,19 h 4.116363 C 88.147637,19 90,19.45 90,20 c 0,0.555556 -2.666667,1 -6,1 -3.3,0 -6,-0.287176 -6,-0.638169 z M 95.301689,19.498758 C 90.547992,16.169139 91.636568,7.2216063 97.069121,4.9713691 100.76588,3.4401203 107,4.4953272 107,6.6523019 c 0,1.1008663 -0.51638,1.344624 -1.75,0.8260908 C 98.997529,4.8502651 95,6.8601608 95,12.631935 c 0,5.644619 8.05864,8.9412 8.81955,3.607849 C 104.06225,14.538639 103.6414,14 102.06955,14 100.9313,14 100,13.55 100,13 c 0,-0.55 1.575,-1 3.5,-1 3.39915,0 3.5,0.1119 3.5,3.883369 0,3.18187 -0.40644,3.992291 -2.25,4.486345 -3.79289,1.016454 -7.202368,0.702164 -9.448311,-0.870956 z m 63.768591,-2.36743 C 157.15638,13.555159 153.80802,3.8586452 154.31274,3.3539299 155.16766,2.4990068 163,14.752683 163,16.945131 c 0,2.569695 -2.58847,2.692342 -3.92972,0.186197 z"
         id="path4447" />
      <path
         style="fill:#9bd8a2"
         d="M 96.580617,60.349488 C 95.675652,57.991188 95.94177,57.821322 114.36107,49 l 15.66032,-7.5 -0.1939,-5.270216 c -0.17985,-4.888311 0.088,-5.558946 3.69675,-9.254611 l 3.89066,-3.984395 4.06995,3.994357 c 3.64925,3.581468 4.03043,4.40889 3.68752,8.004611 -0.34638,3.632077 -0.16035,4.019654 1.97259,4.109934 L 149.5,39.19936 147,40 c -1.375,0.440352 -4.53973,0.845496 -7.03272,0.90032 -3.19856,0.07034 -6.58349,1.203461 -11.5,3.84968 L 121.5,48.5 l 6.52236,0.290501 c 5.50646,0.245253 7.56682,-0.183079 13.22804,-2.75 8.27858,-3.753686 10.78309,-3.886293 4.7496,-0.251479 L 141.5,48.5 147.66777,49 c 5.53181,0.448445 8.40963,1.380231 7.2489,2.34706 -0.22917,0.190883 -3.25251,1.924555 -6.71853,3.852605 l -6.30187,3.505545 9.17343,0.692502 c 5.04538,0.380876 9.35547,0.510456 9.57797,0.287955 0.2225,-0.222501 0.2803,-7.521427 0.12844,-16.219837 L 160.5,27.650541 l -4.43335,5.874671 c -2.43835,3.23107 -4.60101,5.371712 -4.80592,4.756982 C 150.7216,36.664786 156.807,25.011293 158.5375,24.347235 159.34188,24.038568 160,22.934167 160,21.893011 160,20.540466 160.71376,20 162.5,20 c 1.375,0 2.5,0.407871 2.5,0.90638 0,0.49851 0.87251,0.678215 1.93891,0.399345 C 169.56163,20.619868 183,22.949775 183,24.090351 183,24.590658 181.03125,25 178.625,25 c -2.40625,0 -5.70759,0.266518 -7.33631,0.592262 -1.92467,0.384935 -3.46614,0.08743 -4.40345,-0.849879 -1.14595,-1.145953 -1.68068,-1.186786 -2.60358,-0.198818 -0.63879,0.683828 -1.02531,1.403774 -0.85894,1.599879 0.16637,0.196106 0.59864,8.256171 0.9606,17.911257 l 0.65811,17.5547 -33.88567,0.268406 C 99.330291,62.129894 97.228166,62.036974 96.580617,60.349488 Z M 123,55 130.5,51.098979 H 123 c -6.7699,0 -8.2301,0.379751 -15,3.901021 l -7.5,3.901021 h 7.5 c 6.7699,0 8.2301,-0.379751 15,-3.901021 z m 20.64621,0.25 7.85379,-3.75 -7.5747,-0.288909 c -7.14694,-0.272593 -8.02068,-0.06083 -15.47236,3.75 L 120.55527,59 h 7.61857 c 6.74079,0 8.52346,-0.432062 15.47237,-3.75 z M 138.5,37 c 0.33992,-0.55 -0.0835,-1 -0.94098,-1 C 136.70156,36 136,36.45 136,37 c 0,0.55 0.42344,1 0.94098,1 0.51754,0 1.2191,-0.45 1.55902,-1 z m 25.24986,-15.583469 c -0.95295,-0.952958 -2.86349,0.590599 -2.1533,1.7397 0.42212,0.683003 0.98146,0.665748 1.69964,-0.05243 0.58876,-0.588756 0.79291,-1.348027 0.45366,-1.687268 z M 65.157895,59 c 0,-1.375 0.226973,-1.9375 0.504386,-1.25 0.277412,0.6875 0.277412,1.8125 0,2.5 -0.277413,0.6875 -0.504386,0.125 -0.504386,-1.25 z m 2.921052,-0.583333 c 0.04798,-1.164943 0.284941,-1.4019 0.604167,-0.604167 0.288871,0.721875 0.253344,1.584375 -0.07895,1.916667 -0.332292,0.332291 -0.568641,-0.258334 -0.52522,-1.3125 z m 18.937705,-1.00565 c -1.915841,-0.830885 -4.503341,-1.254698 -5.75,-0.941806 C 79.928342,56.805105 79,56.582392 79,55.925432 c 0,-0.611969 0.9,-1.348027 2,-1.635683 1.25987,-0.329463 2,-1.364016 2,-2.795596 0,-3.116011 3.654369,-7.454694 4.809635,-5.710283 0.467645,0.706128 1.601787,0.995483 2.520315,0.643011 1.907218,-0.731868 2.222382,0.620787 0.537267,2.305902 -1.408442,1.408442 -0.355611,4.467045 1.398953,4.064127 1.568982,-0.360301 1.780666,0.949703 0.63878,3.95309 -0.998732,2.626864 -1.282123,2.658677 -5.888298,0.661017 z M 43.751787,54.094985 C 40.85209,52.412083 40.154593,50.984961 42.25,51.022236 c 1.803405,0.03208 6.187964,3.600198 5.136032,4.17966 -0.487318,0.268441 -2.122728,-0.229669 -3.634245,-1.106911 z M 22,16.657648 V 8.3152962 l 4.236919,0.092352 c 3.573034,0.077881 4.43973,0.5156311 5.531258,2.7937208 2.425789,5.062781 -1.084998,10.733561 -5.87041,9.482148 C 24.422348,20.297686 24,20.722779 24,22.59362 24,23.917129 23.55,25 23,25 22.413247,25 22,21.552549 22,16.657648 Z m 6.418213,1.735363 C 29.422927,18.007466 30,16.569704 30,14.452028 30,10.681101 28.88624,9.5839431 25.991051,10.50284 24.538404,10.963892 24,12.017927 24,14.400721 c 0,4.430144 0.976882,5.312853 4.418213,3.99229 z M 6.0254361,19.025436 C 3.2929272,16.292927 2.543323,12.516729 4.0238703,8.9423719 6.1376624,3.8392264 11.776515,2.3789456 16.039322,5.8307575 c 3.33487,2.7004139 3.39431,10.5887515 0.09989,13.2570995 -3.049554,2.47002 -7.6094824,2.441877 -10.1137799,-0.06242 z M 14.171259,17.345012 C 17.652402,14.194622 15.487271,6 11.173753,6 6.6558277,6 4.303543,13.467955 7.6549876,17.171259 c 2.053585,2.269186 4.1393884,2.324803 6.5162714,0.173753 z m 22.483729,1.826247 C 33.064939,15.204301 35.710512,8 40.757312,8 43.384116,8 46,10.530433 46,13.071429 46,14.690476 45.277778,15 41.5,15 c -4.721681,0 -5.557314,0.877618 -2.919833,3.066533 1.216332,1.009465 2.252464,1.057659 4.5,0.209309 C 45.378834,17.408192 46,17.451598 46,18.479875 c 0,2.913149 -6.874089,3.421724 -9.345012,0.691384 z M 43,11.5 C 42.315311,10.675 41.190311,10 40.5,10 c -0.690311,0 -1.815311,0.675 -2.5,1.5 -1.068877,1.287918 -0.715408,1.5 2.5,1.5 3.215408,0 3.568877,-0.212082 2.5,-1.5 z m 6,3.152847 V 8.3056931 l 4.470465,0.1509519 c 2.458756,0.083024 4.784276,0.4647631 5.167823,0.8483101 0.383547,0.3835469 0.902562,3.1718379 1.153365,6.1962019 C 60.166979,20.027089 59.969602,21 58.67609,21 57.485276,21 57.031288,19.728042 56.80226,15.75 56.544183,11.26742 56.20765,10.5 54.5,10.5 c -1.70765,0 -2.044183,0.76742 -2.30226,5.25 C 51.98031,19.526586 51.489172,21 50.44774,21 49.336148,21 49,19.526265 49,14.652847 Z M 64.629131,13.75 C 61.8052,5.9912548 61.457806,4 62.928151,4 63.802679,4 68,13.961911 68,16.037513 68,16.566881 68.405117,17 68.900259,17 c 0.495143,0 1.431234,-2.213349 2.080202,-4.918553 0.648969,-2.7052042 1.78206,-5.7419967 2.51798,-6.7484278 C 76.193035,1.6479418 76.125606,5.0666908 73.348615,12.92935 69.668716,23.348469 68.173869,23.489159 64.629131,13.75 Z M 78,20.361831 c 0,-0.350993 1.8,-2.590939 4,-4.977657 4.088599,-4.435606 5.115873,-8.0187429 2.578141,-8.9925622 -0.782023,-0.3000902 -2.357023,-0.045134 -3.5,0.5665686 C 79.42485,7.8429946 79,7.7783907 79,6.6421726 79,3.811346 84.91683,3.0596871 87.428571,5.5714286 89.87887,8.0217268 89.307917,10.653411 85.383638,14.997119 L 81.767275,19 h 4.116363 C 88.147637,19 90,19.45 90,20 c 0,0.555556 -2.666667,1 -6,1 -3.3,0 -6,-0.287176 -6,-0.638169 z M 95.301689,19.498758 C 90.547992,16.169139 91.636568,7.2216063 97.069121,4.9713691 100.76588,3.4401203 107,4.4953272 107,6.6523019 c 0,1.1008663 -0.51638,1.344624 -1.75,0.8260908 C 98.997529,4.8502651 95,6.8601608 95,12.631935 c 0,5.644619 8.05864,8.9412 8.81955,3.607849 C 104.06225,14.538639 103.6414,14 102.06955,14 100.9313,14 100,13.55 100,13 c 0,-0.55 1.575,-1 3.5,-1 3.39915,0 3.5,0.1119 3.5,3.883369 0,3.18187 -0.40644,3.992291 -2.25,4.486345 -3.79289,1.016454 -7.202368,0.702164 -9.448311,-0.870956 z m 63.768591,-2.36743 C 157.15638,13.555159 153.80802,3.8586452 154.31274,3.3539299 155.16766,2.4990068 163,14.752683 163,16.945131 c 0,2.569695 -2.58847,2.692342 -3.92972,0.186197 z"
         id="path4445" />
      <path
         style="fill:#68c572"
         d="M 97.2,60.8 C 96.54,60.14 96,59.341922 96,59.026493 c 0,-0.315428 7.6764,-4.387928 17.05866,-9.05 L 130.11732,41.5 129.87413,36.201198 c -0.225,-4.902351 0.0283,-5.570349 3.3862,-8.92819 l 3.62938,-3.629387 4.5328,4.178189 C 143.91555,30.119815 145.55154,32 145.05803,32 c -0.4935,0 -0.76076,2.025 -0.5939,4.5 0.29416,4.363159 0.21569,4.5 -2.58037,4.5 C 139.47442,41 139,40.588717 139,38.5 c 0,-1.833333 -0.53333,-2.5 -2,-2.5 -1.17029,0 -2,0.666667 -2,1.606989 0,1.017592 0.55016,1.395874 1.5,1.031385 0.825,-0.316583 1.5,-0.240013 1.5,0.170154 0,0.410167 -3.9375,2.758543 -8.75,5.218615 L 120.5,48.5 l 7.71938,0.291513 c 5.74856,0.217087 8.55696,-0.141502 11,-1.404529 2.97342,-1.537221 3.15302,-1.542216 1.918,-0.05335 -1.15017,1.386569 -1.15017,1.710147 0,2.075301 0.74944,0.237933 2.03762,0.657731 2.86262,0.932886 0.825,0.275154 -0.75,0.558077 -3.5,0.628717 C 136.8049,51.06546 133.54266,52.117065 128,55 l -7.5,3.901021 8,0.03972 c 6.49935,0.03227 9.01207,-0.431402 13.39534,-2.47184 2.96743,-1.381359 5.61064,-2.29625 5.8738,-2.033092 0.26316,0.263159 -1.15224,1.256103 -3.14533,2.206543 -1.9931,0.95044 -3.62381,2.094727 -3.62381,2.54286 0,0.448134 2.5875,0.884461 5.75,0.969617 11.87692,0.319807 -10.72227,1.643847 -29.8,1.745921 C 103.73877,61.971435 98.054635,61.654635 97.2,60.8 Z M 122.76211,55.25 130.5,51.5 123.08948,51.202951 c -6.91908,-0.277351 -7.94699,-0.03192 -15.5,3.700841 L 99.5,58.901684 l 7.76211,0.04916 c 6.98002,0.0442 8.54175,-0.328678 15.5,-3.700842 z M 161.18453,44.58465 C 161.35804,34.911683 161.275,27.011131 161,27.027867 c -0.275,0.01674 -2.4662,2.738613 -4.86933,6.048615 -2.40314,3.310002 -4.54654,5.840979 -4.76313,5.624392 -0.52828,-0.528284 2.04838,-6.596607 4.73295,-11.146611 1.5348,-2.601292 2.4843,-3.369475 3.23585,-2.617925 C 159.92135,25.521352 161.21,26 162.2,26 c 1.65139,0 1.81376,1.320988 1.96667,16 0.0917,8.8 0.20416,16.781337 0.25,17.736305 0.0458,0.954968 -0.73363,1.893637 -1.73214,2.085932 -1.70788,0.328908 -1.79677,-0.69255 -1.5,-17.237587 z M 65.157895,59 c 0,-1.375 0.226973,-1.9375 0.504386,-1.25 0.277412,0.6875 0.277412,1.8125 0,2.5 -0.277413,0.6875 -0.504386,0.125 -0.504386,-1.25 z m 2.921052,-0.583333 c 0.04798,-1.164943 0.284941,-1.4019 0.604167,-0.604167 0.288871,0.721875 0.253344,1.584375 -0.07895,1.916667 -0.332292,0.332291 -0.568641,-0.258334 -0.52522,-1.3125 z m 18.937705,-1.00565 c -1.915841,-0.830885 -4.503341,-1.254698 -5.75,-0.941806 C 79.928342,56.805105 79,56.582392 79,55.925432 c 0,-0.611969 0.9,-1.348027 2,-1.635683 1.25987,-0.329463 2,-1.364016 2,-2.795596 0,-3.116011 3.654369,-7.454694 4.809635,-5.710283 0.467645,0.706128 1.601787,0.995483 2.520315,0.643011 1.907218,-0.731868 2.222382,0.620787 0.537267,2.305902 -1.408442,1.408442 -0.355611,4.467045 1.398953,4.064127 1.568982,-0.360301 1.780666,0.949703 0.63878,3.95309 -0.998732,2.626864 -1.282123,2.658677 -5.888298,0.661017 z M 43.751787,54.094985 C 40.85209,52.412083 40.154593,50.984961 42.25,51.022236 c 1.803405,0.03208 6.187964,3.600198 5.136032,4.17966 -0.487318,0.268441 -2.122728,-0.229669 -3.634245,-1.106911 z M 22,16.5 C 22,11.5 22.411765,8 23,8 23.55,8 24,8.4658327 24,9.0351838 24,9.7370342 24.644008,9.7257049 26,9 c 3.378288,-1.8080047 6,0.3609183 6,4.963755 0,4.641235 -2.309661,7.401366 -5.657834,6.761322 C 24.420794,20.357784 24,20.701581 24,22.638672 24,23.937402 23.55,25 23,25 22.411765,25 22,21.5 22,16.5 Z m 7.882981,0.287295 c 0.890247,-2.406566 0.399093,-5.49493 -1.012636,-6.367426 -0.488533,-0.30193 -1.784215,-0.264593 -2.879294,0.08297 C 24.447638,10.9927 24,12.018925 24,15.067388 24,18.608853 24.251861,19 26.532224,19 c 1.700082,0 2.801212,-0.727142 3.350757,-2.212705 z M 160.66667,24.333333 C 160.3,23.966667 160,22.841667 160,21.833333 160,20.544444 160.74242,20 162.5,20 c 2,0 2.5,0.5 2.5,2.5 0,1.757576 -0.54444,2.5 -1.83333,2.5 -1.00834,0 -2.13334,-0.3 -2.5,-0.666667 z M 164,21.940983 C 164,21.423442 163.325,21 162.5,21 c -1.54641,0 -1.9867,1.179963 -0.86052,2.306147 C 162.43841,24.105078 164,23.201961 164,21.940983 Z M 166,23.5 c 0,-1.635238 6.142,-2.033032 13.25,-0.858152 C 185.83659,23.730544 183.27953,25 174.5,25 167.61111,25 166,24.715686 166,23.5 Z M 6.6348587,18.92742 C 4.5090252,17.255239 4,16.013533 4,12.5 4,8.9864666 4.5090252,7.744761 6.6348587,6.0725801 c 3.3239343,-2.6146071 5.4063483,-2.6146071 8.7302823,0 2.10174,1.6532291 2.631761,2.9178095 2.619546,6.2499999 -0.01739,4.743044 -0.582912,5.903354 -3.668946,7.527716 -3.097507,1.630401 -4.6760349,1.440737 -7.6808823,-0.922876 z M 14.428571,17.428571 C 17.884291,13.972852 15.492435,6 11,6 8.1444911,6 6,8.7878384 6,12.5 c 0,3.712162 2.1444911,6.5 5,6.5 1.021429,0 2.564286,-0.707143 3.428571,-1.571429 z M 37,19 C 35.9,17.9 35,15.875 35,14.5 35,11.854464 38.129525,8 40.277494,8 42.541823,8 46,11.055825 46,13.056704 46,14.693203 45.289564,15 41.5,15 39.025,15 37,15.3949 37,15.877555 c 0,1.918693 3.103279,3.351789 6.002481,2.771949 3.118359,-0.623672 4.179377,0.682997 1.415732,1.743507 C 41.539512,21.497672 39.025604,21.025604 37,19 Z m 6.755005,-7.25 C 43.138171,9.8769959 39.504364,9.6873517 38.04005,11.451743 36.919396,12.802048 37.228911,13 40.460889,13 c 2.517508,0 3.573777,-0.400817 3.294116,-1.25 z M 49,15.059017 C 49,11.791476 49.45,8.8399187 50,8.5 50.55,8.1600813 51,8.3488762 51,8.9195442 51,9.6125658 51.82036,9.5833413 53.470386,8.8315392 57.326385,7.0746284 59,9.1478529 59,15.681462 59,19.051199 58.619828,20.883075 58,20.5 57.45,20.160081 57,17.869401 57,15.409598 57,12.339917 56.525555,10.755169 55.487265,10.35674 52.868799,9.3519399 51,11.961401 51,16.622445 51,19.0301 50.55,21 50,21 49.445548,21 49,18.353006 49,15.059017 Z M 64.732531,13.276658 C 61.703392,4.7171743 61.564993,4 62.942332,4 c 0.518283,0 1.957205,3.1510779 3.197605,7.002395 1.2404,3.851318 2.561036,6.663818 2.934747,6.25 C 69.448395,16.838578 70.491119,14.25 71.391848,11.5 73.244527,5.8436216 74.63528,3.3019462 75.438274,4.1049403 c 0.944994,0.9449942 -5.15595,16.3810557 -6.589325,16.6717177 -0.889931,0.180462 -2.321247,-2.427357 -4.116418,-7.5 z M 79,19.696167 c 0,-0.717108 1.535619,-2.792214 3.412486,-4.611345 1.876867,-1.819131 3.630412,-4.140861 3.896765,-5.1593992 C 86.968812,7.4032595 84.566324,5.6410457 81.512986,6.4073847 80.083849,6.7660752 79,6.6068048 79,6.0381041 79,4.1337457 83.928657,3.7232341 86.507285,5.4128165 90.02589,7.7182946 89.609574,10.62572 85.117647,15.117647 L 81.235294,19 h 3.882353 C 87.252941,19 89,19.45 89,20 c 0,0.55 -2.25,1 -5,1 -3.443436,0 -5,-0.4059 -5,-1.303833 z M 95.355764,18.629592 C 90.265934,14.251505 92.366392,5.9569846 98.929968,4.5153816 102.05131,3.8298193 107,5.4038614 107,7.082238 107,7.7785302 106.32667,7.9260168 105.25,7.4655595 98.966815,4.7784455 95,6.6944678 95,12.416441 c 0,4.126043 2.828725,6.847315 6.66157,6.408515 2.02593,-0.231938 2.92719,-0.948343 3.14852,-2.502736 0.24477,-1.719092 -0.28178,-2.266743 -2.5,-2.600167 -2.333907,-0.350813 -2.17463,-0.447779 0.93991,-0.572221 3.53984,-0.141435 3.75,0.01968 3.75,2.874919 0,2.326739 -0.59194,3.249806 -2.5651,4 -3.96278,1.506645 -6.084657,1.180584 -9.079136,-1.395159 z M 159.2336,16.75 c -2.77753,-5.658874 -5.21125,-12.1056834 -4.74573,-12.5712044 0.62733,-0.6273279 0.42466,-0.8693209 4.86417,5.807856 C 163.12261,15.657711 163.98177,19 161.66898,19 160.93692,19 159.841,17.9875 159.2336,16.75 Z"
         id="path4443" />
      <path
         style="fill:#4bba59"
         d="m 65.157895,59 c 0,-1.375 0.226973,-1.9375 0.504386,-1.25 0.277412,0.6875 0.277412,1.8125 0,2.5 -0.277413,0.6875 -0.504386,0.125 -0.504386,-1.25 z m 31.508772,1.333333 C 96.3,59.966667 96,59.367125 96,59.001019 c 0,-0.366106 7.88474,-4.453606 17.52164,-9.083333 L 131.04329,41.5 130.83874,36.236317 c -0.18489,-4.757919 0.12068,-5.599231 3.1802,-8.755855 l 3.38474,-3.492172 3.54816,3.463836 c 3.28022,3.20226 3.52199,3.844591 3.20165,8.505855 C 143.83525,40.588505 143.6013,41 141.28691,41 c -2.14884,0 -2.44967,-0.368265 -2.04216,-2.5 0.40542,-2.120834 0.10333,-2.5 -1.99183,-2.5 -2.04606,0 -2.38201,0.385978 -1.95835,2.25 0.44731,1.968097 -0.4733,2.746197 -7.34788,6.210383 -4.32259,2.17821 -7.75406,4.06558 -7.62549,4.194155 0.12858,0.128574 4.18411,0.342646 9.01229,0.475714 4.82818,0.133069 9.00486,0.608199 9.28152,1.055845 C 138.89168,50.633744 138.17028,51 137.01191,51 c -1.15836,0 -5.57242,1.9125 -9.80901,4.25 l -7.7029,4.25 7.25645,0.29394 c 5.60343,0.22698 8.30905,-0.171673 11.87712,-1.75 5.66059,-2.503946 6.57512,-2.584455 3.33894,-0.29394 L 139.5,59.5 143,60.118359 c 1.925,0.340097 -7.5625,0.677597 -21.08333,0.75 C 108.39583,60.940761 97.033333,60.7 96.666667,60.333333 Z M 123,55.5 l 8.5,-4.399554 -8.2722,-0.05022 c -7.71055,-0.04681 -8.81385,0.222114 -16.25,3.960938 -4.38779,2.206138 -7.9778,4.231138 -7.9778,4.5 0,0.268861 3.4875,0.466239 7.75,0.438616 7.15692,-0.04638 8.40048,-0.38691 16.25,-4.44978 z m 38.00599,-3.75 c 0.007,-11.40969 1.09069,-25.986651 1.87307,-25.20427 0.319,0.318993 0.8142,8.202446 1.10047,17.518784 0.48131,15.664225 0.38879,16.938671 -1.22953,16.937141 -1.54085,-0.0015 -1.74928,-1.107142 -1.74401,-9.251655 z m -92.927043,6.666667 c 0.04798,-1.164943 0.284941,-1.4019 0.604167,-0.604167 0.288871,0.721875 0.253344,1.584375 -0.07895,1.916667 -0.332292,0.332291 -0.568641,-0.258334 -0.52522,-1.3125 z m 18.937705,-1.00565 c -1.915841,-0.830885 -4.503341,-1.254698 -5.75,-0.941806 C 79.928342,56.805105 79,56.582392 79,55.925432 c 0,-0.611969 0.9,-1.348027 2,-1.635683 1.25987,-0.329463 2,-1.364016 2,-2.795596 0,-3.116011 3.654369,-7.454694 4.809635,-5.710283 0.467645,0.706128 1.601787,0.995483 2.520315,0.643011 1.907218,-0.731868 2.222382,0.620787 0.537267,2.305902 -1.408442,1.408442 -0.355611,4.467045 1.398953,4.064127 1.568982,-0.360301 1.780666,0.949703 0.63878,3.95309 -0.998732,2.626864 -1.282123,2.658677 -5.888298,0.661017 z M 43.751787,54.094985 C 40.85209,52.412083 40.154593,50.984961 42.25,51.022236 c 1.803405,0.03208 6.187964,3.600198 5.136032,4.17966 -0.487318,0.268441 -2.122728,-0.229669 -3.634245,-1.106911 z M 151,38.675036 c 0,-0.39873 1.59856,-3.899278 3.55235,-7.778996 2.94818,-5.854288 3.7967,-6.851245 4.98899,-5.861729 C 161.17871,26.393207 160.99348,26.83139 156.17409,33 151.5134,38.965477 151,39.528586 151,38.675036 Z M 22,17.163934 V 9.3278674 l 4.190811,-0.1642125 c 4.718816,-0.1849017 5.771395,0.825787 5.793876,5.5632921 0.01718,3.619927 -3.504744,6.778191 -6.343782,5.68875 C 24.378293,19.931187 24,20.387036 24,22.393011 24,23.826855 23.55,25 23,25 22.41841,25 22,21.721311 22,17.163934 Z m 8.067697,-0.290427 c 1.660772,-3.103181 -0.334986,-7.1169185 -3.32737,-6.69179 -1.859257,0.264144 -2.292631,1.04119 -2.547825,4.568283 -0.286368,3.957967 -0.13418,4.25 2.214816,4.25 1.548871,0 2.961531,-0.820683 3.660379,-2.126493 z M 160.70124,24.367903 C 160.31556,23.982223 160,22.841667 160,21.833333 160,20.531212 160.74453,20 162.56955,20 c 2.08969,0 2.50988,0.418274 2.25,2.239784 -0.31628,2.216853 -2.76448,3.481951 -4.11831,2.128119 z M 164,22.5 c 0,-0.825 -0.675,-1.5 -1.5,-1.5 -1.56157,0 -1.98397,1.1827 -0.83333,2.333333 C 162.8173,24.483967 164,24.061574 164,22.5 Z m 2,1 c 0,-1.6645 4.31022,-1.967479 12.33739,-0.867234 C 185.41767,23.603227 182.8236,25 173.94098,25 167.549,25 166,24.707404 166,23.5 Z M 6.6348587,18.92742 C 4.5090252,17.255239 4,16.013533 4,12.5 4,5.0286727 10.804309,1.8253144 16.25,6.7328985 18.943832,9.1605439 18.564125,15.526784 15.545455,18.545455 12.546823,21.544086 10.095023,21.649186 6.6348587,18.92742 Z M 14.977555,17.527044 C 16.864031,15.25398 16.507264,8.8440888 14.40887,7.309706 11.802286,5.403725 8.2274357,5.7065155 7.0351838,7.9342585 c -1.325414,2.4765585 -1.325414,6.6549245 0,9.1314825 1.2463426,2.328813 6.1558232,2.613962 7.9423712,0.461303 z m 23.302362,2.452861 C 35.555871,18.883796 34.365028,14.689027 35.851645,11.426258 37.956617,6.8063494 46,8.7941404 46,13.934259 46,14.530693 44.018392,15 41.5,15 39.025,15 37,15.3949 37,15.877555 c 0,1.750586 3.046314,3.346746 5.494254,2.878793 2.758424,-0.527307 3.435897,0.672742 0.923959,1.636663 -1.938597,0.743909 -2.343856,0.711328 -5.138296,-0.413106 z M 43.755005,11.75 C 43.138171,9.8769959 39.504364,9.6873517 38.04005,11.451743 36.919396,12.802048 37.228911,13 40.460889,13 c 2.517508,0 3.573777,-0.400817 3.294116,-1.25 z M 49.75,20.425372 C 49.3375,20.008084 49,17.314984 49,14.440705 V 9.2147438 L 53.75,9.3573719 58.5,9.5 l 0.137935,6 0.137935,6 -0.659911,-5.188643 c -0.782326,-6.151145 -1.237786,-6.7485805 -4.517337,-5.925466 -2.193849,0.550622 -2.530925,1.239116 -2.79657,5.712136 C 50.635923,18.895355 50.1625,20.842661 49.75,20.425372 Z m 17.150664,-2.09409 c -2.719898,-6.92741 -4.870453,-13.6948261 -4.47699,-14.0882895 0.621451,-0.621451 3.154328,4.5783051 4.61505,9.4742605 0.692026,2.31949 1.606353,4.002102 2.031837,3.739138 0.425484,-0.262964 1.74643,-3.401448 2.935435,-6.97441 1.189006,-3.5729617 2.540165,-6.2624687 3.002577,-5.9766823 1.070309,0.6614872 -4.395789,15.7904403 -5.884369,16.2866333 -0.611544,0.203848 -1.612137,-0.903444 -2.22354,-2.46065 z M 79,19.861831 c 0,-0.625993 1.8,-3.090939 4,-5.477657 4.259304,-4.6207999 4.463838,-5.1032791 3.085905,-7.2794175 -0.602902,-0.9521494 -1.868338,-1.1982699 -3.984687,-0.775 C 78.356796,7.0786409 77.911465,5.4900209 81.605889,4.5627795 84.308958,3.8843524 89,6.1111577 89,8.0727129 89,10.191696 85.958265,14.865295 83.277998,16.864518 L 80.5,18.93664 84.75,18.96832 C 87.0875,18.985744 89,19.45 89,20 c 0,0.55 -2.25,1 -5,1 -3.07132,0 -5,-0.439033 -5,-1.138169 z m 19,0.428734 C 94.524708,19.012722 93,16.637054 93,12.5 93,7.9227727 94.767416,5.5880203 99.039033,4.5224523 101.801,3.8334719 107,5.3785722 107,6.888385 107,7.442032 105.84319,7.3896249 104.17636,6.7604653 98.139292,4.481728 93.109302,8.602996 94.613394,14.595776 c 1.193194,4.754064 9.563796,6.171327 10.196696,1.726444 0.24477,-1.719092 -0.28178,-2.266743 -2.5,-2.600167 -2.333907,-0.350813 -2.17463,-0.447779 0.93991,-0.572221 3.53984,-0.141435 3.75,0.01968 3.75,2.874919 0,3.899038 -4.36751,5.969149 -9,4.265814 z M 158.68953,15.25 c -0.8402,-2.0625 -2.2451,-5.4375 -3.122,-7.5 C 154.69063,5.6875 154.3167,4.0039359 154.73658,4.0087463 155.91418,4.0222379 163,15.445095 163,17.32998 c 0,3.05575 -2.76109,1.72341 -4.31047,-2.07998 z"
         id="path4441" />
      <path
         style="fill:#04679a"
         d="m 65.157895,59 c 0,-1.375 0.226973,-1.9375 0.504386,-1.25 0.277412,0.6875 0.277412,1.8125 0,2.5 -0.277413,0.6875 -0.504386,0.125 -0.504386,-1.25 z m 31.871065,1.03906 c -0.809071,-0.511673 -1.259071,-1.098666 -1,-1.304429 0.259072,-0.205763 7.22104,-3.674503 15.47104,-7.708311 8.25,-4.033808 15.40703,-7.559453 15.90451,-7.834766 0.49748,-0.275314 0.61724,-0.03576 0.26613,0.53234 -0.3511,0.568101 -2.33313,1.86026 -4.40451,2.871466 l -3.76613,1.838556 6,1.174046 6,1.174046 -8.35227,0.108996 c -7.44582,0.09717 -9.2094,0.514068 -16.25,3.841403 C 102.55398,56.785231 99,58.810231 99,59.232407 99,59.654583 102.38996,60 106.53324,60 c 5.95493,0 8.52147,-0.499902 12.25,-2.386006 C 124.89932,54.520128 131,51.984649 131,52.536631 c 0,0.239018 -2.8125,1.903556 -6.25,3.698974 L 118.5,59.5 l 10,0.556334 c 7.79008,0.433388 5.58016,0.595748 -10,0.734687 -11,0.09809 -20.661968,-0.240288 -21.47104,-0.751961 z m 64.31907,-9.694623 c 0.35859,-5.860559 0.71813,-13.848059 0.79899,-17.75 L 162.29404,25.5 l 0.74445,6 c 0.40944,3.3 0.79328,11.2875 0.85298,17.75 0.0951,10.301977 -0.095,11.75 -1.54344,11.75 -1.47339,0 -1.58149,-1.151858 -1,-10.655563 z m -93.269083,8.07223 c 0.04798,-1.164943 0.284941,-1.4019 0.604167,-0.604167 0.288871,0.721875 0.253344,1.584375 -0.07895,1.916667 -0.332292,0.332291 -0.568641,-0.258334 -0.52522,-1.3125 z m 18.937705,-1.00565 c -1.915841,-0.830885 -4.503341,-1.254698 -5.75,-0.941806 C 79.928342,56.805105 79,56.582392 79,55.925432 c 0,-0.611969 0.9,-1.348027 2,-1.635683 1.25987,-0.329463 2,-1.364016 2,-2.795596 0,-3.116011 3.654369,-7.454694 4.809635,-5.710283 0.467645,0.706128 1.601787,0.995483 2.520315,0.643011 1.907218,-0.731868 2.222382,0.620787 0.537267,2.305902 -1.408442,1.408442 -0.355611,4.467045 1.398953,4.064127 1.568982,-0.360301 1.780666,0.949703 0.63878,3.95309 -0.998732,2.626864 -1.282123,2.658677 -5.888298,0.661017 z M 43.751787,54.094985 C 40.85209,52.412083 40.154593,50.984961 42.25,51.022236 c 1.803405,0.03208 6.187964,3.600198 5.136032,4.17966 -0.487318,0.268441 -2.122728,-0.229669 -3.634245,-1.106911 z M 130.84651,35.957981 c -0.32029,-4.660449 -0.0783,-5.303896 3.19816,-8.502444 l 3.54466,-3.460425 3.45534,3.752444 c 3.07815,3.342827 3.42206,4.270954 3.15054,8.502444 -0.25245,3.934276 -0.63885,4.75 -2.25,4.75 C 140.53699,41 140,40.309861 140,38.5 c 0,-2 -0.5,-2.5 -2.5,-2.5 -2,0 -2.5,0.5 -2.5,2.5 0,1.79108 -0.53977,2.5 -1.90349,2.5 -1.57381,0 -1.9635,-0.873244 -2.25,-5.042019 z m 23.62817,-4.721659 c 3.02663,-5.804577 4.05917,-7.038153 5.14021,-6.14097 1.10793,0.919502 0.78262,1.916645 -1.79734,5.509181 -5.87484,8.180559 -7.43245,8.474942 -3.34287,0.631789 z m 5.93368,-7.614528 C 159.59899,21.512605 160.73506,20 163.12857,20 c 1.51073,0 1.93109,0.556796 1.69098,2.239784 -0.37294,2.613974 -3.55579,3.61115 -4.41119,1.38201 z M 164,22.5 c 0,-0.825 -0.675,-1.5 -1.5,-1.5 -0.825,0 -1.5,0.675 -1.5,1.5 0,0.825 0.675,1.5 1.5,1.5 0.825,0 1.5,-0.675 1.5,-1.5 z m 2.45888,1.433469 c -1.17031,-1.893606 0.24678,-2.131764 8.21674,-1.380914 5.40052,0.508781 7.20481,0.980274 5.82438,1.522004 -3.00861,1.180684 -13.28806,1.077392 -14.04112,-0.14109 z M 22,16.66203 V 9.3240597 L 25.676245,9.1858555 C 30.078543,9.0203562 32,10.388378 32,13.688186 32,17.766983 30.218634,20 26.964816,20 24.666667,20 24,20.449719 24,22 c 0,1.1 -0.45,2 -1,2 -0.575815,0 -1,-3.112657 -1,-7.33797 z m 7.954319,0.893012 C 32.584105,14.386343 29.313236,8.8983506 25.635923,10.309468 24.495703,10.747011 24,12.158785 24,14.968615 24,18.546728 24.267323,19 26.377555,19 c 1.307656,0 2.917199,-0.650231 3.576764,-1.444958 z m 28.225929,-1.246025 c -0.197602,-5.690769 -1.079864,-6.8020118 -4.682511,-5.897805 -2.022661,0.507656 -2.445938,1.326376 -2.762916,5.344143 L 50.360496,20.5 50.181713,15 50.00293,9.5 54.022973,9.2242601 C 58.758088,8.8994724 59.278378,9.715994 58.74006,16.62706 L 58.360496,21.5 Z M 5.556704,17.777494 c -1.9934969,-2.846116 -1.9934969,-7.708872 0,-10.5549878 C 6.7113075,5.5740787 8.117324,5 11,5 c 4.540341,0 7,2.6353485 7,7.5 0,4.864651 -2.459659,7.5 -7,7.5 -2.882676,0 -4.2886925,-0.574079 -5.443296,-2.222506 z m 9.886592,-1 c 1.978734,-2.825039 1.978734,-5.729949 0,-8.5549878 -1.84954,-2.6405887 -6.5626568,-2.9885379 -8.5208513,-0.6290578 -1.7038774,2.0530466 -1.7038774,7.7600566 0,9.8131036 1.9581945,2.35948 6.6713113,2.011531 8.5208513,-0.629058 z M 37.2,18.8 C 36.54,18.14 36,16.205 36,14.5 36,10.650126 37.567545,9 41.224751,9 c 2.112052,0 3.070811,0.6471877 3.8,2.5651 C 45.561138,12.975904 46,14.325904 46,14.5651 46,14.804295 43.942004,15 41.426676,15 c -3.820901,0 -4.516308,0.287918 -4.22677,1.75 0.255795,1.291688 1.322739,1.75 4.07398,1.75 2.050084,0 3.72713,0.3375 3.72677,0.75 -0.0011,1.226114 -6.499415,0.851241 -7.800656,-0.45 z m 6.609629,-6.55 C 43.340317,9.8130581 37.659683,9.8130581 37.190371,12.25 36.919147,13.658351 37.56528,14 40.5,14 c 2.93472,0 3.580853,-0.341649 3.309629,-1.75 z m 23.759323,6.861566 C 65.851393,16.332498 62.14282,5 62.950925,5 c 0.513557,0 1.940694,3.1264942 3.171417,6.947765 1.230723,3.82127 2.525573,6.769835 2.877446,6.552366 0.351873,-0.217469 1.488294,-3.006463 2.525381,-6.197765 C 73.380581,6.5929332 75,3.5058177 75,5.6782595 75,6.2713022 73.928847,9.6058534 72.619659,13.088373 70.282967,19.304118 68.789034,21.0857 67.568952,19.111566 Z M 79,19.5 c 0,-0.275 1.827672,-2.327672 4.061493,-4.561493 C 88.359381,9.6406194 88.243206,6.5 82.749344,6.5 c -2.06286,0 -3.75036,-0.3375 -3.75,-0.75 C 78.999705,5.3375 80.784167,5 82.964816,5 c 6.811913,0 7.28047,4.6360394 1.061218,10.5 l -3.181767,3 4.327867,0.599806 L 89.5,19.699613 84.25,19.849806 C 81.3625,19.932413 79,19.775 79,19.5 Z M 94.591095,17.826594 C 92.373861,14.661048 92.571486,9.4285142 95,7 c 2.151906,-2.1519064 8.32757,-2.7190686 11,-1.0102211 1.00844,0.6448303 -0.17379,0.7635485 -3.60755,0.3622674 -4.576856,-0.5348673 -5.278206,-0.3532395 -6.75,1.7480401 -2.071773,2.9578716 -2.087319,5.8197616 -0.04743,8.7321076 2.202365,3.144317 8.74631,2.782167 9.21507,-0.509974 0.24477,-1.719092 -0.28178,-2.266743 -2.5,-2.600167 -2.2941,-0.344829 -2.10988,-0.449901 1.00327,-0.572221 3.72545,-0.146378 3.80613,-0.07491 3.5,3.100168 -0.30478,3.160982 -0.45466,3.258192 -5.47226,3.5491 -4.418575,0.256178 -5.387239,-0.02689 -6.750003,-1.972506 z M 160.31507,17.75 C 159.09987,15.858239 154.13318,4 154.55604,4 155.4389,4 163,16.039373 163,17.445131 c 0,1.867403 -1.56691,2.045324 -2.68493,0.304869 z"
         id="path4439" />
      <path
         style="fill:#07a11a"
         d="m 97.02896,60.03906 c -0.809071,-0.511673 -1.259071,-1.098666 -1,-1.304429 0.259072,-0.205763 7.22104,-3.674503 15.47104,-7.708311 8.25,-4.033808 15.40703,-7.559453 15.90451,-7.834766 0.49748,-0.275314 0.61724,-0.03576 0.26613,0.53234 -0.3511,0.568101 -2.33313,1.86026 -4.40451,2.871466 l -3.76613,1.838556 6,1.174046 6,1.174046 -8.35227,0.108996 c -7.44582,0.09717 -9.2094,0.514068 -16.25,3.841403 C 102.55398,56.785231 99,58.810231 99,59.232407 99,59.654583 102.38996,60 106.53324,60 c 5.95493,0 8.52147,-0.499902 12.25,-2.386006 C 124.89932,54.520128 131,51.984649 131,52.536631 c 0,0.239018 -2.8125,1.903556 -6.25,3.698974 L 118.5,59.5 l 10,0.556334 c 7.79008,0.433388 5.58016,0.595748 -10,0.734687 -11,0.09809 -20.661968,-0.240288 -21.47104,-0.751961 z m 64.31907,-9.694623 c 0.35859,-5.860559 0.71813,-13.848059 0.79899,-17.75 L 162.29404,25.5 l 0.74445,6 c 0.40944,3.3 0.79328,11.2875 0.85298,17.75 0.0951,10.301977 -0.095,11.75 -1.54344,11.75 -1.47339,0 -1.58149,-1.151858 -1,-10.655563 z M 130.84651,35.957981 c -0.32029,-4.660449 -0.0783,-5.303896 3.19816,-8.502444 l 3.54466,-3.460425 3.45534,3.752444 c 3.07815,3.342827 3.42206,4.270954 3.15054,8.502444 -0.25245,3.934276 -0.63885,4.75 -2.25,4.75 C 140.53699,41 140,40.309861 140,38.5 c 0,-2 -0.5,-2.5 -2.5,-2.5 -2,0 -2.5,0.5 -2.5,2.5 0,1.79108 -0.53977,2.5 -1.90349,2.5 -1.57381,0 -1.9635,-0.873244 -2.25,-5.042019 z m 23.62817,-4.721659 c 3.02663,-5.804577 4.05917,-7.038153 5.14021,-6.14097 1.10793,0.919502 0.78262,1.916645 -1.79734,5.509181 -5.87484,8.180559 -7.43245,8.474942 -3.34287,0.631789 z m 5.93368,-7.614528 C 159.59899,21.512605 160.73506,20 163.12857,20 c 1.51073,0 1.93109,0.556796 1.69098,2.239784 -0.37294,2.613974 -3.55579,3.61115 -4.41119,1.38201 z M 164,22.5 c 0,-0.825 -0.675,-1.5 -1.5,-1.5 -0.825,0 -1.5,0.675 -1.5,1.5 0,0.825 0.675,1.5 1.5,1.5 0.825,0 1.5,-0.675 1.5,-1.5 z m 2.45888,1.433469 c -1.17031,-1.893606 0.24678,-2.131764 8.21674,-1.380914 5.40052,0.508781 7.20481,0.980274 5.82438,1.522004 -3.00861,1.180684 -13.28806,1.077392 -14.04112,-0.14109 z M 22,16.66203 V 9.3240597 L 25.676245,9.1858555 C 30.078543,9.0203562 32,10.388378 32,13.688186 32,17.766983 30.218634,20 26.964816,20 24.666667,20 24,20.449719 24,22 c 0,1.1 -0.45,2 -1,2 -0.575815,0 -1,-3.112657 -1,-7.33797 z m 7.954319,0.893012 C 32.584105,14.386343 29.313236,8.8983506 25.635923,10.309468 24.495703,10.747011 24,12.158785 24,14.968615 24,18.546728 24.267323,19 26.377555,19 c 1.307656,0 2.917199,-0.650231 3.576764,-1.444958 z m 28.225929,-1.246025 c -0.197602,-5.690769 -1.079864,-6.8020118 -4.682511,-5.897805 -2.022661,0.507656 -2.445938,1.326376 -2.762916,5.344143 L 50.360496,20.5 50.181713,15 50.00293,9.5 54.022973,9.2242601 C 58.758088,8.8994724 59.278378,9.715994 58.74006,16.62706 L 58.360496,21.5 Z M 5.556704,17.777494 c -1.9934969,-2.846116 -1.9934969,-7.708872 0,-10.5549878 C 6.7113075,5.5740787 8.117324,5 11,5 c 4.540341,0 7,2.6353485 7,7.5 0,4.864651 -2.459659,7.5 -7,7.5 -2.882676,0 -4.2886925,-0.574079 -5.443296,-2.222506 z m 9.886592,-1 c 1.978734,-2.825039 1.978734,-5.729949 0,-8.5549878 -1.84954,-2.6405887 -6.5626568,-2.9885379 -8.5208513,-0.6290578 -1.7038774,2.0530466 -1.7038774,7.7600566 0,9.8131036 1.9581945,2.35948 6.6713113,2.011531 8.5208513,-0.629058 z M 37.2,18.8 C 36.54,18.14 36,16.205 36,14.5 36,10.650126 37.567545,9 41.224751,9 c 2.112052,0 3.070811,0.6471877 3.8,2.5651 C 45.561138,12.975904 46,14.325904 46,14.5651 46,14.804295 43.942004,15 41.426676,15 c -3.820901,0 -4.516308,0.287918 -4.22677,1.75 0.255795,1.291688 1.322739,1.75 4.07398,1.75 2.050084,0 3.72713,0.3375 3.72677,0.75 -0.0011,1.226114 -6.499415,0.851241 -7.800656,-0.45 z m 6.609629,-6.55 C 43.340317,9.8130581 37.659683,9.8130581 37.190371,12.25 36.919147,13.658351 37.56528,14 40.5,14 c 2.93472,0 3.580853,-0.341649 3.309629,-1.75 z m 23.759323,6.861566 C 65.851393,16.332498 62.14282,5 62.950925,5 c 0.513557,0 1.940694,3.1264942 3.171417,6.947765 1.230723,3.82127 2.525573,6.769835 2.877446,6.552366 0.351873,-0.217469 1.488294,-3.006463 2.525381,-6.197765 C 73.380581,6.5929332 75,3.5058177 75,5.6782595 75,6.2713022 73.928847,9.6058534 72.619659,13.088373 70.282967,19.304118 68.789034,21.0857 67.568952,19.111566 Z M 79,19.5 c 0,-0.275 1.827672,-2.327672 4.061493,-4.561493 C 88.359381,9.6406194 88.243206,6.5 82.749344,6.5 c -2.06286,0 -3.75036,-0.3375 -3.75,-0.75 C 78.999705,5.3375 80.784167,5 82.964816,5 c 6.811913,0 7.28047,4.6360394 1.061218,10.5 l -3.181767,3 4.327867,0.599806 L 89.5,19.699613 84.25,19.849806 C 81.3625,19.932413 79,19.775 79,19.5 Z M 94.591095,17.826594 C 92.373861,14.661048 92.571486,9.4285142 95,7 c 2.151906,-2.1519064 8.32757,-2.7190686 11,-1.0102211 1.00844,0.6448303 -0.17379,0.7635485 -3.60755,0.3622674 -4.576856,-0.5348673 -5.278206,-0.3532395 -6.75,1.7480401 -2.071773,2.9578716 -2.087319,5.8197616 -0.04743,8.7321076 2.202365,3.144317 8.74631,2.782167 9.21507,-0.509974 0.24477,-1.719092 -0.28178,-2.266743 -2.5,-2.600167 -2.2941,-0.344829 -2.10988,-0.449901 1.00327,-0.572221 3.72545,-0.146378 3.80613,-0.07491 3.5,3.100168 -0.30478,3.160982 -0.45466,3.258192 -5.47226,3.5491 -4.418575,0.256178 -5.387239,-0.02689 -6.750003,-1.972506 z M 160.31507,17.75 C 159.09987,15.858239 154.13318,4 154.55604,4 155.4389,4 163,16.039373 163,17.445131 c 0,1.867403 -1.56691,2.045324 -2.68493,0.304869 z"
         id="path4437" />
    </g>
  </g>
</svg>
