<svg xmlns="http://www.w3.org/2000/svg" role="img" viewBox="-0.88 3.74 72.02 42.90"><g stroke-width=".32"><path fill="#a1a1a1" d="M64.96 30.88v-.16h.32v.32h-.32zM.74667 30.18667L.96 29.97333l.21333.21334.21334.21333H.53333zm1.49333.08757v-.12577l.49662-.19057.49662-.19057-.1955.31633-.19551.31634H2.24zm1.70667-.08757l.21333-.21334.21333.21334.21334.21333h-.85334zm.96 0l.21333-.21334.21333.21334.21334.21333h-.85334zm1.39535.00004l.38203-.14806-.17221-.53933-.17221-.53932.31145.4362.31145.43622.14629-.27621.14629-.27621-.09751.4-.09751.4h.38936l.4251-.56.4251-.56.01017.36082.01018.36081-.4.30257-.4.30257-.8.024-.8.024.38202-.14806zM8.64 30.24v-.16h.32v.32h-.32zm.64 0v-.16h.32v.32h-.32zm1.08944-.20944l-.22833-.36945.36945.22833.36944.22833V30.4h-.28223zM11.84 30.24v-.16h.32v.32h-.32zm1.38667-.05333l.21333-.21333.21333.21333.21334.21333h-.85334zm.96 0l.21333-.21333.21333.21333.21334.21333h-.85334zm.96 0l.21333-.21333.21333.21333.21334.21333h-.85334zM17.6 30.24v-.16h.32v.32h-.32zm1.38667-.05333l.21333-.21333.21333.21333.21334.21333h-.85334zm.85333.08757v-.12577l.49662-.19057.49662-.19057-.1955.31634-.19551.31633h-.60222zm1.28-.03424v-.16h.32v.32h-.32zm.64 0v-.16h.32v.32h-.32zm.96 0v-.16h.32v.32h-.32zm1.12227-.15634l-.19551-.31633.49662.19057.49662.19057V30.4h-.60223zm1.43773-.02255v-.33888l.32.19777.32.19777V30.4h-.64zm1.92.19324v-.10588l.46975-.18026.46975-.18026.14808.2396.14808.2396-.61783.04653-.61783.04654zm1.6-.01435v-.16h.32v.32h-.32zm1.22-.0586l.42-.16807.19333.19333.19334.19333-.61334-.02526-.61333-.02526zM32 30.24v-.16h.32v.32H32zm.64 0v-.16h.32v.32h-.32zm.76944-.20944l-.22832-.36945.36944.22833.36944.22833V30.4h-.28223zM34.24 30.24v-.16h.32v.32h-.32zm1.22-.0586l.42-.16807.19333.19333.19334.19333-.61333-.02526-.61334-.02526.42-.16807zm1.19367-.0793l-.1841-.29788.37465-.23156.37467-.23155-.26194.42382-.26194.42383.54912-.21072.54911-.21071-.1955.31633-.1955.31634h-.56447zm1.533.08457l.21333-.21334.21334.21334.21333.21333H37.97334zm1.28 0l.21333-.21334.21334.21334.21333.21333H39.25334zM40.96 30.24v-.16h.32v.32h-.32zm.64 0v-.16h.32v.32h-.32zm.96 0v-.16h.32v.32h-.32zm1.28 0v-.16h.32v.32h-.32zm1.28.03424v-.12577l.49662-.19057.49662-.19057-.1955.31634-.1955.31633H45.12zm1.72944-.24368l-.22833-.36944.36945.22832.36944.22833V30.4h-.28223zm2.85723.1561l.21333-.21333.21334.21334.21333.21333H49.49334zM50.56 30.24v-.16h.32v.32h-.32zm.96 0v-.16h.32v.32h-.32zm2.02667-.05333l.21333-.21334.21334.21334.21333.21333H53.33334zm.96 0l.21333-.21334.21334.21334.21333.21333H54.29334zm1.28 0L56 29.97333l.21334.21334.21333.21333H55.57334zM57.28 30.24v-.16h.32v.32h-.32zm.64 0v-.16h.32v.32h-.32zm1.06667-.05333l.21333-.21334.21334.21334.21333.21333H58.77334zm1.75333-.0053l.42-.16807.19334.19333.19333.19333-.61333-.02526-.61334-.02526.42-.16807zm1.44667.0053l.21333-.21334.21334.21334.21333.21333H61.97334zm1.28 0l.21333-.21334.21334.21334.21333.21333H63.25334zm.96 0l.21333-.21334.21334.21334.21333.21333H64.21334zM65.92 30.24v-.16h.32v.32h-.32zm.64 0v-.16h.32v.32h-.32zM31.274 29.41435l.19818-.75785.13992.41975.13991.41975-.3381.3381-.3381.33809zM1.92 29.6v-.16h.32v.32h-.32zm7.36 0v-.16h.32v.32h-.32zm4.26667-.05333l.21333-.21333.21333.21333.21334.21333h-.85334zM15.68 29.44v-.42667l.21333.21333.21334.21334-.21334.21333-.21333.21334zm4.16.16v-.16h.32v.32h-.32zm9.30754-.55684l-.45036-.72316.5003.41335.50028.41336.11218-.33651.11217-.33652.45035.72316.45036.72316-.5003-.41336-.50028-.41335-.11217.33651-.11217.33652zm5.44 0l-.45036-.72316.5003.41335.50028.41336.11217-.33651.11218-.33652.45035.72316.45036.72316-.5003-.41336-.50028-.41335-.11217.33651-.11218.33652zM38.08 29.44v-.42667l.21333.21333.21334.21334-.21333.21333-.21334.21333zm.64.16v-.16h.32v.32h-.32zm1.28-.14112v-.30111l.26667-.16481.26667-.1648V29.76H40zm8.84821-.16863l-.18026-.46976.2396-.14808.2396-.14807.04654.61783.04654.61783h-.21175zm4.94891.08864l-.03712-.54112.32522-.201.32522-.201-.21652-.37788-.21653-.37789.2739.24926.2739.24926.06932.47227.06931.47226-.26769-.16544-.26769-.16544-.1471.56391-.1471.56392zm2.72716-.0989l.1842-.48H56.96v.96h-.61991zM.64 29.28v-.16h.32v.32H.64zm.64 0v-.16h.32v.32h-.32zm13.44-.16v-.32h.64v.64h-.64zm10.88.16v-.16h.32v.32h-.32zm7.52-.16l.19777-.32h.32l-.19777.32-.19777.32h-.32zm6.24.16v-.16h.32v.32h-.32zm2.91213-.38544l.42364-.70545.15307.15307.15307.15306-.57672.55239-.57671.55238zm2.4212.33211l-.21333-.21333V28.48h.53334v.96h-.10667zM55.04 29.28v-.16h.32v.32h-.32zm.64 0v-.16H56v.32h-.32zm2.83804-.26944l.35641-.42944-.23723-.26186-.23722-.26187.41554.2398.41554.2398-.37472.4515-.37472.45151h-.32zm5.64196.10944l-.19777-.32H64.64v.64h-.28223zm.90667.10667l.21333-.21333.21334.21333.21333.21333H64.85334zM5.6 28.79999l-.19777-.32H6.08v.64h-.28223zm4.64.16v-.16h.32v.32h-.32zm1.12-.16l.19777-.32h.32l-.19777.32-.19777.32h-.32zm1.12 0v-.42666l.21333.21333.21334.21333-.21334.21334-.21333.21334zm1.15296-.05333l.16481-.26666H14.4V29.01333H13.46815zM24 28.99918v-.12082l.56-.43918L25.12 28l-.43918.56-.43918.56H24zM43.36 28.8l.19777-.32h.32l-.19777.32-.19777.32h-.32zm9.6 0l-.19777-.32H53.44v.64h-.28223zm9.92 0l.19777-.32h.32L63.2 28.8l-.19777.32h-.32zM1.6 28.64v-.16h.32v.32H1.6zm.82057-.2538l.2185-.5738.17913.17913.17913.17913-.39762.39467-.39763.39467zm.9724.14713l-.16482-.26666h.9037l-.16481.26666-.16481.26667h-.24446zM4.48 28.64v-.16h.32v.32h-.32zm2.32632-.50217L6.75978 27.52h.21175l.18026.46975.18026.46975-.2396.14808-.2396.14808zM17.6 28.64v-.16h.32v.32h-.32zm1.92 0v-.16h.32v.32h-.32zm2.73884-.33018l-.62116-.46982h.68396l.39836.48.39836.48-.11918-.01018-.11918-.01018zM25.92 28.64v-.16h.32v.32h-.32zm.8-.16l.19777-.32H27.2v.64h-.67777zm5.92.16v-.16h.32v.32h-.32zm5.44 0v-.16h.32v.32h-.32zm1.28 0v-.16h.32v.32h-.32zm2.24 0v-.16h.32v.32h-.32zm4.16 0v-.16h.32v.32h-.32zm2.24 0v-.16h.32v.32H48zm3.36-.16l-.19777-.32H51.84v.64h-.28223zm4.32.16v-.16H56v.32h-.32zm2.02667-.05333l.21333-.21333.21334.21333.21333.21333H57.49334zm2.56-.2526v-.46592l.27189.16804.27188.16803-.1841.2979-.1841.29788h-.17557zm1.35217-.02424l-.62116-.46983h.68396l.39836.48.39837.48-.11919-.01018-.11918-.01018-.62116-.46982zM66.56 28.64v-.16h.32v.32h-.32zm-56-.32v-.16h.32v.32h-.32zm10.56 0v-.16h.32v.32h-.32zm6.4-.16v-.42667l.21333.21333.21334.21334-.21334.21333-.21333.21333zm19.52.16v-.16h.32v.32h-.32zm16.96 0v-.16h.32v.32H64zM4.8 28v-.16h.32v.32H4.8zm4.48 0v-.16h.32v.32h-.32zm2.56 0v-.16h.32v.32h-.32zm2.34667-.05333l.21333-.21334.21333.21334.21334.21333h-.85334zM26.24 28v-.16h.32v.32h-.32zm2.66667-.05333l.21333-.21334.21333.21334.21334.21333h-.85334zm1.75333-.0053l.42-.16807.19333.19333.19334.19333-.61334-.02526-.61333-.02526zm1.98.0586v-.16h.32v.32h-.32zm1.70667-.05333l.21333-.21333.21333.21333.21334.21333H34.13334zm1.6 0l.21333-.21333.21334.21333.21333.21333H35.73334zm2.45333.05333v-.16h.32v.32h-.32zm1.06667-.05333l.21333-.21333.21334.21333.21333.21333H39.25334zm2.13333.05333v-.16h.32v.32h-.32zm2.24 0v-.16h.32v.32h-.32zm1.92-.16v-.42667l.21334.21333.21333.21334-.21333.21333-.21334.21333zm4.8.16v-.16h.32v.32h-.32zm5.44 0v-.16h.32v.32H56zm1.92 0v-.16h.32v.32h-.32zm5.44 0v-.16h.32v.32h-.32zm-62.4-.32v-.16h.32v.32H.96zm.96 0v-.16h.32v.32h-.32zm4.16 0v-.16h.32v.32h-.32zm1.92 0v-.16h.32v.32H8zm8 0v-.16h.32v.32H16zm37.44 0v-.16h.32v.32h-.32zm11.2-.16v-.42667l.21334.21333.21333.21334-.21333.21333-.21334.21333zm.64 0v-.42667l.21334.21333.21333.21334-.21333.21333-.21334.21333zM15.36 27.36v-.16h.32v.32h-.32zm2.56 0v-.16h.32v.32h-.32zm5.76 0v-.16H24v.32h-.32zm2.88 0v-.16h.32v.32h-.32zm22.08 0v-.16h.32v.32h-.32zm14.4 0v-.16h.32v.32h-.32z" display="inline"/><path fill="#696969" d="M1.72408 25.04l.1672-.56.69804-3.84.69804-3.84.56552-1.12688.56552-1.12687 1.27667-1.6991 1.27667-1.69908.62749-.43951.62748-.4395-.43394 2.78547L7.35884 15.84l-.8143 4.32-.8143 4.32-.16669.56-.16668.56h-3.84zm11.3596-.32l-.34047-.88-1.87515-5.60073-1.87515-5.60074-.2139-1.33774-.21392-1.33774 1.23745-.19916L11.04 9.56472l.5202-.102.52021-.102 1.14722 3.71964L14.37483 16.8l.4495 1.76.44948 1.76.18286-.8.18286-.8.18615-1.92.18616-1.92.51253-2.61312.51253-2.61312 1.4483.43587 1.4483.43588.33386.33386.33386.33386-1.21353 6.48338L18.17417 24.16l-.16178.72-.16177.72h-4.42646zm7.17637 0l.17466-.88 1.04332-5.65024 1.04332-5.65024 2.89178 2.45024L28.30491 17.44l-1.31497.09657-1.31496.09657-.73064 3.98343L24.2137 25.6H20.08539zm10.34447.32l-.1586-.56-.21954-2.4-.21952-2.4-.2673-.50884-.26731-.50884 2.53109 1.62884 2.5311 1.62884.0177 1.12.0177 1.12.28278.4466.28278.4466.55301-1.0866.55301-1.0866.04272-.05675.04272-.05675 1.59658.5405 1.59658.5405.0964.31625.0964.31625-.14644.56-.14644.56h-8.6568l-.1586-.56zM48.32 24.96v-.64H52.41153l.19423.50617.19424.50617V25.6h-4.48zm4.92576.13383l.19424-.50617V24.32h4.10008l-.16736.64-.16736.64H53.05153zM47.94127 21.2l-.10126-.88-2.88-.09477-2.88-.09477-.70759.88446-.70759.88446-1.5324-.4084L37.6 21.08256l-.1939-.22129-.1939-.22128 3.80102-7.76 3.80102-7.76H50.211l.17514 1.04.17513 1.04.79937 6.84652.79936 6.84651V22.08h-4.11749zm-.36881-5.76l-.19023-1.84-.21425-2.66086-.21425-2.66086-.22696.26086-.22697.26086-.74346 1.92-.74346 1.92-1.06643 2.15201L42.88 16.94402V17.28H47.76267zM53.92 21.36l.1722-.72 1.41355-7.47299 1.41356-7.47299.20701-.207.20702-.20702H65.76l1.37581.78781 1.37581.78781.64705 1.04695.64705 1.04694v3.40329l-.54053 1.3509-.54053 1.35092-1.30835 1.1199-1.30835 1.1199-1.59206.47279-1.59206.47279h-4.28057l-.37774 1.92-.37774 1.92h-4.13998zm9.23655-6.76122l1.056-.44123.69372-.88193.69373-.88193V9.9909l-.5924-.73159-.5924-.73159-1.93738-.14013-1.93738-.14014-.36547 1.87627L59.80951 12l-.2634 1.34802-.26341 1.34801.17198.17198.17199.17199h2.47389zM31.68 17.64105l-2.08-1.5493-.77578-.84587-.77578-.84588h1.45484l1.10246-.52315 1.10245-.52315.4659-.90096.46591-.90096V9.89091l-.78545-.78546-.78546-.78545h-3.48062l-.16849.43909-.1685.43909-.22555 1.5609-.22555 1.56092-.20019.37342-.20019.37342-1.6878-1.49342L23.0244 10.08l.40933-2.22593.40933-2.22594.79847-.22217.79847-.22217 3.2-.0301 3.2-.03012 1.20875.33567 1.20875.33567 1.10679.97178 1.10679.97177.3368 1.25077.33679 1.25077-.34075 1.26545-.34075 1.26545-.83184.98858-.83184.98858-1.27332.6496-1.27332.6496.65226.69637.65226.69637.3334.88.3334.88-.23209-.0048-.23208-.0048zm-12.55832-9.6079L17.60336 7.52l-.00168-.69383L17.6 6.13234l.19424-.50617.19423-.50617h3.81466l-.15362.56-.15362.56-.20245 1.2-.20244 1.2-.2255-.04686-.2255-.04685zM5.25465 6.5775l.17661-.6575.00437-.4.00437-.4H10.51687l.21078.66412.21079.66411-.10922.10584-.10922.10584-2.82098.28754-2.82097.28754z" display="inline"/><path fill="#5d5d5d" d="M65.6 30.88v-.16h.32v.32h-.32zm-56.64-.64v-.16h.32v.32h-.32zm12.48 0v-.16h.32v.32h-.32zm7.04 0v-.16h.32v.32h-.32zm3.84 0v-.16h.32v.32h-.32zm1.6 0v-.16h.32v.32h-.32zm7.36 0v-.16h.32v.32h-.32zm16.32 0v-.16h.32v.32h-.32zm8.64 0v-.16h.32v.32h-.32zm-61.76-.48v-.42667l.21333.21333.21334.21334-.21334.21333-.21333.21333zm.64.16v-.16h.32v.32h-.32zm.66526-.34667l.02527-.61333.16807.42.16807.42-.19334.19333-.19333.19334zM7.04 29.92v-.16h.32v.32h-.32zm1.28 0v-.16h.32v.32h-.32zm2.56 0v-.16h.32v.32h-.32zm1.28 0v-.16h.32v.32h-.32zm.64 0v-.16h.32v.32h-.32zm5.12 0v-.16h.32v.32h-.32zm.96 0v-.16h.32v.32h-.32zm.96 0v-.16h.32v.32h-.32zm.78684-.1813l-.21093-.34128.15252-.15251.1525-.15251.1895.4938.18948.4938h-.26214zM22.08 29.92v-.16h.32v.32h-.32zm.96 0v-.16h.32v.32h-.32zm1.28 0v-.16h.32v.32h-.32zm1.6 0v-.16h.32v.32h-.32zm7.04 0v-.16h.32v.32h-.32zm3.36361-.6794l-.55-.8394.35148.21722.35147.21722.33298.62218.33298.62218h-.26891zm1.7564.6794v-.16h.32v.32h-.32zm1.28-.16v-.42667l.21333.21333.21333.21334-.21333.21333-.21334.21333zm2.56.16v-.16h.32v.32h-.32zm.96 0v-.16h.32v.32h-.32zm1.28 0v-.16h.32v.32h-.32zm.64-.16v-.42667l.21333.21333.21333.21334-.21333.21333-.21334.21333zm2.56 0v-.42667l.21333.21333.21333.21334-.21333.21333-.21334.21333zm2.88 0v-.42667l.21333.21333.21333.21334-.21333.21333-.21334.21333zm.64 0v-.42667l.21333.21333.21333.21334-.21333.21333-.21334.21333zm.96.16v-.16h.32v.32h-.32zm1.30526-.34667l.02525-.61333.16807.42.16807.42-.19333.19333-.19334.19334.02525-.61334zM58.24 29.92v-.16h.32v.32h-.32zm1.92 0v-.16h.32v.32h-.32zm1.28 0v-.16h.32v.32h-.32zm3.84-.16v-.42667l.21334.21333.21333.21334-.21333.21333-.21334.21333zm1.47297.05333l-.16481-.26667h.90369l-.16481.26667-.1648.26666H66.91776zM.64 29.6v-.16h.32v.32H.64zm2.00319-.33536l-.39682-.4308.28328-.17509.28329-.17508.20106.52397.20106.52396-.08753.08192-.08753.08192zM15.04 29.6v-.16h.32v.32h-.32zm13.43358-.32774l-.40478-.48773.13771-.13771.13772-.13771.3906.62544.3906.62545h-.24707zm2.12033-.4236L29.9878 28l.74832.7111.74831.71112-.14222.13755-.14222.13755zM32 29.6v-.16h.32v.32H32zm1.76-.48l-.5792-.64h.58524l.39969.64.39968.64h-.22623zm3.68.32v-.42667l.21332.21333.21334.21334-.21333.21333-.21334.21333zm3.52.16v-.16h.32v.32h-.32zm4.50526-.34667l.02525-.61333.16807.42.16807.42-.19333.19333-.19334.19334.02525-.61334zM49.6 29.44v-.42667l.21334.21333.21333.21334-.21333.21333-.21334.21333zm4.8 0v-.42667l.21334.21333.21333.21334-.21333.21333-.21334.21333zm1.28.16v-.16H56v.32h-.32zm1.6 0v-.16h.32v.32h-.32zm7.04 0v-.16h.32v.32h-.32zm1.6-.16v-.42667l.21334.21333.21333.21334-.21333.21333-.21334.21333zm-62.08-.16v-.16h.32v.32h-.32zm3.84 0v-.16H8v.32h-.32zm.96 0v-.16h.32v.32h-.32zm5.44 0v-.16h.32v.32h-.32zm3.52-.16v-.42667l.21333.21333.21334.21334-.21334.21333-.21333.21333zm4 0l.19777-.32h.32l-.19777.32-.19777.32h-.32zm1.12 0v-.42667l.21333.21333.21334.21334-.21334.21333-.21333.21333zm1.28.16v-.16h.32v.32H24zm8.44944-.20944l-.22832-.36945.36944.22833.36944.22833V29.44h-.28223zM38.72 29.28v-.16h.32v.32h-.32zm1.39043-.3338l-.1895-.4938.1589-.1589.15889-.15889.17068.6527.17068.65269h-.28016zm1.29901.12436l-.22832-.36945.36944.22833.36944.22833V29.44h-.28223zm2.45583-.13723l.02525-.61333.16807.42.16807.42-.19333.19333-.19334.19334.02525-.61334zM56.32 29.12v-.42667l.21334.21333.21333.21334-.21333.21333-.21334.21333zm1.40945-.04944l-.22833-.36945.36944.22833.36944.22833V29.44h-.28223zm1.01112-.17676l-.21849-.5738.39763.39467.39763.39466-.17914.17914-.17913.17913zM60.96 29.12l.19777-.32h.32l-.19777.32-.19777.32h-.32zm1.12 0v-.42667l.21334.21334.21333.21333-.21333.21333-.21334.21334zm1.30527-.18667l.02525-.61333.16807.42.16807.42-.19333.19333-.19334.19334.02525-.61334zM1.28 28.89251v-.33415l.56-.43918.56-.43918-.46945.64-.46945.64-.09055.13333-.09055.13333zM4.8 28.8v-.42666l.21333.21333.21334.21333-.21334.21334-.21333.21333zm1.6.16v-.16h.32v.32H6.4zm3.2 0v-.16h.32v.32H9.6zm.96-.16v-.42666l.21333.21333.21334.21333-.21334.21334-.21333.21334zm1.28 0v-.42666l.21333.21333.21334.21333-.21334.21334-.21333.21334zm.96.16v-.16h.32v.32h-.32zm2.88 0v-.16H16v.32h-.32zm3.52 0v-.16h.32v.32h-.32zm7.46667-.05333l.21333-.21333.21333.21333.21334.21334h-.85334zM27.52 28.8v-.42667l.21333.21333.21334.21334-.21334.21333-.21333.21333zm14.84944-.04944l-.22832-.36945.36944.22833.36944.22833V29.12h-.28223zM47.04 28.8v-.42667l.21334.21333.21333.21334-.21333.21333-.21334.21333zm4.48.16v-.16h.32v.32h-.32zm.74667-.26667v-.42667h.84318l-.35411.42667-.3541.42667h-.13498zm2.9539.01287l.2185-.5738.17913.17913.17914.17914-.39763.39466-.39762.39467zm4.4061-.01287v-.42667h.84317l-.3541.42667-.3541.42667h-.13498zM64.96 28.96v-.16h.32v.32h-.32zM8.5162 28.42144l.16803-.27188.2979.1841.29788.1841v.17557H8.34815zM14.72 28.64v-.16h.32v.32h-.32zm3.64944-.20944l-.22833-.36945.36945.22833.36944.22833V28.8h-.28223zm4.99056.03056v-.33889l.32.19777.32.19777V28.8h-.64zm14.4.01888v-.42667l.21334.21333.21333.21334-.21333.21333-.21334.21333zm1.12 0l-.19777-.32H39.36v.64h-.28223zm8.82526-.18667l.02525-.61333.16808.42.16807.42-.19334.19333-.19333.19333.02525-.61333zm1.77093.12811l.16803-.27188.2979.1841.29788.1841v.17557h-.93184zM50.56 28.64v-.16h.32v.32h-.32zm3.2 0v-.16h.32v.32h-.32zm10.24 0v-.16h.32v.32H64zm2.24-.16v-.42667l.21334.21333.21333.21334-.21333.21333-.21334.21333zm-60.77333-.09055L5.6 28.2989l.64-.46945.64-.46946-.43918.56-.43918.56h-.66831zM7.36 28.32v-.16h.32v.32h-.32zm2.56 0v-.16h.32v.32h-.32zm1.28 0v-.16h.32v.32h-.32zm8.96 0v-.16h.32v.32h-.32zm6.56-.16l.19777-.32h.32l-.19777.32-.19777.32h-.32zm2.72.16v-.16h.32v.32h-.32zm5.44 0v-.16h.32v.32h-.32zm2.24 0v-.16h.32v.32h-.32zm6.08 0v-.16h.32v.32h-.32zm1.6.03918v-.12082l.56-.43918.56-.43919-.43918.56-.43918.56H44.8zm1.28-.03918v-.16h.32v.32h-.32zm10.24 0v-.16h.32v.32h-.32zm10.88 0v-.16h.32v.32h-.32zM.96 28v-.16h.32v.32H.96zm2.12428-.32l-.1842-.48H3.52v.96H3.26847zm12.27572.16v-.42667l.21333.21333.21334.21334-.21334.21333-.21333.21334zm3.03136-.33398L18.20223 27.2H19.52v.25152l-.46975.18026-.46975.18027zM20.8 27.52v-.42666l.21333.21333.21334.21333-.21334.21333-.21333.21334zm28.16.16v-.16h.32v.32h-.32zm4.8 0v-.16h.32v.32h-.32zm-52.37333-.37334L1.6 27.09333l.21333.21333.21334.21334h-.85334zM8 27.36v-.16h.32v.32H8zm8 0v-.16h.32v.32H16zm7.04 0v-.16h.32v.32h-.32zm3.94667-.05333l.21333-.21333.21333.21333.21334.21334h-.85334zm20.61333.0014l.4-.1614.4.1614.4.1614h-1.6zm14.8.05193v-.16h.32v.32h-.32z"/><path fill="#0d0d0d" d="M65.41188 30.4l.17938-.8.0044-.72.0044-.72h.70939l-.2008.8-.20078.8h1.0468l-.15535-.81268-.15536-.81269.35805.11935.35805.11935v1.15692l-.63262.35487-.63263.35488-.43112.48-.43113.48zM.78332 29.68l.12323-.4.19282-.88.19282-.88h.61561l.2008.8.20078.8H2.88v-1.70667l.19841.19841.19841.19842-.2129 1.13492L2.851 30.08h-.627l-.19096-.9548-.19096-.95481-.28104.17369-.28104.17369V30.08H.66009zM3.52 29.504v-.576l.384-.384.384-.384H5.44v1.56223l-.36667.22661-.36667.22662.21277-.84773.21276-.84773H4.55836l-.35156.42361-.35157.42362.37638.37638.37639.37639H3.52zm2.56-.33067v-.90666l.20463-.20464.20464-.20463.2909.17979.2909.17979-.37133.44743-.37134.44744.18576.48407.18575.48408H6.08zm1.3025.20555l-.0225-.86111.32-.19777.32-.19777-.0225.41888-.02248.41889-.27502.64-.27502.64-.02249-.86112zm1.05231.21875l-.20233-.52726.49895-.49894.49894-.49895.52726.20233.52726.20233-.10245.72143L10.08 29.92l-.72143.10244-.72143.10245zm1.27698-.30738l.18026-.46976-.3418-.21124-.3418-.21125-.26311.42572-.26311.42572.15777.25528.15777.25528h.53376zm.8707.38975l.0225-.4.2175-.48.2175-.48.72-.10012.72-.10011v1.60246l-.36666.22661-.36667.22662.21277-.84773.21276-.84773H11.50416l-.30416.8-.30416.8H10.56zm2.3816.0866l-.19369-.31338.34606-.64661.34606-.64662h1.46664l-.1409.96-.1409.96h-1.48959zm1.38647-.78998l.11056-.57033-.43056.14337-.43056.14337-.11056.57034-.11056.57034.43056-.14337.43056-.14338zm1.061-.2475l.30351-1.35086.14247-.14247L16 27.09333V28.08l-.2 1-.2 1h-.49197zm2.32232.9247l.18612-.58617v-1.54766h.66806l-.09403.45902-.09403.45901.32-.059.32-.05903-.04444-.4-.04444-.4H19.84v.92223l-.28995.1792-.28996.17921.1537.71968.15372.71968-.50375-.62116-.50375-.62116-.50613.62116-.50612.62116zm2.44861-.27494l-.02249-.86111.32-.19778.32-.19777-.02249.41889-.02249.41888-.27502.64-.27501.64-.0225-.86111zm1.25751.37621l.48-.3151-.441-.28422-.441-.28422.21989-.35578.21988-.35578.54112.0049.54111.0049-.48.3151-.48.3151.441.28423.441.28422-.21989.35578-.21988.35577-.54112-.0049-.5411-.0049zm1.4933-.82271l.19005-1.25239.31964-.32.31964-.32-.20741.88-.20741.88H24v-.64h.71835l-.3647.43945-.3647.43944.22543.60055.22544.60056-.48353-.39238-.48353-.39239-.36477.36477-.36476.36477zM25.6 29.93356v-.15185l.53927-1.13086.53927-1.13086h.75772l.192 1.1832.19201 1.1832-.16753.16753-.16754.16754-.29283-.47073-.29284-.47074-.64976.40272-.64977.4027zm1.6-1.47245v-.65889L26.88 28l-.32.19778v.92222h.64zm1.41876 1.3316l.61876-.24231-.37876-.23409-.37876-.23409V28.16l.56.0049.56.0049-.43416.2751-.43417.2751.35417.2189.35416.21888V30.08l-.72-.0225-.72-.02248.61876-.24231zm1.55823.06342l.577-.14961-.36454-.43925-.36455-.43924.20644-.33402.20643-.33402.54112.02249.54111.02249-.61876.2423-.61876.24232.37876.23408.37876.23409v.92223l-.72-.03712-.72-.03712zM31.73875 29.2l.10125-.88.72-.10226.72-.10225v.96139l-.72.2289-.72.22892.64.25016.64.25016-.74125.02249-.74126.02249zm1.06125-.4l.19777-.32H32.32v.64h.28223zm1.25876.99271l.61876-.2423-.37876-.2341-.37876-.23408v-.92223l.56.0049.56.0049-.43416.2751-.43417.2751.35417.21888.35416.21889v.92223l-.72-.0225-.72-.02248zm1.6 0l.61876-.2423-.37876-.2341-.37876-.23408v-.92223l.72.02249.72.02249-.61876.2423-.61876.24232.37876.23408.37876.23409v.92223l-.72-.0225-.72-.02248zm1.48373-.41382l-.02249-.86112.32-.19777.32-.19777-.0225.41889-.0225.41888-.27501.64-.27502.64-.0225-.86111zm1.19966-.18802l-.1513-1.03087h.49139l.1795.29045.1795.29044-.2739.74043-.2739.74042zm1.2696-.07087l-.1409-.96H40v1.92h-.24736zm1.087.08l.10125-.88.72-.10226.72-.10225v.96138l-.72.22891-.72.22892.64.25016.64.25016-.74125.02249-.74126.02249zm1.06125-.4l.19777-.32H41.28v.64h.28223zm.8225.88l.0225-.4.2175-.48.21751-.48.72-.10012.72-.10011v1.60246l-.33282.2057-.33283.2057.20752-.82682.2075-.82681H43.50418l-.30416.8-.30416.8H42.56l.0225-.4zm2.5375-.50667v-.90666l.20464-.20464.20463-.20463.2909.17979.29091.17979-.37134.44743-.37134.44744.18576.48407.18575.48408H45.12zm2.04787.26667l.1834-.8.0044-.58126.0044-.58125.88.10125.88.10126v.9411l-.76324.3805-.76323.38052-.30453.42894-.30455.42894zm1.3988-1.22l.12667-.38H47.68V28.85332l.38-.12666.38-.12667zm.71333 1.284v-.576l.384-.384.384-.384H51.2l-.0049.56-.0049.56-.34015.48-.34015.48.14068-.88.14067-.88h-.80278l-.20507.53441-.20507.53442.41084.26068.41083.26069-.56.0049-.56.0049zm2.2625.176l.0225-.4.2175-.48.21751-.48.37058-.0702.37059-.07018-.47402.9502-.47403.95019h-.27312l.0225-.4zm1.82718-.5741l-.14297-.97408.29453-.18203.29453-.18203.35611.35612.35612.35612h-.8426l.15292.8.15293.8h-.4786zm1.28206.0141l.1409-.96h.63584l-.19424.50617-.19424.50617V30.08h-.52915zm1.18826 0v-.96l.264.088.264.088-.024.232-.024.232v1.28h-.48zm1.17875.08l.10125-.88.72-.10226.72-.10225v.96139l-.72.2289-.72.22892.64.25016.64.25016-.74125.02249-.74126.02249zm1.06125-.4l.19777-.32H57.6v.64h.28223zm.92577.77383l.19423-.50617V28.26666h.98134l-.33067.33067-.33067.33067v1.152H58.81153zm1.79423.18127l.48-.3151-.441-.28422-.441-.28423.21989-.35577.21988-.35578.54112.0049.54111.0049-.48.3151-.48.3151.441.28422.441.28422-.21989.35578-.21988.35578-.54111-.0049-.54112-.0049zm1.5018-.8751l.18155-1.2.27833-.304.27832-.304v1.088H64v1.92h-.65219l.21126-.84172.21126-.84172-.44517.14678-.44516.14679-.10225.69493-.10226.69494h-.55525zm2.26994.24l.1409-.96h.63584l-.19424.50617-.19424.50617V30.08h-.52915zm-56.89174-1.6v-.42667l.21333.21334.21334.21333-.21334.21333-.21333.21334zm12.8 0v-.42667l.21333.21334.21334.21333-.21334.21333-.21333.21334zm44.48 0v-.42667l.21334.21334.21333.21333-.21333.21333-.21334.21334z"/></g><path fill="#0e74bb" stroke-width=".32" d="M1.72408 25.04l.1672-.56.69804-3.84.69804-3.84.56552-1.12688.56552-1.12687 1.27667-1.6991 1.27667-1.69908.62749-.43951.62748-.4395-.43394 2.78547L7.35884 15.84l-.8143 4.32-.8143 4.32-.16669.56-.16668.56h-3.84zm11.3596-.32l-.34047-.88-1.87515-5.60073-1.87515-5.60074-.2139-1.33774-.21392-1.33774 1.23745-.19916L11.04 9.56472l.5202-.102.52021-.102 1.14722 3.71964L14.37483 16.8l.4495 1.76.44948 1.76.18286-.8.18286-.8.18615-1.92.18616-1.92.51253-2.61312.51253-2.61312 1.4483.43587 1.4483.43588.33386.33386.33386.33386-1.21353 6.48338L18.17417 24.16l-.16178.72-.16177.72h-4.42646zm7.17637 0l.17466-.88 1.04332-5.65024 1.04332-5.65024 2.89178 2.45024L28.30491 17.44l-1.31497.09657-1.31496.09657-.73064 3.98343L24.2137 25.6H20.08539zm10.34447.32l-.1586-.56-.21954-2.4-.21952-2.4-.2673-.50884-.26731-.50884 2.53109 1.62884 2.5311 1.62884.0177 1.12.0177 1.12.28278.4466.28278.4466.55301-1.0866.55301-1.0866.04272-.05675.04272-.05675 1.59658.5405 1.59658.5405.0964.31625.0964.31625-.14644.56-.14644.56h-8.6568l-.1586-.56zm17.33674-3.84l-.10126-.88-2.88-.09477-2.88-.09477-.70759.88446-.70759.88446-1.5324-.4084L37.6 21.08256l-.1939-.22129-.1939-.22128 3.80102-7.76 3.80102-7.76H50.211l.17514 1.04.17513 1.04.79937 6.84652.79936 6.84651V22.08h-4.11749zm-.36881-5.76l-.19023-1.84-.21425-2.66086-.21425-2.66086-.22696.26086-.22697.26086-.74346 1.92-.74346 1.92-1.06643 2.15201L42.88 16.94402V17.28H47.76267zM53.92 21.36l.1722-.72 1.41355-7.47299 1.41356-7.47299.20701-.207.20702-.20702H65.76l1.37581.78781 1.37581.78781.64705 1.04695.64705 1.04694v3.40329l-.54053 1.3509-.54053 1.35092-1.30835 1.1199-1.30835 1.1199-1.59206.47279-1.59206.47279h-4.28057l-.37774 1.92-.37774 1.92h-4.13998zm9.23655-6.76122l1.056-.44123.69372-.88193.69373-.88193V9.9909l-.5924-.73159-.5924-.73159-1.93738-.14013-1.93738-.14014-.36547 1.87627L59.80951 12l-.2634 1.34802-.26341 1.34801.17198.17198.17199.17199h2.47389zM31.68 17.64105l-2.08-1.5493-.77578-.84587-.77578-.84588h1.45484l1.10246-.52315 1.10245-.52315.4659-.90096.46591-.90096V9.89091l-.78545-.78546-.78546-.78545h-3.48062l-.16849.43909-.1685.43909-.22555 1.5609-.22555 1.56092-.20019.37342-.20019.37342-1.6878-1.49342L23.0244 10.08l.40933-2.22593.40933-2.22594.79847-.22217.79847-.22217 3.2-.0301 3.2-.03012 1.20875.33567 1.20875.33567 1.10679.97178 1.10679.97177.3368 1.25077.33679 1.25077-.34075 1.26545-.34075 1.26545-.83184.98858-.83184.98858-1.27332.6496-1.27332.6496.65226.69637.65226.69637.3334.88.3334.88-.23209-.0048-.23208-.0048zm-12.55832-9.6079L17.60336 7.52l-.00168-.69383L17.6 6.13234l.19424-.50617.19423-.50617h3.81466l-.15362.56-.15362.56-.20245 1.2-.20244 1.2-.2255-.04686-.2255-.04685zM5.25465 6.5775l.17661-.6575.00437-.4.00437-.4H10.51687l.21078.66412.21079.66411-.10922.10584-.10922.10584-2.82098.28754-2.82097.28754z"/><path d="M13.36397 40.34333c-.4595.57801-1.07945.86611-1.8617.86611-.78223 0-1.40583-.2881-1.87262-.86611-.46497-.5762-.69836-1.39673-.69836-2.4616 0-1.06304.2334-1.88357.69836-2.46158.46679-.5762 1.0904-.86612 1.87263-.86612.78224 0 1.4022.28992 1.8617.86976.45949.57802.68924 1.39855.68924 2.45795 0 1.06486-.22975 1.8854-.68925 2.46159zm1.23444 1.43684c.95182-.90259 1.42955-2.20085 1.42955-3.89843 0-1.73041-.47773-3.0305-1.42955-3.8966-.71477-.73666-1.74681-1.10317-3.09613-1.10317-1.35114 0-2.38318.3665-3.09613 1.10316-.95729.86612-1.43684 2.1662-1.43684 3.8966 0 1.6976.47955 2.99585 1.43684 3.89844.71295.73483 1.74499 1.10133 3.09613 1.10133 1.34932 0 2.38136-.3665 3.09613-1.10133zm-3.09613-8.8982zm10.32956 4.81378c.24616.41391.36833.89164.36833 1.42955 0 .6546-.13311 1.17791-.40115 1.56994-.26622.39386-.6546.59078-1.16333.59078-.3501 0-.65278-.09664-.90988-.2881-.43214-.33003-.6473-.90075-.6473-1.71217 0-.51237.06382-.9354.19328-1.26908.24798-.62908.702-.9427 1.3639-.9427.55249 0 .95.20787 1.19615.62178zm1.40402-1.31467c-.56708-.60172-1.25815-.90258-2.0732-.90258-.5598 0-1.043.15498-1.44961.46679-.22246.17504-.43215.41573-.62725.71842v-1.03205h-1.75046v9.73696h1.80699v-3.64133c.19328.29539.3902.51967.59078.67465.3665.27716.82782.41574 1.38396.41574.87158 0 1.58453-.32274 2.13885-.96823.55249-.64548.82964-1.5827.82964-2.8135 0-1.16698-.28262-2.05133-.8497-2.65487zm3.94219.96822c.2334-.26439.5616-.3975.98464-.3975.38838 0 .71477.12582.97734.37562.26257.2498.40844.61631.43944 1.09951H26.7386c.06017-.45402.20604-.81141.43944-1.07763zm2.55458-1.57724c-.46496-.21698-.9901-.32639-1.56994-.32639-.97917 0-1.776.32275-2.38866.96823-.61266.64548-.919 1.5736-.919 2.7825 0 1.29097.33916 2.22273 1.01929 2.79528.6783.57255 1.46237.85882 2.35218.85882 1.07763 0 1.91457-.34097 2.51265-1.01928.38474-.4285.5999-.8497.6473-1.26362h-1.86533c-.09847.20605-.21152.3665-.33915.48138-.23522.21334-.54155.32092-.91717.32092-.35557 0-.65825-.08752-.90988-.2644-.41574-.2808-.63454-.77311-.66007-1.4733h4.78095c.00912-.60354-.01094-1.06487-.05652-1.38578-.08206-.54702-.25893-1.02658-.53244-1.44231-.3045-.46862-.68742-.81324-1.1542-1.03205zm-1.4423-.32639zm10.06151.58714c-.4595-.37927-1.05027-.56708-1.77234-.56708-.57802 0-1.05393.1404-1.42955.42303-.20969.15681-.43214.41574-.66736.77495v-1.01929h-1.76323v6.97451h1.82158V38.8372c0-.43215.06017-.78589.1787-1.06487.23156-.52514.65642-.7877 1.27637-.7877.50326 0 .84606.17869 1.02475.5379.09847.19692.1477.47955.1477.84605v4.25035h1.87263v-4.70437c0-.87706-.22975-1.5043-.68925-1.88175zm-2.44517-.58714zm6.77575 7.17326v-9.44886h-1.96198v9.44886zm-.98099-9.63485zm5.40273 6.06463l1.21804-3.71791 1.17974 3.71791zm.12217-5.87864l-3.37146 9.44886h2.06408l.6546-1.94192h3.48088l.60901 1.94192h2.14067l-3.34594-9.44886zm1.10316 0zm11.93598 0l-1.70488 7.43036-1.71765-7.43036H53.9711v9.44886h1.8398v-6.39102c0-.18416-.00364-.44126-.00728-.77312-.00365-.33003-.00547-.58531-.00547-.76583l1.77416 7.92997h1.91822l1.78693-7.92997c0 .18052-.00182.4358-.00547.76583-.00364.33186-.0073.58896-.0073.77312v6.39102h1.83982v-9.44886z"/></svg>