<?xml version="1.0" encoding="utf-8"?>
<!-- Generator: Adobe Illustrator 21.0.0, SVG Export Plug-In . SVG Version: 6.00 Build 0)  -->
<svg version="1.1" id="Ebene_1" xmlns="http://www.w3.org/2000/svg" xmlns:xlink="http://www.w3.org/1999/xlink" x="0px" y="0px"
	 viewBox="0 0 172.9 93.9" style="enable-background:new 0 0 172.9 93.9;" xml:space="preserve">
<style type="text/css">
	.st0{fill:#020202;}
</style>
<g>
	<path class="st0" d="M106.8,26.9c0,1.6-0.2,3-0.7,4.3c-0.5,1.3-1.2,2.4-2.1,3.4c-0.9,0.9-2,1.7-3.2,2.2c-1.3,0.5-2.7,0.8-4.2,0.8
		s-2.9-0.3-4.2-0.8s-2.3-1.2-3.2-2.2c-0.9-0.9-1.6-2.1-2.1-3.4c-0.5-1.3-0.7-2.7-0.7-4.3c0-1.6,0.2-3,0.7-4.3
		c0.5-1.3,1.2-2.4,2.1-3.4s2-1.7,3.2-2.2s2.6-0.8,4.2-0.8s2.9,0.3,4.2,0.8c1.3,0.5,2.3,1.3,3.2,2.2c0.9,0.9,1.6,2.1,2.1,3.4
		C106.5,23.9,106.8,25.3,106.8,26.9z M103.9,26.9c0-1.3-0.2-2.4-0.5-3.4c-0.3-1-0.8-1.9-1.5-2.6s-1.4-1.2-2.3-1.6
		c-0.9-0.4-1.9-0.6-3-0.6c-1.1,0-2.1,0.2-3,0.6c-0.9,0.4-1.7,0.9-2.3,1.6c-0.6,0.7-1.1,1.6-1.5,2.6c-0.3,1-0.5,2.2-0.5,3.4
		c0,1.3,0.2,2.4,0.5,3.4s0.8,1.9,1.5,2.6c0.6,0.7,1.4,1.2,2.3,1.6c0.9,0.4,1.9,0.6,3,0.6c1.1,0,2.1-0.2,3-0.6
		c0.9-0.4,1.7-0.9,2.3-1.6c0.6-0.7,1.1-1.6,1.5-2.6C103.7,29.3,103.9,28.2,103.9,26.9z"/>
	<path class="st0" d="M109.3,42.3V22.6h1.5c0.4,0,0.6,0.2,0.7,0.5l0.2,1.7c0.6-0.8,1.3-1.4,2.2-1.8c0.8-0.5,1.7-0.7,2.8-0.7
		c0.8,0,1.6,0.2,2.3,0.5c0.7,0.3,1.3,0.8,1.8,1.4c0.5,0.6,0.9,1.4,1.1,2.4c0.3,0.9,0.4,2,0.4,3.2c0,1.1-0.1,2.1-0.4,3
		c-0.3,0.9-0.7,1.7-1.2,2.4s-1.2,1.2-2,1.6c-0.8,0.4-1.7,0.6-2.7,0.6c-0.9,0-1.7-0.1-2.3-0.4c-0.6-0.3-1.2-0.7-1.7-1.3v6.5H109.3z
		 M115.9,24.4c-0.8,0-1.6,0.2-2.2,0.6c-0.6,0.4-1.2,0.9-1.7,1.6v7.1c0.5,0.6,1,1.1,1.6,1.3c0.6,0.3,1.2,0.4,1.9,0.4
		c1.4,0,2.4-0.5,3.1-1.5c0.7-1,1.1-2.4,1.1-4.2c0-1-0.1-1.8-0.3-2.5c-0.2-0.7-0.4-1.2-0.7-1.7c-0.3-0.4-0.7-0.8-1.2-1
		C117,24.5,116.5,24.4,115.9,24.4z"/>
	<path class="st0" d="M131.2,22.4c0.9,0,1.7,0.1,2.4,0.4c0.7,0.3,1.4,0.7,1.9,1.3c0.5,0.6,1,1.2,1.3,2.1c0.3,0.8,0.5,1.7,0.5,2.8
		c0,0.4,0,0.7-0.1,0.8c-0.1,0.1-0.3,0.2-0.5,0.2h-9.8c0,0.9,0.1,1.7,0.4,2.4c0.2,0.7,0.6,1.3,1,1.7c0.4,0.5,0.9,0.8,1.5,1
		c0.6,0.2,1.2,0.3,1.9,0.3c0.6,0,1.2-0.1,1.7-0.2s0.9-0.3,1.2-0.5c0.3-0.2,0.6-0.3,0.8-0.5c0.2-0.1,0.4-0.2,0.6-0.2
		c0.2,0,0.4,0.1,0.5,0.2l0.7,0.9c-0.3,0.4-0.7,0.7-1.1,1c-0.4,0.3-0.9,0.5-1.4,0.7c-0.5,0.2-1,0.3-1.6,0.4c-0.5,0.1-1.1,0.1-1.6,0.1
		c-1,0-2-0.2-2.8-0.5c-0.9-0.3-1.6-0.8-2.2-1.5s-1.1-1.5-1.5-2.5s-0.5-2.1-0.5-3.4c0-1,0.2-2,0.5-2.9c0.3-0.9,0.8-1.7,1.4-2.3
		s1.3-1.2,2.2-1.5C129.1,22.5,130.1,22.4,131.2,22.4z M131.2,24.3c-1.2,0-2.2,0.4-2.9,1.1c-0.7,0.7-1.2,1.7-1.3,3h8
		c0-0.6-0.1-1.1-0.2-1.6c-0.2-0.5-0.4-0.9-0.7-1.3c-0.3-0.4-0.7-0.6-1.2-0.8C132.3,24.4,131.8,24.3,131.2,24.3z"/>
	<path class="st0" d="M140.5,37.3V22.6h1.5c0.4,0,0.6,0.2,0.7,0.5l0.2,1.6c0.6-0.7,1.3-1.3,2.1-1.7c0.8-0.4,1.7-0.7,2.7-0.7
		c0.8,0,1.5,0.1,2.1,0.4c0.6,0.3,1.1,0.6,1.5,1.1c0.4,0.5,0.7,1.1,0.9,1.8c0.2,0.7,0.3,1.4,0.3,2.3v9.4h-2.6v-9.4
		c0-1.1-0.3-2-0.8-2.6c-0.5-0.6-1.3-0.9-2.3-0.9c-0.8,0-1.5,0.2-2.1,0.6c-0.7,0.4-1.3,0.9-1.8,1.5v10.8H140.5z"/>
	<path class="st0" d="M99.6,45.8c-0.1,0.1-0.2,0.3-0.3,0.3c-0.1,0.1-0.2,0.1-0.4,0.1c-0.2,0-0.4-0.1-0.6-0.2
		c-0.2-0.2-0.5-0.3-0.8-0.5c-0.3-0.2-0.7-0.4-1.2-0.5c-0.5-0.2-1-0.2-1.7-0.2c-0.6,0-1.2,0.1-1.7,0.3c-0.5,0.2-0.9,0.4-1.2,0.7
		s-0.6,0.6-0.7,1c-0.2,0.4-0.2,0.8-0.2,1.3c0,0.6,0.1,1.1,0.4,1.4s0.7,0.7,1.1,1s1,0.5,1.6,0.7c0.6,0.2,1.2,0.4,1.8,0.6
		c0.6,0.2,1.2,0.5,1.8,0.7c0.6,0.3,1.1,0.6,1.6,1c0.5,0.4,0.8,0.9,1.1,1.5c0.3,0.6,0.4,1.3,0.4,2.2c0,0.9-0.2,1.8-0.5,2.6
		c-0.3,0.8-0.8,1.5-1.4,2.1c-0.6,0.6-1.3,1.1-2.2,1.4s-1.8,0.5-3,0.5c-1.3,0-2.6-0.2-3.7-0.7c-1.1-0.5-2.1-1.1-2.8-2l0.8-1.3
		c0.1-0.1,0.2-0.2,0.3-0.3c0.1-0.1,0.2-0.1,0.4-0.1c0.2,0,0.4,0.1,0.7,0.3s0.6,0.5,1,0.7c0.4,0.3,0.9,0.5,1.4,0.7
		c0.6,0.2,1.2,0.3,2,0.3c0.7,0,1.3-0.1,1.8-0.3s1-0.4,1.3-0.8c0.4-0.3,0.6-0.7,0.8-1.2s0.3-1,0.3-1.6c0-0.6-0.1-1.1-0.4-1.5
		c-0.3-0.4-0.7-0.7-1.1-1c-0.5-0.3-1-0.5-1.6-0.7c-0.6-0.2-1.2-0.4-1.8-0.6c-0.6-0.2-1.2-0.4-1.8-0.7c-0.6-0.3-1.1-0.6-1.6-1
		s-0.8-0.9-1.1-1.6c-0.3-0.6-0.4-1.4-0.4-2.3c0-0.7,0.1-1.4,0.4-2.1c0.3-0.7,0.7-1.3,1.2-1.8c0.5-0.5,1.2-1,2-1.3
		c0.8-0.3,1.7-0.5,2.7-0.5c1.2,0,2.2,0.2,3.2,0.6c1,0.4,1.8,0.9,2.5,1.6L99.6,45.8z"/>
	<path class="st0" d="M109.8,48.4c1.1,0,2,0.2,2.9,0.5c0.9,0.4,1.6,0.9,2.2,1.5c0.6,0.7,1.1,1.5,1.4,2.4c0.3,0.9,0.5,2,0.5,3.1
		c0,1.2-0.2,2.2-0.5,3.1c-0.3,0.9-0.8,1.7-1.4,2.4c-0.6,0.7-1.3,1.2-2.2,1.5c-0.9,0.4-1.8,0.5-2.9,0.5c-1.1,0-2-0.2-2.9-0.5
		c-0.9-0.4-1.6-0.9-2.2-1.5c-0.6-0.7-1.1-1.5-1.4-2.4c-0.3-0.9-0.5-2-0.5-3.1c0-1.2,0.2-2.2,0.5-3.1c0.3-0.9,0.8-1.7,1.4-2.4
		c0.6-0.7,1.3-1.2,2.2-1.5C107.8,48.5,108.7,48.4,109.8,48.4z M109.8,61.5c1.5,0,2.5-0.5,3.2-1.5c0.7-1,1.1-2.3,1.1-4.1
		c0-1.7-0.4-3.1-1.1-4.1c-0.7-1-1.8-1.5-3.2-1.5c-0.7,0-1.4,0.1-1.9,0.4c-0.5,0.3-1,0.6-1.4,1.1c-0.4,0.5-0.6,1.1-0.8,1.7
		c-0.2,0.7-0.3,1.5-0.3,2.3s0.1,1.6,0.3,2.3c0.2,0.7,0.4,1.3,0.8,1.7c0.4,0.5,0.8,0.8,1.4,1.1S109.1,61.5,109.8,61.5z"/>
	<path class="st0" d="M121.9,48.6V58c0,1.1,0.3,2,0.8,2.6c0.5,0.6,1.3,0.9,2.3,0.9c0.8,0,1.5-0.2,2.1-0.5c0.7-0.4,1.3-0.9,1.8-1.5
		V48.6h2.6v14.7h-1.5c-0.4,0-0.6-0.2-0.7-0.5l-0.2-1.6c-0.6,0.7-1.4,1.3-2.1,1.7c-0.8,0.4-1.7,0.6-2.7,0.6c-0.8,0-1.5-0.1-2.1-0.4
		c-0.6-0.3-1.1-0.6-1.5-1.1c-0.4-0.5-0.7-1.1-0.9-1.8s-0.3-1.4-0.3-2.3v-9.4H121.9z"/>
	<path class="st0" d="M135.8,63.3V48.6h1.5c0.3,0,0.5,0.1,0.6,0.2c0.1,0.1,0.2,0.3,0.2,0.6l0.2,2.3c0.5-1,1.1-1.8,1.9-2.4
		c0.7-0.6,1.6-0.9,2.6-0.9c0.4,0,0.8,0,1.1,0.1s0.6,0.2,0.9,0.4l-0.3,1.9c-0.1,0.2-0.2,0.4-0.4,0.4c-0.1,0-0.3,0-0.6-0.1
		c-0.3-0.1-0.7-0.1-1.2-0.1c-0.9,0-1.7,0.3-2.3,0.8c-0.6,0.5-1.1,1.3-1.5,2.3v9.4H135.8z"/>
	<path class="st0" d="M157,51.2c-0.1,0.1-0.2,0.2-0.2,0.2s-0.2,0.1-0.3,0.1c-0.1,0-0.3-0.1-0.5-0.2c-0.2-0.1-0.4-0.3-0.6-0.4
		c-0.3-0.1-0.6-0.3-0.9-0.4c-0.4-0.1-0.8-0.2-1.4-0.2c-0.7,0-1.3,0.1-1.9,0.4c-0.6,0.3-1,0.6-1.4,1.1c-0.4,0.5-0.7,1.1-0.8,1.8
		c-0.2,0.7-0.3,1.5-0.3,2.3c0,0.9,0.1,1.7,0.3,2.4c0.2,0.7,0.5,1.3,0.9,1.7c0.4,0.5,0.8,0.8,1.3,1.1c0.5,0.2,1.1,0.4,1.8,0.4
		c0.6,0,1.1-0.1,1.6-0.2c0.4-0.1,0.7-0.3,1-0.5s0.5-0.4,0.7-0.5c0.2-0.1,0.3-0.2,0.5-0.2c0.2,0,0.4,0.1,0.5,0.2l0.7,0.9
		c-0.6,0.8-1.4,1.4-2.4,1.7c-1,0.4-2,0.5-3,0.5c-0.9,0-1.8-0.2-2.6-0.5c-0.8-0.3-1.5-0.8-2.1-1.5c-0.6-0.6-1-1.4-1.4-2.4
		s-0.5-2-0.5-3.2c0-1.1,0.2-2.1,0.5-3c0.3-0.9,0.7-1.7,1.3-2.4c0.6-0.7,1.3-1.2,2.2-1.6c0.9-0.4,1.8-0.6,3-0.6c1,0,1.9,0.2,2.7,0.5
		c0.8,0.3,1.5,0.8,2.1,1.4L157,51.2z"/>
	<path class="st0" d="M166.3,48.4c0.9,0,1.7,0.1,2.4,0.4c0.7,0.3,1.4,0.7,1.9,1.3s1,1.2,1.3,2.1c0.3,0.8,0.5,1.7,0.5,2.8
		c0,0.4,0,0.7-0.1,0.8c-0.1,0.1-0.3,0.2-0.5,0.2H162c0,0.9,0.1,1.7,0.4,2.4c0.2,0.7,0.6,1.3,1,1.7c0.4,0.5,0.9,0.8,1.5,1
		c0.6,0.2,1.2,0.3,1.9,0.3c0.6,0,1.2-0.1,1.7-0.2s0.9-0.3,1.2-0.5c0.3-0.2,0.6-0.3,0.8-0.5c0.2-0.1,0.4-0.2,0.6-0.2
		c0.2,0,0.4,0.1,0.5,0.2l0.7,0.9c-0.3,0.4-0.7,0.7-1.1,1s-0.9,0.5-1.4,0.7c-0.5,0.2-1,0.3-1.6,0.4c-0.5,0.1-1.1,0.1-1.6,0.1
		c-1,0-2-0.2-2.8-0.5c-0.9-0.3-1.6-0.8-2.2-1.5c-0.6-0.7-1.1-1.5-1.5-2.5s-0.5-2.1-0.5-3.4c0-1,0.2-2,0.5-2.9
		c0.3-0.9,0.8-1.7,1.4-2.3s1.3-1.2,2.2-1.5S165.2,48.4,166.3,48.4z M166.4,50.3c-1.2,0-2.2,0.4-2.9,1.1c-0.7,0.7-1.2,1.7-1.3,3h8
		c0-0.6-0.1-1.1-0.2-1.6c-0.2-0.5-0.4-0.9-0.7-1.3c-0.3-0.4-0.7-0.6-1.2-0.8C167.5,50.4,166.9,50.3,166.4,50.3z"/>
	<path class="st0" d="M99.6,71.8c-0.1,0.1-0.2,0.3-0.3,0.3c-0.1,0.1-0.2,0.1-0.4,0.1c-0.2,0-0.4-0.1-0.6-0.2
		c-0.2-0.2-0.5-0.3-0.8-0.5c-0.3-0.2-0.7-0.4-1.2-0.5c-0.5-0.2-1-0.2-1.7-0.2c-0.6,0-1.2,0.1-1.7,0.3c-0.5,0.2-0.9,0.4-1.2,0.7
		s-0.6,0.6-0.7,1c-0.2,0.4-0.2,0.8-0.2,1.3c0,0.6,0.1,1.1,0.4,1.4s0.7,0.7,1.1,1s1,0.5,1.6,0.7c0.6,0.2,1.2,0.4,1.8,0.6
		c0.6,0.2,1.2,0.5,1.8,0.7c0.6,0.3,1.1,0.6,1.6,1c0.5,0.4,0.8,0.9,1.1,1.5c0.3,0.6,0.4,1.3,0.4,2.2c0,0.9-0.2,1.8-0.5,2.6
		c-0.3,0.8-0.8,1.5-1.4,2.1c-0.6,0.6-1.3,1.1-2.2,1.4s-1.8,0.5-3,0.5c-1.3,0-2.6-0.2-3.7-0.7c-1.1-0.5-2.1-1.1-2.8-2l0.8-1.3
		c0.1-0.1,0.2-0.2,0.3-0.3c0.1-0.1,0.2-0.1,0.4-0.1c0.2,0,0.4,0.1,0.7,0.3s0.6,0.5,1,0.7c0.4,0.3,0.9,0.5,1.4,0.7
		c0.6,0.2,1.2,0.3,2,0.3c0.7,0,1.3-0.1,1.8-0.3s1-0.4,1.3-0.8c0.4-0.3,0.6-0.7,0.8-1.2s0.3-1,0.3-1.6c0-0.6-0.1-1.1-0.4-1.5
		c-0.3-0.4-0.7-0.7-1.1-1c-0.5-0.3-1-0.5-1.6-0.7c-0.6-0.2-1.2-0.4-1.8-0.6c-0.6-0.2-1.2-0.4-1.8-0.7c-0.6-0.3-1.1-0.6-1.6-1
		s-0.8-0.9-1.1-1.6c-0.3-0.6-0.4-1.4-0.4-2.3c0-0.7,0.1-1.4,0.4-2.1c0.3-0.7,0.7-1.3,1.2-1.8c0.5-0.5,1.2-1,2-1.3
		c0.8-0.3,1.7-0.5,2.7-0.5c1.2,0,2.2,0.2,3.2,0.6c1,0.4,1.8,0.9,2.5,1.6L99.6,71.8z"/>
	<path class="st0" d="M109.5,74.4c0.9,0,1.7,0.1,2.4,0.4s1.4,0.7,1.9,1.3s1,1.2,1.3,2.1s0.5,1.7,0.5,2.8c0,0.4,0,0.7-0.1,0.8
		c-0.1,0.1-0.3,0.2-0.5,0.2h-9.8c0,0.9,0.1,1.7,0.4,2.4c0.2,0.7,0.6,1.3,1,1.7c0.4,0.5,0.9,0.8,1.5,1c0.6,0.2,1.2,0.3,1.9,0.3
		c0.6,0,1.2-0.1,1.7-0.2s0.9-0.3,1.2-0.5c0.3-0.2,0.6-0.3,0.8-0.5c0.2-0.1,0.4-0.2,0.6-0.2c0.2,0,0.4,0.1,0.5,0.2l0.7,0.9
		c-0.3,0.4-0.7,0.7-1.1,1c-0.4,0.3-0.9,0.5-1.4,0.7c-0.5,0.2-1,0.3-1.6,0.4s-1.1,0.1-1.6,0.1c-1,0-1.9-0.2-2.8-0.5
		c-0.9-0.3-1.6-0.8-2.2-1.5c-0.6-0.7-1.1-1.5-1.5-2.5c-0.3-1-0.5-2.1-0.5-3.4c0-1,0.2-2,0.5-2.9c0.3-0.9,0.8-1.7,1.4-2.3
		s1.3-1.2,2.2-1.5S108.5,74.4,109.5,74.4z M109.6,76.3c-1.2,0-2.2,0.4-2.9,1.1c-0.7,0.7-1.2,1.7-1.3,3h8c0-0.6-0.1-1.1-0.2-1.6
		c-0.2-0.5-0.4-0.9-0.7-1.3c-0.3-0.4-0.7-0.6-1.2-0.8S110.2,76.3,109.6,76.3z"/>
	<path class="st0" d="M124.7,74.4c0.9,0,1.7,0.1,2.4,0.4c0.7,0.3,1.4,0.7,1.9,1.3c0.5,0.6,1,1.2,1.3,2.1c0.3,0.8,0.5,1.7,0.5,2.8
		c0,0.4,0,0.7-0.1,0.8c-0.1,0.1-0.3,0.2-0.5,0.2h-9.8c0,0.9,0.1,1.7,0.4,2.4c0.2,0.7,0.6,1.3,1,1.7c0.4,0.5,0.9,0.8,1.5,1
		c0.6,0.2,1.2,0.3,1.9,0.3c0.6,0,1.2-0.1,1.7-0.2s0.9-0.3,1.2-0.5c0.3-0.2,0.6-0.3,0.8-0.5c0.2-0.1,0.4-0.2,0.6-0.2
		c0.2,0,0.4,0.1,0.5,0.2l0.7,0.9c-0.3,0.4-0.7,0.7-1.1,1c-0.4,0.3-0.9,0.5-1.4,0.7c-0.5,0.2-1,0.3-1.6,0.4c-0.5,0.1-1.1,0.1-1.6,0.1
		c-1,0-2-0.2-2.8-0.5c-0.9-0.3-1.6-0.8-2.2-1.5s-1.1-1.5-1.5-2.5s-0.5-2.1-0.5-3.4c0-1,0.2-2,0.5-2.9c0.3-0.9,0.8-1.7,1.4-2.3
		s1.3-1.2,2.2-1.5C122.7,74.5,123.7,74.4,124.7,74.4z M124.8,76.3c-1.2,0-2.2,0.4-2.9,1.1c-0.7,0.7-1.2,1.7-1.3,3h8
		c0-0.6-0.1-1.1-0.2-1.6c-0.2-0.5-0.4-0.9-0.7-1.3c-0.3-0.4-0.7-0.6-1.2-0.8C125.9,76.4,125.4,76.3,124.8,76.3z"/>
	<path class="st0" d="M144.5,89.3c-0.4,0-0.6-0.2-0.7-0.5l-0.2-1.8c-0.6,0.8-1.3,1.4-2.2,1.8c-0.8,0.5-1.7,0.7-2.8,0.7
		c-0.8,0-1.6-0.2-2.3-0.5s-1.3-0.8-1.8-1.4s-0.9-1.4-1.1-2.3c-0.3-0.9-0.4-2-0.4-3.2c0-1.1,0.1-2.1,0.4-3c0.3-0.9,0.7-1.7,1.3-2.4
		c0.5-0.7,1.2-1.2,2-1.6c0.8-0.4,1.7-0.6,2.7-0.6c0.9,0,1.7,0.2,2.3,0.5c0.6,0.3,1.2,0.7,1.7,1.3v-8.1h2.6v21.4H144.5z M139.5,87.4
		c0.8,0,1.6-0.2,2.2-0.6c0.6-0.4,1.2-0.9,1.7-1.6v-7.1c-0.5-0.6-1-1.1-1.6-1.3c-0.6-0.3-1.2-0.4-1.9-0.4c-1.4,0-2.4,0.5-3.2,1.5
		c-0.7,1-1.1,2.4-1.1,4.2c0,1,0.1,1.8,0.2,2.5c0.2,0.7,0.4,1.2,0.7,1.7s0.7,0.8,1.2,1C138.3,87.3,138.9,87.4,139.5,87.4z"/>
	<path class="st0" d="M158.5,77c-0.1,0.2-0.3,0.3-0.5,0.3c-0.1,0-0.3-0.1-0.5-0.2s-0.4-0.2-0.7-0.4c-0.3-0.1-0.6-0.3-1-0.4
		c-0.4-0.1-0.8-0.2-1.3-0.2c-0.4,0-0.8,0.1-1.2,0.2c-0.3,0.1-0.6,0.3-0.9,0.5c-0.2,0.2-0.4,0.4-0.6,0.7c-0.1,0.3-0.2,0.5-0.2,0.8
		c0,0.4,0.1,0.7,0.3,0.9s0.5,0.5,0.9,0.7c0.4,0.2,0.8,0.3,1.2,0.5c0.5,0.1,0.9,0.3,1.4,0.4c0.5,0.2,0.9,0.3,1.4,0.5s0.9,0.4,1.2,0.7
		s0.6,0.6,0.9,1.1c0.2,0.4,0.3,0.9,0.3,1.5c0,0.7-0.1,1.3-0.4,1.9c-0.2,0.6-0.6,1.1-1.1,1.5c-0.5,0.4-1.1,0.8-1.7,1
		c-0.7,0.2-1.5,0.4-2.4,0.4c-1,0-2-0.2-2.8-0.5c-0.8-0.3-1.5-0.8-2.1-1.3l0.6-1c0.1-0.1,0.2-0.2,0.3-0.3c0.1-0.1,0.2-0.1,0.4-0.1
		c0.2,0,0.4,0.1,0.6,0.2c0.2,0.1,0.4,0.3,0.7,0.4c0.3,0.2,0.6,0.3,1,0.4c0.4,0.1,0.9,0.2,1.5,0.2c0.5,0,0.9-0.1,1.3-0.2
		s0.7-0.3,0.9-0.5c0.3-0.2,0.4-0.5,0.6-0.8c0.1-0.3,0.2-0.6,0.2-0.9c0-0.4-0.1-0.7-0.3-1c-0.2-0.3-0.5-0.5-0.9-0.7
		c-0.4-0.2-0.8-0.4-1.2-0.5s-0.9-0.3-1.4-0.4s-0.9-0.3-1.4-0.5s-0.9-0.4-1.2-0.7c-0.4-0.3-0.6-0.7-0.9-1.1c-0.2-0.4-0.3-1-0.3-1.6
		c0-0.6,0.1-1.1,0.3-1.6c0.2-0.5,0.6-1,1-1.4s1-0.7,1.6-0.9c0.6-0.2,1.4-0.3,2.2-0.3c1,0,1.8,0.2,2.6,0.5c0.8,0.3,1.4,0.7,2,1.3
		L158.5,77z"/>
</g>
<path class="st0" d="M73.3,50c0-0.3,0-0.5-0.1-0.8c-0.5-4.6-1.9-9.1-4-13.2c-2-4.1-4.6-7.9-7.2-11.6c-2.6-3.7-5.4-7.2-7.8-11
	c-1.2-1.9-2.2-3.9-3-6c-0.7-2.1-1-4.4-0.7-6.6c0-0.1,0-0.1-0.1-0.1c-0.1,0-0.1,0-0.1,0.1c-0.5,2.2-0.2,4.6,0.4,6.8
	c0.7,2.2,1.7,4.3,2.8,6.2c2.3,4,5,7.6,7.5,11.3c2.6,3.7,5,7.5,6.9,11.5c1.9,4,3.2,8.3,3.6,12.7c0.4,4.4-0.1,8.8-1.3,13.1
	c-0.7,2.3-1.7,4.6-2.9,6.7c1-2.4,1.7-4.9,2.2-7.5c0.7-4,1-8.1,0.6-12.1c-0.4-4.1-1.3-8.1-3-11.8c-1.7-3.7-4-7.2-6.6-10.2
	c-2.7-3.1-5.7-5.8-8.6-8.5c-1.5-1.4-2.9-2.7-4.2-4.2c-1.2-1.4-2.4-3.1-2.7-5c0-0.1,0-0.1,0-0.2c0,0,0-0.1-0.1-0.1
	c-0.1,0-0.1,0-0.1,0.1c-0.5,2.3-0.6,4.7,0,7c0.6,2.3,1.7,4.5,3.1,6.5c2.8,3.9,6.5,6.7,9.9,9.8c3.3,3.1,6.5,6.4,8.6,10.4
	c1.4,2.6,2.3,5.4,2.7,8.3c0.4,7.2-0.6,14.7-4.1,21.1c-0.4,0.7-0.8,1.4-1.3,2.1c-2.6,3.2-5.7,6-9.3,8c-1.9,1.1-4,1.9-6.2,2.5
	c-2.2,0.6-4.4,0.8-6.6,0.8c-4.5-0.1-8.9-1-13.1-2.5c-4.2-1.5-8.1-3.6-11.5-6.5c-3.3-2.8-6-6.4-7.1-10.6c-1.2-4.2-1.5-8.7-1.1-13
	c0.4-3.8,1.6-7.5,3.6-10.7c1.7-2.1,3.8-3.9,6.1-5.4c1.8-1.1,3.7-2.1,5.7-2.9c-0.7,0.3-1.3,0.7-1.9,1.1c-2.4,1.6-4.7,3.5-6.5,5.8
	c-1.2,1.5-2.3,3.3-3,5.1c-0.2,0.5-0.4,1-0.6,1.5c-1.1,3.1-1.3,6.4-0.9,9.6c0.1,0.4,0.1,0.8,0.2,1.2c0,0.1,0,0.1,0.1,0.2
	c0.4,2.5,1.2,5,2.4,7.2c1.3,2.6,3,5,4.9,7c2,2.1,4.3,3.9,6.9,5.1c2.6,1.3,5.4,2,8.3,2.2c2.9,0.2,5.8,0,8.6-0.6
	c2.8-0.6,5.6-1.4,8.2-2.5c2.7-1.1,5.3-2.4,7.6-4.2c1.2-0.9,2.3-1.9,3.4-3.1c0,0,0,0,0,0c0.1-0.1,9.1-9.1,3.3-22.5
	c-0.1-0.2-0.1-0.4-0.2-0.5c-1.5-3.8-4.1-7-7-9.8c-2.9-2.8-6-5.2-8.9-7.7c-2.9-2.5-5.9-5.2-6.9-9c0.1,2,0.9,3.9,2,5.6
	c1.1,1.7,2.5,3.2,3.9,4.6c2.8,2.8,5.9,5.3,8.6,8c2.8,2.7,5.3,5.6,6.9,9c0.2,0.4,0.3,0.8,0.5,1.1c0,0.1,0.1,0.2,0.1,0.3
	c1,2.4,1.4,5,1.5,7.7c0,0.4,0,0.9-0.1,1.3c-0.3,2.8-1.1,5.4-2.5,7.8c-1.4,2.4-3.3,4.4-5.5,6c-2.2,1.7-4.6,3-7.2,4.2
	c-2.6,1.1-5.2,2.1-7.9,2.8c-2.7,0.7-5.5,1.1-8.3,1c-2.8-0.1-5.6-0.8-8.1-2c-2.5-1.2-4.8-3-6.6-5.1c-1.7-2-3.1-4.2-4.2-6.6
	c0,0,0.1,0.1,0.1,0.1c1.9,2.6,4.4,4.7,7.2,6.3c2.8,1.6,5.9,2.6,9,3c3.2,0.5,6.3,0.5,9.5,0.2c3.1-0.3,6.3-1,9.2-2.4
	c2.9-1.3,5.6-3.3,7.5-6c1.9-2.7,2.8-6,3-9.2C60.9,48.9,55.4,40,47.6,35c-1.2-0.8-2.4-1.5-3.7-2.1c0,0,0,0,0,0
	c-0.8-0.4-1.7-0.8-2.6-1.2c-1.8-0.7-3.6-1.2-5.5-1.5c-3.8-0.6-7.7-0.4-11.4,0.6c-3.7,0.9-7.3,2.5-10.5,4.5c-0.8,0.5-1.6,1.1-2.4,1.6
	c-0.8,0.6-1.5,1.2-2.2,1.9c-1.4,1.3-2.7,2.8-3.8,4.4c-2.2,3.2-3.6,7-4.3,10.8c-0.7,3.8-0.8,7.7-0.3,11.5c0.2,1.9,0.5,3.8,1,5.7
	c0.5,1.9,1.2,3.7,2,5.5c1.7,3.5,4.1,6.6,7.1,9.1c3,2.5,6.4,4.4,10.1,5.6c3.7,1.2,7.5,1.8,11.3,1.9c3.8,0.1,7.6-0.2,11.4-1
	c3.7-0.8,7.4-2.1,10.7-4c0.9-0.4,1.6-1,2.5-1.5c0.8-0.6,1.6-1.1,2.3-1.7c1.5-1.2,2.9-2.5,4.2-3.9c1.3-1.4,2.5-2.9,3.5-4.6
	c1-1.6,1.9-3.3,2.7-5.1c1.5-3.5,2.7-7.2,3.3-11C73.5,57.2,73.7,53.5,73.3,50z M8.5,46.5c-1.8,3.2-2.8,6.8-3.2,10.4
	c-0.2,2-0.2,4.1-0.1,6.1c0.2,2.1,0.4,4.1,1,6.1c1.2,4,3.5,7.5,6.3,10.5c2.8,3,6.2,5.4,10,7.1c3.8,1.7,7.9,2.5,11.9,2.4
	c4.1-0.1,8.1-0.7,12-1.9c3.6-1.1,7-2.6,10.1-4.7c1.9-1.1,3.8-2.5,5.4-3.9c-0.4,0.5-0.8,1-1.2,1.5c-1.8,2-3.9,3.8-6.2,5.3
	c-4.6,2.9-10,4.4-15.5,5c-2.7,0.3-5.4,0.5-8.2,0.4c-2.7-0.1-5.4-0.6-8-1.5c-5.1-1.8-9.6-5.2-12.7-9.7c-1.6-2.2-2.9-4.6-3.9-7.1
	c-0.5-1.3-0.9-2.6-1.3-3.8c-0.4-1.3-0.6-2.6-0.8-4C4,62,4,59.2,4.4,56.6c0.4-2.7,1.2-5.3,2.4-7.7c0.6-1.2,1.4-2.4,2.2-3.5
	C8.8,45.7,8.6,46.1,8.5,46.5z M58.9,31.8c-3.2-3.3-6.6-6.4-9.4-9.9c-1.4-1.7-2.5-3.6-3.3-5.7c-0.6-1.6-1-3.3-1.1-5.1
	c0.4,1.5,1.3,2.8,2.2,4c1.3,1.6,2.7,3,4.1,4.5c2.9,2.8,5.7,5.6,8.3,8.7c2.5,3,4.7,6.4,6.3,10c0.9,2.2,1.7,4.5,2.2,6.8
	c-0.3-0.7-0.5-1.5-0.9-2.2C65.3,38.7,62.2,35.1,58.9,31.8z M15.8,78.7c3.6,2.9,7.8,5,12.2,6.3c4.4,1.3,9,2,13.5,1.9
	c2.7-0.1,5.3-0.5,7.8-1.3c-1,0.4-2,0.7-3.1,1c-3.8,1-7.8,1.5-11.8,1.5c-3.9-0.1-7.9-1-11.4-2.6c-3.6-1.6-6.8-4-9.4-6.9
	c-2.6-2.9-4.7-6.3-5.8-10c-0.6-2.2-0.9-4.5-1-6.8c0.2,1.8,0.6,3.6,1.1,5.4C9.1,71.9,12.2,75.8,15.8,78.7z M18,36.9
	c-0.3,0.2-0.6,0.4-0.9,0.5c1.9-1.6,4-3,6.2-4.1c3-1.4,6.2-2.2,9.5-2.2c3.2,0.2,8.2,1,13.1,3.9c0.2,0.2,0.4,0.3,0.6,0.5
	c0.6,0.5,1.2,1,1.7,1.5c-1.2-0.9-2.4-1.7-3.8-2.3c-1-0.5-2-0.8-3-1.1c-1.2-0.4-2.3-0.7-3.3-0.8c-2.6-0.5-5.3-0.6-7.9-0.2
	c-0.5,0.1-1.1,0.2-1.6,0.4C25,33.8,21.3,35,18,36.9z M57.3,53.8c0.1,2.5-0.3,4.9-1.2,7.2c-0.9,2.3-2.3,4.4-4.1,6.2
	c-1.8,1.8-3.9,3.1-6.2,4.1c-4.6,1.8-10,2-14.6,0.2c-2.3-0.9-4.3-2.4-6-4.2c-1.7-1.8-3-3.9-4.2-6.1c-0.6-1.1-1.1-2.2-1.7-3.4
	c-0.5-1.1-0.9-2.3-1.1-3.5c-0.5-2.4-0.4-4.9,0.5-7.2c0.8-2.3,2.4-4.3,4.3-5.8c1.9-1.6,4.1-2.8,6.5-3.6c0.8-0.3,1.7-0.4,2.6-0.6
	c0,0,0.1,0,0.1,0c0.1,0,8.4-0.8,15.2,5.9c0.3,0.4,0.6,0.9,0.9,1.3c1.6,2.5,2.8,5.3,2.9,8.2c0,1.4-0.4,2.9-1.2,4.1
	c-0.8,1.2-1.9,2.3-3.2,3c-2.6,1.5-5.8,1.5-8.7,0.7c-1.4-0.4-2.8-1-3.9-1.9c-1.2-0.9-2.2-2-3-3.2c-0.4-0.6-0.8-1.3-1.1-1.9
	c-0.3-0.6-0.5-1.3-0.7-2c-0.3-1.4-0.3-2.9,0.1-4.3c0.3-1,0.8-2,1.4-2.8c-1.1,3,0.9,8.1,5.1,10.4c4.5,2.4,11.8,2.2,13.4-0.8
	c1-1.9-0.5-5.1-3-7.7c0,0,0,0,0,0c0,0,0-0.1,0-0.1c-1.8-1.8-3.8-3.4-6-4.7c-2.2-1.3-4.6-2.3-7.2-2.6c-1.3-0.1-2.7,0-3.9,0.4
	c-1.3,0.4-2.5,1.1-3.5,1.9c-2.1,1.6-3.9,3.6-4.9,6.1c-1.1,2.5-1.4,5.2-1,7.9c0.1,0.7,0.2,1.3,0.4,2c0.2,0.7,0.4,1.2,0.7,1.8
	c0.5,1.2,1.1,2.4,1.8,3.5c1.4,2.2,3.2,4.3,5.4,5.7c2.2,1.4,4.9,2.2,7.5,2.2c2.6,0.1,5.1-0.5,7.6-1c2.5-0.6,4.9-1.5,7.1-2.9
	c2.2-1.4,4-3.4,5.1-5.8c1-2.2,1.5-4.6,1.7-7C57.3,53.6,57.3,53.7,57.3,53.8z M28.6,51.6c0.2,0.8,0.3,1.5,0.7,2.2
	c0.4,0.7,0.7,1.4,1.2,2c0.9,1.3,2,2.4,3.2,3.3c1.3,0.9,2.7,1.5,4.2,1.8c3,0.7,6.2,0.5,8.9-0.9c1.3-0.7,2.6-1.7,3.5-3
	c0.9-1.3,1.4-2.8,1.4-4.4c0-1.4-0.3-2.8-0.8-4.1c0.7,1.5,1.3,3.1,1.5,4.6c0.1,0.7,0,1.6-0.1,2.4c-0.1,0.8-0.3,1.6-0.6,2.3
	c-0.6,1.5-1.7,2.7-3.1,3.4c-2.8,1.6-6.5,1.7-9.8,1.5c-3.4-0.3-6.7-1.4-8.9-3.9c-0.6-0.6-1-1.3-1.5-2c-0.4-0.7-0.8-1.5-1.1-2.2
	c-0.5-1.5-0.8-3.2-0.6-4.8c0.1-1.6,0.8-3.1,1.8-4.3c0.5-0.6,1.1-1.1,1.8-1.5c0,0,0.1,0,0.1,0c-0.7,0.9-1.3,1.9-1.6,3
	C28.3,48.4,28.3,50,28.6,51.6z M22.9,36.8c2.3-1.6,4.8-2.8,7.6-3.3c1.3-0.3,2.7-0.4,4-0.4c0.1,0,0.2,0,0.2,0c0.5,0,1,0,1.4,0.1
	c2.3,0.2,5.2,0.8,8.3,2.4c2,1.2,3.9,2.6,5.5,4.3c1.7,1.8,3.2,3.8,4.2,6c1.1,2.2,1.8,4.6,1.7,7c-0.1,2.4-0.4,4.9-1.3,7.2
	c-0.9,2.3-2.5,4.3-4.5,5.7c-2.1,1.4-4.5,2.2-6.9,2.8c-2.4,0.5-5,0.9-7.4,0.7c-2.5-0.2-4.8-1-6.8-2.4c-2-1.4-3.6-3.3-4.8-5.4
	c-0.6-1.1-1.1-2.2-1.6-3.3c-0.5-1.2-0.8-2.3-1-3.5c-0.4-2.4-0.1-4.8,0.8-7c0.9-2.2,2.4-4.2,4.3-5.8c0.9-0.8,1.9-1.4,3.1-1.8
	c1.1-0.4,2.3-0.5,3.6-0.5c1.7,0.1,3.3,0.6,4.9,1.2c-0.2-0.1-0.5-0.1-0.7-0.2c-1.8-0.4-3.8-0.2-5.6,0.4c-1.8,0.5-3.5,1.6-4.8,3.1
	c-1.3,1.5-2.1,3.5-2.3,5.4c-0.2,2,0.1,3.9,0.7,5.7c0.4,1,0.8,1.7,1.3,2.6c0.5,0.8,1,1.6,1.7,2.3c1.3,1.4,2.9,2.6,4.7,3.3
	c1.8,0.7,3.6,1.1,5.5,1.3l1.4,0.1l1.4,0c0.9,0,1.8-0.1,2.8-0.2c1.8-0.2,3.7-0.7,5.5-1.7c1.7-1,3.2-2.6,3.9-4.4
	c0.4-0.9,0.6-1.9,0.8-2.8c0.1-1,0.2-1.9,0.1-2.9c-0.8-5.6-4.2-10.3-8.7-13.2c-5.5-4-11.2-4.2-13.1-4.1c-2,0-4.1,0.2-6.1,0.7
	c-1.5,0.4-3,0.9-4.5,1.6c-0.4,0.2-0.8,0.4-1.3,0.6C21.4,37.9,22.2,37.3,22.9,36.8z M58.7,58.4c-0.1,2.9-0.9,5.8-2.6,8.1
	c-1.6,2.4-4,4.1-6.7,5.4c-2.7,1.2-5.6,1.9-8.6,2.2c-3,0.3-6,0.3-9-0.1c-2.9-0.4-5.8-1.4-8.4-2.8c-2.6-1.4-4.8-3.4-6.6-5.8
	c-0.9-1.2-1.6-2.4-2.3-3.8c-0.3-0.7-0.6-1.3-0.8-2c-0.1-0.3-0.2-0.7-0.3-1c-0.1-0.3-0.1-0.7-0.2-1.1c-0.4-2.9-0.2-5.9,0.8-8.6
	c0.9-2.7,2.7-5.2,5-6.9c2.3-1.7,5-3.3,7.8-4.2c1-0.3,2.1-0.6,3.1-0.8c-0.3,0.1-0.6,0.1-0.8,0.2c-2.5,0.7-4.8,1.9-6.8,3.5
	c-2,1.6-3.7,3.7-4.7,6.1c-0.9,2.5-1.1,5.2-0.6,7.7c0.3,1.3,0.6,2.5,1.2,3.7c0.5,1.1,1.1,2.3,1.7,3.4c1.2,2.2,2.6,4.4,4.4,6.3
	c1.8,1.8,4,3.4,6.4,4.2c2.4,0.9,5,1.2,7.5,1.1c2.5-0.1,5.1-0.6,7.4-1.6c4.7-1.8,8.8-5.5,10.9-10.2c1.1-2.4,1.5-5,1.4-7.5
	c0-0.4,0-0.7,0-1.1C58.6,54.6,58.8,56.5,58.7,58.4z M62.7,80.7c-2.3,2.9-5.2,5.5-8.5,7.3c-3.3,1.9-6.9,3.1-10.6,3.6
	c-3.7,0.6-7.5,0.8-11.2,0.7c-3.7-0.2-7.4-0.8-11-2c-3.5-1.2-6.8-3-9.6-5.4c-2.8-2.4-5.1-5.4-6.7-8.7c-0.8-1.7-1.4-3.4-1.9-5.2
	c-0.4-1.8-0.7-3.6-0.9-5.5C2,61.7,2,58,2.7,54.3c0.6-3.6,2-7.1,4-10.2c3.3-4.7,8.2-8.4,13.6-10.7c-1.2,0.7-2.4,1.4-3.5,2.3
	c-1.8,1.4-3.5,3.1-4.9,4.9c-0.7,0.9-1.4,1.9-1.9,2.9c-1.4,1.5-2.6,3.2-3.6,5.1C5,51,4.1,53.7,3.7,56.5c-0.4,2.7-0.5,5.5-0.1,8.3
	c0.2,1.4,0.4,2.7,0.8,4.1c0.4,1.3,0.8,2.6,1.4,3.9c1.1,2.6,2.4,5,4,7.3c3.2,4.5,7.8,8.1,13.1,9.8c5.3,1.8,11,1.8,16.4,1
	c5.4-0.8,10.8-2.2,15.6-5c3.9-2.2,7.1-5.5,9.4-9.3c0.4-0.4,0.8-0.9,1.2-1.4c1.2-1.4,2.3-2.9,3.2-4.5c-0.1,0.2-0.2,0.4-0.3,0.6
	C66.9,74.5,65,77.8,62.7,80.7z"/>
</svg>
