<svg id="Layer_1" data-name="Layer 1" xmlns="http://www.w3.org/2000/svg" viewBox="0 0 400 245"><defs><style>.cls-1{fill:#009ade;}.cls-2{fill:#003764;}.cls-3{fill:#ff7f40;}.cls-4{fill:none;}</style></defs><polygon class="cls-1" points="108.94 94.26 108.94 87.06 105.31 87.06 105.31 97.84 116.09 97.84 116.09 94.26 108.94 94.26"/><polygon class="cls-2" points="123.3 79.85 105.31 79.85 105.31 85.2 108.88 85.2 108.88 83.42 119.72 83.42 119.72 94.26 117.94 94.26 117.94 97.84 123.3 97.84 123.3 79.85"/><path class="cls-2" d="M128.08,80h5.49v13.2h7.85v4.53H128.08V80Z"/><path class="cls-2" d="M143.78,80h13.78v4.53h-8.3V86.8h7.08V91h-7.08v6.76h-5.48Z"/><path class="cls-1" d="M171.66,97.9h-10V80h10v1.15H163v6.76h8.17V89H163v7.66h8.68Z"/><path class="cls-1" d="M189,97.9h-1.28L177,82h-.13c.13,1.92.13,3.32.13,4.28V97.9H175.8V80h1.28l10.78,15.89h.06c-.06-1.47-.12-2.87-.12-4.21V80H189V97.9Z"/><path class="cls-1" d="M204.06,97.9h-9.95V80h9.95v1.15h-8.67v6.76h8.16V89h-8.16v7.66h8.67Z"/><path class="cls-1" d="M209.49,90.12V97.9h-1.28V80h4.34a8.2,8.2,0,0,1,5,1.22,4.32,4.32,0,0,1,1.59,3.7,4.86,4.86,0,0,1-1,3.06,5.31,5.31,0,0,1-2.93,1.78l4.91,8.17h-1.53L214,90.12Zm0-1.09h3.44a5.41,5.41,0,0,0,3.57-1,3.67,3.67,0,0,0,1.28-3,3.56,3.56,0,0,0-1.21-3,6.8,6.8,0,0,0-4.08-1h-3Z"/><path class="cls-1" d="M230.29,88.71h6.57v8a15.27,15.27,0,0,1-5.81,1.08c-2.81,0-5-.76-6.44-2.36a9.34,9.34,0,0,1-2.24-6.63,10.11,10.11,0,0,1,1.09-4.72,7.61,7.61,0,0,1,3.19-3.19,9.77,9.77,0,0,1,4.78-1.15,12.57,12.57,0,0,1,5.23,1.08l-.51,1.09a11.4,11.4,0,0,0-4.78-1.09A7.11,7.11,0,0,0,225.82,83a8.2,8.2,0,0,0-2,5.74c0,2.62.64,4.6,2,5.94s3.19,2,5.74,2a11.11,11.11,0,0,0,4.14-.7V89.73h-5.29v-1Z"/><path class="cls-1" d="M245.47,89.73,250.76,80h1.34l-6,10.91v6.89h-1.28V91l-6.06-11h1.47Z"/><path class="cls-3" d="M116,154.51c-7.73,0-12.82-4.64-12.82-20.1,0-10.82,4-17.65,12.82-17.65s12.82,6.83,12.82,17.65C128.79,149.94,123.83,154.51,116,154.51Zm0-33.43c-5.22,0-7.54,4.12-7.54,14.94,0,8.44,1.61,14.17,7.54,14.17s7.54-5.73,7.54-14.17C123.51,125.2,121.32,121.08,116,121.08Z"/><path class="cls-3" d="M141.81,165.66h-5.09V117.73h4.89v4h.13a8.53,8.53,0,0,1,7.41-5c9.08,0,11.73,9.15,11.73,16.49,0,10.18-1.81,21.26-11.47,21.26-3.61,0-5.67-1.8-7.47-4.7h-.13Zm6.76-44.58c-6.63,0-6.76,9.4-6.76,14.49s-.2,14.62,6.83,14.62c5.28,0,7-5.54,7-15.2C155.59,130.29,155.08,121.08,148.57,121.08Z"/><path class="cls-3" d="M189.48,141.63c.32,7-3.28,12.88-10.82,12.88-6.77,0-11.6-4.51-11.6-18.94,0-7.54,2-18.81,11.47-18.81,11.6,0,10.95,10.95,11.21,19.32H172.35c.12,4.84-.71,14.11,6.44,14.11,4.89,0,6.25-4.51,5.92-8.56Zm-5-9.73c-.2-4.19.06-10.82-5.87-10.82s-6.05,6.57-6.24,10.82Z"/><path class="cls-3" d="M202.56,121.65h.13c2.45-3.09,5.09-4.89,8.95-4.89,5.35,0,8.83,2.83,8.83,9.15v27.63h-5.09V127.32c0-3.73-1.22-6.24-5.35-6.24a7.27,7.27,0,0,0-5,2c-2.06,1.87-2.32,3.93-2.32,6.51v24H197.6V117.73h5Z"/><path class="cls-1" d="M230.46,153.54V105.23h5.34v43.48h19.72v4.83Z"/><path class="cls-1" d="M262.09,153.54V105.23h24.16v4.83H267.44v16h17.65v4.83H267.44v17.84h18.94v4.83Z"/><path class="cls-1" d="M290.12,153.54l10.56-48.31h13.66l10.5,48.31H313.37l-1.61-9.4h-8.89l-1.35,9.4ZM307.51,114h-.13l-3.28,21.64h6.57Z"/><path class="cls-1" d="M328.32,153.54V105.23h12.31c4.12,0,9.08.13,12.75,2.25,4.38,2.58,5.09,7.28,5.09,11.92v21.45c-.06,4.83-1.55,8.38-4.83,10.44-3,1.93-6.57,2.25-10.05,2.25Zm11.34-8.69c7.6.51,7.67-2.58,7.47-9V120c-.06-5.66-1.93-6-7.47-6.12Z"/><path class="cls-1" d="M375.22,153.54H363.88V105.23h16.56c9.28,0,13.92,3.73,13.92,13.33,0,5.16-1.23,8.83-6,11v.13A6.66,6.66,0,0,1,394,136c.32,3.86.39,12.17,1,15.26a4.17,4.17,0,0,0,1.1,1.68v.64H383.73a10.08,10.08,0,0,1-.65-2.77c-.19-4.25.07-8.24-.26-11.21s-1.22-4.89-3.86-5.09h-3.74Zm0-27.76h3.87c3.28,0,4.06-3,4.06-6,0-5.74-2.39-6-7.93-5.87Z"/><path class="cls-4" d="M85.78,160.38a3.45,3.45,0,1,0-3.45-3.45A3.45,3.45,0,0,0,85.78,160.38Z"/><circle class="cls-4" cx="49.51" cy="121.33" r="12.83" transform="translate(-18.79 9.5) rotate(-9.22)"/><circle class="cls-4" cx="13.43" cy="99.49" r="4.86" transform="translate(-12.05 2.39) rotate(-7.02)"/><path class="cls-1" d="M85.78,146.24a10.52,10.52,0,0,0-5.27,1.4L63.82,131c-.26.39-.55.77-.84,1.14s-.61.73-.93,1.07l18.13,18.13,1-.72a7.87,7.87,0,0,1,12.51,6.36,7.88,7.88,0,1,1-15.75,0,7.76,7.76,0,0,1,.81-3.47l.45-.91L60.89,134.27c-.35.31-.72.62-1.1.9s-.78.55-1.18.8l17.17,17.18a10.55,10.55,0,0,0-.69,3.78,10.69,10.69,0,1,0,10.69-10.69Z"/><path class="cls-1" d="M85.78,163.2a6.27,6.27,0,1,0-6.27-6.27A6.27,6.27,0,0,0,85.78,163.2Zm0-9.72a3.45,3.45,0,1,1-3.45,3.45A3.46,3.46,0,0,1,85.78,153.48Z"/><path class="cls-1" d="M38.77,134.81a13.44,13.44,0,0,1-1.07-.93l-8.15,8,.72,1A12,12,0,0,1,32.62,150a12.09,12.09,0,1,1-5.19-9.92l1,.67,8.19-8c-.31-.35-.61-.72-.89-1.09s-.55-.78-.81-1.19l-6.82,6.66a14.9,14.9,0,1,0,5.18,5.07l6.68-6.52C39.52,135.39,39.14,135.11,38.77,134.81Z"/><path class="cls-1" d="M10.06,150a10.48,10.48,0,1,0,10.48-10.48A10.49,10.49,0,0,0,10.06,150Zm2.82,0a7.66,7.66,0,1,1,7.66,7.66A7.66,7.66,0,0,1,12.88,150Z"/><path class="cls-1" d="M13.43,108.77A9.24,9.24,0,0,0,20.06,106l13.78,8.15a16.67,16.67,0,0,1,2.35-3.75l-13.87-8.21a9.15,9.15,0,0,0,.4-2.68,9.29,9.29,0,1,0-9.29,9.28Zm0-14.14a4.86,4.86,0,1,1-4.86,4.86A4.87,4.87,0,0,1,13.43,94.63Z"/><path class="cls-1" d="M63,96.92a12,12,0,1,1,3.2,2.35l-1.12-.57-5.59,8.56c.39.27.76.56,1.12.86s.72.63,1.06,1l4.42-6.78a14.74,14.74,0,0,0,5.55,1.07,14.9,14.9,0,1,0-11.42-5.33l-4.65,7.12c.45.17.89.36,1.32.56s.84.43,1.25.66l5.65-8.66Z"/><path class="cls-3" d="M20.54,142.31A7.66,7.66,0,1,0,28.2,150,7.66,7.66,0,0,0,20.54,142.31Z"/><path class="cls-3" d="M60.6,108.12c-.36-.3-.73-.59-1.12-.86a15.56,15.56,0,0,0-1.35-.87c-.41-.23-.82-.46-1.25-.66s-.87-.39-1.32-.56a17.21,17.21,0,0,0-19.37,5.21,16.67,16.67,0,0,0-2.35,3.75,17.19,17.19,0,0,0,1,16.32c.26.41.52.8.81,1.19s.58.74.89,1.09.73.79,1.12,1.15a13.44,13.44,0,0,0,1.07.93c.37.3.75.58,1.15.85a17.19,17.19,0,0,0,18.69.31c.4-.25.8-.52,1.18-.8s.75-.59,1.1-.9.79-.72,1.16-1.11.63-.7.93-1.07.58-.75.84-1.14a17.23,17.23,0,0,0-2.16-21.86C61.32,108.75,61,108.43,60.6,108.12Zm1.74,13.21A12.83,12.83,0,1,1,49.51,108.5,12.84,12.84,0,0,1,62.34,121.33Z"/><path class="cls-3" d="M71.63,78A10.48,10.48,0,1,0,82.11,88.48,10.49,10.49,0,0,0,71.63,78Zm0,18.14a7.66,7.66,0,1,1,7.66-7.66A7.67,7.67,0,0,1,71.63,96.14Z"/></svg>