<?xml version="1.0" encoding="utf-8"?>
<!-- Generator: Adobe Illustrator 25.2.1, SVG Export Plug-In . SVG Version: 6.00 Build 0)  -->
<svg version="1.1" id="Layer_1" xmlns="http://www.w3.org/2000/svg" xmlns:xlink="http://www.w3.org/1999/xlink" x="0px" y="0px"
	 viewBox="0 0 996.5 257.6" style="enable-background:new 0 0 996.5 257.6;" xml:space="preserve">
<style type="text/css">
	.st0{fill:#0D4877;}
	.st1{fill:#BBCD32;}
	.st2{fill:#EC6A25;}
	.st3{fill:#25B7CC;}
	.st4{clip-path:url(#SVGID_1_);}
	.st5{fill:#26B6CC;}
	.st6{fill:#24B5CC;}
	.st7{fill:#25B5CB;}
	.st8{fill:#27B4CB;}
	.st9{fill:#26B2C9;}
	.st10{fill:#25B3CA;}
	.st11{fill:#27B2CA;}
	.st12{fill:#24B2C9;}
	.st13{fill:#26B1C9;}
	.st14{fill:#24B0C8;}
	.st15{fill:#27AFC7;}
	.st16{fill:#25AEC6;}
	.st17{fill:#26AEC5;}
	.st18{fill:#23ADC6;}
	.st19{fill:#25ACC5;}
	.st20{fill:#24ABC5;}
	.st21{fill:#22AAC4;}
	.st22{fill:#20A9C3;}
	.st23{fill:#1FA8C2;}
	.st24{fill:#1DA7C1;}
	.st25{fill:#1FA6C1;}
	.st26{fill:#20A4C0;}
	.st27{fill:#1EA3BF;}
	.st28{fill:#1FA1BE;}
	.st29{fill:#1DA0BD;}
	.st30{fill:#1E9FBB;}
	.st31{fill:#1F9CBA;}
	.st32{fill:#1C9CBA;}
	.st33{fill:#1F9AB7;}
	.st34{fill:#1B98B6;}
	.st35{fill:#1B94B3;}
	.st36{fill:#1A92B3;}
	.st37{fill:#1890B1;}
	.st38{fill:#178DAF;}
	.st39{fill:#178CAF;}
	.st40{fill:#1C89AD;}
	.st41{fill:#1785AA;}
	.st42{fill:#1682A7;}
	.st43{fill:#167FA5;}
	.st44{fill:#117CA3;}
	.st45{fill:#1279A1;}
	.st46{fill:#11759F;}
	.st47{fill:#10729C;}
	.st48{fill:#0A6D99;}
	.st49{fill:#0D6A96;}
	.st50{fill:#096594;}
	.st51{fill:#036190;}
	.st52{fill:#025C8D;}
	.st53{fill:#005789;}
	.st54{clip-path:url(#SVGID_2_);}
	.st55{fill:#BACE32;}
	.st56{fill:#B9CD33;}
	.st57{fill:#B8CD33;}
	.st58{fill:#B7CD33;}
	.st59{fill:#B6CC34;}
	.st60{fill:#B5CC34;}
	.st61{fill:#B4CC34;}
	.st62{fill:#B3CB35;}
	.st63{fill:#B2CB35;}
	.st64{fill:#B0CA36;}
	.st65{fill:#AFCB36;}
	.st66{fill:#AECA36;}
	.st67{fill:#ADC937;}
	.st68{fill:#ACCA37;}
	.st69{fill:#ABC937;}
	.st70{fill:#AAC838;}
	.st71{fill:#A9C938;}
	.st72{fill:#A8C838;}
	.st73{fill:#A7C739;}
	.st74{fill:#A6C839;}
	.st75{fill:#A4C739;}
	.st76{fill:#A5C739;}
	.st77{fill:#A3C63A;}
	.st78{fill:#A2C63A;}
	.st79{fill:#A1C73A;}
	.st80{fill:#A0C63A;}
	.st81{fill:#9FC63B;}
	.st82{fill:#9EC63B;}
	.st83{fill:#9EC53B;}
	.st84{fill:#9DC53B;}
	.st85{fill:#9CC53C;}
	.st86{fill:#9BC43C;}
	.st87{fill:#9AC43C;}
	.st88{fill:#99C43C;}
	.st89{fill:#97C23D;}
	.st90{fill:#96C33D;}
	.st91{fill:#95C33D;}
	.st92{fill:#94C33E;}
	.st93{fill:#93C23E;}
	.st94{fill:#92C23E;}
	.st95{fill:#91C23E;}
	.st96{fill:#90C13E;}
	.st97{fill:#8FC13F;}
	.st98{fill:#8EC13F;}
	.st99{fill:#8DC03F;}
	.st100{fill:#8CC03F;}
	.st101{fill:#8ABF40;}
	.st102{fill:#88BF40;}
	.st103{fill:#87BE40;}
	.st104{fill:#86BE40;}
	.st105{fill:#85BE41;}
	.st106{fill:#84BE41;}
	.st107{fill:#83BD41;}
	.st108{fill:#80BE42;}
	.st109{fill:#7FBC42;}
	.st110{fill:#7EBC42;}
	.st111{fill:#7EBD42;}
	.st112{fill:#7DBC42;}
	.st113{fill:#7CBC42;}
	.st114{fill:#79BC43;}
	.st115{fill:#78BB43;}
	.st116{fill:#77BB43;}
	.st117{fill:#75BA43;}
	.st118{fill:#73B944;}
	.st119{fill:#71B844;}
	.st120{fill:#70B844;}
	.st121{fill:#6EB744;}
	.st122{fill:#6DB745;}
	.st123{fill:#6BB745;}
	.st124{fill:#6AB645;}
	.st125{fill:#69B645;}
	.st126{fill:#68B545;}
	.st127{fill:#67B545;}
	.st128{fill:#65B446;}
	.st129{fill:#63B446;}
	.st130{fill:#62B446;}
	.st131{fill:#60B346;}
	.st132{fill:#5FB246;}
	.st133{fill:#5DB246;}
	.st134{fill:#5CB247;}
	.st135{fill:#5BB147;}
	.st136{fill:#59B147;}
	.st137{fill:#58B147;}
	.st138{fill:#57B047;}
	.st139{fill:#55B147;}
	.st140{fill:#54AE47;}
	.st141{fill:#51AE47;}
	.st142{fill:#50AE47;}
	.st143{fill:#4DAD47;}
	.st144{fill:#4CAC48;}
	.st145{fill:#4AAC48;}
	.st146{clip-path:url(#SVGID_3_);}
	.st147{fill:#CA333C;}
	.st148{fill:#CB353A;}
	.st149{fill:#CB373A;}
	.st150{fill:#CD3939;}
	.st151{fill:#CE3938;}
	.st152{fill:#CE3B38;}
	.st153{fill:#D03C38;}
	.st154{fill:#D13F38;}
	.st155{fill:#D14036;}
	.st156{fill:#D24135;}
	.st157{fill:#D44334;}
	.st158{fill:#D44433;}
	.st159{fill:#D44633;}
	.st160{fill:#D54832;}
	.st161{fill:#D64832;}
	.st162{fill:#D74B32;}
	.st163{fill:#D84C31;}
	.st164{fill:#D94D31;}
	.st165{fill:#D94E30;}
	.st166{fill:#DA4F30;}
	.st167{fill:#DB502F;}
	.st168{fill:#DC522F;}
	.st169{fill:#DD532E;}
	.st170{fill:#DD542E;}
	.st171{fill:#DE552D;}
	.st172{fill:#DF562D;}
	.st173{fill:#DF582B;}
	.st174{fill:#DF592B;}
	.st175{fill:#E15A2A;}
	.st176{fill:#E25B2A;}
	.st177{fill:#E25C29;}
	.st178{fill:#E25D29;}
	.st179{fill:#E45E28;}
	.st180{fill:#E45E27;}
	.st181{fill:#E55F28;}
	.st182{fill:#E55F27;}
	.st183{fill:#E66028;}
	.st184{fill:#E66128;}
	.st185{fill:#E66228;}
	.st186{fill:#E96328;}
	.st187{fill:#E96327;}
	.st188{fill:#E96427;}
	.st189{fill:#E96527;}
	.st190{fill:#EA6527;}
	.st191{fill:#EA6626;}
	.st192{fill:#EA6826;}
	.st193{fill:#EB6826;}
	.st194{fill:#EB6926;}
	.st195{fill:#EC6925;}
</style>
<g>
	<path class="st0" d="M100.4,134.2c0,20-16.3,36.3-36.3,36.3s-36.3-16.3-36.3-36.3c0-20,16.2-36.3,36.3-36.3
		C84.1,97.9,100.4,114.1,100.4,134.2 M127.6,133.3c-0.1-35.2-28.8-63.7-64-63.5C28.3,69.9-0.1,98.6,0,133.8
		c0.1,35.1,28.7,63.5,63.8,63.6c35.2,0,63.8-28.6,63.8-63.8C127.6,133.5,127.6,133.4,127.6,133.3"/>
	<path class="st1" d="M456.5,172.8c0.1,3.1-1.1,6.1-3.5,8.2c-4.6,3.9-11.3,3.9-15.9,0c-4.6-4.7-4.6-12.2,0-16.8
		c4.6-3.9,11.3-3.9,15.9,0c2.4,2.1,3.7,5.2,3.5,8.4"/>
	<path class="st2" d="M456.5,145.4c0.1,3.1-1.1,6.1-3.5,8.2c-4.6,3.9-11.3,3.9-15.9,0c-4.6-4.6-4.6-12.2,0-16.8
		c4.6-3.9,11.3-3.9,15.9,0c2.3,2.1,3.6,5.1,3.5,8.2"/>
	<path class="st3" d="M456.5,118.1c0.2,3.2-1.1,6.3-3.5,8.4c-4.6,3.9-11.3,3.9-15.9,0c-4.6-4.7-4.6-12.2,0-16.8
		c4.6-3.9,11.3-3.9,15.9,0C455.5,111.8,456.7,114.9,456.5,118.1"/>
	<path class="st0" d="M201.6,148.2c0.3-7.1-1.6-14.1-5.6-20c-4-5.1-10.2-8-16.7-7.5c-2.4,0-4.6,0-6.7,0.3c-1.7,0.1-3.4,0.3-5.1,0.6
		v48.6c2,1.2,4.3,2.1,6.6,2.7c2.7,0.7,5.4,1.1,8.2,1.1c12.8,0,19.2-8.6,19.2-25.9 M226.9,147.1c0.1,6.8-0.8,13.6-2.7,20.1
		c-1.6,5.6-4.3,10.9-7.9,15.6c-3.4,4.3-7.9,7.8-12.9,10.1c-5.6,2.5-11.6,3.8-17.7,3.6c-3.5,0-6.9-0.3-10.3-1.1
		c-3.2-0.7-6.3-1.7-9.3-3.1v35.9h-26.6V102.8c2.4-0.7,5.1-1.4,8.2-2.1c3.1-0.7,6.4-1.2,9.7-1.7c3.4-0.5,6.8-0.9,10.4-1.1
		c3.5-0.3,6.9-0.5,10.1-0.5c7.1-0.1,14.1,1.1,20.7,3.5c11.8,4.3,20.9,13.7,24.9,25.6c2.3,6.6,3.4,13.5,3.3,20.5"/>
	<path class="st0" d="M301.5,138.6c-0.1-2.3-0.5-4.6-1.2-6.8c-0.6-2.1-1.7-4.1-3.1-5.8c-1.5-1.7-3.2-3.1-5.2-4.1
		c-2.5-1.1-5.2-1.7-7.9-1.6c-2.7-0.1-5.3,0.4-7.8,1.5c-2.1,0.9-4,2.3-5.4,4.1c-1.5,1.7-2.6,3.7-3.4,5.9c-0.7,2.2-1.3,4.5-1.6,6.8
		H301.5z M238.1,147.3c-0.1-7.6,1.3-15.1,4.1-22.2c2.3-5.9,5.8-11.3,10.2-15.9c4.1-4.2,9.1-7.4,14.6-9.6c5.4-2.2,11.1-3.3,16.9-3.3
		c11.9-0.7,23.6,3.8,32,12.3c7.9,8.2,11.8,20.5,11.8,36.5c0,1.6,0,3.3,0,5.2s-0.2,3.5-0.4,5H266c0.4,5.4,3.2,10.3,7.7,13.4
		c5.5,3.5,12,5.2,18.5,4.9c4.9,0,9.8-0.4,14.6-1.4c4-0.7,7.9-1.9,11.7-3.5l3.6,21.9c-1.9,0.9-3.8,1.6-5.8,2.2
		c-2.7,0.8-5.4,1.4-8.2,1.9c-3,0.5-6.1,1-9.5,1.4c-3.4,0.4-6.7,0.5-10.1,0.5c-7.6,0.2-15.2-1-22.4-3.7c-6-2.3-11.3-5.8-15.8-10.4
		c-4.2-4.5-7.3-9.8-9.2-15.7c-2-6.3-3.1-12.9-3-19.6"/>
	<path class="st0" d="M339.3,102.6c5.9-1.6,11.8-2.8,17.9-3.7c7.6-1.2,15.3-1.7,22.9-1.7c6.9-0.2,13.8,0.9,20.3,3.2
		c5.1,1.8,9.5,4.9,13,9c3.2,4,5.6,8.7,6.8,13.8c1.4,5.8,2,11.8,2,17.7v53.8h-28v-50.6c0.5-6.3-0.7-12.7-3.4-18.4
		c-3-4-7.8-6.1-12.7-5.4c-1.9,0-4.1,0-6.1,0.3c-2,0.3-4.1,0.4-5.7,0.6v73.8h-26.6L339.3,102.6z"/>
	<path class="st0" d="M519,197.4c-7.8,0.2-15.5-1.1-22.8-3.7c-6-2.2-11.4-5.7-15.9-10.3c-4.2-4.5-7.4-9.9-9.3-15.7
		c-2-6.5-3-13.4-3-20.2V69.9h29.4v75.6c-0.1,4.4,0.5,8.8,1.7,12.9c0.9,3.2,2.5,6.2,4.7,8.7c1.9,2.2,4.4,3.9,7.3,4.8
		c3,1,6.1,1.5,9.3,1.5c6.2,0.3,12.3-2,16.8-6.4c4.1-4.1,6.4-11.4,6.4-21.6V69.9h28v77.4c0.1,6.9-1,13.7-3.1,20.3
		c-1.9,5.9-5.1,11.3-9.4,15.9c-4.5,4.6-10.1,8.1-16.1,10.2c-7.4,2.6-15.2,3.9-23.1,3.7"/>
	<path class="st0" d="M657.9,194.7c-2.5-4.1-45.4-53.3-45.4-53.3v53.3h-28V70h28v46c0,0,35.2-38.8,41.5-46h33.2l-51.6,56.5
		l55.5,68.1L657.9,194.7z"/>
	<g>
		<defs>
			<path id="SVGID_7_" d="M938.1,163.2L938.1,163.2c-19.8,38.7-67.3,54-106,34.2c-11.6-5.9-21.5-14.6-28.9-25.3
				c-8-11.7-23.9-14.9-35.7-7.1c-11.6,8-14.6,23.8-6.7,35.5l0,0c3.6,5.4,7.6,10.5,12,15.3c43,46.9,113.9,55.3,166.7,19.8
				c18.4-12.5,33.3-29.4,43.4-49.2C983.3,186.1,938.1,163.2,938.1,163.2z"/>
		</defs>
		<clipPath id="SVGID_1_">
			<use xlink:href="#SVGID_7_"  style="overflow:visible;"/>
		</clipPath>
		<g class="st4">
			<polygon class="st3" points="753,188.9 808.6,271.7 753,271.7 			"/>
			<polygon class="st3" points="753,185.3 811,271.7 808.6,271.7 753,188.9 			"/>
			<polygon class="st3" points="753,181.8 813.4,271.7 811,271.7 753,185.3 			"/>
			<polygon class="st3" points="753,178.2 815.7,271.7 813.4,271.7 753,181.8 			"/>
			<polygon class="st3" points="753,174.7 818.2,271.7 815.7,271.7 753,178.2 			"/>
			<polygon class="st3" points="753,171.1 820.5,271.7 818.2,271.7 753,174.7 			"/>
			<polygon class="st3" points="753,167.6 822.9,271.7 820.5,271.7 753,171.1 			"/>
			<polygon class="st3" points="753,165 753.4,164.7 825.3,271.7 822.9,271.7 753,167.6 			"/>
			<polygon class="st3" points="753.4,164.7 755.1,163.6 827.7,271.7 825.3,271.7 			"/>
			<polygon class="st3" points="755.1,163.6 756.7,162.5 830.1,271.7 827.7,271.7 			"/>
			<polygon class="st3" points="756.7,162.5 758.4,161.4 832.5,271.7 830.1,271.7 			"/>
			<polygon class="st3" points="758.4,161.4 760,160.3 834.8,271.7 832.5,271.7 			"/>
			<polygon class="st3" points="760,160.3 761.7,159.2 837.3,271.7 834.8,271.7 			"/>
			<polygon class="st3" points="761.7,159.2 763.3,158.1 839.6,271.7 837.3,271.7 			"/>
			<polygon class="st3" points="763.3,158.1 764.6,157.3 765.1,157.3 842,271.7 839.6,271.7 			"/>
			<polygon class="st3" points="767.5,157.3 844.4,271.7 842,271.7 765.1,157.3 			"/>
			<polygon class="st3" points="769.9,157.3 846.8,271.7 844.4,271.7 767.5,157.3 			"/>
			<polygon class="st3" points="772.3,157.3 849.2,271.7 846.8,271.7 769.9,157.3 			"/>
			<polygon class="st3" points="774.6,157.3 851.6,271.7 849.2,271.7 772.3,157.3 			"/>
			<polygon class="st3" points="777.1,157.3 854,271.7 851.6,271.7 774.6,157.3 			"/>
			<polygon class="st3" points="779.4,157.3 856.3,271.7 854,271.7 777.1,157.3 			"/>
			<polygon class="st3" points="781.8,157.3 858.7,271.7 856.3,271.7 779.4,157.3 			"/>
			<polygon class="st3" points="784.2,157.3 861.1,271.7 858.7,271.7 781.8,157.3 			"/>
			<polygon class="st3" points="786.6,157.3 863.5,271.7 861.1,271.7 784.2,157.3 			"/>
			<polygon class="st3" points="789,157.3 865.9,271.7 863.5,271.7 786.6,157.3 			"/>
			<polygon class="st3" points="791.4,157.3 868.3,271.7 865.9,271.7 789,157.3 			"/>
			<polygon class="st3" points="793.7,157.3 870.6,271.7 868.3,271.7 791.4,157.3 			"/>
			<polygon class="st3" points="796.2,157.3 873.1,271.7 870.6,271.7 793.7,157.3 			"/>
			<polygon class="st3" points="798.5,157.3 875.4,271.7 873.1,271.7 796.2,157.3 			"/>
			<polygon class="st3" points="800.9,157.3 877.8,271.7 875.4,271.7 798.5,157.3 			"/>
			<polygon class="st3" points="803.3,157.3 880.2,271.7 877.8,271.7 800.9,157.3 			"/>
			<polygon class="st3" points="805.7,157.3 882.6,271.7 880.2,271.7 803.3,157.3 			"/>
			<polygon class="st3" points="808.1,157.3 885,271.7 882.6,271.7 805.7,157.3 			"/>
			<polygon class="st3" points="810.5,157.3 887.4,271.7 885,271.7 808.1,157.3 			"/>
			<polygon class="st3" points="812.9,157.3 889.8,271.7 887.4,271.7 810.5,157.3 			"/>
			<polygon class="st5" points="815.3,157.3 892.2,271.7 889.8,271.7 812.9,157.3 			"/>
			<polygon class="st5" points="817.6,157.3 894.5,271.7 892.2,271.7 815.3,157.3 			"/>
			<polygon class="st6" points="820,157.3 896.9,271.7 894.5,271.7 817.6,157.3 			"/>
			<polygon class="st6" points="822.4,157.3 899.3,271.7 896.9,271.7 820,157.3 			"/>
			<polygon class="st6" points="824.8,157.3 901.3,271.2 900.6,271.7 899.3,271.7 822.4,157.3 			"/>
			<polygon class="st6" points="827.2,157.3 903,270.1 901.3,271.2 824.8,157.3 			"/>
			<polygon class="st6" points="829.6,157.3 904.7,268.9 903,270.1 827.2,157.3 			"/>
			<polygon class="st6" points="832,157.3 906.3,267.8 904.7,268.9 829.6,157.3 			"/>
			<polygon class="st7" points="834.3,157.3 907.9,266.7 906.3,267.8 832,157.3 			"/>
			<polygon class="st7" points="836.7,157.3 909.6,265.6 907.9,266.7 834.3,157.3 			"/>
			<polygon class="st7" points="839.1,157.3 911.2,264.5 909.6,265.6 836.7,157.3 			"/>
			<polygon class="st7" points="841.5,157.3 912.8,263.4 911.2,264.5 839.1,157.3 			"/>
			<polygon class="st7" points="843.9,157.3 914.5,262.3 912.8,263.4 841.5,157.3 			"/>
			<polygon class="st8" points="846.3,157.3 916.2,261.2 914.5,262.3 843.9,157.3 			"/>
			<polygon class="st8" points="848.7,157.3 917.8,260.1 916.2,261.2 846.3,157.3 			"/>
			<polygon class="st8" points="851.1,157.3 919.4,259 917.8,260.1 848.7,157.3 			"/>
			<polygon class="st9" points="853.4,157.3 921.1,257.9 919.4,259 851.1,157.3 			"/>
			<polygon class="st10" points="855.8,157.3 922.7,256.8 921.1,257.9 853.4,157.3 			"/>
			<polygon class="st11" points="858.2,157.3 924.4,255.7 922.7,256.8 855.8,157.3 			"/>
			<polygon class="st12" points="860.6,157.3 926,254.6 924.4,255.7 858.2,157.3 			"/>
			<polygon class="st13" points="863,157.3 927.7,253.5 926,254.6 860.6,157.3 			"/>
			<polygon class="st13" points="865.4,157.3 929.3,252.4 927.7,253.5 863,157.3 			"/>
			<polygon class="st14" points="867.8,157.3 931,251.2 929.3,252.4 865.4,157.3 			"/>
			<polygon class="st14" points="870.2,157.3 932.6,250.1 931,251.2 867.8,157.3 			"/>
			<polygon class="st15" points="872.5,157.3 934.2,249 932.6,250.1 870.2,157.3 			"/>
			<polygon class="st16" points="874.9,157.3 935.9,247.9 934.2,249 872.5,157.3 			"/>
			<polygon class="st17" points="877.3,157.3 937.5,246.9 935.9,247.9 874.9,157.3 			"/>
			<polygon class="st18" points="879.7,157.3 939.2,245.8 937.5,246.9 877.3,157.3 			"/>
			<polygon class="st19" points="882.1,157.3 940.8,244.6 939.2,245.8 879.7,157.3 			"/>
			<polygon class="st20" points="884.5,157.3 942.5,243.5 940.8,244.6 882.1,157.3 			"/>
			<polygon class="st21" points="886.9,157.3 944.1,242.4 942.5,243.5 884.5,157.3 			"/>
			<polygon class="st22" points="889.2,157.3 945.8,241.3 944.1,242.4 886.9,157.3 			"/>
			<polygon class="st23" points="891.6,157.3 947.4,240.2 945.8,241.3 889.2,157.3 			"/>
			<polygon class="st24" points="894,157.3 949,239.1 947.4,240.2 891.6,157.3 			"/>
			<polygon class="st25" points="896.4,157.3 950.7,238 949,239.1 894,157.3 			"/>
			<polygon class="st26" points="898.8,157.3 952.3,236.9 950.7,238 896.4,157.3 			"/>
			<polygon class="st27" points="901.2,157.3 954,235.8 952.3,236.9 898.8,157.3 			"/>
			<polygon class="st28" points="903.6,157.3 955.6,234.7 954,235.8 901.2,157.3 			"/>
			<polygon class="st29" points="906,157.3 957.3,233.6 955.6,234.7 903.6,157.3 			"/>
			<polygon class="st30" points="908.3,157.3 958.9,232.5 957.3,233.6 906,157.3 			"/>
			<polygon class="st31" points="910.7,157.3 960.5,231.4 958.9,232.5 908.3,157.3 			"/>
			<polygon class="st32" points="913.1,157.3 962.2,230.3 960.5,231.4 910.7,157.3 			"/>
			<polygon class="st33" points="915.5,157.3 963.8,229.2 962.2,230.3 913.1,157.3 			"/>
			<polygon class="st34" points="917.9,157.3 965.5,228.1 963.8,229.2 915.5,157.3 			"/>
			<polygon class="st35" points="920.3,157.3 967.1,226.9 965.5,228.1 917.9,157.3 			"/>
			<polygon class="st36" points="922.7,157.3 968.8,225.8 967.1,226.9 920.3,157.3 			"/>
			<polygon class="st37" points="925.1,157.3 970.4,224.7 968.8,225.8 922.7,157.3 			"/>
			<polygon class="st38" points="927.4,157.3 972.1,223.6 970.4,224.7 925.1,157.3 			"/>
			<polygon class="st39" points="929.8,157.3 973.7,222.5 972.1,223.6 927.4,157.3 			"/>
			<polygon class="st40" points="932.2,157.3 975.3,221.4 973.7,222.5 929.8,157.3 			"/>
			<polygon class="st41" points="934.6,157.3 977,220.3 975.3,221.4 932.2,157.3 			"/>
			<polygon class="st42" points="937,157.3 978.7,219.2 977,220.3 934.6,157.3 			"/>
			<polygon class="st43" points="939.4,157.3 980.3,218.1 978.7,219.2 937,157.3 			"/>
			<polygon class="st44" points="941.8,157.3 981.9,217 980.3,218.1 939.4,157.3 			"/>
			<polygon class="st45" points="944.2,157.3 983.3,215.6 983.3,216.1 981.9,217 941.8,157.3 			"/>
			<polygon class="st46" points="946.5,157.3 983.3,212 983.3,215.6 944.2,157.3 			"/>
			<polygon class="st47" points="948.9,157.3 983.3,208.4 983.3,212 946.5,157.3 			"/>
			<polygon class="st48" points="951.3,157.3 983.3,204.9 983.3,208.4 948.9,157.3 			"/>
			<polygon class="st49" points="953.7,157.3 983.3,201.3 983.3,204.9 951.3,157.3 			"/>
			<polygon class="st50" points="956.1,157.3 983.3,197.8 983.3,201.3 953.7,157.3 			"/>
			<polygon class="st51" points="958.5,157.3 983.3,194.3 983.3,197.8 956.1,157.3 			"/>
			<polygon class="st52" points="960.9,157.3 983.3,190.7 983.3,194.3 958.5,157.3 			"/>
			<polygon class="st53" points="963.2,157.3 983.3,187.1 983.3,190.7 960.9,157.3 			"/>
			<polygon class="st53" points="983.3,187.1 963.2,157.3 983.3,157.3 			"/>
		</g>
	</g>
	<g>
		<defs>
			<path id="SVGID_9_" d="M975,56.9C949.9,19.7,907.2-1.8,862.3,0.1c-1.1,0,0.7,50.7,0.9,50.7c42.9-2.9,80,29.6,82.9,72.5
				c0.9,13.8-1.8,27.6-8,40l0,0c-3.6,8.1-2.8,17.6,2.2,24.9c7.8,11.6,23.6,14.7,35.2,6.9c3.9-2.4,6.8-6,8.4-10.2
				C1003.4,143.5,1000,95.1,975,56.9z"/>
		</defs>
		<clipPath id="SVGID_2_">
			<use xlink:href="#SVGID_9_"  style="overflow:visible;"/>
		</clipPath>
		<g class="st54">
			<polygon class="st1" points="984.4,202.9 1002.4,110.8 1002.4,202.9 			"/>
			<polygon class="st1" points="924.4,202.9 963.9,1.4 1002.4,9 1002.4,110.8 984.4,202.9 			"/>
			<polygon class="st1" points="923.6,202.9 963.1,1.3 963.9,1.4 924.4,202.9 			"/>
			<polygon class="st1" points="922.8,202.9 962.4,1.1 963.1,1.3 923.6,202.9 			"/>
			<polygon class="st1" points="922.1,202.9 961.6,1 962.4,1.1 922.8,202.9 			"/>
			<polygon class="st55" points="921.3,202.9 960.9,0.9 961.6,1 922.1,202.9 			"/>
			<polygon class="st55" points="921.2,202.9 920.6,202.7 960.1,0.7 960.9,0.9 921.3,202.9 			"/>
			
				<rect x="837" y="101.2" transform="matrix(0.1924 -0.9813 0.9813 0.1924 659.3971 1004.439)" class="st56" width="205.9" height="0.8"/>
			
				<rect x="836.2" y="101.1" transform="matrix(0.1924 -0.9813 0.9813 0.1924 658.9537 1003.5638)" class="st56" width="205.9" height="0.8"/>
			
				<rect x="835.5" y="100.9" transform="matrix(0.1924 -0.9813 0.9813 0.1924 658.47 1002.7217)" class="st56" width="205.9" height="0.8"/>
			
				<rect x="834.8" y="100.8" transform="matrix(0.1924 -0.9813 0.9813 0.1924 658.0513 1001.8923)" class="st57" width="205.9" height="0.8"/>
			
				<rect x="834" y="100.6" transform="matrix(0.1924 -0.9813 0.9813 0.1924 657.5289 1001.0016)" class="st57" width="205.9" height="0.8"/>
			
				<rect x="833.3" y="100.5" transform="matrix(0.1924 -0.9813 0.9813 0.1924 657.1103 1000.1724)" class="st58" width="205.9" height="0.8"/>
			
				<rect x="832.5" y="100.4" transform="matrix(0.1924 -0.9813 0.9813 0.1924 656.6267 999.3302)" class="st59" width="205.9" height="0.8"/>
			
				<rect x="831.8" y="100.2" transform="matrix(0.1924 -0.9813 0.9813 0.1924 656.2081 998.5008)" class="st59" width="205.9" height="0.8"/>
			
				<rect x="831" y="100" transform="matrix(0.1924 -0.9813 0.9813 0.1924 655.7645 997.6257)" class="st60" width="205.9" height="0.8"/>
			
				<rect x="830.3" y="99.9" transform="matrix(0.1924 -0.9813 0.9813 0.1924 655.281 996.7835)" class="st60" width="205.9" height="0.8"/>
			
				<rect x="829.5" y="99.8" transform="matrix(0.1924 -0.9813 0.9813 0.1924 654.7833 995.9387)" class="st61" width="205.9" height="0.8"/>
			
				<rect x="828.8" y="99.6" transform="matrix(0.1924 -0.9813 0.9813 0.1924 654.34 995.0634)" class="st62" width="205.9" height="0.8"/>
			
				<rect x="828.1" y="99.5" transform="matrix(0.1924 -0.9813 0.9813 0.1924 653.9213 994.234)" class="st62" width="205.9" height="0.8"/>
			
				<rect x="827.3" y="99.3" transform="matrix(0.1924 -0.9813 0.9813 0.1924 653.4377 993.392)" class="st63" width="205.9" height="0.8"/>
			
				<rect x="826.6" y="99.2" transform="matrix(0.1924 -0.9813 0.9813 0.1924 653.019 992.5626)" class="st64" width="205.9" height="0.8"/>
			
				<rect x="825.8" y="99" transform="matrix(0.1924 -0.9813 0.9813 0.1924 652.5425 991.6472)" class="st64" width="205.9" height="0.8"/>
			<polygon class="st64" points="908.6,200.4 907.9,200.2 947.5,-1.6 948.2,-1.6 948.3,-1.6 			"/>
			<polygon class="st65" points="907.9,200.2 907.2,200.1 946.7,-1.6 947.5,-1.6 			"/>
			<polygon class="st66" points="907.2,200.1 906.4,199.9 945.9,-1.6 946.7,-1.6 			"/>
			<polygon class="st66" points="906.4,199.9 905.6,199.8 945.1,-1.6 945.9,-1.6 			"/>
			<polygon class="st67" points="905.6,199.8 904.9,199.7 944.4,-1.6 945.1,-1.6 			"/>
			<polygon class="st68" points="904.9,199.7 904.2,199.5 943.6,-1.6 944.4,-1.6 			"/>
			<polygon class="st69" points="904.2,199.5 903.4,199.3 942.8,-1.6 943.6,-1.6 			"/>
			<polygon class="st69" points="903.4,199.3 902.7,199.2 942.1,-1.6 942.8,-1.6 			"/>
			<polygon class="st70" points="902.7,199.2 901.9,199 941.3,-1.6 942.1,-1.6 			"/>
			<polygon class="st71" points="901.9,199 901.2,198.9 940.5,-1.6 941.3,-1.6 			"/>
			<polygon class="st72" points="901.2,198.9 900.4,198.8 939.7,-1.6 940.5,-1.6 			"/>
			<polygon class="st73" points="900.4,198.8 899.7,198.6 939,-1.6 939.7,-1.6 			"/>
			<polygon class="st74" points="899.7,198.6 899,198.5 938.2,-1.6 939,-1.6 			"/>
			<polygon class="st75" points="899,198.5 898.2,198.3 937.4,-1.6 938.2,-1.6 			"/>
			<polygon class="st76" points="898.2,198.3 897.4,198.2 936.7,-1.6 937.4,-1.6 			"/>
			<polygon class="st77" points="897.4,198.2 896.7,198 935.9,-1.6 936.7,-1.6 			"/>
			<polygon class="st78" points="896.7,198 896,197.9 935.1,-1.6 935.9,-1.6 			"/>
			<polygon class="st79" points="896,197.9 895.2,197.7 934.3,-1.6 935.1,-1.6 			"/>
			<polygon class="st80" points="895.2,197.7 894.5,197.6 933.5,-1.6 934.3,-1.6 			"/>
			<polygon class="st81" points="894.5,197.6 893.8,197.4 932.8,-1.6 933.5,-1.6 			"/>
			<polygon class="st82" points="893.8,197.4 893,197.3 932,-1.6 932.8,-1.6 			"/>
			<polygon class="st83" points="893,197.3 892.2,197.2 931.2,-1.6 932,-1.6 			"/>
			<polygon class="st83" points="892.2,197.2 891.5,197 930.5,-1.6 931.2,-1.6 			"/>
			<polygon class="st84" points="891.5,197 890.8,196.9 929.7,-1.6 930.5,-1.6 			"/>
			<polygon class="st85" points="890.8,196.9 890,196.7 928.9,-1.6 929.7,-1.6 			"/>
			<polygon class="st86" points="890,196.7 889.3,196.6 928.1,-1.6 928.9,-1.6 			"/>
			<polygon class="st87" points="889.3,196.6 888.5,196.4 927.4,-1.6 928.1,-1.6 			"/>
			<polygon class="st88" points="888.5,196.4 887.8,196.3 926.6,-1.6 927.4,-1.6 			"/>
			<polygon class="st89" points="887.8,196.3 887,196.1 925.8,-1.6 926.6,-1.6 			"/>
			<polygon class="st90" points="887,196.1 886.3,196 925.1,-1.6 925.8,-1.6 			"/>
			<polygon class="st91" points="886.3,196 885.6,195.9 924.3,-1.6 925.1,-1.6 			"/>
			<polygon class="st92" points="885.6,195.9 884.8,195.7 923.5,-1.6 924.3,-1.6 			"/>
			<polygon class="st93" points="884.8,195.7 884,195.6 922.7,-1.6 923.5,-1.6 			"/>
			<polygon class="st94" points="884,195.6 883.3,195.4 921.9,-1.6 922.7,-1.6 			"/>
			<polygon class="st95" points="883.3,195.4 882.6,195.3 921.2,-1.6 921.9,-1.6 			"/>
			<polygon class="st96" points="882.6,195.3 881.8,195.1 920.4,-1.6 921.2,-1.6 			"/>
			<polygon class="st97" points="881.8,195.1 881.1,195 919.7,-1.6 920.4,-1.6 			"/>
			<polygon class="st98" points="881.1,195 880.3,194.8 918.9,-1.6 919.7,-1.6 			"/>
			<polygon class="st99" points="880.3,194.8 879.6,194.7 918.1,-1.6 918.9,-1.6 			"/>
			<polygon class="st100" points="879.6,194.7 878.8,194.5 917.3,-1.6 918.1,-1.6 			"/>
			<polygon class="st100" points="878.8,194.5 878.1,194.4 916.5,-1.6 917.3,-1.6 			"/>
			<polygon class="st101" points="878.1,194.4 877.4,194.3 915.8,-1.6 916.5,-1.6 			"/>
			<polygon class="st102" points="877.4,194.3 876.6,194.1 915,-1.6 915.8,-1.6 			"/>
			<polygon class="st102" points="876.6,194.1 875.9,194 914.2,-1.6 915,-1.6 			"/>
			<polygon class="st103" points="875.9,194 875.1,193.8 913.5,-1.6 914.2,-1.6 			"/>
			<polygon class="st104" points="875.1,193.8 874.4,193.7 912.7,-1.6 913.5,-1.6 			"/>
			<polygon class="st105" points="874.4,193.7 873.6,193.5 911.9,-1.6 912.7,-1.6 			"/>
			<polygon class="st106" points="873.6,193.5 872.9,193.4 911.1,-1.6 911.9,-1.6 			"/>
			<polygon class="st107" points="872.9,193.4 872.2,193.2 910.4,-1.6 911.1,-1.6 			"/>
			<polygon class="st108" points="872.2,193.2 871.4,193.1 909.6,-1.6 910.4,-1.6 			"/>
			<polygon class="st109" points="871.4,193.1 870.6,192.9 908.8,-1.6 909.6,-1.6 			"/>
			<polygon class="st110" points="870.6,192.9 869.9,192.8 908.1,-1.6 908.8,-1.6 			"/>
			<polygon class="st111" points="869.9,192.8 869.2,192.7 907.3,-1.6 908.1,-1.6 			"/>
			<polygon class="st112" points="869.2,192.7 868.4,192.5 906.5,-1.6 907.3,-1.6 			"/>
			<polygon class="st113" points="868.4,192.5 867.7,192.3 905.7,-1.6 906.5,-1.6 			"/>
			<polygon class="st114" points="867.7,192.3 867,192.2 904.9,-1.6 905.7,-1.6 			"/>
			<polygon class="st115" points="867,192.2 866.2,192 904.2,-1.6 904.9,-1.6 			"/>
			<polygon class="st116" points="866.2,192 865.4,191.9 903.4,-1.6 904.2,-1.6 			"/>
			<polygon class="st116" points="865.4,191.9 864.7,191.8 902.6,-1.6 903.4,-1.6 			"/>
			<polygon class="st117" points="864.7,191.8 864,191.6 901.9,-1.6 902.6,-1.6 			"/>
			<polygon class="st118" points="864,191.6 863.2,191.5 901.1,-1.6 901.9,-1.6 			"/>
			<polygon class="st119" points="863.2,191.5 862.5,191.3 900.3,-1.6 901.1,-1.6 			"/>
			<polygon class="st120" points="862.5,191.3 861.7,191.2 899.5,-1.6 900.3,-1.6 			"/>
			<polygon class="st120" points="861.7,191.2 861.2,191.1 861.2,190 898.8,-1.6 899.5,-1.6 			"/>
			<polygon class="st121" points="861.2,186.1 898,-1.6 898.8,-1.6 861.2,190 			"/>
			<polygon class="st122" points="861.2,182.2 897.2,-1.6 898,-1.6 861.2,186.1 			"/>
			<polygon class="st123" points="861.2,178.2 896.5,-1.6 897.2,-1.6 861.2,182.2 			"/>
			<polygon class="st124" points="861.2,174.3 895.7,-1.6 896.5,-1.6 861.2,178.2 			"/>
			<polygon class="st125" points="861.2,170.3 894.9,-1.6 895.7,-1.6 861.2,174.3 			"/>
			<polygon class="st126" points="861.2,166.4 894.1,-1.6 894.9,-1.6 861.2,170.3 			"/>
			<polygon class="st127" points="861.2,162.5 893.3,-1.6 894.1,-1.6 861.2,166.4 			"/>
			<polygon class="st127" points="861.2,158.5 892.6,-1.6 893.3,-1.6 861.2,162.5 			"/>
			<polygon class="st128" points="861.2,154.5 891.8,-1.6 892.6,-1.6 861.2,158.5 			"/>
			<polygon class="st129" points="861.2,150.6 891.1,-1.6 891.8,-1.6 861.2,154.5 			"/>
			<polygon class="st130" points="861.2,146.7 890.3,-1.6 891.1,-1.6 861.2,150.6 			"/>
			<polygon class="st131" points="861.2,142.7 889.5,-1.6 890.3,-1.6 861.2,146.7 			"/>
			<polygon class="st131" points="861.2,138.8 888.7,-1.6 889.5,-1.6 861.2,142.7 			"/>
			<polygon class="st132" points="861.2,134.8 887.9,-1.6 888.7,-1.6 861.2,138.8 			"/>
			<polygon class="st133" points="861.2,130.9 887.2,-1.6 887.9,-1.6 861.2,134.8 			"/>
			<polygon class="st134" points="861.2,127 886.4,-1.6 887.2,-1.6 861.2,130.9 			"/>
			<polygon class="st135" points="861.2,123 885.6,-1.6 886.4,-1.6 861.2,127 			"/>
			<polygon class="st136" points="861.2,119.1 884.8,-1.6 885.6,-1.6 861.2,123 			"/>
			<polygon class="st137" points="861.2,115.1 884.1,-1.6 884.8,-1.6 861.2,119.1 			"/>
			<polygon class="st138" points="861.2,111.2 883.3,-1.6 884.1,-1.6 861.2,115.1 			"/>
			<polygon class="st139" points="861.2,107.3 882.5,-1.6 883.3,-1.6 861.2,111.2 			"/>
			<polygon class="st140" points="861.2,103.3 881.8,-1.6 882.5,-1.6 861.2,107.3 			"/>
			<polygon class="st140" points="861.2,99.4 881,-1.6 881.8,-1.6 861.2,103.3 			"/>
			<polygon class="st141" points="861.2,95.4 880.2,-1.6 881,-1.6 861.2,99.4 			"/>
			<polygon class="st141" points="861.2,91.5 879.4,-1.6 880.2,-1.6 861.2,95.4 			"/>
			<polygon class="st142" points="861.2,87.6 878.7,-1.6 879.4,-1.6 861.2,91.5 			"/>
			<polygon class="st143" points="861.2,83.6 877.9,-1.6 878.7,-1.6 861.2,87.6 			"/>
			<polygon class="st143" points="861.2,79.6 877.1,-1.6 877.9,-1.6 861.2,83.6 			"/>
			<polygon class="st144" points="861.2,75.7 876.3,-1.6 877.1,-1.6 861.2,79.6 			"/>
			<polygon class="st145" points="861.2,71.8 875.6,-1.6 876.3,-1.6 861.2,75.7 			"/>
			<polygon class="st145" points="875.6,-1.6 861.2,71.8 861.2,-1.6 			"/>
		</g>
	</g>
	<g>
		<defs>
			<path id="SVGID_11_" d="M858.8,0.3c-71.1,5.3-124.5,67.2-119.2,138.3c1.6,22.1,9,43.5,21.2,61.9l0,0l42.4-28.4
				c-24-35.7-14.5-84.1,21.2-108c0.1-0.1,0.2-0.1,0.3-0.2c11.2-7.5,24.2-12,37.7-13.1c5.2-0.1,10.3-1.9,14.5-5.1
				c11.2-8.4,13.5-24.3,5-35.5C876.6,3.1,867.8-0.7,858.8,0.3z"/>
		</defs>
		<clipPath id="SVGID_3_">
			<use xlink:href="#SVGID_11_"  style="overflow:visible;"/>
		</clipPath>
		<g class="st146">
			<polygon class="st147" points="721.3,141.8 760.8,200.6 721.3,200.6 			"/>
			<polygon class="st147" points="721.3,137.3 763.9,200.6 760.8,200.6 721.3,141.8 			"/>
			<polygon class="st148" points="721.3,132.7 767,200.6 763.9,200.6 721.3,137.3 			"/>
			<polygon class="st149" points="721.3,128.1 770.1,200.6 767,200.6 721.3,132.7 			"/>
			<polygon class="st150" points="721.3,123.5 773.2,200.6 770.1,200.6 721.3,128.1 			"/>
			<polygon class="st151" points="721.3,118.9 776.1,200.4 775.8,200.6 773.2,200.6 721.3,123.5 			"/>
			<polygon class="st152" points="721.3,114.3 778.2,198.9 776.1,200.4 721.3,118.9 			"/>
			<polygon class="st153" points="721.3,109.7 780.3,197.5 778.2,198.9 721.3,114.3 			"/>
			<polygon class="st154" points="721.3,105.1 782.5,196.1 780.3,197.5 721.3,109.7 			"/>
			<polygon class="st155" points="721.3,100.5 784.6,194.7 782.5,196.1 721.3,105.1 			"/>
			<polygon class="st156" points="721.3,95.9 786.7,193.2 784.6,194.7 721.3,100.5 			"/>
			<polygon class="st157" points="721.3,91.3 788.9,191.8 786.7,193.2 721.3,95.9 			"/>
			<polygon class="st158" points="721.3,86.7 791,190.4 788.9,191.8 721.3,91.3 			"/>
			<polygon class="st159" points="721.3,82.1 793.1,188.9 791,190.4 721.3,86.7 			"/>
			<polygon class="st160" points="721.3,77.6 795.2,187.5 793.1,188.9 721.3,82.1 			"/>
			<polygon class="st161" points="721.3,73 797.3,186.1 795.2,187.5 721.3,77.6 			"/>
			<polygon class="st162" points="721.3,68.4 799.5,184.7 797.3,186.1 721.3,73 			"/>
			<polygon class="st163" points="721.3,63.8 801.6,183.2 799.5,184.7 721.3,68.4 			"/>
			<polygon class="st164" points="721.3,62.5 722.9,61.5 803.7,181.8 801.6,183.2 721.3,63.8 			"/>
			
				<rect x="763" y="48.4" transform="matrix(0.8299 -0.5579 0.5579 0.8299 62.5625 446.9496)" class="st165" width="2.5" height="145"/>
			
				<rect x="765.2" y="46.9" transform="matrix(0.8299 -0.5579 0.5579 0.8299 63.7307 447.9083)" class="st166" width="2.5" height="145"/>
			
				<rect x="767.3" y="45.5" transform="matrix(0.8299 -0.5579 0.5579 0.8299 64.8918 448.8441)" class="st167" width="2.5" height="145"/>
			
				<rect x="769.4" y="44.1" transform="matrix(0.8299 -0.5579 0.5579 0.8299 66.053 449.78)" class="st168" width="2.5" height="145"/>
			
				<rect x="771.5" y="42.6" transform="matrix(0.8299 -0.5579 0.5579 0.8299 67.2142 450.7159)" class="st169" width="2.5" height="145"/>
			
				<rect x="773.7" y="41.2" transform="matrix(0.8299 -0.5579 0.5579 0.8299 68.3823 451.6746)" class="st170" width="2.5" height="145"/>
			
				<rect x="775.8" y="39.7" transform="matrix(0.8299 -0.5579 0.5579 0.8299 69.5435 452.6105)" class="st171" width="2.5" height="145"/>
			
				<rect x="777.9" y="38.3" transform="matrix(0.8299 -0.5579 0.5579 0.8299 70.6896 453.5649)" class="st172" width="2.5" height="145"/>
			
				<rect x="780.5" y="35" transform="matrix(0.829 -0.5593 0.5593 0.829 73.5172 455.626)" class="st173" width="2.5" height="145.2"/>
			
				<rect x="782.2" y="35.5" transform="matrix(0.8299 -0.5579 0.5579 0.8299 73.0004 455.4444)" class="st174" width="2.5" height="145"/>
			
				<rect x="784.7" y="32.1" transform="matrix(0.829 -0.5593 0.5593 0.829 75.8518 457.4962)" class="st175" width="2.5" height="145.2"/>
			
				<rect x="786.4" y="32.6" transform="matrix(0.8299 -0.5579 0.5579 0.8299 75.3227 457.3162)" class="st176" width="2.5" height="145"/>
			
				<rect x="788.6" y="31.2" transform="matrix(0.8299 -0.5579 0.5579 0.8299 76.4908 458.2749)" class="st177" width="2.5" height="145"/>
			
				<rect x="791.1" y="27.8" transform="matrix(0.829 -0.5593 0.5593 0.829 79.3607 460.3245)" class="st178" width="2.5" height="145.2"/>
			
				<rect x="792.8" y="28.3" transform="matrix(0.8299 -0.5579 0.5579 0.8299 78.7981 460.1652)" class="st179" width="2.5" height="145"/>
			
				<rect x="795.3" y="25" transform="matrix(0.829 -0.5593 0.5593 0.829 81.6616 462.1982)" class="st180" width="2.5" height="145.2"/>
			
				<rect x="797.1" y="25.5" transform="matrix(0.8299 -0.5579 0.5579 0.8299 81.1089 462.0447)" class="st181" width="2.5" height="145"/>
			
				<rect x="799.5" y="22.1" transform="matrix(0.829 -0.5593 0.5593 0.829 84.0032 464.0914)" class="st182" width="2.5" height="145.2"/>
			
				<rect x="801.3" y="22.6" transform="matrix(0.8299 -0.5579 0.5579 0.8299 83.4312 463.9164)" class="st183" width="2.5" height="145"/>
			
				<rect x="803.4" y="21.2" transform="matrix(0.8299 -0.5579 0.5579 0.8299 84.5924 464.8523)" class="st183" width="2.5" height="145"/>
			
				<rect x="805.6" y="19.8" transform="matrix(0.8299 -0.5579 0.5579 0.8299 85.7605 465.811)" class="st184" width="2.5" height="145"/>
			
				<rect x="807.7" y="18.4" transform="matrix(0.8299 -0.5579 0.5579 0.8299 86.9066 466.7654)" class="st185" width="2.5" height="145"/>
			
				<rect x="809.8" y="16.9" transform="matrix(0.8299 -0.5579 0.5579 0.8299 88.0492 467.6862)" class="st186" width="2.5" height="145"/>
			
				<rect x="811.9" y="15.5" transform="matrix(0.8299 -0.5579 0.5579 0.8299 89.2104 468.6221)" class="st187" width="2.5" height="145"/>
			
				<rect x="814" y="14.1" transform="matrix(0.8299 -0.5579 0.5579 0.8299 90.3786 469.5808)" class="st188" width="2.5" height="145"/>
			
				<rect x="816.2" y="12.6" transform="matrix(0.8299 -0.5579 0.5579 0.8299 91.5397 470.5167)" class="st189" width="2.5" height="145"/>
			
				<rect x="818.6" y="9.2" transform="matrix(0.829 -0.5593 0.5593 0.829 94.4892 472.5567)" class="st190" width="2.5" height="145.2"/>
			
				<rect x="820.4" y="9.8" transform="matrix(0.8299 -0.5579 0.5579 0.8299 93.869 472.4113)" class="st191" width="2.5" height="145"/>
			
				<rect x="822.9" y="6.3" transform="matrix(0.829 -0.5593 0.5593 0.829 96.8158 474.4685)" class="st192" width="2.5" height="145.2"/>
			
				<rect x="824.7" y="6.9" transform="matrix(0.8299 -0.5579 0.5579 0.8299 96.1763 474.3015)" class="st193" width="2.5" height="145"/>
			
				<rect x="826.8" y="5.5" transform="matrix(0.8299 -0.5579 0.5579 0.8299 97.3189 475.2224)" class="st194" width="2.5" height="145"/>
			
				<rect x="829.3" y="2" transform="matrix(0.829 -0.5593 0.5593 0.829 100.306 477.2816)" class="st194" width="2.5" height="145.2"/>
			
				<rect x="831" y="2.6" transform="matrix(0.8299 -0.5579 0.5579 0.8299 99.6482 477.1169)" class="st195" width="2.5" height="145"/>
			
				<rect x="833.5" y="-0.8" transform="matrix(0.829 -0.5593 0.5593 0.829 102.6406 479.1519)" class="st2" width="2.5" height="145.2"/>
			
				<rect x="835.3" y="-0.2" transform="matrix(0.8299 -0.5579 0.5579 0.8299 101.9706 478.9887)" class="st2" width="2.5" height="145"/>
			
				<rect x="837.8" y="-3.7" transform="matrix(0.829 -0.5593 0.5593 0.829 104.9672 481.0637)" class="st2" width="2.5" height="145.2"/>
			<polygon class="st2" points="799.4,10 815.8,-1 874.4,-1 889.9,22.1 889.9,123.9 880.2,130.4 			"/>
			<polygon class="st2" points="889.9,22.1 874.4,-1 889.9,-1 			"/>
		</g>
	</g>
	<path class="st3" d="M816.8,187.5c-5.2-4.5-9.7-9.6-13.6-15.3c-8-11.7-23.9-14.9-35.7-7.1c-11.6,8-14.6,23.8-6.7,35.5l0,0
		c4.1,6.1,8.6,11.9,13.7,17.3C786.8,230.6,826,195.4,816.8,187.5z"/>
</g>
</svg>
