<?xml version="1.0" encoding="UTF-8" standalone="no"?>
<!-- Created with Inkscape (http://www.inkscape.org/) -->

<svg
   version="1.1"
   id="svg182"
   width="390.5"
   height="149.52235"
   viewBox="0 0 390.5 149.52235"
   sodipodi:docname="Open-Emission-Factors-DB.svg"
   inkscape:version="1.2.2 (b0a84865, 2022-12-01)"
   xmlns:inkscape="http://www.inkscape.org/namespaces/inkscape"
   xmlns:sodipodi="http://sodipodi.sourceforge.net/DTD/sodipodi-0.dtd"
   xmlns="http://www.w3.org/2000/svg"
   xmlns:svg="http://www.w3.org/2000/svg">
  <defs
     id="defs186" />
  <sodipodi:namedview
     id="namedview184"
     pagecolor="#ffffff"
     bordercolor="#666666"
     borderopacity="1.0"
     inkscape:showpageshadow="2"
     inkscape:pageopacity="0.0"
     inkscape:pagecheckerboard="0"
     inkscape:deskcolor="#d1d1d1"
     showgrid="false"
     inkscape:zoom="1.3062462"
     inkscape:cx="180.28761"
     inkscape:cy="53.588673"
     inkscape:window-width="1368"
     inkscape:window-height="480"
     inkscape:window-x="1868"
     inkscape:window-y="340"
     inkscape:window-maximized="0"
     inkscape:current-layer="g188" />
  <g
     inkscape:groupmode="layer"
     inkscape:label="Image"
     id="g188"
     transform="translate(-6,-6.2761626)">
    <g
       aria-label="Open-Emission-Factors-DB"
       id="text433"
       style="font-size:40px"
       transform="matrix(0.69568103,0,0,0.69568103,-6.8966608,60.19437)">
      <path
         d="m 54.676931,103.63618 q 1.777344,1.95313 2.714844,4.78516 0.957031,2.83203 0.957031,6.42578 0,3.59375 -0.976562,6.44531 -0.957031,2.83204 -2.695313,4.72657 -1.796875,1.97265 -4.257812,2.96875 -2.441406,0.99609 -5.585938,0.99609 -3.066406,0 -5.585937,-1.01562 -2.5,-1.01563 -4.257813,-2.94922 -1.757812,-1.9336 -2.714843,-4.7461 -0.9375,-2.8125 -0.9375,-6.42578 0,-3.55469 0.9375,-6.36719 0.9375,-2.83203 2.734375,-4.84375 1.71875,-1.91406 4.257812,-2.92968 2.558594,-1.015628 5.566406,-1.015628 3.125,0 5.605469,1.035158 2.5,1.01562 4.238281,2.91015 z m -0.351562,11.21094 q 0,-5.66406 -2.539063,-8.73047 -2.539062,-3.08593 -6.933593,-3.08593 -4.433594,0 -6.972657,3.08593 -2.519531,3.06641 -2.519531,8.73047 0,5.72266 2.578125,8.76953 2.578125,3.02735 6.914063,3.02735 4.335937,0 6.894531,-3.02735 2.578125,-3.04687 2.578125,-8.76953 z"
         id="path539" />
      <path
         d="m 83.387869,118.2065 q 0,2.65625 -0.761719,4.86328 -0.761719,2.1875 -2.148437,3.71094 -1.289063,1.44531 -3.046875,2.24609 -1.738282,0.78125 -3.691407,0.78125 -1.699218,0 -3.085937,-0.37109 -1.367188,-0.3711 -2.792969,-1.15235 v 9.14063 H 64.18865 v -29.86328 h 3.671875 v 2.28515 q 1.464844,-1.23047 3.28125,-2.05078 1.835938,-0.83984 3.90625,-0.83984 3.945313,0 6.132813,2.98828 2.207031,2.96875 2.207031,8.26172 z m -3.789063,0.0977 q 0,-3.94531 -1.347656,-5.89843 -1.347656,-1.95313 -4.140625,-1.95313 -1.582031,0 -3.183594,0.68359 -1.601562,0.6836 -3.066406,1.79688 v 12.36328 q 1.5625,0.70313 2.675781,0.95703 1.132813,0.25391 2.558594,0.25391 3.066406,0 4.785156,-2.07031 1.71875,-2.07032 1.71875,-6.13282 z"
         id="path541" />
      <path
         d="M 107.37224,118.85103 H 91.298025 q 0,2.01172 0.605469,3.51562 0.605469,1.48438 1.660156,2.44141 1.015625,0.9375 2.402344,1.40625 1.40625,0.46875 3.085937,0.46875 2.226559,0 4.472659,-0.87891 2.26562,-0.89843 3.22265,-1.75781 h 0.19532 v 4.00391 q -1.85547,0.78125 -3.78907,1.30859 -1.93359,0.52734 -4.062496,0.52734 -5.429688,0 -8.476563,-2.92968 -3.046875,-2.94922 -3.046875,-8.35938 0,-5.35156 2.910157,-8.49609 2.929687,-3.14453 7.695312,-3.14453 4.414065,0 6.796875,2.57812 2.40234,2.57813 2.40234,7.32422 z m -3.57421,-2.8125 q -0.0195,-2.89063 -1.46485,-4.47266 -1.42578,-1.58203 -4.355467,-1.58203 -2.949219,0 -4.707032,1.73828 -1.738281,1.73828 -1.972656,4.31641 z"
         id="path543" />
      <path
         d="m 131.18084,129.37837 h -3.67188 V 116.9565 q 0,-1.50391 -0.17578,-2.8125 -0.17578,-1.32813 -0.64453,-2.07032 -0.48828,-0.82031 -1.40625,-1.21093 -0.91797,-0.41016 -2.38281,-0.41016 -1.50391,0 -3.14453,0.74219 -1.64063,0.74219 -3.14453,1.89453 v 16.28906 h -3.67188 v -21.8164 h 3.67188 v 2.42187 q 1.71875,-1.42578 3.55468,-2.22656 1.83594,-0.80078 3.76953,-0.80078 3.53516,0 5.39063,2.1289 1.85547,2.12891 1.85547,6.13282 z"
         id="path545" />
      <path
         d="m 149.81365,118.42134 h -12.1875 v -3.53516 h 12.1875 z"
         id="path547" />
      <path
         d="m 175.86834,129.37837 h -19.16016 v -29.08203 h 19.16016 v 3.4375 h -15.29297 v 7.96875 h 15.29297 v 3.4375 h -15.29297 v 10.80078 h 15.29297 z"
         id="path549" />
      <path
         d="m 213.54412,129.37837 h -3.67188 V 116.9565 q 0,-1.40625 -0.13671,-2.71485 -0.11719,-1.30859 -0.52735,-2.08984 -0.44922,-0.83984 -1.28906,-1.26953 -0.83984,-0.42969 -2.42188,-0.42969 -1.54296,0 -3.08593,0.78125 -1.54297,0.76172 -3.08594,1.95313 0.0586,0.44921 0.0977,1.05468 0.0391,0.58594 0.0391,1.17188 v 13.96484 h -3.67188 V 116.9565 q 0,-1.44532 -0.13672,-2.73438 -0.11718,-1.30859 -0.52734,-2.08984 -0.44922,-0.83985 -1.28906,-1.25 -0.83985,-0.42969 -2.42188,-0.42969 -1.5039,0 -3.02734,0.74219 -1.50391,0.74219 -3.00781,1.89453 v 16.28906 h -3.67188 v -21.8164 h 3.67188 v 2.42187 q 1.71875,-1.42578 3.41797,-2.22656 1.71875,-0.80078 3.65234,-0.80078 2.22656,0 3.76953,0.9375 1.5625,0.9375 2.32422,2.59765 2.22656,-1.875 4.0625,-2.69531 1.83594,-0.83984 3.92578,-0.83984 3.59375,0 5.29297,2.1875 1.71875,2.16797 1.71875,6.07422 z"
         id="path551" />
      <path
         d="m 224.55974,103.90962 h -4.14062 v -3.80859 h 4.14062 z m -0.23437,25.46875 h -3.67188 v -21.8164 h 3.67188 z"
         id="path553" />
      <path
         d="m 247.17693,123.08931 q 0,2.98828 -2.48047,4.90234 -2.46093,1.91407 -6.73828,1.91407 -2.42187,0 -4.45312,-0.56641 -2.01172,-0.58594 -3.37891,-1.26953 v -4.1211 h 0.19531 q 1.73828,1.3086 3.86719,2.08985 2.12891,0.76172 4.08203,0.76172 2.42188,0 3.78906,-0.78125 1.36719,-0.78125 1.36719,-2.46094 0,-1.28906 -0.74219,-1.95313 -0.74218,-0.66406 -2.85156,-1.13281 -0.78125,-0.17578 -2.05078,-0.41015 -1.25,-0.23438 -2.28516,-0.50782 -2.87109,-0.76172 -4.08203,-2.22656 -1.1914,-1.48437 -1.1914,-3.63281 0,-1.34766 0.54687,-2.53906 0.56641,-1.19141 1.69922,-2.12891 1.09375,-0.91797 2.77344,-1.44531 1.69922,-0.54688 3.78906,-0.54688 1.95313,0 3.94531,0.48828 2.01172,0.46875 3.33985,1.15235 v 3.92578 h -0.19532 q -1.40625,-1.03516 -3.41796,-1.73828 -2.01172,-0.72266 -3.94532,-0.72266 -2.01172,0 -3.39843,0.78125 -1.38672,0.76172 -1.38672,2.28516 0,1.34765 0.83984,2.03125 0.82031,0.68359 2.65625,1.11328 1.01563,0.23437 2.26563,0.46875 1.26953,0.23437 2.10937,0.42969 2.55859,0.58593 3.94531,2.01171 1.38672,1.44532 1.38672,3.82813 z"
         id="path555" />
      <path
         d="m 268.01678,123.08931 q 0,2.98828 -2.48047,4.90234 -2.46094,1.91407 -6.73828,1.91407 -2.42188,0 -4.45313,-0.56641 -2.01172,-0.58594 -3.37891,-1.26953 v -4.1211 h 0.19532 q 1.73828,1.3086 3.86718,2.08985 2.12891,0.76172 4.08204,0.76172 2.42187,0 3.78906,-0.78125 1.36719,-0.78125 1.36719,-2.46094 0,-1.28906 -0.74219,-1.95313 -0.74219,-0.66406 -2.85156,-1.13281 -0.78125,-0.17578 -2.05079,-0.41015 -1.25,-0.23438 -2.28515,-0.50782 -2.8711,-0.76172 -4.08203,-2.22656 -1.19141,-1.48437 -1.19141,-3.63281 0,-1.34766 0.54688,-2.53906 0.5664,-1.19141 1.69921,-2.12891 1.09375,-0.91797 2.77344,-1.44531 1.69922,-0.54688 3.78906,-0.54688 1.95313,0 3.94532,0.48828 2.01172,0.46875 3.33984,1.15235 v 3.92578 h -0.19531 q -1.40625,-1.03516 -3.41797,-1.73828 -2.01172,-0.72266 -3.94531,-0.72266 -2.01172,0 -3.39844,0.78125 -1.38672,0.76172 -1.38672,2.28516 0,1.34765 0.83984,2.03125 0.82032,0.68359 2.65625,1.11328 1.01563,0.23437 2.26563,0.46875 1.26953,0.23437 2.10937,0.42969 2.5586,0.58593 3.94532,2.01171 1.38672,1.44532 1.38672,3.82813 z"
         id="path557" />
      <path
         d="m 277.21599,103.90962 h -4.14062 v -3.80859 h 4.14062 z m -0.23437,25.46875 h -3.67188 v -21.8164 h 3.67188 z"
         id="path559" />
      <path
         d="m 302.84099,118.47993 q 0,5.33204 -2.73437,8.41797 -2.73438,3.08594 -7.32422,3.08594 -4.62891,0 -7.36328,-3.08594 -2.71484,-3.08593 -2.71484,-8.41797 0,-5.33203 2.71484,-8.41796 2.73437,-3.10547 7.36328,-3.10547 4.58984,0 7.32422,3.10547 2.73437,3.08593 2.73437,8.41796 z m -3.78906,0 q 0,-4.23828 -1.66015,-6.28906 -1.66016,-2.07031 -4.60938,-2.07031 -2.98828,0 -4.64844,2.07031 -1.64062,2.05078 -1.64062,6.28906 0,4.10157 1.66015,6.23047 1.66016,2.10938 4.62891,2.10938 2.92969,0 4.58984,-2.08985 1.67969,-2.10937 1.67969,-6.25 z"
         id="path561" />
      <path
         d="M 326.76678,129.37837 H 323.0949 V 116.9565 q 0,-1.50391 -0.17578,-2.8125 -0.17578,-1.32813 -0.64453,-2.07032 -0.48828,-0.82031 -1.40625,-1.21093 -0.91797,-0.41016 -2.38281,-0.41016 -1.50391,0 -3.14454,0.74219 -1.64062,0.74219 -3.14453,1.89453 v 16.28906 h -3.67187 v -21.8164 h 3.67187 v 2.42187 q 1.71875,-1.42578 3.55469,-2.22656 1.83594,-0.80078 3.76953,-0.80078 3.53516,0 5.39063,2.1289 1.85547,2.12891 1.85547,6.13282 z"
         id="path563" />
      <path
         d="m 345.39959,118.42134 h -12.1875 v -3.53516 h 12.1875 z"
         id="path565" />
      <path
         d="m 370.86834,103.73384 h -14.70703 v 8.20313 h 12.63672 v 3.4375 h -12.63672 v 14.0039 h -3.86719 v -29.08203 h 18.57422 z"
         id="path567" />
      <path
         d="m 389.98943,129.37837 h -3.65234 v -2.32422 q -0.48828,0.33203 -1.32813,0.9375 -0.82031,0.58594 -1.60156,0.9375 -0.91797,0.44922 -2.10937,0.74219 -1.19141,0.3125 -2.79297,0.3125 -2.94922,0 -5,-1.95312 -2.05078,-1.95313 -2.05078,-4.98047 0,-2.48047 1.05468,-4.00391 1.07422,-1.54297 3.04688,-2.42187 1.99219,-0.87891 4.78515,-1.19141 2.79297,-0.3125 5.9961,-0.46875 v -0.56641 q 0,-1.25 -0.44922,-2.07031 -0.42969,-0.82031 -1.25,-1.28906 -0.78125,-0.44922 -1.875,-0.60547 -1.09375,-0.15625 -2.28516,-0.15625 -1.44531,0 -3.22265,0.39062 -1.77735,0.3711 -3.67188,1.09375 h -0.19531 v -3.73046 q 1.07422,-0.29297 3.10547,-0.64454 2.03125,-0.35156 4.0039,-0.35156 2.30469,0 4.00391,0.39063 1.71875,0.37109 2.96875,1.28906 1.23047,0.89844 1.875,2.32422 0.64453,1.42578 0.64453,3.53515 z m -3.65234,-5.37109 v -6.07422 q -1.67969,0.0977 -3.96485,0.29297 -2.26562,0.19531 -3.59375,0.5664 -1.58203,0.44922 -2.55859,1.40625 -0.97656,0.9375 -0.97656,2.59766 0,1.875 1.13281,2.83203 1.13281,0.9375 3.45703,0.9375 1.9336,0 3.53516,-0.74219 1.60156,-0.76171 2.96875,-1.8164 z"
         id="path569" />
      <path
         d="m 413.19256,128.01118 q -1.83594,0.87891 -3.4961,1.36719 -1.64062,0.48828 -3.49609,0.48828 -2.36328,0 -4.33594,-0.68359 -1.97265,-0.70313 -3.3789,-2.10938 -1.42579,-1.40625 -2.20704,-3.55468 -0.78125,-2.14844 -0.78125,-5.01953 0,-5.35157 2.92969,-8.39844 2.94922,-3.04688 7.77344,-3.04688 1.875,0 3.67187,0.52735 1.81641,0.52734 3.32032,1.28906 v 4.08203 h -0.19532 q -1.67968,-1.30859 -3.47656,-2.01172 -1.77734,-0.70312 -3.47656,-0.70312 -3.125,0 -4.94141,2.10937 -1.79687,2.08985 -1.79687,6.15235 0,3.94531 1.75781,6.07421 1.77734,2.10938 4.98047,2.10938 1.11328,0 2.26562,-0.29297 1.15235,-0.29297 2.07032,-0.76172 0.80078,-0.41015 1.5039,-0.85937 0.70313,-0.46875 1.11328,-0.80078 h 0.19532 z"
         id="path571" />
      <path
         d="m 429.22771,129.18306 q -1.03515,0.27344 -2.26562,0.44922 -1.21094,0.17578 -2.16797,0.17578 -3.33984,0 -5.07813,-1.79688 -1.73828,-1.79687 -1.73828,-5.76171 V 110.6479 h -2.48047 v -3.08593 h 2.48047 v -6.26954 h 3.67188 v 6.26954 h 7.57812 v 3.08593 h -7.57812 v 9.94141 q 0,1.71875 0.0781,2.69531 0.0781,0.95703 0.54688,1.79688 0.42969,0.78125 1.17187,1.15234 0.76172,0.35156 2.30469,0.35156 0.89844,0 1.875,-0.2539 0.97656,-0.27344 1.40625,-0.44922 h 0.19531 z"
         id="path573" />
      <path
         d="m 452.25506,118.47993 q 0,5.33204 -2.73438,8.41797 -2.73437,3.08594 -7.32422,3.08594 -4.6289,0 -7.36328,-3.08594 -2.71484,-3.08593 -2.71484,-8.41797 0,-5.33203 2.71484,-8.41796 2.73438,-3.10547 7.36328,-3.10547 4.58985,0 7.32422,3.10547 2.73438,3.08593 2.73438,8.41796 z m -3.78907,0 q 0,-4.23828 -1.66015,-6.28906 -1.66016,-2.07031 -4.60938,-2.07031 -2.98828,0 -4.64843,2.07031 -1.64063,2.05078 -1.64063,6.28906 0,4.10157 1.66016,6.23047 1.66015,2.10938 4.6289,2.10938 2.92969,0 4.58985,-2.08985 1.67968,-2.10937 1.67968,-6.25 z"
         id="path575" />
      <path
         d="m 471.55193,111.56587 h -0.19531 q -0.82031,-0.19531 -1.60156,-0.27344 -0.76172,-0.0977 -1.81641,-0.0977 -1.69922,0 -3.28125,0.76172 -1.58203,0.74218 -3.04687,1.93359 v 15.48828 h -3.67188 v -21.8164 h 3.67188 v 3.22265 q 2.1875,-1.75781 3.84765,-2.48047 1.67969,-0.74218 3.41797,-0.74218 0.95703,0 1.38672,0.0586 0.42969,0.0391 1.28906,0.17578 z"
         id="path577" />
      <path
         d="m 490.5949,123.08931 q 0,2.98828 -2.48047,4.90234 -2.46094,1.91407 -6.73828,1.91407 -2.42187,0 -4.45312,-0.56641 -2.01172,-0.58594 -3.37891,-1.26953 v -4.1211 h 0.19531 q 1.73828,1.3086 3.86719,2.08985 2.12891,0.76172 4.08203,0.76172 2.42188,0 3.78906,-0.78125 1.36719,-0.78125 1.36719,-2.46094 0,-1.28906 -0.74219,-1.95313 -0.74218,-0.66406 -2.85156,-1.13281 -0.78125,-0.17578 -2.05078,-0.41015 -1.25,-0.23438 -2.28516,-0.50782 -2.87109,-0.76172 -4.08203,-2.22656 -1.1914,-1.48437 -1.1914,-3.63281 0,-1.34766 0.54687,-2.53906 0.56641,-1.19141 1.69922,-2.12891 1.09375,-0.91797 2.77344,-1.44531 1.69922,-0.54688 3.78906,-0.54688 1.95312,0 3.94531,0.48828 2.01172,0.46875 3.33985,1.15235 v 3.92578 h -0.19532 q -1.40625,-1.03516 -3.41797,-1.73828 -2.01171,-0.72266 -3.94531,-0.72266 -2.01172,0 -3.39844,0.78125 -1.38671,0.76172 -1.38671,2.28516 0,1.34765 0.83984,2.03125 0.82031,0.68359 2.65625,1.11328 1.01562,0.23437 2.26562,0.46875 1.26954,0.23437 2.10938,0.42969 2.55859,0.58593 3.94531,2.01171 1.38672,1.44532 1.38672,3.82813 z"
         id="path579" />
      <path
         d="m 507.41131,118.42134 h -12.1875 v -3.53516 h 12.1875 z"
         id="path581" />
      <path
         d="m 538.87615,114.86665 q 0,3.96485 -1.73828,7.1875 -1.71875,3.22266 -4.58984,5 -1.99219,1.23047 -4.45313,1.77735 -2.44141,0.54687 -6.44531,0.54687 h -7.34375 v -29.08203 h 7.26562 q 4.25782,0 6.75782,0.625 2.51953,0.60547 4.25781,1.67969 2.96875,1.85547 4.6289,4.9414 1.66016,3.08594 1.66016,7.32422 z m -4.04297,-0.0586 q 0,-3.41797 -1.1914,-5.76172 -1.19141,-2.34375 -3.55469,-3.69141 -1.71875,-0.97656 -3.65235,-1.34765 -1.93359,-0.39063 -4.6289,-0.39063 h -3.63281 v 22.44141 h 3.63281 q 2.79297,0 4.86328,-0.41016 2.08984,-0.41015 3.82812,-1.52343 2.16797,-1.38672 3.24219,-3.65235 1.09375,-2.26562 1.09375,-5.66406 z"
         id="path583" />
      <path
         d="m 567.05974,120.43306 q 0,2.16797 -0.82031,3.82812 -0.82031,1.66016 -2.20703,2.73438 -1.64062,1.28906 -3.61328,1.83594 -1.95313,0.54687 -4.98047,0.54687 h -10.3125 v -29.08203 h 8.61328 q 3.1836,0 4.76563,0.23438 1.58203,0.23437 3.02734,0.97656 1.60156,0.83984 2.32422,2.16797 0.72266,1.30859 0.72266,3.14453 0,2.07031 -1.05469,3.53515 -1.05469,1.44532 -2.8125,2.32422 v 0.15625 q 2.94922,0.60547 4.64844,2.59766 1.69921,1.97266 1.69921,5 z m -6.5039,-13.10547 q 0,-1.05469 -0.35156,-1.77734 -0.35157,-0.72266 -1.13282,-1.17188 -0.91797,-0.52734 -2.22656,-0.64453 -1.30859,-0.13672 -3.24219,-0.13672 h -4.60937 v 8.39844 h 5 q 1.8164,0 2.89062,-0.17578 1.07422,-0.19531 1.99219,-0.78125 0.91797,-0.58594 1.28906,-1.50391 0.39063,-0.9375 0.39063,-2.20703 z m 2.48047,13.26172 q 0,-1.75781 -0.52735,-2.79297 -0.52734,-1.03516 -1.91406,-1.75781 -0.9375,-0.48828 -2.28516,-0.625 -1.32812,-0.15625 -3.24218,-0.15625 h -6.07422 v 10.82031 h 5.11719 q 2.53906,0 4.16015,-0.25391 1.6211,-0.27343 2.65625,-0.97656 1.09375,-0.76172 1.60156,-1.73828 0.50782,-0.97656 0.50782,-2.51953 z"
         id="path585" />
    </g>
    <g
       id="g309">
      <path
         style="fill:#a29dfc"
         d="M 29.31485,100.64161 6.5,87.484684 V 60.039697 32.594711 L 29.331025,19.435437 52.16205,6.2761626 75.581025,19.873706 99,33.47125 v 26.668917 26.668916 l -5.25,2.97492 c -2.8875,1.636206 -13.433318,7.708832 -23.43515,13.494727 l -18.185151,10.5198 z m 356.39674,-0.26336 C 385.32021,99.986881 385,95.418522 385,90.226345 385,81.741781 384.8274,80.852254 383.29521,81.440211 369.93596,86.566638 356.04392,77.166275 356.04392,63 c 0,-7.930009 5.46625,-16.365302 12.27118,-18.936382 3.25205,-1.22871 11.26274,-1.294738 14.1849,-0.116917 1.10268,0.44445 2.52597,0.38691 3.17231,-0.12825 0.64476,-0.513909 3.34476,-0.795796 6,-0.626415 L 396.5,43.5 V 72 100.5 l -5.03841,0.29492 c -2.77113,0.16221 -5.35863,-0.0253 -5.75,-0.41667 z M 383.53922,70.967451 C 384.55899,70.121116 385,67.695899 385,62.934259 c 0,-5.914856 -0.29521,-7.027624 -2.22251,-8.377555 -3.43258,-2.404277 -9.99575,-2.017732 -12.58779,0.741371 -4.52314,4.814656 -3.64261,13.242938 1.69835,16.256442 2.92201,1.648672 9.34737,1.324918 11.65117,-0.587066 z m -252.0478,10.167567 c -7.03898,-3.197742 -12.46621,-11.341645 -12.48584,-18.735795 -0.009,-3.277571 2.03753,-8.585251 4.68422,-12.150274 8.30288,-11.183794 27.38274,-9.522644 33.89948,2.951391 C 160.13256,58.068573 159.54026,59 153.90121,59 149.52531,59 148.4051,58.574667 146,56 c -3.92226,-4.198798 -8.83907,-4.168402 -12.41111,0.07673 -6.62244,7.870329 0.44361,19.637733 9.5316,15.873367 1.54715,-0.640851 3.08329,-2.016789 3.41364,-3.057638 C 147.03448,67.316006 148.12542,67 153.06739,67 c 6.5341,0 7.14082,0.777175 4.52762,5.79966 -4.59711,8.835519 -16.57994,12.661858 -26.10359,8.335358 z M 271,80.762127 c -5.08995,-2.727187 -8.48972,-7.153359 -10.10652,-13.157731 -2.30523,-8.560956 2.6446,-19.259194 10.67359,-23.069199 4.03341,-1.913977 11.52982,-2.209256 15.71274,-0.618914 C 289.00694,44.572937 290,44.594463 290,43.975249 290,43.438862 292.475,43 295.5,43 H 301 V 62.5 82 h -5.5 c -3.39999,0 -5.5,-0.428572 -5.5,-1.122445 0,-0.788248 -0.43549,-0.761022 -1.46264,0.09144 -0.80445,0.667636 -4.06695,1.436711 -7.25,1.709054 -4.8069,0.411281 -6.54972,0.0867 -10.28736,-1.915923 z M 288.12403,70.387756 C 289.57624,69.073524 290,67.282736 290,62.460022 290,56.941884 289.71836,56.045483 287.53518,54.61501 281.04394,50.361786 272,54.945593 272,62.488818 c 0,4.587016 1.31147,7.059313 4.77514,9.001801 3.26188,1.829316 8.69195,1.301631 11.34889,-1.102863 z M 321.5,81.6512 c -1.65,-0.767912 -4.125,-2.613596 -5.5,-4.101519 -2.29341,-2.481761 -2.52797,-3.607873 -2.83848,-13.627498 L 312.82305,53 h -4.46632 -4.46631 L 304.19521,48.25 304.5,43.5 308.75,43.192502 313,42.885004 V 36.442502 30 h 5.5 5.5 v 6.5 6.5 h 6.5 6.5 v 5 5 h -6.5 -6.5 v 8.377555 c 0,10.553391 1.93204,12.5196 10.15676,10.336373 l 2.65676,-0.705229 0.69588,5.059674 c 0.38274,2.78282 0.4499,5.305659 0.14925,5.606307 C 336.33353,82.999805 324.36034,82.982406 321.5,81.6512 Z M 162,53.5 V 25 h 5.5 5.5 V 53.5 82 h -5.5 -5.5 z m 17,8.94774 V 42.895481 l 5.25,0.302259 5.25,0.30226 0.27159,19.25 0.2716,19.25 H 184.52159 179 Z M 194.22823,62.800553 194.5,43.5 l 5.25,-0.30226 c 3.48796,-0.200813 5.25,0.08681 5.25,0.856989 0,0.712519 0.67438,0.880925 1.75,0.437008 6.34256,-2.617633 14.80737,-2.107271 18.359,1.106904 1.45629,1.317931 2.03671,1.247935 5.21842,-0.629318 4.46901,-2.636779 13.04773,-2.834198 18.14062,-0.417465 7.24838,3.43958 9.83214,11.099577 9.32036,27.63173 L 257.5,81.5 251.75,81.799904 246,82.099808 V 69.549904 C 246,58.333333 245.78751,56.787515 244,55 c -2.32407,-2.324072 -7.71647,-2.659026 -10.464,-0.649981 -1.65371,1.209222 -1.82365,2.72147 -1.62941,14.5 L 232.12344,82 H 226.06172 220 V 69.722506 C 220,55.452193 219.05477,53 213.55408,53 c -1.83288,0 -4.27823,0.7875 -5.4341,1.75 -1.90065,1.582674 -2.12638,2.945188 -2.36079,14.25 L 205.5,81.5 l -5.77177,0.300553 -5.77177,0.300554 z M 342,62.44774 V 42.895481 l 5.25,0.302259 5.25,0.30226 0.27159,19.25 0.2716,19.25 H 347.52159 342 Z M 179,31 v -6 h 6 6 v 6 6 h -6 -6 z m 162,0 v -6 h 6 6 v 6 6 h -6 -6 z"
         id="path323" />
      <path
         style="fill:#8384cc"
         d="M 28.25,99.775739 6,86.712532 V 60.356266 C 6,45.86032 6.189369,34 6.42082,34 c 0.2314509,0 4.837496,2.55 10.235657,5.666667 5.39816,3.116666 10.315315,5.666666 10.927011,5.666666 0.611695,0 6.349346,-3.041187 12.750333,-6.758195 l 11.638159,-6.758195 11.76401,6.721533 c 6.470206,3.696844 12.028426,6.869421 12.351601,7.050172 0.323175,0.18075 5.228733,-2.352752 10.90124,-5.630005 C 92.661337,36.681389 97.459421,34 97.65124,34 97.843058,34 98,45.865345 98,60.367434 V 86.734867 L 75.980598,99.466127 C 63.869926,106.46832 53.182426,112.34174 52.230598,112.51817 51.278769,112.6946 40.4875,106.9605 28.25,99.775739 Z M 386,90.133716 v -9.866284 l -5.43803,1.513597 c -22.95632,6.389566 -34.48,-26.045683 -13.14052,-36.986137 3.20486,-1.643089 5.0322,-1.894989 10,-1.378504 3.3432,0.347582 8.89105,0.591911 12.32855,0.542954 L 396,43.870332 V 71.935168 100 h -5 -5 V 90.13372 Z M 383.36514,70.92742 C 385.66612,69.117466 386,68.125836 386,63.101734 c 0,-7.297637 -2.82722,-10.556279 -9.15871,-10.556279 -3.33202,0 -4.57738,0.594755 -7.05753,3.370531 -2.66412,2.981665 -2.95209,3.898215 -2.49604,7.944276 0.933,8.277581 9.66114,12.114209 16.07742,7.067158 z M 132.5,81.563559 c -4.99216,-1.818049 -11.23654,-8.642267 -12.09497,-13.218077 -1.09677,-5.846316 0.10115,-13.000875 2.87983,-17.19975 8.05679,-12.174628 29.58082,-10.205783 34.64853,3.169368 1.66588,4.396754 1.40477,4.6849 -4.24533,4.6849 -4.7426,0 -5.54967,-0.321543 -7.52994,-3 -3.03289,-4.102201 -9.0761,-4.270561 -12.70587,-0.353977 -3.71172,4.00501 -3.446,10.514072 0.59414,14.554214 2.63316,2.633158 3.54877,2.966144 6.75,2.454802 2.25956,-0.360926 4.49806,-1.578718 5.74117,-3.123314 C 148.25702,67.39526 149.40583,67 153.89597,67 h 5.32085 l -0.68627,2.75 C 156.10786,79.458201 143.02389,85.396155 132.5,81.563559 Z M 271.18184,80.403326 C 264.15893,76.903659 260.8,71.320794 260.8,63.147683 c 0,-12.918592 8.26872,-20.866369 20.56125,-19.763195 3.37631,0.303001 9.17625,0.535448 12.88875,0.516548 L 301,43.866673 V 62.933336 82 h -5.5 c -3.025,0 -5.5,-0.427038 -5.5,-0.948973 0,-0.521936 -1.56055,-0.296936 -3.46788,0.5 -5.06066,2.114477 -9.46472,1.785197 -15.35028,-1.147701 z m 16.89578,-9.973568 C 289.58588,69.064797 290,67.335403 290,62.401716 c 0,-5.364541 -0.32649,-6.516991 -2.22251,-7.845012 -3.49776,-2.44993 -10.00013,-2.006478 -13.13147,0.895547 C 272.5196,57.422955 272,58.812646 272,62.529174 c 0,3.821466 0.52942,5.154092 3.04827,7.672944 2.66599,2.665985 3.5536,2.980493 7.07762,2.507823 2.21614,-0.297247 4.89441,-1.323329 5.95173,-2.280183 z m 34.56493,11.600283 C 315.40252,79.712818 313,74.873445 313,62.607158 V 53.114996 L 308.75,52.807498 304.5,52.5 304.19544,48.310164 303.89088,44.120327 308.19544,43.810164 312.5,43.5 312.79569,36.75 313.09138,30 H 318.54569 324 v 7 7 h 6.5 6.5 v 4.5 4.5 h -6.5 -6.5 v 8.476947 8.476947 l 2.55485,1.674001 c 2.07545,1.359887 3.20112,1.475654 5.99902,0.616955 1.89429,-0.581375 3.6177,-0.761802 3.82979,-0.400948 1.15684,1.968211 1.64128,9.022653 0.66119,9.628379 -1.86466,1.152424 -11.39155,1.521373 -14.4023,0.55776 z M 162,53.5 V 25 h 5.5 5.5 V 53.5 82 H 167.5 162 Z M 179,63 V 44 h 5.5 5.5 v 19 19 h -5.5 -5.5 z m 15,-0.06666 V 43.866677 l 6.75,0.0874 c 3.7125,0.04807 9.54795,-0.199964 12.96767,-0.551189 5.21043,-0.535141 6.77898,-0.307408 9.68265,1.4058 l 3.46498,2.04439 3.77879,-1.926538 c 5.41917,-2.762846 14.05482,-2.610755 18.36608,0.323463 6.86733,4.673862 7.45539,6.353645 7.8136,22.319337 L 257.14755,82 H 251.57377 246 V 69.722506 C 246,55.190942 245.1046,53 239.1658,53 c -2.04643,0 -4.72092,0.700517 -5.94329,1.556704 L 231,56.113408 V 69.056704 82 H 225.5 220 V 69.154988 c 0,-11.174048 -0.23789,-13.060305 -1.82874,-14.5 -2.72232,-2.46367 -8.38175,-2.124286 -10.99695,0.659463 C 205.18747,57.429346 205,58.679566 205,69.814451 V 82 H 199.5 194 V 62.933336 Z M 342,63 V 44 h 5.5 5.5 V 63 82 H 347.5 342 Z M 179.2001,31.25 179.5,25.5 h 5.5 5.5 l 0.2999,5.75 0.29991,5.75 H 185 178.90019 Z m 162.20543,4.364404 c -0.29244,-0.762078 -0.39082,-3.349578 -0.21862,-5.75 L 341.5,25.5 347.25,25.200096 353,24.900192 V 30.950096 37 h -5.53138 c -3.79132,0 -5.69865,-0.435883 -6.06309,-1.385596 z"
         id="path321" />
      <path
         style="fill:#6963fb"
         d="M 52,100.62715 V 88.136265 L 40.008549,81.318133 28.017099,74.5 28.036234,60 l 0.01913,-14.5 11.974365,-6.832308 11.974365,-6.832307 11.74795,6.712312 c 6.461373,3.691772 12.012367,6.8602 12.335542,7.040951 0.323175,0.18075 5.228733,-2.352752 10.90124,-5.630005 C 92.661337,36.681389 97.459421,34 97.65124,34 97.843058,34 98,45.865345 98,60.367434 V 86.734867 L 75.75,99.532388 C 63.5125,106.57102 53.1625,112.50724 52.75,112.72397 52.3375,112.94071 52,107.49714 52,100.62715 Z M 386,89.893011 c 0,-9.264497 -0.14588,-10.04015 -1.75,-9.305155 -0.9625,0.441009 -4.56942,0.977857 -8.01538,1.192997 -5.3772,0.335711 -6.90136,0.01845 -10.75169,-2.237986 -7.2084,-4.224408 -11.02503,-14.222782 -8.47057,-22.19029 3.65294,-11.393756 15.18176,-17.223095 25.51976,-12.903604 1.90733,0.796936 3.46788,1.021936 3.46788,0.5 C 386,44.427038 388.25,44 391,44 h 5 v 28 28 h -5 -5 z M 383.36514,70.92742 C 385.72447,69.071574 386,68.181174 386,62.412721 V 55.970603 L 382.75,53.98904 C 374.95546,49.236617 367,54.05445 367,63.527263 c 0,7.924884 9.96786,12.432255 16.36514,7.400157 z M 133.55782,81.507878 c -5.63816,-2.008503 -8.65415,-4.549473 -11.26889,-9.494019 -5.41574,-10.241305 -0.8062,-22.974995 9.9426,-27.466131 7.05946,-2.949632 17.4411,-1.014255 21.98033,4.09764 2.19765,2.474899 4.89835,8.911091 4.08182,9.727616 C 157.94882,58.717843 155.52199,59 152.90072,59 c -3.95703,0 -4.8786,-0.354949 -5.42969,-2.091289 -0.36507,-1.150209 -2.19539,-2.731248 -4.06739,-3.51342 -4.85823,-2.029898 -9.8943,0.141444 -11.99633,5.17231 -4.34043,10.3881 6.99947,19.179466 14.74654,11.432399 2.52083,-2.520833 3.78632,-3 7.92307,-3 2.7077,0 4.92308,0.239453 4.92308,0.532119 0,0.292665 -0.60797,1.987195 -1.35104,3.765623 -2.57761,6.169073 -11.32207,11.783577 -18.14896,11.652788 -1.1,-0.02107 -3.77398,-0.670267 -5.94218,-1.442652 z m 140.09737,0.07268 C 265.93343,78.748625 261,71.508292 261,63.007719 c 0,-6.179257 1.73997,-10.48263 5.94403,-14.701039 4.17259,-4.186835 8.97841,-5.707183 15.42255,-4.879013 2.82338,0.362848 8.17092,0.610061 11.88342,0.549364 L 301,43.866673 V 62.933336 82 h -5.5 c -3.12462,0 -5.5,-0.447082 -5.5,-1.035184 0,-0.67598 -0.60724,-0.710227 -1.75,-0.0987 -3.3767,1.806991 -10.64557,2.162816 -14.59481,0.714442 z M 287.0925,71.452164 290.08569,69.904329 289.79284,62.702164 289.5,55.5 285.75595,53.670484 c -4.89164,-2.390281 -10.02506,-0.916784 -12.82961,3.68261 -2.90217,4.759511 -2.47655,8.296701 1.47366,12.246906 3.84331,3.843308 7.74191,4.412215 12.6925,1.852164 z m 35.64802,10.149197 C 314.88762,78.735067 313,74.942743 313,62.032119 V 53 h -4 -4 V 48.5 44 h 4 4 v -7 -7 h 5 5 v 7 7 h 7 7 v 4.5 4.5 h -7.10262 -7.10261 l 0.35261,8.580626 c 0.42749,10.402578 1.6619,11.913456 8.96871,10.977382 l 4.6161,-0.591367 0.5762,4.26668 c 0.31691,2.346673 0.26467,4.55836 -0.11609,4.914858 -1.5903,1.48895 -10.821,1.778409 -14.45178,0.453182 z M 162.71277,81.379435 C 162.32075,80.987412 162,68.366667 162,53.333333 V 26 h 5.51582 5.51582 L 172.76582,53.75 172.5,81.5 l -4.53723,0.296102 c -2.49548,0.162855 -4.85798,-0.02465 -5.25,-0.416667 z M 179,63.05226 V 44 h 5.52207 5.52206 L 189.77207,62.75 189.5,81.5 184.25,81.80226 179,82.104519 Z M 195,63 V 44 h 5 c 2.75012,0 5,0.461531 5,1.02568 0,0.587926 1.25919,0.374528 2.95034,-0.5 4.10784,-2.124246 10.86166,-1.910303 15.33204,0.48568 l 3.75276,2.01136 4.15388,-2.11915 c 5.30082,-2.704277 14.42355,-2.328187 18.57442,0.765742 5.65827,4.217501 6.70464,7.561214 7.08371,22.636317 l 0.34716,13.805629 -5.34716,-0.305629 L 246.5,81.5 246.22108,68.87882 C 245.90309,54.489155 244.94959,52.520015 238.38982,52.705958 231.76859,52.893643 231,54.609879 231,69.207247 V 82.104519 L 225.75,81.80226 220.5,81.5 220,68.026879 219.5,54.553757 217,53.267458 c -2.73941,-1.409481 -6.26472,-0.931009 -9.75,1.323318 L 205,56.046106 V 69.023053 82 h -5 -5 z m 147,0.05226 V 44 h 5.52207 5.52206 L 352.77207,62.75 352.5,81.5 347.25,81.80226 342,82.104519 Z M 179.71159,36.378255 C 179.32021,35.986881 179,33.491667 179,30.833333 V 26 h 6.05226 6.05226 l -0.30226,5.25 -0.30226,5.25 -5.03841,0.294922 c -2.77113,0.162206 -5.35863,-0.02529 -5.75,-0.416667 z M 342,31.5 V 26 h 5.5 5.5 v 5.5 5.5 h -5.5 -5.5 z"
         id="path319" />
      <path
         style="fill:#575799"
         d="m 386,89.893011 c 0,-9.264497 -0.14588,-10.04015 -1.75,-9.305155 -0.9625,0.441009 -4.56942,0.977857 -8.01538,1.192997 -5.3772,0.335711 -6.90136,0.01845 -10.75169,-2.237986 -7.2084,-4.224408 -11.02503,-14.222782 -8.47057,-22.19029 3.65294,-11.393756 15.18176,-17.223095 25.51976,-12.903604 1.90733,0.796936 3.46788,1.021936 3.46788,0.5 C 386,44.427038 388.25,44 391,44 h 5 v 28 28 h -5 -5 z M 383.36514,70.92742 C 385.72447,69.071574 386,68.181174 386,62.412721 V 55.970603 L 382.75,53.98904 C 374.95546,49.236617 367,54.05445 367,63.527263 c 0,7.924884 9.96786,12.432255 16.36514,7.400157 z M 39.759895,81.221233 28.01979,74.5 28.009895,60.75 C 28.004453,53.1875 28.302233,47 28.671629,47 c 0.369396,0 5.769396,2.960236 12,6.578303 L 52,60.156606 63.328371,53.578303 C 69.558975,49.960236 74.971673,47 75.35659,47 c 0.384917,0 0.57465,6.169996 0.42163,13.711103 L 75.5,74.422205 64,81.194956 c -6.325,3.725013 -11.725,6.767072 -12,6.760131 -0.275,-0.0069 -5.783047,-3.037175 -12.240105,-6.733854 z m 93.797925,0.286645 c -5.63816,-2.008503 -8.65415,-4.549473 -11.26889,-9.494019 -5.41574,-10.241305 -0.8062,-22.974995 9.9426,-27.466131 7.05946,-2.949632 17.4411,-1.014255 21.98033,4.09764 2.19765,2.474899 4.89835,8.911091 4.08182,9.727616 C 157.94882,58.717843 155.52199,59 152.90072,59 c -3.95703,0 -4.8786,-0.354949 -5.42969,-2.091289 -0.36507,-1.150209 -2.19539,-2.731248 -4.06739,-3.51342 -4.85823,-2.029898 -9.8943,0.141444 -11.99633,5.17231 -4.34043,10.3881 6.99947,19.179466 14.74654,11.432399 2.52083,-2.520833 3.78632,-3 7.92307,-3 2.7077,0 4.92308,0.239453 4.92308,0.532119 0,0.292665 -0.60797,1.987195 -1.35104,3.765623 -2.57761,6.169073 -11.32207,11.783577 -18.14896,11.652788 -1.1,-0.02107 -3.77398,-0.670267 -5.94218,-1.442652 z m 140.09737,0.07268 C 265.93343,78.748625 261,71.508292 261,63.007719 c 0,-6.179257 1.73997,-10.48263 5.94403,-14.701039 4.17259,-4.186835 8.97841,-5.707183 15.42255,-4.879013 2.82338,0.362848 8.17092,0.610061 11.88342,0.549364 L 301,43.866673 V 62.933336 82 h -5.5 c -3.12462,0 -5.5,-0.447082 -5.5,-1.035184 0,-0.67598 -0.60724,-0.710227 -1.75,-0.0987 -3.3767,1.806991 -10.64557,2.162816 -14.59481,0.714442 z M 287.0925,71.452164 290.08569,69.904329 289.79284,62.702164 289.5,55.5 285.75595,53.670484 c -4.89164,-2.390281 -10.02506,-0.916784 -12.82961,3.68261 -2.90217,4.759511 -2.47655,8.296701 1.47366,12.246906 3.84331,3.843308 7.74191,4.412215 12.6925,1.852164 z m 35.64802,10.149197 C 314.88762,78.735067 313,74.942743 313,62.032119 V 53 h -4 -4 V 48.5 44 h 4 4 v -7 -7 h 5 5 v 7 7 h 7 7 v 4.5 4.5 h -7.10262 -7.10261 l 0.35261,8.580626 c 0.42749,10.402578 1.6619,11.913456 8.96871,10.977382 l 4.6161,-0.591367 0.5762,4.26668 c 0.31691,2.346673 0.26467,4.55836 -0.11609,4.914858 -1.5903,1.48895 -10.821,1.778409 -14.45178,0.453182 z M 162.71277,81.379435 C 162.32075,80.987412 162,68.366667 162,53.333333 V 26 h 5.51582 5.51582 L 172.76582,53.75 172.5,81.5 l -4.53723,0.296102 c -2.49548,0.162855 -4.85798,-0.02465 -5.25,-0.416667 z M 179,63.05226 V 44 h 5.52207 5.52206 L 189.77207,62.75 189.5,81.5 184.25,81.80226 179,82.104519 Z M 195,63 V 44 h 5 c 2.75012,0 5,0.461531 5,1.02568 0,0.587926 1.25919,0.374528 2.95034,-0.5 4.10784,-2.124246 10.86166,-1.910303 15.33204,0.48568 l 3.75276,2.01136 4.15388,-2.11915 c 5.30082,-2.704277 14.42355,-2.328187 18.57442,0.765742 5.65827,4.217501 6.70464,7.561214 7.08371,22.636317 l 0.34716,13.805629 -5.34716,-0.305629 L 246.5,81.5 246.22108,68.87882 C 245.90309,54.489155 244.94959,52.520015 238.38982,52.705958 231.76859,52.893643 231,54.609879 231,69.207247 V 82.104519 L 225.75,81.80226 220.5,81.5 220,68.026879 219.5,54.553757 217,53.267458 c -2.73941,-1.409481 -6.26472,-0.931009 -9.75,1.323318 L 205,56.046106 V 69.023053 82 h -5 -5 z m 147,0.05226 V 44 h 5.52207 5.52206 L 352.77207,62.75 352.5,81.5 347.25,81.80226 342,82.104519 Z M 179.71159,36.378255 C 179.32021,35.986881 179,33.491667 179,30.833333 V 26 h 6.05226 6.05226 l -0.30226,5.25 -0.30226,5.25 -5.03841,0.294922 c -2.77113,0.162206 -5.35863,-0.02529 -5.75,-0.416667 z M 342,31.5 V 26 h 5.5 5.5 v 5.5 5.5 h -5.5 -5.5 z"
         id="path317" />
      <path
         style="fill:#2e2ea2"
         d="m 386,89.893011 c 0,-9.232357 -0.15144,-10.044901 -1.75,-9.389524 -2.99776,1.229019 -9.96363,1.772818 -13.70891,1.0702 -4.10553,-0.770203 -9.92293,-5.477613 -12.19217,-9.86585 C 357.46841,70.005132 356.8,66.189031 356.8,62.864776 c 0,-13.780712 12.38856,-22.951644 24.95,-18.46985 2.3375,0.833996 4.25,1.086318 4.25,0.560715 C 386,44.430038 388.25,44 391,44 h 5 v 28 28 h -5 -5 z m -2.25,-19.216337 c 3.04859,-2.744144 3.29714,-13.419052 0.37403,-16.06443 -2.81769,-2.549972 -8.27615,-3.102061 -11.9396,-1.207617 C 368.28383,55.421705 367,57.762549 367,62.857533 c 0,9.216915 10.00731,13.888469 16.75,7.819141 z M 40,81.021255 28.5,74.199422 28.22178,60.599711 C 28.06876,53.11987 28.258493,47 28.64341,47 c 0.384917,0 5.797615,2.960236 12.028219,6.578303 L 52,60.156606 63.328371,53.578303 C 69.558975,49.960236 74.971673,47 75.35659,47 c 0.384917,0 0.57465,6.169996 0.42163,13.711103 L 75.5,74.422205 64,81.194956 c -6.325,3.725013 -11.725,6.744712 -12,6.710442 -0.275,-0.03427 -5.675,-3.132134 -12,-6.884143 z m 95.23559,0.997133 c -14.82471,-3.504456 -20.14312,-22.346155 -9.35324,-33.136035 8.79812,-8.798112 24.90501,-7.099962 30.14874,3.178581 C 159.07135,58.020352 158.71899,59 153.53518,59 c -3.43361,0 -4.71075,-0.459531 -5.52964,-1.98965 -1.59595,-2.982057 -6.65374,-5.24653 -10.0515,-4.500256 C 134.13455,53.348995 130,58.347592 130,62.126385 c 0,3.702418 2.40116,8.482755 4.94461,9.843971 3.18062,1.702218 8.48518,1.20953 10.86683,-1.009311 C 147.01515,69.83962 148,68.48962 148,67.961045 148,67.43247 150.25,67 153,67 c 5.53164,0 6.1193,0.948054 3.59501,5.79966 -3.72168,7.152962 -13.05591,11.181618 -21.35942,9.218728 z m 139.94105,-0.22377 C 264.16882,79.39787 257.8636,65.390841 262.89004,54.5 c 4.33042,-9.382744 14.68576,-13.793214 23.62024,-10.060152 2.04265,0.853476 3.68259,1.057099 4.0269,0.5 C 290.85665,44.422931 293.35141,44 296.08108,44 h 4.96305 L 300.77207,62.75 300.5,81.5 l -4.38586,0.314136 c -2.41223,0.172776 -4.82411,-0.124102 -5.35973,-0.659728 -0.57537,-0.575365 -2.05425,-0.63544 -3.61414,-0.146812 -4.9546,1.552008 -7.6391,1.728607 -11.96363,0.787022 z M 288.54545,70.545455 C 290.5422,68.548711 291,67.089128 291,62.719769 c 0,-4.480965 -0.42768,-5.77293 -2.58056,-7.795455 -3.58678,-3.369598 -10.24473,-3.376525 -13.82357,-0.01438 -4.70447,4.419626 -4.30646,13.078093 0.76445,16.629896 3.42293,2.397509 10.31287,1.877896 13.18513,-0.994372 z M 325,82.087776 c -4.63347,-0.928051 -8.3851,-3.490198 -10.03277,-6.851799 -0.73757,-1.504787 -1.59443,-7.214414 -1.90413,-12.68806 L 312.5,52.595834 309,52.547917 305.5,52.5 305.1925,48.25 304.885,44 H 308.9425 313 v -7 -7 h 5 5 v 7 7 h 7 7 v 4.5 4.5 h -7 -7 v 8 c 0,10.148578 1.64014,12.346444 8.83031,11.833042 L 336.49455,72.5 l 0.56876,4.241001 c 0.4461,3.326413 0.23103,4.334669 -0.99728,4.675343 -3.88702,1.078074 -7.8387,1.317842 -11.06603,0.671432 z M 162.66667,81.333333 C 162.3,80.966667 162,68.366667 162,53.333333 V 26 h 5 5 v 28 28 h -4.33333 c -2.38334,0 -4.63334,-0.3 -5,-0.666667 z m 17,0 C 179.3,80.966667 179,72.416667 179,62.333333 V 44 h 5 5 v 19 19 h -4.33333 c -2.38334,0 -4.63334,-0.3 -5,-0.666667 z M 195,63.054791 V 44 h 5.05902 c 3.11803,0 4.82189,0.383668 4.44098,1 -0.81938,1.325789 -0.39052,1.270031 3.84576,-0.5 4.92489,-2.057753 9.23663,-1.880573 14.33852,0.589206 L 227,47.178413 l 4.31572,-2.089207 c 5.58254,-2.70246 11.1565,-2.64879 16.69951,0.160794 7.26616,3.682996 8.40208,6.736404 8.44682,22.705471 L 256.5,81.5 251.75,81.804791 247,82.109582 V 70.619891 c 0,-13.338498 -0.70138,-15.839345 -4.93396,-17.592537 -2.56911,-1.064158 -3.74353,-1.041309 -6.83413,0.132962 L 231.5,54.578256 231,68.039128 230.5,81.5 225.75,81.804791 221,82.109582 V 69.509337 56.909091 l -2.45455,-2.454546 c -2.96331,-2.963318 -5.96661,-3.104869 -10.26533,-0.483825 l -3.21987,1.963245 -0.28013,12.783017 L 204.5,81.5 199.75,81.804791 195,82.109582 Z M 342.66667,81.333333 C 342.3,80.966667 342,72.416667 342,62.333333 V 44 h 5 5 v 19 19 h -4.33333 c -2.38334,0 -4.63334,-0.3 -5,-0.666667 z M 180,31.5 V 26 h 5 5 v 5.5 5.5 h -5 -5 z m 162.66667,4.833333 C 342.3,35.966667 342,33.491667 342,30.833333 V 26 h 5.5 5.5 v 5.5 5.5 h -4.83333 c -2.65834,0 -5.13334,-0.3 -5.5,-0.666667 z"
         id="path315" />
      <path
         style="fill:#0101fa"
         d="m 386,89.893011 c 0,-9.232357 -0.15144,-10.044901 -1.75,-9.389524 -2.98289,1.222924 -9.95626,1.7742 -13.65809,1.079733 -7.43119,-1.3941 -13.82268,-10.047973 -13.82268,-18.715477 0,-13.387968 11.54812,-22.270286 24.15096,-18.575874 C 383.71408,45.110876 386,45.380254 386,44.890486 386,44.400719 388.25,44 391,44 h 5 v 28 28 h -5 -5 z M 383.69773,71.462402 C 385.7328,70.128971 386,69.152577 386,63.049527 c 0,-6.267827 -0.24292,-7.095446 -2.63486,-8.976947 -5.78202,-4.548137 -14.24402,-1.546578 -16.45626,5.837205 -2.96713,9.903408 7.89672,17.378962 16.78885,11.552617 z M 52,74.173325 V 60.156606 L 63.328371,53.578303 C 69.558975,49.960236 74.971673,47 75.35659,47 c 0.384917,0 0.57465,6.167937 0.42163,13.706527 L 75.5,74.413054 l -7,4.114886 c -3.85,2.263187 -9.1375,5.36301 -11.75,6.888495 L 52,88.190044 Z m 79.48141,6.433107 c -6.85593,-2.987318 -12.33628,-12.951035 -11.14871,-20.269218 2.33515,-14.38985 18.20124,-21.89896 29.7136,-14.062866 3.63455,2.473925 6.4537,6.065048 7.43868,9.475652 0.60794,2.105066 0.34875,2.25 -4.02367,2.25 -3.77515,0 -5.04584,-0.473394 -6.61072,-2.462816 -2.33113,-2.963551 -7.71702,-4.193864 -10.99529,-2.511681 -3.94058,2.022032 -5.80922,5.161959 -5.83306,9.80142 C 129.99201,68.708098 134.07519,73 139.70057,73 143.8889,73 148,70.74285 148,68.443296 148,67.373924 149.32347,67 153.10841,67 h 5.10841 l -0.68627,2.75 c -1.00969,4.046007 -4.93675,8.740341 -8.87523,10.609273 -4.12623,1.958024 -12.95583,2.085095 -17.17391,0.247159 z M 270.47905,79.61314 C 264.855,76.181713 261.8,70.366356 261.8,63.092098 c 0,-9.102488 3.88152,-15.389776 11.45448,-18.55396 4.50762,-1.883405 8.01498,-1.889476 13.24552,-0.02293 2.40473,0.858142 4.13294,1.040045 4.33333,0.456107 C 291.01667,44.437092 293.15417,44 295.58333,44 H 300 v 18.565099 18.565099 l -6.25,-0.05889 c -3.4375,-0.03239 -9.175,0.178269 -12.75,0.468129 -5.681,0.460615 -7.00664,0.217902 -10.52095,-1.926297 z m 17.88609,-8.68572 C 290.7216,69.073833 291,68.178142 291,62.450473 c 0,-5.857866 -0.23091,-6.555666 -2.70602,-8.17742 C 286.74484,53.258017 283.71712,52.5 281.21195,52.5 c -3.67904,0 -4.84076,0.520143 -7.29398,3.265777 C 267.53956,62.904453 271.85694,73 281.28822,73 c 2.97972,0 5.30947,-0.682301 7.07692,-2.07258 z M 320.5,80.158321 C 315.06062,76.832679 314.536,75.496122 314,63.598545 L 313.5,52.5 309.25,52.192502 305,51.885004 V 48 44.114996 L 309.25,43.807498 313.5,43.5 313.79569,36.75 314.09138,30 H 318.54569 323 v 7 7 h 7 7 v 4 4 h -7 -7 v 8.277494 c 0,11.053491 1.34849,13.135654 8.08777,12.488095 5.23924,-0.503425 5.91223,0.08954 5.91223,5.20921 0,1.640977 -0.65846,3.063898 -1.58179,3.418212 -3.36884,1.292747 -11.94535,0.582922 -14.91821,-1.23469 z M 163,53.5 V 26 h 4.5 4.5 V 53.5 81 h -4.5 -4.5 z m 17,9 V 44 h 4.5 4.5 V 62.5 81 h -4.5 -4.5 z m 15,0 V 44 h 4.41667 c 2.54795,0 4.58602,0.508069 4.81693,1.200811 0.29094,0.872798 1.445,0.705053 4.2249,-0.614096 4.70719,-2.233706 11.54487,-1.69967 15.47897,1.208935 l 2.72931,2.017861 3.40636,-2.156755 c 4.81693,-3.049869 14.05781,-2.994213 19.0704,0.114856 5.69004,3.529261 7.12252,7.733736 7.65847,22.478388 L 257.26546,81 H 252.13273 247 V 68.954545 56.909091 l -2.45455,-2.454546 C 241.60992,51.519011 237.67377,51.297496 233.5,53.832941 l -3,1.822412 0.35381,12.672323 L 231.20762,81 H 226.10381 221 V 68.57258 56.14516 l -2.74969,-2.162904 c -3.36285,-2.645219 -8.36745,-2.160292 -11.89371,1.152457 L 204,57.348628 V 69.174314 81 h -4.5 -4.5 z m 147,0 V 44 h 5 5 V 62.5 81 h -5 -5 z M 180,31 v -5 h 5 5 v 5 5 h -5 -5 z m 162,0 v -5 h 5.5 5.5 v 5 5 h -5.5 -5.5 z"
         id="path313" />
      <path
         style="fill:#010165"
         d="m 386,89.893011 c 0,-9.232357 -0.15144,-10.044901 -1.75,-9.389524 -2.98289,1.222924 -9.95626,1.7742 -13.65809,1.079733 -7.43119,-1.3941 -13.82268,-10.047973 -13.82268,-18.715477 0,-13.387968 11.54812,-22.270286 24.15096,-18.575874 C 383.71408,45.110876 386,45.380254 386,44.890486 386,44.400719 388.25,44 391,44 h 5 v 28 28 h -5 -5 z M 383.69773,71.462402 C 385.7328,70.128971 386,69.152577 386,63.049527 c 0,-6.267827 -0.24292,-7.095446 -2.63486,-8.976947 -5.78202,-4.548137 -14.24402,-1.546578 -16.45626,5.837205 -2.96713,9.903408 7.89672,17.378962 16.78885,11.552617 z m -252.21632,9.14403 c -6.85593,-2.987318 -12.33628,-12.951035 -11.14871,-20.269218 2.33515,-14.38985 18.20124,-21.89896 29.7136,-14.062866 3.63455,2.473925 6.4537,6.065048 7.43868,9.475652 0.60794,2.105066 0.34875,2.25 -4.02367,2.25 -3.77515,0 -5.04584,-0.473394 -6.61072,-2.462816 -2.33113,-2.963551 -7.71702,-4.193864 -10.99529,-2.511681 -3.94058,2.022032 -5.80922,5.161959 -5.83306,9.80142 C 129.99201,68.708098 134.07519,73 139.70057,73 143.8889,73 148,70.74285 148,68.443296 148,67.373924 149.32347,67 153.10841,67 h 5.10841 l -0.68627,2.75 c -1.00969,4.046007 -4.93675,8.740341 -8.87523,10.609273 -4.12623,1.958024 -12.95583,2.085095 -17.17391,0.247159 z M 270.47905,79.61314 C 264.855,76.181713 261.8,70.366356 261.8,63.092098 c 0,-9.102488 3.88152,-15.389776 11.45448,-18.55396 4.50762,-1.883405 8.01498,-1.889476 13.24552,-0.02293 2.40473,0.858142 4.13294,1.040045 4.33333,0.456107 C 291.01667,44.437092 293.15417,44 295.58333,44 H 300 v 18.565099 18.565099 l -6.25,-0.05889 c -3.4375,-0.03239 -9.175,0.178269 -12.75,0.468129 -5.681,0.460615 -7.00664,0.217902 -10.52095,-1.926297 z m 17.88609,-8.68572 C 290.7216,69.073833 291,68.178142 291,62.450473 c 0,-5.857866 -0.23091,-6.555666 -2.70602,-8.17742 C 286.74484,53.258017 283.71712,52.5 281.21195,52.5 c -3.67904,0 -4.84076,0.520143 -7.29398,3.265777 C 267.53956,62.904453 271.85694,73 281.28822,73 c 2.97972,0 5.30947,-0.682301 7.07692,-2.07258 z M 320.5,80.158321 C 315.06062,76.832679 314.536,75.496122 314,63.598545 L 313.5,52.5 309.25,52.192502 305,51.885004 V 48 44.114996 L 309.25,43.807498 313.5,43.5 313.79569,36.75 314.09138,30 H 318.54569 323 v 7 7 h 7 7 v 4 4 h -7 -7 v 8.277494 c 0,11.053491 1.34849,13.135654 8.08777,12.488095 5.23924,-0.503425 5.91223,0.08954 5.91223,5.20921 0,1.640977 -0.65846,3.063898 -1.58179,3.418212 -3.36884,1.292747 -11.94535,0.582922 -14.91821,-1.23469 z M 163,53.5 V 26 h 4.5 4.5 V 53.5 81 h -4.5 -4.5 z m 17,9 V 44 h 4.5 4.5 V 62.5 81 h -4.5 -4.5 z m 15,0 V 44 h 4.41667 c 2.54795,0 4.58602,0.508069 4.81693,1.200811 0.29094,0.872798 1.445,0.705053 4.2249,-0.614096 4.70719,-2.233706 11.54487,-1.69967 15.47897,1.208935 l 2.72931,2.017861 3.40636,-2.156755 c 4.81693,-3.049869 14.05781,-2.994213 19.0704,0.114856 5.69004,3.529261 7.12252,7.733736 7.65847,22.478388 L 257.26546,81 H 252.13273 247 V 68.954545 56.909091 l -2.45455,-2.454546 C 241.60992,51.519011 237.67377,51.297496 233.5,53.832941 l -3,1.822412 0.35381,12.672323 L 231.20762,81 H 226.10381 221 V 68.57258 56.14516 l -2.74969,-2.162904 c -3.36285,-2.645219 -8.36745,-2.160292 -11.89371,1.152457 L 204,57.348628 V 69.174314 81 h -4.5 -4.5 z m 147,0 V 44 h 5 5 V 62.5 81 h -5 -5 z M 180,31 v -5 h 5 5 v 5 5 h -5 -5 z m 162,0 v -5 h 5.5 5.5 v 5 5 h -5.5 -5.5 z"
         id="path311" />
    </g>
  </g>
</svg>
