<svg width="652.701" height="93.201" viewBox="0 0 652.701 93.201" xmlns="http://www.w3.org/2000/svg"><g id="svgGroup" stroke-linecap="round" fill-rule="evenodd" font-size="9pt" stroke="#000" stroke-width="0.25mm" fill="#000" style="stroke:#000;stroke-width:0.25mm;fill:#000"><path d="M 470.301 71.201 L 461.301 71.201 L 461.301 1.201 L 474.601 1.201 L 494.001 45.501 L 513.101 1.201 L 526.701 1.201 L 526.701 71.201 L 517.201 71.201 L 517.201 13.301 L 498.501 55.401 L 489.101 55.401 L 470.301 13.301 L 470.301 71.201 Z M 304.201 5.701 L 300.701 13.601 Q 296.501 11.301 292.151 9.801 A 27.36 27.36 0 0 0 286.052 8.48 A 34.225 34.225 0 0 0 282.501 8.301 A 20.13 20.13 0 0 0 275.014 9.671 A 18.919 18.919 0 0 0 271.301 11.651 A 20.295 20.295 0 0 0 265.976 17.068 A 27.457 27.457 0 0 0 263.551 21.501 A 31.614 31.614 0 0 0 261.505 28.231 Q 260.902 31.363 260.751 34.955 A 58.311 58.311 0 0 0 260.701 37.401 Q 260.701 44.709 262.669 50.164 A 26.036 26.036 0 0 0 263.301 51.751 A 24.18 24.18 0 0 0 266.233 56.797 A 19.102 19.102 0 0 0 270.501 60.901 A 17.93 17.93 0 0 0 280.31 64.086 A 21.993 21.993 0 0 0 281.101 64.101 A 22.762 22.762 0 0 0 286.698 63.437 A 18.835 18.835 0 0 0 291.051 61.751 A 40.361 40.361 0 0 0 294.053 59.967 Q 296.338 58.463 297.901 56.901 L 297.901 41.601 L 283.401 41.601 L 283.401 34.101 L 306.901 34.101 L 306.901 71.201 L 298.501 71.201 L 298.501 64.201 A 35.883 35.883 0 0 1 294.122 67.492 A 47.354 47.354 0 0 1 290.001 69.851 A 23.594 23.594 0 0 1 280.595 72.35 A 28.131 28.131 0 0 1 278.901 72.401 A 26.572 26.572 0 0 1 269.588 70.801 A 24.511 24.511 0 0 1 264.501 68.201 A 26.888 26.888 0 0 1 256.569 59.904 A 33.951 33.951 0 0 1 254.601 56.251 A 37.529 37.529 0 0 1 251.693 46.68 A 51.837 51.837 0 0 1 251.001 38.001 A 56.301 56.301 0 0 1 251.836 28.083 A 42.572 42.572 0 0 1 254.801 18.251 A 32.73 32.73 0 0 1 260.585 9.303 A 29.455 29.455 0 0 1 265.751 4.851 Q 272.901 0.001 283.001 0.001 Q 289.501 0.001 294.601 1.601 Q 299.701 3.201 304.201 5.701 Z M 443.101 5.701 L 439.601 13.601 Q 435.401 11.301 431.051 9.801 A 27.36 27.36 0 0 0 424.952 8.48 A 34.225 34.225 0 0 0 421.401 8.301 A 20.13 20.13 0 0 0 413.914 9.671 A 18.919 18.919 0 0 0 410.201 11.651 A 20.295 20.295 0 0 0 404.876 17.068 A 27.457 27.457 0 0 0 402.451 21.501 A 31.614 31.614 0 0 0 400.405 28.231 Q 399.802 31.363 399.651 34.955 A 58.311 58.311 0 0 0 399.601 37.401 Q 399.601 44.709 401.569 50.164 A 26.036 26.036 0 0 0 402.201 51.751 A 24.18 24.18 0 0 0 405.133 56.797 A 19.102 19.102 0 0 0 409.401 60.901 A 17.93 17.93 0 0 0 419.21 64.086 A 21.993 21.993 0 0 0 420.001 64.101 A 22.762 22.762 0 0 0 425.598 63.437 A 18.835 18.835 0 0 0 429.951 61.751 A 40.361 40.361 0 0 0 432.953 59.967 Q 435.238 58.463 436.801 56.901 L 436.801 41.601 L 422.301 41.601 L 422.301 34.101 L 445.801 34.101 L 445.801 71.201 L 437.401 71.201 L 437.401 64.201 A 35.883 35.883 0 0 1 433.022 67.492 A 47.354 47.354 0 0 1 428.901 69.851 A 23.594 23.594 0 0 1 419.495 72.35 A 28.131 28.131 0 0 1 417.801 72.401 A 26.572 26.572 0 0 1 408.488 70.801 A 24.511 24.511 0 0 1 403.401 68.201 A 26.888 26.888 0 0 1 395.469 59.904 A 33.951 33.951 0 0 1 393.501 56.251 A 37.529 37.529 0 0 1 390.593 46.68 A 51.837 51.837 0 0 1 389.901 38.001 A 56.301 56.301 0 0 1 390.736 28.083 A 42.572 42.572 0 0 1 393.701 18.251 A 32.73 32.73 0 0 1 399.485 9.303 A 29.455 29.455 0 0 1 404.651 4.851 Q 411.801 0.001 421.901 0.001 Q 428.401 0.001 433.501 1.601 Q 438.601 3.201 443.101 5.701 Z M 331.901 71.201 L 322.401 71.201 L 322.401 1.201 L 331.901 1.201 L 331.901 31.101 L 366.401 31.101 L 366.401 1.201 L 375.901 1.201 L 375.901 71.201 L 366.401 71.201 L 366.401 39.301 L 331.901 39.301 L 331.901 71.201 Z M 203.801 71.201 L 194.801 71.201 L 194.801 19.201 L 203.501 19.201 L 203.501 27.901 Q 206.301 23.701 210.651 20.851 A 17.316 17.316 0 0 1 217.756 18.226 A 22.629 22.629 0 0 1 221.001 18.001 A 23.225 23.225 0 0 1 226.066 18.518 Q 231.16 19.657 234.151 23.301 Q 238.276 28.326 238.489 36.409 A 33.764 33.764 0 0 1 238.501 37.301 L 238.501 71.201 L 229.501 71.201 L 229.501 38.301 A 19.265 19.265 0 0 0 229.158 34.56 Q 228.72 32.345 227.72 30.597 A 10.966 10.966 0 0 0 226.851 29.301 A 8.579 8.579 0 0 0 220.574 25.947 A 12.061 12.061 0 0 0 219.501 25.901 A 13.122 13.122 0 0 0 212.651 27.864 A 17.353 17.353 0 0 0 210.801 29.151 Q 206.701 32.401 203.801 36.801 L 203.801 71.201 Z M 90.001 93.201 L 81.001 93.201 L 81.001 32.501 A 11.015 11.015 0 0 0 80.874 30.765 Q 80.543 28.698 79.351 27.651 A 5.718 5.718 0 0 0 76.561 26.328 A 7.991 7.991 0 0 0 75.101 26.201 L 77.001 19.201 Q 82.862 19.201 85.923 22.164 A 10.15 10.15 0 0 1 88.501 26.501 Q 89.456 25.067 91.552 23.178 A 38.58 38.58 0 0 1 91.751 23.001 A 18.902 18.902 0 0 1 94.452 21.017 A 25.569 25.569 0 0 1 97.351 19.501 A 16.955 16.955 0 0 1 101.909 18.211 A 21.886 21.886 0 0 1 105.001 18.001 Q 111.001 18.001 116.251 21.151 A 22.329 22.329 0 0 1 123.429 28.118 A 27.464 27.464 0 0 1 124.701 30.251 Q 127.901 36.201 127.901 44.701 Q 127.901 53.001 124.701 59.251 A 27.846 27.846 0 0 1 120.767 65.082 A 23.029 23.029 0 0 1 116.351 68.951 Q 111.201 72.401 105.201 72.401 Q 100.601 72.401 96.601 70.551 A 30.352 30.352 0 0 1 93.184 68.712 Q 91.392 67.585 90.001 66.301 L 90.001 93.201 Z M 614.801 93.201 L 605.801 93.201 L 605.801 32.501 A 11.015 11.015 0 0 0 605.674 30.765 Q 605.343 28.698 604.151 27.651 A 5.718 5.718 0 0 0 601.361 26.328 A 7.991 7.991 0 0 0 599.901 26.201 L 601.801 19.201 Q 607.662 19.201 610.723 22.164 A 10.15 10.15 0 0 1 613.301 26.501 Q 614.256 25.067 616.352 23.178 A 38.58 38.58 0 0 1 616.551 23.001 A 18.902 18.902 0 0 1 619.252 21.017 A 25.569 25.569 0 0 1 622.151 19.501 A 16.955 16.955 0 0 1 626.709 18.211 A 21.886 21.886 0 0 1 629.801 18.001 Q 635.801 18.001 641.051 21.151 A 22.329 22.329 0 0 1 648.229 28.118 A 27.464 27.464 0 0 1 649.501 30.251 Q 652.701 36.201 652.701 44.701 Q 652.701 53.001 649.501 59.251 A 27.846 27.846 0 0 1 645.567 65.082 A 23.029 23.029 0 0 1 641.151 68.951 Q 636.001 72.401 630.001 72.401 Q 625.401 72.401 621.401 70.551 A 30.352 30.352 0 0 1 617.984 68.712 Q 616.192 67.585 614.801 66.301 L 614.801 93.201 Z M 182.501 48.901 L 146.101 48.901 A 24.088 24.088 0 0 0 147.24 53.926 Q 148.576 57.738 151.201 60.301 Q 155.401 64.401 162.301 64.401 Q 166.801 64.401 170.401 63.451 Q 174.001 62.501 177.301 61.001 L 179.401 68.701 A 40.77 40.77 0 0 1 175.066 70.326 A 51.863 51.863 0 0 1 171.301 71.351 A 38.914 38.914 0 0 1 166.209 72.17 A 52.025 52.025 0 0 1 161.201 72.401 A 28.318 28.318 0 0 1 153.455 71.395 A 21.108 21.108 0 0 1 143.451 65.251 A 23.521 23.521 0 0 1 138.246 55.711 Q 136.901 51.046 136.901 45.201 A 35.359 35.359 0 0 1 137.733 37.379 A 28.84 28.84 0 0 1 139.851 31.251 A 24.642 24.642 0 0 1 144.867 24.169 A 22.887 22.887 0 0 1 148.101 21.551 A 21.048 21.048 0 0 1 158.36 18.079 A 26.205 26.205 0 0 1 160.401 18.001 Q 167.901 18.001 172.851 21.251 Q 177.801 24.501 180.301 30.001 A 28.185 28.185 0 0 1 182.727 39.864 A 33.434 33.434 0 0 1 182.801 42.101 A 75.204 75.204 0 0 1 182.51 48.797 A 69.426 69.426 0 0 1 182.501 48.901 Z M 25.409 71.643 A 36.51 36.51 0 0 0 33.001 72.401 A 38.35 38.35 0 0 0 38.162 72.064 A 30.074 30.074 0 0 0 46.901 69.551 Q 53.001 66.701 57.301 61.751 Q 61.601 56.801 63.851 50.201 Q 66.101 43.601 66.101 36.101 A 48.215 48.215 0 0 0 66.022 33.323 A 41.439 41.439 0 0 0 63.851 22.101 Q 61.601 15.601 57.301 10.601 Q 53.001 5.601 46.851 2.801 A 29.925 29.925 0 0 0 40.959 0.838 A 36.42 36.42 0 0 0 33.001 0.001 A 39.35 39.35 0 0 0 26.773 0.476 A 29.661 29.661 0 0 0 15.301 4.751 Q 7.901 9.501 3.951 17.651 A 37.989 37.989 0 0 0 1.115 25.764 A 46.182 46.182 0 0 0 0.001 36.101 A 48.913 48.913 0 0 0 0.036 37.961 A 42.769 42.769 0 0 0 2.251 50.201 A 39.376 39.376 0 0 0 2.69 51.423 A 34.353 34.353 0 0 0 8.751 61.751 Q 13.001 66.701 19.101 69.551 A 29.142 29.142 0 0 0 25.409 71.643 Z M 579.301 23.401 L 579.301 19.201 L 587.501 19.201 L 587.501 58.601 A 12.15 12.15 0 0 0 587.602 60.236 Q 587.934 62.67 589.351 63.551 Q 591.201 64.701 593.401 64.701 L 591.501 71.701 A 17.722 17.722 0 0 1 587.236 71.228 Q 581.599 69.828 580.004 64.281 A 13.59 13.59 0 0 1 579.901 63.901 A 21.307 21.307 0 0 1 576.791 67.326 A 28.498 28.498 0 0 1 573.651 69.751 Q 569.701 72.401 563.601 72.401 Q 557.101 72.401 551.801 69.101 A 22.947 22.947 0 0 1 544.388 61.574 A 27.923 27.923 0 0 1 543.351 59.751 A 27.228 27.228 0 0 1 540.721 51.808 A 36.644 36.644 0 0 1 540.201 45.501 A 33.142 33.142 0 0 1 541.197 37.232 A 27.968 27.968 0 0 1 543.351 31.501 Q 546.501 25.301 552.051 21.651 A 22.297 22.297 0 0 1 563.245 18.044 A 27.388 27.388 0 0 1 564.801 18.001 A 22.584 22.584 0 0 1 569.594 18.491 A 18.703 18.703 0 0 1 572.951 19.551 A 26.002 26.002 0 0 1 577.237 21.844 A 22.103 22.103 0 0 1 579.301 23.401 Z M 33.001 64.201 A 26.517 26.517 0 0 0 38.949 63.566 A 19.316 19.316 0 0 0 45.901 60.501 A 22.47 22.47 0 0 0 53.226 51.63 A 27.252 27.252 0 0 0 53.751 50.451 A 34.108 34.108 0 0 0 56.073 41.522 A 43.503 43.503 0 0 0 56.401 36.101 Q 56.401 30.701 54.801 25.701 A 29.735 29.735 0 0 0 50.661 17.374 A 28.121 28.121 0 0 0 50.201 16.751 Q 47.201 12.801 42.851 10.501 A 19.921 19.921 0 0 0 35.434 8.319 A 24.578 24.578 0 0 0 33.001 8.201 A 24.086 24.086 0 0 0 26.508 9.041 A 19.545 19.545 0 0 0 20.451 11.901 A 23.148 23.148 0 0 0 12.85 21.027 A 27.785 27.785 0 0 0 12.451 21.901 A 32.793 32.793 0 0 0 9.997 31.088 A 41.257 41.257 0 0 0 9.701 36.101 Q 9.701 41.501 11.251 46.551 A 29.379 29.379 0 0 0 15.431 55.096 A 27.923 27.923 0 0 0 15.801 55.601 Q 18.801 59.601 23.151 61.901 A 19.921 19.921 0 0 0 30.568 64.082 A 24.578 24.578 0 0 0 33.001 64.201 Z M 578.501 57.901 L 578.501 30.001 Q 575.801 28.101 572.551 26.951 Q 569.301 25.801 565.701 25.801 A 15.924 15.924 0 0 0 560.729 26.554 A 14.024 14.024 0 0 0 557.251 28.251 A 16.301 16.301 0 0 0 552.231 33.674 A 19.962 19.962 0 0 0 551.501 35.051 A 20.663 20.663 0 0 0 549.747 40.727 A 27.678 27.678 0 0 0 549.401 45.201 Q 549.401 50.801 551.501 55.151 A 17.602 17.602 0 0 0 554.606 59.697 A 15.697 15.697 0 0 0 557.301 61.951 Q 561.001 64.401 565.601 64.401 Q 569.401 64.401 572.801 62.551 Q 576.201 60.701 578.501 57.901 Z M 90.001 32.601 L 90.001 58.201 Q 92.601 60.901 96.001 62.651 Q 99.401 64.401 103.401 64.401 Q 110.094 64.401 114.317 59.216 A 17.38 17.38 0 0 0 114.451 59.051 A 18.792 18.792 0 0 0 117.944 51.745 Q 118.606 49.055 118.689 45.909 A 34.555 34.555 0 0 0 118.701 45.001 Q 118.701 39.001 116.551 34.701 Q 114.401 30.401 110.851 28.101 Q 107.301 25.801 103.001 25.801 A 14.741 14.741 0 0 0 97.374 26.863 A 14.054 14.054 0 0 0 95.251 27.951 Q 91.801 30.101 90.001 32.601 Z M 614.801 32.601 L 614.801 58.201 Q 617.401 60.901 620.801 62.651 Q 624.201 64.401 628.201 64.401 Q 634.894 64.401 639.117 59.216 A 17.38 17.38 0 0 0 639.251 59.051 A 18.792 18.792 0 0 0 642.744 51.745 Q 643.406 49.055 643.489 45.909 A 34.555 34.555 0 0 0 643.501 45.001 Q 643.501 39.001 641.351 34.701 Q 639.201 30.401 635.651 28.101 Q 632.101 25.801 627.801 25.801 A 14.741 14.741 0 0 0 622.174 26.863 A 14.054 14.054 0 0 0 620.051 27.951 Q 616.601 30.101 614.801 32.601 Z M 146.001 41.601 L 174.501 41.601 A 24.355 24.355 0 0 0 174.096 37.015 Q 173.601 34.431 172.496 32.407 A 12.422 12.422 0 0 0 170.701 29.901 A 12.488 12.488 0 0 0 163.74 26.125 A 18.395 18.395 0 0 0 160.201 25.801 A 13.58 13.58 0 0 0 155.089 26.735 A 12.524 12.524 0 0 0 150.601 29.851 Q 146.801 33.901 146.001 41.601 Z" vector-effect="non-scaling-stroke"/></g></svg>