<?xml version="1.0" encoding="UTF-8" standalone="no"?>
<!-- Created with Inkscape (http://www.inkscape.org/) -->

<svg
   version="1.1"
   id="svg182"
   width="768"
   height="488"
   viewBox="0 0 768 488"
   sodipodi:docname="openENTRANCE.svg"
   inkscape:version="1.2.2 (b0a84865, 2022-12-01)"
   xmlns:inkscape="http://www.inkscape.org/namespaces/inkscape"
   xmlns:sodipodi="http://sodipodi.sourceforge.net/DTD/sodipodi-0.dtd"
   xmlns="http://www.w3.org/2000/svg"
   xmlns:svg="http://www.w3.org/2000/svg">
  <defs
     id="defs186" />
  <sodipodi:namedview
     id="namedview184"
     pagecolor="#ffffff"
     bordercolor="#666666"
     borderopacity="1.0"
     inkscape:showpageshadow="2"
     inkscape:pageopacity="0.0"
     inkscape:pagecheckerboard="0"
     inkscape:deskcolor="#d1d1d1"
     showgrid="false"
     inkscape:zoom="0.48360656"
     inkscape:cx="382.54237"
     inkscape:cy="244"
     inkscape:window-width="750"
     inkscape:window-height="480"
     inkscape:window-x="0"
     inkscape:window-y="25"
     inkscape:window-maximized="0"
     inkscape:current-layer="g188" />
  <g
     inkscape:groupmode="layer"
     inkscape:label="Image"
     id="g188">
    <g
       id="g309">
      <path
         style="fill:#ceced0"
         d="m 281.47834,464.80415 c -0.28066,-0.73139 -0.3906,-14.14903 -0.24432,-29.81698 L 281.5,406.5 l 2.44397,-0.34497 c 1.48489,-0.20959 2.94423,0.33917 3.71875,1.39838 0.92413,1.26383 1.62719,1.45589 2.55602,0.69825 0.70469,-0.57481 3.13606,-1.59553 5.40303,-2.26826 l 4.12178,-1.22314 3.70562,1.22296 c 2.29011,0.75581 4.43861,2.42506 5.62449,4.36987 l 1.91886,3.14691 0.004,12.81574 c 0.004,13.25534 -0.59743,15.86155 -4.3633,18.91202 -2.72924,2.21077 -12.41464,2.40461 -15.19183,0.30404 -1.06762,-0.8075 -2.26341,-1.4825 -2.6573,-1.5 -0.39389,-0.0175 -0.84389,4.8057 -1,10.7182 L 287.5,465.5 l -2.75569,0.31697 c -1.61983,0.18632 -2.96601,-0.23115 -3.26597,-1.01282 z M 302.4433,438.77749 C 303.60167,437.12369 304,433.98208 304,426.5 c 0,-11.77962 -1.1845,-14.50226 -6.3067,-14.49626 -1.75632,0.002 -4.6558,0.89544 -6.4433,1.9853 L 288,415.9706 v 9.82357 c 0,6.35656 0.44116,10.37654 1.25,11.39038 3.42231,4.28967 10.68983,5.16715 13.1933,1.59294 z m -54.76252,4.83663 C 243.92229,439.85562 242,433.97605 242,426.23868 c 0,-6.50488 2.43629,-14.37861 5.23193,-16.90887 7.62048,-6.89708 20.34655,-4.93113 24.88978,3.84503 l 2.23905,4.32516 0.0696,8.53152 C 274.55475,441.27224 269.97519,447 257.6653,447 h -6.59863 z m 16.02753,-4.12236 c 4.30435,-3.01489 5.25815,-16.68714 1.65525,-23.72727 -2.39434,-4.67861 -10.29362,-5.12564 -13.50891,-0.76449 -3.76393,5.10529 -3.61036,18.49826 0.26865,23.42962 L 254.14516,441 h 3.70491 c 2.03771,0 4.67391,-0.67871 5.85824,-1.50824 z m 61.12358,5.7997 c -6.59105,-4.08914 -9.64142,-17.55508 -6.45758,-28.50711 1.98454,-6.82657 5.77861,-10.38482 12.08076,-11.32988 l 4.44557,-0.66666 3.73514,1.8561 c 5.82331,2.89375 7.58341,6.09113 8.14168,14.79005 L 347.26301,429 h -11.07249 c -6.08987,0 -11.28266,0.34006 -11.53953,0.7557 -0.95868,1.55117 0.6535,6.28081 3.00628,8.8195 l 2.43386,2.62618 3.70444,-0.4658 c 2.03744,-0.25618 5.18718,-1.08279 6.99942,-1.83691 l 3.29499,-1.37111 0.9397,1.48622 c 1.74195,2.75506 0.98841,4.60717 -2.56361,6.30101 -4.60334,2.19518 -14.0785,2.18265 -17.63418,-0.0233 z M 340,420.43426 c 0,-2.78549 -1.64568,-6.49775 -3.3997,-7.66895 -1.98948,-1.32841 -7.42515,-0.7976 -9.11262,0.88987 C 325.68813,415.45472 324,419.28335 324,421.5651 V 423 h 8 8 z m 14,6.1291 V 406 h 2.89301 c 1.59306,0 3.14086,0.64588 3.44459,1.43738 l 0.55157,1.43738 5.0824,-2.14725 5.0824,-2.14725 4.13242,1.45987 c 2.27284,0.80293 5.0732,2.72907 6.22302,4.28031 L 383.5,413.14088 V 429.82044 446.5 l -3.18039,0.30817 -3.18038,0.30816 -0.31962,-16.14083 -0.31961,-16.14084 -2,-1.4935 c -2.50065,-1.86735 -8.89365,-1.19987 -11.55228,1.20615 l -1.89705,1.71681 -0.27534,15.11794 L 360.5,446.5 l -3.25,0.31336 -3.25,0.31336 z m 112.6967,19.80001 C 466.31352,445.98018 466,432.47524 466,416.35239 V 387.0381 l 2.25,-0.56139 c 1.2375,-0.30877 6.75,-0.42985 12.25,-0.26906 l 10,0.29235 v 3 3 l -8.75,0.28893 -8.75,0.28894 V 403.03893 413 h 7.39301 7.39301 l 0.57561,1.5 c 0.31658,0.825 0.31658,2.175 0,3 l -0.57561,1.5 H 480.39301 473 v 10.5 10.5 l 7.75,0.0153 c 8.82178,0.0174 10.56434,0.7253 10.08749,4.09778 L 490.5,446.5 l -11.5533,0.28003 c -6.35431,0.15402 -11.86681,-0.0335 -12.25,-0.41666 z m 31.78164,-0.55922 c -0.28066,-0.73139 -0.3906,-14.10022 -0.24432,-29.70851 l 0.26598,-28.3787 1.75,-1.10336 c 3.87074,-2.44045 4.65563,-1.03764 16.42303,29.35235 L 521.5,428.43186 522,407.46593 522.5,386.5 h 2.5 2.5 v 30 30 h -2.83052 -2.83051 l -4.74603,-12 c -9.50438,-24.03117 -11.09695,-28.19602 -11.31285,-29.5851 -0.12094,-0.7782 -0.45844,8.2601 -0.75,20.0851 l -0.53009,21.5 -2.75569,0.31697 c -1.61983,0.18632 -2.96601,-0.23115 -3.26597,-1.01282 z m 46.58892,-0.67848 C 544.39252,443.86491 544,433.93295 544,418.12053 V 393.10958 L 539.25,392.80479 534.5,392.5 v -3 -3 l 12.99026,-0.28167 12.99026,-0.28167 1.22099,1.66981 C 563.89434,390.60535 561.57657,393 556.48115,393 h -4.44848 l -0.26634,26.75 -0.26633,26.75 -2.68274,0.30993 c -1.86608,0.21559 -3.00763,-0.29713 -3.75,-1.68426 z m 23.41133,0.67913 c -0.28052,-0.73103 -0.39047,-14.37367 -0.24432,-30.31697 L 568.5,386.5 575,386.18499 c 9.74191,-0.47213 14.67453,0.5524 18.31345,3.80377 L 596.5,392.83594 V 404 415.16406 l -3.31171,2.95901 -3.31171,2.95901 4.42729,11.70896 c 2.43501,6.43993 4.21464,12.27146 3.95472,12.95896 -0.63303,1.67443 -4.72883,1.59325 -6.15231,-0.12194 -0.62624,-0.75457 -2.32336,-4.69207 -3.77139,-8.75 C 586.88687,432.82013 585.13861,427.925 584.44988,426 l -1.25225,-3.5 -4.06758,-0.30597 -4.06759,-0.30597 -0.28123,12.30597 L 574.5,446.5 l -2.75569,0.31697 c -1.61926,0.18626 -2.96602,-0.23116 -3.26572,-1.01217 z m 19.96471,-33.02731 c 1.03719,-1.4808 1.5567,-4.4843 1.5567,-9 V 397 l -2,-2 -2,-2 h -5.5 -5.5 v 11 11 h 5.9433 5.94329 z m 14.91788,32.72135 c -0.31683,-0.82564 0.1473,-4.65064 1.03139,-8.5 1.60937,-7.00728 3.01714,-13.52702 6.1536,-28.49884 3.94767,-18.84413 4.89992,-21.97951 6.78292,-22.33338 3.91087,-0.73495 6.38783,0.7094 6.97807,4.06901 0.31542,1.7954 1.46713,7.31437 2.55934,12.26437 6.96491,31.56555 9.16104,42.64643 8.62426,43.51495 -0.33484,0.54178 -1.6914,0.98505 -3.01459,0.98505 -2.49826,0 -4.47198,-2.50329 -4.48175,-5.68426 -0.003,-0.99866 -0.47422,-3.50324 -1.047,-5.56574 L 625.90599,432 h -6.82519 -6.82518 l -0.6571,4.25 c -0.3614,2.3375 -1.12882,5.7125 -1.70536,7.5 L 608.8449,447 h -2.45384 c -1.3496,0 -2.71305,-0.67552 -3.02988,-1.50116 z m 20.79907,-19.99242 c 0.27147,-0.27147 -0.62386,-6.12614 -1.98963,-13.01038 -1.36576,-6.88424 -2.73697,-12.26303 -3.04713,-11.95287 -0.5559,0.55591 -5.01528,21.77728 -5.08673,24.20683 -0.0358,1.21654 8.98904,1.89086 10.12349,0.75642 z m 18.34398,19.30664 c -0.31104,-1.27218 -0.43924,-14.63926 -0.28488,-29.70462 l 0.28065,-27.39157 1.75,-1.10332 c 1.25692,-0.79245 2.24308,-0.79923 3.5,-0.024 1.58843,0.97963 6.68828,12.67671 14.75,33.83085 l 3,7.87206 0.5,-20.88366 0.5,-20.88365 1.79804,-0.34513 c 0.98892,-0.18981 2.45142,0.19714 3.25,0.8599 L 673,388.24489 V 416.5 444.75511 l -1.44496,1.19921 c -0.79472,0.65956 -2.42891,1.05216 -3.63151,0.87244 L 665.73697,446.5 662.823,439 c -1.60268,-4.125 -5.256,-13.575 -8.11849,-21 L 649.5,404.5 l -0.5,21 -0.5,21 -2.71512,0.31306 -2.71512,0.31305 z M 685.4,443.6 l -3.4,-3.4 0.0147,-22.85 c 0.0104,-16.14672 0.37778,-23.56734 1.25224,-25.29526 1.95834,-3.8696 7.12055,-6.32331 13.18854,-6.26878 10.1686,0.0914 14.54448,4.90298 14.54448,15.99272 0,6.47538 -1.46603,8.84296 -4.81707,7.77938 l -1.91305,-0.60718 -0.53675,-6.68672 -0.53674,-6.68672 -2.20898,-1.78872 C 698.06405,391.42153 693.48153,391.51847 691,394 l -2,2 v 20.5 20.5 l 2,2 c 2.39869,2.39869 8.18606,2.67109 10.36909,0.48805 1.42769,-1.42769 2.29944,-5.51427 2.87728,-13.48805 L 704.5,422.5 h 3 3 l 0.31817,6.5 c 0.40632,8.30063 -1.09671,13.35009 -4.74763,15.94977 L 703.19126,447 H 695.99563 688.8 Z m 35.06513,2.16973 c -0.27312,-0.71174 -0.37701,-14.3386 -0.23086,-30.2819 L 720.5,386.5 l 11.10153,-0.28136 11.10152,-0.28136 1.2311,1.48337 c 0.6771,0.81586 0.93858,2.40497 0.58108,3.53136 L 743.86522,393 H 735.43261 727 v 9.95619 9.95619 l 7.25,0.29381 7.25,0.29381 0.31642,2.75 0.31642,2.75 H 734.56642 727 v 10.5 10.5 l 7.75,0.0153 c 8.82178,0.0174 10.56434,0.7253 10.08749,4.09778 L 744.5,446.5 l -11.76914,0.2819 -11.76915,0.2819 z m -302.03587,-2.66254 c -2.23891,-1.01689 -5.51251,-3.59451 -7.27468,-5.72804 -6.13888,-7.43262 -6.47776,-15.5752 -1.04351,-25.07328 5.79818,-10.13415 5.72709,-12.50274 -1.05388,-35.11516 -7.10412,-23.69004 -10.67405,-30.66173 -16.92467,-33.05214 -1.44789,-0.55371 -6.56602,-1.53232 -11.37362,-2.17468 -11.93456,-1.59463 -20.9896,-6.0094 -29.23244,-14.25224 C 341.76723,317.95242 337,306.49859 337,292.81014 c 0,-8.90158 -2.18115,-14.26814 -7.04767,-17.34023 -2.07381,-1.30914 -12.47395,-5.826 -23.11144,-10.03746 -43.64833,-17.28073 -45.06713,-17.45786 -57.19286,-7.14039 -2.45116,2.08563 -7.08722,4.72075 -10.30235,5.85582 l -5.84568,2.06376 -7.5973,-0.43161 -7.59729,-0.43161 -6.93165,-3.52145 c -11.14438,-5.66163 -13.77743,-5.65518 -28.16078,0.069 -2.90786,1.15724 -5.61224,2.10407 -6.00974,2.10407 -0.3975,0 2.15816,-3.0375 5.67923,-6.75 8.55304,-9.01804 10.02403,-12.55295 10.36256,-24.90205 l 0.27207,-9.92474 3.28345,-6.66963 c 8.01555,-16.28189 25.89802,-23.30408 43.57518,-17.11134 5.41901,1.89841 10.30829,1.69292 15.05855,-0.6329 3.83818,-1.87925 6.42156,-3.99495 16.15592,-13.23119 l 4.09019,-3.8809 2.65981,1.21189 c 1.46289,0.66654 2.6598,1.49016 2.6598,1.83026 0,0.34011 -2.95925,3.53038 -6.57611,7.08949 -14.24619,14.01873 -15.48426,17.09181 -12.87801,31.96529 2.01555,11.50249 3.91723,16.37627 7.59838,19.47376 2.63024,2.2132 39.39528,17.2502 52.35574,21.41365 14.84847,4.76995 19.54009,3.87642 29.87431,-5.68966 8.33043,-7.71123 15.66478,-11.74689 24.15142,-13.2891 10.62402,-1.93062 13.75793,-3.03264 16.54229,-5.81701 3.23615,-3.23614 7.20332,-15.0006 8.98648,-26.64896 l 1.22423,-7.99718 -1.69371,-2.96984 C 399.65347,199.83643 397.79816,196.7 396.4621,194.5 c -1.33606,-2.2 -2.45546,-5.125 -2.48757,-6.5 -0.15841,-6.78547 -6.4734,-12.6667 -26.08607,-24.29427 -17.98981,-10.66545 -22.962,-12.27034 -29.57336,-9.5455 -1.54831,0.63813 -7.83487,1.4339 -13.97013,1.76838 l -11.15504,0.60814 -5.34496,3.7143 c -2.93974,2.04286 -7.03497,5.32778 -9.10052,7.29983 l -3.75555,3.58555 -2.51614,-1.9792 -2.51614,-1.97919 6.49997,-6.59667 c 8.78027,-8.91091 9.94002,-11.3537 9.77125,-20.58137 -0.0754,-4.125 0.28132,-9.075 0.79282,-11 1.44179,-5.42616 6.65802,-10.96928 12.91529,-13.72463 3.06023,-1.34756 6.40019,-3.19829 7.42214,-4.11274 4.16112,-3.72342 10.29605,-19.560273 11.30066,-29.171797 l 0.61362,-5.870809 -2.63619,-5.041606 C 334.82373,67.612156 334,64.49269 334,61.095131 v -4.94168 l 2.61912,-3.112643 c 8.41815,-10.004412 22.82186,-7.179914 26.56459,5.209192 l 1.13287,3.75 -1.17065,3.907255 c -1.19925,4.00274 -5.30916,8.216234 -11.04438,11.322739 -3.62707,1.964618 -6.89726,8.449504 -10.11332,20.055026 -2.73639,9.87462 -2.58507,16.19246 0.50814,21.21498 4.51308,7.32799 6.45928,11.96635 6.50363,15.5 0.0715,5.69717 3.34558,11.50462 8.67113,15.38053 7.40804,5.39154 32.37711,20.22194 36.47125,21.66214 l 3.64238,1.28127 6.16303,-1.72925 c 7.38041,-2.07084 10.73168,-1.54394 17.53139,2.75636 l 4.97918,3.14895 4.52082,-0.10215 c 3.95454,-0.0894 10.30443,-1.6241 37.52082,-9.06864 3.3,-0.90266 8.73279,-2.90594 12.07286,-4.45174 l 6.07286,-2.81055 2.81938,-5.28346 c 1.55065,-2.9059 3.76786,-6.33975 4.92713,-7.63078 2.76575,-3.08007 8.84924,-6.15268 12.18178,-6.15268 4.58522,0 9.82891,-3.82698 14.15092,-10.32772 5.29373,-7.96229 36.71279,-63.308828 40.43803,-71.233989 l 2.84933,-6.06171 -2.16274,-7.193932 -2.16274,-7.193933 1.25668,-4.194448 c 1.60541,-5.358372 6.49473,-10.246065 11.85642,-11.852466 L 577,21.683425 l 4.20009,1.258377 c 8.28735,2.48295 13.7536,11.366301 12.19782,19.823014 -0.96628,5.252348 -7.66725,11.846829 -12.93017,12.724672 -7.17345,1.196515 -9.49512,2.658715 -13.34992,8.40784 -5.27707,7.870322 -37.88964,65.337852 -40.7522,71.810612 -2.65874,6.01189 -3.00601,12.54785 -0.86562,16.29206 2.13209,3.72971 1.86894,12.3565 -0.51975,17.03872 -2.74542,5.38147 -8.74255,9.19409 -15.31995,9.73954 -5.49419,0.45562 -8.61026,-0.57571 -16.1603,-5.34861 l -4,-2.52868 -6.5,0.44483 c -7.02447,0.48071 -24.81705,4.91974 -39.95297,9.96777 -10.02805,3.34449 -14.80509,6.86592 -18.26748,13.46598 -0.94625,1.80375 -3.18962,4.05375 -4.98528,5 -1.79565,0.94625 -4.88631,3.29545 -6.86813,5.22045 l -3.60331,3.5 -2.27146,8.47594 c -1.24931,4.66177 -2.47753,11.86177 -2.72938,16 l -0.45791,7.52406 1.81796,3.45875 c 0.99988,1.90232 4.29296,5.14353 7.31796,7.20269 18.09446,12.31717 26.55323,33.33525 21.4081,53.19422 -2.83207,10.93112 -6.24791,16.49979 -16.09627,26.24091 -5.19809,5.14149 -9.494,10.28108 -9.88047,11.82091 -1.06401,4.23932 0.16615,10.5403 5.602,28.69392 7.90823,26.41046 8.97662,28.3267 18.24161,32.71779 6.96307,3.30011 10.80116,6.48355 13.04257,10.81797 4.22549,8.1712 2.82894,17.09131 -3.74421,23.9152 -6.18508,6.42101 -15.14106,8.17971 -23.14407,4.54483 z M 96,334.07439 C 82.824705,331.37591 74.813391,318.28328 78.059011,304.75401 l 1.244595,-5.18805 5.171784,-5.17178 5.171784,-5.17179 5.820299,-1.30252 5.820297,-1.30253 8.60612,2.21744 c 4.73336,1.2196 9.76479,2.20569 11.18096,2.19133 3.16554,-0.0321 14.93835,-3.97187 20.79123,-6.95779 2.38025,-1.21431 4.51457,-2.02101 4.74292,-1.79265 0.22835,0.22835 -3.83331,4.09855 -9.02592,8.60044 l -9.4411,8.18525 -1.50418,4.21932 c -0.82731,2.32063 -1.78409,6.65219 -2.12618,9.6257 -0.70548,6.13207 -2.5522,10.31317 -6.37578,14.4352 -5.14389,5.5454 -14.31451,8.33473 -22.13584,6.73281 z M 363,223.07615 c -24.51724,-5.69588 -35.62825,-11.35563 -86.5,-44.06161 -40.00729,-25.72111 -58.90573,-32.24006 -94,-32.42497 -9.35,-0.0493 -20.2625,0.25107 -24.25,0.66741 l -7.25,0.75698 v -15.41365 -15.41366 l 9.5657,-0.71717 c 16.82659,-1.26154 38.47778,1.47445 54.66266,6.90753 22.04051,7.39876 45.04167,22.00481 85.27164,54.14865 12.1,9.66793 26.99182,20.93272 33.09294,25.03287 16.47439,11.07132 35.02683,18.49171 50.19739,20.07734 3.41532,0.35698 6.20967,1.03494 6.20967,1.50659 0,1.50323 -19.20426,0.7448 -27,-1.06631 z m 101.94458,-4.96097 C 463.67251,215.85183 462.33787,214 461.97873,214 c -0.61093,0 -5.33174,0.71166 -29.73057,4.48188 -16.07457,2.48392 -15.23644,1.84801 7.25184,-5.50212 8.8,-2.87622 16.35218,-5.43393 16.78262,-5.6838 0.43045,-0.24988 -0.18338,-2.01736 -1.36406,-3.92774 -1.18068,-1.91038 -1.98286,-3.62044 -1.78263,-3.80013 0.53745,-0.48232 33.25936,1.49387 33.80722,2.04172 0.25708,0.25709 -4.06703,5.00188 -9.60914,10.54399 l -10.07657,10.07656 z"
         id="path323" />
      <path
         style="fill:#dfe99f"
         d="m 282,435.96862 v -29.03139 l 1.53725,-0.5899 c 0.84548,-0.32444 2.37956,0.1724 3.40907,1.10409 l 1.87183,1.69398 3.04126,-1.5727 c 3.89642,-2.01491 11.05542,-2.02108 13.9238,-0.012 4.18684,2.93259 5.21679,6.56957 5.21679,18.42176 0,12.07591 -1.20676,16.6481 -5.11687,19.38685 -2.90981,2.0381 -8.83537,2.09531 -13.53737,0.13069 -1.97451,-0.825 -3.76005,-1.5 -3.96788,-1.5 C 288.17004,444 288,448.725 288,454.5 V 465 h -3 -3 z m 20.75,3.23928 c 1.81923,-2.31429 1.7105,-23.19587 -0.13391,-25.71825 -1.82287,-2.49292 -7.98794,-2.34811 -11.50013,0.27012 l -2.61596,1.95012 -0.28643,10.27606 -0.28643,10.27606 1.7051,1.88411 c 3.42585,3.78553 10.52496,4.36014 13.11776,1.06178 z M 252,446.29629 c -2.87268,-1.04529 -6.96199,-5.65023 -8.17984,-9.21124 -0.67434,-1.97178 -1.21503,-6.98961 -1.20154,-11.15075 l 0.0245,-7.5657 2.19598,-4.53628 c 1.36766,-2.82521 3.44335,-5.20804 5.50291,-6.31719 l 3.30694,-1.7809 6.13804,0.44398 c 10.16179,0.73504 14.16906,6.48241 14.16906,20.32179 0,13.97678 -4.99466,20.57467 -15.45608,20.41731 -2.75,-0.0414 -5.675,-0.32082 -6.5,-0.62102 z m 12.68592,-7.8152 c 4.03389,-4.50945 4.39492,-18.21707 0.6132,-23.28228 -4.22766,-5.66247 -12.2789,-4.8848 -14.92213,1.44134 -1.88628,4.5145 -1.76711,15.73547 0.21139,19.90485 2.73179,5.75683 9.81013,6.72894 14.09754,1.93609 z M 326.5,446.05464 c -6.77357,-2.77237 -10.80395,-15.4566 -8.47536,-26.67331 l 1.21595,-5.85721 3.76206,-3.76206 L 326.76471,406 h 5.07059 c 10.07113,0 14.25708,4.5504 14.51199,15.77546 L 346.5,428.5 335.25,428.78275 324,429.0655 v 2.01691 c 0,2.49366 2.32438,7.11199 4.47969,8.90074 2.12206,1.76115 7.70682,1.48888 11.68787,-0.5698 l 3.18747,-1.6483 1.32248,1.8086 c 2.00853,2.74682 1.67783,3.36284 -2.92751,5.45328 -4.36736,1.98242 -11.70866,2.47716 -15.25,1.02771 z m 13.30007,-26.13202 c 0.4272,-5.09289 -2.406,-8.32262 -7.30082,-8.32262 h -3.75843 l -2.37041,2.75576 c -2.26312,2.63103 -3.16473,7.51659 -1.6641,9.01722 0.38847,0.38847 3.87597,0.57597 7.75,0.41667 L 339.5,423.5 Z m 348.4125,25.57077 c -2.13104,-0.92589 -3.80191,-2.65964 -4.75,-4.92874 L 682,437.06424 v -20.63099 -20.63099 l 1.57727,-3.32386 c 1.96286,-4.13641 6.69426,-6.47958 13.07386,-6.47466 5.20052,0.004 10.47495,2.49481 12.23097,5.77597 0.95496,1.78436 1.51247,8.31559 1.24086,14.53671 L 710,409.13284 707.25,408.81642 704.5,408.5 l -0.5,-6.83151 -0.5,-6.8315 -1.94113,-1.4185 c -2.78436,-2.03469 -8.89945,-1.80462 -10.90388,0.41025 L 689,395.65748 v 21.09983 21.09983 l 1.57143,1.57143 c 0.94932,0.94932 3.3022,1.57143 5.94329,1.57143 h 4.37187 l 1.55671,-2.22251 C 703.47453,437.3052 704,434.30334 704,429.88448 v -6.6705 l 1.5,-0.57561 c 2.64619,-1.01543 4.49539,0.46819 4.63492,3.71862 0.53034,12.354 -0.83695,16.60599 -6.23132,19.37827 -3.21894,1.65427 -11.6251,1.5247 -15.69103,-0.24187 z M 354.22886,426.26298 354.5,406.52597 l 1.9339,-0.37173 c 1.06365,-0.20444 2.52471,0.43625 3.24679,1.42376 l 1.31289,1.79548 3.53714,-1.68674 c 4.58246,-2.18522 11.34964,-2.1442 14.10224,0.0855 3.89875,3.1581 4.36704,5.5346 4.36704,22.16202 L 383,446 h -3 -3 v -15.04545 -15.04546 l -2.45455,-2.45454 c -1.35,-1.35 -2.91589,-2.45455 -3.47976,-2.45455 -2.42959,0 -9.20549,3.3927 -10.09486,5.05451 C 360.43687,417.05221 360,424.1981 360,431.93426 V 446 h -3.02114 -3.02114 z m 112.22352,18.47352 c -0.26667,-0.69492 -0.36504,-13.85742 -0.21861,-29.25 L 466.5,387.5 l 11.76914,-0.2819 11.76915,-0.2819 0.64333,1.67651 C 491.79051,391.50243 488.24985,393 480.30887,393 H 473 v 9.95619 9.95619 l 7.25,0.29381 7.25,0.29381 v 2.5 2.5 l -7.25,0.29381 -7.25,0.29381 V 430.04381 441 h 9 9 v 2.5 2.5 h -12.03138 c -8.77117,0 -12.16277,-0.34238 -12.51624,-1.2635 z m 32.15461,-0.31829 c -0.93598,-2.43911 -0.68786,-54.74233 0.26683,-56.24829 0.46908,-0.73993 2.06787,-1.18362 3.6034,-1 l 2.7602,0.33008 8.13129,20.95347 8.13129,20.95347 0.5,-20.95347 0.5,-20.95347 2.75,-0.31642 2.75,-0.31642 v 29.62978 29.62978 l -3.20937,-0.31336 -3.20937,-0.31336 -3.84097,-10 c -2.11253,-5.5 -5.73081,-14.95 -8.04063,-21 l -4.19966,-11 -0.55134,21 c -0.30323,11.55 -0.64073,21.1125 -0.75,21.25 -0.77525,0.97559 -5.10166,-0.0548 -5.59167,-1.33179 z M 545,419.5 V 393 h -4.37756 c -4.66104,0 -7.2705,-1.8688 -6.2657,-4.48727 L 534.93723,387 H 548.46862 562 v 2.39301 C 562,392.16836 560.3672,393 554.91821,393 H 551 v 26.5 26.5 h -3 -3 z m 23.47808,25.30347 c -0.2808,-0.73175 -0.39074,-13.92439 -0.24431,-29.31697 L 568.5,387.5 l 9.7301,-0.28597 9.7301,-0.28597 3.09868,1.60239 C 595.1842,390.66373 597,395.39173 597,404 c 0,7.87253 -1.77546,13.27428 -4.91534,14.95469 -1.14656,0.61362 -2.08466,1.6635 -2.08466,2.33307 0,0.66956 1.8,5.94007 4,11.71224 2.2,5.77217 4,11.05851 4,11.74743 0,0.71719 -1.24693,1.25257 -2.91729,1.25257 h -2.91729 l -1.59256,-4.25 c -0.8759,-2.3375 -2.8888,-7.85 -4.47311,-12.25 l -2.88056,-8 -4.07836,-0.30597 -4.07837,-0.30597 -0.28123,12.30597 L 574.5,445.5 l -2.75569,0.31697 c -1.62042,0.18639 -2.96601,-0.23114 -3.26623,-1.0135 z m 17.18647,-29.86603 c 3.92834,-1.49355 4.30287,-2.45724 4.32014,-11.11601 C 590.00404,394.11951 589.06715,393 580.92857,393 H 575 v 11.5 11.5 h 3.9349 c 2.1642,0 5.19254,-0.47815 6.72965,-1.06256 z m 17.97564,30.28939 c -0.42457,-0.68697 10.59692,-53.76099 11.8446,-57.03767 0.32013,-0.84073 1.82996,-1.19937 4.20994,-1 l 3.71081,0.31084 6.14384,28.5 c 3.37912,15.675 5.96132,28.8375 5.73822,29.25 -0.2231,0.4125 -1.68821,0.75 -3.2558,0.75 h -2.85017 l -1.25097,-7 -1.25097,-7 h -7.26039 -7.26039 l -0.66163,3.25 c -0.36389,1.7875 -1.09199,4.9375 -1.618,7 l -0.95637,3.75 h -2.40244 c -1.32134,0 -2.61747,-0.34793 -2.88028,-0.77317 z M 625.00073,425.25 c 0.002,-2.2803 -5.37203,-27.21204 -5.77823,-26.80583 -0.26669,0.26668 -1.71359,6.57584 -3.21534,14.02035 L 613.27669,426 h 5.86166 c 3.22391,0 5.86198,-0.3375 5.86238,-0.75 z M 643,416.50306 v -29.62978 l 3.14693,0.31336 3.14693,0.31336 8.10307,20.96636 8.10307,20.96636 0.5,-20.96636 0.5,-20.96636 2.75,-0.31642 2.75,-0.31642 v 29.62978 29.62978 L 668.85307,445.81336 665.70614,445.5 657.60307,424.53364 649.5,403.56728 649,424.53364 648.5,445.5 l -2.75,0.31642 -2.75,0.31642 z M 720.23485,416.7809 720.5,387.5 732.25,387.21826 744,386.93653 v 2.42475 C 744,392.47389 742.47003,393 733.41821,393 H 726 v 10 10 l 6.75,0.0153 c 7.54142,0.0171 9.61578,0.83989 9.08755,3.60452 l -0.35924,1.88017 -7.77255,0.29267 -7.77256,0.29266 0.2834,10.70734 0.2834,10.70733 9,0.5 9,0.5 v 2 2 l -12.26515,0.2809 -12.26516,0.2809 0.26516,-29.2809 z M 419.5,443.50952 c -2.23066,-0.78223 -5.65627,-3.24974 -7.74438,-5.57838 -6.71964,-7.49367 -7.25405,-15.82088 -1.64455,-25.62527 5.86066,-10.24337 5.81071,-12.54756 -0.74378,-34.30587 -6.54927,-21.74095 -9.11633,-27.7696 -13.33676,-31.32085 -3.61654,-3.04313 -4.12035,-3.19829 -15.27163,-4.7034 -11.98726,-1.61794 -21.03597,-6.04148 -29.12082,-14.23597 C 341.66019,317.62659 337,306.50635 337,292.81014 c 0,-9.00754 -2.17059,-14.26147 -7.20489,-17.43948 -3.84539,-2.42749 -34.44427,-14.83114 -50.29511,-20.38777 -15.25392,-5.34737 -19.86143,-5.16128 -27.08896,1.09411 -2.53582,2.19473 -6.92818,5.21059 -9.76081,6.70191 l -5.15023,2.71148 -9.5,0.005 -9.5,0.005 -7.02894,-3.59724 c -11.22669,-5.74554 -13.83653,-5.74617 -28.25808,-0.007 -2.90786,1.15724 -5.53118,2.10407 -5.82959,2.10407 -0.29842,0 2.24073,-3.0375 5.64255,-6.75 8.43227,-9.20237 9.87933,-12.715 10.24282,-24.86365 l 0.2958,-9.88635 2.6379,-5.6965 c 2.99397,-6.46542 9.74375,-13.71509 15.5067,-16.65512 8.38953,-4.28002 20.31589,-4.77304 29.60594,-1.22386 7.95825,3.04037 14.64272,0.38699 26.4567,-10.5019 l 8.27179,-7.62408 2.5766,1.68825 2.57659,1.68825 -8.95155,9.16248 c -9.72709,9.95629 -10.6432,11.28608 -11.66179,16.92781 -0.63054,3.49241 1.07915,15.70876 3.48366,24.89193 1.61446,6.16585 6.07918,8.95403 28.5847,17.85088 43.46521,17.1826 45.56255,17.36775 58.71964,5.18379 8.10175,-7.50252 16.03764,-11.83521 24.45707,-13.35261 10.26592,-1.85018 13.47213,-2.98611 16.23951,-5.7535 3.23615,-3.23614 7.20332,-15.0006 8.98648,-26.64896 l 1.22423,-7.99718 -1.69371,-2.96984 C 399.65347,199.83643 397.79816,196.7 396.4621,194.5 c -1.33606,-2.2 -2.45546,-5.125 -2.48757,-6.5 -0.15841,-6.78547 -6.4734,-12.6667 -26.08607,-24.29427 C 349.22131,152.63871 345.45603,151.51654 337,154.5 c -2.50928,0.88532 -7.7586,1.5 -12.81,1.5 h -8.55855 l -4.06573,1.99723 c -2.23614,1.09848 -6.96231,4.46712 -10.50259,7.48588 l -6.43687,5.48863 -1.81313,-1.64086 C 291.81591,168.42841 291,167.30977 291,166.84501 c 0,-0.46475 2.67607,-3.52108 5.94682,-6.79183 8.35131,-8.35131 9.40915,-10.74624 9.52002,-21.55318 l 0.0923,-9 2.12309,-4 c 2.8201,-5.3132 5.70385,-7.8373 12.31773,-10.78152 6.93715,-3.08814 9.05786,-5.49375 12.53455,-14.21848 6.00027,-15.05766 6.72478,-22.65026 2.85502,-29.919586 l -2.61042,-4.903673 0.44333,-5.346061 C 335.77804,41.572673 363.5,43.251205 363.5,62.1034 c 0,5.453461 -2.30005,9.267787 -7.4752,12.3966 -6.34462,3.835857 -8.616,6.871197 -11.97302,16 -2.29241,6.233805 -3.4385,11.30516 -3.72889,16.5 l -0.41925,7.5 2.5281,4 c 4.47224,7.07604 6.52328,11.91616 6.56826,15.5 0.0648,5.16695 3.21225,11.2159 7.61596,14.637 5.01405,3.89526 25.77619,16.68952 33.16271,20.43588 6.64507,3.37029 7.22204,3.4248 14.92254,1.40958 6.9857,-1.82814 10.22793,-1.27381 16.77797,2.86859 l 4.97918,3.14895 4.52082,-0.10861 c 2.48645,-0.0597 10.59582,-1.7449 18.02082,-3.7448 34.11006,-9.18745 36.3761,-10.19357 40.53932,-17.99951 1.50983,-2.83089 3.69364,-6.20337 4.85291,-7.4944 2.76575,-3.08007 8.84924,-6.15268 12.18178,-6.15268 4.70131,0 10.19636,-4.00275 14.32724,-10.43637 5.94219,-9.25464 36.86098,-63.830972 40.18055,-70.924746 l 2.93049,-6.262303 -2.16274,-7.193932 -2.16274,-7.193933 1.25668,-4.194448 c 2.62447,-8.759696 11.72441,-14.037871 20.24611,-11.743215 8.18516,2.204034 13.76006,11.197694 12.21998,19.713763 -0.9186,5.079539 -7.93147,11.897869 -13.12261,12.758584 -6.97408,1.156336 -9.33732,2.659062 -13.16915,8.373928 -5.27707,7.870322 -37.88964,65.337852 -40.7522,71.810612 -2.65874,6.01189 -3.00601,12.54785 -0.86562,16.29206 2.13209,3.72971 1.86894,12.3565 -0.51975,17.03872 -2.74542,5.38147 -8.74255,9.19409 -15.31995,9.73954 -5.49419,0.45562 -8.61026,-0.57571 -16.1603,-5.34861 l -4,-2.52868 -6.5,0.44064 c -5.74753,0.38962 -15.35451,2.64523 -35.5,8.335 -12.982,3.66655 -18.39578,7.29479 -22.72045,15.22692 -0.94625,1.73556 -3.18962,3.92977 -4.98528,4.87602 -1.79565,0.94625 -4.88631,3.29545 -6.86813,5.22045 l -3.60331,3.5 -2.28297,8.5 c -1.25564,4.675 -2.48415,12.1 -2.73002,16.5 l -0.44703,8 1.98943,3.144 c 1.09419,1.7292 4.50813,4.81581 7.58652,6.85913 17.42406,11.56544 26.0399,33.28136 20.96934,52.85253 -2.80292,10.81861 -6.2595,16.52908 -15.52267,25.64434 -4.75086,4.675 -9.14361,9.48292 -9.76168,10.68426 -1.92746,3.74645 -1.25924,9.35878 2.78187,23.36457 9.26778,32.12058 10.88359,35.28491 20.29535,39.7454 7.03333,3.33329 10.86935,6.50729 13.11657,10.85293 4.22549,8.1712 2.82894,17.09131 -3.74421,23.9152 -5.93672,6.16317 -13.66581,7.89545 -22.07333,4.94716 z M 96,334.07439 C 82.824705,331.37591 74.813391,318.28328 78.059011,304.75401 l 1.244595,-5.18805 5.171784,-5.17178 5.171784,-5.17179 5.820299,-1.30252 5.820297,-1.30253 8.60612,2.21744 c 4.73336,1.2196 9.80775,2.20569 11.27643,2.19133 3.15705,-0.0309 19.14105,-5.5288 22.53062,-7.74972 1.29881,-0.85102 2.58232,-1.32647 2.85223,-1.05655 0.26992,0.26991 -3.57818,3.97072 -8.55132,8.22401 -4.97314,4.2533 -9.75418,9.11031 -10.62451,10.79336 -0.87034,1.68305 -2.02183,6.23078 -2.55886,10.10608 -1.48664,10.72776 -5.50694,16.91406 -13.68836,21.06317 -3.46752,1.75851 -10.76179,2.56263 -15.13012,1.66793 z M 366.55484,223.38624 c -19.88712,-3.59011 -38.9792,-12.25839 -68.29701,-31.00855 -36.01928,-23.03608 -42.12941,-26.75601 -52.75783,-32.11971 -6.05,-3.05317 -14.375,-6.73765 -18.5,-8.18773 l -7.5,-2.6365 v -11.70492 -11.70491 l 2,0.53089 c 5.27308,1.39971 24.12034,11.70859 37.31866,20.41219 13.70482,9.0376 26.8605,18.96578 53.68134,40.51161 13.58345,10.91192 29.32298,21.39719 39.04454,26.01047 7.99542,3.79415 22.29421,8.25683 29.45546,9.19309 2.475,0.32358 5.175,0.96379 6,1.42267 2.44045,1.35745 -11.69772,0.86052 -20.44516,-0.7186 z M 465,217.5 c -2.63967,-4.27108 -2.14848,-4.25998 -25,-0.56476 -9.625,1.55642 -17.64072,2.70449 -17.81271,2.55126 -0.17199,-0.15322 7.47801,-2.86102 17,-6.01733 9.52199,-3.15631 17.67274,-5.94357 18.11278,-6.19392 0.44004,-0.25035 -0.42634,-2.06309 -1.92529,-4.02831 l -2.72537,-3.57314 12.3323,0.6631 C 471.76447,200.7016 479.26835,201 481.657,201 484.04565,201 486,201.34232 486,201.76071 486,202.82859 468.98254,221 467.98248,221 467.53183,221 466.18972,219.425 465,217.5 Z"
         id="path321" />
      <path
         style="fill:#c9db5c"
         d="m 282,435.96862 v -29.03139 l 1.53725,-0.5899 c 0.84548,-0.32444 2.37956,0.1724 3.40907,1.10409 l 1.87183,1.69398 3.04126,-1.5727 c 3.89642,-2.01491 11.05542,-2.02108 13.9238,-0.012 4.18684,2.93259 5.21679,6.56957 5.21679,18.42176 0,12.07591 -1.20676,16.6481 -5.11687,19.38685 -2.90981,2.0381 -8.83537,2.09531 -13.53737,0.13069 -1.97451,-0.825 -3.76005,-1.5 -3.96788,-1.5 C 288.17004,444 288,448.725 288,454.5 V 465 h -3 -3 z m 20.75,3.23928 c 1.81923,-2.31429 1.7105,-23.19587 -0.13391,-25.71825 -1.82287,-2.49292 -7.98794,-2.34811 -11.50013,0.27012 l -2.61596,1.95012 -0.28643,10.27606 -0.28643,10.27606 1.7051,1.88411 c 3.42585,3.78553 10.52496,4.36014 13.11776,1.06178 z M 252,446.29629 c -2.87268,-1.04529 -6.96199,-5.65023 -8.17984,-9.21124 -0.67434,-1.97178 -1.21503,-6.98961 -1.20154,-11.15075 l 0.0245,-7.5657 2.19598,-4.53628 c 1.36766,-2.82521 3.44335,-5.20804 5.50291,-6.31719 l 3.30694,-1.7809 6.13804,0.44398 c 10.16179,0.73504 14.16906,6.48241 14.16906,20.32179 0,13.97678 -4.99466,20.57467 -15.45608,20.41731 -2.75,-0.0414 -5.675,-0.32082 -6.5,-0.62102 z m 12.68592,-7.8152 c 4.03389,-4.50945 4.39492,-18.21707 0.6132,-23.28228 -4.22766,-5.66247 -12.2789,-4.8848 -14.92213,1.44134 -1.88628,4.5145 -1.76711,15.73547 0.21139,19.90485 2.73179,5.75683 9.81013,6.72894 14.09754,1.93609 z M 326.5,446.05464 c -6.77357,-2.77237 -10.80395,-15.4566 -8.47536,-26.67331 l 1.21595,-5.85721 3.76206,-3.76206 L 326.76471,406 h 5.07059 c 10.07113,0 14.25708,4.5504 14.51199,15.77546 L 346.5,428.5 335.25,428.78275 324,429.0655 v 2.01691 c 0,2.49366 2.32438,7.11199 4.47969,8.90074 2.12206,1.76115 7.70682,1.48888 11.68787,-0.5698 l 3.18747,-1.6483 1.32248,1.8086 c 2.00853,2.74682 1.67783,3.36284 -2.92751,5.45328 -4.36736,1.98242 -11.70866,2.47716 -15.25,1.02771 z m 13.30007,-26.13202 c 0.4272,-5.09289 -2.406,-8.32262 -7.30082,-8.32262 h -3.75843 l -2.37041,2.75576 c -2.26312,2.63103 -3.16473,7.51659 -1.6641,9.01722 0.38847,0.38847 3.87597,0.57597 7.75,0.41667 L 339.5,423.5 Z m 348.4125,25.57077 c -2.13104,-0.92589 -3.80191,-2.65964 -4.75,-4.92874 L 682,437.06424 v -20.63099 -20.63099 l 1.57727,-3.32386 c 1.96286,-4.13641 6.69426,-6.47958 13.07386,-6.47466 5.20052,0.004 10.47495,2.49481 12.23097,5.77597 0.95496,1.78436 1.51247,8.31559 1.24086,14.53671 L 710,409.13284 707.25,408.81642 704.5,408.5 l -0.5,-6.83151 -0.5,-6.8315 -1.94113,-1.4185 c -2.78436,-2.03469 -8.89945,-1.80462 -10.90388,0.41025 L 689,395.65748 v 21.09983 21.09983 l 1.57143,1.57143 c 0.94932,0.94932 3.3022,1.57143 5.94329,1.57143 h 4.37187 l 1.55671,-2.22251 C 703.47453,437.3052 704,434.30334 704,429.88448 v -6.6705 l 1.5,-0.57561 c 2.64619,-1.01543 4.49539,0.46819 4.63492,3.71862 0.53034,12.354 -0.83695,16.60599 -6.23132,19.37827 -3.21894,1.65427 -11.6251,1.5247 -15.69103,-0.24187 z M 354.22886,426.26298 354.5,406.52597 l 1.9339,-0.37173 c 1.06365,-0.20444 2.52471,0.43625 3.24679,1.42376 l 1.31289,1.79548 3.53714,-1.68674 c 4.58246,-2.18522 11.34964,-2.1442 14.10224,0.0855 3.89875,3.1581 4.36704,5.5346 4.36704,22.16202 L 383,446 h -3 -3 v -15.04545 -15.04546 l -2.45455,-2.45454 c -1.35,-1.35 -2.91589,-2.45455 -3.47976,-2.45455 -2.42959,0 -9.20549,3.3927 -10.09486,5.05451 C 360.43687,417.05221 360,424.1981 360,431.93426 V 446 h -3.02114 -3.02114 z m 112.22352,18.47352 c -0.26667,-0.69492 -0.36504,-13.85742 -0.21861,-29.25 L 466.5,387.5 l 11.76914,-0.2819 11.76915,-0.2819 0.64333,1.67651 C 491.79051,391.50243 488.24985,393 480.30887,393 H 473 v 9.95619 9.95619 l 7.25,0.29381 7.25,0.29381 v 2.5 2.5 l -7.25,0.29381 -7.25,0.29381 V 430.04381 441 h 9 9 v 2.5 2.5 h -12.03138 c -8.77117,0 -12.16277,-0.34238 -12.51624,-1.2635 z m 32.15461,-0.31829 c -0.93598,-2.43911 -0.68786,-54.74233 0.26683,-56.24829 0.46908,-0.73993 2.06787,-1.18362 3.6034,-1 l 2.7602,0.33008 8.13129,20.95347 8.13129,20.95347 0.5,-20.95347 0.5,-20.95347 2.75,-0.31642 2.75,-0.31642 v 29.62978 29.62978 l -3.20937,-0.31336 -3.20937,-0.31336 -3.84097,-10 c -2.11253,-5.5 -5.73081,-14.95 -8.04063,-21 l -4.19966,-11 -0.55134,21 c -0.30323,11.55 -0.64073,21.1125 -0.75,21.25 -0.77525,0.97559 -5.10166,-0.0548 -5.59167,-1.33179 z M 545,419.5 V 393 h -4.37756 c -4.66104,0 -7.2705,-1.8688 -6.2657,-4.48727 L 534.93723,387 H 548.46862 562 v 2.39301 C 562,392.16836 560.3672,393 554.91821,393 H 551 v 26.5 26.5 h -3 -3 z m 23.47808,25.30347 c -0.2808,-0.73175 -0.39074,-13.92439 -0.24431,-29.31697 L 568.5,387.5 l 9.7301,-0.28597 9.7301,-0.28597 3.09868,1.60239 C 595.1842,390.66373 597,395.39173 597,404 c 0,7.87253 -1.77546,13.27428 -4.91534,14.95469 -1.14656,0.61362 -2.08466,1.6635 -2.08466,2.33307 0,0.66956 1.8,5.94007 4,11.71224 2.2,5.77217 4,11.05851 4,11.74743 0,0.71719 -1.24693,1.25257 -2.91729,1.25257 h -2.91729 l -1.59256,-4.25 c -0.8759,-2.3375 -2.8888,-7.85 -4.47311,-12.25 l -2.88056,-8 -4.07836,-0.30597 -4.07837,-0.30597 -0.28123,12.30597 L 574.5,445.5 l -2.75569,0.31697 c -1.62042,0.18639 -2.96601,-0.23114 -3.26623,-1.0135 z m 17.18647,-29.86603 c 3.92834,-1.49355 4.30287,-2.45724 4.32014,-11.11601 C 590.00404,394.11951 589.06715,393 580.92857,393 H 575 v 11.5 11.5 h 3.9349 c 2.1642,0 5.19254,-0.47815 6.72965,-1.06256 z m 17.97564,30.28939 c -0.42457,-0.68697 10.59692,-53.76099 11.8446,-57.03767 0.32013,-0.84073 1.82996,-1.19937 4.20994,-1 l 3.71081,0.31084 6.14384,28.5 c 3.37912,15.675 5.96132,28.8375 5.73822,29.25 -0.2231,0.4125 -1.68821,0.75 -3.2558,0.75 h -2.85017 l -1.25097,-7 -1.25097,-7 h -7.26039 -7.26039 l -0.66163,3.25 c -0.36389,1.7875 -1.09199,4.9375 -1.618,7 l -0.95637,3.75 h -2.40244 c -1.32134,0 -2.61747,-0.34793 -2.88028,-0.77317 z M 625.00073,425.25 c 0.002,-2.2803 -5.37203,-27.21204 -5.77823,-26.80583 -0.26669,0.26668 -1.71359,6.57584 -3.21534,14.02035 L 613.27669,426 h 5.86166 c 3.22391,0 5.86198,-0.3375 5.86238,-0.75 z M 643,416.50306 v -29.62978 l 3.14693,0.31336 3.14693,0.31336 8.10307,20.96636 8.10307,20.96636 0.5,-20.96636 0.5,-20.96636 2.75,-0.31642 2.75,-0.31642 v 29.62978 29.62978 L 668.85307,445.81336 665.70614,445.5 657.60307,424.53364 649.5,403.56728 649,424.53364 648.5,445.5 l -2.75,0.31642 -2.75,0.31642 z M 720.23485,416.7809 720.5,387.5 732.25,387.21826 744,386.93653 v 2.42475 C 744,392.47389 742.47003,393 733.41821,393 H 726 v 10 10 l 6.75,0.0153 c 7.54142,0.0171 9.61578,0.83989 9.08755,3.60452 l -0.35924,1.88017 -7.77255,0.29267 -7.77256,0.29266 0.2834,10.70734 0.2834,10.70733 9,0.5 9,0.5 v 2 2 l -12.26515,0.2809 -12.26516,0.2809 0.26516,-29.2809 z M 420.88507,443.67314 C 411.91891,440.33812 407,433.49932 407,424.36861 v -4.99994 l 4.07938,-7.93433 4.07937,-7.93434 -0.54149,-5.5 c -0.71773,-7.29001 -9.96704,-37.76896 -13.71427,-45.19217 -3.13794,-6.21623 -7.11024,-9.48737 -12.40299,-10.21371 -14.02799,-1.92509 -17.57193,-2.81975 -24.25668,-6.12353 -16.85873,-8.33204 -27.1656,-25.65253 -27.22596,-45.75271 -0.0218,-7.25762 -1.86506,-11.74309 -6.16125,-14.99301 -4.94709,-3.7423 -52.3355,-22.33561 -62.71734,-24.60776 -5.89787,-1.29081 -12.12416,0.6687 -16.9129,5.32274 -4.68794,4.55608 -10.39392,7.34185 -17.88021,8.72947 -7.48446,1.38728 -14.47538,0.009 -23.82912,-4.69679 -9.63326,-4.84677 -11.89842,-4.72328 -27.50864,1.49972 l -5.4921,2.18942 6.76044,-7.0026 c 8.62719,-8.93622 9.94941,-12.08984 10.25222,-24.45264 l 0.23988,-9.79357 3.14641,-6.39125 c 7.70751,-15.65617 24.9363,-23.1107 41.67632,-18.03243 6.19894,1.88051 12.50482,1.91542 16.86561,0.0934 1.86584,-0.7796 6.96389,-4.8296 11.329,-9 7.89865,-7.54633 9.41389,-8.3748 12.15032,-6.64326 l 1.436,0.90865 -8.50745,8.93988 c -4.6791,4.91693 -9.31152,10.63432 -10.29426,12.70531 l -1.78682,3.76543 0.57512,6.12072 c 1.72199,18.3262 3.76937,24.36458 9.5477,28.15915 1.97654,1.29798 13.49371,6.25756 25.59371,11.0213 39.51033,15.5551 43.71373,15.9066 55.22815,4.61839 9.0145,-8.83742 17.39291,-13.02662 30.16794,-15.08398 9.00667,-1.45048 12.54889,-3.99478 15.11676,-10.85802 3.04535,-8.13943 5.97199,-20.99573 5.98014,-26.26984 l 0.007,-4.53372 -3.49331,-5.42218 c -1.92133,-2.9822 -3.78147,-7.01703 -4.13365,-8.96628 -1.4415,-7.97846 -4.94,-11.51022 -21.87303,-22.08103 C 352.26724,153.33235 345.41176,151.17934 336,154.5 c -2.47117,0.87188 -7.7309,1.5 -12.56063,1.5 -4.57004,0 -9.57597,0.48018 -11.12427,1.06707 -1.54831,0.58689 -6.08504,3.74875 -10.08162,7.02634 l -7.26653,5.95927 -1.98347,-1.06152 C 291.89256,168.40732 291,167.59259 291,167.18066 c 0,-0.41194 2.50083,-3.20861 5.55739,-6.21482 3.05657,-3.00621 6.53532,-7.03683 7.73056,-8.95693 l 2.17317,-3.49108 0.54669,-10.67032 0.5467,-10.67032 2.69184,-3.8386 c 1.84722,-2.63415 5.13327,-5.11353 10.47275,-7.90185 l 7.7809,-4.06327 2.70485,-4.93673 c 3.82841,-6.987423 8.01995,-20.736699 8.16883,-26.795798 L 339.5,74.5 337.09093,71.122238 c -5.47233,-7.672765 -3.20214,-17.663135 4.98306,-21.928852 l 4.42601,-2.306613 3.89473,0.591574 c 7.72093,1.17274 12.60835,6.882564 12.60153,14.721993 -0.005,5.552561 -2.8518,10.175153 -7.83124,12.715473 -2.15239,1.098068 -5.07879,3.381425 -6.5031,5.074127 -3.57007,4.242789 -8.87447,20.99247 -9.03429,28.52752 l -0.12763,6.01747 4.16106,6.98253 c 2.86751,4.81189 4.38059,8.69232 4.86725,12.48254 0.82716,6.44214 2.45012,9.96045 6.23082,13.5074 2.81099,2.63719 25.79147,17.17198 34.74087,21.97304 l 5,2.68234 5.5,-0.70222 c 3.025,-0.38621 7.9825,-0.76034 11.01666,-0.83139 l 5.51665,-0.12917 4.90479,3.25 c 3.4294,2.27238 6.07768,3.25 8.80394,3.25 4.5426,0 42.96749,-10.1144 49.64298,-13.06729 6.07948,-2.68924 7.81806,-4.41217 11.19313,-11.09241 3.47004,-6.86819 6.76244,-9.35976 14.86625,-11.25025 7.19451,-1.67837 9.9915,-3.31239 13.38475,-7.81948 2.57064,-3.41445 37.46245,-64.40508 42.04098,-73.487326 3.04985,-6.049862 3.23699,-8.585949 1.02432,-13.881608 -2.04346,-4.890706 -1.46629,-13.086023 1.17287,-16.653663 5.14735,-6.958225 14.96171,-8.739009 22.22108,-4.031944 C 590.69091,28.894872 593,33.148287 593,39 c 0,8.688376 -5.78357,15.06695 -14.99733,16.54024 -3.2805,0.524555 -5.46597,1.698672 -8.07734,4.339444 -4.31006,4.358594 -42.12117,70.401646 -45.0065,78.610946 l -2.03147,5.77988 2.05632,6.76998 c 2.51398,8.27672 2.54618,11.2844 0.17666,16.50088 -3.45166,7.59879 -11.65533,12.26832 -19.38274,11.03266 -2.23149,-0.35683 -6.73923,-2.30419 -10.01721,-4.32748 l -5.95997,-3.6787 -5.13021,0.0889 c -7.21556,0.12499 -39.70447,8.8138 -48.2972,12.91657 l -7.16699,3.42202 -2.24005,3.75234 C 424.28276,195.17532 419.01179,201 417.64822,201 c -0.52769,0 -2.42546,1.11819 -4.21726,2.48486 -7.07774,5.39846 -12.52215,33.02516 -8.12794,41.24377 0.94943,1.77575 4.08485,4.73741 6.96759,6.58148 14.79978,9.46731 22.83324,24.14273 22.85948,41.7594 0.0222,14.92427 -5.18571,26.23445 -17.11745,37.17429 -3.75289,3.44091 -7.82104,7.96162 -9.04031,10.04602 l -2.21687,3.78982 1.1903,6.21018 c 1.7345,9.04947 10.77818,38.23544 13.51133,43.60409 2.97667,5.84698 5.77993,8.43218 12.04291,11.10609 2.75,1.17408 6.05629,3.11689 7.34732,4.31735 6.40875,5.95917 8.0722,16.73356 3.82504,24.77537 -4.269,8.08316 -15.57286,12.63583 -23.78729,9.58042 z M 91.5,332.12907 C 82.294454,327.92441 77.483673,319.44971 78.171391,308.64929 l 0.409917,-6.43762 2.942389,-4.24587 c 3.661762,-5.28392 8.531579,-8.54837 14.83787,-9.94647 l 4.861563,-1.07781 6.13844,1.77308 c 3.50965,1.01376 9.3503,1.76131 13.63843,1.7456 l 7.5,-0.0275 8.35239,-3.65047 8.3524,-3.65048 -9.52471,9.18412 -9.52471,9.18411 -1.07769,5.29922 c -0.59272,2.91457 -1.08756,6.28957 -1.09964,7.5 -0.0614,6.15316 -7.14431,15.20896 -14.19592,18.1501 -4.97922,2.07677 -13.355392,1.93004 -18.28212,-0.32025 z M 366.55484,223.38624 c -19.88712,-3.59011 -38.9792,-12.25839 -68.29701,-31.00855 -36.01928,-23.03608 -42.12941,-26.75601 -52.75783,-32.11971 -6.05,-3.05317 -14.375,-6.73765 -18.5,-8.18773 l -7.5,-2.6365 v -11.70492 -11.70491 l 2,0.53089 c 5.27308,1.39971 24.12034,11.70859 37.31866,20.41219 13.70482,9.0376 26.8605,18.96578 53.68134,40.51161 13.58345,10.91192 29.32298,21.39719 39.04454,26.01047 7.99542,3.79415 22.29421,8.25683 29.45546,9.19309 2.475,0.32358 5.175,0.96379 6,1.42267 2.44045,1.35745 -11.69772,0.86052 -20.44516,-0.7186 z M 465,217.5 c -2.63967,-4.27108 -2.14848,-4.25998 -25,-0.56476 -9.625,1.55642 -17.64072,2.70449 -17.81271,2.55126 -0.17199,-0.15322 7.47801,-2.86102 17,-6.01733 9.52199,-3.15631 17.67274,-5.94357 18.11278,-6.19392 0.44004,-0.25035 -0.42634,-2.06309 -1.92529,-4.02831 l -2.72537,-3.57314 12.3323,0.6631 C 471.76447,200.7016 479.26835,201 481.657,201 484.04565,201 486,201.34232 486,201.76071 486,202.82859 468.98254,221 467.98248,221 467.53183,221 466.18972,219.425 465,217.5 Z"
         id="path319" />
      <path
         style="fill:#a1a0a4"
         d="m 282,435.96862 v -29.03139 l 1.53725,-0.5899 c 0.84548,-0.32444 2.37956,0.1724 3.40907,1.10409 l 1.87183,1.69398 3.04126,-1.5727 c 3.89642,-2.01491 11.05542,-2.02108 13.9238,-0.012 4.18684,2.93259 5.21679,6.56957 5.21679,18.42176 0,12.07591 -1.20676,16.6481 -5.11687,19.38685 -2.90981,2.0381 -8.83537,2.09531 -13.53737,0.13069 -1.97451,-0.825 -3.76005,-1.5 -3.96788,-1.5 C 288.17004,444 288,448.725 288,454.5 V 465 h -3 -3 z m 20.75,3.23928 c 1.81923,-2.31429 1.7105,-23.19587 -0.13391,-25.71825 -1.82287,-2.49292 -7.98794,-2.34811 -11.50013,0.27012 l -2.61596,1.95012 -0.28643,10.27606 -0.28643,10.27606 1.7051,1.88411 c 3.42585,3.78553 10.52496,4.36014 13.11776,1.06178 z M 252,446.29629 c -2.87268,-1.04529 -6.96199,-5.65023 -8.17984,-9.21124 -0.67434,-1.97178 -1.21503,-6.98961 -1.20154,-11.15075 l 0.0245,-7.5657 2.19598,-4.53628 c 1.36766,-2.82521 3.44335,-5.20804 5.50291,-6.31719 l 3.30694,-1.7809 6.13804,0.44398 c 10.16179,0.73504 14.16906,6.48241 14.16906,20.32179 0,13.97678 -4.99466,20.57467 -15.45608,20.41731 -2.75,-0.0414 -5.675,-0.32082 -6.5,-0.62102 z m 12.68592,-7.8152 c 4.03389,-4.50945 4.39492,-18.21707 0.6132,-23.28228 -4.22766,-5.66247 -12.2789,-4.8848 -14.92213,1.44134 -1.88628,4.5145 -1.76711,15.73547 0.21139,19.90485 2.73179,5.75683 9.81013,6.72894 14.09754,1.93609 z M 326.5,446.05464 c -6.77357,-2.77237 -10.80395,-15.4566 -8.47536,-26.67331 l 1.21595,-5.85721 3.76206,-3.76206 L 326.76471,406 h 5.07059 c 10.07113,0 14.25708,4.5504 14.51199,15.77546 L 346.5,428.5 335.25,428.78275 324,429.0655 v 2.01691 c 0,2.49366 2.32438,7.11199 4.47969,8.90074 2.12206,1.76115 7.70682,1.48888 11.68787,-0.5698 l 3.18747,-1.6483 1.32248,1.8086 c 2.00853,2.74682 1.67783,3.36284 -2.92751,5.45328 -4.36736,1.98242 -11.70866,2.47716 -15.25,1.02771 z m 13.30007,-26.13202 c 0.4272,-5.09289 -2.406,-8.32262 -7.30082,-8.32262 h -3.75843 l -2.37041,2.75576 c -2.26312,2.63103 -3.16473,7.51659 -1.6641,9.01722 0.38847,0.38847 3.87597,0.57597 7.75,0.41667 L 339.5,423.5 Z m 348.4125,25.57077 c -2.13104,-0.92589 -3.80191,-2.65964 -4.75,-4.92874 L 682,437.06424 v -20.63099 -20.63099 l 1.57727,-3.32386 c 1.96286,-4.13641 6.69426,-6.47958 13.07386,-6.47466 5.20052,0.004 10.47495,2.49481 12.23097,5.77597 0.95496,1.78436 1.51247,8.31559 1.24086,14.53671 L 710,409.13284 707.25,408.81642 704.5,408.5 l -0.5,-6.83151 -0.5,-6.8315 -1.94113,-1.4185 c -2.78436,-2.03469 -8.89945,-1.80462 -10.90388,0.41025 L 689,395.65748 v 21.09983 21.09983 l 1.57143,1.57143 c 0.94932,0.94932 3.3022,1.57143 5.94329,1.57143 h 4.37187 l 1.55671,-2.22251 C 703.47453,437.3052 704,434.30334 704,429.88448 v -6.6705 l 1.5,-0.57561 c 2.64619,-1.01543 4.49539,0.46819 4.63492,3.71862 0.53034,12.354 -0.83695,16.60599 -6.23132,19.37827 -3.21894,1.65427 -11.6251,1.5247 -15.69103,-0.24187 z M 354.22886,426.26298 354.5,406.52597 l 1.9339,-0.37173 c 1.06365,-0.20444 2.52471,0.43625 3.24679,1.42376 l 1.31289,1.79548 3.53714,-1.68674 c 4.58246,-2.18522 11.34964,-2.1442 14.10224,0.0855 3.89875,3.1581 4.36704,5.5346 4.36704,22.16202 L 383,446 h -3 -3 v -15.04545 -15.04546 l -2.45455,-2.45454 c -1.35,-1.35 -2.91589,-2.45455 -3.47976,-2.45455 -2.42959,0 -9.20549,3.3927 -10.09486,5.05451 C 360.43687,417.05221 360,424.1981 360,431.93426 V 446 h -3.02114 -3.02114 z m 112.22352,18.47352 c -0.26667,-0.69492 -0.36504,-13.85742 -0.21861,-29.25 L 466.5,387.5 l 11.76914,-0.2819 11.76915,-0.2819 0.64333,1.67651 C 491.79051,391.50243 488.24985,393 480.30887,393 H 473 v 9.95619 9.95619 l 7.25,0.29381 7.25,0.29381 v 2.5 2.5 l -7.25,0.29381 -7.25,0.29381 V 430.04381 441 h 9 9 v 2.5 2.5 h -12.03138 c -8.77117,0 -12.16277,-0.34238 -12.51624,-1.2635 z m 32.15461,-0.31829 c -0.93598,-2.43911 -0.68786,-54.74233 0.26683,-56.24829 0.46908,-0.73993 2.06787,-1.18362 3.6034,-1 l 2.7602,0.33008 8.13129,20.95347 8.13129,20.95347 0.5,-20.95347 0.5,-20.95347 2.75,-0.31642 2.75,-0.31642 v 29.62978 29.62978 l -3.20937,-0.31336 -3.20937,-0.31336 -3.84097,-10 c -2.11253,-5.5 -5.73081,-14.95 -8.04063,-21 l -4.19966,-11 -0.55134,21 c -0.30323,11.55 -0.64073,21.1125 -0.75,21.25 -0.77525,0.97559 -5.10166,-0.0548 -5.59167,-1.33179 z M 545,419.5 V 393 h -4.37756 c -4.66104,0 -7.2705,-1.8688 -6.2657,-4.48727 L 534.93723,387 H 548.46862 562 v 2.39301 C 562,392.16836 560.3672,393 554.91821,393 H 551 v 26.5 26.5 h -3 -3 z m 23.47808,25.30347 c -0.2808,-0.73175 -0.39074,-13.92439 -0.24431,-29.31697 L 568.5,387.5 l 9.7301,-0.28597 9.7301,-0.28597 3.09868,1.60239 C 595.1842,390.66373 597,395.39173 597,404 c 0,7.87253 -1.77546,13.27428 -4.91534,14.95469 -1.14656,0.61362 -2.08466,1.6635 -2.08466,2.33307 0,0.66956 1.8,5.94007 4,11.71224 2.2,5.77217 4,11.05851 4,11.74743 0,0.71719 -1.24693,1.25257 -2.91729,1.25257 h -2.91729 l -1.59256,-4.25 c -0.8759,-2.3375 -2.8888,-7.85 -4.47311,-12.25 l -2.88056,-8 -4.07836,-0.30597 -4.07837,-0.30597 -0.28123,12.30597 L 574.5,445.5 l -2.75569,0.31697 c -1.62042,0.18639 -2.96601,-0.23114 -3.26623,-1.0135 z m 17.18647,-29.86603 c 3.92834,-1.49355 4.30287,-2.45724 4.32014,-11.11601 C 590.00404,394.11951 589.06715,393 580.92857,393 H 575 v 11.5 11.5 h 3.9349 c 2.1642,0 5.19254,-0.47815 6.72965,-1.06256 z m 17.97564,30.28939 c -0.42457,-0.68697 10.59692,-53.76099 11.8446,-57.03767 0.32013,-0.84073 1.82996,-1.19937 4.20994,-1 l 3.71081,0.31084 6.14384,28.5 c 3.37912,15.675 5.96132,28.8375 5.73822,29.25 -0.2231,0.4125 -1.68821,0.75 -3.2558,0.75 h -2.85017 l -1.25097,-7 -1.25097,-7 h -7.26039 -7.26039 l -0.66163,3.25 c -0.36389,1.7875 -1.09199,4.9375 -1.618,7 l -0.95637,3.75 h -2.40244 c -1.32134,0 -2.61747,-0.34793 -2.88028,-0.77317 z M 625.00073,425.25 c 0.002,-2.2803 -5.37203,-27.21204 -5.77823,-26.80583 -0.26669,0.26668 -1.71359,6.57584 -3.21534,14.02035 L 613.27669,426 h 5.86166 c 3.22391,0 5.86198,-0.3375 5.86238,-0.75 z M 643,416.50306 v -29.62978 l 3.14693,0.31336 3.14693,0.31336 8.10307,20.96636 8.10307,20.96636 0.5,-20.96636 0.5,-20.96636 2.75,-0.31642 2.75,-0.31642 v 29.62978 29.62978 L 668.85307,445.81336 665.70614,445.5 657.60307,424.53364 649.5,403.56728 649,424.53364 648.5,445.5 l -2.75,0.31642 -2.75,0.31642 z M 720.23485,416.7809 720.5,387.5 732.25,387.21826 744,386.93653 v 2.42475 C 744,392.47389 742.47003,393 733.41821,393 H 726 v 10 10 l 6.75,0.0153 c 7.54142,0.0171 9.61578,0.83989 9.08755,3.60452 l -0.35924,1.88017 -7.77255,0.29267 -7.77256,0.29266 0.2834,10.70734 0.2834,10.70733 9,0.5 9,0.5 v 2 2 l -12.26515,0.2809 -12.26516,0.2809 0.26516,-29.2809 z m -302.69326,24.94416 c -5.70024,-3.2286 -9.52605,-9.14952 -10.196,-15.77959 L 406.79535,420.5 410.89767,412.78529 415,405.07057 v -5.49565 c 0,-3.72058 -1.63205,-10.91861 -5.05287,-22.28528 -9.21059,-30.60489 -11.95188,-34.30742 -26.44713,-35.72091 -17.28194,-1.68523 -30.80827,-10.00038 -38.99658,-23.97269 -4.3334,-7.39438 -5.65252,-12.20657 -6.54174,-23.86451 l -0.82139,-10.76846 -2.17373,-3.51718 c -2.72031,-4.40155 -6.09568,-6.11176 -32.97917,-16.70968 -28.0063,-11.04054 -31.41677,-12.13027 -38.08708,-12.16974 l -5.5997,-0.0331 -3.75437,2.98334 c -12.46349,9.90386 -18.14347,12.06034 -29.80932,11.31752 l -6.55969,-0.41769 -7.46012,-3.83774 -7.46013,-3.83773 -5.87849,0.45467 c -3.23317,0.25007 -8.67589,1.59993 -12.09494,2.99969 l -6.21644,2.54502 5.55708,-6.1202 c 7.91306,-8.71494 8.61837,-10.46104 9.33905,-23.12021 l 0.62621,-11 2.60664,-5.65538 c 6.91366,-14.99997 24.95202,-23.27763 39.90369,-18.31148 2.95569,0.98172 7.95023,1.76069 11.09898,1.73103 7.49842,-0.0706 9.94,-1.56299 22.93466,-14.01824 l 4.63341,-4.44108 2.23818,1.19783 2.23818,1.19784 -8.13931,8.14974 c -10.73136,10.74511 -12.25966,13.37364 -12.23809,21.04835 0.009,3.35577 0.49348,7.67342 1.07567,9.59479 0.5822,1.92137 1.05854,4.97679 1.05854,6.78984 0,4.45185 3.2635,10.55322 7.28561,13.62104 1.81725,1.38608 9.1339,4.81537 16.25924,7.62065 7.12533,2.80528 17.28258,6.81411 22.57166,8.90852 5.28907,2.09441 13.48379,4.82965 18.21048,6.07831 l 8.59398,2.27029 4.78952,-1.34013 c 3.47492,-0.9723 6.58055,-3.02186 11.31488,-7.46723 3.58895,-3.3699 8.67831,-7.3888 11.30968,-8.93089 4.91383,-2.8797 17.01694,-6.5438 21.61519,-6.5438 4.15808,0 9.96156,-4.62843 12.1214,-9.66714 2.91304,-6.79584 5.95675,-19.66534 6.20618,-26.2412 l 0.22218,-5.85717 -3.23859,-4.51484 c -1.78123,-2.48316 -3.71189,-6.72173 -4.29036,-9.41904 -0.57847,-2.69731 -1.89759,-6.29506 -2.93139,-7.995 -3.06678,-5.04292 -34.87539,-25.10051 -43.49342,-27.42569 l -3.95375,-1.06674 -6.54625,1.74945 c -3.68306,0.98428 -10.55966,1.80493 -15.72233,1.87629 l -9.1761,0.12684 -5.3239,3.71871 c -2.92815,2.04529 -7.0749,5.30528 -9.21501,7.24442 l -3.89109,3.52571 -1.64548,-1.48914 -1.64547,-1.48914 6.72916,-7.0992 c 3.70104,-3.90456 7.2261,-8.60491 7.83346,-10.44524 0.60736,-1.84032 1.20566,-7.41327 1.32956,-12.38433 l 0.22526,-9.0383 2.98404,-4.30463 c 1.96852,-2.83969 4.85367,-5.24659 8.47785,-7.07254 8.7322,-4.39951 11.0426,-6.56161 13.99514,-13.09686 C 336.39451,96.124637 340,83.508205 340,79.14525 c 0,-1.774947 -1.40572,-5.928187 -3.12383,-9.229423 l -3.12383,-6.002246 0.57812,-3.562561 c 0.74575,-4.59551 2.98014,-7.945056 6.97387,-10.454429 l 3.19567,-2.007928 5.27213,0.389776 5.27212,0.389776 3.0002,2.874367 c 7.99206,7.656879 5.64585,18.791359 -5.11645,24.28129 -1.80721,0.921871 -4.10349,2.801128 -5.10285,4.176128 -2.86348,3.939795 -7.84145,19.368736 -8.49005,26.31445 l -0.59021,6.3204 2.13078,4.43258 c 1.17193,2.43791 3.04808,5.85625 4.16923,7.59631 1.12115,1.74006 2.48919,5.96261 3.0401,9.38345 1.28718,7.99262 2.89931,11.00301 8.14948,15.2178 5.56048,4.46389 33.28623,21.08823 37.64275,22.57056 l 3.37724,1.14912 6.58059,-1.52614 c 7.69962,-1.78567 11.02429,-1.28755 17.16494,2.57172 7.42775,4.6682 8.04444,4.63847 31.05052,-1.49681 32.3482,-8.62664 34.68198,-9.77515 39.16012,-19.27169 2.94267,-6.24036 7.62322,-9.88348 14.47918,-11.26994 6.29953,-1.27392 9.80916,-3.0484 12.59255,-6.36683 1.77331,-2.11418 12.93152,-20.58787 18.19566,-30.12498 1.5179,-2.75 7.37421,-13.1 13.01403,-23 16.41046,-28.806505 16.25346,-28.362563 13.02255,-36.822577 -3.5226,-9.2238 0.59416,-18.547012 9.50052,-21.515801 l 4.3979,-1.465964 4.54348,1.166139 c 3.06677,0.787122 5.59396,2.346564 7.77554,4.798012 8.48946,9.539669 3.42375,23.430228 -9.55884,26.211041 -10.34763,2.216418 -6.89853,-2.64633 -42.14389,59.41693 -6.18055,10.88328 -11.95549,22.03345 -12.83322,24.77815 l -1.59585,4.99037 1.33187,4.72185 c 3.17582,11.25921 2.9138,16.82075 -1.05509,22.39454 -4.73214,6.64568 -16.50952,9.16873 -23.08708,4.94592 -1.80947,-1.16169 -5.27925,-3.06864 -7.71062,-4.23767 l -4.42066,-2.12552 -5.20816,0.53753 c -7.39109,0.76283 -38.79577,9.4091 -45.99555,12.66339 -5.89685,2.66538 -8.25551,4.88793 -12.78122,12.04366 -1.21748,1.925 -3.71525,4.25426 -5.55059,5.17613 -7.64099,3.83798 -9.99474,7.77914 -13.17636,22.06276 -2.22692,9.99754 -2.41761,16.9453 -0.58318,21.24769 0.72817,1.7078 4.65398,5.56466 9.16879,9.00774 9.18166,7.0021 14.36211,13.41579 18.17823,22.50568 l 2.72883,6.5 -0.0382,11.5 -0.0382,11.5 -2.22372,5.39415 c -3.3528,8.13301 -8.89736,15.87087 -14.56136,20.3215 C 411.0303,335.3606 407,341.2817 407,345.75614 c 0,3.31206 2.10321,12.98853 3.96536,18.24386 0.48721,1.375 1.85805,5.875 3.0463,10 3.16284,10.9797 6.82465,20.46126 9.34923,24.20807 1.35596,2.01241 4.60566,4.46264 8.36079,6.30391 7.54286,3.69854 10.98488,6.78055 13.38828,11.98802 6.02784,13.06058 -3.61677,27.52927 -18.32012,27.48355 -3.61272,-0.0112 -6.54484,-0.72728 -9.24825,-2.25849 z M 93.747969,332.63293 c -12.759385,-4.75634 -19.084701,-18.81372 -13.858906,-30.80002 4.926805,-11.30052 18.586152,-16.90392 29.738817,-12.1996 2.2221,0.9373 6.64196,1.64029 10.37212,1.64971 6.13276,0.0155 8.16233,-0.5396 21.5,-5.88021 1.1,-0.44045 -1.21191,1.96625 -5.13757,5.34823 -8.96621,7.72444 -10.88689,10.88718 -12.29688,20.24896 -1.40636,9.33763 -4.93091,15.40382 -11.20284,19.28146 -5.55432,3.43397 -13.566665,4.41964 -19.114741,2.35147 z M 366.55484,223.38624 c -19.88712,-3.59011 -38.9792,-12.25839 -68.29701,-31.00855 -36.01928,-23.03608 -42.12941,-26.75601 -52.75783,-32.11971 -6.05,-3.05317 -14.375,-6.73765 -18.5,-8.18773 l -7.5,-2.6365 v -11.70492 -11.70491 l 2,0.53089 c 5.27308,1.39971 24.12034,11.70859 37.31866,20.41219 13.70482,9.0376 26.8605,18.96578 53.68134,40.51161 13.58345,10.91192 29.32298,21.39719 39.04454,26.01047 7.99542,3.79415 22.29421,8.25683 29.45546,9.19309 2.475,0.32358 5.175,0.96379 6,1.42267 2.44045,1.35745 -11.69772,0.86052 -20.44516,-0.7186 z M 465,217.5 c -2.63967,-4.27108 -2.14848,-4.25998 -25,-0.56476 -9.625,1.55642 -17.64072,2.70449 -17.81271,2.55126 -0.17199,-0.15322 7.47801,-2.86102 17,-6.01733 9.52199,-3.15631 17.67274,-5.94357 18.11278,-6.19392 0.44004,-0.25035 -0.42634,-2.06309 -1.92529,-4.02831 l -2.72537,-3.57314 12.3323,0.6631 C 471.76447,200.7016 479.26835,201 481.657,201 484.04565,201 486,201.34232 486,201.76071 486,202.82859 468.98254,221 467.98248,221 467.53183,221 466.18972,219.425 465,217.5 Z"
         id="path317" />
      <path
         style="fill:#aec908"
         d="m 282,436 v -29 h 2.41667 c 1.32916,0 2.60883,0.5625 2.84369,1.25 l 0.42704,1.25 3.4063,-1.45427 c 1.87346,-0.79985 5.75649,-1.47485 8.62896,-1.5 l 5.22265,-0.0457 2.09861,2.09904 c 2.7467,2.74727 3.90837,8.0679 3.90837,17.90096 0,10.038 -1.23962,15.50261 -4.02939,17.76268 -4.14677,3.35943 -7.10919,3.37274 -17.1729,0.0771 L 288,443.76673 v 10.61663 10.61663 h -3 -3 v -29 z m 20.13922,4.09009 2.36078,-1.9099 0.28179,-10.3401 c 0.31558,-11.58039 -0.66165,-14.72216 -5.06047,-16.26914 l -2.73618,-0.96226 -4.49257,2.18266 L 288,414.97401 v 11.4891 11.48911 l 3.75,1.97969 c 4.76609,2.51611 7.42462,2.55659 10.38922,0.15818 z M 251,445.24845 c -2.27786,-1.13792 -4.28566,-3.30646 -5.75,-6.21034 l -2.25,-4.46189 0.022,-8.03811 c 0.0382,-13.98768 4.97095,-20.53063 15.47804,-20.53063 6.02124,0 10.6491,2.52341 13.20145,7.1983 L 273.5,416.5 v 10 10 l -2.40247,3.86473 c -3.96628,6.38037 -12.80306,8.52771 -20.09753,4.88372 z m 11.40476,-4.38701 C 266.05558,439.19802 268,434.23042 268,426.56675 268,415.97689 264.96273,411 258.5,411 c -6.58295,0 -9.82301,5.11257 -9.82301,15.5 0,12.31976 5.52439,18.09915 13.72777,14.36144 z m 63.64974,4.38701 c -2.14264,-1.0873 -4.31692,-3.415 -5.75,-6.15573 L 318,434.68543 l 0.022,-8.09271 c 0.0264,-9.74345 2.25987,-15.54599 7.1699,-18.62773 l 3.30814,-2.07633 5.2345,0.38666 c 8.3997,0.62046 12.11757,5.35289 12.52422,15.94189 L 346.5,428.5 335.25,428.78275 324,429.0655 v 2.56296 c 0,3.66153 2.91091,8.092 6.21612,9.46106 l 2.83497,1.17428 5.54034,-2.04091 5.54034,-2.04091 0.79895,2.15901 c 0.90605,2.44843 -0.35733,3.64087 -5.82994,5.50262 -4.79107,1.62989 -9.0439,1.43587 -13.04628,-0.59516 z m 14.56805,-22.70721 c 0.86235,-2.24724 -1.52572,-8.36001 -3.92158,-10.03814 -3.26548,-2.28723 -6.54728,-1.81063 -9.77789,1.41998 -2.14117,2.14116 -2.92308,3.87989 -2.92308,6.5 V 424 h 8.03138 8.03139 z m 349.70434,23.7631 c -3.59402,-0.70006 -7.17485,-5.10763 -7.85966,-9.67429 -0.34585,-2.3063 -0.47996,-12.80985 -0.29802,-23.34122 l 0.33079,-19.14794 2.08909,-2.82044 c 4.28147,-5.78035 16.42592,-6.79033 22.17965,-1.84455 l 2.73126,2.34773 v 8.33818 8.33819 h -2.5 -2.5 l -0.3037,-6.4806 c -0.37468,-7.99502 -1.91735,-10.02534 -7.60129,-10.00409 C 688.55146,392.04539 688,393.6153 688,416.48392 v 18.6154 l 1.52568,2.95034 c 1.51506,2.92981 3.16604,3.52029 8.47432,3.03091 4.54445,-0.41897 5.89139,-2.68566 6.20856,-10.44806 L 704.5,423.5 l 2.75,-0.31642 2.75,-0.31642 v 8.34391 c 0,9.49002 -1.21764,12.14627 -6.59857,14.39456 -3.18689,1.33157 -8.39634,1.60996 -13.07454,0.69871 z M 354.66667,445.33333 C 354.3,444.96667 354,436.19167 354,425.83333 V 407 h 2.91667 c 1.60416,0 3.09427,0.53283 3.31135,1.18406 0.2885,0.8655 1.52706,0.73098 4.60357,-0.5 6.3702,-2.54885 10.57052,-2.18967 14.40263,1.23158 l 3.26578,2.91564 0.31585,17.08436 L 383.1317,446 H 380.06585 377 V 430.5 415 l -2.11257,-2.11257 -2.11258,-2.11258 -3.61397,0.58647 c -1.98769,0.32256 -4.74953,1.43354 -6.13743,2.46886 L 360.5,415.71258 360.22395,430.85629 359.94791,446 h -2.30729 c -1.26901,0 -2.60729,-0.3 -2.97395,-0.66667 z M 467,416.53174 V 387 h 11.39301 c 8.20258,0 11.52174,0.35004 11.85269,1.25 1.13527,3.08711 -0.42544,3.75 -8.82903,3.75 H 473 v 11 11 h 7.56955 7.56955 l -0.31955,2.25 -0.31955,2.25 -7.25,0.29381 -7.25,0.29381 v 10.91726 10.91725 l 8.75,0.28894 8.75,0.28893 v 2 2 l -11.75,0.28174 -11.75,0.28173 z m 32,-0.0317 v -29.5 h 2.89599 2.89599 l 3.95872,10.25 c 2.1773,5.6375 5.93661,15.37849 8.35401,21.64665 L 521.5,430.29329 522,408.89665 522.5,387.5 h 2.5 2.5 v 29 29 l -2.61987,0.30387 -2.61987,0.30386 -1.51708,-3.80386 C 519.90878,440.21174 516.1918,430.625 512.48321,421 508.77463,411.375 505.34875,403.0725 504.87016,402.55 504.37421,402.00855 504,411.14713 504,423.8 V 446 h -2.5 -2.5 v -29.5 z m 46.66667,28.83333 C 545.3,444.96667 545,432.84018 545,418.38559 V 392.10452 L 539.75,391.80226 534.5,391.5 v -2 -2 h 13.5 13.5 l 0.31955,2.25 0.31955,2.25 H 556.56955 551 v 27 27 h -2.33333 c -1.28334,0 -2.63334,-0.3 -3,-0.66667 z m 22.78571,-0.59683 c -0.26667,-0.69492 -0.36504,-13.85742 -0.21861,-29.25 L 568.5,387.5 h 10.67226 10.67226 l 2.58898,2.43487 c 3.3738,3.17298 4.91049,9.10138 4.29381,16.56513 -0.58903,7.12914 -2.03911,10.61514 -5.22649,12.56449 l -2.34719,1.43551 4.42318,11.94252 c 2.43276,6.56839 4.42319,12.30589 4.42319,12.75 0,1.30056 -4.80532,0.92659 -5.6863,-0.44252 -0.44239,-0.6875 -2.64126,-6.2 -4.88638,-12.25 l -4.08204,-11 H 578.92264 574.5 l -0.28078,12.25 -0.28078,12.25 h -2.5006 c -1.37534,0 -2.71879,-0.56857 -2.98546,-1.2635 z m 19.68684,-30.64815 2.36078,-1.91164 v -8.05264 -8.05264 l -1.77704,-1.77704 c -1.31958,-1.31958 -3.37901,-1.77928 -8,-1.78572 L 574.5,392.5 l -0.287,10.4324 c -0.15785,5.73781 -0.0595,11.02531 0.21862,11.75 0.82517,2.15037 10.85518,1.7157 13.7076,-0.59405 z M 604.02989,443.75 c 0.0164,-1.2375 2.63673,-14.4 5.82287,-29.25 l 5.79297,-27 3.67713,-0.31037 c 2.02243,-0.1707 3.67714,-0.139 3.67714,0.0704 0,0.20944 2.7,12.69241 6,27.73994 3.3,15.04753 6,28.20823 6,29.24599 v 1.88685 l -2.75,-0.31642 -2.75,-0.31642 -1.40018,-6.75 -1.40019,-6.75 h -7.3812 c -5.01986,0 -7.51222,0.39989 -7.79076,1.25 -0.22526,0.6875 -0.91804,3.8375 -1.53951,7 l -1.12996,5.75 H 606.4291 604 l 0.0299,-2.25 z m 20.97084,-19 c 0.002,-3.77062 -5.43394,-27.71752 -6.03606,-26.58957 -0.39329,0.73676 -1.67969,6.28957 -2.85865,12.33957 -1.17896,6.05 -2.4126,12.0125 -2.74142,13.25 l -0.59786,2.25 h 6.11663 c 4.22625,0 6.11686,-0.38632 6.11736,-1.25 z M 643,416.5 V 387 h 2.90644 2.90644 l 5.93892,15.25 c 3.2664,8.3875 7.01871,18.0625 8.33847,21.5 1.31975,3.4375 2.73934,6.25 3.15464,6.25 C 666.66021,430 667,420.2937 667,408.43045 V 386.8609 l 2.25,0.31955 2.25,0.31955 0.2651,29.25 0.26511,29.25 h -2.90812 c -1.83569,0 -3.16684,-0.64534 -3.6097,-1.75 -0.38588,-0.9625 -4.07222,-10.525 -8.19187,-21.25 -4.11965,-10.725 -7.90208,-19.9275 -8.4054,-20.45 C 648.36058,401.97432 648,410.34728 648,423.8 V 446 h -2.5 -2.5 z m 77.45238,28.2365 c -0.26667,-0.69492 -0.36504,-13.85742 -0.21861,-29.25 L 720.5,387.5 732.25,387.21826 744,386.93653 V 389.46826 392 h -9.03383 -9.03383 l 0.28383,10.75 0.28383,10.75 7.25,0.29381 7.25,0.29381 V 416.54381 419 h -7.5 -7.5 v 11 11 h 9 9 v 2.5 2.5 h -11.53138 c -8.36832,0 -11.66438,-0.34658 -12.01624,-1.2635 z m -302.91079,-3.01144 c -5.70024,-3.2286 -9.52605,-9.14952 -10.196,-15.77959 L 406.79535,420.5 410.89767,412.78529 415,405.07057 v -5.49565 c 0,-3.72058 -1.63205,-10.91861 -5.05287,-22.28528 -9.21059,-30.60489 -11.95188,-34.30742 -26.44713,-35.72091 -17.28194,-1.68523 -30.80827,-10.00038 -38.99658,-23.97269 -4.3334,-7.39438 -5.65252,-12.20657 -6.54174,-23.86451 l -0.82139,-10.76846 -2.17373,-3.51718 c -2.72031,-4.40155 -6.09568,-6.11176 -32.97917,-16.70968 -28.0063,-11.04054 -31.41677,-12.13027 -38.08708,-12.16974 l -5.5997,-0.0331 -3.75437,2.98334 c -12.46349,9.90386 -18.14347,12.06034 -29.80932,11.31752 l -6.55969,-0.41769 -7.46012,-3.83774 -7.46013,-3.83773 -5.87849,0.45467 c -3.23317,0.25007 -8.67589,1.59993 -12.09494,2.99969 l -6.21644,2.54502 5.55708,-6.1202 c 7.91306,-8.71494 8.61837,-10.46104 9.33905,-23.12021 l 0.62621,-11 2.60664,-5.65538 c 6.91366,-14.99997 24.95202,-23.27763 39.90369,-18.31148 2.95569,0.98172 7.95023,1.76069 11.09898,1.73103 7.49842,-0.0706 9.94,-1.56299 22.93466,-14.01824 l 4.63341,-4.44108 2.23818,1.19783 2.23818,1.19784 -8.13931,8.14974 c -10.73136,10.74511 -12.25966,13.37364 -12.23809,21.04835 0.009,3.35577 0.49348,7.67342 1.07567,9.59479 0.5822,1.92137 1.05854,4.97679 1.05854,6.78984 0,4.45185 3.2635,10.55322 7.28561,13.62104 1.81725,1.38608 9.1339,4.81537 16.25924,7.62065 7.12533,2.80528 17.28258,6.81411 22.57166,8.90852 5.28907,2.09441 13.48379,4.82965 18.21048,6.07831 l 8.59398,2.27029 4.78952,-1.34013 c 3.47492,-0.9723 6.58055,-3.02186 11.31488,-7.46723 3.58895,-3.3699 8.67831,-7.3888 11.30968,-8.93089 4.91383,-2.8797 17.01694,-6.5438 21.61519,-6.5438 4.15808,0 9.96156,-4.62843 12.1214,-9.66714 2.91304,-6.79584 5.95675,-19.66534 6.20618,-26.2412 l 0.22218,-5.85717 -3.23859,-4.51484 c -1.78123,-2.48316 -3.71189,-6.72173 -4.29036,-9.41904 -0.57847,-2.69731 -1.89759,-6.29506 -2.93139,-7.995 -3.06678,-5.04292 -34.87539,-25.10051 -43.49342,-27.42569 l -3.95375,-1.06674 -6.54625,1.74945 c -3.68306,0.98428 -10.55966,1.80493 -15.72233,1.87629 l -9.1761,0.12684 -5.3239,3.71871 c -2.92815,2.04529 -7.0749,5.30528 -9.21501,7.24442 l -3.89109,3.52571 -1.64548,-1.48914 -1.64547,-1.48914 6.72916,-7.0992 c 3.70104,-3.90456 7.2261,-8.60491 7.83346,-10.44524 0.60736,-1.84032 1.20566,-7.41327 1.32956,-12.38433 l 0.22526,-9.0383 2.98404,-4.30463 c 1.96852,-2.83969 4.85367,-5.24659 8.47785,-7.07254 8.7322,-4.39951 11.0426,-6.56161 13.99514,-13.09686 C 336.39451,96.124637 340,83.508205 340,79.14525 c 0,-1.774947 -1.40572,-5.928187 -3.12383,-9.229423 l -3.12383,-6.002246 0.57812,-3.562561 c 0.74575,-4.59551 2.98014,-7.945056 6.97387,-10.454429 l 3.19567,-2.007928 5.27213,0.389776 5.27212,0.389776 3.0002,2.874367 c 7.99206,7.656879 5.64585,18.791359 -5.11645,24.28129 -1.80721,0.921871 -4.10349,2.801128 -5.10285,4.176128 -2.86348,3.939795 -7.84145,19.368736 -8.49005,26.31445 l -0.59021,6.3204 2.13078,4.43258 c 1.17193,2.43791 3.04808,5.85625 4.16923,7.59631 1.12115,1.74006 2.48919,5.96261 3.0401,9.38345 1.28718,7.99262 2.89931,11.00301 8.14948,15.2178 5.56048,4.46389 33.28623,21.08823 37.64275,22.57056 l 3.37724,1.14912 6.58059,-1.52614 c 7.69962,-1.78567 11.02429,-1.28755 17.16494,2.57172 7.42775,4.6682 8.04444,4.63847 31.05052,-1.49681 32.3482,-8.62664 34.68198,-9.77515 39.16012,-19.27169 2.94267,-6.24036 7.62322,-9.88348 14.47918,-11.26994 6.29953,-1.27392 9.80916,-3.0484 12.59255,-6.36683 1.77331,-2.11418 12.93152,-20.58787 18.19566,-30.12498 1.5179,-2.75 7.37421,-13.1 13.01403,-23 16.41046,-28.806505 16.25346,-28.362563 13.02255,-36.822577 -3.5226,-9.2238 0.59416,-18.547012 9.50052,-21.515801 l 4.3979,-1.465964 4.54348,1.166139 c 3.06677,0.787122 5.59396,2.346564 7.77554,4.798012 8.48946,9.539669 3.42375,23.430228 -9.55884,26.211041 -10.34763,2.216418 -6.89853,-2.64633 -42.14389,59.41693 -6.18055,10.88328 -11.95549,22.03345 -12.83322,24.77815 l -1.59585,4.99037 1.33187,4.72185 c 3.17582,11.25921 2.9138,16.82075 -1.05509,22.39454 -4.73214,6.64568 -16.50952,9.16873 -23.08708,4.94592 -1.80947,-1.16169 -5.27925,-3.06864 -7.71062,-4.23767 l -4.42066,-2.12552 -5.20816,0.53753 c -7.39109,0.76283 -38.79577,9.4091 -45.99555,12.66339 -5.89685,2.66538 -8.25551,4.88793 -12.78122,12.04366 -1.21748,1.925 -3.71525,4.25426 -5.55059,5.17613 -7.64099,3.83798 -9.99474,7.77914 -13.17636,22.06276 -2.22692,9.99754 -2.41761,16.9453 -0.58318,21.24769 0.72817,1.7078 4.65398,5.56466 9.16879,9.00774 9.18166,7.0021 14.36211,13.41579 18.17823,22.50568 l 2.72883,6.5 -0.0382,11.5 -0.0382,11.5 -2.22372,5.39415 c -3.3528,8.13301 -8.89736,15.87087 -14.56136,20.3215 C 411.0303,335.3606 407,341.2817 407,345.75614 c 0,3.31206 2.10321,12.98853 3.96536,18.24386 0.48721,1.375 1.85805,5.875 3.0463,10 3.16284,10.9797 6.82465,20.46126 9.34923,24.20807 1.35596,2.01241 4.60566,4.46264 8.36079,6.30391 7.54286,3.69854 10.98488,6.78055 13.38828,11.98802 6.02784,13.06058 -3.61677,27.52927 -18.32012,27.48355 -3.61272,-0.0112 -6.54484,-0.72728 -9.24825,-2.25849 z M 93.747969,332.63293 c -12.759385,-4.75634 -19.084701,-18.81372 -13.858906,-30.80002 4.926805,-11.30052 18.586152,-16.90392 29.738817,-12.1996 2.2221,0.9373 6.64196,1.64029 10.37212,1.64971 6.13276,0.0155 8.16233,-0.5396 21.5,-5.88021 1.1,-0.44045 -1.21191,1.96625 -5.13757,5.34823 -8.96621,7.72444 -10.88689,10.88718 -12.29688,20.24896 -1.40636,9.33763 -4.93091,15.40382 -11.20284,19.28146 -5.55432,3.43397 -13.566665,4.41964 -19.114741,2.35147 z M 374.5,224.32384 C 348.24022,221.02829 329.2855,212.47523 287,184.8407 279.025,179.62885 269.2375,173.24195 265.25,170.64757 L 258,165.93052 v -9.49573 -9.49574 l 7.75,5.20736 c 9.33757,6.27407 21.37529,15.39811 42.75,32.40251 30.97898,24.64496 45.875,32.87197 67.8457,37.47086 4.87438,1.02031 9.11567,2.10825 9.42507,2.41766 0.59286,0.59286 -6.18596,0.52454 -11.27077,-0.1136 z m 90.48422,-7.35093 -2.48422,-4.0211 -2.5,0.48397 c -1.375,0.26618 -7.225,1.20727 -13,2.09131 -5.775,0.88404 -12.89819,2.06641 -15.82931,2.62749 -2.93111,0.56108 -5.50191,0.84753 -5.71287,0.63657 -0.21097,-0.21097 7.02472,-2.82248 16.0793,-5.80337 C 450.5917,210.00689 458,207.27587 458,206.91885 c 0,-0.35702 -0.9,-1.7933 -2,-3.19172 -1.1,-1.39842 -2,-2.83867 -2,-3.20055 0,-0.73255 24.52449,0.42103 29.11994,1.36974 l 2.92416,0.60368 -9.28783,9.24701 -9.28783,9.247 z"
         id="path315" />
      <path
         style="fill:#7d7c81"
         d="m 282,436 v -29 h 2.41667 c 1.32916,0 2.60883,0.5625 2.84369,1.25 l 0.42704,1.25 3.4063,-1.45427 c 1.87346,-0.79985 5.75649,-1.47485 8.62896,-1.5 l 5.22265,-0.0457 2.09861,2.09904 c 2.7467,2.74727 3.90837,8.0679 3.90837,17.90096 0,10.038 -1.23962,15.50261 -4.02939,17.76268 -4.14677,3.35943 -7.10919,3.37274 -17.1729,0.0771 L 288,443.76673 v 10.61663 10.61663 h -3 -3 v -29 z m 20.13922,4.09009 2.36078,-1.9099 0.28179,-10.3401 c 0.31558,-11.58039 -0.66165,-14.72216 -5.06047,-16.26914 l -2.73618,-0.96226 -4.49257,2.18266 L 288,414.97401 v 11.4891 11.48911 l 3.75,1.97969 c 4.76609,2.51611 7.42462,2.55659 10.38922,0.15818 z M 251,445.24845 c -2.27786,-1.13792 -4.28566,-3.30646 -5.75,-6.21034 l -2.25,-4.46189 0.022,-8.03811 c 0.0382,-13.98768 4.97095,-20.53063 15.47804,-20.53063 6.02124,0 10.6491,2.52341 13.20145,7.1983 L 273.5,416.5 v 10 10 l -2.40247,3.86473 c -3.96628,6.38037 -12.80306,8.52771 -20.09753,4.88372 z m 11.40476,-4.38701 C 266.05558,439.19802 268,434.23042 268,426.56675 268,415.97689 264.96273,411 258.5,411 c -6.58295,0 -9.82301,5.11257 -9.82301,15.5 0,12.31976 5.52439,18.09915 13.72777,14.36144 z m 63.64974,4.38701 c -2.14264,-1.0873 -4.31692,-3.415 -5.75,-6.15573 L 318,434.68543 l 0.022,-8.09271 c 0.0264,-9.74345 2.25987,-15.54599 7.1699,-18.62773 l 3.30814,-2.07633 5.2345,0.38666 c 8.3997,0.62046 12.11757,5.35289 12.52422,15.94189 L 346.5,428.5 335.25,428.78275 324,429.0655 v 2.56296 c 0,3.66153 2.91091,8.092 6.21612,9.46106 l 2.83497,1.17428 5.54034,-2.04091 5.54034,-2.04091 0.79895,2.15901 c 0.90605,2.44843 -0.35733,3.64087 -5.82994,5.50262 -4.79107,1.62989 -9.0439,1.43587 -13.04628,-0.59516 z m 14.56805,-22.70721 c 0.86235,-2.24724 -1.52572,-8.36001 -3.92158,-10.03814 -3.26548,-2.28723 -6.54728,-1.81063 -9.77789,1.41998 -2.14117,2.14116 -2.92308,3.87989 -2.92308,6.5 V 424 h 8.03138 8.03139 z m 349.70434,23.7631 c -3.59402,-0.70006 -7.17485,-5.10763 -7.85966,-9.67429 -0.34585,-2.3063 -0.47996,-12.80985 -0.29802,-23.34122 l 0.33079,-19.14794 2.08909,-2.82044 c 4.28147,-5.78035 16.42592,-6.79033 22.17965,-1.84455 l 2.73126,2.34773 v 8.33818 8.33819 h -2.5 -2.5 l -0.3037,-6.4806 c -0.37468,-7.99502 -1.91735,-10.02534 -7.60129,-10.00409 C 688.55146,392.04539 688,393.6153 688,416.48392 v 18.6154 l 1.52568,2.95034 c 1.51506,2.92981 3.16604,3.52029 8.47432,3.03091 4.54445,-0.41897 5.89139,-2.68566 6.20856,-10.44806 L 704.5,423.5 l 2.75,-0.31642 2.75,-0.31642 v 8.34391 c 0,9.49002 -1.21764,12.14627 -6.59857,14.39456 -3.18689,1.33157 -8.39634,1.60996 -13.07454,0.69871 z M 354.66667,445.33333 C 354.3,444.96667 354,436.19167 354,425.83333 V 407 h 2.91667 c 1.60416,0 3.09427,0.53283 3.31135,1.18406 0.2885,0.8655 1.52706,0.73098 4.60357,-0.5 6.3702,-2.54885 10.57052,-2.18967 14.40263,1.23158 l 3.26578,2.91564 0.31585,17.08436 L 383.1317,446 H 380.06585 377 V 430.5 415 l -2.11257,-2.11257 -2.11258,-2.11258 -3.61397,0.58647 c -1.98769,0.32256 -4.74953,1.43354 -6.13743,2.46886 L 360.5,415.71258 360.22395,430.85629 359.94791,446 h -2.30729 c -1.26901,0 -2.60729,-0.3 -2.97395,-0.66667 z M 467,416.53174 V 387 h 11.39301 c 8.20258,0 11.52174,0.35004 11.85269,1.25 1.13527,3.08711 -0.42544,3.75 -8.82903,3.75 H 473 v 11 11 h 7.56955 7.56955 l -0.31955,2.25 -0.31955,2.25 -7.25,0.29381 -7.25,0.29381 v 10.91726 10.91725 l 8.75,0.28894 8.75,0.28893 v 2 2 l -11.75,0.28174 -11.75,0.28173 z m 32,-0.0317 v -29.5 h 2.89599 2.89599 l 3.95872,10.25 c 2.1773,5.6375 5.93661,15.37849 8.35401,21.64665 L 521.5,430.29329 522,408.89665 522.5,387.5 h 2.5 2.5 v 29 29 l -2.61987,0.30387 -2.61987,0.30386 -1.51708,-3.80386 C 519.90878,440.21174 516.1918,430.625 512.48321,421 508.77463,411.375 505.34875,403.0725 504.87016,402.55 504.37421,402.00855 504,411.14713 504,423.8 V 446 h -2.5 -2.5 v -29.5 z m 46.66667,28.83333 C 545.3,444.96667 545,432.84018 545,418.38559 V 392.10452 L 539.75,391.80226 534.5,391.5 v -2 -2 h 13.5 13.5 l 0.31955,2.25 0.31955,2.25 H 556.56955 551 v 27 27 h -2.33333 c -1.28334,0 -2.63334,-0.3 -3,-0.66667 z m 22.78571,-0.59683 c -0.26667,-0.69492 -0.36504,-13.85742 -0.21861,-29.25 L 568.5,387.5 h 10.67226 10.67226 l 2.58898,2.43487 c 3.3738,3.17298 4.91049,9.10138 4.29381,16.56513 -0.58903,7.12914 -2.03911,10.61514 -5.22649,12.56449 l -2.34719,1.43551 4.42318,11.94252 c 2.43276,6.56839 4.42319,12.30589 4.42319,12.75 0,1.30056 -4.80532,0.92659 -5.6863,-0.44252 -0.44239,-0.6875 -2.64126,-6.2 -4.88638,-12.25 l -4.08204,-11 H 578.92264 574.5 l -0.28078,12.25 -0.28078,12.25 h -2.5006 c -1.37534,0 -2.71879,-0.56857 -2.98546,-1.2635 z m 19.68684,-30.64815 2.36078,-1.91164 v -8.05264 -8.05264 l -1.77704,-1.77704 c -1.31958,-1.31958 -3.37901,-1.77928 -8,-1.78572 L 574.5,392.5 l -0.287,10.4324 c -0.15785,5.73781 -0.0595,11.02531 0.21862,11.75 0.82517,2.15037 10.85518,1.7157 13.7076,-0.59405 z M 604.02989,443.75 c 0.0164,-1.2375 2.63673,-14.4 5.82287,-29.25 l 5.79297,-27 3.67713,-0.31037 c 2.02243,-0.1707 3.67714,-0.139 3.67714,0.0704 0,0.20944 2.7,12.69241 6,27.73994 3.3,15.04753 6,28.20823 6,29.24599 v 1.88685 l -2.75,-0.31642 -2.75,-0.31642 -1.40018,-6.75 -1.40019,-6.75 h -7.3812 c -5.01986,0 -7.51222,0.39989 -7.79076,1.25 -0.22526,0.6875 -0.91804,3.8375 -1.53951,7 l -1.12996,5.75 H 606.4291 604 l 0.0299,-2.25 z m 20.97084,-19 c 0.002,-3.77062 -5.43394,-27.71752 -6.03606,-26.58957 -0.39329,0.73676 -1.67969,6.28957 -2.85865,12.33957 -1.17896,6.05 -2.4126,12.0125 -2.74142,13.25 l -0.59786,2.25 h 6.11663 c 4.22625,0 6.11686,-0.38632 6.11736,-1.25 z M 643,416.5 V 387 h 2.90644 2.90644 l 5.93892,15.25 c 3.2664,8.3875 7.01871,18.0625 8.33847,21.5 1.31975,3.4375 2.73934,6.25 3.15464,6.25 C 666.66021,430 667,420.2937 667,408.43045 V 386.8609 l 2.25,0.31955 2.25,0.31955 0.2651,29.25 0.26511,29.25 h -2.90812 c -1.83569,0 -3.16684,-0.64534 -3.6097,-1.75 -0.38588,-0.9625 -4.07222,-10.525 -8.19187,-21.25 -4.11965,-10.725 -7.90208,-19.9275 -8.4054,-20.45 C 648.36058,401.97432 648,410.34728 648,423.8 V 446 h -2.5 -2.5 z m 77.45238,28.2365 c -0.26667,-0.69492 -0.36504,-13.85742 -0.21861,-29.25 L 720.5,387.5 732.25,387.21826 744,386.93653 V 389.46826 392 h -9.03383 -9.03383 l 0.28383,10.75 0.28383,10.75 7.25,0.29381 7.25,0.29381 V 416.54381 419 h -7.5 -7.5 v 11 11 h 9 9 v 2.5 2.5 h -11.53138 c -8.36832,0 -11.66438,-0.34658 -12.01624,-1.2635 z M 374.5,224.32384 C 348.24022,221.02829 329.2855,212.47523 287,184.8407 279.025,179.62885 269.2375,173.24195 265.25,170.64757 L 258,165.93052 v -9.49573 -9.49574 l 7.75,5.20736 c 9.33757,6.27407 21.37529,15.39811 42.75,32.40251 30.97898,24.64496 45.875,32.87197 67.8457,37.47086 4.87438,1.02031 9.11567,2.10825 9.42507,2.41766 0.59286,0.59286 -6.18596,0.52454 -11.27077,-0.1136 z m 90.48422,-7.35093 -2.48422,-4.0211 -2.5,0.48397 c -1.375,0.26618 -7.225,1.20727 -13,2.09131 -5.775,0.88404 -12.89819,2.06641 -15.82931,2.62749 -2.93111,0.56108 -5.50191,0.84753 -5.71287,0.63657 -0.21097,-0.21097 7.02472,-2.82248 16.0793,-5.80337 C 450.5917,210.00689 458,207.27587 458,206.91885 c 0,-0.35702 -0.9,-1.7933 -2,-3.19172 -1.1,-1.39842 -2,-2.83867 -2,-3.20055 0,-0.73255 24.52449,0.42103 29.11994,1.36974 l 2.92416,0.60368 -9.28783,9.24701 -9.28783,9.247 z"
         id="path313" />
      <path
         style="fill:#4d4b52"
         d="m 282,436 v -29 h 2.13976 c 1.17686,0 2.63968,0.68369 3.2507,1.5193 l 1.11094,1.5193 3.96074,-2.0193 c 6.01533,-3.06679 10.08812,-2.66904 14.13786,1.3807 l 3.4,3.4 v 13.58422 13.58423 l -2.91797,3.26577 -2.91797,3.26578 -4.33203,-0.0231 c -2.38262,-0.0127 -5.84919,-0.79301 -7.70349,-1.73395 -1.85431,-0.94094 -3.76681,-1.46647 -4.25,-1.16784 C 287.39534,443.8737 287,448.81648 287,454.55902 V 465 h -2.5 -2.5 z m 20.96104,3.81144 L 305,437.62288 V 426.5 415.37712 l -2.03896,-2.18856 c -3.45136,-3.70461 -12.35311,-2.06152 -14.9314,2.75605 -1.36214,2.54518 -1.32488,18.63521 0.0491,21.20251 1.26911,2.37136 6.29334,4.75831 10.1323,4.81374 1.54096,0.0222 3.59106,-0.90544 4.75,-2.14942 z M 251.5,445.11455 c -2.29759,-1.05777 -4.8512,-3.28283 -6,-5.22804 l -2,-3.38651 v -10 -10 l 2,-3.3869 c 1.1,-1.8628 3.575,-4.25572 5.5,-5.31761 l 3.5,-1.9307 5.42962,0.51389 5.42962,0.51389 3.28851,3.30372 3.28852,3.30371 1.17373,7 1.17373,7 -1.20015,5.68924 c -1.40133,6.64291 -4.11111,10.50649 -8.71936,12.43194 -4.4247,1.84876 -8.05895,1.70563 -12.86422,-0.50663 z m 12.13968,-4.57472 c 3.47249,-2.43224 4.59878,-6.73077 4.21461,-16.08535 l -0.35433,-8.62768 -2.80574,-2.4134 c -3.78428,-3.2551 -9.52325,-3.28874 -12.54379,-0.0735 -5.77009,6.14199 -5.46269,21.90954 0.51887,26.61464 3.04224,2.39303 8.01102,2.65813 10.97038,0.58532 z m 63.77551,5.08515 c -6.83301,-3.07786 -9.87025,-10.20314 -9.21011,-21.60665 0.32553,-5.62339 1.04137,-8.68102 2.63665,-11.26224 3.98913,-6.45455 12.61305,-8.60523 18.96845,-4.73046 4.22221,2.57422 6.18982,7.32402 6.18982,14.94225 V 429 h -10.94098 c -6.01754,0 -11.18698,0.39803 -11.48764,0.88451 -1.02222,1.65399 2.08868,8.51915 4.76628,10.51827 l 2.66703,1.99122 5.24765,-1.21332 c 7.88232,-1.82247 8.1423,-1.81979 8.5363,0.0882 0.74141,3.59032 -11.9879,6.78199 -17.37345,4.35611 z m 13.12491,-22.68987 c 1.08498,-1.75552 -0.5138,-7.90881 -2.59588,-9.99089 -2.33621,-2.33621 -7.62658,-2.55543 -10.64519,-0.44112 -2.39586,1.67813 -4.78393,7.7909 -3.92158,10.03814 L 323.93723,424 h 7.97237 c 4.56007,0 8.25406,-0.45579 8.6305,-1.06489 z m 349.77281,23.01355 c -1.75289,-0.53528 -4.13754,-2.18155 -5.29921,-3.65837 l -2.11213,-2.68514 0.29922,-23.77668 0.29921,-23.77667 2.25879,-2.25691 2.25879,-2.25691 7.36049,-0.37169 7.3605,-0.37169 3.38071,3.01937 3.38072,3.01937 v 7.83333 7.83333 h -2 -2 l -0.57608,-6 c -0.71908,-7.4894 -1.55941,-9.41091 -4.6254,-10.5766 -4.06283,-1.54469 -7.26644,-1.04639 -9.84397,1.53115 L 688,395.90909 V 416.5 437.09091 l 2.45455,2.45454 c 1.35,1.35 3.4875,2.44841 4.75,2.4409 C 702.38376,441.94364 705,438.46984 705,428.98011 v -6.11921 l 2.25,0.31955 2.25,0.31955 0.31982,6 c 0.43564,8.17275 -1.15494,13.10482 -4.84098,15.01094 -3.85075,1.9913 -10.66544,2.65935 -14.66593,1.43772 z M 355,426.5 V 407 h 1.95031 c 1.07267,0 2.32863,0.67602 2.79102,1.50226 l 0.84071,1.50227 5.17583,-2.18673 5.17583,-2.18673 3.68733,0.93447 c 2.13806,0.54184 4.5679,2.11913 5.78314,3.75403 l 2.09583,2.81957 0.3173,16.43043 L 383.1346,446 h -2.47755 -2.47755 l -0.33975,-15.39704 -0.33975,-15.39703 -1.90499,-2.10297 c -2.4135,-2.66432 -6.5172,-2.69346 -11.63485,-0.0826 L 360,415.04065 V 430.52032 446 h -2.5 -2.5 z m 112.45238,18.2365 c -0.26667,-0.69492 -0.36504,-13.85742 -0.21861,-29.25 L 467.5,387.5 478.75,387.21725 490,386.9345 V 389.46725 392 h -9.03383 -9.03383 l 0.28383,10.75 0.28383,10.75 6.97235,0.30076 c 7.03648,0.30352 9.33104,1.52628 7.348,3.9157 C 486.14227,418.5335 483.25549,419 478.87756,419 H 472 v 11 11 h 9 9 v 2.5 2.5 h -11.03138 c -7.96547,0 -11.16614,-0.35116 -11.51624,-1.2635 z m 32.02836,0.0739 c -0.28226,-0.73557 -0.3934,-13.93133 -0.24697,-29.32391 L 499.5,387.5 h 2.5 2.5 l 3.00079,7.5 c 1.65043,4.125 5.47543,13.91113 8.5,21.74695 3.02456,7.83583 5.82793,14.24833 6.22971,14.25 0.40177,0.002 0.85177,-9.78445 1,-21.74695 L 523.5,387.5 h 2 2 l 0.26538,28.77548 0.26537,28.77549 -1.6513,0.63366 c -3.58216,1.37461 -4.4024,-0.21538 -16.34531,-31.68463 -1.56548,-4.125 -3.45109,-8.85 -4.19024,-10.5 l -1.3439,-3 -0.5,22.48733 -0.5,22.48733 -1.75302,0.33658 c -0.96417,0.18511 -1.98397,-0.26526 -2.26624,-1.00083 z M 545.76646,419.31739 545.5,392.5 540.25,392.19774 535,391.89548 v -2.47676 -2.47677 l 13.25,0.27902 13.25,0.27903 v 2 2 l -5.23376,0.3017 -5.23377,0.30169 -0.26623,26.69831 L 550.5,445.5 l -2.23354,0.31739 -2.23354,0.3174 z M 569,416.56955 V 387 l 7.75,0.006 c 9.69694,0.007 14.58346,1.33159 17.20451,4.66372 L 596,394.27014 v 9.99706 9.99707 l -3.51487,3.31495 -3.51487,3.31495 4.01487,10.68873 c 4.70715,12.53178 4.97519,14.69306 1.76566,14.23707 L 592.50157,445.5 588.02546,433.25 583.54934,421 h -4.74389 -4.74389 l -0.28078,12.25 -0.28078,12.25 -2.25,0.31955 -2.25,0.31955 z m 19.59501,-2.67454 1.90499,-2.10499 V 404 396.20998 L 588.59501,394.10499 586.69002,392 H 580.34501 574 v 12 12 h 6.34501 6.34501 z m 15.89461,27.93789 c 0.38139,-2.38309 1.31138,-7.0329 2.06664,-10.3329 0.75526,-3.3 3.04168,-14.1 5.08094,-24 2.03925,-9.9 4.15411,-18.58525 4.69967,-19.30056 0.54557,-0.7153 2.1429,-1.1653 3.54962,-1 l 2.55768,0.30056 1.14948,4.5 c 0.63222,2.475 1.86675,7.875 2.7434,12 0.87665,4.125 3.19445,14.83928 5.15066,23.80952 1.95621,8.97024 3.29519,16.73274 2.9755,17.25 -0.98572,1.59494 -4.30057,1.03874 -4.82465,-0.80952 -0.27292,-0.9625 -1.05378,-4.35507 -1.73525,-7.53904 l -1.23904,-5.78904 -7.5025,0.28904 -7.5025,0.28904 -1.59042,7 -1.59042,7 -2.34112,0.3329 -2.34112,0.33291 z m 20.8381,-15.5829 c 0.46647,-0.78485 -5.07176,-29.32737 -5.83949,-30.0951 -0.24263,-0.24264 -0.65406,0.18575 -0.91429,0.95197 C 617.94399,398.96176 613,424.50391 613,425.90356 c 0,1.23851 11.60371,1.56461 12.32772,0.34644 z m 18.37352,19.1179 C 643.31556,444.98222 643,431.90254 643,416.30195 v -28.36472 l 1.63592,-0.62776 c 0.89976,-0.34527 2.29612,-0.21133 3.10302,0.29765 1.25223,0.78989 7.20794,15.22961 15.52592,37.64288 1.17367,3.1625 2.48543,5.75 2.91504,5.75 0.4296,0 0.90237,-9.7875 1.0506,-21.75 L 667.5,387.5 h 2 2 l 0.26538,28.77548 0.26537,28.77549 -1.6513,0.63366 c -2.6376,1.01215 -4.47969,-0.85068 -6.63812,-6.71287 C 660.73979,430.81975 650.96433,405.87032 649.6472,403 l -1.1472,-2.5 -0.5,22.48733 -0.5,22.48733 -1.54876,0.29724 c -0.85182,0.16348 -1.86432,-0.0183 -2.25,-0.404 z M 721,416.5 v -29.5655 l 11.25,0.28275 11.25,0.28275 v 2 2 l -8.75,0.28893 -8.75,0.28894 V 403.03893 414 h 7.56955 7.56955 l -0.31955,2.25 -0.31955,2.25 -7.25,0.29381 -7.25,0.29381 V 430.04381 441 h 9.06955 9.06955 l -0.31955,2.25 L 743.5,445.5 732.25,445.78275 721,446.0655 Z M 364.5602,222.43408 c -18.07435,-3.58891 -38.8646,-12.9348 -60.93885,-27.394 L 291,186.77278 v -7.38639 C 291,175.32387 291.22944,172 291.50987,172 c 0.28043,0 3.76793,2.62495 7.75,5.83323 13.42384,10.81532 32.19342,24.7599 39.22564,29.14211 11.86615,7.39452 25.76849,12.97623 39.51449,15.86484 l 4.5,0.94564 -5.5,0.0131 c -3.025,0.007 -8.62291,-0.60697 -12.4398,-1.36486 z M 465,216.5 c -1.18972,-1.925 -2.49379,-3.5 -2.89794,-3.5 -0.40415,0 -7.87456,1.11789 -16.60091,2.48419 -8.72636,1.36631 -16.00949,2.3408 -16.18475,2.16554 -0.17526,-0.17526 6.20686,-2.43896 14.18247,-5.03046 7.97562,-2.5915 14.50113,-5.18251 14.50113,-5.75781 0,-0.5753 -0.9063,-2.19818 -2.014,-3.60639 -1.10771,-1.40822 -1.84688,-2.72753 -1.64261,-2.9318 0.20427,-0.20427 6.39808,0.0883 13.76401,0.65024 7.36593,0.5619 14.50822,1.02273 15.87175,1.02406 L 486.4583,202 477.5,211 c -4.92707,4.95 -9.26848,9 -9.64759,9 -0.37911,0 -1.66269,-1.575 -2.85241,-3.5 z"
         id="path311" />
    </g>
  </g>
</svg>
