<?xml version="1.0" encoding="UTF-8" standalone="no"?>
<svg
   version="1.1"
   id="svg4"
   width="132.94336"
   height="11.320312"
   xmlns="http://www.w3.org/2000/svg"
   xmlns:svg="http://www.w3.org/2000/svg">
  <defs
     id="defs8" />
  <g
     aria-label="OpenAQ API Version 2"
     id="text2"
     transform="translate(-0.67382812,8.90625)">
    <path
       d="m 7.6757812,-7.7226562 q 0.5332032,0.5859375 0.8144532,1.4355468 0.2871094,0.8496094 0.2871094,1.9277344 0,1.078125 -0.2929688,1.9335937 -0.2871094,0.8496094 -0.8085938,1.4179688 -0.5390625,0.59179687 -1.2773437,0.890625 -0.7324219,0.29882812 -1.6757813,0.29882812 -0.9199218,0 -1.6757812,-0.30468749 -0.75,-0.30468751 -1.2773438,-0.88476563 -0.5273437,-0.5800781 -0.81445307,-1.4238281 -0.28125001,-0.84375 -0.28125001,-1.9277344 0,-1.0664062 0.28125001,-1.9101562 Q 1.2363281,-7.1191406 1.7753906,-7.7226562 2.2910156,-8.296875 3.0527344,-8.6015625 3.8203125,-8.90625 4.7226562,-8.90625 q 0.9375,0 1.6816407,0.3105469 0.75,0.3046875 1.2714843,0.8730469 z M 7.5703125,-4.359375 q 0,-1.6992187 -0.7617188,-2.6191406 -0.7617187,-0.9257813 -2.0800781,-0.9257813 -1.3300781,0 -2.0917968,0.9257813 -0.7558594,0.9199219 -0.7558594,2.6191406 0,1.7167969 0.7734375,2.6308594 0.7734375,0.9082031 2.0742187,0.9082031 1.3007813,0 2.0683594,-0.9082031 0.7734375,-0.9140625 0.7734375,-2.6308594 z"
       id="path10" />
    <path
       d="m 16.289062,-3.3515625 q 0,0.796875 -0.228515,1.4589844 -0.228516,0.65625 -0.644531,1.11328123 -0.386719,0.43359374 -0.914063,0.67382812 -0.521484,0.234375 -1.107422,0.234375 -0.509765,0 -0.925781,-0.11132812 Q 12.058594,-0.09375 11.630859,-0.328125 v 2.7421875 h -1.101562 v -8.9589844 h 1.101562 v 0.6855469 q 0.439454,-0.3691406 0.984375,-0.6152344 0.550782,-0.2519531 1.171875,-0.2519531 1.183594,0 1.839844,0.8964844 0.662109,0.890625 0.662109,2.4785156 z m -1.136718,0.029297 q 0,-1.1835938 -0.404297,-1.7695313 -0.404297,-0.5859375 -1.242188,-0.5859375 -0.474609,0 -0.955078,0.2050782 -0.480468,0.2050781 -0.919922,0.5390625 v 3.7089843 q 0.46875,0.2109375 0.802735,0.2871094 0.339844,0.0761719 0.767578,0.0761719 0.919922,0 1.435547,-0.6210938 0.515625,-0.6210937 0.515625,-1.8398437 z"
       id="path12" />
    <path
       d="m 23.484375,-3.1582031 h -4.822266 q 0,0.6035156 0.181641,1.0546875 0.181641,0.4453125 0.498047,0.7324219 0.304687,0.28125 0.720703,0.42187495 0.421875,0.140625 0.925781,0.140625 0.667969,0 1.341797,-0.26367185 0.679688,-0.2695313 0.966797,-0.5273438 h 0.05859 v 1.2011719 Q 22.798828,-0.1640625 22.21875,-0.00585938 21.638672,0.15234375 21,0.15234375 q -1.628906,0 -2.542969,-0.87890625 -0.914062,-0.8847656 -0.914062,-2.5078125 0,-1.6054687 0.873047,-2.5488281 0.878906,-0.9433594 2.308593,-0.9433594 1.324219,0 2.039063,0.7734375 0.720703,0.7734375 0.720703,2.1972656 z m -1.072266,-0.84375 q -0.0059,-0.8671875 -0.439453,-1.3417969 -0.427734,-0.4746094 -1.30664,-0.4746094 -0.884766,0 -1.41211,0.5214844 -0.521484,0.5214844 -0.591797,1.2949219 z"
       id="path14" />
    <path
       d="m 30.626953,0 h -1.101562 v -3.7265625 q 0,-0.4511719 -0.05273,-0.84375 -0.05273,-0.3984375 -0.193359,-0.6210937 -0.146485,-0.2460938 -0.421875,-0.3632813 -0.275391,-0.1230469 -0.714844,-0.1230469 -0.451172,0 -0.943359,0.2226563 -0.492188,0.2226562 -0.94336,0.5683594 V 0 h -1.101562 v -6.5449219 h 1.101562 v 0.7265625 q 0.515625,-0.4277343 1.066407,-0.6679687 0.550781,-0.2402344 1.130859,-0.2402344 1.060547,0 1.617187,0.6386719 0.556641,0.6386719 0.556641,1.8398437 z"
       id="path16" />
    <path
       d="M 39.714844,0 H 38.478516 L 37.623047,-2.4316406 H 33.849609 L 32.994141,0 h -1.177735 l 3.175781,-8.7246094 h 1.546875 z m -2.449219,-3.4277344 -1.529297,-4.2832031 -1.535156,4.2832031 z"
       id="path18" />
    <path
       d="m 48.820312,2.1386719 q -0.351562,0.087891 -0.697265,0.1230469 -0.339844,0.041016 -0.697266,0.041016 -1.019531,0 -1.640625,-0.5625 -0.615234,-0.5566407 -0.667969,-1.5996094 -0.140625,0.0234375 -0.27539,0.0292969 -0.128906,0.0117188 -0.251953,0.0117188 -0.919922,0 -1.675782,-0.30468749 -0.75,-0.30468751 -1.277343,-0.88476561 -0.527344,-0.5800781 -0.814453,-1.4238281 -0.28125,-0.84375 -0.28125,-1.9277344 0,-1.0664062 0.28125,-1.9101562 0.28125,-0.8496094 0.820312,-1.453125 0.515625,-0.5742188 1.277344,-0.8789063 0.767578,-0.3046875 1.669922,-0.3046875 0.9375,0 1.68164,0.3105469 0.75,0.3046875 1.271485,0.8730469 0.533203,0.5859375 0.814453,1.4355468 0.287109,0.8496094 0.287109,1.9277344 0,1.5996094 -0.65625,2.6953125 -0.65039,1.09570311 -1.751953,1.53515623 0.02344,0.66796875 0.316406,1.03710938 0.292969,0.36914059 1.066407,0.36914059 0.240234,0 0.568359,-0.076172 0.333984,-0.070312 0.474609,-0.1289063 h 0.158203 z M 47.4375,-4.359375 q 0,-1.6992187 -0.761719,-2.6191406 -0.761719,-0.9257813 -2.080078,-0.9257813 -1.330078,0 -2.091797,0.9257813 -0.755859,0.9199219 -0.755859,2.6191406 0,1.7167969 0.773437,2.6308594 0.773438,0.9082031 2.074219,0.9082031 1.300781,0 2.068359,-0.9082031 Q 47.4375,-2.6425781 47.4375,-4.359375 Z"
       id="path20" />
    <path
       d="M 61.582031,0 H 60.345703 L 59.490234,-2.4316406 H 55.716797 L 54.861328,0 h -1.177734 l 3.175781,-8.7246094 h 1.546875 z m -2.449219,-3.4277344 -1.529296,-4.2832031 -1.535157,4.2832031 z"
       id="path22" />
    <path
       d="m 68.613281,-6.0878906 q 0,0.5800781 -0.205078,1.078125 -0.199219,0.4921875 -0.5625,0.8554687 -0.451172,0.4511719 -1.066406,0.6796875 -0.615235,0.2226563 -1.552735,0.2226563 H 64.066406 V 0 H 62.90625 v -8.7246094 h 2.367187 q 0.785157,0 1.330079,0.1347656 0.544921,0.1289063 0.966796,0.4101563 0.498047,0.3339844 0.767579,0.8320313 0.27539,0.4980468 0.27539,1.2597656 z m -1.207031,0.029297 q 0,-0.4511719 -0.158203,-0.7851563 -0.158203,-0.3339844 -0.480469,-0.5449219 -0.28125,-0.1816406 -0.644531,-0.2578125 -0.357422,-0.082031 -0.908203,-0.082031 h -1.148438 v 3.4863281 h 0.978516 q 0.703125,0 1.142578,-0.1230469 0.439453,-0.1289062 0.714844,-0.4042968 0.27539,-0.28125 0.386718,-0.5917969 0.117188,-0.3105469 0.117188,-0.6972658 z"
       id="path24" />
    <path
       d="m 73.21875,0 h -3.445313 v -0.890625 h 1.142579 v -6.9433594 h -1.142579 v -0.890625 h 3.445313 v 0.890625 h -1.142578 v 6.9433594 h 1.142578 z"
       id="path26" />
    <path
       d="M 86.291016,-8.7246094 83.115234,0 h -1.546875 l -3.175781,-8.7246094 h 1.242188 l 2.736328,7.6757813 2.736328,-7.6757813 z"
       id="path28" />
    <path
       d="m 92.419922,-3.1582031 h -4.822266 q 0,0.6035156 0.181641,1.0546875 0.18164,0.4453125 0.498047,0.7324219 0.304687,0.28125 0.720703,0.42187495 0.421875,0.140625 0.925781,0.140625 0.667969,0 1.341797,-0.26367185 0.679687,-0.2695313 0.966797,-0.5273438 h 0.05859 v 1.2011719 q -0.556641,0.234375 -1.136719,0.39257812 -0.580078,0.15820313 -1.21875,0.15820313 -1.628906,0 -2.542969,-0.87890625 -0.914062,-0.8847656 -0.914062,-2.5078125 0,-1.6054687 0.873046,-2.5488281 0.878907,-0.9433594 2.308594,-0.9433594 1.324219,0 2.039063,0.7734375 0.720703,0.7734375 0.720703,2.1972656 z m -1.072266,-0.84375 q -0.0059,-0.8671875 -0.439453,-1.3417969 -0.427734,-0.4746094 -1.306641,-0.4746094 -0.884765,0 -1.412109,0.5214844 -0.521484,0.5214844 -0.591797,1.2949219 z"
       id="path30" />
    <path
       d="m 98.173828,-5.34375 h -0.05859 q -0.246093,-0.058594 -0.480468,-0.082031 -0.228516,-0.029297 -0.544922,-0.029297 -0.509766,0 -0.984375,0.2285156 -0.47461,0.2226563 -0.914063,0.5800781 V 0 h -1.101562 v -6.5449219 h 1.101562 v 0.9667969 q 0.65625,-0.5273437 1.154297,-0.7441406 0.503906,-0.2226563 1.025391,-0.2226563 0.287109,0 0.416015,0.017578 0.128907,0.011719 0.386719,0.052734 z"
       id="path32" />
    <path
       d="m 103.88672,-1.8867187 q 0,0.89648432 -0.74414,1.47070307 -0.73828,0.57421875 -2.02149,0.57421875 -0.72656,0 -1.335934,-0.16992187 Q 99.181641,-0.1875 98.771484,-0.39257813 V -1.6289062 h 0.05859 q 0.521484,0.3925781 1.160156,0.6269531 0.63868,0.2285156 1.22461,0.2285156 0.72657,0 1.13672,-0.234375 0.41016,-0.234375 0.41016,-0.7382812 0,-0.3867188 -0.22266,-0.5859376 -0.22265,-0.1992187 -0.85547,-0.3398437 -0.23437,-0.052734 -0.61523,-0.1230469 -0.375,-0.070312 -0.68555,-0.1523437 -0.86133,-0.2285157 -1.224611,-0.6679688 -0.357422,-0.4453125 -0.357422,-1.0898437 0,-0.4042969 0.164063,-0.7617188 0.169922,-0.3574218 0.509765,-0.6386718 0.328125,-0.2753907 0.832035,-0.4335938 0.50977,-0.1640625 1.13672,-0.1640625 0.58594,0 1.18359,0.1464844 0.60352,0.140625 1.00196,0.3457031 v 1.1777344 h -0.0586 q -0.42187,-0.3105469 -1.02539,-0.5214844 -0.60351,-0.2167969 -1.18359,-0.2167969 -0.60352,0 -1.01953,0.234375 -0.416023,0.2285157 -0.416023,0.6855469 0,0.4042969 0.251953,0.609375 0.2461,0.2050781 0.79688,0.3339844 0.30469,0.070312 0.67969,0.140625 0.38086,0.070312 0.63281,0.1289062 0.76758,0.1757813 1.18359,0.6035156 0.41602,0.4335938 0.41602,1.1484376 z"
       id="path34" />
    <path
       d="m 106.64648,-7.640625 h -1.24218 v -1.1425781 h 1.24218 z M 106.57617,0 h -1.10156 v -6.5449219 h 1.10156 z"
       id="path36" />
    <path
       d="m 114.33398,-3.2695313 q 0,1.5996094 -0.82031,2.52539068 -0.82031,0.92578124 -2.19726,0.92578124 -1.38868,0 -2.20899,-0.92578124 -0.81445,-0.92578128 -0.81445,-2.52539068 0,-1.5996093 0.81445,-2.5253906 0.82031,-0.9316406 2.20899,-0.9316406 1.37695,0 2.19726,0.9316406 0.82031,0.9257813 0.82031,2.5253906 z m -1.13671,0 q 0,-1.2714843 -0.49805,-1.8867187 -0.49805,-0.6210937 -1.38281,-0.6210937 -0.89649,0 -1.39453,0.6210937 -0.49219,0.6152344 -0.49219,1.8867187 0,1.2304688 0.49804,1.8691407 0.49805,0.63281248 1.38868,0.63281248 0.8789,0 1.37695,-0.62695308 0.50391,-0.6328126 0.50391,-1.8750001 z"
       id="path38" />
    <path
       d="m 121.51172,0 h -1.10156 v -3.7265625 q 0,-0.4511719 -0.0527,-0.84375 -0.0527,-0.3984375 -0.19336,-0.6210937 -0.14648,-0.2460938 -0.42187,-0.3632813 -0.27539,-0.1230469 -0.71485,-0.1230469 -0.45117,0 -0.94336,0.2226563 -0.49218,0.2226562 -0.94335,0.5683594 V 0 h -1.10157 v -6.5449219 h 1.10157 v 0.7265625 q 0.51562,-0.4277343 1.0664,-0.6679687 0.55078,-0.2402344 1.13086,-0.2402344 1.06055,0 1.61719,0.6386719 0.55664,0.6386719 0.55664,1.8398437 z"
       id="path40" />
    <path
       d="m 133.61719,0 h -5.90625 v -1.2246094 q 0.61523,-0.5273437 1.23047,-1.0546875 0.62109,-0.5273437 1.15429,-1.0488281 1.125,-1.0898437 1.54102,-1.7285156 0.41601,-0.6445313 0.41601,-1.3886719 0,-0.6796875 -0.45117,-1.0605469 -0.44531,-0.3867187 -1.24804,-0.3867187 -0.53321,0 -1.1543,0.1875 -0.6211,0.1875 -1.21289,0.5742187 h -0.0586 v -1.2304687 q 0.41602,-0.2050782 1.10743,-0.375 0.69726,-0.1699219 1.34765,-0.1699219 1.3418,0 2.10352,0.6503906 0.76172,0.6445313 0.76172,1.7519532 0,0.4980468 -0.12891,0.9316406 -0.12305,0.4277344 -0.36914,0.8144531 -0.22852,0.3632813 -0.53906,0.7148438 -0.30469,0.3515624 -0.74414,0.7792968 -0.62696,0.6152344 -1.29493,1.1953125 -0.66796,0.5742188 -1.24804,1.0664063 h 4.69336 z"
       id="path42" />
  </g>
</svg>
