<?xml version="1.0" encoding="UTF-8" standalone="no"?>
<!-- Created with Inkscape (http://www.inkscape.org/) -->

<svg
   version="1.1"
   id="svg182"
   width="852"
   height="153.60001"
   viewBox="0 0 852 153.60001"
   sodipodi:docname="open-sdg.svg"
   inkscape:version="1.2.2 (b0a84865, 2022-12-01)"
   xmlns:inkscape="http://www.inkscape.org/namespaces/inkscape"
   xmlns:sodipodi="http://sodipodi.sourceforge.net/DTD/sodipodi-0.dtd"
   xmlns="http://www.w3.org/2000/svg"
   xmlns:svg="http://www.w3.org/2000/svg">
  <defs
     id="defs186" />
  <sodipodi:namedview
     id="namedview184"
     pagecolor="#ffffff"
     bordercolor="#666666"
     borderopacity="1.0"
     inkscape:showpageshadow="2"
     inkscape:pageopacity="0.0"
     inkscape:pagecheckerboard="0"
     inkscape:deskcolor="#d1d1d1"
     showgrid="false"
     inkscape:zoom="0.9983453"
     inkscape:cx="427.2069"
     inkscape:cy="85.140883"
     inkscape:window-width="1680"
     inkscape:window-height="874"
     inkscape:window-x="0"
     inkscape:window-y="25"
     inkscape:window-maximized="0"
     inkscape:current-layer="g188" />
  <g
     inkscape:groupmode="layer"
     inkscape:label="Image"
     id="g188">
    <g
       id="g363">
      <path
         style="fill:#fdfdfd;stroke-width:0.4"
         d="M 0,76.800005 V 0 H 426 852 V 76.800005 153.60001 H 426 0 Z m 290.4,54.741975 v -18.85802 l 2.14224,2.02605 c 4.40885,4.1697 9.5411,6.61815 15.22658,7.26418 9.54752,1.08487 19.50038,-2.68729 26.48172,-10.03663 12.74227,-13.413954 14.14918,-42.288259 2.84252,-58.337557 -4.04812,-5.74612 -9.66418,-9.705876 -16.57339,-11.685504 -2.57597,-0.738068 -4.09565,-0.891712 -8.71967,-0.881584 -4.99858,0.01096 -5.95043,0.128592 -8.86296,1.09538 -4.16851,1.3837 -7.36715,3.531936 -10.91418,7.33006 L 289.2,52.481047 v -5.04052 -5.040524 h -6 -6 v 54.000003 54.000004 h 6.6 6.6 z m 14.75699,-20.92176 c -4.83526,-1.33343 -9.97699,-5.64202 -12.24681,-10.26241 -4.38589,-8.92782 -4.86741,-24.214245 -1.07972,-34.277214 3.70866,-9.853016 12.80892,-16.031269 21.43455,-14.552137 4.02547,0.690292 6.87776,2.223676 10.17777,5.471545 5.74844,5.65762 8.16905,14.051573 7.6131,26.400001 -0.50693,11.259401 -2.96878,17.970485 -8.37537,22.831465 -4.75494,4.27511 -11.66243,6.00508 -17.52352,4.38875 z M 77.563696,137.99063 c 1.630036,-0.21158 3.050164,-0.47115 3.155844,-0.57683 0.159684,-0.15968 -5.062828,-28.39753 -5.256504,-28.42164 -0.03468,-0.004 -2.268392,0.0558 -4.963828,0.13352 -4.64618,0.13402 -4.910572,0.18638 -5.089064,1.00784 -0.915072,4.2114 -4.70918,25.17716 -4.75336,26.26649 -0.05644,1.39157 -0.04474,1.40143 1.943216,1.63716 3.297816,0.39105 11.79598,0.36462 14.963696,-0.0465 z M 58.78192,123.10001 c 1.392336,-7.535 2.550992,-13.9291 2.5748,-14.20911 0.0254,-0.29856 -1.445508,-1.01144 -3.55672,-1.7238 -1.98,-0.66808 -3.994628,-1.47134 -4.476952,-1.78501 -0.806292,-0.52437 -0.939076,-0.48217 -1.648044,0.5238 C 50.030824,108.23884 37.2,129.15908 37.2,129.50692 c 0,0.8823 11.762188,5.72928 17,7.00538 2.097612,0.51105 1.904896,1.07517 4.58192,-13.41229 z M 92,134.71302 c 3.138712,-1.01485 7.057776,-2.74442 9.89007,-4.36469 l 2.09007,-1.19567 -1.06649,-1.67633 c -1.20367,-1.89192 -5.275502,-8.46207 -10.61457,-17.12721 l -3.605048,-5.85089 -2.447016,1.09703 c -1.34586,0.60337 -3.402384,1.40918 -4.570056,1.79069 -1.970296,0.64375 -2.107068,0.76993 -1.901032,1.75386 0.122104,0.58311 0.768972,4.0302 1.437484,7.6602 1.734712,9.41945 3.576188,18.91837 3.777196,19.48399 0.181484,0.51068 1.451896,0.22595 7.009392,-1.57098 z m -57.287273,-9.41301 c 0.657869,-1.045 2.860985,-4.6 4.895816,-7.9 2.034829,-3.3 4.845337,-7.83526 6.245573,-10.07836 1.400236,-2.2431 2.545884,-4.24641 2.545884,-4.45182 0,-0.2054 -0.855,-1.06436 -1.9,-1.90881 -1.045,-0.84445 -2.557632,-2.24205 -3.361408,-3.10579 -0.883496,-0.949404 -1.691612,-1.482096 -2.043532,-1.347052 -0.320168,0.12286 -5.237782,3.766772 -10.928032,8.097572 -5.690251,4.33081 -10.681188,8.10903 -11.090972,8.39605 -0.570631,0.39968 -0.652462,0.69468 -0.349531,1.26004 1.130149,2.10917 13.268098,12.93817 14.502072,12.93817 0.158404,0 0.826262,-0.855 1.48413,-1.9 z M 110.6,124.72041 c 3.00224,-2.22156 11.9163,-10.99277 11.71897,-11.53117 -0.0654,-0.17853 -5.29163,-4.2262 -11.61377,-8.99483 l -11.494812,-8.67024 -1.9865,2.173548 c -1.092576,1.195452 -2.623684,2.607512 -3.40246,3.137922 -0.77878,0.5304 -1.417192,1.18127 -1.418696,1.44639 -0.0032,0.58824 14.775738,24.51954 15.139008,24.51413 0.14204,-0.002 1.51826,-0.9362 3.05826,-2.07575 z m 475.0576,-1.92863 c 16.17832,-1.59436 26.47968,-7.80319 31.92716,-19.24315 2.0204,-4.242936 2.79808,-7.207508 3.09192,-11.78668 0.3702,-5.768744 -0.89884,-12.600493 -3.18624,-17.152709 -1.82932,-3.640652 -5.98764,-8.212921 -9.89044,-10.875077 -4.74528,-3.236824 -12.91204,-6.225072 -26,-9.513528 -13.8246,-3.473537 -19.55808,-5.818569 -21.7262,-8.886165 -3.22896,-4.568464 -1.61724,-9.927185 3.80308,-12.644703 6.02976,-3.023063 16.05644,-3.474906 22.61956,-1.019331 4.2434,1.587664 7.6074,5.781822 9.03804,11.268402 0.33544,1.28636 0.6674,2.394348 0.73768,2.462196 0.0703,0.06785 4.9662,-0.07425 10.87976,-0.315768 l 10.75192,-0.439132 -0.23288,-2.823068 C 616.32848,27.972185 607.03984,17.439728 592.7966,13.844641 585.48532,11.99923 575.09964,11.48504 567.4,12.587272 c -12.53,1.793717 -21.1784,6.864824 -26.17664,15.34899 -6.49928,11.032147 -4.74136,24.828093 4.3374,34.039526 5.75212,5.836148 11.8076,8.484241 30.76944,13.455661 11.83512,3.102936 16.03784,4.578472 18.77592,6.592068 3.7954,2.791157 4.87356,8.687997 2.46848,13.500973 -2.05832,4.119016 -6.04292,7.0185 -11.47104,8.34711 -3.402,0.83269 -11.80952,0.93308 -14.90356,0.17795 -8.2016,-2.00169 -13.35468,-7.40326 -15.83096,-16.59434 -0.48236,-1.79036 -1.03272,-3.233357 -1.22304,-3.206649 -0.19028,0.02672 -4.891,0.465213 -10.446,0.974461 l -10.1,0.925904 v 1.129772 c 0,0.62138 0.35812,2.737556 0.79584,4.70262 2.66544,11.966262 8.438,20.343952 17.58172,25.516242 8.20368,4.64056 20.57692,6.58552 33.68004,5.29422 z m 218.8,-0.0114 c 8.69412,-0.88077 17.65176,-3.4413 25.91412,-7.40746 4.651,-2.23262 9.97932,-5.5861 12.32828,-7.75902 l 1.3,-1.20259 V 85.005634 63.599992 h -23.4 -23.4 v 9.000001 9 h 12.4 12.4 v 6.906017 6.906016 l -3.314,2.087236 c -11.06228,6.967308 -23.35468,8.731818 -33.74572,4.844038 -3.07308,-1.14979 -7.76648,-4.395254 -10.02492,-6.932182 -5.65896,-6.356824 -8.32496,-14.318981 -8.7882,-26.246673 -0.83108,-21.399246 7.1642,-34.424422 23.1588,-37.728199 5.77872,-1.193624 13.13896,-0.748577 18.19504,1.100187 5.57896,2.03996 11.08744,7.829346 12.90548,13.563558 0.26156,0.825 0.6866,1.490892 0.94456,1.479764 1.2152,-0.05244 20.67952,-3.856996 20.9096,-4.08706 0.75776,-0.757788 -2.26688,-8.769115 -4.9232,-13.039877 -5.76444,-9.267915 -14.40668,-14.800233 -27.0964,-17.345716 -5.9752,-1.198588 -20.02896,-1.295858 -25.62104,-0.177331 -7.75464,1.551077 -12.41832,3.411405 -18.3172,7.306636 -11.377,7.512627 -18.95456,19.492956 -21.73492,34.363585 -1.12932,6.040188 -1.03812,20.432301 0.16476,26.000001 2.5258,11.690709 7.20936,20.949327 14.07216,27.818277 10.94528,10.95512 27.60168,16.19281 45.6728,14.36207 z M 215.21049,121.9919 c 12.02827,-1.44837 21.72936,-5.86291 29.6549,-13.49462 C 258.08535,95.767366 263.70635,73.683093 259.20856,52.144523 254.80152,31.04051 240.92237,16.670571 220.6,12.170696 c -1.54,-0.340995 -5.77,-0.719898 -9.4,-0.842008 -7.64603,-0.257205 -13.76408,0.557463 -19.74216,2.628829 -15.65582,5.424645 -27.04392,18.175939 -31.25576,34.997202 -6.31498,25.220734 0.89715,50.360391 18.18458,63.386871 10.0285,7.55669 23.93802,11.20191 36.82383,9.65027 z m -12.67386,-12.55545 c -6.08267,-1.16365 -11.46607,-3.62188 -15.84905,-7.23716 -7.66856,-6.325388 -12.2083,-15.233384 -13.54968,-26.587585 -0.56919,-4.818012 -0.20634,-16.626705 0.656,-21.348325 0.69656,-3.813929 2.59914,-9.882237 3.9076,-12.463337 4.10162,-8.090942 12.38995,-14.503022 22.2985,-17.250726 2.02256,-0.560869 4.11022,-0.724137 9.4,-0.735136 7.64307,-0.01589 9.50315,0.349108 15.25066,2.992613 8.00124,3.68009 14.52402,10.903199 17.87416,19.793249 4.98959,13.240545 4.30611,32.606822 -1.56326,44.294839 -3.51529,7.000192 -11.16453,14.119708 -17.76156,16.531528 -6.28204,2.29666 -14.82249,3.12744 -20.66337,2.01004 z m 194.9079,12.56329 c 5.18723,-0.45923 10.45423,-1.88219 14.14059,-3.8203 6.9288,-3.64286 12.45584,-10.38934 15.21052,-18.566478 0.46436,-1.37846 0.79032,-2.547752 0.72432,-2.598428 -0.066,-0.05067 -2.81996,-0.403552 -6.11996,-0.784176 -3.3,-0.380624 -6.29108,-0.772696 -6.64688,-0.871272 -0.48252,-0.133692 -1.12,0.774036 -2.50876,3.57238 -4.38352,8.832614 -11.08316,12.789264 -20.57176,12.149194 -9.06625,-0.61157 -15.8348,-5.74594 -19.39882,-14.71521 C 371.29155,93.893506 370,87.862398 370,85.74761 v -0.947604 h 29 29 l -0.0124,-4.100001 c -0.0606,-20.115245 -9.53512,-34.351234 -25.78764,-38.74723 -2.59901,-0.70298 -4.36442,-0.871284 -9.4,-0.89612 -6.80063,-0.03356 -9.3159,0.402028 -14.64592,2.536272 -11.70179,4.685624 -19.44042,15.661221 -21.39524,30.344602 -0.59103,4.439476 -0.22303,16.484985 0.6163,20.172725 0.84739,3.723156 3.01526,9.366796 4.65812,12.126536 1.73772,2.91909 7.05655,8.35176 10.14446,10.36158 4.32507,2.81504 10.59131,4.84985 16.57774,5.3832 1.8945,0.16879 3.62454,0.33045 3.84454,0.35924 0.22,0.0288 2.40004,-0.12471 4.84453,-0.34111 z M 370.80694,73.100005 c 0.0166,-2.14762 1.29496,-6.729453 2.6506,-9.500001 2.59807,-5.309696 8.24822,-9.900505 13.74246,-11.165885 3.09505,-0.712824 9.20229,-0.530928 12.08672,0.35998 8.14428,2.515513 13.13552,9.158421 14.50572,19.305906 l 0.25656,1.9 H 392.42451 370.8 l 0.007,-0.9 z M 690.94836,120.5984 c 6.98536,-0.9157 14.28756,-3.59516 19.44676,-7.13578 8.0824,-5.54672 15.10108,-17.91327 17.40264,-30.662615 0.93076,-5.155792 1.2518,-18.153613 0.60968,-24.683981 C 727.15368,45.365267 723.17328,35.142699 716.38612,27.242523 710.18252,20.021597 702.13372,15.875927 691.4,14.373007 689.47472,14.103431 678.36084,13.842763 663.5,13.718633 L 638.8,13.51232 v 53.843844 53.843846 h 23.77952 c 18.86472,0 24.72804,-0.12434 28.36884,-0.60161 z M 660.8,67.600004 V 32.000002 l 7.5,0.0059 c 18.57548,0.01469 24.36752,1.244874 29.80408,6.330134 5.30384,4.961135 7.72168,12.611055 8.1746,25.863936 0.49632,14.523653 -1.63908,25.475306 -6.16272,31.606242 -1.62528,2.202752 -4.99168,4.428186 -8.4878,5.611006 -3.64528,1.23328 -10.43508,1.77433 -22.32816,1.77924 l -8.5,0.004 z M 457.21168,99.700006 c 0.012,-21.517517 0.32708,-29.034273 1.387,-33.100002 1.75724,-6.74056 5.53132,-10.80158 12.15788,-13.082201 3.77328,-1.298616 10.42392,-1.281524 13.75636,0.03536 4.49028,1.774433 7.18832,4.693245 8.58416,9.286581 0.575,1.8922 0.67424,5.597568 0.79988,29.86027 l 0.14344,27.700006 h 6.5798 6.5798 V 91.58315 c 0,-32.314238 -0.006,-32.396974 -2.79568,-38.183139 -0.85816,-1.780028 -2.31076,-3.980452 -3.27352,-4.9588 -5.1034,-5.186008 -13.5612,-8.03288 -22.3308,-7.51648 -8.78688,0.51742 -15.42012,3.725516 -20.66172,9.992868 L 456.2,53.235187 456.08872,47.817599 455.97744,42.400011 H 449.98872 444 v 39.000002 39.000007 h 6.6 6.6 l 0.0116,-20.700006 z M 38.681652,93.021918 C 38.774624,92.962842 34.485799,84.352469 34.24193,84.108601 34.0941,83.960773 7.345988,91.496086 6.7139948,91.863602 5.9120412,92.329958 10.499149,102.53984 13.810227,107.65825 l 1.797385,2.77847 11.496194,-8.68146 c 6.322907,-4.774802 11.532938,-8.704806 11.577846,-8.733342 z m 87.500968,14.932602 c 2.86346,-4.32697 7.98864,-15.536074 7.37312,-16.125502 -0.22946,-0.21974 -26.99122,-7.829013 -27.53458,-7.829013 -0.25452,0 -0.66436,0.585001 -0.91074,1.300001 -0.24639,0.715 -1.10663,2.577932 -1.91164,4.139852 l -1.46367,2.839848 11.43245,8.633984 c 6.28784,4.74869 11.54352,8.64576 11.67928,8.66015 0.13577,0.0144 0.73687,-0.7143 1.33578,-1.61932 z M 19.566693,83.805817 c 7.351681,-2.093224 13.434227,-3.8734 13.51677,-3.95594 0.08254,-0.08254 -0.03611,-1.297532 -0.263671,-2.699976 -0.227562,-1.402444 -0.415108,-3.573868 -0.41677,-4.825388 L 32.4,70.049025 30.7,69.830129 C 28.104998,69.495997 5.5588648,67.592948 4.2397416,67.5967 L 3.0794832,67.6 3.3154087,73.700001 c 0.1996265,5.161468 0.9239961,10.863541 1.7250989,13.579589 0.1102452,0.373776 0.4162312,0.6014 0.6799692,0.50584 0.2637376,-0.09556 6.4945352,-1.886388 13.8462162,-3.979617 z m 116.230177,0.294188 c 0.37683,-1.928204 0.77939,-6.433616 0.8964,-10.032432 l 0.2124,-6.532433 -1.75283,0.237068 C 134.18878,67.902596 128.36,68.45754 122.2,69.00542 c -6.16,0.547881 -11.93922,1.092957 -12.84271,1.211285 l -1.64271,0.215136 -0.24045,3.884084 c -0.13224,2.136244 -0.34724,4.24408 -0.47778,4.68408 -0.21959,0.740196 0.77339,1.089904 13.28316,4.678048 7.43627,2.132925 13.81589,3.887925 14.17692,3.900001 0.51051,0.01708 0.80849,-0.756116 1.34044,-3.478049 z m 0.54492,-20.708453 C 136.974,62.759336 133.06293,48.439215 131.3469,45.103123 l -0.56422,-1.096884 -12.89134,6.441228 c -7.09024,3.542677 -12.94293,6.487861 -13.00598,6.544857 -0.0631,0.05699 0.34195,1.463772 0.9,3.12618 0.55805,1.662404 1.01464,3.2941 1.01464,3.625988 0,0.331888 0.16154,1.028312 0.35897,1.547604 l 0.35898,0.944176 14.31458,-1.325024 c 7.87302,-0.728764 14.40219,-1.412628 14.50926,-1.519696 z M 33.023397,64.900004 c 0.252673,-1.164688 1.921926,-6.622332 2.38347,-7.792784 0.229883,-0.582972 -1.795678,-1.717 -12.779042,-7.154465 C 15.4491,46.398831 9.5142816,43.560583 9.43934,43.645539 9.3643984,43.730495 8.6675076,45.420003 7.8906936,47.400003 6.1836912,51.750935 4.5151332,57.775352 4.157422,60.879176 3.9070887,63.051292 3.9394962,63.167908 4.8473756,63.3619 5.3713188,63.473856 11.56,64.034512 18.6,64.607804 c 7.04,0.573292 12.98,1.106852 13.2,1.185696 0.828052,0.296748 0.990998,0.17774 1.223397,-0.893496 z M 116.00242,46.798791 C 123.04109,43.278123 128.8,40.285919 128.8,40.149447 c 0,-0.581621 -3.8665,-6.573362 -5.90418,-9.149445 -2.41896,-3.058119 -5.7098,-6.6 -6.13218,-6.6 -0.24054,0 -16.43346,17.395481 -18.696764,20.085261 l -0.939684,1.116752 1.567668,1.898996 c 0.862216,1.044444 2.14724,2.753992 2.85562,3.798992 0.70837,1.045 1.3704,1.9 1.47116,1.9 0.10076,0 5.94212,-2.880544 12.98078,-6.401212 z M 41.042316,47.992383 43.484628,44.977187 33.991069,34.588594 C 28.769611,28.874868 24.230254,24.146557 23.903608,24.081236 23.073717,23.915278 17.703928,30.1572 14.371344,35.16168 12.847105,37.450603 11.6,39.436487 11.6,39.574757 c 0,0.138269 5.805,3.155974 12.9,6.70601 12.826834,6.418 12.903403,6.449708 13.5,5.590712 0.33,-0.475144 1.699042,-2.220736 3.042316,-3.879096 z m 64.148244,-17.392381 8.43259,-9.200001 -1.51157,-1.335574 c -3.31034,-2.924889 -13.805068,-9.241996 -15.380076,-9.257743 -0.4876,-0.0049 -1.206888,1.373389 -2.6581,5.093317 C 88.05026,31.339246 86,36.772854 86,37.29617 c 0,0.320283 0.675,0.89045 1.5,1.267037 0.825,0.376587 2.58,1.46144 3.9,2.410784 l 2.4,1.72608 1.47898,-1.450036 c 0.813436,-0.797516 5.27365,-5.590033 9.91158,-10.650033 z M 49.280836,40.651407 C 50.666376,39.68968 52.43,38.586788 53.2,38.200537 53.97,37.814285 54.654,37.452155 54.719996,37.395802 54.827064,37.304384 53.242264,33.16766 46.325832,15.484929 44.081256,9.7463938 44.440668,9.9785158 40.706076,11.855462 35.372734,14.535917 27.4,19.92648 27.4,20.852032 c 0,0.290672 18.95602,21.458007 19.280836,21.530043 0.04446,0.0099 1.21446,-0.76894 2.6,-1.730668 z m 13.854352,-5.683836 c 1.614352,-0.312163 3.459352,-0.567569 4.1,-0.567569 H 68.4 V 19.740104 5.0802063 L 64.9,5.3290727 C 60.518728,5.640602 55.565452,6.551214 51.335264,7.8228173 l -3.264736,0.9813865 2.10148,5.2978992 c 1.155816,2.913844 3.500592,8.897898 5.210616,13.297899 1.710024,4.4 3.196696,8.147272 3.303716,8.32727 0.10702,0.179998 0.491372,0.210404 0.85412,0.06757 0.362748,-0.142835 1.980376,-0.515107 3.594728,-0.827269 z m 21.877576,-7.067569 c 1.715908,-4.455 4.070916,-10.530001 5.233352,-13.500001 L 92.35964,9.0000006 89.67982,8.0897833 C 86.046504,6.855706 80.090732,5.6731348 75.878064,5.3493235 L 72.4,5.0819783 V 19.689324 34.296669 l 2.3,0.288432 c 1.265,0.158637 3.11,0.518378 4.1,0.799423 0.99,0.281046 2.090912,0.534502 2.446468,0.563236 0.48476,0.03918 1.426872,-1.973918 3.766296,-8.047758 z"
         id="path379" />
      <path
         style="fill:#e59f22;stroke-width:0.4"
         d="m 62.6,138.03717 c -1.987956,-0.23573 -1.99966,-0.24559 -1.943216,-1.63716 0.04418,-1.08933 3.838288,-22.05509 4.75336,-26.26649 0.178492,-0.82146 0.442884,-0.87382 5.089064,-1.00784 2.695436,-0.0778 4.92916,-0.13784 4.963828,-0.13352 0.193676,0.0241 5.416188,28.26196 5.256504,28.42164 -0.786028,0.78603 -13.158264,1.21167 -18.11954,0.62337 z M 29.970295,124.98882 c -3.058141,-2.27658 -10.541109,-9.41562 -11.24377,-10.72698 -0.302931,-0.56536 -0.2211,-0.86036 0.349531,-1.26004 0.409784,-0.28702 5.400721,-4.06524 11.090972,-8.39605 5.69025,-4.3308 10.607864,-7.974712 10.928032,-8.097572 0.35192,-0.135044 1.160036,0.397648 2.043532,1.347052 0.803776,0.86374 2.316408,2.26134 3.361408,3.10579 1.045,0.84445 1.9,1.70341 1.9,1.90881 0,0.20541 -1.145648,2.20872 -2.545884,4.45182 -1.400236,2.2431 -4.210744,6.77836 -6.245573,10.07836 -5.586292,9.05961 -6.068299,9.8 -6.379946,9.8 -0.158403,0 -1.624639,-0.99504 -3.258302,-2.21119 z M 99.84174,114.78203 c -4.092956,-6.60989 -7.440512,-12.23489 -7.439008,-12.5 0.0016,-0.26512 0.639916,-0.91599 1.418696,-1.44639 0.778776,-0.53041 2.309884,-1.94247 3.40246,-3.137922 l 1.9865,-2.173548 11.494812,8.67024 c 6.32214,4.76863 11.54834,8.8163 11.61377,8.99483 0.32889,0.89732 -13.45241,13.5872 -14.77723,13.60692 -0.14204,0.002 -3.60704,-5.40424 -7.7,-12.01413 z M 13.810227,107.65825 C 10.499149,102.53984 5.9120412,92.329958 6.7139948,91.863602 7.345988,91.496086 34.0941,83.960773 34.24193,84.108601 c 0.243869,0.243868 4.532694,8.854241 4.439722,8.913317 -0.04491,0.02852 -5.254939,3.95854 -11.577846,8.733342 l -11.496194,8.68146 z M 136.03158,80.966673 c 0.0192,-0.46598 0.11398,-0.56076 0.24166,-0.241668 0.11555,0.288748 0.10134,0.633748 -0.0316,0.766668 -0.13291,0.132916 -0.22745,-0.103336 -0.21008,-0.525 z M 106.8,79.400005 c 0,-0.33 0.0707,-0.6 0.1572,-0.6 0.0865,0 0.26082,0.27 0.38745,0.6 0.12663,0.33 0.0559,0.6 -0.1572,0.6 -0.2131,0 -0.38745,-0.27 -0.38745,-0.6 z m 29.6928,-2.2 c 0,-0.77 0.0823,-1.085 0.18293,-0.7 0.10061,0.385 0.10061,1.015 0,1.4 -0.10061,0.385 -0.18293,0.07 -0.18293,-0.7 z m -29.26122,-0.233332 c 0.0192,-0.46598 0.11398,-0.56076 0.24166,-0.241668 0.11555,0.288748 0.10134,0.633748 -0.0316,0.766668 -0.13291,0.132916 -0.22745,-0.103336 -0.21008,-0.525 z m 0.48282,-4.766668 c 0.003,-1.1 0.0807,-1.502524 0.17263,-0.8945 0.092,0.608024 0.0895,1.508024 -0.005,2 -0.0949,0.491976 -0.17017,-0.0055 -0.16717,-1.1055 z M 109.7,70.124273 c 0.385,-0.100608 1.015,-0.100608 1.4,0 0.385,0.100612 0.07,0.182932 -0.7,0.182932 -0.77,0 -1.085,-0.08232 -0.7,-0.182932 z m 4.40761,-0.401464 c 0.38919,-0.101416 0.92919,-0.09475 1.2,0.01484 0.27081,0.109572 -0.0476,0.192548 -0.70761,0.184396 -0.66,-0.0082 -0.88158,-0.0978 -0.49239,-0.199216 z m 4.4,-0.4 c 0.38919,-0.101416 0.92919,-0.09475 1.2,0.01484 0.27081,0.109572 -0.0476,0.192548 -0.70761,0.184396 -0.66,-0.0082 -0.88158,-0.0978 -0.49239,-0.199216 z m 4.4,-0.400001 c 0.38919,-0.101416 0.92919,-0.09475 1.2,0.01484 0.27081,0.109572 -0.0476,0.192549 -0.70761,0.184397 -0.66,-0.0082 -0.88158,-0.0978 -0.49239,-0.199217 z M 127.1,68.535092 c 0.275,-0.110964 0.725,-0.110964 1,0 0.275,0.110964 0.05,0.201756 -0.5,0.201756 -0.55,0 -0.775,-0.09079 -0.5,-0.201756 z m 4,-0.4 c 0.275,-0.110964 0.725,-0.110964 1,0 0.275,0.110964 0.05,0.201756 -0.5,0.201756 -0.55,0 -0.775,-0.09079 -0.5,-0.201756 z m 4.4,-0.4 c 0.275,-0.110964 0.725,-0.110964 1,0 0.275,0.110964 0.05,0.201756 -0.5,0.201756 -0.55,0 -0.775,-0.09079 -0.5,-0.201756 z M 91.4,40.973991 C 90.08,40.024647 88.325,38.939794 87.5,38.563207 86.675,38.18662 86,37.616453 86,37.29617 c 0,-0.523316 2.05026,-5.956924 8.073404,-21.396169 1.451212,-3.719928 2.1705,-5.098192 2.6581,-5.093317 1.575008,0.01575 12.069736,6.332854 15.380076,9.257743 l 1.51157,1.335574 -8.43259,9.200001 c -4.63793,5.06 -9.098144,9.852517 -9.91158,10.650033 L 93.8,42.700071 Z M 75.925,5.3267547 c 0.288748,-0.1155484 0.633748,-0.1013376 0.766668,0.03158 0.132916,0.1329169 -0.103336,0.2274565 -0.525,0.2100881 C 75.700688,5.5492308 75.605908,5.4544464 75.925,5.3267559 Z"
         id="path377" />
      <path
         style="fill:#09abd5;stroke-width:0.4"
         d="m 113.16756,100.91369 -11.43245,-8.633984 1.46367,-2.839848 c 0.80501,-1.56192 1.66525,-3.424852 1.91164,-4.139852 0.24638,-0.715 0.65622,-1.300001 0.91074,-1.300001 0.54336,0 27.30512,7.609273 27.53458,7.829013 0.82785,0.792768 -7.55215,17.867442 -8.7089,17.744822 -0.13576,-0.0144 -5.39144,-3.91146 -11.67928,-8.66015 z M 32.481468,65.218196 c 0.268537,-0.429996 0.544299,-0.72576 0.612806,-0.657252 0.237108,0.237108 -0.381349,1.43906 -0.740459,1.43906 -0.198327,0 -0.140883,-0.351812 0.127653,-0.781808 z M 28.5,65.324272 c 0.385,-0.100608 1.015,-0.100608 1.4,0 0.385,0.100612 0.07,0.182932 -0.7,0.182932 -0.77,0 -1.085,-0.08232 -0.7,-0.182932 z M 22.8,64.7882 c -0.419278,-0.279204 -0.05784,-0.320836 1.2,-0.138208 2.240539,0.3253 2.559988,0.551924 0.766667,0.543888 C 24.015,65.190512 23.13,65.007956 22.8,64.7882 Z m -4.215767,-0.413708 c -0.179067,-0.289736 0.228217,-0.33662 1.276393,-0.146936 2.042639,0.369652 2.194848,0.572448 0.429648,0.572448 -0.793684,0 -1.561402,-0.19148 -1.706041,-0.425512 z M 14.152111,64.077488 C 14.343628,63.767608 17.2,63.923436 17.2,64.243768 c 0,0.08593 -0.730623,0.156236 -1.623607,0.156236 -0.892983,0 -1.53391,-0.145132 -1.424282,-0.322516 z M 9.3442272,63.722444 c 0.2917896,-0.291792 3.5031568,-0.208388 3.8105068,0.09896 0.09823,0.09823 -0.781401,0.1786 -1.954734,0.1786 -1.173333,0 -2.0084312,-0.124904 -1.8557728,-0.27756 z M 5.7055,63.312972 c 0.6080248,-0.09194 1.5080248,-0.08948 2,0.0054 C 8.1974748,63.413356 7.7,63.48858 6.6,63.48558 5.5,63.48238 5.0974748,63.404892 5.7055,63.312952 Z M 4.1008732,61.800004 c 0.00444,-0.88 0.086354,-1.1929 0.1820312,-0.695336 0.095677,0.497564 0.092045,1.217564 -0.00807,1.6 -0.1001172,0.382436 -0.1783988,-0.02466 -0.1739592,-0.904664 z m 0.3771064,-2.8 c 0.00815,-0.66 0.097799,-0.881576 0.1992168,-0.492388 0.1014172,0.389188 0.094748,0.929188 -0.01482,1.2 -0.1095708,0.270812 -0.1925488,-0.04761 -0.1843968,-0.707612 z m 30.1989944,-0.6 c 0.147802,-0.55 0.274518,-1.312428 0.281592,-1.694284 0.0071,-0.38186 0.16509,-0.54206 0.351146,-0.356004 0.186057,0.186056 0.05934,0.948484 -0.281591,1.694288 -0.36896,0.807112 -0.511099,0.951216 -0.351147,0.356 z M 4.8315788,56.966672 c 0.019192,-0.46598 0.1139764,-0.56076 0.2416668,-0.241668 0.1155484,0.288748 0.1013376,0.633748 -0.03158,0.766668 -0.1329168,0.132916 -0.2274564,-0.103336 -0.210088,-0.525 z M 28.246633,53.207179 c -2.174352,-1.074652 -4.154352,-2.164164 -4.4,-2.421144 -0.378147,-0.395588 8.440164,3.815537 8.920034,4.259701 0.578642,0.535592 -1.088184,-0.142404 -4.520034,-1.838557 z M 20,49.000003 c -1.43,-0.748652 -2.42,-1.361184 -2.2,-1.361184 0.22,0 1.57,0.612532 3,1.361184 1.43,0.748652 2.42,1.361184 2.2,1.361184 -0.22,0 -1.57,-0.612532 -3,-1.361184 z m -12.4,-1 c 0,-0.22 0.1906232,-0.4 0.4236068,-0.4 0.2329836,0 0.3123608,0.18 0.1763932,0.4 -0.1359676,0.22 -0.3265904,0.4 -0.4236068,0.4 -0.097016,0 -0.1763932,-0.18 -0.1763932,-0.4 z m 0.4283484,-1 c 0,-0.22 0.2572432,-0.85 0.5716516,-1.4 0.3144084,-0.55 0.5716516,-0.82 0.5716516,-0.6 0,0.22 -0.2572432,0.85 -0.5716516,1.4 -0.3144084,0.55 -0.5716516,0.82 -0.5716516,0.6 z M 11.487577,44.766395 C 10.655745,44.327359 9.8007448,44.075935 9.5875772,44.207679 9.3744096,44.339427 9.2,44.256595 9.2,44.023611 c 0,-0.232984 0.1871708,-0.423608 0.4159352,-0.423608 0.5184488,0 3.5840648,1.546576 3.5840648,1.808128 0,0.261788 -0.0019,0.261084 -1.712423,-0.641736 z m 34.765399,-2.680676 c -0.106832,-0.17286 0.139328,-0.314288 0.547024,-0.314288 0.407696,0 0.653856,0.141428 0.547024,0.314288 -0.106828,0.172856 -0.352992,0.314284 -0.547024,0.314284 -0.194032,0 -0.440196,-0.141428 -0.547024,-0.314284 z m -4.09098,-4.585717 -0.761996,-0.9 0.9,0.761996 c 0.845776,0.716087 1.082096,1.038004 0.761996,1.038004 -0.0759,0 -0.480904,-0.405 -0.9,-0.9 z m -4.400001,-4.8 -0.761995,-0.9 0.9,0.761995 c 0.845778,0.716088 1.082096,1.038005 0.761995,1.038005 -0.0759,0 -0.480903,-0.405 -0.9,-0.9 z m -4,-4.4 -0.761995,-0.9 0.9,0.761995 c 0.845778,0.716087 1.082096,1.038005 0.761995,1.038005 -0.0759,0 -0.480903,-0.405 -0.9,-0.9 z m -4,-4.4 L 29,23.000001 l 0.9,0.761996 c 0.845778,0.716087 1.082096,1.038005 0.761995,1.038005 -0.0759,0 -0.480903,-0.405 -0.9,-0.9 z"
         id="path375" />
      <path
         style="fill:#e01784;stroke-width:0.4"
         d="m 54.2,136.5123 c -5.237812,-1.2761 -17,-6.12308 -17,-7.00538 0,-0.34784 12.830824,-21.26808 14.475004,-23.60103 0.708968,-1.00597 0.841752,-1.04817 1.648044,-0.5238 0.482324,0.31367 2.496952,1.11693 4.476952,1.78501 2.111212,0.71236 3.5821,1.42524 3.55672,1.7238 -0.0238,0.28001 -1.182464,6.67411 -2.5748,14.20911 -2.677024,14.48746 -2.484308,13.92334 -4.58192,13.41229 z m 27.03158,-19.14562 c 0.0192,-0.46598 0.113976,-0.56076 0.241664,-0.24167 0.115548,0.28875 0.10134,0.63375 -0.03156,0.76667 -0.13292,0.13291 -0.227456,-0.10334 -0.210088,-0.525 z m -1.6,-8.8 c 0.0192,-0.46598 0.113976,-0.56076 0.241664,-0.24167 0.115548,0.28875 0.10134,0.63375 -0.03156,0.76667 -0.13292,0.13291 -0.227456,-0.10334 -0.210088,-0.525 z M 119.525,64.92676 c 0.28875,-0.115548 0.63375,-0.10134 0.76667,0.03156 0.13291,0.132916 -0.10334,0.227456 -0.525,0.210088 -0.46598,-0.0192 -0.56076,-0.113976 -0.24167,-0.241664 z m 4.4,-0.4 c 0.28875,-0.115548 0.63375,-0.10134 0.76667,0.03156 0.13291,0.132916 -0.10334,0.227456 -0.525,0.210088 -0.46598,-0.0192 -0.56076,-0.113976 -0.24167,-0.241664 z m 3.975,-0.391668 c 0.275,-0.110964 0.725,-0.110964 1,0 0.275,0.110964 0.05,0.201756 -0.5,0.201756 -0.55,0 -0.775,-0.09079 -0.5,-0.201756 z m 4.4,-0.4 c 0.275,-0.110964 0.725,-0.110964 1,0 0.275,0.110964 0.05,0.201756 -0.5,0.201756 -0.55,0 -0.775,-0.09079 -0.5,-0.201756 z M 74.3,5.3350879 c 0.275,-0.1109648 0.725,-0.1109648 1,0 0.275,0.1109653 0.05,0.2017545 -0.5,0.2017545 -0.55,0 -0.775,-0.090789 -0.5,-0.2017545 z"
         id="path373" />
      <path
         style="fill:#d2332f;stroke-width:0.4"
         d="m 85.001412,135.90001 c -0.09542,-0.275 -0.81456,-3.92 -1.598104,-8.1 -0.783544,-4.18 -1.869828,-9.95654 -2.413968,-12.83676 -1.3383,-7.08385 -1.387968,-6.74077 1.093392,-7.55239 1.145504,-0.37467 2.93952,-1.11539 3.986704,-1.64604 1.047184,-0.53065 2.07692,-0.96481 2.288304,-0.96481 0.211384,0 1.063516,1.125 1.893624,2.5 0.830104,1.375 4.17844,6.78361 7.44074,12.01913 3.262296,5.23553 5.822366,9.69565 5.689036,9.91138 -0.48476,0.78437 -7.341016,3.93854 -12.029812,5.53424 -5.146892,1.75158 -6.078296,1.9181 -6.349916,1.13525 z M 127.4,85.57041 c -14.72545,-4.228085 -19.61207,-5.686565 -19.89476,-5.937881 -0.16212,-0.144124 -0.0837,-2.2804 0.17421,-4.747284 0.42991,-4.111664 0.53775,-4.48556 1.29476,-4.4891 0.45419,-0.002 6.31579,-0.53892 13.02579,-1.19288 6.71,-0.653965 12.785,-1.192229 13.5,-1.196145 l 1.3,-0.0071 v 3.157621 c 0,6.021128 -1.3668,16.076789 -2.2121,16.274513 -0.21334,0.0499 -3.4479,-0.787872 -7.1879,-1.861728 z M 107.05378,64.446168 c -0.13666,-0.854612 -0.69389,-2.870388 -1.23829,-4.4795 -0.54441,-1.609116 -0.9506,-2.95916 -0.90266,-3.000096 0.91729,-0.783288 25.6745,-12.538649 25.90934,-12.302421 1.21111,1.2183 4.91113,13.422421 5.25498,17.333029 l 0.12285,1.397172 -13,1.272328 c -17.12045,1.675596 -15.84023,1.69308 -16.14622,-0.220512 z M 79.243052,35.322589 c -1.186324,-0.311071 -3.166324,-0.691623 -4.4,-0.84567 L 72.6,34.196834 72.4948,20.023617 C 72.43694,12.228348 72.52696,5.7208176 72.6948,5.5624384 73.097676,5.1823155 80.015036,5.8462272 83.691024,6.61783 87.971456,7.5163077 92,8.778581 92,9.2213006 c 0,0.347518 -3.19994,8.7105114 -8.256676,21.5787014 -0.994196,2.53 -1.928164,4.709839 -2.07548,4.844086 -0.147312,0.134247 -1.238472,-0.01043 -2.424792,-0.321499 z"
         id="path371" />
      <path
         style="fill:#42aa47;stroke-width:0.4"
         d="m 280.51964,150.1019 c 1.9358,-0.0735 4.9958,-0.0731 6.8,8e-4 1.8042,0.0739 0.22036,0.13406 -3.51964,0.1336 -3.74,-4e-4 -5.21616,-0.061 -3.28036,-0.13444 z M 573.3,122.91351 c 0.605,-0.0917 1.595,-0.0917 2.2,0 0.605,0.0917 0.11,0.16663 -1.1,0.16663 -1.21,0 -1.705,-0.075 -1.1,-0.16663 z m 6.60716,-0.003 c 0.71896,-0.089 1.79896,-0.0872 2.4,0.004 0.60108,0.0913 0.0128,0.16411 -1.30716,0.16186 -1.32,-0.002 -1.81176,-0.0769 -1.09284,-0.16594 z m 215.80744,-0.006 c 1.27304,-0.0796 3.25304,-0.0789 4.4,0.002 1.14696,0.0805 0.1054,0.14567 -2.3146,0.14476 -2.42,-8e-4 -3.35844,-0.0668 -2.0854,-0.1464 z m -227.207,-0.38117 c 0.3892,-0.10141 0.9292,-0.0947 1.2,0.0148 0.27084,0.10958 -0.0476,0.19255 -0.7076,0.1844 -0.66,-0.008 -0.88156,-0.0978 -0.4924,-0.19922 z m 17.7924,0.0123 c 0.275,-0.11096 0.725,-0.11096 1,0 0.275,0.11097 0.05,0.20176 -0.5,0.20176 -0.55,0 -0.775,-0.0908 -0.5,-0.20176 z m 203.2,0 c 0.275,-0.11096 0.725,-0.11096 1,0 0.275,0.11097 0.05,0.20176 -0.5,0.20176 -0.55,0 -0.775,-0.0908 -0.5,-0.20176 z m 15.6,0 c 0.275,-0.11096 0.725,-0.11096 1,0 0.275,0.11097 0.05,0.20176 -0.5,0.20176 -0.55,0 -0.775,-0.0908 -0.5,-0.20176 z m -597.58659,-0.43065 c 1.16237,-0.0811 2.96237,-0.0802 4,0.002 1.03762,0.0821 0.0866,0.14841 -2.11341,0.14737 -2.2,-0.001 -3.04897,-0.0682 -1.88659,-0.14926 z M 310.5,122.12429 c 0.385,-0.10061 1.015,-0.10061 1.4,0 0.385,0.10061 0.07,0.18293 -0.7,0.18293 -0.77,0 -1.085,-0.0823 -0.7,-0.18293 z m 82.20466,-0.007 c 0.49757,-0.0957 1.21757,-0.0921 1.6,0.008 0.38244,0.10011 -0.0247,0.1784 -0.90466,0.17396 -0.88,-0.004 -1.1929,-0.0864 -0.69534,-0.18203 z m 173.22034,0.01 c 0.28876,-0.11555 0.63376,-0.10134 0.76668,0.0316 0.13292,0.13291 -0.10336,0.22745 -0.525,0.21009 -0.466,-0.0192 -0.56076,-0.11398 -0.24168,-0.24167 z m 23.575,0.008 c 0.275,-0.11097 0.725,-0.11097 1,0 0.275,0.11096 0.05,0.20175 -0.5,0.20175 -0.55,0 -0.775,-0.0908 -0.5,-0.20175 z m 197.225,-0.008 c 0.28876,-0.11555 0.63376,-0.10134 0.76668,0.0316 0.13292,0.13291 -0.10336,0.22745 -0.525,0.21009 -0.466,-0.0192 -0.56076,-0.11398 -0.24168,-0.24167 z m -584.8,-0.4 c 0.28875,-0.11555 0.63375,-0.10134 0.76667,0.0316 0.13291,0.13291 -0.10334,0.22745 -0.525,0.21009 -0.46598,-0.0192 -0.56076,-0.11398 -0.24167,-0.24167 z m 14,0 c 0.28875,-0.11555 0.63375,-0.10134 0.76667,0.0316 0.13291,0.13291 -0.10334,0.22745 -0.525,0.21009 -0.46598,-0.0192 -0.56076,-0.11398 -0.24167,-0.24167 z m 90.4,0 c 0.28875,-0.11555 0.63375,-0.10134 0.76667,0.0316 0.13291,0.13291 -0.10334,0.22745 -0.525,0.21009 -0.46598,-0.0192 -0.56076,-0.11398 -0.24167,-0.24167 z m 8.8,0 c 0.28875,-0.11555 0.63375,-0.10134 0.76667,0.0316 0.13291,0.13291 -0.10334,0.22745 -0.525,0.21009 -0.46598,-0.0192 -0.56076,-0.11398 -0.24167,-0.24167 z m 71.975,0.008 c 0.275,-0.11097 0.725,-0.11097 1,0 0.275,0.11096 0.05,0.20175 -0.5,0.20175 -0.55,0 -0.775,-0.0908 -0.5,-0.20175 z m 11.6,0 c 0.275,-0.11097 0.725,-0.11097 1,0 0.275,0.11096 0.05,0.20175 -0.5,0.20175 -0.55,0 -0.775,-0.0908 -0.5,-0.20175 z M 218.725,121.3268 c 0.28875,-0.11555 0.63375,-0.10134 0.76667,0.0316 0.13291,0.13291 -0.10334,0.22745 -0.525,0.21008 -0.46598,-0.0192 -0.56076,-0.11397 -0.24167,-0.24166 z M 685.7,120.92428 c 0.385,-0.10061 1.015,-0.10061 1.4,0 0.385,0.10061 0.07,0.18293 -0.7,0.18293 -0.77,0 -1.085,-0.0823 -0.7,-0.18293 z m 4.625,-0.39752 c 0.28876,-0.11554 0.63376,-0.10134 0.76668,0.0316 0.13292,0.13292 -0.10336,0.22746 -0.525,0.21009 -0.466,-0.0192 -0.56076,-0.11397 -0.24168,-0.24166 z m 2.8,-0.4 c 0.28876,-0.11554 0.63376,-0.10134 0.76668,0.0316 0.13292,0.13292 -0.10336,0.22746 -0.525,0.21009 -0.466,-0.0192 -0.56076,-0.11397 -0.24168,-0.24166 z m -399.763,-4.62675 -0.762,-0.9 0.9,0.76199 c 0.495,0.4191 0.9,0.8241 0.9,0.9 0,0.3201 -0.32192,0.0838 -1.038,-0.76199 z m 121.838,0.34897 c 0,-0.0831 0.315,-0.39806 0.7,-0.7 0.63444,-0.49754 0.64856,-0.4834 0.15104,0.15103 -0.52256,0.6663 -0.85104,0.87819 -0.85104,0.54897 z m 193.6,-1.2 c 0,-0.0831 0.315,-0.39806 0.7,-0.7 0.63444,-0.49754 0.64856,-0.4834 0.15104,0.15103 -0.52256,0.6663 -0.85104,0.87819 -0.85104,0.54897 z m -240.638,-1.14897 -0.762,-0.9 0.9,0.76199 c 0.84578,0.71609 1.0821,1.03801 0.762,1.03801 -0.0759,0 -0.48091,-0.405 -0.9,-0.9 z m -77.2,-0.4 -0.762,-0.9 0.9,0.76199 c 0.84578,0.71609 1.0821,1.03801 0.762,1.03801 -0.0759,0 -0.48091,-0.405 -0.9,-0.9 z m 126.638,0.77483 c 0,-0.0688 0.585,-0.65384 1.3,-1.3 l 1.3,-1.17483 -1.17484,1.3 c -1.09512,1.21178 -1.42516,1.48386 -1.42516,1.17483 z m 127.96972,-0.97483 -0.96972,-1.1 1.1,0.96972 c 0.605,0.53335 1.1,1.02835 1.1,1.1 0,0.31371 -0.32392,0.0584 -1.23028,-0.96972 z M 313.125,110.92676 c 0.28875,-0.11554 0.63375,-0.10134 0.76667,0.0316 0.13291,0.13292 -0.10334,0.22746 -0.525,0.21009 -0.46598,-0.0192 -0.56076,-0.11397 -0.24167,-0.24166 z m 52.02398,-0.42675 c -0.49755,-0.63443 -0.4834,-0.64857 0.15102,-0.15103 0.385,0.30194 0.7,0.61694 0.7,0.7 0,0.32922 -0.32848,0.11733 -0.85102,-0.54897 z m 23.97602,0.42675 c 0.28875,-0.11554 0.63375,-0.10134 0.76667,0.0316 0.13291,0.13292 -0.10334,0.22746 -0.525,0.21009 -0.46598,-0.0192 -0.56076,-0.11397 -0.24167,-0.24166 z m 324.075,0.14808 c 0,-0.0688 0.585,-0.65384 1.3,-1.3 l 1.3,-1.17483 -1.17484,1.3 c -1.09512,1.21178 -1.42516,1.48386 -1.42516,1.17483 z m -537.838,-1.17483 -0.762,-0.9 0.9,0.76199 c 0.495,0.4191 0.9,0.8241 0.9,0.9 0,0.3201 -0.32192,0.0838 -1.038,-0.76199 z m 584.98696,0.2 c -0.49752,-0.63443 -0.4834,-0.64857 0.15104,-0.15103 0.66628,0.52255 0.8782,0.85103 0.54896,0.85103 -0.083,0 -0.39804,-0.315 -0.7,-0.7 z M 204.325,109.72676 c 0.28875,-0.11554 0.63375,-0.10134 0.76667,0.0316 0.13291,0.13292 -0.10334,0.22746 -0.525,0.21009 -0.46598,-0.0192 -0.56076,-0.11397 -0.24167,-0.24166 z m 9.2,0 c 0.28875,-0.11554 0.63375,-0.10134 0.76667,0.0316 0.13291,0.13292 -0.10334,0.22746 -0.525,0.21009 -0.46598,-0.0192 -0.56076,-0.11397 -0.24167,-0.24166 z m -12,-0.4 c 0.28875,-0.11554 0.63375,-0.10134 0.76667,0.0316 0.13291,0.13292 -0.10334,0.22746 -0.525,0.21009 -0.46598,-0.0192 -0.56076,-0.11397 -0.24167,-0.24166 z m 555.22396,-2.82675 c -0.49752,-0.63443 -0.4834,-0.64858 0.15104,-0.15103 0.66628,0.52255 0.8782,0.85103 0.54896,0.85103 -0.083,0 -0.39804,-0.315 -0.7,-0.7 z m -377.99998,-0.4 c -0.49755,-0.63443 -0.4834,-0.64858 0.15102,-0.15103 0.6663,0.52255 0.87819,0.85103 0.54898,0.85103 -0.0831,0 -0.39806,-0.315 -0.7,-0.7 z m -208,-0.8 c -0.49755,-0.63443 -0.4834,-0.64858 0.15102,-0.15103 0.385,0.30194 0.7,0.61694 0.7,0.7 0,0.32922 -0.32848,0.11733 -0.85102,-0.54897 z M 247.6,105.44898 c 0,-0.0831 0.315,-0.39806 0.7,-0.7 0.63442,-0.49755 0.64857,-0.4834 0.15102,0.15103 -0.52254,0.6663 -0.85102,0.87819 -0.85102,0.54897 z m 326.1076,-0.92617 c 0.3892,-0.10142 0.9292,-0.0948 1.2,0.0148 0.27084,0.10957 -0.0476,0.19255 -0.7076,0.1844 -0.66,-0.008 -0.88156,-0.0978 -0.4924,-0.19922 z m 8,0 c 0.3892,-0.10142 0.9292,-0.0948 1.2,0.0148 0.27084,0.10957 -0.0476,0.19255 -0.7076,0.1844 -0.66,-0.008 -0.88156,-0.0978 -0.4924,-0.19922 z m 3.0174,-0.39605 c 0.28876,-0.11555 0.63376,-0.10134 0.76668,0.0316 0.13292,0.13292 -0.10336,0.22746 -0.525,0.21009 -0.466,-0.0192 -0.56076,-0.11398 -0.24168,-0.24166 z m 206.8,0 c 0.28876,-0.11555 0.63376,-0.10134 0.76668,0.0316 0.13292,0.13292 -0.10336,0.22746 -0.525,0.21009 -0.466,-0.0192 -0.56076,-0.11398 -0.24168,-0.24166 z m 9.2,0 c 0.28876,-0.11555 0.63376,-0.10134 0.76668,0.0316 0.13292,0.13292 -0.10336,0.22746 -0.525,0.21009 -0.466,-0.0192 -0.56076,-0.11398 -0.24168,-0.24166 z m -424.77602,-0.82675 c -0.49755,-0.63443 -0.4834,-0.64858 0.15102,-0.15103 0.385,0.30194 0.7,0.61694 0.7,0.7 0,0.32922 -0.32848,0.11733 -0.85102,-0.54897 z M 660.59156,67.600004 c 0,-19.690001 0.0488,-27.745001 0.10832,-17.900001 0.0596,9.845001 0.0596,25.955002 0,35.800003 -0.0596,9.845 -0.10832,1.79 -0.10832,-17.900002 z M 680.9,102.91351 c 0.605,-0.0917 1.595,-0.0917 2.2,0 0.605,0.0916 0.11,0.16663 -1.1,0.16663 -1.21,0 -1.705,-0.075 -1.1,-0.16663 z m 5.825,-0.38675 c 0.28876,-0.11555 0.63376,-0.10134 0.76668,0.0316 0.13292,0.13292 -0.10336,0.22746 -0.525,0.21009 -0.466,-0.0192 -0.56076,-0.11398 -0.24168,-0.24166 z M 234.2,100.00001 c 1.08346,-1.100004 2.05993,-2.000004 2.16993,-2.000004 0.11,0 -0.68647,0.9 -1.76993,2.000004 -1.08346,1.1 -2.05993,2 -2.16993,2 -0.11,0 0.68647,-0.9 1.76993,-2 z m 326.77484,-1.300004 -1.17484,-1.3 1.3,1.174836 c 1.2118,1.095112 1.48388,1.425168 1.17484,1.425168 -0.0688,0 -0.65384,-0.585004 -1.3,-1.300004 z m -379.82586,-1.8 c -0.49755,-0.634424 -0.4834,-0.648572 0.15102,-0.151024 0.385,0.30194 0.7,0.61694 0.7,0.7 0,0.329216 -0.32848,0.117324 -0.85102,-0.548976 z m 245.65102,0.3 c -0.51276,-0.331372 -0.4982,-0.38864 0.1,-0.393876 0.385,-0.0032 0.7,0.173876 0.7,0.393876 0,0.487844 -0.0451,0.487844 -0.8,0 z m -3.275,-0.673244 c 0.28876,-0.115548 0.63376,-0.10134 0.76668,0.03156 0.13292,0.132916 -0.10336,0.227456 -0.525,0.210088 -0.466,-0.0192 -0.56076,-0.113976 -0.24168,-0.241664 z m -3.2,-0.4 c 0.28876,-0.115548 0.63376,-0.10134 0.76668,0.03156 0.13292,0.132916 -0.10336,0.227456 -0.525,0.210088 -0.466,-0.0192 -0.56076,-0.113976 -0.24168,-0.241664 z m -6.43168,-0.576392 c 0.27136,-0.273368 0.59412,-0.396268 0.71728,-0.273112 0.12312,0.123156 -0.0989,0.34682 -0.49336,0.497032 -0.57008,0.217072 -0.616,0.171128 -0.22392,-0.22392 z M 416.7,95.735094 c 0.275,-0.110964 0.725,-0.110964 1,0 0.275,0.110964 0.05,0.201756 -0.5,0.201756 -0.55,0 -0.775,-0.09079 -0.5,-0.201756 z m 203.76316,-2.935088 c 0,-0.55 0.0908,-0.775 0.20176,-0.5 0.11096,0.275 0.11096,0.725 0,1 -0.11096,0.275 -0.20176,0.05 -0.20176,-0.5 z M 343.63158,91.366674 c 0.0192,-0.46598 0.11398,-0.56076 0.24166,-0.241668 0.11555,0.288748 0.10134,0.633748 -0.0316,0.766668 -0.13291,0.132916 -0.22745,-0.103336 -0.21008,-0.525 z m 13.2,0 c 0.0192,-0.46598 0.11398,-0.56076 0.24166,-0.241668 0.11555,0.288748 0.10134,0.633748 -0.0316,0.766668 -0.13291,0.132916 -0.22745,-0.103336 -0.21008,-0.525 z m 242.0883,-1.366668 c 0,-1.21 0.075,-1.705 0.16664,-1.1 0.0916,0.605 0.0916,1.595 0,2.2 -0.0917,0.605 -0.16664,0.11 -0.16664,-1.1 z m -309.2883,0.566668 c 0.0192,-0.46598 0.11398,-0.56076 0.24166,-0.241668 0.11555,0.288748 0.10134,0.633748 -0.0316,0.766668 -0.13291,0.132916 -0.22745,-0.103336 -0.21008,-0.525 z m 40.8,-0.4 c 0.0192,-0.46598 0.11398,-0.56076 0.24166,-0.241668 0.11555,0.288748 0.10134,0.633748 -0.0316,0.766668 -0.13291,0.132916 -0.22745,-0.103336 -0.21008,-0.525 z m 13.6,-1.6 c 0.0192,-0.46598 0.11398,-0.56076 0.24166,-0.241668 0.11555,0.288748 0.10134,0.633748 -0.0316,0.766668 -0.13291,0.132916 -0.22745,-0.103336 -0.21008,-0.525 z m 189.59998,0 c 0.0192,-0.46598 0.114,-0.56076 0.24168,-0.241668 0.11556,0.288748 0.10136,0.633748 -0.0316,0.766668 -0.13292,0.132916 -0.22748,-0.103336 -0.21012,-0.525 z m -177.1684,-0.566668 c 0,-0.55 0.0908,-0.775 0.20175,-0.5 0.11097,0.275 0.11097,0.725 0,1 -0.11096,0.275 -0.20175,0.05 -0.20175,-0.5 z m 13.56842,0.166668 c 0.0192,-0.46598 0.11398,-0.56076 0.24166,-0.241668 0.11555,0.288748 0.10134,0.633748 -0.0316,0.766668 -0.13291,0.132916 -0.22745,-0.103336 -0.21008,-0.525 z m 250.4693,-0.766668 c 0.004,-0.88 0.0864,-1.1929 0.18204,-0.695336 0.0957,0.497564 0.092,1.217564 -0.008,1.6 -0.10012,0.382436 -0.1784,-0.02468 -0.17396,-0.904664 z M 5.0405076,87.279594 C 4.2394048,84.563546 3.5150352,78.861473 3.3154087,73.700005 l -0.2359255,-6.100001 1.1602584,-0.0032 C 5.5588648,67.593204 28.104998,69.496101 30.7,69.830233 l 1.7,0.218896 0.003,2.275488 c 0.0017,1.25152 0.189209,3.422944 0.41677,4.825388 0.227562,1.402444 0.346214,2.617432 0.263672,2.699976 -0.08254,0.08254 -6.16509,1.862716 -13.516771,3.95594 C 12.21503,85.89915 5.9842328,87.689974 5.7204952,87.785538 5.4567572,87.881098 5.1507712,87.653474 5.040526,87.279698 Z M 289.27798,87.000006 c 0.008,-0.66 0.0978,-0.881576 0.19922,-0.492388 0.10141,0.389188 0.0947,0.929188 -0.0148,1.2 -0.10958,0.270812 -0.19255,-0.04761 -0.1844,-0.707612 z m 41.6,0 c 0.008,-0.66 0.0978,-0.881576 0.19922,-0.492388 0.10141,0.389188 0.0947,0.929188 -0.0148,1.2 -0.10958,0.270812 -0.19255,-0.04761 -0.1844,-0.707612 z M 533.9,86.135094 c 0.275,-0.110964 0.725,-0.110964 1,0 0.275,0.110964 0.05,0.201756 -0.5,0.201756 -0.55,0 -0.775,-0.09079 -0.5,-0.201756 z M 344.50894,84.400005 c 0,-0.99 0.078,-1.395 0.17335,-0.9 0.0953,0.495 0.0953,1.305001 0,1.800001 -0.0953,0.495 -0.17335,0.09 -0.17335,-0.900001 z M 537.9,85.735094 c 0.275,-0.110964 0.725,-0.110964 1,0 0.275,0.110964 0.05,0.201756 -0.5,0.201756 -0.55,0 -0.775,-0.09079 -0.5,-0.201756 z m 4.2076,-0.412284 c 0.3892,-0.101416 0.9292,-0.09475 1.2,0.01484 0.27084,0.109572 -0.0476,0.192548 -0.7076,0.184396 -0.66,-0.0082 -0.88156,-0.0978 -0.4924,-0.199216 z M 546.3,84.935094 c 0.275,-0.110964 0.725,-0.110964 1,0 0.275,0.110964 0.05,0.201756 -0.5,0.201756 -0.55,0 -0.775,-0.09079 -0.5,-0.201756 z m 4,-0.4 c 0.275,-0.110965 0.725,-0.110965 1,0 0.275,0.110964 0.05,0.201756 -0.5,0.201756 -0.55,0 -0.775,-0.09079 -0.5,-0.201756 z m 177.33156,-2.368421 c 0.0192,-0.46598 0.114,-0.56076 0.24168,-0.241668 0.11556,0.288748 0.10136,0.633748 -0.0316,0.766668 -0.13292,0.132916 -0.22748,-0.103336 -0.21012,-0.525 z m -108,-0.8 c 0.0192,-0.46598 0.114,-0.56076 0.24168,-0.241668 0.11556,0.288748 0.10136,0.633748 -0.0316,0.766668 -0.13292,0.132916 -0.22748,-0.103336 -0.21012,-0.525 z m 86,-1.6 c 0.0192,-0.46598 0.114,-0.56076 0.24168,-0.241668 0.11556,0.288748 0.10136,0.633748 -0.0316,0.766668 -0.13292,0.132916 -0.22748,-0.103336 -0.21012,-0.525 z m 22.4316,-0.566668 c 0,-0.55 0.0908,-0.775 0.20176,-0.5 0.11096,0.275 0.11096,0.725 0,1 -0.11096,0.275 -0.20176,0.05 -0.20176,-0.5 z m 16.3684,0.166668 c 0.0192,-0.46598 0.114,-0.56076 0.24168,-0.241668 0.11556,0.288748 0.10136,0.633748 -0.0316,0.766668 -0.13292,0.132916 -0.22748,-0.103336 -0.21012,-0.525 z m 22.4,-0.4 c 0.0192,-0.46598 0.114,-0.56076 0.24168,-0.241668 0.11556,0.288748 0.10136,0.633748 -0.0316,0.766668 -0.13292,0.132916 -0.22748,-0.103336 -0.21012,-0.525 z m -521.99998,-0.4 c 0.0192,-0.46598 0.11398,-0.56076 0.24166,-0.241668 0.11555,0.288748 0.10134,0.633748 -0.0316,0.766668 -0.13291,0.132916 -0.22745,-0.103336 -0.21008,-0.525 z m 14.83158,-0.566668 c 0,-0.55 0.0908,-0.775 0.20175,-0.5 0.11097,0.275 0.11097,0.725 0,1 -0.11096,0.275 -0.20175,0.05 -0.20175,-0.5 z m 84.84578,-0.8 c 0,-0.99 0.078,-1.395 0.17335,-0.9 0.0953,0.495 0.0953,1.305 0,1.8 -0.0953,0.495 -0.17335,0.09 -0.17335,-0.9 z m -55.23096,-0.2 c 0.008,-0.66 0.0978,-0.881576 0.19922,-0.492388 0.10141,0.389188 0.0947,0.929188 -0.0148,1.2 -0.10958,0.270812 -0.19255,-0.04761 -0.1844,-0.707612 z m 138.39998,-0.4 c 0.008,-0.66 0.0978,-0.881576 0.19924,-0.492388 0.1014,0.389188 0.0948,0.929188 -0.0148,1.2 -0.10956,0.270812 -0.19252,-0.04761 -0.1844,-0.707612 z m 316.3852,0.2 c 0,-0.55 0.0908,-0.775 0.20176,-0.5 0.11096,0.275 0.11096,0.725 0,1 -0.11096,0.275 -0.20176,0.05 -0.20176,-0.5 z M 158.43158,76.566673 c 0.0192,-0.46598 0.11398,-0.56076 0.24166,-0.241668 0.11555,0.288748 0.10134,0.633748 -0.0316,0.766668 -0.13291,0.132916 -0.22745,-0.103336 -0.21008,-0.525 z m 298.8883,-1.366668 c 0,-1.21 0.075,-1.705 0.16664,-1.1 0.0916,0.605 0.0916,1.595 0,2.2 -0.0917,0.605 -0.16664,0.11 -0.16664,-1.1 z m 309.11168,1.366668 c 0.0192,-0.46598 0.114,-0.56076 0.24168,-0.241668 0.11556,0.288748 0.10136,0.633748 -0.0316,0.766668 -0.13292,0.132916 -0.22748,-0.103336 -0.21012,-0.525 z m -521.19998,-0.4 c 0.0192,-0.46598 0.11398,-0.56076 0.24166,-0.241668 0.11555,0.288748 0.10134,0.633748 -0.0316,0.766668 -0.13291,0.132916 -0.22745,-0.103336 -0.21008,-0.525 z m 111.23158,-0.166668 c 0,-0.55 0.0908,-0.775 0.20175,-0.5 0.11097,0.275 0.11097,0.725 0,1 -0.11096,0.275 -0.20175,0.05 -0.20175,-0.5 z m 349.62964,-0.4 c 0,-0.77 0.0823,-1.085 0.18292,-0.7 0.10064,0.385 0.10064,1.015 0,1.4 -0.1006,0.385 -0.18292,0.07 -0.18292,-0.7 z m 22.37036,0 c 0,-0.55 0.0908,-0.775 0.20176,-0.5 0.11096,0.275 0.11096,0.725 0,1 -0.11096,0.275 -0.20176,0.05 -0.20176,-0.5 z m -555.6,-0.4 c 0,-0.55 0.0908,-0.775 0.20175,-0.5 0.11097,0.275 0.11097,0.725 0,1 -0.11096,0.275 -0.20175,0.05 -0.20175,-0.5 z m 87.16842,-0.233332 c 0.0192,-0.46598 0.11398,-0.56076 0.24166,-0.241668 0.11555,0.288748 0.10134,0.633748 -0.0316,0.766668 -0.13291,0.132916 -0.22745,-0.103336 -0.21008,-0.525 z m 70.8464,-0.366668 c 0.008,-0.66 0.0978,-0.881576 0.19922,-0.492388 0.10141,0.389188 0.0947,0.929188 -0.0148,1.2 -0.10958,0.270812 -0.19255,-0.04761 -0.1844,-0.707612 z m 435.19998,-1.2 c 0.008,-0.66 0.0978,-0.881576 0.19924,-0.492388 0.1014,0.389188 0.0948,0.929188 -0.0148,1.2 -0.10956,0.270812 -0.19252,-0.04761 -0.1844,-0.707612 z m -607.99998,-0.4 c 0.008,-0.66 0.0978,-0.881576 0.19922,-0.492388 0.10141,0.389188 0.0947,0.929188 -0.0148,1.2 -0.10958,0.270812 -0.19255,-0.04761 -0.1844,-0.707612 z m 131.5536,0.366668 c 0.0192,-0.46598 0.11398,-0.56076 0.24166,-0.241668 0.11555,0.288748 0.10134,0.633748 -0.0316,0.766668 -0.13291,0.132916 -0.22745,-0.103336 -0.21008,-0.525 z m 454.04638,-0.366668 c 0.008,-0.66 0.0978,-0.881576 0.19924,-0.492388 0.1014,0.389188 0.0948,0.929188 -0.0148,1.2 -0.10956,0.270812 -0.19252,-0.04761 -0.1844,-0.707612 z m -399.64638,-0.03332 c 0.0192,-0.46598 0.11398,-0.56076 0.24166,-0.241668 0.11555,0.288748 0.10134,0.633748 -0.0316,0.766668 -0.13291,0.132916 -0.22745,-0.103336 -0.21008,-0.525 z m -98.3536,-0.76668 c 0.008,-0.66 0.0978,-0.881576 0.19922,-0.492388 0.10141,0.389188 0.0947,0.929188 -0.0148,1.2 -0.10958,0.270812 -0.19255,-0.04761 -0.1844,-0.707612 z m 111.1536,0.366668 c 0.0192,-0.46598 0.11398,-0.56076 0.24166,-0.241668 0.11555,0.288748 0.10134,0.633748 -0.0316,0.766668 -0.13291,0.132916 -0.22745,-0.103336 -0.21008,-0.525 z m 70.39998,0 c 0.0192,-0.46598 0.114,-0.56076 0.24168,-0.241668 0.11556,0.288748 0.10136,0.633748 -0.0316,0.766668 -0.13292,0.132916 -0.22748,-0.103336 -0.21012,-0.525 z m -96.79998,-0.8 c 0.0192,-0.46598 0.11398,-0.56076 0.24166,-0.241668 0.11555,0.288748 0.10134,0.633748 -0.0316,0.766668 -0.13291,0.132916 -0.22745,-0.103336 -0.21008,-0.525 z m 83.19998,0 c 0.0192,-0.46598 0.114,-0.56076 0.24168,-0.241668 0.11556,0.288748 0.10136,0.633748 -0.0316,0.766668 -0.13292,0.132916 -0.22748,-0.103336 -0.21012,-0.525 z m -42.79998,-0.8 c 0.0192,-0.46598 0.11398,-0.56076 0.24166,-0.241668 0.11555,0.288748 0.10134,0.633748 -0.0316,0.766668 -0.13291,0.132916 -0.22745,-0.103336 -0.21008,-0.525 z M 260.54963,67.000004 c 8e-4,-2.42 0.0668,-3.358428 0.1464,-2.085396 0.0796,1.273032 0.0789,3.253032 -0.002,4.400001 -0.0805,1.146968 -0.14567,0.105396 -0.14476,-2.314605 z m 197.08193,3.166669 c 0.0192,-0.46598 0.114,-0.56076 0.24168,-0.241668 0.11556,0.288748 0.10136,0.633748 -0.0316,0.766668 -0.13292,0.132916 -0.22748,-0.103336 -0.21012,-0.525 z M 172.52803,68.000004 c 0,-1.43 0.0726,-2.015 0.16133,-1.3 0.0887,0.715 0.0887,1.885 0,2.600001 -0.0887,0.715 -0.16133,0.13 -0.16133,-1.300001 z m 321.13513,-1.2 c 0,-0.55 0.0908,-0.775 0.20176,-0.5 0.11096,0.275 0.11096,0.725 0,1 -0.11096,0.275 -0.20176,0.05 -0.20176,-0.5 z m 272.0148,-0.6 c 0.008,-0.66 0.0978,-0.881576 0.19924,-0.492388 0.1014,0.389188 0.0948,0.929188 -0.0148,1.2 -0.10956,0.270812 -0.19252,-0.04761 -0.1844,-0.707612 z m -607.56902,-3.8 c 0,-0.99 0.078,-1.395 0.17335,-0.9 0.0954,0.495 0.0954,1.305 0,1.8 -0.0953,0.495 -0.17335,0.09 -0.17335,-0.9 z m 87.60546,-0.2 c 0.003,-1.1 0.0807,-1.502524 0.17263,-0.8945 0.0919,0.608024 0.0895,1.508024 -0.005,2 -0.0949,0.491976 -0.17017,-0.0055 -0.16717,-1.1055 z m 261.16356,0.8 c 0.008,-0.66 0.0978,-0.881576 0.19924,-0.492388 0.1014,0.389188 0.0948,0.929188 -0.0148,1.2 -0.10956,0.270812 -0.19252,-0.04761 -0.1844,-0.707612 z m 38.70052,-0.9 -1.37848,-1.5 1.5,1.378468 c 1.39616,1.283044 1.68392,1.621532 1.37848,1.621532 -0.0668,0 -0.74184,-0.675 -1.5,-1.5 z m 182.91432,-0.9 c 0,-0.77 0.0823,-1.085 0.18292,-0.7 0.10064,0.385 0.10064,1.015 0,1.4 -0.1006,0.385 -0.18292,0.07 -0.18292,-0.7 z m 15.18516,-0.2 c 0.008,-0.66 0.0978,-0.881576 0.19924,-0.492388 0.1014,0.389188 0.0948,0.929188 -0.0148,1.2 -0.10956,0.270812 -0.19252,-0.04761 -0.1844,-0.707612 z m -570.8148,-1 c 0,-0.55 0.0908,-0.775 0.20175,-0.5 0.11097,0.275 0.11097,0.725 0,1 -0.11096,0.275 -0.20175,0.05 -0.20175,-0.5 z m 533.2148,-0.2 c 0.008,-0.66 0.0978,-0.881576 0.19924,-0.492388 0.1014,0.389188 0.0948,0.929188 -0.0148,1.2 -0.10956,0.270812 -0.19252,-0.04761 -0.1844,-0.707612 z m 59.9852,-0.2 c 0,-0.55 0.0908,-0.775 0.20176,-0.5 0.11096,0.275 0.11096,0.725 0,1 -0.11096,0.275 -0.20176,0.05 -0.20176,-0.5 z m -506,-0.8 c 0,-0.55 0.0908,-0.775 0.20175,-0.5 0.11097,0.275 0.11097,0.725 0,1 -0.11096,0.275 -0.20175,0.05 -0.20175,-0.5 z m -101.6,-0.8 c 0,-0.55 0.0908,-0.775 0.20175,-0.5 0.11097,0.275 0.11097,0.725 0,1 -0.11096,0.275 -0.20175,0.05 -0.20175,-0.5 z m 86.76842,0.166668 c 0.0192,-0.46598 0.11398,-0.56076 0.24166,-0.241668 0.11555,0.288748 0.10134,0.633748 -0.0316,0.766668 -0.13291,0.132916 -0.22745,-0.103336 -0.21008,-0.525 z m 498.79998,-0.8 c 0.0192,-0.46598 0.114,-0.56076 0.24168,-0.241668 0.11556,0.288748 0.10136,0.633748 -0.0316,0.766668 -0.13292,0.132916 -0.22748,-0.103336 -0.21012,-0.525 z M 323.362,56.700004 l -0.762,-0.9 0.9,0.761996 c 0.84578,0.716088 1.0821,1.038004 0.762,1.038004 -0.0759,0 -0.48091,-0.405 -0.9,-0.9 z M 463.6,57.44898 c 0,-0.08306 0.315,-0.39806 0.7,-0.7 0.63444,-0.497548 0.64856,-0.4834 0.15104,0.151024 -0.52256,0.6663 -0.85104,0.878192 -0.85104,0.548976 z m 264.46316,-0.648976 c 0,-0.55 0.0908,-0.775 0.20176,-0.5 0.11096,0.275 0.11096,0.725 0,1 -0.11096,0.275 -0.20176,0.05 -0.20176,-0.5 z m 38.3684,-0.233332 c 0.0192,-0.46598 0.114,-0.56076 0.24168,-0.241668 0.11556,0.288748 0.10136,0.633748 -0.0316,0.766668 -0.13292,0.132916 -0.22748,-0.103336 -0.21012,-0.525 z m -593.19998,-0.4 c 0.0192,-0.46598 0.11398,-0.56076 0.24166,-0.241668 0.11555,0.288748 0.10134,0.633748 -0.0316,0.766668 -0.13291,0.132916 -0.22745,-0.103336 -0.21008,-0.525 z m 86.4,-0.4 c 0.0192,-0.46598 0.11398,-0.56076 0.24166,-0.241668 0.11555,0.288748 0.10134,0.633748 -0.0316,0.766668 -0.13291,0.132916 -0.22745,-0.103336 -0.21008,-0.525 z m 445.99998,0 c 0.0192,-0.46598 0.114,-0.56076 0.24168,-0.241668 0.11556,0.288748 0.10136,0.633748 -0.0316,0.766668 -0.13292,0.132916 -0.22748,-0.103336 -0.21012,-0.525 z m -460.79998,-0.8 c 0.0192,-0.46598 0.11398,-0.56076 0.24166,-0.241668 0.11555,0.288748 0.10134,0.633748 -0.0316,0.766668 -0.13291,0.132916 -0.22745,-0.103336 -0.21008,-0.525 z m 14.4,-1.600001 c 0.0192,-0.46598 0.11398,-0.56076 0.24166,-0.241668 0.11555,0.288748 0.10134,0.633748 -0.0316,0.766669 -0.13291,0.132916 -0.22745,-0.103336 -0.21008,-0.525001 z M 364.4,53.84898 c 0,-0.08306 0.315,-0.398061 0.7,-0.700001 0.63442,-0.497548 0.64857,-0.4834 0.15102,0.151024 C 364.72848,53.966304 364.4,54.178196 364.4,53.84898 Z m 363.23156,-0.482309 c 0.0192,-0.46598 0.114,-0.56076 0.24168,-0.241668 0.11556,0.288748 0.10136,0.633748 -0.0316,0.766669 -0.13292,0.132916 -0.22748,-0.103336 -0.21012,-0.525001 z M 101.55048,51.300003 c -0.70838,-1.045 -1.993404,-2.754548 -2.85562,-3.798992 l -1.567668,-1.898996 0.939684,-1.116752 c 2.263304,-2.68978 18.456224,-20.085261 18.696764,-20.085261 0.42238,0 3.71322,3.541881 6.13218,6.6 2.03768,2.576083 5.90418,8.567824 5.90418,9.149445 0,0.223004 -25.33787,13.050556 -25.77836,13.050556 -0.10076,0 -0.76279,-0.855 -1.47116,-1.9 z m 317.19848,1.2 c -0.49752,-0.634424 -0.4834,-0.648572 0.15104,-0.151024 0.66628,0.522548 0.8782,0.851024 0.54896,0.851024 -0.083,0 -0.39804,-0.315 -0.7,-0.7 z M 24.5,46.280767 c -7.095,-3.550036 -12.9,-6.567741 -12.9,-6.70601 0,-0.13827 1.247105,-2.124154 2.771344,-4.413077 3.332584,-5.00448 8.702373,-11.246402 9.532264,-11.080444 0.326646,0.06532 4.866003,4.793632 10.087461,10.507358 l 9.493559,10.388593 -2.442312,3.015196 C 39.699042,49.650743 38.33,51.396335 38,51.871479 37.403403,52.730475 37.326834,52.698767 24.5,46.280767 Z m 449.425,6.245992 c 0.28876,-0.115548 0.63376,-0.10134 0.76668,0.03156 0.13292,0.132916 -0.10336,0.227456 -0.525,0.210088 -0.466,-0.0192 -0.56076,-0.113976 -0.24168,-0.241664 z m 7.2,0 c 0.28876,-0.115548 0.63376,-0.10134 0.76668,0.03156 0.13292,0.132916 -0.10336,0.227456 -0.525,0.210088 -0.466,-0.0192 -0.56076,-0.113976 -0.24168,-0.241664 z m -146.55016,-1.826756 -1.17484,-1.3 1.3,1.174836 c 0.715,0.64616 1.3,1.23116 1.3,1.3 0,0.309024 -0.33005,0.03696 -1.42516,-1.174836 z M 391.3,51.708615 c 0.825,-0.0863 2.175,-0.0863 3,0 0.825,0.0863 0.15,0.156904 -1.5,0.156904 -1.65,0 -2.325,-0.0706 -1.5,-0.156904 z m 68.3,-2.659636 c 0,-0.08306 0.315,-0.39806 0.7,-0.7 0.63444,-0.497548 0.64856,-0.4834 0.15104,0.151024 -0.52256,0.6663 -0.85104,0.878192 -0.85104,0.548976 z m 78.03156,-2.082308 c 0.0192,-0.46598 0.114,-0.56076 0.24168,-0.241668 0.11556,0.288748 0.10136,0.633748 -0.0316,0.766668 -0.13292,0.132916 -0.22748,-0.103336 -0.21012,-0.525 z M 462,47.048979 c 0,-0.08306 0.315,-0.39806 0.7,-0.7 0.63444,-0.497548 0.64856,-0.4834 0.15104,0.151024 C 462.32848,47.166303 462,47.378195 462,47.048979 Z m 368.325,-1.32222 c 0.28876,-0.115548 0.63376,-0.10134 0.76668,0.03156 0.13292,0.13292 -0.10336,0.227456 -0.525,0.210088 -0.466,-0.0192 -0.56076,-0.113976 -0.24168,-0.241664 z M 596.7,45.317711 c 0.495,-0.09534 1.305,-0.09534 1.8,0 0.495,0.09534 0.09,0.173348 -0.9,0.173348 -0.99,0 -1.395,-0.07801 -0.9,-0.173348 z m -59.36876,-2.717708 c 0,-1.54 0.0741,-2.120984 0.16068,-1.29108 0.0866,0.829908 0.0851,2.089908 -0.004,2.8 -0.0884,0.710096 -0.1592,0.03108 -0.15744,-1.50892 z m 68.37424,2.312968 c 0.60804,-0.09194 1.50804,-0.08948 2,0.0054 0.492,0.09494 -0.006,0.170168 -1.10548,0.167168 -1.1,-0.0032 -1.50252,-0.08069 -0.89452,-0.172628 z m 9.2,-0.4 c 0.60804,-0.09194 1.50804,-0.08948 2,0.0054 0.492,0.09494 -0.006,0.170168 -1.10548,0.167168 -1.1,-0.0032 -1.50252,-0.08069 -0.89452,-0.172628 z m 221.81952,0.0138 c 0.28876,-0.115548 0.63376,-0.10134 0.76668,0.03156 0.13292,0.13292 -0.10336,0.227456 -0.525,0.210088 -0.466,-0.0192 -0.56076,-0.113976 -0.24168,-0.241664 z M 280.1,42.502679 c 1.705,-0.07498 4.495,-0.07498 6.2,0 1.705,0.07498 0.31,0.136328 -3.1,0.136328 -3.41,0 -4.805,-0.06135 -3.1,-0.136328 z m 166.8,0 c 1.705,-0.07498 4.495,-0.07498 6.2,0 1.705,0.07498 0.31,0.136328 -3.1,0.136328 -3.41,0 -4.805,-0.06135 -3.1,-0.136328 z m 111.13156,-0.736008 c 0.0192,-0.46598 0.114,-0.56076 0.24168,-0.241668 0.11556,0.288748 0.10136,0.633748 -0.0316,0.766668 -0.13292,0.132916 -0.22748,-0.103336 -0.21012,-0.525 z m 59.2316,-0.566668 c 0,-0.55 0.0908,-0.775 0.20176,-0.5 0.11096,0.275 0.11096,0.725 0,1 -0.11096,0.275 -0.20176,0.05 -0.20176,-0.5 z M 305.925,41.326759 c 0.28875,-0.115548 0.63375,-0.10134 0.76667,0.03156 0.13291,0.13292 -0.10334,0.227456 -0.525,0.210088 -0.46598,-0.0192 -0.56076,-0.113976 -0.24167,-0.241664 z m 11.6,0 c 0.28875,-0.115548 0.63375,-0.10134 0.76667,0.03156 0.13291,0.13292 -0.10334,0.227456 -0.525,0.210088 -0.46598,-0.0192 -0.56076,-0.113976 -0.24167,-0.241664 z m 68.4,0 c 0.28875,-0.115548 0.63375,-0.10134 0.76667,0.03156 0.13291,0.13292 -0.10334,0.227456 -0.525,0.210088 -0.46598,-0.0192 -0.56076,-0.113976 -0.24167,-0.241664 z m 12.8,0 c 0.28875,-0.115548 0.63375,-0.10134 0.76667,0.03156 0.13291,0.13292 -0.10334,0.227456 -0.525,0.210088 -0.46598,-0.0192 -0.56076,-0.113976 -0.24167,-0.241664 z m 87.6,0 c 0.28876,-0.115548 0.63376,-0.10134 0.76668,0.03156 0.13292,0.13292 -0.10336,0.227456 -0.525,0.210088 -0.466,-0.0192 -0.56076,-0.113976 -0.24168,-0.241664 z m -177.62034,-0.40966 c 0.49757,-0.09568 1.21757,-0.09204 1.6,0.0081 0.38244,0.100116 -0.0247,0.1784 -0.90466,0.17396 -0.88,-0.0044 -1.1929,-0.08636 -0.69534,-0.182032 z m 4.99534,0.0072 c 0.385,-0.100608 1.015,-0.100608 1.4,0 0.385,0.100612 0.07,0.182932 -0.7,0.182932 -0.77,0 -1.085,-0.08232 -0.7,-0.182932 z m 75.4,-0.0066 c 0.495,-0.09534 1.305,-0.09534 1.8,0 0.495,0.09534 0.09,0.173348 -0.9,0.173348 -0.99,0 -1.395,-0.07801 -0.9,-0.173348 z m 5.20466,-8e-4 c 0.49757,-0.09568 1.21757,-0.09204 1.6,0.0081 0.38244,0.100116 -0.0247,0.1784 -0.90466,0.17396 -0.88,-0.0044 -1.1929,-0.08636 -0.69534,-0.182032 z m 83.19534,8e-4 c 0.495,-0.09534 1.305,-0.09534 1.8,0 0.495,0.09534 0.09,0.173348 -0.9,0.173348 -0.99,0 -1.395,-0.07801 -0.9,-0.173348 z m 4.80468,-8e-4 c 0.49756,-0.09568 1.21756,-0.09204 1.6,0.0081 0.3824,0.100116 -0.0248,0.1784 -0.90468,0.17396 -0.88,-0.0044 -1.19292,-0.08636 -0.69532,-0.182032 z m 75.75848,-1.716896 c 0,-0.55 0.0908,-0.775 0.20176,-0.5 0.11096,0.275 0.11096,0.725 0,1 -0.11096,0.275 -0.20176,0.05 -0.20176,-0.5 z m 140.11168,-0.900001 -1.17484,-1.3 1.3,1.174837 c 1.2118,1.095112 1.48388,1.425164 1.17484,1.425164 -0.0688,0 -0.65384,-0.585 -1.3,-1.300001 z m 115.77412,-1.8 c -0.49752,-0.634422 -0.4834,-0.64857 0.15104,-0.151022 0.385,0.301938 0.7,0.616938 0.7,0.7 0,0.329214 -0.32848,0.117322 -0.85104,-0.548978 z m -579.76148,-3 -2.38748,-2.5 2.5,2.387479 c 1.375,1.313113 2.5,2.438113 2.5,2.5 0,0.295561 -0.39476,-0.06519 -2.61252,-2.387479 z m 356.591,1 -1.37848,-1.5 1.5,1.378467 c 1.39616,1.283047 1.68392,1.621533 1.37848,1.621533 -0.0668,0 -0.74184,-0.675 -1.5,-1.5 z m -30.57848,0.3 c 0.3982,-0.44 0.814,-0.8 0.924,-0.8 0.11,0 -0.1258,0.36 -0.524,0.8 -0.3982,0.44 -0.814,0.8 -0.924,0.8 -0.11,0 0.1258,-0.36 0.524,-0.8 z M 182.8,34.24898 c 0,-0.08306 0.315,-0.398062 0.7,-0.7 0.63442,-0.497548 0.64857,-0.4834 0.15102,0.151022 C 183.12848,34.366301 182.8,34.578194 182.8,34.24898 Z m 502.325,-1.722223 c 0.28876,-0.115549 0.63376,-0.101338 0.76668,0.03158 0.13292,0.132916 -0.10336,0.227456 -0.525,0.210088 -0.466,-0.01919 -0.56076,-0.113977 -0.24168,-0.241668 z M 678.9,32.1135 c 0.605,-0.09165 1.595,-0.09165 2.2,0 0.605,0.09165 0.11,0.166637 -1.1,0.166637 -1.21,0 -1.705,-0.07499 -1.1,-0.166637 z m 75.5,-1.06452 c 0,-0.08306 0.315,-0.398062 0.7,-0.7 0.63444,-0.497548 0.64856,-0.4834 0.15104,0.151022 C 754.72848,31.166301 754.4,31.378194 754.4,31.04898 Z m 36.325,-0.122224 c 0.28876,-0.115548 0.63376,-0.101337 0.76668,0.03158 0.13292,0.132917 -0.10336,0.227457 -0.525,0.210088 -0.466,-0.01919 -0.56076,-0.113976 -0.24168,-0.241666 z m 4.175,-0.418141 c 0.825,-0.0863 2.175,-0.0863 3,0 0.825,0.0863 0.15,0.156905 -1.5,0.156905 -1.65,0 -2.325,-0.07061 -1.5,-0.156905 z M 571.7076,30.122806 c 0.3892,-0.101418 0.9292,-0.09475 1.2,0.01482 0.27084,0.109569 -0.0476,0.192547 -0.7076,0.184395 -0.66,-0.0082 -0.88156,-0.0978 -0.4924,-0.199217 z m 8.1924,0.01228 c 0.275,-0.110965 0.725,-0.110965 1,0 0.275,0.110965 0.05,0.201754 -0.5,0.201754 -0.55,0 -0.775,-0.09079 -0.5,-0.201754 z M 248.34898,28.900002 c -0.49755,-0.634423 -0.4834,-0.648571 0.15102,-0.151022 0.385,0.301937 0.7,0.616938 0.7,0.7 0,0.329214 -0.32848,0.117321 -0.85102,-0.548978 z m 469.19998,0 c -0.49752,-0.634423 -0.4834,-0.648571 0.15104,-0.151022 0.385,0.301937 0.7,0.616938 0.7,0.7 0,0.329214 -0.32848,0.117321 -0.85104,-0.548978 z M 756.4,28.674838 c 0,-0.06884 0.585,-0.65384 1.3,-1.3 l 1.3,-1.174836 -1.17484,1.3 C 756.73004,28.711784 756.4,28.983863 756.4,28.674838 Z M 170.8,27.84898 c 0,-0.08306 0.315,-0.398063 0.7,-0.7 0.63442,-0.497549 0.64857,-0.483401 0.15102,0.151022 C 171.12848,27.966301 170.8,28.178193 170.8,27.84898 Z m 544.74896,-1.348978 c -0.49752,-0.634423 -0.4834,-0.648571 0.15104,-0.151022 0.385,0.301937 0.7,0.616937 0.7,0.7 0,0.329213 -0.32848,0.117321 -0.85104,-0.548978 z m -470.37049,-1.2 -1.37847,-1.5 1.5,1.378466 c 1.39617,1.283047 1.68392,1.621534 1.37847,1.621534 -0.0669,0 -0.74185,-0.675 -1.5,-1.5 z m 588.77049,0.8 c -0.49752,-0.634423 -0.4834,-0.648571 0.15104,-0.151022 0.385,0.301937 0.7,0.616937 0.7,0.7 0,0.329213 -0.32848,0.117321 -0.85104,-0.548978 z m -120.77048,-2 -1.37848,-1.500001 1.5,1.378467 c 1.39616,1.283047 1.68392,1.621534 1.37848,1.621534 -0.0668,0 -0.74184,-0.675 -1.5,-1.5 z m 47.22152,0.5 c 0.51668,-0.55 1.02944,-1 1.13944,-1 0.11,0 -0.22276,0.45 -0.73944,1 -0.51668,0.55 -1.02944,1 -1.13944,1 -0.11,0 0.22276,-0.45 0.73944,-1 z m -150.45104,-0.5 c -0.49752,-0.634423 -0.4834,-0.648571 0.15104,-0.151022 0.66628,0.522547 0.8782,0.851022 0.54896,0.851022 -0.083,0 -0.39804,-0.315 -0.7,-0.7 z m -434.74896,-0.7 c 0.5167,-0.550001 1.02945,-1.000001 1.13945,-1.000001 0.11,0 -0.22275,0.45 -0.73945,1.000001 -0.5167,0.55 -1.02945,1 -1.13945,1 -0.11,0 0.22275,-0.45 0.73945,-1 z m 28.325,0.326754 c 0.28875,-0.115548 0.63375,-0.101338 0.76667,0.03158 0.13291,0.132917 -0.10334,0.227456 -0.525,0.210088 -0.46598,-0.01919 -0.56076,-0.113976 -0.24167,-0.241667 z m 4.575,-0.418142 c 0.825,-0.0863 2.175,-0.0863 3,0 0.825,0.0863 0.15,0.156905 -1.5,0.156905 -1.65,0 -2.325,-0.07061 -1.5,-0.156905 z m 33.44898,-1.208613 c -0.49755,-0.634422 -0.4834,-0.64857 0.15102,-0.151022 0.385,0.301938 0.7,0.616938 0.7,0.7 0,0.329214 -0.32848,0.117322 -0.85102,-0.548978 z m 305.25102,-1.1 c 0.51668,-0.55 1.02944,-1 1.13944,-1 0.11,0 -0.22276,0.45 -0.73944,1 -0.51668,0.55 -1.02944,1 -1.13944,1 -0.11,0 0.22276,-0.45 0.73944,-1 z m 59.94896,-0.1 c -0.49752,-0.634422 -0.4834,-0.64857 0.15104,-0.151022 0.385,0.301938 0.7,0.616938 0.7,0.7 0,0.329214 -0.32848,0.117322 -0.85104,-0.548978 z M 691.925,14.526755 c 0.28876,-0.115548 0.63376,-0.101337 0.76668,0.03158 0.13292,0.132917 -0.10336,0.227457 -0.525,0.210088 -0.466,-0.01919 -0.56076,-0.113976 -0.24168,-0.241666 z M 687.9,14.135089 c 0.275,-0.110965 0.725,-0.110965 1,0 0.275,0.110965 0.05,0.201754 -0.5,0.201754 -0.55,0 -0.775,-0.09079 -0.5,-0.201754 z m -38.62824,-0.434753 c 5.86948,-0.06231 15.58948,-0.06236 21.6,-1.14e-4 6.01052,0.06225 1.20824,0.113233 -10.67176,0.113296 -11.88,6.3e-5 -16.79772,-0.05087 -10.92824,-0.113182 z M 564.725,12.926755 c 0.28876,-0.115548 0.63376,-0.101337 0.76668,0.03158 0.13292,0.132917 -0.10336,0.227457 -0.525,0.210088 -0.466,-0.01919 -0.56076,-0.113976 -0.24168,-0.241667 z m 23.6,0 c 0.28876,-0.115548 0.63376,-0.101337 0.76668,0.03158 0.13292,0.132917 -0.10336,0.227457 -0.525,0.210088 -0.466,-0.01919 -0.56076,-0.113976 -0.24168,-0.241667 z m -20.8,-0.4 c 0.28876,-0.115548 0.63376,-0.101337 0.76668,0.03158 0.13292,0.132917 -0.10336,0.227457 -0.525,0.210088 -0.466,-0.01919 -0.56076,-0.113976 -0.24168,-0.241667 z m 18,0 c 0.28876,-0.115548 0.63376,-0.101337 0.76668,0.03158 0.13292,0.132917 -0.10336,0.227457 -0.525,0.210088 -0.466,-0.01919 -0.56076,-0.113976 -0.24168,-0.241667 z m 201.575,0.0083 c 0.275,-0.110965 0.725,-0.110965 1,0 0.275,0.110965 0.05,0.201755 -0.5,0.201755 -0.55,0 -0.775,-0.09079 -0.5,-0.201755 z m 19.225,-0.0083 c 0.28876,-0.115548 0.63376,-0.101337 0.76668,0.03158 0.13292,0.132917 -0.10336,0.227457 -0.525,0.210088 -0.466,-0.01919 -0.56076,-0.113976 -0.24168,-0.241667 z M 571.30548,12.112968 c 0.60804,-0.09194 1.50804,-0.08948 2,0.0055 0.492,0.09495 -0.006,0.17017 -1.10548,0.167167 -1.1,-0.003 -1.50252,-0.08069 -0.89452,-0.172627 z m 8.9992,0.0041 c 0.49756,-0.09568 1.21756,-0.09204 1.6,0.0081 0.3824,0.100117 -0.0248,0.178399 -0.90468,0.173959 -0.88,-0.0044 -1.19292,-0.08635 -0.69532,-0.182031 z M 790.9,12.124268 c 0.385,-0.10061 1.015,-0.10061 1.4,0 0.385,0.100612 0.07,0.18293 -0.7,0.18293 -0.77,0 -1.085,-0.08232 -0.7,-0.18293 z m 10.20468,-0.0072 c 0.49756,-0.09568 1.21756,-0.09204 1.6,0.0081 0.3824,0.100117 -0.0248,0.178399 -0.90468,0.173959 -0.88,-0.0044 -1.19292,-0.08635 -0.69532,-0.182031 z M 200.725,11.726755 c 0.28875,-0.115548 0.63375,-0.101337 0.76667,0.03158 0.13291,0.132917 -0.10334,0.227457 -0.525,0.210088 -0.46598,-0.01919 -0.56076,-0.113976 -0.24167,-0.241667 z m 16.8,0 c 0.28875,-0.115548 0.63375,-0.101337 0.76667,0.03158 0.13291,0.132917 -0.10334,0.227457 -0.525,0.210088 -0.46598,-0.01919 -0.56076,-0.113976 -0.24167,-0.241667 z m -13.81739,-0.403951 c 0.38919,-0.101417 0.92919,-0.09475 1.2,0.01482 0.27081,0.10957 -0.0476,0.192548 -0.70761,0.184396 -0.66,-0.0082 -0.88158,-0.0978 -0.49239,-0.199217 z M 213.9,11.335088 c 0.275,-0.110964 0.725,-0.110964 1,0 0.275,0.110966 0.05,0.201755 -0.5,0.201755 -0.55,0 -0.775,-0.09079 -0.5,-0.201755 z M 63.9,5.3350879 c 0.275,-0.1109648 0.725,-0.1109648 1,0 0.275,0.1109653 0.05,0.2017545 -0.5,0.2017545 -0.55,0 -0.775,-0.090789 -0.5,-0.2017545 z"
         id="path369" />
      <path
         style="fill:#0168a2;stroke-width:0.4"
         d="M 30.277567,65.34534 C 30.234905,65.303284 28.76,65.138408 27,64.978944 25.24,64.819484 23.26,64.639232 22.6,64.578384 21.94,64.517536 20.05,64.358732 18.4,64.225488 16.75,64.09224 14.68,63.906248 13.8,63.812172 12.92,63.718096 10.49,63.524504 8.4,63.38196 6.31,63.23942 4.519706,63.044872 4.4215688,62.949636 3.7816366,62.328608 6.3701656,51.085615 7.7253552,48.600003 c 0.239894,-0.44 0.4733028,-0.98 0.5186868,-1.2 0.1525784,-0.739632 1.3648312,-3.4 1.5492816,-3.4 0.2050048,0 13.2033384,6.467036 16.6066764,8.262288 1.21,0.638272 3.703656,1.831937 5.541457,2.652593 2.550337,1.138828 3.284803,1.639736 3.102167,2.115676 -0.131608,0.342968 -0.617802,2.006396 -1.080428,3.696512 -1.273057,4.650852 -1.395362,4.87786 -2.575398,4.7802 -0.567965,-0.04701 -1.067569,-0.119876 -1.110231,-0.161932 z m 6.578131,-33.845338 -9.62193,-10.500001 1.483116,-1.332629 c 2.77465,-2.493116 10.011611,-6.912382 14.138796,-8.633887 l 1.45568,-0.607184 2.410548,6.28685 c 1.325804,3.457768 3.595748,9.333519 5.04432,13.057227 C 53.214804,33.494084 54.4,36.776052 54.4,37.06364 c 0,0.287587 -0.855,0.966243 -1.9,1.508124 -1.045,0.541881 -2.71,1.534143 -3.7,2.205027 -0.99,0.670884 -1.917532,1.220556 -2.061188,1.2215 -0.143652,9.4e-4 -4.591052,-4.723289 -9.883114,-10.498289 z M 56.451944,29.857897 C 51.125912,16.299686 48.4,9.2557018 48.4,9.050999 c 0,-0.4253032 6.269252,-2.1783226 10,-2.7962174 2.09,-0.3461504 5.15,-0.6800832 6.8,-0.7420728 l 3,-0.1127084 V 19.800001 34.200002 l -2.422396,0.267262 c -1.332316,0.146995 -3.440196,0.533047 -4.684176,0.857895 l -2.26178,0.590633 z"
         id="path367" />
      <path
         style="fill:#020303;stroke-width:0.4"
         d="M 277.2,96.400006 V 42.800003 h 6 6 l 0.0127,5.1 0.0127,5.1 0.85197,-1.2 c 2.82388,-3.977448 8.4238,-8.114132 12.92269,-9.546036 4.89066,-1.5566 12.77933,-1.561908 18.17611,-0.01224 4.70413,1.350788 9.99593,4.707744 13.49098,8.558268 11.01622,12.136673 13.23592,36.668811 4.83094,53.391605 -1.35777,2.70147 -4.81448,7.48249 -6.54601,9.05388 -7.6501,6.94257 -18.5501,10.13967 -27.85031,8.16882 -4.79844,-1.01685 -10.32139,-4.26082 -13.58546,-7.97959 l -1.08376,-1.2347 -0.0162,18.9 -0.0163,18.9 h -6.6 -6.6 z m 40.55163,13.290044 c 3.66909,-1.72856 8.35125,-6.40161 10.10972,-10.090044 2.31103,-4.847468 3.01438,-8.547428 3.23164,-17.000001 0.15608,-6.072368 0.0599,-8.321636 -0.47861,-11.190152 -2.22933,-11.875517 -9.37194,-19.531906 -18.75216,-20.101018 -5.89976,-0.357944 -10.27377,1.50658 -14.82762,6.320613 -5.88642,6.222732 -8.16797,14.136025 -7.71845,26.770557 0.36841,10.354817 2.32316,16.002935 7.28385,21.046225 4.51152,4.58665 7.49818,5.79006 14,5.64101 4.01815,-0.0921 4.6388,-0.21336 7.15163,-1.39719 z M 572.4,122.76821 c -14.0846,-0.98249 -24.13968,-5.70893 -30.70148,-14.43144 -2.62212,-3.48552 -4.1596,-6.4739 -5.68392,-11.04776 -1.18248,-3.548124 -2.63612,-10.400808 -2.28152,-10.755408 0.24548,-0.245476 19.87872,-2.196325 20.38968,-2.026012 0.20712,0.06904 0.714,1.454188 1.1264,3.0781 1.65644,6.52262 5.4976,11.974984 10.2314,14.52306 6.32148,3.40266 17.93284,3.64971 24.7544,0.5267 2.88756,-1.32196 6.29772,-4.61132 7.66312,-7.391652 0.90952,-1.851996 1.10032,-2.767632 1.09264,-5.243792 -0.0108,-3.483824 -0.86276,-5.502356 -3.18192,-7.538617 -2.99656,-2.631004 -5.8266,-3.66032 -20.4088,-7.422888 -18.16516,-4.687052 -24.55848,-7.602553 -30.27656,-13.806737 -5.12292,-5.558464 -7.10052,-10.318113 -7.40896,-17.831761 -0.23144,-5.638901 0.36624,-8.826901 2.4728,-13.188948 C 544.82092,20.616006 553.3668,15.056679 567,12.76867 c 4.17504,-0.700684 16.03676,-0.600939 20.6624,0.17375 17.63972,2.95425 27.8986,12.929791 29.72404,28.903059 l 0.27944,2.445476 -3.13292,0.248388 c -1.72312,0.136612 -6.58804,0.366992 -10.81092,0.511952 l -7.67796,0.263564 -0.25796,-1.157428 c -2.23868,-10.044699 -7.88324,-14.157429 -19.4304,-14.157429 -6.33264,0 -10.24088,0.944663 -14.19668,3.43148 -3.6218,2.27684 -5.02808,6.177586 -3.58724,9.950313 1.72828,4.525512 6.79268,6.94444 23.11264,11.039397 19.34952,4.85512 27.6492,8.906304 32.99024,16.102949 3.49564,4.710152 5.06368,9.11664 5.74172,16.135525 0.78896,8.167416 -1.09844,15.136654 -5.9226,21.869014 -5.35196,7.46898 -13.92188,12.03443 -25.58792,13.63142 -5.583,0.76428 -11.26576,0.97364 -16.50588,0.60811 z m 217.4,-0.21984 c -19.63556,-2.93942 -32.50888,-11.61537 -39.83464,-26.846444 -8.56256,-17.802525 -8.45124,-40.415002 0.28212,-57.301924 2.61964,-5.065383 4.74284,-7.978218 8.85164,-12.14358 7.1284,-7.226528 16.69196,-11.893253 27.70088,-13.517188 4.75688,-0.70169 16.87968,-0.591206 21.60476,0.196899 14.18716,2.366299 23.70332,8.490743 29.70536,19.11785 1.62752,2.881645 4.63648,10.932764 4.23572,11.333532 -0.0828,0.08274 -4.6494,0.983752 -10.14816,2.002248 -5.49872,1.0185 -10.22816,1.928912 -10.50984,2.023144 -0.28172,0.09423 -0.71216,-0.320124 -0.9566,-0.920788 -2.313,-5.68414 -4.92528,-9.104408 -9.00664,-11.792428 -6.14244,-4.045445 -14.70724,-5.258986 -23.221,-3.29017 -10.77872,2.492592 -18.62692,10.566062 -21.31412,21.925878 -2.17944,9.213473 -1.5606,23.597786 1.36156,31.648291 3.10124,8.543832 9.89728,15.38106 17.99676,18.10577 3.04748,1.0252 3.68024,1.09309 10.0522,1.07853 6.22264,-0.0142 7.09792,-0.10698 10.30892,-1.0926 3.8056,-1.16812 10.66956,-4.445504 13.39108,-6.393916 L 822,95.46439 v -6.932192 -6.932193 h -12.4 -12.4 v -9.003224 -9.003225 l 23.3,0.103224 23.3,0.103224 0.10356,21.154722 c 0.081,16.535684 -0.006,21.289124 -0.4,21.770264 -1.355,1.65631 -7.43232,5.62355 -12.31368,8.03831 -6.0828,3.0091 -13.27356,5.52699 -19.58988,6.8595 -3.3954,0.71632 -5.77088,0.90705 -12.4,0.99563 -4.51,0.0603 -8.74,0.0287 -9.4,-0.0701 z M 199.6,121.3319 c -1.87,-0.32648 -5.02,-1.13123 -7,-1.78832 -20.18972,-6.70023 -32.83316,-24.446806 -34.44208,-48.343575 -0.3082,-4.577529 0.41634,-14.001297 1.47127,-19.136174 3.4847,-16.961803 13.30653,-29.81998 27.77081,-36.35596 7.99244,-3.611544 18.96551,-5.207458 28.21049,-4.102907 20.12814,2.404823 35.30799,14.664405 41.54051,33.549035 2.56183,7.762376 3.39849,14.087393 3.14653,23.787205 -0.21846,8.409977 -0.87932,12.503577 -3.08537,19.111954 -4.36625,13.079382 -11.96338,22.315422 -23.07708,28.055422 -4.53972,2.34467 -10.76614,4.4294 -15.70557,5.25852 -4.72624,0.79334 -14.18519,0.77566 -18.82951,-0.0352 z m 19.98454,-12.51876 c 8.31668,-2.40425 15.78594,-8.18587 20.34858,-15.750938 6.89846,-11.437945 8.13464,-31.54295 2.83841,-46.163299 -4.27377,-11.79783 -13.57797,-20.175894 -25.31938,-22.79911 -3.82381,-0.854298 -12.2611,-0.828823 -16.19017,0.04888 -11.94621,2.668642 -21.50907,10.83109 -25.37586,21.659767 -1.5858,4.440912 -2.61261,9.912937 -3.07085,16.365005 -1.20208,16.925677 2.60971,29.387046 11.63985,38.052525 4.42665,4.2479 7.85058,6.36873 13.14488,8.14213 4.06946,1.36312 6.1486,1.59832 12.8,1.44798 4.8509,-0.10965 6.84942,-0.32789 9.18454,-1.00294 z M 386,121.55751 c -3.42418,-0.52368 -9.23935,-2.49245 -11.96046,-4.04931 -11.07758,-6.33795 -16.8256,-17.14745 -17.49911,-32.908194 -0.79985,-18.716898 5.67416,-32.416539 18.68764,-39.544883 7.07811,-3.877148 18.5212,-5.070648 27.25905,-2.843084 3.46012,0.882096 8.39584,3.327572 11.56132,5.728192 C 422.87424,54.633556 428,67.162528 428,82.042385 v 2.757621 h -29.0587 -29.05869 l 0.25061,2.9 c 0.7306,8.45418 4.85122,16.089584 10.82189,20.052694 1.17248,0.77824 3.55223,1.89218 5.28833,2.4754 2.89477,0.97246 3.55464,1.04542 7.95656,0.87964 4.02823,-0.15171 5.22127,-0.35346 7.42008,-1.2548 4.6934,-1.9239 8.27228,-5.59672 11.01976,-11.30895 0.93944,-1.95324 1.64216,-2.93942 2.08808,-2.930424 1.6934,0.03416 12.06928,1.450312 12.29736,1.6784 0.35052,0.350524 -0.8814,3.996554 -2.33412,6.908044 -4.28004,8.57786 -11.1934,14.18748 -20.49116,16.62683 -3.73416,0.97969 -13.90244,1.38791 -18.2,0.73067 z m 28,-48.574369 c 0,-0.559276 -0.28316,-2.404276 -0.6292,-4.100001 -2.0264,-9.92942 -9.36352,-16.496245 -19.15998,-17.148417 -11.8486,-0.788792 -21.68578,7.541721 -23.34007,19.765282 l -0.33834,2.5 H 392.2662 414 Z m 224.8,-5.379969 v -53.65509 l 26.1,0.166502 c 27.9356,0.178212 29.10264,0.255885 35.20336,2.342949 9.78944,3.348996 17.45216,10.271351 22.2968,20.142469 3.4408,7.010769 5.15136,13.562125 5.97104,22.868838 1.94312,22.063129 -3.26304,40.220122 -14.61288,50.96348 -5.04484,4.7753 -12.58676,8.30506 -20.98736,9.82254 -3.216,0.58092 -7.46496,0.70488 -28.87096,0.84229 l -25.1,0.16111 z m 50.72952,34.645208 c 7.742,-1.99818 12.05692,-6.27175 14.5882,-14.448374 1.82424,-5.892581 2.08328,-8.449249 2.06716,-20.400002 -0.0132,-9.870188 -0.1152,-11.65736 -0.85824,-15.052009 -1.57252,-7.184116 -5.13864,-13.217884 -9.53792,-16.137957 -5.08136,-3.37282 -10.12708,-4.210036 -25.37296,-4.210036 H 660.4 v 35.640102 35.640106 l 13.3,-0.18949 c 10.52568,-0.14995 13.82764,-0.32566 15.82952,-0.84234 z M 444,81.600005 V 42.800003 h 6 6 l 0.0128,5.5 0.0128,5.500001 0.85072,-1.200001 c 1.54908,-2.184996 6.21076,-6.47656 8.38404,-7.718404 5.1434,-2.938984 12.32932,-4.305868 19.06568,-3.626616 9.64648,0.972692 16.66056,5.216288 19.87016,12.021628 2.88104,6.108641 2.75356,4.467981 2.90756,37.423395 l 0.1388,29.700004 h -6.62116 -6.62116 l -0.007,-26.900004 c -0.008,-29.10743 -0.0998,-30.564274 -2.15952,-34.078886 -1.33336,-2.27522 -3.86308,-4.49052 -6.58552,-5.767049 -2.08676,-0.978456 -2.63536,-1.05316 -7.648,-1.041388 -4.97776,0.01168 -5.60332,0.09866 -8,1.112244 -7.33708,3.102905 -10.81164,8.186573 -11.9836,17.53337 -0.24504,1.954016 -0.4164,12.749968 -0.4164,26.231217 v 22.910496 h -6.6 -6.6 V 81.600005 Z"
         id="path365" />
    </g>
  </g>
</svg>
