<?xml version="1.0" encoding="UTF-8" standalone="no"?>
<svg
   version="1.1"
   id="svg4"
   width="66.779297"
   height="9.0878906"
   xmlns="http://www.w3.org/2000/svg"
   xmlns:svg="http://www.w3.org/2000/svg">
  <defs
     id="defs8" />
  <g
     aria-label="OSeMOSYS"
     id="text2"
     transform="translate(-0.67382812,8.90625)">
    <path
       d="m 7.6757812,-7.7226562 q 0.5332032,0.5859375 0.8144532,1.4355468 0.2871094,0.8496094 0.2871094,1.9277344 0,1.078125 -0.2929688,1.9335937 -0.2871094,0.8496094 -0.8085938,1.4179688 -0.5390625,0.59179687 -1.2773437,0.890625 -0.7324219,0.29882812 -1.6757813,0.29882812 -0.9199218,0 -1.6757812,-0.30468749 -0.75,-0.30468751 -1.2773438,-0.88476563 -0.5273437,-0.5800781 -0.81445307,-1.4238281 -0.28125001,-0.84375 -0.28125001,-1.9277344 0,-1.0664062 0.28125001,-1.9101562 Q 1.2363281,-7.1191406 1.7753906,-7.7226562 2.2910156,-8.296875 3.0527344,-8.6015625 3.8203125,-8.90625 4.7226562,-8.90625 q 0.9375,0 1.6816407,0.3105469 0.75,0.3046875 1.2714843,0.8730469 z M 7.5703125,-4.359375 q 0,-1.6992187 -0.7617188,-2.6191406 -0.7617187,-0.9257813 -2.0800781,-0.9257813 -1.3300781,0 -2.0917968,0.9257813 -0.7558594,0.9199219 -0.7558594,2.6191406 0,1.7167969 0.7734375,2.6308594 0.7734375,0.9082031 2.0742187,0.9082031 1.3007813,0 2.0683594,-0.9082031 0.7734375,-0.9140625 0.7734375,-2.6308594 z"
       id="path10" />
    <path
       d="m 16.957031,-2.4902344 q 0,0.5097657 -0.240234,1.0078125 -0.234375,0.4980469 -0.66211,0.84375003 -0.468749,0.37499999 -1.095703,0.5859375 -0.621093,0.21093749 -1.5,0.21093749 -0.943359,0 -1.699218,-0.17578125 -0.75,-0.17578124 -1.529297,-0.52148437 v -1.453125 h 0.08203 q 0.662109,0.5507813 1.529297,0.8496094 0.867187,0.2988281 1.628906,0.2988281 1.078125,0 1.675781,-0.4042969 Q 15.75,-1.6523437 15.75,-2.3261719 q 0,-0.5800781 -0.287109,-0.8554687 -0.28125,-0.2753907 -0.861328,-0.4277344 -0.439454,-0.1171875 -0.955079,-0.1933594 -0.509765,-0.076172 -1.083984,-0.1933594 -1.160156,-0.2460937 -1.722656,-0.8378906 -0.556641,-0.5976562 -0.556641,-1.5527343 0,-1.0957032 0.925781,-1.7929688 0.925782,-0.703125 2.34961,-0.703125 0.919922,0 1.6875,0.1757812 0.767578,0.1757813 1.359375,0.4335938 v 1.3710938 h -0.08203 q -0.498046,-0.421875 -1.312499,-0.6972657 -0.808594,-0.28125 -1.658204,-0.28125 -0.93164,0 -1.5,0.3867188 -0.5625,0.3867187 -0.5625,0.9960937 0,0.5449219 0.28125,0.8554688 0.28125,0.3105469 0.990235,0.4746094 0.375,0.082031 1.066406,0.1992187 0.691406,0.1171875 1.171875,0.2402344 0.972656,0.2578125 1.464844,0.7792968 0.492187,0.5214844 0.492187,1.4589844 z"
       id="path12" />
    <path
       d="m 24.210937,-3.1582031 h -4.822265 q 0,0.6035156 0.18164,1.0546875 0.181641,0.4453125 0.498047,0.7324219 0.304688,0.28125 0.720703,0.42187495 0.421875,0.140625 0.925782,0.140625 0.667968,0 1.341797,-0.26367185 0.679687,-0.2695313 0.966796,-0.5273438 h 0.05859 v 1.2011719 q -0.55664,0.234375 -1.136719,0.39257812 -0.580078,0.15820313 -1.21875,0.15820313 -1.628906,0 -2.542968,-0.87890625 -0.914063,-0.8847656 -0.914063,-2.5078125 0,-1.6054687 0.873047,-2.5488281 0.878906,-0.9433594 2.308594,-0.9433594 1.324219,0 2.039062,0.7734375 0.720703,0.7734375 0.720703,2.1972656 z m -1.072265,-0.84375 q -0.0059,-0.8671875 -0.439453,-1.3417969 -0.427735,-0.4746094 -1.306641,-0.4746094 -0.884766,0 -1.412109,0.5214844 -0.521485,0.5214844 -0.591797,1.2949219 z"
       id="path14" />
    <path
       d="m 33.738281,0 h -1.160156 v -7.5175781 l -2.425781,5.1152343 H 29.460937 L 27.052734,-7.5175781 V 0 H 25.96875 v -8.7246094 h 1.582031 l 2.326172,4.8574219 2.25,-4.8574219 h 1.611328 z"
       id="path16" />
    <path
       d="m 42.585937,-7.7226562 q 0.533204,0.5859375 0.814454,1.4355468 0.287109,0.8496094 0.287109,1.9277344 0,1.078125 -0.292969,1.9335937 -0.287109,0.8496094 -0.808594,1.4179688 -0.539062,0.59179687 -1.277343,0.890625 -0.732422,0.29882812 -1.675782,0.29882812 -0.919921,0 -1.675781,-0.30468749 -0.75,-0.30468751 -1.277344,-0.88476563 -0.527343,-0.5800781 -0.814453,-1.4238281 -0.28125,-0.84375 -0.28125,-1.9277344 0,-1.0664062 0.28125,-1.9101562 0.28125,-0.8496094 0.820313,-1.453125 0.515625,-0.5742188 1.277344,-0.8789063 0.767578,-0.3046875 1.669921,-0.3046875 0.9375,0 1.681641,0.3105469 0.75,0.3046875 1.271484,0.8730469 z m -0.105468,3.3632812 q 0,-1.6992187 -0.761719,-2.6191406 -0.761719,-0.9257813 -2.080078,-0.9257813 -1.330078,0 -2.091797,0.9257813 -0.755859,0.9199219 -0.755859,2.6191406 0,1.7167969 0.773437,2.6308594 0.773438,0.9082031 2.074219,0.9082031 1.300781,0 2.068359,-0.9082031 0.773438,-0.9140625 0.773438,-2.6308594 z"
       id="path18" />
    <path
       d="m 51.867187,-2.4902344 q 0,0.5097657 -0.240234,1.0078125 -0.234375,0.4980469 -0.662109,0.84375003 -0.46875,0.37499999 -1.095703,0.5859375 -0.621094,0.21093749 -1.5,0.21093749 -0.94336,0 -1.699219,-0.17578125 -0.75,-0.17578124 -1.529297,-0.52148437 v -1.453125 h 0.08203 q 0.66211,0.5507813 1.529297,0.8496094 0.867188,0.2988281 1.628906,0.2988281 1.078125,0 1.675782,-0.4042969 0.603515,-0.4042968 0.603515,-1.078125 0,-0.5800781 -0.287109,-0.8554687 Q 50.091796,-3.4570313 49.511718,-3.609375 49.072265,-3.7265625 48.55664,-3.8027344 48.046874,-3.8789064 47.472655,-3.9960938 46.3125,-4.2421875 45.75,-4.8339844 q -0.556641,-0.5976562 -0.556641,-1.5527343 0,-1.0957032 0.925782,-1.7929688 0.925781,-0.703125 2.349609,-0.703125 0.919922,0 1.6875,0.1757812 0.767578,0.1757813 1.359375,0.4335938 v 1.3710938 h -0.08203 q -0.498047,-0.421875 -1.3125,-0.6972657 -0.808594,-0.28125 -1.658203,-0.28125 -0.931641,0 -1.5,0.3867188 -0.5625,0.3867187 -0.5625,0.9960937 0,0.5449219 0.28125,0.8554688 0.28125,0.3105469 0.990234,0.4746094 0.375,0.082031 1.066406,0.1992187 0.691406,0.1171875 1.171875,0.2402344 0.972656,0.2578125 1.464844,0.7792968 0.492187,0.5214844 0.492186,1.4589844 z"
       id="path20" />
    <path
       d="m 59.90625,-8.7246094 -3.070313,4.8984375 V 0 H 55.675781 V -3.703125 L 52.59375,-8.7246094 h 1.283203 l 2.384766,3.9023438 2.408203,-3.9023438 z"
       id="path22" />
    <path
       d="m 67.453125,-2.4902344 q 0,0.5097657 -0.240234,1.0078125 -0.234375,0.4980469 -0.66211,0.84375003 -0.46875,0.37499999 -1.095703,0.5859375 -0.621094,0.21093749 -1.5,0.21093749 -0.943359,0 -1.699219,-0.17578125 -0.75,-0.17578124 -1.529297,-0.52148437 v -1.453125 h 0.08203 q 0.662109,0.5507813 1.529297,0.8496094 0.867187,0.2988281 1.628906,0.2988281 1.078125,0 1.675781,-0.4042969 0.603516,-0.4042968 0.603516,-1.078125 0,-0.5800781 -0.28711,-0.8554687 -0.28125,-0.2753907 -0.861328,-0.4277344 -0.439453,-0.1171875 -0.955078,-0.1933594 -0.509766,-0.076172 -1.083984,-0.1933594 -1.160157,-0.2460937 -1.722657,-0.8378906 -0.55664,-0.5976562 -0.55664,-1.5527343 0,-1.0957032 0.925781,-1.7929688 0.925781,-0.703125 2.349609,-0.703125 0.919922,0 1.6875,0.1757812 0.767579,0.1757813 1.359375,0.4335938 v 1.3710938 h -0.08203 q -0.498047,-0.421875 -1.3125,-0.6972657 -0.808594,-0.28125 -1.658203,-0.28125 -0.931641,0 -1.5,0.3867188 -0.5625,0.3867187 -0.5625,0.9960937 0,0.5449219 0.28125,0.8554688 0.28125,0.3105469 0.990234,0.4746094 0.375,0.082031 1.066407,0.1992187 0.691406,0.1171875 1.171875,0.2402344 0.972656,0.2578125 1.464843,0.7792968 0.492188,0.5214844 0.492189,1.4589844 z"
       id="path24" />
  </g>
</svg>
