<?xml version="1.0" encoding="utf-8"?>
<!-- Generator: Adobe Illustrator 16.0.4, SVG Export Plug-In . SVG Version: 6.00 Build 0)  -->
<!DOCTYPE svg PUBLIC "-//W3C//DTD SVG 1.1//EN" "http://www.w3.org/Graphics/SVG/1.1/DTD/svg11.dtd">
<svg version="1.1" id="Layer_1" xmlns="http://www.w3.org/2000/svg" xmlns:xlink="http://www.w3.org/1999/xlink" x="0px" y="0px"
	 width="432px" height="391px" viewBox="-92 -93.5 432 391" enable-background="new -92 -93.5 432 391" xml:space="preserve">
<g id="Page-1">
	<g id="Osisoft">
		<g id="Rectangle">
			<rect x="3.32812" y="2" fill="#FFFFFF" width="198" height="198"/>
		</g>
		<g id="Shape">
			<path d="M202.44922,201.12012H2.19824v-200.25h200.25098V201.12012z M4.44824,198.87012h195.75098v-195.75H4.44824V198.87012z"/>
		</g>
		<g id="Path">
			<g>
				<defs>
					<path id="SVGID_1_" d="M20.36816,105.48047c0.79443-5.76611,3.67236-11.0415,8.08984-14.83057
						c6.11035-5.18994,13.68018-7.87012,19.68018-11.6001c3.58984-2.24951,6.97314-4.8125,10.10986-7.65967l0.3999,0.14014
						c-0.62012,3.04053-1.75635,5.95264-3.35986,8.60986c-1.48975,2.63965-4.73975,7.23975-12.37988,10.13965l-1.77002,4.49023
						c-3.31982,1.39014-8.41016,3-8.41016,3l-4.08984-0.52979C25.33838,98.06006,20.36816,105.48047,20.36816,105.48047z"/>
				</defs>
				<clipPath id="SVGID_2_">
					<use xlink:href="#SVGID_1_"  overflow="visible"/>
				</clipPath>
				<polygon clip-path="url(#SVGID_2_)" fill="#B3B3B3" points="20.36719,100.82031 24.55078,105.48047 20.36719,105.48047 				"/>
				<polygon clip-path="url(#SVGID_2_)" fill="#B3B3B3" points="20.36719,100.51562 24.82422,105.48047 24.53906,105.48047 
					20.36719,100.83203 				"/>
				<polygon clip-path="url(#SVGID_2_)" fill="#B4B4B4" points="20.36719,100.19531 25.10938,105.48047 24.82422,105.48047 
					20.36719,100.51562 				"/>
				<polygon clip-path="url(#SVGID_2_)" fill="#B5B5B5" points="20.36719,99.87891 25.39453,105.48047 25.10938,105.48047 
					20.36719,100.19531 				"/>
				<polygon clip-path="url(#SVGID_2_)" fill="#B6B6B6" points="20.36719,99.5625 25.67969,105.48047 25.39453,105.48047 
					20.36719,99.87891 				"/>
				<polygon clip-path="url(#SVGID_2_)" fill="#B7B7B7" points="20.36719,99.24219 25.96875,105.48047 25.67969,105.48047 
					20.36719,99.5625 				"/>
				<polygon clip-path="url(#SVGID_2_)" fill="#B8B8B8" points="20.36719,98.92578 26.25391,105.48047 25.96875,105.48047 
					20.36719,99.24219 				"/>
				<polygon clip-path="url(#SVGID_2_)" fill="#B9B9B9" points="20.36719,98.60547 26.53906,105.48047 26.25391,105.48047 
					20.36719,98.92578 				"/>
				<polygon clip-path="url(#SVGID_2_)" fill="#BABABA" points="20.36719,98.28906 26.82422,105.48047 26.53906,105.48047 
					20.36719,98.60547 				"/>
				<polygon clip-path="url(#SVGID_2_)" fill="#BBBBBB" points="20.36719,97.96875 27.10938,105.48047 26.82422,105.48047 
					20.36719,98.28906 				"/>
				<polygon clip-path="url(#SVGID_2_)" fill="#BCBCBC" points="20.36719,97.65234 27.39453,105.48047 27.10938,105.48047 
					20.36719,97.96875 				"/>
				<polygon clip-path="url(#SVGID_2_)" fill="#BDBDBD" points="20.36719,97.33203 27.67969,105.48047 27.39453,105.48047 
					20.36719,97.65234 				"/>
				<polygon clip-path="url(#SVGID_2_)" fill="#BEBEBE" points="20.36719,97.01562 27.96484,105.48047 27.67969,105.48047 
					20.36719,97.33203 				"/>
				<polygon clip-path="url(#SVGID_2_)" fill="#BFBFBF" points="20.36719,96.69531 28.25,105.48047 27.96484,105.48047 
					20.36719,97.01562 				"/>
				<polygon clip-path="url(#SVGID_2_)" fill="#C0C0C0" points="20.36719,96.37891 28.53906,105.48047 28.25,105.48047 
					20.36719,96.69531 				"/>
				<polygon clip-path="url(#SVGID_2_)" fill="#C1C1C1" points="20.36719,96.0625 28.82422,105.48047 28.53906,105.48047 
					20.36719,96.37891 				"/>
				<polygon clip-path="url(#SVGID_2_)" fill="#C2C2C2" points="20.36719,95.74219 29.10938,105.48047 28.82422,105.48047 
					20.36719,96.0625 				"/>
				<polygon clip-path="url(#SVGID_2_)" fill="#C3C3C3" points="20.36719,95.42578 29.39453,105.48047 29.10938,105.48047 
					20.36719,95.74219 				"/>
				<polygon clip-path="url(#SVGID_2_)" fill="#C4C4C4" points="20.36719,95.10547 29.67969,105.48047 29.39453,105.48047 
					20.36719,95.42578 				"/>
				<polygon clip-path="url(#SVGID_2_)" fill="#C6C6C6" points="20.36719,94.78906 29.96484,105.48047 29.67969,105.48047 
					20.36719,95.10547 				"/>
				<polygon clip-path="url(#SVGID_2_)" fill="#C7C7C7" points="20.36719,94.46875 30.25,105.48047 29.96484,105.48047 
					20.36719,94.78906 				"/>
				<polygon clip-path="url(#SVGID_2_)" fill="#C8C8C8" points="20.36719,94.15234 30.53516,105.48047 30.25,105.48047 
					20.36719,94.46875 				"/>
				<polygon clip-path="url(#SVGID_2_)" fill="#C9C9C9" points="20.36719,93.83203 30.82031,105.48047 30.53516,105.48047 
					20.36719,94.15234 				"/>
				<polygon clip-path="url(#SVGID_2_)" fill="#CACACA" points="20.36719,93.51562 31.10938,105.48047 30.82031,105.48047 
					20.36719,93.83203 				"/>
				<polygon clip-path="url(#SVGID_2_)" fill="#CBCBCB" points="20.36719,93.19531 31.39453,105.48047 31.10938,105.48047 
					20.36719,93.51562 				"/>
				<polygon clip-path="url(#SVGID_2_)" fill="#CCCCCC" points="20.36719,92.87891 31.67969,105.48047 31.39453,105.48047 
					20.36719,93.19531 				"/>
				<polygon clip-path="url(#SVGID_2_)" fill="#CDCDCD" points="20.36719,92.5625 31.96484,105.48047 31.67969,105.48047 
					20.36719,92.87891 				"/>
				<polygon clip-path="url(#SVGID_2_)" fill="#CECECE" points="20.36719,92.24219 32.25,105.48047 31.96484,105.48047 
					20.36719,92.5625 				"/>
				<polygon clip-path="url(#SVGID_2_)" fill="#CFCFCF" points="20.36719,91.92578 32.53516,105.48047 32.25,105.48047 
					20.36719,92.24219 				"/>
				<polygon clip-path="url(#SVGID_2_)" fill="#D0D0D0" points="20.36719,91.60547 32.82031,105.48047 32.53516,105.48047 
					20.36719,91.92578 				"/>
				<polygon clip-path="url(#SVGID_2_)" fill="#D1D1D1" points="20.36719,91.28906 33.10547,105.48047 32.82031,105.48047 
					20.36719,91.60547 				"/>
				<polygon clip-path="url(#SVGID_2_)" fill="#D2D2D2" points="20.36719,90.96875 33.39062,105.48047 33.10547,105.48047 
					20.36719,91.28906 				"/>
				<polygon clip-path="url(#SVGID_2_)" fill="#D3D3D3" points="20.36719,90.65234 33.67969,105.48047 33.39062,105.48047 
					20.36719,90.96875 				"/>
				<polygon clip-path="url(#SVGID_2_)" fill="#D4D4D4" points="20.36719,90.33203 33.96484,105.48047 33.67969,105.48047 
					20.36719,90.65234 				"/>
				<polygon clip-path="url(#SVGID_2_)" fill="#D5D5D5" points="20.36719,90.01562 34.25,105.48047 33.96484,105.48047 
					20.36719,90.33203 				"/>
				<polygon clip-path="url(#SVGID_2_)" fill="#D6D6D6" points="20.36719,89.69531 34.53516,105.48047 34.25,105.48047 
					20.36719,90.01562 				"/>
				<polygon clip-path="url(#SVGID_2_)" fill="#D7D7D7" points="20.36719,89.37891 34.82031,105.48047 34.53516,105.48047 
					20.36719,89.69531 				"/>
				<polygon clip-path="url(#SVGID_2_)" fill="#D8D8D8" points="20.36719,89.0625 35.10547,105.48047 34.82031,105.48047 
					20.36719,89.37891 				"/>
				<polygon clip-path="url(#SVGID_2_)" fill="#D8D8D8" points="20.36719,88.6875 35.44141,105.48047 35.10547,105.48047 
					20.36719,89.0625 				"/>
				<polygon clip-path="url(#SVGID_2_)" fill="#D9D9D9" points="20.36719,88.31641 35.77344,105.48047 35.44141,105.48047 
					20.36719,88.6875 				"/>
				<polygon clip-path="url(#SVGID_2_)" fill="#DADADA" points="20.36719,87.94141 36.10938,105.48047 35.77344,105.48047 
					20.36719,88.31641 				"/>
				<polygon clip-path="url(#SVGID_2_)" fill="#DBDBDB" points="20.36719,87.57031 36.44531,105.48047 36.10938,105.48047 
					20.36719,87.94141 				"/>
				<polygon clip-path="url(#SVGID_2_)" fill="#DCDCDC" points="20.36719,87.19531 36.77734,105.48047 36.44531,105.48047 
					20.36719,87.57031 				"/>
				<polygon clip-path="url(#SVGID_2_)" fill="#DDDDDD" points="20.36719,86.82422 37.11328,105.48047 36.77734,105.48047 
					20.36719,87.19531 				"/>
				<polygon clip-path="url(#SVGID_2_)" fill="#DEDEDE" points="20.36719,86.44922 37.44922,105.48047 37.11328,105.48047 
					20.36719,86.82422 				"/>
				<polygon clip-path="url(#SVGID_2_)" fill="#DFDFDF" points="20.36719,86.07812 37.78125,105.48047 37.44922,105.48047 
					20.36719,86.44922 				"/>
				<polygon clip-path="url(#SVGID_2_)" fill="#E0E0E0" points="20.36719,85.70312 38.11719,105.48047 37.78125,105.48047 
					20.36719,86.07812 				"/>
				<polygon clip-path="url(#SVGID_2_)" fill="#E1E1E1" points="20.36719,85.33203 38.45312,105.48047 38.11719,105.48047 
					20.36719,85.70312 				"/>
				<polygon clip-path="url(#SVGID_2_)" fill="#E2E2E2" points="20.36719,84.96094 38.78516,105.48047 38.45312,105.48047 
					20.36719,85.33203 				"/>
				<polygon clip-path="url(#SVGID_2_)" fill="#E3E3E3" points="20.36719,84.58594 39.12109,105.48047 38.78516,105.48047 
					20.36719,84.96094 				"/>
				<polygon clip-path="url(#SVGID_2_)" fill="#E4E4E4" points="20.36719,84.21484 39.45703,105.48047 39.12109,105.48047 
					20.36719,84.58594 				"/>
				<polygon clip-path="url(#SVGID_2_)" fill="#E5E5E5" points="20.36719,83.83984 39.78906,105.48047 39.45703,105.48047 
					20.36719,84.21484 				"/>
				<polygon clip-path="url(#SVGID_2_)" fill="#E6E6E6" points="20.36719,83.46875 40.125,105.48047 39.78906,105.48047 
					20.36719,83.83984 				"/>
				<polygon clip-path="url(#SVGID_2_)" fill="#E7E7E7" points="20.36719,83.09375 40.46094,105.48047 40.125,105.48047 
					20.36719,83.46875 				"/>
				<polygon clip-path="url(#SVGID_2_)" fill="#E8E8E8" points="20.36719,82.72266 40.79688,105.48047 40.46094,105.48047 
					20.36719,83.09375 				"/>
				<polygon clip-path="url(#SVGID_2_)" fill="#E9E9E9" points="20.36719,82.35156 41.12891,105.48047 40.79688,105.48047 
					20.36719,82.72266 				"/>
				<polygon clip-path="url(#SVGID_2_)" fill="#EAEAEA" points="20.36719,81.97656 41.46484,105.48047 41.12891,105.48047 
					20.36719,82.35156 				"/>
				<polygon clip-path="url(#SVGID_2_)" fill="#ECECEC" points="20.36719,81.60156 41.80078,105.48047 41.46484,105.48047 
					20.36719,81.97656 				"/>
				<polygon clip-path="url(#SVGID_2_)" fill="#EDEDED" points="20.36719,81.23047 42.13281,105.48047 41.80078,105.48047 
					20.36719,81.60156 				"/>
				<polygon clip-path="url(#SVGID_2_)" fill="#EEEEEE" points="20.36719,80.85938 42.46875,105.48047 42.13281,105.48047 
					20.36719,81.23047 				"/>
				<polygon clip-path="url(#SVGID_2_)" fill="#EFEFEF" points="20.36719,80.48438 42.80469,105.48047 42.46875,105.48047 
					20.36719,80.85938 				"/>
				<polygon clip-path="url(#SVGID_2_)" fill="#F0F0F0" points="20.36719,80.11328 43.13672,105.48047 42.80469,105.48047 
					20.36719,80.48438 				"/>
				<polygon clip-path="url(#SVGID_2_)" fill="#F1F1F1" points="20.36719,79.73828 43.47266,105.48047 43.13672,105.48047 
					20.36719,80.11328 				"/>
				<polygon clip-path="url(#SVGID_2_)" fill="#F2F2F2" points="20.36719,79.36719 43.80859,105.48047 43.47266,105.48047 
					20.36719,79.73828 				"/>
				<polygon clip-path="url(#SVGID_2_)" fill="#F3F3F3" points="20.36719,78.99219 44.14062,105.48047 43.80859,105.48047 
					20.36719,79.36719 				"/>
				<polygon clip-path="url(#SVGID_2_)" fill="#F4F4F4" points="20.36719,78.62109 44.47656,105.48047 44.14062,105.48047 
					20.36719,78.99219 				"/>
				<polygon clip-path="url(#SVGID_2_)" fill="#F5F5F5" points="20.36719,78.24609 44.8125,105.48047 44.47656,105.48047 
					20.36719,78.62109 				"/>
				<polygon clip-path="url(#SVGID_2_)" fill="#F6F6F6" points="20.36719,77.875 45.14453,105.48047 44.8125,105.48047 
					20.36719,78.24609 				"/>
				<polygon clip-path="url(#SVGID_2_)" fill="#F7F7F7" points="20.36719,77.5 45.48047,105.48047 45.14453,105.48047 
					20.36719,77.875 				"/>
				<polygon clip-path="url(#SVGID_2_)" fill="#F8F8F8" points="20.36719,77.12891 45.81641,105.48047 45.48047,105.48047 
					20.36719,77.5 				"/>
				<polygon clip-path="url(#SVGID_2_)" fill="#F9F9F9" points="20.36719,76.75781 46.14844,105.48047 45.81641,105.48047 
					20.36719,77.12891 				"/>
				<polygon clip-path="url(#SVGID_2_)" fill="#FAFAFA" points="20.36719,76.38281 46.48438,105.48047 46.14844,105.48047 
					20.36719,76.75781 				"/>
				<polygon clip-path="url(#SVGID_2_)" fill="#FBFBFB" points="20.36719,76.01172 46.82031,105.48047 46.48438,105.48047 
					20.36719,76.38281 				"/>
				<polygon clip-path="url(#SVGID_2_)" fill="#FCFCFC" points="20.36719,75.63672 47.15625,105.48047 46.82031,105.48047 
					20.36719,76.01172 				"/>
				<polygon clip-path="url(#SVGID_2_)" fill="#FDFDFD" points="20.36719,75.26562 47.48828,105.48047 47.15625,105.48047 
					20.36719,75.63672 				"/>
				<polygon clip-path="url(#SVGID_2_)" fill="#FEFEFE" points="20.36719,74.89062 47.82422,105.48047 47.48828,105.48047 
					20.36719,75.26562 				"/>
				<polygon clip-path="url(#SVGID_2_)" fill="#FFFFFF" points="20.36719,74.51953 48.15625,105.48047 47.82422,105.48047 
					20.36719,74.89062 				"/>
				<polygon clip-path="url(#SVGID_2_)" fill="#FFFFFF" points="36.20703,71.39062 58.64844,96.39062 58.64844,105.48047 
					48.16016,105.48047 20.36719,74.51953 20.36719,71.39062 				"/>
				<polygon clip-path="url(#SVGID_2_)" fill="#FFFFFF" points="56.09766,71.39062 58.64844,74.23047 58.64844,96.39062 
					36.20703,71.39062 				"/>
				<polygon clip-path="url(#SVGID_2_)" fill="#FFFFFF" points="58.64844,74.23047 56.09766,71.39062 58.64844,71.39062 				"/>
			</g>
		</g>
		<g id="Path_1_">
			<g>
				<defs>
					<path id="SVGID_3_" d="M40.29834,103.40039l-7.86035-9.23047c-0.35986,0.43994-18.8999,14-12.21973,21.57031
						c1.33008,1.51953,6.3999,7.48047,7.81982,9.08008c1.39795,1.57031,3.09863,2.8418,5,3.74023
						c-0.58984-0.70117-1.23975-2.24023-0.90967-5.61035C32.89795,114.84961,38.76807,105.67969,40.29834,103.40039z"/>
				</defs>
				<clipPath id="SVGID_4_">
					<use xlink:href="#SVGID_3_"  overflow="visible"/>
				</clipPath>
				<polygon clip-path="url(#SVGID_4_)" fill="#FFFFFF" points="13.53906,103.50781 36.02734,128.5625 13.53906,128.5625 				"/>
				<polygon clip-path="url(#SVGID_4_)" fill="#FFFFFF" points="13.53906,102.84375 36.62109,128.5625 36.02344,128.5625 
					13.53906,103.51172 				"/>
				<polygon clip-path="url(#SVGID_4_)" fill="#FEFEFE" points="13.53906,102.17578 37.22266,128.5625 36.62109,128.5625 
					13.53906,102.84375 				"/>
				<polygon clip-path="url(#SVGID_4_)" fill="#FDFDFD" points="13.53906,101.50781 37.82031,128.5625 37.22266,128.5625 
					13.53906,102.17578 				"/>
				<polygon clip-path="url(#SVGID_4_)" fill="#FBFBFB" points="13.53906,100.83984 38.42188,128.5625 37.82031,128.5625 
					13.53906,101.50781 				"/>
				<polygon clip-path="url(#SVGID_4_)" fill="#FAFAFA" points="13.53906,100.17188 39.01953,128.5625 38.42188,128.5625 
					13.53906,100.83984 				"/>
				<polygon clip-path="url(#SVGID_4_)" fill="#F9F9F9" points="13.53906,99.50391 39.62109,128.5625 39.01953,128.5625 
					13.53906,100.17188 				"/>
				<polygon clip-path="url(#SVGID_4_)" fill="#F9F9F9" points="13.53906,99.19922 39.89453,128.5625 39.62109,128.5625 
					13.53906,99.50391 				"/>
				<polygon clip-path="url(#SVGID_4_)" fill="#F8F8F8" points="13.53906,98.89453 40.16797,128.5625 39.89453,128.5625 
					13.53906,99.19922 				"/>
				<polygon clip-path="url(#SVGID_4_)" fill="#F7F7F7" points="13.53906,98.58984 40.29688,128.40234 40.29688,128.5625 
					40.16797,128.5625 13.53906,98.89453 				"/>
				<polygon clip-path="url(#SVGID_4_)" fill="#F6F6F6" points="13.53906,98.28125 40.29688,128.09375 40.29688,128.40234 
					13.53906,98.58984 				"/>
				<polygon clip-path="url(#SVGID_4_)" fill="#F5F5F5" points="13.53906,97.97656 40.29688,127.78906 40.29688,128.09375 
					13.53906,98.28125 				"/>
				<polygon clip-path="url(#SVGID_4_)" fill="#F4F4F4" points="13.53906,97.67188 40.29688,127.48438 40.29688,127.78906 
					13.53906,97.97656 				"/>
				<polygon clip-path="url(#SVGID_4_)" fill="#F3F3F3" points="13.53906,97.36719 40.29688,127.17969 40.29688,127.48438 
					13.53906,97.67188 				"/>
				<polygon clip-path="url(#SVGID_4_)" fill="#F2F2F2" points="13.53906,97.0625 40.29688,126.875 40.29688,127.17969 
					13.53906,97.36719 				"/>
				<polygon clip-path="url(#SVGID_4_)" fill="#F1F1F1" points="13.53906,96.75781 40.29688,126.57031 40.29688,126.875 
					13.53906,97.0625 				"/>
				<polygon clip-path="url(#SVGID_4_)" fill="#EFEFEF" points="13.53906,96.45312 40.29688,126.26562 40.29688,126.57031 
					13.53906,96.75781 				"/>
				<polygon clip-path="url(#SVGID_4_)" fill="#EEEEEE" points="13.53906,96.14844 40.29688,125.96094 40.29688,126.26562 
					13.53906,96.45312 				"/>
				<polygon clip-path="url(#SVGID_4_)" fill="#EDEDED" points="13.53906,95.84375 40.29688,125.65625 40.29688,125.96094 
					13.53906,96.14844 				"/>
				<polygon clip-path="url(#SVGID_4_)" fill="#ECECEC" points="13.53906,95.53906 40.29688,125.35156 40.29688,125.65625 
					13.53906,95.84375 				"/>
				<polygon clip-path="url(#SVGID_4_)" fill="#EBEBEB" points="13.53906,95.23438 40.29688,125.04688 40.29688,125.35156 
					13.53906,95.53906 				"/>
				<polygon clip-path="url(#SVGID_4_)" fill="#EAEAEA" points="13.53906,94.92578 40.29688,124.74219 40.29688,125.04688 
					13.53906,95.23438 				"/>
				<polygon clip-path="url(#SVGID_4_)" fill="#E9E9E9" points="13.53906,94.62109 40.29688,124.43359 40.29688,124.74219 
					13.53906,94.92578 				"/>
				<polygon clip-path="url(#SVGID_4_)" fill="#E8E8E8" points="13.53906,94.31641 40.29688,124.12891 40.29688,124.43359 
					13.53906,94.62109 				"/>
				<polygon clip-path="url(#SVGID_4_)" fill="#E8E8E8" points="13.60156,94.17188 40.29688,123.91016 40.29688,124.12891 
					13.53906,94.31641 13.53906,94.17188 				"/>
				<polygon clip-path="url(#SVGID_4_)" fill="#E7E7E7" points="13.80078,94.17188 40.29688,123.69141 40.29688,123.91016 
					13.60156,94.17188 				"/>
				<polygon clip-path="url(#SVGID_4_)" fill="#E6E6E6" points="13.99609,94.17188 40.29688,123.47266 40.29688,123.69141 
					13.80078,94.17188 				"/>
				<polygon clip-path="url(#SVGID_4_)" fill="#E5E5E5" points="14.19141,94.17188 40.29688,123.25391 40.29688,123.47266 
					13.99609,94.17188 				"/>
				<polygon clip-path="url(#SVGID_4_)" fill="#E4E4E4" points="14.39062,94.17188 40.29688,123.03516 40.29688,123.25391 
					14.19141,94.17188 				"/>
				<polygon clip-path="url(#SVGID_4_)" fill="#E3E3E3" points="14.58594,94.17188 40.29688,122.81641 40.29688,123.03516 
					14.39062,94.17188 				"/>
				<polygon clip-path="url(#SVGID_4_)" fill="#E2E2E2" points="14.78125,94.17188 40.29688,122.59766 40.29688,122.81641 
					14.58594,94.17188 				"/>
				<polygon clip-path="url(#SVGID_4_)" fill="#E1E1E1" points="14.97656,94.17188 40.29688,122.37891 40.29688,122.59766 
					14.78125,94.17188 				"/>
				<polygon clip-path="url(#SVGID_4_)" fill="#E0E0E0" points="15.17578,94.17188 40.29688,122.16016 40.29688,122.37891 
					14.97656,94.17188 				"/>
				<polygon clip-path="url(#SVGID_4_)" fill="#DFDFDF" points="15.37109,94.17188 40.29688,121.94141 40.29688,122.16016 
					15.17578,94.17188 				"/>
				<polygon clip-path="url(#SVGID_4_)" fill="#DEDEDE" points="15.56641,94.17188 40.29688,121.72266 40.29688,121.94141 
					15.37109,94.17188 				"/>
				<polygon clip-path="url(#SVGID_4_)" fill="#DDDDDD" points="15.76562,94.17188 40.29688,121.50391 40.29688,121.72266 
					15.56641,94.17188 				"/>
				<polygon clip-path="url(#SVGID_4_)" fill="#DCDCDC" points="15.96094,94.17188 40.29688,121.28516 40.29688,121.50391 
					15.76562,94.17188 				"/>
				<polygon clip-path="url(#SVGID_4_)" fill="#DBDBDB" points="16.15625,94.17188 40.29688,121.06641 40.29688,121.28516 
					15.96094,94.17188 				"/>
				<polygon clip-path="url(#SVGID_4_)" fill="#D9D9D9" points="16.35156,94.17188 40.29688,120.84375 40.29688,121.06641 
					16.15625,94.17188 				"/>
				<polygon clip-path="url(#SVGID_4_)" fill="#D8D8D8" points="16.55078,94.17188 40.29688,120.625 40.29688,120.84375 
					16.35156,94.17188 				"/>
				<polygon clip-path="url(#SVGID_4_)" fill="#D7D7D7" points="16.74609,94.17188 40.29688,120.40625 40.29688,120.625 
					16.55078,94.17188 				"/>
				<polygon clip-path="url(#SVGID_4_)" fill="#D6D6D6" points="16.94141,94.17188 40.29688,120.1875 40.29688,120.40625 
					16.74609,94.17188 				"/>
				<polygon clip-path="url(#SVGID_4_)" fill="#D5D5D5" points="17.14062,94.17188 40.29688,119.96875 40.29688,120.1875 
					16.94141,94.17188 				"/>
				<polygon clip-path="url(#SVGID_4_)" fill="#D4D4D4" points="17.33594,94.17188 40.29688,119.75 40.29688,119.96875 
					17.14062,94.17188 				"/>
				<polygon clip-path="url(#SVGID_4_)" fill="#D3D3D3" points="17.53125,94.17188 40.29688,119.53125 40.29688,119.75 
					17.33594,94.17188 				"/>
				<polygon clip-path="url(#SVGID_4_)" fill="#D2D2D2" points="17.73047,94.17188 40.29688,119.3125 40.29688,119.53125 
					17.53125,94.17188 				"/>
				<polygon clip-path="url(#SVGID_4_)" fill="#D1D1D1" points="17.92578,94.17188 40.29688,119.09375 40.29688,119.3125 
					17.73047,94.17188 				"/>
				<polygon clip-path="url(#SVGID_4_)" fill="#D0D0D0" points="18.12109,94.17188 40.29688,118.875 40.29688,119.09375 
					17.92578,94.17188 				"/>
				<polygon clip-path="url(#SVGID_4_)" fill="#CFCFCF" points="18.32031,94.17188 40.29688,118.65625 40.29688,118.875 
					18.12109,94.17188 				"/>
				<polygon clip-path="url(#SVGID_4_)" fill="#CECECE" points="18.51562,94.17188 40.29688,118.4375 40.29688,118.65625 
					18.32031,94.17188 				"/>
				<polygon clip-path="url(#SVGID_4_)" fill="#CDCDCD" points="18.71094,94.17188 40.29688,118.21875 40.29688,118.4375 
					18.51562,94.17188 				"/>
				<polygon clip-path="url(#SVGID_4_)" fill="#CCCCCC" points="18.90625,94.17188 40.29688,118 40.29688,118.21875 
					18.71094,94.17188 				"/>
				<polygon clip-path="url(#SVGID_4_)" fill="#CCCCCC" points="19.05469,94.17188 40.29688,117.83594 40.29688,118 
					18.90625,94.17188 				"/>
				<polygon clip-path="url(#SVGID_4_)" fill="#CBCBCB" points="19.19922,94.17188 40.29688,117.67578 40.29688,117.83594 
					19.05469,94.17188 				"/>
				<polygon clip-path="url(#SVGID_4_)" fill="#CACACA" points="19.34766,94.17188 40.29688,117.51172 40.29688,117.67578 
					19.19922,94.17188 				"/>
				<polygon clip-path="url(#SVGID_4_)" fill="#C9C9C9" points="19.49219,94.17188 40.29688,117.34766 40.29688,117.51172 
					19.34766,94.17188 				"/>
				<polygon clip-path="url(#SVGID_4_)" fill="#C8C8C8" points="19.64062,94.17188 40.29688,117.18359 40.29688,117.34766 
					19.49219,94.17188 				"/>
				<polygon clip-path="url(#SVGID_4_)" fill="#C7C7C7" points="19.78906,94.17188 40.29688,117.02344 40.29688,117.18359 
					19.64062,94.17188 				"/>
				<polygon clip-path="url(#SVGID_4_)" fill="#C6C6C6" points="19.93359,94.17188 40.29688,116.85938 40.29688,117.02344 
					19.78906,94.17188 				"/>
				<polygon clip-path="url(#SVGID_4_)" fill="#C5C5C5" points="20.07812,94.17188 40.29688,116.69531 40.29688,116.85938 
					19.93359,94.17188 				"/>
				<polygon clip-path="url(#SVGID_4_)" fill="#C4C4C4" points="20.22656,94.17188 40.29688,116.53125 40.29688,116.69531 
					20.07812,94.17188 				"/>
				<polygon clip-path="url(#SVGID_4_)" fill="#C3C3C3" points="20.375,94.17188 40.29688,116.36719 40.29688,116.53125 
					20.22656,94.17188 				"/>
				<polygon clip-path="url(#SVGID_4_)" fill="#C2C2C2" points="20.51953,94.17188 40.29688,116.20312 40.29688,116.36719 
					20.375,94.17188 				"/>
				<polygon clip-path="url(#SVGID_4_)" fill="#C1C1C1" points="20.66406,94.17188 40.29688,116.04297 40.29688,116.20312 
					20.51953,94.17188 				"/>
				<polygon clip-path="url(#SVGID_4_)" fill="#C0C0C0" points="20.8125,94.17188 40.29688,115.87891 40.29688,116.04297 
					20.66406,94.17188 				"/>
				<polygon clip-path="url(#SVGID_4_)" fill="#BFBFBF" points="20.96094,94.17188 40.29688,115.71484 40.29688,115.87891 
					20.8125,94.17188 				"/>
				<polygon clip-path="url(#SVGID_4_)" fill="#BEBEBE" points="21.10547,94.17188 40.29688,115.55469 40.29688,115.71484 
					20.96094,94.17188 				"/>
				<polygon clip-path="url(#SVGID_4_)" fill="#BDBDBD" points="21.25,94.17188 40.29688,115.39062 40.29688,115.55469 
					21.10547,94.17188 				"/>
				<polygon clip-path="url(#SVGID_4_)" fill="#BCBCBC" points="21.39844,94.17188 40.29688,115.22656 40.29688,115.39062 
					21.25,94.17188 				"/>
				<polygon clip-path="url(#SVGID_4_)" fill="#BBBBBB" points="21.54688,94.17188 40.29688,115.0625 40.29688,115.22656 
					21.39844,94.17188 				"/>
				<polygon clip-path="url(#SVGID_4_)" fill="#BABABA" points="21.69141,94.17188 40.29688,114.89844 40.29688,115.0625 
					21.54688,94.17188 				"/>
				<polygon clip-path="url(#SVGID_4_)" fill="#B9B9B9" points="21.83594,94.17188 40.29688,114.73438 40.29688,114.89844 
					21.69141,94.17188 				"/>
				<polygon clip-path="url(#SVGID_4_)" fill="#B7B7B7" points="21.98438,94.17188 40.29688,114.57422 40.29688,114.73438 
					21.83594,94.17188 				"/>
				<polygon clip-path="url(#SVGID_4_)" fill="#B6B6B6" points="22.12891,94.17188 40.29688,114.41016 40.29688,114.57422 
					21.98438,94.17188 				"/>
				<polygon clip-path="url(#SVGID_4_)" fill="#B5B5B5" points="22.27734,94.17188 40.29688,114.24609 40.29688,114.41016 
					22.12891,94.17188 				"/>
				<polygon clip-path="url(#SVGID_4_)" fill="#B4B4B4" points="22.42188,94.17188 40.29688,114.08594 40.29688,114.24609 
					22.27734,94.17188 				"/>
				<polygon clip-path="url(#SVGID_4_)" fill="#B3B3B3" points="22.57031,94.17188 40.29688,113.92188 40.29688,114.08594 
					22.42188,94.17188 				"/>
				<polygon clip-path="url(#SVGID_4_)" fill="#B2B2B2" points="22.71875,94.17188 40.29688,113.75781 40.29688,113.92188 
					22.57031,94.17188 				"/>
				<polygon clip-path="url(#SVGID_4_)" fill="#B1B1B1" points="22.86328,94.17188 40.29688,113.59375 40.29688,113.75781 
					22.71875,94.17188 				"/>
				<polygon clip-path="url(#SVGID_4_)" fill="#B0B0B0" points="23.00781,94.17188 40.29688,113.42969 40.29688,113.59375 
					22.86328,94.17188 				"/>
				<polygon clip-path="url(#SVGID_4_)" fill="#AFAFAF" points="23.15625,94.17188 40.29688,113.26562 40.29688,113.42969 
					23.00781,94.17188 				"/>
				<polygon clip-path="url(#SVGID_4_)" fill="#AEAEAE" points="23.30469,94.17188 40.29688,113.10547 40.29688,113.26562 
					23.15625,94.17188 				"/>
				<polygon clip-path="url(#SVGID_4_)" fill="#ADADAD" points="23.44922,94.17188 40.29688,112.94141 40.29688,113.10547 
					23.30469,94.17188 				"/>
				<polygon clip-path="url(#SVGID_4_)" fill="#ACACAC" points="23.59375,94.17188 40.29688,112.77734 40.29688,112.94141 
					23.44922,94.17188 				"/>
				<polygon clip-path="url(#SVGID_4_)" fill="#ABABAB" points="23.74219,94.17188 40.29688,112.61719 40.29688,112.77734 
					23.59375,94.17188 				"/>
				<polygon clip-path="url(#SVGID_4_)" fill="#AAAAAA" points="23.89062,94.17188 40.29688,112.45312 40.29688,112.61719 
					23.74219,94.17188 				"/>
				<polygon clip-path="url(#SVGID_4_)" fill="#A9A9A9" points="24.03516,94.17188 40.29688,112.28906 40.29688,112.45312 
					23.89062,94.17188 				"/>
				<polygon clip-path="url(#SVGID_4_)" fill="#A8A8A8" points="24.18359,94.17188 40.29688,112.125 40.29688,112.28906 
					24.03516,94.17188 				"/>
				<polygon clip-path="url(#SVGID_4_)" fill="#A7A7A7" points="24.32812,94.17188 40.29688,111.96094 40.29688,112.125 
					24.18359,94.17188 				"/>
				<polygon clip-path="url(#SVGID_4_)" fill="#A6A6A6" points="24.47656,94.17188 40.29688,111.79688 40.29688,111.96094 
					24.32812,94.17188 				"/>
				<polygon clip-path="url(#SVGID_4_)" fill="#A5A5A5" points="24.62109,94.17188 40.29688,111.63672 40.29688,111.79688 
					24.47656,94.17188 				"/>
				<polygon clip-path="url(#SVGID_4_)" fill="#A5A5A5" points="24.76172,94.17188 40.29688,111.47656 40.29688,111.63281 
					24.62109,94.17188 				"/>
				<polygon clip-path="url(#SVGID_4_)" fill="#A4A4A4" points="24.90625,94.17188 40.29688,111.32031 40.29688,111.47656 
					24.76172,94.17188 				"/>
				<polygon clip-path="url(#SVGID_4_)" fill="#A3A3A3" points="25.04688,94.17188 40.29688,111.16406 40.29688,111.32031 
					24.90625,94.17188 				"/>
				<polygon clip-path="url(#SVGID_4_)" fill="#A2A2A2" points="25.1875,94.17188 40.29688,111.00781 40.29688,111.16406 
					25.04688,94.17188 				"/>
				<polygon clip-path="url(#SVGID_4_)" fill="#A1A1A1" points="25.32812,94.17188 40.29688,110.85156 40.29688,111.00781 
					25.1875,94.17188 				"/>
				<polygon clip-path="url(#SVGID_4_)" fill="#A0A0A0" points="25.46875,94.17188 40.29688,110.69141 40.29688,110.85156 
					25.32812,94.17188 				"/>
				<polygon clip-path="url(#SVGID_4_)" fill="#9E9E9E" points="25.60938,94.17188 40.29688,110.53516 40.29688,110.69141 
					25.46875,94.17188 				"/>
				<polygon clip-path="url(#SVGID_4_)" fill="#9D9D9D" points="25.75,94.17188 40.29688,110.37891 40.29688,110.53516 
					25.60938,94.17188 				"/>
				<polygon clip-path="url(#SVGID_4_)" fill="#9C9C9C" points="25.89062,94.17188 40.29688,110.21875 40.29688,110.37891 
					25.75,94.17188 				"/>
				<polygon clip-path="url(#SVGID_4_)" fill="#9B9B9B" points="26.03125,94.17188 40.29688,110.0625 40.29688,110.21875 
					25.89062,94.17188 				"/>
				<polygon clip-path="url(#SVGID_4_)" fill="#9A9A9A" points="26.17188,94.17188 40.29688,109.90625 40.29688,110.0625 
					26.03125,94.17188 				"/>
				<polygon clip-path="url(#SVGID_4_)" fill="#999999" points="26.3125,94.17188 40.29688,109.75 40.29688,109.90625 
					26.17188,94.17188 				"/>
				<polygon clip-path="url(#SVGID_4_)" fill="#999999" points="40.29688,109.75 26.3125,94.17188 40.29688,94.17188 				"/>
			</g>
		</g>
		<g id="Path_2_">
			<g>
				<defs>
					<path id="SVGID_5_" d="M18.78809,112.18945c0.01074,1.3252,0.52148,2.59668,1.43018,3.56055
						c1.33008,1.50977,6.3999,7.48047,7.81982,9.08008c1.49805,1.74609,3.38574,3.11719,5.51025,4L18.78809,112.18945z"/>
				</defs>
				<clipPath id="SVGID_6_">
					<use xlink:href="#SVGID_5_"  overflow="visible"/>
				</clipPath>
				<polygon clip-path="url(#SVGID_6_)" fill="#F2F2F2" points="18.78906,113.18359 32.92969,128.82812 18.78906,128.82812 				"/>
				<polygon clip-path="url(#SVGID_6_)" fill="#F2F2F2" points="32.98047,128.82812 18.78906,113.12891 18.78906,113.18359 
					32.92969,128.82812 				"/>
				<polygon clip-path="url(#SVGID_6_)" fill="#F1F1F1" points="18.78906,113.07812 33.02734,128.82812 32.98047,128.82812 
					18.78906,113.12891 				"/>
				<polygon clip-path="url(#SVGID_6_)" fill="#F0F0F0" points="18.78906,113.02344 33.07812,128.82812 33.02734,128.82812 
					18.78906,113.07812 				"/>
				<polygon clip-path="url(#SVGID_6_)" fill="#EFEFEF" points="18.78906,112.96875 33.125,128.82812 33.07812,128.82812 
					18.78906,113.02344 				"/>
				<polygon clip-path="url(#SVGID_6_)" fill="#EEEEEE" points="33.17578,128.82812 18.78906,112.91406 18.78906,112.96875 
					33.125,128.82812 				"/>
				<polygon clip-path="url(#SVGID_6_)" fill="#EDEDED" points="18.78906,112.85938 33.22266,128.82812 33.17578,128.82812 
					18.78906,112.91406 				"/>
				<polygon clip-path="url(#SVGID_6_)" fill="#ECECEC" points="18.78906,112.80469 33.27344,128.82812 33.22266,128.82812 
					18.78906,112.85938 				"/>
				<polygon clip-path="url(#SVGID_6_)" fill="#EBEBEB" points="18.78906,112.75 33.32031,128.82812 33.27344,128.82812 
					18.78906,112.80469 				"/>
				<polygon clip-path="url(#SVGID_6_)" fill="#EAEAEA" points="18.78906,112.69531 33.37109,128.82812 33.32031,128.82812 
					18.78906,112.75 				"/>
				<polygon clip-path="url(#SVGID_6_)" fill="#E9E9E9" points="18.78906,112.64453 33.41797,128.82812 33.37109,128.82812 
					18.78906,112.69531 				"/>
				<polygon clip-path="url(#SVGID_6_)" fill="#E8E8E8" points="18.78906,112.58984 33.46875,128.82812 33.41797,128.82812 
					18.78906,112.64453 				"/>
				<polygon clip-path="url(#SVGID_6_)" fill="#E7E7E7" points="18.78906,112.53516 33.51562,128.82812 33.46875,128.82812 
					18.78906,112.58984 				"/>
				<polygon clip-path="url(#SVGID_6_)" fill="#E6E6E6" points="33.54688,128.8125 18.78906,112.48438 18.78906,112.53516 
					33.51562,128.82812 18.78906,128.82812 18.78906,112.1875 33.54688,112.1875 				"/>
				<polygon clip-path="url(#SVGID_6_)" fill="#E5E5E5" points="18.78906,112.42969 33.54688,128.75781 33.54688,128.8125 
					18.78906,112.48438 				"/>
				<polygon clip-path="url(#SVGID_6_)" fill="#E4E4E4" points="18.78906,112.375 33.54688,128.70312 33.54688,128.75781 
					18.78906,112.42969 				"/>
				<polygon clip-path="url(#SVGID_6_)" fill="#E3E3E3" points="18.78906,112.32031 33.54688,128.64844 33.54688,128.70312 
					18.78906,112.375 				"/>
				<polygon clip-path="url(#SVGID_6_)" fill="#E2E2E2" points="18.78906,112.26562 33.54688,128.59375 33.54688,128.64844 
					18.78906,112.32031 				"/>
				<polygon clip-path="url(#SVGID_6_)" fill="#E1E1E1" points="18.78906,112.21094 33.54688,128.53906 33.54688,128.59375 
					18.78906,112.26562 				"/>
				<polygon clip-path="url(#SVGID_6_)" fill="#E0E0E0" points="33.54688,128.48828 18.81641,112.1875 33.54688,112.1875 
					33.54688,128.82812 18.78906,128.82812 18.78906,112.21094 33.54688,128.53906 				"/>
				<polygon clip-path="url(#SVGID_6_)" fill="#DEDEDE" points="18.86719,112.1875 33.54688,128.43359 33.54688,128.48828 
					18.81641,112.1875 				"/>
				<polygon clip-path="url(#SVGID_6_)" fill="#DDDDDD" points="18.91406,112.1875 33.54688,128.37891 33.54688,128.43359 
					18.86719,112.1875 				"/>
				<polygon clip-path="url(#SVGID_6_)" fill="#DCDCDC" points="18.96484,112.1875 33.54688,128.32422 33.54688,128.37891 
					18.91406,112.1875 				"/>
				<polygon clip-path="url(#SVGID_6_)" fill="#DBDBDB" points="19.01172,112.1875 33.54688,128.26953 33.54688,128.32422 
					18.96484,112.1875 				"/>
				<polygon clip-path="url(#SVGID_6_)" fill="#DADADA" points="33.54688,128.21875 19.0625,112.1875 19.01172,112.1875 
					33.54688,128.26953 				"/>
				<polygon clip-path="url(#SVGID_6_)" fill="#D9D9D9" points="19.10938,112.1875 33.54688,128.16406 33.54688,128.21875 
					19.0625,112.1875 				"/>
				<polygon clip-path="url(#SVGID_6_)" fill="#D8D8D8" points="19.16016,112.1875 33.54688,128.10938 33.54688,128.16406 
					19.10938,112.1875 				"/>
				<polygon clip-path="url(#SVGID_6_)" fill="#D7D7D7" points="19.20703,112.1875 33.54688,128.05469 33.54688,128.10938 
					19.16016,112.1875 				"/>
				<polygon clip-path="url(#SVGID_6_)" fill="#D6D6D6" points="19.25781,112.1875 33.54688,128 33.54688,128.05469 
					19.20703,112.1875 				"/>
				<polygon clip-path="url(#SVGID_6_)" fill="#D5D5D5" points="19.30469,112.1875 33.54688,127.94531 33.54688,128 
					19.25781,112.1875 				"/>
				<polygon clip-path="url(#SVGID_6_)" fill="#D4D4D4" points="19.35156,112.1875 33.54688,127.89062 33.54688,127.94531 
					19.30469,112.1875 				"/>
				<polygon clip-path="url(#SVGID_6_)" fill="#D3D3D3" points="19.40234,112.1875 33.54688,127.83594 33.54688,127.89062 
					19.35156,112.1875 				"/>
				<polygon clip-path="url(#SVGID_6_)" fill="#D2D2D2" points="19.45312,112.1875 33.54688,127.78516 33.54688,127.83594 
					19.40234,112.1875 				"/>
				<polygon clip-path="url(#SVGID_6_)" fill="#D1D1D1" points="19.5,112.1875 33.54688,127.73047 33.54688,127.78516 
					19.45312,112.1875 				"/>
				<polygon clip-path="url(#SVGID_6_)" fill="#D0D0D0" points="19.55078,112.1875 33.54688,127.67578 33.54688,127.73047 
					19.5,112.1875 				"/>
				<polygon clip-path="url(#SVGID_6_)" fill="#CFCFCF" points="19.59766,112.1875 33.54688,127.62109 33.54688,127.67578 
					19.55078,112.1875 				"/>
				<polygon clip-path="url(#SVGID_6_)" fill="#CECECE" points="19.64844,112.1875 33.54688,127.57031 33.54688,127.62109 
					19.59766,112.1875 				"/>
				<polygon clip-path="url(#SVGID_6_)" fill="#CDCDCD" points="19.69531,112.1875 33.54688,127.51562 33.54688,127.57031 
					19.64844,112.1875 				"/>
				<polygon clip-path="url(#SVGID_6_)" fill="#CCCCCC" points="33.54688,127.46094 19.74609,112.1875 19.69531,112.1875 
					33.54688,127.51562 				"/>
				<polygon clip-path="url(#SVGID_6_)" fill="#CCCCCC" points="33.54688,127.46094 19.74609,112.1875 33.54688,112.1875 				"/>
			</g>
		</g>
		<g id="Path_3_">
			<g>
				<defs>
					<path id="SVGID_7_" d="M48.58838,117.2793c-1.55713,0.76758-3.26514,1.17773-5,1.20117
						c-0.91016-5.73047,2-14.55078,3.10986-17.78027l-8-9.14014C37.6084,92,36.53809,92.47021,35.58838,92.8501L32.13818,120
						l9.18018,10.37012h0.29004c5.26367-0.05371,10.43408-1.39746,15.05957-3.91016L48.58838,117.2793z"/>
				</defs>
				<clipPath id="SVGID_8_">
					<use xlink:href="#SVGID_7_"  overflow="visible"/>
				</clipPath>
				<polygon clip-path="url(#SVGID_8_)" fill="#FFFFFF" points="32.13672,125.51562 47,130.37109 32.13672,130.37109 				"/>
				<polygon clip-path="url(#SVGID_8_)" fill="#FFFFFF" points="32.13672,124.5 50.09766,130.37109 47.00391,130.37109 
					32.13672,125.51172 				"/>
				<polygon clip-path="url(#SVGID_8_)" fill="#FEFEFE" points="32.13672,123.49219 53.1875,130.37109 50.09766,130.37109 
					32.13672,124.5 				"/>
				<polygon clip-path="url(#SVGID_8_)" fill="#FDFDFD" points="32.13672,122.48047 56.27734,130.37109 53.1875,130.37109 
					32.13672,123.49219 				"/>
				<polygon clip-path="url(#SVGID_8_)" fill="#FBFBFB" points="32.13672,121.46875 56.66797,129.48828 56.66797,130.37109 
					56.27734,130.37109 32.13672,122.48047 				"/>
				<polygon clip-path="url(#SVGID_8_)" fill="#FAFAFA" points="32.13672,120.46094 56.66797,128.47656 56.66797,129.48828 
					32.13672,121.46875 				"/>
				<polygon clip-path="url(#SVGID_8_)" fill="#F9F9F9" points="32.13672,119.44922 56.66797,127.46875 56.66797,128.47656 
					32.13672,120.46094 				"/>
				<polygon clip-path="url(#SVGID_8_)" fill="#F9F9F9" points="32.13672,118.92969 56.66797,126.94531 56.66797,127.46875 
					32.13672,119.45312 				"/>
				<polygon clip-path="url(#SVGID_8_)" fill="#F8F8F8" points="32.13672,118.40625 56.66797,126.42188 56.66797,126.94531 
					32.13672,118.92969 				"/>
				<polygon clip-path="url(#SVGID_8_)" fill="#F7F7F7" points="32.13672,117.88281 56.66797,125.89844 56.66797,126.42188 
					32.13672,118.40625 				"/>
				<polygon clip-path="url(#SVGID_8_)" fill="#F6F6F6" points="32.13672,117.35938 56.66797,125.375 56.66797,125.89844 
					32.13672,117.88281 				"/>
				<polygon clip-path="url(#SVGID_8_)" fill="#F5F5F5" points="32.13672,116.83594 56.66797,124.85156 56.66797,125.375 
					32.13672,117.35938 				"/>
				<polygon clip-path="url(#SVGID_8_)" fill="#F4F4F4" points="32.13672,116.3125 56.66797,124.32812 56.66797,124.85156 
					32.13672,116.83594 				"/>
				<polygon clip-path="url(#SVGID_8_)" fill="#F3F3F3" points="32.13672,115.78906 56.66797,123.80859 56.66797,124.32812 
					32.13672,116.3125 				"/>
				<polygon clip-path="url(#SVGID_8_)" fill="#F2F2F2" points="32.13672,115.26562 56.66797,123.28516 56.66797,123.80859 
					32.13672,115.78906 				"/>
				<polygon clip-path="url(#SVGID_8_)" fill="#F0F0F0" points="32.13672,114.74219 56.66797,122.76172 56.66797,123.28516 
					32.13672,115.26562 				"/>
				<polygon clip-path="url(#SVGID_8_)" fill="#EFEFEF" points="32.13672,114.22266 56.66797,122.23828 56.66797,122.76172 
					32.13672,114.74219 				"/>
				<polygon clip-path="url(#SVGID_8_)" fill="#EEEEEE" points="32.13672,113.69922 56.66797,121.71484 56.66797,122.23828 
					32.13672,114.22266 				"/>
				<polygon clip-path="url(#SVGID_8_)" fill="#EDEDED" points="32.13672,113.17578 56.66797,121.19141 56.66797,121.71484 
					32.13672,113.69922 				"/>
				<polygon clip-path="url(#SVGID_8_)" fill="#ECECEC" points="32.13672,112.65234 56.66797,120.67188 56.66797,121.19141 
					32.13672,113.17578 				"/>
				<polygon clip-path="url(#SVGID_8_)" fill="#EBEBEB" points="32.13672,112.13281 56.66797,120.14844 56.66797,120.67188 
					32.13672,112.65234 				"/>
				<polygon clip-path="url(#SVGID_8_)" fill="#EAEAEA" points="32.13672,111.60938 56.66797,119.625 56.66797,120.14844 
					32.13672,112.13281 				"/>
				<polygon clip-path="url(#SVGID_8_)" fill="#EAEAEA" points="32.13672,111.28906 56.66797,119.30859 56.66797,119.625 
					32.13672,111.60938 				"/>
				<polygon clip-path="url(#SVGID_8_)" fill="#E9E9E9" points="32.13672,110.97266 56.66797,118.99219 56.66797,119.30859 
					32.13672,111.28906 				"/>
				<polygon clip-path="url(#SVGID_8_)" fill="#E8E8E8" points="32.13672,110.65625 56.66797,118.67188 56.66797,118.99219 
					32.13672,110.97266 				"/>
				<polygon clip-path="url(#SVGID_8_)" fill="#E7E7E7" points="32.13672,110.33984 56.66797,118.35547 56.66797,118.67188 
					32.13672,110.65625 				"/>
				<polygon clip-path="url(#SVGID_8_)" fill="#E6E6E6" points="32.13672,110.02344 56.66797,118.03906 56.66797,118.35547 
					32.13672,110.33984 				"/>
				<polygon clip-path="url(#SVGID_8_)" fill="#E5E5E5" points="32.13672,109.70703 56.66797,117.72266 56.66797,118.03906 
					32.13672,110.02344 				"/>
				<polygon clip-path="url(#SVGID_8_)" fill="#E4E4E4" points="32.13672,109.39062 56.66797,117.40625 56.66797,117.72266 
					32.13672,109.70703 				"/>
				<polygon clip-path="url(#SVGID_8_)" fill="#E3E3E3" points="32.13672,109.07031 56.66797,117.08984 56.66797,117.40625 
					32.13672,109.39062 				"/>
				<polygon clip-path="url(#SVGID_8_)" fill="#E2E2E2" points="32.13672,108.75391 56.66797,116.77344 56.66797,117.08984 
					32.13672,109.07031 				"/>
				<polygon clip-path="url(#SVGID_8_)" fill="#E1E1E1" points="32.13672,108.4375 56.66797,116.45312 56.66797,116.77344 
					32.13672,108.75391 				"/>
				<polygon clip-path="url(#SVGID_8_)" fill="#E0E0E0" points="32.13672,108.12109 56.66797,116.13672 56.66797,116.45312 
					32.13672,108.4375 				"/>
				<polygon clip-path="url(#SVGID_8_)" fill="#DFDFDF" points="32.13672,107.80469 56.66797,115.82031 56.66797,116.13672 
					32.13672,108.12109 				"/>
				<polygon clip-path="url(#SVGID_8_)" fill="#DEDEDE" points="32.13672,107.48828 56.66797,115.50391 56.66797,115.82031 
					32.13672,107.80469 				"/>
				<polygon clip-path="url(#SVGID_8_)" fill="#DDDDDD" points="32.13672,107.17188 56.66797,115.1875 56.66797,115.50391 
					32.13672,107.48828 				"/>
				<polygon clip-path="url(#SVGID_8_)" fill="#DBDBDB" points="32.13672,106.85156 56.66797,114.87109 56.66797,115.1875 
					32.13672,107.17188 				"/>
				<polygon clip-path="url(#SVGID_8_)" fill="#DADADA" points="32.13672,106.53906 56.66797,114.55469 56.66797,114.87109 
					32.13672,106.85156 				"/>
				<polygon clip-path="url(#SVGID_8_)" fill="#D9D9D9" points="32.13672,106.21875 56.66797,114.23438 56.66797,114.55469 
					32.13672,106.53906 				"/>
				<polygon clip-path="url(#SVGID_8_)" fill="#D8D8D8" points="32.13672,105.90234 56.66797,113.92188 56.66797,114.23438 
					32.13672,106.21875 				"/>
				<polygon clip-path="url(#SVGID_8_)" fill="#D7D7D7" points="32.13672,105.58594 56.66797,113.60156 56.66797,113.92188 
					32.13672,105.90234 				"/>
				<polygon clip-path="url(#SVGID_8_)" fill="#D6D6D6" points="32.13672,105.26953 56.66797,113.28516 56.66797,113.60156 
					32.13672,105.58594 				"/>
				<polygon clip-path="url(#SVGID_8_)" fill="#D5D5D5" points="32.13672,104.95312 56.66797,112.96875 56.66797,113.28516 
					32.13672,105.26953 				"/>
				<polygon clip-path="url(#SVGID_8_)" fill="#D4D4D4" points="32.13672,104.63672 56.66797,112.65234 56.66797,112.96875 
					32.13672,104.95312 				"/>
				<polygon clip-path="url(#SVGID_8_)" fill="#D3D3D3" points="32.13672,104.32031 56.66797,112.33594 56.66797,112.65234 
					32.13672,104.63672 				"/>
				<polygon clip-path="url(#SVGID_8_)" fill="#D2D2D2" points="32.13672,104 56.66797,112.01562 56.66797,112.33594 
					32.13672,104.32031 				"/>
				<polygon clip-path="url(#SVGID_8_)" fill="#D1D1D1" points="32.13672,103.68359 56.66797,111.70312 56.66797,112.01562 
					32.13672,104 				"/>
				<polygon clip-path="url(#SVGID_8_)" fill="#D0D0D0" points="32.13672,103.36719 56.66797,111.38281 56.66797,111.70312 
					32.13672,103.68359 				"/>
				<polygon clip-path="url(#SVGID_8_)" fill="#CFCFCF" points="32.13672,103.05078 56.66797,111.06641 56.66797,111.38281 
					32.13672,103.36719 				"/>
				<polygon clip-path="url(#SVGID_8_)" fill="#CFCFCF" points="32.13672,102.79297 56.66797,110.80859 56.66797,111.06641 
					32.13672,103.05078 				"/>
				<polygon clip-path="url(#SVGID_8_)" fill="#CECECE" points="32.13672,102.53516 56.66797,110.55078 56.66797,110.80859 
					32.13672,102.79297 				"/>
				<polygon clip-path="url(#SVGID_8_)" fill="#CDCDCD" points="32.13672,102.27734 56.66797,110.29297 56.66797,110.55078 
					32.13672,102.53516 				"/>
				<polygon clip-path="url(#SVGID_8_)" fill="#CCCCCC" points="32.13672,102.01953 56.66797,110.03516 56.66797,110.29297 
					32.13672,102.27734 				"/>
				<polygon clip-path="url(#SVGID_8_)" fill="#CBCBCB" points="32.13672,101.76172 56.66797,109.78125 56.66797,110.03516 
					32.13672,102.01953 				"/>
				<polygon clip-path="url(#SVGID_8_)" fill="#CACACA" points="32.13672,101.50391 56.66797,109.52344 56.66797,109.78125 
					32.13672,101.76172 				"/>
				<polygon clip-path="url(#SVGID_8_)" fill="#C9C9C9" points="32.13672,101.25 56.66797,109.26562 56.66797,109.52344 
					32.13672,101.50391 				"/>
				<polygon clip-path="url(#SVGID_8_)" fill="#C8C8C8" points="32.13672,100.99219 56.66797,109.00781 56.66797,109.26562 
					32.13672,101.25 				"/>
				<polygon clip-path="url(#SVGID_8_)" fill="#C7C7C7" points="32.13672,100.73438 56.66797,108.75 56.66797,109.00781 
					32.13672,100.99219 				"/>
				<polygon clip-path="url(#SVGID_8_)" fill="#C6C6C6" points="32.13672,100.47656 56.66797,108.49219 56.66797,108.75 
					32.13672,100.73438 				"/>
				<polygon clip-path="url(#SVGID_8_)" fill="#C5C5C5" points="32.13672,100.21875 56.66797,108.23438 56.66797,108.49219 
					32.13672,100.47656 				"/>
				<polygon clip-path="url(#SVGID_8_)" fill="#C4C4C4" points="32.13672,99.96094 56.66797,107.97656 56.66797,108.23438 
					32.13672,100.21875 				"/>
				<polygon clip-path="url(#SVGID_8_)" fill="#C3C3C3" points="32.13672,99.70312 56.66797,107.71875 56.66797,107.97656 
					32.13672,99.96094 				"/>
				<polygon clip-path="url(#SVGID_8_)" fill="#C2C2C2" points="32.13672,99.44531 56.66797,107.46094 56.66797,107.71875 
					32.13672,99.70312 				"/>
				<polygon clip-path="url(#SVGID_8_)" fill="#C1C1C1" points="32.13672,99.1875 56.66797,107.20312 56.66797,107.46094 
					32.13672,99.44531 				"/>
				<polygon clip-path="url(#SVGID_8_)" fill="#C0C0C0" points="32.13672,98.92969 56.66797,106.94531 56.66797,107.20312 
					32.13672,99.1875 				"/>
				<polygon clip-path="url(#SVGID_8_)" fill="#BFBFBF" points="32.13672,98.67188 56.66797,106.6875 56.66797,106.94531 
					32.13672,98.92969 				"/>
				<polygon clip-path="url(#SVGID_8_)" fill="#BEBEBE" points="32.13672,98.41406 56.66797,106.42969 56.66797,106.6875 
					32.13672,98.67188 				"/>
				<polygon clip-path="url(#SVGID_8_)" fill="#BCBCBC" points="32.13672,98.15625 56.66797,106.17578 56.66797,106.42969 
					32.13672,98.41406 				"/>
				<polygon clip-path="url(#SVGID_8_)" fill="#BBBBBB" points="32.13672,97.89844 56.66797,105.91797 56.66797,106.17578 
					32.13672,98.15625 				"/>
				<polygon clip-path="url(#SVGID_8_)" fill="#BABABA" points="32.13672,97.64453 56.66797,105.66016 56.66797,105.91797 
					32.13672,97.89844 				"/>
				<polygon clip-path="url(#SVGID_8_)" fill="#B9B9B9" points="32.13672,97.38672 56.66797,105.40234 56.66797,105.66016 
					32.13672,97.64453 				"/>
				<polygon clip-path="url(#SVGID_8_)" fill="#B8B8B8" points="32.13672,97.12891 56.66797,105.14453 56.66797,105.40234 
					32.13672,97.38672 				"/>
				<polygon clip-path="url(#SVGID_8_)" fill="#B7B7B7" points="32.13672,96.87109 56.66797,104.88672 56.66797,105.14453 
					32.13672,97.12891 				"/>
				<polygon clip-path="url(#SVGID_8_)" fill="#B6B6B6" points="32.13672,96.61328 56.66797,104.62891 56.66797,104.88672 
					32.13672,96.87109 				"/>
				<polygon clip-path="url(#SVGID_8_)" fill="#B5B5B5" points="32.13672,96.35547 56.66797,104.37109 56.66797,104.62891 
					32.13672,96.61328 				"/>
				<polygon clip-path="url(#SVGID_8_)" fill="#B4B4B4" points="32.13672,96.09766 56.66797,104.11328 56.66797,104.37109 
					32.13672,96.35547 				"/>
				<polygon clip-path="url(#SVGID_8_)" fill="#B3B3B3" points="32.13672,95.83984 56.66797,103.85938 56.66797,104.11328 
					32.13672,96.09766 				"/>
				<polygon clip-path="url(#SVGID_8_)" fill="#B2B2B2" points="32.13672,95.58203 56.66797,103.60156 56.66797,103.85938 
					32.13672,95.83984 				"/>
				<polygon clip-path="url(#SVGID_8_)" fill="#B1B1B1" points="32.13672,95.32422 56.66797,103.34375 56.66797,103.60156 
					32.13672,95.58203 				"/>
				<polygon clip-path="url(#SVGID_8_)" fill="#B0B0B0" points="32.13672,95.07031 56.66797,103.08594 56.66797,103.34375 
					32.13672,95.32422 				"/>
				<polygon clip-path="url(#SVGID_8_)" fill="#AFAFAF" points="32.13672,94.8125 56.66797,102.82812 56.66797,103.08594 
					32.13672,95.07031 				"/>
				<polygon clip-path="url(#SVGID_8_)" fill="#AEAEAE" points="32.13672,94.55469 56.66797,102.57031 56.66797,102.82812 
					32.13672,94.8125 				"/>
				<polygon clip-path="url(#SVGID_8_)" fill="#ADADAD" points="32.13672,94.29688 56.66797,102.3125 56.66797,102.57031 
					32.13672,94.55469 				"/>
				<polygon clip-path="url(#SVGID_8_)" fill="#ACACAC" points="32.13672,94.03906 56.66797,102.05469 56.66797,102.3125 
					32.13672,94.29688 				"/>
				<polygon clip-path="url(#SVGID_8_)" fill="#ABABAB" points="32.13672,93.78125 56.66797,101.79688 56.66797,102.05469 
					32.13672,94.03906 				"/>
				<polygon clip-path="url(#SVGID_8_)" fill="#ABABAB" points="32.13672,93.5625 56.66797,101.57812 56.66797,101.79688 
					32.13672,93.78125 				"/>
				<polygon clip-path="url(#SVGID_8_)" fill="#AAAAAA" points="32.13672,93.34375 56.66797,101.36328 56.66797,101.57812 
					32.13672,93.5625 				"/>
				<polygon clip-path="url(#SVGID_8_)" fill="#A9A9A9" points="32.13672,93.12891 56.66797,101.14453 56.66797,101.36328 
					32.13672,93.34375 				"/>
				<polygon clip-path="url(#SVGID_8_)" fill="#A8A8A8" points="32.13672,92.91016 56.66797,100.92578 56.66797,101.14453 
					32.13672,93.12891 				"/>
				<polygon clip-path="url(#SVGID_8_)" fill="#A7A7A7" points="32.13672,92.69141 56.66797,100.70703 56.66797,100.92578 
					32.13672,92.91016 				"/>
				<polygon clip-path="url(#SVGID_8_)" fill="#A6A6A6" points="32.13672,92.47266 56.66797,100.49219 56.66797,100.70703 
					32.13672,92.69141 				"/>
				<polygon clip-path="url(#SVGID_8_)" fill="#A5A5A5" points="32.13672,92.25781 56.66797,100.27344 56.66797,100.49219 
					32.13672,92.47266 				"/>
				<polygon clip-path="url(#SVGID_8_)" fill="#A4A4A4" points="32.13672,92.03906 56.66797,100.05469 56.66797,100.27344 
					32.13672,92.25781 				"/>
				<polygon clip-path="url(#SVGID_8_)" fill="#A3A3A3" points="32.13672,91.82031 56.66797,99.83594 56.66797,100.05469 
					32.13672,92.03906 				"/>
				<polygon clip-path="url(#SVGID_8_)" fill="#A1A1A1" points="32.13672,91.60156 56.66797,99.61719 56.66797,99.83594 
					32.13672,91.82031 				"/>
				<polygon clip-path="url(#SVGID_8_)" fill="#A0A0A0" points="32.67578,91.55859 56.66797,99.40234 56.66797,99.61719 
					32.13672,91.60156 32.13672,91.55859 				"/>
				<polygon clip-path="url(#SVGID_8_)" fill="#9F9F9F" points="33.33984,91.55859 56.66797,99.18359 56.66797,99.40234 
					32.67578,91.55859 				"/>
				<polygon clip-path="url(#SVGID_8_)" fill="#9E9E9E" points="34.00781,91.55859 56.66797,98.96484 56.66797,99.18359 
					33.33984,91.55859 				"/>
				<polygon clip-path="url(#SVGID_8_)" fill="#9D9D9D" points="34.67578,91.55859 56.66797,98.74609 56.66797,98.96484 
					34.00781,91.55859 				"/>
				<polygon clip-path="url(#SVGID_8_)" fill="#9C9C9C" points="35.33984,91.55859 56.66797,98.53125 56.66797,98.74609 
					34.67578,91.55859 				"/>
				<polygon clip-path="url(#SVGID_8_)" fill="#9B9B9B" points="36.00781,91.55859 56.66797,98.3125 56.66797,98.53125 
					35.33984,91.55859 				"/>
				<polygon clip-path="url(#SVGID_8_)" fill="#9A9A9A" points="36.67578,91.55859 56.66797,98.09375 56.66797,98.3125 
					36.00781,91.55859 				"/>
				<polygon clip-path="url(#SVGID_8_)" fill="#999999" points="37.34375,91.55859 56.66797,97.875 56.66797,98.09375 
					36.67578,91.55859 				"/>
				<polygon clip-path="url(#SVGID_8_)" fill="#999999" points="56.66797,97.875 37.34375,91.55859 56.66797,91.55859 				"/>
			</g>
		</g>
		<g id="Path_4_">
			<g>
				<defs>
					<path id="SVGID_9_" d="M48.57812,117.29004c-4.63623,2.26172-9.69482,3.52539-14.8501,3.70996l-1.58984-1l9.18018,10.37012
						h0.2998c5.26465-0.05762,10.43506-1.40332,15.06006-3.91992L48.57812,117.29004z"/>
				</defs>
				<clipPath id="SVGID_10_">
					<use xlink:href="#SVGID_9_"  overflow="visible"/>
				</clipPath>
				<polygon clip-path="url(#SVGID_10_)" fill="#E6E6E6" points="32.73828,117.28906 44.46875,130.37109 32.13672,130.37109 
					32.13672,117.28906 				"/>
				<polygon clip-path="url(#SVGID_10_)" fill="#E6E6E6" points="33.02344,117.28906 44.75781,130.37109 44.46875,130.37109 
					32.73438,117.28906 				"/>
				<polygon clip-path="url(#SVGID_10_)" fill="#E5E5E5" points="33.30859,117.28906 45.04297,130.37109 44.75781,130.37109 
					33.02344,117.28906 				"/>
				<polygon clip-path="url(#SVGID_10_)" fill="#E4E4E4" points="33.59375,117.28906 45.32812,130.37109 45.04297,130.37109 
					33.30859,117.28906 				"/>
				<polygon clip-path="url(#SVGID_10_)" fill="#E3E3E3" points="33.88281,117.28906 45.61719,130.37109 45.32812,130.37109 
					33.59375,117.28906 				"/>
				<polygon clip-path="url(#SVGID_10_)" fill="#E2E2E2" points="34.16797,117.28906 45.90234,130.37109 45.61719,130.37109 
					33.88281,117.28906 				"/>
				<polygon clip-path="url(#SVGID_10_)" fill="#E0E0E0" points="34.45703,117.28906 46.1875,130.37109 45.90234,130.37109 
					34.16797,117.28906 				"/>
				<polygon clip-path="url(#SVGID_10_)" fill="#DFDFDF" points="34.74219,117.28906 46.47656,130.37109 46.1875,130.37109 
					34.45703,117.28906 				"/>
				<polygon clip-path="url(#SVGID_10_)" fill="#DEDEDE" points="35.02734,117.28906 46.76172,130.37109 46.47656,130.37109 
					34.74219,117.28906 				"/>
				<polygon clip-path="url(#SVGID_10_)" fill="#DDDDDD" points="35.31641,117.28906 47.05078,130.37109 46.76172,130.37109 
					35.02734,117.28906 				"/>
				<polygon clip-path="url(#SVGID_10_)" fill="#DDDDDD" points="35.5,117.28906 47.23047,130.37109 47.04688,130.37109 
					35.31641,117.28906 				"/>
				<polygon clip-path="url(#SVGID_10_)" fill="#DCDCDC" points="35.67969,117.28906 47.41406,130.37109 47.23047,130.37109 
					35.5,117.28906 				"/>
				<polygon clip-path="url(#SVGID_10_)" fill="#DBDBDB" points="35.86328,117.28906 47.59766,130.37109 47.41406,130.37109 
					35.67969,117.28906 				"/>
				<polygon clip-path="url(#SVGID_10_)" fill="#DADADA" points="36.04688,117.28906 47.78125,130.37109 47.59766,130.37109 
					35.86328,117.28906 				"/>
				<polygon clip-path="url(#SVGID_10_)" fill="#D9D9D9" points="36.23047,117.28906 47.96094,130.37109 47.78125,130.37109 
					36.04688,117.28906 				"/>
				<polygon clip-path="url(#SVGID_10_)" fill="#D8D8D8" points="36.41406,117.28906 48.14453,130.37109 47.96094,130.37109 
					36.23047,117.28906 				"/>
				<polygon clip-path="url(#SVGID_10_)" fill="#D7D7D7" points="36.59375,117.28906 48.32812,130.37109 48.14453,130.37109 
					36.41406,117.28906 				"/>
				<polygon clip-path="url(#SVGID_10_)" fill="#D6D6D6" points="36.77734,117.28906 48.51172,130.37109 48.32812,130.37109 
					36.59375,117.28906 				"/>
				<polygon clip-path="url(#SVGID_10_)" fill="#D5D5D5" points="36.96094,117.28906 48.69531,130.37109 48.51172,130.37109 
					36.77734,117.28906 				"/>
				<polygon clip-path="url(#SVGID_10_)" fill="#D4D4D4" points="37.14453,117.28906 48.875,130.37109 48.69531,130.37109 
					36.96094,117.28906 				"/>
				<polygon clip-path="url(#SVGID_10_)" fill="#D3D3D3" points="37.32812,117.28906 49.05859,130.37109 48.875,130.37109 
					37.14453,117.28906 				"/>
				<polygon clip-path="url(#SVGID_10_)" fill="#D2D2D2" points="37.50781,117.28906 49.24219,130.37109 49.05859,130.37109 
					37.32812,117.28906 				"/>
				<polygon clip-path="url(#SVGID_10_)" fill="#D0D0D0" points="37.69141,117.28906 49.42578,130.37109 49.24219,130.37109 
					37.50781,117.28906 				"/>
				<polygon clip-path="url(#SVGID_10_)" fill="#CFCFCF" points="37.875,117.28906 49.60938,130.37109 49.42578,130.37109 
					37.69141,117.28906 				"/>
				<polygon clip-path="url(#SVGID_10_)" fill="#CECECE" points="38.05859,117.28906 49.78906,130.37109 49.60938,130.37109 
					37.875,117.28906 				"/>
				<polygon clip-path="url(#SVGID_10_)" fill="#CDCDCD" points="38.23828,117.28906 49.97266,130.37109 49.78906,130.37109 
					38.05859,117.28906 				"/>
				<polygon clip-path="url(#SVGID_10_)" fill="#CCCCCC" points="38.42188,117.28906 50.15625,130.37109 49.97266,130.37109 
					38.23828,117.28906 				"/>
				<polygon clip-path="url(#SVGID_10_)" fill="#CBCBCB" points="38.60547,117.28906 50.33984,130.37109 50.15625,130.37109 
					38.42188,117.28906 				"/>
				<polygon clip-path="url(#SVGID_10_)" fill="#CACACA" points="38.78906,117.28906 50.52344,130.37109 50.33984,130.37109 
					38.60547,117.28906 				"/>
				<polygon clip-path="url(#SVGID_10_)" fill="#C9C9C9" points="38.96875,117.28906 50.70312,130.37109 50.52344,130.37109 
					38.78906,117.28906 				"/>
				<polygon clip-path="url(#SVGID_10_)" fill="#C8C8C8" points="39.15234,117.28906 50.88672,130.37109 50.70312,130.37109 
					38.96875,117.28906 				"/>
				<polygon clip-path="url(#SVGID_10_)" fill="#C7C7C7" points="39.33594,117.28906 51.07031,130.37109 50.88672,130.37109 
					39.15234,117.28906 				"/>
				<polygon clip-path="url(#SVGID_10_)" fill="#C6C6C6" points="39.51953,117.28906 51.25391,130.37109 51.07031,130.37109 
					39.33594,117.28906 				"/>
				<polygon clip-path="url(#SVGID_10_)" fill="#C5C5C5" points="39.70312,117.28906 51.4375,130.37109 51.25391,130.37109 
					39.51953,117.28906 				"/>
				<polygon clip-path="url(#SVGID_10_)" fill="#C5C5C5" points="39.83594,117.28906 51.57031,130.37109 51.4375,130.37109 
					39.70312,117.28906 				"/>
				<polygon clip-path="url(#SVGID_10_)" fill="#C4C4C4" points="39.97266,117.28906 51.70703,130.37109 51.57031,130.37109 
					39.83594,117.28906 				"/>
				<polygon clip-path="url(#SVGID_10_)" fill="#C3C3C3" points="40.10938,117.28906 51.84375,130.37109 51.70703,130.37109 
					39.97266,117.28906 				"/>
				<polygon clip-path="url(#SVGID_10_)" fill="#C2C2C2" points="40.24219,117.28906 51.97656,130.37109 51.84375,130.37109 
					40.10938,117.28906 				"/>
				<polygon clip-path="url(#SVGID_10_)" fill="#C1C1C1" points="40.37891,117.28906 52.11328,130.37109 51.97656,130.37109 
					40.24219,117.28906 				"/>
				<polygon clip-path="url(#SVGID_10_)" fill="#C0C0C0" points="40.51562,117.28906 52.25,130.37109 52.11328,130.37109 
					40.37891,117.28906 				"/>
				<polygon clip-path="url(#SVGID_10_)" fill="#BFBFBF" points="40.64844,117.28906 52.38281,130.37109 52.25,130.37109 
					40.51562,117.28906 				"/>
				<polygon clip-path="url(#SVGID_10_)" fill="#BEBEBE" points="40.78516,117.28906 52.51953,130.37109 52.38281,130.37109 
					40.64844,117.28906 				"/>
				<polygon clip-path="url(#SVGID_10_)" fill="#BDBDBD" points="40.92188,117.28906 52.65625,130.37109 52.51953,130.37109 
					40.78516,117.28906 				"/>
				<polygon clip-path="url(#SVGID_10_)" fill="#BCBCBC" points="41.05859,117.28906 52.78906,130.37109 52.65625,130.37109 
					40.92188,117.28906 				"/>
				<polygon clip-path="url(#SVGID_10_)" fill="#BBBBBB" points="41.19141,117.28906 52.92578,130.37109 52.78906,130.37109 
					41.05859,117.28906 				"/>
				<polygon clip-path="url(#SVGID_10_)" fill="#BABABA" points="41.32812,117.28906 53.0625,130.37109 52.92578,130.37109 
					41.19141,117.28906 				"/>
				<polygon clip-path="url(#SVGID_10_)" fill="#B9B9B9" points="41.46484,117.28906 53.19531,130.37109 53.0625,130.37109 
					41.32812,117.28906 				"/>
				<polygon clip-path="url(#SVGID_10_)" fill="#B8B8B8" points="41.59766,117.28906 53.33203,130.37109 53.19531,130.37109 
					41.46484,117.28906 				"/>
				<polygon clip-path="url(#SVGID_10_)" fill="#B7B7B7" points="41.73438,117.28906 53.46875,130.37109 53.33203,130.37109 
					41.59766,117.28906 				"/>
				<polygon clip-path="url(#SVGID_10_)" fill="#B6B6B6" points="41.87109,117.28906 53.60156,130.37109 53.46875,130.37109 
					41.73438,117.28906 				"/>
				<polygon clip-path="url(#SVGID_10_)" fill="#B5B5B5" points="42.00391,117.28906 53.73828,130.37109 53.60156,130.37109 
					41.87109,117.28906 				"/>
				<polygon clip-path="url(#SVGID_10_)" fill="#B4B4B4" points="42.14062,117.28906 53.875,130.37109 53.73828,130.37109 
					42.00391,117.28906 				"/>
				<polygon clip-path="url(#SVGID_10_)" fill="#B3B3B3" points="42.27734,117.28906 54.00781,130.37109 53.875,130.37109 
					42.14062,117.28906 				"/>
				<polygon clip-path="url(#SVGID_10_)" fill="#B2B2B2" points="42.41016,117.28906 54.14453,130.37109 54.00781,130.37109 
					42.27734,117.28906 				"/>
				<polygon clip-path="url(#SVGID_10_)" fill="#B0B0B0" points="42.54688,117.28906 54.28125,130.37109 54.14453,130.37109 
					42.41016,117.28906 				"/>
				<polygon clip-path="url(#SVGID_10_)" fill="#AFAFAF" points="42.68359,117.28906 54.41406,130.37109 54.28125,130.37109 
					42.54688,117.28906 				"/>
				<polygon clip-path="url(#SVGID_10_)" fill="#AEAEAE" points="42.82031,117.28906 54.55078,130.37109 54.41406,130.37109 
					42.68359,117.28906 				"/>
				<polygon clip-path="url(#SVGID_10_)" fill="#ADADAD" points="42.95312,117.28906 54.6875,130.37109 54.55078,130.37109 
					42.82031,117.28906 				"/>
				<polygon clip-path="url(#SVGID_10_)" fill="#ACACAC" points="43.08984,117.28906 54.82031,130.37109 54.6875,130.37109 
					42.95312,117.28906 				"/>
				<polygon clip-path="url(#SVGID_10_)" fill="#ABABAB" points="43.22656,117.28906 54.95703,130.37109 54.82031,130.37109 
					43.08984,117.28906 				"/>
				<polygon clip-path="url(#SVGID_10_)" fill="#AAAAAA" points="43.35938,117.28906 55.09375,130.37109 54.95703,130.37109 
					43.22656,117.28906 				"/>
				<polygon clip-path="url(#SVGID_10_)" fill="#A9A9A9" points="43.49609,117.28906 55.23047,130.37109 55.09375,130.37109 
					43.35938,117.28906 				"/>
				<polygon clip-path="url(#SVGID_10_)" fill="#A8A8A8" points="43.63281,117.28906 55.36328,130.37109 55.23047,130.37109 
					43.49609,117.28906 				"/>
				<polygon clip-path="url(#SVGID_10_)" fill="#A7A7A7" points="43.76562,117.28906 55.5,130.37109 55.36328,130.37109 
					43.63281,117.28906 				"/>
				<polygon clip-path="url(#SVGID_10_)" fill="#A6A6A6" points="43.90234,117.28906 55.63672,130.37109 55.5,130.37109 
					43.76562,117.28906 				"/>
				<polygon clip-path="url(#SVGID_10_)" fill="#A5A5A5" points="44.03906,117.28906 55.76953,130.37109 55.63672,130.37109 
					43.90234,117.28906 				"/>
				<polygon clip-path="url(#SVGID_10_)" fill="#A4A4A4" points="44.17188,117.28906 55.90625,130.37109 55.76953,130.37109 
					44.03906,117.28906 				"/>
				<polygon clip-path="url(#SVGID_10_)" fill="#A3A3A3" points="44.30859,117.28906 56.04297,130.37109 55.90625,130.37109 
					44.17188,117.28906 				"/>
				<polygon clip-path="url(#SVGID_10_)" fill="#A2A2A2" points="44.44531,117.28906 56.17578,130.37109 56.04297,130.37109 
					44.30859,117.28906 				"/>
				<polygon clip-path="url(#SVGID_10_)" fill="#A1A1A1" points="44.57812,117.28906 56.3125,130.37109 56.17578,130.37109 
					44.44531,117.28906 				"/>
				<polygon clip-path="url(#SVGID_10_)" fill="#A0A0A0" points="44.71484,117.28906 56.44922,130.37109 56.3125,130.37109 
					44.57812,117.28906 				"/>
				<polygon clip-path="url(#SVGID_10_)" fill="#9F9F9F" points="44.85156,117.28906 56.58203,130.37109 56.44922,130.37109 
					44.71484,117.28906 				"/>
				<polygon clip-path="url(#SVGID_10_)" fill="#9E9E9E" points="44.98438,117.28906 56.67969,130.32422 56.67969,130.37109 
					56.58203,130.37109 44.85156,117.28906 				"/>
				<polygon clip-path="url(#SVGID_10_)" fill="#9D9D9D" points="45.12109,117.28906 56.67969,130.17188 56.67969,130.32422 
					44.98438,117.28906 				"/>
				<polygon clip-path="url(#SVGID_10_)" fill="#9D9D9D" points="45.25,117.28906 56.67969,130.03125 56.67969,130.17188 
					45.12109,117.28906 				"/>
				<polygon clip-path="url(#SVGID_10_)" fill="#9C9C9C" points="45.37891,117.28906 56.67969,129.88672 56.67969,130.03125 
					45.25,117.28906 				"/>
				<polygon clip-path="url(#SVGID_10_)" fill="#9A9A9A" points="45.50781,117.28906 56.67969,129.74219 56.67969,129.88672 
					45.37891,117.28906 				"/>
				<polygon clip-path="url(#SVGID_10_)" fill="#999999" points="45.63672,117.28906 56.67969,129.59766 56.67969,129.74219 
					45.50781,117.28906 				"/>
				<polygon clip-path="url(#SVGID_10_)" fill="#999999" points="56.67969,129.59766 45.63672,117.28906 56.67969,117.28906 				"/>
			</g>
		</g>
		<g id="Path_5_">
			<g>
				<defs>
					<path id="SVGID_11_" d="M73.13818,85.10986c-1.37988-1.56006-6.62988-7.6001-8.06006-9.21973l-22.52979,32.27002
						c0.0498,0.09961,7.72998,8.84961,7.72998,8.84961c2.98291,3.39648,7.62744,4.81641,12,3.66992
						c2.3623-0.67578,4.52197-1.92285,6.29004-3.62988C77.81836,106.4502,80.03809,92.91992,73.13818,85.10986z"/>
				</defs>
				<clipPath id="SVGID_12_">
					<use xlink:href="#SVGID_11_"  overflow="visible"/>
				</clipPath>
				<polygon clip-path="url(#SVGID_12_)" fill="#FFFFFF" points="42.54688,101.66406 60.64453,121.82812 42.54688,121.82812 				"/>
				<polygon clip-path="url(#SVGID_12_)" fill="#FFFFFF" points="42.54688,101.55469 60.74219,121.82812 60.64062,121.82812 
					42.54688,101.67188 				"/>
				<polygon clip-path="url(#SVGID_12_)" fill="#FEFEFE" points="42.54688,101.4375 60.84766,121.82812 60.74219,121.82812 
					42.54688,101.55469 				"/>
				<polygon clip-path="url(#SVGID_12_)" fill="#FDFDFD" points="42.54688,101.32422 60.95312,121.82812 60.84766,121.82812 
					42.54688,101.4375 				"/>
				<polygon clip-path="url(#SVGID_12_)" fill="#FCFCFC" points="42.54688,101.20703 61.05469,121.82812 60.95312,121.82812 
					42.54688,101.32422 				"/>
				<polygon clip-path="url(#SVGID_12_)" fill="#FBFBFB" points="42.54688,101.09375 61.15625,121.82812 61.05469,121.82812 
					42.54688,101.20703 				"/>
				<polygon clip-path="url(#SVGID_12_)" fill="#FAFAFA" points="42.54688,100.97656 61.26172,121.82812 61.15625,121.82812 
					42.54688,101.09375 				"/>
				<polygon clip-path="url(#SVGID_12_)" fill="#F9F9F9" points="42.54688,100.85938 61.36719,121.82812 61.26172,121.82812 
					42.54688,100.97656 				"/>
				<polygon clip-path="url(#SVGID_12_)" fill="#F8F8F8" points="42.54688,100.74219 61.46875,121.82812 61.36719,121.82812 
					42.54688,100.85938 				"/>
				<polygon clip-path="url(#SVGID_12_)" fill="#F7F7F7" points="42.54688,100.62891 61.57422,121.82812 61.46875,121.82812 
					42.54688,100.74219 				"/>
				<polygon clip-path="url(#SVGID_12_)" fill="#F6F6F6" points="42.54688,100.51172 61.67578,121.82812 61.57422,121.82812 
					42.54688,100.62891 				"/>
				<polygon clip-path="url(#SVGID_12_)" fill="#F5F5F5" points="42.54688,100.39844 61.78125,121.82812 61.67578,121.82812 
					42.54688,100.51172 				"/>
				<polygon clip-path="url(#SVGID_12_)" fill="#F4F4F4" points="42.54688,100.28125 61.88672,121.82812 61.78125,121.82812 
					42.54688,100.39844 				"/>
				<polygon clip-path="url(#SVGID_12_)" fill="#F2F2F2" points="42.54688,100.16406 61.98828,121.82812 61.88672,121.82812 
					42.54688,100.28125 				"/>
				<polygon clip-path="url(#SVGID_12_)" fill="#F1F1F1" points="42.54688,100.05078 62.09375,121.82812 61.98828,121.82812 
					42.54688,100.16406 				"/>
				<polygon clip-path="url(#SVGID_12_)" fill="#F0F0F0" points="42.54688,99.93359 62.19531,121.82812 62.09375,121.82812 
					42.54688,100.05078 				"/>
				<polygon clip-path="url(#SVGID_12_)" fill="#EFEFEF" points="42.54688,99.82031 62.30078,121.82812 62.19531,121.82812 
					42.54688,99.93359 				"/>
				<polygon clip-path="url(#SVGID_12_)" fill="#EEEEEE" points="42.54688,99.70312 62.40625,121.82812 62.30078,121.82812 
					42.54688,99.82031 				"/>
				<polygon clip-path="url(#SVGID_12_)" fill="#EDEDED" points="42.54688,99.58594 62.50781,121.82812 62.40625,121.82812 
					42.54688,99.70312 				"/>
				<polygon clip-path="url(#SVGID_12_)" fill="#ECECEC" points="42.54688,99.47266 62.61328,121.82812 62.50781,121.82812 
					42.54688,99.58594 				"/>
				<polygon clip-path="url(#SVGID_12_)" fill="#EBEBEB" points="42.54688,99.35547 62.71875,121.82812 62.61328,121.82812 
					42.54688,99.47266 				"/>
				<polygon clip-path="url(#SVGID_12_)" fill="#EAEAEA" points="42.54688,99.23828 62.82031,121.82812 62.71875,121.82812 
					42.54688,99.35547 				"/>
				<polygon clip-path="url(#SVGID_12_)" fill="#E9E9E9" points="42.54688,99.125 62.92578,121.82812 62.82031,121.82812 
					42.54688,99.23828 				"/>
				<polygon clip-path="url(#SVGID_12_)" fill="#E8E8E8" points="42.54688,99.00781 63.02734,121.82812 62.92578,121.82812 
					42.54688,99.125 				"/>
				<polygon clip-path="url(#SVGID_12_)" fill="#E8E8E8" points="42.54688,98.85547 63.16406,121.82812 63.02734,121.82812 
					42.54688,99.00781 				"/>
				<polygon clip-path="url(#SVGID_12_)" fill="#E7E7E7" points="42.54688,98.70312 63.30078,121.82812 63.16406,121.82812 
					42.54688,98.85547 				"/>
				<polygon clip-path="url(#SVGID_12_)" fill="#E6E6E6" points="42.54688,98.55078 63.4375,121.82812 63.30078,121.82812 
					42.54688,98.70312 				"/>
				<polygon clip-path="url(#SVGID_12_)" fill="#E5E5E5" points="42.54688,98.39844 63.57422,121.82812 63.4375,121.82812 
					42.54688,98.55078 				"/>
				<polygon clip-path="url(#SVGID_12_)" fill="#E4E4E4" points="42.54688,98.24609 63.71094,121.82812 63.57422,121.82812 
					42.54688,98.39844 				"/>
				<polygon clip-path="url(#SVGID_12_)" fill="#E3E3E3" points="42.54688,98.09375 63.85156,121.82812 63.71094,121.82812 
					42.54688,98.24609 				"/>
				<polygon clip-path="url(#SVGID_12_)" fill="#E2E2E2" points="42.54688,97.94141 63.98438,121.82812 63.85156,121.82812 
					42.54688,98.09375 				"/>
				<polygon clip-path="url(#SVGID_12_)" fill="#E1E1E1" points="42.54688,97.78906 64.125,121.82812 63.98438,121.82812 
					42.54688,97.94141 				"/>
				<polygon clip-path="url(#SVGID_12_)" fill="#E0E0E0" points="42.54688,97.63672 64.26172,121.82812 64.125,121.82812 
					42.54688,97.78906 				"/>
				<polygon clip-path="url(#SVGID_12_)" fill="#DFDFDF" points="42.54688,97.48438 64.39844,121.82812 64.26172,121.82812 
					42.54688,97.63672 				"/>
				<polygon clip-path="url(#SVGID_12_)" fill="#DEDEDE" points="42.54688,97.33203 64.53516,121.82812 64.39844,121.82812 
					42.54688,97.48438 				"/>
				<polygon clip-path="url(#SVGID_12_)" fill="#DDDDDD" points="42.54688,97.17969 64.67188,121.82812 64.53516,121.82812 
					42.54688,97.33203 				"/>
				<polygon clip-path="url(#SVGID_12_)" fill="#DCDCDC" points="42.54688,97.02734 64.80859,121.82812 64.67188,121.82812 
					42.54688,97.17969 				"/>
				<polygon clip-path="url(#SVGID_12_)" fill="#DBDBDB" points="42.54688,96.875 64.94531,121.82812 64.80859,121.82812 
					42.54688,97.02734 				"/>
				<polygon clip-path="url(#SVGID_12_)" fill="#DADADA" points="42.54688,96.72266 65.08203,121.82812 64.94531,121.82812 
					42.54688,96.875 				"/>
				<polygon clip-path="url(#SVGID_12_)" fill="#D9D9D9" points="42.54688,96.57031 65.21875,121.82812 65.08203,121.82812 
					42.54688,96.72266 				"/>
				<polygon clip-path="url(#SVGID_12_)" fill="#D7D7D7" points="42.54688,96.41406 65.35547,121.82812 65.21875,121.82812 
					42.54688,96.57031 				"/>
				<polygon clip-path="url(#SVGID_12_)" fill="#D6D6D6" points="42.54688,96.26562 65.49219,121.82812 65.35547,121.82812 
					42.54688,96.41406 				"/>
				<polygon clip-path="url(#SVGID_12_)" fill="#D5D5D5" points="42.54688,96.10938 65.62891,121.82812 65.49219,121.82812 
					42.54688,96.26562 				"/>
				<polygon clip-path="url(#SVGID_12_)" fill="#D4D4D4" points="42.54688,95.96094 65.76562,121.82812 65.62891,121.82812 
					42.54688,96.10938 				"/>
				<polygon clip-path="url(#SVGID_12_)" fill="#D3D3D3" points="42.54688,95.80469 65.90234,121.82812 65.76562,121.82812 
					42.54688,95.96094 				"/>
				<polygon clip-path="url(#SVGID_12_)" fill="#D2D2D2" points="42.54688,95.65234 66.03906,121.82812 65.90234,121.82812 
					42.54688,95.80469 				"/>
				<polygon clip-path="url(#SVGID_12_)" fill="#D1D1D1" points="42.54688,95.5 66.17578,121.82812 66.03906,121.82812 
					42.54688,95.65234 				"/>
				<polygon clip-path="url(#SVGID_12_)" fill="#D0D0D0" points="42.54688,95.34766 66.3125,121.82812 66.17578,121.82812 
					42.54688,95.5 				"/>
				<polygon clip-path="url(#SVGID_12_)" fill="#CFCFCF" points="42.54688,95.19531 66.44922,121.82812 66.3125,121.82812 
					42.54688,95.34766 				"/>
				<polygon clip-path="url(#SVGID_12_)" fill="#CECECE" points="42.54688,95.04297 66.58594,121.82812 66.44922,121.82812 
					42.54688,95.19531 				"/>
				<polygon clip-path="url(#SVGID_12_)" fill="#CDCDCD" points="42.54688,94.89062 66.72266,121.82812 66.58594,121.82812 
					42.54688,95.04297 				"/>
				<polygon clip-path="url(#SVGID_12_)" fill="#CCCCCC" points="42.54688,94.73828 66.85938,121.82812 66.72266,121.82812 
					42.54688,94.89062 				"/>
				<polygon clip-path="url(#SVGID_12_)" fill="#CBCBCB" points="42.54688,94.58594 66.99609,121.82812 66.85938,121.82812 
					42.54688,94.73828 				"/>
				<polygon clip-path="url(#SVGID_12_)" fill="#CACACA" points="42.54688,94.43359 67.13281,121.82812 66.99609,121.82812 
					42.54688,94.58594 				"/>
				<polygon clip-path="url(#SVGID_12_)" fill="#C9C9C9" points="42.54688,94.28125 67.26953,121.82812 67.13281,121.82812 
					42.54688,94.43359 				"/>
				<polygon clip-path="url(#SVGID_12_)" fill="#C8C8C8" points="42.54688,94.12891 67.40625,121.82812 67.26953,121.82812 
					42.54688,94.28125 				"/>
				<polygon clip-path="url(#SVGID_12_)" fill="#C8C8C8" points="42.54688,93.94141 67.57812,121.82812 67.40625,121.82812 
					42.54688,94.12891 				"/>
				<polygon clip-path="url(#SVGID_12_)" fill="#C7C7C7" points="42.54688,93.75391 67.74609,121.82812 67.57812,121.82812 
					42.54688,93.94141 				"/>
				<polygon clip-path="url(#SVGID_12_)" fill="#C6C6C6" points="42.54688,93.56641 67.91406,121.82812 67.74609,121.82812 
					42.54688,93.75391 				"/>
				<polygon clip-path="url(#SVGID_12_)" fill="#C5C5C5" points="42.54688,93.37891 68.08203,121.82812 67.91406,121.82812 
					42.54688,93.56641 				"/>
				<polygon clip-path="url(#SVGID_12_)" fill="#C4C4C4" points="42.54688,93.19141 68.25,121.82812 68.08203,121.82812 
					42.54688,93.37891 				"/>
				<polygon clip-path="url(#SVGID_12_)" fill="#C3C3C3" points="42.54688,93.00391 68.41797,121.82812 68.25,121.82812 
					42.54688,93.19141 				"/>
				<polygon clip-path="url(#SVGID_12_)" fill="#C2C2C2" points="42.54688,92.81641 68.58594,121.82812 68.41797,121.82812 
					42.54688,93.00391 				"/>
				<polygon clip-path="url(#SVGID_12_)" fill="#C1C1C1" points="42.54688,92.625 68.75781,121.82812 68.58594,121.82812 
					42.54688,92.81641 				"/>
				<polygon clip-path="url(#SVGID_12_)" fill="#C0C0C0" points="42.54688,92.4375 68.92578,121.82812 68.75781,121.82812 
					42.54688,92.625 				"/>
				<polygon clip-path="url(#SVGID_12_)" fill="#BFBFBF" points="42.54688,92.25 69.09375,121.82812 68.92578,121.82812 
					42.54688,92.4375 				"/>
				<polygon clip-path="url(#SVGID_12_)" fill="#BEBEBE" points="42.54688,92.0625 69.26172,121.82812 69.09375,121.82812 
					42.54688,92.25 				"/>
				<polygon clip-path="url(#SVGID_12_)" fill="#BDBDBD" points="42.54688,91.875 69.42969,121.82812 69.26172,121.82812 
					42.54688,92.0625 				"/>
				<polygon clip-path="url(#SVGID_12_)" fill="#BCBCBC" points="42.54688,91.6875 69.59766,121.82812 69.42969,121.82812 
					42.54688,91.875 				"/>
				<polygon clip-path="url(#SVGID_12_)" fill="#BABABA" points="42.54688,91.5 69.76562,121.82812 69.59766,121.82812 
					42.54688,91.6875 				"/>
				<polygon clip-path="url(#SVGID_12_)" fill="#B9B9B9" points="42.54688,91.3125 69.93359,121.82812 69.76562,121.82812 
					42.54688,91.5 				"/>
				<polygon clip-path="url(#SVGID_12_)" fill="#B8B8B8" points="42.54688,91.125 70.10156,121.82812 69.93359,121.82812 
					42.54688,91.3125 				"/>
				<polygon clip-path="url(#SVGID_12_)" fill="#B7B7B7" points="42.54688,90.9375 70.26953,121.82812 70.10156,121.82812 
					42.54688,91.125 				"/>
				<polygon clip-path="url(#SVGID_12_)" fill="#B6B6B6" points="42.54688,90.75 70.44141,121.82812 70.26953,121.82812 
					42.54688,90.9375 				"/>
				<polygon clip-path="url(#SVGID_12_)" fill="#B5B5B5" points="42.54688,90.5625 70.60938,121.82812 70.44141,121.82812 
					42.54688,90.75 				"/>
				<polygon clip-path="url(#SVGID_12_)" fill="#B4B4B4" points="42.54688,90.375 70.77734,121.82812 70.60938,121.82812 
					42.54688,90.5625 				"/>
				<polygon clip-path="url(#SVGID_12_)" fill="#B3B3B3" points="42.54688,90.1875 70.94531,121.82812 70.77734,121.82812 
					42.54688,90.375 				"/>
				<polygon clip-path="url(#SVGID_12_)" fill="#B2B2B2" points="42.54688,90 71.11328,121.82812 70.94531,121.82812 
					42.54688,90.1875 				"/>
				<polygon clip-path="url(#SVGID_12_)" fill="#B1B1B1" points="42.54688,89.8125 71.28125,121.82812 71.11328,121.82812 
					42.54688,90 				"/>
				<polygon clip-path="url(#SVGID_12_)" fill="#B0B0B0" points="42.54688,89.625 71.44922,121.82812 71.28125,121.82812 
					42.54688,89.8125 				"/>
				<polygon clip-path="url(#SVGID_12_)" fill="#AFAFAF" points="42.54688,89.4375 71.61719,121.82812 71.44922,121.82812 
					42.54688,89.625 				"/>
				<polygon clip-path="url(#SVGID_12_)" fill="#AEAEAE" points="42.54688,89.25 71.78906,121.82812 71.61719,121.82812 
					42.54688,89.4375 				"/>
				<polygon clip-path="url(#SVGID_12_)" fill="#AEAEAE" points="42.54688,88.97656 72.03516,121.82812 71.78906,121.82812 
					42.54688,89.25 				"/>
				<polygon clip-path="url(#SVGID_12_)" fill="#ADADAD" points="42.54688,88.69922 72.28125,121.82812 72.03516,121.82812 
					42.54688,88.97656 				"/>
				<polygon clip-path="url(#SVGID_12_)" fill="#ACACAC" points="42.54688,88.42578 72.52734,121.82812 72.28125,121.82812 
					42.54688,88.69922 				"/>
				<polygon clip-path="url(#SVGID_12_)" fill="#ABABAB" points="42.54688,88.14844 72.77344,121.82812 72.52734,121.82812 
					42.54688,88.42578 				"/>
				<polygon clip-path="url(#SVGID_12_)" fill="#AAAAAA" points="42.54688,87.875 73.01953,121.82812 72.77344,121.82812 
					42.54688,88.14844 				"/>
				<polygon clip-path="url(#SVGID_12_)" fill="#A9A9A9" points="42.54688,87.60156 73.26562,121.82812 73.01953,121.82812 
					42.54688,87.875 				"/>
				<polygon clip-path="url(#SVGID_12_)" fill="#A8A8A8" points="42.54688,87.32812 73.51172,121.82812 73.26562,121.82812 
					42.54688,87.60156 				"/>
				<polygon clip-path="url(#SVGID_12_)" fill="#A7A7A7" points="42.54688,87.05078 73.75781,121.82812 73.51172,121.82812 
					42.54688,87.32812 				"/>
				<polygon clip-path="url(#SVGID_12_)" fill="#A6A6A6" points="42.54688,86.77734 74.00781,121.82812 73.75781,121.82812 
					42.54688,87.05078 				"/>
				<polygon clip-path="url(#SVGID_12_)" fill="#A5A5A5" points="42.54688,86.50391 74.25,121.82812 74.00781,121.82812 
					42.54688,86.77734 				"/>
				<polygon clip-path="url(#SVGID_12_)" fill="#A4A4A4" points="42.54688,86.22656 74.5,121.82812 74.25,121.82812 
					42.54688,86.50391 				"/>
				<polygon clip-path="url(#SVGID_12_)" fill="#A2A2A2" points="42.54688,85.95312 74.74609,121.82812 74.5,121.82812 
					42.54688,86.22656 				"/>
				<polygon clip-path="url(#SVGID_12_)" fill="#A1A1A1" points="42.54688,85.67969 74.99219,121.82812 74.74609,121.82812 
					42.54688,85.95312 				"/>
				<polygon clip-path="url(#SVGID_12_)" fill="#A0A0A0" points="42.54688,85.40625 75.23828,121.82812 74.99219,121.82812 
					42.54688,85.67969 				"/>
				<polygon clip-path="url(#SVGID_12_)" fill="#9F9F9F" points="42.54688,85.12891 75.48438,121.82812 75.23828,121.82812 
					42.54688,85.40625 				"/>
				<polygon clip-path="url(#SVGID_12_)" fill="#9E9E9E" points="42.54688,84.85547 75.73047,121.82812 75.48438,121.82812 
					42.54688,85.12891 				"/>
				<polygon clip-path="url(#SVGID_12_)" fill="#9D9D9D" points="42.54688,84.58203 75.97656,121.82812 75.73047,121.82812 
					42.54688,84.85547 				"/>
				<polygon clip-path="url(#SVGID_12_)" fill="#9C9C9C" points="42.54688,84.30469 76.22656,121.82812 75.97656,121.82812 
					42.54688,84.58203 				"/>
				<polygon clip-path="url(#SVGID_12_)" fill="#9B9B9B" points="42.54688,84.03125 76.46875,121.82812 76.22656,121.82812 
					42.54688,84.30469 				"/>
				<polygon clip-path="url(#SVGID_12_)" fill="#9A9A9A" points="42.54688,83.75781 76.71875,121.82812 76.46875,121.82812 
					42.54688,84.03125 				"/>
				<polygon clip-path="url(#SVGID_12_)" fill="#999999" points="42.54688,83.48047 76.96484,121.82812 76.71875,121.82812 
					42.54688,83.75781 				"/>
				<polygon clip-path="url(#SVGID_12_)" fill="#999999" points="42.54688,83.03906 77.36328,121.82812 76.96484,121.82812 
					42.54688,83.48438 				"/>
				<polygon clip-path="url(#SVGID_12_)" fill="#989898" points="42.54688,82.59375 77.75781,121.82812 77.36328,121.82812 
					42.54688,83.03906 				"/>
				<polygon clip-path="url(#SVGID_12_)" fill="#979797" points="42.54688,82.15234 78.15625,121.82812 77.75781,121.82812 
					42.54688,82.59375 				"/>
				<polygon clip-path="url(#SVGID_12_)" fill="#969696" points="42.54688,81.70703 78.55469,121.82812 78.15625,121.82812 
					42.54688,82.15234 				"/>
				<polygon clip-path="url(#SVGID_12_)" fill="#959595" points="42.54688,81.26562 78.95312,121.82812 78.55469,121.82812 
					42.54688,81.70703 				"/>
				<polygon clip-path="url(#SVGID_12_)" fill="#949494" points="42.54688,80.82031 79.35156,121.82812 78.95312,121.82812 
					42.54688,81.26562 				"/>
				<polygon clip-path="url(#SVGID_12_)" fill="#939393" points="42.54688,80.375 79.75,121.82812 79.35156,121.82812 
					42.54688,80.82031 				"/>
				<polygon clip-path="url(#SVGID_12_)" fill="#919191" points="42.54688,79.93359 80.03906,121.70312 80.03906,121.82812 
					79.75,121.82812 42.54688,80.375 				"/>
				<polygon clip-path="url(#SVGID_12_)" fill="#909090" points="42.54688,79.48828 80.03906,121.25781 80.03906,121.70312 
					42.54688,79.93359 				"/>
				<polygon clip-path="url(#SVGID_12_)" fill="#8F8F8F" points="42.54688,79.04688 80.03906,120.81641 80.03906,121.25781 
					42.54688,79.48828 				"/>
				<polygon clip-path="url(#SVGID_12_)" fill="#8E8E8E" points="42.54688,78.60156 80.03906,120.37109 80.03906,120.81641 
					42.54688,79.04688 				"/>
				<polygon clip-path="url(#SVGID_12_)" fill="#8D8D8D" points="42.54688,78.16016 80.03906,119.92969 80.03906,120.37109 
					42.54688,78.60156 				"/>
				<polygon clip-path="url(#SVGID_12_)" fill="#8C8C8C" points="42.54688,77.71484 80.03906,119.48438 80.03906,119.92969 
					42.54688,78.16016 				"/>
				<polygon clip-path="url(#SVGID_12_)" fill="#8B8B8B" points="42.54688,77.27344 80.03906,119.03906 80.03906,119.48438 
					42.54688,77.71484 				"/>
				<polygon clip-path="url(#SVGID_12_)" fill="#8B8B8B" points="42.54688,76.32812 80.03906,118.09766 80.03906,119.03906 
					42.54688,77.27344 				"/>
				<polygon clip-path="url(#SVGID_12_)" fill="#8A8A8A" points="43,75.89062 80.03906,117.15625 80.03906,118.09766 
					42.54688,76.32812 42.54688,75.89062 				"/>
				<polygon clip-path="url(#SVGID_12_)" fill="#898989" points="43.84766,75.89062 80.03906,116.21094 80.03906,117.15625 
					43,75.89062 				"/>
				<polygon clip-path="url(#SVGID_12_)" fill="#888888" points="44.69141,75.89062 80.03906,115.26953 80.03906,116.21094 
					43.84766,75.89062 				"/>
				<polygon clip-path="url(#SVGID_12_)" fill="#868686" points="45.53906,75.89062 80.03906,114.32812 80.03906,115.26953 
					44.69141,75.89062 				"/>
				<polygon clip-path="url(#SVGID_12_)" fill="#858585" points="46.38672,75.89062 80.03906,113.38281 80.03906,114.32812 
					45.53906,75.89062 				"/>
				<polygon clip-path="url(#SVGID_12_)" fill="#848484" points="47.23047,75.89062 80.03906,112.44141 80.03906,113.38281 
					46.38672,75.89062 				"/>
				<polygon clip-path="url(#SVGID_12_)" fill="#838383" points="48.07812,75.89062 80.03906,111.5 80.03906,112.44141 
					47.23047,75.89062 				"/>
				<polygon clip-path="url(#SVGID_12_)" fill="#838383" points="51.79297,75.89062 80.03906,107.35938 80.03906,111.5 
					48.07812,75.89062 				"/>
				<polygon clip-path="url(#SVGID_12_)" fill="#828282" points="55.50781,75.89062 80.03906,103.21875 80.03906,107.35938 
					51.79297,75.89062 				"/>
				<polygon clip-path="url(#SVGID_12_)" fill="#808080" points="59.22656,75.89062 80.03906,99.07812 80.03906,103.21875 
					55.50781,75.89062 				"/>
				<polygon clip-path="url(#SVGID_12_)" fill="#808080" points="80.03906,99.07812 59.22656,75.89062 80.03906,75.89062 				"/>
			</g>
		</g>
		<g id="Path_6_">
			<path fill="#0071CE" d="M55.61816,78.31982c-2.46143,4.96045-6.62988,8.86621-11.73975,11l-1.34033,0.59033
				c-1.27002,2.45996-3.5498,8-2.18994,13.61914c1.89014,7.81055,9,9.23047,13.85986,7.95117
				c2.3623-0.67676,4.52246-1.92383,6.29004-3.63086C69.79834,97.25,72.01807,83.72021,65.11816,75.8999
				c-1.78467-1.99658-4.04443-3.50977-6.56982-4.3999C57.74316,73.84326,56.76367,76.12305,55.61816,78.31982L55.61816,78.31982z"/>
		</g>
		<g id="Path_7_">
			<path fill="#0071CE" d="M24.21826,113.73047c0.81006-8.10059,6.67969-17.28027,8.20996-19.56055
				c-0.62988,0.29004-1.25,0.58984-1.85986,0.91016c-7.66016,4-9.68994,9.45996-9.68994,9.45996
				c0.6167-2.66895,1.62793-5.22949,3-7.6001c0.34961-0.54004,2.3999-4.8999,8.81982-9c6.16992-3.91016,10.27002-4.91992,17-9.41992
				c3.14551-2.02637,6.0332-4.42725,8.6001-7.1499C49.80811,68.4502,38.06836,71.4502,28.6084,79.7998
				c-12.47021,11-16.2002,27.01074-8.47021,35.7998c1.39844,1.56836,3.09912,2.83594,5,3.73047
				C24.53809,118.62988,23.88818,117.08984,24.21826,113.73047z"/>
		</g>
		<g id="Path_8_">
			<path fill="#0071CE" d="M43.48828,118.41016c-2.87988-0.16016-6.59033-2.42969-7.84033-8.62012
				c-1.1499-5.7002,1.84033-14.91992,3-18.25l-3,1.25c-1.20996,2.1499-6.63965,12.41992-5.68994,21.55957
				c0.43994,4.31055,2.36035,6.11035,3.66016,6.83984c5.24512-0.04297,10.39795-1.38281,15-3.89941
				C47.02344,118.07227,45.26367,118.45605,43.48828,118.41016L43.48828,118.41016z"/>
		</g>
		<g id="Shape_1_">
			<path fill="#231F20" d="M108.54883,100.1499c0,5.28955-3.09961,11.3208-11.29053,11.3208
				c-8.54004,0-11.12012-6.33008-11.12012-11.08057c0-6,3.7002-11.24023,11.24023-11.24023
				C105.62891,89.1499,108.54883,95.18018,108.54883,100.1499z M92.76807,100.35986c0,3.63037,1.47021,5.81982,4.61035,5.81982
				c2.65967,0,4.52002-2.09961,4.52002-5.99951c0.03125-0.93262-0.10059-1.86328-0.38965-2.75
				c-0.54492-1.81592-2.23535-3.04395-4.13037-3C95.0083,94.41016,92.76807,96,92.76807,100.35986z"/>
		</g>
		<g id="Path_9_">
			<path fill="#231F20" d="M113.13867,103.58008c0.61523,1.12402,1.66211,1.94727,2.90039,2.2793
				c0.94531,0.30957,1.93457,0.46875,2.92969,0.4707c0.5293,0,3.12988-0.06055,3.12988-1.57031c0-0.15039,0-0.91992-1.14941-1.2998
				c-0.74023-0.25977-4.58008-0.9502-5.44043-1.14941c-1.91992-0.51074-5.68066-1.69043-5.68066-6.10059
				c0.00586-0.92822,0.20703-1.84473,0.58984-2.68994c1.36133-3.06982,4.88086-4.27979,8.64062-4.27979
				c2.17383-0.04346,4.3291,0.41162,6.30078,1.32959c1.16992,0.57471,2.21289,1.37695,3.06934,2.36035l-4.13965,3.45996
				c-0.41016-0.58105-0.96094-1.04883-1.60059-1.36035c-1.22168-0.52441-2.54004-0.78662-3.87012-0.77002
				c-1.11914,0-2.35938,0.30029-2.35938,1.36035s1.05957,1.27002,2.85938,1.6001c4.65039,0.7998,9.25977,1.62988,9.25977,6.79932
				c0.0293,1.75195-0.64062,3.44336-1.85938,4.70117c-2.64062,2.68945-6.83008,2.68945-8,2.68945
				c-1.63867,0.02539-3.27148-0.18262-4.84961-0.62012c-2.32422-0.64551-4.36426-2.05371-5.79102-4L113.13867,103.58008z"/>
		</g>
		<g id="Path_10_">
			<polygon fill="#231F20" points="130.48828,89.91992 137.13867,89.91992 137.13867,110.79004 130.51855,110.79004 			"/>
		</g>
		<g id="Path_11_">
			<path fill="#A6A8AB" d="M144.35938,104.64062c-2.25-0.53125-5-1.15039-5-4.00049c0-2.54004,2.15918-4.14014,5.37891-4.14014
				c2.66016,0,5.5,1.27002,6,4.56006l-2.53906,0.31982c0.08789-0.87402-0.29199-1.72998-1-2.25
				c-0.78125-0.56543-1.72754-0.854-2.69043-0.81982c-1.83008,0-2.75,1.08984-2.75,2c0,1.33057,1.50977,1.73975,3.35059,2.18994
				l1.3291,0.32031c1.65039,0.38965,4.63965,1.08984,4.63965,4c0,2.2793-2,4.41016-5.85938,4.41016
				c-1.51758,0.06055-3.01758-0.33398-4.31055-1.13086c-1.19727-0.90625-1.95117-2.28125-2.06934-3.7793l2.65918-0.41016
				c-0.12305,1.01465,0.25,2.02637,1,2.71973c0.80859,0.59863,1.80859,0.87988,2.81055,0.79004
				c2.07031,0,3.28027-0.79004,3.28027-2.2998c0-1.51074-1.20996-1.89941-2.88965-2.21973L144.35938,104.64062z"/>
		</g>
		<g id="Shape_2_">
			<path fill="#A6A8AB" d="M158.92871,111.20996c-4.81934,0-6.86035-3.61035-6.86035-7.28027
				c0-3.09961,1.54102-7.50977,6.9502-7.50977c4.61035,0,6.74023,3.58008,6.70996,7.39062
				C165.69922,108,163.18848,111.20996,158.92871,111.20996z M163.00879,101.85938
				c-0.53027-2.74951-2.33008-3.54932-3.93066-3.54932c-3.16016,0-4.43945,2.45996-4.43945,5.6499
				c0,2.93066,1.2207,5.36035,4.25977,5.36035c3.92969,0,4.23047-4.08984,4.25977-5.50977
				C163.18848,103.15625,163.13867,102.50195,163.00879,101.85938z"/>
		</g>
		<g id="Path_12_">
			<path fill="#A6A8AB" d="M170.93848,96.85986h2.62988v2h-2.62988v11.99951h-2.28027V98.85986h-2.33984v-2h2.33984v-2.83008
				c0-1.18994,0.08984-4,3.61035-4c0.57324,0.01758,1.14551,0.07764,1.70996,0.18018v1.83008c-0.43945,0-1-0.10986-1.2998-0.10986
				c-1.75,0-1.77051,1.38965-1.77051,2.47998L170.93848,96.85986z"/>
		</g>
		<g id="Path_13_">
			<path fill="#A6A8AB" d="M179.38867,96.85986h2.54004v2h-2.54004v7.99951c0,1.66016,0,2.37109,1,2.37109
				c0.52246-0.04102,1.03711-0.15234,1.5293-0.33008v2c-0.74902,0.13477-1.50781,0.21484-2.26953,0.24023
				c-2.71973,0-2.71973-1.33008-2.68945-3.16016v-9.16064h-2.2207v-2h2.2207v-4.3999h2.41992L179.38867,96.85986z"/>
		</g>
		<g id="Shape_3_">
			<path fill="#231F20" d="M183.61914,108.40039c-0.00879-0.98438,0.57812-1.87695,1.48633-2.25977
				c0.90625-0.38281,1.95508-0.17969,2.6543,0.51367s0.91016,1.74023,0.53516,2.65039
				c-0.37402,0.91113-1.26172,1.50586-2.24609,1.50586c-0.64453,0.00977-1.26562-0.24023-1.72266-0.69336
				C183.86816,109.66406,183.61328,109.04492,183.61914,108.40039L183.61914,108.40039z M186.04883,110.40039
				c0.8125,0.01953,1.55762-0.4541,1.88281-1.19922c0.3252-0.74609,0.16699-1.61426-0.40039-2.19727
				c-0.56836-0.58203-1.43262-0.76172-2.18555-0.45605c-0.75391,0.30664-1.24609,1.03809-1.24707,1.85254
				c-0.01855,0.52734,0.17871,1.04102,0.5459,1.41992c0.36914,0.37988,0.875,0.59277,1.4043,0.58984V110.40039z M185.54883,109.7793
				h-0.41016V107h1c0.66016,0,1,0.24023,1,0.79004c0.01074,0.19824-0.06055,0.3916-0.19629,0.53516s-0.3252,0.22559-0.52441,0.22461
				l0.79102,1.21973h-0.4707l-0.72949-1.19922h-0.47949L185.54883,109.7793z M186.04883,108.23047
				c0.34961,0,0.66992,0,0.66992-0.45117c0-0.44922-0.31055-0.40918-0.59961-0.40918h-0.57031v0.86035H186.04883z"/>
		</g>
	</g>
</g>
<g>
	<path d="M76.69287,150.13867c-0.58984,0.49219-1.43213,0.73828-2.52686,0.73828h-2.09814V154.5h-2.0918v-10.07617h4.32617
		c0.99756,0,1.79297,0.25977,2.38574,0.7793c0.59326,0.51953,0.88965,1.32422,0.88965,2.41309
		C77.57764,148.80566,77.28271,149.64648,76.69287,150.13867z M75.08594,146.50879c-0.2666-0.22363-0.64014-0.33496-1.12061-0.33496
		h-1.89746v2.9668h1.89746c0.48047,0,0.854-0.12109,1.12061-0.3623s0.3999-0.62402,0.3999-1.14844
		S75.35254,146.73242,75.08594,146.50879z"/>
	<path d="M81.18701,154.5h-2.0918v-10.07617h2.0918V154.5z"/>
	<path d="M88.56299,151.38965c0.06494,0.45996,0.19336,0.80469,0.38379,1.03223c0.34912,0.41504,0.94678,0.62207,1.79395,0.62207
		c0.50684,0,0.91895-0.05469,1.23535-0.16406c0.6001-0.20996,0.90039-0.59961,0.90039-1.16895
		c0-0.33301-0.14697-0.58984-0.44092-0.77246c-0.29443-0.17773-0.76074-0.33496-1.39893-0.47168l-1.09082-0.23926
		c-1.07227-0.2373-1.80908-0.49414-2.20996-0.77246c-0.6792-0.46484-1.01855-1.19141-1.01855-2.18066
		c0-0.90234,0.33203-1.65234,0.99658-2.24902c0.66406-0.59668,1.64014-0.89551,2.92725-0.89551
		c1.07471,0,1.9917,0.28125,2.75049,0.84473c0.75879,0.5625,1.15674,1.37891,1.19385,2.4502h-2.02344
		c-0.0376-0.60645-0.30859-1.03711-0.81299-1.29199c-0.33643-0.16895-0.75439-0.25293-1.25439-0.25293
		c-0.55615,0-1,0.10938-1.33154,0.32812s-0.49756,0.52441-0.49756,0.91602c0,0.36035,0.16357,0.62891,0.49072,0.80664
		c0.20996,0.11816,0.65625,0.25781,1.33838,0.41699l1.76855,0.41699c0.7749,0.18262,1.35596,0.42578,1.74268,0.73145
		c0.60059,0.47363,0.90088,1.16016,0.90088,2.05762c0,0.9209-0.35596,1.68457-1.06738,2.29395
		c-0.71191,0.60742-1.71729,0.91211-3.01611,0.91211c-1.32666,0-2.37012-0.2998-3.12988-0.89844
		c-0.76025-0.59961-1.14014-1.42383-1.14014-2.47168H88.56299z"/>
	<path d="M96.52002,155.92871l0.24609,0.01367c0.19141,0.00879,0.37354,0.00195,0.54688-0.02051s0.31885-0.0752,0.4375-0.15723
		c0.11377-0.07715,0.21973-0.23926,0.31787-0.48535s0.14014-0.39648,0.12646-0.45117l-2.73779-7.7793h2.16699l1.62695,5.49609
		l1.53809-5.49609h2.07129l-2.55469,7.32812c-0.49365,1.41309-0.88379,2.28906-1.17139,2.62891
		c-0.2876,0.33887-0.8623,0.50879-1.72461,0.50879c-0.17334,0-0.3125-0.00098-0.41748-0.00293
		c-0.10498-0.00293-0.26221-0.01074-0.47217-0.02441V155.92871z"/>
	<path d="M105.52344,152.12109c0.04102,0.34668,0.12988,0.59277,0.26758,0.73828c0.24219,0.25977,0.69141,0.38965,1.3457,0.38965
		c0.38477,0,0.69141-0.05664,0.91797-0.1709s0.33984-0.28516,0.33984-0.5127c0-0.21875-0.0918-0.38477-0.27441-0.49902
		s-0.8623-0.30957-2.03809-0.58789c-0.84668-0.20996-1.44336-0.47168-1.78906-0.78613
		c-0.34668-0.30957-0.51953-0.75684-0.51953-1.33984c0-0.68848,0.26953-1.2793,0.81055-1.77441
		c0.54199-0.49414,1.30371-0.74121,2.28516-0.74121c0.93164,0,1.69141,0.18555,2.27832,0.55762
		c0.58594,0.37109,0.92383,1.0127,1.00977,1.92383h-1.94824c-0.02734-0.25098-0.09766-0.44922-0.21191-0.59473
		c-0.21484-0.26465-0.58105-0.39648-1.09668-0.39648c-0.42578,0-0.72852,0.06641-0.9082,0.19824
		c-0.18066,0.13184-0.27148,0.28711-0.27148,0.46484c0,0.22363,0.0957,0.38477,0.28906,0.48535
		c0.19141,0.10449,0.86914,0.28516,2.0332,0.54004c0.77637,0.18262,1.3584,0.45801,1.74512,0.82715
		c0.38281,0.37402,0.57422,0.84082,0.57422,1.40137c0,0.73828-0.27539,1.34082-0.82422,1.80859
		c-0.55078,0.4668-1.40137,0.7002-2.55176,0.7002c-1.17383,0-2.04102-0.24707-2.59961-0.74121
		c-0.55957-0.49512-0.83984-1.125-0.83984-1.89062H105.52344z"/>
	<path d="M111.0332,148.50488v-1.3877h1.03906v-2.07812H114v2.07812h1.20996v1.3877H114v3.9375
		c0,0.30566,0.03906,0.49512,0.11621,0.57129c0.07715,0.07422,0.31445,0.1123,0.71094,0.1123
		c0.05957,0,0.12207-0.00098,0.1875-0.00293c0.06641-0.00293,0.13184-0.00586,0.19531-0.01074v1.45605l-0.92285,0.03418
		c-0.9209,0.03223-1.5498-0.12793-1.88672-0.47852c-0.21875-0.22363-0.32812-0.56738-0.32812-1.03223v-4.58691H111.0332z"/>
	<path d="M121.31641,147.2002c0.51953,0.23242,0.94922,0.59961,1.28711,1.10156c0.30566,0.44336,0.50391,0.95605,0.59375,1.54102
		c0.05273,0.3418,0.07422,0.83496,0.06445,1.47852h-5.42676c0.03027,0.74707,0.29004,1.27148,0.7793,1.57227
		c0.29785,0.18652,0.65527,0.28027,1.07422,0.28027c0.44336,0,0.80469-0.11426,1.08203-0.3418
		c0.15039-0.12305,0.28418-0.29395,0.40039-0.5127h1.98926c-0.05273,0.44238-0.29297,0.89062-0.72266,1.34668
		c-0.66699,0.72461-1.60156,1.08691-2.80273,1.08691c-0.99219,0-1.86621-0.30566-2.625-0.91699
		c-0.75781-0.61133-1.13672-1.60547-1.13672-2.98242c0-1.29102,0.3418-2.28125,1.02637-2.96973s1.57227-1.0332,2.66504-1.0332
		C120.21289,146.85059,120.79688,146.9668,121.31641,147.2002z M118.40137,148.88281
		c-0.27539,0.28418-0.44824,0.66797-0.51855,1.15332h3.35645c-0.03516-0.51758-0.20801-0.90918-0.51855-1.17773
		c-0.31152-0.26758-0.69629-0.40137-1.15625-0.40137C119.06445,148.45703,118.67676,148.59863,118.40137,148.88281z"/>
	<path d="M133.54297,147.07617c0.31934,0.12793,0.6084,0.35059,0.86816,0.66992c0.20996,0.25977,0.35059,0.5791,0.42383,0.95703
		c0.0459,0.25098,0.06836,0.61719,0.06836,1.10059L134.88965,154.5h-1.99609v-4.74414c0-0.28223-0.0459-0.51465-0.13672-0.69727
		c-0.17285-0.34668-0.49219-0.51953-0.95703-0.51953c-0.53809,0-0.90918,0.22363-1.11426,0.66992
		c-0.10449,0.2373-0.15723,0.52148-0.15723,0.85449V154.5h-1.96191v-4.43652c0-0.44238-0.0459-0.76367-0.13672-0.96387
		c-0.16406-0.36035-0.48535-0.54004-0.96387-0.54004c-0.55566,0-0.92969,0.17969-1.12109,0.54004
		c-0.10449,0.20508-0.15723,0.51074-0.15723,0.91602V154.5h-1.97559v-7.4375h1.89355v1.08691
		c0.24121-0.3877,0.46973-0.66309,0.68359-0.82715c0.37793-0.29199,0.86816-0.4375,1.46973-0.4375
		c0.56934,0,1.03027,0.125,1.38086,0.37598c0.28223,0.23242,0.49707,0.53125,0.64258,0.89551
		c0.25488-0.4375,0.57227-0.75879,0.9502-0.96387c0.40137-0.20508,0.84766-0.30762,1.33984-0.30762
		C132.90039,146.88477,133.22363,146.94824,133.54297,147.07617z"/>
</g>
</svg>
