<?xml version="1.0" encoding="utf-8"?>
<!-- Generator: Adobe Illustrator 16.0.4, SVG Export Plug-In . SVG Version: 6.00 Build 0)  -->
<!DOCTYPE svg PUBLIC "-//W3C//DTD SVG 1.1//EN" "http://www.w3.org/Graphics/SVG/1.1/DTD/svg11.dtd">
<svg version="1.1" id="Layer_1" xmlns="http://www.w3.org/2000/svg" xmlns:xlink="http://www.w3.org/1999/xlink" x="0px" y="0px"
	 width="1056.5px" height="783.5px" viewBox="0 0 1056.5 783.5" enable-background="new 0 0 1056.5 783.5" xml:space="preserve">
<g id="XMLID_4586_">
	
		<linearGradient id="XMLID_2_" gradientUnits="userSpaceOnUse" x1="13.26172" y1="553.65234" x2="54.80726" y2="582.74292" gradientTransform="matrix(5.44457 -0.66871 -0.66871 -5.44457 357.97949 3331.90747)">
		<stop  offset="0" style="stop-color:#B3B3B3"/>
		<stop  offset="0.1755" style="stop-color:#D8D8D8"/>
		<stop  offset="0.3764" style="stop-color:#FFFFFF"/>
		<stop  offset="0.6798" style="stop-color:#FFFFFF"/>
		<stop  offset="1" style="stop-color:#FFFFFF"/>
	</linearGradient>
	<path id="XMLID_4622_" fill="url(#XMLID_2_)" d="M59.35693,307.97754c0,0,3.83984-46.62891,43.88574-80.64062
		c33.46289-27.97705,74.60547-42.78809,106.97119-63.08545s54.85742-41.69141,54.85742-41.69141l2.19434,0.54834
		c0,0-2.74316,19.2002-18.10303,46.62891c-8.22852,14.2627-25.78271,39.49707-67.47412,55.40576l-9.32568,24.68555
		c-18.10303,7.68018-45.53174,16.45703-45.53174,16.45703l-22.49121-2.74268
		C86.23682,267.38281,59.35693,307.97754,59.35693,307.97754z"/>
	
		<linearGradient id="XMLID_3_" gradientUnits="userSpaceOnUse" x1="14.39844" y1="539.4707" x2="33.72173" y2="553.00098" gradientTransform="matrix(5.44457 -0.66871 -0.66871 -5.44457 357.97949 3331.90747)">
		<stop  offset="0" style="stop-color:#FFFFFF"/>
		<stop  offset="0.1663" style="stop-color:#F9F9F9"/>
		<stop  offset="0.3898" style="stop-color:#E8E8E8"/>
		<stop  offset="0.6457" style="stop-color:#CCCCCC"/>
		<stop  offset="0.9239" style="stop-color:#A5A5A5"/>
		<stop  offset="1" style="stop-color:#999999"/>
	</linearGradient>
	<path id="XMLID_4621_" fill="url(#XMLID_3_)" d="M167.97412,296.45703l-42.78857-50.46826
		c-2.19434,2.74268-103.13135,76.80029-66.92578,117.94287c7.13135,8.22852,35.1084,40.59375,42.78857,49.37109
		s17.00586,15.36035,26.87988,20.29688c-3.2915-3.83984-6.58252-12.06836-4.93701-30.71973
		C127.37988,358.99414,159.74561,309.07422,167.97412,296.45703z"/>
	<g id="XMLID_4619_">
		
			<linearGradient id="XMLID_4_" gradientUnits="userSpaceOnUse" x1="15.83252" y1="537.43555" x2="17.11952" y2="538.33673" gradientTransform="matrix(5.44457 -0.66871 -0.66871 -5.44457 357.97949 3331.90747)">
			<stop  offset="0" style="stop-color:#F2F2F2"/>
			<stop  offset="1" style="stop-color:#CCCCCC"/>
		</linearGradient>
		<path id="XMLID_4620_" fill="url(#XMLID_4_)" d="M50.57959,344.73145c0,6.58301,2.19434,13.16602,7.68018,19.2002
			c7.13135,8.22852,35.1084,40.59375,42.78857,49.37109c7.13135,8.22852,17.5542,16.45703,30.17139,21.39453L50.57959,344.73145z"/>
	</g>
	
		<linearGradient id="XMLID_5_" gradientUnits="userSpaceOnUse" x1="29.14258" y1="527.50781" x2="44.27844" y2="559.96674" gradientTransform="matrix(5.44457 -0.66871 -0.66871 -5.44457 357.97949 3331.90747)">
		<stop  offset="0" style="stop-color:#FFFFFF"/>
		<stop  offset="0.1696" style="stop-color:#F9F9F9"/>
		<stop  offset="0.3863" style="stop-color:#EAEAEA"/>
		<stop  offset="0.6284" style="stop-color:#CFCFCF"/>
		<stop  offset="0.8873" style="stop-color:#ABABAB"/>
		<stop  offset="1" style="stop-color:#999999"/>
	</linearGradient>
	<path id="XMLID_4618_" fill="url(#XMLID_5_)" d="M212.95703,372.16016c-9.87451,4.38867-19.2002,6.58301-27.42871,6.58301
		c-4.93701-31.26855,10.42285-78.99512,17.00586-96.54883l-43.3374-49.91992c-6.03418,2.19434-12.06836,4.93701-17.00537,7.13135
		l-18.65186,147.56592l49.92041,56.50293h1.64551c25.78271,0.54785,54.85693-7.13184,81.7373-21.39453L212.95703,372.16016z"/>
	
		<linearGradient id="XMLID_6_" gradientUnits="userSpaceOnUse" x1="28.94727" y1="529.38379" x2="40.44226" y2="537.43268" gradientTransform="matrix(5.44457 -0.66871 -0.66871 -5.44457 357.97949 3331.90747)">
		<stop  offset="0" style="stop-color:#E6E6E6"/>
		<stop  offset="0.2058" style="stop-color:#DDDDDD"/>
		<stop  offset="0.5413" style="stop-color:#C4C4C4"/>
		<stop  offset="0.9627" style="stop-color:#9D9D9D"/>
		<stop  offset="1" style="stop-color:#999999"/>
	</linearGradient>
	<path id="XMLID_4617_" fill="url(#XMLID_6_)" d="M212.95703,372.16016c-17.5542,8.22852-47.17725,19.74805-80.64014,20.29688
		l-8.77734-5.48535l49.92041,56.50293h1.64551c25.78271,0.54785,54.85693-7.13184,81.7373-21.39453L212.95703,372.16016z"/>
	
		<linearGradient id="XMLID_7_" gradientUnits="userSpaceOnUse" x1="38.8291" y1="542.20117" x2="70.1286" y2="564.11725" gradientTransform="matrix(5.44457 -0.66871 -0.66871 -5.44457 357.97949 3331.90747)">
		<stop  offset="0" style="stop-color:#FFFFFF"/>
		<stop  offset="0.06478" style="stop-color:#E7E7E7"/>
		<stop  offset="0.1689" style="stop-color:#C7C7C7"/>
		<stop  offset="0.2823" style="stop-color:#ADADAD"/>
		<stop  offset="0.4064" style="stop-color:#999999"/>
		<stop  offset="0.5468" style="stop-color:#8A8A8A"/>
		<stop  offset="0.717" style="stop-color:#828282"/>
		<stop  offset="1" style="stop-color:#808080"/>
	</linearGradient>
	<path id="XMLID_4616_" fill="url(#XMLID_7_)" d="M346.25977,197.16553c-7.68018-8.22852-36.20557-41.14258-43.88574-49.91992
		L180.04248,322.78906c0,0.54785,42.24023,48.27344,42.24023,48.27344c18.10254,20.29785,44.43408,25.23438,65.27979,19.74902
		c16.45752-4.38867,29.07422-14.81152,34.01172-19.74902C372.04248,313.46289,384.11133,239.40576,346.25977,197.16553z"/>
	<path id="XMLID_4615_" fill="#0072B7" d="M251.35693,160.41162c-10.42285,19.19971-25.78271,42.78857-63.63428,59.79395
		c-2.74268,1.09717-4.93701,2.19434-7.13135,3.2915c-7.13135,13.16602-19.2002,43.3374-12.06885,74.05762
		c10.42285,42.23926,49.37158,50.46777,75.1543,43.33691c16.45752-4.38867,29.07422-14.81152,34.01172-19.74902
		c50.46826-57.59961,62.53711-131.1084,25.23389-173.89697c-9.87402-10.97119-21.94238-19.19971-35.65674-24.13721
		C265.61963,127.49707,259.58545,144.50293,251.35693,160.41162z"/>
	<path id="XMLID_4614_" fill="#0072B7" d="M80.20264,352.95996c4.38867-43.88574,36.20557-93.80566,44.43408-106.42285
		c-3.2915,1.64551-6.58252,3.2915-9.87402,4.93701c-41.69141,21.39453-52.66309,51.56592-52.66309,51.56592
		s5.48584-23.58887,16.45752-41.14307c1.64551-2.74268,13.16553-26.87988,47.72559-48.82275
		c33.46289-21.39404,55.9541-26.87988,92.15967-51.01709c29.07471-19.74854,43.3374-35.1084,46.62891-38.94873
		c-46.08008-15.9082-110.26318,0.54883-161.28027,46.08008C36.31689,227.88574,16.01953,315.1084,58.25977,362.83398
		c7.68018,8.77734,17.00586,15.36035,26.87988,20.29785C81.84814,379.83984,78.55713,371.0625,80.20264,352.95996z"/>
	<path id="XMLID_4610_" fill="#0072B7" d="M184.97998,378.19434c-15.90869-1.09668-35.65723-13.16602-42.78857-46.62891
		c-6.03467-30.71973,9.87402-81.18848,16.45703-99.29102c-6.03418,2.19434-11.52002,4.93701-16.45703,6.58301
		c-6.58301,11.51953-36.20605,67.47363-30.72021,117.39453c2.19434,23.58789,12.61719,33.46191,19.74854,37.30273
		c25.78271,0.54785,54.30859-7.13184,81.7373-21.39453C203.08252,376.54883,193.75684,378.74316,184.97998,378.19434z"/>
	<path id="XMLID_4607_" fill="#231F20" d="M549.23047,278.90283c0,29.07471-17.00586,61.43994-61.43945,61.43994
		c-46.62842,0-60.34277-34.55957-60.34277-60.34277c0-32.36572,20.29736-60.8916,60.89062-60.8916
		C533.32227,219.1084,549.23047,252.02295,549.23047,278.90283z M463.65381,280c0,19.74805,8.22852,31.81738,25.23389,31.81738
		c14.2627,0,24.68555-11.52051,24.68555-32.91455c0-5.48584-0.54785-10.42285-2.19434-14.81152
		c-5.48535-15.90869-19.19922-16.45703-22.49121-16.45703C475.72314,247.63428,463.65381,256.41162,463.65381,280z"/>
	<path id="XMLID_4605_" fill="#231F20" d="M573.91602,297.55469c3.29199,4.93652,6.03516,9.3252,15.90918,12.61719
		c4.93652,1.64551,10.42285,2.74219,15.9082,2.74219c2.74316,0,17.00586-0.54883,17.00586-8.77734
		c0-0.54785,0-4.93652-6.03418-7.13086c-3.83984-1.64648-24.68555-4.9375-29.62305-6.03418
		c-10.42285-2.74316-30.71973-9.32617-30.71973-32.91455c0-4.93701,1.09668-9.87402,3.29102-14.81152
		c7.13184-17.00537,26.33203-23.58838,47.17773-23.58838c13.16504,0,24.68555,2.74268,34.01074,7.13135
		c8.77734,4.38867,12.61719,8.77734,17.00586,12.61719l-22.49121,18.65137c-1.64551-2.19434-3.83984-4.93701-8.77734-7.68018
		c-6.58301-3.29102-15.36035-4.38818-20.8457-4.38818c-6.03418,0-12.61719,1.64551-12.61719,7.13135
		s6.03418,7.13135,15.36035,8.77686c25.23438,4.38867,50.46875,8.77734,50.46875,36.75439c0,12.06836-4.9375,20.29688-9.875,25.7832
		c-14.2627,14.81152-37.30273,14.81152-43.33691,14.81152c-8.77734,0-17.55371-0.54883-26.33105-3.29199
		c-18.10352-4.93652-26.33203-15.35938-31.26855-21.39355L573.91602,297.55469z"/>
	<path id="XMLID_4603_" fill="#231F20" d="M668.81934,223.49707h36.20605v113.55469h-36.20605V223.49707z"/>
	<path id="XMLID_4601_" fill="#A4A6A9" d="M743.97363,303.58789c-12.06836-2.74219-27.42871-6.0332-27.42871-21.94238
		c0-13.71387,11.52051-22.49121,29.07422-22.49121c14.2627,0,30.17188,7.13135,32.36621,24.68555l-13.71484,1.64648
		c0-4.9375-0.54883-8.229-5.48535-12.06934c-4.9375-3.83984-10.97168-4.38867-14.81152-4.38867
		c-9.87402,0-14.81152,6.03467-14.81152,10.97168c0,7.13086,8.22852,9.32617,18.10254,12.06836l7.13184,1.64648
		c8.77734,2.19336,25.23438,6.0332,25.23438,21.94238c0,12.61719-10.97168,24.13672-31.81738,24.13672
		c-8.77734,0-17.55371-1.64551-23.58887-6.03418c-2.19336-1.64551-9.87402-7.67969-11.51953-20.8457l14.2627-2.19434
		c0,3.29199,0,9.875,5.48535,14.81152c6.03516,3.29199,11.52051,3.83984,17.00586,3.83984
		c11.52051,0,18.10352-4.38867,18.10352-12.61719c0-8.77637-6.58301-10.42285-15.90918-12.06836L743.97363,303.58789z"/>
	<path id="XMLID_4598_" fill="#A4A6A9" d="M823.5166,339.24609c-26.33203,0-37.30273-19.74902-37.30273-39.49805
		c0-17.00586,8.22852-41.14258,37.85059-41.14258c25.23438,0,36.75488,19.74902,36.75488,40.0459
		C860.27051,321.69141,846.55664,339.24609,823.5166,339.24609z M845.45898,288.22852
		c-2.74219-14.81152-12.61719-19.19971-21.39355-19.19971c-17.00586,0-24.1377,13.16553-24.1377,30.71924
		c0,15.90918,6.58301,29.0752,23.04004,29.0752c21.39453,0,23.04004-21.94336,23.04004-30.17188
		C846.55664,294.2627,846.00781,290.42285,845.45898,288.22852z"/>
	<path id="XMLID_4596_" fill="#A4A6A9" d="M888.79688,261.34863h14.2627v10.42285h-14.2627v65.28027h-12.61719v-65.28027H863.5625
		v-10.42285h12.61719v-15.35986c0-6.58301,0.54785-21.39453,19.74805-21.39453c3.83984,0,7.13184,0.54883,9.32617,1.09717v9.87451
		c-2.19434-0.54883-5.48633-0.54883-7.13184-0.54883c-9.3252,0-9.87402,7.68018-9.87402,13.71436v12.61719H888.79688z"/>
	<path id="XMLID_4594_" fill="#A4A6A9" d="M934.87695,261.34863h13.71387v10.42285h-13.71387v43.33691
		c0,8.77734,0,12.61719,5.48535,12.61719c2.19434,0,6.03418-1.09668,8.22852-1.64551v10.42285
		c-2.19434,0.54883-7.67969,1.09668-12.61719,1.09668c-14.81152,0-14.81152-7.13086-14.81152-17.00488v-49.37207h-12.06836V260.7998
		h12.06836v-24.13672h13.16602v24.68555H934.87695z"/>
	<g id="XMLID_4587_">
		<path id="XMLID_4588_" fill="#231F20" d="M969.98535,324.43457c0-7.68066,6.03418-13.16602,13.16504-13.16602
			c7.13184,0,13.16602,5.48535,13.16602,13.16602c0,7.67969-6.03418,13.16504-13.16602,13.16504
			C976.01953,337.05176,969.98535,331.56543,969.98535,324.43457z M983.15039,335.40527c6.03516,0,10.42285-4.3877,10.42285-10.9707
			c0-6.03418-4.3877-10.97168-10.42285-10.97168c-6.03418,0-10.42285,4.38867-10.42285,10.97168
			C972.72754,330.46875,977.11621,335.40527,983.15039,335.40527z M980.4082,331.56543h-2.19434v-14.81152h5.48535
			c3.29199,0,5.48633,1.09766,5.48633,4.38867c0,2.74316-1.64648,3.83984-3.84082,4.38867l4.38867,6.58301h-2.74219
			l-3.84082-6.58301h-2.74219V331.56543z M983.15039,323.33691c2.19434,0,3.83984,0,3.83984-2.19434
			c0-1.64551-1.64551-2.19434-3.29102-2.19434h-3.29102v4.38867H983.15039z"/>
	</g>
</g>
<g>
	<path d="M384.45703,521.07031c-3.0332,2.53125-7.36523,3.79688-12.99561,3.79688h-10.78955V543.5h-10.75781v-51.82031h22.25
		c5.12939,0,9.21924,1.33594,12.26904,4.00781s4.57471,6.80859,4.57471,12.41016
		C389.00781,514.21484,387.49072,518.53906,384.45703,521.07031z M376.19287,502.40234
		c-1.37109-1.14844-3.29199-1.72266-5.76318-1.72266h-9.75781v15.25781h9.75781c2.47119,0,4.39209-0.62109,5.76318-1.86328
		s2.05713-3.21094,2.05713-5.90625S377.56396,503.55078,376.19287,502.40234z"/>
	<path d="M407.57031,543.5H396.8125v-51.82031h10.75781V543.5z"/>
	<path d="M445.50391,527.50391c0.33496,2.36719,0.99316,4.13672,1.97412,5.30859c1.79492,2.13281,4.86963,3.19922,9.2251,3.19922
		c2.6084,0,4.72656-0.28125,6.35352-0.84375c3.0874-1.07812,4.63086-3.08203,4.63086-6.01172
		c0-1.71094-0.75635-3.03516-2.26807-3.97266c-1.5127-0.91406-3.91113-1.72266-7.19482-2.42578l-5.61035-1.23047
		c-5.51416-1.21875-9.30225-2.54297-11.36426-3.97266c-3.49268-2.39062-5.23828-6.12891-5.23828-11.21484
		c0-4.64062,1.70801-8.49609,5.12451-11.56641c3.41699-3.07031,8.43506-4.60547,15.05469-4.60547
		c5.52783,0,10.24316,1.44727,14.14648,4.3418c3.90283,2.89453,5.94922,7.0957,6.13916,12.60352h-10.40625
		c-0.19238-3.11719-1.58594-5.33203-4.18066-6.64453c-1.73047-0.86719-3.88037-1.30078-6.45117-1.30078
		c-2.85986,0-5.14258,0.5625-6.84863,1.6875s-2.55859,2.69531-2.55859,4.71094c0,1.85156,0.84082,3.23438,2.52295,4.14844
		c1.08105,0.60938,3.37549,1.32422,6.88477,2.14453l9.09375,2.14453c3.98584,0.9375,6.97314,2.19141,8.96289,3.76172
		c3.08838,2.4375,4.6333,5.96484,4.6333,10.58203c0,4.73438-1.83008,8.66602-5.49023,11.79492s-8.83057,4.69336-15.51074,4.69336
		c-6.82227,0-12.18799-1.54102-16.09717-4.62305c-3.90869-3.08203-5.86279-7.31836-5.86279-12.70898H445.50391z"/>
	<path d="M486.42578,550.84766l1.26562,0.07031c0.98438,0.04688,1.92188,0.01172,2.8125-0.10547s1.64062-0.38672,2.25-0.80859
		c0.58594-0.39844,1.13086-1.23047,1.63477-2.49609s0.7207-2.03906,0.65039-2.32031l-14.08008-40.00781h11.14453l8.36719,28.26562
		l7.91016-28.26562h10.65234l-13.1377,37.6875c-2.53809,7.26562-4.54688,11.77148-6.02539,13.51758
		c-1.47754,1.74609-4.43457,2.61914-8.86914,2.61914c-0.8916,0-1.60742-0.00586-2.14648-0.01758
		c-0.54004-0.01172-1.34961-0.05273-2.42871-0.12305V550.84766z"/>
	<path d="M532.72656,531.26562c0.21191,1.78125,0.6709,3.04688,1.37793,3.79688c1.24805,1.33594,3.55566,2.00391,6.92285,2.00391
		c1.97852,0,3.55078-0.29297,4.7168-0.87891c1.16504-0.58594,1.74805-1.46484,1.74805-2.63672
		c0-1.125-0.46973-1.98047-1.4082-2.56641c-0.93945-0.58594-4.43359-1.59375-10.48242-3.02344
		c-4.35449-1.07812-7.42188-2.42578-9.20312-4.04297c-1.78125-1.59375-2.67188-3.89062-2.67188-6.89062
		c0-3.53906,1.3916-6.58008,4.1748-9.12305s6.7002-3.81445,11.75-3.81445c4.79102,0,8.69629,0.95508,11.71387,2.86523
		c3.01855,1.91016,4.75098,5.20898,5.19727,9.89648h-10.01953c-0.1416-1.28906-0.50586-2.30859-1.09277-3.05859
		c-1.10547-1.35938-2.98535-2.03906-5.64062-2.03906c-2.18555,0-3.74219,0.33984-4.6709,1.01953s-1.39258,1.47656-1.39258,2.39062
		c0,1.14844,0.49316,1.98047,1.48047,2.49609c0.9873,0.53906,4.47461,1.46484,10.46191,2.77734
		c3.99121,0.9375,6.9834,2.35547,8.97559,4.25391c1.96875,1.92188,2.95312,4.32422,2.95312,7.20703
		c0,3.79688-1.41504,6.89648-4.24512,9.29883s-7.2041,3.60352-13.12109,3.60352c-6.03613,0-10.49219-1.27148-13.36914-3.81445
		s-4.31543-5.7832-4.31543-9.7207H532.72656z"/>
	<path d="M561.0625,512.66797v-7.13672h5.34375v-10.6875h9.91406v10.6875h6.22266v7.13672h-6.22266v20.25
		c0,1.57031,0.19922,2.54883,0.59766,2.93555s1.61719,0.58008,3.65625,0.58008c0.30469,0,0.62695-0.00586,0.9668-0.01758
		s0.67383-0.0293,1.00195-0.05273v7.48828l-4.74609,0.17578c-4.73438,0.16406-7.96875-0.65625-9.70312-2.46094
		c-1.125-1.14844-1.6875-2.91797-1.6875-5.30859v-23.58984H561.0625z"/>
	<path d="M613.94727,505.95605c2.67285,1.19727,4.88086,3.08691,6.62207,5.66895c1.56934,2.27637,2.58691,4.91699,3.05273,7.92188
		c0.27051,1.76074,0.37988,4.2959,0.33105,7.60547h-27.91016c0.15527,3.84375,1.49121,6.53906,4.00684,8.08594
		c1.53125,0.96094,3.37207,1.44141,5.52441,1.44141c2.2832,0,4.1377-0.58594,5.56445-1.75781
		c0.77734-0.63281,1.46484-1.51172,2.06152-2.63672h10.22949c-0.26953,2.27344-1.50781,4.58203-3.71484,6.92578
		c-3.43262,3.72656-8.2373,5.58984-14.41602,5.58984c-5.10059,0-9.59961-1.57129-13.49805-4.71484s-5.84766-8.25684-5.84766-15.3418
		c0-6.6377,1.75977-11.72852,5.2793-15.27051c3.51855-3.54199,8.08691-5.31348,13.70312-5.31348
		C608.27051,504.16016,611.27441,504.75879,613.94727,505.95605z M598.95801,514.61133
		c-1.41602,1.45996-2.30566,3.43652-2.66895,5.93164h17.26172c-0.18262-2.66016-1.07129-4.67773-2.66895-6.05469
		c-1.59766-1.37793-3.57812-2.06641-5.94238-2.06641C602.36719,512.42188,600.37402,513.15234,598.95801,514.61133z"/>
	<path d="M676.83203,505.32031c1.64062,0.65625,3.12891,1.80469,4.46484,3.44531c1.07812,1.33594,1.80469,2.97656,2.17969,4.92188
		c0.23438,1.28906,0.35156,3.17578,0.35156,5.66016L683.75781,543.5h-10.26562v-24.39844c0-1.45312-0.23438-2.64844-0.70312-3.58594
		c-0.89062-1.78125-2.53125-2.67188-4.92188-2.67188c-2.76562,0-4.67578,1.14844-5.73047,3.44531
		c-0.53906,1.21875-0.80859,2.68359-0.80859,4.39453V543.5h-10.08984v-22.81641c0-2.27344-0.23438-3.92578-0.70312-4.95703
		c-0.84375-1.85156-2.49609-2.77734-4.95703-2.77734c-2.85938,0-4.78125,0.92578-5.76562,2.77734
		c-0.53906,1.05469-0.80859,2.625-0.80859,4.71094V543.5h-10.16016v-38.25h9.73828v5.58984
		c1.24219-1.99219,2.41406-3.41016,3.51562-4.25391c1.94531-1.5,4.46484-2.25,7.55859-2.25
		c2.92969,0,5.29688,0.64453,7.10156,1.93359c1.45312,1.19531,2.55469,2.73047,3.30469,4.60547
		c1.3125-2.25,2.94141-3.90234,4.88672-4.95703c2.0625-1.05469,4.35938-1.58203,6.89062-1.58203
		C673.52734,504.33594,675.19141,504.66406,676.83203,505.32031z"/>
</g>
</svg>
