<svg xmlns="http://www.w3.org/2000/svg" role="img" viewBox="3.78 20.28 141.57 74.94"><path fill="#0079C1" fill-rule="evenodd" d="M28.5 49.5c-.7.5-1.6.9-2.5 1.3h8.3v-8.2c-.3.7-.8 1.8-1.3 2.5l-1.6-1.6c-.5.9-1.2 1.7-1.9 2.5-.8.8-1.6 1.4-2.5 1.9l1.5 1.6zm.1-8.7c-.4.9-1 1.8-1.8 2.6s-1.7 1.4-2.6 1.8l2.2 2.2c.9-.5 1.8-1.2 2.5-1.9.8-.8 1.4-1.6 1.9-2.5l-2.2-2.2zm5.2-.7c.5-2 .5-4.2 0-6.3h-1.1c.5 2.1.5 4.3 0 6.3h1.1zm-1.7 0c.5-1.9.6-4.2 0-6.3h-3.2c.7 2 .7 4.3 0 6.3h3.2zm.8-11.3c.4.6.9 1.6 1.3 2.5v-8.2h-8.3c.8.3 1.6.7 2.5 1.3L26.8 26c.9.5 1.7 1.1 2.5 1.9.8.8 1.4 1.6 1.9 2.5l1.7-1.6zm-8.7-.1c.9.4 1.8 1 2.6 1.8s1.3 1.6 1.8 2.6l2.2-2.2c-.5-.9-1.2-1.8-1.9-2.5-.8-.8-1.6-1.4-2.5-1.9l-2.2 2.2zm-.7-5.2c-2.1-.5-4.2-.5-6.3 0v1.1c2.1-.5 4.2-.5 6.3 0v-1.1zm0 1.7c-2.1-.6-4.2-.5-6.3 0v3.2c2-.7 4.3-.8 6.3 0v-3.2zM9.4 30.5c.5-.9 1.2-1.7 1.9-2.5.8-.8 1.6-1.4 2.5-1.9l-1.6-1.6c.8-.5 1.6-.9 2.5-1.3H6.5v8.3c.4-.9.8-1.7 1.3-2.5l1.6 1.5zm4.9-4.1c-.9.5-1.8 1.2-2.5 1.9-.8.8-1.4 1.6-1.9 2.5l2.2 2.2c.4-1 1-1.8 1.8-2.6s1.7-1.4 2.6-1.8l-2.2-2.2zm-5.7 7.4c-.5 2.1-.6 4.2 0 6.3h3.2c-.7-2-.7-4.3 0-6.3H8.6zm-1.7 0c-.5 2.1-.5 4.2 0 6.3H8c-.5-2-.5-4.2 0-6.3H6.9zm.9 11.3c-.5-.8-.9-1.6-1.3-2.5v8.3h8.2c-.9-.4-1.7-.8-2.5-1.3l1.7-1.6c-.9-.5-1.7-1.2-2.5-1.9-.8-.8-1.4-1.6-1.9-2.5l-1.7 1.5zm2-2.1c.5.9 1.2 1.8 1.9 2.5.8.8 1.6 1.4 2.5 1.9l2.2-2.2c-1-.4-1.8-1-2.6-1.8s-1.4-1.7-1.8-2.6L9.8 43zm7.4 2.5c2 .7 4.3.7 6.3 0v3.2c-2.1.6-4.2.5-6.3 0v-3.2zm0 3.8c2.1.5 4.2.5 6.3 0v1.1c-2.1.5-4.2.5-6.3 0v-1.1z" clip-rule="evenodd"/><path fill="#0079C1" d="M40.7 23h4.2l13.9 19.3V23h4.5v28h-3.8L45.2 31v19.9h-4.5V23zm35.7 13.8h3.9c3.4 0 5.5-1.8 5.5-4.7V32c0-3-2.1-4.6-5.6-4.6h-6.9v23.5h-4.7V23h12c3.4 0 6 1 7.8 2.8 1.4 1.5 2.2 3.6 2.2 6v.1c0 4.6-2.7 7.4-6.4 8.5L91.5 51h-5.6l-9.5-14.2zM95.6 23h21.3v4.4h-16v7.3h13V39h-13v7.5h16.2v4.4H95.6V23zm27 0h5.3v23.5h14.8V51h-20.1V23z"/><path fill="#5C6670" d="M9.9 58.9h-.4l-2.4-3v3h-.6v-4H7l2.4 3v-3h.6v4h-.1zm4.8 0h-.6l-.5-1h-2l-.5 1h-.6l1.8-4h.5l1.9 4zm-2.9-1.5h1.6l-.8-1.7-.8 1.7zm4.6 1.5h-.6v-3.4h-1.3V55h3.2v.5h-1.3v3.4zm2.6 0h-.6v-4h.6v4zm2.9.1c-1.2 0-2-.9-2-2 0-1.2.9-2.1 2-2.1 1.2 0 2 .9 2 2 0 1.2-.9 2.1-2 2.1zm0-3.6c-.8 0-1.5.6-1.5 1.5s.6 1.5 1.5 1.5c.8 0 1.5-.7 1.5-1.5-.1-.8-.7-1.5-1.5-1.5zm6.2 3.5h-.4l-2.4-3v3h-.6v-4h.5l2.4 3v-3h.6v4h-.1zm4.8 0h-.6l-.5-1h-2l-.5 1h-.6l1.8-4h.5l1.9 4zM30 57.4h1.6l-.8-1.7-.8 1.7zm6.2 1.5h-2.8v-4h.6v3.4h2.2v.6zm2.9 0h-.6v-4h1.7c.5 0 .9.1 1.1.4.2.2.3.5.3.8 0 .6-.4 1-1 1.2l1.2 1.6h-.7l-1.5-2h.5c.6 0 .9-.3.9-.7 0-.5-.3-.7-.9-.7H39v3.4zm50.5 0H89v-4h1.7c.5 0 .9.1 1.1.4.2.2.3.5.3.8 0 .6-.4 1-1 1.2l1.2 1.6h-.7l-1.5-2h.5c.6 0 .9-.3.9-.7 0-.5-.3-.7-.9-.7h-1.1v3.4zm30.4 0h-.6v-4h1.7c.5 0 .9.1 1.1.4.2.2.3.5.3.8 0 .6-.4 1-1 1.2l1.2 1.6h-.7l-1.5-2h.5c.6 0 .9-.3.9-.7 0-.5-.3-.7-.9-.7h-1v3.4zm15.9 0h-.6v-4h1.7c.5 0 .9.1 1.1.4.2.2.3.5.3.8 0 .6-.4 1-1 1.2l1.2 1.6h-.6l-1.5-2h.5c.6 0 .9-.3.9-.7 0-.5-.3-.7-.9-.7h-1.1v3.4zm-90.4 0h-3v-4h2.9v.5H43v1.2h2.1v.5H43v1.2h2.4v.6h.1zm4.2 0h-.4l-2.4-3v3h-.6v-4h.5l2.4 3v-3h.6v4h-.1zm3.9 0h-3v-4h2.9v.5h-2.4v1.2h2v.5h-2v1.2h2.4v.6h.1zm4.9.1H58l-1-3-1 3h-.5l-1.4-4h.6l1.1 3.1 1-3.1h.5l1 3.1 1.1-3.1h.6l-1.5 4zm5.3-.1h-.6l-.5-1h-2l-.5 1h-.6l1.8-4h.6l1.8 4zm-2.9-1.5h1.6l-.8-1.7-.8 1.7zm5.3 1.5h-1.8v-4h1.7c.4 0 .8.1 1.1.4.2.2.3.4.3.7 0 .5-.3.7-.5.9.5.2.7.5.7.9 0 .7-.6 1.1-1.5 1.1zm-1.2-.5h1.2c.6 0 .9-.2.9-.6 0-.5-.6-.6-1-.6H65v1.2zm0-1.7h1.1c.5 0 .8-.2.8-.6 0-.4-.3-.6-.8-.6H65v1.2zm6.2 2.2h-2.8v-4h.6v3.4h2.2v.6zm3.6 0h-3v-4h2.9v.5h-2.4v1.2h2v.5h-2v1.2h2.4v.6h.1zm5.4 0h-3v-4h2.9v.5h-2.4v1.2h2v.5h-2v1.2h2.4v.6h.1zm4.2 0H84l-2.4-3v3H81v-4h.5l2.3 2.9v-3h.6v4.1zm3.9 0h-3v-4h2.9v.5h-2.4v1.2h2v.5h-2v1.2h2.4v.6h.1zm6.6.1c-1.2 0-2-.8-2-2s.9-2.1 2-2.1c.6 0 1 .2 1.5.5l-.4.4c-.3-.2-.6-.4-1.1-.4-.8 0-1.4.7-1.4 1.5 0 .9.6 1.5 1.5 1.5.4 0 .8-.1 1.1-.4v-.9h-1.2v-.5h1.7v1.6c-.3.4-.9.8-1.7.8zm4.1-.1h-.6v-1.6L96.8 55h.7l1.3 1.9L100 55h.7L99 57.4v1.5zm6.6 0h-2.8v-4h.6v3.4h2.2v.6zm4.5 0h-.6l-.5-1h-2l-.5 1h-.6l1.8-4h.5l1.9 4zm-2.9-1.5h1.6l-.8-1.7-.8 1.7zm5.3 1.5h-1.8v-4h1.7c.5 0 .8.1 1.1.4.2.2.3.4.3.7 0 .5-.3.7-.5.9.5.2.7.5.7.9-.1.7-.6 1.1-1.5 1.1zm-1.3-.5h1.2c.6 0 .9-.2.9-.6 0-.5-.6-.6-1-.6h-1.2v1.2h.1zm0-1.7h1.1c.5 0 .8-.2.8-.6 0-.4-.3-.6-.8-.6h-1.1v1.2zm5.3 2.3c-1.2 0-2-.9-2-2 0-1.2.9-2.1 2-2.1 1.2 0 2 .9 2 2 .1 1.2-.8 2.1-2 2.1zm0-3.6c-.8 0-1.5.6-1.5 1.5s.6 1.5 1.5 1.5c.8 0 1.5-.7 1.5-1.5s-.6-1.5-1.5-1.5zm10.7 3.5h-.6l-.5-1h-2l-.5 1h-.6l1.8-4h.5l1.9 4zm-2.9-1.5h1.6l-.8-1.7-.8 1.7zm4.6 1.5h-.6v-3.4H127V55h3.2v.5h-1.3v3.4zm3.6.1c-1.2 0-2-.9-2-2 0-1.2.9-2.1 2-2.1 1.2 0 2 .9 2 2 0 1.2-.9 2.1-2 2.1zm0-3.6c-.8 0-1.5.6-1.5 1.5s.6 1.5 1.5 1.5c.8 0 1.5-.7 1.5-1.5-.1-.8-.7-1.5-1.5-1.5zm8.5 3.5h-.6v-1.6l-1.7-2.4h.7l1.3 1.9L142 55h.7l-1.7 2.4v1.5z"/><path d="M38.96018 84.9857c-1.37178 1.72563-3.2226 2.58572-5.55791 2.58572-2.3353 0-4.19702-.8601-5.59058-2.58571-1.38812-1.72018-2.0849-4.1698-2.0849-7.34886 0-3.17362.69678-5.62324 2.0849-7.34886 1.39356-1.72018 3.25527-2.58571 5.59058-2.58571 2.3353 0 4.18613.86553 5.55791 2.5966 1.37179 1.72561 2.05768 4.17523 2.05768 7.33797 0 3.17906-.68589 5.62868-2.05768 7.34886zm3.68532 4.28956c2.84156-2.69458 4.26778-6.57042 4.26778-11.63841 0-5.16598-1.42622-9.04727-4.26778-11.63298-2.1339-2.19921-5.21497-3.29338-9.24323-3.29338-4.03371 0-7.11479 1.09417-9.24324 3.29338-2.85789 2.58571-4.28955 6.467-4.28955 11.63298 0 5.06799 1.43166 8.94383 4.28955 11.63841 2.12845 2.19377 5.20953 3.28794 9.24324 3.28794 4.02826 0 7.10934-1.09417 9.24323-3.28794zM33.40227 62.7105zM55.67747 83.075H50.0488c0 2.9341 1.05605 5.23675 3.15728 6.91337 2.10668 1.68208 4.99723 2.5204 8.67166 2.5204 3.59822 0 6.3799-.85465 8.35048-2.5585 1.97603-1.6984 2.96132-3.84318 2.96132-6.418 0-2.51495-.84376-4.43654-2.52583-5.75933-1.08872-.85465-2.69458-1.54054-4.82303-2.0468l-4.86113-1.17037c-1.87805-.44638-3.10286-.83287-3.67443-1.16493-.89276-.50081-1.33913-1.25203-1.33913-2.2591 0-1.0996.45182-1.95425 1.35546-2.56393.90908-.61513 2.11756-.91997 3.63632-.91997 1.36634 0 2.5095.23407 3.42403.70767 1.38267.7131 2.11756 1.92159 2.22098 3.61455h5.6668c-.10344-2.99398-1.20304-5.2803-3.30427-6.85894-2.09579-1.5732-4.6325-2.36252-7.60471-2.36252-3.56012 0-6.26014.83287-8.09464 2.50406-1.83993 1.67662-2.75446 3.77241-2.75446 6.29824 0 2.7708.94719 4.8067 2.847 6.10772 1.12683.77843 3.15185 1.49699 6.08595 2.1611l2.98854.66957c1.7474.38105 3.02664.82199 3.84318 1.3228.81654.50625 1.2248 1.23025 1.2248 2.1611 0 1.59498-.82198 2.6837-2.46594 3.27161-.86554.30484-1.9978.45726-3.38592.45726-2.32442 0-3.96294-.57702-4.92102-1.74195-.52258-.6369-.87097-1.60042-1.05061-2.8851zm5.72123-20.3645zm34.19125 22.2752c-1.37178 1.72563-3.22805 2.58572-5.56336 2.58572-2.3353 0-4.19701-.8601-5.58513-2.58571-1.39356-1.72018-2.0849-4.1698-2.0849-7.34886 0-3.17362.69134-5.62324 2.0849-7.34886 1.38812-1.72018 3.24983-2.58571 5.58513-2.58571s4.19158.86553 5.56336 2.5966c1.3718 1.72561 2.05768 4.17523 2.05768 7.33797 0 3.17906-.68589 5.62868-2.05768 7.34886zm3.67988 4.28956c2.847-2.69458 4.26778-6.57042 4.26778-11.63841 0-5.16598-1.42078-9.04727-4.26778-11.63298-2.12845-2.19921-5.20953-3.29338-9.24324-3.29338-4.02826 0-7.10934 1.09417-9.24323 3.29338-2.85789 2.58571-4.28411 6.467-4.28411 11.63298 0 5.06799 1.42622 8.94383 4.28411 11.63841 2.1339 2.19377 5.21497 3.28794 9.24323 3.28794 4.03371 0 7.11479-1.09417 9.24324-3.28794zM90.02659 62.7105zM112.30725 83.075h-5.62868c0 2.9341 1.05061 5.23675 3.15729 6.91337 2.10667 1.68208 4.99722 2.5204 8.67165 2.5204 3.59822 0 6.3799-.85465 8.35048-2.5585 1.97059-1.6984 2.95588-3.84318 2.95588-6.418 0-2.51495-.83832-4.43654-2.52583-5.75933-1.08328-.85465-2.68914-1.54054-4.82303-2.0468l-4.86114-1.17037c-1.8726-.44638-3.0974-.83287-3.67443-1.16493-.89275-.50081-1.33912-1.25203-1.33912-2.2591 0-1.0996.45182-1.95425 1.3609-2.56393.90363-.61513 2.11756-.91997 3.63632-.91997 1.36635 0 2.50406.23407 3.42403.70767 1.37723.7131 2.11756 1.92159 2.22098 3.61455h5.6668c-.10344-2.99398-1.20304-5.2803-3.30427-6.85894-2.09579-1.5732-4.6325-2.36252-7.60471-2.36252-3.56012 0-6.26014.83287-8.09464 2.50406-1.83993 1.67662-2.7599 3.77241-2.7599 6.29824 0 2.7708.95263 4.8067 2.85245 6.10772 1.12138.77843 3.15184 1.49699 6.08594 2.1611l2.98854.66957c1.7474.38105 3.02664.82199 3.84318 1.3228.81654.50625 1.2248 1.23025 1.2248 2.1611 0 1.59498-.82197 2.6837-2.46594 3.27161-.87098.30484-1.9978.45726-3.39136.45726-2.31898 0-3.9575-.57702-4.91558-1.74195-.52258-.6369-.87642-1.60042-1.05061-2.8851zm5.72122-20.3645z"/></svg>
