<?xml version="1.0" encoding="UTF-8" standalone="no"?>
<svg
   version="1.1"
   id="svg4"
   width="66.539062"
   height="11.53125"
   xmlns="http://www.w3.org/2000/svg"
   xmlns:svg="http://www.w3.org/2000/svg">
  <defs
     id="defs8" />
  <g
     aria-label="patch-node"
     id="text2"
     transform="translate(-1.0839844,9.1171875)">
    <path
       d="m 6.84375,-3.3515625 q 0,0.796875 -0.2285156,1.4589844 -0.2285157,0.65625 -0.6445313,1.11328123 -0.3867187,0.43359374 -0.9140625,0.67382812 -0.5214844,0.234375 -1.1074218,0.234375 -0.5097657,0 -0.9257813,-0.11132812 Q 2.6132813,-0.09375 2.1855469,-0.328125 V 2.4140625 H 1.0839844 V -6.5449219 H 2.1855469 V -5.859375 Q 2.625,-6.2285156 3.1699219,-6.4746094 q 0.5507812,-0.2519531 1.171875,-0.2519531 1.1835937,0 1.8398437,0.8964844 0.6621094,0.890625 0.6621094,2.4785156 z m -1.1367188,0.029297 q 0,-1.1835938 -0.4042968,-1.7695313 -0.4042969,-0.5859375 -1.2421875,-0.5859375 -0.4746094,0 -0.9550781,0.2050782 Q 2.625,-5.2675781 2.1855469,-4.9335937 v 3.7089843 q 0.46875,0.2109375 0.8027344,0.2871094 0.3398437,0.0761719 0.7675781,0.0761719 0.9199218,0 1.4355468,-0.6210938 0.515625,-0.6210937 0.515625,-1.8398436 z"
       id="path10" />
    <path
       d="m 13.646484,0 h -1.095703 v -0.69726562 q -0.146484,0.0996094 -0.398437,0.28124999 -0.246094,0.17578125 -0.480469,0.28125001 Q 11.396484,0 11.039063,0.08789062 q -0.357422,0.09375 -0.837891,0.09375 -0.8847657,0 -1.5000001,-0.5859375 -0.6152344,-0.5859375 -0.6152344,-1.49414062 0,-0.7441406 0.3164063,-1.2011719 0.3222656,-0.4628906 0.9140625,-0.7265625 0.5976562,-0.2636718 1.4355467,-0.3574218 0.837891,-0.09375 1.798828,-0.140625 v -0.1699219 q 0,-0.375 -0.134765,-0.6210938 -0.128907,-0.2460937 -0.375,-0.3867187 -0.234375,-0.1347656 -0.5625,-0.1816406 -0.328125,-0.046875 -0.685547,-0.046875 -0.433594,0 -0.9667971,0.1171875 -0.5332031,0.1113281 -1.1015625,0.328125 h -0.058594 v -1.1191407 q 0.3222657,-0.087891 0.9316407,-0.1933593 0.6093749,-0.1054688 1.2011719,-0.1054688 0.691406,0 1.201172,0.1171875 0.515625,0.1113281 0.890625,0.3867188 0.369141,0.2695312 0.5625,0.6972656 0.193359,0.4277344 0.193359,1.0605469 z m -1.095703,-1.6113281 v -1.8222657 q -0.503906,0.029297 -1.189453,0.087891 -0.679687,0.058594 -1.078125,0.1699218 -0.4746092,0.1347657 -0.767578,0.421875 -0.2929687,0.28125 -0.2929687,0.7792969 0,0.5625 0.3398437,0.8496094 0.3398438,0.28125 1.037109,0.28125 0.580079,0 1.060547,-0.2226562 0.480469,-0.2285157 0.890625,-0.5449222 z"
       id="path12" />
    <path
       d="m 19.166016,-0.05859375 q -0.310547,0.08203125 -0.679688,0.13476562 -0.363281,0.05273438 -0.650391,0.05273438 -1.001953,0 -1.523437,-0.5390625 -0.521484,-0.5390625 -0.521484,-1.72851565 v -3.4804687 h -0.744141 v -0.9257813 h 0.744141 v -1.8808594 h 1.101562 v 1.8808594 h 2.273438 v 0.9257813 h -2.273438 v 2.9824218 q 0,0.515625 0.02344,0.8085938 0.02344,0.2871094 0.164062,0.5390625 0.128906,0.234375 0.351563,0.34570312 0.228515,0.10546875 0.691406,0.10546875 0.269531,0 0.5625,-0.0761719 0.292969,-0.0820313 0.421875,-0.13476557 h 0.05859 z"
       id="path14" />
    <path
       d="M 25.335937,-0.41015625 Q 24.785156,-0.14648437 24.287109,0 q -0.492187,0.14648437 -1.048828,0.14648437 -0.708984,0 -1.300781,-0.20507812 -0.591797,-0.2109375 -1.013672,-0.6328125 -0.427734,-0.42187495 -0.662109,-1.06640625 -0.234375,-0.6445313 -0.234375,-1.5058594 0,-1.6054687 0.878906,-2.5195312 0.884766,-0.9140625 2.332031,-0.9140625 0.5625,0 1.101563,0.1582031 0.544922,0.1582031 0.996093,0.3867188 v 1.2246093 h -0.05859 Q 24.77344,-5.3203125 24.234378,-5.53125 q -0.533203,-0.2109375 -1.042969,-0.2109375 -0.9375,0 -1.482422,0.6328125 -0.539062,0.6269531 -0.539062,1.8457031 0,1.1835938 0.527344,1.8222657 0.533203,0.63281245 1.49414,0.63281245 0.333985,0 0.679688,-0.0878906 Q 24.2168,-0.98437495 24.49219,-1.125 q 0.240235,-0.1230469 0.451172,-0.2578125 0.210938,-0.140625 0.333985,-0.2402344 h 0.05859 z"
       id="path16" />
    <path
       d="m 32.220703,0 h -1.101562 v -3.7265625 q 0,-0.4511719 -0.05273,-0.84375 -0.05273,-0.3984375 -0.193359,-0.6210937 -0.146485,-0.2460938 -0.421875,-0.3632813 -0.275391,-0.1230469 -0.714844,-0.1230469 -0.451172,0 -0.943359,0.2226563 -0.492188,0.2226562 -0.94336,0.5683594 V 0 h -1.101562 v -9.1171875 h 1.101562 v 3.2988281 q 0.515625,-0.4277343 1.066407,-0.6679687 0.550781,-0.2402344 1.130859,-0.2402344 1.060547,0 1.617187,0.6386719 0.556641,0.6386719 0.556641,1.8398437 z"
       id="path18" />
    <path
       d="m 37.810547,-3.2871094 h -3.65625 v -1.0605468 h 3.65625 z"
       id="path20" />
    <path
       d="m 45.263672,0 h -1.101563 v -3.7265625 q 0,-0.4511719 -0.05273,-0.84375 Q 44.056641,-4.96875 43.916016,-5.1914062 43.769531,-5.4375 43.494141,-5.5546875 43.21875,-5.6777344 42.779297,-5.6777344 q -0.451172,0 -0.94336,0.2226563 -0.492187,0.2226562 -0.943359,0.5683594 V 0 h -1.101562 v -6.5449219 h 1.101562 v 0.7265625 q 0.515625,-0.4277343 1.066406,-0.6679687 0.550782,-0.2402344 1.13086,-0.2402344 1.060547,0 1.617187,0.6386719 0.556641,0.6386719 0.556641,1.8398437 z"
       id="path22" />
    <path
       d="m 52.962891,-3.2695313 q 0,1.5996094 -0.820313,2.52539068 -0.820312,0.92578124 -2.197266,0.92578124 -1.388671,0 -2.208984,-0.92578124 -0.814453,-0.92578128 -0.814453,-2.52539068 0,-1.5996093 0.814453,-2.5253906 0.820313,-0.9316406 2.208984,-0.9316406 1.376954,0 2.197266,0.9316406 0.820313,0.9257813 0.820313,2.5253906 z m -1.136719,0 q 0,-1.2714843 -0.498047,-1.8867187 -0.498047,-0.6210937 -1.382813,-0.6210937 -0.896484,0 -1.394531,0.6210937 -0.492187,0.6152344 -0.492187,1.8867187 0,1.2304688 0.498047,1.8691407 0.498046,0.63281248 1.388671,0.63281248 0.878907,0 1.376954,-0.62695308 0.503906,-0.6328126 0.503906,-1.8750001 z"
       id="path24" />
    <path
       d="M 59.976562,0 H 58.875 v -0.68554687 q -0.474609,0.41015624 -0.990234,0.63867187 -0.515625,0.22851562 -1.119141,0.22851562 -1.171875,0 -1.863281,-0.90234374 -0.685547,-0.90234378 -0.685547,-2.50195318 0,-0.8320312 0.234375,-1.4824218 0.240234,-0.6503906 0.644531,-1.1074219 0.398438,-0.4453125 0.925781,-0.6796875 0.533203,-0.234375 1.101563,-0.234375 0.515625,0 0.914062,0.1113281 0.398438,0.1054688 0.837891,0.3339844 v -2.8359375 h 1.101562 z M 58.875,-1.6113281 v -3.7558594 q -0.445313,-0.1992187 -0.796875,-0.2753906 -0.351563,-0.076172 -0.767578,-0.076172 -0.925781,0 -1.441406,0.6445313 -0.515625,0.6445312 -0.515625,1.8281249 0,1.1660157 0.398437,1.7753907 0.398438,0.6035156 1.277344,0.6035156 0.46875,0 0.949219,-0.2050781 0.480468,-0.2109375 0.896484,-0.5390624 z"
       id="path26" />
    <path
       d="m 67.623047,-3.1582031 h -4.822266 q 0,0.6035156 0.181641,1.0546875 0.18164,0.4453125 0.498047,0.7324219 0.304687,0.28125 0.720703,0.42187495 0.421875,0.140625 0.925781,0.140625 0.667969,0 1.341797,-0.26367185 0.679687,-0.2695313 0.966797,-0.5273438 h 0.05859 v 1.2011719 q -0.556641,0.234375 -1.136719,0.39257812 -0.580078,0.15820313 -1.21875,0.15820313 -1.628906,0 -2.542969,-0.87890625 -0.914062,-0.8847656 -0.914062,-2.5078125 0,-1.6054687 0.873046,-2.5488281 0.878907,-0.9433594 2.308594,-0.9433594 1.324219,0 2.039063,0.7734375 0.720703,0.7734375 0.720703,2.1972656 z m -1.072266,-0.84375 q -0.0059,-0.8671875 -0.439453,-1.3417969 -0.427734,-0.4746094 -1.306641,-0.4746094 -0.884765,0 -1.412109,0.5214844 -0.521484,0.5214844 -0.591797,1.2949219 z"
       id="path28" />
  </g>
</svg>
