<?xml version="1.0" encoding="UTF-8" standalone="no"?>
<!-- Created with Inkscape (http://www.inkscape.org/) -->

<svg
   version="1.1"
   id="svg182"
   width="64"
   height="73.919998"
   viewBox="0 0 64 73.919998"
   sodipodi:docname="phenocamr.svg"
   inkscape:version="1.2.2 (b0a84865, 2022-12-01)"
   xmlns:inkscape="http://www.inkscape.org/namespaces/inkscape"
   xmlns:sodipodi="http://sodipodi.sourceforge.net/DTD/sodipodi-0.dtd"
   xmlns="http://www.w3.org/2000/svg"
   xmlns:svg="http://www.w3.org/2000/svg">
  <defs
     id="defs186" />
  <sodipodi:namedview
     id="namedview184"
     pagecolor="#ffffff"
     bordercolor="#666666"
     borderopacity="1.0"
     inkscape:showpageshadow="2"
     inkscape:pageopacity="0.0"
     inkscape:pagecheckerboard="0"
     inkscape:deskcolor="#d1d1d1"
     showgrid="false"
     inkscape:zoom="3.1926408"
     inkscape:cx="32.574914"
     inkscape:cy="39.309152"
     inkscape:window-width="1217"
     inkscape:window-height="773"
     inkscape:window-x="0"
     inkscape:window-y="25"
     inkscape:window-maximized="0"
     inkscape:current-layer="g188" />
  <g
     inkscape:groupmode="layer"
     inkscape:label="Image"
     id="g188">
    <g
       id="g309">
      <path
         style="fill:#efd2cd;stroke-width:0.32"
         d="M 15.76,64.719176 0,55.572542 V 36.954649 18.336755 L 15.74607,9.2483777 C 24.406408,4.2497698 31.720677,0.16 32,0.16 c 0.279322,0 7.59359,4.0897698 16.25393,9.0883777 L 64,18.336755 v 18.613852 18.613855 l -15.749478,9.097767 c -8.662215,5.003772 -15.970215,9.121577 -16.24,9.150675 C 31.740735,73.842001 24.428,69.749822 15.76,64.719176 Z M 7.36,53.606859 c 0,-1.062195 0.035533,-1.09695 0.7764026,-0.759388 C 10.484564,53.917365 12.216451,50.978517 10.513566,48.81365 9.9414941,48.086376 9.6616006,47.974248 8.8335661,48.140629 8.2871046,48.250427 7.516,48.33732 7.12,48.333717 c -0.6990499,-0.0064 -0.72,0.08646 -0.72,3.189866 0,2.627926 0.085369,3.196416 0.48,3.196416 0.3346746,0 0.48,-0.337015 0.48,-1.11314 z m 0.384,-1.83086 c -0.7925184,-0.792519 -0.1865811,-2.816 0.8432589,-2.816 1.1205165,0 1.6717371,1.304246 1.1385046,2.693827 C 9.4968445,52.250379 8.2926198,52.324619 7.744,51.775999 Z m 5.696,-0.229828 c 0,-1.978707 0.230892,-2.586172 0.982978,-2.586172 0.812166,0 1.257022,0.955155 1.257022,2.698963 0,1.103792 0.120795,1.461037 0.494019,1.461037 0.408038,0 0.477656,-0.397949 0.4,-2.286474 -0.110224,-2.68057 -0.558223,-3.221373 -2.165879,-2.61455 -0.959797,0.362281 -0.96814,0.356019 -0.96814,-0.726771 0,-0.878871 -0.125007,-1.092205 -0.64,-1.092205 -0.599365,0 -0.64,0.213334 -0.64,3.36 0,3.146665 0.04063,3.36 0.64,3.36 0.553248,0 0.64,-0.213335 0.64,-1.573828 z m 8.364549,0.961373 c 0.869194,-0.704669 0.556998,-1.317325 -0.37476,-0.735433 -0.79082,0.493878 -1.674215,0.495462 -2.165789,0.0039 -0.709421,-0.709421 -0.394223,-0.896 1.513662,-0.896 h 1.897662 l -0.296494,-1.04 c -0.921787,-3.233309 -5.183293,-1.86008 -4.547585,1.465414 0.327639,1.71393 2.522796,2.37808 3.973304,1.202131 z m -2.85928,-2.623353 c 0.232411,-0.697232 1.166361,-1.111431 1.719442,-0.762557 0.884253,0.557773 0.652219,0.955331 -0.618488,1.059696 -0.875452,0.0719 -1.195201,-0.0144 -1.100954,-0.297139 z M 24.64,51.58116 c 0,-1.75743 0.56058,-2.744477 1.461151,-2.572745 0.52012,0.09918 0.634048,0.436572 0.714118,2.114796 0.08276,1.734653 0.177284,1.996788 0.72,1.996788 0.554854,0 0.624731,-0.230093 0.624731,-2.057143 0,-1.443462 -0.150011,-2.207155 -0.502857,-2.56 -0.563323,-0.563321 -1.913639,-0.673939 -2.217869,-0.181683 -0.109173,0.176646 -0.549671,0.233037 -0.978885,0.125309 C 23.684421,48.251727 23.68,48.264411 23.68,50.685307 c 0,1.950836 0.09539,2.434692 0.48,2.434692 0.360123,0 0.48,-0.384317 0.48,-1.538839 z m 8.814544,0.753383 C 33.949661,51.839429 34.24,51.183477 34.24,50.559999 34.24,49.93652 33.949661,49.280568 33.454544,48.785455 32.95943,48.290338 32.303478,47.999999 31.68,47.999999 c -0.623479,0 -1.279429,0.290339 -1.774546,0.785456 C 29.410339,49.280568 29.12,49.93652 29.12,50.559999 c 0,0.623478 0.290339,1.27943 0.785454,1.774544 0.495117,0.495116 1.151067,0.785456 1.774546,0.785456 0.623478,0 1.27943,-0.29034 1.774544,-0.785456 z M 30.73606,51.699349 c -0.961079,-1.158029 0.304686,-3.29865 1.50394,-2.543414 0.65873,0.414838 0.851965,1.154716 0.58224,2.229372 -0.223242,0.889466 -1.454764,1.074852 -2.08618,0.314042 z m 8.631242,0.54065 c 0.632624,-0.802458 0.644464,-0.889946 0.134346,-0.992877 -0.307674,-0.06208 -0.688566,0.117917 -0.846429,0.4 -0.157862,0.282083 -0.644505,0.512877 -1.08143,0.512877 -0.934813,0 -1.432048,-1.004743 -1.104109,-2.231015 0.254598,-0.952019 1.073997,-1.192905 2.131898,-0.626733 1.049881,0.561879 1.403651,0.05661 0.482972,-0.689798 -0.9784,-0.7932 -1.989926,-0.776313 -3.041395,0.05077 -1.075728,0.84617 -1.181757,2.838173 -0.203155,3.816775 0.968694,0.968694 2.665434,0.853248 3.527302,-0.24 z m 5.811354,-1.333479 c -0.071,-1.475741 -0.257002,-2.226297 -0.621162,-2.506521 C 43.513565,47.596693 40.96,48.115752 40.96,49.131256 c 0,0.618551 0.609562,0.595482 1.322883,-0.05007 0.688323,-0.622922 1.647267,-0.345629 1.497322,0.432973 -0.06854,0.355897 -0.512983,0.622077 -1.234519,0.739357 C 41.031981,50.499567 40.64,50.783698 40.64,51.634885 c 0,1.134528 0.578157,1.438144 2.679475,1.407114 L 45.28,53.013039 45.178656,50.906514 Z m -3.15119,1.071968 C 41.785254,51.347291 42.17399,50.965749 43.2,50.827666 c 0.650074,-0.08749 0.779014,0.01229 0.688016,0.532333 -0.193363,1.105097 -1.506333,1.541561 -1.86055,0.618489 z M 47.68,51.399179 c 0,-1.812595 0.530947,-2.672297 1.435926,-2.325024 0.358061,0.137402 0.484074,0.688183 0.484074,2.115802 0,1.700982 0.07414,1.930042 0.62473,1.930042 0.542841,0 0.637219,-0.26216 0.72,-2 0.09025,-1.894596 0.137433,-2 0.89527,-2 0.757837,0 0.805021,0.105404 0.89527,2 0.08278,1.73784 0.177159,2 0.72,2 0.552151,0 0.62473,-0.229424 0.62473,-1.974804 0,-1.388512 -0.157229,-2.14854 -0.529597,-2.56 -0.590368,-0.652348 -1.717373,-0.770227 -2.252048,-0.235552 -0.252861,0.252861 -0.544563,0.245328 -1.053805,-0.0272 -0.41608,-0.222678 -1.051987,-0.280089 -1.554355,-0.140332 -0.467606,0.130086 -1.174195,0.204025 -1.570195,0.164307 -0.689629,-0.06916 -0.72,0.02998 -0.72,2.350688 0,2.209568 0.05635,2.422902 0.64,2.422902 0.560659,0 0.64,-0.213334 0.64,-1.720819 z m 8.64,0.621652 c 0,-1.628103 0.516442,-2.740832 1.27208,-2.740832 0.434586,0 0.64792,-0.210727 0.64792,-0.64 0,-0.770119 -0.267078,-0.801463 -1.208797,-0.141856 -0.398637,0.279216 -0.711203,0.349536 -0.711203,0.16 0,-0.185978 -0.216,-0.338144 -0.48,-0.338144 -0.384,0 -0.48,0.48 -0.48,2.4 0,1.92 0.096,2.4 0.48,2.4 0.333504,0 0.48,-0.335463 0.48,-1.099168 z M 38.121101,43.018744 C 39.907235,42.0951 40,41.432594 40,29.599999 40,18.07879 39.902422,17.280354 38.362602,16.201821 37.706742,15.742441 36.214506,15.68 25.891953,15.68 c -11.328016,0 -11.753862,0.02219 -12.557776,0.654555 -0.457673,0.360006 -0.980289,1.188005 -1.16137,1.84 -0.444757,1.60138 -0.437349,21.276122 0.0086,22.88209 0.227021,0.817527 0.672581,1.420743 1.358216,1.838803 0.959627,0.585127 1.69273,0.622231 12.316254,0.623354 9.629408,9.6e-4 11.438896,-0.07275 12.265209,-0.500058 z M 22.890389,37.919999 c -0.82272,-1.32 -1.656472,-2.4 -1.852783,-2.4 -0.196311,0 -1.253491,0.972 -2.34929,2.16 -1.910348,2.071085 -2.016231,2.136813 -2.572224,1.596685 -0.557444,-0.541533 -0.496665,-0.638403 1.572022,-2.505469 C 18.871652,35.703029 19.84,34.639426 19.84,34.40765 c 0,-0.231773 -1.08,-1.094541 -2.4,-1.91726 -1.32,-0.822722 -2.4,-1.543403 -2.4,-1.601515 0,-0.05811 0.520268,-0.412625 1.156151,-0.787805 l 1.15615,-0.682145 -0.19052,-1.989463 c -0.104786,-1.094204 -0.221903,-2.781463 -0.260258,-3.749463 -0.06734,-1.699564 -0.04258,-1.756795 0.72118,-1.66669 0.677109,0.07988 0.920063,-0.170011 1.688416,-1.736653 l 0.897498,-1.829963 0.961921,1.478761 c 0.871874,1.34033 1.036306,1.450479 1.756523,1.176653 1.375142,-0.522828 1.45681,-0.411396 1.342079,1.831193 -0.0696,1.360353 0.01859,2.175891 0.243396,2.250846 0.193894,0.06465 1.121257,-1.075336 2.060806,-2.533301 0.939549,-1.457965 1.814425,-2.777163 1.944169,-2.931551 0.129745,-0.154388 0.395932,0.313612 0.591528,1.04 0.41227,1.531054 0.614906,1.573657 3.370961,0.708731 1.056,-0.331402 1.958083,-0.567197 2.00463,-0.523989 0.04655,0.04321 -0.214227,1.046152 -0.579497,2.228764 -0.365274,1.182612 -0.610896,2.309906 -0.545834,2.505097 0.06506,0.195191 0.685837,0.514904 1.379501,0.710472 L 36,26.743948 33.041526,28.651974 c -3.683871,2.375863 -3.817998,2.875114 -0.689593,2.566849 l 2.271933,-0.22387 -0.214461,1.269385 c -0.207872,1.230384 -0.174442,1.291879 1.088067,2.00145 0.71639,0.402633 1.302528,0.819549 1.302528,0.926473 0,0.106928 -0.80625,0.589837 -1.791664,1.07313 -1.6048,0.787066 -1.770979,0.961146 -1.593306,1.669043 l 0.198359,0.790327 -2.806695,-0.177703 c -1.543682,-0.09774 -3.197122,-0.238096 -3.674313,-0.311907 -0.930527,-0.14393 -1.678813,0.393869 -2.012982,1.446742 -0.11139,0.350957 -0.321919,0.638106 -0.467842,0.638106 -0.145922,0 -0.938448,-1.08 -1.761168,-2.4 z M 53.2,40.381762 c 0.51217,-0.439875 0.56,-1.377142 0.56,-10.973214 0,-10.479645 -9.6e-4,-10.492857 -0.711203,-10.990403 C 52.657638,18.144165 52.033731,17.92 51.662342,17.92 c -0.371388,0 -2.571347,1.301049 -4.888796,2.891221 L 42.56,23.702442 v 5.846277 5.846275 l 4.08,2.750371 c 2.244,1.512704 4.296,2.815619 4.56,2.895363 0.603363,0.18226 1.28017,-0.04074 2,-0.658966 z"
         id="path323" />
      <path
         style="fill:#ecc4ba;stroke-width:0.32"
         d="M 15.922834,64.713515 0.00566848,55.519998 0.00283424,36.956073 0,18.392148 15.998747,9.1622414 31.997494,-0.0676656 47.998746,9.1639898 64,18.395645 l -0.0022,18.562178 -0.0022,18.562175 -15.953251,9.2 c -8.774288,5.06 -16.009293,9.197082 -16.077788,9.193517 -0.0685,-0.0036 -7.287263,-4.143565 -16.041704,-9.2 z M 7.68,53.831541 c 0,-0.83888 0.069243,-0.881853 1.2409226,-0.770115 1.0116009,0.09647 1.3368484,-0.01862 1.7600004,-0.622746 0.732352,-1.045577 0.669887,-3.007872 -0.120923,-3.798681 -0.7109498,-0.710951 -2.2235418,-0.848458 -2.816,-0.256 -0.2986666,0.298665 -0.384,0.298665 -0.384,0 0,-0.2112 -0.288,-0.384 -0.64,-0.384 -0.5993651,0 -0.64,0.213334 -0.64,3.36 v 3.36 h 0.8 c 0.66124,0 0.8,-0.154103 0.8,-0.888458 z M 7.6540928,51.43093 c -0.2291302,-0.502887 -0.2294589,-0.999267 -0.00106,-1.6 C 8.2224048,48.333365 9.92,48.879323 9.92,50.559999 c 0,1.589609 -1.6495699,2.223644 -2.2659072,0.870931 z M 13.44,51.399179 c 0,-1.812595 0.530947,-2.672297 1.435925,-2.325024 0.358906,0.137725 0.484075,0.690573 0.484075,2.138058 0,1.841571 0.04084,1.946499 0.72,1.850042 0.623483,-0.08855 0.731129,-0.31674 0.80302,-1.702256 0.105404,-2.03137 -0.455076,-3.167306 -1.629786,-3.303124 -0.490565,-0.05672 -1.099228,0.06892 -1.352585,0.279184 C 13.512453,48.658232 13.44,48.510875 13.44,47.39918 c 0,-1.105847 -0.103499,-1.319181 -0.64,-1.319181 -0.601212,0 -0.64,0.213334 -0.64,3.52 0,3.306665 0.03879,3.52 0.64,3.52 0.560658,0 0.64,-0.213335 0.64,-1.72082 z m 8.481775,1.078858 C 22.623487,51.702655 22.29522,51.231643 21.429789,51.772111 20.508478,52.34748 19.587101,52.243304 19.2,51.519999 c -0.325241,-0.607719 -0.243357,-0.64 1.623432,-0.64 h 1.965949 l -0.208336,-0.88 c -0.656146,-2.77153 -4.407589,-2.586186 -4.859681,0.240099 -0.261237,1.633139 0.783078,2.879901 2.412266,2.879901 0.80201,0 1.402169,-0.215463 1.788145,-0.641962 z M 19.28,49.519999 c 0.07333,-0.22 0.469333,-0.4 0.88,-0.4 0.410667,0 0.806667,0.18 0.88,0.4 0.08795,0.263859 -0.211556,0.4 -0.88,0.4 -0.668444,0 -0.967953,-0.136141 -0.88,-0.4 z m 5.68,1.669958 c 0,-1.427619 0.126013,-1.9784 0.484075,-2.115802 0.904978,-0.347273 1.435925,0.512429 1.435925,2.325024 0,1.507485 0.07934,1.72082 0.64,1.72082 0.56966,0 0.64,-0.213335 0.64,-1.941037 0,-1.067571 -0.149067,-2.219571 -0.331259,-2.56 -0.354818,-0.662986 -1.719483,-0.830032 -2.540295,-0.310954 -0.304534,0.192586 -0.548113,0.174333 -0.687704,-0.05153 C 24.481859,48.06412 24.154059,47.995205 23.872296,48.103327 23.465317,48.259499 23.36,48.795365 23.36,50.709957 c 0,2.357379 0.01748,2.410042 0.8,2.410042 0.764907,0 0.8,-0.08466 0.8,-1.930042 z m 8.539376,1.234262 c 1.585802,-1.489785 0.460144,-4.42422 -1.697147,-4.42422 -2.276954,0 -3.441967,2.46784 -2.019003,4.276844 0.858728,1.091696 2.635942,1.162176 3.71615,0.147376 z m -2.703113,-0.635958 c -0.896262,-0.896262 -0.09465,-3.001984 1.058275,-2.779952 0.793398,0.152797 1.365084,1.707296 0.900492,2.448576 -0.427216,0.681645 -1.437571,0.852573 -1.958767,0.331376 z M 39.36,52.479999 c 0.352,-0.352 0.64,-0.784 0.64,-0.96 0,-0.493712 -1.153174,-0.378394 -1.6,0.16 -0.617277,0.743772 -1.560758,0.587769 -1.78224,-0.294692 -0.44088,-1.756604 0.615878,-3.000851 1.708704,-2.011856 C 38.987264,49.971467 40,50.108562 40,49.599999 c 0,-0.722839 -1.315741,-1.6 -2.4,-1.6 -1.537046,0 -2.4,0.920483 -2.4,2.56 0,1.639516 0.862954,2.56 2.4,2.56 0.693334,0 1.363808,-0.243808 1.76,-0.64 z m 5.815514,-1.566058 c -0.07093,-1.162669 -0.274061,-2.293942 -0.451415,-2.513942 -0.551782,-0.684461 -2.716173,-0.487927 -3.524099,0.32 l -0.72,0.72 0.789542,0.111369 c 0.43425,0.06126 0.84225,-0.04674 0.906669,-0.24 0.06442,-0.193254 0.465123,-0.351369 0.890455,-0.351369 1.077619,0 0.99304,0.900809 -0.106666,1.136051 -1.733507,0.370819 -2.32,0.753325 -2.32,1.513088 0,1.173062 0.586781,1.488233 2.70359,1.452163 l 1.960877,-0.03341 z m -2.919386,1.256026 C 42.019965,52.024008 41.915206,51.674056 42.023328,51.392293 42.27376,50.739675 43.84,50.702127 43.84,51.348741 c 0,0.618403 -1.039754,1.15751 -1.583872,0.821226 z M 47.68,51.399179 c 0,-1.812595 0.530947,-2.672297 1.435926,-2.325024 0.358061,0.137402 0.484074,0.688183 0.484074,2.115802 0,1.700243 0.0743,1.930042 0.624032,1.930042 0.533699,0 0.63792,-0.261556 0.72,-1.806877 0.06979,-1.314087 0.251181,-1.903184 0.665078,-2.16 0.807703,-0.501168 1.179952,0.216617 1.185991,2.286877 0.0043,1.465033 0.08679,1.68 0.644899,1.68 0.573629,0 0.64,-0.213335 0.64,-2.057143 0,-2.758851 -1.025968,-3.735107 -2.881616,-2.741993 -0.400774,0.214489 -0.66529,0.214489 -0.79785,0 -0.275395,-0.4456 -1.870908,-0.40249 -2.336534,0.06314 -0.298666,0.298665 -0.384,0.298665 -0.384,0 0,-0.2112 -0.288,-0.384 -0.64,-0.384 -0.586666,0 -0.64,0.213334 -0.64,2.56 0,2.346665 0.05333,2.56 0.64,2.56 0.560659,0 0.64,-0.213335 0.64,-1.72082 z m 9.024032,-0.11918 c 0.08501,-1.629981 0.17815,-1.851671 0.815968,-1.942256 0.462707,-0.06572 0.72,-0.323008 0.72,-0.72 0,-0.700096 -0.63567,-0.814074 -1.229325,-0.22042 -0.316435,0.316436 -0.453187,0.306941 -0.671705,-0.04663 C 56.188064,48.10652 55.834058,47.995205 55.552294,48.103327 55.151411,48.25716 55.04,48.77764 55.04,50.496623 c 0,2.346086 0.105421,2.623376 0.997363,2.623376 0.470304,0 0.587581,-0.323687 0.666669,-1.84 z M 37.899021,43.207976 c 0.451376,-0.171616 1.108214,-0.783616 1.459635,-1.36 0.606266,-0.994364 0.639014,-1.618467 0.640147,-12.199616 9.6e-4,-9.396544 -0.07663,-11.315638 -0.493283,-12.193674 C 38.593235,15.532185 38.506397,15.52 25.717303,15.52 H 14.092085 L 13.046043,16.565815 12,17.61163 11.914749,29.205815 c -0.08204,11.15732 -0.06086,11.633787 0.562023,12.645243 0.356,0.578083 0.970363,1.180957 1.36525,1.339718 0.986202,0.396493 23.017949,0.412244 24.056999,0.01722 z M 22.951592,37.921948 c -0.840625,-1.321072 -1.704625,-2.406215 -1.92,-2.411427 -0.215376,-0.0052 -1.283439,0.966784 -2.373474,2.16 -1.91229,2.093299 -2.002182,2.149126 -2.56,1.58992 -0.54749,-0.548855 -0.548692,-0.601405 -0.02269,-0.991936 0.792198,-0.588167 3.675131,-3.304906 3.909507,-3.684135 0.108292,-0.175219 -0.960488,-1.093456 -2.375067,-2.040521 l -2.571961,-1.721943 1.142527,-0.610953 1.142528,-0.610954 -0.225513,-3.808836 c -0.222813,-3.763223 -0.217464,-3.806732 0.446633,-3.633066 0.551949,0.144338 0.846432,-0.133048 1.646767,-1.551164 0.536041,-0.949814 1.026254,-1.726934 1.089361,-1.726934 0.06311,0 0.503637,0.587662 0.978953,1.305914 0.475318,0.718253 1.034453,1.242013 1.242524,1.163913 1.937267,-0.727162 1.861233,-0.798681 1.755572,1.651316 -0.0567,1.314723 0.03619,2.293518 0.222739,2.347043 0.176,0.0505 1.112,-1.086616 2.08,-2.526919 0.968,-1.440304 1.858536,-2.714839 1.978968,-2.832301 0.120432,-0.117463 0.378324,0.378232 0.573091,1.101544 0.390645,1.450745 0.455158,1.459676 3.328175,0.460722 2.078588,-0.72273 2.135388,-0.657597 1.399756,1.605025 -0.770384,2.369512 -0.646604,2.943585 0.698388,3.238994 0.539891,0.11858 0.981385,0.312159 0.981094,0.430175 -2.91e-4,0.118016 -1.224291,0.982139 -2.72,1.920275 -3.461184,2.170915 -3.572636,2.761338 -0.479472,2.540023 1.232,-0.08815 2.24,-0.04487 2.24,0.09617 0,0.141043 -0.140531,0.626067 -0.312291,1.077833 -0.282771,0.743741 -0.192016,0.900989 0.96,1.663357 0.69976,0.463078 1.272144,0.930825 1.271965,1.03944 -1.8e-4,0.108611 -0.72018,0.601782 -1.6,1.095936 C 33.714963,36.91262 33.28,37.348889 33.28,37.862927 c 0,0.700234 -0.02947,0.70407 -3.6,0.4688 -3.212828,-0.211702 -3.64152,-0.177766 -3.986064,0.31553 -1.265866,1.81239 -1.09957,1.856371 -2.742344,-0.725309 z M 53.44,40.447925 c 0.402685,-0.394262 0.494902,-2.108064 0.572525,-10.639868 0.09039,-9.935827 0.07697,-10.18968 -0.583226,-11.028982 -1.164051,-1.479851 -2.101203,-1.19623 -6.89847,2.087767 l -4.304749,2.946843 0.08696,5.748751 0.08696,5.74875 3.84,2.683047 c 2.112,1.475673 4.128,2.81263 4.48,2.971014 0.789392,0.355184 2.079453,0.109827 2.72,-0.517322 z"
         id="path321" />
      <path
         style="fill:#e4a89b;stroke-width:0.32"
         d="M 15.927871,64.703659 0.01574212,55.519998 0.01401627,36.959999 0.01229042,18.4 16.005311,9.179417 31.998332,-0.04116541 47.992246,9.179417 63.98616,18.4 l -0.0022,18.559999 -0.0022,18.559999 -15.837936,9.12 c -8.710864,5.016 -15.94272,9.148646 -16.070794,9.183661 -0.128071,0.03501 -7.393315,-4.068986 -16.144986,-9.12 z M 7.6148333,53.910338 C 7.7045222,52.998229 7.7761754,52.952258 8.9357558,53.06284 10.435104,53.205829 11.2,52.336277 11.2,50.488795 11.2,48.645986 10.391232,48.02949 8.017833,48.063141 L 6.08,48.090616 v 3.261357 c 0,1.793747 0.1009779,3.362336 0.2243955,3.485754 0.5016176,0.501619 1.2199056,-0.0067 1.3104378,-0.927389 z M 7.8933334,51.946664 C 7.776,51.829333 7.68,51.191035 7.68,50.528229 7.68,49.572053 7.8236861,49.277522 8.3756173,49.102347 9.5808061,48.719835 10.492203,50.819797 9.536,51.775999 9.1176208,52.194376 8.2329587,52.28629 7.8933334,51.946664 Z M 13.44,51.399179 c 0,-1.812595 0.530947,-2.672297 1.435925,-2.325024 0.358062,0.137402 0.484075,0.688183 0.484075,2.115802 0,1.845379 0.03509,1.930042 0.8,1.930042 0.761021,0 0.8,-0.09008 0.8,-1.848797 0,-2.218634 -0.60304,-3.271203 -1.874145,-3.271203 -0.48282,0 -1.050655,0.1728 -1.261855,0.384 -0.298667,0.298665 -0.384,0.08533 -0.384,-0.96 0,-1.130666 -0.101587,-1.344 -0.64,-1.344 -0.601212,0 -0.64,0.213334 -0.64,3.52 0,3.306665 0.03879,3.52 0.64,3.52 0.560658,0 0.64,-0.213335 0.64,-1.72082 z m 8.457143,1.217962 C 22.888244,51.62604 22.1131,51.094216 20.838047,51.890501 20.120951,52.338335 19.2,52.04572 19.2,51.37004 c 0,-0.380656 0.392858,-0.490041 1.76,-0.490041 1.504248,0 1.76,-0.08673 1.76,-0.596845 0,-0.328266 -0.298452,-0.976266 -0.663226,-1.44 -0.890776,-1.132438 -2.570186,-1.158835 -3.67132,-0.0577 -1.631931,1.631929 -0.525263,4.334544 1.774915,4.334544 0.695076,0 1.45351,-0.219594 1.736774,-0.502857 z M 19.28,49.519999 c 0.07333,-0.22 0.469333,-0.4 0.88,-0.4 0.410667,0 0.806667,0.18 0.88,0.4 0.08795,0.263859 -0.211556,0.4 -0.88,0.4 -0.668444,0 -0.967953,-0.136141 -0.88,-0.4 z m 5.68,1.714236 c 0,-1.446339 0.121302,-1.93231 0.520559,-2.08552 0.916479,-0.351686 1.399441,0.424973 1.399441,2.250464 0,1.507485 0.07934,1.72082 0.64,1.72082 0.577963,0 0.64,-0.213335 0.64,-2.20082 0,-1.404886 -0.149057,-2.324521 -0.412156,-2.542873 -0.226685,-0.188135 -1.306685,-0.329376 -2.4,-0.313875 L 23.36,48.090616 v 2.514691 c 0,2.469005 0.01453,2.514692 0.8,2.514692 0.762831,0 0.8,-0.08762 0.8,-1.885764 z m 8.64,1.245764 C 34.481661,51.598338 34.453472,49.708475 33.54422,48.740623 31.952071,47.045858 29.12,48.2462 29.12,50.615778 c 0,1.647446 0.875858,2.504221 2.56,2.504221 0.853334,0 1.493334,-0.213335 1.92,-0.64 z m -2.938225,-1.12 c -0.478733,-1.050704 0.09372,-2.4 1.018225,-2.4 0.924506,0 1.496957,1.349296 1.018224,2.4 -0.215654,0.473312 -0.631456,0.8 -1.018224,0.8 -0.386768,0 -0.80257,-0.326688 -1.018225,-0.8 z m 8.698225,1.12 c 0.352,-0.352 0.64,-0.784 0.64,-0.96 0,-0.508564 -1.012736,-0.371469 -1.673536,0.226547 C 37.47287,52.519039 36.64,51.933055 36.64,50.559999 c 0,-1.373056 0.83287,-1.95904 1.686464,-1.186548 C 38.987264,49.971467 40,50.108562 40,49.599999 40,48.395515 37.549757,47.576223 36.164589,48.317541 35.438083,48.706357 34.7836,50.561 35.079942,51.39116 35.72135,53.187967 38.057677,53.782322 39.36,52.479999 Z m 6.08,-1.444973 c 0,-1.418163 -0.15144,-2.180755 -0.502858,-2.53217 -0.672784,-0.672784 -2.957164,-0.656329 -3.711945,0.02675 -0.802557,0.726304 -0.733504,1.070403 0.214803,1.070403 0.44,0 0.8,-0.144 0.8,-0.32 0,-0.176 0.36,-0.32 0.8,-0.32 1.292691,0 0.979347,0.898685 -0.4,1.147226 -1.498669,0.270042 -2,0.658061 -2,1.547955 0,1.127095 0.61129,1.441312 2.771738,1.42473 L 45.44,53.064338 v -2.029315 z m -3.52,0.651069 c 0,-0.476788 1.47015,-1.042612 1.814435,-0.698327 0.101546,0.101546 0.09936,0.406839 -0.0049,0.678429 -0.246681,0.642842 -1.809574,0.660026 -1.809574,0.0199 z m 5.76,-0.104935 c 0,-1.905395 0.639469,-2.965542 1.405373,-2.329901 0.356089,0.29553 0.514627,0.957229 0.514627,2.14792 0,1.507485 0.07934,1.72082 0.64,1.72082 0.560659,0 0.64,-0.213335 0.64,-1.72082 0,-1.139228 0.162227,-1.855452 0.48,-2.11918 0.847651,-0.703488 1.44,0.16824 1.44,2.11918 0,1.507485 0.07934,1.72082 0.64,1.72082 0.577254,0 0.64,-0.213335 0.64,-2.176 0,-1.26578 -0.160627,-2.336628 -0.384,-2.56 -0.479158,-0.479159 -2.383517,-0.504887 -2.673232,-0.03612 -0.154822,0.250512 -0.312374,0.250512 -0.562886,0 -0.464736,-0.464736 -1.916919,-0.442844 -2.395882,0.03612 -0.298666,0.298665 -0.384,0.298665 -0.384,0 0,-0.2112 -0.288,-0.384 -0.64,-0.384 -0.586666,0 -0.64,0.213334 -0.64,2.56 0,2.346665 0.05333,2.56 0.64,2.56 0.551274,0 0.64,-0.213335 0.64,-1.538839 z m 8.96,0.0029 c 0,-1.623773 0.3968,-2.304 1.344,-2.304 0.362666,0 0.576,-0.237037 0.576,-0.64 0,-0.721616 -0.917472,-0.874528 -1.536,-0.256 -0.298666,0.298666 -0.384,0.298666 -0.384,0 0,-0.2112 -0.36,-0.384 -0.8,-0.384 -0.786666,0 -0.8,0.04267 -0.8,2.56 0,2.517335 0.01334,2.56 0.8,2.56 0.742221,0 0.8,-0.110934 0.8,-1.536 z M 38.79495,42.586594 39.84,41.653148 39.931376,29.952702 C 40.011229,19.727966 39.958096,18.127228 39.510122,17.26094 38.571504,15.445811 37.957046,15.36 25.898639,15.36 c -9.445852,0 -11.07091,0.0707 -12.024374,0.52315 -2.055353,0.975329 -2.067237,1.060392 -1.965641,14.06951 L 12,41.653106 l 1.045049,0.933446 1.045048,0.933447 H 25.92 37.749904 L 38.79495,42.586552 Z M 23.077,38.040396 c -0.77165,-1.239418 -1.627451,-2.339613 -1.901779,-2.444883 -0.341338,-0.130986 -1.13281,0.508112 -2.507425,2.024691 -1.841052,2.031187 -2.051355,2.173379 -2.52052,1.704214 -0.469165,-0.469165 -0.32008,-0.686918 1.786808,-2.609837 1.400017,-1.277769 2.208839,-2.243328 2.068876,-2.469792 -0.126393,-0.204508 -1.248798,-1.024991 -2.494236,-1.823295 l -2.26443,-1.451465 0.777853,-0.597899 c 0.427819,-0.328845 0.904355,-0.601102 1.058969,-0.605015 0.158664,-0.004 0.180475,-1.693332 0.05007,-3.878178 -0.225338,-3.775461 -0.215248,-3.86605 0.408567,-3.668059 0.524481,0.166464 0.822094,-0.115944 1.653413,-1.568937 0.557591,-0.974568 1.056098,-1.771942 1.107793,-1.771942 0.0517,0 0.484344,0.589862 0.961441,1.310804 0.861369,1.301617 1.059996,1.363723 2.483694,0.776601 0.4885,-0.201454 0.539124,0.01902 0.48,2.090409 -0.03844,1.346686 0.07054,2.363932 0.260453,2.431084 0.179602,0.06351 1.179526,-1.198986 2.222053,-2.805541 l 1.895504,-2.92101 0.420567,1.21478 c 0.231312,0.66813 0.477473,1.271686 0.547023,1.341236 0.06955,0.06955 1.098287,-0.173712 2.286082,-0.540585 1.187793,-0.366872 2.226443,-0.600225 2.308104,-0.518562 0.08166,0.08166 -0.147805,1.119163 -0.509933,2.305554 -0.362128,1.186391 -0.589808,2.268082 -0.505959,2.403758 0.08385,0.135676 0.651408,0.340287 1.261236,0.454691 0.609827,0.114404 1.101715,0.299982 1.093084,0.412394 -0.0086,0.112413 -1.23263,0.974135 -2.72,1.914938 -3.428417,2.168569 -3.521476,2.700436 -0.447164,2.555708 2.029699,-0.09555 2.239292,-0.04983 2.08,0.453741 -0.09743,0.308 -0.257744,0.816653 -0.35625,1.130336 -0.13271,0.422602 0.157408,0.759472 1.12,1.300477 0.714506,0.401574 1.299104,0.840307 1.299104,0.974963 0,0.134653 -0.72,0.582054 -1.6,0.994224 -1.288813,0.603648 -1.6,0.90384 -1.6,1.543469 v 0.79407 l -3.689635,-0.210729 -3.689635,-0.210733 -0.661974,1.121961 c -0.364085,0.617079 -0.683749,1.116087 -0.710364,1.108903 -0.02661,-0.0072 -0.679742,-1.027127 -1.451392,-2.266544 z M 53.294544,40.494543 54.08,39.70909 V 29.657699 c 0,-9.684178 -0.02422,-10.082193 -0.663226,-10.894545 -1.171971,-1.489918 -2.188342,-1.182771 -6.943776,2.098411 l -4.247001,2.93037 0.087,5.779556 0.087,5.779558 4.292586,2.964473 c 2.472435,1.707475 4.61567,2.964477 5.054544,2.964477 0.419078,0 1.115414,-0.353456 1.547414,-0.785456 z"
         id="path319" />
      <path
         style="fill:#dd8771;stroke-width:0.32"
         d="M 16,64.684625 0.16,55.501659 0.09277191,36.950828 0.02554382,18.4 16.012353,9.205281 31.999163,0.01056228 47.919581,9.2077463 63.84,18.40493 V 36.953068 55.501202 L 47.894781,64.7106 C 39.124912,69.775768 31.924912,73.908206 31.894782,73.893796 31.864652,73.879387 24.712,69.735259 16,64.684625 Z M 7.68,53.908741 c 0,-1.039088 0.05313,-1.102826 0.6520874,-0.782272 2.0446966,1.094288 3.8531746,-2.135107 2.4203076,-4.321939 -0.457723,-0.698573 -0.730711,-0.779126 -2.5920001,-0.764842 L 6.08,48.055656 v 3.49217 3.492173 h 0.8 c 0.7024688,0 0.8,-0.137917 0.8,-1.131258 z m 0.4,-1.960672 C 7.5407418,51.730472 7.5700992,49.769573 8.1194406,49.313659 9.1704253,48.441419 10.338447,50.140197 9.615951,51.490194 9.2631987,52.149317 8.86956,52.266664 8.08,51.948069 Z m 14.117257,0.438285 c 0.560157,-0.662477 0.562514,-0.713287 0.03794,-0.81792 -0.307624,-0.06136 -0.890675,0.06578 -1.29567,0.282521 C 20.077807,52.312133 19.2,52.069455 19.2,51.37004 c 0,-0.380656 0.392858,-0.490041 1.76,-0.490041 1.504248,0 1.76,-0.08673 1.76,-0.596845 0,-0.328266 -0.298452,-0.976266 -0.663226,-1.44 -1.46604,-1.86377 -4.471712,-0.620023 -4.446597,1.84 0.02498,2.446528 3.018675,3.558096 4.58708,1.7032 z M 19.2,49.634235 c 0,-0.404534 0.870308,-0.688569 1.44,-0.469958 0.813255,0.312077 0.531472,0.755722 -0.48,0.755722 -0.528,0 -0.96,-0.128596 -0.96,-0.285764 z m 13.466173,3.485764 c 0.753001,0 1.573827,-1.335162 1.573827,-2.56 0,-1.706666 -0.853334,-2.56 -2.56,-2.56 -1.62775,0 -2.56,0.864454 -2.56,2.373827 0,0.601606 0.09355,1.337619 0.207892,1.635584 0.242276,0.631363 1.997111,1.475123 2.61828,1.258921 0.234394,-0.08158 0.558394,-0.148332 0.720001,-0.148332 z m -1.933116,-1.725658 c -0.539151,-1.418077 0.247791,-2.682547 1.39541,-2.242163 1.120768,0.43008 0.736429,3.007821 -0.448467,3.007821 -0.397276,0 -0.770607,-0.30186 -0.946943,-0.765658 z M 39.44,52.430901 c 0.308,-0.36399 0.56,-0.789853 0.56,-0.946352 0,-0.509226 -1.358131,-0.29976 -1.785981,0.27545 -0.633443,0.851616 -1.574019,0.134537 -1.574019,-1.2 0,-1.334538 0.940576,-2.051616 1.574019,-1.2 C 38.680995,49.98781 40,50.124584 40,49.545195 c 0,-0.854694 -1.072486,-1.545196 -2.4,-1.545196 -1.542096,0 -2.28457,0.622841 -2.595453,2.17726 -0.510969,2.554858 2.769975,4.221901 4.435453,2.253642 z m 4.96,0.645338 1.04,0.06381 v -2.067168 c 0,-1.452576 -0.149504,-2.216672 -0.502858,-2.570023 -0.672784,-0.672784 -2.957164,-0.656329 -3.711945,0.02675 -0.802557,0.726304 -0.733504,1.070403 0.214803,1.070403 0.44,0 0.8,-0.144 0.8,-0.32 0,-0.176 0.36,-0.32 0.8,-0.32 1.333283,0 0.955978,0.877392 -0.481763,1.120298 -1.423216,0.240451 -2.259245,1.13025 -1.99856,2.127104 0.201197,0.769376 1.268243,1.261107 2.160323,0.995549 0.352,-0.104784 1.108,-0.161805 1.68,-0.126711 z m -2.25039,-1.1133 c -0.345072,-0.345068 0.413305,-1.08294 1.113036,-1.08294 0.421882,0 0.589677,0.181558 0.517549,0.56 -0.108832,0.571014 -1.224659,0.92887 -1.630585,0.52294 z M 13.44,51.542856 c 0,-1.680429 0.618402,-2.693856 1.44926,-2.375024 0.34063,0.130711 0.47074,0.701853 0.47074,2.066403 0,1.798148 0.03717,1.885764 0.8,1.885764 0.768796,0 0.8,-0.07875 0.8,-2.018839 0,-2.663085 -0.430502,-3.256451 -2.191293,-3.020278 L 13.44,48.259099 v -1.089551 c 0,-0.876215 -0.125312,-1.089549 -0.64,-1.089549 -0.601212,0 -0.64,0.213334 -0.64,3.52 0,3.306665 0.03879,3.52 0.64,3.52 0.55343,0 0.64,-0.213335 0.64,-1.577143 z m 11.52,-0.143677 c 0,-1.116224 0.163718,-1.856691 0.465982,-2.107548 0.785712,-0.65208 1.134018,-0.06014 1.134018,1.927254 0,1.814522 0.03644,1.901114 0.8,1.901114 0.775786,0 0.8,-0.06661 0.8,-2.20082 0,-1.407388 -0.148916,-2.324406 -0.413063,-2.543628 -0.227184,-0.188544 -1.307184,-0.338535 -2.4,-0.333309 L 23.36,48.051746 v 2.534128 c 0,2.489734 0.01401,2.534125 0.8,2.534125 0.754156,0 0.8,-0.09861 0.8,-1.72082 z M 48,51.234235 C 48,49.927304 48.135366,49.296527 48.441005,49.17924 49.199366,48.888232 49.6,49.664181 49.6,51.423999 c 0,1.482665 0.0805,1.696 0.64,1.696 0.55343,0 0.64,-0.213335 0.64,-1.577143 0,-1.565913 0.669581,-2.800118 1.305798,-2.406912 0.161812,0.100003 0.294202,1.037328 0.294202,2.082941 0,1.814522 0.03644,1.901114 0.8,1.901114 0.774902,0 0.8,-0.06827 0.8,-2.176 0,-1.26578 -0.160627,-2.336628 -0.384,-2.56 -0.472803,-0.472803 -2.381894,-0.507514 -2.665603,-0.04846 -0.134995,0.218429 -0.337728,0.227353 -0.580858,0.02557 -0.205417,-0.17048 -1.200598,-0.302531 -2.211513,-0.29345 L 46.4,48.084168 v 2.517907 c 0,2.472439 0.01446,2.517911 0.8,2.517911 0.762832,0 0.8,-0.08762 0.8,-1.885763 z m 8.64,0.349764 c 0,-1.623773 0.3968,-2.304 1.344,-2.304 0.349152,0 0.576,-0.235479 0.576,-0.597911 0,-0.509488 -0.260275,-0.600246 -1.76,-0.613725 l -1.76,-0.01581 v 2.533725 c 0,2.489306 0.01402,2.533725 0.8,2.533725 0.742221,0 0.8,-0.110934 0.8,-1.536 z m -17.728,-9.152 1.088,-1.088 V 29.776108 c 0,-12.695582 -0.03654,-12.962132 -1.909526,-13.930692 -1.396215,-0.722011 -22.944733,-0.722011 -24.340949,0 C 11.876537,16.813976 11.84,17.080526 11.84,29.776108 v 11.567891 l 1.088,1.088 1.088,1.088 H 25.92 37.824 Z M 22.980214,37.765727 c -0.759118,-1.228848 -1.553353,-2.301696 -1.764967,-2.384106 -0.211614,-0.08241 -1.327667,0.868602 -2.480119,2.113354 -1.841912,1.989437 -2.158485,2.210806 -2.617188,1.830118 -0.466205,-0.386915 -0.271638,-0.660563 1.82552,-2.567494 2.706119,-2.460653 2.72059,-2.33705 -0.520853,-4.448931 C 16.288173,31.569554 15.36,30.913438 15.36,30.85063 c 0,-0.06281 0.453337,-0.348625 1.007416,-0.635151 l 1.007416,-0.520955 -0.204484,-3.80297 c -0.203658,-3.787623 -0.201629,-3.802665 0.502976,-3.727262 0.558239,0.05974 0.903537,-0.286407 1.637071,-1.641095 l 0.92961,-1.716803 0.839998,1.3145 c 0.882908,1.38165 1.137408,1.494497 2.339165,1.037203 C 24.150142,20.879945 24.16,20.906164 24.16,23.12853 c 0,1.404499 0.137809,2.299363 0.3661,2.377269 0.201354,0.06871 1.207855,-1.202883 2.236667,-2.825769 l 1.870568,-2.950703 0.346937,1.236538 c 0.190816,0.680096 0.491503,1.284726 0.668195,1.343623 0.176692,0.0589 1.239889,-0.178824 2.362659,-0.52827 1.122772,-0.349445 2.093668,-0.583091 2.157549,-0.519211 0.06388,0.06388 -0.181648,1.080283 -0.545616,2.258675 -0.363968,1.178392 -0.588403,2.261229 -0.498742,2.406304 0.08966,0.145076 0.600998,0.35997 1.136304,0.477542 0.535302,0.117573 0.929651,0.340023 0.876329,0.494334 -0.05332,0.154311 -1.243564,1.041194 -2.644979,1.970851 -1.401417,0.929658 -2.553417,1.834286 -2.56,2.010286 -0.0066,0.176558 1.022094,0.362026 2.29488,0.413754 l 2.306851,0.09375 -0.306851,0.807079 c -0.440633,1.15895 -0.432253,1.176828 0.953031,2.032982 0.692937,0.428256 1.186745,0.896989 1.097353,1.041626 -0.08939,0.144636 -0.880032,0.626563 -1.756982,1.070947 -1.338029,0.678032 -1.560439,0.915158 -1.382931,1.474435 0.208803,0.657885 0.163769,0.663478 -3.499776,0.43457 l -3.711302,-0.231892 -0.563122,0.989351 c -0.309717,0.544141 -0.662026,0.990259 -0.782908,0.991373 -0.120882,9.6e-4 -0.840882,-1.003399 -1.6,-2.23225 z M 53.294544,40.494543 54.08,39.70909 V 29.640717 c 0,-5.537606 -0.09355,-10.312164 -0.207891,-10.61013 -0.306931,-0.799847 -2.004544,-1.425227 -2.921975,-1.076421 -0.416636,0.158405 -2.546857,1.521207 -4.733827,3.028448 L 42.24,23.723052 l 0.004,5.818474 0.004,5.818473 1.036038,0.692384 c 0.569821,0.380813 2.534256,1.712813 4.365412,2.96 1.834825,1.24969 3.672857,2.267616 4.094547,2.267616 0.420845,0 1.118624,-0.353456 1.550624,-0.785456 z"
         id="path317" />
      <path
         style="fill:#d87258;stroke-width:0.32"
         d="M 15.84,64.522206 0.16,55.456418 V 36.95117 18.445919 L 16.08,9.2527149 32,0.05951113 47.92,9.2527149 63.84,18.445919 V 36.947033 55.448146 L 48.16,64.517051 C 39.536,69.504949 32.264,73.586414 32,73.586974 31.736,73.587614 24.464,69.508389 15.84,64.522206 Z M 7.68,53.926859 c 0,-1.066272 0.033131,-1.098044 0.7868915,-0.754608 0.6318867,0.287908 0.9498743,0.251741 1.6142835,-0.183596 2.219917,-1.454544 1.482382,-5.086835 -1.0224924,-5.03568 C 8.564407,47.963055 7.692,47.973263 7.12,47.975631 l -1.04,0.0043 v 3.530022 3.530026 h 0.8 c 0.7000131,0 0.8,-0.139124 0.8,-1.11314 z m 0.384,-2.15086 c -0.5198102,-0.519812 -0.4861946,-2.012823 0.055441,-2.46234 1.019057,-0.84574 2.033356,0.592372 1.4675021,2.080682 -0.3170857,0.834 -0.9196064,0.984995 -1.5229431,0.381658 z m 14.134908,0.623036 c 0.589651,-0.707923 0.588143,-0.720652 -0.09761,-0.8236 -0.383087,-0.05751 -0.897686,0.06238 -1.143552,0.266436 -0.245867,0.204051 -0.741941,0.277401 -1.102387,0.163001 -1.18938,-0.377494 -0.682452,-0.804873 0.954687,-0.804873 1.84451,0 2.206365,-0.43186 1.596179,-1.90498 C 21.379414,46.816085 17.6,47.806581 17.6,50.554616 c 0,1.235719 0.400476,1.939069 1.44,2.529043 0.893493,0.507098 2.446662,0.170484 3.158908,-0.684624 z M 19.2,49.634235 c 0,-0.554089 1.07573,-0.695648 1.565385,-0.205993 0.442344,0.442342 0.388403,0.491757 -0.536813,0.491757 -0.565715,0 -1.028572,-0.128596 -1.028572,-0.285764 z m 14.425357,2.982813 c 1.346816,-1.218851 0.77583,-3.955145 -0.950935,-4.557101 -1.194454,-0.416387 -2.766845,0.02637 -3.241177,0.912672 -0.413185,0.772045 -0.398971,2.429274 0.02767,3.226468 0.681916,1.274172 2.965125,1.503328 4.164437,0.417961 z M 31.12,51.948069 c -0.559412,-0.225728 -0.500628,-2.186192 0.08,-2.66807 0.382949,-0.317821 0.577051,-0.317821 0.96,0 0.647872,0.537686 0.629392,2.434201 -0.02618,2.685763 -0.278394,0.106832 -0.530394,0.182867 -0.559999,0.168973 -0.02961,-0.01389 -0.233828,-0.0979 -0.453828,-0.186666 z m 8.299002,0.638534 C 39.73855,52.297413 40,51.867125 40,51.630402 c 0,-0.590871 -1.486438,-0.547904 -1.715722,0.0496 -0.265945,0.693046 -1.083068,0.589664 -1.50023,-0.189805 -0.739853,-1.382429 0.419587,-3.040845 1.423834,-2.036599 C 38.793677,50.039391 40,50.063621 40,49.489595 c 0,-0.779552 -1.273123,-1.617596 -2.457386,-1.617596 -0.85344,0 -1.338976,0.224867 -1.904083,0.881843 -1.066793,1.240221 -0.990829,2.583088 0.214288,3.788208 0.811107,0.811104 1.140083,0.939369 1.979005,0.771584 0.553398,-0.110679 1.267629,-0.437843 1.587178,-0.727031 z M 44.52,53.119999 h 0.92 v -2.20082 c 0,-2.338694 -0.189248,-2.685222 -1.657792,-3.03558 -1.315901,-0.313939 -3.11807,0.534153 -3.137309,1.4764 -0.0077,0.376595 1.426525,0.280576 1.829591,-0.12249 0.389011,-0.389011 1.36551,-0.166218 1.36551,0.311549 0,0.159027 -0.565782,0.379616 -1.257293,0.490192 -2.150438,0.343869 -2.835414,1.548041 -1.589373,2.794083 0.507892,0.507891 0.910845,0.62583 1.64,0.48 C 43.164998,53.206997 44.014,53.119999 44.52,53.119999 Z m -2.439158,-1.27864 c -0.220794,-0.357252 1.329987,-1.177197 1.640041,-0.867143 0.109002,0.108999 0.112912,0.420391 0.0087,0.691981 -0.211133,0.550205 -1.342649,0.670419 -1.648733,0.175162 z M 13.76,51.177743 c 0,-1.831159 0.04119,-1.936407 0.72,-1.84 0.637819,0.09058 0.730954,0.312275 0.815969,1.942256 0.08936,1.713225 0.149988,1.84 0.88,1.84 0.743723,0 0.784031,-0.09736 0.784031,-1.893828 0,-1.041606 -0.09164,-2.132636 -0.203643,-2.424515 -0.286091,-0.745542 -1.616245,-1.197753 -2.357005,-0.801312 -0.521634,0.279171 -0.611662,0.186451 -0.699048,-0.719952 -0.08384,-0.869673 -0.231579,-1.040393 -0.900304,-1.040393 -0.798088,0 -0.800217,0.0082 -0.890826,3.44 l -0.09083,3.44 H 12.789174 13.76 Z m 11.264031,0.102256 c 0.08501,-1.629981 0.17815,-1.851671 0.815969,-1.942256 0.678815,-0.09641 0.72,0.0088 0.72,1.84 0,1.858406 0.03454,1.942256 0.8,1.942256 0.776891,0 0.8,-0.06449 0.8,-2.232624 0,-2.016455 -0.07594,-2.282381 -0.784332,-2.746538 -0.520404,-0.340979 -1.031884,-0.431619 -1.52,-0.269353 C 25.451051,48.005992 24.724,48.079083 24.24,48.033906 l -0.88,-0.08214 v 2.584115 c 0,2.529024 0.01672,2.584119 0.784031,2.584119 0.730012,0 0.790643,-0.126775 0.88,-1.840001 z M 48,51.199999 c 0,-1.706666 0.07111,-1.92 0.64,-1.92 0.56889,0 0.64,0.213334 0.64,1.92 v 1.92 h 0.96 0.96 v -1.92 c 0,-1.706666 0.07111,-1.92 0.64,-1.92 0.56889,0 0.64,0.213334 0.64,1.92 0,1.843484 0.03244,1.92 0.814019,1.92 0.805728,0 0.813063,-0.02358 0.72,-2.316861 -0.08858,-2.182919 -0.145878,-2.341648 -0.991069,-2.745632 -0.768316,-0.367242 -1.005974,-0.357402 -1.656096,0.06858 -0.484044,0.317158 -0.800249,0.373731 -0.872777,0.156147 -0.06255,-0.187658 -0.469309,-0.333251 -0.903904,-0.323542 -0.434595,0.0097 -1.330173,0.02736 -1.990173,0.03923 l -1.2,0.02157 v 2.550255 c 0,2.506941 0.0136,2.550256 0.8,2.550256 0.764445,0 0.8,-0.08533 0.8,-1.92 z m 8.64,0.384 c 0,-1.634976 0.396726,-2.304 1.366256,-2.304 0.439629,0 0.56913,-0.190906 0.488403,-0.72 -0.06792,-0.445181 -0.290166,-0.674736 -0.582256,-0.601418 C 57.652582,48.023804 56.9,48.06084 56.24,48.040885 l -1.2,-0.03628 v 2.557696 c 0,2.514876 0.01341,2.557696 0.8,2.557696 0.742221,0 0.8,-0.110935 0.8,-1.536 z M 38.602547,42.952882 C 39.960934,41.852549 40,41.471045 40,29.306085 V 17.610096 L 39.06656,16.565048 38.13312,15.52 26.521159,15.428267 C 14.140383,15.33046 13.653356,15.381 12.469154,16.886469 11.869614,17.648661 11.84,18.238231 11.84,29.411952 c 0,10.524124 0.05588,11.806716 0.545315,12.516844 1.106209,1.605011 0.810853,1.570665 13.534685,1.57391 10.89583,0.0029 12.062803,-0.04781 12.682547,-0.549824 z M 23.21576,38.022917 c -1.554044,-2.400115 -2.038129,-2.892601 -2.540818,-2.584912 -0.217446,0.133098 -1.205542,1.131258 -2.19577,2.218135 -1.553673,1.705315 -1.855794,1.909408 -2.204522,1.489216 -0.342385,-0.412551 -0.07652,-0.779751 1.74062,-2.404042 1.179601,-1.054416 2.14473,-2.110333 2.14473,-2.346483 0,-0.236154 -1.08,-1.102502 -2.4,-1.925222 -1.32,-0.822719 -2.4,-1.54925 -2.4,-1.614514 0,-0.06526 0.452529,-0.352672 1.005619,-0.638687 l 1.005619,-0.520025 -0.175386,-3.806701 c -0.174015,-3.776906 -0.169989,-3.805373 0.51438,-3.637099 0.577387,0.14197 0.841321,-0.122367 1.619964,-1.622437 l 0.930197,-1.792039 0.829803,1.314398 c 0.758124,1.200857 0.919641,1.298162 1.869804,1.126446 L 24,21.090999 v 2.2545 c 0,3.083445 0.501174,2.966179 2.836754,-0.66375 l 1.877668,-2.91825 0.220445,1.175068 c 0.121244,0.646288 0.413755,1.249249 0.650026,1.339915 0.23627,0.09067 1.344325,-0.117711 2.462345,-0.463059 1.11802,-0.345347 2.070845,-0.593011 2.117392,-0.550366 0.04655,0.04265 -0.219728,1.062947 -0.591728,2.267334 -0.647337,2.095839 -0.651776,2.207769 -0.103468,2.608702 0.315088,0.230398 0.833366,0.418906 1.151728,0.418906 0.959014,0 0.657689,0.532698 -0.781162,1.380987 -0.748,0.440991 -1.988178,1.259296 -2.75595,1.818457 -1.787758,1.302004 -1.420909,1.733975 1.386145,1.632211 l 2.090746,-0.0758 -0.320471,0.842903 c -0.475132,1.249692 -0.435459,1.336393 1.00442,2.19503 l 1.324886,0.79007 -1.814954,1.024295 c -1.474131,0.831952 -1.777721,1.141606 -1.616681,1.648998 0.191731,0.604093 0.07185,0.617303 -3.634638,0.400506 -3.679579,-0.215229 -3.841218,-0.198019 -4.040599,0.430173 -0.475992,1.499721 -0.95832,1.365587 -2.247144,-0.624916 z M 53.339376,40.58422 54.08,39.888437 V 29.730391 c 0,-5.586926 -0.08945,-10.391151 -0.198778,-10.676055 -0.293683,-0.765328 -1.954281,-1.525059 -2.768544,-1.266621 -0.382435,0.12138 -2.535238,1.504742 -4.784006,3.074139 L 42.24,23.715301 v 5.839574 5.839575 l 4.24,2.927306 c 4.589523,3.168617 5.555626,3.487273 6.859376,2.262464 z"
         id="path315" />
      <path
         style="fill:#d35529;stroke-width:0.32"
         d="M 15.84,64.491061 0.16,55.393256 V 36.948892 18.504529 L 15.68,9.5079015 C 24.724454,4.2650159 31.533791,0.51123112 32,0.51117151 32.466634,0.51111179 39.26729,4.2615359 48.32,9.511322 l 15.52,9.000253 V 36.95246 55.393346 L 48.32,64.38027 c -8.536,4.94281 -15.808,9.036803 -16.16,9.09776 -0.396318,0.06863 -6.610213,-3.353187 -16.32,-8.986969 z M 7.68,54.087999 C 7.68,53.209867 7.751457,53.15029 8.6009062,53.320181 9.8990067,53.5798 10.799121,52.985317 11.21336,51.594776 11.949142,49.124863 10.5447,47.626389 7.76,47.9102 l -1.68,0.171226 v 3.479286 3.479287 h 0.8 c 0.6740618,0 0.8,-0.149866 0.8,-0.952 z m 0.3360598,-2.38865 c -0.2102675,-0.253357 -0.3358995,-0.865357 -0.2791824,-1.36 0.082383,-0.718474 0.2640173,-0.89935 0.9031226,-0.89935 0.6758758,0 0.8160957,0.168566 0.9037386,1.086444 0.1367465,1.432132 -0.74848,2.111783 -1.5276788,1.172906 z m 13.9984862,0.86065 c 0.855146,-0.86952 0.857075,-0.881194 0.161961,-0.980093 -0.386921,-0.05505 -1.015721,0.06701 -1.397333,0.271238 -0.559531,0.299453 -0.792801,0.272371 -1.205078,-0.139907 -0.468318,-0.468317 -0.357723,-0.511238 1.317332,-0.511238 1.78586,0 1.828572,-0.02076 1.828572,-0.888797 0,-1.991568 -1.959161,-3.123824 -3.777866,-2.183335 C 17.887719,48.673128 17.6,49.204632 17.6,50.607208 c 0,2.584067 2.643618,3.753482 4.414546,1.952791 z m -2.654546,-2.96 c 0.108774,-0.176 0.468774,-0.32 0.8,-0.32 0.331226,0 0.691226,0.144 0.8,0.32 0.115696,0.1872 -0.216306,0.32 -0.8,0.32 -0.583694,0 -0.915696,-0.1328 -0.8,-0.32 z m 14.134883,3.073961 c 0.7048,-0.606243 0.890573,-1.039792 0.890573,-2.078384 0,-1.767913 -0.960486,-2.741033 -2.705456,-2.741033 -1.723788,0 -2.628659,0.915216 -2.67562,2.706208 -0.02876,1.096646 0.128408,1.483286 0.858053,2.110902 1.140096,0.980669 2.494037,0.98153 3.63245,0.0022 z M 31.05606,51.699349 c -0.210268,-0.253357 -0.3359,-0.865357 -0.279183,-1.36 0.08238,-0.718474 0.264018,-0.89935 0.903123,-0.89935 0.639104,0 0.820739,0.180876 0.903123,0.89935 0.09795,0.854237 -0.381433,1.82065 -0.903123,1.82065 -0.1329,0 -0.413673,-0.207293 -0.62394,-0.46065 z m 8.100785,1.077424 c 0.971664,-0.76431 1.135417,-1.896774 0.274272,-1.896774 -0.312887,0 -0.815475,0.288 -1.116867,0.64 -0.698452,0.815731 -1.08168,0.808265 -1.530202,-0.02979 -0.558096,-1.042813 -0.123904,-2.210196 0.822048,-2.210196 0.436646,0 0.793904,0.144 0.793904,0.32 0,0.176 0.36,0.32 0.8,0.32 1.347859,0 0.939075,-1.319635 -0.58872,-1.900502 -1.181277,-0.449123 -2.31432,-0.134563 -3.096342,0.859619 -2.002314,2.54553 1.116921,5.883815 3.641907,3.897658 z M 44.72,53.123522 c 0.676534,-0.0033 0.72,-0.136387 0.72,-2.204343 0,-2.610316 -0.386582,-3.093999 -2.436742,-3.048793 -1.53328,0.03381 -2.363258,0.542627 -2.363258,1.448793 0,0.743559 0.864214,0.786698 1.642883,0.08201 0.315306,-0.285347 0.80377,-0.430362 1.085482,-0.322259 0.795913,0.305421 0.277331,0.763577 -1.134215,1.002057 -1.884009,0.318301 -2.439283,1.553879 -1.238128,2.755034 0.535946,0.535946 0.917213,0.636138 1.84,0.483523 C 43.476211,53.213669 44.324,53.125458 44.72,53.123522 Z m -2.48,-1.421959 c 0,-0.441315 1.177539,-1.030694 1.471648,-0.736582 0.07888,0.07888 0.05262,0.380026 -0.05835,0.669216 C 43.405472,52.280015 42.24,52.335567 42.24,51.701563 Z m -28.48,-0.52382 c 0,-1.831159 0.04119,-1.936407 0.72,-1.84 0.637819,0.09058 0.730954,0.312275 0.815969,1.942256 0.08936,1.713225 0.149988,1.84 0.88,1.84 0.751628,0 0.784031,-0.08597 0.784031,-2.08 0,-2.53778 -0.706798,-3.536749 -2.260847,-3.195421 C 13.818942,48.037903 13.76,47.989004 13.76,47.065426 c 0,-0.881587 -0.101162,-0.985427 -0.96,-0.985427 h -0.96 v 3.52 3.52 h 0.96 0.96 z m 11.264031,0.102256 c 0.08501,-1.629981 0.17815,-1.851671 0.815969,-1.942256 0.678815,-0.09641 0.72,0.0088 0.72,1.84 v 1.942256 h 0.96 c 0.934729,0 0.96,-0.04086 0.96,-1.55225 0,-2.177034 -0.513201,-3.466544 -1.475769,-3.708134 -0.436515,-0.109559 -0.961584,-0.09542 -1.16682,0.03142 -0.205236,0.126841 -0.846613,0.198736 -1.425283,0.159766 L 23.36,47.979951 v 2.570022 c 0,2.514067 0.01707,2.570026 0.784031,2.570026 0.730012,0 0.790643,-0.126775 0.88,-1.84 z m 23.040001,0.0032 c 0.0757,-1.448983 0.214227,-1.859396 0.655968,-1.943466 0.483562,-0.09203 0.56,0.158707 0.56,1.836893 v 1.943462 h 0.96 0.96 v -1.92 c 0,-1.706665 0.07111,-1.92 0.64,-1.92 0.56889,0 0.64,0.213335 0.64,1.92 0,1.834666 0.03556,1.92 0.8,1.92 0.774806,0 0.799846,-0.06803 0.795101,-2.16 -0.0058,-2.551107 -0.255725,-3.059824 -1.481315,-3.015052 -0.910096,0.03324 -1.416916,0.0379 -3.393786,0.03123 -0.572,-0.0019 -1.436,3.2e-4 -1.92,0.0051 l -0.88,0.0086 v 2.565084 c 0,2.508823 0.01718,2.565082 0.784032,2.565082 0.729837,0 0.790662,-0.126963 0.88,-1.83689 z M 56.64,51.818962 c 0,-1.615491 0.469658,-2.538963 1.291258,-2.538963 0.4648,0 0.628742,-0.218333 0.628742,-0.837322 0,-0.721334 -0.09974,-0.80631 -0.72,-0.613446 -0.396,0.123129 -1.188,0.207414 -1.76,0.187296 l -1.04,-0.03658 v 2.570022 c 0,2.528029 0.01309,2.570026 0.8,2.570026 0.722157,0 0.8,-0.126599 0.8,-1.301037 z m -19.134557,-8.31177 c 0.651997,-0.181081 1.479997,-0.703699 1.84,-1.161369 C 39.978397,41.541154 40,41.118012 40,29.524844 V 17.536 L 38.90081,16.436809 37.801619,15.337618 25.754268,15.428809 13.706918,15.52 12.773459,16.565048 11.84,17.610096 11.8412,29.365048 c 0.0011,11.106871 0.03574,11.81161 0.627812,12.782644 0.383993,0.629772 1.034018,1.145184 1.678804,1.331139 1.455915,0.419881 21.858738,0.444653 23.357631,0.02835 z M 22.951592,37.599375 c -0.840625,-1.319658 -1.704625,-2.39944 -1.92,-2.399517 -0.215376,-7.3e-5 -1.278319,0.971927 -2.362097,2.16 -1.569225,1.720243 -2.052985,2.08041 -2.375527,1.768615 -0.323636,-0.312855 0.02409,-0.78473 1.730505,-2.348349 1.17454,-1.076253 2.135527,-2.142615 2.135527,-2.36969 0,-0.227075 -1.066084,-1.110489 -2.369076,-1.963139 l -2.369077,-1.550275 1.06927,-0.726588 c 0.913327,-0.620622 1.050686,-0.878542 0.941846,-1.76851 -0.07008,-0.573057 -0.199032,-2.208781 -0.286554,-3.63494 -0.157654,-2.568974 -0.152304,-2.591713 0.576938,-2.45231 0.57146,0.109242 0.821353,-0.06228 1.11743,-0.766982 0.209749,-0.49923 0.641991,-1.248914 0.960539,-1.665964 l 0.579177,-0.758274 0.736991,1.192477 c 0.666748,1.07882 0.83924,1.175886 1.809754,1.018393 L 24,21.160237 v 2.219881 c 0,3.026783 0.515868,2.923263 2.785732,-0.559017 l 1.811377,-2.778897 0.369774,1.098898 c 0.203376,0.604393 0.580143,1.139894 0.837261,1.19 0.257118,0.05011 1.360371,-0.186793 2.45167,-0.526444 1.091303,-0.339651 1.983085,-0.596648 1.981741,-0.571103 -0.0013,0.02554 -0.288243,0.982444 -0.637555,2.126444 -0.836637,2.739997 -0.824662,2.816357 0.48,3.061113 0.616,0.115562 1.119763,0.302088 1.119472,0.4145 -2.91e-4,0.112413 -1.224291,0.971952 -2.72,1.910088 -1.49571,0.938135 -2.719472,1.910135 -2.719472,2.16 0,0.528352 0.133309,0.550065 2.827613,0.460547 1.94704,-0.06469 2.013801,-0.04156 1.68,0.582155 -0.572275,1.069312 -0.405712,1.563491 0.772387,2.291597 0.616,0.38071 1.117926,0.788454 1.115389,0.906099 -0.0026,0.117645 -0.730791,0.614467 -1.618343,1.104048 -1.317728,0.726871 -1.576457,1.007591 -1.410521,1.53041 0.198035,0.623955 0.105613,0.634745 -3.62955,0.423654 l -3.832759,-0.216608 -0.520326,1.006199 c -0.286179,0.553408 -0.552627,1.005916 -0.592108,1.005574 -0.03948,-3.2e-4 -0.759566,-1.080342 -1.60019,-2.4 z M 53.339376,40.58422 54.08,39.888437 V 29.615421 c 0,-11.317297 -0.0199,-11.438092 -1.955363,-11.863189 -0.884973,-0.194373 -1.483053,0.111376 -5.427539,2.774662 l -4.43297,2.993105 -0.01206,5.943691 -0.01206,5.943691 4.235091,2.936308 c 4.584295,3.178422 5.535469,3.488889 6.864285,2.240531 z"
         id="path313" />
      <path
         style="fill:#d24d1b;stroke-width:0.32"
         d="M 15.912241,64.414005 0,55.228011 V 36.946127 18.664246 L 15.744719,9.5721226 C 24.404315,4.5714552 31.644216,0.43962303 31.833388,0.3902734 32.02256,0.3409238 39.229437,4.3737832 47.848669,9.3521834 L 63.52,18.40382 v 18.546406 18.546409 l -15.671408,9.05168 c -8.619274,4.978426 -15.750765,9.051683 -15.847757,9.051683 -0.09699,0 -7.336862,-4.133696 -16.088594,-9.185993 z M 7.68,54.087999 C 7.68,53.201714 7.74601,53.149202 8.6362621,53.32725 10.684048,53.736808 12.10476,51.46428 11.18664,49.247746 10.675483,48.013701 9.7470138,47.65484 7.6943523,47.897948 L 6.08,48.089144 v 3.475427 3.475428 h 0.8 c 0.6740618,0 0.8,-0.149866 0.8,-0.952 z M 8.1862934,51.738795 C 7.8152096,51.467451 7.6614966,51.008571 7.7325478,50.384219 c 0.087078,-0.76518 0.259145,-0.94422 0.9074522,-0.94422 0.6596454,0 0.8169024,0.173206 0.8963408,0.987254 0.1218506,1.248669 -0.5471782,1.898614 -1.3500474,1.311542 z m 13.6905516,1.037978 c 0.463735,-0.364774 0.843155,-0.796774 0.843155,-0.96 0,-0.406278 -1.178066,-0.373846 -1.97837,0.05446 -0.514216,0.2752 -0.766972,0.240563 -1.167534,-0.16 -0.468318,-0.468317 -0.357723,-0.511238 1.317332,-0.511238 1.802832,0 1.828572,-0.01301 1.828572,-0.924551 0,-1.493753 -0.980422,-2.420905 -2.56,-2.420905 -1.741877,0 -2.56,0.919648 -2.56,2.87768 0,1.111126 0.164929,1.511059 0.843155,2.04455 0.463735,0.364774 1.236315,0.663226 1.716845,0.663226 0.48053,0 1.25311,-0.298452 1.716845,-0.663226 z M 19.36,49.599999 c 0.108774,-0.176 0.468774,-0.32 0.8,-0.32 0.331226,0 0.691226,0.144 0.8,0.32 0.115696,0.1872 -0.216306,0.32 -0.8,0.32 -0.583694,0 -0.915696,-0.1328 -0.8,-0.32 z m 14.134883,3.073961 c 0.7048,-0.606243 0.890573,-1.039792 0.890573,-2.078384 0,-1.767913 -0.960486,-2.741033 -2.705456,-2.741033 -1.744969,0 -2.705454,0.97312 -2.705454,2.741033 0,1.038592 0.185772,1.472141 0.890571,2.078384 0.494906,0.425703 1.301227,0.766039 1.814883,0.766039 0.513654,0 1.319978,-0.340336 1.814883,-0.766039 z M 31.05606,51.699349 c -0.210268,-0.253357 -0.3359,-0.865357 -0.279183,-1.36 0.08238,-0.718474 0.264018,-0.89935 0.903123,-0.89935 0.639104,0 0.820739,0.180876 0.903123,0.89935 0.09795,0.854237 -0.381433,1.82065 -0.903123,1.82065 -0.1329,0 -0.413673,-0.207293 -0.62394,-0.46065 z m 8.54289,0.886794 c 0.679652,-0.929479 0.498045,-1.706144 -0.39895,-1.706144 -0.47047,0 -0.8,0.183616 -0.8,0.445763 0,0.675318 -0.878157,0.870368 -1.430739,0.317782 -0.586615,-0.586614 -0.63264,-1.452166 -0.105261,-1.979545 0.465005,-0.465005 1.536,-0.509629 1.536,-0.064 0,0.176 0.36,0.32 0.8,0.32 0.918122,0 1.056349,-0.65794 0.297622,-1.416663 -0.737891,-0.737894 -1.945158,-0.947568 -2.982323,-0.517958 -2.044544,0.846877 -2.215945,4.315145 -0.254381,5.147289 0.979559,0.415552 2.859626,0.107735 3.338032,-0.546524 z m 5.245712,0.533856 c 0.523565,0 0.595338,-0.269165 0.595338,-2.232624 0,-2.032925 -0.07211,-2.279872 -0.806198,-2.760864 -0.874541,-0.573021 -2.727069,-0.45944 -3.542356,0.217184 -0.72464,0.601398 -0.561174,1.573212 0.268554,1.596588 l 0.72,0.02029 -0.710426,0.285863 c -1.004588,0.40423 -1.28158,1.766813 -0.528358,2.599113 0.494288,0.546183 0.839018,0.626592 2.002589,0.467108 0.773037,-0.105965 1.673424,-0.192656 2.000857,-0.192656 z M 42.24,51.71732 c 0,-0.421318 1.25768,-0.966307 1.551626,-0.672361 0.234912,0.234908 -0.641879,1.11504 -1.110807,1.11504 -0.242451,0 -0.440819,-0.199207 -0.440819,-0.442679 z m 0.07102,-2.170393 c 0.165296,-0.495888 1.17088,-0.579306 1.288976,-0.106928 0.044,0.176 -0.260038,0.368118 -0.675642,0.426928 -0.518054,0.07331 -0.710899,-0.0273 -0.613334,-0.32 z m -28.486993,1.733072 c 0.08317,-1.594679 0.181299,-1.84 0.735969,-1.84 0.55467,0 0.652796,0.245321 0.735969,1.84 0.08936,1.713225 0.149988,1.84 0.88,1.84 0.757125,0 0.784031,-0.07662 0.784031,-2.232624 0,-2.026608 -0.0736,-2.280848 -0.797669,-2.755274 -0.499833,-0.327504 -1.097245,-0.447465 -1.6,-0.32128 C 13.838593,47.992466 13.76,47.917557 13.76,47.046095 c 0,-0.860106 -0.10532,-0.966096 -0.96,-0.966096 h -0.96 v 3.52 3.52 h 0.944031 c 0.924794,0 0.945986,-0.03749 1.04,-1.84 z m 11.2,0 c 0.08501,-1.629981 0.17815,-1.851671 0.815969,-1.942256 0.678815,-0.09641 0.72,0.0088 0.72,1.84 v 1.942256 h 0.96 c 0.920381,0 0.96,-0.05778 0.96,-1.4 0,-2.108708 -0.338647,-3.387463 -0.989307,-3.735683 -0.325763,-0.174346 -1.370027,-0.220663 -2.357727,-0.10458 L 23.36,48.088114 v 2.515942 c 0,2.456672 0.01847,2.515943 0.784031,2.515943 0.730012,0 0.790643,-0.126775 0.88,-1.84 z m 23.040001,0.0032 c 0.0757,-1.448983 0.214227,-1.859396 0.655968,-1.943466 0.483562,-0.09203 0.56,0.158707 0.56,1.836893 v 1.943462 h 0.96 0.96 v -1.92 c 0,-1.706665 0.07111,-1.92 0.64,-1.92 0.56889,0 0.64,0.213335 0.64,1.92 v 1.92 h 0.96 c 0.948909,0 0.96,-0.0201 0.96,-1.739168 0,-0.956544 -0.138906,-2.104521 -0.308682,-2.551062 -0.360128,-0.94721 -1.650873,-1.380278 -2.695404,-0.904358 -0.407111,0.185491 -0.924586,0.210406 -1.197533,0.05766 -0.264352,-0.147939 -1.29913,-0.184502 -2.299511,-0.08125 L 46.08,48.089538 v 2.515229 2.515232 h 0.944032 c 0.924589,0 0.946006,-0.03783 1.04,-1.83689 z M 56.64,51.702856 c 0,-1.448016 0.588582,-2.422857 1.462858,-2.422857 0.279718,0 0.457142,-0.324976 0.457142,-0.837322 0,-0.721334 -0.09974,-0.80631 -0.72,-0.613446 -0.396,0.123129 -1.188,0.207414 -1.76,0.187296 l -1.04,-0.03658 v 2.570022 c 0,2.528029 0.01309,2.570026 0.8,2.570026 0.732902,0 0.8,-0.118858 0.8,-1.417143 z M 37.888458,43.3938 C 40.037082,42.49605 40,42.73646 40,29.703854 40,21.934296 39.882285,17.69176 39.652733,17.187943 38.838294,15.400448 38.530851,15.36 25.758627,15.36 H 14.016 l -1.088,1.088 -1.088,1.088 v 11.960797 c 0,13.205567 -0.03306,12.98068 2.041057,13.883387 1.474522,0.641748 22.475564,0.653658 24.007401,0.0136 z M 23.077,37.720396 c -0.77165,-1.239418 -1.625301,-2.338791 -1.897002,-2.44305 -0.335358,-0.128691 -1.137151,0.522115 -2.496708,2.026544 -1.55655,1.722413 -2.088708,2.131063 -2.388751,1.834355 -0.30041,-0.297068 0.02405,-0.75847 1.462668,-2.08 C 18.774,36.12421 19.730589,35.311999 19.882961,35.253333 20.035332,35.194665 20.16,34.868761 20.16,34.5291 c 0,-0.420112 -0.781786,-1.116298 -2.445164,-2.177434 -2.103711,-1.342043 -2.349749,-1.590153 -1.761894,-1.776731 1.316033,-0.417693 1.657722,-1.065497 1.496865,-2.83789 -0.526903,-5.805654 -0.537649,-5.577441 0.255477,-5.425825 0.599536,0.114608 0.879672,-0.143956 1.610233,-1.486237 0.486435,-0.893741 0.928304,-1.624984 0.981931,-1.624984 0.05363,0 0.476388,0.572532 0.939468,1.272293 0.762368,1.152015 0.919615,1.24277 1.663356,0.96 0.451765,-0.171761 0.884017,-0.312293 0.96056,-0.312293 0.07654,0 0.139168,1.018559 0.139168,2.263464 0,1.981761 0.0697,2.250587 0.56,2.16 0.308,-0.05691 1.349803,-1.31391 2.315118,-2.793344 l 1.755119,-2.689881 0.27667,1.169881 c 0.330314,1.396711 0.82866,1.474104 3.522997,0.547116 0.995552,-0.34252 1.810096,-0.581064 1.810096,-0.530096 0,0.05097 -0.288,0.929755 -0.64,1.95286 -0.695411,2.021244 -0.809629,3.04 -0.340832,3.04 0.164544,0 0.685507,0.146886 1.157699,0.326414 0.842576,0.320346 0.806992,0.3598 -1.914413,2.122678 -3.493043,2.262734 -3.582557,2.882557 -0.392937,2.720867 l 2.170755,-0.110042 -0.214022,1.140838 c -0.19913,1.061447 -0.133722,1.188221 0.939862,1.821651 0.63464,0.374445 1.153472,0.774586 1.152963,0.889204 -6.4e-4,0.114614 -0.684512,0.568556 -1.52,1.008761 -1.142608,0.602019 -1.512928,0.977309 -1.494275,1.51433 0.02467,0.710448 0.0063,0.712966 -3.727263,0.512214 l -3.752062,-0.201747 -0.520955,1.007414 c -0.286525,0.55408 -0.553257,1.001543 -0.592738,0.994359 -0.03948,-0.0072 -0.703132,-1.027127 -1.474782,-2.266544 z m 30.363,2.919603 c 0.614083,-0.614083 0.64,-1.066666 0.64,-11.176774 V 18.926451 L 53.236845,18.263225 C 52.77311,17.898451 52.07416,17.6 51.683622,17.6 c -0.39054,0 -1.99112,0.876457 -3.556848,1.947682 -1.565724,1.071226 -3.528185,2.403226 -4.361024,2.96 l -1.514252,1.012317 -0.0058,5.981992 -0.0058,5.981992 4.221113,2.898006 c 4.569312,3.137047 5.725719,3.5112 6.978909,2.25801 z"
         id="path311" />
    </g>
  </g>
</svg>
