<?xml version="1.0" encoding="UTF-8" standalone="no"?>
<svg
   version="1.1"
   id="svg4"
   width="117.93751"
   height="9.3574219"
   xmlns="http://www.w3.org/2000/svg"
   xmlns:svg="http://www.w3.org/2000/svg">
  <defs
     id="defs8" />
  <g
     aria-label="Plant-for-the-Planet"
     id="text2"
     transform="translate(-1.171875,9.1757813)">
    <path
       d="m 6.8789062,-6.0878906 q 0,0.5800781 -0.2050781,1.078125 -0.1992187,0.4921875 -0.5625,0.8554687 -0.4511719,0.4511719 -1.0664062,0.6796875 -0.6152344,0.2226563 -1.5527344,0.2226563 H 2.3320313 V 0 H 1.171875 v -8.7246094 h 2.3671875 q 0.7851562,0 1.3300781,0.1347656 0.5449219,0.1289063 0.9667969,0.4101563 0.4980469,0.3339844 0.7675781,0.8320313 0.2753906,0.4980468 0.2753906,1.2597656 z m -1.2070312,0.029297 q 0,-0.4511719 -0.1582031,-0.7851563 Q 5.3554687,-7.1777344 5.0332031,-7.3886719 4.7519531,-7.5703125 4.3886719,-7.6464844 4.03125,-7.7285156 3.4804688,-7.7285156 H 2.3320313 v 3.4863281 h 0.9785156 q 0.703125,0 1.1425781,-0.1230469 0.4394531,-0.1289062 0.7148437,-0.4042968 0.2753907,-0.28125 0.3867188,-0.5917969 Q 5.671875,-5.671875 5.671875,-6.0585936 Z"
       id="path10" />
    <path
       d="M 9.4335938,0 H 8.3320313 v -9.1171875 h 1.1015625 z"
       id="path12" />
    <path
       d="m 16.699219,0 h -1.095703 v -0.69726562 q -0.146485,0.0996094 -0.398438,0.28124999 -0.246094,0.17578125 -0.480469,0.28125001 Q 14.449219,0 14.091797,0.08789062 q -0.357422,0.09375 -0.837891,0.09375 -0.884765,0 -1.5,-0.5859375 -0.615234,-0.5859375 -0.615234,-1.49414062 0,-0.7441406 0.316406,-1.2011719 0.322266,-0.4628906 0.914063,-0.7265625 0.597656,-0.2636718 1.435547,-0.3574218 0.83789,-0.09375 1.798828,-0.140625 v -0.1699219 q 0,-0.375 -0.134766,-0.6210938 -0.128906,-0.2460937 -0.375,-0.3867187 -0.234375,-0.1347656 -0.5625,-0.1816406 -0.328125,-0.046875 -0.685547,-0.046875 -0.433594,0 -0.966797,0.1171875 -0.533203,0.1113281 -1.101562,0.328125 h -0.05859 v -1.1191407 q 0.322266,-0.087891 0.931641,-0.1933593 0.609375,-0.1054688 1.201172,-0.1054688 0.691406,0 1.201171,0.1171875 0.515625,0.1113281 0.890625,0.3867188 0.369141,0.2695312 0.5625,0.6972656 0.19336,0.4277344 0.19336,1.0605469 z m -1.095703,-1.6113281 v -1.8222657 q -0.503907,0.029297 -1.189453,0.087891 -0.679688,0.058594 -1.078125,0.1699218 -0.47461,0.1347657 -0.767579,0.421875 -0.292968,0.28125 -0.292968,0.7792969 0,0.5625 0.339843,0.8496094 0.339844,0.28125 1.03711,0.28125 0.580078,0 1.060547,-0.2226562 0.480468,-0.2285157 0.890625,-0.5449222 z"
       id="path14" />
    <path
       d="m 24.292969,0 h -1.101563 v -3.7265625 q 0,-0.4511719 -0.05273,-0.84375 -0.05273,-0.3984375 -0.19336,-0.6210937 -0.146484,-0.2460938 -0.421875,-0.3632813 -0.27539,-0.1230469 -0.714843,-0.1230469 -0.451172,0 -0.94336,0.2226563 -0.492187,0.2226562 -0.943359,0.5683594 V 0 h -1.101563 v -6.5449219 h 1.101563 v 0.7265625 q 0.515625,-0.4277343 1.066406,-0.6679687 0.550781,-0.2402344 1.13086,-0.2402344 1.060546,0 1.617187,0.6386719 0.556641,0.6386719 0.556641,1.8398437 z"
       id="path16" />
    <path
       d="m 29.8125,-0.05859375 q -0.310547,0.08203125 -0.679688,0.13476562 -0.363281,0.05273438 -0.65039,0.05273438 -1.001953,0 -1.523438,-0.5390625 Q 26.4375,-0.94921875 26.4375,-2.1386719 V -5.6191406 H 25.693359 V -6.5449219 H 26.4375 v -1.8808594 h 1.101562 v 1.8808594 H 29.8125 v 0.9257813 h -2.273438 v 2.9824218 q 0,0.515625 0.02344,0.8085938 0.02344,0.2871094 0.164062,0.5390625 0.128907,0.234375 0.351563,0.34570312 0.228516,0.10546875 0.691406,0.10546875 0.269531,0 0.5625,-0.0761719 0.292969,-0.0820313 0.421875,-0.13476557 h 0.05859 z"
       id="path18" />
    <path
       d="m 34.376953,-3.2871094 h -3.65625 v -1.0605468 h 3.65625 z"
       id="path20" />
    <path
       d="m 39.878906,-8.0507813 h -0.05859 q -0.18164,-0.052734 -0.474609,-0.1054687 -0.292969,-0.058594 -0.515625,-0.058594 -0.708984,0 -1.03125,0.3164063 -0.316406,0.3105469 -0.316406,1.1308594 v 0.2226562 h 1.986328 v 0.9257813 H 37.517578 V 0 h -1.101562 v -5.6191406 h -0.744141 v -0.9257813 h 0.744141 v -0.2167968 q 0,-1.1660157 0.580078,-1.7871094 0.580078,-0.6269532 1.675781,-0.6269532 0.369141,0 0.662109,0.035156 0.298828,0.035156 0.544922,0.082031 z"
       id="path22" />
    <path
       d="m 46.154297,-3.2695313 q 0,1.5996094 -0.820313,2.52539068 -0.820312,0.92578124 -2.197265,0.92578124 -1.388672,0 -2.208985,-0.92578124 -0.814453,-0.92578128 -0.814453,-2.52539068 0,-1.5996093 0.814453,-2.5253906 0.820313,-0.9316406 2.208985,-0.9316406 1.376953,0 2.197265,0.9316406 0.820313,0.9257813 0.820313,2.5253906 z m -1.136719,0 q 0,-1.2714843 -0.498047,-1.8867187 -0.498047,-0.6210937 -1.382812,-0.6210937 -0.896485,0 -1.394532,0.6210937 Q 41.25,-4.5410156 41.25,-3.2695313 q 0,1.2304688 0.498047,1.8691407 0.498047,0.63281248 1.388672,0.63281248 0.878906,0 1.376953,-0.62695308 0.503906,-0.6328126 0.503906,-1.8750001 z"
       id="path24" />
    <path
       d="m 51.943359,-5.34375 h -0.05859 q -0.246094,-0.058594 -0.480469,-0.082031 -0.228516,-0.029297 -0.544922,-0.029297 -0.509766,0 -0.984375,0.2285156 -0.474609,0.2226563 -0.914063,0.5800781 V 0 h -1.101562 v -6.5449219 h 1.101562 v 0.9667969 q 0.65625,-0.5273437 1.154297,-0.7441406 0.503907,-0.2226563 1.025391,-0.2226563 0.287109,0 0.416016,0.017578 0.128906,0.011719 0.386718,0.052734 z"
       id="path26" />
    <path
       d="m 56.332031,-3.2871094 h -3.65625 v -1.0605468 h 3.65625 z"
       id="path28" />
    <path
       d="m 61.710937,-0.05859375 q -0.310546,0.08203125 -0.679687,0.13476562 -0.363281,0.05273438 -0.650391,0.05273438 -1.001953,0 -1.523437,-0.5390625 -0.521485,-0.5390625 -0.521485,-1.72851565 v -3.4804687 h -0.74414 v -0.9257813 h 0.74414 V -8.4257813 H 59.4375 v 1.8808594 h 2.273437 v 0.9257813 H 59.4375 v 2.9824218 q 0,0.515625 0.02344,0.8085938 0.02344,0.2871094 0.164063,0.5390625 0.128906,0.234375 0.351562,0.34570312 0.228516,0.10546875 0.691407,0.10546875 0.269531,0 0.5625,-0.0761719 0.292968,-0.0820313 0.421875,-0.13476557 h 0.05859 z"
       id="path30" />
    <path
       d="m 68.513672,0 h -1.101563 v -3.7265625 q 0,-0.4511719 -0.05273,-0.84375 Q 67.306641,-4.96875 67.166016,-5.1914062 67.019531,-5.4375 66.744141,-5.5546875 66.46875,-5.6777344 66.029297,-5.6777344 q -0.451172,0 -0.94336,0.2226563 -0.492187,0.2226562 -0.943359,0.5683594 V 0 h -1.101562 v -9.1171875 h 1.101562 v 3.2988281 q 0.515625,-0.4277343 1.066406,-0.6679687 0.550782,-0.2402344 1.13086,-0.2402344 1.060547,0 1.617187,0.6386719 0.556641,0.6386719 0.556641,1.8398437 z"
       id="path32" />
    <path
       d="m 76.113281,-3.1582031 h -4.822265 q 0,0.6035156 0.18164,1.0546875 0.181641,0.4453125 0.498047,0.7324219 0.304688,0.28125 0.720703,0.42187495 0.421875,0.140625 0.925781,0.140625 0.667969,0 1.341797,-0.26367185 0.679688,-0.2695313 0.966797,-0.5273438 h 0.05859 v 1.2011719 q -0.556641,0.234375 -1.136719,0.39257812 -0.580078,0.15820313 -1.21875,0.15820313 -1.628906,0 -2.542969,-0.87890625 -0.914062,-0.8847656 -0.914062,-2.5078125 0,-1.6054687 0.873047,-2.5488281 0.878906,-0.9433594 2.308594,-0.9433594 1.324218,0 2.039062,0.7734375 0.720703,0.7734375 0.720703,2.1972656 z m -1.072265,-0.84375 q -0.0059,-0.8671875 -0.439454,-1.3417969 -0.427734,-0.4746094 -1.30664,-0.4746094 -0.884766,0 -1.41211,0.5214844 -0.521484,0.5214844 -0.591796,1.2949219 z"
       id="path34" />
    <path
       d="m 81.251953,-3.2871094 h -3.65625 v -1.0605468 h 3.65625 z"
       id="path36" />
    <path
       d="m 89.027344,-6.0878906 q 0,0.5800781 -0.205078,1.078125 -0.199219,0.4921875 -0.5625,0.8554687 -0.451172,0.4511719 -1.066407,0.6796875 -0.615234,0.2226563 -1.552734,0.2226563 H 84.480469 V 0 H 83.320312 V -8.7246094 H 85.6875 q 0.785156,0 1.330078,0.1347656 0.544922,0.1289063 0.966797,0.4101563 0.498047,0.3339844 0.767578,0.8320313 0.275391,0.4980468 0.275391,1.2597656 z m -1.207032,0.029297 q 0,-0.4511719 -0.158203,-0.7851563 -0.158203,-0.3339844 -0.480468,-0.5449219 -0.28125,-0.1816406 -0.644532,-0.2578125 -0.357422,-0.082031 -0.908203,-0.082031 h -1.148437 v 3.4863281 h 0.978515 q 0.703125,0 1.142578,-0.1230469 0.439454,-0.1289062 0.714844,-0.4042968 0.275391,-0.28125 0.386719,-0.5917969 0.117187,-0.3105469 0.117187,-0.6972658 z"
       id="path38" />
    <path
       d="m 91.582031,0 h -1.101562 v -9.1171875 h 1.101562 z"
       id="path40" />
    <path
       d="m 98.847656,0 h -1.095703 v -0.69726562 q -0.146484,0.0996094 -0.398437,0.28124999 -0.246094,0.17578125 -0.480469,0.28125001 Q 96.597656,0 96.240234,0.08789062 q -0.357422,0.09375 -0.83789,0.09375 -0.884766,0 -1.5,-0.5859375 -0.615235,-0.5859375 -0.615235,-1.49414062 0,-0.7441406 0.316407,-1.2011719 0.322265,-0.4628906 0.914062,-0.7265625 0.597656,-0.2636718 1.435547,-0.3574218 0.837891,-0.09375 1.798828,-0.140625 v -0.1699219 q 0,-0.375 -0.134766,-0.6210938 -0.128906,-0.2460937 -0.375,-0.3867187 -0.234375,-0.1347656 -0.5625,-0.1816406 -0.328125,-0.046875 -0.685546,-0.046875 -0.433594,0 -0.966797,0.1171875 -0.533203,0.1113281 -1.101563,0.328125 h -0.05859 v -1.1191407 q 0.322266,-0.087891 0.931641,-0.1933593 Q 95.408203,-6.703125 96,-6.703125 q 0.691406,0 1.201172,0.1171875 0.515625,0.1113281 0.890625,0.3867188 0.36914,0.2695312 0.5625,0.6972656 0.193359,0.4277344 0.193359,1.0605469 z m -1.095703,-1.6113281 v -1.8222657 q -0.503906,0.029297 -1.189453,0.087891 -0.679688,0.058594 -1.078125,0.1699218 -0.474609,0.1347657 -0.767578,0.421875 -0.292969,0.28125 -0.292969,0.7792969 0,0.5625 0.339844,0.8496094 0.339844,0.28125 1.037109,0.28125 0.580078,0 1.060547,-0.2226562 0.480469,-0.2285157 0.890625,-0.5449222 z"
       id="path42" />
    <path
       d="m 106.44141,0 h -1.10157 v -3.7265625 q 0,-0.4511719 -0.0527,-0.84375 -0.0527,-0.3984375 -0.19336,-0.6210937 -0.14648,-0.2460938 -0.42187,-0.3632813 -0.2754,-0.1230469 -0.71485,-0.1230469 -0.45117,0 -0.94336,0.2226563 -0.49219,0.2226562 -0.94336,0.5683594 V 0 h -1.10156 v -6.5449219 h 1.10156 v 0.7265625 q 0.51563,-0.4277343 1.06641,-0.6679687 0.55078,-0.2402344 1.13086,-0.2402344 1.06055,0 1.61719,0.6386719 0.55664,0.6386719 0.55664,1.8398437 z"
       id="path44" />
    <path
       d="m 114.04102,-3.1582031 h -4.82227 q 0,0.6035156 0.18164,1.0546875 0.18164,0.4453125 0.49805,0.7324219 0.30469,0.28125 0.7207,0.42187495 0.42188,0.140625 0.92578,0.140625 0.66797,0 1.3418,-0.26367185 0.67969,-0.2695313 0.9668,-0.5273438 h 0.0586 v 1.2011719 q -0.55664,0.234375 -1.13672,0.39257812 -0.58008,0.15820313 -1.21875,0.15820313 -1.62891,0 -2.54297,-0.87890625 -0.91406,-0.8847656 -0.91406,-2.5078125 0,-1.6054687 0.87305,-2.5488281 0.8789,-0.9433594 2.30859,-0.9433594 1.32422,0 2.03906,0.7734375 0.72071,0.7734375 0.72071,2.1972656 z m -1.07227,-0.84375 q -0.006,-0.8671875 -0.43945,-1.3417969 -0.42774,-0.4746094 -1.30664,-0.4746094 -0.88477,0 -1.41211,0.5214844 -0.52149,0.5214844 -0.5918,1.2949219 z"
       id="path46" />
    <path
       d="m 119.10938,-0.05859375 q -0.31055,0.08203125 -0.67969,0.13476562 -0.36328,0.05273438 -0.65039,0.05273438 -1.00196,0 -1.52344,-0.5390625 -0.52148,-0.5390625 -0.52148,-1.72851565 v -3.4804687 h -0.74415 v -0.9257813 h 0.74415 v -1.8808594 h 1.10156 v 1.8808594 h 2.27344 v 0.9257813 h -2.27344 v 2.9824218 q 0,0.515625 0.0234,0.8085938 0.0234,0.2871094 0.16406,0.5390625 0.1289,0.234375 0.35156,0.34570312 0.22852,0.10546875 0.69141,0.10546875 0.26953,0 0.5625,-0.0761719 0.29297,-0.0820313 0.42187,-0.13476557 h 0.0586 z"
       id="path48" />
  </g>
</svg>
