<?xml version="1.0" encoding="UTF-8" standalone="no"?>
<svg width="302px" height="302px" viewBox="0 0 302 302" version="1.1" xmlns="http://www.w3.org/2000/svg" xmlns:xlink="http://www.w3.org/1999/xlink">
    <!-- Generator: Sketch 41.2 (35397) - http://www.bohemiancoding.com/sketch -->
    <title>podaac_svg</title>
    <desc>Created with Sketch.</desc>
    <defs></defs>
    <g id="Page-1" stroke="none" stroke-width="1" fill="none" fill-rule="evenodd">
        <g id="podaac_svg">
            <g id="Group">
                <circle id="Oval" fill="#20429A" cx="151" cy="151" r="151"></circle>
                <circle id="Oval" fill="#FFFFFF" cx="151" cy="151" r="146"></circle>
                <circle id="Oval" fill="#233F9B" cx="151" cy="151" r="142"></circle>
            </g>
            <g id="Group-4" transform="translate(19.000000, 107.000000)">
                <g id="Group-3" transform="translate(0.000000, 20.000000)" fill="#FFFFFF">
                    <path d="M0.00544583366,22 C0.271345424,9.80449468 10.2406915,0 22.5,0 C34.9264069,0 45,10.0735931 45,22.5 C45,34.9264069 34.9264069,45 22.5,45 C18.7077249,45 15.1345768,44.0618054 12,42.4048602 L12,64 L0,64 L0,22 L0.00544583366,22 Z M23,34 C29.0751322,34 34,29.0751322 34,23 C34,16.9248678 29.0751322,12 23,12 C16.9248678,12 12,16.9248678 12,23 C12,29.0751322 16.9248678,34 23,34 Z" id="Combined-Shape"></path>
                    <path d="M67.5,45 C79.9264069,45 90,34.9264069 90,22.5 C90,10.0735931 79.9264069,0 67.5,0 C55.0735931,0 45,10.0735931 45,22.5 C45,34.9264069 55.0735931,45 67.5,45 Z M68,34 C74.0751322,34 79,29.0751322 79,23 C79,16.9248678 74.0751322,12 68,12 C61.9248678,12 57,16.9248678 57,23 C57,29.0751322 61.9248678,34 68,34 Z" id="Combined-Shape"></path>
                </g>
                <g id="Group-2" transform="translate(90.000000, 0.000000)" fill="#5FA9FE">
                    <path d="M79,61.843124 C75.6346829,63.8482077 71.7018492,65 67.5,65 C55.0735931,65 45,54.9264069 45,42.5 C45,30.0735931 55.0735931,20 67.5,20 C79.7593085,20 89.7286546,29.8044947 89.9945542,42 L90,42 L90,65 L79,65 L79,61.843124 Z M68,54 C74.0751322,54 79,49.0751322 79,43 C79,36.9248678 74.0751322,32 68,32 C61.9248678,32 57,36.9248678 57,43 C57,49.0751322 61.9248678,54 68,54 Z" id="Combined-Shape"></path>
                    <path d="M179.046859,49 C176.258043,58.2573471 167.666437,65 157.5,65 C145.073593,65 135,54.9264069 135,42.5 C135,30.0735931 145.073593,20 157.5,20 C168.385311,20 177.465202,27.7299186 179.549918,38 L167.800581,38 C165.97987,34.4383241 162.274685,32 158,32 C151.924868,32 147,36.9248678 147,43 C147,49.0751322 151.924868,54 158,54 C161.861554,54 165.258368,52.0102093 167.221069,49 L179.046859,49 Z" id="Combined-Shape"></path>
                    <path d="M124,61.843124 C120.634683,63.8482077 116.701849,65 112.5,65 C100.073593,65 90,54.9264069 90,42.5 C90,30.0735931 100.073593,20 112.5,20 C124.759309,20 134.728655,29.8044947 134.994554,42 L135,42 L135,65 L124,65 L124,61.843124 Z M113,54 C119.075132,54 124,49.0751322 124,43 C124,36.9248678 119.075132,32 113,32 C106.924868,32 102,36.9248678 102,43 C102,49.0751322 106.924868,54 113,54 Z" id="Combined-Shape"></path>
                    <path d="M0.00544583366,22 C0.271345424,9.80449468 10.2406915,0 22.5,0 C34.9264069,0 45,10.0735931 45,22.5 C45,34.9264069 34.9264069,45 22.5,45 C18.7077249,45 15.1345768,44.0618054 12,42.4048602 L12,64 L0,64 L0,22 L0.00544583366,22 Z M23,34 C29.0751322,34 34,29.0751322 34,23 C34,16.9248678 29.0751322,12 23,12 C16.9248678,12 12,16.9248678 12,23 C12,29.0751322 16.9248678,34 23,34 Z" id="Combined-Shape" transform="translate(22.500000, 32.000000) rotate(-180.000000) translate(-22.500000, -32.000000) "></path>
                </g>
            </g>
            <g id="Group-5" transform="translate(21.000000, 43.000000)" fill="#FFFFFF">
                <path d="M73,17 C118,4 163,11 163,11 L163,8 L175,8 C175,8 170,6 165,5 C148.167237,2.19453952 118,-3 76,10 C23.6785312,26.1947403 0,55 0,55 C0,55 28,30 73,17 Z" id="Path-2"></path>
                <path d="M191.428571,12.4285714 L192,17 L168,20 L168,11 L191,9 L191.371407,11.971255 L191.375,12 L195,12 L197,6 L199,2 L201,1 L207,0 L207,3 L205,4 L207,7 L219,7 L222,12 L208,13 L207,12 L206,13 L206,16 L204,15 L201,19 L196,19 L194,17 L194,13 L192,13 L191.428571,12.4285714 Z" id="Path-3"></path>
                <path d="M230,30 C225,27 206,18 206,18 L202,21 C202,21 218.171095,27.5628645 233,36 C247.828905,44.4371355 260,54 260,54 C260,54 255.477387,48.2837014 248,42 C242.927749,37.73748 236.062626,33.2334007 230,30 Z" id="Path-4"></path>
            </g>
            <g id="Group-6" transform="translate(26.000000, 192.000000)">
                <path d="M-7.10542736e-15,14 C-7.10542736e-15,14 38,-3 70,1 C102,5 146,39 181,39 C216,39 252,13 252,13 C252,13 235,29 217,38 C199,47 174,47 174,47 C174,47 185,50 206,46 C227,42 243,29 243,29 C243,29 215,54 187,55 C159,56 138,43 138,43 C138,43 104,24 78,26 C52,28 19,45 19,45 C19,45 12.1039549,36.0643475 9,31 C5.89604508,25.9356525 -7.10542736e-15,14 -7.10542736e-15,14 Z" id="Path-5" fill="#FFFFFF"></path>
                <path d="M35,42 C35,42 56,40 77,45 C85.8494356,47.1070085 93.3110532,50.2122101 101,54 C108.688947,57.7877899 123,65 123,65 C123,65 140,74 164,72 C188,70 200,58 200,58 C200,58 181,63 167,60 C153,57 140,52 135,49 C130,46 108.609391,34.30966 87,33 C65.3906093,31.69034 35,42 35,42 Z" id="Path-6" fill="#5FA9FE"></path>
            </g>
        </g>
    </g>
</svg>