<?xml version="1.0" encoding="UTF-8" standalone="no"?>
<svg
   width="345.00043"
   height="410.90741"
   overflow="hidden"
   version="1.1"
   id="svg4463"
   sodipodi:docname="Power Station Dictionary.svg"
   inkscape:version="1.2.2 (b0a84865, 2022-12-01)"
   xmlns:inkscape="http://www.inkscape.org/namespaces/inkscape"
   xmlns:sodipodi="http://sodipodi.sourceforge.net/DTD/sodipodi-0.dtd"
   xmlns="http://www.w3.org/2000/svg"
   xmlns:svg="http://www.w3.org/2000/svg">
  <sodipodi:namedview
     id="namedview4465"
     pagecolor="#ffffff"
     bordercolor="#666666"
     borderopacity="1.0"
     inkscape:showpageshadow="2"
     inkscape:pageopacity="0.0"
     inkscape:pagecheckerboard="0"
     inkscape:deskcolor="#d1d1d1"
     showgrid="false"
     inkscape:zoom="0.74683544"
     inkscape:cx="-12.050848"
     inkscape:cy="164.69492"
     inkscape:window-width="1491"
     inkscape:window-height="910"
     inkscape:window-x="0"
     inkscape:window-y="25"
     inkscape:window-maximized="0"
     inkscape:current-layer="svg4463" />
  <defs
     id="defs4431">
    <clipPath
       id="clip0">
      <path
         d="m 621,174 h 380 V 490 H 621 Z"
         fill-rule="evenodd"
         clip-rule="evenodd"
         id="path4412" />
    </clipPath>
    <clipPath
       id="clip2">
      <path
         d="M 0,0 H 167.571 V 145 H 0 Z"
         fill-rule="evenodd"
         clip-rule="evenodd"
         id="path4416" />
    </clipPath>
    <clipPath
       id="clip3">
      <path
         d="m 778,175 h 223 V 398 H 778 Z"
         fill-rule="evenodd"
         clip-rule="evenodd"
         id="path4419" />
    </clipPath>
    <clipPath
       id="clip4">
      <path
         d="m 778,175 h 223 V 398 H 778 Z"
         fill-rule="evenodd"
         clip-rule="evenodd"
         id="path4422" />
    </clipPath>
    <clipPath
       id="clip5">
      <path
         d="m 778,175 h 223 V 398 H 778 Z"
         fill-rule="evenodd"
         clip-rule="evenodd"
         id="path4425" />
    </clipPath>
    <clipPath
       id="clip6">
      <path
         d="m 778,175 h 223 V 398 H 778 Z"
         fill-rule="evenodd"
         clip-rule="evenodd"
         id="path4428" />
    </clipPath>
  </defs>
  <g
     clip-path="url(#clip0)"
     transform="translate(-621,-175.8677)"
     id="g4461">
    <path
       d="m 681.235,340.351 c 27.571,-4.935 55.141,-9.87 68.09,-18.288 12.949,-8.419 10.621,-23.079 9.603,-32.223 -1.019,-9.144 -7.42,-17.708 -15.713,-22.643 -8.293,-4.935 -20.66,-5.806 -34.045,-6.967 -13.386,-1.161 -35.5,3.339 -46.267,0 -10.766,-3.338 -15.276,-12.047 -18.332,-20.03 -3.055,-7.983 -3.782,-20.321 0,-27.868 3.783,-7.548 8.439,-12.047 22.697,-17.418 14.258,-5.37 44.084,-16.111 62.852,-14.805 18.769,1.306 36.955,9.58 49.758,22.643 12.803,13.063 20.951,35.126 27.062,55.736 6.11,20.611 9.311,38.61 9.602,67.929 0.291,29.32 -7.42,85.056 -7.857,107.99 -0.436,22.933 0.292,22.352 5.238,29.61 4.947,7.257 16.15,10.45 24.443,13.934 8.293,3.483 11.202,7.692 25.315,6.967 14.113,-0.726 43.647,-4.79 59.36,-11.322 15.713,-6.531 28.953,-16.401 34.918,-27.868 5.966,-11.467 4.51,-34.4 0.873,-40.931 -3.637,-6.532 -16.731,-1.452 -22.696,1.741 -5.966,3.194 -6.402,13.789 -13.095,17.418 -6.692,3.629 -21.241,5.08 -27.061,4.354 -5.819,-0.725 -6.402,-1.741 -7.856,-8.708 -1.455,-6.967 0,-25.691 -0.873,-33.094"
       stroke="#000000"
       stroke-width="8"
       stroke-miterlimit="8"
       fill="none"
       fill-rule="evenodd"
       id="path4433"
       style="display:inline" />
    <path
       d="m 681.235,340.351 c 27.571,-4.935 55.141,-9.87 68.09,-18.288 12.949,-8.419 10.621,-23.079 9.603,-32.223 -1.019,-9.144 -7.42,-17.708 -15.713,-22.643 -8.293,-4.935 -20.66,-5.806 -34.045,-6.967 -13.386,-1.161 -35.5,3.339 -46.267,0 -10.766,-3.338 -15.276,-12.047 -18.332,-20.03 -3.055,-7.983 -3.782,-20.321 0,-27.868 3.783,-7.548 8.439,-12.047 22.697,-17.418 14.258,-5.37 44.084,-16.111 62.852,-14.805 18.769,1.306 36.955,9.58 49.758,22.643 12.803,13.063 20.951,35.126 27.062,55.736 6.11,20.611 9.311,38.61 9.602,67.929 0.291,29.32 -7.42,85.056 -7.857,107.99 -0.436,22.933 0.292,22.352 5.238,29.61 4.947,7.257 16.15,10.45 24.443,13.934 8.293,3.483 11.202,7.692 25.315,6.967 14.113,-0.726 43.647,-4.79 59.36,-11.322 15.713,-6.531 28.953,-16.401 34.918,-27.868 5.966,-11.467 4.51,-34.4 0.873,-40.931 -3.637,-6.532 -16.731,-1.452 -22.696,1.741 -5.966,3.194 -6.402,13.789 -13.095,17.418 -6.692,3.629 -21.241,5.08 -27.061,4.354 -5.819,-0.725 -6.402,-1.741 -7.856,-8.708 -1.455,-6.967 0,-25.691 -0.873,-33.094"
       stroke="#ffff00"
       stroke-width="6"
       stroke-miterlimit="8"
       stroke-dasharray="24, 18"
       fill="none"
       fill-rule="evenodd"
       id="path4435"
       style="display:inline" />
    <g
       clip-path="url(#clip2)"
       transform="matrix(1.00853,0,0,1,621,335)"
       id="g4439">
      <g
         id="g4833">
        <path
           style="fill:#d1d1d1;stroke-width:0.674859"
           d="m 36.959192,141.10094 c -1.949936,-1.74227 -2.20394,-2.37087 -2.20394,-5.45423 0,-3.08337 0.254004,-3.71196 2.20394,-5.45423 l 2.203939,-1.96922 h 12.13682 12.13682 v -9.1106 -9.1106 H 34.012907 4.589043 L 2.2945215,107.70754 0,105.41301 V 55.001028 4.5890429 L 2.2945215,2.2945214 4.589043,0 h 78.081217 78.08122 l 2.29452,2.2945214 2.29452,2.2945215 V 55.001028 105.41301 l -2.29452,2.29453 -2.29452,2.29452 h -29.42387 -29.42386 v 9.1106 9.1106 h 12.13682 12.13682 l 2.20394,1.96922 c 1.94993,1.74227 2.20394,2.37086 2.20394,5.45423 0,3.08336 -0.25401,3.71196 -2.20394,5.45423 l -2.20394,1.96922 H 82.67026 39.163131 Z M 153.19305,55.001028 V 12.147466 H 82.67026 12.147467 V 55.001028 97.854591 H 82.67026 153.19305 Z M 71.454868,85.027737 c -0.600881,-0.351089 -1.437247,-1.480682 -1.858603,-2.5102 -0.678388,-1.657562 0.239535,-4.99406 8.018172,-29.144579 4.831345,-14.999996 9.105174,-27.659394 9.497396,-28.131994 2.174842,-2.620525 7.408429,-1.354077 8.726065,2.111575 0.868348,2.283926 -16.121146,55.394092 -18.289347,57.173581 -1.564574,1.284082 -4.36061,1.514243 -6.093683,0.501617 z M 50.356829,65.674142 C 38.290582,60.062011 36.146866,58.839705 35.445688,57.172094 34.465312,54.840467 34.824494,52.403773 36.344639,51.0736 38.010453,49.615963 63.802626,37.792118 65.316456,37.792118 c 0.721924,0 2.112761,0.629415 3.090748,1.3987 1.969226,1.548994 2.424769,4.906767 0.934586,6.888759 -0.463966,0.617088 -4.487815,2.846839 -8.941886,4.955003 l -8.098311,3.833023 8.2207,3.90496 c 4.606387,2.188104 8.537777,4.497421 8.941889,5.252505 1.066163,1.992156 0.87758,4.476216 -0.459822,6.05675 -2.396385,2.83204 -3.790328,2.50256 -18.647531,-4.407676 z m 46.530212,4.954737 c -1.833471,-1.833471 -2.218235,-4.347506 -1.010703,-6.603811 0.404112,-0.755084 4.335502,-3.064401 8.941882,-5.252505 l 8.22071,-3.90496 -8.09831,-3.833023 c -4.45408,-2.108164 -8.477924,-4.337915 -8.94189,-4.955003 -1.490183,-1.981992 -1.03464,-5.339765 0.934586,-6.888759 0.977986,-0.769285 2.368824,-1.3987 3.090744,-1.3987 1.51383,0 27.306,11.823845 28.97182,13.281482 1.51743,1.327793 1.87978,3.765792 0.90446,6.0854 -0.69102,1.643437 -2.8331,2.877776 -14.23628,8.203419 -7.38259,3.447897 -14.23789,6.433028 -15.23401,6.633624 -1.353091,0.272481 -2.249122,-0.07328 -3.543009,-1.367164 z"
           id="path4847" />
        <path
           style="fill:#aeaeae;stroke-width:0.674859"
           d="m 37.997593,141.7502 c -4.293279,-2.61778 -4.480684,-8.9592 -0.360545,-12.2001 1.534148,-1.20676 2.77796,-1.32684 13.743267,-1.32684 h 12.056456 v -9.1106 -9.1106 H 34.721739 c -31.5039481,0 -31.6229015,-0.0142 -33.6980268,-4.02707 -1.54382875,-2.98544 -1.54382875,-98.9624891 0,-101.9479247 C 3.227237,-0.23408169 -1.5186413,0 82.67026,0 c 84.1889,0 79.44302,-0.23408169 81.64655,4.0270653 1.54382,2.9854356 1.54382,98.9624847 0,101.9479247 -2.07513,4.01285 -2.19408,4.02707 -33.69803,4.02707 h -28.71503 v 9.1106 9.1106 h 11.9973 c 13.11822,0 14.03564,0.2324 16.01321,4.0566 1.27895,2.47322 1.27489,4.26832 -0.0153,6.76323 -2.1386,4.13559 -0.86434,4.02731 -47.363924,4.02455 -40.816922,-0.003 -42.460517,-0.051 -44.537466,-1.31744 z M 153.19305,55.001028 V 12.147466 H 82.67026 12.147467 V 55.001028 97.854591 H 82.67026 153.19305 Z M 70.977858,84.145196 c -0.833776,-0.887514 -1.459471,-2.417325 -1.449092,-3.543011 0.01005,-1.089594 3.793897,-13.673019 8.408564,-27.963164 6.978045,-21.608786 8.69484,-26.245965 10.1996,-27.549838 3.027277,-2.623131 7.693086,-0.503963 7.693086,3.494131 0,3.499969 -16.740903,54.593425 -18.329806,55.942806 -1.941178,1.648547 -4.771025,1.483274 -6.522352,-0.380924 z M 51.289304,66.033382 c -7.237865,-3.371473 -13.843051,-6.754476 -14.678189,-7.517786 -1.700239,-1.554004 -2.037243,-4.923869 -0.674859,-6.748228 1.021817,-1.368309 27.730371,-13.97525 29.607398,-13.97525 1.990174,0 4.64171,2.999333 4.64171,5.250561 0,2.734082 -1.890646,4.212393 -10.685814,8.355334 l -7.648947,3.603015 7.986377,3.613326 c 4.392507,1.987329 8.517828,4.222701 9.16738,4.967493 1.206385,1.38327 1.511172,3.60815 0.761795,5.560992 -0.3981,1.037421 -3.625323,3.093548 -4.777437,3.043797 -0.296812,-0.01281 -6.461548,-2.781783 -13.699414,-6.153254 z m 46.902719,5.397277 c -3.172979,-1.735488 -4.029234,-5.356769 -1.855863,-7.848812 0.649552,-0.744792 4.77487,-2.980164 9.16738,-4.967493 l 7.98638,-3.613326 -7.64895,-3.603015 c -8.795168,-4.142941 -10.685814,-5.621252 -10.685814,-8.355334 0,-2.251228 2.651536,-5.250561 4.641709,-5.250561 1.877025,0 28.585585,12.606941 29.607395,13.97525 1.36234,1.824291 1.02536,5.194182 -0.67486,6.748786 -1.42618,1.30404 -27.41647,13.717648 -28.62763,13.673263 -0.308016,-0.01127 -1.167402,-0.352729 -1.909747,-0.758758 z"
           id="path4845" />
        <path
           style="fill:#939393;stroke-width:0.674859"
           d="m 38.030408,141.77015 c -2.820201,-1.71965 -4.016475,-5.21681 -2.920489,-8.53768 1.462494,-4.4314 3.370118,-5.00381 16.68553,-5.00669 l 11.641322,-0.003 v -9.1106 -9.1106 H 34.721739 c -24.346954,0 -29.0161719,-0.15573 -30.6946736,-1.02372 C -0.14782972,106.81942 -0.00233195,108.78618 0.02391392,54.865827 0.04977964,1.7264556 -0.09862993,3.8553082 3.7572288,1.3135087 5.6842131,0.04323196 7.7577009,0.00877653 82.535059,0.00444679 166.87413,-4.36598e-4 162.11301,-0.23462339 164.31681,4.0270653 c 1.54382,2.9854356 1.54382,98.9624847 0,101.9479247 -2.07513,4.01285 -2.19408,4.02707 -33.69803,4.02707 h -28.71503 v 9.1106 9.1106 l 11.64132,0.003 c 13.31541,0.003 15.22304,0.57529 16.68553,5.00669 1.09599,3.32087 -0.10029,6.81802 -2.92048,8.53768 -2.03447,1.24053 -3.91068,1.29496 -44.63986,1.29496 -40.72918,0 -42.605393,-0.0545 -44.639852,-1.29496 z M 153.19305,55.001028 V 12.147466 H 82.67026 12.147467 V 55.001028 97.854591 H 82.67026 153.19305 Z M 71.288664,84.308424 c -1.153139,-0.907058 -1.77816,-2.053002 -1.77816,-3.26015 0,-2.667118 16.636739,-54.025667 17.982361,-55.512563 1.653378,-1.826965 5.93202,-1.674823 7.286597,0.259101 0.577801,0.824933 1.050554,2.227681 1.050554,3.117216 0,1.362517 -4.991563,17.34314 -14.95858,47.890274 -2.833552,8.684325 -5.464767,10.745346 -9.582772,7.506122 z M 50.432152,65.520752 c -6.966954,-3.271689 -13.268453,-6.492661 -14.00333,-7.157716 -1.418496,-1.28372 -1.761086,-4.343869 -0.706839,-6.313749 0.346117,-0.646723 6.997235,-4.132468 14.780265,-7.746098 15.02325,-6.975237 16.541771,-7.321352 18.686571,-4.259221 1.290824,1.842908 1.263924,3.814681 -0.07818,5.730798 -0.926757,1.323128 -6.476949,4.271222 -15.121902,8.032291 l -2.362007,1.027614 8.831301,4.201029 c 4.869934,2.316616 9.032264,4.724725 9.279317,5.368533 1.391289,3.625655 -0.830725,7.153219 -4.471007,7.097948 -1.262383,-0.01917 -7.454949,-2.516125 -14.834193,-5.981429 z m 46.099015,4.537358 c -1.39959,-1.502284 -1.735582,-3.549344 -0.927999,-5.653877 0.247053,-0.643808 4.409382,-3.051917 9.279312,-5.368533 l 8.83131,-4.201029 -2.36201,-1.027614 c -8.64496,-3.761069 -14.195146,-6.709163 -15.121903,-8.032291 -1.3421,-1.916117 -1.369,-3.88789 -0.07818,-5.730798 2.144797,-3.062131 3.663318,-2.716016 18.686573,4.259221 7.78303,3.61363 14.43415,7.099375 14.78027,7.746098 1.11168,2.077197 0.70805,5.007124 -0.88914,6.454188 -2.28755,2.072548 -26.52487,13.031605 -28.821011,13.031605 -1.189635,0 -2.559256,-0.598978 -3.377226,-1.47697 z"
           id="path4843" />
        <path
           style="fill:#5d5d5d;stroke-width:0.674859"
           d="m 38.402468,141.94683 c -2.416959,-1.50042 -3.389916,-3.27679 -3.431147,-6.26436 -0.04112,-2.97934 1.469962,-5.58485 3.874304,-6.68034 1.083207,-0.49354 6.024269,-0.77887 13.487722,-0.77887 H 64.11163 v -9.0902 -9.09019 L 34.430267,109.85375 4.7489035,109.66463 2.5431665,107.45836 0.33742963,105.25209 V 55.001028 4.7499708 L 2.5437003,2.5437003 4.749971,0.33742962 h 77.920289 77.92029 l 2.20627,2.20627068 2.20627,2.2062705 V 55.001028 105.25209 l -2.20574,2.20627 -2.20573,2.20627 -29.68137,0.18912 -29.68136,0.18912 v 9.09019 9.0902 h 11.84355 c 12.85802,0 14.73704,0.4166 16.46817,3.65123 1.95242,3.64814 0.79692,8.0298 -2.65537,10.06911 -1.7276,1.02053 -5.899,1.12487 -44.319104,1.1086 -37.806941,-0.016 -42.602203,-0.13602 -44.163668,-1.10537 z M 153.19305,55.001028 V 12.147466 H 82.67026 12.147467 v 42.853562 42.853563 h 70.522793 70.52279 z m -82.02607,29.04962 c -0.91106,-0.91106 -1.656476,-2.308842 -1.656476,-3.106181 0,-2.284021 16.882138,-54.15141 18.054261,-55.46853 2.402283,-2.699458 8.26743,-0.544033 8.263645,3.036866 -6.75e-4,0.835138 -3.804702,13.362213 -8.45293,27.837944 -6.769061,21.080538 -8.79123,26.62176 -10.15892,27.837944 -2.206499,1.962079 -3.990166,1.921378 -6.04958,-0.138043 z M 50.277015,65.394344 c -7.052279,-3.312609 -13.353777,-6.660297 -14.003329,-7.439309 -1.634554,-1.96033 -1.486356,-4.801538 0.337429,-6.469132 0.835138,-0.763616 7.563966,-4.190596 14.95295,-7.615511 13.373751,-6.198953 13.444438,-6.222388 15.627905,-5.181165 3.947611,1.882485 3.586959,7.552264 -0.584912,9.195268 -0.815726,0.321257 -4.520006,2.019523 -8.231732,3.773926 l -6.748592,3.189821 8.188596,3.899494 c 10.291946,4.90113 12.064713,7.076589 8.971334,11.009184 -1.01482,1.290136 -1.987215,1.76199 -3.543011,1.719252 -1.189118,-0.03266 -7.856078,-2.741846 -14.966638,-6.081828 z M 96.553856,69.75692 C 93.45686,65.819725 95.232934,63.644041 105.52519,58.767093 l 8.1886,-3.880137 -7.42346,-3.475931 c -9.391351,-4.397373 -9.266009,-4.321306 -10.395366,-6.308884 -1.39737,-2.459258 -0.481876,-5.108462 2.208734,-6.391524 l 2.238242,-1.067344 13.43451,6.227119 c 7.38899,3.424915 14.11782,6.851895 14.95295,7.615511 1.82377,1.66758 1.97206,4.509539 0.33743,6.466985 -1.5596,1.867609 -26.74679,13.582192 -29.202681,13.582192 -1.261319,0 -2.387389,-0.604883 -3.310293,-1.77816 z"
           id="path4841" />
        <path
           style="fill:#313131;stroke-width:0.674859"
           d="m 39.403762,142.41646 c -4.469636,-1.8301 -5.690872,-7.90248 -2.343338,-11.65183 l 1.967743,-2.20394 12.541731,-0.21045 12.541732,-0.21045 v -9.06887 -9.06886 l -28.850233,-0.003 C 7.8376637,109.99714 6.3043356,109.93188 4.2506338,108.67966 -0.18725321,105.97372 -2.6145656e-4,108.34248 0.00252266,54.865827 0.00499094,7.4559806 0.03441327,6.3629937 1.3670183,4.1772602 4.0476901,-0.21956714 -0.22580964,0 82.67026,0 c 82.89607,0 78.62257,-0.21956714 81.30324,4.1772602 1.33276,2.1859919 1.36197,3.2760135 1.36197,50.8237678 0,47.004152 -0.043,48.660372 -1.31735,50.750392 -2.60949,4.27972 -2.37637,4.25064 -34.0742,4.25064 h -28.71503 v 9.06886 9.06887 l 12.54173,0.21045 12.54174,0.21045 1.96774,2.20394 c 2.72191,3.04863 2.72145,6.71655 -0.001,9.76416 l -1.96896,2.20394 -42.740469,0.13364 c -23.507254,0.0735 -43.381814,-0.12896 -44.165687,-0.44991 z M 153.19305,55.001028 V 12.147466 H 82.67026 12.147467 V 55.001028 97.854591 H 82.67026 153.19305 Z M 73.059454,85.176233 c -1.634664,-0.255374 -3.54895,-2.50885 -3.54895,-4.177791 0,-1.010777 15.472316,-49.803094 16.97267,-53.523719 0.859933,-2.132475 2.440312,-3.17979 4.79825,-3.17979 1.821668,0 4.548592,2.546082 4.548592,4.246938 0,1.960306 -16.990318,54.078784 -18.008606,55.242114 -1.128446,1.28917 -2.623603,1.72631 -4.761956,1.392248 z M 50.614445,65.406631 c -7.237866,-3.360657 -13.691207,-6.730766 -14.340759,-7.489133 -0.649553,-0.758367 -1.181004,-2.070778 -1.181004,-2.91647 0,-0.845691 0.531451,-2.17764 1.181004,-2.959887 1.840197,-2.216124 26.918922,-13.689014 29.381605,-13.441349 2.860727,0.287694 4.893187,3.122402 4.088478,5.702266 -0.503735,1.614942 -1.936569,2.579406 -8.87656,5.974956 -4.551726,2.227035 -8.289735,4.330736 -8.306687,4.674889 -0.01695,0.344154 3.258409,2.109779 7.278577,3.92361 7.330498,3.307395 10.346265,5.60492 10.346265,7.882174 0,2.067664 -2.617395,4.778297 -4.604282,4.768309 -0.993785,-0.005 -7.728771,-2.758709 -14.966637,-6.119365 z m 45.939411,4.350289 c -3.073849,-3.907769 -1.350683,-6.035866 8.636614,-10.666134 4.18775,-1.941508 7.60163,-3.807801 7.5864,-4.147316 -0.0152,-0.339515 -3.75183,-2.439421 -8.30356,-4.666456 -6.93999,-3.39555 -8.372824,-4.360014 -8.876559,-5.974956 -0.804709,-2.579864 1.227751,-5.414572 4.088479,-5.702266 2.46268,-0.247665 27.5414,11.225225 29.3816,13.441349 0.64956,0.782247 1.18101,2.114196 1.18101,2.959887 0,0.845692 -0.53145,2.166 -1.18101,2.934019 -1.49932,1.772772 -27.04344,13.600033 -29.372894,13.600033 -1.07744,0 -2.274667,-0.677964 -3.14008,-1.77816 z"
           id="path4839" />
        <path
           style="fill:#191919;stroke-width:0.674859"
           d="m 39.397138,142.10044 c -4.669044,-2.03208 -5.789661,-7.4684 -2.336714,-11.33581 l 1.967743,-2.20394 12.541731,-0.21045 12.541732,-0.21045 v -9.06887 -9.06886 l -28.512804,-0.001 C 3.6582951,109.99984 3.5322079,109.98253 1.1820524,105.27804 0.09194317,103.09588 0.00209746,99.267624 0.00209746,55.001028 0.00209746,1.4239611 -0.19215161,3.6379528 4.7240149,1.1820524 6.9305421,0.07976842 12.061382,0.00209746 82.67026,0.00209746 c 70.60888,0 75.73972,0.07767096 77.94625,1.17995494 4.91616,2.4559004 4.72191,0.2419087 4.72191,53.8189756 0,44.266596 -0.0898,48.094852 -1.17995,50.277012 -2.35016,4.70449 -2.47625,4.7218 -34.41678,4.72297 l -28.5128,0.001 v 9.06886 9.06887 l 12.54173,0.21045 12.54174,0.21045 1.96774,2.20394 c 3.50582,3.92663 2.31811,9.35751 -2.48537,11.36453 -3.27791,1.3696 -83.245797,1.34301 -86.397592,-0.0287 z M 153.86791,55.001028 V 12.147466 H 82.67026 11.472608 V 55.001028 97.854591 H 82.67026 153.86791 Z M 70.860223,83.682546 c -0.742345,-0.742345 -1.343733,-1.88117 -1.33641,-2.530722 0.03023,-2.685487 17.489551,-55.156056 18.630461,-55.99031 1.981583,-1.44897 4.734739,-1.049145 6.277042,0.911578 0.769285,0.977987 1.397978,2.116812 1.397094,2.530722 -0.0034,1.484682 -16.969964,53.424504 -17.937051,54.910018 -1.293348,1.98667 -5.121332,2.078519 -7.031136,0.168714 z M 50.277015,65.15136 C 36.842357,58.888888 35.13074,57.695308 35.102631,54.569648 c -0.0055,-0.608433 0.521502,-1.737374 1.171055,-2.50876 1.533608,-1.82126 26.807842,-13.593911 29.184225,-13.593911 1.000354,0 2.321424,0.555364 2.935708,1.234143 1.32016,1.458761 1.464991,4.813313 0.273311,6.330411 -0.463966,0.590663 -4.335971,2.665091 -8.604455,4.609841 -4.268485,1.944749 -7.989382,3.73717 -8.268659,3.983158 -0.279278,0.245987 3.284703,2.217108 7.919956,4.380266 4.635254,2.163159 8.781677,4.359489 9.214268,4.880733 2.185937,2.633891 -0.292214,7.712529 -3.71017,7.603499 C 64.423852,71.4637 57.700467,68.611752 50.277015,65.15136 Z m 47.135269,5.390874 c -0.779618,-0.546069 -1.555058,-1.712503 -1.723199,-2.592087 -0.653439,-3.418211 0.47944,-4.448128 9.752605,-8.866266 l 8.94696,-4.262715 -3.71173,-1.690627 C 96.889774,46.850734 96.554477,46.658329 96.046855,44.73528 c -0.931306,-3.528084 0.745517,-6.268303 3.835751,-6.268303 2.429634,0 27.668444,11.793099 29.239884,13.662646 1.34036,1.594618 1.12638,4.904543 -0.40815,6.313455 -1.31978,1.211743 -27.34317,13.092002 -28.67768,13.092002 -0.663788,0 -1.844758,-0.446784 -2.624376,-0.992846 z"
           id="path4837" />
        <path
           style="fill:#000000;stroke-width:0.674859"
           d="m 42.178704,142.75125 c -0.371173,-0.13084 -1.519418,-0.42445 -2.551656,-0.65246 -3.727714,-0.82342 -5.784563,-7.06629 -3.433878,-10.42237 2.028207,-2.89566 4.737366,-3.45316 16.780651,-3.45316 H 64.149719 L 63.96196,118.94394 63.774201,109.66463 33.981906,109.3272 C 0.62055196,108.94934 2.1253104,109.19026 0.68241033,103.99587 -0.34419366,100.30013 -0.15841539,8.4304045 0.88166462,5.4620839 1.3246806,4.1977453 2.544556,2.5274687 3.5924988,1.7503581 L 5.4978496,0.33742962 H 82.67026 159.84267 l 1.90535,1.41292848 c 1.04794,0.7771106 2.26782,2.4473872 2.71084,3.7117258 1.04008,2.9683206 1.22585,94.8380461 0.19925,98.5337861 -1.4429,5.19439 0.0619,4.95347 -33.29949,5.33133 l -29.7923,0.33743 -0.18748,9.23651 -0.18748,9.2365 12.11912,0.21153 c 11.07594,0.19331 12.28293,0.33363 14.0221,1.63017 1.04663,0.78026 2.18637,2.21428 2.53275,3.1867 0.9264,2.60079 -0.27879,6.47729 -2.53453,8.1523 -1.88044,1.39633 -2.43185,1.41603 -43.190993,1.54259 -22.707435,0.0705 -41.58993,0.0212 -41.961103,-0.10968 z M 153.53048,55.001028 V 11.810037 H 82.67026 11.810037 l -0.174931,42.516132 c -0.09621,23.383873 -0.02928,42.897138 0.148728,43.362818 0.257296,0.673077 14.822579,0.811457 71.035151,0.674859 L 153.53048,98.19202 Z M 70.909204,83.254105 c -0.769285,-0.977985 -1.3987,-2.009015 -1.3987,-2.291167 0,-0.282159 3.833714,-12.464596 8.519356,-27.072077 5.246282,-16.355247 9.050983,-27.142434 9.903101,-28.077495 0.761052,-0.835138 2.10382,-1.518433 2.983924,-1.518433 1.715216,0 4.924381,2.74467 4.895821,4.187194 -0.0095,0.480838 -3.942677,13.01499 -8.740346,27.853672 -5.508026,17.035742 -9.155768,27.295843 -9.897135,27.837944 -1.971372,1.441506 -4.726856,1.037096 -6.266021,-0.919638 z M 50.155415,64.981946 C 38.723873,59.578739 36.410882,58.24134 35.753666,56.65468 c -1.60652,-3.878483 -0.270088,-4.971023 14.523349,-11.872912 7.423452,-3.463417 14.285257,-6.301097 15.248453,-6.305956 3.538603,-0.01785 5.437522,5.216085 2.768717,7.631321 -0.668974,0.605415 -4.844667,2.819435 -9.279314,4.920046 l -8.062996,3.819291 9.1106,4.463864 c 9.084975,4.451309 9.11118,4.470874 9.317761,6.956141 0.241289,2.902839 -1.642418,5.304035 -4.087602,5.210547 -0.835138,-0.03192 -7.646887,-2.954709 -15.137219,-6.495076 z m 47.024319,5.203416 c -1.423096,-1.423096 -1.761416,-4.377609 -0.694504,-6.065058 0.349003,-0.551987 4.52005,-2.856782 9.26898,-5.121766 l 8.63444,-4.118153 -8.74468,-4.175894 c -4.80958,-2.296742 -8.980618,-4.547247 -9.268985,-5.001123 -0.960332,-1.511526 -0.569689,-4.980254 0.689173,-6.119507 0.67878,-0.614287 1.969448,-1.112908 2.868152,-1.108049 0.8987,0.0049 7.70774,2.842539 15.13119,6.305956 14.80683,6.908136 16.13079,7.992223 14.51743,11.88721 -0.66739,1.61122 -2.92039,2.902647 -14.62892,8.385321 -7.61202,3.564431 -14.42111,6.480781 -15.131295,6.480781 -0.710195,0 -1.898636,-0.607373 -2.640981,-1.349718 z"
           id="path4835" />
      </g>
    </g>
    <g
       clip-path="url(#clip3)"
       id="g4459">
      <g
         clip-path="url(#clip4)"
         id="g4457">
        <g
           clip-path="url(#clip5)"
           id="g4455">
          <g
             clip-path="url(#clip6)"
             id="g4453">
            <path
               d="m 0,0 c 0,-39.886 -30.9722,-46.0805 -30.9722,-83.2533 0,-19.1907 -19.3453,-20.8067 -34.0695,-20.8067 -12.7172,0 -40.7963,4.825 -40.7963,20.8191 0,37.1604 -30.44,43.3549 -30.44,83.2409 0,37.3587 32.738,67.6433 68.6533,67.6433 C -31.697,67.6433 0,37.3587 0,0"
               fill="#ffd983"
               transform="matrix(1,0,0,-1,957.639,243.511)"
               id="path4441" />
            <path
               d="m 0,0 c 0,-5.129 -13.8384,-15.4861 -25.8123,-15.4861 -11.9738,0 -25.8122,10.3571 -25.8122,15.4861 0,5.129 13.8384,3.09722 25.8122,3.09722 C -13.8384,3.09722 0,5.129 0,0"
               fill="#ccd6dd"
               transform="matrix(1,0,0,-1,915.312,376.319)"
               id="path4443" />
            <path
               d="M 0,0 C -2.42203,2.42203 -6.33692,2.42203 -8.75894,0 L -29.1572,-20.3983 -49.5556,0 c -2.422,2.42203 -6.3369,2.42203 -8.7589,0 -2.422,-2.42203 -2.422,-6.33692 0,-8.75894 l 22.9628,-22.96286 v -65.5743 c 0,-3.4259 2.7751,-6.1949 6.1945,-6.1949 3.4193,0 6.1944,2.769 6.1944,6.1949 v 65.5743 L 0,-8.75894 C 2.42203,-6.33692 2.42203,-2.42203 0,0"
               fill="#ffcc4d"
               transform="matrix(1,0,0,-1,918.657,238.759)"
               id="path4445" />
            <path
               d="m 0,0 c 0,-6.84486 -5.54403,-12.3889 -12.3889,-12.3889 h -49.5555 c -6.8387,0 -12.3889,5.54404 -12.3889,12.3889 V 37.1667 H 0 Z"
               fill="#99aab5"
               transform="matrix(1,0,0,-1,926.667,367.028)"
               id="path4447" />
            <path
               d="m 0,0 c -2.97333,0 -5.59978,2.14947 -6.10153,5.17856 -0.56369,3.36977 1.71586,6.56614 5.08564,7.12364 L 73.3236,24.6911 c 3.3698,0.607 6.5662,-1.7159 7.1237,-5.0919 0.5636,-3.3698 -1.7159,-6.5599 -5.0919,-7.1236 L 1.02828,0.0867222 C 0.681389,0.0247778 0.3345,0 0,0"
               fill="#ccd6dd"
               transform="matrix(1,0,0,-1,852.327,373.222)"
               id="path4449" />
            <path
               d="m 0,0 c -2.97333,0 -5.59978,2.14947 -6.10153,5.17856 -0.56369,3.36977 1.71586,6.56614 5.08564,7.12364 L 73.3236,24.6911 c 3.3698,0.6008 6.5662,-1.7159 7.1237,-5.0919 0.5636,-3.3698 -1.7159,-6.5599 -5.0919,-7.1236 L 1.02828,0.0867222 C 0.681389,0.0247778 0.3345,0 0,0"
               fill="#ccd6dd"
               transform="matrix(1,0,0,-1,852.327,348.444)"
               id="path4451" />
          </g>
        </g>
      </g>
    </g>
  </g>
  <g
     aria-label="Power Station Dictionary"
     id="text5497"
     style="font-size:40px"
     transform="matrix(0.67997749,0,0,0.67997749,-6.5691813,157.20889)">
    <path
       d="m 40.336468,333.19855 q 0,1.93359 -0.683594,3.59375 -0.664063,1.64062 -1.875,2.85156 -1.503906,1.50391 -3.554688,2.26562 -2.050781,0.74219 -5.175781,0.74219 h -3.867187 v 10.83985 H 21.31303 v -29.08204 h 7.890625 q 2.617188,0 4.433594,0.44922 1.816406,0.42969 3.222656,1.36719 1.660156,1.11328 2.558594,2.77344 0.917969,1.66015 0.917969,4.19922 z m -4.023438,0.0976 q 0,-1.5039 -0.527344,-2.61718 -0.527343,-1.11329 -1.601562,-1.81641 -0.9375,-0.60547 -2.148438,-0.85938 -1.191406,-0.27343 -3.027343,-0.27343 h -3.828125 v 11.62109 h 3.261718 q 2.34375,0 3.808594,-0.41016 1.464844,-0.42968 2.382813,-1.34765 0.917968,-0.9375 1.289062,-1.97266 0.390625,-1.03515 0.390625,-2.32422 z"
       id="path5499" />
    <path
       d="m 62.758343,342.59308 q 0,5.33203 -2.734375,8.41797 -2.734375,3.08593 -7.324219,3.08593 -4.628906,0 -7.363281,-3.08593 -2.714844,-3.08594 -2.714844,-8.41797 0,-5.33203 2.714844,-8.41797 2.734375,-3.10547 7.363281,-3.10547 4.589844,0 7.324219,3.10547 2.734375,3.08594 2.734375,8.41797 z m -3.789063,0 q 0,-4.23828 -1.660156,-6.28906 -1.660156,-2.07032 -4.609375,-2.07032 -2.988281,0 -4.648438,2.07032 -1.640625,2.05078 -1.640625,6.28906 0,4.10156 1.660157,6.23047 1.660156,2.10937 4.628906,2.10937 2.929687,0 4.589844,-2.08984 1.679687,-2.10938 1.679687,-6.25 z"
       id="path5501" />
    <path
       d="m 95.883343,331.67511 -5.683594,21.81641 h -3.398438 l -5.605468,-16.81641 -5.566407,16.81641 H 72.25053 l -5.742187,-21.81641 h 3.828125 l 4.003906,16.89453 5.449219,-16.89453 h 3.027343 l 5.585938,16.89453 3.789062,-16.89453 z"
       id="path5503" />
    <path
       d="m 119.43803,342.96417 h -16.07422 q 0,2.01172 0.60547,3.51563 0.60547,1.48437 1.66016,2.4414 1.01562,0.9375 2.40234,1.40625 1.40625,0.46875 3.08594,0.46875 2.22656,0 4.47265,-0.8789 2.26563,-0.89844 3.22266,-1.75782 h 0.19531 v 4.00391 q -1.85547,0.78125 -3.78906,1.30859 -1.93359,0.52735 -4.0625,0.52735 -5.42969,0 -8.47656,-2.92969 -3.046877,-2.94922 -3.046877,-8.35937 0,-5.35157 2.910157,-8.4961 2.92969,-3.14453 7.69531,-3.14453 4.41406,0 6.79688,2.57813 2.40234,2.57812 2.40234,7.32421 z m -3.57422,-2.8125 q -0.0195,-2.89062 -1.46484,-4.47265 -1.42578,-1.58204 -4.35547,-1.58204 -2.94922,0 -4.70703,1.73829 -1.73828,1.73828 -1.97266,4.3164 z"
       id="path5505" />
    <path
       d="m 138.61772,335.67902 h -0.19531 q -0.82032,-0.19532 -1.60157,-0.27344 -0.76172,-0.0977 -1.8164,-0.0977 -1.69922,0 -3.28125,0.76172 -1.58203,0.74219 -3.04688,1.93359 v 15.48829 h -3.67187 v -21.81641 h 3.67187 v 3.22266 q 2.1875,-1.75782 3.84766,-2.48047 1.67969,-0.74219 3.41797,-0.74219 0.95703,0 1.38672,0.0586 0.42968,0.0391 1.28906,0.17578 z"
       id="path5507" />
    <path
       d="m 177.56303,345.19073 q 0,1.69922 -0.80078,3.35938 -0.78125,1.66016 -2.20703,2.8125 -1.5625,1.25 -3.65235,1.95312 -2.07031,0.70313 -5,0.70313 -3.14453,0 -5.66406,-0.58594 -2.5,-0.58594 -5.09765,-1.73828 v -4.84375 h 0.27343 q 2.20703,1.83594 5.09766,2.83203 2.89062,0.9961 5.42969,0.9961 3.59375,0 5.58593,-1.34766 2.01172,-1.34766 2.01172,-3.59375 0,-1.93359 -0.95703,-2.85156 -0.9375,-0.91797 -2.87109,-1.42578 -1.46485,-0.39063 -3.1836,-0.64454 -1.69921,-0.2539 -3.61328,-0.64453 -3.86718,-0.82031 -5.74218,-2.79297 -1.85547,-1.99218 -1.85547,-5.17578 0,-3.65234 3.08593,-5.97656 3.08594,-2.34375 7.83204,-2.34375 3.0664,0 5.625,0.58594 2.55859,0.58594 4.53125,1.44531 v 4.57031 h -0.27344 q -1.66016,-1.40625 -4.375,-2.32422 -2.69531,-0.9375 -5.52735,-0.9375 -3.10546,0 -5,1.28907 -1.875,1.28906 -1.875,3.32031 0,1.81641 0.9375,2.85156 0.9375,1.03516 3.30079,1.58203 1.25,0.27344 3.55468,0.66407 2.30469,0.39062 3.90625,0.80078 3.24219,0.85937 4.88282,2.59765 1.64062,1.73828 1.64062,4.86328 z"
       id="path5509" />
    <path
       d="m 194.80912,353.2962 q -1.03515,0.27344 -2.26562,0.44922 -1.21094,0.17578 -2.16797,0.17578 -3.33984,0 -5.07812,-1.79687 -1.73829,-1.79688 -1.73829,-5.76172 v -11.60156 h -2.48046 v -3.08594 h 2.48046 v -6.26953 h 3.67188 v 6.26953 h 7.57812 v 3.08594 H 187.231 v 9.9414 q 0,1.71875 0.0781,2.69532 0.0781,0.95703 0.54688,1.79687 0.42969,0.78125 1.17187,1.15234 0.76172,0.35157 2.30469,0.35157 0.89844,0 1.875,-0.25391 0.97656,-0.27344 1.40625,-0.44922 h 0.19531 z"
       id="path5511" />
    <path
       d="m 216.19584,353.49152 h -3.65234 v -2.32422 q -0.48828,0.33203 -1.32813,0.9375 -0.82031,0.58593 -1.60156,0.9375 -0.91797,0.44922 -2.10937,0.74218 -1.19141,0.3125 -2.79297,0.3125 -2.94922,0 -5,-1.95312 -2.05078,-1.95313 -2.05078,-4.98047 0,-2.48047 1.05468,-4.00391 1.07422,-1.54296 3.04688,-2.42187 1.99219,-0.87891 4.78516,-1.19141 2.79296,-0.3125 5.99609,-0.46875 v -0.5664 q 0,-1.25 -0.44922,-2.07032 -0.42969,-0.82031 -1.25,-1.28906 -0.78125,-0.44922 -1.875,-0.60547 -1.09375,-0.15625 -2.28516,-0.15625 -1.44531,0 -3.22265,0.39063 -1.77735,0.37109 -3.67188,1.09375 h -0.19531 v -3.73047 q 1.07422,-0.29297 3.10547,-0.64453 2.03125,-0.35156 4.00391,-0.35156 2.30468,0 4.0039,0.39062 1.71875,0.37109 2.96875,1.28906 1.23047,0.89844 1.875,2.32422 0.64453,1.42578 0.64453,3.53516 z m -3.65234,-5.3711 v -6.07422 q -1.67969,0.0977 -3.96484,0.29297 -2.26563,0.19531 -3.59375,0.56641 -1.58204,0.44922 -2.5586,1.40625 -0.97656,0.9375 -0.97656,2.59765 0,1.875 1.13281,2.83204 1.13281,0.9375 3.45703,0.9375 1.9336,0 3.53516,-0.74219 1.60156,-0.76172 2.96875,-1.81641 z"
       id="path5513" />
    <path
       d="m 234.59428,353.2962 q -1.03516,0.27344 -2.26562,0.44922 -1.21094,0.17578 -2.16797,0.17578 -3.33985,0 -5.07813,-1.79687 -1.73828,-1.79688 -1.73828,-5.76172 v -11.60156 h -2.48047 v -3.08594 h 2.48047 v -6.26953 h 3.67188 v 6.26953 h 7.57812 v 3.08594 h -7.57812 v 9.9414 q 0,1.71875 0.0781,2.69532 0.0781,0.95703 0.54688,1.79687 0.42968,0.78125 1.17187,1.15234 0.76172,0.35157 2.30469,0.35157 0.89844,0 1.875,-0.25391 0.97656,-0.27344 1.40625,-0.44922 h 0.19531 z"
       id="path5515" />
    <path
       d="m 242.97319,328.02277 h -4.14063 v -3.8086 h 4.14063 z m -0.23438,25.46875 h -3.67187 v -21.81641 h 3.67187 z"
       id="path5517" />
    <path
       d="m 268.59819,342.59308 q 0,5.33203 -2.73438,8.41797 -2.73437,3.08593 -7.32422,3.08593 -4.6289,0 -7.36328,-3.08593 -2.71484,-3.08594 -2.71484,-8.41797 0,-5.33203 2.71484,-8.41797 2.73438,-3.10547 7.36328,-3.10547 4.58985,0 7.32422,3.10547 2.73438,3.08594 2.73438,8.41797 z m -3.78907,0 q 0,-4.23828 -1.66015,-6.28906 -1.66016,-2.07032 -4.60938,-2.07032 -2.98828,0 -4.64843,2.07032 -1.64063,2.05078 -1.64063,6.28906 0,4.10156 1.66016,6.23047 1.66015,2.10937 4.6289,2.10937 2.92969,0 4.58985,-2.08984 1.67968,-2.10938 1.67968,-6.25 z"
       id="path5519" />
    <path
       d="m 292.52397,353.49152 h -3.67188 v -12.42188 q 0,-1.50391 -0.17578,-2.8125 -0.17578,-1.32812 -0.64453,-2.07031 -0.48828,-0.82031 -1.40625,-1.21094 -0.91797,-0.41016 -2.38281,-0.41016 -1.50391,0 -3.14453,0.74219 -1.64063,0.74219 -3.14453,1.89453 v 16.28907 h -3.67188 v -21.81641 h 3.67188 v 2.42187 q 1.71875,-1.42578 3.55468,-2.22656 1.83594,-0.80078 3.76953,-0.80078 3.53516,0 5.39063,2.12891 1.85547,2.1289 1.85547,6.13281 z"
       id="path5521" />
    <path
       d="m 338.52006,338.9798 q 0,3.96484 -1.73828,7.1875 -1.71875,3.22265 -4.58984,5 -1.99219,1.23047 -4.45313,1.77734 -2.4414,0.54688 -6.44531,0.54688 h -7.34375 v -29.08204 h 7.26562 q 4.25782,0 6.75782,0.625 2.51953,0.60547 4.25781,1.67969 2.96875,1.85547 4.62891,4.94141 1.66015,3.08594 1.66015,7.32422 z m -4.04297,-0.0586 q 0,-3.41797 -1.1914,-5.76172 -1.19141,-2.34375 -3.55469,-3.6914 -1.71875,-0.97656 -3.65234,-1.34766 -1.9336,-0.39062 -4.62891,-0.39062 h -3.63281 v 22.4414 h 3.63281 q 2.79297,0 4.86328,-0.41015 2.08984,-0.41016 3.82813,-1.52344 2.16796,-1.38672 3.24218,-3.65234 1.09375,-2.26563 1.09375,-5.66407 z"
       id="path5523" />
    <path
       d="m 348.42241,328.02277 h -4.14063 v -3.8086 h 4.14063 z m -0.23438,25.46875 h -3.67187 v -21.81641 h 3.67187 z"
       id="path5525" />
    <path
       d="m 371.58647,352.12433 q -1.83594,0.8789 -3.4961,1.36719 -1.64062,0.48828 -3.49609,0.48828 -2.36328,0 -4.33594,-0.6836 -1.97265,-0.70312 -3.3789,-2.10937 -1.42578,-1.40625 -2.20703,-3.55469 -0.78125,-2.14844 -0.78125,-5.01953 0,-5.35156 2.92968,-8.39844 2.94922,-3.04687 7.77344,-3.04687 1.875,0 3.67188,0.52734 1.8164,0.52734 3.32031,1.28906 v 4.08203 h -0.19531 q -1.67969,-1.30859 -3.47657,-2.01171 -1.77734,-0.70313 -3.47656,-0.70313 -3.125,0 -4.94141,2.10938 -1.79687,2.08984 -1.79687,6.15234 0,3.94531 1.75781,6.07422 1.77735,2.10937 4.98047,2.10937 1.11328,0 2.26563,-0.29297 1.15234,-0.29296 2.07031,-0.76171 0.80078,-0.41016 1.5039,-0.85938 0.70313,-0.46875 1.11329,-0.80078 h 0.19531 z"
       id="path5527" />
    <path
       d="m 387.62162,353.2962 q -1.03515,0.27344 -2.26562,0.44922 -1.21094,0.17578 -2.16797,0.17578 -3.33984,0 -5.07812,-1.79687 -1.73829,-1.79688 -1.73829,-5.76172 v -11.60156 h -2.48046 v -3.08594 h 2.48046 v -6.26953 h 3.67188 v 6.26953 h 7.57812 v 3.08594 h -7.57812 v 9.9414 q 0,1.71875 0.0781,2.69532 0.0781,0.95703 0.54688,1.79687 0.42969,0.78125 1.17187,1.15234 0.76172,0.35157 2.30469,0.35157 0.89844,0 1.875,-0.25391 0.97656,-0.27344 1.40625,-0.44922 h 0.19531 z"
       id="path5529" />
    <path
       d="m 396.00053,328.02277 h -4.14062 v -3.8086 h 4.14062 z m -0.23437,25.46875 h -3.67188 v -21.81641 h 3.67188 z"
       id="path5531" />
    <path
       d="m 421.62553,342.59308 q 0,5.33203 -2.73437,8.41797 -2.73438,3.08593 -7.32422,3.08593 -4.62891,0 -7.36328,-3.08593 -2.71485,-3.08594 -2.71485,-8.41797 0,-5.33203 2.71485,-8.41797 2.73437,-3.10547 7.36328,-3.10547 4.58984,0 7.32422,3.10547 2.73437,3.08594 2.73437,8.41797 z m -3.78906,0 q 0,-4.23828 -1.66016,-6.28906 -1.66015,-2.07032 -4.60937,-2.07032 -2.98828,0 -4.64844,2.07032 -1.64063,2.05078 -1.64063,6.28906 0,4.10156 1.66016,6.23047 1.66016,2.10937 4.62891,2.10937 2.92968,0 4.58984,-2.08984 1.67969,-2.10938 1.67969,-6.25 z"
       id="path5533" />
    <path
       d="m 445.55131,353.49152 h -3.67187 v -12.42188 q 0,-1.50391 -0.17578,-2.8125 -0.17579,-1.32812 -0.64454,-2.07031 -0.48828,-0.82031 -1.40625,-1.21094 -0.91796,-0.41016 -2.38281,-0.41016 -1.5039,0 -3.14453,0.74219 -1.64062,0.74219 -3.14453,1.89453 v 16.28907 h -3.67188 v -21.81641 h 3.67188 v 2.42187 q 1.71875,-1.42578 3.55469,-2.22656 1.83593,-0.80078 3.76953,-0.80078 3.53515,0 5.39062,2.12891 1.85547,2.1289 1.85547,6.13281 z"
       id="path5535" />
    <path
       d="m 469.57475,353.49152 h -3.65234 v -2.32422 q -0.48829,0.33203 -1.32813,0.9375 -0.82031,0.58593 -1.60156,0.9375 -0.91797,0.44922 -2.10938,0.74218 -1.1914,0.3125 -2.79297,0.3125 -2.94921,0 -5,-1.95312 -2.05078,-1.95313 -2.05078,-4.98047 0,-2.48047 1.05469,-4.00391 1.07422,-1.54296 3.04688,-2.42187 1.99218,-0.87891 4.78515,-1.19141 2.79297,-0.3125 5.9961,-0.46875 v -0.5664 q 0,-1.25 -0.44922,-2.07032 -0.42969,-0.82031 -1.25,-1.28906 -0.78125,-0.44922 -1.875,-0.60547 -1.09375,-0.15625 -2.28516,-0.15625 -1.44531,0 -3.22266,0.39063 -1.77734,0.37109 -3.67187,1.09375 h -0.19531 v -3.73047 q 1.07422,-0.29297 3.10547,-0.64453 2.03125,-0.35156 4.0039,-0.35156 2.30469,0 4.00391,0.39062 1.71875,0.37109 2.96875,1.28906 1.23047,0.89844 1.875,2.32422 0.64453,1.42578 0.64453,3.53516 z m -3.65234,-5.3711 v -6.07422 q -1.67969,0.0977 -3.96485,0.29297 -2.26562,0.19531 -3.59375,0.56641 -1.58203,0.44922 -2.55859,1.40625 -0.97656,0.9375 -0.97656,2.59765 0,1.875 1.13281,2.83204 1.13281,0.9375 3.45703,0.9375 1.93359,0 3.53516,-0.74219 1.60156,-0.76172 2.96875,-1.81641 z"
       id="path5537" />
    <path
       d="m 490.25834,335.67902 h -0.19531 q -0.82031,-0.19532 -1.60156,-0.27344 -0.76172,-0.0977 -1.81641,-0.0977 -1.69922,0 -3.28125,0.76172 -1.58203,0.74219 -3.04687,1.93359 v 15.48829 h -3.67188 v -21.81641 h 3.67188 v 3.22266 q 2.1875,-1.75782 3.84765,-2.48047 1.67969,-0.74219 3.41797,-0.74219 0.95703,0 1.38672,0.0586 0.42969,0.0391 1.28906,0.17578 z"
       id="path5539" />
    <path
       d="m 512.58256,331.67511 -12.73437,29.86328 h -3.92578 l 4.0625,-9.10156 -8.69141,-20.76172 h 3.98437 l 6.69922,16.17187 6.75782,-16.17187 z"
       id="path5541" />
  </g>
</svg>
