<?xml version="1.0" encoding="UTF-8" standalone="no"?>
<!-- Created with Inkscape (http://www.inkscape.org/) -->

<svg
   version="1.1"
   id="svg11749"
   width="194.82332"
   height="165.97144"
   viewBox="0 0 194.82332 165.97144"
   sodipodi:docname="PowerGAMA.svg"
   inkscape:version="1.2.2 (b0a84865, 2022-12-01)"
   xmlns:inkscape="http://www.inkscape.org/namespaces/inkscape"
   xmlns:sodipodi="http://sodipodi.sourceforge.net/DTD/sodipodi-0.dtd"
   xmlns="http://www.w3.org/2000/svg"
   xmlns:svg="http://www.w3.org/2000/svg">
  <defs
     id="defs11753" />
  <sodipodi:namedview
     id="namedview11751"
     pagecolor="#ffffff"
     bordercolor="#666666"
     borderopacity="1.0"
     inkscape:showpageshadow="2"
     inkscape:pageopacity="0.0"
     inkscape:pagecheckerboard="0"
     inkscape:deskcolor="#d1d1d1"
     showgrid="false"
     inkscape:zoom="1.1859296"
     inkscape:cx="104.13771"
     inkscape:cy="93.175847"
     inkscape:window-width="1295"
     inkscape:window-height="703"
     inkscape:window-x="0"
     inkscape:window-y="25"
     inkscape:window-maximized="0"
     inkscape:current-layer="g11755" />
  <g
     inkscape:groupmode="layer"
     inkscape:label="Image"
     id="g11755"
     transform="translate(-25,-10)">
    <g
       id="g11876">
      <path
         style="fill:#964705"
         d="m 203.71426,175.38093 c -1.51807,-1.51807 -0.60437,-2.57017 1.72445,-1.98567 3.36026,0.84337 4.28609,-1.16919 1.09584,-2.38212 -3.1605,-1.20162 -4.19093,-3.51732 -2.4816,-5.57694 1.53433,-1.84876 7.09194,-1.54802 7.73835,0.41874 0.32173,0.9789 -0.14257,1.16835 -1.67299,0.68261 -2.9311,-0.9303 -2.64868,0.45911 0.63169,3.10763 2.26597,1.82951 2.55616,2.54017 1.64872,4.03757 -1.11644,1.84228 -7.32611,3.05653 -8.68446,1.69818 z M 206,151 c 0,-5.33333 0.22222,-6 2,-6 1.77778,0 2,0.66667 2,6 0,5.33333 -0.22222,6 -2,6 -1.77778,0 -2,-0.66667 -2,-6 z m -0.50437,-9.00706 c -0.34231,-0.55389 0.0811,-1.27703 0.94099,-1.60699 2.05317,-0.78788 4.86204,0.32179 4.06775,1.60699 -0.80528,1.30296 -4.20346,1.30296 -5.00874,0 z m -1.78137,-4.61201 c -1.51807,-1.51807 -0.60437,-2.57017 1.72445,-1.98567 3.36026,0.84337 4.28609,-1.16919 1.09584,-2.38212 -3.1605,-1.20162 -4.19093,-3.51732 -2.4816,-5.57694 1.53433,-1.84876 7.09194,-1.54802 7.73835,0.41874 0.32173,0.9789 -0.14257,1.16835 -1.67299,0.68261 -2.9311,-0.9303 -2.64868,0.45911 0.63169,3.10763 2.26597,1.82951 2.55616,2.54017 1.64872,4.03757 -1.11644,1.84228 -7.32611,3.05653 -8.68446,1.69818 z M 179.14043,135.25 c -0.89093,-1.67658 -1.57443,-7.81639 -1.28021,-11.5 0.17846,-2.2343 5.13978,-2.47562 5.13978,-0.25 0,0.825 0.675,1.5 1.5,1.5 0.825,0 1.5,0.45 1.5,1 0,0.55 -0.675,1 -1.5,1 -1.08333,0 -1.5,1.11111 -1.5,4 0,2.88889 0.41667,4 1.5,4 0.825,0 1.5,0.45 1.5,1 0,1.76236 -5.8653,1.12107 -6.85957,-0.75 z m 25.65435,-13.84777 c 0.6917,-1.236 0.42556,-3.35525 -0.90818,-7.23184 C 201.53409,107.33271 201.5405,107 204.02475,107 c 1.27683,0 2.42903,1.01582 3.1192,2.75 l 1.09444,2.75 0.96414,-2.75 c 0.59886,-1.70813 1.69029,-2.75 2.8808,-2.75 2.49063,0 2.4172,1.42116 -0.47164,9.12826 -2.0433,5.45131 -2.77884,6.41873 -5.09182,6.69702 -2.31758,0.27885 -2.56384,0.0757 -1.72509,-1.42305 z m -28.20101,-5.57182 c -2.00337,-2.86021 -2.01276,-4.7872 -0.0371,-7.6079 3.06729,-4.37917 11.4433,-1.81731 11.4433,3.5 0,0.82808 -1.43646,1.27749 -4.08333,1.27749 -2.83581,0 -3.94825,0.38189 -3.64119,1.25 0.25919,0.73278 1.77856,1.14001 3.67194,0.98418 2.24209,-0.18453 3.10248,0.12128 2.81347,1 -0.22898,0.6962 -2.25166,1.40213 -4.49484,1.56874 -3.30896,0.24576 -4.37923,-0.12643 -5.67228,-1.97251 z m 6.21456,-5.90541 c -0.19708,-0.59125 -0.78583,-1.075 -1.30833,-1.075 -0.5225,0 -1.11125,0.48375 -1.30833,1.075 -0.19709,0.59125 0.39166,1.075 1.30833,1.075 0.91667,0 1.50542,-0.48375 1.30833,-1.075 z M 128.03518,98.065741 C 125.4762,93.284228 127.8576,88 132.57143,88 134.49524,88 135,87.480392 135,85.5 c 0,-1.833333 0.53333,-2.5 2,-2.5 1.84314,0 2,0.666667 2,8.5 v 8.5 h -4.96482 c -3.88511,0 -5.18993,-0.420645 -6,-1.934259 z M 134.5,94 c 0,-1.283333 -0.5625,-2.520833 -1.25,-2.75 -0.82456,-0.274854 -1.25,0.661111 -1.25,2.75 0,2.088889 0.42544,3.024854 1.25,2.75 0.6875,-0.229167 1.25,-1.466667 1.25,-2.75 z M 176,91.5 c 0,-7.833333 0.15686,-8.5 2,-8.5 1.6815,0 2.00484,0.676803 2.03041,4.25 0.0241,3.373147 0.2407,3.888943 1.04969,2.5 0.5606,-0.9625 2.14736,-1.75 3.52613,-1.75 2.48869,0 2.49454,0.02083 0.8074,2.876928 -1.57946,2.673813 -1.58345,3.042528 -0.0565,5.222506 C 187.49481,99.151456 187.42946,100 185.0567,100 c -1.06881,0 -2.64381,-1.000128 -3.5,-2.222506 L 180,95.554988 v 2.222506 C 180,99.333333 179.40008,100 178,100 c -1.84314,0 -2,-0.666667 -2,-8.5 z m 30,0 c 0,-7.833333 0.15686,-8.5 2,-8.5 1.84314,0 2,0.666667 2,8.5 0,7.833333 -0.15686,8.5 -2,8.5 -1.84314,0 -2,-0.666667 -2,-8.5 z M 149.03518,80.065741 C 146.4762,75.284228 148.8576,70 153.57143,70 155.49524,70 156,69.480392 156,67.5 c 0,-1.833333 0.53333,-2.5 2,-2.5 1.84314,0 2,0.666667 2,8.5 V 82 h -4.96482 c -3.88511,0 -5.18993,-0.420645 -6,-1.934259 z M 155.5,76 c 0,-1.283333 -0.5625,-2.520833 -1.25,-2.75 -0.82456,-0.274854 -1.25,0.661111 -1.25,2.75 0,2.088889 0.42544,3.024854 1.25,2.75 0.6875,-0.229167 1.25,-1.466667 1.25,-2.75 z M 131,75 c 0,-5.333333 0.22222,-6 2,-6 1.77778,0 2,0.666667 2,6 0,5.333333 -0.22222,6 -2,6 -1.77778,0 -2,-0.666667 -2,-6 z m 47,0 v -6 h 4 c 2.88889,0 4,0.416667 4,1.5 0,0.825 -0.62686,1.5 -1.39301,1.5 C 182.92357,72 182,74.154568 182,78.081787 182,80.333333 181.5431,81 180,81 c -1.77778,0 -2,-0.666667 -2,-6 z m 24.93043,4.416177 c -1.7979,-2.166337 -0.0349,-4.820284 3.47972,-5.23832 1.5499,-0.184347 2.53126,-0.825969 2.29424,-1.5 -0.22779,-0.647821 -1.65003,-1.041183 -3.16052,-0.874137 -1.9016,0.210299 -2.61422,-0.09729 -2.31678,-1 0.51137,-1.55199 4.03575,-2.205551 7.37462,-1.367548 C 212.76784,69.979834 213,70.568684 213,75.519052 V 81 h -4.37756 c -2.77417,0 -4.859,-0.58011 -5.69201,-1.583823 z M 209,76.940983 C 209,76.423442 208.55,76 208,76 c -0.55,0 -1,0.701558 -1,1.559017 0,0.857459 0.45,1.280902 1,0.940983 0.55,-0.339919 1,-1.041476 1,-1.559017 z M 130.49563,65.992937 c -0.79429,-1.285201 2.01458,-2.394864 4.06775,-1.606989 C 136.56715,65.154867 135.46364,67 133,67 c -1.03508,0 -2.16205,-0.453178 -2.50437,-1.007063 z M 149,56.94774 v -6.052259 l 5.25,0.302259 5.25,0.30226 0.2999,5.75 c 0.27012,5.178851 0.10173,5.75 -1.6952,5.75 -1.67069,0 -2.04468,-0.772391 -2.29991,-4.75 C 155.63716,55.6375 155.05,53.5 154.5,53.5 c -0.55,0 -1.13716,2.1375 -1.30479,4.75 -0.25245,3.934276 -0.63885,4.75 -2.25,4.75 C 149.23253,63 149,62.276508 149,56.94774 Z M 130,56 v -6 h 4 c 2.88889,0 4,0.416667 4,1.5 0,0.825 -0.62686,1.5 -1.39301,1.5 C 134.92357,53 134,55.154568 134,59.081787 134,61.333333 133.5431,62 132,62 c -1.77778,0 -2,-0.666667 -2,-6 z m 45.93043,4.416177 c -1.7979,-2.166337 -0.0349,-4.820284 3.47972,-5.23832 1.5499,-0.184347 2.53126,-0.825969 2.29424,-1.5 -0.22779,-0.647821 -1.65003,-1.041183 -3.16052,-0.874137 -1.9016,0.210299 -2.61422,-0.09729 -2.31678,-1 0.51137,-1.55199 4.03575,-2.205551 7.37462,-1.367548 C 185.76784,50.979834 186,51.568684 186,56.519052 V 62 h -4.37756 c -2.77417,0 -4.859,-0.58011 -5.69201,-1.583823 z M 182,57.940983 C 182,57.423442 181.55,57 181,57 c -0.55,0 -1,0.701558 -1,1.559017 0,0.857459 0.45,1.280902 1,0.940983 0.55,-0.339919 1,-1.041476 1,-1.559017 z m 21,-1.993243 v -6.052259 l 5.25,0.302259 5.25,0.30226 0.2999,5.75 c 0.27012,5.178851 0.10173,5.75 -1.6952,5.75 -1.67069,0 -2.04468,-0.772391 -2.29991,-4.75 C 209.63716,54.6375 209.05,52.5 208.5,52.5 c -0.55,0 -1.13716,2.1375 -1.30479,4.75 -0.25245,3.934276 -0.63885,4.75 -2.25,4.75 C 203.23253,62 203,61.276508 203,55.94774 Z M 128.26923,47.017535 C 125.23721,45.173654 124.19109,43.163944 123.83557,38.5 123.41632,33.000118 124.18092,30.619075 127.4,27.4 130.38909,24.41091 131.42431,24 135.96574,24 142.12328,24 145,25.320336 145,28.146475 c 0,1.866634 -0.37836,1.999917 -3.75,1.320987 -5.40879,-1.089142 -7.35027,-0.811632 -9.52311,1.361207 -2.46262,2.462612 -2.5565,8.597141 -0.1719,11.232092 C 132.52023,43.127342 134.59023,44 136.15499,44 138.523,44 139,43.580846 139,41.5 c 0,-2 -0.5,-2.5 -2.5,-2.5 -2.01365,0 -2.5,-0.496516 -2.5,-2.55226 0,-2.450631 0.20905,-2.540224 5.25,-2.25 l 5.25,0.30226 0.35482,4 c 0.34564,3.89638 0.4363,3.766856 3.5,-5 3.13047,-8.957921 3.16112,-9 6.55376,-9 h 3.40858 l 3.78881,10.5 c 4.70118,13.02845 4.77075,14 1.00244,14 -2.25038,0 -3.03073,-0.55438 -3.51905,-2.5 -0.54962,-2.189833 -1.16995,-2.5 -5,-2.5 -3.79062,0 -4.45332,0.321831 -4.97947,2.418202 -0.58238,2.320386 -0.96124,2.420964 -9.36602,2.486515 -7.01285,0.05469 -9.40014,-0.321538 -11.97464,-1.887182 z M 156.44642,36.75 c -1.41677,-4.630979 -2.06576,-4.896926 -3.17,-1.299007 C 152.23218,38.853442 152.28936,39 154.66099,39 c 2.1027,0 2.37053,-0.337519 1.78543,-2.25 z m 10.7728,0 0.28078,-12.25 3.58559,-0.300564 c 4.32852,-0.36284 4.91976,0.311498 7.95401,9.071886 l 2.34532,6.771321 3.05754,-7.771321 L 187.5,24.5 h 4 4 l 0.28078,12.25 0.28078,12.25 H 193.03078 190 l -0.0529,-8.25 -0.0529,-8.25 -3.06002,8.305525 c -2.85648,7.753081 -3.23542,8.285202 -5.69708,8 -2.34763,-0.271991 -2.98665,-1.293367 -5.82203,-9.305525 l -3.18496,-9 -0.065,9.25 c -0.0648,9.212866 -0.0752,9.25 -2.59582,9.25 h -2.53078 l 0.28078,-12.25 z m 29.84755,10.5 c 0.0367,-0.9625 1.72422,-6.475 3.75,-12.25 L 204.5,24.5 l 3.57783,-0.300101 3.57783,-0.300101 3.83421,11.300101 c 2.10882,6.215055 4.03444,11.862601 4.27916,12.550101 0.29548,0.830105 -0.61622,1.25 -2.71406,1.25 -2.61094,0 -3.34045,-0.52048 -4.20481,-3 -0.92423,-2.651221 -1.50552,-3 -5,-3 -3.49449,0 -4.07578,0.348779 -5,3 -0.77059,2.210516 -1.67797,3 -3.44799,3 -1.64655,0 -2.38117,-0.550474 -2.3354,-1.75 z M 209.73862,35.5 C 209.14782,33.575 208.36544,32 208,32 c -0.36544,0 -1.14782,1.575 -1.73862,3.5 -1.05118,3.425052 -1.01395,3.5 1.73862,3.5 2.75257,0 2.7898,-0.07495 1.73862,-3.5 z M 26,35.383504 V 22.767009 l 6.633619,0.422397 c 5.420894,0.345176 6.974822,0.843764 8.5,2.727279 4.181402,5.163812 0.929832,12.337833 -6.101643,13.462211 C 31.104437,40.006935 31,40.126938 31,44.011818 31,47.599212 30.748765,48 28.5,48 H 26 Z M 36.30702,32.885923 C 37.818492,30.47349 36.413332,28 33.531385,28 31.295645,28 31,28.416895 31,31.569551 c 0,3.083984 0.292175,3.526082 2.147872,3.25 1.18133,-0.175753 2.602947,-1.045886 3.159148,-1.933628 z M 46.789367,46.941932 C 44.315597,45.499794 42.962968,39.717991 44.119471,35.529483 45.324222,31.166234 48.359343,29 53.267961,29 58.742173,29 62,32.472907 62,38.308523 62,44.52705 58.681297,48.01122 52.797749,47.969591 50.433987,47.952867 47.730215,47.49042 46.789367,46.941932 Z M 54.8,42.8 c 1.817171,-1.817171 1.512942,-7.742683 -0.435923,-8.490532 -4.02136,-1.543141 -7.067951,4.843801 -3.846939,8.064812 C 52.458166,44.315308 53.209962,44.390038 54.8,42.8 Z m 12.713324,4.013871 C 65.725359,41.846597 63.023612,32.202943 63.012901,30.75 63.003987,29.540816 63.782294,29 65.531385,29 c 2.68642,0 2.710325,0.03658 4.574681,7 l 1.20481,4.5 1.465708,-5.804732 c 1.338217,-5.299826 1.6843,-5.778226 3.978788,-5.5 2.096129,0.254173 2.786569,1.215661 4.161466,5.795141 l 1.648386,5.490408 1.377103,-5.740408 C 85.119552,29.833184 85.650541,29 87.600698,29 c 1.254697,0 2.501776,0.356789 2.771285,0.792864 0.269509,0.436075 -0.684809,4.711075 -2.120707,9.5 C 85.679332,47.870667 85.593165,48 82.450237,48 79.497726,48 79.160708,47.645939 77.928888,43.25 L 76.597853,38.5 75.506919,43 c -0.984995,4.063008 -1.403128,4.53048 -4.305802,4.813871 -1.988625,0.194152 -3.395255,-0.187276 -3.687793,-1 z M 94,46 c -3.05666,-3.05666 -2.799318,-11.291591 0.454545,-14.545455 2.604444,-2.604443 7.203635,-3.243031 10.531115,-1.462222 2.05097,1.097647 4.51755,7.384449 3.52642,8.988127 C 108.16552,39.541202 105.43352,40 102.44098,40 c -5.538105,0 -6.599721,0.793441 -3.975566,2.971296 0.955627,0.7931 2.868966,0.979058 5.499996,0.534547 C 107.54977,42.900269 108,43.045257 108,44.805113 108,47.230316 106.17346,48 100.41821,48 97.333333,48 95.396438,47.396438 94,46 Z m 9,-11.031385 C 103,33.093017 99.8734,32.698029 98.208173,34.363256 96.692514,35.878915 96.809219,36 99.785714,36 101.55357,36 103,35.535877 103,34.968615 Z m 8.42364,11.692994 c -0.28247,-0.736114 -0.38085,-4.898614 -0.21861,-9.25 0.27362,-7.338887 0.45785,-7.934741 2.54497,-8.23116 1.31962,-0.187415 2.25,0.205414 2.25,0.95 0,0.987429 0.26667,1.002884 1.2,0.06955 0.66,-0.66 2.235,-1.2 3.5,-1.2 1.78667,0 2.3,0.557971 2.3,2.5 0,1.740741 -0.54667,2.5 -1.8,2.5 -3.08011,0 -4.2,2.186454 -4.2,8.2 0,5.539176 -0.11384,5.8 -2.53138,5.8 -1.39227,0 -2.7625,-0.602276 -3.04498,-1.33839 z M 25,12.5 V 10 h 95 95 V 12.5 15 H 120 25 Z"
         id="path11890" />
      <path
         style="fill:#964503"
         d="m 203.45888,174.93347 c -0.36253,-0.58659 -0.44468,-1.281 -0.18255,-1.54313 0.26212,-0.26213 0.74306,0.21781 1.06875,1.06653 0.67618,1.76211 0.0999,2.07206 -0.8862,0.4766 z m 7.77779,-1.17316 c 0.69483,-1.48221 1.42806,-2.21545 1.6294,-1.62941 0.20134,0.58604 -0.36716,1.79876 -1.26333,2.69493 -1.50588,1.50588 -1.53363,1.4251 -0.36607,-1.06552 z m -7.20877,-4.22669 c -0.66934,-0.80651 -1.06194,-1.9168 -0.87244,-2.46731 0.1895,-0.55051 0.8647,0.10936 1.50045,1.46638 1.31782,2.81288 1.12751,3.1162 -0.62801,1.00093 z m 3.43098,-1.60015 c -0.36253,-0.58659 -0.44468,-1.281 -0.18255,-1.54313 0.26212,-0.26213 0.74306,0.21781 1.06875,1.06653 0.67618,1.76211 0.0999,2.07206 -0.8862,0.4766 z M 210.5,166 c 0.33992,-0.55 0.81648,-1 1.05902,-1 0.24254,0 0.44098,0.45 0.44098,1 0,0.55 -0.47656,1 -1.05902,1 -0.58246,0 -0.7809,-0.45 -0.44098,-1 z m -1.17993,-15 c 0,-3.575 0.1815,-5.0375 0.40333,-3.25 0.22182,1.7875 0.22182,4.7125 0,6.5 -0.22183,1.7875 -0.40333,0.325 -0.40333,-3.25 z m -5.86119,-14.06653 c -0.36253,-0.58659 -0.44468,-1.281 -0.18255,-1.54313 0.26212,-0.26213 0.74306,0.21781 1.06875,1.06653 0.67618,1.76211 0.0999,2.07206 -0.8862,0.4766 z m 6.74959,0.01 c 0.94234,-0.54938 1.4549,-1.65682 1.14301,-2.46959 -0.311,-0.81045 -0.0673,-1.47355 0.54153,-1.47355 0.60885,0 1.10699,0.585 1.10699,1.3 0,1.57749 -2.00622,3.7114 -3.45,3.66959 -0.5775,-0.0167 -0.28119,-0.47862 0.65847,-1.02645 z M 179.14043,135.25 c -0.89093,-1.67658 -1.57443,-7.81639 -1.28021,-11.5 0.17846,-2.2343 5.13978,-2.47562 5.13978,-0.25 0,0.825 0.675,1.5 1.5,1.5 0.825,0 1.5,0.45 1.5,1 0,0.55 -0.675,1 -1.5,1 -1.08333,0 -1.5,1.11111 -1.5,4 0,2.88889 0.41667,4 1.5,4 0.825,0 1.5,0.45 1.5,1 0,1.76236 -5.8653,1.12107 -6.85957,-0.75 z m 24.88747,-3.71638 c -0.66934,-0.80651 -1.06194,-1.9168 -0.87244,-2.46731 0.1895,-0.55051 0.8647,0.10936 1.50045,1.46638 1.31782,2.81288 1.12751,3.1162 -0.62801,1.00093 z m 3.43098,-1.60015 c -0.36253,-0.58659 -0.44468,-1.281 -0.18255,-1.54313 0.26212,-0.26213 0.74306,0.21781 1.06875,1.06653 0.67618,1.76211 0.0999,2.07206 -0.8862,0.4766 z M 210.5,128 c 0.33992,-0.55 0.81648,-1 1.05902,-1 0.24254,0 0.44098,0.45 0.44098,1 0,0.55 -0.47656,1 -1.05902,1 -0.58246,0 -0.7809,-0.45 -0.44098,-1 z m -1.93571,-6.29313 c 0.37553,-0.98622 0.93469,-1.54122 1.24258,-1.23333 0.30789,0.30789 6.4e-4,1.11479 -0.68278,1.79313 -0.98762,0.98026 -1.10248,0.8654 -0.5598,-0.5598 z M 205,117.94098 c 0,-0.58246 0.45,-0.7809 1,-0.44098 0.55,0.33992 1,0.81648 1,1.05902 0,0.24254 -0.45,0.44098 -1,0.44098 -0.55,0 -1,-0.47656 -1,-1.05902 z m -28.40623,-2.11057 c -2.00337,-2.86021 -2.01276,-4.7872 -0.0371,-7.6079 3.06729,-4.37917 11.4433,-1.81731 11.4433,3.5 0,0.82808 -1.43646,1.27749 -4.08333,1.27749 -2.83581,0 -3.94825,0.38189 -3.64119,1.25 0.25919,0.73278 1.77856,1.14001 3.67194,0.98418 2.24209,-0.18453 3.10248,0.12128 2.81347,1 -0.22898,0.6962 -2.25166,1.40213 -4.49484,1.56874 -3.30896,0.24576 -4.37923,-0.12643 -5.67228,-1.97251 z m 6.21456,-5.90541 c -0.19708,-0.59125 -0.78583,-1.075 -1.30833,-1.075 -0.5225,0 -1.11125,0.48375 -1.30833,1.075 -0.19709,0.59125 0.39166,1.075 1.30833,1.075 0.91667,0 1.50542,-0.48375 1.30833,-1.075 z m 20.40594,2.42149 c -1.22843,-4.00258 -0.27867,-3.45752 1.57436,0.90351 0.64267,1.5125 0.80364,2.75 0.35771,2.75 -0.44593,0 -1.31536,-1.64408 -1.93207,-3.65351 z M 211.49093,114 c 0.19825,-1.375 0.45014,-2.6125 0.55976,-2.75 0.10962,-0.1375 0.25556,-0.6625 0.32431,-1.16667 0.0687,-0.50416 0.4625,-1.25416 0.875,-1.66666 1.21227,-1.21227 0.77471,1.83525 -0.72986,5.08333 -1.2608,2.72182 -1.35623,2.76819 -1.02921,0.5 z m -4.61593,-0.5 c -0.0687,-0.275 -0.2375,-0.95 -0.375,-1.5 -0.1375,-0.55 -0.34068,-1.1125 -0.45151,-1.25 -0.46691,-0.57926 -0.83493,-3.75 -0.43526,-3.75 0.23995,0 0.91288,1.2375 1.49541,2.75 l 1.05914,2.75 1.33489,-3 c 1.64642,-3.70012 1.88227,-2.90269 0.3995,1.35078 -0.94822,2.72006 -2.63944,4.20014 -3.02717,2.64922 z M 128.03518,98.065741 C 125.4762,93.284228 127.8576,88 132.57143,88 134.49524,88 135,87.480392 135,85.5 c 0,-1.833333 0.53333,-2.5 2,-2.5 1.84314,0 2,0.666667 2,8.5 v 8.5 h -4.96482 c -3.88511,0 -5.18993,-0.420645 -6,-1.934259 z M 134.5,94 c 0,-1.283333 -0.5625,-2.520833 -1.25,-2.75 -0.82456,-0.274854 -1.25,0.661111 -1.25,2.75 0,2.088889 0.42544,3.024854 1.25,2.75 0.6875,-0.229167 1.25,-1.466667 1.25,-2.75 z M 176,91.5 c 0,-7.833333 0.15686,-8.5 2,-8.5 1.6815,0 2.00484,0.676803 2.03041,4.25 0.0241,3.373147 0.2407,3.888943 1.04969,2.5 0.5606,-0.9625 2.14736,-1.75 3.52613,-1.75 2.48869,0 2.49454,0.02083 0.8074,2.876928 -1.57946,2.673813 -1.58345,3.042528 -0.0565,5.222506 C 187.49481,99.151456 187.42946,100 185.0567,100 c -1.06881,0 -2.64381,-1.000128 -3.5,-2.222506 L 180,95.554988 v 2.222506 C 180,99.333333 179.40008,100 178,100 c -1.84314,0 -2,-0.666667 -2,-8.5 z m 33.35496,0 c -0.003,-4.95 0.16605,-7.101078 0.37577,-4.780173 0.20972,2.320905 0.21222,6.370905 0.006,9 C 209.5296,98.348922 209.358,96.45 209.35496,91.5 Z M 149.50708,81.011454 c -0.35034,-0.56686 0.0511,-0.734507 0.94098,-0.393011 C 152.18048,81.283234 152.49745,82 151.05902,82 c -0.51754,0 -1.21592,-0.444846 -1.55194,-0.988546 z m 5.92266,0.102236 c 0.30127,-0.48747 -0.37822,-1.128461 -1.50998,-1.424423 -1.64701,-0.430703 -1.99408,-1.200279 -1.73876,-3.855501 0.21199,-2.204522 0.90606,-3.428598 2.069,-3.648901 0.9625,-0.182332 1.75,0.137359 1.75,0.710426 0,0.573067 -0.675,0.782918 -1.5,0.466335 C 153.35841,72.923558 153,73.553974 153,76 c 0,2.446026 0.35841,3.076442 1.5,2.638374 0.825,-0.316583 1.5,-0.401532 1.5,-0.188777 0,0.212756 0.27314,1.098632 0.60699,1.968616 C 156.94661,81.303252 156.70037,82 156.04797,82 c -0.6413,0 -0.91951,-0.398839 -0.61823,-0.88631 z M 159.35496,73.5 c -0.003,-4.95 0.16605,-7.101078 0.37577,-4.780173 0.20972,2.320905 0.21222,6.370905 0.006,9 C 159.5296,80.348922 159.358,78.45 159.35496,73.5 Z M 131,75 c 0,-5.333333 0.22222,-6 2,-6 1.77778,0 2,0.666667 2,6 0,5.333333 -0.22222,6 -2,6 -1.77778,0 -2,-0.666667 -2,-6 z m 47,0 v -6 h 4 c 2.88889,0 4,0.416667 4,1.5 0,0.825 -0.62686,1.5 -1.39301,1.5 C 182.92357,72 182,74.154568 182,78.081787 182,80.333333 181.5431,81 180,81 c -1.77778,0 -2,-0.666667 -2,-6 z m 34.30987,0.5 c 0.006,-3.3 0.1923,-4.529441 0.41486,-2.732091 0.22256,1.79735 0.21797,4.49735 -0.0102,6 C 212.48635,80.270559 212.30426,78.8 212.30987,75.5 Z m -9.96479,2.956872 c -0.32569,-0.848721 -0.36872,-1.766569 -0.0956,-2.039663 0.27309,-0.273095 0.73656,0.421313 1.02992,1.543128 0.62315,2.382929 -0.0692,2.750891 -0.9343,0.496535 z M 148,76 c 0,-1.65 0.3375,-3 0.75,-3 0.4125,0 0.75,1.35 0.75,3 0,1.65 -0.3375,3 -0.75,3 -0.4125,0 -0.75,-1.35 -0.75,-3 z m 57.63837,1.5 C 205.32179,76.675 205.49865,76 206.03138,76 206.56412,76 207,76.675 207,77.5 c 0,0.825 -0.17686,1.5 -0.39301,1.5 -0.21616,0 -0.65203,-0.675 -0.96862,-1.5 z M 149,71.606989 c 0,-0.216156 0.69837,-0.661002 1.55194,-0.988546 0.88992,-0.341496 1.29132,-0.173849 0.94098,0.393011 C 150.90566,71.961658 149,72.416902 149,71.606989 Z m -18.50437,-5.614052 c -0.79429,-1.285201 2.01458,-2.394864 4.06775,-1.606989 C 136.56715,65.154867 135.46364,67 133,67 c -1.03508,0 -2.16205,-0.453178 -2.50437,-1.007063 z M 152.27236,59 c 0,-2.475 0.19502,-3.4875 0.43337,-2.25 0.23836,1.2375 0.23836,3.2625 0,4.5 -0.23835,1.2375 -0.43337,0.225 -0.43337,-2.25 z m 4,0 c 0,-2.475 0.19502,-3.4875 0.43337,-2.25 0.23836,1.2375 0.23836,3.2625 0,4.5 -0.23835,1.2375 -0.43337,0.225 -0.43337,-2.25 z M 130,56 v -6 h 4 c 2.88889,0 4,0.416667 4,1.5 0,0.825 -0.62686,1.5 -1.39301,1.5 C 134.92357,53 134,55.154568 134,59.081787 134,61.333333 133.5431,62 132,62 c -1.77778,0 -2,-0.666667 -2,-6 z m 45.93043,4.416177 c -1.7979,-2.166337 -0.0349,-4.820284 3.47972,-5.23832 1.5499,-0.184347 2.53126,-0.825969 2.29424,-1.5 -0.22779,-0.647821 -1.65003,-1.041183 -3.16052,-0.874137 -1.9016,0.210299 -2.61422,-0.09729 -2.31678,-1 0.51137,-1.55199 4.03575,-2.205551 7.37462,-1.367548 C 185.76784,50.979834 186,51.568684 186,56.519052 V 62 h -4.37756 c -2.77417,0 -4.859,-0.58011 -5.69201,-1.583823 z M 182,57.940983 C 182,57.423442 181.55,57 181,57 c -0.55,0 -1,0.701558 -1,1.559017 0,0.857459 0.45,1.280902 1,0.940983 0.55,-0.339919 1,-1.041476 1,-1.559017 z M 206.27236,58 c 0,-2.475 0.19502,-3.4875 0.43337,-2.25 0.23836,1.2375 0.23836,3.2625 0,4.5 -0.23835,1.2375 -0.43337,0.225 -0.43337,-2.25 z m 4,0 c 0,-2.475 0.19502,-3.4875 0.43337,-2.25 0.23836,1.2375 0.23836,3.2625 0,4.5 -0.23835,1.2375 -0.43337,0.225 -0.43337,-2.25 z m -51.70807,-5.706872 c -0.54268,-1.425198 -0.42782,-1.540062 0.5598,-0.559795 0.68342,0.678334 0.99067,1.485241 0.68278,1.793128 -0.30789,0.307888 -0.86705,-0.247112 -1.24258,-1.233333 z m 54,-1 c -0.54268,-1.425198 -0.42782,-1.540062 0.5598,-0.559795 0.68342,0.678334 0.99067,1.485241 0.68278,1.793128 -0.30789,0.307888 -0.86705,-0.247112 -1.24258,-1.233333 z M 128.27684,47.053127 C 125.23707,45.17533 124.19082,43.160434 123.83557,38.5 123.41632,33.000118 124.18092,30.619075 127.4,27.4 130.38909,24.41091 131.42431,24 135.96574,24 142.12328,24 145,25.320336 145,28.146475 c 0,1.866634 -0.37836,1.999917 -3.75,1.320987 -5.40879,-1.089142 -7.35027,-0.811632 -9.52311,1.361207 -2.46262,2.462612 -2.5565,8.597141 -0.1719,11.232092 C 132.52023,43.127342 134.59023,44 136.15499,44 138.523,44 139,43.580846 139,41.5 c 0,-2 -0.5,-2.5 -2.5,-2.5 -2.01365,0 -2.5,-0.496516 -2.5,-2.55226 0,-2.450631 0.20905,-2.540224 5.25,-2.25 l 5.25,0.30226 0.31229,4.933729 c 0.54839,8.663493 0.12998,9.223824 -7.04162,9.430112 -4.74425,0.136467 -7.05526,-0.304301 -9.49383,-1.810714 z M 167.21922,36.75 167.5,24.5 l 3.58559,-0.300564 c 4.32852,-0.36284 4.91976,0.311498 7.95401,9.071886 l 2.34532,6.771321 3.05754,-7.771321 L 187.5,24.5 h 4 4 l 0.28078,12.25 0.28078,12.25 H 193.03078 190 l -0.0529,-8.25 -0.0529,-8.25 -3.06002,8.305525 c -2.85648,7.753081 -3.23542,8.285202 -5.69708,8 -2.34763,-0.271991 -2.98665,-1.293367 -5.82203,-9.305525 l -3.18496,-9 -0.065,9.25 c -0.0648,9.212866 -0.0752,9.25 -2.59582,9.25 h -2.53078 l 0.28078,-12.25 z M 26,35.383504 V 22.767009 l 6.633619,0.422397 c 5.420894,0.345176 6.974822,0.843764 8.5,2.727279 4.181402,5.163812 0.929832,12.337833 -6.101643,13.462211 C 31.104437,40.006935 31,40.126938 31,44.011818 31,47.599212 30.748765,48 28.5,48 H 26 Z M 36.30702,32.885923 C 37.818492,30.47349 36.413332,28 33.531385,28 31.295645,28 31,28.416895 31,31.569551 c 0,3.083984 0.292175,3.526082 2.147872,3.25 1.18133,-0.175753 2.602947,-1.045886 3.159148,-1.933628 z M 46.789367,46.941932 C 44.315597,45.499794 42.962968,39.717991 44.119471,35.529483 45.324222,31.166234 48.359343,29 53.267961,29 58.742173,29 62,32.472907 62,38.308523 62,44.52705 58.681297,48.01122 52.797749,47.969591 50.433987,47.952867 47.730215,47.49042 46.789367,46.941932 Z M 54.8,42.8 c 1.817171,-1.817171 1.512942,-7.742683 -0.435923,-8.490532 -4.02136,-1.543141 -7.067951,4.843801 -3.846939,8.064812 C 52.458166,44.315308 53.209962,44.390038 54.8,42.8 Z m 12.713324,4.013871 C 65.725359,41.846597 63.023612,32.202943 63.012901,30.75 63.003987,29.540816 63.782294,29 65.531385,29 c 2.68642,0 2.710325,0.03658 4.574681,7 l 1.20481,4.5 1.465708,-5.804732 c 1.338217,-5.299826 1.6843,-5.778226 3.978788,-5.5 2.096129,0.254173 2.786569,1.215661 4.161466,5.795141 l 1.648386,5.490408 1.377103,-5.740408 C 85.119552,29.833184 85.650541,29 87.600698,29 c 1.254697,0 2.501776,0.356789 2.771285,0.792864 0.269509,0.436075 -0.684809,4.711075 -2.120707,9.5 C 85.679332,47.870667 85.593165,48 82.450237,48 79.497726,48 79.160708,47.645939 77.928888,43.25 L 76.597853,38.5 75.506919,43 c -0.984995,4.063008 -1.403128,4.53048 -4.305802,4.813871 -1.988625,0.194152 -3.395255,-0.187276 -3.687793,-1 z M 94,46 c -3.05666,-3.05666 -2.799318,-11.291591 0.454545,-14.545455 2.604444,-2.604443 7.203635,-3.243031 10.531115,-1.462222 2.05097,1.097647 4.51755,7.384449 3.52642,8.988127 C 108.16552,39.541202 105.43352,40 102.44098,40 c -5.538105,0 -6.599721,0.793441 -3.975566,2.971296 0.955627,0.7931 2.868966,0.979058 5.499996,0.534547 C 107.54977,42.900269 108,43.045257 108,44.805113 108,47.230316 106.17346,48 100.41821,48 97.333333,48 95.396438,47.396438 94,46 Z m 9,-11.031385 C 103,33.093017 99.8734,32.698029 98.208173,34.363256 96.692514,35.878915 96.809219,36 99.785714,36 101.55357,36 103,35.535877 103,34.968615 Z m 8.42364,11.692994 c -0.28247,-0.736114 -0.38085,-4.898614 -0.21861,-9.25 0.27362,-7.338887 0.45785,-7.934741 2.54497,-8.23116 1.31962,-0.187415 2.25,0.205414 2.25,0.95 0,0.987429 0.26667,1.002884 1.2,0.06955 0.66,-0.66 2.235,-1.2 3.5,-1.2 1.78667,0 2.3,0.557971 2.3,2.5 0,1.740741 -0.54667,2.5 -1.8,2.5 -3.08011,0 -4.2,2.186454 -4.2,8.2 0,5.539176 -0.11384,5.8 -2.53138,5.8 -1.39227,0 -2.7625,-0.602276 -3.04498,-1.33839 z m 49.92144,-11.204737 c -0.32569,-0.848721 -0.36872,-1.766569 -0.0956,-2.039663 0.27309,-0.273095 0.73656,0.421313 1.02992,1.543128 0.62315,2.382929 -0.0692,2.750891 -0.9343,0.496535 z m -6.72154,-2.995531 c -0.96498,-2.514694 -0.68031,-3.163555 0.49853,-1.136338 0.58369,1.003751 0.8506,2.035659 0.59313,2.293128 -0.25747,0.257469 -0.74872,-0.263087 -1.09166,-1.15679 z M 212.5,30 c -0.33992,-0.55 -0.14148,-1 0.44098,-1 0.58246,0 1.05902,0.45 1.05902,1 0,0.55 -0.19844,1 -0.44098,1 -0.24254,0 -0.7191,-0.45 -1.05902,-1 z M 25,12.5 V 10 h 95 95 V 12.5 15 H 120 25 Z"
         id="path11888" />
      <path
         style="fill:#903a00"
         d="m 203.07895,167.41667 c 0.048,-1.16495 0.28494,-1.4019 0.60416,-0.60417 0.28887,0.72187 0.25335,1.58437 -0.0789,1.91667 -0.3323,0.33229 -0.56864,-0.25834 -0.52522,-1.3125 z M 179.14043,135.25 c -0.89093,-1.67658 -1.57443,-7.81639 -1.28021,-11.5 0.17846,-2.2343 5.13978,-2.47562 5.13978,-0.25 0,0.825 0.675,1.5 1.5,1.5 0.825,0 1.5,0.45 1.5,1 0,0.55 -0.675,1 -1.5,1 -1.08333,0 -1.5,1.11111 -1.5,4 0,2.88889 0.41667,4 1.5,4 0.825,0 1.5,0.45 1.5,1 0,1.76236 -5.8653,1.12107 -6.85957,-0.75 z m 23.93852,-5.83333 c 0.048,-1.16495 0.28494,-1.4019 0.60416,-0.60417 0.28887,0.72187 0.25335,1.58437 -0.0789,1.91667 -0.3323,0.33229 -0.56864,-0.25834 -0.52522,-1.3125 z m -26.48518,-13.58626 c -2.00337,-2.86021 -2.01276,-4.7872 -0.0371,-7.6079 3.06729,-4.37917 11.4433,-1.81731 11.4433,3.5 0,0.82808 -1.43646,1.27749 -4.08333,1.27749 -2.83581,0 -3.94825,0.38189 -3.64119,1.25 0.25919,0.73278 1.77856,1.14001 3.67194,0.98418 2.24209,-0.18453 3.10248,0.12128 2.81347,1 -0.22898,0.6962 -2.25166,1.40213 -4.49484,1.56874 -3.30896,0.24576 -4.37923,-0.12643 -5.67228,-1.97251 z m 6.21456,-5.90541 c -0.19708,-0.59125 -0.78583,-1.075 -1.30833,-1.075 -0.5225,0 -1.11125,0.48375 -1.30833,1.075 -0.19709,0.59125 0.39166,1.075 1.30833,1.075 0.91667,0 1.50542,-0.48375 1.30833,-1.075 z M 128.03518,98.065741 C 125.4762,93.284228 127.8576,88 132.57143,88 134.49524,88 135,87.480392 135,85.5 c 0,-1.833333 0.53333,-2.5 2,-2.5 1.84314,0 2,0.666667 2,8.5 v 8.5 h -4.96482 c -3.88511,0 -5.18993,-0.420645 -6,-1.934259 z M 134.5,94 c 0,-1.283333 -0.5625,-2.520833 -1.25,-2.75 -0.82456,-0.274854 -1.25,0.661111 -1.25,2.75 0,2.088889 0.42544,3.024854 1.25,2.75 0.6875,-0.229167 1.25,-1.466667 1.25,-2.75 z M 176,91.5 c 0,-7.833333 0.15686,-8.5 2,-8.5 1.6815,0 2.00484,0.676803 2.03041,4.25 0.0241,3.373147 0.2407,3.888943 1.04969,2.5 0.5606,-0.9625 2.14736,-1.75 3.52613,-1.75 2.48869,0 2.49454,0.02083 0.8074,2.876928 -1.57946,2.673813 -1.58345,3.042528 -0.0565,5.222506 C 187.49481,99.151456 187.42946,100 185.0567,100 c -1.06881,0 -2.64381,-1.000128 -3.5,-2.222506 L 180,95.554988 v 2.222506 C 180,99.333333 179.40008,100 178,100 c -1.84314,0 -2,-0.666667 -2,-8.5 z M 131,75 c 0,-5.333333 0.22222,-6 2,-6 1.77778,0 2,0.666667 2,6 0,5.333333 -0.22222,6 -2,6 -1.77778,0 -2,-0.666667 -2,-6 z m 47,0 v -6 h 4 c 2.88889,0 4,0.416667 4,1.5 0,0.825 -0.62686,1.5 -1.39301,1.5 C 182.92357,72 182,74.154568 182,78.081787 182,80.333333 181.5431,81 180,81 c -1.77778,0 -2,-0.666667 -2,-6 z m -24,-2 c -0.90129,-0.58246 -1.02463,-0.975486 -0.30902,-0.984687 0.65504,-0.0084 1.4691,0.434687 1.80902,0.984687 0.7673,1.241525 0.42112,1.241525 -1.5,0 z m -23.50437,-7.007063 c -0.79429,-1.285201 2.01458,-2.394864 4.06775,-1.606989 C 136.56715,65.154867 135.46364,67 133,67 c -1.03508,0 -2.16205,-0.453178 -2.50437,-1.007063 z M 130,56 v -6 h 4 c 2.88889,0 4,0.416667 4,1.5 0,0.825 -0.62686,1.5 -1.39301,1.5 C 134.92357,53 134,55.154568 134,59.081787 134,61.333333 133.5431,62 132,62 c -1.77778,0 -2,-0.666667 -2,-6 z m 45.93043,4.416177 c -1.7979,-2.166337 -0.0349,-4.820284 3.47972,-5.23832 1.5499,-0.184347 2.53126,-0.825969 2.29424,-1.5 -0.22779,-0.647821 -1.65003,-1.041183 -3.16052,-0.874137 -1.9016,0.210299 -2.61422,-0.09729 -2.31678,-1 0.51137,-1.55199 4.03575,-2.205551 7.37462,-1.367548 C 185.76784,50.979834 186,51.568684 186,56.519052 V 62 h -4.37756 c -2.77417,0 -4.859,-0.58011 -5.69201,-1.583823 z M 182,57.940983 C 182,57.423442 181.55,57 181,57 c -0.55,0 -1,0.701558 -1,1.559017 0,0.857459 0.45,1.280902 1,0.940983 0.55,-0.339919 1,-1.041476 1,-1.559017 z M 128.27684,47.027281 C 125.23771,45.174252 124.19116,43.164856 123.83557,38.5 123.41632,33.000118 124.18092,30.619075 127.4,27.4 130.38909,24.41091 131.42431,24 135.96574,24 142.12328,24 145,25.320336 145,28.146475 c 0,1.866634 -0.37836,1.999917 -3.75,1.320987 -5.40879,-1.089142 -7.35027,-0.811632 -9.52311,1.361207 -2.46262,2.462612 -2.5565,8.597141 -0.1719,11.232092 C 132.52023,43.127342 134.59023,44 136.15499,44 138.523,44 139,43.580846 139,41.5 c 0,-2 -0.5,-2.5 -2.5,-2.5 -2.01365,0 -2.5,-0.496516 -2.5,-2.55226 0,-2.450631 0.20905,-2.540224 5.25,-2.25 l 5.25,0.30226 0.30653,5.97208 c 0.2447,4.767361 -0.046,6.229868 -1.44113,7.25 -2.71188,1.982976 -11.34909,1.585249 -15.08856,-0.694799 z M 167.21922,36.75 167.5,24.5 l 3.58559,-0.300564 c 4.32852,-0.36284 4.91976,0.311498 7.95401,9.071886 l 2.34532,6.771321 3.05754,-7.771321 L 187.5,24.5 h 4 4 l 0.28078,12.25 0.28078,12.25 H 193.03078 190 l -0.0529,-8.25 -0.0529,-8.25 -3.06002,8.305525 c -2.85648,7.753081 -3.23542,8.285202 -5.69708,8 -2.34763,-0.271991 -2.98665,-1.293367 -5.82203,-9.305525 l -3.18496,-9 -0.065,9.25 c -0.0648,9.212866 -0.0752,9.25 -2.59582,9.25 h -2.53078 l 0.28078,-12.25 z M 26,35.383504 V 22.767009 l 6.633619,0.422397 c 5.420894,0.345176 6.974822,0.843764 8.5,2.727279 4.181402,5.163812 0.929832,12.337833 -6.101643,13.462211 C 31.104437,40.006935 31,40.126938 31,44.011818 31,47.599212 30.748765,48 28.5,48 H 26 Z M 36.30702,32.885923 C 37.818492,30.47349 36.413332,28 33.531385,28 31.295645,28 31,28.416895 31,31.569551 c 0,3.083984 0.292175,3.526082 2.147872,3.25 1.18133,-0.175753 2.602947,-1.045886 3.159148,-1.933628 z M 46.789367,46.941932 C 44.315597,45.499794 42.962968,39.717991 44.119471,35.529483 45.324222,31.166234 48.359343,29 53.267961,29 58.742173,29 62,32.472907 62,38.308523 62,44.52705 58.681297,48.01122 52.797749,47.969591 50.433987,47.952867 47.730215,47.49042 46.789367,46.941932 Z M 54.8,42.8 c 1.817171,-1.817171 1.512942,-7.742683 -0.435923,-8.490532 -4.02136,-1.543141 -7.067951,4.843801 -3.846939,8.064812 C 52.458166,44.315308 53.209962,44.390038 54.8,42.8 Z m 12.713324,4.013871 C 65.725359,41.846597 63.023612,32.202943 63.012901,30.75 63.003987,29.540816 63.782294,29 65.531385,29 c 2.68642,0 2.710325,0.03658 4.574681,7 l 1.20481,4.5 1.465708,-5.804732 c 1.338217,-5.299826 1.6843,-5.778226 3.978788,-5.5 2.096129,0.254173 2.786569,1.215661 4.161466,5.795141 l 1.648386,5.490408 1.377103,-5.740408 C 85.119552,29.833184 85.650541,29 87.600698,29 c 1.254697,0 2.501776,0.356789 2.771285,0.792864 0.269509,0.436075 -0.684809,4.711075 -2.120707,9.5 C 85.679332,47.870667 85.593165,48 82.450237,48 79.497726,48 79.160708,47.645939 77.928888,43.25 L 76.597853,38.5 75.506919,43 c -0.984995,4.063008 -1.403128,4.53048 -4.305802,4.813871 -1.988625,0.194152 -3.395255,-0.187276 -3.687793,-1 z M 94,46 c -3.05666,-3.05666 -2.799318,-11.291591 0.454545,-14.545455 2.604444,-2.604443 7.203635,-3.243031 10.531115,-1.462222 2.05097,1.097647 4.51755,7.384449 3.52642,8.988127 C 108.16552,39.541202 105.43352,40 102.44098,40 c -5.538105,0 -6.599721,0.793441 -3.975566,2.971296 0.955627,0.7931 2.868966,0.979058 5.499996,0.534547 C 107.54977,42.900269 108,43.045257 108,44.805113 108,47.230316 106.17346,48 100.41821,48 97.333333,48 95.396438,47.396438 94,46 Z m 9,-11.031385 C 103,33.093017 99.8734,32.698029 98.208173,34.363256 96.692514,35.878915 96.809219,36 99.785714,36 101.55357,36 103,35.535877 103,34.968615 Z m 8.42364,11.692994 c -0.28247,-0.736114 -0.38085,-4.898614 -0.21861,-9.25 0.27362,-7.338887 0.45785,-7.934741 2.54497,-8.23116 1.31962,-0.187415 2.25,0.205414 2.25,0.95 0,0.987429 0.26667,1.002884 1.2,0.06955 0.66,-0.66 2.235,-1.2 3.5,-1.2 1.78667,0 2.3,0.557971 2.3,2.5 0,1.740741 -0.54667,2.5 -1.8,2.5 -3.08011,0 -4.2,2.186454 -4.2,8.2 0,5.539176 -0.11384,5.8 -2.53138,5.8 -1.39227,0 -2.7625,-0.602276 -3.04498,-1.33839 z M 25,12.5 V 10 h 95 95 V 12.5 15 H 120 25 Z"
         id="path11886" />
      <path
         style="fill:#874300"
         d="m 179.14043,135.25 c -0.89093,-1.67658 -1.57443,-7.81639 -1.28021,-11.5 0.17846,-2.2343 5.13978,-2.47562 5.13978,-0.25 0,0.825 0.675,1.5 1.5,1.5 0.825,0 1.5,0.45 1.5,1 0,0.55 -0.675,1 -1.5,1 -1.08333,0 -1.5,1.11111 -1.5,4 0,2.88889 0.41667,4 1.5,4 0.825,0 1.5,0.45 1.5,1 0,1.76236 -5.8653,1.12107 -6.85957,-0.75 z m -2.54666,-19.41959 c -2.00337,-2.86021 -2.01276,-4.7872 -0.0371,-7.6079 3.06729,-4.37917 11.4433,-1.81731 11.4433,3.5 0,0.82808 -1.43646,1.27749 -4.08333,1.27749 -2.83581,0 -3.94825,0.38189 -3.64119,1.25 0.25919,0.73278 1.77856,1.14001 3.67194,0.98418 2.24209,-0.18453 3.10248,0.12128 2.81347,1 -0.22898,0.6962 -2.25166,1.40213 -4.49484,1.56874 -3.30896,0.24576 -4.37923,-0.12643 -5.67228,-1.97251 z m 6.21456,-5.90541 c -0.19708,-0.59125 -0.78583,-1.075 -1.30833,-1.075 -0.5225,0 -1.11125,0.48375 -1.30833,1.075 -0.19709,0.59125 0.39166,1.075 1.30833,1.075 0.91667,0 1.50542,-0.48375 1.30833,-1.075 z M 128.03518,98.065741 C 125.4762,93.284228 127.8576,88 132.57143,88 134.49524,88 135,87.480392 135,85.5 c 0,-1.833333 0.53333,-2.5 2,-2.5 1.84314,0 2,0.666667 2,8.5 v 8.5 h -4.96482 c -3.88511,0 -5.18993,-0.420645 -6,-1.934259 z M 134.5,94 c 0,-1.283333 -0.5625,-2.520833 -1.25,-2.75 -0.82456,-0.274854 -1.25,0.661111 -1.25,2.75 0,2.088889 0.42544,3.024854 1.25,2.75 0.6875,-0.229167 1.25,-1.466667 1.25,-2.75 z M 176,91.5 c 0,-7.833333 0.15686,-8.5 2,-8.5 1.6815,0 2.00484,0.676803 2.03041,4.25 0.0241,3.373147 0.2407,3.888943 1.04969,2.5 0.5606,-0.9625 2.14736,-1.75 3.52613,-1.75 2.48869,0 2.49454,0.02083 0.8074,2.876928 -1.57946,2.673813 -1.58345,3.042528 -0.0565,5.222506 C 187.49481,99.151456 187.42946,100 185.0567,100 c -1.06881,0 -2.64381,-1.000128 -3.5,-2.222506 L 180,95.554988 v 2.222506 C 180,99.333333 179.40008,100 178,100 c -1.84314,0 -2,-0.666667 -2,-8.5 z M 131,75 c 0,-5.333333 0.22222,-6 2,-6 1.77778,0 2,0.666667 2,6 0,5.333333 -0.22222,6 -2,6 -1.77778,0 -2,-0.666667 -2,-6 z m 47,0 v -6 h 4 c 2.88889,0 4,0.416667 4,1.5 0,0.825 -0.62686,1.5 -1.39301,1.5 C 182.92357,72 182,74.154568 182,78.081787 182,80.333333 181.5431,81 180,81 c -1.77778,0 -2,-0.666667 -2,-6 z m -47.50437,-9.007063 c -0.79429,-1.285201 2.01458,-2.394864 4.06775,-1.606989 C 136.56715,65.154867 135.46364,67 133,67 c -1.03508,0 -2.16205,-0.453178 -2.50437,-1.007063 z M 130,56 v -6 h 4 c 2.88889,0 4,0.416667 4,1.5 0,0.825 -0.62686,1.5 -1.39301,1.5 C 134.92357,53 134,55.154568 134,59.081787 134,61.333333 133.5431,62 132,62 c -1.77778,0 -2,-0.666667 -2,-6 z m 45.93043,4.416177 c -1.7979,-2.166337 -0.0349,-4.820284 3.47972,-5.23832 1.5499,-0.184347 2.53126,-0.825969 2.29424,-1.5 -0.22779,-0.647821 -1.65003,-1.041183 -3.16052,-0.874137 -1.9016,0.210299 -2.61422,-0.09729 -2.31678,-1 0.51137,-1.55199 4.03575,-2.205551 7.37462,-1.367548 C 185.76784,50.979834 186,51.568684 186,56.519052 V 62 h -4.37756 c -2.77417,0 -4.859,-0.58011 -5.69201,-1.583823 z M 182,57.940983 C 182,57.423442 181.55,57 181,57 c -0.55,0 -1,0.701558 -1,1.559017 0,0.857459 0.45,1.280902 1,0.940983 0.55,-0.339919 1,-1.041476 1,-1.559017 z M 128.27684,47.027281 C 125.23771,45.174252 124.19116,43.164856 123.83557,38.5 123.41632,33.000118 124.18092,30.619075 127.4,27.4 130.38909,24.41091 131.42431,24 135.96574,24 142.12328,24 145,25.320336 145,28.146475 c 0,1.866634 -0.37836,1.999917 -3.75,1.320987 -5.40879,-1.089142 -7.35027,-0.811632 -9.52311,1.361207 -2.46262,2.462612 -2.5565,8.597141 -0.1719,11.232092 C 132.52023,43.127342 134.59023,44 136.15499,44 138.523,44 139,43.580846 139,41.5 c 0,-2 -0.5,-2.5 -2.5,-2.5 -2.01365,0 -2.5,-0.496516 -2.5,-2.55226 0,-2.450631 0.20905,-2.540224 5.25,-2.25 l 5.25,0.30226 0.30653,5.97208 c 0.2447,4.767361 -0.046,6.229868 -1.44113,7.25 -2.71188,1.982976 -11.34909,1.585249 -15.08856,-0.694799 z M 167.21922,36.75 167.5,24.5 l 3.58559,-0.300564 c 4.32852,-0.36284 4.91976,0.311498 7.95401,9.071886 l 2.34532,6.771321 3.05754,-7.771321 L 187.5,24.5 h 4 4 l 0.28078,12.25 0.28078,12.25 H 193.03078 190 l -0.0529,-8.25 -0.0529,-8.25 -3.06002,8.305525 c -2.85648,7.753081 -3.23542,8.285202 -5.69708,8 -2.34763,-0.271991 -2.98665,-1.293367 -5.82203,-9.305525 l -3.18496,-9 -0.065,9.25 c -0.0648,9.212866 -0.0752,9.25 -2.59582,9.25 h -2.53078 l 0.28078,-12.25 z M 26,35.383504 V 22.767009 l 6.633619,0.422397 c 5.420894,0.345176 6.974822,0.843764 8.5,2.727279 4.181402,5.163812 0.929832,12.337833 -6.101643,13.462211 C 31.104437,40.006935 31,40.126938 31,44.011818 31,47.599212 30.748765,48 28.5,48 H 26 Z M 36.30702,32.885923 C 37.818492,30.47349 36.413332,28 33.531385,28 31.295645,28 31,28.416895 31,31.569551 c 0,3.083984 0.292175,3.526082 2.147872,3.25 1.18133,-0.175753 2.602947,-1.045886 3.159148,-1.933628 z M 46.789367,46.941932 C 44.315597,45.499794 42.962968,39.717991 44.119471,35.529483 45.324222,31.166234 48.359343,29 53.267961,29 58.742173,29 62,32.472907 62,38.308523 62,44.52705 58.681297,48.01122 52.797749,47.969591 50.433987,47.952867 47.730215,47.49042 46.789367,46.941932 Z M 54.8,42.8 c 1.817171,-1.817171 1.512942,-7.742683 -0.435923,-8.490532 -4.02136,-1.543141 -7.067951,4.843801 -3.846939,8.064812 C 52.458166,44.315308 53.209962,44.390038 54.8,42.8 Z m 12.713324,4.013871 C 65.725359,41.846597 63.023612,32.202943 63.012901,30.75 63.003987,29.540816 63.782294,29 65.531385,29 c 2.68642,0 2.710325,0.03658 4.574681,7 l 1.20481,4.5 1.465708,-5.804732 c 1.338217,-5.299826 1.6843,-5.778226 3.978788,-5.5 2.096129,0.254173 2.786569,1.215661 4.161466,5.795141 l 1.648386,5.490408 1.377103,-5.740408 C 85.119552,29.833184 85.650541,29 87.600698,29 c 1.254697,0 2.501776,0.356789 2.771285,0.792864 0.269509,0.436075 -0.684809,4.711075 -2.120707,9.5 C 85.679332,47.870667 85.593165,48 82.450237,48 79.497726,48 79.160708,47.645939 77.928888,43.25 L 76.597853,38.5 75.506919,43 c -0.984995,4.063008 -1.403128,4.53048 -4.305802,4.813871 -1.988625,0.194152 -3.395255,-0.187276 -3.687793,-1 z M 94,46 c -3.05666,-3.05666 -2.799318,-11.291591 0.454545,-14.545455 2.604444,-2.604443 7.203635,-3.243031 10.531115,-1.462222 2.05097,1.097647 4.51755,7.384449 3.52642,8.988127 C 108.16552,39.541202 105.43352,40 102.44098,40 c -5.538105,0 -6.599721,0.793441 -3.975566,2.971296 0.955627,0.7931 2.868966,0.979058 5.499996,0.534547 C 107.54977,42.900269 108,43.045257 108,44.805113 108,47.230316 106.17346,48 100.41821,48 97.333333,48 95.396438,47.396438 94,46 Z m 9,-11.031385 C 103,33.093017 99.8734,32.698029 98.208173,34.363256 96.692514,35.878915 96.809219,36 99.785714,36 101.55357,36 103,35.535877 103,34.968615 Z m 8.42364,11.692994 c -0.28247,-0.736114 -0.38085,-4.898614 -0.21861,-9.25 0.27362,-7.338887 0.45785,-7.934741 2.54497,-8.23116 1.31962,-0.187415 2.25,0.205414 2.25,0.95 0,0.987429 0.26667,1.002884 1.2,0.06955 0.66,-0.66 2.235,-1.2 3.5,-1.2 1.78667,0 2.3,0.557971 2.3,2.5 0,1.740741 -0.54667,2.5 -1.8,2.5 -3.08011,0 -4.2,2.186454 -4.2,8.2 0,5.539176 -0.11384,5.8 -2.53138,5.8 -1.39227,0 -2.7625,-0.602276 -3.04498,-1.33839 z M 25,12.5 V 10 h 95 95 V 12.5 15 H 120 25 Z"
         id="path11884" />
      <path
         style="fill:#863200"
         d="m 179.14043,135.25 c -0.89093,-1.67658 -1.57443,-7.81639 -1.28021,-11.5 0.17846,-2.2343 5.13978,-2.47562 5.13978,-0.25 0,0.825 0.675,1.5 1.5,1.5 0.825,0 1.5,0.45 1.5,1 0,0.55 -0.675,1 -1.5,1 -1.08333,0 -1.5,1.11111 -1.5,4 0,2.88889 0.41667,4 1.5,4 0.825,0 1.5,0.45 1.5,1 0,1.76236 -5.8653,1.12107 -6.85957,-0.75 z m -2.54666,-19.41959 c -2.00337,-2.86021 -2.01276,-4.7872 -0.0371,-7.6079 3.06729,-4.37917 11.4433,-1.81731 11.4433,3.5 0,0.82808 -1.43646,1.27749 -4.08333,1.27749 -2.83581,0 -3.94825,0.38189 -3.64119,1.25 0.25919,0.73278 1.77856,1.14001 3.67194,0.98418 2.24209,-0.18453 3.10248,0.12128 2.81347,1 -0.22898,0.6962 -2.25166,1.40213 -4.49484,1.56874 -3.30896,0.24576 -4.37923,-0.12643 -5.67228,-1.97251 z m 6.21456,-5.90541 c -0.19708,-0.59125 -0.78583,-1.075 -1.30833,-1.075 -0.5225,0 -1.11125,0.48375 -1.30833,1.075 -0.19709,0.59125 0.39166,1.075 1.30833,1.075 0.91667,0 1.50542,-0.48375 1.30833,-1.075 z M 128.03518,98.065741 C 125.4762,93.284228 127.8576,88 132.57143,88 134.49524,88 135,87.480392 135,85.5 c 0,-1.833333 0.53333,-2.5 2,-2.5 1.84314,0 2,0.666667 2,8.5 v 8.5 h -4.96482 c -3.88511,0 -5.18993,-0.420645 -6,-1.934259 z M 134.5,94 c 0,-1.283333 -0.5625,-2.520833 -1.25,-2.75 -0.82456,-0.274854 -1.25,0.661111 -1.25,2.75 0,2.088889 0.42544,3.024854 1.25,2.75 0.6875,-0.229167 1.25,-1.466667 1.25,-2.75 z M 176,91.5 c 0,-7.833333 0.15686,-8.5 2,-8.5 1.6815,0 2.00484,0.676803 2.03041,4.25 0.0241,3.373147 0.2407,3.888943 1.04969,2.5 0.5606,-0.9625 2.14736,-1.75 3.52613,-1.75 2.48869,0 2.49454,0.02083 0.8074,2.876928 -1.57946,2.673813 -1.58345,3.042528 -0.0565,5.222506 C 187.49481,99.151456 187.42946,100 185.0567,100 c -1.06881,0 -2.64381,-1.000128 -3.5,-2.222506 L 180,95.554988 v 2.222506 C 180,99.333333 179.40008,100 178,100 c -1.84314,0 -2,-0.666667 -2,-8.5 z M 131,75 c 0,-5.333333 0.22222,-6 2,-6 1.77778,0 2,0.666667 2,6 0,5.333333 -0.22222,6 -2,6 -1.77778,0 -2,-0.666667 -2,-6 z m 47,0 v -6 h 4 c 2.88889,0 4,0.416667 4,1.5 0,0.825 -0.62686,1.5 -1.39301,1.5 C 182.92357,72 182,74.154568 182,78.081787 182,80.333333 181.5431,81 180,81 c -1.77778,0 -2,-0.666667 -2,-6 z m -47.50437,-9.007063 c -0.79429,-1.285201 2.01458,-2.394864 4.06775,-1.606989 C 136.56715,65.154867 135.46364,67 133,67 c -1.03508,0 -2.16205,-0.453178 -2.50437,-1.007063 z M 130,56 v -6 h 4 c 2.88889,0 4,0.416667 4,1.5 0,0.825 -0.62686,1.5 -1.39301,1.5 C 134.92357,53 134,55.154568 134,59.081787 134,61.333333 133.5431,62 132,62 c -1.77778,0 -2,-0.666667 -2,-6 z m 45.93043,4.416177 c -1.7979,-2.166337 -0.0349,-4.820284 3.47972,-5.23832 1.5499,-0.184347 2.53126,-0.825969 2.29424,-1.5 -0.22779,-0.647821 -1.65003,-1.041183 -3.16052,-0.874137 -1.9016,0.210299 -2.61422,-0.09729 -2.31678,-1 0.51137,-1.55199 4.03575,-2.205551 7.37462,-1.367548 C 185.76784,50.979834 186,51.568684 186,56.519052 V 62 h -4.37756 c -2.77417,0 -4.859,-0.58011 -5.69201,-1.583823 z M 182,57.940983 C 182,57.423442 181.55,57 181,57 c -0.55,0 -1,0.701558 -1,1.559017 0,0.857459 0.45,1.280902 1,0.940983 0.55,-0.339919 1,-1.041476 1,-1.559017 z M 128.27684,47.027281 C 125.23771,45.174252 124.19116,43.164856 123.83557,38.5 123.41632,33.000118 124.18092,30.619075 127.4,27.4 130.38909,24.41091 131.42431,24 135.96574,24 142.12328,24 145,25.320336 145,28.146475 c 0,1.866634 -0.37836,1.999917 -3.75,1.320987 -5.40879,-1.089142 -7.35027,-0.811632 -9.52311,1.361207 -2.46262,2.462612 -2.5565,8.597141 -0.1719,11.232092 C 132.52023,43.127342 134.59023,44 136.15499,44 138.523,44 139,43.580846 139,41.5 c 0,-2 -0.5,-2.5 -2.5,-2.5 -2.01365,0 -2.5,-0.496516 -2.5,-2.55226 0,-2.450631 0.20905,-2.540224 5.25,-2.25 l 5.25,0.30226 0.29639,5.632183 c 0.3834,7.285681 -1.06677,8.869169 -8.11782,8.864079 -3.38255,-0.0024 -6.29642,-0.68532 -8.40173,-1.968981 z M 167.21922,36.75 167.5,24.5 l 3.58559,-0.300564 c 4.32852,-0.36284 4.91976,0.311498 7.95401,9.071886 l 2.34532,6.771321 3.05754,-7.771321 L 187.5,24.5 h 4 4 l 0.28078,12.25 0.28078,12.25 H 193.03078 190 l -0.0529,-8.25 -0.0529,-8.25 -3.06002,8.305525 c -2.85648,7.753081 -3.23542,8.285202 -5.69708,8 -2.34763,-0.271991 -2.98665,-1.293367 -5.82203,-9.305525 l -3.18496,-9 -0.065,9.25 c -0.0648,9.212866 -0.0752,9.25 -2.59582,9.25 h -2.53078 l 0.28078,-12.25 z M 26,35.383504 V 22.767009 l 6.633619,0.422397 c 5.420894,0.345176 6.974822,0.843764 8.5,2.727279 4.181402,5.163812 0.929832,12.337833 -6.101643,13.462211 C 31.104437,40.006935 31,40.126938 31,44.011818 31,47.599212 30.748765,48 28.5,48 H 26 Z M 36.30702,32.885923 C 37.818492,30.47349 36.413332,28 33.531385,28 31.295645,28 31,28.416895 31,31.569551 c 0,3.083984 0.292175,3.526082 2.147872,3.25 1.18133,-0.175753 2.602947,-1.045886 3.159148,-1.933628 z M 46.789367,46.941932 C 44.315597,45.499794 42.962968,39.717991 44.119471,35.529483 45.324222,31.166234 48.359343,29 53.267961,29 58.742173,29 62,32.472907 62,38.308523 62,44.52705 58.681297,48.01122 52.797749,47.969591 50.433987,47.952867 47.730215,47.49042 46.789367,46.941932 Z M 54.8,42.8 c 1.817171,-1.817171 1.512942,-7.742683 -0.435923,-8.490532 -4.02136,-1.543141 -7.067951,4.843801 -3.846939,8.064812 C 52.458166,44.315308 53.209962,44.390038 54.8,42.8 Z m 12.713324,4.013871 C 65.725359,41.846597 63.023612,32.202943 63.012901,30.75 63.003987,29.540816 63.782294,29 65.531385,29 c 2.68642,0 2.710325,0.03658 4.574681,7 l 1.20481,4.5 1.465708,-5.804732 c 1.338217,-5.299826 1.6843,-5.778226 3.978788,-5.5 2.096129,0.254173 2.786569,1.215661 4.161466,5.795141 l 1.648386,5.490408 1.377103,-5.740408 C 85.119552,29.833184 85.650541,29 87.600698,29 c 1.254697,0 2.501776,0.356789 2.771285,0.792864 0.269509,0.436075 -0.684809,4.711075 -2.120707,9.5 C 85.679332,47.870667 85.593165,48 82.450237,48 79.497726,48 79.160708,47.645939 77.928888,43.25 L 76.597853,38.5 75.506919,43 c -0.984995,4.063008 -1.403128,4.53048 -4.305802,4.813871 -1.988625,0.194152 -3.395255,-0.187276 -3.687793,-1 z M 94,46 c -3.05666,-3.05666 -2.799318,-11.291591 0.454545,-14.545455 2.604444,-2.604443 7.203635,-3.243031 10.531115,-1.462222 2.05097,1.097647 4.51755,7.384449 3.52642,8.988127 C 108.16552,39.541202 105.43352,40 102.44098,40 c -5.538105,0 -6.599721,0.793441 -3.975566,2.971296 0.955627,0.7931 2.868966,0.979058 5.499996,0.534547 C 107.54977,42.900269 108,43.045257 108,44.805113 108,47.230316 106.17346,48 100.41821,48 97.333333,48 95.396438,47.396438 94,46 Z m 9,-11.031385 C 103,33.093017 99.8734,32.698029 98.208173,34.363256 96.692514,35.878915 96.809219,36 99.785714,36 101.55357,36 103,35.535877 103,34.968615 Z m 8.42364,11.692994 c -0.28247,-0.736114 -0.38085,-4.898614 -0.21861,-9.25 0.27362,-7.338887 0.45785,-7.934741 2.54497,-8.23116 1.31962,-0.187415 2.25,0.205414 2.25,0.95 0,0.987429 0.26667,1.002884 1.2,0.06955 0.66,-0.66 2.235,-1.2 3.5,-1.2 1.78667,0 2.3,0.557971 2.3,2.5 0,1.740741 -0.54667,2.5 -1.8,2.5 -3.08011,0 -4.2,2.186454 -4.2,8.2 0,5.539176 -0.11384,5.8 -2.53138,5.8 -1.39227,0 -2.7625,-0.602276 -3.04498,-1.33839 z M 25,12.5 V 10 h 95 95 V 12.5 15 H 120 25 Z"
         id="path11882" />
      <path
         style="fill:#4d2303"
         d="m 179.14043,135.25 c -0.89093,-1.67658 -1.57443,-7.81639 -1.28021,-11.5 0.17846,-2.2343 5.13978,-2.47562 5.13978,-0.25 0,0.825 0.675,1.5 1.5,1.5 0.825,0 1.5,0.45 1.5,1 0,0.55 -0.675,1 -1.5,1 -1.08333,0 -1.5,1.11111 -1.5,4 0,2.88889 0.41667,4 1.5,4 0.825,0 1.5,0.45 1.5,1 0,1.76236 -5.8653,1.12107 -6.85957,-0.75 z m -2.54666,-19.41959 c -2.00337,-2.86021 -2.01276,-4.7872 -0.0371,-7.6079 3.06729,-4.37917 11.4433,-1.81731 11.4433,3.5 0,0.82808 -1.43646,1.27749 -4.08333,1.27749 -2.83581,0 -3.94825,0.38189 -3.64119,1.25 0.25919,0.73278 1.77856,1.14001 3.67194,0.98418 2.24209,-0.18453 3.10248,0.12128 2.81347,1 -0.22898,0.6962 -2.25166,1.40213 -4.49484,1.56874 -3.30896,0.24576 -4.37923,-0.12643 -5.67228,-1.97251 z m 6.21456,-5.90541 c -0.19708,-0.59125 -0.78583,-1.075 -1.30833,-1.075 -0.5225,0 -1.11125,0.48375 -1.30833,1.075 -0.19709,0.59125 0.39166,1.075 1.30833,1.075 0.91667,0 1.50542,-0.48375 1.30833,-1.075 z M 128.03518,98.065741 C 125.4762,93.284228 127.8576,88 132.57143,88 134.49524,88 135,87.480392 135,85.5 c 0,-1.833333 0.53333,-2.5 2,-2.5 1.84314,0 2,0.666667 2,8.5 v 8.5 h -4.96482 c -3.88511,0 -5.18993,-0.420645 -6,-1.934259 z M 134.5,94 c 0,-1.283333 -0.5625,-2.520833 -1.25,-2.75 -0.82456,-0.274854 -1.25,0.661111 -1.25,2.75 0,2.088889 0.42544,3.024854 1.25,2.75 0.6875,-0.229167 1.25,-1.466667 1.25,-2.75 z M 176,91.5 c 0,-7.833333 0.15686,-8.5 2,-8.5 1.6815,0 2.00484,0.676803 2.03041,4.25 0.0241,3.373147 0.2407,3.888943 1.04969,2.5 0.5606,-0.9625 2.14736,-1.75 3.52613,-1.75 2.48869,0 2.49454,0.02083 0.8074,2.876928 -1.57946,2.673813 -1.58345,3.042528 -0.0565,5.222506 C 187.49481,99.151456 187.42946,100 185.0567,100 c -1.06881,0 -2.64381,-1.000128 -3.5,-2.222506 L 180,95.554988 v 2.222506 C 180,99.333333 179.40008,100 178,100 c -1.84314,0 -2,-0.666667 -2,-8.5 z M 131,75 c 0,-5.333333 0.22222,-6 2,-6 1.77778,0 2,0.666667 2,6 0,5.333333 -0.22222,6 -2,6 -1.77778,0 -2,-0.666667 -2,-6 z m 47,0 v -6 h 4 c 2.88889,0 4,0.416667 4,1.5 0,0.825 -0.62686,1.5 -1.39301,1.5 C 182.92357,72 182,74.154568 182,78.081787 182,80.333333 181.5431,81 180,81 c -1.77778,0 -2,-0.666667 -2,-6 z m -47.50437,-9.007063 c -0.79429,-1.285201 2.01458,-2.394864 4.06775,-1.606989 C 136.56715,65.154867 135.46364,67 133,67 c -1.03508,0 -2.16205,-0.453178 -2.50437,-1.007063 z M 130,56 v -6 h 4 c 2.88889,0 4,0.416667 4,1.5 0,0.825 -0.62686,1.5 -1.39301,1.5 C 134.92357,53 134,55.154568 134,59.081787 134,61.333333 133.5431,62 132,62 c -1.77778,0 -2,-0.666667 -2,-6 z m 45.93043,4.416177 c -1.7979,-2.166337 -0.0349,-4.820284 3.47972,-5.23832 1.5499,-0.184347 2.53126,-0.825969 2.29424,-1.5 -0.22779,-0.647821 -1.65003,-1.041183 -3.16052,-0.874137 -1.9016,0.210299 -2.61422,-0.09729 -2.31678,-1 0.51137,-1.55199 4.03575,-2.205551 7.37462,-1.367548 C 185.76784,50.979834 186,51.568684 186,56.519052 V 62 h -4.37756 c -2.77417,0 -4.859,-0.58011 -5.69201,-1.583823 z M 182,57.940983 C 182,57.423442 181.55,57 181,57 c -0.55,0 -1,0.701558 -1,1.559017 0,0.857459 0.45,1.280902 1,0.940983 0.55,-0.339919 1,-1.041476 1,-1.559017 z M 128.27684,47.027281 C 125.23771,45.174252 124.19116,43.164856 123.83557,38.5 123.41632,33.000118 124.18092,30.619075 127.4,27.4 130.38909,24.41091 131.42431,24 135.96574,24 142.12328,24 145,25.320336 145,28.146475 c 0,1.866634 -0.37836,1.999917 -3.75,1.320987 -5.40879,-1.089142 -7.35027,-0.811632 -9.52311,1.361207 -2.46262,2.462612 -2.5565,8.597141 -0.1719,11.232092 C 132.52023,43.127342 134.59023,44 136.15499,44 138.523,44 139,43.580846 139,41.5 c 0,-2 -0.5,-2.5 -2.5,-2.5 -2.01365,0 -2.5,-0.496516 -2.5,-2.55226 0,-2.450631 0.20905,-2.540224 5.25,-2.25 l 5.25,0.30226 0.29639,5.632183 c 0.3834,7.285681 -1.06677,8.869169 -8.11782,8.864079 -3.38255,-0.0024 -6.29642,-0.68532 -8.40173,-1.968981 z M 167.21922,36.75 167.5,24.5 l 3.58559,-0.300564 c 4.32852,-0.36284 4.91976,0.311498 7.95401,9.071886 l 2.34532,6.771321 3.05754,-7.771321 L 187.5,24.5 h 4 4 l 0.28078,12.25 0.28078,12.25 H 193.03078 190 l -0.0529,-8.25 -0.0529,-8.25 -3.06002,8.305525 c -2.85648,7.753081 -3.23542,8.285202 -5.69708,8 -2.34763,-0.271991 -2.98665,-1.293367 -5.82203,-9.305525 l -3.18496,-9 -0.065,9.25 c -0.0648,9.212866 -0.0752,9.25 -2.59582,9.25 h -2.53078 l 0.28078,-12.25 z M 26,35.383504 V 22.767009 l 6.633619,0.422397 c 5.420894,0.345176 6.974822,0.843764 8.5,2.727279 4.181402,5.163812 0.929832,12.337833 -6.101643,13.462211 C 31.104437,40.006935 31,40.126938 31,44.011818 31,47.599212 30.748765,48 28.5,48 H 26 Z M 36.30702,32.885923 C 37.818492,30.47349 36.413332,28 33.531385,28 31.295645,28 31,28.416895 31,31.569551 c 0,3.083984 0.292175,3.526082 2.147872,3.25 1.18133,-0.175753 2.602947,-1.045886 3.159148,-1.933628 z M 46.789367,46.941932 C 44.315597,45.499794 42.962968,39.717991 44.119471,35.529483 45.324222,31.166234 48.359343,29 53.267961,29 58.742173,29 62,32.472907 62,38.308523 62,44.52705 58.681297,48.01122 52.797749,47.969591 50.433987,47.952867 47.730215,47.49042 46.789367,46.941932 Z M 54.8,42.8 c 1.817171,-1.817171 1.512942,-7.742683 -0.435923,-8.490532 -4.02136,-1.543141 -7.067951,4.843801 -3.846939,8.064812 C 52.458166,44.315308 53.209962,44.390038 54.8,42.8 Z m 12.713324,4.013871 C 65.725359,41.846597 63.023612,32.202943 63.012901,30.75 63.003987,29.540816 63.782294,29 65.531385,29 c 2.68642,0 2.710325,0.03658 4.574681,7 l 1.20481,4.5 1.465708,-5.804732 c 1.338217,-5.299826 1.6843,-5.778226 3.978788,-5.5 2.096129,0.254173 2.786569,1.215661 4.161466,5.795141 l 1.648386,5.490408 1.377103,-5.740408 C 85.119552,29.833184 85.650541,29 87.600698,29 c 1.254697,0 2.501776,0.356789 2.771285,0.792864 0.269509,0.436075 -0.684809,4.711075 -2.120707,9.5 C 85.679332,47.870667 85.593165,48 82.450237,48 79.497726,48 79.160708,47.645939 77.928888,43.25 L 76.597853,38.5 75.506919,43 c -0.984995,4.063008 -1.403128,4.53048 -4.305802,4.813871 -1.988625,0.194152 -3.395255,-0.187276 -3.687793,-1 z M 94,46 c -3.05666,-3.05666 -2.799318,-11.291591 0.454545,-14.545455 2.604444,-2.604443 7.203635,-3.243031 10.531115,-1.462222 2.05097,1.097647 4.51755,7.384449 3.52642,8.988127 C 108.16552,39.541202 105.43352,40 102.44098,40 c -5.538105,0 -6.599721,0.793441 -3.975566,2.971296 0.955627,0.7931 2.868966,0.979058 5.499996,0.534547 C 107.54977,42.900269 108,43.045257 108,44.805113 108,47.230316 106.17346,48 100.41821,48 97.333333,48 95.396438,47.396438 94,46 Z m 9,-11.031385 C 103,33.093017 99.8734,32.698029 98.208173,34.363256 96.692514,35.878915 96.809219,36 99.785714,36 101.55357,36 103,35.535877 103,34.968615 Z m 8.42364,11.692994 c -0.28247,-0.736114 -0.38085,-4.898614 -0.21861,-9.25 0.27362,-7.338887 0.45785,-7.934741 2.54497,-8.23116 1.31962,-0.187415 2.25,0.205414 2.25,0.95 0,0.987429 0.26667,1.002884 1.2,0.06955 0.66,-0.66 2.235,-1.2 3.5,-1.2 1.78667,0 2.3,0.557971 2.3,2.5 0,1.740741 -0.54667,2.5 -1.8,2.5 -3.08011,0 -4.2,2.186454 -4.2,8.2 0,5.539176 -0.11384,5.8 -2.53138,5.8 -1.39227,0 -2.7625,-0.602276 -3.04498,-1.33839 z M 25,12.5 V 10 h 95 95 V 12.5 15 H 120 25 Z"
         id="path11880" />
      <path
         style="fill:#000000"
         d="m 179.14043,135.25 c -0.89093,-1.67658 -1.57443,-7.81639 -1.28021,-11.5 0.17846,-2.2343 5.13978,-2.47562 5.13978,-0.25 0,0.825 0.675,1.5 1.5,1.5 0.825,0 1.5,0.45 1.5,1 0,0.55 -0.675,1 -1.5,1 -1.08333,0 -1.5,1.11111 -1.5,4 0,2.88889 0.41667,4 1.5,4 0.825,0 1.5,0.45 1.5,1 0,1.76236 -5.8653,1.12107 -6.85957,-0.75 z m -2.54666,-19.41959 c -2.00337,-2.86021 -2.01276,-4.7872 -0.0371,-7.6079 3.06729,-4.37917 11.4433,-1.81731 11.4433,3.5 0,0.82808 -1.43646,1.27749 -4.08333,1.27749 -2.83581,0 -3.94825,0.38189 -3.64119,1.25 0.25919,0.73278 1.77856,1.14001 3.67194,0.98418 2.24209,-0.18453 3.10248,0.12128 2.81347,1 -0.22898,0.6962 -2.25166,1.40213 -4.49484,1.56874 -3.30896,0.24576 -4.37923,-0.12643 -5.67228,-1.97251 z m 6.21456,-5.90541 c -0.19708,-0.59125 -0.78583,-1.075 -1.30833,-1.075 -0.5225,0 -1.11125,0.48375 -1.30833,1.075 -0.19709,0.59125 0.39166,1.075 1.30833,1.075 0.91667,0 1.50542,-0.48375 1.30833,-1.075 z M 128.03518,98.065741 C 125.4762,93.284228 127.8576,88 132.57143,88 134.49524,88 135,87.480392 135,85.5 c 0,-1.833333 0.53333,-2.5 2,-2.5 1.84314,0 2,0.666667 2,8.5 v 8.5 h -4.96482 c -3.88511,0 -5.18993,-0.420645 -6,-1.934259 z M 134.5,94 c 0,-1.283333 -0.5625,-2.520833 -1.25,-2.75 -0.82456,-0.274854 -1.25,0.661111 -1.25,2.75 0,2.088889 0.42544,3.024854 1.25,2.75 0.6875,-0.229167 1.25,-1.466667 1.25,-2.75 z M 176,91.5 c 0,-7.833333 0.15686,-8.5 2,-8.5 1.6815,0 2.00484,0.676803 2.03041,4.25 0.0241,3.373147 0.2407,3.888943 1.04969,2.5 0.5606,-0.9625 2.14736,-1.75 3.52613,-1.75 2.48869,0 2.49454,0.02083 0.8074,2.876928 -1.57946,2.673813 -1.58345,3.042528 -0.0565,5.222506 C 187.49481,99.151456 187.42946,100 185.0567,100 c -1.06881,0 -2.64381,-1.000128 -3.5,-2.222506 L 180,95.554988 v 2.222506 C 180,99.333333 179.40008,100 178,100 c -1.84314,0 -2,-0.666667 -2,-8.5 z M 131,75 c 0,-5.333333 0.22222,-6 2,-6 1.77778,0 2,0.666667 2,6 0,5.333333 -0.22222,6 -2,6 -1.77778,0 -2,-0.666667 -2,-6 z m 47,0 v -6 h 4 c 2.88889,0 4,0.416667 4,1.5 0,0.825 -0.62686,1.5 -1.39301,1.5 C 182.92357,72 182,74.154568 182,78.081787 182,80.333333 181.5431,81 180,81 c -1.77778,0 -2,-0.666667 -2,-6 z m -47.50437,-9.007063 c -0.79429,-1.285201 2.01458,-2.394864 4.06775,-1.606989 C 136.56715,65.154867 135.46364,67 133,67 c -1.03508,0 -2.16205,-0.453178 -2.50437,-1.007063 z M 130,56 v -6 h 4 c 2.88889,0 4,0.416667 4,1.5 0,0.825 -0.62686,1.5 -1.39301,1.5 C 134.92357,53 134,55.154568 134,59.081787 134,61.333333 133.5431,62 132,62 c -1.77778,0 -2,-0.666667 -2,-6 z m 45.93043,4.416177 c -1.7979,-2.166337 -0.0349,-4.820284 3.47972,-5.23832 1.5499,-0.184347 2.53126,-0.825969 2.29424,-1.5 -0.22779,-0.647821 -1.65003,-1.041183 -3.16052,-0.874137 -1.9016,0.210299 -2.61422,-0.09729 -2.31678,-1 0.51137,-1.55199 4.03575,-2.205551 7.37462,-1.367548 C 185.76784,50.979834 186,51.568684 186,56.519052 V 62 h -4.37756 c -2.77417,0 -4.859,-0.58011 -5.69201,-1.583823 z M 182,57.940983 C 182,57.423442 181.55,57 181,57 c -0.55,0 -1,0.701558 -1,1.559017 0,0.857459 0.45,1.280902 1,0.940983 0.55,-0.339919 1,-1.041476 1,-1.559017 z M 128.27684,47.027281 C 125.23771,45.174252 124.19116,43.164856 123.83557,38.5 123.41632,33.000118 124.18092,30.619075 127.4,27.4 130.38909,24.41091 131.42431,24 135.96574,24 142.12328,24 145,25.320336 145,28.146475 c 0,1.866634 -0.37836,1.999917 -3.75,1.320987 -5.40879,-1.089142 -7.35027,-0.811632 -9.52311,1.361207 -2.46262,2.462612 -2.5565,8.597141 -0.1719,11.232092 C 132.52023,43.127342 134.59023,44 136.15499,44 138.523,44 139,43.580846 139,41.5 c 0,-2 -0.5,-2.5 -2.5,-2.5 -2.01365,0 -2.5,-0.496516 -2.5,-2.55226 0,-2.450631 0.20905,-2.540224 5.25,-2.25 l 5.25,0.30226 -0.0116,6.293636 c -0.008,4.474649 -0.44177,6.565619 -1.5,7.234687 -2.67108,1.688797 -11.25834,1.104481 -14.71157,-1.001042 z M 167.21922,36.75 167.5,24.5 l 3.58559,-0.300564 c 4.32852,-0.36284 4.91976,0.311498 7.95401,9.071886 l 2.34532,6.771321 3.05754,-7.771321 L 187.5,24.5 h 4 4 l 0.28078,12.25 0.28078,12.25 H 193.03078 190 l -0.0529,-8.25 -0.0529,-8.25 -3.06002,8.305525 c -2.85648,7.753081 -3.23542,8.285202 -5.69708,8 -2.34763,-0.271991 -2.98665,-1.293367 -5.82203,-9.305525 l -3.18496,-9 -0.065,9.25 c -0.0648,9.212866 -0.0752,9.25 -2.59582,9.25 h -2.53078 l 0.28078,-12.25 z M 26,35.383504 V 22.767009 l 6.633619,0.422397 c 5.420894,0.345176 6.974822,0.843764 8.5,2.727279 4.181402,5.163812 0.929832,12.337833 -6.101643,13.462211 C 31.104437,40.006935 31,40.126938 31,44.011818 31,47.599212 30.748765,48 28.5,48 H 26 Z M 36.30702,32.885923 C 37.818492,30.47349 36.413332,28 33.531385,28 31.295645,28 31,28.416895 31,31.569551 c 0,3.083984 0.292175,3.526082 2.147872,3.25 1.18133,-0.175753 2.602947,-1.045886 3.159148,-1.933628 z M 46.789367,46.941932 C 44.315597,45.499794 42.962968,39.717991 44.119471,35.529483 45.324222,31.166234 48.359343,29 53.267961,29 58.742173,29 62,32.472907 62,38.308523 62,44.52705 58.681297,48.01122 52.797749,47.969591 50.433987,47.952867 47.730215,47.49042 46.789367,46.941932 Z M 54.8,42.8 c 1.817171,-1.817171 1.512942,-7.742683 -0.435923,-8.490532 -4.02136,-1.543141 -7.067951,4.843801 -3.846939,8.064812 C 52.458166,44.315308 53.209962,44.390038 54.8,42.8 Z m 12.713324,4.013871 C 65.725359,41.846597 63.023612,32.202943 63.012901,30.75 63.003987,29.540816 63.782294,29 65.531385,29 c 2.68642,0 2.710325,0.03658 4.574681,7 l 1.20481,4.5 1.465708,-5.804732 c 1.338217,-5.299826 1.6843,-5.778226 3.978788,-5.5 2.096129,0.254173 2.786569,1.215661 4.161466,5.795141 l 1.648386,5.490408 1.377103,-5.740408 C 85.119552,29.833184 85.650541,29 87.600698,29 c 1.254697,0 2.501776,0.356789 2.771285,0.792864 0.269509,0.436075 -0.684809,4.711075 -2.120707,9.5 C 85.679332,47.870667 85.593165,48 82.450237,48 79.497726,48 79.160708,47.645939 77.928888,43.25 L 76.597853,38.5 75.506919,43 c -0.984995,4.063008 -1.403128,4.53048 -4.305802,4.813871 -1.988625,0.194152 -3.395255,-0.187276 -3.687793,-1 z M 94,46 c -3.05666,-3.05666 -2.799318,-11.291591 0.454545,-14.545455 2.604444,-2.604443 7.203635,-3.243031 10.531115,-1.462222 2.05097,1.097647 4.51755,7.384449 3.52642,8.988127 C 108.16552,39.541202 105.43352,40 102.44098,40 c -5.538105,0 -6.599721,0.793441 -3.975566,2.971296 0.955627,0.7931 2.868966,0.979058 5.499996,0.534547 C 107.54977,42.900269 108,43.045257 108,44.805113 108,47.230316 106.17346,48 100.41821,48 97.333333,48 95.396438,47.396438 94,46 Z m 9,-11.031385 C 103,33.093017 99.8734,32.698029 98.208173,34.363256 96.692514,35.878915 96.809219,36 99.785714,36 101.55357,36 103,35.535877 103,34.968615 Z m 8.42364,11.692994 c -0.28247,-0.736114 -0.38085,-4.898614 -0.21861,-9.25 0.27362,-7.338887 0.45785,-7.934741 2.54497,-8.23116 1.31962,-0.187415 2.25,0.205414 2.25,0.95 0,0.987429 0.26667,1.002884 1.2,0.06955 0.66,-0.66 2.235,-1.2 3.5,-1.2 1.78667,0 2.3,0.557971 2.3,2.5 0,1.740741 -0.54667,2.5 -1.8,2.5 -3.08011,0 -4.2,2.186454 -4.2,8.2 0,5.539176 -0.11384,5.8 -2.53138,5.8 -1.39227,0 -2.7625,-0.602276 -3.04498,-1.33839 z M 25,12.5 V 10 h 95 95 V 12.5 15 H 120 25 Z"
         id="path11878" />
    </g>
  </g>
</svg>
