<?xml version="1.0" encoding="UTF-8" standalone="no"?>
<!-- Created with Inkscape (http://www.inkscape.org/) -->

<svg
   width="268.54"
   height="262.73"
   version="1.1"
   viewBox="0 0 268.54 262.73"
   id="svg27"
   sodipodi:docname="powersimulationsjl.svg"
   inkscape:version="1.1.1 (c3084ef, 2021-09-22)"
   xmlns:inkscape="http://www.inkscape.org/namespaces/inkscape"
   xmlns:sodipodi="http://sodipodi.sourceforge.net/DTD/sodipodi-0.dtd"
   xmlns="http://www.w3.org/2000/svg"
   xmlns:svg="http://www.w3.org/2000/svg">
  <defs
     id="defs31" />
  <sodipodi:namedview
     id="namedview29"
     pagecolor="#ffffff"
     bordercolor="#666666"
     borderopacity="1.0"
     inkscape:pageshadow="2"
     inkscape:pageopacity="0.0"
     inkscape:pagecheckerboard="0"
     showgrid="false"
     inkscape:zoom="2.2299488"
     inkscape:cx="134.08379"
     inkscape:cy="131.16893"
     inkscape:window-width="1432"
     inkscape:window-height="857"
     inkscape:window-x="166"
     inkscape:window-y="81"
     inkscape:window-maximized="0"
     inkscape:current-layer="g25" />
  <g
     transform="translate(91.32,-3.6697)"
     id="g25">
    <g
       stroke-width="0.44444"
       id="g19">
      <path
         d="m 14.515,199.92 c 0.15483,-0.80952 7.1523,-21.619 15.55,-46.243 8.3976,-24.624 15.268,-44.974 15.268,-45.222 0,-0.248 -0.20727,-0.4508 -0.4606,-0.4508 -0.25333,0 -5.2592,1.5 -11.124,3.3333 -5.8648,1.8333 -11.018,3.3333 -11.452,3.3333 -0.53598,0 -4.1717,-4.9132 -11.348,-15.336 L 0.3884,83.9988 1.911,82.1122 c 0.83741,-1.0376 14.07,-19.15 29.405,-40.25 15.335,-21.1 27.961,-38.285 28.057,-38.189 0.09613,0.096129 -4.8236,14.785 -10.933,32.643 -6.1092,17.858 -11.108,32.806 -11.108,33.219 0,0.90504 -1.0633,1.1871 12.993,-3.446 9.677,-3.1896 11.07,-3.5446 11.633,-2.9657 0.65025,0.66884 13.062,27.752 14.534,31.715 0.77101,2.0753 0.77202,2.2377 0.02338,3.7778 -1.2614,2.595 -60.12,100.15 -61.252,101.53 l -1.0309,1.2496 0.2815,-1.4719 z"
         fill="#b1d2ed"
         id="path9" />
      <path
         d="m 15.556,198.14 c 0,-0.38786 6.8,-20.624 15.111,-44.969 13.427,-39.33 15.609,-46.059 14.94,-46.059 -0.09417,0 -5.3047,1.6 -11.579,3.5556 -6.2743,1.9556 -11.565,3.5556 -11.757,3.5556 -0.192,0 -0.56201,-0.46616 -0.8216,-1.0359 -0.2596,-0.56975 -4.7881,-7.3067 -10.063,-14.971 -5.2752,-7.6643 -9.5449,-13.976 -9.4882,-14.027 0.056676,-0.05052 7.603,-2.7391 16.77,-5.9747 9.1667,-3.2356 16.967,-6.1394 17.333,-6.4529 0.36667,-0.31353 6.2605,-2.4132 13.097,-4.666 10.442,-3.4407 12.496,-3.9917 12.842,-3.4444 1.439,2.2812 15.217,33.545 14.942,33.905 -0.18655,0.24444 -13.881,22.944 -30.432,50.444 -16.551,27.5 -30.273,50.19 -30.493,50.422 -0.24632,0.26004 -0.39994,0.15135 -0.39994,-0.28298 z"
         fill="#6eb0df"
         id="path11" />
      <path
         d="m 16.222,196.44 c 0.17434,-0.61111 7.0164,-20.763 15.205,-44.782 8.2369,-24.162 14.766,-43.988 14.616,-44.379 -0.14945,-0.38945 -0.52004,-0.61303 -0.82353,-0.49682 -2.1319,0.81627 -22.67,7.0216 -22.803,6.8894 -0.2335,-0.2335 14.281,-41.665 14.753,-42.113 0.74407,-0.70587 24.27,-8.0786 24.605,-7.711 0.18626,0.2041 3.0903,6.4711 6.4533,13.927 3.3631,7.4556 6.7166,14.836 7.4524,16.401 1.1716,2.4925 1.2642,2.9616 0.74619,3.7778 -0.32532,0.51252 -13.781,22.832 -29.901,49.599 -16.12,26.767 -29.605,48.967 -29.965,49.333 -0.57968,0.5897 -0.61875,0.5384 -0.33836,-0.44445 z"
         fill="#3ca2d9"
         id="path13" />
      <path
         d="m 16.889,195.46 c 0,-0.14865 6.7,-19.907 14.889,-43.908 8.189,-24.001 14.884,-43.869 14.878,-44.152 -0.0236,-1.0887 14.47,-42.954 14.829,-42.835 0.20857,0.06952 3.5856,7.22 7.5045,15.89 3.9189,8.6699 7.2996,15.83 7.5127,15.912 0.21308,0.08149 0.38743,0.44328 0.38743,0.80401 0,0.36072 -0.17904,0.5452 -0.39788,0.40996 -0.21883,-0.13524 -0.50559,0.0348 -0.63724,0.37788 -0.30028,0.7825 -58.068,96.773 -58.586,97.349 -0.20853,0.23222 -0.37915,0.3006 -0.37915,0.15196 z"
         fill="#018cd0"
         id="path15" />
      <path
         d="m 19.777,186.89 c 11.524,-33.932 27.27,-79.862 27.436,-80.028 0.46378,-0.46378 28.373,-9.3917 28.536,-9.1283 0.18476,0.29895 -56.423,94.527 -57.967,96.49 -0.58886,0.74886 0.06127,-1.642 1.9941,-7.3333 z"
         fill="#0266b2"
         id="path17" />
    </g>
    <g
       aria-label="PowerSimulations.jl"
       id="text23"
       style="font-size:29.3333px;line-height:1.25;font-family:Lato;-inkscape-font-specification:'Lato, Normal'">
      <path
         d="m -76.116929,248.20642 v 7.86133 h -2.830664 v -21.01731 h 6.203993 q 1.994664,0 3.461329,0.46933 1.481332,0.45467 2.449331,1.30533 0.967999,0.85067 1.437332,2.05334 0.483999,1.20266 0.483999,2.68399 0,1.46667 -0.513333,2.684 -0.513333,1.21733 -1.510665,2.09733 -0.982665,0.88 -2.44933,1.37867 -1.466665,0.48399 -3.358663,0.48399 z m 0,-2.25866 h 3.373329 q 1.217332,0 2.141331,-0.32267 0.938665,-0.32266 1.569331,-0.89466 0.630666,-0.58667 0.953333,-1.39333 0.322666,-0.80667 0.322666,-1.77467 0,-2.00933 -1.246665,-3.13866 -1.231999,-1.12933 -3.739996,-1.12933 h -3.373329 z"
         id="path483" />
      <path
         d="m -56.164328,240.97577 q 1.627998,0 2.93333,0.54266 1.319999,0.54267 2.229331,1.54 0.923999,0.99733 1.407998,2.42 0.498667,1.408 0.498667,3.15333 0,1.76 -0.498667,3.16799 -0.483999,1.408 -1.407998,2.40533 -0.909332,0.99734 -2.229331,1.54 -1.305332,0.528 -2.93333,0.528 -1.627998,0 -2.947996,-0.528 -1.305332,-0.54266 -2.229331,-1.54 -0.923999,-0.99733 -1.422665,-2.40533 -0.498666,-1.40799 -0.498666,-3.16799 0,-1.74533 0.498666,-3.15333 0.498666,-1.42267 1.422665,-2.42 0.923999,-0.99733 2.229331,-1.54 1.319998,-0.54266 2.947996,-0.54266 z m 0,13.25865 q 2.199998,0 3.28533,-1.46667 1.085332,-1.48133 1.085332,-4.12133 0,-2.65466 -1.085332,-4.13599 -1.085332,-1.48133 -3.28533,-1.48133 -1.114665,0 -1.935997,0.38133 -0.821333,0.38133 -1.378666,1.1 -0.542666,0.71866 -0.821332,1.77466 -0.264,1.04134 -0.264,2.36133 0,1.32 0.264,2.36133 0.278666,1.04134 0.821332,1.76 0.557333,0.704 1.378666,1.08533 0.821332,0.38134 1.935997,0.38134 z"
         id="path485" />
      <path
         d="m -47.785546,241.21043 h 2.053331 q 0.322666,0 0.527999,0.16134 0.205334,0.16133 0.278667,0.38133 l 2.84533,9.56265 q 0.117333,0.528 0.22,1.02667 0.102666,0.484 0.175999,0.98267 0.117334,-0.49867 0.264,-0.98267 0.146667,-0.49867 0.308,-1.02667 l 3.138663,-9.62132 q 0.07333,-0.22 0.249333,-0.36666 0.190666,-0.14667 0.469333,-0.14667 h 1.129332 q 0.293333,0 0.483999,0.14667 0.190667,0.14666 0.264,0.36666 l 3.06533,9.62132 q 0.161333,0.51334 0.278666,1.012 0.132,0.49867 0.249333,0.98267 0.07333,-0.484 0.190666,-1.012 0.117334,-0.528 0.249333,-0.98267 l 2.903997,-9.56265 q 0.07333,-0.23467 0.278666,-0.38133 0.205334,-0.16134 0.484,-0.16134 h 1.965331 l -4.810661,14.85732 h -2.067998 q -0.381333,0 -0.527999,-0.49867 l -3.28533,-10.07599 q -0.117333,-0.33733 -0.190666,-0.67466 -0.07333,-0.352 -0.146667,-0.68933 -0.07333,0.33733 -0.146666,0.68933 -0.07333,0.352 -0.190667,0.68933 l -3.329329,10.06132 q -0.161333,0.49867 -0.601333,0.49867 h -1.965331 z"
         id="path487" />
      <path
         d="m -17.509912,240.97577 q 1.334665,0 2.463997,0.45466 1.129332,0.44 1.950664,1.29067 0.821333,0.836 1.275999,2.08266 0.469332,1.232 0.469332,2.816 0,0.616 -0.131999,0.82133 -0.132,0.20533 -0.498666,0.20533 h -9.885322 q 0.02933,1.408 0.381332,2.44933 0.352,1.04134 0.967999,1.74534 0.616,0.68933 1.466665,1.04133 0.850666,0.33733 1.906665,0.33733 0.982665,0 1.686665,-0.22 0.718665,-0.23466 1.231998,-0.49866 0.513333,-0.264 0.850666,-0.484 0.351999,-0.23467 0.601332,-0.23467 0.322667,0 0.498667,0.24933 l 0.733332,0.95333 q -0.483999,0.58667 -1.158665,1.02667 -0.674666,0.42533 -1.451999,0.704 -0.762665,0.27867 -1.583998,0.41067 -0.821332,0.14666 -1.627998,0.14666 -1.539998,0 -2.84533,-0.51333 -1.290665,-0.528 -2.243997,-1.52533 -0.938666,-1.012 -1.466665,-2.49333 -0.528,-1.48133 -0.528,-3.40267 0,-1.55466 0.469333,-2.90399 0.483999,-1.34933 1.378665,-2.332 0.894666,-0.99733 2.185331,-1.55466 1.290665,-0.572 2.903997,-0.572 z m 0.05867,1.92133 q -1.891998,0 -2.97733,1.1 -1.085332,1.08533 -1.349332,3.02133 h 8.081325 q 0,-0.90934 -0.249334,-1.65734 -0.249333,-0.76266 -0.733332,-1.30533 -0.483999,-0.55733 -1.187999,-0.85066 -0.689332,-0.308 -1.583998,-0.308 z"
         id="path489" />
      <path
         d="m -8.0370901,256.06775 v -14.85732 h 1.4959982 q 0.4253329,0 0.586666,0.16134 0.1613332,0.16133 0.2199998,0.55733 l 0.1759998,2.31733 q 0.7626658,-1.55467 1.8773311,-2.42 1.1293321,-0.88 2.639997,-0.88 0.61599931,0 1.1146654,0.14667 0.4986661,0.132 0.92399894,0.38133 L 0.6602332,243.4251 q -0.10266655,0.36666 -0.45466615,0.36666 -0.20533309652,0 -0.63066594,-0.132 -0.42533285,-0.14666 -1.18799861,-0.14666 -1.3639985,0 -2.2879974,0.792 -0.9093323,0.79199 -1.5253316,2.30266 v 9.45999 z"
         id="path491" />
      <path
         d="m 14.940968,238.33577 q -0.132,0.22 -0.278667,0.33733 -0.146666,0.10267 -0.381333,0.10267 -0.249333,0 -0.586666,-0.24933 -0.322666,-0.24934 -0.835999,-0.54267 -0.498666,-0.308 -1.217332,-0.55733 -0.703999,-0.24934 -1.7159976,-0.24934 -0.9533322,0 -1.6866647,0.264 -0.7333325,0.24934 -1.2319986,0.68934 -0.4839995,0.44 -0.7333325,1.04133 -0.2493331,0.58666 -0.2493331,1.276 0,0.88 0.4253329,1.46666 0.4399995,0.572 1.1439987,0.98267 0.7186658,0.41066 1.6133315,0.71866 0.9093324,0.29334 1.8479974,0.616 0.953333,0.32267 1.847998,0.73334 0.909333,0.39599 1.613332,1.01199 0.718666,0.616 1.143998,1.51067 0.44,0.89466 0.44,2.2 0,1.37866 -0.469333,2.59599 -0.469333,1.20267 -1.378665,2.09733 -0.894666,0.89467 -2.214664,1.408 -1.305332,0.51334 -2.9773299,0.51334 -2.0386644,0 -3.7253291,-0.73334 -1.6719981,-0.748 -2.8599967,-2.00933 l 0.8213324,-1.34933 q 0.1173332,-0.16133 0.2786663,-0.264 0.1759998,-0.11733 0.3813329,-0.11733 0.3079997,0 0.7039992,0.33733 0.3959996,0.32267 0.9826655,0.71867 0.6013327,0.396 1.4373317,0.73333 0.8506657,0.32266 2.0679977,0.32266 1.011999,0 1.803998,-0.27866 0.791999,-0.27867 1.334665,-0.77733 0.557333,-0.51334 0.850666,-1.21734 0.293333,-0.704 0.293333,-1.56933 0,-0.95333 -0.44,-1.55466 -0.425333,-0.616 -1.129332,-1.02667 -0.703999,-0.41066 -1.613331,-0.68933 -0.8946659,-0.29333 -1.8479982,-0.58667 -0.9386656,-0.308 -1.8479979,-0.704 -0.8946656,-0.396 -1.5986648,-1.02666 -0.7039992,-0.63067 -1.1439987,-1.56933 -0.4253328,-0.95333 -0.4253328,-2.34667 0,-1.11466 0.4253328,-2.15599 0.4399995,-1.04134 1.2613319,-1.848 0.8213324,-0.80667 2.0239977,-1.29067 1.2173319,-0.484 2.7866634,-0.484 1.7599976,0 3.2119966,0.55734 1.451998,0.55733 2.53733,1.61333 z"
         id="path493" />
      <path
         d="m 22.195001,241.21043 v 14.85732 h -2.610664 v -14.85732 z m 0.586666,-4.66399 q 0,0.38133 -0.161333,0.71866 -0.146667,0.32267 -0.410666,0.58667 -0.249333,0.24933 -0.586666,0.396 -0.337333,0.14667 -0.718666,0.14667 -0.381333,0 -0.718666,-0.14667 -0.322666,-0.14667 -0.586666,-0.396 -0.249333,-0.264 -0.396,-0.58667 -0.146666,-0.33733 -0.146666,-0.71866 0,-0.38133 0.146666,-0.71867 0.146667,-0.352 0.396,-0.60133 0.264,-0.264 0.586666,-0.41067 0.337333,-0.14666 0.718666,-0.14666 0.381333,0 0.718666,0.14666 0.337333,0.14667 0.586666,0.41067 0.263999,0.24933 0.410666,0.60133 0.161333,0.33734 0.161333,0.71867 z"
         id="path495" />
      <path
         d="m 26.7962,256.06775 v -14.85732 h 1.554665 q 0.557333,0 0.703999,0.54267 l 0.190666,1.52533 q 0.821333,-1.012 1.833332,-1.65733 1.026665,-0.64533 2.375997,-0.64533 1.510665,0 2.434664,0.836 0.938665,0.83599 1.349332,2.25866 0.307999,-0.80667 0.806665,-1.39333 0.513333,-0.58667 1.143999,-0.968 0.630666,-0.38133 1.334665,-0.55733 0.718666,-0.176 1.451999,-0.176 1.173332,0 2.082664,0.38133 0.923999,0.36667 1.554665,1.08533 0.645332,0.71867 0.982665,1.77467 0.337333,1.04133 0.337333,2.39066 v 9.45999 h -2.610664 v -9.45999 q 0,-1.74533 -0.762665,-2.64 -0.762666,-0.90933 -2.214664,-0.90933 -0.645333,0 -1.231999,0.23467 -0.571999,0.22 -1.011999,0.66 -0.439999,0.44 -0.703999,1.11466 -0.249333,0.66 -0.249333,1.54 v 9.45999 h -2.610664 v -9.45999 q 0,-1.78933 -0.718666,-2.66933 -0.718665,-0.88 -2.097331,-0.88 -0.967998,0 -1.803997,0.528 -0.821333,0.51333 -1.510665,1.408 v 11.07332 z"
         id="path497" />
      <path
         d="m 53.117341,241.21043 v 9.47466 q 0,1.68666 0.777333,2.61066 0.777332,0.924 2.346664,0.924 1.143998,0 2.155997,-0.54266 1.011999,-0.54267 1.862665,-1.51067 v -10.95599 h 2.610663 v 14.85732 h -1.554665 q -0.557332,0 -0.703999,-0.54267 l -0.205333,-1.59866 q -0.967999,1.07066 -2.170664,1.73066 -1.202665,0.64534 -2.75733,0.64534 -1.217332,0 -2.155998,-0.396 -0.923999,-0.41067 -1.554665,-1.144 -0.630666,-0.73334 -0.953332,-1.77467 -0.308,-1.04133 -0.308,-2.30266 v -9.47466 z"
         id="path499" />
      <path
         d="m 70.090783,234.46377 v 21.60398 H 67.48012 v -21.60398 z"
         id="path501" />
      <path
         d="m 85.603962,256.06775 h -1.158665 q -0.381333,0 -0.615999,-0.11733 -0.234667,-0.11734 -0.308,-0.49867 l -0.293333,-1.37867 q -0.586666,0.528 -1.143999,0.95334 -0.557332,0.41066 -1.173332,0.704 -0.615999,0.27866 -1.319998,0.42533 -0.689333,0.14667 -1.539998,0.14667 -0.865333,0 -1.627999,-0.23467 -0.747999,-0.24933 -1.305331,-0.73333 -0.557333,-0.484 -0.894666,-1.21734 -0.322666,-0.74799 -0.322666,-1.75999 0,-0.88 0.483999,-1.68667 0.484,-0.82133 1.554665,-1.452 1.085332,-0.63066 2.830663,-1.02666 1.745332,-0.41067 4.267996,-0.46933 v -1.15867 q 0,-1.73066 -0.748,-2.61066 -0.733332,-0.89467 -2.18533,-0.89467 -0.953333,0 -1.613332,0.24933 -0.645332,0.23467 -1.129332,0.54267 -0.469333,0.29333 -0.821332,0.54267 -0.337333,0.23466 -0.674666,0.23466 -0.264,0 -0.469333,-0.132 -0.190666,-0.14666 -0.308,-0.352 l -0.469332,-0.836 q 1.231998,-1.18799 2.654663,-1.77466 1.422665,-0.58667 3.15333,-0.58667 1.246665,0 2.214664,0.41067 0.967999,0.41067 1.627998,1.144 0.659999,0.73333 0.997332,1.77466 0.337333,1.04133 0.337333,2.288 z m -6.775992,-1.59867 q 0.689333,0 1.261332,-0.132 0.571999,-0.14666 1.070665,-0.396 0.513333,-0.26399 0.967999,-0.63066 0.469333,-0.36667 0.909333,-0.836 v -3.09466 q -1.803998,0.0587 -3.06533,0.29333 -1.261332,0.22 -2.053331,0.58667 -0.791999,0.36666 -1.158666,0.86533 -0.351999,0.49866 -0.351999,1.11466 0,0.58667 0.190666,1.012 0.190667,0.42534 0.513333,0.704 0.322666,0.264 0.762666,0.396 0.439999,0.11733 0.953332,0.11733 z"
         id="path503" />
      <path
         d="m 94.090465,256.30242 q -1.759998,0 -2.713331,-0.98267 -0.938665,-0.98267 -0.938665,-2.83066 v -9.09333 h -1.789332 q -0.234666,0 -0.395999,-0.132 -0.161333,-0.14666 -0.161333,-0.44 v -1.04133 l 2.434664,-0.308 0.601332,-4.59066 q 0.02933,-0.22 0.190667,-0.352 0.161333,-0.14667 0.410666,-0.14667 h 1.319998 v 5.11867 h 4.253329 v 1.89199 h -4.253329 v 8.91733 q 0,0.93866 0.454667,1.39333 0.454666,0.45466 1.173332,0.45466 0.410666,0 0.703999,-0.10266 0.307999,-0.11734 0.527999,-0.24934 0.22,-0.13199 0.366666,-0.23466 0.161334,-0.11733 0.278667,-0.11733 0.205333,0 0.366666,0.24933 l 0.762666,1.24666 q -0.674666,0.63067 -1.627998,0.99734 -0.953333,0.352 -1.965331,0.352 z"
         id="path505" />
      <path
         d="m 103.43449,241.21043 v 14.85732 h -2.61067 v -14.85732 z m 0.58666,-4.66399 q 0,0.38133 -0.16133,0.71866 -0.14667,0.32267 -0.41067,0.58667 -0.24933,0.24933 -0.58666,0.396 -0.33733,0.14667 -0.71867,0.14667 -0.38133,0 -0.71866,-0.14667 -0.32267,-0.14667 -0.58667,-0.396 -0.24933,-0.264 -0.396,-0.58667 -0.14667,-0.33733 -0.14667,-0.71866 0,-0.38133 0.14667,-0.71867 0.14667,-0.352 0.396,-0.60133 0.264,-0.264 0.58667,-0.41067 0.33733,-0.14666 0.71866,-0.14666 0.38134,0 0.71867,0.14666 0.33733,0.14667 0.58666,0.41067 0.264,0.24933 0.41067,0.60133 0.16133,0.33734 0.16133,0.71867 z"
         id="path507" />
      <path
         d="m 114.04902,240.97577 q 1.628,0 2.93333,0.54266 1.32,0.54267 2.22933,1.54 0.924,0.99733 1.408,2.42 0.49867,1.408 0.49867,3.15333 0,1.76 -0.49867,3.16799 -0.484,1.408 -1.408,2.40533 -0.90933,0.99734 -2.22933,1.54 -1.30533,0.528 -2.93333,0.528 -1.628,0 -2.948,-0.528 -1.30533,-0.54266 -2.22933,-1.54 -0.924,-0.99733 -1.42266,-2.40533 -0.49867,-1.40799 -0.49867,-3.16799 0,-1.74533 0.49867,-3.15333 0.49866,-1.42267 1.42266,-2.42 0.924,-0.99733 2.22933,-1.54 1.32,-0.54266 2.948,-0.54266 z m 0,13.25865 q 2.2,0 3.28533,-1.46667 1.08533,-1.48133 1.08533,-4.12133 0,-2.65466 -1.08533,-4.13599 -1.08533,-1.48133 -3.28533,-1.48133 -1.11466,0 -1.936,0.38133 -0.82133,0.38133 -1.37866,1.1 -0.54267,0.71866 -0.82133,1.77466 -0.264,1.04134 -0.264,2.36133 0,1.32 0.264,2.36133 0.27866,1.04134 0.82133,1.76 0.55733,0.704 1.37866,1.08533 0.82134,0.38134 1.936,0.38134 z"
         id="path509" />
      <path
         d="m 124.3638,256.06775 v -14.85732 h 1.55467 q 0.55733,0 0.704,0.54267 l 0.20533,1.61333 q 0.968,-1.07067 2.156,-1.73066 1.20266,-0.66 2.772,-0.66 1.21733,0 2.14133,0.41066 0.93866,0.396 1.55466,1.144 0.63067,0.73333 0.95333,1.77467 0.32267,1.04133 0.32267,2.30266 v 9.45999 h -2.61066 v -9.45999 q 0,-1.68666 -0.77734,-2.61066 -0.76266,-0.93867 -2.34666,-0.93867 -1.15867,0 -2.17066,0.55733 -0.99734,0.55734 -1.848,1.51067 v 10.94132 z"
         id="path511" />
      <path
         d="m 149.19856,243.65976 q -0.176,0.32267 -0.54267,0.32267 -0.22,0 -0.49867,-0.16133 -0.27866,-0.16134 -0.68933,-0.352 -0.396,-0.20534 -0.95333,-0.36667 -0.55733,-0.176 -1.32,-0.176 -0.66,0 -1.188,0.176 -0.528,0.16133 -0.90933,0.45467 -0.36667,0.29333 -0.572,0.68933 -0.19067,0.38133 -0.19067,0.836 0,0.572 0.32267,0.95333 0.33733,0.38133 0.88,0.66 0.54266,0.27867 1.232,0.49867 0.68933,0.20533 1.408,0.45466 0.73333,0.23467 1.42266,0.528 0.68933,0.29333 1.232,0.73333 0.54267,0.44 0.86533,1.08534 0.33733,0.63066 0.33733,1.52533 0,1.02666 -0.36666,1.90666 -0.36667,0.86533 -1.08533,1.51067 -0.71867,0.63066 -1.76,0.99733 -1.04133,0.36667 -2.40533,0.36667 -1.55467,0 -2.816,-0.49867 -1.26133,-0.51333 -2.14133,-1.30533 l 0.616,-0.99733 q 0.11733,-0.19067 0.27867,-0.29334 0.16133,-0.10266 0.42533,-0.10266 0.264,0 0.55733,0.20533 0.29333,0.20533 0.704,0.45467 0.42533,0.24933 1.012,0.45466 0.60133,0.20533 1.496,0.20533 0.76266,0 1.33466,-0.19066 0.572,-0.20534 0.95333,-0.54267 0.38134,-0.33733 0.55734,-0.77733 0.19066,-0.44 0.19066,-0.93867 0,-0.616 -0.33733,-1.012 -0.32267,-0.41066 -0.86533,-0.68933 -0.54267,-0.29333 -1.24667,-0.49866 -0.68933,-0.22 -1.42266,-0.45467 -0.71867,-0.23467 -1.42267,-0.528 -0.68933,-0.308 -1.232,-0.76267 -0.54266,-0.45466 -0.87999,-1.11466 -0.32267,-0.67467 -0.32267,-1.628 0,-0.85066 0.352,-1.628 0.352,-0.792 1.02666,-1.37866 0.67467,-0.60133 1.65734,-0.95333 0.98266,-0.352 2.24399,-0.352 1.46667,0 2.62533,0.46933 1.17334,0.45467 2.024,1.26133 z"
         id="path513" />
      <path
         d="m 152.55997,254.45442 q 0,-0.38134 0.132,-0.71867 0.14666,-0.33733 0.38133,-0.58666 0.24933,-0.24934 0.58667,-0.396 0.33733,-0.14667 0.71866,-0.14667 0.38134,0 0.71867,0.14667 0.33733,0.14666 0.58666,0.396 0.24934,0.24933 0.38134,0.58666 0.14666,0.33733 0.14666,0.71867 0,0.396 -0.14666,0.73333 -0.132,0.32267 -0.38134,0.572 -0.24933,0.24933 -0.58666,0.38133 -0.33733,0.14667 -0.71867,0.14667 -0.38133,0 -0.71866,-0.14667 -0.33734,-0.132 -0.58667,-0.38133 -0.23467,-0.24933 -0.38133,-0.572 -0.132,-0.33733 -0.132,-0.73333 z"
         id="path515" />
      <path
         d="m 162.55943,241.21043 v 15.95732 q 0,0.89466 -0.23467,1.65733 -0.23467,0.77733 -0.748,1.34933 -0.49866,0.572 -1.30533,0.89467 -0.792,0.33733 -1.90667,0.33733 -0.48399,0 -0.87999,-0.0733 -0.396,-0.0733 -0.792,-0.22 l 0.11733,-1.408 q 0.0293,-0.19067 0.132,-0.24933 0.10267,-0.044 0.32267,-0.044 0.11733,0 0.24933,0 0.132,0.0147 0.32267,0.0147 1.14399,0 1.62799,-0.54266 0.484,-0.528 0.484,-1.716 V 241.2105 Z m 0.58666,-4.66399 q 0,0.38133 -0.16133,0.71866 -0.14667,0.32267 -0.41067,0.58667 -0.24933,0.24933 -0.58666,0.396 -0.33734,0.14667 -0.71867,0.14667 -0.38133,0 -0.71866,-0.14667 -0.32267,-0.14667 -0.58667,-0.396 -0.24933,-0.264 -0.396,-0.58667 -0.14667,-0.33733 -0.14667,-0.71866 0,-0.38133 0.14667,-0.71867 0.14667,-0.352 0.396,-0.60133 0.264,-0.264 0.58667,-0.41067 0.33733,-0.14666 0.71866,-0.14666 0.38133,0 0.71867,0.14666 0.33733,0.14667 0.58666,0.41067 0.264,0.24933 0.41067,0.60133 0.16133,0.33734 0.16133,0.71867 z"
         id="path517" />
      <path
         d="m 170.00733,234.46377 v 21.60398 h -2.61066 v -21.60398 z"
         id="path519" />
    </g>
  </g>
</svg>
