<?xml version="1.0" encoding="UTF-8"?>
<svg id="Layer_1" xmlns="http://www.w3.org/2000/svg" xmlns:xlink="http://www.w3.org/1999/xlink" version="1.1" viewBox="0 0 1920 440">
  <!-- Generator: Adobe Illustrator 30.0.0, SVG Export Plug-In . SVG Version: 2.1.1 Build 123)  -->
  <defs>
    <style>
      .st0 {
        fill: url(#linear-gradient);
      }

      .st1 {
        fill: #00534d;
      }

      .st2 {
        fill: #083966;
      }

      .st3 {
        fill: #0099da;
      }
    </style>
    <linearGradient id="linear-gradient" x1="2313.59" y1="2909.47" x2="2709.96" y2="2909.47" gradientTransform="translate(-448.13 4091.65) rotate(-30) scale(1 -1)" gradientUnits="userSpaceOnUse">
      <stop offset="0" stop-color="#ede800"/>
      <stop offset="1" stop-color="#2bcf00"/>
    </linearGradient>
  </defs>
  <g id="Layer_11" data-name="Layer_1">
    <path class="st0" d="M321.94,401.9c94.79-54.73,127.27-175.94,72.54-270.73L51.21,329.36c54.73,94.79,175.94,127.27,270.73,72.54Z"/>
    <path class="st1" d="M386.76,132.51l-23.89,13.79h-14.68v-38.56h30.43c-.73-.93-1.47-1.84-2.22-2.75h-28.21v-28.21c-.91-.75-1.83-1.49-2.75-2.22v30.43h-38.56v-14.68l13.79-23.89h13.67c-1.37-.93-2.75-1.85-4.15-2.75h-7.93l2.09-3.62s-.07-.04-.1-.06l-4.66-2.69-3.68,6.38h-9.02v-12.9c-.92-.43-1.83-.86-2.75-1.28v14.18h-38.56v-26.93c-.92-.2-1.83-.41-2.75-.6v27.53h-37.19v-31.52c-.92,0-1.83-.03-2.75-.03s-1.84.02-2.75.03v31.52h-37.19v-27.53c-.92.19-1.84.4-2.75.6v26.93h-38.56v-14.18c-.92.42-1.84.85-2.75,1.28v12.9h-9.02l-3.68-6.38-4.62,2.67s-.1.06-.15.09l2.09,3.62h-7.93c-1.39.9-2.78,1.82-4.15,2.75h13.67l13.79,23.89v14.67h-38.56v-30.43c-.93.73-1.84,1.47-2.75,2.22v28.21h-28.21c-.75.91-1.49,1.83-2.22,2.75h30.43v38.56h-14.68l-23.89-13.79v-13.67c-.93,1.37-1.85,2.75-2.75,4.15v7.93l-3.62-2.09s-.03.05-.04.08l-2.71,4.69,6.37,3.68v9.02h-12.9c-.43.92-.86,1.83-1.28,2.75h14.18v38.56h-26.93c-.2.92-.41,1.83-.6,2.75h27.52v37.19h-31.52c-.01.92-.03,1.83-.03,2.75s.02,1.84.03,2.75h31.52v37.19h-27.52c.19.92.4,1.84.6,2.75h26.93v38.56h-14.18c.42.92.85,1.84,1.28,2.75h12.9v9.02l-6.37,3.68,2.73,4.72s.02.03.03.05l3.62-2.09v7.93c.9,1.4,1.82,2.78,2.75,4.15v-13.67l23.88-13.79h14.68v38.56h-30.43c.73.93,1.47,1.84,2.22,2.75h28.21v28.21c.91.75,1.83,1.49,2.75,2.22v-30.43h38.56v14.67l-13.79,23.89h-13.67c1.37.93,2.75,1.85,4.15,2.75h7.93l-2.09,3.62s.06.04.1.06l4.67,2.7,3.68-6.37h9.02v12.9c.92.43,1.83.86,2.75,1.28v-14.18h38.56v26.93c.92.2,1.83.41,2.75.6v-27.52h37.19v31.52c.92.01,1.83.03,2.75.03s1.83-.02,2.75-.03v-31.52h37.19v27.52c.92-.19,1.84-.4,2.75-.6v-26.93h38.56v14.18c.92-.42,1.84-.85,2.75-1.28v-12.9h9.02l3.68,6.37,4.71-2.72s.04-.02.05-.03l-2.09-3.62h7.93c1.4-.9,2.78-1.82,4.15-2.75h-13.67l-13.79-23.89v-14.68h38.56v30.43c.93-.73,1.84-1.47,2.75-2.22v-28.21h28.21c.75-.91,1.49-1.83,2.22-2.75h-30.43v-38.56h14.68l23.88,13.79v13.67c.93-1.37,1.85-2.75,2.75-4.15v-7.93l3.62,2.09s.03-.05.04-.07l2.71-4.7-6.38-3.68v-9.02h12.9c.43-.92.86-1.83,1.28-2.75h-14.18v-38.56h26.93c.2-.92.41-1.83.6-2.75h-27.52v-37.19h31.52c.01-.9.03-1.81.03-2.71v-.08c0-.91-.02-1.81-.03-2.71h-31.52v-37.19h27.52c-.19-.92-.4-1.84-.6-2.75h-26.93v-38.56h14.18c-.42-.92-.85-1.84-1.28-2.75h-12.9v-9.02l6.38-3.68-2.69-4.67s-.04-.07-.06-.1l-3.62,2.09v-7.93c-.9-1.4-1.82-2.78-2.75-4.15v13.67h.01ZM306.89,66.42h7.43l-7.43,12.87v-12.87ZM59,138.86l12.88,7.43h-12.88s0-7.43,0-7.43ZM59,321.74v-7.43h12.88s-12.88,7.43-12.88,7.43ZM97.56,311.56h-9.91l9.91-5.72v5.72ZM97.56,299.48l-20.92,12.08h-17.64v-38.56h38.56v26.48ZM97.56,270.24h-38.56v-37.19h38.56v37.19ZM97.56,227.55h-38.56v-37.19h38.56v37.19ZM97.56,187.61h-38.56v-38.56h17.64l20.92,12.08v26.48ZM97.56,154.77l-9.91-5.72h9.91v5.72ZM138.88,394.19h-7.43l7.43-12.88v12.88ZM138.88,352.87h-38.56v-38.56h38.56v38.56ZM138.88,311.56h-38.56v-7.31l38.56-22.26v29.57ZM138.88,275.63l-38.56,22.26v-24.9h38.56v2.63h0ZM138.88,270.24h-38.56v-37.19h38.56v37.19ZM138.88,227.55h-38.56v-37.19h38.56v37.19ZM138.88,187.61h-38.56v-24.9l38.56,22.26v2.63h0ZM138.88,178.62l-38.56-22.26v-7.31h38.56v29.57ZM138.88,146.3h-38.56v-38.56h38.56v38.56ZM138.88,79.3l-7.43-12.88h7.43v12.88ZM141.63,95.08l5.72,9.91h-5.72v-9.91ZM141.63,107.74h7.31l22.26,38.56h-29.57v-38.56ZM141.63,186.57l1.81,1.04h-1.81v-1.04ZM141.63,272.99h1.8l-1.8,1.04v-1.04ZM141.63,314.31h29.57l-22.26,38.56h-7.31v-38.56h0ZM141.63,355.62h5.72l-5.72,9.91v-9.91ZM180.19,394.19h-38.56v-17.64l12.08-20.92h26.48v38.56h0ZM180.19,352.87h-24.9l22.26-38.56h2.63v38.56h0ZM180.19,311.56h-1.04l1.04-1.81v1.81ZM180.19,298.74l-7.4,12.82h-31.16v-31.16l12.81-7.4h25.75v25.74ZM180.19,270.24h-20.98l20.98-12.11v12.11ZM180.19,251.77l-31.99,18.47h-6.57v-37.19h38.56v18.72h0ZM180.19,227.55h-38.56v-37.19h6.57l31.99,18.47v18.72h0ZM180.19,202.48l-20.98-12.11h20.98v12.11ZM180.19,187.61h-25.75l-12.82-7.4v-31.16h31.16l7.4,12.82v25.75h.01ZM180.19,150.86l-1.04-1.81h1.04v1.81ZM180.19,146.3h-2.63l-22.26-38.56h24.9v38.56h0ZM180.19,104.98h-26.48l-12.08-20.92v-17.64h38.56s0,38.56,0,38.56ZM182.94,166.64l12.11,20.98h-12.11v-20.98ZM182.94,190.37h13.7l18.72,32.42-32.42-18.72v-13.7ZM182.94,210.42l29.67,17.13h-29.67v-17.13ZM182.94,233.06h29.66l-29.66,17.13v-17.13ZM182.94,256.54l32.42-18.72-18.72,32.42h-13.7v-13.7h0ZM182.94,272.99h12.11l-12.11,20.98v-20.98ZM220.13,394.19h-37.19v-38.56h37.19v38.56ZM220.13,352.87h-37.19v-38.56h37.19v38.56ZM220.13,311.56h-37.19v-6.57l18.47-31.99h18.72v38.56ZM220.13,270.24h-17.13l17.13-29.66v29.66ZM220.13,220.03l-17.13-29.66h17.13v29.66ZM220.13,187.61h-18.72l-18.47-31.99v-6.57h37.19v38.56h0ZM220.13,146.3h-37.19v-38.56h37.19v38.56ZM220.13,104.98h-37.19v-38.56h37.19v38.56ZM225.63,190.37h17.13l-17.13,29.66v-29.66ZM225.63,240.58l17.13,29.66h-17.13v-29.66h0ZM262.82,394.19h-37.19v-38.56h37.19v38.56ZM262.82,352.87h-37.19v-38.56h37.19v38.56ZM262.82,311.56h-37.19v-38.56h18.72l18.47,31.99v6.57ZM262.82,293.97l-12.11-20.98h12.11v20.98ZM262.82,270.24h-13.7l-18.72-32.42,32.42,18.72v13.7ZM262.82,250.18l-29.66-17.13h29.66v17.13ZM262.82,227.55h-29.67l29.67-17.13v17.13ZM262.82,204.07l-32.42,18.72,18.72-32.42h13.7v13.7ZM262.82,187.61h-12.11l12.11-20.98v20.98ZM262.82,155.62l-18.47,31.99h-18.72v-38.56h37.19v6.57h0ZM262.82,146.3h-37.19v-38.56h37.19v38.56ZM262.82,104.98h-37.19v-38.56h37.19v38.56ZM265.57,107.74h24.89l-22.26,38.56h-2.63v-38.56ZM265.57,149.05h1.04l-1.04,1.8v-1.8ZM265.57,190.37h20.98l-20.98,12.11v-12.11ZM265.57,258.13l20.98,12.11h-20.98v-12.11ZM265.57,309.75l1.04,1.8h-1.04v-1.8ZM265.57,314.31h2.63l22.26,38.56h-24.89v-38.56ZM304.13,394.19h-38.56v-38.56h26.48l12.08,20.92v17.64ZM304.13,365.53l-5.72-9.91h5.72v9.91ZM304.13,352.87h-7.31l-22.26-38.56h29.57v38.56ZM304.13,311.56h-31.16l-7.4-12.82v-25.75h25.75l12.81,7.4v31.16h0ZM304.13,274.04l-1.8-1.04h1.8v1.04ZM304.13,270.24h-6.57l-31.99-18.47v-18.72h38.56v37.19ZM304.13,227.55h-38.56v-18.72l31.99-18.47h6.57v37.19ZM304.13,187.61h-1.81l1.81-1.04v1.04ZM304.13,180.21l-12.82,7.4h-25.75v-25.75l7.4-12.81h31.16v31.16h.01ZM304.13,146.3h-29.57l22.26-38.56h7.31v38.56ZM304.13,104.98h-5.72l5.72-9.91s0,9.91,0,9.91ZM304.13,84.06l-12.08,20.92h-26.48v-38.56h38.56v17.64ZM314.32,394.19h-7.43v-12.87l7.43,12.87ZM345.45,352.87h-38.56v-38.56h38.56v38.56ZM345.45,311.56h-38.56v-29.57l38.56,22.26v7.31ZM345.45,297.89l-38.56-22.26v-2.63h38.56v24.9h0ZM345.45,270.24h-38.56v-37.19h38.56v37.19ZM345.45,227.55h-38.56v-37.19h38.56v37.19ZM345.45,187.61h-38.56v-2.63l38.56-22.26v24.9h0ZM345.45,156.36l-38.56,22.26v-29.57h38.56v7.31h0ZM345.45,146.3h-38.56v-38.56h38.56v38.56ZM348.2,149.05h9.91l-9.91,5.72v-5.72ZM348.2,311.56v-5.72l9.91,5.72h-9.91ZM386.76,321.74l-12.87-7.43h12.87v7.43ZM386.76,311.56h-17.64l-20.92-12.08v-26.48h38.56v38.56h0ZM386.76,270.24h-38.56v-37.19h38.56v37.19ZM386.76,227.55h-38.56v-37.19h38.56v37.19ZM386.76,187.61h-38.56v-26.48l20.92-12.08h17.64v38.56ZM386.76,146.3h-12.88l12.88-7.43v7.43Z"/>
    <circle class="st1" cx="321.88" cy="57.68" r="20.61"/>
    <circle class="st1" cx="30.61" cy="230.3" r="20.61"/>
    <circle class="st1" cx="49.32" cy="131.17" r="20.61"/>
    <circle class="st1" cx="123.88" cy="57.68" r="20.61"/>
    <circle class="st1" cx="223.05" cy="32.12" r="20.61"/>
    <path class="st1" d="M548.06,239.68h.63c1.25-3.96,3.34-8.33,6.26-13.13,2.92-4.79,6.78-9.22,11.59-13.28,4.8-4.06,10.6-7.45,17.39-10.16,6.79-2.71,14.57-4.06,23.34-4.06,12.32,0,23.02,2.3,32.11,6.88,9.08,4.59,16.6,10.73,22.56,18.44,5.95,7.71,10.39,16.67,13.32,26.88,2.92,10.21,4.39,20.94,4.39,32.19,0,12.3-1.46,23.55-4.39,33.75-2.92,10.21-7.36,19.01-13.32,26.41-5.95,7.4-13.47,13.18-22.56,17.34-9.08,4.17-19.79,6.25-32.11,6.25-13.37,0-25.27-2.92-35.71-8.75s-18.06-15.31-22.87-28.44h-.63v90.94h-11.56v-218.14h11.56v36.88h0ZM607.28,356.87c10.44,0,19.47-1.98,27.1-5.94,7.62-3.96,13.89-9.27,18.8-15.94s8.56-14.42,10.97-23.28c2.4-8.85,3.6-18.28,3.6-28.28,0-9.17-1.15-18.17-3.45-27.03-2.3-8.85-5.85-16.77-10.65-23.75-4.81-6.98-11.02-12.6-18.64-16.88-7.63-4.27-16.87-6.41-27.73-6.41s-19.74,2.09-27.26,6.25c-7.52,4.17-13.63,9.69-18.33,16.56-4.7,6.88-8.1,14.74-10.19,23.6-2.09,8.86-3.13,18.08-3.13,27.66s.94,18.8,2.82,27.66c1.88,8.86,5.06,16.67,9.56,23.44,4.49,6.77,10.55,12.19,18.17,16.25,7.63,4.06,17.08,6.09,28.36,6.09h0Z"/>
    <path class="st1" d="M715.26,275.46h66.88v5.94h-66.88v-5.94Z"/>
    <path class="st1" d="M977.77,204.05c-.42-9.58-2.45-17.92-6.09-25-3.65-7.08-8.59-13.02-14.84-17.81s-13.7-8.38-22.34-10.78c-8.65-2.39-18.08-3.59-28.28-3.59-6.25,0-12.97.73-20.16,2.19s-13.86,4.01-20,7.66c-6.15,3.65-11.2,8.55-15.16,14.69-3.96,6.15-5.94,13.8-5.94,22.97s2.19,16.25,6.56,21.88c4.38,5.63,10.1,10.16,17.19,13.59,7.08,3.44,15.21,6.2,24.38,8.28,9.17,2.09,18.44,4.06,27.81,5.94,9.58,1.88,18.91,4.12,27.97,6.72,9.06,2.61,17.19,6.15,24.38,10.63,7.19,4.48,12.97,10.31,17.34,17.5,4.38,7.19,6.56,16.2,6.56,27.03,0,11.67-2.5,21.46-7.5,29.38s-11.3,14.38-18.91,19.38-16.05,8.59-25.31,10.78c-9.27,2.19-18.18,3.28-26.72,3.28-13.13,0-25.42-1.41-36.88-4.22s-21.46-7.39-30-13.75c-8.55-6.35-15.26-14.53-20.16-24.53-4.9-10-7.24-22.19-7.03-36.56h13.75c-.63,12.3,1.14,22.66,5.31,31.1s9.95,15.37,17.34,20.78c7.39,5.42,16.09,9.33,26.1,11.72,10,2.4,20.52,3.59,31.56,3.59,6.67,0,13.8-.83,21.41-2.5,7.6-1.67,14.58-4.48,20.94-8.44,6.35-3.96,11.67-9.17,15.94-15.63s6.41-14.58,6.41-24.38-2.19-17.03-6.56-22.97c-4.38-5.94-10.16-10.73-17.34-14.38-7.19-3.64-15.31-6.56-24.38-8.75-9.06-2.19-18.39-4.22-27.97-6.09-9.38-1.88-18.65-4.06-27.81-6.56-9.17-2.5-17.3-5.88-24.38-10.16-7.09-4.27-12.81-9.79-17.19-16.56s-6.56-15.47-6.56-26.1,2.24-19.74,6.72-27.35c4.48-7.6,10.31-13.75,17.5-18.44s15.26-8.13,24.22-10.31c8.96-2.19,17.81-3.28,26.56-3.28,11.67,0,22.55,1.3,32.66,3.91,10.1,2.61,18.96,6.67,26.56,12.19s13.7,12.66,18.28,21.41,7.19,19.27,7.81,31.56h-13.75v-.02Z"/>
    <path class="st1" d="M1007.46,140.3h14.06l58.13,208.45h.63l59.07-208.45h17.19l60,208.45h.63l57.19-208.45h14.69l-64.07,223.14h-15.63l-61.25-211.26h-.63l-60.32,211.26h-15.31l-64.38-223.14h0Z"/>
    <path class="st1" d="M1359.35,140.3h15l88.13,223.14h-14.69l-28.13-71.57h-106.88l-28.44,71.57h-14.69l89.69-223.14h0ZM1415.29,280l-47.82-126.26h-.63l-49.69,126.26h98.14Z"/>
    <path class="st1" d="M1490.92,140.3h19.69l87.19,207.82h.63l86.25-207.82h19.69v223.14h-13.75v-206.26h-.63l-85,206.26h-13.75l-85.94-206.26h-.63v206.26h-13.75v-223.14Z"/>
    <path class="st1" d="M1749.99,140.3h95.01c6.25,0,13.17.73,20.78,2.19,7.6,1.46,14.69,4.43,21.25,8.91,6.56,4.48,12.03,10.84,16.41,19.06,4.38,8.23,6.56,19.01,6.56,32.35,0,19.59-6.05,34.69-18.13,45.32-12.09,10.63-29.38,15.94-51.88,15.94h-76.25v99.38h-13.75v-223.14h0ZM1763.74,252.18h78.44c10,0,18.49-1.51,25.47-4.53s12.55-6.92,16.72-11.72c4.17-4.79,7.19-10.1,9.06-15.94,1.88-5.83,2.81-11.67,2.81-17.5,0-4.17-.63-9.11-1.88-14.84s-3.75-11.25-7.5-16.56-9.01-9.79-15.78-13.44c-6.77-3.64-15.78-5.47-27.03-5.47h-80.32v100.01h.01Z"/>
    <polygon class="st3" points="547.48 87.43 547.48 65.52 536.49 65.52 536.49 98.42 569.39 98.42 569.39 87.43 547.48 87.43"/>
    <polygon class="st2" points="591.3 43.54 536.49 43.54 536.49 59.98 547.41 59.98 547.41 54.6 580.39 54.6 580.39 87.43 574.85 87.43 574.85 98.42 591.3 98.42 591.3 43.54"/>
    <polygon class="st2" points="605.83 44.2 622.58 44.2 622.58 84.55 646.55 84.55 646.55 98.42 605.83 98.42 605.83 44.2"/>
    <polygon class="st2" points="653.71 44.2 695.61 44.2 695.61 58.07 670.38 58.07 670.38 64.85 692 64.85 692 77.76 670.38 77.76 670.38 98.42 653.63 98.42 653.63 44.2 653.71 44.2"/>
    <polygon class="st3" points="738.76 98.71 708.44 98.71 708.44 44.05 738.76 44.05 738.76 47.59 712.35 47.59 712.35 68.25 737.29 68.25 737.29 71.79 712.35 71.79 712.35 95.25 738.76 95.25 738.76 98.71"/>
    <path class="st3" d="M791.58,98.71h-3.91l-32.83-48.54h-.29c.29,5.76.44,10.11.44,13.06v35.41h-3.69v-54.59h3.84l32.83,48.46h.22c-.22-4.5-.37-8.78-.37-12.76v-35.7h3.76v54.66h0Z"/>
    <polygon class="st3" points="837.61 98.71 807.3 98.71 807.3 44.05 837.61 44.05 837.61 47.59 811.2 47.59 811.2 68.25 836.14 68.25 836.14 71.79 811.2 71.79 811.2 95.25 837.61 95.25 837.61 98.71"/>
    <path class="st3" d="M853.99,74.89v23.83h-3.84v-54.67h13.21c6.86,0,11.95,1.25,15.27,3.76s4.94,6.27,4.94,11.29c0,3.69-.96,6.78-2.95,9.29-1.99,2.51-4.94,4.35-8.93,5.39l15.05,24.86h-4.72l-14.31-23.83h-13.72v.08h0ZM853.99,71.64h10.55c4.65,0,8.34-1.03,10.85-3.1,2.58-2.07,3.84-5.09,3.84-9.07s-1.25-7.15-3.76-9.07-6.64-2.88-12.39-2.88h-9.07v24.12h-.02Z"/>
    <path class="st3" d="M917.5,70.53h19.99v24.35c-5.24,2.21-11.14,3.32-17.71,3.32-8.56,0-15.12-2.36-19.62-7.15s-6.86-11.51-6.86-20.21c0-5.46,1.11-10.25,3.39-14.46s5.53-7.45,9.74-9.74c4.21-2.28,9.07-3.47,14.53-3.47,5.9,0,11.21,1.1,15.93,3.25l-1.55,3.39c-4.72-2.14-9.59-3.25-14.61-3.25-7.15,0-12.84,2.14-16.96,6.49-4.13,4.35-6.27,10.18-6.27,17.56,0,8.04,1.99,14.09,5.97,18.14,3.98,4.06,9.81,6.05,17.56,6.05,5.02,0,9.22-.66,12.69-2.06v-18.73h-16.15v-3.47h-.07,0Z"/>
    <polygon class="st3" points="963.91 73.78 980.06 44.05 984.19 44.05 965.82 77.4 965.82 98.42 961.84 98.42 961.84 77.69 943.4 44.05 947.82 44.05 963.91 73.78"/>
    <circle class="st1" cx="790.53" cy="278.43" r="13.09"/>
    <circle class="st1" cx="715.26" cy="278.43" r="13.09"/>
  </g>
</svg>