<svg width="1312.7" height="98.4" viewBox="0 0 1312.7 98.4" xmlns="http://www.w3.org/2000/svg"><g id="svgGroup" stroke-linecap="round" fill-rule="evenodd" font-size="9pt" stroke="#000" stroke-width="0.25mm" fill="#000" style="stroke:#000;stroke-width:0.25mm;fill:#000"><path d="M 973.7 96.4 L 975.7 88.9 A 9.908 9.908 0 0 0 976.865 89.474 Q 977.687 89.819 978.7 90.1 A 13.514 13.514 0 0 0 980.979 90.518 A 17.358 17.358 0 0 0 982.7 90.6 Q 986.9 90.6 990.2 87.9 A 12.003 12.003 0 0 0 992.133 85.839 Q 993.881 83.528 995.541 79.675 A 58.58 58.58 0 0 0 996.5 77.3 L 998.8 71.3 L 994 71.3 L 973.7 25.6 L 981.7 22 L 1001.1 65.3 L 1016.2 22.4 L 1024.5 25.6 L 1005.4 77.8 A 71.728 71.728 0 0 1 1003.347 82.887 Q 1002.245 85.326 1001.078 87.314 A 30.86 30.86 0 0 1 999.1 90.3 A 24.268 24.268 0 0 1 996.222 93.511 Q 994.308 95.279 992.205 96.318 A 14.737 14.737 0 0 1 991.6 96.6 Q 987.5 98.4 982.5 98.4 Q 979.5 98.4 977.25 97.8 Q 975 97.2 973.7 96.4 Z M 1133.2 96.4 L 1135.2 88.9 A 9.908 9.908 0 0 0 1136.365 89.474 Q 1137.188 89.819 1138.2 90.1 A 13.514 13.514 0 0 0 1140.479 90.518 A 17.358 17.358 0 0 0 1142.2 90.6 Q 1146.4 90.6 1149.7 87.9 A 12.003 12.003 0 0 0 1151.633 85.839 Q 1153.381 83.528 1155.041 79.675 A 58.58 58.58 0 0 0 1156 77.3 L 1158.3 71.3 L 1153.5 71.3 L 1133.2 25.6 L 1141.2 22 L 1160.6 65.3 L 1175.7 22.4 L 1184 25.6 L 1164.9 77.8 A 71.728 71.728 0 0 1 1162.847 82.887 Q 1161.745 85.326 1160.578 87.314 A 30.86 30.86 0 0 1 1158.6 90.3 A 24.268 24.268 0 0 1 1155.722 93.511 Q 1153.808 95.279 1151.705 96.318 A 14.737 14.737 0 0 1 1151.1 96.6 Q 1147 98.4 1142 98.4 Q 1139 98.4 1136.75 97.8 Q 1134.5 97.2 1133.2 96.4 Z M 423.6 75.2 L 414.6 75.2 L 414.6 23.2 L 423.3 23.2 L 423.3 31.9 Q 426.1 27.7 430.45 24.85 A 17.316 17.316 0 0 1 437.556 22.226 A 22.629 22.629 0 0 1 440.8 22 A 23.225 23.225 0 0 1 445.865 22.518 Q 450.959 23.656 453.95 27.3 Q 458.075 32.326 458.288 40.409 A 33.764 33.764 0 0 1 458.3 41.3 L 458.3 75.2 L 449.3 75.2 L 449.3 42.3 A 19.265 19.265 0 0 0 448.958 38.559 Q 448.519 36.345 447.519 34.597 A 10.966 10.966 0 0 0 446.65 33.3 A 8.579 8.579 0 0 0 440.373 29.947 A 12.061 12.061 0 0 0 439.3 29.9 A 13.122 13.122 0 0 0 432.451 31.864 A 17.353 17.353 0 0 0 430.6 33.15 Q 426.5 36.4 423.6 40.8 L 423.6 75.2 Z M 603.6 75.2 L 594.6 75.2 L 594.6 32.9 L 586.6 32.9 L 586.6 25.1 L 594.6 25.1 L 594.6 19 A 25.495 25.495 0 0 1 595.226 13.182 Q 596.334 8.452 599.402 5.203 A 16.387 16.387 0 0 1 599.5 5.1 A 16.367 16.367 0 0 1 609.904 0.125 A 22.463 22.463 0 0 1 612.3 0 A 29.982 29.982 0 0 1 615.81 0.195 Q 617.555 0.401 619.071 0.825 A 17.884 17.884 0 0 1 619.5 0.95 Q 622.6 1.9 625.4 3.3 L 622.7 10.9 Q 620.6 9.8 618.2 8.9 A 14.172 14.172 0 0 0 614.578 8.079 A 17.356 17.356 0 0 0 612.9 8 A 10.802 10.802 0 0 0 609.871 8.405 A 8.291 8.291 0 0 0 606.15 10.65 A 8.462 8.462 0 0 0 604.203 14.019 Q 603.6 15.92 603.6 18.4 L 603.6 25.1 L 619 25.1 L 619 32.9 L 603.6 32.9 L 603.6 75.2 Z M 191 28.4 L 191 1.2 L 200 1.2 L 200 62.6 A 12.15 12.15 0 0 0 200.102 64.236 Q 200.434 66.67 201.85 67.55 Q 203.7 68.7 205.9 68.7 L 204 75.7 Q 194.5 75.7 192.4 68.1 Q 190.2 71.2 186.25 73.8 Q 182.3 76.4 176.3 76.4 Q 169.9 76.4 164.6 73.1 A 22.692 22.692 0 0 1 157.062 65.309 A 27.622 27.622 0 0 1 156.2 63.75 A 27.533 27.533 0 0 1 153.612 55.808 A 37.221 37.221 0 0 1 153.1 49.5 A 33.94 33.94 0 0 1 153.989 41.586 A 27.963 27.963 0 0 1 156.25 35.4 A 27.291 27.291 0 0 1 160.869 28.809 A 24.186 24.186 0 0 1 164.65 25.6 Q 169.9 22 176.2 22 A 21.642 21.642 0 0 1 180.472 22.402 A 15.942 15.942 0 0 1 185.15 24.1 A 34.343 34.343 0 0 1 187.73 25.689 Q 188.954 26.524 189.925 27.374 A 16.59 16.59 0 0 1 191 28.4 Z M 14.9 97.2 L 5.9 97.2 L 5.9 36.5 A 11.015 11.015 0 0 0 5.773 34.764 Q 5.442 32.698 4.25 31.65 A 5.718 5.718 0 0 0 1.46 30.328 A 7.991 7.991 0 0 0 0 30.2 L 1.9 23.2 Q 7.762 23.2 10.822 26.164 A 10.15 10.15 0 0 1 13.4 30.5 Q 14.355 29.067 16.452 27.178 A 38.58 38.58 0 0 1 16.65 27 A 18.902 18.902 0 0 1 19.351 25.016 A 25.569 25.569 0 0 1 22.25 23.5 A 16.955 16.955 0 0 1 26.809 22.211 A 21.886 21.886 0 0 1 29.9 22 Q 35.9 22 41.15 25.15 A 22.329 22.329 0 0 1 48.328 32.117 A 27.464 27.464 0 0 1 49.6 34.25 Q 52.8 40.2 52.8 48.7 Q 52.8 57 49.6 63.25 A 27.846 27.846 0 0 1 45.666 69.082 A 23.029 23.029 0 0 1 41.25 72.95 Q 36.1 76.4 30.1 76.4 Q 25.5 76.4 21.5 74.55 A 30.352 30.352 0 0 1 18.084 72.711 Q 16.291 71.585 14.9 70.3 L 14.9 97.2 Z M 696.8 70.9 L 696.8 75.2 L 688.4 75.2 L 688.4 1.2 L 697.4 1.2 L 697.4 28.6 Q 699.4 26.3 703.25 24.15 A 16.584 16.584 0 0 1 708.481 22.328 A 22.424 22.424 0 0 1 712.4 22 Q 718.4 22 723.65 25.15 A 22.329 22.329 0 0 1 730.828 32.117 A 27.464 27.464 0 0 1 732.1 34.25 Q 735.3 40.2 735.3 48.7 A 33.315 33.315 0 0 1 734.613 55.588 A 27.75 27.75 0 0 1 733.3 60 A 29.367 29.367 0 0 1 730.139 66.005 A 25.482 25.482 0 0 1 727.95 68.75 A 24.894 24.894 0 0 1 721.819 73.664 A 23.302 23.302 0 0 1 720.4 74.4 A 20.006 20.006 0 0 1 713.034 76.361 A 19.209 19.209 0 0 1 711.8 76.4 Q 707.3 76.4 703.35 74.75 A 30.274 30.274 0 0 1 700.047 73.142 Q 698.222 72.103 696.8 70.9 Z M 144.3 52.9 L 107.9 52.9 A 24.088 24.088 0 0 0 109.039 57.925 Q 110.375 61.738 113 64.3 Q 117.2 68.4 124.1 68.4 Q 128.6 68.4 132.2 67.45 Q 135.8 66.5 139.1 65 L 141.2 72.7 A 40.77 40.77 0 0 1 136.865 74.326 A 51.863 51.863 0 0 1 133.1 75.35 A 38.914 38.914 0 0 1 128.008 76.169 A 52.025 52.025 0 0 1 123 76.4 A 28.318 28.318 0 0 1 115.254 75.395 A 21.108 21.108 0 0 1 105.25 69.25 A 23.521 23.521 0 0 1 100.045 59.71 Q 98.7 55.045 98.7 49.2 A 35.359 35.359 0 0 1 99.533 41.378 A 28.84 28.84 0 0 1 101.65 35.25 A 24.642 24.642 0 0 1 106.666 28.168 A 22.887 22.887 0 0 1 109.9 25.55 A 21.048 21.048 0 0 1 120.159 22.078 A 26.205 26.205 0 0 1 122.2 22 Q 129.7 22 134.65 25.25 Q 139.6 28.5 142.1 34 A 28.185 28.185 0 0 1 144.526 43.864 A 33.434 33.434 0 0 1 144.6 46.1 A 75.204 75.204 0 0 1 144.309 52.797 A 69.426 69.426 0 0 1 144.3 52.9 Z M 929 52.9 L 892.6 52.9 A 24.088 24.088 0 0 0 893.739 57.925 Q 895.075 61.738 897.7 64.3 Q 901.9 68.4 908.8 68.4 Q 913.3 68.4 916.9 67.45 Q 920.5 66.5 923.8 65 L 925.9 72.7 A 40.77 40.77 0 0 1 921.565 74.326 A 51.863 51.863 0 0 1 917.8 75.35 A 38.914 38.914 0 0 1 912.708 76.169 A 52.025 52.025 0 0 1 907.7 76.4 A 28.318 28.318 0 0 1 899.954 75.395 A 21.108 21.108 0 0 1 889.95 69.25 A 23.521 23.521 0 0 1 884.745 59.71 Q 883.4 55.045 883.4 49.2 A 35.359 35.359 0 0 1 884.233 41.378 A 28.84 28.84 0 0 1 886.35 35.25 A 24.642 24.642 0 0 1 891.366 28.168 A 22.887 22.887 0 0 1 894.6 25.55 A 21.048 21.048 0 0 1 904.859 22.078 A 26.205 26.205 0 0 1 906.9 22 Q 914.4 22 919.35 25.25 Q 924.3 28.5 926.8 34 A 28.185 28.185 0 0 1 929.226 43.864 A 33.434 33.434 0 0 1 929.3 46.1 A 75.204 75.204 0 0 1 929.009 52.797 A 69.426 69.426 0 0 1 929 52.9 Z M 1312.4 52.9 L 1276 52.9 A 24.088 24.088 0 0 0 1277.139 57.925 Q 1278.475 61.738 1281.1 64.3 Q 1285.3 68.4 1292.2 68.4 Q 1296.7 68.4 1300.3 67.45 Q 1303.9 66.5 1307.2 65 L 1309.3 72.7 A 40.77 40.77 0 0 1 1304.965 74.326 A 51.863 51.863 0 0 1 1301.2 75.35 A 38.914 38.914 0 0 1 1296.108 76.169 A 52.025 52.025 0 0 1 1291.1 76.4 A 28.318 28.318 0 0 1 1283.354 75.395 A 21.108 21.108 0 0 1 1273.35 69.25 A 23.521 23.521 0 0 1 1268.145 59.71 Q 1266.8 55.045 1266.8 49.2 A 35.359 35.359 0 0 1 1267.633 41.378 A 28.84 28.84 0 0 1 1269.75 35.25 A 24.642 24.642 0 0 1 1274.766 28.168 A 22.887 22.887 0 0 1 1278 25.55 A 21.048 21.048 0 0 1 1288.259 22.078 A 26.205 26.205 0 0 1 1290.3 22 Q 1297.8 22 1302.75 25.25 Q 1307.7 28.5 1310.2 34 A 28.185 28.185 0 0 1 1312.626 43.864 A 33.434 33.434 0 0 1 1312.7 46.1 A 75.204 75.204 0 0 1 1312.409 52.797 A 69.426 69.426 0 0 1 1312.4 52.9 Z M 292.1 57.3 L 292.1 32.9 L 283.1 32.9 L 283.1 25.1 L 292.3 25.1 L 294.2 8.7 L 301.1 8.7 L 301.1 25.1 L 315.5 25.1 L 315.5 32.9 L 301.1 32.9 L 301.1 58 A 21.559 21.559 0 0 0 301.268 60.796 Q 301.741 64.402 303.55 66.1 Q 306 68.4 309.4 68.4 Q 311.9 68.4 314.15 67.6 Q 316.4 66.8 318.3 65.7 L 320.8 72.9 A 18.546 18.546 0 0 1 319.182 73.756 Q 318.38 74.135 317.434 74.508 A 43.365 43.365 0 0 1 315.4 75.25 Q 312 76.4 308.3 76.4 Q 300.8 76.4 296.45 71.45 A 16.116 16.116 0 0 1 293.222 65.548 Q 292.459 63.117 292.215 60.181 A 34.777 34.777 0 0 1 292.1 57.3 Z M 811.5 57.3 L 811.5 32.9 L 802.5 32.9 L 802.5 25.1 L 811.7 25.1 L 813.6 8.7 L 820.5 8.7 L 820.5 25.1 L 834.9 25.1 L 834.9 32.9 L 820.5 32.9 L 820.5 58 A 21.559 21.559 0 0 0 820.668 60.796 Q 821.141 64.402 822.95 66.1 Q 825.4 68.4 828.8 68.4 Q 831.3 68.4 833.55 67.6 Q 835.8 66.8 837.7 65.7 L 840.2 72.9 A 18.546 18.546 0 0 1 838.582 73.756 Q 837.78 74.135 836.834 74.508 A 43.365 43.365 0 0 1 834.8 75.25 Q 831.4 76.4 827.7 76.4 Q 820.2 76.4 815.85 71.45 A 16.116 16.116 0 0 1 812.622 65.548 Q 811.859 63.117 811.615 60.181 A 34.777 34.777 0 0 1 811.5 57.3 Z M 851.2 57.3 L 851.2 32.9 L 842.2 32.9 L 842.2 25.1 L 851.4 25.1 L 853.3 8.7 L 860.2 8.7 L 860.2 25.1 L 874.6 25.1 L 874.6 32.9 L 860.2 32.9 L 860.2 58 A 21.559 21.559 0 0 0 860.368 60.796 Q 860.841 64.402 862.65 66.1 Q 865.1 68.4 868.5 68.4 Q 871 68.4 873.25 67.6 Q 875.5 66.8 877.4 65.7 L 879.9 72.9 A 18.546 18.546 0 0 1 878.282 73.756 Q 877.48 74.135 876.534 74.508 A 43.365 43.365 0 0 1 874.5 75.25 Q 871.1 76.4 867.4 76.4 Q 859.9 76.4 855.55 71.45 A 16.116 16.116 0 0 1 852.322 65.548 Q 851.559 63.117 851.315 60.181 A 34.777 34.777 0 0 1 851.2 57.3 Z M 278.8 25.1 L 276.1 32.7 A 30.422 30.422 0 0 0 273.196 31.424 A 23.42 23.42 0 0 0 270.75 30.65 A 20.543 20.543 0 0 0 267.707 30.125 A 26.355 26.355 0 0 0 265.1 30 A 15.889 15.889 0 0 0 257.847 31.643 A 16.132 16.132 0 0 0 253.35 35.05 Q 248.6 40.1 248.6 49 A 25.192 25.192 0 0 0 249.305 55.06 A 21.45 21.45 0 0 0 250.6 58.8 A 18.564 18.564 0 0 0 253.51 63.378 A 16.275 16.275 0 0 0 256.15 65.8 Q 259.7 68.4 264.5 68.4 Q 267.665 68.4 270.068 67.81 A 15.08 15.08 0 0 0 271 67.55 Q 273.689 66.703 276.776 65.113 A 49.095 49.095 0 0 0 276.8 65.1 L 279.6 72.7 Q 276.5 74.4 272.65 75.4 Q 268.8 76.4 263.9 76.4 A 26.803 26.803 0 0 1 256.861 75.51 A 22.074 22.074 0 0 1 250.95 72.95 Q 245.4 69.5 242.4 63.35 Q 239.4 57.2 239.4 49.2 Q 239.4 41.7 242.45 35.5 Q 245.5 29.3 251.2 25.65 A 23.067 23.067 0 0 1 260.868 22.229 A 29.608 29.608 0 0 1 264.6 22 Q 269 22 272.35 22.8 Q 275.7 23.6 278.8 25.1 Z M 1129.4 25.1 L 1126.7 32.7 A 30.422 30.422 0 0 0 1123.796 31.424 A 23.42 23.42 0 0 0 1121.35 30.65 A 20.543 20.543 0 0 0 1118.307 30.125 A 26.355 26.355 0 0 0 1115.7 30 A 15.889 15.889 0 0 0 1108.447 31.643 A 16.132 16.132 0 0 0 1103.95 35.05 Q 1099.2 40.1 1099.2 49 A 25.192 25.192 0 0 0 1099.905 55.06 A 21.45 21.45 0 0 0 1101.2 58.8 A 18.564 18.564 0 0 0 1104.11 63.378 A 16.275 16.275 0 0 0 1106.75 65.8 Q 1110.3 68.4 1115.1 68.4 Q 1118.265 68.4 1120.668 67.81 A 15.08 15.08 0 0 0 1121.6 67.55 Q 1124.289 66.703 1127.376 65.113 A 49.095 49.095 0 0 0 1127.4 65.1 L 1130.2 72.7 Q 1127.1 74.4 1123.25 75.4 Q 1119.4 76.4 1114.5 76.4 A 26.803 26.803 0 0 1 1107.461 75.51 A 22.074 22.074 0 0 1 1101.55 72.95 Q 1096 69.5 1093 63.35 Q 1090 57.2 1090 49.2 Q 1090 41.7 1093.05 35.5 Q 1096.1 29.3 1101.8 25.65 A 23.067 23.067 0 0 1 1111.468 22.229 A 29.608 29.608 0 0 1 1115.2 22 Q 1119.6 22 1122.95 22.8 Q 1126.3 23.6 1129.4 25.1 Z M 1226.9 25.1 L 1224.2 32.7 A 30.422 30.422 0 0 0 1221.296 31.424 A 23.42 23.42 0 0 0 1218.85 30.65 A 20.543 20.543 0 0 0 1215.807 30.125 A 26.355 26.355 0 0 0 1213.2 30 A 15.889 15.889 0 0 0 1205.947 31.643 A 16.132 16.132 0 0 0 1201.45 35.05 Q 1196.7 40.1 1196.7 49 A 25.192 25.192 0 0 0 1197.405 55.06 A 21.45 21.45 0 0 0 1198.7 58.8 A 18.564 18.564 0 0 0 1201.61 63.378 A 16.275 16.275 0 0 0 1204.25 65.8 Q 1207.8 68.4 1212.6 68.4 Q 1215.765 68.4 1218.168 67.81 A 15.08 15.08 0 0 0 1219.1 67.55 Q 1221.789 66.703 1224.876 65.113 A 49.095 49.095 0 0 0 1224.9 65.1 L 1227.7 72.7 Q 1224.6 74.4 1220.75 75.4 Q 1216.9 76.4 1212 76.4 A 26.803 26.803 0 0 1 1204.961 75.51 A 22.074 22.074 0 0 1 1199.05 72.95 Q 1193.5 69.5 1190.5 63.35 Q 1187.5 57.2 1187.5 49.2 Q 1187.5 41.7 1190.55 35.5 Q 1193.6 29.3 1199.3 25.65 A 23.067 23.067 0 0 1 1208.968 22.229 A 29.608 29.608 0 0 1 1212.7 22 Q 1217.1 22 1220.45 22.8 Q 1223.8 23.6 1226.9 25.1 Z M 783.4 27.4 L 783.4 23.2 L 791.6 23.2 L 791.6 62.6 A 12.15 12.15 0 0 0 791.702 64.236 Q 792.034 66.67 793.45 67.55 Q 795.3 68.7 797.5 68.7 L 795.6 75.7 A 17.722 17.722 0 0 1 791.335 75.228 Q 785.698 73.828 784.103 68.28 A 13.59 13.59 0 0 1 784 67.9 A 21.307 21.307 0 0 1 780.89 71.326 A 28.498 28.498 0 0 1 777.75 73.75 Q 773.8 76.4 767.7 76.4 Q 761.2 76.4 755.9 73.1 A 22.947 22.947 0 0 1 748.487 65.574 A 27.923 27.923 0 0 1 747.45 63.75 A 27.228 27.228 0 0 1 744.82 55.808 A 36.644 36.644 0 0 1 744.3 49.5 A 33.142 33.142 0 0 1 745.297 41.231 A 27.968 27.968 0 0 1 747.45 35.5 Q 750.6 29.3 756.15 25.65 A 22.297 22.297 0 0 1 767.345 22.044 A 27.388 27.388 0 0 1 768.9 22 A 22.584 22.584 0 0 1 773.694 22.491 A 18.703 18.703 0 0 1 777.05 23.55 A 26.002 26.002 0 0 1 781.337 25.844 A 22.103 22.103 0 0 1 783.4 27.4 Z M 1236.7 58.9 L 1236.7 1.2 L 1245.7 1.2 L 1245.7 58 A 20.644 20.644 0 0 0 1245.888 60.888 Q 1246.35 64.152 1247.95 66 A 7.363 7.363 0 0 0 1252.534 68.476 A 10.724 10.724 0 0 0 1254.2 68.6 Q 1256.1 68.6 1257.95 68.15 A 22.192 22.192 0 0 0 1259.413 67.744 Q 1260.348 67.447 1261.1 67.1 L 1263.3 74.4 Q 1261.901 75.022 1259.988 75.523 A 34.978 34.978 0 0 1 1258.85 75.8 A 23.816 23.816 0 0 1 1255.695 76.285 A 30.514 30.514 0 0 1 1253 76.4 A 20.862 20.862 0 0 1 1248.11 75.846 A 17.544 17.544 0 0 1 1244.7 74.65 A 12.683 12.683 0 0 1 1239.375 69.885 A 15.856 15.856 0 0 1 1238.85 69 Q 1237.116 65.854 1236.78 61.212 A 32.105 32.105 0 0 1 1236.7 58.9 Z M 74.3 75.2 L 65.3 75.2 L 65.3 23.2 L 74 23.2 L 74 34.5 Q 75.3 31.2 77.5 28.35 Q 79.7 25.5 83 23.75 A 14.817 14.817 0 0 1 87.68 22.226 A 19.459 19.459 0 0 1 90.7 22 Q 92.2 22 93.7 22.15 A 18.972 18.972 0 0 1 94.755 22.284 Q 95.255 22.362 95.682 22.463 A 8.817 8.817 0 0 1 96.2 22.6 L 93.5 31.9 A 9.763 9.763 0 0 0 91.355 31.288 Q 90.259 31.1 89 31.1 A 12.958 12.958 0 0 0 82.37 32.946 A 15.609 15.609 0 0 0 81.95 33.2 Q 78.622 35.286 76.478 39.642 A 22.927 22.927 0 0 0 76.45 39.7 Q 74.687 43.307 74.37 48.528 A 39.09 39.09 0 0 0 74.3 50.9 L 74.3 75.2 Z M 950.3 75.2 L 941.3 75.2 L 941.3 23.2 L 950 23.2 L 950 34.5 Q 951.3 31.2 953.5 28.35 Q 955.7 25.5 959 23.75 A 14.817 14.817 0 0 1 963.68 22.226 A 19.459 19.459 0 0 1 966.7 22 Q 968.2 22 969.7 22.15 A 18.972 18.972 0 0 1 970.755 22.284 Q 971.255 22.362 971.682 22.463 A 8.817 8.817 0 0 1 972.2 22.6 L 969.5 31.9 A 9.763 9.763 0 0 0 967.355 31.288 Q 966.259 31.1 965 31.1 A 12.958 12.958 0 0 0 958.37 32.946 A 15.609 15.609 0 0 0 957.95 33.2 Q 954.622 35.286 952.478 39.642 A 22.927 22.927 0 0 0 952.45 39.7 Q 950.687 43.307 950.37 48.528 A 39.09 39.09 0 0 0 950.3 50.9 L 950.3 75.2 Z M 363.4 72.95 A 24.559 24.559 0 0 0 367.998 75.04 Q 372.053 76.4 376.7 76.4 Q 384.1 76.4 389.95 73 Q 395.8 69.6 399.2 63.45 A 26.255 26.255 0 0 0 401.853 56.309 A 34.184 34.184 0 0 0 402.6 49 A 34.542 34.542 0 0 0 402.115 43.092 A 25.795 25.795 0 0 0 399.15 34.65 Q 395.7 28.6 389.85 25.3 A 24.848 24.848 0 0 0 385.209 23.273 A 27.738 27.738 0 0 0 376.7 22 A 31.325 31.325 0 0 0 375.12 22.04 A 26.169 26.169 0 0 0 363.5 25.3 Q 357.6 28.6 354.2 34.7 A 26.023 26.023 0 0 0 351.451 42.29 A 35.006 35.006 0 0 0 350.8 49.2 A 34.82 34.82 0 0 0 351.065 53.554 A 27.451 27.451 0 0 0 354.15 63.35 Q 357.5 69.5 363.4 72.95 Z M 542.4 72.95 A 24.559 24.559 0 0 0 546.998 75.04 Q 551.053 76.4 555.7 76.4 Q 563.1 76.4 568.95 73 Q 574.8 69.6 578.2 63.45 A 26.255 26.255 0 0 0 580.853 56.309 A 34.184 34.184 0 0 0 581.6 49 A 34.542 34.542 0 0 0 581.115 43.092 A 25.795 25.795 0 0 0 578.15 34.65 Q 574.7 28.6 568.85 25.3 A 24.848 24.848 0 0 0 564.209 23.273 A 27.738 27.738 0 0 0 555.7 22 A 31.325 31.325 0 0 0 554.12 22.04 A 26.169 26.169 0 0 0 542.5 25.3 Q 536.6 28.6 533.2 34.7 A 26.023 26.023 0 0 0 530.451 42.29 A 35.006 35.006 0 0 0 529.8 49.2 A 34.82 34.82 0 0 0 530.065 53.554 A 27.451 27.451 0 0 0 533.15 63.35 Q 536.5 69.5 542.4 72.95 Z M 226.9 75.2 L 217.9 75.2 L 217.9 23.2 L 226.9 23.2 L 226.9 75.2 Z M 338.8 75.2 L 329.8 75.2 L 329.8 23.2 L 338.8 23.2 L 338.8 75.2 Z M 376.7 68.4 Q 384.6 68.4 389 63.05 A 18.802 18.802 0 0 0 392.819 54.96 A 27.105 27.105 0 0 0 393.4 49.2 Q 393.4 44 391.2 39.65 A 19.198 19.198 0 0 0 387.028 34.081 A 18.17 18.17 0 0 0 385.25 32.65 Q 381.5 30 376.7 30 A 19.249 19.249 0 0 0 371.474 30.672 A 14.037 14.037 0 0 0 364.4 35.2 A 17.878 17.878 0 0 0 360.726 42.574 Q 360 45.506 360 49 Q 360 54.2 362.2 58.65 A 19.437 19.437 0 0 0 365.73 63.69 A 17.627 17.627 0 0 0 368.15 65.75 Q 371.9 68.4 376.7 68.4 Z M 555.7 68.4 Q 563.6 68.4 568 63.05 A 18.802 18.802 0 0 0 571.819 54.96 A 27.105 27.105 0 0 0 572.4 49.2 Q 572.4 44 570.2 39.65 A 19.198 19.198 0 0 0 566.028 34.081 A 18.17 18.17 0 0 0 564.25 32.65 Q 560.5 30 555.7 30 A 19.249 19.249 0 0 0 550.474 30.672 A 14.037 14.037 0 0 0 543.4 35.2 A 17.878 17.878 0 0 0 539.726 42.574 Q 539 45.506 539 49 Q 539 54.2 541.2 58.65 A 19.437 19.437 0 0 0 544.73 63.69 A 17.627 17.627 0 0 0 547.15 65.75 Q 550.9 68.4 555.7 68.4 Z M 782.6 61.9 L 782.6 34 Q 779.9 32.1 776.65 30.95 Q 773.4 29.8 769.8 29.8 A 15.924 15.924 0 0 0 764.829 30.554 A 14.024 14.024 0 0 0 761.35 32.25 A 16.301 16.301 0 0 0 756.331 37.674 A 19.962 19.962 0 0 0 755.6 39.05 A 20.663 20.663 0 0 0 753.847 44.727 A 27.678 27.678 0 0 0 753.5 49.2 Q 753.5 54.8 755.6 59.15 A 17.602 17.602 0 0 0 758.706 63.696 A 15.697 15.697 0 0 0 761.4 65.95 Q 765.1 68.4 769.7 68.4 Q 773.5 68.4 776.9 66.55 Q 780.3 64.7 782.6 61.9 Z M 697.4 36.6 L 697.4 64.4 A 17.99 17.99 0 0 0 701.03 66.585 A 21.802 21.802 0 0 0 702.8 67.3 A 19.462 19.462 0 0 0 708.964 68.396 A 22.039 22.039 0 0 0 709.4 68.4 Q 714.3 68.4 718.05 66 Q 721.8 63.6 723.95 59.2 Q 726.1 54.8 726.1 49 Q 726.1 43 723.95 38.7 Q 721.8 34.4 718.25 32.1 Q 714.7 29.8 710.4 29.8 A 14.741 14.741 0 0 0 704.773 30.863 A 14.054 14.054 0 0 0 702.65 31.95 Q 699.2 34.1 697.4 36.6 Z M 14.9 36.6 L 14.9 62.2 Q 17.5 64.9 20.9 66.65 Q 24.3 68.4 28.3 68.4 Q 34.994 68.4 39.217 63.216 A 17.38 17.38 0 0 0 39.35 63.05 A 18.792 18.792 0 0 0 42.844 55.745 Q 43.505 53.055 43.588 49.908 A 34.555 34.555 0 0 0 43.6 49 Q 43.6 43 41.45 38.7 Q 39.3 34.4 35.75 32.1 Q 32.2 29.8 27.9 29.8 A 14.741 14.741 0 0 0 22.273 30.863 A 14.054 14.054 0 0 0 20.15 31.95 Q 16.7 34.1 14.9 36.6 Z M 191 62.1 L 191 36.3 A 15.847 15.847 0 0 0 188.889 34.127 Q 187.768 33.164 186.369 32.266 A 28.139 28.139 0 0 0 185.7 31.85 Q 182.3 29.8 178.2 29.8 A 14.946 14.946 0 0 0 173.244 30.6 A 13.385 13.385 0 0 0 169.8 32.4 A 16.69 16.69 0 0 0 164.63 38.55 A 19.924 19.924 0 0 0 164.25 39.35 A 22.19 22.19 0 0 0 162.51 45.715 A 28.113 28.113 0 0 0 162.3 49.2 A 24.757 24.757 0 0 0 162.893 54.719 A 20.327 20.327 0 0 0 164.4 59.05 A 18.205 18.205 0 0 0 167.44 63.564 A 16.122 16.122 0 0 0 170.15 65.9 Q 173.8 68.4 178.3 68.4 Q 182 68.4 185.35 66.65 Q 188.7 64.9 191 62.1 Z M 512.8 45 L 478.8 45 L 478.8 36.8 L 512.8 36.8 L 512.8 45 Z M 667.4 45 L 633.4 45 L 633.4 36.8 L 667.4 36.8 L 667.4 45 Z M 1072.5 45 L 1038.5 45 L 1038.5 36.8 L 1072.5 36.8 L 1072.5 45 Z M 107.8 45.6 L 136.3 45.6 A 24.355 24.355 0 0 0 135.896 41.015 Q 135.4 38.431 134.296 36.407 A 12.422 12.422 0 0 0 132.5 33.9 A 12.488 12.488 0 0 0 125.539 30.124 A 18.395 18.395 0 0 0 122 29.8 A 13.58 13.58 0 0 0 116.888 30.735 A 12.524 12.524 0 0 0 112.4 33.85 Q 108.6 37.9 107.8 45.6 Z M 892.5 45.6 L 921 45.6 A 24.355 24.355 0 0 0 920.596 41.015 Q 920.1 38.431 918.996 36.407 A 12.422 12.422 0 0 0 917.2 33.9 A 12.488 12.488 0 0 0 910.239 30.124 A 18.395 18.395 0 0 0 906.7 29.8 A 13.58 13.58 0 0 0 901.588 30.735 A 12.524 12.524 0 0 0 897.1 33.85 Q 893.3 37.9 892.5 45.6 Z M 1275.9 45.6 L 1304.4 45.6 A 24.355 24.355 0 0 0 1303.996 41.015 Q 1303.5 38.431 1302.396 36.407 A 12.422 12.422 0 0 0 1300.6 33.9 A 12.488 12.488 0 0 0 1293.639 30.124 A 18.395 18.395 0 0 0 1290.1 29.8 A 13.58 13.58 0 0 0 1284.988 30.735 A 12.524 12.524 0 0 0 1280.5 33.85 Q 1276.7 37.9 1275.9 45.6 Z M 218.037 12.488 A 5.973 5.973 0 0 0 222.4 14.3 A 8.175 8.175 0 0 0 223.896 14.169 A 5.647 5.647 0 0 0 227 12.55 Q 228.7 10.8 228.7 8 A 7.26 7.26 0 0 0 228.7 7.919 A 6.06 6.06 0 0 0 226.85 3.55 A 7.395 7.395 0 0 0 226.792 3.493 A 6.059 6.059 0 0 0 222.4 1.7 A 8.264 8.264 0 0 0 220.744 1.858 A 5.661 5.661 0 0 0 217.8 3.4 A 5.588 5.588 0 0 0 216.329 6.032 A 7.987 7.987 0 0 0 216.1 8 A 5.992 5.992 0 0 0 216.592 10.419 A 6.643 6.643 0 0 0 217.95 12.4 A 7.466 7.466 0 0 0 218.037 12.488 Z M 329.937 12.488 A 5.973 5.973 0 0 0 334.3 14.3 A 8.175 8.175 0 0 0 335.796 14.169 A 5.647 5.647 0 0 0 338.9 12.55 Q 340.6 10.8 340.6 8 A 7.26 7.26 0 0 0 340.6 7.919 A 6.06 6.06 0 0 0 338.75 3.55 A 7.395 7.395 0 0 0 338.692 3.493 A 6.059 6.059 0 0 0 334.3 1.7 A 8.264 8.264 0 0 0 332.644 1.858 A 5.661 5.661 0 0 0 329.7 3.4 A 5.588 5.588 0 0 0 328.229 6.032 A 7.987 7.987 0 0 0 328 8 A 5.992 5.992 0 0 0 328.492 10.419 A 6.643 6.643 0 0 0 329.85 12.4 A 7.466 7.466 0 0 0 329.937 12.488 Z" vector-effect="non-scaling-stroke"/></g></svg>