<svg width="571.4" height="75.201" viewBox="0 0 571.4 75.201" xmlns="http://www.w3.org/2000/svg"><g id="svgGroup" stroke-linecap="round" fill-rule="evenodd" font-size="9pt" stroke="#000" stroke-width="0.25mm" fill="#000" style="stroke:#000;stroke-width:0.25mm;fill:#000"><path d="M 164.1 74 L 122.1 74 L 122.1 4 L 164.1 4 L 164.1 12.2 L 131.6 12.2 L 131.6 33.5 L 159.6 33.5 L 159.6 41.5 L 131.6 41.5 L 131.6 65.8 L 164.1 65.8 L 164.1 74 Z M 86.5 74 L 75.8 74 L 50.1 6.5 L 59.4 2.9 L 81.4 63.6 L 103.5 3.2 L 112.1 6.5 L 86.5 74 Z M 235.4 55.8 L 235.4 22 L 244.4 22 L 244.4 54.6 A 22.981 22.981 0 0 0 244.654 58.134 Q 244.942 59.981 245.557 61.469 A 10.136 10.136 0 0 0 247 63.95 A 8.404 8.404 0 0 0 252.113 66.971 A 12.807 12.807 0 0 0 254.6 67.2 Q 258.7 67.2 262.55 65.55 Q 266.4 63.9 269.4 61.1 L 269.4 22 L 278.4 22 L 278.4 60.5 A 15.602 15.602 0 0 0 278.502 62.354 Q 278.834 65.116 280.25 66.15 Q 282.1 67.5 284.3 67.5 L 282.4 74.5 Q 273.1 74.5 270.9 67.1 Q 267.4 70.7 262.8 72.95 Q 258.2 75.2 252.9 75.2 Q 248.4 75.2 244.4 73.3 A 14.441 14.441 0 0 1 238.89 68.661 A 18.266 18.266 0 0 1 237.9 67.15 A 16.24 16.24 0 0 1 236.236 63.057 Q 235.4 59.905 235.4 55.8 Z M 536.7 74 L 527.7 74 L 527.7 22 L 536.4 22 L 536.4 30.7 Q 539.2 26.5 543.55 23.65 A 17.316 17.316 0 0 1 550.656 21.025 A 22.629 22.629 0 0 1 553.9 20.8 A 23.225 23.225 0 0 1 558.965 21.318 Q 564.059 22.456 567.05 26.1 Q 571.175 31.126 571.388 39.209 A 33.764 33.764 0 0 1 571.4 40.1 L 571.4 74 L 562.4 74 L 562.4 41.1 A 19.265 19.265 0 0 0 562.058 37.359 Q 561.619 35.145 560.619 33.397 A 10.966 10.966 0 0 0 559.75 32.1 A 8.579 8.579 0 0 0 553.473 28.747 A 12.061 12.061 0 0 0 552.4 28.7 A 13.122 13.122 0 0 0 545.551 30.664 A 17.353 17.353 0 0 0 543.7 31.95 Q 539.6 35.2 536.7 39.6 L 536.7 74 Z M 209 27.2 L 209 0 L 218 0 L 218 61.4 A 12.15 12.15 0 0 0 218.102 63.036 Q 218.434 65.47 219.85 66.35 Q 221.7 67.5 223.9 67.5 L 222 74.5 Q 212.5 74.5 210.4 66.9 Q 208.2 70 204.25 72.6 Q 200.3 75.2 194.3 75.2 Q 187.9 75.2 182.6 71.9 A 22.692 22.692 0 0 1 175.062 64.109 A 27.622 27.622 0 0 1 174.2 62.55 A 27.533 27.533 0 0 1 171.612 54.608 A 37.221 37.221 0 0 1 171.1 48.3 A 33.94 33.94 0 0 1 171.989 40.386 A 27.963 27.963 0 0 1 174.25 34.2 A 27.291 27.291 0 0 1 178.869 27.609 A 24.186 24.186 0 0 1 182.65 24.4 Q 187.9 20.8 194.2 20.8 A 21.642 21.642 0 0 1 198.472 21.202 A 15.942 15.942 0 0 1 203.15 22.9 A 34.343 34.343 0 0 1 205.73 24.489 Q 206.954 25.324 207.925 26.174 A 16.59 16.59 0 0 1 209 27.2 Z M 405.2 56.1 L 405.2 31.7 L 396.2 31.7 L 396.2 23.9 L 405.4 23.9 L 407.3 7.5 L 414.2 7.5 L 414.2 23.9 L 428.6 23.9 L 428.6 31.7 L 414.2 31.7 L 414.2 56.8 A 21.559 21.559 0 0 0 414.368 59.596 Q 414.841 63.202 416.65 64.9 Q 419.1 67.2 422.5 67.2 Q 425 67.2 427.25 66.4 Q 429.5 65.6 431.4 64.5 L 433.9 71.7 A 18.546 18.546 0 0 1 432.282 72.556 Q 431.48 72.935 430.534 73.308 A 43.365 43.365 0 0 1 428.5 74.05 Q 425.1 75.2 421.4 75.2 Q 413.9 75.2 409.55 70.25 A 16.116 16.116 0 0 1 406.322 64.348 Q 405.559 61.917 405.315 58.98 A 34.777 34.777 0 0 1 405.2 56.1 Z M 9.5 74 L 0 74 L 0 4.2 Q 4.1 3.7 9.05 3.45 A 200.806 200.806 0 0 1 17.98 3.204 A 221.966 221.966 0 0 1 19.3 3.2 Q 26.87 3.2 32.472 5.282 A 26.011 26.011 0 0 1 34.1 5.95 A 24.606 24.606 0 0 1 39.182 8.979 A 19.374 19.374 0 0 1 43.4 13.5 Q 46.6 18.3 46.6 24.5 A 25.258 25.258 0 0 1 45.892 30.622 A 19.268 19.268 0 0 1 42.9 37.2 A 22.312 22.312 0 0 1 35.349 43.83 A 28.065 28.065 0 0 1 32.6 45.15 A 34.774 34.774 0 0 1 24.511 47.374 A 47.194 47.194 0 0 1 17.3 47.9 Q 13.1 47.9 9.5 47.6 L 9.5 74 Z M 331.2 23.9 L 328.5 31.5 A 30.422 30.422 0 0 0 325.596 30.224 A 23.42 23.42 0 0 0 323.15 29.45 A 20.543 20.543 0 0 0 320.107 28.924 A 26.355 26.355 0 0 0 317.5 28.8 A 15.889 15.889 0 0 0 310.247 30.443 A 16.132 16.132 0 0 0 305.75 33.85 Q 301 38.9 301 47.8 A 25.192 25.192 0 0 0 301.705 53.86 A 21.45 21.45 0 0 0 303 57.6 A 18.564 18.564 0 0 0 305.91 62.177 A 16.275 16.275 0 0 0 308.55 64.6 Q 312.1 67.2 316.9 67.2 Q 320.065 67.2 322.468 66.61 A 15.08 15.08 0 0 0 323.4 66.35 Q 326.089 65.503 329.176 63.912 A 49.095 49.095 0 0 0 329.2 63.9 L 332 71.5 Q 328.9 73.2 325.05 74.2 Q 321.2 75.2 316.3 75.2 A 26.803 26.803 0 0 1 309.261 74.31 A 22.074 22.074 0 0 1 303.35 71.75 Q 297.8 68.3 294.8 62.15 Q 291.8 56 291.8 48 Q 291.8 40.5 294.85 34.3 Q 297.9 28.1 303.6 24.45 A 23.067 23.067 0 0 1 313.268 21.029 A 29.608 29.608 0 0 1 317 20.8 Q 321.4 20.8 324.75 21.6 Q 328.1 22.4 331.2 23.9 Z M 377.1 26.2 L 377.1 22 L 385.3 22 L 385.3 61.4 A 12.15 12.15 0 0 0 385.402 63.036 Q 385.734 65.47 387.15 66.35 Q 389 67.5 391.2 67.5 L 389.3 74.5 A 17.722 17.722 0 0 1 385.035 74.028 Q 379.398 72.628 377.803 67.08 A 13.59 13.59 0 0 1 377.7 66.7 A 21.307 21.307 0 0 1 374.59 70.126 A 28.498 28.498 0 0 1 371.45 72.55 Q 367.5 75.2 361.4 75.2 Q 354.9 75.2 349.6 71.9 A 22.947 22.947 0 0 1 342.187 64.373 A 27.923 27.923 0 0 1 341.15 62.55 A 27.228 27.228 0 0 1 338.52 54.608 A 36.644 36.644 0 0 1 338 48.3 A 33.142 33.142 0 0 1 338.997 40.031 A 27.968 27.968 0 0 1 341.15 34.3 Q 344.3 28.1 349.85 24.45 A 22.297 22.297 0 0 1 361.045 20.844 A 27.388 27.388 0 0 1 362.6 20.8 A 22.584 22.584 0 0 1 367.394 21.29 A 18.703 18.703 0 0 1 370.75 22.35 A 26.002 26.002 0 0 1 375.037 24.644 A 22.103 22.103 0 0 1 377.1 26.2 Z M 476.5 71.75 A 24.559 24.559 0 0 0 481.098 73.84 Q 485.153 75.2 489.8 75.2 Q 497.2 75.2 503.05 71.8 Q 508.9 68.4 512.3 62.25 A 26.255 26.255 0 0 0 514.953 55.109 A 34.184 34.184 0 0 0 515.7 47.8 A 34.542 34.542 0 0 0 515.215 41.891 A 25.795 25.795 0 0 0 512.25 33.45 Q 508.8 27.4 502.95 24.1 A 24.848 24.848 0 0 0 498.309 22.073 A 27.738 27.738 0 0 0 489.8 20.8 A 31.325 31.325 0 0 0 488.22 20.839 A 26.169 26.169 0 0 0 476.6 24.1 Q 470.7 27.4 467.3 33.5 A 26.023 26.023 0 0 0 464.551 41.09 A 35.006 35.006 0 0 0 463.9 48 A 34.82 34.82 0 0 0 464.165 52.354 A 27.451 27.451 0 0 0 467.25 62.15 Q 470.6 68.3 476.5 71.75 Z M 451.9 74 L 442.9 74 L 442.9 22 L 451.9 22 L 451.9 74 Z M 489.8 67.2 Q 497.7 67.2 502.1 61.85 A 18.802 18.802 0 0 0 505.919 53.76 A 27.105 27.105 0 0 0 506.5 48 Q 506.5 42.8 504.3 38.45 A 19.198 19.198 0 0 0 500.128 32.881 A 18.17 18.17 0 0 0 498.35 31.45 Q 494.6 28.8 489.8 28.8 A 19.249 19.249 0 0 0 484.574 29.472 A 14.037 14.037 0 0 0 477.5 34 A 17.878 17.878 0 0 0 473.826 41.374 Q 473.1 44.306 473.1 47.8 Q 473.1 53 475.3 57.45 A 19.437 19.437 0 0 0 478.83 62.49 A 17.627 17.627 0 0 0 481.25 64.55 Q 485 67.2 489.8 67.2 Z M 376.3 60.7 L 376.3 32.8 Q 373.6 30.9 370.35 29.75 Q 367.1 28.6 363.5 28.6 A 15.924 15.924 0 0 0 358.529 29.354 A 14.024 14.024 0 0 0 355.05 31.05 A 16.301 16.301 0 0 0 350.031 36.474 A 19.962 19.962 0 0 0 349.3 37.85 A 20.663 20.663 0 0 0 347.547 43.527 A 27.678 27.678 0 0 0 347.2 48 Q 347.2 53.6 349.3 57.95 A 17.602 17.602 0 0 0 352.406 62.496 A 15.697 15.697 0 0 0 355.1 64.75 Q 358.8 67.2 363.4 67.2 Q 367.2 67.2 370.6 65.35 Q 374 63.5 376.3 60.7 Z M 209 60.9 L 209 35.1 A 15.847 15.847 0 0 0 206.889 32.927 Q 205.768 31.964 204.369 31.066 A 28.139 28.139 0 0 0 203.7 30.65 Q 200.3 28.6 196.2 28.6 A 14.946 14.946 0 0 0 191.244 29.4 A 13.385 13.385 0 0 0 187.8 31.2 A 16.69 16.69 0 0 0 182.63 37.35 A 19.924 19.924 0 0 0 182.25 38.15 A 22.19 22.19 0 0 0 180.51 44.514 A 28.113 28.113 0 0 0 180.3 48 A 24.757 24.757 0 0 0 180.893 53.519 A 20.327 20.327 0 0 0 182.4 57.85 A 18.205 18.205 0 0 0 185.44 62.363 A 16.122 16.122 0 0 0 188.15 64.7 Q 191.8 67.2 196.3 67.2 Q 200 67.2 203.35 65.45 Q 206.7 63.7 209 60.9 Z M 9.5 11.6 L 9.5 39.5 Q 10.6 39.637 12.031 39.751 A 96.255 96.255 0 0 0 13.4 39.85 Q 15.7 40 18.5 40 A 31.831 31.831 0 0 0 23.88 39.574 Q 26.759 39.08 29.063 38.011 A 15.221 15.221 0 0 0 32.3 36 A 12.896 12.896 0 0 0 37.155 26.558 A 17.32 17.32 0 0 0 37.2 25.3 A 14.452 14.452 0 0 0 36.439 20.507 A 12.136 12.136 0 0 0 32.5 15 A 15.462 15.462 0 0 0 27.419 12.336 Q 25.193 11.626 22.5 11.36 A 34.58 34.58 0 0 0 19.1 11.2 A 131.125 131.125 0 0 0 15.842 11.239 A 109.939 109.939 0 0 0 14 11.3 A 91.274 91.274 0 0 0 11.117 11.464 A 75.041 75.041 0 0 0 9.5 11.6 Z M 443.037 11.288 A 5.973 5.973 0 0 0 447.4 13.1 A 8.175 8.175 0 0 0 448.896 12.969 A 5.647 5.647 0 0 0 452 11.35 Q 453.7 9.6 453.7 6.8 A 7.26 7.26 0 0 0 453.7 6.719 A 6.06 6.06 0 0 0 451.85 2.35 A 7.395 7.395 0 0 0 451.792 2.293 A 6.059 6.059 0 0 0 447.4 0.5 A 8.264 8.264 0 0 0 445.744 0.658 A 5.661 5.661 0 0 0 442.8 2.2 A 5.588 5.588 0 0 0 441.329 4.832 A 7.987 7.987 0 0 0 441.1 6.8 A 5.992 5.992 0 0 0 441.592 9.219 A 6.643 6.643 0 0 0 442.95 11.2 A 7.466 7.466 0 0 0 443.037 11.288 Z" vector-effect="non-scaling-stroke"/></g></svg>