<svg width="213.201" height="94.4" viewBox="0 0 213.201 94.4" xmlns="http://www.w3.org/2000/svg"><g id="svgGroup" stroke-linecap="round" fill-rule="evenodd" font-size="9pt" stroke="#000" stroke-width="0.25mm" fill="#000" style="stroke:#000;stroke-width:0.25mm;fill:#000"><path d="M 164.4 65.3 L 169.2 57.3 Q 172.8 60.3 177.3 62.2 A 23.348 23.348 0 0 0 182.67 63.71 A 32.118 32.118 0 0 0 187.8 64.1 A 27.981 27.981 0 0 0 192.347 63.754 Q 194.77 63.354 196.731 62.494 A 13.701 13.701 0 0 0 199.2 61.1 Q 203.248 58.209 203.395 53.366 A 12.116 12.116 0 0 0 203.4 53 A 11.94 11.94 0 0 0 203.063 50.107 A 9.816 9.816 0 0 0 202.2 47.85 A 8.097 8.097 0 0 0 201 46.194 Q 199.73 44.813 197.584 43.471 A 25.81 25.81 0 0 0 197.55 43.45 Q 194.434 41.508 188.665 39.28 A 118.584 118.584 0 0 0 187.4 38.8 Q 180.2 36 175.9 33.15 A 21.931 21.931 0 0 1 172.811 30.703 Q 171.094 29.053 170.038 27.188 A 13.303 13.303 0 0 1 169.75 26.65 Q 167.9 23 167.9 18 Q 167.9 13 170.65 8.95 Q 173.4 4.9 178.75 2.45 A 25.558 25.558 0 0 1 184.65 0.615 Q 187.893 0 191.7 0 Q 197.9 0 202.85 1.25 Q 207.8 2.5 212.5 4.8 L 209 12.9 A 31.496 31.496 0 0 0 204.874 10.881 A 41.686 41.686 0 0 0 201.05 9.55 Q 196.5 8.2 191.5 8.2 A 27.187 27.187 0 0 0 187.47 8.48 Q 185.338 8.8 183.6 9.487 A 12.616 12.616 0 0 0 181.1 10.8 A 9.902 9.902 0 0 0 178.937 12.765 A 7.359 7.359 0 0 0 177.3 17.5 A 10.464 10.464 0 0 0 177.592 20.022 A 8.562 8.562 0 0 0 178.4 22.1 Q 179.456 24.019 182.491 25.847 A 23.503 23.503 0 0 0 182.75 26 A 33.003 33.003 0 0 0 184.966 27.172 Q 187.235 28.275 190.446 29.523 A 130.016 130.016 0 0 0 192.5 30.3 A 81.228 81.228 0 0 1 197.478 32.329 Q 201.864 34.3 204.85 36.4 A 26.044 26.044 0 0 1 207.89 38.878 Q 210.113 41.006 211.3 43.35 A 17.579 17.579 0 0 1 213.041 49.213 A 22.155 22.155 0 0 1 213.2 51.9 A 21.71 21.71 0 0 1 212.533 57.401 A 17.105 17.105 0 0 1 209.95 63 Q 206.7 67.6 200.95 70 A 30.521 30.521 0 0 1 193.54 72.004 A 40.027 40.027 0 0 1 187.8 72.4 Q 180.5 72.4 174.5 70.45 A 38.206 38.206 0 0 1 169.133 68.268 A 28.433 28.433 0 0 1 164.4 65.3 Z M 49.6 92.4 L 51.6 84.9 A 9.908 9.908 0 0 0 52.765 85.474 Q 53.588 85.819 54.6 86.1 A 13.514 13.514 0 0 0 56.879 86.518 A 17.358 17.358 0 0 0 58.6 86.6 Q 62.8 86.6 66.1 83.9 A 12.003 12.003 0 0 0 68.033 81.839 Q 69.781 79.528 71.441 75.675 A 58.58 58.58 0 0 0 72.4 73.3 L 74.7 67.3 L 69.9 67.3 L 49.6 21.6 L 57.6 18 L 77 61.3 L 92.1 18.4 L 100.4 21.6 L 81.3 73.8 A 71.728 71.728 0 0 1 79.247 78.887 Q 78.145 81.326 76.978 83.314 A 30.86 30.86 0 0 1 75 86.3 A 24.268 24.268 0 0 1 72.122 89.511 Q 70.208 91.279 68.105 92.318 A 14.737 14.737 0 0 1 67.5 92.6 Q 63.4 94.4 58.4 94.4 Q 55.4 94.4 53.15 93.8 Q 50.9 93.2 49.6 92.4 Z M 148.1 1.2 L 148.1 9.4 Q 147.3 9.3 146.3 9.25 A 40.076 40.076 0 0 0 144.972 9.205 A 34.119 34.119 0 0 0 144.4 9.2 A 29.284 29.284 0 0 0 135.888 10.384 A 23.482 23.482 0 0 0 126.45 15.85 A 26.884 26.884 0 0 0 119.544 26.71 A 37.941 37.941 0 0 0 117.8 34.1 Q 120.422 31.572 124.448 29.438 A 42.254 42.254 0 0 1 125 29.15 A 20.497 20.497 0 0 1 131.945 27.078 A 25.578 25.578 0 0 1 135 26.9 A 20.631 20.631 0 0 1 141.074 27.769 A 18.128 18.128 0 0 1 145 29.5 Q 149.4 32.1 151.95 36.75 Q 154.5 41.4 154.5 47.8 A 30.622 30.622 0 0 1 153.765 54.65 A 24.26 24.26 0 0 1 151.55 60.65 A 22.279 22.279 0 0 1 145.628 67.827 A 21.642 21.642 0 0 1 143.5 69.3 A 21.377 21.377 0 0 1 134.222 72.291 A 26.436 26.436 0 0 1 131.8 72.4 Q 125.5 72.4 120.15 69.25 A 20.258 20.258 0 0 1 113.932 63.46 A 27.251 27.251 0 0 1 111.6 59.5 A 29.191 29.191 0 0 1 109.412 53.055 Q 108.716 49.911 108.499 46.243 A 58.177 58.177 0 0 1 108.4 42.8 A 57.323 57.323 0 0 1 109.773 30.099 A 51.807 51.807 0 0 1 110.65 26.75 A 40.567 40.567 0 0 1 115.76 15.733 A 37.643 37.643 0 0 1 117.45 13.4 Q 122 7.6 128.7 4.3 Q 135.4 1 144.3 1 Q 145.2 1 146.25 1.05 A 30.488 30.488 0 0 1 147.121 1.104 Q 147.518 1.134 147.87 1.173 A 17.166 17.166 0 0 1 148.1 1.2 Z M 9.5 71.2 L 0 71.2 L 0 1.4 Q 4.1 0.9 9.05 0.65 A 200.806 200.806 0 0 1 17.98 0.404 A 221.966 221.966 0 0 1 19.3 0.4 Q 26.87 0.4 32.472 2.482 A 26.011 26.011 0 0 1 34.1 3.15 A 24.606 24.606 0 0 1 39.182 6.179 A 19.374 19.374 0 0 1 43.4 10.7 Q 46.6 15.5 46.6 21.7 A 25.258 25.258 0 0 1 45.892 27.822 A 19.268 19.268 0 0 1 42.9 34.4 A 22.312 22.312 0 0 1 35.349 41.03 A 28.065 28.065 0 0 1 32.6 42.35 A 34.774 34.774 0 0 1 24.511 44.574 A 47.194 47.194 0 0 1 17.3 45.1 Q 13.1 45.1 9.5 44.8 L 9.5 71.2 Z M 9.5 8.8 L 9.5 36.7 Q 10.6 36.838 12.031 36.952 A 96.255 96.255 0 0 0 13.4 37.05 Q 15.7 37.2 18.5 37.2 A 31.831 31.831 0 0 0 23.88 36.775 Q 26.759 36.28 29.063 35.211 A 15.221 15.221 0 0 0 32.3 33.2 A 12.896 12.896 0 0 0 37.155 23.758 A 17.32 17.32 0 0 0 37.2 22.5 A 14.452 14.452 0 0 0 36.439 17.707 A 12.136 12.136 0 0 0 32.5 12.2 A 15.462 15.462 0 0 0 27.419 9.537 Q 25.193 8.826 22.5 8.56 A 34.58 34.58 0 0 0 19.1 8.4 A 131.125 131.125 0 0 0 15.842 8.439 A 109.939 109.939 0 0 0 14 8.5 A 91.274 91.274 0 0 0 11.117 8.664 A 75.041 75.041 0 0 0 9.5 8.8 Z M 117.6 42.1 L 117.6 44.3 Q 117.8 53.7 121.95 58.95 A 14.986 14.986 0 0 0 125.413 62.2 A 12.026 12.026 0 0 0 132.2 64.2 A 13.23 13.23 0 0 0 136.922 63.388 A 11.758 11.758 0 0 0 141.85 59.8 A 15.717 15.717 0 0 0 145.325 51.643 A 20.926 20.926 0 0 0 145.5 48.9 A 19.676 19.676 0 0 0 145.008 44.377 A 13.684 13.684 0 0 0 142 38.4 A 11.516 11.516 0 0 0 133.767 34.435 A 15.928 15.928 0 0 0 132.7 34.4 Q 128.4 34.4 124.5 36.5 Q 120.6 38.6 117.6 42.1 Z" vector-effect="non-scaling-stroke"/></g></svg>