<svg width="373.5" height="94.4" viewBox="0 0 373.5 94.4" xmlns="http://www.w3.org/2000/svg"><g id="svgGroup" stroke-linecap="round" fill-rule="evenodd" font-size="9pt" stroke="#000" stroke-width="0.25mm" fill="#000" style="stroke:#000;stroke-width:0.25mm;fill:#000"><path d="M 317.1 71.2 L 308.1 71.2 L 308.1 1.2 L 321.4 1.2 L 340.8 45.5 L 359.9 1.2 L 373.5 1.2 L 373.5 71.2 L 364 71.2 L 364 13.3 L 345.3 55.4 L 335.9 55.4 L 317.1 13.3 L 317.1 71.2 Z M 179.3 71.2 L 169.8 71.2 L 169.8 1.2 L 179.3 1.2 L 179.3 31.1 L 213.8 31.1 L 213.8 1.2 L 223.3 1.2 L 223.3 71.2 L 213.8 71.2 L 213.8 39.3 L 179.3 39.3 L 179.3 71.2 Z M 49.6 92.4 L 51.6 84.9 A 9.908 9.908 0 0 0 52.765 85.474 Q 53.588 85.819 54.6 86.1 A 13.514 13.514 0 0 0 56.879 86.518 A 17.358 17.358 0 0 0 58.6 86.6 Q 62.8 86.6 66.1 83.9 A 12.003 12.003 0 0 0 68.033 81.839 Q 69.781 79.528 71.441 75.675 A 58.58 58.58 0 0 0 72.4 73.3 L 74.7 67.3 L 69.9 67.3 L 49.6 21.6 L 57.6 18 L 77 61.3 L 92.1 18.4 L 100.4 21.6 L 81.3 73.8 A 71.728 71.728 0 0 1 79.247 78.887 Q 78.145 81.326 76.978 83.314 A 30.86 30.86 0 0 1 75 86.3 A 24.268 24.268 0 0 1 72.122 89.511 Q 70.208 91.279 68.105 92.318 A 14.737 14.737 0 0 1 67.5 92.6 Q 63.4 94.4 58.4 94.4 Q 55.4 94.4 53.15 93.8 Q 50.9 93.2 49.6 92.4 Z M 155.3 3.6 L 152.4 11.6 Q 149.3 10.1 146.05 9.2 Q 143.257 8.427 139.615 8.318 A 40.705 40.705 0 0 0 138.4 8.3 A 21.173 21.173 0 0 0 130.495 9.755 A 19.981 19.981 0 0 0 126.95 11.6 A 21.167 21.167 0 0 0 120.584 18.181 A 26.978 26.978 0 0 0 119 21.1 Q 116.1 27.3 116.1 36.1 Q 116.1 44.5 118.95 50.8 A 25.677 25.677 0 0 0 122.536 56.628 A 21.423 21.423 0 0 0 126.85 60.6 A 19.703 19.703 0 0 0 137.995 64.097 A 23.894 23.894 0 0 0 138.4 64.1 A 33.715 33.715 0 0 0 142.371 63.879 Q 144.847 63.585 146.9 62.9 Q 150.5 61.7 153.9 59.8 L 156.8 67.7 A 37.561 37.561 0 0 1 152.305 69.744 A 47.894 47.894 0 0 1 148.35 71.05 A 33.592 33.592 0 0 1 143.385 72.041 Q 140.903 72.355 138.106 72.395 A 57.414 57.414 0 0 1 137.3 72.4 A 32.384 32.384 0 0 1 127.975 71.099 A 27.961 27.961 0 0 1 121.2 68.05 A 28.6 28.6 0 0 1 111.323 57.605 A 34.916 34.916 0 0 1 110.3 55.65 A 37.611 37.611 0 0 1 107.201 45.933 Q 106.425 41.667 106.401 36.814 A 62.816 62.816 0 0 1 106.4 36.5 Q 106.4 25.8 110.35 17.55 Q 114.3 9.3 121.55 4.65 A 29.371 29.371 0 0 1 134.23 0.239 A 37.292 37.292 0 0 1 138.5 0 A 45.639 45.639 0 0 1 143.558 0.268 A 35.2 35.2 0 0 1 147.6 0.95 A 38.224 38.224 0 0 1 155.075 3.495 A 35.605 35.605 0 0 1 155.3 3.6 Z M 298.1 68.7 L 289.4 72.2 L 281.6 52.2 L 249.2 52.2 L 241.4 72 L 233.3 68.7 L 260.7 1.2 L 271.1 1.2 L 298.1 68.7 Z M 9.5 71.2 L 0 71.2 L 0 1.4 Q 4.1 0.9 9.05 0.65 A 200.806 200.806 0 0 1 17.98 0.404 A 221.966 221.966 0 0 1 19.3 0.4 Q 26.87 0.4 32.472 2.482 A 26.011 26.011 0 0 1 34.1 3.15 A 24.606 24.606 0 0 1 39.182 6.179 A 19.374 19.374 0 0 1 43.4 10.7 Q 46.6 15.5 46.6 21.7 A 25.258 25.258 0 0 1 45.892 27.822 A 19.268 19.268 0 0 1 42.9 34.4 A 22.312 22.312 0 0 1 35.349 41.03 A 28.065 28.065 0 0 1 32.6 42.35 A 34.774 34.774 0 0 1 24.511 44.574 A 47.194 47.194 0 0 1 17.3 45.1 Q 13.1 45.1 9.5 44.8 L 9.5 71.2 Z M 9.5 8.8 L 9.5 36.7 Q 10.6 36.838 12.031 36.952 A 96.255 96.255 0 0 0 13.4 37.05 Q 15.7 37.2 18.5 37.2 A 31.831 31.831 0 0 0 23.88 36.775 Q 26.759 36.28 29.063 35.211 A 15.221 15.221 0 0 0 32.3 33.2 A 12.896 12.896 0 0 0 37.155 23.758 A 17.32 17.32 0 0 0 37.2 22.5 A 14.452 14.452 0 0 0 36.439 17.707 A 12.136 12.136 0 0 0 32.5 12.2 A 15.462 15.462 0 0 0 27.419 9.537 Q 25.193 8.826 22.5 8.56 A 34.58 34.58 0 0 0 19.1 8.4 A 131.125 131.125 0 0 0 15.842 8.439 A 109.939 109.939 0 0 0 14 8.5 A 91.274 91.274 0 0 0 11.117 8.664 A 75.041 75.041 0 0 0 9.5 8.8 Z M 265.4 10.6 L 252.2 44.2 L 278.5 44.2 L 265.4 10.6 Z" vector-effect="non-scaling-stroke"/></g></svg>