<svg width="258.701" height="94" viewBox="0 0 258.701 94" xmlns="http://www.w3.org/2000/svg"><g id="svgGroup" stroke-linecap="round" fill-rule="evenodd" font-size="9pt" stroke="#000" stroke-width="0.25mm" fill="#000" style="stroke:#000;stroke-width:0.25mm;fill:#000"><path d="M 152.4 70.8 L 110.4 70.8 L 110.4 0.8 L 152.4 0.8 L 152.4 9 L 119.9 9 L 119.9 30.3 L 147.9 30.3 L 147.9 38.3 L 119.9 38.3 L 119.9 62.6 L 152.4 62.6 L 152.4 70.8 Z M 49.6 92 L 51.6 84.5 A 9.908 9.908 0 0 0 52.765 85.075 Q 53.588 85.419 54.6 85.7 A 13.514 13.514 0 0 0 56.879 86.118 A 17.358 17.358 0 0 0 58.6 86.2 Q 62.8 86.2 66.1 83.5 A 12.003 12.003 0 0 0 68.033 81.439 Q 69.781 79.128 71.441 75.276 A 58.58 58.58 0 0 0 72.4 72.9 L 74.7 66.9 L 69.9 66.9 L 49.6 21.2 L 57.6 17.6 L 77 60.9 L 92.1 18 L 100.4 21.2 L 81.3 73.4 A 71.728 71.728 0 0 1 79.247 78.487 Q 78.145 80.926 76.978 82.915 A 30.86 30.86 0 0 1 75 85.9 A 24.268 24.268 0 0 1 72.122 89.111 Q 70.208 90.879 68.105 91.918 A 14.737 14.737 0 0 1 67.5 92.2 Q 63.4 94 58.4 94 Q 55.4 94 53.15 93.4 Q 50.9 92.8 49.6 92 Z M 188.9 70.8 L 179.4 70.8 L 179.4 9.2 L 157.9 9.2 L 157.9 0.8 L 210.4 0.8 L 210.4 9.2 L 188.9 9.2 L 188.9 70.8 Z M 9.5 70.8 L 0 70.8 L 0 1 Q 4.1 0.5 9.05 0.25 A 200.806 200.806 0 0 1 17.98 0.004 A 221.966 221.966 0 0 1 19.3 0 Q 26.87 0 32.472 2.082 A 26.011 26.011 0 0 1 34.1 2.75 A 24.606 24.606 0 0 1 39.182 5.779 A 19.374 19.374 0 0 1 43.4 10.3 Q 46.6 15.1 46.6 21.3 A 25.258 25.258 0 0 1 45.892 27.423 A 19.268 19.268 0 0 1 42.9 34 A 22.312 22.312 0 0 1 35.349 40.63 A 28.065 28.065 0 0 1 32.6 41.95 A 34.774 34.774 0 0 1 24.511 44.174 A 47.194 47.194 0 0 1 17.3 44.7 Q 13.1 44.7 9.5 44.4 L 9.5 70.8 Z M 219.5 68.55 A 24.559 24.559 0 0 0 224.098 70.64 Q 228.153 72 232.8 72 Q 240.2 72 246.05 68.6 Q 251.9 65.2 255.3 59.05 A 26.255 26.255 0 0 0 257.953 51.909 A 34.184 34.184 0 0 0 258.7 44.6 A 34.542 34.542 0 0 0 258.215 38.692 A 25.795 25.795 0 0 0 255.25 30.25 Q 251.8 24.2 245.95 20.9 A 24.848 24.848 0 0 0 241.309 18.873 A 27.738 27.738 0 0 0 232.8 17.6 A 31.325 31.325 0 0 0 231.22 17.64 A 26.169 26.169 0 0 0 219.6 20.9 Q 213.7 24.2 210.3 30.3 A 26.023 26.023 0 0 0 207.551 37.891 A 35.006 35.006 0 0 0 206.9 44.8 A 34.82 34.82 0 0 0 207.165 49.154 A 27.451 27.451 0 0 0 210.25 58.95 Q 213.6 65.1 219.5 68.55 Z M 232.8 64 Q 240.7 64 245.1 58.65 A 18.802 18.802 0 0 0 248.919 50.56 A 27.105 27.105 0 0 0 249.5 44.8 Q 249.5 39.6 247.3 35.25 A 19.198 19.198 0 0 0 243.128 29.682 A 18.17 18.17 0 0 0 241.35 28.25 Q 237.6 25.6 232.8 25.6 A 19.249 19.249 0 0 0 227.574 26.272 A 14.037 14.037 0 0 0 220.5 30.8 A 17.878 17.878 0 0 0 216.826 38.174 Q 216.1 41.107 216.1 44.6 Q 216.1 49.8 218.3 54.25 A 19.437 19.437 0 0 0 221.83 59.29 A 17.627 17.627 0 0 0 224.25 61.35 Q 228 64 232.8 64 Z M 9.5 8.4 L 9.5 36.3 Q 10.6 36.438 12.031 36.552 A 96.255 96.255 0 0 0 13.4 36.65 Q 15.7 36.8 18.5 36.8 A 31.831 31.831 0 0 0 23.88 36.375 Q 26.759 35.88 29.063 34.811 A 15.221 15.221 0 0 0 32.3 32.8 A 12.896 12.896 0 0 0 37.155 23.358 A 17.32 17.32 0 0 0 37.2 22.1 A 14.452 14.452 0 0 0 36.439 17.307 A 12.136 12.136 0 0 0 32.5 11.8 A 15.462 15.462 0 0 0 27.419 9.137 Q 25.193 8.427 22.5 8.16 A 34.58 34.58 0 0 0 19.1 8 A 131.125 131.125 0 0 0 15.842 8.039 A 109.939 109.939 0 0 0 14 8.1 A 91.274 91.274 0 0 0 11.117 8.264 A 75.041 75.041 0 0 0 9.5 8.4 Z" vector-effect="non-scaling-stroke"/></g></svg>