<svg xmlns="http://www.w3.org/2000/svg" role="img" viewBox="3.78 20.28 141.57 61.95"><path fill="#0079C1" fill-rule="evenodd" d="M28.5 49.5c-.7.5-1.6.9-2.5 1.3h8.3v-8.2c-.3.7-.8 1.8-1.3 2.5l-1.6-1.6c-.5.9-1.2 1.7-1.9 2.5-.8.8-1.6 1.4-2.5 1.9l1.5 1.6zm.1-8.7c-.4.9-1 1.8-1.8 2.6s-1.7 1.4-2.6 1.8l2.2 2.2c.9-.5 1.8-1.2 2.5-1.9.8-.8 1.4-1.6 1.9-2.5l-2.2-2.2zm5.2-.7c.5-2 .5-4.2 0-6.3h-1.1c.5 2.1.5 4.3 0 6.3h1.1zm-1.7 0c.5-1.9.6-4.2 0-6.3h-3.2c.7 2 .7 4.3 0 6.3h3.2zm.8-11.3c.4.6.9 1.6 1.3 2.5v-8.2h-8.3c.8.3 1.6.7 2.5 1.3L26.8 26c.9.5 1.7 1.1 2.5 1.9.8.8 1.4 1.6 1.9 2.5l1.7-1.6zm-8.7-.1c.9.4 1.8 1 2.6 1.8s1.3 1.6 1.8 2.6l2.2-2.2c-.5-.9-1.2-1.8-1.9-2.5-.8-.8-1.6-1.4-2.5-1.9l-2.2 2.2zm-.7-5.2c-2.1-.5-4.2-.5-6.3 0v1.1c2.1-.5 4.2-.5 6.3 0v-1.1zm0 1.7c-2.1-.6-4.2-.5-6.3 0v3.2c2-.7 4.3-.8 6.3 0v-3.2zM9.4 30.5c.5-.9 1.2-1.7 1.9-2.5.8-.8 1.6-1.4 2.5-1.9l-1.6-1.6c.8-.5 1.6-.9 2.5-1.3H6.5v8.3c.4-.9.8-1.7 1.3-2.5l1.6 1.5zm4.9-4.1c-.9.5-1.8 1.2-2.5 1.9-.8.8-1.4 1.6-1.9 2.5l2.2 2.2c.4-1 1-1.8 1.8-2.6s1.7-1.4 2.6-1.8l-2.2-2.2zm-5.7 7.4c-.5 2.1-.6 4.2 0 6.3h3.2c-.7-2-.7-4.3 0-6.3H8.6zm-1.7 0c-.5 2.1-.5 4.2 0 6.3H8c-.5-2-.5-4.2 0-6.3H6.9zm.9 11.3c-.5-.8-.9-1.6-1.3-2.5v8.3h8.2c-.9-.4-1.7-.8-2.5-1.3l1.7-1.6c-.9-.5-1.7-1.2-2.5-1.9-.8-.8-1.4-1.6-1.9-2.5l-1.7 1.5zm2-2.1c.5.9 1.2 1.8 1.9 2.5.8.8 1.6 1.4 2.5 1.9l2.2-2.2c-1-.4-1.8-1-2.6-1.8s-1.4-1.7-1.8-2.6L9.8 43zm7.4 2.5c2 .7 4.3.7 6.3 0v3.2c-2.1.6-4.2.5-6.3 0v-3.2zm0 3.8c2.1.5 4.2.5 6.3 0v1.1c-2.1.5-4.2.5-6.3 0v-1.1z" clip-rule="evenodd"/><path fill="#0079C1" d="M40.7 23h4.2l13.9 19.3V23h4.5v28h-3.8L45.2 31v19.9h-4.5V23zm35.7 13.8h3.9c3.4 0 5.5-1.8 5.5-4.7V32c0-3-2.1-4.6-5.6-4.6h-6.9v23.5h-4.7V23h12c3.4 0 6 1 7.8 2.8 1.4 1.5 2.2 3.6 2.2 6v.1c0 4.6-2.7 7.4-6.4 8.5L91.5 51h-5.6l-9.5-14.2zM95.6 23h21.3v4.4h-16v7.3h13V39h-13v7.5h16.2v4.4H95.6V23zm27 0h5.3v23.5h14.8V51h-20.1V23z"/><path fill="#5C6670" d="M9.9 58.9h-.4l-2.4-3v3h-.6v-4H7l2.4 3v-3h.6v4h-.1zm4.8 0h-.6l-.5-1h-2l-.5 1h-.6l1.8-4h.5l1.9 4zm-2.9-1.5h1.6l-.8-1.7-.8 1.7zm4.6 1.5h-.6v-3.4h-1.3V55h3.2v.5h-1.3v3.4zm2.6 0h-.6v-4h.6v4zm2.9.1c-1.2 0-2-.9-2-2 0-1.2.9-2.1 2-2.1 1.2 0 2 .9 2 2 0 1.2-.9 2.1-2 2.1zm0-3.6c-.8 0-1.5.6-1.5 1.5s.6 1.5 1.5 1.5c.8 0 1.5-.7 1.5-1.5-.1-.8-.7-1.5-1.5-1.5zm6.2 3.5h-.4l-2.4-3v3h-.6v-4h.5l2.4 3v-3h.6v4h-.1zm4.8 0h-.6l-.5-1h-2l-.5 1h-.6l1.8-4h.5l1.9 4zM30 57.4h1.6l-.8-1.7-.8 1.7zm6.2 1.5h-2.8v-4h.6v3.4h2.2v.6zm2.9 0h-.6v-4h1.7c.5 0 .9.1 1.1.4.2.2.3.5.3.8 0 .6-.4 1-1 1.2l1.2 1.6h-.7l-1.5-2h.5c.6 0 .9-.3.9-.7 0-.5-.3-.7-.9-.7H39v3.4zm50.5 0H89v-4h1.7c.5 0 .9.1 1.1.4.2.2.3.5.3.8 0 .6-.4 1-1 1.2l1.2 1.6h-.7l-1.5-2h.5c.6 0 .9-.3.9-.7 0-.5-.3-.7-.9-.7h-1.1v3.4zm30.4 0h-.6v-4h1.7c.5 0 .9.1 1.1.4.2.2.3.5.3.8 0 .6-.4 1-1 1.2l1.2 1.6h-.7l-1.5-2h.5c.6 0 .9-.3.9-.7 0-.5-.3-.7-.9-.7h-1v3.4zm15.9 0h-.6v-4h1.7c.5 0 .9.1 1.1.4.2.2.3.5.3.8 0 .6-.4 1-1 1.2l1.2 1.6h-.6l-1.5-2h.5c.6 0 .9-.3.9-.7 0-.5-.3-.7-.9-.7h-1.1v3.4zm-90.4 0h-3v-4h2.9v.5H43v1.2h2.1v.5H43v1.2h2.4v.6h.1zm4.2 0h-.4l-2.4-3v3h-.6v-4h.5l2.4 3v-3h.6v4h-.1zm3.9 0h-3v-4h2.9v.5h-2.4v1.2h2v.5h-2v1.2h2.4v.6h.1zm4.9.1H58l-1-3-1 3h-.5l-1.4-4h.6l1.1 3.1 1-3.1h.5l1 3.1 1.1-3.1h.6l-1.5 4zm5.3-.1h-.6l-.5-1h-2l-.5 1h-.6l1.8-4h.6l1.8 4zm-2.9-1.5h1.6l-.8-1.7-.8 1.7zm5.3 1.5h-1.8v-4h1.7c.4 0 .8.1 1.1.4.2.2.3.4.3.7 0 .5-.3.7-.5.9.5.2.7.5.7.9 0 .7-.6 1.1-1.5 1.1zm-1.2-.5h1.2c.6 0 .9-.2.9-.6 0-.5-.6-.6-1-.6H65v1.2zm0-1.7h1.1c.5 0 .8-.2.8-.6 0-.4-.3-.6-.8-.6H65v1.2zm6.2 2.2h-2.8v-4h.6v3.4h2.2v.6zm3.6 0h-3v-4h2.9v.5h-2.4v1.2h2v.5h-2v1.2h2.4v.6h.1zm5.4 0h-3v-4h2.9v.5h-2.4v1.2h2v.5h-2v1.2h2.4v.6h.1zm4.2 0H84l-2.4-3v3H81v-4h.5l2.3 2.9v-3h.6v4.1zm3.9 0h-3v-4h2.9v.5h-2.4v1.2h2v.5h-2v1.2h2.4v.6h.1zm6.6.1c-1.2 0-2-.8-2-2s.9-2.1 2-2.1c.6 0 1 .2 1.5.5l-.4.4c-.3-.2-.6-.4-1.1-.4-.8 0-1.4.7-1.4 1.5 0 .9.6 1.5 1.5 1.5.4 0 .8-.1 1.1-.4v-.9h-1.2v-.5h1.7v1.6c-.3.4-.9.8-1.7.8zm4.1-.1h-.6v-1.6L96.8 55h.7l1.3 1.9L100 55h.7L99 57.4v1.5zm6.6 0h-2.8v-4h.6v3.4h2.2v.6zm4.5 0h-.6l-.5-1h-2l-.5 1h-.6l1.8-4h.5l1.9 4zm-2.9-1.5h1.6l-.8-1.7-.8 1.7zm5.3 1.5h-1.8v-4h1.7c.5 0 .8.1 1.1.4.2.2.3.4.3.7 0 .5-.3.7-.5.9.5.2.7.5.7.9-.1.7-.6 1.1-1.5 1.1zm-1.3-.5h1.2c.6 0 .9-.2.9-.6 0-.5-.6-.6-1-.6h-1.2v1.2h.1zm0-1.7h1.1c.5 0 .8-.2.8-.6 0-.4-.3-.6-.8-.6h-1.1v1.2zm5.3 2.3c-1.2 0-2-.9-2-2 0-1.2.9-2.1 2-2.1 1.2 0 2 .9 2 2 .1 1.2-.8 2.1-2 2.1zm0-3.6c-.8 0-1.5.6-1.5 1.5s.6 1.5 1.5 1.5c.8 0 1.5-.7 1.5-1.5s-.6-1.5-1.5-1.5zm10.7 3.5h-.6l-.5-1h-2l-.5 1h-.6l1.8-4h.5l1.9 4zm-2.9-1.5h1.6l-.8-1.7-.8 1.7zm4.6 1.5h-.6v-3.4H127V55h3.2v.5h-1.3v3.4zm3.6.1c-1.2 0-2-.9-2-2 0-1.2.9-2.1 2-2.1 1.2 0 2 .9 2 2 0 1.2-.9 2.1-2 2.1zm0-3.6c-.8 0-1.5.6-1.5 1.5s.6 1.5 1.5 1.5c.8 0 1.5-.7 1.5-1.5-.1-.8-.7-1.5-1.5-1.5zm8.5 3.5h-.6v-1.6l-1.7-2.4h.7l1.3 1.9L142 55h.7l-1.7 2.4v1.5z"/><path d="M26.15953 65.22357c.35882.2906.5357.77576.5357 1.45803 0 .67973-.17688 1.17753-.5357 1.4934-.35882.31333-.86167.47-1.50603.47h-2.54964v-3.85605h2.54964c.64436 0 1.14721.14656 1.50603.43462zm2.07459 4.71773c.78081-.6393 1.17248-1.73093 1.17248-3.2774 0-1.41506-.39167-2.4612-1.17248-3.13588-.78334-.67468-1.832-1.01328-3.146-1.01328h-5.7032v13.0944h2.71894v-4.70762h2.77959c1.45044 0 2.56733-.32092 3.35067-.96022zm3.41131 7.5251v2.02405c.27038.02022.47506.03032.61151.03285.13645.00253.3184.00506.54329.00506 1.11941 0 1.86485-.22237 2.23883-.66205.37145-.44221.87936-1.58184 1.51867-3.41637l3.32287-9.52389h-2.69368l-1.99877 7.14355-2.1125-7.14355h-2.81749L33.811 76.03618c.02526.07075-.0278.26532-.15415.58624-.12634.31839-.26532.53065-.4144.63173-.15415.10613-.34367.17435-.56856.20215-.2249.03032-.4599.04043-.71006.0278zm3.429-11.7981zm6.50172-3.13587v13.0767h2.71894v-5.49095h5.74617v-2.27421H44.2951v-3.00954h6.56489v-2.302zm16.2884 3.1662c-.03285-.00253-.07328-.00253-.11877-.00253-.75807 0-1.37463.1971-1.84969.59383-.2906.23753-.6292.67973-1.02087 1.3241v-1.68798h-2.41571v9.68308h2.54964v-4.62675c0-.77829.09602-1.3519.29312-1.72587.34871-.66205 1.0335-.99307 2.05184-.99307.07581 0 .17689.00252.3007.00758.12635.00758.26786.01768.42705.03537v-2.5926c-.11118-.00758-.18446-.0101-.21731-.01516zm7.03994 5.20289v.94253c-.01769.84651-.25522 1.43023-.71511 1.74862-.4599.32091-.96022.4801-1.50603.4801-.34366 0-.63426-.09601-.87431-.28806-.24006-.19204-.35882-.50538-.35882-.93748 0-.48516.19457-.84398.58624-1.07646.22995-.13645.6115-.25016 1.14468-.34618l.56856-.10613c.28554-.05307.5079-.11119.67215-.17183.16172-.06317.32345-.14404.48264-.24511zm-1.53635-1.18259l-.86168.10613c-.9779.12634-1.71829.33355-2.22114.62414-.91727.53318-1.37716 1.39485-1.37716 2.58502 0 .91727.28554 1.62733.85662 2.12765.57108.50033 1.2963.7505 2.17313.7505.68732 0 1.30388-.15668 1.84716-.47254.45737-.26532.85915-.58877 1.20786-.9678a7.3394 7.3394 0 0 0 .07075.58624c.03033.17183.0834.3563.16173.55086h2.75432v-.37398c-.16678-.0758-.2906-.17435-.37398-.29312-.0834-.11624-.13393-.34113-.15162-.67468-.01263-.43715-.01769-.81114-.01769-1.11942v-4.43976c0-1.16743-.41188-1.96087-1.23565-2.38287-.82124-.41946-1.76378-.6292-2.82507-.6292-1.62733 0-2.77707.42452-3.4467 1.27862-.41946.5458-.65699 1.2407-.71005 2.08722h2.4435c.05813-.37399.1769-.66963.3563-.88695.24764-.29817.67216-.44473 1.2685-.44473.53318 0 .93748.0758 1.21292.2249.27543.1516.4144.42704.4144.82376 0 .32597-.18193.5635-.54328.71764-.20215.09097-.5357.16425-1.00317.22237zm.13392-4.05062zm18.26443.29312c-.4144-.16425-.8364-.24764-1.26092-.24764-.64183 0-1.2205.1314-1.74356.39925-.49022.26533-.9021.6848-1.23313 1.25335-.18951-.47506-.46747-.86168-.8364-1.1649-.45484-.32598-1.05372-.4877-1.7941-.4877-.78081 0-1.4176.18952-1.91034.56856-.27796.21226-.5736.57108-.88694 1.07393v-1.41254h-2.4612v9.6654h2.56733V69.7821c0-.52812.06823-.92484.20468-1.19017.24764-.46747.7328-.70248 1.4555-.70248.62161 0 1.04108.235 1.25334.70248.11876.26027.17688.67721.17688 1.25334v5.76386h2.54964v-5.76386c0-.43462.06823-.80355.20468-1.11183.26785-.58119.75049-.86925 1.44791-.86925.60393 0 1.01835.22489 1.24324.67468.11876.235.1794.53823.1794.90463v6.16563h2.5926l.0177-6.10246c0-.6292-.0278-1.10426-.08844-1.43023-.0935-.49274-.27796-.90715-.55087-1.24323-.33608-.41441-.71258-.705-1.127-.87178zm6.55226 2.34496c.32091-.3664.77575-.55086 1.362-.55086.53822 0 .99054.17435 1.35441.52054.36388.34619.56856.8541.60899 1.52372h-3.93439c.0834-.6292.28554-1.12447.60899-1.4934zm3.54018-2.18577c-.64688-.3007-1.3721-.45231-2.17819-.45231-1.35694 0-2.45867.44726-3.3077 1.34178-.85157.89453-1.2761 2.18072-1.2761 3.85605 0 1.78905.47001 3.0803 1.41255 3.87374.94253.79345 2.0291 1.19017 3.2597 1.19017 1.4934 0 2.65324-.47253 3.48206-1.41254.53318-.59382.83388-1.17753.89958-1.75114h-2.58502c-.13645.28554-.29565.5079-.47253.6671-.32597.29565-.74796.44474-1.27103.44474-.49022 0-.91221-.1213-1.26092-.3664-.5736-.38915-.87936-1.0714-.91474-2.04174h6.62806c.0101-.8364-.01516-1.4757-.08086-1.92044-.11119-.75807-.35882-1.42265-.73786-1.99878-.41946-.64941-.95264-1.127-1.597-1.43023zm-1.99878-.45231zm7.90415 5.98875h-2.48647c.04043 1.0234.24763 1.85222.62162 2.48647.71005 1.19017 1.97856 1.78652 3.80298 1.78652 1.48076 0 2.59765-.41441 3.3532-1.2407.75554-.8263 1.13205-1.784 1.13205-2.8731 0-1.03602-.32345-1.85474-.9678-2.45109-.4321-.39672-.76313-.59634-.9956-.59634.30828-.11877.60393-.34114.88947-.6671.44978-.52055.67468-1.15985.67468-1.91792 0-1.0714-.37651-1.9255-1.13205-2.56228-.75555-.63678-1.74862-.95517-2.98175-.95517-.66204 0-1.22302.08086-1.67786.24006-.45737.1592-.85156.38914-1.18259.69237-.44473.42704-.76817.892-.97538 1.39485-.1971.5736-.30575 1.18259-.33102 1.8219h2.36517c-.01263-.63426.1213-1.13964.4043-1.51868.2805-.38156.72018-.56855 1.31905-.56855.52054 0 .92485.15162 1.21291.4599.28554.30828.42958.70753.42958 1.20028 0 .75807-.28049 1.26092-.84399 1.51108-.32597.14656-.89958.22742-1.72334.24006v1.81178c.84145 0 1.45802.07834 1.84716.24006.68732.28301 1.03097.84904 1.03097 1.69555 0 .6393-.18446 1.12952-.55591 1.47066-.36893.34113-.80356.51043-1.30136.51043-.81113 0-1.36958-.3108-1.67786-.93243-.16677-.3386-.25016-.76312-.25016-1.2786zm11.19416-6.86811h2.52438c1.24323 0 2.07206.3563 2.49152 1.0714.41694.71259.62667 1.73598.62667 3.06766 0 .96528-.1415 1.79915-.41946 2.49658-.50791 1.27355-1.41001 1.91033-2.69873 1.91033h-2.52438zm5.01085-1.98867c-.53823-.17941-1.21544-.2729-2.02658-.28554h-5.64004v13.0944h5.64004c1.97857 0 3.44164-.81367 4.38923-2.44352.69995-1.20786 1.04866-2.68104 1.04866-4.42207 0-.68732-.08339-1.41001-.25016-2.16808-.16425-.75807-.47506-1.46308-.93243-2.11502-.56855-.80608-1.31146-1.35947-2.22872-1.66017zm8.12903 1.98867h2.52185c1.24324 0 2.07459.3563 2.49152 1.0714.41947.71259.62668 1.73598.62668 3.06766 0 .96528-.13898 1.79915-.41694 2.49658-.51044 1.27355-1.41001 1.91033-2.70126 1.91033h-2.52185zm5.01085-1.98867c-.54076-.17941-1.21544-.2729-2.02658-.28554h-5.64004v13.0944h5.64004c1.97857 0 3.44164-.81367 4.38923-2.44352.69742-1.20786 1.04866-2.68104 1.04866-4.42207 0-.68732-.08339-1.41001-.25016-2.16808-.16678-.75807-.47758-1.46308-.93243-2.11502-.56855-.80608-1.31146-1.35947-2.22872-1.66017z"/></svg>
