<?xml version="1.0" encoding="UTF-8" standalone="no"?>
<!-- Created with Inkscape (http://www.inkscape.org/) -->

<svg
   version="1.1"
   id="svg1232"
   width="214.6528"
   height="260.00443"
   viewBox="0 0 214.6528 260.00443"
   sodipodi:docname="pyGRETA.svg"
   inkscape:version="1.2.2 (b0a84865, 2022-12-01)"
   xmlns:inkscape="http://www.inkscape.org/namespaces/inkscape"
   xmlns:sodipodi="http://sodipodi.sourceforge.net/DTD/sodipodi-0.dtd"
   xmlns="http://www.w3.org/2000/svg"
   xmlns:svg="http://www.w3.org/2000/svg">
  <defs
     id="defs1236" />
  <sodipodi:namedview
     id="namedview1234"
     pagecolor="#ffffff"
     bordercolor="#666666"
     borderopacity="1.0"
     inkscape:showpageshadow="2"
     inkscape:pageopacity="0.0"
     inkscape:pagecheckerboard="0"
     inkscape:deskcolor="#d1d1d1"
     showgrid="false"
     inkscape:zoom="0.87407407"
     inkscape:cx="106.39831"
     inkscape:cy="131.5678"
     inkscape:window-width="729"
     inkscape:window-height="480"
     inkscape:window-x="0"
     inkscape:window-y="25"
     inkscape:window-maximized="0"
     inkscape:current-layer="g1238" />
  <g
     inkscape:groupmode="layer"
     inkscape:label="Image"
     id="g1238"
     transform="translate(-3.3471977,-3.3333333)">
    <g
       id="g1359">
      <path
         style="fill:#daedcc;stroke-width:0.666667"
         d="M 3.7761273,233.83333 C 3.2068402,195.7649 3.2033415,88.548607 3.7709586,75.434607 l 0.4376253,-10.110723 44.0623741,0.171391 44.062374,0.171392 0.197127,4.5 0.197126,4.5 H 52.697126 12.666666 v 12.419446 12.41944 l 4.166667,-0.45168 C 30.62193,97.559127 58.396105,90.811173 78.666665,84.03098 123.65518,68.983 163.41442,46.667785 205.43772,12.87962 211.96786,7.6291627 217.4658,3.3333333 217.65536,3.3333333 217.84491,3.3333333 218,7.930884 218,13.550113 v 10.216779 l -8.83334,7.022543 C 182.51493,51.977694 161.84197,65.156912 133,79.346433 98.594479,96.273087 62.630664,107.81931 24.017442,114.33539 c -5.67374,0.95746 -10.428781,1.85373 -10.566758,1.9917 -0.595578,0.59558 0.65195,1.5243 1.716646,1.27795 0.641302,-0.14838 13.316003,-1.63145 28.166003,-3.2957 40.216979,-4.50716 51.497866,-6.40279 83.666667,-14.05927 25.42284,-6.050877 69.89906,-15.583403 72.70798,-15.583403 0.78054,0 0.95868,1.486586 0.95868,8 0,4.4 -0.0921,8.000003 -0.20476,8.000003 -0.11262,0 -3.93762,0.73485 -8.5,1.633 -15.76902,3.1043 -30.83972,6.40774 -50.19641,11.00287 -46.217111,10.9716 -52.795171,12.1384 -94.098824,16.69105 -13.566667,1.49537 -26.616666,3.02536 -29,3.39999 -4.065322,0.63901 -6.016793,1.47851 -5.240765,2.25455 0.185357,0.18535 5.265357,-0.39702 11.288889,-1.29416 27.795541,-4.13985 58.823095,-6.2122 80.61854,-5.38457 21.80564,0.82802 59.35039,6.54303 88.02073,13.39839 l 7.3126,1.74852 v 7.94184 c 0,7.30468 -0.0997,7.94185 -1.24285,7.94185 -0.68357,0 -10.80857,-1.95055 -22.5,-4.33454 -49.66309,-10.12679 -67.72962,-11.92215 -104.590478,-10.39365 -17.791448,0.73776 -27.241651,1.80068 -49.666666,5.58633 l -9,1.51932 -0.40657,22.31127 c -0.223614,12.2712 -0.448614,35.13627 -0.5,50.81127 L 12.666666,254 H 102 191.33333 v -40.69713 -40.69712 l 4.5,0.19712 4.5,0.19713 0.17133,45.16667 0.17132,45.16666 H 102.44663 4.2172796 Z m 31.8765997,-0.99369 c -4.990153,-1.78601 -7.368863,-3.79321 -9.389343,-7.92293 -3.27048,-6.68462 -2.09614,-16.38462 2.602513,-21.49664 4.997384,-5.43703 16.851532,-6.37657 22.326638,-1.76958 1.762605,1.48314 4.693649,6.7139 4.078446,7.27843 -0.14904,0.13676 -1.170982,0.43883 -2.270982,0.67126 -1.802756,0.38092 -2.131495,0.17567 -3.333333,-2.08122 -1.641045,-3.08166 -4.296593,-4.4438 -8.693804,-4.45941 -8.264298,-0.0293 -13.088636,7.32671 -11.08333,16.89963 1.661057,7.92955 9.384036,11.44447 17.48688,7.95873 l 3.290254,-1.41544 V 223.25124 220 h -4.666667 -4.666666 v -2.33333 -2.33334 h 7.356655 7.356655 l -0.189989,6.82669 -0.189988,6.82668 -4.37377,2.22509 c -5.532557,2.8146 -10.794216,3.36224 -15.640169,1.62785 z m 26.347272,-16.50631 v -17 l 10.166667,0.001 c 11.657246,0.001 14.011833,0.68784 15.998966,4.66563 2.442507,4.88937 0.693327,10.35833 -3.994407,12.48884 -1.377506,0.62606 -2.635066,1.22769 -2.794573,1.33696 -0.159513,0.10927 0.78354,1.31817 2.09566,2.68644 2.090913,2.18007 8.527687,11.6111 8.527687,12.49428 0,0.17958 -1.306494,0.32651 -2.903314,0.32651 h -2.90332 l -4.10268,-6.29973 c -2.25648,-3.46485 -4.766739,-6.76485 -5.578359,-7.33333 -0.952567,-0.66721 -2.95918,-1.0336 -5.660667,-1.0336 H 66.666666 V 226 v 7.33333 h -2.333334 -2.333333 z m 20.72686,-4.24052 c 1.7104,-2.1144 1.6489,-5.54563 -0.128254,-7.15615 -1.158193,-1.04959 -2.662233,-1.30915 -8.666666,-1.49565 l -7.265273,-0.22564 v 5.4513 5.4513 l 7.393526,-0.22565 c 6.827653,-0.20838 7.490967,-0.34611 8.666667,-1.79951 z m 13.27314,4.24052 v -17 h 12.333331 12.33333 v 2 2 h -9.99999 -10 v 5 5 H 110 119.33333 V 215.66667 218 H 110 100.66667 v 5.33333 5.33334 H 111 121.33333 V 231 233.33333 H 108.66667 95.999999 Z m 40.000001,2 v -15 h -5.66667 -5.66667 v -2 -2 H 138.33333 152 v 2 2 h -5.66667 -5.66667 v 15 15 H 138.33333 136 Z m 13.8793,11.83334 c 0.66395,-1.74167 3.58773,-9.3903 6.49728,-16.99696 l 5.29008,-13.83029 2.68739,-0.003 2.68739,-0.003 6.45506,15.83334 c 3.55028,8.70833 6.65541,16.37751 6.90029,17.04261 0.3925,1.06607 0.10964,1.1845 -2.38835,1 l -2.83359,-0.20928 -1.84413,-4.66667 -1.84414,-4.66666 -7.02471,-0.1887 c -6.80956,-0.18291 -7.03911,-0.14208 -7.49495,1.33334 -0.25864,0.83711 -1.05356,3.09702 -1.76649,5.02202 -1.26193,3.40738 -1.36546,3.5 -3.91228,3.5 h -2.61605 l 1.2072,-3.16666 z m 19.33624,-12.33334 C 169.097,217.375 167.9704,214.13836 166.712,210.64081 l -2.288,-6.3592 -2.13323,6.02586 c -1.17329,3.31422 -2.35078,6.55086 -2.61667,7.19253 -0.43583,1.05181 0.0207,1.16667 4.63679,1.16667 3.76668,0 5.06323,-0.2203 4.90465,-0.83334 z M 24.666666,191.66667 c 0,-0.62222 0.62963,-1 1.666667,-1 H 28 V 180 169.33333 h -1.666667 c -1.037037,0 -1.666667,-0.37778 -1.666667,-1 0,-0.72222 0.740741,-1 2.666667,-1 2.293484,0 2.666667,0.20286 2.666667,1.44954 v 1.44955 l 1.601138,-1.50419 c 3.488286,-3.27708 10.464585,-2.17304 13.048438,2.06498 1.826389,2.99564 1.806659,7.7803 -0.04177,10.1302 -2.987452,3.79793 -8.43931,4.85719 -12.441136,2.41723 L 30,182.0196 v 4.28329 4.28329 l 2.448466,0.20691 c 1.346657,0.1138 2.571657,0.58191 2.722223,1.04024 0.203843,0.62052 -1.102464,0.83334 -5.115134,0.83334 -4.345679,0 -5.388889,-0.19359 -5.388889,-1 z m 17.5,-11.65404 c 4.046403,-4.48857 1.063479,-10.6793 -5.145687,-10.6793 -5.051369,0 -8.159154,4.3094 -6.316293,8.75846 1.990596,4.80572 7.959533,5.80602 11.46198,1.92084 z m 9.166667,11.65404 c 0,-0.75009 0.800221,-1 3.201991,-1 3.106257,0 3.243228,-0.0847 4.581208,-2.83334 L 60.495748,185 l -3.91968,-7.83333 c -2.155823,-4.30834 -4.217367,-7.83334 -4.581207,-7.83334 -0.363841,0 -0.661528,-0.46568 -0.661528,-1.03484 0,-0.82952 0.694419,-0.99486 3.5,-0.83333 3.506575,0.20189 4.817671,1.3477 1.999999,1.74787 -0.825,0.11717 -1.499999,0.34817 -1.499999,0.51332 0,1.21321 6.212829,12.31728 6.634631,11.85795 0.295115,-0.32137 1.753592,-3.2093 3.241058,-6.41763 l 2.704484,-5.83334 h -1.678974 c -3.266688,0 -1.204234,-1.66231 2.317867,-1.86817 2.75822,-0.16121 3.4476,0.005 3.4476,0.83333 0,0.56916 -0.298233,1.03484 -0.66274,1.03484 -0.364507,0 -3.066273,4.8 -6.003927,10.66667 -5.211631,10.40794 -5.300664,10.66667 -3.670592,10.66667 1.040526,0 1.670592,0.37715 1.670592,1 0,0.81481 -1.111111,1 -6,1 -4.888888,0 -5.999999,-0.18519 -5.999999,-1 z"
         id="path1373" />
      <path
         style="fill:#c5e3af;stroke-width:0.666667"
         d="M 3.9999999,164.66887 V 66 h 43.9999991 44 v 4.333333 4.333334 H 52.333333 12.666666 v 12.65 12.65 L 14.5,99.656973 C 37.303061,95.80502 49.392093,93.125933 65.75852,88.297427 115.25771,73.69392 158.38426,50.549239 204.66666,13.749744 c 6.41667,-5.1019413 12.04167,-9.5695252 12.5,-9.9279638 0.65899,-0.5153567 0.82876,1.4924373 0.81148,9.5965898 l -0.0219,10.248297 -8.47814,6.743132 C 153.4035,75.009033 94.283992,101.95305 26.767208,113.68122 c -13.726343,2.38437 -13.433875,2.30934 -13.433875,3.44595 0,0.7877 0.49544,0.93204 2.166667,0.63122 1.191666,-0.21451 12.966666,-1.60524 26.166666,-3.09052 43.035166,-4.84238 50.388926,-6.07413 85.666664,-14.34902 27.70364,-6.498277 70.2331,-15.652183 72.72076,-15.652183 0.40216,0 0.58241,3.013746 0.46707,7.80942 L 200.33333,100.28551 198,100.80113 c -1.28334,0.28358 -10.13334,2.14734 -19.66667,4.14168 C 168.8,106.93715 151.55,110.81687 140,113.56441 c -42.860595,10.19578 -50.973375,11.62855 -91.333334,16.13011 -31.660398,3.53125 -35.333333,4.08987 -35.333333,5.37391 0,1.07368 1.831998,1.1667 5.666667,0.28773 4.812055,-1.10301 35.106217,-4.63923 45.961249,-5.36502 5.845357,-0.39084 19.495356,-0.71057 30.33333,-0.71052 20.852401,1e-4 27.345981,0.54717 52.705421,4.44036 12.18384,1.87047 41.24484,7.58616 48,9.44059 l 4.33333,1.1896 0.18783,7.82441 c 0.14441,6.0162 -0.01,7.82437 -0.66667,7.82419 -0.46997,-1.3e-4 -11.05449,-2.06908 -23.52116,-4.59767 -40.44117,-8.20259 -53.45769,-10.00632 -76,-10.53149 -28.310271,-0.65955 -46.671661,0.68241 -75.809128,5.54059 l -10.991095,1.83258 -0.43322,10.98459 c -0.238271,6.04152 -0.433221,28.93666 -0.433221,50.8781 V 254 H 102 191.33333 v -40.33333 -40.33334 h 4.67136 4.67136 l -0.17136,44.83334 -0.17136,44.83333 -98.16666,0.16887 -98.1666701,0.16888 z m 33.1450011,68.63956 c -3.557069,-0.88858 -5.816431,-2.18547 -8.277881,-4.75155 -3.111852,-3.24413 -4.274528,-6.58365 -4.274528,-12.27757 0,-10.33032 5.318347,-16.58073 14.843089,-17.4444 7.126526,-0.64621 12.79433,2.14606 14.905046,7.34306 1.008831,2.48394 1.001163,2.51844 -0.703791,3.16667 -2.509847,0.95424 -2.899299,0.83692 -3.363667,-1.01327 -0.595368,-2.37214 -3.762608,-4.79456 -6.979265,-5.33802 -6.142597,-1.03778 -11.721936,2.51637 -13.340085,8.4979 -1.046471,3.8683 -0.408948,9.94845 1.339814,12.77801 3.032006,4.90589 10.767178,6.42667 17.062118,3.35451 2.467203,-1.20408 2.657746,-1.50235 2.847342,-4.4571 L 51.406387,220 H 46.36986 41.333333 v -2 -2 h 7.357474 7.357475 l -0.190808,6.49347 -0.190808,6.49346 -4.333333,2.17304 c -4.768474,2.39124 -10.028191,3.18769 -14.188332,2.14846 z m 24.854998,-16.9751 v -17 h 10.177067 c 11.543699,0 13.765199,0.65619 15.938086,4.70778 1.467327,2.73598 1.544647,5.22036 0.2583,8.29904 -1.00582,2.40725 -4.455673,4.98644 -6.67542,4.99069 -1.10094,0.002 -0.934807,0.38849 1.07596,2.50249 2.2586,2.37455 6.77306,8.76179 8.481527,12 0.76324,1.44664 0.688526,1.5 -2.100167,1.5 h -2.89156 l -3.75858,-5.84622 c -5.246573,-8.16072 -6.145386,-8.89158 -11.459306,-9.31814 l -4.37924,-0.35152 v 7.75794 7.75794 h -2.333334 -2.333333 z m 20.598606,-3.93666 c 2.103514,-1.90628 1.9192,-5.89259 -0.35518,-7.68162 -1.520466,-1.196 -2.685373,-1.38172 -8.666666,-1.38172 h -6.910093 v 5.39232 5.39232 l 7.265273,-0.22565 c 6.004433,-0.18649 7.508473,-0.44605 8.666666,-1.49565 z m 13.401394,3.93666 v -17 h 12.333331 12.33333 v 2 2 h -9.99999 -10 v 5 5 H 110 119.33333 V 215.66667 218 H 110 100.66667 v 5.33333 5.33334 H 111 121.33333 V 231 233.33333 H 108.66667 95.999999 Z m 40.000001,2 v -15 h -5.66667 -5.66667 v -2 -2 H 138.33333 152 v 2 2 h -5.66667 -5.66667 v 15 15 H 138.33333 136 Z m 13.33333,14.25349 c 0,-0.41059 2.775,-8.05527 6.16667,-16.98819 l 6.16666,-16.24168 2.66667,-0.005 2.66667,-0.005 6.66666,16.36495 c 3.66667,9.00072 6.77293,16.66658 6.9028,17.03524 0.14108,0.40046 -0.88978,0.58641 -2.56072,0.46191 l -2.79684,-0.2084 -1.78892,-4.66666 -1.78893,-4.66667 -7.05319,-0.18823 -7.0532,-0.18824 -1.83147,5.02157 c -1.78956,4.90668 -1.88331,5.02157 -4.09716,5.02157 -1.24613,0 -2.2657,-0.33593 -2.2657,-0.74651 z M 169.33726,218.5 c 0.002,-0.45833 -1.11774,-3.8782 -2.48868,-7.59971 l -2.4926,-6.76637 -2.50518,7.09971 c -1.37785,3.90484 -2.50795,7.3247 -2.51133,7.5997 -0.003,0.275 2.24386,0.5 4.99386,0.5 3.55346,0 5.00113,-0.24108 5.00393,-0.83333 z M 24.820256,191.86255 c 0.1563,-0.4744 0.935682,-0.95842 1.731962,-1.07558 C 27.968646,190.57855 28,190.34394 28,179.95363 v -10.6203 h -1.722222 c -2.671692,0 -1.560785,-1.63404 1.273755,-1.87358 C 29.656804,167.28185 30,167.44815 30,168.64638 c 0,1.38629 0.0107,1.38563 2.057098,-0.12642 2.569675,-1.89869 7.417339,-1.99854 10.148482,-0.20903 5.609623,3.67557 4.797441,12.89048 -1.363003,15.46448 -2.863176,1.19631 -7.041928,0.85416 -8.780149,-0.71891 C 31.42035,182.47543 30.693634,182 30.447506,182 30.201378,182 30,183.93189 30,186.29309 v 4.29309 l 2.347262,0.20691 c 4.437799,0.39119 2.735339,1.53715 -2.579224,1.73613 -4.046878,0.15151 -5.167592,5.1e-4 -4.947782,-0.66667 z m 15.486619,-10.22801 c 5.544588,-2.63108 4.38723,-11.32905 -1.668611,-12.54022 -2.263114,-0.45262 -5.789361,0.74412 -7.198195,2.44293 -1.681941,2.02814 -1.720015,5.93532 -0.07813,8.0183 2.474751,3.13959 5.317528,3.80031 8.944941,2.07899 z m 11.026458,10.03213 c 0,-0.75009 0.800221,-1 3.201991,-1 3.106257,0 3.243228,-0.0847 4.581208,-2.83334 L 60.495748,185 l -3.91968,-7.83333 c -2.155823,-4.30834 -4.217367,-7.83334 -4.581207,-7.83334 -0.363841,0 -0.661528,-0.46568 -0.661528,-1.03484 0,-0.82952 0.694419,-0.99486 3.5,-0.83333 3.506575,0.20189 4.817671,1.3477 1.999999,1.74787 -0.825,0.11717 -1.499999,0.3382 -1.499999,0.49119 0,0.15298 1.419835,3.1364 3.15519,6.62983 l 3.15519,6.35168 3.144279,-6.1762 c 1.729352,-3.39691 3.159514,-6.38033 3.17814,-6.62983 0.0186,-0.2495 -0.578013,-0.5495 -1.325874,-0.66667 -0.747857,-0.11716 -1.347857,-0.51303 -1.333333,-0.8797 0.03927,-0.99149 6.192734,-0.83434 6.526407,0.16667 0.15278,0.45833 -0.143626,0.83333 -0.658673,0.83333 -0.553713,0 -3.01036,4.35961 -6.010692,10.66667 -4.925016,10.35297 -5.026547,10.66667 -3.452439,10.66667 0.99716,0 1.621804,0.38515 1.621804,1 0,0.81481 -1.111111,1 -6,1 -4.888888,0 -5.999999,-0.18519 -5.999999,-1 z"
         id="path1371" />
      <path
         style="fill:#aed88f;stroke-width:0.666667"
         d="M 3.9999999,164.33333 V 66 h 43.9999991 44 v 4.333333 4.333334 H 52.333333 12.666666 v 12.696873 12.69688 l 2.166667,-0.353173 c 25.12327,-4.0951 40.301358,-7.69262 61.166666,-14.497754 C 121.93124,70.2292 162.60458,47.568091 206,12.780115 l 11.66666,-9.3525925 0.1858,9.4222485 c 0.1022,5.182236 0.0475,9.782748 -0.12161,10.223359 -0.16908,0.440611 -4.00269,3.777525 -8.51913,7.415366 -24.21612,19.505239 -46.64828,33.875373 -74.57532,47.773244 -34.34957,17.09404 -70.044836,28.74907 -108.363096,35.38213 -13.14092,2.27475 -12.939971,2.22126 -12.939971,3.44453 0,0.86944 0.5159,0.98951 2.833333,0.65943 C 17.725,117.52586 31,115.9809 45.666666,114.31458 87.594885,109.55099 96.102185,108.04523 137.38717,98.080387 147.68028,95.595973 179.06273,88.851827 192,86.344 c 3.11666,-0.604153 6.19166,-1.24892 6.83333,-1.43282 C 199.89794,84.606067 200,85.272687 200,92.531687 v 7.954873 l -7.83334,1.50576 c -13.27785,2.55233 -33.54816,7.02754 -55.5048,12.25417 -39.419235,9.38348 -49.724021,11.15498 -91.661861,15.75759 -28.379142,3.11456 -31.666666,3.64777 -31.666666,5.13605 0,1.17576 -0.05505,1.17968 15.333333,-1.09042 25.151802,-3.7104 45.053226,-4.96971 71.906464,-4.55002 16.63445,0.25997 21.76387,0.58996 32.42687,2.0861 20.92972,2.93668 43.08945,6.98062 60.83333,11.1015 L 200,144.11945 v 7.94028 c 0,4.36714 -0.10929,7.94027 -0.24286,7.94027 -0.13356,0 -9.65856,-1.91901 -21.16666,-4.26446 -43.11914,-8.78807 -55.38565,-10.44513 -80.590481,-10.88685 -25.150607,-0.44076 -42.475369,0.54803 -61.040411,3.48382 -24.176486,3.82315 -23.469548,3.66763 -23.896148,5.25704 C 12.855228,154.36529 12.680776,177.275 12.67577,204.5 L 12.66667,254 H 102 191.33333 V 213.66667 173.33333 H 195.66666 200 V 218 262.66667 H 102 3.9999999 Z m 33.3903851,68.96224 c -5.493051,-1.11393 -10.319683,-5.4713 -12.055131,-10.8831 -0.505216,-1.57546 -0.711567,-4.62937 -0.52757,-7.80782 0.378326,-6.53536 2.594147,-10.55954 7.476408,-13.57801 2.908006,-1.79788 3.815384,-2.00955 8.649043,-2.01762 6.83748,-0.0114 10.489173,1.77171 12.863234,6.28113 1.677035,3.18546 1.523999,3.70506 -1.29637,4.40162 -1.399112,0.34554 -1.833333,0.21092 -1.833333,-0.56835 0,-1.79383 -3.346687,-5.0739 -5.982779,-5.86369 -8.822546,-2.6433 -16.007873,4.15895 -15.187595,14.37788 0.437662,5.45234 2.047416,8.2702 5.852293,10.24437 2.461132,1.27696 3.710346,1.49553 7.120842,1.24589 2.36908,-0.17342 5.074796,-0.84923 6.333334,-1.5819 1.925382,-1.12088 2.222379,-1.66683 2.400432,-4.41256 L 51.406387,220 H 46.36986 41.333333 v -2 -2 h 7.333333 7.333333 l -0.0045,6.16667 -0.0045,6.16666 -2.162111,1.46765 c -4.850851,3.29277 -10.993806,4.59868 -16.438392,3.49459 z m 24.609614,-17.0196 v -17.05736 l 10.833333,0.22442 c 12.096393,0.25058 13.081967,0.55469 15.222107,4.69708 1.52634,2.95433 1.609873,5.10818 0.318013,8.20004 -1.00582,2.40725 -4.455673,4.98644 -6.67542,4.99069 -1.101773,0.002 -0.93706,0.38689 1.07124,2.50249 2.286613,2.40878 4.643547,5.7197 7.83056,11 l 1.508913,2.5 -2.887706,-0.0105 -2.887707,-0.0105 -3.857707,-5.89623 c -5.413339,-8.2739 -6.266633,-8.9639 -11.497166,-9.29696 l -4.311793,-0.27454 v 7.74433 7.74433 h -2.333334 -2.333333 z m 20.760926,-4.07226 c 2.099107,-2.10151 1.942707,-5.33397 -0.35366,-7.30922 -1.652706,-1.4216 -2.437393,-1.56116 -8.777773,-1.56116 h -6.962826 v 5.39232 5.39232 l 7.31648,-0.22565 c 6.474579,-0.19969 7.484633,-0.39399 8.777779,-1.68861 z m 13.239074,4.12962 v -17 h 12.333331 12.33333 v 2 2 h -9.99999 -10 v 5 5 H 110 119.33333 V 215.66667 218 H 110 100.66667 v 5.33333 5.33334 H 111 121.33333 V 231 233.33333 H 108.66667 95.999999 Z m 40.000001,2 v -15 h -5.66667 -5.66667 v -2 -2 H 138.33333 152 v 2 2 h -5.66667 -5.66667 v 15 15 H 138.33333 136 Z M 149.36017,232.5 c 0.0147,-0.45833 2.79075,-8.03333 6.16886,-16.83333 l 6.14202,-16 2.66447,-0.17794 2.66448,-0.17792 6.66666,16.40102 c 3.66667,9.02056 6.76667,16.67564 6.88889,17.01126 0.12223,0.33564 -0.98062,0.61024 -2.45076,0.61024 H 175.4318 L 173.43699,228.16667 171.44218,223 h -6.88174 -6.88175 l -1.94971,5.16667 c -1.89498,5.02165 -2.0121,5.16666 -4.17268,5.16666 -1.34824,0 -2.21241,-0.32791 -2.19613,-0.83333 z m 20.52871,-13.68015 c -0.12222,-0.28242 -1.40856,-3.72582 -2.85853,-7.652 l -2.63632,-7.13851 -2.53035,7.09941 c -1.39169,3.90468 -2.53035,7.34808 -2.53035,7.652 0,0.30392 2.425,0.55258 5.38889,0.55258 2.96389,0 5.28889,-0.23106 5.16666,-0.51348 z M 24.820256,191.86255 c 0.1563,-0.4744 0.935682,-0.95842 1.731962,-1.07558 C 27.968646,190.57855 28,190.34394 28,179.95363 v -10.6203 h -1.722222 c -2.671692,0 -1.560785,-1.63404 1.273755,-1.87358 C 29.671097,167.28064 30,167.44386 30,168.67481 v 1.42196 l 1.734298,-1.3642 c 2.691869,-2.11742 5.664307,-2.39432 9.150113,-0.85238 9.307688,4.11723 5.061423,17.93838 -5.092765,16.57642 -1.424154,-0.19102 -3.309882,-1.0242 -4.190508,-1.8515 L 30,181.10091 v 4.74264 4.74263 l 2.347262,0.20691 c 4.437799,0.39119 2.735339,1.53715 -2.579224,1.73613 -4.046878,0.15151 -5.167592,5.1e-4 -4.947782,-0.66667 z m 15.390237,-9.94058 c 4.02,-2.05584 5.02705,-7.0156 2.124805,-10.46472 -0.915585,-1.08811 -2.445791,-2.17443 -3.400457,-2.41403 -2.385298,-0.59867 -5.975169,0.70731 -7.591083,2.76161 -4.25972,5.41536 2.648129,13.29737 8.866735,10.11714 z m 11.286064,9.91136 c 0.151029,-0.45877 1.621456,-0.9225 3.271461,-1.03173 2.80311,-0.18555 3.087486,-0.38439 4.392999,-3.07153 l 1.395873,-2.87312 -3.722633,-7.76181 c -2.159036,-4.50165 -4.119431,-7.76181 -4.667334,-7.76181 -0.519586,0 -0.821251,-0.375 -0.670366,-0.83333 0.153324,-0.46575 1.648176,-0.92296 3.388888,-1.03653 2.459955,-0.16048 3.114554,0.0147 3.114554,0.83334 0,0.59208 -0.571709,1.03652 -1.333333,1.03652 -0.733334,0 -1.333333,0.14604 -1.333333,0.32452 0,0.17848 1.419835,3.18277 3.15519,6.6762 l 3.15519,6.35168 3.144279,-6.1762 c 1.729352,-3.39691 3.159514,-6.38033 3.17814,-6.62983 0.0186,-0.2495 -0.578013,-0.5495 -1.325874,-0.66667 -0.747857,-0.11716 -1.347857,-0.51303 -1.333333,-0.8797 0.03927,-0.99149 6.192734,-0.83434 6.526407,0.16667 0.15278,0.45833 -0.150213,0.83333 -0.67332,0.83333 -0.5695,0 -2.978826,4.21276 -6.00507,10.5 -4.976544,10.33914 -5.029212,10.50324 -3.437791,10.71095 0.8889,0.11602 1.616181,0.64102 1.616181,1.16667 0,0.7597 -1.241983,0.95572 -6.055555,0.95572 -4.546312,0 -5.987182,-0.2077 -5.78122,-0.83334 z"
         id="path1369" />
      <path
         style="fill:#9e9e9e;stroke-width:0.666667"
         d="M 3.9999999,164.33333 V 66 h 43.9999991 44 v 4.333333 4.333334 H 52.333333 12.666666 v 12.666666 c 0,9.689654 0.195856,12.666327 0.833334,12.665234 0.458333,-6.67e-4 5.21556,-0.74456 10.571616,-1.652827 C 81.103619,88.67442 137.50296,64.18068 187.33333,27.442615 193.68064,22.762977 211.77998,8.54433 216.16666,4.791452 c 1.10361,-0.9441556 1.16667,-0.4583265 1.16667,8.988669 v 9.986771 L 208.5,30.765653 C 195.2558,41.259195 189.98772,45.134275 179,52.465179 130.56539,84.78028 80.620659,104.34458 20.675037,114.48407 c -5.810928,0.98289 -7.032706,1.39656 -7.234867,2.44957 -0.221572,1.15413 0.07458,1.23276 3.324963,0.88285 58.013026,-6.24514 74.658606,-8.74628 103.568197,-15.56206 33.57891,-7.916617 75.26237,-16.921097 78.33102,-16.921097 1.32358,0 1.3717,0.300947 1.19081,7.447474 l -0.1885,7.447463 -17,3.49278 c -16.49596,3.38922 -21.37995,4.49329 -51,11.52898 -33.512401,7.96024 -45.382061,9.99052 -82.333327,14.08288 -29.59117,3.27722 -34.320566,3.92854 -35.626061,4.90633 -0.558651,0.41842 -0.796326,1.10588 -0.528167,1.5277 0.365645,0.57516 1.737833,0.54962 5.487561,-0.10216 7.218796,-1.25477 30.838723,-4.17669 41.333333,-5.11317 4.95,-0.44171 19.95,-0.82152 33.333333,-0.84402 21.961888,-0.0369 25.437848,0.11086 35.666668,1.51653 23.38506,3.21363 42.54892,6.6655 65.83333,11.85816 L 200,144.2345 v 7.8053 7.8053 l -4.5,-0.86376 c -2.475,-0.47507 -12,-2.40437 -21.16667,-4.28735 -21.17721,-4.3501 -40.49547,-7.61502 -53.65009,-9.06723 -8.72067,-0.96272 -14.49643,-1.08014 -37.333328,-0.75898 -28.887185,0.40625 -30.685873,0.56083 -56.127432,4.82371 C 19.644845,150.96117 13.269845,152 13.055814,152 c -0.214031,0 -0.389148,23.10109 -0.389148,51.33575 v 51.33575 l 89.500004,-0.16909 89.49999,-0.16908 0.17184,-40.5 0.17182,-40.5 H 196.00516 200 V 218 262.66667 H 102 3.9999999 Z m 33.3903851,68.96224 c -5.493051,-1.11393 -10.319683,-5.4713 -12.055131,-10.8831 -0.505216,-1.57546 -0.711567,-4.62937 -0.52757,-7.80782 0.378326,-6.53536 2.594147,-10.55954 7.476408,-13.57801 2.908006,-1.79788 3.815384,-2.00955 8.649043,-2.01762 6.83748,-0.0114 10.489173,1.77171 12.863234,6.28113 1.677035,3.18546 1.523999,3.70506 -1.29637,4.40162 -1.399112,0.34554 -1.833333,0.21092 -1.833333,-0.56835 0,-1.79383 -3.346687,-5.0739 -5.982779,-5.86369 -8.822546,-2.6433 -16.007873,4.15895 -15.187595,14.37788 0.437662,5.45234 2.047416,8.2702 5.852293,10.24437 2.461132,1.27696 3.710346,1.49553 7.120842,1.24589 2.36908,-0.17342 5.074796,-0.84923 6.333334,-1.5819 1.925382,-1.12088 2.222379,-1.66683 2.400432,-4.41256 L 51.406387,220 H 46.36986 41.333333 v -2 -2 h 7.333333 7.333333 l -0.0045,6.16667 -0.0045,6.16666 -2.162111,1.46765 c -4.850851,3.29277 -10.993806,4.59868 -16.438392,3.49459 z m 24.609614,-17.0196 v -17.05736 l 10.833333,0.22442 c 12.096393,0.25058 13.081967,0.55469 15.222107,4.69708 1.52634,2.95433 1.609873,5.10818 0.318013,8.20004 -1.00582,2.40725 -4.455673,4.98644 -6.67542,4.99069 -1.101773,0.002 -0.93706,0.38689 1.07124,2.50249 2.286613,2.40878 4.643547,5.7197 7.83056,11 l 1.508913,2.5 -2.887706,-0.0105 -2.887707,-0.0105 -3.857707,-5.89623 c -5.413339,-8.2739 -6.266633,-8.9639 -11.497166,-9.29696 l -4.311793,-0.27454 v 7.74433 7.74433 h -2.333334 -2.333333 z m 20.760926,-4.07226 c 2.099107,-2.10151 1.942707,-5.33397 -0.35366,-7.30922 -1.652706,-1.4216 -2.437393,-1.56116 -8.777773,-1.56116 h -6.962826 v 5.39232 5.39232 l 7.31648,-0.22565 c 6.474579,-0.19969 7.484633,-0.39399 8.777779,-1.68861 z m 13.239074,4.12962 v -17 h 12.333331 12.33333 v 2 2 h -9.99999 -10 v 5 5 H 110 119.33333 V 215.66667 218 H 110 100.66667 v 5.33333 5.33334 H 111 121.33333 V 231 233.33333 H 108.66667 95.999999 Z m 40.000001,2 v -15 h -5.66667 -5.66667 v -2 -2 H 138.33333 152 v 2 2 h -5.66667 -5.66667 v 15 15 H 138.33333 136 Z M 149.36017,232.5 c 0.0147,-0.45833 2.79075,-8.03333 6.16886,-16.83333 l 6.14202,-16 2.66447,-0.17794 2.66448,-0.17792 6.66666,16.40102 c 3.66667,9.02056 6.76667,16.67564 6.88889,17.01126 0.12223,0.33564 -0.98062,0.61024 -2.45076,0.61024 H 175.4318 L 173.43699,228.16667 171.44218,223 h -6.88174 -6.88175 l -1.94971,5.16667 c -1.89498,5.02165 -2.0121,5.16666 -4.17268,5.16666 -1.34824,0 -2.21241,-0.32791 -2.19613,-0.83333 z m 20.52871,-13.68015 c -0.12222,-0.28242 -1.40856,-3.72582 -2.85853,-7.652 l -2.63632,-7.13851 -2.53035,7.09941 c -1.39169,3.90468 -2.53035,7.34808 -2.53035,7.652 0,0.30392 2.425,0.55258 5.38889,0.55258 2.96389,0 5.28889,-0.23106 5.16666,-0.51348 z M 24.820256,191.86255 c 0.1563,-0.4744 0.935682,-0.95842 1.731962,-1.07558 C 27.968646,190.57855 28,190.34394 28,179.95363 v -10.6203 h -1.722222 c -2.671692,0 -1.560785,-1.63404 1.273755,-1.87358 C 29.671097,167.28064 30,167.44386 30,168.67481 v 1.42196 l 1.734298,-1.3642 c 2.691869,-2.11742 5.664307,-2.39432 9.150113,-0.85238 9.307688,4.11723 5.061423,17.93838 -5.092765,16.57642 -1.424154,-0.19102 -3.309882,-1.0242 -4.190508,-1.8515 L 30,181.10091 v 4.74264 4.74263 l 2.347262,0.20691 c 4.437799,0.39119 2.735339,1.53715 -2.579224,1.73613 -4.046878,0.15151 -5.167592,5.1e-4 -4.947782,-0.66667 z m 15.390237,-9.94058 c 4.02,-2.05584 5.02705,-7.0156 2.124805,-10.46472 -0.915585,-1.08811 -2.445791,-2.17443 -3.400457,-2.41403 -2.385298,-0.59867 -5.975169,0.70731 -7.591083,2.76161 -4.25972,5.41536 2.648129,13.29737 8.866735,10.11714 z m 11.286064,9.91136 c 0.151029,-0.45877 1.621456,-0.9225 3.271461,-1.03173 2.80311,-0.18555 3.087486,-0.38439 4.392999,-3.07153 l 1.395873,-2.87312 -3.722633,-7.76181 c -2.159036,-4.50165 -4.119431,-7.76181 -4.667334,-7.76181 -0.519586,0 -0.821251,-0.375 -0.670366,-0.83333 0.153324,-0.46575 1.648176,-0.92296 3.388888,-1.03653 2.459955,-0.16048 3.114554,0.0147 3.114554,0.83334 0,0.59208 -0.571709,1.03652 -1.333333,1.03652 -0.733334,0 -1.333333,0.14604 -1.333333,0.32452 0,0.17848 1.419835,3.18277 3.15519,6.6762 l 3.15519,6.35168 3.144279,-6.1762 c 1.729352,-3.39691 3.159514,-6.38033 3.17814,-6.62983 0.0186,-0.2495 -0.578013,-0.5495 -1.325874,-0.66667 -0.747857,-0.11716 -1.347857,-0.51303 -1.333333,-0.8797 0.03927,-0.99149 6.192734,-0.83434 6.526407,0.16667 0.15278,0.45833 -0.150213,0.83333 -0.67332,0.83333 -0.5695,0 -2.978826,4.21276 -6.00507,10.5 -4.976544,10.33914 -5.029212,10.50324 -3.437791,10.71095 0.8889,0.11602 1.616181,0.64102 1.616181,1.16667 0,0.7597 -1.241983,0.95572 -6.055555,0.95572 -4.546312,0 -5.987182,-0.2077 -5.78122,-0.83334 z"
         id="path1367" />
      <path
         style="fill:#81c451;stroke-width:0.666667"
         d="M 3.9999999,164.33333 V 66 h 43.9999991 44 v 4.333333 4.333334 H 52.333333 12.666666 v 12.666666 c 0,9.689654 0.195856,12.666327 0.833334,12.665234 0.458333,-6.67e-4 5.21556,-0.74456 10.571616,-1.652827 C 81.103619,88.67442 137.50296,64.18068 187.33333,27.442615 193.68064,22.762977 211.77998,8.54433 216.16666,4.791452 c 1.10361,-0.9441556 1.16667,-0.4583265 1.16667,8.988669 v 9.986771 L 208.5,30.765653 C 195.2558,41.259195 189.98772,45.134275 179,52.465179 130.56539,84.78028 80.620659,104.34458 20.675037,114.48407 c -5.810928,0.98289 -7.032706,1.39656 -7.234867,2.44957 -0.221572,1.15413 0.07458,1.23276 3.324963,0.88285 58.013026,-6.24514 74.658606,-8.74628 103.568197,-15.56206 33.57891,-7.916617 75.26237,-16.921097 78.33102,-16.921097 1.32358,0 1.3717,0.300947 1.19081,7.447474 l -0.1885,7.447463 -17,3.49278 c -16.49596,3.38922 -21.37995,4.49329 -51,11.52898 -33.512401,7.96024 -45.382061,9.99052 -82.333327,14.08288 -29.59117,3.27722 -34.320566,3.92854 -35.626061,4.90633 -0.558651,0.41842 -0.796326,1.10588 -0.528167,1.5277 0.365645,0.57516 1.737833,0.54962 5.487561,-0.10216 7.218796,-1.25477 30.838723,-4.17669 41.333333,-5.11317 4.95,-0.44171 19.95,-0.82152 33.333333,-0.84402 21.961888,-0.0369 25.437848,0.11086 35.666668,1.51653 23.38506,3.21363 42.54892,6.6655 65.83333,11.85816 L 200,144.2345 v 7.8053 7.8053 l -4.5,-0.86376 c -2.475,-0.47507 -12,-2.40437 -21.16667,-4.28735 -21.17721,-4.3501 -40.49547,-7.61502 -53.65009,-9.06723 -8.72067,-0.96272 -14.49643,-1.08014 -37.333328,-0.75898 -28.887185,0.40625 -30.685873,0.56083 -56.127432,4.82371 C 19.644845,150.96117 13.269845,152 13.055814,152 c -0.214031,0 -0.389148,23.10109 -0.389148,51.33575 v 51.33575 l 89.500004,-0.16909 89.49999,-0.16908 0.17184,-40.5 0.17182,-40.5 H 196.00516 200 V 218 262.66667 H 102 3.9999999 Z m 29.9999991,67.61065 c -6.658452,-3.01865 -8.990438,-7.06783 -8.990438,-15.61065 0,-5.0014 0.258259,-6.48557 1.551724,-8.91753 3.107382,-5.84246 7.235455,-8.22739 14.438714,-8.34173 6.005637,-0.0953 10.094778,1.75215 12.210606,5.51676 1.897594,3.37631 1.837196,4.51421 -0.260892,4.91528 -1.44347,0.27594 -1.89286,-0.0407 -2.8213,-1.98762 -3.293349,-6.90622 -15.463349,-6.21998 -19.26591,1.08636 -2.112355,4.05874 -2.125287,10.59825 -0.02917,14.75114 2.901824,5.7492 10.662116,7.77021 17.192073,4.47734 2.828333,-1.42624 2.984585,-1.6557 3.177788,-4.66666 L 51.406387,220 H 46.36986 41.333333 v -2 -2 h 7.024141 7.024141 l -0.190808,6.5 -0.190808,6.5 -4.270105,2.16667 c -3.640777,1.84734 -4.967198,2.1645 -9,2.15202 -3.310865,-0.0103 -5.629934,-0.42268 -7.729895,-1.37471 z m 28.444445,0.94491 c -0.244445,-0.24444 -0.444445,-7.89444 -0.444445,-17 v -16.55556 l 9.166667,0.004 c 5.041666,0.002 10.272386,0.31082 11.623813,0.68617 2.98694,0.8296 5.55454,3.71991 6.156893,6.9307 0.913287,4.86825 -3.3048,10.31926 -8.048127,10.40053 -1.00322,0.0172 -0.884066,0.28102 0.640334,1.41777 1.931386,1.44025 9.793753,12.60641 9.793753,13.90912 0,0.43764 -0.99436,0.64919 -2.47032,0.52557 -2.311773,-0.19363 -2.74476,-0.61788 -6.746427,-6.61028 -2.35186,-3.52186 -5.111499,-6.89686 -6.132539,-7.5 C 74.856772,218.43073 72.662372,218 70.397139,218 h -3.730473 v 7.66667 7.66666 h -1.888889 c -1.038889,0 -2.088889,-0.2 -2.333333,-0.44444 z m 19.145795,-19.64204 c 1.963466,-0.89462 3.376506,-3.91781 2.751533,-5.88692 -0.245267,-0.77277 -1.079073,-1.99488 -1.8529,-2.71582 -1.219007,-1.13568 -2.369793,-1.31078 -8.61458,-1.31078 H 66.666666 V 208.66667 214 h 6.6353 c 3.649413,0 7.379133,-0.33891 8.288273,-0.75315 z m 14.854206,19.64204 c -0.244446,-0.24444 -0.444446,-7.89444 -0.444446,-17 v -16.55556 h 12.333331 12.33333 v 2 2 h -9.99999 -10 v 4.98119 4.98119 l 9.16666,0.18548 9.16667,0.18548 0.21094,1.83333 0.21095,1.83333 h -9.37761 -9.37761 v 6 6 H 111 121.33333 v 2 2 h -12.22222 c -6.72222,0 -12.422225,-0.2 -12.666665,-0.44444 z m 40.030605,0.0306 C 136.21377,232.65822 136,225.89445 136,217.88889 v -14.55556 h -5.71095 -5.71095 L 124.78905,201.5 125,199.66667 l 13.16666,-0.18076 13.16667,-0.18076 v 2.01409 2.01409 h -5.32058 -5.32058 l -0.17942,14.83334 -0.17942,14.83333 -1.69161,0.19727 c -0.9304,0.1085 -1.9054,-0.0165 -2.16667,-0.27778 z m 12.85828,-0.064 c 0,-0.30926 2.81075,-7.90326 6.24611,-16.87558 l 6.2461,-16.31328 h 2.52715 2.52715 l 6.56008,15.9902 c 3.60804,8.7946 6.56008,16.3696 6.56008,16.83333 0,1.09213 -3.7441,1.11227 -4.46066,0.024 -0.29664,-0.45052 -1.30258,-2.77552 -2.23542,-5.16667 L 171.60784,223 l -7.01884,-0.18802 -7.01884,-0.18802 -1.95374,5.18802 c -1.84152,4.89002 -2.07808,5.20002 -4.11842,5.39693 -1.19056,0.1149 -2.16467,-0.0441 -2.16467,-0.35338 z M 170,219.12835 c 0,-0.11274 -1.28199,-3.67079 -2.84886,-7.90678 l -2.84885,-7.70178 -2.72939,7.90677 -2.72938,7.90677 h 5.57824 c 3.06803,0 5.57824,-0.0922 5.57824,-0.20498 z m -144.870765,-26.888 c -0.695059,-0.69506 0.185291,-1.57368 1.576776,-1.57368 1.226722,0 1.293989,-0.55209 1.293989,-10.6203 0,-10.17498 -0.05701,-10.62924 -1.359741,-10.83334 -2.210252,-0.34628 -1.822473,-1.52888 0.576792,-1.75903 1.775211,-0.17028 2.288499,0.0605 2.575556,1.15827 l 0.358505,1.37092 1.860691,-1.32493 c 1.273127,-0.90655 2.936503,-1.32493 5.267567,-1.32493 2.914367,0 3.748722,0.31328 5.771556,2.16707 4.641463,4.25359 3.587424,11.10345 -2.134823,13.87355 -3.413942,1.65266 -6.419607,1.39956 -9.181805,-0.77319 L 30,181.23656 v 4.71505 4.71506 h 2.333333 c 1.629629,0 2.333333,0.30158 2.333333,1 0,0.79132 -0.950617,1 -4.555555,1 -2.505556,0 -4.7474,-0.19185 -4.981876,-0.42632 z m 15.125832,-10.2106 c 5.261054,-2.00024 5.076366,-10.48806 -0.276456,-12.70528 -6.146418,-2.54592 -12.250948,4.15717 -9.048273,9.93548 1.661948,2.99852 5.626101,4.17602 9.324729,2.7698 z m 11.540834,10.2106 c -0.920602,-0.9206 0.419804,-1.57368 3.229894,-1.57368 2.789995,0 3.023175,-0.14911 4.37403,-2.79701 l 1.426925,-2.797 -3.891197,-7.86967 c -2.140158,-4.32831 -4.301177,-7.86966 -4.802264,-7.86966 -0.501087,0 -0.786068,-0.375 -0.63329,-0.83333 0.165242,-0.49573 1.448148,-0.83333 3.166667,-0.83333 1.718518,0 3.001424,0.3376 3.166666,0.83333 0.174601,0.5238 -0.364178,0.83333 -1.450522,0.83333 h -1.728301 l 3.380586,6.73661 c 1.859322,3.70513 3.515117,6.60207 3.679543,6.43765 0.374022,-0.37403 6.285361,-12.49366 6.285361,-12.88648 0,-0.15828 -0.625,-0.28778 -1.388889,-0.28778 -0.812567,0 -1.275373,-0.34579 -1.115326,-0.83333 0.308621,-0.94013 4.054902,-1.48413 5.734348,-0.83269 1.018034,0.39488 1.019327,0.48972 0.01673,1.22848 -0.881867,0.64982 -11.246867,20.35602 -11.246867,21.38284 0,0.16242 0.651501,0.39117 1.447781,0.50834 0.79628,0.11716 1.57128,0.58803 1.722222,1.04636 0.204974,0.6224 -1.145857,0.83334 -5.33667,0.83334 -3.086111,0 -5.802955,-0.19185 -6.037431,-0.42632 z"
         id="path1365" />
      <path
         style="fill:#606060;stroke-width:0.666667"
         d="m 33.999999,231.94398 c -6.658452,-3.01865 -8.990438,-7.06783 -8.990438,-15.61065 0,-5.0014 0.258259,-6.48557 1.551724,-8.91753 3.107382,-5.84246 7.235455,-8.22739 14.438714,-8.34173 6.005637,-0.0953 10.094778,1.75215 12.210606,5.51676 1.897594,3.37631 1.837196,4.51421 -0.260892,4.91528 -1.44347,0.27594 -1.89286,-0.0407 -2.8213,-1.98762 -3.293349,-6.90622 -15.463349,-6.21998 -19.26591,1.08636 -2.112355,4.05874 -2.125287,10.59825 -0.02917,14.75114 2.901824,5.7492 10.662116,7.77021 17.192073,4.47734 2.828333,-1.42624 2.984585,-1.6557 3.177788,-4.66666 L 51.406387,220 H 46.36986 41.333333 v -2 -2 h 7.024141 7.024141 l -0.190808,6.5 -0.190808,6.5 -4.270105,2.16667 c -3.640777,1.84734 -4.967198,2.1645 -9,2.15202 -3.310865,-0.0103 -5.629934,-0.42268 -7.729895,-1.37471 z m 28.444445,0.94491 c -0.244445,-0.24444 -0.444445,-7.89444 -0.444445,-17 v -16.55556 l 9.166667,0.004 c 5.041666,0.002 10.272386,0.31082 11.623813,0.68617 2.98694,0.8296 5.55454,3.71991 6.156893,6.9307 0.913287,4.86825 -3.3048,10.31926 -8.048127,10.40053 -1.00322,0.0172 -0.884066,0.28102 0.640334,1.41777 1.931386,1.44025 9.793753,12.60641 9.793753,13.90912 0,0.43764 -0.99436,0.64919 -2.47032,0.52557 -2.311773,-0.19363 -2.74476,-0.61788 -6.746427,-6.61028 -2.35186,-3.52186 -5.111499,-6.89686 -6.132539,-7.5 C 74.856772,218.43073 72.662372,218 70.397139,218 h -3.730473 v 7.66667 7.66666 h -1.888889 c -1.038889,0 -2.088889,-0.2 -2.333333,-0.44444 z m 19.145795,-19.64204 c 1.963466,-0.89462 3.376506,-3.91781 2.751533,-5.88692 -0.245267,-0.77277 -1.079073,-1.99488 -1.8529,-2.71582 -1.219007,-1.13568 -2.369793,-1.31078 -8.61458,-1.31078 H 66.666666 V 208.66667 214 h 6.6353 c 3.649413,0 7.379133,-0.33891 8.288273,-0.75315 z m 14.854206,19.64204 c -0.244446,-0.24444 -0.444446,-7.89444 -0.444446,-17 v -16.55556 h 12.333331 12.33333 v 2 2 h -9.99999 -10 v 4.98119 4.98119 l 9.16666,0.18548 9.16667,0.18548 0.21094,1.83333 0.21095,1.83333 h -9.37761 -9.37761 v 6 6 H 111 121.33333 v 2 2 h -12.22222 c -6.72222,0 -12.422225,-0.2 -12.666665,-0.44444 z m 40.030605,0.0306 C 136.21377,232.65822 136,225.89445 136,217.88889 v -14.55556 h -5.71095 -5.71095 L 124.78905,201.5 125,199.66667 l 13.16666,-0.18076 13.16667,-0.18076 v 2.01409 2.01409 h -5.32058 -5.32058 l -0.17942,14.83334 -0.17942,14.83333 -1.69161,0.19727 c -0.9304,0.1085 -1.9054,-0.0165 -2.16667,-0.27778 z m 12.85828,-0.064 c 0,-0.30926 2.81075,-7.90326 6.24611,-16.87558 l 6.2461,-16.31328 h 2.52715 2.52715 l 6.56008,15.9902 c 3.60804,8.7946 6.56008,16.3696 6.56008,16.83333 0,1.09213 -3.7441,1.11227 -4.46066,0.024 -0.29664,-0.45052 -1.30258,-2.77552 -2.23542,-5.16667 L 171.60784,223 l -7.01884,-0.18802 -7.01884,-0.18802 -1.95374,5.18802 c -1.84152,4.89002 -2.07808,5.20002 -4.11842,5.39693 -1.19056,0.1149 -2.16467,-0.0441 -2.16467,-0.35338 z M 170,219.12835 c 0,-0.11274 -1.28199,-3.67079 -2.84886,-7.90678 l -2.84885,-7.70178 -2.72939,7.90677 -2.72938,7.90677 h 5.57824 c 3.06803,0 5.57824,-0.0922 5.57824,-0.20498 z m -144.870765,-26.888 c -0.695059,-0.69506 0.185291,-1.57368 1.576776,-1.57368 1.226722,0 1.293989,-0.55209 1.293989,-10.6203 0,-10.17498 -0.05701,-10.62924 -1.359741,-10.83334 -2.210252,-0.34628 -1.822473,-1.52888 0.576792,-1.75903 1.775211,-0.17028 2.288499,0.0605 2.575556,1.15827 l 0.358505,1.37092 1.860691,-1.32493 c 1.273127,-0.90655 2.936503,-1.32493 5.267567,-1.32493 2.914367,0 3.748722,0.31328 5.771556,2.16707 4.641463,4.25359 3.587424,11.10345 -2.134823,13.87355 -3.413942,1.65266 -6.419607,1.39956 -9.181805,-0.77319 L 30,181.23656 v 4.71505 4.71506 h 2.333333 c 1.629629,0 2.333333,0.30158 2.333333,1 0,0.79132 -0.950617,1 -4.555555,1 -2.505556,0 -4.7474,-0.19185 -4.981876,-0.42632 z m 15.125832,-10.2106 c 5.261054,-2.00024 5.076366,-10.48806 -0.276456,-12.70528 -6.146418,-2.54592 -12.250948,4.15717 -9.048273,9.93548 1.661948,2.99852 5.626101,4.17602 9.324729,2.7698 z m 11.540834,10.2106 c -0.920602,-0.9206 0.419804,-1.57368 3.229894,-1.57368 2.789995,0 3.023175,-0.14911 4.37403,-2.79701 l 1.426925,-2.797 -3.891197,-7.86967 c -2.140158,-4.32831 -4.301177,-7.86966 -4.802264,-7.86966 -0.501087,0 -0.786068,-0.375 -0.63329,-0.83333 0.165242,-0.49573 1.448148,-0.83333 3.166667,-0.83333 1.718518,0 3.001424,0.3376 3.166666,0.83333 0.174601,0.5238 -0.364178,0.83333 -1.450522,0.83333 h -1.728301 l 3.380586,6.73661 c 1.859322,3.70513 3.515117,6.60207 3.679543,6.43765 0.374022,-0.37403 6.285361,-12.49366 6.285361,-12.88648 0,-0.15828 -0.625,-0.28778 -1.388889,-0.28778 -0.812567,0 -1.275373,-0.34579 -1.115326,-0.83333 0.308621,-0.94013 4.054902,-1.48413 5.734348,-0.83269 1.018034,0.39488 1.019327,0.48972 0.01673,1.22848 -0.881867,0.64982 -11.246867,20.35602 -11.246867,21.38284 0,0.16242 0.651501,0.39117 1.447781,0.50834 0.79628,0.11716 1.57128,0.58803 1.722222,1.04636 0.204974,0.6224 -1.145857,0.83334 -5.33667,0.83334 -3.086111,0 -5.802955,-0.19185 -6.037431,-0.42632 z"
         id="path1363" />
      <path
         style="fill:#040404;stroke-width:0.666667"
         d="m 35.138329,232.29865 c -13.017315,-4.16468 -14.035046,-26.01717 -1.477381,-31.722 1.727671,-0.78486 4.270748,-1.21921 7.193797,-1.22868 6.801184,-0.022 11.34825,2.31368 13.198035,6.77946 0.682579,1.64788 0.662873,2.0994 -0.113063,2.5906 -1.721412,1.08974 -2.973196,0.63528 -3.723197,-1.3517 -1.244867,-3.29803 -4.463985,-4.80808 -9.695209,-4.5479 -5.15936,0.2566 -7.364649,1.52003 -9.628037,5.51598 -4.003364,7.06782 -1.737987,16.79854 4.686136,20.12887 3.020519,1.56586 8.76735,1.43255 12.587256,-0.292 l 3.166667,-1.42964 v -3.70415 -3.70416 h -5 c -4.888889,0 -5,-0.0371 -5,-1.66666 V 216 h 7.024141 7.024141 l -0.190808,6.48015 -0.190808,6.48014 -3.795768,1.93952 c -4.677139,2.38986 -11.19461,2.95733 -16.065902,1.39884 z M 62.666666,215.9175 v -16.74917 l 9.833333,0.29399 c 10.916686,0.32637 13.36638,1.05631 15.15538,4.51586 0.556206,1.07558 1.011286,3.29749 1.011286,4.93756 0,3.74049 -2.30346,6.72218 -6.063386,7.84868 l -2.631794,0.78851 2.105334,2.05686 c 1.719006,1.67944 6.645733,8.48834 8.844626,12.22354 0.35762,0.60749 -0.207053,0.83334 -2.08354,0.83334 -2.511166,0 -2.668386,-0.14663 -6.42886,-5.99581 C 77.352992,218.80649 76.283459,218 70.910092,218 h -4.243426 v 7.33333 7.33334 h -2 -2 z m 19.602499,-2.81415 c 3.15102,-2.06463 3.116407,-6.83142 -0.06473,-8.91579 -1.313513,-0.86065 -3.561907,-1.22881 -8.65608,-1.41738 l -6.881686,-0.25474 v 6.163 6.163 l 6.94642,-0.30894 c 4.969206,-0.221 7.433053,-0.62779 8.656079,-1.42915 z M 96.666665,216 V 199.33333 H 108.33333 120 v 2 2 h -9.66667 -9.66666 V 208.66667 214 H 110 h 9.33333 v 1.66667 1.66666 H 110 100.66667 v 6 6 H 111 121.33333 V 231 232.66667 H 109 96.666665 Z M 136,218 v -14.66667 h -5.33334 -5.33333 v -2 -2 h 13 13 v 2 2 H 145.66666 140 V 218 232.66667 h -2 -2 z m 14.5832,11.5 c 0.67672,-1.74167 3.56558,-9.24167 6.41967,-16.66667 l 5.18927,-13.5 h 2.16593 c 1.19127,0 2.31618,0.375 2.49981,0.83334 0.18362,0.45833 3.21572,7.85259 6.73799,16.43169 3.52227,8.57909 6.40413,15.70409 6.40413,15.83333 0,0.12924 -1.01028,0.23498 -2.24508,0.23498 -2.18054,0 -2.30016,-0.1443 -4.16182,-5.02032 l -1.91674,-5.02032 -7.26423,0.18698 -7.26422,0.18699 -1.69419,4.83333 c -1.64161,4.68333 -1.76258,4.83334 -3.89756,4.83334 h -2.20338 z m 19.42202,-10.66667 c 0.003,-0.275 -1.25751,-3.91472 -2.80086,-8.08828 -2.04796,-5.53809 -2.93264,-7.24921 -3.27445,-6.33333 -0.25759,0.69022 -1.44177,3.95495 -2.63151,7.25495 -1.18973,3.3 -2.30068,6.375 -2.46877,6.83333 -0.22951,0.62579 1.12343,0.83333 5.43237,0.83333 3.1559,0 5.74035,-0.225 5.74322,-0.5 z M 25.333333,192.04637 c 0,-0.34117 0.675,-0.71617 1.5,-0.83334 1.476505,-0.20969 1.502869,-0.38272 1.683181,-11.04636 l 0.183181,-10.83334 h -1.683181 c -0.92575,0 -1.683181,-0.3 -1.683181,-0.66666 0,-0.36667 0.9,-0.66667 2,-0.66667 1.555555,0 2,0.29629 2,1.33333 0,1.72851 0.393849,1.68142 2.788246,-0.33333 3.956299,-3.32901 10.911858,-1.47614 12.972514,3.4557 1.391126,3.32944 0.665399,6.58481 -2.080006,9.33021 -1.900142,1.90014 -2.672557,2.21374 -5.447421,2.2116 -2.05423,-0.001 -4.02933,-0.48782 -5.416113,-1.33334 -1.200529,-0.73196 -2.338671,-1.33084 -2.529206,-1.33084 -0.190535,0 -0.258284,2.175 -0.150554,4.83334 L 29.666666,191 l 2.513959,0.20774 c 1.382677,0.11426 2.339972,0.48926 2.127322,0.83333 -0.502765,0.8135 -8.974614,0.81849 -8.974614,0.005 z m 16.592846,-11.08656 c 4.993942,-4.20212 1.980848,-12.2976 -4.574517,-12.29065 -5.103439,0.005 -8.542976,4.27165 -7.253991,8.99751 1.348329,4.94343 7.749353,6.72552 11.828508,3.29314 z M 51.999999,192 c 0,-0.36667 1.298719,-0.66667 2.886042,-0.66667 2.813753,0 2.925466,-0.0842 4.460029,-3.36052 l 1.573986,-3.36053 -3.293362,-6.79059 c -1.811349,-3.73484 -4.012168,-7.4726 -4.89071,-8.30614 L 51.138636,168 h 3.470026 c 2.143588,0 3.312528,0.25484 3.058004,0.66667 -0.226613,0.36666 -0.997053,0.66666 -1.71209,0.66666 -1.152616,0 -0.920629,0.75612 2.045423,6.66667 1.840019,3.66667 3.490019,6.66667 3.666667,6.66667 0.176647,0 1.826647,-3 3.666666,-6.66667 l 3.345487,-6.66667 h -1.67274 c -0.920011,0 -1.672747,-0.3 -1.672747,-0.66666 0,-0.36667 1.35,-0.66667 3,-0.66667 1.65,0 3,0.3 3,0.66667 0,0.36666 -0.31816,0.66666 -0.70702,0.66666 -0.72814,0 -10.596348,19.67649 -10.615566,21.16667 -0.0059,0.45833 0.756958,0.83333 1.695264,0.83333 0.967578,0 1.527671,0.28856 1.293989,0.66667 -0.226613,0.36667 -2.794317,0.66667 -5.706011,0.66667 -3.084881,0 -5.293989,-0.2782 -5.293989,-0.66667 z"
         id="path1361" />
    </g>
  </g>
</svg>
