<svg width="313.601" height="96.701" viewBox="0 0 313.601 96.701" xmlns="http://www.w3.org/2000/svg"><g id="svgGroup" stroke-linecap="round" fill-rule="evenodd" font-size="9pt" stroke="#000" stroke-width="0.25mm" fill="#000" style="stroke:#000;stroke-width:0.25mm;fill:#000"><path d="M 118.4 73.501 L 109.4 73.501 L 109.4 21.501 L 118.1 21.501 L 118.1 30.201 Q 120.9 26.001 125.2 23.151 A 17.205 17.205 0 0 1 134.402 20.309 A 20.858 20.858 0 0 1 135 20.301 A 20.994 20.994 0 0 1 139.417 20.74 Q 142.403 21.383 144.685 22.964 A 13.128 13.128 0 0 1 145.15 23.301 A 15.751 15.751 0 0 1 150.598 30.99 A 19.154 19.154 0 0 1 150.7 31.301 Q 153.8 26.701 158.05 23.501 A 15.669 15.669 0 0 1 164.841 20.617 A 21.446 21.446 0 0 1 168.6 20.301 A 21.437 21.437 0 0 1 173.488 20.823 Q 177.074 21.663 179.563 23.852 A 12.994 12.994 0 0 1 181.25 25.651 A 18.992 18.992 0 0 1 184.661 32.923 Q 185.4 35.973 185.4 39.601 L 185.4 73.501 L 176.4 73.501 L 176.4 40.301 A 19.042 19.042 0 0 0 176.063 36.611 Q 175.627 34.406 174.628 32.662 A 10.982 10.982 0 0 0 173.9 31.551 A 7.974 7.974 0 0 0 168.087 28.255 A 10.678 10.678 0 0 0 167 28.201 A 11.926 11.926 0 0 0 160.241 30.328 A 15.996 15.996 0 0 0 158.65 31.551 Q 154.8 34.901 151.9 39.401 L 151.9 73.501 L 142.9 73.501 L 142.9 40.301 A 19.042 19.042 0 0 0 142.563 36.611 Q 142.127 34.406 141.128 32.662 A 10.982 10.982 0 0 0 140.4 31.551 A 7.974 7.974 0 0 0 134.587 28.255 A 10.678 10.678 0 0 0 133.5 28.201 A 12.02 12.02 0 0 0 127.181 30.029 A 16.244 16.244 0 0 0 125.2 31.451 Q 121.3 34.701 118.4 39.101 L 118.4 73.501 Z M 49.6 94.701 L 51.6 87.201 A 9.908 9.908 0 0 0 52.765 87.775 Q 53.588 88.119 54.6 88.401 A 13.514 13.514 0 0 0 56.879 88.818 A 17.358 17.358 0 0 0 58.6 88.901 Q 62.8 88.901 66.1 86.201 A 12.003 12.003 0 0 0 68.033 84.139 Q 69.781 81.828 71.441 77.976 A 58.58 58.58 0 0 0 72.4 75.601 L 74.7 69.601 L 69.9 69.601 L 49.6 23.901 L 57.6 20.301 L 77 63.601 L 92.1 20.701 L 100.4 23.901 L 81.3 76.101 A 71.728 71.728 0 0 1 79.247 81.187 Q 78.145 83.626 76.978 85.615 A 30.86 30.86 0 0 1 75 88.601 A 24.268 24.268 0 0 1 72.122 91.811 Q 70.208 93.579 68.105 94.619 A 14.737 14.737 0 0 1 67.5 94.901 Q 63.4 96.701 58.4 96.701 Q 55.4 96.701 53.15 96.101 Q 50.9 95.501 49.6 94.701 Z M 9.5 73.501 L 0 73.501 L 0 3.701 Q 4.1 3.201 9.05 2.951 A 200.806 200.806 0 0 1 17.98 2.705 A 221.966 221.966 0 0 1 19.3 2.701 Q 26.87 2.701 32.472 4.783 A 26.011 26.011 0 0 1 34.1 5.451 A 24.606 24.606 0 0 1 39.182 8.479 A 19.374 19.374 0 0 1 43.4 13.001 Q 46.6 17.801 46.6 24.001 A 25.258 25.258 0 0 1 45.892 30.123 A 19.268 19.268 0 0 1 42.9 36.701 A 22.312 22.312 0 0 1 35.349 43.33 A 28.065 28.065 0 0 1 32.6 44.651 A 34.774 34.774 0 0 1 24.511 46.874 A 47.194 47.194 0 0 1 17.3 47.401 Q 13.1 47.401 9.5 47.101 L 9.5 73.501 Z M 209.9 73.501 L 200.9 73.501 L 200.9 21.501 L 209.6 21.501 L 209.6 32.801 Q 210.9 29.501 213.1 26.651 Q 215.3 23.801 218.6 22.051 A 14.817 14.817 0 0 1 223.28 20.527 A 19.459 19.459 0 0 1 226.3 20.301 Q 227.8 20.301 229.3 20.451 A 18.972 18.972 0 0 1 230.355 20.584 Q 230.855 20.663 231.282 20.763 A 8.817 8.817 0 0 1 231.8 20.901 L 229.1 30.201 A 9.763 9.763 0 0 0 226.955 29.588 Q 225.859 29.401 224.6 29.401 A 12.958 12.958 0 0 0 217.97 31.246 A 15.609 15.609 0 0 0 217.55 31.501 Q 214.222 33.587 212.078 37.943 A 22.927 22.927 0 0 0 212.05 38.001 Q 210.287 41.608 209.97 46.828 A 39.09 39.09 0 0 0 209.9 49.201 L 209.9 73.501 Z M 274.4 71.251 A 24.559 24.559 0 0 0 278.998 73.34 Q 283.053 74.701 287.7 74.701 Q 295.1 74.701 300.95 71.301 Q 306.8 67.901 310.2 61.751 A 26.255 26.255 0 0 0 312.853 54.609 A 34.184 34.184 0 0 0 313.6 47.301 A 34.542 34.542 0 0 0 313.115 41.392 A 25.795 25.795 0 0 0 310.15 32.951 Q 306.7 26.901 300.85 23.601 A 24.848 24.848 0 0 0 296.209 21.574 A 27.738 27.738 0 0 0 287.7 20.301 A 31.325 31.325 0 0 0 286.12 20.34 A 26.169 26.169 0 0 0 274.5 23.601 Q 268.6 26.901 265.2 33.001 A 26.023 26.023 0 0 0 262.451 40.591 A 35.006 35.006 0 0 0 261.8 47.501 A 34.82 34.82 0 0 0 262.065 51.854 A 27.451 27.451 0 0 0 265.15 61.651 Q 268.5 67.801 274.4 71.251 Z M 249.8 73.501 L 240.8 73.501 L 240.8 21.501 L 249.8 21.501 L 249.8 73.501 Z M 287.7 66.701 Q 295.6 66.701 300 61.351 A 18.802 18.802 0 0 0 303.819 53.261 A 27.105 27.105 0 0 0 304.4 47.501 Q 304.4 42.301 302.2 37.951 A 19.198 19.198 0 0 0 298.028 32.382 A 18.17 18.17 0 0 0 296.25 30.951 Q 292.5 28.301 287.7 28.301 A 19.249 19.249 0 0 0 282.474 28.972 A 14.037 14.037 0 0 0 275.4 33.501 A 17.878 17.878 0 0 0 271.726 40.874 Q 271 43.807 271 47.301 Q 271 52.501 273.2 56.951 A 19.437 19.437 0 0 0 276.73 61.991 A 17.627 17.627 0 0 0 279.15 64.051 Q 282.9 66.701 287.7 66.701 Z M 9.5 11.101 L 9.5 39.001 Q 10.6 39.138 12.031 39.252 A 96.255 96.255 0 0 0 13.4 39.351 Q 15.7 39.501 18.5 39.501 A 31.831 31.831 0 0 0 23.88 39.075 Q 26.759 38.581 29.063 37.511 A 15.221 15.221 0 0 0 32.3 35.501 A 12.896 12.896 0 0 0 37.155 26.058 A 17.32 17.32 0 0 0 37.2 24.801 A 14.452 14.452 0 0 0 36.439 20.007 A 12.136 12.136 0 0 0 32.5 14.501 A 15.462 15.462 0 0 0 27.419 11.837 Q 25.193 11.127 22.5 10.86 A 34.58 34.58 0 0 0 19.1 10.701 A 131.125 131.125 0 0 0 15.842 10.74 A 109.939 109.939 0 0 0 14 10.801 A 91.274 91.274 0 0 0 11.117 10.965 A 75.041 75.041 0 0 0 9.5 11.101 Z M 240.937 10.789 A 5.973 5.973 0 0 0 245.3 12.601 A 8.175 8.175 0 0 0 246.796 12.47 A 5.647 5.647 0 0 0 249.9 10.851 Q 251.6 9.101 251.6 6.301 A 7.26 7.26 0 0 0 251.6 6.22 A 6.06 6.06 0 0 0 249.75 1.851 A 7.395 7.395 0 0 0 249.692 1.793 A 6.059 6.059 0 0 0 245.3 0.001 A 8.264 8.264 0 0 0 243.644 0.158 A 5.661 5.661 0 0 0 240.7 1.701 A 5.588 5.588 0 0 0 239.229 4.333 A 7.987 7.987 0 0 0 239 6.301 A 5.992 5.992 0 0 0 239.492 8.719 A 6.643 6.643 0 0 0 240.85 10.701 A 7.466 7.466 0 0 0 240.937 10.789 Z" vector-effect="non-scaling-stroke"/></g></svg>