<svg width="447.2" height="94.401" viewBox="0 0 447.2 94.401" xmlns="http://www.w3.org/2000/svg"><g id="svgGroup" stroke-linecap="round" fill-rule="evenodd" font-size="9pt" stroke="#000" stroke-width="0.25mm" fill="#000" style="stroke:#000;stroke-width:0.25mm;fill:#000"><path d="M 186.7 65.301 L 191.5 57.301 Q 195.1 60.301 199.6 62.201 A 23.348 23.348 0 0 0 204.97 63.71 A 32.118 32.118 0 0 0 210.1 64.101 A 27.981 27.981 0 0 0 214.647 63.754 Q 217.07 63.354 219.031 62.494 A 13.701 13.701 0 0 0 221.5 61.101 Q 225.548 58.209 225.695 53.366 A 12.116 12.116 0 0 0 225.7 53.001 A 11.94 11.94 0 0 0 225.363 50.108 A 9.816 9.816 0 0 0 224.5 47.851 A 8.097 8.097 0 0 0 223.3 46.194 Q 222.03 44.814 219.884 43.472 A 25.81 25.81 0 0 0 219.85 43.451 Q 216.734 41.508 210.965 39.281 A 118.584 118.584 0 0 0 209.7 38.801 Q 202.5 36.001 198.2 33.151 A 21.931 21.931 0 0 1 195.111 30.703 Q 193.394 29.053 192.338 27.188 A 13.303 13.303 0 0 1 192.05 26.651 Q 190.2 23.001 190.2 18.001 Q 190.2 13.001 192.95 8.951 Q 195.7 4.901 201.05 2.451 A 25.558 25.558 0 0 1 206.95 0.615 Q 210.193 0.001 214 0.001 Q 220.2 0.001 225.15 1.251 Q 230.1 2.501 234.8 4.801 L 231.3 12.901 A 31.496 31.496 0 0 0 227.174 10.882 A 41.686 41.686 0 0 0 223.35 9.551 Q 218.8 8.201 213.8 8.201 A 27.187 27.187 0 0 0 209.77 8.48 Q 207.638 8.801 205.9 9.487 A 12.616 12.616 0 0 0 203.4 10.801 A 9.902 9.902 0 0 0 201.237 12.765 A 7.359 7.359 0 0 0 199.6 17.501 A 10.464 10.464 0 0 0 199.892 20.022 A 8.562 8.562 0 0 0 200.7 22.101 Q 201.756 24.02 204.791 25.847 A 23.503 23.503 0 0 0 205.05 26.001 A 33.003 33.003 0 0 0 207.266 27.173 Q 209.535 28.275 212.746 29.523 A 130.016 130.016 0 0 0 214.8 30.301 A 81.228 81.228 0 0 1 219.778 32.33 Q 224.164 34.301 227.15 36.401 A 26.044 26.044 0 0 1 230.19 38.878 Q 232.413 41.007 233.6 43.351 A 17.579 17.579 0 0 1 235.341 49.213 A 22.155 22.155 0 0 1 235.5 51.901 A 21.71 21.71 0 0 1 234.833 57.401 A 17.105 17.105 0 0 1 232.25 63.001 Q 229 67.601 223.25 70.001 A 30.521 30.521 0 0 1 215.84 72.004 A 40.027 40.027 0 0 1 210.1 72.401 Q 202.8 72.401 196.8 70.451 A 38.206 38.206 0 0 1 191.433 68.268 A 28.433 28.433 0 0 1 186.7 65.301 Z M 55.8 92.401 L 57.8 84.901 A 9.908 9.908 0 0 0 58.965 85.475 Q 59.788 85.819 60.8 86.101 A 13.514 13.514 0 0 0 63.079 86.518 A 17.358 17.358 0 0 0 64.8 86.601 Q 69 86.601 72.3 83.901 A 12.003 12.003 0 0 0 74.233 81.839 Q 75.981 79.528 77.641 75.676 A 58.58 58.58 0 0 0 78.6 73.301 L 80.9 67.301 L 76.1 67.301 L 55.8 21.601 L 63.8 18.001 L 83.2 61.301 L 98.3 18.401 L 106.6 21.601 L 87.5 73.801 A 71.728 71.728 0 0 1 85.447 78.887 Q 84.345 81.326 83.178 83.315 A 30.86 30.86 0 0 1 81.2 86.301 A 24.268 24.268 0 0 1 78.322 89.511 Q 76.408 91.279 74.305 92.318 A 14.737 14.737 0 0 1 73.7 92.601 Q 69.6 94.401 64.6 94.401 Q 61.6 94.401 59.35 93.801 Q 57.1 93.201 55.8 92.401 Z M 380.4 68.701 L 371.7 72.201 L 363.9 52.201 L 331.5 52.201 L 323.7 72.001 L 315.6 68.701 L 343 1.201 L 353.4 1.201 L 380.4 68.701 Z M 447.2 68.701 L 438.5 72.201 L 430.7 52.201 L 398.3 52.201 L 390.5 72.001 L 382.4 68.701 L 409.8 1.201 L 420.2 1.201 L 447.2 68.701 Z M 14.9 93.201 L 5.9 93.201 L 5.9 32.501 A 11.015 11.015 0 0 0 5.773 30.765 Q 5.442 28.698 4.25 27.651 A 5.718 5.718 0 0 0 1.46 26.328 A 7.991 7.991 0 0 0 0 26.201 L 1.9 19.201 Q 7.762 19.201 10.822 22.164 A 10.15 10.15 0 0 1 13.4 26.501 Q 14.355 25.067 16.452 23.178 A 38.58 38.58 0 0 1 16.65 23.001 A 18.902 18.902 0 0 1 19.351 21.017 A 25.569 25.569 0 0 1 22.25 19.501 A 16.955 16.955 0 0 1 26.809 18.211 A 21.886 21.886 0 0 1 29.9 18.001 Q 35.9 18.001 41.15 21.151 A 22.329 22.329 0 0 1 48.328 28.118 A 27.464 27.464 0 0 1 49.6 30.251 Q 52.8 36.201 52.8 44.701 Q 52.8 53.001 49.6 59.251 A 27.846 27.846 0 0 1 45.666 65.082 A 23.029 23.029 0 0 1 41.25 68.951 Q 36.1 72.401 30.1 72.401 Q 25.5 72.401 21.5 70.551 A 30.352 30.352 0 0 1 18.084 68.712 Q 16.291 67.585 14.9 66.301 L 14.9 93.201 Z M 138.008 71.643 A 36.51 36.51 0 0 0 145.6 72.401 A 38.35 38.35 0 0 0 150.762 72.064 A 30.074 30.074 0 0 0 159.5 69.551 Q 165.6 66.701 169.9 61.751 Q 174.2 56.801 176.45 50.201 Q 178.7 43.601 178.7 36.101 A 48.215 48.215 0 0 0 178.621 33.323 A 41.439 41.439 0 0 0 176.45 22.101 Q 174.2 15.601 169.9 10.601 Q 165.6 5.601 159.45 2.801 A 29.925 29.925 0 0 0 153.558 0.838 A 36.42 36.42 0 0 0 145.6 0.001 A 39.35 39.35 0 0 0 139.372 0.476 A 29.661 29.661 0 0 0 127.9 4.751 Q 120.5 9.501 116.55 17.651 A 37.989 37.989 0 0 0 113.715 25.764 A 46.182 46.182 0 0 0 112.6 36.101 A 48.913 48.913 0 0 0 112.635 37.961 A 42.769 42.769 0 0 0 114.85 50.201 A 39.376 39.376 0 0 0 115.289 51.423 A 34.353 34.353 0 0 0 121.35 61.751 Q 125.6 66.701 131.7 69.551 A 29.142 29.142 0 0 0 138.008 71.643 Z M 270.908 71.643 A 36.51 36.51 0 0 0 278.5 72.401 A 38.35 38.35 0 0 0 283.662 72.064 A 30.074 30.074 0 0 0 292.4 69.551 Q 298.5 66.701 302.8 61.751 Q 307.1 56.801 309.35 50.201 Q 311.6 43.601 311.6 36.101 A 48.215 48.215 0 0 0 311.521 33.323 A 41.439 41.439 0 0 0 309.35 22.101 Q 307.1 15.601 302.8 10.601 Q 298.5 5.601 292.35 2.801 A 29.925 29.925 0 0 0 286.458 0.838 A 36.42 36.42 0 0 0 278.5 0.001 A 39.35 39.35 0 0 0 272.272 0.476 A 29.661 29.661 0 0 0 260.8 4.751 Q 253.4 9.501 249.45 17.651 A 37.989 37.989 0 0 0 246.615 25.764 A 46.182 46.182 0 0 0 245.5 36.101 A 48.913 48.913 0 0 0 245.535 37.961 A 42.769 42.769 0 0 0 247.75 50.201 A 39.376 39.376 0 0 0 248.189 51.423 A 34.353 34.353 0 0 0 254.25 61.751 Q 258.5 66.701 264.6 69.551 A 29.142 29.142 0 0 0 270.908 71.643 Z M 145.6 64.201 A 26.517 26.517 0 0 0 151.548 63.566 A 19.316 19.316 0 0 0 158.5 60.501 A 22.47 22.47 0 0 0 165.825 51.63 A 27.252 27.252 0 0 0 166.35 50.451 A 34.108 34.108 0 0 0 168.672 41.522 A 43.503 43.503 0 0 0 169 36.101 Q 169 30.701 167.4 25.701 A 29.735 29.735 0 0 0 163.26 17.374 A 28.121 28.121 0 0 0 162.8 16.751 Q 159.8 12.801 155.45 10.501 A 19.921 19.921 0 0 0 148.033 8.319 A 24.578 24.578 0 0 0 145.6 8.201 A 24.086 24.086 0 0 0 139.108 9.041 A 19.545 19.545 0 0 0 133.05 11.901 A 23.148 23.148 0 0 0 125.449 21.027 A 27.785 27.785 0 0 0 125.05 21.901 A 32.793 32.793 0 0 0 122.596 31.088 A 41.257 41.257 0 0 0 122.3 36.101 Q 122.3 41.501 123.85 46.551 A 29.379 29.379 0 0 0 128.031 55.096 A 27.923 27.923 0 0 0 128.4 55.601 Q 131.4 59.601 135.75 61.901 A 19.921 19.921 0 0 0 143.167 64.082 A 24.578 24.578 0 0 0 145.6 64.201 Z M 278.5 64.201 A 26.517 26.517 0 0 0 284.448 63.566 A 19.316 19.316 0 0 0 291.4 60.501 A 22.47 22.47 0 0 0 298.725 51.63 A 27.252 27.252 0 0 0 299.25 50.451 A 34.108 34.108 0 0 0 301.572 41.522 A 43.503 43.503 0 0 0 301.9 36.101 Q 301.9 30.701 300.3 25.701 A 29.735 29.735 0 0 0 296.16 17.374 A 28.121 28.121 0 0 0 295.7 16.751 Q 292.7 12.801 288.35 10.501 A 19.921 19.921 0 0 0 280.933 8.319 A 24.578 24.578 0 0 0 278.5 8.201 A 24.086 24.086 0 0 0 272.008 9.041 A 19.545 19.545 0 0 0 265.95 11.901 A 23.148 23.148 0 0 0 258.349 21.027 A 27.785 27.785 0 0 0 257.95 21.901 A 32.793 32.793 0 0 0 255.496 31.088 A 41.257 41.257 0 0 0 255.2 36.101 Q 255.2 41.501 256.75 46.551 A 29.379 29.379 0 0 0 260.931 55.096 A 27.923 27.923 0 0 0 261.3 55.601 Q 264.3 59.601 268.65 61.901 A 19.921 19.921 0 0 0 276.067 64.082 A 24.578 24.578 0 0 0 278.5 64.201 Z M 14.9 32.601 L 14.9 58.201 Q 17.5 60.901 20.9 62.651 Q 24.3 64.401 28.3 64.401 Q 34.994 64.401 39.217 59.216 A 17.38 17.38 0 0 0 39.35 59.051 A 18.792 18.792 0 0 0 42.844 51.745 Q 43.505 49.055 43.588 45.909 A 34.555 34.555 0 0 0 43.6 45.001 Q 43.6 39.001 41.45 34.701 Q 39.3 30.401 35.75 28.101 Q 32.2 25.801 27.9 25.801 A 14.741 14.741 0 0 0 22.273 26.863 A 14.054 14.054 0 0 0 20.15 27.951 Q 16.7 30.101 14.9 32.601 Z M 347.7 10.601 L 334.5 44.201 L 360.8 44.201 L 347.7 10.601 Z M 414.5 10.601 L 401.3 44.201 L 427.6 44.201 L 414.5 10.601 Z" vector-effect="non-scaling-stroke"/></g></svg>