<?xml version="1.0" encoding="UTF-8" standalone="no"?>
<svg
   version="1.1"
   id="svg4"
   width="73.048836"
   height="11.53125"
   xmlns="http://www.w3.org/2000/svg"
   xmlns:svg="http://www.w3.org/2000/svg">
  <defs
     id="defs8" />
  <g
     aria-label="PyPSA-Earth"
     id="text2"
     transform="translate(-1.171875,9.1171875)">
    <path
       d="m 6.8789062,-6.0878906 q 0,0.5800781 -0.2050781,1.078125 -0.1992187,0.4921875 -0.5625,0.8554687 -0.4511719,0.4511719 -1.0664062,0.6796875 -0.6152344,0.2226563 -1.5527344,0.2226563 H 2.3320313 V 0 H 1.171875 v -8.7246094 h 2.3671875 q 0.7851562,0 1.3300781,0.1347656 0.5449219,0.1289063 0.9667969,0.4101563 0.4980469,0.3339844 0.7675781,0.8320313 0.2753906,0.4980468 0.2753906,1.2597656 z m -1.2070312,0.029297 q 0,-0.4511719 -0.1582031,-0.7851563 Q 5.3554687,-7.1777344 5.0332031,-7.3886719 4.7519531,-7.5703125 4.3886719,-7.6464844 4.03125,-7.7285156 3.4804688,-7.7285156 H 2.3320313 v 3.4863281 h 0.9785156 q 0.703125,0 1.1425781,-0.1230469 0.4394531,-0.1289062 0.7148437,-0.4042968 0.2753907,-0.28125 0.3867188,-0.5917969 Q 5.671875,-5.671875 5.671875,-6.0585936 Z"
       id="path10" />
    <path
       d="M 13.980469,-6.5449219 10.160156,2.4140625 H 8.9824219 L 10.201172,-0.31640625 7.59375,-6.5449219 h 1.1953125 l 2.0097655,4.8515625 2.027344,-4.8515625 z"
       id="path12" />
    <path
       d="m 21.216797,-6.0878906 q 0,0.5800781 -0.205078,1.078125 -0.199219,0.4921875 -0.5625,0.8554687 -0.451172,0.4511719 -1.066407,0.6796875 -0.615234,0.2226563 -1.552734,0.2226563 H 16.669922 V 0 h -1.160156 v -8.7246094 h 2.367187 q 0.785156,0 1.330078,0.1347656 0.544922,0.1289063 0.966797,0.4101563 0.498047,0.3339844 0.767578,0.8320313 0.275391,0.4980468 0.275391,1.2597656 z m -1.207031,0.029297 q 0,-0.4511719 -0.158204,-0.7851563 -0.158203,-0.3339844 -0.480468,-0.5449219 -0.28125,-0.1816406 -0.644532,-0.2578125 -0.357421,-0.082031 -0.908203,-0.082031 h -1.148437 v 3.4863281 h 0.978515 q 0.703125,0 1.142579,-0.1230469 0.439453,-0.1289062 0.714843,-0.4042968 0.275391,-0.28125 0.386719,-0.5917969 0.117188,-0.3105469 0.117188,-0.6972658 z"
       id="path14" />
    <path
       d="m 29.085937,-2.4902344 q 0,0.5097657 -0.240234,1.0078125 -0.234375,0.4980469 -0.662109,0.84375003 -0.46875,0.37499999 -1.095703,0.5859375 -0.621094,0.21093749 -1.5,0.21093749 -0.94336,0 -1.699219,-0.17578125 -0.75,-0.17578124 -1.529297,-0.52148437 v -1.453125 h 0.08203 q 0.66211,0.5507813 1.529297,0.8496094 0.867188,0.2988281 1.628906,0.2988281 1.078125,0 1.675782,-0.4042969 0.603515,-0.4042968 0.603515,-1.078125 0,-0.5800781 -0.287109,-0.8554687 -0.28125,-0.2753907 -0.861328,-0.4277344 -0.439453,-0.1171875 -0.955078,-0.1933594 -0.509766,-0.076172 -1.083985,-0.1933594 -1.160156,-0.2460937 -1.722656,-0.8378906 -0.556641,-0.5976562 -0.556641,-1.5527343 0,-1.0957032 0.925782,-1.7929688 0.925781,-0.703125 2.349609,-0.703125 0.919922,0 1.6875,0.1757812 0.767578,0.1757813 1.359375,0.4335938 v 1.3710938 h -0.08203 q -0.498047,-0.421875 -1.3125,-0.6972657 -0.808594,-0.28125 -1.658203,-0.28125 -0.931641,0 -1.5,0.3867188 -0.5625,0.3867187 -0.5625,0.9960937 0,0.5449219 0.28125,0.8554688 0.28125,0.3105469 0.990234,0.4746094 0.375,0.082031 1.066406,0.1992187 0.691406,0.1171875 1.171875,0.2402344 0.972656,0.2578125 1.464844,0.7792968 0.492187,0.5214844 0.492187,1.4589844 z"
       id="path16" />
    <path
       d="M 37.710937,0 H 36.474609 L 35.619141,-2.4316406 H 31.845703 L 30.990234,0 H 29.8125 l 3.175781,-8.7246094 h 1.546875 z m -2.449218,-3.4277344 -1.529297,-4.2832031 -1.535156,4.2832031 z"
       id="path18" />
    <path
       d="m 42.123047,-3.2871094 h -3.65625 v -1.0605468 h 3.65625 z"
       id="path20" />
    <path
       d="m 49.939453,0 h -5.748047 v -8.7246094 h 5.748047 v 1.03125 h -4.587891 v 2.390625 h 4.587891 v 1.03125 H 45.351562 V -1.03125 h 4.587891 z"
       id="path22" />
    <path
       d="m 56.777344,0 h -1.095703 v -0.69726562 q -0.146485,0.0996094 -0.398438,0.28124999 -0.246094,0.17578125 -0.480469,0.28125001 Q 54.527344,0 54.169922,0.08789062 q -0.357422,0.09375 -0.837891,0.09375 -0.884765,0 -1.5,-0.5859375 -0.615234,-0.5859375 -0.615234,-1.49414062 0,-0.7441406 0.316406,-1.2011719 0.322266,-0.4628906 0.914063,-0.7265625 0.597656,-0.2636718 1.435546,-0.3574218 0.837891,-0.09375 1.798829,-0.140625 v -0.1699219 q 0,-0.375 -0.134766,-0.6210938 -0.128906,-0.2460937 -0.375,-0.3867187 -0.234375,-0.1347656 -0.5625,-0.1816406 -0.328125,-0.046875 -0.685547,-0.046875 -0.433594,0 -0.966797,0.1171875 -0.533203,0.1113281 -1.101562,0.328125 h -0.05859 v -1.1191407 q 0.322266,-0.087891 0.931641,-0.1933593 0.609375,-0.1054688 1.201171,-0.1054688 0.691407,0 1.201172,0.1171875 0.515625,0.1113281 0.890625,0.3867188 0.369141,0.2695312 0.5625,0.6972656 0.19336,0.4277344 0.19336,1.0605469 z m -1.095703,-1.6113281 v -1.8222657 q -0.503907,0.029297 -1.189454,0.087891 -0.679687,0.058594 -1.078125,0.1699218 -0.474609,0.1347657 -0.767578,0.421875 -0.292968,0.28125 -0.292968,0.7792969 0,0.5625 0.339843,0.8496094 0.339844,0.28125 1.03711,0.28125 0.580078,0 1.060547,-0.2226562 0.480468,-0.2285157 0.890625,-0.5449222 z"
       id="path24" />
    <path
       d="m 62.982422,-5.34375 h -0.05859 q -0.246094,-0.058594 -0.480469,-0.082031 -0.228515,-0.029297 -0.544922,-0.029297 -0.509765,0 -0.984375,0.2285156 Q 60.439453,-5.0039062 60,-4.6464844 V 0 H 58.898437 V -6.5449219 H 60 v 0.9667969 q 0.65625,-0.5273437 1.154297,-0.7441406 0.503906,-0.2226563 1.02539,-0.2226563 0.28711,0 0.416016,0.017578 0.128906,0.011719 0.386719,0.052734 z"
       id="path26" />
    <path
       d="M 67.417969,-0.05859375 Q 67.107422,0.0234375 66.738281,0.07617187 66.375,0.12890625 66.087891,0.12890625 q -1.001954,0 -1.523438,-0.5390625 -0.521484,-0.5390625 -0.521484,-1.72851565 v -3.4804687 h -0.744141 v -0.9257813 h 0.744141 v -1.8808594 h 1.101562 v 1.8808594 h 2.273438 v 0.9257813 h -2.273438 v 2.9824218 q 0,0.515625 0.02344,0.8085938 0.02344,0.2871094 0.164062,0.5390625 0.128906,0.234375 0.351563,0.34570312 0.228515,0.10546875 0.691406,0.10546875 0.269531,0 0.5625,-0.0761719 0.292969,-0.0820313 0.421875,-0.13476557 h 0.05859 z"
       id="path28" />
    <path
       d="m 74.220703,0 h -1.101562 v -3.7265625 q 0,-0.4511719 -0.05273,-0.84375 -0.05273,-0.3984375 -0.193359,-0.6210937 -0.146485,-0.2460938 -0.421875,-0.3632813 -0.275391,-0.1230469 -0.714844,-0.1230469 -0.451172,0 -0.943359,0.2226563 -0.492188,0.2226562 -0.94336,0.5683594 V 0 h -1.101562 v -9.1171875 h 1.101562 v 3.2988281 q 0.515625,-0.4277343 1.066407,-0.6679687 0.550781,-0.2402344 1.130859,-0.2402344 1.060547,0 1.617187,0.6386719 0.556641,0.6386719 0.556641,1.8398437 z"
       id="path30" />
  </g>
</svg>
