<svg width="332.401" height="94" viewBox="0 0 332.401 94" xmlns="http://www.w3.org/2000/svg"><g id="svgGroup" stroke-linecap="round" fill-rule="evenodd" font-size="9pt" stroke="#000" stroke-width="0.25mm" fill="#000" style="stroke:#000;stroke-width:0.25mm;fill:#000"><path d="M 215.1 70.8 L 206.1 70.8 L 206.1 18.8 L 214.8 18.8 L 214.8 27.5 Q 217.6 23.3 221.9 20.45 A 17.205 17.205 0 0 1 231.102 17.609 A 20.858 20.858 0 0 1 231.7 17.6 A 20.994 20.994 0 0 1 236.117 18.04 Q 239.103 18.682 241.385 20.263 A 13.128 13.128 0 0 1 241.85 20.6 A 15.751 15.751 0 0 1 247.298 28.29 A 19.154 19.154 0 0 1 247.4 28.6 Q 250.5 24 254.75 20.8 A 15.669 15.669 0 0 1 261.541 17.917 A 21.446 21.446 0 0 1 265.3 17.6 A 21.437 21.437 0 0 1 270.188 18.123 Q 273.774 18.962 276.263 21.151 A 12.994 12.994 0 0 1 277.95 22.95 A 18.992 18.992 0 0 1 281.361 30.223 Q 282.1 33.272 282.1 36.9 L 282.1 70.8 L 273.1 70.8 L 273.1 37.6 A 19.042 19.042 0 0 0 272.763 33.911 Q 272.327 31.706 271.328 29.962 A 10.982 10.982 0 0 0 270.6 28.85 A 7.974 7.974 0 0 0 264.787 25.554 A 10.678 10.678 0 0 0 263.7 25.5 A 11.926 11.926 0 0 0 256.941 27.628 A 15.996 15.996 0 0 0 255.35 28.85 Q 251.5 32.2 248.6 36.7 L 248.6 70.8 L 239.6 70.8 L 239.6 37.6 A 19.042 19.042 0 0 0 239.263 33.911 Q 238.827 31.706 237.828 29.962 A 10.982 10.982 0 0 0 237.1 28.85 A 7.974 7.974 0 0 0 231.287 25.554 A 10.678 10.678 0 0 0 230.2 25.5 A 12.02 12.02 0 0 0 223.881 27.329 A 16.244 16.244 0 0 0 221.9 28.75 Q 218 32 215.1 36.4 L 215.1 70.8 Z M 49.6 92 L 51.6 84.5 A 9.908 9.908 0 0 0 52.765 85.075 Q 53.588 85.419 54.6 85.7 A 13.514 13.514 0 0 0 56.879 86.118 A 17.358 17.358 0 0 0 58.6 86.2 Q 62.8 86.2 66.1 83.5 A 12.003 12.003 0 0 0 68.033 81.439 Q 69.781 79.128 71.441 75.276 A 58.58 58.58 0 0 0 72.4 72.9 L 74.7 66.9 L 69.9 66.9 L 49.6 21.2 L 57.6 17.6 L 77 60.9 L 92.1 18 L 100.4 21.2 L 81.3 73.4 A 71.728 71.728 0 0 1 79.247 78.487 Q 78.145 80.926 76.978 82.915 A 30.86 30.86 0 0 1 75 85.9 A 24.268 24.268 0 0 1 72.122 89.111 Q 70.208 90.879 68.105 91.918 A 14.737 14.737 0 0 1 67.5 92.2 Q 63.4 94 58.4 94 Q 55.4 94 53.15 93.4 Q 50.9 92.8 49.6 92 Z M 293.1 66.6 L 296.9 59.1 A 18.557 18.557 0 0 0 300.044 61.226 Q 301.598 62.071 303.45 62.75 A 24.073 24.073 0 0 0 311.061 64.188 A 27.464 27.464 0 0 0 311.9 64.2 Q 317.292 64.2 320.135 62.485 A 7.738 7.738 0 0 0 320.35 62.35 Q 323.2 60.5 323.2 57.6 A 7.123 7.123 0 0 0 322.886 55.453 A 6.212 6.212 0 0 0 322.15 53.9 A 6.384 6.384 0 0 0 321.221 52.806 Q 320.207 51.835 318.534 50.882 A 22.3 22.3 0 0 0 318.3 50.75 A 28.462 28.462 0 0 0 316.306 49.757 Q 314.19 48.795 311.201 47.746 A 103.602 103.602 0 0 0 310.2 47.4 A 46.616 46.616 0 0 1 305.802 45.658 Q 303.688 44.683 302.012 43.595 A 19.335 19.335 0 0 1 299.25 41.45 A 11.324 11.324 0 0 1 295.956 35.454 A 16.794 16.794 0 0 1 295.6 31.9 Q 295.6 25.9 300.85 21.75 Q 305.254 18.269 312.508 17.708 A 37.527 37.527 0 0 1 315.4 17.6 A 40.794 40.794 0 0 1 319.846 17.831 Q 322.154 18.084 324.17 18.616 A 25.234 25.234 0 0 1 324.3 18.65 Q 328.2 19.7 331.3 21.3 L 328.8 28.7 Q 326.1 27.1 322.65 26.1 A 25.024 25.024 0 0 0 318.167 25.253 A 31.837 31.837 0 0 0 315 25.1 A 20.632 20.632 0 0 0 312.063 25.295 Q 308.977 25.74 307.1 27.2 A 9.322 9.322 0 0 0 305.742 28.474 Q 305.04 29.292 304.705 30.166 A 4.529 4.529 0 0 0 304.4 31.8 A 4.921 4.921 0 0 0 305.895 35.352 A 7.082 7.082 0 0 0 306.5 35.9 Q 308.565 37.572 314.498 39.534 A 84.459 84.459 0 0 0 314.7 39.6 A 67.753 67.753 0 0 1 319.762 41.498 Q 325.689 44.018 328.5 46.9 Q 332.4 50.9 332.4 56.9 Q 332.4 63.649 327.149 67.655 A 16.618 16.618 0 0 1 326.75 67.95 Q 322.01 71.348 314.562 71.895 A 40.423 40.423 0 0 1 311.6 72 Q 305.7 72 300.95 70.5 A 30.883 30.883 0 0 1 297.11 69.016 Q 295.129 68.085 293.548 66.936 A 18.229 18.229 0 0 1 293.1 66.6 Z M 9.5 70.8 L 0 70.8 L 0 1 Q 4.1 0.5 9.05 0.25 A 200.806 200.806 0 0 1 17.98 0.004 A 221.966 221.966 0 0 1 19.3 0 Q 26.87 0 32.472 2.082 A 26.011 26.011 0 0 1 34.1 2.75 A 24.606 24.606 0 0 1 39.182 5.779 A 19.374 19.374 0 0 1 43.4 10.3 Q 46.6 15.1 46.6 21.3 A 25.258 25.258 0 0 1 45.892 27.423 A 19.268 19.268 0 0 1 42.9 34 A 22.312 22.312 0 0 1 35.349 40.63 A 28.065 28.065 0 0 1 32.6 41.95 A 34.774 34.774 0 0 1 24.511 44.174 A 47.194 47.194 0 0 1 17.3 44.7 Q 13.1 44.7 9.5 44.4 L 9.5 70.8 Z M 118.4 70.8 L 109.4 70.8 L 109.4 18.8 L 118.1 18.8 L 118.1 30.1 Q 119.4 26.8 121.6 23.95 Q 123.8 21.1 127.1 19.35 A 14.817 14.817 0 0 1 131.78 17.826 A 19.459 19.459 0 0 1 134.8 17.6 Q 136.3 17.6 137.8 17.75 A 18.972 18.972 0 0 1 138.855 17.884 Q 139.355 17.963 139.782 18.063 A 8.817 8.817 0 0 1 140.3 18.2 L 137.6 27.5 A 9.763 9.763 0 0 0 135.455 26.888 Q 134.359 26.7 133.1 26.7 A 12.958 12.958 0 0 0 126.47 28.546 A 15.609 15.609 0 0 0 126.05 28.8 Q 122.722 30.887 120.578 35.243 A 22.927 22.927 0 0 0 120.55 35.3 Q 118.787 38.908 118.47 44.128 A 39.09 39.09 0 0 0 118.4 46.5 L 118.4 70.8 Z M 154.9 68.55 A 24.559 24.559 0 0 0 159.498 70.64 Q 163.553 72 168.2 72 Q 175.6 72 181.45 68.6 Q 187.3 65.2 190.7 59.05 A 26.255 26.255 0 0 0 193.353 51.909 A 34.184 34.184 0 0 0 194.1 44.6 A 34.542 34.542 0 0 0 193.615 38.692 A 25.795 25.795 0 0 0 190.65 30.25 Q 187.2 24.2 181.35 20.9 A 24.848 24.848 0 0 0 176.709 18.873 A 27.738 27.738 0 0 0 168.2 17.6 A 31.325 31.325 0 0 0 166.62 17.64 A 26.169 26.169 0 0 0 155 20.9 Q 149.1 24.2 145.7 30.3 A 26.023 26.023 0 0 0 142.951 37.891 A 35.006 35.006 0 0 0 142.3 44.8 A 34.82 34.82 0 0 0 142.565 49.154 A 27.451 27.451 0 0 0 145.65 58.95 Q 149 65.1 154.9 68.55 Z M 168.2 64 Q 176.1 64 180.5 58.65 A 18.802 18.802 0 0 0 184.319 50.56 A 27.105 27.105 0 0 0 184.9 44.8 Q 184.9 39.6 182.7 35.25 A 19.198 19.198 0 0 0 178.528 29.682 A 18.17 18.17 0 0 0 176.75 28.25 Q 173 25.6 168.2 25.6 A 19.249 19.249 0 0 0 162.974 26.272 A 14.037 14.037 0 0 0 155.9 30.8 A 17.878 17.878 0 0 0 152.226 38.174 Q 151.5 41.107 151.5 44.6 Q 151.5 49.8 153.7 54.25 A 19.437 19.437 0 0 0 157.23 59.29 A 17.627 17.627 0 0 0 159.65 61.35 Q 163.4 64 168.2 64 Z M 9.5 8.4 L 9.5 36.3 Q 10.6 36.438 12.031 36.552 A 96.255 96.255 0 0 0 13.4 36.65 Q 15.7 36.8 18.5 36.8 A 31.831 31.831 0 0 0 23.88 36.375 Q 26.759 35.88 29.063 34.811 A 15.221 15.221 0 0 0 32.3 32.8 A 12.896 12.896 0 0 0 37.155 23.358 A 17.32 17.32 0 0 0 37.2 22.1 A 14.452 14.452 0 0 0 36.439 17.307 A 12.136 12.136 0 0 0 32.5 11.8 A 15.462 15.462 0 0 0 27.419 9.137 Q 25.193 8.427 22.5 8.16 A 34.58 34.58 0 0 0 19.1 8 A 131.125 131.125 0 0 0 15.842 8.039 A 109.939 109.939 0 0 0 14 8.1 A 91.274 91.274 0 0 0 11.117 8.264 A 75.041 75.041 0 0 0 9.5 8.4 Z" vector-effect="non-scaling-stroke"/></g></svg>