<?xml version="1.0" encoding="UTF-8" standalone="no"?>
<svg
   version="1.1"
   id="svg4"
   width="51.398438"
   height="11.296875"
   xmlns="http://www.w3.org/2000/svg"
   xmlns:svg="http://www.w3.org/2000/svg">
  <defs
     id="defs8" />
  <g
     aria-label="pySTEPS"
     id="text2"
     transform="translate(-1.0839844,8.8828125)">
    <path
       d="m 6.84375,-3.3515625 q 0,0.796875 -0.2285156,1.4589844 -0.2285157,0.65625 -0.6445313,1.11328123 -0.3867187,0.43359374 -0.9140625,0.67382812 -0.5214844,0.234375 -1.1074218,0.234375 -0.5097657,0 -0.9257813,-0.11132812 Q 2.6132813,-0.09375 2.1855469,-0.328125 V 2.4140625 H 1.0839844 V -6.5449219 H 2.1855469 V -5.859375 Q 2.625,-6.2285156 3.1699219,-6.4746094 q 0.5507812,-0.2519531 1.171875,-0.2519531 1.1835937,0 1.8398437,0.8964844 0.6621094,0.890625 0.6621094,2.4785156 z m -1.1367188,0.029297 q 0,-1.1835938 -0.4042968,-1.7695313 -0.4042969,-0.5859375 -1.2421875,-0.5859375 -0.4746094,0 -0.9550781,0.2050782 Q 2.625,-5.2675781 2.1855469,-4.9335937 v 3.7089843 q 0.46875,0.2109375 0.8027344,0.2871094 0.3398437,0.0761719 0.7675781,0.0761719 0.9199218,0 1.4355468,-0.6210938 0.515625,-0.6210937 0.515625,-1.8398436 z"
       id="path10" />
    <path
       d="M 14.191406,-6.5449219 10.371094,2.4140625 H 9.1933594 L 10.412109,-0.31640625 7.8046875,-6.5449219 H 9 l 2.009766,4.8515625 2.027343,-4.8515625 z"
       id="path12" />
    <path
       d="m 22.060547,-2.4902344 q 0,0.5097657 -0.240235,1.0078125 -0.234375,0.4980469 -0.662109,0.84375003 -0.46875,0.37499999 -1.095703,0.5859375 -0.621094,0.21093749 -1.5,0.21093749 -0.943359,0 -1.699219,-0.17578125 -0.75,-0.17578124 -1.529297,-0.52148437 v -1.453125 h 0.08203 q 0.662109,0.5507813 1.529296,0.8496094 0.867188,0.2988281 1.628907,0.2988281 1.078125,0 1.675781,-0.4042969 0.603516,-0.4042968 0.603516,-1.078125 0,-0.5800781 -0.28711,-0.8554687 -0.28125,-0.2753907 -0.861328,-0.4277344 -0.439453,-0.1171875 -0.955078,-0.1933594 -0.509766,-0.076172 -1.083984,-0.1933594 -1.160157,-0.2460937 -1.722657,-0.8378906 -0.55664,-0.5976562 -0.55664,-1.5527343 0,-1.0957032 0.925781,-1.7929688 0.925781,-0.703125 2.349609,-0.703125 0.919922,0 1.6875,0.1757812 0.767578,0.1757813 1.359375,0.4335938 v 1.3710938 h -0.08203 q -0.498047,-0.421875 -1.3125,-0.6972657 -0.808594,-0.28125 -1.658203,-0.28125 -0.931641,0 -1.5,0.3867188 -0.5625,0.3867187 -0.5625,0.9960937 0,0.5449219 0.28125,0.8554688 0.28125,0.3105469 0.990234,0.4746094 0.375,0.082031 1.066407,0.1992187 0.691406,0.1171875 1.171875,0.2402344 0.972656,0.2578125 1.464843,0.7792968 0.492188,0.5214844 0.492189,1.4589844 z"
       id="path14" />
    <path
       d="M 30.146484,-7.6933594 H 27.029297 V 0 h -1.160156 v -7.6933594 h -3.117188 v -1.03125 h 7.394531 z"
       id="path16" />
    <path
       d="m 37.066406,0 h -5.748047 v -8.7246094 h 5.748047 v 1.03125 h -4.58789 v 2.390625 h 4.58789 v 1.03125 h -4.58789 V -1.03125 h 4.58789 z"
       id="path18" />
    <path
       d="m 44.613281,-6.0878906 q 0,0.5800781 -0.205078,1.078125 -0.199219,0.4921875 -0.5625,0.8554687 -0.451172,0.4511719 -1.066406,0.6796875 -0.615235,0.2226563 -1.552735,0.2226563 H 40.066406 V 0 H 38.90625 v -8.7246094 h 2.367187 q 0.785157,0 1.330079,0.1347656 0.544921,0.1289063 0.966796,0.4101563 0.498047,0.3339844 0.767579,0.8320313 0.27539,0.4980468 0.27539,1.2597656 z m -1.207031,0.029297 q 0,-0.4511719 -0.158203,-0.7851563 -0.158203,-0.3339844 -0.480469,-0.5449219 -0.28125,-0.1816406 -0.644531,-0.2578125 -0.357422,-0.082031 -0.908203,-0.082031 h -1.148438 v 3.4863281 h 0.978516 q 0.703125,0 1.142578,-0.1230469 0.439453,-0.1289062 0.714844,-0.4042968 0.27539,-0.28125 0.386718,-0.5917969 0.117188,-0.3105469 0.117188,-0.6972658 z"
       id="path20" />
    <path
       d="m 52.482422,-2.4902344 q 0,0.5097657 -0.240235,1.0078125 -0.234375,0.4980469 -0.662109,0.84375003 -0.46875,0.37499999 -1.095703,0.5859375 -0.621094,0.21093749 -1.5,0.21093749 -0.943359,0 -1.699219,-0.17578125 -0.75,-0.17578124 -1.529297,-0.52148437 v -1.453125 h 0.08203 q 0.662109,0.5507813 1.529296,0.8496094 0.867188,0.2988281 1.628907,0.2988281 1.078125,0 1.675781,-0.4042969 0.603516,-0.4042968 0.603516,-1.078125 0,-0.5800781 -0.28711,-0.8554687 -0.28125,-0.2753907 -0.861328,-0.4277344 -0.439453,-0.1171875 -0.955078,-0.1933594 -0.509766,-0.076172 -1.083984,-0.1933594 -1.160157,-0.2460937 -1.722657,-0.8378906 -0.55664,-0.5976562 -0.55664,-1.5527343 0,-1.0957032 0.925781,-1.7929688 0.925781,-0.703125 2.349609,-0.703125 0.919922,0 1.6875,0.1757812 0.767578,0.1757813 1.359375,0.4335938 v 1.3710938 h -0.08203 q -0.498047,-0.421875 -1.3125,-0.6972657 -0.808594,-0.28125 -1.658203,-0.28125 -0.931641,0 -1.5,0.3867188 -0.5625,0.3867187 -0.5625,0.9960937 0,0.5449219 0.28125,0.8554688 0.28125,0.3105469 0.990234,0.4746094 0.375,0.082031 1.066407,0.1992187 0.691406,0.1171875 1.171875,0.2402344 0.972656,0.2578125 1.464843,0.7792968 0.492188,0.5214844 0.492189,1.4589844 z"
       id="path22" />
  </g>
</svg>
