<?xml version="1.0" encoding="UTF-8" standalone="no"?>
<!-- Created with Inkscape (http://www.inkscape.org/) -->

<svg
   version="1.1"
   id="svg12501"
   width="1052.9604"
   height="658.64294"
   viewBox="0 0 1052.9604 658.64294"
   sodipodi:docname="pytesmo.svg"
   inkscape:version="1.2.2 (b0a84865, 2022-12-01)"
   xmlns:inkscape="http://www.inkscape.org/namespaces/inkscape"
   xmlns:sodipodi="http://sodipodi.sourceforge.net/DTD/sodipodi-0.dtd"
   xmlns="http://www.w3.org/2000/svg"
   xmlns:svg="http://www.w3.org/2000/svg">
  <defs
     id="defs12505" />
  <sodipodi:namedview
     id="namedview12503"
     pagecolor="#ffffff"
     bordercolor="#666666"
     borderopacity="1.0"
     inkscape:showpageshadow="2"
     inkscape:pageopacity="0.0"
     inkscape:pagecheckerboard="0"
     inkscape:deskcolor="#d1d1d1"
     showgrid="false"
     inkscape:zoom="0.472"
     inkscape:cx="533.89831"
     inkscape:cy="254.23729"
     inkscape:window-width="1340"
     inkscape:window-height="800"
     inkscape:window-x="0"
     inkscape:window-y="25"
     inkscape:window-maximized="0"
     inkscape:current-layer="g12507" />
  <g
     inkscape:groupmode="layer"
     inkscape:label="Image"
     id="g12507"
     transform="translate(0.07423424,0.06849883)">
    <g
       id="g12628">
      <path
         style="fill:#4c95b8"
         d="M 38.347877,498.58019 C 20.039689,494.13929 5.0266787,478.66144 1.1211119,460.20078 -0.47268296,452.6673 -0.47268296,47.332699 1.1211119,39.799221 3.171105,30.109406 7.4354172,22.357686 14.727201,15.065903 18.458978,11.334126 23.863373,7.089449 26.736968,5.6332883 38.410157,-0.28196401 25.994711,0.03089515 249.70078,0.01478109 c 145.99851,-0.01051661 206.72965,0.30404554 210.5,1.09030271 18.56542,3.8715777 34.33232,19.7598922 38.32994,38.6251092 2.15065,10.14915 2.15065,410.390467 0,420.539617 -3.91839,18.4913 -18.36805,33.41273 -36.99082,38.19853 -5.26368,1.35269 -30.03525,1.52172 -212,1.44661 -161.153372,-0.0665 -207.162308,-0.3573 -211.192023,-1.33476 z m 50.029625,-75.77935 8.08839,-26.69916 1.275999,4.19916 C 98.44369,402.61038 102.07557,414.625 105.81273,427 l 6.79485,22.5 7.07089,0.29128 7.0709,0.29128 3.0609,-11.29128 c 1.68349,-6.2102 4.86381,-18.04128 7.06739,-26.29128 2.20357,-8.25 6.05756,-22.54404 8.56442,-31.76453 C 147.94893,371.51498 150,363.50996 150,362.94654 c 0,-0.64296 -3.24596,-0.91682 -8.71729,-0.73547 l -8.71729,0.28893 -6.53271,26.20177 c -3.59299,14.41097 -6.77735,26.43061 -7.07635,26.71031 -0.42695,0.39938 -8.50622,-26.36197 -15.14396,-50.16208 -0.90233,-3.2354 -0.93528,-3.25 -7.331469,-3.25 H 90.05587 l -1.671918,5.75 c -0.919554,3.1625 -4.489354,15.425 -7.932888,27.25 -3.443534,11.825 -6.531822,20.825 -6.862862,20 -0.331041,-0.825 -3.424966,-12.975 -6.87539,-27 l -6.273498,-25.5 -8.838271,-0.29066 -8.838271,-0.29067 0.682634,2.79067 c 0.658595,2.69239 21.270693,79.94083 22.302046,83.5819 0.436469,1.5409 1.488069,1.75053 7.52452,1.5 L 80.289113,449.5 Z M 209,405 v -44 h -8.5 -8.5 v 44 44 h 8.5 8.5 z m 117,36 v -8 H 305.5 285 V 422.5 412 H 302.5 320 V 404.5 397 H 302.5 285 V 386.5 376 h 20.5 20.5 v -7.5 -7.5 h -29 -29 v 44 44 h 29 29 z m 73.23367,-18.6595 0.26633,-26.6595 17.02597,26.4095 17.02597,26.4095 7.72403,0.29206 L 449,449.08413 V 405.04206 361 h -8.48367 -8.48366 L 431.76633,387.7047 431.5,414.40939 421,398.18856 c -5.775,-8.92146 -13.56906,-20.93857 -17.32012,-26.70469 L 396.85975,361 H 389.42988 382 v 44 44 h 8.48367 8.48366 z M 341,271.08037 v -26.91964 l -5.25,-1.69656 C 321.38903,237.82334 309.48358,224.90888 305.36135,209.5 c -1.06161,-3.96829 -1.34006,-20.93988 -1.34948,-82.25 L 304,50 h -27.03814 -27.03814 l 0.30973,82.75 c 0.30559,81.64772 0.3389,82.8534 2.50043,90.51256 9.34214,33.1028 31.48382,57.56264 62.28185,68.80253 6.77528,2.47267 19.43708,5.46489 24.73427,5.84517 0.97127,0.0697 1.25,-5.91299 1.25,-26.82989 z m 32.13248,23.91415 c 34.18566,-8.23591 63.17281,-36.66381 71.88133,-70.49452 3.5002,-13.59752 3.93376,-24.62707 3.96039,-100.75 L 449,50 h -27.53358 -27.53358 l 0.65449,75.25 c 0.5892,67.74339 0.49083,75.93801 -0.98612,82.14697 -3.91948,16.47725 -16.58019,30.8562 -30.88725,35.07912 l -4.21396,1.24381 -0.26596,27.07977 -0.26596,27.07977 3.76596,-0.52306 c 2.07128,-0.28769 7.20058,-1.35052 11.39844,-2.36186 z M 159,207.5 V 119 H 132.5 106 V 207.5 296 H 132.5 159 Z M 225,77 V 50 H 132 39 v 27 27 h 93 93 z m 366,421.41446 c -18.55354,-4.94473 -33.09874,-20.00983 -36.89492,-38.21368 -1.54501,-7.40883 -1.5655,-411.312711 -0.0213,-419.767121 3.45033,-18.890231 19.65776,-35.3543452 38.71543,-39.3285752 7.50359,-1.56477684 412.89799,-1.56477684 420.40159,0 13.8848,2.8954965 28.4344,14.0894012 34.2262,26.3322952 5.8966,12.464191 5.6247,0.93666 5.337,226.315611 L 1052.5,460.5 l -2.3808,6.36554 c -4.8431,12.94874 -17.3049,25.41058 -30.2537,30.25364 L 1013.5,499.5 805,499.69014 c -180.42432,0.16453 -209.24061,-0.007 -214,-1.27568 z m 239,-28.5359 c 48.41354,-5.26075 95.68948,-27.60196 131.81572,-62.29218 40.09908,-38.50519 64.89858,-89.24597 70.17758,-143.58638 0.7661,-7.88625 1.0213,-44.33797 0.8119,-116 L 1032.5,43.5 1030.1182,38.229889 C 1026.9175,31.147781 1018.56,23.540742 1011.7619,21.521936 1007.3857,20.222347 996.35994,20 936.292,20 869.50143,20 865.55675,19.900145 858.2235,18.023789 836.62442,12.497236 810.3279,10.226892 787.83912,11.947064 772.49013,13.121111 754.27008,15.983017 748,18.204776 c -2.61114,0.92524 -22.41994,1.374166 -78,1.767712 -73.5563,0.52083 -74.55889,0.554736 -79.14917,2.676678 -5.93107,2.741751 -11.83694,8.647626 -14.92792,14.927923 L 573.5,42.5 v 110 c 0,99.99087 0.15959,111.00464 1.75387,121.04093 10.62994,66.91746 45.82096,122.57856 100.74613,159.34861 45.30124,30.32725 98.25587,43.04634 154,36.98902 z m -53,-6.36952 c -14.16805,-1.71913 -25.28149,-4.0497 -38.83894,-8.1448 -19.9941,-6.03932 -32.21139,-12.80135 -45.18945,-25.01146 -7.22717,-6.79953 -17.38313,-18.2746 -16.74161,-18.91611 0.18383,-0.18383 4.59478,0.74153 9.80212,2.05636 18.78495,4.74312 30.2688,5.79837 55.96788,5.1429 12.925,-0.32966 25.12498,-0.87454 27.11108,-1.21084 l 3.61107,-0.61146 5.24564,9.84318 c 8.48784,15.92703 17.02307,27.09493 26.37201,34.50639 L 809.1796,465 798.3398,464.89155 C 792.37791,464.8319 782.775,464.20977 777,463.50904 Z m 43.92935,-0.86505 c -10.48889,-2.85417 -20.53417,-11.76125 -30.25069,-26.82307 -5.42576,-8.41062 -10.68056,-18.02665 -10.67661,-19.53768 10e-4,-0.43078 5.39009,-1.80059 11.97547,-3.04401 26.12905,-4.93357 59.38621,-16.0998 85.95379,-28.85936 11.43729,-5.49296 15.63256,-7.08554 16.20883,-6.15311 1.39755,2.26128 9.06989,22.0174 13.11592,33.77324 2.34998,6.82791 4.1701,14.21261 4.4801,18.17688 l 0.52211,6.67688 -10.87913,5.45296 c -17.65969,8.85157 -39.41327,15.98489 -58.25252,19.10184 -14.26269,2.35977 -17.41968,2.53548 -22.19727,1.23543 z m 97.03112,-36.33439 c -1.5823,-7.62192 -9.82119,-31.61072 -14.77029,-43.00601 l -3.9941,-9.19641 10.99852,-6.80359 c 23.84545,-14.75059 49.71792,-36.31891 66.7879,-55.67704 l 9.45583,-10.72335 1.36428,3.7984 c 2.97888,8.29371 5.17135,21.99115 5.18425,32.38844 0.0222,17.87293 -4.1395,30.05438 -14.83059,43.40996 C 970.40142,390.18755 955.95921,405.01352 947,412.48418 938.80908,419.31419 921.2203,432 919.94147,432 c -0.43982,0 -1.33127,-2.56068 -1.981,-5.6904 z m -244.8341,-3.101 c -9.26253,-6.62107 -23.29551,-18.66862 -30.62637,-26.29326 -5.29522,-5.50742 -5.11756,-5.5114 3.429,-0.077 2.98595,1.89866 8.45481,4.85363 12.15303,6.56661 6.03594,2.79579 7.30663,3.93215 12.41746,11.10476 3.13139,4.39464 7.08831,9.45276 8.79314,11.24026 1.70484,1.7875 2.83778,3.25 2.51766,3.25 -0.32013,0 -4.22789,-2.60613 -8.68392,-5.7914 z M 717.5,412.34364 c -13.47973,-1.60274 -20.50443,-2.84466 -30.0901,-5.31969 -18.40464,-4.75212 -17.70656,-4.24776 -23.87084,-17.24652 C 657.76109,377.59328 653.187,363.90402 649.99522,349.24362 647.59924,338.23846 645,316.9726 645,308.37482 c 0,-5.87751 -0.15327,-6.25435 -3.61901,-8.8978 l -3.61902,-2.76036 0.70049,12.39167 c 1.7357,30.70442 8.64488,61.44796 18.42356,81.97862 l 2.74282,5.75866 -5.06442,-2.56124 C 641.74149,387.7994 627.18691,375.84863 617.50001,363.85078 592.49149,332.87609 583.14677,285.4844 593.02607,239.73134 603.68386,190.37295 637.70134,139.19787 685,101.36802 c 10.35705,-8.283651 23.23863,-17.462721 23.7662,-16.935154 0.14898,0.14898 -3.05612,5.175031 -7.12243,11.169003 -11.00543,16.222601 -27.16676,44.619971 -29.1091,51.148131 -0.60028,2.01755 -0.32672,2.24831 2.64794,2.23366 3.24858,-0.016 3.46259,-0.29933 10.31739,-13.65897 9.47975,-18.47553 32.65782,-54.500199 34.12266,-53.035361 0.20462,0.204619 -0.0597,2.810728 -0.58733,5.791353 -1.50586,8.506327 -2.87763,26.683168 -3.62179,47.990898 l -0.68353,19.57157 3.635,2.1447 3.63499,2.1447 v -18.41181 c 0,-10.12649 0.47435,-24.17381 1.05412,-31.21627 1.01687,-12.351959 3.61206,-31.303982 4.39363,-32.085549 0.55885,-0.558859 32.90603,48.346639 41.02872,62.031079 6.92694,11.66995 6.99999,11.75 10.72305,11.75 h 3.74859 l -3.12146,-5.25 c -1.7168,-2.8875 -4.45714,-7.5 -6.08964,-10.25 -5.79313,-9.75875 -20.29927,-32.2019 -29.94436,-46.328389 C 732.27417,73.30131 731.52244,73.803169 755,82.689605 c 41.67789,15.775401 83.28272,40.507995 120.37249,71.557185 3.77988,3.16426 7.15488,5.7432 7.5,5.73097 0.34513,-0.0122 1.66438,-0.82004 2.93166,-1.79515 l 2.30416,-1.77291 -7.80416,-6.52871 C 841.74299,117.62192 800.11824,92.928831 756.62479,76.510543 c -7.63137,-2.880755 -13.48137,-5.479772 -13,-5.775594 0.48136,-0.295821 7.85021,-1.095344 16.37521,-1.776716 26.97649,-2.156134 58.36367,-0.03418 84,5.678871 65.36955,14.5676 123.11902,49.292106 154.60629,92.964096 8.69181,12.05532 20.52561,35.71606 21.15871,42.3053 1.3671,14.2269 -9.1077,43.90936 -23.38519,66.2673 -8.00225,12.53114 -7.14225,12.45053 -12.40703,1.16304 l -4.5786,-9.81635 -1.33055,4.75224 c -1.29702,4.6325 -1.23818,4.95428 2.33502,12.77118 2.24442,4.91 3.36233,8.55768 2.88345,9.4085 -0.43015,0.76426 -4.93672,6.09913 -10.01459,11.85527 -15.89916,18.02288 -36.89929,36.1218 -58.17961,50.14197 -6.92335,4.56132 -13.99108,9.00703 -15.70609,9.87935 l -3.11818,1.58603 -7.76179,-17.20751 C 878.73827,329.06216 861.71408,294.14349 859.63591,291.5 c -1.47414,-1.87514 -1.57406,-1.5942 -1.60037,4.5 -0.0205,4.75615 0.50338,7.37163 1.95282,9.74888 1.99481,3.27172 9.44024,18.92845 23.34802,49.09771 l 7.53565,16.34658 -14.18602,6.83739 c -30.07701,14.49656 -63.71923,25.3216 -97.31495,31.31301 -3.11356,0.55526 -3.15196,0.5084 -7.81189,-9.53153 -14.31007,-30.83143 -23.09067,-58.6417 -33.16069,-105.0278 l -2.76049,-12.71577 -2.31899,3.41271 c -1.27545,1.87699 -2.319,4.05822 -2.319,4.84718 0,2.68546 9.20264,41.12163 13.13978,54.88021 5.654,19.75826 13.38284,40.07984 22.84998,60.07989 1.24666,2.63365 2.08612,4.96899 1.86548,5.18964 -1.72192,1.72192 -40.66524,3.13658 -51.35524,1.86554 z m -19,-113.86441 c 8.96284,-2.30428 15.96687,-6.22227 21.40796,-11.97543 C 729.94718,275.8888 732,268.46767 732,242.7899 V 224 H 704.5 677 v 12 12 h 14 14 v 6.53212 c 0,14.21556 -6.61368,21.07366 -21.38069,22.17084 -9.14751,0.67966 -14.67009,-0.85348 -19.8362,-5.50677 -7.77206,-7.00055 -8.23893,-9.11271 -8.60665,-38.93732 -0.26427,-21.43454 -0.0402,-27.21591 1.22353,-31.56283 3.01734,-10.3793 8.52049,-15.70734 18.32611,-17.74298 13.80643,-2.8662 26.98817,4.56348 28.91402,16.29694 l 0.6155,3.75 H 718.12781 732 l -0.0148,-3.25 c -0.0213,-4.67319 -2.65694,-15.19271 -4.89366,-19.53148 -5.1155,-9.92303 -15.18621,-17.07171 -27.82175,-19.74924 -9.06092,-1.92005 -27.59476,-1.87419 -36.2291,0.0897 -18.03692,4.10241 -29.86069,17.29945 -33.69012,37.60305 -2.25169,11.9384 -1.4707,60.87102 1.09869,68.83802 6.28283,19.48145 17.61694,29.29399 38.12572,33.0075 6.58928,1.19311 22.50046,0.38053 29.925,-1.52827 z m 240,0.18883 c 16.42698,-4.49124 26.29712,-14.53965 31.17634,-31.73946 1.58046,-5.57128 1.82144,-10.36272 1.80701,-35.9286 -0.0181,-31.99262 -0.65626,-37.14788 -5.9963,-48.43579 -5.4119,-11.43981 -16.84291,-19.99169 -30.20757,-22.59918 -9.31738,-1.81785 -28.37609,-0.81677 -35.18972,1.84838 -13.81143,5.40234 -22.99462,15.164 -27.77606,29.52577 -2.65994,7.98951 -2.72486,8.76983 -3.09252,37.17221 -0.41347,31.94158 0.20561,37.34366 5.52921,48.24828 5.62488,11.52171 17.65247,19.99048 32.37014,22.79219 8.53503,1.62476 23.77413,1.19555 31.37947,-0.8838 z m -28,-23.1108 c -5.72381,-2.11062 -11.05785,-8.2285 -13.00048,-14.9109 -1.35401,-4.65764 -1.56477,-10.11638 -1.30693,-33.84976 0.30498,-28.07317 0.32715,-28.33143 2.80741,-32.70721 3.78246,-6.67317 8.53795,-9.98861 16.13214,-11.247 9.78634,-1.62165 16.91,0.14711 22.29981,5.53693 6.56857,6.56857 7.06805,9.54514 7.06805,42.12068 v 28 l -3,6 c -4.37384,8.74769 -9.0615,11.7193 -19.21266,12.17933 -5.18689,0.23507 -9.12307,-0.13963 -11.78734,-1.12207 z M 849,287 V 276 H 816.5 784 V 257.5 239 H 811.5 839 V 228 217 H 811.5 784 V 200.5 184 H 816.5 849 V 172.5 161 h -46 -46 v 68.5 68.5 h 46 46 z m 150.70207,56.41718 c 0.79373,-8.81192 -1.38064,-25.1285 -5.04951,-37.89211 l -3.18924,-11.09507 4.24575,-5.965 c 10.55143,-14.824 19.86313,-32.85194 24.88143,-48.17144 1.8752,-5.72453 3.4095,-11.28244 3.4095,-12.3509 0,-1.06846 0.4176,-1.94266 0.928,-1.94266 2.7406,0 2.447,26.39135 -0.5229,47 -3.2125,22.29241 -10.0101,44.6708 -19.7444,65 l -5.50652,11.5 z M 580.70814,263.59912 c -2.51064,-28.01177 0.76711,-63.14839 7.85025,-84.15263 2.44153,-7.24008 14.63342,-31.35663 19.53913,-38.64998 C 620.76502,121.96365 640.56877,106.11016 668.5,92.442562 680.06557,86.783175 707.05847,76.537056 704.49676,78.778708 703.94854,79.25843 698.775,83.054545 693,87.214521 641.01641,124.66049 601.56439,178.75202 588.12912,231 c -2.79983,10.88819 -4.248,19.14601 -5.96256,34 l -0.75028,6.5 z M 1016.4807,184.19069 C 991.63014,136.59533 940.27868,97.76443 873.42415,76.014305 838.79813,64.749246 802.57647,60.078301 765.77914,62.133 c -8.84483,0.49388 -16.24972,0.729758 -16.4553,0.524173 -0.59315,-0.593155 17.38652,-7.255239 28.45342,-10.542962 44.13456,-13.111377 91.15063,-13.480065 128.3851,-1.006764 22.5947,7.569079 40.88916,18.826825 57.4139,35.330449 22.06257,22.034364 38.74214,48.636564 50.19904,80.062104 3.7365,10.24896 6.8685,22.18958 6.038,23.02 -0.1987,0.19876 -1.6984,-2.19943 -3.3326,-5.32931 z M 616.48311,118.5 c 2.93415,-4.75502 13.40028,-18.40932 19.46501,-25.394381 9.91538,-11.420051 26.94775,-20.586992 42.74343,-23.004817 7.99068,-1.223122 20.7061,-1.358808 26.75151,-0.285465 l 3.94305,0.700078 -8.44305,2.406011 c -29.06763,8.283375 -62.05085,26.286532 -82.3771,44.963704 -3.86087,3.54764 -3.89961,3.55908 -2.08285,0.61487 z M 666,65.048867 c 3.46149,-2.959306 15.12397,-10.926455 23.45701,-16.024502 l 6.95701,-4.25621 3.45222,1.859147 C 702.61082,48.105354 717,62.987297 717,64.347811 c 0,0.184315 -2.1375,-0.01672 -4.75,-0.446735 -12.31795,-2.027545 -37.17675,-0.641554 -46.75,2.606524 -1.65369,0.561074 -1.56711,0.308485 0.5,-1.458733 z m 52.08039,-9.542807 c -2.91037,-3.587087 -7.32996,-8.316241 -9.82133,-10.50923 l -4.52976,-3.987254 7.73558,-3.525216 c 8.11514,-3.698188 27.59947,-10.753339 28.15725,-10.195559 0.17869,0.17869 -0.7672,1.932048 -2.10198,3.896352 -3.92432,5.775168 -8.2196,14.807308 -10.61192,22.314847 -1.22683,3.85 -2.52437,7.343809 -2.88343,7.764019 -0.35906,0.42021 -3.03405,-2.170871 -5.94441,-5.757959 z M 743,56.958686 c 27.08452,-22.436345 49.36507,-32.982413 75.98976,-35.968292 5.21936,-0.585336 12.64436,-0.777231 16.5,-0.426434 17.87141,1.625997 43.95226,9.417887 62.31994,18.618643 6.42966,3.220754 10.7903,5.591154 9.6903,5.267554 C 899.26401,42.027278 884.79761,38.796719 876,37.415744 863.10319,35.39131 833.60088,35.120901 819.66521,36.899395 796.3355,39.876773 768.65603,47.166838 748.60484,55.614883 742.35048,58.24999 741.0708,58.556804 743,56.958686 Z m -8.61374,-5.252732 c 3.36509,-8.940218 5.87247,-13.588583 10.46128,-19.393863 4.76472,-6.02782 8.98701,-8.811244 15.68467,-10.339665 6.77193,-1.54537 26.84157,-3.914262 32.96779,-3.891307 l 5,0.01874 -9.24803,3.358275 c -16.75841,6.085551 -31.71108,15.095191 -48.50199,29.224562 l -8.75001,7.363047 2.38629,-6.339785 z"
         id="path12642" />
      <path
         style="fill:#3889b0"
         d="M 38.347877,498.58019 C 20.039689,494.13929 5.0266787,478.66144 1.1211119,460.20078 -0.47268296,452.6673 -0.47268296,47.332699 1.1211119,39.799221 3.171105,30.109406 7.4354172,22.357686 14.727201,15.065903 18.458978,11.334126 23.863373,7.089449 26.736968,5.6332883 38.410157,-0.28196401 25.994711,0.03089515 249.70078,0.01478109 c 145.99851,-0.01051661 206.72965,0.30404554 210.5,1.09030271 18.56542,3.8715777 34.33232,19.7598922 38.32994,38.6251092 2.15065,10.14915 2.15065,410.390467 0,420.539617 -3.91839,18.4913 -18.36805,33.41273 -36.99082,38.19853 -5.26368,1.35269 -30.03525,1.52172 -212,1.44661 -161.153372,-0.0665 -207.162308,-0.3573 -211.192023,-1.33476 z m 50.029625,-75.77935 8.08839,-26.69916 1.275999,4.19916 C 98.44369,402.61038 102.07557,414.625 105.81273,427 l 6.79485,22.5 7.07089,0.29128 7.0709,0.29128 3.0609,-11.29128 c 1.68349,-6.2102 4.86381,-18.04128 7.06739,-26.29128 2.20357,-8.25 6.05756,-22.54404 8.56442,-31.76453 C 147.94893,371.51498 150,363.50996 150,362.94654 c 0,-0.64296 -3.24596,-0.91682 -8.71729,-0.73547 l -8.71729,0.28893 -6.53271,26.20177 c -3.59299,14.41097 -6.77735,26.43061 -7.07635,26.71031 -0.42695,0.39938 -8.50622,-26.36197 -15.14396,-50.16208 -0.90233,-3.2354 -0.93528,-3.25 -7.331469,-3.25 H 90.05587 l -1.671918,5.75 c -0.919554,3.1625 -4.489354,15.425 -7.932888,27.25 -3.443534,11.825 -6.531822,20.825 -6.862862,20 -0.331041,-0.825 -3.424966,-12.975 -6.87539,-27 l -6.273498,-25.5 -8.838271,-0.29066 -8.838271,-0.29067 0.682634,2.79067 c 0.658595,2.69239 21.270693,79.94083 22.302046,83.5819 0.436469,1.5409 1.488069,1.75053 7.52452,1.5 L 80.289113,449.5 Z M 209,405 v -44 h -8.5 -8.5 v 44 44 h 8.5 8.5 z m 117,36 v -8 H 305.5 285 V 422.5 412 H 302.5 320 V 404.5 397 H 302.5 285 V 386.5 376 h 20.5 20.5 v -7.5 -7.5 h -29 -29 v 44 44 h 29 29 z m 73.23367,-18.6595 0.26633,-26.6595 17.02597,26.4095 17.02597,26.4095 7.72403,0.29206 L 449,449.08413 V 405.04206 361 h -8.48367 -8.48366 L 431.76633,387.7047 431.5,414.40939 421,398.18856 c -5.775,-8.92146 -13.56906,-20.93857 -17.32012,-26.70469 L 396.85975,361 H 389.42988 382 v 44 44 h 8.48367 8.48366 z M 341,271.08037 v -26.91964 l -5.25,-1.69656 C 321.38903,237.82334 309.48358,224.90888 305.36135,209.5 c -1.06161,-3.96829 -1.34006,-20.93988 -1.34948,-82.25 L 304,50 h -27.03814 -27.03814 l 0.30973,82.75 c 0.30559,81.64772 0.3389,82.8534 2.50043,90.51256 9.34214,33.1028 31.48382,57.56264 62.28185,68.80253 6.77528,2.47267 19.43708,5.46489 24.73427,5.84517 0.97127,0.0697 1.25,-5.91299 1.25,-26.82989 z m 32.13248,23.91415 c 34.18566,-8.23591 63.17281,-36.66381 71.88133,-70.49452 3.5002,-13.59752 3.93376,-24.62707 3.96039,-100.75 L 449,50 h -27.53358 -27.53358 l 0.65449,75.25 c 0.5892,67.74339 0.49083,75.93801 -0.98612,82.14697 -3.91948,16.47725 -16.58019,30.8562 -30.88725,35.07912 l -4.21396,1.24381 -0.26596,27.07977 -0.26596,27.07977 3.76596,-0.52306 c 2.07128,-0.28769 7.20058,-1.35052 11.39844,-2.36186 z M 159,207.5 V 119 H 132.5 106 V 207.5 296 H 132.5 159 Z M 225,77 V 50 H 132 39 v 27 27 h 93 93 z m 366,421.41446 c -18.55354,-4.94473 -33.09874,-20.00983 -36.89492,-38.21368 -1.54501,-7.40883 -1.5655,-411.312711 -0.0213,-419.767121 3.45033,-18.890231 19.65776,-35.3543452 38.71543,-39.3285752 7.50359,-1.56477684 412.89799,-1.56477684 420.40159,0 13.8848,2.8954965 28.4344,14.0894012 34.2262,26.3322952 5.8966,12.464191 5.6247,0.93666 5.337,226.315611 L 1052.5,460.5 l -2.3808,6.36554 c -4.8431,12.94874 -17.3049,25.41058 -30.2537,30.25364 L 1013.5,499.5 805,499.69014 c -180.42432,0.16453 -209.24061,-0.007 -214,-1.27568 z m 239,-28.5359 c 48.41354,-5.26075 95.68948,-27.60196 131.81572,-62.29218 40.09908,-38.50519 64.89858,-89.24597 70.17758,-143.58638 0.7661,-7.88625 1.0213,-44.33797 0.8119,-116 L 1032.5,43.5 1030.1182,38.229889 C 1026.9175,31.147781 1018.56,23.540742 1011.7619,21.521936 1007.3857,20.222347 996.35994,20 936.292,20 869.50143,20 865.55675,19.900145 858.2235,18.023789 836.62442,12.497236 810.3279,10.226892 787.83912,11.947064 772.49013,13.121111 754.27008,15.983017 748,18.204776 c -2.61114,0.92524 -22.41994,1.374166 -78,1.767712 -73.5563,0.52083 -74.55889,0.554736 -79.14917,2.676678 -5.93107,2.741751 -11.83694,8.647626 -14.92792,14.927923 L 573.5,42.5 v 110 c 0,99.99087 0.15959,111.00464 1.75387,121.04093 10.62994,66.91746 45.82096,122.57856 100.74613,159.34861 45.30124,30.32725 98.25587,43.04634 154,36.98902 z m -53,-6.36952 c -14.16805,-1.71913 -25.28149,-4.0497 -38.83894,-8.1448 -19.9941,-6.03932 -32.21139,-12.80135 -45.18945,-25.01146 -7.22717,-6.79953 -17.38313,-18.2746 -16.74161,-18.91611 0.18383,-0.18383 4.59478,0.74153 9.80212,2.05636 18.78495,4.74312 30.2688,5.79837 55.96788,5.1429 12.925,-0.32966 25.12498,-0.87454 27.11108,-1.21084 l 3.61107,-0.61146 5.24564,9.84318 c 8.48784,15.92703 17.02307,27.09493 26.37201,34.50639 L 809.1796,465 798.3398,464.89155 C 792.37791,464.8319 782.775,464.20977 777,463.50904 Z m 43.87982,-0.88894 c -8.62571,-2.32437 -17.75117,-9.59398 -26.21019,-20.87981 -5.48158,-7.3134 -15.05805,-24.76736 -14.05929,-25.6243 0.48931,-0.41983 5.16466,-1.54859 10.38966,-2.50835 27.51826,-5.05471 61.49378,-16.64006 91.37018,-31.1564 l 11.05174,-5.36981 2.40327,5.20928 c 3.36975,7.3042 11.92171,30.84326 14.23781,39.18919 1.06535,3.83895 1.937,8.927 1.937,11.30679 v 4.32688 l -12.25,5.88184 c -15.60607,7.49325 -35.79229,14.2626 -51.75,17.35411 -17.19186,3.3306 -21.76547,3.71352 -27.12018,2.27058 z m 97.08065,-36.3105 c -1.5823,-7.62192 -9.82119,-31.61072 -14.77029,-43.00601 l -3.9941,-9.19641 10.99852,-6.80359 c 23.84545,-14.75059 49.71792,-36.31891 66.7879,-55.67704 l 9.45583,-10.72335 1.36428,3.7984 c 2.97888,8.29371 5.17135,21.99115 5.18425,32.38844 0.0222,17.87293 -4.1395,30.05438 -14.83059,43.40996 C 970.40142,390.18755 955.95921,405.01352 947,412.48418 938.80908,419.31419 921.2203,432 919.94147,432 c -0.43982,0 -1.33127,-2.56068 -1.981,-5.6904 z m -244.8341,-3.101 c -9.26253,-6.62107 -23.29551,-18.66862 -30.62637,-26.29326 -5.29522,-5.50742 -5.11756,-5.5114 3.429,-0.077 2.98595,1.89866 8.45481,4.85363 12.15303,6.56661 6.03594,2.79579 7.30663,3.93215 12.41746,11.10476 3.13139,4.39464 7.08831,9.45276 8.79314,11.24026 1.70484,1.7875 2.83778,3.25 2.51766,3.25 -0.32013,0 -4.22789,-2.60613 -8.68392,-5.7914 z M 717.5,412.34364 c -13.47973,-1.60274 -20.50443,-2.84466 -30.0901,-5.31969 -18.40464,-4.75212 -17.70656,-4.24776 -23.87084,-17.24652 C 657.76109,377.59328 653.187,363.90402 649.99522,349.24362 647.59924,338.23846 645,316.9726 645,308.37482 c 0,-5.87751 -0.15327,-6.25435 -3.61901,-8.8978 l -3.61902,-2.76036 0.70049,12.39167 c 1.7357,30.70442 8.64488,61.44796 18.42356,81.97862 l 2.74282,5.75866 -5.06442,-2.56124 C 641.74149,387.7994 627.18691,375.84863 617.50001,363.85078 592.49149,332.87609 583.14677,285.4844 593.02607,239.73134 603.68386,190.37295 637.70134,139.19787 685,101.36802 c 10.35705,-8.283651 23.23863,-17.462721 23.7662,-16.935154 0.14898,0.14898 -3.05612,5.175031 -7.12243,11.169003 -11.00543,16.222601 -27.16676,44.619971 -29.1091,51.148131 -0.60028,2.01755 -0.32672,2.24831 2.64794,2.23366 3.24858,-0.016 3.46259,-0.29933 10.31739,-13.65897 9.47975,-18.47553 32.65782,-54.500199 34.12266,-53.035361 0.20462,0.204619 -0.0597,2.810728 -0.58733,5.791353 -1.50586,8.506327 -2.87763,26.683168 -3.62179,47.990898 l -0.68353,19.57157 3.635,2.1447 3.63499,2.1447 v -18.41181 c 0,-10.12649 0.47435,-24.17381 1.05412,-31.21627 1.01687,-12.351959 3.61206,-31.303982 4.39363,-32.085549 0.55885,-0.558859 32.90603,48.346639 41.02872,62.031079 6.92694,11.66995 6.99999,11.75 10.72305,11.75 h 3.74859 l -3.12146,-5.25 c -1.7168,-2.8875 -4.45714,-7.5 -6.08964,-10.25 -5.79313,-9.75875 -20.29927,-32.2019 -29.94436,-46.328389 C 732.27417,73.30131 731.52244,73.803169 755,82.689605 c 41.67789,15.775401 83.28272,40.507995 120.37249,71.557185 3.77988,3.16426 7.15488,5.7432 7.5,5.73097 0.34513,-0.0122 1.66438,-0.82004 2.93166,-1.79515 l 2.30416,-1.77291 -7.80416,-6.52871 C 841.74299,117.62192 800.11824,92.928831 756.62479,76.510543 c -7.63137,-2.880755 -13.48137,-5.479772 -13,-5.775594 0.48136,-0.295821 7.85021,-1.095344 16.37521,-1.776716 26.97649,-2.156134 58.36367,-0.03418 84,5.678871 65.36955,14.5676 123.11902,49.292106 154.60629,92.964096 8.69181,12.05532 20.52561,35.71606 21.15871,42.3053 1.3671,14.2269 -9.1077,43.90936 -23.38519,66.2673 -8.00225,12.53114 -7.14225,12.45053 -12.40703,1.16304 l -4.5786,-9.81635 -1.33055,4.75224 c -1.29702,4.6325 -1.23818,4.95428 2.33502,12.77118 2.24442,4.91 3.36233,8.55768 2.88345,9.4085 -0.43015,0.76426 -4.93672,6.09913 -10.01459,11.85527 -15.89916,18.02288 -36.89929,36.1218 -58.17961,50.14197 -6.92335,4.56132 -13.99108,9.00703 -15.70609,9.87935 l -3.11818,1.58603 -7.76179,-17.20751 C 878.73827,329.06216 861.71408,294.14349 859.63591,291.5 c -1.47414,-1.87514 -1.57406,-1.5942 -1.60037,4.5 -0.0205,4.75615 0.50338,7.37163 1.95282,9.74888 1.99481,3.27172 9.44024,18.92845 23.34802,49.09771 l 7.53565,16.34658 -14.18602,6.83739 c -30.07701,14.49656 -63.71923,25.3216 -97.31495,31.31301 -3.11356,0.55526 -3.15196,0.5084 -7.81189,-9.53153 -14.31007,-30.83143 -23.09067,-58.6417 -33.16069,-105.0278 l -2.76049,-12.71577 -2.31899,3.41271 c -1.27545,1.87699 -2.319,4.05822 -2.319,4.84718 0,2.68546 9.20264,41.12163 13.13978,54.88021 5.654,19.75826 13.38284,40.07984 22.84998,60.07989 1.24666,2.63365 2.08612,4.96899 1.86548,5.18964 -1.72192,1.72192 -40.66524,3.13658 -51.35524,1.86554 z m -19,-113.86441 c 8.96284,-2.30428 15.96687,-6.22227 21.40796,-11.97543 C 729.94718,275.8888 732,268.46767 732,242.7899 V 224 H 704.5 677 v 12 12 h 14 14 v 6.53212 c 0,14.21556 -6.61368,21.07366 -21.38069,22.17084 -9.14751,0.67966 -14.67009,-0.85348 -19.8362,-5.50677 -7.77206,-7.00055 -8.23893,-9.11271 -8.60665,-38.93732 -0.26427,-21.43454 -0.0402,-27.21591 1.22353,-31.56283 3.01734,-10.3793 8.52049,-15.70734 18.32611,-17.74298 13.80643,-2.8662 26.98817,4.56348 28.91402,16.29694 l 0.6155,3.75 H 718.12781 732 l -0.0148,-3.25 c -0.0213,-4.67319 -2.65694,-15.19271 -4.89366,-19.53148 -5.1155,-9.92303 -15.18621,-17.07171 -27.82175,-19.74924 -9.06092,-1.92005 -27.59476,-1.87419 -36.2291,0.0897 -18.03692,4.10241 -29.86069,17.29945 -33.69012,37.60305 -2.25169,11.9384 -1.4707,60.87102 1.09869,68.83802 6.28283,19.48145 17.61694,29.29399 38.12572,33.0075 6.58928,1.19311 22.50046,0.38053 29.925,-1.52827 z m 240,0.18883 c 16.42698,-4.49124 26.29712,-14.53965 31.17634,-31.73946 1.58046,-5.57128 1.82144,-10.36272 1.80701,-35.9286 -0.0181,-31.99262 -0.65626,-37.14788 -5.9963,-48.43579 -5.4119,-11.43981 -16.84291,-19.99169 -30.20757,-22.59918 -9.31738,-1.81785 -28.37609,-0.81677 -35.18972,1.84838 -13.81143,5.40234 -22.99462,15.164 -27.77606,29.52577 -2.65994,7.98951 -2.72486,8.76983 -3.09252,37.17221 -0.41347,31.94158 0.20561,37.34366 5.52921,48.24828 5.62488,11.52171 17.65247,19.99048 32.37014,22.79219 8.53503,1.62476 23.77413,1.19555 31.37947,-0.8838 z m -28,-23.1108 c -5.72381,-2.11062 -11.05785,-8.2285 -13.00048,-14.9109 -1.35401,-4.65764 -1.56477,-10.11638 -1.30693,-33.84976 0.30498,-28.07317 0.32715,-28.33143 2.80741,-32.70721 3.78246,-6.67317 8.53795,-9.98861 16.13214,-11.247 9.78634,-1.62165 16.91,0.14711 22.29981,5.53693 6.56857,6.56857 7.06805,9.54514 7.06805,42.12068 v 28 l -3,6 c -4.37384,8.74769 -9.0615,11.7193 -19.21266,12.17933 -5.18689,0.23507 -9.12307,-0.13963 -11.78734,-1.12207 z M 849,287 V 276 H 816.5 784 V 257.5 239 H 811.5 839 V 228 217 H 811.5 784 V 200.5 184 H 816.5 849 V 172.5 161 h -46 -46 v 68.5 68.5 h 46 46 z m 150.70207,56.41718 c 0.79373,-8.81192 -1.38064,-25.1285 -5.04951,-37.89211 l -3.18924,-11.09507 4.24575,-5.965 c 10.55143,-14.824 19.86313,-32.85194 24.88143,-48.17144 1.8752,-5.72453 3.4095,-11.28244 3.4095,-12.3509 0,-1.06846 0.4176,-1.94266 0.928,-1.94266 2.7406,0 2.447,26.39135 -0.5229,47 -3.2125,22.29241 -10.0101,44.6708 -19.7444,65 l -5.50652,11.5 z M 580.70814,263.59912 c -2.51064,-28.01177 0.76711,-63.14839 7.85025,-84.15263 2.44153,-7.24008 14.63342,-31.35663 19.53913,-38.64998 C 620.76502,121.96365 640.56877,106.11016 668.5,92.442562 680.06557,86.783175 707.05847,76.537056 704.49676,78.778708 703.94854,79.25843 698.775,83.054545 693,87.214521 641.01641,124.66049 601.56439,178.75202 588.12912,231 c -2.79983,10.88819 -4.248,19.14601 -5.96256,34 l -0.75028,6.5 z M 1016.4807,184.19069 C 991.63014,136.59533 940.27868,97.76443 873.42415,76.014305 838.79813,64.749246 802.57647,60.078301 765.77914,62.133 c -8.84483,0.49388 -16.24972,0.729758 -16.4553,0.524173 -0.59315,-0.593155 17.38652,-7.255239 28.45342,-10.542962 44.13456,-13.111377 91.15063,-13.480065 128.3851,-1.006764 22.5947,7.569079 40.88916,18.826825 57.4139,35.330449 22.06257,22.034364 38.74214,48.636564 50.19904,80.062104 3.7365,10.24896 6.8685,22.18958 6.038,23.02 -0.1987,0.19876 -1.6984,-2.19943 -3.3326,-5.32931 z M 616.48311,118.5 c 2.93415,-4.75502 13.40028,-18.40932 19.46501,-25.394381 9.91538,-11.420051 26.94775,-20.586992 42.74343,-23.004817 7.99068,-1.223122 20.7061,-1.358808 26.75151,-0.285465 l 3.94305,0.700078 -8.44305,2.406011 c -29.06763,8.283375 -62.05085,26.286532 -82.3771,44.963704 -3.86087,3.54764 -3.89961,3.55908 -2.08285,0.61487 z M 666,65.048867 c 3.46149,-2.959306 15.12397,-10.926455 23.45701,-16.024502 l 6.95701,-4.25621 3.45222,1.859147 C 702.61082,48.105354 717,62.987297 717,64.347811 c 0,0.184315 -2.1375,-0.01672 -4.75,-0.446735 -12.31795,-2.027545 -37.17675,-0.641554 -46.75,2.606524 -1.65369,0.561074 -1.56711,0.308485 0.5,-1.458733 z m 52.08039,-9.542807 c -2.91037,-3.587087 -7.32996,-8.316241 -9.82133,-10.50923 l -4.52976,-3.987254 7.73558,-3.525216 c 8.11514,-3.698188 27.59947,-10.753339 28.15725,-10.195559 0.17869,0.17869 -0.7672,1.932048 -2.10198,3.896352 -3.92432,5.775168 -8.2196,14.807308 -10.61192,22.314847 -1.22683,3.85 -2.52437,7.343809 -2.88343,7.764019 -0.35906,0.42021 -3.03405,-2.170871 -5.94441,-5.757959 z M 743,56.958686 c 27.08452,-22.436345 49.36507,-32.982413 75.98976,-35.968292 5.21936,-0.585336 12.64436,-0.777231 16.5,-0.426434 17.87141,1.625997 43.95226,9.417887 62.31994,18.618643 6.42966,3.220754 10.7903,5.591154 9.6903,5.267554 C 899.26401,42.027278 884.79761,38.796719 876,37.415744 863.10319,35.39131 833.60088,35.120901 819.66521,36.899395 796.3355,39.876773 768.65603,47.166838 748.60484,55.614883 742.35048,58.24999 741.0708,58.556804 743,56.958686 Z m -8.61374,-5.252732 c 3.36509,-8.940218 5.87247,-13.588583 10.46128,-19.393863 4.76472,-6.02782 8.98701,-8.811244 15.68467,-10.339665 6.77193,-1.54537 26.84157,-3.914262 32.96779,-3.891307 l 5,0.01874 -9.24803,3.358275 c -16.75841,6.085551 -31.71108,15.095191 -48.50199,29.224562 l -8.75001,7.363047 2.38629,-6.339785 z"
         id="path12640" />
      <path
         style="fill:#2f81ac"
         d="M 38.347877,498.58019 C 20.039689,494.13929 5.0266787,478.66144 1.1211119,460.20078 -0.47268296,452.6673 -0.47268296,47.332699 1.1211119,39.799221 3.171105,30.109406 7.4354172,22.357686 14.727201,15.065903 18.458978,11.334126 23.863373,7.089449 26.736968,5.6332883 38.410157,-0.28196401 25.994711,0.03089515 249.70078,0.01478109 c 145.99851,-0.01051661 206.72965,0.30404554 210.5,1.09030271 18.56542,3.8715777 34.33232,19.7598922 38.32994,38.6251092 2.15065,10.14915 2.15065,410.390467 0,420.539617 -3.91839,18.4913 -18.36805,33.41273 -36.99082,38.19853 -5.26368,1.35269 -30.03525,1.52172 -212,1.44661 -161.153372,-0.0665 -207.162308,-0.3573 -211.192023,-1.33476 z m 50.029625,-75.77935 8.08839,-26.69916 1.275999,4.19916 C 98.44369,402.61038 102.07557,414.625 105.81273,427 l 6.79485,22.5 7.07089,0.29128 7.0709,0.29128 3.0609,-11.29128 c 1.68349,-6.2102 4.86381,-18.04128 7.06739,-26.29128 2.20357,-8.25 6.05756,-22.54404 8.56442,-31.76453 C 147.94893,371.51498 150,363.50996 150,362.94654 c 0,-0.64296 -3.24596,-0.91682 -8.71729,-0.73547 l -8.71729,0.28893 -6.53271,26.20177 c -3.59299,14.41097 -6.77735,26.43061 -7.07635,26.71031 -0.42695,0.39938 -8.50622,-26.36197 -15.14396,-50.16208 -0.90233,-3.2354 -0.93528,-3.25 -7.331469,-3.25 H 90.05587 l -1.671918,5.75 c -0.919554,3.1625 -4.489354,15.425 -7.932888,27.25 -3.443534,11.825 -6.531822,20.825 -6.862862,20 -0.331041,-0.825 -3.424966,-12.975 -6.87539,-27 l -6.273498,-25.5 -8.838271,-0.29066 -8.838271,-0.29067 0.682634,2.79067 c 0.658595,2.69239 21.270693,79.94083 22.302046,83.5819 0.436469,1.5409 1.488069,1.75053 7.52452,1.5 L 80.289113,449.5 Z M 209,405 v -44 h -8.5 -8.5 v 44 44 h 8.5 8.5 z m 117,36 v -8 H 305.5 285 V 422.5 412 H 302.5 320 V 404.5 397 H 302.5 285 V 386.5 376 h 20.5 20.5 v -7.5 -7.5 h -29 -29 v 44 44 h 29 29 z m 73.23367,-18.6595 0.26633,-26.6595 17.02597,26.4095 17.02597,26.4095 7.72403,0.29206 L 449,449.08413 V 405.04206 361 h -8.48367 -8.48366 L 431.76633,387.7047 431.5,414.40939 421,398.18856 c -5.775,-8.92146 -13.56906,-20.93857 -17.32012,-26.70469 L 396.85975,361 H 389.42988 382 v 44 44 h 8.48367 8.48366 z M 341,271.08037 v -26.91964 l -5.25,-1.69656 C 321.38903,237.82334 309.48358,224.90888 305.36135,209.5 c -1.06161,-3.96829 -1.34006,-20.93988 -1.34948,-82.25 L 304,50 h -27.03814 -27.03814 l 0.30973,82.75 c 0.30559,81.64772 0.3389,82.8534 2.50043,90.51256 9.34214,33.1028 31.48382,57.56264 62.28185,68.80253 6.77528,2.47267 19.43708,5.46489 24.73427,5.84517 0.97127,0.0697 1.25,-5.91299 1.25,-26.82989 z m 32.13248,23.91415 c 34.18566,-8.23591 63.17281,-36.66381 71.88133,-70.49452 3.5002,-13.59752 3.93376,-24.62707 3.96039,-100.75 L 449,50 h -27.53358 -27.53358 l 0.65449,75.25 c 0.5892,67.74339 0.49083,75.93801 -0.98612,82.14697 -3.91948,16.47725 -16.58019,30.8562 -30.88725,35.07912 l -4.21396,1.24381 -0.26596,27.07977 -0.26596,27.07977 3.76596,-0.52306 c 2.07128,-0.28769 7.20058,-1.35052 11.39844,-2.36186 z M 159,207.5 V 119 H 132.5 106 V 207.5 296 H 132.5 159 Z M 225,77 V 50 H 132 39 v 27 27 h 93 93 z m 366,421.41446 c -18.55354,-4.94473 -33.09874,-20.00983 -36.89492,-38.21368 -1.54501,-7.40883 -1.5655,-411.312711 -0.0213,-419.767121 3.45033,-18.890231 19.65776,-35.3543452 38.71543,-39.3285752 7.50359,-1.56477684 412.89799,-1.56477684 420.40159,0 13.8848,2.8954965 28.4344,14.0894012 34.2262,26.3322952 5.8966,12.464191 5.6247,0.93666 5.337,226.315611 L 1052.5,460.5 l -2.3808,6.36554 c -4.8431,12.94874 -17.3049,25.41058 -30.2537,30.25364 L 1013.5,499.5 805,499.69014 c -180.42432,0.16453 -209.24061,-0.007 -214,-1.27568 z m 239,-28.5359 c 48.41354,-5.26075 95.68948,-27.60196 131.81572,-62.29218 40.09908,-38.50519 64.89858,-89.24597 70.17758,-143.58638 0.7661,-7.88625 1.0213,-44.33797 0.8119,-116 L 1032.5,43.5 1030.1182,38.229889 C 1026.9175,31.147781 1018.56,23.540742 1011.7619,21.521936 1007.3857,20.222347 996.35994,20 936.292,20 869.50143,20 865.55675,19.900145 858.2235,18.023789 836.62442,12.497236 810.3279,10.226892 787.83912,11.947064 772.49013,13.121111 754.27008,15.983017 748,18.204776 c -2.61114,0.92524 -22.41994,1.374166 -78,1.767712 -73.5563,0.52083 -74.55889,0.554736 -79.14917,2.676678 -5.93107,2.741751 -11.83694,8.647626 -14.92792,14.927923 L 573.5,42.5 v 110 c 0,99.99087 0.15959,111.00464 1.75387,121.04093 10.62994,66.91746 45.82096,122.57856 100.74613,159.34861 45.30124,30.32725 98.25587,43.04634 154,36.98902 z m -53,-6.36952 c -14.16805,-1.71913 -25.28149,-4.0497 -38.83894,-8.1448 -19.9941,-6.03932 -32.21139,-12.80135 -45.18945,-25.01146 -7.22717,-6.79953 -17.38313,-18.2746 -16.74161,-18.91611 0.18383,-0.18383 4.59478,0.74153 9.80212,2.05636 18.78495,4.74312 30.2688,5.79837 55.96788,5.1429 12.925,-0.32966 25.12498,-0.87454 27.11108,-1.21084 l 3.61107,-0.61146 5.24564,9.84318 c 8.48784,15.92703 17.02307,27.09493 26.37201,34.50639 L 809.1796,465 798.3398,464.89155 C 792.37791,464.8319 782.775,464.20977 777,463.50904 Z m 42.90894,-1.39375 c -12.859,-4.14102 -23.6102,-15.4924 -36.31506,-38.34231 C 779.7517,416.86274 779.64708,415 783.10118,415 c 3.41664,0 16.8129,-2.97391 32.39882,-7.1924 22.85127,-6.18493 48.01289,-15.78552 69.92982,-26.68219 l 7.92982,-3.94256 2.42354,5.15858 c 3.21978,6.8534 12.86483,33.51149 14.73278,40.72014 0.81622,3.14992 1.48404,7.57641 1.48404,9.83666 v 4.10955 l -10.16811,5.02713 c -15.41398,7.62069 -35.94377,14.59931 -52.63696,17.89269 -20.91843,4.12697 -22.82235,4.2692 -29.28599,2.18769 z m 98.05153,-35.80569 c -1.5823,-7.62192 -9.82119,-31.61072 -14.77029,-43.00601 l -3.9941,-9.19641 10.99852,-6.80359 c 23.84545,-14.75059 49.71792,-36.31891 66.7879,-55.67704 l 9.45583,-10.72335 1.36428,3.7984 c 2.97888,8.29371 5.17135,21.99115 5.18425,32.38844 0.0222,17.87293 -4.1395,30.05438 -14.83059,43.40996 C 970.40142,390.18755 955.95921,405.01352 947,412.48418 938.80908,419.31419 921.2203,432 919.94147,432 c -0.43982,0 -1.33127,-2.56068 -1.981,-5.6904 z m -244.8341,-3.101 c -9.26253,-6.62107 -23.29551,-18.66862 -30.62637,-26.29326 -5.29522,-5.50742 -5.11756,-5.5114 3.429,-0.077 2.98595,1.89866 8.45481,4.85363 12.15303,6.56661 6.03594,2.79579 7.30663,3.93215 12.41746,11.10476 3.13139,4.39464 7.08831,9.45276 8.79314,11.24026 1.70484,1.7875 2.83778,3.25 2.51766,3.25 -0.32013,0 -4.22789,-2.60613 -8.68392,-5.7914 z M 717.5,412.34364 c -13.47973,-1.60274 -20.50443,-2.84466 -30.0901,-5.31969 -18.40464,-4.75212 -17.70656,-4.24776 -23.87084,-17.24652 C 657.76109,377.59328 653.187,363.90402 649.99522,349.24362 647.59924,338.23846 645,316.9726 645,308.37482 c 0,-5.87751 -0.15327,-6.25435 -3.61901,-8.8978 l -3.61902,-2.76036 0.70049,12.39167 c 1.7357,30.70442 8.64488,61.44796 18.42356,81.97862 l 2.74282,5.75866 -5.06442,-2.56124 C 641.74149,387.7994 627.18691,375.84863 617.50001,363.85078 592.49149,332.87609 583.14677,285.4844 593.02607,239.73134 603.68386,190.37295 637.70134,139.19787 685,101.36802 c 10.35705,-8.283651 23.23863,-17.462721 23.7662,-16.935154 0.14898,0.14898 -3.05612,5.175031 -7.12243,11.169003 -11.00543,16.222601 -27.16676,44.619971 -29.1091,51.148131 -0.60028,2.01755 -0.32672,2.24831 2.64794,2.23366 3.24858,-0.016 3.46259,-0.29933 10.31739,-13.65897 9.47975,-18.47553 32.65782,-54.500199 34.12266,-53.035361 0.20462,0.204619 -0.0597,2.810728 -0.58733,5.791353 -1.50586,8.506327 -2.87763,26.683168 -3.62179,47.990898 l -0.68353,19.57157 3.635,2.1447 3.63499,2.1447 v -18.41181 c 0,-10.12649 0.47435,-24.17381 1.05412,-31.21627 1.01687,-12.351959 3.61206,-31.303982 4.39363,-32.085549 0.55885,-0.558859 32.90603,48.346639 41.02872,62.031079 6.92694,11.66995 6.99999,11.75 10.72305,11.75 h 3.74859 l -3.12146,-5.25 c -1.7168,-2.8875 -4.45714,-7.5 -6.08964,-10.25 -5.79313,-9.75875 -20.29927,-32.2019 -29.94436,-46.328389 C 732.27417,73.30131 731.52244,73.803169 755,82.689605 c 41.67789,15.775401 83.28272,40.507995 120.37249,71.557185 3.77988,3.16426 7.15488,5.7432 7.5,5.73097 0.34513,-0.0122 1.66438,-0.82004 2.93166,-1.79515 l 2.30416,-1.77291 -7.80416,-6.52871 C 841.74299,117.62192 800.11824,92.928831 756.62479,76.510543 c -7.63137,-2.880755 -13.48137,-5.479772 -13,-5.775594 0.48136,-0.295821 7.85021,-1.095344 16.37521,-1.776716 26.97649,-2.156134 58.36367,-0.03418 84,5.678871 65.36955,14.5676 123.11902,49.292106 154.60629,92.964096 8.69181,12.05532 20.52561,35.71606 21.15871,42.3053 1.3671,14.2269 -9.1077,43.90936 -23.38519,66.2673 -8.00225,12.53114 -7.14225,12.45053 -12.40703,1.16304 l -4.5786,-9.81635 -1.33055,4.75224 c -1.29702,4.6325 -1.23818,4.95428 2.33502,12.77118 2.24442,4.91 3.36233,8.55768 2.88345,9.4085 -0.43015,0.76426 -4.93672,6.09913 -10.01459,11.85527 -15.89916,18.02288 -36.89929,36.1218 -58.17961,50.14197 -6.92335,4.56132 -13.99108,9.00703 -15.70609,9.87935 l -3.11818,1.58603 -7.76179,-17.20751 C 878.73827,329.06216 861.71408,294.14349 859.63591,291.5 c -1.47414,-1.87514 -1.57406,-1.5942 -1.60037,4.5 -0.0205,4.75615 0.50338,7.37163 1.95282,9.74888 1.99481,3.27172 9.44024,18.92845 23.34802,49.09771 l 7.53565,16.34658 -14.18602,6.83739 c -30.07701,14.49656 -63.71923,25.3216 -97.31495,31.31301 -3.11356,0.55526 -3.15196,0.5084 -7.81189,-9.53153 -14.31007,-30.83143 -23.09067,-58.6417 -33.16069,-105.0278 l -2.76049,-12.71577 -2.31899,3.41271 c -1.27545,1.87699 -2.319,4.05822 -2.319,4.84718 0,2.68546 9.20264,41.12163 13.13978,54.88021 5.654,19.75826 13.38284,40.07984 22.84998,60.07989 1.24666,2.63365 2.08612,4.96899 1.86548,5.18964 -1.72192,1.72192 -40.66524,3.13658 -51.35524,1.86554 z m -19,-113.86441 c 8.96284,-2.30428 15.96687,-6.22227 21.40796,-11.97543 C 729.94718,275.8888 732,268.46767 732,242.7899 V 224 H 704.5 677 v 12 12 h 14 14 v 6.53212 c 0,14.21556 -6.61368,21.07366 -21.38069,22.17084 -9.14751,0.67966 -14.67009,-0.85348 -19.8362,-5.50677 -7.77206,-7.00055 -8.23893,-9.11271 -8.60665,-38.93732 -0.26427,-21.43454 -0.0402,-27.21591 1.22353,-31.56283 3.01734,-10.3793 8.52049,-15.70734 18.32611,-17.74298 13.80643,-2.8662 26.98817,4.56348 28.91402,16.29694 l 0.6155,3.75 H 718.12781 732 l -0.0148,-3.25 c -0.0213,-4.67319 -2.65694,-15.19271 -4.89366,-19.53148 -5.1155,-9.92303 -15.18621,-17.07171 -27.82175,-19.74924 -9.06092,-1.92005 -27.59476,-1.87419 -36.2291,0.0897 -18.03692,4.10241 -29.86069,17.29945 -33.69012,37.60305 -2.25169,11.9384 -1.4707,60.87102 1.09869,68.83802 6.28283,19.48145 17.61694,29.29399 38.12572,33.0075 6.58928,1.19311 22.50046,0.38053 29.925,-1.52827 z m 240,0.18883 c 16.42698,-4.49124 26.29712,-14.53965 31.17634,-31.73946 1.58046,-5.57128 1.82144,-10.36272 1.80701,-35.9286 -0.0181,-31.99262 -0.65626,-37.14788 -5.9963,-48.43579 -5.4119,-11.43981 -16.84291,-19.99169 -30.20757,-22.59918 -9.31738,-1.81785 -28.37609,-0.81677 -35.18972,1.84838 -13.81143,5.40234 -22.99462,15.164 -27.77606,29.52577 -2.65994,7.98951 -2.72486,8.76983 -3.09252,37.17221 -0.41347,31.94158 0.20561,37.34366 5.52921,48.24828 5.62488,11.52171 17.65247,19.99048 32.37014,22.79219 8.53503,1.62476 23.77413,1.19555 31.37947,-0.8838 z m -28,-23.1108 c -5.72381,-2.11062 -11.05785,-8.2285 -13.00048,-14.9109 -1.35401,-4.65764 -1.56477,-10.11638 -1.30693,-33.84976 0.30498,-28.07317 0.32715,-28.33143 2.80741,-32.70721 3.78246,-6.67317 8.53795,-9.98861 16.13214,-11.247 9.78634,-1.62165 16.91,0.14711 22.29981,5.53693 6.56857,6.56857 7.06805,9.54514 7.06805,42.12068 v 28 l -3,6 c -4.37384,8.74769 -9.0615,11.7193 -19.21266,12.17933 -5.18689,0.23507 -9.12307,-0.13963 -11.78734,-1.12207 z M 849,287 V 276 H 816.5 784 V 257.5 239 H 811.5 839 V 228 217 H 811.5 784 V 200.5 184 H 816.5 849 V 172.5 161 h -46 -46 v 68.5 68.5 h 46 46 z m 150.70207,56.41718 c 0.79373,-8.81192 -1.38064,-25.1285 -5.04951,-37.89211 l -3.18924,-11.09507 4.24575,-5.965 c 10.55143,-14.824 19.86313,-32.85194 24.88143,-48.17144 1.8752,-5.72453 3.4095,-11.28244 3.4095,-12.3509 0,-1.06846 0.4176,-1.94266 0.928,-1.94266 2.7406,0 2.447,26.39135 -0.5229,47 -3.2125,22.29241 -10.0101,44.6708 -19.7444,65 l -5.50652,11.5 z M 580.70814,263.59912 c -2.51064,-28.01177 0.76711,-63.14839 7.85025,-84.15263 2.44153,-7.24008 14.63342,-31.35663 19.53913,-38.64998 C 620.76502,121.96365 640.56877,106.11016 668.5,92.442562 680.06557,86.783175 707.05847,76.537056 704.49676,78.778708 703.94854,79.25843 698.775,83.054545 693,87.214521 641.01641,124.66049 601.56439,178.75202 588.12912,231 c -2.79983,10.88819 -4.248,19.14601 -5.96256,34 l -0.75028,6.5 z M 1016.4807,184.19069 C 991.63014,136.59533 940.27868,97.76443 873.42415,76.014305 838.79813,64.749246 802.57647,60.078301 765.77914,62.133 c -8.84483,0.49388 -16.24972,0.729758 -16.4553,0.524173 -0.59315,-0.593155 17.38652,-7.255239 28.45342,-10.542962 44.13456,-13.111377 91.15063,-13.480065 128.3851,-1.006764 22.5947,7.569079 40.88916,18.826825 57.4139,35.330449 22.06257,22.034364 38.74214,48.636564 50.19904,80.062104 3.7365,10.24896 6.8685,22.18958 6.038,23.02 -0.1987,0.19876 -1.6984,-2.19943 -3.3326,-5.32931 z M 616.48311,118.5 c 2.93415,-4.75502 13.40028,-18.40932 19.46501,-25.394381 9.91538,-11.420051 26.94775,-20.586992 42.74343,-23.004817 7.99068,-1.223122 20.7061,-1.358808 26.75151,-0.285465 l 3.94305,0.700078 -8.44305,2.406011 c -29.06763,8.283375 -62.05085,26.286532 -82.3771,44.963704 -3.86087,3.54764 -3.89961,3.55908 -2.08285,0.61487 z M 666,65.048867 c 3.46149,-2.959306 15.12397,-10.926455 23.45701,-16.024502 l 6.95701,-4.25621 3.45222,1.859147 C 702.61082,48.105354 717,62.987297 717,64.347811 c 0,0.184315 -2.1375,-0.01672 -4.75,-0.446735 -12.31795,-2.027545 -37.17675,-0.641554 -46.75,2.606524 -1.65369,0.561074 -1.56711,0.308485 0.5,-1.458733 z m 52.08039,-9.542807 c -2.91037,-3.587087 -7.32996,-8.316241 -9.82133,-10.50923 l -4.52976,-3.987254 7.73558,-3.525216 c 8.11514,-3.698188 27.59947,-10.753339 28.15725,-10.195559 0.17869,0.17869 -0.7672,1.932048 -2.10198,3.896352 -3.92432,5.775168 -8.2196,14.807308 -10.61192,22.314847 -1.22683,3.85 -2.52437,7.343809 -2.88343,7.764019 -0.35906,0.42021 -3.03405,-2.170871 -5.94441,-5.757959 z M 743,56.958686 c 27.08452,-22.436345 49.36507,-32.982413 75.98976,-35.968292 5.21936,-0.585336 12.64436,-0.777231 16.5,-0.426434 17.87141,1.625997 43.95226,9.417887 62.31994,18.618643 6.42966,3.220754 10.7903,5.591154 9.6903,5.267554 C 899.26401,42.027278 884.79761,38.796719 876,37.415744 863.10319,35.39131 833.60088,35.120901 819.66521,36.899395 796.3355,39.876773 768.65603,47.166838 748.60484,55.614883 742.35048,58.24999 741.0708,58.556804 743,56.958686 Z m -8.61374,-5.252732 c 3.36509,-8.940218 5.87247,-13.588583 10.46128,-19.393863 4.76472,-6.02782 8.98701,-8.811244 15.68467,-10.339665 6.77193,-1.54537 26.84157,-3.914262 32.96779,-3.891307 l 5,0.01874 -9.24803,3.358275 c -16.75841,6.085551 -31.71108,15.095191 -48.50199,29.224562 l -8.75001,7.363047 2.38629,-6.339785 z"
         id="path12638" />
      <path
         style="fill:#1f79a5"
         d="M 38.347877,498.58019 C 20.039689,494.13929 5.0266787,478.66144 1.1211119,460.20078 -0.47268296,452.6673 -0.47268296,47.332699 1.1211119,39.799221 3.171105,30.109406 7.4354172,22.357686 14.727201,15.065903 18.458978,11.334126 23.863373,7.089449 26.736968,5.6332883 38.410157,-0.28196401 25.994711,0.03089515 249.70078,0.01478109 c 145.99851,-0.01051661 206.72965,0.30404554 210.5,1.09030271 18.56542,3.8715777 34.33232,19.7598922 38.32994,38.6251092 2.15065,10.14915 2.15065,410.390467 0,420.539617 -3.91839,18.4913 -18.36805,33.41273 -36.99082,38.19853 -5.26368,1.35269 -30.03525,1.52172 -212,1.44661 -161.153372,-0.0665 -207.162308,-0.3573 -211.192023,-1.33476 z m 50.029625,-75.77935 8.08839,-26.69916 1.275999,4.19916 C 98.44369,402.61038 102.07557,414.625 105.81273,427 l 6.79485,22.5 7.07089,0.29128 7.0709,0.29128 3.0609,-11.29128 c 1.68349,-6.2102 4.86381,-18.04128 7.06739,-26.29128 2.20357,-8.25 6.05756,-22.54404 8.56442,-31.76453 C 147.94893,371.51498 150,363.50996 150,362.94654 c 0,-0.64296 -3.24596,-0.91682 -8.71729,-0.73547 l -8.71729,0.28893 -6.53271,26.20177 c -3.59299,14.41097 -6.77735,26.43061 -7.07635,26.71031 -0.42695,0.39938 -8.50622,-26.36197 -15.14396,-50.16208 -0.90233,-3.2354 -0.93528,-3.25 -7.331469,-3.25 H 90.05587 l -1.671918,5.75 c -0.919554,3.1625 -4.489354,15.425 -7.932888,27.25 -3.443534,11.825 -6.531822,20.825 -6.862862,20 -0.331041,-0.825 -3.424966,-12.975 -6.87539,-27 l -6.273498,-25.5 -8.838271,-0.29066 -8.838271,-0.29067 0.682634,2.79067 c 0.658595,2.69239 21.270693,79.94083 22.302046,83.5819 0.436469,1.5409 1.488069,1.75053 7.52452,1.5 L 80.289113,449.5 Z M 209,405 v -44 h -8.5 -8.5 v 44 44 h 8.5 8.5 z m 117,36 v -8 H 305.5 285 V 422.5 412 H 302.5 320 V 404.5 397 H 302.5 285 V 386.5 376 h 20.5 20.5 v -7.5 -7.5 h -29 -29 v 44 44 h 29 29 z m 73.23367,-18.6595 0.26633,-26.6595 17.02597,26.4095 17.02597,26.4095 7.72403,0.29206 L 449,449.08413 V 405.04206 361 h -8.48367 -8.48366 L 431.76633,387.7047 431.5,414.40939 421,398.18856 c -5.775,-8.92146 -13.56906,-20.93857 -17.32012,-26.70469 L 396.85975,361 H 389.42988 382 v 44 44 h 8.48367 8.48366 z M 341,271.08037 v -26.91964 l -5.25,-1.69656 C 321.38903,237.82334 309.48358,224.90888 305.36135,209.5 c -1.06161,-3.96829 -1.34006,-20.93988 -1.34948,-82.25 L 304,50 h -27.03814 -27.03814 l 0.30973,82.75 c 0.30559,81.64772 0.3389,82.8534 2.50043,90.51256 9.34214,33.1028 31.48382,57.56264 62.28185,68.80253 6.77528,2.47267 19.43708,5.46489 24.73427,5.84517 0.97127,0.0697 1.25,-5.91299 1.25,-26.82989 z m 32.13248,23.91415 c 34.18566,-8.23591 63.17281,-36.66381 71.88133,-70.49452 3.5002,-13.59752 3.93376,-24.62707 3.96039,-100.75 L 449,50 h -27.53358 -27.53358 l 0.65449,75.25 c 0.5892,67.74339 0.49083,75.93801 -0.98612,82.14697 -3.91948,16.47725 -16.58019,30.8562 -30.88725,35.07912 l -4.21396,1.24381 -0.26596,27.07977 -0.26596,27.07977 3.76596,-0.52306 c 2.07128,-0.28769 7.20058,-1.35052 11.39844,-2.36186 z M 159,207.5 V 119 H 132.5 106 V 207.5 296 H 132.5 159 Z M 225,77 V 50 H 132 39 v 27 27 h 93 93 z m 366,421.41446 c -18.55354,-4.94473 -33.09874,-20.00983 -36.89492,-38.21368 -1.54501,-7.40883 -1.5655,-411.312711 -0.0213,-419.767121 3.45033,-18.890231 19.65776,-35.3543452 38.71543,-39.3285752 7.50359,-1.56477684 412.89799,-1.56477684 420.40159,0 13.8848,2.8954965 28.4344,14.0894012 34.2262,26.3322952 5.8966,12.464191 5.6247,0.93666 5.337,226.315611 L 1052.5,460.5 l -2.3808,6.36554 c -4.8431,12.94874 -17.3049,25.41058 -30.2537,30.25364 L 1013.5,499.5 805,499.69014 c -180.42432,0.16453 -209.24061,-0.007 -214,-1.27568 z m 239,-28.5359 c 48.41354,-5.26075 95.68948,-27.60196 131.81572,-62.29218 40.09908,-38.50519 64.89858,-89.24597 70.17758,-143.58638 0.7661,-7.88625 1.0213,-44.33797 0.8119,-116 L 1032.5,43.5 1030.1182,38.229889 C 1026.9175,31.147781 1018.56,23.540742 1011.7619,21.521936 1007.3857,20.222347 996.35994,20 936.292,20 869.50143,20 865.55675,19.900145 858.2235,18.023789 836.62442,12.497236 810.3279,10.226892 787.83912,11.947064 772.49013,13.121111 754.27008,15.983017 748,18.204776 c -2.61114,0.92524 -22.41994,1.374166 -78,1.767712 -73.5563,0.52083 -74.55889,0.554736 -79.14917,2.676678 -5.93107,2.741751 -11.83694,8.647626 -14.92792,14.927923 L 573.5,42.5 v 110 c 0,99.99087 0.15959,111.00464 1.75387,121.04093 10.62994,66.91746 45.82096,122.57856 100.74613,159.34861 45.30124,30.32725 98.25587,43.04634 154,36.98902 z m -53,-6.36952 c -14.16805,-1.71913 -25.28149,-4.0497 -38.83894,-8.1448 -19.9941,-6.03932 -32.21139,-12.80135 -45.18945,-25.01146 -7.22717,-6.79953 -17.38313,-18.2746 -16.74161,-18.91611 0.18383,-0.18383 4.59478,0.74153 9.80212,2.05636 18.78495,4.74312 30.2688,5.79837 55.96788,5.1429 12.925,-0.32966 25.12498,-0.87454 27.11108,-1.21084 l 3.61107,-0.61146 5.24564,9.84318 c 8.48784,15.92703 17.02307,27.09493 26.37201,34.50639 L 809.1796,465 798.3398,464.89155 C 792.37791,464.8319 782.775,464.20977 777,463.50904 Z m 42.80427,-1.43781 c -7.32704,-2.34283 -14.71712,-7.80655 -21.21649,-15.68604 -5.53383,-6.70893 -17.19397,-25.63111 -17.75085,-28.80626 -0.29655,-1.69083 0.80168,-2.12659 9.16307,-3.6358 27.8483,-5.02653 65.16432,-17.84164 95.47379,-32.78771 l 7.97379,-3.932 3.14129,7.13829 c 4.05428,9.21302 12.02937,31.37634 13.93124,38.71588 0.81394,3.1411 1.47989,7.58527 1.47989,9.87592 v 4.16482 l -11.25,5.33881 c -12.49383,5.92909 -33.72346,13.67747 -43.83205,15.9978 -6.06226,1.39153 -29.76655,5.59753 -30.91795,5.48596 -0.275,-0.0267 -3.06308,-0.868 -6.19573,-1.86967 z m 98.1562,-35.76163 c -1.5823,-7.62192 -9.82119,-31.61072 -14.77029,-43.00601 l -3.9941,-9.19641 10.99852,-6.80359 c 23.84545,-14.75059 49.71792,-36.31891 66.7879,-55.67704 l 9.45583,-10.72335 1.36428,3.7984 c 2.97888,8.29371 5.17135,21.99115 5.18425,32.38844 0.0222,17.87293 -4.1395,30.05438 -14.83059,43.40996 C 970.40142,390.18755 955.95921,405.01352 947,412.48418 938.80908,419.31419 921.2203,432 919.94147,432 c -0.43982,0 -1.33127,-2.56068 -1.981,-5.6904 z m -244.8341,-3.101 c -9.26253,-6.62107 -23.29551,-18.66862 -30.62637,-26.29326 -5.29522,-5.50742 -5.11756,-5.5114 3.429,-0.077 2.98595,1.89866 8.45481,4.85363 12.15303,6.56661 6.03594,2.79579 7.30663,3.93215 12.41746,11.10476 3.13139,4.39464 7.08831,9.45276 8.79314,11.24026 1.70484,1.7875 2.83778,3.25 2.51766,3.25 -0.32013,0 -4.22789,-2.60613 -8.68392,-5.7914 z M 717.5,412.34364 c -13.47973,-1.60274 -20.50443,-2.84466 -30.0901,-5.31969 -18.40464,-4.75212 -17.70656,-4.24776 -23.87084,-17.24652 C 657.76109,377.59328 653.187,363.90402 649.99522,349.24362 647.59924,338.23846 645,316.9726 645,308.37482 c 0,-5.87751 -0.15327,-6.25435 -3.61901,-8.8978 l -3.61902,-2.76036 0.70049,12.39167 c 1.7357,30.70442 8.64488,61.44796 18.42356,81.97862 l 2.74282,5.75866 -5.06442,-2.56124 C 641.74149,387.7994 627.18691,375.84863 617.50001,363.85078 592.49149,332.87609 583.14677,285.4844 593.02607,239.73134 603.68386,190.37295 637.70134,139.19787 685,101.36802 c 10.35705,-8.283651 23.23863,-17.462721 23.7662,-16.935154 0.14898,0.14898 -3.05612,5.175031 -7.12243,11.169003 -11.00543,16.222601 -27.16676,44.619971 -29.1091,51.148131 -0.60028,2.01755 -0.32672,2.24831 2.64794,2.23366 3.24858,-0.016 3.46259,-0.29933 10.31739,-13.65897 9.47975,-18.47553 32.65782,-54.500199 34.12266,-53.035361 0.20462,0.204619 -0.0597,2.810728 -0.58733,5.791353 -1.50586,8.506327 -2.87763,26.683168 -3.62179,47.990898 l -0.68353,19.57157 3.635,2.1447 3.63499,2.1447 v -18.41181 c 0,-10.12649 0.47435,-24.17381 1.05412,-31.21627 1.01687,-12.351959 3.61206,-31.303982 4.39363,-32.085549 0.55885,-0.558859 32.90603,48.346639 41.02872,62.031079 6.92694,11.66995 6.99999,11.75 10.72305,11.75 h 3.74859 l -3.12146,-5.25 c -1.7168,-2.8875 -4.45714,-7.5 -6.08964,-10.25 -5.79313,-9.75875 -20.29927,-32.2019 -29.94436,-46.328389 C 732.27417,73.30131 731.52244,73.803169 755,82.689605 c 41.67789,15.775401 83.28272,40.507995 120.37249,71.557185 3.77988,3.16426 7.15488,5.7432 7.5,5.73097 0.34513,-0.0122 1.66438,-0.82004 2.93166,-1.79515 l 2.30416,-1.77291 -7.80416,-6.52871 C 841.74299,117.62192 800.11824,92.928831 756.62479,76.510543 c -7.63137,-2.880755 -13.48137,-5.479772 -13,-5.775594 0.48136,-0.295821 7.85021,-1.095344 16.37521,-1.776716 26.97649,-2.156134 58.36367,-0.03418 84,5.678871 65.36955,14.5676 123.11902,49.292106 154.60629,92.964096 8.69181,12.05532 20.52561,35.71606 21.15871,42.3053 1.3671,14.2269 -9.1077,43.90936 -23.38519,66.2673 -8.00225,12.53114 -7.14225,12.45053 -12.40703,1.16304 l -4.5786,-9.81635 -1.33055,4.75224 c -1.29702,4.6325 -1.23818,4.95428 2.33502,12.77118 2.24442,4.91 3.36233,8.55768 2.88345,9.4085 -0.43015,0.76426 -4.93672,6.09913 -10.01459,11.85527 -15.89916,18.02288 -36.89929,36.1218 -58.17961,50.14197 -6.92335,4.56132 -13.99108,9.00703 -15.70609,9.87935 l -3.11818,1.58603 -7.76179,-17.20751 C 878.73827,329.06216 861.71408,294.14349 859.63591,291.5 c -1.47414,-1.87514 -1.57406,-1.5942 -1.60037,4.5 -0.0205,4.75615 0.50338,7.37163 1.95282,9.74888 1.99481,3.27172 9.44024,18.92845 23.34802,49.09771 l 7.53565,16.34658 -14.18602,6.83739 c -30.07701,14.49656 -63.71923,25.3216 -97.31495,31.31301 -3.11356,0.55526 -3.15196,0.5084 -7.81189,-9.53153 -14.31007,-30.83143 -23.09067,-58.6417 -33.16069,-105.0278 l -2.76049,-12.71577 -2.31899,3.41271 c -1.27545,1.87699 -2.319,4.05822 -2.319,4.84718 0,2.68546 9.20264,41.12163 13.13978,54.88021 5.654,19.75826 13.38284,40.07984 22.84998,60.07989 1.24666,2.63365 2.08612,4.96899 1.86548,5.18964 -1.72192,1.72192 -40.66524,3.13658 -51.35524,1.86554 z m -19,-113.86441 c 8.96284,-2.30428 15.96687,-6.22227 21.40796,-11.97543 C 729.94718,275.8888 732,268.46767 732,242.7899 V 224 H 704.5 677 v 12 12 h 14 14 v 6.53212 c 0,14.21556 -6.61368,21.07366 -21.38069,22.17084 -9.14751,0.67966 -14.67009,-0.85348 -19.8362,-5.50677 -7.77206,-7.00055 -8.23893,-9.11271 -8.60665,-38.93732 -0.26427,-21.43454 -0.0402,-27.21591 1.22353,-31.56283 3.01734,-10.3793 8.52049,-15.70734 18.32611,-17.74298 13.80643,-2.8662 26.98817,4.56348 28.91402,16.29694 l 0.6155,3.75 H 718.12781 732 l -0.0148,-3.25 c -0.0213,-4.67319 -2.65694,-15.19271 -4.89366,-19.53148 -5.1155,-9.92303 -15.18621,-17.07171 -27.82175,-19.74924 -9.06092,-1.92005 -27.59476,-1.87419 -36.2291,0.0897 -18.03692,4.10241 -29.86069,17.29945 -33.69012,37.60305 -2.25169,11.9384 -1.4707,60.87102 1.09869,68.83802 6.28283,19.48145 17.61694,29.29399 38.12572,33.0075 6.58928,1.19311 22.50046,0.38053 29.925,-1.52827 z m 240,0.18883 c 16.42698,-4.49124 26.29712,-14.53965 31.17634,-31.73946 1.58046,-5.57128 1.82144,-10.36272 1.80701,-35.9286 -0.0181,-31.99262 -0.65626,-37.14788 -5.9963,-48.43579 -5.4119,-11.43981 -16.84291,-19.99169 -30.20757,-22.59918 -9.31738,-1.81785 -28.37609,-0.81677 -35.18972,1.84838 -13.81143,5.40234 -22.99462,15.164 -27.77606,29.52577 -2.65994,7.98951 -2.72486,8.76983 -3.09252,37.17221 -0.41347,31.94158 0.20561,37.34366 5.52921,48.24828 5.62488,11.52171 17.65247,19.99048 32.37014,22.79219 8.53503,1.62476 23.77413,1.19555 31.37947,-0.8838 z m -28,-23.1108 c -5.72381,-2.11062 -11.05785,-8.2285 -13.00048,-14.9109 -1.35401,-4.65764 -1.56477,-10.11638 -1.30693,-33.84976 0.30498,-28.07317 0.32715,-28.33143 2.80741,-32.70721 3.78246,-6.67317 8.53795,-9.98861 16.13214,-11.247 9.78634,-1.62165 16.91,0.14711 22.29981,5.53693 6.56857,6.56857 7.06805,9.54514 7.06805,42.12068 v 28 l -3,6 c -4.37384,8.74769 -9.0615,11.7193 -19.21266,12.17933 -5.18689,0.23507 -9.12307,-0.13963 -11.78734,-1.12207 z M 849,287 V 276 H 816.5 784 V 257.5 239 H 811.5 839 V 228 217 H 811.5 784 V 200.5 184 H 816.5 849 V 172.5 161 h -46 -46 v 68.5 68.5 h 46 46 z m 150.70207,56.41718 c 0.79373,-8.81192 -1.38064,-25.1285 -5.04951,-37.89211 l -3.18924,-11.09507 4.24575,-5.965 c 10.55143,-14.824 19.86313,-32.85194 24.88143,-48.17144 1.8752,-5.72453 3.4095,-11.28244 3.4095,-12.3509 0,-1.06846 0.4176,-1.94266 0.928,-1.94266 2.7406,0 2.447,26.39135 -0.5229,47 -3.2125,22.29241 -10.0101,44.6708 -19.7444,65 l -5.50652,11.5 z M 580.70814,263.59912 c -2.51064,-28.01177 0.76711,-63.14839 7.85025,-84.15263 2.44153,-7.24008 14.63342,-31.35663 19.53913,-38.64998 C 620.76502,121.96365 640.56877,106.11016 668.5,92.442562 680.06557,86.783175 707.05847,76.537056 704.49676,78.778708 703.94854,79.25843 698.775,83.054545 693,87.214521 641.01641,124.66049 601.56439,178.75202 588.12912,231 c -2.79983,10.88819 -4.248,19.14601 -5.96256,34 l -0.75028,6.5 z M 1016.4807,184.19069 C 991.63014,136.59533 940.27868,97.76443 873.42415,76.014305 838.79813,64.749246 802.57647,60.078301 765.77914,62.133 c -8.84483,0.49388 -16.24972,0.729758 -16.4553,0.524173 -0.59315,-0.593155 17.38652,-7.255239 28.45342,-10.542962 44.13456,-13.111377 91.15063,-13.480065 128.3851,-1.006764 22.5947,7.569079 40.88916,18.826825 57.4139,35.330449 22.06257,22.034364 38.74214,48.636564 50.19904,80.062104 3.7365,10.24896 6.8685,22.18958 6.038,23.02 -0.1987,0.19876 -1.6984,-2.19943 -3.3326,-5.32931 z M 616.48311,118.5 c 2.93415,-4.75502 13.40028,-18.40932 19.46501,-25.394381 9.91538,-11.420051 26.94775,-20.586992 42.74343,-23.004817 7.99068,-1.223122 20.7061,-1.358808 26.75151,-0.285465 l 3.94305,0.700078 -8.44305,2.406011 c -29.06763,8.283375 -62.05085,26.286532 -82.3771,44.963704 -3.86087,3.54764 -3.89961,3.55908 -2.08285,0.61487 z M 666,65.048867 c 3.46149,-2.959306 15.12397,-10.926455 23.45701,-16.024502 l 6.95701,-4.25621 3.45222,1.859147 C 702.61082,48.105354 717,62.987297 717,64.347811 c 0,0.184315 -2.1375,-0.01672 -4.75,-0.446735 -12.31795,-2.027545 -37.17675,-0.641554 -46.75,2.606524 -1.65369,0.561074 -1.56711,0.308485 0.5,-1.458733 z m 52.08039,-9.542807 c -2.91037,-3.587087 -7.32996,-8.316241 -9.82133,-10.50923 l -4.52976,-3.987254 7.73558,-3.525216 c 8.11514,-3.698188 27.59947,-10.753339 28.15725,-10.195559 0.17869,0.17869 -0.7672,1.932048 -2.10198,3.896352 -3.92432,5.775168 -8.2196,14.807308 -10.61192,22.314847 -1.22683,3.85 -2.52437,7.343809 -2.88343,7.764019 -0.35906,0.42021 -3.03405,-2.170871 -5.94441,-5.757959 z M 743,56.958686 c 27.08452,-22.436345 49.36507,-32.982413 75.98976,-35.968292 5.21936,-0.585336 12.64436,-0.777231 16.5,-0.426434 17.87141,1.625997 43.95226,9.417887 62.31994,18.618643 6.42966,3.220754 10.7903,5.591154 9.6903,5.267554 C 899.26401,42.027278 884.79761,38.796719 876,37.415744 863.10319,35.39131 833.60088,35.120901 819.66521,36.899395 796.3355,39.876773 768.65603,47.166838 748.60484,55.614883 742.35048,58.24999 741.0708,58.556804 743,56.958686 Z m -8.61374,-5.252732 c 3.36509,-8.940218 5.87247,-13.588583 10.46128,-19.393863 4.76472,-6.02782 8.98701,-8.811244 15.68467,-10.339665 6.77193,-1.54537 26.84157,-3.914262 32.96779,-3.891307 l 5,0.01874 -9.24803,3.358275 c -16.75841,6.085551 -31.71108,15.095191 -48.50199,29.224562 l -8.75001,7.363047 2.38629,-6.339785 z"
         id="path12636" />
      <path
         style="fill:#0f70a1"
         d="M 38.347877,498.58019 C 20.039689,494.13929 5.0266787,478.66144 1.1211119,460.20078 -0.47268296,452.6673 -0.47268296,47.332699 1.1211119,39.799221 3.171105,30.109406 7.4354172,22.357686 14.727201,15.065903 18.458978,11.334126 23.863373,7.089449 26.736968,5.6332883 38.410157,-0.28196401 25.994711,0.03089515 249.70078,0.01478109 c 145.99851,-0.01051661 206.72965,0.30404554 210.5,1.09030271 18.56542,3.8715777 34.33232,19.7598922 38.32994,38.6251092 2.15065,10.14915 2.15065,410.390467 0,420.539617 -3.91839,18.4913 -18.36805,33.41273 -36.99082,38.19853 -5.26368,1.35269 -30.03525,1.52172 -212,1.44661 -161.153372,-0.0665 -207.162308,-0.3573 -211.192023,-1.33476 z m 50.029625,-75.77935 8.08839,-26.69916 1.275999,4.19916 C 98.44369,402.61038 102.07557,414.625 105.81273,427 l 6.79485,22.5 7.07089,0.29128 7.0709,0.29128 3.0609,-11.29128 c 1.68349,-6.2102 4.86381,-18.04128 7.06739,-26.29128 2.20357,-8.25 6.05756,-22.54404 8.56442,-31.76453 C 147.94893,371.51498 150,363.50996 150,362.94654 c 0,-0.64296 -3.24596,-0.91682 -8.71729,-0.73547 l -8.71729,0.28893 -6.53271,26.20177 c -3.59299,14.41097 -6.77735,26.43061 -7.07635,26.71031 -0.42695,0.39938 -8.50622,-26.36197 -15.14396,-50.16208 -0.90233,-3.2354 -0.93528,-3.25 -7.331469,-3.25 H 90.05587 l -1.671918,5.75 c -0.919554,3.1625 -4.489354,15.425 -7.932888,27.25 -3.443534,11.825 -6.531822,20.825 -6.862862,20 -0.331041,-0.825 -3.424966,-12.975 -6.87539,-27 l -6.273498,-25.5 -8.838271,-0.29066 -8.838271,-0.29067 0.682634,2.79067 c 0.658595,2.69239 21.270693,79.94083 22.302046,83.5819 0.436469,1.5409 1.488069,1.75053 7.52452,1.5 L 80.289113,449.5 Z M 209,405 v -44 h -8.5 -8.5 v 44 44 h 8.5 8.5 z m 117,36 v -8 H 305.5 285 V 422.5 412 H 302.5 320 V 404.5 397 H 302.5 285 V 386.5 376 h 20.5 20.5 v -7.5 -7.5 h -29 -29 v 44 44 h 29 29 z m 73.23367,-18.6595 0.26633,-26.6595 17.02597,26.4095 17.02597,26.4095 7.72403,0.29206 L 449,449.08413 V 405.04206 361 h -8.48367 -8.48366 L 431.76633,387.7047 431.5,414.40939 421,398.18856 c -5.775,-8.92146 -13.56906,-20.93857 -17.32012,-26.70469 L 396.85975,361 H 389.42988 382 v 44 44 h 8.48367 8.48366 z M 341,271.08037 v -26.91964 l -5.25,-1.69656 C 321.38903,237.82334 309.48358,224.90888 305.36135,209.5 c -1.06161,-3.96829 -1.34006,-20.93988 -1.34948,-82.25 L 304,50 h -27.03814 -27.03814 l 0.30973,82.75 c 0.30559,81.64772 0.3389,82.8534 2.50043,90.51256 9.34214,33.1028 31.48382,57.56264 62.28185,68.80253 6.77528,2.47267 19.43708,5.46489 24.73427,5.84517 0.97127,0.0697 1.25,-5.91299 1.25,-26.82989 z m 32.13248,23.91415 c 34.18566,-8.23591 63.17281,-36.66381 71.88133,-70.49452 3.5002,-13.59752 3.93376,-24.62707 3.96039,-100.75 L 449,50 h -27.53358 -27.53358 l 0.65449,75.25 c 0.5892,67.74339 0.49083,75.93801 -0.98612,82.14697 -3.91948,16.47725 -16.58019,30.8562 -30.88725,35.07912 l -4.21396,1.24381 -0.26596,27.07977 -0.26596,27.07977 3.76596,-0.52306 c 2.07128,-0.28769 7.20058,-1.35052 11.39844,-2.36186 z M 159,207.5 V 119 H 132.5 106 V 207.5 296 H 132.5 159 Z M 225,77 V 50 H 132 39 v 27 27 h 93 93 z m 366,421.41446 c -18.55354,-4.94473 -33.09874,-20.00983 -36.89492,-38.21368 -1.54501,-7.40883 -1.5655,-411.312711 -0.0213,-419.767121 3.45033,-18.890231 19.65776,-35.3543452 38.71543,-39.3285752 7.50359,-1.56477684 412.89799,-1.56477684 420.40159,0 13.8848,2.8954965 28.4344,14.0894012 34.2262,26.3322952 5.8966,12.464191 5.6247,0.93666 5.337,226.315611 L 1052.5,460.5 l -2.3808,6.36554 c -4.8431,12.94874 -17.3049,25.41058 -30.2537,30.25364 L 1013.5,499.5 805,499.69014 c -180.42432,0.16453 -209.24061,-0.007 -214,-1.27568 z m 239,-28.5359 c 48.41354,-5.26075 95.68948,-27.60196 131.81572,-62.29218 40.09908,-38.50519 64.89858,-89.24597 70.17758,-143.58638 0.7661,-7.88625 1.0213,-44.33797 0.8119,-116 L 1032.5,43.5 1030.1182,38.229889 C 1026.9175,31.147781 1018.56,23.540742 1011.7619,21.521936 1007.3857,20.222347 996.35994,20 936.292,20 869.50143,20 865.55675,19.900145 858.2235,18.023789 836.62442,12.497236 810.3279,10.226892 787.83912,11.947064 772.49013,13.121111 754.27008,15.983017 748,18.204776 c -2.61114,0.92524 -22.41994,1.374166 -78,1.767712 -73.5563,0.52083 -74.55889,0.554736 -79.14917,2.676678 -5.93107,2.741751 -11.83694,8.647626 -14.92792,14.927923 L 573.5,42.5 v 110 c 0,99.99087 0.15959,111.00464 1.75387,121.04093 10.62994,66.91746 45.82096,122.57856 100.74613,159.34861 45.30124,30.32725 98.25587,43.04634 154,36.98902 z m -53,-6.36952 c -14.16805,-1.71913 -25.28149,-4.0497 -38.83894,-8.1448 -19.9941,-6.03932 -32.21139,-12.80135 -45.18945,-25.01146 -7.22717,-6.79953 -17.38313,-18.2746 -16.74161,-18.91611 0.18383,-0.18383 4.59478,0.74153 9.80212,2.05636 18.78495,4.74312 30.2688,5.79837 55.96788,5.1429 12.925,-0.32966 25.12498,-0.87454 27.11108,-1.21084 l 3.61107,-0.61146 5.24564,9.84318 c 8.48784,15.92703 17.02307,27.09493 26.37201,34.50639 L 809.1796,465 798.3398,464.89155 C 792.37791,464.8319 782.775,464.20977 777,463.50904 Z m 44.33343,-1.0331 c -8.75632,-2.6187 -17.46789,-9.11198 -24.78738,-18.47556 -2.89443,-3.70277 -10.88218,-16.75678 -13.91177,-22.73538 l -2.64704,-5.22369 2.25638,-0.50796 c 1.24101,-0.27937 6.98138,-1.436 12.75638,-2.57028 5.775,-1.13428 12.3,-2.5658 14.5,-3.18114 2.2,-0.61535 4.45,-1.23628 5,-1.37985 17.21265,-4.49298 45.46143,-14.9788 63.40113,-23.53421 7.92063,-3.77733 14.7018,-6.86787 15.06928,-6.86787 1.50618,0 14.53117,33.48047 17.56262,45.14434 1.58501,6.09852 1.87475,11.67302 0.70166,13.49965 -0.63882,0.9947 -7.08195,4.21775 -21.62856,10.81927 -20.16664,9.152 -59.18237,17.73128 -68.2727,15.01268 z m 96.62704,-36.16634 c -1.5823,-7.62192 -9.82119,-31.61072 -14.77029,-43.00601 l -3.9941,-9.19641 10.99852,-6.80359 c 23.84545,-14.75059 49.71792,-36.31891 66.7879,-55.67704 l 9.45583,-10.72335 1.36428,3.7984 c 2.97888,8.29371 5.17135,21.99115 5.18425,32.38844 0.0222,17.87293 -4.1395,30.05438 -14.83059,43.40996 C 970.40142,390.18755 955.95921,405.01352 947,412.48418 938.80908,419.31419 921.2203,432 919.94147,432 c -0.43982,0 -1.33127,-2.56068 -1.981,-5.6904 z m -244.8341,-3.101 c -9.26253,-6.62107 -23.29551,-18.66862 -30.62637,-26.29326 -5.29522,-5.50742 -5.11756,-5.5114 3.429,-0.077 2.98595,1.89866 8.45481,4.85363 12.15303,6.56661 6.03594,2.79579 7.30663,3.93215 12.41746,11.10476 3.13139,4.39464 7.08831,9.45276 8.79314,11.24026 1.70484,1.7875 2.83778,3.25 2.51766,3.25 -0.32013,0 -4.22789,-2.60613 -8.68392,-5.7914 z M 717.5,412.34364 c -13.47973,-1.60274 -20.50443,-2.84466 -30.0901,-5.31969 -18.40464,-4.75212 -17.70656,-4.24776 -23.87084,-17.24652 C 657.76109,377.59328 653.187,363.90402 649.99522,349.24362 647.59924,338.23846 645,316.9726 645,308.37482 c 0,-5.87751 -0.15327,-6.25435 -3.61901,-8.8978 l -3.61902,-2.76036 0.70049,12.39167 c 1.7357,30.70442 8.64488,61.44796 18.42356,81.97862 l 2.74282,5.75866 -5.06442,-2.56124 C 641.74149,387.7994 627.18691,375.84863 617.50001,363.85078 592.49149,332.87609 583.14677,285.4844 593.02607,239.73134 603.68386,190.37295 637.70134,139.19787 685,101.36802 c 10.35705,-8.283651 23.23863,-17.462721 23.7662,-16.935154 0.14898,0.14898 -3.05612,5.175031 -7.12243,11.169003 -11.00543,16.222601 -27.16676,44.619971 -29.1091,51.148131 -0.60028,2.01755 -0.32672,2.24831 2.64794,2.23366 3.24858,-0.016 3.46259,-0.29933 10.31739,-13.65897 9.47975,-18.47553 32.65782,-54.500199 34.12266,-53.035361 0.20462,0.204619 -0.0597,2.810728 -0.58733,5.791353 -1.50586,8.506327 -2.87763,26.683168 -3.62179,47.990898 l -0.68353,19.57157 3.635,2.1447 3.63499,2.1447 v -18.41181 c 0,-10.12649 0.47435,-24.17381 1.05412,-31.21627 1.01687,-12.351959 3.61206,-31.303982 4.39363,-32.085549 0.55885,-0.558859 32.90603,48.346639 41.02872,62.031079 6.92694,11.66995 6.99999,11.75 10.72305,11.75 h 3.74859 l -3.12146,-5.25 c -1.7168,-2.8875 -4.45714,-7.5 -6.08964,-10.25 -5.79313,-9.75875 -20.29927,-32.2019 -29.94436,-46.328389 C 732.27417,73.30131 731.52244,73.803169 755,82.689605 c 41.67789,15.775401 83.28272,40.507995 120.37249,71.557185 3.77988,3.16426 7.15488,5.7432 7.5,5.73097 0.34513,-0.0122 1.66438,-0.82004 2.93166,-1.79515 l 2.30416,-1.77291 -7.80416,-6.52871 C 841.74299,117.62192 800.11824,92.928831 756.62479,76.510543 c -7.63137,-2.880755 -13.48137,-5.479772 -13,-5.775594 0.48136,-0.295821 7.85021,-1.095344 16.37521,-1.776716 26.97649,-2.156134 58.36367,-0.03418 84,5.678871 65.36955,14.5676 123.11902,49.292106 154.60629,92.964096 8.69181,12.05532 20.52561,35.71606 21.15871,42.3053 1.3671,14.2269 -9.1077,43.90936 -23.38519,66.2673 -8.00225,12.53114 -7.14225,12.45053 -12.40703,1.16304 l -4.5786,-9.81635 -1.33055,4.75224 c -1.29702,4.6325 -1.23818,4.95428 2.33502,12.77118 2.24442,4.91 3.36233,8.55768 2.88345,9.4085 -0.43015,0.76426 -4.93672,6.09913 -10.01459,11.85527 -15.89916,18.02288 -36.89929,36.1218 -58.17961,50.14197 -6.92335,4.56132 -13.99108,9.00703 -15.70609,9.87935 l -3.11818,1.58603 -7.76179,-17.20751 C 878.73827,329.06216 861.71408,294.14349 859.63591,291.5 c -1.47414,-1.87514 -1.57406,-1.5942 -1.60037,4.5 -0.0205,4.75615 0.50338,7.37163 1.95282,9.74888 1.99481,3.27172 9.44024,18.92845 23.34802,49.09771 l 7.53565,16.34658 -14.18602,6.83739 c -30.07701,14.49656 -63.71923,25.3216 -97.31495,31.31301 -3.11356,0.55526 -3.15196,0.5084 -7.81189,-9.53153 -14.31007,-30.83143 -23.09067,-58.6417 -33.16069,-105.0278 l -2.76049,-12.71577 -2.31899,3.41271 c -1.27545,1.87699 -2.319,4.05822 -2.319,4.84718 0,2.68546 9.20264,41.12163 13.13978,54.88021 5.654,19.75826 13.38284,40.07984 22.84998,60.07989 1.24666,2.63365 2.08612,4.96899 1.86548,5.18964 -1.72192,1.72192 -40.66524,3.13658 -51.35524,1.86554 z m -19,-113.86441 c 8.96284,-2.30428 15.96687,-6.22227 21.40796,-11.97543 C 729.94718,275.8888 732,268.46767 732,242.7899 V 224 H 704.5 677 v 12 12 h 14 14 v 6.53212 c 0,14.21556 -6.61368,21.07366 -21.38069,22.17084 -9.14751,0.67966 -14.67009,-0.85348 -19.8362,-5.50677 -7.77206,-7.00055 -8.23893,-9.11271 -8.60665,-38.93732 -0.26427,-21.43454 -0.0402,-27.21591 1.22353,-31.56283 3.01734,-10.3793 8.52049,-15.70734 18.32611,-17.74298 13.80643,-2.8662 26.98817,4.56348 28.91402,16.29694 l 0.6155,3.75 H 718.12781 732 l -0.0148,-3.25 c -0.0213,-4.67319 -2.65694,-15.19271 -4.89366,-19.53148 -5.1155,-9.92303 -15.18621,-17.07171 -27.82175,-19.74924 -9.06092,-1.92005 -27.59476,-1.87419 -36.2291,0.0897 -18.03692,4.10241 -29.86069,17.29945 -33.69012,37.60305 -2.25169,11.9384 -1.4707,60.87102 1.09869,68.83802 6.28283,19.48145 17.61694,29.29399 38.12572,33.0075 6.58928,1.19311 22.50046,0.38053 29.925,-1.52827 z m 240,0.18883 c 16.42698,-4.49124 26.29712,-14.53965 31.17634,-31.73946 1.58046,-5.57128 1.82144,-10.36272 1.80701,-35.9286 -0.0181,-31.99262 -0.65626,-37.14788 -5.9963,-48.43579 -5.4119,-11.43981 -16.84291,-19.99169 -30.20757,-22.59918 -9.31738,-1.81785 -28.37609,-0.81677 -35.18972,1.84838 -13.81143,5.40234 -22.99462,15.164 -27.77606,29.52577 -2.65994,7.98951 -2.72486,8.76983 -3.09252,37.17221 -0.41347,31.94158 0.20561,37.34366 5.52921,48.24828 5.62488,11.52171 17.65247,19.99048 32.37014,22.79219 8.53503,1.62476 23.77413,1.19555 31.37947,-0.8838 z m -28,-23.1108 c -5.72381,-2.11062 -11.05785,-8.2285 -13.00048,-14.9109 -1.35401,-4.65764 -1.56477,-10.11638 -1.30693,-33.84976 0.30498,-28.07317 0.32715,-28.33143 2.80741,-32.70721 3.78246,-6.67317 8.53795,-9.98861 16.13214,-11.247 9.78634,-1.62165 16.91,0.14711 22.29981,5.53693 6.56857,6.56857 7.06805,9.54514 7.06805,42.12068 v 28 l -3,6 c -4.37384,8.74769 -9.0615,11.7193 -19.21266,12.17933 -5.18689,0.23507 -9.12307,-0.13963 -11.78734,-1.12207 z M 849,287 V 276 H 816.5 784 V 257.5 239 H 811.5 839 V 228 217 H 811.5 784 V 200.5 184 H 816.5 849 V 172.5 161 h -46 -46 v 68.5 68.5 h 46 46 z m 150.70207,56.41718 c 0.79373,-8.81192 -1.38064,-25.1285 -5.04951,-37.89211 l -3.18924,-11.09507 4.24575,-5.965 c 10.55143,-14.824 19.86313,-32.85194 24.88143,-48.17144 1.8752,-5.72453 3.4095,-11.28244 3.4095,-12.3509 0,-1.06846 0.4176,-1.94266 0.928,-1.94266 2.7406,0 2.447,26.39135 -0.5229,47 -3.2125,22.29241 -10.0101,44.6708 -19.7444,65 l -5.50652,11.5 z M 580.70814,263.59912 c -2.51064,-28.01177 0.76711,-63.14839 7.85025,-84.15263 2.44153,-7.24008 14.63342,-31.35663 19.53913,-38.64998 C 620.76502,121.96365 640.56877,106.11016 668.5,92.442562 680.06557,86.783175 707.05847,76.537056 704.49676,78.778708 703.94854,79.25843 698.775,83.054545 693,87.214521 641.01641,124.66049 601.56439,178.75202 588.12912,231 c -2.79983,10.88819 -4.248,19.14601 -5.96256,34 l -0.75028,6.5 z M 1016.4807,184.19069 C 991.63014,136.59533 940.27868,97.76443 873.42415,76.014305 838.79813,64.749246 802.57647,60.078301 765.77914,62.133 c -8.84483,0.49388 -16.24972,0.729758 -16.4553,0.524173 -0.59315,-0.593155 17.38652,-7.255239 28.45342,-10.542962 44.13456,-13.111377 91.15063,-13.480065 128.3851,-1.006764 22.5947,7.569079 40.88916,18.826825 57.4139,35.330449 22.06257,22.034364 38.74214,48.636564 50.19904,80.062104 3.7365,10.24896 6.8685,22.18958 6.038,23.02 -0.1987,0.19876 -1.6984,-2.19943 -3.3326,-5.32931 z M 616.48311,118.5 c 2.93415,-4.75502 13.40028,-18.40932 19.46501,-25.394381 9.91538,-11.420051 26.94775,-20.586992 42.74343,-23.004817 7.99068,-1.223122 20.7061,-1.358808 26.75151,-0.285465 l 3.94305,0.700078 -8.44305,2.406011 c -29.06763,8.283375 -62.05085,26.286532 -82.3771,44.963704 -3.86087,3.54764 -3.89961,3.55908 -2.08285,0.61487 z M 666,65.048867 c 3.46149,-2.959306 15.12397,-10.926455 23.45701,-16.024502 l 6.95701,-4.25621 3.45222,1.859147 C 702.61082,48.105354 717,62.987297 717,64.347811 c 0,0.184315 -2.1375,-0.01672 -4.75,-0.446735 -12.31795,-2.027545 -37.17675,-0.641554 -46.75,2.606524 -1.65369,0.561074 -1.56711,0.308485 0.5,-1.458733 z m 52.08039,-9.542807 c -2.91037,-3.587087 -7.32996,-8.316241 -9.82133,-10.50923 l -4.52976,-3.987254 7.73558,-3.525216 c 8.11514,-3.698188 27.59947,-10.753339 28.15725,-10.195559 0.17869,0.17869 -0.7672,1.932048 -2.10198,3.896352 -3.92432,5.775168 -8.2196,14.807308 -10.61192,22.314847 -1.22683,3.85 -2.52437,7.343809 -2.88343,7.764019 -0.35906,0.42021 -3.03405,-2.170871 -5.94441,-5.757959 z M 743,56.958686 c 27.08452,-22.436345 49.36507,-32.982413 75.98976,-35.968292 5.21936,-0.585336 12.64436,-0.777231 16.5,-0.426434 17.87141,1.625997 43.95226,9.417887 62.31994,18.618643 6.42966,3.220754 10.7903,5.591154 9.6903,5.267554 C 899.26401,42.027278 884.79761,38.796719 876,37.415744 863.10319,35.39131 833.60088,35.120901 819.66521,36.899395 796.3355,39.876773 768.65603,47.166838 748.60484,55.614883 742.35048,58.24999 741.0708,58.556804 743,56.958686 Z m -8.61374,-5.252732 c 3.36509,-8.940218 5.87247,-13.588583 10.46128,-19.393863 4.76472,-6.02782 8.98701,-8.811244 15.68467,-10.339665 6.77193,-1.54537 26.84157,-3.914262 32.96779,-3.891307 l 5,0.01874 -9.24803,3.358275 c -16.75841,6.085551 -31.71108,15.095191 -48.50199,29.224562 l -8.75001,7.363047 2.38629,-6.339785 z"
         id="path12634" />
      <path
         style="fill:#136497"
         d="M 38.347877,498.58019 C 20.039689,494.13929 5.0266787,478.66144 1.1211119,460.20078 -0.47268296,452.6673 -0.47268296,47.332699 1.1211119,39.799221 3.171105,30.109406 7.4354172,22.357686 14.727201,15.065903 18.458978,11.334126 23.863373,7.089449 26.736968,5.6332883 38.410157,-0.28196401 25.994711,0.03089515 249.70078,0.01478109 c 145.99851,-0.01051661 206.72965,0.30404554 210.5,1.09030271 18.56542,3.8715777 34.33232,19.7598922 38.32994,38.6251092 2.15065,10.14915 2.15065,410.390467 0,420.539617 -3.91839,18.4913 -18.36805,33.41273 -36.99082,38.19853 -5.26368,1.35269 -30.03525,1.52172 -212,1.44661 -161.153372,-0.0665 -207.162308,-0.3573 -211.192023,-1.33476 z m 50.029625,-75.77935 8.08839,-26.69916 1.275999,4.19916 C 98.44369,402.61038 102.07557,414.625 105.81273,427 l 6.79485,22.5 7.07089,0.29128 7.0709,0.29128 3.0609,-11.29128 c 1.68349,-6.2102 4.86381,-18.04128 7.06739,-26.29128 2.20357,-8.25 6.05756,-22.54404 8.56442,-31.76453 C 147.94893,371.51498 150,363.50996 150,362.94654 c 0,-0.64296 -3.24596,-0.91682 -8.71729,-0.73547 l -8.71729,0.28893 -6.53271,26.20177 c -3.59299,14.41097 -6.77735,26.43061 -7.07635,26.71031 -0.42695,0.39938 -8.50622,-26.36197 -15.14396,-50.16208 -0.90233,-3.2354 -0.93528,-3.25 -7.331469,-3.25 H 90.05587 l -1.671918,5.75 c -0.919554,3.1625 -4.489354,15.425 -7.932888,27.25 -3.443534,11.825 -6.531822,20.825 -6.862862,20 -0.331041,-0.825 -3.424966,-12.975 -6.87539,-27 l -6.273498,-25.5 -8.838271,-0.29066 -8.838271,-0.29067 0.682634,2.79067 c 0.658595,2.69239 21.270693,79.94083 22.302046,83.5819 0.436469,1.5409 1.488069,1.75053 7.52452,1.5 L 80.289113,449.5 Z M 209,405 v -44 h -8.5 -8.5 v 44 44 h 8.5 8.5 z m 117,36 v -8 H 305.5 285 V 422.5 412 H 302.5 320 V 404.5 397 H 302.5 285 V 386.5 376 h 20.5 20.5 v -7.5 -7.5 h -29 -29 v 44 44 h 29 29 z m 73.23367,-18.6595 0.26633,-26.6595 17.02597,26.4095 17.02597,26.4095 7.72403,0.29206 L 449,449.08413 V 405.04206 361 h -8.48367 -8.48366 L 431.76633,387.7047 431.5,414.40939 421,398.18856 c -5.775,-8.92146 -13.56906,-20.93857 -17.32012,-26.70469 L 396.85975,361 H 389.42988 382 v 44 44 h 8.48367 8.48366 z M 341,271.08037 v -26.91964 l -5.25,-1.69656 C 321.38903,237.82334 309.48358,224.90888 305.36135,209.5 c -1.06161,-3.96829 -1.34006,-20.93988 -1.34948,-82.25 L 304,50 h -27.03814 -27.03814 l 0.30973,82.75 c 0.30559,81.64772 0.3389,82.8534 2.50043,90.51256 9.34214,33.1028 31.48382,57.56264 62.28185,68.80253 6.77528,2.47267 19.43708,5.46489 24.73427,5.84517 0.97127,0.0697 1.25,-5.91299 1.25,-26.82989 z m 32.13248,23.91415 c 34.18566,-8.23591 63.17281,-36.66381 71.88133,-70.49452 3.5002,-13.59752 3.93376,-24.62707 3.96039,-100.75 L 449,50 h -27.53358 -27.53358 l 0.65449,75.25 c 0.5892,67.74339 0.49083,75.93801 -0.98612,82.14697 -3.91948,16.47725 -16.58019,30.8562 -30.88725,35.07912 l -4.21396,1.24381 -0.26596,27.07977 -0.26596,27.07977 3.76596,-0.52306 c 2.07128,-0.28769 7.20058,-1.35052 11.39844,-2.36186 z M 159,207.5 V 119 H 132.5 106 V 207.5 296 H 132.5 159 Z M 225,77 V 50 H 132 39 v 27 27 h 93 93 z m 366,421.41446 c -18.55354,-4.94473 -33.09874,-20.00983 -36.89492,-38.21368 -1.54501,-7.40883 -1.5655,-411.312711 -0.0213,-419.767121 3.45033,-18.890231 19.65776,-35.3543452 38.71543,-39.3285752 7.50359,-1.56477684 412.89799,-1.56477684 420.40159,0 13.8848,2.8954965 28.4344,14.0894012 34.2262,26.3322952 5.8966,12.464191 5.6247,0.93666 5.337,226.315611 L 1052.5,460.5 l -2.3808,6.36554 c -4.8431,12.94874 -17.3049,25.41058 -30.2537,30.25364 L 1013.5,499.5 805,499.69014 c -180.42432,0.16453 -209.24061,-0.007 -214,-1.27568 z m 239,-28.5359 c 48.41354,-5.26075 95.68948,-27.60196 131.81572,-62.29218 40.09908,-38.50519 64.89858,-89.24597 70.17758,-143.58638 0.7661,-7.88625 1.0213,-44.33797 0.8119,-116 L 1032.5,43.5 1030.1182,38.229889 C 1026.9175,31.147781 1018.56,23.540742 1011.7619,21.521936 1007.3857,20.222347 996.35994,20 936.292,20 869.50143,20 865.55675,19.900145 858.2235,18.023789 836.62442,12.497236 810.3279,10.226892 787.83912,11.947064 772.49013,13.121111 754.27008,15.983017 748,18.204776 c -2.61114,0.92524 -22.41994,1.374166 -78,1.767712 -73.5563,0.52083 -74.55889,0.554736 -79.14917,2.676678 -5.93107,2.741751 -11.83694,8.647626 -14.92792,14.927923 L 573.5,42.5 v 110 c 0,99.99087 0.15959,111.00464 1.75387,121.04093 10.62994,66.91746 45.82096,122.57856 100.74613,159.34861 45.30124,30.32725 98.25587,43.04634 154,36.98902 z m -53,-6.36952 c -14.16805,-1.71913 -25.28149,-4.0497 -38.83894,-8.1448 -19.9941,-6.03932 -32.21139,-12.80135 -45.18945,-25.01146 -7.22717,-6.79953 -17.38313,-18.2746 -16.74161,-18.91611 0.18383,-0.18383 4.59478,0.74153 9.80212,2.05636 18.78495,4.74312 30.2688,5.79837 55.96788,5.1429 12.925,-0.32966 25.12498,-0.87454 27.11108,-1.21084 l 3.61107,-0.61146 5.24564,9.84318 c 8.48784,15.92703 17.02307,27.09493 26.37201,34.50639 L 809.1796,465 798.3398,464.89155 C 792.37791,464.8319 782.775,464.20977 777,463.50904 Z m 44.41611,-1.09474 c -13.97244,-4.07531 -27.03087,-17.95992 -38.87646,-41.33606 l -2.55241,-5.03693 2.25638,-0.48599 c 1.24101,-0.2673 6.98138,-1.40981 12.75638,-2.53891 5.775,-1.1291 12.975,-2.73838 16,-3.57617 3.025,-0.83778 6.175,-1.69704 7,-1.90946 17.95895,-4.62402 44.30686,-14.83648 67.43998,-26.13977 3.81699,-1.86506 7.25223,-3.39101 7.63386,-3.39101 0.38163,0 1.71971,2.5875 2.97351,5.75 1.25381,3.1625 2.59318,6.2 2.97639,6.75 0.38322,0.55 3.30119,8.63276 6.4844,17.96169 4.0514,11.87331 5.81828,18.59543 5.88976,22.40758 0.10186,5.43289 0.0914,5.45217 -4.3979,8.07843 -23.06651,13.49415 -72.91392,27.16202 -85.58389,23.4666 z m 96.54436,-36.1047 c -1.5823,-7.62192 -9.82119,-31.61072 -14.77029,-43.00601 l -3.9941,-9.19641 10.99852,-6.80359 c 23.84545,-14.75059 49.71792,-36.31891 66.7879,-55.67704 l 9.45583,-10.72335 1.36428,3.7984 c 2.97888,8.29371 5.17135,21.99115 5.18425,32.38844 0.0222,17.87293 -4.1395,30.05438 -14.83059,43.40996 C 970.40142,390.18755 955.95921,405.01352 947,412.48418 938.80908,419.31419 921.2203,432 919.94147,432 c -0.43982,0 -1.33127,-2.56068 -1.981,-5.6904 z m -244.8341,-3.101 c -9.26253,-6.62107 -23.29551,-18.66862 -30.62637,-26.29326 -5.29522,-5.50742 -5.11756,-5.5114 3.429,-0.077 2.98595,1.89866 8.45481,4.85363 12.15303,6.56661 6.03594,2.79579 7.30663,3.93215 12.41746,11.10476 3.13139,4.39464 7.08831,9.45276 8.79314,11.24026 1.70484,1.7875 2.83778,3.25 2.51766,3.25 -0.32013,0 -4.22789,-2.60613 -8.68392,-5.7914 z M 717.5,412.34364 c -13.47973,-1.60274 -20.50443,-2.84466 -30.0901,-5.31969 -18.40464,-4.75212 -17.70656,-4.24776 -23.87084,-17.24652 C 657.76109,377.59328 653.187,363.90402 649.99522,349.24362 647.59924,338.23846 645,316.9726 645,308.37482 c 0,-5.87751 -0.15327,-6.25435 -3.61901,-8.8978 l -3.61902,-2.76036 0.70049,12.39167 c 1.7357,30.70442 8.64488,61.44796 18.42356,81.97862 l 2.74282,5.75866 -5.06442,-2.56124 C 641.74149,387.7994 627.18691,375.84863 617.50001,363.85078 592.49149,332.87609 583.14677,285.4844 593.02607,239.73134 603.68386,190.37295 637.70134,139.19787 685,101.36802 c 10.35705,-8.283651 23.23863,-17.462721 23.7662,-16.935154 0.14898,0.14898 -3.05612,5.175031 -7.12243,11.169003 -11.00543,16.222601 -27.16676,44.619971 -29.1091,51.148131 -0.60028,2.01755 -0.32672,2.24831 2.64794,2.23366 3.24858,-0.016 3.46259,-0.29933 10.31739,-13.65897 9.47975,-18.47553 32.65782,-54.500199 34.12266,-53.035361 0.20462,0.204619 -0.0597,2.810728 -0.58733,5.791353 -1.50586,8.506327 -2.87763,26.683168 -3.62179,47.990898 l -0.68353,19.57157 3.635,2.1447 3.63499,2.1447 v -18.41181 c 0,-10.12649 0.47435,-24.17381 1.05412,-31.21627 1.01687,-12.351959 3.61206,-31.303982 4.39363,-32.085549 0.55885,-0.558859 32.90603,48.346639 41.02872,62.031079 6.92694,11.66995 6.99999,11.75 10.72305,11.75 h 3.74859 l -3.12146,-5.25 c -1.7168,-2.8875 -4.45714,-7.5 -6.08964,-10.25 -5.79313,-9.75875 -20.29927,-32.2019 -29.94436,-46.328389 C 732.27417,73.30131 731.52244,73.803169 755,82.689605 c 41.67789,15.775401 83.28272,40.507995 120.37249,71.557185 3.77988,3.16426 7.15488,5.7432 7.5,5.73097 0.34513,-0.0122 1.66438,-0.82004 2.93166,-1.79515 l 2.30416,-1.77291 -7.80416,-6.52871 C 841.74299,117.62192 800.11824,92.928831 756.62479,76.510543 c -7.63137,-2.880755 -13.48137,-5.479772 -13,-5.775594 0.48136,-0.295821 7.85021,-1.095344 16.37521,-1.776716 26.97649,-2.156134 58.36367,-0.03418 84,5.678871 65.36955,14.5676 123.11902,49.292106 154.60629,92.964096 8.69181,12.05532 20.52561,35.71606 21.15871,42.3053 1.3671,14.2269 -9.1077,43.90936 -23.38519,66.2673 -8.00225,12.53114 -7.14225,12.45053 -12.40703,1.16304 l -4.5786,-9.81635 -1.33055,4.75224 c -1.29702,4.6325 -1.23818,4.95428 2.33502,12.77118 2.24442,4.91 3.36233,8.55768 2.88345,9.4085 -0.43015,0.76426 -4.93672,6.09913 -10.01459,11.85527 -15.89916,18.02288 -36.89929,36.1218 -58.17961,50.14197 -6.92335,4.56132 -13.99108,9.00703 -15.70609,9.87935 l -3.11818,1.58603 -7.76179,-17.20751 C 878.73827,329.06216 861.71408,294.14349 859.63591,291.5 c -1.47414,-1.87514 -1.57406,-1.5942 -1.60037,4.5 -0.0205,4.75615 0.50338,7.37163 1.95282,9.74888 1.99481,3.27172 9.44024,18.92845 23.34802,49.09771 l 7.53565,16.34658 -14.18602,6.83739 c -30.07701,14.49656 -63.71923,25.3216 -97.31495,31.31301 -3.11356,0.55526 -3.15196,0.5084 -7.81189,-9.53153 -14.31007,-30.83143 -23.09067,-58.6417 -33.16069,-105.0278 l -2.76049,-12.71577 -2.31899,3.41271 c -1.27545,1.87699 -2.319,4.05822 -2.319,4.84718 0,2.68546 9.20264,41.12163 13.13978,54.88021 5.654,19.75826 13.38284,40.07984 22.84998,60.07989 1.24666,2.63365 2.08612,4.96899 1.86548,5.18964 -1.72192,1.72192 -40.66524,3.13658 -51.35524,1.86554 z m -19,-113.86441 c 8.96284,-2.30428 15.96687,-6.22227 21.40796,-11.97543 C 729.94718,275.8888 732,268.46767 732,242.7899 V 224 H 704.5 677 v 12 12 h 14 14 v 6.53212 c 0,14.21556 -6.61368,21.07366 -21.38069,22.17084 -9.14751,0.67966 -14.67009,-0.85348 -19.8362,-5.50677 -7.77206,-7.00055 -8.23893,-9.11271 -8.60665,-38.93732 -0.26427,-21.43454 -0.0402,-27.21591 1.22353,-31.56283 3.01734,-10.3793 8.52049,-15.70734 18.32611,-17.74298 13.80643,-2.8662 26.98817,4.56348 28.91402,16.29694 l 0.6155,3.75 H 718.12781 732 l -0.0148,-3.25 c -0.0213,-4.67319 -2.65694,-15.19271 -4.89366,-19.53148 -5.1155,-9.92303 -15.18621,-17.07171 -27.82175,-19.74924 -9.06092,-1.92005 -27.59476,-1.87419 -36.2291,0.0897 -18.03692,4.10241 -29.86069,17.29945 -33.69012,37.60305 -2.25169,11.9384 -1.4707,60.87102 1.09869,68.83802 6.28283,19.48145 17.61694,29.29399 38.12572,33.0075 6.58928,1.19311 22.50046,0.38053 29.925,-1.52827 z m 240,0.18883 c 16.42698,-4.49124 26.29712,-14.53965 31.17634,-31.73946 1.58046,-5.57128 1.82144,-10.36272 1.80701,-35.9286 -0.0181,-31.99262 -0.65626,-37.14788 -5.9963,-48.43579 -5.4119,-11.43981 -16.84291,-19.99169 -30.20757,-22.59918 -9.31738,-1.81785 -28.37609,-0.81677 -35.18972,1.84838 -13.81143,5.40234 -22.99462,15.164 -27.77606,29.52577 -2.65994,7.98951 -2.72486,8.76983 -3.09252,37.17221 -0.41347,31.94158 0.20561,37.34366 5.52921,48.24828 5.62488,11.52171 17.65247,19.99048 32.37014,22.79219 8.53503,1.62476 23.77413,1.19555 31.37947,-0.8838 z m -28,-23.1108 c -5.72381,-2.11062 -11.05785,-8.2285 -13.00048,-14.9109 -1.35401,-4.65764 -1.56477,-10.11638 -1.30693,-33.84976 0.30498,-28.07317 0.32715,-28.33143 2.80741,-32.70721 3.78246,-6.67317 8.53795,-9.98861 16.13214,-11.247 9.78634,-1.62165 16.91,0.14711 22.29981,5.53693 6.56857,6.56857 7.06805,9.54514 7.06805,42.12068 v 28 l -3,6 c -4.37384,8.74769 -9.0615,11.7193 -19.21266,12.17933 -5.18689,0.23507 -9.12307,-0.13963 -11.78734,-1.12207 z M 849,287 V 276 H 816.5 784 V 257.5 239 H 811.5 839 V 228 217 H 811.5 784 V 200.5 184 H 816.5 849 V 172.5 161 h -46 -46 v 68.5 68.5 h 46 46 z m 150.70207,56.41718 c 0.79373,-8.81192 -1.38064,-25.1285 -5.04951,-37.89211 l -3.18924,-11.09507 4.24575,-5.965 c 10.55143,-14.824 19.86313,-32.85194 24.88143,-48.17144 1.8752,-5.72453 3.4095,-11.28244 3.4095,-12.3509 0,-1.06846 0.4176,-1.94266 0.928,-1.94266 2.7406,0 2.447,26.39135 -0.5229,47 -3.2125,22.29241 -10.0101,44.6708 -19.7444,65 l -5.50652,11.5 z M 580.70814,263.59912 c -2.51064,-28.01177 0.76711,-63.14839 7.85025,-84.15263 2.44153,-7.24008 14.63342,-31.35663 19.53913,-38.64998 C 620.76502,121.96365 640.56877,106.11016 668.5,92.442562 680.06557,86.783175 707.05847,76.537056 704.49676,78.778708 703.94854,79.25843 698.775,83.054545 693,87.214521 641.01641,124.66049 601.56439,178.75202 588.12912,231 c -2.79983,10.88819 -4.248,19.14601 -5.96256,34 l -0.75028,6.5 z M 1016.4807,184.19069 C 991.63014,136.59533 940.27868,97.76443 873.42415,76.014305 838.79813,64.749246 802.57647,60.078301 765.77914,62.133 c -8.84483,0.49388 -16.24972,0.729758 -16.4553,0.524173 -0.59315,-0.593155 17.38652,-7.255239 28.45342,-10.542962 44.13456,-13.111377 91.15063,-13.480065 128.3851,-1.006764 22.5947,7.569079 40.88916,18.826825 57.4139,35.330449 22.06257,22.034364 38.74214,48.636564 50.19904,80.062104 3.7365,10.24896 6.8685,22.18958 6.038,23.02 -0.1987,0.19876 -1.6984,-2.19943 -3.3326,-5.32931 z M 616.48311,118.5 c 2.93415,-4.75502 13.40028,-18.40932 19.46501,-25.394381 9.91538,-11.420051 26.94775,-20.586992 42.74343,-23.004817 7.99068,-1.223122 20.7061,-1.358808 26.75151,-0.285465 l 3.94305,0.700078 -8.44305,2.406011 c -29.06763,8.283375 -62.05085,26.286532 -82.3771,44.963704 -3.86087,3.54764 -3.89961,3.55908 -2.08285,0.61487 z M 666,65.048867 c 3.46149,-2.959306 15.12397,-10.926455 23.45701,-16.024502 l 6.95701,-4.25621 3.45222,1.859147 C 702.61082,48.105354 717,62.987297 717,64.347811 c 0,0.184315 -2.1375,-0.01672 -4.75,-0.446735 -12.31795,-2.027545 -37.17675,-0.641554 -46.75,2.606524 -1.65369,0.561074 -1.56711,0.308485 0.5,-1.458733 z m 52.08039,-9.542807 c -2.91037,-3.587087 -7.32996,-8.316241 -9.82133,-10.50923 l -4.52976,-3.987254 7.73558,-3.525216 c 8.11514,-3.698188 27.59947,-10.753339 28.15725,-10.195559 0.17869,0.17869 -0.7672,1.932048 -2.10198,3.896352 -3.92432,5.775168 -8.2196,14.807308 -10.61192,22.314847 -1.22683,3.85 -2.52437,7.343809 -2.88343,7.764019 -0.35906,0.42021 -3.03405,-2.170871 -5.94441,-5.757959 z M 743,56.958686 c 27.08452,-22.436345 49.36507,-32.982413 75.98976,-35.968292 5.21936,-0.585336 12.64436,-0.777231 16.5,-0.426434 17.87141,1.625997 43.95226,9.417887 62.31994,18.618643 6.42966,3.220754 10.7903,5.591154 9.6903,5.267554 C 899.26401,42.027278 884.79761,38.796719 876,37.415744 863.10319,35.39131 833.60088,35.120901 819.66521,36.899395 796.3355,39.876773 768.65603,47.166838 748.60484,55.614883 742.35048,58.24999 741.0708,58.556804 743,56.958686 Z m -8.61374,-5.252732 c 3.36509,-8.940218 5.87247,-13.588583 10.46128,-19.393863 4.76472,-6.02782 8.98701,-8.811244 15.68467,-10.339665 6.77193,-1.54537 26.84157,-3.914262 32.96779,-3.891307 l 5,0.01874 -9.24803,3.358275 c -16.75841,6.085551 -31.71108,15.095191 -48.50199,29.224562 l -8.75001,7.363047 2.38629,-6.339785 z"
         id="path12632" />
      <path
         style="fill:#006a9b"
         d="M 801.40499,449.75 799.5,447.5 l 2.25,1.90499 c 1.2375,1.04774 2.25,2.06024 2.25,2.25 0,0.80025 -0.80479,0.20945 -2.59501,-1.90499 z M 782.8125,415.31689 c 0.72187,-0.28887 1.58438,-0.25335 1.91667,0.0789 0.33229,0.33229 -0.25834,0.56864 -1.3125,0.52522 -1.16495,-0.048 -1.4019,-0.28494 -0.60417,-0.60416 z"
         id="path12630" />
    </g>
    <g
       aria-label="pytesmo"
       id="text12749"
       style="font-size:40px"
       transform="matrix(3.1004935,0,0,3.1004935,-386.31436,-1267.8372)">
      <path
         d="m 230.36539,601.04779 q 0,2.65625 -0.76172,4.86328 -0.76172,2.1875 -2.14844,3.71094 -1.28906,1.44531 -3.04687,2.24609 -1.73829,0.78125 -3.69141,0.78125 -1.69922,0 -3.08594,-0.37109 -1.36719,-0.37109 -2.79297,-1.15234 v 9.14062 h -3.67187 v -29.86328 h 3.67187 v 2.28516 q 1.46485,-1.23047 3.28125,-2.05079 1.83594,-0.83984 3.90625,-0.83984 3.94532,0 6.13282,2.98828 2.20703,2.96875 2.20703,8.26172 z m -3.78907,0.0977 q 0,-3.94532 -1.34765,-5.89844 -1.34766,-1.95313 -4.14063,-1.95313 -1.58203,0 -3.18359,0.6836 -1.60156,0.68359 -3.06641,1.79687 v 12.36328 q 1.5625,0.70313 2.67578,0.95704 1.13282,0.2539 2.5586,0.2539 3.0664,0 4.78515,-2.07031 1.71875,-2.07031 1.71875,-6.13281 z"
         id="path12751" />
      <path
         d="m 254.85757,590.40326 -12.73437,29.86328 h -3.92578 l 4.0625,-9.10156 -8.69141,-20.76172 h 3.98438 l 6.69922,16.17187 6.75781,-16.17187 z"
         id="path12753" />
      <path
         d="m 270.99039,612.02435 q -1.03516,0.27344 -2.26563,0.44922 -1.21094,0.17578 -2.16797,0.17578 -3.33984,0 -5.07812,-1.79687 -1.73828,-1.79688 -1.73828,-5.76172 V 593.4892 h -2.48047 v -3.08594 h 2.48047 v -6.26953 h 3.67187 v 6.26953 h 7.57813 v 3.08594 h -7.57813 v 9.9414 q 0,1.71875 0.0781,2.69532 0.0781,0.95703 0.54687,1.79687 0.42969,0.78125 1.17188,1.15234 0.76172,0.35157 2.30468,0.35157 0.89844,0 1.875,-0.25391 0.97657,-0.27344 1.40625,-0.44922 h 0.19532 z"
         id="path12755" />
      <path
         d="m 293.6857,601.69232 h -16.07422 q 0,2.01172 0.60547,3.51563 0.60547,1.48437 1.66016,2.4414 1.01562,0.9375 2.40234,1.40625 1.40625,0.46875 3.08594,0.46875 2.22656,0 4.47265,-0.8789 2.26563,-0.89844 3.22266,-1.75782 h 0.19531 v 4.00391 q -1.85547,0.78125 -3.78906,1.30859 -1.93359,0.52735 -4.0625,0.52735 -5.42969,0 -8.47656,-2.92969 -3.04688,-2.94922 -3.04688,-8.35937 0,-5.35157 2.91016,-8.4961 2.92969,-3.14453 7.69531,-3.14453 4.41406,0 6.79688,2.57813 2.40234,2.57812 2.40234,7.32421 z m -3.57422,-2.8125 q -0.0195,-2.89062 -1.46484,-4.47265 -1.42578,-1.58204 -4.35547,-1.58204 -2.94922,0 -4.70703,1.73829 -1.73828,1.73828 -1.97266,4.3164 z"
         id="path12757" />
      <path
         d="m 314.83804,605.9306 q 0,2.98828 -2.48047,4.90235 -2.46093,1.91406 -6.73828,1.91406 -2.42187,0 -4.45312,-0.56641 -2.01172,-0.58593 -3.37891,-1.26953 v -4.12109 h 0.19531 q 1.73829,1.30859 3.86719,2.08984 2.12891,0.76172 4.08203,0.76172 2.42188,0 3.78907,-0.78125 1.36718,-0.78125 1.36718,-2.46094 0,-1.28906 -0.74218,-1.95312 -0.74219,-0.66406 -2.85157,-1.13281 -0.78125,-0.17579 -2.05078,-0.41016 -1.25,-0.23438 -2.28515,-0.50781 -2.8711,-0.76172 -4.08204,-2.22657 -1.1914,-1.48437 -1.1914,-3.63281 0,-1.34765 0.54687,-2.53906 0.56641,-1.19141 1.69922,-2.12891 1.09375,-0.91797 2.77344,-1.44531 1.69922,-0.54687 3.78906,-0.54687 1.95313,0 3.94531,0.48828 2.01172,0.46875 3.33985,1.15234 v 3.92578 h -0.19531 q -1.40625,-1.03515 -3.41797,-1.73828 -2.01172,-0.72266 -3.94532,-0.72266 -2.01171,0 -3.39843,0.78125 -1.38672,0.76172 -1.38672,2.28516 0,1.34766 0.83984,2.03125 0.82031,0.68359 2.65625,1.11328 1.01563,0.23438 2.26563,0.46875 1.26953,0.23438 2.10937,0.42969 2.5586,0.58594 3.94531,2.01172 1.38672,1.44531 1.38672,3.82812 z"
         id="path12759" />
      <path
         d="m 351.92789,612.21967 h -3.67188 v -12.42188 q 0,-1.40625 -0.13672,-2.71484 -0.11718,-1.3086 -0.52734,-2.08985 -0.44922,-0.83984 -1.28906,-1.26953 -0.83985,-0.42969 -2.42188,-0.42969 -1.54297,0 -3.08594,0.78125 -1.54296,0.76172 -3.08593,1.95313 0.0586,0.44922 0.0976,1.05469 0.0391,0.58593 0.0391,1.17187 v 13.96485 h -3.67188 v -12.42188 q 0,-1.44531 -0.13672,-2.73437 -0.11719,-1.3086 -0.52734,-2.08985 -0.44922,-0.83984 -1.28906,-1.25 -0.83985,-0.42969 -2.42188,-0.42969 -1.50391,0 -3.02734,0.74219 -1.50391,0.74219 -3.00782,1.89453 v 16.28907 h -3.67187 v -21.81641 h 3.67187 v 2.42187 q 1.71875,-1.42578 3.41797,-2.22656 1.71875,-0.80078 3.65235,-0.80078 2.22656,0 3.76953,0.9375 1.5625,0.9375 2.32422,2.59766 2.22656,-1.875 4.0625,-2.69532 1.83593,-0.83984 3.92578,-0.83984 3.59375,0 5.29297,2.1875 1.71875,2.16797 1.71875,6.07422 z"
         id="path12761" />
      <path
         d="m 377.59195,601.32123 q 0,5.33203 -2.73438,8.41797 -2.73437,3.08593 -7.32421,3.08593 -4.62891,0 -7.36329,-3.08593 -2.71484,-3.08594 -2.71484,-8.41797 0,-5.33203 2.71484,-8.41797 2.73438,-3.10547 7.36329,-3.10547 4.58984,0 7.32421,3.10547 2.73438,3.08594 2.73438,8.41797 z m -3.78906,0 q 0,-4.23828 -1.66016,-6.28906 -1.66016,-2.07032 -4.60937,-2.07032 -2.98829,0 -4.64844,2.07032 -1.64063,2.05078 -1.64063,6.28906 0,4.10156 1.66016,6.23047 1.66016,2.10937 4.62891,2.10937 2.92968,0 4.58984,-2.08984 1.67969,-2.10938 1.67969,-6.25 z"
         id="path12763" />
    </g>
  </g>
</svg>
