<?xml version="1.0" encoding="UTF-8" standalone="no"?>
<svg
   version="1.1"
   id="svg4"
   width="46.236328"
   height="11.208984"
   xmlns="http://www.w3.org/2000/svg"
   xmlns:svg="http://www.w3.org/2000/svg">
  <defs
     id="defs8" />
  <g
     aria-label="QSDsan"
     id="text2"
     transform="translate(-0.67382812,8.90625)">
    <path
       d="m 8.953125,2.1386719 q -0.3515625,0.087891 -0.6972656,0.1230469 -0.3398438,0.041016 -0.6972657,0.041016 -1.0195312,0 -1.640625,-0.5625 Q 5.3027344,1.1835937 5.25,0.140625 5.109375,0.1640625 4.9746094,0.16992187 q -0.1289063,0.0117188 -0.2519532,0.0117188 -0.9199218,0 -1.6757812,-0.30468749 -0.75,-0.30468751 -1.2773438,-0.88476558 -0.5273437,-0.5800781 -0.81445307,-1.4238282 -0.28125001,-0.84375 -0.28125001,-1.9277344 0,-1.0664062 0.28125001,-1.9101562 Q 1.2363281,-7.1191406 1.7753906,-7.7226562 2.2910156,-8.296875 3.0527344,-8.6015625 3.8203125,-8.90625 4.7226562,-8.90625 q 0.9375,0 1.6816407,0.3105469 0.75,0.3046875 1.2714843,0.8730469 0.5332032,0.5859375 0.8144532,1.4355468 0.2871094,0.8496094 0.2871094,1.9277344 0,1.5996094 -0.65625,2.6953125 -0.6503907,1.09570313 -1.7519532,1.53515625 0.023437,0.66796875 0.3164063,1.03710938 0.2929687,0.36914057 1.0664062,0.36914057 0.2402344,0 0.5683594,-0.076172 0.3339844,-0.070312 0.4746094,-0.1289063 H 8.953125 Z M 7.5703125,-4.359375 q 0,-1.6992187 -0.7617188,-2.6191406 -0.7617187,-0.9257813 -2.0800781,-0.9257813 -1.3300781,0 -2.0917968,0.9257813 -0.7558594,0.9199219 -0.7558594,2.6191406 0,1.7167969 0.7734375,2.6308594 0.7734375,0.9082031 2.0742187,0.9082031 1.3007813,0 2.0683594,-0.9082031 0.7734375,-0.9140625 0.7734375,-2.6308594 z"
       id="path10" />
    <path
       d="m 16.957031,-2.4902344 q 0,0.5097657 -0.240234,1.0078125 -0.234375,0.4980469 -0.66211,0.84375003 -0.468749,0.37499999 -1.095703,0.5859375 -0.621093,0.21093749 -1.5,0.21093749 -0.943359,0 -1.699218,-0.17578125 -0.75,-0.17578124 -1.529297,-0.52148437 v -1.453125 h 0.08203 q 0.662109,0.5507813 1.529297,0.8496094 0.867187,0.2988281 1.628906,0.2988281 1.078125,0 1.675781,-0.4042969 Q 15.75,-1.6523437 15.75,-2.3261719 q 0,-0.5800781 -0.287109,-0.8554687 -0.28125,-0.2753907 -0.861328,-0.4277344 -0.439454,-0.1171875 -0.955079,-0.1933594 -0.509765,-0.076172 -1.083984,-0.1933594 -1.160156,-0.2460937 -1.722656,-0.8378906 -0.556641,-0.5976562 -0.556641,-1.5527343 0,-1.0957032 0.925781,-1.7929688 0.925782,-0.703125 2.34961,-0.703125 0.919922,0 1.6875,0.1757812 0.767578,0.1757813 1.359375,0.4335938 v 1.3710938 h -0.08203 q -0.498046,-0.421875 -1.312499,-0.6972657 -0.808594,-0.28125 -1.658204,-0.28125 -0.93164,0 -1.5,0.3867188 -0.5625,0.3867187 -0.5625,0.9960937 0,0.5449219 0.28125,0.8554688 0.28125,0.3105469 0.990235,0.4746094 0.375,0.082031 1.066406,0.1992187 0.691406,0.1171875 1.171875,0.2402344 0.972656,0.2578125 1.464844,0.7792968 0.492187,0.5214844 0.492187,1.4589844 z"
       id="path12" />
    <path
       d="m 26.191406,-4.3535156 q 0,1.1894531 -0.521484,2.15625 -0.515625,0.9667969 -1.376953,1.49999998 Q 23.695312,-0.328125 22.957031,-0.1640625 22.224609,0 21.023437,0 H 18.820312 V -8.7246094 H 21 q 1.277344,0 2.027344,0.1875 0.755859,0.1816406 1.277343,0.5039063 0.890625,0.5566406 1.388672,1.4824219 0.498047,0.9257812 0.498047,2.1972656 z m -1.21289,-0.017578 q 0,-1.0253907 -0.357422,-1.7285157 -0.357422,-0.703125 -1.066407,-1.1074218 Q 23.039062,-7.5 22.458984,-7.6113281 21.878906,-7.7285156 21.070312,-7.7285156 h -1.089843 v 6.73242185 h 1.089843 q 0.837891,0 1.458985,-0.12304685 0.626953,-0.1230469 1.148437,-0.4570313 0.650391,-0.4160156 0.972657,-1.0957031 0.328125,-0.6796875 0.328125,-1.6992186 z"
       id="path14" />
    <path
       d="m 32.654297,-1.8867187 q 0,0.89648432 -0.744141,1.47070307 -0.738281,0.57421875 -2.021484,0.57421875 -0.726563,0 -1.335938,-0.16992187 Q 27.949219,-0.1875 27.539062,-0.39257813 V -1.6289062 h 0.05859 q 0.521485,0.3925781 1.160156,0.6269531 0.638672,0.2285156 1.22461,0.2285156 0.726562,0 1.136719,-0.234375 0.410156,-0.234375 0.410156,-0.7382812 0,-0.3867188 -0.222656,-0.5859376 -0.222657,-0.1992187 -0.855469,-0.3398437 -0.234375,-0.052734 -0.615235,-0.1230469 -0.375,-0.070312 -0.685546,-0.1523437 -0.861329,-0.2285157 -1.22461,-0.6679688 -0.357422,-0.4453125 -0.357422,-1.0898437 0,-0.4042969 0.164063,-0.7617188 0.169922,-0.3574218 0.509765,-0.6386718 0.328125,-0.2753907 0.832032,-0.4335938 0.509765,-0.1640625 1.136718,-0.1640625 0.585938,0 1.183594,0.1464844 0.603516,0.140625 1.001953,0.3457031 v 1.1777344 H 32.33789 Q 31.916016,-5.34375 31.3125,-5.5546875 q -0.603516,-0.2167969 -1.183594,-0.2167969 -0.603515,0 -1.019531,0.234375 -0.416016,0.2285157 -0.416016,0.6855469 0,0.4042969 0.251953,0.609375 0.246094,0.2050781 0.796875,0.3339844 0.304688,0.070312 0.679688,0.140625 0.380859,0.070312 0.632812,0.1289062 0.767579,0.1757813 1.183594,0.6035156 0.416016,0.4335938 0.416016,1.1484376 z"
       id="path16" />
    <path
       d="m 39.316406,0 h -1.095703 v -0.69726562 q -0.146484,0.0996094 -0.398437,0.28124999 -0.246094,0.17578125 -0.480469,0.28125001 Q 37.066406,0 36.708984,0.08789062 q -0.357422,0.09375 -0.83789,0.09375 -0.884766,0 -1.5,-0.5859375 -0.615235,-0.5859375 -0.615235,-1.49414062 0,-0.7441406 0.316407,-1.2011719 0.322265,-0.4628906 0.914062,-0.7265625 0.597656,-0.2636718 1.435547,-0.3574218 0.837891,-0.09375 1.798828,-0.140625 v -0.1699219 q 0,-0.375 -0.134766,-0.6210938 -0.128906,-0.2460937 -0.375,-0.3867187 -0.234375,-0.1347656 -0.5625,-0.1816406 -0.328125,-0.046875 -0.685546,-0.046875 -0.433594,0 -0.966797,0.1171875 -0.533203,0.1113281 -1.101563,0.328125 h -0.05859 v -1.1191407 q 0.322266,-0.087891 0.931641,-0.1933593 0.609375,-0.1054688 1.201172,-0.1054688 0.691406,0 1.201172,0.1171875 0.515625,0.1113281 0.890625,0.3867188 0.36914,0.2695312 0.5625,0.6972656 0.193359,0.4277344 0.193359,1.0605469 z m -1.095703,-1.6113281 v -1.8222657 q -0.503906,0.029297 -1.189453,0.087891 -0.679688,0.058594 -1.078125,0.1699218 -0.474609,0.1347657 -0.767578,0.421875 -0.292969,0.28125 -0.292969,0.7792969 0,0.5625 0.339844,0.8496094 0.339844,0.28125 1.037109,0.28125 0.580078,0 1.060547,-0.2226562 0.480469,-0.2285157 0.890625,-0.5449222 z"
       id="path18" />
    <path
       d="m 46.910156,0 h -1.101562 v -3.7265625 q 0,-0.4511719 -0.05273,-0.84375 Q 45.703125,-4.96875 45.5625,-5.1914062 45.416016,-5.4375 45.140625,-5.5546875 q -0.275391,-0.1230469 -0.714844,-0.1230469 -0.451172,0 -0.943359,0.2226563 -0.492188,0.2226562 -0.94336,0.5683594 V 0 H 41.4375 v -6.5449219 h 1.101562 v 0.7265625 q 0.515625,-0.4277343 1.066407,-0.6679687 0.550781,-0.2402344 1.130859,-0.2402344 1.060547,0 1.617188,0.6386719 0.55664,0.6386719 0.55664,1.8398437 z"
       id="path20" />
  </g>
</svg>
