<?xml version="1.0" encoding="UTF-8" standalone="no"?>
<!-- Created with Inkscape (http://www.inkscape.org/) -->

<svg
   width="37.133816mm"
   height="8.8079939mm"
   viewBox="0 0 131.57651 31.209427"
   id="svg5122"
   version="1.1"
   inkscape:version="1.2.2 (b0a84865, 2022-12-01)"
   sodipodi:docname="RaMa-Scene.svg"
   xmlns:inkscape="http://www.inkscape.org/namespaces/inkscape"
   xmlns:sodipodi="http://sodipodi.sourceforge.net/DTD/sodipodi-0.dtd"
   xmlns="http://www.w3.org/2000/svg"
   xmlns:svg="http://www.w3.org/2000/svg"
   xmlns:rdf="http://www.w3.org/1999/02/22-rdf-syntax-ns#"
   xmlns:cc="http://creativecommons.org/ns#"
   xmlns:dc="http://purl.org/dc/elements/1.1/">
  <defs
     id="defs5124" />
  <sodipodi:namedview
     id="base"
     pagecolor="#ffffff"
     bordercolor="#666666"
     borderopacity="1.0"
     inkscape:pageopacity="0.0"
     inkscape:pageshadow="2"
     inkscape:zoom="0.2"
     inkscape:cx="-1870"
     inkscape:cy="-990"
     inkscape:document-units="px"
     inkscape:current-layer="layer1"
     showgrid="false"
     inkscape:window-width="1585"
     inkscape:window-height="714"
     inkscape:window-x="0"
     inkscape:window-y="25"
     inkscape:window-maximized="0"
     fit-margin-top="0"
     fit-margin-left="0"
     fit-margin-right="0"
     fit-margin-bottom="0"
     inkscape:showpageshadow="2"
     inkscape:pagecheckerboard="0"
     inkscape:deskcolor="#d1d1d1" />
  <metadata
     id="metadata5127">
    <rdf:RDF>
      <cc:Work
         rdf:about="">
        <dc:format>image/svg+xml</dc:format>
        <dc:type
           rdf:resource="http://purl.org/dc/dcmitype/StillImage" />
        <dc:title />
      </cc:Work>
    </rdf:RDF>
  </metadata>
  <g
     inkscape:label="Layer 1"
     inkscape:groupmode="layer"
     id="layer1"
     transform="translate(-82.000685,-807.29952)">
    <path
       style="color:#000000;font-style:normal;font-variant:normal;font-weight:normal;font-stretch:normal;font-size:medium;line-height:normal;font-family:sans-serif;text-indent:0;text-align:start;text-decoration:none;text-decoration-line:none;text-decoration-style:solid;text-decoration-color:#000000;letter-spacing:normal;word-spacing:normal;text-transform:none;direction:ltr;block-progression:tb;writing-mode:lr-tb;baseline-shift:baseline;text-anchor:start;white-space:normal;clip-rule:nonzero;display:inline;overflow:visible;visibility:visible;opacity:1;isolation:auto;mix-blend-mode:normal;color-interpolation:sRGB;color-interpolation-filters:linearRGB;solid-color:#000000;solid-opacity:1;fill:#ff0000;fill-opacity:1;fill-rule:evenodd;stroke:none;stroke-width:3;stroke-linecap:butt;stroke-linejoin:miter;stroke-miterlimit:4;stroke-dasharray:none;stroke-dashoffset:0;stroke-opacity:1;color-rendering:auto;image-rendering:auto;shape-rendering:auto;text-rendering:auto;enable-background:accumulate"
       d="m 96.346887,819.06166 c -0.496632,-0.0126 -1.000837,0.11747 -1.450645,0.40499 -0.814006,0.52028 -1.227346,1.42275 -1.175793,2.3237 -5.168751,3.51167 -7.018134,5.78371 -7.356589,7.85152 -0.188893,1.15406 0.327485,2.17144 0.870725,2.68343 0.543244,0.51199 1.156017,0.70076 1.156017,0.70076 l 0.791748,-2.45426 c 0,0 -0.08576,-0.0354 -0.178668,-0.12304 -0.09291,-0.0875 -0.151215,-0.0448 -0.09487,-0.38898 0.100716,-0.61535 1.373721,-2.72521 6.246929,-6.11066 0.781127,0.38073 1.732982,0.36639 2.518281,-0.13554 1.199489,-0.76665 1.550357,-2.36366 0.783699,-3.56315 -0.479155,-0.74969 -1.283114,-1.16759 -2.110832,-1.18877 z"
       id="path4326"
       inkscape:connector-curvature="0"
       inkscape:transform-center-x="2.1270249"
       inkscape:transform-center-y="4.259396" />
    <path
       style="color:#000000;font-style:normal;font-variant:normal;font-weight:normal;font-stretch:normal;font-size:medium;line-height:normal;font-family:sans-serif;text-indent:0;text-align:start;text-decoration:none;text-decoration-line:none;text-decoration-style:solid;text-decoration-color:#000000;letter-spacing:normal;word-spacing:normal;text-transform:none;direction:ltr;block-progression:tb;writing-mode:lr-tb;baseline-shift:baseline;text-anchor:start;white-space:normal;clip-rule:nonzero;display:inline;overflow:visible;visibility:visible;opacity:1;isolation:auto;mix-blend-mode:normal;color-interpolation:sRGB;color-interpolation-filters:linearRGB;solid-color:#000000;solid-opacity:1;fill:#333333;fill-opacity:1;fill-rule:evenodd;stroke:none;stroke-width:0.69999999;stroke-linecap:butt;stroke-linejoin:miter;stroke-miterlimit:4;stroke-dasharray:none;stroke-dashoffset:0;stroke-opacity:1;color-rendering:auto;image-rendering:auto;shape-rendering:auto;text-rendering:auto;enable-background:accumulate"
       d="m 96.112512,807.30412 c -2.339103,0.0589 -4.696047,0.68393 -6.858653,1.9325 -3.460177,1.99773 -5.797812,5.22477 -6.75792,8.80796 -0.960123,3.5832 -0.548766,7.54559 1.448964,11.00576 1.997732,3.46017 5.22476,5.80118 8.807961,6.76127 3.583182,0.96012 7.547256,0.54709 11.007426,-1.45064 6.92035,-3.99546 9.30441,-12.89505 5.30896,-19.81539 -2.74689,-4.75775 -7.81071,-7.37111 -12.956738,-7.24146 z m 0.104098,3.42177 c 3.923,-0.10661 7.76771,1.88768 9.87579,5.53897 3.06629,5.31097 1.25959,12.05297 -4.05139,15.11926 -2.655486,1.53315 -5.659809,1.83856 -8.398285,1.10478 -1.724914,-0.46218 -3.334366,-1.33616 -4.672615,-2.58228 -0.135409,-0.34166 -0.24583,-0.71634 -0.295503,-1.12156 -0.193803,-1.58097 0.304711,-3.74383 4.214252,-6.3281 l 0.621225,1.07455 2.573884,-4.46442 -5.152805,-0.002 0.669914,1.16018 c -3.022168,2.0069 -4.582732,4.12853 -5.201496,6.08129 -1.070329,-2.38738 -1.223481,-4.979 -0.582612,-7.37074 0.733772,-2.73848 2.500677,-5.18783 5.156171,-6.72099 1.65968,-0.95821 3.460285,-1.4408 5.24347,-1.48926 z"
       id="path4326-7"
       inkscape:connector-curvature="0" />
    <g
       aria-label="RaMa-Scene"
       id="text4165-2"
       style="font-family:Vestula;-inkscape-font-specification:Vestula;letter-spacing:0px;word-spacing:0px;fill:#666666;stroke-width:1px">
      <path
         d="m 123.23729,819.961 q 0,-0.35878 -0.14735,-0.61505 -0.14736,-0.25626 -0.50613,-0.40362 -0.24987,-0.10251 -0.58302,-0.12173 -0.33315,-0.0256 -0.77521,-0.0256 h -0.89054 v 2.5691 h 0.756 q 0.58942,0 0.98663,-0.0577 0.39722,-0.0577 0.66631,-0.26268 0.25626,-0.19861 0.37159,-0.43566 0.12172,-0.24345 0.12172,-0.64708 z m 3.83764,6.61816 h -3.00476 l -2.60114,-3.49808 h -1.13399 v 3.49808 h -2.44737 v -9.53963 h 4.12594 q 0.84569,0 1.45433,0.0961 0.60864,0.0961 1.1404,0.41644 0.53816,0.32034 0.85209,0.83287 0.32034,0.50614 0.32034,1.27495 0,1.05711 -0.49332,1.72341 -0.48691,0.6663 -1.39667,1.10836 z"
         style="-inkscape-font-specification:'Vestula Bold';fill:#333333"
         id="path1160" />
      <path
         d="m 132.1024,824.70199 v -1.49918 q -0.4677,0.0384 -1.01227,0.10892 -0.54457,0.0641 -0.82647,0.15376 -0.34596,0.10891 -0.53176,0.32033 -0.17939,0.20502 -0.17939,0.54458 0,0.22423 0.0384,0.36518 0.0384,0.14095 0.19221,0.26908 0.14735,0.12814 0.35237,0.19221 0.20501,0.0577 0.64067,0.0577 0.34596,0 0.69834,-0.14095 0.35877,-0.14095 0.62786,-0.37159 z m 0,1.11477 q -0.1858,0.14095 -0.46129,0.33956 -0.27549,0.19861 -0.51895,0.31393 -0.33955,0.15376 -0.70474,0.22423 -0.36518,0.0769 -0.80084,0.0769 -1.02508,0 -1.71701,-0.63426 -0.69192,-0.63427 -0.69192,-1.62091 0,-0.78803 0.35237,-1.28775 0.35237,-0.49973 0.99945,-0.78803 0.64067,-0.2883 1.58887,-0.41003 0.9482,-0.12173 1.96687,-0.17939 v -0.0384 q 0,-0.59583 -0.48691,-0.82006 -0.48692,-0.23065 -1.43511,-0.23065 -0.5702,0 -1.21728,0.20502 -0.64708,0.19861 -0.92898,0.30752 h -0.21142 v -1.73622 q 0.36518,-0.0961 1.18524,-0.22424 0.82647,-0.13454 1.65294,-0.13454 1.96687,0 2.83819,0.60864 0.87772,0.60223 0.87772,1.89639 v 4.89475 h -2.2872 z"
         style="-inkscape-font-specification:'Vestula Bold';fill:#333333"
         id="path1162" />
      <path
         d="m 146.36197,826.57916 h -2.44737 v -6.38752 l -1.76826,4.14516 h -1.69779 l -1.76826,-4.14516 v 6.38752 h -2.31924 v -9.53963 h 2.85741 l 2.14626,4.78583 2.13985,-4.78583 h 2.8574 z"
         style="-inkscape-font-specification:'Vestula Bold';fill:#333333"
         id="path1164" />
      <path
         d="m 152.74766,824.70199 v -1.49918 q -0.46769,0.0384 -1.01226,0.10892 -0.54457,0.0641 -0.82647,0.15376 -0.34596,0.10891 -0.53176,0.32033 -0.17939,0.20502 -0.17939,0.54458 0,0.22423 0.0384,0.36518 0.0384,0.14095 0.19221,0.26908 0.14735,0.12814 0.35237,0.19221 0.20501,0.0577 0.64067,0.0577 0.34596,0 0.69833,-0.14095 0.35878,-0.14095 0.62786,-0.37159 z m 0,1.11477 q -0.18579,0.14095 -0.46128,0.33956 -0.27549,0.19861 -0.51895,0.31393 -0.33955,0.15376 -0.70474,0.22423 -0.36518,0.0769 -0.80084,0.0769 -1.02508,0 -1.71701,-0.63426 -0.69192,-0.63427 -0.69192,-1.62091 0,-0.78803 0.35237,-1.28775 0.35237,-0.49973 0.99945,-0.78803 0.64067,-0.2883 1.58887,-0.41003 0.9482,-0.12173 1.96687,-0.17939 v -0.0384 q 0,-0.59583 -0.48691,-0.82006 -0.48692,-0.23065 -1.43511,-0.23065 -0.5702,0 -1.21728,0.20502 -0.64708,0.19861 -0.92898,0.30752 h -0.21142 v -1.73622 q 0.36518,-0.0961 1.18524,-0.22424 0.82647,-0.13454 1.65294,-0.13454 1.96687,0 2.83819,0.60864 0.87772,0.60223 0.87772,1.89639 v 4.89475 h -2.28721 z"
         style="-inkscape-font-specification:'Vestula Bold';fill:#333333"
         id="path1166" />
      <path
         d="m 161.38213,823.26047 h -4.88835 v -1.84514 h 4.88835 z"
         style="-inkscape-font-specification:'Vestula Bold';fill:#333333"
         id="path1168" />
      <path
         d="m 170.66366,823.58081 q 0,1.40948 -1.19806,2.29361 -1.19165,0.87772 -3.24181,0.87772 -1.18524,0 -2.06937,-0.20501 -0.87773,-0.21142 -1.64653,-0.53176 v -2.28721 h 0.26908 q 0.7624,0.60864 1.70419,0.93539 0.9482,0.32674 1.81951,0.32674 0.22424,0 0.58942,-0.0384 0.36519,-0.0384 0.59583,-0.12813 0.2819,-0.11533 0.46129,-0.28831 0.18579,-0.17298 0.18579,-0.51254 0,-0.31393 -0.26908,-0.53816 -0.26268,-0.23064 -0.77522,-0.35237 -0.53816,-0.12814 -1.1404,-0.23705 -0.59582,-0.11532 -1.12117,-0.28831 -1.20447,-0.39081 -1.73623,-1.05711 -0.52535,-0.6727 -0.52535,-1.66575 0,-1.3326 1.19165,-2.17188 1.19806,-0.84569 3.07523,-0.84569 0.94179,0 1.85796,0.18579 0.92257,0.17939 1.59528,0.45488 v 2.19751 h -0.26268 q -0.57661,-0.46128 -1.41589,-0.76881 -0.83288,-0.31393 -1.70419,-0.31393 -0.30753,0 -0.61505,0.0448 -0.30112,0.0384 -0.58301,0.15376 -0.24986,0.0961 -0.42925,0.29471 -0.17939,0.1922 -0.17939,0.44207 0,0.37799 0.2883,0.58301 0.2883,0.19861 1.08915,0.36518 0.52535,0.10892 1.00585,0.21143 0.48692,0.1025 1.0443,0.28189 1.09556,0.35878 1.6145,0.98023 0.52535,0.61505 0.52535,1.60169 z"
         style="-inkscape-font-specification:'Vestula Bold';fill:#333333"
         id="path1170" />
      <path
         d="m 175.69113,826.77136 q -0.94179,0 -1.72341,-0.22423 -0.77522,-0.22424 -1.35182,-0.69193 -0.5702,-0.46769 -0.88413,-1.17884 -0.31393,-0.71115 -0.31393,-1.66575 0,-1.00586 0.33315,-1.73623 0.33955,-0.73036 0.94179,-1.21087 0.58301,-0.45488 1.34541,-0.6663 0.7624,-0.21142 1.58247,-0.21142 0.73677,0 1.35822,0.16016 0.62146,0.16017 1.15962,0.41644 v 1.96687 h -0.32674 q -0.13454,-0.11532 -0.32674,-0.26908 -0.1858,-0.15376 -0.46129,-0.30112 -0.26268,-0.14095 -0.57661,-0.23064 -0.31393,-0.0961 -0.73036,-0.0961 -0.92257,0 -1.4223,0.58942 -0.49332,0.58301 -0.49332,1.58887 0,1.03789 0.50613,1.57606 0.51254,0.53816 1.44793,0.53816 0.43566,0 0.78162,-0.0961 0.35237,-0.10251 0.58301,-0.23705 0.21783,-0.12813 0.38441,-0.26908 0.16657,-0.14095 0.30752,-0.27549 h 0.32674 v 1.96687 q -0.54457,0.25627 -1.1404,0.40362 -0.58942,0.15376 -1.30697,0.15376 z"
         style="-inkscape-font-specification:'Vestula Bold';fill:#333333"
         id="path1172" />
      <path
         d="m 186.47185,823.40783 h -5.27916 q 0.0513,0.84569 0.64068,1.29416 0.59582,0.44847 1.74904,0.44847 0.73037,0 1.41589,-0.26268 0.68552,-0.26267 1.08274,-0.56379 h 0.25627 v 1.85155 q -0.78163,0.31393 -1.47355,0.45488 -0.69193,0.14094 -1.53122,0.14094 -2.16547,0 -3.31869,-0.97382 -1.15321,-0.97382 -1.15321,-2.77412 0,-1.78107 1.08915,-2.81896 1.09555,-1.0443 2.99835,-1.0443 1.75545,0 2.63958,0.89054 0.88413,0.88413 0.88413,2.54988 z m -2.29362,-1.35182 q -0.0192,-0.72397 -0.35877,-1.08915 -0.33956,-0.36518 -1.05712,-0.36518 -0.6663,0 -1.09555,0.34596 -0.42925,0.34596 -0.4805,1.10837 z"
         style="-inkscape-font-specification:'Vestula Bold';fill:#333333"
         id="path1174" />
      <path
         d="m 195.04864,826.57916 h -2.31924 v -3.56855 q 0,-0.43566 -0.0448,-0.86491 -0.0448,-0.43566 -0.15377,-0.64067 -0.12813,-0.23705 -0.37799,-0.34597 -0.24346,-0.10891 -0.68552,-0.10891 -0.31393,0 -0.64068,0.10251 -0.32033,0.1025 -0.69833,0.32674 v 5.09976 h -2.30643 v -7.19476 h 2.30643 v 0.79443 q 0.61504,-0.4805 1.17884,-0.73677 0.5702,-0.25627 1.26213,-0.25627 1.16602,0 1.81951,0.67911 0.65989,0.67912 0.65989,2.03094 z"
         style="-inkscape-font-specification:'Vestula Bold';fill:#333333"
         id="path1176" />
      <path
         d="m 203.97782,823.40783 h -5.27916 q 0.0513,0.84569 0.64068,1.29416 0.59582,0.44847 1.74904,0.44847 0.73037,0 1.41589,-0.26268 0.68552,-0.26267 1.08274,-0.56379 h 0.25627 v 1.85155 q -0.78163,0.31393 -1.47355,0.45488 -0.69193,0.14094 -1.53122,0.14094 -2.16547,0 -3.31869,-0.97382 -1.15321,-0.97382 -1.15321,-2.77412 0,-1.78107 1.08915,-2.81896 1.09555,-1.0443 2.99835,-1.0443 1.75545,0 2.63958,0.89054 0.88413,0.88413 0.88413,2.54988 z m -2.29362,-1.35182 q -0.0192,-0.72397 -0.35877,-1.08915 -0.33956,-0.36518 -1.05712,-0.36518 -0.6663,0 -1.09555,0.34596 -0.42925,0.34596 -0.4805,1.10837 z"
         style="-inkscape-font-specification:'Vestula Bold';fill:#333333"
         id="path1178" />
    </g>
  </g>
</svg>
