<?xml version="1.0" encoding="UTF-8" standalone="no"?>
<!-- Created with Inkscape (http://www.inkscape.org/) -->

<svg
   version="1.1"
   id="svg1906"
   width="200"
   height="200"
   viewBox="0 0 200 200"
   sodipodi:docname="Real-Impact-Tracker-Methodology.svg"
   inkscape:version="1.2.2 (b0a84865, 2022-12-01)"
   xmlns:inkscape="http://www.inkscape.org/namespaces/inkscape"
   xmlns:sodipodi="http://sodipodi.sourceforge.net/DTD/sodipodi-0.dtd"
   xmlns="http://www.w3.org/2000/svg"
   xmlns:svg="http://www.w3.org/2000/svg">
  <defs
     id="defs1910" />
  <sodipodi:namedview
     id="namedview1908"
     pagecolor="#ffffff"
     bordercolor="#666666"
     borderopacity="1.0"
     inkscape:showpageshadow="2"
     inkscape:pageopacity="0.0"
     inkscape:pagecheckerboard="0"
     inkscape:deskcolor="#d1d1d1"
     showgrid="false"
     inkscape:zoom="1.18"
     inkscape:cx="100.42373"
     inkscape:cy="105.50847"
     inkscape:window-width="1376"
     inkscape:window-height="813"
     inkscape:window-x="0"
     inkscape:window-y="25"
     inkscape:window-maximized="0"
     inkscape:current-layer="g1912" />
  <g
     inkscape:groupmode="layer"
     inkscape:label="Image"
     id="g1912">
    <g
       id="g1918">
      <path
         style="fill:#fdfdfd"
         d="M 0,100 V 0 H 100 200 V 100 200 H 100 0 Z"
         id="path1934" />
      <path
         style="fill:#d1d1d1"
         d="M 81,176.99633 C 51.987809,169.80571 29.637841,146.99409 22.479601,117.26717 20.292937,108.18634 20.846814,86.568781 23.485691,78 31.874995,50.758826 53.526828,30.061422 81.116158,22.909928 c 7.201202,-1.86664 10.105315,-2.082346 21.844592,-1.62253 17.47473,0.684469 26.62918,3.476682 40.23212,12.271267 11.90829,7.698952 24.17547,21.923076 29.27171,33.941335 4.53464,10.69385 5.70472,16.139297 6.24062,29.043324 0.65962,15.883256 -1.26336,25.088056 -8.13844,38.956676 -10.2894,20.75607 -29.05531,35.743 -51.97672,41.5099 C 108.21657,179.61981 91.560748,179.61379 81,176.9963 Z m 37.71698,-12.29712 C 147.38819,156.39485 167.11497,130.33538 167.31518,100.5 167.44221,81.570401 161.05353,66.02208 147.63995,52.615827 136.71193,41.693768 125.24241,35.755536 110.25,33.257528 100.57619,31.645696 99.423808,31.646175 89.75,33.266057 74.601597,35.802662 63.20566,41.650901 52.452074,52.40684 46.03541,58.824908 43.415926,62.387705 39.796109,69.620396 26.332496,96.521792 31.189819,126.35705 52.475281,147.5 c 18.220465,18.09848 41.90521,24.24806 66.241699,17.19921 z m -75.109991,-30.281 C 43.273145,133.54823 43,131.32479 43,129.47723 c 0,-1.84756 -0.444998,-3.63422 -0.988885,-3.97036 -0.606309,-0.37472 -0.368376,-1.55818 0.61501,-3.05902 C 44.399579,119.74122 46,119.24085 46,121.39301 c 0,0.76616 0.7875,1.6983 1.75,2.07142 1.652703,0.64069 1.648813,0.75291 -0.06997,2.01839 -2.112701,1.55552 -2.052922,8.19176 0.06997,7.76718 0.6875,-0.1375 1.25,0.425 1.25,1.25 0,2.03125 -4.608984,1.96135 -5.393011,-0.0818 z m 6.801814,0.20473 c -0.290635,-0.75738 -0.389012,-3.55095 -0.218615,-6.20793 0.308615,-4.8122 0.324298,-4.83177 4.059812,-5.06616 4.17002,-0.26164 5.507148,2.26249 1.5,2.8316 -1.920075,0.27269 -2.294692,1.01606 -2.554791,5.06955 -0.293053,4.56706 -1.68268,6.2492 -2.786406,3.37294 z m 8.032492,0.28207 c -1.412601,-2.28563 0.596976,-5.96266 3.58537,-6.56034 3.690873,-0.73818 3.95879,-2.60681 0.310586,-2.16624 -1.464511,0.17687 -2.839283,-0.20274 -3.055047,-0.84357 -0.517845,-1.53802 3.23062,-2.67395 6.289968,-1.9061 C 67.684714,123.95897 68,124.61235 68,128.46004 c 0,2.43206 0.45,4.70004 1,5.03996 2.308096,1.42648 0.65977,2.29722 -4.464562,2.35843 -3.005509,0.0359 -5.747873,-0.39314 -6.094143,-0.95342 z M 65,131.39301 c 0,-1.59262 -0.895931,-1.745 -2.878115,-0.4895 -0.757964,0.48009 -1.081052,1.35354 -0.717975,1.94101 C 62.279354,134.26102 65,133.16287 65,131.39301 Z m 7.571429,3.03556 c -2.149786,-2.14978 -2.002924,-7.7281 0.257312,-9.77358 2.027637,-1.83499 4.897279,-2.11384 7.142299,-0.69405 1.947394,1.23157 0.614312,2.43644 -2.758634,2.49332 -2.158364,0.0364 -2.773799,0.57388 -3.012964,2.63134 -0.355985,3.06241 2.286507,5.82845 3.964795,4.15016 1.649362,-1.64936 4.190447,-0.36805 2.738842,1.38102 -1.546042,1.86287 -6.389998,1.75344 -8.33165,-0.18821 z M 83,127 c 0,-7.33333 0.277778,-9 1.5,-9 1.084766,0 1.5,1.11367 1.5,4.02305 v 4.02306 l 2.531208,-1.65852 c 3.389311,-2.22076 4.363297,-0.96865 1.564196,2.01086 -1.448379,1.54173 -1.86151,2.62807 -1.163498,3.05947 0.595275,0.3679 1.765673,1.99037 2.600886,3.60549 1.362649,2.63508 1.36041,2.93659 -0.02181,2.93659 -0.847209,0 -2.432082,-1.4625 -3.521942,-3.25 l -1.981564,-3.25 -0.0037,3.25 C 86.001184,134.97056 85.524874,136 84.5,136 83.277778,136 83,134.33333 83,127 Z m 12.571429,7.42857 C 94.707143,133.56429 94,131.38403 94,129.58356 c 0,-5.93269 6.3035,-8.84374 9.4433,-4.36105 C 105.98721,128.85446 105.40136,130 101,130 c -4.212685,0 -4.990348,0.93319 -2.5,3 1.174606,0.97484 1.81589,0.98272 2.9562,0.0363 1.9848,-1.64724 4.04879,-0.34975 2.46991,1.55268 -1.56559,1.88642 -6.400661,1.79356 -8.354681,-0.16046 z M 101.5,127 c -0.33992,-0.55 -1.23992,-1 -2,-1 -0.760081,0 -1.660081,0.45 -2,1 -0.351909,0.5694 0.509288,1 2,1 1.49071,0 2.35191,-0.4306 2,-1 z m 5.36706,8.83333 c -0.43121,-1.08118 -0.66274,-9.58766 -0.29629,-10.88527 0.28114,-0.99551 1.69154,-1.58746 3.93376,-1.65102 3.98168,-0.11287 4.68623,1.70629 1.24547,3.21583 -1.78212,0.78186 -2.25,1.80127 -2.25,4.90229 0,2.24244 -0.53405,4.09383 -1.25,4.33334 -0.6875,0.22999 -1.30982,0.26817 -1.38294,0.0848 z M 58.63948,118.30615 C 58.287766,117.95443 58,113.91667 58,109.33333 V 101 h 4.464816 c 3.390777,0 4.713836,0.4653 5.5,1.93426 C 70.623303,107.90169 67.981582,114 63.171259,114 61.688673,114 61,114.61563 61,115.94098 c 0,2.08723 -1.317931,3.40776 -2.36052,2.36517 z M 65.5,107 c 0,-2.83333 -0.380952,-3.5 -2,-3.5 -1.596834,0 -2.063503,0.77167 -2.31502,3.82807 -0.288149,3.50155 -0.117554,3.80009 2,3.5 C 65.101561,110.55646 65.5,109.89761 65.5,107 Z m -30.86052,6.30615 C 34.287766,112.95443 34,110.04167 34,106.83333 34,102.31481 34.338095,101 35.5,101 c 1.165011,0 1.5,1.32678 1.5,5.94098 0,5.54881 -0.859426,7.86626 -2.36052,6.36517 z m 4.769323,-0.68321 c -0.290635,-0.75738 -0.389012,-3.56988 -0.218615,-6.25 L 39.5,101.5 h 8 8 v 5.75 c 0,7.10096 -1.886171,7.67414 -2.304439,0.70028 -0.248447,-4.14241 -0.616281,-5.0167 -2,-4.75375 -1.29172,0.24546 -1.76809,1.58591 -2.00008,5.628 -0.399739,6.96484 -2.583494,6.44366 -2.99992,-0.71597 -0.249577,-4.291 -0.609989,-5.17618 -2,-4.91203 -1.28829,0.24481 -1.768163,1.58099 -1.997821,5.56284 -0.287012,4.97627 -1.641768,6.85304 -2.788937,3.86357 z m 31.582578,-0.13332 c -1.850182,-2.22934 -0.18382,-5.27101 3.565606,-6.50843 4.157635,-1.37214 3.522817,-3.37727 -0.770681,-2.43425 -2.298042,0.50473 -2.916422,0.33886 -2.577788,-0.69146 0.245028,-0.74551 1.965987,-1.5034 3.824354,-1.68419 C 79.082093,100.77736 81,102.85395 81,107.63211 c 0,1.78742 0.45734,3.53251 1.016312,3.87797 1.99124,1.23066 0.0035,2.14831 -4.895243,2.2599 -3.151827,0.0718 -5.396647,-0.39711 -6.129688,-1.28036 z m 6.791673,-3.32377 c 0.298769,-0.9065 -0.292086,-1.22704 -1.843344,-1 -1.25568,0.18378 -2.480924,0.93452 -2.722764,1.6683 -0.298769,0.9065 0.292086,1.22704 1.843344,1 1.25568,-0.18378 2.480924,-0.93452 2.722764,-1.6683 z M 85,112 c -4.103068,-4.10307 -1.238441,-11.35426 4.269052,-10.80619 1.692308,0.1684 3.282749,0.9322 3.534313,1.69732 0.342241,1.04091 -0.176006,1.23216 -2.058566,0.75967 -3.261973,-0.81871 -5.198202,1.40656 -4.308451,4.95161 0.567259,2.26014 1.056721,2.54898 3.493611,2.0616 3.336867,-0.66738 4.495335,0.11862 2.93892,1.99398 C 91.236791,114.62454 87.29492,114.29492 85,112 Z m 11.666667,1.33333 C 96.3,112.96667 96,110.52917 96,107.91667 c 0,-2.82223 -0.50731,-4.98675 -1.25,-5.33334 -1,-0.46666 -1,-0.7 0,-1.16666 0.6875,-0.32084 1.25,-1.22084 1.25,-2.000003 0,-2.036275 1.272371,-1.747359 3.436673,0.780363 1.241567,1.45005 1.487127,2.32837 0.722237,2.58333 -1.798631,0.59955 -1.455895,7.8917 0.40447,8.60559 0.85986,0.32996 1.2833,1.0531 0.94099,1.60699 -0.70187,1.13564 -3.822853,1.35524 -4.837703,0.34039 z M 34,97.5 C 34,96.675 34.675,96 35.5,96 36.325,96 37,96.675 37,97.5 37,98.325 36.325,99 35.5,99 34.675,99 34,98.325 34,97.5 Z m 17.305188,-6.520067 c -2.65301,-1.05725 -4.024079,-6.768155 -2.36786,-9.862828 1.596675,-2.983415 5.674044,-3.778784 8.102967,-1.580639 2.703357,2.446505 2.549464,5.42361 -0.290295,5.615848 -4.118714,0.278818 -4.604903,0.369256 -5.203587,0.967939 -0.32711,0.32711 0.12767,1.194297 1.010622,1.927082 1.249236,1.036774 2.020746,1.072929 3.477806,0.162979 1.308605,-0.817237 2.070946,-0.848164 2.531666,-0.102703 1.396566,2.25969 -3.719935,4.283598 -7.261319,2.872322 z M 55.5,82 c -0.339919,-0.55 -1.239919,-1 -2,-1 -0.760081,0 -1.660081,0.45 -2,1 -0.351909,0.569401 0.509288,1 2,1 1.490712,0 2.351909,-0.430599 2,-1 z m 5.878828,8.235971 c -1.644912,-1.644912 -1.662559,-1.837297 -0.387145,-4.22043 0.545426,-1.019138 2.345426,-2.150309 4,-2.513714 3.950468,-0.867669 3.99586,-2.949336 0.04709,-2.159582 C 61.51981,82.046038 60.119895,80.541386 62.90625,79.050173 67.49393,76.594921 71,79.116587 71,84.871429 71,86.922143 71.54,89.14 72.2,89.8 c 1.305225,1.305225 1.31724,1.30142 -5.071172,1.606234 -2.634643,0.125708 -4.918938,-0.339201 -5.75,-1.170263 z m 6.276095,-2.779099 c 0.325685,-0.848721 0.350103,-1.78518 0.05426,-2.08102 -0.879325,-0.879325 -4.816833,1.640952 -4.178176,2.674321 0.916349,1.482684 3.468164,1.115558 4.123914,-0.593301 z m 7.011744,3.876461 C 74.3,90.966667 74,86.654167 74,81.75 c 0,-6.687972 0.312434,-8.812952 1.25,-8.50172 0.807068,0.267912 1.369581,3.043618 1.58747,7.833333 0.185609,4.080113 0.759595,7.928335 1.275524,8.551604 0.620352,0.749418 0.393688,1.342109 -0.669258,1.75 -1.986795,0.762405 -1.964378,0.762807 -2.777069,-0.04988 z M 40,85.166667 c 0,-6.294733 0.606824,-7.737864 2.568963,-6.109433 0.868105,0.720463 1.452041,0.717799 1.901026,-0.0087 C 45.378539,77.578494 48,77.737647 48,79.262872 c 0,0.694579 -1.0125,1.707079 -2.25,2.25 -1.73723,0.762164 -2.320078,1.955694 -2.557498,5.237128 -0.209367,2.893707 -0.76784,4.25 -1.75,4.25 C 40.35069,91 40,89.581845 40,85.166667 Z"
         id="path1932" />
      <path
         style="fill:#afafaf"
         d="M 84,177.45513 C 45.699944,169.28912 19.229496,134.92171 21.296967,96.04584 22.392918,75.438023 29.444692,59.2717 43.694659,44.698712 58.069612,29.997906 75.034434,22.414382 96.04584,21.296967 141.1543,18.898039 179,54.804273 179,100 c 0,37.16834 -26.72243,69.89593 -63.20784,77.41214 -9.29042,1.91388 -22.930824,1.93232 -31.79216,0.043 z m 33.5,-11.94631 c 11.82872,-3.15289 20.27415,-8.20511 30.03893,-17.96989 C 162.04503,133.03283 167.51461,119.66493 167.39902,99 167.3441,89.181979 166.9338,86.329928 164.59378,79.5 156.97842,57.272768 141.07804,41.69509 119,34.831567 107.93387,31.391377 90.720863,31.591764 79.5,35.291411 37.492233,49.14185 19.468837,97.020473 41.965766,135 c 9.416127,15.89639 27.900244,28.66889 46.239187,31.95119 7.067363,1.26492 21.872927,0.53595 29.295047,-1.44237 z M 44.038391,134.07173 c -1.536414,-2.87081 -1.686247,-11.82387 -0.222377,-13.28774 0.999323,-0.99933 1.365806,-0.80471 1.830429,0.97201 0.319516,1.22183 0.948682,1.99423 1.398149,1.71644 0.449466,-0.27778 1.101828,-0.0446 1.449692,0.51831 0.347864,0.56286 -0.07104,1.29334 -0.930902,1.6233 C 45.415129,126.43841 45.357978,134 47.5,134 c 0.825,0 1.5,0.45 1.5,1 0,1.78526 -3.899856,1.05564 -4.961609,-0.92827 z M 51,130.1135 c 0,-5.79496 0.04733,-5.89345 3.044028,-6.33327 3.867213,-0.56759 4.88985,0.91421 1.516146,2.19689 C 53.333901,126.82355 53,127.54062 53,131.47525 53,133.96386 52.55,136 52,136 c -0.553413,0 -1,-2.62883 -1,-5.8865 z m 7.834206,4.18673 c -1.7034,-2.05247 0.04457,-4.56121 4.013808,-5.76073 4.091272,-1.2364 3.450257,-3.11155 -0.956826,-2.79899 -3.191023,0.22632 -3.276613,0.15254 -1.450058,-1.25 2.300349,-1.76634 3.060047,-1.82784 5.624611,-0.45533 1.468961,0.78617 1.934259,2.10923 1.934259,5.5 0,2.45565 0.45,4.46482 1,4.46482 0.55,0 1,0.36406 1,0.80902 0,1.50008 -9.871909,1.05025 -11.165794,-0.50879 z m 5.584007,-0.90722 C 65.288196,133.05917 66,132.12787 66,131.32346 c 0,-2.10115 -4.397389,-1.25464 -4.813108,0.92654 -0.349254,1.83244 0.579011,2.1608 3.231321,1.14301 z m 8.138491,0.38448 C 70.433385,130.74603 70.602498,127.3975 73,125 c 2.387227,-2.38723 3.954859,-2.509 6.55887,-0.50949 1.822915,1.39974 1.72798,1.47587 -1.55887,1.25 -3.456752,-0.23754 -3.5,-0.19108 -3.5,3.75949 0,3.8764 0.100425,3.99544 3.25,3.85255 3.412771,-0.15483 4.362341,1.00663 1.668213,2.04046 -2.991549,1.14797 -5.307885,0.60259 -6.861509,-1.61552 z M 83,127 c 0,-6.88586 0.311019,-9.06441 1.25,-8.75568 0.6875,0.22604 1.475,2.3634 1.75,4.74967 0.443482,3.84826 0.655137,4.15033 1.872445,2.67235 C 88.627289,124.74985 89.943231,124 90.796759,124 c 1.235592,0 1.120688,0.45897 -0.563796,2.25202 -2.094647,2.22965 -2.096599,2.27684 -0.19655,4.75 1.055513,1.37389 1.929121,3.06048 1.941351,3.74798 0.04155,2.3357 -1.919984,1.26208 -3.654057,-2 l -1.727653,-3.25 -0.548027,2.9175 C 85.746612,134.02213 84.9375,135.52213 84.25,135.75084 83.310667,136.06332 83,133.88844 83,127 Z m 12.556704,6.77749 C 94.700517,132.55512 94,130.53012 94,129.27749 94,126.93326 97.174015,123 99.065741,123 101.57902,123 104,125.22517 104,127.53518 104,129.68545 103.55334,130 100.5,130 c -2.476325,0 -3.5,0.4479 -3.5,1.53138 0,2.10642 2.420373,2.84919 4.92186,1.51044 1.65329,-0.88481 2.07814,-0.82021 2.07814,0.31601 0,3.22138 -6.262861,3.53267 -8.443296,0.41966 z M 101.75,126.75 c -0.22917,-0.6875 -1.24167,-1.25 -2.25,-1.25 -1.008333,0 -2.020833,0.5625 -2.25,1.25 -0.263889,0.79167 0.561111,1.25 2.25,1.25 1.68889,0 2.51389,-0.45833 2.25,-1.25 z M 107,130 c 0,-5.24806 0.2404,-6 1.91821,-6 1.05502,0 2.63002,-0.27314 3.5,-0.60699 0.86999,-0.33384 1.58179,-0.0977 1.58179,0.52475 0,0.62246 -1.125,1.55947 -2.5,2.08224 -2.15828,0.82058 -2.5,1.56898 -2.5,5.47525 0,2.48861 -0.45,4.52475 -1,4.52475 -0.55556,0 -1,-2.66667 -1,-6 z M 58.209558,109.75 58.5,101.5 62.460116,101.17711 C 67.007372,100.80634 69,102.63875 69,107.19113 c 0,3.47334 -3.476136,7.17913 -6.092454,6.49494 C 61.421089,113.29736 61,113.71845 61,115.59362 61,117.09404 60.420048,118 59.459558,118 c -1.286247,0 -1.492515,-1.36137 -1.25,-8.25 z m 7.591507,-3.16483 c -0.226795,-2.32408 -0.856122,-3.164 -2.551065,-3.40472 -2.010479,-0.28553 -2.25,0.1048 -2.25,3.66667 0,2.2828 0.534156,4.17811 1.25,4.43527 2.155414,0.77433 3.864405,-1.48626 3.551065,-4.69722 z m 6.370295,6.63862 C 70.643343,112.71445 70.66225,108.73775 72.2,107.2 c 0.66,-0.66 2.235,-1.2 3.5,-1.2 1.45641,0 2.3,-0.59601 2.3,-1.625 0,-1.28164 -0.65087,-1.49483 -3.080357,-1.00893 -2.212659,0.44253 -2.963826,0.26648 -2.666667,-0.625 0.22753,-0.68259 1.951191,-1.24107 3.830357,-1.24107 3.271946,0 3.428738,0.16943 3.701658,4 0.27198,3.81738 0.487696,4.92351 1.33769,6.85932 0.384942,0.87668 -6.825622,1.57303 -8.951321,0.86447 z m 5.483563,-3.76692 c 0.325685,-0.84872 0.350103,-1.78518 0.05426,-2.08102 C 76.957743,106.62441 73,108.85939 73,110.03518 c 0,1.58809 4.015011,1.08928 4.654923,-0.57831 z m 7.793769,2.08273 c -2.076639,-2.07664 -2.495907,-3.21535 -1.964076,-5.33433 1.015978,-4.04798 2.525797,-5.33935 5.853197,-5.00634 4.235249,0.42388 4.655101,2.64835 0.463185,2.45406 -2.995722,-0.13884 -3.32884,0.13233 -3.602063,2.93218 -0.385921,3.95474 1.808978,6.01615 4.737143,4.44904 C 92.604704,110.14119 93,110.22366 93,111.46482 93,112.30917 92.586804,113 92.081787,113 c -0.505016,0 -1.610005,0.26547 -2.45553,0.58992 -0.913303,0.35047 -2.609023,-0.48178 -4.177565,-2.05032 z M 97.25,113.33772 C 96.491984,113.03185 96,110.93099 96,108 c 0,-2.88889 -0.502874,-5.06801 -1.25,-5.41667 -1,-0.46666 -1,-0.7 0,-1.16666 C 95.4375,101.09583 96,100.19583 96,99.416667 96,98.6375 96.45,98 97,98 c 0.55,0 1,0.675 1,1.5 0,0.825 0.675,1.5 1.5,1.5 0.825,0 1.5,0.45 1.5,1 0,0.55 -0.70087,1 -1.557498,1 -1.213919,0 -1.489665,0.93754 -1.25,4.25 0.198604,2.74495 0.750161,4.16147 1.557498,4 0.6875,-0.1375 1.25,0.425 1.25,1.25 0,1.49302 -1.368407,1.79871 -3.75,0.83772 z M 34.200096,107.329 C 34.630645,99.187591 37,98.83866 37,106.91667 37,111.74446 36.680115,113 35.450096,113 c -1.252925,0 -1.492439,-1.08663 -1.25,-5.671 z M 40,107.01187 v -5.98813 l 6.75,0.0908 c 3.7125,0.05 7.3125,0.54971 8,1.11058 C 56.621712,103.75209 56.407141,113 54.5,113 c -1.133333,0 -1.5,-1.22222 -1.5,-5 0,-4.33333 -0.266667,-5 -2,-5 -1.733333,0 -2,0.66667 -2,5 0,6.36209 -1.789937,6.56594 -2.195209,0.25 -0.255494,-3.98174 -0.62827,-4.75 -2.304791,-4.75 -1.676521,0 -2.049297,0.76826 -2.304791,4.75 C 41.755904,115.09631 40,114.10596 40,107.01187 Z m -5.447214,-8.92646 c -0.321975,-0.520967 -0.159164,-1.210648 0.361804,-1.532624 0.520967,-0.321975 1.210648,-0.159164 1.532624,0.361804 0.321975,0.520967 0.159164,1.210648 -0.361804,1.532624 -0.520967,0.321975 -1.210648,0.159164 -1.532624,-0.361804 z M 41,85.16203 v -5.83797 l 3.5,-0.131579 C 48.620716,79.037568 48.975395,79.678657 45.5,81 43.341722,81.820576 43,82.568981 43,86.475249 43,88.963862 42.55,91 42,91 41.447528,91 41,88.387343 41,85.16203 Z M 50.244834,89.75 C 46.607198,85.20321 48.767089,79 53.987869,79 c 1.884979,0 3.313638,0.694853 3.976947,1.934259 C 59.725811,84.224707 59.14647,85 54.926676,85 c -3.350555,0 -4.00911,0.31052 -3.71143,1.75 0.279387,1.351018 1.23269,1.696967 4.181337,1.517389 3.274467,-0.19942 3.643875,-0.02106 2.588985,1.25 -1.498439,1.805509 -6.365338,1.95176 -7.740734,0.232611 z M 56,82 c 0,-0.55 -0.873442,-1 -1.940983,-1 -1.067541,0 -2.219098,0.45 -2.559017,1 -0.350523,0.567158 0.489616,1 1.940983,1 C 54.848442,83 56,82.55 56,82 Z m 5.340334,7.444513 c -0.913958,-2.381737 0.452437,-4.476311 3.646479,-5.589761 3.911883,-1.363689 3.902258,-3.212239 -0.01373,-2.637493 -1.891355,0.277592 -2.894141,0.0388 -2.672989,-0.636501 0.194662,-0.594417 1.751878,-1.219539 3.46048,-1.389161 3.59235,-0.356632 4.690442,1.122679 5.485967,7.390505 l 0.518108,4.082103 -4.935,0.11241 c -3.459085,0.07879 -5.10078,-0.319601 -5.489313,-1.332102 z m 6.314589,-1.987641 c 0.325685,-0.848721 0.289978,-1.845304 -0.07935,-2.21463 -0.819015,-0.819016 -3.807347,0.953074 -4.349389,2.579201 -0.592536,1.777608 3.743683,1.420653 4.428737,-0.364571 z M 74,82.559017 c 0,-4.642541 0.45,-8.719098 1,-9.059017 0.635069,-0.392494 1,2.322949 1,7.440983 C 76,85.646994 76.416056,89 77,89 c 0.55,0 1,0.45 1,1 0,0.55 -0.9,1 -2,1 -1.842041,0 -2,-0.666667 -2,-8.440983 z"
         id="path1930" />
      <path
         style="fill:#8f8f8f"
         d="M 87.830856,178.04559 C 59.17473,172.78797 36.135165,154.15422 26.409114,128.3694 14.976417,98.060079 22.528596,64.780544 45.827078,42.801937 84.505051,6.3150962 146.62254,17.286541 170.47698,64.81811 c 5.88139,11.719059 7.95131,20.877765 7.95131,35.18189 0,9.91669 -0.45974,14.11182 -2.22458,20.29918 -7.84432,27.50154 -28.24034,48.05671 -55.25719,55.68836 -8.34143,2.35627 -25.633088,3.4309 -33.115664,2.05805 z M 114.30259,166.40976 C 135.01568,161.83327 152.68499,147.65249 161.53829,128.5 182.32723,83.526946 149.47869,32.034727 100,32.034727 c -10.851151,0 -20.213096,2.286011 -30.836425,7.529674 -32.32894,15.957528 -46.358447,56.443434 -30.808748,88.906909 10.088794,21.06262 26.897695,33.84088 51.145173,38.88097 4.895528,1.01758 18.22348,0.51111 24.80259,-0.94252 z M 44.666667,135.33333 C 44.3,134.96667 44,132.74322 44,130.39235 c 0,-2.35087 -0.440785,-4.54674 -0.979521,-4.87969 -0.61674,-0.38117 -0.527649,-1.32894 0.240546,-2.55902 C 44.691769,120.66265 46,120.40618 46,122.41667 c 0,0.77916 0.5625,1.64364 1.25,1.92105 1,0.40351 1,0.52017 0,0.58333 C 45.317247,125.04312 45.563886,134 47.5,134 c 0.825,0 1.5,0.45 1.5,1 0,1.11717 -3.295963,1.3707 -4.333333,0.33333 z M 51,129.97568 c 0,-4.48625 0.337024,-6.0215 1.25,-5.69414 0.6875,0.24651 2.01019,0.0578 2.939312,-0.41937 1.019674,-0.52367 1.935419,-0.46937 2.310174,0.137 0.341474,0.55252 -0.531216,1.44259 -1.939312,1.97795 C 53.407289,126.79565 53,127.58139 53,130.91623 c 0,2.18116 -0.45,4.24385 -1,4.58377 -0.62521,0.3864 -1,-1.68406 -1,-5.52432 z m 8.094489,4.20087 c -1.324984,-2.47575 0.363207,-4.89853 3.964438,-5.68949 3.935267,-0.86433 3.196134,-3.06565 -0.917739,-2.73325 -3.805219,0.30746 -4.052586,-0.4568 -0.575713,-1.7787 C 65.806332,122.36274 68,124.25829 68,129.53518 68,132.27028 68.451979,134 69.166667,134 c 0.641666,0 0.854805,0.31186 0.473641,0.69303 -0.381164,0.38116 -2.7018,0.80973 -5.15697,0.95237 -3.386291,0.19674 -4.687229,-0.15786 -5.388849,-1.46885 z m 6.734259,-2.50776 c 0.270335,-1.41772 -0.176649,-1.75642 -1.979569,-1.5 -1.293707,0.184 -2.483945,1.14511 -2.677927,2.16242 -0.270335,1.41772 0.176649,1.75642 1.979569,1.5 1.293707,-0.184 2.483945,-1.14511 2.677927,-2.16242 z M 73,134 c -4.352587,-4.35259 -0.04227,-12.48839 5.491316,-10.36496 2.411435,0.92536 1.741651,2.13215 -0.902798,1.62663 -3.294634,-0.62981 -5.289355,2.90475 -3.65885,6.48331 0.950898,2.087 1.617704,2.39555 4.102881,1.89851 3.095544,-0.61911 4.135733,0.69422 1.385664,1.74952 C 76.71532,136.43021 75.073969,136.07397 73,134 Z m 10.75,1.4289 C 82.624275,134.28481 82.846855,119.21268 84,118.5 c 0.610812,-0.3775 1,1.15628 1,3.94098 0,4.73365 0.872133,5.62294 3,3.05902 0.684689,-0.825 1.977289,-1.48503 2.872445,-1.46673 1.270215,0.026 1.113507,0.46161 -0.713752,1.98423 l -2.341307,1.95096 2.091307,3.3838 C 92.16196,134.99812 92.443681,136 91.215608,136 c -0.431416,0 -1.581858,-1.35 -2.556537,-3 -2.263908,-3.83249 -3.451069,-3.80299 -3.845713,0.0956 -0.172347,1.70256 -0.650858,2.75256 -1.063358,2.33333 z m 11.63742,-1.96038 c -2.054269,-3.13521 -0.88356,-8.37363 2.117697,-9.47578 C 100.71764,122.813 104,124.5692 104,127.46778 104,129.75905 103.61604,130 99.964816,130 c -3.793344,0 -3.967616,0.12625 -2.907788,2.10656 0.886917,1.65722 1.74764,1.98251 4.035182,1.525 3.05031,-0.61006 4.04897,0.71655 1.326,1.76145 -3.110785,1.19372 -5.397846,0.5677 -7.03079,-1.92449 z M 101.75,126.75 c -0.22917,-0.6875 -1.24167,-1.25 -2.25,-1.25 -1.008333,0 -2.020833,0.5625 -2.25,1.25 -0.263889,0.79167 0.561111,1.25 2.25,1.25 1.68889,0 2.51389,-0.45833 2.25,-1.25 z m 5.25,3.16667 c 0,-4.43905 0.33787,-5.96219 1.25,-5.63513 0.6875,0.24651 2.01019,0.0578 2.93931,-0.41937 1.01968,-0.52367 1.93542,-0.46937 2.31018,0.137 0.34147,0.55252 -0.53122,1.44259 -1.93932,1.97795 C 109.3339,126.82355 109,127.54062 109,131.47525 109,133.96386 108.55,136 108,136 c -0.55708,0 -1,-2.69444 -1,-6.08333 z m -47.997995,-20.10765 0.002,-8.30902 3.476446,-0.24771 c 4.34462,-0.30956 7.138666,3.1448 6.050498,7.48041 -0.794994,3.16751 -2.115157,4.23044 -5.280953,4.25199 -1.55527,0.0106 -2.25,0.61463 -2.25,1.95629 0,1.06754 -0.45,2.2191 -1,2.55902 -0.636077,0.39312 -0.99927,-2.40581 -0.997995,-7.69098 z m 5.570937,1.42567 C 67.811209,109.01731 66.636108,103 62.964816,103 61.353435,103 61,103.68955 61,106.83333 c 0,4.83711 1.049145,6.1295 3.572942,4.40136 z M 35,106.94098 c 0,-3.7847 0.375361,-5.82703 1,-5.44098 0.55,0.33992 1,3.06648 1,6.05902 C 37,110.55156 36.55,113 36,113 c -0.556638,0 -1,-2.68634 -1,-6.05902 z m 5,0.23385 v -5.82518 l 7.009453,-0.0914 C 55.023034,101.15371 56,101.98783 56,108.93426 56,114.65146 54.202073,114.00402 53.405612,108 52.877345,104.01773 52.361469,103 50.871169,103 49.292433,103 49,103.78142 49,108 c 0,6.36209 -1.789937,6.56594 -2.195209,0.25 -0.260099,-4.05349 -0.634716,-4.79686 -2.554791,-5.06955 -2.079471,-0.29533 -2.25,0.0647 -2.25,4.75 C 42,110.7187 41.55,113 41,113 c -0.552221,0 -1,-2.60839 -1,-5.82517 z m 31.340334,4.26968 c -0.945026,-2.4627 0.480931,-4.45876 3.636063,-5.08979 4.158509,-0.8317 4.155426,-3.74784 -0.0033,-3.13746 -1.89352,0.27791 -2.892027,0.0396 -2.666667,-0.6365 0.198139,-0.59442 1.897753,-1.08076 3.776919,-1.08076 3.33307,0 3.424466,0.10962 3.735422,4.48038 0.175315,2.46421 0.72937,4.97514 1.231232,5.57985 0.641078,0.77245 -0.584767,1.13357 -4.121432,1.21413 -3.546741,0.0808 -5.19767,-0.31209 -5.588221,-1.32985 z m 5.077879,-0.0515 c 1.867343,-0.71657 2.146506,-4.39993 0.331787,-4.3777 -2.291159,0.0281 -4.048845,1.76353 -3.427102,3.38377 0.688061,1.79305 0.864875,1.84983 3.095315,0.99393 z m 8.826867,0.45207 C 84.560286,111.16029 84,108.90583 84,106.83518 c 0,-4.14187 2.313488,-6.2154 6.301585,-5.64797 2.91069,0.41413 1.886402,2.19263 -1.301585,2.25998 -2.047329,0.0433 -2.554513,0.61144 -2.801065,3.13798 -0.399385,4.09271 2.08265,6.34458 4.991075,4.52824 1.658848,-1.03597 1.948345,-1.02503 1.591787,0.0602 -0.579711,1.76436 -5.964123,2.2441 -7.536717,0.67151 z m 11.421587,0.48825 C 96.3,111.96667 96,109.71667 96,107.33333 96,104.95 95.592338,103 95.094085,103 c -0.498253,0 -0.385753,-1.12149 0.25,-2.4922 C 96.634328,97.725987 98,97.207775 98,99.5 c 0,0.825 0.675,1.5 1.5,1.5 0.825,0 1.5,0.45 1.5,1 0,0.55 -0.675,1 -1.5,1 -2.259367,0 -2.046862,7.5821 0.25,8.9199 1.59207,0.9273 1.56198,1.02203 -0.333333,1.04969 -1.145834,0.0167 -2.383334,-0.26959 -2.75,-0.63626 z M 34.552786,98.08541 c -0.321975,-0.520967 -0.159164,-1.210648 0.361804,-1.532624 0.520967,-0.321975 1.210648,-0.159164 1.532624,0.361804 0.321975,0.520967 0.159164,1.210648 -0.361804,1.532624 -0.520967,0.321975 -1.210648,0.159164 -1.532624,-0.361804 z M 41,85.16203 v -5.83797 l 3.5,-0.131579 C 48.620716,79.037568 48.975395,79.678657 45.5,81 43.341722,81.820576 43,82.568981 43,86.475249 43,88.963862 42.55,91 42,91 41.447528,91 41,88.387343 41,85.16203 Z m 9.24508,4.68305 C 48.656416,88.256416 48.626118,81.773882 50.2,80.2 52.101469,78.298531 56.791576,78.742038 57.964816,80.934259 59.725811,84.224707 59.14647,85 54.926676,85 c -3.34966,0 -4.009447,0.310904 -3.713777,1.75 0.262429,1.277307 1.241397,1.708674 3.624322,1.597005 2.070623,-0.09703 3.126511,0.268735 2.886766,1 -0.533847,1.628322 -5.985589,1.991393 -7.478907,0.498075 z M 56,82.434017 C 56,80.433827 54.089908,79.680494 52.456195,81.036355 50.314687,82.813648 50.674855,83.75 53.5,83.75 c 1.400186,0 2.5,-0.578934 2.5,-1.315983 z m 5.288176,6.874573 C 60.395248,86.981658 62.327023,84.544756 65.350862,84.183578 66.807888,84.009545 68,83.248603 68,82.492595 68,80.390617 66.274051,79.782965 63.904965,81.050861 62.195558,81.965708 61.858338,81.924987 62.217631,80.847106 62.477301,80.068098 64.107535,79.5 66.083333,79.5 c 3.33307,0 3.424466,0.109623 3.735422,4.480381 0.175315,2.46421 0.72937,4.975142 1.231232,5.57985 0.641078,0.772451 -0.584767,1.133573 -4.121432,1.214131 -3.740304,0.0852 -5.189759,-0.291474 -5.640379,-1.465772 z M 68,87 C 68,84.90871 67.224768,84.592782 64.581787,85.606989 62.052684,86.577497 62.708258,89 65.5,89 67.333333,89 68,88.466667 68,87 Z m 6.666667,3.333333 C 73.580259,89.246926 73.891421,74 75,74 c 0.577778,0 1,3.166667 1,7.5 0,4.333333 0.422222,7.5 1,7.5 0.55,0 1,0.45 1,1 0,1.124722 -2.310859,1.355808 -3.333333,0.333333 z"
         id="path1928" />
      <path
         style="fill:#6f6f6f"
         d="M 88.538918,177.95369 C 69.182081,174.91919 51.170957,164.66351 38.963245,149.72491 32.770026,142.14625 25.673367,127.95928 23.343801,118.5 20.763574,108.0229 20.989308,89.759036 23.823342,79.700818 32.109686,50.291911 54.860525,29.019107 84.634678,22.840161 101.64637,19.309773 118.23316,21.516296 134.5,29.47369 c 16.32753,7.987086 28.03601,19.69502 36.02799,36.02631 5.93322,12.124281 7.79339,20.339921 7.81146,34.5 0.0178,13.96282 -1.80475,21.95593 -7.86657,34.5 -7.85892,16.26289 -19.63135,28.04696 -35.97288,36.00843 -4.95,2.4116 -12.10823,5.0937 -15.90718,5.96021 -8.82262,2.01238 -22.40798,2.68367 -30.053902,1.48505 z M 116.37676,166.03152 C 146.71477,158.27236 168,131.04633 168,100 168,70.985982 149.19465,44.760749 121.59045,35.278988 114.30672,32.7771 112.15388,32.5 100,32.5 87.758275,32.5 85.723813,32.766381 78.17231,35.357995 58.206496,42.2101 42.1997,58.250625 35.312901,78.307716 32.759348,85.744676 32.503942,87.744693 32.542752,100 c 0.0377,11.90464 0.35875,14.4454 2.716737,21.5 11.132528,33.30618 47.323895,53.17441 81.117271,44.53152 z M 44.666667,135.33333 C 44.3,134.96667 44,132.80667 44,130.53333 44,128.26 43.46,125.86 42.8,125.2 c -0.933333,-0.93333 -0.933333,-1.2 0,-1.2 0.66,0 1.2,-0.675 1.2,-1.5 0,-1.24114 0.311977,-1.198 1.807796,0.25 1.426153,1.38056 1.531708,1.91882 0.5,2.54969 -1.838159,1.124 -1.688497,7.61699 0.192204,8.33868 0.825,0.31659 1.5,0.97746 1.5,1.46862 0,1.04075 -2.358762,1.20091 -3.333333,0.22634 z M 51,130.2112 v -5.90684 l 3.25,-0.0519 c 3.021356,-0.0482 3.091708,0.0222 1,1.00064 -1.819902,0.85132 -2.25,1.87222 -2.25,5.34069 0,2.35849 -0.45,4.56628 -1,4.9062 -0.623557,0.38538 -1,-1.60556 -1,-5.2888 z m 8.355627,4.27316 c -1.067575,-2.78205 0.198085,-4.87114 3.463837,-5.71738 3.881793,-1.00588 3.745257,-3.35846 -0.178678,-3.07872 C 61.188354,125.79181 60,125.45431 60,124.93826 60,124.42222 61.566427,124 63.480948,124 c 3.714457,0 3.818931,0.17235 4.851394,8.00346 l 0.461901,3.50346 -4.456921,0.17249 c -2.975501,0.11516 -4.631349,-0.28206 -4.981695,-1.19505 z M 65.819551,131.25 c 0.37657,-2.65148 -0.551452,-2.82651 -3.613775,-0.68158 -2.615905,1.83225 -1.965921,3.68117 1.138584,3.23877 1.352311,-0.19271 2.274725,-1.14568 2.475191,-2.55719 z m 8.042063,3.73236 C 69.170659,132.24284 71.543485,124 77.023053,124 78.660374,124 80,124.3876 80,124.86133 c 0,0.47373 -1.085167,0.65388 -2.411482,0.40034 -3.294634,-0.62981 -5.289355,2.90475 -3.65885,6.48331 0.96433,2.11648 1.600976,2.39889 4.224817,1.87412 2.665635,-0.53312 2.918703,-0.41221 1.845006,0.88151 -1.413053,1.70263 -3.735245,1.88489 -6.137877,0.48175 z M 84.340285,127 c 0.01112,-5.225 0.188756,-7.3625 0.394754,-4.75 0.391856,4.96955 1.183698,5.75777 3.264961,3.25 0.684689,-0.825 1.709534,-1.5 2.277432,-1.5 0.567899,0 0.287799,0.82293 -0.622444,1.82874 -2.117872,2.34022 -2.090585,2.66307 0.523978,6.19945 1.198431,1.62097 1.922522,3.20366 1.609091,3.51709 -0.313431,0.31343 -1.549608,-0.80604 -2.74706,-2.4877 -2.780658,-3.90508 -3.814826,-3.85899 -4.317601,0.19242 -0.221827,1.7875 -0.394227,-1.025 -0.383111,-6.25 z m 12.250845,7.69029 c -1.796166,-1.31338 -2.511274,-7.39245 -1.132113,-9.62398 1.051692,-1.70167 7.237413,-1.29978 7.933993,0.51548 0.98585,2.56907 0.69739,4.51762 -0.64301,4.34356 -0.6875,-0.0893 -2.50333,-0.109 -4.035184,-0.0438 -2.512125,0.10686 -2.674654,0.32501 -1.657788,2.22504 0.901343,1.68417 1.734881,1.98506 4.157122,1.50061 2.61153,-0.52231 2.85796,-0.39898 1.78534,0.89344 -1.53339,1.84762 -4.03955,1.9218 -6.40836,0.18968 z M 102,126.96862 c 0,-1.8756 -3.1266,-2.27059 -4.791827,-0.60536 C 95.692514,127.87891 95.809219,128 98.785714,128 100.55357,128 102,127.53588 102,126.96862 Z m 5,2.69341 v -5.33797 l 3.75,-0.13559 c 3.63886,-0.13158 3.6759,-0.0986 1.25,1.11135 -1.97797,0.98658 -2.56421,2.12952 -2.8075,5.47357 C 108.74904,136.8688 107,135.98223 107,129.66203 Z M 59.149832,109.96781 59,101.43562 l 3.73383,0.0322 c 3.070722,0.0265 3.968385,0.52057 5.054566,2.78219 1.950844,4.06199 -0.186843,8.14175 -4.484605,8.55883 -2.585206,0.25088 -3.259399,0.81377 -3.593213,3 -0.226003,1.48014 -0.478338,-1.14831 -0.560746,-5.84102 z m 6.900015,-0.061 c 0.616119,-1.15123 0.841256,-3.2046 0.500306,-4.56306 -0.49762,-1.98267 -1.15552,-2.40816 -3.335031,-2.15686 -2.280479,0.26295 -2.767018,0.85656 -3.039305,3.7082 -0.474841,4.97295 3.683395,7.10496 5.87403,3.01172 z M 35.320074,107 c 0,-3.575 0.181495,-5.0375 0.403322,-3.25 0.221826,1.7875 0.221826,4.7125 0,6.5 -0.221827,1.7875 -0.403322,0.325 -0.403322,-3.25 z M 40,107.21817 v -5.78183 l 7.25,0.0318 7.25,0.0318 0.121573,6 0.121574,6 -0.621574,-5 c -0.52163,-4.19605 -0.983352,-5.05138 -2.871573,-5.31955 -2.079471,-0.29533 -2.25,0.0647 -2.25,4.75 C 49,110.7187 48.55,113 48,113 c -0.55,0 -1,-2.25 -1,-5 0,-4.66667 -0.166667,-5 -2.5,-5 -2.333333,0 -2.5,0.33333 -2.5,5 0,2.75 -0.45,5 -1,5 -0.551363,0 -1,-2.59394 -1,-5.78183 z m 31.340334,4.22634 c -0.945026,-2.4627 0.480931,-4.45876 3.636063,-5.08979 4.138455,-0.82769 4.160401,-3.74857 0.0236,-3.14141 -3.62849,0.53255 -4.019993,-0.9192 -0.487014,-1.80593 C 78.178123,100.48749 80,102.52344 80,107.53911 c 0,2.49598 0.512153,4.46494 1.223026,4.7019 0.672664,0.22422 -1.151041,0.46175 -4.052678,0.52784 -3.761027,0.0857 -5.434847,-0.29455 -5.830014,-1.32434 z m 5.077879,-0.0515 c 1.867343,-0.71657 2.146506,-4.39993 0.331787,-4.3777 -2.291159,0.0281 -4.048845,1.76353 -3.427102,3.38377 0.688061,1.79305 0.864875,1.84983 3.095315,0.99393 z M 85.2,111.8 c -0.66,-0.66 -1.2,-2.65286 -1.2,-4.42857 0,-5.19605 4.202773,-7.968737 8,-5.27783 1.169866,0.82903 0.886909,0.96472 -1.285652,0.61655 -3.884031,-0.62246 -5.939934,2.34429 -4.49564,6.48739 0.919181,2.63677 1.398555,2.92901 3.963187,2.41608 1.796858,-0.35937 2.683704,-0.20517 2.308799,0.40144 C 91.63889,113.39331 86.646028,113.24603 85.2,111.8 Z m 11.463129,0.45 c -0.477592,-0.7874 -1.01326,-9.36739 -0.792176,-12.688561 0.120138,-1.804723 0.281449,-1.774977 2.336491,0.430851 1.462797,1.57013 1.800136,2.50518 1,2.7719 -1.937255,0.64575 -1.503588,7.96394 0.542556,9.15571 1.57271,0.91602 1.52804,1.02236 -0.440983,1.04969 -1.205041,0.0167 -2.39569,-0.30709 -2.645888,-0.71959 z M 41,85.166667 c 0,-5.814815 0.0095,-5.833334 3,-5.833334 3.405464,0 4.00394,1.170868 1,1.956416 -1.633838,0.427258 -2,1.364016 -2,5.116631 C 43,88.932871 42.55,91 42,91 41.447619,91 41,88.388889 41,85.166667 Z m 9.572769,4.263245 c -2.084801,-2.084801 -1.750775,-8.30296 0.522454,-9.72589 0.877373,-0.549192 2.789873,-0.698693 4.25,-0.332224 C 57.325836,79.8689 58,80.668126 58,82.519052 58,84.687754 57.559499,85 54.5,85 c -3.58941,0 -4.566081,1.533919 -2.373026,3.726974 0.760512,0.760512 1.926577,0.822965 3.585979,0.192061 1.844103,-0.701126 2.355706,-0.62035 2.045908,0.323026 -0.638243,1.943532 -5.30833,2.065613 -7.186092,0.187851 z M 55.809629,82.25 C 55.624269,81.2875 54.584935,80.5 53.5,80.5 c -1.084935,0 -2.124269,0.7875 -2.309629,1.75 C 50.937944,83.56075 51.517661,84 53.5,84 c 1.982339,0 2.562056,-0.43925 2.309629,-1.75 z m 5.478547,7.05859 c -0.899237,-2.343374 1.046254,-4.764904 4.122114,-5.130747 1.918997,-0.228245 2.608004,-0.811262 2.363596,-2 -0.248717,-1.209693 -1.172111,-1.589148 -3.309428,-1.359963 -2.21977,0.238028 -2.681054,0.02998 -1.83628,-0.828177 0.620497,-0.630332 2.420497,-0.998378 4,-0.817881 2.629094,0.30044 2.898763,0.706863 3.190577,4.808559 0.175315,2.46421 0.72937,4.975142 1.231232,5.57985 0.641078,0.772451 -0.584767,1.133573 -4.121432,1.214131 -3.740304,0.0852 -5.189759,-0.291474 -5.640379,-1.465772 z M 68,86.930449 c 0,-1.571851 -0.538639,-1.992703 -2.239784,-1.75 C 62.436468,85.65465 62.144337,89 65.426676,89 67.36216,89 68,88.487029 68,86.930449 Z m 6.666667,3.402884 C 73.580259,89.246926 73.891421,74 75,74 c 0.575342,0 1,3.1 1,7.3 0,4.344444 0.485845,7.785845 1.2,8.5 0.933333,0.933333 0.859259,1.2 -0.333333,1.2 -0.843334,0 -1.833334,-0.3 -2.2,-0.666667 z"
         id="path1926" />
      <path
         style="fill:#4f4f4f"
         d="M 89.660516,177.8682 C 70.339043,175.38558 49.673653,163.73023 38.347269,148.92736 27.226918,134.39376 21.827469,118.89507 21.650287,101 21.510619,86.89378 23.462223,78.111918 29.539495,65.5 39.384314,45.069441 55.899484,31.223524 78.537231,24.421486 86.199982,22.119034 89.313081,21.728414 100,21.728414 c 10.69584,0 13.79899,0.390027 21.5,2.702282 27.49372,8.255087 47.30596,28.609355 54.57618,56.069304 2.87947,10.875876 2.93377,27.93425 0.12254,38.5 -8.5504,32.13595 -34.48706,54.89756 -67.17249,58.94952 -9.395839,1.16479 -9.676806,1.16361 -19.365714,-0.0813 z m 32.557754,-13.32428 c 19.66617,-6.88805 35.65173,-22.98383 42.42373,-42.71623 2.61693,-7.62527 2.85641,-9.50856 2.83913,-22.32769 -0.017,-12.626489 -0.27988,-14.719583 -2.67922,-21.334604 C 160.89258,67.387309 156.41603,60.416026 148,52 134.67416,38.674157 121.82701,32.982431 103.34762,32.217463 81.920727,31.330482 66.691014,37.169336 51.930175,51.930175 41.987343,61.873007 36.24591,72.013061 33.454316,84.56074 c -2.464035,11.075368 -1.668987,27.40779 1.81446,37.27386 7.843387,22.21462 26.110538,38.9993 48.647595,44.6996 3.809602,0.96356 9.55512,1.30119 18.083629,1.06265 10.42968,-0.29171 13.77834,-0.79735 20.21827,-3.05293 z M 45.25,135.33772 C 44.487883,135.0302 44,132.91433 44,129.91667 c 0,-3.2585 -0.421568,-4.92183 -1.25,-4.93198 -0.864752,-0.0106 -0.910965,-0.24174 -0.149944,-0.75 0.605031,-0.40408 1.357004,-1.40969 1.671053,-2.23469 0.468834,-1.23162 0.585121,-1.20001 0.649944,0.17668 0.04342,0.92217 0.866447,1.88247 1.828947,2.13399 1.666667,0.43555 1.666667,0.46285 0,0.57333 -2.316894,0.15358 -2.537442,7.8766 -0.25,8.75437 0.825,0.31659 1.5,0.97746 1.5,1.46862 0,0.9625 -0.775276,1.02755 -2.75,0.23073 z m 15,0 C 59.5625,135.06031 59,134.02593 59,133.03911 c 0,-2.2176 2.486837,-4.4073 4.216378,-3.7126 0.850817,0.34175 0.72964,0.54221 -0.359389,0.59454 -2.193322,0.10539 -3.233983,2.99705 -1.34013,3.72379 2.947621,1.13111 4.361045,-0.40837 4.302014,-4.6857 -0.05514,-3.99525 -0.165477,-4.13527 -2.938082,-3.72834 C 61.296356,125.46335 60,125.28155 60,124.82681 60,124.37206 61.566427,124 63.480948,124 c 3.731136,0 3.80355,0.12214 4.891402,8.25 0.473102,3.53477 -0.502976,4.96569 -1.874021,2.7473 -0.414252,-0.67028 -1.24086,-0.67028 -2.493276,0 -1.030464,0.55148 -2.015654,0.96717 -2.189312,0.92375 C 61.642084,135.87763 60.9375,135.61513 60.25,135.33772 Z M 74.222506,134.4433 C 71.744461,132.70761 71.141656,127.25834 73.2,125.2 c 1.396399,-1.3964 6.8,-1.62972 6.8,-0.29362 0,0.49851 -0.902397,0.6704 -2.005326,0.38198 -4.258181,-1.11354 -6.777868,4.78559 -3.460854,8.1026 1.173744,1.17375 2.171462,1.30652 4.25,0.5656 2.546355,-0.90769 2.594814,-0.87407 0.77505,0.53761 -2.406516,1.86685 -2.601072,1.865 -5.336364,-0.0509 z M 98,135.27111 c -0.825,-0.31405 -1.830609,-1.06602 -2.234687,-1.67105 C 94.604126,131.8614 94.880563,126.51944 96.2,125.2 c 2.476225,-2.47623 7.8,-0.76989 7.8,2.5 0,0.8148 -1.28428,1.3 -3.44098,1.3 -3.813978,0 -4.892057,0.96855 -3.914282,3.51659 0.507143,1.32159 1.448175,1.57291 4.253242,1.13591 3.32455,-0.51793 3.45249,-0.44913 1.66089,0.89317 -2.08551,1.5625 -2.27902,1.5933 -4.55887,0.72544 z m 3.75501,-8.52111 c -0.61576,-1.86972 -4.408596,-2.09512 -5.096348,-0.30287 C 96.20018,127.64192 96.766534,128 99.114718,128 c 1.994442,0 2.909312,-0.43313 2.640292,-1.25 z m -50.753023,3 c 0.002,-5.22024 0.0204,-5.25097 3.25,-5.42087 3.004195,-0.15804 3.079112,-0.0903 0.998013,0.90281 C 53.426373,126.10217 53,127.12942 53,130.65281 53,133.04377 52.55,135 52,135 c -0.55,0 -0.999106,-2.3625 -0.998013,-5.25 z M 84.273105,127 c 0.03249,-6.71885 0.165342,-7.48009 0.633999,-3.63278 L 85.5,128.23445 87.404988,126.11722 C 88.452731,124.95275 89.759975,124 90.309975,124 c 0.55,0 0.255256,0.82293 -0.654987,1.82874 -2.111898,2.33362 -2.083768,2.76035 0.413106,6.26689 1.137452,1.5974 1.631643,2.90437 1.098202,2.90437 -0.533441,0 -1.88913,-1.45183 -3.012641,-3.2263 -2.07534,-3.27777 -2.408401,-3.11251 -3.479104,1.7263 -0.243402,1.1 -0.424052,-1.825 -0.401446,-6.5 z M 107,129.65218 v -5.34782 l 3.25,-0.0519 c 3.02136,-0.0482 3.09171,0.0222 1,1.00064 -1.82687,0.85458 -2.25,1.87004 -2.25,5.3997 0,2.39096 -0.45,4.34719 -1,4.34719 -0.55,0 -1,-2.40652 -1,-5.34782 z M 59.150538,110 l -0.149126,-8.5 2.735251,-0.1589 C 66.235953,101.07971 68,102.6271 68,106.83518 68,111.30101 66.585211,113 62.866422,113 c -2.214426,0 -2.812695,0.52227 -3.150168,2.75 -0.229124,1.5125 -0.483696,-1.075 -0.565716,-5.75 z m 7.144589,-0.0952 c 0.54966,-0.87738 0.699544,-2.78988 0.333075,-4.25 C 66.093531,103.52448 65.372981,103 62.980948,103 60.191443,103 60,103.24619 60,106.83333 c 0,2.10834 0.318982,4.15232 0.708849,4.54219 1.143266,1.14326 4.502757,0.25878 5.586278,-1.47074 z M 35.309869,107.5 c 0.0056,-3.3 0.192301,-4.52944 0.414862,-2.73209 0.222562,1.79735 0.217969,4.49735 -0.0102,6 -0.228174,1.50265 -0.41027,0.0321 -0.404657,-3.26791 z m 4.690127,-0.19098 -4e-6,-5.80902 6.750004,0.13772 c 3.712502,0.0757 7.087504,0.18824 7.500004,0.25 0.4125,0.0618 0.671382,2.69978 0.575293,5.86228 -0.162707,5.35503 -0.201775,5.44224 -0.568755,1.26962 -0.443473,-5.04235 -1.721319,-7.16223 -3.829651,-6.35319 C 49.494751,103.02412 49,104.71672 49,107.54797 c 0,2.3837 -0.45,4.61211 -1,4.95203 -0.615245,0.38024 -1,-1.28729 -1,-4.33399 0,-3.0498 -0.480166,-5.12861 -1.25,-5.41171 -2.619936,-0.96347 -3.75,0.47398 -3.75,4.77002 0,2.3967 -0.45,4.63576 -1,4.97568 -0.622831,0.38493 -1.000002,-1.57295 -1.000004,-5.19098 z m 31.340338,4.13549 c -0.932446,-2.42991 0.374018,-4.22286 3.592096,-4.92967 C 76.619594,106.14428 78,105.2284 78,104.47956 78,102.4233 76.28086,101.77932 74.020667,102.98894 72.695009,103.69841 72,103.72087 72,103.05424 72,101.4236 76.866114,100.644 78.512986,102.01078 79.406557,102.75238 80,104.95864 80,107.53911 c 0,2.49598 0.512153,4.46494 1.223026,4.7019 0.672664,0.22422 -1.151041,0.46175 -4.052678,0.52784 -3.761027,0.0857 -5.434847,-0.29455 -5.830014,-1.32434 z m 6.627187,-1.38382 c 0.697239,-1.30281 0.70585,-2.14452 0.02623,-2.56455 C 76.224044,106.4024 73,108.06243 73,110.06739 c 0,2.57031 3.590939,2.56547 4.967521,-0.007 z m 7.086693,1.50463 c -2.080122,-2.50639 -0.873121,-7.82477 2.160437,-9.51947 2.2742,-1.27049 2.923198,-1.29788 4,-0.1688 1.064486,1.11615 0.916835,1.23668 -0.859279,0.7014 -1.356838,-0.40892 -2.734331,-0.0566 -3.75,0.95903 -1.879341,1.87935 -2.028196,3.80395 -0.51316,6.63482 0.857028,1.60137 1.729043,1.91345 4.04971,1.44932 1.825458,-0.3651 2.724497,-0.2145 2.348772,0.39344 -0.921495,1.49101 -6.084967,1.17874 -7.43648,-0.44974 z m 11.534954,0.57896 c -0.764193,-1.23649 -1.011034,-12.05575 -0.291468,-12.775313 0.333884,-0.333884 1.411973,0.197848 2.395752,1.181633 1.277007,1.277 1.433658,1.90703 0.547619,2.20238 C 98.506968,102.99768 98,104.94089 98,107.51001 c 0,3.29563 0.422139,4.45366 1.75,4.80066 1.35128,0.35313 1.25081,0.48376 -0.440983,0.57333 -1.205041,0.0638 -2.428973,-0.26908 -2.719849,-0.73972 z M 41.00228,85.309017 41.004561,79.5 44.247646,79.381105 c 3.202539,-0.117409 3.215013,-0.100255 0.99772,1.371972 C 43.570428,81.865194 43,83.214152 43,86.062955 43,88.163411 42.55,90.160081 42,90.5 41.37708,90.884986 41.00086,88.92757 41.00228,85.309017 Z m 9.569149,4.119554 c -2.02104,-2.021039 -2.02104,-6.836103 0,-8.857142 C 53.478329,77.664528 58,79.264504 58,83.2 c 0,1.390476 -0.796296,1.8 -3.5,1.8 -3.73892,0 -4.671292,1.783025 -2.063922,3.946949 1.06596,0.884668 1.968009,0.907158 3.5,0.08726 C 57.078898,88.422592 58,88.343874 58,88.857827 c 0,2.34614 -5.249827,2.749489 -7.428571,0.570744 z M 57,83.122445 C 57,81.564604 54.070449,79.758989 52.512735,80.35674 49.723861,81.426931 50.774249,84 54,84 c 1.65,0 3,-0.3949 3,-0.877555 z M 62.25,90.25 C 61.5625,90.020833 61,88.961186 61,87.895228 c 0,-1.776503 1.462989,-2.780133 6.233141,-4.276019 1.115086,-0.349683 1.509528,-1.126227 1.106089,-2.177573 -0.468038,-1.219689 -1.414723,-1.487223 -3.733141,-1.05499 -2.525381,0.470817 -2.76537,0.378458 -1.283652,-0.49401 1.00234,-0.5902 2.91484,-0.798915 4.25,-0.463812 C 69.669597,79.955178 70,80.620761 70,84.319052 c 0,2.354521 0.465,4.745948 1.033333,5.314281 0.711111,0.711111 -0.302329,1.033334 -3.25,1.033334 -2.355833,0 -4.845833,-0.1875 -5.533333,-0.416667 z m 4.815741,-1.285184 C 69.832818,87.483922 69.51536,85 66.559017,85 c -2.755177,0 -4.00515,1.395012 -3.179015,3.547887 0.662859,1.727383 1.136932,1.78101 3.685739,0.416929 z m 7.541248,0.453397 C 73.638481,86.894323 73.905712,74 74.926526,74 c 0.50959,0 1.07209,3.82605 1.25,8.502334 0.307139,8.072971 -0.225277,10.418964 -1.569537,6.915879 z"
         id="path1924" />
      <path
         style="fill:#2f2f2f"
         d="M 82,176.4137 C 73.420912,174.58507 56.896044,166.27304 49.93703,160.28599 34.001637,146.57629 24.353957,128.67085 22.189316,108.78812 16.731924,58.66068 58.22567,17.014344 108.54516,22.114713 c 18.19133,1.843868 32.44267,8.851514 46.55562,22.892262 8.46236,8.419058 10.21186,10.793236 14.7542,20.022342 C 175.95677,77.426881 178,86.229115 178,100.11797 c 0,13.24747 -2.1087,22.20356 -8.20715,34.85744 -4.49297,9.32262 -6.11014,11.537 -14.69529,20.12215 -8.58515,8.58515 -10.79953,10.20232 -20.12215,14.69529 -5.76148,2.77671 -13.71424,5.75924 -17.67282,6.62785 -8.78589,1.92786 -26.24141,1.9244 -35.30259,-0.007 z m 36.00376,-10.48196 c 12.13973,-3.36409 20.42692,-8.30565 30.02462,-17.90336 C 162.09107,133.9657 168,119.74986 168,99.980198 168,87.300955 166.41617,80.448174 160.83979,69 154.97999,56.969966 143.03003,45.02001 131,39.160208 c -11.65327,-5.676281 -18.46083,-7.273541 -31,-7.273541 -19.139474,0 -35.174003,6.544111 -48.371613,19.74172 C 38.430778,64.825997 31.886667,80.860526 31.886667,100 c 0,12.53917 1.59726,19.34673 7.273541,31 5.857242,12.02478 17.807441,23.97688 29.839792,29.84455 11.524648,5.62008 17.516621,7.01198 30.520099,7.08964 8.229431,0.0491 12.910131,-0.45794 18.483661,-2.00245 z M 44,130 c 0,-3.32517 -0.418708,-5.00513 -1.25,-5.01531 -0.864752,-0.0106 -0.910965,-0.24174 -0.149944,-0.75 0.605031,-0.40408 1.357004,-1.40969 1.671053,-2.23469 0.468834,-1.23162 0.585121,-1.20001 0.649944,0.17668 0.04342,0.92217 0.866447,1.88247 1.828947,2.13399 1.587261,0.4148 1.578286,0.46811 -0.09651,0.57333 -1.583735,0.0995 -1.797201,0.82764 -1.5,5.11662 0.190582,2.75034 0.009,5.00034 -0.403487,5 C 44.3375,135.00028 44,132.75 44,130 Z m 7.168103,-0.21862 c -0.139806,-4.75599 0.08869,-5.62007 1.35742,-5.13321 1.016576,0.39009 1.208246,0.96769 0.574514,1.73129 -0.523056,0.63025 -1.133895,2.94019 -1.35742,5.13322 -0.333245,3.26949 -0.436674,2.9578 -0.574514,-1.7313 z m 8.163768,3.64108 c -0.336963,-0.87811 0.169868,-2.31906 1.143138,-3.25 1.653199,-1.58131 1.674278,-1.54816 0.386745,0.60805 -1.166945,1.95427 -1.147168,2.41702 0.138246,3.23469 1.046186,0.6655 1.112327,0.95881 0.218615,0.96949 -0.704761,0.008 -1.553796,-0.69458 -1.886744,-1.56223 z M 66.75,134.42808 C 66.3375,134.0093 66,131.66559 66,129.21983 c 0,-4.35439 -0.06126,-4.43784 -2.947187,-4.01427 -1.620953,0.2379 -2.719396,0.064 -2.440983,-0.3865 1.006621,-1.62875 5.325519,-0.80464 6.410828,1.22328 1.1898,2.22316 0.949098,9.62609 -0.272658,8.38574 z M 73.2,133.8 c -1.550085,-1.55009 -1.550085,-7.04991 0,-8.6 1.31091,-1.31091 6.8,-1.66636 6.8,-0.44033 0,0.41781 -1.4625,0.75531 -3.25,0.75 -2.910849,-0.009 -3.281724,0.31639 -3.554003,3.1149 -0.18454,1.89671 0.334741,3.76331 1.321428,4.75 C 75.411413,134.26856 75.750714,135 75.271429,135 74.792143,135 73.86,134.46 73.2,133.8 Z M 84.340285,127 c 0.01112,-4.675 0.188756,-6.3625 0.394754,-3.75 0.205999,2.6125 0.658384,4.75 1.005301,4.75 0.346917,0 1.781541,-1.0125 3.188055,-2.25 l 2.557297,-2.25 -1.967157,2.3266 c -1.896241,2.24273 -1.90387,2.43687 -0.211622,5.38544 0.965543,1.68237 1.549665,3.26472 1.298047,3.51633 -0.251618,0.25162 -1.177225,-0.93433 -2.056904,-2.63544 -2.055853,-3.97558 -3.318237,-3.92374 -3.82466,0.15707 -0.221827,1.7875 -0.394227,-0.575 -0.383111,-5.25 z M 96.2,133.8 c -1.550085,-1.55009 -1.550085,-7.04991 0,-8.6 2.476225,-2.47623 7.8,-0.76989 7.8,2.5 0,0.715 -0.45,1.3 -1,1.3 -0.55,0 -0.94671,-0.3375 -0.88158,-0.75 0.36245,-2.29554 -0.37511,-3.25 -2.511431,-3.25 -3.683021,0 -5.002133,5.462 -2.03556,8.42857 0.864285,0.86429 1.179285,1.57143 0.7,1.57143 C 97.792143,135 96.86,134.46 96.2,133.8 Z m 5.3,0.2 c 0.33992,-0.55 1.06803,-1 1.61803,-1 0.55,0 0.72189,0.45 0.38197,1 -0.33992,0.55 -1.06803,1 -1.61803,1 -0.55,0 -0.72189,-0.45 -0.38197,-1 z m 5.5,-4.46862 c 0,-3.96363 0.344,-5.33682 1.25,-4.98971 0.83737,0.32081 1.13561,2.12604 0.90349,5.46861 C 108.6855,136.74917 107,136.37434 107,129.53138 Z M 59.149832,110.25 c -0.132117,-7.27458 0.05708,-8.24067 1.600168,-8.17105 1.045438,0.0472 1.246741,0.28201 0.5,0.58333 -1.924491,0.77655 -1.604411,8.26449 0.385923,9.02825 4.404545,1.69018 7.529209,-6.46142 3.336834,-8.70511 -1.179227,-0.6311 -1.91905,-1.37246 -1.64405,-1.64746 0.275,-0.275 1.438541,0.002 2.585647,0.6162 C 67.461571,102.78221 68,104.04229 68,106.83518 68,111.30101 66.585211,113 62.866422,113 c -2.214426,0 -2.812695,0.52227 -3.150168,2.75 -0.229124,1.5125 -0.484014,-0.9625 -0.566422,-5.5 z M 35.309869,107.5 c 0.0056,-3.3 0.192301,-4.52944 0.414862,-2.73209 0.222562,1.79735 0.217969,4.49735 -0.0102,6 -0.228174,1.50265 -0.41027,0.0321 -0.404657,-3.26791 z m 4.864838,0.25 c -0.14308,-4.7091 0.118998,-5.75 1.447738,-5.75 1.197944,0 1.346754,0.33219 0.568755,1.26962 -0.57953,0.69829 -1.231012,3.28579 -1.447738,5.75 -0.36698,4.17262 -0.406048,4.08541 -0.568755,-1.26962 z M 47,108.2 c 0,-2.64 -0.5625,-5.36666 -1.25,-6.05925 -1.002248,-1.00966 -0.903147,-1.12719 0.5,-0.59301 1.36798,0.5208 1.75,1.84352 1.75,6.05925 C 48,110.57314 47.775,113 47.5,113 47.225,113 47,110.84 47,108.2 Z m 7.180248,0.25 c -0.09914,-2.7775 -0.628641,-5.59161 -1.176677,-6.25357 -0.548035,-0.66197 -0.295563,-0.59592 0.56105,0.14676 1.130119,0.97982 1.452989,2.69574 1.176677,6.25357 L 54.360496,113.5 Z m 17.151623,2.97246 c -0.332948,-0.86765 0.07681,-2.25972 0.910584,-3.09349 1.35459,-1.35459 1.465053,-1.24973 1.037825,0.98517 -0.351842,1.84055 0.0102,2.62693 1.370801,2.97748 1.494455,0.38505 1.411545,0.49862 -0.432466,0.59238 -1.254761,0.0638 -2.553796,-0.59389 -2.886744,-1.46154 z m 6.811366,0.68723 c -0.930851,-0.58982 -1.014134,-1.07145 -0.265303,-1.53425 1.282164,-0.79242 1.169664,-5.52998 -0.173723,-7.31577 -0.531143,-0.70606 -2.068329,-1.01922 -3.568633,-0.727 -2.552158,0.49708 -2.562005,0.4811 -0.311103,-0.505 3.904895,-1.71069 5.928639,0.19409 6.327859,5.95587 0.362816,5.23636 0.216688,5.53647 -2.009097,4.12615 z m 7.428192,-0.68112 c -2.01623,-2.01623 -2.025383,-6.80693 -0.01619,-8.47441 1.383787,-1.14845 1.421212,-0.99658 0.339485,1.37755 -1.563007,3.43043 0.05632,7.33552 3.298774,7.95515 2.224807,0.42516 2.229338,0.4456 0.127931,0.57696 -1.198215,0.0749 -2.885715,-0.57096 -3.75,-1.43525 z M 96.624353,111.25 c -0.522044,-1.78985 -0.907254,-7.36359 -0.72567,-10.5 C 96.01888,98.67389 98,98.359624 98,100.41667 c 0,0.77916 0.5625,1.64364 1.25,1.92105 1,0.40351 1,0.52017 0,0.58333 -0.799858,0.0505 -1.25,1.67306 -1.25,4.50563 0,3.37499 0.415761,4.53532 1.75,4.88399 1.35628,0.35444 1.25896,0.48343 -0.432612,0.57333 -1.286919,0.0684 -2.392078,-0.60216 -2.693035,-1.634 z M 50.654988,89.171259 C 46.204631,84.253671 52.159706,75.559706 56.8,80.2 58.236877,81.636877 58.398997,85 57.031385,85 56.498646,85 56.268919,84.4375 56.52088,83.75 57.236391,81.79766 55.455964,79.765541 53.380173,80.165302 52.292516,80.374765 51.5,81.364642 51.5,82.513695 c 0,1.092468 -0.352741,2.247282 -0.78387,2.566255 -1.257865,0.930637 0.293907,3.78846 2.424239,4.464601 1.075584,0.341377 2.721512,0.02101 3.657619,-0.711933 1.532083,-1.199569 1.564987,-1.157898 0.329567,0.417382 -1.772558,2.260183 -4.384628,2.228406 -6.472567,-0.07874 z m 11.329445,0.309983 c -1.031509,-1.242892 -0.934779,-1.878628 0.532542,-3.5 0.98615,-1.089683 2.510756,-1.952718 3.388013,-1.917856 1.038097,0.04126 0.809401,0.379163 -0.654988,0.967776 -2.686117,1.079687 -2.930883,3.47288 -0.5,4.888739 1.534636,0.893844 1.549705,1.023024 0.122445,1.04969 -0.895156,0.01673 -2.194761,-0.653032 -2.888012,-1.488349 z m 7.505486,0.502446 c -0.345464,-0.558971 -1.159521,-0.69759 -1.809017,-0.308041 -0.904867,0.542712 -0.906834,0.369094 -0.0084,-0.742755 0.644868,-0.798064 1.094868,-3.021945 1,-4.941958 C 68.508464,80.6713 68.328256,80.506919 65,80.641013 c -3.245795,0.130771 -3.330373,0.06243 -1.164512,-0.94096 3.678213,-1.704024 5.580361,0.186175 6.192272,6.15337 0.551295,5.376084 0.495748,5.802648 -0.537841,4.130265 z M 75.149832,82.25 c 0.156668,-9.149223 0.594738,-8.125297 1.070363,2.501822 0.153893,3.438502 -0.0577,6.251002 -0.470195,6.25 C 75.3375,91.00082 75.067424,87.0625 75.149832,82.25 Z M 41,85.166667 C 41,82.325 41.441391,80 41.98087,80 c 0.590756,0 0.733587,1.889179 0.359122,4.75 C 41.494218,91.211509 41,91.365184 41,85.166667 Z m 3.733333,-5.290755 c 0.678334,-0.683418 1.485241,-0.990671 1.793128,-0.682784 0.307888,0.307887 -0.247112,0.867048 -1.233333,1.242579 -1.425198,0.542685 -1.540062,0.427821 -0.559795,-0.559795 z"
         id="path1922" />
      <path
         style="fill:#020202"
         d="M 84.5,176.60224 C 69.069972,173.51156 55.769225,166.11593 44,154.08297 28.015587,137.74037 21.117959,119.11435 22.305423,95.5 23.291997,75.880606 29.824157,60.630322 43.45245,46.129165 57.126893,31.578903 74.854495,23.387013 95,22.309145 c 12.78772,-0.684197 22.54701,0.719999 32.98776,4.74638 40.87928,15.764717 60.80133,62.162161 44.14894,102.820605 -4.20427,10.26512 -9.14153,17.38389 -18.11834,26.12387 -8.79282,8.56084 -15.58255,12.92028 -26.41987,16.96326 -13.43053,5.0104 -29.484521,6.3659 -43.09849,3.63898 z m 33,-10.23776 C 140.70938,160.5387 160.36237,140.79277 166.63214,117 c 2.26636,-8.60051 2.2843,-25.284099 0.0366,-34 C 162.99961,68.772665 153.35928,54.224361 141.80918,45.48428 128.87134,35.69408 116.3803,31.594675 99.5,31.598939 82.648829,31.603196 69.947742,36.060711 56.883362,46.555478 41.950931,58.550874 32.952216,75.775875 31.489323,95.163794 29.978312,115.18943 37.483717,134.87496 52.072351,149.14994 69.191006,165.90054 93.679502,172.34366 117.5,166.36448 Z M 44.589168,134.14428 C 43.796434,132.86161 43.591315,122.07535 44.345319,121.32135 44.705394,120.96127 45,121.38367 45,122.26001 c 0,0.87634 0.7875,1.79914 1.75,2.05066 1.587261,0.4148 1.578286,0.46811 -0.09651,0.57333 -1.583735,0.0995 -1.797201,0.82764 -1.5,5.11662 0.360595,5.20385 0.3119,5.56141 -0.564319,4.14366 z m 14.746665,-0.7115 c -0.330769,-0.86197 -0.204146,-1.96447 0.281384,-2.45 C 60.127594,130.47241 60.5,131.13354 60.5,132.55 c 0,2.83891 -0.320322,3.08181 -1.164167,0.88278 z M 73.2,133.8 c -0.66,-0.66 -1.132576,-2.5725 -1.050168,-4.25 l 0.149832,-3.05 0.438653,3 c 0.24126,1.65 0.903935,3.5625 1.472613,4.25 1.319452,1.59514 0.571221,1.63215 -1.01093,0.05 z M 84.340285,127 c 0.01112,-4.675 0.190311,-6.32441 0.398211,-3.66536 0.265934,3.40131 0.756023,4.68957 1.653085,4.34534 0.701297,-0.26912 1.275086,0.0999 1.275086,0.82002 0,0.72013 -0.568791,1.09105 -1.263981,0.82428 -0.821515,-0.31524 -1.407264,0.68079 -1.673296,2.84534 C 84.504266,134.00133 84.329169,131.675 84.340285,127 Z m 10.854664,2.5 c 0.02038,-1.65 0.244498,-2.20394 0.498042,-1.23097 0.253543,0.97297 0.236869,2.32297 -0.03705,3 C 95.382014,131.94606 95.174569,131.15 95.194949,129.5 Z m -35.852139,-20 c 0.0036,-4.4 0.179441,-6.07561 0.390687,-3.72357 0.211245,2.35204 0.208273,5.95204 -0.0066,8 C 59.512015,115.82439 59.339178,113.9 59.34281,109.5 Z m 3.46969,2.81689 c 0.721875,-0.28887 1.584375,-0.25335 1.916667,0.0789 0.332291,0.3323 -0.258334,0.56864 -1.3125,0.52522 -1.164943,-0.048 -1.4019,-0.28494 -0.604167,-0.60416 z M 71.872445,111.25 C 70.67983,109.7293 70.696544,109.64619 72,110.61573 c 0.825,0.61365 2.175,1.36562 3,1.67105 1.254749,0.46453 1.233894,0.56823 -0.127555,0.63427 -0.895156,0.0434 -2.245156,-0.70855 -3,-1.67105 z m 7.685083,0.5 c -1.065354,-3.5072 -1.238092,-5.64882 -0.545948,-6.76874 0.444728,-0.71958 0.920994,0.70308 1.134638,3.38931 0.36388,4.57519 0.149087,5.80823 -0.58869,3.37943 z m 17.949551,0.26145 c -0.350339,-0.56686 0.05106,-0.7345 0.940983,-0.39301 1.732418,0.66479 2.049388,1.38156 0.610955,1.38156 -0.517541,0 -1.215913,-0.44485 -1.551938,-0.98855 z M 35.299664,107 c 0,-3.025 0.187466,-4.2625 0.41659,-2.75 0.229125,1.5125 0.229125,3.9875 0,5.5 -0.229124,1.5125 -0.41659,0.275 -0.41659,-2.75 z m 4.816337,0.25 c -0.0638,-2.8875 0.243639,-5.25 0.683198,-5.25 0.43956,0 0.63862,1.6875 0.442357,3.75 -0.611973,6.43112 -1.005025,6.95493 -1.125555,1.5 z m 13.865729,0.0483 c -0.264951,-2.86092 -0.115369,-4.83456 0.332406,-4.38586 0.447776,0.4487 0.664554,2.78946 0.481731,5.20169 L 54.46346,112.5 53.98173,107.29831 Z m 30.402312,2.2601 c -0.304254,-0.79287 -0.376946,-2.25537 -0.161539,-3.25 0.244555,-1.12921 0.58685,-0.58778 0.911381,1.44159 0.544599,3.40551 0.190618,4.25921 -0.749842,1.80841 z M 67.149832,107.45 c -0.08241,-1.6775 -0.709118,-3.7025 -1.392689,-4.5 -0.685466,-0.79971 -0.425603,-0.72564 0.579435,0.16515 1.226747,1.0873 1.681893,2.55795 1.392689,4.5 L 67.299664,110.5 Z m -20.418619,-3.36984 c -0.434974,-1.66335 -0.304831,-2.05378 0.437237,-1.31171 0.581102,0.5811 0.859794,1.64682 0.619313,2.36826 -0.249648,0.74895 -0.702941,0.29565 -1.05655,-1.05655 z M 96,102 c 0,-0.55 0.45,-1 1,-1 0.55,0 1,0.45 1,1 0,0.55 -0.45,1 -1,1 -0.55,0 -1,-0.45 -1,-1 z M 69.157895,88 c 0,-1.375 0.226973,-1.9375 0.504386,-1.25 0.277412,0.6875 0.277412,1.8125 0,2.5 -0.277413,0.6875 -0.504386,0.125 -0.504386,-1.25 z m 6.162179,-4 c 0,-3.575 0.181495,-5.0375 0.403322,-3.25 0.221826,1.7875 0.221826,4.7125 0,6.5 -0.221827,1.7875 -0.403322,0.325 -0.403322,-3.25 z m -26.241127,0.416667 c 0.04798,-1.164943 0.284941,-1.4019 0.604167,-0.604167 0.288871,0.721875 0.253344,1.584375 -0.07895,1.916667 -0.332292,0.332291 -0.568641,-0.258334 -0.52522,-1.3125 z m 19.745557,-1.74249 c -0.372058,-1.824821 -0.232683,-2.482356 0.393454,-1.856219 0.533281,0.533281 0.792548,1.804901 0.576149,2.825822 -0.291413,1.374818 -0.542875,1.123356 -0.969603,-0.969603 z"
         id="path1920" />
    </g>
  </g>
</svg>
