<?xml version="1.0" encoding="UTF-8" standalone="no"?>
<svg
   version="1.1"
   id="svg4"
   width="40.136719"
   height="9.2988281"
   xmlns="http://www.w3.org/2000/svg"
   xmlns:svg="http://www.w3.org/2000/svg">
  <defs
     id="defs8" />
  <g
     aria-label="remind"
     id="text2"
     transform="translate(-1.0839844,9.1171875)">
    <path
       d="M 5.1679687,-5.34375 H 5.109375 Q 4.8632812,-5.402344 4.6289062,-5.425781 4.4003906,-5.455078 4.0839844,-5.455078 q -0.5097656,0 -0.984375,0.2285156 Q 2.625,-5.0039062 2.1855469,-4.6464844 V 0 H 1.0839844 v -6.5449219 h 1.1015625 v 0.9667969 q 0.65625,-0.5273437 1.1542969,-0.7441406 0.5039062,-0.2226563 1.0253906,-0.2226563 0.2871093,0 0.4160156,0.017578 0.1289062,0.011719 0.3867187,0.052734 z"
       id="path10" />
    <path
       d="M 11.683594,-3.1582031 H 6.8613281 q 0,0.6035156 0.1816406,1.0546875 0.1816407,0.4453125 0.4980469,0.7324219 0.3046875,0.28125 0.7207032,0.42187495 0.421875,0.140625 0.9257812,0.140625 0.6679688,0 1.341797,-0.26367185 0.679687,-0.2695313 0.966797,-0.5273438 h 0.05859 v 1.2011719 q -0.556641,0.234375 -1.136719,0.39257812 -0.5800784,0.15820313 -1.2187502,0.15820313 -1.6289063,0 -2.5429688,-0.87890625 -0.9140625,-0.8847656 -0.9140625,-2.5078125 0,-1.6054687 0.8730469,-2.5488281 0.8789062,-0.9433594 2.3085937,-0.9433594 1.3242189,0 2.0390629,0.7734375 0.720703,0.7734375 0.720703,2.1972656 z m -1.072266,-0.84375 q -0.0059,-0.8671875 -0.439453,-1.3417969 -0.4277344,-0.4746094 -1.3066406,-0.4746094 -0.8847657,0 -1.4121094,0.5214844 -0.5214844,0.5214844 -0.5917969,1.2949219 z"
       id="path12" />
    <path
       d="m 22.904297,0 h -1.101563 v -3.7265625 q 0,-0.421875 -0.04102,-0.8144531 -0.03516,-0.3925781 -0.158203,-0.6269531 -0.134766,-0.2519532 -0.386719,-0.3808594 -0.251953,-0.1289063 -0.726563,-0.1289063 -0.46289,0 -0.925781,0.234375 -0.462891,0.2285157 -0.925781,0.5859375 0.01758,0.1347657 0.0293,0.3164063 0.01172,0.1757812 0.01172,0.3515625 V 0 h -1.101562 v -3.7265625 q 0,-0.4335937 -0.04102,-0.8203125 -0.03516,-0.3925781 -0.158203,-0.6269531 -0.134765,-0.2519531 -0.386719,-0.375 -0.251953,-0.1289063 -0.726562,-0.1289063 -0.451172,0 -0.908203,0.2226563 -0.451172,0.2226562 -0.902344,0.5683594 V 0 h -1.101562 v -6.5449219 h 1.101562 v 0.7265625 q 0.515625,-0.4277343 1.025391,-0.6679687 0.515625,-0.2402344 1.095703,-0.2402344 0.667969,0 1.130859,0.28125 0.46875,0.28125 0.697266,0.7792969 0.667969,-0.5625 1.21875,-0.8085938 0.550781,-0.2519531 1.177734,-0.2519531 1.078125,0 1.587891,0.65625 0.515625,0.6503906 0.515625,1.8222656 z"
       id="path14" />
    <path
       d="m 26.208984,-7.640625 h -1.242187 v -1.1425781 h 1.242187 z M 26.138672,0 h -1.101563 v -6.5449219 h 1.101563 z"
       id="path16" />
    <path
       d="m 33.791016,0 h -1.101563 v -3.7265625 q 0,-0.4511719 -0.05273,-0.84375 -0.05273,-0.3984375 -0.19336,-0.6210937 -0.146484,-0.2460938 -0.421875,-0.3632813 -0.27539,-0.1230469 -0.714843,-0.1230469 -0.451172,0 -0.94336,0.2226563 -0.492187,0.2226562 -0.943359,0.5683594 V 0 h -1.101563 v -6.5449219 h 1.101563 v 0.7265625 q 0.515625,-0.4277343 1.066406,-0.6679687 0.550781,-0.2402344 1.130859,-0.2402344 1.060547,0 1.617188,0.6386719 0.556641,0.6386719 0.556641,1.8398437 z"
       id="path18" />
    <path
       d="m 41.220703,0 h -1.101562 v -0.68554687 q -0.47461,0.41015624 -0.990235,0.63867187 -0.515625,0.22851562 -1.11914,0.22851562 -1.171875,0 -1.863282,-0.90234374 -0.685547,-0.90234378 -0.685547,-2.50195318 0,-0.8320312 0.234375,-1.4824218 0.240235,-0.6503906 0.644532,-1.1074219 0.398437,-0.4453125 0.925781,-0.6796875 0.533203,-0.234375 1.101562,-0.234375 0.515625,0 0.914063,0.1113281 0.398437,0.1054688 0.837891,0.3339844 v -2.8359375 h 1.101562 z m -1.101562,-1.6113281 v -3.7558594 q -0.445313,-0.1992187 -0.796875,-0.2753906 -0.351563,-0.076172 -0.767579,-0.076172 -0.925781,0 -1.441406,0.6445313 -0.515625,0.6445312 -0.515625,1.8281249 0,1.1660157 0.398438,1.7753907 0.398437,0.6035156 1.277343,0.6035156 0.46875,0 0.949219,-0.2050781 0.480469,-0.2109375 0.896485,-0.5390624 z"
       id="path20" />
  </g>
</svg>
