<svg xmlns="http://www.w3.org/2000/svg" role="img" viewBox="3.77 1.15 128.96 93.21"><path fill="#484F5E" d="M72.6332 27.8422c-.052-.2776-.1214-.5725-.1908-.85-.0867-.3296-.2082-.6419-.347-.9541-.0173-.0347-.0347-.0868-.052-.1214-1.2143-2.6542-3.8684-4.545-6.9389-4.5971-2.6541-.052-5.0134 1.249-6.4532 3.244-.3122.4163-.5725.8847-.798 1.3704-.0173.0347-.0347.0694-.052.1214-.1388.3123-.2429.6245-.347.9541-.0867.2776-.1387.5551-.1908.8501-.052.2602-.0867.5377-.1041.8153-.0173.2255-.0173.4337-.0173.6592 0 .3643.0347.7286.1041 1.0755.052.3296.1214.6419.2081.9541.9368 3.2093 3.8685 5.6032 7.3553 5.6726 2.6541.052 5.0133-1.249 6.4532-3.244l-4.0246-1.4745c-.5725.5378-1.3184.85-2.099.8847-1.3531.0694-2.498-.6071-3.1052-1.8561-.1388-.2949-.2602-.6072-.3296-.9541h10.9808c.0347-.2256.0694-.4684.0868-.7113.0173-.2255.0173-.4337.0173-.6592-.052-.399-.0867-.798-.1561-1.1796zm-10.9808 0c.0867-.2949.1908-.5898.3296-.85.1908-.3643.4163-.6766.6939-.9541h.0173-.0173c.0347-.0347.0867-.0694.1214-.1041.5551-.4857 1.2317-.798 1.9602-.8327.9021-.052 1.7001.2602 2.3246.8327.0347.0347.0867.0694.1214.1214.2602.2602.4857.5898.6592.9541.1214.2602.2255.5378.3123.8501h-6.5226v-.0174zM21.979 10.8419c0-2.96635-1.8041-5.5164-4.3715-6.60928-.8673-.3643-1.8041-.57246-2.7929-.57246H6.34912l.01735 19.98414h4.35413v-5.6379h3.2266l2.7583 5.6379h4.7531l-3.2613-6.4879c2.2552-1.2143 3.7817-3.5909 3.7817-6.3145zm-4.3541 0c0 1.5613-1.2664 2.8277-2.8276 2.8277h-4.0767V8.01433h4.0767c1.5612 0 2.8276 1.26636 2.8276 2.82757z"/><path fill="#484F5E" d="M27.3915 17.2431v-1.5439l-3.695 3.3827 3.695 3.5389v-1.5439c3.5215 0 5.6205 3.0531 5.6205 6.1583 0 3.1051-2.1684 6.2624-5.6205 6.2624-3.7471 0-5.6206-3.1573-5.6206-6.2624h-4.3715c0 5.5164 4.4756 9.992 9.9921 9.992 5.5164 0 9.992-4.4756 9.992-9.992.0174-5.5338-4.4582-9.9921-9.992-9.9921zm92.0965 13.6002c-.485 1.4572-1.682 2.2898-3.018 2.3592-1.527.0694-2.776-.7979-3.331-2.3766-.121-.3469-.208-.7285-.243-1.1449-.017-.2255-.034-.451-.034-.6939 0-.104 0-.2255.017-.3296.035-.4163.104-.7979.243-1.1622.503-1.4052 1.683-2.3419 3.001-2.4113 1.526-.0694 2.775.8327 3.313 2.4286l4.285-.7633c-1.006-3.0878-3.886-5.3776-7.268-5.4297-3.539-.0694-6.54 2.2552-7.581 5.4297-.226.6766-.347 1.4052-.382 2.1511V29.4382c.017.7459.156 1.4571.382 2.151 1.006 3.0879 3.886 5.3777 7.268 5.4297 3.539.0694 6.54-2.2551 7.581-5.4297l-4.233-.7459zm10.721-9.0552h-4.354v14.9013h4.354V21.7881zm-.312-2.9144h-3.661c-.19 0-.364-.1561-.364-.3643v-3.6429c0-.1908.156-.3643.364-.3643h3.661c.19 0 .364.1561.364.3643v3.6603c0 .1908-.174.3469-.364.3469zm-24.148 8.3268c-1.336-1.7001-4.649-2.8797-6.2622-3.4695-1.4398-.5204-1.9602-.9367-1.9429-1.648.0521-1.3531 1.3704-1.648 2.2552-1.648 1.9599 0 2.2549 2.0644 2.2549 2.0644l3.851-.9542s-.746-4.8745-6.7478-4.8745c-1.9429 0-4.0593 1.1449-5.1695 2.6021-.9888 1.301-1.1102 2.897-.4684 4.4929.8501 2.1337 2.6021 2.7756 4.3716 3.4174 1.3184.4857 3.0881.9715 4.1981 2.0817.538.5378.642 1.4572.26 2.2378-.399.85-1.526 1.4398-2.6193 1.4398-2.394 0-3.3654-2.151-3.4001-2.2378l-.1214-.2949-4.3369.8674.1041.3643c.0174.052.399 1.3531 1.5613 2.6715 1.0755 1.2143 3.0358 2.6715 6.3144 2.6715 2.7929 0 5.0129-1.197 6.2099-3.3654 1.128-2.0123 1.18-4.5277-.312-6.4185zm-57.5234-5.8634c-1.5786-.0347-3.2093.4163-4.0593 1.2143v-.7286h-4.3542v21.8403h4.3542v-7.8063c.7633.7286 2.3072 1.1622 3.7644 1.1969 4.4235.0868 7.546-3.5735 7.4767-7.9971-.0868-4.1807-3.0185-7.6328-7.1818-7.7195zm-.4511 11.9002c-2.0296.1041-3.5908-1.4745-3.6082-4.1633v-.1041c.0174-2.1858 1.5092-3.7817 3.2439-3.8685 2.0297-.104 3.6083 1.5786 3.6083 4.2675 0 2.3766-1.5092 3.7643-3.244 3.8684zm34.9721-11.8481c-2.602 0-3.8164 1.7173-3.8164 1.7173v-1.3184H74.871v14.9014h4.0592v-7.0083c0-2.446 1.1276-4.3889 3.1226-4.3889 1.9949 0 3.0704 1.7347 3.0704 4.3889v7.0083h4.1113v-8.3094c0-1.5959-.3816-6.9909-6.4879-6.9909z"/><path d="M33.40916 56.57125c-.08384-.00645-.18059-.00645-.30313-.00645-1.93488 0-3.50858.50307-4.71466 1.51566-.7417.60626-1.6124 1.73494-2.61209 3.37959v-4.30833h-6.16581v24.71486h6.50764V70.05736c0-1.98647.25154-3.45053.74816-4.40507.89004-1.6898 2.63788-2.5347 5.23707-2.5347.19994 0 .45147.00645.77395.01935.31603.01935.67721.04515 1.08354.0903v-6.6173c-.28379-.01934-.47082-.02579-.55467-.03869zm18.78769 18.27817c-1.04484 1.14158-2.32186 1.70914-3.83107 1.70914-2.27026 0-3.8375-1.03838-4.71465-3.12805-.48372-1.11579-.7288-2.3928-.7288-3.83107 0-1.664.22573-3.0571.68365-4.19224.8578-2.13481 2.42505-3.199 4.68886-3.199 1.664 0 2.99261.61271 3.9794 1.83814.99324 1.22542 1.48986 3.00551 1.48986 5.35317 0 2.48954-.52242 4.30833-1.56725 5.4499zm-2.19932-17.71705c-.92229-.38053-2.00582-.56757-3.24415-.56757-3.35379 0-5.94653 1.25122-7.77821 3.75367-1.82524 2.496-2.74108 5.58535-2.74108 9.26162 0 3.80527.94809 6.82368 2.84427 9.05524 1.89618 2.23156 4.43732 3.34735 7.61053 3.34735 2.05097 0 3.72142-.49017 5.01134-1.47696.70945-.52887 1.37376-1.32217 1.99292-2.3799v1.5866c0 2.36055-.25798 4.03745-.77395 5.03713-.7804 1.55436-2.3412 2.33476-4.6695 2.33476-1.64466 0-2.81848-.29668-3.51504-.8836-.40633-.33538-.703-.87714-.8836-1.63175H36.821c.21284 2.46375 1.31572 4.31479 3.3151 5.55311 1.99292 1.23832 4.57276 1.85749 7.73306 1.85749 5.22418 0 8.76501-1.39312 10.6096-4.1729 1.07063-1.61885 1.60595-4.0181 1.60595-7.21065v-23.4443h-6.27546v3.56018c-.96744-1.73494-2.23801-2.93456-3.81172-3.57952zm-1.18027-.63851zm38.28482 3.63112c-1.83168-2.34765-4.37928-3.51503-7.62988-3.51503-1.79943 0-3.2764.37408-4.44377 1.13513-.98034.59981-1.88328 1.47696-2.69593 2.62499V48.4899h-6.44315v33.37668h6.32705v-3.10226c.86425 1.20608 1.664 2.05098 2.4057 2.5347 1.23833.8191 2.87653 1.22542 4.92105 1.22542 3.2506 0 5.77884-1.26412 7.59763-3.78591 1.81234-2.5218 2.71528-5.7079 2.71528-9.54541 0-3.70207-.91584-6.72693-2.75398-9.06814zm-5.40476 15.05337c-.9223 1.34796-2.21867 2.01872-3.87621 2.01872-1.92198 0-3.3538-.69655-4.28899-2.08967-.93519-1.38666-1.40601-3.14095-1.40601-5.25642 0-1.79944.22574-3.2635.68366-4.39863.87714-2.13482 2.4831-3.199 4.83075-3.199 2.30896 0 3.89556 1.08998 4.7598 3.2635.45148 1.15447.67721 2.60563.67721 4.35348 0 2.19286-.45792 3.96005-1.38021 5.30802zm19.43264-20.9741v-5.96588h-6.5528v5.96588zm-6.5528 2.94747v24.71486h6.5528V57.15172zm23.03798-9.0101c-.33538-.0258-.703-.0387-1.11578-.0387-3.57953 0-5.84334.74171-6.77853 2.22512-.89005.99969-1.33507 2.81847-1.33507 5.46281v1.5866h-3.54083v4.55987h3.60533v19.92926h6.44315V61.93732h4.23739v-4.55987h-4.2374v-2.08322c0-.48372.16125-.92874.48373-1.32862.32893-.39987.91584-.58691 1.76719-.56756.8578.0258 1.46406.05804 1.83168.1032v-5.26288c-.58046-.04515-1.03193-.0774-1.36086-.09675z"/></svg>
