<svg width="241.5" height="72.401" viewBox="0 0 241.5 72.401" xmlns="http://www.w3.org/2000/svg"><g id="svgGroup" stroke-linecap="round" fill-rule="evenodd" font-size="9pt" stroke="#000" stroke-width="0.25mm" fill="#000" style="stroke:#000;stroke-width:0.25mm;fill:#000"><path d="M 90.1 5.7 L 86.6 13.6 Q 82.4 11.3 78.05 9.8 A 27.36 27.36 0 0 0 71.951 8.48 A 34.225 34.225 0 0 0 68.4 8.3 A 20.13 20.13 0 0 0 60.913 9.671 A 18.919 18.919 0 0 0 57.2 11.65 A 20.295 20.295 0 0 0 51.876 17.068 A 27.457 27.457 0 0 0 49.45 21.5 A 31.614 31.614 0 0 0 47.404 28.231 Q 46.801 31.363 46.65 34.955 A 58.311 58.311 0 0 0 46.6 37.4 Q 46.6 44.709 48.568 50.163 A 26.036 26.036 0 0 0 49.2 51.75 A 24.18 24.18 0 0 0 52.132 56.797 A 19.102 19.102 0 0 0 56.4 60.9 A 17.93 17.93 0 0 0 66.209 64.086 A 21.993 21.993 0 0 0 67 64.1 A 22.762 22.762 0 0 0 72.597 63.437 A 18.835 18.835 0 0 0 76.95 61.75 A 40.361 40.361 0 0 0 79.952 59.967 Q 82.238 58.463 83.8 56.9 L 83.8 41.6 L 69.3 41.6 L 69.3 34.1 L 92.8 34.1 L 92.8 71.2 L 84.4 71.2 L 84.4 64.2 A 35.883 35.883 0 0 1 80.022 67.492 A 47.354 47.354 0 0 1 75.9 69.85 A 23.594 23.594 0 0 1 66.494 72.35 A 28.131 28.131 0 0 1 64.8 72.4 A 26.572 26.572 0 0 1 55.487 70.8 A 24.511 24.511 0 0 1 50.4 68.2 Q 44.1 64 40.5 56.25 A 37.529 37.529 0 0 1 37.592 46.68 A 51.837 51.837 0 0 1 36.9 38 A 56.301 56.301 0 0 1 37.735 28.083 A 42.572 42.572 0 0 1 40.7 18.25 A 32.73 32.73 0 0 1 46.484 9.302 A 29.455 29.455 0 0 1 51.65 4.85 Q 58.8 0 68.9 0 Q 75.4 0 80.5 1.6 Q 85.6 3.2 90.1 5.7 Z M 150.3 71.2 L 108.3 71.2 L 108.3 1.2 L 150.3 1.2 L 150.3 9.4 L 117.8 9.4 L 117.8 30.7 L 145.8 30.7 L 145.8 38.7 L 117.8 38.7 L 117.8 63 L 150.3 63 L 150.3 71.2 Z M 163.8 71 L 163.8 1.4 Q 168.5 0.9 173 0.65 A 151.31 151.31 0 0 1 177.186 0.479 Q 180.038 0.4 183.3 0.4 A 48.608 48.608 0 0 1 190.644 0.927 Q 194.578 1.528 197.91 2.818 A 29.198 29.198 0 0 1 198.85 3.2 A 30.978 30.978 0 0 1 206.139 7.521 A 27.223 27.223 0 0 1 209.65 10.9 Q 213.9 15.8 215.95 22.25 A 44.256 44.256 0 0 1 217.922 33.246 A 51.506 51.506 0 0 1 218 36.1 A 45.309 45.309 0 0 1 216.519 47.798 A 41.802 41.802 0 0 1 215.9 49.9 Q 213.8 56.4 209.45 61.35 Q 205.1 66.3 198.35 69.15 Q 192.075 71.8 183.509 71.986 A 60.192 60.192 0 0 1 182.2 72 A 186.98 186.98 0 0 1 178.129 71.958 Q 176.115 71.914 174.322 71.824 A 101.5 101.5 0 0 1 172.25 71.7 Q 168 71.4 163.8 71 Z M 9 71.2 L 0 71.2 L 0 19.2 L 8.7 19.2 L 8.7 30.5 Q 10 27.2 12.2 24.35 Q 14.4 21.5 17.7 19.75 A 14.817 14.817 0 0 1 22.38 18.226 A 19.459 19.459 0 0 1 25.4 18 Q 26.9 18 28.4 18.15 A 18.972 18.972 0 0 1 29.455 18.284 Q 29.955 18.362 30.382 18.463 A 8.817 8.817 0 0 1 30.9 18.6 L 28.2 27.9 A 9.763 9.763 0 0 0 26.055 27.288 Q 24.959 27.1 23.7 27.1 A 12.958 12.958 0 0 0 17.07 28.946 A 15.609 15.609 0 0 0 16.65 29.2 Q 13.322 31.286 11.178 35.642 A 22.927 22.927 0 0 0 11.15 35.7 Q 9.387 39.307 9.07 44.528 A 39.09 39.09 0 0 0 9 46.9 L 9 71.2 Z M 241.5 71.2 L 232 71.2 L 232 1.2 L 241.5 1.2 L 241.5 71.2 Z M 173.3 9.1 L 173.3 63.2 Q 175.4 63.5 177.7 63.6 A 107.265 107.265 0 0 0 181.263 63.694 A 121.297 121.297 0 0 0 182.5 63.7 A 37.906 37.906 0 0 0 188.664 63.228 Q 193.593 62.415 197.2 60.2 Q 202.9 56.7 205.6 50.45 A 32.292 32.292 0 0 0 207.854 42.376 A 42.502 42.502 0 0 0 208.3 36.1 Q 208.3 28.9 205.6 22.6 Q 202.9 16.3 197.3 12.45 A 20.895 20.895 0 0 0 190.248 9.391 Q 187.407 8.711 184.096 8.616 A 38.008 38.008 0 0 0 183 8.6 Q 180.1 8.6 177.7 8.75 Q 175.3 8.9 173.3 9.1 Z" vector-effect="non-scaling-stroke"/></g></svg>