<?xml version="1.0" encoding="UTF-8" standalone="no"?>
<!-- Created with Inkscape (http://www.inkscape.org/) -->

<svg
   version="1.1"
   id="svg1"
   width="960.41162"
   height="241.90749"
   viewBox="0 0 960.4116 241.90749"
   sodipodi:docname="logo_riseclipse.svg"
   inkscape:version="1.3.2 (091e20e, 2023-11-25)"
   xmlns:inkscape="http://www.inkscape.org/namespaces/inkscape"
   xmlns:sodipodi="http://sodipodi.sourceforge.net/DTD/sodipodi-0.dtd"
   xmlns="http://www.w3.org/2000/svg"
   xmlns:svg="http://www.w3.org/2000/svg">
  <defs
     id="defs1" />
  <sodipodi:namedview
     id="namedview1"
     pagecolor="#ffffff"
     bordercolor="#666666"
     borderopacity="1.0"
     inkscape:showpageshadow="2"
     inkscape:pageopacity="0.0"
     inkscape:pagecheckerboard="0"
     inkscape:deskcolor="#d1d1d1"
     inkscape:zoom="0.97267029"
     inkscape:cx="463.67202"
     inkscape:cy="119.25932"
     inkscape:window-width="1872"
     inkscape:window-height="791"
     inkscape:window-x="0"
     inkscape:window-y="25"
     inkscape:window-maximized="0"
     inkscape:current-layer="g1" />
  <g
     inkscape:groupmode="layer"
     inkscape:label="Image"
     id="g1"
     transform="translate(-146.78836,-112.64)">
    <g
       id="g2">
      <path
         style="fill:#b2c8ec"
         d="m 155.8258,353.36251 c -2.95773,-1.3436 -6.2523,-4.4342 -7.83554,-7.35043 -1.51424,-2.78913 -1.51424,-11.47503 0,-14.26416 5.10064,-9.39505 17.35097,-11.42823 24.68263,-4.09657 3.4872,3.4872 4.26924,5.54406 4.26924,11.22865 0,5.68459 -0.78204,7.74145 -4.26924,11.22865 -2.91629,2.91629 -6.57967,4.42324 -10.75289,4.42324 -2.04309,0 -4.60007,-0.49064 -6.0942,-1.16938 z m 228.49421,0.24373 c -3.24908,-1.13919 -8.1285,-6.33523 -9.14958,-9.74329 -1.83,-6.108 -0.52306,-11.30214 4.01614,-15.96132 6.29509,-6.46146 15.29347,-6.38556 21.586,0.18208 7.38862,7.71165 4.84976,20.71261 -4.93256,25.25853 -3.03449,1.41015 -7.93101,1.52236 -11.52,0.264 z m 62.08,0 c -3.24907,-1.13919 -8.12849,-6.33523 -9.14957,-9.74329 -1.83001,-6.108 -0.52307,-11.30214 4.01613,-15.96132 6.29509,-6.46146 15.29347,-6.38556 21.586,0.18208 7.38862,7.71165 4.84976,20.71261 -4.93256,25.25853 -3.03449,1.41015 -7.93101,1.52236 -11.52,0.264 z m 95.36,-0.57155 c -3.84602,-1.8182 -6.1975,-4.2071 -7.94822,-8.07469 -3.43078,-7.57909 0.0791,-16.51455 7.94822,-20.23469 7.55357,-3.57096 16.22892,-0.20936 19.92083,7.7191 2.93855,6.31058 1.26096,13.73779 -4.1489,18.36842 -4.66202,3.99052 -10.33904,4.79026 -15.77193,2.22186 z m 62.08,0 c -3.84602,-1.8182 -6.19749,-4.2071 -7.94821,-8.07469 -3.43079,-7.57909 0.0791,-16.51455 7.94821,-20.23469 7.55357,-3.57096 16.22892,-0.20936 19.92083,7.7191 2.93855,6.31058 1.26096,13.73779 -4.14889,18.36842 -4.66202,3.99052 -10.33905,4.79026 -15.77194,2.22186 z m 196.48001,0 c -5.71168,-2.7002 -9.25189,-8.11645 -9.25189,-14.15469 0,-11.24083 11.9671,-18.92228 22.05189,-14.15469 3.84601,1.8182 6.19749,4.2071 7.94821,8.07469 2.4484,5.40886 1.20211,12.36155 -3.02594,16.88095 -2.54253,2.71772 -7.54188,4.86654 -11.32227,4.86654 -2.03496,0 -4.36504,-0.55077 -6.4,-1.5128 z M 238.72,339.2 v -14.08 h 51.84001 51.84 v 14.08 14.08 h -51.84 H 238.72 Z m 417.28001,0 v -14.08 h 51.52 51.52001 v 14.08 14.08 h -51.52001 -51.52 z m -349.12,-61.76641 c -3.168,-0.49999 -8.4492,-1.52164 -11.736,-2.27034 l -5.97599,-1.36126 0.36255,-3.621 c 0.19941,-1.99154 0.52424,-6.21299 0.72186,-9.38099 0.19761,-3.168 0.51755,-7.11973 0.71097,-8.78163 l 0.35166,-3.02163 2.98248,1.50702 c 7.603,3.84173 21.1489,6.66074 28.37629,5.90533 4.44026,-0.4641 9.99989,-2.33629 12.74728,-4.2926 5.2646,-3.74873 5.87871,-13.31738 1.13492,-17.6838 -2.10166,-1.93448 -7.62804,-4.28923 -16.11833,-6.86791 -12.7881,-3.88401 -19.27161,-6.93052 -23.68188,-11.12775 -9.03421,-8.59783 -11.09518,-26.46206 -4.45946,-38.65407 3.73462,-6.86172 13.33812,-13.58444 23.59616,-16.51798 10.60329,-3.03227 27.62701,-2.95485 42.50749,0.19331 l 6.72,1.42171 0.1579,2.24 c 0.0868,1.232 -0.20756,6.272 -0.65424,11.2 -0.94313,10.40506 -0.13216,9.77348 -9.10366,7.08976 -10.91757,-3.26586 -25.9706,-2.86659 -31.04,0.82333 -4.70634,3.42564 -6.06291,10.26752 -2.80377,14.14079 2.24163,2.66403 3.25366,3.12659 16.14388,7.37879 14.05507,4.63647 19.80381,7.50192 24.6662,12.29483 6.0461,5.9597 8.72661,12.99468 8.70257,22.83985 -0.0443,18.13243 -9.29375,29.33485 -29.18577,35.34804 -5.1273,1.54994 -6.84107,1.73699 -17.52311,1.91261 -8.00185,0.13156 -13.70721,-0.10003 -17.6,-0.71441 z m 124.86017,-0.0622 c -25.10616,-4.5337 -38.81775,-17.79795 -43.67808,-42.25308 -1.5739,-7.91918 -1.57409,-24.16372 -3.7e-4,-31.568 4.3304,-20.37432 14.73598,-34.41761 30.0426,-40.54527 6.62861,-2.65362 13.35351,-3.78941 22.53568,-3.80615 20.06033,-0.0366 35.26203,6.97891 42.64654,19.68108 6.60595,11.36295 10.79346,28.50832 10.79346,44.19278 V 228.48 H 454.66375 415.2475 l 0.45353,2.6844 c 3.03653,17.9731 18.50076,27.67018 39.67151,24.87664 8.44413,-1.11423 16.98258,-4.19272 29.90747,-10.78296 0.264,-0.13461 0.48,5.35262 0.48,12.19384 v 12.43859 l -4.32,1.9641 c -10.31658,4.69048 -20.35116,6.56484 -34.72,6.48538 -5.54414,-0.0307 -12.15197,-0.45791 -14.97983,-0.96857 z M 465.27055,205.6 c -0.0168,-3.12009 -1.8974,-9.88264 -3.63733,-13.07947 -2.36798,-4.35075 -5.587,-7.45705 -9.7506,-9.40917 -3.15296,-1.47827 -4.33533,-1.6665 -10.28261,-1.63691 -5.48499,0.0273 -7.41977,0.30907 -10.52763,1.53323 -7.11163,2.80121 -12.64154,9.80493 -14.72691,18.65188 -0.5316,2.25524 -0.9708,4.46044 -0.976,4.90044 -0.007,0.62649 5.40416,0.8 24.95054,0.8 h 24.96 z m 92.42075,71.50582 c -5.63795,-1.01595 -13.20893,-3.6986 -17.52428,-6.20944 -5.31179,-3.09062 -14.52807,-12.17672 -17.38188,-17.13638 -5.92209,-10.29201 -8.20491,-19.0576 -8.6818,-33.33636 -0.26589,-7.96099 -0.1005,-11.73519 0.72918,-16.64 3.99197,-23.59937 17.59054,-39.72794 38.00412,-45.07476 13.11083,-3.43405 30.27773,-1.74978 41.40337,4.06216 5.12528,2.67739 14.07672,11.64324 16.81149,16.83855 1.13768,2.16127 2.06851,4.19154 2.06851,4.51171 0,0.60382 -12.63015,6.63513 -13.76,6.57085 -0.352,-0.02 -1.44184,-1.72975 -2.42187,-3.79939 -3.54161,-7.4792 -10.31555,-13.04783 -18.37813,-15.10806 -6.20437,-1.5854 -17.97666,-0.99085 -23.92272,1.20821 -8.87216,3.28122 -15.97053,9.83483 -20.24045,18.68709 -3.78668,7.85044 -4.54349,11.4487 -4.91322,23.36 -0.41037,13.22106 0.80794,20.1864 5.01698,28.68305 6.51621,13.15408 17.9082,20.05852 33.17941,20.10935 14.62763,0.0487 25.56952,-6.42018 31.09757,-18.38493 1.22166,-2.64411 2.46114,-4.80747 2.75441,-4.80747 1.51656,0 13.80514,5.13597 13.66996,5.71331 -0.52765,2.25352 -4.45741,9.3153 -7.22235,12.97856 -5.64021,7.4727 -14.98305,13.65568 -24.9571,16.51633 -5.43882,1.5599 -19.71924,2.26888 -25.3312,1.25762 z m 377.23868,-0.2597 c -8.33003,-1.47608 -16.70957,-4.82018 -23.06958,-9.20658 -3.83085,-2.64208 -9.22121,-8.14189 -11.87618,-12.11732 l -2.24247,-3.35778 1.52913,-1.21355 c 0.84103,-0.66746 3.67569,-2.96807 6.29925,-5.11247 l 4.77011,-3.89891 1.94989,3.6672 c 3.81721,7.1791 11.84843,13.5964 20.50989,16.38832 9.92752,3.20001 26.73494,2.26188 35.07823,-1.95794 2.99811,-1.51637 6.97312,-5.48622 8.20775,-8.19709 1.60458,-3.5232 1.58116,-9.85213 -0.0483,-13.04609 -1.32449,-2.59623 -4.69241,-5.86999 -7.56634,-7.35482 -3.56396,-1.84134 -10.4114,-3.74672 -23.29608,-6.48242 -20.12614,-4.27322 -28.88705,-7.70967 -35.11139,-13.77236 -12.97801,-12.64097 -8.94092,-35.94752 8.08982,-46.7034 10.56451,-6.67209 23.42666,-8.95465 38.04314,-6.75127 11.49523,1.73286 20.62111,6.23668 27.46803,13.55606 3.68022,3.93417 7.69512,9.42801 7.69512,10.52974 0,0.52729 -12.17506,10.40215 -12.43218,10.0834 -0.0971,-0.12036 -1.15557,-2.07969 -2.35218,-4.35406 -1.1966,-2.27438 -3.73762,-5.82285 -5.6467,-7.8855 -6.35323,-6.86429 -13.27583,-9.09977 -26.60894,-8.5927 -10.65539,0.40524 -16.00565,2.19028 -21.33608,7.11851 -3.60451,3.33254 -4.87425,6.43116 -4.87425,11.89491 0,11.47965 6.62524,15.71268 32.60094,20.82953 27.81243,5.47866 38.47915,12.45958 41.32268,27.04391 3.44167,17.65222 -7.56977,32.62578 -27.87329,37.90259 -6.66554,1.73235 -22.09233,2.25489 -29.23004,0.99009 z M 148.48,218.56 v -57.28 h 13.44 13.44 l 0.0209,12.64 0.0209,12.64 1.13516,-3.28439 c 1.61436,-4.67085 4.95372,-9.96364 9.26813,-14.68973 7.21169,-7.89981 17.81239,-11.12738 29.07492,-8.85237 l 1.44,0.29088 v 15.09628 c 0,12.86403 -0.13603,15.04407 -0.91997,14.74325 -5.39077,-2.06864 -14.70191,-2.59822 -19.77687,-1.12483 -4.39766,1.27675 -9.47815,6.09594 -12.00246,11.38517 -4.09827,8.58714 -4.5193,12.53622 -4.88252,45.79574 l -0.32675,29.92 H 163.44572 148.48 Z m 86.4,-0.0118 v -57.29179 l 14.88,0.17179 14.88001,0.1718 0.16343,57.12 0.16344,57.12 H 249.92344 234.88 Z M 642.56001,217.28 v -58.56 h 7.04 7.04 v 51.84 51.84 h 33.6 33.6 v 6.72 6.72 h -40.64 -40.64 z m 105.6,0 v -58.56 h 7.36001 7.36 v 58.56 58.56 h -7.36 -7.36001 z m 52.48001,-0.0452 v -58.60515 l 25.76,0.21468 25.76,0.21468 4.97819,1.75206 c 12.38553,4.35905 20.18177,12.41422 23.18879,23.95893 1.25179,4.80595 1.22126,14.6448 -0.0609,19.61758 -2.37292,9.20347 -8.75871,17.11265 -17.10694,21.18798 -8.23885,4.02193 -10.37973,4.35434 -30.03917,4.66416 l -17.76,0.27988 V 253.17982 275.84 h -7.36 -7.36 z m 53.30191,-2.79533 c 4.34698,-1.77773 8.43292,-5.5955 10.3166,-9.63951 1.11726,-2.39861 1.34149,-4.11021 1.34149,-10.24 0,-6.37785 -0.20295,-7.80899 -1.52082,-10.72466 -2.74721,-6.07794 -8.66048,-9.77855 -17.56549,-10.99274 -2.75347,-0.37543 -10.88947,-0.6826 -18.08,-0.6826 h -13.07369 v 22.12579 22.12579 l 17.44,-0.22907 c 16.58967,-0.21791 17.62049,-0.3029 21.14191,-1.743 z M 1022.08,217.28 v -58.56 h 41.28 41.28 v 6.72 6.72 h -33.92 -33.92 v 18.88 18.88 h 26.24 26.24 v 6.72 6.72 h -26.24 -26.24 v 19.52 19.52 h 35.2 35.2 v 6.72 6.72 h -42.56 -42.56 z M 234.88,127.0518 V 112.64 h 15.05225 15.05224 l -0.17224,14.24 -0.17224,14.24 -14.88001,0.1718 -14.88,0.17179 z"
         id="path8" />
      <path
         style="fill:#8daee4"
         d="m 156.16,353.22821 c -6.23733,-2.82341 -9.24198,-7.48814 -9.24198,-14.34821 0,-6.86007 3.00465,-11.5248 9.24198,-14.34822 7.03862,-3.18613 15.51388,0.007 19.39961,7.30822 1.01628,1.90965 1.36238,3.6981 1.36238,7.04 0,4.97535 -1.32311,8.27261 -4.54337,11.32227 -2.59883,2.46115 -7.11229,4.32962 -10.45862,4.32962 -1.584,0 -4.176,-0.58666 -5.76,-1.30368 z m 227.84001,0 c -6.23734,-2.82341 -9.24199,-7.48814 -9.24199,-14.34821 0,-6.86007 3.00465,-11.5248 9.24199,-14.34822 7.03861,-3.18613 15.51387,0.007 19.3996,7.30822 1.01628,1.90965 1.36238,3.6981 1.36238,7.04 0,4.97535 -1.32311,8.27261 -4.54337,11.32227 -2.59882,2.46115 -7.11229,4.32962 -10.45861,4.32962 -1.584,0 -4.176,-0.58666 -5.76,-1.30368 z m 62.08,0 c -6.23734,-2.82341 -9.24199,-7.48814 -9.24199,-14.34821 0,-6.86007 3.00465,-11.5248 9.24199,-14.34822 7.03861,-3.18613 15.51387,0.007 19.3996,7.30822 1.01628,1.90965 1.36238,3.6981 1.36238,7.04 0,4.97535 -1.32311,8.27261 -4.54337,11.32227 -2.59882,2.46115 -7.11229,4.32962 -10.45861,4.32962 -1.584,0 -4.176,-0.58666 -5.76,-1.30368 z m 96,0 c -6.23733,-2.82341 -9.24198,-7.48814 -9.24198,-14.34821 0,-6.86007 3.00465,-11.5248 9.24198,-14.34822 7.03862,-3.18613 15.51387,0.007 19.39961,7.30822 1.01628,1.90965 1.36238,3.6981 1.36238,7.04 0,4.97535 -1.32312,8.27261 -4.54338,11.32227 -2.59882,2.46115 -7.11229,4.32962 -10.45861,4.32962 -1.584,0 -4.176,-0.58666 -5.76,-1.30368 z m 62.08,0 c -6.23733,-2.82341 -9.24198,-7.48814 -9.24198,-14.34821 0,-6.86007 3.00465,-11.5248 9.24198,-14.34822 7.03862,-3.18613 15.51387,0.007 19.39961,7.30822 1.01628,1.90965 1.36238,3.6981 1.36238,7.04 0,4.97535 -1.32312,8.27261 -4.54337,11.32227 -2.59883,2.46115 -7.11229,4.32962 -10.45862,4.32962 -1.584,0 -4.176,-0.58666 -5.76,-1.30368 z m 196.85994,0.0851 c -13.52527,-5.45136 -12.93762,-24.5572 0.89664,-29.1522 15.21634,-5.05406 27.0441,13.68872 16.09036,25.49747 -4.07559,4.39373 -11.2981,5.94764 -16.987,3.65473 z M 238.72,339.2 v -14.08 h 51.84001 51.84 v 14.08 14.08 h -51.84 H 238.72 Z m 417.28001,0 v -14.08 h 51.52 51.52001 v 14.08 14.08 h -51.52001 -51.52 z m -348.16,-61.77342 c -3.344,-0.49865 -8.86308,-1.53153 -12.26461,-2.29529 l -6.1846,-1.38866 0.27084,-3.27132 c 0.62084,-7.49845 1.53837,-19.71987 1.53837,-20.49093 0,-0.56904 1.20462,-0.25614 3.83241,0.99546 10.69952,5.09614 24.78613,7.01031 33.07095,4.49387 8.24253,-2.50358 11.2127,-5.53969 11.61603,-11.87387 0.56687,-8.90247 -2.10367,-10.88509 -23.75266,-17.63411 -19.47365,-6.07087 -27.32673,-15.08976 -27.32673,-31.38343 0,-14.14915 5.91163,-23.57707 18.57681,-29.62647 9.85598,-4.70761 12.90229,-5.27183 28.46319,-5.27183 11.57743,0 14.46932,0.20857 20.8674,1.505 4.08507,0.82775 7.78976,1.72895 8.23265,2.00267 0.64506,0.39867 0.61831,2.61661 -0.13444,11.14871 -0.51683,5.85807 -1.06588,10.77722 -1.22011,10.93145 -0.15422,0.15422 -2.48213,-0.41877 -5.17313,-1.27332 -6.61297,-2.10001 -11.75871,-2.86392 -19.33039,-2.86968 -8.09231,-0.006 -13.18506,1.34091 -16.10366,4.25951 -3.5228,3.5228 -4.23239,8.98255 -1.67477,12.88597 1.39339,2.12659 5.42973,3.96358 17.09645,7.78082 14.40931,4.71459 18.93462,6.99678 24.04672,12.12713 5.00983,5.02772 7.32676,9.49124 8.32571,16.03932 1.93469,12.68191 -2.22341,25.89953 -10.34904,32.89711 -3.83246,3.30042 -13.17403,7.74605 -19.78339,9.41488 -7.064,1.78362 -23.6395,2.23915 -32.64,0.89701 z m 128.32,0.57611 c -22.74313,-3.46111 -35.61572,-11.82268 -43.23314,-28.08269 -7.8421,-16.7396 -8.09826,-42.33757 -0.6,-59.95823 4.70554,-11.05785 12.48282,-19.9799 21.51034,-24.67653 9.06204,-4.71459 13.44504,-5.61266 27.1228,-5.55742 10.06798,0.0407 12.59461,0.25541 16.88202,1.4348 18.4912,5.0866 28.41577,16.72591 33.38856,39.15738 1.52948,6.89921 2.84942,18.06828 2.84942,24.11115 V 227.84 h -39.36 -39.36 v 1.46554 c 0,2.57067 1.90632,8.89611 3.64232,12.08571 2.16847,3.9842 7.98033,9.51058 12.30832,11.70374 12.12565,6.14453 30.80074,4.17827 49.1259,-5.17235 l 5.32346,-2.71636 v 12.36091 12.36091 l -5.50121,2.3633 c -9.33048,4.00833 -17.32222,5.51412 -30.65879,5.77668 -6.336,0.12474 -12.384,0.0953 -13.44,-0.0654 z m 29.12,-72.53119 c 0,-3.33971 -1.39095,-8.57321 -3.2754,-12.3238 -4.10009,-8.16037 -9.20164,-11.37806 -18.84277,-11.88468 -15.00569,-0.78852 -25.23824,7.79166 -27.49729,23.05698 l -0.44988,3.04 h 25.03267 25.03267 z m 93.76,71.57865 c -27.96926,-4.03346 -45.12973,-26.81374 -45.11743,-59.89274 0.0109,-29.39688 14.25565,-51.28838 37.7684,-58.04307 9.35454,-2.68736 24.35444,-2.54636 33.70767,0.31685 10.9915,3.36472 20.64232,11.07155 25.41534,20.29586 1.33389,2.57787 2.32643,4.75277 2.20564,4.8331 -0.68398,0.45487 -13.25978,6.15985 -13.5785,6.15985 -0.21048,0 -1.28257,-1.78265 -2.38242,-3.96144 -6.01878,-11.92314 -17.90439,-17.61339 -33.17657,-15.88333 -9.6271,1.09057 -15.62082,3.92488 -22.19385,10.49504 -7.4123,7.40906 -11.15084,16.28657 -12.36835,29.36981 -1.36693,14.68881 1.27055,27.88669 7.47218,37.39055 3.03407,4.64964 9.00398,9.97916 13.75329,12.27798 11.00046,5.32459 26.07142,4.90465 36.15984,-1.00756 5.45917,-3.19929 10.43778,-9.08273 12.75126,-15.06874 0.5808,-1.50277 1.25459,-2.95982 1.49733,-3.23789 0.44981,-0.5153 12.66509,3.6285 13.67586,4.63927 0.7272,0.7272 -1.98376,6.60014 -5.23182,11.33407 -10.46975,15.25926 -29.83215,22.94241 -50.35787,19.98239 z m 378.88001,-0.0156 c -5.78485,-0.63051 -14.4309,-3.1079 -19.2,-5.50144 -7.24285,-3.63509 -16.41175,-11.71024 -19.6879,-17.33936 l -1.1279,-1.93796 5.92643,-4.84789 c 3.25954,-2.66633 6.09732,-4.84788 6.30619,-4.84788 0.20886,0 1.1941,1.512 2.18942,3.36 2.57534,4.7816 9.51031,11.41029 14.46352,13.82473 6.63914,3.23626 11.32382,4.16472 21.05024,4.172 6.29415,0.005 9.75906,-0.30052 12.76161,-1.12417 11.22008,-3.07786 16.82021,-8.81425 16.8577,-17.26791 0.0207,-4.66596 -1.13168,-7.63981 -4.08474,-10.54113 -4.66445,-4.58275 -10.6789,-6.69225 -30.33457,-10.6395 -16.81884,-3.37757 -25.93768,-7.01783 -32.27347,-12.88365 -6.52998,-6.04561 -9.20294,-14.22732 -7.78129,-23.81785 1.73956,-11.73521 8.80468,-20.58946 20.77229,-26.03255 8.32709,-3.78731 18.35917,-5.2404 28.82773,-4.17554 16.90194,1.71927 28.53955,8.49211 37.17817,21.63692 1.54348,2.34861 1.67557,2.87204 0.90236,3.5759 -2.69236,2.45086 -10.80505,8.71275 -11.28795,8.71275 -0.30953,0 -1.16012,-1.224 -1.89019,-2.72 -4.23093,-8.6696 -11.50592,-14.92939 -19.56175,-16.83196 -6.12509,-1.44658 -17.31847,-1.46915 -22.81859,-0.046 -8.05186,2.0834 -14.92043,7.48626 -16.58648,13.04705 -1.18102,3.94188 -0.94457,8.96724 0.56903,12.09392 3.21744,6.64635 10.50689,9.96079 30.72528,13.97051 13.21697,2.62118 20.0732,4.63748 26.68909,7.8488 11.74552,5.70122 17.52785,16.80416 15.57822,29.91255 -1.51998,10.21962 -7.38914,17.91236 -17.52951,22.97602 -10.75215,5.36914 -21.93822,7.02529 -36.63294,5.42365 z M 148.48,218.88 v -56.96 h 13.44 13.44 l 0.0344,12.64 0.0344,12.64 1.15922,-3.62472 c 1.37248,-4.29157 3.01387,-7.12402 7.26982,-12.54513 6.30521,-8.0314 13.83742,-11.67015 24.15719,-11.67015 3.10214,0 6.0958,0.17481 6.65259,0.38847 0.883,0.33884 1.01234,2.29172 1.01234,15.28514 v 14.89667 l -2.72,-0.98874 c -1.752,-0.63687 -5.11152,-1.00881 -9.44,-1.04514 -6.11196,-0.0513 -7.04715,0.10426 -10.33569,1.71921 -6.23154,3.06021 -10.72655,10.15988 -13.05789,20.62439 -0.98031,4.40022 -1.17878,9.3712 -1.41177,35.36 l -0.2711,30.24 H 163.46178 148.48 Z m 86.4,0 v -56.96 h 15.04 15.04001 v 56.96 56.96 H 249.92 234.88 Z m 407.68001,-1.6 v -58.56 h 7.04 7.04 v 51.84 51.84 h 33.6 33.6 v 6.72 6.72 h -40.64 -40.64 z m 105.6,0 v -58.56 h 7.36001 7.36 v 58.56 58.56 h -7.36 -7.36001 z m 52.48001,-0.0461 v -58.60607 l 25.12,0.24869 c 27.91916,0.2764 28.73513,0.37996 37.47858,4.75625 11.07936,5.54549 17.11324,15.24198 17.85593,28.69466 0.64392,11.6635 -2.68932,20.53964 -10.416,27.73697 -4.42144,4.11853 -9.33686,6.7747 -15.89914,8.59149 -3.83548,1.06187 -7.2933,1.30662 -22.29937,1.57837 l -17.76,0.32163 V 253.19796 275.84 h -7.04 -7.04 z m 45.87369,-0.95653 c 5.5904,-0.76225 11.12119,-2.99338 13.86599,-5.59358 4.3593,-4.12966 6.56349,-12.45668 5.44825,-20.58251 -1.12941,-8.22902 -5.53778,-13.58693 -13.28174,-16.14252 -3.80487,-1.25565 -5.90106,-1.42031 -21.02619,-1.65167 l -16.8,-0.25699 V 194.50507 216.96 h 13.39369 c 7.36653,0 15.64653,-0.30717 18.4,-0.6826 z M 1022.08,217.28 v -58.56 h 40.96 40.96 v 6.72 6.72 h -33.92 -33.92 v 18.88 18.88 h 26.56 26.56 v 6.72 6.72 h -26.56 -26.56 v 19.52 19.52 h 35.52 35.52 v 6.72 6.72 h -42.56 -42.56 z m -787.2,-90.56 v -14.08 h 15.04 15.04001 v 14.08 14.08 H 249.92 234.88 Z"
         id="path7" />
      <path
         style="fill:#6492da"
         d="m 158.29776,353.97752 c -7.89801,-2.00057 -13.02557,-10.5815 -11.10554,-18.58506 1.00486,-4.18875 4.03107,-8.20985 7.7096,-10.24423 2.21519,-1.22508 3.7614,-1.56814 7.01012,-1.55533 4.90245,0.0193 8.3587,1.53518 11.40119,5.00037 1.92749,2.19529 3.96687,7.48374 3.96687,10.28673 0,2.80299 -2.03938,8.09144 -3.96687,10.28672 -3.55078,4.04412 -9.94911,6.09409 -15.01537,4.8108 z m 225.70225,-0.74931 c -6.23734,-2.82341 -9.24199,-7.48814 -9.24199,-14.34821 0,-6.86007 3.00465,-11.5248 9.24199,-14.34822 7.03861,-3.18613 15.51387,0.007 19.3996,7.30822 1.01628,1.90965 1.36238,3.6981 1.36238,7.04 0,4.97535 -1.32311,8.27261 -4.54337,11.32227 -2.59882,2.46115 -7.11229,4.32962 -10.45861,4.32962 -1.584,0 -4.176,-0.58666 -5.76,-1.30368 z m 62.08,0 c -6.23734,-2.82341 -9.24199,-7.48814 -9.24199,-14.34821 0,-6.86007 3.00465,-11.5248 9.24199,-14.34822 7.03861,-3.18613 15.51387,0.007 19.3996,7.30822 1.01628,1.90965 1.36238,3.6981 1.36238,7.04 0,4.97535 -1.32311,8.27261 -4.54337,11.32227 -2.59882,2.46115 -7.11229,4.32962 -10.45861,4.32962 -1.584,0 -4.176,-0.58666 -5.76,-1.30368 z m 96,0 c -6.23733,-2.82341 -9.24198,-7.48814 -9.24198,-14.34821 0,-6.86007 3.00465,-11.5248 9.24198,-14.34822 7.03862,-3.18613 15.51387,0.007 19.39961,7.30822 1.01628,1.90965 1.36238,3.6981 1.36238,7.04 0,4.97535 -1.32312,8.27261 -4.54338,11.32227 -2.59882,2.46115 -7.11229,4.32962 -10.45861,4.32962 -1.584,0 -4.176,-0.58666 -5.76,-1.30368 z m 62.08,0 c -6.23733,-2.82341 -9.24198,-7.48814 -9.24198,-14.34821 0,-6.86007 3.00465,-11.5248 9.24198,-14.34822 7.03862,-3.18613 15.51387,0.007 19.39961,7.30822 1.01628,1.90965 1.36238,3.6981 1.36238,7.04 0,4.97535 -1.32312,8.27261 -4.54337,11.32227 -2.59883,2.46115 -7.11229,4.32962 -10.45862,4.32962 -1.584,0 -4.176,-0.58666 -5.76,-1.30368 z m 196.85994,0.0851 c -13.52527,-5.45136 -12.93762,-24.5572 0.89664,-29.1522 15.21634,-5.05406 27.0441,13.68872 16.09036,25.49747 -4.07559,4.39373 -11.2981,5.94764 -16.987,3.65473 z M 238.72,339.2 v -14.08 h 51.84001 51.84 v 14.08 14.08 h -51.84 H 238.72 Z m 417.28001,0 v -14.08 h 51.52 51.52001 v 14.08 14.08 h -51.52001 -51.52 z M 308.60968,277.37307 c -6.93339,-0.94188 -18.00694,-3.197 -18.59726,-3.78733 -0.35679,-0.35679 1.00069,-23.37218 1.40221,-23.77369 0.12285,-0.12286 2.10514,0.62987 4.40509,1.67271 6.6937,3.03507 13.51631,4.62003 21.45951,4.98524 6.27151,0.28835 7.77221,0.14677 11.64567,-1.09871 5.23566,-1.68349 9.21918,-4.81179 10.30089,-8.08941 1.08391,-3.28429 0.50526,-9.46265 -1.08741,-11.61048 -2.05057,-2.76533 -5.49963,-4.3882 -17.49837,-8.23346 -14.12804,-4.52763 -19.99623,-7.49305 -24.54022,-12.4011 -4.77952,-5.16246 -6.89414,-10.54569 -7.28941,-18.55684 -0.65945,-13.36526 3.85883,-22.67694 14.10096,-29.06058 5.60075,-3.4908 11.31268,-5.70818 18.40722,-7.14572 6.53202,-1.32355 25.55382,-0.97389 33.3757,0.61352 8.13104,1.65016 10.74589,2.42629 10.74313,3.18876 -0.006,1.76155 -1.89399,21.07396 -2.07777,21.25774 -0.11259,0.11259 -2.93055,-0.66174 -6.26216,-1.72073 -10.4088,-3.30855 -24.69988,-3.51989 -31.09841,-0.45989 -7.48424,3.57922 -8.79362,13.19876 -2.36943,17.40734 1.34771,0.8829 6.77039,3.02115 12.05039,4.75167 17.38548,5.69807 23.31361,8.74148 28.47281,14.61748 5.18554,5.90601 7.68111,15.68298 6.48955,25.42433 -1.40854,11.51516 -5.51081,18.6065 -13.95111,24.11639 -11.82348,7.71845 -28.84452,10.51605 -48.08158,7.90276 z m 126.73165,0.34252 C 423.78576,276.2143 412.84498,272.01077 405.87331,266.39378 393.12576,256.12322 387.14633,241.05447 387.14633,219.2 c 0,-13.90473 2.15266,-23.45011 7.67852,-34.0482 6.61338,-12.68385 16.57256,-20.61976 30.45516,-24.26798 6.88448,-1.80919 24.23519,-1.67393 31.86896,0.24843 16.78356,4.22649 26.35787,13.81242 32.10876,32.14775 2.69189,8.58246 4.81993,22.6348 4.82174,31.84 l 5.4e-4,2.72 h -39.44915 -39.44914 l 0.36117,3.04 c 1.43555,12.08304 10.05615,21.52223 22.65206,24.80305 4.2663,1.11123 14.28406,1.25545 19.76752,0.28458 5.87382,-1.03999 14.94186,-4.21738 21.67863,-7.59608 l 6.11891,-3.06883 v 12.05943 12.05942 l -3.69091,1.86317 c -11.2475,5.67772 -31.29174,8.43628 -46.72777,6.43085 z m 29.79271,-74.58944 c -1.48876,-11.11172 -7.07762,-18.61534 -15.74092,-21.13383 -2.47759,-0.72025 -5.28606,-0.94195 -9.6913,-0.76501 -5.42703,0.21798 -6.73335,0.51034 -10.44542,2.33779 -4.62548,2.27712 -7.93607,5.60849 -10.43859,10.50415 -1.65173,3.23126 -3.4578,9.40777 -3.4578,11.82521 V 207.36 h 25.17064 25.17064 z m 95.42517,73.97029 c -22.29275,-2.60387 -38.12566,-16.83331 -44.1252,-39.65644 -2.1216,-8.07089 -2.87849,-18.54373 -1.99691,-27.63049 0.97486,-10.04809 2.68117,-16.6475 6.17755,-23.89255 9.77186,-20.2488 28.34817,-30.19655 53.01976,-28.39249 17.67944,1.29278 30.67378,9.35287 37.81624,23.45655 l 1.71223,3.38102 -6.80789,3.17898 c -3.74433,1.74844 -6.90393,3.17898 -7.02132,3.17898 -0.1174,0 -1.12478,-1.85118 -2.23863,-4.11372 -2.46769,-5.0126 -7.90041,-10.64594 -12.38074,-12.83797 -5.19571,-2.54202 -11.92258,-3.71937 -18.52653,-3.24254 -15.13964,1.09313 -26.46884,8.74371 -32.53331,21.96966 -7.11087,15.50804 -6.23872,40.39869 1.88638,53.83616 7.00342,11.58242 18.58724,17.99002 32.45917,17.95481 13.97238,-0.0355 25.27022,-6.76221 30.76926,-18.32006 1.31006,-2.75349 2.43903,-5.08245 2.50881,-5.17548 0.17349,-0.23127 12.67865,4.43459 13.29676,4.96121 0.75013,0.6391 -2.50425,7.51446 -5.63666,11.90827 -7.72445,10.83504 -19.94693,17.83103 -33.95587,19.4359 -6.32182,0.72423 -8.22413,0.72426 -14.4231,2e-4 z m 378.77855,-0.0512 c -16.43111,-1.58327 -30.47721,-9.17191 -38.71583,-20.91687 l -2.6838,-3.82603 6.0956,-4.95319 c 3.35259,-2.72425 6.19311,-4.84428 6.31228,-4.71118 0.11917,0.13311 0.86946,1.53801 1.66731,3.12201 1.93678,3.84515 9.7622,11.58231 13.76284,13.60761 7.08543,3.58696 12.02494,4.62236 22.06386,4.62492 13.00653,0.003 19.65081,-2.00966 25.30883,-7.66767 6.74689,-6.7469 5.92768,-17.71085 -1.72563,-23.09515 -5.34046,-3.75715 -9.67188,-5.14045 -27.76197,-8.86619 -17.63112,-3.63121 -26.93811,-7.29024 -33.02484,-12.98366 -10.9501,-10.24253 -10.34522,-29.9634 1.27272,-41.49498 8.66793,-8.6035 19.49261,-12.50307 34.67678,-12.49225 15.32572,0.0109 26.76348,4.14722 35.80621,12.94878 3.40172,3.31101 9.38326,11.22461 8.86524,11.72877 -1.19511,1.16314 -11.67484,9.28924 -11.97744,9.28745 -0.21995,-0.001 -1.39466,-1.92601 -2.61047,-4.27713 -2.88576,-5.58044 -8.46089,-11.25634 -13.17749,-13.41567 -5.86439,-2.68481 -14.48279,-3.81709 -22.29826,-2.92954 -7.24286,0.82252 -10.70656,1.95543 -15.51236,5.07378 -5.43905,3.52924 -7.92132,8.02076 -7.92132,14.33315 0,11.42776 6.62787,15.6771 32.71799,20.97654 19.41317,3.94321 27.34356,7.05487 33.88708,13.29633 6.26961,5.98019 8.95039,14.31451 7.65921,23.81183 -2.20246,16.20028 -15.94677,26.78572 -37.49991,28.88127 -7.12576,0.69281 -7.35335,0.69187 -15.18663,-0.0629 z M 148.48,218.88 v -56.96 h 13.44 13.44 l 0.0643,12.96 c 0.0447,9.00465 0.23678,12.22834 0.62945,10.56265 2.02445,-8.58753 10.65766,-19.22788 18.91001,-23.30641 3.97222,-1.96317 5.46135,-2.33943 10.3657,-2.61906 3.14991,-0.1796 6.76738,-0.13139 8.03883,0.10714 l 2.31172,0.43368 v 14.691 c 0,8.08005 -0.12073,14.691 -0.2683,14.691 -0.14757,0 -2.08068,-0.46431 -4.29579,-1.03179 -5.95321,-1.52514 -13.94497,-0.99387 -18.24413,1.21282 -5.87901,3.0176 -9.91274,9.19739 -12.49256,19.13892 -1.29931,5.00702 -1.39656,7.13701 -1.65288,36.20005 l -0.27233,30.88 H 163.467 148.48 Z m 86.4,0 v -56.96 h 14.72 14.72001 v 56.96 56.96 H 249.6 234.88 Z m 407.68001,-1.6 v -58.56 h 7.04 7.04 v 51.84 51.84 h 33.6 33.6 v 6.72 6.72 h -40.64 -40.64 z m 105.6,0 v -58.56 h 7.04001 7.04 v 58.56 58.56 h -7.04 -7.04001 z m 52.48001,-0.0465 v -58.60654 l 24.8,0.26311 c 27.24201,0.28901 28.94219,0.49124 37.22355,4.42764 5.49266,2.61085 12.5815,9.59856 15.03241,14.81796 2.14303,4.56374 3.55807,10.95863 3.57292,16.14683 0.0485,16.9464 -10.03809,29.90395 -26.66795,34.25846 -4.21554,1.10383 -7.73988,1.36761 -22.44093,1.6796 l -17.44,0.37012 V 253.21532 275.84 h -7.04 -7.04 z m 51.98377,-2.16017 c 10.37064,-3.57287 15.24247,-12.72971 13.33018,-25.05473 -0.83166,-5.36019 -1.91006,-7.70946 -5.06447,-11.03279 -5.38097,-5.66914 -10.5189,-6.79971 -30.96948,-6.81466 l -15.2,-0.0111 v 22.4622 22.46219 l 16.8,-0.26418 c 15.51004,-0.2439 17.13045,-0.37804 21.10377,-1.74692 z M 1022.08,217.28 v -58.56 h 40.96 40.96 v 6.72 6.72 h -33.92 -33.92 v 18.88 18.88 h 26.56 26.56 v 6.72 6.72 h -26.56 -26.56 v 19.52 19.52 h 35.2 35.2 v 6.72 6.72 h -42.24 -42.24 z m -787.2,-90.56 v -14.08 h 14.72 14.72001 v 14.08 14.08 H 249.6 234.88 Z"
         id="path6" />
      <path
         style="fill:#bfe30f"
         d="m 158.29776,353.97752 c -7.89801,-2.00057 -13.02557,-10.5815 -11.10554,-18.58506 1.00486,-4.18875 4.03107,-8.20985 7.7096,-10.24423 2.21519,-1.22508 3.7614,-1.56814 7.01012,-1.55533 4.90245,0.0193 8.3587,1.53518 11.40119,5.00037 1.92749,2.19529 3.96687,7.48374 3.96687,10.28673 0,2.80299 -2.03938,8.09144 -3.96687,10.28672 -3.55078,4.04412 -9.94911,6.09409 -15.01537,4.8108 z m 225.70225,-0.74931 c -6.23734,-2.82341 -9.24199,-7.48814 -9.24199,-14.34821 0,-6.86007 3.00465,-11.5248 9.24199,-14.34822 7.03861,-3.18613 15.51387,0.007 19.3996,7.30822 1.01628,1.90965 1.36238,3.6981 1.36238,7.04 0,4.97535 -1.32311,8.27261 -4.54337,11.32227 -2.59882,2.46115 -7.11229,4.32962 -10.45861,4.32962 -1.584,0 -4.176,-0.58666 -5.76,-1.30368 z m 62.08,0 c -6.23734,-2.82341 -9.24199,-7.48814 -9.24199,-14.34821 0,-6.86007 3.00465,-11.5248 9.24199,-14.34822 7.03861,-3.18613 15.51387,0.007 19.3996,7.30822 1.01628,1.90965 1.36238,3.6981 1.36238,7.04 0,4.97535 -1.32311,8.27261 -4.54337,11.32227 -2.59882,2.46115 -7.11229,4.32962 -10.45861,4.32962 -1.584,0 -4.176,-0.58666 -5.76,-1.30368 z m 96,0 c -6.23733,-2.82341 -9.24198,-7.48814 -9.24198,-14.34821 0,-6.86007 3.00465,-11.5248 9.24198,-14.34822 7.03862,-3.18613 15.51387,0.007 19.39961,7.30822 1.01628,1.90965 1.36238,3.6981 1.36238,7.04 0,4.97535 -1.32312,8.27261 -4.54338,11.32227 -2.59882,2.46115 -7.11229,4.32962 -10.45861,4.32962 -1.584,0 -4.176,-0.58666 -5.76,-1.30368 z m 62.08,0 c -6.23733,-2.82341 -9.24198,-7.48814 -9.24198,-14.34821 0,-6.86007 3.00465,-11.5248 9.24198,-14.34822 7.03862,-3.18613 15.51387,0.007 19.39961,7.30822 1.01628,1.90965 1.36238,3.6981 1.36238,7.04 0,4.97535 -1.32312,8.27261 -4.54337,11.32227 -2.59883,2.46115 -7.11229,4.32962 -10.45862,4.32962 -1.584,0 -4.176,-0.58666 -5.76,-1.30368 z m 196.85994,0.0851 c -13.52527,-5.45136 -12.93762,-24.5572 0.89664,-29.1522 15.21634,-5.05406 27.0441,13.68872 16.09036,25.49747 -4.07559,4.39373 -11.2981,5.94764 -16.987,3.65473 z M 238.72,339.2 v -14.08 h 51.84001 51.84 v 14.08 14.08 h -51.84 H 238.72 Z m 417.28001,0 v -14.08 h 51.52 51.52001 v 14.08 14.08 h -51.52001 -51.52 z m -343.04,-61.46843 c -5.50872,-0.52695 -22.37632,-3.58419 -22.96053,-4.16157 -0.25226,-0.24932 1.21038,-23.51909 1.49774,-23.82808 0.0911,-0.0979 1.57348,0.52145 3.2942,1.37643 8.13054,4.03987 21.47649,6.55572 29.12544,5.49044 5.21094,-0.72573 10.86401,-3.08989 13.1571,-5.5024 2.58756,-2.72232 3.81305,-7.85812 2.78557,-11.67387 -1.53223,-5.69027 -4.79072,-7.7189 -20.17952,-12.56311 -17.31548,-5.4507 -23.37618,-9.36953 -27.5024,-17.78297 -3.57443,-7.2883 -4.36423,-14.04137 -2.61014,-22.31759 2.70438,-12.75993 11.85296,-21.06718 28.19254,-25.59987 4.51154,-1.25152 6.64115,-1.41895 17.92,-1.40888 11.45749,0.0102 13.67036,0.19455 21.09839,1.75739 4.56411,0.96028 8.37182,1.81939 8.46157,1.90914 0.0897,0.0897 -0.25935,4.75547 -0.77578,10.36827 -0.51643,5.61281 -0.94013,10.53185 -0.94157,10.93121 -0.002,0.45935 -2.17758,0.0386 -5.92261,-1.14511 -11.34944,-3.58741 -25.38013,-3.84742 -31.73528,-0.58809 -8.24848,4.23035 -8.81037,14.16329 -1.03995,18.38425 1.39437,0.75744 7.86323,3.15466 14.37523,5.32716 12.948,4.31964 16.05008,5.77684 21.0784,9.90156 7.33729,6.01876 10.2879,12.8039 10.27214,23.62153 -0.017,11.69859 -2.95134,19.44315 -9.75238,25.73971 -10.14138,9.38913 -27.6521,13.6954 -47.83816,11.76445 z m 124.32966,0.008 c -15.4715,-1.62625 -26.63577,-6.45757 -35.45302,-15.34223 -5.90325,-5.94839 -9.9452,-13.52782 -12.45591,-23.35726 -2.95794,-11.58035 -2.80291,-29.89304 0.34546,-40.80685 2.62775,-9.10908 7.43868,-18.18819 12.66694,-23.90486 9.53806,-10.42907 24.11726,-15.61085 41.44687,-14.73115 13.40041,0.68024 23.84012,4.15211 31.37505,10.4342 10.77603,8.98429 17.01034,26.46711 18.50332,51.88866 l 0.34767,5.92 h -39.57613 -39.57614 l 0.53638,3.42045 c 1.14669,7.31233 3.97501,12.85739 8.74522,17.14546 6.71317,6.03463 13.31069,8.30449 24.12463,8.30002 10.69695,-0.004 20.66716,-2.63056 32.01014,-8.43142 2.73569,-1.39905 5.10415,-2.41356 5.26324,-2.25447 0.15908,0.15909 0.0798,5.62655 -0.17621,12.14991 l -0.46546,11.86066 -4.82864,2.01017 c -12.33738,5.13606 -28.15963,7.24111 -42.83341,5.69871 z m 28.32609,-70.40498 c 0.80189,-1.29748 -1.11076,-9.5712 -3.20442,-13.86167 -3.55084,-7.27662 -7.58778,-10.51154 -15.09966,-12.09979 -5.52826,-1.16885 -9.86339,-0.85937 -15.95167,1.13876 -8.09757,2.65757 -14.93825,12.07707 -15.83765,21.80819 l -0.34013,3.68 h 25.01112 c 16.62241,0 25.14907,-0.22321 25.42241,-0.66549 z m 89.83718,68.82287 c -17.76063,-3.53923 -31.61681,-16.28372 -37.59549,-34.5792 -2.61317,-7.9966 -3.51333,-14.4764 -3.46439,-24.93818 0.10569,-22.59077 7.90973,-39.85948 22.71053,-50.25368 8.62128,-6.05449 18.44757,-8.94696 30.38944,-8.94545 20.88854,0.003 34.81491,7.41516 43.59422,23.20365 l 2.04881,3.68452 -3.52802,1.59548 c -1.94042,0.87751 -5.05242,2.28549 -6.91557,3.12883 l -3.38753,1.53335 -2.07811,-4.00811 c -2.68727,-5.18302 -5.67019,-8.62466 -9.85895,-11.37509 -4.84132,-3.17891 -8.8887,-4.37074 -16.22671,-4.77828 -16.7631,-0.931 -30.07969,6.65521 -36.96399,21.0577 -4.31951,9.03675 -5.22301,13.5869 -5.18589,26.11708 0.0374,12.63711 1.33697,18.97177 5.56195,27.11214 3.14623,6.0619 9.24587,12.56137 14.36053,15.30184 4.96189,2.65863 12.2516,4.30602 19.05415,4.30602 15.84506,0 26.22996,-7.04301 32.71726,-22.18873 l 0.59483,-1.38873 6.67825,2.52031 c 3.67304,1.38617 6.79505,2.63712 6.93781,2.77988 0.56076,0.56075 -5.13227,10.49488 -8.15012,14.22166 -6.03267,7.44983 -16.70246,13.78893 -26.81792,15.93298 -5.28931,1.12111 -18.75886,1.0991 -24.47509,-0.04 z m 377.02708,-0.25372 c -10.72017,-2.37345 -19.42051,-6.87845 -26.1102,-13.51976 -3.90427,-3.87604 -7.8415,-8.94683 -7.77944,-10.01921 0.0272,-0.46919 10.44703,-9.21537 11.51906,-9.66881 0.23942,-0.10127 0.81263,0.72682 1.2738,1.84018 1.69242,4.08586 6.33342,9.48016 10.939,12.71453 6.74348,4.73576 12.73341,6.5086 23.27778,6.88954 19.09722,0.68993 30.74813,-5.52273 32.12271,-17.12891 0.83802,-7.07581 -2.66856,-12.62789 -10.25249,-16.23306 -4.64599,-2.20857 -10.61465,-3.81361 -28.59022,-7.68828 -21.3228,-4.59616 -31.14605,-10.9328 -34.65679,-22.35589 -1.10562,-3.59741 -1.29357,-5.49609 -1.04536,-10.56 0.26433,-5.39252 0.59619,-6.80758 2.62184,-11.17965 3.2446,-7.00298 9.03201,-12.7395 16.44031,-16.29575 7.55951,-3.62885 11.82622,-4.63408 21.44,-5.05122 16.96936,-0.73629 30.31807,3.95418 39.71043,13.95345 3.37853,3.59685 7.32957,9.0027 7.32957,10.0284 0,0.47201 -6.79012,6.35518 -10.6277,9.20817 -0.46129,0.34294 -1.74046,-1.22282 -3.67387,-4.49699 -3.3665,-5.70108 -8.31035,-10.69831 -12.65233,-12.78894 -7.02564,-3.3828 -19.53671,-4.29987 -28.25193,-2.07089 -12.18871,3.11734 -17.99519,9.25773 -17.97251,19.00599 0.0261,11.2247 7.20021,15.79277 32.53834,20.7187 24.08157,4.68165 34.51219,10.06382 39.48785,20.37565 1.80316,3.73697 2.08673,5.05311 2.31314,10.73617 0.19185,4.81554 -0.0206,7.44237 -0.82808,10.24 -3.1665,10.97046 -12.56247,19.03134 -26.54902,22.77664 -7.1694,1.91982 -24.53126,2.22881 -32.02389,0.56994 z M 149.12,218.88 v -56.96 h 12.8 12.8 v 12.8 c 0,7.04 0.22827,12.8 0.50726,12.8 0.279,0 0.86953,-1.368 1.31229,-3.04 1.86292,-7.03492 11.06882,-18.72084 17.20093,-21.83477 5.60218,-2.84483 12.0626,-3.82503 18.9702,-2.87824 l 2.96932,0.40699 v 14.70148 c 0,13.32156 -0.0978,14.66394 -1.0424,14.30148 -5.77676,-2.21675 -17.37157,-2.17024 -21.70636,0.0871 -5.68475,2.9603 -10.16415,9.66458 -12.3465,18.47889 -2.01712,8.14698 -2.14888,10.69061 -2.077,40.09708 l 0.0684,28 H 163.84809 149.12 Z m 85.76,0 v -56.96 h 14.72 14.72001 v 56.96 56.96 H 249.6 234.88 Z m 407.68001,-1.6 v -58.56 h 7.04 7.04 v 51.83429 51.83429 l 33.44,0.16571 33.44,0.16571 0.18239,6.56 0.18239,6.56 H 683.2224 642.56001 Z m 105.6,0 v -58.56 h 7.04001 7.04 v 58.56 58.56 h -7.04 -7.04001 z m 52.48001,-0.0765 v -58.63652 l 24.48,0.31611 c 22.26038,0.28745 24.93343,0.43803 29.48093,1.6608 15.54799,4.18069 24.84046,14.95872 26.38163,30.59921 0.51196,5.19552 -0.42547,12.11994 -2.32987,17.20991 -3.15212,8.42478 -11.50514,15.96658 -21.37269,19.29703 -5.01446,1.69245 -5.50591,1.73306 -23.84,1.96973 l -18.72,0.24166 v 22.9893 22.98929 h -7.04 -7.04 z m 48.73214,-1.16697 c 7.90632,-1.67578 12.11635,-4.78207 15.09423,-11.13697 2.1726,-4.63639 2.6921,-12.43329 1.17593,-17.64874 -2.06914,-7.11759 -5.44364,-10.77936 -12.29538,-13.34208 -3.45211,-1.29117 -5.11913,-1.4187 -21.18692,-1.62087 l -17.44,-0.21943 V 194.51421 216.96 l 15.2,-0.0111 c 10.59255,-0.008 16.48892,-0.28431 19.45214,-0.91238 z M 1022.08,217.28 v -58.56 h 40.96 40.96 v 6.72 6.72 h -33.92 -33.92 v 18.88 18.88 h 26.5824 26.5824 l -0.1824,6.56 -0.1824,6.56 -26.4,0.1671 -26.4,0.1671 V 242.8871 262.4 h 35.2 35.2 v 6.72 6.72 h -42.24 -42.24 z m -787.2,-90.56 v -14.08 h 14.72 14.72001 v 14.08 14.08 H 249.6 234.88 Z"
         id="path5" />
      <path
         style="fill:#87d80f"
         d="m 158.29776,353.97752 c -7.89801,-2.00057 -13.02557,-10.5815 -11.10554,-18.58506 1.00486,-4.18875 4.03107,-8.20985 7.7096,-10.24423 2.21519,-1.22508 3.7614,-1.56814 7.01012,-1.55533 4.90245,0.0193 8.3587,1.53518 11.40119,5.00037 1.92749,2.19529 3.96687,7.48374 3.96687,10.28673 0,2.80299 -2.03938,8.09144 -3.96687,10.28672 -3.55078,4.04412 -9.94911,6.09409 -15.01537,4.8108 z m 227.5074,-0.29608 c -13.25444,-3.63194 -15.12944,-22.16936 -2.87997,-28.47316 8.74779,-4.50177 19.51998,0.66996 21.5264,10.33483 2.35545,11.34614 -7.70822,21.13558 -18.64643,18.13833 z m 62.08,0 c -13.25444,-3.63194 -15.12944,-22.16936 -2.87996,-28.47316 8.74778,-4.50177 19.51997,0.66996 21.52639,10.33483 2.35545,11.34614 -7.70822,21.13558 -18.64643,18.13833 z M 238.72,339.2 v -14.08 h 51.84001 51.84 v 14.08 14.08 h -51.84 H 238.72 Z m 74.24001,-61.46843 c -5.50872,-0.52695 -22.37632,-3.58419 -22.96053,-4.16157 -0.25226,-0.24932 1.21038,-23.51909 1.49774,-23.82808 0.0911,-0.0979 1.57348,0.52145 3.2942,1.37643 8.13054,4.03987 21.47649,6.55572 29.12544,5.49044 5.21094,-0.72573 10.86401,-3.08989 13.1571,-5.5024 2.58756,-2.72232 3.81305,-7.85812 2.78557,-11.67387 -1.53223,-5.69027 -4.79072,-7.7189 -20.17952,-12.56311 -17.31548,-5.4507 -23.37618,-9.36953 -27.5024,-17.78297 -3.57443,-7.2883 -4.36423,-14.04137 -2.61014,-22.31759 2.70438,-12.75993 11.85296,-21.06718 28.19254,-25.59987 4.51154,-1.25152 6.64115,-1.41895 17.92,-1.40888 11.45749,0.0102 13.67036,0.19455 21.09839,1.75739 4.56411,0.96028 8.37182,1.81939 8.46157,1.90914 0.0897,0.0897 -0.25935,4.75547 -0.77578,10.36827 -0.51643,5.61281 -0.94013,10.53185 -0.94157,10.93121 -0.002,0.45935 -2.17758,0.0386 -5.92261,-1.14511 -11.34944,-3.58741 -25.38013,-3.84742 -31.73528,-0.58809 -8.24848,4.23035 -8.81037,14.16329 -1.03995,18.38425 1.39437,0.75744 7.86323,3.15466 14.37523,5.32716 12.948,4.31964 16.05008,5.77684 21.0784,9.90156 7.33729,6.01876 10.2879,12.8039 10.27214,23.62153 -0.017,11.69859 -2.95134,19.44315 -9.75238,25.73971 -10.14138,9.38913 -27.6521,13.6954 -47.83816,11.76445 z m 124.32966,0.008 c -15.4715,-1.62625 -26.63577,-6.45757 -35.45302,-15.34223 -5.90325,-5.94839 -9.9452,-13.52782 -12.45591,-23.35726 -2.95794,-11.58035 -2.80291,-29.89304 0.34546,-40.80685 2.62775,-9.10908 7.43868,-18.18819 12.66694,-23.90486 9.53806,-10.42907 24.11726,-15.61085 41.44687,-14.73115 13.40041,0.68024 23.84012,4.15211 31.37505,10.4342 10.77603,8.98429 17.01034,26.46711 18.50332,51.88866 l 0.34767,5.92 h -39.57613 -39.57614 l 0.53638,3.42045 c 1.14669,7.31233 3.97501,12.85739 8.74522,17.14546 6.71317,6.03463 13.31069,8.30449 24.12463,8.30002 10.69695,-0.004 20.66716,-2.63056 32.01014,-8.43142 2.73569,-1.39905 5.10415,-2.41356 5.26324,-2.25447 0.15908,0.15909 0.0798,5.62655 -0.17621,12.14991 l -0.46546,11.86066 -4.82864,2.01017 c -12.33738,5.13606 -28.15963,7.24111 -42.83341,5.69871 z m 28.32609,-70.40498 c 0.80189,-1.29748 -1.11076,-9.5712 -3.20442,-13.86167 -3.55084,-7.27662 -7.58778,-10.51154 -15.09966,-12.09979 -5.52826,-1.16885 -9.86339,-0.85937 -15.95167,1.13876 -8.09757,2.65757 -14.93825,12.07707 -15.83765,21.80819 l -0.34013,3.68 h 25.01112 c 16.62241,0 25.14907,-0.22321 25.42241,-0.66549 z m 89.83718,68.82287 c -17.76063,-3.53923 -31.61681,-16.28372 -37.59549,-34.5792 -2.61317,-7.9966 -3.51333,-14.4764 -3.46439,-24.93818 0.10569,-22.59077 7.90973,-39.85948 22.71053,-50.25368 8.62128,-6.05449 18.44757,-8.94696 30.38944,-8.94545 20.88854,0.003 34.81491,7.41516 43.59422,23.20365 l 2.04881,3.68452 -3.52802,1.59548 c -1.94042,0.87751 -5.05242,2.28549 -6.91557,3.12883 l -3.38753,1.53335 -2.07811,-4.00811 c -2.68727,-5.18302 -5.67019,-8.62466 -9.85895,-11.37509 -4.84132,-3.17891 -8.8887,-4.37074 -16.22671,-4.77828 -16.7631,-0.931 -30.07969,6.65521 -36.96399,21.0577 -4.31951,9.03675 -5.22301,13.5869 -5.18589,26.11708 0.0374,12.63711 1.33697,18.97177 5.56195,27.11214 3.14623,6.0619 9.24587,12.56137 14.36053,15.30184 4.96189,2.65863 12.2516,4.30602 19.05415,4.30602 15.84506,0 26.22996,-7.04301 32.71726,-22.18873 l 0.59483,-1.38873 6.67825,2.52031 c 3.67304,1.38617 6.79505,2.63712 6.93781,2.77988 0.56076,0.56075 -5.13227,10.49488 -8.15012,14.22166 -6.03267,7.44983 -16.70246,13.78893 -26.81792,15.93298 -5.28931,1.12111 -18.75886,1.0991 -24.47509,-0.04 z m 377.02708,-0.25372 c -10.72017,-2.37345 -19.42051,-6.87845 -26.1102,-13.51976 -3.90427,-3.87604 -7.8415,-8.94683 -7.77944,-10.01921 0.0272,-0.46919 10.44703,-9.21537 11.51906,-9.66881 0.23942,-0.10127 0.81263,0.72682 1.2738,1.84018 1.69242,4.08586 6.33342,9.48016 10.939,12.71453 6.74348,4.73576 12.73341,6.5086 23.27778,6.88954 19.09722,0.68993 30.74813,-5.52273 32.12271,-17.12891 0.83802,-7.07581 -2.66856,-12.62789 -10.25249,-16.23306 -4.64599,-2.20857 -10.61465,-3.81361 -28.59022,-7.68828 -21.3228,-4.59616 -31.14605,-10.9328 -34.65679,-22.35589 -1.10562,-3.59741 -1.29357,-5.49609 -1.04536,-10.56 0.26433,-5.39252 0.59619,-6.80758 2.62184,-11.17965 3.2446,-7.00298 9.03201,-12.7395 16.44031,-16.29575 7.55951,-3.62885 11.82622,-4.63408 21.44,-5.05122 16.96936,-0.73629 30.31807,3.95418 39.71043,13.95345 3.37853,3.59685 7.32957,9.0027 7.32957,10.0284 0,0.47201 -6.79012,6.35518 -10.6277,9.20817 -0.46129,0.34294 -1.74046,-1.22282 -3.67387,-4.49699 -3.3665,-5.70108 -8.31035,-10.69831 -12.65233,-12.78894 -7.02564,-3.3828 -19.53671,-4.29987 -28.25193,-2.07089 -12.18871,3.11734 -17.99519,9.25773 -17.97251,19.00599 0.0261,11.2247 7.20021,15.79277 32.53834,20.7187 24.08157,4.68165 34.51219,10.06382 39.48785,20.37565 1.80316,3.73697 2.08673,5.05311 2.31314,10.73617 0.19185,4.81554 -0.0206,7.44237 -0.82808,10.24 -3.1665,10.97046 -12.56247,19.03134 -26.54902,22.77664 -7.1694,1.91982 -24.53126,2.22881 -32.02389,0.56994 z M 149.12,218.88 v -56.96 h 12.8 12.8 v 12.8 c 0,7.04 0.22827,12.8 0.50726,12.8 0.279,0 0.86953,-1.368 1.31229,-3.04 1.86292,-7.03492 11.06882,-18.72084 17.20093,-21.83477 5.60218,-2.84483 12.0626,-3.82503 18.9702,-2.87824 l 2.96932,0.40699 v 14.70148 c 0,13.32156 -0.0978,14.66394 -1.0424,14.30148 -5.77676,-2.21675 -17.37157,-2.17024 -21.70636,0.0871 -5.68475,2.9603 -10.16415,9.66458 -12.3465,18.47889 -2.01712,8.14698 -2.14888,10.69061 -2.077,40.09708 l 0.0684,28 H 163.84809 149.12 Z m 85.76,0 v -56.96 h 14.72 14.72001 v 56.96 56.96 H 249.6 234.88 Z m 407.68001,-1.6 v -58.56 h 7.04 7.04 v 51.83429 51.83429 l 33.44,0.16571 33.44,0.16571 0.18239,6.56 0.18239,6.56 H 683.2224 642.56001 Z m 105.6,0 v -58.56 h 7.04001 7.04 v 58.56 58.56 h -7.04 -7.04001 z m 52.48001,-0.0765 v -58.63652 l 24.48,0.31611 c 22.26038,0.28745 24.93343,0.43803 29.48093,1.6608 15.54799,4.18069 24.84046,14.95872 26.38163,30.59921 0.51196,5.19552 -0.42547,12.11994 -2.32987,17.20991 -3.15212,8.42478 -11.50514,15.96658 -21.37269,19.29703 -5.01446,1.69245 -5.50591,1.73306 -23.84,1.96973 l -18.72,0.24166 v 22.9893 22.98929 h -7.04 -7.04 z m 48.73214,-1.16697 c 7.90632,-1.67578 12.11635,-4.78207 15.09423,-11.13697 2.1726,-4.63639 2.6921,-12.43329 1.17593,-17.64874 -2.06914,-7.11759 -5.44364,-10.77936 -12.29538,-13.34208 -3.45211,-1.29117 -5.11913,-1.4187 -21.18692,-1.62087 l -17.44,-0.21943 V 194.51421 216.96 l 15.2,-0.0111 c 10.59255,-0.008 16.48892,-0.28431 19.45214,-0.91238 z M 1022.08,217.28 v -58.56 h 40.96 40.96 v 6.72 6.72 h -33.92 -33.92 v 18.88 18.88 h 26.5824 26.5824 l -0.1824,6.56 -0.1824,6.56 -26.4,0.1671 -26.4,0.1671 V 242.8871 262.4 h 35.2 35.2 v 6.72 6.72 h -42.24 -42.24 z m -787.2,-90.56 v -14.08 h 14.72 14.72001 v 14.08 14.08 H 249.6 234.88 Z"
         id="path4" />
      <path
         style="fill:#0f56c7"
         d="m 158.29776,353.97752 c -7.89801,-2.00057 -13.02557,-10.5815 -11.10554,-18.58506 1.00486,-4.18875 4.03107,-8.20985 7.7096,-10.24423 2.21519,-1.22508 3.7614,-1.56814 7.01012,-1.55533 4.90245,0.0193 8.3587,1.53518 11.40119,5.00037 1.92749,2.19529 3.96687,7.48374 3.96687,10.28673 0,2.80299 -2.03938,8.09144 -3.96687,10.28672 -3.55078,4.04412 -9.94911,6.09409 -15.01537,4.8108 z m 154.66225,-76.24595 c -5.50872,-0.52695 -22.37632,-3.58419 -22.96053,-4.16157 -0.25226,-0.24932 1.21038,-23.51909 1.49774,-23.82808 0.0911,-0.0979 1.57348,0.52145 3.2942,1.37643 8.13054,4.03987 21.47649,6.55572 29.12544,5.49044 5.21094,-0.72573 10.86401,-3.08989 13.1571,-5.5024 2.58756,-2.72232 3.81305,-7.85812 2.78557,-11.67387 -1.53223,-5.69027 -4.79072,-7.7189 -20.17952,-12.56311 -17.31548,-5.4507 -23.37618,-9.36953 -27.5024,-17.78297 -3.57443,-7.2883 -4.36423,-14.04137 -2.61014,-22.31759 2.70438,-12.75993 11.85296,-21.06718 28.19254,-25.59987 4.51154,-1.25152 6.64115,-1.41895 17.92,-1.40888 11.45749,0.0102 13.67036,0.19455 21.09839,1.75739 4.56411,0.96028 8.37182,1.81939 8.46157,1.90914 0.0897,0.0897 -0.25935,4.75547 -0.77578,10.36827 -0.51643,5.61281 -0.94013,10.53185 -0.94157,10.93121 -0.002,0.45935 -2.17758,0.0386 -5.92261,-1.14511 -11.34944,-3.58741 -25.38013,-3.84742 -31.73528,-0.58809 -8.24848,4.23035 -8.81037,14.16329 -1.03995,18.38425 1.39437,0.75744 7.86323,3.15466 14.37523,5.32716 12.948,4.31964 16.05008,5.77684 21.0784,9.90156 7.33729,6.01876 10.2879,12.8039 10.27214,23.62153 -0.017,11.69859 -2.95134,19.44315 -9.75238,25.73971 -10.14138,9.38913 -27.6521,13.6954 -47.83816,11.76445 z m 124.32966,0.008 c -15.4715,-1.62625 -26.63577,-6.45757 -35.45302,-15.34223 -5.90325,-5.94839 -9.9452,-13.52782 -12.45591,-23.35726 -2.95794,-11.58035 -2.80291,-29.89304 0.34546,-40.80685 2.62775,-9.10908 7.43868,-18.18819 12.66694,-23.90486 9.53806,-10.42907 24.11726,-15.61085 41.44687,-14.73115 13.40041,0.68024 23.84012,4.15211 31.37505,10.4342 10.77603,8.98429 17.01034,26.46711 18.50332,51.88866 l 0.34767,5.92 h -39.57613 -39.57614 l 0.53638,3.42045 c 1.14669,7.31233 3.97501,12.85739 8.74522,17.14546 6.71317,6.03463 13.31069,8.30449 24.12463,8.30002 10.69695,-0.004 20.66716,-2.63056 32.01014,-8.43142 2.73569,-1.39905 5.10415,-2.41356 5.26324,-2.25447 0.15908,0.15909 0.0798,5.62655 -0.17621,12.14991 l -0.46546,11.86066 -4.82864,2.01017 c -12.33738,5.13606 -28.15963,7.24111 -42.83341,5.69871 z m 28.32609,-70.40498 c 0.80189,-1.29748 -1.11076,-9.5712 -3.20442,-13.86167 -3.55084,-7.27662 -7.58778,-10.51154 -15.09966,-12.09979 -5.52826,-1.16885 -9.86339,-0.85937 -15.95167,1.13876 -8.09757,2.65757 -14.93825,12.07707 -15.83765,21.80819 l -0.34013,3.68 h 25.01112 c 16.62241,0 25.14907,-0.22321 25.42241,-0.66549 z m 89.83718,68.82287 c -17.76063,-3.53923 -31.61681,-16.28372 -37.59549,-34.5792 -2.61317,-7.9966 -3.51333,-14.4764 -3.46439,-24.93818 0.10569,-22.59077 7.90973,-39.85948 22.71053,-50.25368 8.62128,-6.05449 18.44757,-8.94696 30.38944,-8.94545 20.88854,0.003 34.81491,7.41516 43.59422,23.20365 l 2.04881,3.68452 -3.52802,1.59548 c -1.94042,0.87751 -5.05242,2.28549 -6.91557,3.12883 l -3.38753,1.53335 -2.07811,-4.00811 c -2.68727,-5.18302 -5.67019,-8.62466 -9.85895,-11.37509 -4.84132,-3.17891 -8.8887,-4.37074 -16.22671,-4.77828 -16.7631,-0.931 -30.07969,6.65521 -36.96399,21.0577 -4.31951,9.03675 -5.22301,13.5869 -5.18589,26.11708 0.0374,12.63711 1.33697,18.97177 5.56195,27.11214 3.14623,6.0619 9.24587,12.56137 14.36053,15.30184 4.96189,2.65863 12.2516,4.30602 19.05415,4.30602 15.84506,0 26.22996,-7.04301 32.71726,-22.18873 l 0.59483,-1.38873 6.67825,2.52031 c 3.67304,1.38617 6.79505,2.63712 6.93781,2.77988 0.56076,0.56075 -5.13227,10.49488 -8.15012,14.22166 -6.03267,7.44983 -16.70246,13.78893 -26.81792,15.93298 -5.28931,1.12111 -18.75886,1.0991 -24.47509,-0.04 z m 377.02708,-0.25372 c -10.72017,-2.37345 -19.42051,-6.87845 -26.1102,-13.51976 -3.90427,-3.87604 -7.8415,-8.94683 -7.77944,-10.01921 0.0272,-0.46919 10.44703,-9.21537 11.51906,-9.66881 0.23942,-0.10127 0.81263,0.72682 1.2738,1.84018 1.69242,4.08586 6.33342,9.48016 10.939,12.71453 6.74348,4.73576 12.73341,6.5086 23.27778,6.88954 19.09722,0.68993 30.74813,-5.52273 32.12271,-17.12891 0.83802,-7.07581 -2.66856,-12.62789 -10.25249,-16.23306 -4.64599,-2.20857 -10.61465,-3.81361 -28.59022,-7.68828 -21.3228,-4.59616 -31.14605,-10.9328 -34.65679,-22.35589 -1.10562,-3.59741 -1.29357,-5.49609 -1.04536,-10.56 0.26433,-5.39252 0.59619,-6.80758 2.62184,-11.17965 3.2446,-7.00298 9.03201,-12.7395 16.44031,-16.29575 7.55951,-3.62885 11.82622,-4.63408 21.44,-5.05122 16.96936,-0.73629 30.31807,3.95418 39.71043,13.95345 3.37853,3.59685 7.32957,9.0027 7.32957,10.0284 0,0.47201 -6.79012,6.35518 -10.6277,9.20817 -0.46129,0.34294 -1.74046,-1.22282 -3.67387,-4.49699 -3.3665,-5.70108 -8.31035,-10.69831 -12.65233,-12.78894 -7.02564,-3.3828 -19.53671,-4.29987 -28.25193,-2.07089 -12.18871,3.11734 -17.99519,9.25773 -17.97251,19.00599 0.0261,11.2247 7.20021,15.79277 32.53834,20.7187 24.08157,4.68165 34.51219,10.06382 39.48785,20.37565 1.80316,3.73697 2.08673,5.05311 2.31314,10.73617 0.19185,4.81554 -0.0206,7.44237 -0.82808,10.24 -3.1665,10.97046 -12.56247,19.03134 -26.54902,22.77664 -7.1694,1.91982 -24.53126,2.22881 -32.02389,0.56994 z M 149.12,218.88 v -56.96 h 12.8 12.8 v 12.8 c 0,7.04 0.22827,12.8 0.50726,12.8 0.279,0 0.86953,-1.368 1.31229,-3.04 1.86292,-7.03492 11.06882,-18.72084 17.20093,-21.83477 5.60218,-2.84483 12.0626,-3.82503 18.9702,-2.87824 l 2.96932,0.40699 v 14.70148 c 0,13.32156 -0.0978,14.66394 -1.0424,14.30148 -5.77676,-2.21675 -17.37157,-2.17024 -21.70636,0.0871 -5.68475,2.9603 -10.16415,9.66458 -12.3465,18.47889 -2.01712,8.14698 -2.14888,10.69061 -2.077,40.09708 l 0.0684,28 H 163.84809 149.12 Z m 85.76,0 v -56.96 h 14.72 14.72001 v 56.96 56.96 H 249.6 234.88 Z m 407.68001,-1.6 v -58.56 h 7.04 7.04 v 51.83429 51.83429 l 33.44,0.16571 33.44,0.16571 0.18239,6.56 0.18239,6.56 H 683.2224 642.56001 Z m 105.6,0 v -58.56 h 7.04001 7.04 v 58.56 58.56 h -7.04 -7.04001 z m 52.48001,-0.0765 v -58.63652 l 24.48,0.31611 c 22.26038,0.28745 24.93343,0.43803 29.48093,1.6608 15.54799,4.18069 24.84046,14.95872 26.38163,30.59921 0.51196,5.19552 -0.42547,12.11994 -2.32987,17.20991 -3.15212,8.42478 -11.50514,15.96658 -21.37269,19.29703 -5.01446,1.69245 -5.50591,1.73306 -23.84,1.96973 l -18.72,0.24166 v 22.9893 22.98929 h -7.04 -7.04 z m 48.73214,-1.16697 c 7.90632,-1.67578 12.11635,-4.78207 15.09423,-11.13697 2.1726,-4.63639 2.6921,-12.43329 1.17593,-17.64874 -2.06914,-7.11759 -5.44364,-10.77936 -12.29538,-13.34208 -3.45211,-1.29117 -5.11913,-1.4187 -21.18692,-1.62087 l -17.44,-0.21943 V 194.51421 216.96 l 15.2,-0.0111 c 10.59255,-0.008 16.48892,-0.28431 19.45214,-0.91238 z M 1022.08,217.28 v -58.56 h 40.96 40.96 v 6.72 6.72 h -33.92 -33.92 v 18.88 18.88 h 26.5824 26.5824 l -0.1824,6.56 -0.1824,6.56 -26.4,0.1671 -26.4,0.1671 V 242.8871 262.4 h 35.2 35.2 v 6.72 6.72 h -42.24 -42.24 z m -787.2,-90.56 v -14.08 h 14.72 14.72001 v 14.08 14.08 H 249.6 234.88 Z"
         id="path3" />
      <path
         style="fill:#4e9d30"
         d="m 158.29776,353.97752 c -7.89801,-2.00057 -13.02557,-10.5815 -11.10554,-18.58506 1.00486,-4.18875 4.03107,-8.20985 7.7096,-10.24423 2.21519,-1.22508 3.7614,-1.56814 7.01012,-1.55533 4.90245,0.0193 8.3587,1.53518 11.40119,5.00037 1.92749,2.19529 3.96687,7.48374 3.96687,10.28673 0,2.80299 -2.03938,8.09144 -3.96687,10.28672 -3.55078,4.04412 -9.94911,6.09409 -15.01537,4.8108 z"
         id="path2" />
    </g>
  </g>
</svg>
