<?xml version="1.0" encoding="UTF-8" standalone="no"?>
<svg
   version="1.1"
   id="svg4"
   width="53.021488"
   height="11.53125"
   xmlns="http://www.w3.org/2000/svg"
   xmlns:svg="http://www.w3.org/2000/svg">
  <defs
     id="defs8" />
  <g
     aria-label="RivGraph"
     id="text2"
     transform="translate(-1.171875,9.1171875)">
    <path
       d="M 8.390625,0 H 6.8847656 L 3.9667969,-3.46875 H 2.3320313 V 0 H 1.171875 v -8.7246094 h 2.4433594 q 0.7910156,0 1.3183593,0.1054688 0.5273438,0.099609 0.9492188,0.3632812 0.4746094,0.2988282 0.7382812,0.7558594 0.2695313,0.4511719 0.2695313,1.1484375 0,0.9433594 -0.4746094,1.5820313 -0.4746094,0.6328125 -1.3066406,0.9550781 z M 5.6777344,-6.2695312 q 0,-0.375 -0.1347657,-0.6621094 Q 5.4140625,-7.2246094 5.109375,-7.4238281 4.8574219,-7.59375 4.5117187,-7.6582031 4.1660156,-7.7285156 3.6972656,-7.7285156 H 2.3320313 v 3.2929687 h 1.171875 q 0.5507812,0 0.9609374,-0.09375 0.4101563,-0.099609 0.6972657,-0.3632812 0.2636718,-0.2460938 0.3867187,-0.5625 0.1289063,-0.3222656 0.1289063,-0.8144531 z"
       id="path10" />
    <path
       d="M 10.611328,-7.640625 H 9.3691406 V -8.7832031 H 10.611328 Z M 10.541016,0 H 9.4394531 v -6.5449219 h 1.1015629 z"
       id="path12" />
    <path
       d="M 18.380859,-6.5449219 15.732422,0 H 14.625 l -2.630859,-6.5449219 h 1.195312 l 2.027344,5.2089844 2.009765,-5.2089844 z"
       id="path14" />
    <path
       d="m 27.1875,-0.64453125 q -0.714844,0.328125 -1.564453,0.57421875 -0.84375,0.24023437 -1.634766,0.24023437 -1.019531,0 -1.86914,-0.28124999 -0.84961,-0.28125001 -1.447266,-0.84375001 -0.603516,-0.56835937 -0.931641,-1.41796877 -0.328125,-0.8554687 -0.328125,-1.9980468 0,-2.0917969 1.21875,-3.2988282 1.22461,-1.2128906 3.357422,-1.2128906 0.744141,0 1.517578,0.1816406 0.779297,0.1757813 1.675782,0.6035156 v 1.3769532 h -0.105469 q -0.181641,-0.140625 -0.527344,-0.3691406 -0.345703,-0.2285157 -0.679687,-0.3808594 -0.404297,-0.1816406 -0.919922,-0.2988281 -0.509766,-0.1230469 -1.160157,-0.1230469 -1.464843,0 -2.320312,0.9433594 -0.849609,0.9375 -0.849609,2.5429687 0,1.6933594 0.890625,2.6367188 0.890625,0.93749995 2.425781,0.93749995 0.5625,0 1.11914,-0.11132813 0.5625,-0.11132812 0.984375,-0.28710932 v -2.1386719 h -2.33789 V -4.3886719 H 27.1875 Z"
       id="path16" />
    <path
       d="m 33.210937,-5.34375 h -0.05859 q -0.246094,-0.058594 -0.480469,-0.082031 -0.228516,-0.029297 -0.544922,-0.029297 -0.509766,0 -0.984375,0.2285156 -0.474609,0.2226563 -0.914062,0.5800781 V 0 h -1.101563 v -6.5449219 h 1.101563 v 0.9667969 q 0.65625,-0.5273437 1.154296,-0.7441406 0.503907,-0.2226563 1.025391,-0.2226563 0.287109,0 0.416016,0.017578 0.128906,0.011719 0.386718,0.052734 z"
       id="path18" />
    <path
       d="m 39.123047,0 h -1.095703 v -0.69726562 q -0.146485,0.0996094 -0.398438,0.28124999 -0.246094,0.17578125 -0.480469,0.28125001 Q 36.873047,0 36.515625,0.08789062 q -0.357422,0.09375 -0.837891,0.09375 -0.884765,0 -1.5,-0.5859375 -0.615234,-0.5859375 -0.615234,-1.49414062 0,-0.7441406 0.316406,-1.2011719 0.322266,-0.4628906 0.914063,-0.7265625 0.597656,-0.2636718 1.435547,-0.3574218 0.83789,-0.09375 1.798828,-0.140625 v -0.1699219 q 0,-0.375 -0.134766,-0.6210938 -0.128906,-0.2460937 -0.375,-0.3867187 -0.234375,-0.1347656 -0.5625,-0.1816406 -0.328125,-0.046875 -0.685547,-0.046875 -0.433594,0 -0.966797,0.1171875 -0.533203,0.1113281 -1.101562,0.328125 h -0.05859 v -1.1191407 q 0.322266,-0.087891 0.931641,-0.1933593 0.609375,-0.1054688 1.201172,-0.1054688 0.691406,0 1.201171,0.1171875 0.515625,0.1113281 0.890625,0.3867188 0.369141,0.2695312 0.5625,0.6972656 0.19336,0.4277344 0.19336,1.0605469 z m -1.095703,-1.6113281 v -1.8222657 q -0.503907,0.029297 -1.189453,0.087891 -0.679688,0.058594 -1.078125,0.1699218 -0.47461,0.1347657 -0.767579,0.421875 -0.292968,0.28125 -0.292968,0.7792969 0,0.5625 0.339843,0.8496094 0.339844,0.28125 1.03711,0.28125 0.580078,0 1.060547,-0.2226562 0.480468,-0.2285157 0.890625,-0.5449222 z"
       id="path20" />
    <path
       d="m 47.003906,-3.3515625 q 0,0.796875 -0.228515,1.4589844 -0.228516,0.65625 -0.644532,1.11328123 -0.386718,0.43359374 -0.914062,0.67382812 -0.521485,0.234375 -1.107422,0.234375 -0.509766,0 -0.925781,-0.11132812 Q 42.773437,-0.09375 42.345703,-0.328125 v 2.7421875 h -1.101562 v -8.9589844 h 1.101562 v 0.6855469 q 0.439453,-0.3691406 0.984375,-0.6152344 0.550781,-0.2519531 1.171875,-0.2519531 1.183594,0 1.839844,0.8964844 0.662109,0.890625 0.662109,2.4785156 z m -1.136719,0.029297 q 0,-1.1835938 -0.404296,-1.7695313 -0.404297,-0.5859375 -1.242188,-0.5859375 -0.474609,0 -0.955078,0.2050782 -0.480469,0.2050781 -0.919922,0.5390625 v 3.7089843 q 0.46875,0.2109375 0.802734,0.2871094 0.339844,0.0761719 0.767579,0.0761719 0.919921,0 1.435546,-0.6210938 0.515625,-0.6210937 0.515625,-1.8398437 z"
       id="path22" />
    <path
       d="m 54.193359,0 h -1.101562 v -3.7265625 q 0,-0.4511719 -0.05273,-0.84375 -0.05273,-0.3984375 -0.193359,-0.6210937 -0.146484,-0.2460938 -0.421875,-0.3632813 -0.275391,-0.1230469 -0.714844,-0.1230469 -0.451172,0 -0.943359,0.2226563 -0.492188,0.2226562 -0.943359,0.5683594 V 0 h -1.101563 v -9.1171875 h 1.101563 v 3.2988281 q 0.515625,-0.4277343 1.066406,-0.6679687 0.550781,-0.2402344 1.130859,-0.2402344 1.060547,0 1.617188,0.6386719 0.55664,0.6386719 0.55664,1.8398437 z"
       id="path24" />
  </g>
</svg>
