<svg width="154.8" height="74.701" viewBox="0 0 154.8 74.701" xmlns="http://www.w3.org/2000/svg"><g id="svgGroup" stroke-linecap="round" fill-rule="evenodd" font-size="9pt" stroke="#000" stroke-width="0.25mm" fill="#000" style="stroke:#000;stroke-width:0.25mm;fill:#000"><path d="M 32.9 69.301 L 36.7 61.801 A 18.557 18.557 0 0 0 39.844 63.926 Q 41.398 64.771 43.25 65.451 A 24.073 24.073 0 0 0 50.861 66.888 A 27.464 27.464 0 0 0 51.7 66.901 Q 57.092 66.901 59.935 65.185 A 7.738 7.738 0 0 0 60.15 65.051 Q 63 63.201 63 60.301 A 7.123 7.123 0 0 0 62.686 58.153 A 6.212 6.212 0 0 0 61.95 56.601 A 6.384 6.384 0 0 0 61.021 55.507 Q 60.007 54.535 58.334 53.582 A 22.3 22.3 0 0 0 58.1 53.451 A 28.462 28.462 0 0 0 56.106 52.457 Q 53.99 51.496 51.001 50.446 A 103.602 103.602 0 0 0 50 50.101 A 46.616 46.616 0 0 1 45.602 48.358 Q 43.488 47.384 41.812 46.296 A 19.335 19.335 0 0 1 39.05 44.151 A 11.324 11.324 0 0 1 35.756 38.154 A 16.794 16.794 0 0 1 35.4 34.601 Q 35.4 28.601 40.65 24.451 Q 45.054 20.969 52.308 20.408 A 37.527 37.527 0 0 1 55.2 20.301 A 40.794 40.794 0 0 1 59.646 20.531 Q 61.954 20.785 63.97 21.316 A 25.234 25.234 0 0 1 64.1 21.351 Q 68 22.401 71.1 24.001 L 68.6 31.401 Q 65.9 29.801 62.45 28.801 A 25.024 25.024 0 0 0 57.967 27.953 A 31.837 31.837 0 0 0 54.8 27.801 A 20.632 20.632 0 0 0 51.863 27.996 Q 48.777 28.441 46.9 29.901 A 9.322 9.322 0 0 0 45.542 31.174 Q 44.84 31.993 44.505 32.866 A 4.529 4.529 0 0 0 44.2 34.501 A 4.921 4.921 0 0 0 45.695 38.052 A 7.082 7.082 0 0 0 46.3 38.601 Q 48.365 40.272 54.298 42.234 A 84.459 84.459 0 0 0 54.5 42.301 A 67.753 67.753 0 0 1 59.562 44.199 Q 65.489 46.718 68.3 49.601 Q 72.2 53.601 72.2 59.601 Q 72.2 66.349 66.949 70.356 A 16.618 16.618 0 0 1 66.55 70.651 Q 61.81 74.048 54.362 74.596 A 40.423 40.423 0 0 1 51.4 74.701 Q 45.5 74.701 40.75 73.201 A 30.883 30.883 0 0 1 36.91 71.716 Q 34.929 70.785 33.348 69.636 A 18.229 18.229 0 0 1 32.9 69.301 Z M 9 73.501 L 0 73.501 L 0 21.501 L 8.7 21.501 L 8.7 32.801 Q 10 29.501 12.2 26.651 Q 14.4 23.801 17.7 22.051 A 14.817 14.817 0 0 1 22.38 20.527 A 19.459 19.459 0 0 1 25.4 20.301 Q 26.9 20.301 28.4 20.451 A 18.972 18.972 0 0 1 29.455 20.584 Q 29.955 20.663 30.382 20.763 A 8.817 8.817 0 0 1 30.9 20.901 L 28.2 30.201 A 9.763 9.763 0 0 0 26.055 29.588 Q 24.959 29.401 23.7 29.401 A 12.958 12.958 0 0 0 17.07 31.246 A 15.609 15.609 0 0 0 16.65 31.501 Q 13.322 33.587 11.178 37.943 A 22.927 22.927 0 0 0 11.15 38.001 Q 9.387 41.608 9.07 46.828 A 39.09 39.09 0 0 0 9 49.201 L 9 73.501 Z M 92.8 71.251 A 24.559 24.559 0 0 0 97.398 73.34 Q 101.453 74.701 106.1 74.701 Q 113.5 74.701 119.35 71.301 Q 125.2 67.901 128.6 61.751 A 26.255 26.255 0 0 0 131.253 54.609 A 34.184 34.184 0 0 0 132 47.301 A 34.542 34.542 0 0 0 131.515 41.392 A 25.795 25.795 0 0 0 128.55 32.951 Q 125.1 26.901 119.25 23.601 A 24.848 24.848 0 0 0 114.609 21.574 A 27.738 27.738 0 0 0 106.1 20.301 A 31.325 31.325 0 0 0 104.52 20.34 A 26.169 26.169 0 0 0 92.9 23.601 Q 87 26.901 83.6 33.001 A 26.023 26.023 0 0 0 80.851 40.591 A 35.006 35.006 0 0 0 80.2 47.501 A 34.82 34.82 0 0 0 80.465 51.854 A 27.451 27.451 0 0 0 83.55 61.651 Q 86.9 67.801 92.8 71.251 Z M 153 73.501 L 144 73.501 L 144 21.501 L 153 21.501 L 153 73.501 Z M 106.1 66.701 Q 114 66.701 118.4 61.351 A 18.802 18.802 0 0 0 122.219 53.261 A 27.105 27.105 0 0 0 122.8 47.501 Q 122.8 42.301 120.6 37.951 A 19.198 19.198 0 0 0 116.428 32.382 A 18.17 18.17 0 0 0 114.65 30.951 Q 110.9 28.301 106.1 28.301 A 19.249 19.249 0 0 0 100.874 28.972 A 14.037 14.037 0 0 0 93.8 33.501 A 17.878 17.878 0 0 0 90.126 40.874 Q 89.4 43.807 89.4 47.301 Q 89.4 52.501 91.6 56.951 A 19.437 19.437 0 0 0 95.13 61.991 A 17.627 17.627 0 0 0 97.55 64.051 Q 101.3 66.701 106.1 66.701 Z M 144.137 10.789 A 5.973 5.973 0 0 0 148.5 12.601 A 8.175 8.175 0 0 0 149.996 12.47 A 5.647 5.647 0 0 0 153.1 10.851 Q 154.8 9.101 154.8 6.301 A 7.26 7.26 0 0 0 154.8 6.22 A 6.06 6.06 0 0 0 152.95 1.851 A 7.395 7.395 0 0 0 152.892 1.793 A 6.059 6.059 0 0 0 148.5 0.001 A 8.264 8.264 0 0 0 146.844 0.158 A 5.661 5.661 0 0 0 143.9 1.701 A 5.588 5.588 0 0 0 142.429 4.333 A 7.987 7.987 0 0 0 142.2 6.301 A 5.992 5.992 0 0 0 142.692 8.719 A 6.643 6.643 0 0 0 144.05 10.701 A 7.466 7.466 0 0 0 144.137 10.789 Z" vector-effect="non-scaling-stroke"/></g></svg>