<?xml version="1.0" encoding="utf-8"?>
<!-- Generator: Adobe Illustrator 23.0.3, SVG Export Plug-In . SVG Version: 6.00 Build 0)  -->
<svg version="1.1" id="Layer_1" xmlns="http://www.w3.org/2000/svg" xmlns:xlink="http://www.w3.org/1999/xlink" x="0px" y="0px"
	 viewBox="0 0 400 245" style="enable-background:new 0 0 400 245;" xml:space="preserve">
<style type="text/css">
	.st0{fill:#00A6D9;}
	.st1{fill:#FFFFFF;}
</style>
<g>
	<g>
		<g>
			<g>
				
					<ellipse transform="matrix(0.7071 -0.7071 0.7071 0.7071 -61.9095 95.5374)" class="st0" cx="84.4" cy="122.5" rx="84.4" ry="84.4"/>
			</g>
			<path class="st1" d="M133.9,137.7h-13.4c-6.2,0-11.1-4.8-11.1-11.5h25.3c2.1,0,3.8-2,3.8-4.1c0.1-11-8.2-18.9-18.2-18.9
				c-9.2,0-17.1,7-18.2,15.9H88.2v-12.3c0-2-1.7-3.6-3.6-3.6c-2,0-3.6,1.6-3.6,3.6V119l-15.1,0c2-2.3,3.2-5.8,3.2-9.2
				c0-9.1-7.3-16.4-16.4-16.4H38.4c-2,0-3.6,1.6-3.6,3.6v44.5c0,2,1.6,3.6,3.6,3.6c2,0,3.6-1.6,3.6-3.6v-15.3h13.4l12.5,17.3
				c0.7,1,1.8,1.5,2.9,1.5c0.7,0,1.5-0.2,2.1-0.7c1.6-1.2,2-3.4,0.8-5l-9.5-13.2H81c0,0.9,0,8.4,0,8.4c0,6.2,4.5,10.4,10.4,10.4h2.1
				c2,0,3.6-1.6,3.6-3.6c0-2-1.6-3.6-3.6-3.6h-2.1c-1.7,0-3.1-1.5-3.1-3.3v-8.2h13.7c0,10.6,8.4,18.8,18.5,18.8h13.4
				c2,0,3.7-1.6,3.7-3.6C137.5,139.3,135.9,137.7,133.9,137.7z M120.3,110.3c5.3,0,10.1,3.7,10.9,8.7h-21.5
				C110.4,114.3,115,110.3,120.3,110.3z M52.7,119H42.1v-18.5h10.7c5.1,0,9.3,4.1,9.3,9.3C62,114.9,57.8,119,52.7,119z"/>
		</g>
	</g>
	<g>
		<g>
			<path class="st0" d="M201.8,89.5V66.6c0-1.1,0.8-1.9,1.9-1.9c1.1,0,1.9,0.8,1.9,1.9v21.2h12.7c1,0,1.8,0.8,1.8,1.7
				c0,1-0.8,1.8-1.8,1.8h-14.5C202.5,91.4,201.8,90.6,201.8,89.5z"/>
			<path class="st0" d="M238.1,82.9c0,0.6-0.4,1.3-1.4,1.3h-11.9c0.2,2.7,2.1,4.8,5.4,4.8c2.1,0,3.3-0.7,4.6-1.9
				c0.3-0.3,0.8-0.6,1.2-0.6c0.8,0,1.5,0.6,1.5,1.5c0,0.4-0.2,0.8-0.5,1.1c-1.5,1.7-4.2,2.9-7.1,2.9c-5.9,0-9-4.1-9-9.1
				c0-5.2,3.8-9.1,8.9-9.1C234.9,73.7,238.1,77.8,238.1,82.9z M229.9,76.7c-2.7,0-4.6,1.9-5,4.4h9.8
				C234.4,78.7,232.6,76.7,229.9,76.7z"/>
			<path class="st0" d="M258.9,77.3c-3.1,0-5,2.1-5,6.1v6.5c0,1-0.8,1.9-1.9,1.9c-1.2,0-1.9-0.8-1.9-1.9V75.8c0-1.1,0.8-1.9,1.9-1.9
				c1.1,0,1.8,0.8,1.8,1.9v1.7c0.7-2.3,2.5-3.7,5-3.7c1.1,0,1.7,0.8,1.7,1.7C260.7,76.6,259.9,77.3,258.9,77.3z"/>
			<path class="st0" d="M278.3,82.9c0,0.6-0.4,1.3-1.4,1.3h-11.9c0.2,2.7,2.1,4.8,5.4,4.8c2.1,0,3.3-0.7,4.6-1.9
				c0.3-0.3,0.8-0.6,1.2-0.6c0.8,0,1.5,0.6,1.5,1.5c0,0.4-0.2,0.8-0.5,1.1c-1.5,1.7-4.2,2.9-7.1,2.9c-5.9,0-9-4.1-9-9.1
				c0-5.2,3.8-9.1,8.9-9.1C275.1,73.7,278.3,77.8,278.3,82.9z M270.1,76.7c-2.7,0-4.6,1.9-5,4.4h9.8
				C274.6,78.7,272.8,76.7,270.1,76.7z M268.1,68.9l2.2-3.1c0.3-0.4,0.7-0.7,1.3-0.7c0.8,0,1.5,0.6,1.5,1.5c0,0.4-0.2,0.8-0.4,1
				l-2.2,3c-0.3,0.4-0.8,0.7-1.3,0.7c-0.8,0-1.5-0.7-1.5-1.5C267.7,69.5,267.9,69.1,268.1,68.9z"/>
			<path class="st0" d="M288.3,91.9c-2.5,0-4.7-0.8-6.3-2c-0.6-0.4-0.8-1-0.8-1.5c0-0.8,0.6-1.3,1.4-1.3c0.6,0,1,0.2,1.5,0.6
				c1.1,0.8,2.6,1.5,4.5,1.5c2.1,0,3.3-0.8,3.3-2c0-1.3-1.1-1.9-3.9-2.6c-4.9-1.3-6.7-3-6.7-5.8c0-3,2.7-4.9,7-4.9
				c1.6,0,3.5,0.4,4.9,1.1c1.1,0.5,1.8,1.2,1.8,1.9c0,0.7-0.4,1.4-1.4,1.4c-0.5,0-1-0.2-1.6-0.6c-1.1-0.6-2.3-0.9-3.8-0.9
				c-2,0-3.3,0.5-3.3,1.9c0,1.3,1.2,1.8,4,2.6c4.3,1.2,6.5,2.4,6.5,5.6C295.5,89.8,293.1,91.9,288.3,91.9z"/>
			<path class="st0" d="M315,82.9c0,0.6-0.4,1.3-1.4,1.3h-11.9c0.2,2.7,2.1,4.8,5.4,4.8c2.1,0,3.3-0.7,4.6-1.9
				c0.3-0.3,0.8-0.6,1.2-0.6c0.8,0,1.5,0.6,1.5,1.5c0,0.4-0.2,0.8-0.5,1.1c-1.5,1.7-4.2,2.9-7.1,2.9c-5.9,0-9-4.1-9-9.1
				c0-5.2,3.8-9.1,8.9-9.1C311.7,73.7,315,77.8,315,82.9z M306.7,76.7c-2.7,0-4.6,1.9-5,4.4h9.8C311.2,78.7,309.4,76.7,306.7,76.7z"
				/>
			<path class="st0" d="M331.7,91.7c-1.1,0-1.8-0.8-1.8-1.9v-0.4c-1.2,1.5-3.1,2.4-5.6,2.4c-3.8,0-6.6-2.2-6.6-5.4
				c0-3.5,2.9-5.4,6.7-5.4c2.2,0,4.1,0.8,5.4,2v-1.7c0-3.1-1.3-4.6-4.8-4.6c-1.7,0-2.8,0.3-3.9,0.7c-0.4,0.1-0.8,0.3-1.2,0.3
				c-1,0-1.6-0.7-1.6-1.5c0-0.9,0.8-1.4,1.7-1.8c1.4-0.6,3.5-0.9,5.3-0.9c5.2,0,8.2,2.7,8.2,7.5v8.6
				C333.5,90.9,332.9,91.7,331.7,91.7z M325.5,83.7c-2.5,0-4.1,1-4.1,2.8c0,1.8,1.7,2.8,4,2.8c2.3,0,4.3-1.2,4.3-2.8
				C329.8,84.8,327.6,83.7,325.5,83.7z"/>
			<path class="st0" d="M339.7,73.9c1.1,0,1.9,0.8,1.9,1.9v7.9c0,2.8,1.5,4.8,4.5,4.8c3,0,4.7-2.2,4.7-4.9v-7.9c0-1,0.8-1.9,1.9-1.9
				c1.1,0,1.9,0.8,1.9,1.9v14.1c0,1.2-0.8,1.9-1.9,1.9c-1,0-1.9-0.6-1.9-1.9v-1.3c-1.1,2.1-3.1,3.3-5.7,3.3c-4.6,0-7.2-3.4-7.2-8.1
				v-8.1C337.8,74.8,338.5,73.9,339.7,73.9z"/>
			<path class="st0" d="M208.3,113.4c2.7,0,4.8,1.4,6.1,3.4v-10.6c0-1,0.8-1.9,1.9-1.9c1.1,0,1.9,0.8,1.9,1.9v23.3
				c0,1-0.6,1.9-1.8,1.9c-1.2,0-1.8-0.9-1.8-1.9v-1.3c-1.2,2.1-3.6,3.4-6.2,3.4c-4.6,0-8.3-3.8-8.3-9.1
				C200,117,203.8,113.4,208.3,113.4z M209.1,128.5c3.2,0,5.4-2.8,5.4-6c0-3.2-2.1-6-5.4-6c-3.2,0-5.3,2.4-5.3,6
				C203.8,126.1,205.9,128.5,209.1,128.5z"/>
			<path class="st0" d="M239,122.5c0,0.6-0.4,1.3-1.4,1.3h-11.9c0.2,2.7,2.1,4.8,5.4,4.8c2.1,0,3.3-0.7,4.6-1.9
				c0.3-0.3,0.8-0.6,1.2-0.6c0.8,0,1.5,0.6,1.5,1.5c0,0.4-0.2,0.8-0.5,1.1c-1.5,1.7-4.2,2.9-7.1,2.9c-5.9,0-9-4.1-9-9.1
				c0-5.2,3.8-9.1,8.9-9.1C235.7,113.4,239,117.5,239,122.5z M230.7,116.4c-2.7,0-4.6,1.9-5,4.4h9.8
				C235.2,118.4,233.4,116.4,230.7,116.4z"/>
			<path class="st0" d="M254.9,131.4c-1.1,0-1.9-0.8-1.9-1.9V117h-3c-0.9,0-1.5-0.7-1.5-1.5c0-0.9,0.7-1.5,1.5-1.5h3v-5.2
				c0-1,0.8-1.9,1.9-1.9c1.1,0,1.9,0.8,1.9,1.9v5.2h3.4c0.9,0,1.5,0.7,1.5,1.5c0,0.9-0.7,1.5-1.5,1.5h-3.4v12.6
				C256.8,130.6,256.1,131.4,254.9,131.4z"/>
			<path class="st0" d="M272.3,117c-3.1,0-5,2.1-5,6.1v6.5c0,1-0.8,1.9-1.9,1.9c-1.2,0-1.9-0.8-1.9-1.9v-14.1c0-1.1,0.8-1.9,1.9-1.9
				c1.1,0,1.8,0.8,1.8,1.9v1.7c0.7-2.3,2.5-3.7,5-3.7c1.1,0,1.7,0.8,1.7,1.7C274.1,116.2,273.3,117,272.3,117z"/>
			<path class="st0" d="M289.2,131.4c-1.1,0-1.8-0.8-1.8-1.9v-0.4c-1.2,1.5-3.1,2.4-5.6,2.4c-3.8,0-6.6-2.2-6.6-5.4
				c0-3.5,2.9-5.4,6.7-5.4c2.2,0,4.1,0.8,5.4,2v-1.7c0-3.1-1.3-4.6-4.8-4.6c-1.7,0-2.8,0.3-3.9,0.7c-0.4,0.1-0.8,0.3-1.2,0.3
				c-1,0-1.6-0.7-1.6-1.5c0-0.9,0.8-1.4,1.7-1.8c1.4-0.6,3.5-0.9,5.3-0.9c5.2,0,8.2,2.7,8.2,7.5v8.6
				C291,130.6,290.4,131.4,289.2,131.4z M283.1,123.4c-2.5,0-4.1,1-4.1,2.8c0,1.8,1.7,2.8,4,2.8c2.3,0,4.3-1.2,4.3-2.8
				C287.3,124.4,285.2,123.4,283.1,123.4z"/>
			<path class="st0" d="M310.3,131.4c-1.1,0-1.9-0.8-1.9-1.9v-7.9c0-2.8-1.5-4.8-4.5-4.8c-3,0-4.7,2.2-4.7,4.9v7.9
				c0,1-0.8,1.9-1.9,1.9c-1.1,0-1.9-0.8-1.9-1.9v-14.1c0-1.2,0.8-1.9,1.9-1.9c1,0,1.9,0.6,1.9,1.9v1.3c1.1-2.1,3.1-3.3,5.7-3.3
				c4.6,0,7.2,3.4,7.2,8.1v8.1C312.1,130.5,311.5,131.4,310.3,131.4z"/>
			<path class="st0" d="M323.2,131.6c-2.5,0-4.7-0.8-6.3-2c-0.6-0.4-0.8-1-0.8-1.5c0-0.8,0.6-1.3,1.4-1.3c0.6,0,1,0.2,1.5,0.6
				c1.1,0.8,2.6,1.5,4.5,1.5c2.1,0,3.3-0.8,3.3-2c0-1.3-1.1-1.9-3.9-2.6c-4.9-1.3-6.7-3-6.7-5.8c0-3,2.7-4.9,7-4.9
				c1.6,0,3.5,0.4,4.9,1.1c1.1,0.5,1.8,1.2,1.8,1.9c0,0.7-0.4,1.4-1.4,1.4c-0.5,0-1-0.2-1.6-0.6c-1.1-0.6-2.3-0.9-3.8-0.9
				c-2,0-3.3,0.5-3.3,1.9c0,1.3,1.2,1.8,4,2.6c4.3,1.2,6.5,2.4,6.5,5.6C330.4,129.4,327.9,131.6,323.2,131.6z"/>
			<path class="st0" d="M343.7,131.6c-2.7,0-4.8-1.4-6.1-3.4v8.8c0,1-0.8,1.9-1.9,1.9c-1.1,0-1.9-0.8-1.9-1.9v-21.5
				c0-1,0.6-1.9,1.8-1.9s1.8,0.9,1.8,1.9v1.3c1.2-2.1,3.6-3.4,6.2-3.4c4.6,0,8.3,3.8,8.3,9.1C352,128,348.2,131.6,343.7,131.6z
				 M342.9,116.5c-3.2,0-5.4,2.8-5.4,6c0,3.2,2.1,6,5.4,6c3.2,0,5.3-2.4,5.3-6C348.2,118.9,346.1,116.5,342.9,116.5z"/>
			<path class="st0" d="M363.6,131.6c-5.5,0-9.1-4.1-9.1-9.1c0-5,3.6-9.1,9.1-9.1c5.5,0,9.1,4.1,9.1,9.1
				C372.7,127.5,369.1,131.6,363.6,131.6z M363.6,116.6c-3.5,0-5.4,2.7-5.4,5.9c0,3.2,1.9,5.9,5.4,5.9c3.5,0,5.4-2.7,5.4-5.9
				C368.9,119.3,367.1,116.6,363.6,116.6z"/>
			<path class="st0" d="M385.1,117c-3.1,0-5,2.1-5,6.1v6.5c0,1-0.8,1.9-1.9,1.9c-1.2,0-1.9-0.8-1.9-1.9v-14.1c0-1.1,0.8-1.9,1.9-1.9
				c1.1,0,1.8,0.8,1.8,1.9v1.7c0.7-2.3,2.5-3.7,5-3.7c1.1,0,1.7,0.8,1.7,1.7C386.8,116.2,386.1,117,385.1,117z"/>
			<path class="st0" d="M393.2,131.4c-1.1,0-1.9-0.8-1.9-1.9V117h-3c-0.9,0-1.5-0.7-1.5-1.5c0-0.9,0.7-1.5,1.5-1.5h3v-5.2
				c0-1,0.8-1.9,1.9-1.9c1.1,0,1.9,0.8,1.9,1.9v5.2h3.4c0.9,0,1.5,0.7,1.5,1.5c0,0.9-0.7,1.5-1.5,1.5H395v12.6
				C395,130.6,394.3,131.4,393.2,131.4z"/>
			<path class="st0" d="M208.3,153.1c2.7,0,4.8,1.4,6.1,3.4v-10.6c0-1,0.8-1.9,1.9-1.9c1.1,0,1.9,0.8,1.9,1.9v23.3
				c0,1-0.6,1.9-1.8,1.9c-1.2,0-1.8-0.9-1.8-1.9v-1.3c-1.2,2.1-3.6,3.4-6.2,3.4c-4.6,0-8.3-3.8-8.3-9.1
				C200,156.7,203.8,153.1,208.3,153.1z M209.1,168.1c3.2,0,5.4-2.8,5.4-6c0-3.2-2.1-6-5.4-6c-3.2,0-5.3,2.4-5.3,6
				C203.8,165.7,205.9,168.1,209.1,168.1z"/>
			<path class="st0" d="M225.8,154c-0.3,0.6-0.7,1.2-1.6,1.2c-1.1,0-1.6-0.7-1.6-1.3c0-0.4,0.2-0.8,0.4-1.2c0.7-1.5,1-3.3,1-4.9
				v-2.1c0-1,0.6-1.7,1.6-1.7c1,0,1.6,0.8,1.6,1.7v1.6C227.2,149.4,226.9,151.8,225.8,154z"/>
			<path class="st0" d="M245.8,162.2c0,0.6-0.4,1.3-1.4,1.3h-11.9c0.2,2.7,2.1,4.8,5.4,4.8c2.1,0,3.3-0.7,4.6-1.9
				c0.3-0.3,0.8-0.6,1.2-0.6c0.8,0,1.5,0.6,1.5,1.5c0,0.4-0.2,0.8-0.5,1.1c-1.5,1.7-4.2,2.9-7.1,2.9c-5.9,0-9-4.1-9-9.1
				c0-5.2,3.8-9.1,8.9-9.1C242.5,153.1,245.8,157.1,245.8,162.2z M237.5,156c-2.7,0-4.6,1.9-5,4.4h9.8
				C242,158.1,240.2,156,237.5,156z M235.5,148.2l2.2-3.1c0.3-0.4,0.7-0.7,1.3-0.7c0.8,0,1.5,0.6,1.5,1.5c0,0.4-0.2,0.8-0.4,1
				l-2.2,3c-0.3,0.4-0.8,0.7-1.3,0.7c-0.8,0-1.5-0.7-1.5-1.5C235.2,148.9,235.4,148.5,235.5,148.2z"/>
			<path class="st0" d="M251.3,171.1c-1.1,0-1.9-0.8-1.9-1.9v-23.3c0-1,0.8-1.9,1.9-1.9c1.1,0,1.9,0.8,1.9,1.9v23.3
				C253.2,170.2,252.4,171.1,251.3,171.1z"/>
			<path class="st0" d="M274,162.2c0,0.6-0.4,1.3-1.4,1.3h-11.9c0.2,2.7,2.1,4.8,5.4,4.8c2.1,0,3.3-0.7,4.6-1.9
				c0.3-0.3,0.8-0.6,1.2-0.6c0.8,0,1.5,0.6,1.5,1.5c0,0.4-0.2,0.8-0.5,1.1c-1.5,1.7-4.2,2.9-7.1,2.9c-5.9,0-9-4.1-9-9.1
				c0-5.2,3.8-9.1,8.9-9.1C270.7,153.1,274,157.1,274,162.2z M265.7,156c-2.7,0-4.6,1.9-5,4.4h9.8C270.2,158.1,268.4,156,265.7,156z
				"/>
			<path class="st0" d="M292,155.6c0.3,0.4,0.6,0.7,0.6,1.3c0,0.8-0.6,1.5-1.7,1.5c-0.7,0-1.1-0.6-1.6-1c-0.9-0.8-2.1-1.2-3.4-1.2
				c-3.7,0-5.6,2.8-5.6,6c0,3.2,1.9,6,5.6,6c1.3,0,2.5-0.4,3.4-1.2c0.5-0.4,0.9-1,1.6-1c1.1,0,1.7,0.7,1.7,1.5c0,0.6-0.2,1-0.6,1.3
				c-1.2,1.4-3.6,2.5-6.1,2.5c-5.8,0-9.3-4-9.3-9.1c0-5.1,3.5-9.1,9.3-9.1C288.4,153.1,290.8,154.1,292,155.6z"/>
			<path class="st0" d="M300.3,171.1c-1.1,0-1.9-0.8-1.9-1.9v-12.6h-3c-0.9,0-1.5-0.7-1.5-1.5c0-0.9,0.7-1.5,1.5-1.5h3v-5.2
				c0-1,0.8-1.9,1.9-1.9s1.9,0.8,1.9,1.9v5.2h3.4c0.9,0,1.5,0.7,1.5,1.5c0,0.9-0.7,1.5-1.5,1.5h-3.4v12.6
				C302.2,170.2,301.4,171.1,300.3,171.1z"/>
			<path class="st0" d="M317.7,156.6c-3.1,0-5,2.1-5,6.1v6.5c0,1-0.8,1.9-1.9,1.9c-1.2,0-1.9-0.8-1.9-1.9v-14.1
				c0-1.1,0.8-1.9,1.9-1.9c1.1,0,1.8,0.8,1.8,1.9v1.7c0.7-2.3,2.5-3.7,5-3.7c1.1,0,1.7,0.8,1.7,1.7
				C319.4,155.9,318.7,156.6,317.7,156.6z"/>
			<path class="st0" d="M323.6,146.2c1.2,0,2.2,1,2.2,2.2c0,1.2-1,2.2-2.2,2.2c-1.2,0-2.2-1-2.2-2.2
				C321.4,147.2,322.4,146.2,323.6,146.2z M323.6,171.1c-1.1,0-1.9-0.8-1.9-1.9v-14.1c0-1,0.8-1.9,1.9-1.9c1.1,0,1.9,0.8,1.9,1.9
				v14.1C325.4,170.2,324.7,171.1,323.6,171.1z"/>
			<path class="st0" d="M344.6,155.6c0.3,0.4,0.6,0.7,0.6,1.3c0,0.8-0.6,1.5-1.7,1.5c-0.7,0-1.1-0.6-1.6-1c-0.9-0.8-2.1-1.2-3.4-1.2
				c-3.7,0-5.6,2.8-5.6,6c0,3.2,1.9,6,5.6,6c1.3,0,2.5-0.4,3.4-1.2c0.5-0.4,0.9-1,1.6-1c1.1,0,1.7,0.7,1.7,1.5c0,0.6-0.2,1-0.6,1.3
				c-1.2,1.4-3.6,2.5-6.1,2.5c-5.8,0-9.3-4-9.3-9.1c0-5.1,3.5-9.1,9.3-9.1C340.9,153.1,343.4,154.1,344.6,155.6z"/>
			<path class="st0" d="M350.7,146.2c1.2,0,2.2,1,2.2,2.2c0,1.2-1,2.2-2.2,2.2c-1.2,0-2.2-1-2.2-2.2
				C348.6,147.2,349.6,146.2,350.7,146.2z M350.7,171.1c-1.1,0-1.9-0.8-1.9-1.9v-14.1c0-1,0.8-1.9,1.9-1.9c1.1,0,1.9,0.8,1.9,1.9
				v14.1C352.6,170.2,351.9,171.1,350.7,171.1z"/>
			<path class="st0" d="M361.3,171.1c-1.1,0-1.9-0.8-1.9-1.9v-12.6h-3c-0.9,0-1.5-0.7-1.5-1.5c0-0.9,0.7-1.5,1.5-1.5h3v-5.2
				c0-1,0.8-1.9,1.9-1.9c1.1,0,1.9,0.8,1.9,1.9v5.2h3.4c0.9,0,1.5,0.7,1.5,1.5c0,0.9-0.7,1.5-1.5,1.5h-3.4v12.6
				C363.2,170.2,362.4,171.1,361.3,171.1z"/>
			<path class="st0" d="M385.5,162.2c0,0.6-0.4,1.3-1.4,1.3h-11.9c0.2,2.7,2.1,4.8,5.4,4.8c2.1,0,3.3-0.7,4.6-1.9
				c0.3-0.3,0.8-0.6,1.2-0.6c0.8,0,1.5,0.6,1.5,1.5c0,0.4-0.2,0.8-0.5,1.1c-1.5,1.7-4.2,2.9-7.1,2.9c-5.9,0-9-4.1-9-9.1
				c0-5.2,3.8-9.1,8.9-9.1C382.2,153.1,385.5,157.1,385.5,162.2z M377.2,156c-2.7,0-4.6,1.9-5,4.4h9.8
				C381.7,158.1,379.9,156,377.2,156z M375.2,148.2l2.2-3.1c0.3-0.4,0.7-0.7,1.3-0.7c0.8,0,1.5,0.6,1.5,1.5c0,0.4-0.2,0.8-0.4,1
				l-2.2,3c-0.3,0.4-0.8,0.7-1.3,0.7c-0.8,0-1.5-0.7-1.5-1.5C374.8,148.9,375,148.5,375.2,148.2z"/>
		</g>
	</g>
</g>
</svg>
