<?xml version="1.0" encoding="UTF-8" standalone="no"?>
<!-- Created with Inkscape (http://www.inkscape.org/) -->

<svg
   version="1.1"
   id="svg6922"
   width="165.92"
   height="192"
   viewBox="0 0 165.92 192"
   sodipodi:docname="rwlts.svg"
   inkscape:version="1.2.2 (b0a84865, 2022-12-01)"
   xmlns:inkscape="http://www.inkscape.org/namespaces/inkscape"
   xmlns:sodipodi="http://sodipodi.sourceforge.net/DTD/sodipodi-0.dtd"
   xmlns="http://www.w3.org/2000/svg"
   xmlns:svg="http://www.w3.org/2000/svg">
  <defs
     id="defs6926" />
  <sodipodi:namedview
     id="namedview6924"
     pagecolor="#ffffff"
     bordercolor="#666666"
     borderopacity="1.0"
     inkscape:showpageshadow="2"
     inkscape:pageopacity="0.0"
     inkscape:pagecheckerboard="0"
     inkscape:deskcolor="#d1d1d1"
     showgrid="false"
     inkscape:zoom="1.2291667"
     inkscape:cx="82.169492"
     inkscape:cy="96"
     inkscape:window-width="729"
     inkscape:window-height="480"
     inkscape:window-x="367"
     inkscape:window-y="292"
     inkscape:window-maximized="0"
     inkscape:current-layer="g6928" />
  <g
     inkscape:groupmode="layer"
     inkscape:label="Image"
     id="g6928">
    <g
       id="g7049">
      <path
         style="fill:#4bd4f4;stroke-width:0.16"
         d="M 82.08,191.62702 C 80.785667,190.94424 0.50982488,144.54983 0.28,144.35174 0.0144908,144.12289 0,141.62397 0,96.066098 V 48.02179 L 0.44,47.716634 C 0.682,47.548797 19.204,36.833894 41.6,23.905738 74.970968,4.6422501 82.421245,0.40116099 82.880986,0.40643293 c 0.447982,0.005137 8.811641,4.76842577 41.520004,23.64655907 22.52745,13.002069 41.08501,23.78915 41.23901,23.971293 0.2653,0.313782 0.28,2.83831 0.28,48.091869 v 47.760706 l -0.44,0.3972 c -0.34755,0.31375 -76.641304,44.47391 -81.09365,46.93842 -1.208228,0.6688 -1.667776,0.75139 -2.30635,0.41454 z m 39.76,-26.00011 c 20.504,-11.84011 38.05219,-21.96384 38.99598,-22.49719 L 162.55197,142.16 162.51598,96.088686 162.48,50.017373 122.8,27.096926 C 100.976,14.49068 83.012,4.1759874 82.88,4.1753861 82.748,4.174785 64.784,14.487668 42.96,27.092904 L 3.28,50.011515 3.2451086,96.085758 3.2102173,142.16 43.005109,165.13771 82.8,188.11544 l 0.88,-0.48053 c 0.484,-0.2643 17.656,-10.1679 38.16,-22.008 z m -67.403382,-8.34253 c -0.55186,-0.1545 -1.128021,-0.3937 -1.280357,-0.53156 -0.152336,-0.13787 -0.457674,-0.34565 -0.67853,-0.46174 -0.676792,-0.35576 -1.683838,-1.59341 -2.254765,-2.77108 L 49.68,152.4 V 124.32 96.24 l 0.579349,-1.2 C 50.837912,93.841626 52.00405,92.45168 52.681734,92.152704 52.878781,92.065773 53.364,91.797851 53.76,91.557323 L 54.48,91.12 82.64,91.07699 110.8,91.03398 112,91.620569 c 2.06597,1.009898 3.66318,3.042374 3.9043,4.968307 0.1373,1.096699 0.13602,54.381194 -0.001,55.457044 -0.13042,1.0215 -0.90914,2.53593 -1.74525,3.39408 -0.7333,0.75264 -2.07032,1.65425 -2.63771,1.77871 -0.22,0.0483 -0.60875,0.15379 -0.86388,0.23452 -0.27476,0.0869 -11.624647,0.13969 -27.839999,0.12941 -25.586999,-0.0162 -27.441699,-0.0357 -28.379507,-0.29826 z m 45.289974,-29.4058 c 0.389298,-0.66658 0.522898,-2.21955 0.237322,-2.75858 -0.124213,-0.23445 -0.375818,-0.41694 -0.607919,-0.44092 -0.217797,-0.0225 -1.554099,-0.26878 -2.96956,-0.54727 -1.415462,-0.27848 -2.682902,-0.46438 -2.816534,-0.4131 -0.133634,0.0513 -0.405488,0.40503 -0.60412,0.78612 -0.285242,0.54725 -0.342093,0.85379 -0.270482,1.45844 0.04987,0.42105 0.183826,0.85836 0.297685,0.97179 0.227677,0.22681 3.373043,1.05729 4.082146,1.07782 0.244678,0.007 0.76887,0.10641 1.16487,0.22074 0.980504,0.28308 1.135533,0.24605 1.486592,-0.35504 z M 80.16,122.48 c 0,-1.012 -0.02921,-1.84 -0.06492,-1.84 -0.03571,0 -0.287707,0.33634 -0.56,0.74743 -0.322608,0.48705 -0.49487,0.9469 -0.49448,1.32 6.4e-4,0.65827 0.519714,1.61257 0.87705,1.61257 0.202419,0 0.242352,-0.30318 0.242352,-1.84 z m -12.48,-3.12 c 0,-0.968 -0.06156,-1.76 -0.136795,-1.76 -0.26345,0 -0.98033,1.02197 -1.076511,1.53465 -0.164915,0.87908 0.334903,1.98535 0.896994,1.98535 0.295912,0 0.316312,-0.11351 0.316312,-1.76 z m -12.64,-2.88 c 0,-1.30203 -0.02878,-1.44 -0.30041,-1.44 -0.483056,0 -0.703036,0.42384 -0.716875,1.38121 -0.01088,0.75307 0.04618,0.94285 0.359899,1.19689 0.205061,0.16604 0.436861,0.3019 0.515111,0.3019 0.07825,0 0.142275,-0.648 0.142275,-1.44 z m 54.24,-44.724176 c -2.85815,-0.792619 -4.36249,-2.374032 -4.79039,-5.035824 -0.0929,-0.577843 -0.16773,-3.510763 -0.1684,-6.6 l -10e-4,-5.56 h -1.52 -1.52 v -1.12 -1.12 h 1.52 1.52 v -3.36701 -3.367009 l 1.16,0.04701 1.16,0.04701 0.0433,3.32 0.0432,3.32 h 5.52407 5.52406 l -0.0473,1.08 -0.0473,1.08 -5.48,0.0421 -5.48,0.0421 v 5.49606 c 0,3.053111 0.0723,5.879141 0.1627,6.3579 0.23774,1.259355 0.88029,2.202144 1.83543,2.693076 0.74628,0.383578 0.93349,0.407948 3.03857,0.395543 2.48319,-0.01462 3.4565,-0.233922 6.71883,-1.513773 0.87754,-0.34427 1.64639,-0.573534 1.70856,-0.509477 0.2424,0.249786 0.7836,1.852277 0.66328,1.963991 -0.28732,0.266782 -3.98783,1.637092 -5.44353,2.015755 -1.99834,0.519821 -4.81849,0.654544 -6.12384,0.292547 z M 128.42932,69.72 c 0.0418,-1.254 0.0135,-2.94387 -0.0628,-3.755269 l -0.13884,-1.475267 0.66113,-0.09914 c 1.17512,-0.176221 1.39002,-0.07585 1.5991,0.746883 0.77285,3.041176 3.01965,4.466165 7.06075,4.478137 3.46876,0.01027 5.76959,-0.96686 6.52289,-2.770203 0.52489,-1.256553 0.13349,-2.618923 -0.93068,-3.239459 -0.82858,-0.483163 -2.05045,-0.68541 -5.32254,-0.881008 -3.80813,-0.227642 -5.5067,-0.629675 -7.21374,-1.707413 -2.7477,-1.734763 -3.03588,-5.723689 -0.5703,-7.893982 2.61743,-2.303955 7.65878,-2.779856 11.0804,-1.045986 1.43164,0.725466 1.56523,0.752397 1.90785,0.384631 0.16845,-0.180802 0.38827,-0.654428 0.48851,-1.0525 l 0.18225,-0.723768 0.75337,0.106287 c 1.38295,0.195109 1.34923,0.161982 1.20315,1.181944 -0.0714,0.498363 -0.1279,2.032539 -0.12561,3.409278 l 0.004,2.503165 -0.7065,0.09683 c -1.19762,0.164152 -1.25735,0.144141 -1.37053,-0.459192 -0.52176,-2.781246 -2.73042,-4.099401 -6.87134,-4.100904 -3.58658,-0.0013 -5.69996,1.246808 -5.69996,3.366253 0,1.34571 0.74897,2.282752 2.25099,2.816222 0.96448,0.342554 3.33804,0.673533 5.74901,0.801664 3.55879,0.189132 5.17556,0.647485 6.45993,1.831381 0.82724,0.76252 1.18538,1.44197 1.37268,2.60424 0.67063,4.16137 -3.53632,7.393499 -9.26528,7.118355 -1.82061,-0.08744 -4.04707,-0.702489 -5.39582,-1.490576 -0.36755,-0.21483 -0.7756,-0.390603 -0.90665,-0.390603 -0.20081,0 -0.54963,0.716522 -0.83735,1.72 -0.0376,0.131056 -0.38427,0.2 -1.00571,0.2 h -0.94836 z M 48.917006,71.4 c -0.03403,-0.066 -1.205732,-4.026 -2.603779,-8.8 L 43.771326,53.92 H 42.758352 41.745379 L 41.79269,52.84 41.84,51.76 H 45.92 50 l 0.0472,1.075018 0.0472,1.075017 -1.906556,0.04498 L 46.281283,54 l 1.890821,6.555661 c 1.039952,3.605614 1.948662,6.684014 2.019358,6.840889 0.09287,0.206088 0.545749,-0.880342 1.632229,-3.915662 C 52.65072,61.1704 53.648419,58.398 54.040798,57.32 l 0.713418,-1.96 h 0.830211 0.830213 l 2.225181,6.239499 c 1.223849,3.431723 2.270182,6.185723 2.325182,6.12 C 61.066298,67.598453 64.962014,54.26127 64.960709,54.04 64.960318,53.974 64.132,53.92 63.12,53.92 H 61.28 V 52.8 51.68 h 3.84 3.84 v 1.12 1.12 h -0.857637 -0.857638 l -0.433991,1.48 c -0.238694,0.814 -1.386444,4.756 -2.550555,8.76 l -2.116565,7.28 -1.203182,0.04621 -1.203184,0.04622 -2.139178,-5.851731 c -1.268612,-3.470297 -2.187049,-5.766184 -2.256812,-5.641525 -0.0647,0.115613 -0.981212,2.620095 -2.036692,5.565516 -1.05548,2.94542 -1.968497,5.48131 -2.028928,5.63531 -0.08972,0.228634 -0.310467,0.28 -1.203313,0.28 -0.601392,0 -1.121285,-0.054 -1.155319,-0.12 z M 17.79269,70.28 17.84,69.2 20.6,69.15622 23.36,69.11244 v -7.592257 -7.59226 l -2.6,-0.04396 -2.6,-0.04396 -0.04731,-1.08 -0.04731,-1.08 H 21.91269 25.76 v 2.261229 2.26123 L 27,55.017819 c 3.063358,-2.926597 5.576144,-4.088861 8.53424,-3.947433 1.149896,0.05498 1.560264,0.152086 2.406053,0.569363 0.560838,0.276694 1.325897,0.815862 1.700128,1.198152 l 0.680422,0.69507 -1.240422,0.92153 C 37.990328,55.264349 37.82061,55.343376 37.68,55.106581 37.321227,54.502386 36.734696,53.894448 36.287376,53.66313 35.65905,53.33821 33.880133,53.35033 32.86832,53.686424 31.067426,54.284629 29.780578,55.182674 27.4,57.502571 l -1.64,1.598195 V 64.110384 69.12 h 4.32 4.32 v 1.12 1.12 H 26.07269 17.745379 Z M 73.76,70.24 v -1.12 h 3.92 3.92 V 57.44 45.76 l -0.68,0.0033 c -0.374,0.0018 -2.007389,0.108421 -3.629752,0.236915 -1.622363,0.128496 -2.986842,0.196536 -3.032174,0.151203 -0.13282,-0.132817 -0.306168,-1.901577 -0.197348,-2.013614 0.115255,-0.118662 9.764824,-0.738909 9.869357,-0.634374 C 83.968538,43.54187 84,49.321333 84,56.346667 V 69.12 h 3.92 3.92 v 1.12 1.12 H 82.8 73.76 Z"
         id="path7063" />
      <path
         style="fill:#f3da42;stroke-width:0.16"
         d="M 41.44423,168.15891 C 18.874557,155.1244 0.3165572,144.38354 0.20423045,144.29031 -0.09368307,144.04307 -0.09789228,48.116981 0.2,47.880237 0.31,47.792816 17.212,38.018309 37.76,26.15911 58.308,14.299911 76.74,3.6552027 78.72,2.5042024 c 2.782589,-1.61755536 3.727154,-2.09163526 4.16,-2.08791675 0.448331,0.003852 8.707536,4.71066875 41.41852,23.60389835 22.47219,12.979498 41.03018,23.764309 41.24001,23.966245 l 0.38147,0.367158 -0.004,47.703207 c -0.003,44.953096 -0.0195,47.723356 -0.28,48.052696 -0.3931,0.49697 -82.000003,47.57294 -82.635731,47.66945 -0.462003,0.0701 -5.147699,-2.59313 -41.556487,-23.62003 z m 80.27173,-2.42867 c 21.36422,-12.33636 39.29337,-22.68636 39.84255,-23 l 0.99853,-0.57024 -0.003,-46.08 -0.003,-46.08 -1.71576,-0.970232 C 159.89209,48.496139 142.344,38.372174 121.84,26.532069 101.336,14.691962 84.164,4.7884043 83.68,4.5241618 L 82.8,4.0437208 43.00484,27.021861 3.2096798,50 l -0.00438,46.08 -0.00438,46.08 39.7995392,22.99021 c 21.889747,12.64461 39.81572,22.99461 39.835497,23 0.01978,0.005 17.515774,-10.0836 38.880004,-22.41997 z M 55.12,157.41439 c -0.352,-0.0839 -0.784,-0.18199 -0.96,-0.21799 -0.497445,-0.10172 -1.985995,-1.11736 -2.649176,-1.80754 -0.329475,-0.34288 -0.876197,-1.19165 -1.214936,-1.88614 L 49.68,152.24 V 124.32 96.4 l 0.607998,-1.273448 C 51.037475,93.556778 52.027302,92.512562 53.52,91.716957 L 54.64,91.12 h 28.16 28.16 l 0.84,0.388522 c 0.462,0.213686 0.84,0.447686 0.84,0.52 0,0.07231 0.10571,0.131478 0.23491,0.131478 0.41895,0 1.79524,1.498443 2.42813,2.643637 L 115.92,95.92 v 28.32 28.32 l -0.36983,0.72 c -0.20341,0.396 -0.47001,0.9027 -0.59244,1.12601 -0.26932,0.4912 -1.45087,1.75399 -1.64115,1.75399 -0.0749,0 -0.28035,0.13426 -0.45649,0.29836 -0.48767,0.45433 -0.86262,0.61813 -2.03993,0.89117 -0.95896,0.2224 -4.10519,0.24862 -28.070088,0.23393 -16.497819,-0.0101 -27.238869,-0.0758 -27.630072,-0.16907 z m 28.647477,-10.78543 c -0.248223,-0.37884 -0.268075,-1.67853 -0.253343,-16.5856 0.01005,-10.16961 0.07555,-16.44036 0.176432,-16.89051 0.185133,-0.8261 0.919916,-2.46288 1.175644,-2.61883 0.09558,-0.0583 0.347529,-0.25692 0.559878,-0.4414 0.212349,-0.18447 0.680349,-0.41146 1.04,-0.5044 0.359651,-0.093 1.085912,-0.31724 1.613912,-0.49843 0.528,-0.18119 1.392,-0.45789 1.92,-0.6149 0.528,-0.15701 1.488898,-0.47209 2.135326,-0.70018 0.646429,-0.22809 1.264032,-0.41471 1.372452,-0.41471 0.108419,0 0.839027,-0.252 1.623572,-0.56 0.784548,-0.308 1.534944,-0.56051 1.667549,-0.56114 0.132607,-6.4e-4 0.907773,-0.25263 1.722594,-0.56 0.814821,-0.30737 1.714817,-0.56342 1.999997,-0.569 0.46731,-0.009 0.48333,-0.0243 0.16222,-0.15348 -0.19597,-0.0788 -0.951968,-0.22579 -1.680004,-0.32657 -1.216528,-0.16841 -1.394959,-0.15599 -2.203706,0.15339 -0.484,0.18515 -1.006771,0.33668 -1.161714,0.33672 -0.15494,4e-5 -0.94694,0.24045 -1.76,0.53423 -2.43947,0.88145 -3.98023,1.39637 -5.078286,1.69716 -0.572,0.15668 -1.616,0.48284 -2.32,0.72478 -0.704,0.24194 -1.676,0.5708 -2.16,0.7308 -2.133557,0.70532 -2.692027,1.09192 -3.569645,2.47109 L 80.24,112.08 l -0.04982,4.21813 -0.04982,4.21813 -0.550182,0.79982 c -0.380144,0.55263 -0.549998,0.97972 -0.549586,1.38187 6.4e-4,0.66248 0.516872,1.62205 0.872565,1.62205 0.207584,0 0.243531,1.319 0.282352,10.36 l 0.04448,10.36 0.48,0.6741 c 0.442488,0.62142 0.58003,0.69861 1.76,0.98776 1.648678,0.404 1.601701,0.40666 1.287477,-0.0729 z M 67.629298,136.13 c -0.05108,-0.12764 -0.08899,-0.0897 -0.09667,0.0967 -0.0069,0.16866 0.03087,0.26316 0.08404,0.21 0.05317,-0.0532 0.05885,-0.19117 0.01262,-0.30667 z m 31.763336,-2.47888 c -0.03144,-1.87802 0.01472,-2.97919 0.137318,-3.27514 0.168398,-0.40656 1.338388,-1.25598 1.729968,-1.25598 0.0896,0 0.59291,-0.252 1.11843,-0.56 0.52552,-0.308 1.06513,-0.56 1.19913,-0.56 0.51523,0 0.40269,-0.31043 -0.16985,-0.46852 -0.60532,-0.16714 -1.64763,0.0484 -1.64763,0.34066 0,0.0703 -0.11388,0.12786 -0.25308,0.12786 -0.13919,0 -0.66264,0.24004 -1.16323,0.53343 -0.500583,0.29338 -1.088698,0.57826 -1.30692,0.63306 -0.789778,0.19833 -0.964941,0.88315 -0.970634,3.79481 l -0.0052,2.6387 0.492037,0.44 c 0.870673,0.77859 0.891649,0.71891 0.839621,-2.38888 z M 99.868032,127.8 c 0.456738,-0.87603 0.500008,-2.34492 0.08266,-2.80609 -0.15816,-0.17476 -0.582312,-0.35233 -0.957335,-0.40078 -0.370345,-0.0478 -1.526814,-0.27288 -2.569929,-0.50006 C 95.380311,123.86588 94.252735,123.68 93.9177,123.68 c -0.559287,0 -0.635608,0.0557 -0.93234,0.68 -0.354515,0.74592 -0.39238,0.91869 -0.364315,1.66228 0.03215,0.85173 0.43425,1.15471 2.098957,1.58156 0.836,0.21436 1.736,0.39228 2,0.39538 0.264,0.003 0.804,0.10773 1.2,0.2325 1.265795,0.39885 1.547549,0.33641 1.948032,-0.43172 z M 67.68,119.36 c 0,-1.01911 -0.06473,-1.76 -0.153766,-1.76 -0.221236,0 -0.81213,0.6564 -0.981599,1.09042 -0.394587,1.01055 0.08842,2.42958 0.826978,2.42958 0.285825,0 0.308387,-0.12876 0.308387,-1.76 z m -12.513995,-2.90706 c -0.02775,-0.88481 -0.115768,-1.49015 -0.221784,-1.52526 -0.09668,-0.032 -0.344688,0.0786 -0.551131,0.24574 -0.309232,0.2504 -0.376916,0.4597 -0.384221,1.18813 -0.0096,0.9613 0.33595,1.55845 0.901933,1.55845 0.276387,0 0.297416,-0.12089 0.255203,-1.46706 z M 109.68,71.844139 c -2.61849,-0.579307 -4.28874,-1.942901 -4.99375,-4.076901 -0.22548,-0.682512 -0.27617,-1.765204 -0.3281,-7.007238 l -0.0614,-6.2 H 102.78836 101.28 v -1.12 -1.12 h 1.52 1.52 v -3.36701 -3.367009 l 1.16,0.04701 1.16,0.04701 0.0433,3.32 0.0432,3.32 h 5.52407 5.52406 l -0.0473,1.08 -0.0473,1.08 -5.48,0.0421 -5.48,0.0421 v 5.590024 c 0,6.028203 0.0728,6.753315 0.79174,7.886974 0.70928,1.118418 1.57563,1.462229 3.84826,1.527166 2.13588,0.06103 3.65108,-0.259371 6.64,-1.404088 0.968,-0.370731 1.86169,-0.685356 1.98597,-0.699168 0.26458,-0.0294 1.06061,1.797127 0.86318,1.980629 -0.28915,0.26877 -3.98575,1.637813 -5.44531,2.016687 -1.70477,0.442524 -4.58175,0.634385 -5.72384,0.381713 z M 128.42932,69.72 c 0.0418,-1.254 0.0135,-2.94387 -0.0628,-3.755269 l -0.13884,-1.475267 0.66113,-0.09914 c 1.17512,-0.176221 1.39002,-0.07585 1.5991,0.746883 0.77285,3.041176 3.01965,4.466165 7.06075,4.478137 3.46876,0.01027 5.76959,-0.96686 6.52289,-2.770203 0.52509,-1.257022 0.13336,-2.619912 -0.93068,-3.237966 -0.85515,-0.496719 -1.98007,-0.685183 -5.2328,-0.876679 -3.87827,-0.228323 -5.58603,-0.628926 -7.30348,-1.713235 -1.55492,-0.981699 -2.40654,-2.72211 -2.23854,-4.574798 0.29053,-3.203989 3.52246,-5.396904 7.95399,-5.396904 1.79506,0 3.2519,0.325222 4.92582,1.099638 1.64116,0.759255 1.83638,0.70929 2.20676,-0.564806 l 0.2593,-0.891943 0.74406,0.104892 c 1.37229,0.193451 1.33981,0.16134 1.19384,1.180547 -0.0714,0.498363 -0.1279,2.032539 -0.12561,3.409278 l 0.004,2.503165 -0.7065,0.09683 c -1.2401,0.169975 -1.23378,0.17341 -1.44867,-0.786851 -0.23873,-1.066734 -0.94761,-2.050419 -1.97679,-2.743102 -2.14536,-1.443917 -7.29611,-1.396244 -9.34294,0.08648 -1.4992,1.086013 -1.59037,3.319901 -0.17942,4.396084 1.08463,0.827288 3.18468,1.268352 7.00599,1.471436 2.54159,0.135072 4.06263,0.4186 5.1441,0.958882 1.58505,0.791856 2.4331,1.891518 2.69045,3.488696 0.66856,4.149102 -3.54626,7.381158 -9.26722,7.106398 -1.82654,-0.08772 -4.0039,-0.690617 -5.35611,-1.483064 C 131.71759,70.259154 131.29817,70.08 131.15918,70.08 c -0.21694,0 -0.55348,0.679579 -0.85179,1.72 -0.0376,0.131056 -0.38427,0.2 -1.00571,0.2 h -0.94836 z M 48.916034,71.4 c -0.03457,-0.066 -1.204167,-4.026 -2.599106,-8.8 L 43.780674,53.92 H 42.763027 41.745379 L 41.79269,52.84 41.84,51.76 H 45.92 50 l 0.0472,1.075018 0.0472,1.075017 -1.906831,0.04498 -1.90683,0.04498 1.94527,6.752302 c 1.069898,3.713767 1.980826,6.78786 2.024283,6.831319 0.04346,0.04346 0.753663,-1.807079 1.578234,-4.112304 C 52.65309,61.166093 53.648696,58.398 54.040978,57.32 l 0.713238,-1.96 h 0.830211 0.830213 l 2.225181,6.239499 c 1.223849,3.431723 2.271104,6.185723 2.32723,6.12 C 61.070499,67.598362 64.965469,54.260962 64.961925,54.04 64.960866,53.974 64.132,53.92 63.12,53.92 H 61.28 V 52.8 51.68 h 3.84 3.84 v 1.12 1.12 h -0.859266 -0.859267 l -0.502381,1.72 c -0.276308,0.946 -1.423756,4.888 -2.549884,8.76 l -2.047504,7.04 -1.200055,0.04618 -1.200054,0.04618 -2.140026,-5.854053 c -1.286917,-3.520366 -2.187448,-5.769315 -2.258984,-5.641486 -0.06543,0.116912 -0.982533,2.622456 -2.038013,5.567877 -1.05548,2.94542 -1.968497,5.48131 -2.028928,5.63531 -0.08972,0.228634 -0.310467,0.28 -1.203313,0.28 -0.601392,0 -1.121723,-0.054 -1.156291,-0.12 z M 17.79269,70.28 17.84,69.2 20.6,69.15622 23.36,69.11244 v -7.592257 -7.59226 l -2.6,-0.04396 -2.6,-0.04396 -0.04731,-1.08 -0.04731,-1.08 H 21.91269 25.76 v 2.261229 2.26123 L 27,55.017819 c 3.063358,-2.926597 5.576144,-4.088861 8.53424,-3.947433 1.149896,0.05498 1.560264,0.152086 2.406053,0.569363 0.560838,0.276694 1.325897,0.815862 1.700128,1.198152 l 0.680422,0.69507 -1.240422,0.92153 C 37.990328,55.264349 37.82061,55.343376 37.68,55.106581 36.927843,53.839904 36.188067,53.416566 34.734754,53.42116 32.35457,53.42868 30.447741,54.497619 27.32,57.577744 l -1.56,1.536253 V 64.116998 69.12 h 4.32 4.32 v 1.12 1.12 H 26.07269 17.745379 Z M 73.76,70.24 v -1.12 h 3.92 3.92 V 57.44 45.76 l -0.68,0.0033 c -0.374,0.0018 -2.008552,0.108512 -3.632339,0.237118 -3.297424,0.26116 -3.185227,0.290359 -3.229211,-0.840406 -0.01454,-0.374 -0.03365,-0.77 -0.04245,-0.88 -0.01195,-0.149434 1.217822,-0.283 4.864,-0.528282 2.684,-0.180555 4.934,-0.302305 5,-0.270558 0.066,0.03175 0.12,5.813477 0.12,12.848283 V 69.12 h 3.92 3.92 v 1.12 1.12 H 82.8 73.76 Z"
         id="path7061" />
      <path
         style="fill:#0aa8e5;stroke-width:0.16"
         d="M 41.44423,168.15891 C 18.874557,155.1244 0.3165572,144.38354 0.20423045,144.29031 -0.09368307,144.04307 -0.09789228,48.116981 0.2,47.880237 0.31,47.792816 17.212,38.018309 37.76,26.15911 58.308,14.299911 76.74,3.6552027 78.72,2.5042024 c 2.782589,-1.61755536 3.727154,-2.09163526 4.16,-2.08791675 0.448331,0.003852 8.707536,4.71066875 41.41852,23.60389835 22.47219,12.979498 41.03018,23.764309 41.24001,23.966245 l 0.38147,0.367158 -0.004,47.703207 c -0.003,44.953096 -0.0195,47.723356 -0.28,48.052696 -0.3931,0.49697 -82.000003,47.57294 -82.635731,47.66945 -0.462003,0.0701 -5.147699,-2.59313 -41.556487,-23.62003 z m 80.27173,-2.42867 c 21.36422,-12.33636 39.29337,-22.68636 39.84255,-23 l 0.99853,-0.57024 -0.003,-46.08 -0.003,-46.08 -1.71576,-0.970232 C 159.89209,48.496139 142.344,38.372174 121.84,26.532069 101.336,14.691962 84.164,4.7884043 83.68,4.5241618 L 82.8,4.0437208 43.00484,27.021861 3.2096798,50 l -0.00438,46.08 -0.00438,46.08 39.7995392,22.99021 c 21.889747,12.64461 39.81572,22.99461 39.835497,23 0.01978,0.005 17.515774,-10.0836 38.880004,-22.41997 z M 55.12,157.41439 c -0.352,-0.0839 -0.784,-0.18199 -0.96,-0.21799 -0.497445,-0.10172 -1.985995,-1.11736 -2.649176,-1.80754 -0.329475,-0.34288 -0.876197,-1.19165 -1.214936,-1.88614 L 49.68,152.24 V 124.32 96.4 l 0.607998,-1.273448 C 51.037475,93.556778 52.027302,92.512562 53.52,91.716957 L 54.64,91.12 h 28.16 28.16 l 0.84,0.388522 c 0.462,0.213686 0.84,0.447686 0.84,0.52 0,0.07231 0.10571,0.131478 0.23491,0.131478 0.41895,0 1.79524,1.498443 2.42813,2.643637 L 115.92,95.92 v 28.32 28.32 l -0.36983,0.72 c -0.20341,0.396 -0.47001,0.9027 -0.59244,1.12601 -0.26932,0.4912 -1.45087,1.75399 -1.64115,1.75399 -0.0749,0 -0.28035,0.13426 -0.45649,0.29836 -0.48767,0.45433 -0.86262,0.61813 -2.03993,0.89117 -0.95896,0.2224 -4.10519,0.24862 -28.070088,0.23393 -16.497819,-0.0101 -27.238869,-0.0758 -27.630072,-0.16907 z m 28.647477,-10.78543 c -0.248223,-0.37884 -0.268075,-1.67853 -0.253343,-16.5856 0.01005,-10.16961 0.07555,-16.44036 0.176432,-16.89051 0.185133,-0.8261 0.919916,-2.46288 1.175644,-2.61883 0.09558,-0.0583 0.347529,-0.25692 0.559878,-0.4414 0.212349,-0.18447 0.680349,-0.41146 1.04,-0.5044 0.359651,-0.093 1.085912,-0.31724 1.613912,-0.49843 0.528,-0.18119 1.392,-0.45789 1.92,-0.6149 0.528,-0.15701 1.488898,-0.47209 2.135326,-0.70018 0.646429,-0.22809 1.264032,-0.41471 1.372452,-0.41471 0.108419,0 0.839027,-0.252 1.623572,-0.56 0.784548,-0.308 1.534944,-0.56051 1.667549,-0.56114 0.132607,-6.4e-4 0.907773,-0.25263 1.722594,-0.56 0.814821,-0.30737 1.714817,-0.56342 1.999997,-0.569 0.46731,-0.009 0.48333,-0.0243 0.16222,-0.15348 -0.19597,-0.0788 -0.951968,-0.22579 -1.680004,-0.32657 -1.216528,-0.16841 -1.394959,-0.15599 -2.203706,0.15339 -0.484,0.18515 -1.006771,0.33668 -1.161714,0.33672 -0.15494,4e-5 -0.94694,0.24342 -1.76,0.54085 -1.869838,0.68399 -3.156923,1.0602 -3.163009,0.92452 -0.0026,-0.0579 -0.0245,-0.594 -0.04868,-1.1913 -0.04042,-0.99863 -0.08832,-1.13012 -0.595277,-1.63404 -0.472044,-0.46922 -0.723864,-0.57466 -1.751318,-0.7333 -1.519002,-0.23454 -3.067152,-0.097 -4.8,0.42633 -0.748,0.22592 -1.684,0.48327 -2.08,0.5719 -0.790277,0.17687 -3.070034,0.78597 -5.92,1.58168 -1.012,0.28256 -2.172411,0.57081 -2.578691,0.64058 -0.954683,0.16393 -2.705408,0.7057 -3.376043,1.04474 -0.782834,0.39576 -1.22632,0.85914 -1.573565,1.64415 -0.28085,0.6349 -0.311701,1.08671 -0.311701,4.56483 v 3.86018 l -0.494219,0.46646 C 66.601005,118.37944 66.4,118.84687 66.4,119.65481 c 0,0.68989 0.349741,1.26359 0.897203,1.47173 l 0.384911,0.14634 -0.007,10.05499 c -0.0039,5.53024 0.04597,10.19384 0.110704,10.36356 0.305096,0.79984 1.547638,1.50857 2.644817,1.50857 0.258722,0 0.614875,0.0773 0.791453,0.17182 0.327435,0.17524 1.689477,-0.0372 2.217912,-0.34593 0.559726,-0.32701 6.483728,-3.18589 6.601616,-3.18589 0.04996,0 0.115038,1.17 0.14461,2.6 0.05367,2.59516 0.05466,2.60125 0.533766,3.2741 0.442488,0.62142 0.58003,0.69861 1.76,0.98776 1.648678,0.404 1.601701,0.40666 1.287477,-0.0729 z m 15.625157,-12.97784 c -0.03144,-1.87802 0.01472,-2.97919 0.137318,-3.27514 0.168398,-0.40656 1.338388,-1.25598 1.729968,-1.25598 0.0896,0 0.58079,-0.24198 1.09151,-0.53774 0.51071,-0.29576 1.10917,-0.58076 1.3299,-0.63334 0.78026,-0.18587 0.81776,-0.0476 0.76636,2.82549 l -0.0477,2.66602 0.41767,-1.6e-4 c 0.22972,-1.2e-4 0.66172,-0.16444 0.96,-0.36516 0.29828,-0.20072 0.95774,-0.59813 1.46547,-0.88314 1.78931,-1.00447 1.87686,-1.19589 1.87686,-4.1038 v -2.33287 l -0.52,-0.31705 c -0.286,-0.17438 -0.736,-0.31816 -1,-0.31952 -0.60903,-0.003 -3.32317,1.34906 -3.93407,1.95995 -0.25431,0.25432 -0.53561,0.41714 -0.62509,0.36184 -0.19314,-0.11937 -1.28084,0.24717 -1.28084,0.43162 0,0.0703 -0.11388,0.12786 -0.25308,0.12786 -0.13919,0 -0.66264,0.24004 -1.16323,0.53343 -0.500583,0.29338 -1.088698,0.57826 -1.30692,0.63306 -0.789778,0.19833 -0.964941,0.88315 -0.970634,3.79481 l -0.0052,2.6387 0.492037,0.44 c 0.870673,0.77859 0.891649,0.71891 0.839621,-2.38888 z M 99.868032,127.8 c 0.456738,-0.87603 0.500008,-2.34492 0.08266,-2.80609 -0.15816,-0.17476 -0.582312,-0.35233 -0.957335,-0.40078 -0.370345,-0.0478 -1.526814,-0.27288 -2.569929,-0.50006 C 95.380311,123.86588 94.252735,123.68 93.9177,123.68 c -0.559287,0 -0.635608,0.0557 -0.93234,0.68 -0.354515,0.74592 -0.39238,0.91869 -0.364315,1.66228 0.03215,0.85173 0.43425,1.15471 2.098957,1.58156 0.836,0.21436 1.736,0.39228 2,0.39538 0.264,0.003 0.804,0.10773 1.2,0.2325 1.265795,0.39885 1.547549,0.33641 1.948032,-0.43172 z M 55.166005,116.45294 c -0.02775,-0.88481 -0.115768,-1.49015 -0.221784,-1.52526 -0.09668,-0.032 -0.344688,0.0786 -0.551131,0.24574 -0.309232,0.2504 -0.376916,0.4597 -0.384221,1.18813 -0.0096,0.9613 0.33595,1.55845 0.901933,1.55845 0.276387,0 0.297416,-0.12089 0.255203,-1.46706 z M 109.68,71.844139 c -2.61849,-0.579307 -4.28874,-1.942901 -4.99375,-4.076901 -0.22548,-0.682512 -0.27617,-1.765204 -0.3281,-7.007238 l -0.0614,-6.2 H 102.78836 101.28 v -1.12 -1.12 h 1.52 1.52 v -3.36701 -3.367009 l 1.16,0.04701 1.16,0.04701 0.0433,3.32 0.0432,3.32 h 5.52407 5.52406 l -0.0473,1.08 -0.0473,1.08 -5.48,0.0421 -5.48,0.0421 v 5.590024 c 0,6.028203 0.0728,6.753315 0.79174,7.886974 0.70928,1.118418 1.57563,1.462229 3.84826,1.527166 2.13588,0.06103 3.65108,-0.259371 6.64,-1.404088 0.968,-0.370731 1.86169,-0.685356 1.98597,-0.699168 0.26458,-0.0294 1.06061,1.797127 0.86318,1.980629 -0.28915,0.26877 -3.98575,1.637813 -5.44531,2.016687 -1.70477,0.442524 -4.58175,0.634385 -5.72384,0.381713 z M 128.42932,69.72 c 0.0418,-1.254 0.0135,-2.94387 -0.0628,-3.755269 l -0.13884,-1.475267 0.66113,-0.09914 c 1.17512,-0.176221 1.39002,-0.07585 1.5991,0.746883 0.77285,3.041176 3.01965,4.466165 7.06075,4.478137 3.46876,0.01027 5.76959,-0.96686 6.52289,-2.770203 0.52509,-1.257022 0.13336,-2.619912 -0.93068,-3.237966 -0.85515,-0.496719 -1.98007,-0.685183 -5.2328,-0.876679 -3.87827,-0.228323 -5.58603,-0.628926 -7.30348,-1.713235 -1.55492,-0.981699 -2.40654,-2.72211 -2.23854,-4.574798 0.29053,-3.203989 3.52246,-5.396904 7.95399,-5.396904 1.79506,0 3.2519,0.325222 4.92582,1.099638 1.64116,0.759255 1.83638,0.70929 2.20676,-0.564806 l 0.2593,-0.891943 0.74406,0.104892 c 1.37229,0.193451 1.33981,0.16134 1.19384,1.180547 -0.0714,0.498363 -0.1279,2.032539 -0.12561,3.409278 l 0.004,2.503165 -0.7065,0.09683 c -1.2401,0.169975 -1.23378,0.17341 -1.44867,-0.786851 -0.23873,-1.066734 -0.94761,-2.050419 -1.97679,-2.743102 -2.14536,-1.443917 -7.29611,-1.396244 -9.34294,0.08648 -1.4992,1.086013 -1.59037,3.319901 -0.17942,4.396084 1.08463,0.827288 3.18468,1.268352 7.00599,1.471436 2.54159,0.135072 4.06263,0.4186 5.1441,0.958882 1.58505,0.791856 2.4331,1.891518 2.69045,3.488696 0.66856,4.149102 -3.54626,7.381158 -9.26722,7.106398 -1.82654,-0.08772 -4.0039,-0.690617 -5.35611,-1.483064 C 131.71759,70.259154 131.29817,70.08 131.15918,70.08 c -0.21694,0 -0.55348,0.679579 -0.85179,1.72 -0.0376,0.131056 -0.38427,0.2 -1.00571,0.2 h -0.94836 z M 48.916034,71.4 c -0.03457,-0.066 -1.204167,-4.026 -2.599106,-8.8 L 43.780674,53.92 H 42.763027 41.745379 L 41.79269,52.84 41.84,51.76 H 45.92 50 l 0.0472,1.075018 0.0472,1.075017 -1.906831,0.04498 -1.90683,0.04498 1.94527,6.752302 c 1.069898,3.713767 1.980826,6.78786 2.024283,6.831319 0.04346,0.04346 0.753663,-1.807079 1.578234,-4.112304 C 52.65309,61.166093 53.648696,58.398 54.040978,57.32 l 0.713238,-1.96 h 0.830211 0.830213 l 2.225181,6.239499 c 1.223849,3.431723 2.271104,6.185723 2.32723,6.12 C 61.070499,67.598362 64.965469,54.260962 64.961925,54.04 64.960866,53.974 64.132,53.92 63.12,53.92 H 61.28 V 52.8 51.68 h 3.84 3.84 v 1.12 1.12 h -0.859266 -0.859267 l -0.502381,1.72 c -0.276308,0.946 -1.423756,4.888 -2.549884,8.76 l -2.047504,7.04 -1.200055,0.04618 -1.200054,0.04618 -2.140026,-5.854053 c -1.286917,-3.520366 -2.187448,-5.769315 -2.258984,-5.641486 -0.06543,0.116912 -0.982533,2.622456 -2.038013,5.567877 -1.05548,2.94542 -1.968497,5.48131 -2.028928,5.63531 -0.08972,0.228634 -0.310467,0.28 -1.203313,0.28 -0.601392,0 -1.121723,-0.054 -1.156291,-0.12 z M 17.79269,70.28 17.84,69.2 20.6,69.15622 23.36,69.11244 v -7.592257 -7.59226 l -2.6,-0.04396 -2.6,-0.04396 -0.04731,-1.08 -0.04731,-1.08 H 21.91269 25.76 v 2.261229 2.26123 L 27,55.017819 c 3.063358,-2.926597 5.576144,-4.088861 8.53424,-3.947433 1.149896,0.05498 1.560264,0.152086 2.406053,0.569363 0.560838,0.276694 1.325897,0.815862 1.700128,1.198152 l 0.680422,0.69507 -1.240422,0.92153 C 37.990328,55.264349 37.82061,55.343376 37.68,55.106581 36.927843,53.839904 36.188067,53.416566 34.734754,53.42116 32.35457,53.42868 30.447741,54.497619 27.32,57.577744 l -1.56,1.536253 V 64.116998 69.12 h 4.32 4.32 v 1.12 1.12 H 26.07269 17.745379 Z M 73.76,70.24 v -1.12 h 3.92 3.92 V 57.44 45.76 l -0.68,0.0033 c -0.374,0.0018 -2.008552,0.108512 -3.632339,0.237118 -3.297424,0.26116 -3.185227,0.290359 -3.229211,-0.840406 -0.01454,-0.374 -0.03365,-0.77 -0.04245,-0.88 -0.01195,-0.149434 1.217822,-0.283 4.864,-0.528282 2.684,-0.180555 4.934,-0.302305 5,-0.270558 0.066,0.03175 0.12,5.813477 0.12,12.848283 V 69.12 h 3.92 3.92 v 1.12 1.12 H 82.8 73.76 Z"
         id="path7059" />
      <path
         style="fill:#446bb2;stroke-width:0.16"
         d="M 41.44423,168.15891 C 18.874557,155.1244 0.3165572,144.38354 0.20423045,144.29031 -0.09368307,144.04307 -0.09789228,48.116981 0.2,47.880237 0.31,47.792816 17.212,38.018309 37.76,26.15911 58.308,14.299911 76.74,3.6552027 78.72,2.5042024 c 2.782589,-1.61755536 3.727154,-2.09163526 4.16,-2.08791675 0.448331,0.003852 8.707536,4.71066875 41.41852,23.60389835 22.47219,12.979498 41.03018,23.764309 41.24001,23.966245 l 0.38147,0.367158 -0.004,47.703207 c -0.003,44.953096 -0.0195,47.723356 -0.28,48.052696 -0.3931,0.49697 -82.000003,47.57294 -82.635731,47.66945 -0.462003,0.0701 -5.147699,-2.59313 -41.556487,-23.62003 z m 80.27173,-2.42867 c 21.36422,-12.33636 39.29337,-22.68636 39.84255,-23 l 0.99853,-0.57024 -0.003,-46.08 -0.003,-46.08 -1.71576,-0.970232 C 159.89209,48.496139 142.344,38.372174 121.84,26.532069 101.336,14.691962 84.164,4.7884043 83.68,4.5241618 L 82.8,4.0437208 43.00484,27.021861 3.2096798,50 l -0.00438,46.08 -0.00438,46.08 39.7995392,22.99021 c 21.889747,12.64461 39.81572,22.99461 39.835497,23 0.01978,0.005 17.515774,-10.0836 38.880004,-22.41997 z M 55.12,157.41439 c -0.352,-0.0839 -0.784,-0.18199 -0.96,-0.21799 -0.497445,-0.10172 -1.985995,-1.11736 -2.649176,-1.80754 -0.329475,-0.34288 -0.876197,-1.19165 -1.214936,-1.88614 L 49.68,152.24 V 124.32 96.4 l 0.607998,-1.273448 c 0.750343,-1.571589 1.741255,-2.616027 3.232002,-3.406586 1.117858,-0.592812 1.124362,-0.594059 3.4,-0.65196 l 2.28,-0.05801 V 95.824998 100.64 h -4.72 c -4.08889,0 -4.72,0.0321 -4.72,0.24 0,0.20791 0.63111,0.24 4.72,0.24 h 4.72 v 1.52 c 0,1.24444 0.04351,1.52 0.24,1.52 0.196549,0 0.24,-0.27613 0.24,-1.5252 v -1.5252 l 5.805406,0.0162 c 4.024303,0.0113 6.038548,-0.0425 6.565317,-0.17513 0.518983,-0.13068 1.328907,-0.15465 2.554594,-0.0756 0.987075,0.0637 3.198683,0.16282 4.914683,0.22034 l 3.12,0.10458 0.04622,1.21148 c 0.04391,1.15101 0.02665,1.2204 -0.345749,1.39008 -0.215581,0.0982 -0.668379,0.22251 -1.006218,0.27618 -0.595992,0.0947 -1.998833,0.46355 -5.814251,1.52882 -1.012,0.28256 -2.172411,0.57081 -2.578691,0.64058 -0.954683,0.16393 -2.705408,0.7057 -3.376043,1.04474 -0.782834,0.39576 -1.22632,0.85914 -1.573565,1.64415 -0.28085,0.6349 -0.311701,1.08671 -0.311701,4.56483 v 3.86018 l -0.494219,0.46646 C 66.601005,118.37944 66.4,118.84687 66.4,119.65481 c 0,0.68944 0.34968,1.26356 0.896146,1.47133 L 67.68,121.27208 v 7.3249 7.3249 l -0.52,0.23906 -0.52,0.23906 0.509579,0.0494 0.509581,0.0494 0.05042,2.67495 c 0.04899,2.59907 0.06177,2.68713 0.450421,3.10439 0.442362,0.47492 1.543317,0.92194 2.270635,0.92194 0.258722,0 0.614875,0.0773 0.791453,0.17182 0.327435,0.17524 1.689477,-0.0372 2.217912,-0.34593 0.559734,-0.32701 6.483736,-3.18589 6.601624,-3.18589 0.04996,0 0.115038,1.17 0.14461,2.6 0.05297,2.56147 0.0606,2.61008 0.515028,3.28 0.253693,0.374 0.505693,0.68178 0.56,0.68395 0.05431,0.002 0.884736,0.2097 1.845402,0.46118 1.174066,0.30735 1.882165,0.41716 2.16,0.33499 0.663317,-0.19619 1.293336,-0.52052 1.293336,-0.6658 0,-0.0739 0.116354,-0.13432 0.258563,-0.13432 0.142211,0 0.592211,-0.23733 1,-0.5274 0.407791,-0.29007 1.011437,-0.66644 1.341437,-0.83639 0.33,-0.16994 0.6,-0.35975 0.6,-0.42181 0,-0.0621 0.162,-0.16182 0.36,-0.22169 0.198,-0.0599 0.732202,-0.35272 1.187115,-0.65078 0.454912,-0.29806 0.877267,-0.54193 0.938563,-0.54193 0.0613,0 0.454743,-0.252 0.874322,-0.56 0.419579,-0.308 0.830552,-0.56 0.913272,-0.56 0.08272,0 0.504845,-0.252 0.938053,-0.56 0.433208,-0.308 0.841715,-0.56 0.907793,-0.56 0.06608,0 0.470908,-0.252 0.899621,-0.56 0.428712,-0.308 0.848053,-0.56 0.931867,-0.56 0.08382,0 0.435215,-0.214 0.780892,-0.47555 0.345676,-0.26155 0.72154,-0.47755 0.835256,-0.48 0.39104,-0.008 1.665975,-1.21423 2.031785,-1.92163 l 0.24968,-0.48282 h 2.23589 2.23589 v 5.60207 5.60208 l -5.56,-0.0421 -5.559999,-0.0421 -0.04735,-1.0817 c -0.04454,-1.01743 -0.06592,-1.07175 -0.36,-0.91437 -0.256557,0.13731 -0.312651,0.33856 -0.312651,1.1217 V 147.68 h -1.50041 c -1.138504,0 -1.548451,0.0579 -1.69959,0.24 -0.174925,0.21077 0.0078,0.24 1.50041,0.24 H 94.24 v 4.72 4.72 H 88.72 83.2 v -2.48 c 0,-2.09778 -0.03699,-2.48 -0.24,-2.48 -0.203011,0 -0.24,0.38222 -0.24,2.48 v 2.48 h -5.68 -5.68 v -4.4 c 0,-3.80444 -0.03248,-4.4 -0.24,-4.4 -0.207515,0 -0.24,0.59556 -0.24,4.4 v 4.4 h -5.6 -5.6 v -4.72 -4.72 l 4.6,-0.007 c 4.199616,-0.006 4.544294,-0.0271 3.96,-0.2376 -0.491259,-0.17698 -1.558771,-0.23112 -4.59327,-0.23297 l -3.953269,-0.002 -0.04673,-1.22716 c -0.02969,-0.77968 -0.117132,-1.25045 -0.239802,-1.29102 -0.137235,-0.0454 -0.206642,0.29793 -0.24,1.18716 L 59.12,147.6 l -4.68,0.0424 c -4.013131,0.0364 -4.68,0.0763 -4.68,0.28 0,0.20474 0.65245,0.23758 4.72,0.23758 h 4.72 v 4.72 4.72 l -1.72,-0.0165 c -0.946,-0.009 -2.008,-0.0852 -2.36,-0.16907 z m 4.52809,-17.4007 c -0.07089,-0.84567 -0.360252,-0.69744 -0.417992,0.21412 -0.04493,0.70925 -0.02418,0.76646 0.208089,0.57369 0.170552,-0.14154 0.241695,-0.40855 0.209903,-0.78781 z M 55.04,136.24 c 0,-0.20364 -0.4,-0.24 -2.64,-0.24 -2.24,0 -2.64,0.0364 -2.64,0.24 0,0.20364 0.4,0.24 2.64,0.24 2.24,0 2.64,-0.0364 2.64,-0.24 z m 0,-11.84 c 0,-0.20364 -0.4,-0.24 -2.64,-0.24 -2.24,0 -2.64,0.0364 -2.64,0.24 0,0.20364 0.4,0.24 2.64,0.24 2.24,0 2.64,-0.0364 2.64,-0.24 z m 0.126005,-7.94706 c -0.02775,-0.88481 -0.115768,-1.49015 -0.221784,-1.52526 -0.09668,-0.032 -0.344688,0.0786 -0.551131,0.24574 -0.309232,0.2504 -0.376916,0.4597 -0.384221,1.18813 -0.0096,0.9613 0.33595,1.55845 0.901933,1.55845 0.276387,0 0.297416,-0.12089 0.255203,-1.46706 z M 55.04,112.72 c 0,-0.20364 -0.4,-0.24 -2.64,-0.24 -2.24,0 -2.64,0.0364 -2.64,0.24 0,0.20364 0.4,0.24 2.64,0.24 2.24,0 2.64,-0.0364 2.64,-0.24 z m 39.84,40.16 v -4.72 h 5.6 5.6 v 4.72 4.72 h -5.6 -5.6 z m 11.84,0 v -4.72 h 4.66445 4.66446 l -0.0956,2.28 c -0.0988,2.35429 -0.1015,2.36508 -1.02571,4.02615 -0.24929,0.44804 -1.43415,1.69385 -1.61098,1.69385 -0.0749,0 -0.28035,0.13426 -0.45649,0.29836 -0.17614,0.16409 -0.46417,0.37538 -0.64008,0.46952 -0.66758,0.35728 -2.53659,0.67212 -3.98994,0.67212 H 106.72 Z m 0.10667,-5.30667 c -0.0587,-0.0587 -0.10667,-2.57866 -0.10667,-5.6 V 136.48 h 4.64 4.64 v 5.6 5.6 h -4.53333 c -2.49334,0 -4.58134,-0.048 -4.64,-0.10667 z M 101.76454,135.72 c 0.004,-0.26705 1.51626,-1.32 1.8954,-1.32 0.0945,0 0.28354,-0.216 0.42006,-0.48 0.17633,-0.34099 0.36517,-0.48 0.65205,-0.48 0.22211,0 0.61627,-0.10985 0.8759,-0.24411 L 106.08,132.95178 V 134.47589 136 h -2.16 c -1.9522,0 -2.15956,-0.0269 -2.15546,-0.28 z m 4.92544,-1.46192 -0.05,-1.74192 0.68147,-0.36109 c 0.77967,-0.41313 1.35991,-0.91446 1.61925,-1.39904 0.10886,-0.20341 0.17928,-1.25133 0.17928,-2.66786 v -2.33287 l -0.52,-0.32642 c -0.37992,-0.23848 -0.70319,-0.3078 -1.2,-0.2573 -0.58305,0.0593 -0.68,0.0263 -0.68,-0.23123 0,-0.25085 0.12526,-0.30128 0.76,-0.30602 0.418,-0.003 0.94,-0.10857 1.16,-0.23433 0.37474,-0.21422 0.32676,-0.22902 -0.76,-0.23433 l -1.16,-0.006 v -5.6 -5.6 h 4.64 4.64 v 5.6 5.6 h -1.52 c -1.24444,0 -1.52,0.0435 -1.52,0.24 0,0.19649 0.27556,0.24 1.52,0.24 H 116 v 5.68 5.68 h -4.63002 -4.63002 z M 101.92,126.17712 V 124.64 h 2.08 2.08 l -0.009,0.52 c -0.008,0.47398 -0.0936,0.56158 -0.96885,0.98986 -0.52813,0.25842 -1.15426,0.65275 -1.39139,0.8763 -0.23713,0.22354 -0.61115,0.41433 -0.83115,0.42396 -0.22,0.01 -0.526,0.073 -0.68,0.14082 -0.25579,0.11264 -0.28,-0.01 -0.28,-1.41382 z m 0,-7.61712 v -5.6 h 2.08 2.08 v 5.6 5.6 H 104 101.92 Z m -0.0275,-9.4 c -0.0384,-2.12814 -0.12693,-3.43913 -0.24673,-3.65185 -0.21895,-0.38874 -0.94015,-0.62894 -2.653527,-0.88378 -1.11996,-0.16657 -1.328688,-0.1532 -2.156127,0.13814 -0.50387,0.17741 -1.150126,0.36462 -1.436126,0.41602 l -0.52,0.0935 v -2.076 -2.076 h 5.6 5.6 v 5.68 5.68 h -2.06383 -2.06384 z m 4.8275,-2.36 v -5.68 h 4.64 4.64 v 5.68 5.68 h -4.64 -4.64 z m -16.004723,-0.21471 c -0.0026,-0.0579 -0.0245,-0.594 -0.04868,-1.1913 -0.04042,-0.99863 -0.08832,-1.13012 -0.595277,-1.63404 -0.472044,-0.46922 -0.723864,-0.57466 -1.751318,-0.7333 -1.210093,-0.18685 -3.15704,-0.11312 -3.859704,0.14617 C 84.251133,103.25 83.882,103.36106 83.64,103.41962 L 83.2,103.5261 V 102.32305 101.12 h 5.52 5.52 v 2.22049 2.22049 l -0.92,0.31972 c -1.486499,0.51658 -2.59965,0.8177 -2.604723,0.70459 z M 59.68,95.84 v -4.8 h 5.6 5.6 v 4.8 4.8 h -5.6 -5.6 z m 11.68,0 v -4.8 h 5.6 5.6 v 4.8 4.8 h -5.6 -5.6 z m 11.84,0 v -4.8 h 5.52 5.52 v 4.8 4.8 H 88.72 83.2 Z m 11.68,0 v -4.8 h 5.6 5.6 v 4.8 4.8 h -5.6 -5.6 z m 11.84,-0.0124 v -4.812397 l 2.12,0.0524 c 1.84025,0.04548 2.23084,0.103666 2.96,0.440918 0.462,0.213687 0.84,0.447687 0.84,0.52 0,0.07231 0.10571,0.131479 0.23491,0.131479 0.41359,0 1.79204,1.492472 2.39999,2.598494 0.58683,1.067623 0.58912,1.079295 0.68125,3.476363 l 0.0924,2.405143 H 111.38429 106.72 v -4.812394 z m 2.96,-23.983464 c -2.61849,-0.579307 -4.28874,-1.942901 -4.99375,-4.076901 -0.22548,-0.682512 -0.27617,-1.765205 -0.3281,-7.007238 l -0.0614,-6.2 H 102.78836 101.28 v -1.12 -1.12 h 1.52 1.52 v -3.36701 -3.367009 l 1.16,0.04701 1.16,0.04701 0.0433,3.32 0.0432,3.32 h 5.52407 5.52406 l -0.0473,1.08 -0.0473,1.08 -5.48,0.0421 -5.48,0.0421 v 5.590024 c 0,6.028204 0.0728,6.753316 0.79174,7.886975 0.70928,1.118417 1.57563,1.462229 3.84826,1.527166 2.13588,0.06103 3.65108,-0.259371 6.64,-1.404088 0.968,-0.370731 1.86169,-0.685357 1.98597,-0.699168 0.26458,-0.0294 1.06061,1.797127 0.86318,1.980629 -0.28915,0.26877 -3.98575,1.637813 -5.44531,2.016686 -1.70477,0.442525 -4.58175,0.634386 -5.72384,0.381714 z M 128.42932,69.72 c 0.0418,-1.254 0.0135,-2.94387 -0.0628,-3.755269 l -0.13884,-1.475267 0.66113,-0.09914 c 1.17512,-0.176221 1.39002,-0.07585 1.5991,0.746883 0.77285,3.041176 3.01965,4.466165 7.06075,4.478137 3.46876,0.01027 5.76959,-0.96686 6.52289,-2.770203 0.52509,-1.257022 0.13336,-2.619912 -0.93068,-3.237966 -0.85515,-0.496719 -1.98007,-0.685183 -5.2328,-0.876679 -3.87827,-0.228323 -5.58603,-0.628926 -7.30348,-1.713235 -1.55492,-0.981699 -2.40654,-2.72211 -2.23854,-4.574798 0.29053,-3.203989 3.52246,-5.396904 7.95399,-5.396904 1.79506,0 3.2519,0.325222 4.92582,1.099638 1.64116,0.759255 1.83638,0.70929 2.20676,-0.564806 l 0.2593,-0.891943 0.74406,0.104892 c 1.37229,0.193451 1.33981,0.16134 1.19384,1.180547 -0.0714,0.498363 -0.1279,2.032539 -0.12561,3.409278 l 0.004,2.503165 -0.7065,0.09683 c -1.2401,0.169975 -1.23378,0.17341 -1.44867,-0.786851 -0.23873,-1.066734 -0.94761,-2.050419 -1.97679,-2.743102 -2.14536,-1.443917 -7.29611,-1.396244 -9.34294,0.08648 -1.4992,1.086013 -1.59037,3.319901 -0.17942,4.396084 1.08463,0.827288 3.18468,1.268352 7.00599,1.471436 2.54159,0.135072 4.06263,0.4186 5.1441,0.958882 1.58505,0.791856 2.4331,1.891518 2.69045,3.488696 0.66856,4.149102 -3.54626,7.381158 -9.26722,7.106398 -1.82654,-0.08772 -4.0039,-0.690617 -5.35611,-1.483064 C 131.71759,70.259154 131.29817,70.08 131.15918,70.08 c -0.21694,0 -0.55348,0.679579 -0.85179,1.72 -0.0376,0.131056 -0.38427,0.2 -1.00571,0.2 h -0.94836 z M 48.916034,71.4 c -0.03457,-0.066 -1.204167,-4.026 -2.599106,-8.8 L 43.780674,53.92 H 42.763027 41.745379 L 41.79269,52.84 41.84,51.76 H 45.92 50 l 0.0472,1.075018 0.0472,1.075017 -1.906831,0.04498 -1.90683,0.04498 1.94527,6.752302 c 1.069898,3.713767 1.980826,6.78786 2.024283,6.831319 0.04346,0.04346 0.753663,-1.807079 1.578234,-4.112304 C 52.65309,61.166093 53.648696,58.398 54.040978,57.32 l 0.713238,-1.96 h 0.830211 0.830213 l 2.225181,6.239499 c 1.223849,3.431723 2.271104,6.185723 2.32723,6.12 C 61.070499,67.598362 64.965469,54.260962 64.961925,54.04 64.960866,53.974 64.132,53.92 63.12,53.92 H 61.28 V 52.8 51.68 h 3.84 3.84 v 1.12 1.12 h -0.859266 -0.859267 l -0.502381,1.72 c -0.276308,0.946 -1.423756,4.888 -2.549884,8.76 l -2.047504,7.04 -1.200055,0.04618 -1.200054,0.04618 -2.140026,-5.854053 c -1.286917,-3.520366 -2.187448,-5.769315 -2.258984,-5.641486 -0.06543,0.116912 -0.982533,2.622456 -2.038013,5.567877 -1.05548,2.94542 -1.968497,5.48131 -2.028928,5.63531 -0.08972,0.228634 -0.310467,0.28 -1.203313,0.28 -0.601392,0 -1.121723,-0.054 -1.156291,-0.12 z M 17.79269,70.28 17.84,69.2 20.6,69.15622 23.36,69.11244 v -7.592257 -7.59226 l -2.6,-0.04396 -2.6,-0.04396 -0.04731,-1.08 -0.04731,-1.08 H 21.91269 25.76 v 2.261229 2.26123 L 27,55.017819 c 3.063358,-2.926597 5.576144,-4.088861 8.53424,-3.947433 1.149896,0.05498 1.560264,0.152086 2.406053,0.569363 0.560838,0.276694 1.325897,0.815862 1.700128,1.198152 l 0.680422,0.69507 -1.240422,0.92153 C 37.990328,55.264349 37.82061,55.343376 37.68,55.106581 36.927843,53.839904 36.188067,53.416566 34.734754,53.42116 32.35457,53.42868 30.447741,54.497619 27.32,57.577744 l -1.56,1.536253 V 64.116998 69.12 h 4.32 4.32 v 1.12 1.12 H 26.07269 17.745379 Z M 73.76,70.24 v -1.12 h 3.92 3.92 V 57.44 45.76 l -0.68,0.0033 c -0.374,0.0018 -2.008552,0.108512 -3.632339,0.237118 -3.297424,0.26116 -3.185227,0.290359 -3.229211,-0.840406 -0.01454,-0.374 -0.03365,-0.77 -0.04245,-0.88 -0.01195,-0.149434 1.217822,-0.283 4.864,-0.528282 2.684,-0.180555 4.934,-0.302305 5,-0.270558 0.066,0.03175 0.12,5.813477 0.12,12.848283 V 69.12 h 3.92 3.92 v 1.12 1.12 H 82.8 73.76 Z"
         id="path7057" />
      <path
         style="fill:#3c52ae;stroke-width:0.16"
         d="M 79.04,189.7964 C 77.236,188.75221 58.876,178.15379 38.24,166.24435 17.604,154.33491 0.558,144.44533 0.36,144.26752 L 0,143.94422 V 96.060253 48.176285 L 0.52,47.792904 C 0.806,47.582045 19.337717,36.850379 41.701594,23.944762 72.423464,6.2159594 82.487498,0.48 82.871715,0.48 c 0.384275,0 10.504389,5.769668 41.418405,23.613418 22.50044,12.987379 41.05388,23.753377 41.22988,23.92444 0.3184,0.309475 0.32021,0.548374 0.36078,47.998099 l 0.0408,47.687073 -0.4408,0.43354 c -0.24243,0.23845 -18.76478,11.01379 -41.16078,23.94522 -32.57151,18.80674 -40.84807,23.52183 -41.36,23.5624 -0.568307,0.045 -1.007427,-0.16195 -3.92,-1.84779 z m 43.61614,-24.53374 c 21.81512,-12.59354 39.75399,-22.97046 39.86413,-23.05982 0.1597,-0.12956 0.19211,-9.48603 0.16,-46.176946 L 162.64,50.011426 122.8,27.006661 C 99.925387,13.798199 82.860373,4.0389686 82.726045,4.0889555 82.59737,4.136839 64.618971,14.486413 42.774046,27.088008 L 3.0560038,50 l -0.00439,46.08 -0.00439,46.08 39.7963912,22.98638 c 21.888015,12.64252 39.875653,22.99252 39.972528,23 0.09688,0.008 18.024877,-10.29019 39.840007,-22.88372 z M 83.36,150.48 v -2.32 h 3.52 c 1.936,0 3.519445,0.054 3.518768,0.12 -0.0011,0.11173 -0.331587,0.32722 -1.991584,1.29878 -0.355952,0.20833 -0.683184,0.43442 -0.727184,0.50243 -0.044,0.068 -0.518408,0.38021 -1.05424,0.69379 -0.535832,0.31357 -1.066648,0.68148 -1.179592,0.81757 -0.112942,0.13609 -0.291709,0.24743 -0.397258,0.24743 -0.105547,0 -0.474731,0.214 -0.820408,0.47555 -0.345676,0.26155 -0.682502,0.47755 -0.748502,0.48 -0.066,0.002 -0.12,-1.03955 -0.12,-2.31555 z m -1.68,1.68 c -0.352,-0.16295 -0.820494,-0.30161 -1.041101,-0.30813 -0.220605,-0.007 -1.043001,-0.26387 -1.827549,-0.57187 -0.784545,-0.308 -1.560764,-0.56 -1.724931,-0.56 -0.164165,0 -0.950993,-0.252 -1.748507,-0.56 -0.797514,-0.308 -1.5688,-0.55999 -1.713968,-0.55997 -0.14517,2e-5 -0.713944,-0.16134 -1.263944,-0.35857 -0.825712,-0.2961 -1,-0.42159 -1,-0.72003 V 148.16 h 5.6 5.6 v 2.16 c 0,1.188 -0.054,2.15466 -0.12,2.14813 -0.066,-0.007 -0.408,-0.14518 -0.76,-0.30813 z M 70,148.52591 c -0.64919,-0.15615 -0.621674,-0.36591 0.048,-0.36591 0.490667,0 0.672,0.0648 0.672,0.24 0,0.24232 -0.136656,0.26622 -0.72,0.12591 z m -4.32,-1.42998 c -0.616,-0.22666 -1.588,-0.54397 -2.16,-0.70512 -0.572,-0.16115 -1.527643,-0.47701 -2.123653,-0.70191 -0.596008,-0.22489 -1.226008,-0.4089 -1.4,-0.4089 -0.300366,0 -0.316347,-0.11546 -0.316347,-2.28561 v -2.28561 l 0.84,-0.4116 c 0.462,-0.22638 1.344,-0.64473 1.96,-0.92966 2.039829,-0.94353 3.510579,-1.6393 4.268571,-2.01935 l 0.748573,-0.37532 0.05143,2.35358 c 0.04799,2.19613 0.07721,2.38793 0.436786,2.86717 0.403843,0.53824 1.465931,1.0064 2.283145,1.0064 H 70.72 v 2.16 2.16 l -1.96,-0.006 c -1.700346,-0.005 -2.108374,-0.0606 -3.08,-0.4181 z M 71.36,145.52 c 0,-1.87666 0.01925,-2 0.312194,-2 0.559595,0 2.14451,-0.473 2.275326,-0.67905 0.07017,-0.11052 0.129786,-0.12895 0.13248,-0.0409 0.0029,0.0936 0.05367,0.0872 0.12245,-0.0155 0.06465,-0.0965 0.90955,-0.54716 1.87755,-1.0014 0.968,-0.45424 2.243539,-1.07726 2.834531,-1.38449 0.590992,-0.30723 1.112992,-0.55859 1.16,-0.55859 0.04701,0 0.08786,1.17 0.09078,2.6 0.0052,2.56739 0.01082,2.60802 0.443544,3.24 0.328133,0.47921 0.628064,0.70029 1.193845,0.88 0.605277,0.19224 0.755784,0.31162 0.756456,0.6 l 8.4e-4,0.36 h -5.6 -5.6 z m 11.84,1.76 c 0,-0.28793 0.250626,-0.30012 1.161501,-0.0565 0.732264,0.19585 1.243488,0.0325 2.704421,-0.86395 0.322256,-0.19775 0.934256,-0.56794 1.36,-0.82264 0.425742,-0.25471 1.029948,-0.63271 1.342678,-0.84 0.31273,-0.2073 0.619469,-0.37691 0.681642,-0.37691 0.06217,0 0.471563,-0.252 0.909758,-0.56 0.438195,-0.308 0.851686,-0.56 0.91887,-0.56 0.06718,0 0.476597,-0.252 0.909805,-0.56 0.433208,-0.308 0.849195,-0.56 0.924413,-0.56 0.07522,0 0.116546,0.88151 0.09184,1.95891 l -0.04493,1.95892 -0.579917,0.32108 C 92.563405,146.88182 92,147.26534 92,147.3945 c 0,0.069 -1.98,0.1255 -4.4,0.1255 -3.804445,0 -4.4,-0.0325 -4.4,-0.24 z m 11.68,-3.82911 v -1.8291 l 0.464699,-0.3309 c 0.255584,-0.18199 0.579584,-0.33089 0.72,-0.33089 0.140416,0 0.255301,-0.0607 0.255301,-0.1348 0,-0.0742 0.252,-0.27052 0.56,-0.43639 0.308,-0.16587 0.56,-0.36293 0.56,-0.43791 0,-0.17833 0.531864,-0.0551 2.54796,0.59016 l 1.66131,0.53174 -0.50463,0.2981 c -0.27755,0.16395 -0.50464,0.34972 -0.50464,0.41282 0,0.0631 -0.13964,0.15904 -0.3103,0.2132 -0.31969,0.10147 -2.070324,1.2092 -3.035465,1.92073 -0.300169,0.22129 -0.642169,0.40235 -0.76,0.40235 -0.117829,0 -0.214235,0.0587 -0.214235,0.13054 0,0.12524 -1.139179,0.82946 -1.341784,0.82946 -0.05402,0 -0.09822,-0.8231 -0.09822,-1.82911 z m -36.8,1.18122 c -0.396,-0.16209 -0.842237,-0.29862 -0.991637,-0.30341 -0.1494,-0.005 -0.903497,-0.23733 -1.675773,-0.51678 -1.35232,-0.48932 -1.386732,-0.51387 -0.932537,-0.66527 0.259381,-0.0865 0.818646,-0.36183 1.242814,-0.61193 0.424168,-0.25009 0.852067,-0.45472 0.950887,-0.45472 0.09882,0 0.638129,-0.252 1.198467,-0.56 0.560336,-0.308 1.088317,-0.56 1.173286,-0.56 0.09108,0 0.154493,0.82087 0.154493,2 0,2.22021 0.04713,2.14984 -1.12,1.67211 z m 0.540686,-5.37293 c -0.341377,-0.11979 -1.005641,-0.26483 -1.476142,-0.32233 -1.092038,-0.13345 -1.879088,-0.8612 -2.026653,-1.87394 -0.05313,-0.3646 -0.07438,-7.15122 -0.04724,-15.08138 l 0.04935,-14.41847 0.570907,-1.09517 c 0.473088,-0.90752 0.703999,-1.16841 1.347675,-1.52261 0.427223,-0.2351 1.178314,-0.51356 1.669093,-0.61881 0.490779,-0.10525 1.794427,-0.43776 2.896999,-0.73892 1.102569,-0.30115 2.132976,-0.54755 2.289788,-0.54755 0.156815,0 1.160437,-0.252 2.230272,-0.56 1.069836,-0.308 2.127431,-0.56022 2.350212,-0.56049 0.222779,-3.2e-4 1.224339,-0.25227 2.225686,-0.56 1.529939,-0.47018 2.053645,-0.5584 3.28,-0.55254 2.08267,0.01 2.769589,0.1753 3.362806,0.80951 0.47885,0.51193 0.496562,0.58193 0.496562,1.96222 v 1.43135 l -0.96,0.20039 c -0.528,0.11021 -1.536,0.38603 -2.24,0.61293 -0.704,0.2269 -1.429312,0.41346 -1.611803,0.41459 -0.452539,0.003 -2.783683,0.71015 -3.448314,1.04636 -0.797595,0.40348 -1.239176,0.86272 -1.588182,1.65171 -0.28085,0.6349 -0.311701,1.08671 -0.311701,4.56483 v 3.86018 l -0.494219,0.46646 C 66.601005,118.37944 66.4,118.84687 66.4,119.65481 c 0,0.68944 0.34968,1.26356 0.896146,1.47133 L 67.68,121.27208 v 7.27091 7.27091 l -0.52,0.31481 c -0.286,0.17314 -0.7,0.36725 -0.92,0.43134 -0.22,0.0641 -0.904,0.35172 -1.52,0.63915 -0.616,0.28744 -1.732,0.79261 -2.48,1.1226 -0.748,0.33 -1.503475,0.67412 -1.678835,0.76471 -0.640007,0.33062 -1.318307,0.39098 -1.940479,0.17267 z M 109.12,128.2346 v -2.48539 l -0.55785,-0.32914 c -0.72108,-0.42545 -0.58143,-0.70281 0.66631,-1.32336 0.51235,-0.25481 1.13665,-0.56908 1.38733,-0.69837 0.52386,-0.27019 1.37819,-0.18392 1.96113,0.19804 0.37059,0.24281 0.38308,0.31681 0.38308,2.26874 0,2.02618 -0.2102,3.25488 -0.55682,3.25488 -0.1024,0 -0.469,0.214 -0.81468,0.47555 -0.34567,0.26155 -0.7545,0.47755 -0.9085,0.48 -0.154,0.002 -0.28,0.0649 -0.28,0.13877 0,0.15966 -0.71678,0.50568 -1.04753,0.50568 -0.19332,0 -0.23247,-0.4186 -0.23247,-2.4854 z m 0.8,-56.400128 C 107.31004,71.370877 105.45138,69.93417 104.77379,67.856547 104.45117,66.867368 104.42465,66.404674 104.3578,60.6 l -0.0714,-6.2 h -1.5032 -1.5032 v -1.04 -1.04 h 1.52 1.52 v -3.28 -3.28 h 1.12 1.12 v 3.28 3.28 h 5.52 5.52 v 1.037899 1.037899 l -5.48,0.0421 -5.48,0.0421 0.004,5.76 c 0.004,6.315933 0.0895,7.020744 0.97772,8.076376 1.59354,1.893818 5.67298,1.783562 10.87937,-0.294037 1.13304,-0.452137 1.60991,-0.576483 1.68808,-0.440182 0.0599,0.104481 0.25401,0.557949 0.43129,1.007707 l 0.32232,0.817742 -1.55128,0.640085 c -3.94707,1.628623 -7.05781,2.215474 -9.47128,1.786781 z m 26,-0.06402 c -1.37169,-0.272633 -2.56983,-0.688889 -3.86556,-1.342974 -1.12438,-0.567582 -1.22096,-0.527674 -1.56686,0.64745 l -0.20165,0.68507 -0.94297,0.04631 -0.94296,0.04631 -8e-4,-3.672783 -8e-4,-3.67278 0.85423,-0.10673 c 0.46982,-0.0587 0.88872,-0.07224 0.93087,-0.03008 0.0422,0.04215 0.17384,0.445101 0.29264,0.895435 0.80522,3.052434 3.77407,4.746235 7.78319,4.440496 3.74744,-0.285782 5.82304,-1.530334 6.02301,-3.611464 0.15462,-1.609131 -0.54122,-2.514472 -2.28088,-2.967595 -0.52029,-0.135517 -2.20948,-0.319488 -3.75376,-0.408824 -4.57031,-0.264392 -6.77053,-0.877155 -8.30572,-2.313147 -2.05469,-1.921917 -2.0623,-5.126632 -0.0169,-7.111636 2.57008,-2.494185 8.10078,-2.950473 11.61429,-0.958188 0.45071,0.255568 0.93777,0.46467 1.08235,0.46467 0.3251,0 0.83469,-0.811408 0.97316,-1.549552 0.0932,-0.496766 0.14649,-0.543309 0.53427,-0.4666 0.23691,0.04686 0.70628,0.132722 1.04304,0.190794 0.56511,0.09745 0.60416,0.137945 0.50663,0.525472 -0.21378,0.849526 -0.33443,3.50047 -0.223,4.899886 0.0631,0.792 0.10328,1.447923 0.0894,1.457606 -0.0139,0.0097 -0.46741,0.06176 -1.00777,0.115716 l -0.98248,0.09811 -0.10402,-0.693665 c -0.16841,-1.123047 -0.99637,-2.334043 -2.00985,-2.939664 -1.01737,-0.607944 -1.5538,-0.778576 -3.20117,-1.018259 -1.51482,-0.220397 -3.28873,-0.09141 -4.68576,0.340723 -1.89932,0.587501 -3.02665,2.062342 -2.69304,3.5232 0.48623,2.12915 2.24343,2.816736 8.14509,3.187153 1.43346,0.08997 3.05346,0.278855 3.6,0.419741 2.87545,0.741235 4.24853,2.464259 4.07824,5.117627 -0.17448,2.718863 -2.15327,4.715498 -5.53621,5.586152 -1.41984,0.36542 -3.86177,0.447629 -5.22832,0.176016 z M 17.76,70.323691 V 69.287384 L 20.6,69.243691 23.44,69.2 v -7.68 -7.68 l -2.6,-0.04396 -2.6,-0.04396 V 52.716037 51.68 H 22 25.76 v 2.255805 2.255805 l 1.232016,-1.150567 c 2.339696,-2.185017 4.269219,-3.313437 6.463034,-3.779696 2.342014,-0.497755 4.457966,8e-4 5.935072,1.398379 L 40.24,53.463854 39.68,53.937461 c -0.308,0.260485 -0.82889,0.660139 -1.157531,0.888123 l -0.597533,0.414515 -0.717298,-0.797808 C 36.269077,53.398384 35.457984,53.143187 33.91801,53.407264 31.744842,53.779922 29.849213,54.9426 27.4,57.405067 l -1.64,1.648877 V 64.166971 69.28 h 4.32 4.32 v 1.04 1.04 H 26.08 17.76 Z M 48.88168,71.16 c -0.03755,-0.11 -1.118634,-3.8 -2.402402,-8.2 -1.283769,-4.4 -2.408368,-8.234 -2.49911,-8.52 -0.161672,-0.50956 -0.184008,-0.52 -1.112576,-0.52 H 41.92 v -1.04 -1.04 h 4 4 v 1.04 1.04 h -1.858661 c -1.693182,0 -1.851721,0.02493 -1.78071,0.28 0.641521,2.304338 3.872163,13.420029 3.916451,13.475366 0.116112,0.145077 0.300962,-0.332753 2.440592,-6.308864 l 2.155589,-6.020684 0.802033,0.04709 0.802036,0.04709 2.237177,6.270824 c 1.230448,3.448954 2.273599,6.234403 2.318112,6.18989 0.04452,-0.04451 0.987232,-3.190386 2.09493,-6.990824 L 65.061542,54 63.170771,53.955075 61.28,53.91015 V 52.875075 51.84 h 3.84 3.84 v 1.032016 1.032014 L 68.060501,53.952016 67.161002,54 64.651595,62.64 62.14219,71.28 60.937536,71.32625 59.73288,71.3725 57.593251,65.525439 C 56.416456,62.309565 55.404664,59.76875 55.344826,59.879194 55.284989,59.989637 54.462997,62.24 53.518179,64.88 c -0.944817,2.64 -1.858097,5.178 -2.02951,5.64 l -0.311661,0.84 h -1.113525 c -0.747739,0 -1.135955,-0.0657 -1.181803,-0.2 z M 73.76,70.32 v -1.04 h 3.92 3.92 V 57.442453 45.604906 l -0.92,0.08963 c -0.506,0.0493 -2.155254,0.175706 -3.665011,0.280904 l -2.745011,0.191272 -0.09323,-0.563358 C 73.976413,44.392758 74.035747,44.181282 74.6,44.094816 c 0.482746,-0.07397 8.336547,-0.579018 8.959048,-0.576117 0.262726,0.0013 0.281443,0.752309 0.32,12.841301 L 83.92,69.2 l 3.96,0.04279 3.96,0.04279 V 70.322795 71.36 H 82.8 73.76 Z"
         id="path7055" />
      <path
         style="fill:#00b362;stroke-width:0.16"
         d="m 58.620686,139.25918 c -0.341377,-0.11979 -1.005641,-0.26483 -1.476142,-0.32233 -1.092038,-0.13345 -1.879088,-0.8612 -2.026653,-1.87394 -0.05313,-0.3646 -0.07438,-7.15122 -0.04724,-15.08138 l 0.04935,-14.41847 0.570907,-1.09517 c 0.473088,-0.90752 0.703999,-1.16841 1.347675,-1.52261 0.427223,-0.2351 1.178314,-0.51356 1.669093,-0.61881 0.490779,-0.10525 1.794427,-0.43776 2.896999,-0.73892 1.102569,-0.30115 2.132976,-0.54755 2.289788,-0.54755 0.156815,0 1.160437,-0.252 2.230272,-0.56 1.069836,-0.308 2.127431,-0.56022 2.350212,-0.56049 0.222779,-3.2e-4 1.224339,-0.25227 2.225686,-0.56 1.529939,-0.47018 2.053645,-0.5584 3.28,-0.55254 2.08267,0.01 2.769589,0.1753 3.362806,0.80951 0.47885,0.51193 0.496562,0.58193 0.496562,1.96222 v 1.43135 l -0.96,0.20039 c -0.528,0.11021 -1.536,0.38603 -2.24,0.61293 -0.704,0.2269 -1.429312,0.41346 -1.611803,0.41459 -0.452539,0.003 -2.783683,0.71015 -3.448314,1.04636 -0.797595,0.40348 -1.239176,0.86272 -1.588182,1.65171 -0.28085,0.6349 -0.311701,1.08671 -0.311701,4.56483 v 3.86018 l -0.494219,0.46646 C 66.601005,118.37944 66.4,118.84687 66.4,119.65481 c 0,0.68944 0.34968,1.26356 0.896146,1.47133 L 67.68,121.27208 v 7.27091 7.27091 l -0.52,0.31481 c -0.286,0.17314 -0.7,0.36725 -0.92,0.43134 -0.22,0.0641 -0.904,0.35172 -1.52,0.63915 -0.616,0.28744 -1.732,0.79261 -2.48,1.1226 -0.748,0.33 -1.503475,0.67412 -1.678835,0.76471 -0.640007,0.33062 -1.318307,0.39098 -1.940479,0.17267 z M 109.12,128.2346 v -2.48539 l -0.55785,-0.32914 c -0.72108,-0.42545 -0.58143,-0.70281 0.66631,-1.32336 0.51235,-0.25481 1.13665,-0.56908 1.38733,-0.69837 0.52386,-0.27019 1.37819,-0.18392 1.96113,0.19804 0.37059,0.24281 0.38308,0.31681 0.38308,2.26874 0,2.02618 -0.2102,3.25488 -0.55682,3.25488 -0.1024,0 -0.469,0.214 -0.81468,0.47555 -0.34567,0.26155 -0.7545,0.47755 -0.9085,0.48 -0.154,0.002 -0.28,0.0649 -0.28,0.13877 0,0.15966 -0.71678,0.50568 -1.04753,0.50568 -0.19332,0 -0.23247,-0.4186 -0.23247,-2.4854 z m 1.2,-56.336291 c -2.6111,-0.400267 -4.45126,-1.600328 -5.27769,-3.441848 -0.54943,-1.224312 -0.70295,-3.307787 -0.71446,-9.696461 L 104.32,54.4 h -1.52 -1.52 v -1.04 -1.04 h 1.52 1.52 v -3.28 -3.28 h 1.12 1.12 v 3.28 3.28 h 5.52 5.52 v 1.04 1.04 h -5.53357 -5.53356 l 0.0658,5.88 c 0.0759,6.784416 0.13522,7.159667 1.31105,8.291733 0.90349,0.869865 1.79722,1.115651 3.93031,1.080886 1.97335,-0.03216 3.76295,-0.456505 6.51061,-1.543776 1.16408,-0.460637 1.81597,-0.645627 1.86309,-0.528701 0.0399,0.09892 0.2199,0.549904 0.40009,1.002184 l 0.32761,0.822327 -2.0307,0.810709 c -3.20318,1.278792 -6.72563,1.968851 -8.5907,1.682947 z m 26.06537,-0.06612 c -1.24044,-0.161938 -3.25891,-0.833893 -4.35844,-1.450941 -1.00763,-0.565471 -1.16257,-0.498431 -1.55102,0.671069 L 130.21428,71.84 h -0.9612 -0.96121 l 0.11466,-0.678675 c 0.14052,-0.831696 0.13172,-3.947085 -0.0156,-5.521325 -0.10701,-1.143597 -0.10319,-1.160026 0.27025,-1.161762 0.20834,-9.6e-4 0.63831,-0.04469 0.95549,-0.09715 0.5756,-0.09521 0.57704,-0.09397 0.76724,0.66137 0.44263,1.757857 1.66126,3.281644 3.15169,3.940937 3.30088,1.460133 8.71586,0.703495 10.21027,-1.426686 0.63558,-0.905963 0.76266,-2.40409 0.27044,-3.188016 -0.69685,-1.109816 -1.77335,-1.426816 -5.61633,-1.653869 -4.9414,-0.291949 -6.88443,-0.833786 -8.53356,-2.379675 -0.76389,-0.716075 -1.15135,-1.452981 -1.35666,-2.580224 -0.32048,-1.759528 0.19419,-3.25233 1.56259,-4.532306 1.0401,-0.972886 2.48417,-1.630622 4.25995,-1.940293 2.52141,-0.439697 4.56815,-0.176265 6.74464,0.868085 0.74457,0.357274 1.4437,0.649589 1.55361,0.649589 0.33672,0 0.7003,-0.526475 0.91315,-1.322296 0.14836,-0.554728 0.26899,-0.739082 0.44953,-0.687048 0.13571,0.03911 0.59307,0.12004 1.01635,0.179837 0.5137,0.07257 0.7444,0.174373 0.69382,0.306177 -0.23619,0.6155 -0.42708,3.962156 -0.29223,5.12333 0.0818,0.704 0.10369,1.327507 0.0487,1.385571 -0.055,0.05806 -0.4875,0.130064 -0.9612,0.16 L 143.63743,58 143.42286,57.163389 c -0.61904,-2.413685 -2.46379,-3.596018 -5.96913,-3.825738 -4.37246,-0.286544 -7.20144,1.485751 -6.5704,4.116216 0.33403,1.392399 1.77832,2.306359 4.23667,2.681008 0.616,0.09388 2.32194,0.248818 3.79097,0.344311 3.81001,0.247664 5.32071,0.703156 6.60815,1.99243 1.57272,1.574973 1.60342,4.543152 0.0671,6.486765 -1.14731,1.451456 -3.31755,2.522573 -5.81488,2.86992 -1.36969,0.190507 -1.95132,0.191174 -3.38595,0.0039 z M 17.92,70.32 v -1.04 h 2.8 2.8 V 61.52 53.76 H 20.88 18.24 V 52.72 51.68 H 22 25.76 v 2.253358 2.253359 L 27,55.041229 c 2.151474,-1.987488 3.842406,-3.055479 5.726834,-3.617061 1.150564,-0.342883 3.547356,-0.382069 4.473166,-0.07313 0.859674,0.286866 2.246422,1.216237 2.640419,1.769555 l 0.319727,0.449012 -1.140159,0.845235 -1.140158,0.845233 -0.339264,-0.470035 C 36.66349,53.574882 35.756298,53.178467 34.217427,53.337925 32.117301,53.555542 29.950774,54.841933 27.4,57.385822 l -1.64,1.635573 V 64.150698 69.28 h 4.32 4.32 v 1.04 1.04 h -8.24 -8.24 z m 30.661238,-0.28 c -0.218971,-0.726 -1.270627,-4.308 -2.337017,-7.96 -1.066389,-3.652 -2.049375,-6.982 -2.184413,-7.4 L 43.814283,53.92 H 42.867141 41.92 v -1.04 -1.04 h 4 4 v 1.04 1.04 h -1.84 c -1.012,0 -1.84,0.04095 -1.84,0.09099 0,0.225666 3.891514,13.602407 3.988368,13.709669 0.05992,0.06636 1.113054,-2.690017 2.340291,-6.125289 L 54.8,55.349419 l 0.786842,0.04529 0.786841,0.04529 2.241184,6.283974 c 1.232651,3.456188 2.292168,6.228188 2.354483,6.16 C 61.031664,67.815789 61.982493,64.664 63.082302,60.88 L 65.081957,54 63.180979,53.955075 61.28,53.91015 V 52.875075 51.84 h 3.84 3.84 v 1.032016 1.032014 L 68.052824,53.952016 67.145646,54 l -2.513216,8.64 -2.513217,8.64 -1.184015,0.04609 -1.184016,0.04609 -2.14059,-5.853091 c -1.177325,-3.2192 -2.18897,-5.795939 -2.248101,-5.72609 C 55.30336,59.86285 54.549978,61.9 53.688309,64.32 c -0.861671,2.42 -1.780851,4.994 -2.042623,5.72 l -0.47595,1.32 H 50.07455 48.979365 Z M 73.76,70.32 v -1.04 h 3.92 3.92 V 57.432054 45.58411 L 80.68,45.6738 C 79.104237,45.827418 75.484973,46.08 74.85953,46.08 h -0.596504 l -0.110863,-0.887317 c -0.06097,-0.488024 -0.07101,-0.927168 -0.0223,-0.975877 0.07444,-0.07444 8.25001,-0.68012 9.350141,-0.692692 L 83.84,43.52 V 56.4 69.28 h 4 4 v 1.04 1.04 H 82.8 73.76 Z"
         id="path7053" />
      <path
         style="fill:#030303;stroke-width:0.16"
         d="m 110.32,71.898309 c -2.6111,-0.400267 -4.45126,-1.600328 -5.27769,-3.441848 -0.54943,-1.224312 -0.70295,-3.307787 -0.71446,-9.696461 L 104.32,54.4 h -1.52 -1.52 v -1.04 -1.04 h 1.52 1.52 v -3.28 -3.28 h 1.12 1.12 v 3.28 3.28 h 5.52 5.52 v 1.04 1.04 h -5.53357 -5.53356 l 0.0658,5.88 c 0.0759,6.784416 0.13522,7.159667 1.31105,8.291733 0.90349,0.869865 1.79722,1.115651 3.93031,1.080886 1.97335,-0.03216 3.76295,-0.456505 6.51061,-1.543776 1.16408,-0.460637 1.81597,-0.645627 1.86309,-0.528701 0.0399,0.09892 0.2199,0.549904 0.40009,1.002184 l 0.32761,0.822327 -2.0307,0.810709 c -3.20318,1.278792 -6.72563,1.968851 -8.5907,1.682947 z m 26.06537,-0.06612 c -1.24044,-0.161938 -3.25891,-0.833893 -4.35844,-1.450941 -1.00763,-0.565471 -1.16257,-0.498431 -1.55102,0.671069 L 130.21428,71.84 h -0.9612 -0.96121 l 0.11466,-0.678675 c 0.14052,-0.831696 0.13172,-3.947085 -0.0156,-5.521325 -0.10701,-1.143597 -0.10319,-1.160026 0.27025,-1.161762 0.20834,-9.6e-4 0.63831,-0.04469 0.95549,-0.09715 0.5756,-0.09521 0.57704,-0.09397 0.76724,0.66137 0.44263,1.757857 1.66126,3.281644 3.15169,3.940937 3.30088,1.460133 8.71586,0.703495 10.21027,-1.426686 0.63558,-0.905963 0.76266,-2.40409 0.27044,-3.188016 -0.69685,-1.109816 -1.77335,-1.426816 -5.61633,-1.653869 -4.9414,-0.291949 -6.88443,-0.833786 -8.53356,-2.379675 -0.76389,-0.716075 -1.15135,-1.452981 -1.35666,-2.580224 -0.32048,-1.759528 0.19419,-3.25233 1.56259,-4.532306 1.0401,-0.972886 2.48417,-1.630622 4.25995,-1.940293 2.52141,-0.439697 4.56815,-0.176265 6.74464,0.868085 0.74457,0.357274 1.4437,0.649589 1.55361,0.649589 0.33672,0 0.7003,-0.526475 0.91315,-1.322296 0.14836,-0.554728 0.26899,-0.739082 0.44953,-0.687048 0.13571,0.03911 0.59307,0.12004 1.01635,0.179837 0.5137,0.07257 0.7444,0.174373 0.69382,0.306177 -0.23619,0.6155 -0.42708,3.962156 -0.29223,5.12333 0.0818,0.704 0.10369,1.327507 0.0487,1.385571 -0.055,0.05806 -0.4875,0.130064 -0.9612,0.16 L 143.63743,58 143.42286,57.163389 c -0.61904,-2.413685 -2.46379,-3.596018 -5.96913,-3.825738 -4.37246,-0.286544 -7.20144,1.485751 -6.5704,4.116216 0.33403,1.392399 1.77832,2.306359 4.23667,2.681008 0.616,0.09388 2.32194,0.248818 3.79097,0.344311 3.81001,0.247664 5.32071,0.703156 6.60815,1.99243 1.57272,1.574973 1.60342,4.543152 0.0671,6.486765 -1.14731,1.451456 -3.31755,2.522573 -5.81488,2.86992 -1.36969,0.190507 -1.95132,0.191174 -3.38595,0.0039 z M 17.92,70.32 v -1.04 h 2.8 2.8 V 61.52 53.76 H 20.88 18.24 V 52.72 51.68 H 22 25.76 v 2.253358 2.253359 L 27,55.041229 c 2.151474,-1.987488 3.842406,-3.055479 5.726834,-3.617061 1.150564,-0.342883 3.547356,-0.382069 4.473166,-0.07313 0.859674,0.286866 2.246422,1.216237 2.640419,1.769555 l 0.319727,0.449012 -1.140159,0.845235 -1.140158,0.845233 -0.339264,-0.470035 C 36.66349,53.574882 35.756298,53.178467 34.217427,53.337925 32.117301,53.555542 29.950774,54.841933 27.4,57.385822 l -1.64,1.635573 V 64.150698 69.28 h 4.32 4.32 v 1.04 1.04 h -8.24 -8.24 z m 30.661238,-0.28 c -0.218971,-0.726 -1.270627,-4.308 -2.337017,-7.96 -1.066389,-3.652 -2.049375,-6.982 -2.184413,-7.4 L 43.814283,53.92 H 42.867141 41.92 v -1.04 -1.04 h 4 4 v 1.04 1.04 h -1.84 c -1.012,0 -1.84,0.04095 -1.84,0.09099 0,0.225666 3.891514,13.602407 3.988368,13.709669 0.05992,0.06636 1.113054,-2.690017 2.340291,-6.125289 L 54.8,55.349419 l 0.786842,0.04529 0.786841,0.04529 2.241184,6.283974 c 1.232651,3.456188 2.292168,6.228188 2.354483,6.16 C 61.031664,67.815789 61.982493,64.664 63.082302,60.88 L 65.081957,54 63.180979,53.955075 61.28,53.91015 V 52.875075 51.84 h 3.84 3.84 v 1.032016 1.032014 L 68.052824,53.952016 67.145646,54 l -2.513216,8.64 -2.513217,8.64 -1.184015,0.04609 -1.184016,0.04609 -2.14059,-5.853091 c -1.177325,-3.2192 -2.18897,-5.795939 -2.248101,-5.72609 C 55.30336,59.86285 54.549978,61.9 53.688309,64.32 c -0.861671,2.42 -1.780851,4.994 -2.042623,5.72 l -0.47595,1.32 H 50.07455 48.979365 Z M 73.76,70.32 v -1.04 h 3.92 3.92 V 57.432054 45.58411 L 80.68,45.6738 C 79.104237,45.827418 75.484973,46.08 74.85953,46.08 h -0.596504 l -0.110863,-0.887317 c -0.06097,-0.488024 -0.07101,-0.927168 -0.0223,-0.975877 0.07444,-0.07444 8.25001,-0.68012 9.350141,-0.692692 L 83.84,43.52 V 56.4 69.28 h 4 4 v 1.04 1.04 H 82.8 73.76 Z"
         id="path7051" />
    </g>
  </g>
</svg>
