<?xml version="1.0" encoding="utf-8"?>
<!-- Generator: Adobe Illustrator 19.2.1, SVG Export Plug-In . SVG Version: 6.00 Build 0)  -->
<svg version="1.1" id="layer" xmlns="http://www.w3.org/2000/svg" xmlns:xlink="http://www.w3.org/1999/xlink" x="0px" y="0px"
	 viewBox="0 0 652 652" style="enable-background:new 0 0 652 652;" xml:space="preserve">
<style type="text/css">
	.st0{fill:#8FBAE5;}
	.st1{fill:#00549E;}
</style>
<path class="st0" d="M428,341.8h7.2c6.9,0,10.6,3.5,10.6,10.5c0,8.2-4.2,11.4-11.5,11.4H428V341.8z M412.7,406.6H428v-32.1h8.2
	c6.2,0,8.8,3.6,9.1,9.6l0.4,14.6c0.1,3,0.4,5.9,1.9,8h16.6v-0.6c-2.9-1.5-3.3-5.6-3.4-13.6c-0.2-16.1-1.8-21.8-12.2-23.2v-0.2
	c8.6-1.8,12.7-8.6,12.7-18.7c0-13-7.7-19.6-20.2-19.6h-28.3V406.6z"/>
<path class="st0" d="M186.7,330.6v53c0,20.3,11.8,24.5,24.3,24.5c12.5,0,24.3-5.1,24.3-24.5v-53h-15.3v53c0,7.6-1.8,13.2-8.9,13.2
	c-7.1,0-8.9-5.6-8.9-13.2v-53H186.7z"/>
<polygon class="st0" points="239,330.6 239,406.6 253,406.6 253,353.3 253.2,353.3 272,406.6 289.4,406.6 289.4,330.6 275.4,330.6 
	275.4,382.6 275.2,382.6 256.7,330.6 "/>
<rect x="293.4" y="330.6" class="st0" width="15.3" height="76"/>
<polygon class="st0" points="309.8,330.6 327.2,406.6 346.9,406.6 364.4,330.6 348.5,330.6 337.2,386.8 336.9,386.8 326.1,330.6 "/>
<polygon class="st0" points="365.7,330.6 365.7,406.6 409.3,406.6 409.3,394 381.1,394 381.1,373.6 406.6,373.6 406.6,361 
	381.1,361 381.1,343.1 408.2,343.1 408.2,330.6 "/>
<path class="st0" d="M462.5,382.8v3.1c0,14.1,6.8,22.1,24.2,22.1c16.6,0,26.4-7.2,26.4-23.3c0-9.3-3-15.1-14.5-20.1l-11.8-5.1
	c-6.5-2.8-7.9-5.6-7.9-10.3c0-4.5,1.8-8.8,8.7-8.8c5.9,0,8.3,4.2,8.3,11.3h14.7v-2.1c0-14.6-9.9-20.4-23.5-20.4
	c-14.5,0-23.5,7.6-23.5,22.4c0,12.7,6.3,18.3,19.9,23c10.1,3.5,13.6,6.1,13.6,13c0,6.4-4.5,9.4-9.2,9.4c-8.1,0-10.1-4.6-10.1-11.7
	v-2.2H462.5z"/>
<rect x="515.1" y="330.6" class="st0" width="15.3" height="76"/>
<polygon class="st0" points="610,330.6 599.4,359.9 599.2,359.9 589.2,330.6 532.4,330.6 532.4,343.1 549,343.1 549,406.6 
	564.3,406.6 564.3,343.1 577.3,343.1 591.6,376.7 591.6,406.6 606.9,406.6 606.9,376.7 626.6,330.6 "/>
<path class="st1" d="M52,323.6h-1H26.6V315v-67.2v-0.6H51H51h17.2c11.3,0,21,7.3,24.2,17c2.9,9,0.4,18.7-6.2,25.7
	c0.9,2.4,1.7,4.3,2.6,6.4c1.8,4.3,3.5,8.5,5.4,12.7l6,14.5h-0.2H74.5c0,0-0.2-0.6-0.4-0.9c-1-2.3-1.9-4.7-3-6.9l-6.2-14.7
	c-2.5-5.9-4.9-11.6-7.4-17.5c3.1-0.1,5.4,0.5,8.3-0.9c2.1-1,5.2-3.6,5.3-8.4c-0.1-2.4-0.8-4.2-2.3-6.2c-1.6-1.8-3.9-3.1-6.9-3.1
	c0,0-9.9,0-9.9,0V323.6z"/>
<path class="st1" d="M317.3,247.3v76.3h-19.8h-5.6v-31.1h-2.4h-15.2h-0.2v31.1c-4.6,0-9.6-0.1-14.2,0h-11.2V265H231v1.8v5.5v25.1
	v26.2h-0.2h-25.2V292v-1.2V265h-17.9v27.7v31h-26.2c-4.6-11-9.4-22.1-13.8-33.1c-0.5-2.3-1-4.6-1.7-6.9v39.9h-26.2
	c-5.2-12.1-10.2-23.9-15.4-36.2c-1.8-4.2-3.3-7.7-5.1-12.1l-0.3-0.6l-4-9.5l-5.8-13.5c-0.5-1.5-1.3-2.9-1.8-4.5h26.2
	c5.4,13.1,10.8,26,16.4,38.8l0.2,0.3c-0.2-1.5-0.7-3.4-0.9-4.8v-22.8c0.1-3.6,0-7.8,0-11.5h26.2c0.3,0.8,0.5,1.3,0.8,1.9
	c3.1,7.2,6,14.4,9.1,21.6l6.9,15.6c-0.2-1.6-0.5-3.2-0.7-4.8v-34.3h2.1h17.8h64.5h18.3v4.8v22.8h1.2h16.6v-27.6h13.2H317.3z"/>
<path class="st0" d="M408,247.3h-19L373,307.5l-15.9-60.2h-19l-20.2,76.4h16l3.5-16.1h20.3l3.5,16.1h23.5l3.5-16.1h20.3l3.5,16.1h16
	L408,247.3z M340.1,294.9l7.4-34.3h0.2l7.4,34.3H340.1z M391,294.9l7.4-34.3h0.2l7.4,34.3H391z"/>
<path class="st0" d="M474.1,273.3c0-11.1-1.6-27.1-23.5-27.1c-23,0-25.9,16.4-25.9,39.5c0,23.1,2.9,39.5,25.9,39.5
	c20.1,0,24.2-14.2,24.2-30.6h-15.3c0,16.4-4,19.3-9.6,19.3c-6.6,0-9.8-4.2-9.8-27.1c0-21.5,1.8-29.3,9.6-29.3
	c6.9,0,9.2,4.8,9.2,15.9H474.1z"/>
<polygon class="st0" points="477.7,323.6 493.1,323.6 493.1,289.8 511.1,289.8 511.1,323.6 526.5,323.6 526.5,247.3 511.1,247.3 
	511.1,276.5 493.1,276.5 493.1,247.3 477.7,247.3 "/>
<polygon class="st0" points="529.8,247.3 529.8,323.6 573.6,323.6 573.6,311 545.2,311 545.2,290.5 570.9,290.5 570.9,277.9 
	545.2,277.9 545.2,259.9 572.5,259.9 572.5,247.3 "/>
<polygon class="st0" points="575.9,247.3 575.9,323.6 590,323.6 590,270.2 590.2,270.2 609,323.6 626.6,323.6 626.6,247.3 
	612.4,247.3 612.4,299.6 612.2,299.6 593.6,247.3 "/>
</svg>
