<?xml version="1.0" encoding="utf-8"?>
<!-- Generator: Adobe Illustrator 16.0.4, SVG Export Plug-In . SVG Version: 6.00 Build 0)  -->
<!DOCTYPE svg PUBLIC "-//W3C//DTD SVG 1.1//EN" "http://www.w3.org/Graphics/SVG/1.1/DTD/svg11.dtd">
<svg version="1.1" id="Layer_1" xmlns="http://www.w3.org/2000/svg" xmlns:xlink="http://www.w3.org/1999/xlink" x="0px" y="0px"
	 width="267.5px" height="149px" viewBox="-45.93311 -73.11694 267.5 149" enable-background="new -45.93311 -73.11694 267.5 149"
	 xml:space="preserve">
<g>
	<g>
		<defs>
			<rect id="SVGID_1_" x="1.17627" y="0.00024" width="137.13379" height="29.76562"/>
		</defs>
		<clipPath id="SVGID_2_">
			<use xlink:href="#SVGID_1_"  overflow="visible"/>
		</clipPath>
		<g clip-path="url(#SVGID_2_)">
			<path fill="#D6002A" d="M16.79932,23.45142c0,0.91602-0.15088,1.70117-0.45312,2.36035
				c-0.30176,0.65918-0.69092,1.22754-1.16699,1.70312c-0.75,0.75-1.66113,1.28613-2.73193,1.60547
				s-2.20996,0.47949-3.41797,0.47949c-1.04395,0-2.07324-0.15039-3.08887-0.45312
				c-1.01611-0.30176-1.92725-0.81836-2.73193-1.55078c-0.58643-0.53125-1.07129-1.18555-1.45508-1.96289
				c-0.38525-0.77734-0.57715-1.63281-0.57715-2.56641h3.625c0,0.47754,0.09521,0.91992,0.28809,1.33105
				c0.19189,0.41211,0.43408,0.76562,0.72803,1.05762c0.41992,0.42285,0.92773,0.7002,1.52295,0.83887
				c0.59473,0.13672,1.17578,0.20508,1.74414,0.20508c0.67676,0,1.31787-0.07715,1.92188-0.2334
				c0.604-0.15527,1.08887-0.4248,1.45508-0.81055c0.21973-0.23633,0.40186-0.48828,0.54883-0.75488
				c0.14697-0.26562,0.21924-0.63574,0.21924-1.11133c0-0.71289-0.23242-1.24902-0.69922-1.60645
				c-0.4668-0.35547-1.00195-0.58984-1.60693-0.69922c-0.65918-0.12891-1.38184-0.2207-2.16895-0.27441
				s-1.50098-0.13867-2.14111-0.24902c-0.67822-0.11035-1.31396-0.30176-1.9082-0.57617
				c-0.59473-0.27441-1.1167-0.63574-1.56592-1.08496c-0.44775-0.44824-0.80469-0.98828-1.06982-1.62012
				c-0.26611-0.63086-0.39893-1.34863-0.39893-2.1543c0-0.76953,0.15576-1.47363,0.4668-2.11426
				c0.31104-0.6416,0.72314-1.2168,1.23584-1.73047c0.64014-0.64062,1.46436-1.14355,2.47119-1.50977
				s2.08691-0.54883,3.24023-0.54883c1.04297,0,2.04492,0.16016,3.00586,0.47949c0.96094,0.32129,1.77197,0.79199,2.43018,1.41406
				c0.58594,0.5498,1.05664,1.17188,1.41357,1.86719c0.35742,0.69629,0.54395,1.45508,0.56299,2.2793h-3.62402
				c-0.01855-0.34668-0.10596-0.69141-0.26074-1.0293c-0.15625-0.33887-0.35303-0.63574-0.58984-0.89258
				c-0.31201-0.3291-0.75098-0.58496-1.31836-0.76953c-0.56787-0.18164-1.1167-0.27344-1.64795-0.27344
				c-0.54883,0-1.11182,0.07227-1.68799,0.21875c-0.57666,0.14648-1.06689,0.43066-1.46875,0.85156
				c-0.20215,0.21973-0.3623,0.45703-0.48096,0.71484c-0.11914,0.25586-0.17822,0.56641-0.17822,0.93262
				c0,0.64062,0.18311,1.12988,0.54883,1.46875c0.36621,0.33887,0.84229,0.55371,1.42822,0.64551
				c0.62207,0.09277,1.32178,0.1748,2.1001,0.24707c0.77783,0.07324,1.48682,0.15527,2.12793,0.24707
				c0.73193,0.10938,1.42285,0.30762,2.07275,0.59082c0.65039,0.28418,1.21729,0.65918,1.70312,1.125
				c0.48389,0.46777,0.86914,1.0293,1.15332,1.68848C16.65625,21.88599,16.79932,22.6272,16.79932,23.45142"/>
		</g>
	</g>
	<g>
		<defs>
			<rect id="SVGID_3_" x="1.17627" y="0.00024" width="137.13379" height="29.76562"/>
		</defs>
		<clipPath id="SVGID_4_">
			<use xlink:href="#SVGID_3_"  overflow="visible"/>
		</clipPath>
		<g clip-path="url(#SVGID_4_)">
			<path fill="#D6002A" d="M32.12744,29.27173l-1.37207-1.53809c-0.78809,0.69629-1.65332,1.20801-2.59521,1.53809
				c-0.94287,0.3291-1.91797,0.49414-2.9248,0.49414c-0.85986,0-1.68408-0.13672-2.47119-0.41211
				c-0.78711-0.27246-1.47266-0.66309-2.05908-1.16699c-0.58496-0.50293-1.05176-1.12109-1.3999-1.85254
				c-0.34766-0.73242-0.52197-1.55762-0.52197-2.47266c0-1.20801,0.31592-2.24023,0.94824-3.10254
				c0.63086-0.86035,1.46875-1.61035,2.51172-2.25098c-0.31201-0.33008-0.59473-0.6543-0.85107-0.97559
				c-0.25684-0.31934-0.47559-0.64551-0.65869-0.97559c-0.18408-0.3291-0.3252-0.67676-0.42627-1.04297
				c-0.1001-0.36621-0.15088-0.77832-0.15088-1.23535c0-0.76855,0.14209-1.45508,0.42627-2.05957
				c0.28271-0.60352,0.6626-1.12109,1.13867-1.55078c0.47607-0.43066,1.03906-0.75488,1.68896-0.97559
				c0.64893-0.21875,1.34033-0.32812,2.07324-0.32812c0.71387,0,1.39502,0.10449,2.04492,0.31543
				c0.6499,0.20996,1.22217,0.52148,1.7168,0.93262c0.49414,0.41211,0.88721,0.91602,1.18018,1.51074
				s0.43994,1.27637,0.43994,2.0459c0,0.64062-0.0918,1.21191-0.27588,1.71582c-0.18213,0.50293-0.43896,0.96094-0.76807,1.37305
				c-0.3291,0.41113-0.71924,0.79102-1.16699,1.13867c-0.44922,0.34961-0.93799,0.67773-1.46924,0.98828l3.37744,3.67969
				c0.16455-0.31055,0.27881-0.67285,0.34277-1.08496s0.11377-0.8457,0.15088-1.30371
				c0.03711-0.43945,0.05615-0.86914,0.05615-1.29102v-1.09473h5.02393v2.71777h-2.25098
				c-0.03809,0.76855-0.13818,1.52832-0.30176,2.27832c-0.16504,0.75195-0.45801,1.44531-0.87939,2.08789l3.59619,3.89746H32.12744z
				 M24.24707,20.64966c-0.32861,0.20215-0.63086,0.39551-0.90576,0.57715c-0.27393,0.18359-0.51807,0.39551-0.72803,0.63184
				c-0.20996,0.23828-0.375,0.50781-0.49414,0.81055c-0.11865,0.30273-0.17773,0.6543-0.17773,1.05762
				c0,0.49414,0.0957,0.93359,0.28809,1.31836c0.19287,0.38379,0.44873,0.7041,0.76855,0.96094
				c0.32031,0.25586,0.69043,0.44727,1.1123,0.57617c0.4209,0.12793,0.85986,0.19043,1.31787,0.19043
				c0.58496,0,1.1709-0.08203,1.75684-0.24707c0.58643-0.16504,1.08936-0.4834,1.51025-0.96094L24.24707,20.64966z
				 M27.65234,14.30786c0-0.67676-0.20605-1.19922-0.61816-1.56445c-0.41113-0.36621-0.92871-0.5498-1.55078-0.5498
				c-0.56689,0-1.07129,0.16895-1.51025,0.50879c-0.43896,0.33887-0.65869,0.84668-0.65869,1.52344
				c0,0.31152,0.05859,0.60449,0.17773,0.87793c0.11914,0.27539,0.26514,0.53613,0.43994,0.7832
				c0.17334,0.24707,0.37012,0.47949,0.59033,0.7002c0.21875,0.21875,0.42969,0.42969,0.63184,0.63086
				c0.29199-0.16406,0.58887-0.33398,0.89209-0.50781c0.30078-0.17285,0.5708-0.37012,0.80908-0.59082
				c0.23779-0.2207,0.42969-0.47656,0.57666-0.76953C27.5791,15.05884,27.65234,14.71118,27.65234,14.30786"/>
		</g>
	</g>
	<g>
		<defs>
			<rect id="SVGID_5_" x="1.17627" y="0.00024" width="137.13379" height="29.76562"/>
		</defs>
		<clipPath id="SVGID_6_">
			<use xlink:href="#SVGID_5_"  overflow="visible"/>
		</clipPath>
		<g clip-path="url(#SVGID_6_)">
			<path fill="#D6002A" d="M53.38721,16.01001c0,0.93359-0.146,1.78418-0.43896,2.55371s-0.72803,1.42871-1.30518,1.97754
				c-0.57568,0.54883-1.29395,0.97559-2.15479,1.27637c-0.85986,0.30273-1.84912,0.45312-2.96484,0.45312h-4.11816v6.97461h-3.51514
				V9.77759h7.6333c1.11572,0,2.10498,0.15137,2.96484,0.45312c0.86084,0.30273,1.5791,0.72363,2.15479,1.26367
				c0.57715,0.54004,1.01221,1.19336,1.30518,1.96289C53.24121,14.22583,53.38721,15.07739,53.38721,16.01001 M49.81934,16.03833
				c0-0.93457-0.2749-1.69336-0.82422-2.2793c-0.54883-0.58496-1.41895-0.87793-2.60791-0.87793h-3.98096v6.28711h3.98096
				c1.18896,0,2.05908-0.28809,2.60791-0.86523C49.54346,17.72681,49.81934,16.97192,49.81934,16.03833"/>
		</g>
	</g>
	<g>
		<defs>
			<rect id="SVGID_7_" x="1.17627" y="0.00024" width="137.13379" height="29.76562"/>
		</defs>
		<clipPath id="SVGID_8_">
			<use xlink:href="#SVGID_7_"  overflow="visible"/>
		</clipPath>
		<g clip-path="url(#SVGID_8_)">
			<path fill="#D6002A" d="M74.25537,29.24536l-0.41211-2.14355c-0.14648,0.27539-0.36719,0.56348-0.6582,0.86523
				c-0.29492,0.30176-0.6543,0.57324-1.08594,0.81055c-0.42969,0.23828-0.91016,0.43555-1.44043,0.5918
				c-0.53027,0.15332-1.09961,0.23145-1.70264,0.23145c-1.13477,0-2.19287-0.15527-3.1709-0.4668
				c-0.97998-0.31055-1.854-0.87793-2.62207-1.70215c-0.5127-0.53027-0.92969-1.08887-1.24902-1.6748
				c-0.3208-0.58594-0.57666-1.20801-0.76904-1.86719c-0.19287-0.65918-0.32471-1.34961-0.39893-2.07227
				c-0.07275-0.72363-0.10889-1.48633-0.10889-2.29395c0-0.78418,0.03125-1.54004,0.09619-2.26465
				c0.06396-0.72266,0.18799-1.4043,0.36963-2.04492c0.18311-0.64062,0.44043-1.25391,0.76904-1.83984
				c0.33008-0.58496,0.75928-1.14453,1.29102-1.6748c0.75-0.75,1.64209-1.31836,2.67627-1.70215
				c1.03369-0.38574,2.07373-0.57715,3.1167-0.57715c1.2085,0,2.30713,0.20215,3.29541,0.60352
				c0.98828,0.40332,1.8125,0.94336,2.4707,1.62012c0.47754,0.49512,0.87891,1.05762,1.20898,1.68945
				c0.32812,0.63086,0.52148,1.37793,0.57617,2.2373h-3.625c-0.03711-0.38477-0.13672-0.71387-0.30176-0.98828
				s-0.34668-0.53906-0.54883-0.7959c-0.67871-0.78711-1.71191-1.18164-3.10449-1.18164c-0.56689,0-1.14404,0.11523-1.729,0.34473
				c-0.58594,0.22852-1.0708,0.55273-1.45508,0.97363c-0.33008,0.34766-0.59473,0.75098-0.79688,1.20801
				c-0.20117,0.45801-0.35693,0.93848-0.46582,1.44238c-0.11035,0.50391-0.1792,1.01074-0.20605,1.52246
				c-0.02832,0.5127-0.04102,0.98828-0.04102,1.42676c0,0.44043,0.01709,0.9209,0.05371,1.44238
				c0.03711,0.52148,0.11035,1.03906,0.22021,1.55078c0.10986,0.51465,0.26514,1.00195,0.4668,1.46973
				c0.20117,0.46777,0.46631,0.87402,0.7959,1.22266c0.38428,0.4209,0.86523,0.73047,1.44238,0.93262
				c0.57568,0.20215,1.14795,0.30273,1.71484,0.30273c0.64258,0,1.2041-0.10059,1.68945-0.30273
				c0.48438-0.20117,0.89258-0.47461,1.22266-0.82227c0.53027-0.5498,0.87305-1.13086,1.0293-1.74316
				c0.15527-0.61328,0.23242-1.29492,0.23242-2.04492h-4.64062v-2.93848h8.07227v10.65332H74.25537z"/>
		</g>
	</g>
	<g>
		<defs>
			<rect id="SVGID_9_" x="1.17627" y="0.00024" width="137.13379" height="29.76562"/>
		</defs>
		<clipPath id="SVGID_10_">
			<use xlink:href="#SVGID_9_"  overflow="visible"/>
		</clipPath>
		<g clip-path="url(#SVGID_10_)">
			<path fill="#D6002A" d="M85.12451,29.21704c-0.34863,0.07227-0.60059,0.12402-0.75488,0.15039
				c-0.15527,0.02734-0.40723,0.04102-0.75488,0.04102c-1.17188,0-2.11328-0.30273-2.82812-0.90625
				c-0.71387-0.60449-1.07031-1.58301-1.07031-2.93848V9.39282h3.45898V24.9895c0,0.4209,0.08203,0.75488,0.24805,1.00195
				c0.16406,0.24609,0.53906,0.37012,1.125,0.37012c0.14648,0,0.25586-0.00488,0.33008-0.01367
				c0.07227-0.00879,0.1543-0.01465,0.24609-0.01465V29.21704z"/>
		</g>
	</g>
	<g>
		<defs>
			<rect id="SVGID_11_" x="1.17627" y="0.00024" width="137.13379" height="29.76562"/>
		</defs>
		<clipPath id="SVGID_12_">
			<use xlink:href="#SVGID_11_"  overflow="visible"/>
		</clipPath>
		<g clip-path="url(#SVGID_12_)">
			<path fill="#D6002A" d="M99.69385,22.10571c0,1.20801-0.14746,2.2207-0.43848,3.03418
				c-0.29297,0.81445-0.70508,1.56152-1.23633,2.2373c-0.49316,0.60352-1.17578,1.125-2.04492,1.56445
				c-0.87109,0.43848-1.85449,0.65918-2.95215,0.65918c-1.09863,0-2.08203-0.2207-2.9502-0.65918
				c-0.87012-0.43945-1.55273-0.96094-2.0459-1.56445c-0.53125-0.67676-0.94238-1.42285-1.23633-2.2373
				c-0.29199-0.81348-0.43848-1.82617-0.43848-3.03418s0.14648-2.21973,0.43848-3.0332
				c0.29395-0.81445,0.70508-1.56152,1.23633-2.23828c0.49316-0.60449,1.17578-1.125,2.0459-1.56543
				c0.86816-0.43848,1.85156-0.65918,2.9502-0.65918c1.09766,0,2.08105,0.2207,2.95215,0.65918
				c0.86914,0.44043,1.55176,0.96094,2.04492,1.56543c0.53125,0.67773,0.94336,1.42383,1.23633,2.23828
				C99.54639,19.88599,99.69385,20.89771,99.69385,22.10571 M96.20557,22.10571c0-0.67676-0.06348-1.33203-0.19238-1.96289
				c-0.12891-0.63281-0.40137-1.17676-0.82227-1.63477c-0.23828-0.25586-0.54004-0.4707-0.90625-0.64551
				c-0.36523-0.17383-0.78711-0.26074-1.26367-0.26074s-0.89648,0.08691-1.26367,0.26074
				c-0.36719,0.1748-0.66797,0.38965-0.90625,0.64551c-0.41992,0.45801-0.69434,1.00195-0.82227,1.63477
				c-0.12793,0.63086-0.19141,1.28613-0.19141,1.96289c0,0.67773,0.06348,1.33203,0.19141,1.96289
				c0.12793,0.63281,0.40234,1.17773,0.82227,1.63477c0.23828,0.25586,0.54102,0.4707,0.90625,0.64551
				c0.36621,0.17383,0.78711,0.26074,1.26367,0.26074s0.89648-0.08691,1.26367-0.26074
				c0.36621-0.1748,0.66797-0.38965,0.90625-0.64551c0.4209-0.45703,0.69336-1.00195,0.82227-1.63477
				C96.14209,23.43774,96.20557,22.78345,96.20557,22.10571"/>
		</g>
	</g>
	<g>
		<defs>
			<rect id="SVGID_13_" x="1.17627" y="0.00024" width="137.13379" height="29.76562"/>
		</defs>
		<clipPath id="SVGID_14_">
			<use xlink:href="#SVGID_13_"  overflow="visible"/>
		</clipPath>
		<g clip-path="url(#SVGID_14_)">
			<path fill="#D6002A" d="M115.53076,22.13306c0,1.35352-0.21094,2.55762-0.63281,3.61035s-1.06055,1.92676-1.92188,2.62305
				c-0.43848,0.36426-0.94629,0.65723-1.52246,0.87793c-0.57715,0.21973-1.22266,0.3291-1.93652,0.3291
				c-0.78711,0-1.54688-0.15039-2.27832-0.45215c-0.73145-0.30371-1.30957-0.7832-1.72949-1.44238l-0.2207,1.56543h-2.96387V9.42017
				h3.43066v6.58984c0.33008-0.40234,0.82031-0.73633,1.46875-1.00195c0.65039-0.26465,1.40625-0.39844,2.2666-0.39844
				c0.73145,0,1.3877,0.10156,1.96387,0.30273c0.57617,0.2002,1.08398,0.48438,1.52148,0.85059
				C114.6792,17.1731,115.53076,19.29614,115.53076,22.13306 M112.04248,22.07935c0-0.62207-0.06055-1.23633-0.17871-1.8418
				c-0.11914-0.60352-0.36035-1.14258-0.72754-1.61719c-0.25781-0.31348-0.57324-0.57715-0.94727-0.79785
				c-0.37598-0.21973-0.82812-0.32812-1.35938-0.32812c-0.67676,0-1.22656,0.1416-1.64648,0.4248
				c-0.42188,0.28418-0.75195,0.64844-0.9873,1.09863c-0.2373,0.44824-0.39941,0.94336-0.48145,1.48242
				c-0.08203,0.54004-0.12305,1.06543-0.12305,1.5791c0,0.69434,0.08203,1.40332,0.24805,2.12793
				c0.16406,0.72266,0.49414,1.3125,0.9873,1.77051c0.2373,0.2207,0.52051,0.39551,0.85254,0.52246
				c0.32812,0.12793,0.71289,0.19043,1.15137,0.19043c0.53125,0,0.9834-0.1084,1.35938-0.33008
				c0.37402-0.21875,0.69043-0.4834,0.94629-0.7959c0.36719-0.47559,0.6084-1.01953,0.72852-1.63379
				C111.98291,23.31763,112.04248,22.70239,112.04248,22.07935"/>
		</g>
	</g>
	<g>
		<defs>
			<rect id="SVGID_15_" x="1.17627" y="0.00024" width="137.13379" height="29.76562"/>
		</defs>
		<clipPath id="SVGID_16_">
			<use xlink:href="#SVGID_15_"  overflow="visible"/>
		</clipPath>
		<g clip-path="url(#SVGID_16_)">
			<path fill="#D6002A" d="M130.76709,29.08032c-0.29297,0.12891-0.54492,0.22461-0.75391,0.28809
				c-0.21094,0.06348-0.52539,0.09668-0.94629,0.09668c-0.75098,0-1.32715-0.20215-1.72949-0.60449
				c-0.4043-0.40039-0.63184-0.86816-0.68652-1.39844c-0.33008,0.58594-0.87891,1.08887-1.64746,1.50977
				c-0.76953,0.4209-1.66602,0.63086-2.68945,0.63086c-0.86133,0-1.6123-0.12305-2.25391-0.37012
				c-0.64062-0.24707-1.17578-0.57617-1.60547-0.98828c-0.42871-0.41211-0.75488-0.8877-0.97363-1.42773
				c-0.21973-0.54004-0.3291-1.10254-0.3291-1.6875c0-0.67773,0.12305-1.28125,0.37012-1.81348
				c0.24512-0.53027,0.59082-0.98828,1.02832-1.37305c0.43945-0.38379,0.95312-0.68164,1.53906-0.8916
				c0.58398-0.21094,1.21484-0.34473,1.89453-0.39941l4.19922-0.30176v-0.87988c0-0.67676-0.15918-1.22266-0.47949-1.63379
				c-0.31934-0.41211-0.96484-0.61816-1.93652-0.61816c-0.80469,0-1.43164,0.1748-1.88086,0.52148
				c-0.44727,0.34863-0.68945,0.85156-0.72754,1.51074h-3.32129c0.05469-0.80664,0.24121-1.50195,0.5625-2.08691
				c0.31836-0.58594,0.74609-1.06641,1.27539-1.44141c0.53027-0.375,1.14453-0.6543,1.83984-0.83691s1.44531-0.27539,2.25-0.27539
				c1.22852,0,2.32227,0.21582,3.2832,0.64551c0.95898,0.43066,1.65137,1.18555,2.07129,2.26465
				c0.18262,0.45801,0.29785,0.93457,0.34473,1.42871c0.04492,0.49316,0.06836,0.97949,0.06836,1.4541v5.30078
				c0,0.3291,0.05859,0.5625,0.17773,0.69922c0.11914,0.1377,0.3252,0.20605,0.61816,0.20605
				c0.14551,0,0.24707-0.00879,0.30176-0.02734c0.05664,0,0.10156-0.00879,0.13672-0.02637V29.08032L130.76709,29.08032z
				 M126.18311,22.90161l-3.625,0.27441c-0.5293,0.03711-1.00586,0.21094-1.42773,0.52148
				c-0.42188,0.3125-0.63184,0.76074-0.63184,1.34668c0,0.54883,0.20605,0.98242,0.61816,1.30371s0.88281,0.47949,1.41406,0.47949
				c1.08008,0,1.95898-0.27832,2.63672-0.83691c0.67578-0.55859,1.01562-1.36816,1.01562-2.43066V22.90161L126.18311,22.90161z"/>
		</g>
	</g>
	<g>
		<defs>
			<rect id="SVGID_17_" x="1.17627" y="0.00024" width="137.13379" height="29.76562"/>
		</defs>
		<clipPath id="SVGID_18_">
			<use xlink:href="#SVGID_17_"  overflow="visible"/>
		</clipPath>
		<g clip-path="url(#SVGID_18_)">
			<path fill="#D6002A" d="M138.31006,29.21704c-0.34766,0.07227-0.59961,0.12402-0.75391,0.15039
				c-0.15625,0.02734-0.4082,0.04102-0.75586,0.04102c-1.17188,0-2.11328-0.30273-2.82812-0.90625
				c-0.71289-0.60449-1.07031-1.58301-1.07031-2.93848V9.39282h3.45898V24.9895c0,0.4209,0.08301,0.75488,0.24805,1.00195
				c0.16504,0.24609,0.53906,0.37012,1.125,0.37012c0.14648,0,0.25586-0.00488,0.33008-0.01367
				c0.07227-0.00879,0.1543-0.01465,0.24609-0.01465V29.21704L138.31006,29.21704z"/>
		</g>
	</g>
	<g>
		<defs>
			<rect id="SVGID_19_" x="1.17627" y="0.00024" width="137.13379" height="29.76562"/>
		</defs>
		<clipPath id="SVGID_20_">
			<use xlink:href="#SVGID_19_"  overflow="visible"/>
		</clipPath>
		<g clip-path="url(#SVGID_20_)">
			<rect x="1.17627" y="0.00024" width="137.13379" height="3.16016"/>
		</g>
	</g>
</g>
<g>
	<path d="M26.10303,56.64478c-0.50586,0.42188-1.22754,0.63281-2.16602,0.63281h-1.79834v3.10547H20.3457v-8.63672h3.7085
		c0.85498,0,1.53662,0.22266,2.04443,0.66797c0.50879,0.44531,0.7627,1.13477,0.7627,2.06836
		C26.86133,55.5022,26.6084,56.2229,26.10303,56.64478z M24.72559,53.53345c-0.22852-0.19141-0.54883-0.28711-0.96045-0.28711
		h-1.62646v2.54297h1.62646c0.41162,0,0.73193-0.10352,0.96045-0.31055s0.34277-0.53516,0.34277-0.98438
		S24.9541,53.72485,24.72559,53.53345z"/>
	<path d="M31.72168,53.84692c0.02148,0.00195,0.06934,0.00488,0.14355,0.00879v1.71094
		c-0.10547-0.01172-0.19922-0.01953-0.28125-0.02344s-0.14844-0.00586-0.19922-0.00586c-0.67188,0-1.12305,0.21875-1.35352,0.65625
		c-0.12891,0.24609-0.19336,0.625-0.19336,1.13672v3.05273h-1.68164v-6.38672H29.75v1.11328
		c0.25781-0.42578,0.48242-0.7168,0.67383-0.87305c0.3125-0.26172,0.71875-0.39258,1.21875-0.39258
		C31.67383,53.84399,31.7002,53.84497,31.72168,53.84692z"/>
	<path d="M34.56055,53.23462h-1.69336V51.6936h1.69336V53.23462z M32.86719,53.99634h1.69336v6.38672h-1.69336V53.99634z"/>
	<path d="M39.99805,56.28735c-0.03125-0.23828-0.11133-0.45312-0.24121-0.64453c-0.1875-0.25781-0.47949-0.38672-0.87451-0.38672
		c-0.56396,0-0.94971,0.2793-1.15723,0.83789c-0.10986,0.2959-0.16455,0.68945-0.16455,1.18066
		c0,0.46777,0.05469,0.84375,0.16455,1.12793c0.19971,0.53125,0.57568,0.79688,1.12744,0.79688
		c0.3916,0,0.66992-0.10547,0.83398-0.31641c0.16504-0.21094,0.26465-0.48438,0.2998-0.82031h1.70508
		c-0.03906,0.50781-0.22266,0.98828-0.55176,1.44141c-0.52344,0.73047-1.2998,1.0957-2.32812,1.0957
		s-1.78516-0.30469-2.26953-0.91406c-0.48535-0.60938-0.72754-1.39941-0.72754-2.37012c0-1.0957,0.26758-1.94824,0.80371-2.55762
		c0.53564-0.60938,1.27441-0.91406,2.2168-0.91406c0.80176,0,1.45801,0.17969,1.96777,0.53906
		c0.51074,0.35938,0.8125,0.99414,0.90625,1.9043H39.99805z"/>
	<path d="M47.01367,54.12524c0.44531,0.2002,0.81348,0.51465,1.10352,0.94531c0.26172,0.37988,0.43066,0.81934,0.50879,1.32031
		c0.04492,0.29297,0.06348,0.71582,0.05469,1.26758H44.0293c0.02637,0.64062,0.24902,1.08984,0.66797,1.34766
		c0.25488,0.16016,0.56152,0.24023,0.9209,0.24023c0.37988,0,0.68945-0.09766,0.92676-0.29297
		c0.12988-0.10547,0.24414-0.25195,0.34375-0.43945h1.70508c-0.04492,0.37891-0.25098,0.76367-0.61914,1.1543
		c-0.57227,0.62109-1.37305,0.93164-2.40234,0.93164c-0.85059,0-1.60059-0.26172-2.25-0.78613
		c-0.64941-0.52344-0.97461-1.37598-0.97461-2.55664c0-1.10645,0.29297-1.95508,0.87988-2.54492
		c0.58691-0.59082,1.34766-0.88574,2.28418-0.88574C46.06738,53.82642,46.56836,53.92603,47.01367,54.12524z M44.51562,55.5686
		c-0.23633,0.24316-0.38477,0.57227-0.44531,0.98828h2.87695c-0.03027-0.44336-0.17871-0.7793-0.44531-1.00879
		c-0.26562-0.22949-0.5957-0.34473-0.99023-0.34473C45.08301,55.20337,44.75098,55.32544,44.51562,55.5686z"/>
	<path d="M52.99414,51.75806h6.1582v1.51758h-4.36523v1.98633h3.82617v1.5h-3.82617v3.62109h-1.79297V51.75806z"/>
	<path d="M65.51562,59.60181c-0.53906,0.66504-1.35742,0.99805-2.45508,0.99805s-1.91602-0.33301-2.45508-0.99805
		s-0.80859-1.4668-0.80859-2.40332c0-0.9209,0.26953-1.71875,0.80859-2.39453c0.53906-0.6748,1.35742-1.0127,2.45508-1.0127
		s1.91602,0.33789,2.45508,1.0127c0.53906,0.67578,0.80859,1.47363,0.80859,2.39453
		C66.32422,58.13501,66.05469,58.93677,65.51562,59.60181z M64.17969,58.67896c0.26172-0.34766,0.39258-0.84082,0.39258-1.48047
		s-0.13086-1.13184-0.39258-1.47754c-0.26172-0.34473-0.63672-0.51758-1.125-0.51758s-0.86426,0.17285-1.12793,0.51758
		c-0.26367,0.3457-0.39551,0.83789-0.39551,1.47754s0.13184,1.13281,0.39551,1.48047
		c0.26367,0.34668,0.63965,0.52051,1.12793,0.52051S63.91797,59.02563,64.17969,58.67896z"/>
	<path d="M71.06689,53.84692c0.02148,0.00195,0.07031,0.00488,0.14453,0.00879v1.71094
		c-0.10547-0.01172-0.19922-0.01953-0.28125-0.02344s-0.14844-0.00586-0.19922-0.00586c-0.67188,0-1.12305,0.21875-1.35352,0.65625
		c-0.12891,0.24609-0.19336,0.625-0.19336,1.13672v3.05273h-1.68213v-6.38672h1.59424v1.11328
		c0.25781-0.42578,0.48242-0.7168,0.67383-0.87305c0.3125-0.26172,0.71875-0.39258,1.21875-0.39258
		C71.02002,53.84399,71.04541,53.84497,71.06689,53.84692z"/>
	<path d="M76.35205,54.12524c0.44531,0.2002,0.8125,0.51465,1.10352,0.94531c0.26172,0.37988,0.42969,0.81934,0.50781,1.32031
		c0.04492,0.29297,0.06445,0.71582,0.05469,1.26758h-4.65039c0.02539,0.64062,0.24805,1.08984,0.66797,1.34766
		c0.25391,0.16016,0.56055,0.24023,0.91992,0.24023c0.38086,0,0.68945-0.09766,0.92773-0.29297
		c0.12891-0.10547,0.24414-0.25195,0.34375-0.43945h1.70508c-0.04492,0.37891-0.25195,0.76367-0.61914,1.1543
		c-0.57227,0.62109-1.37305,0.93164-2.40234,0.93164c-0.85156,0-1.60156-0.26172-2.25-0.78613
		c-0.65039-0.52344-0.97461-1.37598-0.97461-2.55664c0-1.10645,0.29297-1.95508,0.87891-2.54492
		c0.58789-0.59082,1.34766-0.88574,2.28516-0.88574C75.40479,53.82642,75.90674,53.92603,76.35205,54.12524z M73.854,55.5686
		c-0.23633,0.24316-0.38477,0.57227-0.44531,0.98828h2.87695c-0.03125-0.44336-0.17969-0.7793-0.44531-1.00879
		s-0.5957-0.34473-0.99023-0.34473C74.42041,55.20337,74.08838,55.32544,73.854,55.5686z"/>
	<path d="M82.68408,56.28735c-0.03125-0.23828-0.11133-0.45312-0.24219-0.64453c-0.1875-0.25781-0.47852-0.38672-0.875-0.38672
		c-0.5625,0-0.94922,0.2793-1.15625,0.83789c-0.10938,0.2959-0.16406,0.68945-0.16406,1.18066
		c0,0.46777,0.05469,0.84375,0.16406,1.12793c0.19922,0.53125,0.57617,0.79688,1.12695,0.79688
		c0.39258,0,0.66992-0.10547,0.83398-0.31641c0.16602-0.21094,0.26562-0.48438,0.30078-0.82031h1.70508
		c-0.03906,0.50781-0.22266,0.98828-0.55273,1.44141c-0.52344,0.73047-1.29883,1.0957-2.32812,1.0957
		c-1.02734,0-1.78516-0.30469-2.26953-0.91406s-0.72656-1.39941-0.72656-2.37012c0-1.0957,0.26758-1.94824,0.80273-2.55762
		s1.27539-0.91406,2.2168-0.91406c0.80273,0,1.45898,0.17969,1.96875,0.53906s0.8125,0.99414,0.90625,1.9043H82.68408z"/>
	<path d="M88.06689,56.49829c0.31055-0.03906,0.5332-0.08789,0.66602-0.14648c0.24023-0.10156,0.36133-0.25977,0.36133-0.47461
		c0-0.26172-0.0918-0.44238-0.27734-0.54199c-0.18359-0.09961-0.45312-0.14941-0.81055-0.14941
		c-0.39844,0-0.68164,0.09766-0.84961,0.29297c-0.11719,0.14453-0.19727,0.33984-0.23633,0.58594h-1.61133
		c0.03516-0.55859,0.19141-1.01758,0.4707-1.37695c0.44336-0.5625,1.20312-0.84375,2.2832-0.84375
		c0.70117,0,1.32617,0.13867,1.87109,0.41602s0.81836,0.80078,0.81836,1.57031v2.92969c0,0.20312,0.00391,0.44922,0.01172,0.73828
		c0.01172,0.21875,0.04492,0.36719,0.09961,0.44531s0.13672,0.14258,0.24609,0.19336v0.24609h-1.81641
		c-0.05078-0.12891-0.08594-0.25-0.10547-0.36328s-0.03516-0.24219-0.04688-0.38672c-0.23242,0.25-0.5,0.46289-0.80273,0.63867
		c-0.36133,0.20703-0.76953,0.31055-1.22461,0.31055c-0.58203,0-1.0625-0.16504-1.44141-0.49512S85.104,59.28931,85.104,58.68384
		c0-0.78516,0.30469-1.35352,0.91406-1.70508c0.33398-0.19141,0.82617-0.32812,1.47656-0.41016L88.06689,56.49829z
		 M89.08838,57.27759c-0.10742,0.06641-0.21484,0.12012-0.32422,0.16113s-0.25781,0.0791-0.44922,0.11426l-0.37891,0.07031
		c-0.35742,0.0625-0.61328,0.13867-0.76758,0.22852c-0.26367,0.15234-0.39453,0.38867-0.39453,0.70898
		c0,0.28516,0.08008,0.49121,0.24023,0.61816s0.35547,0.19043,0.58594,0.19043c0.36523,0,0.70117-0.10547,1.00977-0.31641
		c0.30664-0.21094,0.4668-0.5957,0.47852-1.1543V57.27759z"/>
	<path d="M93.50635,58.34399c0.03516,0.29688,0.11133,0.50781,0.22852,0.63281c0.20898,0.22266,0.59375,0.33398,1.1543,0.33398
		c0.33008,0,0.5918-0.04883,0.78711-0.14648c0.19336-0.09766,0.29102-0.24414,0.29102-0.43945
		c0-0.1875-0.07812-0.33008-0.23438-0.42773c-0.1582-0.09766-0.74023-0.26562-1.74805-0.50391
		c-0.72461-0.17969-1.23633-0.4043-1.5332-0.67383c-0.29688-0.26562-0.44531-0.64844-0.44531-1.14844
		c0-0.58984,0.23047-1.09668,0.69531-1.52051s1.11719-0.63574,1.95898-0.63574c0.79883,0,1.44922,0.15918,1.95117,0.47754
		c0.50391,0.31836,0.79297,0.86816,0.86719,1.64941h-1.66992c-0.02344-0.21484-0.08398-0.38477-0.18164-0.50977
		c-0.18555-0.22656-0.49805-0.33984-0.94141-0.33984c-0.36328,0-0.62305,0.05664-0.77734,0.16992
		c-0.15625,0.11328-0.23242,0.24609-0.23242,0.39844c0,0.19141,0.08203,0.33008,0.24609,0.41602
		c0.16406,0.08984,0.74609,0.24414,1.74414,0.46289c0.66406,0.15625,1.16406,0.39258,1.49609,0.70898
		c0.32812,0.32031,0.49219,0.7207,0.49219,1.20117c0,0.63281-0.23633,1.14941-0.70703,1.5498
		c-0.47266,0.40039-1.20117,0.60059-2.1875,0.60059c-1.00586,0-1.75-0.21191-2.22852-0.63574
		c-0.48047-0.42383-0.71875-0.96387-0.71875-1.62012H93.50635z"/>
	<path d="M98.229,55.24438v-1.18945h0.89062v-1.78125h1.65234v1.78125h1.03711v1.18945h-1.03711v3.375
		c0,0.26172,0.0332,0.4248,0.09961,0.48926s0.26953,0.09668,0.60938,0.09668c0.05078,0,0.10352-0.00098,0.16016-0.00293
		s0.11328-0.00488,0.16797-0.00879v1.24805l-0.79102,0.0293c-0.78906,0.02734-1.32812-0.10938-1.61719-0.41016
		c-0.1875-0.19141-0.28125-0.48633-0.28125-0.88477v-3.93164H98.229z"/>
	<path d="M104.59814,53.23462h-1.69336V51.6936h1.69336V53.23462z M102.90479,53.99634h1.69336v6.38672h-1.69336V53.99634z"/>
	<path d="M111.36572,54.36255c0.41797,0.3457,0.62695,0.91895,0.62695,1.71973v4.30078h-1.71094v-3.88477
		c0-0.33594-0.04492-0.59375-0.13477-0.77344c-0.16211-0.32812-0.47266-0.49219-0.92969-0.49219
		c-0.5625,0-0.94922,0.24023-1.1582,0.7207c-0.10742,0.25391-0.16211,0.57812-0.16211,0.97266v3.45703h-1.66992v-6.375h1.61719
		v0.93164c0.21289-0.32812,0.41602-0.56445,0.60547-0.70898c0.34375-0.25781,0.77734-0.38672,1.30273-0.38672
		C110.40869,53.84399,110.9458,54.01685,111.36572,54.36255z"/>
	<path d="M116.70361,53.99048c0.40625,0.16797,0.73438,0.47656,0.98438,0.92578v-0.91992h1.62891v6.05859
		c0,0.82422-0.13867,1.44531-0.41602,1.86328c-0.47656,0.71875-1.39062,1.07812-2.74219,1.07812
		c-0.81641,0-1.48242-0.16016-1.99805-0.48047s-0.80078-0.79883-0.85547-1.43555h1.81641
		c0.04688,0.19531,0.12305,0.33594,0.22852,0.42188c0.17969,0.15234,0.48242,0.22852,0.9082,0.22852
		c0.60156,0,1.00391-0.20117,1.20703-0.60352c0.13281-0.25781,0.19922-0.69141,0.19922-1.30078v-0.41016
		c-0.16016,0.27344-0.33203,0.47852-0.51562,0.61523c-0.33203,0.25391-0.76367,0.38086-1.29492,0.38086
		c-0.82031,0-1.47656-0.28809-1.9668-0.86426s-0.73438-1.35645-0.73438-2.34082c0-0.94922,0.23633-1.74707,0.70703-2.39355
		c0.47266-0.64648,1.14258-0.96973,2.00781-0.96973C116.18799,53.84399,116.46729,53.89282,116.70361,53.99048z M117.27393,58.56958
		c0.26758-0.29492,0.40234-0.76465,0.40234-1.40918c0-0.60547-0.12695-1.06641-0.38281-1.38281
		c-0.25391-0.31641-0.5957-0.47461-1.02344-0.47461c-0.58398,0-0.98633,0.27539-1.20898,0.82617
		c-0.11523,0.29297-0.17383,0.6543-0.17383,1.08398c0,0.37109,0.0625,0.70117,0.18555,0.99023
		c0.22656,0.53906,0.63086,0.80859,1.21484,0.80859C116.67627,59.01196,117.00439,58.8645,117.27393,58.56958z"/>
</g>
</svg>
