<?xml version="1.0" encoding="UTF-8" standalone="no"?>
<!-- Created with Inkscape (http://www.inkscape.org/) -->

<svg
   version="1.1"
   id="svg1408"
   width="165.75999"
   height="192"
   viewBox="0 0 165.75999 192"
   sodipodi:docname="saqgetr.svg"
   inkscape:version="1.2.2 (b0a84865, 2022-12-01)"
   xmlns:inkscape="http://www.inkscape.org/namespaces/inkscape"
   xmlns:sodipodi="http://sodipodi.sourceforge.net/DTD/sodipodi-0.dtd"
   xmlns="http://www.w3.org/2000/svg"
   xmlns:svg="http://www.w3.org/2000/svg">
  <defs
     id="defs1412" />
  <sodipodi:namedview
     id="namedview1410"
     pagecolor="#ffffff"
     bordercolor="#666666"
     borderopacity="1.0"
     inkscape:showpageshadow="2"
     inkscape:pageopacity="0.0"
     inkscape:pagecheckerboard="0"
     inkscape:deskcolor="#d1d1d1"
     showgrid="false"
     inkscape:zoom="1.2291667"
     inkscape:cx="82.169492"
     inkscape:cy="96"
     inkscape:window-width="724"
     inkscape:window-height="480"
     inkscape:window-x="2038"
     inkscape:window-y="495"
     inkscape:window-maximized="0"
     inkscape:current-layer="g1414" />
  <g
     inkscape:groupmode="layer"
     inkscape:label="Image"
     id="g1414">
    <g
       id="g1535">
      <path
         style="fill:#a1e1e5;stroke-width:0.32"
         d="M 40.959998,168.01397 0.15999999,144.41208 0.07896599,96.228566 -0.00206802,48.045053 0.87896593,47.432509 C 2.3438764,46.414016 81.377425,0.86769197 82.254072,0.53676326 82.984344,0.26108973 87.316177,2.6819588 124.33407,24.053405 l 41.26592,23.823952 0.081,48.010787 c 0.0767,45.416286 0.0507,48.037366 -0.48,48.502676 -0.30857,0.27053 -18.80593,11.02127 -41.10524,23.89053 -28.878525,16.66622 -40.801939,23.38942 -41.439993,23.36658 -0.564938,-0.0202 -15.965318,-8.74946 -41.695799,-23.63396 z M 75.013823,67.325763 c 0.448137,-0.171965 0.506172,-1.470342 0.506172,-11.324387 v -11.13015 l -1.039999,-0.184452 c -4.262525,-0.75599 -6.881414,-0.477139 -9.113872,0.970413 -2.643945,1.714368 -3.996893,5.311184 -3.336973,8.87137 0.747021,4.030093 3.042259,5.759443 7.644083,5.759443 h 2.646762 v 3.429334 c 0,2.444052 0.114924,3.475706 0.4,3.590736 0.579091,0.233668 1.70831,0.242378 2.293827,0.0177 z m -7.025846,-9.426157 c -0.534611,-0.155472 -1.397943,-0.727241 -1.918512,-1.270598 -0.854755,-0.89217 -0.956272,-1.22641 -1.047411,-3.448467 -0.08482,-2.068023 0.01702,-2.690259 0.638512,-3.900541 0.831692,-1.619674 2.853929,-2.88 4.621062,-2.88 2.093267,0 2.038368,-0.159235 2.038368,5.912368 v 5.523894 l -1.2,0.198346 c -1.471789,0.243274 -1.893815,0.225082 -3.132019,-0.135002 z m 21.912926,9.14713 c 2.055664,-0.72528 3.117162,-1.638438 3.710439,-3.191917 0.475948,-1.246249 0.488598,-1.581587 0.104924,-2.781523 -0.681945,-2.132778 -1.849824,-2.644522 -6.356271,-2.785216 -2.024,-0.06319 -3.86,-0.261491 -4.08,-0.440669 -0.567373,-0.462089 -0.495594,-1.689699 0.129114,-2.20823 0.333977,-0.277213 1.367727,-0.445184 2.803052,-0.455459 2.54409,-0.01821 4.55607,-0.877104 5.527437,-2.3596 0.815593,-1.244752 1.066601,-3.19697 0.589209,-4.582608 L 91.914852,47.04 h 1.236474 c 1.051734,0 1.266448,-0.119421 1.437081,-0.799283 0.338448,-1.34848 -0.04158,-1.842115 -1.228147,-1.595309 -0.572147,0.119008 -1.414688,0.396672 -1.872314,0.617037 -0.711452,0.342589 -1.012915,0.307133 -2.079999,-0.244627 -1.736333,-0.897812 -4.670992,-0.910704 -6.367952,-0.02797 -3.107254,1.616332 -3.879216,5.683107 -1.594246,8.398636 0.7235,0.859834 0.745228,0.973815 0.262012,1.374551 -0.574911,0.476787 -1.387766,2.215725 -1.387766,2.968851 0,0.259837 0.339443,0.867059 0.754317,1.349376 l 0.754313,0.876944 -0.892953,0.751373 c -2.333296,1.963341 -1.819046,5.333005 0.984486,6.450925 1.256797,0.501152 6.447616,0.427158 7.980745,-0.11376 z M 84.059537,65.29231 c -0.495254,-0.158345 -1.107254,-0.459526 -1.36,-0.669289 -0.653296,-0.542186 -0.568771,-2.337184 0.151981,-3.227571 0.546624,-0.675271 0.911719,-0.76514 3.44,-0.84674 3.435347,-0.110876 4.382013,0.265149 4.53031,1.799492 0.113959,1.179056 -0.281513,1.80006 -1.570966,2.466864 -1.124647,0.581577 -4.029725,0.848643 -5.191325,0.477244 z M 83.984715,52.273274 C 83.062181,51.27784 82.915393,49.158576 83.668158,47.702886 84.219486,46.636739 84.725099,46.4 86.450782,46.4 c 2.834275,0 4.234675,3.460896 2.320768,5.735446 C 88.051556,52.99111 87.735371,53.12 86.35627,53.12 c -1.304931,0 -1.72624,-0.150422 -2.371555,-0.846726 z m -45.575239,7.8548 c 2.927248,-0.627783 4.770397,-3.004183 4.295101,-5.537738 -0.305469,-1.628288 -1.305651,-2.526659 -3.929063,-3.529123 -2.720441,-1.039536 -3.255516,-1.496522 -3.255516,-2.7804 0,-0.798397 0.195168,-1.035859 1.2,-1.460042 1.018611,-0.430003 1.483241,-0.448768 3.073804,-0.124144 1.030596,0.210336 1.929095,0.327139 1.996669,0.259568 0.06757,-0.06757 0.210563,-0.561376 0.317757,-1.097341 l 0.194893,-0.974476 -2.077376,-0.391972 c -2.441936,-0.460761 -5.123274,-0.05123 -6.438589,0.983402 -0.943795,0.74239 -1.577945,2.749046 -1.274268,4.032202 0.333475,1.409062 1.314761,2.23488 3.932646,3.309596 1.338953,0.549677 2.614464,1.230109 2.834464,1.512068 0.654953,0.839404 0.469715,2.133276 -0.425853,2.974547 -0.713709,0.670432 -1.093933,0.76575 -2.8,0.701939 -1.085782,-0.04061 -2.319574,-0.112614 -2.74176,-0.16 -0.592582,-0.06651 -0.837325,0.119056 -1.073334,0.81384 -0.374272,1.101808 -0.345835,1.131821 1.396755,1.474083 2.005315,0.393863 2.91447,0.392717 4.77367,-0.006 z m 17.270521,-0.08261 2.08,-0.365459 v -5.92 c 0,-6.788605 -0.250212,-7.6452 -2.565482,-8.782938 -1.351286,-0.664028 -4.406844,-0.844512 -6.634518,-0.391884 -1.054256,0.214211 -1.2,0.356361 -1.2,1.170438 0,1.232445 0.288301,1.353053 2.235882,0.935373 3.106092,-0.666138 5.444492,0.474102 5.443766,2.654467 l -3.2e-4,1.054544 -2.479651,0.02931 c -4.861987,0.05746 -7.512346,2.695555 -6.496854,6.466794 0.804556,2.987897 4.202716,4.100697 9.617205,3.14936 z m -5.44,-2.365955 C 49.250656,57.18527 49.10833,56.957526 49.02,55.727293 c -0.07015,-0.977018 0.06441,-1.574371 0.450816,-2.001347 0.743555,-0.82162 2.805971,-1.336532 4.325219,-1.079856 l 1.243962,0.210166 v 2.490003 2.490003 l -1.2,0.198346 c -1.841389,0.304365 -2.387779,0.250467 -3.6,-0.355104 z m 58.448053,2.142227 c 0.63996,-0.243315 0.73159,-0.437821 0.55431,-1.176617 -0.11682,-0.486813 -0.24919,-0.93016 -0.29416,-0.98522 -0.045,-0.05506 -0.98697,0.06404 -2.09334,0.264663 -4.17736,0.757501 -7.014866,-0.791191 -7.014866,-3.828666 V 53.12 h 5.279996 5.28 l -0.008,-1.2 c -0.0349,-5.355098 -3.3807,-8.430554 -8.10471,-7.449853 -4.078809,0.846759 -6.356028,5.135277 -5.335974,10.048845 0.867546,4.178947 3.891204,6.169536 8.769184,5.773091 1.21037,-0.09837 2.54569,-0.310029 2.96738,-0.470352 z m -8.848056,-9.694409 c 0,-1.180941 1.322646,-2.856058 2.655716,-3.363424 2.39627,-0.912029 5.01975,0.778137 5.02309,3.236102 l 0.001,0.88 h -3.84 c -3.818281,0 -3.839996,-0.0043 -3.839996,-0.752678 z m 22.344646,9.874694 c 0.0639,-0.06394 0.0191,-0.558426 -0.0996,-1.098861 -0.20524,-0.934448 -0.27558,-0.973049 -1.43519,-0.787619 -0.97897,0.156544 -1.35251,0.06186 -1.89464,-0.480275 -0.62874,-0.628739 -0.67526,-1.015872 -0.67526,-5.619293 v -4.944029 l 1.84,-0.09597 c 1.80979,-0.09439 1.84,-0.111731 1.84,-1.055968 0,-0.954106 -0.0123,-0.960586 -2,-1.05527 l -2,-0.09527 -0.0126,-1.824732 -0.0126,-1.82473 -2.54738,2.658995 c -1.40106,1.462448 -2.54738,2.794448 -2.54738,2.96 0,0.165552 0.504,0.301005 1.12,0.301005 h 1.12 l 0.002,4.72 c 0.003,6.53359 0.27699,7.346653 2.79518,8.278518 1.04797,0.387805 4.10815,0.363024 4.50768,-0.0365 z m 5.94918,-0.03625 c 0.43028,-0.165113 0.50617,-0.910349 0.50617,-4.970278 0,-3.403799 0.13067,-5.088778 0.45479,-5.864509 0.50776,-1.215226 1.90457,-2.090976 3.33508,-2.090976 0.56347,0 1.01967,-0.203286 1.1359,-0.506173 0.30598,-0.797373 0.22712,-1.995731 -0.14653,-2.226659 -0.69612,-0.430224 -2.61646,0.244266 -3.83833,1.34815 -1.2348,1.115565 -1.26091,1.123082 -1.26091,0.363079 0,-1.221984 -0.69508,-1.928832 -1.77578,-1.80585 l -0.94422,0.107453 -0.0859,7.657453 c -0.0663,5.912617 0.007,7.716157 0.32,7.915097 0.48449,0.307514 1.59689,0.342928 2.29975,0.07321 z"
         id="path1549" />
      <path
         style="fill:#60ccd3;stroke-width:0.32"
         d="M 41.038964,167.94684 -0.00206547,144.23565 0.07896726,96.046227 0.15999999,47.856803 41.397946,24.04723 82.635896,0.23765816 83.637944,0.71658346 C 85.764222,1.7328282 165.29278,47.773446 165.51509,48.116848 c 0.12931,0.199734 0.23731,21.85311 0.24,48.118611 l 0.005,47.755461 -1.2,0.78309 c -4.11675,2.68649 -81.24475,46.90393 -81.79844,46.895 -0.374854,-0.006 -19.150018,-10.68103 -41.722586,-23.72217 z M 90.823143,66.668672 c 3.039104,-1.519965 4.06585,-4.05783 2.60865,-6.44793 C 92.494938,58.684122 91.131108,58.24 87.349236,58.24 c -4.300614,0 -5.287091,-0.609955 -3.98742,-2.465488 0.420109,-0.599795 0.696749,-0.665875 2.16,-0.515971 3.174847,0.325254 5.585811,-0.843261 6.671353,-3.233389 0.71424,-1.572602 0.761488,-2.921107 0.14383,-4.105152 L 91.87795,47.04 h 1.42102 1.421024 v -1.28 c 0,-1.149216 -0.08108,-1.28 -0.793523,-1.28 -0.436438,0 -1.359424,0.226429 -2.051078,0.503174 -1.152698,0.461216 -1.343018,0.45898 -2.282483,-0.02685 -1.397725,-0.72279 -4.120202,-0.962374 -5.554992,-0.488851 -1.551449,0.512023 -3.061392,1.814794 -3.601433,3.107296 -0.846365,2.025635 -0.352179,4.683773 1.113552,5.989571 l 0.678371,0.604356 -0.954205,1.08678 c -1.135398,1.293149 -1.260771,2.828471 -0.327817,4.014528 l 0.626387,0.796327 -0.942403,0.90288 c -1.491191,1.428649 -1.654944,3.689769 -0.381146,5.262845 1.470355,1.815808 7.332304,2.057856 10.573919,0.436604 z M 83.359995,64.897616 C 82.042501,64.150512 81.874193,62.95135 82.903221,61.643155 83.539566,60.834176 83.69428,60.8 86.720363,60.8 c 2.440531,0 3.26766,0.113741 3.656774,0.502858 1.05136,1.051356 0.412662,2.820076 -1.272621,3.524233 -1.290668,0.539274 -4.84103,0.582864 -5.744521,0.07053 z M 84.135381,52.184614 C 83.369521,51.418758 83.199995,50.979325 83.199995,49.76 c 0,-1.233219 0.167658,-1.65689 0.97528,-2.464509 0.874214,-0.874217 1.12663,-0.958221 2.435843,-0.810653 2.113321,0.238202 2.828877,1.075898 2.828877,3.311757 0,1.552266 -0.114352,1.877178 -0.897844,2.551111 -1.31758,1.133334 -3.179244,1.064435 -4.40677,-0.163092 z m -8.615386,4.001901 V 44.853034 l -1.61575,-0.346519 c -7.421263,-1.591574 -12.609228,2.312419 -12.066009,9.079786 0.381152,4.748349 3.550931,7.262854 8.580608,6.806781 l 1.901152,-0.172391 V 63.870346 67.52 h 1.6 1.599999 z m -8.289151,1.335869 c -1.577926,-0.825498 -2.110848,-2.003475 -2.110848,-4.66585 0,-4.321664 1.551296,-6.136534 5.245328,-6.136534 h 1.969785 l -0.08756,5.52 -0.08755,5.52 -2.08,0.08238 c -1.211395,0.04798 -2.401197,-0.08565 -2.849152,-0.32 z m -27.088987,2.131302 c 0.694022,-0.361683 1.537859,-1.02727 1.875187,-1.479088 0.864208,-1.15751 1.063318,-3.418921 0.411933,-4.678556 -0.64161,-1.240736 -1.438253,-1.779751 -3.863786,-2.614256 -2.934748,-1.0097 -3.767331,-2.193437 -2.515596,-3.576589 0.595929,-0.658496 3.301209,-0.816179 4.723737,-0.275335 0.667459,0.253767 0.873987,0.199645 1.140832,-0.298963 0.493853,-0.922771 0.391088,-1.836761 -0.234167,-2.082685 -0.307999,-0.121142 -1.576883,-0.299283 -2.819737,-0.395868 -2.806317,-0.218084 -4.887952,0.561446 -5.890531,2.205884 -1.702286,2.7921 -0.216694,5.328122 3.890275,6.640992 2.803466,0.896186 3.689626,2.809082 1.939994,4.187741 -0.760867,0.599543 -1.183245,0.674919 -3.12,0.556784 -1.232,-0.07515 -2.444106,-0.196733 -2.693568,-0.270189 -0.468586,-0.13798 -1.262256,1.777284 -0.890531,2.149008 0.927782,0.927783 6.220425,0.882474 8.045958,-0.06888 z m 16.922082,0.297146 0.903939,-0.194595 -0.103939,-6.175575 c -0.09574,-5.68823 -0.157088,-6.2468 -0.777392,-7.078118 -1.497331,-2.006694 -4.62511,-2.782656 -8.213606,-2.037686 -1.936489,0.402012 -2.005638,0.479257 -1.535648,1.71543 0.291123,0.765706 0.355936,0.778637 3.12,0.622422 3.316211,-0.18742 4.153078,0.23104 4.474307,2.23729 l 0.192134,1.2 -2.041868,0.0019 c -2.574515,0.0022 -4.154154,0.437437 -5.403424,1.48863 -1.900698,1.599332 -2.43448,3.885402 -1.410877,6.042484 0.974506,2.053619 2.931434,2.760505 7.012432,2.533043 1.584,-0.08828 3.286774,-0.248087 3.783942,-0.355111 z m -7.408163,-2.771456 c -0.86264,-0.91824 -0.902829,-2.452781 -0.09051,-3.455952 0.517751,-0.639395 0.957328,-0.765258 3.04,-0.870429 l 2.43473,-0.122947 V 55.325024 57.92 h -2.344221 c -2.036633,0 -2.43551,-0.09718 -3.039999,-0.740624 z m 58.204774,2.946323 1.65205,-0.354304 -0.18262,-1.125347 c -0.10044,-0.618941 -0.23431,-1.17704 -0.2975,-1.240224 -0.0632,-0.06318 -0.60839,0.02666 -1.21157,0.199648 -1.88029,0.539261 -4.82109,0.385197 -5.96538,-0.312518 -1.15395,-0.703604 -2.015536,-2.138653 -2.015536,-3.357063 V 53.12 h 5.279996 5.28 l -0.002,-1.52 c -0.004,-3.205443 -1.24052,-5.574202 -3.5086,-6.72 -3.36523,-1.700064 -7.565076,-0.260371 -9.329463,3.198118 -0.353629,0.693168 -0.723072,2.223952 -0.822253,3.407008 -0.558301,6.659396 3.967336,10.175114 11.122656,8.640573 z m -8.020556,-9.895977 c 0,-0.773645 0.949326,-2.505952 1.637396,-2.987901 0.95021,-0.665549 3.43682,-0.678282 4.37323,-0.0224 0.78038,0.546598 1.66937,2.061488 1.66937,2.844685 0,0.420304 -0.58531,0.495891 -3.84,0.495891 -2.42633,0 -3.839996,-0.121591 -3.839996,-0.330279 z m 21.697156,10.044099 c 0.60053,-0.160845 0.71915,-0.382442 0.64,-1.195629 -0.0926,-0.951677 -0.17453,-1.005974 -1.75752,-1.165226 -0.91321,-0.09186 -1.77721,-0.283472 -1.92,-0.425785 -0.1428,-0.142317 -0.30555,-2.551152 -0.36166,-5.35297 L 118.03595,47.04 h 1.96134 1.96134 l -0.0993,-1.2 -0.0993,-1.2 -2,-0.09527 -2,-0.09527 v -1.791769 -1.791767 l -2.64,2.812052 c -1.452,1.546627 -2.688,2.935795 -2.74666,3.087036 -0.0587,0.151242 0.47205,0.274986 1.17937,0.274986 h 1.28604 l 0.10063,5.567325 c 0.091,5.033299 0.16201,5.636041 0.74062,6.283721 1.21125,1.355831 3.73406,1.951424 5.85716,1.382775 z m 7.10284,-4.924099 c 0,-6.464365 0.63409,-7.887328 3.66702,-8.229184 l 1.45298,-0.16377 v -1.398384 c 0,-1.350342 -0.0341,-1.398384 -0.99164,-1.398384 -1.34526,0 -3.10101,0.878797 -3.75232,1.878131 l -0.53604,0.822467 -0.16,-1.2703 c -0.15573,-1.236436 -0.19625,-1.272922 -1.52,-1.368698 l -1.36,-0.0984 v 8.0184 8.0184 h 1.6 1.6 z"
         id="path1547" />
      <path
         style="fill:#00adb9;stroke-width:0.32"
         d="M 41.038964,167.93262 -0.00206431,144.21767 0.07896784,96.046774 0.15999999,47.875875 40.479998,24.590964 C 62.655996,11.784262 81.256382,1.0576978 81.814187,0.75415478 L 82.828379,0.2022584 86.934187,2.5632338 C 118.75129,20.859124 164.76678,47.522291 165.19999,47.913494 c 0.52857,0.477319 0.56,3.185546 0.56,48.256919 0,38.759047 -0.0782,47.816157 -0.41547,48.096037 -1.27953,1.06191 -82.058199,47.41082 -82.605907,47.39733 -0.36224,-0.009 -19.127081,-10.68794 -41.699649,-23.73116 z M 89.619438,67.324579 c 1.205904,-0.358112 2.15143,-0.931241 3.09808,-1.877894 1.215235,-1.215232 1.362476,-1.524362 1.362476,-2.860471 0,-3.321164 -1.478291,-4.343913 -6.288361,-4.350582 -3.721705,-0.0052 -4.502614,-0.171024 -4.769881,-1.013114 C 82.636097,56.007427 83.702824,55.36 86.09051,55.36 c 2.596931,0 4.049245,-0.556883 5.367299,-2.058064 1.365449,-1.555158 1.703261,-3.761046 0.873206,-5.701936 -0.20584,-0.481306 -0.05481,-0.56 1.074743,-0.56 h 1.314236 v -1.28 c 0,-1.211901 -0.05162,-1.28 -0.970278,-1.28 -0.533651,0 -1.463302,0.206 -2.065891,0.457776 -0.991523,0.414285 -1.217094,0.399085 -2.374266,-0.16 -1.833043,-0.885632 -4.64534,-0.830672 -6.459234,0.12623 -2.844461,1.50057 -3.731293,5.094362 -1.952762,7.913344 l 0.897568,1.42265 -0.737568,1.087322 c -0.937885,1.38263 -0.982544,3.231785 -0.0974,4.032835 l 0.640169,0.579347 -0.641996,0.449674 c -1.520381,1.064915 -2.101149,4.030566 -1.075946,5.494249 1.301453,1.85808 5.994237,2.552647 9.737043,1.441152 z m -5.998525,-2.350064 c -1.505836,-0.64279 -1.683427,-2.742201 -0.313152,-3.701981 1.068781,-0.748601 5.997389,-0.653875 6.970336,0.133972 0.637178,0.515955 0.702189,0.738012 0.43545,1.487312 -0.533021,1.497324 -1.825559,2.195635 -4.243783,2.292764 -1.182374,0.04749 -2.464355,-0.04794 -2.848851,-0.212067 z m 1.331325,-12.301216 c -1.620681,-0.706131 -2.136016,-2.495357 -1.297043,-4.503302 0.994515,-2.380208 4.808534,-2.163309 5.628121,0.320067 0.594583,1.8016 -0.02362,3.57736 -1.453318,4.174736 -1.317034,0.550291 -1.632122,0.551222 -2.87776,0.0085 z m -9.432243,3.505587 c 0,-8.277744 -0.100563,-11.403267 -0.372304,-11.571212 -0.204768,-0.126551 -1.789491,-0.298336 -3.521606,-0.381744 -3.59984,-0.173344 -5.315564,0.289772 -7.198585,1.943088 -1.691392,1.485062 -2.430905,3.212054 -2.601945,6.076345 -0.183888,3.079475 0.412131,4.844426 2.173244,6.435488 1.590455,1.43688 3.128064,1.884157 6.00992,1.748231 l 2.31272,-0.109082 -6.4e-4,3.6 -8.03e-4,3.6 h 1.6 1.599999 z m -8.219292,1.272743 C 65.79623,56.79729 65.13221,55.314691 65.13909,52.625258 65.149001,48.750896 66.974572,46.72 70.447317,46.72 h 1.872679 v 5.402678 c 0,5.332272 -0.0094,5.405191 -0.72,5.595629 -1.212522,0.324944 -3.226208,0.200039 -4.299293,-0.266678 z M 40.00961,59.76 c 1.903821,-0.961779 2.870387,-2.45561 2.870387,-4.436189 0,-2.172041 -1.224988,-3.520345 -4.053571,-4.461638 -3.226835,-1.073821 -4.231017,-2.561603 -2.496185,-3.698311 0.614566,-0.402678 1.252144,-0.488908 2.64,-0.357052 1.006368,0.09561 2.068749,0.269609 2.360848,0.386659 0.522003,0.209174 0.570041,0.130643 1.109737,-1.814167 0.349731,-1.260268 -5.409388,-1.698249 -7.706786,-0.586099 -1.649252,0.798387 -2.414042,2.07145 -2.414042,4.018384 0,1.300723 0.14928,1.652746 1.064669,2.510627 0.585568,0.548784 2.0448,1.357786 3.242736,1.797786 2.393263,0.87904 3.242492,1.759824 2.923235,3.03185 -0.387386,1.543465 -2.986576,2.187776 -5.740646,1.42304 -0.676506,-0.18785 -1.307648,-0.263901 -1.402544,-0.169008 -0.09489,0.0949 -0.189392,0.708054 -0.209994,1.362576 -0.04544,1.443833 0.400746,1.632384 3.974739,1.679644 1.909568,0.02525 2.709168,-0.118128 3.837417,-0.688102 z m 16.294636,0.373485 1.615751,-0.346519 v -5.90623 c 0,-6.968755 -0.271469,-7.895421 -2.65033,-9.047008 -1.420633,-0.687718 -4.837993,-0.877008 -7.10967,-0.393808 -1.060803,0.225638 -1.403769,1.151923 -0.826141,2.231238 0.286736,0.53577 0.504858,0.584509 1.540093,0.344141 0.663328,-0.154016 1.882019,-0.283465 2.708205,-0.287664 1.793052,-0.0091 3.036249,0.898704 3.330051,2.431699 l 0.191526,0.999335 -2.849875,0.136253 c -2.274973,0.108768 -3.094969,0.287731 -4.064832,0.887139 -1.67055,1.032457 -2.426633,2.384061 -2.426633,4.337939 0,3.329792 2.101443,4.940538 6.461855,4.952973 1.355338,0.0039 3.191338,-0.148906 4.08,-0.339488 z m -6.558793,-2.998941 c -0.99151,-0.991507 -0.999891,-2.129562 -0.02403,-3.264061 0.67207,-0.781328 1.028803,-0.90031 3.04,-1.013955 l 2.278576,-0.128749 v 2.401872 c 0,2.753779 -0.03618,2.790349 -2.760717,2.790349 -1.429632,0 -1.891568,-0.143194 -2.533827,-0.785456 z m 58.494537,3.00863 c 1.01064,-0.280668 1.19923,-0.469747 1.1951,-1.198214 -0.008,-1.482179 -0.37851,-1.766147 -1.79083,-1.37401 -1.72913,0.480106 -4.10093,0.43424 -5.38965,-0.10422 -1.27546,-0.532919 -1.96346,-1.4881 -2.266555,-3.14673 l -0.219287,-1.2 h 5.315612 5.31561 l -0.002,-1.68 c -0.003,-2.405984 -0.5198,-3.947094 -1.80061,-5.3648 -1.38834,-1.536717 -2.79913,-2.022771 -5.39195,-1.857674 -2.50673,0.159616 -4.240012,1.216343 -5.48798,3.345834 -0.715747,1.221334 -0.903632,1.991686 -1.018221,4.174867 -0.303123,5.77528 2.385706,8.733757 7.940551,8.736861 1.32,6.4e-4 2.94,-0.148624 3.6,-0.331914 z M 100.1763,49.52 c 0.66214,-2.361261 3.22745,-3.455722 5.4301,-2.316688 0.99618,0.515146 1.37845,1.067066 1.71542,2.476688 l 0.21037,0.88 h -3.82376 -3.823761 z m 21.90369,9.547645 V 57.81529 l -1.58902,-0.02765 c -2.22475,-0.0387 -2.40037,-0.490288 -2.40626,-6.187645 L 118.07999,47.04 h 1.92 1.92 v -1.28 -1.28 h -1.92 -1.92 l -0.0154,-2 -0.0154,-2 -2.86088,3.04 c -1.57349,1.672 -2.86256,3.148 -2.86462,3.28 -0.002,0.132 0.57228,0.24 1.27628,0.24 h 1.28 v 5.295891 c 0,5.929616 0.20822,6.729152 1.98339,7.615875 0.72528,0.362288 1.70886,0.502778 3.13661,0.448013 l 2.08,-0.07978 z M 128.66458,55.6 c 0.0135,-2.508 0.19385,-5.120698 0.40072,-5.805997 0.45978,-1.523142 1.59719,-2.422809 3.3624,-2.659574 l 1.33229,-0.178698 v -1.397865 c 0,-1.387952 -0.008,-1.397866 -1.13589,-1.397866 -1.22251,0 -2.6567,0.611728 -3.3266,1.418899 -0.63384,0.763738 -0.97751,0.6024 -0.97751,-0.458899 0,-0.924445 -0.0533,-0.96 -1.44,-0.96 h -1.44 v 8 8 h 1.6 1.6 l 0.0246,-4.56 z"
         id="path1545" />
      <path
         style="fill:#616161;stroke-width:0.32"
         d="M 41.038964,167.93262 -0.00206431,144.21767 0.07896784,96.046774 0.15999999,47.875875 40.479998,24.590964 C 62.655996,11.784262 81.256382,1.0576978 81.814187,0.75415478 L 82.828379,0.2022584 86.934187,2.5632338 C 118.75129,20.859124 164.76678,47.522291 165.19999,47.913494 c 0.52857,0.477319 0.56,3.185546 0.56,48.256919 0,38.759047 -0.0782,47.816157 -0.41547,48.096037 -1.27953,1.06191 -82.058199,47.41082 -82.605907,47.39733 -0.36224,-0.009 -19.127081,-10.68794 -41.699649,-23.73116 z m 81.521026,-2.94646 39.52,-22.83207 0.0741,-46.037044 L 162.22828,50.08 124.07414,28.067583 C 103.08936,15.960753 85.199995,5.6486246 84.319995,5.1517411 l -1.6,-0.9034243 L 43.039997,27.182046 3.3599998,50.115776 3.2789188,96.048262 3.1978377,141.98075 42.798916,164.88118 c 21.780594,12.59524 39.745079,22.90868 39.921079,22.91875 0.176,0.0101 18.103995,-10.25613 39.839995,-22.81377 z m -17.13245,-3.95106 c -0.26471,-0.1872 -2.449,-2.93252 -3.74618,-4.7084 -0.13125,-0.17969 -1.14755,-1.4787 -2.258451,-2.8867 -1.110896,-1.408 -2.658691,-3.424 -3.439542,-4.48 -0.780854,-1.056 -1.504861,-1.992 -1.608902,-2.08 -0.104042,-0.088 -0.320861,-0.39102 -0.481818,-0.67339 -0.16096,-0.28236 -0.757437,-1.07436 -1.325507,-1.76 -1.011741,-1.22113 -5.382076,-6.89772 -6.647145,-8.63392 -0.352,-0.48309 -0.82,-1.06029 -1.04,-1.28266 -0.559347,-0.56538 -0.498195,-1.32327 0.135379,-1.67784 0.362784,-0.20303 1.059117,-0.1177 2.16,0.26466 1.857129,0.64503 7.387673,2.76474 8.34462,3.19826 1.957773,0.88694 3.666419,1.60489 3.819456,1.60489 0.09601,0 0.211914,-7.164 0.257555,-15.92 l 0.08299,-15.92 h 6.239995 6.24 l 0.083,15.92 c 0.0456,8.756 0.16275,15.92 0.26025,15.92 0.17987,0 5.85855,-2.26845 7.70512,-3.07796 0.5546,-0.24312 1.1025,-0.44204 1.21756,-0.44204 0.11506,0 0.8853,-0.3114 1.71164,-0.692 1.92299,-0.8857 3.99626,-0.97742 4.15681,-0.18391 0.13222,0.65346 -1.67443,3.27091 -4.32694,6.26886 -0.56792,0.64188 -1.03592,1.26477 -1.04,1.38419 -0.004,0.11943 -0.18743,0.40743 -0.40743,0.64 -0.22,0.23258 -1.0397,1.28686 -1.82155,2.34286 -0.78186,1.056 -2.33047,3.072 -3.44136,4.48 -2.31399,2.93285 -2.04972,2.58908 -3.99864,5.2016 -3.11337,4.17345 -5.81448,7.43822 -6.1501,7.4335 -0.19159,-0.003 -0.49795,-0.11069 -0.6808,-0.24 z m -65.267542,-9.57171 c -0.352,-0.0712 -0.964,-0.62557 -1.36,-1.23193 l -0.72,-1.10248 V 114.59833 80.067683 L 39.008385,79.073843 39.936772,78.08 H 79.459938 118.9831 l 0.82845,0.984554 0.82844,0.98455 v 26.504146 26.50414 l -0.88,0.31857 c -0.484,0.17522 -1.132,0.42072 -1.44,0.54555 -0.50414,0.20433 -0.56,-0.0158 -0.56,-2.20727 V 129.28 h -1.12 c -1.11407,0 -1.12,-0.008 -1.12,-1.44 0,-1.43238 0.006,-1.44 1.12,-1.44 h 1.12 v -4.48 -4.48 h -1.12 c -1.11407,0 -1.12,-0.008 -1.12,-1.44 0,-1.43238 0.006,-1.44 1.12,-1.44 h 1.12 v -4.8 -4.8 h -1.77125 c -1.05641,0 -2.07497,-0.199 -2.52379,-0.49308 -0.63005,-0.41282 -1.787,-0.47449 -7.10874,-0.37894 -4.49543,0.0807 -6.707515,0.24798 -7.556216,0.57137 l -1.2,0.45725 v 14.94495 14.94495 l -1.2,-0.41446 -1.2,-0.41445 -0.09346,-2.4488 -0.09346,-2.44879 h -9.906537 -9.906541 v 4.32 4.32 h 4.588893 4.588893 l 0.854227,1.2 0.854227,1.2 -5.44312,0.0876 -5.44312,0.0876 v 4.15245 4.15244 h 8.778211 8.778208 l 0.73023,1.04 c 0.401629,0.572 0.843434,1.088 0.981792,1.14667 1.387766,0.58844 -2.725894,0.68852 -26.70844,0.64975 -14.827999,-0.024 -27.247998,-0.10183 -27.599998,-0.17303 z M 50.239997,144.64 v -4.16 h -4.64 -4.639999 v 4.16 4.16 h 4.639999 4.64 z m 22.079999,0 v -4.16 h -9.6 -9.599999 v 4.16 4.16 h 9.599999 9.6 z M 50.239997,133.6 v -4.32 h -4.64 -4.639999 v 4.32 4.32 h 4.639999 4.64 z m 22.079999,0 v -4.32 h -9.6 -9.599999 v 4.32 4.32 h 9.599999 9.6 z M 50.239997,121.92 v -4.48 h -4.64 -4.639999 v 4.48 4.48 h 4.639999 4.64 z m 22.079999,0 v -4.48 h -9.6 -9.599999 v 4.48 4.48 h 9.599999 9.6 z m 22.719998,0 v -4.48 h -9.919999 -9.92 v 4.48 4.48 h 9.92 9.919999 z M 50.239997,109.76 v -4.8 h -4.64 -4.639999 v 4.8 4.8 h 4.639999 4.64 z m 22.079999,0 v -4.8 h -9.6 -9.599999 v 4.8 4.8 h 9.599999 9.6 z m 22.719998,0 v -4.8 h -9.919999 -9.92 v 4.8 4.8 h 9.92 9.919999 z M 50.239997,97.44 V 92.8 h -4.64 -4.639999 v 4.64 4.64 h 4.639999 4.64 z m 22.079999,0 V 92.8 h -9.6 -9.599999 v 4.64 4.64 h 9.599999 9.6 z m 22.719998,0 V 92.8 h -9.919999 -9.92 v 4.64 4.64 h 9.92 9.919999 z m 22.719996,0 V 92.8 h -10.08 -10.079996 v 4.64 4.64 h 10.079996 10.08 z M 72.319996,85.28 v -4.64 h -9.6 -9.599999 v 4.64 4.64 h 9.599999 9.6 z m 22.719998,0 v -4.64 h -9.919999 -9.92 v 4.64 4.64 h 9.92 9.919999 z m 22.719996,0 v -4.64 h -10.08 -10.079996 v 4.64 4.64 h 10.079996 10.08 z"
         id="path1543" />
      <path
         style="fill:#007b84;stroke-width:0.32"
         d="M 41.919997,168.30172 C 19.655999,155.44569 1.1159999,144.7152 0.71999996,144.45619 L 0,143.98524 V 96.036198 48.087152 L 41.096196,24.363576 C 63.699103,11.315609 82.461915,0.64 82.791336,0.64 c 0.507504,0 81.417634,46.474646 82.568654,47.427299 0.31676,0.262173 0.39898,10.22832 0.3951,47.891882 -0.003,26.158449 -0.11213,47.729389 -0.24318,47.935419 -0.30047,0.47234 -82.220897,47.78606 -82.733934,47.78356 -0.207891,-0.001 -18.59398,-10.52042 -40.857979,-23.37644 z m 80.639993,-3.31556 39.52,-22.83207 0.0741,-46.037044 L 162.22828,50.08 124.07414,28.067583 C 103.08936,15.960753 85.199995,5.6486246 84.319995,5.1517411 l -1.6,-0.9034243 L 43.039997,27.182046 3.3599998,50.115776 3.2789188,96.048262 3.1978377,141.98075 42.798916,164.88118 c 21.780594,12.59524 39.745079,22.90868 39.921079,22.91875 0.176,0.0101 18.103995,-10.25613 39.839995,-22.81377 z m -17.13245,-3.95106 c -0.26471,-0.1872 -2.449,-2.93252 -3.74618,-4.7084 -0.13125,-0.17969 -1.14755,-1.4787 -2.258451,-2.8867 -1.110896,-1.408 -2.658691,-3.424 -3.439542,-4.48 -0.780854,-1.056 -1.504861,-1.992 -1.608902,-2.08 -0.104042,-0.088 -0.320861,-0.39102 -0.481818,-0.67339 -0.16096,-0.28236 -0.757437,-1.07436 -1.325507,-1.76 -1.011741,-1.22113 -5.382076,-6.89772 -6.647145,-8.63392 -0.352,-0.48309 -0.82,-1.06029 -1.04,-1.28266 -0.559347,-0.56538 -0.498195,-1.32327 0.135379,-1.67784 0.362784,-0.20303 1.059117,-0.1177 2.16,0.26466 1.857129,0.64503 7.387673,2.76474 8.34462,3.19826 1.957773,0.88694 3.666419,1.60489 3.819456,1.60489 0.09601,0 0.211914,-7.164 0.257555,-15.92 l 0.08299,-15.92 h 6.239995 6.24 l 0.083,15.92 c 0.0456,8.756 0.16275,15.92 0.26025,15.92 0.17987,0 5.85855,-2.26845 7.70512,-3.07796 0.5546,-0.24312 1.1025,-0.44204 1.21756,-0.44204 0.11506,0 0.8853,-0.3114 1.71164,-0.692 1.92299,-0.8857 3.99626,-0.97742 4.15681,-0.18391 0.13222,0.65346 -1.67443,3.27091 -4.32694,6.26886 -0.56792,0.64188 -1.03592,1.26477 -1.04,1.38419 -0.004,0.11943 -0.18743,0.40743 -0.40743,0.64 -0.22,0.23258 -1.0397,1.28686 -1.82155,2.34286 -0.78186,1.056 -2.33047,3.072 -3.44136,4.48 -2.31399,2.93285 -2.04972,2.58908 -3.99864,5.2016 -3.11337,4.17345 -5.81448,7.43822 -6.1501,7.4335 -0.19159,-0.003 -0.49795,-0.11069 -0.6808,-0.24 z m -65.267542,-9.57171 c -0.352,-0.0712 -0.964,-0.62557 -1.36,-1.23193 l -0.72,-1.10248 V 114.59833 80.067683 L 39.008385,79.073843 39.936772,78.08 H 79.459938 118.9831 l 0.82845,0.984554 0.82844,0.98455 v 26.504146 26.50414 l -0.88,0.31857 c -0.484,0.17522 -1.132,0.42072 -1.44,0.54555 -0.50414,0.20433 -0.56,-0.0158 -0.56,-2.20727 V 129.28 h -1.12 c -1.11407,0 -1.12,-0.008 -1.12,-1.44 0,-1.43238 0.006,-1.44 1.12,-1.44 h 1.12 v -4.48 -4.48 h -1.12 c -1.11407,0 -1.12,-0.008 -1.12,-1.44 0,-1.43238 0.006,-1.44 1.12,-1.44 h 1.12 v -4.8 -4.8 h -1.77125 c -1.05641,0 -2.07497,-0.199 -2.52379,-0.49308 -0.63005,-0.41282 -1.787,-0.47449 -7.10874,-0.37894 -4.49543,0.0807 -6.707515,0.24798 -7.556216,0.57137 l -1.2,0.45725 v 14.94495 14.94495 l -1.2,-0.41446 -1.2,-0.41445 -0.09346,-2.4488 -0.09346,-2.44879 h -9.906537 -9.906541 v 4.32 4.32 h 4.588893 4.588893 l 0.854227,1.2 0.854227,1.2 -5.44312,0.0876 -5.44312,0.0876 v 4.15245 4.15244 h 8.778211 8.778208 l 0.73023,1.04 c 0.401629,0.572 0.843434,1.088 0.981792,1.14667 1.387766,0.58844 -2.725894,0.68852 -26.70844,0.64975 -14.827999,-0.024 -27.247998,-0.10183 -27.599998,-0.17303 z M 50.239997,144.64 v -4.16 h -4.64 -4.639999 v 4.16 4.16 h 4.639999 4.64 z m 22.079999,0 v -4.16 h -9.6 -9.599999 v 4.16 4.16 h 9.599999 9.6 z M 50.239997,133.6 v -4.32 h -4.64 -4.639999 v 4.32 4.32 h 4.639999 4.64 z m 22.079999,0 v -4.32 h -9.6 -9.599999 v 4.32 4.32 h 9.599999 9.6 z M 50.239997,121.92 v -4.48 h -4.64 -4.639999 v 4.48 4.48 h 4.639999 4.64 z m 22.079999,0 v -4.48 h -9.6 -9.599999 v 4.48 4.48 h 9.599999 9.6 z m 22.719998,0 v -4.48 h -9.919999 -9.92 v 4.48 4.48 h 9.92 9.919999 z M 50.239997,109.76 v -4.8 h -4.64 -4.639999 v 4.8 4.8 h 4.639999 4.64 z m 22.079999,0 v -4.8 h -9.6 -9.599999 v 4.8 4.8 h 9.599999 9.6 z m 22.719998,0 v -4.8 h -9.919999 -9.92 v 4.8 4.8 h 9.92 9.919999 z M 50.239997,97.44 V 92.8 h -4.64 -4.639999 v 4.64 4.64 h 4.639999 4.64 z m 22.079999,0 V 92.8 h -9.6 -9.599999 v 4.64 4.64 h 9.599999 9.6 z m 22.719998,0 V 92.8 h -9.919999 -9.92 v 4.64 4.64 h 9.92 9.919999 z m 22.719996,0 V 92.8 h -10.08 -10.079996 v 4.64 4.64 h 10.079996 10.08 z M 72.319996,85.28 v -4.64 h -9.6 -9.599999 v 4.64 4.64 h 9.599999 9.6 z m 22.719998,0 v -4.64 h -9.919999 -9.92 v 4.64 4.64 h 9.92 9.919999 z m 22.719996,0 v -4.64 h -10.08 -10.079996 v 4.64 4.64 h 10.079996 10.08 z"
         id="path1541" />
      <path
         style="fill:#006168;stroke-width:0.32"
         d="M 41.919997,168.30172 C 19.655999,155.44569 1.1159999,144.7152 0.71999996,144.45619 L 0,143.98524 V 96.036198 48.087152 L 41.096196,24.363576 C 63.699103,11.315609 82.461915,0.64 82.791336,0.64 c 0.507504,0 81.417634,46.474646 82.568654,47.427299 0.31676,0.262173 0.39898,10.22832 0.3951,47.891882 -0.003,26.158449 -0.11213,47.729389 -0.24318,47.935419 -0.30047,0.47234 -82.220897,47.78606 -82.733934,47.78356 -0.207891,-0.001 -18.59398,-10.52042 -40.857979,-23.37644 z m 80.663483,-3.26468 39.49651,-22.80295 0.0811,-46.090794 0.0811,-46.09079 L 122.52518,27.117763 82.808213,4.1830205 44.364106,26.36621 C 23.219848,38.566963 5.3087213,48.893786 4.5616032,49.314701 L 3.2032072,50.08 l 0.078396,46.026358 0.078397,46.026362 39.5199968,22.83902 c 21.735999,12.56146 39.674568,22.8456 39.863486,22.85364 0.188918,0.008 18.116917,-10.24671 39.839997,-22.78834 z M 104.97947,160.56 c -0.33897,-0.396 -1.70055,-2.16 -3.02573,-3.92 -1.32519,-1.76 -2.708447,-3.56 -3.073906,-4 -0.365462,-0.44 -1.905085,-2.456 -3.421389,-4.48 -1.5163,-2.024 -2.951062,-3.896 -3.188351,-4.16 -0.71208,-0.79222 -3.099987,-3.87276 -4.588941,-5.92 -0.768029,-1.056 -1.478483,-1.992 -1.578787,-2.08 -0.433094,-0.37997 -1.622371,-2.2426 -1.622371,-2.54095 0,-0.17977 0.349606,-0.4146 0.776905,-0.52185 0.809645,-0.20321 1.603101,-0.0366 3.223095,0.67669 0.528,0.23249 2.544,1.02751 4.479999,1.76672 1.936,0.7392 4.124099,1.61297 4.862445,1.9417 0.738342,0.32873 1.420998,0.59769 1.517011,0.59769 0.09601,0 0.211914,-7.164 0.257555,-15.92 l 0.08299,-15.92 h 6.239995 6.24 l 0.083,15.92 c 0.058,11.12506 0.18697,15.92 0.42824,15.92 0.18989,0 1.27859,-0.432 2.41934,-0.96 1.14075,-0.528 2.14748,-0.96 2.23718,-0.96 0.22334,0 4.10978,-1.53895 5.86211,-2.32128 2.00555,-0.89538 3.78501,-1.10079 4.02896,-0.46508 0.10475,0.27299 0.0123,0.8316 -0.20542,1.24136 -0.36088,0.67913 -2.55897,3.57666 -3.59958,4.745 -0.23514,0.264 -1.66158,2.136 -3.16986,4.16 -1.50828,2.024 -3.0082,3.96816 -3.33314,4.32035 -0.32495,0.3522 -1.85899,2.34009 -3.40897,4.41755 -1.54999,2.07746 -3.06199,4.06942 -3.36,4.4266 -0.29802,0.35716 -0.79385,0.9473 -1.10185,1.31141 -0.308,0.36411 -0.56068,0.74798 -0.56153,0.85305 -0.003,0.35191 -2.20153,2.59104 -2.54427,2.59104 -0.18614,0 -0.61576,-0.324 -0.95472,-0.72 z m -64.529863,-9.10779 c -0.752915,-0.0953 -1.155744,-0.41957 -1.68,-1.35235 l -0.689609,-1.227 v -34.13232 c 0,-36.715548 -0.05491,-35.454863 1.582275,-36.331055 C 40.074919,78.188643 53.214134,78.08 79.509742,78.08 h 39.231818 l 0.94922,0.971034 0.94921,0.971033 -0.003,26.468963 -0.003,26.46897 -1.27674,0.53624 -1.27675,0.53623 V 131.65624 129.28 h -1.28 c -1.27673,0 -1.28,-0.003 -1.28,-1.26068 0,-1.2258 0.0332,-1.26344 1.2,-1.36 l 1.2,-0.0993 0.0888,-4.56 0.0888,-4.56 h -1.28878 c -1.28694,0 -1.28877,-0.002 -1.28877,-1.26068 0,-1.2258 0.0332,-1.26344 1.2,-1.36 l 1.2,-0.0993 0.0883,-4.88 0.0883,-4.88 -1.84833,-0.0113 c -1.01659,-0.006 -2.20834,-0.21714 -2.64834,-0.46867 -1.18513,-0.67748 -12.8969,-0.67586 -14.196575,0.002 -0.504119,0.26292 -1.116119,0.47803 -1.36,0.47803 -0.371536,0 -0.443421,2.4122 -0.443421,14.88 0,16.16097 0.106413,15.26961 -1.739168,14.56792 -0.780736,-0.29684 -0.820832,-0.4297 -0.820832,-2.72 V 129.28 h -9.919999 -9.92 v 4.32 4.32 l 4.56,0.0117 4.56,0.0117 0.902633,1.18833 0.902634,1.18834 -5.462633,0.0876 -5.462634,0.0875 v 4.15245 4.15244 h 8.745754 8.745753 l 1.034131,1.44 1.034128,1.44 -26.65988,-0.0512 c -14.662937,-0.0282 -27.10556,-0.10763 -27.650274,-0.17657 z m 9.79039,-6.81221 v -4.16 h -4.8 -4.799999 v 3.94667 c 0,2.17066 0.096,4.04266 0.213334,4.16 0.117331,0.11733 2.277331,0.21333 4.8,0.21333 h 4.586665 z m 22.079999,0 v -4.16 h -9.76 -9.759999 v 4.16 4.16 h 9.759999 9.76 z M 50.239997,133.6 v -4.32 h -4.8 -4.799999 v 4.32 4.32 h 4.799999 4.8 z m 22.079999,0 v -4.32 h -9.76 -9.759999 v 4.32 4.32 h 9.759999 9.76 z M 50.239997,122.08 v -4.64 h -4.8 -4.799999 v 4.42667 c 0,2.43466 0.096,4.52266 0.213334,4.64 0.117331,0.11733 2.277331,0.21333 4.8,0.21333 h 4.586665 z m 22.079999,0 v -4.64 h -9.76 -9.759999 v 4.42667 c 0,2.43466 0.096,4.52266 0.213334,4.64 0.117331,0.11733 4.509331,0.21333 9.76,0.21333 h 9.546665 z m 22.719998,0 v -4.64 h -9.919999 -9.92 v 4.64 4.64 h 9.92 9.919999 z M 50.239997,109.92 v -4.96 h -4.8 -4.799999 v 4.74667 c 0,2.61066 0.096,4.84266 0.213334,4.96 0.117331,0.11733 2.277331,0.21333 4.8,0.21333 h 4.586665 z m 22.079999,0 v -4.96 h -9.76 -9.759999 v 4.74667 c 0,2.61066 0.096,4.84266 0.213334,4.96 0.117331,0.11733 4.509331,0.21333 9.76,0.21333 h 9.546665 z m 22.719998,0 v -4.96 h -9.919999 -9.92 v 4.96 4.96 h 9.92 9.919999 z M 50.239997,97.431446 V 92.46289 l -4.72,0.08856 -4.719999,0.08855 -0.08945,4.464589 c -0.0492,2.455526 -0.01773,4.651531 0.06996,4.880001 0.12056,0.31417 1.292618,0.41541 4.809453,0.41541 h 4.650041 z m 22.079999,0.0039 v -4.964694 l -9.68,0.08469 -9.679999,0.08469 -0.08945,4.464588 c -0.0492,2.455527 -0.01773,4.65152 0.06996,4.88 0.125783,0.32779 2.18649,0.41541 9.769453,0.41541 l 9.610041,-1e-5 v -4.964689 z m 22.719998,0.0047 v -4.96 h -9.919999 -9.92 v 4.96 4.959994 h 9.92 9.919999 z m 22.879996,0 v -4.8 l -10.16,-0.0845 -10.159996,-0.08449 v 4.968988 4.968986 l 10.159996,-0.0845 10.16,-0.0845 z m -45.599994,-12.16 v -4.64 h -9.76 -9.759999 v 4.64 4.64 h 9.759999 9.76 z m 22.719998,0 v -4.64 h -9.919999 -9.92 v 4.64 4.64 h 9.92 9.919999 z m 22.968786,0.08 -0.0888,-4.560022 -10.16,-0.0845 -10.159996,-0.08449 V 85.275504 89.92 h 10.248786 10.24878 l -0.0888,-4.56 z"
         id="path1539" />
      <path
         style="fill:#000000;stroke-width:0.32"
         d="M 41.919997,168.30172 C 19.655999,155.44569 1.1159999,144.7152 0.71999996,144.45619 L 0,143.98524 V 96.036198 48.087152 L 41.096196,24.363576 C 63.699103,11.315609 82.461915,0.64 82.791336,0.64 c 0.507504,0 81.417634,46.474646 82.568654,47.427299 0.31676,0.262173 0.39898,10.22832 0.3951,47.891882 -0.003,26.158449 -0.11213,47.729389 -0.24318,47.935419 -0.30047,0.47234 -82.220897,47.78606 -82.733934,47.78356 -0.207891,-0.001 -18.59398,-10.52042 -40.857979,-23.37644 z m 81.759993,-3.76288 38.72,-22.37349 0.0748,-46.042675 0.0748,-46.042675 -39.877,-23.010611 C 91.477095,9.0683664 82.68284,4.1270822 82.277781,4.3725213 81.992997,4.54508 64.083996,14.886606 42.479997,27.353691 l -39.2799972,22.667426 0.00696,46.109443 0.00696,46.10944 4.0730363,2.31567 c 2.2401701,1.27363 20.1290349,11.58834 39.7530339,22.92159 l 35.679998,20.6059 1.12,-0.58541 c 0.616,-0.32198 18.543992,-10.65349 39.839992,-22.95891 z m -18.66256,-4.14521 c -0.48587,-0.4805 -1.95756,-2.31147 -3.27042,-4.06883 -2.956414,-3.95739 -2.768574,-3.70995 -3.432949,-4.52214 -0.304736,-0.37254 -0.914067,-1.1481 -1.354067,-1.72346 -0.44,-0.57536 -1.88,-2.45508 -3.2,-4.17714 -1.32,-1.72206 -2.67902,-3.51163 -3.020044,-3.97681 -0.341024,-0.46518 -0.845024,-1.11254 -1.12,-1.43857 -0.968778,-1.14865 -1.477792,-1.80327 -3.322582,-4.27298 -1.570378,-2.10235 -1.798647,-2.57069 -1.454845,-2.98494 0.508621,-0.61285 1.850662,-0.42853 3.996144,0.54886 0.858729,0.3912 2.497327,1.05797 3.641327,1.48171 1.144,0.42375 2.584,0.98949 3.2,1.2572 0.616,0.26771 1.408,0.61196 1.76,0.765 0.352,0.15304 0.964,0.369 1.36,0.47992 l 0.72,0.20168 0.0049,-15.62157 c 0.0026,-8.59186 0.121216,-15.80483 0.263379,-16.02883 0.197655,-0.31143 1.683667,-0.38673 6.315097,-0.32 l 6.05662,0.0873 0.083,15.92 c 0.0585,11.2214 0.18589,15.92 0.43164,15.92 0.19176,0 0.80241,-0.20934 1.35701,-0.4652 0.5546,-0.25587 2.73636,-1.12809 4.84836,-1.93828 2.112,-0.81018 4.31536,-1.69109 4.89635,-1.95756 1.73271,-0.79472 3.13522,-0.91521 3.37515,-0.28996 0.21214,0.55283 -0.1174,1.39882 -0.83595,2.14605 -0.22476,0.23372 -1.7017,2.15216 -3.2821,4.2632 -1.58039,2.11103 -3.01745,3.99623 -3.19345,4.18932 -0.176,0.1931 -0.68,0.82869 -1.12,1.41243 -0.44,0.58374 -0.94712,1.21855 -1.12693,1.41068 -0.17981,0.19212 -1.6151,2.07732 -3.18952,4.18932 -1.57443,2.112 -3.26264,4.272 -3.75159,4.8 -0.48895,0.528 -0.88966,1.05772 -0.89048,1.17714 -9.6e-4,0.11943 -0.18148,0.40743 -0.40148,0.64 -0.22,0.23258 -0.904,1.10083 -1.52,1.92946 -0.616,0.82863 -1.30431,1.58176 -1.52957,1.67363 -0.22527,0.0919 -0.80711,-0.2261 -1.29299,-0.7066 z m -66.068437,-9.963 c -0.509725,-0.8629 -0.548487,-3.42081 -0.541879,-35.76 0.0069,-33.853411 0.02435,-34.853075 0.621687,-35.63063 l 0.614573,-0.8 39.187639,-0.08374 c 23.564197,-0.05035 39.499247,0.03473 39.969237,0.213424 0.42988,0.163437 1.01968,0.798883 1.31067,1.412099 0.47867,1.008714 0.52907,3.602714 0.52907,27.226577 0,20.67493 -0.0833,26.11205 -0.4,26.11361 -0.22,9.6e-4 -0.796,0.20855 -1.28,0.46103 l -0.88,0.45904 V 131.66102 129.28 h -1.28 -1.28 V 128 126.72 h 1.28 1.28 v -4.64 -4.64 h -1.28 -1.28 v -1.28 -1.28 h 1.28 1.28 v -4.96 -4.96 l -1.84,-0.0102 c -1.10799,-0.006 -2.08711,-0.19708 -2.46116,-0.48 -0.91114,-0.68915 -13.52653,-0.68915 -14.437674,0 -0.341639,0.2584 -0.852647,0.4744 -1.135575,0.48 -0.790854,0.0156 -0.925587,2.46945 -0.925587,16.85712 0,7.10218 -0.05051,12.91306 -0.112249,12.91306 -0.06173,0 -0.565735,-0.15809 -1.12,-0.35131 l -1.007751,-0.3513 v -2.3687 -2.36869 h -9.919999 -9.92 v 4.32 4.32 h 4.456704 4.456701 l 0.989603,1.2 0.989606,1.2 -5.446307,0.0876 -5.446307,0.0876 v 4.15245 4.15244 h 8.668707 c 8.593712,0 8.674041,0.006 9.285395,0.72 0.339181,0.396 0.763328,0.972 0.942553,1.28 0.309287,0.53151 -1.071059,0.56 -27.136401,0.56 H 39.497988 Z M 50.239997,144.64 v -4.16 h -4.8 -4.799999 v 4.16 4.16 h 4.799999 4.8 z m 22.399999,0 v -4.16 h -9.92 -9.919999 v 4.16 4.16 h 9.919999 9.92 z M 50.239997,133.6 v -4.32 h -4.8 -4.799999 v 4.32 4.32 h 4.799999 4.8 z m 22.399999,0 v -4.32 h -9.92 -9.919999 v 4.32 4.32 h 9.919999 9.92 z M 50.239997,122.08 v -4.64 h -4.8 -4.799999 v 4.64 4.64 h 4.799999 4.8 z m 22.399999,0 v -4.64 h -9.92 -9.919999 v 4.64 4.64 h 9.919999 9.92 z m 22.399998,0 v -4.64 h -9.919999 -9.92 v 4.64 4.64 h 9.92 9.919999 z M 50.239997,109.92 v -4.96 h -4.8 -4.799999 v 4.96 4.96 h 4.799999 4.8 z m 22.399999,0 v -4.96 h -9.92 -9.919999 v 4.96 4.96 h 9.919999 9.92 z m 22.399998,0 v -4.96 h -9.919999 -9.92 v 4.96 4.96 h 9.92 9.919999 z M 50.239997,97.44 v -4.96 h -4.8 -4.799999 v 4.96 4.96 h 4.799999 4.8 z m 22.399999,0 v -4.96 h -9.92 -9.919999 v 4.96 4.96 h 9.919999 9.92 z m 22.399998,0 v -4.96 h -9.919999 -9.92 v 4.96 4.96 h 9.92 9.919999 z m 23.039996,0 v -4.96 h -10.24 -10.239996 v 4.96 4.96 h 10.239996 10.24 z M 72.639996,85.28 v -4.64 h -9.92 -9.919999 v 4.64 4.64 h 9.919999 9.92 z m 22.399998,0 v -4.64 h -9.919999 -9.92 v 4.64 4.64 h 9.92 9.919999 z m 22.968786,0.08 -0.0888,-4.56 -10.16,-0.0845 -10.159996,-0.08449 V 85.275504 89.92 h 10.248786 10.24878 z"
         id="path1537" />
    </g>
  </g>
</svg>
