<?xml version="1.0" encoding="utf-8"?>
<!-- Generator: Adobe Illustrator 24.3.0, SVG Export Plug-In . SVG Version: 6.00 Build 0)  -->
<svg version="1.1" id="Layer_1" xmlns="http://www.w3.org/2000/svg" xmlns:xlink="http://www.w3.org/1999/xlink" x="0px" y="0px"
	 viewBox="0 0 1405 841.89" style="enable-background:new 0 0 1405 841.89;" xml:space="preserve">
<style type="text/css">
	.st0{fill:#FEFEFE;}
	.st1{fill:#1B4986;}
	.st2{fill:#1C4A87;}
	.st3{fill:#1A4986;}
	.st4{fill:#1B4A86;}
	.st5{fill:#1D4A87;}
	.st6{fill:#1C4A86;}
	.st7{fill:#274E89;}
	.st8{fill:#FBFBFC;}
	.st9{fill:#F8F8FB;}
	.st10{fill:#F9F8FB;}
	.st11{fill:#F9F9FB;}
	.st12{fill:#FAFAFC;}
</style>
<g id="royACr.tif">
	<g>
		<path class="st0" d="M567.26,449.98c-1.12,0-2.24,0-3.36,0c0-19.36,0-38.71,0-58.08c92.4,0,184.8,0,277.2,0c0,6.45,0,12.9,0,19.35
			c-4.17-1.39-8.26-1.52-12.23,0.71c-0.13-0.91-0.63-1.64-1.83-1.64c-1.88,0-3.76-0.02-5.63,0.02c-0.28,0.01-0.56,0.27-1.14,0.56
			c1.11,0.32,2.05,0.33,1.28,1.57c-3.45,5.63-6.84,11.3-10.24,16.96c-0.27,0.44-0.52,0.9-0.7,1.38c-0.4,1.03-0.15,1.42,0.95,1.43
			c2.24,0.02,4.48,0.01,6.71,0c0.25,0,0.52-0.12,0.76-0.22c0.06-0.03,0.06-0.21,0.1-0.38c-0.28-0.15-0.54-0.29-0.86-0.45
			c2.95-5.02,5.89-10.03,8.85-15.03c0.63-1.07,1.61-1.65,2.89-1.56c1.34,0.09,1.73,0.81,1.06,1.98c-1.16,2.04-2.34,4.07-3.51,6.1
			c-1.47,2.55-2.97,5.09-4.39,7.66c-0.76,1.38-0.42,1.91,1.12,1.91c2,0.01,4,0.01,5.99-0.01c0.37,0,0.75-0.15,1.45-0.3
			c-0.64-0.4-0.94-0.58-1.29-0.8c0.22-0.4,0.41-0.74,0.61-1.08c3.08-5.12,6.16-10.23,9.24-15.34c0.23-0.38,0.53-0.72,0.8-1.08
			c0,12.11,0,24.22,0,36.34c-90.56,0-181.12,0-271.69,0c1.26-0.54,2.03-1.55,2.72-2.7c2.82-4.72,5.71-9.39,8.53-14.1
			c0.4-0.66,0.8-0.92,1.59-0.91c4.95,0.04,9.91,0.02,14.87,0.02c2.26,0,4.03-0.9,5.19-2.84c1.18-1.97,0.8-3.87-0.36-5.73
			c-2.21-3.55-4.55-7.03-6.54-10.7c-1.99-3.68-8.51-3.91-10.71,0.06c-2.23,4.04-4.72,7.93-7.12,11.88c-0.2,0.33-0.58,0.77-0.9,0.79
			c-1.46,0.08-2.92,0.04-4.59,0.04c0.27-0.5,0.44-0.84,0.64-1.16c5.54-9.11,11.09-18.22,16.63-27.34c1.19-1.96,0.7-3.88-1.22-4.82
			c-1.87-0.91-3.89-0.24-5.1,1.76c-6.09,10.04-12.16,20.09-18.26,30.12c-1.1,1.81-0.92,3.6,0.17,5.28c1.23,1.9,3.17,2.57,5.36,2.61
			c0.85,0.02,1.7,0,2.7,0c-0.37,0.63-0.62,1.08-0.89,1.51c-2.25,3.71-4.51,7.41-6.74,11.14c-0.29,0.49-0.51,1.09-0.58,1.65
			C564.63,448.38,565.86,449.26,567.26,449.98z M731.31,432.1c-0.57-0.51-0.85-0.75-1.19-1.05c2.54-4.12,5.07-8.17,7.55-12.24
			c1.04-1.7,2.1-3.39,2.97-5.17c0.87-1.76,0.24-2.89-1.69-3.13c-1.5-0.19-3.03-0.1-4.54-0.18c-2.13-0.11-4.1,0.27-5.49,1.63
			c-0.68-0.51-1.22-1.26-1.83-1.31c-3.72-0.35-7.54-1.19-10.89,1.5c-0.15-1.07-0.68-1.77-1.77-1.8c-1.96-0.04-3.92-0.03-5.87,0
			c-0.27,0.01-0.54,0.29-1,0.55c1.74,0.52,1.75,0.61,0.95,1.93c-3.51,5.83-7.01,11.67-10.49,17.51c-0.76,1.28-0.42,1.89,1.03,1.91
			c2.12,0.03,4.24,0.01,6.35,0c0.31,0,0.62-0.12,1.19-0.24c-0.49-0.4-0.74-0.6-1.05-0.86c3-5.07,5.93-10.13,9-15.1
			c0.43-0.7,1.5-1.15,2.36-1.38c0.52-0.14,1.35,0.22,1.76,0.64c0.21,0.21-0.06,1.1-0.33,1.56c-2.6,4.47-5.24,8.92-7.86,13.38
			c-0.82,1.4-0.48,2,1.1,2.01c2.04,0.02,4.08,0.01,6.11,0c0.34,0,0.69-0.12,1.29-0.23c-0.54-0.37-0.82-0.57-1.17-0.81
			c0.65-1.09,1.27-2.15,1.9-3.2c2.29-3.87,4.57-7.75,6.87-11.61c0.85-1.43,2.04-2.03,3.35-1.79c1.19,0.22,1.52,0.9,0.94,1.94
			c-0.37,0.66-0.76,1.31-1.15,1.96c-2.3,3.91-4.61,7.81-6.89,11.74c-0.86,1.49-0.53,2.01,1.18,2.02c1.96,0.01,3.92,0.01,5.87,0
			C730.26,432.25,730.63,432.18,731.31,432.1z M652.99,410.15c-1.63,0.13-3.24,0.11-4.79,0.42c-3.64,0.73-7,2.16-9.1,5.39
			c-2.21,3.4-4.19,6.94-6.24,10.44c-0.31,0.54-0.57,1.16-0.64,1.77c-0.23,1.97,1.05,3.49,3.54,3.85c3.32,0.48,6.69,0.59,9.98-0.21
			c4.02-0.98,7.31-2.95,9.34-6.79c1.54-2.91,3.35-5.68,5.04-8.52c1.74-2.93,0.81-5.25-2.53-5.94
			C656.09,410.26,654.51,410.28,652.99,410.15z M796.67,432.47c1.81-0.21,3.75-0.25,5.58-0.7c3.97-0.97,7.22-2.98,9.22-6.77
			c1.58-2.98,3.44-5.81,5.14-8.74c0.35-0.6,0.65-1.3,0.73-1.98c0.21-1.89-1.23-3.39-3.71-3.71c-3.29-0.43-6.63-0.52-9.88,0.27
			c-4.06,0.98-7.39,2.98-9.42,6.87c-1.52,2.92-3.37,5.67-5.03,8.52c-1.56,2.68-0.74,4.87,2.29,5.64
			C793.18,432.29,794.88,432.27,796.67,432.47z M695.28,414.55c-0.76,2.46-1.19,2.77-3.5,2.8c-2.07,0.02-4.15,0.07-6.22,0.17
			c-2.32,0.11-4.46,0.86-5.92,2.7c-1.53,1.92-2.89,3.99-4.15,6.1c-1.48,2.46-0.59,4.7,2.18,5.49c2.83,0.8,5.65,0.79,8.24-1.01
			c0.12,1.13,0.88,1.45,1.78,1.47c2.08,0.04,4.15,0.02,6.23,0c0.22,0,0.45-0.17,0.75-0.3c-0.39-0.35-0.67-0.6-0.96-0.87
			c0.27-0.48,0.5-0.89,0.75-1.3c3.05-5.13,6.13-10.24,9.15-15.39c1.55-2.65,0.69-4.12-2.36-4.13c-3.88-0.02-7.75-0.01-11.63,0
			c-0.34,0-0.86-0.01-1,0.19c-0.86,1.23-1.64,2.53-2.63,4.09C689.37,414.55,692.31,414.55,695.28,414.55z M753.83,431.17
			c0.23-0.41,0.42-0.75,0.62-1.09c3.05-5.13,6.12-10.24,9.15-15.38c1.76-2.98,0.94-4.39-2.48-4.4c-3.71,0-7.43,0-11.14,0.01
			c-0.39,0-0.98-0.05-1.13,0.17c-0.88,1.22-1.65,2.51-2.45,3.78c0.1,0.1,0.2,0.21,0.3,0.31c2.93,0,5.85,0,8.82,0
			c-0.82,2.48-1.33,2.85-3.65,2.87c-1.96,0.01-3.91,0.02-5.87,0.08c-2.88,0.08-5.29,1.23-6.99,3.56c-1.24,1.7-2.35,3.5-3.39,5.33
			c-1.39,2.45-0.52,4.64,2.18,5.4c2.87,0.81,5.72,0.85,7.99-0.83c0.6,0.48,1.09,1.19,1.61,1.21c2.38,0.09,4.77,0,7.16-0.04
			c0.04,0,0.07-0.12,0.15-0.27C754.45,431.66,754.19,431.45,753.83,431.17z M620.82,427.46c0.3-0.58,0.45-0.93,0.65-1.26
			c3.28-5.54,6.57-11.08,9.86-16.61c0.67-1.13,1.37-2.24,2-3.39c0.31-0.56,0.5-1.2-0.55-1.2c-2.95,0-5.91-0.01-8.86,0.02
			c-0.25,0-0.5,0.23-0.96,0.46c1.82,0.54,1.82,0.54,0.98,2.03c-0.08,0.14-0.16,0.28-0.24,0.41c-4.17,7.27-8.34,14.55-12.51,21.82
			c-1.15,2.01-0.87,2.52,1.41,2.52c3.55,0,7.11,0.03,10.66-0.01c5.17-0.06,4.32,0.86,7.07-4.25c0.09-0.17,0.21-0.35,0.24-0.54
			c0.04-0.27,0.01-0.55,0.01-0.79C627.33,428.02,624.14,427.05,620.82,427.46z M767.4,414.66c-0.26,0.46-0.48,0.88-0.72,1.29
			c-2.77,4.69-5.55,9.38-8.31,14.08c-0.95,1.62-0.63,2.16,1.2,2.17c2.84,0.01,5.67,0.03,8.51,0c5.22-0.06,4.2,0.8,6.99-4.2
			c0.1-0.17,0.23-0.35,0.25-0.54c0.02-0.27-0.04-0.54-0.05-0.59c-1.17,0.17-2.15,0.38-3.14,0.45c-3.6,0.26-3.65-0.42-2.04-3.51
			c1.54-2.96,3.35-5.78,5.09-8.63c0.2-0.32,0.73-0.61,1.11-0.63c1.63-0.07,3.27-0.01,4.91-0.04c0.37-0.01,0.9-0.07,1.07-0.31
			c0.82-1.2,1.53-2.46,2.4-3.9c-2.35,0-4.47,0-6.72,0c0.77-1.36,1.46-2.56,2.28-4c-1.31,0-2.26-0.06-3.2,0.03
			c-0.36,0.03-0.84,0.32-1.01,0.63c-1.41,2.51-3.59,3.46-6.38,3.39c-0.39-0.01-0.95,0.26-1.17,0.58c-0.74,1.07-1.36,2.23-2.07,3.43
			C766.78,414.46,767.06,414.55,767.4,414.66z M681.87,410.34c-4.11,0-7.91-0.04-11.7,0.02c-1.66,0.02-3.44,0.22-4.4,1.74
			c-3.21,5.11-6.38,10.26-9.37,15.5c-1.07,1.87-0.11,3.5,1.94,4.19c0.41,0.14,0.85,0.26,1.28,0.28c2.11,0.09,4.22,0.2,6.34,0.18
			c5.24-0.05,4.33,0.86,7.14-4.34c0.04-0.07,0.1-0.14,0.11-0.21c0.03-0.3,0.03-0.59,0.05-0.89c-0.28,0.05-0.57,0.08-0.84,0.16
			c-0.37,0.11-0.73,0.38-1.1,0.39c-1.56,0.04-3.12,0.06-4.67-0.01c-1.23-0.05-1.58-0.67-0.96-1.74c1.79-3.1,3.63-6.17,5.47-9.24
			c0.77-1.28,2.03-1.74,3.45-1.79c1.08-0.04,2.17,0.08,3.23-0.05c0.62-0.07,1.38-0.34,1.76-0.79
			C680.42,412.76,681.05,411.61,681.87,410.34z M785.8,410.71c1.79,0.75,1.83,0.86,0.99,2.25c-3.27,5.45-6.55,10.9-9.82,16.35
			c-0.29,0.48-0.59,0.95-0.79,1.47c-0.41,1.04-0.1,1.5,1.04,1.51c2.15,0.03,4.31,0.01,6.47,0c0.23,0,0.47-0.05,0.69-0.12
			c0.07-0.02,0.1-0.19,0.18-0.36c-0.28-0.17-0.55-0.34-0.85-0.53c0.49-0.82,0.93-1.57,1.37-2.32c3.26-5.46,6.53-10.92,9.78-16.38
			c0.91-1.53,0.51-2.22-1.25-2.24c-2.16-0.02-4.31-0.02-6.47,0.01C786.79,410.35,786.44,410.53,785.8,410.71z M798.83,403.47
			c-1.65,0-3.33,0.15-4.97-0.04c-1.95-0.22-3.2,0.48-3.95,2.23c-0.02,0.04-0.04,0.07-0.07,0.1c-0.5,0.77-0.34,1.18,0.63,1.17
			c1.8-0.01,3.6,0,5.39,0C797.46,406.92,798.89,405.33,798.83,403.47z"/>
		<path class="st1" d="M567.26,449.98c-1.4-0.73-2.63-1.6-2.42-3.42c0.07-0.57,0.28-1.16,0.58-1.65c2.22-3.72,4.49-7.43,6.74-11.14
			c0.26-0.44,0.52-0.88,0.89-1.51c-1,0-1.85,0.02-2.7,0c-2.19-0.05-4.12-0.71-5.36-2.61c-1.09-1.68-1.27-3.46-0.17-5.28
			c6.09-10.04,12.17-20.08,18.26-30.12c1.21-2,3.23-2.68,5.1-1.76c1.92,0.94,2.41,2.86,1.22,4.82
			c-5.54,9.11-11.09,18.22-16.63,27.34c-0.2,0.32-0.36,0.66-0.64,1.16c1.66,0,3.13,0.05,4.59-0.04c0.32-0.02,0.7-0.46,0.9-0.79
			c2.4-3.94,4.88-7.84,7.12-11.88c2.2-3.97,8.71-3.74,10.71-0.06c1.98,3.67,4.32,7.15,6.54,10.7c1.16,1.86,1.54,3.76,0.36,5.73
			c-1.16,1.94-2.94,2.84-5.19,2.84c-4.96,0-9.91,0.02-14.87-0.02c-0.79-0.01-1.2,0.25-1.59,0.91c-2.82,4.71-5.71,9.38-8.53,14.1
			c-0.69,1.16-1.45,2.16-2.72,2.7C568.7,449.98,567.98,449.98,567.26,449.98z M595.19,425.66c-1.74-2.9-3.38-5.62-5.09-8.47
			c-1.79,2.86-3.49,5.6-5.29,8.47C588.35,425.66,591.64,425.66,595.19,425.66z"/>
		<path class="st2" d="M841.1,413.65c-0.27,0.36-0.57,0.7-0.8,1.08c-3.09,5.11-6.17,10.23-9.24,15.34c-0.2,0.34-0.39,0.69-0.61,1.08
			c0.34,0.21,0.65,0.4,1.29,0.8c-0.7,0.15-1.08,0.3-1.45,0.3c-2,0.02-4,0.02-5.99,0.01c-1.53,0-1.88-0.53-1.12-1.91
			c1.42-2.58,2.92-5.11,4.39-7.66c1.17-2.03,2.35-4.06,3.51-6.1c0.66-1.16,0.28-1.89-1.06-1.98c-1.28-0.09-2.26,0.49-2.89,1.56
			c-2.96,5-5.89,10.01-8.85,15.03c0.32,0.17,0.58,0.31,0.86,0.45c-0.04,0.17-0.04,0.35-0.1,0.38c-0.24,0.1-0.5,0.22-0.76,0.22
			c-2.24,0.02-4.48,0.03-6.71,0c-1.1-0.01-1.35-0.4-0.95-1.43c0.18-0.48,0.44-0.94,0.7-1.38c3.4-5.66,6.79-11.33,10.24-16.96
			c0.77-1.25-0.17-1.25-1.28-1.57c0.57-0.29,0.85-0.55,1.14-0.56c1.88-0.04,3.76-0.02,5.63-0.02c1.19,0,1.69,0.72,1.83,1.64
			c3.98-2.24,8.06-2.1,12.23-0.71C841.1,412.05,841.1,412.85,841.1,413.65z"/>
		<path class="st2" d="M731.31,432.1c-0.68,0.07-1.05,0.15-1.42,0.15c-1.96,0.01-3.92,0.01-5.87,0c-1.71-0.01-2.04-0.53-1.18-2.02
			c2.27-3.92,4.59-7.83,6.89-11.74c0.38-0.65,0.77-1.3,1.15-1.96c0.59-1.04,0.26-1.72-0.94-1.94c-1.32-0.24-2.5,0.36-3.35,1.79
			c-2.3,3.86-4.58,7.74-6.87,11.61c-0.62,1.06-1.25,2.11-1.9,3.2c0.34,0.24,0.63,0.43,1.17,0.81c-0.6,0.11-0.94,0.23-1.29,0.23
			c-2.04,0.02-4.08,0.02-6.11,0c-1.58-0.01-1.92-0.61-1.1-2.01c2.61-4.47,5.26-8.91,7.86-13.38c0.27-0.46,0.54-1.35,0.33-1.56
			c-0.41-0.41-1.24-0.78-1.76-0.64c-0.86,0.23-1.93,0.68-2.36,1.38c-3.07,4.97-6,10.03-9,15.1c0.31,0.26,0.57,0.46,1.05,0.86
			c-0.57,0.12-0.88,0.24-1.19,0.24c-2.12,0.02-4.24,0.03-6.35,0c-1.44-0.02-1.79-0.62-1.03-1.91c3.48-5.85,6.98-11.68,10.49-17.51
			c0.79-1.32,0.79-1.4-0.95-1.93c0.46-0.26,0.72-0.54,1-0.55c1.96-0.04,3.92-0.05,5.87,0c1.09,0.02,1.62,0.73,1.77,1.8
			c3.34-2.69,7.17-1.85,10.89-1.5c0.61,0.06,1.15,0.81,1.83,1.31c1.39-1.36,3.36-1.74,5.49-1.63c1.51,0.08,3.04-0.01,4.54,0.18
			c1.93,0.24,2.56,1.37,1.69,3.13c-0.87,1.78-1.94,3.47-2.97,5.17c-2.49,4.07-5.01,8.12-7.55,12.24
			C730.46,431.35,730.74,431.6,731.31,432.1z"/>
		<path class="st3" d="M652.99,410.15c1.52,0.13,3.1,0.11,4.61,0.42c3.34,0.7,4.27,3.01,2.53,5.94c-1.69,2.83-3.5,5.6-5.04,8.52
			c-2.03,3.83-5.32,5.81-9.34,6.79c-3.3,0.8-6.66,0.7-9.98,0.21c-2.48-0.36-3.77-1.88-3.54-3.85c0.07-0.61,0.32-1.24,0.64-1.77
			c2.05-3.5,4.03-7.04,6.24-10.44c2.1-3.24,5.45-4.67,9.1-5.39C649.74,410.26,651.36,410.28,652.99,410.15z M642.76,427.55
			c1.24,0,2.96-0.82,3.74-2.07c1.79-2.86,3.52-5.77,5.17-8.71c0.73-1.3-0.06-2.33-1.55-2.14c-1.59,0.21-2.83,1.04-3.71,2.37
			c-0.64,0.96-1.21,1.97-1.8,2.96c-1.06,1.78-2.17,3.52-3.15,5.34C640.76,426.6,641.37,427.55,642.76,427.55z"/>
		<path class="st1" d="M796.67,432.47c-1.78-0.19-3.49-0.18-5.08-0.59c-3.03-0.78-3.86-2.97-2.29-5.64c1.66-2.85,3.51-5.6,5.03-8.52
			c2.03-3.89,5.36-5.89,9.42-6.87c3.25-0.78,6.58-0.69,9.88-0.27c2.48,0.32,3.92,1.82,3.71,3.71c-0.08,0.68-0.38,1.38-0.73,1.98
			c-1.69,2.92-3.56,5.75-5.14,8.74c-2,3.79-5.24,5.8-9.22,6.77C800.41,432.22,798.47,432.25,796.67,432.47z M799.11,427.55
			c1.24-0.01,2.95-0.81,3.74-2.08c1.79-2.86,3.52-5.77,5.17-8.72c0.74-1.31-0.04-2.32-1.54-2.13c-1.59,0.2-2.84,1.04-3.71,2.37
			c-0.68,1.03-1.29,2.1-1.93,3.16c-1.02,1.71-2.09,3.39-3.03,5.14C797.11,426.61,797.72,427.56,799.11,427.55z"/>
		<path class="st2" d="M695.28,414.55c-2.97,0-5.9,0-9.29,0c0.99-1.56,1.76-2.86,2.63-4.09c0.14-0.2,0.66-0.19,1-0.19
			c3.88-0.01,7.75-0.02,11.63,0c3.04,0.02,3.91,1.48,2.36,4.13c-3.02,5.15-6.1,10.26-9.15,15.39c-0.24,0.41-0.47,0.82-0.75,1.3
			c0.29,0.26,0.57,0.51,0.96,0.87c-0.31,0.13-0.53,0.3-0.75,0.3c-2.08,0.02-4.15,0.04-6.23,0c-0.9-0.02-1.66-0.33-1.78-1.47
			c-2.59,1.81-5.41,1.82-8.24,1.01c-2.77-0.78-3.66-3.02-2.18-5.49c1.27-2.11,2.62-4.18,4.15-6.1c1.46-1.83,3.6-2.58,5.92-2.7
			c2.07-0.1,4.15-0.14,6.22-0.17C694.09,417.32,694.52,417.01,695.28,414.55z M691.44,421.43c-0.98,0-1.72,0.07-2.45-0.01
			c-2.78-0.29-4.08,1.28-5.28,3.91c-0.51,1.12,0.06,1.89,1.27,1.94c0.79,0.04,1.59,0.04,2.39-0.01c0.27-0.02,0.65-0.15,0.78-0.35
			C689.22,425.17,690.26,423.4,691.44,421.43z"/>
		<path class="st4" d="M753.83,431.17c0.35,0.28,0.62,0.49,0.87,0.69c-0.08,0.15-0.12,0.27-0.15,0.27
			c-2.39,0.04-4.78,0.14-7.16,0.04c-0.52-0.02-1.01-0.74-1.61-1.21c-2.27,1.69-5.12,1.65-7.99,0.83c-2.71-0.76-3.57-2.95-2.18-5.4
			c1.04-1.83,2.15-3.63,3.39-5.33c1.7-2.33,4.1-3.48,6.99-3.56c1.96-0.06,3.91-0.07,5.87-0.08c2.32-0.01,2.83-0.39,3.65-2.87
			c-2.97,0-5.9,0-8.82,0c-0.1-0.1-0.2-0.21-0.3-0.31c0.81-1.27,1.58-2.56,2.45-3.78c0.16-0.22,0.74-0.17,1.13-0.17
			c3.71-0.01,7.43-0.01,11.14-0.01c3.42,0,4.24,1.42,2.48,4.4c-3.03,5.14-6.1,10.25-9.15,15.38
			C754.25,430.42,754.06,430.76,753.83,431.17z M751.62,421.43c-1.03,0-1.79,0.07-2.54-0.01c-2.87-0.32-4.3,1.75-5.26,4
			c-0.45,1.05,0.11,1.8,1.26,1.87c0.83,0.05,1.68,0.05,2.51,0c0.26-0.02,0.6-0.22,0.74-0.44
			C749.41,425.14,750.44,423.41,751.62,421.43z"/>
		<path class="st2" d="M620.82,427.46c3.32-0.4,6.51,0.56,9.75-0.79c0,0.24,0.03,0.52-0.01,0.79c-0.03,0.19-0.15,0.36-0.24,0.54
			c-2.75,5.12-1.89,4.19-7.07,4.25c-3.55,0.04-7.11,0.01-10.66,0.01c-2.27,0-2.56-0.51-1.41-2.52c4.17-7.28,8.34-14.55,12.51-21.82
			c0.08-0.14,0.16-0.28,0.24-0.41c0.84-1.49,0.84-1.49-0.98-2.03c0.46-0.23,0.71-0.45,0.96-0.46c2.95-0.02,5.91-0.02,8.86-0.02
			c1.05,0,0.86,0.64,0.55,1.2c-0.63,1.15-1.33,2.26-2,3.39c-3.29,5.54-6.58,11.07-9.86,16.61
			C621.27,426.53,621.12,426.88,620.82,427.46z"/>
		<path class="st5" d="M767.4,414.66c-0.35-0.11-0.62-0.2-1-0.32c0.71-1.21,1.33-2.36,2.07-3.43c0.22-0.32,0.77-0.59,1.17-0.58
			c2.79,0.07,4.98-0.88,6.38-3.39c0.17-0.31,0.65-0.6,1.01-0.63c0.94-0.09,1.9-0.03,3.2-0.03c-0.82,1.44-1.51,2.65-2.28,4
			c2.26,0,4.37,0,6.72,0c-0.87,1.43-1.59,2.7-2.4,3.9c-0.16,0.24-0.7,0.31-1.07,0.31c-1.64,0.03-3.28-0.03-4.91,0.04
			c-0.39,0.02-0.91,0.3-1.11,0.63c-1.74,2.85-3.55,5.67-5.09,8.63c-1.61,3.09-1.56,3.77,2.04,3.51c0.99-0.07,1.97-0.28,3.14-0.45
			c0.01,0.05,0.07,0.33,0.05,0.59c-0.02,0.19-0.15,0.36-0.25,0.54c-2.79,5-1.78,4.14-6.99,4.2c-2.84,0.03-5.67,0.01-8.51,0
			c-1.83,0-2.15-0.55-1.2-2.17c2.76-4.7,5.54-9.38,8.31-14.08C766.92,415.54,767.14,415.12,767.4,414.66z"/>
		<path class="st2" d="M681.87,410.34c-0.83,1.27-1.45,2.42-2.28,3.41c-0.38,0.45-1.14,0.72-1.76,0.79
			c-1.06,0.13-2.15,0.01-3.23,0.05c-1.43,0.05-2.68,0.51-3.45,1.79c-1.84,3.07-3.68,6.14-5.47,9.24c-0.62,1.07-0.26,1.69,0.96,1.74
			c1.56,0.06,3.12,0.05,4.67,0.01c0.37-0.01,0.73-0.28,1.1-0.39c0.27-0.08,0.56-0.11,0.84-0.16c-0.01,0.3-0.02,0.59-0.05,0.89
			c-0.01,0.07-0.07,0.14-0.11,0.21c-2.81,5.2-1.9,4.3-7.14,4.34c-2.11,0.02-4.23-0.1-6.34-0.18c-0.43-0.02-0.87-0.14-1.28-0.28
			c-2.06-0.69-3.01-2.32-1.94-4.19c2.99-5.25,6.16-10.39,9.37-15.5c0.95-1.52,2.74-1.72,4.4-1.74
			C673.97,410.3,677.76,410.34,681.87,410.34z"/>
		<path class="st6" d="M785.8,410.71c0.64-0.18,1-0.35,1.35-0.36c2.15-0.03,4.31-0.02,6.47-0.01c1.76,0.01,2.16,0.71,1.25,2.24
			c-3.25,5.47-6.52,10.92-9.78,16.38c-0.45,0.75-0.89,1.5-1.37,2.32c0.31,0.19,0.57,0.35,0.85,0.53c-0.08,0.17-0.11,0.34-0.18,0.36
			c-0.22,0.07-0.46,0.12-0.69,0.12c-2.16,0.01-4.31,0.02-6.47,0c-1.14-0.01-1.45-0.47-1.04-1.51c0.2-0.51,0.5-0.99,0.79-1.47
			c3.27-5.45,6.54-10.9,9.82-16.35C787.62,411.56,787.59,411.45,785.8,410.71z"/>
		<path class="st7" d="M798.83,403.47c0.06,1.87-1.36,3.45-2.97,3.46c-1.8,0.01-3.6-0.01-5.39,0c-0.98,0.01-1.13-0.4-0.63-1.17
			c0.02-0.03,0.05-0.06,0.07-0.1c0.75-1.75,2-2.45,3.95-2.23C795.49,403.61,797.17,403.47,798.83,403.47z"/>
		<path class="st8" d="M595.19,425.66c-3.55,0-6.85,0-10.38,0c1.79-2.87,3.5-5.61,5.29-8.47
			C591.81,420.05,593.45,422.77,595.19,425.66z"/>
		<path class="st9" d="M642.76,427.55c-1.39,0-2-0.95-1.29-2.26c0.98-1.82,2.09-3.57,3.15-5.34c0.59-0.99,1.16-2,1.8-2.96
			c0.88-1.32,2.12-2.16,3.71-2.37c1.49-0.19,2.28,0.84,1.55,2.14c-1.65,2.95-3.38,5.85-5.17,8.71
			C645.72,426.73,644,427.55,642.76,427.55z"/>
		<path class="st10" d="M799.11,427.55c-1.39,0.01-2-0.94-1.29-2.26c0.94-1.75,2.01-3.43,3.03-5.14c0.63-1.06,1.25-2.13,1.93-3.16
			c0.88-1.33,2.12-2.16,3.71-2.37c1.5-0.19,2.28,0.82,1.54,2.13c-1.65,2.95-3.37,5.86-5.17,8.72
			C802.06,426.74,800.35,427.54,799.11,427.55z"/>
		<path class="st11" d="M691.44,421.43c-1.18,1.97-2.22,3.74-3.3,5.47c-0.13,0.21-0.51,0.34-0.78,0.35
			c-0.79,0.05-1.59,0.04-2.39,0.01c-1.21-0.05-1.77-0.82-1.27-1.94c1.19-2.63,2.5-4.2,5.28-3.91
			C689.72,421.5,690.46,421.43,691.44,421.43z"/>
		<path class="st12" d="M751.62,421.43c-1.19,1.98-2.21,3.71-3.28,5.42c-0.14,0.22-0.48,0.42-0.74,0.44c-0.83,0.05-1.68,0.05-2.51,0
			c-1.15-0.07-1.71-0.82-1.26-1.87c0.96-2.25,2.39-4.32,5.26-4C749.83,421.5,750.59,421.43,751.62,421.43z"/>
	</g>
</g>
<g>
	<path d="M649.58,475.19c0.11,0.79,0.33,1.38,0.66,1.77c0.6,0.71,1.62,1.07,3.08,1.07c0.87,0,1.58-0.09,2.12-0.28
		c1.03-0.36,1.54-1.03,1.54-2c0-0.57-0.25-1.01-0.76-1.32c-0.5-0.3-1.3-0.57-2.4-0.81l-1.87-0.41c-1.84-0.41-3.1-0.85-3.79-1.32
		c-1.16-0.8-1.75-2.04-1.75-3.74c0-1.55,0.57-2.83,1.71-3.86c1.14-1.02,2.81-1.54,5.02-1.54c1.84,0,3.41,0.48,4.72,1.45
		c1.3,0.96,1.98,2.37,2.05,4.2h-3.47c-0.06-1.04-0.53-1.78-1.39-2.21c-0.58-0.29-1.29-0.43-2.15-0.43c-0.95,0-1.71,0.19-2.28,0.56
		s-0.85,0.9-0.85,1.57c0,0.62,0.28,1.08,0.84,1.38c0.36,0.2,1.13,0.44,2.29,0.71l3.03,0.71c1.33,0.31,2.32,0.73,2.99,1.25
		c1.03,0.81,1.54,1.99,1.54,3.53c0,1.58-0.61,2.89-1.83,3.93c-1.22,1.04-2.94,1.56-5.17,1.56c-2.27,0-4.06-0.51-5.37-1.54
		c-1.3-1.03-1.95-2.44-1.95-4.24H649.58z"/>
	<path d="M667.92,463.25h4.08l6.11,17.27h-3.91l-1.14-3.55h-6.36l-1.17,3.55h-3.78L667.92,463.25z M667.69,473.99h4.42l-2.18-6.8
		L667.69,473.99z"/>
	<path d="M682.92,475.19c0.11,0.79,0.33,1.38,0.66,1.77c0.6,0.71,1.62,1.07,3.08,1.07c0.87,0,1.58-0.09,2.12-0.28
		c1.03-0.36,1.54-1.03,1.54-2c0-0.57-0.25-1.01-0.76-1.32c-0.5-0.3-1.3-0.57-2.4-0.81l-1.87-0.41c-1.84-0.41-3.1-0.85-3.79-1.32
		c-1.16-0.8-1.75-2.04-1.75-3.74c0-1.55,0.57-2.83,1.71-3.86c1.14-1.02,2.81-1.54,5.02-1.54c1.84,0,3.41,0.48,4.71,1.45
		c1.3,0.96,1.98,2.37,2.05,4.2h-3.47c-0.06-1.04-0.53-1.78-1.39-2.21c-0.58-0.29-1.29-0.43-2.15-0.43c-0.95,0-1.71,0.19-2.28,0.56
		c-0.57,0.38-0.85,0.9-0.85,1.57c0,0.62,0.28,1.08,0.84,1.38c0.36,0.2,1.13,0.44,2.29,0.71l3.03,0.71c1.33,0.31,2.32,0.73,2.99,1.25
		c1.03,0.81,1.54,1.99,1.54,3.53c0,1.58-0.61,2.89-1.83,3.93s-2.94,1.56-5.17,1.56c-2.27,0-4.06-0.51-5.37-1.54
		c-1.3-1.03-1.95-2.44-1.95-4.24H682.92z"/>
	<path d="M704.38,468.01c0.89,0.4,1.63,1.03,2.21,1.89c0.52,0.76,0.86,1.64,1.02,2.64c0.09,0.59,0.13,1.43,0.11,2.54h-9.3
		c0.05,1.28,0.5,2.18,1.34,2.7c0.51,0.32,1.12,0.48,1.84,0.48c0.76,0,1.38-0.2,1.85-0.59c0.26-0.21,0.49-0.5,0.69-0.88h3.41
		c-0.09,0.76-0.5,1.53-1.24,2.31c-1.14,1.24-2.75,1.86-4.81,1.86c-1.7,0-3.2-0.52-4.5-1.57s-1.95-2.75-1.95-5.11
		c0-2.21,0.59-3.91,1.76-5.09s2.7-1.77,4.57-1.77C702.49,467.41,703.49,467.61,704.38,468.01z M699.38,470.89
		c-0.47,0.49-0.77,1.15-0.89,1.98h5.75c-0.06-0.89-0.36-1.56-0.89-2.02s-1.19-0.69-1.98-0.69
		C700.52,470.16,699.85,470.4,699.38,470.89z"/>
	<path d="M719.7,468.48c0.84,0.69,1.25,1.84,1.25,3.44v8.6h-3.42v-7.77c0-0.67-0.09-1.19-0.27-1.55c-0.33-0.66-0.95-0.98-1.86-0.98
		c-1.12,0-1.9,0.48-2.31,1.44c-0.22,0.51-0.33,1.16-0.33,1.95v6.91h-3.34v-12.75h3.23v1.86c0.43-0.66,0.83-1.13,1.21-1.42
		c0.68-0.52,1.55-0.77,2.6-0.77C717.79,467.44,718.87,467.79,719.7,468.48z"/>
	<path d="M726.65,476.44c0.07,0.59,0.22,1.02,0.46,1.27c0.42,0.45,1.19,0.67,2.31,0.67c0.66,0,1.18-0.1,1.57-0.29
		s0.58-0.49,0.58-0.88c0-0.38-0.16-0.66-0.47-0.86c-0.31-0.2-1.48-0.53-3.49-1.01c-1.45-0.36-2.47-0.81-3.07-1.35
		c-0.59-0.53-0.89-1.3-0.89-2.3c0-1.18,0.46-2.19,1.39-3.04s2.23-1.27,3.92-1.27c1.6,0,2.9,0.32,3.9,0.96s1.58,1.74,1.73,3.3h-3.34
		c-0.05-0.43-0.17-0.77-0.36-1.02c-0.37-0.45-1-0.68-1.88-0.68c-0.73,0-1.25,0.11-1.56,0.34s-0.46,0.49-0.46,0.8
		c0,0.38,0.16,0.66,0.49,0.83c0.33,0.18,1.49,0.49,3.49,0.93c1.33,0.31,2.33,0.79,2.99,1.42c0.66,0.64,0.98,1.44,0.98,2.4
		c0,1.27-0.47,2.3-1.42,3.1s-2.4,1.2-4.37,1.2c-2.01,0-3.5-0.42-4.46-1.27s-1.44-1.93-1.44-3.24H726.65z"/>
	<path d="M748.06,478.96c-1.08,1.33-2.71,2-4.91,2s-3.83-0.67-4.91-2s-1.62-2.93-1.62-4.81c0-1.84,0.54-3.44,1.62-4.79
		c1.08-1.35,2.71-2.03,4.91-2.03s3.83,0.68,4.91,2.03c1.08,1.35,1.62,2.95,1.62,4.79C749.68,476.02,749.14,477.63,748.06,478.96z
		 M745.39,477.11c0.52-0.69,0.79-1.68,0.79-2.96s-0.26-2.26-0.79-2.96c-0.52-0.69-1.27-1.04-2.25-1.04s-1.73,0.35-2.26,1.04
		c-0.53,0.69-0.79,1.68-0.79,2.96s0.26,2.27,0.79,2.96s1.28,1.04,2.26,1.04S744.87,477.81,745.39,477.11z"/>
	<path d="M759.17,467.45c0.04,0,0.14,0.01,0.29,0.02v3.42c-0.21-0.02-0.4-0.04-0.56-0.05s-0.3-0.01-0.4-0.01
		c-1.34,0-2.25,0.44-2.71,1.31c-0.26,0.49-0.39,1.25-0.39,2.27v6.11h-3.36v-12.77h3.19v2.23c0.52-0.85,0.96-1.43,1.35-1.75
		c0.62-0.52,1.44-0.79,2.44-0.79C759.07,467.44,759.12,467.44,759.17,467.45z"/>
</g>
</svg>
