<?xml version="1.0" encoding="UTF-8" standalone="no"?>
<svg
   version="1.1"
   id="svg4"
   width="37.101562"
   height="9.0410156"
   xmlns="http://www.w3.org/2000/svg"
   xmlns:svg="http://www.w3.org/2000/svg">
  <defs
     id="defs8" />
  <g
     aria-label="SELEN"
     id="text2"
     transform="translate(-0.78515625,8.8828125)">
    <path
       d="m 7.5117187,-2.4902344 q 0,0.5097657 -0.2402343,1.0078125 -0.234375,0.4980469 -0.6621094,0.84375003 -0.46875,0.37499999 -1.0957031,0.5859375 -0.6210938,0.21093749 -1.5,0.21093749 -0.9433594,0 -1.6992188,-0.17578125 -0.75,-0.17578124 -1.52929685,-0.52148437 v -1.453125 h 0.0820313 Q 1.529297,-1.4414062 2.3964845,-1.1425781 3.263672,-0.84375 4.0253907,-0.84375 q 1.078125,0 1.6757813,-0.4042969 0.6035156,-0.4042968 0.6035156,-1.078125 0,-0.5800781 -0.2871095,-0.8554687 Q 5.7363281,-3.4570313 5.15625,-3.609375 4.7167969,-3.7265625 4.2011719,-3.8027344 3.6914063,-3.8789063 3.1171875,-3.9960938 1.9570312,-4.2421875 1.3945312,-4.8339844 0.83789063,-5.4316406 0.83789063,-6.3867187 q 0,-1.0957032 0.92578127,-1.7929688 0.9257812,-0.703125 2.3496093,-0.703125 0.9199219,0 1.6875,0.1757812 0.7675782,0.1757813 1.359375,0.4335938 v 1.3710938 H 7.078125 q -0.4980469,-0.421875 -1.3125,-0.6972657 -0.8085938,-0.28125 -1.6582031,-0.28125 -0.9316406,0 -1.5,0.3867188 -0.5625,0.3867187 -0.5625,0.9960937 0,0.5449219 0.28125,0.8554688 0.28125,0.3105469 0.9902344,0.4746094 0.375,0.082031 1.0664062,0.1992187 0.6914062,0.1171875 1.171875,0.2402344 0.9726562,0.2578125 1.4648437,0.7792968 0.4921875,0.5214844 0.4921875,1.4589844 z"
       id="path10" />
    <path
       d="M 15.123047,0 H 9.375 v -8.7246094 h 5.748047 v 1.03125 h -4.587891 v 2.390625 h 4.587891 v 1.03125 H 10.535156 V -1.03125 h 4.587891 z"
       id="path12" />
    <path
       d="m 22.482422,0 h -5.519531 v -8.7246094 h 1.160156 V -1.03125 h 4.359375 z"
       id="path14" />
    <path
       d="m 29.390625,0 h -5.748047 v -8.7246094 h 5.748047 v 1.03125 h -4.587891 v 2.390625 h 4.587891 v 1.03125 H 24.802734 V -1.03125 h 4.587891 z"
       id="path16" />
    <path
       d="M 37.886719,0 H 36.451172 L 32.314453,-7.8046875 V 0 h -1.083984 v -8.7246094 h 1.798828 l 3.773437,7.125 v -7.125 h 1.083985 z"
       id="path18" />
  </g>
</svg>
