<?xml version="1.0" encoding="utf-8"?>
<!-- Generator: Adobe Illustrator 25.4.1, SVG Export Plug-In . SVG Version: 6.00 Build 0)  -->
<svg version="1.1" id="Layer_1" xmlns="http://www.w3.org/2000/svg" xmlns:xlink="http://www.w3.org/1999/xlink" x="0px" y="0px"
	 viewBox="0 0 1000 206.6585083" style="enable-background:new 0 0 1000 206.6585083;" xml:space="preserve">
<style type="text/css">
	.st0{fill:none;}
	.st1{opacity:0.65;fill:#FFFFFF;}
	.st2{fill:#AF1E51;}
	.st3{fill:#FFFFFF;}
	.st4{opacity:0.65;}
	.st5{fill:#163963;}
	.st6{fill:#1D99D6;}
	.st7{fill:#EE2C38;}
</style>
<path class="st0" d="M457.3718262,106.4458618h-9.5630493v32.3577271h10.6116943
	c7.9917603,0,14.9348755-4.3231812,14.9348755-16.1120605C473.3553467,112.604187,469.2943726,106.4458618,457.3718262,106.4458618z
	"/>
<polygon class="st0" points="388.857605,107.7567139 377.7224121,153.8686523 399.8625488,153.8686523 389.119751,107.7567139 "/>
<path class="st0" d="M964.2307739,106.4458618h-12.7073364v30.394043h11.9225464
	c9.5630493,0,14.9331665-5.7642212,14.9331665-15.1970215C978.3791504,111.6875,974.0559692,106.4458618,964.2307739,106.4458618z"
	/>
<path class="st0" d="M451.6582642,46.6599731c3.3952637,0,6.1436768-0.6467285,7.760437-2.2634888
	c1.7785034-1.4550781,2.7485352-3.5568848,2.7485352-6.467041s-0.9700317-5.173645-2.7485352-6.467041
	c-1.9401245-1.4550781-4.8502808-2.1018066-9.053833-2.1018066h-6.467041v17.2993774h0.1616821H451.6582642z"/>
<polygon class="st5" points="294.5090332,55.8754883 277.2097168,55.8754883 277.2097168,26.7738037 265.2456665,26.7738037 
	265.2456665,65.8994141 294.5090332,65.8994141 "/>
<polygon class="st5" points="311.8084106,51.0252075 327.4909668,51.0252075 327.4909668,41.8096313 311.8084106,41.8096313 
	311.8084106,36.7976685 329.9161377,36.7976685 329.9161377,26.7738037 299.6826782,26.7738037 299.6826782,65.8994141 
	311.8084106,65.8994141 "/>
<polygon class="st6" points="360.9579468,63.6359253 342.0418701,63.6359253 342.0418701,46.8215942 359.987854,46.8215942 
	359.987854,44.2348022 342.0418701,44.2348022 342.0418701,29.3605957 360.9579468,29.3605957 360.9579468,26.7738037 
	339.1316528,26.7738037 339.1316528,66.2227783 360.9579468,66.2227783 "/>
<path class="st6" d="M372.5986328,40.5162354c0-2.1017456-0.1616821-5.173645-0.3233032-9.3771973h0.1616821l23.7663574,35.0837402
	h2.9101562h0.1616821V26.7738037h-2.7484741v25.7064819c0,2.9101562,0.1616821,5.9819946,0.3233032,9.2155151h-0.3233032
	l-23.7664185-34.9219971h-2.7484741v39.2872925h2.586792V40.5162354z"/>
<polygon class="st6" points="410.4308472,66.2227783 432.2571411,66.2227783 432.2571411,63.6359253 413.3410034,63.6359253 
	413.3410034,46.8215942 431.2871094,46.8215942 431.2871094,44.2348022 413.3410034,44.2348022 413.3410034,29.3605957 
	432.2571411,29.3605957 432.2571411,26.7738037 410.4308472,26.7738037 "/>
<path class="st6" d="M444.0595093,48.9234009l9.8622437,0.1616821l10.5089722,17.1376953h3.3952026l-10.8323364-17.9460449
	c2.7485352-0.6467285,4.8502808-2.1018066,6.3053589-3.880249s2.1017456-4.0419312,2.1017456-6.7904053
	c0-3.7185669-1.293396-6.3053589-3.5568848-8.2454834c-2.4251099-1.7784424-6.1436768-2.7484741-10.9939575-2.7484741h-9.5388794
	v39.6106567h2.7485352V48.9234009z M443.8978271,29.3605957h6.467041c4.2035522,0,7.1137085,0.6467285,9.053833,2.1018066
	c1.7785034,1.293396,2.7485352,3.5568848,2.7485352,6.467041s-0.9700317,5.0119629-2.7485352,6.467041
	c-1.6167603,1.6167603-4.3651733,2.2634888-7.760437,2.2634888h-7.5987549h-0.1616821V29.3605957z"/>
<path class="st6" d="M504.3646851,45.8515625h-14.3891602l0.1616821,2.586792h11.640686v13.4191284
	c-2.586792,0.9700928-5.6586304,1.4551392-9.2155762,1.4551392c-5.6586304,0-9.8622437-1.4551392-12.6107178-4.3652954
	c-2.9101562-2.9101562-4.3652344-7.2753906-4.3652344-13.0957642c0-5.3353271,1.4550781-9.5388794,4.5269165-12.6107178
	c2.9101562-3.2335205,7.1137085-4.6886597,12.2873535-4.6886597c3.5569458,0,7.1137695,0.8084106,10.5089722,2.4251709
	l1.1317749-2.4251709c-3.3952026-1.4550781-7.2754517-2.4251099-11.4790649-2.4251099
	c-4.0418701,0-7.4370728,0.8083496-10.5089111,2.4251099s-5.3353271,4.0419312-7.1137695,7.1137695
	c-1.6167603,3.0718384-2.4251099,6.467041-2.4251099,10.34729c0,6.3053589,1.6167603,11.1556396,4.8502808,14.5508423
	s8.0838013,5.173645,14.227478,5.173645c4.6885986,0,9.053894-0.6467285,12.7723999-2.4251099V45.8515625z"/>
<polygon class="st6" points="521.8257446,65.8994141 524.7359009,65.8994141 524.7359009,50.7018433 537.9933472,26.7738037 
	535.0831909,26.7738037 523.4425049,48.1150513 511.8018188,26.7738037 508.5682983,26.7738037 521.8257446,51.0252075 "/>
<polygon class="st6" points="238.8924561,58.1389771 223.2098389,58.1389771 223.2098389,42.2946777 215.1260376,42.2946777 
	215.1260376,65.8994141 238.8924561,65.8994141 "/>
<polygon class="st5" points="223.0481567,34.3725586 246.8145752,34.3725586 246.8145752,58.1389771 242.9343262,58.1389771 
	242.9343262,65.8994141 254.7366943,65.8994141 254.7366943,26.4504395 215.1260376,26.4504395 215.1260376,38.2528076 
	223.0481567,38.2528076 "/>
<path class="st2" d="M255.7555542,137.6246948l-10.0873413-3.6668701
	c-9.9562988-3.8005981-14.0172729-7.8615723-14.0172729-15.8515625c0-9.9571533,6.1574707-13.4938354,12.5762329-13.4938354
	c9.3016968,0,13.1005249,4.9777222,13.1005249,13.4938354v1.965332h14.934021v-2.09729
	c0-9.6932983-2.4888916-24.6281128-26.4624023-24.6281128c-17.5539551,0-29.0823975,9.4328003-29.0823975,26.4632568
	c0,13.3618774,5.8953247,20.4351807,19.5193481,25.6750488l10.2184448,3.5383911
	c8.3841553,2.4879761,13.3618774,6.8111572,13.3618774,16.6363525c0,6.9430542-4.7164307,13.6240234-14.1483765,13.6240234
	c-10.3486938,0-15.3272705-5.7642212-15.3272705-17.1607056v-2.3577271h-14.93396v2.2275391
	c0,13.0996704,5.2398682,28.5571289,28.4277954,28.5571289c18.8638916,0,30.9157715-8.2521973,30.9157715-28.1647339
	C274.7505493,149.5472412,268.9871826,142.34198,255.7555542,137.6246948z"/>
<polygon class="st2" points="329.2492676,132.6469727 301.7390137,132.6469727 301.7390137,95.1796265 286.8041992,95.1796265 
	286.8041992,188.7160645 301.7390137,188.7160645 301.7390137,145.2240601 329.2492676,145.2240601 329.2492676,188.7160645 
	344.1832275,188.7160645 344.1832275,95.1796265 329.2492676,95.1796265 "/>
<path class="st2" d="M379.9500122,95.1796265l-26.5935059,93.536438h15.5894165l6.0255127-22.9248657h27.3799438
	l5.7642212,22.9248657h15.5894165l-24.6289673-93.536438H379.9500122z M377.7224121,153.8686523l11.1351929-46.1119385h0.262146
	l10.7427979,46.1119385H377.7224121z"/>
<path class="st2" d="M462.4815063,95.1796265h-29.605835v93.536438h14.9331055v-38.6462402h13.1014404
	c17.5530396,0,27.3782349-10.8721313,27.3782349-27.6404419C488.2884521,106.4458618,480.4286499,95.1796265,462.4815063,95.1796265
	z M458.4204712,138.8035889h-10.6116943v-32.3577271h9.5630493c11.9225464,0,15.9835205,6.1583252,15.9835205,16.2456665
	C473.3553467,134.4804077,466.4122314,138.8035889,458.4204712,138.8035889z"/>
<polygon class="st2" points="515.932373,146.2709961 549.4698486,146.2709961 549.4698486,133.6956177 515.932373,133.6956177 
	515.932373,107.7567139 551.5671997,107.7567139 551.5671997,95.1796265 500.9992676,95.1796265 500.9992676,188.7160645 
	552.6141357,188.7160645 552.6141357,176.140686 515.932373,176.140686 "/>
<path class="st2" d="M603.5752563,137.6246948l-10.0873413-3.6668701
	c-9.9571533-3.8005981-14.0181274-7.8615723-14.0181274-15.8515625c0-9.9571533,6.1565552-13.4938354,12.5770874-13.4938354
	c9.3008423,0,13.0996704,4.9777222,13.0996704,13.4938354v1.965332h14.9348755v-2.09729
	c0-9.6932983-2.4897461-24.6281128-26.4633179-24.6281128c-17.5547485,0-29.0831909,9.4328003-29.0831909,26.4632568
	c0,13.3618774,5.8961792,20.4351807,19.5202026,25.6750488l10.2175293,3.5383911
	c8.3841553,2.4879761,13.3636475,6.8111572,13.3636475,16.6363525c0,6.9430542-4.7172852,13.6240234-14.1483765,13.6240234
	c-10.3495483,0-15.3272705-5.7642212-15.3272705-17.1607056v-2.3577271h-14.9348145v2.2275391
	c0,13.0996704,5.2398682,28.5571289,28.4268799,28.5571289c18.8656616,0,30.916687-8.2521973,30.916687-28.1647339
	C622.569397,149.5472412,616.8051758,142.34198,603.5752563,137.6246948z"/>
<polygon class="st2" points="679.6906128,132.6469727 652.1786499,132.6469727 652.1786499,95.1796265 637.2455444,95.1796265 
	637.2455444,188.7160645 652.1786499,188.7160645 652.1786499,145.2240601 679.6906128,145.2240601 679.6906128,188.7160645 
	694.6237183,188.7160645 694.6237183,95.1796265 679.6906128,95.1796265 "/>
<rect x="712.0483398" y="95.1796265" class="st2" width="14.9348755" height="93.536438"/>
<polygon class="st2" points="744.4060059,188.7160645 759.3391724,188.7160645 759.3391724,146.2709961 792.2211914,146.2709961 
	792.2211914,133.6956177 759.3391724,133.6956177 759.3391724,107.7567139 794.3167725,107.7567139 794.3167725,95.1796265 
	744.4060059,95.1796265 "/>
<polygon class="st2" points="800.7390137,107.7567139 823.0093384,107.7567139 823.0093384,188.7160645 837.9425049,188.7160645 
	837.9425049,107.7567139 859.8204346,107.7567139 859.8204346,95.1796265 800.7390137,95.1796265 "/>
<polygon class="st2" points="885.8895874,146.2709961 919.4262085,146.2709961 919.4262085,133.6956177 885.8895874,133.6956177 
	885.8895874,107.7567139 921.5234985,107.7567139 921.5234985,95.1796265 870.9564819,95.1796265 870.9564819,188.7160645 
	922.5704346,188.7160645 922.5704346,176.140686 885.8895874,176.140686 "/>
<path class="st2" d="M992.9215698,180.5941162c-0.262146-5.6340332-0.394104-12.9694824-0.524292-18.9958496
	c-0.524353-13.0997314-5.3718262-18.2093506-14.6727295-19.1260986v-0.262146
	c10.2175903-1.5712891,15.5894165-10.8721313,15.5894165-22.9249268c0-17.5547485-10.6116943-24.1054688-23.7113647-24.1054688
	H936.590332v93.536438h14.9331055v-40.6099243h12.1847534c10.2175293,0,13.3618164,4.4533691,13.6240234,14.6709595
	c0.262146,6.8129272,0.130188,12.0527954,0.654541,17.6850586c0.392395,3.6685791,1.048645,6.5506592,2.4896851,8.2539062H997.375
	C995.4096069,187.4052124,993.1820068,185.1793823,992.9215698,180.5941162z M963.4459839,136.8399048h-11.9225464v-30.394043
	h12.7073364c9.8251953,0,14.1483765,5.2416382,14.1483765,15.1970215
	C978.3791504,131.0756836,973.0090332,136.8399048,963.4459839,136.8399048z"/>
<path class="st2" d="M49.6987305,171.588501c-0.8513794-1.4223022-1.6154175-3.2005615-2.1408081-5.4194946
	c-0.4452515-0.0516968-0.8896484-0.1110229-1.3312988-0.1918335c-3.951355-0.463562-7.8067017-1.5443726-11.5541382-2.9003296
	c-3.7557373-1.3577271-7.3288574-3.2267456-10.6885986-5.4178467c-2.9291992-1.9138794-5.7684326-4.1787109-8.1542358-6.6494141
	c0.6535645-0.5187988,1.2476807-1.1817627,1.7354126-2.0507812c3.3467407-5.9631958-3.6651611-11.0015259-3.6651611-11.0015259
	c-5.6196899-4.0717773-3.602478-7.0776978-3.602478-7.0776978c-5.1292725,4.5510254-4.1582642,11.6870117-4.1582642,11.6870117
	c-1.4390259-0.6754761-1.3546753-5.3599854-1.3546753-5.3599854c-0.3990479,0.7527466-3.7990723,6.1304321-1.1713867,10.5202637
	c1.7047119,2.8479614,5.65802,5.0117188,9.1409302,4.5641479c2.7124023,3.2896118,5.7506714,5.9851685,9.0899658,8.4428101
	c3.4673462,2.5261841,7.201355,4.7277222,11.1798706,6.4057617c3.9682007,1.675415,8.1079102,3.0609131,12.3822021,3.7927246
	C46.8220825,171.2611084,48.2582397,171.4337158,49.6987305,171.588501z"/>
<path class="st2" d="M56.102478,171.9959106c0.0036011,0.0025024,0.0065918,0.0048218,0.0101929,0.0073242
	c0.0004883,0,0.0009155,0.000061,0.0014038,0.000061c-0.1035767-0.0784912-0.2077026-0.1573486-0.3074951-0.2341919
	C55.9073486,171.8438721,55.9967651,171.9234009,56.102478,171.9959106z"/>
<path class="st2" d="M68.1113892,194.8002319l-13.3204346-1.1159058l-1.871521-7.1599731l11.5958862-4.394043
	c0,0-4.7712402-2.0165405-9.2583618-5.3217773c-0.0002441,0.000061-0.0025635,0.0006714-0.0025635,0.0006714
	s-0.7628174-0.2814941-1.8238525-1.0466919c-1.7254028-0.0784912-3.3049927-0.2819214-4.7488403-0.5710449l-8.0128784,13.1762695
	c8.8476562,4.5369263,9.1879883,14.5184937,9.1879883,14.5184937H70.359375c5.2160034-5.640686,10.1237793,0,10.1237793,0
	C79.2921143,194.6913452,68.1113892,194.8002319,68.1113892,194.8002319z"/>
<path class="st2" d="M154.7577515,189.4104614l-5.4785767-1.5114136l-5.265564-12.9068604
	c-1.6488647,1.0967407-4.6295776,2.9104614-8.7158813,4.7276611l12.8469849,19.6216431h13.7591553l-3.1533203-3.9418945
	L154.7577515,189.4104614z"/>
<path class="st2" d="M86.2789307,181.2484131c4.8800659,1.086731,9.454834,1.72229,13.7601929,1.9995728
	c11.4126587,0.5618896,27.956543-1.1716919,42.2005005-12.6045532c0.0009766-0.0008545,0.0019531-0.00177,0.0029907-0.0026245
	l-6.3781128-14.8648682C124.3261719,170.732666,106.4621582,180.559021,86.2789307,181.2484131z"/>
<path class="st2" d="M90.255127,133.1084595c-12.3509521,0-22.3634644-10.0129395-22.3634644-22.3640137
	c0-5.1196899,1.7391357-9.8221436,4.6331787-13.5916138c-2.8036499-0.8476562-17.7236938-6.7775879-21.5976562-37.8255005
	c-0.8475342-6.7926025-1.1663208-14.7874146-0.7139282-24.1943359c0.1424561-2.9620361,0.3613281-6.0639038,0.6643066-9.312439
	c0,0-3.5136108,3.37854-7.5600586,9.2924194c-5.0343018,7.3577881-10.8933716,18.6400146-11.8366089,32.2232056
	c0,0-3.7432251-7.486145-0.680603-15.3129272c0,0-16.2597046,14.548645-9.3412476,44.4291992
	c0.6379395,2.7550659,1.4725342,5.6401978,2.5354614,8.6565552c0,0-1.9036255-1.0879517-3.8394775-3.7783203
	c-1.8148193-2.5222168-3.657959-6.4528198-3.9873047-12.2158813c0,0-7.687439,22.6240234,3.760498,40.1663818
	c2.8012085,4.2924194,6.7478027,8.2806396,12.2333374,11.5586548c0,0-5.3584595-0.4658203-9.5211792-2.1687622
	c-0.8681641-0.3551636-1.6843872-0.7640991-2.3890991-1.2338867c0,0,2.5597534,9.211731,10.5198975,16.4941406
	c5.3434448,4.8884277,13.1202393,8.9075317,24.1900024,8.6871338c21.6176147-0.4304199,38.1357422-18.2639771,38.1357422-18.2639771
	s-0.0090332,0.0184326-0.0271606,0.053894c4.6744995-4.8494263,8.59729-10.4283447,11.5809937-16.5491943
	C100.7608032,131.1347046,95.7385254,133.1084595,90.255127,133.1084595z"/>
<g>
	<path class="st0" d="M151.272644,35.7493896c0,0-7.0696411,6.9987793,0.2237549,13.9975586
		C151.4963989,49.7469482,158.2401733,42.7481689,151.272644,35.7493896z"/>
	<path class="st2" d="M149.4639282,115.8275146c0,7.1080322-1.1331787,13.9512939-3.2282104,20.359314l13.1186523,21.8345947
		c2.0848389-6.4185791,1.664856-13.7788696,1.664856-13.7788696c2.2685547,2.4957886,4.9667358,8.9614258,4.9667358,8.9614258
		c4.9909668-11.3439941-1.7907715-24.1611328-1.7907715-24.1611328c4.5373535,2.72229,6.1253662,9.3012085,6.1253662,9.3012085
		c4.914917-47.0429077-28.4708862-60.6744385-43.829895-72.3164062
		C131.5888824,82.2866592,149.4639282,95.8897705,149.4639282,115.8275146z"/>
	<path class="st7" d="M184.782959,192.7347412l-17.5251465-4.8356934l-7.7945557-19.829834l-13.3353271-31.555481
		l-0.7211304-1.706543l0.8289185,1.3796387c2.0950317-6.40802,3.2282104-13.2512817,3.2282104-20.359314
		c0-19.9377441-8.9136963-37.793457-22.9732666-49.7998657c-0.9033203-0.6846924-1.7442017-1.3625488-2.5114136-2.039856
		c-3.046936-2.6903076-4.9295654-5.3728027-4.9295654-8.4481812c0-4.3104248,1.9915161-9.0886841,9.5282593-9.074707
		c18.6026001,0.0344849,20.3040771,21.8922729,20.3040771,21.8922729s9.1880493-3.0629272,8.8476562-13.9522095
		c0,0,18.0356445-30.6259766-16.6743164-52.4049683c0,0,5.7849121,9.5281372,4.7640381,15.3133545
		c0,0-25.8623047-14.2923584-53.0856323,7.8268433c0,0,8.5072632-1.7017822,11.9101562,0.3401489
		c0,0-15.8453369,3.1693726-18.9202271,22.7685547c-0.1083984,0.690918-0.2008667,1.4022827-0.2763062,2.1345825
		c-0.213623,2.0750122-0.289978,4.3184204-0.2001343,6.7437744c0.6452026,17.4202881,18.0733032,30.5449219,24.486084,42.6512451
		c0.5102539,0.9043579,0.9602051,1.847168,1.3439941,2.8230591c0.9921265,2.5231323,1.5412598,5.2677612,1.5412598,8.1428833
		c0,6.8676758-3.0958252,13.0122681-7.9678345,17.1147461c-2.9837036,6.1208496-6.9064941,11.6997681-11.5809937,16.5491943
		c-0.6127319,1.201416-11.7350464,22.1420288-40.9291382,21.9981079c0.4471436,1.5650635,1.3256226,3.3781738,3.046936,4.8769531
		c0.1495972,0.130249,0.3164062,0.2531738,0.4789429,0.3782349c0.0466309,0.0358276,0.0924072,0.0720825,0.1400757,0.1074219
		c0.0997925,0.0768433,0.2039185,0.1557007,0.3074951,0.2341919c0.0087891,0.0067139,0.017395,0.0132446,0.0262451,0.0199585
		c0.1992798,0.1380005,0.3760376,0.2717896,0.5404663,0.4033813c2.3132935,1.7058105,5.4860229,3.7671509,9.8502197,6.1851196
		c0.3167725,0.1755981,0.6151123,0.3621216,0.8959961,0.5582275c5.7485962,4.0126343,4.2084961,12.0333252,4.2084961,12.0333252
		s13.2715454,2.3817139,14.2922974,11.2299194h18.2056274c0,0,3.6582642-7.3167725,9.8685303,0
		c0,0-0.170105-7.4866333-6.2953491-8.3377075l-19.7370605-4.2538452l-3.7431641-3.7432861l1.9154663-4.8452148l0.0128174-0.0322876
		c0.0415039,0.0092773,0.0828247,0.0182495,0.1242676,0.0275269c20.1832275-0.6893921,38.0472412-10.5157471,49.5855713-25.4724731
		l-3.2973022-7.6846924l4.1507568,6.5536499l9.043396,14.2788696l11.3668823,16.9803467l4.8331299,7.2200317l3.3765869,5.0439453
		l0.7856445,1.1734009h0.510376h3.4631348h10.6590576c4.6507568-6.0396118,9.8685303,0,9.8685303,0
		C190.6246948,194.0388794,184.782959,192.7347412,184.782959,192.7347412z M151.272644,35.7493896
		c6.9675293,6.9987793,0.2237549,13.9975586,0.2237549,13.9975586
		C144.2030029,42.7481689,151.272644,35.7493896,151.272644,35.7493896z"/>
</g>
</svg>
