<svg width="363.2" height="94.4" viewBox="0 0 363.2 94.4" xmlns="http://www.w3.org/2000/svg"><g id="svgGroup" stroke-linecap="round" fill-rule="evenodd" font-size="9pt" stroke="#000" stroke-width="0.25mm" fill="#000" style="stroke:#000;stroke-width:0.25mm;fill:#000"><path d="M 72.3 71.2 L 62.8 71.2 L 62.8 1.2 L 72.3 1.2 L 72.3 31.1 L 106.8 31.1 L 106.8 1.2 L 116.3 1.2 L 116.3 71.2 L 106.8 71.2 L 106.8 39.3 L 72.3 39.3 L 72.3 71.2 Z M 0 65.3 L 4.8 57.3 Q 8.4 60.3 12.9 62.2 A 23.348 23.348 0 0 0 18.27 63.71 A 32.118 32.118 0 0 0 23.4 64.1 A 27.981 27.981 0 0 0 27.947 63.754 Q 30.37 63.354 32.331 62.494 A 13.701 13.701 0 0 0 34.8 61.1 Q 38.848 58.209 38.995 53.366 A 12.116 12.116 0 0 0 39 53 A 11.94 11.94 0 0 0 38.663 50.107 A 9.816 9.816 0 0 0 37.8 47.85 A 8.097 8.097 0 0 0 36.6 46.194 Q 35.33 44.813 33.184 43.471 A 25.81 25.81 0 0 0 33.15 43.45 Q 30.034 41.508 24.265 39.28 A 118.584 118.584 0 0 0 23 38.8 Q 15.8 36 11.5 33.15 A 21.931 21.931 0 0 1 8.411 30.703 Q 6.694 29.053 5.638 27.188 A 13.303 13.303 0 0 1 5.35 26.65 Q 3.5 23 3.5 18 Q 3.5 13 6.25 8.95 Q 9 4.9 14.35 2.45 A 25.558 25.558 0 0 1 20.25 0.615 Q 23.493 0 27.3 0 Q 33.5 0 38.45 1.25 Q 43.4 2.5 48.1 4.8 L 44.6 12.9 A 31.496 31.496 0 0 0 40.474 10.881 A 41.686 41.686 0 0 0 36.65 9.55 Q 32.1 8.2 27.1 8.2 A 27.187 27.187 0 0 0 23.07 8.48 Q 20.938 8.8 19.2 9.487 A 12.616 12.616 0 0 0 16.7 10.8 A 9.902 9.902 0 0 0 14.537 12.765 A 7.359 7.359 0 0 0 12.9 17.5 A 10.464 10.464 0 0 0 13.192 20.022 A 8.562 8.562 0 0 0 14 22.1 Q 15.056 24.019 18.091 25.847 A 23.503 23.503 0 0 0 18.35 26 A 33.003 33.003 0 0 0 20.566 27.172 Q 22.835 28.275 26.046 29.523 A 130.016 130.016 0 0 0 28.1 30.3 A 81.228 81.228 0 0 1 33.078 32.329 Q 37.464 34.3 40.45 36.4 A 26.044 26.044 0 0 1 43.49 38.878 Q 45.713 41.006 46.9 43.35 A 17.579 17.579 0 0 1 48.641 49.213 A 22.155 22.155 0 0 1 48.8 51.9 A 21.71 21.71 0 0 1 48.133 57.401 A 17.105 17.105 0 0 1 45.55 63 Q 42.3 67.6 36.55 70 A 30.521 30.521 0 0 1 29.14 72.004 A 40.027 40.027 0 0 1 23.4 72.4 Q 16.1 72.4 10.1 70.45 A 38.206 38.206 0 0 1 4.733 68.268 A 28.433 28.433 0 0 1 0 65.3 Z M 312.4 92.4 L 314.4 84.9 A 9.908 9.908 0 0 0 315.565 85.474 Q 316.388 85.819 317.4 86.1 A 13.514 13.514 0 0 0 319.679 86.518 A 17.358 17.358 0 0 0 321.4 86.6 Q 325.6 86.6 328.9 83.9 A 12.003 12.003 0 0 0 330.833 81.839 Q 332.581 79.528 334.241 75.675 A 58.58 58.58 0 0 0 335.2 73.3 L 337.5 67.3 L 332.7 67.3 L 312.4 21.6 L 320.4 18 L 339.8 61.3 L 354.9 18.4 L 363.2 21.6 L 344.1 73.8 A 71.728 71.728 0 0 1 342.047 78.887 Q 340.945 81.326 339.778 83.314 A 30.86 30.86 0 0 1 337.8 86.3 A 24.268 24.268 0 0 1 334.922 89.511 Q 333.008 91.279 330.905 92.318 A 14.737 14.737 0 0 1 330.3 92.6 Q 326.2 94.4 321.2 94.4 Q 318.2 94.4 315.95 93.8 Q 313.7 93.2 312.4 92.4 Z M 250.8 68.2 L 241.9 72.4 L 233.2 53.4 A 30.586 30.586 0 0 0 230.609 48.827 Q 228.103 45.222 224.9 43.3 Q 220.545 40.687 214.064 40.35 A 37.847 37.847 0 0 0 212.1 40.3 L 210.6 40.3 L 210.6 71.2 L 201.1 71.2 L 201.1 1.4 Q 206.4 0.9 211.25 0.65 A 187.94 187.94 0 0 1 217.566 0.435 A 226.267 226.267 0 0 1 221.6 0.4 Q 234.4 0.4 240.85 5.6 A 17.414 17.414 0 0 1 245.48 11.134 Q 247.3 14.644 247.3 19 A 19.88 19.88 0 0 1 246.649 24.22 A 14.672 14.672 0 0 1 242.95 30.75 Q 238.6 35.2 230.4 37.4 A 23.656 23.656 0 0 1 233.829 39.263 A 20.427 20.427 0 0 1 235.2 40.25 Q 237.169 41.797 239.005 44.31 A 29.29 29.29 0 0 1 239.25 44.65 Q 241.2 47.4 243.2 51.8 L 250.8 68.2 Z M 191.1 68.7 L 182.4 72.2 L 174.6 52.2 L 142.2 52.2 L 134.4 72 L 126.3 68.7 L 153.7 1.2 L 164.1 1.2 L 191.1 68.7 Z M 272.3 71.2 L 262.8 71.2 L 262.8 1.4 Q 266.9 0.9 271.85 0.65 A 200.806 200.806 0 0 1 280.78 0.404 A 221.966 221.966 0 0 1 282.1 0.4 Q 289.67 0.4 295.272 2.482 A 26.011 26.011 0 0 1 296.9 3.15 A 24.606 24.606 0 0 1 301.982 6.179 A 19.374 19.374 0 0 1 306.2 10.7 Q 309.4 15.5 309.4 21.7 A 25.258 25.258 0 0 1 308.692 27.822 A 19.268 19.268 0 0 1 305.7 34.4 A 22.312 22.312 0 0 1 298.149 41.03 A 28.065 28.065 0 0 1 295.4 42.35 A 34.774 34.774 0 0 1 287.311 44.574 A 47.194 47.194 0 0 1 280.1 45.1 Q 275.9 45.1 272.3 44.8 L 272.3 71.2 Z M 272.3 8.8 L 272.3 36.7 Q 273.4 36.838 274.831 36.952 A 96.255 96.255 0 0 0 276.2 37.05 Q 278.5 37.2 281.3 37.2 A 31.831 31.831 0 0 0 286.68 36.775 Q 289.559 36.28 291.863 35.211 A 15.221 15.221 0 0 0 295.1 33.2 A 12.896 12.896 0 0 0 299.955 23.758 A 17.32 17.32 0 0 0 300 22.5 A 14.452 14.452 0 0 0 299.239 17.707 A 12.136 12.136 0 0 0 295.3 12.2 A 15.462 15.462 0 0 0 290.219 9.537 Q 287.993 8.826 285.3 8.56 A 34.58 34.58 0 0 0 281.9 8.4 A 131.125 131.125 0 0 0 278.642 8.439 A 109.939 109.939 0 0 0 276.8 8.5 A 91.274 91.274 0 0 0 273.917 8.664 A 75.041 75.041 0 0 0 272.3 8.8 Z M 158.4 10.6 L 145.2 44.2 L 171.5 44.2 L 158.4 10.6 Z M 210.6 8.8 L 210.6 32.3 L 221.6 32.3 A 26.489 26.489 0 0 0 226.523 31.869 Q 230.452 31.125 233.3 29.1 Q 237.8 25.9 237.8 19.9 A 9.811 9.811 0 0 0 234.527 12.436 A 13.272 13.272 0 0 0 233.6 11.65 A 13.923 13.923 0 0 0 229.236 9.429 Q 227.307 8.818 224.977 8.57 A 31.944 31.944 0 0 0 221.6 8.4 Q 218.426 8.4 215.862 8.487 A 118.974 118.974 0 0 0 215.5 8.5 Q 212.8 8.6 210.6 8.8 Z" vector-effect="non-scaling-stroke"/></g></svg>