<?xml version="1.0" encoding="UTF-8" standalone="no"?>
<svg
   version="1.1"
   id="svg4"
   width="49.054688"
   height="9.0878906"
   xmlns="http://www.w3.org/2000/svg"
   xmlns:svg="http://www.w3.org/2000/svg">
  <defs
     id="defs8" />
  <g
     aria-label="SIMONA"
     id="text2"
     transform="translate(-0.78515625,8.90625)">
    <path
       d="m 7.5117187,-2.4902344 q 0,0.5097657 -0.2402343,1.0078125 -0.234375,0.4980469 -0.6621094,0.84375003 -0.46875,0.37499999 -1.0957031,0.5859375 -0.6210938,0.21093749 -1.5,0.21093749 -0.9433594,0 -1.6992188,-0.17578125 -0.75,-0.17578124 -1.52929685,-0.52148437 v -1.453125 h 0.0820313 Q 1.529297,-1.4414062 2.3964845,-1.1425781 3.263672,-0.84375 4.0253907,-0.84375 q 1.078125,0 1.6757813,-0.4042969 0.6035156,-0.4042968 0.6035156,-1.078125 0,-0.5800781 -0.2871095,-0.8554687 Q 5.7363281,-3.4570313 5.15625,-3.609375 4.7167969,-3.7265625 4.2011719,-3.8027344 3.6914063,-3.8789063 3.1171875,-3.9960938 1.9570312,-4.2421875 1.3945312,-4.8339844 0.83789063,-5.4316406 0.83789063,-6.3867187 q 0,-1.0957032 0.92578127,-1.7929688 0.9257812,-0.703125 2.3496093,-0.703125 0.9199219,0 1.6875,0.1757812 0.7675782,0.1757813 1.359375,0.4335938 v 1.3710938 H 7.078125 q -0.4980469,-0.421875 -1.3125,-0.6972657 -0.8085938,-0.28125 -1.6582031,-0.28125 -0.9316406,0 -1.5,0.3867188 -0.5625,0.3867187 -0.5625,0.9960937 0,0.5449219 0.28125,0.8554688 0.28125,0.3105469 0.9902344,0.4746094 0.375,0.082031 1.0664062,0.1992187 0.6914062,0.1171875 1.171875,0.2402344 0.9726562,0.2578125 1.4648437,0.7792968 0.4921875,0.5214844 0.4921875,1.4589844 z"
       id="path10" />
    <path
       d="M 12.451172,0 H 9.0058594 V -0.890625 H 10.148438 V -7.8339844 H 9.0058594 v -0.890625 h 3.4453126 v 0.890625 h -1.142578 v 6.9433594 h 1.142578 z"
       id="path12" />
    <path
       d="m 22.195312,0 h -1.160156 v -7.5175781 l -2.425781,5.1152343 H 17.917969 L 15.509766,-7.5175781 V 0 h -1.083985 v -8.7246094 h 1.582031 l 2.326172,4.8574219 2.25,-4.8574219 h 1.611328 z"
       id="path14" />
    <path
       d="m 31.042969,-7.7226562 q 0.533203,0.5859375 0.814453,1.4355468 0.287109,0.8496094 0.287109,1.9277344 0,1.078125 -0.292969,1.9335937 -0.287109,0.8496094 -0.808593,1.4179688 -0.539063,0.59179687 -1.277344,0.890625 -0.732422,0.29882812 -1.675781,0.29882812 -0.919922,0 -1.675782,-0.30468749 -0.75,-0.30468751 -1.277343,-0.88476563 -0.527344,-0.5800781 -0.814453,-1.4238281 -0.28125,-0.84375 -0.28125,-1.9277344 0,-1.0664062 0.28125,-1.9101562 0.28125,-0.8496094 0.820312,-1.453125 0.515625,-0.5742188 1.277344,-0.8789063 0.767578,-0.3046875 1.669922,-0.3046875 0.9375,0 1.68164,0.3105469 0.75,0.3046875 1.271485,0.8730469 z M 30.9375,-4.359375 q 0,-1.6992187 -0.761719,-2.6191406 -0.761719,-0.9257813 -2.080078,-0.9257813 -1.330078,0 -2.091797,0.9257813 -0.755859,0.9199219 -0.755859,2.6191406 0,1.7167969 0.773437,2.6308594 0.773438,0.9082031 2.074219,0.9082031 1.300781,0 2.068359,-0.9082031 Q 30.9375,-2.6425781 30.9375,-4.359375 Z"
       id="path16" />
    <path
       d="M 40.640625,0 H 39.205078 L 35.068359,-7.8046875 V 0 h -1.083984 v -8.7246094 h 1.798828 l 3.773438,7.125 v -7.125 h 1.083984 z"
       id="path18" />
    <path
       d="M 49.839844,0 H 48.603516 L 47.748047,-2.4316406 H 43.974609 L 43.119141,0 h -1.177735 l 3.175781,-8.7246094 h 1.546875 z m -2.449219,-3.4277344 -1.529297,-4.2832031 -1.535156,4.2832031 z"
       id="path20" />
  </g>
</svg>
