<svg xmlns="http://www.w3.org/2000/svg" role="img" viewBox="3.77 1.15 128.96 81.08"><path fill="#484F5E" d="M72.6332 27.8422c-.052-.2776-.1214-.5725-.1908-.85-.0867-.3296-.2082-.6419-.347-.9541-.0173-.0347-.0347-.0868-.052-.1214-1.2143-2.6542-3.8684-4.545-6.9389-4.5971-2.6541-.052-5.0134 1.249-6.4532 3.244-.3122.4163-.5725.8847-.798 1.3704-.0173.0347-.0347.0694-.052.1214-.1388.3123-.2429.6245-.347.9541-.0867.2776-.1387.5551-.1908.8501-.052.2602-.0867.5377-.1041.8153-.0173.2255-.0173.4337-.0173.6592 0 .3643.0347.7286.1041 1.0755.052.3296.1214.6419.2081.9541.9368 3.2093 3.8685 5.6032 7.3553 5.6726 2.6541.052 5.0133-1.249 6.4532-3.244l-4.0246-1.4745c-.5725.5378-1.3184.85-2.099.8847-1.3531.0694-2.498-.6071-3.1052-1.8561-.1388-.2949-.2602-.6072-.3296-.9541h10.9808c.0347-.2256.0694-.4684.0868-.7113.0173-.2255.0173-.4337.0173-.6592-.052-.399-.0867-.798-.1561-1.1796zm-10.9808 0c.0867-.2949.1908-.5898.3296-.85.1908-.3643.4163-.6766.6939-.9541h.0173-.0173c.0347-.0347.0867-.0694.1214-.1041.5551-.4857 1.2317-.798 1.9602-.8327.9021-.052 1.7001.2602 2.3246.8327.0347.0347.0867.0694.1214.1214.2602.2602.4857.5898.6592.9541.1214.2602.2255.5378.3123.8501h-6.5226v-.0174zM21.979 10.8419c0-2.96635-1.8041-5.5164-4.3715-6.60928-.8673-.3643-1.8041-.57246-2.7929-.57246H6.34912l.01735 19.98414h4.35413v-5.6379h3.2266l2.7583 5.6379h4.7531l-3.2613-6.4879c2.2552-1.2143 3.7817-3.5909 3.7817-6.3145zm-4.3541 0c0 1.5613-1.2664 2.8277-2.8276 2.8277h-4.0767V8.01433h4.0767c1.5612 0 2.8276 1.26636 2.8276 2.82757z"/><path fill="#484F5E" d="M27.3915 17.2431v-1.5439l-3.695 3.3827 3.695 3.5389v-1.5439c3.5215 0 5.6205 3.0531 5.6205 6.1583 0 3.1051-2.1684 6.2624-5.6205 6.2624-3.7471 0-5.6206-3.1573-5.6206-6.2624h-4.3715c0 5.5164 4.4756 9.992 9.9921 9.992 5.5164 0 9.992-4.4756 9.992-9.992.0174-5.5338-4.4582-9.9921-9.992-9.9921zm92.0965 13.6002c-.485 1.4572-1.682 2.2898-3.018 2.3592-1.527.0694-2.776-.7979-3.331-2.3766-.121-.3469-.208-.7285-.243-1.1449-.017-.2255-.034-.451-.034-.6939 0-.104 0-.2255.017-.3296.035-.4163.104-.7979.243-1.1622.503-1.4052 1.683-2.3419 3.001-2.4113 1.526-.0694 2.775.8327 3.313 2.4286l4.285-.7633c-1.006-3.0878-3.886-5.3776-7.268-5.4297-3.539-.0694-6.54 2.2552-7.581 5.4297-.226.6766-.347 1.4052-.382 2.1511V29.4382c.017.7459.156 1.4571.382 2.151 1.006 3.0879 3.886 5.3777 7.268 5.4297 3.539.0694 6.54-2.2551 7.581-5.4297l-4.233-.7459zm10.721-9.0552h-4.354v14.9013h4.354V21.7881zm-.312-2.9144h-3.661c-.19 0-.364-.1561-.364-.3643v-3.6429c0-.1908.156-.3643.364-.3643h3.661c.19 0 .364.1561.364.3643v3.6603c0 .1908-.174.3469-.364.3469zm-24.148 8.3268c-1.336-1.7001-4.649-2.8797-6.2622-3.4695-1.4398-.5204-1.9602-.9367-1.9429-1.648.0521-1.3531 1.3704-1.648 2.2552-1.648 1.9599 0 2.2549 2.0644 2.2549 2.0644l3.851-.9542s-.746-4.8745-6.7478-4.8745c-1.9429 0-4.0593 1.1449-5.1695 2.6021-.9888 1.301-1.1102 2.897-.4684 4.4929.8501 2.1337 2.6021 2.7756 4.3716 3.4174 1.3184.4857 3.0881.9715 4.1981 2.0817.538.5378.642 1.4572.26 2.2378-.399.85-1.526 1.4398-2.6193 1.4398-2.394 0-3.3654-2.151-3.4001-2.2378l-.1214-.2949-4.3369.8674.1041.3643c.0174.052.399 1.3531 1.5613 2.6715 1.0755 1.2143 3.0358 2.6715 6.3144 2.6715 2.7929 0 5.0129-1.197 6.2099-3.3654 1.128-2.0123 1.18-4.5277-.312-6.4185zm-57.5234-5.8634c-1.5786-.0347-3.2093.4163-4.0593 1.2143v-.7286h-4.3542v21.8403h4.3542v-7.8063c.7633.7286 2.3072 1.1622 3.7644 1.1969 4.4235.0868 7.546-3.5735 7.4767-7.9971-.0868-4.1807-3.0185-7.6328-7.1818-7.7195zm-.4511 11.9002c-2.0296.1041-3.5908-1.4745-3.6082-4.1633v-.1041c.0174-2.1858 1.5092-3.7817 3.2439-3.8685 2.0297-.104 3.6083 1.5786 3.6083 4.2675 0 2.3766-1.5092 3.7643-3.244 3.8684zm34.9721-11.8481c-2.602 0-3.8164 1.7173-3.8164 1.7173v-1.3184H74.871v14.9014h4.0592v-7.0083c0-2.446 1.1276-4.3889 3.1226-4.3889 1.9949 0 3.0704 1.7347 3.0704 4.3889v7.0083h4.1113v-8.3094c0-1.5959-.3816-6.9909-6.4879-6.9909z"/><path d="M22.62395 66.73845h-4.85038c0 1.87619.68745 3.42296 2.0576 4.64033 1.37013 1.2126 3.49456 1.8189 6.3685 1.8189 2.82144 0 4.9029-.57288 6.24917-1.71864 1.35105-1.14576 2.02418-2.6257 2.02418-4.43982 0-1.37492-.46785-2.52545-1.40833-3.44206-.95003-.90706-2.37745-1.5802-4.28228-2.02895-2.85008-.6254-4.51143-1.06937-4.98405-1.32717-.46786-.24347-.70656-.64449-.70656-1.18873 0-.4392.22438-.82112.66359-1.14576.44398-.31985 1.18395-.48217 2.22468-.48217 1.26511 0 2.16263.31986 2.68777.96912.27689.35805.45353.845.52036 1.46085h4.78355c-.21483-2.23424-1.04073-3.80966-2.4777-4.72149-1.43698-.91183-3.29884-1.37014-5.58081-1.37014-2.4061 0-4.27273.6063-5.59513 1.82367-1.32717 1.2126-1.99076 2.6639-1.99076 4.35389 0 1.4322.42489 2.53022 1.27466 3.28928.84977.7734 2.31062 1.4131 4.38253 1.9287 2.87395.68268 4.5353 1.16486 4.98406 1.44652.44875.2769.67313.68746.67313 1.22215 0 .55855-.27689.97867-.83067 1.26033-.55379.2769-1.3033.42011-2.24378.42011-1.5993 0-2.69731-.31985-3.28929-.95957-.33418-.35805-.55378-.95957-.65404-1.80935zm3.65689-12.94231zm34.55898.55378c-.78293-.3103-1.57542-.46785-2.38222-.46785-1.20783 0-2.30585.24825-3.28929.7543-.93093.50126-1.7091 1.29375-2.33449 2.3679-.35805-.89751-.88319-1.62794-1.57542-2.20082-.86409-.61584-1.99075-.92138-3.38954-.92138-1.47994 0-2.68298.35805-3.60914 1.07415-.52514.40102-1.08847 1.07893-1.68045 2.02895v-2.66866H37.9294v18.26055h4.85038V61.5682c0-.99776.1289-1.74728.3867-2.24855.47262-.8832 1.38923-1.32717 2.7546-1.32717 1.1744 0 1.9621.44398 2.36312 1.32717.22438.49172.33896 1.27943.33896 2.3679v10.8895h4.81696v-10.8895c0-.82113.1289-1.51813.3867-2.10056.50127-1.09802 1.4131-1.64225 2.7355-1.64225 1.14098 0 1.92392.42488 2.3488 1.27465.22438.44399.33419 1.01687.33419 1.7091v11.64856h4.9029l.03341-11.52921c0-1.18873-.05729-2.08624-.16709-2.70209-.18141-.93093-.52991-1.71386-1.04073-2.3488-.63972-.78294-1.35104-1.33195-2.13398-1.64704zm17.82612 9.33317v1.7807c-.03342 1.5993-.48695 2.70209-1.35104 3.30361-.86887.6063-1.8189.90706-2.8453.90706-.64927 0-1.20306-.1814-1.65181-.54423-.45353-.36283-.68268-.9548-.68268-1.77116 0-.9166.3676-1.59451 1.10756-2.03372.43921-.2578 1.16009-.47263 2.1674-.65404l1.07415-.2005c.53469-.10026.95957-.21006 1.26511-.32464.31031-.11935.61107-.27212.9166-.46308zm-2.9026-2.23423l-1.62793.20051c-1.84754.2387-3.24632.63017-4.19634 1.17918-1.73774 1.00731-2.60183 2.63525-2.60183 4.8838 0 1.73296.53946 3.07446 1.61838 4.0197 1.07893.94526 2.44906 1.41789 4.10564 1.41789 1.29376 0 2.45861-.296 3.4898-.89274.85932-.50127 1.62316-1.11234 2.28197-1.82844.03342.41533.07638.78293.13367 1.10756.05729.32464.15754.67314.30076 1.04074h5.20366v-.70656c-.31508-.14322-.549-.3294-.70655-.55378-.15277-.2196-.24825-.64449-.28167-1.27466-.02387-.8259-.03341-1.53245-.03341-2.11488v-8.38792c0-2.20559-.77817-3.70462-2.33449-4.50188-1.55632-.79248-3.33225-1.18873-5.33733-1.18873-3.07446 0-5.24663.80204-6.51174 2.41565-.79248 1.03118-1.24124 2.34403-1.3415 3.94332h4.61647c.1098-.70655.33418-1.2651.66836-1.67567.47262-.56333 1.26988-.84023 2.40132-.84023 1.00731 0 1.77115.14322 2.29152.42489.52036.28644.77816.8068.77816 1.55632 0 .61585-.33895 1.0646-1.02164 1.35582-.38192.17186-1.01208.31031-1.89527.42011zm.24825-7.65272zm23.321 5.89112c.64448 1.0837.96434 2.33448.96434 3.74281 0 1.71387-.3485 3.084-1.0455 4.11042-.70178 1.03118-1.71864 1.54677-3.04582 1.54677-.92138 0-1.71386-.25302-2.387-.75429-1.12666-.8641-1.69477-2.35836-1.69477-4.48279 0-1.34149.1671-2.44906.50605-3.3227.64926-1.64703 1.83799-2.46816 3.57572-2.46816 1.44175 0 2.48248.54424 3.12697 1.62794zm3.67597-3.44206c-1.47994-1.57542-3.29406-2.36313-5.42803-2.36313-1.46562 0-2.73073.4058-3.79533 1.22215-.58243.4583-1.12667 1.08847-1.64226 1.88095V54.2831H87.5599v25.49316h4.73103v-9.53368c.50605.77339 1.02164 1.36059 1.54678 1.76638.95957.72565 2.17217 1.08847 3.62347 1.08847 2.28197 0 4.1486-.845 5.5999-2.535 1.44652-1.68999 2.17217-4.14382 2.17217-7.36627 0-3.05536-.73997-5.37075-2.22469-6.95095zm15.84491-2.39177c-.06206-.00478-.13845-.00478-.22915-.00478-1.4322 0-2.59228.37238-3.4898 1.1219-.549.44875-1.18872 1.2842-1.9287 2.50157v-3.18903h-4.56394v18.29397h4.81697v-8.7412c0-1.47039.18141-2.55409.55378-3.26064.65882-1.25079 1.95257-1.87618 3.8765-1.87618.14321 0 .33417.00477.5681.01432.23392.01432.50604.03342.8068.06684v-4.89813c-.21483-.01432-.3485-.0191-.41056-.02864z"/></svg>
