<svg xmlns="http://www.w3.org/2000/svg" role="img" viewBox="-11.85 -11.85 616.20 383.20"><defs><clipPath id="a" clipPathUnits="userSpaceOnUse"><path d="M0 1000h1000V0H0z"/></clipPath></defs><g clip-path="url(#a)" transform="matrix(1.33333 0 0 -1.33333 -371.942 794.156)"><path fill="#231f20" d="M436.049 362.5h-14.444l-37.224 41.654-.024-41.675H369.96v61.905l14.397-.039 37.233-41.371.015 41.383 14.444.027z"/><path fill="#231f20" d="M530.555 424.405l-31.525-61.866-12.297-.039-31.675 61.884 16.147.039 21.834-42.405 21.385 42.405z"/><path fill="#231f20" d="M550.82 386.139h-15.525l.046 14.566 15.479.039z"/><path fill="#231f20" d="M639.936 362.604l-47.915-.026c-5.615 0-10.425 1.839-14.379 5.576-3.85 3.706-5.82 8.392-5.808 13.982v22.767c-.06 5.585 1.919 10.22 5.826 13.982 3.936 3.667 8.746 5.585 14.361 5.559l47.901.026v-14.444l-47.901-.039c-3.894 0-5.803-1.714-5.829-5.162l.026-22.702c.039-3.396 1.931-5.123 5.803-5.123l33.505-.017-.047 9.321-19.642-.021v14.483l34.085-.022z"/><path fill="#231f20" d="M723.692 362.666l-62.023-.062-.027 61.906 14.484-.027.017-47.434 47.549.017z"/><path fill="#231f20" d="M332.607 382.019c0-3.413-1.838-5.122-5.511-5.122l-33.44-.04-.048 14.357.128.027.049 18.616 33.287.044c3.681-.018 5.495-1.727 5.535-5.158zm8.567 36.763c-3.865 3.666-8.63 5.576-14.222 5.563l-47.756-.04-.024-8.785.024-5.637-.047-8.471.023-10.171.039-28.828 47.774.048c5.582.018 10.324 1.831 14.252 5.616 3.937 3.706 5.855 8.383 5.855 13.982l-.024 22.74c-.041 5.599-1.933 10.22-5.894 13.983"/><path fill="#294c9e" d="M278.981 459.132l436.868.191-.013 23.243-436.831-.205z"/><path fill="#a3d3ea" d="M715.81 595.617l-436.853-.168.024-68.151 436.868.192z"/><path fill="#68ac44" d="M279.005 504.83l.018-11.237 436.843.166v11.278z"/></g><path d="M89.38958 348.44144h-6.83205c0 3.56484 1.27646 6.36248 3.836 8.39953 2.55954 2.04366 6.06485 3.06219 10.52917 3.06219 4.37172 0 7.75799-1.03837 10.15218-3.10849 2.3942-2.0635 3.5913-4.66934 3.5913-7.79767 0-3.05558-1.01853-5.39025-3.0688-6.9974-1.31615-1.03837-3.26722-1.8717-5.85983-2.48679l-5.90613-1.42197c-2.27514-.54233-3.76325-1.0119-4.46431-1.41535-1.08467-.60847-1.627-1.52117-1.627-2.74473 0-1.33598.54895-2.37435 1.65345-3.1151 1.0979-.74736 2.57277-1.11773 4.41802-1.11773 1.66007 0 3.04235.2844 4.16008.8598 1.6733.8664 2.57277 2.33467 2.69843 4.39156h6.87835c-.11904-3.6376-1.45503-6.41539-4.00796-8.33339-2.55293-1.91139-5.62834-2.87039-9.23948-2.87039-4.32542 0-7.60587 1.01191-9.84133 3.04235-2.22885 2.03705-3.34658 4.58336-3.34658 7.65217 0 3.36642 1.15741 5.83998 3.46563 7.42068 1.36244.94577 3.82939 1.8188 7.39422 2.62568l3.62437.8135c2.12964.46296 3.68388.99868 4.67595 1.60715.99207.61508 1.4881 1.49472 1.4881 2.62568 0 1.93784-.99867 3.2606-2.99604 3.9749-1.05821.37036-2.42727.55555-4.1204.55555-2.81748 0-4.80823-.70106-5.97226-2.11641-.63493-.77382-1.06482-1.94446-1.28308-3.50532zm6.95772-24.74222zm50.708 10.0662c-1.08466-.4299-2.18255-.64815-3.30028-.64815-1.6733 0-3.19447.34391-4.55691 1.04498-1.2897.69445-2.36774 1.79234-3.23415 3.28044-.49603-1.2434-1.22355-2.2553-2.18255-3.04896-1.1971-.85318-2.75796-1.27646-4.6958-1.27646-2.05028 0-3.71696.49603-5.00003 1.4881-.72752.55556-1.50795 1.49472-2.32806 2.81087v-3.69712h-6.44184v25.29779h6.71962v-15.25143c0-1.38228.17857-2.42065.53572-3.1151.65476-1.22355 1.92461-1.83863 3.81616-1.83863 1.627 0 2.71827.61508 3.27383 1.83863.31085.68123.46958 1.7725.46958 3.28045v15.08608h6.67332v-15.08608c0-1.13757.17858-2.10319.53572-2.91007.69445-1.52118 1.95769-2.27515 3.7897-2.27515 1.5807 0 2.66537.58863 3.254 1.76588.31085.61509.46296 1.40874.46296 2.36775v16.13767h6.79238l.0463-15.97233c0-1.64684-.07937-2.89023-.23149-3.74341-.25132-1.2897-.73413-2.37435-1.4418-3.25399-.88626-1.08466-1.87171-1.84525-2.95638-2.28176zm24.69593 12.92998v2.46695c-.0463 2.21562-.6746 3.7434-1.8717 4.57674-1.20371.83996-2.51986 1.25663-3.94183 1.25663-.89947 0-1.66667-.25133-2.28837-.75398-.62831-.50265-.94578-1.32276-.94578-2.45372 0-1.26985.51588-2.209 1.5344-2.81747.60848-.35715 1.60716-.65477 3.00267-.9061l1.4881-.27778c.74075-.13888 1.32938-.291 1.75266-.44973.4299-.16535.84657-.37699 1.26985-.64154zm-4.02119-3.09526l-2.2553.27778c-2.55954.33069-4.49739.87302-5.81353 1.6336-2.40743 1.39552-3.60452 3.65083-3.60452 6.76593 0 2.4008.74735 4.25928 2.24207 5.56881 1.49472 1.30954 3.39288 1.9643 5.68787 1.9643 1.79234 0 3.4061-.41005 4.83469-1.23678 1.19048-.69445 2.2487-1.54101 3.1614-2.53308.0463.5754.10582 1.08466.18518 1.5344.07937.44974.21826.93254.41667 1.4418h7.20904v-.97884c-.4299-.1984-.76058-.45635-.97222-.7672-.21826-.30423-.35054-.89286-.39683-1.76588-.03307-1.14419-.0463-2.12303-.0463-2.92991v-11.62045c0-3.05558-1.07805-5.1323-3.23415-6.23681-2.1561-1.0979-4.61643-1.64684-7.39423-1.64684-4.25928 0-7.26856 1.11112-9.02122 3.34658-1.09789 1.42858-1.71959 3.24738-1.85848 5.463h6.39555c.15211-.97884.46296-1.75266.92593-2.32144.65477-.78043 1.75927-1.16403 3.32674-1.16403 1.39551 0 2.45372.19841 3.17462.58863.7209.39683 1.07805 1.11773 1.07805 2.1561 0 .85318-.46958 1.47487-1.41535 1.87832-.5291.2381-1.40212.4299-2.62568.582zm.34392-10.60192zm30.26475.07936c-.08598-.00661-.1918-.00661-.31746-.00661-1.98414 0-3.5913.51588-4.8347 1.55424-.76058.6217-1.64683 1.77912-2.67197 3.46563v-4.41801h-6.32279v25.34408h6.67332v-12.10987c0-2.03705.25133-3.53838.7672-4.51723.91271-1.73281 2.70505-2.59922 5.37041-2.59922.19842 0 .46297.00661.78704.01984.32408.01984.70107.0463 1.11774.0926v-6.78576c-.29763-.01985-.48281-.02646-.5688-.03969zm1.84525 5.54898h3.53838v15.60196c0 1.5807.37037 2.75134 1.11773 3.51192 1.1442 1.19049 3.28045 1.73282 6.41539 1.627l3.13494-.11905v-4.95374c-.21164.01985-.4365.03307-.66138.03969-.22487.00661-.4365.01322-.63492.01322-1.34922 0-2.1561-.13227-2.42065-.39021-.26456-.25132-.39683-.89948-.39683-1.93784v-13.39295h4.11378v-4.72225h-4.11378v-7.06354h-6.55428v7.06354h-3.53838zm35.55579-10.29768c-3.2077 3.23414-4.81485 7.85058-4.81485 13.82945 0 5.53575 1.40874 9.89425 4.23283 13.06887 2.81748 3.1614 6.69317 4.7421 11.62706 4.7421 3.98151 0 7.24873-1.17065 9.80166-3.51193 2.5463-2.33467 4.13362-5.37702 4.7487-9.11382h-7.08999c-.4762 1.76588-1.08466 3.09526-1.81218 3.9749-1.31615 1.64683-3.23415 2.46694-5.74078 2.46694-2.45372 0-4.47093-.959-6.05824-2.87039-1.58731-1.918-2.38758-4.795-2.38758-8.63762s.75397-6.81883 2.2553-8.9154c1.50795-2.1032 3.55823-3.15479 6.16407-3.15479 2.55954 0 4.49077.74736 5.79368 2.23547.72752.83334 1.32276 2.07673 1.78573 3.71695h7.16275c-.10583-2.13625-.89948-4.2659-2.37436-6.39554-2.66536-3.77648-6.87835-5.66803-12.64558-5.66803-4.3122 0-7.8572 1.40874-10.64822 4.23284zm10.43657-4.62966zm34.06769 22.99618v2.46695c-.0463 2.21562-.6746 3.7434-1.8717 4.57674-1.20372.83996-2.51987 1.25663-3.94183 1.25663-.89948 0-1.66668-.25133-2.295-.75398-.62169-.50265-.93915-1.32276-.93915-2.45372 0-1.26985.50926-2.209 1.5344-2.81747.60847-.35715 1.60715-.65477 3.00267-.9061l1.4881-.27778c.74075-.13888 1.32938-.291 1.75266-.44973.4299-.16535.84657-.37699 1.26985-.64154zm-4.0278-3.09526l-2.25531.27778c-2.55293.33069-4.49077.87302-5.80692 1.6336-2.40742 1.39552-3.60452 3.65083-3.60452 6.76593 0 2.4008.74736 4.25928 2.24208 5.56881 1.49472 1.30954 3.39288 1.9643 5.68125 1.9643 1.79896 0 3.41272-.41005 4.8413-1.23678 1.19049-.69445 2.2487-1.54101 3.1614-2.53308.0463.5754.10582 1.08466.18519 1.5344.07936.44974.21825.93254.41667 1.4418h7.20904v-.97884c-.43651-.1984-.76059-.45635-.97884-.7672-.21165-.30423-.34392-.89286-.39022-1.76588-.03307-1.14419-.0463-2.12303-.0463-2.92991v-11.62045c0-3.05558-1.07804-5.1323-3.23414-6.23681-2.1561-1.0979-4.61643-1.64684-7.39423-1.64684-4.2659 0-7.26857 1.11112-9.02122 3.34658-1.0979 1.42858-1.7196 3.24738-1.85848 5.463h6.38893c.15873-.97884.46958-1.75266.93254-2.32144.65477-.78043 1.75928-1.16403 3.32675-1.16403 1.3955 0 2.45372.19841 3.17462.58863.7209.39683 1.07805 1.11773 1.07805 2.1561 0 .85318-.46958 1.47487-1.41535 1.87832-.5291.2381-1.40213.4299-2.6323.582zm.35053-10.60192zm37.70527 3.72357c-1.88493-2.40743-4.49077-3.60452-7.82413-3.60452-1.84525 0-3.36642.3836-4.5569 1.16403-1.01192.61508-1.93123 1.51456-2.77119 2.69181V324.7905h-6.60057v34.22642h6.48814v-3.18124c.87963 1.23678 1.70636 2.10319 2.46033 2.59922 1.27647.83996 2.95637 1.25662 5.04633 1.25662 3.33336 0 5.93258-1.2963 7.79106-3.8823 1.85848-2.586 2.79102-5.8532 2.79102-9.78842 0-3.79632-.93916-6.8982-2.8241-9.299zm-5.54898 15.4366c-.94577 1.3823-2.26853 2.07013-3.9749 2.07013-1.9709 0-3.43256-.7143-4.39156-2.14288-.96561-1.42196-1.4418-3.22092-1.4418-5.39024 0-1.84525.23148-3.34658.69444-4.51061.89948-2.18917 2.55293-3.28045 4.95374-3.28045 2.37435 0 4.00135 1.11773 4.88099 3.34658.46957 1.18387.70106 2.67198.70106 4.46432 0 2.2487-.4762 4.06087-1.42197 5.44316zm19.88108 6.85852V324.7442h-6.62702v34.2727zm12.89691-19.11388c.83996-.959 2.03044-1.44181 3.56484-1.44181 1.41536 0 2.59261.45635 3.545 1.36244.959.90609 1.4881 2.23546 1.59392 3.98812H339.9071c.21825-1.64684.74736-2.94314 1.59392-3.90875zm9.26594-5.72094c-1.69314-.78704-3.5913-1.18387-5.7011-1.18387-3.545 0-6.43523 1.17064-8.65746 3.51193-2.22885 2.34128-3.33997 5.7077-3.33997 10.09265 0 4.68258 1.23678 8.06223 3.69711 10.13896 2.46695 2.07673 5.31088 3.1151 8.5318 3.1151 3.90876 0 6.9445-1.23678 9.12044-3.69711 1.3889-1.55425 2.17594-3.08204 2.3479-4.58337h-6.76592c-.35715.74736-.7672 1.32938-1.23678 1.74605-.85318.77381-1.95769 1.16402-3.32675 1.16402-1.28307 0-2.38096-.31746-3.30028-.959-1.50133-1.01852-2.3016-2.80425-2.3942-5.34395h17.348c.02646-2.18916-.03968-3.86246-.21164-5.02649-.291-1.98414-.93916-3.72356-1.93123-5.23151-1.0979-1.69975-2.4934-2.94976-4.17992-3.74341zm-5.23152-1.18387zm52.82442 2.44049h7.0437c-.3836-3.30029-1.89816-6.05824-4.54368-8.26725-2.64552-2.2024-6.14422-3.3069-10.4961-3.3069-5.02649 0-9.0609 1.6733-12.11648 5.01987-3.05558 3.34659-4.58337 7.79767-4.58337 13.34665 0 5.48946 1.51456 9.80827 4.53707 12.97628 2.89684 3.14155 6.62041 4.71564 11.1641 4.71564 2.75795 0 5.0794-.58202 6.97094-1.73943 1.1045-.668 2.34128-1.8188 3.72357-3.4458l.7209 4.27914h4.7421v-18.39298h-14.2792v5.72094h7.92995c-.35715 2.24869-1.30292 4.06748-2.83732 5.45638-1.5344 1.38229-3.50531 2.07673-5.90612 2.07673-2.44711 0-4.63628-.87302-6.55428-2.62567-1.92462-1.75266-2.88362-4.73548-2.88362-8.95509 0-4.17992.88625-7.31486 2.65875-9.40482 1.77911-2.08335 4.04765-3.12833 6.8056-3.12833 1.44181 0 2.75134.25794 3.9286.77381 2.1098.92594 3.43256 2.55955 3.9749 4.90083zm-8.02254-11.57415zm28.08881 9.80827h-6.79237v15.27787c0 2.89685.37037 5.09263 1.09789 6.58073 1.30292 2.69844 3.82939 4.04765 7.57941 4.04765 1.30292 0 2.43388-.17196 3.40611-.51588.96562-.3373 1.97091-.97222 3.00928-1.90477.34392-.29762.63493-.63493.88625-1.02514.24471-.3836.40344-.6217.46297-.69445v3.57807h6.44184v-25.34408h-6.71962v13.78977c0 1.627-.21826 2.93653-.65477 3.9286-.83334 1.83202-2.38758 2.74472-4.6495 2.74472-1.76589 0-2.94976-.64154-3.55823-1.93123-.3373-.72751-.50926-1.81218-.50926-3.25399zm4.6495-.67461zm31.81238 13.69718v2.46695c-.0463 2.21562-.6746 3.7434-1.8717 4.57674-1.20372.83996-2.51986 1.25663-3.94183 1.25663-.89948 0-1.66668-.25133-2.29499-.75398-.6283-.50265-.93916-1.32276-.93916-2.45372 0-1.26985.50927-2.209 1.5344-2.81747.60186-.35715 1.60716-.65477 3.00267-.9061l1.4881-.27778c.74075-.13888 1.32276-.291 1.75266-.44973.42328-.16535.84657-.37699 1.26985-.64154zm-4.0278-3.09526l-2.2553.27778c-2.55294.33069-4.49078.87302-5.81354 1.6336-2.4008 1.39552-3.60452 3.65083-3.60452 6.76593 0 2.4008.75397 4.25928 2.2487 5.56881 1.49471 1.30954 3.38626 1.9643 5.68125 1.9643 1.79895 0 3.41272-.41005 4.8413-1.23678 1.19048-.69445 2.24208-1.54101 3.1614-2.53308.0463.5754.10581 1.08466.18518 1.5344.07937.44974.21826.93254.41667 1.4418h7.20904v-.97884c-.4365-.1984-.76059-.45635-.97884-.7672-.21826-.30423-.34392-.89286-.39021-1.76588-.03307-1.14419-.05292-2.12303-.05292-2.92991v-11.62045c0-3.05558-1.07143-5.1323-3.22753-6.23681-2.1561-1.0979-4.62305-1.64684-7.39423-1.64684-4.2659 0-7.26856 1.11112-9.02122 3.34658-1.1045 1.42858-1.71959 3.24738-1.85848 5.463h6.38893c.15873-.97884.46958-1.75266.93255-2.32144.64815-.78043 1.75927-1.16403 3.32674-1.16403 1.39551 0 2.45372.19841 3.17462.58863.7209.39683 1.07805 1.11773 1.07805 2.1561 0 .85318-.46958 1.47487-1.41535 1.87832-.5291.2381-1.40874.4299-2.6323.582zm.35053-10.60192zm30.26475.07936c-.08598-.00661-.1918-.00661-.31747-.00661-1.98414 0-3.5979.51588-4.83468 1.55424-.76059.6217-1.65345 1.77912-2.67198 3.46563v-4.41801h-6.3294v25.34408h6.67332v-12.10987c0-2.03705.25794-3.53838.7672-4.51723.91932-1.73281 2.70504-2.59922 5.37702-2.59922.19841 0 .46297.00661.78704.01984.32408.01984.70106.0463 1.11773.0926v-6.78576c-.29762-.01984-.4828-.02646-.56878-.03969zm17.89033 1.0053c-1.1971-.6746-2.55954-1.01191-4.09395-1.01191-3.33335 0-5.9921 1.23678-7.98285 3.71696-1.99737 2.48017-2.98944 5.88628-2.98944 10.2117 0 3.75003 1.01191 6.81883 3.03573 9.21964 2.01721 2.3942 4.51062 3.5913 7.4736 3.5913 1.79895 0 3.30028-.34392 4.5106-1.02515 1.21033-.68122 2.28838-1.7725 3.23416-3.28044v3.51193h6.43522v-34.22642h-6.71962v12.09003c-.74074-1.19049-1.71297-2.12303-2.90345-2.79764zm1.627 18.05568c-.97885 1.3889-2.40082 2.08996-4.27914 2.08996-1.8717 0-3.27383-.70107-4.19315-2.1032-.92593-1.40212-1.3889-3.27382-1.3889-5.6151 0-2.16933.45636-3.98813 1.36245-5.4564.90609-1.46164 2.32806-2.19578 4.2659-2.19578 1.26985 0 2.38758.40345 3.34658 1.21033 1.56747 1.32937 2.35451 3.55161 2.35451 6.64687 0 2.22224-.48942 4.0278-1.46826 5.42332z"/></svg>