<?xml version="1.0" encoding="UTF-8" standalone="no"?>
<svg
   version="1.1"
   id="svg4"
   width="114.04688"
   height="9.2988281"
   xmlns="http://www.w3.org/2000/svg"
   xmlns:svg="http://www.w3.org/2000/svg">
  <defs
     id="defs8" />
  <g
     aria-label="Smart Data Models"
     id="text2"
     transform="translate(-0.78515625,9.1171875)">
    <path
       d="m 7.5117187,-2.4902344 q 0,0.5097657 -0.2402343,1.0078125 -0.234375,0.4980469 -0.6621094,0.84375003 -0.46875,0.37499999 -1.0957031,0.5859375 -0.6210938,0.21093749 -1.5,0.21093749 -0.9433594,0 -1.6992188,-0.17578125 -0.75,-0.17578124 -1.52929685,-0.52148437 v -1.453125 h 0.0820313 Q 1.529297,-1.4414062 2.3964845,-1.1425781 3.263672,-0.84375 4.0253907,-0.84375 q 1.078125,0 1.6757813,-0.4042969 0.6035156,-0.4042968 0.6035156,-1.078125 0,-0.5800781 -0.2871095,-0.8554687 Q 5.7363281,-3.4570313 5.15625,-3.609375 4.7167969,-3.7265625 4.2011719,-3.8027344 3.6914063,-3.8789063 3.1171875,-3.9960938 1.9570312,-4.2421875 1.3945312,-4.8339844 0.83789063,-5.4316406 0.83789063,-6.3867187 q 0,-1.0957032 0.92578127,-1.7929688 0.9257812,-0.703125 2.3496093,-0.703125 0.9199219,0 1.6875,0.1757812 0.7675782,0.1757813 1.359375,0.4335938 v 1.3710938 H 7.078125 q -0.4980469,-0.421875 -1.3125,-0.6972657 -0.8085938,-0.28125 -1.6582031,-0.28125 -0.9316406,0 -1.5,0.3867188 -0.5625,0.3867187 -0.5625,0.9960937 0,0.5449219 0.28125,0.8554688 0.28125,0.3105469 0.9902344,0.4746094 0.375,0.082031 1.0664062,0.1992187 0.6914062,0.1171875 1.171875,0.2402344 0.9726562,0.2578125 1.4648437,0.7792968 0.4921875,0.5214844 0.4921875,1.4589844 z"
       id="path10" />
    <path
       d="m 18.837891,0 h -1.101563 v -3.7265625 q 0,-0.421875 -0.04102,-0.8144531 -0.03516,-0.3925781 -0.158203,-0.6269531 -0.134765,-0.2519532 -0.386718,-0.3808594 -0.251954,-0.1289063 -0.726563,-0.1289063 -0.46289,0 -0.925781,0.234375 -0.462891,0.2285157 -0.925781,0.5859375 0.01758,0.1347657 0.0293,0.3164063 0.01172,0.1757812 0.01172,0.3515625 V 0 H 13.51172 v -3.7265625 q 0,-0.4335937 -0.04102,-0.8203125 -0.03516,-0.3925781 -0.158203,-0.6269531 -0.134766,-0.2519531 -0.386719,-0.375 -0.251953,-0.1289063 -0.726562,-0.1289063 -0.451172,0 -0.908203,0.2226563 -0.451172,0.2226562 -0.902344,0.5683594 V 0 H 9.2871094 v -6.5449219 h 1.1015626 v 0.7265625 q 0.515625,-0.4277343 1.025391,-0.6679687 0.515625,-0.2402344 1.095703,-0.2402344 0.667968,0 1.130859,0.28125 0.46875,0.28125 0.697266,0.7792969 0.667968,-0.5625 1.21875,-0.8085938 0.550781,-0.2519531 1.177734,-0.2519531 1.078125,0 1.587891,0.65625 0.515625,0.6503906 0.515625,1.8222656 z"
       id="path12" />
    <path
       d="m 26.044922,0 h -1.095703 v -0.69726562 q -0.146485,0.0996094 -0.398438,0.28124999 -0.246094,0.17578125 -0.480469,0.28125001 Q 23.794922,0 23.4375,0.08789062 q -0.357422,0.09375 -0.837891,0.09375 -0.884765,0 -1.5,-0.5859375 -0.615234,-0.5859375 -0.615234,-1.49414062 0,-0.7441406 0.316406,-1.2011719 0.322266,-0.4628906 0.914063,-0.7265625 0.597656,-0.2636718 1.435547,-0.3574218 0.83789,-0.09375 1.798828,-0.140625 v -0.1699219 q 0,-0.375 -0.134766,-0.6210938 -0.128906,-0.2460937 -0.375,-0.3867187 -0.234375,-0.1347656 -0.5625,-0.1816406 -0.328125,-0.046875 -0.685547,-0.046875 -0.433594,0 -0.966797,0.1171875 -0.533203,0.1113281 -1.101562,0.328125 h -0.05859 v -1.1191407 q 0.322266,-0.087891 0.931641,-0.1933593 0.609375,-0.1054688 1.201172,-0.1054688 0.691406,0 1.201171,0.1171875 0.515625,0.1113281 0.890625,0.3867188 0.369141,0.2695312 0.5625,0.6972656 0.19336,0.4277344 0.19336,1.0605469 z m -1.095703,-1.6113281 v -1.8222657 q -0.503907,0.029297 -1.189453,0.087891 -0.679688,0.058594 -1.078125,0.1699218 -0.47461,0.1347657 -0.767579,0.421875 -0.292968,0.28125 -0.292968,0.7792969 0,0.5625 0.339843,0.8496094 0.339844,0.28125 1.03711,0.28125 0.580078,0 1.060547,-0.2226562 0.480468,-0.2285157 0.890625,-0.5449222 z"
       id="path14" />
    <path
       d="m 32.25,-5.34375 h -0.05859 q -0.246094,-0.058594 -0.480469,-0.082031 -0.228515,-0.029297 -0.544921,-0.029297 -0.509766,0 -0.984375,0.2285156 -0.47461,0.2226563 -0.914063,0.5800781 V 0 H 28.16602 v -6.5449219 h 1.101562 v 0.9667969 q 0.65625,-0.5273437 1.154297,-0.7441406 0.503906,-0.2226563 1.025391,-0.2226563 0.287109,0 0.416015,0.017578 0.128906,0.011719 0.386719,0.052734 z"
       id="path16" />
    <path
       d="M 36.685547,-0.05859375 Q 36.375,0.0234375 36.005859,0.07617187 q -0.363281,0.05273438 -0.65039,0.05273438 -1.001953,0 -1.523438,-0.5390625 -0.521484,-0.5390625 -0.521484,-1.72851565 v -3.4804687 h -0.744141 v -0.9257813 h 0.744141 v -1.8808594 h 1.101562 v 1.8808594 h 2.273438 v 0.9257813 h -2.273438 v 2.9824218 q 0,0.515625 0.02344,0.8085938 0.02344,0.2871094 0.164062,0.5390625 0.128907,0.234375 0.351563,0.34570312 0.228515,0.10546875 0.691406,0.10546875 0.269531,0 0.5625,-0.0761719 0.292969,-0.0820313 0.421875,-0.13476557 h 0.05859 z"
       id="path18" />
    <path
       d="m 49.693359,-4.3535156 q 0,1.1894531 -0.521484,2.15625 -0.515625,0.9667969 -1.376953,1.49999998 Q 47.197266,-0.328125 46.458984,-0.1640625 45.726562,0 44.525391,0 h -2.203125 v -8.7246094 h 2.179687 q 1.277344,0 2.027344,0.1875 0.755859,0.1816406 1.277344,0.5039063 0.890625,0.5566406 1.388671,1.4824219 0.498047,0.9257812 0.498047,2.1972656 z m -1.21289,-0.017578 q 0,-1.0253907 -0.357422,-1.7285157 -0.357422,-0.703125 -1.066406,-1.1074218 Q 46.541016,-7.5 45.960937,-7.6113281 45.380859,-7.7285156 44.572266,-7.7285156 h -1.089844 v 6.73242185 h 1.089844 q 0.83789,0 1.458984,-0.12304685 0.626953,-0.1230469 1.148437,-0.4570313 0.650391,-0.4160156 0.972657,-1.0957031 0.328125,-0.6796875 0.328125,-1.6992186 z"
       id="path20" />
    <path
       d="m 56.566406,0 h -1.095703 v -0.69726562 q -0.146484,0.0996094 -0.398437,0.28124999 -0.246094,0.17578125 -0.480469,0.28125001 Q 54.316406,0 53.958984,0.08789062 q -0.357422,0.09375 -0.83789,0.09375 -0.884766,0 -1.5,-0.5859375 -0.615235,-0.5859375 -0.615235,-1.49414062 0,-0.7441406 0.316407,-1.2011719 0.322265,-0.4628906 0.914062,-0.7265625 0.597656,-0.2636718 1.435547,-0.3574218 0.837891,-0.09375 1.798828,-0.140625 v -0.1699219 q 0,-0.375 -0.134766,-0.6210938 -0.128906,-0.2460937 -0.375,-0.3867187 -0.234375,-0.1347656 -0.5625,-0.1816406 -0.328125,-0.046875 -0.685546,-0.046875 -0.433594,0 -0.966797,0.1171875 -0.533203,0.1113281 -1.101563,0.328125 h -0.05859 v -1.1191407 q 0.322266,-0.087891 0.931641,-0.1933593 0.609375,-0.1054688 1.201172,-0.1054688 0.691406,0 1.201172,0.1171875 0.515625,0.1113281 0.890625,0.3867188 0.36914,0.2695312 0.5625,0.6972656 0.193359,0.4277344 0.193359,1.0605469 z m -1.095703,-1.6113281 v -1.8222657 q -0.503906,0.029297 -1.189453,0.087891 -0.679688,0.058594 -1.078125,0.1699218 -0.474609,0.1347657 -0.767578,0.421875 -0.292969,0.28125 -0.292969,0.7792969 0,0.5625 0.339844,0.8496094 0.339844,0.28125 1.037109,0.28125 0.580078,0 1.060547,-0.2226562 0.480469,-0.2285157 0.890625,-0.5449222 z"
       id="path22" />
    <path
       d="m 62.085937,-0.05859375 q -0.310546,0.08203125 -0.679687,0.13476562 -0.363281,0.05273438 -0.650391,0.05273438 -1.001953,0 -1.523437,-0.5390625 -0.521485,-0.5390625 -0.521485,-1.72851565 v -3.4804687 h -0.74414 v -0.9257813 h 0.74414 V -8.4257813 H 59.8125 v 1.8808594 h 2.273437 v 0.9257813 H 59.8125 v 2.9824218 q 0,0.515625 0.02344,0.8085938 0.02344,0.2871094 0.164063,0.5390625 0.128906,0.234375 0.351562,0.34570312 0.228516,0.10546875 0.691407,0.10546875 0.269531,0 0.5625,-0.0761719 0.292968,-0.0820313 0.421875,-0.13476557 h 0.05859 z"
       id="path24" />
    <path
       d="M 68.501953,0 H 67.40625 v -0.69726562 q -0.146484,0.0996094 -0.398438,0.28124999 -0.246093,0.17578125 -0.480468,0.28125001 Q 66.251953,0 65.894531,0.08789062 q -0.357422,0.09375 -0.83789,0.09375 -0.884766,0 -1.5,-0.5859375 -0.615235,-0.5859375 -0.615235,-1.49414062 0,-0.7441406 0.316406,-1.2011719 0.322266,-0.4628906 0.914063,-0.7265625 0.597656,-0.2636718 1.435547,-0.3574218 0.83789,-0.09375 1.798828,-0.140625 v -0.1699219 q 0,-0.375 -0.134766,-0.6210938 -0.128906,-0.2460937 -0.375,-0.3867187 -0.234375,-0.1347656 -0.5625,-0.1816406 -0.328125,-0.046875 -0.685547,-0.046875 -0.433593,0 -0.966796,0.1171875 -0.533204,0.1113281 -1.101563,0.328125 h -0.05859 v -1.1191407 q 0.322266,-0.087891 0.931641,-0.1933593 0.609375,-0.1054688 1.201172,-0.1054688 0.691406,0 1.201172,0.1171875 0.515625,0.1113281 0.890625,0.3867188 0.36914,0.2695312 0.5625,0.6972656 0.193359,0.4277344 0.193359,1.0605469 z M 67.40625,-1.6113281 v -1.8222657 q -0.503906,0.029297 -1.189453,0.087891 -0.679688,0.058594 -1.078125,0.1699218 -0.47461,0.1347657 -0.767578,0.421875 -0.292969,0.28125 -0.292969,0.7792969 0,0.5625 0.339844,0.8496094 0.339843,0.28125 1.037109,0.28125 0.580078,0 1.060547,-0.2226562 0.480469,-0.2285157 0.890625,-0.5449222 z"
       id="path26" />
    <path
       d="m 82.699219,0 h -1.160157 v -7.5175781 l -2.425781,5.1152343 H 78.421875 L 76.013672,-7.5175781 V 0 h -1.083985 v -8.7246094 h 1.582032 l 2.326172,4.8574219 2.25,-4.8574219 h 1.611328 z"
       id="path28" />
    <path
       d="m 90.533203,-3.2695313 q 0,1.5996094 -0.820312,2.52539068 -0.820313,0.92578124 -2.197266,0.92578124 -1.388672,0 -2.208984,-0.92578124 -0.814454,-0.92578128 -0.814454,-2.52539068 0,-1.5996093 0.814454,-2.5253906 0.820312,-0.9316406 2.208984,-0.9316406 1.376953,0 2.197266,0.9316406 0.820312,0.9257813 0.820312,2.5253906 z m -1.136719,0 q 0,-1.2714843 -0.498047,-1.8867187 -0.498046,-0.6210937 -1.382812,-0.6210937 -0.896484,0 -1.394531,0.6210937 -0.492188,0.6152344 -0.492188,1.8867187 0,1.2304688 0.498047,1.8691407 0.498047,0.63281248 1.388672,0.63281248 0.878906,0 1.376953,-0.62695308 0.503906,-0.6328126 0.503906,-1.8750001 z"
       id="path30" />
    <path
       d="m 97.546875,0 h -1.101563 v -0.68554687 q -0.474609,0.41015624 -0.990234,0.63867187 -0.515625,0.22851562 -1.119141,0.22851562 -1.171875,0 -1.863281,-0.90234374 -0.685547,-0.90234378 -0.685547,-2.50195318 0,-0.8320312 0.234375,-1.4824218 0.240235,-0.6503906 0.644532,-1.1074219 0.398437,-0.4453125 0.925781,-0.6796875 0.533203,-0.234375 1.101562,-0.234375 0.515625,0 0.914063,0.1113281 0.398437,0.1054688 0.83789,0.3339844 v -2.8359375 h 1.101563 z M 96.445312,-1.6113281 V -5.3671875 Q 96,-5.5664062 95.648437,-5.6425781 95.296875,-5.71875 94.880859,-5.71875 q -0.925781,0 -1.441406,0.6445313 -0.515625,0.6445312 -0.515625,1.8281249 0,1.1660157 0.398438,1.7753907 0.398437,0.6035156 1.277343,0.6035156 0.46875,0 0.949219,-0.2050781 0.480469,-0.2109375 0.896484,-0.5390625 z"
       id="path32" />
    <path
       d="m 105.19336,-3.1582031 h -4.82227 q 0,0.6035156 0.18164,1.0546875 0.18165,0.4453125 0.49805,0.7324219 0.30469,0.28125 0.7207,0.42187495 0.42188,0.140625 0.92579,0.140625 0.66796,0 1.34179,-0.26367185 0.67969,-0.2695313 0.9668,-0.5273438 h 0.0586 v 1.2011719 q -0.55664,0.234375 -1.13672,0.39257812 -0.58007,0.15820313 -1.21875,0.15820313 -1.6289,0 -2.54296,-0.87890625 -0.914067,-0.8847656 -0.914067,-2.5078125 0,-1.6054687 0.873047,-2.5488281 0.87891,-0.9433594 2.30859,-0.9433594 1.32422,0 2.03907,0.7734375 0.7207,0.7734375 0.7207,2.1972656 z m -1.07227,-0.84375 q -0.006,-0.8671875 -0.43945,-1.3417969 -0.42773,-0.4746094 -1.30664,-0.4746094 -0.88477,0 -1.41211,0.5214844 -0.52148,0.5214844 -0.5918,1.2949219 z"
       id="path34" />
    <path
       d="M 107.97656,0 H 106.875 v -9.1171875 h 1.10156 z"
       id="path36" />
    <path
       d="m 114.83203,-1.8867187 q 0,0.89648432 -0.74414,1.47070307 -0.73828,0.57421875 -2.02148,0.57421875 -0.72657,0 -1.33594,-0.16992187 Q 110.12695,-0.1875 109.7168,-0.39257813 V -1.6289062 h 0.0586 q 0.52149,0.3925781 1.16016,0.6269531 0.63867,0.2285156 1.22461,0.2285156 0.72656,0 1.13672,-0.234375 0.41015,-0.234375 0.41015,-0.7382812 0,-0.3867188 -0.22265,-0.5859376 -0.22266,-0.1992187 -0.85547,-0.3398437 -0.23438,-0.052734 -0.61524,-0.1230469 -0.375,-0.070312 -0.68554,-0.1523437 -0.86133,-0.2285157 -1.22461,-0.6679688 -0.35743,-0.4453125 -0.35743,-1.0898437 0,-0.4042969 0.16407,-0.7617188 0.16992,-0.3574218 0.50976,-0.6386718 0.32813,-0.2753907 0.83203,-0.4335938 0.50977,-0.1640625 1.13672,-0.1640625 0.58594,0 1.1836,0.1464844 0.60351,0.140625 1.00195,0.3457031 v 1.1777344 h -0.0586 q -0.42188,-0.3105469 -1.0254,-0.5214844 -0.60351,-0.2167969 -1.18359,-0.2167969 -0.60351,0 -1.01953,0.234375 -0.41602,0.2285157 -0.41602,0.6855469 0,0.4042969 0.25196,0.609375 0.24609,0.2050781 0.79687,0.3339844 0.30469,0.070312 0.67969,0.140625 0.38086,0.070312 0.63281,0.1289062 0.76758,0.1757813 1.1836,0.6035156 0.41601,0.4335938 0.41601,1.1484376 z"
       id="path38" />
  </g>
</svg>
