<svg width="249.4" height="72.401" viewBox="0 0 249.4 72.401" xmlns="http://www.w3.org/2000/svg"><g id="svgGroup" stroke-linecap="round" fill-rule="evenodd" font-size="9pt" stroke="#000" stroke-width="0.25mm" fill="#000" style="stroke:#000;stroke-width:0.25mm;fill:#000"><path d="M 71.8 71.2 L 62.8 71.2 L 62.8 1.2 L 76.1 1.2 L 95.5 45.5 L 114.6 1.2 L 128.2 1.2 L 128.2 71.2 L 118.7 71.2 L 118.7 13.3 L 100 55.4 L 90.6 55.4 L 71.8 13.3 L 71.8 71.2 Z M 0 65.3 L 4.8 57.3 Q 8.4 60.3 12.9 62.2 A 23.348 23.348 0 0 0 18.27 63.71 A 32.118 32.118 0 0 0 23.4 64.1 A 27.981 27.981 0 0 0 27.947 63.754 Q 30.37 63.354 32.331 62.494 A 13.701 13.701 0 0 0 34.8 61.1 Q 38.848 58.209 38.995 53.366 A 12.116 12.116 0 0 0 39 53 A 11.94 11.94 0 0 0 38.663 50.107 A 9.816 9.816 0 0 0 37.8 47.85 A 8.097 8.097 0 0 0 36.6 46.194 Q 35.33 44.813 33.184 43.471 A 25.81 25.81 0 0 0 33.15 43.45 Q 30.034 41.508 24.265 39.28 A 118.584 118.584 0 0 0 23 38.8 Q 15.8 36 11.5 33.15 A 21.931 21.931 0 0 1 8.411 30.703 Q 6.694 29.053 5.638 27.188 A 13.303 13.303 0 0 1 5.35 26.65 Q 3.5 23 3.5 18 Q 3.5 13 6.25 8.95 Q 9 4.9 14.35 2.45 A 25.558 25.558 0 0 1 20.25 0.615 Q 23.493 0 27.3 0 Q 33.5 0 38.45 1.25 Q 43.4 2.5 48.1 4.8 L 44.6 12.9 A 31.496 31.496 0 0 0 40.474 10.881 A 41.686 41.686 0 0 0 36.65 9.55 Q 32.1 8.2 27.1 8.2 A 27.187 27.187 0 0 0 23.07 8.48 Q 20.938 8.8 19.2 9.487 A 12.616 12.616 0 0 0 16.7 10.8 A 9.902 9.902 0 0 0 14.537 12.765 A 7.359 7.359 0 0 0 12.9 17.5 A 10.464 10.464 0 0 0 13.192 20.022 A 8.562 8.562 0 0 0 14 22.1 Q 15.056 24.019 18.091 25.847 A 23.503 23.503 0 0 0 18.35 26 A 33.003 33.003 0 0 0 20.566 27.172 Q 22.835 28.275 26.046 29.523 A 130.016 130.016 0 0 0 28.1 30.3 A 81.228 81.228 0 0 1 33.078 32.329 Q 37.464 34.3 40.45 36.4 A 26.044 26.044 0 0 1 43.49 38.878 Q 45.713 41.006 46.9 43.35 A 17.579 17.579 0 0 1 48.641 49.213 A 22.155 22.155 0 0 1 48.8 51.9 A 21.71 21.71 0 0 1 48.133 57.401 A 17.105 17.105 0 0 1 45.55 63 Q 42.3 67.6 36.55 70 A 30.521 30.521 0 0 1 29.14 72.004 A 40.027 40.027 0 0 1 23.4 72.4 Q 16.1 72.4 10.1 70.45 A 38.206 38.206 0 0 1 4.733 68.268 A 28.433 28.433 0 0 1 0 65.3 Z M 195.9 68.2 L 187 72.4 L 178.3 53.4 A 30.586 30.586 0 0 0 175.709 48.827 Q 173.203 45.222 170 43.3 Q 165.645 40.687 159.164 40.35 A 37.847 37.847 0 0 0 157.2 40.3 L 155.7 40.3 L 155.7 71.2 L 146.2 71.2 L 146.2 1.4 Q 151.5 0.9 156.35 0.65 A 187.94 187.94 0 0 1 162.666 0.435 A 226.267 226.267 0 0 1 166.7 0.4 Q 179.5 0.4 185.95 5.6 A 17.414 17.414 0 0 1 190.58 11.134 Q 192.4 14.644 192.4 19 A 19.88 19.88 0 0 1 191.749 24.22 A 14.672 14.672 0 0 1 188.05 30.75 Q 183.7 35.2 175.5 37.4 A 23.656 23.656 0 0 1 178.929 39.263 A 20.427 20.427 0 0 1 180.3 40.25 Q 182.269 41.797 184.105 44.31 A 29.29 29.29 0 0 1 184.35 44.65 Q 186.3 47.4 188.3 51.8 L 195.9 68.2 Z M 227.9 71.2 L 218.4 71.2 L 218.4 9.6 L 196.9 9.6 L 196.9 1.2 L 249.4 1.2 L 249.4 9.6 L 227.9 9.6 L 227.9 71.2 Z M 155.7 8.8 L 155.7 32.3 L 166.7 32.3 A 26.489 26.489 0 0 0 171.623 31.869 Q 175.552 31.125 178.4 29.1 Q 182.9 25.9 182.9 19.9 A 9.811 9.811 0 0 0 179.627 12.436 A 13.272 13.272 0 0 0 178.7 11.65 A 13.923 13.923 0 0 0 174.336 9.429 Q 172.407 8.818 170.077 8.57 A 31.944 31.944 0 0 0 166.7 8.4 Q 163.526 8.4 160.962 8.487 A 118.974 118.974 0 0 0 160.6 8.5 Q 157.9 8.6 155.7 8.8 Z" vector-effect="non-scaling-stroke"/></g></svg>