<?xml version="1.0" encoding="UTF-8" standalone="no"?>
<!-- Created with Inkscape (http://www.inkscape.org/) -->

<svg
   width="167.48543mm"
   height="58.275372mm"
   viewBox="0 0 167.48543 58.275372"
   version="1.1"
   id="svg1"
   inkscape:version="1.4.2 (f4327f4, 2025-05-13)"
   sodipodi:docname="sodele.svg"
   xmlns:inkscape="http://www.inkscape.org/namespaces/inkscape"
   xmlns:sodipodi="http://sodipodi.sourceforge.net/DTD/sodipodi-0.dtd"
   xmlns:xlink="http://www.w3.org/1999/xlink"
   xmlns="http://www.w3.org/2000/svg"
   xmlns:svg="http://www.w3.org/2000/svg">
  <sodipodi:namedview
     id="namedview1"
     pagecolor="#ffffff"
     bordercolor="#000000"
     borderopacity="0.25"
     inkscape:showpageshadow="2"
     inkscape:pageopacity="0.0"
     inkscape:pagecheckerboard="0"
     inkscape:deskcolor="#d1d1d1"
     inkscape:document-units="mm"
     inkscape:zoom="2.2299458"
     inkscape:cx="323.99891"
     inkscape:cy="177.80701"
     inkscape:window-width="1920"
     inkscape:window-height="1129"
     inkscape:window-x="-8"
     inkscape:window-y="-8"
     inkscape:window-maximized="1"
     inkscape:current-layer="layer2" />
  <defs
     id="defs1">
    <linearGradient
       id="linearGradient5"
       inkscape:collect="always">
      <stop
         style="stop-color:#f5e21d;stop-opacity:1;"
         offset="0"
         id="stop5" />
      <stop
         style="stop-color:#faeb97;stop-opacity:0.70476192;"
         offset="0.92502826"
         id="stop6" />
    </linearGradient>
    <rect
       x="194.62357"
       y="217.94252"
       width="772.21606"
       height="234.08641"
       id="rect1" />
    <radialGradient
       inkscape:collect="always"
       xlink:href="#linearGradient5"
       id="radialGradient6"
       cx="81.156685"
       cy="27.28953"
       fx="81.156685"
       fy="27.28953"
       r="15.319716"
       gradientUnits="userSpaceOnUse"
       gradientTransform="translate(-6.881707,41.527542)" />
  </defs>
  <g
     inkscape:groupmode="layer"
     id="layer2"
     inkscape:label="Ebene 2">
    <circle
       style="fill:#ffffff;fill-opacity:1;stroke:none;stroke-width:0.26731;stroke-dasharray:none;stroke-opacity:1"
       id="path2-5"
       cx="45.649502"
       cy="25.8335"
       r="15.3195" />
  </g>
  <g
     inkscape:label="Ebene 1"
     inkscape:groupmode="layer"
     id="layer1"
     transform="translate(-28.62553,-42.983335)">
    <path
       d="m 252.18555,395.64203 q -16.03125,0 -28.21875,-3.09375 -12.09375,-3.09375 -22.5,-7.6875 v -33.1875 h 3.1875 q 10.5,8.90625 23.15625,13.6875 12.65625,4.78125 24.5625,4.78125 3,0 7.875,-0.65625 4.96875,-0.65625 7.96875,-2.0625 3.65625,-1.59375 6.1875,-4.40625 2.53125,-2.90625 2.53125,-7.59375 0,-5.25 -4.125,-8.53125 -4.125,-3.28125 -9.84375,-4.78125 -7.125,-1.875 -15.28125,-3.5625 -8.0625,-1.6875 -15.09375,-4.125 -16.21875,-5.71875 -23.25,-15.375 -7.03125,-9.65625 -7.03125,-24.1875 0,-19.59375 16.59375,-31.6875 16.59375,-12.1875 41.4375,-12.1875 12.46875,0 24.75,2.53125 12.375,2.53125 22.125,6.84375 v 31.875 h -3.09375 q -7.78125,-6.65625 -19.03125,-11.25 -11.15625,-4.59375 -22.96875,-4.59375 -4.59375,0 -8.25,0.65625 -3.65625,0.65625 -7.6875,2.53125 -3.28125,1.5 -5.71875,4.5 -2.34375,2.90625 -2.34375,6.5625 0,5.34375 3.75,8.53125 3.84375,3.09375 14.71875,5.625 7.03125,1.59375 13.5,3.09375 6.5625,1.5 13.96875,4.125 14.53125,5.25 21.5625,14.15625 7.125,8.8125 7.125,23.34375 0,20.8125 -16.40625,33.46875 -16.3125,12.65625 -44.15625,12.65625 z m 284.8125,-2.53125 h -32.8125 v -10.96875 q -3.1875,2.625 -7.3125,5.625 -4.03125,3 -7.125,4.5 -3.9375,1.875 -7.78125,2.8125 -3.84375,0.9375 -9.1875,0.9375 -18,0 -28.5,-14.90625 -10.5,-14.90625 -10.5,-39.84375 0,-13.78125 3.5625,-23.90625 3.5625,-10.125 9.84375,-17.625 5.71875,-6.84375 13.875,-10.78125 8.15625,-4.03125 17.25,-4.03125 8.25,0 13.5,1.78125 5.34375,1.6875 12.375,5.34375 v -44.8125 h 32.8125 z m -32.8125,-29.0625 v -51.65625 q -2.4375,-1.21875 -6.375,-1.96875 -3.9375,-0.84375 -6.75,-0.84375 -11.8125,0 -17.8125,8.25 -5.90625,8.25 -5.90625,23.0625 0,15.5625 4.6875,22.5 4.78125,6.9375 15.375,6.9375 4.3125,0 8.71875,-1.6875 4.40625,-1.6875 8.0625,-4.59375 z m 111.84375,31.875 q -29.8125,0 -45.75,-14.25 -15.84375,-14.25 -15.84375,-40.59375 0,-25.78125 14.8125,-41.15625 14.8125,-15.375 41.4375,-15.375 24.1875,0 36.375,13.03125 12.1875,13.03125 12.1875,37.3125 v 11.8125 H 587.3418 q 0.46875,7.3125 3.09375,12.28125 2.625,4.875 6.9375,7.78125 4.21875,2.90625 9.84375,4.21875 5.625,1.21875 12.28125,1.21875 5.71875,0 11.25,-1.21875 5.53125,-1.3125 10.125,-3.375 4.03125,-1.78125 7.40625,-3.84375 3.46875,-2.0625 5.625,-3.65625 h 3.46875 v 27.09375 q -4.03125,1.59375 -7.40625,3 -3.28125,1.3125 -9.09375,2.71875 -5.34375,1.40625 -11.0625,2.15625 -5.625,0.84375 -13.78125,0.84375 z m 10.875,-69 q -0.28125,-10.40625 -4.875,-15.84375 -4.5,-5.4375 -13.875,-5.4375 -9.5625,0 -15,5.71875 -5.34375,5.71875 -5.90625,15.5625 z m 82.03125,66.1875 h -32.8125 v -145.875 h 32.8125 z m 79.03125,2.8125 q -29.8125,0 -45.75,-14.25 -15.84375,-14.25 -15.84375,-40.59375 0,-25.78125 14.8125,-41.15625 14.8125,-15.375 41.4375,-15.375 24.1875,0 36.375,13.03125 12.1875,13.03125 12.1875,37.3125 v 11.8125 H 759.2793 q 0.46875,7.3125 3.09375,12.28125 2.625,4.875 6.9375,7.78125 4.21875,2.90625 9.84375,4.21875 5.625,1.21875 12.28125,1.21875 5.71875,0 11.25,-1.21875 5.53125,-1.3125 10.125,-3.375 4.03125,-1.78125 7.40625,-3.84375 3.46875,-2.0625 5.625,-3.65625 h 3.46875 v 27.09375 q -4.03125,1.59375 -7.40625,3 -3.28125,1.3125 -9.09375,2.71875 -5.34375,1.40625 -11.0625,2.15625 -5.625,0.84375 -13.78125,0.84375 z m 10.875,-69 q -0.28125,-10.40625 -4.875,-15.84375 -4.5,-5.4375 -13.875,-5.4375 -9.5625,0 -15,5.71875 -5.34375,5.71875 -5.90625,15.5625 z"
       id="text1"
       style="font-weight:bold;font-size:192px;font-family:Tahoma;-inkscape-font-specification:'Tahoma Bold';white-space:pre;fill:#31322d"
       transform="matrix(0.26458333,0,0,0.26458333,-24.679225,-20.407821)"
       aria-label="S  dele" />
    <g
       id="text2"
       style="font-weight:bold;font-size:9.87778px;font-family:Tahoma;-inkscape-font-specification:'Tahoma Bold';fill:#31322d;stroke-width:0.264583"
       aria-label="Solarsimulation denkbar leicht">
      <path
         style="fill:#a387a8"
         d="m 47.336546,101.22012 q -0.824756,0 -1.451764,-0.15916 -0.622184,-0.15917 -1.157552,-0.3955 v -1.707388 h 0.163987 q 0.540191,0.458197 1.191314,0.704177 0.651123,0.24598 1.263661,0.24598 0.15434,0 0.405143,-0.03376 0.255627,-0.03376 0.409967,-0.106109 0.188102,-0.08199 0.318327,-0.226687 0.130224,-0.149517 0.130224,-0.390674 0,-0.270096 -0.212217,-0.438905 -0.212218,-0.16881 -0.50643,-0.24598 -0.366558,-0.09646 -0.786171,-0.183279 -0.414789,-0.08682 -0.776524,-0.212218 -0.834403,-0.294211 -1.196138,-0.790994 -0.361735,-0.496783 -0.361735,-1.244369 0,-1.008035 0.853695,-1.63022 0.853695,-0.627007 2.131826,-0.627007 0.641477,0 1.273307,0.130225 0.636654,0.130224 1.13826,0.352088 v 1.639866 h -0.159163 q -0.400321,-0.342442 -0.979097,-0.578776 -0.573953,-0.236334 -1.181668,-0.236334 -0.236333,0 -0.424436,0.03376 -0.188102,0.03376 -0.395497,0.130225 -0.168809,0.07717 -0.294211,0.23151 -0.120578,0.149518 -0.120578,0.33762 0,0.274919 0.192925,0.438905 0.197749,0.159164 0.757232,0.289388 0.361735,0.08199 0.694532,0.159164 0.337619,0.07717 0.718647,0.212218 0.747586,0.270095 1.109321,0.728293 0.366558,0.453375 0.366558,1.20096 0,1.070736 -0.844049,1.721861 -0.839225,0.65112 -2.271696,0.65112 z m 9.13984,-2.836001 q 0,1.336008 -0.733116,2.107711 -0.728294,0.76688 -2.064302,0.76688 -1.326362,0 -2.064302,-0.76688 -0.733116,-0.771703 -0.733116,-2.107711 0,-1.350478 0.733116,-2.112533 0.73794,-0.766879 2.064302,-0.766879 1.331185,0 2.064302,0.771702 0.733116,0.766878 0.733116,2.10771 z m -1.731505,0.0096 q 0,-0.482314 -0.08199,-0.800641 -0.07717,-0.32315 -0.217041,-0.516075 -0.149517,-0.202572 -0.337619,-0.279742 -0.188102,-0.08199 -0.429259,-0.08199 -0.226687,0 -0.409966,0.07235 -0.18328,0.06752 -0.33762,0.265272 -0.144694,0.188103 -0.23151,0.516076 -0.08682,0.327973 -0.08682,0.824756 0,0.496783 0.08199,0.805463 0.08199,0.303858 0.212217,0.487137 0.135048,0.188102 0.33762,0.274919 0.202572,0.08682 0.448551,0.08682 0.202572,0 0.409967,-0.08682 0.212218,-0.08682 0.337619,-0.26045 0.149517,-0.207394 0.226688,-0.496783 0.07717,-0.294211 0.07717,-0.810286 z"
         id="path1" />
      <path
         d="m 59.061586,101.0899 h -1.688097 v -7.504801 h 1.688097 z m 4.27812,-1.413181 v -1.128614 q -0.429259,0.04341 -0.694531,0.07717 -0.265273,0.02894 -0.520899,0.120579 -0.221864,0.07717 -0.347265,0.236333 -0.120579,0.154341 -0.120579,0.41479 0,0.381028 0.202572,0.525722 0.207395,0.139871 0.607715,0.139871 0.221864,0 0.453374,-0.101286 0.231511,-0.101286 0.419613,-0.284565 z m 0,0.839221 q -0.173633,0.1447 -0.313504,0.26045 -0.135047,0.11576 -0.366558,0.23151 -0.226687,0.11094 -0.443728,0.16881 -0.212218,0.0579 -0.598069,0.0579 -0.718647,0 -1.196137,-0.48231 -0.472668,-0.48232 -0.472668,-1.215432 0,-0.602892 0.241157,-0.974273 0.241157,-0.371382 0.694532,-0.588423 0.458197,-0.221864 1.094851,-0.308681 0.636654,-0.08682 1.36977,-0.135047 v -0.02894 q 0,-0.448552 -0.332796,-0.617361 -0.327973,-0.173633 -0.988742,-0.173633 -0.299035,0 -0.699355,0.110932 -0.40032,0.106109 -0.781348,0.274919 h -0.144694 v -1.30707 q 0.250803,-0.07235 0.810287,-0.16881 0.559483,-0.101285 1.128613,-0.101285 1.398709,0 2.035363,0.467844 0.641477,0.463021 0.641477,1.418001 v 3.684878 h -1.678451 z m 6.564288,-3.245966 h -0.139871 q -0.09646,-0.03376 -0.279742,-0.04823 -0.183279,-0.01929 -0.405144,-0.01929 -0.265272,0 -0.559483,0.07717 -0.289388,0.07717 -0.564307,0.183279 v 3.627 H 66.26735 v -5.416383 h 1.688097 v 0.776525 q 0.115755,-0.106109 0.318327,-0.265273 0.207395,-0.163986 0.376205,-0.260449 0.183279,-0.110932 0.424435,-0.188102 0.24598,-0.08199 0.463021,-0.08199 0.08199,0 0.183279,0.0048 0.101286,0.0048 0.18328,0.01447 z m 2.295812,3.969436 q -0.598069,0 -1.133437,-0.13022 -0.530545,-0.13022 -0.87781,-0.30386 v -1.427646 h 0.13987 q 0.120579,0.09164 0.274919,0.202572 0.15434,0.110932 0.429259,0.23151 0.236334,0.110933 0.530545,0.192924 0.299034,0.0772 0.6463,0.0772 0.356912,0 0.627008,-0.11093 0.274918,-0.110932 0.274918,-0.352089 0,-0.188102 -0.125401,-0.284565 -0.125402,-0.09646 -0.487137,-0.183279 -0.192925,-0.04823 -0.487137,-0.101286 -0.294211,-0.05788 -0.520898,-0.130224 -0.636654,-0.197749 -0.959804,-0.5836 -0.318327,-0.390674 -0.318327,-1.022504 0,-0.361735 0.163987,-0.680062 0.16881,-0.32315 0.49196,-0.573953 0.32315,-0.24598 0.795817,-0.390674 0.47749,-0.144694 1.075559,-0.144694 0.56913,0 1.04662,0.115755 0.47749,0.110932 0.805464,0.270095 v 1.369771 h -0.135048 q -0.08682,-0.06752 -0.274919,-0.178456 -0.188102,-0.115756 -0.366558,-0.197749 -0.212218,-0.09646 -0.47749,-0.159163 -0.26045,-0.0627 -0.535368,-0.0627 -0.366559,0 -0.622185,0.125402 -0.250803,0.125401 -0.250803,0.332796 0,0.183279 0.125402,0.289388 0.125401,0.106109 0.545014,0.207395 0.217041,0.05305 0.496783,0.106109 0.284565,0.04823 0.545014,0.135047 0.583599,0.188103 0.882634,0.554661 0.303857,0.361735 0.303857,0.964627 0,0.381028 -0.178456,0.728293 -0.178456,0.34244 -0.506429,0.57878 -0.347266,0.25562 -0.819933,0.39549 -0.467844,0.13987 -1.12379,0.13987 z m 5.122169,-0.14951 h -1.688098 v -5.416383 h 1.688098 z m 0.04823,-6.188085 h -1.78456 v -1.316716 h 1.78456 z m 7.717014,6.188085 v -2.705781 q 0,-0.400321 -0.01447,-0.675239 -0.01447,-0.274919 -0.08682,-0.448552 -0.07235,-0.173633 -0.226687,-0.250803 -0.149517,-0.08199 -0.424436,-0.08199 -0.192925,0 -0.381028,0.08682 -0.188102,0.08199 -0.409966,0.236334 v 3.839218 h -1.697744 v -2.705781 q 0,-0.395497 -0.01929,-0.670416 -0.01447,-0.279742 -0.08682,-0.453375 -0.07235,-0.173633 -0.226688,-0.250803 -0.149517,-0.08199 -0.419613,-0.08199 -0.207394,0 -0.405143,0.09646 -0.197748,0.09646 -0.385851,0.226687 v 3.839218 h -1.688097 v -5.416383 h 1.688097 v 0.598069 q 0.41479,-0.352089 0.781348,-0.549838 0.366558,-0.197748 0.824756,-0.197748 0.496783,0 0.872988,0.236333 0.376204,0.236334 0.573953,0.704178 0.487136,-0.453375 0.916395,-0.694531 0.434082,-0.24598 0.877811,-0.24598 0.376204,0 0.675239,0.120578 0.299034,0.120578 0.506429,0.361735 0.226687,0.260449 0.337619,0.622185 0.115755,0.356911 0.115755,0.935688 v 3.525714 z m 7.977465,0 h -1.688097 v -0.59807 q -0.438905,0.36656 -0.805464,0.55948 -0.366558,0.1881 -0.872987,0.1881 -0.805463,0 -1.258838,-0.50642 -0.448552,-0.51126 -0.448552,-1.533762 v -3.525711 h 1.697744 v 2.686486 q 0,0.419613 0.01929,0.684885 0.02412,0.265272 0.106109,0.448552 0.07717,0.168809 0.236334,0.255626 0.163986,0.08682 0.453375,0.08682 0.178456,0 0.419612,-0.08682 0.24598,-0.08682 0.453375,-0.236334 v -3.839215 h 1.688097 z m 2.980699,0 h -1.688097 v -7.504801 h 1.688097 z m 4.278126,-1.413181 v -1.128614 q -0.429264,0.04341 -0.694536,0.07717 -0.265273,0.02894 -0.520899,0.120579 -0.221864,0.07717 -0.347265,0.236333 -0.120579,0.154341 -0.120579,0.41479 0,0.381028 0.202572,0.525722 0.207395,0.139871 0.607715,0.139871 0.221864,0 0.453374,-0.101286 0.231508,-0.101286 0.419618,-0.284565 z m 0,0.839221 q -0.17364,0.1447 -0.31351,0.26045 -0.135046,0.11576 -0.366557,0.23151 -0.226687,0.11094 -0.443728,0.16881 -0.212218,0.0579 -0.598069,0.0579 -0.718647,0 -1.196137,-0.48231 -0.472668,-0.48232 -0.472668,-1.215432 0,-0.602892 0.241157,-0.974273 0.241157,-0.371382 0.694532,-0.588423 0.458197,-0.221864 1.094851,-0.308681 0.636654,-0.08682 1.369769,-0.135047 v -0.02894 q 0,-0.448552 -0.33279,-0.617361 -0.327978,-0.173633 -0.988747,-0.173633 -0.299035,0 -0.699355,0.110932 -0.40032,0.106109 -0.781348,0.274919 h -0.144694 v -1.30707 q 0.250803,-0.07235 0.810287,-0.16881 0.559483,-0.101285 1.128613,-0.101285 1.398714,0 2.035364,0.467844 0.64148,0.463021 0.64148,1.418001 v 3.684878 h -1.67845 z m 5.00158,0.68007 q -1.03215,0 -1.50481,-0.42444 -0.46785,-0.42444 -0.46785,-1.389063 v -2.532145 h -0.6463 v -1.176845 h 0.6463 v -1.548226 h 1.6881 v 1.548226 h 1.6254 v 1.176845 h -1.6254 v 1.919607 q 0,0.284565 0.005,0.496783 0.005,0.212218 0.0772,0.381028 0.0675,0.16881 0.23634,0.270095 0.17363,0.09647 0.5016,0.09647 0.13505,0 0.35209,-0.05788 0.22187,-0.05788 0.30868,-0.106108 h 0.1447 v 1.191318 q -0.27492,0.0723 -0.5836,0.11093 -0.30868,0.0434 -0.75724,0.0434 z m 3.71864,-0.10611 h -1.68809 v -5.416383 h 1.68809 z m 0.0482,-6.188085 h -1.78456 v -1.316716 h 1.78456 z m 6.44371,3.482304 q 0,1.336008 -0.73312,2.107711 -0.72829,0.76688 -2.0643,0.76688 -1.32636,0 -2.0643,-0.76688 -0.73312,-0.771703 -0.73312,-2.107711 0,-1.350478 0.73312,-2.112533 0.73794,-0.766879 2.0643,-0.766879 1.33119,0 2.0643,0.771702 0.73312,0.766878 0.73312,2.10771 z m -1.73151,0.0096 q 0,-0.482314 -0.082,-0.800641 -0.0772,-0.32315 -0.21704,-0.516075 -0.14952,-0.202572 -0.33762,-0.279742 -0.1881,-0.08199 -0.42926,-0.08199 -0.22669,0 -0.40997,0.07235 -0.18328,0.06752 -0.33762,0.265272 -0.14469,0.188103 -0.23151,0.516076 -0.0868,0.327973 -0.0868,0.824756 0,0.496783 0.082,0.805463 0.082,0.303858 0.21222,0.487137 0.13505,0.188102 0.33762,0.274919 0.20257,0.08682 0.44855,0.08682 0.20257,0 0.40997,-0.08682 0.21221,-0.08682 0.33762,-0.26045 0.14951,-0.207394 0.22668,-0.496783 0.0772,-0.294211 0.0772,-0.810286 z m 7.70255,2.696135 h -1.69774 v -2.686489 q 0,-0.327973 -0.0289,-0.651123 -0.0241,-0.327973 -0.0965,-0.482314 -0.0868,-0.183279 -0.25081,-0.260449 -0.16398,-0.08199 -0.4389,-0.08199 -0.2074,0 -0.41962,0.07717 -0.21221,0.07717 -0.45337,0.24598 v 3.839218 h -1.6881 v -5.416383 h 1.6881 v 0.598069 q 0.41479,-0.352089 0.80546,-0.549838 0.3955,-0.197748 0.87299,-0.197748 0.82958,0 1.26848,0.525721 0.43891,0.520899 0.43891,1.514465 z"
         id="path4" />
      <path
         style="fill:#91bcdd"
         d="m 130.5742,101.0899 h -1.68809 v -0.56431 q -0.16399,0.13505 -0.37621,0.28939 -0.20739,0.15434 -0.36656,0.23151 -0.20257,0.0965 -0.40032,0.14469 -0.19775,0.0482 -0.47266,0.0482 -0.92605,0 -1.46624,-0.76687 -0.54019,-0.766883 -0.54019,-2.049836 0,-0.709001 0.18328,-1.2299 0.18328,-0.520898 0.50643,-0.906749 0.29421,-0.352089 0.71382,-0.554661 0.41962,-0.207394 0.88746,-0.207394 0.42444,0 0.69453,0.09164 0.27492,0.08682 0.63666,0.274919 v -2.305459 h 1.68809 z m -1.68809,-1.495175 v -2.657547 q -0.12541,-0.0627 -0.32798,-0.101286 -0.20257,-0.04341 -0.34726,-0.04341 -0.60772,0 -0.9164,0.424436 -0.30386,0.424436 -0.30386,1.186491 0,0.80064 0.24116,1.157552 0.24598,0.356912 0.791,0.356912 0.22186,0 0.44855,-0.08682 0.22668,-0.08682 0.41479,-0.236334 z m 5.754,1.639865 q -1.53376,0 -2.35369,-0.73312 -0.81511,-0.733112 -0.81511,-2.088413 0,-1.326362 0.76206,-2.117356 0.76205,-0.790994 2.13182,-0.790994 1.24437,0 1.87138,0.670416 0.62701,0.670416 0.62701,1.919607 v 0.607715 h -3.69935 q 0.0241,0.376205 0.15917,0.631831 0.13504,0.250803 0.35691,0.40032 0.21704,0.149517 0.50643,0.217041 0.28938,0.0627 0.63183,0.0627 0.29421,0 0.57877,-0.0627 0.28457,-0.06752 0.5209,-0.173632 0.2074,-0.09164 0.38103,-0.197749 0.17846,-0.106109 0.28939,-0.188102 h 0.17845 v 1.393886 q -0.20739,0.082 -0.38102,0.15434 -0.16881,0.0675 -0.46785,0.13987 -0.27492,0.0724 -0.56913,0.11093 -0.28939,0.0434 -0.709,0.0434 z m 0.55948,-3.549826 q -0.0145,-0.535368 -0.2508,-0.81511 -0.23151,-0.279742 -0.71382,-0.279742 -0.49196,0 -0.7717,0.294212 -0.27492,0.294211 -0.30386,0.80064 z"
         id="path9" />
      <path
         d="m 142.80568,101.0899 h -1.69775 v -2.686489 q 0,-0.327973 -0.0289,-0.651123 -0.0241,-0.327973 -0.0965,-0.482314 -0.0868,-0.183279 -0.2508,-0.260449 -0.16399,-0.08199 -0.43891,-0.08199 -0.20739,0 -0.41961,0.07717 -0.21222,0.07717 -0.45338,0.24598 v 3.839218 h -1.68809 v -5.416383 h 1.68809 v 0.598069 q 0.41479,-0.352089 0.80547,-0.549838 0.3955,-0.197748 0.87299,-0.197748 0.82958,0 1.26848,0.525721 0.43891,0.520899 0.43891,1.514465 z m 6.67039,0 h -2.00643 l -1.46623,-2.358516 -0.26045,0.352089 v 2.006427 h -1.68809 v -7.504801 h 1.68809 v 4.205774 l 1.60128,-2.117356 h 1.99196 l -1.89549,2.334397 z m 4.11414,-2.74919 q 0,-0.810286 -0.24598,-1.157552 -0.24598,-0.347266 -0.75724,-0.347266 -0.22668,0 -0.45337,0.07235 -0.22186,0.07235 -0.43891,0.217041 v 2.720248 q 0.16881,0.06752 0.33762,0.09164 0.17364,0.02412 0.34245,0.02412 0.61253,0 0.91157,-0.405144 0.30386,-0.405143 0.30386,-1.21543 z m 1.72668,-0.03376 q 0,1.292601 -0.65595,2.093242 -0.65594,0.79582 -1.62539,0.79582 -0.40515,0 -0.70418,-0.0916 -0.29904,-0.0916 -0.63666,-0.28457 l -0.0723,0.2701 h -1.61575 v -7.504801 h 1.68809 v 2.652725 q 0.37139,-0.318327 0.75724,-0.516076 0.38585,-0.197748 0.89228,-0.197748 0.94533,0 1.45658,0.737939 0.51608,0.73794 0.51608,2.045009 z m 3.91638,1.369771 v -1.128614 q -0.42926,0.04341 -0.69453,0.07717 -0.26527,0.02894 -0.5209,0.120579 -0.22186,0.07717 -0.34726,0.236333 -0.12058,0.154341 -0.12058,0.41479 0,0.381028 0.20257,0.525722 0.20739,0.139871 0.60771,0.139871 0.22187,0 0.45338,-0.101286 0.23151,-0.101286 0.41961,-0.284565 z m 0,0.839221 q -0.17363,0.1447 -0.3135,0.26045 -0.13505,0.11576 -0.36656,0.23151 -0.22669,0.11094 -0.44373,0.16881 -0.21222,0.0579 -0.59807,0.0579 -0.71864,0 -1.19613,-0.48231 -0.47267,-0.48232 -0.47267,-1.215432 0,-0.602892 0.24116,-0.974273 0.24115,-0.371382 0.69453,-0.588423 0.45819,-0.221864 1.09485,-0.308681 0.63665,-0.08682 1.36977,-0.135047 v -0.02894 q 0,-0.448552 -0.3328,-0.617361 -0.32797,-0.173633 -0.98874,-0.173633 -0.29903,0 -0.69935,0.110932 -0.40033,0.106109 -0.78135,0.274919 h -0.1447 v -1.30707 q 0.25081,-0.07235 0.81029,-0.16881 0.55948,-0.101285 1.12861,-0.101285 1.39871,0 2.03537,0.467844 0.64147,0.463021 0.64147,1.418001 v 3.684878 h -1.67845 z m 6.56429,-3.245966 h -0.13987 q -0.0965,-0.03376 -0.27974,-0.04823 -0.18328,-0.01929 -0.40515,-0.01929 -0.26527,0 -0.55948,0.07717 -0.28939,0.07717 -0.56431,0.183279 v 3.627 h -1.6881 v -5.416383 h 1.6881 v 0.776525 q 0.11576,-0.106109 0.31833,-0.265273 0.20739,-0.163986 0.3762,-0.260449 0.18328,-0.110932 0.42444,-0.188102 0.24598,-0.08199 0.46302,-0.08199 0.082,0 0.18328,0.0048 0.10128,0.0048 0.18328,0.01447 z"
         id="path10" />
      <path
         style="fill:#89be66"
         d="m 171.02584,101.0899 h -1.6881 v -7.504801 h 1.6881 z m 4.0659,0.14469 q -1.53376,0 -2.35369,-0.73312 -0.81511,-0.733112 -0.81511,-2.088413 0,-1.326362 0.76206,-2.117356 0.76205,-0.790994 2.13182,-0.790994 1.24437,0 1.87138,0.670416 0.62701,0.670416 0.62701,1.919607 v 0.607715 h -3.69935 q 0.0241,0.376205 0.15916,0.631831 0.13505,0.250803 0.35692,0.40032 0.21704,0.149517 0.50643,0.217041 0.28938,0.0627 0.63183,0.0627 0.29421,0 0.57877,-0.0627 0.28457,-0.06752 0.5209,-0.173632 0.2074,-0.09164 0.38103,-0.197749 0.17846,-0.106109 0.28939,-0.188102 h 0.17845 v 1.393886 q -0.20739,0.082 -0.38102,0.15434 -0.16881,0.0675 -0.46785,0.13987 -0.27492,0.0724 -0.56913,0.11093 -0.28939,0.0434 -0.709,0.0434 z m 0.55948,-3.549826 q -0.0145,-0.535368 -0.2508,-0.81511 -0.23151,-0.279742 -0.71382,-0.279742 -0.49196,0 -0.7717,0.294212 -0.27492,0.294211 -0.30386,0.80064 z"
         id="path11" />
      <path
         d="m 179.87146,101.0899 h -1.68809 v -5.416383 h 1.68809 z m 0.0482,-6.188085 h -1.78456 v -1.316716 h 1.78456 z m 3.90191,6.332775 q -0.67041,0 -1.2299,-0.16881 -0.55466,-0.16881 -0.96462,-0.5209 -0.40515,-0.35209 -0.63183,-0.882631 -0.22669,-0.535368 -0.22669,-1.258838 0,-0.776525 0.24598,-1.321539 0.24598,-0.545014 0.66559,-0.897103 0.40514,-0.337619 0.95016,-0.496783 0.54984,-0.163986 1.14308,-0.163986 0.44855,0 0.8971,0.106109 0.44856,0.101285 0.90193,0.327973 v 1.44694 h -0.21704 q -0.10129,-0.09646 -0.2508,-0.212218 -0.1447,-0.115755 -0.31833,-0.212218 -0.18328,-0.101285 -0.41479,-0.168809 -0.23151,-0.07235 -0.51608,-0.07235 -0.6463,0 -1.00321,0.453374 -0.35209,0.448552 -0.35209,1.210607 0,0.81511 0.37621,1.21543 0.38103,0.400319 1.00803,0.400319 0.31833,0 0.55949,-0.07235 0.24115,-0.07235 0.41479,-0.173633 0.16881,-0.101285 0.28938,-0.207394 0.12058,-0.110933 0.2074,-0.197749 h 0.21704 v 1.446942 q -0.14469,0.0627 -0.33762,0.14469 -0.1881,0.082 -0.38585,0.13505 -0.24598,0.0675 -0.46302,0.10129 -0.21222,0.0386 -0.56431,0.0386 z m 7.62538,-0.14469 h -1.69775 v -2.686489 q 0,-0.327973 -0.0289,-0.651123 -0.0241,-0.327973 -0.0965,-0.482314 -0.0868,-0.183279 -0.2508,-0.260449 -0.16399,-0.08199 -0.43891,-0.08199 -0.20739,0 -0.41961,0.07717 -0.21222,0.07717 -0.45337,0.24598 v 3.839218 h -1.6881 v -7.504801 h 1.6881 v 2.686487 q 0.41479,-0.352089 0.80546,-0.549838 0.3955,-0.197748 0.87299,-0.197748 0.82958,0 1.26848,0.525721 0.43891,0.520899 0.43891,1.514465 z m 3.32314,0.10611 q -1.03215,0 -1.50482,-0.42444 -0.46784,-0.42444 -0.46784,-1.389063 v -2.532145 h -0.6463 v -1.176845 h 0.6463 v -1.548226 h 1.6881 v 1.548226 h 1.62539 v 1.176845 h -1.62539 v 1.919607 q 0,0.284565 0.005,0.496783 0.005,0.212218 0.0772,0.381028 0.0675,0.16881 0.23633,0.270095 0.17364,0.09647 0.50161,0.09647 0.13505,0 0.35209,-0.05788 0.22186,-0.05788 0.30868,-0.106108 h 0.14469 v 1.191318 q -0.27491,0.0723 -0.5836,0.11093 -0.30868,0.0434 -0.75723,0.0434 z"
         id="path12" />
    </g>
    <circle
       style="fill:url(#radialGradient6);stroke:#202020;stroke-width:0.265;stroke-dasharray:none;stroke-opacity:1"
       id="path2"
       cx="74.274979"
       cy="68.81707"
       r="15.187216" />
    <path
       style="fill:none;stroke:#202020;stroke-width:0.264999;stroke-dasharray:none;stroke-opacity:1"
       d="M 75.075864,83.796646 C 60.447484,83.679904 60.040124,69.184513 60.125946,67.600906"
       id="path3"
       sodipodi:nodetypes="cc" />
    <path
       style="fill:none;stroke:#202020;stroke-width:0.264999;stroke-dasharray:none;stroke-opacity:1"
       d="M 89.223801,70.724151 C 89.89839,64.814415 86.17215,56.702143 77.519987,55.328813"
       id="path5"
       sodipodi:nodetypes="cc" />
    <circle
       style="fill:#000000;fill-opacity:1;stroke:#202020;stroke-width:0.264999;stroke-dasharray:none;stroke-opacity:1"
       id="path6"
       cx="70.975922"
       cy="64.515678"
       r="0.96483052" />
    <circle
       style="fill:#000000;fill-opacity:1;stroke:#202020;stroke-width:0.264999;stroke-dasharray:none;stroke-opacity:1"
       id="path6-1"
       cx="77.27607"
       cy="64.417496"
       r="0.96483052" />
    <path
       style="fill:#000000;fill-opacity:1;stroke:#202020;stroke-width:0.289232;stroke-dasharray:none;stroke-opacity:1"
       d="m 67.736662,71.065225 c 5.118446,1.815774 8.24292,1.893197 13.117473,-2e-6 l 0.0029,0.998066 c -4.97699,1.699819 -8.113851,1.727055 -13.12282,-0.0512 z"
       id="path7"
       sodipodi:nodetypes="ccccc" />
    <path
       style="fill:#000000;fill-opacity:1;stroke:#f5e21e;stroke-width:1.50268;stroke-dasharray:1.50268, 1.50268;stroke-dashoffset:0;stroke-opacity:0.996078"
       d="M 50.379698,79.878274 60.749855,75.36957"
       id="path8"
       sodipodi:nodetypes="cc" />
    <path
       style="fill:#000000;fill-opacity:1;stroke:#f5e21e;stroke-width:1.50268;stroke-dasharray:1.50268, 1.50268;stroke-dashoffset:0;stroke-opacity:0.996078"
       d="M 88.728351,62.032708 99.217163,57.998604"
       id="path8-1"
       sodipodi:nodetypes="cc" />
    <path
       style="fill:#000000;fill-opacity:1;stroke:#f5e21e;stroke-width:1.50268;stroke-dasharray:1.50268, 1.50268;stroke-dashoffset:0;stroke-opacity:0.996078"
       d="m 78.485726,53.187244 4.793605,-10.20391"
       id="path8-1-2"
       sodipodi:nodetypes="cc" />
    <path
       style="fill:#000000;fill-opacity:1;stroke:#f5e21e;stroke-width:1.50268;stroke-dasharray:1.50268, 1.50268;stroke-dashoffset:0;stroke-opacity:0.996078"
       d="M 64.477455,93.387163 69.15241,83.064602"
       id="path8-1-2-7"
       sodipodi:nodetypes="cc" />
    <path
       style="fill:#000000;fill-opacity:1;stroke:#f5e21e;stroke-width:1.50268;stroke-dasharray:1.50268, 1.50268;stroke-dashoffset:0;stroke-opacity:0.996078"
       d="M 87.615497,91.810435 81.01869,82.674375"
       id="path8-1-2-7-2"
       sodipodi:nodetypes="cc" />
    <path
       style="fill:#000000;fill-opacity:1;stroke:#f5e21e;stroke-width:1.50268;stroke-dasharray:1.50268, 1.50268;stroke-dashoffset:0;stroke-opacity:0.996078"
       d="M 65.209636,55.508673 58.494179,46.135314"
       id="path8-1-2-7-2-3"
       sodipodi:nodetypes="cc" />
    <path
       style="fill:#000000;fill-opacity:1;stroke:#f5e21e;stroke-width:1.50268;stroke-dasharray:1.50268, 1.50268;stroke-dashoffset:0;stroke-opacity:0.996078"
       d="M 59.01573,64.180292 49.21537,59.434288"
       id="path8-1-2-7-2-3-4"
       sodipodi:nodetypes="cc" />
    <path
       style="fill:#000000;fill-opacity:1;stroke:#f5e21e;stroke-width:1.50268;stroke-dasharray:1.50268, 1.50268;stroke-dashoffset:0;stroke-opacity:0.996078"
       d="M 98.685783,79.10074 88.292167,74.236085"
       id="path8-1-2-7-2-3-4-7"
       sodipodi:nodetypes="cc" />
  </g>
</svg>
