<?xml version="1.0" encoding="UTF-8" standalone="no"?>
<svg
   version="1.1"
   id="svg4"
   width="57.673832"
   height="9.2988281"
   xmlns="http://www.w3.org/2000/svg"
   xmlns:svg="http://www.w3.org/2000/svg">
  <defs
     id="defs8" />
  <g
     aria-label="SolarData"
     id="text2"
     transform="translate(-0.78515625,9.1171875)">
    <path
       d="m 7.5117187,-2.4902344 q 0,0.5097657 -0.2402343,1.0078125 -0.234375,0.4980469 -0.6621094,0.84375003 -0.46875,0.37499999 -1.0957031,0.5859375 -0.6210938,0.21093749 -1.5,0.21093749 -0.9433594,0 -1.6992188,-0.17578125 -0.75,-0.17578124 -1.52929685,-0.52148437 v -1.453125 h 0.0820313 Q 1.529297,-1.4414062 2.3964845,-1.1425781 3.263672,-0.84375 4.0253907,-0.84375 q 1.078125,0 1.6757813,-0.4042969 0.6035156,-0.4042968 0.6035156,-1.078125 0,-0.5800781 -0.2871095,-0.8554687 Q 5.7363281,-3.4570313 5.15625,-3.609375 4.7167969,-3.7265625 4.2011719,-3.8027344 3.6914063,-3.8789063 3.1171875,-3.9960938 1.9570312,-4.2421875 1.3945312,-4.8339844 0.83789063,-5.4316406 0.83789063,-6.3867187 q 0,-1.0957032 0.92578127,-1.7929688 0.9257812,-0.703125 2.3496093,-0.703125 0.9199219,0 1.6875,0.1757812 0.7675782,0.1757813 1.359375,0.4335938 v 1.3710938 H 7.078125 q -0.4980469,-0.421875 -1.3125,-0.6972657 -0.8085938,-0.28125 -1.6582031,-0.28125 -0.9316406,0 -1.5,0.3867188 -0.5625,0.3867187 -0.5625,0.9960937 0,0.5449219 0.28125,0.8554688 0.28125,0.3105469 0.9902344,0.4746094 0.375,0.082031 1.0664062,0.1992187 0.6914062,0.1171875 1.171875,0.2402344 0.9726562,0.2578125 1.4648437,0.7792968 0.4921875,0.5214844 0.4921875,1.4589844 z"
       id="path10" />
    <path
       d="m 14.865234,-3.2695313 q 0,1.5996094 -0.820312,2.52539068 -0.820313,0.92578124 -2.197266,0.92578124 -1.388672,0 -2.2089841,-0.92578124 -0.8144531,-0.92578128 -0.8144531,-2.52539068 0,-1.5996093 0.8144531,-2.5253906 0.8203121,-0.9316406 2.2089841,-0.9316406 1.376953,0 2.197266,0.9316406 0.820312,0.9257813 0.820312,2.5253906 z m -1.136718,0 q 0,-1.2714843 -0.498047,-1.8867187 -0.498047,-0.6210937 -1.382813,-0.6210937 -0.896484,0 -1.394531,0.6210937 -0.4921875,0.6152344 -0.4921875,1.8867187 0,1.2304688 0.4980465,1.8691407 0.498047,0.63281248 1.388672,0.63281248 0.878907,0 1.376953,-0.62695308 0.503907,-0.6328126 0.503907,-1.8750001 z"
       id="path12" />
    <path
       d="m 17.683594,0 h -1.101563 v -9.1171875 h 1.101563 z"
       id="path14" />
    <path
       d="m 24.949219,0 h -1.095703 v -0.69726562 q -0.146485,0.0996094 -0.398438,0.28124999 -0.246094,0.17578125 -0.480469,0.28125001 Q 22.699219,0 22.341797,0.08789062 q -0.357422,0.09375 -0.837891,0.09375 -0.884765,0 -1.5,-0.5859375 -0.615234,-0.5859375 -0.615234,-1.49414062 0,-0.7441406 0.316406,-1.2011719 0.322266,-0.4628906 0.914063,-0.7265625 0.597656,-0.2636718 1.435546,-0.3574218 0.837891,-0.09375 1.798829,-0.140625 v -0.1699219 q 0,-0.375 -0.134766,-0.6210938 -0.128906,-0.2460937 -0.375,-0.3867187 -0.234375,-0.1347656 -0.5625,-0.1816406 -0.328125,-0.046875 -0.685547,-0.046875 -0.433594,0 -0.966797,0.1171875 -0.533203,0.1113281 -1.101562,0.328125 h -0.05859 v -1.1191407 q 0.322266,-0.087891 0.931641,-0.1933593 0.609375,-0.1054688 1.201171,-0.1054688 0.691407,0 1.201172,0.1171875 0.515625,0.1113281 0.890625,0.3867188 0.369141,0.2695312 0.5625,0.6972656 0.19336,0.4277344 0.19336,1.0605469 z m -1.095703,-1.6113281 v -1.8222657 q -0.503907,0.029297 -1.189454,0.087891 -0.679687,0.058594 -1.078125,0.1699218 -0.474609,0.1347657 -0.767578,0.421875 -0.292968,0.28125 -0.292968,0.7792969 0,0.5625 0.339843,0.8496094 0.339844,0.28125 1.03711,0.28125 0.580078,0 1.060547,-0.2226562 0.480468,-0.2285157 0.890625,-0.5449222 z"
       id="path16" />
    <path
       d="m 31.154297,-5.34375 h -0.05859 q -0.246094,-0.058594 -0.480469,-0.082031 -0.228515,-0.029297 -0.544922,-0.029297 -0.509765,0 -0.984375,0.2285156 -0.474609,0.2226563 -0.914062,0.5800781 V 0 h -1.101563 v -6.5449219 h 1.101563 v 0.9667969 q 0.65625,-0.5273437 1.154297,-0.7441406 0.503906,-0.2226563 1.02539,-0.2226563 0.28711,0 0.416016,0.017578 0.128906,0.011719 0.386719,0.052734 z"
       id="path18" />
    <path
       d="m 39.650391,-4.3535156 q 0,1.1894531 -0.521485,2.15625 -0.515625,0.9667969 -1.376953,1.49999998 Q 37.154297,-0.328125 36.416016,-0.1640625 35.683594,0 34.482422,0 h -2.203125 v -8.7246094 h 2.179687 q 1.277344,0 2.027344,0.1875 0.755859,0.1816406 1.277344,0.5039063 0.890625,0.5566406 1.388672,1.4824219 0.498047,0.9257812 0.498047,2.1972656 z M 38.4375,-4.3710937 q 0,-1.0253907 -0.357422,-1.7285157 -0.357422,-0.703125 -1.066406,-1.1074218 Q 36.498047,-7.5 35.917969,-7.6113281 35.337891,-7.7285156 34.529297,-7.7285156 h -1.089844 v 6.73242185 h 1.089844 q 0.83789,0 1.458984,-0.12304685 0.626953,-0.1230469 1.148438,-0.4570313 0.65039,-0.4160156 0.972656,-1.0957031 0.328125,-0.6796875 0.328125,-1.6992187 z"
       id="path20" />
    <path
       d="m 46.523437,0 h -1.095703 v -0.69726562 q -0.146484,0.0996094 -0.398437,0.28124999 -0.246094,0.17578125 -0.480469,0.28125001 Q 44.273437,0 43.916016,0.08789062 q -0.357422,0.09375 -0.837891,0.09375 -0.884766,0 -1.5,-0.5859375 -0.615234,-0.5859375 -0.615234,-1.49414062 0,-0.7441406 0.316406,-1.2011719 0.322265,-0.4628906 0.914062,-0.7265625 0.597657,-0.2636718 1.435547,-0.3574218 0.837891,-0.09375 1.798828,-0.140625 v -0.1699219 q 0,-0.375 -0.134765,-0.6210938 -0.128907,-0.2460937 -0.375,-0.3867187 -0.234375,-0.1347656 -0.5625,-0.1816406 -0.328125,-0.046875 -0.685547,-0.046875 -0.433594,0 -0.966797,0.1171875 -0.533203,0.1113281 -1.101563,0.328125 h -0.05859 v -1.1191407 q 0.322265,-0.087891 0.93164,-0.1933593 0.609375,-0.1054688 1.201172,-0.1054688 0.691406,0 1.201172,0.1171875 0.515625,0.1113281 0.890625,0.3867188 0.369141,0.2695312 0.5625,0.6972656 0.193359,0.4277344 0.193359,1.0605469 z m -1.095703,-1.6113281 v -1.8222657 q -0.503906,0.029297 -1.189453,0.087891 -0.679687,0.058594 -1.078125,0.1699218 -0.474609,0.1347657 -0.767578,0.421875 -0.292969,0.28125 -0.292969,0.7792969 0,0.5625 0.339844,0.8496094 0.339844,0.28125 1.037109,0.28125 0.580079,0 1.060547,-0.2226562 0.480469,-0.2285157 0.890625,-0.5449222 z"
       id="path22" />
    <path
       d="M 52.042969,-0.05859375 Q 51.732422,0.0234375 51.363281,0.07617187 51,0.12890625 50.712891,0.12890625 q -1.001954,0 -1.523438,-0.5390625 -0.521484,-0.5390625 -0.521484,-1.72851565 v -3.4804687 h -0.744141 v -0.9257813 h 0.744141 v -1.8808594 h 1.101562 v 1.8808594 h 2.273438 v 0.9257813 h -2.273438 v 2.9824218 q 0,0.515625 0.02344,0.8085938 0.02344,0.2871094 0.164062,0.5390625 0.128906,0.234375 0.351563,0.34570312 0.228515,0.10546875 0.691406,0.10546875 0.269531,0 0.5625,-0.0761719 0.292969,-0.0820313 0.421875,-0.13476557 h 0.05859 z"
       id="path24" />
    <path
       d="m 58.458984,0 h -1.095703 v -0.69726562 q -0.146484,0.0996094 -0.398437,0.28124999 -0.246094,0.17578125 -0.480469,0.28125001 Q 56.208984,0 55.851562,0.08789062 q -0.357421,0.09375 -0.83789,0.09375 -0.884766,0 -1.5,-0.5859375 -0.615235,-0.5859375 -0.615235,-1.49414062 0,-0.7441406 0.316407,-1.2011719 0.322265,-0.4628906 0.914062,-0.7265625 0.597656,-0.2636718 1.435547,-0.3574218 0.837891,-0.09375 1.798828,-0.140625 v -0.1699219 q 0,-0.375 -0.134765,-0.6210938 -0.128907,-0.2460937 -0.375,-0.3867187 -0.234375,-0.1347656 -0.5625,-0.1816406 -0.328125,-0.046875 -0.685547,-0.046875 -0.433594,0 -0.966797,0.1171875 -0.533203,0.1113281 -1.101563,0.328125 h -0.05859 v -1.1191407 q 0.322265,-0.087891 0.93164,-0.1933593 0.609375,-0.1054688 1.201172,-0.1054688 0.691406,0 1.201172,0.1171875 0.515625,0.1113281 0.890625,0.3867188 0.369141,0.2695312 0.5625,0.6972656 0.193359,0.4277344 0.193359,1.0605469 z m -1.095703,-1.6113281 v -1.8222657 q -0.503906,0.029297 -1.189453,0.087891 -0.679687,0.058594 -1.078125,0.1699218 -0.474609,0.1347657 -0.767578,0.421875 -0.292969,0.28125 -0.292969,0.7792969 0,0.5625 0.339844,0.8496094 0.339844,0.28125 1.037109,0.28125 0.580078,0 1.060547,-0.2226562 0.480469,-0.2285157 0.890625,-0.5449222 z"
       id="path26" />
  </g>
</svg>
