<?xml version="1.0" encoding="UTF-8" standalone="no"?>
<!-- Created with Inkscape (http://www.inkscape.org/) -->

<svg
   version="1.1"
   id="svg1242"
   width="619.11981"
   height="381.47321"
   viewBox="0 0 619.11981 381.47321"
   sodipodi:docname="ss3sim.svg"
   inkscape:version="1.2.2 (b0a84865, 2022-12-01)"
   xmlns:inkscape="http://www.inkscape.org/namespaces/inkscape"
   xmlns:sodipodi="http://sodipodi.sourceforge.net/DTD/sodipodi-0.dtd"
   xmlns="http://www.w3.org/2000/svg"
   xmlns:svg="http://www.w3.org/2000/svg">
  <defs
     id="defs1246" />
  <sodipodi:namedview
     id="namedview1244"
     pagecolor="#ffffff"
     bordercolor="#666666"
     borderopacity="1.0"
     inkscape:showpageshadow="2"
     inkscape:pageopacity="0.0"
     inkscape:pagecheckerboard="0"
     inkscape:deskcolor="#d1d1d1"
     showgrid="false"
     inkscape:zoom="0.79643627"
     inkscape:cx="295.06441"
     inkscape:cy="120.53695"
     inkscape:window-width="1419"
     inkscape:window-height="708"
     inkscape:window-x="114"
     inkscape:window-y="186"
     inkscape:window-maximized="0"
     inkscape:current-layer="g1248" />
  <g
     inkscape:groupmode="layer"
     inkscape:label="Image"
     id="g1248"
     transform="translate(-57.117059,-32.416072)">
    <g
       aria-label="ss3sim"
       id="text1387"
       style="font-size:40px"
       transform="matrix(2.7472219,0,0,2.7472219,-269.27425,-532.90786)">
      <path
         d="m 182.42635,337.7435 q 0,2.98828 -2.48047,4.90234 -2.46094,1.91407 -6.73828,1.91407 -2.42188,0 -4.45313,-0.56641 -2.01172,-0.58594 -3.37891,-1.26953 v -4.1211 h 0.19532 q 1.73828,1.3086 3.86718,2.08985 2.12891,0.76172 4.08204,0.76172 2.42187,0 3.78906,-0.78125 1.36719,-0.78125 1.36719,-2.46094 0,-1.28906 -0.74219,-1.95313 -0.74219,-0.66406 -2.85156,-1.13281 -0.78125,-0.17578 -2.05079,-0.41015 -1.25,-0.23438 -2.28515,-0.50782 -2.8711,-0.76172 -4.08203,-2.22656 -1.19141,-1.48437 -1.19141,-3.63281 0,-1.34766 0.54688,-2.53906 0.5664,-1.19141 1.69921,-2.12891 1.09375,-0.91797 2.77344,-1.44531 1.69922,-0.54688 3.78906,-0.54688 1.95313,0 3.94532,0.48828 2.01172,0.46875 3.33984,1.15235 v 3.92578 h -0.19531 q -1.40625,-1.03516 -3.41797,-1.73828 -2.01172,-0.72266 -3.94531,-0.72266 -2.01172,0 -3.39844,0.78125 -1.38672,0.76172 -1.38672,2.28516 0,1.34765 0.83984,2.03125 0.82032,0.68359 2.65625,1.11328 1.01563,0.23437 2.26563,0.46875 1.26953,0.23437 2.10937,0.42969 2.5586,0.58593 3.94532,2.01171 1.38672,1.44532 1.38672,3.82813 z"
         id="path1389" />
      <path
         d="m 203.26619,337.7435 q 0,2.98828 -2.48047,4.90234 -2.46094,1.91407 -6.73828,1.91407 -2.42188,0 -4.45313,-0.56641 -2.01171,-0.58594 -3.3789,-1.26953 v -4.1211 h 0.19531 q 1.73828,1.3086 3.86719,2.08985 2.1289,0.76172 4.08203,0.76172 2.42187,0 3.78906,-0.78125 1.36719,-0.78125 1.36719,-2.46094 0,-1.28906 -0.74219,-1.95313 -0.74219,-0.66406 -2.85156,-1.13281 -0.78125,-0.17578 -2.05078,-0.41015 -1.25,-0.23438 -2.28516,-0.50782 -2.87109,-0.76172 -4.08203,-2.22656 -1.19141,-1.48437 -1.19141,-3.63281 0,-1.34766 0.54688,-2.53906 0.56641,-1.19141 1.69922,-2.12891 1.09375,-0.91797 2.77344,-1.44531 1.69921,-0.54688 3.78906,-0.54688 1.95312,0 3.94531,0.48828 2.01172,0.46875 3.33984,1.15235 v 3.92578 h -0.19531 q -1.40625,-1.03516 -3.41797,-1.73828 -2.01172,-0.72266 -3.94531,-0.72266 -2.01172,0 -3.39844,0.78125 -1.38672,0.76172 -1.38672,2.28516 0,1.34765 0.83985,2.03125 0.82031,0.68359 2.65625,1.11328 1.01562,0.23437 2.26562,0.46875 1.26953,0.23437 2.10938,0.42969 2.55859,0.58593 3.94531,2.01171 1.38672,1.44532 1.38672,3.82813 z"
         id="path1391" />
      <path
         d="m 225.18025,330.02866 q 0.9375,0.83984 1.54297,2.10937 0.60547,1.26953 0.60547,3.28125 0,1.99219 -0.72266,3.65234 -0.72265,1.66016 -2.03125,2.89063 -1.46484,1.36719 -3.45703,2.03125 -1.97265,0.64453 -4.33594,0.64453 -2.42187,0 -4.76562,-0.58594 -2.34375,-0.5664 -3.84766,-1.25 v -4.08203 h 0.29297 q 1.66016,1.09375 3.90625,1.81641 2.2461,0.72265 4.33594,0.72265 1.23047,0 2.61719,-0.41015 1.38672,-0.41016 2.24609,-1.21094 0.89844,-0.85937 1.32813,-1.89453 0.44921,-1.03516 0.44921,-2.61719 0,-1.5625 -0.50781,-2.57812 -0.48828,-1.03516 -1.36719,-1.6211 -0.8789,-0.60547 -2.1289,-0.82031 -1.25,-0.23437 -2.69531,-0.23437 h -1.75782 v -3.24219 h 1.36719 q 2.96875,0 4.72656,-1.23047 1.77735,-1.25 1.77735,-3.63281 0,-1.05469 -0.44922,-1.83594 -0.44922,-0.80078 -1.25,-1.30859 -0.83985,-0.50782 -1.79688,-0.70313 -0.95703,-0.19531 -2.16797,-0.19531 -1.85546,0 -3.94531,0.66406 -2.08984,0.66406 -3.94531,1.875 h -0.19531 V 316.181 q 1.38672,-0.68359 3.6914,-1.25 2.32422,-0.58594 4.49219,-0.58594 2.12891,0 3.75,0.39063 1.62109,0.39062 2.92969,1.25 1.40625,0.9375 2.1289,2.26562 0.72266,1.32813 0.72266,3.10547 0,2.42188 -1.71875,4.23828 -1.69922,1.79688 -4.02344,2.26563 v 0.27343 q 0.9375,0.15625 2.14844,0.66407 1.21094,0.48828 2.05078,1.23047 z"
         id="path1393" />
      <path
         d="m 249.53572,337.7435 q 0,2.98828 -2.48047,4.90234 -2.46094,1.91407 -6.73828,1.91407 -2.42187,0 -4.45312,-0.56641 -2.01172,-0.58594 -3.37891,-1.26953 v -4.1211 h 0.19531 q 1.73828,1.3086 3.86719,2.08985 2.12891,0.76172 4.08203,0.76172 2.42188,0 3.78906,-0.78125 1.36719,-0.78125 1.36719,-2.46094 0,-1.28906 -0.74219,-1.95313 -0.74218,-0.66406 -2.85156,-1.13281 -0.78125,-0.17578 -2.05078,-0.41015 -1.25,-0.23438 -2.28516,-0.50782 -2.87109,-0.76172 -4.08203,-2.22656 -1.1914,-1.48437 -1.1914,-3.63281 0,-1.34766 0.54687,-2.53906 0.56641,-1.19141 1.69922,-2.12891 1.09375,-0.91797 2.77344,-1.44531 1.69922,-0.54688 3.78906,-0.54688 1.95312,0 3.94531,0.48828 2.01172,0.46875 3.33985,1.15235 v 3.92578 h -0.19532 q -1.40625,-1.03516 -3.41797,-1.73828 -2.01171,-0.72266 -3.94531,-0.72266 -2.01172,0 -3.39844,0.78125 -1.38671,0.76172 -1.38671,2.28516 0,1.34765 0.83984,2.03125 0.82031,0.68359 2.65625,1.11328 1.01562,0.23437 2.26562,0.46875 1.26954,0.23437 2.10938,0.42969 2.55859,0.58593 3.94531,2.01171 1.38672,1.44532 1.38672,3.82813 z"
         id="path1395" />
      <path
         d="m 258.73494,318.56381 h -4.14063 v -3.80859 h 4.14063 z m -0.23438,25.46875 h -3.67187 v -21.8164 h 3.67187 z"
         id="path1397" />
      <path
         d="m 297.60213,344.03256 h -3.67188 v -12.42187 q 0,-1.40625 -0.13672,-2.71485 -0.11718,-1.30859 -0.52734,-2.08984 -0.44922,-0.83984 -1.28906,-1.26953 -0.83985,-0.42969 -2.42188,-0.42969 -1.54297,0 -3.08594,0.78125 -1.54296,0.76172 -3.08593,1.95313 0.0586,0.44921 0.0976,1.05468 0.0391,0.58594 0.0391,1.17188 v 13.96484 h -3.67188 v -12.42187 q 0,-1.44532 -0.13672,-2.73438 -0.11719,-1.30859 -0.52734,-2.08984 -0.44922,-0.83985 -1.28906,-1.25 -0.83985,-0.42969 -2.42188,-0.42969 -1.50391,0 -3.02734,0.74219 -1.50391,0.74219 -3.00782,1.89453 v 16.28906 h -3.67187 v -21.8164 h 3.67187 v 2.42187 q 1.71875,-1.42578 3.41797,-2.22656 1.71875,-0.80078 3.65235,-0.80078 2.22656,0 3.76953,0.9375 1.5625,0.9375 2.32422,2.59765 2.22656,-1.875 4.0625,-2.69531 1.83593,-0.83984 3.92578,-0.83984 3.59375,0 5.29297,2.1875 1.71875,2.16797 1.71875,6.07422 z"
         id="path1399" />
    </g>
    <g
       id="g1369">
      <path
         style="fill:#bad2e7;stroke-width:0.32"
         d="m 166.39999,264.45055 c -9.07959,-0.78695 -15.03749,-1.71527 -21.56119,-3.3595 -32.74391,-8.2528 -60.341876,-30.39452 -75.433229,-60.51976 -6.251164,-12.47853 -9.981516,-24.91447 -11.690034,-38.97128 -0.785731,-6.46459 -0.789642,-19.83565 -0.0077,-26.24001 0.627036,-5.13547 2.022553,-12.60436 3.103683,-16.61107 l 0.702637,-2.60401 1.162908,0.21061 c 5.044947,0.91366 9.196966,4.32311 19.831199,16.28447 3.442397,3.872 8.036214,8.93539 10.20848,11.25198 20.337826,21.68902 42.615296,32.59458 70.120506,34.32632 2.7045,0.17028 4.9836,0.37592 5.06466,0.45698 0.26328,0.26327 -3.50255,2.63951 -6.78194,4.2794 -6.15619,3.07846 -15.25094,6.13017 -22.47769,7.54232 -1.97873,0.38665 -3.59873,0.79014 -3.6,0.89664 -0.003,0.27976 3.44432,2.64427 5.01427,3.43893 2.79742,1.41599 6.08938,2.09045 10.18342,2.08639 8.03675,-0.008 13.18464,-1.66689 28.64,-9.22931 11.68085,-5.71552 15.08463,-7.14637 20.83426,-8.75813 6.09873,-1.70963 18.50431,-3.57151 23.79664,-3.57151 2.03244,0 2.20758,-0.33499 1.10654,-2.11651 -2.0393,-3.29965 -6.04406,-3.96216 -17.32004,-2.86526 -3.54982,0.34531 -5.69239,0.40449 -7.30673,0.20178 -1.25627,-0.15774 -2.35643,-0.35911 -2.4448,-0.44748 -0.23176,-0.23176 0.54724,-0.60066 4.85413,-2.29875 19.46755,-7.67548 38.71807,-23.64837 58.53137,-48.56571 4.18327,-5.2609 11.16205,-14.8339 14.10863,-19.353229 1.056,-1.619644 2.00711,-2.947065 2.11359,-2.949827 0.58228,-0.0151 4.52393,9.535656 6.6506,16.114616 4.06131,12.56386 5.71574,24.35537 5.37101,38.28037 -0.30801,12.44162 -1.92879,22.00245 -5.64574,33.30364 -14.15289,43.03107 -51.92367,73.87071 -96.96946,79.17507 -4.10854,0.4838 -17.09122,0.8778 -20.16,0.61183 z m 237.2725,-29.54611 c -10.0311,-1.60292 -14.84851,-7.33975 -14.86694,-17.70443 l -0.006,-3.12 h 6.35264 6.35264 l 0.19571,2.8 c 0.26896,3.84758 0.70122,5.12709 2.25584,6.67725 2.87773,2.86947 8.54404,2.70747 11.3385,-0.32415 2.82362,-3.06328 2.66944,-8.40989 -0.3249,-11.267 -1.94931,-1.85996 -3.19977,-2.5273 -8.00288,-4.2709 -5.36752,-1.94849 -7.38432,-2.84804 -9.68496,-4.31975 -3.69113,-2.36118 -6.23001,-5.90653 -7.22956,-10.09545 -0.59117,-2.47755 -0.49703,-8.3195 0.17533,-10.88 1.65878,-6.31717 5.69801,-10.26761 12.33164,-12.06062 2.86832,-0.77527 10.45805,-0.77391 13.56787,0.003 7.93412,1.9807 12.03095,6.90763 12.57021,15.11727 l 0.19843,3.02092 h -6.24406 -6.24406 l -0.22032,-2.15027 c -0.52004,-5.07586 -3.12855,-7.48215 -7.60388,-7.01439 -2.22524,0.23259 -3.40976,0.78727 -4.53379,2.12311 -1.95293,2.32093 -2.01065,7.41812 -0.11312,9.98471 1.06208,1.43652 3.10205,2.56694 9.88819,5.47938 7.67152,3.2924 9.93389,4.53217 12.3465,6.76582 3.27248,3.02974 4.53923,6.42757 4.53776,12.17164 -0.003,9.97264 -4.47274,16.03445 -13.58973,18.4285 -2.82432,0.74165 -10.5111,1.10516 -13.44749,0.63594 z m 243.58438,-0.19229 c -1.37671,-0.26082 -3.24871,-0.78729 -4.16,-1.16993 -6.45501,-2.71037 -9.23987,-7.25699 -9.71571,-15.86221 l -0.19908,-3.6 h 6.56615 6.56617 l 0.15188,3.15378 c 0.18176,3.77488 0.97212,5.75004 2.77244,6.92868 3.26413,2.13692 8.41421,1.72985 10.82599,-0.85569 1.20032,-1.28684 1.78637,-3.12558 1.77747,-5.57704 -0.0186,-5.1537 -2.27606,-7.25687 -11.12221,-10.36254 -12.02733,-4.22252 -16.46889,-9.40259 -16.46889,-19.20719 0,-5.37341 1.79193,-10.41257 4.75715,-13.37778 1.76333,-1.76334 5.1024,-3.61579 7.87174,-4.36709 1.056,-0.28648 3.576,-0.60383 5.6,-0.70521 10.16963,-0.50939 17.56509,3.35981 19.97389,10.45008 0.36205,1.06563 0.65728,3.05404 0.74832,5.04 l 0.15037,3.28 h -6.11018 c -6.95318,0 -6.22621,0.34311 -6.56419,-3.09812 -0.41638,-4.23926 -3.21821,-6.51667 -7.48013,-6.08004 -2.35865,0.24164 -4.18704,1.34266 -5.09561,3.06849 -0.96919,1.84097 -1.04176,5.89981 -0.14096,7.8829 1.07644,2.36983 2.08124,2.99189 11.15638,6.90696 7.19536,3.10412 9.74598,4.54526 12.08336,6.82729 2.26793,2.21419 3.49568,4.78842 4.00921,8.40616 0.67376,4.74661 0.0654,9.12327 -1.82585,13.13612 -1.99616,4.23531 -6.03779,7.30091 -11.52845,8.74439 -3.35811,0.88284 -11.03552,1.11317 -14.59926,0.43799 z M 330.55999,202.40001 v -31.52 h 17.75999 17.76 v 5.28 5.28 h -11.2 -11.19999 v 7.19563 7.19562 l 10.47999,0.0844 10.48,0.0844 0.0878,5.36 0.0877,5.36 H 354.24774 343.68 v 13.6 13.6 h -6.56 -6.56 z m 40.31999,0 v -31.52 h 6.4 6.4 v 31.52 31.52 h -6.4 -6.4 z m 64.32,0 v -31.52 h 6.56 6.56 v 12 12 h 7.2 7.2 v -12 -12 h 6.56 6.56 v 31.52 31.52 h -6.56 -6.56 v -13.92 -13.92 h -7.2 -7.2 v 13.92 13.92 h -6.56 -6.56 z m 48.32,0 v -31.52 h 17.76 17.76 v 5.28 5.28 h -11.2 -11.2 v 7.19563 7.19562 l 10.48,0.0844 10.48,0.0844 v 5.28 5.28 l -10.48,0.0844 -10.48,0.0844 v 8.31563 8.31563 h 11.52 11.52 v 5.28 5.28 h -18.08 -18.08 z m 41.6,0 v -31.52 l 13.2,0.006 c 14.29574,0.006 15.85388,0.1475 19.23369,1.74641 5.22503,2.47182 7.87683,7.4302 7.87683,14.72804 0,5.31462 -1.27126,9.18096 -3.93161,11.95724 -1.23975,1.29376 -4.54458,3.20411 -5.65891,3.27112 -0.264,0.0159 0.168,0.20801 0.96,0.42696 2.32608,0.64306 3.74867,1.44602 4.98358,2.81291 2.31856,2.56637 2.91891,5.32255 3.33098,15.29177 0.33657,8.1427 0.71382,10.23142 2.07964,11.51457 0.4432,0.41635 0.8058,0.87589 0.8058,1.02121 0,0.14532 -3.1761,0.26422 -7.05799,0.26422 h -7.05801 l -0.66445,-1.50214 c -0.58701,-1.327 -0.6993,-2.49296 -0.96304,-10 -0.32211,-9.16876 -0.6352,-11.11791 -2.05738,-12.80807 -1.50131,-1.7842 -2.39078,-2.04754 -7.39913,-2.19066 l -4.56,-0.1303 v 13.31559 13.31558 h -6.56 -6.56 v -31.52 z m 20.67881,-4.35025 c 4.09818,-0.71366 6.24218,-3.17307 6.69347,-7.67807 0.25514,-2.54688 -0.44403,-5.66846 -1.61283,-7.20083 -1.46563,-1.92155 -3.26617,-2.49824 -8.23945,-2.63897 l -4.4,-0.12451 v 8.99631 8.99632 h 2.77379 c 1.52557,0 3.67885,-0.15761 4.78502,-0.35025 z m 27.32119,4.35025 v -31.52 h 6.39999 6.4 v 31.52 31.52 h -6.4 -6.39999 z m 20.79999,0 v -31.52 h 17.76 17.76 v 5.28 5.28 h -11.2 -11.2 v 7.19563 7.19562 l 10.48,0.0844 10.48,0.0844 0.0878,5.36 0.0877,5.36 h -10.56774 -10.56775 v 8.32 8.32 h 11.68 11.68 v 5.28 5.28 h -18.24 -18.24 z M 173.15545,170.21362 c -10.31518,-1.24401 -22.10914,-8.50673 -34.81865,-21.4413 -6.67421,-6.7924 -10.66411,-11.74292 -22.67337,-28.13232 -4.19131,-5.72 -8.9136,-12.056 -10.49398,-14.08 C 96.167497,95.03121 89.155094,88.083152 81.683331,83.289408 L 78.406662,81.187161 79.572368,79.55358 C 84.269395,72.971327 93.42605,63.441762 100.4205,57.856399 c 17.18174,-13.720346 36.26798,-21.791211 58.61949,-24.788014 5.44949,-0.730643 21.57718,-0.825427 27.04,-0.158912 22.6263,2.760618 42.35227,10.990116 59.83612,24.963095 6.08853,4.865905 13.67966,12.473287 18.14001,18.178814 l 1.49612,1.913798 -3.07361,0.863901 c -9.70802,2.728631 -18.00683,9.773044 -26.08673,22.143609 -3.25493,4.9834 -6.39401,10.62268 -12.46177,22.38731 -5.57059,10.80068 -9.07724,17.114 -11.55309,20.8 -5.20652,7.75137 -12.51484,16.02639 -17.33705,19.6303 -2.93589,2.19415 -8.66549,5.02737 -11.68,5.77562 -3.03527,0.75339 -7.15819,1.01508 -10.20454,0.6477 z m -40.59926,-74.613617 0.0838,-12.24 3.10855,-0.09145 c 4.77759,-0.14055 4.41145,-1.210493 4.41145,12.89145 V 107.84 h 3.04 3.04 l -0.002,-12.239997 c -9.6e-4,-7.432259 -0.1316,-12.707443 -0.33229,-13.430064 -0.4421,-1.591831 -1.75448,-3.091565 -3.33268,-3.808445 -1.13163,-0.514026 -2.203,-0.588314 -8.57324,-0.594464 l -7.27987,-0.007 v 15.04 15.03997 h 2.8762 2.8762 z m 34.04984,11.522137 c 1.39757,-0.75495 3.00283,-2.42521 3.51968,-3.66219 0.6248,-1.49538 0.59983,-20.197013 -0.0293,-21.961131 -0.54892,-1.53914 -1.2888,-2.359732 -2.84265,-3.152775 -1.10628,-0.564614 -1.78192,-0.61608 -6.90472,-0.525949 -5.44074,0.09573 -5.72694,0.133168 -6.83668,0.89441 -0.63702,0.436979 -1.4539,1.320586 -1.81527,1.963571 -0.62602,1.113863 -0.65705,1.67017 -0.65705,11.781386 0,11.851028 -0.0431,11.592008 2.25988,13.563318 1.8003,1.54098 2.96931,1.79174 7.98012,1.71176 3.35787,-0.0536 4.54406,-0.18999 5.32604,-0.6124 z m -9.02488,-5.49588 c -0.5805,-0.42405 -0.62748,-0.96289 -0.7178,-8.231927 -0.0531,-4.277997 -0.0169,-8.095741 0.0805,-8.483879 0.35233,-1.403818 1.01904,-1.710451 3.71901,-1.710451 3.98298,0 3.81714,-0.407031 3.81714,9.368797 0,9.93933 0.16371,9.5112 -3.63698,9.5112 -1.774,0 -2.84457,-0.14892 -3.26186,-0.45374 z m 23.85884,0.45374 v -5.759997 h 3.84 3.84 v 5.759997 5.76 h 2.88 2.88 V 94.930333 c 0,-12.858657 -0.003,-12.915175 -0.73688,-14.303124 -0.50365,-0.952426 -1.1779,-1.626675 -2.13032,-2.13033 -1.29059,-0.682476 -1.78048,-0.736876 -6.63588,-0.736876 -4.53048,0 -5.40365,0.08293 -6.42967,0.610694 -1.44806,0.744845 -2.79019,2.121395 -3.24689,3.330138 -0.21949,0.580941 -0.34036,5.381994 -0.34036,13.52 V 107.84 h 3.04 3.04 z m 0,-14.536771 c 0,-2.877927 0.0388,-3.0473 0.84316,-3.680001 0.63287,-0.49782 1.30603,-0.663225 2.69917,-0.663225 3.49621,0 4.13767,0.776349 4.13767,5.00775 v 2.35225 h -3.84 -3.84 z m 24.32,14.536771 v -5.759997 h 3.84 3.84 v 5.759997 5.76 h 2.89008 2.89008 l -0.0901,-13.359997 -0.0901,-13.36 -0.74695,-1.047245 c -1.42952,-2.004231 -2.56784,-2.312755 -8.53305,-2.312755 -4.63435,0 -5.46071,0.07918 -6.53249,0.625968 -1.54721,0.789328 -2.78728,2.249571 -3.21343,3.783968 -0.20069,0.722621 -0.33121,5.997805 -0.33229,13.430064 l -0.002,12.239997 h 3.04 3.04 z m 0,-14.414541 c 0,-2.679168 0.061,-2.95552 0.81945,-3.713997 0.75964,-0.759642 0.99279,-0.810694 3.19451,-0.69951 3.26059,0.164649 3.47562,0.419049 3.61693,4.278957 l 0.11089,3.029094 h -3.87089 -3.87089 z m 247.38892,70.399471 c -22.10909,-2.77648 -37.03402,-19.50964 -38.74416,-43.43826 -1.13539,-15.886295 3.80138,-30.742222 13.42749,-40.406527 4.96467,-4.984387 9.77123,-7.953968 16.48774,-10.186384 4.8344,-1.606848 9.33962,-2.273757 15.36,-2.273757 8.39949,0 14.34717,1.28057 20.8,4.478368 6.66425,3.302564 12.08694,8.043866 16.15395,14.124084 9.87926,14.769664 11.33715,37.078356 3.50096,53.572116 -4.11488,8.66111 -11.33616,16.00183 -19.65491,19.97995 -6.38922,3.0554 -11.16112,4.11886 -19.36,4.31453 -3.08,0.0735 -6.66698,-3.2e-4 -7.97107,-0.16412 z m 12.06457,-17.43391 c 7.83095,-1.55251 14.16208,-7.46521 17.0465,-15.91988 1.45786,-4.27327 1.93645,-7.10386 2.12342,-12.55939 0.33559,-9.79165 -1.4224,-17.232137 -5.53014,-23.405712 -2.10883,-3.169363 -4.59766,-5.436282 -7.81328,-7.116634 -3.78554,-1.978147 -5.80109,-2.404825 -11.36,-2.404825 -6.63645,0 -9.40547,0.819059 -14.15658,4.187389 -6.58617,4.669315 -10.64342,14.933437 -10.64342,26.925952 0,17.05357 7.93248,28.79605 20.64,30.55343 2.34582,0.32441 7.43312,0.18779 9.6935,-0.26033 z m -134.50393,15.45376 c -0.0847,-0.22263 -0.11702,-21.06878 -0.0718,-46.32478 l 0.0822,-45.919998 10.12032,-0.08444 10.12031,-0.08444 19.15968,30.799137 19.15968,30.799141 0.16,-30.714699 0.16,-30.714696 h 9.6 9.6 V 110.08 156.32001 l -10.24,0.0749 -10.24,0.0749 -19.04,-30.692 -19.04,-30.691994 -0.16,30.617124 -0.16,30.61712 -9.52822,0.0848 c -7.45046,0.0663 -9.56179,-0.003 -9.68221,-0.32 z m 167.33635,-0.32029 c 0.10867,-0.39847 7.9375,-21.17249 17.39744,-46.16449 l 17.19987,-45.439998 10.60131,-0.08427 10.60131,-0.08427 14.09747,37.684258 c 7.7536,20.72635 15.21335,40.68162 16.57725,44.34504 2.22019,5.96347 2.51802,6.58321 2.8449,5.92 0.20083,-0.40742 7.76972,-20.35963 16.8198,-44.33824 l 16.45472,-43.597465 10.58762,-0.0026 10.58765,-0.0026 17.023,45.519995 c 9.36266,25.036 17.10752,45.84597 17.21085,46.24437 l 0.18781,0.72436 -10.65539,-0.0844 -10.65539,-0.0844 -3.5072,-10.32 -3.5072,-10.32 h -17.0434 -17.04342 l -0.83811,2.32 c -0.46096,1.276 -2.10397,5.92 -3.65114,10.32 l -2.81305,8 h -19.79165 -19.79168 l -0.74582,-2.24 c -0.41018,-1.232 -1.98864,-5.876 -3.50762,-10.32 l -2.76182,-8.08 h -17.04599 -17.04595 l -1.54054,4.4 c -0.84733,2.42 -2.48477,7.064 -3.63875,10.32 l -2.09815,5.92 -10.35315,0.0845 -10.35312,0.0845 0.19754,-0.72448 z m 56.46073,-35.70981 c -0.0586,-0.14594 -2.61161,-7.56194 -5.67325,-16.48 -3.06163,-8.918075 -5.65363,-16.213067 -5.76,-16.211103 -0.10636,0.0019 -2.1374,5.506017 -4.5134,12.23122 -2.376,6.725203 -4.99594,14.139593 -5.82208,16.476423 l -1.50208,4.24878 h 11.68873 c 6.42883,0 11.64077,-0.11939 11.58208,-0.26532 z M 639.47434,111.44 c -1.67824,-4.884 -4.22128,-12.299997 -5.6512,-16.479997 -1.42992,-4.18 -2.67802,-7.6 -2.77357,-7.6 -0.0955,0 -2.76477,7.289261 -5.93165,16.198367 -3.16687,8.90909 -5.80595,16.32509 -5.8646,16.48 -0.0602,0.15899 4.9838,0.28163 11.58284,0.28163 h 11.68951 z"
         id="path1383" />
      <path
         style="fill:#7fc1e3;stroke-width:0.32"
         d="M 168.15999,264.44953 C 142.09671,262.91503 120.00941,254.5356 100.01903,238.59834 95.87525,235.29473 86.305273,225.72475 83.00166,221.58097 72.096995,207.90305 64.733402,193.18439 60.604513,176.81262 55.873146,158.05191 55.959367,137.10344 60.842625,118.96 c 0.653641,-2.42857 0.688323,-2.47984 1.672428,-2.4724 1.330231,0.01 4.109216,1.17605 6.353709,2.66586 2.989155,1.98408 6.050083,5.04285 14.136514,14.12654 4.230298,4.752 9.352688,10.34708 11.383085,12.43351 9.362929,9.62128 19.000669,16.94509 28.971629,22.0158 12.93308,6.57709 24.2725,9.51859 41.44,10.74974 l 3.36,0.24096 -2.08,1.38097 c -6.07435,4.03293 -17.73292,8.39336 -27.95086,10.45392 l -3.47837,0.70145 1.23462,1.01774 c 1.73761,1.43237 5.65855,3.40665 8.11461,4.08587 1.54495,0.42725 3.23242,0.57517 6.56,0.57502 4.01995,-1.9e-4 4.90539,-0.10878 8.62239,-1.05756 5.67198,-1.44779 9.80631,-3.09839 17.13761,-6.84206 18.59304,-9.49439 27.25162,-12.13386 43.91877,-13.38811 2.86068,-0.21527 5.24728,-0.42601 5.30355,-0.46831 0.0563,-0.0423 -0.18171,-0.63087 -0.52885,-1.30792 -1.91755,-3.73984 -5.58884,-4.70794 -14.53263,-3.83216 -7.22536,0.7075 -12.72396,0.67457 -12.71968,-0.0762 6.4e-4,-0.11147 1.26063,-0.69248 2.8,-1.29113 14.77256,-5.74499 26.84162,-13.8884 40.83318,-27.55155 11.65988,-11.3862 23.28728,-25.58179 33.81095,-41.278931 l 2.03737,-3.038935 1.04981,2.238935 c 7.61564,16.241911 11.47413,35.020381 10.88168,52.958941 -0.56681,17.16242 -4.54526,32.98332 -12.10282,48.12859 -3.82186,7.65899 -7.97165,14.17253 -13.27173,20.83141 -3.67713,4.61985 -11.45859,12.53889 -16.32246,16.61107 -17.78648,14.89138 -40.04931,24.21871 -62.99714,26.39357 -3.96455,0.37573 -13.40822,0.65631 -16.32,0.48488 z m 235.99999,-29.57577 c -5.21238,-0.72781 -9.71661,-2.93865 -11.93984,-5.86047 -2.20316,-2.89548 -3.40547,-7.11136 -3.41459,-11.97328 l -0.006,-2.96 h 6.35639 6.35641 l 0.15818,3.02389 c 0.30227,5.7793 2.34422,8.14389 7.27939,8.42959 2.03706,0.11792 2.7361,0.0228 4.0257,-0.54761 2.05945,-0.91101 2.64739,-1.47235 3.54617,-3.38587 1.04586,-2.22666 1.04483,-5.45007 -0.003,-7.69911 -1.22067,-2.62143 -3.64281,-4.19482 -9.79981,-6.36582 -12.76211,-4.50003 -16.94115,-9.28257 -16.95526,-19.40389 -0.008,-5.93046 1.4753,-10.07228 4.8009,-13.40289 2.00544,-2.00847 4.96668,-3.58566 8.23955,-4.38847 3.21545,-0.78873 10.34233,-0.70485 13.56073,0.1596 7.87722,2.11578 11.63616,6.72528 12.2889,15.0696 l 0.22774,2.91098 h -6.28128 -6.28128 l -0.008,-1.36 c -0.0288,-4.99083 -2.47929,-7.89586 -6.67507,-7.91298 -3.50829,-0.0143 -5.90601,1.43845 -6.68937,4.05301 -0.58602,1.95594 -0.47863,5.46893 0.21376,6.9932 1.04272,2.29557 2.72624,3.36024 10.59849,6.70256 9.62215,4.08527 13.25469,6.56534 15.17939,10.36352 2.44554,4.82608 2.33242,12.68688 -0.26121,18.14832 -2.04979,4.31626 -6.23975,7.441 -11.75421,8.76589 -3.11558,0.74855 -9.6433,1.07598 -12.76397,0.64023 z m 244.54172,-0.0169 c -9.96099,-1.29323 -14.89798,-6.9084 -15.17258,-17.25682 l -0.0892,-3.36 h 6.4 6.4 l 0.18314,3.2 c 0.26976,4.71381 1.65958,6.91158 4.93686,7.80679 3.39437,0.92719 6.4528,0.25453 8.51715,-1.87325 1.75418,-1.80805 2.40138,-3.87405 2.07735,-6.63119 -0.53152,-4.52239 -2.93299,-6.53263 -11.3945,-9.53819 -10.7264,-3.81005 -14.93478,-7.9545 -16.04064,-15.79697 -0.44525,-3.15743 -0.11597,-7.20961 0.82714,-10.17949 1.7783,-5.59996 5.55763,-9.0837 11.64419,-10.73348 3.20208,-0.86793 10.31728,-0.94862 13.56291,-0.1538 8.21479,2.01172 12.7049,7.59526 12.72166,15.81958 l 0.005,2.32 h -6.03865 -6.03869 l -0.21801,-1.92708 c -0.43767,-3.86841 -1.9856,-6.38285 -4.33044,-7.03427 -2.50915,-0.69705 -5.96643,-0.15217 -7.42944,1.17092 -1.69955,1.537 -2.51241,4.90966 -1.88668,7.82805 0.76291,3.55822 2.12444,4.61006 10.71788,8.28002 8.13117,3.47252 10.20423,4.60762 12.68099,6.94336 3.44109,3.24519 4.53232,6.1603 4.52903,12.099 -0.004,7.50408 -2.40122,12.54359 -7.5609,15.89575 -4.26105,2.76834 -11.96918,4.0343 -19.00336,3.12106 z M 330.87999,202.40677 v -31.52676 h 17.59999 17.6 v 5.28 5.28 h -11.2 -11.19999 v 7.36 7.36 h 10.56793 10.5679 l -0.0879,5.2 -0.0879,5.2 -10.47654,0.0844 -10.47651,0.0844 -0.0835,13.51564 -0.0834,13.51563 -6.32,0.0868 -6.32,0.0868 z m 39.99999,-0.007 v -31.52 h 6.4 6.4 v 31.52 31.52 h -6.4 -6.4 z m 64.46746,31.12 c -0.0839,-0.22 -0.11533,-14.368 -0.07,-31.44 l 0.0825,-31.04 6.32,-0.0868 6.32,-0.0868 v 12.00676 12.00677 h 7.36 7.36 v -12 -12 h 6.4 6.4 v 31.52 31.52 h -6.4 -6.4 v -13.92 -13.92 h -7.36 -7.36 v 13.92 13.92 h -6.25005 c -4.70537,0 -6.28771,-0.0989 -6.40249,-0.4 z m 48.17254,-31.12001 v -31.52 h 17.6 17.6 v 5.28 5.28 h -11.20602 -11.20598 l 0.086,7.28 0.086,7.28 10.48,0.0844 10.48,0.0844 v 5.27563 5.27563 h -10.56 -10.56 v 8.32 8.32 h 11.68 11.68 v 5.28 5.28 h -18.08 -18.08 z m 41.6,-0.0211 v -31.54111 l 14,0.11806 c 12.44073,0.1049 14.19603,0.18251 15.76,0.69679 5.78115,1.90102 8.87689,5.25405 10.07558,10.91295 1.25213,5.91118 -0.0401,12.8539 -3.02534,16.25386 -1.44298,1.64345 -2.67181,2.46204 -4.91565,3.27451 l -1.91968,0.69511 1.25254,0.23312 c 3.55287,0.66124 5.95232,2.58991 7.12653,5.72826 0.98611,2.63563 1.29696,5.11846 1.63619,13.06818 0.16762,3.92776 0.46224,7.68532 0.65475,8.35013 0.19248,0.66481 0.78826,1.70791 1.32391,2.318 0.72109,0.82126 0.85981,1.15305 0.5343,1.27796 -0.24182,0.0928 -3.45555,0.12969 -7.14163,0.082 l -6.70192,-0.0867 -0.59741,-1.6 c -0.49299,-1.32036 -0.64672,-3.06956 -0.87968,-10.00832 -0.36995,-11.01928 -0.75625,-12.40377 -3.89747,-13.96911 -1.53309,-0.76397 -1.96531,-0.82256 -6.06784,-0.82256 h -4.41718 v 13.28 13.28 h -6.4 -6.4 v -31.54112 z m 21.61276,-4.47253 c 3.6986,-0.95729 5.51821,-3.37639 5.81684,-7.73321 0.29913,-4.36426 -0.98509,-7.29151 -3.86986,-8.82089 -1.14694,-0.60806 -1.93779,-0.71482 -6.03974,-0.81532 l -4.72,-0.11564 v 8.98935 8.98935 h 3.45276 c 2.07396,0 4.2144,-0.19713 5.36,-0.49364 z m 26.38724,4.49365 v -31.52 h 6.39999 6.4 v 31.52 31.52 h -6.4 -6.39999 z m 21.11999,0.003 V 170.8799 h 17.6 17.6 v 5.28 5.28 h -11.2 -11.2 v 7.36 7.36 h 10.56794 10.5679 l -0.0879,5.2 -0.0879,5.2 -10.48,0.0844 -10.48,0.0844 v 8.31562 8.31563 h 11.68794 11.6879 l -0.0879,5.2 -0.0879,5.2 -18,0.0827 -18,0.0827 z M 170.55999,169.76185 c -9.02701,-2.0195 -18.84032,-8.13764 -29.59068,-18.44842 C 133.8958,144.52916 127.88065,137.27125 117.27189,122.72 105.07127,105.98534 100.56092,100.31557 94.399996,93.968746 89.573967,88.997094 85.227881,85.353433 81.155571,82.864915 L 78.42927,81.198921 79.289283,80.039462 C 92.75734,61.88198 109.95658,48.579739 130.55999,40.385646 c 9.25734,-3.68169 18.55357,-6.017453 29.12,-7.316659 6.45256,-0.79338 20.73457,-0.792384 27.04,0.0019 26.70381,3.363766 49.78376,14.591875 68.48534,33.317262 4.62034,4.626211 10.36125,11.204582 10.04023,11.504838 -0.0691,0.0646 -1.27757,0.43129 -2.68557,0.814864 -3.40925,0.928768 -8.40495,3.382631 -11.36,5.579972 -5.31781,3.954259 -11.21509,10.730611 -16.04103,18.432197 -2.61276,4.16962 -6.66481,11.58583 -11.80176,21.6 -6.92716,13.50408 -9.90572,18.52236 -15.05066,25.35739 -8.25418,10.96565 -15.26162,16.72421 -23.66655,19.44864 -2.34887,0.76138 -3.35309,0.89665 -7.36,0.99141 -3.25294,0.0769 -5.26178,-0.0294 -6.72,-0.3556 z m -37.76,-74.081847 v -12.16 h 3.18186 c 2.92528,0 3.22202,0.05735 3.68,0.711203 0.42832,0.61152 0.49814,2.315853 0.49814,12.16 V 107.84 h 3.04 3.04 V 95.189725 c 0,-13.966039 6.4e-4,-13.959837 -2.00488,-15.720846 -1.94122,-1.704406 -2.87715,-1.868876 -10.63512,-1.868876 h -7.04 l -0.0831,15.12 -0.0831,15.119997 h 3.20313 3.20313 z m 33.96346,11.268247 c 1.18549,-0.61588 2.03829,-1.36956 2.75654,-2.43617 l 1.04,-1.54441 V 92.753562 c 0,-11.106897 -0.0716,-11.63065 -1.84405,-13.481083 -1.27511,-1.331238 -3.44036,-1.832476 -7.91595,-1.832476 -4.68717,0 -6.73041,0.511744 -8.29662,2.077958 -1.65909,1.659085 -1.83392,3.100659 -1.72105,14.19106 l 0.0977,9.597329 0.96547,1.37295 c 0.60221,0.85638 1.60925,1.70927 2.67654,2.26683 1.63168,0.8524 1.91556,0.89387 6.11799,0.89387 4.19766,0 4.48843,-0.0423 6.12346,-0.89175 z m -9.11386,-5.45344 c -0.46423,-0.51297 -0.5296,-1.612778 -0.5296,-8.910407 0,-9.894858 -0.19719,-9.3844 3.6252,-9.3844 3.89017,0 3.7348,-0.392707 3.7348,9.44 0,9.849427 0.1644,9.439997 -3.7904,9.439997 -2.02564,0 -2.61267,-0.113 -3.04,-0.58519 z m 23.7904,0.58519 v -5.759997 h 3.68 3.68 v 5.759997 5.76 h 3.05008 3.05008 l -0.0901,-13.359997 -0.0901,-13.36 -0.74695,-1.047245 c -1.3853,-1.942234 -2.84929,-2.421719 -7.85688,-2.573287 -4.85593,-0.146979 -6.30106,0.105248 -8.26491,1.442512 -0.65381,0.445204 -1.48181,1.414852 -1.84,2.154772 -0.62147,1.283773 -0.65126,1.926189 -0.65126,14.044279 V 107.84 h 3.04 3.04 z m 0,-14.328794 c 0,-3.968816 0.22626,-4.231203 3.64855,-4.231203 3.53503,0 3.71145,0.195136 3.71145,4.105197 v 2.934803 h -3.68 -3.68 z m 24.32,14.328794 v -5.759997 h 3.84 3.84 v 5.759997 5.76 h 3.05952 3.05953 l -0.0995,-13.039997 c -0.0893,-11.695232 -0.15723,-13.145546 -0.65918,-14.063459 -0.71909,-1.314993 -2.2975,-2.500045 -3.92034,-2.943332 -1.67044,-0.456294 -8.43799,-0.453581 -10.25564,0.0041 -1.87226,0.471437 -4.17993,2.503194 -4.61262,4.061117 -0.1981,0.713232 -0.32888,6.09648 -0.32995,13.581562 l -0.002,12.400009 h 3.04 3.04 z m 0,-14.399997 c 0,-3.833226 0.29746,-4.161943 3.76,-4.155101 1.364,0.0026 2.65099,0.113626 2.85998,0.246512 0.68612,0.436275 1.06002,1.991594 1.06002,4.409421 v 2.379168 h -3.84 -3.84 z m 248.40047,70.377567 c -21.00339,-2.03091 -36.01702,-16.96715 -39.26105,-39.05863 -0.63037,-4.29288 -0.6424,-12.79071 -0.0243,-17.13876 2.9359,-20.650881 15.67555,-35.129647 34.49004,-39.198373 4.44035,-0.960247 15.47059,-1.048858 19.87447,-0.159664 18.33625,3.702304 30.84553,16.795469 34.83033,36.456132 0.64746,3.194615 0.72848,4.506005 0.7168,11.601725 -0.0115,7.05137 -0.0979,8.38983 -0.72758,11.2875 -3.25466,14.97694 -11.05853,25.70139 -23.09923,31.74401 -7.79834,3.91359 -16.87316,5.42588 -26.79952,4.46606 z m 13.56128,-18.01556 c 5.70707,-1.85506 10.22758,-5.96133 13.08074,-11.88201 2.69289,-5.58817 3.73539,-10.54661 3.73401,-17.76 -0.003,-15.77151 -6.08285,-26.720103 -16.83142,-30.310311 -2.4032,-0.802714 -2.96781,-0.863462 -8.02509,-0.863462 -5.07776,0 -5.61504,0.05841 -8.06864,0.877222 -8.05046,2.686576 -13.35337,9.407933 -15.82393,20.056551 -0.94484,4.07249 -1.17194,13.23797 -0.43716,17.64251 2.1586,12.93924 8.69136,20.8135 19.07171,22.98813 0.77991,0.16338 3.50602,0.25207 6.05802,0.19707 3.97466,-0.0857 5.01306,-0.22126 7.24176,-0.9457 z m 108.76995,16.14209 -9.58832,-0.18409 -3.41383,-10.08001 -3.41379,-10.08 -17.13385,-0.0828 -17.13386,-0.0828 -0.61366,1.68277 c -0.33751,0.92552 -1.9656,5.53476 -3.61799,10.24276 l -3.00438,8.56001 h -10.31923 -10.31923 l 0.80323,-2.16 c 0.44176,-1.188 8.26525,-21.88801 17.3855,-46.00001 l 16.58227,-43.839998 10.54762,-0.08424 10.54758,-0.08424 16.62013,44.466708 c 9.14105,24.4567 16.66294,44.3666 16.71529,44.24425 0.0524,-0.12236 7.617,-20.09448 16.81028,-44.38248 l 16.71507,-44.160001 10.54972,-0.08349 10.54973,-0.08349 17.08215,45.683491 c 9.39516,25.12591 17.15059,45.86349 17.23423,46.08349 0.11978,0.31504 -2.11705,0.4 -10.53254,0.4 h -10.68464 l -1.23216,-3.76 c -0.67769,-2.068 -2.23792,-6.67725 -3.46717,-10.24277 l -2.235,-6.48276 -17.12397,0.0828 -17.124,0.0828 -3.55846,10.1554 -3.55844,10.15539 -8.64,0.007 c -4.752,0.004 -9.36,0.053 -10.24,0.10871 -0.88,0.0557 -5.91475,0.0185 -11.18828,-0.0828 z M 554.48231,119.92 c -0.0804,-0.22 -2.65152,-7.70107 -5.71363,-16.62459 -3.06214,-8.923532 -5.65958,-16.123532 -5.77213,-16.000002 -0.11254,0.123526 -2.74963,7.399798 -5.86019,16.169492 -3.11056,8.76969 -5.73418,16.14969 -5.83021,16.4 -0.14905,0.38838 1.54781,0.4551 11.57383,0.4551 9.26339,0 11.71756,-0.0846 11.60233,-0.4 z m 88.06761,0.32 c -0.11836,-0.94081 -11.4774,-33.191533 -11.61312,-32.971975 -0.19136,0.309655 -11.73683,32.708675 -11.73683,32.936065 0,0.0638 5.256,0.11591 11.68,0.11591 6.424,0 11.67546,-0.036 11.66995,-0.08 z M 330.87999,110.07551 V 63.991013 l 10.1519,0.08449 10.15187,0.0845 19.20813,30.873393 19.20809,30.873394 0.0816,-30.953394 0.0816,-30.953393 h 9.43843 9.4384 V 110.08 156.16001 H 398.44901 388.258 L 369.44446,125.84 c -10.34742,-16.676 -19.00947,-30.530854 -19.24899,-30.78857 -0.36755,-0.395465 -0.43549,4.334967 -0.43549,30.32 v 30.78858 h -9.43999 -9.44 z"
         id="path1381" />
      <path
         style="fill:#9eb0d0;stroke-width:0.32"
         d="m 162.39999,263.9919 c -12.11504,-1.32063 -21.76565,-3.64619 -32.05699,-7.72495 -35.689353,-14.14473 -62.352901,-45.47716 -70.484814,-82.82694 -1.89223,-8.69099 -2.577545,-15.31172 -2.57792,-24.90494 -3.2e-4,-10.39756 0.929642,-18.44793 3.231923,-27.97507 l 0.985956,-4.08 1.010924,0.008 c 1.384807,0.0104 4.146119,1.19513 6.450928,2.76774 3.206829,2.18806 6.027161,5.00704 13.871363,13.86466 13.809695,15.59384 23.24741,24.29532 32.90385,30.33707 14.04589,8.78808 28.57129,13.46725 45.86478,14.77476 2.376,0.17964 4.82214,0.32697 5.43586,0.3274 l 1.11585,6.4e-4 -1.75585,1.26875 c -5.30636,3.8343 -17.9653,8.6287 -28.22733,10.69071 l -3.5824,0.71983 1.68727,1.33371 c 7.19984,5.69115 17.81439,5.97453 30.73046,0.82043 2.00412,-0.79974 7.62012,-3.44038 12.48,-5.8681 12.19935,-6.0941 16.50232,-7.7467 25.31614,-9.72288 4.20148,-0.94204 11.91361,-1.97375 17.20833,-2.3021 3.47977,-0.2158 3.6012,-0.24794 3.40828,-0.90206 -0.33069,-1.12132 -1.87834,-2.87348 -3.19879,-3.62149 -2.11849,-1.20008 -5.12742,-1.519 -10.05782,-1.06603 -8.47168,0.77831 -14.40458,0.8091 -14.39797,0.0747 9.6e-4,-0.12403 1.62112,-0.85738 3.6,-1.62967 15.30528,-5.97313 28.21105,-15.07689 43.43797,-30.64123 10.11323,-10.33734 19.58925,-22.01823 29.10428,-35.87624 l 3.34428,-4.870719 1.0812,2.316176 c 7.915,16.955673 11.7564,36.778323 10.6683,55.051143 -1.00353,16.8524 -4.52455,30.51354 -11.56351,44.86504 -6.22613,12.69422 -13.12025,22.25371 -23.08355,32.00796 -5.95266,5.82776 -10.30797,9.36444 -17.07388,13.86465 -15.00786,9.98219 -30.82349,15.91067 -49.27712,18.4715 -4.41555,0.61276 -21.36659,0.90925 -25.6,0.44778 z m 242.87999,-29.10863 c -8.68304,-0.79592 -13.80032,-4.56422 -15.70534,-11.56517 -0.25712,-0.94495 -0.55875,-3.41321 -0.67027,-5.48502 l -0.20279,-3.76693 6.36919,0.0869 6.36921,0.0869 0.20749,3.04 c 0.11411,1.672 0.3697,3.4548 0.56797,3.96179 1.09859,2.80924 3.58448,4.34981 7.02742,4.35508 3.71271,0.006 6.06909,-1.25352 7.36839,-3.93752 0.76672,-1.58384 0.90966,-4.941 0.29734,-6.98465 -0.85866,-2.86603 -3.85078,-4.95372 -10.4983,-7.32504 -12.20784,-4.35477 -16.11031,-8.54122 -16.56115,-17.76623 -0.50093,-10.25017 3.82345,-16.79134 12.58156,-19.03129 3.18106,-0.81358 9.94871,-0.87496 13.34611,-0.12106 8.22647,1.8255 12.68266,7.289 12.69844,15.56892 l 0.005,2.48 h -6.08 -6.08 v -1.54192 c 0,-1.92353 -0.74695,-4.50091 -1.62957,-5.623 -1.23226,-1.56657 -2.96477,-2.19221 -5.72311,-2.06673 -2.01257,0.0916 -2.68761,0.26617 -3.75196,0.97053 -1.85732,1.22914 -2.72724,3.18249 -2.72362,6.1156 0.006,5.04219 1.38714,6.43379 10.07594,10.15365 7.72422,3.30693 9.82067,4.35991 12.25936,6.15744 2.08921,1.53993 4.35948,4.56918 4.93004,6.5782 1.5072,5.30708 1.05575,11.62709 -1.1648,16.30587 -2.28579,4.81633 -6.95779,7.95233 -13.39228,8.98935 -2.93111,0.4724 -7.07882,0.6247 -9.92,0.36427 z m 244.46662,-0.0297 c -10.77565,-0.96444 -16.12176,-6.81151 -16.14106,-17.65353 l -0.006,-3.12 h 6.19248 6.19245 l 0.19114,2.70807 c 0.25948,3.67736 0.77075,5.18475 2.29516,6.76724 1.49588,1.55281 2.92468,2.04345 5.92877,2.03587 3.16509,-0.008 5.63123,-1.41635 6.95181,-3.97007 0.75584,-1.46161 0.89184,-4.57443 0.29027,-6.64375 -0.94608,-3.25435 -3.5463,-5.12572 -10.60208,-7.63027 -8.4704,-3.00667 -12.69859,-5.96078 -14.82425,-10.35724 -1.32128,-2.73273 -1.74682,-4.89073 -1.73597,-8.80356 0.0166,-6.00511 1.43427,-10.01342 4.71574,-13.33335 3.70992,-3.75344 8.12291,-5.09885 15.95171,-4.86328 4.19175,0.12613 5.19399,0.26293 7.35767,1.00428 5.91107,2.02531 9.06985,5.49022 10.30057,11.29892 0.25488,1.20292 0.46592,3.08714 0.46896,4.18714 l 0.005,2 h -6.03372 -6.03373 l -0.19939,-2.16 c -0.43591,-4.72157 -2.73789,-7.12 -6.83376,-7.12 -3.62656,0 -5.84474,1.47032 -6.71037,4.448 -1.08528,3.73324 0.0288,7.57167 2.74374,9.45312 0.71127,0.49292 4.41504,2.24603 8.23059,3.89582 7.73444,3.34424 10.82864,5.11286 12.99293,7.42667 2.77978,2.97181 3.76371,5.96053 3.76371,11.43243 0,7.56639 -2.54048,12.8669 -7.65123,15.96376 -4.20189,2.54614 -10.76109,3.66392 -17.80214,3.03373 z m -318.86661,-32.4563 v -31.52273 l 17.51999,0.0827 17.52,0.0827 0.0879,5.2 0.0879,5.2 H 354.7219 343.34799 l 0.086,7.28 0.086,7.28 10.47999,0.0844 10.48,0.0844 v 5.11126 5.11125 l -10.48,0.0844 -10.47999,0.0844 -0.0834,13.68 -0.0834,13.68 h -6.23655 -6.23657 z m 39.99999,0.003 v -31.52 h 6.4 6.4 v 31.52 31.52001 h -6.4 -6.4 z m 64.64,0 v -31.52 h 6.24 6.24 v 12 12 h 7.3561 7.35612 l 0.0839,-11.92 0.0839,-11.92 6.32,-0.0868 6.32,-0.0868 v 31.53353 31.53353 l -6.32,-0.0868 -6.32,-0.0868 -0.0834,-13.84001 -0.0834,-13.84 h -7.35661 -7.35661 v 13.92 13.92001 h -6.24 -6.24 z m 48.14746,31.12001 c -0.0839,-0.22 -0.11533,-14.36801 -0.07,-31.44001 l 0.0825,-31.04 17.52,-0.0827 17.52,-0.0827 v 5.28273 5.28273 h -11.2 -11.2 v 7.36 7.36 h 10.56 10.56 v 5.11563 5.11563 l -10.48,0.0844 -10.48,0.0844 -0.0853,8.4 -0.0853,8.4 h 11.68532 11.68531 v 5.28 5.28001 h -17.93005 c -14.04938,0 -17.96304,-0.0866 -18.08249,-0.4 z m 41.59999,0 c -0.0839,-0.22 -0.11532,-14.36801 -0.0699,-31.44001 l 0.0825,-31.04 11.52,-0.095 c 15.66675,-0.12924 18.74092,0.27349 22.69587,2.97324 1.9968,1.36309 3.83462,3.73812 4.7776,6.17412 0.9375,2.42195 1.34019,6.9888 0.9047,10.25989 -0.84435,6.34171 -3.16221,9.65965 -8.16992,11.69494 l -1.76502,0.71735 2.2984,0.68237 c 5.66905,1.68309 6.93414,4.83712 7.53782,18.79312 0.31645,7.31546 0.57383,8.72472 1.8441,10.09752 1.42646,1.54161 1.26982,1.58249 -6.06429,1.58249 h -6.82074 l -0.58035,-1.2 c -0.6751,-1.39597 -1.09062,-6.04699 -1.12211,-12.56001 -0.0371,-7.67195 -0.94541,-10.5336 -3.8264,-12.05515 -1.28682,-0.67962 -1.81226,-0.74485 -6,-0.74485 h -4.58966 v 13.28 13.28001 h -6.25005 c -4.70538,0 -6.28771,-0.0989 -6.4025,-0.4 z m 21.952,-35.63543 c 3.76147,-1.11704 5.63258,-4.44987 5.35325,-9.53534 -0.15642,-2.84808 -0.82522,-4.53321 -2.38794,-6.0168 -1.5382,-1.46048 -3.22841,-1.85258 -7.98499,-1.85258 h -4.27977 v 8.96 8.96 h 3.78192 c 2.5455,0 4.34934,-0.16851 5.51753,-0.51542 z m 26.048,35.63543 c -0.0839,-0.22 -0.11533,-14.36801 -0.0699,-31.44001 l 0.0825,-31.04 6.31999,-0.0868 6.32,-0.0868 v 31.52677 31.52677 h -6.25004 c -4.70538,0 -6.28771,-0.0989 -6.4025,-0.4 z m 20.97254,-31.12289 v -31.52273 l 17.52,0.0827 17.52,0.0827 0.0879,5.2 0.0879,5.2 h -11.37392 -11.37392 l 0.086,7.28 0.086,7.28 10.48,0.0844 10.48,0.0844 v 5.11126 5.11125 l -10.48,0.0844 -10.48,0.0844 -0.0853,8.4 -0.0853,8.4 h 11.68531 11.68531 v 5.28 5.28 h -17.92 -17.92 z M 170.55999,169.76185 c -9.02701,-2.0195 -18.84032,-8.13764 -29.59068,-18.44842 C 133.8958,144.52916 127.88065,137.27125 117.27189,122.72 105.07127,105.98534 100.56092,100.31557 94.399996,93.968746 89.573967,88.997094 85.227881,85.353433 81.155571,82.864915 L 78.42927,81.198921 79.289283,80.039462 C 92.75734,61.88198 109.95658,48.579739 130.55999,40.385646 c 9.25734,-3.68169 18.55357,-6.017453 29.12,-7.316659 6.45256,-0.79338 20.73457,-0.792384 27.04,0.0019 26.70381,3.363766 49.78376,14.591875 68.48534,33.317262 4.62034,4.626211 10.36125,11.204582 10.04023,11.504838 -0.0691,0.0646 -1.27757,0.43129 -2.68557,0.814864 -3.40925,0.928768 -8.40495,3.382631 -11.36,5.579972 -5.31781,3.954259 -11.21509,10.730611 -16.04103,18.432197 -2.61276,4.16962 -6.66481,11.58583 -11.80176,21.6 -6.92716,13.50408 -9.90572,18.52236 -15.05066,25.35739 -8.25418,10.96565 -15.26162,16.72421 -23.66655,19.44864 -2.34887,0.76138 -3.35309,0.89665 -7.36,0.99141 -3.25294,0.0769 -5.26178,-0.0294 -6.72,-0.3556 z m -37.76,-74.081847 v -12.16 h 3.18186 c 2.92528,0 3.22202,0.05735 3.68,0.711203 0.42832,0.61152 0.49814,2.315853 0.49814,12.16 V 107.84 h 3.04 3.04 V 95.189725 c 0,-13.966039 6.4e-4,-13.959837 -2.00488,-15.720846 -1.94122,-1.704406 -2.87715,-1.868876 -10.63512,-1.868876 h -7.04 l -0.0831,15.12 -0.0831,15.119997 h 3.20313 3.20313 z m 33.96346,11.268247 c 1.18549,-0.61588 2.03829,-1.36956 2.75654,-2.43617 l 1.04,-1.54441 V 92.753562 c 0,-11.106897 -0.0716,-11.63065 -1.84405,-13.481083 -1.27511,-1.331238 -3.44036,-1.832476 -7.91595,-1.832476 -4.68717,0 -6.73041,0.511744 -8.29662,2.077958 -1.65909,1.659085 -1.83392,3.100659 -1.72105,14.19106 l 0.0977,9.597329 0.96547,1.37295 c 0.60221,0.85638 1.60925,1.70927 2.67654,2.26683 1.63168,0.8524 1.91556,0.89387 6.11799,0.89387 4.19766,0 4.48843,-0.0423 6.12346,-0.89175 z m -9.11386,-5.45344 c -0.46423,-0.51297 -0.5296,-1.612778 -0.5296,-8.910407 0,-9.894858 -0.19719,-9.3844 3.6252,-9.3844 3.89017,0 3.7348,-0.392707 3.7348,9.44 0,9.849427 0.1644,9.439997 -3.7904,9.439997 -2.02564,0 -2.61267,-0.113 -3.04,-0.58519 z m 23.7904,0.58519 v -5.759997 h 3.68 3.68 v 5.759997 5.76 h 3.05008 3.05008 l -0.0901,-13.359997 -0.0901,-13.36 -0.74695,-1.047245 c -1.3853,-1.942234 -2.84929,-2.421719 -7.85688,-2.573287 -4.85593,-0.146979 -6.30106,0.105248 -8.26491,1.442512 -0.65381,0.445204 -1.48181,1.414852 -1.84,2.154772 -0.62147,1.283773 -0.65126,1.926189 -0.65126,14.044279 V 107.84 h 3.04 3.04 z m 0,-14.328794 c 0,-3.968816 0.22626,-4.231203 3.64855,-4.231203 3.53503,0 3.71145,0.195136 3.71145,4.105197 v 2.934803 h -3.68 -3.68 z m 24.32,14.328794 v -5.759997 h 3.84 3.84 v 5.759997 5.76 h 3.05952 3.05953 l -0.0995,-13.039997 c -0.0893,-11.695232 -0.15723,-13.145546 -0.65918,-14.063459 -0.71909,-1.314993 -2.2975,-2.500045 -3.92034,-2.943332 -1.67044,-0.456294 -8.43799,-0.453581 -10.25564,0.0041 -1.87226,0.471437 -4.17993,2.503194 -4.61262,4.061117 -0.1981,0.713232 -0.32888,6.09648 -0.32995,13.581562 l -0.002,12.400009 h 3.04 3.04 z m 0,-14.399997 c 0,-3.833226 0.29746,-4.161943 3.76,-4.155101 1.364,0.0026 2.65099,0.113626 2.85998,0.246512 0.68612,0.436275 1.06002,1.991594 1.06002,4.409421 v 2.379168 h -3.84 -3.84 z m 248.40047,70.377567 c -21.00339,-2.03091 -36.01702,-16.96715 -39.26105,-39.05863 -0.63037,-4.29288 -0.6424,-12.79071 -0.0243,-17.13876 2.9359,-20.650881 15.67555,-35.129647 34.49004,-39.198373 4.44035,-0.960247 15.47059,-1.048858 19.87447,-0.159664 18.33625,3.702304 30.84553,16.795469 34.83033,36.456132 0.64746,3.194615 0.72848,4.506005 0.7168,11.601725 -0.0115,7.05137 -0.0979,8.38983 -0.72758,11.2875 -3.25466,14.97694 -11.05853,25.70139 -23.09923,31.74401 -7.79834,3.91359 -16.87316,5.42588 -26.79952,4.46606 z m 13.56128,-18.01556 c 5.70707,-1.85506 10.22758,-5.96133 13.08074,-11.88201 2.69289,-5.58817 3.73539,-10.54661 3.73401,-17.76 -0.003,-15.77151 -6.08285,-26.720103 -16.83142,-30.310311 -2.4032,-0.802714 -2.96781,-0.863462 -8.02509,-0.863462 -5.07776,0 -5.61504,0.05841 -8.06864,0.877222 -8.05046,2.686576 -13.35337,9.407933 -15.82393,20.056551 -0.94484,4.07249 -1.17194,13.23797 -0.43716,17.64251 2.1586,12.93924 8.69136,20.8135 19.07171,22.98813 0.77991,0.16338 3.50602,0.25207 6.05802,0.19707 3.97466,-0.0857 5.01306,-0.22126 7.24176,-0.9457 z m 108.76995,16.14209 -9.58832,-0.18409 -3.41383,-10.08001 -3.41379,-10.08 -17.13385,-0.0828 -17.13386,-0.0828 -0.61366,1.68277 c -0.33751,0.92552 -1.9656,5.53476 -3.61799,10.24276 l -3.00438,8.56001 h -10.31923 -10.31923 l 0.80323,-2.16 c 0.44176,-1.188 8.26525,-21.88801 17.3855,-46.00001 l 16.58227,-43.839998 10.54762,-0.08424 10.54758,-0.08424 16.62013,44.466708 c 9.14105,24.4567 16.66294,44.3666 16.71529,44.24425 0.0524,-0.12236 7.617,-20.09448 16.81028,-44.38248 l 16.71507,-44.160001 10.54972,-0.08349 10.54973,-0.08349 17.08215,45.683491 c 9.39516,25.12591 17.15059,45.86349 17.23423,46.08349 0.11978,0.31504 -2.11705,0.4 -10.53254,0.4 h -10.68464 l -1.23216,-3.76 c -0.67769,-2.068 -2.23792,-6.67725 -3.46717,-10.24277 l -2.235,-6.48276 -17.12397,0.0828 -17.124,0.0828 -3.55846,10.1554 -3.55844,10.15539 -8.64,0.007 c -4.752,0.004 -9.36,0.053 -10.24,0.10871 -0.88,0.0557 -5.91475,0.0185 -11.18828,-0.0828 z M 554.48231,119.92 c -0.0804,-0.22 -2.65152,-7.70107 -5.71363,-16.62459 -3.06214,-8.923532 -5.65958,-16.123532 -5.77213,-16.000002 -0.11254,0.123526 -2.74963,7.399798 -5.86019,16.169492 -3.11056,8.76969 -5.73418,16.14969 -5.83021,16.4 -0.14905,0.38838 1.54781,0.4551 11.57383,0.4551 9.26339,0 11.71756,-0.0846 11.60233,-0.4 z m 88.06761,0.32 c -0.11836,-0.94081 -11.4774,-33.191533 -11.61312,-32.971975 -0.19136,0.309655 -11.73683,32.708675 -11.73683,32.936065 0,0.0638 5.256,0.11591 11.68,0.11591 6.424,0 11.67546,-0.036 11.66995,-0.08 z M 330.87999,110.07551 V 63.991013 l 10.1519,0.08449 10.15187,0.0845 19.20813,30.873393 19.20809,30.873394 0.0816,-30.953394 0.0816,-30.953393 h 9.43843 9.4384 V 110.08 156.16001 H 398.44901 388.258 L 369.44446,125.84 c -10.34742,-16.676 -19.00947,-30.530854 -19.24899,-30.78857 -0.36755,-0.395465 -0.43549,4.334967 -0.43549,30.32 v 30.78858 h -9.43999 -9.44 z"
         id="path1379" />
      <path
         style="fill:#6fa4cf;stroke-width:0.32"
         d="m 162.39999,263.9919 c -12.11504,-1.32063 -21.76565,-3.64619 -32.05699,-7.72495 -35.689353,-14.14473 -62.352901,-45.47716 -70.484814,-82.82694 -1.89223,-8.69099 -2.577545,-15.31172 -2.57792,-24.90494 -3.2e-4,-10.39756 0.929642,-18.44793 3.231923,-27.97507 l 0.985956,-4.08 1.010924,0.008 c 1.384807,0.0104 4.146119,1.19513 6.450928,2.76774 3.206829,2.18806 6.027161,5.00704 13.871363,13.86466 13.809695,15.59384 23.24741,24.29532 32.90385,30.33707 14.04589,8.78808 28.57129,13.46725 45.86478,14.77476 2.376,0.17964 4.82214,0.32697 5.43586,0.3274 l 1.11585,6.4e-4 -1.75585,1.26875 c -5.30636,3.8343 -17.9653,8.6287 -28.22733,10.69071 l -3.5824,0.71983 1.68727,1.33371 c 7.19984,5.69115 17.81439,5.97453 30.73046,0.82043 2.00412,-0.79974 7.62012,-3.44038 12.48,-5.8681 12.19935,-6.0941 16.50232,-7.7467 25.31614,-9.72288 4.20148,-0.94204 11.91361,-1.97375 17.20833,-2.3021 3.47977,-0.2158 3.6012,-0.24794 3.40828,-0.90206 -0.33069,-1.12132 -1.87834,-2.87348 -3.19879,-3.62149 -2.11849,-1.20008 -5.12742,-1.519 -10.05782,-1.06603 -8.47168,0.77831 -14.40458,0.8091 -14.39797,0.0747 9.6e-4,-0.12403 1.62112,-0.85738 3.6,-1.62967 15.30528,-5.97313 28.21105,-15.07689 43.43797,-30.64123 10.11323,-10.33734 19.58925,-22.01823 29.10428,-35.87624 l 3.34428,-4.870719 1.0812,2.316176 c 7.915,16.955673 11.7564,36.778323 10.6683,55.051143 -1.00353,16.8524 -4.52455,30.51354 -11.56351,44.86504 -6.22613,12.69422 -13.12025,22.25371 -23.08355,32.00796 -5.95266,5.82776 -10.30797,9.36444 -17.07388,13.86465 -15.00786,9.98219 -30.82349,15.91067 -49.27712,18.4715 -4.41555,0.61276 -21.36659,0.90925 -25.6,0.44778 z m 242.87999,-29.10863 c -8.68304,-0.79592 -13.80032,-4.56422 -15.70534,-11.56517 -0.25712,-0.94495 -0.55875,-3.41321 -0.67027,-5.48502 l -0.20279,-3.76693 6.36919,0.0869 6.36921,0.0869 0.20749,3.04 c 0.11411,1.672 0.3697,3.4548 0.56797,3.96179 1.09859,2.80924 3.58448,4.34981 7.02742,4.35508 3.71271,0.006 6.06909,-1.25352 7.36839,-3.93752 0.76672,-1.58384 0.90966,-4.941 0.29734,-6.98465 -0.85866,-2.86603 -3.85078,-4.95372 -10.4983,-7.32504 -12.20784,-4.35477 -16.11031,-8.54122 -16.56115,-17.76623 -0.50093,-10.25017 3.82345,-16.79134 12.58156,-19.03129 3.18106,-0.81358 9.94871,-0.87496 13.34611,-0.12106 8.22647,1.8255 12.68266,7.289 12.69844,15.56892 l 0.005,2.48 h -6.08 -6.08 v -1.54192 c 0,-1.92353 -0.74695,-4.50091 -1.62957,-5.623 -1.23226,-1.56657 -2.96477,-2.19221 -5.72311,-2.06673 -2.01257,0.0916 -2.68761,0.26617 -3.75196,0.97053 -1.85732,1.22914 -2.72724,3.18249 -2.72362,6.1156 0.006,5.04219 1.38714,6.43379 10.07594,10.15365 7.72422,3.30693 9.82067,4.35991 12.25936,6.15744 2.08921,1.53993 4.35948,4.56918 4.93004,6.5782 1.5072,5.30708 1.05575,11.62709 -1.1648,16.30587 -2.28579,4.81633 -6.95779,7.95233 -13.39228,8.98935 -2.93111,0.4724 -7.07882,0.6247 -9.92,0.36427 z m 244.46662,-0.0297 c -10.77565,-0.96444 -16.12176,-6.81151 -16.14106,-17.65353 l -0.006,-3.12 h 6.19248 6.19245 l 0.19114,2.70807 c 0.25948,3.67736 0.77075,5.18475 2.29516,6.76724 1.49588,1.55281 2.92468,2.04345 5.92877,2.03587 3.16509,-0.008 5.63123,-1.41635 6.95181,-3.97007 0.75584,-1.46161 0.89184,-4.57443 0.29027,-6.64375 -0.94608,-3.25435 -3.5463,-5.12572 -10.60208,-7.63027 -8.4704,-3.00667 -12.69859,-5.96078 -14.82425,-10.35724 -1.32128,-2.73273 -1.74682,-4.89073 -1.73597,-8.80356 0.0166,-6.00511 1.43427,-10.01342 4.71574,-13.33335 3.70992,-3.75344 8.12291,-5.09885 15.95171,-4.86328 4.19175,0.12613 5.19399,0.26293 7.35767,1.00428 5.91107,2.02531 9.06985,5.49022 10.30057,11.29892 0.25488,1.20292 0.46592,3.08714 0.46896,4.18714 l 0.005,2 h -6.03372 -6.03373 l -0.19939,-2.16 c -0.43591,-4.72157 -2.73789,-7.12 -6.83376,-7.12 -3.62656,0 -5.84474,1.47032 -6.71037,4.448 -1.08528,3.73324 0.0288,7.57167 2.74374,9.45312 0.71127,0.49292 4.41504,2.24603 8.23059,3.89582 7.73444,3.34424 10.82864,5.11286 12.99293,7.42667 2.77978,2.97181 3.76371,5.96053 3.76371,11.43243 0,7.56639 -2.54048,12.8669 -7.65123,15.96376 -4.20189,2.54614 -10.76109,3.66392 -17.80214,3.03373 z m -318.86661,-32.4563 v -31.52273 l 17.51999,0.0827 17.52,0.0827 0.0879,5.2 0.0879,5.2 H 354.7219 343.34799 l 0.086,7.28 0.086,7.28 10.47999,0.0844 10.48,0.0844 v 5.11126 5.11125 l -10.48,0.0844 -10.47999,0.0844 -0.0834,13.68 -0.0834,13.68 h -6.23655 -6.23657 z m 39.99999,0.003 v -31.52 h 6.4 6.4 v 31.52 31.52001 h -6.4 -6.4 z m 64.64,0 v -31.52 h 6.24 6.24 v 12 12 h 7.3561 7.35612 l 0.0839,-11.92 0.0839,-11.92 6.32,-0.0868 6.32,-0.0868 v 31.53353 31.53353 l -6.32,-0.0868 -6.32,-0.0868 -0.0834,-13.84001 -0.0834,-13.84 h -7.35661 -7.35661 v 13.92 13.92001 h -6.24 -6.24 z m 48.14746,31.12001 c -0.0839,-0.22 -0.11533,-14.36801 -0.07,-31.44001 l 0.0825,-31.04 17.52,-0.0827 17.52,-0.0827 v 5.28273 5.28273 h -11.2 -11.2 v 7.36 7.36 h 10.56 10.56 v 5.11563 5.11563 l -10.48,0.0844 -10.48,0.0844 -0.0853,8.4 -0.0853,8.4 h 11.68532 11.68531 v 5.28 5.28001 h -17.93005 c -14.04938,0 -17.96304,-0.0866 -18.08249,-0.4 z m 41.59999,0 c -0.0839,-0.22 -0.11532,-14.36801 -0.0699,-31.44001 l 0.0825,-31.04 11.52,-0.095 c 15.66675,-0.12924 18.74092,0.27349 22.69587,2.97324 1.9968,1.36309 3.83462,3.73812 4.7776,6.17412 0.9375,2.42195 1.34019,6.9888 0.9047,10.25989 -0.84435,6.34171 -3.16221,9.65965 -8.16992,11.69494 l -1.76502,0.71735 2.2984,0.68237 c 5.66905,1.68309 6.93414,4.83712 7.53782,18.79312 0.31645,7.31546 0.57383,8.72472 1.8441,10.09752 1.42646,1.54161 1.26982,1.58249 -6.06429,1.58249 h -6.82074 l -0.58035,-1.2 c -0.6751,-1.39597 -1.09062,-6.04699 -1.12211,-12.56001 -0.0371,-7.67195 -0.94541,-10.5336 -3.8264,-12.05515 -1.28682,-0.67962 -1.81226,-0.74485 -6,-0.74485 h -4.58966 v 13.28 13.28001 h -6.25005 c -4.70538,0 -6.28771,-0.0989 -6.4025,-0.4 z m 21.952,-35.63543 c 3.76147,-1.11704 5.63258,-4.44987 5.35325,-9.53534 -0.15642,-2.84808 -0.82522,-4.53321 -2.38794,-6.0168 -1.5382,-1.46048 -3.22841,-1.85258 -7.98499,-1.85258 h -4.27977 v 8.96 8.96 h 3.78192 c 2.5455,0 4.34934,-0.16851 5.51753,-0.51542 z m 26.048,35.63543 c -0.0839,-0.22 -0.11533,-14.36801 -0.0699,-31.44001 l 0.0825,-31.04 6.31999,-0.0868 6.32,-0.0868 v 31.52677 31.52677 h -6.25004 c -4.70538,0 -6.28771,-0.0989 -6.4025,-0.4 z m 20.97254,-31.12289 v -31.52273 l 17.52,0.0827 17.52,0.0827 0.0879,5.2 0.0879,5.2 h -11.37392 -11.37392 l 0.086,7.28 0.086,7.28 10.48,0.0844 10.48,0.0844 v 5.11126 5.11125 l -10.48,0.0844 -10.48,0.0844 -0.0853,8.4 -0.0853,8.4 h 11.68531 11.68531 v 5.28 5.28 h -17.92 -17.92 z m -423.35998,-32.6354 c -8.66565,-1.94285 -16.82564,-6.71285 -26.97249,-15.76704 -8.96995,-8.00402 -13.5073,-13.49038 -32.38235,-39.15527 C 98.398245,96.990685 88.882534,87.036598 80.563795,82.451971 c -1.009914,-0.556583 -1.837914,-1.136675 -1.84,-1.289095 -0.0053,-0.38744 1.968006,-3.043302 4.785881,-6.441257 13.710166,-16.532507 31.426574,-28.92739 51.212124,-35.829403 7.72829,-2.695949 16.59236,-4.749456 25.11819,-5.81905 3.24843,-0.407523 6.85517,-0.565277 13.12,-0.573847 9.05401,-0.01238 12.3956,0.251956 20.16,1.594775 23.56773,4.075939 45.02827,15.240135 62.08702,32.298887 3.58334,3.583345 9.71102,10.538535 10.00993,11.361726 0.0533,0.146848 -0.37868,0.362185 -0.96,0.478528 -3.94619,0.78975 -9.80045,3.521629 -13.53695,6.316995 -4.52415,3.384624 -9.27153,8.668292 -13.59124,15.126567 -3.41841,5.110773 -6.07698,9.772703 -11.08654,19.440833 -10.07018,19.43481 -11.94014,22.64579 -17.65866,30.32238 -4.21669,5.66052 -9.54811,11.29977 -13.4753,14.25333 -3.16309,2.3789 -7.54247,4.62645 -10.90826,5.59825 -3.14819,0.90896 -10.05876,1.15674 -13.12,0.4704 z m -38.08,-74.081987 v -12.16 h 3.18186 c 2.92528,0 3.22202,0.05735 3.68,0.711203 0.42832,0.61152 0.49814,2.315853 0.49814,12.16 V 107.84 h 3.0503 3.0503 l -0.0903,-13.06383 -0.0903,-13.063838 -0.85888,-1.297398 c -0.53936,-0.814727 -1.43223,-1.57968 -2.4,-2.056163 -1.46437,-0.720983 -1.91162,-0.764036 -8.98112,-0.864548 l -7.44,-0.105782 V 92.614224 107.84 h 3.2 3.2 z m 34.47897,11.132597 c 0.72009,-0.47708 1.7169,-1.40162 2.21514,-2.05455 l 0.90589,-1.18713 0.0995,-10.425458 c 0.0644,-6.748006 -0.0211,-10.836349 -0.24232,-11.590317 -0.44003,-1.499613 -2.47637,-3.337165 -4.21784,-3.806096 -0.82727,-0.222758 -3.17641,-0.323162 -6.01814,-0.257216 -4.27383,0.09918 -4.7785,0.174653 -6.07284,0.90817 -1.69563,0.960934 -2.53133,2.020521 -2.92196,3.704765 -0.16011,0.69038 -0.29455,5.543859 -0.29875,10.785514 -0.006,7.890588 0.0776,9.734218 0.48764,10.715628 0.6879,1.64639 1.63782,2.59098 3.50472,3.48503 1.50179,0.71921 1.89616,0.7608 6.42486,0.67765 4.63967,-0.0852 4.8751,-0.12188 6.13411,-0.95599 z m -9.44776,-5.23074 c -0.70439,-0.49337 -0.71121,-0.57912 -0.71121,-8.941857 0,-9.909248 -0.17923,-9.44 3.60575,-9.44 1.89145,0 2.28835,0.105008 2.9688,0.785456 l 0.78545,0.785453 v 7.811392 c 0,7.418026 -0.0334,7.853846 -0.66322,8.654546 -0.60686,0.77149 -0.8592,0.84315 -2.9688,0.84315 -1.56882,0 -2.53284,-0.15918 -3.01677,-0.49814 z m 23.60879,0.49814 v -5.759997 h 3.68 3.68 v 5.759997 5.76 h 3.04 3.04 V 94.607325 81.374649 l -0.72761,-1.079709 c -1.66995,-2.478038 -3.56591,-2.999763 -10.20637,-2.80856 -3.62204,0.104295 -4.0691,0.185975 -5.44511,0.994858 -0.82449,0.484678 -1.83249,1.348678 -2.24,1.92 l -0.74091,1.038765 -0.0902,13.2 -0.0902,13.199997 h 3.05019 3.05019 z m 0,-14.399997 c 0,-3.838135 0.29327,-4.16 3.79041,-4.16 3.37443,0 3.56959,0.224441 3.56959,4.105197 v 2.934803 h -3.68 -3.68 z m 24.32,14.389847 v -5.770157 l 3.76,0.09015 3.76,0.09016 0.0874,5.679997 0.0874,5.68 h 3.04918 3.04919 l -0.0966,-13.039997 c -0.10654,-14.38592 -0.0665,-14.09537 -2.18974,-15.881978 -1.42865,-1.202131 -2.1191,-1.318022 -7.85245,-1.318022 h -5.14563 l -1.54953,0.96 c -1.01728,0.630246 -1.80538,1.444438 -2.29437,2.370329 -0.74374,1.408224 -0.74485,1.429386 -0.74485,14.160001 V 107.84 h 3.04 3.04 z m 0,-14.176538 c 0,-2.233821 0.11186,-2.829204 0.66323,-3.530154 0.61485,-0.781667 0.8446,-0.843155 3.1504,-0.843155 3.38443,0 3.68954,0.33864 3.69923,4.105709 l 0.007,2.774291 -3.76,0.09016 -3.76,0.09015 z m 248.72047,70.187138 c -5.51328,-0.5809 -11.85754,-2.34871 -16.08198,-4.4812 -5.50973,-2.78131 -11.67162,-8.03836 -15.00224,-12.79925 -4.66586,-6.66952 -7.67831,-14.79535 -8.68672,-23.43189 -0.54963,-4.7071 -0.23043,-14.08631 0.62157,-18.263393 3.53942,-17.352945 13.43315,-29.505076 28.2886,-34.745873 5.51879,-1.946951 8.58957,-2.40722 16.06029,-2.40722 7.28563,0 10.55776,0.468199 15.84,2.26649 11.59862,3.94865 20.95283,13.068244 25.60947,24.967166 2.9911,7.643059 3.98141,13.73217 3.73642,22.97472 -0.18452,6.96074 -0.67578,10.03958 -2.52205,15.80608 -4.47245,13.96891 -14.97549,24.50535 -28.2543,28.34418 -5.71613,1.65251 -13.79994,2.38226 -19.60906,1.77019 z m 11.27952,-17.44024 c 7.47443,-1.56389 13.79469,-7.65893 16.67024,-16.07621 2.79043,-8.16806 2.88185,-19.55025 0.2256,-28.083997 -2.14438,-6.889331 -6.56941,-12.50632 -11.93584,-15.15104 -3.46816,-1.709204 -6.22419,-2.277847 -11.04,-2.277847 -4.82646,0 -7.60598,0.572983 -10.95488,2.258314 -7.20205,3.624426 -11.74278,10.835565 -13.37085,21.2343 -0.74236,4.74177 -0.51699,14.07017 0.43866,18.15551 1.4151,6.0495 3.74096,10.42505 7.55664,14.21596 2.96339,2.94416 6.476,4.9309 10.09043,5.7072 2.78816,0.59882 9.49677,0.60853 12.32,0.0178 z M 330.87999,110.07551 V 63.991013 l 10.12579,0.08449 10.12579,0.0845 19.01433,30.560001 c 10.45789,16.807996 19.14928,30.696796 19.31421,30.863996 0.18653,0.18909 0.29987,-11.39273 0.29987,-30.639996 V 64.000002 h 9.44 9.44 V 110.08 156.16001 h -10.16691 -10.16688 l -18.9848,-30.56071 c -10.44166,-16.80839 -19.11456,-30.640894 -19.27312,-30.73889 -0.1703,-0.105252 -0.28829,12.40307 -0.28829,30.56071 v 30.73889 h -9.43999 -9.44 z m 167.14479,45.84896 c 0.0814,-0.13446 7.49741,-19.68447 16.47993,-43.44447 8.98253,-23.759997 16.78624,-44.387998 17.3416,-45.839998 l 1.0097,-2.64 10.45197,0.0039 10.452,0.0039 16.61488,44.474508 c 9.1382,24.46098 16.67324,44.41619 16.74451,44.3449 0.0713,-0.0713 7.66275,-20.05058 16.86995,-44.39844 l 16.74032,-44.268833 h 10.50899 10.50899 l 16.39674,43.840003 c 9.01824,24.112 16.75868,44.81394 17.20099,46.00431 l 0.80425,2.16431 -10.59513,-0.0843 -10.59511,-0.0843 -3.43948,-10.08 -3.43949,-10.08 h -17.2392 -17.2392 l -3.54717,10.08 -3.54717,10.08 h -19.77376 -19.77375 l -3.4049,-10.08 -3.4049,-10.08 H 542.90132 525.6523 l -3.54707,10.08 -3.54704,10.08 -10.34074,0.0845 c -5.68742,0.0465 -10.27411,-0.0255 -10.19267,-0.16 z m 56.5352,-35.80721 c 0,-0.31645 -11.20618,-32.870102 -11.37229,-33.03622 -0.0812,-0.08124 -0.19783,-0.0877 -0.25904,-0.01437 -0.13175,0.157805 -11.72867,32.89258 -11.72867,33.10669 0,0.0807 5.256,0.14665 11.68,0.14665 6.424,0 11.68,-0.0912 11.68,-0.20275 z m 87.9293,-0.19726 c -0.0765,-0.22 -2.6392,-7.708 -5.69481,-16.64 -3.05562,-8.931997 -5.64163,-16.239997 -5.74675,-16.239997 -0.17488,0 -11.84775,32.578947 -11.84775,33.067077 0,0.11711 5.27139,0.21292 11.71424,0.21292 9.23226,0 11.68474,-0.0847 11.57507,-0.4 z"
         id="path1377" />
      <path
         style="fill:#0084c9;stroke-width:0.32"
         d="m 165.11999,264.11189 c -11.92593,-1.12542 -18.87882,-2.47433 -27.82567,-5.39837 C 101.71766,247.08623 74.283334,219.5415 62.753232,183.87243 58.687249,171.29407 57.013982,159.22112 57.382286,145.12 c 0.246044,-9.42025 1.003811,-15.2402 3.181212,-24.43304 l 1.012106,-4.27304 1.272694,0.17071 c 2.06327,0.27674 6.224755,2.57007 9.037187,4.98024 1.433021,1.22806 6.027315,6.09435 10.209545,10.81398 8.645856,9.75683 18.24491,19.4941 23.18497,23.51882 17.35686,14.14083 36.06208,21.35186 58.4973,22.55124 l 3.99348,0.21349 -1.0854,0.8948 c -4.45167,3.66997 -19.97412,9.48332 -29.87578,11.18884 l -2.23039,0.38418 1.41826,1.2586 c 1.82401,1.61867 5.92812,3.57326 8.86569,4.22231 5.0872,1.124 12.05299,0.37804 19.07274,-2.04247 4.80669,-1.65742 7.87493,-3.02627 14.78409,-6.5957 16.02958,-8.28126 25.38485,-11.01651 42.07645,-12.30208 2.55004,-0.1964 4.69342,-0.41408 4.76307,-0.48373 0.0696,-0.0696 -0.0458,-0.54281 -0.25647,-1.05149 -0.57148,-1.37967 -2.55426,-3.15924 -4.18305,-3.75433 -2.14699,-0.78443 -6.58142,-0.90719 -11.96137,-0.33114 -4.88864,0.52344 -9.34652,0.61639 -10.7554,0.22425 -1.00261,-0.27906 -0.99716,-0.28216 4.00011,-2.27539 17.74256,-7.0769 34.50897,-20.22977 52.4505,-41.14626 6.60524,-7.70049 16.25477,-20.4789 20.82616,-27.579113 0.704,-1.093443 1.36796,-1.989335 1.47547,-1.990874 0.24898,-0.0036 2.23704,4.334527 3.88493,8.477197 3.33657,8.38786 5.44212,16.4275 6.99787,26.72 0.83231,5.50642 1.18544,20.06253 0.63443,26.15154 -3.28874,36.34261 -23.11024,68.70937 -53.9527,88.09997 -5.07704,3.19193 -15.54245,8.37882 -20.96,10.38824 -9.77575,3.62593 -20.3699,5.95883 -31.2,6.87043 -3.5134,0.29574 -14.76389,0.37425 -17.44,0.12171 z m 237.11999,-29.69206 c -5.66022,-1.19455 -8.94115,-3.41116 -11.16016,-7.53982 -1.28105,-2.38347 -1.89017,-4.94076 -2.15331,-9.04 l -0.2208,-3.44 h 6.25984 6.25984 l 0.21133,2.48 c 0.39814,4.67238 1.60934,6.98325 4.2791,8.16421 1.98611,0.87854 5.48656,0.89286 7.40416,0.0303 5.024,-2.25991 5.94064,-9.76999 1.66275,-13.62328 -1.70163,-1.53275 -3.49475,-2.42408 -8.22275,-4.0874 -5.5512,-1.95292 -9.78406,-4.21018 -12.04659,-6.42409 -4.05465,-3.96747 -5.57545,-10.12313 -4.28685,-17.35158 1.26202,-7.07936 5.94512,-11.74241 13.26477,-13.20803 3.28784,-0.65832 10.34797,-0.49345 13.25395,0.30952 7.53155,2.08107 11.71395,7.59713 11.72999,15.47037 l 0.005,2.32 h -5.88109 -5.88112 l -0.35882,-2.41262 c -0.61603,-4.14183 -2.1591,-6.19413 -5.1375,-6.83288 -2.51869,-0.54017 -5.7889,0.27593 -7.10365,1.77273 -1.56202,1.77834 -2.16352,4.71509 -1.56064,7.61928 0.29699,1.43053 0.68624,2.18206 1.69962,3.28145 1.55392,1.68578 1.84249,1.84054 10.0448,5.38629 3.48611,1.507 7.3464,3.37081 8.5784,4.1418 3.92742,2.45779 6.34608,5.53774 7.17561,9.13747 0.49552,2.15019 0.41079,8.78471 -0.14214,11.13008 -1.47271,6.24698 -6.06967,10.73302 -12.71517,12.40841 -2.79027,0.70345 -12.16915,0.89645 -14.9583,0.30781 z m 245.91999,0.25075 c -4.20502,-0.66577 -7.82675,-2.30685 -10.0935,-4.57359 -2.82378,-2.82377 -4.09453,-6.29156 -4.37434,-11.93698 l -0.18633,-3.76 h 6.24198 6.24198 l 0.18599,2.64 c 0.24544,3.48366 0.67702,4.83095 2.02585,6.32395 1.33357,1.47609 3.30551,2.29901 5.62384,2.34692 3.82205,0.079 6.17412,-1.22417 7.52154,-4.1673 0.70624,-1.54264 0.79264,-2.09351 0.66752,-4.25519 -0.29024,-5.01368 -2.62659,-7.12587 -11.13453,-10.06627 -8.00464,-2.76645 -12.42678,-5.86707 -14.55405,-10.20465 -1.38112,-2.81619 -1.76595,-4.77961 -1.76595,-9.00995 0,-8.93635 3.90051,-14.75045 11.52,-17.17173 2.99786,-0.95264 10.08743,-1.19337 13.776,-0.46776 8.63661,1.69896 13.35334,7.4774 13.41283,16.43198 l 0.0112,1.68 h -6.08 -6.08 V 187.141 c 0,-0.73645 -0.24236,-2.20283 -0.53862,-3.25862 -1.03808,-3.69977 -4.03731,-5.45311 -8.03203,-4.69553 -2.11485,0.40108 -2.61975,0.67329 -3.852,2.07673 -1.25386,1.42806 -1.75344,3.27619 -1.60288,5.92941 0.24569,4.32903 1.79779,5.77497 9.93216,9.25279 10.64947,4.55314 13.98438,6.68465 16.1783,10.34043 1.28374,2.13911 1.98218,5.27949 1.9895,8.94565 0.0195,9.69844 -4.20256,15.7029 -12.7967,18.19931 -1.95507,0.5679 -3.40208,0.71448 -7.83773,0.79395 -2.992,0.0536 -5.872,0.029 -6.4,-0.0545 z M 330.87999,202.40001 v -31.2 h 17.43999 17.44 v 5.12 5.12 h -11.2 -11.19999 v 7.36 7.36 h 10.55999 10.56 v 5.12 5.12 h -10.56 -10.55999 v 13.6 13.6 h -6.24 -6.24 z m 39.99999,0 v -31.2 h 6.4 6.4 v 31.2 31.2 h -6.4 -6.4 z m 64.64,0 v -31.2 h 6.2361 6.23612 l 0.0839,11.92 0.0839,11.92 h 7.36 7.36 l 0.0839,-11.92 0.0839,-11.92 h 6.23612 6.2361 v 31.2 31.2 h -6.23661 -6.23661 l -0.0834,-13.84 -0.0834,-13.84 h -7.36 -7.36 l -0.0834,13.84 -0.0834,13.84 h -6.23661 -6.23661 z m 48.32,0 v -31.2 h 17.44 17.44 v 5.12 5.12 h -11.2 -11.2 v 7.36 7.36 h 10.56 10.56 v 5.12 5.12 h -10.56 -10.56 v 8.48 8.48 h 11.68 11.68 v 5.12 5.12 h -17.92 -17.92 z m 41.6,0 v -31.2 l 13.36,0.005 c 14.6166,0.005 15.70755,0.1119 19.20848,1.87917 1.93811,0.97835 4.43196,3.3779 5.34432,5.14218 1.61958,3.13191 2.26614,7.44958 1.77059,11.82396 -0.73677,6.50392 -3.29495,10.18499 -8.35015,12.01543 l -2.04003,0.73868 1.75338,0.36441 c 2.55689,0.53139 4.92435,1.99487 5.88851,3.64008 1.76253,3.00752 2.07501,4.99356 2.70643,17.19986 0.3032,5.86115 0.65674,7.40589 2.02951,8.86714 l 0.68051,0.72436 h -6.9521 -6.95213 l -0.50649,-1.2 c -0.52954,-1.25454 -1.01786,-8.01975 -1.04611,-14.49276 -0.0253,-5.80208 -1.2226,-8.69561 -4.14,-10.00535 -1.24647,-0.55959 -2.14333,-0.66514 -5.79472,-0.68197 l -4.32,-0.0199 -0.0836,13.2 -0.0835,13.2 h -6.23645 -6.23644 v -31.2 z m 22.72,-4.76272 c 3.0414,-1.60311 4.22422,-3.68274 4.41596,-7.76416 0.2234,-4.75617 -1.06947,-7.35094 -4.41596,-8.86276 -1.20983,-0.54656 -2.1305,-0.65372 -5.76,-0.67045 l -4.32,-0.0199 -0.085,9.07011 -0.0851,9.07011 4.56505,-0.1163 c 3.65962,-0.0932 4.78717,-0.23338 5.68503,-0.70664 z m 25.28,4.76272 v -31.2 h 6.23999 6.24 v 31.2 31.2 h -6.24 -6.23999 z m 20.79999,0 v -31.2 h 17.44 17.44 v 5.12 5.12 h -11.2 -11.2 v 7.36 7.36 h 10.56 10.56 v 5.12 5.12 h -10.56 -10.56 v 8.48 8.48 h 11.68 11.68 v 5.12 5.12 h -17.92 -17.92 z M 171.35999,169.77069 C 158.77443,167.45833 143.24511,155.75456 128.67385,137.6 126.62556,135.048 122.792,130.02852 120.15484,126.4456 103.68149,104.06446 99.669861,99.013802 93.290252,92.622976 89.234057,88.559648 85.086092,85.181574 81.109612,82.703142 79.795325,81.88398 78.719997,81.148163 78.719997,81.06799 c 0,-0.08017 0.897513,-1.325271 1.994473,-2.76688 8.605907,-11.309751 20.45001,-21.969268 32.40553,-29.1645 26.16497,-15.746961 57.2078,-20.60073 86.87999,-13.584314 24.63477,5.825245 47.41898,20.149642 63.26273,39.773159 l 2.06753,2.560772 -2.71866,0.721699 c -9.58485,2.544406 -17.85062,9.442743 -25.93467,21.644174 -3.41076,5.14794 -6.545,10.73649 -12.57886,22.4289 -9.19463,17.81737 -11.80025,22.04429 -19.15814,31.07901 -10.40472,12.77589 -21.74843,18.18449 -33.57993,16.01068 z m -38.56,-74.090687 v -12.16 h 3.16082 c 2.5485,0 3.2459,0.102422 3.6,0.528707 0.35044,0.421878 0.45836,2.878944 0.53408,12.16 l 0.0949,11.63129 h 3.03528 3.03529 l -0.0902,-13.199997 -0.0902,-13.2 -0.74091,-1.038765 c -0.4075,-0.571322 -1.4155,-1.435322 -2.24,-1.92 l -1.49909,-0.881235 -7.6,-0.100935 -7.6,-0.100934 V 92.619069 107.84 h 3.2 3.2 z m 33.69589,11.644177 c 1.30435,-0.65698 3.02745,-2.27362 3.61142,-3.38829 0.36394,-0.69469 0.45269,-2.95665 0.45269,-11.537346 V 81.725302 l -0.91684,-1.445709 c -1.52753,-2.408669 -2.4378,-2.67959 -9.00316,-2.67959 -6.31412,0 -6.86446,0.157526 -8.76607,2.509129 l -0.99393,1.229127 -0.0988,10.290874 c -0.0543,5.659977 -0.0162,10.735437 0.0847,11.278797 0.24854,1.33796 2.10116,3.43031 3.76765,4.25522 1.2049,0.59641 1.92618,0.67638 6.10229,0.6766 3.71937,2e-4 4.95571,-0.11046 5.76,-0.51557 z M 157.75999,101.44 c -0.60653,-0.60653 -0.64,-1.06666 -0.64,-8.799997 0,-9.768343 -0.12293,-9.44 3.53455,-9.44 1.96705,0 2.3547,0.10016 3.04,0.785456 l 0.78545,0.785453 v 7.869091 7.869087 l -0.78545,0.78546 c -0.6853,0.68529 -1.07295,0.78545 -3.04,0.78545 -1.82788,0 -2.37566,-0.12111 -2.89455,-0.64 z m 23.68,0.64 v -5.759997 h 3.68 3.68 v 5.759997 5.76 h 3.21657 3.21657 l -0.0966,-13.039997 c -0.10458,-14.121936 -0.0848,-13.96009 -1.91053,-15.664727 -1.50562,-1.405789 -2.82525,-1.695273 -7.72801,-1.695273 -4.88733,0 -6.11908,0.238844 -7.84527,1.521257 -2.35686,1.750951 -2.29023,1.290378 -2.29156,15.838743 l -0.001,13.039997 h 3.04 3.04 z m 0,-14.196842 c 0,-2.223549 0.11231,-2.819626 0.66323,-3.52 0.61014,-0.775664 0.85347,-0.843155 3.04,-0.843155 3.34619,0 3.65677,0.353325 3.65677,4.16 v 2.88 h -3.68 -3.68 z m 24.39262,14.276842 0.0874,-5.679997 3.6,-0.09048 3.6,-0.09048 v 5.770477 5.77048 h 3.21335 3.21336 l -0.0934,-13.199997 c -0.0928,-13.119226 -0.0978,-13.207207 -0.8255,-14.377431 -0.46584,-0.749149 -1.33258,-1.47664 -2.38283,-2 -1.55378,-0.774285 -1.93446,-0.822569 -6.48502,-0.822569 -4.56638,0 -4.927,0.04618 -6.50612,0.833081 -0.91948,0.458195 -2.06375,1.346816 -2.54283,1.974714 l -0.87105,1.141629 -0.0902,13.22529 -0.0902,13.225283 h 3.04281 3.0428 z m 0.0425,-12.081699 c -0.10167,-0.264938 -0.13099,-1.548202 -0.0652,-2.851696 0.16744,-3.315722 0.56712,-3.706602 3.7901,-3.706602 3.31833,0 3.52,0.235203 3.52,4.105197 v 2.934803 h -3.53004 c -2.84817,0 -3.56575,-0.09305 -3.71489,-0.481702 z m 247.08492,67.804189 c -5.71434,-0.82736 -10.31171,-2.28013 -15.2,-4.80321 -9.13913,-4.71716 -15.66643,-12.1729 -19.82752,-22.64787 -2.0472,-5.15351 -3.17737,-11.01629 -3.42969,-17.79141 -0.92442,-24.82225 12.16355,-44.336513 33.14294,-49.416411 4.52025,-1.094521 9.98291,-1.593808 14.68656,-1.342352 11.972,0.64002 21.16253,4.557408 28.89808,12.317601 4.56604,4.58056 7.38838,8.91793 10.03209,15.417351 3.78675,9.309558 4.74307,22.541011 2.41008,33.345711 -3.46713,16.05734 -14.19888,28.40883 -28.64969,32.97384 -5.12429,1.61876 -6.97184,1.87646 -14.22285,1.98385 -3.784,0.056 -7.312,0.0393 -7.84,-0.0371 z m 10.08838,-16.772 c 7.83504,-0.95209 13.53613,-4.83636 17.38711,-11.84617 2.91629,-5.30849 4.17792,-11.01582 4.17001,-18.86432 -0.0186,-18.499312 -7.91401,-29.777287 -21.96009,-31.368449 -11.2433,-1.273654 -20.51351,4.08361 -24.89888,14.389044 -2.35603,5.536647 -3.56906,14.384795 -2.89488,21.116665 1.71376,17.11297 10.04493,26.24082 24.51673,26.86123 0.53264,0.0228 2.18864,-0.10676 3.68,-0.288 z M 330.87999,110.08 V 64.000002 h 10.0488 10.04876 l 19.11095,30.725672 c 10.511,16.899116 19.23705,30.803616 19.39123,30.898886 0.15961,0.0986 0.28025,-13.12797 0.28025,-30.72567 V 64.000002 h 9.44 9.44 V 110.08 156.16001 l -10.16,-0.008 -10.16,-0.008 -19.2,-30.94084 -19.2,-30.940849 -0.0816,30.948819 -0.0816,30.94882 h -9.43843 -9.4384 v -46.08 z m 167.35999,45.82043 c 0,-0.14771 7.776,-20.82825 17.28,-45.95675 9.504,-25.128503 17.28,-45.747639 17.28,-45.820305 0,-0.07267 4.70876,-0.09415 10.4639,-0.04774 l 10.4639,0.08437 16.35328,43.728785 c 8.99427,24.05083 16.50989,44.06683 16.70131,44.48 l 0.34807,0.75122 0.31411,-0.8 c 0.17274,-0.44 7.66595,-20.24001 16.65152,-44.00001 8.9856,-23.759994 16.43606,-43.45394 16.55658,-43.764321 0.20403,-0.525485 0.93539,-0.558522 10.62515,-0.48 l 10.40601,0.08433 17.17744,45.920001 17.17744,45.92001 -10.38825,0.0844 c -5.71354,0.0464 -10.46301,0.01 -10.55437,-0.0817 -0.0914,-0.0914 -1.68938,-4.66536 -3.55111,-10.16444 l -3.38499,-9.99832 -17.28045,-0.0827 -17.28041,-0.0827 -3.5705,10.16272 -3.57049,10.16272 -19.6705,0.0824 -19.67049,0.0824 -3.2448,-9.49153 c -1.78464,-5.22034 -3.3296,-9.82943 -3.43328,-10.24243 l -0.18845,-0.7509 -17.32531,0.005 -17.32531,0.005 -3.54813,10.15547 -3.5481,10.15548 -10.1319,0.0845 c -5.57251,0.0465 -10.13187,-0.0363 -10.13187,-0.18404 z M 554.56762,120.24 c 0.0154,-0.79568 -11.35683,-33.498483 -11.57008,-33.272243 -0.28694,0.304444 -11.79756,32.779343 -11.79756,33.284503 0,0.57389 23.35667,0.56165 23.36764,-0.0123 z m 87.99235,0.0173 c 0,-0.81483 -11.37251,-33.486127 -11.58365,-33.277858 -0.31168,0.30743 -11.77635,32.625238 -11.77635,33.196358 0,0.39719 1.6872,0.46425 11.68,0.46425 8.84999,0 11.68,-0.0927 11.68,-0.38275 z"
         id="path1375" />
      <path
         style="fill:#32589e;stroke-width:0.32"
         d="M 171.35999,169.77069 C 158.77443,167.45833 143.24511,155.75456 128.67385,137.6 126.62556,135.048 122.792,130.02852 120.15484,126.4456 103.68149,104.06446 99.669861,99.013802 93.290252,92.622976 89.234057,88.559648 85.086092,85.181574 81.109612,82.703142 79.795325,81.88398 78.719997,81.148163 78.719997,81.06799 c 0,-0.08017 0.897513,-1.325271 1.994473,-2.76688 8.605907,-11.309751 20.45001,-21.969268 32.40553,-29.1645 26.16497,-15.746961 57.2078,-20.60073 86.87999,-13.584314 24.63477,5.825245 47.41898,20.149642 63.26273,39.773159 l 2.06753,2.560772 -2.71866,0.721699 c -9.58485,2.544406 -17.85062,9.442743 -25.93467,21.644174 -3.41076,5.14794 -6.545,10.73649 -12.57886,22.4289 -9.19463,17.81737 -11.80025,22.04429 -19.15814,31.07901 -10.40472,12.77589 -21.74843,18.18449 -33.57993,16.01068 z m -38.56,-74.090687 v -12.16 h 3.16082 c 2.5485,0 3.2459,0.102422 3.6,0.528707 0.35044,0.421878 0.45836,2.878944 0.53408,12.16 l 0.0949,11.63129 h 3.03528 3.03529 l -0.0902,-13.199997 -0.0902,-13.2 -0.74091,-1.038765 c -0.4075,-0.571322 -1.4155,-1.435322 -2.24,-1.92 l -1.49909,-0.881235 -7.6,-0.100935 -7.6,-0.100934 V 92.619069 107.84 h 3.2 3.2 z m 33.69589,11.644177 c 1.30435,-0.65698 3.02745,-2.27362 3.61142,-3.38829 0.36394,-0.69469 0.45269,-2.95665 0.45269,-11.537346 V 81.725302 l -0.91684,-1.445709 c -1.52753,-2.408669 -2.4378,-2.67959 -9.00316,-2.67959 -6.31412,0 -6.86446,0.157526 -8.76607,2.509129 l -0.99393,1.229127 -0.0988,10.290874 c -0.0543,5.659977 -0.0162,10.735437 0.0847,11.278797 0.24854,1.33796 2.10116,3.43031 3.76765,4.25522 1.2049,0.59641 1.92618,0.67638 6.10229,0.6766 3.71937,2e-4 4.95571,-0.11046 5.76,-0.51557 z M 157.75999,101.44 c -0.60653,-0.60653 -0.64,-1.06666 -0.64,-8.799997 0,-9.768343 -0.12293,-9.44 3.53455,-9.44 1.96705,0 2.3547,0.10016 3.04,0.785456 l 0.78545,0.785453 v 7.869091 7.869087 l -0.78545,0.78546 c -0.6853,0.68529 -1.07295,0.78545 -3.04,0.78545 -1.82788,0 -2.37566,-0.12111 -2.89455,-0.64 z m 23.68,0.64 v -5.759997 h 3.68 3.68 v 5.759997 5.76 h 3.21657 3.21657 l -0.0966,-13.039997 c -0.10458,-14.121936 -0.0848,-13.96009 -1.91053,-15.664727 -1.50562,-1.405789 -2.82525,-1.695273 -7.72801,-1.695273 -4.88733,0 -6.11908,0.238844 -7.84527,1.521257 -2.35686,1.750951 -2.29023,1.290378 -2.29156,15.838743 l -0.001,13.039997 h 3.04 3.04 z m 0,-14.196842 c 0,-2.223549 0.11231,-2.819626 0.66323,-3.52 0.61014,-0.775664 0.85347,-0.843155 3.04,-0.843155 3.34619,0 3.65677,0.353325 3.65677,4.16 v 2.88 h -3.68 -3.68 z m 24.39262,14.276842 0.0874,-5.679997 3.6,-0.09048 3.6,-0.09048 v 5.770477 5.77048 h 3.21335 3.21336 l -0.0934,-13.199997 c -0.0928,-13.119226 -0.0978,-13.207207 -0.8255,-14.377431 -0.46584,-0.749149 -1.33258,-1.47664 -2.38283,-2 -1.55378,-0.774285 -1.93446,-0.822569 -6.48502,-0.822569 -4.56638,0 -4.927,0.04618 -6.50612,0.833081 -0.91948,0.458195 -2.06375,1.346816 -2.54283,1.974714 l -0.87105,1.141629 -0.0902,13.22529 -0.0902,13.225283 h 3.04281 3.0428 z m 0.0425,-12.081699 c -0.10167,-0.264938 -0.13099,-1.548202 -0.0652,-2.851696 0.16744,-3.315722 0.56712,-3.706602 3.7901,-3.706602 3.31833,0 3.52,0.235203 3.52,4.105197 v 2.934803 h -3.53004 c -2.84817,0 -3.56575,-0.09305 -3.71489,-0.481702 z m 247.08492,67.804189 c -5.71434,-0.82736 -10.31171,-2.28013 -15.2,-4.80321 -9.13913,-4.71716 -15.66643,-12.1729 -19.82752,-22.64787 -2.0472,-5.15351 -3.17737,-11.01629 -3.42969,-17.79141 -0.92442,-24.82225 12.16355,-44.336513 33.14294,-49.416411 4.52025,-1.094521 9.98291,-1.593808 14.68656,-1.342352 11.972,0.64002 21.16253,4.557408 28.89808,12.317601 4.56604,4.58056 7.38838,8.91793 10.03209,15.417351 3.78675,9.309558 4.74307,22.541011 2.41008,33.345711 -3.46713,16.05734 -14.19888,28.40883 -28.64969,32.97384 -5.12429,1.61876 -6.97184,1.87646 -14.22285,1.98385 -3.784,0.056 -7.312,0.0393 -7.84,-0.0371 z m 10.08838,-16.772 c 7.83504,-0.95209 13.53613,-4.83636 17.38711,-11.84617 2.91629,-5.30849 4.17792,-11.01582 4.17001,-18.86432 -0.0186,-18.499312 -7.91401,-29.777287 -21.96009,-31.368449 -11.2433,-1.273654 -20.51351,4.08361 -24.89888,14.389044 -2.35603,5.536647 -3.56906,14.384795 -2.89488,21.116665 1.71376,17.11297 10.04493,26.24082 24.51673,26.86123 0.53264,0.0228 2.18864,-0.10676 3.68,-0.288 z M 330.87999,110.08 V 64.000002 h 10.0488 10.04876 l 19.11095,30.725672 c 10.511,16.899116 19.23705,30.803616 19.39123,30.898886 0.15961,0.0986 0.28025,-13.12797 0.28025,-30.72567 V 64.000002 h 9.44 9.44 V 110.08 156.16001 l -10.16,-0.008 -10.16,-0.008 -19.2,-30.94084 -19.2,-30.940849 -0.0816,30.948819 -0.0816,30.94882 h -9.43843 -9.4384 v -46.08 z m 167.35999,45.82043 c 0,-0.14771 7.776,-20.82825 17.28,-45.95675 9.504,-25.128503 17.28,-45.747639 17.28,-45.820305 0,-0.07267 4.70876,-0.09415 10.4639,-0.04774 l 10.4639,0.08437 16.35328,43.728785 c 8.99427,24.05083 16.50989,44.06683 16.70131,44.48 l 0.34807,0.75122 0.31411,-0.8 c 0.17274,-0.44 7.66595,-20.24001 16.65152,-44.00001 8.9856,-23.759994 16.43606,-43.45394 16.55658,-43.764321 0.20403,-0.525485 0.93539,-0.558522 10.62515,-0.48 l 10.40601,0.08433 17.17744,45.920001 17.17744,45.92001 -10.38825,0.0844 c -5.71354,0.0464 -10.46301,0.01 -10.55437,-0.0817 -0.0914,-0.0914 -1.68938,-4.66536 -3.55111,-10.16444 l -3.38499,-9.99832 -17.28045,-0.0827 -17.28041,-0.0827 -3.5705,10.16272 -3.57049,10.16272 -19.6705,0.0824 -19.67049,0.0824 -3.2448,-9.49153 c -1.78464,-5.22034 -3.3296,-9.82943 -3.43328,-10.24243 l -0.18845,-0.7509 -17.32531,0.005 -17.32531,0.005 -3.54813,10.15547 -3.5481,10.15548 -10.1319,0.0845 c -5.57251,0.0465 -10.13187,-0.0363 -10.13187,-0.18404 z M 554.56762,120.24 c 0.0154,-0.79568 -11.35683,-33.498483 -11.57008,-33.272243 -0.28694,0.304444 -11.79756,32.779343 -11.79756,33.284503 0,0.57389 23.35667,0.56165 23.36764,-0.0123 z m 87.99235,0.0173 c 0,-0.81483 -11.37251,-33.486127 -11.58365,-33.277858 -0.31168,0.30743 -11.77635,32.625238 -11.77635,33.196358 0,0.39719 1.6872,0.46425 11.68,0.46425 8.84999,0 11.68,-0.0927 11.68,-0.38275 z"
         id="path1373" />
      <path
         style="fill:#002f86;stroke-width:0.32"
         d="m 172.15999,169.88744 c -8.55019,-1.30468 -19.14001,-7.50116 -29.6,-17.32001 -7.47129,-7.01335 -12.26745,-12.58907 -21.16938,-24.61022 -19.57645,-26.43597 -21.18646,-28.459197 -28.241692,-35.489882 -4.704,-4.687632 -8.620394,-7.874727 -12.374755,-10.070359 -1.643146,-0.960947 -1.981901,-1.292323 -1.752278,-1.714105 0.15656,-0.287575 1.788121,-2.394861 3.625692,-4.682861 19.523723,-24.309422 47.495013,-39.593205 78.472413,-42.878085 5.93152,-0.628986 18.0138,-0.6252 24.03896,0.0075 19.00131,1.995421 36.38902,8.268986 52.28104,18.863229 6.88861,4.592218 11.13294,8.081428 17.3167,14.23585 4.8244,4.801517 10.2033,10.856154 10.2033,11.485124 0,0.137136 -1.06609,0.500672 -2.36908,0.807853 -3.09413,0.729443 -8.6522,3.489267 -11.87092,5.894432 -3.28998,2.458413 -8.05664,7.381242 -11.07791,11.440855 -4.62378,6.212889 -8.27072,12.514939 -16.84179,29.103219 -7.43394,14.38751 -9.42063,17.69106 -15.39208,25.59448 -7.87677,10.42516 -16.10211,16.76595 -24.46369,18.85868 -2.66772,0.66768 -7.9847,0.90151 -10.78453,0.47428 z m -39.36,-74.207437 v -12.16 h 3.01715 c 2.31619,0 3.13396,0.116825 3.52,0.502857 0.43874,0.438736 0.50285,1.989265 0.50285,12.160001 V 107.84 h 3.2 3.2 l -0.001,-13.039997 c -0.001,-14.548365 0.0653,-14.087792 -2.29155,-15.838743 -1.85427,-1.377625 -2.83573,-1.521257 -10.39492,-1.521257 h -7.15225 v 15.2 V 107.84 h 3.2 3.2 z m 34.84891,11.062457 c 0.74336,-0.51565 1.70245,-1.5363 2.13133,-2.26811 l 0.77976,-1.33058 V 92.55272 c 0,-10.980308 -0.0792,-11.734397 -1.38131,-13.154932 -1.49877,-1.635043 -2.82896,-1.943145 -8.42215,-1.950758 -5.02406,-0.0068 -5.20916,0.01686 -6.85657,0.877469 -1.2664,0.661574 -1.88048,1.238806 -2.43654,2.290329 -0.73434,1.388653 -0.74343,1.53449 -0.74343,11.931396 0,11.537836 -0.0233,11.381316 1.9727,13.256466 2.07574,1.95006 2.46533,2.04191 8.29598,1.95576 5.29352,-0.0782 5.31253,-0.0811 6.66023,-1.01599 z m -9.40891,-5.02695 c -0.352,-0.20945 -0.74579,-0.53712 -0.8751,-0.72816 -0.1293,-0.19104 -0.2373,-3.96103 -0.24,-8.37775 -0.006,-9.584464 -0.20817,-9.089597 3.7163,-9.089597 1.55729,0 2.70037,0.149565 2.9348,0.384 0.27911,0.279107 0.384,2.672182 0.384,8.760819 0,7.337098 -0.0644,8.430308 -0.51925,8.807758 -0.68097,0.56515 -4.56555,0.73989 -5.40075,0.24293 z m 23.2,0.52449 v -5.599997 h 3.68 3.68 v 5.599997 5.6 h 3.21336 3.21335 L 195.1334,94.616099 195.04,81.392198 194.18112,80.094867 c -1.49717,-2.261434 -2.80302,-2.656048 -8.76215,-2.647837 -4.23869,0.0059 -5.31539,0.105347 -6.38171,0.589766 -1.61328,0.732896 -3.22118,2.541434 -3.65802,4.114461 -0.20715,0.745955 -0.33635,5.895053 -0.33745,13.448746 l -0.002,12.239997 h 3.2 3.2 z m 0.0472,-14.748295 c 0.14424,-3.512384 0.58053,-3.974109 3.74825,-3.966803 1.1685,0.0026 2.28299,0.110694 2.47665,0.24 0.7584,0.506403 1.0879,1.734278 1.0879,4.054064 v 2.421037 h -3.71284 -3.71283 z M 206.07999,102.24 v -5.599997 h 3.52 3.52 v 5.599997 5.6 h 3.2 3.2 l -0.007,-12.879997 c -0.008,-14.709882 -0.0157,-14.758912 -2.58448,-16.458836 l -1.36175,-0.901164 h -5.83581 -5.8358 l -1.38283,0.971891 c -0.76056,0.534541 -1.70896,1.455834 -2.10757,2.047322 -0.72359,1.07375 -0.72472,1.095859 -0.72472,14.148109 V 107.84 h 3.2 3.2 z m 0,-14.719997 c 0,-3.592717 0.35841,-4 3.52,-4 3.16159,0 3.52,0.407283 3.52,4 v 2.72 h -3.52 -3.52 z M 451.67998,157.5931 c -15.38057,-2.48005 -27.21952,-11.70612 -33.10528,-25.79891 -5.85325,-14.01492 -5.41344,-31.908148 1.12055,-45.588773 6.16236,-12.902544 17.40448,-21.275872 31.82092,-23.700816 4.19898,-0.706298 12.59565,-0.683812 16.80381,0.045 17.97629,3.113328 30.98694,15.965348 35.15907,34.730401 2.24717,10.107078 1.80106,21.249988 -1.22378,30.566918 -5.0487,15.55076 -16.40707,25.8975 -32.17529,29.30963 -4.05987,0.87853 -14.1712,1.11842 -18.4,0.43655 z m 14.72,-16.95361 c 9.17194,-2.4084 15.33629,-9.93327 17.6695,-21.56939 0.76445,-3.81234 0.75882,-13.42797 -0.0102,-17.52728 -2.2439,-11.960715 -8.41046,-19.603416 -17.81926,-22.084862 -3.25178,-0.857616 -10.27686,-0.767987 -13.58877,0.173369 -10.90025,3.098234 -17.25977,13.166318 -17.98736,28.476803 -0.64892,13.65521 4.06003,24.97804 12.51501,30.09257 2.25824,1.36605 5.3568,2.49645 7.93648,2.89534 2.69674,0.417 8.91616,0.16537 11.28464,-0.45655 z M 330.87999,110.08 V 64.000002 l 10,2.56e-4 9.99999,2.53e-4 19.2,30.876875 c 10.56,16.982284 19.308,30.878164 19.44,30.879744 0.132,0.002 0.24,-13.89313 0.24,-30.877127 V 64.000002 h 9.44 9.44 v 46.084498 46.08449 l -10.13667,-0.0845 -10.1367,-0.0845 -18.9624,-30.52311 c -10.42935,-16.78771 -19.11584,-30.67651 -19.30333,-30.864001 -0.24118,-0.241193 -0.3409,8.709311 -0.3409,30.603101 v 30.94401 h -9.43999 -9.44 z m 167.43116,45.68001 c 0.0768,-0.22 7.90422,-20.95665 17.39424,-46.08143 l 17.25459,-45.681432 10.34227,0.08143 10.34227,0.08143 L 569.14887,105.6 c 8.52739,22.792 16.02797,42.86193 16.6679,44.59985 1.08263,2.94001 1.19008,3.10698 1.54477,2.4 0.20967,-0.41792 7.84887,-20.52385 16.976,-44.67985 l 16.59479,-43.919998 h 10.29958 c 9.51382,0 10.316,0.04272 10.51478,0.56 1.49731,3.896157 33.90512,90.632538 34.01581,91.040008 0.14259,0.52496 -0.49827,0.56 -10.24304,0.56 H 655.12432 L 651.65008,145.92 648.17584,135.68 h -17.32409 -17.3241 l -3.60768,10.24 -3.60768,10.24001 H 586.74234 567.17236 L 563.70487,145.92 560.23738,135.68 h -17.33536 -17.33535 l -2.66976,7.6 c -1.46836,4.18 -3.09447,8.78801 -3.6136,10.24001 l -0.94384,2.64 h -10.084 c -7.92832,0 -10.05412,-0.0855 -9.94432,-0.4 z m 56.56883,-35.23335 c 0,-0.26752 -11.54192,-33.61523 -11.68352,-33.75683 -0.0861,-0.08607 -0.20906,-0.09649 -0.27332,-0.02317 -0.0643,0.07334 -2.72323,7.488439 -5.90883,16.47801 -3.18557,8.98957 -5.88441,16.58557 -5.99737,16.88 -0.1898,0.49459 0.7104,0.53533 11.8288,0.53533 6.61884,0 12.03424,-0.051 12.03424,-0.11335 z M 642.73063,120.08 c -0.11978,-0.308 -2.74781,-7.94 -5.84007,-16.96 -3.09222,-9.019997 -5.71993,-16.399997 -5.83929,-16.399997 -0.11936,0 -2.85763,7.452 -6.08499,16.559997 -3.22739,9.108 -5.93251,16.74 -6.01139,16.96 -0.11309,0.31547 2.40716,0.4 11.92508,0.4 11.36343,0 12.05575,-0.0327 11.85066,-0.56 z"
         id="path1371" />
    </g>
  </g>
</svg>
