<?xml version="1.0" encoding="UTF-8" standalone="no"?>
<!-- Created with Inkscape (http://www.inkscape.org/) -->

<svg
   xmlns:dc="http://purl.org/dc/elements/1.1/"
   xmlns:cc="http://creativecommons.org/ns#"
   xmlns:rdf="http://www.w3.org/1999/02/22-rdf-syntax-ns#"
   xmlns:svg="http://www.w3.org/2000/svg"
   xmlns="http://www.w3.org/2000/svg"
   xmlns:sodipodi="http://sodipodi.sourceforge.net/DTD/sodipodi-0.dtd"
   xmlns:inkscape="http://www.inkscape.org/namespaces/inkscape"
   width="202"
   height="41.824459"
   viewBox="0 0 53.445834 11.066054"
   version="1.1"
   id="svg16541"
   inkscape:version="0.92.0 r15299"
   sodipodi:docname="statnett.svg">
  <defs
     id="defs16535">
    <clipPath
       id="clipPath16257"
       clipPathUnits="userSpaceOnUse">
      <path
         inkscape:connector-curvature="0"
         id="path16255"
         d="m 45.355,788.926 h 38.213 v 7.609 H 45.355 Z" />
    </clipPath>
  </defs>
  <sodipodi:namedview
     id="base"
     pagecolor="#ffffff"
     bordercolor="#666666"
     borderopacity="1.0"
     inkscape:pageopacity="0.0"
     inkscape:pageshadow="2"
     inkscape:zoom="4.0099999"
     inkscape:cx="99.999991"
     inkscape:cy="19.912243"
     inkscape:document-units="mm"
     inkscape:current-layer="layer1"
     showgrid="false"
     fit-margin-top="0"
     fit-margin-left="0"
     fit-margin-right="0"
     fit-margin-bottom="0"
     units="px"
     inkscape:window-width="1280"
     inkscape:window-height="744"
     inkscape:window-x="-4"
     inkscape:window-y="-4"
     inkscape:window-maximized="1" />
  <metadata
     id="metadata16538">
    <rdf:RDF>
      <cc:Work
         rdf:about="">
        <dc:format>image/svg+xml</dc:format>
        <dc:type
           rdf:resource="http://purl.org/dc/dcmitype/StillImage" />
        <dc:title></dc:title>
      </cc:Work>
    </rdf:RDF>
  </metadata>
  <g
     inkscape:label="Layer 1"
     inkscape:groupmode="layer"
     id="layer1"
     transform="translate(-114.21209,-182.19869)">
    <g
       id="g16251"
       transform="matrix(1.3847927,0,0,-1.3847927,51.6694,1285.4991)"
       style="stroke-width:0.25475132">
      <g
         clip-path="url(#clipPath16257)"
         id="g16253"
         style="stroke-width:0.25475132">
        <g
           transform="translate(47.2569,791.5343)"
           id="g16259"
           style="stroke-width:0.25475132">
          <path
             inkscape:connector-curvature="0"
             id="path16261"
             style="fill:#646363;fill-opacity:1;fill-rule:nonzero;stroke:none;stroke-width:0.25475132"
             d="m 0,0 c 0.041,-0.859 0.573,-1.136 1.381,-1.136 0.573,0 1.167,0.205 1.167,0.747 0,0.644 -1.045,0.767 -2.098,1.064 -1.043,0.296 -2.137,0.768 -2.137,2.107 0,1.596 1.605,2.219 2.976,2.219 1.452,0 2.915,-0.705 2.925,-2.352 H 2.312 c 0.031,0.665 -0.593,0.88 -1.177,0.88 -0.409,0 -0.92,-0.144 -0.92,-0.624 0,-0.563 1.053,-0.665 2.117,-0.962 1.054,-0.296 2.117,-0.787 2.117,-2.107 0,-1.851 -1.575,-2.445 -3.181,-2.445 -1.677,0 -3.16,0.737 -3.171,2.609 z" />
        </g>
        <g
           transform="translate(55.136,793.2627)"
           id="g16263"
           style="stroke-width:0.25475132">
          <path
             inkscape:connector-curvature="0"
             id="path16265"
             style="fill:#646363;fill-opacity:1;fill-rule:nonzero;stroke:none;stroke-width:0.25475132"
             d="m 0,0 h -1.074 v -2.414 c 0,-0.419 0.245,-0.511 0.624,-0.511 0.143,0 0.296,0.02 0.45,0.02 v -1.278 c -0.318,-0.011 -0.634,-0.051 -0.951,-0.051 -1.483,0 -1.862,0.429 -1.862,1.872 v 5.093 h 1.739 V 1.125 H 0 Z" />
        </g>
        <g
           transform="translate(58.0681,789.9999)"
           id="g16267"
           style="stroke-width:0.25475132">
          <path
             inkscape:connector-curvature="0"
             id="path16269"
             style="fill:#646363;fill-opacity:1;fill-rule:nonzero;stroke:none;stroke-width:0.25475132"
             d="M 0,0 C 0.828,0 1.105,0.47 1.064,1.565 0.818,1.411 0.368,1.38 -0.01,1.279 -0.4,1.187 -0.726,1.023 -0.726,0.603 -0.726,0.174 -0.389,0 0,0 m -2.251,2.751 c 0.031,0.696 0.359,1.146 0.829,1.423 0.471,0.265 1.085,0.367 1.687,0.367 1.26,0 2.476,-0.276 2.476,-1.779 V 0.44 c 0,-0.451 0,-0.94 0.204,-1.36 H 1.196 c -0.061,0.163 -0.082,0.327 -0.102,0.501 -0.45,-0.471 -1.114,-0.655 -1.749,-0.655 -1.012,0 -1.81,0.511 -1.81,1.606 0,1.729 1.882,1.596 3.089,1.84 0.296,0.063 0.46,0.165 0.46,0.492 0,0.399 -0.48,0.552 -0.839,0.552 -0.481,0 -0.787,-0.214 -0.869,-0.665 z" />
        </g>
        <g
           transform="translate(64.451,793.2627)"
           id="g16271"
           style="stroke-width:0.25475132">
          <path
             inkscape:connector-curvature="0"
             id="path16273"
             style="fill:#646363;fill-opacity:1;fill-rule:nonzero;stroke:none;stroke-width:0.25475132"
             d="m 0,0 h -1.074 v -2.414 c 0,-0.419 0.245,-0.511 0.624,-0.511 0.143,0 0.296,0.02 0.45,0.02 v -1.278 c -0.317,-0.011 -0.634,-0.051 -0.952,-0.051 -1.483,0 -1.861,0.429 -1.861,1.872 v 5.093 h 1.739 V 1.125 H 0 Z" />
        </g>
        <g
           transform="translate(65.3391,794.3929)"
           id="g16275"
           style="stroke-width:0.25475132">
          <path
             inkscape:connector-curvature="0"
             id="path16277"
             style="fill:#e30613;fill-opacity:1;fill-rule:nonzero;stroke:none;stroke-width:0.25475132"
             d="m 0,0 h 1.687 v -0.726 h 0.02 c 0.318,0.542 1.034,0.88 1.667,0.88 1.77,0 1.913,-1.289 1.913,-2.056 V -5.308 H 3.549 v 2.568 c 0,0.725 0.082,1.462 -0.869,1.462 -0.655,0 -0.941,-0.553 -0.941,-1.136 V -5.308 H 0 Z" />
        </g>
        <g
           transform="translate(75.0873,792.2856)"
           id="g16279"
           style="stroke-width:0.25475132">
          <path
             inkscape:connector-curvature="0"
             id="path16281"
             style="fill:#e30613;fill-opacity:1;fill-rule:nonzero;stroke:none;stroke-width:0.25475132"
             d="M 0,0 C -0.03,0.594 -0.45,1.085 -1.034,1.085 -1.647,1.085 -2.056,0.645 -2.159,0 Z m -2.159,-0.972 c 0.032,-0.725 0.451,-1.206 1.187,-1.206 0.42,0 0.829,0.194 0.993,0.583 h 1.626 c -0.317,-1.228 -1.452,-1.76 -2.639,-1.76 -1.729,0 -2.905,1.044 -2.905,2.824 0,1.626 1.299,2.792 2.863,2.792 1.903,0 2.855,-1.432 2.773,-3.233 z" />
        </g>
        <g
           transform="translate(80.2005,793.2678)"
           id="g16283"
           style="stroke-width:0.25475132">
          <path
             inkscape:connector-curvature="0"
             id="path16285"
             style="fill:#e30613;fill-opacity:1;fill-rule:nonzero;stroke:none;stroke-width:0.25475132"
             d="m 0,0 h -1.074 v -2.414 c 0,-0.419 0.246,-0.511 0.624,-0.511 0.143,0 0.297,0.02 0.45,0.02 v -1.278 c -0.317,-0.011 -0.635,-0.052 -0.951,-0.052 -1.483,0 -1.862,0.43 -1.862,1.873 v 5.093 h 1.739 V 1.125 H 0 Z" />
        </g>
        <g
           transform="translate(83.5677,793.2678)"
           id="g16287"
           style="stroke-width:0.25475132">
          <path
             inkscape:connector-curvature="0"
             id="path16289"
             style="fill:#e30613;fill-opacity:1;fill-rule:nonzero;stroke:none;stroke-width:0.25475132"
             d="m 0,0 h -1.074 v -2.414 c 0,-0.419 0.245,-0.511 0.624,-0.511 0.143,0 0.297,0.02 0.45,0.02 v -1.278 c -0.317,-0.011 -0.634,-0.052 -0.952,-0.052 -1.483,0 -1.861,0.43 -1.861,1.873 v 5.093 h 1.739 V 1.125 H 0 Z" />
        </g>
      </g>
    </g>
  </g>
</svg>
