<svg xmlns="http://www.w3.org/2000/svg" role="img" viewBox="-17.11 -17.11 837.72 889.72"><path fill="#407ec9" d="M397.81015 144.58746c-40.0447.41675-77.7456 16.6628-105.8125 46.34375-18.3796 19.43645-29.9049 40.91235-36.1563 67.34375-2.884 12.19347-3.6674 41.96543-1.4375 54.8125 3.4749 20.01785 12.3866 41.89124 23.4688 57.6875 8.0469 11.46992 7.6614 11.04933 18.625 22 22.0276 22.00163 50.0333 35.92929 82.375 40.96875 17.0264 2.65307 40.1577 1.43559 57.625-3.0625 53.8637-13.87077 94.64-55.54778 107.0937-109.40625 6.4344-27.82676 3.3152-61.27292-8.2187-87.90625-8.2743-19.10611-17.4695-32.09841-34.1563-48.28125-20.8134-20.18483-46.618-33.26214-75.375-38.21875-9.3997-1.62013-18.7902-2.37742-28.0312-2.28125zm2.5 67.75c4.6328.0388 9.2066.57145 12.25 1.59375 8.5297 2.86521 17.3346 10.18052 22.3125 18.53125 2.9973 5.02837 5.3727 16.93484 4.5312 22.71875-2.4702 16.97621-14.4546 30.31532-30.2187 33.65625-17.65 3.74059-33.1346-2.0976-42-15.8125-5.8512-9.05152-7.5844-15.18829-6.9375-24.625 1.0965-15.99955 12.2506-30.00961 27.5625-34.65625 3.1964-.97001 7.8671-1.44507 12.5-1.40625zm-247.2188 139.9375c-1.682 0-.3302 9.59533 3.5 24.75 7.5575 29.90245 19.098 56.47587 35.9375 82.78125 9.6478 15.07107 16.9427 23.97553 32.4375 39.59375 12.8557 12.95808 22.8413 21.34648 33.7813 28.375 3.4243 2.2 6.2451 4.29331 6.25 4.625.005.33172-6.4125.86623-14.25 1.1875-22.8407.93622-46.4186 5.3193-69.75 13-14.3844 4.73532-31.088 11.89251-30.7188 13.15625.9753 3.33825 30.3749 20.31493 48.2188 27.84375 20.2084 8.52655 46.1807 15.40116 71 18.78125 13.462 1.83338 48.6403 1.54933 62-.5 16.2871-2.49841 37.6941-7.17718 48.7187-10.65625 5.3476-1.68757 10.1851-2.78663 10.75-2.4375.6311.39004 1.0313 6.57528 1.0313 16.0625v15.4375h18v-16c0-12.66476.2885-16 1.3437-16 .7331 0 5.4746 1.34348 10.5313 2.96875 9.6686 3.1076 38.0127 9.13408 51.7187 11 12.7425 1.73478 49.0088 1.49324 61.7188-.40625 28.6156-4.2765 50.5126-10.51286 74.6875-21.28125 12.6465-5.63327 28.5355-14.65431 37.25-21.15625l4.7812-3.5625-3.2812-1.65625c-11.6024-5.90777-36.3658-14.41405-53.6563-18.4375-13.4545-3.13081-31.1258-5.57118-44.8437-6.15625-7.8375-.33428-14.2344-.85575-14.2188-1.1875.0156-.33172 2.5646-2.15919 5.6563-4.03125 10.9374-6.62287 27.7204-21.1075 41.3437-35.6875 25.2516-27.02479 46.3283-64.50272 57.4375-102.15625 3.5934-12.17928 8.9159-37.17782 8.0938-38-.5753-.57527-33.1284 6.30444-40.0625 8.46875-27.3567 8.53878-42.9965 14.92614-62.6875 25.625-44.391 24.11926-80.1953 58.61375-106.5313 102.65625-9.4904 15.87108-20.6627 39.81046-26.375 56.5l-2.4062 7-.5-53-.5-53h-18l-.1875 52c-.0962 28.6-.2122 52.45-.2813 53-.0691.55-1.8389-3.725-3.9375-9.5-8.4498-23.25195-18.6755-43.50139-32.5937-64.5625-35.4186-53.59529-84.8143-90.82922-149.5-112.71875-14.2209-4.81228-46.4705-12.71875-51.9063-12.71875zm469.625 25c1.2611 0-.6801 7.66209-5 19.625-21.463 59.43692-60.433 104.51726-112.3437 129.9375-18.641 9.12838-41.2431 16.76159-58.875 19.90625-4.9501.88283-10.0125 1.82581-11.25 2.09375-1.2375.26795-2.25.0987-2.25-.375 0-3.01089 13.6087-33.06709 19.7812-43.6875 36.6034-62.98008 86.1248-101.76535 158.7813-124.375 5.5257-1.71953 10.5332-3.125 11.1562-3.125zm-445.3437.3125c.2565-.25656 5.9967 1.21927 12.7812 3.28125 65.143 19.79872 113.9741 55.81652 149.9063 110.59375 9.2316 14.07348 24.1396 43.73811 27.4062 54.5625.6239 2.06744.3515 2.26461-3.1562 2.1875-2.0996-.0462-8.0875-1.10668-13.3125-2.34375-41.849-9.90826-73.9246-25.80953-101.9375-50.53125-28.3384-25.00893-48.3267-53.88018-63.0313-91.03125-4.632-11.70294-9.2858-26.08913-8.6562-26.71875z"/><path fill="#407ec9" d="M392 782.87012c0-7.33865-.29415-18.81365-.65368-25.5l-.65367-12.157h15.25254c16.99745 0 20.98362 1.02787 23.59886 6.08519 1.9324 3.73684 1.84811 9.90991-.17474 12.79794-.89688 1.28047-3.24184 3.00132-5.21103 3.8241l-3.58033 1.49595 2.96141 1.24518c4.38712 1.84465 5.13111 3.22407 6.76978 12.55164.82131 4.675 1.81088 9.2875 2.19906 10.25.62111 1.54006.0461 1.75-4.7928 1.75-6.2226 0-6.08759.19301-7.34426-10.49931-1.0076-8.57303-3.39723-10.69026-11.62335-10.29835l-6.24779.29766.26406 10.75.26405 10.75H392v-13.343zm23.27972-16.57325c6.1484-2.33762 7.70075-8.38075 3.08542-12.01117-2.08446-1.63964-4.06892-2.07258-9.5-2.07258H402v15h5.4349c2.9892 0 6.51937-.41231 7.84482-.91625zm-74.83851 25.23557c-2.00581-.3978-2.02788-.64519-.85789-9.61381.66049-5.06303 2.01584-16.52126 3.01188-25.46272l1.81098-16.25722 3.04691.50922c1.6758.28007 7.09691.98045 12.04691 1.5564 10.62792 1.23659 15.12126 3.18475 18.33361 7.94881 1.99266 2.9552 2.28367 4.37523 1.86956 9.12286-.89781 10.29305-6.0085 14.26523-18.06742 14.04254-3.81878-.0705-7.72022-.37482-8.66985-.67622-1.47925-.4695-1.8232.42323-2.40084 6.23141-1.29344 13.00562-1.40233 13.29613-4.92635 13.14323-1.72629-.0749-4.06516-.31992-5.1975-.5445zm26.53606-27.26729c3.37991-2.59707 3.52472-9.41738.25615-12.0641-2.11393-1.71176-11.80935-3.74533-12.85781-2.69688-.81293.81293-2.46883 14.02364-1.93286 15.42034.81383 2.12083 11.55016 1.63377 14.53452-.65936zM460.5 790.0762c-3.72563-1.37676-9.15904-6.38579-11.24109-10.36308-3.95485-7.55485-5.43886-20.67102-3.12285-27.60078 2.76532-8.2741 12.09649-13.87354 23.14606-13.88945 8.45193-.0122 12.35542 1.58057 16.90767 6.89886 6.84231 7.99369 9.48615 25.33761 5.12054 33.59137-2.67024 5.04845-5.78724 7.96566-10.708 10.02169-4.89038 2.04333-16.16666 2.79578-20.10233 1.34139zm16.53273-8.38001c4.24399-2.19465 6.3123-6.86495 6.1926-13.98307-.11058-6.57621-2.04491-13.03351-5.25451-17.54098-4.45704-6.25933-15.60513-6.08469-20.17053.31598-5.16206 7.23719-1.66803 26.39526 5.62505 30.84259 3.7187 2.26767 9.62233 2.42624 13.60739.36548zM282 777.53201c-7.975-2.46766-14.85239-4.82381-15.2831-5.23587-.61522-.58861 13.62502-46.41749 14.90586-47.97101.17594-.21339 2.39697.19356 4.93564.90434 5.4499 1.52588 5.53462-.12563-1.02509 19.98365-6.83042 20.93917-7.40982 22.96345-6.68581 23.35866.35887.1959 4.815 1.61627 9.9025 3.15638 7.8948 2.38995 9.2397 3.10676 9.17971 4.89258-.19213 5.71971-.35898 5.72925-15.92971.91127zm239.10715-9.58528c-1.7464-5.07849-4.8075-14.18361-6.80245-20.23361-1.99495-6.05-3.75444-11.16232-3.90998-11.3607-.15554-.19839-3.09535.58911-6.53293 1.75-3.43757 1.16088-6.78316 2.1107-7.43464 2.1107-1.14775 0-4.08694-5.70008-3.31175-6.4226.21153-.19716 4.8846-1.81171 10.3846-3.58788 5.5-1.77618 13.91098-4.52544 18.69106-6.10947 4.78009-1.58403 9.09535-2.88005 9.58949-2.88005.8663 0 3.21945 4.28658 3.21945 5.86468 0 .42381-3.15 1.80326-7 3.06543-4.88865 1.60269-7 2.78958-7 3.93504 0 .90209 2.4837 8.83897 5.51934 17.63751 7.88466 22.853 7.79216 22.43384 5.1639 23.40105-7.38054 2.71607-7.11435 2.89654-10.57609-7.1701zm-275.82719-2.84265c-3.81648-1.75494-4.1751-2.22504-3.75-4.91574 1.52658-9.66279 2.49142-8.22808-9.09914-13.53037l-10.47208-4.79063-3.36424 3.67289c-1.85033 2.02009-3.93984 3.67289-4.64335 3.67289-1.77484 0-8.95115-3.23884-8.95115-4.03986 0-.57195 10.15746-10.33344 32.90929-31.6264l6.4093-5.99832 3.85442 1.86226c2.11993 1.02424 5.00033 2.29792 6.40088 2.83041 1.40055.53249 2.30915 1.35215 2.0191 1.82146-.29005.46931-1.23252 9.35765-2.09438 19.75187-.86186 10.39422-1.75957 19.57358-1.99491 20.39858-.23535.825-.52196 4.0875-.63693 7.25-.12294 3.38198-.65333 5.7153-1.2879 5.66574-.59338-.0463-2.97789-.95749-5.29891-2.02478zm-.36282-31.64096c.64025-5.3625 1.40657-10.9875 1.70293-12.5.29636-1.5125.1562-2.75-.31146-2.75-.46767 0-4.84171 4.00998-9.72008 8.91106l-8.86978 8.91106 7.39063 3.50188c4.06484 1.92603 7.67256 3.54105 8.01715 3.58894.34459.0479 1.15036-4.30044 1.79061-9.66294zm308.69033 5.96478l-11.40087-22.78521 14.54136-6.96479c7.99775-3.83063 14.8267-7.08159 15.17544-7.22436.34874-.14277 1.46447 1.14617 2.47939 2.86431 1.52909 2.58854 1.60986 3.27305.47127 3.99427-.75573.4787-1.66076.87727-2.01117.88569-.35042.008-4.49472 2.06744-9.20957 4.5756l-8.57245 4.56029 2.66788 5.43971c1.46734 2.99184 3.13664 5.41838 3.70957 5.3923.57292-.0261 5.09168-1.9945 10.04168-4.37427l9-4.32687 1.74341 2.62427c.95888 1.44336 1.74638 2.9492 1.75 3.34633.004.39712-4.26841 2.83013-9.49341 5.40667-5.225 2.57654-9.5 5.0628-9.5 5.52502 0 .46223 1.2375 3.56251 2.75 6.88953 1.9054 4.19127 3.21069 5.91569 4.25 5.61469.825-.23894 5.88433-2.49351 11.24295-5.01017l9.74295-4.57574 1.58079 3.05691c.86943 1.68129 1.36713 3.27055 1.106 3.53168-.85714.85715-28.84234 14.33936-29.76437 14.33936-.49499 0-6.03037-10.25335-12.30085-22.78522zm51.62831-6.96478c-5.28675-2.86167-11.71348-9.79287-15.27382-16.47276-7.31113-13.71708-2.88696-26.33619 11.49655-32.79174 6.89447-3.09435 15.46701-2.3891 19.64786 1.61641 1.5915 1.52475 2.89363 3.05522 2.89363 3.40104 0 .34582-1.74037 1.60691-3.86748 2.80242l-3.86749 2.17364-3.92508-2.14997c-4.94337-2.70776-8.38255-1.98644-13.1209 2.75191-3.24512 3.24512-3.43551 3.79527-3.0253 8.74182.31851 3.84088 1.45436 6.92579 4.16994 11.32538 7.74803 12.5528 17.42704 15.39859 25.10742 7.382 2.46191-2.56967 2.73833-3.47961 2.28334-7.51629-.48084-4.266-.28819-4.76771 2.70834-7.05327 4.37965-3.34053 5.25728-3.12694 6.68131 1.62603 2.48883 8.30699-2.3324 17.08359-12.6441 23.01739-6.01853 3.46333-14.09543 3.94381-19.26422 1.14599zm-423.89304-1.99905l-4.06643-2.61421 12.35849-18.35669 12.35848-18.35668-6.49664-4.07338c-3.57315-2.24036-6.49664-4.42327-6.49664-4.8509 0-.42764.81436-1.78322 1.80969-3.0124 1.74489-2.15485 1.92348-2.17603 4.98745-.59159 2.99584 1.54921 26.70701 16.9809 30.42307 19.79993 1.60772 1.21963 1.57293 1.48435-.53202 4.04803l-2.25224 2.74305-5.96798-3.96478c-3.28238-2.18064-6.28835-3.97751-6.67993-3.99306-.39157-.0156-5.91401 7.82631-12.27208 17.42636-6.35807 9.60005-11.90813 17.66971-12.33346 17.93258-.42533.26287-2.60322-.69845-4.83976-2.13626zm-31.96847-22.61375c-.61915-.7077-2.83671-2.69706-4.9279-4.42079-4.38286-3.61273-4.44938-2.64474 1.52672-22.21641 6.13146-20.08043 6.92214-25.08462 3.20852-20.30648-4.39636 5.65659-22.79796 25.29159-23.68161 25.26892-.55-.0141-2.27008-1.14286-3.82239-2.50835l-2.8224-2.4827 3.8224-4.32792c9.87883-11.18533 20.30401-22.65864 25.31505-27.86019l5.50734-5.71673 5.35845 4.75444 5.35845 4.75444-3.16558 10.46229c-5.92737 19.59001-7.03109 23.46078-7.68814 26.96228l-.65676 3.5 2.39679-2.56686c6.30431-6.75166 19.89414-21.67587 21.54452-23.65996l1.85227-2.22681 3.44231 2.85801 3.4423 2.858-2.9423 3.52995c-1.61827 1.94147-6.54231 7.51269-10.94231 12.3805-4.4 4.8678-10.67548 11.88278-13.94551 15.58886-3.27003 3.70607-6.19503 6.72119-6.5 6.70027-.30497-.0209-1.06107-.61706-1.68022-1.32476zm509.58755-14.03739c-8.42134-9.86816-22.26056-25.06094-23.1712-25.43748-.44916-.18572-3.47223 1.9629-6.71794 4.77471l-5.9013 5.11238-2.25382-3.16519c-2.13633-3.00021-2.16125-3.23287-.47809-4.46363.97665-.71414 3.41761-2.78842 5.42436-4.60952 2.00674-1.82109 8.25849-7.27349 13.89275-12.11643l10.24413-8.80536 2.46893 2.80536c2.34162 2.66069 2.37768 2.8827.69919 4.30535-.97336.825-3.66429 3.12224-5.97986 5.10497l-4.21011 3.60498 10.68961 11.89502c5.87928 6.54227 12.45681 13.84931 14.61674 16.23788l3.92714 4.34284-3.30234 3.40716c-1.81629 1.87393-3.56875 3.40715-3.89435 3.40715-.32561 0-3.04984-2.88008-6.05384-6.40019zM688.5 668.53268c-2.75-2.52212-10.27879-9.50911-16.73065-15.52665-6.45185-6.01754-12.75185-11.78252-14-12.81106L655.5 638.32489l3.68672-3.72593 3.68671-3.72594 6.81329 6.52314c3.7473 3.58772 12.10078 11.3796 18.56328 17.31529 6.4625 5.93568 11.75 11.08851 11.75 11.45074 0 .36223-1.4625 2.07555-3.25 3.80738l-3.25 3.14878-5-4.58567zm-586.3944-5.28839c-2.73202-3.28286-6.52402-7.67036-8.42666-9.75-1.90264-2.07965-4.5747-5.13117-5.93791-6.78117l-2.47857-3 14.93084-12.5c22.49432-18.83211 24.065-20.08513 24.79588-19.78109C126.17281 611.9244 146 635.03069 146 635.91769c0 1.16532-3.97584 4.48296-4.91661 4.10267-.41802-.16898-4.02411-4.02003-8.01352-8.55788l-7.25348-8.25064-4.8656 3.75064c-2.67608 2.06285-4.88477 4.14568-4.90819 4.62851-.0234.48283 3.07738 4.5829 6.89068 9.11126l6.93329 8.2334-3.03465 2.24361-3.03464 2.24361-3.1316-3.85487c-1.72238-2.12019-5.00483-5.86214-7.29434-8.31546l-4.16274-4.46058-5.6043 4.7879c-3.08237 2.63335-5.59318 5.09061-5.57959 5.46058.0136.36998 2.30158 3.14768 5.08442 6.17268 2.78284 3.025 6.19877 6.96072 7.59096 8.74604l2.53125 3.24605-2.36567 1.97068c-1.30112 1.08388-2.68676 1.98566-3.07921 2.00396-.39245.0183-2.94884-2.65271-5.68086-5.93556zm596.14957-19.98705C686.41488 637.65584 678 627.29855 678 618.32656c0-7.42376 7.92608-18.95236 15.50147-22.54711 1.81543-.86148 5.60811-1.56633 8.42818-1.56633 10.93665 0 25.75256 11.13684 29.50592 22.17905 1.75022 5.14907 1.76597 5.78122.25454 10.21702-3.76919 11.06196-13.71626 19.60479-22.82544 19.60314-2.75741-.0005-6.66428-1.08869-10.6095-2.95509zm21.2115-10.57745C722.54145 629.605 723 628.51593 723 624.28793c0-3.99465-.57788-5.56942-3.25-8.85657-4.0822-5.02178-11.26077-9.83086-16.90839-11.3273-5.60456-1.48504-10.92373.55504-13.81598 5.29888-3.80707 6.24436-1.98797 13.10282 5.09425 19.2065 6.50874 5.60944 10.67998 7.50936 16.59679 7.55948 4.66568.0395 5.58985-.32899 8.75-3.48913zm-648.89996-7.97265c-1.03845-1.92828-1.70328-3.68729-1.4774-3.9089.22588-.22161 8.73569-5.42883 18.91069-11.57159 21.54444-13.00663 23.25227-14.26621 16.39922-12.09497-1.59457.5052-5.59922 1.68669-8.89922 2.62553-3.3.93883-9.6 2.82336-14 4.18784-7.55604 2.3432-18.14716 5.15428-19.71395 5.23245-.91955.0459-5.79516-7.1072-5.75722-8.44651.03285-1.15981 5.47342-7.13176 21.23172-23.30543 6.04872-6.20815 10.72545-11.55978 10.39273-11.8925-.33272-.33272-1.33882.004-2.23577.74852-.89695.7444-2.47106 1.82103-3.49802 2.3925-1.02696.57147-8.97016 5.33968-17.65156 10.59601l-15.78435 9.55698-2.28188-3.4367c-1.25504-1.89018-2.15134-3.82253-1.9918-4.2941.15956-.47157 9.93439-6.66991 21.72185-13.77408 24.37069-14.68794 21.25887-14.29087 27.75988-3.54217l3.06455 5.06689-14.31632 14.91154c-7.87397 8.20135-14.16161 15.06625-13.97253 15.25533.18907.18908 4.99878-1.08824 10.68822-2.83849 12.8356-3.94862 27.01421-7.92268 28.34686-7.94522 1.23024-.0208 9.60726 12.99658 8.99801 13.98236-.91437 1.47949-41.51184 26.00069-43.04691 26.00069-.54929 0-1.84834-1.57769-2.8868-3.50598zM392 608.77214c0-9.48722-.39604-15.68575-1.02713-16.07579-.56492-.34914-5.40242.74593-10.75 2.4335-11.0246 3.47909-32.43564 8.16514-48.72287 10.66355-13.35962 2.04932-48.53791 2.33253-62 .49915-24.81928-3.38011-50.79152-10.24793-71-18.77448-17.84382-7.52883-47.24801-24.50818-48.22336-27.84643-.36924-1.26376 16.33906-8.41568 30.72336-13.151 23.33144-7.68072 46.9093-12.08097 69.75-13.01719 7.8375-.32125 14.24606-.85549 14.24125-1.18721-.005-.33172-2.81047-2.40312-6.2348-4.60312-10.93998-7.02852-20.92648-15.41643-33.78216-28.37451-15.4948-15.61822-22.81259-24.55038-32.46039-39.62145-16.83949-26.30539-28.36509-52.85907-35.92256-82.76152-3.83015-15.15466-5.18919-24.74252-3.50716-24.74252 5.43579 0 37.69505 7.89765 51.91582 12.70993 64.68571 21.88953 114.07534 59.13236 149.49391 112.72765 13.91826 21.06109 24.13958 41.31047 32.5893 64.56242 2.09863 5.775 3.87497 10.05 3.94742 9.5.0725-.55.20771-24.4.30056-53l.16881-52h18l.5 53 .5 53 2.39591-7c14.30108-41.78271 38.90317-81.33115 69.60409-111.89026 40.25451-40.06857 88.05711-65.20708 148.79441-78.24825 9.23693-1.9833 17.00584-3.39457 17.26426-3.13616.82216.82217-4.50898 25.8341-8.10233 38.01338-11.10921 37.65353-32.1853 75.14349-57.43692 102.16828-13.62336 14.58-30.40403 29.0664-41.34152 35.68927-3.09165 1.87206-5.63394 3.67514-5.64954 4.00686-.0156.33172 6.38414.87662 14.22164 1.2109 13.71794.58508 31.38379 3.00093 44.83829 6.13174 17.29052 4.02343 42.07111 12.54113 53.67348 18.4489l3.26177 1.66085-4.76177 3.55285c-8.71434 6.50192-24.61514 15.53519-37.26177 21.16846-24.17488 10.76837-46.06474 17.00682-74.68029 21.28332-12.70998 1.89947-48.99766 2.13426-61.74015.39948-13.70593-1.86594-42.05081-7.89701-51.71955-11.00461-5.05669-1.62526-9.79384-2.95501-10.52699-2.95501-1.05515 0-1.33302 3.33524-1.33302 16v16h-18v-15.44098zm54.5-62.10255c23.88116-4.2648 54.4707-16.03087 76.22197-29.31829 34.05472-20.80336 62.97849-52.61008 81.56296-89.69268 10.635-21.22059 21.31494-50.4455 18.43478-50.4455-.61939 0-5.64722 1.40689-11.17294 3.12642-72.65635 22.60964-122.16592 61.3935-158.76924 124.37358C446.60506 515.33353 433 545.37903 433 548.38992c0 .47372 1.0125.64207 2.25.37412s6.3-1.21046 11.25-2.09445zm-79.04423-.70647c-3.26658-10.82439-18.15721-40.48794-27.38897-54.56142-35.93214-54.77724-84.75926-90.80321-149.90225-110.60193-6.7845-2.06199-12.54537-3.53916-12.80193-3.2826-.62962.62962 4.04028 15.01873 8.67234 26.72167 14.70454 37.15108 34.69661 66.0224 63.03503 91.03133C277.08295 519.99188 309.15108 535.88779 351 545.79605c5.225 1.23709 11.21782 2.28701 13.31739 2.33316 3.50766.0771 3.76229-.0987 3.13838-2.16609zM745 598.77493c-21.0659-10.46076-41-20.80825-41-21.28248 0-.3172 1.46124-3.4533 3.2472-6.9691l3.2472-6.39237 5.0028.5071c11.20377 1.13564 37.97361 1.69919 37.0028.77897-.55-.52135-8.27697-4.71801-17.17105-9.32592l-16.17105-8.37801 2.10519-3.75c1.15786-2.0625 2.46612-3.75 2.90726-3.75 1.75221 0 44.82965 22.75451 44.82965 23.68007 0 .29699-1.42107 3.20617-3.15793 6.46486l-3.15793 5.92488-9.59207-.52809c-23.31624-1.28368-33.09172-1.52264-33.08697-.8088.003.42189 7.59635 4.61267 16.87452 9.31284l16.86942 8.54576-2.12452 4.10244-2.12452 4.10243-4.5-2.23458zM34.6594 561.46312c-.76559-1.5125-1.9475-4.46916-2.62646-6.57036l-1.23449-3.82036 7.29846-7.67964c4.01416-4.2238 10.6451-11.16714 14.73542-15.42964 4.09032-4.2625 6.80388-7.75 6.03014-7.75-.77374 0-8.81185 2.925-17.86247 6.5-9.05062 3.575-16.7198 6.5-17.04262 6.5-.6489 0-3.95738-6.58959-3.95738-7.88202 0-.44779 2.1375-1.52575 4.75-2.39547 2.6125-.86973 13.29098-4.98808 23.72996-9.15191 10.43898-4.16383 19.2244-7.5706 19.52316-7.5706.29875 0 1.59774 3.09753 2.88663 6.8834 2.28879 6.72285 2.2999 6.92812.47685 8.80066-7.4255 7.62703-25.9278 27.6851-26.19189 28.39423-.17891.4804 1.84609-.003 4.5-1.07398C52.32861 548.14634 59.9 545.1796 66.5 542.62467c6.6-2.55493 12.50344-4.84321 13.11876-5.08507.96024-.37743 4.98042 7.49107 4.17309 8.16779-.16052.13455-7.94185 3.27714-17.29185 6.98353-9.35 3.7064-18.35 7.30191-20 7.99002-10.50427 4.38069-10.03485 4.34968-11.8406.78218zm747.29568-38.16809c-1.3997-.87005-11.44896-7.8669-22.33167-15.54855-22.02268-15.5449-20.37076-13.33048-17.60541-23.6002l.98979-3.6758 9.2461-.67223c5.08536-.36973 15.32111-1.30817 22.74611-2.08543 21.46204-2.24668 22.00076-2.25957 21.99442-.52613-.003.83954-.45897 3.1587-1.01311 5.15369-.97798 3.52083-1.16849 3.6406-6.49327 4.08217-3.01715.25021-5.71609.68528-5.99764.96684-.55925.55925-5.44238 18.70292-5.46987 20.32373-.009.55 2.00724 2.27882 4.48126 3.84182 4.94115 3.12166 5.01772 3.3405 3.23303 9.24009-1.22755 4.05787-1.2498 4.07259-3.77974 2.5zm-8.89569-27.24177c1.04849-4.03708 1.91405-7.73929 1.92347-8.22715.0168-.86774-16.10801-.12482-22.79198 1.05009-3.29531.57926-3.264.61197 7.5 7.83577 5.94501 3.98974 10.95606 7.12523 11.13565 6.96775.17959-.15748 1.18438-3.58939 2.23286-7.62646zm-750.24007 8.58016C11.6615 501.1998 4.7186 484.03417 9.88612 472.65731c4.12913-9.09069 15.21976-14.77839 28.9075-14.82485 10.91638-.0371 15.2853 2.50023 20.45714 11.88066 1.78882 3.24447 2.20952 5.6346 2.2273 12.65408.02078 8.1949-.14228 8.85814-3.07312 12.5-4.00228 4.97323-9.27586 7.91407-17.60234 9.81606-8.10322 1.85098-11.84006 1.84063-17.98328-.0498zm15.56466-9.53041c6.19315-1.67032 8.79056-2.99076 12.36602-6.28649 2.87927-2.654 3.25-3.59895 3.25-8.28379 0-4.35796-.48369-5.82797-2.75-8.35774-3.55546-3.96878-9.51432-5.38409-16.91133-4.01668-15.37177 2.84163-21.68337 10.85324-16.58712 21.05481 3.09335 6.19219 11.06938 8.46909 20.63243 5.88989zm731.42946-29.77695c-10.68467-2.25335-18.92783-10.33301-20.16664-19.76665-1.92387-14.65058 5.14345-26.34629 15.92017-26.34629 3.31407 0 3.60837.21616 3.06332 2.25-.33164 1.2375-.60913 3.4875-.61664 5-.0115 2.32224-.44141 2.75495-2.76365 2.7818-5.17377.0598-8.25226 4.22327-8.24626 11.15246.008 9.48656 7.25455 14.88308 20.36085 15.16322 8.26255.17661 12.86885-1.87078 15.905-7.06939 1.80182-3.08513 2.9126-13.41974 1.58569-14.75304-.3546-.3563-3.13065-.90439-6.169-1.21798l-5.52428-.57016-.69454 4.63155c-.67502 4.5013-.79366 4.63154-4.2191 4.63154h-3.52455l.66593-6.75c.36627-3.7125.93737-8.25984 1.26913-10.10521l.60319-3.35521 7.61897.65115c4.19043.35814 10.02764 1.12197 12.97158 1.69741l5.3526 1.04626-.3526 11.7294c-.32191 10.70812-.61516 12.2427-3.36793 17.62449-4.07759 7.97189-9.29528 11.23831-18.98468 11.88496-3.85.25694-8.65895.1173-10.68656-.31031zM2.47149 448.91287c-1.19842-6.38816-.64539-7.03318 7.54063-8.79482 12.41349-2.67141 13.06281-3.3706 12.2287-13.16791l-.49063-5.76298-8.1251.57531c-4.4688.31642-9.09067.76906-10.27083 1.00586C.81675 423.2775 0 421.66142 0 416.13133v-3.91821l5.25-.0309c2.8875-.017 8.4-.4276 12.25-.91249 3.85-.48489 13.12408-1.19688 20.60906-1.58219l13.60907-.70056.71535 13.49866c.85514 16.13647-.01199 20.21476-5.02898 23.65246-4.75498 3.25817-12.08474 2.60209-15.80757-1.41492C30.16862 443.18203 29 441.53678 29 441.0671c0-.46969-.45-.85398-1-.85398s-1 .83026-1 1.84501c0 3.01913-3.03757 4.8709-11.5 7.01065-4.4 1.11256-8.98368 2.32012-10.18595 2.68347-1.8904.57131-2.27472.18742-2.84256-2.83938zM43.25 436.01544c1.32895-1.53694 1.75-3.81631 1.75-9.47366v-7.44976l-7.25.68976c-3.9875.37937-7.50965.83506-7.827 1.01265-.9886.55321.96058 13.57349 2.26778 15.14856 3.00006 3.61486 7.96806 3.6474 11.05922.0725zm341.42499-1.78702c-19.13287-2.42366-34.52505-6.91816-49.96496-14.58971-13.37331-6.64473-22.52854-12.92702-34.43818-23.63136-27.01404-24.28012-44.79823-60.3987-46.93504-95.32212l-.63096-10.3122 67.89708-.19987c37.34339-.10992 73.29707-.21944 79.89707-.24337 6.6-.0239 42.2625.0564 79.25.17851l67.25.22202-.0198 4.6914c-.044 10.43029-4.07591 30.79309-8.55652 43.21441-1.36772 3.79161-4.72209 11.30005-7.45418 16.68542-4.47375 8.81848-5.84649 11.29008-8.18494 14.73699-2.16073 3.18494-14.57747 18.42186-16.75016 20.55458-20.37312 19.99831-42.84603 33.21861-67.22466 39.54674-16.4831 4.27863-40.18759 6.23532-54.13474 4.46856zm367.98264-33.01679c-.3617-3.46054-.65763-11.17588-.65763-17.1452v-10.85331h3.36408c3.244 0 3.38677.1656 4 4.63957.34975 2.55177.63592 7.72677.63592 11.5v6.86043h13.64953l-.45321-11-.45322-11h8.18924l.28383 10.75.28383 10.75 7.25.0594 7.25.0594v-24.61873h3.36916c3.11639 0 3.41566.28134 3.98899 3.75.34091 2.0625.62479 9.9375.63084 17.5l.011 13.74993h-13.343c-7.33865 0-18.74271.29034-25.34237.6452l-11.99936.6452-.65764-6.29189zM16.75 394.46482L0 394.16476v-9.95164l11.75.004c6.4625.002 18.1625.29701 26 .65555l14.25.65155v9.6889l-9.25-.22412c-5.0875-.12327-16.7875-.35915-26-.52418zM41 372.60941c-4.675-2.51366-14.11789-7.53756-20.9842-11.16422-17.7785-9.39026-18.03445-9.55405-17.5529-11.23207.23676-.825.718-3.12596 1.06942-5.11325.71457-4.04087-1.21946-3.35104 28.96768-10.33211 6.05-1.39912 14.07389-3.2599 17.83086-4.13505 3.75698-.87516 6.97019-1.44008 7.14046-1.25539.17028.18469.08048 2.65824-.19954 5.49677-.49566 5.02449-.60516 5.17783-4.14045 5.79843-1.99723.3506-9.70633 1.92114-17.13133 3.4901-7.425 1.56896-15.24351 3.15307-17.37447 3.52024-3.54177.61026-3.71352.78003-2 1.97701 1.03096.72018 9.52996 5.16101 18.88667 9.86852l17.0122 8.5591-.3629 4.56281c-.20468 2.57363-.86393 4.55554-1.5122 4.54611-.63211-.00919-4.9743-2.07334-9.6493-4.587zm709.66008-12.04142c-.29769-1.02018-.81293-4.32987-1.14496-7.35487l-.60371-5.5 11.57454-8c20.22812-13.98112 22.62537-15.72201 22.21487-16.13252-.3199-.31989-18.99404 2.55269-34.84634 5.3603-2.42374.42927-2.70304.12808-3.3317-3.59292-.84398-4.99547-.20708-6.13486 3.42927-6.13486 1.55871 0 6.14466-.64849 10.19099-1.4411 8.93167-1.74955 32.99306-5.5589 35.11227-5.5589 1.60785 0 2.18361 1.6011 3.25796 9.05989l.6568 4.55989-6.83503 4.70968c-22.19204 15.29141-28.11217 19.56008-27.69962 19.97263.25345.25345 2.12667.0867 4.1627-.37056 6.39711-1.43669 33.21111-5.25563 33.67118-4.79556.24152.24151.73161 2.26823 1.08909 4.50382l.64997 4.06471-3.85418.66656c-2.1198.36661-8.12918 1.3171-13.35418 2.1122-13.88707 2.11324-27.04968 4.28331-30.64933 5.05304-2.55087.54546-3.25218.32096-3.69059-1.18143zm-693.7649-40.79302c-.279-.27901-7.68206-2.57562-16.45123-5.10358C12.98075 306.75436 11 306.08056 11 304.65532c0-.74965.76662-3.85261 1.7036-6.89548 1.58043-5.13249 1.96-5.57351 5.25-6.09987 1.95052-.31207 5.5714-.95137 8.0464-1.42068 2.475-.46931 10.125-1.6369 17-2.59463 6.875-.95774 12.85976-2.05389 13.29946-2.4359.43971-.38201-3.61029-1.92707-9-3.43346-11.21192-3.13366-26.64577-7.75537-27.11877-8.12078-.75864-.58609 2.2394-8.4414 3.22174-8.4414 1.0271 0 22.2335 6.1536 40.40273 11.72392 4.86934 1.49284 8.13442 3.00744 7.89244 3.66114-.227.61322-1.02424 3.52562-1.77165 6.472-.98563 3.88549-1.9669 5.58821-3.57216 6.19853-2.00484.76224-8.82625 1.90987-31.52334 5.30346-4.21826.63069-7.94302 1.42018-8.27725 1.75441-.33423.33424 2.21707 1.38071 5.66955 2.3255 3.45249.94479 10.55225 2.98586 15.77725 4.53572 5.225 1.54985 10.69094 3.08647 12.14654 3.4147 2.61172.58894 2.63002.6528 1.3911 4.85371-1.1181 3.7912-3.21724 5.74398-4.64246 4.31876zm691.44457-13.99675c-6.30722-1.97256-9.95528-5.07453-12.74742-10.83923-5.09092-10.51081-4.31514-20.12803 2.07633-25.73981 4.32438-3.79686 5.86516-3.7621 7.23351.16316 1.56336 4.48465 1.40261 5.45509-1.3615 8.2192-3.45426 3.45426-4.07725 6.93805-2.14532 11.99672 2.75932 7.22518 9.45519 9.18772 20.44593 5.99262C772.65085 292.42846 778 287.58007 778 280.92487c0-6.95321-4.04766-11.71175-9.96214-11.71175-3.50748 0-3.72111-.20327-5.25505-5l-1.59893-5h5.25802c6.56077 0 12.09677 3.6503 16.22858 10.70069 2.44801 4.17721 2.80582 5.82189 2.81686 12.94784.0118 7.64118-.18524 8.4085-3.08409 12.00715-3.67532 4.56256-12.41424 9.16281-20.84555 10.97328-7.35602 1.57957-7.97265 1.57659-13.21795-.0639zM72.25 268.18196c-1.2375-.49742-2.25-1.42933-2.25-2.07091 0-.64159 2.025-5.44135 4.5-10.66612 2.475-5.22478 4.5-9.63135 4.5-9.7924 0-.16104-2.55822-1.46399-5.68494-2.89545-6.81618-3.12055-6.56321-3.3052-11.75267 8.57877l-3.76534 8.62273-3.14853-1.52662c-1.73168-.83965-3.28725-1.63361-3.4568-1.76435-.16956-.13075 1.7459-4.63354 4.25656-10.00621 2.51066-5.37267 4.44939-9.87272 4.30828-10.00011-.1411-.12739-3.3225-1.61501-7.06975-3.30583l-6.81318-3.07421-5.06635 10.86876-5.06635 10.86876-2.8723-1.00129c-1.57977-.55071-3.0865-1.34785-3.34828-1.77143-.26178-.42357.78685-3.41676 2.33029-6.65153 1.54344-3.23477 4.54384-9.7064 6.66755-14.3814 2.12372-4.675 4.18843-8.89001 4.58825-9.36669.62134-.74079 43.93102 18.34587 46.19625 20.35879.44147.3923-1.60988 5.84206-4.55858 12.11059-2.9487 6.26852-5.952 12.85981-6.674 14.64731-1.37693 3.40888-2.13779 3.69895-5.82011 2.21884zm651.63095-6.3006l-2.53914-5.4263 7.30906-9.87097c4.01999-5.42903 7.31808-10.20847 7.3291-10.62097.011-.4125-5.76997-.75-12.84664-.75h-12.86668l-2.09364-5.03787-2.09365-5.03787 3.21032.52377c1.76568.28807 9.84388.98191 17.95156 1.54186l14.74125 1.01811 9.15624-4.52318c5.03594-2.48774 9.20238-4.40204 9.25876-4.254.0564.14805 1.12253 2.1714 2.36923 4.49635l2.26672 4.22716-6.26672 3.25185c-3.4467 1.78851-7.61672 3.84979-9.26672 4.58063-2.13251.94455-5.39162 4.9989-11.27084 14.02099-4.54896 6.98071-9.06694 13.72597-10.03995 14.98947l-1.76913 2.29727-2.53913-5.4263zm-629.3056-68.80652c-3.34816-.89543-7.2064-4.28737-9.17036-8.06206-4.57415-8.79137 2.9393-20.06886 13.47531-20.22608 4.08826-.061 5.58763.45782 8.77522 3.03649 7.3121 5.91528 8.10515 14.40689 1.97065 21.10078-3.55399 3.87808-9.71622 5.57756-15.05082 4.15087zm598.82516-3.28931c-6.75876-2.94228-10.148-14.73026-6.03848-21.00218 3.9651-6.05151 13.17884-8.41037 19.69307-5.04173 3.76236 1.94558 7.9449 8.52165 7.9449 12.49147 0 4.39119-3.55499 10.73796-7.29034 13.01552-3.71598 2.26575-9.81237 2.49451-14.30915.53692zm-53.51544-44.89886c-5.02731-1.87051-9.19143-5.00995-12.9654-9.77498-5.06276-6.39225-5.52482-14.13885-1.16808-19.58363l1.74841-2.18507 3.78393 3.21342c3.77013 3.20171 3.77819 3.2249 2.21281 6.3628-2.06999 4.14938-1.12717 7.5332 3.14376 11.28312 2.51417 2.20747 4.4337 3.01079 7.1943 3.01079 7.50595 0 8.0393-4.15523 1.84492-14.37336-7.37815-12.17085-8.21948-16.64329-4.0606-21.58583 3.61203-4.29266 7.42284-6.04081 13.16843-6.04081 4.11647 0 5.78151.64064 10.56187 4.06378 3.355 2.40247 6.48764 5.65667 7.6628 7.96017 2.56158 5.02111 2.55093 11.72044-.0235 14.80973l-1.94479 2.33369-3.63812-3.43236c-3.17496-2.9954-3.49294-3.70362-2.49774-5.56316 1.6506-3.08418.33018-6.88837-3.3707-9.71117-3.76835-2.87426-6.19735-3.08754-9.42405-.82747-3.19691 2.2392-2.45286 5.80483 3.3043 15.83484 5.64581 9.83603 6.43784 13.38545 3.93903 17.65249-3.92526 6.70289-11.87658 9.37885-19.47154 6.55301zM150 142.04802c-3.40262-.95733-17.67798-14.6285-26.78039-25.64694l-3.5622-4.31203 3.49924-3.49924 3.49923-3.49924 10.82461 12.10074c13.92958 15.57177 15.68115 17.02181 20.56144 17.02181 7.96011 0 14.11982-9.1029 10.57542-15.62852-.8578-1.57931-6.74763-8.4768-13.0885-15.32774s-11.49636-12.70094-11.45665-13c.0397-.29906 1.66559-1.87001 3.61307-3.49101l3.54089-2.94726 4.63692 4.96767C175.50425 109.82843 179 114.7017 179 121.04047c0 7.32051-9.84881 18.83492-18.14569 21.21443-3.99338 1.14529-6.19763 1.10328-10.85431-.20688zm448.46588-29.46053c-7.68123-5.33758-14.12499-9.82698-14.31946-9.97645-.19447-.14946 2.08829-3.56264 5.0728-7.58484 2.98451-4.0222 9.39494-12.93808 14.2454-19.81308s9.19023-12.91253 9.64393-13.41673c.91247-1.01404 26.80375 16.0749 27.65038 18.25.28543.7333-.40444 2.25669-1.53305 3.38529l-2.05201 2.05202-3.83694-2.33222c-2.11031-1.28271-6.18022-4.0436-9.04423-6.13528-2.86402-2.0917-5.56402-3.78983-6-3.77362-.43599.0162-2.46718 2.33957-4.51377 5.16305l-3.72107 5.1336 8.97107 6.07212c4.93409 3.33966 8.9561 6.52879 8.9378 7.08694-.0183.55816-.90521 2.06102-1.97091 3.33969l-1.93764 2.32486-8.86953-6.07486c-4.87824-3.34117-9.1291-6.07486-9.44635-6.07486-.60273 0-8.98686 12.21065-8.51341 12.39894.14911.0593 1.62111 1.04367 3.27111 2.18749 1.65 1.14382 5.8125 3.99433 9.25 6.33447 3.4375 2.34013 6.23999 4.77776 6.22776 5.41694-.0122.63919-.81508 2.19245-1.78411 3.45169l-1.76188 2.28952-13.96589-9.70468zM179.99946 95.41071c-7.4247-11.19963-13.62832-20.91437-13.78581-21.58831-.23533-1.007 4.37928-4.52141 10.4745-7.97722.65527-.37152 9.28869 4.23715 19.25 10.276C205.87217 82.14347 214 86.6346 214 86.10147c0-.53313-.85879-2.18861-1.90843-3.67884-1.04963-1.49023-5.56962-8.2703-10.04441-15.0668-7.55986-11.48224-8.00891-12.45194-6.34157-13.6941 2.75551-2.05282 6.25418-3.8325 6.6188-3.36678.37736.48199 12.50466 19.0389 21.45003 32.82236l6.10325 9.40419-2.18883 1.66132c-1.20386.91373-3.85419 2.66736-5.88961 3.89695-3.56607 2.15424-3.82087 2.17427-7 .5501-1.81458-.92704-4.49445-2.5256-5.95528-3.55233-1.46083-1.02675-5.28583-3.37662-8.5-5.22194s-8.87332-5.21978-12.57588-7.49881c-3.70256-2.27902-6.94984-4.14367-7.21617-4.14367-.26633 0 .78682 1.9125 2.34032 4.25 10.60591 15.95833 18.10657 27.7429 18.09953 28.43685-.005.44723-1.69228 1.72677-3.75054 2.84343l-3.74229 2.03028-13.49946-20.36297zm384.20937-3.95447l-4.29117-2.4384 2.16897-3.65236c6.71091-11.30062 18.91519-34.3404 18.52484-34.972-.25104-.4062-3.21633-2.05763-6.58954-3.66988-5.59959-2.67636-6.07863-3.15227-5.50676-5.47092 1.07652-4.36477 2.19791-4.68347 7.26638-2.06514 5.11708 2.64345 31.55719 17.08933 31.97279 17.46873.34173.31197-2.79474 6.55685-3.29316 6.55685-.21578 0-3.36425-1.63357-6.9966-3.63016-3.72269-2.04625-6.96573-3.24613-7.4327-2.75-.45565.48409-5.17932 8.75516-10.49706 18.38016s-9.97601 17.76584-10.35172 18.09075c-.3757.32492-2.61413-.50652-4.97427-1.84763zM233.77099 77.96312C225.85391 62.94148 216 43.44879 216 42.80912c0-1.1255 8.26383-4.72995 9.00335-3.92703C225.80731 39.75497 248 83.07363 248 83.77001c0 .41999-7.58204 4.4431-8.37356 4.4431-.24929 0-2.88424-4.6125-5.85545-10.25zM546 81.54454c-7.51947-2.56006-8-3.1131-8-9.207v-5.78176l-9.39118-3.67133c-5.16515-2.01923-10.05714-3.67133-10.8711-3.67133-.81395 0-2.55042 1.56795-3.85882 3.48434-3.07404 4.5025-4.07441 4.81195-9.15861 2.83306-5.10376-1.98651-5.43432-2.2333-4.18141-3.12177.53953-.3826 6.79149-7.22063 13.89325-15.19563 7.10176-7.975 14.63479-16.25761 16.74008-18.4058 2.10528-2.1482 3.82779-4.2857 3.82779-4.75 0-1.36664 3.15048-.97528 8.5 1.05589l5 1.89846.26582 27.60072c.1462 15.1804-.0788 27.5652-.5 27.52178-.4212-.0434-1.44082-.30875-2.26582-.58963zm-6.53631-35.40591c.39637-6.64097.48193-12.31323.19014-12.60502-.55102-.55102-2.80986 1.87933-11.52344 12.39838l-5.15148 6.21886 3.01124 1.55718c3.36304 1.73909 9.91127 4.20975 11.63136 4.38853.7381.0767 1.36788-4.01131 1.84218-11.95793zm-277.76608 9.46405C257.46393 45.00576 254 35.858 254 35.27433c0-1.45647-.31729-1.40056-8.21128 1.44696-3.82428 1.3795-7.32192 2.28033-7.77252 2.00184-.4506-.27848-1.25709-1.76228-1.79221-3.29733l-.97295-2.791 19.62448-7.55143L274.5 17.53193l1.65475 3.0902c.91012 1.6996 1.48644 3.36253 1.28072 3.6954-.20572.33286-3.20036 1.6203-6.65475 2.86096-3.4544 1.24067-6.62625 2.57403-7.04856 2.96303-.4223.389 2.65273 9.22674 6.83341 19.63944 4.18068 10.41269 7.6762 19.52944 7.76783 20.25944.0916.73-1.88197 2.11527-4.38579 3.07835l-4.55239 1.75106-7.69761-19.26713zm37.70999 4.86044c-.34677-1.5125-3.05535-12.31057-6.01905-23.99571C290.42485 24.78227 288 14.76977 288 14.2174c0-.55236.71507-1.0043 1.58904-1.0043.87398 0 8.09554-1.62843 16.04791-3.61875 7.95238-1.99031 14.70494-3.37269 15.00569-3.07194.30075.30075.61669 1.99316.70209 3.7609l.15527 3.21409-10.75 2.56964C304.8375 17.48035 300 19.1347 300 19.7434c0 2.88579 3.2157 11.46683 4.28874 11.44445.66619-.01389 5.48626-1.09531 10.71126-2.40315 5.225-1.30785 9.57237-2.30898 9.66082-2.22474.0884.08424.46104 1.76079.82799 3.72567l.66718 3.57252-10.328 2.47762c-11.58658 2.77956-10.98173 1.9359-8.69452 12.12735.74518 3.32044 1.56337 4.75 2.7186 4.75.90892 0 6.1423-1.11174 11.62972-2.47054 5.48742-1.3588 10.26437-2.1463 10.61543-1.75.35107.3963.89577 2.10408 1.21045 3.79508l.57214 3.07453-10.6899 2.34152c-5.87945 1.28783-12.43399 2.94179-14.56564 3.67546-6.16851 2.12308-8.48691 1.76689-9.21667-1.41605zM480.5 59.50005c-3.51638-.8458-3.68223-1.87296-1.59976-9.90785 4.77325-18.41689 8.33283-33.47382 7.97946-33.75297-.20883-.16497-3.49308-1.04921-7.29832-1.96499-3.80524-.91577-7.11057-1.85698-7.34516-2.09157-.76795-.76795.89819-6.56955 1.88668-6.56955.5302 0 9.17728 2.025 19.21574 4.5s19.06705 4.5 20.06354 4.5c1.24661 0 1.62112.4969 1.20054 1.5929-.33619.8761-.87095 2.62764-1.18837 3.89232-.57402 2.2871-.61018 2.2918-6.74573.8774-3.39274-.78213-6.87766-1.6391-7.74426-1.90438-1.29275-.39574-2.43018 2.97602-6.33517 18.7797-2.61774 10.59414-4.97652 20.04956-5.24174 21.01206-.47465 1.72252-2.63625 2.04986-6.84745 1.03693zM338.64434 29.08397c-1.49566-13.82103-2.51509-25.33344-2.26539-25.58314.79257-.79256 14.85282-2.3303 22.12105-2.41933 4.49337-.05504 8.53006.53246 11.27284 1.64066 13.7405 5.5517 18.8235 28.03276 9.02577 39.9191-4.60402 5.58548-10.77362 8.17345-23.8037 9.98495-6.27802.8728-11.91332 1.5869-12.52288 1.5869-.70952 0-2.08678-9.0418-3.82769-25.12914zm27.48981 13.0607C370.23054 40.05487 374 33.55388 374 28.5789c0-5.14166-2.82872-12.82932-5.72649-15.563-3.62946-3.42392-9.4418-4.918-16.09176-4.13642l-5.36433.63047.56408 4.10159c.31024 2.25587 1.02967 8.82659 1.59874 14.60159s1.28574 12.01067 1.59261 13.85705l.55794 3.35706 5.67416-.70894c3.12078-.38992 7.31893-1.54804 9.3292-2.57361zm65.53332 9.63459c-8.60603-2.3131-12.62502-6.71904-12.65273-13.87094L419 34.10354l4.75.3048c4.22308.27098 4.78307.58211 5.0481 2.80479.58103 4.8727 3.46959 7.27515 9.32477 7.75548 4.42745.3632 5.86282.0577 8.12713-1.72977 3.14873-2.48563 3.58004-6.0173 1-8.18826-.9625-.8099-5.575-3.16076-10.25-5.22416-4.675-2.0634-9.49944-4.68668-10.72098-5.82951-6.72757-6.29412-4.33862-17.59888 4.7076-22.27686 6.53644-3.38013 19.60715-1.55852 25.41654 3.5422 3.14931 2.76512 5.47576 8.71974 4.20812 10.77082-.26715.43226-2.64634.5371-5.2871.23299-3.77366-.43458-4.87942-.98102-5.16601-2.55293-1.13785-6.24087-10.872-8.64331-15.65225-3.86307-2.04704 2.04704-1.89589 5.70017.31877 7.70441 1.00358.90823 5.38262 3.19845 9.73119 5.08938 4.34858 1.89093 9.35772 4.596 11.13143 6.01128 5.7629 4.59833 5.64435 13.19724-.26101 18.93246-5.60405 5.44258-13.75467 6.88057-23.75883 4.19168z"/><path d="M392 608.77214c0-9.48722-.39604-15.68575-1.02713-16.07579-.56492-.34914-5.40242.74593-10.75 2.4335-11.0246 3.47909-32.43564 8.16514-48.72287 10.66355-13.35962 2.04932-48.53791 2.33253-62 .49915-24.81928-3.38011-50.79152-10.24793-71-18.77448-17.84382-7.52883-47.24801-24.50818-48.22336-27.84643-.36924-1.26376 16.33906-8.41568 30.72336-13.151 23.33144-7.68072 46.9093-12.08097 69.75-13.01719 7.8375-.32125 14.24606-.85549 14.24125-1.18721-.005-.33172-2.81047-2.40312-6.2348-4.60312-10.93998-7.02852-20.92648-15.41643-33.78216-28.37451-15.4948-15.61822-22.81259-24.55038-32.46039-39.62145-16.83949-26.30539-28.36509-52.85907-35.92256-82.76152-3.83015-15.15466-5.18919-24.74252-3.50716-24.74252 5.43579 0 37.69505 7.89765 51.91582 12.70993 64.68571 21.88953 114.07534 59.13236 149.49391 112.72765 13.91826 21.06109 24.13958 41.31047 32.5893 64.56242 2.09863 5.775 3.87497 10.05 3.94742 9.5.0725-.55.20771-24.4.30056-53l.16881-52h18l.5 53 .5 53 2.39591-7c14.30108-41.78271 38.90317-81.33115 69.60409-111.89026 40.25451-40.06857 88.05711-65.20708 148.79441-78.24825 9.23693-1.9833 17.00584-3.39457 17.26426-3.13616.82216.82217-4.50898 25.8341-8.10233 38.01338-11.10921 37.65353-32.1853 75.14349-57.43692 102.16828-13.62336 14.58-30.40403 29.0664-41.34152 35.68927-3.09165 1.87206-5.63394 3.67514-5.64954 4.00686-.0156.33172 6.38414.87662 14.22164 1.2109 13.71794.58508 31.38379 3.00093 44.83829 6.13174 17.29052 4.02343 42.07111 12.54113 53.67348 18.4489l3.26177 1.66085-4.76177 3.55285c-8.71434 6.50192-24.61514 15.53519-37.26177 21.16846-24.17488 10.76837-46.06474 17.00682-74.68029 21.28332-12.70998 1.89947-48.99766 2.13426-61.74015.39948-13.70593-1.86594-42.05081-7.89701-51.71955-11.00461-5.05669-1.62526-9.79384-2.95501-10.52699-2.95501-1.05515 0-1.33302 3.33524-1.33302 16v16h-18v-15.44098zm54.5-62.10255c23.88116-4.2648 54.4707-16.03087 76.22197-29.31829 34.05472-20.80336 62.97849-52.61008 81.56296-89.69268 10.635-21.22059 21.31494-50.4455 18.43478-50.4455-.61939 0-5.64722 1.40689-11.17294 3.12642-72.65635 22.60964-122.16592 61.3935-158.76924 124.37358C446.60506 515.33353 433 545.37903 433 548.38992c0 .47372 1.0125.64207 2.25.37412s6.3-1.21046 11.25-2.09445zm-79.04423-.70647c-3.26658-10.82439-18.15721-40.48794-27.38897-54.56142-35.93214-54.77724-84.75926-90.80321-149.90225-110.60193-6.7845-2.06199-12.54537-3.53916-12.80193-3.2826-.62962.62962 4.04028 15.01873 8.67234 26.72167 14.70454 37.15108 34.69661 66.0224 63.03503 91.03133C277.08295 519.99188 309.15108 535.88779 351 545.79605c5.225 1.23709 11.21782 2.28701 13.31739 2.33316 3.50766.0771 3.76229-.0987 3.13838-2.16609zM285.5 338.3262c-4.4308-.82873-7.65786-2.66264-15.15613-8.61308C265.5019 325.87065 259 317.72854 259 315.50757c0-1.63469-2.71628-6.50107-4.10927-7.36198-.76625-.47357-1.4112-4.01772-1.68685-9.26968l-.44629-8.50297 67.8712-.19982c37.32917-.1099 73.27121-.2194 79.87121-.24333 6.6-.0239 42.2625.0564 79.25.17851l67.25.22202v3.79471c0 6.82061-1.28192 16.24997-2.04199 15.02015-.51907-.83987-1.08746-.55869-1.88571.93284-.62847 1.17431-.89269 2.1351-.58716 2.1351.49951 0-2.39413 5.7271-4.99474 9.8856-1.57863 2.52429-6.77193 7.31844-11.59203 10.70107-8.50309 5.96726-20.91742 8.10352-28.55261 4.91333-1.97451-.825-4.57395-1.5-5.77654-1.5-2.17509 0-16.26706-12.63549-15.23878-13.66377.27659-.27659-.30336-1.30915-1.28877-2.29456-.98542-.98542-2.04465-2.41042-2.35385-3.16667-.43408-1.06169-.91051-.91928-2.09089.625-.8408 1.1-1.89375 2.45-2.3399 3-.44615.55-1.84214 2.4625-3.1022 4.25-1.26006 1.7875-2.93538 3.25-3.72292 3.25-.78755 0-1.43191.59151-1.43191 1.31448 0 1.49037-6.30302 5.09776-13 7.44026-2.6738.93526-7.74658 1.5664-12.5 1.55523-6.91646-.0163-8.81266-.43163-14-3.06684-6.39836-3.2504-14.90854-11.15866-19.21399-17.855-1.17589-1.82888-1.27003-1.81964-3 .29431-.9823 1.20035-3.0908 4.06586-4.68555 6.36781-1.65073 2.38277-6.03075 6.22944-10.16978 8.93143-6.61878 4.32079-7.978 4.80781-15.16848 5.43505-6.66212.58114-8.98311.34254-14.83021-1.52455-3.8126-1.21743-8.28199-3.21067-9.93199-4.42943-4.73305-3.49601-10.5-9.22286-10.5-10.42698 0-.6042-.65787-1.35099-1.46193-1.65954-.80407-.30854-1.73439-1.41942-2.06739-2.46861-.87542-2.7582-1.57216-2.38949-5.4296 2.8733-5.67529 7.74293-9.39382 11.07723-15.83161 14.19574-6.61439 3.20405-15.66487 4.45402-22.70947 3.13642z" style="marker:none" fill="#509e2f" fill-opacity="1" fill-rule="nonzero" stroke="none" stroke-width="1" color="#000" display="inline" overflow="visible" visibility="visible"/><path d="M75.64744 836.21813h-6.3232c0 3.29933 1.18139 5.8886 3.5503 7.77393 2.3689 1.89145 5.61314 2.83411 9.74495 2.83411 4.0461 0 7.18016-.96102 9.39604-2.87696 2.21587-1.90981 3.3238-4.32157 3.3238-7.2169 0-2.82799-.94266-4.98877-2.84023-6.47622-1.21812-.96103-3.02387-1.7323-5.42338-2.30158l-5.46623-1.31605c-2.1057-.50194-3.48297-.93655-4.13181-1.30994-1.00388-.56315-1.50582-1.40788-1.50582-2.5403 0-1.23648.50806-2.19751 1.5303-2.88308 1.01612-.6917 2.38115-1.03449 4.08896-1.03449 1.53642 0 2.81576.26321 3.85024.79576 1.54866.80188 2.38115 2.16078 2.49745 4.06448h6.36605c-.11019-3.36666-1.34667-5.93757-3.70945-7.71272-2.36278-1.76902-5.20914-2.6566-8.55132-2.6566-4.00326 0-7.03938.93655-9.10834 2.81576-2.06285 1.88532-3.09733 4.24199-3.09733 7.08222 0 3.1157 1.07121 5.40502 3.2075 6.86799 1.26098.87533 3.54418 1.68333 6.84351 2.43012l3.35442.7529c1.97102.42849 3.4095.9243 4.32769 1.48746.91818.56927 1.37727 1.38339 1.37727 2.43011 0 1.79351-.9243 3.01775-2.7729 3.67884-.9794.34279-2.24649.51418-3.81352.51418-2.60763 0-4.4501-.64884-5.52744-1.95878-.58763-.71618-.98551-1.79963-1.18751-3.24424zm6.4395-22.8994zm15.25403 13.81554h3.27484v14.43991c0 1.46297.34279 2.54642 1.02836 3.25036 1.0651 1.10182 3.04224 1.60376 5.94369 1.50582l2.90145-.11019v-4.58477c-.202.01836-.404.0306-.61212.03672-.20812.00612-.404.01225-.59376.01225-1.24872 0-1.98939-.12243-2.23424-.36116-.24484-.2326-.36727-.83248-.36727-1.7935v-12.39544h3.80739v-4.37053h-3.80739v-6.53745h-6.0661v6.53745h-3.27485zm31.74454 12.63416c-.96102 1.27321-2.3383 1.91594-4.1318 1.91594-1.79352 0-3.1769-.64273-4.14406-1.91594-.96715-1.27933-1.45072-3.0912-1.45072-5.44787 0-2.35054.48357-4.16241 1.45072-5.43562.96715-1.2671 2.35054-1.9037 4.14405-1.9037 1.79352 0 3.17079.6366 4.13181 1.9037.96103 1.2732 1.43849 3.08508 1.43849 5.43562 0 2.35666-.47746 4.16854-1.43849 5.44787zm4.90309 3.38502c1.98326-2.44236 2.96878-5.38665 2.96878-8.83289 0-3.38502-.98552-6.31708-2.96878-8.80228-1.97715-2.47909-4.98266-3.7217-9.01653-3.7217-4.02775 0-7.03326 1.24261-9.01653 3.7217-1.97715 2.4852-2.96878 5.41726-2.96878 8.80228 0 3.44624.99163 6.39053 2.96878 8.8329 1.98327 2.44847 4.98878 3.67271 9.01653 3.67271 4.03387 0 7.03938-1.22424 9.01653-3.67272zm-9.01653-21.22832zm29.40624.07346c-.07957-.00612-.1714-.00612-.2877-.00612-1.83635 0-3.32993.47745-4.4746 1.43848-.70393.57539-1.5303 1.6466-2.47908 3.2075v-4.08896h-5.85186v23.45644h6.17629v-11.20791c0-1.88533.23872-3.27485.71006-4.18078.84472-1.60376 2.50357-2.40564 4.97041-2.40564.18976 0 .4346.00613.73454.01837.29994.01836.64273.04285 1.02837.0857v-6.28036c-.26934-.01836-.44685-.02448-.52643-.03672zm33.39115.6366c-1.00388-.39788-2.02612-.59988-3.05448-.59988-1.55478 0-2.95654.3183-4.2175.96715-1.19364.64273-2.1914 1.65885-2.99327 3.03612-.4591-1.15079-1.13243-2.08733-2.02612-2.82187-1.10182-.78964-2.55254-1.1814-4.34605-1.1814-1.89145 0-3.434.4591-4.62763 1.37727-.67333.51418-1.38951 1.3834-2.14854 2.60151v-3.42175h-5.96205v23.4136h6.21914v-14.1155c0-1.27933.16527-2.24035.49582-2.88308.59987-1.13242 1.78127-1.7017 3.5258-1.7017 1.51194 0 2.52194.56928 3.03612 1.7017.2877.63048.42849 1.64048.42849 3.03612v13.96245h6.17629v-13.96245c0-1.05285.16527-1.94655.49581-2.69333.64885-1.40788 1.818-2.1057 3.50745-2.1057 1.46297 0 2.46685.5448 3.01775 1.63437.28158.56927.42849 1.30381.42849 2.19138v14.93573h6.28035l.04285-14.7827c0-1.52417-.06734-2.67496-.21424-3.4646-.22649-1.19363-.67334-2.1975-1.33443-3.01162-.81412-1.00388-1.72617-1.70782-2.73005-2.11182zm20.98347-.0857l-3.3789 16.82718-3.66048-16.82718h-6.5864l6.5864 23.45644h6.37217l3.7217-17.08427 3.67883 17.08427h6.30484l6.80065-23.45644h-6.39053l-3.66048 16.89452-3.56866-16.89452zm36.15181 12.05265v2.2832c-.04285 2.0506-.62436 3.4646-1.7323 4.23588-1.11406.77739-2.32606 1.16302-3.64824 1.16302-.83248 0-1.53642-.2326-2.11793-.69781s-.87533-1.22424-.87533-2.27097c0-1.17527.47745-2.04448 1.42012-2.60763.56315-.33054 1.48745-.606 2.77902-.8386l1.37727-.2571c.68558-.12854 1.23036-.26933 1.62212-.41624.39788-.15303.78963-.3489 1.17527-.59375zm-3.72169-2.86472l-2.08733.25709c-2.3689.30606-4.16242.808-5.38053 1.51193-2.22812 1.29158-3.33606 3.3789-3.33606 6.26199 0 2.222.6917 3.94205 2.07509 5.15405 1.38339 1.212 3.14017 1.818 5.26423 1.818 1.65885 0 3.15242-.37952 4.4746-1.14467 1.10181-.64272 2.0812-1.42624 2.92593-2.34442.04285.53255.09794 1.00388.1714 1.42012.07345.41624.202.86309.38563 1.33442h6.6721V845.1c-.39787-.18364-.70393-.42237-.8998-.71006-.202-.28158-.32443-.82637-.36728-1.63436-.0306-1.05897-.04285-1.96491-.04285-2.7117v-10.75494c0-2.828-.99775-4.75006-2.99326-5.7723-1.99552-1.01612-4.2726-1.52417-6.8435-1.52417-3.94206 0-6.7272 1.02836-8.34932 3.09732-1.01612 1.32218-1.59152 3.00551-1.72006 5.05611h5.9192c.14079-.90593.42848-1.62211.85697-2.14854.606-.7223 1.62824-1.07733 3.07896-1.07733 1.29157 0 2.27097.18364 2.93818.54479.6672.36727.99775 1.03448.99775 1.9955 0 .78964-.4346 1.36504-1.30993 1.73843-.4897.22036-1.2977.39788-2.43012.53867zm.3183-9.81229zm12.56683 5.20914h3.27484v14.43991c0 1.46297.34279 2.54642 1.03448 3.25036 1.05897 1.10182 3.03612 1.60376 5.93756 1.50582l2.90757-.11019v-4.58477c-.202.01836-.41012.0306-.61824.03672-.20812.00612-.404.01225-.58763.01225-1.24873 0-1.99551-.12243-2.24036-.36116-.24485-.2326-.36727-.83248-.36727-1.7935v-12.39544h3.8135v-4.37053h-3.8135v-6.53745h-6.06611v6.53745h-3.27484zm23.0402 1.1814c.7835-.88758 1.88532-1.33443 3.30544-1.33443 1.30382 0 2.39951.42237 3.28096 1.26097.88146.8386 1.37115 2.06897 1.47521 3.69108h-9.53683c.202-1.52417.6917-2.72393 1.47521-3.61763zm8.5758-5.29484c-1.56703-.72843-3.32382-1.0957-5.27036-1.0957-3.28708 0-5.96205 1.08345-8.01877 3.25036-2.05672 2.1669-3.08509 5.2826-3.08509 9.34095 0 4.33381 1.13855 7.46174 3.42175 9.3838 2.2771 1.92206 4.9092 2.88309 7.89635 2.88309 3.61151 0 6.42726-1.14467 8.43502-3.42176 1.29157-1.43848 2.01387-2.85247 2.17302-4.24199h-6.26199c-.33054.6917-.71005 1.23036-1.13854 1.616-.78963.71618-1.818 1.07733-3.07896 1.07733-1.19364 0-2.20976-.29382-3.05448-.88757-1.39563-.94267-2.13018-2.5954-2.21588-4.94593h16.0498c.0306-2.02612-.03674-3.57478-.18977-4.65211-.27545-1.83636-.8692-3.44624-1.78739-4.84187-1.02224-1.57315-2.31381-2.73006-3.87472-3.4646zm-4.84188-1.0957zm27.85759.07346c-.07958-.00612-.17752-.00612-.29382-.00612-1.83636 0-3.32381.47745-4.4746 1.43848-.70394.57539-1.52418 1.6466-2.47296 3.2075v-4.08896h-5.85187v23.45644h6.17629v-11.20791c0-1.88533.2326-3.27485.71006-4.18078.84472-1.60376 2.50357-2.40564 4.97041-2.40564.18364 0 .42849.00613.72843.01837.29994.01836.64884.04285 1.03448.0857v-6.28036c-.27545-.01836-.44685-.02448-.52642-.03672zm2.27096 8.81452v5.80902h12.35258v-5.80902zm38.04326-16.52724l-5.72332 24.9439-5.76617-24.9439h-9.6409v31.72006h6.1763v-21.4548c0-.61824-.00612-1.48133-.01837-2.5954-.01836-1.10793-.02448-1.9649-.02448-2.5709l5.96205 26.6211h6.43338l6.0049-26.6211c0 .606-.00612 1.46297-.02449 2.5709-.01224 1.11407-.01836 1.97716-.01836 2.5954v21.4548h6.17629v-31.72006zm28.12691 20.31627v2.2832c-.04285 2.0506-.61824 3.4646-1.7323 4.23588-1.10793.77739-2.32605 1.16302-3.64823 1.16302-.83248 0-1.53642-.2326-2.11794-.69781-.58151-.46521-.8692-1.22424-.8692-2.27097 0-1.17527.47133-2.04448 1.42011-2.60763.55703-.33054 1.48133-.606 2.7729-.8386l1.37727-.2571c.6917-.12854 1.23037-.26933 1.62824-.41624.39176-.15303.78352-.3489 1.16915-.59375zm-3.72169-2.86472l-2.08733.25709c-2.3689.30606-4.16241.808-5.38053 1.51193-2.222 1.29158-3.33605 3.3789-3.33605 6.26199 0 2.222.6917 3.94205 2.0812 5.15405 1.3834 1.212 3.13406 1.818 5.25811 1.818 1.66497 0 3.15854-.37952 4.4746-1.14467 1.10794-.64272 2.08121-1.42624 2.92594-2.34442.04896.53255.10406 1.00388.17751 1.42012.06733.41624.19588.86309.38564 1.33442h6.6721V845.1c-.404-.18364-.70393-.42237-.90593-.71006-.202-.28158-.32443-.82637-.36728-1.63436-.02448-1.05897-.04284-1.96491-.04284-2.7117v-10.75494c0-2.828-.99776-4.75006-2.98715-5.7723-1.99551-1.01612-4.27872-1.52417-6.8435-1.52417-3.94818 0-6.73332 1.02836-8.34932 3.09732-1.02224 1.32218-1.59763 3.00551-1.72618 5.05611h5.9192c.14691-.90593.42849-1.62211.8631-2.14854.59987-.7223 1.62823-1.07733 3.07284-1.07733 1.29157 0 2.27096.18364 2.93817.54479.66721.36727 1.00388 1.03448 1.00388 1.9955 0 .78964-.44073 1.36504-1.31606 1.73843-.48357.22036-1.2977.39788-2.43012.53867zm.32443-9.81229zm33.92369 1.97103c-1.54254-1.27321-3.52581-1.9037-5.9498-1.9037-1.9343 0-3.53806.47134-4.79903 1.42012-.70394.52643-1.45072 1.39564-2.23424 2.60151v-3.42175h-5.9192v23.4136h6.10896v-12.69538c0-1.45072.202-2.63823.606-3.57478.77127-1.7629 2.1975-2.64436 4.27872-2.64436 1.69557 0 2.84023.59988 3.44623 1.80576.33055.66109.49582 1.60987.49582 2.84024v14.26851h6.28035v-15.7927c0-2.94429-.77127-5.04998-2.31381-6.31707zm-8.20853-1.97103zm29.11855 12.677v2.28321c-.04285 2.0506-.62437 3.4646-1.7323 4.23588-1.11406.77739-2.33218 1.16302-3.64824 1.16302-.83248 0-1.54254-.2326-2.12405-.69781-.5754-.46521-.86921-1.22424-.86921-2.27097 0-1.17527.47133-2.04448 1.42011-2.60763.56315-.33054 1.48746-.606 2.77903-.8386l1.37727-.2571c.68557-.12854 1.23036-.26933 1.62212-.41624.39787-.15303.78351-.3489 1.17527-.59375zm-3.72781-2.86471l-2.08733.25709c-2.36279.30606-4.1563.808-5.37442 1.51193-2.22811 1.29158-3.33605 3.3789-3.33605 6.26199 0 2.222.6917 3.94205 2.07509 5.15405 1.38339 1.212 3.14017 1.818 5.2581 1.818 1.66497 0 3.15855-.37952 4.48073-1.14467 1.10181-.64272 2.0812-1.42624 2.92593-2.34442.04285.53255.09794 1.00388.1714 1.42012.07345.41624.202.86309.38563 1.33442h6.6721V845.1c-.404-.18364-.70393-.42237-.90593-.71006-.19588-.28158-.3183-.82637-.36115-1.63436-.0306-1.05897-.04285-1.96491-.04285-2.7117v-10.75494c0-2.828-.99776-4.75006-2.99327-5.7723-1.9955-1.01612-4.2726-1.52417-6.8435-1.52417-3.94817 0-6.7272 1.02836-8.34932 3.09732-1.01612 1.32218-1.5915 3.00551-1.72005 5.05611h5.91308c.1469-.90593.4346-1.62211.86309-2.14854.606-.7223 1.62823-1.07733 3.07896-1.07733 1.29157 0 2.27096.18364 2.93817.54479.66722.36727.99776 1.03448.99776 1.9955 0 .78964-.4346 1.36504-1.30994 1.73843-.4897.22036-1.2977.39788-2.43623.53867zm.32442-9.81229zm28.69006 17.42094c-.99163 1.08345-2.20363 1.62212-3.64211 1.62212-2.14854 0-3.64211-.98552-4.4746-2.96879-.45909-1.05896-.68557-2.27096-.68557-3.63599 0-1.57927.21424-2.90145.64272-3.97878.82025-2.02612 2.30158-3.03611 4.45624-3.03611 1.57927 0 2.83411.5815 3.77678 1.74454.93654 1.16303 1.40787 2.85248 1.40787 5.0806 0 2.36278-.49581 4.08895-1.48133 5.1724zm-2.08733-16.81494c-.87533-.36115-1.90369-.53866-3.07896-.53866-3.18914 0-5.64375 1.1875-7.38217 3.56253-1.73842 2.3689-2.6015 5.30096-2.6015 8.79005 0 3.6115.89981 6.47623 2.69944 8.59416 1.79964 2.11794 4.20527 3.1769 7.2169 3.1769 1.95266 0 3.53805-.4652 4.75617-1.40175.67333-.50194 1.30382-1.25485 1.89757-2.25872v1.50581c0 2.24036-.24485 3.83187-.73454 4.78066-.74679 1.4752-2.222 2.21587-4.43175 2.21587-1.56703 0-2.67496-.28157-3.33605-.8386-.38564-.3183-.66722-.83248-.8386-1.54866h-6.67212c.202 2.3383 1.24873 4.09508 3.14018 5.27035 1.89757 1.17527 4.33993 1.7629 7.33932 1.7629 4.9643 0 8.3187-1.32217 10.06937-3.96041 1.02224-1.53642 1.5303-3.81351 1.5303-6.8435v-22.25057h-5.96205v3.3789c-.91818-1.6466-2.12405-2.78514-3.6115-3.39726zm-1.12017-.606zm22.36686 6.39053c.78351-.88757 1.88533-1.33442 3.30545-1.33442 1.30381 0 2.3995.42237 3.28096 1.26097.88145.8386 1.37115 2.06897 1.47521 3.69108h-9.53683c.202-1.52417.6917-2.72393 1.47521-3.61763zm8.5758-5.29483c-1.5609-.72843-3.31769-1.0957-5.27035-1.0957-3.28709 0-5.95593 1.08345-8.01877 3.25036-2.05673 2.1669-3.08509 5.2826-3.08509 9.34095 0 4.33381 1.13854 7.46174 3.42175 9.3838 2.27709 1.92206 4.9092 2.88309 7.89635 2.88309 3.61763 0 6.42726-1.14467 8.43501-3.42176 1.29158-1.43848 2.01388-2.85247 2.17303-4.24199h-6.26199c-.33054.6917-.71006 1.23036-1.13854 1.616-.78964.71618-1.818 1.07733-3.07896 1.07733-1.18752 0-2.20976-.29382-3.05448-.88757-1.38952-.94267-2.13018-2.5954-2.21588-4.94593h16.04979c.0306-2.02612-.0306-3.57478-.18976-4.65211-.27545-1.83636-.8692-3.44624-1.78739-4.84187-1.01612-1.57315-2.3077-2.73006-3.87472-3.4646zm-4.84187-1.0957zm44.09713.71006c-1.00388-.39788-2.02612-.59988-3.0606-.59988-1.54867 0-2.95042.3183-4.21751.96715-1.18751.64273-2.18527 1.65885-2.98715 3.03612-.45909-1.15079-1.13242-2.08733-2.02611-2.82187-1.10182-.78964-2.55254-1.1814-4.34605-1.1814-1.89146 0-3.434.4591-4.62763 1.37727-.67333.51418-1.38951 1.3834-2.14854 2.60151v-3.42175h-5.96205v23.4136h6.21914v-14.1155c0-1.27933.16527-2.24035.49581-2.88308.59988-1.13242 1.77515-1.7017 3.52582-1.7017 1.50581 0 2.52193.56928 3.03611 1.7017.2877.63048.42848 1.64048.42848 3.03612v13.96245h6.1763v-13.96245c0-1.05285.16527-1.94655.49581-2.69333.64885-1.40788 1.818-2.1057 3.50745-2.1057 1.46297 0 2.46684.5448 3.01163 1.63437.2877.56927.4346 1.30381.4346 2.19138v14.93573h6.28036l.04285-14.7827c0-1.52417-.06734-2.67496-.21425-3.4646-.22648-1.19363-.67333-2.1975-1.33442-3.01162-.81412-1.00388-1.72618-1.70782-2.73005-2.11182zm15.86615 5.68047c.78351-.88757 1.88533-1.33442 3.30545-1.33442 1.30381 0 2.3995.42237 3.28096 1.26097.88145.8386 1.37727 2.06897 1.4752 3.69108h-9.5307c.19588-1.52417.6917-2.72393 1.46909-3.61763zm8.5758-5.29483c-1.5609-.72843-3.3177-1.0957-5.27035-1.0957-3.28709 0-5.95593 1.08345-8.01266 3.25036-2.06284 2.1669-3.0912 5.2826-3.0912 9.34095 0 4.33381 1.13854 7.46174 3.42175 9.3838 2.2832 1.92206 4.91532 2.88309 7.89635 2.88309 3.61763 0 6.42726-1.14467 8.43501-3.42176 1.29157-1.43848 2.02-2.85247 2.17303-4.24199h-6.262c-.32441.6917-.71005 1.23036-1.13853 1.616-.78964.71618-1.81188 1.07733-3.07897 1.07733-1.18751 0-2.20975-.29382-3.05448-.88757-1.3895-.94267-2.13017-2.5954-2.21587-4.94593h16.0559c.0245-2.02612-.03672-3.57478-.19587-4.65211-.27546-1.83636-.86921-3.44624-1.7874-4.84187-1.01611-1.57315-2.30768-2.73006-3.87471-3.4646zm-4.84187-1.0957zm33.77678 1.97103c-1.54254-1.27321-3.52581-1.9037-5.9498-1.9037-1.9343 0-3.53806.47134-4.79903 1.42012-.70393.52643-1.45072 1.39564-2.23423 2.60151v-3.42175h-5.9192v23.4136h6.10895v-12.69538c0-1.45072.202-2.63823.606-3.57478.77127-1.7629 2.19751-2.64436 4.27872-2.64436 1.69557 0 2.84024.59988 3.44624 1.80576.33054.66109.49581 1.60987.49581 2.84024v14.26851h6.28035v-15.7927c0-2.94429-.77127-5.04998-2.3138-6.31707zm-8.20853-1.97103zm13.7727 5.20914h3.26872v14.43991c0 1.46297.34891 2.54642 1.03449 3.25036 1.06508 1.10182 3.04223 1.60376 5.93756 1.50582l2.90757-.11019v-4.58477c-.202.01836-.404.0306-.61212.03672-.20812.00612-.404.01225-.59376.01225-1.24872 0-1.9955-.12243-2.23424-.36116-.24484-.2326-.36727-.83248-.36727-1.7935v-12.39544h3.80739v-4.37053h-3.80739v-6.53745h-6.07223v6.53745h-3.26872zm15.23567 3.67884v5.80902h12.35258v-5.80902zm38.04938-16.52724l-5.72332 24.9439-5.7723-24.9439h-9.64089v31.72006h6.1763v-21.4548c0-.61824-.00613-1.48133-.01837-2.5954-.01836-1.10793-.02448-1.9649-.02448-2.5709l5.96205 26.6211h6.43338l6.0049-26.6211c0 .606-.00613 1.46297-.01837 2.5709-.01836 1.11407-.02448 1.97716-.02448 2.5954v21.4548h6.17629v-31.72006zm29.84697 25.48256c-.96103 1.27321-2.3383 1.91594-4.13181 1.91594s-3.1769-.64273-4.14405-1.91594c-.96715-1.27933-1.45073-3.0912-1.45073-5.44787 0-2.35054.48358-4.16241 1.45073-5.43562.96715-1.2671 2.35054-1.9037 4.14405-1.9037s3.17078.6366 4.1318 1.9037c.96104 1.2732 1.4385 3.08508 1.4385 5.43562 0 2.35666-.47746 4.16854-1.4385 5.44787zm4.90308 3.38502c1.98327-2.44236 2.9749-5.38665 2.9749-8.83289 0-3.38502-.99163-6.31708-2.9749-8.80228-1.97715-2.47909-4.98266-3.7217-9.01653-3.7217-4.02775 0-7.03326 1.24261-9.01653 3.7217-1.97714 2.4852-2.96878 5.41726-2.96878 8.80228 0 3.44624.99164 6.39053 2.96878 8.8329 1.98327 2.44847 4.98878 3.67271 9.01653 3.67271 4.03387 0 7.03938-1.22424 9.01653-3.67272zm-9.01653-21.22832zm28.81861 1.00388c-1.10794-.62436-2.3689-.93654-3.78902-.93654-3.08509 0-5.5458 1.14466-7.39441 3.44011-1.84248 2.29545-2.76066 5.44787-2.76066 9.45113 0 3.47072.93654 6.31096 2.8035 8.53296 1.8731 2.21587 4.18079 3.3238 6.92309 3.3238 1.66496 0 3.05447-.3183 4.17465-.94878 1.12018-.63048 2.11182-1.64048 2.98715-3.03611v3.25035h5.96205v-31.6772h-6.21914v11.18955c-.68558-1.10182-1.5854-1.9649-2.6872-2.58927zm1.50582 16.71087c-.90594 1.28546-2.222 1.9343-3.96042 1.9343s-3.03-.64884-3.88696-1.94654c-.85085-1.2977-1.27933-3.03-1.27933-5.1969 0-2.00775.42236-3.69108 1.26097-5.04999.8386-1.35278 2.15466-2.03223 3.94817-2.03223 1.17527 0 2.20975.37339 3.09733 1.12017 1.45072 1.23037 2.17302 3.28709 2.17302 6.15181 0 2.05672-.44685 3.72781-1.35278 5.01938zm18.92675-11.32422c.78351-.88757 1.8792-1.33442 3.30545-1.33442 1.30381 0 2.39338.42237 3.28096 1.26097.88145.8386 1.37115 2.06897 1.46909 3.69108h-9.53071c.202-1.52417.6917-2.72393 1.4752-3.61763zm8.5758-5.29483c-1.56703-.72843-3.32381-1.0957-5.27035-1.0957-3.28709 0-5.96205 1.08345-8.01878 3.25036-2.05672 2.1669-3.0912 5.2826-3.0912 9.34095 0 4.33381 1.14466 7.46174 3.42175 9.3838 2.2832 1.92206 4.91532 2.88309 7.90247 2.88309 3.6115 0 6.42726-1.14467 8.43501-3.42176 1.29157-1.43848 2.01388-2.85247 2.17303-4.24199h-6.26199c-.33055.6917-.71006 1.23036-1.14466 1.616-.78352.71618-1.81188 1.07733-3.07285 1.07733-1.19363 0-2.20975-.29382-3.05448-.88757-1.39563-.94267-2.1363-2.5954-2.222-4.94593h16.05592c.0306-2.02612-.03673-3.57478-.19588-4.65211-.26934-1.83636-.8631-3.44624-1.78127-4.84187-1.02224-1.57315-2.31382-2.73006-3.87472-3.4646zm-4.84187-1.0957zm21.08753 24.0808v-31.72006h-6.13344v31.72006z"/></svg>
