<?xml version="1.0" encoding="UTF-8" standalone="no"?>
<svg
   version="1.1"
   id="svg4"
   width="58.007812"
   height="9.0410156"
   xmlns="http://www.w3.org/2000/svg"
   xmlns:svg="http://www.w3.org/2000/svg">
  <defs
     id="defs8" />
  <g
     aria-label="Streetmix"
     id="text2"
     transform="translate(-0.78515625,8.8828125)">
    <path
       d="m 7.5117187,-2.4902344 q 0,0.5097657 -0.2402343,1.0078125 -0.234375,0.4980469 -0.6621094,0.84375003 -0.46875,0.37499999 -1.0957031,0.5859375 -0.6210938,0.21093749 -1.5,0.21093749 -0.9433594,0 -1.6992188,-0.17578125 -0.75,-0.17578124 -1.52929685,-0.52148437 v -1.453125 h 0.0820313 Q 1.529297,-1.4414062 2.3964845,-1.1425781 3.263672,-0.84375 4.0253907,-0.84375 q 1.078125,0 1.6757813,-0.4042969 0.6035156,-0.4042968 0.6035156,-1.078125 0,-0.5800781 -0.2871095,-0.8554687 Q 5.7363281,-3.4570313 5.15625,-3.609375 4.7167969,-3.7265625 4.2011719,-3.8027344 3.6914063,-3.8789063 3.1171875,-3.9960938 1.9570312,-4.2421875 1.3945312,-4.8339844 0.83789063,-5.4316406 0.83789063,-6.3867187 q 0,-1.0957032 0.92578127,-1.7929688 0.9257812,-0.703125 2.3496093,-0.703125 0.9199219,0 1.6875,0.1757812 0.7675782,0.1757813 1.359375,0.4335938 v 1.3710938 H 7.078125 q -0.4980469,-0.421875 -1.3125,-0.6972657 -0.8085938,-0.28125 -1.6582031,-0.28125 -0.9316406,0 -1.5,0.3867188 -0.5625,0.3867187 -0.5625,0.9960937 0,0.5449219 0.28125,0.8554688 0.28125,0.3105469 0.9902344,0.4746094 0.375,0.082031 1.0664062,0.1992187 0.6914062,0.1171875 1.171875,0.2402344 0.9726562,0.2578125 1.4648437,0.7792968 0.4921875,0.5214844 0.4921875,1.4589844 z"
       id="path10" />
    <path
       d="M 12.685547,-0.05859375 Q 12.375,0.0234375 12.005859,0.07617187 q -0.363281,0.05273438 -0.65039,0.05273438 -1.001953,0 -1.5234377,-0.5390625 Q 9.3105469,-0.94921875 9.3105469,-2.1386719 V -5.6191406 H 8.5664063 v -0.9257813 h 0.7441406 v -1.8808594 h 1.1015621 v 1.8808594 h 2.273438 v 0.9257813 h -2.273438 v 2.9824218 q 0,0.515625 0.02344,0.8085938 0.02344,0.2871094 0.164062,0.5390625 0.128907,0.234375 0.351563,0.34570312 0.228516,0.10546875 0.691406,0.10546875 0.269531,0 0.5625,-0.0761719 0.292969,-0.0820313 0.421875,-0.13476557 h 0.05859 z"
       id="path12" />
    <path
       d="m 18.099609,-5.34375 h -0.05859 q -0.246094,-0.058594 -0.480469,-0.082031 -0.228516,-0.029297 -0.544922,-0.029297 -0.509766,0 -0.984375,0.2285156 -0.474609,0.2226563 -0.914062,0.5800781 V 0 h -1.101563 v -6.5449219 h 1.101563 v 0.9667969 q 0.65625,-0.5273437 1.154296,-0.7441406 0.503907,-0.2226563 1.025391,-0.2226563 0.287109,0 0.416016,0.017578 0.128906,0.011719 0.386718,0.052734 z"
       id="path14" />
    <path
       d="m 24.615234,-3.1582031 h -4.822265 q 0,0.6035156 0.18164,1.0546875 0.181641,0.4453125 0.498047,0.7324219 0.304688,0.28125 0.720703,0.42187495 0.421875,0.140625 0.925782,0.140625 0.667968,0 1.341796,-0.26367185 0.679688,-0.2695313 0.966797,-0.5273438 h 0.05859 v 1.2011719 q -0.556641,0.234375 -1.136719,0.39257812 -0.580078,0.15820313 -1.21875,0.15820313 -1.628906,0 -2.542968,-0.87890625 -0.914063,-0.8847656 -0.914063,-2.5078125 0,-1.6054687 0.873047,-2.5488281 0.878906,-0.9433594 2.308594,-0.9433594 1.324218,0 2.039062,0.7734375 0.720703,0.7734375 0.720703,2.1972656 z m -1.072265,-0.84375 q -0.0059,-0.8671875 -0.439453,-1.3417969 -0.427735,-0.4746094 -1.306641,-0.4746094 -0.884766,0 -1.412109,0.5214844 -0.521485,0.5214844 -0.591797,1.2949219 z"
       id="path16" />
    <path
       d="m 31.763672,-3.1582031 h -4.822266 q 0,0.6035156 0.181641,1.0546875 0.18164,0.4453125 0.498047,0.7324219 0.304687,0.28125 0.720703,0.42187495 0.421875,0.140625 0.925781,0.140625 0.667969,0 1.341797,-0.26367185 0.679687,-0.2695313 0.966797,-0.5273438 h 0.05859 v 1.2011719 q -0.556641,0.234375 -1.136719,0.39257812 -0.580078,0.15820313 -1.21875,0.15820313 -1.628906,0 -2.542969,-0.87890625 -0.914062,-0.8847656 -0.914062,-2.5078125 0,-1.6054687 0.873046,-2.5488281 0.878907,-0.9433594 2.308594,-0.9433594 1.324219,0 2.039063,0.7734375 0.720703,0.7734375 0.720703,2.1972656 z m -1.072266,-0.84375 q -0.0059,-0.8671875 -0.439453,-1.3417969 -0.427734,-0.4746094 -1.306641,-0.4746094 -0.884765,0 -1.412109,0.5214844 -0.521484,0.5214844 -0.591797,1.2949219 z"
       id="path18" />
    <path
       d="m 36.832031,-0.05859375 q -0.310547,0.08203125 -0.679687,0.13476562 -0.363282,0.05273438 -0.650391,0.05273438 -1.001953,0 -1.523437,-0.5390625 -0.521485,-0.5390625 -0.521485,-1.72851565 v -3.4804687 h -0.74414 v -0.9257813 h 0.74414 v -1.8808594 h 1.101563 v 1.8808594 h 2.273437 v 0.9257813 h -2.273437 v 2.9824218 q 0,0.515625 0.02344,0.8085938 0.02344,0.2871094 0.164063,0.5390625 0.128906,0.234375 0.351562,0.34570312 0.228516,0.10546875 0.691406,0.10546875 0.269532,0 0.5625,-0.0761719 0.292969,-0.0820313 0.421875,-0.13476557 h 0.05859 z"
       id="path20" />
    <path
       d="m 47.712891,0 h -1.101563 v -3.7265625 q 0,-0.421875 -0.04102,-0.8144531 -0.03516,-0.3925781 -0.158203,-0.6269531 -0.134765,-0.2519532 -0.386718,-0.3808594 -0.251954,-0.1289063 -0.726563,-0.1289063 -0.462891,0 -0.925781,0.234375 -0.462891,0.2285157 -0.925781,0.5859375 0.01758,0.1347657 0.0293,0.3164063 0.01172,0.1757812 0.01172,0.3515625 V 0 H 42.38672 v -3.7265625 q 0,-0.4335937 -0.04102,-0.8203125 -0.03516,-0.3925781 -0.158203,-0.6269531 -0.134766,-0.2519531 -0.386719,-0.375 -0.251953,-0.1289063 -0.726562,-0.1289063 -0.451172,0 -0.908203,0.2226563 -0.451172,0.2226562 -0.902344,0.5683594 V 0 h -1.101563 v -6.5449219 h 1.101563 v 0.7265625 q 0.515625,-0.4277343 1.02539,-0.6679687 0.515625,-0.2402344 1.095704,-0.2402344 0.667968,0 1.130859,0.28125 0.46875,0.28125 0.697266,0.7792969 0.667968,-0.5625 1.21875,-0.8085938 0.550781,-0.2519531 1.177734,-0.2519531 1.078125,0 1.587891,0.65625 0.515625,0.6503906 0.515625,1.8222656 z"
       id="path22" />
    <path
       d="m 51.017578,-7.640625 h -1.242187 v -1.1425781 h 1.242187 z M 50.947266,0 h -1.101563 v -6.5449219 h 1.101563 z"
       id="path24" />
    <path
       d="M 58.792969,0 H 57.404297 L 55.546875,-2.5136719 53.677734,0 h -1.283203 l 2.554688,-3.2636719 -2.53125,-3.28125 h 1.388672 l 1.845703,2.4726563 1.851562,-2.4726563 h 1.289063 l -2.572266,3.2226563 z"
       id="path26" />
  </g>
</svg>
