<?xml version="1.0" encoding="UTF-8" standalone="no"?>
<!-- Created with Inkscape (http://www.inkscape.org/) -->

<svg
   version="1.1"
   id="svg2"
   width="160"
   height="94.666664"
   viewBox="0 0 160 94.666664"
   sodipodi:docname="strobe.eps"
   xmlns:inkscape="http://www.inkscape.org/namespaces/inkscape"
   xmlns:sodipodi="http://sodipodi.sourceforge.net/DTD/sodipodi-0.dtd"
   xmlns="http://www.w3.org/2000/svg"
   xmlns:svg="http://www.w3.org/2000/svg">
  <defs
     id="defs6" />
  <sodipodi:namedview
     id="namedview4"
     pagecolor="#ffffff"
     bordercolor="#000000"
     borderopacity="0.25"
     inkscape:showpageshadow="2"
     inkscape:pageopacity="0.0"
     inkscape:pagecheckerboard="0"
     inkscape:deskcolor="#d1d1d1" />
  <g
     id="g8"
     inkscape:groupmode="layer"
     inkscape:label="ink_ext_XXXXXX"
     transform="matrix(1.3333333,0,0,-1.3333333,0,94.666667)">
    <g
       id="g10"
       transform="scale(0.1)">
      <path
         d="m 42.7305,284.77 h 1148.28 v 382.5 H 42.7305 Z"
         style="fill:#00407a;fill-opacity:1;fill-rule:nonzero;stroke:none"
         id="path12" />
      <path
         d="M 0,710 V 284.77 h 42.7305 v 382.5 H 1190.23 V 710 Z"
         style="fill:#54bceb;fill-opacity:1;fill-rule:nonzero;stroke:none"
         id="path14" />
      <path
         d="m 127.5,539.77 h 38.238 v -44.258 l 33.75,44.258 h 46.532 l -45,-49.54 51.71,-77.96 H 205.512 L 174.77,461.762 164.262,449.77 v -37.5 H 127.5 Z m 240.738,-78.008 c 0,-35.282 -18.75,-52.5 -56.25,-52.5 -37.5,0 -56.25,17.218 -56.25,52.5 V 539.77 H 293.98 V 470 c 0,-12.73 0,-29.262 18.75,-29.262 18.008,0 18.008,16.532 18.008,29.262 v 69.77 h 38.242 v -78.008 z m 55.512,78.008 h 38.238 v -94.54 h 54.032 v -32.96 h -92.27 z m 103.52,0 H 628.52 V 507.5 h -63.75 v -15.738 h 57.73 v -30 H 564.77 V 446.02 H 630 V 413.012 H 527.27 Z m 225.742,-78.008 c 0,-35.282 -18.75,-52.5 -56.25,-52.5 -37.5,0 -56.25,17.218 -56.25,52.5 V 539.77 H 678.75 V 470 c 0,-12.73 0,-29.262 18.75,-29.262 18.012,0 18.012,16.532 18.012,29.262 v 69.77 H 753.75 V 461.762 Z M 837.73,412.27 H 795 l -36.762,127.5 h 38.242 l 20.282,-77.27 20.226,77.27 h 39.032 z m 43.52,127.5 H 982.5 V 507.5 h -63.75 v -15.738 h 57.73 v -30 H 918.75 V 446.02 h 65.23 V 413.012 H 881.25 Z m 113.238,0 h 39.032 l 35.97,-68.29 v 68.29 h 36.02 v -127.5 h -36.76 l -37.5,69.718 V 412.27 h -36.02 v 127.5 z"
         style="fill:#ffffff;fill-opacity:1;fill-rule:nonzero;stroke:none"
         id="path16" />
      <path
         d="m 208.59,69.8398 c 0,-8.4687 -1.988,-16.871 -5.969,-25.1914 -3.91,-8.2773 -9.461,-15.3086 -16.57,-21.0976 -7.813,-6.25 -16.949,-11.1289 -27.379,-14.64064 -10.352,-3.51953 -22.852,-5.28125 -37.5,-5.28125 -15.742,0 -29.8829,1.49218 -42.5001,4.42187 -12.5,2.92972 -25.2305,7.25782 -38.2422,13.03902 V 57.4219 H 42.5 c 11.0195,-9.1836 23.7891,-16.293 38.2383,-21.25 14.4609,-5 28.0117,-7.461 40.7107,-7.461 17.961,0 31.949,3.3594 41.91,10.0782 10.039,6.7617 15.082,15.7422 15.082,26.9492 0,9.6914 -2.39,16.8008 -7.191,21.4101 -4.691,4.5704 -11.871,8.1602 -21.52,10.7032 -7.351,1.9492 -15.281,3.5584 -23.871,4.8084 -8.519,1.289 -17.539,2.891 -27.109,4.84 -19.3398,4.102 -33.7109,11.09 -43.0898,20.941 -9.25,9.957 -13.8985,22.93 -13.8985,38.829 0,18.281 7.7266,33.199 23.1602,44.839 15.4297,11.719 35,17.582 58.7071,17.582 15.351,0 29.422,-1.492 42.191,-4.421 12.809,-2.93 24.141,-6.52 33.981,-10.821 V 180.16 h -2.031 c -8.321,7.031 -19.25,12.852 -32.809,17.418 -13.481,4.692 -27.301,7.031 -41.441,7.031 -15.551,0 -28.0512,-3.199 -37.5005,-9.648 -9.3789,-6.441 -14.0703,-14.762 -14.0703,-24.922 0,-9.059 2.3516,-16.211 7.0313,-21.367 4.6914,-5.192 12.9297,-9.141 24.7305,-11.871 6.25,-1.371 15.16,-3.012 26.68,-4.961 11.519,-1.961 21.289,-3.988 29.3,-6.02 16.207,-4.3 28.399,-10.781 36.598,-19.492 8.199,-8.6678 12.301,-20.8592 12.301,-36.4882 z"
         style="fill:#000000;fill-opacity:1;fill-rule:nonzero;stroke:none"
         id="path18" />
      <path
         d="m 337.969,9.05859 c -5.199,-1.35937 -10.86,-2.5 -16.989,-3.35937 -6.058,-0.89844 -11.492,-1.32031 -16.289,-1.32031 -16.679,0 -29.382,4.49218 -38.089,13.47269 C 257.93,26.8398 253.59,41.25 253.59,61.0508 V 148.09 h -18.629 v 23.121 h 18.629 v 47.027 h 27.539 v -47.027 h 56.84 V 148.09 h -56.84 V 73.5195 c 0,-8.5976 0.199,-15.3203 0.59,-20.1992 0.39,-4.8008 1.761,-9.3008 4.101,-13.4805 2.149,-3.8984 5.078,-6.789 8.789,-8.6679 3.789,-1.7617 9.571,-2.6211 17.27,-2.6211 4.492,0 9.172,0.6289 14.062,1.918 4.879,1.371 8.399,2.4609 10.539,3.3593 h 1.489 z"
         style="fill:#000000;fill-opacity:1;fill-rule:nonzero;stroke:none"
         id="path20" />
      <path
         d="m 553.871,7.62109 h -37.66 L 443.281,94.3398 H 402.422 V 7.62109 H 373.398 V 225.699 h 61.09 c 13.172,0 24.184,-0.859 32.973,-2.609 8.789,-1.68 16.68,-4.692 23.711,-9.11 7.93,-4.96 14.058,-11.25 18.476,-18.859 4.493,-7.543 6.723,-17.109 6.723,-28.711 0,-15.75 -3.949,-28.91 -11.883,-39.57 -7.886,-10.551 -18.789,-18.52 -32.648,-23.871 z M 486.051,164.34 c 0,6.25 -1.129,11.75 -3.352,16.558 -2.148,4.883 -5.789,8.981 -10.859,12.301 -4.18,2.821 -9.18,4.77 -14.93,5.86 -5.781,1.171 -12.57,1.761 -20.39,1.761 h -34.098 v -82.34 h 29.297 c 9.179,0 17.191,0.782 24.019,2.34 6.84,1.68 12.621,4.692 17.422,9.102 4.379,4.098 7.621,8.789 9.649,14.058 2.152,5.36 3.242,12.149 3.242,20.36 z"
         style="fill:#000000;fill-opacity:1;fill-rule:nonzero;stroke:none"
         id="path22" />
      <path
         d="m 744.609,200.66 c 8.871,-9.762 15.661,-21.711 20.352,-35.89 4.769,-14.149 7.187,-30.2 7.187,-48.168 0,-17.9731 -2.457,-34.102 -7.347,-48.3637 C 760.039,54.1016 753.281,42.2695 744.609,32.8086 735.621,22.9297 724.961,15.5117 712.66,10.5508 700.469,5.55078 686.48,3.05078 670.781,3.05078 c -15.351,0 -29.301,2.53906 -41.91,7.60942 -12.5,5.0781 -23.133,12.4609 -31.922,22.1484 -8.789,9.6523 -15.578,21.5312 -20.39,35.5898 -4.68,14.0625 -7.028,30.1211 -7.028,48.2036 0,17.777 2.348,33.668 7.028,47.738 4.691,14.18 11.531,26.281 20.511,36.32 8.59,9.57 19.258,16.918 31.95,22 12.781,5.07 26.718,7.61 41.761,7.61 15.629,0 29.61,-2.61 42.028,-7.77 12.5,-5.078 23.089,-12.34 31.8,-21.84 z m -2.66,-84.058 c 0,28.32 -6.328,50.117 -19.019,65.468 -12.7,15.43 -30.039,23.129 -52.032,23.129 -22.148,0 -39.57,-7.699 -52.269,-23.129 -12.609,-15.351 -18.899,-37.148 -18.899,-65.468 0,-28.6332 6.442,-50.5512 19.329,-65.7817 12.89,-15.1601 30.16,-22.6992 51.839,-22.6992 21.68,0 38.942,7.5391 51.723,22.6992 12.891,15.2305 19.328,37.1485 19.328,65.7817 z"
         style="fill:#000000;fill-opacity:1;fill-rule:nonzero;stroke:none"
         id="path24" />
      <path
         d="m 982.621,74.6914 c 0,-10.8203 -2.031,-20.3906 -6.141,-28.7109 -4.101,-8.2813 -9.601,-15.1211 -16.558,-20.5117 -8.203,-6.4493 -17.223,-11.0196 -27.113,-13.75 -9.758,-2.73833 -22.188,-4.09771 -37.34,-4.09771 H 818.121 V 225.699 h 64.609 c 15.899,0 27.821,-0.578 35.75,-1.75 7.891,-1.179 15.469,-3.597 22.692,-7.308 8.008,-4.219 13.828,-9.61 17.418,-16.25 3.64,-6.563 5.43,-14.411 5.43,-23.59 0,-10.352 -2.61,-19.18 -7.891,-26.531 -5.27,-7.219 -12.301,-13.04 -21.09,-17.418 v -1.172 c 14.731,-3.051 26.371,-9.532 34.84,-19.489 8.519,-9.851 12.742,-22.3512 12.742,-37.4996 z m -48.75,98.2776 c 0,5.269 -0.902,9.73 -2.66,13.359 -1.762,3.594 -4.57,6.524 -8.481,8.793 -4.609,2.609 -10.152,4.219 -16.71,4.801 -6.532,0.699 -14.649,1.058 -24.301,1.058 h -34.571 v -63.011 h 37.5 c 9.063,0 16.293,0.429 21.68,1.332 5.352,0.969 10.352,2.929 14.922,5.859 4.609,2.93 7.809,6.68 9.691,11.289 1.95,4.68 2.93,10.192 2.93,16.52 z m 18.59,-99.4495 c 0,8.7813 -1.332,15.7813 -3.941,20.9297 -2.661,5.1992 -7.43,9.5708 -14.379,13.2108 -4.692,2.418 -10.391,3.981 -17.153,4.68 -6.636,0.781 -14.718,1.18 -24.289,1.18 H 847.148 V 32.3398 h 38.364 c 12.687,0 23.078,0.6719 31.207,1.9219 8.082,1.3594 14.73,3.8281 19.922,7.3399 5.468,3.789 9.449,8.1289 11.988,13.0078 2.543,4.8789 3.832,11.2109 3.832,18.9101 z"
         style="fill:#000000;fill-opacity:1;fill-rule:nonzero;stroke:none"
         id="path26" />
      <path
         d="m 1158.55,86.5586 h -120.54 c 0,-10.0781 1.52,-18.8594 4.53,-26.3594 3.05,-7.4297 7.19,-13.5195 12.46,-18.3203 5.08,-4.6875 11.09,-8.207 18.01,-10.5508 7.03,-2.3476 14.76,-3.5195 23.16,-3.5195 11.13,0 22.31,2.1914 33.52,6.6016 11.33,4.5 19.41,8.8711 24.18,13.1679 h 1.48 v -30 c -9.3,-3.9062 -18.75,-7.1875 -28.44,-9.84763 -9.64,-2.60938 -19.8,-3.94141 -30.46,-3.94141 -27.15,0 -48.33,7.33984 -63.56,21.99224 -15.23,14.7304 -22.85,35.6289 -22.85,62.6992 0,26.7495 7.26,47.9685 21.8,63.7105 14.64,15.7 33.9,23.59 57.73,23.59 22.07,0 39.06,-6.441 50.98,-19.332 11.99,-12.898 18,-31.219 18,-54.969 z m -26.79,21.1014 c -0.12,14.449 -3.75,25.621 -10.98,33.551 -7.15,7.891 -18.05,11.84 -32.69,11.84 -14.73,0 -26.49,-4.34 -35.28,-13.012 -8.71,-8.711 -13.63,-19.488 -14.8,-32.379 z"
         style="fill:#000000;fill-opacity:1;fill-rule:nonzero;stroke:none"
         id="path28" />
    </g>
  </g>
</svg>
