<?xml version="1.0" encoding="UTF-8" standalone="no"?>
<svg
   width="1727.5"
   height="284"
   clip-rule="evenodd"
   fill-rule="evenodd"
   image-rendering="optimizeQuality"
   shape-rendering="geometricPrecision"
   text-rendering="geometricPrecision"
   version="1.1"
   viewBox="0 0 1727.5 284"
   id="svg36"
   sodipodi:docname="logo_full.svg"
   xmlns:inkscape="http://www.inkscape.org/namespaces/inkscape"
   xmlns:sodipodi="http://sodipodi.sourceforge.net/DTD/sodipodi-0.dtd"
   xmlns:xlink="http://www.w3.org/1999/xlink"
   xmlns="http://www.w3.org/2000/svg"
   xmlns:svg="http://www.w3.org/2000/svg"
   xmlns:rdf="http://www.w3.org/1999/02/22-rdf-syntax-ns#"
   xmlns:cc="http://creativecommons.org/ns#">
  <sodipodi:namedview
     id="namedview38"
     pagecolor="#ffffff"
     bordercolor="#000000"
     borderopacity="0.25"
     inkscape:showpageshadow="2"
     inkscape:pageopacity="0.0"
     inkscape:pagecheckerboard="0"
     inkscape:deskcolor="#d1d1d1" />
  <defs
     id="defs8">
    <linearGradient
       id="linearGradient2184"
       x1="29.155"
       x2="192.42"
       y1="255.4"
       y2="97.377"
       gradientTransform="matrix(.26458 0 0 .26458 -.165 -.283)"
       gradientUnits="userSpaceOnUse">
      <stop
         stop-color="#4daeeb"
         offset="0"
         id="stop2" />
      <stop
         stop-color="#bde56c"
         offset="1"
         id="stop4" />
    </linearGradient>
    <linearGradient
       id="linearGradient2430"
       x1="29.155"
       x2="192.42"
       y1="255.4"
       y2="97.377"
       gradientTransform="matrix(.99999 0 0 .99999 -.62738 -1.0742)"
       gradientUnits="userSpaceOnUse"
       xlink:href="#linearGradient2184" />
  </defs>
  <g
     aria-label="SustainBench"
     id="text12"
     style="font-size:266.67px;line-height:1.25;font-family:'Source Sans Pro';letter-spacing:-10px;word-spacing:0px;fill:#8fd0a1">
    <path
       d="m 441.24258,46.513552 v 41.14635 q -16.01583,-7.161549 -31.2504,-10.807428 -15.23456,-3.645879 -28.7764,-3.645879 -17.96898,0 -26.56283,4.947979 -8.59386,4.947979 -8.59386,15.364776 0,7.8126 5.72924,12.23974 5.85945,4.29693 21.09401,7.42197 l 21.35444,4.29692 q 32.42228,6.5105 46.09433,19.79192 13.67204,13.28142 13.67204,37.76089 0,32.16186 -19.14086,47.91727 -19.01066,15.62519 -58.20386,15.62519 -18.48981,0 -37.10984,-3.51567 -18.62002,-3.51566 -37.24005,-10.41679 v -42.31824 q 18.62003,9.89596 35.93795,14.97414 17.44814,4.94798 33.59417,4.94798 16.40646,0 25.13053,-5.46882 8.72406,-5.46881 8.72406,-15.62519 0,-9.1147 -5.98965,-14.06268 -5.85945,-4.94798 -23.56801,-8.85428 l -19.40128,-4.29692 q -29.16704,-6.25008 -42.70887,-19.92213 -13.41163,-13.67205 -13.41163,-36.849421 0,-29.036822 18.75024,-44.662019 18.75023,-15.625196 53.90692,-15.625196 16.01583,0 32.94312,2.47399 16.9273,2.343779 35.02649,7.161548 z"
       style="font-weight:600"
       id="path40" />
    <path
       d="M 484.36825,178.02562 V 88.962001 h 46.87559 v 14.583519 q 0,11.8491 -0.13021,29.81808 -0.13021,17.83877 -0.13021,23.82842 0,17.57835 0.91147,25.39095 0.91147,7.68239 3.12503,11.19806 2.86462,4.55734 7.42197,7.03133 4.68756,2.47399 10.67722,2.47399 14.58352,0 22.91695,-11.19805 8.33344,-11.19806 8.33344,-31.12019 V 88.962001 h 46.61517 V 234.79716 H 584.3695 v -21.09401 q -10.547,12.76058 -22.39611,18.88045 -11.7189,5.98965 -25.91179,5.98965 -25.26073,0 -38.54215,-15.49498 -13.1512,-15.49499 -13.1512,-45.05265 z"
       style="font-weight:600"
       id="path42" />
    <path
       d="m 779.7106,93.51935 v 35.41711 q -14.97414,-6.25008 -28.90661,-9.37512 -13.93247,-3.12504 -26.30241,-3.12504 -13.28142,0 -19.79192,3.38546 -6.38029,3.25525 -6.38029,10.15638 0,5.59903 4.81777,8.59386 4.94798,2.99483 17.57835,4.42714 l 8.20323,1.17189 q 35.80774,4.55735 48.17768,14.97414 12.36995,10.4168 12.36995,32.68271 0,23.30758 -17.18771,35.02648 -17.18772,11.71889 -51.30273,11.71889 -14.45331,0 -29.94829,-2.34378 -15.36478,-2.21356 -31.64103,-6.77091 v -35.41711 q 13.93247,6.77091 28.51599,10.15637 14.71372,3.38546 29.81808,3.38546 13.67205,0 20.57317,-3.77609 6.90113,-3.77609 6.90113,-11.19805 0,-6.25008 -4.81777,-9.24491 -4.68756,-3.12504 -18.88044,-4.81777 l -8.20323,-1.04168 q -31.12018,-3.9063 -43.62034,-14.45331 -12.50016,-10.547 -12.50016,-32.03165 0,-23.17737 15.88562,-34.375431 15.88562,-11.198057 48.69853,-11.198057 12.89079,0 27.08367,1.95315 14.19289,1.953149 30.85976,6.119868 z"
       style="font-weight:600"
       id="path44" />
    <path
       d="m 865.41493,47.555232 v 41.406769 h 48.04748 v 33.333749 h -48.04748 v 61.84974 q 0,10.15638 4.03651,13.80225 4.03651,3.51567 16.01583,3.51567 h 23.95863 v 33.33375 h -39.97446 q -27.60451,0 -39.1932,-11.45847 Q 818.79976,211.75 818.79976,184.14549 V 122.29575 H 795.62239 V 88.962001 h 23.17737 V 47.555232 Z"
       style="font-weight:600"
       id="path46" />
    <path
       d="m 997.34382,169.17134 q -14.58351,0 -22.00548,4.94798 -7.29176,4.94798 -7.29176,14.58352 0,8.85427 5.85945,13.93246 5.98966,4.94798 16.53667,4.94798 13.1512,0 22.1357,-9.37512 8.9845,-9.50532 8.9845,-23.69821 v -5.33861 z M 1068.5687,151.593 v 83.20416 h -47.0058 v -21.61485 q -9.3751,13.28142 -21.094,19.40129 -11.71893,5.98965 -28.51602,5.98965 -22.65653,0 -36.84942,-13.1512 -14.06268,-13.28142 -14.06268,-34.37543 0,-25.65137 17.57835,-37.63068 17.70855,-11.97932 55.46944,-11.97932 h 27.47433 v -3.64588 q 0,-11.06785 -8.7241,-16.14604 -8.7241,-5.2084 -27.21387,-5.2084 -14.97415,0 -27.86494,2.99483 -12.89078,2.99483 -23.95863,8.98449 V 92.8683 q 14.97415,-3.645879 30.0785,-5.468818 15.10436,-1.95315 30.20871,-1.95315 39.45363,0 56.90173,15.625198 17.5784,15.49498 17.5784,50.52147 z"
       style="font-weight:600"
       id="path48" />
    <path
       d="m 1101.9286,88.962001 h 46.6151 V 234.79716 h -46.6151 z m 0,-56.771546 h 46.6151 v 38.021311 h -46.6151 z"
       style="font-weight:600"
       id="path50" />
    <path
       d="m 1329.9524,145.99397 v 88.80319 h -46.8756 v -14.4533 -53.5163 q 0,-18.88044 -0.9115,-26.04199 -0.7812,-7.16155 -2.8646,-10.54701 -2.7344,-4.55735 -7.422,-7.03134 -4.6875,-2.6042 -10.6772,-2.6042 -14.5835,0 -22.9169,11.32827 -8.3335,11.19806 -8.3335,31.12018 v 71.74569 H 1183.336 V 88.962001 h 46.6151 v 21.354439 q 10.547,-12.760581 22.3961,-18.750239 11.8492,-6.119869 26.1723,-6.119869 25.2607,0 38.2817,15.494988 13.1512,15.49498 13.1512,45.05265 z"
       style="font-weight:600"
       id="path52" />
    <path
       d="m 1443.131,115.65504 q 11.8491,0 17.969,-5.20839 6.1199,-5.2084 6.1199,-15.36478 0,-10.026168 -6.1199,-15.234566 -6.1199,-5.338609 -17.969,-5.338609 h -27.7347 v 41.146345 z m 1.6927,85.02711 q 15.1044,0 22.6566,-6.38028 7.6824,-6.38029 7.6824,-19.27108 0,-12.63037 -7.5522,-18.88045 -7.5522,-6.38028 -22.7868,-6.38028 h -29.4274 v 50.91209 z m 46.6152,-69.92275 q 16.146,4.68756 25.0003,17.31793 8.8543,12.63036 8.8543,30.98997 0,28.12535 -19.0107,41.92761 -19.0106,13.80225 -57.8132,13.80225 h -83.2041 V 40.393683 h 75.2613 q 40.4953,0 58.5945,12.239737 18.2294,12.239737 18.2294,39.193201 0,14.192889 -6.6407,24.219049 -6.6407,9.89596 -19.2711,14.71373 z"
       style="font-weight:600"
       id="path54" />
    <path
       d="m 1702.0147,161.48895 v 13.28142 h -108.9858 q 1.6927,16.40646 11.8491,24.60968 10.1564,8.20323 28.3858,8.20323 14.7137,0 30.0785,-4.29693 15.495,-4.42714 31.7712,-13.28141 v 35.93795 q -16.5366,6.25008 -33.0733,9.37511 -16.5367,3.25525 -33.0733,3.25525 -39.5839,0 -61.5894,-20.05233 -21.8752,-20.18255 -21.8752,-56.51113 0,-35.67753 21.4846,-56.12049 21.6149,-20.442968 59.3758,-20.442968 34.3754,0 54.9486,20.703388 20.7034,20.70338 20.7034,55.33923 z m -47.9173,-15.49498 q 0,-13.28142 -7.8126,-21.35444 -7.6824,-8.20323 -20.1826,-8.20323 -13.5418,0 -22.0054,7.68239 -8.4637,7.55218 -10.5471,21.87528 z"
       style="font-weight:600"
       id="path56" />
    <path
       d="m 1873.9179,145.99397 v 88.80319 h -46.8756 v -14.4533 -53.5163 q 0,-18.88044 -0.9115,-26.04199 -0.7812,-7.16155 -2.8646,-10.54701 -2.7344,-4.55735 -7.4219,-7.03134 -4.6876,-2.6042 -10.6773,-2.6042 -14.5835,0 -22.9169,11.32827 -8.3335,11.19806 -8.3335,31.12018 v 71.74569 h -46.6151 V 88.962001 h 46.6151 v 21.354439 q 10.5471,-12.760581 22.3962,-18.750239 11.8491,-6.119869 26.1722,-6.119869 25.2607,0 38.2817,15.494988 13.1512,15.49498 13.1512,45.05265 z"
       style="font-weight:600"
       id="path58" />
    <path
       d="m 2024.9877,93.51935 v 38.02131 q -9.5053,-6.5105 -19.1409,-9.63554 -9.5053,-3.12504 -19.7919,-3.12504 -19.5315,0 -30.4691,11.45848 -10.8074,11.32827 -10.8074,31.77123 0,20.44297 10.8074,31.90145 10.9376,11.32826 30.4691,11.32826 10.9376,0 20.7034,-3.25525 9.896,-3.25525 18.2294,-9.63553 v 38.15152 q -10.9376,4.0365 -22.2659,5.98965 -11.1981,2.08336 -22.5263,2.08336 -39.4537,0 -61.7196,-20.18254 -22.2659,-20.31276 -22.2659,-56.38092 0,-36.06816 22.2659,-56.2507 22.2659,-20.312758 61.7196,-20.312758 11.4584,0 22.5263,2.08336 11.198,1.953149 22.2659,5.989658 z"
       style="font-weight:600"
       id="path60" />
    <path
       d="m 2201.839,145.99397 v 88.80319 h -46.8755 v -14.4533 -53.25588 q 0,-19.14086 -0.9115,-26.30241 -0.7813,-7.16155 -2.8646,-10.54701 -2.7344,-4.55735 -7.422,-7.03134 -4.6876,-2.6042 -10.6772,-2.6042 -14.5835,0 -22.917,11.32827 -8.3334,11.19806 -8.3334,31.12018 v 71.74569 h -46.6152 V 32.190455 h 46.6152 v 78.125985 q 10.547,-12.760581 22.3961,-18.750239 11.8491,-6.119869 26.1722,-6.119869 25.2607,0 38.2817,15.494988 13.1512,15.49498 13.1512,45.05265 z"
       style="font-weight:600"
       id="path62" />
  </g>
  <g
     transform="matrix(3.7795,0,0,3.7795,1.3947,1.0574)"
     fill="url(#linearGradient2184)"
     id="g30">
    <path
       d="m 5.835,71.861 v 3 h 5 v -3 z"
       id="path14" />
    <path
       d="m 21.835,66.361 v 8.4997 h 5 V 66.361 Z"
       id="path16" />
    <path
       d="m 29.835,65.361 v 9.4997 h 5 V 65.361 Z"
       id="path18" />
    <path
       d="m 13.835,65.861 v 9 h 5 v -9 z"
       id="path20" />
    <path
       d="m 37.835,61.861 v 13 h 5 v -13 z"
       id="path22" />
    <path
       d="m 45.835,55.861 v 19 h 5 v -19 z"
       id="path24" />
    <path
       d="m 53.835,47.861 v 27 h 5 v -27 z"
       id="path26" />
    <path
       d="m 61.835,31.861 v 43 h 5 v -43 z"
       id="path28" />
  </g>
  <path
     d="M 3.001,284.001 55,240 C 168.76,266.502 251.58,121.5 254,0 132.24,99.258 -35.18,70.552 41.24,225.12 162.12,96.81 191,70.08 193,73 133.495,146.497 64.33,210.33 0,279 Z"
     fill="url(#linearGradient2430)"
     stroke-width="3.7795"
     id="path32" />
  <metadata
     id="metadata34">
    <rdf:RDF>
      <cc:License
         rdf:about="http://creativecommons.org/licenses/by/4.0/">
        <cc:permits
           rdf:resource="http://creativecommons.org/ns#Reproduction" />
        <cc:permits
           rdf:resource="http://creativecommons.org/ns#Distribution" />
        <cc:requires
           rdf:resource="http://creativecommons.org/ns#Notice" />
        <cc:requires
           rdf:resource="http://creativecommons.org/ns#Attribution" />
        <cc:permits
           rdf:resource="http://creativecommons.org/ns#DerivativeWorks" />
      </cc:License>
      <cc:Work
         rdf:about="">
        <cc:license
           rdf:resource="http://creativecommons.org/licenses/by/4.0/" />
      </cc:Work>
    </rdf:RDF>
  </metadata>
</svg>
