<?xml version="1.0" encoding="UTF-8" standalone="no"?>
<!-- Created with Inkscape (http://www.inkscape.org/) -->

<svg
   width="113.13485mm"
   height="23.455862mm"
   viewBox="0 0 113.13485 23.455862"
   version="1.1"
   id="svg5"
   inkscape:version="1.1.1 (c3084ef, 2021-09-22)"
   sodipodi:docname="switch.svg"
   xmlns:inkscape="http://www.inkscape.org/namespaces/inkscape"
   xmlns:sodipodi="http://sodipodi.sourceforge.net/DTD/sodipodi-0.dtd"
   xmlns="http://www.w3.org/2000/svg"
   xmlns:svg="http://www.w3.org/2000/svg">
  <sodipodi:namedview
     id="namedview7"
     pagecolor="#ffffff"
     bordercolor="#666666"
     borderopacity="1.0"
     inkscape:pageshadow="2"
     inkscape:pageopacity="0.0"
     inkscape:pagecheckerboard="0"
     inkscape:document-units="mm"
     showgrid="false"
     inkscape:zoom="0.64052329"
     inkscape:cx="223.25496"
     inkscape:cy="220.13251"
     inkscape:window-width="1668"
     inkscape:window-height="982"
     inkscape:window-x="58"
     inkscape:window-y="25"
     inkscape:window-maximized="0"
     inkscape:current-layer="layer1" />
  <defs
     id="defs2" />
  <g
     inkscape:label="Layer 1"
     inkscape:groupmode="layer"
     id="layer1"
     transform="translate(-45.740079,-89.857648)">
    <g
       aria-label="Switch Power System
Planning Model"
       id="text165"
       style="font-size:10.5833px;line-height:1.25;-inkscape-font-specification:'sans-serif, Normal';text-align:center;text-anchor:middle;stroke-width:0.264583">
      <path
         d="m 51.672515,95.702234 q 0,0.449584 -0.211873,0.888832 -0.206705,0.439248 -0.583942,0.744138 -0.41341,0.330728 -0.966346,0.516763 -0.547768,0.186035 -1.322913,0.186035 -0.831987,0 -1.498611,-0.155029 -0.661456,-0.155029 -1.348751,-0.459919 v -1.281571 h 0.07235 q 0.583942,0.485756 1.348751,0.749305 0.764808,0.263549 1.4366,0.263549 0.950843,0 1.477941,-0.356566 0.532266,-0.356566 0.532266,-0.950843 0,-0.511595 -0.253214,-0.754474 -0.248046,-0.242878 -0.759641,-0.377236 -0.387572,-0.103353 -0.842323,-0.170532 -0.449584,-0.06718 -0.956011,-0.170532 -1.023191,-0.21704 -1.519283,-0.73897 -0.490924,-0.527098 -0.490924,-1.369422 0,-0.966346 0.816485,-1.581293 0.816485,-0.620116 2.072218,-0.620116 0.811318,0 1.488277,0.155029 0.676959,0.155029 1.198889,0.382405 v 1.209224 h -0.07235 q -0.439248,-0.372069 -1.157548,-0.614947 -0.713133,-0.248046 -1.462438,-0.248046 -0.821653,0 -1.322913,0.341063 -0.496092,0.341063 -0.496092,0.878497 0,0.480589 0.248046,0.754473 0.248046,0.273884 0.873329,0.418578 0.330728,0.07235 0.940508,0.175699 0.60978,0.103353 1.033525,0.211873 0.857826,0.227375 1.291907,0.687294 0.434081,0.459919 0.434081,1.286739 z"
         id="path1699" />
      <path
         d="m 60.498821,92.126237 -1.503779,5.772239 h -0.899167 l -1.483109,-4.449327 -1.472774,4.449327 H 54.245993 L 52.72671,92.126237 h 1.012855 l 1.059364,4.469997 1.441768,-4.469997 h 0.800982 l 1.477941,4.469997 1.00252,-4.469997 z"
         id="path1701" />
      <path
         d="m 62.943108,91.15989 h -1.095537 v -1.007687 h 1.095537 z m -0.06201,6.738586 h -0.971514 v -5.772239 h 0.971514 z"
         id="path1703" />
      <path
         d="m 67.811013,97.846799 q -0.273884,0.07235 -0.599444,0.118856 -0.320393,0.04651 -0.573607,0.04651 -0.883664,0 -1.343583,-0.475421 -0.459919,-0.475422 -0.459919,-1.52445 v -3.06957 H 64.178172 V 92.126239 H 64.83446 V 90.46743 h 0.971514 v 1.658809 h 2.005039 v 0.816485 h -2.005039 v 2.630322 q 0,0.454751 0.02067,0.713132 0.02067,0.253214 0.144693,0.475422 0.113688,0.206705 0.310058,0.30489 0.201537,0.09302 0.60978,0.09302 0.23771,0 0.496092,-0.06718 0.258381,-0.07235 0.372069,-0.118856 h 0.05168 z"
         id="path1705" />
      <path
         d="m 73.257691,97.536742 q -0.485757,0.232543 -0.925005,0.361734 -0.434081,0.12919 -0.925005,0.12919 -0.625283,0 -1.147213,-0.180867 -0.521931,-0.186034 -0.894,-0.558103 -0.377237,-0.372069 -0.583942,-0.940508 -0.206705,-0.568439 -0.206705,-1.32808 0,-1.41593 0.775144,-2.22208 0.780312,-0.80615 2.056716,-0.80615 0.496092,0 0.971514,0.139526 0.480589,0.139526 0.878496,0.341064 v 1.080034 h -0.05168 q -0.444416,-0.346231 -0.919838,-0.532266 -0.470254,-0.186035 -0.919837,-0.186035 -0.826821,0 -1.30741,0.558104 -0.475421,0.552936 -0.475421,1.627803 0,1.04386 0.465086,1.607131 0.470254,0.558104 1.317745,0.558104 0.294554,0 0.599444,-0.07751 0.30489,-0.07751 0.547769,-0.201538 0.211873,-0.10852 0.397907,-0.227375 0.186035,-0.124023 0.294555,-0.211873 h 0.05168 z"
         id="path1707" />
      <path
         d="m 79.334821,97.898476 h -0.971514 v -3.286611 q 0,-0.397907 -0.04651,-0.744138 -0.04651,-0.351399 -0.170532,-0.547769 -0.12919,-0.21704 -0.372069,-0.320393 -0.242878,-0.10852 -0.63045,-0.10852 -0.397907,0 -0.831988,0.19637 -0.434081,0.19637 -0.831988,0.50126 v 4.309801 h -0.971514 v -8.040828 h 0.971514 v 2.909374 q 0.454751,-0.377236 0.940508,-0.589109 0.485757,-0.211873 0.997352,-0.211873 0.935341,0 1.426265,0.563271 0.490925,0.563272 0.490925,1.622635 z"
         id="path1709" />
      <path
         d="m 90.036976,92.529311 q 0,0.511595 -0.180866,0.950844 -0.1757,0.43408 -0.496093,0.754473 -0.397907,0.397908 -0.940508,0.599445 -0.542601,0.19637 -1.369421,0.19637 h -1.02319 v 2.868033 h -1.02319 v -7.694597 h 2.087721 q 0.692462,0 1.173051,0.118856 0.48059,0.113688 0.852659,0.361734 0.439248,0.294554 0.676959,0.733803 0.242878,0.439248 0.242878,1.111039 z m -1.064531,0.02584 q 0,-0.397908 -0.139526,-0.692462 -0.139526,-0.294555 -0.423745,-0.48059 -0.248046,-0.160196 -0.568439,-0.227375 -0.315225,-0.07235 -0.800982,-0.07235 h -1.012855 v 3.074738 h 0.862994 q 0.620115,0 1.007687,-0.10852 0.387572,-0.113688 0.63045,-0.356567 0.242879,-0.248046 0.341064,-0.52193 0.103352,-0.273884 0.103352,-0.614947 z"
         id="path1711" />
      <path
         d="m 96.232958,95.01494 q 0,1.410762 -0.723467,2.227247 -0.723468,0.816485 -1.93786,0.816485 -1.224728,0 -1.948196,-0.816485 -0.7183,-0.816485 -0.7183,-2.227247 0,-1.410762 0.7183,-2.227247 0.723468,-0.821653 1.948196,-0.821653 1.214392,0 1.93786,0.821653 0.723467,0.816485 0.723467,2.227247 z m -1.002519,0 q 0,-1.121375 -0.439248,-1.663976 -0.439249,-0.547768 -1.21956,-0.547768 -0.790647,0 -1.229896,0.547768 -0.43408,0.542601 -0.43408,1.663976 0,1.085202 0.439248,1.648473 0.439248,0.558104 1.224728,0.558104 0.775144,0 1.214392,-0.552937 0.444416,-0.558103 0.444416,-1.65364 z"
         id="path1713" />
      <path
         d="m 105.00242,92.126237 -1.50378,5.772239 h -0.89917 l -1.4831,-4.449327 -1.472778,4.449327 H 98.749593 L 97.23031,92.126237 h 1.012855 l 1.059364,4.469997 1.441771,-4.469997 h 0.80098 l 1.47794,4.469997 1.00252,-4.469997 z"
         id="path1715" />
      <path
         d="m 111.23458,95.113125 h -4.25296 q 0,0.532265 0.1602,0.930173 0.16019,0.392739 0.43925,0.645953 0.26871,0.248046 0.63561,0.372069 0.37207,0.124023 0.81649,0.124023 0.58911,0 1.18339,-0.232543 0.59944,-0.237711 0.85265,-0.465086 h 0.0517 v 1.059363 q -0.49092,0.206705 -1.00252,0.346231 -0.51159,0.139526 -1.07487,0.139526 -1.4366,0 -2.24275,-0.775144 -0.80614,-0.780312 -0.80614,-2.211744 0,-1.41593 0.76997,-2.247918 0.77515,-0.831988 2.03605,-0.831988 1.16788,0 1.79833,0.682127 0.63562,0.682127 0.63562,1.93786 z m -0.94568,-0.744138 q -0.005,-0.764809 -0.38757,-1.183387 -0.37724,-0.418578 -1.15238,-0.418578 -0.78031,0 -1.2454,0.459919 -0.45992,0.459919 -0.52193,1.142046 z"
         id="path1717" />
      <path
         d="m 116.30919,93.1856 h -0.0517 q -0.21704,-0.05168 -0.42375,-0.07235 -0.20154,-0.02584 -0.48059,-0.02584 -0.44958,0 -0.86816,0.201538 -0.41858,0.196369 -0.80615,0.511595 v 4.097928 h -0.97151 v -5.772239 h 0.97151 v 0.852658 q 0.57877,-0.465086 1.01802,-0.656289 0.44442,-0.196369 0.90434,-0.196369 0.25321,0 0.3669,0.0155 0.11369,0.01034 0.34106,0.04651 z"
         id="path1719" />
      <path
         d="m 126.62377,95.702234 q 0,0.449584 -0.21187,0.888832 -0.20671,0.439248 -0.58394,0.744138 -0.41341,0.330728 -0.96635,0.516763 -0.54777,0.186035 -1.32291,0.186035 -0.83199,0 -1.49861,-0.155029 -0.66146,-0.155029 -1.34876,-0.459919 v -1.281571 h 0.0724 q 0.58394,0.485756 1.34875,0.749305 0.76481,0.263549 1.4366,0.263549 0.95085,0 1.47794,-0.356566 0.53227,-0.356566 0.53227,-0.950843 0,-0.511595 -0.25321,-0.754474 -0.24805,-0.242878 -0.75965,-0.377236 -0.38757,-0.103353 -0.84232,-0.170532 -0.44958,-0.06718 -0.95601,-0.170532 -1.02319,-0.21704 -1.51928,-0.73897 -0.49093,-0.527098 -0.49093,-1.369422 0,-0.966346 0.81649,-1.581293 0.81648,-0.620116 2.07222,-0.620116 0.81131,0 1.48827,0.155029 0.67696,0.155029 1.19889,0.382405 v 1.209224 h -0.0723 q -0.43925,-0.372069 -1.15755,-0.614947 -0.71313,-0.248046 -1.46244,-0.248046 -0.82165,0 -1.32291,0.341063 -0.4961,0.341063 -0.4961,0.878497 0,0.480589 0.24805,0.754473 0.24805,0.273884 0.87333,0.418578 0.33073,0.07235 0.94051,0.175699 0.60978,0.103353 1.03352,0.211873 0.85783,0.227375 1.29191,0.687294 0.43408,0.459919 0.43408,1.286739 z"
         id="path1721" />
      <path
         d="m 133.18149,92.126237 -3.36929,7.901303 h -1.03869 l 1.07486,-2.408116 -2.29959,-5.493187 h 1.05419 l 1.7725,4.278795 1.788,-4.278795 z"
         id="path1723" />
      <path
         d="m 138.57649,96.2345 q 0,0.790647 -0.65629,1.297074 -0.65112,0.506428 -1.78283,0.506428 -0.64078,0 -1.17822,-0.149862 -0.53226,-0.155028 -0.894,-0.335895 v -1.09037 h 0.0517 q 0.45992,0.346231 1.02319,0.552936 0.56327,0.201538 1.08003,0.201538 0.64079,0 1.00252,-0.206705 0.36174,-0.206705 0.36174,-0.651121 0,-0.341063 -0.19637,-0.516763 -0.19637,-0.175699 -0.75448,-0.299722 -0.2067,-0.04651 -0.5426,-0.10852 -0.33073,-0.06201 -0.60461,-0.134359 -0.75964,-0.201537 -1.08003,-0.589109 -0.31523,-0.39274 -0.31523,-0.961179 0,-0.356566 0.14469,-0.671791 0.14987,-0.315225 0.44959,-0.563271 0.28939,-0.242879 0.7338,-0.382405 0.44958,-0.144693 1.00252,-0.144693 0.51676,0 1.04386,0.12919 0.53227,0.124023 0.88367,0.30489 v 1.038693 h -0.0517 q -0.37207,-0.273884 -0.90434,-0.459919 -0.53226,-0.191202 -1.04386,-0.191202 -0.53226,0 -0.89916,0.206705 -0.3669,0.201538 -0.3669,0.604613 0,0.356566 0.2222,0.537433 0.21704,0.180867 0.7028,0.294555 0.26872,0.06201 0.59945,0.124023 0.33589,0.06201 0.5581,0.113687 0.67696,0.155029 1.04386,0.532266 0.3669,0.382404 0.3669,1.012855 z"
         id="path1725" />
      <path
         d="m 142.96898,97.846799 q -0.27389,0.07235 -0.59945,0.118856 -0.32039,0.04651 -0.57361,0.04651 -0.88366,0 -1.34358,-0.475421 -0.45992,-0.475422 -0.45992,-1.52445 v -3.06957 h -0.65629 v -0.816485 h 0.65629 V 90.46743 h 0.97152 v 1.658809 h 2.00504 v 0.816485 h -2.00504 v 2.630322 q 0,0.454751 0.0207,0.713132 0.0207,0.253214 0.14469,0.475422 0.11369,0.206705 0.31006,0.30489 0.20154,0.09302 0.60978,0.09302 0.23771,0 0.49609,-0.06718 0.25838,-0.07235 0.37207,-0.118856 h 0.0517 z"
         id="path1727" />
      <path
         d="m 148.97892,95.113125 h -4.25296 q 0,0.532265 0.1602,0.930173 0.1602,0.392739 0.43925,0.645953 0.26872,0.248046 0.63562,0.372069 0.37207,0.124023 0.81648,0.124023 0.58911,0 1.18339,-0.232543 0.59944,-0.237711 0.85266,-0.465086 h 0.0517 v 1.059363 q -0.49092,0.206705 -1.00252,0.346231 -0.51159,0.139526 -1.07486,0.139526 -1.4366,0 -2.24275,-0.775144 -0.80615,-0.780312 -0.80615,-2.211744 0,-1.41593 0.76997,-2.247918 0.77515,-0.831988 2.03605,-0.831988 1.16788,0 1.79833,0.682127 0.63562,0.682127 0.63562,1.93786 z m -0.94567,-0.744138 q -0.005,-0.764809 -0.38758,-1.183387 -0.37723,-0.418578 -1.15238,-0.418578 -0.78031,0 -1.2454,0.459919 -0.45991,0.459919 -0.52193,1.142046 z"
         id="path1729" />
      <path
         d="m 158.87493,97.898476 h -0.97151 v -3.286611 q 0,-0.372069 -0.0362,-0.7183 -0.031,-0.346231 -0.13953,-0.552936 -0.11885,-0.222208 -0.34106,-0.335896 -0.22221,-0.113688 -0.64079,-0.113688 -0.40824,0 -0.81648,0.206705 -0.40825,0.201538 -0.81649,0.516763 0.0155,0.118855 0.0258,0.279052 0.0103,0.155029 0.0103,0.310058 v 3.694853 h -0.97152 v -3.286611 q 0,-0.382404 -0.0362,-0.723468 -0.031,-0.346231 -0.13953,-0.552936 -0.11885,-0.222208 -0.34106,-0.330728 -0.22221,-0.113688 -0.64079,-0.113688 -0.3979,0 -0.80098,0.19637 -0.39791,0.19637 -0.79581,0.50126 v 4.309801 h -0.97152 v -5.772239 h 0.97152 v 0.640785 q 0.45475,-0.377236 0.90433,-0.589109 0.45475,-0.211873 0.96635,-0.211873 0.58911,0 0.99735,0.248046 0.41341,0.248046 0.61495,0.687295 0.58911,-0.496093 1.07486,-0.713133 0.48576,-0.222208 1.0387,-0.222208 0.95084,0 1.40042,0.578774 0.45475,0.573607 0.45475,1.607132 z"
         id="path1731" />
      <path
         d="m 68.40529,105.75844 q 0,0.51159 -0.180867,0.95084 -0.175699,0.43408 -0.496092,0.75447 -0.397907,0.39791 -0.940508,0.59945 -0.542601,0.19637 -1.369421,0.19637 h -1.02319 v 2.86803 h -1.02319 v -7.6946 h 2.087721 q 0.692462,0 1.173051,0.11886 0.480589,0.11369 0.852659,0.36173 0.439248,0.29456 0.676959,0.73381 0.242878,0.43924 0.242878,1.11104 z m -1.064531,0.0258 q 0,-0.3979 -0.139526,-0.69246 -0.139526,-0.29455 -0.423745,-0.48059 -0.248046,-0.16019 -0.568439,-0.22737 -0.315225,-0.0724 -0.800982,-0.0724 h -1.012855 v 3.07474 h 0.862993 q 0.620116,0 1.007688,-0.10852 0.387572,-0.11369 0.63045,-0.35657 0.242879,-0.24804 0.341064,-0.52193 0.103352,-0.27388 0.103352,-0.61495 z"
         id="path1733" />
      <path
         d="m 70.663543,111.1276 h -0.971514 v -8.04083 h 0.971514 z"
         id="path1735" />
      <path
         d="m 77.081736,111.1276 h -0.966347 v -0.61495 q -0.12919,0.0879 -0.351398,0.24805 -0.217041,0.15503 -0.423746,0.24804 -0.242878,0.11886 -0.558103,0.19637 -0.315226,0.0827 -0.738971,0.0827 -0.780312,0 -1.322912,-0.51677 -0.542601,-0.51676 -0.542601,-1.31774 0,-0.65629 0.279052,-1.05936 0.284219,-0.40825 0.806149,-0.64079 0.527098,-0.23254 1.266069,-0.31523 0.738971,-0.0827 1.586461,-0.12402 v -0.14986 q 0,-0.33073 -0.118855,-0.54777 -0.113688,-0.21704 -0.330728,-0.34106 -0.206705,-0.11886 -0.496092,-0.1602 -0.289387,-0.0413 -0.604613,-0.0413 -0.382404,0 -0.852658,0.10335 -0.470254,0.0982 -0.971514,0.28939 h -0.05168 v -0.98702 q 0.284219,-0.0775 0.821652,-0.17053 0.537434,-0.093 1.059364,-0.093 0.60978,0 1.059363,0.10335 0.454752,0.0982 0.78548,0.34106 0.32556,0.23771 0.496092,0.61495 0.170532,0.37724 0.170532,0.93534 z m -0.966347,-1.4211 v -1.60713 q -0.444416,0.0258 -1.049028,0.0775 -0.599445,0.0517 -0.950843,0.14986 -0.418578,0.11885 -0.676959,0.37207 -0.258382,0.24804 -0.258382,0.68729 0,0.49609 0.299723,0.74931 0.299722,0.24804 0.91467,0.24804 0.511595,0 0.93534,-0.19637 0.423746,-0.20154 0.785479,-0.48059 z"
         id="path1737" />
      <path
         d="m 83.789315,111.1276 h -0.971514 v -3.28661 q 0,-0.39791 -0.04651,-0.74414 -0.04651,-0.3514 -0.170532,-0.54777 -0.129191,-0.21704 -0.372069,-0.32039 -0.242879,-0.10852 -0.630451,-0.10852 -0.397907,0 -0.831988,0.19637 -0.43408,0.19637 -0.831988,0.50126 v 4.3098 H 78.96275 v -5.77224 h 0.971513 v 0.64079 q 0.454752,-0.37724 0.940509,-0.58911 0.485756,-0.21188 0.997352,-0.21188 0.93534,0 1.426265,0.56328 0.490924,0.56327 0.490924,1.62263 z"
         id="path1739" />
      <path
         d="m 90.486559,111.1276 h -0.971514 v -3.28661 q 0,-0.39791 -0.04651,-0.74414 -0.04651,-0.3514 -0.170531,-0.54777 -0.129191,-0.21704 -0.37207,-0.32039 -0.242878,-0.10852 -0.63045,-0.10852 -0.397907,0 -0.831988,0.19637 -0.434081,0.19637 -0.831988,0.50126 v 4.3098 h -0.971514 v -5.77224 h 0.971514 v 0.64079 q 0.454751,-0.37724 0.940508,-0.58911 0.485757,-0.21188 0.997352,-0.21188 0.935341,0 1.426265,0.56328 0.490925,0.56327 0.490925,1.62263 z"
         id="path1741" />
      <path
         d="m 93.401101,104.38901 h -1.095537 v -1.00768 h 1.095537 z m -0.06201,6.73859 h -0.971514 v -5.77224 h 0.971514 z"
         id="path1743" />
      <path
         d="m 100.09834,111.1276 h -0.971509 v -3.28661 q 0,-0.39791 -0.04651,-0.74414 -0.04651,-0.3514 -0.170532,-0.54777 -0.12919,-0.21704 -0.372069,-0.32039 -0.242878,-0.10852 -0.63045,-0.10852 -0.397907,0 -0.831988,0.19637 -0.434081,0.19637 -0.831988,0.50126 v 4.3098 H 95.27178 v -5.77224 h 0.971514 v 0.64079 q 0.454751,-0.37724 0.940508,-0.58911 0.485757,-0.21188 0.997352,-0.21188 0.935341,0 1.426265,0.56328 0.490921,0.56327 0.490921,1.62263 z"
         id="path1745" />
      <path
         d="m 106.6509,110.47131 q 0,1.46761 -0.66663,2.1549 -0.66662,0.6873 -2.05155,0.6873 -0.45991,0 -0.89916,-0.0672 -0.43408,-0.062 -0.85783,-0.18087 v -0.99218 h 0.0517 q 0.23771,0.093 0.75447,0.22737 0.51676,0.13953 1.03353,0.13953 0.49609,0 0.82165,-0.11886 0.32556,-0.11885 0.50643,-0.33073 0.18086,-0.20153 0.25838,-0.48575 0.0775,-0.28422 0.0775,-0.63562 v -0.5271 q -0.43925,0.3514 -0.84232,0.5271 -0.39791,0.17053 -1.01802,0.17053 -1.03353,0 -1.64331,-0.74414 -0.60461,-0.7493 -0.60461,-2.10839 0,-0.74414 0.2067,-1.28157 0.21188,-0.5426 0.57361,-0.93534 0.3359,-0.3669 0.81649,-0.56844 0.48058,-0.20671 0.95601,-0.20671 0.50126,0 0.83715,0.10336 0.34107,0.0982 0.7183,0.30489 l 0.062,-0.24805 h 0.90951 z m -0.97152,-0.93017 v -3.14709 q -0.38757,-0.1757 -0.72347,-0.24804 -0.33072,-0.0775 -0.66145,-0.0775 -0.80098,0 -1.2609,0.53744 -0.45992,0.53743 -0.45992,1.56062 0,0.97151 0.34106,1.47277 0.34106,0.50126 1.13171,0.50126 0.42375,0 0.84749,-0.16019 0.42892,-0.16537 0.78548,-0.43925 z"
         id="path1747" />
      <path
         d="m 119.2134,111.1276 h -1.02319 v -6.63006 l -2.1394,4.51133 h -0.60978 l -2.1239,-4.51133 v 6.63006 h -0.95601 v -7.6946 h 1.39526 l 2.05155,4.28397 1.98437,-4.28397 h 1.4211 z"
         id="path1749" />
      <path
         d="m 126.13285,108.24406 q 0,1.41077 -0.72347,2.22725 -0.72347,0.81649 -1.93786,0.81649 -1.22473,0 -1.9482,-0.81649 -0.7183,-0.81648 -0.7183,-2.22725 0,-1.41076 0.7183,-2.22724 0.72347,-0.82166 1.9482,-0.82166 1.21439,0 1.93786,0.82166 0.72347,0.81648 0.72347,2.22724 z m -1.00252,0 q 0,-1.12137 -0.43925,-1.66397 -0.43925,-0.54777 -1.21956,-0.54777 -0.79065,0 -1.2299,0.54777 -0.43408,0.5426 -0.43408,1.66397 0,1.08521 0.43925,1.64848 0.43925,0.5581 1.22473,0.5581 0.77514,0 1.21439,-0.55293 0.44442,-0.55811 0.44442,-1.65365 z"
         id="path1751" />
      <path
         d="m 132.32367,111.1276 h -0.97152 v -0.60461 q -0.41857,0.36173 -0.87333,0.56327 -0.45475,0.20154 -0.98701,0.20154 -1.03353,0 -1.64331,-0.79582 -0.60461,-0.79581 -0.60461,-2.20657 0,-0.73381 0.20671,-1.30741 0.21187,-0.57361 0.56843,-0.97669 0.3514,-0.39274 0.81649,-0.59944 0.47025,-0.20671 0.97151,-0.20671 0.45475,0 0.80615,0.0982 0.3514,0.093 0.73897,0.29455 v -2.50113 h 0.97152 z m -0.97152,-1.4211 v -3.31245 q -0.39274,-0.1757 -0.70279,-0.24287 -0.31006,-0.0672 -0.67696,-0.0672 -0.81649,0 -1.27124,0.56844 -0.45475,0.56843 -0.45475,1.61229 0,1.02836 0.3514,1.5658 0.3514,0.53226 1.12654,0.53226 0.41341,0 0.83716,-0.18087 0.42374,-0.18603 0.79064,-0.47542 z"
         id="path1753" />
      <path
         d="m 139.06742,108.34225 h -4.25296 q 0,0.53226 0.1602,0.93017 0.16019,0.39274 0.43924,0.64596 0.26872,0.24804 0.63562,0.37206 0.37207,0.12403 0.81649,0.12403 0.58911,0 1.18338,-0.23255 0.59945,-0.23771 0.85266,-0.46508 h 0.0517 v 1.05936 q -0.49093,0.20671 -1.00252,0.34623 -0.5116,0.13953 -1.07487,0.13953 -1.4366,0 -2.24275,-0.77515 -0.80615,-0.78031 -0.80615,-2.21174 0,-1.41593 0.76998,-2.24792 0.77514,-0.83199 2.03604,-0.83199 1.16789,0 1.79834,0.68213 0.63562,0.68213 0.63562,1.93786 z m -0.94568,-0.74414 q -0.005,-0.76481 -0.38757,-1.18339 -0.37724,-0.41857 -1.15238,-0.41857 -0.78031,0 -1.2454,0.45992 -0.45992,0.45991 -0.52193,1.14204 z"
         id="path1755" />
      <path
         d="m 141.52204,111.1276 h -0.97152 v -8.04083 h 0.97152 z"
         id="path1757" />
    </g>
  </g>
</svg>
