<?xml version="1.0" encoding="UTF-8" standalone="no"?>
<!-- Created with Inkscape (http://www.inkscape.org/) -->

<svg
   version="1.1"
   id="svg1332"
   width="662.27924"
   height="204.09332"
   viewBox="0 0 662.27924 204.09332"
   sodipodi:docname="TACO.svg"
   inkscape:version="1.2.2 (b0a84865, 2022-12-01)"
   xmlns:inkscape="http://www.inkscape.org/namespaces/inkscape"
   xmlns:sodipodi="http://sodipodi.sourceforge.net/DTD/sodipodi-0.dtd"
   xmlns="http://www.w3.org/2000/svg"
   xmlns:svg="http://www.w3.org/2000/svg">
  <defs
     id="defs1336" />
  <sodipodi:namedview
     id="namedview1334"
     pagecolor="#ffffff"
     bordercolor="#666666"
     borderopacity="1.0"
     inkscape:showpageshadow="2"
     inkscape:pageopacity="0.0"
     inkscape:pagecheckerboard="0"
     inkscape:deskcolor="#d1d1d1"
     showgrid="false"
     inkscape:zoom="1.071292"
     inkscape:cx="327.64175"
     inkscape:cy="105.48011"
     inkscape:window-width="729"
     inkscape:window-height="480"
     inkscape:window-x="0"
     inkscape:window-y="25"
     inkscape:window-maximized="0"
     inkscape:current-layer="g1338" />
  <g
     inkscape:groupmode="layer"
     inkscape:label="Image"
     id="g1338"
     transform="translate(-12.257663,-5.034896)">
    <g
       id="g1459">
      <path
         style="fill:#cdcdcd;stroke-width:1.00525"
         d="m 537.5,207.22239 c -12.58557,-3.80206 -21.45267,-9.07585 -31.33471,-18.6366 -8.33115,-8.06028 -14.16116,-16.40021 -19.61681,-28.06215 -7.4223,-15.86583 -9.04848,-23.73893 -9.04848,-43.80785 0,-14.91877 0.30218,-18.233491 2.29681,-25.194231 3.91248,-13.653539 10.48864,-25.191032 19.66424,-34.499779 9.867,-10.010187 18.86877,-14.910952 31.55203,-17.17764 12.29383,-2.197093 16.18928,-3.166971 28.7668,-7.162277 11.2379,-3.569773 11.32866,-3.624234 24.39066,-14.63616 7.21093,-6.07918 14.03202,-11.5512734 15.15797,-12.1602082 1.29495,-0.7003303 5.37707,-0.8988533 11.10934,-0.5402722 10.11334,0.6326386 21.29393,3.9851618 27.7997,8.3357924 14.78286,9.885811 28.73865,30.498747 33.91727,50.096374 1.77458,6.715596 2.22863,11.097838 2.18693,21.106823 -0.0636,15.252898 -2.12555,24.071118 -9.0509,38.706788 l -4.68772,9.90678 -27.05156,23.28313 C 618.6732,169.58663 604.025,182.98725 601,186.56006 c -9.09081,10.73711 -19.98849,17.8833 -32.33868,21.20621 -7.35216,1.97815 -23.76089,1.69176 -31.16132,-0.54388 z m 28.95845,-7.67496 c 15.06738,-3.96587 27.52973,-14.66504 35.00883,-30.05579 6.9402,-14.28176 8.04855,-19.67333 7.94089,-38.62848 -0.0821,-14.46017 -0.37339,-17.10672 -2.75673,-25.04925 C 596.71744,72.708578 574.13307,50.859803 545.88588,47.027548 532.95673,45.273469 516.71284,51.602382 506,62.5678 c -14.57429,14.917917 -20.88546,33.721775 -19.70002,58.69536 2.34179,49.33403 42.21206,88.27209 80.15847,78.28427 z m -38.55867,-53.99062 c -1.43013,-0.43769 -5.25513,-2.51523 -8.5,-4.61676 -3.24488,-2.10153 -9.51876,-5.50532 -13.94195,-7.56398 -8.03519,-3.73978 -11.83786,-7.11759 -15.19491,-13.49721 -2.37948,-4.52189 -2.10036,-13.2413 0.59409,-18.55882 3.62881,-7.161455 5.12781,-7.671288 21.9471,-7.46455 17.12538,0.210498 26.69222,1.483582 30.19589,4.018241 6.61875,4.788209 12.73336,18.976389 11.6429,27.015919 -0.68054,5.01733 -4.35691,12.87218 -7.69584,16.44276 -4.28843,4.58598 -12.16091,6.33196 -19.04728,4.2244 z M 533.5,141.98756 c -0.55,-0.1854 -2.22925,-0.6108 -3.73166,-0.94535 -4.2045,-0.93621 -9.27942,-6.07226 -11.76182,-11.90348 -1.813,-4.25882 -2.14839,-6.50513 -1.7396,-11.65138 0.81904,-10.31099 6.29157,-16.43472 14.68703,-16.43472 12.20719,0 21.02738,14.26982 17.80131,28.8 l -0.67308,3.03158 1.4138,-3.03158 c 3.29531,-7.06601 0.29804,-19.69879 -6.33844,-26.715 -4.16095,-4.399024 -4.93768,-4.549302 -29.42527,-5.693027 -16.02832,-0.748623 -17.49651,-0.234654 -20.26646,7.094697 -2.24245,5.93359 -1.48218,11.75628 2.2385,17.14406 2.22822,3.22659 5.02627,5.22968 12.82292,9.1798 5.48502,2.77895 11.77277,6.23167 13.97277,7.67272 4.93661,3.23361 6.32864,3.78878 9.5,3.78878 1.375,0 2.05,-0.1517 1.5,-0.3371 z M 543.31098,139.2 c 1.80489,-1.80631 2.05958,-2.21112 0.56599,-0.89957 -1.49359,1.31155 -4.21442,2.7429 -6.04629,3.18077 -3.15733,0.7547 -3.18679,0.80151 -0.56599,0.89958 1.86827,0.0699 3.82869,-0.96143 6.04629,-3.18078 z m -1.11459,-4.69291 c 6.75383,-7.63775 4.13209,-21.80436 -5.22019,-28.2074 -9.12687,-6.24871 -19.3479,3.87818 -17.00147,16.84489 2.39905,13.25747 14.89566,19.64731 22.22166,11.36251 z m 93.54384,15.72593 22.03508,-19.03014 4.58857,-9.85787 c 8.17774,-17.5687 10.51562,-34.440553 7.19933,-51.955669 C 664.75237,43.98065 645.74517,18.595629 626.75136,12.21206 621.12479,10.321045 608.69861,8.1479181 603.5,8.1457954 602.4,8.1453462 594.975,13.609538 587,20.288444 572.66345,32.295025 572.38496,32.467671 562.29443,35.604518 l -10.20557,3.172609 9.36228,3.168161 c 25.64283,8.677444 44.81477,30.473919 54.21229,61.633662 2.55785,8.48118 2.74567,10.35593 2.78405,27.78947 l 0.0412,18.69474 -3.52005,10.28128 c -1.93602,5.6547 -3.0123,9.9747 -2.39174,9.6 0.62056,-0.37471 11.04408,-9.24484 23.16338,-19.71142 z m -249.51539,49.32387 c -17.71206,-3.88716 -33.25673,-16.56523 -41.58963,-33.92006 -5.62419,-11.71344 -8.4465,-23.27065 -9.23216,-37.80525 -2.19436,-40.59508 17.88085,-74.722353 48.19998,-81.938582 9.15361,-2.178644 26.13396,-1.421608 35.66372,1.589999 l 6.76676,2.138438 6.98564,-2.27356 c 4.30947,-1.402568 7.3029,-1.906715 7.8138,-1.31598 1.56093,1.804874 14.19791,36.973802 13.62317,37.91353 -1.34467,2.19863 -4.21584,0.475764 -7.92955,-4.758193 -5.58626,-7.873045 -16.22994,-17.723992 -23.72947,-21.962111 -13.80931,-7.803896 -29.92844,-8.885268 -42.11031,-2.825025 -12.78652,6.361045 -23.01851,21.46067 -27.84706,41.094642 -3.26612,13.280822 -3.30223,37.996122 -0.072,49.305082 6.76226,23.67469 22.14493,39.79469 42.03151,44.04622 10.77372,2.30329 22.20172,0.99042 32.20078,-3.69933 6.85887,-3.21694 19.36096,-15.62651 23.89193,-23.71513 3.30645,-5.90264 3.76149,-6.26926 6.47505,-5.21701 3.62357,1.40512 -8.60065,22.1263 -18.10112,30.68306 -13.36452,12.037 -33.72941,16.89747 -53.04102,12.65926 z M 53.183578,195.28421 c 0.303179,-2.66263 0.609397,-2.80648 7.316422,-3.43695 8.454806,-0.79475 11.781698,-2.00614 13.899086,-5.06096 C 75.823318,184.73153 76,177.85711 76,124.49742 V 64.51822 L 73.170137,61.658568 C 69.532925,57.98307 61.736186,56.84903 51.642007,58.52729 c -13.761733,2.288028 -24.040144,9.478457 -32.65982,22.847708 -2.902679,4.502099 -4.5906,6.241434 -5.656012,5.828294 -2.004954,-0.777471 -1.58456,-2.628444 4.71709,-20.769091 l 5.180496,-14.913169 59.505657,0.260537 59.505652,0.260537 6.02853,17.533352 c 4.9281,14.332908 5.77369,17.696408 4.63246,18.426633 -0.76783,0.491302 -1.67508,0.900241 -2.0161,0.908752 -0.34102,0.0085 -3.15534,-4.025907 -6.25405,-8.965373 -8.80699,-14.038708 -15.56837,-19.19928 -28.02753,-21.391787 -12.67037,-2.229675 -24.373504,0.711799 -26.623306,6.691514 -1.29472,3.44122 -1.3133,116.629533 -0.01971,120.067753 1.583503,4.20877 5.432248,5.97492 14.128946,6.48367 L 112,192.25968 v 2.90174 2.90174 H 82.433577 52.867154 Z m 115.483092,2.10526 C 168.3,197.01895 168,195.71332 168,194.48808 c 0,-1.90354 0.71163,-2.3231 4.89045,-2.88327 6.63709,-0.88971 9.83776,-3.75299 13.61547,-12.18022 1.75788,-3.92142 12.99648,-34.92323 24.97467,-68.89291 l 21.77854,-61.763047 5.13976,-2.152737 c 2.82687,-1.184005 5.58107,-2.141475 6.12044,-2.12771 0.53937,0.01376 12.68067,30.759928 26.98067,68.324804 14.3,37.56488 26.78339,69.61672 27.74086,71.22632 2.35215,3.95417 7.26271,6.8068 13.06245,7.5882 4.45692,0.60049 4.78143,0.83766 4.5,3.28877 L 316.5,197.5579 290.25,197.8273 264,198.09672 v -2.90881 c 0,-2.8439 0.14828,-2.92416 6.64566,-3.59685 9.65163,-0.99925 12.31036,-2.71095 12.33903,-7.94395 0.0129,-2.35315 -5.75148,-18.89618 -12.49448,-35.85763 l -1.70737,-4.29474 h -30.67948 -30.67948 l -5.85754,15.91579 c -6.49477,17.64727 -7.88043,25.40511 -5.09352,28.51701 1.76463,1.97043 9.28838,4.07246 14.5764,4.07246 2.61198,0 2.95078,0.34808 2.95078,3.03158 v 3.03158 h -22.33333 c -12.28334,0 -22.63334,-0.30316 -23,-0.67369 z m 97.06944,-62.23157 c -1.04391,-2.7594 -27.02076,-72.117723 -27.64016,-73.799376 -0.43359,-1.177197 -5.31914,11.190581 -14.12935,35.768501 -7.40663,20.662325 -13.6166,37.956255 -13.79993,38.430945 -0.18334,0.4747 12.35231,0.86308 27.85699,0.86308 22.14045,0 28.08776,-0.27108 27.71245,-1.26315 z"
         id="path1473" />
      <path
         style="fill:#aeaeae;stroke-width:1.00525"
         d="m 537,206.81063 c -28.98518,-8.73429 -51.00667,-35.36033 -58.2168,-70.38958 -2.81995,-13.70026 -2.11832,-33.16046 1.65641,-45.941321 6.45387,-21.85219 18.61129,-37.236855 36.08908,-45.669098 6.62939,-3.198379 18.1338,-6.354209 23.30565,-6.393084 1.28389,-0.0096 8.84471,-2.060168 16.80183,-4.556704 l 14.46748,-4.539158 11.69818,-9.923347 C 601.36771,3.6492373 599.46779,4.6394307 609.70271,5.3782636 c 19.89317,1.4360363 31.90478,7.9468704 44.86945,24.3212794 19.72637,24.914434 25.06813,54.517415 14.98284,83.031857 -6.43091,18.1823 -7.17549,19.09355 -35.555,43.5144 -14.025,12.06866 -30,26.59761 -35.5,32.28658 -10.8526,11.22546 -18.3412,15.94696 -30.23093,19.06033 -8.83347,2.31307 -22.0987,1.9813 -31.26907,-0.78208 z M 566.74407,199.66 c 26.53685,-7.13889 43.26881,-33.37691 43.22728,-67.78631 -0.0329,-27.22771 -9.37839,-49.846371 -27.85112,-67.40711 -29.87214,-28.397375 -70.46771,-21.677851 -88.05068,14.574457 -6.43814,13.274078 -7.57887,18.99703 -7.50951,37.674753 0.0691,18.6152 1.57061,25.85154 8.43569,40.65547 9.85963,21.26136 27.00769,36.93558 46.07588,42.11576 6.97334,1.89443 18.97294,1.97527 25.67246,0.17298 z m -38.99284,-54.51652 c -2.06182,-0.77535 -6.56182,-3.25001 -10,-5.49925 -3.43817,-2.24924 -8.92512,-5.14513 -12.19321,-6.4353 C 495.16093,129.10437 489,120.92469 489,111.22535 c 0,-6.04725 1.87109,-11.14485 5.39952,-14.710414 2.43996,-2.465645 2.89715,-2.535987 16.48267,-2.535987 16.74444,0 28.69885,1.459838 32.11781,3.922135 3.36616,2.424266 8.72435,11.545256 10.60753,18.056696 1.25522,4.34012 1.32699,6.31431 0.39456,10.85308 -1.21978,5.93754 -5.91128,13.84539 -10.01627,16.88316 -3.37824,2.49997 -11.51035,3.22602 -16.23459,1.44946 z m 16.32273,-5.92105 c 7.87968,-7.96263 9.07367,-18.40232 3.4125,-29.83743 -1.93244,-3.90339 -4.16969,-7.64737 -4.97165,-8.31995 -2.52876,-2.120772 -8.51605,-2.957471 -25.80353,-3.60593 -14.45335,-0.542152 -17.13038,-0.40354 -19.24479,0.996459 -5.2369,3.467471 -7.0203,13.763181 -3.56381,20.574151 2.6465,5.2149 5.60849,7.74059 13.11771,11.18547 3.56378,1.6349 9.83392,5.06425 13.93363,7.62078 6.76443,4.21822 8.02934,4.64823 13.67307,4.64823 5.67428,0 6.50182,-0.28573 9.44687,-3.26178 z m -16.89433,0.55179 c -9.0613,-4.51223 -13.77719,-19.29591 -9.28959,-29.12159 3.13414,-6.86223 6.34925,-9.09473 13.0977,-9.09473 5.00626,0 6.35776,0.43441 9.59905,3.08543 5.27268,4.31244 7.79858,9.73937 8.24665,17.71799 0.29896,5.32334 -0.0555,7.50637 -1.77016,10.9028 -3.82095,7.56853 -12.22958,10.3216 -19.88365,6.5101 z m 13.30669,-3.52283 c 13.07798,-10.39543 0.55563,-37.862468 -14.05238,-30.82307 -10.27568,4.95171 -9.05908,24.30231 1.95462,31.08897 4.11103,2.53321 8.70331,2.43228 12.09776,-0.2659 z m 120.11315,-10.39853 c 1.79648,-3.27852 4.72159,-10.31347 6.50025,-15.63323 2.7805,-8.31612 3.2952,-11.443315 3.67095,-22.303839 0.49887,-14.419239 -1.45003,-25.18823 -6.65956,-36.798553 -7.05089,-15.714093 -20.08025,-30.804233 -31.53857,-36.526852 -7.16745,-3.579635 -19.05057,-6.401703 -27.24766,-6.4709201 -4.1837,-0.035328 -7.88954,2.6640121 -31.45939,22.9150211 -0.89898,0.772396 -6.52318,2.917313 -12.49822,4.766481 l -10.86371,3.362125 5.65974,1.187326 c 17.58492,3.689043 37.98877,19.807376 48.92241,38.647013 14.96251,25.781718 18.30363,59.977788 8.33349,85.292378 -1.33056,3.37835 -2.4192,6.45737 -2.4192,6.84227 0,0.3849 10.42496,-8.30425 23.16657,-19.30922 19.70314,-17.01768 23.65489,-20.90021 26.4329,-25.97 z M 387,199.52334 C 372.06935,196.28286 357.52802,186.14776 348.65868,172.8 336.02643,153.78932 331.93067,122.28523 338.60843,95.494738 c 2.17892,-8.741616 9.46974,-23.265794 15.2935,-30.466483 5.63088,-6.96221 15.54236,-14.050925 24.59807,-17.592609 5.13283,-2.007447 7.87887,-2.355314 19,-2.40691 11.03812,-0.05121 14.18205,0.308773 20.83266,2.385374 l 7.83265,2.445687 6.99979,-2.278163 c 3.84989,-1.252991 7.22015,-2.055481 7.48949,-1.783313 0.26933,0.27217 3.59417,8.818104 7.38853,18.990966 6.62081,17.750739 7.0497,20.000129 3.82849,20.079451 -0.34562,0.0085 -2.52275,-2.465812 -4.83807,-5.498495 -6.43197,-8.424779 -17.87003,-18.883303 -24.54008,-22.438498 -9.59185,-5.112547 -16.43047,-6.693479 -26.94394,-6.228816 -11.12368,0.491632 -17.70485,3.32696 -25.33177,10.91355 -13.98779,13.913829 -21.16801,37.215841 -19.9062,64.601721 0.66144,14.35584 2.31894,21.68088 7.22488,31.92917 9.19318,19.20415 24.92904,30.37481 44.46357,31.56401 20.56255,1.25178 36.29337,-7.52905 48.08391,-26.84015 4.31377,-7.06529 6.42733,-8.70255 7.51994,-5.8253 0.6283,1.65455 -4.07089,11.62261 -8.64929,18.34713 C 435.27021,195.49194 411.35053,204.80826 387,199.52334 Z M 54,195.04708 c 0,-3.00144 0.07863,-3.04716 5.25,-3.05272 7.275788,-0.008 12.294068,-1.61617 14.704514,-4.71281 C 75.962504,184.70193 76,183.5642 76,125.21653 76,83.808454 75.66322,65.032377 74.889728,63.316877 73.415153,60.046471 69.816354,58.487445 62.274566,57.8519 44.93393,56.390607 30.125517,64.286602 18.911787,80.973373 c -3.990214,5.937703 -5.547484,7.056541 -6.46366,4.643892 -0.417978,-1.1007 3.143482,-12.298624 9.154357,-28.783075 l 1.568915,-4.302653 59.6643,0.260547 59.664301,0.260548 5.67919,16.673685 c 3.12356,9.170526 5.71106,16.9617 5.75,17.31372 0.0389,0.352019 -0.79139,0.867879 -1.84519,1.146353 -1.52987,0.404284 -2.93061,-1.171523 -6.95072,-7.81944 -2.7691,-4.579168 -7.52671,-10.627265 -10.57246,-13.440216 -7.45331,-6.883607 -13.17824,-8.82147 -26.06082,-8.82147 -11.206094,0 -16.364471,1.730394 -18.361443,6.159406 -1.552032,3.442195 -1.615625,118.49795 -0.06739,121.93172 1.685681,3.73861 4.781997,5.05596 13.409843,5.70533 7.72765,0.58162 8.01899,0.69533 8.01899,3.12986 v 2.52632 L 82.75,197.82603 54,198.09415 Z m 115,0.004 C 169,192.45997 169.38175,192 171.53212,192 c 4.15077,0 9.03443,-2.59216 11.8089,-6.26797 3.15636,-4.18176 2.97206,-3.69135 27.77028,-73.89612 10.96036,-31.029195 20.53787,-57.891916 21.28337,-59.694931 1.02382,-2.476132 2.63883,-3.836116 6.6008,-5.558449 2.88494,-1.254131 5.59139,-1.902989 6.01435,-1.44191 0.42295,0.46108 12.39169,31.271601 26.5972,68.46782 14.2055,37.19622 26.7464,69.0278 27.86866,70.73685 2.35141,3.58087 9.66183,7.65471 13.73621,7.65471 2.43123,0 2.78811,0.38804 2.78811,3.03158 v 3.03158 h -26 -26 v -2.89323 c 0,-2.82604 0.14743,-2.90518 6.34816,-3.40816 15.12347,-1.22675 15.65658,-3.94416 5.81673,-29.64967 L 269.23174,144 l -30.94943,-0.26679 -30.94942,-0.2668 -5.75943,15.6221 c -7.00753,19.00749 -7.82871,22.33993 -6.517,26.44682 1.24948,3.91206 4.56547,5.52997 12.74634,6.21905 6.09194,0.51313 6.29267,0.61909 6,3.16721 l -0.3028,2.63631 -22.25,0.27196 -22.25,0.27196 v -3.05091 z m 97,-59.14025 c 0,-0.62406 -28.07334,-75.669632 -28.45585,-76.068089 -0.14981,-0.156055 -6.25148,16.44184 -13.55927,36.884211 -7.30779,20.442158 -13.49209,37.736158 -13.74288,38.430898 -0.35791,0.99149 5.5889,1.26315 27.65101,1.26315 15.45885,0 28.10699,-0.22967 28.10699,-0.51038 z"
         id="path1471" />
      <path
         style="fill:#919191;stroke-width:1.00525"
         d="m 539.56647,207.56028 c -26.68125,-6.52152 -50.55946,-32.40507 -59.10202,-64.06554 -3.5309,-13.08624 -4.37373,-31.2897 -2.02944,-43.831705 6.43207,-34.411573 28.53014,-57.314293 58.59151,-60.725002 3.03959,-0.344865 11.93159,-2.619071 19.76002,-5.053789 l 14.23349,-4.42676 14.07561,-11.853814 C 601.31942,3.9407618 601.98195,3.7116977 617.45425,6.4158855 c 12.68011,2.2161807 21.19182,6.7112395 30.29467,15.9987035 8.97693,9.158989 13.29087,15.194523 18.28737,25.585412 6.17648,12.844804 8.2527,23.551735 7.74024,39.91579 -0.37768,12.060184 -0.8032,14.763879 -3.66953,23.316059 -6.27189,18.7132 -7.54244,20.29746 -35.607,44.39862 -13.75,11.80817 -29.725,26.33748 -35.5,32.28735 -11.61718,11.96897 -19.44933,16.93155 -31.10311,19.70751 -7.91515,1.8854 -20.46854,1.85658 -28.33042,-0.0651 z m 29.65032,-8.47168 C 616.64765,184.28449 624.96087,106.15469 583.45753,65.250467 570.87216,52.846772 557.03721,46.926282 541,47.081307 c -10.96412,0.105986 -18.17319,2.27274 -26.78401,8.050189 -24.97702,16.758371 -35.21735,55.278134 -24.02832,90.384294 8.69517,27.28156 27.86608,47.7069 50.81233,54.13718 7.2208,2.02351 20.79539,1.752 28.21679,-0.56437 z m -40.02235,-53.56011 c -1.81806,-0.43501 -5.64306,-2.30212 -8.5,-4.14912 -2.85694,-1.847 -9.46944,-5.47448 -14.69444,-8.06108 -7.9293,-3.92533 -10.07547,-5.51696 -12.98056,-9.62654 -2.98372,-4.2208 -3.52283,-5.86351 -3.77662,-11.50769 -0.23984,-5.33391 0.1505,-7.44749 2.05572,-11.13143 3.63909,-7.036507 4.56432,-7.281214 25.20146,-6.665325 9.9,0.295454 19.73099,0.96857 21.84665,1.495815 5.25417,1.309391 8.13786,4.3389 12.3733,12.99894 2.93661,6.00436 3.59208,8.45738 3.54718,13.27479 -0.10116,10.85278 -6.64162,21.18597 -14.70913,23.23877 -4.9392,1.25679 -5.62942,1.26564 -10.36356,0.13287 z M 543,140.5252 c 1.375,-0.97566 3.76257,-4.2533 5.30571,-7.28367 4.11602,-8.08292 3.91883,-14.13859 -0.77279,-23.73137 -2.01344,-4.11679 -4.64452,-8.13277 -5.84686,-8.92441 -3.03844,-2.000551 -16.84113,-3.575222 -31.3384,-3.575222 -13.45127,0 -14.34266,0.354138 -16.98657,6.748512 -4.49255,10.86537 1.2306,21.48523 14.61623,27.12186 3.56253,1.50017 8.28753,3.97521 10.5,5.5001 10.57272,7.28696 18.26214,8.58643 24.52268,4.1442 z m -16.20958,-1.33132 c -16.69347,-10.21276 -12.51493,-39.40289 5.41742,-37.84467 9.37667,0.81478 16.76206,10.43845 16.78239,21.86859 0.0254,14.29285 -11.45111,22.55194 -22.19981,15.97608 z m 13.5947,-2.86205 C 544.24835,133.26103 546,129.14819 546,123.14818 c 0,-17.46496 -18.56775,-26.113272 -25.05662,-11.67063 -3.5631,7.93059 -1.49934,17.32224 5.13803,23.38182 4.72374,4.31254 10.042,4.86001 14.30371,1.47246 z m 120.6114,-11.25402 c 1.99913,-3.73774 4.95523,-10.78616 6.56913,-15.66316 C 670.30783,101.1281 670.5,99.521579 670.5,84.884212 670.5,71.2739 670.19279,68.232408 668.15599,61.67772 663.54251,46.830964 655.85401,34.285784 644.8346,23.624627 634.90602,14.018845 624.65766,9.6236636 609.43023,8.4408702 l -8.13301,-0.6317331 -14.91449,12.5164849 -14.9145,12.516484 -10.39502,3.023193 -10.39502,3.023194 4.9109,1.331915 c 18.16492,4.926614 35.1988,17.383349 46.31969,33.873187 5.20384,7.716158 11.8346,22.749786 14.13853,32.055675 3.01873,12.19305 3.68265,31.13288 1.50161,42.83681 -1.43387,7.69443 -2.62751,11.40973 -7.29626,22.71024 -0.32326,0.78244 10.14404,-7.85756 23.26067,-19.2 21.72498,-18.78641 24.17207,-21.22774 27.48319,-27.41851 z M 391.5,200.45758 c -31.57569,-4.94509 -52.0853,-30.31435 -55.48596,-68.63307 -3.78194,-42.614981 16.38708,-78.277022 48.59924,-85.931177 8.90754,-2.116581 22.02311,-1.479874 33.28418,1.615808 l 8.39747,2.308473 6.93498,-2.257072 c 3.81424,-1.24139 7.11801,-2.072117 7.34171,-1.846059 0.22371,0.226058 3.52053,8.790673 7.32627,19.032476 6.04909,16.278962 6.71805,18.736851 5.31781,19.538725 -1.21881,0.697976 -2.21302,0.107222 -4.15871,-2.471104 -14.00821,-18.562844 -28.78517,-28.959084 -44.32209,-31.182546 -24.93117,-3.567853 -43.45263,11.970202 -51.915,43.552618 -1.91714,7.154928 -2.25178,10.975798 -2.28315,26.067978 -0.0428,20.59349 1.61134,28.50272 8.67371,41.47317 14.21935,26.11466 44.30455,35.71986 70.28954,22.4411 6.50833,-3.32587 16.41706,-13.59583 21.16321,-21.93471 4.01901,-7.06132 4.05095,-7.08959 6.33679,-5.60784 1.27283,0.82508 0.83285,2.2964 -2.90524,9.71525 -7.71454,15.31076 -21.06378,27.42679 -35.01659,31.78174 -6.45668,2.01526 -21.49387,3.28912 -27.57817,2.33624 z M 54,195.04708 V 192 h 6.032119 c 6.474509,0 12.450034,-1.97116 14.583593,-4.81072 1.059569,-1.41018 1.326969,-13.80422 1.352485,-62.68784 L 76,63.571293 73.625556,61.171855 C 70.676333,58.191587 64.248712,57.111353 54.446767,57.948643 40.878801,59.107628 30.096041,65.361692 22,76.767955 14.602944,87.189441 14.271881,87.539395 13.001826,86.27959 11.921519,85.208003 12.829435,82.160413 22.22556,55.318406 l 0.975548,-2.786857 59.543206,0.260541 59.543206,0.260542 5.82439,16.907986 c 5.37117,15.59231 5.68625,16.982695 4.04916,17.868062 -1.48765,0.804549 -2.31904,0.02994 -5.13217,-4.78167 -11.54023,-19.738535 -22.80763,-26.513022 -41.89761,-25.190793 -8.869689,0.614342 -13.202074,2.437016 -14.936605,6.283969 -1.497329,3.320871 -1.725464,118.233294 -0.242553,122.174694 1.389901,3.69419 4.563749,5.01468 13.547868,5.6366 7.72053,0.53444 8,0.64205 8,3.0801 v 2.52632 L 82.75,197.82603 54,198.09415 Z m 115,0.004 C 169,192.45997 169.38175,192 171.53212,192 c 3.93967,0 8.80925,-2.45411 11.65794,-5.87523 3.17439,-3.81226 3.52134,-4.73276 29.35676,-77.88747 l 20.83821,-59.004799 5.43179,-2.42748 c 2.98748,-1.335114 5.7019,-2.154526 6.03203,-1.820915 0.33014,0.333611 12.35301,31.388666 26.7175,69.011224 23.46336,61.45378 26.51578,68.83433 30.0393,72.63295 3.31631,3.57524 4.73074,4.33668 9.1582,4.93018 4.93779,0.66192 5.23615,0.86725 5.23615,3.60331 v 2.90139 h -26 -26 v -3.03158 c 0,-2.94215 0.14013,-3.03174 4.75,-3.03722 5.893,-0.007 11.62854,-1.55689 13.30208,-3.59461 2.30716,-2.80922 1.0836,-8.32472 -5.86976,-26.4594 L 269.30349,144 l -31.04156,-0.26687 -31.04155,-0.26687 -6.00325,16.43529 c -3.30178,9.03941 -6.29944,17.85482 -6.66145,19.5898 -1.62251,7.77598 2.26516,11.39186 13.20194,12.279 6.14393,0.49837 6.33825,0.59967 6.04518,3.15124 l -0.3028,2.63631 -22.25,0.27196 -22.25,0.27196 v -3.05091 z M 266,135.7466 C 266,135.37555 259.62342,118.063 251.82983,97.274228 243.45703,74.940325 237.36385,60.022713 236.93663,60.811843 236.10735,62.343615 210,135.12715 210,135.90728 c 0,0.28258 12.6,0.51377 28,0.51377 15.4,0 28,-0.30358 28,-0.67461 z"
         id="path1469" />
      <path
         style="fill:#6b6b6b;stroke-width:1.00525"
         d="m 539.5,207.19434 c -9.36179,-2.50539 -15.27381,-5.18284 -22.70629,-10.28327 -39.39857,-27.03669 -51.87776,-88.33728 -26.16115,-128.509548 10.72755,-16.757655 25.54937,-26.339764 44.96377,-29.068482 9.69618,-1.362812 32.97388,-8.487965 36.90367,-11.295974 1.65,-1.179 8.33136,-6.666302 14.84747,-12.194004 13.73795,-11.6540972 14.66558,-11.9493207 29.43771,-9.3687702 12.68583,2.2160957 20.79545,6.1326582 28.87226,13.9439312 12.33112,11.925741 19.25214,22.746955 24.44046,38.213397 2.83689,8.456798 3.26267,11.176996 3.63463,23.221013 0.37371,12.101048 0.14041,14.740375 -2.06531,23.364457 -2.21577,8.6634 -8.88018,24.25081 -12.00555,28.0798 -0.63892,0.78276 -11.96167,10.74317 -25.16167,22.13424 -13.2,11.39106 -28.95,25.77854 -35,31.97217 -12.32486,12.61746 -18.44351,16.50938 -31.09601,19.77942 -9.56187,2.47125 -19.69795,2.47533 -28.90399,0.0116 z m 28.5685,-7.72808 c 9.16182,-2.74693 15.1243,-6.43035 22.54019,-13.92458 18.74737,-18.94541 25.05292,-51.91353 15.67637,-81.96273 -8.87504,-28.441993 -29.28471,-50.036243 -52.52479,-55.573322 -44.68618,-10.64673 -79.08814,38.25227 -65.19819,92.672782 7.06083,27.66415 27.16358,51.00106 50.40964,58.51961 7.22526,2.33689 21.75056,2.4708 29.09678,0.26824 z m -41.86822,-55.01108 c -1.26485,-0.51287 -4.2979,-2.32174 -6.74011,-4.01971 -2.44221,-1.69798 -8.20479,-4.83638 -12.80572,-6.97423 -4.60094,-2.13786 -9.60104,-5.18857 -11.11135,-6.77939 -6.6839,-7.04018 -8.2253,-16.37827 -4.15982,-25.20105 3.39731,-7.372727 5.02921,-7.843069 24.83577,-7.158078 20.15014,0.696872 25.89129,1.83289 29.17153,5.772258 4.63286,5.5638 8.04617,14.12491 8.43208,21.14897 0.32341,5.88622 0.004,7.28382 -2.99577,13.12629 -4.45607,8.67757 -8.1006,11.16677 -16.22477,11.08149 -3.35617,-0.0353 -7.137,-0.48366 -8.40184,-0.99655 z m 16.29132,-3.38827 c 3.20176,-2.11995 7.55035,-9.75903 8.72582,-15.32843 1.87847,-8.90027 -5.37651,-24.00179 -12.76138,-26.563305 C 534.23989,97.712758 503.03922,96.27423 498.80868,97.347206 495.15579,98.273671 492,104.77543 492,111.37487 c 0,4.44186 0.58754,6.39604 3.05462,10.15987 2.55334,3.89542 4.48161,5.34591 11.75,8.83863 4.78246,2.29815 10.85341,5.56922 13.49101,7.26905 9.28254,5.98225 16.62264,7.11471 22.19597,3.42449 z M 528.5,140.29717 c -7.29249,-4.06575 -11.79807,-11.83996 -11.90974,-20.5498 -0.24778,-19.32643 18.91537,-25.439745 28.84905,-9.20325 6.18671,10.11211 3.98629,24.48338 -4.44863,29.0547 -3.8497,2.08635 -9.44047,2.39893 -12.49068,0.69835 z m 12.86416,-4.34267 C 544.82898,132.70962 546,129.40497 546,122.8721 c 0,-14.19206 -13.80607,-24.191957 -21.9867,-15.92521 -7.61009,7.6902 -5.50889,23.91848 3.85747,29.79253 4.06713,2.55068 10.32012,2.18693 13.49339,-0.78492 z M 642.5,144.84634 c 14.86157,-12.85294 15.04364,-13.0613 19.72822,-22.57758 6.77685,-13.76652 9.01159,-23.084681 8.96578,-37.384548 C 671.1358,66.727228 666.01537,50.67975 655.58422,35.963373 649.12096,26.844941 638.05974,16.530806 631.6924,13.685224 625.06267,10.722382 612.92606,8.0842106 605.92557,8.0842106 c -5.12642,0 -5.2482,0.075598 -19.43056,12.0618014 l -14.2718,12.061801 -10.73247,3.304723 c -7.2786,2.241212 -10.1304,3.513166 -8.86161,3.952433 1.02898,0.356241 5.02087,1.660812 8.87087,2.899048 43.08105,13.855713 68.73945,71.798673 52.61384,118.814933 -1.52499,4.44632 -3.16448,8.99024 -3.64329,10.0976 -0.47882,1.10736 3.15693,-1.46757 8.07944,-5.72209 4.9225,-4.25451 15.70001,-13.57316 23.95001,-20.70812 z m -251.03584,55.24695 c -20.29957,-2.85778 -37.51197,-15.93739 -46.83249,-35.58776 -7.04839,-14.86005 -8.12692,-20.4629 -8.12948,-42.23184 -0.002,-16.47356 0.27034,-19.65526 2.29154,-26.778952 6.81534,-24.020498 21.62391,-41.419359 41.01583,-48.190271 9.77223,-3.412089 27.50127,-3.254966 38.21517,0.338679 l 7.52473,2.523939 7.44181,-2.2963 c 4.093,-1.262966 7.53033,-2.205296 7.63852,-2.094069 1.21158,1.245582 13.3971,36.568586 12.98741,37.647472 -0.90069,2.371853 -2.09391,1.719283 -5.42373,-2.966207 -22.79753,-32.07915 -57.73115,-40.05187 -79.0453,-18.040102 -13.9618,14.418772 -21.09991,40.092481 -18.97695,68.254581 1.31892,17.49621 8.01744,33.21144 18.82768,44.17117 10.5687,10.71484 21.28798,15.15724 36.4612,15.11061 9.66797,-0.0297 14.96438,-1.16599 22.42524,-4.81111 7.13295,-3.48491 18.46118,-14.86336 23.11466,-23.21711 3.76902,-6.76601 3.76032,-6.75834 6,-5.29187 1.27304,0.83354 0.81913,2.32196 -3,9.83716 -8.27383,16.28106 -22.98239,28.82358 -38,32.40395 -6.80943,1.62344 -17.78558,2.16833 -24.53584,1.21803 z M 54,195.60956 c 0,-2.23943 0.501924,-2.50924 5.75,-3.09086 7.437152,-0.82425 14.011994,-3.23374 15.261413,-5.59287 C 75.631412,185.75515 76,162.41123 76,124.31524 V 63.571293 l -2.388272,-2.413412 c -3.0561,-3.088269 -7.82194,-3.961115 -17.980399,-3.293038 -16.926543,1.11318 -27.387838,8.221715 -39.785975,27.034891 -1.185892,1.799496 -1.969423,2.205687 -2.765769,1.433806 -0.809111,-0.784254 0.425654,-5.524434 4.542792,-17.439475 l 5.653916,-16.362485 59.484581,0.260526 59.484576,0.260526 5.75437,17.005691 c 4.37293,12.923181 5.43527,17.12943 4.42516,17.521125 -2.02517,0.785311 -2.84038,-0.0675 -7.27492,-7.610505 C 136.11616,64.60257 126.84009,58.489307 111.5,57.792355 101.13489,57.321432 94.825401,58.695098 91.385048,62.171665 L 89,64.581819 v 60.452661 c 0,67.24448 -0.337957,63.96314 6.78618,65.88942 2.042601,0.55231 6.30132,1.28045 9.46382,1.61812 5.25441,0.56102 5.75,0.82541 5.75,3.06754 v 2.4536 H 82.5 54 Z m 115,-1.08324 C 169,192.40544 169.47101,192 171.9349,192 c 6.39888,0 10.59171,-3.21802 14.48298,-11.11579 1.23228,-2.50105 12.30965,-33.12907 24.61638,-68.06228 l 22.37587,-63.514912 5.44865,-2.435017 c 2.99676,-1.33926 5.65017,-2.231381 5.89646,-1.982492 0.2463,0.248889 12.27939,31.368446 26.74021,69.154571 14.46081,37.78613 27.12762,69.86808 28.14847,71.29324 2.35281,3.28467 9.03099,6.66268 13.1718,6.66268 2.7299,0 3.18428,0.3605 3.18428,2.52632 v 2.52631 h -26 -26 v -2.52631 c 0,-2.33938 0.35149,-2.52673 4.75,-2.53196 10.77832,-0.0127 15.89032,-3.58011 14.58457,-10.1776 -0.37451,-1.89224 -3.6588,-11.17511 -7.29842,-20.62859 L 269.41866,144 l -31.11651,-0.2669 -31.11651,-0.26689 -2.74473,7.34058 c -1.50959,4.03732 -3.98036,10.62002 -5.49059,14.62821 -7.7245,20.50108 -6.41165,24.97639 7.7417,26.3902 6.05697,0.60504 6.84323,0.93088 7.12753,2.95375 l 0.31955,2.27368 H 191.56955 169 Z m 97,-58.46218 c 0,-1.37452 -26.46513,-72.597957 -28.02915,-75.43256 -0.74342,-1.347368 -0.89505,-1.347368 -1.36465,0 -0.29056,0.833684 -6.39582,17.880289 -13.56725,37.881345 C 215.86753,118.51398 210,135.45293 210,136.15503 c 0,0.99799 6.11,1.27655 28,1.27655 22.87217,0 28,-0.25043 28,-1.36744 z"
         id="path1467" />
      <path
         style="fill:#4b4b4b;stroke-width:1.00525"
         d="m 541.02574,207.60006 c -3.56084,-0.78001 -10.08584,-3.17302 -14.5,-5.31779 -22.17242,-10.77324 -38.92726,-32.65613 -46.17181,-60.30332 -2.29459,-8.75677 -2.65064,-12.128 -2.66819,-25.26316 -0.0241,-18.034366 1.72163,-26.045016 8.87658,-40.732107 10.17667,-20.889816 27.10228,-33.430437 49.36756,-36.577708 4.08643,-0.577631 13.53643,-2.934092 21,-5.236581 L 570.5,29.983049 584.01123,18.69305 c 7.43118,-6.209501 14.56563,-11.8602323 15.85433,-12.5571823 4.58539,-2.4798599 23.49772,0.6881474 33.96748,5.6898993 10.3934,4.965269 23.86774,19.99103 31.27435,34.875247 6.74374,13.552141 8.40126,21.24559 8.33523,38.688461 -0.0523,13.817931 -0.3059,15.917205 -2.86877,23.747365 -1.54626,4.72421 -4.55528,12.09824 -6.6867,16.38673 -3.80372,7.6532 -4.32344,8.18301 -28.13123,28.67748 -13.34076,11.48413 -29.43092,26.19251 -35.75592,32.6853 -9.62702,9.88238 -12.74254,12.41665 -19.1291,15.56025 -13.02798,6.41265 -26.27524,8.12601 -39.84516,5.15346 z M 562,201.07077 c 21.27511,-3.33603 39.3774,-21.79861 46.14077,-47.05911 3.25777,-12.16744 3.06606,-32.78458 -0.42864,-46.09546 C 597.88796,70.497068 569.15247,44.918222 539,46.752229 c -24.44564,1.486892 -43.65929,19.421285 -51.1367,47.731983 -3.21054,12.155618 -3.04394,31.933168 0.37889,44.980018 9.43848,35.97675 34.83721,60.29512 65.25781,62.48199 1.1,0.0791 4.925,-0.31487 8.5,-0.87545 z m -39.5,-59.12743 c -3.3,-1.9516 -10.08856,-5.55263 -15.0857,-8.00229 -16.92448,-8.29661 -22.34134,-19.47547 -15.83267,-32.67416 3.60349,-7.307383 5.31301,-7.702248 27.91837,-6.448581 9.9,0.549042 19.4739,1.542771 21.27534,2.208285 C 546.97918,99.318505 554,112.96313 554,122.72807 c 0,4.15881 -0.76545,6.92641 -3.26541,11.80651 -4.33623,8.46466 -8.04313,10.98513 -16.13247,10.96917 -5.15961,-0.0102 -7.02886,-0.56013 -12.10212,-3.56041 z m 20.36424,-1.19534 c 4.51984,-3.35839 8.56855,-12.0954 8.58664,-18.52977 0.0176,-6.24156 -4.39356,-16.83915 -8.71782,-20.94434 -3.19913,-3.037068 -14.34903,-4.441635 -32.21515,-4.058187 l -13.9821,0.300088 -2.46021,4.509769 c -3.48249,6.38367 -3.32412,12.59422 0.48209,18.90588 2.55229,4.23234 4.14402,5.48187 12.00803,9.42646 4.98615,2.50105 11.73615,6.20563 15,8.23239 3.26386,2.02676 6.83428,3.92974 7.93428,4.22884 3.67229,0.99854 10.6984,-0.0903 13.36424,-2.07113 z M 528.5,140.04141 c -10.02854,-4.52344 -14.99114,-20.10065 -9.71595,-30.49758 6.72731,-13.25892 23.28107,-9.910069 28.77347,5.82093 5.47193,15.67235 -6.02264,30.55612 -19.05752,24.67665 z m 12.14713,-3.08012 c 5.52929,-3.91364 7.08442,-15.84836 3.10287,-23.8127 -7.44878,-14.899868 -24.75,-10.44846 -24.75,6.36792 0,5.72532 4.15351,14.13621 8.30919,16.82616 3.76514,2.43715 10.33797,2.742 13.33794,0.61862 z m 99.99521,9.73584 c 17.10952,-14.64053 19.5506,-17.67974 24.75108,-30.81571 4.75787,-12.018 6.02319,-18.586407 5.9712,-30.997208 C 671.26554,61.231464 663.17408,41.920552 646.03164,24.425 635.50798,13.684568 622.15786,8.1483674 606.6694,8.101757 l -5.8306,-0.017546 -14.25901,11.956685 c -13.35797,11.201131 -14.79047,12.122956 -22.6694,14.587952 -4.62571,1.447198 -9.66885,2.942354 -11.20696,3.322571 -3.67168,0.907626 -3.10903,1.306994 4.30304,3.054315 11.94962,2.816999 26.2337,11.644919 36.0423,22.275038 24.45651,26.504847 32.6479,69.221418 19.58052,102.108708 l -3.28871,8.27686 7.57971,-6.57816 c 4.16884,-3.61797 14.84376,-12.79396 23.72205,-20.39105 z m -247.88768,53.28801 c -26.01745,-2.86791 -45.99209,-21.75885 -53.912,-50.98705 -3.02749,-11.17289 -3.30908,-40.80974 -0.48758,-51.316769 4.27644,-15.925097 11.31507,-28.691689 20.74148,-37.620692 6.51243,-6.168792 12.23436,-9.635169 20.90344,-12.663421 9.59345,-3.351153 26.27956,-3.198145 37.89368,0.347476 l 8.39367,2.562468 7.02515,-2.414557 c 3.86383,-1.328007 7.11712,-2.301853 7.22954,-2.164102 0.11242,0.13775 3.26597,8.559993 7.00789,18.716095 5.41356,14.693173 6.54939,18.718889 5.55969,19.705263 -0.98563,0.982321 -1.6969,0.612594 -3.42671,-1.781255 -13.42968,-18.585029 -28.2152,-29.233023 -44.32492,-31.921188 -9.61607,-1.604597 -16.8726,-0.536179 -25.30223,3.725384 -9.20251,4.652292 -15.83467,12.05825 -21.50294,24.011771 -11.8652,25.021937 -12.20082,57.415767 -0.84069,81.143327 4.50125,9.40162 15.05571,20.91016 22.78787,24.84781 16.59763,8.45244 37.28153,7.94958 51.47054,-1.25134 6.47936,-4.20155 14.63682,-13.21294 19.02946,-21.02146 3.72522,-6.6221 3.80475,-6.69667 5.78662,-5.42596 3.04648,1.95328 -8.16262,20.85749 -17.45716,29.44158 -12.08268,11.15914 -28.35807,16.07466 -46.5748,14.06662 z M 54,195.2105 c 0,-1.53982 1.311033,-2.01705 7.988844,-2.90798 9.686227,-1.29229 12.582645,-3.0258 14.010832,-8.38552 1.687569,-6.33312 0.922119,-117.990123 -0.830167,-121.097285 -1.996493,-3.54019 -7.12489,-5.221225 -15.88739,-5.20772 -17.497714,0.02697 -29.28917,6.597238 -39.837428,22.197657 -2.638743,3.902587 -5.141727,7.095612 -5.562186,7.095612 -2.047481,0 -1.407241,-2.980583 3.878493,-18.055996 l 5.715763,-16.301899 h 59.154631 c 55.408948,0 59.198198,0.111977 59.842728,1.768421 C 144.80491,60.305955 153,85.39071 153,86.534968 c 0,3.362487 -3.14809,0.806496 -7.32278,-5.945493 -6.93256,-11.212488 -11.01149,-15.457957 -18.36746,-19.117408 -5.69588,-2.83359 -7.89959,-3.34366 -15.99102,-3.701276 C 100.31428,57.284428 93.805456,58.772787 90.961979,62.425734 89.062661,64.865742 89,66.864316 89,125.00271 c 0,39.2579 0.356583,60.72978 1.029644,62.00063 1.60413,3.0289 5.921061,4.7698 13.764346,5.55079 6.12041,0.60944 7.20601,1.00235 7.20601,2.60802 0,1.80274 -1.32281,1.89048 -28.5,1.89048 -26.910639,0 -28.5,-0.10273 -28.5,-1.84213 z m 115,-0.68418 C 169,192.2953 169.42454,192 172.63197,192 c 5.13093,0 9.57731,-3.16415 12.76608,-9.08465 1.50879,-2.80132 12.96836,-34.01029 25.46572,-69.35327 l 22.72247,-64.259966 5.45688,-2.33262 c 3.00128,-1.282941 5.56694,-2.222597 5.70145,-2.088124 0.13451,0.134473 11.97054,30.888609 26.30229,68.34253 14.33175,37.45391 27.00373,69.64482 28.15997,71.53533 2.36542,3.86764 8.58885,7.18475 13.54317,7.21858 2.79414,0.0191 3.25,0.37654 3.25,2.54851 v 2.52631 h -26 -26 v -2.52631 c 0,-2.3903 0.29786,-2.52632 5.53212,-2.52632 6.54239,0 11.85019,-1.99813 13.47938,-5.07434 1.55438,-2.93496 0.59769,-6.46756 -7.38318,-27.2625 l -6.39918,-16.67368 -30.95096,-0.2668 -30.95096,-0.26679 -6.20589,16.85856 c -6.73733,18.30221 -8.02031,24.04729 -6.15622,27.56703 1.61034,3.04063 6.8889,5.11852 13.00277,5.11852 4.70093,0 5.03212,0.16627 5.03212,2.52632 v 2.52631 h -22 -22 z m 97.52834,-58.86316 c -0.3771,-0.97263 -6.99153,-18.59368 -14.69873,-39.157895 -7.70719,-20.564211 -14.1375,-37.519024 -14.28957,-37.677362 -0.40465,-0.421342 -27.5828,75.848567 -27.55965,77.340517 0.0152,0.98063 6.41813,1.26316 28.6266,1.26316 26.83928,0 28.56462,-0.10928 27.92135,-1.76842 z"
         id="path1465" />
      <path
         style="fill:#2d2d2d;stroke-width:1.00525"
         d="m 541.5,207.60145 c -3.85,-0.8508 -11.275,-3.66464 -16.5,-6.25296 -8.0703,-3.99782 -10.94723,-6.15795 -19.11652,-14.35358 -14.06404,-14.10941 -22.3173,-29.53364 -26.52904,-49.5792 -2.59821,-12.36604 -2.38336,-31.02916 0.49422,-42.931498 6.54686,-27.07926 24.76974,-47.435339 47.88227,-53.487438 3.33177,-0.872436 7.3428,-1.579557 8.91341,-1.571382 1.57062,0.0082 9.86909,-2.091809 18.44105,-4.666633 l 15.58539,-4.681499 14.26331,-12.007051 c 9.76864,-8.2233793 15.09879,-12.0465623 16.91461,-12.1324357 11.69458,-0.5530571 23.27088,1.6585344 32.00648,6.1146697 15.88181,8.101502 32.16561,30.574995 37.7621,52.115979 1.34359,5.171476 1.84055,10.74223 1.84803,20.71579 0.012,16.047718 -1.85707,24.174368 -8.98166,39.051068 l -4.42539,9.24054 -27.27913,23.57388 c -15.00352,12.96564 -29.84461,26.6061 -32.98021,30.31214 -14.34116,16.95024 -37.54611,25.1257 -58.29892,20.53961 z m 28.54812,-8.47239 c 30.67641,-9.63263 47.98062,-50.87272 37.95962,-90.46691 -7.09006,-28.01365 -26.10625,-51.354568 -48.14971,-59.100086 -8.00811,-2.813846 -21.65896,-3.795929 -28.9768,-2.084677 -25.22871,5.899656 -43.33001,30.903842 -45.55973,62.933853 -1.81648,26.09372 8.74787,54.47417 26.8394,72.10235 18.04553,17.58336 37.25012,23.09569 57.88722,16.61547 z m -50.64786,-59.0001 c -4.89514,-2.96275 -11.5423,-6.4798 -14.77147,-7.81566 -9.29286,-3.84433 -15.60462,-12.44183 -15.62321,-21.28098 -0.008,-3.84521 2.725,-11.075414 5.18815,-13.724918 1.16937,-1.257841 3.51666,-2.544549 5.2162,-2.859349 4.46976,-0.827918 37.5285,1.208187 41.18415,2.536553 3.50031,1.271921 5.95977,4.282904 9.87357,12.087734 4.94916,9.86949 4.4484,19.52187 -1.48217,28.56964 -3.69378,5.63529 -8.02547,7.87381 -15.23635,7.87381 -4.80366,0 -6.50213,-0.63764 -14.34887,-5.38683 z m 25.74179,-1.59575 c 4.55739,-5.18959 7.29582,-12.92352 6.55424,-18.5106 -0.65917,-4.96624 -5.78944,-15.73572 -8.90504,-18.69348 -3.05684,-2.901979 -11.57463,-4.176537 -30.15323,-4.511975 l -14.86197,-0.268333 -2.3027,2.918252 c -2.95191,3.741026 -4.86157,10.635776 -4.01924,14.511276 0.36159,1.66362 1.99439,5.15512 3.62846,7.7589 2.55776,4.07562 4.17408,5.2958 11.61972,8.77191 4.75677,2.22077 10.5951,5.39103 12.97406,7.04503 6.99339,4.86223 10.31966,6.00757 16.27587,5.60428 4.95274,-0.33535 5.79462,-0.75906 9.18983,-4.62526 z m -16.69163,1.51907 c -3.55834,-1.56622 -8.18,-6.79563 -10.10196,-11.43035 C 517.60681,126.83346 517,122.55342 517,119.11072 c 0,-8.60379 3.18673,-14.15957 9.52477,-16.60557 6.27005,-2.41976 11.00456,-0.92469 16.29117,5.14443 6.34651,7.28592 7.87149,16.88364 3.93406,24.75973 -3.93812,7.87745 -11.03384,10.84104 -18.29958,7.64297 z m 12.27877,-3.20391 c 8.41788,-5.50145 7.2193,-23.02378 -2.06435,-30.1793 -6.78495,-5.22962 -15.9833,-2.20607 -18.71263,6.15093 -5.00113,15.31311 9.12146,31.64574 20.77698,24.02837 z m 96.15663,13.21479 21.14129,-18.18947 4.44951,-9.09474 c 7.05074,-14.41165 8.99367,-22.812204 8.88137,-38.400001 -0.08,-11.101965 -0.5037,-14.513764 -2.73544,-22.026024 C 665.20939,50.863863 661.53378,43.612874 654.00478,33.515956 641.22678,16.379776 629.07402,9.4560651 610,8.4454059 l -9.5,-0.5033684 -13.93575,11.8768815 -13.93574,11.876883 -11.56426,3.731552 c -10.24501,3.30586 -11.22201,3.813776 -8.56425,4.452307 28.40547,6.824452 49.50253,26.732604 60.10955,56.722116 8.43491,23.848263 8.10515,48.423673 -0.95201,70.948103 l -2.53583,6.30641 3.31141,-2.80183 c 1.82127,-1.541 12.82499,-10.98709 24.4527,-20.9913 z m -22.20271,-10.8 c -0.31922,-0.80613 -0.55618,-0.56668 -0.60416,0.61053 -0.0434,1.06526 0.19293,1.6621 0.52522,1.32632 0.33229,-0.3358 0.36781,-1.20738 0.0789,-1.93685 z m -131,-2.02105 c -0.31922,-0.80613 -0.55618,-0.56669 -0.60416,0.61053 -0.0434,1.06525 0.19293,1.6621 0.52522,1.32631 0.33229,-0.3358 0.36781,-1.20737 0.0789,-1.93684 z m -1.02083,-6.12632 c -0.27741,-0.69474 -0.50439,-0.12631 -0.50439,1.26316 0,1.38947 0.22698,1.95789 0.50439,1.26316 0.27741,-0.69474 0.27741,-1.83158 0,-2.52632 z m -0.95502,-9.08295 c -0.23919,-1.25701 -0.44398,-0.46652 -0.45508,1.75664 -0.0111,2.22315 0.18461,3.25162 0.4349,2.28546 0.25029,-0.96615 0.25937,-2.7851 0.0202,-4.0421 z m 132.98207,-0.51705 c -0.25153,-0.97263 -0.45733,-0.17684 -0.45733,1.76842 0,1.94527 0.2058,2.74105 0.45733,1.76842 0.25152,-0.97263 0.25152,-2.56421 0,-3.53684 z m -1.02705,-7.57895 c -0.27741,-0.69473 -0.50439,-0.12631 -0.50439,1.26316 0,1.38948 0.22698,1.9579 0.50439,1.26316 0.27741,-0.69474 0.27741,-1.83158 0,-2.52632 z m -229.01733,84.54671 c -14.03345,-3.43291 -29.73695,-15.56252 -37.52923,-28.98813 -7.89525,-13.60301 -11.81821,-32.82811 -10.82724,-53.06059 0.72315,-14.76439 3.31842,-25.195149 9.34779,-37.570098 7.40243,-15.193063 20.81531,-27.342179 34.8059,-31.526468 11.27699,-3.37271 26.06587,-2.965173 39.28635,1.082614 6.11037,1.870844 6.34444,1.870563 12.3391,-0.01483 3.36081,-1.057012 6.68869,-1.921842 7.39529,-1.921842 0.74886,0 4.11549,7.625503 8.0715,18.282168 5.56456,14.989736 6.53275,18.44638 5.37619,19.194006 -0.99415,0.64264 -1.85344,0.249912 -2.9106,-1.330257 -7.22248,-10.795656 -19.43089,-22.169862 -29.07773,-27.090829 -34.9481,-17.827449 -65.21537,5.018993 -71.00674,53.597536 -4.01775,33.70128 9.01834,64.1721 32.42461,75.78994 14.37444,7.13484 30.72569,7.49531 44.52332,0.98152 7.74896,-3.65824 19.33711,-14.94756 24.08732,-23.46616 3.65605,-6.55643 4.12077,-7.01494 5.95116,-5.87181 1.01215,0.63214 0.47274,2.49463 -2.39456,8.26805 -9.07559,18.27408 -21.62173,29.33819 -38.15172,33.64497 -7.59031,1.9776 -23.62685,1.9777 -31.71071,2e-4 z M 54,195.1777 c 0,-1.56877 1.049185,-1.97392 6.425394,-2.48124 3.533967,-0.33349 8.050163,-1.29235 10.03599,-2.13082 6.649819,-2.80772 6.550458,-1.78947 6.438936,-65.98581 C 76.845496,93.020922 76.488902,66.068269 76.107888,64.685041 75.726874,63.301814 73.85923,61.102124 71.957568,59.796843 68.748949,57.594479 67.707988,57.449383 57.5,57.781647 47.632343,58.102833 45.807899,58.469232 39.776671,61.340983 31.691537,65.190696 24.620192,71.645533 18.861833,80.432382 15.11204,86.154304 12.5,88.15501 12.5,85.305265 c 0,-0.509474 2.475,-8.088354 5.5,-16.841956 l 5.5,-15.915639 59.11295,-1.5e-4 59.11295,-1.51e-4 5.71728,16.639005 c 5.24454,15.263208 5.9131,18.729417 3.61253,18.729417 -0.45443,0 -2.78269,-3.296842 -5.1739,-7.326316 -9.27565,-15.630557 -18.54406,-22.01019 -33.08744,-22.774742 -12.16588,-0.639566 -17.492739,0.335523 -20.956946,3.836195 L 89,64.51822 v 60.27048 c 0,39.40468 0.356466,60.94356 1.029644,62.21464 1.628985,3.07583 6.552944,5.07889 14.045366,5.71364 5.86918,0.49723 6.92499,0.87247 6.92499,2.46117 0,1.78178 -1.40946,1.87448 -28.5,1.87448 -27.092927,0 -28.5,-0.0926 -28.5,-1.87493 z m 115,-0.65138 C 169,192.2688 169.40986,192 172.85212,192 c 5.19501,0 9.83269,-3.39334 12.96524,-9.48653 1.39659,-2.71654 12.75277,-33.81708 25.23594,-69.11231 l 22.69668,-64.17314 5.48666,-2.255713 5.48666,-2.255713 25.30703,66.315386 c 13.91886,36.47347 26.34368,68.43548 27.61071,71.0267 2.93618,6.0048 7.25684,9.12046 13.48672,9.72537 4.32919,0.42036 4.87224,0.74035 4.87224,2.87084 v 2.39774 h -26 -26 v -2.41586 c 0,-2.29688 0.36627,-2.43456 7.43672,-2.79536 6.24083,-0.31847 7.86379,-0.78311 10.09246,-2.8894 3.63321,-3.43371 3.19477,-5.75313 -5.24996,-27.77306 l -6.97573,-18.18947 -31.04156,-0.26687 -31.04155,-0.26687 -6.24108,16.94055 c -6.64854,18.04654 -7.92418,23.87879 -6.01236,27.48866 1.60864,3.0374 6.88941,5.11505 13.00094,5.11505 4.70093,0 5.03212,0.16627 5.03212,2.52632 v 2.52631 h -22 -22 z m 97.74977,-58.3579 C 251.17202,93.77936 237.50184,58.758729 236.94013,59.801316 c -0.39574,0.73454 -6.58944,17.706054 -13.76377,37.714475 -7.17433,20.008419 -13.34712,37.174739 -13.71729,38.147369 -0.63155,1.65938 1.12836,1.76842 28.54093,1.76842 22.95209,0 29.11448,-0.27075 28.74977,-1.26316 z"
         id="path1463" />
      <path
         style="fill:#000000;stroke-width:1.00525"
         d="m 543.5,207.69686 c -9.34626,-1.81856 -14.65435,-3.85433 -22.82723,-8.75471 -9.2955,-5.57351 -19.67734,-15.72448 -26.13154,-25.55043 -33.23777,-50.60162 -15.5302,-119.748152 33.91887,-132.450213 3.27805,-0.842039 7.42419,-1.53098 9.21363,-1.53098 1.78944,0 10.15119,-2.181997 18.58166,-4.848883 L 571.58351,29.712761 585.54175,17.900489 599.5,6.0882152 l 7.59004,-0.012528 c 8.23762,-0.013598 20.37216,2.680186 26.64831,5.9157388 15.36633,7.921837 31.58496,29.986166 37.23909,50.661207 5.58815,20.433804 3.21344,41.012157 -7.19113,62.315567 l -4.03046,8.25242 -27.62793,23.81142 c -15.19535,13.09628 -29.3347,25.95364 -31.42076,28.57192 -14.00274,17.57521 -36.25646,26.1694 -57.20716,22.0929 z m 22.40693,-7.14758 c 15.4929,-3.69038 28.90614,-15.10274 36.5362,-31.08602 6.7738,-14.18961 7.98067,-19.87697 7.97656,-37.58957 -0.004,-17.54118 -1.86068,-26.47091 -8.47628,-40.768193 -10.01317,-21.639952 -27.85585,-38.170632 -46.49571,-43.076804 -8.32725,-2.191804 -20.80704,-1.990809 -28.66449,0.461658 -26.34032,8.221331 -43.33687,38.052215 -41.4633,72.772809 2.69571,49.95647 41.87823,88.50647 80.58702,79.28612 z m -41.47955,-57.65042 c -2.67877,-1.4393 -6.01333,-3.43926 -7.41013,-4.44434 -1.39681,-1.00508 -6.43621,-3.64659 -11.19867,-5.87002 -6.78313,-3.1668 -9.31508,-4.95777 -11.68731,-8.267 -5.71534,-7.97285 -6.36448,-14.87974 -2.17787,-23.17257 3.32702,-6.590142 3.6516,-6.689283 20.9576,-6.401379 8.57395,0.142637 18.61368,0.749959 22.31052,1.349607 5.83186,0.945959 7.14208,1.574296 9.89889,4.747182 3.84857,4.42942 7.90116,13.08836 8.60402,18.38372 1.11335,8.38798 -3.72448,19.28042 -10.66149,24.00448 -4.77411,3.25113 -12.21616,3.11948 -18.63556,-0.32968 z m 16.98938,-0.56019 c 4.77297,-2.19761 10.44566,-12.84237 10.53935,-19.77703 0.10686,-7.90956 -7.13476,-21.65221 -12.42629,-23.581783 -3.98155,-1.451885 -36.19208,-3.16567 -40.03867,-2.130288 -5.86225,1.577934 -9.9893,12.217071 -7.58952,19.565021 2.05793,6.30122 6.76586,10.72947 16.45655,15.4789 5.028,2.46424 11.84182,6.0772 15.14182,8.0288 6.4545,3.81714 12.96686,4.69545 17.91676,2.41638 z m -12.38701,-2.41696 c -4.99115,-2.25694 -7.00713,-4.35792 -9.66172,-10.06908 -3.99643,-8.59806 -3.03117,-18.26538 2.39796,-24.01611 7.20955,-7.636629 18.71655,-4.42624 24.50648,6.83717 2.87313,5.58923 2.9867,15.87651 0.22753,20.61016 -4.04898,6.94644 -10.97132,9.5766 -17.47025,6.63786 z m 10.77839,-2.51479 c 3.53683,-2.17903 7.13297,-8.80176 7.1699,-13.20421 0.073,-8.70204 -6.18811,-18.27091 -13.20419,-20.18004 -16.6815,-4.539139 -20.60402,26.66906 -4.27385,34.00346 4.17986,1.87731 6.48032,1.73912 10.30814,-0.61921 z M 514,189.59742 c 0,-0.20984 -0.7875,-1.00563 -1.75,-1.76843 -1.58606,-1.25696 -1.62143,-1.22122 -0.37756,0.38154 1.30637,1.68328 2.12756,2.21859 2.12756,1.38689 z m -11.23849,-12.0122 c -2.34383,-2.92602 -5.07913,-6.45023 -6.07845,-7.83158 -1.54948,-2.14183 -1.53594,-2.01854 0.0919,0.8376 2.00598,3.51951 8.99521,12.31403 9.78627,12.31403 0.25395,0 -1.45594,-2.39402 -3.79977,-5.32005 z m 132.42956,-25.80625 c 21.04615,-18.15138 22.87031,-19.99447 26.28125,-26.55382 10.15671,-19.53172 13.00589,-41.053443 8.02376,-60.608799 C 664.27155,44.109545 647.34983,20.784929 632.57143,13.720032 625.17319,10.183266 615.90568,8.1170249 607.36062,8.0991473 L 600.22124,8.0842106 586.09,19.949917 571.95876,31.815624 560.22938,35.512827 c -10.26621,3.235998 -11.35515,3.783739 -8.72938,4.390919 26.64553,6.161475 45.20939,21.760662 57.52977,48.342181 12.22491,26.375533 12.72993,59.023313 1.26719,81.919353 l -2.47529,4.94422 2.37675,-1.91264 c 1.30721,-1.05196 12.5539,-10.69001 24.99265,-21.41789 z m -144.0165,6.95899 c -2.02101,-4.39937 -3.84509,-7.82706 -4.05351,-7.61706 -0.45847,0.46193 6.58116,15.61594 7.25422,15.61594 0.26062,0 -1.1797,-3.59949 -3.20071,-7.99888 z M 612.68311,152.4 c -0.31922,-0.80612 -0.55618,-0.56668 -0.60416,0.61053 -0.0434,1.06526 0.19293,1.66211 0.52522,1.32632 0.33229,-0.3358 0.36781,-1.20738 0.0789,-1.93685 z M 484.97192,141.43516 c -1.0657,-4.14723 -1.99756,-8.67726 -2.07078,-10.06674 -0.0999,-1.89614 -0.25213,-2.05945 -0.61014,-0.65468 -0.43985,1.7259 0.13529,4.80848 2.82789,15.15669 0.55691,2.14031 1.18764,3.71456 1.40162,3.49832 0.21398,-0.21624 -0.48288,-3.78634 -1.54859,-7.93359 z m 128.69036,4.83853 c -0.27741,-0.69474 -0.50439,-0.12632 -0.50439,1.26315 0,1.38948 0.22698,1.9579 0.50439,1.26316 0.27741,-0.69473 0.27741,-1.83158 0,-2.52631 z m 1.07812,-21.22106 c -0.19527,-3.47368 -0.35504,-0.63158 -0.35504,6.31579 0,6.94737 0.15977,9.78948 0.35504,6.31579 0.19527,-3.47368 0.19527,-9.15789 0,-12.63158 z m -133,-15.15789 c -0.19527,-3.47369 -0.35504,-0.63158 -0.35504,6.31579 0,6.94737 0.15977,9.78947 0.35504,6.31579 0.19527,-3.47369 0.19527,-9.1579 0,-12.63158 z m 130.27932,-3.44626 c -2.31257,-8.518142 -7.70058,-22.256202 -9.06233,-23.10667 -0.47161,-0.294541 0.46757,2.417558 2.08707,6.026889 3.24401,7.229839 7.8782,22.522401 8.09172,26.702241 0.11996,2.34829 0.18747,2.39765 0.56668,0.41439 0.23677,-1.23833 -0.52064,-5.75492 -1.68314,-10.03685 z M 482.66228,99.789475 c -0.27741,-0.694737 -0.50439,-0.126316 -0.50439,1.263155 0,1.38948 0.22698,1.9579 0.50439,1.26316 0.27741,-0.69474 0.27741,-1.83158 0,-2.526315 z m 1.02083,-4.989474 c -0.31922,-0.80613 -0.55618,-0.566679 -0.60416,0.610527 -0.0434,1.065263 0.19293,1.662105 0.52522,1.326316 0.33229,-0.33579 0.36781,-1.207369 0.0789,-1.936843 z M 600.30654,78.744232 c -0.9936,-1.709622 -3.05045,-4.551727 -4.57077,-6.31579 -1.56735,-1.818622 -0.94346,-0.472715 1.44088,3.108401 4.43913,6.667253 6.1738,8.44488 3.12989,3.207389 z M 589,64.168422 c -2.42903,-2.501053 -4.64142,-4.547369 -4.91642,-4.547369 -0.275,0 1.48739,2.046316 3.91642,4.547369 2.42903,2.501053 4.64142,4.547368 4.91642,4.547368 0.275,0 -1.48739,-2.046315 -3.91642,-4.547368 z M 384.20171,198.10028 c -17.1561,-4.68181 -30.53325,-15.93148 -38.57748,-32.44216 -7.27187,-14.92543 -8.90277,-22.60216 -9.00222,-42.37391 -0.0708,-14.08424 0.26159,-18.05493 2.14051,-25.567677 6.87397,-27.485116 24.1568,-46.705031 46.14592,-51.318007 8.171,-1.714148 26.07024,-0.656226 34.36928,2.031372 l 6.77771,2.194927 6.94947,-2.261786 c 3.82221,-1.243982 7.1212,-2.061936 7.33109,-1.817675 0.20989,0.244261 3.43059,8.564797 7.1571,18.490081 5.14757,13.710171 6.4696,18.237 5.50241,18.841049 -0.85273,0.532566 -2.42056,-0.754631 -4.74856,-3.898603 -5.6521,-7.633199 -15.31613,-17.119329 -21.7901,-21.388976 -9.8126,-6.471507 -16.28451,-8.401092 -28.47787,-8.490616 -9.89577,-0.07266 -10.90606,0.114894 -17,3.155837 -14.86678,7.418702 -25.14703,23.559169 -30.12217,47.293234 -1.96722,9.38471 -1.64439,33.87171 0.55956,42.44211 8.37199,32.55579 33.11159,51.51045 61.52609,47.13925 14.97834,-2.30423 27.45638,-10.9294 36.86695,-25.48345 2.29858,-3.55492 4.32129,-6.8941 4.49489,-7.4204 0.17361,-0.5263 1.10128,-0.65226 2.06149,-0.27991 1.55912,0.60458 1.30912,1.52526 -2.33761,8.60852 -8.12498,15.78163 -18.81396,26.0017 -32.64892,31.21666 -9.59333,3.61611 -26.57443,4.22366 -37.17754,1.33013 z M 54,195.17815 c 0,-1.59235 1.063825,-1.96462 7.067712,-2.47326 7.787768,-0.65978 12.719538,-2.95242 14.67794,-6.82336 0.967102,-1.91156 1.194011,-16.02138 1.002241,-62.3222 L 76.5,63.708123 73.998519,61.180795 C 68.853337,55.982449 53.614513,55.75995 40.567944,60.692679 33.710726,63.2853 24.485516,71.594187 18.568952,80.50655 11.808973,90.689385 11.607386,87.316214 17.89451,69.221054 l 5.617682,-16.168422 59.102613,-0.260587 59.102615,-0.260587 5.65099,16.873943 c 3.7409,11.170382 5.31534,17.213131 4.65796,17.877429 -1.1998,1.212432 -0.60452,1.9129 -6.96412,-8.194591 C 135.04237,63.163356 125.72443,57.45239 109.5,57.292128 99.326941,57.19164 94.379316,58.512388 90.89705,62.258108 L 88.5,64.836509 v 60.527201 60.52721 l 2.592521,2.61981 c 2.891169,2.9216 8.031821,4.43953 15.157479,4.47569 4.07538,0.0207 4.75,0.31115 4.75,2.04516 0,1.97378 -0.66667,2.02105 -28.5,2.02105 -27.090541,0 -28.5,-0.0927 -28.5,-1.87448 z m 115,0.0143 c 0,-1.42405 1.25434,-2.14392 5.34931,-3.06997 5.7191,-1.29335 9.14621,-4.13599 12.0889,-10.0272 0.91659,-1.835 11.81738,-32.075 24.22399,-67.2 12.4066,-35.125003 22.96442,-64.372746 23.46182,-64.994986 1.13449,-1.419242 9.81699,-4.823006 10.51178,-4.120896 0.28286,0.285837 12.3963,31.597157 26.91876,69.580712 29.59025,77.39346 28.05007,74.35427 38.82643,76.61498 4.48038,0.93992 5.61901,1.57382 5.61901,3.1282 0,1.87554 -0.98518,1.9494 -26,1.9494 -25.05943,0 -26,-0.0708 -26,-1.95913 0,-1.57769 0.92484,-2.07822 4.75,-2.57076 9.82152,-1.26467 11.41104,-1.696 13.30578,-3.61068 3.12837,-3.1613 2.30646,-7.33286 -5.36467,-27.22785 l -7.20834,-18.69473 h -31.36018 -31.36017 l -5.96081,16.16842 c -3.38643,9.18553 -6.18763,18.56879 -6.48599,21.72631 -0.71272,7.54272 1.60667,9.80909 11.5675,11.30305 5.92297,0.88836 7.11688,1.38599 7.11688,2.9664 0,1.80074 -1.1381,1.89897 -22,1.89897 -20.69942,0 -22,-0.10997 -22,-1.86024 z m 98,-58.29736 c 0,-0.89297 -27.87622,-75.209295 -28.90729,-77.065099 -0.81676,-1.470084 -1.03992,-1.500919 -1.5117,-0.208888 C 231.83519,72.617973 209,136.68079 209,136.99799 c 0,0.23848 13.05,0.43359 29,0.43359 15.95,0 29,-0.24144 29,-0.53655 z"
         id="path1461" />
    </g>
  </g>
</svg>
