<?xml version="1.0" encoding="UTF-8" standalone="no"?>
<svg
   version="1.1"
   id="svg4"
   width="162.33398"
   height="11.595703"
   xmlns="http://www.w3.org/2000/svg"
   xmlns:svg="http://www.w3.org/2000/svg">
  <defs
     id="defs8" />
  <g
     aria-label="The Open Energy Ontology"
     id="text2"
     transform="translate(0,9.1171875)">
    <path
       d="M 7.3945312,-7.6933594 H 4.2773437 V 0 H 3.1171875 V -7.6933594 H 0 v -1.03125 h 7.3945312 z"
       id="path10" />
    <path
       d="m 13.951172,0 h -1.101563 v -3.7265625 q 0,-0.4511719 -0.05273,-0.84375 Q 12.744141,-4.96875 12.603516,-5.1914062 12.457031,-5.4375 12.181641,-5.5546875 11.90625,-5.6777344 11.466797,-5.6777344 q -0.451172,0 -0.943359,0.2226563 -0.492188,0.2226562 -0.9433599,0.5683594 V 0 H 8.4785156 v -9.1171875 h 1.1015625 v 3.2988281 q 0.5156249,-0.4277343 1.0664059,-0.6679687 0.550782,-0.2402344 1.13086,-0.2402344 1.060547,0 1.617187,0.6386719 0.556641,0.6386719 0.556641,1.8398437 z"
       id="path12" />
    <path
       d="m 21.550781,-3.1582031 h -4.822265 q 0,0.6035156 0.18164,1.0546875 0.181641,0.4453125 0.498047,0.7324219 0.304688,0.28125 0.720703,0.42187495 0.421875,0.140625 0.925781,0.140625 0.667969,0 1.341797,-0.26367185 0.679688,-0.2695313 0.966797,-0.5273438 h 0.05859 v 1.2011719 q -0.556641,0.234375 -1.136719,0.39257812 -0.580078,0.15820313 -1.21875,0.15820313 -1.628906,0 -2.542969,-0.87890625 -0.914062,-0.8847656 -0.914062,-2.5078125 0,-1.6054687 0.873047,-2.5488281 0.878906,-0.9433594 2.308594,-0.9433594 1.324218,0 2.039062,0.7734375 0.720703,0.7734375 0.720703,2.1972656 z m -1.072265,-0.84375 q -0.0059,-0.8671875 -0.439454,-1.3417969 -0.427734,-0.4746094 -1.30664,-0.4746094 -0.884766,0 -1.41211,0.5214844 -0.521484,0.5214844 -0.591796,1.2949219 z"
       id="path14" />
    <path
       d="m 34.03125,-7.7226562 q 0.533203,0.5859375 0.814453,1.4355468 0.287109,0.8496094 0.287109,1.9277344 0,1.078125 -0.292968,1.9335937 -0.28711,0.8496094 -0.808594,1.4179688 -0.539063,0.59179687 -1.277344,0.890625 -0.732422,0.29882812 -1.675781,0.29882812 -0.919922,0 -1.675781,-0.30468749 -0.75,-0.30468751 -1.277344,-0.88476563 -0.527344,-0.5800781 -0.814453,-1.4238281 -0.28125,-0.84375 -0.28125,-1.9277344 0,-1.0664062 0.28125,-1.9101562 0.28125,-0.8496094 0.820312,-1.453125 0.515625,-0.5742188 1.277344,-0.8789063 0.767578,-0.3046875 1.669922,-0.3046875 0.9375,0 1.681641,0.3105469 0.75,0.3046875 1.271484,0.8730469 z m -0.105469,3.3632812 q 0,-1.6992187 -0.761719,-2.6191406 -0.761718,-0.9257813 -2.080078,-0.9257813 -1.330078,0 -2.091797,0.9257813 -0.755859,0.9199219 -0.755859,2.6191406 0,1.7167969 0.773438,2.6308594 0.773437,0.9082031 2.074218,0.9082031 1.300782,0 2.06836,-0.9082031 0.773437,-0.9140625 0.773437,-2.6308594 z"
       id="path16" />
    <path
       d="m 42.644531,-3.3515625 q 0,0.796875 -0.228515,1.4589844 -0.228516,0.65625 -0.644532,1.11328123 -0.386718,0.43359374 -0.914062,0.67382812 -0.521485,0.234375 -1.107422,0.234375 -0.509766,0 -0.925781,-0.11132812 Q 38.414062,-0.09375 37.986328,-0.328125 v 2.7421875 h -1.101562 v -8.9589844 h 1.101562 v 0.6855469 q 0.439453,-0.3691406 0.984375,-0.6152344 0.550781,-0.2519531 1.171875,-0.2519531 1.183594,0 1.839844,0.8964844 0.662109,0.890625 0.662109,2.4785156 z m -1.136719,0.029297 q 0,-1.1835938 -0.404296,-1.7695313 -0.404297,-0.5859375 -1.242188,-0.5859375 -0.474609,0 -0.955078,0.2050782 -0.480469,0.2050781 -0.919922,0.5390625 v 3.7089843 q 0.46875,0.2109375 0.802734,0.2871094 0.339844,0.0761719 0.767579,0.0761719 0.919921,0 1.435546,-0.6210938 0.515625,-0.6210937 0.515625,-1.8398437 z"
       id="path18" />
    <path
       d="m 49.839844,-3.1582031 h -4.822266 q 0,0.6035156 0.181641,1.0546875 0.18164,0.4453125 0.498047,0.7324219 0.304687,0.28125 0.720703,0.42187495 0.421875,0.140625 0.925781,0.140625 0.667969,0 1.341797,-0.26367185 0.679687,-0.2695313 0.966797,-0.5273438 h 0.05859 v 1.2011719 q -0.55664,0.234375 -1.136718,0.39257812 -0.580078,0.15820313 -1.21875,0.15820313 -1.628907,0 -2.542969,-0.87890625 -0.914063,-0.8847656 -0.914063,-2.5078125 0,-1.6054687 0.873047,-2.5488281 0.878907,-0.9433594 2.308594,-0.9433594 1.324219,0 2.039063,0.7734375 0.720703,0.7734375 0.720703,2.1972656 z m -1.072266,-0.84375 q -0.0059,-0.8671875 -0.439453,-1.3417969 -0.427734,-0.4746094 -1.306641,-0.4746094 -0.884765,0 -1.412109,0.5214844 -0.521484,0.5214844 -0.591797,1.2949219 z"
       id="path20" />
    <path
       d="m 56.982422,0 h -1.101563 v -3.7265625 q 0,-0.4511719 -0.05273,-0.84375 Q 55.775391,-4.96875 55.634766,-5.1914062 55.488281,-5.4375 55.212891,-5.5546875 54.9375,-5.6777344 54.498047,-5.6777344 q -0.451172,0 -0.94336,0.2226563 -0.492187,0.2226562 -0.943359,0.5683594 V 0 h -1.101562 v -6.5449219 h 1.101562 v 0.7265625 q 0.515625,-0.4277343 1.066406,-0.6679687 0.550782,-0.2402344 1.13086,-0.2402344 1.060547,0 1.617187,0.6386719 0.556641,0.6386719 0.556641,1.8398437 z"
       id="path22" />
    <path
       d="m 69.158203,0 h -5.748047 v -8.7246094 h 5.748047 v 1.03125 h -4.587891 v 2.390625 h 4.587891 v 1.03125 H 64.570312 V -1.03125 h 4.587891 z"
       id="path24" />
    <path
       d="M 76.382812,0 H 75.28125 v -3.7265625 q 0,-0.4511719 -0.05273,-0.84375 Q 75.17579,-4.96875 75.03516,-5.1914062 74.888676,-5.4375 74.613285,-5.5546875 q -0.27539,-0.1230469 -0.714844,-0.1230469 -0.451171,0 -0.943359,0.2226563 -0.492187,0.2226562 -0.943359,0.5683594 V 0 H 70.91016 v -6.5449219 h 1.101563 v 0.7265625 q 0.515625,-0.4277343 1.066406,-0.6679687 0.550781,-0.2402344 1.130859,-0.2402344 1.060547,0 1.617188,0.6386719 0.55664,0.6386719 0.55664,1.8398437 z"
       id="path26" />
    <path
       d="m 83.982422,-3.1582031 h -4.822266 q 0,0.6035156 0.181641,1.0546875 0.18164,0.4453125 0.498047,0.7324219 0.304687,0.28125 0.720703,0.42187495 0.421875,0.140625 0.925781,0.140625 0.667969,0 1.341797,-0.26367185 0.679687,-0.2695313 0.966797,-0.5273438 h 0.05859 v 1.2011719 q -0.556641,0.234375 -1.136719,0.39257812 -0.580078,0.15820313 -1.21875,0.15820313 -1.628906,0 -2.542969,-0.87890625 -0.914062,-0.8847656 -0.914062,-2.5078125 0,-1.6054687 0.873046,-2.5488281 0.878907,-0.9433594 2.308594,-0.9433594 1.324219,0 2.039063,0.7734375 0.720703,0.7734375 0.720703,2.1972656 z m -1.072266,-0.84375 q -0.0059,-0.8671875 -0.439453,-1.3417969 -0.427734,-0.4746094 -1.306641,-0.4746094 -0.884765,0 -1.412109,0.5214844 -0.521484,0.5214844 -0.591797,1.2949219 z"
       id="path28" />
    <path
       d="m 89.736328,-5.34375 h -0.05859 q -0.246093,-0.058594 -0.480468,-0.082031 -0.228516,-0.029297 -0.544922,-0.029297 -0.509766,0 -0.984375,0.2285156 -0.47461,0.2226563 -0.914063,0.5800781 V 0 h -1.101562 v -6.5449219 h 1.101562 v 0.9667969 q 0.65625,-0.5273437 1.154297,-0.7441406 0.503906,-0.2226563 1.025391,-0.2226563 0.287109,0 0.416015,0.017578 0.128907,0.011719 0.386719,0.052734 z"
       id="path30" />
    <path
       d="m 96.082031,-0.74414062 q 0,1.6640625 -0.755859,2.44335932 Q 94.570312,2.4785156 93,2.4785156 q -0.521484,0 -1.019531,-0.076172 -0.492188,-0.070312 -0.972657,-0.2050782 v -1.125 h 0.05859 q 0.269531,0.1054688 0.855469,0.2578125 0.585937,0.1582031 1.171875,0.1582031 0.5625,0 0.931641,-0.1347656 Q 94.394531,1.21875 94.599609,0.97851563 94.804687,0.75 94.892578,0.42773438 q 0.08789,-0.32226563 0.08789,-0.72070313 V -0.890625 q -0.498047,0.3984375 -0.955078,0.59765625 -0.451172,0.19335938 -1.154297,0.19335938 -1.171875,0 -1.863282,-0.84375001 -0.685546,-0.84960932 -0.685546,-2.39062502 0,-0.84375 0.234375,-1.453125 0.240234,-0.6152343 0.65039,-1.0605468 0.38086,-0.4160157 0.925781,-0.6445313 0.544922,-0.234375 1.083985,-0.234375 0.568359,0 0.949219,0.1171875 0.386718,0.1113281 0.814453,0.3457031 l 0.07031,-0.28125 h 1.03125 z M 94.980469,-1.7988281 v -3.5683594 q -0.439453,-0.1992187 -0.820313,-0.28125 -0.375,-0.087891 -0.75,-0.087891 -0.908203,0 -1.429687,0.609375 -0.521485,0.609375 -0.521485,1.7695312 0,1.1015625 0.386719,1.6699219 0.386719,0.5683594 1.283203,0.5683594 0.480469,0 0.960938,-0.1816406 0.486328,-0.1875 0.890625,-0.4980465 z"
       id="path32" />
    <path
       d="m 103.91016,-6.5449219 -3.82032,8.9589844 h -1.177731 l 1.218751,-2.73046875 -2.607423,-6.22851565 h 1.195313 l 2.00977,4.8515625 2.02734,-4.8515625 z"
       id="path34" />
    <path
       d="m 116.16211,-7.7226562 q 0.5332,0.5859375 0.81445,1.4355468 0.28711,0.8496094 0.28711,1.9277344 0,1.078125 -0.29297,1.9335937 -0.28711,0.8496094 -0.80859,1.4179688 -0.53906,0.59179687 -1.27734,0.890625 -0.73243,0.29882812 -1.67579,0.29882812 -0.91992,0 -1.67578,-0.30468749 -0.75,-0.30468751 -1.27734,-0.88476563 -0.52734,-0.5800781 -0.81445,-1.4238281 -0.28125,-0.84375 -0.28125,-1.9277344 0,-1.0664062 0.28125,-1.9101562 0.28125,-0.8496094 0.82031,-1.453125 0.51562,-0.5742188 1.27734,-0.8789063 0.76758,-0.3046875 1.66992,-0.3046875 0.9375,0 1.68165,0.3105469 0.75,0.3046875 1.27148,0.8730469 z m -0.10547,3.3632812 q 0,-1.6992187 -0.76172,-2.6191406 -0.76172,-0.9257813 -2.08008,-0.9257813 -1.33007,0 -2.09179,0.9257813 -0.75586,0.9199219 -0.75586,2.6191406 0,1.7167969 0.77344,2.6308594 0.77343,0.9082031 2.07421,0.9082031 1.30079,0 2.06836,-0.9082031 0.77344,-0.9140625 0.77344,-2.6308594 z"
       id="path36" />
    <path
       d="m 124.48828,0 h -1.10156 v -3.7265625 q 0,-0.4511719 -0.0527,-0.84375 -0.0527,-0.3984375 -0.19335,-0.6210937 -0.14649,-0.2460938 -0.42188,-0.3632813 -0.27539,-0.1230469 -0.71484,-0.1230469 -0.45118,0 -0.94336,0.2226563 -0.49219,0.2226562 -0.94336,0.5683594 V 0 h -1.10156 v -6.5449219 h 1.10156 v 0.7265625 q 0.51562,-0.4277343 1.0664,-0.6679687 0.55079,-0.2402344 1.13086,-0.2402344 1.06055,0 1.61719,0.6386719 0.55664,0.6386719 0.55664,1.8398437 z"
       id="path38" />
    <path
       d="m 130.00781,-0.05859375 q -0.31054,0.08203125 -0.67969,0.13476562 -0.36328,0.05273438 -0.65039,0.05273438 -1.00195,0 -1.52343,-0.5390625 -0.52149,-0.5390625 -0.52149,-1.72851565 v -3.4804687 h -0.74414 v -0.9257813 h 0.74414 v -1.8808594 h 1.10157 v 1.8808594 h 2.27343 v 0.9257813 h -2.27343 v 2.9824218 q 0,0.515625 0.0234,0.8085938 0.0234,0.2871094 0.16407,0.5390625 0.1289,0.234375 0.35156,0.34570312 0.22851,0.10546875 0.6914,0.10546875 0.26953,0 0.5625,-0.0761719 0.29297,-0.0820313 0.42188,-0.13476557 h 0.0586 z"
       id="path40" />
    <path
       d="m 136.91602,-3.2695313 q 0,1.5996094 -0.82032,2.52539068 -0.82031,0.92578124 -2.19726,0.92578124 -1.38867,0 -2.20899,-0.92578124 -0.81445,-0.92578128 -0.81445,-2.52539068 0,-1.5996093 0.81445,-2.5253906 0.82032,-0.9316406 2.20899,-0.9316406 1.37695,0 2.19726,0.9316406 0.82032,0.9257813 0.82032,2.5253906 z m -1.13672,0 q 0,-1.2714843 -0.49805,-1.8867187 -0.49805,-0.6210937 -1.38281,-0.6210937 -0.89649,0 -1.39453,0.6210937 -0.49219,0.6152344 -0.49219,1.8867187 0,1.2304688 0.49805,1.8691407 0.49804,0.63281248 1.38867,0.63281248 0.8789,0 1.37695,-0.62695308 0.50391,-0.6328126 0.50391,-1.8750001 z"
       id="path42" />
    <path
       d="m 139.73437,0 h -1.10156 v -9.1171875 h 1.10156 z"
       id="path44" />
    <path
       d="m 147.49219,-3.2695313 q 0,1.5996094 -0.82032,2.52539068 -0.82031,0.92578124 -2.19726,0.92578124 -1.38867,0 -2.20899,-0.92578124 -0.81445,-0.92578128 -0.81445,-2.52539068 0,-1.5996093 0.81445,-2.5253906 0.82032,-0.9316406 2.20899,-0.9316406 1.37695,0 2.19726,0.9316406 0.82032,0.9257813 0.82032,2.5253906 z m -1.13672,0 q 0,-1.2714843 -0.49805,-1.8867187 -0.49805,-0.6210937 -1.38281,-0.6210937 -0.89649,0 -1.39453,0.6210937 -0.49219,0.6152344 -0.49219,1.8867187 0,1.2304688 0.49805,1.8691407 0.49804,0.63281248 1.38867,0.63281248 0.87891,0 1.37695,-0.62695308 0.50391,-0.6328126 0.50391,-1.8750001 z"
       id="path46" />
    <path
       d="m 154.50586,-0.74414062 q 0,1.6640625 -0.75586,2.44335932 -0.75586,0.7792969 -2.32617,0.7792969 -0.52149,0 -1.01953,-0.076172 -0.49219,-0.070312 -0.97266,-0.2050782 v -1.125 h 0.0586 q 0.26954,0.1054688 0.85547,0.2578125 0.58594,0.1582031 1.17188,0.1582031 0.5625,0 0.93164,-0.1347656 0.36914,-0.1347656 0.57422,-0.37499997 0.20508,-0.22851563 0.29297,-0.55078125 0.0879,-0.32226563 0.0879,-0.72070313 V -0.890625 q -0.49805,0.3984375 -0.95508,0.59765625 -0.45117,0.19335938 -1.1543,0.19335938 -1.17187,0 -1.86328,-0.84375001 -0.68555,-0.84960932 -0.68555,-2.39062502 0,-0.84375 0.23438,-1.453125 0.24023,-0.6152343 0.65039,-1.0605468 0.38086,-0.4160157 0.92578,-0.6445313 0.54492,-0.234375 1.08398,-0.234375 0.56836,0 0.94922,0.1171875 0.38672,0.1113281 0.81446,0.3457031 l 0.0703,-0.28125 h 1.03125 z M 153.4043,-1.7988281 v -3.5683594 q -0.43946,-0.1992187 -0.82032,-0.28125 -0.375,-0.087891 -0.75,-0.087891 -0.9082,0 -1.42968,0.609375 -0.52149,0.609375 -0.52149,1.7695312 0,1.1015625 0.38672,1.6699219 0.38672,0.5683594 1.2832,0.5683594 0.48047,0 0.96094,-0.1816406 0.48633,-0.1875 0.89063,-0.4980465 z"
       id="path48" />
    <path
       d="m 162.33398,-6.5449219 -3.82031,8.9589844 h -1.17773 l 1.21875,-2.73046875 -2.60742,-6.22851565 h 1.19531 l 2.00976,4.8515625 2.02735,-4.8515625 z"
       id="path50" />
  </g>
</svg>
