<?xml version="1.0" encoding="UTF-8" standalone="no"?>
<svg xmlns="http://www.w3.org/2000/svg" version="1.1" id="svg2" xml:space="preserve" viewBox="0 0 866.66669 200">
	<defs id="defs6">
		<clipPath clipPathUnits="userSpaceOnUse" id="clipPath18">
			<path d="M 0,150 H 650 V 0 H 0 Z" id="path16" />
		</clipPath>
		<clipPath clipPathUnits="userSpaceOnUse" id="clipPath38">
			<path d="M 11.05,13.279 H 167.983 V 47.344 H 11.05 Z" id="path36" />
		</clipPath>
		<clipPath clipPathUnits="userSpaceOnUse" id="clipPath326">
			<path d="M 168.197,13.273 H 325.238 V 47.164 H 168.197 Z" id="path324" />
		</clipPath>
		<clipPath clipPathUnits="userSpaceOnUse" id="clipPath378">
			<path d="M 325.658,13.154 H 482.106 V 47.068 H 325.658 Z" id="path376" />
		</clipPath>
		<clipPath clipPathUnits="userSpaceOnUse" id="clipPath430">
			<path d="M 482.176,13.313 H 638.944 V 47.158 H 482.176 Z" id="path428" />
		</clipPath>
	</defs>
	<g style="fill:#58595b;fill-opacity:1;fill-rule:nonzero;stroke:none" id="text22" aria-label="Catalogue of Life">
		<path d="m 78.196311,87.029962 c -3.797344,1.780005 -9.968028,2.966675 -15.901378,2.966675 -17.562716,0 -27.886745,-11.273365 -27.886745,-28.83608 0,-19.224054 11.748033,-29.429416 28.005412,-29.429416 6.645352,0 11.8667,1.424004 15.664044,3.085342 l 3.204009,-11.629366 c -2.966675,-1.542671 -9.849361,-3.56001 -19.461388,-3.56001 -24.445402,0 -42.72012,15.901378 -42.72012,42.245452 0,24.326734 15.42671,40.346781 40.821448,40.346781 9.612027,0 17.206715,-1.89867 20.648058,-3.678679 z" />
		<path d="m 134.61041,66.144571 c 0,-12.578702 -5.34001,-24.326735 -23.85206,-24.326735 -9.13736,0 -16.613385,2.492007 -20.885397,5.102681 l 2.848008,9.49336 c 3.916011,-2.492007 9.849359,-4.272012 15.545379,-4.272012 10.20536,0 11.74803,6.289351 11.74803,10.086695 v 0.949336 c -21.360059,-0.118667 -34.294762,7.238687 -34.294762,21.834727 0,8.781358 6.526685,17.206717 18.156052,17.206717 7.47602,0 13.52804,-3.204011 17.08805,-7.713357 h 0.356 l 0.94933,6.408017 h 13.17204 c -0.59333,-3.560009 -0.83067,-8.66269 -0.83067,-13.884038 z m -14.24004,14.477373 c 0,0.949336 -0.11866,2.136006 -0.47467,3.204009 -1.30533,4.153345 -5.57734,7.950689 -11.39203,7.950689 -4.62801,0 -8.30669,-2.610674 -8.30669,-8.30669 0,-8.781357 9.84936,-11.03603 20.17339,-10.798696 z" />
		<path d="m 149.12322,32.443143 v 10.68003 h -8.30669 v 10.917364 h 8.30669 v 27.174742 c 0,7.594688 1.42401,12.816036 4.50935,16.138712 2.72934,2.966679 7.23869,4.865349 12.5787,4.865349 4.62801,0 8.42536,-0.712 10.56136,-1.54267 L 176.5353,89.521969 c -1.66134,0.474668 -2.96667,0.712002 -5.69602,0.712002 -5.57734,0 -7.47602,-3.678677 -7.47602,-10.68003 V 54.040537 H 177.2473 V 43.123173 H 163.36326 V 28.289798 Z" />
		<path d="m 231.35935,66.144571 c 0,-12.578702 -5.34001,-24.326735 -23.85207,-24.326735 -9.13735,0 -16.61338,2.492007 -20.88539,5.102681 l 2.84801,9.49336 c 3.91601,-2.492007 9.84936,-4.272012 15.54538,-4.272012 10.20536,0 11.74803,6.289351 11.74803,10.086695 v 0.949336 c -21.36006,-0.118667 -34.29476,7.238687 -34.29476,21.834727 0,8.781358 6.52668,17.206717 18.15605,17.206717 7.47602,0 13.52804,-3.204011 17.08805,-7.713357 h 0.356 l 0.94933,6.408017 h 13.17204 c -0.59333,-3.560009 -0.83067,-8.66269 -0.83067,-13.884038 z m -14.24004,14.477373 c 0,0.949336 -0.11867,2.136006 -0.47467,3.204009 -1.30533,4.153345 -5.57735,7.950689 -11.39203,7.950689 -4.62801,0 -8.30669,-2.610674 -8.30669,-8.30669 0,-8.781357 9.84936,-11.03603 20.17339,-10.798696 z" />
		<path d="m 243.92602,100.914 h 14.7147 V 16.660432 h -14.7147 z" />
		<path d="m 298.06182,41.817836 c -17.44405,0 -29.90408,11.629366 -29.90408,30.616086 0,18.512051 12.5787,29.785418 28.95475,29.785418 14.71471,0 29.66675,-9.493362 29.66675,-30.734754 0,-17.562716 -11.5107,-29.66675 -28.71742,-29.66675 z m -0.356,10.68003 c 9.96803,0 14.00271,10.324029 14.00271,19.342721 0,11.629365 -5.81468,19.817388 -14.12137,19.817388 -8.90003,0 -14.35871,-8.425357 -14.35871,-19.580054 0,-9.612027 4.15334,-19.580055 14.47737,-19.580055 z" />
		<path d="m 389.19789,59.736553 c 0,-7.950689 0.23733,-12.697369 0.47467,-16.61338 h -12.69737 l -0.59334,7.713355 h -0.23733 c -2.72934,-4.74668 -7.95069,-9.018692 -16.73205,-9.018692 -13.88404,0 -26.2254,11.510699 -26.2254,30.497419 0,16.376045 10.20536,28.242745 24.56407,28.242745 7.59468,0 13.52803,-3.441343 16.85071,-8.544024 h 0.23733 v 4.984014 c 0,12.46004 -7.12002,17.44405 -16.61338,17.44405 -7.00135,0 -13.17203,-2.25467 -16.85071,-4.39068 l -3.20401,11.03603 c 4.98401,3.08534 12.81604,4.62801 20.17339,4.62801 7.95069,0 16.25738,-1.66133 22.3094,-7.00135 6.05201,-5.45868 8.54402,-14.12137 8.54402,-26.225406 z m -14.59604,15.901378 c 0,1.661338 -0.23733,3.678676 -0.59334,5.221347 -1.66133,5.221348 -6.40801,8.781358 -11.8667,8.781358 -9.13735,0 -14.12137,-7.950689 -14.12137,-17.800049 0,-11.748033 6.05202,-18.868053 14.24004,-18.868053 6.17069,0 10.32403,4.034678 11.8667,9.374693 0.356,1.18667 0.47467,2.610674 0.47467,3.916011 z" />
		<path d="m 453.65763,43.123173 h -14.59605 v 34.888098 c 0,1.661337 -0.356,3.204008 -0.83066,4.509345 -1.54268,3.678677 -5.34002,7.832022 -11.1547,7.832022 -7.71336,0 -10.7987,-6.170684 -10.7987,-15.78271 V 43.123173 h -14.59604 v 33.938762 c 0,18.868052 9.61203,25.157405 20.17339,25.157405 10.32403,0 16.02004,-5.933352 18.51205,-10.086697 h 0.23734 l 0.712,8.781357 h 12.81603 c -0.23733,-4.746679 -0.47466,-10.442695 -0.47466,-17.325381 z" />
		<path d="m 515.95761,76.112599 c 0.23734,-1.305337 0.47467,-3.441343 0.47467,-6.170684 0,-12.697369 -6.05202,-28.124079 -24.92007,-28.124079 -18.51205,0 -28.24275,15.070709 -28.24275,31.090754 0,17.681382 11.03604,29.31075 29.78542,29.31075 8.30669,0 15.18938,-1.66134 20.17339,-3.678679 l -2.136,-10.086695 c -4.39068,1.661338 -9.25603,2.610674 -16.02005,2.610674 -9.25603,0 -17.44405,-4.509346 -17.80005,-14.952041 z M 477.27217,65.907237 c 0.59334,-5.93335 4.39068,-14.121373 13.40937,-14.121373 9.7307,0 12.10404,8.781358 11.98537,14.121373 z" />
		<path d="m 578.96954,41.817836 c -17.44405,0 -29.90409,11.629366 -29.90409,30.616086 0,18.512051 12.57871,29.785418 28.95475,29.785418 14.71471,0 29.66675,-9.493362 29.66675,-30.734754 0,-17.562716 -11.5107,-29.66675 -28.71741,-29.66675 z m -0.356,10.68003 c 9.96803,0 14.0027,10.324029 14.0027,19.342721 0,11.629365 -5.81468,19.817388 -14.12137,19.817388 -8.90002,0 -14.35871,-8.425357 -14.35871,-19.580054 0,-9.612027 4.15335,-19.580055 14.47738,-19.580055 z" />
		<path d="M 633.43755,100.914 V 54.040537 h 12.5787 V 43.123173 h -12.69737 v -2.966675 c 0,-7.12002 2.49201,-13.172037 9.73069,-13.172037 2.61068,0 4.62802,0.474668 6.17069,1.068003 l 1.068,-11.273365 c -2.37334,-0.830669 -5.45868,-1.424004 -9.37469,-1.424004 -4.98402,0 -10.7987,1.542671 -15.07071,5.577349 -4.98402,4.74668 -7.00136,12.222701 -7.00136,19.698722 v 2.492007 h -7.83202 v 10.917364 h 7.83202 V 100.914 Z" />
		<path d="m 680.19214,100.914 h 47.4668 V 88.6913 H 694.78818 V 20.932444 h -14.59604 z" />
		<path d="M 749.96818,100.914 V 43.123173 H 735.25347 V 100.914 Z m -7.35736,-81.880228 c -4.86534,0 -8.18802,3.441343 -8.18802,7.950689 0,4.390679 3.20401,7.832022 8.06936,7.832022 5.10268,0 8.30669,-3.441343 8.30669,-7.832022 -0.11867,-4.509346 -3.20401,-7.950689 -8.18803,-7.950689 z" />
		<path d="M 779.63487,100.914 V 54.040537 h 12.5787 V 43.123173 h -12.69736 v -2.966675 c 0,-7.12002 2.492,-13.172037 9.73069,-13.172037 2.61067,0 4.62801,0.474668 6.17068,1.068003 l 1.06801,-11.273365 c -2.37334,-0.830669 -5.45869,-1.424004 -9.3747,-1.424004 -4.98401,0 -10.79869,1.542671 -15.07071,5.577349 -4.98401,4.74668 -7.00135,12.222701 -7.00135,19.698722 v 2.492007 h -7.83202 v 10.917364 h 7.83202 V 100.914 Z" />
		<path d="m 847.63092,76.112599 c 0.23734,-1.305337 0.47467,-3.441343 0.47467,-6.170684 0,-12.697369 -6.05202,-28.124079 -24.92007,-28.124079 -18.51205,0 -28.24275,15.070709 -28.24275,31.090754 0,17.681382 11.03603,29.31075 29.78542,29.31075 8.30669,0 15.18938,-1.66134 20.17339,-3.678679 l -2.13601,-10.086695 c -4.39067,1.661338 -9.25602,2.610674 -16.02004,2.610674 -9.25603,0 -17.44405,-4.509346 -17.80005,-14.952041 z M 808.94548,65.907237 c 0.59333,-5.93335 4.39068,-14.121373 13.40937,-14.121373 9.73069,0 12.10403,8.781358 11.98537,14.121373 z" />
	</g>
        <g style="fill-opacity:1;fill-rule:nonzero;stroke:none">
		<path style="fill:#1782b0" d="M 224.38666,182.396 H 15.142666 V 136.868 H 224.38666 Z" />
		<path style="fill:#f4ed86" d="M 433.63732,182.37467 H 224.38799 v -45.472 h 209.24933 z" />
		<path style="fill:#29b264" d="M 852.11998,182.396 H 642.87332 v -45.41733 h 209.24666 z" />
		<path style="fill:#e53443" d="M 642.87332,182.37467 H 433.63599 v -45.41734 h 209.23733 z" />
        </g>
	<g transform="matrix(1.3333333,0,0,-1.3333333,0,200)">
		<g clip-path="url(#clipPath38)" style="fill:#00aeef;fill-opacity:1;fill-rule:nonzero;stroke:none;stroke-width:0.1;stroke-linecap:butt;stroke-linejoin:miter;stroke-miterlimit:10;stroke-dasharray:none;stroke-opacity:1">
			<g transform="translate(73.7876,9.0801)">
				<path style="fill:#00aeef" d="m 0,0 c 0,-4.393 -3.56,-7.958 -7.955,-7.958 -4.393,0 -7.963,3.565 -7.963,7.958 0,4.394 3.57,7.959 7.963,7.959 C -3.56,7.959 0,4.394 0,0" />
			</g>
			<g transform="translate(92.8887,10.7969)">
				<path style="fill:#00aeef" d="m 0,0 c 0,-4.399 -3.561,-7.959 -7.955,-7.959 -4.398,0 -7.958,3.56 -7.958,7.959 0,4.395 3.56,7.955 7.958,7.955 C -3.561,7.955 0,4.395 0,0" />
			</g>
			<g transform="translate(34.6714,35.3281)">
				<path style="fill:#00aeef" d="m 0,0 c 0,-3.08 -2.227,-5.566 -4.971,-5.566 -2.748,0 -4.97,2.486 -4.97,5.566 0,3.076 2.222,5.567 4.97,5.567 C -2.227,5.567 0,3.076 0,0" />
			</g>
			<g transform="translate(150.0933,41.2949)">
				<path style="fill:#00aeef" d="m 0,0 c 0,-3.301 -2.314,-5.967 -5.169,-5.967 -2.851,0 -5.17,2.666 -5.17,5.967 0,3.294 2.319,5.965 5.17,5.965 C -2.314,5.965 0,3.294 0,0" />
			</g>
			<g transform="translate(107.8662,32.1387)">
				<path style="fill:#28aae1" d="m 0,0 c 0,-4.393 -3.561,-7.953 -7.948,-7.953 -4.404,0 -7.96,3.56 -7.96,7.953 0,4.398 3.556,7.959 7.96,7.959 C -3.561,7.959 0,4.398 0,0" />
			</g>
			<g transform="translate(120.1982,29.7617)">
				<path style="fill:#00aeef" d="m 0,0 c 0,-4.4 -3.555,-7.961 -7.953,-7.961 -4.395,0 -7.955,3.561 -7.955,7.961 0,4.391 3.56,7.951 7.955,7.951 C -3.555,7.951 0,4.391 0,0" />
			</g>
			<g transform="translate(130.5483,22.8672)">
				<path style="fill:#00aeef" d="m 0,0 c 0,-4.392 -3.566,-7.952 -7.954,-7.952 -4.399,0 -7.964,3.56 -7.964,7.952 0,4.399 3.565,7.96 7.964,7.96 C -3.566,7.96 0,4.399 0,0" />
			</g>
			<g transform="translate(142.4814,14.915)">
				<path style="fill:#00aeef" d="m 0,0 c 0,-4.394 -3.565,-7.96 -7.953,-7.96 -4.399,0 -7.96,3.566 -7.96,7.96 0,4.392 3.561,7.952 7.96,7.952 C -3.565,7.952 0,4.392 0,0" />
			</g>
			<g transform="translate(142.4814,14.915)">
				<path style="fill:none;stroke:#005b7f" d="m 0,0 c 0,-4.394 -3.565,-7.96 -7.953,-7.96 -4.399,0 -7.96,3.566 -7.96,7.96 0,4.392 3.561,7.952 7.96,7.952 C -3.565,7.952 0,4.392 0,0 Z" />
			</g>
			<g transform="translate(96.3315,32.1387)">
				<path style="fill:#00aeef" d="m 0,0 c 0,-4.393 -3.56,-7.953 -7.955,-7.953 -4.398,0 -7.958,3.56 -7.958,7.953 0,4.398 3.56,7.959 7.958,7.959 C -3.56,7.959 0,4.398 0,0" />
			</g>
			<g transform="translate(101.2915,25.5703)">
				<path style="fill:#0083b4" d="m 0,0 c 0,-4.4 -3.565,-7.96 -7.964,-7.96 -4.388,0 -7.954,3.56 -7.954,7.96 0,4.395 3.566,7.955 7.954,7.955 C -3.565,7.955 0,4.395 0,0" />
			</g>
			<g transform="translate(84.3984,30.0244)">
				<path style="fill:#00aeef" d="m 0,0 c 0,-4.392 -3.561,-7.952 -7.955,-7.952 -4.393,0 -7.959,3.56 -7.959,7.952 0,4.397 3.566,7.96 7.959,7.96 C -3.561,7.96 0,4.397 0,0" />
			</g>
			<g transform="translate(61.3281,16.6309)">
				<path style="fill:#00aeef" d="m 0,0 c 0,-4.395 -3.565,-7.961 -7.958,-7.961 -4.395,0 -7.96,3.566 -7.96,7.961 0,4.394 3.565,7.954 7.96,7.954 C -3.565,7.954 0,4.394 0,0" />
			</g>
			<g transform="translate(52.1782,9.4678)">
				<path style="fill:#00aeef" d="m 0,0 c 0,-4.395 -3.565,-7.96 -7.958,-7.96 -4.394,0 -7.954,3.565 -7.954,7.96 0,4.395 3.56,7.96 7.954,7.96 C -3.565,7.96 0,4.395 0,0" />
			</g>
			<g transform="translate(95.5391,23.6602)">
				<path style="fill:#00aeef" d="m 0,0 c 0,-4.393 -3.565,-7.953 -7.953,-7.953 -4.399,0 -7.96,3.56 -7.96,7.953 0,4.391 3.561,7.957 7.96,7.957 C -3.565,7.957 0,4.391 0,0" />
			</g>
			<g transform="translate(95.5391,23.6602)">
				<path style="fill:none;stroke:#005b7f" d="m 0,0 c 0,-4.393 -3.565,-7.953 -7.953,-7.953 -4.399,0 -7.96,3.56 -7.96,7.953 0,4.391 3.561,7.957 7.96,7.957 C -3.565,7.957 0,4.391 0,0 Z" />
			</g>
			<g transform="translate(107.8765,23.1328)">
				<path style="fill:#00aeef" d="m 0,0 c 0,-4.396 -3.565,-7.957 -7.953,-7.957 -4.399,0 -7.955,3.561 -7.955,7.957 0,4.393 3.556,7.955 7.955,7.955 C -3.565,7.955 0,4.393 0,0" />
			</g>
			<g transform="translate(107.8765,23.1328)">
				<path style="fill:none;stroke:#005b7f" d="m 0,0 c 0,-4.396 -3.565,-7.957 -7.953,-7.957 -4.399,0 -7.955,3.561 -7.955,7.957 0,4.393 3.556,7.955 7.955,7.955 C -3.565,7.955 0,4.393 0,0 Z" />
			</g>
			<g transform="translate(119.1465,15.7129)">
				<path style="fill:#0083b4" d="m 0,0 c 0,-4.4 -3.567,-7.96 -7.96,-7.96 -4.398,0 -7.953,3.56 -7.953,7.96 0,4.392 3.555,7.951 7.953,7.951 C -3.567,7.951 0,4.392 0,0" />
			</g>
			<g transform="translate(129.752,11.2031)">
				<path style="fill:#0083b4" d="m 0,0 c 0,-4.396 -3.562,-7.957 -7.955,-7.957 -4.398,0 -7.963,3.561 -7.963,7.957 0,4.395 3.565,7.955 7.963,7.955 C -3.562,7.955 0,4.395 0,0" />
			</g>
			<g transform="translate(117.021,11.2031)">
				<path style="fill:#00aeef" d="m 0,0 c 0,-4.396 -3.56,-7.957 -7.958,-7.957 -4.395,0 -7.96,3.561 -7.96,7.957 0,4.395 3.565,7.955 7.96,7.955 C -3.56,7.955 0,4.395 0,0" />
			</g>
			<g transform="translate(129.7051,11.4258)">
				<path style="fill:#00aeef" d="m 0,0 c 0,-4.397 -3.561,-7.961 -7.948,-7.961 -4.399,0 -7.96,3.564 -7.96,7.961 0,4.391 3.561,7.951 7.96,7.951 C -3.561,7.951 0,4.391 0,0" />
			</g>
			<g transform="translate(129.7051,11.4258)">
				<path style="fill:none;stroke:#005b7f" d="m 0,0 c 0,-4.397 -3.561,-7.961 -7.948,-7.961 -4.399,0 -7.96,3.564 -7.96,7.961 0,4.391 3.561,7.951 7.96,7.951 C -3.561,7.951 0,4.391 0,0 Z" />
			</g>
			<g transform="translate(83.6006,16.4971)">
				<path style="fill:#0083b4" d="m 0,0 c 0,-4.392 -3.555,-7.952 -7.953,-7.952 -4.393,0 -7.955,3.56 -7.955,7.952 0,4.397 3.562,7.96 7.955,7.96 C -3.555,7.96 0,4.397 0,0" />
			</g>
			<g transform="translate(104.29,11.1328)">
				<path style="fill:#00aeef" d="m 0,0 c 0,-4.391 -3.56,-7.951 -7.958,-7.951 -4.388,0 -7.955,3.56 -7.955,7.951 0,4.397 3.567,7.961 7.955,7.961 C -3.56,7.961 0,4.397 0,0" />
			</g>
			<g transform="translate(72.4648,22.9951)">
				<path style="fill:#00aeef" d="m 0,0 c 0,-4.395 -3.562,-7.96 -7.955,-7.96 -4.393,0 -7.958,3.565 -7.958,7.96 0,4.394 3.565,7.954 7.958,7.954 C -3.562,7.954 0,4.394 0,0" />
			</g>
			<g transform="translate(72.4648,22.9951)">
				<path style="fill:none;stroke:#005b7f" d="m 0,0 c 0,-4.395 -3.562,-7.96 -7.955,-7.96 -4.393,0 -7.958,3.565 -7.958,7.96 0,4.394 3.565,7.954 7.958,7.954 C -3.562,7.954 0,4.394 0,0 Z" />
			</g>
		</g>
	</g>
	<g transform="matrix(1.3333333,0,0,-1.3333333,0,200)">
		<g clip-path="url(#clipPath326)" id="g322" style="fill:#ccbd39;fill-opacity:1;fill-rule:nonzero;stroke:none" >
			<g transform="translate(244.1001,26.373)">
				<path d="m 0,0 c 0,0 -50.313,38.521 -61.323,27.398 -8.531,-8.64 -15.632,-33.713 -14.314,-45.392 0.992,-8.894 6.513,-26.961 10.632,-35.229 2.017,-4.049 9.517,-15.539 9.517,-15.539 0,0 5.281,-6.381 8.03,-6.646 11.586,-1.134 36.036,24.349 36.036,24.349 z" />
			</g>
			<g transform="translate(255.4302,28.2422)">
				<path d="M 0,0 C 0,0 63.76,21.21 69.195,7.598 73.416,-2.959 69.103,-28.49 62.799,-39.01 57.987,-47.01 44.965,-62.274 37.523,-68.775 33.875,-71.96 21.87,-80.488 21.87,-80.488 c 0,0 -7.719,-4.41 -10.416,-3.863 -11.3,2.34 -24.556,35.564 -24.556,35.564 z" />
			</g>
			<g transform="translate(242.0869,20.6807)">
				<path style="fill:#f4ed86" d="m 0,0 c 0,0 -37.005,17.819 -50.875,21.841 -2.11,0.605 -5.625,-6.086 -3.541,-6.745 C -38.559,10.142 0,0 0,0" />
			</g>
			<g transform="translate(239.144,18.7412)">
				<path style="fill:#f4ed86" d="m 0,0 c 0,0 -42.891,-0.339 -57.327,-2.755 -2.176,-0.362 1.298,-11.069 3.464,-10.646 C -36.494,-9.987 0,0 0,0" />
			</g>
			<g transform="translate(249.6885,18.4395)">
				<path style="fill:#f4ed86" d="M 0,0 C 0,0 41.379,9.263 56.071,10.164 58.284,10.303 59.564,3.086 57.323,2.906 40.45,1.512 0,0 0,0" />
			</g>
			<g transform="translate(251.252,17.5947)">
				<path style="fill:#f4ed86" d="M 0,0 C 0,0 41.292,-9.517 54.431,-14.94 56.438,-15.769 49.67,-25.368 47.704,-24.484 32.035,-17.455 0,0 0,0" />
			</g>
			<g transform="translate(253.6523,35.8906)">
				<path d="m 0,0 c -9.772,1.236 -9.788,-4.019 -11.811,-8.512 -6.088,-13.594 -12.955,-42.395 -13.037,-57.308 -0.01,-2.63 -1.261,-14.497 1.783,-15.355 3.02,-0.837 3.296,3.49 4.645,5.779 9.389,15.862 19.636,53.54 20.623,66.097 C 2.453,-6.086 3.888,-0.492 0,0" />
			</g>
			<g transform="translate(248.4424,23.6328)">
				<path d="m 0,0 c 0,0 2.278,4.314 1.956,17.682 -0.623,25.522 -6.84,26.74 -6.84,26.74 0,0 3.903,-12.512 4.557,-22.429 C 0.035,16.512 0,0 0,0" />
			</g>
			<g transform="translate(251.1543,27.9961)">
				<path d="m 0,0 c 0,0 -1.139,4.758 2.498,17.614 6.928,24.558 13.252,24.154 13.252,24.154 0,0 -6.886,-11.122 -9.982,-20.551 C 4.062,15.996 0,0 0,0" />
			</g>
		</g>
	</g>
	<g transform="matrix(1.3333333,0,0,-1.3333333,0,200)">
		<g clip-path="url(#clipPath378)" id="g374" style="fill:#f7a2a5;fill-opacity:1;fill-rule:nonzero;stroke:none">
			<g transform="translate(410.9121,31.0879)">
				<path d="m 0,0 c 0,0 -36.072,0.492 -50.92,-2.969 -8.659,-2.011 -5.972,-23.285 -8.964,-23.389 -2.189,-0.083 -9.899,22.071 1.887,28.004 21.011,10.575 63.179,6.258 63.179,6.258 z" />
			</g>
			<g transform="translate(426.1494,16.9199)">
				<path d="m 0,0 c 0,0 -34.952,1.946 -45.268,-1.324 -8.504,-2.69 -17.815,-15.464 -25.769,-18.887 -4.61,-1.993 -21.37,-2.64 -21.37,-2.64 l 19.486,7.908 23.254,17.14 38.35,3.951 z" />
			</g>
			<g transform="translate(417.9805,39.4854)">
				<path d="m 0,0 c 0,0 -14.58,7.608 -20.051,9.396 -6.612,2.164 -20.733,5.912 -28.047,5.765 -5.939,-0.119 -17.296,-3.455 -22.388,-5.603 -3.149,-1.319 -6.866,-3.493 -8.953,-5.602 -2.129,-2.139 -2.396,-9.721 -1.885,-8.071 1.408,4.613 11.549,8.893 11.549,8.893 0,0 8.742,3.763 11.787,4.287 2.941,0.503 8.983,1.278 12.017,1.155 6.803,-0.277 20.32,-3.633 26.632,-5.442 4.626,-1.319 16.978,-7.413 16.978,-7.413 z" />
			</g>
			<g transform="translate(411.8477,27.1338)">
				<path d="m 0,0 c -4.868,0.985 -43.221,0.651 -51.855,-0.333 -6.051,-0.688 -16.502,-5.211 -22.632,-5.271 -3.279,-0.031 -10.368,5.169 -12.254,3.294 -1.976,-1.957 5.788,-6.328 8.954,-7.25 7.741,-2.247 21.346,2.424 29.686,2.971 11.871,0.772 52.97,2.524 52.97,2.524 0,0 -3.303,3.748 -4.869,4.065" />
			</g>
			<g transform="translate(418.6113,19.9922)">
				<path d="m 0,0 c 0,0 5.65,-5.494 3.77,-8.346 -2.957,-4.474 -20.999,-7.133 -26.09,-3.737 -2.284,1.522 0.367,9.419 -0.95,11.424 -3.451,5.272 -15.328,2.389 -20.746,1.096 -6.568,-1.568 -25.441,-16.132 -19.168,-14.052 5.979,1.97 10.95,6.781 16.348,8.345 3.82,1.105 14.014,4.626 17.285,2.852 3.594,-1.953 -0.907,-10.629 2.513,-12.74 6.703,-4.137 31.378,-2.466 35.515,3.075 3.776,5.054 3.145,8.349 3.145,8.349 z" />
			</g>
			<g transform="translate(452.5566,30.209)">
				<path style="fill:#f37779" d="m 0,0 c 0,-8.434 -9.572,-15.268 -21.377,-15.268 -11.805,0 -21.367,6.834 -21.367,15.268 0,8.43 9.562,15.266 21.367,15.266 C -9.572,15.266 0,8.43 0,0" />
			</g>
			<g transform="translate(445.8271,30.6475)">
				<path d="m 0,0 c 0,-5.641 -5.572,-10.218 -12.438,-10.218 -6.875,0 -12.437,4.577 -12.437,10.218 0,5.64 5.562,10.212 12.437,10.212 C -5.572,10.212 0,5.64 0,0" />
			</g>
			<g transform="translate(485.6006,40.4238)">
				<path style="fill:#f37779" d="m 0,0 c 0,0 -44.042,10.832 -38.981,4.392 5.195,-6.595 5.667,-9.56 -1.881,-28.999 -2.143,-5.515 37.432,-4.577 37.432,-4.577 z" />
			</g>
			<g transform="translate(441.9121,31.8203)">
				<path style="fill:#fbd9e3" d="m 0,0 c 0,-3.535 -3.31,-6.406 -7.391,-6.406 -4.077,0 -7.386,2.871 -7.386,6.406 0,3.534 3.309,6.406 7.386,6.406 C -3.31,6.406 0,3.534 0,0" />
			</g>
			<g transform="translate(439.082,32.9541)">
				<path style="fill:#f37779" d="m 0,0 c 0,-2.421 -2.116,-4.387 -4.733,-4.387 -2.62,0 -4.739,1.966 -4.739,4.387 0,2.427 2.119,4.392 4.739,4.392 C -2.116,4.392 0,2.427 0,0" />
			</g>
		</g>
	</g>
	<g transform="matrix(1.3333333,0,0,-1.3333333,0,200)">
		<g clip-path="url(#clipPath430)" id="g426" style="fill:#a0d5b1;fill-opacity:1;fill-rule:nonzero;stroke:none">
			<g transform="translate(711.6152,14.6699)">
				<path d="m 0,0 c -86.862,2.964 -136.595,9.409 -176.562,14.583 -30.592,3.962 -54.756,7.097 -84.258,6.951 -2.633,-0.023 -10.358,-2.218 -13.105,-3.067 l -1.147,3.719 c 1.061,0.331 10.551,3.232 14.231,3.242 29.765,0.143 54.043,-3.002 84.78,-6.983 C -136.184,13.277 -86.547,6.848 0.131,3.884 Z" />
			</g>
			<g transform="translate(495.4658,33.9473)">
				<path d="m 0,0 c -8.849,7.512 -19.212,15.575 -21.245,16.065 l 0.924,3.783 C -16.491,18.917 -1.872,6.695 2.521,2.971 Z" />
			</g>
			<g transform="translate(522.0508,31.1787)">
				<path d="m 0,0 c -0.24,0.256 -24.701,25.454 -37.612,26.458 l 0.297,3.881 C -22.934,29.218 1.76,3.79 2.799,2.706 Z" />
			</g>
			<g transform="translate(543.4912,29.2529)">
				<path d="m 0,0 c -0.154,0.276 -15.964,27.461 -44.89,37.456 l 1.272,3.678 C -13.274,30.653 2.713,3.102 3.375,1.931 Z" />
			</g>
			<g transform="translate(585.123,23.4043)">
				<path d="m 0,0 c -0.334,0.331 -33.889,33.494 -73.729,49.545 l 1.452,3.611 C -31.684,36.805 2.402,3.099 2.741,2.76 Z" />
			</g>
			<g transform="translate(627.7686,19.6426)">
				<path d="m 0,0 c -0.303,0.23 -30.477,23.25 -44.361,30.068 -3.972,1.952 -8.585,5.76 -13.47,9.789 -5.463,4.509 -11.113,9.169 -16.269,11.604 -5.153,2.434 -21.59,8.189 -21.758,8.249 l 1.283,3.675 c 0.682,-0.239 16.798,-5.883 22.138,-8.406 5.593,-2.643 11.434,-7.459 17.083,-12.122 4.699,-3.88 9.142,-7.543 12.706,-9.292 C -28.42,26.575 1.104,4.051 2.358,3.092 Z" />
			</g>
			<g transform="translate(650.4492,18.1523)">
				<path d="m 0,0 c -0.428,0.401 -43.198,40.461 -63.672,52.326 -6.299,3.646 -26.858,12.18 -27.061,12.266 l 1.49,3.594 C -88.391,67.831 -68.246,59.467 -61.72,55.693 -40.863,43.604 0.891,4.498 2.666,2.841 Z" />
			</g>
			<g transform="translate(473.1709,19.2158)">
				<path d="m 0,0 -1.788,3.649 c 0.089,0.043 8.859,4.256 11.497,5.948 4.952,3.174 11.108,8.523 11.171,8.574 l 2.705,-3.039 C 23.329,14.9 17.147,9.531 11.935,6.187 9.089,4.368 0.37,0.177 0,0" />
			</g>
			<g transform="translate(480.127,9.8125)">
				<path d="m 0,0 -1.293,3.674 c 33.102,11.599 36.506,19.835 36.537,19.918 l 3.733,-1.081 C 38.719,21.516 35.4,12.411 0,0" />
			</g>
			<g transform="translate(487.0605,1.4082)">
				<path d="M 0,0 -0.92,3.791 C 56.308,17.666 63.098,27.92 63.147,28.02 l 3.446,-1.809 C 65.973,25.032 58.831,14.273 0,0" />
			</g>
			<g transform="translate(512.9414,-8.5449)">
				<path d="m 0,0 c -8.371,-0.93 -14.605,0.414 -14.95,0.492 l 0.843,3.801 C -14.002,4.267 -2.916,1.905 9.102,5.961 42.776,17.34 60.906,35.33 61.081,35.504 l 2.76,-2.739 C 63.085,32.004 44.944,13.965 10.348,2.275 6.725,1.048 3.206,0.357 0,0" />
			</g>
			<g transform="translate(539.0469,-19.2285)">
				<path d="m 0,0 c -10.895,-1.209 -21.018,-0.469 -21.57,-0.43 l 0.292,3.883 c 0.169,-0.015 17.28,-1.258 30.426,2.099 28.41,7.24 77.384,36.28 77.879,36.573 L 89.011,38.78 C 86.985,37.579 39.062,9.156 10.113,1.777 6.839,0.943 3.383,0.378 0,0" />
			</g>
			<g transform="translate(694.3379,15.3945)">
				<path d="m 0,0 c -0.271,0.266 -27.651,26.791 -56.605,47.66 l 2.275,3.159 C -25.142,29.775 2.435,3.061 2.708,2.789 Z" />
			</g>
		</g>
	</g>
</svg>
