<?xml version="1.0" encoding="UTF-8" standalone="no"?>
<svg
   version="1.1"
   id="svg4"
   width="151.24805"
   height="11.589844"
   xmlns="http://www.w3.org/2000/svg"
   xmlns:svg="http://www.w3.org/2000/svg">
  <defs
     id="defs8" />
  <g
     aria-label="The FfE Open Data Portal"
     id="text2"
     transform="translate(0,9.1757813)">
    <path
       d="M 7.3945312,-7.6933594 H 4.2773437 V 0 H 3.1171875 V -7.6933594 H 0 v -1.03125 h 7.3945312 z"
       id="path10" />
    <path
       d="m 13.951172,0 h -1.101563 v -3.7265625 q 0,-0.4511719 -0.05273,-0.84375 Q 12.744141,-4.96875 12.603516,-5.1914062 12.457031,-5.4375 12.181641,-5.5546875 11.90625,-5.6777344 11.466797,-5.6777344 q -0.451172,0 -0.943359,0.2226563 -0.492188,0.2226562 -0.9433599,0.5683594 V 0 H 8.4785156 v -9.1171875 h 1.1015625 v 3.2988281 q 0.5156249,-0.4277343 1.0664059,-0.6679687 0.550782,-0.2402344 1.13086,-0.2402344 1.060547,0 1.617187,0.6386719 0.556641,0.6386719 0.556641,1.8398437 z"
       id="path12" />
    <path
       d="m 21.550781,-3.1582031 h -4.822265 q 0,0.6035156 0.18164,1.0546875 0.181641,0.4453125 0.498047,0.7324219 0.304688,0.28125 0.720703,0.42187495 0.421875,0.140625 0.925781,0.140625 0.667969,0 1.341797,-0.26367185 0.679688,-0.2695313 0.966797,-0.5273438 h 0.05859 v 1.2011719 q -0.556641,0.234375 -1.136719,0.39257812 -0.580078,0.15820313 -1.21875,0.15820313 -1.628906,0 -2.542969,-0.87890625 -0.914062,-0.8847656 -0.914062,-2.5078125 0,-1.6054687 0.873047,-2.5488281 0.878906,-0.9433594 2.308594,-0.9433594 1.324218,0 2.039062,0.7734375 0.720703,0.7734375 0.720703,2.1972656 z m -1.072265,-0.84375 q -0.0059,-0.8671875 -0.439454,-1.3417969 -0.427734,-0.4746094 -1.30664,-0.4746094 -0.884766,0 -1.41211,0.5214844 -0.521484,0.5214844 -0.591796,1.2949219 z"
       id="path14" />
    <path
       d="M 33.099609,-7.6933594 H 28.6875 v 2.4609375 h 3.791016 v 1.03125 H 28.6875 V 0 h -1.160156 v -8.7246094 h 5.572265 z"
       id="path16" />
    <path
       d="m 37.857422,-8.0507813 h -0.05859 q -0.181641,-0.052734 -0.474609,-0.1054687 -0.292969,-0.058594 -0.515625,-0.058594 -0.708985,0 -1.03125,0.3164063 -0.316407,0.3105469 -0.316407,1.1308594 v 0.2226562 h 1.986329 v 0.9257813 H 35.496094 V 0 h -1.101563 v -5.6191406 h -0.74414 v -0.9257813 h 0.74414 v -0.2167968 q 0,-1.1660157 0.580078,-1.7871094 0.580078,-0.6269532 1.675782,-0.6269532 0.36914,0 0.662109,0.035156 0.298828,0.035156 0.544922,0.082031 z"
       id="path18" />
    <path
       d="m 44.390625,0 h -5.748047 v -8.7246094 h 5.748047 v 1.03125 h -4.587891 v 2.390625 h 4.587891 v 1.03125 H 39.802734 V -1.03125 h 4.587891 z"
       id="path20" />
    <path
       d="m 56.953125,-7.7226562 q 0.533203,0.5859375 0.814453,1.4355468 0.287109,0.8496094 0.287109,1.9277344 0,1.078125 -0.292968,1.9335937 -0.28711,0.8496094 -0.808594,1.4179688 -0.539063,0.59179687 -1.277344,0.890625 Q 54.943359,0.18164062 54,0.18164062 q -0.919922,0 -1.675781,-0.30468749 -0.75,-0.30468751 -1.277344,-0.88476563 -0.527344,-0.5800781 -0.814453,-1.4238281 -0.28125,-0.84375 -0.28125,-1.9277344 0,-1.0664062 0.28125,-1.9101562 0.28125,-0.8496094 0.820312,-1.453125 0.515625,-0.5742188 1.277344,-0.8789063 Q 53.097656,-8.90625 54,-8.90625 q 0.9375,0 1.681641,0.3105469 0.75,0.3046875 1.271484,0.8730469 z m -0.105469,3.3632812 q 0,-1.6992187 -0.761719,-2.6191406 -0.761718,-0.9257813 -2.080078,-0.9257813 -1.330078,0 -2.091797,0.9257813 -0.755859,0.9199219 -0.755859,2.6191406 0,1.7167969 0.773438,2.6308594 0.773437,0.9082031 2.074218,0.9082031 1.300782,0 2.06836,-0.9082031 0.773437,-0.9140625 0.773437,-2.6308594 z"
       id="path22" />
    <path
       d="m 65.566406,-3.3515625 q 0,0.796875 -0.228515,1.4589844 -0.228516,0.65625 -0.644532,1.11328123 -0.386718,0.43359374 -0.914062,0.67382812 -0.521485,0.234375 -1.107422,0.234375 -0.509766,0 -0.925781,-0.11132812 Q 61.335937,-0.09375 60.908203,-0.328125 v 2.7421875 h -1.101562 v -8.9589844 h 1.101562 v 0.6855469 q 0.439453,-0.3691406 0.984375,-0.6152344 0.550781,-0.2519531 1.171875,-0.2519531 1.183594,0 1.839844,0.8964844 0.662109,0.890625 0.662109,2.4785156 z m -1.136719,0.029297 q 0,-1.1835938 -0.404296,-1.7695313 -0.404297,-0.5859375 -1.242188,-0.5859375 -0.474609,0 -0.955078,0.2050782 -0.480469,0.2050781 -0.919922,0.5390625 v 3.7089843 q 0.46875,0.2109375 0.802734,0.2871094 0.339844,0.0761719 0.767579,0.0761719 0.919921,0 1.435546,-0.6210938 0.515625,-0.6210937 0.515625,-1.8398437 z"
       id="path24" />
    <path
       d="m 72.761719,-3.1582031 h -4.822266 q 0,0.6035156 0.181641,1.0546875 0.18164,0.4453125 0.498047,0.7324219 0.304687,0.28125 0.720703,0.42187495 0.421875,0.140625 0.925781,0.140625 0.667969,0 1.341797,-0.26367185 0.679687,-0.2695313 0.966797,-0.5273438 h 0.05859 v 1.2011719 q -0.55664,0.234375 -1.136718,0.39257812 -0.580078,0.15820313 -1.21875,0.15820313 -1.628907,0 -2.542969,-0.87890625 -0.914063,-0.8847656 -0.914063,-2.5078125 0,-1.6054687 0.873047,-2.5488281 0.878907,-0.9433594 2.308594,-0.9433594 1.324219,0 2.039063,0.7734375 0.720703,0.7734375 0.720703,2.1972656 z m -1.072266,-0.84375 Q 71.683594,-4.8691406 71.25,-5.34375 q -0.427734,-0.4746094 -1.306641,-0.4746094 -0.884765,0 -1.412109,0.5214844 -0.521484,0.5214844 -0.591797,1.2949219 z"
       id="path26" />
    <path
       d="m 79.904297,0 h -1.101563 v -3.7265625 q 0,-0.4511719 -0.05273,-0.84375 Q 78.697274,-4.96875 78.556645,-5.1914062 78.41016,-5.4375 78.13477,-5.5546875 q -0.275391,-0.1230469 -0.714844,-0.1230469 -0.451172,0 -0.94336,0.2226563 -0.492187,0.2226562 -0.943359,0.5683594 V 0 h -1.101562 v -6.5449219 h 1.101562 v 0.7265625 q 0.515625,-0.4277343 1.066406,-0.6679687 0.550782,-0.2402344 1.13086,-0.2402344 1.060547,0 1.617187,0.6386719 0.556641,0.6386719 0.556641,1.8398437 z"
       id="path28" />
    <path
       d="m 93.703125,-4.3535156 q 0,1.1894531 -0.521484,2.15625 -0.515625,0.9667969 -1.376954,1.49999998 Q 91.207031,-0.328125 90.46875,-0.1640625 89.736328,0 88.535156,0 h -2.203125 v -8.7246094 h 2.179688 q 1.277343,0 2.027343,0.1875 0.75586,0.1816406 1.277344,0.5039063 0.890625,0.5566406 1.388672,1.4824219 0.498047,0.9257812 0.498047,2.1972656 z m -1.212891,-0.017578 q 0,-1.0253907 -0.357422,-1.7285157 -0.357421,-0.703125 -1.066406,-1.1074218 Q 90.550781,-7.5 89.970703,-7.6113281 89.390625,-7.7285156 88.582031,-7.7285156 h -1.089844 v 6.73242185 h 1.089844 q 0.837891,0 1.458985,-0.12304685 0.626953,-0.1230469 1.148437,-0.4570313 0.650391,-0.4160156 0.972656,-1.0957031 0.328125,-0.6796875 0.328125,-1.6992186 z"
       id="path30" />
    <path
       d="m 100.57617,0 h -1.095701 v -0.69726562 q -0.146485,0.0996094 -0.398438,0.28124999 -0.246094,0.17578125 -0.480469,0.28125001 Q 98.326172,0 97.96875,0.08789062 q -0.357422,0.09375 -0.837891,0.09375 -0.884765,0 -1.5,-0.5859375 -0.615234,-0.5859375 -0.615234,-1.49414062 0,-0.7441406 0.316406,-1.2011719 0.322266,-0.4628906 0.914063,-0.7265625 0.597656,-0.2636718 1.435547,-0.3574218 0.83789,-0.09375 1.798828,-0.140625 v -0.1699219 q 0,-0.375 -0.134766,-0.6210938 -0.128906,-0.2460937 -0.375,-0.3867187 -0.234375,-0.1347656 -0.5625,-0.1816406 -0.328125,-0.046875 -0.685547,-0.046875 -0.433594,0 -0.966797,0.1171875 -0.533203,0.1113281 -1.101562,0.328125 h -0.05859 v -1.1191407 q 0.322266,-0.087891 0.931641,-0.1933593 0.609375,-0.1054688 1.201172,-0.1054688 0.691406,0 1.201171,0.1171875 0.515625,0.1113281 0.890625,0.3867188 0.369134,0.2695312 0.562494,0.6972656 0.19336,0.4277344 0.19336,1.0605469 z m -1.095701,-1.6113281 v -1.8222657 q -0.503907,0.029297 -1.189453,0.087891 -0.679688,0.058594 -1.078125,0.1699218 -0.47461,0.1347657 -0.767579,0.421875 -0.292968,0.28125 -0.292968,0.7792969 0,0.5625 0.339843,0.8496094 0.339844,0.28125 1.03711,0.28125 0.580078,0 1.060547,-0.2226562 0.480468,-0.2285157 0.890625,-0.5449222 z"
       id="path32" />
    <path
       d="m 106.0957,-0.05859375 q -0.31054,0.08203125 -0.67968,0.13476562 -0.36329,0.05273438 -0.65039,0.05273438 -1.00196,0 -1.52344,-0.5390625 -0.52149,-0.5390625 -0.52149,-1.72851565 v -3.4804687 h -0.74414 v -0.9257813 h 0.74414 v -1.8808594 h 1.10157 v 1.8808594 h 2.27343 v 0.9257813 h -2.27343 v 2.9824218 q 0,0.515625 0.0234,0.8085938 0.0234,0.2871094 0.16407,0.5390625 0.1289,0.234375 0.35156,0.34570312 0.22851,0.10546875 0.6914,0.10546875 0.26954,0 0.5625,-0.0761719 0.29297,-0.0820313 0.42188,-0.13476557 h 0.0586 z"
       id="path34" />
    <path
       d="m 112.51172,0 h -1.0957 v -0.69726562 q -0.14649,0.0996094 -0.39844,0.28124999 -0.2461,0.17578125 -0.48047,0.28125001 Q 110.26172,0 109.9043,0.08789062 q -0.35742,0.09375 -0.83789,0.09375 -0.88477,0 -1.5,-0.5859375 -0.61524,-0.5859375 -0.61524,-1.49414062 0,-0.7441406 0.31641,-1.2011719 0.32226,-0.4628906 0.91406,-0.7265625 0.59766,-0.2636718 1.43555,-0.3574218 0.83789,-0.09375 1.79883,-0.140625 v -0.1699219 q 0,-0.375 -0.13477,-0.6210938 -0.12891,-0.2460937 -0.375,-0.3867187 -0.23437,-0.1347656 -0.5625,-0.1816406 -0.32812,-0.046875 -0.68555,-0.046875 -0.43359,0 -0.96679,0.1171875 -0.53321,0.1113281 -1.10157,0.328125 h -0.0586 v -1.1191407 q 0.32227,-0.087891 0.93164,-0.1933593 0.60938,-0.1054688 1.20117,-0.1054688 0.69141,0 1.20117,0.1171875 0.51563,0.1113281 0.89063,0.3867188 0.36914,0.2695312 0.5625,0.6972656 0.19336,0.4277344 0.19336,1.0605469 z m -1.0957,-1.6113281 v -1.8222657 q -0.50391,0.029297 -1.18946,0.087891 -0.67968,0.058594 -1.07812,0.1699218 -0.47461,0.1347657 -0.76758,0.421875 -0.29297,0.28125 -0.29297,0.7792969 0,0.5625 0.33984,0.8496094 0.33985,0.28125 1.03711,0.28125 0.58008,0 1.06055,-0.2226562 0.48047,-0.2285157 0.89063,-0.5449222 z"
       id="path36" />
    <path
       d="m 124.64648,-6.0878906 q 0,0.5800781 -0.20507,1.078125 -0.19922,0.4921875 -0.5625,0.8554687 -0.45118,0.4511719 -1.06641,0.6796875 -0.61523,0.2226563 -1.55273,0.2226563 h -1.16016 V 0 h -1.16016 v -8.7246094 h 2.36719 q 0.78516,0 1.33008,0.1347656 0.54492,0.1289063 0.9668,0.4101563 0.49804,0.3339844 0.76757,0.8320313 0.27539,0.4980468 0.27539,1.2597656 z m -1.20703,0.029297 q 0,-0.4511719 -0.1582,-0.7851563 -0.1582,-0.3339844 -0.48047,-0.5449219 -0.28125,-0.1816406 -0.64453,-0.2578125 -0.35742,-0.082031 -0.9082,-0.082031 h -1.14844 v 3.4863281 h 0.97852 q 0.70312,0 1.14257,-0.1230469 0.43946,-0.1289062 0.71485,-0.4042968 0.27539,-0.28125 0.38672,-0.5917969 0.11718,-0.3105469 0.11718,-0.6972658 z"
       id="path38" />
    <path
       d="m 131.37305,-3.2695313 q 0,1.5996094 -0.82032,2.52539068 -0.82031,0.92578124 -2.19726,0.92578124 -1.38867,0 -2.20899,-0.92578124 -0.81445,-0.92578128 -0.81445,-2.52539068 0,-1.5996093 0.81445,-2.5253906 0.82032,-0.9316406 2.20899,-0.9316406 1.37695,0 2.19726,0.9316406 0.82032,0.9257813 0.82032,2.5253906 z m -1.13672,0 q 0,-1.2714843 -0.49805,-1.8867187 -0.49805,-0.6210937 -1.38281,-0.6210937 -0.89649,0 -1.39453,0.6210937 -0.49219,0.6152344 -0.49219,1.8867187 0,1.2304688 0.49805,1.8691407 0.49804,0.63281248 1.38867,0.63281248 0.8789,0 1.37695,-0.62695308 0.50391,-0.6328126 0.50391,-1.8750001 z"
       id="path40" />
    <path
       d="m 137.16211,-5.34375 h -0.0586 q -0.2461,-0.058594 -0.48047,-0.082031 -0.22852,-0.029297 -0.54493,-0.029297 -0.50976,0 -0.98437,0.2285156 -0.47461,0.2226563 -0.91406,0.5800781 V 0 h -1.10157 v -6.5449219 h 1.10157 v 0.9667969 q 0.65625,-0.5273437 1.15429,-0.7441406 0.50391,-0.2226563 1.02539,-0.2226563 0.28711,0 0.41602,0.017578 0.12891,0.011719 0.38672,0.052734 z"
       id="path42" />
    <path
       d="m 141.59766,-0.05859375 q -0.31055,0.08203125 -0.67969,0.13476562 -0.36328,0.05273438 -0.65039,0.05273438 -1.00196,0 -1.52344,-0.5390625 -0.52148,-0.5390625 -0.52148,-1.72851565 v -3.4804687 h -0.74414 v -0.9257813 h 0.74414 v -1.8808594 h 1.10156 v 1.8808594 h 2.27344 v 0.9257813 h -2.27344 v 2.9824218 q 0,0.515625 0.0234,0.8085938 0.0234,0.2871094 0.16406,0.5390625 0.1289,0.234375 0.35156,0.34570312 0.22852,0.10546875 0.69141,0.10546875 0.26953,0 0.5625,-0.0761719 0.29297,-0.0820313 0.42187,-0.13476557 h 0.0586 z"
       id="path44" />
    <path
       d="m 148.01367,0 h -1.0957 v -0.69726562 q -0.14649,0.0996094 -0.39844,0.28124999 -0.24609,0.17578125 -0.48047,0.28125001 Q 145.76367,0 145.40625,0.08789062 q -0.35742,0.09375 -0.83789,0.09375 -0.88477,0 -1.5,-0.5859375 -0.61524,-0.5859375 -0.61524,-1.49414062 0,-0.7441406 0.31641,-1.2011719 0.32227,-0.4628906 0.91406,-0.7265625 0.59766,-0.2636718 1.43555,-0.3574218 0.83789,-0.09375 1.79883,-0.140625 v -0.1699219 q 0,-0.375 -0.13477,-0.6210938 -0.1289,-0.2460937 -0.375,-0.3867187 -0.23437,-0.1347656 -0.5625,-0.1816406 -0.32812,-0.046875 -0.68554,-0.046875 -0.4336,0 -0.9668,0.1171875 -0.5332,0.1113281 -1.10156,0.328125 h -0.0586 v -1.1191407 q 0.32227,-0.087891 0.93164,-0.1933593 0.60938,-0.1054688 1.20118,-0.1054688 0.6914,0 1.20117,0.1171875 0.51562,0.1113281 0.89062,0.3867188 0.36914,0.2695312 0.5625,0.6972656 0.19336,0.4277344 0.19336,1.0605469 z m -1.0957,-1.6113281 v -1.8222657 q -0.50391,0.029297 -1.18945,0.087891 -0.67969,0.058594 -1.07813,0.1699218 -0.47461,0.1347657 -0.76758,0.421875 -0.29297,0.28125 -0.29297,0.7792969 0,0.5625 0.33985,0.8496094 0.33984,0.28125 1.03711,0.28125 0.58007,0 1.06054,-0.2226562 0.48047,-0.2285157 0.89063,-0.5449222 z"
       id="path46" />
    <path
       d="m 151.24805,0 h -1.10157 v -9.1171875 h 1.10157 z"
       id="path48" />
  </g>
</svg>
