<?xml version="1.0" encoding="utf-8"?>
<!-- Generator: Adobe Illustrator 24.2.3, SVG Export Plug-In . SVG Version: 6.00 Build 0)  -->
<svg version="1.1" id="Layer_1" xmlns="http://www.w3.org/2000/svg" xmlns:xlink="http://www.w3.org/1999/xlink" x="0px" y="0px"
	 viewBox="0 0 1008 612" style="enable-background:new 0 0 1008 612;" xml:space="preserve">
<g>
	<path d="M388.49,294.91v3.06h-5.17v14.21h-3.63v-14.21h-5.19v-3.06H388.49z"/>
	<path d="M399.51,299.48c0.64,0.27,1.17,0.69,1.58,1.25c0.35,0.48,0.56,0.97,0.64,1.47c0.08,0.5,0.12,1.33,0.12,2.47v7.51h-3.41
		v-7.78c0-0.69-0.12-1.24-0.35-1.67c-0.3-0.59-0.88-0.89-1.72-0.89c-0.88,0-1.54,0.3-2,0.89c-0.45,0.59-0.68,1.43-0.68,2.53v6.92
		h-3.34v-17.21h3.34v6.09c0.48-0.74,1.04-1.26,1.67-1.55s1.3-0.44,2-0.44C398.15,299.07,398.87,299.21,399.51,299.48z"/>
	<path d="M413.31,299.67c0.89,0.4,1.63,1.03,2.21,1.89c0.52,0.76,0.86,1.64,1.02,2.64c0.09,0.59,0.13,1.43,0.11,2.54h-9.3
		c0.05,1.28,0.5,2.18,1.34,2.7c0.51,0.32,1.12,0.48,1.84,0.48c0.76,0,1.38-0.2,1.85-0.59c0.26-0.21,0.49-0.5,0.69-0.88h3.41
		c-0.09,0.76-0.5,1.53-1.24,2.31c-1.14,1.24-2.75,1.86-4.81,1.86c-1.7,0-3.2-0.52-4.5-1.57c-1.3-1.05-1.95-2.75-1.95-5.11
		c0-2.21,0.59-3.91,1.76-5.09c1.17-1.18,2.7-1.77,4.57-1.77C411.42,299.07,412.42,299.27,413.31,299.67z M408.32,302.56
		c-0.47,0.49-0.77,1.15-0.89,1.98h5.75c-0.06-0.89-0.36-1.56-0.89-2.02c-0.53-0.46-1.19-0.69-1.98-0.69
		C409.45,301.83,408.79,302.07,408.32,302.56z"/>
	<path d="M438.05,297.97h-9.14v3.67h8.39v3h-8.39v4.44h9.56v3.11h-13.09v-17.27h12.67V297.97z"/>
	<path d="M451.31,300.15c0.84,0.69,1.25,1.84,1.25,3.44v8.6h-3.42v-7.77c0-0.67-0.09-1.19-0.27-1.55c-0.33-0.66-0.95-0.98-1.86-0.98
		c-1.12,0-1.9,0.48-2.31,1.44c-0.22,0.51-0.33,1.16-0.33,1.95v6.91h-3.34v-12.75h3.23v1.86c0.43-0.66,0.83-1.13,1.21-1.42
		c0.68-0.52,1.55-0.77,2.6-0.77C449.4,299.11,450.48,299.46,451.31,300.15z"/>
	<path d="M464,299.67c0.89,0.4,1.63,1.03,2.21,1.89c0.52,0.76,0.86,1.64,1.02,2.64c0.09,0.59,0.13,1.43,0.11,2.54h-9.3
		c0.05,1.28,0.5,2.18,1.34,2.7c0.51,0.32,1.12,0.48,1.84,0.48c0.76,0,1.38-0.2,1.85-0.59c0.26-0.21,0.49-0.5,0.69-0.88h3.41
		c-0.09,0.76-0.5,1.53-1.24,2.31c-1.14,1.24-2.75,1.86-4.81,1.86c-1.7,0-3.2-0.52-4.5-1.57c-1.3-1.05-1.95-2.75-1.95-5.11
		c0-2.21,0.59-3.91,1.76-5.09c1.17-1.18,2.7-1.77,4.57-1.77C462.1,299.07,463.1,299.27,464,299.67z M459,302.56
		c-0.47,0.49-0.77,1.15-0.89,1.98h5.75c-0.06-0.89-0.36-1.56-0.89-2.02c-0.53-0.46-1.19-0.69-1.98-0.69
		C460.14,301.83,459.47,302.07,459,302.56z"/>
	<path d="M476.12,299.12c0.04,0,0.14,0.01,0.29,0.02v3.42c-0.21-0.02-0.4-0.04-0.56-0.05s-0.3-0.01-0.4-0.01
		c-1.34,0-2.25,0.44-2.71,1.31c-0.26,0.49-0.39,1.25-0.39,2.27v6.11h-3.36v-12.77h3.19v2.23c0.52-0.85,0.96-1.43,1.35-1.75
		c0.62-0.52,1.44-0.79,2.44-0.79C476.02,299.11,476.07,299.11,476.12,299.12z"/>
	<path d="M484.68,299.4c0.81,0.34,1.47,0.95,1.97,1.85v-1.84h3.26v12.12c0,1.65-0.28,2.89-0.83,3.73c-0.95,1.44-2.78,2.16-5.48,2.16
		c-1.63,0-2.96-0.32-4-0.96s-1.6-1.6-1.71-2.87h3.63c0.09,0.39,0.25,0.67,0.46,0.84c0.36,0.3,0.96,0.46,1.82,0.46
		c1.2,0,2.01-0.4,2.41-1.21c0.27-0.52,0.4-1.38,0.4-2.6v-0.82c-0.32,0.55-0.66,0.96-1.03,1.23c-0.66,0.51-1.53,0.76-2.59,0.76
		c-1.64,0-2.95-0.58-3.93-1.73s-1.47-2.71-1.47-4.68c0-1.9,0.47-3.49,1.42-4.79c0.94-1.29,2.28-1.94,4.01-1.94
		C483.64,299.11,484.2,299.21,484.68,299.4z M485.82,308.56c0.54-0.59,0.81-1.53,0.81-2.82c0-1.21-0.25-2.13-0.76-2.77
		c-0.51-0.63-1.19-0.95-2.05-0.95c-1.17,0-1.97,0.55-2.42,1.65c-0.23,0.59-0.35,1.31-0.35,2.17c0,0.74,0.12,1.4,0.37,1.98
		c0.45,1.08,1.26,1.62,2.43,1.62C484.62,309.45,485.28,309.15,485.82,308.56z"/>
	<path d="M493.52,314.64l0.42,0.02c0.33,0.02,0.64,0,0.94-0.04s0.55-0.13,0.75-0.27c0.2-0.13,0.38-0.41,0.54-0.83
		s0.24-0.68,0.22-0.77l-4.69-13.34h3.71l2.79,9.42l2.64-9.42h3.55l-4.38,12.56c-0.85,2.42-1.52,3.92-2.01,4.51s-1.48,0.87-2.96,0.87
		c-0.3,0-0.54,0-0.72-0.01c-0.18,0-0.45-0.02-0.81-0.04V314.64z"/>
	<path d="M515.65,294.91l2.28,9.89l0.5,2.75l0.5-2.7l1.95-9.95h3.81l2.05,9.89l0.53,2.75l0.53-2.65l2.3-10h3.67l-4.86,17.27h-3.46
		l-2.09-10.1l-0.61-3.34l-0.61,3.34l-2.09,10.1h-3.35l-4.9-17.27H515.65z"/>
	<path d="M543.59,299.67c0.89,0.4,1.63,1.03,2.21,1.89c0.52,0.76,0.86,1.64,1.02,2.64c0.09,0.59,0.13,1.43,0.11,2.54h-9.3
		c0.05,1.28,0.5,2.18,1.34,2.7c0.51,0.32,1.12,0.48,1.84,0.48c0.76,0,1.38-0.2,1.85-0.59c0.26-0.21,0.49-0.5,0.69-0.88h3.41
		c-0.09,0.76-0.5,1.53-1.24,2.31c-1.14,1.24-2.75,1.86-4.8,1.86c-1.7,0-3.2-0.52-4.5-1.57c-1.3-1.05-1.95-2.75-1.95-5.11
		c0-2.21,0.59-3.91,1.76-5.09s2.69-1.77,4.57-1.77C541.7,299.07,542.7,299.27,543.59,299.67z M538.59,302.56
		c-0.47,0.49-0.77,1.15-0.89,1.98h5.75c-0.06-0.89-0.36-1.56-0.89-2.02c-0.53-0.46-1.19-0.69-1.98-0.69
		C539.73,301.83,539.06,302.07,538.59,302.56z"/>
	<path d="M559.52,300.95c0.96,1.21,1.43,2.77,1.43,4.69c0,1.98-0.47,3.63-1.41,4.93c-0.94,1.3-2.26,1.96-3.95,1.96
		c-1.06,0-1.91-0.21-2.56-0.63c-0.39-0.25-0.8-0.69-1.25-1.31v1.61h-3.29v-17.25h3.34v6.14c0.42-0.59,0.89-1.05,1.4-1.36
		c0.61-0.39,1.38-0.59,2.31-0.59C557.24,299.13,558.56,299.74,559.52,300.95z M556.73,308.73c0.48-0.7,0.72-1.61,0.72-2.74
		c0-0.91-0.12-1.66-0.35-2.25c-0.45-1.12-1.28-1.69-2.48-1.69c-1.22,0-2.06,0.55-2.52,1.65c-0.24,0.59-0.35,1.34-0.35,2.27
		c0,1.09,0.24,2,0.73,2.72s1.23,1.08,2.23,1.08C555.57,309.77,556.25,309.43,556.73,308.73z"/>
	<path d="M571.86,296.72c1.39-1.42,3.16-2.13,5.31-2.13c2.88,0,4.98,0.95,6.31,2.86c0.73,1.07,1.13,2.14,1.18,3.22h-3.61
		c-0.23-0.83-0.52-1.45-0.88-1.88c-0.64-0.75-1.6-1.12-2.86-1.12c-1.29,0-2.3,0.53-3.04,1.59s-1.11,2.56-1.11,4.49
		s0.39,3.39,1.17,4.35s1.78,1.45,2.99,1.45c1.24,0,2.18-0.41,2.83-1.24c0.36-0.45,0.66-1.11,0.89-2h3.59
		c-0.31,1.88-1.1,3.41-2.37,4.59s-2.9,1.77-4.89,1.77c-2.46,0-4.39-0.8-5.8-2.39c-1.41-1.6-2.11-3.8-2.11-6.59
		C569.46,300.68,570.26,298.35,571.86,296.72z"/>
	<path d="M596.45,299.48c0.64,0.27,1.17,0.69,1.58,1.25c0.35,0.48,0.56,0.97,0.64,1.47c0.08,0.5,0.12,1.33,0.12,2.47v7.51h-3.41
		v-7.78c0-0.69-0.12-1.24-0.35-1.67c-0.3-0.59-0.88-0.89-1.72-0.89c-0.88,0-1.54,0.3-2,0.89c-0.45,0.59-0.68,1.43-0.68,2.53v6.92
		h-3.34v-17.21h3.34v6.09c0.48-0.74,1.04-1.26,1.67-1.55c0.63-0.29,1.3-0.44,2-0.44C595.1,299.07,595.81,299.21,596.45,299.48z"/>
	<path d="M606.99,304.42c0.62-0.08,1.07-0.18,1.33-0.29c0.48-0.2,0.72-0.52,0.72-0.95c0-0.52-0.18-0.88-0.55-1.08
		s-0.91-0.3-1.62-0.3c-0.8,0-1.37,0.2-1.7,0.59c-0.24,0.29-0.4,0.68-0.48,1.17h-3.22c0.07-1.12,0.38-2.04,0.94-2.75
		c0.89-1.12,2.41-1.69,4.57-1.69c1.4,0,2.65,0.28,3.74,0.83s1.64,1.6,1.64,3.14v5.86c0,0.41,0.01,0.9,0.02,1.48
		c0.02,0.44,0.09,0.73,0.2,0.89s0.27,0.29,0.49,0.39v0.49h-3.63c-0.1-0.26-0.17-0.5-0.21-0.73s-0.07-0.48-0.09-0.77
		c-0.46,0.5-1,0.93-1.6,1.28c-0.72,0.41-1.54,0.62-2.45,0.62c-1.16,0-2.12-0.33-2.88-0.99c-0.76-0.66-1.14-1.6-1.14-2.81
		c0-1.57,0.61-2.71,1.83-3.41c0.67-0.38,1.65-0.66,2.95-0.82L606.99,304.42z M609.03,305.98c-0.21,0.13-0.43,0.24-0.65,0.32
		s-0.52,0.16-0.9,0.23l-0.76,0.14c-0.71,0.12-1.22,0.28-1.54,0.46c-0.53,0.3-0.79,0.78-0.79,1.42c0,0.57,0.16,0.98,0.48,1.24
		c0.32,0.25,0.71,0.38,1.17,0.38c0.73,0,1.4-0.21,2.02-0.63s0.93-1.19,0.96-2.31V305.98z"/>
	<path d="M618.71,297.89h-3.39v-3.08h3.39V297.89z M615.33,299.41h3.39v12.77h-3.39V299.41z"/>
	<path d="M632.25,300.15c0.84,0.69,1.25,1.84,1.25,3.44v8.6h-3.42v-7.77c0-0.67-0.09-1.19-0.27-1.55c-0.33-0.66-0.95-0.98-1.86-0.98
		c-1.12,0-1.9,0.48-2.31,1.44c-0.22,0.51-0.33,1.16-0.33,1.95v6.91h-3.34v-12.75h3.23v1.86c0.43-0.66,0.83-1.13,1.21-1.42
		c0.68-0.52,1.55-0.77,2.6-0.77C630.34,299.11,631.41,299.46,632.25,300.15z"/>
</g>
</svg>
