<svg width="339.501" height="75.201" viewBox="0 0 339.501 75.201" xmlns="http://www.w3.org/2000/svg"><g id="svgGroup" stroke-linecap="round" fill-rule="evenodd" font-size="9pt" stroke="#000" stroke-width="0.25mm" fill="#000" style="stroke:#000;stroke-width:0.25mm;fill:#000"><path d="M 209.2 74 L 200.2 74 L 200.2 22 L 208.9 22 L 208.9 30.7 Q 211.7 26.5 216 23.65 A 17.205 17.205 0 0 1 225.202 20.809 A 20.858 20.858 0 0 1 225.8 20.8 A 20.994 20.994 0 0 1 230.217 21.24 Q 233.203 21.882 235.485 23.463 A 13.128 13.128 0 0 1 235.95 23.8 A 15.751 15.751 0 0 1 241.398 31.489 A 19.154 19.154 0 0 1 241.5 31.8 Q 244.6 27.2 248.85 24 A 15.669 15.669 0 0 1 255.641 21.116 A 21.446 21.446 0 0 1 259.4 20.8 A 21.437 21.437 0 0 1 264.288 21.322 Q 267.874 22.162 270.363 24.351 A 12.994 12.994 0 0 1 272.05 26.15 A 18.992 18.992 0 0 1 275.461 33.422 Q 276.2 36.472 276.2 40.1 L 276.2 74 L 267.2 74 L 267.2 40.8 A 19.042 19.042 0 0 0 266.863 37.111 Q 266.427 34.905 265.428 33.161 A 10.982 10.982 0 0 0 264.7 32.05 A 7.974 7.974 0 0 0 258.887 28.754 A 10.678 10.678 0 0 0 257.8 28.7 A 11.926 11.926 0 0 0 251.041 30.827 A 15.996 15.996 0 0 0 249.45 32.05 Q 245.6 35.4 242.7 39.9 L 242.7 74 L 233.7 74 L 233.7 40.8 A 19.042 19.042 0 0 0 233.363 37.111 Q 232.927 34.905 231.928 33.161 A 10.982 10.982 0 0 0 231.2 32.05 A 7.974 7.974 0 0 0 225.387 28.754 A 10.678 10.678 0 0 0 224.3 28.7 A 12.02 12.02 0 0 0 217.981 30.528 A 16.244 16.244 0 0 0 216 31.95 Q 212.1 35.2 209.2 39.6 L 209.2 74 Z M 55.7 74 L 46.7 74 L 46.7 0 L 55.7 0 L 55.7 30.3 Q 58.5 26.2 62.8 23.5 A 17.572 17.572 0 0 1 69.925 20.991 A 22.595 22.595 0 0 1 72.9 20.8 A 23.225 23.225 0 0 1 77.965 21.318 Q 83.059 22.456 86.05 26.1 Q 90.175 31.126 90.388 39.209 A 33.764 33.764 0 0 1 90.4 40.1 L 90.4 74 L 81.4 74 L 81.4 41.1 Q 81.4 35.5 78.8 32.1 A 8.42 8.42 0 0 0 72.642 28.753 A 11.979 11.979 0 0 0 71.5 28.7 A 13.23 13.23 0 0 0 64.787 30.566 A 17.586 17.586 0 0 0 62.75 31.95 Q 58.6 35.2 55.7 39.6 L 55.7 74 Z M 148 51.7 L 111.6 51.7 A 24.088 24.088 0 0 0 112.739 56.725 Q 114.075 60.538 116.7 63.1 Q 120.9 67.2 127.8 67.2 Q 132.3 67.2 135.9 66.25 Q 139.5 65.3 142.8 63.8 L 144.9 71.5 A 40.77 40.77 0 0 1 140.565 73.126 A 51.863 51.863 0 0 1 136.8 74.15 A 38.914 38.914 0 0 1 131.708 74.969 A 52.025 52.025 0 0 1 126.7 75.2 A 28.318 28.318 0 0 1 118.954 74.195 A 21.108 21.108 0 0 1 108.95 68.05 A 23.521 23.521 0 0 1 103.745 58.51 Q 102.4 53.845 102.4 48 A 35.359 35.359 0 0 1 103.233 40.178 A 28.84 28.84 0 0 1 105.35 34.05 A 24.642 24.642 0 0 1 110.366 26.968 A 22.887 22.887 0 0 1 113.6 24.35 A 21.048 21.048 0 0 1 123.859 20.878 A 26.205 26.205 0 0 1 125.9 20.8 Q 133.4 20.8 138.35 24.05 Q 143.3 27.3 145.8 32.8 A 28.185 28.185 0 0 1 148.226 42.664 A 33.434 33.434 0 0 1 148.3 44.9 A 75.204 75.204 0 0 1 148.009 51.597 A 69.426 69.426 0 0 1 148 51.7 Z M 9 56.1 L 9 31.7 L 0 31.7 L 0 23.9 L 9.2 23.9 L 11.1 7.5 L 18 7.5 L 18 23.9 L 32.4 23.9 L 32.4 31.7 L 18 31.7 L 18 56.8 A 21.559 21.559 0 0 0 18.168 59.596 Q 18.641 63.202 20.45 64.9 Q 22.9 67.2 26.3 67.2 Q 28.8 67.2 31.05 66.4 Q 33.3 65.6 35.2 64.5 L 37.7 71.7 A 18.546 18.546 0 0 1 36.082 72.556 Q 35.28 72.935 34.334 73.308 A 43.365 43.365 0 0 1 32.3 74.05 Q 28.9 75.2 25.2 75.2 Q 17.7 75.2 13.35 70.25 A 16.116 16.116 0 0 1 10.122 64.348 Q 9.359 61.917 9.115 58.98 A 34.777 34.777 0 0 1 9 56.1 Z M 169.3 74 L 160.3 74 L 160.3 22 L 169 22 L 169 33.3 Q 170.3 30 172.5 27.15 Q 174.7 24.3 178 22.55 A 14.817 14.817 0 0 1 182.68 21.026 A 19.459 19.459 0 0 1 185.7 20.8 Q 187.2 20.8 188.7 20.95 A 18.972 18.972 0 0 1 189.755 21.084 Q 190.255 21.162 190.682 21.262 A 8.817 8.817 0 0 1 191.2 21.4 L 188.5 30.7 A 9.763 9.763 0 0 0 186.355 30.088 Q 185.259 29.9 184 29.9 A 12.958 12.958 0 0 0 177.37 31.746 A 15.609 15.609 0 0 0 176.95 32 Q 173.622 34.086 171.478 38.442 A 22.927 22.927 0 0 0 171.45 38.5 Q 169.687 42.107 169.37 47.328 A 39.09 39.09 0 0 0 169.3 49.7 L 169.3 74 Z M 300.3 71.75 A 24.559 24.559 0 0 0 304.898 73.84 Q 308.953 75.2 313.6 75.2 Q 321 75.2 326.85 71.8 Q 332.7 68.4 336.1 62.25 A 26.255 26.255 0 0 0 338.753 55.109 A 34.184 34.184 0 0 0 339.5 47.8 A 34.542 34.542 0 0 0 339.015 41.891 A 25.795 25.795 0 0 0 336.05 33.45 Q 332.6 27.4 326.75 24.1 A 24.848 24.848 0 0 0 322.109 22.073 A 27.738 27.738 0 0 0 313.6 20.8 A 31.325 31.325 0 0 0 312.02 20.839 A 26.169 26.169 0 0 0 300.4 24.1 Q 294.5 27.4 291.1 33.5 A 26.023 26.023 0 0 0 288.351 41.09 A 35.006 35.006 0 0 0 287.7 48 A 34.82 34.82 0 0 0 287.965 52.354 A 27.451 27.451 0 0 0 291.05 62.15 Q 294.4 68.3 300.3 71.75 Z M 313.6 67.2 Q 321.5 67.2 325.9 61.85 A 18.802 18.802 0 0 0 329.719 53.76 A 27.105 27.105 0 0 0 330.3 48 Q 330.3 42.8 328.1 38.45 A 19.198 19.198 0 0 0 323.928 32.881 A 18.17 18.17 0 0 0 322.15 31.45 Q 318.4 28.8 313.6 28.8 A 19.249 19.249 0 0 0 308.374 29.472 A 14.037 14.037 0 0 0 301.3 34 A 17.878 17.878 0 0 0 297.626 41.374 Q 296.9 44.306 296.9 47.8 Q 296.9 53 299.1 57.45 A 19.437 19.437 0 0 0 302.63 62.49 A 17.627 17.627 0 0 0 305.05 64.55 Q 308.8 67.2 313.6 67.2 Z M 111.5 44.4 L 140 44.4 A 24.355 24.355 0 0 0 139.596 39.815 Q 139.1 37.231 137.996 35.207 A 12.422 12.422 0 0 0 136.2 32.7 A 12.488 12.488 0 0 0 129.239 28.924 A 18.395 18.395 0 0 0 125.7 28.6 A 13.58 13.58 0 0 0 120.588 29.535 A 12.524 12.524 0 0 0 116.1 32.65 Q 112.3 36.7 111.5 44.4 Z" vector-effect="non-scaling-stroke"/></g></svg>