<?xml version="1.0" encoding="UTF-8" standalone="no"?>
<svg
   version="1.1"
   id="svg4"
   width="124.95117"
   height="9.2988281"
   xmlns="http://www.w3.org/2000/svg"
   xmlns:svg="http://www.w3.org/2000/svg">
  <defs
     id="defs8" />
  <g
     aria-label="TIMES-Ireland Model"
     id="text2"
     transform="translate(0,9.1171875)">
    <path
       d="M 7.3945312,-7.6933594 H 4.2773437 V 0 H 3.1171875 V -7.6933594 H 0 v -1.03125 h 7.3945312 z"
       id="path10" />
    <path
       d="M 11.642578,0 H 8.1972656 V -0.890625 H 9.3398438 V -7.8339844 H 8.1972656 v -0.890625 h 3.4453124 v 0.890625 H 10.5 v 6.9433594 h 1.142578 z"
       id="path12" />
    <path
       d="m 21.386719,0 h -1.160157 v -7.5175781 l -2.425781,5.1152343 H 17.109375 L 14.701172,-7.5175781 V 0 h -1.083984 v -8.7246094 h 1.582031 l 2.326172,4.8574219 2.25,-4.8574219 h 1.611328 z"
       id="path14" />
    <path
       d="m 29.478516,0 h -5.748047 v -8.7246094 h 5.748047 v 1.03125 h -4.587891 v 2.390625 h 4.587891 v 1.03125 H 24.890625 V -1.03125 h 4.587891 z"
       id="path16" />
    <path
       d="m 37.658203,-2.4902344 q 0,0.5097657 -0.240234,1.0078125 -0.234375,0.4980469 -0.66211,0.84375003 -0.46875,0.37499999 -1.095703,0.5859375 -0.621094,0.21093749 -1.5,0.21093749 -0.943359,0 -1.699219,-0.17578125 -0.75,-0.17578124 -1.529296,-0.52148437 v -1.453125 h 0.08203 q 0.662109,0.5507813 1.529297,0.8496094 0.867187,0.2988281 1.628906,0.2988281 1.078125,0 1.675781,-0.4042969 0.603516,-0.4042968 0.603516,-1.078125 0,-0.5800781 -0.28711,-0.8554687 -0.28125,-0.2753907 -0.861328,-0.4277344 -0.439453,-0.1171875 -0.955078,-0.1933594 -0.509765,-0.076172 -1.083984,-0.1933594 -1.160156,-0.2460937 -1.722656,-0.8378906 -0.556641,-0.5976562 -0.556641,-1.5527343 0,-1.0957032 0.925781,-1.7929688 0.925781,-0.703125 2.34961,-0.703125 0.919921,0 1.6875,0.1757812 0.767578,0.1757813 1.359375,0.4335938 v 1.3710938 h -0.08203 q -0.498047,-0.421875 -1.3125,-0.6972657 -0.808593,-0.28125 -1.658203,-0.28125 -0.93164,0 -1.5,0.3867188 -0.5625,0.3867187 -0.5625,0.9960937 0,0.5449219 0.28125,0.8554688 0.28125,0.3105469 0.990235,0.4746094 0.375,0.082031 1.066406,0.1992187 0.691406,0.1171875 1.171875,0.2402344 0.972656,0.2578125 1.464844,0.7792968 0.492187,0.5214844 0.492186,1.4589844 z"
       id="path18" />
    <path
       d="m 42.902344,-3.2871094 h -3.65625 v -1.0605468 h 3.65625 z"
       id="path20" />
    <path
       d="m 47.871094,0 h -3.445313 v -0.890625 h 1.142578 v -6.9433594 h -1.142578 v -0.890625 h 3.445313 v 0.890625 h -1.142578 v 6.9433594 h 1.142578 z"
       id="path22" />
    <path
       d="m 53.841797,-5.34375 h -0.05859 q -0.246094,-0.058594 -0.480469,-0.082031 -0.228515,-0.029297 -0.544922,-0.029297 -0.509765,0 -0.984375,0.2285156 -0.474609,0.2226563 -0.914062,0.5800781 V 0 h -1.101563 v -6.5449219 h 1.101563 v 0.9667969 q 0.65625,-0.5273437 1.154297,-0.7441406 0.503906,-0.2226563 1.02539,-0.2226563 0.28711,0 0.416016,0.017578 0.128906,0.011719 0.386719,0.052734 z"
       id="path24" />
    <path
       d="m 60.357422,-3.1582031 h -4.822266 q 0,0.6035156 0.181641,1.0546875 0.18164,0.4453125 0.498047,0.7324219 0.304687,0.28125 0.720703,0.42187495 0.421875,0.140625 0.925781,0.140625 0.667969,0 1.341797,-0.26367185 0.679687,-0.2695313 0.966797,-0.5273438 h 0.05859 v 1.2011719 q -0.556641,0.234375 -1.136719,0.39257812 -0.580078,0.15820313 -1.21875,0.15820313 -1.628906,0 -2.542969,-0.87890625 -0.914062,-0.8847656 -0.914062,-2.5078125 0,-1.6054687 0.873046,-2.5488281 0.878907,-0.9433594 2.308594,-0.9433594 1.324219,0 2.039063,0.7734375 0.720703,0.7734375 0.720703,2.1972656 z m -1.072266,-0.84375 q -0.0059,-0.8671875 -0.439453,-1.3417969 -0.427734,-0.4746094 -1.306641,-0.4746094 -0.884765,0 -1.412109,0.5214844 -0.521484,0.5214844 -0.591797,1.2949219 z"
       id="path26" />
    <path
       d="m 63.140625,0 h -1.101563 v -9.1171875 h 1.101563 z"
       id="path28" />
    <path
       d="m 70.40625,0 h -1.095703 v -0.69726562 q -0.146485,0.0996094 -0.398438,0.28124999 -0.246093,0.17578125 -0.480468,0.28125001 Q 68.15625,0 67.798828,0.08789062 q -0.357422,0.09375 -0.837891,0.09375 -0.884765,0 -1.5,-0.5859375 -0.615234,-0.5859375 -0.615234,-1.49414062 0,-0.7441406 0.316406,-1.2011719 0.322266,-0.4628906 0.914063,-0.7265625 0.597656,-0.2636718 1.435547,-0.3574218 0.83789,-0.09375 1.798828,-0.140625 v -0.1699219 q 0,-0.375 -0.134766,-0.6210938 -0.128906,-0.2460937 -0.375,-0.3867187 -0.234375,-0.1347656 -0.5625,-0.1816406 -0.328125,-0.046875 -0.685547,-0.046875 -0.433593,0 -0.966797,0.1171875 -0.533203,0.1113281 -1.101562,0.328125 h -0.05859 v -1.1191407 q 0.322266,-0.087891 0.931641,-0.1933593 0.609375,-0.1054688 1.201172,-0.1054688 0.691406,0 1.201172,0.1171875 0.515625,0.1113281 0.890625,0.3867188 0.36914,0.2695312 0.5625,0.6972656 0.193359,0.4277344 0.193359,1.0605469 z m -1.095703,-1.6113281 v -1.8222657 q -0.503906,0.029297 -1.189453,0.087891 -0.679688,0.058594 -1.078125,0.1699218 -0.47461,0.1347657 -0.767578,0.421875 -0.292969,0.28125 -0.292969,0.7792969 0,0.5625 0.339844,0.8496094 0.339843,0.28125 1.037109,0.28125 0.580078,0 1.060547,-0.2226562 0.480469,-0.2285157 0.890625,-0.5449222 z"
       id="path30" />
    <path
       d="m 78,0 h -1.101563 v -3.7265625 q 0,-0.4511719 -0.05273,-0.84375 -0.05273,-0.3984375 -0.193359,-0.6210937 -0.146485,-0.2460938 -0.421875,-0.3632813 -0.275391,-0.1230469 -0.714844,-0.1230469 -0.451172,0 -0.943359,0.2226563 -0.492188,0.2226562 -0.94336,0.5683594 V 0 h -1.101562 v -6.5449219 h 1.101562 v 0.7265625 q 0.515625,-0.4277343 1.066406,-0.6679687 0.550782,-0.2402344 1.13086,-0.2402344 1.060547,0 1.617187,0.6386719 Q 78,-5.4492187 78,-4.2480469 Z"
       id="path32" />
    <path
       d="m 85.429687,0 h -1.101562 v -0.68554687 q -0.474609,0.41015624 -0.990234,0.63867187 -0.515625,0.22851562 -1.119141,0.22851562 -1.171875,0 -1.863281,-0.90234374 -0.685547,-0.90234378 -0.685547,-2.50195318 0,-0.8320312 0.234375,-1.4824218 0.240234,-0.6503906 0.644531,-1.1074219 0.398438,-0.4453125 0.925781,-0.6796875 0.533203,-0.234375 1.101563,-0.234375 0.515625,0 0.914062,0.1113281 0.398438,0.1054688 0.837891,0.3339844 v -2.8359375 h 1.101562 z M 84.328125,-1.6113281 V -5.3671875 Q 83.882812,-5.5664062 83.53125,-5.6425781 83.179687,-5.71875 82.763672,-5.71875 q -0.925781,0 -1.441406,0.6445313 -0.515625,0.6445312 -0.515625,1.8281249 0,1.1660157 0.398437,1.7753907 0.398438,0.6035156 1.277344,0.6035156 0.46875,0 0.949219,-0.2050781 0.480468,-0.2109375 0.896484,-0.5390625 z"
       id="path34" />
    <path
       d="m 99.673828,0 h -1.160156 v -7.5175781 l -2.425781,5.1152343 H 95.396484 L 92.988281,-7.5175781 V 0 h -1.083984 v -8.7246094 h 1.582031 l 2.326172,4.8574219 2.25,-4.8574219 h 1.611328 z"
       id="path36" />
    <path
       d="m 107.50781,-3.2695313 q 0,1.5996094 -0.82031,2.52539068 -0.82031,0.92578124 -2.19727,0.92578124 -1.38867,0 -2.20898,-0.92578124 -0.81445,-0.92578128 -0.81445,-2.52539068 0,-1.5996093 0.81445,-2.5253906 0.82031,-0.9316406 2.20898,-0.9316406 1.37696,0 2.19727,0.9316406 0.82031,0.9257813 0.82031,2.5253906 z m -1.13672,0 q 0,-1.2714843 -0.49804,-1.8867187 -0.49805,-0.6210937 -1.38282,-0.6210937 -0.89648,0 -1.39453,0.6210937 -0.49218,0.6152344 -0.49218,1.8867187 0,1.2304688 0.49804,1.8691407 0.49805,0.63281248 1.38867,0.63281248 0.87891,0 1.37696,-0.62695308 0.5039,-0.6328126 0.5039,-1.8750001 z"
       id="path38" />
    <path
       d="m 114.52148,0 h -1.10156 v -0.68554687 q -0.47461,0.41015624 -0.99023,0.63867187 -0.51563,0.22851562 -1.11914,0.22851562 -1.17188,0 -1.86328,-0.90234374 -0.68555,-0.90234378 -0.68555,-2.50195318 0,-0.8320312 0.23437,-1.4824218 0.24024,-0.6503906 0.64454,-1.1074219 0.39843,-0.4453125 0.92578,-0.6796875 0.5332,-0.234375 1.10156,-0.234375 0.51562,0 0.91406,0.1113281 0.39844,0.1054688 0.83789,0.3339844 v -2.8359375 h 1.10156 z m -1.10156,-1.6113281 v -3.7558594 q -0.44531,-0.1992187 -0.79687,-0.2753906 -0.35157,-0.076172 -0.76758,-0.076172 -0.92578,0 -1.44141,0.6445313 -0.51562,0.6445312 -0.51562,1.8281249 0,1.1660157 0.39844,1.7753907 0.39843,0.6035156 1.27734,0.6035156 0.46875,0 0.94922,-0.2050781 0.48047,-0.2109375 0.89648,-0.5390624 z"
       id="path40" />
    <path
       d="m 122.16797,-3.1582031 h -4.82227 q 0,0.6035156 0.18164,1.0546875 0.18164,0.4453125 0.49805,0.7324219 0.30469,0.28125 0.7207,0.42187495 0.42188,0.140625 0.92579,0.140625 0.66796,0 1.34179,-0.26367185 0.67969,-0.2695313 0.9668,-0.5273438 h 0.0586 v 1.2011719 q -0.55664,0.234375 -1.13672,0.39257812 -0.58007,0.15820313 -1.21875,0.15820313 -1.6289,0 -2.54296,-0.87890625 -0.91407,-0.8847656 -0.91407,-2.5078125 0,-1.6054687 0.87305,-2.5488281 0.87891,-0.9433594 2.30859,-0.9433594 1.32422,0 2.03907,0.7734375 0.7207,0.7734375 0.7207,2.1972656 z m -1.07227,-0.84375 q -0.006,-0.8671875 -0.43945,-1.3417969 -0.42773,-0.4746094 -1.30664,-0.4746094 -0.88477,0 -1.41211,0.5214844 -0.52148,0.5214844 -0.5918,1.2949219 z"
       id="path42" />
    <path
       d="m 124.95117,0 h -1.10156 v -9.1171875 h 1.10156 z"
       id="path44" />
  </g>
</svg>
