<?xml version="1.0" encoding="UTF-8" standalone="no"?>
<svg
   width="306.20984"
   height="157.86201"
   version="1.1"
   id="svg32"
   sodipodi:docname="ToOpSVG.svg"
   inkscape:version="1.4.3 (0d15f75, 2025-12-25)"
   xmlns:inkscape="http://www.inkscape.org/namespaces/inkscape"
   xmlns:sodipodi="http://sodipodi.sourceforge.net/DTD/sodipodi-0.dtd"
   xmlns="http://www.w3.org/2000/svg"
   xmlns:svg="http://www.w3.org/2000/svg">
  <sodipodi:namedview
     id="namedview32"
     pagecolor="#ffffff"
     bordercolor="#000000"
     borderopacity="0.25"
     inkscape:showpageshadow="2"
     inkscape:pageopacity="0.0"
     inkscape:pagecheckerboard="0"
     inkscape:deskcolor="#d1d1d1"
     inkscape:zoom="1.67"
     inkscape:cx="150.5988"
     inkscape:cy="73.952096"
     inkscape:current-layer="svg32" />
  <defs
     id="defs1">
    <style
       type="text/css"
       id="style1"><![CDATA[
		* {
			text-rendering: geometricprecision !important;
		}
		@font-face {
  font-family: 'Noto Sans';
  font-style: normal;
  font-weight: 400;
  src: local('Noto Sans'), local('NotoSans'), url("https://mirostatic.com/app/static/a73798e3d459e1bc.woff2") format('woff2');
}
@font-face {
  font-family: 'Noto Sans';
  font-style: italic;
  font-weight: 400;
  src: local('Noto Sans Italic'), local('NotoSans-Italic'), url("https://mirostatic.com/app/static/a8edd710f88715d4.woff2") format('woff2');
}
@font-face {
  font-family: 'Noto Sans';
  font-style: normal;
  font-weight: 500;
  src: local('Noto Sans Medium'), local('NotoSans-Medium'), url("https://mirostatic.com/app/static/006d7e33e60b9e12.woff2") format('woff2');
}
@font-face {
  font-family: 'Noto Sans';
  font-style: italic;
  font-weight: 500;
  src: local('Noto Sans Medium Italic'), local('NotoSans-MediumItalic'), url("https://mirostatic.com/app/static/31387059566a3171.woff2") format('woff2');
}
@font-face {
  font-family: 'Noto Sans';
  font-style: normal;
  font-weight: 600;
  src: local('Noto Sans SemiBold'), local('NotoSans-SemiBold'), url("https://mirostatic.com/app/static/526dd53b40975c37.woff2") format('woff2');
}
@font-face {
  font-family: 'Noto Sans';
  font-style: italic;
  font-weight: 600;
  src: local('Noto Sans SemiBold Italic'), local('NotoSans-SemiBoldItalic'), url("https://mirostatic.com/app/static/e73d4fdd87d7e319.woff2") format('woff2');
}
@font-face {
  font-family: 'Noto Sans';
  font-style: normal;
  font-weight: 700;
  src: local('Noto Sans Bold'), local('NotoSans-Bold'), url("https://mirostatic.com/app/static/9f11d6779c14d2bc.woff2") format('woff2');
}
@font-face {
  font-family: 'Noto Sans';
  font-style: italic;
  font-weight: 700;
  src: local('Noto Sans Bold Italic'), local('NotoSans-BoldItalic'), url("https://mirostatic.com/app/static/888e13e017cedc15.woff2") format('woff2');
}
@font-face {
  font-family: 'OpenSans';
  font-style: normal;
  font-weight: 300;
  font-display: swap;
  src: url("https://mirostatic.com/app/static/800985e1502d12bf.woff2") format('woff2');
}
@font-face {
  font-family: 'OpenSans';
  font-style: normal;
  font-weight: 400;
  font-display: swap;
  src: url("https://mirostatic.com/app/static/d8a7ca42a20caea5.woff2") format('woff2');
}
@font-face {
  font-family: 'OpenSans';
  font-style: italic;
  font-weight: 400;
  font-display: swap;
  src: url("https://mirostatic.com/app/static/3cc74c1d3919bd5c.woff2") format('woff2');
}
@font-face {
  font-family: 'OpenSans';
  font-style: normal;
  font-weight: 600;
  font-display: swap;
  src: url("https://mirostatic.com/app/static/f0481285dc248cf0.woff2") format('woff2');
}
@font-face {
  font-family: 'OpenSans';
  font-style: normal;
  font-weight: 700;
  font-display: swap;
  src: url("https://mirostatic.com/app/static/2f5e8dcf6e47bf00.woff2") format('woff2');
}
@font-face {
  font-family: 'OpenSans';
  font-style: italic;
  font-weight: 700;
  font-display: swap;
  src: url("https://mirostatic.com/app/static/0e625f45b71a26f1.woff2") format('woff2');
}
@font-face {
  font-family: 'OpenSans';
  font-style: normal;
  font-weight: 800;
  font-display: swap;
  src: url("https://mirostatic.com/app/static/645c27eb7d93eca8.woff2") format('woff2');
}
@font-face {
  font-family: 'Noto Sans Hebrew';
  font-style: normal;
  font-weight: 400;
  src: local('Noto Sans Hebrew Regular'), local('Noto Sans Hebrew-Regular'), url("https://mirostatic.com/app/static/7ebe1dcf0343326c.woff2") format('woff2'), url("https://mirostatic.com/app/static/6c11f037d6968262.woff") format('woff');
}
@font-face {
  font-family: 'Noto Sans Hebrew';
  font-style: normal;
  font-weight: 700;
  src: local('Noto Sans Hebrew Bold'), local('Noto Sans Hebrew-Bold'), url("https://mirostatic.com/app/static/d2883e2f177d0dad.woff2") format('woff2'), url("https://mirostatic.com/app/static/8546991909eadbc9.woff") format('woff');
}
@font-face {
  font-family: 'Noto Sans JP';
  font-style: normal;
  font-weight: 400;
  src: local('Noto Sans Japanese Regular'), local('Noto Sans Japanese-Regular'), url("https://mirostatic.com/app/static/9320b3c07ab79383.woff2") format('woff2'), url("https://mirostatic.com/app/static/a43be2cbcfc0b250.woff") format('woff');
}
@font-face {
  font-family: 'Noto Sans JP';
  font-style: normal;
  font-weight: 700;
  src: local('Noto Sans Japanese Bold'), local('Noto Sans Japanese-Bold'), url("https://mirostatic.com/app/static/7ab032c73212439f.woff2") format('woff2'), url("https://mirostatic.com/app/static/29f177f4466bd7a1.woff") format('woff');
}
@font-face {
  font-family: 'Noto Sans KR';
  font-style: normal;
  font-weight: 400;
  src: local(''), url("https://mirostatic.com/app/static/7a5b625774730d22.woff2") format('woff2'), url("https://mirostatic.com/app/static/2d84dc606f1fb88e.woff") format('woff');
}
@font-face {
  font-family: 'Noto Sans KR';
  font-style: normal;
  font-weight: 700;
  src: local(''), url("https://mirostatic.com/app/static/fa5a3d9073cdd58f.woff2") format('woff2'), url("https://mirostatic.com/app/static/7ded243557c83342.woff") format('woff');
}
@font-face {
  font-family: 'IBM Plex Serif';
  font-style: normal;
  font-weight: 400;
  src: local('IBM Plex Serif'), local('IBMPlexSerif'), url("https://mirostatic.com/app/static/40e0b16d3a70d18a.woff2") format('woff2');
}
@font-face {
  font-family: 'IBM Plex Serif';
  font-style: italic;
  font-weight: 400;
  src: local('IBM Plex Serif Italic'), local('IBMPlexSerif-Italic'), url("https://mirostatic.com/app/static/73118e5b379d7065.woff2") format('woff2');
}
@font-face {
  font-family: 'IBM Plex Serif';
  font-style: normal;
  font-weight: 700;
  src: local('IBM Plex Serif Bold'), local('IBMPlexSerif-Bold'), url("https://mirostatic.com/app/static/97561b1e87f572e5.woff2") format('woff2');
}
@font-face {
  font-family: 'IBM Plex Serif';
  font-style: italic;
  font-weight: 700;
  src: local('IBM Plex Serif Bold Italic'), local('IBMPlexSerif-BoldItalic'), url("https://mirostatic.com/app/static/28e812066bbbf275.woff2") format('woff2');
}
@font-face {
  font-family: 'Noto Serif';
  font-style: normal;
  font-weight: 400;
  src: local('Noto Serif'), local('NotoSerif'), url("https://mirostatic.com/app/static/119617d2220901df.woff") format('woff2');
}
@font-face {
  font-family: 'Noto Serif';
  font-style: italic;
  font-weight: 400;
  src: local('Noto Serif Italic'), local('NotoSerif-Italic'), url("https://mirostatic.com/app/static/c5c8cc39e1265f32.woff2") format('woff2');
}
@font-face {
  font-family: 'Noto Serif';
  font-style: normal;
  font-weight: 700;
  src: local('Noto Serif Bold'), local('NotoSerif-Bold'), url("https://mirostatic.com/app/static/6644c2d4df07df9b.woff2") format('woff2');
}
@font-face {
  font-family: 'Noto Serif';
  font-style: italic;
  font-weight: 700;
  src: local('Noto Serif Bold Italic'), local('NotoSerif-BoldItalic'), url("https://mirostatic.com/app/static/a915ce39e64f9f8f.woff2") format('woff2');
}
@font-face {
  font-family: 'Noto Serif JP';
  font-style: normal;
  font-weight: 400;
  src: local('Noto Serif Japanese Regular'), local('Noto Serif Japanese-Regular'), url("https://mirostatic.com/app/static/a785acffade1f270.woff2") format('woff2'), url("https://mirostatic.com/app/static/bfffd5df26c28efa.woff") format('woff');
}
@font-face {
  font-family: 'Noto Serif JP';
  font-style: normal;
  font-weight: 700;
  src: local('Noto Serif Japanese Bold'), local('Noto Serif Japanese-Bold'), url("https://mirostatic.com/app/static/204612015ef3d0b4.woff2") format('woff2'), url("https://mirostatic.com/app/static/748c376afed7a2ff.woff") format('woff');
}
@font-face {
  font-family: 'Noto Serif KR';
  font-style: normal;
  font-weight: 400;
  src: local(''), url("https://mirostatic.com/app/static/bd7974394b630482.woff2") format('woff2'), url("https://mirostatic.com/app/static/3601949b2d238888.woff") format('woff');
}
@font-face {
  font-family: 'Noto Serif KR';
  font-style: normal;
  font-weight: 700;
  src: local(''), url("https://mirostatic.com/app/static/e6e080e5c84030d6.woff2") format('woff2'), url("https://mirostatic.com/app/static/bf2fbaa107e5e389.woff") format('woff');
}
]]></style>
  </defs>
  <g
     width="318.14841077253516px"
     height="154.99537960713252px"
     id="g5"
     transform="translate(-4.3134033,-33.180293)">
    <g
       id="g4">
      <path
         d="m 78.737067,56.545909 h -4.154719 q -0.54192,-2.007547 -1.98704,-4.740041 -1.384906,-2.78826 -3.131093,-5.241929 -1.806399,-2.565199 -3.974079,-4.461216 -2.107466,-1.951781 -4.094505,-2.230607 -1.866613,-0.223061 -4.696639,-0.334592 -2.830026,-0.11153 -5.238559,-0.11153 H 47.96806 v 63.293496 q 0,1.84025 0.842987,3.40168 0.842986,1.50566 2.950452,2.34214 1.08384,0.39035 4.515999,1.05954 3.492373,0.66918 5.419199,0.72494 v 3.95933 H 21.353773 v -3.95933 q 1.685973,-0.11153 5.118132,-0.44612 3.492373,-0.33459 4.817066,-0.83648 1.987039,-0.72494 2.890239,-2.06331 0.963413,-1.39413 0.963413,-3.6805 V 39.425994 h -3.492372 q -1.866613,0 -4.636426,0.11153 -2.769813,0.05577 -5.298772,0.334592 -1.98704,0.22306 -4.154719,2.230607 -2.107467,1.951782 -3.913866,4.461216 -1.8064,2.509434 -3.191306,5.353459 -1.3849065,2.78826 -1.9268263,4.628511 H 4.3134033 v -21.4696 H 78.737067 Z"
         id="text2"
         style="font-size:114.207px;font-family:'IBM Plex Serif', Georgia, Times, 'Times New Roman', serif, 'Noto Sans Hebrew', 'Noto Serif', 'Noto Serif JP', 'Noto Serif KR';letter-spacing:0;fill:#447583"
         aria-label="T" />
      <path
         d="m 231.0161,44.444862 q 5.4275,5.46499 8.48769,13.216352 3.06019,7.695597 3.06019,17.06415 0,9.424318 -3.11793,17.119915 -3.11793,7.695597 -8.66091,13.104821 -5.36976,5.35346 -12.47171,8.25325 -7.10194,2.89979 -15.12772,2.89979 -8.54543,0 -15.82059,-3.06709 -7.21743,-3.12285 -12.41397,-8.6436 -5.19655,-5.409226 -8.199,-13.104823 -2.94471,-7.751362 -2.94471,-16.562263 0,-9.647379 3.11793,-17.17568 3.11793,-7.584067 8.60317,-13.104822 5.4275,-5.464989 12.58719,-8.364779 7.21742,-2.89979 15.06998,-2.89979 8.14125,0 15.35868,2.955555 7.21742,2.955556 12.47171,8.309014 z m -8.60317,56.099788 q 3.2334,-5.074633 4.67689,-11.487631 1.50122,-6.412997 1.50122,-14.331655 0,-8.141719 -1.67444,-14.945073 -1.6167,-6.803354 -4.79237,-11.59916 -3.17567,-4.740042 -7.96804,-7.361006 -4.79236,-2.67673 -10.97048,-2.67673 -6.92873,0 -11.77884,3.067086 -4.8501,3.067086 -7.91029,8.197484 -2.88697,4.907337 -4.33046,11.48763 -1.38574,6.580293 -1.38574,13.829769 0,8.030188 1.50122,14.498951 1.50123,6.468763 4.73463,11.487635 3.11793,4.90733 7.85256,7.69559 4.73463,2.7325 11.31692,2.7325 6.17812,0 11.1437,-2.78826 4.96559,-2.78826 8.08352,-7.80713 z m 80.95063,-34.797483 q 3.40662,3.903564 5.25428,9.089727 1.9054,5.130398 1.9054,11.766457 0,6.524528 -2.25183,11.933752 -2.25184,5.353457 -5.94716,9.145487 -3.86854,3.8478 -8.60317,5.91112 -4.73463,2.06331 -10.04666,2.06331 -5.1388,0 -8.42995,-1.11531 -3.29114,-1.1153 -5.36976,-2.62096 h -0.46192 v 16.5065 q 0,2.00754 0.80836,3.34591 0.80835,1.33836 2.48279,1.95178 1.38574,0.50189 3.92628,0.94801 2.59827,0.50189 4.27271,0.55765 v 3.73627 h -31.8144 v -3.73627 q 1.78992,-0.11153 3.46436,-0.27882 1.67444,-0.1673 3.00245,-0.55766 1.73218,-0.55765 2.42505,-1.95178 0.69288,-1.39413 0.69288,-3.29014 V 70.654505 q 0,-1.672956 -0.86609,-3.234382 -0.86609,-1.561425 -2.25184,-2.509434 -1.03931,-0.669182 -2.88697,-1.003773 -1.84766,-0.390356 -3.57984,-0.501887 v -3.624738 l 19.40043,-1.226834 0.80836,0.669182 v 6.189937 l 0.46191,0.111531 q 3.00245,-3.345912 7.44838,-5.57652 4.44594,-2.230608 8.83413,-2.230608 5.31202,0 9.70022,2.174843 4.44593,2.174842 7.6216,5.855345 z m -9.41152,39.537523 q 2.30957,-3.45744 3.40662,-8.030187 1.09705,-4.572746 1.09705,-10.205031 0,-4.126624 -0.92383,-8.420544 -0.92383,-4.29392 -2.88697,-7.472537 -1.96314,-3.234381 -5.13881,-5.241928 -3.17566,-2.007547 -7.6216,-2.007547 -4.27271,0 -7.27516,1.840251 -3.00245,1.784487 -5.19655,4.29392 V 102.5522 q 0.51966,1.50566 1.67445,3.12285 1.21252,1.61719 2.65601,2.78826 1.78992,1.39413 3.86854,2.28637 2.07862,0.83648 5.08106,0.83648 3.23341,0 6.23586,-1.61719 3.00245,-1.67296 5.02333,-4.68428 z"
         id="text4"
         style="font-size:114.207px;font-family:'IBM Plex Serif', Georgia, Times, 'Times New Roman', serif, 'Noto Sans Hebrew', 'Noto Serif', 'Noto Serif JP', 'Noto Serif KR';letter-spacing:0;fill:#447583"
         aria-label="Op" />
    </g>
  </g>
  <g
     width="121px"
     height="20px"
     transform="matrix(2.3396156,0,0,2.3396156,13.216597,111.06971)"
     id="g7">
    <svg
       width="121"
       height="20"
       shape-border-width="shape-background"
       class="shape-background"
       preserveAspectRatio="none"
       version="1.1"
       id="svg6">
      <clipPath
         id="1258611717036">
        <rect
           x="0"
           y="0"
           width="121"
           height="20"
           rx="0"
           ry="0"
           id="rect5" />
      </clipPath>
      <g
         id="g6"
         stroke="none"
         stroke-width="0"
         fill="none"
         fill-rule="evenodd">
        <rect
           class="shape-element shape-element-rect"
           stroke="transparent"
           stroke-width="0"
           stroke-dasharray="none"
           stroke-opacity="0"
           fill="transparent"
           fill-opacity="0"
           x="0"
           y="0"
           width="121"
           height="20"
           rx="0"
           ry="0"
           clip-path="url(#1258611717036)"
           id="rect6" />
      </g>
    </svg>
  </g>
  <g
     width="283.093491406033px"
     height="46.79231262909637px"
     transform="translate(13.216597,111.06971)"
     id="g9">
    <g
       id="g8">
      <path
         d="M 8.6334213,32.75462 12.96321,11.979107 H 5.2782347 L 5.8374324,9.3081979 H 24.274982 L 23.715784,11.979107 H 16.094717 L 11.764929,32.75462 Z M 19.785422,26.309253 q 0,-4.973968 2.923806,-8.236636 2.412539,-2.686902 6.326923,-2.686902 3.067599,0 4.936918,1.919216 1.885295,1.919216 1.885295,5.181883 0,2.926805 -1.182304,5.453772 -1.182304,2.510974 -3.371164,3.854426 -2.172882,1.343451 -4.585421,1.343451 -1.981158,0 -3.61082,-0.847654 -1.613685,-0.847654 -2.476447,-2.39902 -0.846786,-1.551366 -0.846786,-3.582536 z m 2.891852,-0.287883 q 0,2.39902 1.150349,3.646511 1.15035,1.231496 2.923806,1.231496 0.92667,0 1.837364,-0.367849 0.910693,-0.383843 1.69357,-1.15153 0.782877,-0.767686 1.326098,-1.743288 0.559198,-0.991595 0.894716,-2.127131 0.49529,-1.583353 0.49529,-3.038758 0,-2.303059 -1.166327,-3.566543 -1.15035,-1.279478 -2.907828,-1.279478 -1.358052,0 -2.476448,0.655733 -1.118395,0.639738 -2.029089,1.887229 -0.894716,1.24749 -1.326097,2.91081 -0.415404,1.647327 -0.415404,2.942798 z M 36.050087,39.26396 40.95505,15.769558 h 2.668173 l -0.49529,2.367033 q 1.485868,-1.551366 2.652195,-2.143124 1.182304,-0.607752 2.492425,-0.607752 2.428516,0 4.026223,1.775275 1.597708,1.759281 1.597708,5.053935 0,2.654916 -0.878739,4.846021 -0.878739,2.175111 -2.156906,3.502569 -1.278166,1.327457 -2.588286,1.951203 -1.310121,0.623745 -2.68415,0.623745 -3.051622,0 -4.729215,-3.102733 l -1.91725,9.22823 z m 5.719794,-13.450505 q 0,1.903223 0.271611,2.638922 0.399427,1.039575 1.31012,1.679314 0.910694,0.639739 2.108975,0.639739 2.492424,0 4.026224,-2.798857 1.533799,-2.81485 1.533799,-5.741654 0,-2.159118 -1.03851,-3.326641 -1.022533,-1.183517 -2.556333,-1.183517 -1.102418,0 -2.045066,0.591758 -0.942647,0.575765 -1.757478,1.743288 -0.798854,1.15153 -1.326098,2.830844 -0.527244,1.679314 -0.527244,2.926804 z m 14.411328,0.495798 q 0,-4.973968 2.923805,-8.236636 2.412539,-2.686902 6.326923,-2.686902 3.0676,0 4.936918,1.919216 1.885295,1.919216 1.885295,5.181883 0,2.926805 -1.182304,5.453772 -1.182304,2.510974 -3.371163,3.854426 -2.172883,1.343451 -4.585422,1.343451 -1.981158,0 -3.61082,-0.847654 -1.613685,-0.847654 -2.476447,-2.39902 -0.846785,-1.551366 -0.846785,-3.582536 z M 59.07306,26.02137 q 0,2.39902 1.15035,3.646511 1.150349,1.231496 2.923805,1.231496 0.926671,0 1.837364,-0.367849 0.910694,-0.383843 1.693571,-1.15153 0.782876,-0.767686 1.326097,-1.743288 0.559198,-0.991595 0.894717,-2.127131 0.495289,-1.583353 0.495289,-3.038758 0,-2.303059 -1.166327,-3.566543 -1.150349,-1.279478 -2.907828,-1.279478 -1.358052,0 -2.476447,0.655733 -1.118396,0.639738 -2.029089,1.887229 -0.894717,1.24749 -1.326098,2.91081 -0.415404,1.647327 -0.415404,2.942798 z m 14.571098,6.73325 4.888986,-23.4464221 h 2.891852 L 76.536009,32.75462 Z m 8.004515,-6.445367 q 0,-4.973968 2.923806,-8.236636 2.412538,-2.686902 6.326923,-2.686902 3.067599,0 4.936917,1.919216 1.885296,1.919216 1.885296,5.181883 0,2.926805 -1.182304,5.453772 -1.182304,2.510974 -3.371164,3.854426 -2.172883,1.343451 -4.585422,1.343451 -1.981157,0 -3.610819,-0.847654 -1.613685,-0.847654 -2.476448,-2.39902 -0.846785,-1.551366 -0.846785,-3.582536 z m 2.891851,-0.287883 q 0,2.39902 1.15035,3.646511 1.15035,1.231496 2.923806,1.231496 0.92667,0 1.837364,-0.367849 0.910693,-0.383843 1.69357,-1.15153 0.782877,-0.767686 1.326098,-1.743288 0.559197,-0.991595 0.894716,-2.127131 0.495289,-1.583353 0.495289,-3.038758 0,-2.303059 -1.166326,-3.566543 -1.15035,-1.279478 -2.907829,-1.279478 -1.358051,0 -2.476447,0.655733 -1.118395,0.639738 -2.029089,1.887229 -0.894716,1.24749 -1.326098,2.91081 -0.415404,1.647327 -0.415404,2.942798 z m 14.635003,8.268622 2.923803,0.271889 q -0.0319,0.991595 0.23966,1.487393 0.27161,0.495797 0.86276,0.767686 0.78288,0.351856 2.02909,0.351856 2.62024,0 3.77059,-1.359444 0.75092,-0.911628 1.39001,-3.96638 l 0.28758,-1.375438 q -2.25276,2.287066 -4.79312,2.287066 -2.57231,0 -4.31381,-1.887229 -1.725526,-1.903223 -1.725526,-5.373805 0,-2.862831 1.358056,-5.261851 1.37402,-2.39902 3.25932,-3.614523 1.8853,-1.231497 3.88243,-1.231497 3.33921,0 5.14462,3.166706 l 0.57517,-2.782863 h 2.6522 l -3.4191,16.393303 q -0.55919,2.702896 -1.46989,4.206282 -0.91069,1.519379 -2.54035,2.35104 -1.61369,0.83166 -3.73864,0.83166 -2.04506,0 -3.53093,-0.527785 -1.46989,-0.527784 -2.20484,-1.551366 -0.718968,-1.007588 -0.718968,-2.319052 0,-0.399837 0.07989,-0.863648 z m 3.610823,-9.052302 q 0,1.743288 0.33552,2.622929 0.47931,1.231497 1.35805,1.887229 0.89471,0.639739 1.98116,0.639739 1.42196,0 2.82794,-0.991595 1.40598,-1.007589 2.26874,-3.102733 0.87874,-2.095144 0.87874,-3.998366 0,-2.095144 -1.16632,-3.326641 -1.15035,-1.247491 -2.8599,-1.247491 -1.05449,0 -2.04507,0.575765 -0.99058,0.559771 -1.85334,1.727294 -0.84678,1.15153 -1.29414,2.76687 -0.43138,1.61534 -0.43138,2.447 z m 13.6604,14.074251 0.17575,-2.718889 q 0.89471,0.255895 1.7415,0.255895 0.87874,0 1.42196,-0.399837 0.70299,-0.527784 1.5338,-1.98319 l 0.92667,-1.66332 -2.82795,-17.033042 h 2.84392 l 1.27817,8.588492 q 0.38345,2.542961 0.65506,5.085922 l 7.58911,-13.674414 h 3.01967 l -10.81648,19.24014 q -1.56575,2.81485 -2.78001,3.726478 -1.21426,0.911628 -2.79599,0.911628 -1.00656,0 -1.96518,-0.335863 z m 28.4392,-16.37731 q 0,-6.269439 3.61082,-10.139857 3.62679,-3.8864128 8.78739,-3.8864128 4.37772,0 7.12578,2.8628308 2.76403,2.846837 2.76403,7.644877 0,3.422601 -1.39,6.349406 -1.03851,2.191105 -2.62025,3.790451 -1.58173,1.583353 -3.38714,2.447001 -2.39656,1.151529 -5.08071,1.151529 -2.81196,0 -5.12864,-1.343451 -2.3007,-1.343451 -3.49898,-3.742471 -1.1823,-2.415013 -1.1823,-5.133903 z m 3.08357,0.159935 q 0,2.063157 0.84679,3.790451 0.86276,1.727295 2.55633,2.702896 1.69357,0.975602 3.56289,0.975602 1.80541,0 3.43507,-0.847654 1.62966,-0.863647 2.90783,-2.383026 1.29414,-1.535373 2.02909,-3.758465 0.75092,-2.239085 0.75092,-4.398203 0,-3.502569 -1.96518,-5.58172 -1.9492,-2.079151 -4.82508,-2.079151 -3.67473,0 -6.48669,3.150713 -2.81197,3.13472 -2.81197,8.428557 z m 19.04469,16.169394 4.90496,-23.494402 h 2.66817 l -0.49529,2.367033 q 1.48587,-1.551366 2.6522,-2.143124 1.1823,-0.607752 2.49242,-0.607752 2.42852,0 4.02623,1.775275 1.5977,1.759281 1.5977,5.053935 0,2.654916 -0.87874,4.846021 -0.87874,2.175111 -2.1569,3.502569 -1.27817,1.327457 -2.58829,1.951203 -1.31012,0.623745 -2.68415,0.623745 -3.05162,0 -4.72921,-3.102733 l -1.91725,9.22823 z M 172.734,25.813455 q 0,1.903223 0.27161,2.638922 0.39943,1.039575 1.31012,1.679314 0.91069,0.639739 2.10898,0.639739 2.49242,0 4.02622,-2.798857 1.5338,-2.81485 1.5338,-5.741654 0,-2.159118 -1.03851,-3.326641 -1.02253,-1.183517 -2.55633,-1.183517 -1.10242,0 -2.04507,0.591758 -0.94265,0.575765 -1.75748,1.743288 -0.79885,1.15153 -1.3261,2.830844 -0.52724,1.679314 -0.52724,2.926804 z m 20.65836,4.590125 -0.47931,2.367033 q -1.03851,0.271889 -2.01311,0.271889 -1.72553,0 -2.74806,-0.847654 -0.7669,-0.639738 -0.7669,-1.743288 0,-0.559771 0.4154,-2.574948 l 2.06105,-9.867968 h -2.28473 l 0.46334,-2.239086 h 2.28472 l 0.87874,-4.174294 3.30726,-1.9991837 -1.29415,6.1734777 h 2.84392 l -0.47931,2.239086 h -2.82794 l -1.96518,9.388164 q -0.36748,1.791269 -0.36748,2.143125 0,0.511791 0.28759,0.78368 0.30357,0.271889 0.9746,0.271889 0.95863,0 1.70955,-0.191922 z m 6.43876,-17.816721 0.68702,-3.2786611 h 2.87587 L 202.707,12.586859 Z m -4.21794,20.167761 3.54691,-16.985062 h 2.89185 l -3.54691,16.985062 z m 7.36543,0 3.54692,-16.985062 h 2.89185 l -0.59115,2.798857 q 1.61368,-1.807262 2.87587,-2.494981 1.27817,-0.687719 2.76403,-0.687719 1.58174,0 2.63622,0.847654 1.07047,0.83166 1.40599,2.335046 1.29414,-1.599347 2.7161,-2.383027 1.43794,-0.799673 3.01967,-0.799673 2.12495,0 3.17944,1.007589 1.07046,1.007588 1.07046,2.830843 0,0.78368 -0.36747,2.590942 l -2.28473,10.939531 h -2.89185 l 2.33266,-11.227414 q 0.30356,-1.375438 0.30356,-1.967196 0,-0.83166 -0.52724,-1.311464 -0.52725,-0.479804 -1.48587,-0.479804 -1.29414,0 -2.63622,0.783679 -1.34207,0.78368 -2.093,2.063158 -0.73494,1.263483 -1.29414,3.902405 l -1.72552,8.236636 h -2.89185 l 2.39656,-11.467316 q 0.25563,-1.167523 0.25563,-1.66332 0,-0.831661 -0.52724,-1.343451 -0.51127,-0.511791 -1.34208,-0.511791 -1.23023,0 -2.58828,0.783679 -1.34208,0.78368 -2.18886,2.191105 -0.84679,1.391432 -1.39001,3.982373 l -1.67759,8.028721 z m 31.37899,-20.167761 0.68701,-3.2786611 h 2.87588 l -0.68702,3.2786611 z m -4.21795,20.167761 3.54691,-16.985062 h 2.89185 L 233.0315,32.75462 Z m 6.93404,0 0.46334,-2.239086 9.12291,-10.283799 q 0.9746,-1.087555 2.17288,-2.255078 -2.06104,0.207915 -2.95576,0.207915 h -6.31094 l 0.51126,-2.415014 h 13.11719 l -0.38345,1.823255 -9.2028,10.347773 q -0.78288,0.879641 -2.33266,2.415014 2.41254,-0.143942 3.30726,-0.143942 h 6.67842 l -0.52724,2.542962 z m 29.27002,-5.773642 2.81196,0.287883 q -0.60713,2.095144 -2.79599,3.982373 -2.17288,1.887229 -5.19255,1.887229 -1.88529,0 -3.46702,-0.863647 -1.56576,-0.879641 -2.39656,-2.542962 -0.81484,-1.66332 -0.81484,-3.790451 0,-2.782863 1.27817,-5.389798 1.29414,-2.622929 3.33921,-3.886413 2.04507,-1.279477 4.42565,-1.279477 3.03565,0 4.84106,1.887229 1.82138,1.887229 1.82138,5.149896 0,1.247491 -0.22368,2.558955 h -12.49407 q -0.0639,0.495797 -0.0639,0.895634 0,2.383027 1.08644,3.64651 1.10242,1.247491 2.68415,1.247491 1.48587,0 2.92381,-0.975602 1.43793,-0.975601 2.23679,-2.81485 z m -8.40395,-4.206281 h 9.52234 q 0.016,-0.447817 0.016,-0.639739 0,-2.175111 -1.08644,-3.326641 -1.08644,-1.167523 -2.79599,-1.167523 -1.85334,0 -3.38714,1.279477 -1.51782,1.279478 -2.26875,3.854426 z m 14.13973,9.979923 3.54691,-16.985062 h 2.55634 l -0.71897,3.470583 q 1.31012,-1.967197 2.55633,-2.910811 1.26219,-0.943615 2.57231,-0.943615 0.86276,0 2.12495,0.623745 l -1.1823,2.686903 q -0.75093,-0.543778 -1.64564,-0.543778 -1.51782,0 -3.11553,1.695307 -1.59771,1.695308 -2.5084,6.093511 l -1.43794,6.813217 z"
         id="text7"
         style="font-style:italic;font-size:32.7546px;font-family:OpenSans, Arial, sans-serif, 'Noto Sans Hebrew', 'Noto Sans', 'Noto Sans JP', 'Noto Sans KR';letter-spacing:0;fill:#447583"
         aria-label="Topology Optimizer" />
    </g>
  </g>
  <g
     width="50.25px"
     height="50.25px"
     transform="translate(82.876597,35.729707)"
     id="g11">
    <svg
       width="50.25457"
       height="50.25457"
       class="shape-background"
       preserveAspectRatio="none"
       version="1.1"
       id="svg10">
      <clipPath
         id="1432964349587">
        <circle
           cx="25.127285"
           cy="25.127285"
           id="ellipse9"
           r="25.127285" />
      </clipPath>
      <g
         id="g10"
         stroke="none"
         stroke-width="0"
         fill="none"
         fill-rule="evenodd">
        <circle
           class="shape-element shape-element-ellipse"
           cx="25.127285"
           cy="25.127285"
           stroke="#ff7300"
           stroke-width="8"
           stroke-dasharray="none"
           stroke-opacity="1"
           fill="transparent"
           fill-opacity="0"
           clip-path="url(#1432964349587)"
           id="ellipse10"
           r="25.127285" />
      </g>
    </svg>
  </g>
  <g
     width="50.25px"
     height="50.25px"
     transform="translate(82.876597,35.729707)"
     id="g13">
    <g
       transform="translate(7.3596115,7.3596115)"
       id="g12" />
  </g>
  <g
     width="13.64px"
     height="13.64px"
     transform="translate(101.1766,54.029707)"
     id="g15">
    <svg
       width="13.642963"
       height="13.642963"
       class="shape-background"
       preserveAspectRatio="none"
       version="1.1"
       id="svg14">
      <clipPath
         id="853784406020">
        <circle
           cx="6.8214817"
           cy="6.8214817"
           id="ellipse13"
           r="6.8214817" />
      </clipPath>
      <g
         id="g14"
         stroke="none"
         stroke-width="0"
         fill="none"
         fill-rule="evenodd">
        <circle
           class="shape-element shape-element-ellipse"
           cx="6.8214817"
           cy="6.8214817"
           stroke="#ff7300"
           stroke-width="8"
           stroke-dasharray="none"
           stroke-opacity="1"
           fill="transparent"
           fill-opacity="0"
           clip-path="url(#853784406020)"
           id="ellipse14"
           r="6.8214817" />
      </g>
    </svg>
  </g>
  <g
     width="13.64px"
     height="13.64px"
     transform="translate(101.1766,54.029707)"
     id="g17">
    <g
       transform="translate(1.9979657,1.9979657)"
       id="g16" />
  </g>
  <g
     width="17.42px"
     height="18.29px"
     transform="rotate(-4.8676669,232.73472,-1596.172)"
     id="g19">
    <svg
       width="17.419922"
       height="18.287992"
       class="shape-background"
       preserveAspectRatio="none"
       version="1.1"
       id="svg18">
      <clipPath
         id="54657417073">
        <ellipse
           cx="8.7099609"
           cy="9.1439962"
           rx="8.7099609"
           ry="9.1439962"
           id="ellipse17" />
      </clipPath>
      <g
         id="g18"
         stroke="none"
         stroke-width="0"
         fill="none"
         fill-rule="evenodd">
        <ellipse
           class="shape-element shape-element-ellipse"
           cx="8.7099609"
           cy="9.1439962"
           rx="8.7099609"
           ry="9.1439962"
           stroke="#ff7300"
           stroke-width="8"
           stroke-dasharray="none"
           stroke-opacity="1"
           fill="transparent"
           fill-opacity="0"
           clip-path="url(#54657417073)"
           id="ellipse18" />
      </g>
    </svg>
  </g>
  <g
     width="17.42px"
     height="18.29px"
     transform="rotate(-4.8676669,232.73472,-1596.172)"
     id="g21">
    <g
       transform="translate(2.5510884,2.6782144)"
       id="g20" />
  </g>
  <g
     width="16.07px"
     height="16.07px"
     transform="rotate(40.676336,-47.083411,245.55651)"
     id="g23">
    <svg
       width="16.068163"
       height="16.068163"
       class="shape-background"
       preserveAspectRatio="none"
       version="1.1"
       id="svg22">
      <clipPath
         id="682829174651">
        <circle
           cx="8.0340815"
           cy="8.0340815"
           id="ellipse21"
           r="8.0340815" />
      </clipPath>
      <g
         id="g22"
         stroke="none"
         stroke-width="0"
         fill="none"
         fill-rule="evenodd">
        <circle
           class="shape-element shape-element-ellipse"
           cx="8.0340815"
           cy="8.0340815"
           stroke="#ff7300"
           stroke-width="8"
           stroke-dasharray="none"
           stroke-opacity="1"
           fill="transparent"
           fill-opacity="0"
           clip-path="url(#682829174651)"
           id="ellipse22"
           r="8.0340815" />
      </g>
    </svg>
  </g>
  <g
     width="16.07px"
     height="16.07px"
     transform="rotate(40.676336,-47.083411,245.55651)"
     id="g25">
    <g
       transform="translate(2.3531279,2.3531279)"
       id="g24" />
  </g>
  <g
     width="17.42px"
     height="17.42px"
     transform="translate(51.406597,98.159707)"
     id="g27">
    <svg
       width="17.419922"
       height="17.419922"
       class="shape-background"
       preserveAspectRatio="none"
       version="1.1"
       id="svg26">
      <clipPath
         id="1127965653963">
        <circle
           cx="8.7099609"
           cy="8.7099609"
           id="ellipse25"
           r="8.7099609" />
      </clipPath>
      <g
         id="g26"
         stroke="none"
         stroke-width="0"
         fill="none"
         fill-rule="evenodd">
        <circle
           class="shape-element shape-element-ellipse"
           cx="8.7099609"
           cy="8.7099609"
           stroke="#ff7300"
           stroke-width="8"
           stroke-dasharray="none"
           stroke-opacity="1"
           fill="transparent"
           fill-opacity="0"
           clip-path="url(#1127965653963)"
           id="ellipse26"
           r="8.7099609" />
      </g>
    </svg>
  </g>
  <g
     width="17.42px"
     height="17.42px"
     transform="translate(51.406597,98.159707)"
     id="g29">
    <g
       transform="translate(2.5510884,2.5510884)"
       id="g28" />
  </g>
  <g
     width="23.19px"
     height="22.91px"
     transform="translate(66.776597,78.349707)"
     id="g30">
    <path
       stroke-linecap="butt"
       stroke="#ff7300"
       stroke-width="4"
       fill="transparent"
       d="M 23.185149,0 0,22.911097"
       id="path29" />
  </g>
  <g
     width="17px"
     height="18.18px"
     transform="translate(126.4366,77.929707)"
     id="g31">
    <path
       stroke-linecap="butt"
       stroke="#ff7300"
       stroke-width="4"
       fill="transparent"
       d="M 0,0 17.003501,18.184075"
       id="path30" />
  </g>
  <g
     width="13.79px"
     height="14.32px"
     transform="translate(125.9066,28.909707)"
     id="g32">
    <path
       stroke-linecap="butt"
       stroke="#ff7300"
       stroke-width="4"
       fill="transparent"
       d="M 0,14.316414 13.794413,0"
       id="path31" />
  </g>
</svg>
