<svg xmlns="http://www.w3.org/2000/svg" role="img" viewBox="27.98 4.48 136.53 208.78"><g fill-rule="evenodd" clip-rule="evenodd"><path fill="none" d="M0 0h192.756v192.756H0V0z"/><path fill="#929496" d="M42.719 75.852h16.995c14.476 0 18.253-8.183 18.253-18.883V26.757c0-10.071-3.777-18.253-18.253-18.253H42.719v67.348zm10.7-61.684h5.665c5.664 0 8.182 3.147 8.182 11.959v32.1c0 8.812-2.518 11.959-8.182 11.959h-5.665V14.168zm91.895-5.664v50.983c0 6.294-1.258 10.7-6.924 10.7-5.664 0-6.924-4.406-6.924-10.7V8.504h-10.699v54.13c0 6.294 5.035 13.218 14.477 13.218h6.924c8.812 0 13.848-6.924 13.848-13.218V8.504h-10.702zm-29.582 0H81.744v6.294h11.329v61.054h11.958V14.798h10.701V8.504z"/><path fill="#c9322d" d="M160.654 109.932l-27.451 12.053c-35.486-12.053-38.165-12.053-73.65 0l-27.452-12.053 27.452-12.721c35.485 12.053 38.164 12.053 73.65 0l27.451 12.721zm0 30.798l-27.451 12.723c-35.486-12.053-38.165-12.053-73.65 0L32.102 140.73l27.452-12.719c35.485 12.051 38.164 12.051 73.65 0l27.45 12.719zm0 30.801l-27.451 12.721c-35.486-12.051-38.165-12.051-73.65 0l-27.452-12.721 27.452-12.721c35.485 12.051 38.164 12.051 73.65 0l27.451 12.721z"/></g><path d="M55.48011 188.63763H42.40334v2.85957h4.85006v13.28236h3.39534V191.4972h4.83137zm9.17679 12.96775c-.48905.64792-1.18993.97499-2.10262.97499-.9127 0-1.61669-.32707-2.10886-.975-.49217-.65103-.73825-1.57307-.73825-2.77234 0-1.19616.24608-2.1182.73825-2.76612.49217-.64481 1.19616-.96877 2.10886-.96877.91269 0 1.61357.32396 2.10262.96877.48906.64792.73203 1.56996.73203 2.76612 0 1.19927-.24297 2.12131-.73203 2.77235zm2.49512 1.72259c1.00926-1.24288 1.51077-2.7412 1.51077-4.49494 0-1.7226-.50151-3.21468-1.51077-4.47937-1.00615-1.26158-2.53561-1.89392-4.5884-1.89392-2.04967 0-3.57913.63234-4.5884 1.89392-1.00614 1.26469-1.51077 2.75677-1.51077 4.47937 0 1.75374.50463 3.25206 1.51078 4.49494 1.00926 1.246 2.53872 1.869 4.58839 1.869 2.05279 0 3.58225-.623 4.5884-1.869zm-4.5884-10.80282zm15.93011 3.84391c.42053.7071.62923 1.52324.62923 2.44216 0 1.11829-.2274 2.01229-.6853 2.68202-.45479.67284-1.11828 1.00926-1.98737 1.00926-.59808 0-1.11517-.1651-1.55438-.49217-.73826-.56382-1.10583-1.53881-1.10583-2.92499 0-.87531.10903-1.598.32708-2.16804.42364-1.07467 1.20239-1.61045 2.33313-1.61045.94073 0 1.62292.3551 2.04344 1.06221zm2.39855-2.24591c-.96876-1.02795-2.14935-1.54193-3.54487-1.54193-.9563 0-1.78178.26478-2.47331.79744-.38003.29904-.73825.71022-1.07467 1.22731v-1.76309h-2.98729v16.6341h3.08697v-6.22065c.32707.50463.66349.88777 1.00614 1.15255.62923.47347 1.41733.71021 2.3674.71021 1.48897 0 2.70694-.55135 3.65078-1.65406.94696-1.10271 1.42044-2.70382 1.42044-4.80645 0-1.9936-.48594-3.50437-1.45159-4.53544zm3.95917-5.46371v16.12012h3.34862v-6.7689h7.08663v-2.8035h-7.08663v-3.70996h8.09277v-2.83776zm20.02945 10.31688v1.16189c-.02181 1.04353-.31773 1.76309-.88155 2.15558-.56693.3956-1.18681.59185-1.85654.59185-.42364 0-.78498-.11837-1.0809-.35511-.29281-.23674-.44233-.623-.44233-1.15567 0-.59808.23985-1.0404.72268-1.32699.28658-.1682.75694-.30838 1.4142-.42675l.70088-.13083c.34888-.06541.62612-.13706.82548-.21182.20247-.07787.39872-.17755.59808-.30215zm-1.89704-1.45782l-1.06221.13083c-1.2024.15575-2.11509.41118-2.73497.7694-1.13386.65727-1.69768 1.71948-1.69768 3.18665 0 1.13074.352 2.00606 1.05599 2.62283.70399.61677 1.59799.92515 2.67578.92515.84728 0 1.60734-.19313 2.28018-.5825.5607-.32708 1.0591-.7258 1.48897-1.19305.0218.271.04984.51086.08722.72268.03738.21182.1028.43922.19625.67907h3.39535v-.46102c-.2056-.09345-.35823-.21493-.46102-.36134-.09968-.14329-.16198-.42052-.18379-.8317-.01557-.5389-.0218-.99992-.0218-1.37995v-5.47306c0-1.43912-.50775-2.41723-1.52324-2.93744-1.01549-.51709-2.17738-.77563-3.48257-.77563-2.00917 0-3.42338.52332-4.24886 1.57619-.51709.67284-.8099 1.52946-.87531 2.57299h3.00909c.07476-.46102.22116-.82548.43921-1.09337.30839-.36757.82859-.54824 1.56685-.54824.65726 0 1.15566.09345 1.4952.27724.33953.1869.50774.52643.50774 1.01549 0 .40183-.22116.69464-.66661.88466-.2492.11214-.66038.20247-1.23977.27412zm.1651-4.99335zm14.25424.03738c-.0405-.00311-.09034-.00311-.14952-.00311-.9345 0-1.69145.24297-2.27707.73202-.35822.29281-.77875.83794-1.25846 1.63226v-2.08082h-2.97794v11.93668h3.14303V199.076c0-.95942.11837-1.66653.36134-2.12755.42987-.81613 1.27092-1.2242 2.52938-1.2242.09345 0 .21805.00312.37069.00935.15263.00935.33019.0218.52643.04361v-3.19599c-.14017-.00934-.22739-.01246-.26789-.01869zm16.9892.32396c-.51085-.20247-1.02794-.30527-1.55438-.30527-.7881 0-1.50454.16198-2.14623.49217-.60743.32708-1.11206.84417-1.52324 1.54504-.23362-.58562-.57627-1.06221-1.02795-1.43601-.56382-.40184-1.29895-.6012-2.21165-.6012-.96565 0-1.75063.23363-2.35494.70088-.34265.26166-.71022.70399-1.09648 1.32387v-1.74128h-3.03401v11.91487h3.16484v-7.18319c0-.65104.0841-1.14009.25232-1.46717.30838-.57627.90646-.86596 1.79735-.86596.76629 0 1.28027.28969 1.54504.86597.14329.32084.21805.83482.21805 1.54504v7.10531h3.14304v-7.10531c0-.53578.0841-.99057.25231-1.3706.32707-.71645.92204-1.07156 1.7849-1.07156.74448 0 1.25534.27723 1.53257.8317.14641.2897.21805.6635.21805 1.11517v7.6006h3.19911l.0218-7.52272c0-.77564-.03737-1.36126-.10902-1.7631-.11837-.60742-.34265-1.11828-.67907-1.53258-.41741-.51086-.88154-.86908-1.3924-1.07467zm5.02762 8.77184c-.46102.94385-.704 1.98426-.73514 3.12123h10.87446v-2.74743h-6.93087c.19624-.33019.43921-.61677.7289-.86597.28659-.2492.82237-.65103 1.60423-1.2055l1.24912-.88466c1.04975-.7476 1.8067-1.42044 2.2646-2.02787.70088-.9127 1.05287-1.95622 1.05287-3.13057 0-1.5357-.4984-2.76612-1.48897-3.69751-.99368-.93138-2.33002-1.39552-4.009-1.39552-2.12443 0-3.60406.79121-4.43576 2.37675-.4361.8317-.68219 1.92195-.73203 3.27386h3.0309c.03738-.89089.15575-1.54192.35199-1.94999.34265-.7071.99057-1.06221 1.93753-1.06221.69465 0 1.22731.22428 1.60111.66972.37069.44545.55759 1.00303.55759 1.67276 0 .82547-.32396 1.58553-.975 2.28018-.42364.44544-1.35502 1.18058-2.79415 2.21165-1.65718 1.1837-2.70694 2.30198-3.15238 3.36108z"/></svg>
