<?xml version="1.0" encoding="UTF-8" standalone="no"?>
<svg
   version="1.1"
   id="svg4"
   width="39.832031"
   height="9.0410156"
   xmlns="http://www.w3.org/2000/svg"
   xmlns:svg="http://www.w3.org/2000/svg">
  <defs
     id="defs8" />
  <g
     aria-label="TreeLS"
     id="text2"
     transform="translate(0,8.8828125)">
    <path
       d="M 7.3945312,-7.6933594 H 4.2773437 V 0 H 3.1171875 V -7.6933594 H 0 v -1.03125 h 7.3945312 z"
       id="path10" />
    <path
       d="m 11.390625,-5.34375 h -0.05859 q -0.246093,-0.058594 -0.480468,-0.082031 -0.228516,-0.029297 -0.544922,-0.029297 -0.509766,0 -0.9843754,0.2285156 -0.4746093,0.2226563 -0.9140625,0.5800781 V 0 H 7.3066406 v -6.5449219 h 1.1015625 v 0.9667969 q 0.65625,-0.5273437 1.1542969,-0.7441406 0.503906,-0.2226563 1.025391,-0.2226563 0.287109,0 0.416015,0.017578 0.128907,0.011719 0.386719,0.052734 z"
       id="path12" />
    <path
       d="m 17.90625,-3.1582031 h -4.822266 q 0,0.6035156 0.181641,1.0546875 0.181641,0.4453125 0.498047,0.7324219 0.304687,0.28125 0.720703,0.42187495 0.421875,0.140625 0.925781,0.140625 0.667969,0 1.341797,-0.26367185 0.679688,-0.2695313 0.966797,-0.5273438 h 0.05859 v 1.2011719 q -0.556641,0.234375 -1.136719,0.39257812 -0.580078,0.15820313 -1.21875,0.15820313 -1.628906,0 -2.542969,-0.87890625 -0.914062,-0.8847656 -0.914062,-2.5078125 0,-1.6054687 0.873047,-2.5488281 0.878906,-0.9433594 2.308593,-0.9433594 1.324219,0 2.039063,0.7734375 0.720703,0.7734375 0.720703,2.1972656 z m -1.072266,-0.84375 q -0.0059,-0.8671875 -0.439453,-1.3417969 -0.427734,-0.4746094 -1.30664,-0.4746094 -0.884766,0 -1.41211,0.5214844 -0.521484,0.5214844 -0.591797,1.2949219 z"
       id="path14" />
    <path
       d="m 25.054687,-3.1582031 h -4.822265 q 0,0.6035156 0.18164,1.0546875 0.181641,0.4453125 0.498047,0.7324219 0.304688,0.28125 0.720703,0.42187495 0.421875,0.140625 0.925782,0.140625 0.667968,0 1.341797,-0.26367185 0.679687,-0.2695313 0.966796,-0.5273438 h 0.05859 v 1.2011719 q -0.55664,0.234375 -1.136719,0.39257812 -0.580078,0.15820313 -1.21875,0.15820313 -1.628906,0 -2.542968,-0.87890625 -0.914063,-0.8847656 -0.914063,-2.5078125 0,-1.6054687 0.873047,-2.5488281 0.878906,-0.9433594 2.308594,-0.9433594 1.324219,0 2.039062,0.7734375 0.720703,0.7734375 0.720703,2.1972656 z m -1.072265,-0.84375 q -0.0059,-0.8671875 -0.439453,-1.3417969 -0.427735,-0.4746094 -1.306641,-0.4746094 -0.884766,0 -1.412109,0.5214844 -0.521485,0.5214844 -0.591797,1.2949219 z"
       id="path16" />
    <path
       d="M 32.332031,0 H 26.8125 v -8.7246094 h 1.160156 V -1.03125 h 4.359375 z"
       id="path18" />
    <path
       d="m 39.832031,-2.4902344 q 0,0.5097657 -0.240234,1.0078125 -0.234375,0.4980469 -0.66211,0.84375003 -0.46875,0.37499999 -1.095703,0.5859375 -0.621093,0.21093749 -1.5,0.21093749 -0.943359,0 -1.699218,-0.17578125 -0.75,-0.17578124 -1.529297,-0.52148437 v -1.453125 h 0.08203 q 0.662109,0.5507813 1.529297,0.8496094 0.867187,0.2988281 1.628906,0.2988281 1.078125,0 1.675781,-0.4042969 0.603516,-0.4042968 0.603516,-1.078125 0,-0.5800781 -0.287109,-0.8554687 -0.28125,-0.2753907 -0.861329,-0.4277344 -0.439453,-0.1171875 -0.955078,-0.1933594 -0.509765,-0.076172 -1.083984,-0.1933594 -1.160156,-0.2460937 -1.722656,-0.8378906 -0.556641,-0.5976562 -0.556641,-1.5527343 0,-1.0957032 0.925781,-1.7929688 0.925782,-0.703125 2.34961,-0.703125 0.919922,0 1.6875,0.1757812 0.767578,0.1757813 1.359375,0.4335938 v 1.3710938 h -0.08203 q -0.498046,-0.421875 -1.3125,-0.6972657 -0.808593,-0.28125 -1.658203,-0.28125 -0.93164,0 -1.5,0.3867188 -0.5625,0.3867187 -0.5625,0.9960937 0,0.5449219 0.28125,0.8554688 0.28125,0.3105469 0.990235,0.4746094 0.375,0.082031 1.066406,0.1992187 0.691406,0.1171875 1.171875,0.2402344 0.972656,0.2578125 1.464844,0.7792968 0.492187,0.5214844 0.492186,1.4589844 z"
       id="path20" />
  </g>
</svg>
