<?xml version="1.0" encoding="UTF-8" standalone="no"?>
<svg
   version="1.1"
   id="svg4"
   width="52.230469"
   height="11.208984"
   xmlns="http://www.w3.org/2000/svg"
   xmlns:svg="http://www.w3.org/2000/svg">
  <defs
     id="defs8" />
  <g
     aria-label="TreeQSM"
     id="text2"
     transform="translate(0,8.90625)">
    <path
       d="M 7.3945312,-7.6933594 H 4.2773437 V 0 H 3.1171875 V -7.6933594 H 0 v -1.03125 h 7.3945312 z"
       id="path10" />
    <path
       d="m 11.390625,-5.34375 h -0.05859 q -0.246093,-0.058594 -0.480468,-0.082031 -0.228516,-0.029297 -0.544922,-0.029297 -0.509766,0 -0.9843754,0.2285156 -0.4746093,0.2226563 -0.9140625,0.5800781 V 0 H 7.3066406 v -6.5449219 h 1.1015625 v 0.9667969 q 0.65625,-0.5273437 1.1542969,-0.7441406 0.503906,-0.2226563 1.025391,-0.2226563 0.287109,0 0.416015,0.017578 0.128907,0.011719 0.386719,0.052734 z"
       id="path12" />
    <path
       d="m 17.90625,-3.1582031 h -4.822266 q 0,0.6035156 0.181641,1.0546875 0.181641,0.4453125 0.498047,0.7324219 0.304687,0.28125 0.720703,0.42187495 0.421875,0.140625 0.925781,0.140625 0.667969,0 1.341797,-0.26367185 0.679688,-0.2695313 0.966797,-0.5273438 h 0.05859 v 1.2011719 q -0.556641,0.234375 -1.136719,0.39257812 -0.580078,0.15820313 -1.21875,0.15820313 -1.628906,0 -2.542969,-0.87890625 -0.914062,-0.8847656 -0.914062,-2.5078125 0,-1.6054687 0.873047,-2.5488281 0.878906,-0.9433594 2.308593,-0.9433594 1.324219,0 2.039063,0.7734375 0.720703,0.7734375 0.720703,2.1972656 z m -1.072266,-0.84375 q -0.0059,-0.8671875 -0.439453,-1.3417969 -0.427734,-0.4746094 -1.30664,-0.4746094 -0.884766,0 -1.41211,0.5214844 -0.521484,0.5214844 -0.591797,1.2949219 z"
       id="path14" />
    <path
       d="m 25.054687,-3.1582031 h -4.822265 q 0,0.6035156 0.18164,1.0546875 0.181641,0.4453125 0.498047,0.7324219 0.304688,0.28125 0.720703,0.42187495 0.421875,0.140625 0.925782,0.140625 0.667968,0 1.341797,-0.26367185 0.679687,-0.2695313 0.966796,-0.5273438 h 0.05859 v 1.2011719 q -0.55664,0.234375 -1.136719,0.39257812 -0.580078,0.15820313 -1.21875,0.15820313 -1.628906,0 -2.542968,-0.87890625 -0.914063,-0.8847656 -0.914063,-2.5078125 0,-1.6054687 0.873047,-2.5488281 0.878906,-0.9433594 2.308594,-0.9433594 1.324219,0 2.039062,0.7734375 0.720703,0.7734375 0.720703,2.1972656 z m -1.072265,-0.84375 q -0.0059,-0.8671875 -0.439453,-1.3417969 -0.427735,-0.4746094 -1.306641,-0.4746094 -0.884766,0 -1.412109,0.5214844 -0.521485,0.5214844 -0.591797,1.2949219 z"
       id="path16" />
    <path
       d="m 34.59375,2.1386719 q -0.351563,0.087891 -0.697266,0.1230469 -0.339843,0.041016 -0.697265,0.041016 -1.019532,0 -1.640625,-0.5625 Q 30.943359,1.1835937 30.890625,0.140625 30.75,0.1640625 30.615234,0.16992187 q -0.128906,0.0117188 -0.251953,0.0117188 -0.919922,0 -1.675781,-0.30468749 -0.75,-0.30468751 -1.277344,-0.88476558 -0.527344,-0.5800781 -0.814453,-1.4238282 -0.28125,-0.84375 -0.28125,-1.9277344 0,-1.0664062 0.28125,-1.9101562 0.28125,-0.8496094 0.820313,-1.453125 0.515625,-0.5742188 1.277343,-0.8789063 0.767578,-0.3046875 1.669922,-0.3046875 0.9375,0 1.681641,0.3105469 0.75,0.3046875 1.271484,0.8730469 0.533203,0.5859375 0.814453,1.4355468 0.28711,0.8496094 0.28711,1.9277344 0,1.5996094 -0.65625,2.6953125 -0.650391,1.09570318 -1.751953,1.5351563 0.02344,0.66796875 0.316406,1.03710938 0.292969,0.36914052 1.066406,0.36914052 0.240234,0 0.568359,-0.076172 0.333985,-0.070312 0.47461,-0.1289063 H 34.59375 Z M 33.210937,-4.359375 q 0,-1.6992187 -0.761718,-2.6191406 -0.761719,-0.9257813 -2.080078,-0.9257813 -1.330079,0 -2.091797,0.9257813 -0.75586,0.9199219 -0.75586,2.6191406 0,1.7167969 0.773438,2.6308594 0.773437,0.9082031 2.074219,0.9082031 1.300781,0 2.068359,-0.9082031 0.773437,-0.9140625 0.773437,-2.6308594 z"
       id="path18" />
    <path
       d="m 42.597656,-2.4902344 q 0,0.5097657 -0.240234,1.0078125 -0.234375,0.4980469 -0.66211,0.84375003 -0.46875,0.37499999 -1.095703,0.5859375 -0.621093,0.21093749 -1.5,0.21093749 -0.943359,0 -1.699218,-0.17578125 -0.75,-0.17578124 -1.529297,-0.52148437 v -1.453125 h 0.08203 q 0.662109,0.5507813 1.529297,0.8496094 0.867187,0.2988281 1.628906,0.2988281 1.078125,0 1.675781,-0.4042969 0.603516,-0.4042968 0.603516,-1.078125 0,-0.5800781 -0.287109,-0.8554687 -0.28125,-0.2753907 -0.861329,-0.4277344 -0.439453,-0.1171875 -0.955078,-0.1933594 -0.509765,-0.076172 -1.083984,-0.1933594 -1.160156,-0.2460937 -1.722656,-0.8378906 -0.556641,-0.5976562 -0.556641,-1.5527343 0,-1.0957032 0.925781,-1.7929688 0.925782,-0.703125 2.34961,-0.703125 0.919922,0 1.6875,0.1757812 0.767578,0.1757813 1.359375,0.4335938 v 1.3710938 h -0.08203 q -0.498046,-0.421875 -1.3125,-0.6972657 -0.808593,-0.28125 -1.658203,-0.28125 -0.93164,0 -1.5,0.3867188 -0.5625,0.3867187 -0.5625,0.9960937 0,0.5449219 0.28125,0.8554688 0.28125,0.3105469 0.990235,0.4746094 0.375,0.082031 1.066406,0.1992187 0.691406,0.1171875 1.171875,0.2402344 0.972656,0.2578125 1.464844,0.7792968 0.492187,0.5214844 0.492186,1.4589844 z"
       id="path20" />
    <path
       d="m 52.230469,0 h -1.160157 v -7.5175781 l -2.425781,5.1152343 H 47.953125 L 45.544922,-7.5175781 V 0 h -1.083985 v -8.7246094 h 1.582032 l 2.326172,4.8574219 2.25,-4.8574219 h 1.611328 z"
       id="path22" />
  </g>
</svg>
