<?xml version="1.0" encoding="UTF-8"?>
<svg id="Layer_1" data-name="Layer 1" xmlns="http://www.w3.org/2000/svg" viewBox="0 0 382.6799927 134.2894287">
  <defs>
    <style>
      .cls-1, .cls-2, .cls-3, .cls-4, .cls-5 {
        stroke-width: 0px;
      }

      .cls-2 {
        fill: #bde2e4;
      }

      .cls-3 {
        fill: #e9ae72;
      }

      .cls-4 {
        fill: #003666;
      }

      .cls-5 {
        fill: #0396de;
      }
    </style>
  </defs>
  <g>
    <polygon class="cls-5" points="139.6370095 35.5513708 139.6370095 25.9710583 134.8044648 25.9710583 134.8044648 40.2991369 149.1325386 40.2991369 149.1325386 35.5513708 139.6370095 35.5513708"/>
    <polygon class="cls-4" points="158.7128544 16.3907451 134.8044648 16.3907451 134.8044648 23.5123942 139.5522358 23.5123942 139.5522358 21.1385111 153.9650963 21.1385111 153.9650963 35.5513708 151.5912108 35.5513708 151.5912108 40.2991369 158.7128544 40.2991369 158.7128544 16.3907451"/>
    <g>
      <path class="cls-4" d="m165.0714693,16.6450897h7.291217v17.5497779h10.4281311v6.0194891h-17.7193351v-23.569267h-.0000129Z"/>
      <path class="cls-4" d="m185.9277315,16.6450897h18.3128162v6.0194887h-11.0215992v2.967354h9.4107553v5.5955815h-9.4107553v8.9868428h-7.291217v-23.569267Z"/>
    </g>
    <path class="cls-5" d="m222.9772586,40.3839188h-13.2259242v-23.8236106h13.2259242v1.5260676h-11.5302936v8.9868426h10.8520387v1.5260677h-10.8520387v10.1737839h11.5302936v1.6108488Z"/>
    <path class="cls-5" d="m246.0378458,40.3839188h-1.6956306l-14.3280868-21.1106017h-.1695605c.1695605,2.543446.1695605,4.4086391.1695605,5.6803621v15.4302396h-1.5260702v-23.8236106h1.6956306l14.3280738,21.1106009h.0847867c-.0847867-1.9499746-.1695734-3.815169-.1695734-5.5955815v-15.5150195h1.6108439v23.8236106h.0000259Z"/>
    <path class="cls-5" d="m266.0462667,40.3839188h-13.2259242v-23.8236106h13.2259242v1.5260676h-11.5302936v8.9868426h10.8520258v1.5260677h-10.8520258v10.1737839h11.5302936v1.6108488Z"/>
    <path class="cls-5" d="m273.252697,30.0405712v10.3433476h-1.6956306v-23.8236106h5.7651339c2.9673536,0,5.1716787.5086892,6.6129492,1.6108491,1.4412964,1.1021599,2.1195383,2.7130091,2.1195383,4.9173292,0,1.6108488-.4239077,2.9673536-1.271723,4.0695137s-2.1195383,1.8651936-3.8999557,2.3738831l6.5281884,10.8520355h-2.0347516l-6.1890415-10.3433476h-5.9347073Zm0-1.4412851h4.5781976c2.0347516,0,3.6455955-.4239077,4.747771-1.3565048,1.1021496-.9325972,1.6956306-2.2043202,1.6956306-3.9847319s-.5086944-3.1369165-1.6108439-3.9847319-2.8825669-1.271723-5.4260129-1.271723h-3.9847424v10.5976916Z"/>
    <path class="cls-5" d="m300.8914818,28.1753784h8.7324875v10.5976916c-2.2891117.9325972-4.8325577,1.4412867-7.7151246,1.4412867-3.7303823,0-6.6129492-1.017379-8.56294-3.1369173-1.9499908-2.1195383-2.9673536-5.0021101-2.9673536-8.8172791,0-2.3738831.5086944-4.4934214,1.4412964-6.2738335,1.0173887-1.865194,2.3738726-3.2216982,4.2390766-4.2390766s3.9847424-1.5260675,6.3586149-1.5260675c2.543446,0,4.9173185.5086892,6.952096,1.4412861l-.6782419,1.4412861c-2.0347516-.932597-4.1542899-1.4412861-6.3586149-1.4412861-3.1369271,0-5.5955863.9325968-7.3760037,2.8825722-1.7804174,1.9499754-2.7130194,4.4934218-2.7130194,7.6303375,0,3.4760432.8478153,6.1042694,2.6282327,7.8846835,1.6956306,1.7804125,4.2390766,2.6282278,7.6303379,2.6282278,2.204325,0,3.9847424-.3391258,5.5107996-.9325972v-8.2238085h-7.0368568v-1.3565057h-.0847867Z"/>
    <path class="cls-5" d="m321.069502,29.5318825l7.0368568-12.9715746h1.7804174l-7.9694589,14.4976424v9.1564049h-1.6956306v-8.9868412l-8.0542456-14.6672045h1.9499649l6.952096,12.971573Z"/>
  </g>
  <g>
    <polygon class="cls-1" points="134.458313 67.0651245 150.2688599 67.0651245 150.2688599 124.5407104 160.8709106 124.5407104 160.8709106 67.0651245 176.4021606 67.0651245 176.4021606 58.1369019 134.458313 58.1369019 134.458313 67.0651245"/>
    <path class="cls-1" d="m222.4387817,118.7741089c-.1855469-3.9990234-.2792969-9.2070312-.3720703-13.4853516-.3720703-9.2998047-3.8125-12.9267578-10.4160156-13.578125v-.1855469c7.2539062-1.1162109,11.0673828-7.7197266,11.0673828-16.2753906,0-12.4624023-7.5332031-17.112793-16.8339844-17.112793h-23.4360352v66.4038086h10.6020508v-28.8310547h8.6494141c7.2539062,0,9.4863281,3.1621094,9.671875,10.4169922.1865234,4.8359375.0927734,8.5556641.4648438,12.5546875.2792969,2.6044922.7441406,4.6503906,1.7675781,5.859375h11.9970703c-1.3945312-.9296875-2.9755859-2.5107422-3.1621094-5.7666016Zm-20.9257812-31.0625h-8.4628906v-21.5761719h9.0214844c6.9746094,0,10.0439453,3.7197266,10.0439453,10.7880859,0,6.6962891-3.8134766,10.7880859-10.6025391,10.7880859Z"/>
    <path class="cls-1" d="m252.7571411,56.835144c-15.2519531,0-21.9482422,10.7880859-21.9482422,34.503418,0,23.7158203,6.6962891,34.5039062,21.9482422,34.5039062,15.2529297,0,21.9482422-10.7880859,21.9482422-34.5039062,0-23.715332-6.6953125-34.503418-21.9482422-34.503418Zm0,61.0092773c-6.3242188,0-11.3457031-3.90625-11.3457031-26.7841797,0-22.3208008,5.0214844-26.2270508,11.3457031-26.2270508s11.3466797,3.90625,11.3466797,26.2270508c0,22.8779297-5.0224609,26.7841797-11.3466797,26.7841797Z"/>
    <polygon class="cls-1" points="293.4934692 58.1369019 282.8909302 58.1369019 282.8909302 124.5407104 319.161438 124.5407104 319.161438 115.6129761 293.4934692 115.6129761 293.4934692 58.1369019"/>
    <rect class="cls-1" x="324.927063" y="58.1369019" width="10.6015625" height="66.4038086"/>
    <polygon class="cls-1" points="356.6399536 115.6129761 356.6399536 94.4078979 380.4485474 94.4078979 380.4485474 85.4801636 356.6399536 85.4801636 356.6399536 67.0651245 381.9358521 67.0651245 381.9358521 58.1369019 346.0374146 58.1369019 346.0374146 124.5407104 382.6799927 124.5407104 382.6799927 115.6129761 356.6399536 115.6129761"/>
  </g>
  <g>
    <path class="cls-2" d="m74.446106,82.1032104l5.7070312,9.8865967c.4221802-.2837524.8339844-.5814819,1.2453613-.8796387l-5.1989746-9.006958h-1.753418Z"/>
    <path class="cls-2" d="m39.2009888,82.1032104l-6.0748901,10.5239258c.4274292.2706299.8594971.5341187,1.296936.789978l6.5308838-11.3139038h-1.7529297Z"/>
    <path class="cls-2" d="m48.1477661,71.8258667c0,.300293.2441406.5444336.5444336.5444336h16.6762695c.2998047,0,.5439453-.2441406.5439453-.5444336,0-.2998047-.2441406-.5439453-.5439453-.5439453h-16.6762695c-.300293,0-.5444336.2441406-.5444336.5439453Z"/>
    <path class="cls-2" d="m48.6921997,74.9049683h16.6762695c.2998047,0,.5439453-.2441406.5439453-.5439453,0-.300293-.2441406-.5444336-.5439453-.5444336h-16.6762695c-.300293,0-.5444336.2441406-.5444336.5444336,0,.2998047.2441406.5439453.5444336.5439453Z"/>
    <path class="cls-2" d="m38.1594849,91.5934448l-1.6981812,2.9415283c.0500488.0257568.1002197.0514526.1503906.0770264h39.0616455c.8534546-.4348145,1.6930542-.8922729,2.5125122-1.3811035l-.9453125-1.6374512h-39.0810547Z"/>
    <path class="cls-2" d="m50.291626,98.8892822h11.7017822c2.8436279-.3862305,5.5976562-1.0490723,8.2368164-1.961853h-28.175415c2.6391602.9127808,5.3931885,1.5756226,8.2368164,1.961853Z"/>
    <polygon class="cls-2" points="39.5066528 89.2692261 75.9021606 89.2692261 74.1594849 86.2506714 41.2488403 86.2506714 39.5066528 89.2692261"/>
    <path class="cls-2" d="m76.1193848,18.0126343l-6.6259155,5.5529785c-.199707.1904297-.4814453.3027344-.7788086.3027344-.3193359,0-.6201172-.1308594-.8466797-.3686523-.4331055-.46875-.4077148-1.2036133.0537109-1.6411133l5.9137573-4.9561157c-4.7954712-2.1627197-10.0523071-3.4821777-15.588501-3.7484131l.0458374,6.3446655c.0043945.2929688-.1035156.5756836-.3037109.7944336-.2163086.2353516-.5161133.3681641-.8447266.375h-.0048828c-.6352539,0-1.1567383-.5141602-1.1679688-1.1489258l-.0460205-6.4129028c-5.5117798.0273438-10.774353,1.0959473-15.6124878,3.0083618l6.2376099,5.7404785c.4648438.440918.4902344,1.1757812.0605469,1.6411133-.2299805.2412109-.5307617.3720703-.8500977.3720703-.2973633,0-.5791016-.1123047-.793457-.3154297l-6.9928589-6.435791c-14.7206421,6.8552246-24.9294434,21.7720337-24.9294434,39.0809937,0,14.5007935,7.1691284,27.3189697,18.1483154,35.1304321l5.3306274-9.2341309h-3.3476562c-1.4599609,0-2.6474609-1.1875-2.6474609-2.6474609v-40.734375c0-5.1489258,4.1894531-9.3383789,9.3383789-9.3383789h8.2412109c.2758789-2.4536133,2.3413086-4.3354492,4.824707-4.3354492h7.9116211c2.4829102,0,4.5483398,1.8818359,4.8242188,4.3354492h8.2504883c5.1445312,0,9.3300781,4.1894531,9.3300781,9.3383789v40.7431641c0,1.4599609-1.1875,2.6474609-2.6474609,2.6474609h-1.7094727l4.3789673,7.5744019c9.7390747-7.9016113,15.9678955-19.9609375,15.9678955-33.4794922,0-16.590332-9.3797607-30.9819946-23.1203613-38.1854858Z"/>
    <polygon class="cls-2" points="42.5872192 83.9264526 72.8128052 83.9264526 71.7615356 82.1032104 43.6384888 82.1032104 42.5872192 83.9264526"/>
    <path class="cls-2" d="m60.8362427,27.3722534h-7.9111328c-1.2045898,0-2.2407227.859375-2.4926758,2.0102539h12.8964844c-.2514648-1.1508789-1.2875977-2.0102539-2.4926758-2.0102539Z"/>
  </g>
  <g>
    <polygon class="cls-3" points="80.4621582 118.1744995 80.4621582 115.4024048 33.3389282 115.4024048 33.3389282 118.1744995 68.6404419 118.1744995 68.6404419 121.2643433 33.3389282 121.2643433 33.3389282 129.963562 80.4621582 129.963562 80.4621582 121.2643433 73.3914185 121.2643433 73.3914185 118.1744995 80.4621582 118.1744995"/>
    <path class="cls-3" d="m71.6668091,75.1867065c1.15625,0,2.097168-.940918,2.097168-2.0976562s-.940918-2.0976562-2.097168-2.0976562c-1.1567383,0-2.0976562.940918-2.0976562,2.0976562s.940918,2.0976562,2.0976562,2.0976562Z"/>
    <circle class="cls-3" cx="42.1033325" cy="73.0978394" r="2.0976562"/>
  </g>
  <g>
    <path class="cls-1" d="m113.8010864,56.9005127C113.8010864,25.5254517,88.2755737,0,56.9005127,0S0,25.5254517,0,56.9005127c0,20.7515259,11.0476074,39.5184326,29.0130005,49.6068726v3.4200439h-4.1342773v3.0898438h4.1342773v5.1572266h-4.1342773v3.0898438h4.1342773v13.0250854h55.7750854v-13.0250854h3.4851685v-3.0898438h-3.4851685v-5.1572266h3.6380005v-3.0898438h-3.6380005v-3.4200439c17.965332-10.0884399,29.0130005-28.8553467,29.0130005-49.6068726ZM26.8289185,98.8892822h-1.5567627c-12.7194214-9.5951538-20.946228-24.8283081-20.946228-41.9887695C4.3259277,27.8643799,27.8643188,4.3259277,56.9005127,4.3259277s52.574646,23.5384521,52.574646,52.574585c0,17.1390381-8.2064819,32.3552856-20.8988037,41.9524536l-5.3045044-9.175354-4.3789673-7.5744019h1.7094727c1.4599609,0,2.6474609-1.1875,2.6474609-2.6474609v-40.7431641c0-5.1489258-4.1855469-9.3383789-9.3300781-9.3383789h-8.2504883c-.2758789-2.4536133-2.3413086-4.3354492-4.8242188-4.3354492h-7.9116211c-2.4833984,0-4.5488281,1.8818359-4.824707,4.3354492h-8.2412109c-5.1489258,0-9.3383789,4.1894531-9.3383789,9.3383789v40.734375c0,1.4599609,1.1875,2.6474609,2.6474609,2.6474609h3.3476562l-5.3306274,9.2341309-4.3646851,7.56073Zm52.1542969-4.2772827h-42.5664062l.0444946-.0770264,1.6981812-2.9415283h39.0810547l.9453125,1.6374512.7973633,1.3811035Zm-39.4765625-5.3427734l1.7421875-3.0185547h32.9106445l1.7426758,3.0185547h-36.3955078Zm30.0625-16.1801758c0-1.1567383.940918-2.0976562,2.0976562-2.0976562,1.15625,0,2.097168.940918,2.097168,2.0976562s-.940918,2.0976562-2.097168,2.0976562c-1.1567383,0-2.0976562-.940918-2.0976562-2.0976562Zm-4.2006836-1.8071289c.2998047,0,.5439453.2441406.5439453.5439453,0,.300293-.2441406.5444336-.5439453.5444336h-16.6762695c-.300293,0-.5444336-.2441406-.5444336-.5444336,0-.2998047.2441406-.5439453.5444336-.5439453h16.6762695Zm.5439453,3.0791016c0,.2998047-.2441406.5439453-.5439453.5439453h-16.6762695c-.300293,0-.5444336-.2441406-.5444336-.5439453,0-.300293.2441406-.5444336.5444336-.5444336h16.6762695c.2998047,0,.5439453.2441406.5439453.5444336Zm-11.7856445-9.3730469h-11.6650391c-1.7495117,0-3.1728516-1.4233398-3.1728516-3.1728516v-19.9194336c0-1.7495117,1.4233398-3.1728516,3.1728516-3.1728516h11.6650391v26.2651367Zm-12.0234375,6.012207c1.1567383,0,2.0976562.940918,2.0976562,2.0976562s-.940918,2.0976562-2.0976562,2.0976562-2.0976562-.940918-2.0976562-2.0976562.940918-2.0976562,2.0976562-2.0976562Zm1.5351562,11.1030273h28.1230469l1.0512695,1.8232422h-30.2255859l1.0512695-1.8232422Zm27.6782227-17.1323242h-11.6645508v-26.2563477h11.6645508c1.7495117,0,3.1728516,1.4233398,3.1728516,3.1728516v19.9106445c0,1.7495117-1.4233398,3.1728516-3.1728516,3.1728516Zm-20.8842773-35.5883789c.2519531-1.1508789,1.2880859-2.0102539,2.4926758-2.0102539h7.9111328c1.2050781,0,2.2412109.859375,2.4926758,2.0102539h-12.8964844Zm-18.9106445,69.0605469h-1.7529297l3.3572388-5.815918,6.0748901-10.5239258h1.7529297l-6.5308838,11.3139038-2.9012451,5.0259399Zm48.9403687,16.9593506v2.7720947h-7.0707397v3.0898438h7.0707397v8.6992188h-47.12323v-8.6992188h35.3015137v-3.0898438h-35.3015137v-5.1572266h47.12323v2.3851318Zm0-5.4749756h-47.12323v-5.4263306h47.12323v5.4263306Zm-18.46875-11.038147h-28.0366211l1.1309204-1.961853h45.2504883l1.1305542,1.961853h-19.4753418Zm21.8848267-.446228l-3.7250977-6.4532471-5.7070312-9.8865967h1.753418l5.1989746,9.006958,4.232666,7.3328857h-1.7529297Z"/>
    <path class="cls-1" d="m41.0857544,55.2687378c.2265625.2382812.5273438.3696289.847168.3696289.2963867,0,.5776367-.1118164.7910156-.3139648l9.355957-8.7578125c.4614258-.4384766.4863281-1.1728516.0537109-1.640625-.4370117-.4599609-1.1713867-.4863281-1.6386719-.0551758l-9.3554688,8.7578125c-.4609375.4379883-.4863281,1.1723633-.0537109,1.6401367Z"/>
    <path class="cls-1" d="m50.4949341,49.0524292l-9.3554688,8.7578125c-.4614258.4384766-.4863281,1.1728516-.0537109,1.640625.2265625.237793.5273438.3691406.847168.3691406.296875,0,.5786133-.1123047.7910156-.3139648l9.355957-8.7578125c.4609375-.4379883.4863281-1.1723633.0537109-1.6401367-.4379883-.4599609-1.1723633-.4863281-1.6386719-.0556641Z"/>
    <path class="cls-1" d="m70.9529419,44.8693237l-9.3564453,8.7592773c-.4609375.4379883-.4863281,1.1723633-.0537109,1.6401367.2265625.2382812.5273438.3696289.8466797.3696289.2963867,0,.578125-.1118164.7915039-.3139648l9.3554688-8.7578125c.4614258-.4379883.4873047-1.1728516.0541992-1.640625-.4384766-.4604492-1.1713867-.4873047-1.6376953-.0566406Z"/>
    <path class="cls-1" d="m70.9534302,49.0509644l-9.3569336,8.7592773c-.4614258.4384766-.4863281,1.1728516-.0537109,1.640625.2265625.237793.5273438.3691406.8466797.3691406.2973633,0,.5791016-.1123047.7915039-.3139648l9.3554688-8.7578125c.4614258-.4379883.4873047-1.1723633.0541992-1.6401367-.4384766-.4619141-1.1733398-.4853516-1.637207-.0571289Z"/>
    <path class="cls-1" d="m68.7146606,23.8683472c.2973633,0,.5791016-.1123047.7788086-.3027344l6.6259155-5.5529785.8882446-.7443848c.4609375-.4379883.4863281-1.1723633.0537109-1.6401367-.4345703-.4589844-1.1655273-.4853516-1.6313477-.0620117l-1.5945435,1.3363647-5.9137573,4.9561157c-.4614258.4375-.4868164,1.1723633-.0537109,1.6411133.2265625.237793.5273438.3686523.8466797.3686523Z"/>
    <path class="cls-1" d="m37.9747314,17.1171265l6.9928589,6.435791c.2143555.203125.4960938.3154297.793457.3154297.3193359,0,.6201172-.1308594.8500977-.3720703.4296875-.465332.4042969-1.2001953-.0605469-1.6411133l-6.2376099-5.7404785-1.2619019-1.161377c-.4643555-.4287109-1.1982422-.4042969-1.6401367.0600586-.4291992.4648438-.4033203,1.1992188.0605469,1.640625l.5032349.4631348Z"/>
    <path class="cls-1" d="m55.9714966,19.5192261c.0112305.6347656.5327148,1.1489258,1.1679688,1.1489258h.0048828c.3286133-.0068359.628418-.1396484.8447266-.375.2001953-.21875.3081055-.5014648.3037109-.7944336l-.0458374-6.3446655-.0288696-3.9995728c-.0112305-.6342773-.5332031-1.1489258-1.168457-1.1489258h-.0039062c-.6357422.0112305-1.1508789.5351562-1.1484375,1.168457l.0281982,3.932312.0460205,6.4129028Z"/>
  </g>
</svg>