<svg xmlns="http://www.w3.org/2000/svg" role="img" viewBox="-8.91 -9.91 515.32 200.82"><style>svg {enable-background:new 0 0 500 140}</style><path d="M145.7 28.5l-1-2.1h17.2c13.2 0 22.2 7.1 22.2 20.9 0 13.7-9 21-22.2 21h-16.2V28.5zm10.4 6.4v25h5.9c7.1 0 11.6-4.1 11.6-12.6s-4.5-12.4-11.6-12.4h-5.9zm57.2 24.9h-15.8l-2.9 8.6H184L199.3 28l-.7-1.5h12.6L227 68.3h-10.7l-3-8.5zm-2.7-8l-5.1-14.9-5.2 14.9h10.3zm20.6-23.3l-1-2.1h11.4v33.4h19.6v8.4h-30V28.5zm35.4 0l-1-2.1H277V43h17V28.5l-1-2.1h11.4v41.9H294V51.4h-17v16.9h-10.3V28.5zm65.6-2.7c11.9 0 21.7 8.3 21.7 21.5s-9.8 21.6-21.7 21.6c-11.8 0-21.7-8.4-21.7-21.6 0-13.2 9.8-21.5 21.7-21.5zm0 34.3c6.8 0 11.1-5.5 11.1-12.7 0-7.3-4.3-12.7-11.1-12.7S321 40.1 321 47.3c0 7.3 4.4 12.8 11.2 12.8zm55-31.6l-1.1-2.1h11.4V51c0 11.5-7.3 18-18.8 18S360 62.5 360 51V28.5l-1.1-2.1h11.4v24.8c0 5.5 3.1 8.9 8.4 8.9s8.5-3.4 8.5-8.9V28.5zm17.3 28.9c5.3 2.1 11.1 3.2 15.4 3.2 4.4 0 7.2-1.5 7.2-4.2 0-2.8-3.2-4-8.4-4.9-8.3-1.3-14.8-4.7-14.8-12.6 0-8.5 7.9-13 17.7-13 5.1 0 9.7.8 14.5 2.4v9c-5.2-1.9-10.2-3-14.4-3-4.3 0-7.3 1.5-7.3 4.2 0 2.8 3.2 3.9 8.5 4.7 8.3 1.3 14.7 4.8 14.7 12.7 0 8.5-7.4 13-17.4 13-5.5 0-10.9-1-15.7-2.6v-8.9zm40.6-28.8l-1.1-2.1h11.4v41.9h-10.3V28.6zm19.3 0l-1.1-2.1h32.4v8.4h-21v8.4h17.9v8h-17.9v8.6h21v8.4h-31.3V28.6zM170.5 100c0 2.6-.4 4.8-1.3 6.6-.9 1.8-2.2 3.2-4 4.1-1.8.9-4.2 1.4-7.1 1.4-2.9 0-5.3-.5-7.1-1.4-1.8-1-3.1-2.4-4-4.3-.8-1.9-1.2-4.2-1.2-6.9V77.9h4.5v22.3c0 2.7.7 4.8 2 6.1 1.4 1.4 3.3 2 5.8 2 1.7 0 3.1-.3 4.3-.9 1.2-.6 2.1-1.5 2.7-2.7.6-1.2.9-2.7.9-4.6V77.9h4.3V100zm39.3-22.1h4.3v33.8h-3.9L192.1 85v26.6h-4.3V77.9h4.1l17.8 26.3V77.9zm23.4 0h4.3v33.8h-4.3V77.9zm48.1 0l-12 33.8h-5.2l-11.8-33.8h4.3l10.1 28.9L277 77.9h4.3zm12.9 33.8V77.9h21.3v3.8h-16.9v11h15.3v3.8h-15.3v11.3H316v3.9h-21.8zm62.4 0H352l-6.2-14.6h-9.1v14.6h-4.3V77.9h13.1c2.4 0 4.5.4 6.1 1.1 1.6.7 2.9 1.8 3.7 3.2.8 1.4 1.2 3 1.2 4.9 0 1.8-.3 3.4-1 4.6-.6 1.2-1.5 2.2-2.5 2.9-1 .7-2 1.3-3.1 1.7l6.7 15.4zm-12.5-18.2c2.5 0 4.5-.5 5.9-1.6 1.4-1 2.1-2.6 2.1-4.6 0-2-.6-3.5-1.9-4.5-1.2-1-2.9-1.5-5.1-1.5h-8.4v12.1h7.4zm40.6 18.6c-1.6 0-3.1-.2-4.6-.6-1.5-.4-2.9-1-4.1-1.8-1.2-.8-2.2-1.8-3-3-.8-1.2-1.3-2.5-1.5-4.1h4.5c.3 1.3.8 2.4 1.7 3.2.8.9 1.9 1.5 3.1 2 1.2.4 2.5.7 3.9.7 1.6 0 3-.2 4.3-.7 1.3-.4 2.2-1.1 3-1.9.7-.8 1.1-1.8 1.1-3 0-1-.2-1.9-.7-2.6-.5-.7-1.1-1.4-2-1.9-.9-.5-1.9-.9-3.2-1.2l-6.6-1.5c-2.5-.5-4.4-1.5-5.9-2.9-1.4-1.4-2.1-3.3-2.2-5.6 0-1.9.5-3.7 1.6-5.1 1-1.5 2.5-2.6 4.3-3.5 1.8-.8 3.9-1.2 6.2-1.2 2.7 0 5 .5 6.8 1.4 1.8.9 3.2 2.1 4.2 3.6.9 1.5 1.4 3.1 1.4 4.8h-4.5c-.1-1.5-.6-2.7-1.3-3.6-.8-.9-1.7-1.5-2.8-1.9-1.1-.4-2.4-.6-3.7-.6-1 0-1.9.1-2.8.4-.9.2-1.7.6-2.4 1.1-.7.5-1.3 1.1-1.7 1.8-.4.7-.6 1.5-.6 2.5 0 1.2.4 2.2 1.2 3 .8.8 2.3 1.4 4.5 2l6.4 1.5c1.7.4 3.1.9 4.1 1.6 1.1.7 1.9 1.5 2.5 2.4.6.9 1 1.8 1.2 2.8.2 1 .3 1.9.3 2.9 0 1.7-.5 3.2-1.5 4.6-1 1.4-2.5 2.5-4.4 3.3-1.8.7-4.1 1.1-6.8 1.1zM414 77.9h4.3v33.8H414V77.9zm19.1 4v-4h25.6v4h-10.3v29.8H444V81.9h-10.9zm63.7-4l-11.4 19.4v14.4h-4.3V97.3l-11.5-19.4h4.7l9 15.5 8.8-15.5h4.7z" fill="#242424"/><g fill="#242424"><path d="M104.9 34c-.1 0-6.1 1.9-13.7-.1-.7-.2-1.2-.8-1.1-1.5v-.1c.1-.9.9-1.5 1.8-1.4 1.6.3 3.1.5 4.6.6 1.8.1 3.4.1 4.9-.1 3.9-.3 6.3-4.3 4.9-8-.1 0-8.3 3.2-17.9-.7-2.2-.9-8.6-3.7-8.6-3.7-1.4-.6-3 .2-3.2 1.7v12.5c0 2.1-.5 3.9-1.3 5.5-.3.6-.7 1.2-1.1 1.8-.2.3-.4.5-.7.8-1.9 2.1-4.6 3.5-7.7 4.2l-1.7 2.9c-.2.3-.4.5-.7.6-.3.1-.6.2-.9.2-.4 0-.9-.1-1.2-.5-.1-.1-.2-.2-.3-.4l-1.7-2.9c-4.2-1-7.7-3.3-9.5-6.8-.8-1.6-1.3-3.4-1.3-5.5v-12-.3c-.2-1.5-1.9-2.3-3.2-1.7 0 0-6.5 2.8-8.6 3.7-9.6 3.9-17.8.7-17.9.7-1.4 3.6 1 7.6 4.9 8 1.5.1 3.1.2 4.9.1 1.4-.1 3-.3 4.6-.6.9-.2 1.7.5 1.8 1.4v.1c0 .7-.4 1.4-1.1 1.5-7.6 2-13.6.1-13.7.1-1.2 3.7 1.4 7.6 5.3 7.7 1.5.1 3.1 0 4.9-.2 1.4-.1 2.8-.4 4.3-.7.8-.2 1.6.3 1.8 1.1.2.8-.3 1.5-1 1.8-7 2.2-12.6 1-12.7 1-.9 3.8 2.1 7.4 5.9 7.2 1.5-.1 3.1-.3 4.8-.6 1.2-.2 2.5-.6 3.9-1 .8-.2 1.6.2 1.8.9 0 .1 0 .1.1.2.3.7-.1 1.5-.8 1.9-5.8 2.8-10.7 2.8-10.7 2.8 0 3.8 3.7 6.8 7.4 5.8 1.4-.4 3-.9 4.6-1.6.6-.3 1.2-.5 1.9-.9.7-.3 1.5-.1 1.9.5l.1.1c.5.7.3 1.6-.4 2.1-4.2 2.8-7.9 3.6-7.9 3.6.7 3.8 4.9 5.9 8.4 4.1 1.3-.7 2.7-1.5 4.2-2.5 0 0 .1 0 .1-.1.6-.4 1.4-.4 1.9.2l.2.2c.5.5.6 1.4.1 2-2.8 3.4-5.4 5-5.5 5 2 3.4 6.6 3.9 9.3 1.1.4-.5.9-1 1.4-1.5 1.2 2.1 2.1 4.7 2.7 8.2l.3 2.1c-6.1 6.6-13.4 8-13.5 8 .7 3.8 4.8 6 8.3 4.3 1.3-.6 2.7-1.5 4.2-2.4.6-.4 1.1-.8 1.7-1.2l.2 3.9c-3.8 3-7.2 4.1-7.3 4.1l.4 1.4c.9 2.9 4.2 4.3 6.9 2.8.1-.1.2-.1.4-.2v5.6c0 1 .5 1.9 1.3 2.7l1.5 1.4 1.5-1.4c.8-.8 1.3-1.7 1.3-2.7v-5.6c.1.1.2.2.4.2 2.6 1.5 6 .1 6.9-2.8l.4-1.4c-.1 0-3.4-1.1-7.3-4.1l.2-3.9c.6.4 1.1.9 1.7 1.2 1.5 1 2.9 1.8 4.2 2.4 3.5 1.7 7.6-.5 8.3-4.3-.1 0-7.3-1.4-13.5-8l.3-2.1c.5-3.4 1.5-6 2.7-8.2.5.5.9 1.1 1.4 1.5 2.7 2.8 7.3 2.3 9.3-1.1 0 0-2.7-1.6-5.5-5-.5-.6-.5-1.5.1-2l.2-.2c.5-.5 1.3-.6 1.9-.2 0 0 .1 0 .1.1 1.4 1 2.9 1.9 4.2 2.5 3.5 1.8 7.7-.3 8.4-4.1-.1 0-3.7-.8-7.9-3.6-.7-.5-.9-1.4-.4-2.1l.1-.1c.4-.6 1.2-.8 1.9-.5.6.3 1.3.6 1.9.9 1.6.7 3.2 1.2 4.6 1.6 3.8 1 7.4-2 7.3-5.8-.1 0-5 0-10.7-2.8-.7-.3-1-1.1-.8-1.9 0-.1 0-.1.1-.2.3-.7 1.1-1.1 1.8-.9 1.3.4 2.6.7 3.9 1 1.7.3 3.4.5 4.8.6 3.9.2 6.8-3.4 5.9-7.2-.1 0-5.7 1.2-12.7-1-.7-.2-1.2-1-1-1.8.2-.8 1-1.3 1.8-1.1 1.5.3 3 .6 4.3.7 1.8.2 3.4.2 4.9.2 3.9-.2 6.6-4.1 5.3-7.8z"/><path d="M71.5 20H61c-1.4 0-2.6.9-3.1 2.2h-2c-2.3 0-4.2 1.9-4.2 4.2v4.9c.5-1.1 1.6-1.9 2.9-1.9h3.7L56 38.8c-.2.6.2 1.1.7 1.1 1.8 0 2.5-.3 3.9-1.6l1.5 4.2c.1.2.2.3.4.3s.3-.1.4-.3l1.5-4.2c1.3 1.3 2.1 1.6 3.9 1.6.6 0 .9-.6.7-1.1l-1.2-9.4h.2c2.3 0 4.2-1.9 4.2-4.2v-.1c.9-.6 1.5-1.6 1.5-2.7v-3.8c-.3.8-1.2 1.4-2.2 1.4zm-9 4.7c-.3.2-.7.1-1-.1l-.6-.6c-.3-.3-.3-.8 0-1.2l.6-.6c.3-.3.7-.3 1-.1l2.3 1.3-2.3 1.3z"/></g><path fill="#ffd400" d="M117.1 49.3c0 38-44.7 74.4-54.7 82-10-7.6-54.7-43.9-54.7-82V7.1H117v42.2zM1 .3v48.9c0 19.5 10.1 40.4 29.9 62.2 14.6 16 29 26.3 29.6 26.8l2 1.4 2-1.4c.6-.4 15-10.7 29.6-26.8C113.9 89.6 124 68.7 124 49.2V.3H1z"/><path d="M49.21739 157.11212h-4.62037v10.39246c0 1.97051.25194 3.46415.74681 4.4764.88629 1.83555 2.60487 2.75333 5.15574 2.75333.88629 0 1.6556-.11697 2.31694-.35092.65684-.22944 1.34067-.66133 2.047-1.29568.23394-.20245.4319-.4319.60285-.69733.16646-.26093.27443-.4229.31492-.47238v2.4339h4.38193v-17.23978h-4.57088v9.3802c0 1.10673-.14847 1.99751-.4454 2.67235-.56685 1.2462-1.6241 1.86704-3.16272 1.86704-1.2012 0-2.0065-.43639-2.4204-1.31368-.22945-.49487-.34642-1.2327-.34642-2.21345zm3.16272-.4589zm26.05763 1.44865c-1.13372-.93577-2.59136-1.39915-4.37293-1.39915-1.42165 0-2.60036.34641-3.52714 1.04374-.51737.3869-1.06623 1.02575-1.6466 1.91203v-2.51488h-4.34593v17.2083h4.4899v-9.33073c0-1.06624.14847-1.93902.4454-2.62735.56685-1.29569 1.6151-1.94353 3.14472-1.94353 1.2462 0 2.0875.4409 2.53288 1.32718.24295.48588.36442 1.1832.36442 2.08749v10.48693h4.61587v-11.60716c0-2.16397-.56686-3.7116-1.70059-4.64287zm-6.03302-1.44864zm16.52896-1.59711v-4.16148h-4.57089v4.16148zm-4.57089 2.056v17.23978h4.57089v-17.23978zm19.56572 0l-3.6711 12.71839-3.59012-12.7184h-5.06127l6.186 17.2398h4.75983l6.21298-17.2398zm11.75563 4.23796c.57586-.65234 1.38566-.98076 2.4294-.98076.95827 0 1.76357.31042 2.41141.92677s1.01225 1.52063 1.08424 2.71284h-7.00479c.14396-1.12023.50838-2.00201 1.07974-2.65885zm6.30295-3.89155c-1.14721-.53537-2.4384-.8053-3.87355-.8053-2.4159 0-4.37743.7963-5.88906 2.38891-1.51613 1.59262-2.27194 3.88256-2.27194 6.86533 0 3.18522.8368 5.48416 2.51488 6.89681 1.6781 1.41265 3.61262 2.11898 5.80358 2.11898 2.65885 0 4.72385-.8413 6.19949-2.51488.94927-1.05724 1.48463-2.0965 1.5971-3.11774h-4.60237c-.24294.50837-.52187.90428-.8368 1.1877-.58035.52638-1.33167.79182-2.26294.79182-.87279 0-1.6241-.21595-2.24495-.65235-1.02125-.69283-1.56562-1.90753-1.6286-3.6351h11.80061c.018-1.48914-.027-2.62736-.14396-3.41917-.20245-1.34967-.63885-2.53288-1.31368-3.55863-.74682-1.15622-1.69609-2.00651-2.8478-2.54638zm-3.55863-.8053zm20.4745.05399c-.05849-.0045-.12597-.0045-.21145-.0045-1.34967 0-2.4474.35091-3.2887 1.05724-.51737.4229-1.12472 1.2102-1.82205 2.35742v-3.00526h-4.30095v17.23978h4.5394v-8.23748c0-1.38567.17545-2.40692.52186-3.07275.62085-1.17871 1.84005-1.76807 3.65311-1.76807.13947 0 .31942.0045.53987.0135.22045.0135.47238.03149.76031.06298v-4.61587c-.20245-.0135-.33292-.018-.3914-.027zm6.5414 12.14253h-4.57088c0 1.76806.64784 3.2257 1.93902 4.37293 1.29119 1.14272 3.2932 1.71408 6.00154 1.71408 2.65885 0 4.62037-.53987 5.88906-1.6196 1.27318-1.07974 1.90753-2.4744 1.90753-4.18398 0-1.29569-.4409-2.37992-1.32718-3.2437-.89528-.8548-2.24045-1.48915-4.03551-1.91204-2.68584-.58936-4.25146-1.00776-4.69685-1.2507-.4409-.22944-.66134-.60735-.66134-1.12022 0-.4139.20695-.77381.62085-1.07974.4184-.30142 1.11573-.45439 2.09649-.45439 1.1922 0 2.038.30143 2.53288.91328.26093.33742.4274.7963.49038 1.37666h4.5079c-.20246-2.10548-.98077-3.59012-2.33493-4.4494-1.35417-.8593-3.10874-1.2912-5.25922-1.2912-2.26744 0-4.02651.57137-5.2727 1.71859-1.2507 1.14272-1.87605 2.51038-1.87605 4.103 0 1.34966.4004 2.38441 1.2012 3.09974.80081.72882 2.17747 1.33167 4.13 1.81755 2.70833.64334 4.27395 1.09773 4.69685 1.36317.4229.26093.63434.64784.63434 1.15172 0 .52637-.26093.92227-.7828 1.1877-.52188.26094-1.2282.3959-2.11449.3959-1.50713 0-2.54188-.30142-3.09974-.90427-.31492-.33742-.52187-.90428-.61635-1.70508zm3.44616-12.19652zm20.56447 9.31722v1.6781c-.0315 1.50712-.45889 2.54637-1.27319 3.11323-.8188.57136-1.70958.85479-2.68134.85479-.61185 0-1.12923-.17096-1.55662-.51287-.4274-.34192-.64335-.89978-.64335-1.6691 0-.86378.35092-1.50263 1.04375-1.91653.4139-.24294 1.09323-.44539 2.0425-.61635l1.01225-.18895c.50388-.09448.90428-.19795 1.19221-.30593.29243-.11247.58036-.25643.86379-.43639zm-2.73533-2.10548l-1.53413.18895c-1.74107.22494-3.05925.59385-3.95453 1.11123-1.6376.94927-2.4519 2.4834-2.4519 4.60237 0 1.6331.50837 2.8973 1.52513 3.78808 1.01675.89078 2.30793 1.33617 3.86905 1.33617 1.2192 0 2.31693-.27893 3.2887-.8413.8098-.47238 1.52962-1.04824 2.15047-1.72307.0315.3914.07198.73782.12597 1.04374.05399.30593.14846.63435.28343.98076h4.9038v-.66584c-.29243-.13496-.51737-.31042-.66134-.52187-.14846-.20695-.23844-.60735-.26993-1.2012-.0225-.77831-.0315-1.44415-.0315-1.99302v-7.90456c0-2.0785-.73331-3.49115-2.19996-4.24247-1.46664-.74681-3.14023-1.12022-5.02977-1.12022-2.89729 0-4.94429.75581-6.1365 2.27644-.74681.97176-1.1697 2.20896-1.26419 3.7161h4.35044c.10347-.66585.31492-1.19222.62985-1.57912.44539-.53087 1.1967-.7918 2.26294-.7918.94927 0 1.6691.13496 2.15947.4004.49038.26993.73333.7603.73333 1.46663 0 .58036-.31943 1.00326-.96277 1.2777-.35991.16195-.95377.29242-1.78606.3959zm.23394-7.21174zm15.61118 17.69867v-23.3133h-4.5079v23.3133zm3.03676-11.16627v4.26946h9.07878v-4.26946zm26.78645-3.99952c-1.28219-1.6376-3.05475-2.4519-5.3222-2.4519-1.25519 0-2.28994.26094-3.09974.7918-.68383.4184-1.31368 1.03025-1.88054 1.83106v-8.28698h-4.4944v23.28181h4.41342v-2.16397c.60285.8413 1.16072 1.43065 1.67809 1.76807.86379.57136 2.0065.85479 3.43266.85479 2.26295 0 4.03102-.88178 5.2952-2.64085 1.2642-1.75907 1.89854-3.98153 1.89854-6.65838 0-2.58237-.63884-4.69235-1.92103-6.32545zm-3.77458 10.50043c-.63884.94027-1.54312 1.40816-2.70383 1.40816-1.33618 0-2.33493-.48588-2.98727-1.45765-.65234-.96726-.98076-2.19096-.98076-3.6666 0-1.2552.15746-2.27644.47238-3.06825.61185-1.48913 1.73658-2.23145 3.36968-2.23145 1.6151 0 2.72183.76031 3.32018 2.27644.31943.8053.47689 1.81756.47689 3.03676 0 1.52962-.32392 2.76232-.96727 3.7026zm18.4275-3.71609v1.6781c-.0315 1.50712-.45439 2.54637-1.27319 3.11323-.8143.57136-1.70958.85479-2.68134.85479-.61185 0-1.12923-.17096-1.55662-.51287-.4274-.34192-.63885-.89978-.63885-1.6691 0-.86378.34642-1.50263 1.04375-1.91653.4094-.24294 1.08873-.44539 2.038-.61635l1.01225-.18895c.50838-.09448.90428-.19795 1.1967-.30593.28794-.11247.57587-.25643.8593-.43639zm-2.73533-2.10548l-1.53413.18895c-1.74107.22494-3.05925.59385-3.95453 1.11123-1.6331.94927-2.4519 2.4834-2.4519 4.60237 0 1.6331.50837 2.8973 1.52513 3.78808 1.02125.89078 2.30793 1.33617 3.86905 1.33617 1.2237 0 2.32143-.27893 3.2887-.8413.8143-.47238 1.52962-1.04824 2.15047-1.72307.0315.3914.07648.73782.12597 1.04374.05399.30593.14846.63435.28793.98076h4.9038v-.66584c-.29693-.13496-.51737-.31042-.66584-.52187-.14846-.20695-.23844-.60735-.26993-1.2012-.0225-.77831-.0315-1.44415-.0315-1.99302v-7.90456c0-2.0785-.73331-3.49115-2.19996-4.24247-1.46214-.74681-3.14023-1.12022-5.02527-1.12022-2.90179 0-4.94879.75581-6.141 2.27644-.74681.97176-1.1697 2.20896-1.26419 3.7161h4.35044c.10347-.66585.31492-1.19222.63434-1.57912.4409-.53087 1.19671-.7918 2.25845-.7918.94927 0 1.6691.13496 2.15947.4004.49038.26993.73782.7603.73782 1.46663 0 .58036-.32392 1.00326-.96726 1.2777-.35541.16195-.95377.29242-1.78606.3959zm.23844-7.21174zm9.23624 3.82856h2.40241v10.6129c0 1.07525.25194 1.87155.76032 2.38892.7783.8098 2.23595 1.17872 4.36393 1.10673l2.13698-.08098v-3.36967a7.32054 7.32054 0 0 1-.4499.02699c-.15295.0045-.30142.009-.43639.009-.91777 0-1.46664-.08998-1.6466-.26544-.17545-.17096-.26543-.61185-.26543-1.31817v-9.11028h2.79832v-3.21221h-2.79832v-4.80483h-4.4629v4.80483h-2.40242zm10.78836 0h2.40242v10.6129c0 1.07525.25193 1.87155.76031 2.38892.77831.8098 2.23145 1.17872 4.36393 1.10673l2.13698-.08098v-3.36967c-.14846.0135-.30143.0225-.45439.02699-.15296.0045-.29693.009-.4319.009-.91777 0-1.46663-.08998-1.64659-.26544-.17996-.17096-.26993-.61185-.26993-1.31817v-9.11028h2.80281v-3.21221h-2.80281v-4.80483h-4.45841v4.80483h-2.40242zm16.92936.8683c.57586-.65235 1.38567-.98077 2.42941-.98077.95827 0 1.76357.31042 2.41141.92677s1.00775 1.52063 1.08424 2.71284h-7.0093c.14847-1.12023.50838-2.00201 1.08424-2.65885zm6.30296-3.89156c-1.15172-.53537-2.4429-.8053-3.87355-.8053-2.4159 0-4.38193.7963-5.89356 2.38891-1.51163 1.59262-2.26744 3.88256-2.26744 6.86533 0 3.18522.8368 5.48416 2.51488 6.89681 1.6736 1.41265 3.60812 2.11898 5.80358 2.11898 2.65435 0 4.72385-.8413 6.19949-2.51488.94926-1.05724 1.48013-2.0965 1.5971-3.11774h-4.60237c-.24294.50837-.52187.90428-.8368 1.1877-.58035.52638-1.33617.79182-2.26294.79182-.87729 0-1.6241-.21595-2.24495-.65235-1.02575-.69283-1.56562-1.90753-1.6286-3.6351h11.79611c.0225-1.48914-.027-2.62736-.13946-3.41917-.20246-1.34967-.63885-2.53288-1.31368-3.55863-.75132-1.15622-1.70059-2.00651-2.8478-2.54638zm-3.55863-.8053zm20.4745.05399c-.05849-.0045-.13047-.0045-.21595-.0045-1.34967 0-2.4429.35091-3.2887 1.05724-.51737.4229-1.12022 1.2102-1.81755 2.35742v-3.00526h-4.30095v17.23978h4.53939v-8.23748c0-1.38567.17096-2.40692.52187-3.07275.62085-1.17871 1.84005-1.76807 3.6531-1.76807.13498 0 .31493.0045.53538.0135.22494.0135.47688.03149.76031.06298v-4.61587c-.19795-.0135-.32842-.018-.3869-.027zm3.72509 20.95137v3.60362c.48588.036.85029.05399 1.08873.05849.24294.0045.56686.009.96726.009 1.99302 0 3.3202-.3959 3.98603-1.17872.66134-.7873 1.56562-2.8163 2.70384-6.0825l5.91605-16.95636h-4.79133l-3.55863 12.71839-3.76558-12.7184H285.972l6.32995 18.0001c.0405.12597-.04949.47239-.27893 1.04375-.22494.56686-.47238.94477-.73332 1.12473-.27443.18895-.61185.31042-1.01225.3599-.4004.054-.8233.07199-1.2687.0495zm6.105-21.00536zm9.8526 6.5324v4.26946h9.07877v-4.26946zm21.28879-5.79458c-.8098-.45889-1.74108-.68833-2.78482-.68833-2.26745 0-4.076.8413-5.43017 2.52838-1.35417 1.68709-2.0335 4.00402-2.0335 6.9463 0 2.55088.68833 4.63837 2.06499 6.27147 1.37666 1.6286 3.06825 2.4429 5.08376 2.4429 1.2237 0 2.24495-.23394 3.06825-.69733.8233-.46339 1.55662-1.2057 2.19996-2.23145v2.38891h4.38193v-23.2818h-4.57088v8.22398c-.50838-.8098-1.16522-1.44414-1.97952-1.90303zm1.10673 12.282c-.66134.94476-1.6331 1.42165-2.91079 1.42165-1.27319 0-2.22696-.47689-2.8523-1.43065-.62985-.95377-.94027-2.22696-.94027-3.81957 0-1.47564.30592-2.71284.92227-3.7116.61635-.99425 1.58361-1.49363 2.9018-1.49363.86828 0 1.6241.27444 2.28093.8233 1.06175.90428 1.59711 2.41591 1.59711 4.5214 0 1.51163-.33291 2.73983-.99875 3.6891zm19.04384-3.7026v1.6781c-.03149 1.50712-.45439 2.54637-1.27319 3.11323-.8188.57136-1.70958.85479-2.68134.85479-.61185 0-1.12922-.17096-1.55662-.51287-.4274-.34192-.64334-.89978-.64334-1.6691 0-.86378.35091-1.50263 1.04824-1.91653.4094-.24294 1.08873-.44539 2.038-.61635l1.01225-.18895c.50838-.09448.90428-.19795 1.19221-.30593.29243-.11247.58036-.25643.8638-.43639zm-2.73533-2.10548l-1.53412.18895c-1.74108.22494-3.05926.59385-3.95454 1.11123-1.6331.94927-2.4519 2.4834-2.4519 4.60237 0 1.6331.50838 2.8973 1.52513 3.78808 1.01675.89078 2.30794 1.33617 3.86905 1.33617 1.2237 0 2.31694-.27893 3.2887-.8413.8143-.47238 1.52963-1.04824 2.15047-1.72307.0315.3914.07648.73782.12597 1.04374.05399.30593.14847.63435.28793.98076h4.8993v-.66584c-.29242-.13496-.51287-.31042-.66133-.52187-.14847-.20695-.23845-.60735-.26994-1.2012-.0225-.77831-.03149-1.44415-.03149-1.99302v-7.90456c0-2.0785-.73332-3.49115-2.19996-4.24247-1.46214-.74681-3.14023-1.12022-5.02977-1.12022-2.8973 0-4.9443.75581-6.1365 2.27644-.74682.97176-1.16972 2.20896-1.2642 3.7161h4.35044c.10348-.66585.31493-1.19222.62985-1.57912.4454-.53087 1.1967-.7918 2.26295-.7918.94926 0 1.66909.13496 2.15947.4004.49038.26993.73782.7603.73782 1.46663 0 .58036-.32392 1.00326-.96727 1.2777-.3599.16195-.95376.29242-1.78606.3959zm.23844-7.21174zm9.23624 3.82856h2.40242v10.6129c0 1.07525.25194 1.87155.76031 2.38892.77831.8098 2.23595 1.17872 4.36393 1.10673l2.13698-.08098v-3.36967a7.32054 7.32054 0 0 1-.44989.02699c-.15296.0045-.30142.009-.4364.009-.91777 0-1.46663-.08998-1.64659-.26544-.17996-.17096-.26993-.61185-.26993-1.31817v-9.11028h2.80281v-3.21221h-2.80281v-4.80483h-4.45841v4.80483h-2.40242zm22.06261 5.48866v1.6781c-.0315 1.50712-.45439 2.54637-1.27319 3.11323-.8188.57136-1.70958.85479-2.68134.85479-.61185 0-1.12923-.17096-1.55662-.51287-.4274-.34192-.64335-.89978-.64335-1.6691 0-.86378.35092-1.50263 1.04375-1.91653.4139-.24294 1.09323-.44539 2.0425-.61635l1.01225-.18895c.50388-.09448.90428-.19795 1.19221-.30593.29243-.11247.58036-.25643.86379-.43639zm-2.73533-2.10548l-1.53413.18895c-1.74107.22494-3.05925.59385-3.95453 1.11123-1.6331.94927-2.4519 2.4834-2.4519 4.60237 0 1.6331.50838 2.8973 1.52513 3.78808 1.01675.89078 2.30793 1.33617 3.86905 1.33617 1.2237 0 2.31693-.27893 3.2887-.8413.8098-.47238 1.52962-1.04824 2.15047-1.72307.0315.3914.07648.73782.12597 1.04374.05399.30593.14846.63435.28793.98076h4.8993v-.66584c-.29243-.13496-.51287-.31042-.66134-.52187-.14846-.20695-.23844-.60735-.26993-1.2012-.0225-.77831-.0315-1.44415-.0315-1.99302v-7.90456c0-2.0785-.73331-3.49115-2.19995-4.24247-1.46665-.74681-3.14024-1.12022-5.02977-1.12022-2.8973 0-4.9443.75581-6.1365 2.27644-.74682.97176-1.16972 2.20896-1.2642 3.7161h4.35044c.10348-.66585.31492-1.19222.62985-1.57912.44539-.53087 1.1967-.7918 2.26294-.7918.94927 0 1.6691.13496 2.15948.4004.49038.26993.73782.7603.73782 1.46663 0 .58036-.32393 1.00326-.96727 1.2777-.35991.16195-.95376.29242-1.78606.3959zm.23844-7.21174zm25.64373 2.53288c-1.28219-1.6376-3.05475-2.4519-5.3222-2.4519-1.2552 0-2.28544.26094-3.09974.7918-.68383.4184-1.31368 1.03025-1.88054 1.83106v-8.28698h-4.4944v23.28181h4.41342v-2.16397c.60285.8413 1.16072 1.43065 1.67809 1.76807.86379.57136 2.0065.85479 3.43266.85479 2.26745 0 4.03101-.88178 5.2952-2.64085 1.2687-1.75907 1.89854-3.98153 1.89854-6.65838 0-2.58237-.63884-4.69235-1.92103-6.32545zm-3.77008 10.50043c-.64334.94027-1.54762 1.40816-2.70834 1.40816-1.33617 0-2.33492-.48588-2.98727-1.45765-.65234-.96726-.98076-2.19096-.98076-3.6666 0-1.2552.15747-2.27644.47689-3.06825.60735-1.48913 1.73207-2.23145 3.36518-2.23145 1.6151 0 2.72183.76031 3.32468 2.27644.31493.8053.47239 1.81756.47239 3.03676 0 1.52962-.31942 2.76232-.96277 3.7026zm18.423-3.71609v1.6781c-.0315 1.50712-.4544 2.54637-1.2732 3.11323-.8143.57136-1.70957.85479-2.68134.85479-.61185 0-1.12922-.17096-1.55661-.51287-.4274-.34192-.63885-.89978-.63885-1.6691 0-.86378.34642-1.50263 1.04375-1.91653.4094-.24294 1.08873-.44539 2.038-.61635l1.01225-.18895c.50838-.09448.90428-.19795 1.1967-.30593.28794-.11247.57587-.25643.8593-.43639zm-2.73533-2.10548l-1.53413.18895c-1.74107.22494-3.05925.59385-3.95453 1.11123-1.6331.94927-2.4519 2.4834-2.4519 4.60237 0 1.6331.50837 2.8973 1.52962 3.78808 1.01676.89078 2.30344 1.33617 3.86456 1.33617 1.2237 0 2.32143-.27893 3.2887-.8413.8143-.47238 1.52962-1.04824 2.15497-1.72307.0315.3914.07198.73782.12597 1.04374.04949.30593.14396.63435.28343.98076h4.9038v-.66584c-.29693-.13496-.51737-.31042-.66584-.52187-.14846-.20695-.23844-.60735-.26993-1.2012-.018-.77831-.0315-1.44415-.0315-1.99302v-7.90456c0-2.0785-.73332-3.49115-2.19546-4.24247-1.46664-.74681-3.14473-1.12022-5.02977-1.12022-2.90179 0-4.94879.75581-6.1365 2.27644-.75131.97176-1.17421 2.20896-1.26869 3.7161h4.35044c.10797-.66585.31492-1.19222.63434-1.57912.4409-.53087 1.19671-.7918 2.26295-.7918.94477 0 1.6646.13496 2.15497.4004.49038.26993.73782.7603.73782 1.46663 0 .58036-.32392 1.00326-.96726 1.2777-.35541.16195-.95377.29242-1.78606.3959zm.23844-7.21174zm14.51795 12.19652h-4.57088c0 1.76806.64784 3.2257 1.93902 4.37293 1.29119 1.14272 3.2932 1.71408 6.00153 1.71408 2.65885 0 4.62038-.53987 5.89356-1.6196 1.2687-1.07974 1.90304-2.4744 1.90304-4.18398 0-1.29569-.4409-2.37992-1.32718-3.2437-.89528-.8548-2.24045-1.48915-4.03551-1.91204-2.68584-.58936-4.25146-1.00776-4.69685-1.2507-.4409-.22944-.66134-.60735-.66134-1.12022 0-.4139.20695-.77381.62535-1.07974.4139-.30142 1.11123-.45439 2.09199-.45439 1.1922 0 2.038.30143 2.53288.91328.26093.33742.4274.7963.49038 1.37666h4.5079c-.20246-2.10548-.98077-3.59012-2.33494-4.4494-1.35416-.8593-3.10874-1.2912-5.2592-1.2912-2.26745 0-4.02203.57137-5.27272 1.71859-1.2507 1.14272-1.87604 2.51038-1.87604 4.103 0 1.34966.4004 2.38441 1.2012 3.09974.8053.72882 2.17747 1.33167 4.13 1.81755 2.70833.64334 4.27395 1.09773 4.69685 1.36317.4229.26093.63434.64784.63434 1.15172 0 .52637-.26093.92227-.7828 1.1877-.52188.26094-1.2282.3959-2.11449.3959-1.50713 0-2.53738-.30142-3.09974-.90427-.31493-.33742-.52187-.90428-.61635-1.70508zm3.45065-12.19652zm15.42673 4.69685c.57586-.65234 1.38566-.98076 2.4294-.98076.95827 0 1.76358.31042 2.41142.92677.64784.61635 1.00775 1.52063 1.08423 2.71284h-7.00928c.14846-1.12023.50837-2.00201 1.08423-2.65885zm6.30296-3.89155c-1.14722-.53537-2.4384-.8053-3.87355-.8053-2.41591 0-4.37743.7963-5.89356 2.38891-1.51163 1.59262-2.26745 3.88256-2.26745 6.86533 0 3.18522.8368 5.48416 2.51489 6.89681 1.67359 1.41265 3.60812 2.11898 5.80358 2.11898 2.65885 0 4.72385-.8413 6.19948-2.51488.94927-1.05724 1.48014-2.0965 1.59711-3.11774h-4.60237c-.24294.50837-.52187.90428-.8368 1.1877-.58035.52638-1.33617.79182-2.26294.79182-.87729 0-1.6241-.21595-2.24495-.65235-1.02575-.69283-1.56562-1.90753-1.6286-3.6351h11.79611c.0225-1.48914-.027-2.62736-.13947-3.41917-.20245-1.34967-.63884-2.53288-1.31367-3.55863-.74682-1.15622-1.69609-2.00651-2.8478-2.54638zm-3.55863-.8053z"/></svg>