<?xml version="1.0" encoding="UTF-8"?>
<svg version="1.1" viewBox="5.993 4.97 146.72 36" xmlns="http://www.w3.org/2000/svg" xmlns:cc="http://creativecommons.org/ns#" xmlns:dc="http://purl.org/dc/elements/1.1/" xmlns:rdf="http://www.w3.org/1999/02/22-rdf-syntax-ns#">
 <metadata>
  <rdf:RDF>
   <cc:Work rdf:about="">
    <dc:format>image/svg+xml</dc:format>
    <dc:type rdf:resource="http://purl.org/dc/dcmitype/StillImage"/>
   </cc:Work>
  </rdf:RDF>
 </metadata>
 <style type="text/css">.uapi-logo-color { fill:#333333; };</style>
 <g class="uapi-logo-color" transform="translate(-41.864 -504.61)" fill="#2388db">
  <g transform="matrix(.38032 0 0 .38032 2.1315 1067.4)" fill="#2388db">
   <path d="m122.31-1462.3v29.844h6.562v-29.844zm40.907 0v29.844h6.531v-29.844zm-40.907 35v7.531c0 11.601 8.362 21.266 19.375 23.312-1.3 8.146-8.288 14.344-16.812 14.344h-1.125v6.75c12.48-0.372 22.776-9.15 25.406-20.906 11.61-1.535 20.594-11.476 20.594-23.5v-7.531z"/>
   <path d="m179.6-1439.4h14.722v42.529h6.543v-42.529h14.722v-6.543h-35.986v6.543"/>
   <path d="m225.36-1396.9h6.543v-49.072h-6.543v49.072"/>
   <path d="m245.01-1396.9h26.99v-6.543h-20.447v-42.529h-6.543v49.072"/>
   <path d="m281.75-1396.9h6.543v-49.072h-6.543v49.072"/>
   <path d="m298.12-1439.4h14.722v42.529h6.543v-42.529h14.721v-6.543h-35.986v6.543"/>
   <path d="m356.97-1417.8v20.855h6.543v-20.855l19.629-28.217h-8.18l-14.721 21.183-14.723-21.183h-8.178l19.63 28.217"/>
   <path d="m409.36-1453.3 11.123 31.897h-22.246l11.123-31.897m19.629 56.434h6.543l-22.9-65.43h-6.543l-22.901 65.43h6.543l6.298-17.993h26.662l6.298 17.993"/>
   <path d="m468.3-1455.8c6.297 0 11.449 5.152 11.449 11.45s-5.152 11.45-11.449 11.45h-19.629v-22.9h19.629m0 29.443c9.979 0 17.992-8.015 17.992-17.993s-8.014-17.993-17.992-17.993h-26.172v65.43h6.543v-29.443h19.629"/>
   <path d="m497.75-1396.9h6.543v-65.43h-6.543v65.43"/>
  </g>
 </g>
</svg>
