<?xml version="1.0" encoding="UTF-8"?>
<svg version="1.1" xmlns="http://www.w3.org/2000/svg" width="1456" height="500">
<path d="M0 0 C24.51249921 21.20227737 40.8040606 53.02670086 43.56201172 85.35107422 C45.57883352 121.79416723 36.68164203 155.6529932 12.18701172 183.41357422 C10.65362479 185.06712434 9.11186841 186.71295099 7.56201172 188.35107422 C6.80275391 189.17478516 6.04349609 189.99849609 5.26123047 190.84716797 C-5.074167 201.69003176 -16.90076104 209.13793953 -30.43798828 215.35107422 C-30.43798828 214.69107422 -30.43798828 214.03107422 -30.43798828 213.35107422 C-28.36364368 211.77638927 -26.28137623 210.30630553 -24.12548828 208.85107422 C3.53913871 189.52885909 19.9232778 161.1235893 26.14794922 128.25732422 C27.8953906 111.77202821 27.63126472 94.46333915 23.56201172 78.35107422 C23.40104004 77.67786133 23.24006836 77.00464844 23.07421875 76.31103516 C15.28684675 44.24890605 -5.40671768 14.0317176 -33.43798828 -3.64892578 C-64.85995206 -22.76395374 -100.99583541 -31.96227115 -137.46142578 -23.53955078 C-145.32109197 -21.59586934 -153.00117287 -19.31732771 -160.50439453 -16.25048828 C-162.43798828 -15.64892578 -162.43798828 -15.64892578 -164.43798828 -16.64892578 C-110.96907261 -45.35022384 -46.56585982 -39.30241108 0 0 Z " fill="#017BB5" transform="translate(345.43798828125,142.64892578125)"/>
<path d="M0 0 C1.07359772 0.00406357 1.07359772 0.00406357 2.16888428 0.00820923 C13.73255929 0.07431954 24.58370204 1.0813594 35.6875 4.4375 C36.36393555 4.63005371 37.04037109 4.82260742 37.73730469 5.02099609 C46.29222799 7.4766899 54.06130572 10.82373173 61.6875 15.4375 C59.06843631 16.74703184 58.28296282 16.18395633 55.5390625 15.29296875 C54.69730469 15.02806641 53.85554687 14.76316406 52.98828125 14.49023438 C51.24322228 13.92595618 49.49841804 13.36088944 47.75390625 12.79492188 C26.30435765 6.04947559 3.27831512 6.59482422 -18.3125 12.4375 C-18.9828125 12.61410156 -19.653125 12.79070312 -20.34375 12.97265625 C-52.8821802 21.82888221 -79.76289961 46.39162276 -96.4453125 75.03515625 C-113.35220913 105.07860418 -119.09867178 142.88183938 -109.90673828 176.35009766 C-109.71063965 177.03894043 -109.51454102 177.7277832 -109.3125 178.4375 C-109.13058105 179.10442871 -108.94866211 179.77135742 -108.76123047 180.45849609 C-100.11535004 211.46467856 -79.56363517 236.29903155 -54.3125 255.4375 C-66.29470018 255.4375 -80.70646696 239.38744064 -88.875 231.375 C-96.78229704 223.4218993 -103.41832634 214.96997014 -109.3125 205.4375 C-109.72435547 204.77347168 -110.13621094 204.10944336 -110.56054688 203.42529297 C-120.71095961 186.64914486 -127.23956447 166.93405221 -129.3125 147.4375 C-129.39081055 146.70821289 -129.46912109 145.97892578 -129.54980469 145.22753906 C-132.87393314 111.30400982 -124.37302035 76.40662196 -102.8125 49.625 C-101.32171171 47.88788525 -99.82194603 46.15842709 -98.3125 44.4375 C-97.62800781 43.60863281 -96.94351563 42.77976563 -96.23828125 41.92578125 C-82.07933342 25.2543399 -61.96561755 13.2210825 -41.4375 6.1875 C-40.76775146 5.95345459 -40.09800293 5.71940918 -39.40795898 5.47827148 C-26.48773241 1.26117964 -13.51069705 -0.12111458 0 0 Z " fill="#359089" transform="translate(236.3125,122.5625)"/>
<path d="M0 0 C0.66 0 1.32 0 2 0 C-1.97416802 27.54028715 -12.77879089 52.76501676 -31 74 C-32.04800781 75.23169922 -32.04800781 75.23169922 -33.1171875 76.48828125 C-55.05687764 101.59009755 -84.80391215 117.98998126 -118 122 C-123.00341289 122.31290736 -127.98757931 122.38152659 -133 122.375 C-133.67675781 122.37478851 -134.35351562 122.37457703 -135.05078125 122.37435913 C-146.73362948 122.33809087 -157.73155709 121.18330897 -169 118 C-170.00256836 117.72712158 -170.00256836 117.72712158 -171.02539062 117.44873047 C-203.26257001 108.45735367 -230.6766205 85.89342153 -247.13427734 57.00927734 C-256.72664154 39.52938339 -262.13201889 20.96356563 -263 1 C-260.56087531 3.43912469 -260.29655746 5.57316374 -259.5559082 8.86450195 C-252.74506827 38.85672507 -233.70418497 66.18419518 -207.62988281 82.64086914 C-194.14198232 90.90425667 -180.18997332 96.60572489 -165 101 C-163.75605469 101.36351562 -162.51210937 101.72703125 -161.23046875 102.1015625 C-141.06756916 106.85885083 -116.81434509 105.64057999 -97 100 C-96.26249512 99.80164551 -95.52499023 99.60329102 -94.76513672 99.39892578 C-76.45999281 94.37829172 -59.37542532 85.37939852 -45 73 C-44.11183594 72.24976563 -43.22367188 71.49953125 -42.30859375 70.7265625 C-20.94244674 52.13312159 -6.71415224 27.41202841 0 0 Z " fill="#46947D" transform="translate(392,272)"/>
<path d="M0 0 C6.03896028 3.62337617 9.17061394 8.85271903 11.5 15.375 C13.9630839 25.22733559 13.40761083 36.75258266 8.25 45.625 C4.1177522 51.60306454 0.82864181 54.37158433 -6.3125 55.8125 C-14.01189507 56.82633339 -19.26786677 56.04909992 -25.5 51.375 C-25.83 59.625 -26.16 67.875 -26.5 76.375 C-31.45 76.375 -36.4 76.375 -41.5 76.375 C-41.5 50.965 -41.5 25.555 -41.5 -0.625 C-36.88 -0.625 -32.26 -0.625 -27.5 -0.625 C-27.17 1.025 -26.84 2.675 -26.5 4.375 C-25.943125 3.75625 -25.38625 3.1375 -24.8125 2.5 C-18.46047654 -3.33699453 -7.65292295 -3.49847906 0 0 Z M-23.5 14.375 C-27.14114888 20.40172918 -27.21225418 26.45458434 -26.5 33.375 C-24.98849125 37.60722449 -23.03021271 40.57159579 -19.5 43.375 C-16.14748955 44.73412586 -14.48575919 44.37150226 -10.9375 43.5 C-7.04202256 41.61179915 -5.65247837 38.93640828 -4.15625 34.9765625 C-2.32568729 27.71968889 -2.67440212 20.83894124 -6.5 14.375 C-9.34701145 11.2907376 -10.82784267 10.47102248 -15 9.875 C-19.17215733 10.47102248 -20.65298855 11.2907376 -23.5 14.375 Z " fill="#706F6F" transform="translate(806.5,190.625)"/>
<path d="M0 0 C2.50454391 -0.18360321 4.96770356 -0.21123985 7.47897339 -0.18280029 C8.40544174 -0.18758392 9.3319101 -0.19236755 10.28645325 -0.19729614 C12.25095309 -0.20070084 14.21550914 -0.19145861 16.17990112 -0.17059326 C19.15916877 -0.14404653 22.1345955 -0.17021007 25.11373901 -0.20233154 C45.12274388 -0.23931657 45.12274388 -0.23931657 52.84786987 7.11553955 C58.7868627 13.66500607 61.74482113 23.4361854 65.13131714 31.48126221 C66.57764526 31.50253174 66.57764526 31.50253174 68.05319214 31.52423096 C69.31647339 31.57192627 70.57975464 31.61962158 71.88131714 31.66876221 C73.13428589 31.70356689 74.38725464 31.73837158 75.67819214 31.77423096 C79.13131714 32.48126221 79.13131714 32.48126221 81.58444214 34.80548096 C83.13131714 37.48126221 83.13131714 37.48126221 83.13131714 41.10626221 C82.13131714 44.48126221 82.13131714 44.48126221 80.38131714 46.35626221 C77.95404659 47.56989748 75.81192273 48.10895587 73.13131714 48.48126221 C74.31380504 52.15423154 74.31380504 52.15423154 76.13131714 55.48126221 C79.21501601 56.53875778 79.21501601 56.53875778 82.13131714 56.48126221 C82.13131714 57.14126221 82.13131714 57.80126221 82.13131714 58.48126221 C83.34368042 58.42905518 83.34368042 58.42905518 84.58053589 58.37579346 C85.6491687 58.34872314 86.71780151 58.32165283 87.81881714 58.29376221 C88.87455933 58.25895752 89.93030151 58.22415283 91.01803589 58.18829346 C94.13131714 58.48126221 94.13131714 58.48126221 99.13131714 61.48126221 C99.46131714 72.04126221 99.79131714 82.60126221 100.13131714 93.48126221 C122.90131714 93.81126221 145.67131714 94.14126221 169.13131714 94.48126221 C168.80131714 96.13126221 168.47131714 97.78126221 168.13131714 99.48126221 C158.77826193 99.55068052 149.42529498 99.60403168 140.07203865 99.63669872 C135.72923834 99.6523749 131.38661388 99.67364845 127.04391479 99.70758057 C122.85531758 99.74010489 118.66688983 99.75810051 114.47817612 99.76589394 C112.87771816 99.77144996 111.27726978 99.78229916 109.6768837 99.79845238 C107.44029732 99.82013527 105.20441697 99.82323307 102.96774292 99.82183838 C101.69311188 99.82850021 100.41848083 99.83516205 99.10522461 99.84202576 C98.12383514 99.72297379 97.14244568 99.60392181 96.13131714 99.48126221 C93.67752785 95.80057828 93.824855 93.80072502 93.71725464 89.40704346 C93.69788849 88.72321091 93.67852234 88.03937836 93.65856934 87.33482361 C93.59887717 85.15459595 93.55243083 82.97431519 93.50631714 80.79376221 C93.46812771 79.31392171 93.4290754 77.83410321 93.38912964 76.35430908 C93.29318512 72.73016171 93.20911563 69.10584963 93.13131714 65.48126221 C87.68631714 64.98626221 87.68631714 64.98626221 82.13131714 64.48126221 C82.13131714 65.14126221 82.13131714 65.80126221 82.13131714 66.48126221 C80.15131714 66.48126221 78.17131714 66.48126221 76.13131714 66.48126221 C76.14130989 67.37329094 76.14130989 67.37329094 76.15150452 68.28334045 C76.21778994 74.46359866 76.26308939 80.64375616 76.29611206 86.82427979 C76.3112139 89.13193868 76.33169683 91.43956882 76.3576355 93.74713135 C76.39395689 97.0609242 76.4110295 100.37433813 76.42428589 103.68829346 C76.43976974 104.72275101 76.4552536 105.75720856 76.47120667 106.82301331 C76.47143326 107.78378281 76.47165985 108.74455231 76.47189331 109.73443604 C76.48188606 111.00351555 76.48188606 111.00351555 76.49208069 112.29823303 C76.0494093 114.97689764 75.25683854 115.84468381 73.13131714 117.48126221 C67.25265446 118.92111279 60.03365152 118.71097157 54.13131714 117.48126221 C50.5006293 115.07320717 48.9588521 112.3709481 47.13131714 108.48126221 C46.32340114 107.16593554 45.51144601 105.8530733 44.69381714 104.54376221 C43.13131714 101.48126221 43.13131714 101.48126221 43.13131714 99.48126221 C23.00131714 99.48126221 2.87131714 99.48126221 -17.86868286 99.48126221 C-18.52868286 97.83126221 -19.18868286 96.18126221 -19.86868286 94.48126221 C-19.08465088 94.47539597 -18.3006189 94.46952972 -17.49282837 94.46348572 C-10.07817309 94.40540984 -2.66384814 94.33324892 4.75051117 94.24554729 C8.56166947 94.20095581 12.37272365 94.16167566 16.18405151 94.13482666 C19.867136 94.10868075 23.54981733 94.06820048 27.23265076 94.01807594 C28.63269509 94.00148304 30.03280902 93.98992182 31.43293762 93.9836483 C39.04627384 93.94610645 45.16985731 93.63756143 52.13131714 90.48126221 C55.13131714 90.29376221 55.13131714 90.29376221 57.13131714 90.48126221 C57.46131714 91.47126221 57.79131714 92.46126221 58.13131714 93.48126221 C55.7642201 96.22211141 53.48725908 97.21797801 50.13131714 98.48126221 C50.56444214 99.25212158 50.99756714 100.02298096 51.44381714 100.81719971 C52.00069214 101.82009033 52.55756714 102.82298096 53.13131714 103.85626221 C53.68819214 104.85399658 54.24506714 105.85173096 54.81881714 106.87969971 C56.13131714 109.48126221 56.13131714 109.48126221 56.13131714 111.48126221 C61.08131714 111.48126221 66.03131714 111.48126221 71.13131714 111.48126221 C71.11177042 104.45555939 71.05966658 97.43108707 70.97872925 90.40582275 C70.95568013 88.0211255 70.94118461 85.63632835 70.9357605 83.25152588 C70.96927078 64.76590044 70.96927078 64.76590044 65.13131714 47.48126221 C64.43675796 45.49077684 63.76271919 43.49267363 63.13131714 41.48126221 C64.05815308 41.43227783 64.98498901 41.38329346 65.93991089 41.33282471 C67.13744995 41.25805908 68.33498901 41.18329346 69.56881714 41.10626221 C70.76377808 41.03665283 71.95873901 40.96704346 73.18991089 40.89532471 C74.16057495 40.75868408 75.13123901 40.62204346 76.13131714 40.48126221 C76.62631714 39.49126221 76.62631714 39.49126221 77.13131714 38.48126221 C76.06912964 38.59469971 75.00694214 38.70813721 73.91256714 38.82501221 C69.51070804 39.0706296 65.25438956 39.22784875 61.13131714 37.48126221 C57.3682364 33.69179593 55.68397796 28.36917804 53.87350464 23.44415283 C51.61500722 17.47102149 48.73003829 11.81383432 43.13131714 8.48126221 C37.51457337 6.51448346 32.40199649 6.14669128 26.47897339 6.06719971 C25.57884018 6.04783356 24.67870697 6.02846741 23.751297 6.0085144 C20.89889768 5.9491175 18.04645713 5.9024939 15.19381714 5.85626221 C13.25044094 5.81804566 11.30708102 5.77899183 9.36373901 5.73907471 C4.61973181 5.64344909 -0.12435461 5.55927202 -4.86868286 5.48126221 C-3.82700632 2.68475919 -3.03787855 0.78237788 0 0 Z " fill="#1F8B96" transform="translate(176.86868286132813,187.51873779296875)"/>
<path d="M0 0 C5.61 0 11.22 0 17 0 C18.57219056 4.62469042 20.14061244 9.25032024 21.69970703 13.87939453 C22.23106589 15.45337089 22.76457777 17.02662212 23.30029297 18.59912109 C24.07047236 20.86107653 24.83284106 23.1255368 25.59375 25.390625 C25.83436157 26.09181458 26.07497314 26.79300415 26.32287598 27.51544189 C27.45156267 30.89995358 28 33.38533252 28 37 C28.66 37 29.32 37 30 37 C30.23589844 35.80375 30.47179687 34.6075 30.71484375 33.375 C32.18449467 26.7661028 34.39814775 20.4075768 36.5625 14 C36.97435547 12.76121094 37.38621094 11.52242187 37.81054688 10.24609375 C40.86637464 1.13362536 40.86637464 1.13362536 42 0 C44.53049402 -0.07313567 47.03304837 -0.09247527 49.5625 -0.0625 C50.62887695 -0.05573242 50.62887695 -0.05573242 51.71679688 -0.04882812 C53.47790013 -0.03700864 55.23896036 -0.01907263 57 0 C56.35318778 3.69040212 55.34697046 7.04127502 54.03808594 10.54956055 C53.43175323 12.18232185 53.43175323 12.18232185 52.81317139 13.84806824 C52.37466858 15.01582291 51.93616577 16.18357758 51.484375 17.38671875 C51.03153137 18.59890579 50.57868774 19.81109283 50.11212158 21.06001282 C49.15302549 23.62554306 48.19100458 26.18995332 47.22705078 28.75366211 C46.002621 32.01115699 44.7866232 35.27172399 43.57302475 38.53326702 C42.40278804 41.67385136 41.22436709 44.81134749 40.046875 47.94921875 C39.40126617 49.68566902 39.40126617 49.68566902 38.74261475 51.4571991 C30.86268835 72.33272143 30.86268835 72.33272143 24 77 C17.59477105 79.49695366 11.73169124 79.12194854 5 78 C4.34 77.67 3.68 77.34 3 77 C3.33 73.37 3.66 69.74 4 66 C5.381875 66.04125 6.76375 66.0825 8.1875 66.125 C13.36129097 66.10793007 13.36129097 66.10793007 18 64 C20.05408591 59.43761653 20.14218473 56.96472382 18.39111328 52.31762695 C17.99054718 51.22662186 17.58998108 50.13561676 17.17727661 49.0115509 C16.72947845 47.84887192 16.2816803 46.68619293 15.8203125 45.48828125 C15.13783838 43.6472042 14.45536813 41.80612572 13.77313042 39.96496105 C12.81536971 37.39466469 11.84058739 34.83095521 10.86608887 32.26696777 C9.16104712 27.77027473 7.48300082 23.26343903 5.80490112 18.75663757 C4.9102144 16.35910168 4.00895745 13.96400564 3.10061646 11.5716095 C2.69374603 10.49006088 2.28687561 9.40851227 1.86767578 8.29418945 C1.50634552 7.34187943 1.14501526 6.3895694 0.7727356 5.40840149 C0 3 0 3 0 0 Z " fill="#706F6F" transform="translate(819,190)"/>
<path d="M0 0 C7.15388102 3.87389406 12.74829743 8.57817644 15.4375 16.4296875 C17.40219081 25.88476202 17.4953947 36.14612149 12.0625 44.4375 C11.68867187 45.00855469 11.31484375 45.57960937 10.9296875 46.16796875 C6.18053644 52.53686338 0.84138738 54.51242983 -6.6875 55.8125 C-16.35831905 56.9405913 -24.03637899 55.99684389 -31.99609375 50.14453125 C-37.7510048 45.08437807 -40.58931996 39.34440396 -41.2734375 31.66796875 C-41.51242371 20.96217439 -40.03613743 13.03915454 -32.65234375 4.94140625 C-24.20623828 -2.46577053 -10.31038948 -4.22527345 0 0 Z M-20.9375 13.4375 C-24.56635569 17.77196651 -26.03977136 21.81257519 -25.9375 27.4375 C-25.31174354 32.49428871 -24.3029482 37.49180211 -20.9375 41.4375 C-17.17256872 43.60957574 -14.6664874 44.4375 -10.3125 44.4375 C-5.70731132 43.07299965 -3.27990297 40.71185899 -0.8515625 36.59765625 C1.46256535 31.12879855 1.81302347 24.61394843 -0.125 19 C-2.42005534 14.48902915 -4.09820345 12.05059885 -8.9375 10.4375 C-13.93770732 10.06711427 -16.99030378 10.23707063 -20.9375 13.4375 Z " fill="#706F6F" transform="translate(713.9375,190.5625)"/>
<path d="M0 0 C6.97976673 4.55034516 9.44187256 11.54644696 11.12109375 19.3828125 C11.12109375 23.3428125 11.12109375 27.3028125 11.12109375 31.3828125 C-1.08890625 31.3828125 -13.29890625 31.3828125 -25.87890625 31.3828125 C-22.81177255 38.95019183 -22.81177255 38.95019183 -19.31640625 41.3828125 C-11.21318941 43.74011195 -4.46231977 42.75404945 3.125 39.2578125 C5.12109375 38.3828125 5.12109375 38.3828125 7.12109375 38.3828125 C7.12109375 42.6728125 7.12109375 46.9628125 7.12109375 51.3828125 C-3.11508624 55.91035365 -14.1054652 56.61186873 -24.87890625 53.3828125 C-31.4764464 50.33394925 -35.97304073 46.06141939 -38.87890625 39.3828125 C-42.33852925 28.98573496 -41.60932299 17.85595758 -36.6953125 8.01171875 C-28.59044386 -4.13410422 -12.69381803 -5.96130042 0 0 Z M-21.87890625 11.3828125 C-25.11741575 15.4398292 -25.11741575 15.4398292 -25.87890625 20.3828125 C-18.28890625 20.3828125 -10.69890625 20.3828125 -2.87890625 20.3828125 C-4.43605547 13.54745605 -4.43605547 13.54745605 -8.87890625 9.3828125 C-13.94831487 7.8417973 -17.7160776 7.7981545 -21.87890625 11.3828125 Z " fill="#706F6F" transform="translate(550.87890625,191.6171875)"/>
<path d="M0 0 C5.1390361 3.76027032 7.98989798 7.74405464 9.5625 13.875 C9.81871949 17.06362167 9.79592809 20.23255218 9.7578125 23.4296875 C9.7549826 24.33123566 9.75215271 25.23278381 9.74923706 26.16165161 C9.73809439 29.02457276 9.7130008 31.88717434 9.6875 34.75 C9.67746255 36.69791213 9.66833804 38.64582919 9.66015625 40.59375 C9.63817443 45.3542887 9.6036855 50.11459027 9.5625 54.875 C4.6125 54.875 -0.3375 54.875 -5.4375 54.875 C-5.45208252 53.81587402 -5.46666504 52.75674805 -5.48168945 51.66552734 C-5.53987327 47.71792658 -5.61710407 43.77088429 -5.69995117 39.82373047 C-5.73310636 38.11874488 -5.76116737 36.41365202 -5.78393555 34.70849609 C-5.81765568 32.25051366 -5.86997794 29.79350594 -5.92578125 27.3359375 C-5.93217117 26.57944916 -5.9385611 25.82296082 -5.94514465 25.04354858 C-6.08028958 20.12573093 -6.76366991 15.54883009 -10.4375 11.875 C-16.08673184 11.49521509 -16.08673184 11.49521509 -21.4375 12.875 C-22.69533601 15.01069881 -22.69533601 15.01069881 -23.4375 17.875 C-23.77265625 18.94621094 -24.1078125 20.01742187 -24.453125 21.12109375 C-26.05645832 27.5809754 -25.90691401 34.25611281 -26.0625 40.875 C-26.10075652 42.23569998 -26.13981248 43.59637774 -26.1796875 44.95703125 C-26.27346839 48.26280764 -26.3565513 51.5688845 -26.4375 54.875 C-31.3875 54.875 -36.3375 54.875 -41.4375 54.875 C-41.4375 36.725 -41.4375 18.575 -41.4375 -0.125 C-36.4875 -0.125 -31.5375 -0.125 -26.4375 -0.125 C-26.1075 1.195 -25.7775 2.515 -25.4375 3.875 C-24.344375 3.235625 -23.25125 2.59625 -22.125 1.9375 C-15.32589032 -2.03933773 -7.47862897 -2.4475513 0 0 Z " fill="#706F6F" transform="translate(611.4375,190.125)"/>
<path d="M0 0 C5.28 0 10.56 0 16 0 C16.35827881 1.05501709 16.71655762 2.11003418 17.08569336 3.19702148 C18.41150843 7.09858674 19.74117143 10.99883127 21.07202148 14.89868164 C21.64827409 16.58907679 22.22347232 18.27983175 22.79760742 19.97094727 C23.62143664 22.39694304 24.44900745 24.82163377 25.27734375 27.24609375 C25.53466782 28.00651474 25.79199188 28.76693573 26.05711365 29.55039978 C27.04701556 33.04670333 27.04701556 33.04670333 29 36 C32.96 24.12 36.92 12.24 41 0 C46.28 0 51.56 0 57 0 C50.69208718 18.46498115 43.82821646 36.72296948 37 55 C31.06 55 25.12 55 19 55 C16.44800647 48.13402188 13.90303821 41.26549629 11.36450195 34.39453125 C10.50021143 32.05820794 9.63401646 29.72258823 8.76586914 27.38769531 C7.51726133 24.02853292 6.27555827 20.66688722 5.03515625 17.3046875 C4.64658951 16.26384003 4.25802277 15.22299255 3.85768127 14.15060425 C3.49738327 13.17004059 3.13708527 12.18947693 2.76586914 11.17919922 C2.44832169 10.32204315 2.13077423 9.46488708 1.80360413 8.58175659 C1 6 1 6 0 0 Z " fill="#706F6F" transform="translate(454,190)"/>
<path d="M0 0 C0.70318359 -0.01224609 1.40636719 -0.02449219 2.13085938 -0.03710938 C6.52148304 -0.04945415 8.8433131 0.49982524 13.0625 2.1875 C12.7325 6.1475 12.4025 10.1075 12.0625 14.1875 C9.5875 13.6925 9.5875 13.6925 7.0625 13.1875 C-0.77430136 12.57484282 -0.77430136 12.57484282 -7.9375 15.1875 C-9.24818333 17.63038628 -9.24818333 17.63038628 -9.9375 20.1875 C-10.2675 20.8475 -10.5975 21.5075 -10.9375 22.1875 C-11.71909048 30.9788225 -11.71909048 30.9788225 -9.375 39.3125 C-6.5194085 42.68063357 -4.31785987 44.6324544 0.0625 45.1875 C4.50315032 44.82436271 8.6747817 44.04694998 13.0625 43.1875 C13.5575 49.6225 13.5575 49.6225 14.0625 56.1875 C3.81061946 58.06149967 -6.59088438 59.96146641 -16.08984375 54.5390625 C-22.45791888 49.88080881 -26.66089892 44.00668162 -27.9375 36.1875 C-28.86990326 25.58141293 -28.13607793 16.50112386 -21.625 7.8125 C-15.1170316 1.4558797 -8.88534311 0.00809967 0 0 Z " fill="#706F6F" transform="translate(656.9375,188.8125)"/>
<path d="M0 0 C0.90009293 -0.00807175 1.80018585 -0.01614349 2.72755432 -0.02445984 C4.63320996 -0.03830027 6.53889039 -0.04902261 8.44458008 -0.05688477 C11.36391804 -0.07413021 14.28213307 -0.1180196 17.20117188 -0.16210938 C19.05077291 -0.17223334 20.90038358 -0.18075037 22.75 -0.1875 C23.62506699 -0.20500809 24.50013397 -0.22251617 25.40171814 -0.24055481 C31.44272562 -0.21884755 31.44272562 -0.21884755 34.01586914 2.13989258 C34.94140625 4.23828125 34.94140625 4.23828125 34.94140625 6.23828125 C14.15140625 6.73328125 14.15140625 6.73328125 -7.05859375 7.23828125 C-7.38859375 31.32828125 -7.71859375 55.41828125 -8.05859375 80.23828125 C-10.53359375 80.73328125 -10.53359375 80.73328125 -13.05859375 81.23828125 C-14.96373659 79.33313841 -14.20643557 75.93638244 -14.21972656 73.41113281 C-14.22469147 72.69725403 -14.22965637 71.98337524 -14.23477173 71.24786377 C-14.24943281 68.87486827 -14.25620307 66.50193969 -14.26171875 64.12890625 C-14.26746849 62.4832153 -14.27322625 60.83752439 -14.2789917 59.1918335 C-14.28951396 55.73498217 -14.29534808 52.27815417 -14.29882812 48.82128906 C-14.3043049 44.39483475 -14.32831009 39.96868929 -14.35680008 35.5423317 C-14.37544227 32.13994453 -14.38063297 28.73763137 -14.382164 25.33519745 C-14.38518925 23.70373604 -14.39321351 22.07227589 -14.40634918 20.44086456 C-14.42343749 18.15467541 -14.42152259 15.86923523 -14.41503906 13.58300781 C-14.42050751 11.63228363 -14.42050751 11.63228363 -14.42608643 9.64215088 C-14.03377866 6.00843361 -13.25750316 4.12418761 -11.05859375 1.23828125 C-7.64826852 -0.46688137 -3.75393766 0.03161596 0 0 Z " fill="#0382A9" transform="translate(304.05859375,198.76171875)"/>
<path d="M0 0 C3 0 6 0 9 0 C9.69996094 -0.02320313 10.39992188 -0.04640625 11.12109375 -0.0703125 C11.88550781 -0.08835937 12.64992188 -0.10640625 13.4375 -0.125 C14.19933594 -0.14820313 14.96117187 -0.17140625 15.74609375 -0.1953125 C18.25237485 0.02186957 19.8382206 0.74922103 22 2 C22.99 1.34 23.98 0.68 25 0 C31.97233202 -0.55335968 31.97233202 -0.55335968 35.4375 1.3125 C38.15626727 4.24876865 38.12074479 7.07710943 38.09765625 10.88671875 C38.09443359 11.82451172 38.09121094 12.76230469 38.08789062 13.72851562 C38.07532227 15.19321289 38.07532227 15.19321289 38.0625 16.6875 C38.05798828 17.67556641 38.05347656 18.66363281 38.04882812 19.68164062 C38.03704303 22.12115474 38.02059011 24.56054689 38 27 C36.02 27 34.04 27 32 27 C31.97494385 26.39937744 31.9498877 25.79875488 31.92407227 25.17993164 C31.8084472 22.47388563 31.68557064 19.76821717 31.5625 17.0625 C31.52318359 16.11697266 31.48386719 15.17144531 31.44335938 14.19726562 C31.40146484 13.29814453 31.35957031 12.39902344 31.31640625 11.47265625 C31.27974854 10.64000244 31.24309082 9.80734863 31.20532227 8.94946289 C31.20632897 6.99661142 31.20632897 6.99661142 30 6 C28.33382885 5.95936168 26.66611905 5.957279 25 6 C22.38462703 9.95495425 22.55735726 14.16827373 22.375 18.75 C22.33632813 19.54277344 22.29765625 20.33554687 22.2578125 21.15234375 C22.163892 23.10119416 22.08087178 25.05056451 22 27 C20.02 27 18.04 27 16 27 C15.67 19.74 15.34 12.48 15 5 C9.33821395 5.29483343 9.33821395 5.29483343 7.6640625 7.515625 C6.66959961 11.23608618 6.52769876 14.91344368 6.375 18.75 C6.33632813 19.54277344 6.29765625 20.33554687 6.2578125 21.15234375 C6.163892 23.10119416 6.08087178 25.05056451 6 27 C4.02 27 2.04 27 0 27 C0 18.09 0 9.18 0 0 Z " fill="#706F6F" transform="translate(948,280)"/>
<path d="M0 0 C0.99 0 1.98 0 3 0 C5 0 7 0 9 0 C9.08751499 4.52071021 9.1405661 9.0412007 9.1875 13.5625 C9.21263672 14.83931641 9.23777344 16.11613281 9.26367188 17.43164062 C9.35840637 29.58923418 9.35840637 29.58923418 6 35 C0.88413256 38.10964491 -3.19899296 38.46039738 -9 38 C-12.5 37 -12.5 37 -15 36 C-14.67 34.35 -14.34 32.7 -14 31 C-13.16855469 31.09539062 -12.33710937 31.19078125 -11.48046875 31.2890625 C-10.39378906 31.39992188 -9.30710937 31.51078125 -8.1875 31.625 C-6.56908203 31.79902344 -6.56908203 31.79902344 -4.91796875 31.9765625 C-1.80375668 32.27460156 -1.80375668 32.27460156 1 30 C1.72965366 27.43717258 1.72965366 27.43717258 2 25 C1.34 25.350625 0.68 25.70125 0 26.0625 C-3.88412375 27.27628867 -7.17330195 27.30648883 -11 26 C-14.52016887 22.92921439 -16.15052305 20.65916082 -16.9375 16.0625 C-17.28412622 10.3864956 -16.22398338 6.4031029 -12.4375 2.0625 C-8.56074342 -0.85939043 -4.63451149 -0.39724384 0 0 Z M-8.8125 6.6875 C-10.65884787 10.28301954 -11.37888901 12.67388847 -10.25 16.625 C-8.63630534 19.77830825 -8.63630534 19.77830825 -6 22 C-2.94729537 22.15811388 -2.94729537 22.15811388 0 21 C2.13801873 18.72404457 2.96666282 17.1401316 3.05859375 13.99609375 C2.80345335 11.04840789 2.33157797 8.5584471 0.8125 6 C-2.66295076 4.08250993 -5.85783136 3.93660161 -8.8125 6.6875 Z " fill="#706F6F" transform="translate(757,280)"/>
<path d="M0 0 C3 0 6 0 9 0 C9.76054688 -0.05800781 10.52109375 -0.11601562 11.3046875 -0.17578125 C18.29394813 -0.54755043 18.29394813 -0.54755043 22.0625 2.375 C24.96631022 6.30919449 25.18370215 8.43408289 25.25 13.3125 C25.27578125 14.44300781 25.3015625 15.57351563 25.328125 16.73828125 C24.96571811 20.34077832 24.17090973 22.13419627 22 25 C18.72872414 27.18085057 17.72623277 27.24887859 13.9375 27.1875 C13.05964844 27.18105469 12.18179688 27.17460937 11.27734375 27.16796875 C9 27 9 27 7 26 C6.67 29.63 6.34 33.26 6 37 C4.02 37 2.04 37 0 37 C0 24.79 0 12.58 0 0 Z M7.625 7.0625 C5.58450793 10.75108182 5.40544113 12.83808793 6 17 C7.45633124 20.02938694 7.45633124 20.02938694 10 22 C13.04308291 22.75015195 13.04308291 22.75015195 16 22 C18.35101344 20.19755636 18.89686881 18.78064581 19.28125 15.87109375 C19.4206966 12.34425691 19.30326835 9.69077791 17.875 6.4375 C15.99114948 4.77076751 15.99114948 4.77076751 13.0625 4.4375 C9.87619416 4.75443645 9.87619416 4.75443645 7.625 7.0625 Z " fill="#706F6F" transform="translate(992,280)"/>
<path d="M0 0 C0.625 1.875 0.625 1.875 1 4 C-2.61004579 7.61004579 -8.28061271 6.80818505 -13.1875 7.125 C-14.44804199 7.20919189 -15.70858398 7.29338379 -17.00732422 7.38012695 C-28.20829416 8.07114253 -39.40536042 8.18829773 -50.625 8.1875 C-51.45961761 8.18840637 -52.29423523 8.18931274 -53.15414429 8.19024658 C-62.15084346 8.18913923 -71.05376118 8.07826374 -80 7 C-80.042721 5.33388095 -80.04063832 3.66617115 -80 2 C-79 1 -79 1 -76.93736267 0.88647461 C-76.02853836 0.89171143 -75.11971405 0.89694824 -74.18334961 0.90234375 C-73.1539476 0.90564697 -72.12454559 0.9089502 -71.06394958 0.91235352 C-69.93811966 0.92065186 -68.81228973 0.9289502 -67.65234375 0.9375 C-66.49311905 0.94128662 -65.33389435 0.94507324 -64.13954163 0.94897461 C-59.16744659 0.96530873 -54.19543295 0.99305421 -49.22338867 1.02050781 C-30.62352851 1.14183837 -30.62352851 1.14183837 -12.05493164 0.22485352 C-8.02290886 -0.07191728 -4.04054268 -0.07215255 0 0 Z " fill="#2C8E90" transform="translate(234,230)"/>
<path d="M0 0 C16 0 16 0 21 3 C23.47022142 5.47022142 23.69127946 7.48976379 24.01953125 10.90234375 C23.98742933 14.35008965 23.0421753 16.25582694 21 19 C15.84066959 22.03490024 11.7983952 22.30517869 6 22 C6 26.62 6 31.24 6 36 C4.02 36 2.04 36 0 36 C0 24.12 0 12.24 0 0 Z M6 5 C6 8.63 6 12.26 6 16 C11.23876424 16.45950415 11.23876424 16.45950415 16 14.8125 C17.40047854 12.27413265 17.56981532 10.84907659 17 8 C13.44035648 4.96383346 10.57588204 4.68075242 6 5 Z " fill="#706F6F" transform="translate(1184,271)"/>
<path d="M0 0 C6.6 0 13.2 0 20 0 C20 1.65 20 3.3 20 5 C15.38 5 10.76 5 6 5 C6 7.97 6 10.94 6 14 C10.29 14 14.58 14 19 14 C19 15.98 19 17.96 19 20 C14.71 20 10.42 20 6 20 C6 23.3 6 26.6 6 30 C10.62 30 15.24 30 20 30 C20 31.98 20 33.96 20 36 C13.4 36 6.8 36 0 36 C0 24.12 0 12.24 0 0 Z " fill="#706F6F" transform="translate(640,271)"/>
<path d="M0 0 C1.98 0 3.96 0 6 0 C6.33 4.29 6.66 8.58 7 13 C7.66 12.67 8.32 12.34 9 12 C13.85292492 11.33260365 16.99885712 11.24914284 21 14.25 C23.70163339 17.96474592 24.12994953 20.8070652 24.09765625 25.328125 C24.09443359 26.12734375 24.09121094 26.9265625 24.08789062 27.75 C24.07951172 28.575 24.07113281 29.4 24.0625 30.25 C24.05798828 31.09046875 24.05347656 31.9309375 24.04882812 32.796875 C24.03707961 34.86461401 24.01914522 36.93231624 24 39 C22.02 39 20.04 39 18 39 C17.93941406 37.73542969 17.87882813 36.47085938 17.81640625 35.16796875 C17.73199096 33.50780129 17.64734345 31.84764563 17.5625 30.1875 C17.52318359 29.35412109 17.48386719 28.52074219 17.44335938 27.66210938 C17.40146484 26.85966797 17.35957031 26.05722656 17.31640625 25.23046875 C17.27974854 24.49207764 17.24309082 23.75368652 17.20532227 22.99291992 C17.05157859 20.792505 17.05157859 20.792505 16 18 C13.36 18 10.72 18 8 18 C7.24722485 20.73249341 6.83358297 23.28100683 6.68359375 26.109375 C6.64169922 26.86347656 6.59980469 27.61757813 6.55664062 28.39453125 C6.49766602 29.56048828 6.49766602 29.56048828 6.4375 30.75 C6.39431641 31.54277344 6.35113281 32.33554687 6.30664062 33.15234375 C6.20097009 35.10137815 6.10002034 37.05066748 6 39 C4.02 39 2.04 39 0 39 C0 26.13 0 13.26 0 0 Z " fill="#706F6F" transform="translate(520,268)"/>
<path d="M0 0 C2.31 0 4.62 0 7 0 C10.38126963 8.98290631 13.7474674 17.96943889 17 27 C17.45890625 25.80503906 17.9178125 24.61007812 18.390625 23.37890625 C21.42630542 15.5048259 24.45296025 7.66160586 28 0 C29.98 0 31.96 0 34 0 C31.76089995 8.07275741 28.85969819 15.82660692 25.8125 23.625 C25.11737305 25.41744141 25.11737305 25.41744141 24.40820312 27.24609375 C23.27551405 30.16539549 22.13938352 33.08330604 21 36 C18.36 36 15.72 36 13 36 C11.14653214 31.0345414 9.29517408 26.06830343 7.44580078 21.10131836 C6.81585258 19.41034486 6.18531974 17.71958904 5.55419922 16.02905273 C4.64919122 13.60456898 3.74626181 11.17932013 2.84375 8.75390625 C2.55939087 7.99348526 2.27503174 7.23306427 1.98205566 6.44960022 C0 1.11387171 0 1.11387171 0 0 Z " fill="#706F6F" transform="translate(458,271)"/>
<path d="M0 0 C1.65 0 3.3 0 5 0 C5.33 4.62 5.66 9.24 6 14 C6.66 13.34 7.32 12.68 8 12 C12.63549529 11.30548328 16.71362161 11.05874752 20.5625 13.875 C22.76409614 17.12953343 23.12114635 18.88970625 23.09765625 22.7890625 C23.09443359 23.73007812 23.09121094 24.67109375 23.08789062 25.640625 C23.07951172 26.62546875 23.07113281 27.6103125 23.0625 28.625 C23.05798828 29.61757813 23.05347656 30.61015625 23.04882812 31.6328125 C23.03702145 34.0886016 23.020554 36.54427104 23 39 C21.02 39 19.04 39 17 39 C16.97494385 38.39937744 16.9498877 37.79875488 16.92407227 37.17993164 C16.8084472 34.47388563 16.68557064 31.76821717 16.5625 29.0625 C16.52318359 28.11697266 16.48386719 27.17144531 16.44335938 26.19726562 C16.40146484 25.29814453 16.35957031 24.39902344 16.31640625 23.47265625 C16.27974854 22.64000244 16.24309082 21.80734863 16.20532227 20.94946289 C16.20632897 18.99661142 16.20632897 18.99661142 15 18 C13.00041636 17.95919217 10.99954746 17.95745644 9 18 C6.31056769 22.6289961 5.49126684 26.60393217 5.3125 31.875 C5.27833984 32.56335938 5.24417969 33.25171875 5.20898438 33.9609375 C5.12735909 35.64008613 5.0619843 37.32001168 5 39 C3.35 39 1.7 39 0 39 C0 26.13 0 13.26 0 0 Z " fill="#706F6F" transform="translate(1258,268)"/>
<path d="M0 0 C-0.33 1.98 -0.66 3.96 -1 6 C-1.99 5.67 -2.98 5.34 -4 5 C-7.7973656 4.49368459 -11.43355334 4.16002135 -14.88671875 6.01171875 C-17.54677953 8.15651352 -18.91329771 9.73989313 -20 13 C-20.38971703 17.75454774 -20.4608337 20.07833261 -18.3125 24.375 C-15.75631115 27.27661978 -14.77186327 28.26202675 -11 29 C-8.34474741 28.84283552 -5.74333251 28.561563 -3.109375 28.19140625 C-2.06523438 28.09666016 -2.06523438 28.09666016 -1 28 C0 29 0 29 0.0625 31.5625 C0.041875 32.366875 0.02125 33.17125 0 34 C-5.20731071 36.60365535 -13.13472038 35.59955416 -18.5 33.875 C-24.35645247 29.48266065 -26.70754417 25.70443987 -27.8515625 18.52734375 C-28.18442825 12.85986639 -26.58020328 7.44439028 -23 3 C-15.88757714 -2.10989604 -8.16021064 -3.95646576 0 0 Z " fill="#706F6F" transform="translate(836,272)"/>
<path d="M0 0 C3.62382613 3.07476157 5.18215203 5.28725229 6 10 C6.4110933 15.08413343 5.05268993 18.66724067 2.0625 22.75 C-1.06624669 25.69470277 -3.78285754 25.96473189 -7.9375 26.125 C-12.05931751 25.98413551 -14.74782334 25.55304918 -17.9375 22.75 C-21.53065951 18.78513433 -21.43772882 14.52891825 -21.29296875 9.4140625 C-20.79290198 5.66630931 -19.4833263 3.50797849 -16.9375 0.75 C-11.80886232 -2.42122586 -5.45533394 -2.3214187 0 0 Z M-13.3125 5.8125 C-15.35299207 9.50108182 -15.53205887 11.58808793 -14.9375 15.75 C-13.48116876 18.77938694 -13.48116876 18.77938694 -10.9375 20.75 C-7.9375 21.5 -7.9375 21.5 -4.9375 20.75 C-2.34443676 18.85776466 -1.20244761 17.40353745 0 14.4375 C0.08815938 10.64664683 -1.20906315 8.07884133 -2.9375 4.75 C-6.91820822 2.75964589 -9.95137487 2.89362817 -13.3125 5.8125 Z " fill="#706F6F" transform="translate(1073.9375,281.25)"/>
<path d="M0 0 C3.41285091 1.62901365 5.36505078 4.03377293 7.4375 7.1875 C8.55624653 12.78123265 8.15330742 18.09107737 5.1875 23 C0.9227581 26.89919259 -2.78536451 27.54925812 -8.453125 27.45703125 C-12.66704744 26.70085192 -15.37716076 24.2965961 -18 21 C-19.54257217 16.37228349 -19.93840059 11.58181716 -18.24609375 6.92578125 C-14.15910424 -0.71929325 -8.02844282 -1.13862141 0 0 Z M-11.4375 7.0625 C-13.39880697 10.74975711 -13.58949998 12.87350014 -13 17 C-11.610911 20.04913936 -11.610911 20.04913936 -9 22 C-5.45728358 22.75011367 -5.45728358 22.75011367 -2 22 C0.42655218 19.89698811 0.94324291 18.18648757 1.875 15.125 C2.02899097 11.27522568 0.97185633 9.26114701 -1 6 C-2.15866921 4.63363845 -2.15866921 4.63363845 -5.3125 4.625 C-9.05785342 4.65480828 -9.05785342 4.65480828 -11.4375 7.0625 Z " fill="#706F6F" transform="translate(1305,280)"/>
<path d="M0 0 C4.031728 2.2375035 6.53712295 4.61136885 8 9 C8.45165453 15.88773155 7.57024791 19.94783061 3 25.375 C-1.59192383 27.86229208 -5.89703876 27.86795235 -11 27 C-14.44327412 25.33960695 -16.41937644 22.97650326 -18.375 19.6875 C-19.63612425 14.26466572 -19.83330329 10.57732409 -17.25 5.6875 C-12.21401988 -0.32769847 -7.6991048 -1.36824712 0 0 Z M-10.875 6 C-12.65744829 9.16879696 -13.13971029 12.41643105 -13 16 C-11.86225672 18.43063337 -10.88186104 20.11813896 -9 22 C-4.40360532 22.40739288 -4.40360532 22.40739288 -0.125 21 C1.65744829 17.83120304 2.13971029 14.58356895 2 11 C0.86225672 8.56936663 -0.11813896 6.88186104 -2 5 C-6.59639468 4.59260712 -6.59639468 4.59260712 -10.875 6 Z " fill="#706F6F" transform="translate(857,280)"/>
<path d="M0 0 C2.82424288 2.19022918 4.41508603 3.83017207 6 7 C6 9.64 6 12.28 6 15 C-2.415 15.495 -2.415 15.495 -11 16 C-9.5 20 -9.5 20 -7 21 C-0.91483944 21.23333287 -0.91483944 21.23333287 5 20 C5 21.98 5 23.96 5 26 C-0.23272393 27.74424131 -6.89990437 28.36994702 -12.05078125 26.09375 C-15.62688125 23.32515645 -17.24225064 20.37810742 -18 16 C-17.98135105 10.73167056 -17.42925065 6.19130635 -14 2 C-9.58561826 -0.70620794 -5.03241789 -0.82245017 0 0 Z M-9.875 6.3125 C-11.2773501 8.07800472 -11.2773501 8.07800472 -11 11 C-7.37 11 -3.74 11 0 11 C-0.4452998 6.36980013 -0.4452998 6.36980013 -2 5 C-6.1914711 4.58599894 -6.1914711 4.58599894 -9.875 6.3125 Z " fill="#706F6F" transform="translate(712,280)"/>
<path d="M0 0 C3.5609494 1.92884759 4.66832865 3.25768794 6.3125 6.9375 C7 10 7 10 7 15 C1.06 15 -4.88 15 -11 15 C-9.23148964 18.18074165 -9.23148964 18.18074165 -7 21 C-0.91531443 21.23376923 -0.91531443 21.23376923 5 20 C5 21.98 5 23.96 5 26 C-0.44690602 27.81563534 -6.64466021 27.932322 -12 25.8125 C-15.1248209 22.98063106 -16.79189725 20.28850285 -17.46875 16.09765625 C-17.56350734 6.89434919 -17.56350734 6.89434919 -14.625 3.3125 C-10.04100765 -0.72577897 -5.94067218 -0.66423264 0 0 Z M-9.875 6.3125 C-11.2773501 8.07800472 -11.2773501 8.07800472 -11 11 C-7.04 11 -3.08 11 1 11 C-0.45288986 6.4158037 -0.45288986 6.4158037 -2 5 C-6.1914711 4.58599894 -6.1914711 4.58599894 -9.875 6.3125 Z " fill="#706F6F" transform="translate(614,280)"/>
<path d="M0 0 C2.82424288 2.19022918 4.41508603 3.83017207 6 7 C6 9.64 6 12.28 6 15 C-2.415 15.495 -2.415 15.495 -11 16 C-9.5 20 -9.5 20 -7 21 C-3.16063232 21.1421988 0.32016639 21.17754676 4 20 C4 21.98 4 23.96 4 26 C1.32344199 27.33827901 -0.82434052 27.20578556 -3.8125 27.25 C-4.85019531 27.27578125 -5.88789063 27.3015625 -6.95703125 27.328125 C-10.4301497 26.95361672 -12.23036691 26.09909034 -15 24 C-17.66551731 19.22045173 -18.58284658 15.4399014 -18 10 C-16.81000235 6.24211267 -15.82017257 3.77046514 -12.9375 1.0625 C-8.59211956 -0.50923335 -4.55800816 -0.82328555 0 0 Z M-9 5 C-9.99 6.98 -10.98 8.96 -12 11 C-8.04 11 -4.08 11 0 11 C-0.4452998 6.36980013 -0.4452998 6.36980013 -2 5 C-4.33297433 4.95907063 -6.66705225 4.95758277 -9 5 Z " fill="#706F6F" transform="translate(509,280)"/>
<path d="M0 0 C2.31 0 4.62 0 7 0 C8.98 5.94 10.96 11.88 13 18 C14.98 12.06 16.96 6.12 19 0 C20.98 0 22.96 0 25 0 C23.55863429 7.40056051 21.27128651 14.26005998 18.625 21.3125 C18.23828125 22.38306641 17.8515625 23.45363281 17.453125 24.55664062 C16.87691406 26.10061523 16.87691406 26.10061523 16.2890625 27.67578125 C15.94568848 28.60302002 15.60231445 29.53025879 15.24853516 30.4855957 C13.5414918 33.92338207 11.44707386 36.27646307 8 38 C6.00039988 38.039992 3.99952758 38.04346799 2 38 C2 36.35 2 34.7 2 33 C4.97 32.505 4.97 32.505 8 32 C9.10628885 27.29509842 8.83333805 24.48167737 7.12890625 19.98046875 C6.71962891 18.87638672 6.31035156 17.77230469 5.88867188 16.63476562 C5.45103516 15.49716797 5.01339844 14.35957031 4.5625 13.1875 C3.7087755 10.91047848 2.85586406 8.63315188 2.00390625 6.35546875 C1.62049072 5.35153076 1.2370752 4.34759277 0.84204102 3.31323242 C0 1 0 1 0 0 Z " fill="#706F6F" transform="translate(768,280)"/>
<path d="M0 0 C1.98 0 3.96 0 6 0 C6 0.66 6 1.32 6 2 C6.99 1.34 7.98 0.68 9 0 C13.62268633 -0.66369119 17.68004854 -0.9336242 21.5625 1.8125 C23.75765099 5.15294716 24.12249047 7.76899575 24.09765625 11.66796875 C24.09443359 12.56064453 24.09121094 13.45332031 24.08789062 14.37304688 C24.07951172 15.30181641 24.07113281 16.23058594 24.0625 17.1875 C24.05798828 18.12787109 24.05347656 19.06824219 24.04882812 20.03710938 C24.03704626 22.35813712 24.02059558 24.67903644 24 27 C22.02 27 20.04 27 18 27 C17.97494385 26.43490723 17.9498877 25.86981445 17.92407227 25.28759766 C17.80820044 22.73316258 17.68543463 20.1791045 17.5625 17.625 C17.52318359 16.73554688 17.48386719 15.84609375 17.44335938 14.9296875 C17.40146484 14.07890625 17.35957031 13.228125 17.31640625 12.3515625 C17.27974854 11.56604004 17.24309082 10.78051758 17.20532227 9.97119141 C17.109109 7.92476504 17.109109 7.92476504 16 6 C13.12635209 5.58253392 13.12635209 5.58253392 10 6 C6.57307205 10.13817715 6.47308026 14.1785196 6.3125 19.3125 C6.27833984 20.05306641 6.24417969 20.79363281 6.20898438 21.55664062 C6.12706446 23.37058164 6.06184178 25.18526353 6 27 C4.02 27 2.04 27 0 27 C0 18.09 0 9.18 0 0 Z " fill="#706F6F" transform="translate(1317,280)"/>
<path d="M0 0 C3 0 6 0 9 0 C9.77214844 -0.04640625 10.54429688 -0.0928125 11.33984375 -0.140625 C18.38198013 -0.43713601 18.38198013 -0.43713601 21.5625 1.8125 C23.75765099 5.15294716 24.12249047 7.76899575 24.09765625 11.66796875 C24.09443359 12.56064453 24.09121094 13.45332031 24.08789062 14.37304688 C24.07951172 15.30181641 24.07113281 16.23058594 24.0625 17.1875 C24.05798828 18.12787109 24.05347656 19.06824219 24.04882812 20.03710938 C24.03704626 22.35813712 24.02059558 24.67903644 24 27 C22.02 27 20.04 27 18 27 C17.97494385 26.43490723 17.9498877 25.86981445 17.92407227 25.28759766 C17.80820044 22.73316258 17.68543463 20.1791045 17.5625 17.625 C17.52318359 16.73554688 17.48386719 15.84609375 17.44335938 14.9296875 C17.40146484 14.07890625 17.35957031 13.228125 17.31640625 12.3515625 C17.27974854 11.56604004 17.24309082 10.78051758 17.20532227 9.97119141 C17.109109 7.92476504 17.109109 7.92476504 16 6 C13.12635209 5.58253392 13.12635209 5.58253392 10 6 C6.57307205 10.13817715 6.47308026 14.1785196 6.3125 19.3125 C6.27833984 20.05306641 6.24417969 20.79363281 6.20898438 21.55664062 C6.12706446 23.37058164 6.06184178 25.18526353 6 27 C4.02 27 2.04 27 0 27 C0 18.09 0 9.18 0 0 Z " fill="#706F6F" transform="translate(1084,280)"/>
<path d="M0 0 C1.98 0 3.96 0 6 0 C8.15294651 5.28830549 10.27933894 10.55123997 12 16 C14.04060129 12.93909807 14.95646418 10.3655313 16.0625 6.875 C17.89630931 1.10369069 17.89630931 1.10369069 19 0 C20.99958364 -0.04080783 23.00045254 -0.04254356 25 0 C15.99997141 28.34080812 15.99997141 28.34080812 11 36 C7.78548731 37.60725635 4.56387464 37.05748185 1 37 C1.33 35.35 1.66 33.7 2 32 C3.65 31.67 5.3 31.34 7 31 C8.84437551 24.09566236 6.63526375 19.16406065 4.0625 12.6875 C3.30098802 10.7131626 2.54175328 8.73794485 1.78515625 6.76171875 C1.44363525 5.89506592 1.10211426 5.02841309 0.75024414 4.13549805 C0 2 0 2 0 0 Z " fill="#706F6F" transform="translate(1209,280)"/>
<path d="M0 0 C3 0 6 0 9 0 C9.68835938 -0.05800781 10.37671875 -0.11601562 11.0859375 -0.17578125 C15.47518483 -0.43793766 17.36799897 -0.47400078 21 2.25 C23.70163339 5.96474592 24.12994953 8.8070652 24.09765625 13.328125 C24.09443359 14.12734375 24.09121094 14.9265625 24.08789062 15.75 C24.07951172 16.575 24.07113281 17.4 24.0625 18.25 C24.05798828 19.09046875 24.05347656 19.9309375 24.04882812 20.796875 C24.03707961 22.86461401 24.01914522 24.93231624 24 27 C22.02 27 20.04 27 18 27 C17.93941406 25.73542969 17.87882813 24.47085937 17.81640625 23.16796875 C17.73199096 21.50780129 17.64734345 19.84764563 17.5625 18.1875 C17.52318359 17.35412109 17.48386719 16.52074219 17.44335938 15.66210938 C17.40146484 14.85966797 17.35957031 14.05722656 17.31640625 13.23046875 C17.27974854 12.49207764 17.24309082 11.75368652 17.20532227 10.99291992 C17.05157859 8.792505 17.05157859 8.792505 16 6 C13.36 6 10.72 6 8 6 C7.24722485 8.73249341 6.83358297 11.28100683 6.68359375 14.109375 C6.64169922 14.86347656 6.59980469 15.61757813 6.55664062 16.39453125 C6.49766602 17.56048828 6.49766602 17.56048828 6.4375 18.75 C6.39431641 19.54277344 6.35113281 20.33554687 6.30664062 21.15234375 C6.20097009 23.10137815 6.10002034 25.05066748 6 27 C4.02 27 2.04 27 0 27 C0 18.09 0 9.18 0 0 Z " fill="#706F6F" transform="translate(666,280)"/>
<path d="M0 0 C13.86 0 27.72 0 42 0 C42.495 1.485 42.495 1.485 43 3 C29.8 3 16.6 3 3 3 C3 10.59 3 18.18 3 26 C18.51 26 34.02 26 50 26 C50 26.99 50 27.98 50 29 C33.5 29 17 29 0 29 C-1.31998825 26.36002351 -1.12956032 24.35922683 -1.1328125 21.40625 C-1.13474609 19.73755859 -1.13474609 19.73755859 -1.13671875 18.03515625 C-1.13285156 16.86855469 -1.12898438 15.70195312 -1.125 14.5 C-1.12886719 13.33339844 -1.13273437 12.16679687 -1.13671875 10.96484375 C-1.13542969 9.85238281 -1.13414062 8.73992187 -1.1328125 7.59375 C-1.13112061 6.05750977 -1.13112061 6.05750977 -1.12939453 4.49023438 C-1 2 -1 2 0 0 Z " fill="#0080AD" transform="translate(300,210)"/>
<path d="M0 0 C3 0 6 0 9 0 C9.68835937 -0.05800781 10.37671875 -0.11601562 11.0859375 -0.17578125 C12.21902344 -0.24345703 12.21902344 -0.24345703 13.375 -0.3125 C14.50035156 -0.39951172 14.50035156 -0.39951172 15.6484375 -0.48828125 C19.51005824 0.3135503 20.74806988 1.78183016 23 5 C23.60461942 8.79121819 23.47163454 12.48592644 23.3125 16.3125 C23.28994141 17.33923828 23.26738281 18.36597656 23.24414062 19.42382812 C23.18537575 21.9507179 23.10327849 24.47460255 23 27 C21.35 27 19.7 27 18 27 C17.95101563 25.81921875 17.90203125 24.6384375 17.8515625 23.421875 C17.77651121 21.86456063 17.70096439 20.30727009 17.625 18.75 C17.5940625 17.97269531 17.563125 17.19539063 17.53125 16.39453125 C17.27341758 10.92620093 17.27341758 10.92620093 15 6 C12.69 6.33 10.38 6.66 8 7 C7.13580777 9.59257669 6.82419068 11.34037707 6.68359375 14.01171875 C6.64169922 14.76904297 6.59980469 15.52636719 6.55664062 16.30664062 C6.51732422 17.09232422 6.47800781 17.87800781 6.4375 18.6875 C6.39431641 19.48478516 6.35113281 20.28207031 6.30664062 21.10351562 C6.20072632 23.06881447 6.09987449 25.03438496 6 27 C4.02 27 2.04 27 0 27 C0 18.09 0 9.18 0 0 Z " fill="#706F6F" transform="translate(1141,280)"/>
<path d="M0 0 C1.65 0 3.3 0 5 0 C5.07347656 1.77117187 5.07347656 1.77117187 5.1484375 3.578125 C5.22348879 5.13543937 5.29903561 6.69272991 5.375 8.25 C5.4059375 9.02730469 5.436875 9.80460937 5.46875 10.60546875 C5.72658242 16.07379907 5.72658242 16.07379907 8 21 C11.465 20.505 11.465 20.505 15 20 C15.86419223 17.40742331 16.17580932 15.65962293 16.31640625 12.98828125 C16.35830078 12.23095703 16.40019531 11.47363281 16.44335938 10.69335938 C16.48267578 9.90767578 16.52199219 9.12199219 16.5625 8.3125 C16.60568359 7.51521484 16.64886719 6.71792969 16.69335938 5.89648438 C16.79927368 3.93118553 16.90012551 1.96561504 17 0 C18.98 0 20.96 0 23 0 C23 8.91 23 17.82 23 27 C20 27 17 27 14 27 C13.31164062 27.05800781 12.62328125 27.11601562 11.9140625 27.17578125 C10.78097656 27.24345703 10.78097656 27.24345703 9.625 27.3125 C8.49964844 27.39951172 8.49964844 27.39951172 7.3515625 27.48828125 C3.48994176 26.6864497 2.25193012 25.21816984 0 22 C-0.60461942 18.20878181 -0.47163454 14.51407356 -0.3125 10.6875 C-0.28994141 9.66076172 -0.26738281 8.63402344 -0.24414062 7.57617188 C-0.18537575 5.0492821 -0.10327849 2.52539745 0 0 Z " fill="#706F6F" transform="translate(919,280)"/>
<path d="M0 0 C1.65 0 3.3 0 5 0 C5.33 0.66 5.66 1.32 6 2 C6.99 1.34 7.98 0.68 9 0 C13.10043483 -0.58146129 16.80399225 -0.62790407 20.5 1.3125 C23.13646182 4.27851954 23.1206018 7.1007038 23.09765625 10.88671875 C23.09443359 11.82451172 23.09121094 12.76230469 23.08789062 13.72851562 C23.07951172 14.70498047 23.07113281 15.68144531 23.0625 16.6875 C23.05798828 17.67556641 23.05347656 18.66363281 23.04882812 19.68164062 C23.03704303 22.12115474 23.02059011 24.56054689 23 27 C21.02 27 19.04 27 17 27 C16.97494385 26.39937744 16.9498877 25.79875488 16.92407227 25.17993164 C16.8084472 22.47388563 16.68557064 19.76821717 16.5625 17.0625 C16.52318359 16.11697266 16.48386719 15.17144531 16.44335938 14.19726562 C16.40146484 13.29814453 16.35957031 12.39902344 16.31640625 11.47265625 C16.27974854 10.64000244 16.24309082 9.80734863 16.20532227 8.94946289 C16.20632897 6.99661142 16.20632897 6.99661142 15 6 C13.00041636 5.95919217 10.99954746 5.95745644 9 6 C5.33486792 12.69284989 5.3023429 19.48312986 5 27 C3.35 27 1.7 27 0 27 C0 18.09 0 9.18 0 0 Z " fill="#706F6F" transform="translate(870,280)"/>
<path d="M0 0 C1.67542976 0.28604898 3.34385343 0.61781233 5 1 C5.33 3.31 5.66 5.62 6 8 C19.86 8.33 33.72 8.66 48 9 C46 14 46 14 45 15 C42.01700199 15.1260341 39.05845006 15.18869843 36.07421875 15.203125 C34.72551445 15.21167511 34.72551445 15.21167511 33.3495636 15.22039795 C31.44212018 15.22986422 29.53466029 15.23638836 27.62719727 15.24023438 C24.71015758 15.24992473 21.79382679 15.28092623 18.87695312 15.3125 C17.02604586 15.31903128 15.17513355 15.32428126 13.32421875 15.328125 C12.45117599 15.3404718 11.57813324 15.3528186 10.67863464 15.36553955 C4.64925323 15.34340043 4.64925323 15.34340043 1.47973633 13.66699219 C-1.81886712 9.95096111 -1.15040898 5.66267836 -1 1 C-0.67 0.67 -0.34 0.34 0 0 Z " fill="#13899C" transform="translate(291,290)"/>
<path d="M0 0 C16.5 0 33 0 50 0 C50 1.65 50 3.3 50 5 C47.6154817 6.19225915 46.15090784 6.12682707 43.49023438 6.12939453 C42.55586548 6.13254669 41.62149658 6.13569885 40.65881348 6.13894653 C39.14160706 6.13591019 39.14160706 6.13591019 37.59375 6.1328125 C36.55810913 6.13376923 35.52246826 6.13472595 34.45544434 6.13571167 C32.2631016 6.13639298 30.07075685 6.13454209 27.87841797 6.13037109 C24.5139515 6.12502218 21.14961854 6.13031775 17.78515625 6.13671875 C15.65885387 6.13605796 13.53255157 6.13477678 11.40625 6.1328125 C10.39477905 6.13483673 9.38330811 6.13686096 8.34118652 6.13894653 C7.40681763 6.13579437 6.47244873 6.13264221 5.50976562 6.12939453 C4.68528931 6.12859894 3.86081299 6.12780334 3.01135254 6.12698364 C1 6 1 6 -1 5 C-0.67 3.35 -0.34 1.7 0 0 Z " fill="#3A9189" transform="translate(160,250)"/>
<path d="M0 0 C0 2.31 0 4.62 0 7 C1.98 7 3.96 7 6 7 C6 8.65 6 10.3 6 12 C4.02 12 2.04 12 0 12 C0.33 17.28 0.66 22.56 1 28 C2.98 28.33 4.96 28.66 7 29 C7 30.65 7 32.3 7 34 C5.58430936 34.08167446 4.16723195 34.13949698 2.75 34.1875 C1.56664062 34.23970703 1.56664062 34.23970703 0.359375 34.29296875 C-2.82331685 33.89776695 -3.93838409 33.51142302 -6 31 C-6.49773212 27.75967028 -6.3743237 24.5807788 -6.25 21.3125 C-6.23195313 20.41982422 -6.21390625 19.52714844 -6.1953125 18.60742188 C-6.14817759 16.40386496 -6.08240657 14.20247399 -6 12 C-7.98 12 -9.96 12 -12 12 C-12 10.35 -12 8.7 -12 7 C-10.02 7 -8.04 7 -6 7 C-6 5.02 -6 3.04 -6 1 C-3 0 -3 0 0 0 Z " fill="#706F6F" transform="translate(1247,273)"/>
<path d="M0 0 C0 2.31 0 4.62 0 7 C2.31 7 4.62 7 7 7 C7 8.65 7 10.3 7 12 C4.69 12 2.38 12 0 12 C0.33 17.61 0.66 23.22 1 29 C2.98 29 4.96 29 7 29 C7 30.65 7 32.3 7 34 C5.5629191 34.05422947 4.12524538 34.09289723 2.6875 34.125 C1.88699219 34.14820313 1.08648438 34.17140625 0.26171875 34.1953125 C-2 34 -2 34 -5 32 C-5.90238747 29.29283758 -6.11851302 27.76223232 -6.09765625 24.98828125 C-6.09443359 24.23095703 -6.09121094 23.47363281 -6.08789062 22.69335938 C-6.07951172 21.90767578 -6.07113281 21.12199219 -6.0625 20.3125 C-6.05798828 19.51521484 -6.05347656 18.71792969 -6.04882812 17.89648438 C-6.0370585 15.93095743 -6.01912348 13.96546915 -6 12 C-7.65 12 -9.3 12 -11 12 C-11 10.35 -11 8.7 -11 7 C-9.35 7 -7.7 7 -6 7 C-6 5.02 -6 3.04 -6 1 C-3 0 -3 0 0 0 Z " fill="#706F6F" transform="translate(1030,273)"/>
<path d="M0 0 C0.89847656 -0.00257813 1.79695312 -0.00515625 2.72265625 -0.0078125 C4.9375 0.125 4.9375 0.125 5.9375 1.125 C5.97813832 2.79117115 5.980221 4.45888095 5.9375 6.125 C2.9675 5.795 -0.0025 5.465 -3.0625 5.125 C-2.5054071 9.07108645 -2.5054071 9.07108645 -0.25 10.57421875 C0.471875 10.98285156 1.19375 11.39148438 1.9375 11.8125 C5.92484177 14.11234177 5.92484177 14.11234177 6.9375 15.125 C7.50468433 22.04464889 7.50468433 22.04464889 5.625 25.625 C1.3268493 28.02396783 -3.24409503 27.61082265 -8.0625 27.125 C-9.0625 26.125 -9.0625 26.125 -9.125 23.5625 C-9.104375 22.758125 -9.08375 21.95375 -9.0625 21.125 C-6.0925 21.125 -3.1225 21.125 -0.0625 21.125 C-0.58976203 17.16188443 -0.58976203 17.16188443 -2.875 15.8515625 C-3.596875 15.48804688 -4.31875 15.12453125 -5.0625 14.75 C-8.91624477 12.4944869 -8.91624477 12.4944869 -10.25 9.125 C-10.03054528 5.61372449 -9.19824725 3.89356125 -7.0625 1.125 C-4.56110398 -0.12569801 -2.78857309 -0.00802467 0 0 Z " fill="#706F6F" transform="translate(907.0625,279.875)"/>
<path d="M0 0 C0.99128906 -0.00257813 1.98257813 -0.00515625 3.00390625 -0.0078125 C5.4375 0.125 5.4375 0.125 6.4375 1.125 C6.47813832 2.79117115 6.480221 4.45888095 6.4375 6.125 C5.82261719 6.09019531 5.20773437 6.05539062 4.57421875 6.01953125 C3.76597656 5.99246094 2.95773437 5.96539062 2.125 5.9375 C1.32449219 5.90269531 0.52398438 5.86789062 -0.30078125 5.83203125 C-2.62302554 5.94108552 -2.62302554 5.94108552 -4.3046875 7.45703125 C-6.18764097 9.95399128 -6.37700556 12.03342599 -6.5625 15.125 C-5.86764736 17.90723378 -5.86764736 17.90723378 -4.5625 20.125 C-2.15704362 21.32772819 -0.61253047 21.22571472 2.0625 21.1875 C2.87976563 21.17847656 3.69703125 21.16945313 4.5390625 21.16015625 C5.16554688 21.14855469 5.79203125 21.13695312 6.4375 21.125 C6.480221 22.79111905 6.47813832 24.45882885 6.4375 26.125 C4.80640633 27.75609367 2.99562778 27.37372283 0.75 27.4375 C-4.15374394 27.36744652 -6.90754038 26.60166891 -10.5625 23.125 C-13.43234413 18.40364353 -14.0284034 14.62489878 -13.21484375 9.27734375 C-12.12435649 5.67938877 -10.24010562 3.73729817 -7.5625 1.125 C-4.93920316 -0.18664842 -2.92551375 -0.00762846 0 0 Z " fill="#706F6F" transform="translate(574.5625,279.875)"/>
<path d="M0 0 C0.99 0 1.98 0 3 0 C2.46246904 6.18160604 0.45417612 11.326858 -2 17 C-2.99 17 -3.98 17 -5 17 C-5.99 14.69 -6.98 12.38 -8 10 C-8.99 12.31 -9.98 14.62 -11 17 C-14 16 -14 16 -15.1875 13.9375 C-15.5896875 12.9784375 -15.5896875 12.9784375 -16 12 C-17.485 14.475 -17.485 14.475 -19 17 C-21.475 16.01 -21.475 16.01 -24 15 C-24.33 15.66 -24.66 16.32 -25 17 C-25.99 17 -26.98 17 -28 17 C-27.49287967 13.28111761 -26.88391785 10.26545761 -25 7 C-24.01 7 -23.02 7 -22 7 C-21.34 7.66 -20.68 8.32 -20 9 C-19.34 7.35 -18.68 5.7 -18 4 C-16.125 4.3125 -16.125 4.3125 -14 5 C-13.01 6.485 -13.01 6.485 -12 8 C-11.01 5.69 -10.02 3.38 -9 1 C-8.01 1 -7.02 1 -6 1 C-5.34 2.98 -4.68 4.96 -4 7 C-2.45428722 4.68143083 -1.20381448 2.49361571 0 0 Z " fill="#007FAE" transform="translate(334,216)"/>
<path d="M0 0 C5.28 0 10.56 0 16 0 C16 4.95 16 9.9 16 15 C10.72 15 5.44 15 0 15 C0 10.05 0 5.1 0 0 Z " fill="#706F6F" transform="translate(737,230)"/>
<path d="M0 0 C5 0 10 0 15 0 C15 1.65 15 3.3 15 5 C14.05125 5.2475 13.1025 5.495 12.125 5.75 C9.03288598 6.66939873 9.03288598 6.66939873 7.84375 8.5625 C6.6301485 12.0684599 6.53076499 15.57654237 6.375 19.25 C6.33632813 19.99507813 6.29765625 20.74015625 6.2578125 21.5078125 C6.16394892 23.3381524 6.08090282 25.16904143 6 27 C4.02 27 2.04 27 0 27 C0 18.09 0 9.18 0 0 Z " fill="#706F6F" transform="translate(723,280)"/>
<path d="M0 0 C1.6874269 0.00015917 3.37485866 0.00585622 5.06225586 0.01586914 C6.39189613 0.01799156 6.39189613 0.01799156 7.74839783 0.02015686 C10.59133215 0.02577324 13.43418892 0.03832848 16.27709961 0.05102539 C18.19962452 0.05603828 20.12215065 0.06060155 22.04467773 0.06469727 C26.7680151 0.07574798 31.49129419 0.09302356 36.21459961 0.11352539 C36.21459961 1.76352539 36.21459961 3.41352539 36.21459961 5.11352539 C23.01459961 5.11352539 9.81459961 5.11352539 -3.78540039 5.11352539 C-4.11540039 3.79352539 -4.44540039 2.47352539 -4.78540039 1.11352539 C-3.78540039 0.11352539 -3.78540039 0.11352539 0 0 Z " fill="#3E9187" transform="translate(168.785400390625,256.886474609375)"/>
<path d="M0 0 C1.65 0 3.3 0 5 0 C5 12.87 5 25.74 5 39 C3.35 39 1.7 39 0 39 C0 26.13 0 13.26 0 0 Z " fill="#706F6F" transform="translate(586,268)"/>
<path d="M0 0 C0.33 0.99 0.66 1.98 1 3 C0.67 3.66 0.34 4.32 0 5 C-2.05882496 5.29748401 -4.12233332 5.56281318 -6.1875 5.8125 C-10.74222428 6.74346562 -12.46333149 7.24560833 -15.1953125 11.0859375 C-16.6633294 14.35528915 -17.93169912 17.58046158 -19 21 C-20.65 20.67 -22.3 20.34 -24 20 C-23.40245893 14.32335986 -21.75818292 8.99478637 -19 4 C-14.30456137 0.50572009 -5.74520705 -2.3582946 0 0 Z " fill="#258D93" transform="translate(240,246)"/>
<path d="M0 0 C1.98 0 3.96 0 6 0 C6 8.91 6 17.82 6 27 C4.02 27 2.04 27 0 27 C0 18.09 0 9.18 0 0 Z " fill="#706F6F" transform="translate(1128,280)"/>
<path d="M0 0 C1.65 0 3.3 0 5 0 C5 8.91 5 17.82 5 27 C3.35 27 1.7 27 0 27 C0 18.09 0 9.18 0 0 Z " fill="#706F6F" transform="translate(1042,280)"/>
<path d="M0 0 C1.65 0 3.3 0 5 0 C5 8.91 5 17.82 5 27 C3.35 27 1.7 27 0 27 C0 18.09 0 9.18 0 0 Z " fill="#706F6F" transform="translate(551,280)"/>
<path d="M0 0 C2.31 0 4.62 0 7 0 C7 2.31 7 4.62 7 7 C4.69 7 2.38 7 0 7 C0 4.69 0 2.38 0 0 Z " fill="#706F6F" transform="translate(1041,269)"/>
<path d="M0 0 C2.31 0 4.62 0 7 0 C7 2.31 7 4.62 7 7 C4.69 7 2.38 7 0 7 C0 4.69 0 2.38 0 0 Z " fill="#706F6F" transform="translate(550,269)"/>
<path d="M0 0 C1.98 0 3.96 0 6 0 C6 2.31 6 4.62 6 7 C4.02 7 2.04 7 0 7 C0 4.69 0 2.38 0 0 Z " fill="#706F6F" transform="translate(1128,269)"/>
</svg>
