<?xml version="1.0" encoding="UTF-8" standalone="no"?>
<!-- Created with Inkscape (http://www.inkscape.org/) -->

<svg
   version="1.1"
   id="svg1"
   width="205.67883"
   height="107.3754"
   viewBox="0 0 205.67883 107.3754"
   sodipodi:docname="Venehsoftw.svg"
   inkscape:version="1.3.2 (091e20e, 2023-11-25)"
   xmlns:inkscape="http://www.inkscape.org/namespaces/inkscape"
   xmlns:sodipodi="http://sodipodi.sourceforge.net/DTD/sodipodi-0.dtd"
   xmlns="http://www.w3.org/2000/svg"
   xmlns:svg="http://www.w3.org/2000/svg">
  <defs
     id="defs1" />
  <sodipodi:namedview
     id="namedview1"
     pagecolor="#ffffff"
     bordercolor="#000000"
     borderopacity="0.25"
     inkscape:showpageshadow="2"
     inkscape:pageopacity="0.0"
     inkscape:pagecheckerboard="0"
     inkscape:deskcolor="#d1d1d1"
     inkscape:zoom="1.0488889"
     inkscape:cx="102.9661"
     inkscape:cy="71.980932"
     inkscape:window-width="1312"
     inkscape:window-height="658"
     inkscape:window-x="71"
     inkscape:window-y="127"
     inkscape:window-maximized="0"
     inkscape:current-layer="g1" />
  <g
     inkscape:groupmode="layer"
     inkscape:label="Image"
     id="g1"
     transform="translate(-9.2867539,-40.124597)">
    <g
       id="g8">
      <path
         style="fill:#f6db68"
         d="m 128.19495,144.5 0.037,-3 0.46099,1.76903 0.46099,1.76903 -0.49804,1.23097 -0.49805,1.23097 z m 7.12971,1.84201 0.65799,-0.65799 -1.24133,-1.50463 -1.24132,-1.50463 1.5,0.49548 1.5,0.49549 0.32332,1.66714 0.32333,1.66713 h -1.23999 -1.23999 z m 2.87029,-1.84201 0.037,-3 0.46099,1.76903 0.46099,1.76903 -0.49804,1.23097 -0.49805,1.23097 z m 8.06179,1.5 0.40899,-1.5 1.66714,-0.32332 1.66713,-0.32333 -0.0153,1.82333 -0.0153,1.82332 -0.98468,-1.5 -0.98469,-1.5 -1.07613,1.5 -1.07613,1.5 z m 7.07909,-0.56722 -0.6014,-1.56721 0.88279,-0.88279 L 154.5,142.1 v 2.45 2.45 h -0.28138 -0.28139 z m 10.09274,-0.26611 v -1.83334 h 1.2317 1.2317 L 164.9108,145.16667 163.92963,147 h -0.25053 -0.25053 z M 168.15789,145 v -2.5 l 0.50439,1.25 0.50439,1.25 -0.50439,1.25 -0.50439,1.25 z m 1.95811,0.97224 -0.116,-1.52776 2,-1.71245 2,-1.71246 -0.116,3.24022 -0.116,3.24021 -0.45733,-1.75 -0.45732,-1.75 H 172 171.14665 l -0.45732,1.75 -0.45733,1.75 z M 141,144 l -1.5,-0.96937 1.75,-0.0153 L 143,143 v 1 1 l -0.25,-0.0153 -0.25,-0.0153 z M 16.210708,132.75389 15.092607,131.40666 12.18968,123.20333 9.2867539,115 h 2.7750921 2.775093 l 2.231666,6.70616 2.231665,6.70615 1.998855,-6.70615 L 23.29798,115 h 2.829743 2.829743 l -3.33173,9.25 -3.331731,9.25 -2.482598,0.30056 -2.482599,0.30056 z M 31.07258,131.36514 29,128.73028 v -2.91059 -2.9106 L 31.454545,120.45455 33.909091,118 H 36.954545 40 l 2,2 2,2 v 2.44774 2.44774 l -4.969744,0.30226 -4.969744,0.30226 0.939231,1.5 0.939232,1.5 2.016944,-1.25 2.016943,-1.25 H 41.986431 44 v 1 1 l -2,2 -2,2 H 36.57258 33.14516 Z M 38.5,123 37.881966,122 H 36.440983 35 v 1 1 h 2.059017 2.059017 z m 7.917143,9.64467 -0.520088,-1.35532 0.301472,-6.39468 L 46.5,118.5 48.75,118.18045 51,117.8609 v 1.26955 1.26955 l 1.2,-1.2 1.2,-1.2 h 2.228571 2.228572 l 1.616131,1.61613 1.616132,1.61613 -0.294703,6.13387 L 60.5,133.5 58.25,133.81955 56,134.1391 v -5.60093 -5.60094 l -1.600925,-0.61433 -1.600925,-0.61433 -0.883762,1.39571 -0.883762,1.39572 -0.01531,4.75 L 51,134 H 48.968615 46.93723 Z M 65,132 63,130 v -3.96104 -3.96105 L 65.188561,120.03896 67.377123,118 h 3.238858 3.238859 l 2.07258,2.63486 L 78,123.26972 V 125.13486 127 h -5 -5 v 1.03138 1.03139 l 1.567217,0.6014 1.567218,0.6014 1.132782,-1.13279 L 73.4,128 h 1.8 1.8 v 1.34501 1.34501 L 75.171259,132.34501 73.342519,134 H 70.171259 67 Z m 7,-9 v -1 H 70.559017 69.118034 L 68.5,123 67.881966,124 H 69.940983 72 Z M 80.708849,133.37552 80,132.66667 V 123.83333 115 h 3 3 v 3.5 3.5 h 3.5 3.5 v -3.5 -3.5 h 2.537526 2.537526 L 97.787526,124.25 97.5,133.5 95.25,133.81955 93,134.1391 V 130.06955 126 h -3.439635 -3.439634 l -0.310366,3.75 -0.310365,3.75 -2.041151,0.29218 -2.041151,0.29219 z M 100.75,131.75 98.5,129.5 l 2.81047,-0.32226 2.81047,-0.32226 1.3505,1.12082 1.3505,1.12082 0.5953,-0.96321 0.59529,-0.96321 -3.75626,-1.83535 L 100.5,125.5 l -0.30322,-2.12535 -0.303214,-2.12536 1.624644,-1.62464 L 103.14286,118 h 3.27358 3.27358 l 1.65499,1.82874 L 113,121.65748 V 122.32874 123 h -2.44098 -2.44099 l -0.62811,-1.01631 -0.62812,-1.01631 -1.03208,0.63786 -1.03209,0.63787 3.85119,2.15547 3.85118,2.15548 0.34497,2.41694 0.34497,2.41694 -1.7861,1.30603 L 109.61774,134 H 106.30887 103 Z M 116.07258,131.36514 114,128.73028 V 126 123.26972 l 2.07258,-2.63486 L 118.14516,118 h 3.47287 3.47288 l 2.45454,2.45455 L 130,122.90909 V 126 v 3.09091 l -2.45455,2.45454 L 125.09091,134 h -3.47288 -3.47287 z M 124,126 v -4 h -1.93261 -1.93261 l -0.63478,2 -0.63478,2 0.63478,2 0.63478,2 H 122.06739 124 Z m 8.66667,7.33333 L 132,132.66667 V 127.33333 122 h -1 -1 v -1.5 -1.5 h 0.78076 0.78076 l 1.13238,-3 1.13237,-3 H 137.41314 141 v 1.37803 1.37803 l -2.25,1.56952 -2.25,1.56952 3.25,0.0525 L 143,119 v -2 -2 h 2.5 2.5 v 2.01814 2.01815 l 4.17842,-0.26815 4.17842,-0.26814 1.2234,4.5 1.22341,4.5 0.0982,-2.66821 0.0982,-2.66822 0.60699,-1.58178 L 160.21398,119 h 2.87396 2.87396 l 0.48011,2.25 0.48012,2.25 0.36658,2 0.36657,2 0.95242,-4.49209 0.95243,-4.4921 1.82615,-0.35168 1.82616,-0.35169 0.89509,0.89509 0.8951,0.8951 -2.34398,6.94868 -2.34397,6.94869 H 167.40734 164.5 l -0.31336,-3.25 -0.31336,-3.25 H 163 162.12672 l -0.31336,3.25 -0.31336,3.25 h -2.91486 -2.91486 l -2.25706,-6.5 -2.25707,-6.5 -0.0781,1.25 L 151,123 h -1.5 -1.5 v 3.5 3.5 h 1.5 1.5 v 2.06037 2.06036 l -3.75,-0.31036 -3.75,-0.31037 -0.31421,-4.98067 -0.31421,-4.98067 -1.18579,-0.75402 -1.18579,-0.75401 -1.75,-0.0153 L 137,122 v 6 6 h -1.83333 -1.83334 z m 49.89637,-25.23134 -0.60528,-0.97936 L 185.6181,92.311316 189.27845,77.5 190.15643,76.532793 191.03441,75.565587 203,87.5 l 11.96559,11.934413 -0.7328,0.693237 -0.73279,0.69324 -13.5,3.65151 -13.5,3.65152 -1.66584,0.47872 -1.66585,0.47871 z m -23.53214,-17.681556 -12.46909,-3.374607 -1.47304,-0.565258 -1.47304,-0.565257 11.9304,-11.961567 11.93041,-11.961566 0.936,0.312002 0.93601,0.312001 3.8149,14.441909 3.8149,14.441909 0.0108,1.25 L 177,94 174.25,93.89752 171.5,93.795041 Z M 178,57.675648 V 41.118034 l 0.80371,-0.496719 0.80371,-0.496718 13.67273,7.687701 13.67273,7.687702 0.002,1.5 0.002,1.5 -12.42311,7.329096 -12.42311,7.329095 -2.05554,0.537536 L 178,74.233263 Z"
         id="path14" />
      <path
         style="fill:#7be5d6"
         d="m 128.19495,144.5 0.037,-3 0.46099,1.76903 0.46099,1.76903 -0.49804,1.23097 -0.49805,1.23097 z m 7.12971,1.84201 0.65799,-0.65799 -1.24133,-1.50463 -1.24132,-1.50463 1.5,0.49548 1.5,0.49549 0.32332,1.66714 0.32333,1.66713 h -1.23999 -1.23999 z m 2.87029,-1.84201 0.037,-3 0.46099,1.76903 0.46099,1.76903 -0.49804,1.23097 -0.49805,1.23097 z m 8.06179,1.5 0.40899,-1.5 1.66714,-0.32332 1.66713,-0.32333 -0.0153,1.82333 -0.0153,1.82332 -0.98468,-1.5 -0.98469,-1.5 -1.07613,1.5 -1.07613,1.5 z m 7.07909,-0.56722 -0.6014,-1.56721 0.88279,-0.88279 L 154.5,142.1 v 2.45 2.45 h -0.28138 -0.28139 z m 10.09274,-0.26611 v -1.83334 h 1.2317 1.2317 L 164.9108,145.16667 163.92963,147 h -0.25053 -0.25053 z M 168.15789,145 v -2.5 l 0.50439,1.25 0.50439,1.25 -0.50439,1.25 -0.50439,1.25 z m 1.95811,0.97224 -0.116,-1.52776 2,-1.71245 2,-1.71246 -0.116,3.24022 -0.116,3.24021 -0.45733,-1.75 -0.45732,-1.75 H 172 171.14665 l -0.45732,1.75 -0.45733,1.75 z M 141,144 l -1.5,-0.96937 1.75,-0.0153 L 143,143 v 1 1 l -0.25,-0.0153 -0.25,-0.0153 z M 16.210708,132.75389 15.092607,131.40666 12.18968,123.20333 9.2867539,115 h 2.7750921 2.775093 l 2.231666,6.70616 2.231665,6.70615 1.998855,-6.70615 L 23.29798,115 h 2.829743 2.829743 l -3.33173,9.25 -3.331731,9.25 -2.482598,0.30056 -2.482599,0.30056 z M 31.07258,131.36514 29,128.73028 v -2.91059 -2.9106 L 31.454545,120.45455 33.909091,118 H 36.954545 40 l 2,2 2,2 v 2.44774 2.44774 l -4.969744,0.30226 -4.969744,0.30226 0.939231,1.5 0.939232,1.5 2.016944,-1.25 2.016943,-1.25 H 41.986431 44 v 1 1 l -2,2 -2,2 H 36.57258 33.14516 Z M 38.5,123 37.881966,122 H 36.440983 35 v 1 1 h 2.059017 2.059017 z m 7.917143,9.64467 -0.520088,-1.35532 0.301472,-6.39468 L 46.5,118.5 48.75,118.18045 51,117.8609 v 1.26955 1.26955 l 1.2,-1.2 1.2,-1.2 h 2.228571 2.228572 l 1.616131,1.61613 1.616132,1.61613 -0.294703,6.13387 L 60.5,133.5 58.25,133.81955 56,134.1391 v -5.60093 -5.60094 l -1.600925,-0.61433 -1.600925,-0.61433 -0.883762,1.39571 -0.883762,1.39572 -0.01531,4.75 L 51,134 H 48.968615 46.93723 Z M 65,132 63,130 v -3.96104 -3.96105 L 65.188561,120.03896 67.377123,118 h 3.238858 3.238859 l 2.07258,2.63486 L 78,123.26972 V 125.13486 127 h -5 -5 v 1.03138 1.03139 l 1.567217,0.6014 1.567218,0.6014 1.132782,-1.13279 L 73.4,128 h 1.8 1.8 v 1.34501 1.34501 L 75.171259,132.34501 73.342519,134 H 70.171259 67 Z m 7,-9 v -1 H 70.559017 69.118034 L 68.5,123 67.881966,124 H 69.940983 72 Z M 80.708849,133.37552 80,132.66667 V 123.83333 115 h 3 3 v 3.5 3.5 h 3.5 3.5 v -3.5 -3.5 h 2.537526 2.537526 L 97.787526,124.25 97.5,133.5 95.25,133.81955 93,134.1391 V 130.06955 126 h -3.439635 -3.439634 l -0.310366,3.75 -0.310365,3.75 -2.041151,0.29218 -2.041151,0.29219 z M 100.75,131.75 98.5,129.5 l 2.81047,-0.32226 2.81047,-0.32226 1.3505,1.12082 1.3505,1.12082 0.5953,-0.96321 0.59529,-0.96321 -3.75626,-1.83535 L 100.5,125.5 l -0.30322,-2.12535 -0.303214,-2.12536 1.624644,-1.62464 L 103.14286,118 h 3.27358 3.27358 l 1.65499,1.82874 L 113,121.65748 V 122.32874 123 h -2.44098 -2.44099 l -0.62811,-1.01631 -0.62812,-1.01631 -1.03208,0.63786 -1.03209,0.63787 3.85119,2.15547 3.85118,2.15548 0.34497,2.41694 0.34497,2.41694 -1.7861,1.30603 L 109.61774,134 H 106.30887 103 Z M 116.07258,131.36514 114,128.73028 V 126 123.26972 l 2.07258,-2.63486 L 118.14516,118 h 3.47287 3.47288 l 2.45454,2.45455 L 130,122.90909 V 126 v 3.09091 l -2.45455,2.45454 L 125.09091,134 h -3.47288 -3.47287 z M 124,126 v -4 h -1.93261 -1.93261 l -0.63478,2 -0.63478,2 0.63478,2 0.63478,2 H 122.06739 124 Z m 8.66667,7.33333 L 132,132.66667 V 127.33333 122 h -1 -1 v -1.5 -1.5 h 0.78076 0.78076 l 1.13238,-3 1.13237,-3 H 137.41314 141 v 1.37803 1.37803 l -2.25,1.56952 -2.25,1.56952 3.25,0.0525 L 143,119 v -2 -2 h 2.5 2.5 v 2.01814 2.01815 l 4.17842,-0.26815 4.17842,-0.26814 1.2234,4.5 1.22341,4.5 0.0982,-2.66821 0.0982,-2.66822 0.60699,-1.58178 L 160.21398,119 h 2.87396 2.87396 l 0.48011,2.25 0.48012,2.25 0.36658,2 0.36657,2 0.95242,-4.49209 0.95243,-4.4921 1.82615,-0.35168 1.82616,-0.35169 0.89509,0.89509 0.8951,0.8951 -2.34398,6.94868 -2.34397,6.94869 H 167.40734 164.5 l -0.31336,-3.25 -0.31336,-3.25 H 163 162.12672 l -0.31336,3.25 -0.31336,3.25 h -2.91486 -2.91486 l -2.25706,-6.5 -2.25707,-6.5 -0.0781,1.25 L 151,123 h -1.5 -1.5 v 3.5 3.5 h 1.5 1.5 v 2.06037 2.06036 l -3.75,-0.31036 -3.75,-0.31037 -0.31421,-4.98067 -0.31421,-4.98067 -1.18579,-0.75402 -1.18579,-0.75401 -1.75,-0.0153 L 137,122 v 6 6 h -1.83333 -1.83334 z m 49.89637,-25.23134 -0.60528,-0.97936 L 185.6181,92.311316 189.27845,77.5 190.15643,76.532793 191.03441,75.565587 203,87.5 l 11.96559,11.934413 -0.7328,0.693237 -0.73279,0.69324 -13.5,3.65151 -13.5,3.65152 -1.66584,0.47872 -1.66585,0.47871 z m -23.53214,-17.681556 -12.46909,-3.374607 -1.47304,-0.565258 -1.47304,-0.565257 11.9304,-11.961567 11.93041,-11.961566 0.936,0.312002 0.93601,0.312001 3.8149,14.441909 3.8149,14.441909 0.0108,1.25 L 177,94 174.25,93.89752 171.5,93.795041 Z"
         id="path13" />
      <path
         style="fill:#e584c2"
         d="m 128.19495,144.5 0.037,-3 0.46099,1.76903 0.46099,1.76903 -0.49804,1.23097 -0.49805,1.23097 z m 7.12971,1.84201 0.65799,-0.65799 -1.24133,-1.50463 -1.24132,-1.50463 1.5,0.49548 1.5,0.49549 0.32332,1.66714 0.32333,1.66713 h -1.23999 -1.23999 z m 2.87029,-1.84201 0.037,-3 0.46099,1.76903 0.46099,1.76903 -0.49804,1.23097 -0.49805,1.23097 z m 8.06179,1.5 0.40899,-1.5 1.66714,-0.32332 1.66713,-0.32333 -0.0153,1.82333 -0.0153,1.82332 -0.98468,-1.5 -0.98469,-1.5 -1.07613,1.5 -1.07613,1.5 z m 7.07909,-0.56722 -0.6014,-1.56721 0.88279,-0.88279 L 154.5,142.1 v 2.45 2.45 h -0.28138 -0.28139 z m 10.09274,-0.26611 v -1.83334 h 1.2317 1.2317 L 164.9108,145.16667 163.92963,147 h -0.25053 -0.25053 z M 168.15789,145 v -2.5 l 0.50439,1.25 0.50439,1.25 -0.50439,1.25 -0.50439,1.25 z m 1.95811,0.97224 -0.116,-1.52776 2,-1.71245 2,-1.71246 -0.116,3.24022 -0.116,3.24021 -0.45733,-1.75 -0.45732,-1.75 H 172 171.14665 l -0.45732,1.75 -0.45733,1.75 z M 141,144 l -1.5,-0.96937 1.75,-0.0153 L 143,143 v 1 1 l -0.25,-0.0153 -0.25,-0.0153 z M 16.210708,132.75389 15.092607,131.40666 12.18968,123.20333 9.2867539,115 h 2.7750921 2.775093 l 2.231666,6.70616 2.231665,6.70615 1.998855,-6.70615 L 23.29798,115 h 2.829743 2.829743 l -3.33173,9.25 -3.331731,9.25 -2.482598,0.30056 -2.482599,0.30056 z M 31.07258,131.36514 29,128.73028 v -2.91059 -2.9106 L 31.454545,120.45455 33.909091,118 H 36.954545 40 l 2,2 2,2 v 2.44774 2.44774 l -4.969744,0.30226 -4.969744,0.30226 0.939231,1.5 0.939232,1.5 2.016944,-1.25 2.016943,-1.25 H 41.986431 44 v 1 1 l -2,2 -2,2 H 36.57258 33.14516 Z M 38.5,123 37.881966,122 H 36.440983 35 v 1 1 h 2.059017 2.059017 z m 7.917143,9.64467 -0.520088,-1.35532 0.301472,-6.39468 L 46.5,118.5 48.75,118.18045 51,117.8609 v 1.26955 1.26955 l 1.2,-1.2 1.2,-1.2 h 2.228571 2.228572 l 1.616131,1.61613 1.616132,1.61613 -0.294703,6.13387 L 60.5,133.5 58.25,133.81955 56,134.1391 v -5.60093 -5.60094 l -1.600925,-0.61433 -1.600925,-0.61433 -0.883762,1.39571 -0.883762,1.39572 -0.01531,4.75 L 51,134 H 48.968615 46.93723 Z M 65,132 63,130 v -3.96104 -3.96105 L 65.188561,120.03896 67.377123,118 h 3.238858 3.238859 l 2.07258,2.63486 L 78,123.26972 V 125.13486 127 h -5 -5 v 1.03138 1.03139 l 1.567217,0.6014 1.567218,0.6014 1.132782,-1.13279 L 73.4,128 h 1.8 1.8 v 1.34501 1.34501 L 75.171259,132.34501 73.342519,134 H 70.171259 67 Z m 7,-9 v -1 H 70.559017 69.118034 L 68.5,123 67.881966,124 H 69.940983 72 Z M 80.708849,133.37552 80,132.66667 V 123.83333 115 h 3 3 v 3.5 3.5 h 3.5 3.5 v -3.5 -3.5 h 2.537526 2.537526 L 97.787526,124.25 97.5,133.5 95.25,133.81955 93,134.1391 V 130.06955 126 h -3.439635 -3.439634 l -0.310366,3.75 -0.310365,3.75 -2.041151,0.29218 -2.041151,0.29219 z M 100.75,131.75 98.5,129.5 l 2.81047,-0.32226 2.81047,-0.32226 1.3505,1.12082 1.3505,1.12082 0.5953,-0.96321 0.59529,-0.96321 -3.75626,-1.83535 L 100.5,125.5 l -0.30322,-2.12535 -0.303214,-2.12536 1.624644,-1.62464 L 103.14286,118 h 3.27358 3.27358 l 1.65499,1.82874 L 113,121.65748 V 122.32874 123 h -2.44098 -2.44099 l -0.62811,-1.01631 -0.62812,-1.01631 -1.03208,0.63786 -1.03209,0.63787 3.85119,2.15547 3.85118,2.15548 0.34497,2.41694 0.34497,2.41694 -1.7861,1.30603 L 109.61774,134 H 106.30887 103 Z M 116.07258,131.36514 114,128.73028 V 126 123.26972 l 2.07258,-2.63486 L 118.14516,118 h 3.47287 3.47288 l 2.45454,2.45455 L 130,122.90909 V 126 v 3.09091 l -2.45455,2.45454 L 125.09091,134 h -3.47288 -3.47287 z M 124,126 v -4 h -1.93261 -1.93261 l -0.63478,2 -0.63478,2 0.63478,2 0.63478,2 H 122.06739 124 Z m 8.66667,7.33333 L 132,132.66667 V 127.33333 122 h -1 -1 v -1.5 -1.5 h 0.78076 0.78076 l 1.13238,-3 1.13237,-3 H 137.41314 141 v 1.37803 1.37803 l -2.25,1.56952 -2.25,1.56952 3.25,0.0525 L 143,119 v -2 -2 h 2.5 2.5 v 2.01814 2.01815 l 4.17842,-0.26815 4.17842,-0.26814 1.2234,4.5 1.22341,4.5 0.0982,-2.66821 0.0982,-2.66822 0.60699,-1.58178 L 160.21398,119 h 2.87396 2.87396 l 0.48011,2.25 0.48012,2.25 0.36658,2 0.36657,2 0.95242,-4.49209 0.95243,-4.4921 1.82615,-0.35168 1.82616,-0.35169 0.89509,0.89509 0.8951,0.8951 -2.34398,6.94868 -2.34397,6.94869 H 167.40734 164.5 l -0.31336,-3.25 -0.31336,-3.25 H 163 162.12672 l -0.31336,3.25 -0.31336,3.25 h -2.91486 -2.91486 l -2.25706,-6.5 -2.25707,-6.5 -0.0781,1.25 L 151,123 h -1.5 -1.5 v 3.5 3.5 h 1.5 1.5 v 2.06037 2.06036 l -3.75,-0.31036 -3.75,-0.31037 -0.31421,-4.98067 -0.31421,-4.98067 -1.18579,-0.75402 -1.18579,-0.75401 -1.75,-0.0153 L 137,122 v 6 6 h -1.83333 -1.83334 z m 49.89637,-25.23134 -0.60528,-0.97936 L 185.6181,92.311316 189.27845,77.5 190.15643,76.532793 191.03441,75.565587 203,87.5 l 11.96559,11.934413 -0.7328,0.693237 -0.73279,0.69324 -13.5,3.65151 -13.5,3.65152 -1.66584,0.47872 -1.66585,0.47871 z"
         id="path12" />
      <path
         style="fill:#e47ec0"
         d="m 128.19495,144.5 0.037,-3 0.46099,1.76903 0.46099,1.76903 -0.49804,1.23097 -0.49805,1.23097 z m 7.12971,1.84201 0.65799,-0.65799 -1.24133,-1.50463 -1.24132,-1.50463 1.5,0.49548 1.5,0.49549 0.32332,1.66714 0.32333,1.66713 h -1.23999 -1.23999 z m 2.87029,-1.84201 0.037,-3 0.46099,1.76903 0.46099,1.76903 -0.49804,1.23097 -0.49805,1.23097 z m 8.06179,1.5 0.40899,-1.5 1.66714,-0.32332 1.66713,-0.32333 -0.0153,1.82333 -0.0153,1.82332 -0.98468,-1.5 -0.98469,-1.5 -1.07613,1.5 -1.07613,1.5 z m 7.07909,-0.56722 -0.6014,-1.56721 0.88279,-0.88279 L 154.5,142.1 v 2.45 2.45 h -0.28138 -0.28139 z m 10.09274,-0.26611 v -1.83334 h 1.2317 1.2317 L 164.9108,145.16667 163.92963,147 h -0.25053 -0.25053 z M 168.15789,145 v -2.5 l 0.50439,1.25 0.50439,1.25 -0.50439,1.25 -0.50439,1.25 z m 1.95811,0.97224 -0.116,-1.52776 2,-1.71245 2,-1.71246 -0.116,3.24022 -0.116,3.24021 -0.45733,-1.75 -0.45732,-1.75 H 172 171.14665 l -0.45732,1.75 -0.45733,1.75 z M 141,144 l -1.5,-0.96937 1.75,-0.0153 L 143,143 v 1 1 l -0.25,-0.0153 -0.25,-0.0153 z M 16.210708,132.75389 15.092607,131.40666 12.18968,123.20333 9.2867539,115 h 2.7750921 2.775093 l 2.231666,6.70616 2.231665,6.70615 1.998855,-6.70615 L 23.29798,115 h 2.829743 2.829743 l -3.33173,9.25 -3.331731,9.25 -2.482598,0.30056 -2.482599,0.30056 z M 31.07258,131.36514 29,128.73028 v -2.91059 -2.9106 L 31.454545,120.45455 33.909091,118 H 36.954545 40 l 2,2 2,2 v 2.44774 2.44774 l -4.969744,0.30226 -4.969744,0.30226 0.939231,1.5 0.939232,1.5 2.016944,-1.25 2.016943,-1.25 H 41.986431 44 v 1 1 l -2,2 -2,2 H 36.57258 33.14516 Z M 38.5,123 37.881966,122 H 36.440983 35 v 1 1 h 2.059017 2.059017 z m 7.917143,9.64467 -0.520088,-1.35532 0.301472,-6.39468 L 46.5,118.5 48.75,118.18045 51,117.8609 v 1.26955 1.26955 l 1.2,-1.2 1.2,-1.2 h 2.228571 2.228572 l 1.616131,1.61613 1.616132,1.61613 -0.294703,6.13387 L 60.5,133.5 58.25,133.81955 56,134.1391 v -5.60093 -5.60094 l -1.600925,-0.61433 -1.600925,-0.61433 -0.883762,1.39571 -0.883762,1.39572 -0.01531,4.75 L 51,134 H 48.968615 46.93723 Z M 65,132 63,130 v -3.96104 -3.96105 L 65.188561,120.03896 67.377123,118 h 3.238858 3.238859 l 2.07258,2.63486 L 78,123.26972 V 125.13486 127 h -5 -5 v 1.03138 1.03139 l 1.567217,0.6014 1.567218,0.6014 1.132782,-1.13279 L 73.4,128 h 1.8 1.8 v 1.34501 1.34501 L 75.171259,132.34501 73.342519,134 H 70.171259 67 Z m 7,-9 v -1 H 70.559017 69.118034 L 68.5,123 67.881966,124 H 69.940983 72 Z M 80.708849,133.37552 80,132.66667 V 123.83333 115 h 3 3 v 3.5 3.5 h 3.5 3.5 v -3.5 -3.5 h 2.537526 2.537526 L 97.787526,124.25 97.5,133.5 95.25,133.81955 93,134.1391 V 130.06955 126 h -3.439635 -3.439634 l -0.310366,3.75 -0.310365,3.75 -2.041151,0.29218 -2.041151,0.29219 z M 100.75,131.75 98.5,129.5 l 2.81047,-0.32226 2.81047,-0.32226 1.3505,1.12082 1.3505,1.12082 0.5953,-0.96321 0.59529,-0.96321 -3.75626,-1.83535 L 100.5,125.5 l -0.30322,-2.12535 -0.303214,-2.12536 1.624644,-1.62464 L 103.14286,118 h 3.27358 3.27358 l 1.65499,1.82874 L 113,121.65748 V 122.32874 123 h -2.44098 -2.44099 l -0.62811,-1.01631 -0.62812,-1.01631 -1.03208,0.63786 -1.03209,0.63787 3.85119,2.15547 3.85118,2.15548 0.34497,2.41694 0.34497,2.41694 -1.7861,1.30603 L 109.61774,134 H 106.30887 103 Z M 116.07258,131.36514 114,128.73028 V 126 123.26972 l 2.07258,-2.63486 L 118.14516,118 h 3.47287 3.47288 l 2.45454,2.45455 L 130,122.90909 V 126 v 3.09091 l -2.45455,2.45454 L 125.09091,134 h -3.47288 -3.47287 z M 124,126 v -4 h -1.93261 -1.93261 l -0.63478,2 -0.63478,2 0.63478,2 0.63478,2 H 122.06739 124 Z m 8.66667,7.33333 L 132,132.66667 V 127.33333 122 h -1 -1 v -1.5 -1.5 h 0.78076 0.78076 l 1.13238,-3 1.13237,-3 H 137.41314 141 v 1.37803 1.37803 l -2.25,1.56952 -2.25,1.56952 3.25,0.0525 L 143,119 v -2 -2 h 2.5 2.5 v 2.01814 2.01815 l 4.17842,-0.26815 4.17842,-0.26814 1.2234,4.5 1.22341,4.5 0.0982,-2.66821 0.0982,-2.66822 0.60699,-1.58178 L 160.21398,119 h 2.87396 2.87396 l 0.48011,2.25 0.48012,2.25 0.36658,2 0.36657,2 0.95242,-4.49209 0.95243,-4.4921 1.82615,-0.35168 1.82616,-0.35169 0.89509,0.89509 0.8951,0.8951 -2.34398,6.94868 -2.34397,6.94869 H 167.40734 164.5 l -0.31336,-3.25 -0.31336,-3.25 H 163 162.12672 l -0.31336,3.25 -0.31336,3.25 h -2.91486 -2.91486 l -2.25706,-6.5 -2.25707,-6.5 -0.0781,1.25 L 151,123 h -1.5 -1.5 v 3.5 3.5 h 1.5 1.5 v 2.06037 2.06036 l -3.75,-0.31036 -3.75,-0.31037 -0.31421,-4.98067 -0.31421,-4.98067 -1.18579,-0.75402 -1.18579,-0.75401 -1.75,-0.0153 L 137,122 v 6 6 h -1.83333 -1.83334 z m 51.08333,-25.99561 1.25,-0.50439 1.25,0.50439 1.25,0.50439 h -2.5 -2.5 z m -0.67105,-2.92105 0.0789,-1.91667 0.52522,1.3125 0.52522,1.3125 -0.60416,0.60417 L 183,106.33333 Z m 12.73355,-0.0998 1.3125,-0.52522 0.60417,0.60416 0.60416,0.60417 -1.91666,-0.079 -1.91667,-0.0789 z m 4,-1 1.3125,-0.52522 0.60417,0.60416 0.60416,0.60417 -1.91666,-0.079 -1.91667,-0.0789 z m -15.73355,-2.90022 0.0789,-1.91667 0.52522,1.3125 0.52522,1.3125 -0.60416,0.60417 L 184,102.33333 Z M 210,100.61663 v -0.38337 l 2.00138,-0.52337 2.00138,-0.523372 -0.5604,0.906742 L 212.88197,101 H 211.44098 210 Z m -24.92105,-4.199963 0.0789,-1.916667 0.52522,1.3125 0.52522,1.3125 -0.60416,0.604167 L 185,98.333333 Z m 3,-12 0.0789,-1.916667 0.52522,1.3125 0.52522,1.3125 -0.60416,0.604167 L 188,86.333333 Z m 1,-4 0.0789,-1.916667 0.52522,1.3125 0.52522,1.3125 -0.60416,0.604167 L 189,82.333333 Z m 1.53414,-3.599646 0.52511,-0.849645 0.9309,0.575329 0.9309,0.575329 v 0.274316 0.274317 h -1.45601 -1.45601 z"
         id="path11" />
      <path
         style="fill:#a4a4a4"
         d="m 128.19495,144.5 0.037,-3 0.46099,1.76903 0.46099,1.76903 -0.49804,1.23097 -0.49805,1.23097 z m 7.12971,1.84201 0.65799,-0.65799 -1.24133,-1.50463 -1.24132,-1.50463 1.5,0.49548 1.5,0.49549 0.32332,1.66714 0.32333,1.66713 h -1.23999 -1.23999 z m 2.87029,-1.84201 0.037,-3 0.46099,1.76903 0.46099,1.76903 -0.49804,1.23097 -0.49805,1.23097 z m 8.06179,1.5 0.40899,-1.5 1.66714,-0.32332 1.66713,-0.32333 -0.0153,1.82333 -0.0153,1.82332 -0.98468,-1.5 -0.98469,-1.5 -1.07613,1.5 -1.07613,1.5 z m 7.07909,-0.56722 -0.6014,-1.56721 0.88279,-0.88279 L 154.5,142.1 v 2.45 2.45 h -0.28138 -0.28139 z m 10.09274,-0.26611 v -1.83334 h 1.2317 1.2317 L 164.9108,145.16667 163.92963,147 h -0.25053 -0.25053 z M 168.15789,145 v -2.5 l 0.50439,1.25 0.50439,1.25 -0.50439,1.25 -0.50439,1.25 z m 1.95811,0.97224 -0.116,-1.52776 2,-1.71245 2,-1.71246 -0.116,3.24022 -0.116,3.24021 -0.45733,-1.75 -0.45732,-1.75 H 172 171.14665 l -0.45732,1.75 -0.45733,1.75 z M 141,144 l -1.5,-0.96937 1.75,-0.0153 L 143,143 v 1 1 l -0.25,-0.0153 -0.25,-0.0153 z M 16.210708,132.75389 15.092607,131.40666 12.18968,123.20333 9.2867539,115 h 2.7750921 2.775093 l 2.231666,6.70616 2.231665,6.70615 1.998855,-6.70615 L 23.29798,115 h 2.829743 2.829743 l -3.33173,9.25 -3.331731,9.25 -2.482598,0.30056 -2.482599,0.30056 z M 31.07258,131.36514 29,128.73028 v -2.91059 -2.9106 L 31.454545,120.45455 33.909091,118 H 36.954545 40 l 2,2 2,2 v 2.44774 2.44774 l -4.969744,0.30226 -4.969744,0.30226 0.939231,1.5 0.939232,1.5 2.016944,-1.25 2.016943,-1.25 H 41.986431 44 v 1 1 l -2,2 -2,2 H 36.57258 33.14516 Z M 38.5,123 37.881966,122 H 36.440983 35 v 1 1 h 2.059017 2.059017 z m 7.917143,9.64467 -0.520088,-1.35532 0.301472,-6.39468 L 46.5,118.5 48.75,118.18045 51,117.8609 v 1.26955 1.26955 l 1.2,-1.2 1.2,-1.2 h 2.228571 2.228572 l 1.616131,1.61613 1.616132,1.61613 -0.294703,6.13387 L 60.5,133.5 58.25,133.81955 56,134.1391 v -5.60093 -5.60094 l -1.600925,-0.61433 -1.600925,-0.61433 -0.883762,1.39571 -0.883762,1.39572 -0.01531,4.75 L 51,134 H 48.968615 46.93723 Z M 65,132 63,130 v -3.96104 -3.96105 L 65.188561,120.03896 67.377123,118 h 3.238858 3.238859 l 2.07258,2.63486 L 78,123.26972 V 125.13486 127 h -5 -5 v 1.03138 1.03139 l 1.567217,0.6014 1.567218,0.6014 1.132782,-1.13279 L 73.4,128 h 1.8 1.8 v 1.34501 1.34501 L 75.171259,132.34501 73.342519,134 H 70.171259 67 Z m 7,-9 v -1 H 70.559017 69.118034 L 68.5,123 67.881966,124 H 69.940983 72 Z M 80.708849,133.37552 80,132.66667 V 123.83333 115 h 3 3 v 3.5 3.5 h 3.5 3.5 v -3.5 -3.5 h 2.537526 2.537526 L 97.787526,124.25 97.5,133.5 95.25,133.81955 93,134.1391 V 130.06955 126 h -3.439635 -3.439634 l -0.310366,3.75 -0.310365,3.75 -2.041151,0.29218 -2.041151,0.29219 z M 100.75,131.75 98.5,129.5 l 2.81047,-0.32226 2.81047,-0.32226 1.3505,1.12082 1.3505,1.12082 0.5953,-0.96321 0.59529,-0.96321 -3.75626,-1.83535 L 100.5,125.5 l -0.30322,-2.12535 -0.303214,-2.12536 1.624644,-1.62464 L 103.14286,118 h 3.27358 3.27358 l 1.65499,1.82874 L 113,121.65748 V 122.32874 123 h -2.44098 -2.44099 l -0.62811,-1.01631 -0.62812,-1.01631 -1.03208,0.63786 -1.03209,0.63787 3.85119,2.15547 3.85118,2.15548 0.34497,2.41694 0.34497,2.41694 -1.7861,1.30603 L 109.61774,134 H 106.30887 103 Z M 116.07258,131.36514 114,128.73028 V 126 123.26972 l 2.07258,-2.63486 L 118.14516,118 h 3.47287 3.47288 l 2.45454,2.45455 L 130,122.90909 V 126 v 3.09091 l -2.45455,2.45454 L 125.09091,134 h -3.47288 -3.47287 z M 124,126 v -4 h -1.93261 -1.93261 l -0.63478,2 -0.63478,2 0.63478,2 0.63478,2 H 122.06739 124 Z m 8.66667,7.33333 L 132,132.66667 V 127.33333 122 h -1 -1 v -1.5 -1.5 h 0.78076 0.78076 l 1.13238,-3 1.13237,-3 H 137.41314 141 v 1.37803 1.37803 l -2.25,1.56952 -2.25,1.56952 3.25,0.0525 L 143,119 v -2 -2 h 2.5 2.5 v 2.01814 2.01815 l 4.17842,-0.26815 4.17842,-0.26814 1.2234,4.5 1.22341,4.5 0.0982,-2.66821 0.0982,-2.66822 0.60699,-1.58178 L 160.21398,119 h 2.87396 2.87396 l 0.48011,2.25 0.48012,2.25 0.36658,2 0.36657,2 0.95242,-4.49209 0.95243,-4.4921 1.82615,-0.35168 1.82616,-0.35169 0.89509,0.89509 0.8951,0.8951 -2.34398,6.94868 -2.34397,6.94869 H 167.40734 164.5 l -0.31336,-3.25 -0.31336,-3.25 H 163 162.12672 l -0.31336,3.25 -0.31336,3.25 h -2.91486 -2.91486 l -2.25706,-6.5 -2.25707,-6.5 -0.0781,1.25 L 151,123 h -1.5 -1.5 v 3.5 3.5 h 1.5 1.5 v 2.06037 2.06036 l -3.75,-0.31036 -3.75,-0.31037 -0.31421,-4.98067 -0.31421,-4.98067 -1.18579,-0.75402 -1.18579,-0.75401 -1.75,-0.0153 L 137,122 v 6 6 h -1.83333 -1.83334 z"
         id="path10" />
      <path
         style="fill:#5b5b5b"
         d="m 32.301689,132.49876 -2.143324,-1.50124 -0.642607,-2.92577 -0.642606,-2.92577 1.546042,-2.98972 1.546042,-2.98971 2.95873,-0.64985 2.958731,-0.64985 2.035733,1.0895 2.035733,1.08949 1.022919,1.91134 L 44,123.86852 V 125.43426 127 h -5 -5 v 0.87756 0.87755 l 1.542382,1.28006 1.542381,1.28007 1.157619,-1.15762 L 39.4,129 h 1.8 1.8 v 0.9433 0.94329 L 40.777494,132.4433 38.554988,134 H 36.5 34.445012 Z M 39,123.10699 v -0.89301 l -1.426887,-0.54755 -1.426887,-0.54755 -1.195558,1.44056 L 33.755111,124 H 36.377555 39 Z M 65.566288,131.6572 63,129.09091 V 126 122.90909 L 65.454545,120.45455 67.909091,118 H 70.454545 73 l 2,2 2,2 v 0.91821 0.91822 l 0.606989,1.58178 L 78.213978,127 H 73.106989 68 v 1.44098 1.44099 l 1.087132,0.67188 1.087133,0.67189 1.112867,-1.11287 L 72.4,129 h 2.3 2.3 v 0.87756 0.87755 l -1.345308,1.11651 -1.345307,1.1165 -3.088405,0.61768 -3.088404,0.61768 z m 6.243959,-9.27552 -1.618324,-1.61833 -1.095962,0.67734 L 68,122.11803 V 123.05902 124 h 2.714286 2.714285 z M 102.22251,132.4433 100,130.88659 V 129.9433 129 h 1.94098 1.94099 l 0.61803,1 0.61803,1 H 106.55902 108 v -1.29911 -1.29911 l -3.40461,-1.23113 -3.40462,-1.23112 -0.5918,-1.54221 -0.5918,-1.5422 1.02528,-1.91575 1.02528,-1.91576 2.54488,-0.63872 2.54487,-0.63872 2.42626,1.10548 L 112,119.95712 V 121.47856 123 h -1.94098 -1.94099 L 107.5,122 106.88197,121 H 105.94098 105 v 0.99213 0.99213 l 3.75,1.76177 3.75,1.76177 0.3069,2.14954 0.3069,2.14955 -2.27941,1.59655 L 108.55499,134 H 106.5 104.44501 Z m 15.81128,0.27927 -2.46621,-1.24795 -0.85546,-2.98731 -0.85545,-2.98731 1.05373,-2.76793 1.05373,-2.76794 2.7289,-1.03752 2.7289,-1.03753 2.21911,0.55696 2.21911,0.55696 1.56992,1.56993 1.56993,1.56993 -0.0153,3.67857 -0.0153,3.67857 -0.73468,1.1003 -0.73469,1.10029 -2.18426,1.14971 -2.18426,1.1497 -1.31574,-0.0147 -1.31574,-0.0147 z m 5.93103,-3.65683 L 125,127.13148 v -1.37461 -1.37461 l -1.39179,-1.90338 -1.39178,-1.90339 -1.60822,1.3347 -1.60821,1.3347 v 2.67755 2.67756 l 1.2,1.2 1.2,1.2 h 0.76482 0.76481 z M 144.2,132.8 143,131.6 v -4.8 -4.8 h -1 -1 v -1.5 -1.5 h 1 1 v -1.5 -1.5 h 2.5 2.5 v 1.39301 1.39301 l 1.5,0.57561 1.5,0.5756 V 120.96862 122 h -1.5 -1.5 v 3.95031 3.95031 l 1.6404,0.91801 1.6404,0.91802 -0.69942,1.13167 L 149.88197,134 H 147.64098 145.4 Z M 13.114411,124.50256 10,115.89546 V 115.44773 115 h 2.341673 2.341673 l 1.831212,6.25 1.831211,6.25 0.519766,0.96622 0.519766,0.96623 2.086615,-6.96623 L 23.55853,115.5 25.779265,115.18045 28,114.8609 l -0.05844,1.31955 -0.05843,1.31955 -2.810119,7.5 -2.810118,7.5 -3.017035,0.30483 -3.017034,0.30482 z M 46,125.92463 v -7.07536 l 2.75,0.22445 2.75,0.22446 2.918718,-0.79984 2.918718,-0.79985 1.831282,2.26154 L 61,122.22157 V 127.61078 133 H 58.5 56 v -5.39301 -5.39301 l -1.378145,-0.52885 -1.378145,-0.52884 -1.121855,1.12185 L 51,123.4 v 4.8 4.8 H 48.5 46 Z M 81,124 v -9 h 2 2 v 3.5 3.5 h 4 4 v -3.5 -3.5 h 2.5 2.5 v 9 9 H 95.5 93 v -3.5 -3.5 h -4 -4 v 3.5 3.5 h -2 -2 z m 50.74636,2.25 -0.48664,-6.75 1.66904,-3 1.66904,-3 2.7011,-0.31642 2.7011,-0.31642 v 1.45943 1.45943 l -1.5,0.57561 -1.5,0.5756 V 117.96862 119 h 1.5 1.5 v 1.5 1.5 h -1.5 -1.5 v 5.5 5.5 h -2.3835 -2.38351 z m 23.73272,5.5 -0.45815,-1.25 -1.87614,-5.75 -1.87613,-5.75 H 154.13433 157 l 0.0703,2.75 0.0703,2.75 0.77923,1.99638 0.77922,1.99637 0.71176,-4.74637 L 160.12255,119 H 163 h 2.87745 l 0.68175,4.5462 0.68174,4.54619 0.53515,-0.53515 0.53516,-0.53515 0.60621,-3.76105 0.60622,-3.76104 2.6934,-0.3121 2.6934,-0.31211 -2.29157,6.81211 -2.29158,6.8121 -2.62879,0.31306 -2.62878,0.31305 -0.6184,-2.81305 -0.61841,-2.81306 -0.57123,-1.5 -0.57124,-1.5 -0.38417,2 -0.38418,2 -0.48012,2.25 -0.48011,2.25 h -2.51234 -2.51233 z"
         id="path9" />
      <path
         style="fill:#171717"
         d="M 13.42308,124.79379 10.5,116.58759 10.166667,115.79379 9.8333333,115 h 2.3745557 2.374555 l 1.917556,7 1.917556,7 h 0.720264 0.720263 l 1.617307,-5.75 1.617306,-5.75 0.422267,-1.25 0.422267,-1.25 h 2.138374 2.138374 l -0.446809,1.25 -0.446808,1.25 -2.794128,7.75 -2.794129,7.75 H 19.039133 16.346161 Z M 31.571429,131.42857 30,129.85714 v -3.77358 -3.77358 L 31.828741,120.65499 33.657481,119 h 3.548815 3.548815 l 1.04205,1.25559 1.042051,1.2556 0.688802,2.7444 L 44.216816,127 H 39.108408 34 v 1.53138 1.53139 l 1.567217,0.6014 1.567218,0.6014 1.132782,-1.13279 L 39.4,129 h 1.8 1.8 v 0.8 0.8 l -1.2,1.2 -1.2,1.2 H 36.871429 33.142857 Z M 38.809629,123.25 38.47261,121.5 H 36.5 34.52739 l -0.337019,1.75 -0.337019,1.75 H 36.5 39.146648 Z M 46.5,126 v -7 H 48.75 51 v 1.12244 1.12245 l 1.439528,-1.1947 1.439528,-1.19471 2.810472,0.32226 L 59.5,119.5 l 0.29569,6.75 0.29569,6.75 H 58.04569 56 v -5.44098 -5.44099 l -0.909758,-0.56226 -0.909758,-0.56226 -1.590242,0.61023 L 51,122.21398 V 127.60699 133 H 48.75 46.5 Z M 64.556704,130.77749 63,128.55499 V 125.77749 123 l 2,-2 2,-2 h 3.345012 3.345013 l 1.654987,1.82874 L 77,122.65748 v 2.119 2.119 l -5.049805,0.30226 -5.049805,0.30226 1.449286,1.97278 1.449287,1.97277 2.501906,-1.33898 2.501907,-1.33898 1.23254,0.41085 1.232541,0.41085 L 75.5625,131.29464 73.857143,133 H 69.985275 66.113408 Z M 72.984687,124.25 72.969374,123.5 72.085612,122.10428 71.20185,120.70857 69.600925,121.3229 68,121.93723 V 123.46862 125 H 70.5 73 Z M 81,124 v -9 h 2 2 v 4 4 h 4 4 v -4 -4 h 2 2 v 9 9 h -2 -2 v -3.5 -3.5 h -4 -4 v 3.5 3.5 h -2 -2 z m 20.2,7.8 -1.2,-1.2 v -0.8 -0.8 h 1.94098 1.94099 l 0.61803,1 0.61803,1 H 106.55902 108 v -1.31953 -1.31954 l -3.25,-1.43046 -3.25,-1.43047 -0.33749,-2.38691 -0.33749,-2.38691 1.33749,-0.84778 1.33749,-0.84777 3.12756,-0.0153 3.12755,-0.0153 1.37245,1.65686 1.37244,1.65685 -3.75,-0.70217 -3.75,-0.70217 v 1.46776 1.46777 l 3.41157,1.12592 3.41157,1.12592 0.58485,1.52407 0.58484,1.52407 -1.0316,1.92756 L 110.92963,133 H 106.66482 102.4 Z M 116.57143,131.42857 115,129.85714 V 126 122.14286 l 1.57143,-1.57143 L 118.14286,119 h 3.77358 3.77358 l 1.65499,1.82874 1.65499,1.82874 v 3.51627 3.51627 l -1.82874,1.65499 L 125.34252,133 h -3.59983 -3.59983 z M 123.8,129.8 125,128.6 v -2.67756 -2.67755 l -1.48727,-1.23432 -1.48726,-1.23432 -1.51274,0.58049 L 119,121.93723 v 3.86472 3.86472 l 0.66667,0.66666 0.66666,0.66667 h 1.13334 1.13333 z m 9.2,-2.21667 v -5.41666 l -1.25,-0.45834 -1.25,-0.45833 1.25,-1.325 1.25,-1.325 v -1.76482 -1.76481 l 1.93426,-1.03519 L 136.86852,113 H 138.43426 140 v 1.39301 1.39301 l -1.5,0.57561 -1.5,0.5756 v 1.63837 1.63838 l 1.5,-0.57561 1.5,-0.5756 V 120.53138 122 h -1.5 -1.5 v 5.5 5.5 h -2 -2 z m 10.60699,3.83488 L 143,129.83643 v -3.83488 -3.83488 L 141.75,121.58333 140.5,121 l 1.25,-0.58333 1.25,-0.58334 V 117.91667 116 h 2 2 v 1.37803 1.37803 l 2.25,1.56952 2.25,1.56952 -2.25,0.0525 L 147,122 v 3.42857 3.42857 l 1.5,1.5 1.5,1.5 V 132.42857 133 h -2.89301 -2.89301 z M 154.0918,126.80583 152,120.61166 V 119.80583 119 h 2.03138 2.03139 l 0.3907,1.25 0.3907,1.25 0.69747,4 0.69747,4 0.81016,-2 0.81016,-2 0.0703,-3.25 L 160,119 h 2.85936 2.85935 l 0.96963,5.25 0.96963,5.25 0.5931,-1.5 0.5931,-1.5 0.62323,-3.75 0.62323,-3.75 h 1.97374 1.97373 l -0.64393,2.56565 -0.64394,2.56565 -1.22914,4.18435 -1.22914,4.18435 -2.57576,0.30965 -2.57576,0.30964 -0.68376,-4.55964 L 163.77291,124 H 162.88646 162 l -0.0137,2.25 -0.0137,2.25 -0.60298,2.25 -0.60297,2.25 h -2.29157 -2.29156 z"
         id="path8" />
    </g>
  </g>
</svg>
