<?xml version="1.0" encoding="UTF-8" standalone="no"?>
<!-- Created with Inkscape (http://www.inkscape.org/) -->

<svg
   width="800"
   height="160"
   viewBox="0 0 800 160"
   id="svg2"
   version="1.1"
   inkscape:version="1.4.4 (dcaf3e7, 2026-05-05)"
   sodipodi:docname="veragrid.svg"
   inkscape:export-filename="GridCal_banner.png"
   inkscape:export-xdpi="90"
   inkscape:export-ydpi="90"
   xml:space="preserve"
   xmlns:inkscape="http://www.inkscape.org/namespaces/inkscape"
   xmlns:sodipodi="http://sodipodi.sourceforge.net/DTD/sodipodi-0.dtd"
   xmlns:xlink="http://www.w3.org/1999/xlink"
   xmlns="http://www.w3.org/2000/svg"
   xmlns:svg="http://www.w3.org/2000/svg"
   xmlns:rdf="http://www.w3.org/1999/02/22-rdf-syntax-ns#"
   xmlns:cc="http://creativecommons.org/ns#"
   xmlns:dc="http://purl.org/dc/elements/1.1/"><defs
     id="defs4"><linearGradient
       id="linearGradient9"
       inkscape:collect="always"><stop
         id="stop6"
         offset="0"
         style="stop-color:#3ecb73;stop-opacity:1;" /><stop
         id="stop10"
         offset="0.5"
         style="stop-color:#36c3aa;stop-opacity:1;" /><stop
         id="stop9"
         offset="1"
         style="stop-color:#205a70;stop-opacity:1;" /></linearGradient><linearGradient
       inkscape:collect="always"
       xlink:href="#linearGradient9"
       id="linearGradient6292-3"
       x1="-8.5722263e-08"
       y1="54.050343"
       x2="510.5929"
       y2="54.050343"
       gradientUnits="userSpaceOnUse" /><linearGradient
       id="linearGradient3067"
       inkscape:collect="always"><stop
         id="stop3063"
         offset="0"
         style="stop-color:#4895ef;stop-opacity:1" /><stop
         style="stop-color:#3f37c9;stop-opacity:1"
         offset="0.22149941"
         id="stop3069" /><stop
         id="stop3071"
         offset="0.46591431"
         style="stop-color:#480ca8;stop-opacity:1" /><stop
         id="stop3065"
         offset="1"
         style="stop-color:#f72585;stop-opacity:1" /></linearGradient><filter
       inkscape:collect="always"
       style="color-interpolation-filters:sRGB"
       id="filter1411-2-5"
       x="-0.00027444115"
       width="1.0005489"
       y="-0.0015005203"
       height="1.003001"><feGaussianBlur
         inkscape:collect="always"
         stdDeviation="0.06752225"
         id="feGaussianBlur1413-7-6" /></filter><linearGradient
       gradientTransform="translate(9.1973715e-7,4.7105917e-6)"
       inkscape:collect="always"
       xlink:href="#linearGradient3067"
       id="linearGradient904"
       x1="-8.5722263e-08"
       y1="54.050343"
       x2="510.5929"
       y2="54.050343"
       gradientUnits="userSpaceOnUse" /></defs><sodipodi:namedview
     id="base"
     pagecolor="#ffffff"
     bordercolor="#666666"
     borderopacity="1.0"
     inkscape:pageopacity="0.0"
     inkscape:pageshadow="2"
     inkscape:zoom="1.2175"
     inkscape:cx="307.18686"
     inkscape:cy="121.97125"
     inkscape:document-units="px"
     inkscape:current-layer="g2995"
     showgrid="false"
     units="px"
     inkscape:window-width="1464"
     inkscape:window-height="916"
     inkscape:window-x="55"
     inkscape:window-y="38"
     inkscape:window-maximized="1"
     inkscape:showpageshadow="2"
     inkscape:pagecheckerboard="0"
     inkscape:deskcolor="#d1d1d1" /><metadata
     id="metadata7"><rdf:RDF><cc:Work
         rdf:about=""><dc:format>image/svg+xml</dc:format><dc:type
           rdf:resource="http://purl.org/dc/dcmitype/StillImage" /><dc:title /></cc:Work></rdf:RDF></metadata><g
     inkscape:label="Capa 1"
     inkscape:groupmode="layer"
     id="layer1"
     transform="translate(0,-892.36216)"><g
       id="g2995"
       transform="matrix(1.9896162,0,0,1.9896162,1.9293043,-1039.8505)"><path
         sodipodi:nodetypes="cssssssssssssaacc"
         inkscape:connector-curvature="0"
         id="path4166"
         d="m 119.03422,806.30431 c 0,0 3.14503,-58.05357 8.3719,-58.13814 5.41033,-0.0876 4.48761,69.28884 10.23232,69.30064 4.25633,0.012 4.775,-54.2535 9.36856,-54.3964 3.23488,-0.1006 5.25729,44.0899 9.58481,44.0105 3.04152,-0.055 5.97362,-35.0071 10.5437,-35.0615 3.2803,-0.039 5.67698,31.7226 9.83757,31.6272 3.4935,-0.08 7.18339,-26.0964 10.67658,-25.9814 3.0362,0.1 4.45181,20.9045 8.19341,20.9317 2.86307,0.021 5.71232,-16.6483 9.30211,-16.7439 2.59171,-0.069 3.57657,11.6255 6.31214,11.5613 1.91665,-0.045 3.57734,-7.4153 6.44504,-7.3089 2.02074,0.075 3.32708,2.8881 5.31549,2.9236 2.59306,0.047 5.11579,-0.9663 7.70746,-1.0631 2.83848,-0.1057 5.66571,0.4429 8.50478,0.5315 2.30226,0.072 6.91014,0 6.91014,0 l 159.9374,-0.067"
         style="fill:none;stroke:#00b488;stroke-width:1.50782847;stroke-linecap:round;stroke-linejoin:miter;stroke-miterlimit:4;stroke-dasharray:none;stroke-opacity:1" /><path
         style="font-size:28.5686px;line-height:1.25;font-family:'URW Gothic L';-inkscape-font-specification:'URW Gothic L';letter-spacing:0px;word-spacing:0px;fill:#00b488"
         d="m 25.215382,795.52354 q -1.70184,0.78117 -3.72452,1.36705 -2.008729,0.57193 -3.891913,0.57193 -2.427215,0 -4.449894,-0.66958 -2.02268,-0.66957 -3.4455298,-2.00873 -1.4367997,-1.3531 -2.2179724,-3.37578 -0.7811726,-2.03663 -0.7811726,-4.75678 0,-4.97998 2.9014984,-7.85358 2.9154484,-2.88755 7.9930704,-2.88755 1.771588,0 3.612923,0.43244 1.855285,0.41848 3.989561,1.4368 v 3.27813 h -0.251092 q -0.432435,-0.33478 -1.255456,-0.87882 -0.823021,-0.54403 -1.618143,-0.90671 -0.962516,-0.43244 -2.190073,-0.71143 -1.213608,-0.29294 -2.762004,-0.29294 -3.487378,0 -5.524006,2.24587 -2.0226794,2.23192 -2.0226794,6.05409 0,4.03141 2.1203254,6.27728 2.120326,2.23192 5.775098,2.23192 1.339153,0 2.664357,-0.26504 1.339153,-0.26504 2.343518,-0.68352 v -5.09158 h -5.565855 v -2.42721 h 8.299959 z m 14.340099,-11.18751 h -0.139496 q -0.585879,-0.1395 -1.14386,-0.19529 -0.544031,-0.0697 -1.297304,-0.0697 -1.213608,0 -2.343518,0.54403 -1.129911,0.53008 -2.176124,1.381 v 11.06196 h -2.622508 v -15.5816 h 2.622508 v 2.30167 q 1.562345,-1.25546 2.748054,-1.77159 1.199658,-0.53008 2.441164,-0.53008 0.683526,0 0.990416,0.0419 0.306889,0.0279 0.920668,0.12554 z m 5.286863,-5.46821 h -2.957297 v -2.72015 h 2.957297 z m -0.167394,18.19016 h -2.622508 v -15.5816 h 2.622508 z m 17.827476,0 h -2.622508 v -1.63209 q -1.12991,0.97647 -2.357467,1.5205 -1.227557,0.54403 -2.664357,0.54403 -2.789902,0 -4.435945,-2.14823 -1.632092,-2.14822 -1.632092,-5.95644 0,-1.98083 0.55798,-3.52922 0.57193,-1.5484 1.534446,-2.63646 0.948567,-1.06016 2.204023,-1.61815 1.269406,-0.55798 2.622508,-0.55798 1.227557,0 2.176124,0.26504 0.948567,0.2511 1.99478,0.79513 v -6.75157 h 2.622508 z m -2.622508,-3.83611 v -8.94164 q -1.060163,-0.47428 -1.897133,-0.65563 -0.836971,-0.18134 -1.827386,-0.18134 -2.204023,0 -3.43158,1.53445 -1.227557,1.53444 -1.227557,4.35224 0,2.77596 0.948567,4.22671 0.948566,1.4368 3.040993,1.4368 1.115961,0 2.259821,-0.48824 1.14386,-0.50218 2.134275,-1.28335 z m 24.035011,2.32957 q -0.767223,0.33478 -1.394951,0.62772 -0.613778,0.29294 -1.618143,0.61378 -0.85092,0.26504 -1.855285,0.44639 -0.990415,0.19529 -2.190073,0.19529 -2.259821,0 -4.115106,-0.62773 -1.841336,-0.64168 -3.208388,-1.99478 -1.339153,-1.3252 -2.092427,-3.36183 -0.753273,-2.05058 -0.753273,-4.75678 0,-2.56671 0.725374,-4.58939 0.725375,-2.02268 2.092427,-3.41763 1.325204,-1.35311 3.194438,-2.06453 1.883184,-0.71143 4.170904,-0.71143 1.673942,0 3.333933,0.40454 1.673942,0.40454 3.71057,1.42285 v 3.27814 h -0.209242 q -1.71579,-1.4368 -3.403681,-2.09243 -1.687891,-0.65563 -3.612923,-0.65563 -1.576295,0 -2.845701,0.51613 -1.255456,0.50219 -2.245871,1.5763 -0.962517,1.04621 -1.506547,2.65041 -0.530082,1.59024 -0.530082,3.68267 0,2.19007 0.58588,3.76636 0.599829,1.5763 1.534446,2.56671 0.976466,1.03227 2.27377,1.53445 1.311254,0.48823 2.762004,0.48823 1.99478,0 3.738469,-0.68352 1.743689,-0.68353 3.264185,-2.05058 h 0.195293 z m 15.804795,1.50654 h -2.608558 v -1.65999 q -0.348738,0.23714 -0.948567,0.66958 -0.58588,0.41848 -1.14386,0.66957 -0.655627,0.32084 -1.506547,0.53009 -0.850921,0.22319 -1.994781,0.22319 -2.106376,0 -3.571075,-1.39495 -1.464698,-1.39495 -1.464698,-3.55713 0,-1.77159 0.753273,-2.85965 0.767224,-1.10201 2.176124,-1.72974 1.42285,-0.62773 3.417631,-0.85092 1.99478,-0.22319 4.2825,-0.33479 v -0.40453 q 0,-0.89277 -0.320839,-1.47865 -0.306889,-0.58588 -0.892769,-0.92067 -0.55798,-0.32084 -1.339153,-0.43243 -0.781173,-0.1116 -1.632093,-0.1116 -1.032264,0 -2.301669,0.27899 -1.269406,0.26504 -2.622508,0.78117 h -0.139496 v -2.66435 q 0.767224,-0.20925 2.217973,-0.46034 1.450749,-0.25109 2.85965,-0.25109 1.646042,0 2.859649,0.27899 1.227558,0.26504 2.120326,0.92067 0.878819,0.64168 1.339153,1.65999 0.460334,1.01832 0.460334,2.52486 z m -2.608558,-3.83611 v -4.3383 q -1.199658,0.0697 -2.831751,0.20924 -1.618144,0.1395 -2.56671,0.40454 -1.129911,0.32084 -1.827386,1.00436 -0.697476,0.66958 -0.697476,1.85529 0,1.33915 0.809072,2.02268 0.809071,0.66957 2.469063,0.66957 1.381002,0 2.524862,-0.53008 1.14386,-0.54403 2.120326,-1.2973 z m 10.308684,3.83611 h -2.6225 v -21.70544 h 2.6225 z"
         id="text4136"
         aria-label="GridCal" /><g
         transform="matrix(0.76290999,0,0,0.72049628,118.84033,105.95318)"
         id="g3000"><text
           xml:space="preserve"
           style="font-style:normal;font-weight:normal;line-height:0%;font-family:sans-serif;letter-spacing:0px;word-spacing:0px;fill:#000000;fill-opacity:1;stroke:none"
           x="144"
           y="935.86163"
           id="text2992"><tspan
             sodipodi:role="line"
             id="tspan2994"
             x="144"
             y="935.86163"
             style="font-style:normal;font-variant:normal;font-stretch:normal;font-size:20px;line-height:1.25;font-family:'URW Gothic L';-inkscape-font-specification:'URW Gothic L Book'">Reasearch oriented</tspan></text><text
           xml:space="preserve"
           style="font-style:normal;font-weight:normal;line-height:0%;font-family:sans-serif;letter-spacing:0px;word-spacing:0px;fill:#000000;fill-opacity:1;stroke:none"
           x="144"
           y="969.74103"
           id="text2996"><tspan
             sodipodi:role="line"
             id="tspan2998"
             x="144"
             y="969.74103"
             style="font-style:normal;font-variant:normal;font-stretch:normal;font-size:20px;line-height:1.25;font-family:'URW Gothic L';-inkscape-font-specification:'URW Gothic L Book'">Power systems software</tspan></text></g><g
         id="g3518"
         transform="matrix(1.5657766,0,0,1.5657766,469.79667,400.97569)"><g
           id="g3531"
           transform="translate(37.62451)"><path
             style="font-size:139.37px;line-height:1.25;font-family:'URW Gothic L';-inkscape-font-specification:'URW Gothic L';letter-spacing:0px;word-spacing:0px;fill:url(#linearGradient6292-3);stroke-width:3.48424;stroke-linejoin:round;filter:url(#filter1411-2-5)"
             d="M 88.10919,4.2183376 51.225138,105.5474 H 33.259475 L -3.6245767,4.2183376 H 10.802395 L 42.582565,93.366137 74.362735,4.2183376 Z m 71.18214,64.6491674 h -56.0066 q 0,7.009331 2.10961,12.249316 2.1096,5.171934 5.7844,8.50647 3.53869,3.266484 8.37036,4.899726 4.89973,1.633242 10.75218,1.633242 7.7579,0 15.58385,-3.062329 7.89401,-3.130381 11.22854,-6.124658 h 0.68052 v 13.950608 q -6.46492,2.72207 -13.20204,4.55947 -6.73712,1.8374 -14.15477,1.8374 -18.91838,0 -29.53446,-10.207766 -10.616071,-10.275815 -10.616071,-29.126152 0,-18.646181 10.139711,-29.602513 10.20776,-10.956333 26.81239,-10.956333 15.3797,0 23.68201,8.982832 8.37037,8.982832 8.37037,25.519408 z m -12.45347,-9.799453 q -0.068,-10.071659 -5.10388,-15.583852 -4.96778,-5.512192 -15.17555,-5.512192 -10.27581,0 -16.40047,6.056607 -6.0566,6.056606 -6.87323,15.039437 z M 226.11814,43.4842 h -0.68051 q -2.85818,-0.680517 -5.58025,-0.952724 -2.65402,-0.340259 -6.32881,-0.340259 -5.9205,0 -11.4327,2.654019 -5.51219,2.585966 -10.61607,6.737123 V 105.5474 H 178.68607 V 29.533591 H 191.4798 V 40.76213 q 7.6218,-6.124658 13.4062,-8.642573 5.85245,-2.585966 11.90905,-2.585966 3.33454,0 4.83168,0.204155 1.49714,0.136103 4.49141,0.612466 z m 68.66424,62.0632 H 282.0567 v -8.098157 q -1.70129,1.156879 -4.62751,3.266487 -2.85818,2.04155 -5.58025,3.26648 -3.19843,1.56519 -7.34959,2.58597 -4.15116,1.08883 -9.7314,1.08883 -10.27581,0 -17.42125,-6.80518 -7.14543,-6.805175 -7.14543,-17.353197 0,-8.642573 3.67479,-13.95061 3.74285,-5.376089 10.61608,-8.438418 6.94127,-3.062329 16.67268,-4.151157 9.7314,-1.088828 20.89188,-1.633242 v -1.973501 q 0,-4.355312 -1.56519,-7.213486 -1.49713,-2.858174 -4.35531,-4.491416 -2.72207,-1.56519 -6.53297,-2.109604 -3.81089,-0.544414 -7.96205,-0.544414 -5.03583,0 -11.22854,1.361035 -6.19271,1.292983 -12.79373,3.810898 h -0.68052 V 31.166833 q 3.74285,-1.020777 10.82023,-2.245708 7.07738,-1.224932 13.95061,-1.224932 8.03011,0 13.95061,1.361035 5.98855,1.292984 10.34387,4.491416 4.28726,3.130381 6.53297,8.098159 2.2457,4.967778 2.2457,12.317368 z M 282.0567,86.833169 V 65.669073 q -5.85245,0.340259 -13.8145,1.020776 -7.89401,0.680518 -12.52152,1.973501 -5.5122,1.56519 -8.91478,4.899726 -3.40259,3.266485 -3.40259,9.050884 0,6.532968 3.947,9.867504 3.947,3.266485 12.04516,3.266485 6.73712,0 12.31737,-2.585967 5.58024,-2.654019 10.34386,-6.328813 z m 122.90148,11.228539 q -8.30232,3.810902 -18.16982,6.669072 -9.79946,2.79012 -18.98644,2.79012 -11.84101,0 -21.70851,-3.26648 -9.86751,-3.26649 -16.80879,-9.799455 -7.00933,-6.60102 -10.82023,-16.468525 -3.81089,-9.935556 -3.81089,-23.205648 0,-24.294477 14.15476,-38.313138 14.22282,-14.0867138 38.99366,-14.0867138 8.64257,0 17.6254,2.1096044 9.05088,2.0415527 19.4628,7.0093304 v 15.992163 h -1.22493 q -2.1096,-1.633242 -6.12466,-4.287261 -4.01505,-2.654018 -7.894,-4.423364 -4.69557,-2.109604 -10.68413,-3.470639 -5.9205,-1.429087 -13.47424,-1.429087 -17.01294,0 -26.9485,10.956332 -9.8675,10.888281 -9.8675,29.534462 0,19.666958 10.34386,30.62329 10.34387,10.888281 28.17343,10.888281 6.53297,0 12.99789,-1.292983 6.53296,-1.292984 11.43269,-3.334536 V 66.417642 H 364.46738 V 54.576637 h 40.4908 z M 474.91538,43.4842 h -0.68051 q -2.85818,-0.680517 -5.58025,-0.952724 -2.65402,-0.340259 -6.32881,-0.340259 -5.9205,0 -11.4327,2.654019 -5.51219,2.585966 -10.61607,6.737123 V 105.5474 H 427.48331 V 29.533591 h 12.79373 V 40.76213 q 7.6218,-6.124658 13.4062,-8.642573 5.85245,-2.585966 11.90905,-2.585966 3.33454,0 4.83168,0.204155 1.49714,0.136103 4.49141,0.612466 z M 500.707,16.807912 H 486.28003 V 3.53782 H 500.707 Z M 499.89038,105.5474 H 487.09665 V 29.533591 h 12.79373 z m 86.97011,0 h -12.79373 v -7.962054 q -5.51219,4.763624 -11.50075,7.417644 -5.98855,2.65402 -12.99788,2.65402 -13.61035,0 -21.64046,-10.479974 -7.96205,-10.479971 -7.96205,-29.0581 0,-9.663349 2.72207,-17.217094 2.79012,-7.553745 7.48569,-12.861782 4.62752,-5.171933 10.75218,-7.894004 6.19271,-2.72207 12.79373,-2.72207 5.98855,0 10.61607,1.292984 4.62752,1.224931 9.7314,3.87895 V -0.34113002 h 12.79373 z M 574.06676,86.833169 V 43.211993 q -5.17193,-2.313759 -9.25504,-3.198432 -4.0831,-0.884673 -8.91478,-0.884673 -10.75217,0 -16.74073,7.485693 -5.98855,7.485693 -5.98855,21.232148 0,13.542299 4.62752,20.619682 4.62752,7.009331 14.83528,7.009331 5.44414,0 11.02438,-2.381812 5.58025,-2.449863 10.41192,-6.260761 z"
             id="text828-1-7-22-2"
             transform="matrix(0.26571168,0,0,0.26571168,-329.12758,375.96518)"
             aria-label="VeraGrid" /><path
             style="fill:none;fill-opacity:1;fill-rule:evenodd;stroke:#205a70;stroke-width:1.91953;stroke-linecap:round;stroke-linejoin:miter;stroke-miterlimit:4;stroke-dasharray:none;stroke-opacity:1"
             d="m -163.67777,403.44291 c 0,0 1.64476,-35.11554 4.63694,-35.16736 3.09721,-0.0537 2.49116,41.93375 5.7798,41.94101 2.4366,0.007 2.73352,-33.22569 5.36317,-33.31321 1.85187,-0.0615 3.0096,27.00132 5.48696,26.9526 1.74118,-0.0344 3.41969,-21.43887 6.03589,-21.47217 1.87786,-0.0239 3.24988,19.4273 5.63167,19.36897 1.9999,-0.0496 4.11223,-15.9819 6.11194,-15.91146 1.73812,0.0612 2.54851,12.80205 4.69045,12.81878 1.639,0.0126 3.2701,-10.19562 5.32513,-10.25414 1.48364,-0.0424 2.04745,7.11953 3.61347,7.0802 1.09721,-0.0273 2.04789,-4.54118 3.68954,-4.47601 1.15681,0.0461 1.90465,1.76866 3.04294,1.79043 1.48442,0.0287 2.92859,-0.59181 4.412238,-0.65107 1.62493,-0.0647 3.243432,0.27124 4.86871,0.32549 1.317951,0.0438 3.955791,0 3.955791,0 l 4.29814,-0.041"
             id="path4166-1-8"
             inkscape:connector-curvature="0"
             sodipodi:nodetypes="cssssssssssssaacc" /></g></g></g></g></svg>
