<?xml version="1.0" encoding="utf-8"?>
<!-- Generator: Adobe Illustrator 25.4.1, SVG Export Plug-In . SVG Version: 6.00 Build 0)  -->
<svg version="1.1" id="Layer_1" xmlns="http://www.w3.org/2000/svg" xmlns:xlink="http://www.w3.org/1999/xlink" x="0px" y="0px"
	 viewBox="0 0 835.6 322.7" enable-background="new 0 0 835.6 322.7" xml:space="preserve">
<g id="XXQrca.tif">
	<g>
		<path fill="#7DC91A" d="M0,237.3c2.1-2.8,2.2-6.2,2.6-9.3c1.5-11.1,8.3-18.8,15.6-26.3c6.3-6.4,14.3-9.8,22.7-12.6
			c-0.5,5.4-1.2,10.8-1.6,16.3c-1.1,15-0.8,30-0.3,45.6c32-35.9,73.3-46.9,118.7-47.5c-1.3,4.3-1.6,8.9-3.9,12.9
			c-15.3,5.6-30,12.5-44.9,19c-12.1,5.3-23,12.5-34.2,19.2C64,261,54.1,268.7,44.6,277.1c-6.5,5.7-13.5,10.9-18.8,17.6
			c-3.7,4.7-8.5,8.3-12.1,13.9c-4.7-8.9-8-17.5-9.7-26.8c-1.2-6.2-1.5-12.7-3.9-18.7C0,254.5,0,245.9,0,237.3z"/>
		<path fill="#8BDDF8" d="M155.7,156.4c3.2-19.9,5.3-39.9,5-60.1c-0.2-20.5-2.8-40.8-7.1-60.9c-2.6-12.2-5.7-24-10.9-35.4
			c2.3,0,4.7,0,7,0c4.5,2.4,9.6,2.1,14.4,2.8c10.9,1.8,21.1,5.5,30.9,10.4c4.3,2.1,8.4,4.6,12.4,7.3c22,14.6,31.5,34.9,27.1,61.2
			c-2.5-0.3-4-2.1-5.9-3.4c-5.4-3.8-10.5-8.2-16.3-11.2c-6.2-3.2-12.2-6.6-18.2-10.2c-4.2-2.5-8.5-4.9-13.1-6.5
			c-0.8,1.4,0,2.2,0.3,3.1c5.1,14.8,7.2,29.8,6.4,45.6c-0.9,18.2-5.4,35.4-12.2,52.2c-1.5,1-1.5,2.7-2,4.2c-1.4,4.4-2.3,9-5,12.9
			C165,163.9,159.9,160.6,155.7,156.4z"/>
		<path fill="#053141" d="M272.6,140.7c-0.1,11.2-3.1,22-4.4,33c-1.9,16.6-4.6,33.2-2.5,50.1c0.3,2.8,0.9,5.6,1.9,8.2
			c2.4,6.2,8.7,7.4,13.5,2.6c7.9-7.9,11.3-18.2,14.5-28.5c5.1-16.6,7-33.7,8.2-50.9c0.3-4.8,0.7-9.6,1.2-14.4
			c1-8.6,8.6-13.2,16.4-10c3,1.3,3.3,4.3,3.4,7.2c0.3,7.8-1.1,15.5-1.6,23.3c-1,16.3-5.9,31.9-9,47.8c-1.2,6.1,1.9,11.1,7.6,11.8
			c2.8,0.4,5.1-0.1,5.8-3.7c2.5-12.4,9.3-22.6,18.3-31.2c3.7-3.6,8.4-5.9,13.5-7.1c3.6-0.9,6.8-1,9.1,2.7c1.4,2.3,4,2.4,6.3,2.1
			c5.6-0.8,8,1.8,7.2,8.3c-0.9,7.6-2.4,15.1-3.8,22.5c-0.7,3.5-0.6,6.9-0.4,10.4c0.2,3.3,2.3,4.6,5.2,3.1c6.2-3.1,10.2-8.8,14.5-14
			c0.4-0.5,0.1-1.6,0-2.4c-1.1-9-0.8-17.9,0.2-26.8c0.3-2.9,0.1-4.6-3.5-4.8c-3.5-0.1-6.9-1.1-10.3-1.7c-2.4-0.4-4.1-1.7-4.2-4.2
			c-0.1-2.6,2.1-3.5,4-3.6c4.3-0.4,8.6-0.5,13-0.4c2.6,0.1,3.8-0.7,4.2-3.4c1.4-9.2,5.4-17.7,8.1-26.6c1.5-4.9,4.7-8.9,8.3-12.8
			c9.4-10,18.4-5.3,22.2,5.6c2.1,6.1,1.8,12.4-0.6,18.5c-2,5.1-4.2,10.1-7,14.8c-1,1.7-2.1,3.4-2.2,5.7c7.5,0.7,14.9-0.1,22.3,0.9
			c2.4,0.3,2.5-1.5,2.8-3.2c2-10.3,5.4-20.1,9.6-29.7c2.2-5.1,5.3-9.6,8.7-13.8c3-3.6,7.2-5.4,12.1-4.1c5.2,1.4,7.9,5.2,9.1,10.2
			c2.7,11.3,0.2,21.7-5.4,31.5c-1.5,2.6-2.9,5.1-4.9,8.6c5.9,0,11.2-0.1,16.4,0c3,0.1,6.7-0.5,6.3,4.6c-0.3,4.3-1.9,5.8-6.8,5.9
			c-7,0.1-14,0.1-21,0c-2.2,0-3.8,0.6-5,2.5c-3.1,4.9-6.2,9.5-5.7,15.9c0.5,5.7-1.2,11.6-0.1,17.4c1.6,9.1,6.1,11.6,14.9,8.3
			c8.1-3.1,14.6-8.4,20.8-14.2c2-1.9,3-1.8,4.8-0.1c4.4,4.3,3.4,12.4-2.5,16.3c-8.6,5.7-17.8,10.4-27.6,13.7
			c-9.1,3.1-17.6-1.7-21.9-11.5c-2.1-4.8-2-4.7-6.3-1.7c-8.2,5.7-17.3,9.9-26.6,13.1c-11,3.8-14.7-1-20.6-9
			c-0.8-1.1-0.8-2.5-2.2-3.5c-3.6,5.4-9.4,8.2-14.6,11.8c-6.6,4.6-14.5,2.6-18.8-4.6c-1.6-2.6-2.6-3-5-1.1c-2.5,1.9-5.3,3.4-8.1,4.8
			c-10.2,5.1-18.6,3.2-25.3-6c-1.2-1.6-1.7-2.2-3.7-1.3c-10.3,4.4-15.6,2-19.8-10.3c-4.5,11.7-12.8,18.6-22.2,24.5
			c-1.1,0.4-2.1,0.8-3.2,1.3c-8.7,3.6-17.3,1.4-23.2-5.8c-4-5-6.4-10.8-7.9-17l0-0.3l-0.3-0.1l0.1,0.1c-0.3-5.2-0.3-10.6-2.7-16.5
			c-1.2,4.8-3.2,8.3-3.6,12.3c-3.7,7.5-5.8,16-12.9,21.5c-5.1,3.9-10.9,6.3-17.3,7.1c-8.6,1.2-13.5-1.7-18.2-8.9
			c-6.9-10.4-8.3-22.1-9-34.1c-0.6-9.8,1.1-19.5,1.9-29.2c2.9-10.5,5.9-20.9,8.6-31.4c2.6-10,7.7-14.9,15.9-14.9
			c4.6,0,6.4,1.5,6.2,6.3c-0.2,5.4-1.2,10.8-2.7,16.1c-3.9,14.5-8.9,28.7-11.1,43.6c-0.6,4.1-1.6,8.2-1,12.4
			c-0.3,6.2,0.6,12.2,3.7,17.7c2.9,5.1,6.7,6,11.4,3.1c1.9-0.4,3-1.8,4.3-3c4.3-4.2,6.8-9.5,9.6-14.6c6.2-10.3,7.7-22.2,11.3-33.3
			c2.4-8.1,4.4-16.2,6.1-24.5c0.8-3.9,1.6-7.8,3.1-11.4C256,135.8,266,133.9,272.6,140.7z M436.6,183.3c-4.2,0-8.3,0-12.5,0
			c-1.7,0-3.1,0.1-4.4,1.6c-4.5,5.5-8.4,11-7.3,18.7c0.6,4.2-0.1,8.6,0,12.9c0.2,11.1,7.7,15.2,17.6,9.8c6.1-3.3,11.8-7.3,17.6-11.2
			c3-2,4.2-4.3,4.1-7.8c-0.3-7-0.6-14,0.5-20.9c0.5-2.9-0.5-3.4-3.1-3.3C444.9,183.4,440.7,183.3,436.6,183.3z M344.5,221.2
			c0,1.3-0.1,2.7,0,4c0.1,2.7,1.4,4.9,4,5.7c2.5,0.8,4.5-0.7,6.1-2.5c2.4-2.6,3.8-5.8,5-9c2.5-6.7,3.4-13.8,4.8-20.7
			c0.4-1.9,2.4-4.7,0.4-5.9c-1.7-1-4.4,0.8-6.5,1.6c-0.7,0.3-1.4,0.8-2,1.4C349.3,202.8,345.1,211.2,344.5,221.2z M429.6,142.8
			c-0.2-1.6,0.9-4.4-2.3-5.2c-3-0.8-3.9,1.9-5.1,3.8c-0.2,0.3-0.4,0.6-0.5,0.9c-3.8,8.2-6.1,16.8-8.1,25.5c-0.3,1.2-0.9,2.6,1.1,3.2
			c1.9,0.5,2.7-0.4,3.5-1.8c3.3-5.7,6.3-11.7,9.1-17.7C428.7,148.9,429.8,146.4,429.6,142.8z M484.5,143.7c0.2-3.9-0.7-5.8-2.7-6.2
			c-2.7-0.5-3.7,1.6-4.8,3.5c-5.3,9.1-5.8,19.5-8,29.4c-0.2,0.9-0.1,1.6,1,1.8c1.3,0.2,1.9,0,2.6-1.4c3.3-7.2,7-14.2,10.4-21.4
			C483.9,147.6,484.6,145.5,484.5,143.7z"/>
		<path fill="#FCF496" d="M187,178.6c-0.8,9.7-2.5,19.4-1.9,29.2c0.7,12,2.2,23.6,9,34.1c4.7,7.2,9.6,10,18.2,8.9
			c6.4-0.9,12.1-3.3,17.3-7.1c7.1,5.1,12.5,12,20.2,16.6c12.7,7.8,25.6,14.8,40.6,18.5c-3.4,3.2-7.2,4.9-10.8,6.8
			c-10.5,5.9-20.9,12.2-32.6,15.6c-3.7,1.1-7.7,1.9-10.5,5c-5.7,0.3-10.9,2.8-16.3,4.2c-14,3.7-28.2,6-42.2,1.6
			c-12.9-4.1-22.9-11.9-25.9-26.2c-1.9-9.4-4.1-18.8-3.2-28.5c0.9-9.5,2.1-19,3.3-28.5c0.5-4.1,1.1-8.2,1.6-12.3
			c2.4-4,2.6-8.6,3.9-12.9c1.2-3.6,2.3-7.2,3.5-10.8c2.5-8,5.1-16,7.6-24c2.8-3.9,3.6-8.5,5-12.9c0.5-1.5,0.4-3.2,2-4.2
			C178.7,160.8,181.9,170.1,187,178.6z"/>
		<path fill="#043241" d="M675.7,206c-4.7,8.5-9.7,16.9-12.7,26.3c-0.9,2.8-2.6,5.4-4.3,7.8c-3.8,5.7-11.4,5.3-14.6-0.7
			c-0.5-1-0.9-2.1-1.4-3.3c-6.8,2.5-12.9,6.4-20.1,7.6c-10.4,1.7-16.7-3.2-16.5-13.6c0.2-12.4,4.3-24.1,7.2-36
			c0.6-2.4,1.3-4.8,2-7.2c1.7-6.2,8.7-10.2,14.9-8.4c2.4,0.7,3,2.4,2.8,4.6c-0.3,3.8-1.5,7.4-2.6,11.1c-2.7,9.2-5.8,18.4-6.7,28
			c-0.3,2.9-0.9,6.4,1.9,8.3c2.9,1.9,5.6-0.5,8.2-1.9c6.3-3.3,9.9-7.9,10.3-15.5c0.6-9.6,2.8-19,5.8-28.2c2-6.1,5.7-8.1,11.9-6.4
			c2.5,0.7,2.2,2.6,2.3,4.3c0.6,7.3-1.4,14.5-1.1,22.8c3.3-7.4,7.8-13,11.8-18.9c1.4-2,3-3.9,4.7-5.7c2.5-2.7,5.6-3.5,9.1-1.9
			c3.4,1.6,3.9,4.6,3.7,8c-0.2,4.7-1.7,9.1-2.7,13.6c-0.4,1.6-0.9,3.2-0.6,5.5c3.8-5,6.4-10.3,10.1-14.7c2.5-3,4.8-6.4,6.8-9.8
			c2.3-3.9,5.6-3.9,9.1-2.9c3.4,0.9,4.9,3.3,4.9,7.1c0.1,8-1.7,15.8-2.6,23.7c-0.5,4.5-1,8.9-0.3,13.4c0.7,4.7,2.7,5.8,7,3.5
			c4.5-2.4,8-5.2,7.9-11.6c-0.4-13.2,5.2-23.8,15.4-32.5c5.1-4.4,18.3-5,22.9-1.1c8,6.7,9.6,14.8,5,24c-4.3,8.4-11.6,12.8-19.8,16.3
			c-1.7,0.7-3.6,0.8-4.9,2.2c3.6,5.8,6.8,7.1,13.9,5.1c7.1-2,13.3-6,19.2-10.3c8.9-6.6,7.1-5.5,14.2,1.4c0.6,0.6,1.1,1.2,1.6,1.8
			c-9.1,11.7-21.3,18.1-35.3,21.6c-10.2,2.5-18.7-1.1-26-7.8c-1.7-1.6-2.2-1.6-4.1-0.5c-5.3,3-9.8,7.3-16.2,8.3
			c-10,1.7-11.4,0.9-13.9-10.2c-1.5-6.7-1.2-13.5-0.4-20.3c0.3-2.6,0.4-5.1-0.3-7.9c-3.7,9.1-7.4,18.3-11.2,27.4
			c-1,2.4-2,4.9-3.4,7.2c-2,3.2-5,5-8.8,4.5c-3.9-0.6-5.3-3.7-5.9-7.1c-1.3-7.2,0.5-14.2,1.3-21.3c0.3-2.9,0.9-5.9,1.4-8.8
			c0.4-0.7,0.8-1.7,0-2.1C676.3,204.4,676,205.4,675.7,206z M749.2,212.3c6.6-1.5,11.8-4.8,15.3-10.4c1.6-2.5,1.7-5.4-0.1-7.9
			c-1.8-2.4-4.3-1.6-6.8-1c-3.4,0.8-5.4,2.8-6.7,5.9C749,203.1,748.6,207.4,749.2,212.3z"/>
		<path fill="#CFEEF9" d="M187,178.6c-5-8.6-8.3-17.8-11.2-27.3c6.8-16.8,11.3-34,12.2-52.2c0.8-15.7-1.3-30.8-6.4-45.6
			c-0.3-0.9-1.1-1.7-0.3-3.1c4.6,1.6,8.9,4,13.1,6.5c6,3.6,12,7,18.2,10.2c5.8,3,10.9,7.5,16.3,11.2c1.9,1.3,3.4,3.2,5.9,3.4
			c3,4.8,7.9,7.4,11.9,11.1c10.7,10,19.9,20.9,24.5,35.2c1.4,4.2,1.8,8.3,1.5,12.6c-6.6-6.8-16.6-4.9-20.1,3.9
			c-1.5,3.7-2.3,7.5-3.1,11.4c-1.6,8.3-3.7,16.4-6.1,24.5c-1.9-0.3-3.2,0.8-4.4,1.9c-4.1,3.4-9,5.3-13.7,7.8
			c-4.1,2.1-8.7,2.8-12.6,5.4c-3.2-0.1-5.7,2.1-8.7,2.7c2.2-14.9,7.2-29.1,11.1-43.6c1.4-5.3,2.5-10.6,2.7-16.1
			c0.2-4.7-1.6-6.2-6.2-6.3c-8.2-0.1-13.3,4.9-15.9,14.9C192.8,157.7,189.8,168.1,187,178.6z"/>
		<path fill="#FEDF02" d="M236.6,306.1c2.8-3.1,6.8-3.9,10.5-5c11.7-3.4,22.1-9.7,32.6-15.6c3.5-2,7.4-3.6,10.8-6.8
			c-15-3.7-27.9-10.7-40.6-18.5c-7.7-4.7-13.1-11.6-20.2-16.6c7.1-5.5,9.2-14,12.9-21.5c2.1,1.4,4.2,2.8,6.3,4.2l-0.1-0.1
			c0.2,0.1,0.3,0.2,0.3,0.4c1.5,6.2,3.9,12,7.9,17c5.8,7.2,14.4,9.4,23.2,5.8c1.1-0.4,2.1-0.8,3.2-1.3c11,7.1,23.4,11,35.3,15.9
			c11.5,4.8,23.5,7.9,35.8,10.8c-0.1,0.5,0.1,1.2-0.2,1.4c-9.2,8.5-16.1,19.1-27,26.1c-7.5,4.8-14.7,10.1-22.6,14.4
			c-9.1,5-19,5.7-28.9,5.9c-12.1,0.3-23.2-3.3-33-10.7C240.4,310.3,238.4,308.3,236.6,306.1z"/>
		<path fill="#043141" d="M561.3,140.6c-7.5,0.8-15,1.1-22,3.7c-4.4,1.6-7.5,4.4-8.2,9.6c-0.9,6.4-7.1,9.8-14.2,8.3
			c-5.6-1.1-8.8-5.9-7.6-12c2.1-11.4,9.2-17.4,19.9-19.6c28.3-5.8,56.8-5,85.3-1.2c3.3,0.4,6.6,0.8,9.9,1.1c4.8,0.4,7.2,2.6,7,6.5
			c-0.1,4.1-3.5,7.5-7.6,7.7c-7.5,0.3-14.9-0.8-22.4-1.5c-7.6-0.8-15.2-1.5-22.8-2.5c-2.5-0.3-3.5,0.5-3.9,2.9
			c-3.7,20.4-9.6,40.3-15.1,60.3c-2.8,10.4-5.2,20.9-8.2,31.2c-1.2,4.2-2.7,8.2-6.1,11.2c-3,2.6-6.2,3-9.7,1.3
			c-3.4-1.7-4.7-4.9-4-8.4c3.2-15.5,6.5-31,12.3-45.9C550.6,176.1,557,158.9,561.3,140.6z"/>
		<path fill="#043241" d="M814,193.4c2,1.7,4,3.4,6,5.2c0.9,1.5,2,2.8,3.9,2.8c0.8,1.7,2.7,2.3,3.8,3.6c0.9,1.1,3.5,1.9,2,3.7
			c-1.4,1.7-2.1,5.2-5.7,3.7c-0.1-2-1.5-2.1-3-2.1c-0.1-0.1-0.3-0.3-0.4-0.4c0.1,0.1,0.3,0.3,0.4,0.4c0.7,1,1.4,2.1,2.1,3.1
			c-6.5,4.5-13.2,6.1-20.8,2.4c-6.4-3.1-8.8-8-9.2-14.5c-0.4-6.3,3.5-11,6.1-16.1c1.2-2.5,3-2.3,5.1-0.4c1.8,1.7,3.4,3.6,5.8,4.5
			C810,192,812.3,192.5,814,193.4z M817.6,206.6c0.1-1.4-0.8-2.1-1.8-2.5c-0.5-0.2-0.8,0.5-0.7,0.9
			C815.5,206.3,816.3,206.8,817.6,206.6z M802.6,193.7c0.1-0.8-0.3-1.1-0.8-1.1c-0.4,0-0.8,0.3-1.2,0.4c0.3,0.3,0.5,0.8,0.9,1
			C801.9,194.1,802.3,193.8,802.6,193.7z M810.5,200.3c0.5-0.2,1.1-0.2,0.8-0.9c-0.2-0.3-0.7-0.6-1.1-0.7c-0.5-0.1-0.9,0.3-0.7,0.8
			C809.7,199.9,810.2,200.1,810.5,200.3z"/>
		<path fill="#043241" d="M633.2,148.4c7.8,0,11.3,2.9,11.2,9.4c-0.1,8.3-4.7,12.8-13.1,12.7c-8.1,0-11.2-3.2-11.3-11
			C620,151.6,624.1,149,633.2,148.4z"/>
		<path fill="#083544" d="M814,193.4c-1.8-1-4-1.4-4-4.1c3.1-3.8,6.2-7.6,9.2-11.5c1.9-2.6,3.2-1,4.8,0.3c1.6,1.3,2.6,2.4,0.6,4.3
			C820.9,185.9,818.5,190.6,814,193.4z"/>
		<path fill="#083544" d="M824,201.4c-2,0-3-1.3-3.9-2.8c-0.3-1.7,0.7-2.8,1.9-3.7c2.9-2.2,5.1-5.2,7.5-7.8c1-1.1,1.8-3.4,3.7-1.4
			c1.3,1.4,3.6,2.9,1.5,5.3C831.4,194.7,828.8,199.1,824,201.4z"/>
		<path fill="#083544" d="M821,210.3c1.5,0,2.9,0,3,2.1c-0.3,0.4-0.6,0.7-0.9,1.1C822.4,212.5,821.7,211.4,821,210.3
			C821,210.4,821,210.3,821,210.3z"/>
		<path fill="#CBE7AB" d="M168.8,168.5c-2.5,8-5.1,16-7.6,24c-1.1,3.6-2.3,7.2-3.5,10.8C112.4,204.1,71,215,39,250.9
			c-0.5-15.6-0.8-30.6,0.3-45.6c0.4-5.4,1-10.9,1.6-16.3c2-9,3.8-18.1,6-27c3.8-15.2,16.1-34.7,34.1-37.9c9.7-1.7,19.3-0.6,28.2,3.4
			c3.9,1.8,8.2,2.5,12,4.7c12.3,7,23.4,15.5,34.5,24.2C159.9,160.6,165,163.9,168.8,168.5z"/>
		<path fill="#FEDF02" d="M203.9,198.3c3-0.6,5.5-2.8,8.7-2.7c5.4,7.2,12.7,12.4,19.4,18.3c-2.9,5.1-5.4,10.4-9.6,14.6
			c-1.3,1.2-2.4,2.6-4.3,3c-4.4-7.4-9.9-13.9-15.1-20.8C202.4,206.5,203.3,202.4,203.9,198.3z"/>
		<path fill="#FCF496" d="M202.9,210.7c5.2,6.8,10.7,13.4,15.1,20.8c-4.7,2.9-8.4,2-11.4-3.1C203.5,222.9,202.7,216.9,202.9,210.7z"
			/>
		<path fill="#083544" d="M817.6,206.6c-1.3,0.2-2.1-0.3-2.5-1.5c-0.1-0.4,0.1-1.1,0.7-0.9C816.9,204.5,817.7,205.1,817.6,206.6z"/>
		<path fill="#083544" d="M802.6,193.7c-0.3,0.1-0.8,0.4-1.1,0.3c-0.4-0.1-0.6-0.6-0.9-1c0.4-0.2,0.8-0.4,1.2-0.4
			C802.4,192.6,802.8,192.9,802.6,193.7z"/>
		<path fill="#083544" d="M810.5,200.3c-0.3-0.2-0.8-0.4-1-0.7c-0.2-0.5,0.2-0.9,0.7-0.8c0.4,0.1,0.9,0.4,1.1,0.7
			C811.6,200.1,811,200.2,810.5,200.3z"/>
		<path fill="#083544" d="M821,210.4c-0.1-0.1-0.3-0.3-0.4-0.4C820.7,210.1,820.9,210.2,821,210.4C821,210.3,821,210.4,821,210.4z"
			/>
	</g>
</g>
</svg>
