<svg xmlns="http://www.w3.org/2000/svg" role="img" viewBox="-14.50 108.50 728.00 413.00"><style>.st0{fill-rule:evenodd;clip-rule:evenodd}.st1{fill:#00adef}</style><style>.st0{fill-rule:evenodd;clip-rule:evenodd}.st1{fill:#00adef}</style><style>.st0{fill-rule:evenodd;clip-rule:evenodd}.st1{fill:#00adef}</style><style>.st0{fill-rule:evenodd;clip-rule:evenodd}.st1{fill:#00adef}</style><style>.st0{fill-rule:evenodd;clip-rule:evenodd}.st1{fill:#00adef}</style><style>.st0{fill-rule:evenodd;clip-rule:evenodd}.st1{fill:#00adef}</style><style>.st0{fill-rule:evenodd;clip-rule:evenodd}.st1{fill:#00adef}</style><style>.st0{fill-rule:evenodd;clip-rule:evenodd}.st1{fill:#00adef}</style><style>.st0{fill-rule:evenodd;clip-rule:evenodd}.st1{fill:#00adef}</style><style id="style4">.st0{fill-rule:evenodd;clip-rule:evenodd}.st1{fill:#00adef}</style><g id="g4498"><g id="g13410" transform="translate(-31.805 168.561) scale(1.0789)"><path id="path7951" d="M474.2 107.1c.9-11.2.8-15.2 0-26.6-.5-6.4-7.7-11.9-15.7-11.9-7.9 0-15.3 5.5-15.7 11.9-.8 11.2-.7 15.5 0 26.6.4 6.4 7.7 11.2 15.7 11.2s15.2-5 15.7-11.2zm-8.9-23.7c.5 5.4.5 15.1 0 20.2s-1.6 7.7-6.7 7.7-6.2-2.5-6.7-7.7c-.5-5.1-.5-15 0-20.2s1.6-8.4 6.7-8.4c5.1-.1 6.2 3 6.7 8.4z" class="st0"/><path id="path8030" d="M387.4 20c0 3.5-2 8.1-7.6 8.1s-5.6-6.3-4.9-11.2c.7-4.2 5.6-5.6 11.9-5.6.7 0 .7.7.7 2.1m9 0V.1c0-9.1-4.9-14.7-14.7-14.7-11.2 0-16.1 5.6-15.4 14.7h9.1c.7-4.2 0-8.4 5.6-8.4s5.9 4.7 6.3 8.5-.7 4.1-.7 4.1-7.7.7-12.6 2.1c-4.9 1.4-9.1 4.9-9.1 14 0 7 1.4 14.7 11.2 15.4 5.6 0 9.1-3.5 10.5-4.9 0 0 .7 0 1.4 3.5h9.1s-.7-9.1-.7-18.2" class="st0"/><path id="path8032" d="M513.2 20c0 3.5-2 8.1-7.6 8.1s-5.6-6.3-4.9-11.2c.7-4.2 5.6-5.6 11.9-5.6.7 0 .7.7.7 2.1m9.1 0V.1c0-9.1-4.9-14.7-14.7-14.7-11.2 0-16.1 5.6-15.4 14.7h9.1c.7-4.2 0-8.4 5.6-8.4s5.9 4.7 6.3 8.5-.7 4.1-.7 4.1-7.7.7-12.6 2.1c-4.9 1.4-9.1 4.9-9.1 14 0 7 1.4 14.7 11.2 15.4 5.6 0 9.1-3.5 10.5-4.9 0 0 .7 0 1.4 3.5h9.1s-.7-9.1-.7-18.2" class="st0"/><path id="path8035" d="M390.2 102.5c0 3.5-2 8.1-7.6 8.1s-5.6-6.3-4.9-11.2c.7-4.2 5.6-5.6 11.9-5.6.7 0 .7.7.7 2.1m9 0V82.6c0-9.1-4.9-14.7-14.7-14.7-11.2 0-16.1 5.6-15.4 14.7h9.1c.7-4.2 0-8.4 5.6-8.4s5.9 4.7 6.3 8.5-.7 4.1-.7 4.1-7.7.7-12.6 2.1-9.1 4.9-9.1 14c0 7 1.4 14.7 11.2 15.4 5.6 0 9.1-3.5 10.5-4.9 0 0 .7 0 1.4 3.5h9.1s-.7-9.1-.7-18.2" class="st0"/><path id="path8037" d="M537 102.5c0 3.5-2 8.1-7.6 8.1s-5.6-6.3-4.9-11.2c.7-4.2 5.6-5.6 11.9-5.6.7 0 .7.7.7 2.1m9.1 0V82.6c0-9.1-4.9-14.7-14.7-14.7-11.2 0-16.1 5.6-15.4 14.7h9.1c.7-4.2 0-8.4 5.6-8.4s5.9 4.7 6.3 8.5c.4 3.8-.7 4.1-.7 4.1s-7.7.7-12.6 2.1c-4.9 1.4-9.1 4.9-9.1 14 0 7 1.4 14.7 11.2 15.4 5.6 0 9.1-3.5 10.5-4.9 0 0 .7 0 1.4 3.5h9.1s-.7-9.1-.7-18.2" class="st0"/><path id="path8039" d="M503.4 185c0 3.5-2 8.1-7.6 8.1s-5.6-6.3-4.9-11.2c.7-4.2 5.6-5.6 11.9-5.6.7 0 .7.7.7 2.1m9.1 0v-13.3c0-9.1-4.9-14.7-14.7-14.7-11.2 0-16.1 5.6-15.4 14.7h9.1c.7-4.2 0-8.4 5.6-8.4s5.9 4.7 6.3 8.5-.7 4.1-.7 4.1-7.7.7-12.6 2.1c-4.9 1.4-9.1 4.9-9.1 14 0 7 1.4 14.7 11.2 15.4 5.6 0 9.1-3.5 10.5-4.9 0 0 .7 0 1.4 3.5h9.1s-.7-9.1-.7-18.2" class="st0"/><path id="path7931" d="M371.3 185c0 3.5-2 8.1-7.6 8.1s-5.6-6.3-4.9-11.2c.7-4.2 5.6-5.6 11.9-5.6.7 0 .7.7.7 2.1m9.1 0v-13.3c0-9.1-4.9-14.7-14.7-14.7-11.2 0-16.1 5.6-15.4 14.7h9.1c.7-4.2 0-8.4 5.6-8.4s5.9 4.7 6.3 8.5-.7 4.1-.7 4.1-7.7.7-12.6 2.1c-4.9 1.4-9.1 4.9-9.1 14 0 7 1.4 14.7 11.2 15.4 5.6 0 9.1-3.5 10.5-4.9 0 0 .7 0 1.4 3.5h9.1s-.7-9.1-.7-18.2" class="st0"/><path id="path7929" d="M477.6 34.4h9.8v-48.2h-9.8v48.2z" class="st0"/><path id="path7935" d="M411.2-13.9h-9.8s.7 4.2.7 11.9v36.4h9.8V-1.3c0-3.5 1.4-7 6.3-7 4.2 0 5.6 3.5 5.6 7v35.7h10.5v-35c0-10.5-4.9-14-12.6-14-6.3 0-7.7 2.1-9.8 3.5l-.7-2.8" class="st0"/><path id="path7937" d="M471.3 9.2v7c0 9.8.7 18.2.7 18.2h-9.8c0-2.8-.7-4.2-.7-4.2-2.1 2.1-4.2 4.9-9.1 4.9-12.6 0-12.6-11.2-13.3-15.4V-3.4c.7-2.8 2.8-11.2 12.6-11.2 7 0 8.4 2.8 9.8 3.5v-21h9.8V9.2m-9.7 0V-1.3c0-7-6.3-7-6.3-7-5.6 0-7 4.2-7 17.5 0 10.5 0 18.9 7 18.9s6.3-7 6.3-11.9v-7" class="st0"/><path id="path7939" d="M361.6-13.9c0-6.3 0-20.3-18.2-20.3-18.9 0-18.9 14-18.9 17.5 0 4.2-.7 11.9 11.2 18.2 4.2 2.8 8.4 4.9 9.8 5.6.7.7 7 2.8 7 11.2 0 9.1-7.7 9.8-9.1 9.8-4.2 0-8.4-1.4-9.8-8.4v-6.3h-11.2s0 11.9 4.9 16.8 9.8 5.6 15.4 5.6 11.9-1.4 15.4-4.9c3.5-4.2 4.9-7.7 4.9-13.3 0-6.3-1.4-12.6-11.2-18.9-3.5-2.1-7-3.5-10.5-5.6-4.2-2.1-7-5.6-7-10.5s3.5-8.4 8.4-8.4c5.6 0 8.4 2.8 8.4 8.4v3.5h10.5" class="st0"/><path id="path7941" d="M477.6-22.3h9.8v-9.8h-9.8v9.8z" class="st0"/><path id="path7953" d="M338.5 50.4h-16.1v67.1h9.8V63.7l14.7 53.8H363V50.4h-9.8v52.4l-14.7-52.4" class="st0"/><path id="path7955" d="M416.8 75.6h7v-7h-7V56l-9.8 4.2v8.4h-5.6v7h5.6v31.5c0 4.2 0 10.5 11.2 10.5h5.6v-7h-4.2c-1.4 0-2.8-.7-2.8-5.6V75.6" class="st0"/><path id="path7957" d="M427.3 117.6h9.8v-49h-9.8v49z" class="st0"/><path id="path7959" d="M427.3 60.2h9.8v-9.8h-9.8v9.8z" class="st0"/><path id="path7961" d="M488.8 68.6H479s.7 4.2.7 11.9v37.1h9.8V81.2c0-3.5 1.4-7 5.6-7 4.9 0 6.3 3.5 6.3 7v36.4h9.8V81.9c0-10.5-4.9-14-12.6-14-6.3 0-7.7 2.1-9.8 3.5v-2.8" class="st0"/><path id="path7963" d="M553.1 117.6h9.8V50.4h-9.8v67.2z" class="st0"/><path id="path7977" d="M608.4 151.1h-9.1V200h9.8l-.7-48.9" class="st0"/><path id="path7979" d="M322.4 200.1h23.8v-8.4h-13.3v-58h-10.5v66.4" class="st0"/><path id="path7981" d="M418.2 162.3c1.1 11.7 1 15.3 0 23.8-.7 4.2-.7 14.7-13.3 14.7-4.2 0-7-2.8-9.1-4.9 0 0-.7 1.4-.7 4.2h-9.8s.7-4.2.7-11.9v-54.5h9.8v21c2.1-.7 3.5-3.5 9.8-3.5 9.8-.1 11.9 8.3 12.6 11.1zm-15.4 31.5c7 0 6.3-9.8 6.3-11.9v-7c0-13.3-.7-17.5-6.3-17.5-.7 0-7 0-7 7v18.9c0 2.8 0 10.5 7 10.5z" class="st0"/><path id="path7983" d="M480.4 151.1c-8.4-.7-9.1 6.3-10.5 6.3 0 0 0-4.2-.7-6.3h-9.1s.7 4.2.7 11.2v37.8h9.8v-32.2c0-3.5 1.4-8.4 9.1-9.1l.7-7.7" class="st0"/><path id="path7985" d="M530.1 158.1h7v-7h-7v-12.6l-9.1 4.2v8.4h-6.3v7h6.3v31.5c0 4.2 0 10.5 10.5 10.5h6.3v-7h-4.2c-2.1 0-3.5 0-3.5-4.9v-30.1" class="st0"/><path id="path7987" d="M595.8 151.1c-7 0-8.4 6.3-9.1 6.3 0 0-.7-4.2-.7-6.3h-9.8s.7 4.2.7 11.2v37.8h10.5v-32.2c0-3.5 1.4-8.4 8.4-9.1v-7.7" class="st0"/><path id="path7989" d="M599.3 143.4h9.1v-9.8h-9.1v9.8z" class="st0"/><path id="path7991" d="M644.7 178.4V163c-1.4-9.1-7.7-11.9-16.1-11.9-7.7 0-14 2.8-15.4 11.9-.7 4.9 0 20.3.7 25.9.7 6.3 5.6 11.9 14.7 11.9 9.8 0 13.6-5.2 15.4-11.4.9-3 .7-4.2.7-4.7h-9.8v2.1c0 4.2-1.4 7-6.3 7s-5.6-3.5-5.6-8.4v-7m-.6-7v-5.6c.7-7.7 3.5-8.4 6.3-8.4 4.2 0 6.3 2.1 6.3 9.1v4.9" class="st0"/><path id="path7993" d="M677.6 165.8c0-5.6.7-14.7-14-14.7-12.6 0-15.4 7.7-15.4 11.9 0 3.5 0 5.6 5.6 10.5 2.1 2.8 8.4 6.3 11.2 8.4.7.7 4.2 2.8 4.2 7 0 4.9-4.9 4.9-5.6 4.9-3.5 0-5.6-1.4-6.3-4.9v-4.2h-9.8s-.7 6.3 2.1 10.5 9.1 5.6 14 5.6c4.2 0 8.4-.7 11.2-3.5 2.8-2.8 3.5-4.9 3.5-9.8 0-4.2-.7-7-6.3-11.9-2.1-1.4-6.3-4.9-9.1-6.3-2.8-1.4-4.9-3.5-4.9-7s2.1-4.9 5.6-4.9 4.2 2.8 4.2 6.3c0 .7.7 2.1.7 2.1h9.1" class="st0"/><path id="path13406" d="M455.3 189.6c.9-11.2.8-15.2 0-26.6-.5-6.4-7.7-11.9-15.7-11.9-7.9 0-15.3 5.5-15.7 11.9-.8 11.2-.7 15.5 0 26.6.4 6.4 7.7 11.2 15.7 11.2s15.2-5 15.7-11.2zm-9-23.7c.5 5.4.5 15.1 0 20.2s-1.6 7.7-6.7 7.7-6.2-2.5-6.7-7.7c-.5-5.1-.5-15 0-20.2s1.6-8.4 6.7-8.4c5.1-.1 6.3 3 6.7 8.4z" class="st0"/><path id="path13408" d="M572.1 189.6c.9-11.2.8-15.2 0-26.6-.5-6.4-7.7-11.9-15.7-11.9-7.9 0-15.3 5.5-15.7 11.9-.8 11.2-.7 15.5 0 26.6.4 6.4 7.7 11.2 15.7 11.2s15.2-5 15.7-11.2zm-9-23.7c.5 5.4.5 15.1 0 20.2s-1.6 7.7-6.7 7.7-6.2-2.5-6.7-7.7c-.5-5.1-.5-15 0-20.2s1.6-8.4 6.7-8.4c5.1-.1 6.2 3 6.7 8.4z" class="st0"/></g><g id="g4492"><path id="g7876" d="M-1222.3 5722.6c-534.3 0-1547.6 68.9-1667 77.2-707.4 6.1-1281.7 580.4-1287.8 1287.9-8.2 119.3-77.1 1132.7-77.1 1667s68.8 1547.6 77.1 1667c6.1 707.4 580.4 1281.8 1287.8 1288 119.4 8.2 1132.7 77.1 1667 77.1s1547.6-68.9 1667-77.1c707.4-6.1 1281.7-580.5 1287.8-1288 8.2-119.4 77.1-1132.7 77.1-1667s-68.8-1547.7-77.1-1667c-6.1-707.5-580.4-1281.8-1287.8-1287.9-119.3-8.3-1132.7-77.2-1667-77.2zm-1655.6 5370.3c-376.4 0-682.7-306.2-682.7-682.5l-.8-21.5c-.8-10.9-76.3-1099.5-76.3-1634.2 0-534.9 75.5-1623.2 76.3-1634.2l.8-21.5c0-376.3 306.3-682.5 682.7-682.5l21.5-.8c10.9-.8 1099.5-76.3 1634.2-76.3 535 0 1623.2 75.6 1634.2 76.3l21.5.8c376.4 0 682.7 306.2 682.7 682.5l.8 21.5c.8 10.9 76.3 1099.5 76.3 1634.2s-75.5 1623.2-76.3 1634.2l-.8 21.5c0 376.3-306.3 682.5-682.7 682.5l-21.5.8c-10.9.8-1099.5 76.3-1634.2 76.3-535 0-1623.2-75.6-1634.2-76.3l-21.5-.8z" class="st1" transform="matrix(.0453 0 0 -.04527 192.709 656.338)"/><g id="g6515" transform="matrix(.0453 0 0 -.04527 192.71 656.338)"><path id="path6517" d="M-2205.8 10295.1h428.4l-13.2-425.7h-1284.8V7389.8l533.9-28v856.6l258.7-13.6v773.1h464.4l-68.2-2194h1328.8l-68.3 2194h464.5v-773.1L97 8218.4v-856.6l533.9 28v2479.6H-653.9l-27.5 883.3h-1524.5c.1.1.1-457.6.1-457.6z" class="st1"/></g></g></g><path d="M75.54056 415.97298H59.74244l20.19412 71.18772h13.80619l8.59968-41.62462 2.51396-13.76498 2.51396 13.76498 8.59967 41.62462h14.19084l20.04302-71.18773h-15.11125l-9.5201 41.19877-2.17052 10.90757-2.17052-11.34717-8.44857-40.75916H97.08096l-8.0227 41.00643-2.07436 11.0999-2.01941-11.34717zm95.88775 31.48635c1.7584-1.99194 4.23115-2.99478 7.41825-2.99478 2.92609 0 5.3851.94789 7.3633 2.82993 1.9782 1.88203 3.09094 4.64327 3.31074 8.2837h-21.38929c.4396-3.42063 1.55234-6.11318 3.297-8.11885zm19.24624-11.88294c-3.50306-1.63476-7.44573-2.45901-11.82799-2.45901-7.37704 0-13.36659 2.43153-17.99612 7.2946-4.6158 4.86308-6.9237 11.85547-6.9237 20.96343 0 9.72615 2.55517 16.74602 7.67926 21.05959 5.12409 4.31358 11.03121 6.47036 17.72137 6.47036 8.11887 0 14.42438-2.56891 18.93028-7.67926 2.89861-3.22831 4.53337-6.40167 4.87681-9.52009H189.081c-.74182 1.55234-1.59355 2.76124-2.55517 3.6267-1.77214 1.60729-4.0663 2.4178-6.90997 2.4178-2.66507 0-4.95923-.6594-6.85501-1.99193-3.11841-2.11558-4.78065-5.8247-4.97297-11.0999h36.03346c.05495-4.54712-.08243-8.0227-.4396-10.4405-.61819-4.12125-1.95073-7.73422-4.01135-10.86637-2.28043-3.53053-5.17904-6.12692-8.69584-7.77542zm-10.86636-2.45901zm64.71736 20.29028h14.10841c-.7693-7.50067-3.25578-12.73466-7.45946-15.70196-4.20367-2.95356-9.60251-4.43721-16.21025-4.43721-7.76169 0-13.8474 2.51396-18.25714 7.52815-4.40973 5.02792-6.60773 12.06152-6.60773 21.1008 0 8.0227 1.99193 14.54801 5.98955 19.5622 3.98387 5.02792 10.2207 7.54189 18.683 7.54189 8.4623 0 14.86397-3.00852 19.17755-9.03928 2.70628-3.7366 4.2174-7.693 4.53337-11.88294h-14.05346c-.28849 2.77498-1.11274 5.02793-2.45901 6.77259-1.36002 1.73093-3.64044 2.61013-6.85502 2.61013-4.54711 0-7.63805-2.198-9.27281-6.58027-.90667-2.34911-1.36001-5.45378-1.36001-9.31402 0-4.05256.45334-7.30835 1.36001-9.75363 1.70345-4.60206 4.87681-6.90996 9.50635-6.90996 3.25579 0 5.65985 1.05779 7.19845 3.1871 1.05779 1.57981 1.73093 3.35195 1.9782 5.31641zm-9.31403-20.29029zm79.51265 36.89893c-3.46185 4.35479-8.1326 6.52531-14.02598 6.52531-5.89339 0-10.59161-2.17052-14.10841-6.52531-3.50307-4.34105-5.26147-10.52292-5.26147-18.54562 0-8.00897 1.7584-14.19084 5.26147-18.54563 3.5168-4.34105 8.21502-6.52531 14.1084-6.52531 5.8934 0 10.56415 2.18426 14.026 6.55279 3.46185 4.35478 5.19277 10.53666 5.19277 18.51815 0 8.0227-1.73092 14.20457-5.19278 18.54562zm9.3003 10.82515c7.1847-6.80006 10.7702-16.58116 10.7702-29.37077 0-13.0369-3.5855-22.83173-10.7702-29.35704-5.37137-5.54995-13.1468-8.31119-23.32628-8.31119-10.17949 0-17.95491 2.76124-23.32628 8.31119-7.21219 6.52531-10.82515 16.32015-10.82515 29.35704 0 12.7896 3.61296 22.5707 10.82515 29.37077 5.37136 5.53621 13.14679 8.29745 23.32628 8.29745 10.17949 0 17.95491-2.76124 23.32627-8.29745zm-23.32628-67.039zm77.82294 36.267c1.85456 3.11841 2.7887 6.71764 2.7887 10.7702 0 4.93176-1.01657 8.87443-3.02224 11.82799-2.01941 2.9673-4.93176 4.45095-8.76453 4.45095-2.65133 0-4.93176-.72809-6.86875-2.17053-3.24205-2.48648-4.87681-6.78632-4.87681-12.89951 0-3.86024.49455-7.04734 1.45618-9.5613 1.8683-4.73944 5.28893-7.10229 10.28938-7.10229 4.14873 0 7.15724 1.56608 8.99807 4.68449zm10.57787-9.90474c-4.25862-4.53337-9.46514-6.80006-15.61954-6.80006-4.21741 0-7.85785 1.16769-10.92131 3.5168-1.66224 1.3188-3.24205 3.13215-4.7257 5.41258v-7.77543h-13.188v73.35825h13.6276v-27.43379c1.44244 2.22548 2.92609 3.91519 4.43721 5.08288 2.77498 2.0881 6.25057 3.13215 10.42677 3.13215 6.56652 0 11.93788-2.43154 16.11408-7.29461 4.16247-4.86308 6.25057-11.92415 6.25057-21.19697 0-8.792-2.12932-15.45468-6.40168-20.0018zm10.94879 4.64328h7.33582v32.40676c0 3.28326.7693 5.7148 2.32164 7.29461 2.37659 2.47275 6.82754 3.59923 13.32538 3.37943l6.5253-.24728v-10.28938c-.45333.0412-.9204.06868-1.38748.08242-.46707.01374-.90667.02748-1.3188.02748-2.80245 0-4.47842-.27475-5.02792-.81052-.5495-.52202-.82426-1.8683-.82426-4.02508v-27.81844h8.55847v-9.80858h-8.55847v-14.67165h-13.61386v14.67165h-7.33582zm91.17578-28.83501h-57.67002V428.584h21.40303v58.5767h14.97387V428.584h21.29312zm40.47068 57.1892c-2.15679 2.8574-5.24773 4.29985-9.27281 4.29985-4.02509 0-7.11603-1.44244-9.30029-4.29984-2.17052-2.87114-3.25579-6.93744-3.25579-12.22638 0-5.2752 1.08526-9.3415 3.25579-12.1989 2.18426-2.84366 5.2752-4.27236 9.30029-4.27236 4.02508 0 7.11602 1.4287 9.27281 4.27236 2.15679 2.8574 3.24205 6.9237 3.24205 12.1989 0 5.28894-1.08526 9.35524-3.24205 12.22638zm11.01747 7.59685c4.43722-5.48127 6.6627-12.089 6.6627-19.82322 0-7.59683-2.22548-14.1771-6.6627-19.75452-4.45095-5.56369-11.19606-8.3524-20.23533-8.3524-9.05302 0-15.79813 2.78871-20.23534 8.3524-4.45095 5.57742-6.67642 12.15769-6.67642 19.75452 0 7.73422 2.22547 14.34195 6.67642 19.82322 4.43721 5.495 11.18233 8.2425 20.23534 8.2425 9.03927 0 15.78438-2.7475 20.23533-8.2425zm-20.23533-47.64165zm69.63538 40.0448c-2.15678 2.8574-5.24772 4.29985-9.2728 4.29985-4.0251 0-7.11603-1.44244-9.3003-4.29984-2.17052-2.87114-3.25578-6.93744-3.25578-12.22638 0-5.2752 1.08526-9.3415 3.25579-12.1989 2.18426-2.84366 5.2752-4.27236 9.30028-4.27236 4.02509 0 7.11603 1.4287 9.27281 4.27236 2.1568 2.8574 3.24206 6.9237 3.24206 12.1989 0 5.28894-1.08527 9.35524-3.24206 12.22638zm11.01748 7.59685c4.43721-5.48127 6.66269-12.089 6.66269-19.82322 0-7.59684-2.22548-14.1771-6.66269-19.75452-4.45095-5.56369-11.19606-8.3524-20.23534-8.3524-9.05301 0-15.79812 2.78871-20.23533 8.3524-4.45095 5.57742-6.6627 12.15769-6.6627 19.75452 0 7.73421 2.21174 14.34195 6.6627 19.82321 4.4372 5.495 11.18232 8.2425 20.23533 8.2425 9.03928 0 15.78439-2.7475 20.23534-8.2425zm-20.23534-47.64165zm50.80128 54.04332v-71.18773H619.9302v71.18773z"/></svg>
