<svg xmlns="http://www.w3.org/2000/svg" role="img" viewBox="28.20 4.70 136.09 197.34"><g fill-rule="evenodd" clip-rule="evenodd"><path fill="none" d="M0 0h192.756v192.756H0V0z"/><path fill="#929496" d="M42.719 75.852h16.995c14.476 0 18.253-8.183 18.253-18.883V26.757c0-10.071-3.777-18.253-18.253-18.253H42.719v67.348zm10.7-61.684h5.665c5.664 0 8.182 3.147 8.182 11.959v32.1c0 8.812-2.518 11.959-8.182 11.959h-5.665V14.168zm91.895-5.664v50.983c0 6.294-1.258 10.7-6.924 10.7-5.664 0-6.924-4.406-6.924-10.7V8.504h-10.699v54.13c0 6.294 5.035 13.218 14.477 13.218h6.924c8.812 0 13.848-6.924 13.848-13.218V8.504h-10.702zm-29.582 0H81.744v6.294h11.329v61.054h11.958V14.798h10.701V8.504z"/><path fill="#c9322d" d="M160.654 109.932l-27.451 12.053c-35.486-12.053-38.165-12.053-73.65 0l-27.452-12.053 27.452-12.721c35.485 12.053 38.164 12.053 73.65 0l27.451 12.721zm0 30.798l-27.451 12.723c-35.486-12.053-38.165-12.053-73.65 0L32.102 140.73l27.452-12.719c35.485 12.051 38.164 12.051 73.65 0l27.45 12.719zm0 30.801l-27.451 12.721c-35.486-12.051-38.165-12.051-73.65 0l-27.452-12.721 27.452-12.721c35.485 12.051 38.164 12.051 73.65 0l27.451 12.721z"/></g><path d="M43.98587 188.0707h-1.78124l2.27689 8.0264h1.55664l.96961-4.69317.28345-1.552.28345 1.552.96961 4.69317h1.60002l2.25984-8.0264h-1.70379l-1.07339 4.64515-.24472 1.22983-.24473-1.2794-.95257-4.59558h-1.7704l-.90455 4.62347-.23389 1.2515-.22769-1.27938zm10.90116 1.38317v-1.43273h-1.57368v1.43273zm-1.57368.70785v5.93538h1.57368v-5.93538zm7.8715.34075c-.39032-.32217-.89216-.4817-1.50553-.4817-.48945 0-.89526.11926-1.21433.35934-.17813.1332-.3671.35315-.56535.65828v-.86583h-1.49779v5.92454h1.5458v-3.21242c0-.36709.05112-.66757.15335-.90455.19516-.44609.55605-.66913 1.08268-.66913.42904 0 .71869.1518.87203.45693.08364.16728.12546.40736.12546.71869v3.61048h1.58917v-3.99616c0-.74502-.19516-1.27784-.58548-1.59847zm-2.07707-.49874zm7.24266.25402c-.28035-.15799-.59943-.23698-.95877-.23698-.78065 0-1.4033.28964-1.87107.87048-.46622.58084-.69856 1.37852-.69856 2.3915 0 .87823.23698 1.59692.7094 2.15917.47396.5607 1.0579.84105 1.7518.84105.4213 0 .7729-.08054 1.05635-.24008.28345-.15954.53437-.4151.75587-.76825v.82246h1.50863v-8.01556H67.0304v2.8314c-.17347-.2788-.40116-.4972-.67996-.6552zm.38103 4.2285c-.22924.32526-.56225.48945-1.00214.48945s-.7667-.16419-.98355-.49255c-.2153-.32837-.32372-.7667-.32372-1.31502 0-.50804.10687-.93399.31907-1.27784.2122-.3423.54521-.51424.99904-.51424.29739 0 .55915.09449.78374.28345.3671.31133.54986.83176.54986 1.55665 0 .52043-.11307.94328-.3423 1.2701zm9.34451-4.99366v-1.42189h-5.88737v8.0264h6.08253v-1.44202h-4.4438v-2.06469h3.90014v-1.394h-3.90013v-1.7038zm-2.90264-1.42189zm9.075 2.43177c-.39032-.32217-.89216-.4817-1.50552-.4817-.491 0-.89527.11926-1.21434.35934-.17813.1332-.3671.35315-.5669.65828v-.86583h-1.49779v5.92454h1.54736v-3.21242c0-.36709.04956-.66757.15179-.90455.1967-.44609.5576-.66913 1.08423-.66913.4275 0 .71869.1518.87048.45693.08364.16728.12546.40736.12546.71869v3.61048h1.59072v-3.99616c0-.74502-.19516-1.27784-.58548-1.59847zm-2.07862-.49874zm5.60082 1.61705c.19826-.22459.47707-.33766.83641-.33766.32992 0 .60717.10687.83021.31907.22304.2122.34695.52353.37329.934l-2.41319-.00001c.05111-.38568.17503-.68926.37328-.9154zm2.17001-1.3398c-.39497-.18432-.8395-.27725-1.3336-.27725-.83176 0-1.50708.27415-2.02906.82246-.52043.54832-.78064 1.3367-.78064 2.36363 0 1.09662.2881 1.8881.86583 2.37446.5762.48635 1.24377.72953 1.99808.72953.9154 0 1.62635-.28964 2.13439-.86583.32681-.364.50958-.7218.54986-1.0734h-1.58453c-.08364.17503-.17967.31134-.2881.40892-.1998.18122-.46002.2726-.7791.2726-.30048 0-.55914-.07434-.7729-.22459-.3516-.23853-.539-.65673-.5607-1.2515h4.06122c.00775-.5127-.00774-.90456-.04801-1.17717-.0697-.46467-.21995-.87203-.45228-1.22518-.25712-.39807-.58394-.69081-.98046-.87668zm-1.22518-.27725zm7.04905.01859c-.02014-.00155-.04492-.00155-.0728-.00155-.46467 0-.8426.12081-1.1338.36399-.17657.1456-.38567.41665-.62575.81162v-1.03466h-1.48075v5.93538h1.56284v-2.83603c0-.47707.0604-.82867.17967-1.0579.21375-.40581.6335-.60872 1.25771-.60872.04647 0 .10842.00155.18587.00465.0759.00464.16263.01084.26021.02168v-1.58917c-.06815-.00465-.11307-.0062-.1332-.0093zm4.51194 4.38958c-.25092.27415-.5576.41046-.92004.41046-.54522 0-.92315-.24938-1.1338-.75122-.11617-.26796-.17347-.57464-.17347-.92005 0-.39961.0542-.73417.16263-1.00678.20755-.51269.58393-.76826 1.1276-.76826.39962 0 .71869.14715.95567.44144.23853.2943.35625.72179.35625 1.28559 0 .59787-.12391 1.03466-.37484 1.30882zm-.52817-4.25483c-.2215-.09139-.4817-.1363-.7791-.1363-.80543 0-1.42808.30048-1.86797.90146-.43834.59942-.65828 1.34134-.65828 2.22422 0 .91385.22768 1.63873.68306 2.17465.45538.53592 1.0641.80388 1.8277.80388.49255 0 .89372-.11771 1.2035-.3547.17038-.127.32991-.31752.4786-.57154v.38103c0 .5669-.06195.96961-.18586 1.20969-.18897.37328-.56225.5607-1.1214.5607-.39497 0-.67687-.07125-.84415-.2122-.09758-.08054-.16883-.21065-.2122-.39187h-1.6883c.0511.59168.31597 1.03621.79613 1.3336.47861.2974 1.09817.44609 1.85558.44609 1.25616 0 2.1065-.33457 2.5495-1.00214.2571-.38878.38567-.96497.38567-1.73167v-5.63025h-1.50863v.85499c-.23234-.41665-.53592-.70475-.91385-.85964zm-.28345-.15334zm4.39423 7.23181v1.24067c.16728.0124.29274.01859.37638.02014.08364.00155.19361.0031.33147.0031.68616 0 1.14308-.1363 1.37232-.40582.22924-.27105.53902-.9696.9309-2.0941l2.0368-5.83781h-1.64958l-1.22518 4.37874-1.29643-4.37874h-1.72548l2.17776 6.19715c.01394.04336-.01704.16263-.09604.35934-.07744.19516-.16108.32527-.25247.38723-.09448.06505-.21065.10687-.3485.1239-.13785.0186-.28345.02479-.43524.01705zm2.10186-7.23181zm9.81847-1.93303h-6.50228v1.4219h2.41319v6.6045h1.68675v-6.6045h2.40234zm4.56306 6.44807c-.24317.32217-.59168.4848-1.0455.4848-.45383 0-.80388-.16263-1.04861-.4848-.24473-.32372-.36709-.7822-.36709-1.37852 0-.59478.12236-1.05325.36709-1.37542.24473-.32062.59478-.48171 1.0486-.48171.45383 0 .80234.16109 1.04551.4817.24318.32218.364.78065.364 1.37543 0 .59633-.12082 1.0548-.364 1.37852zm1.24222.85654c.5003-.618.75122-1.36303.75122-2.23506 0-.85654-.25092-1.59846-.75122-2.22732-.50184-.6273-1.26235-.94173-2.28308-.94173-1.01917 0-1.77968.31443-2.28153.94173-.5003.62886-.75121 1.37078-.75121 2.22732 0 .87203.25092 1.61705.75121 2.23506.50185.61956 1.26236.92934 2.28153.92934 1.02073 0 1.78124-.30978 2.28308-.92934zm-2.28308-5.37158zm7.85293 4.51504c-.24318.32217-.59168.4848-1.04551.4848-.45383 0-.80388-.16263-1.0486-.4848-.24473-.32372-.3671-.7822-.3671-1.37852 0-.59478.12237-1.05325.3671-1.37542.24472-.32062.59477-.48171 1.0486-.48171.45383 0 .80233.16109 1.0455.4817.24318.32218.36555.78065.36555 1.37543 0 .59633-.12237 1.0548-.36554 1.37852zm1.24221.85654c.5003-.618.75122-1.36303.75122-2.23506 0-.85654-.25092-1.59846-.75122-2.22732-.50184-.6273-1.26235-.94173-2.28153-.94173-1.02072 0-1.78123.31443-2.28308.94173-.50029.62886-.75121 1.37078-.75121 2.22732 0 .87203.25092 1.61705.75121 2.23506.50185.61956 1.26236.92934 2.28308.92934 1.01918 0 1.77969-.30978 2.28153-.92934zm-2.28153-5.37158zm5.72784 6.09337v-8.0264h-1.552v8.0264zm6.5534-5.22134c-.44145-.5638-1.05171-.84415-1.83236-.84415-.43214 0-.78839.08984-1.06719.2726-.23543.14405-.45228.3547-.64744.6304v-2.85307h-1.54735v8.01556h1.51947v-.74502c.20755.28964.39962.49255.57774.60872.29739.1967.6908.29429 1.18181.29429.7791 0 1.38781-.30359 1.82306-.9092.43679-.60562.65363-1.37078.65363-2.29238 0-.88907-.21994-1.6155-.66138-2.17775zm-1.29799 3.61513c-.22149.32372-.53282.4848-.93243.4848-.46003 0-.80388-.16727-1.02847-.50184-.2246-.333-.33766-.75431-.33766-1.26235 0-.43214.0542-.78374.16263-1.05635.21065-.51268.59788-.76825 1.16013-.76825.55605 0 .93708.26176 1.14463.78374.10843.27725.16264.62576.16264 1.0455 0 .52663-.11152.95103-.33147 1.27475zm6.77799.02788c-.24318.32217-.59168.4848-1.0455.4848-.45229 0-.80234-.16263-1.04706-.4848-.24473-.32372-.36864-.7822-.36864-1.37852 0-.59478.1239-1.05325.36864-1.37542.24472-.32062.59477-.48171 1.04705-.48171.45383 0 .80233.16109 1.0455.4817.24474.32218.36555.78065.36555 1.37543 0 .59633-.12081 1.0548-.36554 1.37852zm1.24222.85654c.5003-.618.75121-1.36303.75121-2.23506 0-.85654-.25092-1.59846-.75121-2.22732-.5003-.6273-1.2608-.94173-2.28153-.94173-1.02073 0-1.78124.31443-2.28153.94173-.5003.62886-.75122 1.37078-.75122 2.22732 0 .87203.25092 1.61705.75122 2.23506.5003.61956 1.2608.92934 2.28153.92934 1.02072 0 1.78123-.30978 2.28153-.92934zm-2.28153-5.37158zm3.56092 6.09337h1.88501l1.02847-1.77968 1.02382 1.77968h1.93303l-2.02596-3.03274 1.95006-2.8918h-1.84629l-.9696 1.72083-.9913-1.72083h-1.9005l1.93922 2.91968z"/></svg>
