<svg width="297.201" height="70.8" viewBox="0 0 297.201 70.8" xmlns="http://www.w3.org/2000/svg"><g id="svgGroup" stroke-linecap="round" fill-rule="evenodd" font-size="9pt" stroke="#000" stroke-width="0.25mm" fill="#000" style="stroke:#000;stroke-width:0.25mm;fill:#000"><path d="M 30.8 70.8 L 19 70.8 L 0 3.1 L 9.4 0.1 L 25.2 60.7 L 40.1 8.1 L 52 8.1 L 66.8 60.7 L 82.5 0.4 L 91.3 3.1 L 72.4 70.8 L 60.6 70.8 L 45.8 18.2 L 30.8 70.8 Z M 125.1 70.8 L 113.3 70.8 L 94.3 3.1 L 103.7 0.1 L 119.5 60.7 L 134.4 8.1 L 146.3 8.1 L 161.1 60.7 L 176.8 0.4 L 185.6 3.1 L 166.7 70.8 L 154.9 70.8 L 140.1 18.2 L 125.1 70.8 Z M 219.1 70.8 L 209.6 70.8 L 209.6 9.2 L 188.1 9.2 L 188.1 0.8 L 240.6 0.8 L 240.6 9.2 L 219.1 9.2 L 219.1 70.8 Z M 260.1 70.8 L 250.6 70.8 L 250.6 1 Q 254.7 0.5 259.65 0.25 A 200.806 200.806 0 0 1 268.58 0.004 A 221.966 221.966 0 0 1 269.9 0 Q 277.47 0 283.072 2.082 A 26.011 26.011 0 0 1 284.7 2.75 A 24.606 24.606 0 0 1 289.782 5.779 A 19.374 19.374 0 0 1 294 10.3 Q 297.2 15.1 297.2 21.3 A 25.258 25.258 0 0 1 296.492 27.423 A 19.268 19.268 0 0 1 293.5 34 A 22.312 22.312 0 0 1 285.949 40.63 A 28.065 28.065 0 0 1 283.2 41.95 A 34.774 34.774 0 0 1 275.111 44.174 A 47.194 47.194 0 0 1 267.9 44.7 Q 263.7 44.7 260.1 44.4 L 260.1 70.8 Z M 260.1 8.4 L 260.1 36.3 Q 261.2 36.438 262.631 36.552 A 96.255 96.255 0 0 0 264 36.65 Q 266.3 36.8 269.1 36.8 A 31.831 31.831 0 0 0 274.48 36.375 Q 277.359 35.88 279.663 34.811 A 15.221 15.221 0 0 0 282.9 32.8 A 12.896 12.896 0 0 0 287.755 23.358 A 17.32 17.32 0 0 0 287.8 22.1 A 14.452 14.452 0 0 0 287.039 17.307 A 12.136 12.136 0 0 0 283.1 11.8 A 15.462 15.462 0 0 0 278.019 9.137 Q 275.793 8.427 273.1 8.16 A 34.58 34.58 0 0 0 269.7 8 A 131.125 131.125 0 0 0 266.442 8.039 A 109.939 109.939 0 0 0 264.6 8.1 A 91.274 91.274 0 0 0 261.717 8.264 A 75.041 75.041 0 0 0 260.1 8.4 Z" vector-effect="non-scaling-stroke"/></g></svg>