<?xml version="1.0" encoding="UTF-8" standalone="no"?>
<!-- Created with Inkscape (http://www.inkscape.org/) -->

<svg
   version="1.1"
   id="svg1202"
   width="300.6662"
   height="342.73068"
   viewBox="0 0 300.6662 342.73068"
   sodipodi:docname="xclim.svg"
   inkscape:version="1.2.2 (b0a84865, 2022-12-01)"
   xmlns:inkscape="http://www.inkscape.org/namespaces/inkscape"
   xmlns:sodipodi="http://sodipodi.sourceforge.net/DTD/sodipodi-0.dtd"
   xmlns="http://www.w3.org/2000/svg"
   xmlns:svg="http://www.w3.org/2000/svg">
  <defs
     id="defs1206" />
  <sodipodi:namedview
     id="namedview1204"
     pagecolor="#ffffff"
     bordercolor="#666666"
     borderopacity="1.0"
     inkscape:showpageshadow="2"
     inkscape:pageopacity="0.0"
     inkscape:pagecheckerboard="0"
     inkscape:deskcolor="#d1d1d1"
     showgrid="false"
     inkscape:zoom="0.56549519"
     inkscape:cx="157.38418"
     inkscape:cy="178.60452"
     inkscape:window-width="729"
     inkscape:window-height="480"
     inkscape:window-x="1841"
     inkscape:window-y="348"
     inkscape:window-maximized="0"
     inkscape:current-layer="g1208" />
  <g
     inkscape:groupmode="layer"
     inkscape:label="Image"
     id="g1208"
     transform="translate(-26.350163,-29.304403)">
    <g
       id="g1329">
      <path
         style="fill:#a4a4a4;stroke-width:1.33333"
         d="m 111.33334,369.46299 c -6.75598,-3.13954 -14.546473,-11.23513 -17.446421,-18.12965 -2.8149,-6.69232 -2.936076,-21.02592 -0.231897,-27.43031 2.81888,-6.67602 9.782438,-14.21861 16.218738,-17.56735 8.43616,-4.38922 22.26946,-4.0679 30.41638,0.70651 C 145.5638,310.13276 152,316.76015 152,319.0999 c 0,0.37852 -1.8132,1.08647 -4.02932,1.57321 -3.30538,0.72599 -4.86689,0.14959 -8.69112,-3.20813 -5.59121,-4.90915 -9.32687,-5.99188 -17.84818,-5.1731 -12.24761,1.17685 -20.09804,11.0123 -20.09804,25.1799 0,22.64256 24.0021,34.73125 39.06048,19.67288 3.19244,-3.19245 4.68097,-3.78713 7.77714,-3.10711 2.10598,0.46255 3.82904,1.45071 3.82904,2.1959 0,3.23161 -5.87873,9.13314 -12.27089,12.31849 -8.58471,4.27795 -20.33907,4.65508 -28.39577,0.91105 z m 60.69294,0.90496 c -6.3786,-3.38277 -6.65228,-5.4621 -6.67329,-50.70128 l -0.0197,-42.33333 H 170 h 4.66667 v 40.41183 c 0,45.94929 -0.0735,45.59006 9.149,44.71056 4.99433,-0.47628 5.70113,-0.18899 6.40164,2.60206 0.43309,1.7256 0.21544,3.70947 -0.48369,4.4086 -2.19954,2.19954 -14.11584,2.80626 -17.70734,0.90156 z M 38.19389,355.66667 c 6.324899,-8.25 12.030579,-15.67574 12.679288,-16.50166 0.765815,-0.97502 -2.008721,-5.65122 -7.9111,-13.33334 C 37.962262,319.32426 32.179202,311.75 30.110834,309 l -3.760671,-5 5.158252,10e-4 c 4.974082,0.001 5.515294,0.4754 15.158253,13.28494 5.5,7.30609 10.3,13.27756 10.666666,13.26992 0.366667,-0.008 5.155588,-5.98586 10.642049,-13.28492 C 77.613836,304.44824 78.125989,304 83.138643,304 c 3.978159,0 4.874505,0.38864 3.843981,1.66667 -12.458675,15.45094 -24.134363,32.30328 -23.218642,33.51312 0.618983,0.81779 6.328306,8.23688 12.687386,16.48688 l 11.561963,15 h -5.217936 c -5.025238,0 -5.574182,-0.46777 -14.864475,-12.66666 -5.305596,-6.96667 -10.080546,-12.66667 -10.610998,-12.66667 -0.530452,0 -5.324416,5.7 -10.653254,12.66667 -9.282407,12.13537 -9.90447,12.66666 -14.830695,12.66666 H 26.694075 Z M 200,337.33334 V 304 h 4.66667 4.66667 v 33.33334 33.33333 H 204.66667 200 Z m 28,0 V 304 h 4 c 3.93115,0 4.00074,0.12054 4.04224,7 l 0.0423,7.00001 2.74704,-3.68232 c 1.51087,-2.02527 5.29044,-5.17285 8.39904,-6.99462 13.82623,-8.10271 26.89067,-4.30832 33.64079,9.77051 0.11253,0.23479 2.83235,-2.20077 6.04393,-5.41236 10.32512,-10.32512 24.03355,-11.66572 32.51911,-3.18016 6.14429,6.14429 7.21648,11.85759 7.22484,38.49895 l 0.007,23.66666 h -4.66666 -4.66667 v -22.57986 c 0,-23.31719 -0.7804,-27.88356 -5.65457,-33.0868 -6.0232,-6.42985 -19.12014,-2.61766 -25.98036,7.56224 -2.8464,4.22377 -3.03174,5.83157 -3.03174,26.3016 v 21.80282 H 277.33334 272 V 347.29051 C 272,316.39857 270.20747,312 257.61816,312 c -6.63638,0 -13.28498,4.38525 -17.24258,11.37277 -2.75472,4.86372 -3.00016,7.00037 -3.02031,26.2939 l -0.0219,21 H 232.66667 228 Z M 200,284 v -6.66666 h 4.66667 4.66667 V 284 290.66667 H 204.66667 200 Z M 76.905517,256.15934 c -11.380201,-11.23022 -13.34996,-13.80298 -13.34996,-17.43679 0,-3.81728 4.482427,-8.74681 42.889073,-47.16709 L 149.3337,148.65115 107.22902,106.65891 C 84.071444,83.563177 64.571277,63.277382 63.895313,61.579368 62.142198,57.175561 63.935878,54.384224 77.119373,41.000001 94.587551,23.265856 89.440351,20.754915 140.66679,72.000118 l 42.65116,42.666782 42.68193,-42.666782 c 37.68299,-37.669608 43.16668,-42.666784 46.8207,-42.666784 3.46708,0 6.17064,2.067489 16.65908,12.739631 12.73845,12.961552 14.66164,15.706476 13.49449,19.260369 -0.36125,1.1 -19.7783,21.203491 -43.149,44.674426 l -42.49217,42.67443 42.10468,41.99224 c 23.15757,23.09573 42.65773,43.38152 43.33371,45.07953 1.72014,4.32102 -0.0399,7.17706 -11.91968,19.34295 -10.84886,11.11005 -16.25857,14.81775 -19.91833,13.65152 -1.24668,-0.39727 -21.45896,-19.92397 -44.91618,-43.39267 l -42.6495,-42.67036 -43.39728,43.32396 c -32.52807,32.47312 -44.188436,43.32398 -46.556102,43.32398 -2.208974,0 -7.173104,-3.96138 -16.508781,-13.174 z"
         id="path1343" />
      <path
         style="fill:#7095c3;stroke-width:1.33333"
         d="M 115.99137,370.75422 C 101.11792,366.22993 92.058567,353.57902 92.058567,337.33334 92.058567,317.2281 105.01937,304 124.71835,304 c 9.72763,0 14.85409,1.99482 21.61499,8.41083 5.23264,4.96571 5.45578,7.01838 0.88761,8.16491 -2.74033,0.68777 -4.49329,-0.0816 -8.56285,-3.75819 -17.33488,-15.66103 -42.790512,2.61307 -37.37141,26.82819 1.83939,8.21921 7.67069,15.77615 14.31632,18.55288 8.82989,3.68936 20.11717,1.30119 25.36159,-5.36601 2.26858,-2.88403 3.46588,-3.34651 6.89054,-2.66158 2.27968,0.45594 4.14486,1.45683 4.14486,2.2242 0,0.76738 -2.61345,3.89935 -5.80766,6.95995 -7.84394,7.5158 -20.0147,10.49756 -30.20097,7.39904 z m 59.17433,0.33833 c -1.55887,-0.31236 -4.25887,-2.08357 -6,-3.93605 L 166,363.78838 V 320.89419 278 h 4 4 l 0.32864,40.66667 c 0.32102,39.72314 0.39482,40.72143 3.18051,43.02656 2.07379,1.71603 4.07584,2.13027 7.33803,1.51827 2.73258,-0.51263 4.48616,-0.30504 4.48616,0.53107 0,0.75497 0.34338,2.26754 0.76309,3.36126 0.46752,1.21834 -0.17805,2.25492 -1.66667,2.67618 -4.6002,1.30177 -10.43582,1.87924 -13.26406,1.31254 z M 28.819857,369.00001 c 0.537478,-0.91667 5.568542,-7.66667 11.180144,-15 5.611601,-7.33334 10.635047,-14.071 11.163212,-14.9726 0.582335,-0.99407 -3.787103,-7.92611 -11.101456,-17.61228 -6.633966,-8.78517 -12.061756,-16.33551 -12.061756,-16.77855 0,-0.44304 1.944205,-0.61752 4.320456,-0.38772 3.711312,0.3589 5.680556,2.20369 13.967221,13.08448 5.305722,6.96667 10.223226,12.66667 10.927787,12.66667 0.704561,0 5.695657,-5.7 11.091324,-12.66667 8.346472,-10.77663 10.44816,-12.72902 14.085091,-13.08448 2.351134,-0.2298 4.274788,-0.0553 4.274788,0.38772 0,0.44304 -5.427791,7.99338 -12.061756,16.77855 -7.284159,9.64618 -11.684163,16.62232 -11.108466,17.61228 0.524311,0.9016 5.537927,7.63926 11.141369,14.9726 13.457119,17.6116 13.017751,16.66666 7.74959,16.66666 -4.061321,0 -5.280514,-1.12266 -14.412022,-13.27104 -5.486461,-7.29906 -10.275382,-13.27728 -10.642049,-13.28492 -0.366666,-0.008 -5.166666,5.96383 -10.666666,13.26992 -9.131867,12.13062 -10.383023,13.28392 -14.412023,13.28494 -3.162111,7.8e-4 -4.135176,-0.47106 -3.434788,-1.66556 z M 200,337.24886 v -33.41782 l 4.33334,0.41782 4.33333,0.41781 0.35663,33 0.35662,33 H 204.68996 200 Z m 28,0.0845 v -33.33333 h 4 c 3.95986,0 4,0.0736 4,7.33717 v 7.33718 l 5,-5.541 C 247.20134,306.26103 252.42827,304 262.11404,304 c 6.9727,0 7.91806,0.38504 12.7095,5.17647 2.95699,2.957 5.17647,6.46759 5.17647,8.18772 0,2.60419 0.7416,2.16875 5.486,-3.22117 C 292.68737,305.96183 296.79706,304 306.73379,304 c 7.48186,0 8.58084,0.3813 12.55583,4.35628 5.95732,5.95733 7.37705,13.72779 7.37705,40.37602 v 21.93437 h -4.66666 -4.66667 v -23.37616 c 0,-25.2463 -1.1518,-31.0057 -6.80587,-34.03166 -8.68498,-4.64807 -21.325,0.66096 -26.36593,11.07414 -2.50136,5.16714 -2.8282,8.18192 -2.8282,26.08798 v 20.2457 h -4 -4 V 350.7323 c 0,-33.95919 -2.72139,-39.54163 -18.9536,-38.87988 -4.14546,0.169 -12.26188,6.76293 -15.11451,12.27929 -1.45155,2.80698 -1.93189,9.05672 -1.93189,25.13542 v 21.39954 H 232.66667 228 v -33.33333 z m -27.73972,-53 c 0.38871,-6.05784 0.58039,-6.33333 4.40639,-6.33333 3.826,0 4.01768,0.27549 4.40639,6.33333 l 0.40638,6.33333 h -4.81277 -4.81277 z M 90.000002,267.7858 C 88.533335,266.99126 82.083335,261.17691 75.666668,254.86504 57.930126,237.4182 55.421176,242.56006 106.66679,191.33322 l 42.66679,-42.65116 -42.66679,-42.68194 C 69.596785,68.916953 64.001826,62.794477 64.01392,59.325757 c 0.01134,-3.251532 2.40036,-6.404887 12.873681,-16.992423 10.766866,-10.884281 13.532581,-13 16.993894,-13 3.648597,0 9.143325,5.011024 46.785295,42.666784 l 42.65116,42.666782 42.68193,-42.666782 c 37.12928,-37.116101 43.20459,-42.666784 46.69938,-42.666784 3.30796,0 6.30885,2.300045 16.99243,13.023855 10.52866,10.568325 12.97498,13.764568 12.97498,16.952521 0,3.377007 -5.98813,9.927243 -42.64453,46.64759 l -42.64454,42.71892 42.64454,42.70466 c 37.17952,37.23195 42.64453,43.22207 42.64453,46.74203 0,3.35963 -2.3177,6.31811 -13.8067,17.62389 -7.5937,7.4726 -14.92265,13.58654 -16.28657,13.58654 -1.4763,0 -20.04084,-17.53134 -45.87452,-43.32136 l -43.39466,-43.32136 -42.65211,42.52758 c -23.45866,23.39018 -43.852108,42.86163 -45.318775,43.26992 -1.466667,0.40828 -3.866667,0.0923 -5.333333,-0.70232 z"
         id="path1341" />
      <path
         style="fill:#5c86ba;stroke-width:1.33333"
         d="M 115.99137,370.75422 C 101.11792,366.22993 92.058567,353.57902 92.058567,337.33334 92.058567,317.2281 105.01937,304 124.71835,304 c 9.72763,0 14.85409,1.99482 21.61499,8.41083 5.23264,4.96571 5.45578,7.01838 0.88761,8.16491 -2.74033,0.68777 -4.49329,-0.0816 -8.56285,-3.75819 -17.33488,-15.66103 -42.790512,2.61307 -37.37141,26.82819 1.83939,8.21921 7.67069,15.77615 14.31632,18.55288 8.82989,3.68936 20.11717,1.30119 25.36159,-5.36601 2.26858,-2.88403 3.46588,-3.34651 6.89054,-2.66158 2.27968,0.45594 4.14486,1.45683 4.14486,2.2242 0,0.76738 -2.61345,3.89935 -5.80766,6.95995 -7.84394,7.5158 -20.0147,10.49756 -30.20097,7.39904 z m 59.17433,0.33833 c -1.55887,-0.31236 -4.25887,-2.08357 -6,-3.93605 L 166,363.78838 V 320.89419 278 h 4 4 l 0.32864,40.66667 c 0.32102,39.72314 0.39482,40.72143 3.18051,43.02656 2.07379,1.71603 4.07584,2.13027 7.33803,1.51827 2.73258,-0.51263 4.48616,-0.30504 4.48616,0.53107 0,0.75497 0.34338,2.26754 0.76309,3.36126 0.46752,1.21834 -0.17805,2.25492 -1.66667,2.67618 -4.6002,1.30177 -10.43582,1.87924 -13.26406,1.31254 z M 28.819857,369.00001 c 0.537478,-0.91667 5.568542,-7.66667 11.180144,-15 5.611601,-7.33334 10.635047,-14.071 11.163212,-14.9726 0.582335,-0.99407 -3.787103,-7.92611 -11.101456,-17.61228 -6.633966,-8.78517 -12.061756,-16.33551 -12.061756,-16.77855 0,-0.44304 1.944205,-0.61752 4.320456,-0.38772 3.711312,0.3589 5.680556,2.20369 13.967221,13.08448 5.305722,6.96667 10.223226,12.66667 10.927787,12.66667 0.704561,0 5.695657,-5.7 11.091324,-12.66667 8.346472,-10.77663 10.44816,-12.72902 14.085091,-13.08448 2.351134,-0.2298 4.274788,-0.0553 4.274788,0.38772 0,0.44304 -5.427791,7.99338 -12.061756,16.77855 -7.284159,9.64618 -11.684163,16.62232 -11.108466,17.61228 0.524311,0.9016 5.537927,7.63926 11.141369,14.9726 13.457119,17.6116 13.017751,16.66666 7.74959,16.66666 -4.061321,0 -5.280514,-1.12266 -14.412022,-13.27104 -5.486461,-7.29906 -10.275382,-13.27728 -10.642049,-13.28492 -0.366666,-0.008 -5.166666,5.96383 -10.666666,13.26992 -9.131867,12.13062 -10.383023,13.28392 -14.412023,13.28494 -3.162111,7.8e-4 -4.135176,-0.47106 -3.434788,-1.66556 z M 200,337.24886 v -33.41782 l 4.33334,0.41782 4.33333,0.41781 0.35663,33 0.35662,33 H 204.68996 200 Z m 28,0.0845 v -33.33333 h 4 c 3.95986,0 4,0.0736 4,7.33717 v 7.33718 l 5,-5.541 C 247.20134,306.26103 252.42827,304 262.11404,304 c 6.9727,0 7.91806,0.38504 12.7095,5.17647 2.95699,2.957 5.17647,6.46759 5.17647,8.18772 0,2.60419 0.7416,2.16875 5.486,-3.22117 C 292.68737,305.96183 296.79706,304 306.73379,304 c 7.48186,0 8.58084,0.3813 12.55583,4.35628 5.95732,5.95733 7.37705,13.72779 7.37705,40.37602 v 21.93437 h -4.66666 -4.66667 v -23.37616 c 0,-25.2463 -1.1518,-31.0057 -6.80587,-34.03166 -8.68498,-4.64807 -21.325,0.66096 -26.36593,11.07414 -2.50136,5.16714 -2.8282,8.18192 -2.8282,26.08798 v 20.2457 h -4 -4 V 350.7323 c 0,-33.95919 -2.72139,-39.54163 -18.9536,-38.87988 -4.14546,0.169 -12.26188,6.76293 -15.11451,12.27929 -1.45155,2.80698 -1.93189,9.05672 -1.93189,25.13542 v 21.39954 H 232.66667 228 v -33.33333 z m -27.73972,-53 c 0.38871,-6.05784 0.58039,-6.33333 4.40639,-6.33333 3.826,0 4.01768,0.27549 4.40639,6.33333 l 0.40638,6.33333 h -4.81277 -4.81277 z M 92.000002,268.33255 c -1.1,-0.34919 -7.85,-6.40561 -15.000001,-13.45871 -10.673412,-10.52876 -13,-13.53566 -13,-16.80134 0,-3.44118 5.75226,-9.73983 42.657109,-46.70906 l 42.65711,-42.7315 -42.65711,-42.6415 C 69.470795,68.81775 64.000001,62.831748 64.000001,59.316132 c 0,-3.327419 2.278094,-6.302374 13.023855,-17.007814 10.582968,-10.543257 13.76905,-12.980391 17,-13.00383 3.46149,-0.02512 9.478824,5.513889 46.488904,42.7934 l 42.51278,42.822242 42.86804,-42.793397 c 37.36926,-37.304186 43.38578,-42.793399 46.90432,-42.793399 3.3466,0 6.24331,2.246383 16.95253,13.146564 10.24575,10.428452 12.91624,13.933464 12.91624,16.952523 0,3.216303 -6.63634,10.453877 -42.83456,46.715239 l -42.83457,42.90929 42.83457,43.27515 c 32.46332,32.79724 42.83456,44.05513 42.83456,46.49654 0,2.30546 -3.69628,6.88311 -13,16.09983 -12.33138,12.21609 -14.32015,13.60431 -18.95252,13.22951 -1.07389,-0.0869 -21.18176,-19.35374 -44.68416,-42.8152 l -42.73164,-42.65724 -41.31584,41.4116 c -22.72371,22.77637 -42.815842,42.1898 -44.649175,43.14094 -1.833333,0.95116 -4.233333,1.44367 -5.333333,1.09447 z"
         id="path1339" />
      <path
         style="fill:#4a78b2;stroke-width:1.33333"
         d="M 115.99137,370.75422 C 101.11792,366.22993 92.058567,353.57902 92.058567,337.33334 92.058567,317.2281 105.01937,304 124.71835,304 c 9.72763,0 14.85409,1.99482 21.61499,8.41083 5.23264,4.96571 5.45578,7.01838 0.88761,8.16491 -2.74033,0.68777 -4.49329,-0.0816 -8.56285,-3.75819 -17.33488,-15.66103 -42.790512,2.61307 -37.37141,26.82819 1.83939,8.21921 7.67069,15.77615 14.31632,18.55288 8.82989,3.68936 20.11717,1.30119 25.36159,-5.36601 2.26858,-2.88403 3.46588,-3.34651 6.89054,-2.66158 2.27968,0.45594 4.14486,1.45683 4.14486,2.2242 0,0.76738 -2.61345,3.89935 -5.80766,6.95995 -7.84394,7.5158 -20.0147,10.49756 -30.20097,7.39904 z m 59.17433,0.33833 c -1.55887,-0.31236 -4.25887,-2.08357 -6,-3.93605 L 166,363.78838 V 320.89419 278 h 4 4 l 0.32864,40.66667 c 0.32102,39.72314 0.39482,40.72143 3.18051,43.02656 2.07379,1.71603 4.07584,2.13027 7.33803,1.51827 2.73258,-0.51263 4.48616,-0.30504 4.48616,0.53107 0,0.75497 0.34338,2.26754 0.76309,3.36126 0.46752,1.21834 -0.17805,2.25492 -1.66667,2.67618 -4.6002,1.30177 -10.43582,1.87924 -13.26406,1.31254 z M 28.819857,369.00001 c 0.537478,-0.91667 5.568542,-7.66667 11.180144,-15 5.611601,-7.33334 10.635047,-14.071 11.163212,-14.9726 0.582335,-0.99407 -3.787103,-7.92611 -11.101456,-17.61228 -6.633966,-8.78517 -12.061756,-16.33551 -12.061756,-16.77855 0,-0.44304 1.944205,-0.61752 4.320456,-0.38772 3.711312,0.3589 5.680556,2.20369 13.967221,13.08448 5.305722,6.96667 10.223226,12.66667 10.927787,12.66667 0.704561,0 5.695657,-5.7 11.091324,-12.66667 8.346472,-10.77663 10.44816,-12.72902 14.085091,-13.08448 2.351134,-0.2298 4.274788,-0.0553 4.274788,0.38772 0,0.44304 -5.427791,7.99338 -12.061756,16.77855 -7.284159,9.64618 -11.684163,16.62232 -11.108466,17.61228 0.524311,0.9016 5.537927,7.63926 11.141369,14.9726 13.457119,17.6116 13.017751,16.66666 7.74959,16.66666 -4.061321,0 -5.280514,-1.12266 -14.412022,-13.27104 -5.486461,-7.29906 -10.275382,-13.27728 -10.642049,-13.28492 -0.366666,-0.008 -5.166666,5.96383 -10.666666,13.26992 -9.131867,12.13062 -10.383023,13.28392 -14.412023,13.28494 -3.162111,7.8e-4 -4.135176,-0.47106 -3.434788,-1.66556 z M 200,337.24886 v -33.41782 l 4.33334,0.41782 4.33333,0.41781 0.35663,33 0.35662,33 H 204.68996 200 Z m 28,0.0845 v -33.33333 h 4 c 3.95986,0 4,0.0736 4,7.33717 v 7.33718 l 5,-5.541 C 247.20134,306.26103 252.42827,304 262.11404,304 c 6.9727,0 7.91806,0.38504 12.7095,5.17647 2.95699,2.957 5.17647,6.46759 5.17647,8.18772 0,2.60419 0.7416,2.16875 5.486,-3.22117 C 292.68737,305.96183 296.79706,304 306.73379,304 c 7.48186,0 8.58084,0.3813 12.55583,4.35628 5.95732,5.95733 7.37705,13.72779 7.37705,40.37602 v 21.93437 h -4.66666 -4.66667 v -23.37616 c 0,-25.2463 -1.1518,-31.0057 -6.80587,-34.03166 -8.68498,-4.64807 -21.325,0.66096 -26.36593,11.07414 -2.50136,5.16714 -2.8282,8.18192 -2.8282,26.08798 v 20.2457 h -4 -4 V 350.7323 c 0,-33.95919 -2.72139,-39.54163 -18.9536,-38.87988 -4.14546,0.169 -12.26188,6.76293 -15.11451,12.27929 -1.45155,2.80698 -1.93189,9.05672 -1.93189,25.13542 v 21.39954 H 232.66667 228 v -33.33333 z m -27.73972,-53 c 0.38871,-6.05784 0.58039,-6.33333 4.40639,-6.33333 3.826,0 4.01768,0.27549 4.40639,6.33333 l 0.40638,6.33333 h -4.81277 -4.81277 z M 76.974985,254.97615 C 66.557681,244.5196 64.000001,241.19224 64.000001,238.09662 c 0,-3.27935 6.371408,-10.25116 42.626049,-46.64282 l 42.62606,-42.78713 -42.62606,-42.71415 C 69.751791,69.002056 64.000001,62.701666 64.000001,59.260841 c 0,-3.257471 2.357751,-6.326441 13.023855,-16.952523 9.44752,-9.412069 13.930552,-12.974984 16.325756,-12.974984 2.556158,0 13.013048,9.707697 46.299578,42.982407 l 42.99767,42.982409 43.05738,-42.982409 C 263.24248,34.842866 269.279,29.333334 272.7979,29.333334 c 3.3466,0 6.24331,2.246383 16.95253,13.146564 10.29555,10.479142 12.91872,13.928423 12.92847,17 0.0105,3.301046 -6.11247,9.874139 -42.71323,45.853442 -23.499,23.1 -42.70451,42.60352 -42.67889,43.34114 0.0256,0.73763 19.24656,20.53412 42.71322,43.99219 33.4705,33.45824 42.66667,43.37657 42.66667,46.0172 0,2.48403 -3.41301,6.76637 -13.02385,16.34115 C 279.0745,265.55368 275.87824,268 272.6903,268 c -3.37614,0 -9.93607,-5.99161 -46.64282,-42.60193 l -42.71414,-42.60192 -42.89691,42.60192 C 104.30155,261.28446 96.941322,268 93.744739,268 90.718486,268 87.32228,265.36242 76.974985,254.97615 Z"
         id="path1337" />
      <path
         style="fill:#636363;stroke-width:1.33333"
         d="M 115.99137,370.75422 C 101.11792,366.22993 92.058567,353.57902 92.058567,337.33334 92.058567,317.2281 105.01937,304 124.71835,304 c 9.72763,0 14.85409,1.99482 21.61499,8.41083 5.23264,4.96571 5.45578,7.01838 0.88761,8.16491 -2.74033,0.68777 -4.49329,-0.0816 -8.56285,-3.75819 -17.33488,-15.66103 -42.790512,2.61307 -37.37141,26.82819 1.83939,8.21921 7.67069,15.77615 14.31632,18.55288 8.82989,3.68936 20.11717,1.30119 25.36159,-5.36601 2.26858,-2.88403 3.46588,-3.34651 6.89054,-2.66158 2.27968,0.45594 4.14486,1.45683 4.14486,2.2242 0,0.76738 -2.61345,3.89935 -5.80766,6.95995 -7.84394,7.5158 -20.0147,10.49756 -30.20097,7.39904 z m 59.17433,0.33833 c -1.55887,-0.31236 -4.25887,-2.08357 -6,-3.93605 L 166,363.78838 V 320.89419 278 h 4 4 l 0.32864,40.66667 c 0.32102,39.72314 0.39482,40.72143 3.18051,43.02656 2.07379,1.71603 4.07584,2.13027 7.33803,1.51827 2.73258,-0.51263 4.48616,-0.30504 4.48616,0.53107 0,0.75497 0.34338,2.26754 0.76309,3.36126 0.46752,1.21834 -0.17805,2.25492 -1.66667,2.67618 -4.6002,1.30177 -10.43582,1.87924 -13.26406,1.31254 z M 28.819857,369.00001 c 0.537478,-0.91667 5.568542,-7.66667 11.180144,-15 5.611601,-7.33334 10.635047,-14.071 11.163212,-14.9726 0.582335,-0.99407 -3.787103,-7.92611 -11.101456,-17.61228 -6.633966,-8.78517 -12.061756,-16.33551 -12.061756,-16.77855 0,-0.44304 1.944205,-0.61752 4.320456,-0.38772 3.711312,0.3589 5.680556,2.20369 13.967221,13.08448 5.305722,6.96667 10.223226,12.66667 10.927787,12.66667 0.704561,0 5.695657,-5.7 11.091324,-12.66667 8.346472,-10.77663 10.44816,-12.72902 14.085091,-13.08448 2.351134,-0.2298 4.274788,-0.0553 4.274788,0.38772 0,0.44304 -5.427791,7.99338 -12.061756,16.77855 -7.284159,9.64618 -11.684163,16.62232 -11.108466,17.61228 0.524311,0.9016 5.537927,7.63926 11.141369,14.9726 13.457119,17.6116 13.017751,16.66666 7.74959,16.66666 -4.061321,0 -5.280514,-1.12266 -14.412022,-13.27104 -5.486461,-7.29906 -10.275382,-13.27728 -10.642049,-13.28492 -0.366666,-0.008 -5.166666,5.96383 -10.666666,13.26992 -9.131867,12.13062 -10.383023,13.28392 -14.412023,13.28494 -3.162111,7.8e-4 -4.135176,-0.47106 -3.434788,-1.66556 z M 200,337.24886 v -33.41782 l 4.33334,0.41782 4.33333,0.41781 0.35663,33 0.35662,33 H 204.68996 200 Z m 28,0.0845 v -33.33333 h 4 c 3.95986,0 4,0.0736 4,7.33717 v 7.33718 l 5,-5.541 C 247.20134,306.26103 252.42827,304 262.11404,304 c 6.9727,0 7.91806,0.38504 12.7095,5.17647 2.95699,2.957 5.17647,6.46759 5.17647,8.18772 0,2.60419 0.7416,2.16875 5.486,-3.22117 C 292.68737,305.96183 296.79706,304 306.73379,304 c 7.48186,0 8.58084,0.3813 12.55583,4.35628 5.95732,5.95733 7.37705,13.72779 7.37705,40.37602 v 21.93437 h -4.66666 -4.66667 v -23.37616 c 0,-25.2463 -1.1518,-31.0057 -6.80587,-34.03166 -8.68498,-4.64807 -21.325,0.66096 -26.36593,11.07414 -2.50136,5.16714 -2.8282,8.18192 -2.8282,26.08798 v 20.2457 h -4 -4 V 350.7323 c 0,-33.95919 -2.72139,-39.54163 -18.9536,-38.87988 -4.14546,0.169 -12.26188,6.76293 -15.11451,12.27929 -1.45155,2.80698 -1.93189,9.05672 -1.93189,25.13542 v 21.39954 H 232.66667 228 v -33.33333 z m -27.73972,-53 c 0.38871,-6.05784 0.58039,-6.33333 4.40639,-6.33333 3.826,0 4.01768,0.27549 4.40639,6.33333 l 0.40638,6.33333 h -4.81277 -4.81277 z M 77.146565,255.08376 c -9.875594,-9.70258 -13.146564,-13.7684 -13.146564,-16.34114 0,-2.71774 8.809783,-12.23147 42.666669,-46.07595 23.46667,-23.45807 42.66667,-43.32663 42.66667,-44.15233 0,-0.82571 -19.2,-20.44542 -42.66667,-43.59934 C 71.204611,69.925556 64.000001,62.197484 64.000001,59.14832 c 0,-5.00192 24.479615,-29.814986 29.414318,-29.814986 2.511765,0 13.137431,9.873071 45.919021,42.666667 23.45806,23.466667 43.25806,42.666669 44,42.666669 0.74193,0 20.54193,-19.200002 44,-42.666669 33.09566,-33.107794 43.39324,-42.666667 45.96386,-42.666667 4.50997,0 29.36947,24.94447 29.36947,29.469846 0,2.29187 -11.14161,14.262911 -42.66667,45.84296 -23.46666,23.5076 -42.66666,43.31684 -42.66666,44.02053 0,0.70369 19.2,20.51293 42.66666,44.02053 32.3693,32.42576 42.66667,43.51646 42.66667,45.95378 0,4.60636 -24.85544,29.37901 -29.40651,29.30856 -3.55361,-0.0551 -15.76504,-11.3904 -63.59574,-59.03338 L 182.66216,182.0199 139.65684,225.00995 C 107.2581,257.39718 95.867416,268 93.472323,268 c -2.226504,0 -7.118739,-3.87053 -16.325758,-12.91624 z"
         id="path1335" />
      <path
         style="fill:#17539e;stroke-width:1.33333"
         d="m 115.9384,370.23582 c -8.34863,-2.32156 -14.79816,-7.60919 -19.389813,-15.89671 -3.331641,-6.0133 -3.877159,-8.4224 -3.850809,-17.00577 0.03617,-11.78181 2.799992,-18.16012 11.130102,-25.68588 6.53077,-5.90015 14.29127,-8.17283 24.71157,-7.2368 8.32817,0.74809 16.54954,5.2599 20.46863,11.233 1.82967,2.78859 1.72147,3.06511 -1.70976,4.36965 -3.10468,1.1804 -3.95352,0.97795 -5.56878,-1.32816 -1.04816,-1.49646 -4.2422,-3.91281 -7.09786,-5.36966 -9.66098,-4.92866 -20.07018,-2.77017 -27.51136,5.70488 -8.402768,9.57022 -9.295534,22.61508 -2.31675,33.85157 4.59452,7.39761 11.44124,11.35029 19.66064,11.35029 6.57249,0 16.05893,-4.217 18.11067,-8.0507 0.9379,-1.75248 2.32859,-2.2957 4.71124,-1.84022 4.07586,0.77915 4.27396,2.83995 0.7087,7.37246 -5.90752,7.51018 -21.14592,11.566 -32.05642,8.53205 z m -86.413938,-1.8582 c 0.99488,-1.36357 6.508851,-8.6434 12.253268,-16.1774 5.744419,-7.534 10.151224,-14.46217 9.792903,-15.39595 -0.358321,-0.93377 -5.508299,-8.04854 -11.444396,-15.8106 -5.936096,-7.76205 -10.792903,-14.46101 -10.792903,-14.88657 0,-0.42558 1.661079,-0.77376 3.691285,-0.77376 3.117436,0 5.242062,2.06312 13.666667,13.27104 5.48646,7.29907 10.275382,13.27127 10.642048,13.27156 0.366667,2.9e-4 5.125038,-5.97168 10.574158,-13.27104 8.454824,-11.32564 10.458672,-13.27156 13.666667,-13.27156 2.067547,0 3.759176,0.33744 3.759176,0.74986 0,0.41243 -5.1,7.37849 -11.333334,15.48011 -6.233333,8.10163 -11.319539,15.41419 -11.30268,16.25014 0.01685,0.83593 5.388891,8.41989 11.937846,16.85322 10.208836,13.1463 11.521871,15.39592 9.205711,15.77211 -4.505183,0.73173 -5.86309,-0.43128 -15.988646,-13.69392 -5.36525,-7.02749 -10.246652,-12.61337 -10.847563,-12.41308 -0.600911,0.20031 -5.428583,6.0576 -10.728161,13.01621 -8.399367,11.02879 -10.208147,12.70698 -14.098257,13.08043 -4.136404,0.39711 -4.330417,0.24717 -2.653789,-2.0508 z m 140.414938,-0.98368 -3.27273,-3.27272 v -42.72728 -42.72727 h 4 4 v 40.57143 c 0,45.89515 -0.0508,45.65635 9.4442,44.3828 4.38261,-0.58783 5.03605,-0.30313 5.55683,2.42108 0.68217,3.56859 -1.66798,4.57768 -10.7283,4.60649 -4.31853,0.0137 -6.53228,-0.7868 -9,-3.25453 z M 200,338.00001 v -32.66667 h 4 4 v 32.66667 32.66666 h -4 -4 z m 28,0 v -32.66667 h 4 c 3.93436,0 4,0.1144 4,6.97045 v 6.97047 l 4.23902,-5.14265 c 11.30508,-13.71505 32.03374,-13.41455 38.28811,0.55504 l 2.37208,5.29821 4.39704,-5.47153 c 7.60757,-9.46661 21.5248,-13.25995 30.88682,-8.41866 7.66838,3.96548 9.52152,11.1412 10.21952,39.572 l 0.61378,25 h -4.17486 -4.17484 V 350.7323 c 0,-32.02961 -2.96986,-39.39896 -15.87788,-39.39896 -7.68741,0 -14.76344,4.77633 -18.80109,12.69079 -2.31317,4.5342 -2.65436,7.86625 -2.65436,25.92276 v 20.71978 h -4 -4 v -22.63968 c 0,-17.78173 -0.46462,-23.80088 -2.16527,-28.05122 -2.25148,-5.62702 -7.26724,-9.3091 -12.68089,-9.3091 -5.38739,0 -14.08756,5.28016 -18.005,10.9273 -3.76407,5.42604 -3.82122,5.79392 -4.23858,27.28645 l -0.42306,21.78625 H 231.91027 228 Z m -28,-53.33334 c 0,-5.77777 0.14815,-6 4,-6 3.85186,0 4,0.22223 4,6 0,5.77777 -0.14814,6 -4,6 -3.85185,0 -4,-0.22223 -4,-6 z M 77.146565,255.08376 c -9.875594,-9.70258 -13.146564,-13.7684 -13.146564,-16.34114 0,-2.71774 8.809783,-12.23147 42.666669,-46.07595 23.46667,-23.45807 42.66667,-43.32663 42.66667,-44.15233 0,-0.82571 -19.2,-20.44542 -42.66667,-43.59934 C 71.204611,69.925556 64.000001,62.197484 64.000001,59.14832 c 0,-5.00192 24.479615,-29.814986 29.414318,-29.814986 2.511765,0 13.137431,9.873071 45.919021,42.666667 23.45806,23.466667 43.25806,42.666669 44,42.666669 0.74193,0 20.54193,-19.200002 44,-42.666669 33.09566,-33.107794 43.39324,-42.666667 45.96386,-42.666667 4.50997,0 29.36947,24.94447 29.36947,29.469846 0,2.29187 -11.14161,14.262911 -42.66667,45.84296 -23.46666,23.5076 -42.66666,43.31684 -42.66666,44.02053 0,0.70369 19.2,20.51293 42.66666,44.02053 32.3693,32.42576 42.66667,43.51646 42.66667,45.95378 0,4.60636 -24.85544,29.37901 -29.40651,29.30856 -3.55361,-0.0551 -15.76504,-11.3904 -63.59574,-59.03338 L 182.66216,182.0199 139.65684,225.00995 C 107.2581,257.39718 95.867416,268 93.472323,268 c -2.226504,0 -7.118739,-3.87053 -16.325758,-12.91624 z"
         id="path1333" />
      <path
         style="fill:#040404;stroke-width:1.33333"
         d="m 115.9384,370.23582 c -8.34863,-2.32156 -14.79816,-7.60919 -19.389813,-15.89671 -3.331641,-6.0133 -3.877159,-8.4224 -3.850809,-17.00577 0.03617,-11.78181 2.799992,-18.16012 11.130102,-25.68588 6.53077,-5.90015 14.29127,-8.17283 24.71157,-7.2368 8.32817,0.74809 16.54954,5.2599 20.46863,11.233 1.82967,2.78859 1.72147,3.06511 -1.70976,4.36965 -3.10468,1.1804 -3.95352,0.97795 -5.56878,-1.32816 -1.04816,-1.49646 -4.2422,-3.91281 -7.09786,-5.36966 -9.66098,-4.92866 -20.07018,-2.77017 -27.51136,5.70488 -8.402768,9.57022 -9.295534,22.61508 -2.31675,33.85157 4.59452,7.39761 11.44124,11.35029 19.66064,11.35029 6.57249,0 16.05893,-4.217 18.11067,-8.0507 0.9379,-1.75248 2.32859,-2.2957 4.71124,-1.84022 4.07586,0.77915 4.27396,2.83995 0.7087,7.37246 -5.90752,7.51018 -21.14592,11.566 -32.05642,8.53205 z m -86.413938,-1.8582 c 0.99488,-1.36357 6.508851,-8.6434 12.253268,-16.1774 5.744419,-7.534 10.151224,-14.46217 9.792903,-15.39595 -0.358321,-0.93377 -5.508299,-8.04854 -11.444396,-15.8106 -5.936096,-7.76205 -10.792903,-14.46101 -10.792903,-14.88657 0,-0.42558 1.661079,-0.77376 3.691285,-0.77376 3.117436,0 5.242062,2.06312 13.666667,13.27104 5.48646,7.29907 10.275382,13.27127 10.642048,13.27156 0.366667,2.9e-4 5.125038,-5.97168 10.574158,-13.27104 8.454824,-11.32564 10.458672,-13.27156 13.666667,-13.27156 2.067547,0 3.759176,0.33744 3.759176,0.74986 0,0.41243 -5.1,7.37849 -11.333334,15.48011 -6.233333,8.10163 -11.319539,15.41419 -11.30268,16.25014 0.01685,0.83593 5.388891,8.41989 11.937846,16.85322 10.208836,13.1463 11.521871,15.39592 9.205711,15.77211 -4.505183,0.73173 -5.86309,-0.43128 -15.988646,-13.69392 -5.36525,-7.02749 -10.246652,-12.61337 -10.847563,-12.41308 -0.600911,0.20031 -5.428583,6.0576 -10.728161,13.01621 -8.399367,11.02879 -10.208147,12.70698 -14.098257,13.08043 -4.136404,0.39711 -4.330417,0.24717 -2.653789,-2.0508 z m 140.414938,-0.98368 -3.27273,-3.27272 v -42.72728 -42.72727 h 4 4 v 40.57143 c 0,45.89515 -0.0508,45.65635 9.4442,44.3828 4.38261,-0.58783 5.03605,-0.30313 5.55683,2.42108 0.68217,3.56859 -1.66798,4.57768 -10.7283,4.60649 -4.31853,0.0137 -6.53228,-0.7868 -9,-3.25453 z M 200,338.00001 v -32.66667 h 4 4 v 32.66667 32.66666 h -4 -4 z m 28,0 v -32.66667 h 4 c 3.93436,0 4,0.1144 4,6.97045 v 6.97047 l 4.23902,-5.14265 c 11.30508,-13.71505 32.03374,-13.41455 38.28811,0.55504 l 2.37208,5.29821 4.39704,-5.47153 c 7.60757,-9.46661 21.5248,-13.25995 30.88682,-8.41866 7.66838,3.96548 9.52152,11.1412 10.21952,39.572 l 0.61378,25 h -4.17486 -4.17484 V 350.7323 c 0,-32.02961 -2.96986,-39.39896 -15.87788,-39.39896 -7.68741,0 -14.76344,4.77633 -18.80109,12.69079 -2.31317,4.5342 -2.65436,7.86625 -2.65436,25.92276 v 20.71978 h -4 -4 v -22.63968 c 0,-17.78173 -0.46462,-23.80088 -2.16527,-28.05122 -2.25148,-5.62702 -7.26724,-9.3091 -12.68089,-9.3091 -5.38739,0 -14.08756,5.28016 -18.005,10.9273 -3.76407,5.42604 -3.82122,5.79392 -4.23858,27.28645 l -0.42306,21.78625 H 231.91027 228 Z m -28,-53.33334 c 0,-5.77777 0.14815,-6 4,-6 3.85186,0 4,0.22223 4,6 0,5.77777 -0.14814,6 -4,6 -3.85185,0 -4,-0.22223 -4,-6 z"
         id="path1331" />
    </g>
  </g>
</svg>
