<svg xmlns="http://www.w3.org/2000/svg" role="img" viewBox="-6.70 72.06 413.14 133.89"><title>AI for Earth Data Sets logo</title><style>svg {enable-background:new 0 0 400 245}</style><g><path fill="#f25022" d="M1.34,80.08H41.7c0,13.45,0,26.91,0,40.36c-13.45,0-26.91,0-40.36,0V80.08L1.34,80.08z"/><path fill="#80ba01" d="M45.82,80.08h40.36c0,13.45,0,26.91,0,40.36c-13.45,0-26.91,0-40.36,0C45.82,106.99,45.82,93.53,45.82,80.08 L45.82,80.08z"/><g><path fill="#777" d="M390.03 111.49c-.07-3.64-.01-7.29-.03-10.93-2.88.87-5.74 1.79-8.64 2.62-.07 2.76 0 5.53-.04 8.29-4.26 0-8.51 0-12.77 0 .05-2.18-.15-4.37.16-6.54.26-1.71 1.25-3.41 2.91-4.07 2.1-.86 4.44-.29 6.43.59-.01-2.49.02-4.99-.02-7.48-4.19-1.15-9-.93-12.72 1.49-2.4 1.54-4.14 4-4.92 6.72-.93 3.02-.45 6.21-.6 9.3-2.02-.01-4.04-.03-6.05.01.02 2.33.01 4.66 0 6.99 2.02.04 4.05-.01 6.08.03-.02 9.81 0 19.62 0 29.44 2.91 0 5.82 0 8.73 0 0-9.82 0-19.63 0-29.45 4.26-.01 8.52 0 12.78 0 .01 6.26-.01 12.51.01 18.77.04 2.91.54 6.03 2.47 8.33 1.67 2.04 4.32 2.97 6.88 3.16 2.7.19 5.49-.14 7.98-1.22v-7.16c-1.91 1.28-4.56 1.79-6.64.62-1.24-.69-1.73-2.16-1.89-3.48-.26-2.25-.1-4.52-.14-6.78 0-4.08.01-8.15 0-12.23 2.89.01 5.78-.08 8.67.04v-7.09C395.78 111.48 392.9 111.45 390.03 111.49zM178.42 95.96c-2.42.28-4.49 2.48-4.43 4.95-.1 2.35 1.79 4.46 4.05 4.86 2.18.48 4.69-.45 5.81-2.43 1.01-1.76.76-4.16-.61-5.67C182.08 96.3 180.18 95.7 178.42 95.96zM154.4 97.07c-5.04 12.55-10.2 25.06-15.28 37.6-1.06-2.49-2-5.03-3.02-7.54-3.96-10.03-7.94-20.06-11.89-30.09-4.23 0-8.46 0-12.7 0 0 16.97 0 33.94 0 50.91 2.77 0 5.54 0 8.31 0-.01-7.6 0-15.19 0-22.79.03-5.49-.06-10.98.05-16.46.16.25.3.51.44.78 5.18 12.83 10.32 25.67 15.52 38.49 2.09-.03 4.18.04 6.27-.04 5.02-12.83 10.16-25.61 15.2-38.43.13-.28.29-.55.46-.81.04.56.06 1.12.05 1.69-.02 12.52.02 25.04-.01 37.57 2.94.04 5.87.01 8.81.02 0-16.97-.01-33.93 0-50.9C162.54 97.06 158.47 97.01 154.4 97.07zM215.41 111.47c-4.21-1.19-8.75-1.24-12.97-.04-3.87 1.12-7.42 3.49-9.68 6.84-2.71 3.93-3.67 8.84-3.45 13.54.21 4.53 2 9.04 5.28 12.21 3.03 2.94 7.19 4.52 11.37 4.74 4.08.2 8.36-.35 11.93-2.47-.03-2.64 0-5.27-.02-7.91-2.3 1.68-4.99 2.89-7.83 3.21-2.88.22-5.97-.48-8.17-2.43-2.12-1.81-3.25-4.53-3.53-7.25-.38-3.48.13-7.26 2.31-10.11 1.7-2.3 4.41-3.77 7.25-4.03 3.58-.45 7.15.91 9.96 3.06.03-2.78-.02-5.57.03-8.35C217.12 112.05 216.28 111.71 215.41 111.47zM274.08 112.28c-3.89-1.77-8.31-2.01-12.5-1.47-4.4.56-8.68 2.63-11.48 6.13-2.55 3.13-3.79 7.16-4.03 11.15-.35 4.71.43 9.7 3.2 13.63 2.35 3.39 6.07 5.72 10.08 6.58 3.36.71 6.87.71 10.22.01 3.92-.81 7.59-2.98 10.02-6.18 2.38-3.02 3.57-6.82 3.84-10.62.27-3.89-.12-7.92-1.74-11.51C280.19 116.62 277.46 113.8 274.08 112.28zM273.27 136.73c-.83 1.88-2.36 3.46-4.29 4.21-2.25.87-4.79.92-7.12.31-2.37-.62-4.38-2.33-5.47-4.51-1.41-2.81-1.62-6.05-1.33-9.13.26-2.8 1.24-5.68 3.37-7.61 1.55-1.44 3.66-2.15 5.74-2.27 2.62-.17 5.42.57 7.3 2.48 2.02 1.98 2.8 4.86 3.01 7.6C274.66 130.82 274.53 133.95 273.27 136.73zM305.8 128.07c-2.56-1.48-5.52-2.19-7.99-3.84-1.45-.92-1.86-2.93-1.27-4.47.74-1.55 2.54-2.24 4.17-2.31 3.24-.11 6.5.87 9.17 2.71 0-2.67 0-5.35 0-8.02-3.82-1.45-8.05-1.97-12.08-1.26-3.41.61-6.76 2.38-8.69 5.34-1.69 2.54-1.91 5.81-1.21 8.71.47 1.97 1.67 3.71 3.26 4.95 2.26 1.73 4.96 2.7 7.53 3.86 1.37.64 2.82 1.3 3.81 2.49 1.06 1.55.74 4.08-1.04 4.96-1.86.89-4.03.88-6.02.55-2.87-.49-5.57-1.71-7.92-3.42-.03 2.81 0 5.62-.01 8.44 2.79 1.24 5.84 1.84 8.87 2.04 4.27.16 8.92-.67 12.15-3.69 3.38-2.99 4.19-8.28 2.27-12.28C309.78 130.68 307.82 129.2 305.8 128.07zM344.12 112.55c-3.98-2.01-8.6-2.3-12.96-1.76-3.51.45-6.96 1.78-9.65 4.14-3.27 2.82-5.19 6.96-5.76 11.2-.54 4.24-.36 8.71 1.37 12.67 1.66 3.89 4.93 7.05 8.87 8.6 3.89 1.53 8.21 1.7 12.3 1.04 4.18-.69 8.14-2.89 10.73-6.27 2.77-3.5 3.96-8.02 3.95-12.43.06-2.95-.31-5.94-1.36-8.71C350.27 117.42 347.59 114.29 344.12 112.55zM343.74 133.41c-.33 1.92-1 3.84-2.26 5.36-1.27 1.53-3.15 2.46-5.1 2.74-2.09.31-4.29.16-6.24-.68-2.11-.89-3.74-2.72-4.6-4.82-1.04-2.5-1.24-5.27-1.04-7.95.2-2.59.93-5.25 2.64-7.27 1.56-1.88 3.96-2.92 6.37-3.06 2.47-.17 5.1.4 6.99 2.06 1.75 1.45 2.72 3.62 3.16 5.81C344.17 128.18 344.16 130.83 343.74 133.41zM237.42 112.03c-2.19 1.24-3.58 3.44-4.51 5.72.01-2.09 0-4.18.01-6.26-2.87-.01-5.75-.03-8.62.01.02 12.15 0 24.31.01 36.47 2.87 0 5.74 0 8.61 0 0-5.82 0-11.63 0-17.45-.07-2.53.14-5.14 1.24-7.45 1.02-2.18 2.98-4.08 5.46-4.37 2.03-.21 4.18.27 5.9 1.39.01-2.91 0-5.82.01-8.73C242.89 110.46 239.83 110.58 237.42 112.03zM174.78 111.48c.01 12.16 0 24.32 0 36.47 2.89 0 5.78 0 8.67 0 .01-12.15-.02-24.31.01-36.46C180.57 111.44 177.68 111.47 174.78 111.48z"/></g><path fill="#02a4ef" d="M1.34,124.56c13.45,0,26.91,0,40.36,0c0,13.45,0,26.91,0,40.36H1.34V124.56L1.34,124.56z"/><path fill="#ffb902" d="M45.82,124.56c13.45,0,26.91,0,40.36,0c0,13.45,0,26.91,0,40.36H45.82 C45.82,151.47,45.82,138.01,45.82,124.56L45.82,124.56z"/></g><path d="M19.65 35.86L26.33 15.47L32.80 35.86ZM20.32 3.62L1.83 55.44L13.15 55.44L16.73 44.79L35.82 44.79L39.16 55.44L50.91 55.44L32.55 3.62ZM26.37 3.62ZM67.39 55.44L67.39 3.62L56.64 3.62L56.64 55.44ZM62.02 2.60ZM112.54 3.15C112.02 3.11 111.45 3.09 110.81 3.09C105.26 3.09 101.75 4.24 100.30 6.54C98.92 8.09 98.23 10.91 98.23 15.01L98.23 17.47L92.74 17.47L92.74 24.54L98.33 24.54L98.33 55.44L108.32 55.44L108.32 24.54L114.89 24.54L114.89 17.47L108.32 17.47L108.32 14.24C108.32 13.49 108.57 12.80 109.07 12.18C109.58 11.56 110.49 11.27 111.81 11.30C113.14 11.34 114.08 11.39 114.64 11.46L114.64 3.30C113.75 3.23 113.05 3.18 112.54 3.15ZM144.60 45.25C143.03 47.33 140.78 48.38 137.85 48.38C134.92 48.38 132.66 47.33 131.08 45.25C129.50 43.16 128.71 40.20 128.71 36.35C128.71 32.51 129.50 29.55 131.08 27.47C132.66 25.40 134.92 24.36 137.85 24.36C140.78 24.36 143.03 25.40 144.60 27.47C146.17 29.55 146.95 32.51 146.95 36.35C146.95 40.20 146.17 43.16 144.60 45.25ZM152.61 50.78C155.85 46.79 157.46 41.98 157.46 36.35C157.46 30.82 155.85 26.03 152.61 21.97C149.38 17.92 144.47 15.89 137.88 15.89C131.30 15.89 126.39 17.92 123.15 21.97C119.92 26.03 118.30 30.82 118.30 36.35C118.30 41.98 119.92 46.79 123.15 50.78C126.39 54.78 131.30 56.78 137.88 56.78C144.47 56.78 149.38 54.78 152.61 50.78ZM137.88 16.10ZM185.92 16.22C185.79 16.21 185.64 16.21 185.45 16.21C182.45 16.21 180.01 16.99 178.14 18.56C176.99 19.50 175.64 21.25 174.09 23.80L174.09 17.12L164.53 17.12L164.53 55.44L174.62 55.44L174.62 37.13C174.62 34.05 175.01 31.78 175.78 30.30C177.16 27.68 179.87 26.37 183.90 26.37C184.21 26.37 184.61 26.38 185.10 26.40C185.59 26.43 186.15 26.47 186.79 26.54L186.79 16.28C186.34 16.25 186.05 16.24 185.92 16.22ZM251.79 12.80L251.79 3.62L213.79 3.62L213.79 55.44L253.05 55.44L253.05 46.13L224.37 46.13L224.37 32.80L249.54 32.80L249.54 23.80L224.37 23.80L224.37 12.80ZM233.05 3.62ZM281.81 36.81L281.81 40.54C281.74 43.89 280.80 46.20 278.98 47.46C277.17 48.73 275.18 49.36 273.02 49.36C271.66 49.36 270.51 48.98 269.56 48.22C268.61 47.46 268.14 46.22 268.14 44.51C268.14 42.59 268.91 41.17 270.46 40.25C271.37 39.71 272.88 39.26 274.99 38.88L277.24 38.46C278.37 38.25 279.25 38.02 279.90 37.78C280.54 37.53 281.18 37.21 281.81 36.81ZM275.73 32.13L272.32 32.55C268.45 33.05 265.52 33.87 263.53 35.02C259.90 37.13 258.08 40.54 258.08 45.25C258.08 48.88 259.21 51.69 261.47 53.67C263.74 55.65 266.60 56.64 270.07 56.64C272.79 56.64 275.23 56.02 277.38 54.77C279.19 53.72 280.78 52.44 282.16 50.94C282.23 51.81 282.33 52.58 282.45 53.26C282.56 53.94 282.77 54.67 283.08 55.44L293.98 55.44L293.98 53.96C293.32 53.66 292.83 53.27 292.50 52.80C292.17 52.34 291.97 51.45 291.90 50.13C291.86 48.40 291.83 46.92 291.83 45.70L291.83 28.13C291.83 23.51 290.20 20.37 286.95 18.70C283.69 17.04 279.96 16.21 275.77 16.21C269.32 16.21 264.77 17.89 262.13 21.27C260.46 23.43 259.52 26.18 259.31 29.53L268.98 29.53C269.21 28.05 269.68 26.88 270.39 26.02C271.37 24.84 273.05 24.26 275.41 24.26C277.52 24.26 279.12 24.56 280.21 25.15C281.30 25.75 281.85 26.84 281.85 28.41C281.85 29.70 281.13 30.64 279.70 31.25C278.91 31.61 277.58 31.90 275.73 32.13ZM276.26 16.10ZM322.01 16.22C321.88 16.21 321.73 16.21 321.54 16.21C318.54 16.21 316.10 16.99 314.23 18.56C313.08 19.50 311.73 21.25 310.18 23.80L310.18 17.12L300.62 17.12L300.62 55.44L310.71 55.44L310.71 37.13C310.71 34.05 311.10 31.78 311.87 30.30C313.25 27.68 315.96 26.37 319.99 26.37C320.30 26.37 320.70 26.38 321.19 26.40C321.68 26.43 322.24 26.47 322.88 26.54L322.88 16.28C322.43 16.25 322.14 16.24 322.01 16.22ZM324.81 24.61L330.15 24.61L330.15 48.20C330.15 50.59 330.71 52.36 331.84 53.51C333.57 55.31 336.81 56.13 341.54 55.97L346.29 55.79L346.29 48.30C345.96 48.33 345.63 48.35 345.29 48.36C344.95 48.37 344.63 48.38 344.32 48.38C342.28 48.38 341.06 48.18 340.66 47.79C340.27 47.41 340.07 46.43 340.07 44.86L340.07 24.61L346.29 24.61L346.29 17.47L340.07 17.47L340.07 6.79L330.15 6.79L330.15 17.47L324.81 17.47ZM380.30 17.37C378.37 16.55 376.22 16.14 373.85 16.14C371.74 16.14 369.73 16.58 367.82 17.46C365.91 18.33 364.23 19.89 362.78 22.11L362.78 3.80L352.79 3.80L352.79 55.44L362.78 55.44L362.78 34.70C362.78 31.42 363.46 28.89 364.83 27.12C366.21 25.35 368.21 24.47 370.86 24.47C373.42 24.47 375.15 25.36 376.07 27.14C376.77 28.41 377.12 30.07 377.12 32.13L377.12 55.44L387.35 55.44L387.35 32.94C387.35 29.52 387.23 27.05 387 25.54C386.77 24.03 386.12 22.56 385.07 21.13C383.82 19.44 382.24 18.19 380.30 17.37ZM428.03 12.62L438.01 12.62C442.93 12.62 446.22 14.03 447.87 16.86C449.53 19.68 450.35 23.73 450.35 29.00C450.35 32.82 449.80 36.12 448.70 38.88C446.68 43.92 443.12 46.44 438.01 46.44L428.03 46.44ZM447.86 4.75C445.72 4.04 443.05 3.67 439.84 3.62L417.52 3.62L417.52 55.44L439.84 55.44C447.67 55.44 453.46 52.22 457.21 45.77C459.97 40.99 461.36 35.16 461.36 28.27C461.36 25.55 461.03 22.69 460.37 19.69C459.71 16.69 458.48 13.90 456.68 11.32C454.43 8.13 451.49 5.94 447.86 4.75ZM489.83 36.81L489.83 40.54C489.76 43.89 488.82 46.20 487.00 47.46C485.19 48.73 483.20 49.36 481.04 49.36C479.68 49.36 478.53 48.98 477.58 48.22C476.63 47.46 476.16 46.22 476.16 44.51C476.16 42.59 476.93 41.17 478.48 40.25C479.39 39.71 480.90 39.26 483.01 38.88L485.26 38.46C486.39 38.25 487.27 38.02 487.92 37.78C488.56 37.53 489.20 37.21 489.83 36.81ZM483.75 32.13L480.34 32.55C476.47 33.05 473.54 33.87 471.55 35.02C467.92 37.13 466.10 40.54 466.10 45.25C466.10 48.88 467.23 51.69 469.49 53.67C471.76 55.65 474.62 56.64 478.09 56.64C480.81 56.64 483.25 56.02 485.40 54.77C487.21 53.72 488.80 52.44 490.18 50.94C490.25 51.81 490.35 52.58 490.46 53.26C490.58 53.94 490.79 54.67 491.10 55.44L502.00 55.44L502.00 53.96C501.34 53.66 500.85 53.27 500.52 52.80C500.19 52.34 499.99 51.45 499.92 50.13C499.88 48.40 499.85 46.92 499.85 45.70L499.85 28.13C499.85 23.51 498.22 20.37 494.96 18.70C491.71 17.04 487.98 16.21 483.79 16.21C477.34 16.21 472.79 17.89 470.14 21.27C468.48 23.43 467.54 26.18 467.33 29.53L477 29.53C477.23 28.05 477.70 26.88 478.41 26.02C479.39 24.84 481.07 24.26 483.43 24.26C485.54 24.26 487.14 24.56 488.23 25.15C489.32 25.75 489.87 26.84 489.87 28.41C489.87 29.70 489.15 30.64 487.72 31.25C486.93 31.61 485.60 31.90 483.75 32.13ZM484.28 16.10ZM504.81 24.61L510.15 24.61L510.15 48.20C510.15 50.59 510.71 52.36 511.84 53.51C513.57 55.31 516.81 56.13 521.54 55.97L526.29 55.79L526.29 48.30C525.96 48.33 525.63 48.35 525.29 48.36C524.95 48.37 524.63 48.38 524.32 48.38C522.28 48.38 521.06 48.18 520.66 47.79C520.27 47.41 520.07 46.43 520.07 44.86L520.07 24.61L526.29 24.61L526.29 17.47L520.07 17.47L520.07 6.79L510.15 6.79L510.15 17.47L504.81 17.47ZM553.85 36.81L553.85 40.54C553.78 43.89 552.84 46.20 551.02 47.46C549.21 48.73 547.22 49.36 545.06 49.36C543.70 49.36 542.55 48.98 541.60 48.22C540.65 47.46 540.18 46.22 540.18 44.51C540.18 42.59 540.95 41.17 542.50 40.25C543.41 39.71 544.92 39.26 547.03 38.88L549.28 38.46C550.41 38.25 551.29 38.02 551.94 37.78C552.58 37.53 553.22 37.21 553.85 36.81ZM547.77 32.13L544.36 32.55C540.49 33.05 537.56 33.87 535.57 35.02C531.94 37.13 530.12 40.54 530.12 45.25C530.12 48.88 531.25 51.69 533.51 53.67C535.78 55.65 538.64 56.64 542.11 56.64C544.83 56.64 547.27 56.02 549.42 54.77C551.23 53.72 552.82 52.44 554.20 50.94C554.27 51.81 554.37 52.58 554.48 53.26C554.60 53.94 554.81 54.67 555.12 55.44L566.02 55.44L566.02 53.96C565.36 53.66 564.87 53.27 564.54 52.80C564.21 52.34 564.01 51.45 563.94 50.13C563.89 48.40 563.87 46.92 563.87 45.70L563.87 28.13C563.87 23.51 562.24 20.37 558.98 18.70C555.73 17.04 552.00 16.21 547.80 16.21C541.36 16.21 536.81 17.89 534.16 21.27C532.50 23.43 531.56 26.18 531.35 29.53L541.02 29.53C541.25 28.05 541.72 26.88 542.43 26.02C543.41 24.84 545.09 24.26 547.45 24.26C549.56 24.26 551.16 24.56 552.25 25.15C553.34 25.75 553.89 26.84 553.89 28.41C553.89 29.70 553.17 30.64 551.74 31.25C550.95 31.61 549.62 31.90 547.77 32.13ZM548.30 16.10ZM601.42 39.45L591.08 39.45C591.08 44.84 593.02 49.07 596.88 52.15C600.75 55.24 606.06 56.78 612.81 56.78C619.42 56.78 624.53 55.21 628.15 52.08C631.78 48.96 633.59 45.02 633.59 40.29C633.59 35.67 632.04 32.14 628.95 29.71C626.95 28.14 624.00 26.88 620.09 25.95L611.16 23.80C607.71 22.98 605.46 22.27 604.41 21.66C602.77 20.74 601.95 19.36 601.95 17.51C601.95 15.49 602.78 13.92 604.44 12.80C606.11 11.67 608.33 11.11 611.12 11.11C613.63 11.11 615.73 11.54 617.41 12.41C619.95 13.72 621.30 15.94 621.49 19.05L631.90 19.05C631.71 13.55 629.69 9.35 625.83 6.45C621.98 3.56 617.32 2.11 611.86 2.11C605.32 2.11 600.36 3.64 596.99 6.71C593.61 9.79 591.93 13.64 591.93 18.28C591.93 23.37 593.67 27.11 597.16 29.50C599.23 30.93 602.95 32.25 608.34 33.47L613.83 34.70C617.04 35.40 619.39 36.21 620.89 37.13C622.39 38.06 623.14 39.39 623.14 41.10C623.14 44.03 621.63 46.03 618.61 47.11C617.02 47.67 614.94 47.95 612.39 47.95C608.12 47.95 605.11 46.89 603.35 44.75C602.39 43.58 601.75 41.81 601.42 39.45ZM611.93 2.04ZM650.51 26.54C651.79 25.09 653.59 24.36 655.91 24.36C658.04 24.36 659.83 25.05 661.27 26.42C662.71 27.79 663.52 29.80 663.68 32.45L648.11 32.45C648.43 29.96 649.24 28.00 650.51 26.54ZM664.52 17.89C661.97 16.70 659.10 16.10 655.91 16.10C650.54 16.10 646.18 17.87 642.81 21.41C639.45 24.95 637.77 30.04 637.77 36.67C637.77 43.75 639.63 48.86 643.36 52.00C647.09 55.14 651.39 56.71 656.26 56.71C662.17 56.71 666.76 54.84 670.04 51.12C672.15 48.77 673.34 46.46 673.59 44.19L663.36 44.19C662.82 45.32 662.20 46.20 661.50 46.83C660.21 48.00 658.54 48.59 656.47 48.59C654.53 48.59 652.86 48.11 651.48 47.14C649.21 45.60 648 42.90 647.86 39.06L674.09 39.06C674.13 35.75 674.03 33.22 673.77 31.46C673.32 28.46 672.35 25.83 670.85 23.55C669.19 20.98 667.08 19.09 664.52 17.89ZM656.61 16.10ZM676.90 24.61L682.24 24.61L682.24 48.20C682.24 50.59 682.80 52.36 683.93 53.51C685.66 55.31 688.90 56.13 693.63 55.97L698.38 55.79L698.38 48.30C698.05 48.33 697.72 48.35 697.38 48.36C697.04 48.37 696.71 48.38 696.41 48.38C694.37 48.38 693.15 48.18 692.75 47.79C692.36 47.41 692.16 46.43 692.16 44.86L692.16 24.61L698.38 24.61L698.38 17.47L692.16 17.47L692.16 6.79L682.24 6.79L682.24 17.47L676.90 17.47ZM712.62 43.21L702.46 43.21C702.46 47.14 703.89 50.38 706.76 52.93C709.63 55.47 714.08 56.74 720.11 56.74C726.01 56.74 730.38 55.54 733.20 53.14C736.03 50.74 737.44 47.64 737.44 43.84C737.44 40.96 736.45 38.55 734.48 36.63C732.49 34.73 729.50 33.32 725.52 32.38C719.54 31.07 716.06 30.14 715.08 29.60C714.09 29.09 713.60 28.25 713.60 27.11C713.60 26.19 714.06 25.39 714.99 24.71C715.92 24.04 717.47 23.70 719.65 23.70C722.30 23.70 724.17 24.37 725.27 25.73C725.86 26.48 726.22 27.50 726.36 28.79L736.38 28.79C735.94 24.11 734.21 20.81 731.20 18.90C728.19 16.99 724.29 16.03 719.51 16.03C714.47 16.03 710.56 17.30 707.78 19.85C705.01 22.39 703.62 25.43 703.62 28.97C703.62 31.97 704.51 34.27 706.29 35.86C708.07 37.48 711.13 38.82 715.46 39.90C721.49 41.33 724.97 42.34 725.91 42.93C726.84 43.51 727.31 44.37 727.31 45.49C727.31 46.66 726.73 47.54 725.57 48.13C724.41 48.71 722.85 49.01 720.88 49.01C717.53 49.01 715.23 48.34 713.99 47.00C713.29 46.25 712.83 44.99 712.62 43.21ZM720.28 16.10Z" transform="translate(34.614 172.7) scale(.44653)"/></svg>