<svg xmlns="http://www.w3.org/2000/svg" role="img" viewBox="-7.99 -7.99 415.74 415.74"><title>Airminers logo</title><path fill="#9fa2a7" d="M0 200V0h400v400H0zm58.2334 77.97125l.2666-26.02876 11.99695 20.52978c6.59832 11.29137 12.42233 20.38797 12.94225 20.21466.51992-.1733 6.1463-9.46469 12.50306-20.64751L107.5 251.70701l.2666 26.14649c.1661 16.2893.63735 26.1465 1.25 26.1465.62119 0 .9834-10.34388.9834-28.08333 0-20.95899-.29609-27.98464-1.16715-27.69429-.64193.21398-6.60443 9.91998-13.25 21.56888-10.29842 18.05194-12.26272 20.93869-13.3008 19.54698-.66988-.89807-6.44947-10.56656-12.84354-21.48554C63.04445 256.93371 57.40503 248 56.90647 248 56.38609 248 56 259.92606 56 276c0 17.68484.36228 28 .9834 28 .61251 0 1.08394-9.81663 1.25-26.02875zM133 276c0-18-.35714-28-1-28s-1 10-1 28 .35714 28 1 28 1-10 1-28zm23.2334 1.9358l.2666-26.0642 18.84678 25.565c10.36573 14.06074 19.25323 25.81619 19.75 26.12321.53156.32853.80748-11.09034.67056-27.75079L195.53467 247.5l-.28394 26.25c-.15616 14.4375-.61397 26.22024-1.01733 26.18386-.40337-.03637-9.2834-11.72506-19.7334-25.97484-10.45-14.24979-19.3375-25.92003-19.75-25.93387C154.3375 248.01132 154 260.6 154 276c0 17.68484.36228 28 .9834 28 .61255 0 1.08393-9.82884 1.25-26.0642zM250 303c0-.62366-5.83333-1-15.5-1H219v-26l13.25-.21837 13.25-.21837-13.25-.31066-13.25-.31065v-25.89116l15.75-.30269 15.75-.30269-16.75-.2227L217 248v56h16.5c10.33333 0 16.5-.37374 16.5-1zm19-12.5V277h4.88922c5.93643 0 6.03404.0804 18.50419 15.25 5.31251 6.4625 10.09921 11.75 10.63712 11.75.5379 0-3.94622-5.95623-9.96473-13.23606l-10.94274-13.23607 4.68847-1.35151c8.26189-2.3816 12.76216-8.39427 11.91411-15.91808C297.73191 251.44194 291.22656 248 275.55718 248H267v28c0 18 .35714 28 1 28 .61728 0 1-5.16667 1-13.5zm0-28V249l7.25.006c8.69358.007 13.82671 1.29617 17.40203 4.37153 2.11936 1.823 2.74753 3.39594 3.11215 7.7928.42114 5.0783.20734 5.79294-2.73594 9.14514-3.81534 4.34543-7.96737 5.67183-17.77824 5.67937L269 276zm68.92892 39.74845c5.17804-2.64035 7.37665-6.32482 7.87357-13.19466.3993-5.5203.2147-6.18997-2.43522-8.83405-1.60207-1.59855-6.61793-4.28989-11.36727-6.0993-11.04631-4.20842-14-6.96907-14-13.08502 0-2.54125.6967-5.58508 1.5607-6.81863 3.99822-5.70825 14.45721-7.05109 20.89447-2.68265 2.05384 1.39377 3.54301 1.9604 3.30926 1.25916-.85451-2.56355-6.85953-5.07901-12.12483-5.07901-8.9603 0-14.28353 4.21211-15.34741 12.14396-1.00102 7.46317 3.93036 12.15584 17.41118 16.56835 3.38473 1.10788 6.30728 2.96044 8.36178 5.30039 2.74708 3.12874 3.09608 4.15027 2.67976 7.84378C343.8409 297.59111 337.52311 303 329.05903 303c-3.98566 0-11.25319-2.88711-12.5502-4.98571-.34477-.55786-1.12005-1.01429-1.72283-1.01429-1.78572 0 2.4637 4.16277 5.714 5.59749 4.33611 1.914 13.34462 1.73359 17.42892-.34904zM67.07828 228.13769c1.47954-1.19806 4.2966-7.17245 7.898-16.75L80.57443 196.5l28.09616-.26538 28.09616-.26537 5.36662 14.49778c2.95165 7.97378 6.12792 15.5182 7.0584 16.76538 1.51624 2.03233 2.69301 2.30387 11.34252 2.61727 8.12906.29455 9.59675.11614 9.30823-1.13147-.18839-.81463-11.59252-29.88108-25.34252-64.59211l-25-63.11096-10.64301-.008c-7.58323-.005-10.7888.3518-11.15012 1.24243-1.09723 2.70466-48.97753 123.38985-49.79051 125.5-.85889 2.22931-.78535 2.25 7.9976 2.25 7.15604 0 9.30772-.35892 11.16433-1.86231zM87 180.80767c0-.65578 4.2331-12.46828 9.40687-26.25 5.17378-13.78172 9.9656-26.95543 10.64848-29.27492 1.38764-4.71328 2.45967-4.76731 3.46835-.17482.37267 1.69674 5.12674 14.85408 10.56459 29.23853 5.43785 14.38445 9.89256 26.49104 9.89936 26.90354.00679.4125-9.88765.75-21.98765.75-16.3658 0-22-.30536-22-1.19233zM213 165.5V101h-20v129h20zm59 38.5v-26h8.30887c5.06968 0 8.97459.48731 10.01652 1.25.93921.6875 9.05606 11.825 18.03745 24.75s17.41146 24.05587 18.73348 24.73526c2.34493 1.20506 21.90368 1.8502 21.90368.72249 0-1.04672-34.26125-48.99344-37.29535-52.19277-1.68737-1.77926-2.8737-3.38692-2.6363-3.57257.23741-.18566 2.58207-1.13455 5.21035-2.10865 10.35095-3.8363 19.17551-13.50558 22.39071-24.53407 2.0373-6.98812 1.30603-18.05053-1.63389-24.71701-2.52267-5.72034-9.01099-12.71014-14.36644-15.47681C311.43527 102.08561 303.30988 101 276.84004 101H252v129h20zm0-64v-23h12.8185c14.45984 0 21.2142 1.47374 26.27638 5.73329 8.44065 7.10234 9.27153 22.22405 1.69525 30.85296C306.86848 160.33064 297.94377 163 281.31634 163H272z"/><path fill="#7e8289" d="M0 200V0h400v400H0zm338.1617 102.40173c5.60938-2.86985 9.47063-10.99006 8.21389-17.27379-.83174-4.15868-5.93193-8.49392-12.53433-10.65435C321.94299 270.58024 318 267.27183 318 261.18179c0-7.63448 6.45769-12.77662 15.01298-11.95456 2.61995.25174 6.096 1.42625 7.78905 2.6318 1.68166 1.19745 3.31696 1.75746 3.634 1.24448.92353-1.49431-6.20782-5.32346-10.89914-5.85224-9.55926-1.07747-16.57833 4.20326-17.30971 13.0228-.63318 7.63528 2.05301 10.51684 14.18634 15.21811 11.47936 4.44789 13.75315 6.60722 13.75315 13.06088 0 8.43426-5.99238 13.97068-14.98897 13.84845-5.89265-.0801-9.12629-1.24056-12.8222-4.60168-1.29211-1.17506-2.39263-1.54878-2.76874-.94022-.91391 1.47875 5.41654 5.94449 9.97753 7.03853 4.55981 1.09376 10.7813.45598 14.59741-1.49641zM58.23312 278.25L58.5 252.5l11.8404 20.25c6.5122 11.1375 12.3622 20.23731 13 20.2218.63778-.0155 6.44304-9.35302 12.90059-20.75L107.98198 251.5l.009 26.25c.006 16.82733.36797 26.25 1.00901 26.25.64293 0 1-10.02778 1-28.08333 0-22.00727-.27045-27.99925-1.25-27.69471-.6875.21374-6.70512 9.90169-13.3725 21.52876l-12.12247 21.14014-12.39898-21.11925c-6.81943-11.61559-12.9518-21.30353-13.6275-21.52876C56.2766 247.92553 56 254.15612 56 275.91667 56 293.65072 56.3623 304 56.98312 304c.6118 0 1.08392-9.72577 1.25-25.75zM133 276c0-18-.35714-28-1-28s-1 10-1 28 .35714 28 1 28 1-10 1-28zm23.2334 2.19044l.2666-25.80955 19 25.77998c10.45 14.17899 19.3375 25.79329 19.75 25.80956.4125.01626.75-12.57043.75-27.97043 0-17.67945-.36237-28-.98312-28-.61158 0-1.08397 9.66714-1.25 25.57997L193.5 299.15993l-18.87357-25.57996C164.24597 259.51098 155.35847 248 154.87643 248 154.3944 248 154 260.6 154 276c0 17.68484.36228 28 .9834 28 .61224 0 1.08402-9.7411 1.25-25.80956zM250 303c0-.62366-5.83333-1-15.5-1H219v-26l13.25-.20416 13.25-.20417-13-.54583-13-.54584-.28078-12.25-.28078-12.25h15.53078C244.15641 250 250 249.62374 250 249c0-.62626-6.16667-1-16.5-1H217v56h16.5c10.33333 0 16.5-.37374 16.5-1zm19-12v-13l5.75.0161 5.75.0161 10.43051 12.98395C296.66729 298.15722 302.02454 304 302.8355 304c1.29042 0 1.28751-.21845-.0233-1.75C297.25848 295.76111 283 278.09382 283 277.70127c0-.26328 1.4625-.75508 3.25-1.09289 7.86617-1.48658 12.75-7.28049 12.75-15.12592 0-9.63851-6.1216-13.42701-21.75-13.4605L267 248v28c0 18 .35714 28 1 28 .61538 0 1-5 1-13zm0-27.87768V250h9.09887c10.9477 0 15.46487 1.71163 17.52416 6.6402 1.89902 4.54501 1.71825 8.28782-.58255 12.06125-2.94119 4.82372-7.26241 6.59895-17.29048 7.1032l-8.75.43999zM68.1611 227.19205c1.2864-1.54437 4.5889-8.96667 7.3389-16.49399l5-13.68603 28.14053-.006 28.14053-.006 5.35859 14.25c2.94722 7.8375 6.35103 15.2625 7.56401 16.5 1.98398 2.02407 3.16984 2.25 11.8099 2.25 5.28246 0 9.40551-.3375 9.16234-.75-.24317-.41253-11.57648-28.87503-25.18513-63.25003s-25.15208-63.2875-25.65207-64.25c-.77714-1.49603-2.41676-1.75-11.29805-1.75H98.15166l-4.19956 10.75c-2.30975 5.9125-13.81888 34.97162-25.57583 64.57583C56.61932 204.93004 47 229.34254 47 229.57583c0 .23329 4.235.42417 9.4111.42417 9.09178 0 9.49047-.0953 11.75-2.80795zM87 180.60595c0-.21672 3.41476-9.32922 7.58836-20.25 4.1736-10.92077 9.07824-24.26948 10.89922-29.66378l3.31087-9.80784 2.25508 6.80784c1.24029 3.7443 6.18519 17.27033 10.98866 30.05783l8.73358 23.25h-21.88789C96.84955 181 87 180.82268 87 180.60595zM213.75729 165.25L213.5 100.5h-21l-.25729 64.75-.2573 64.75h22.02918zM272 204v-26h8.41523c10.33011 0 8.45518-1.78138 28.34896 26.93448 8.16716 11.78896 15.96534 22.26766 17.32929 23.28599 2.11494 1.57903 4.03491 1.80943 13.04598 1.56553l10.56607-.286L332.375 205c-9.53179-13.475-18.67062-25.9294-20.30851-27.67645l-2.97798-3.17646 6.42908-3.00852c8.22395-3.84845 15.70864-10.86342 19.22024-18.01403C337.22157 148.06697 337.5 146.44157 337.5 137c0-9.48546-.2716-11.05309-2.81095-16.22425-4.51225-9.1888-12.62331-14.95241-26.01185-18.4837-4.88626-1.28877-11.5063-1.64627-31.6772-1.71066l-25.5-.0814-.25729 64.75-.2573 64.75H272v-26zm0-64.60899v-22.609l14.75.41678c12.88264.36401 15.35789.71133 19.55161 2.74338 8.23422 3.98986 12.6001 12.55913 11.18986 21.96326C315.30118 156.51133 306.28028 162 284.46505 162H272z"/><path fill="#777b82" d="M0 200V0h400v400H0zm334.27733 103.93987c5.40317-1.50047 10.48077-6.32782 11.79688-11.21545 2.49334-9.25957-1.1728-14.05749-14.76598-19.32442C320.77088 269.31711 318 266.73533 318 261c0-4.51111 3.0002-8.68431 7.63578-10.62118 4.7657-1.99124 8.37291-1.70908 13.89569 1.0869 5.07913 2.57139 7.41953 2.4804 3.96696-.15422-8.17789-6.24044-18.7582-5.54523-24.79512 1.62925C316.57934 255.46494 316 257.1921 316 261c0 7.83451 3.04456 10.51399 18.22724 16.04155C341.55683 279.71003 344 282.73701 344 289.14954c0 4.113-.51071 5.43583-3.25 8.418-5.60561 6.10265-16.04987 6.49206-23.41673.87309-1.76566-1.34674-3.4714-2.02615-3.79052-1.5098-.80354 1.30015 5.21753 5.68945 9.45725 6.89422 4.69819 1.33506 6.80602 1.35652 11.27733.11482zM58.23312 278.28348L58.5 252.56695l11.82481 20.21653c6.50365 11.11908 12.35365 20.214 13 20.21093.64635-.003 6.45532-9.34058 12.90882-20.75L107.96726 251.5l.0164 26.25c.0105 16.82242.37552 26.25 1.01637 26.25.64286 0 1-10 1-28 0-21.7477-.27912-27.99398-1.25-27.97306-.6875.0148-6.60286 9.48946-13.14525 21.05476-7.4801 13.22295-12.24648 20.67657-12.84154 20.08151-.5205-.52046-6.19263-9.85031-12.60478-20.73299S57.9375 248.46124 57.25 248.23843c-.97994-.31758-1.25 5.66218-1.25 27.67824C56 293.65072 56.3623 304 56.98312 304c.61175 0 1.08393-9.71423 1.25-25.71652zM133 276c0-18-.35714-28-1-28s-1 10-1 28 .35714 28 1 28 1-10 1-28zm23.23312 2.2634l.26688-25.7366 18.85597 25.4866c10.37079 14.01763 19.25829 25.6366 19.75 25.81993.51206.19092.89403-11.66514.89403-27.75C196 258.34928 195.6377 248 195.01688 248c-.61152 0-1.08399 9.65198-1.25 25.53598L193.5 299.07196l-18.82798-25.53598C164.31663 259.49119 155.42913 248 154.92202 248c-.54074 0-.92202 11.57869-.92202 28 0 17.67945.36237 28 .98312 28 .61177 0 1.08392-9.72115 1.25-25.7366zM250 303c0-.62366-5.83333-1-15.5-1H219v-25h13c10.88889 0 13-.24359 13-1.5s-2.11111-1.5-13-1.5h-13v-24h15.5c9.66667 0 15.5-.37634 15.5-1 0-.62626-6.16667-1-16.5-1H217v56h16.5c10.33333 0 16.5-.37374 16.5-1zm19-12v-13h11.01281l10.71522 13c5.89337 7.15 11.36023 13 12.14858 13 1.23089 0 1.22585-.2472-.0357-1.75C293.49699 291.11912 283 278.07851 283 277.60125c0-.33069.91793-.60125 2.03984-.60125 3.48294 0 9.94517-3.92741 11.99565-7.29034 2.37721-3.89878 2.55866-10.66002.39819-14.8379-2.54283-4.9173-8.16124-6.82404-20.18368-6.8498L267 248v28c0 18 .35714 28 1 28 .61538 0 1-5 1-13zm0-27.86129V250h9.09887c11.12371 0 15.45585 1.69005 17.62215 6.87474 1.66154 3.97661 1.18451 9.0943-1.18473 12.71022-2.56561 3.91562-7.25943 5.65035-16.75335 6.19167L269 276.27741zM67.8585 228.14149c1.02219-1.02218 3.03126-4.95968 4.46462-8.75A91211.65541 91211.65541 0 0 0 77.76368 205l2.83447-7.5 28.06906-.26535 28.06907-.26535 5.34618 14.26535c2.9404 7.84594 6.35428 15.27785 7.5864 16.51535 2.01048 2.01925 3.21767 2.25 11.77109 2.25h9.53087l-1.88626-4.75c-1.03744-2.6125-12.30195-31.03146-25.03224-63.15326-12.7303-32.12179-23.59075-59.23429-24.13434-60.25-.86335-1.61318-2.29832-1.84674-11.34617-1.84674-7.34928 0-10.50505.36308-10.86468 1.25C92.39941 114.34008 47 229.18947 47 229.52662c0 .26036 4.275.47338 9.5.47338 7.92558 0 9.808-.30801 11.3585-1.85851zM87.46819 179.25c6.71708-17.23184 15.50852-40.91173 18.0547-48.63062l3.25926-9.88063 1.58947 5.38063c.87422 2.95934 5.80508 16.51812 10.95749 30.13062l9.36801 24.75h-21.95555c-20.50324 0-21.91042-.11576-21.27338-1.75zm126.28911-14L213.5 100.5h-21l-.25729 64.75-.2573 64.75h22.02918zM273 204v-26h7.36514c5.77545 0 7.89756.4188 9.83187 1.94033 1.3567 1.06718 9.62989 12.30625 18.38486 24.97572 10.41176 15.06703 16.79918 23.40259 18.4651 24.0969 1.40711.58644 7.07925.93296 12.67413.77427l10.12715-.28722-18.48091-26c-10.1645-14.3-19.46492-26.75958-20.6676-27.68795-2.14566-1.65629-2.14929-1.70056-.19321-2.35952 10.61532-3.57611 19.77871-11.28402 24.24797-20.39653 3.77908-7.70527 4.37668-21.05783 1.30701-29.20309-4.14454-10.99736-12.54304-17.67725-27.06151-21.52383-5.30721-1.40612-11.1794-1.73195-32-1.77561l-25.5-.0535-.25729 64.75-.2573 64.75H273v-26zm0-64.61348v-22.61348l13.7725.37822c12.90127.35431 14.15063.56708 19.75 3.36349 7.75328 3.8721 10.72291 8.79927 10.74523 17.8283.04124 16.6888-9.4735 23.65695-32.30268 23.65695H273z"/><path fill="#525760" d="M0 200V0h400v400H0zm339.61217 101.81221C343.42393 299.23326 347 292.83083 347 288.5854c0-7.17043-5.10383-11.98664-16.5-15.57016-9.35416-2.94141-13.34907-7.67577-12.09911-14.33864 1.01721-5.4222 6.95932-9.6766 13.51527-9.6766 1.53228 0 4.93521 1.14277 7.56208 2.53949 2.62687 1.39671 4.98895 2.32665 5.24908 2.06653 1.91216-1.91217-7.36227-6.55168-13.1616-6.58406-5.16412-.0288-11.67442 3.19918-13.83756 6.86109-.98447 1.66657-1.72816 4.96987-1.72816 7.67608 0 4.19878.44002 5.16811 3.78849 8.34571 2.59578 2.46332 6.12134 4.3418 11.19853 5.96677 4.63658 1.48395 8.50359 3.46516 10.33175 5.29331 2.67446 2.67447 2.88326 3.38534 2.46736 8.40052-.35401 4.26887-1.07347 6.12504-3.25786 8.40505-5.33591 5.56949-16.28066 5.74396-23.3239.37182-1.83465-1.39936-3.64367-2.22994-4.02005-1.84575-.97038.99054 5.73175 6.39052 9.31568 7.50575 4.81084 1.49702 13.26099.41553 17.11217-2.1901zM58.23312 278.41575L58.5 252.8315l11.62952 19.83425c6.39624 10.90884 12.24624 19.95274 13 20.09757.85193.16369 5.72176-7.39653 12.87048-19.98088l11.5-20.24421.26688 25.73089c.16608 16.0117.63823 25.73088 1.25 25.73088.62075 0 .98312-10.32055.98312-28 0-21.73816-.27955-27.99798-1.25-27.99095-.6875.005-6.61684 9.43251-13.17631 20.95005-6.55948 11.51755-12.18448 20.77787-12.5 20.57849-.31553-.19938-5.97369-9.60805-12.57369-20.90815-6.6-11.30009-12.5625-20.56449-13.25-20.58753C56.27876 248.00935 56 254.24432 56 276c0 17.67945.36237 28 .98312 28 .61158 0 1.08397-9.66862 1.25-25.58425zM133 276c0-18-.35714-28-1-28s-1 10-1 28 .35714 28 1 28 1-10 1-28zm23.23312 2.29014l.26688-25.70986 18.95355 25.70986C185.878 292.43056 194.7655 304 195.20355 304c.43805 0 .79645-12.6.79645-28 0-18-.35714-28-1-28-.64073 0-1 9.23434-1 25.70301v25.70301l-19.08161-25.70301C164.42351 259.56635 155.42351 248 154.91839 248 154.3824 248 154 259.65867 154 276c0 17.67945.36237 28 .98312 28 .61174 0 1.08393-9.71193 1.25-25.70986zM250 303c0-.62366-5.83333-1-15.5-1H219v-25h13c10.88889 0 13-.24359 13-1.5s-2.11111-1.5-13-1.5h-13v-24h15.5c9.66667 0 15.5-.37634 15.5-1 0-.62626-6.16667-1-16.5-1H217v56h16.5c10.33333 0 16.5-.37374 16.5-1zm19-12v-13h10.96678l8.76661 10.68931c12.89627 15.7247 12.80839 15.6301 14.11521 15.19449.68635-.22878-3.33013-5.89036-9.32129-13.13917C287.73729 283.73919 283 277.83966 283 277.63457c0-.20509 1.57928-.62917 3.5095-.9424 4.41047-.71572 9.07523-3.98844 11.00559-7.72135 2.05361-3.97125 1.86454-10.83601-.40077-14.55086-3.04076-4.9865-7.3982-6.41996-19.51545-6.41996H267v28c0 18 .35714 28 1 28 .61538 0 1-5 1-13zm0-27.85904V250h8.53212c13.53063 0 18.76541 3.27373 18.89536 11.81682.14151 9.30212-5.02137 13.05674-19.17748 13.94653l-8.25.51856zM68.19142 227.70963c1.12204-1.2597 4.39373-8.5722 7.27041-16.25L80.69216 197.5l27.98547-.26529 27.98547-.26528 5.2725 14.26528c2.89987 7.84591 6.26572 15.29511 7.47966 16.55378 2.04493 2.12026 2.91497 2.26728 11.83598 2l9.62881-.28849-25.69002-64.77872L119.5 99.94257l-10.82341.27871-10.8234.27872L73.06755 163c-13.63209 34.375-25.10438 63.5125-25.49398 64.75-.70104 2.22675-.60872 2.25 8.9347 2.25 8.79008 0 9.82351-.20259 11.68314-2.29037zM89.9136 173.25c1.57481-4.2625 5.68418-15.175 9.13192-24.25 3.44774-9.075 7.01825-18.975 7.93447-22l1.66585-5.5 1.82387 5.5c1.00313 3.025 5.80782 16.00356 10.67708 28.84125 4.86926 12.83768 8.8532 23.75018 8.8532 24.25 0 .51679-9.26248.90875-21.47485.90875H87.05031zM214 165v-65h-22v130h22zm59 39v-26h7.36514c5.70147 0 7.90384.42533 9.75 1.88294 1.31167 1.03562 9.5781 12.26616 18.36983 24.95677 8.79173 12.69061 16.89271 23.55964 18.00217 24.15341 1.19164.63774 6.39622.96238 12.71702.79323l10.69981-.28635-18.0055-25.5c-9.90302-14.025-19.13512-26.51561-20.51578-27.75691-2.28523-2.05457-2.34767-2.31077-.69648-2.85776 15.00979-4.97232 25.25324-16.42657 27.16021-30.37062 2.20092-16.09344-4.51967-30.21591-17.54018-36.85848-9.05608-4.62007-14.48767-5.37078-42.55624-5.88182L251 99.78738V230h22zm0-64.5v-22.72696l13.85391.38046c13.03404.35795 14.19971.55731 19.69702 3.36874 6.51599 3.3324 8.97716 6.62842 10.32108 13.82205 1.92067 10.28083-2.25928 19.35658-11.16354 24.23896-4.87262 2.67176-6.09509 2.88131-18.95847 3.24981l-13.75.3939z"/><path fill="#3b414b" d="M0 200V0h400v400H0zm338.09272 102.70625c3.13156-1.62981 5.05856-3.57262 6.65728-6.71189 5.22653-10.26289 1.20332-18.1281-11.25-21.9933-13.96326-4.33385-18.62089-11.06757-13.21344-19.10318 4.03381-5.99436 14.23313-7.42333 20.09173-2.81496 2.6213 2.06192 4.62171 2.48833 4.62171.98517 0-2.27564-6.55269-5.48045-12.01316-5.87542-9.30702-.67321-16.38167 4.24889-17.07688 11.88103-.78212 8.58626 2.40946 12.27166 14.61764 16.87932C340.69943 279.79212 344 282.81439 344 288.28944c0 8.49995-5.72106 13.70055-15.07856 13.70682-4.57779.003-6.42439-.55652-10.29357-3.11936-5.0725-3.35988-7.13986-3.22771-4.03841.2582 5.1948 5.83873 15.99359 7.47952 23.50326 3.57115zM58.01872 278.25l.01872-25.75 9.39744 16c12.66104 21.55657 14.89513 25.01916 16.05797 24.88808.54606-.0616 6.17106-9.2197 12.5-20.35143L107.5 252.79713l.26688 25.60143c.16603 15.92689.6384 25.60144 1.25 25.60144.62123 0 .98312-10.52167.98312-28.58333 0-21.3603-.29531-28.4849-1.1686-28.1938-.91114.30371-16.2811 26.09755-24.21507 40.63766-1.22412 2.24337-1.92211 1.2879-14.06252-19.25C63.52785 256.72474 57.37899 247 56.88967 247 56.39092 247 56 259.5229 56 275.5c0 18.33333.35673 28.5 1 28.5.6403 0 1.00673-9.26248 1.01872-25.75zM133 275.5c0-18.33333-.35673-28.5-1-28.5s-1 10.16667-1 28.5.35673 28.5 1 28.5 1-10.16667 1-28.5zm23.23312 2.92003l.26688-25.57996 18.87357 25.57996C185.75403 292.48902 194.87353 304 195.63914 304c1.92832 0 1.56016-56.10129-.37238-56.74483-.95199-.31701-1.29409 5.49469-1.5 25.48297L193.5 298.63178l-17.98522-24.37377c-9.89187-13.40558-18.77937-25.09247-19.75-25.97088-1.68247-1.52262-1.76478-.26068-1.76478 27.05788 0 18.10861.36183 28.65499.98312 28.65499.61158 0 1.08397-9.66714 1.25-25.57997zM251 303c0-.625-6-1-16-1h-16v-24.94195l13.25-.27902c7.98065-.16807 13.25-.67672 13.25-1.27903 0-.60231-5.26935-1.11096-13.25-1.27903l-13.25-.27902V250h15.5c13.11111 0 15.5-.23118 15.5-1.5 0-1.27273-2.5-1.5-16.5-1.5H217v57h17c10.66667 0 17-.37255 17-1zm18-12v-13h10.87372L290.5 291c5.84446 7.15 11.29943 13 12.12216 13 1.96352 0 1.69719-.39445-9.32734-13.81448C288.18267 283.96256 284 278.54339 284 278.14293c0-.40047 1.9125-1.2404 4.25-1.86653 2.34708-.62869 5.57251-2.52031 7.20371-4.22475 2.48794-2.59966 3.01569-4.06917 3.34675-9.319.69096-10.95714-4.18001-14.46986-21.41852-15.44607L267 246.69866v28.65067C267 293.78311 267.3566 304 268 304c.61538 0 1-5 1-13zm0-28.5V250h8.53212c13.59165 0 18.85265 3.5021 18.71723 12.45956C296.11314 271.46987 290.86303 275 277.59887 275H269zM67.87752 228.25c1.21252-1.01087 4.38552-7.87421 7.51257-16.25l5.41348-14.5 27.87313-.26519 27.87313-.26519 5.3597 14.47112c2.94784 7.95912 6.21666 15.39096 7.26404 16.51519C150.84802 229.75324 152.29332 230 161.14594 230c7.65155 0 9.94933-.30002 9.57344-1.25-.27202-.6875-11.87407-29.9515-25.78232-65.03111l-25.28773-63.78111-10.96123.28111-10.96123.28111-25.36343 63.93615C58.41354 199.60103 47 228.73853 47 229.18615c0 .44762 4.22515.81385 9.38922.81385 7.47579 0 9.81698-.35663 11.4883-1.75zm20.22526-50c10.69123-27.91358 15.65233-41.24498 17.90836-48.12305l2.74638-8.37306 1.74624 5.37306c.96043 2.95518 5.73999 16.02568 10.62124 29.04556 4.88125 13.01987 8.875 23.93237 8.875 24.25 0 .31762-9.66386.57749-21.47525.57749H87.0495zM214 165v-65h-22v130h22zm59 39v-26h7.27749c4.70326 0 8.00205.5075 9.32585 1.43472 1.1266.7891 9.40151 12.06329 18.38869 25.05376 8.98718 12.99046 17.16354 24.05959 18.16968 24.59807 1.00615.53847 6.81179.85178 12.90142.69624L350.1352 229.5l-17.70041-25c-9.73522-13.75-18.79572-26.18101-20.13443-27.62447l-2.43401-2.62447 6.55757-3.06866c15.81056-7.39865 24.21266-23.04627 21.52481-40.08661C335.63047 116.39858 327.47077 107.7296 311 102.4651c-4.50819-1.44094-10.41398-1.84065-32.75-2.21653L251 99.78999V230h22zm0-64.63045V116.7391l13.25.51401c14.58359.56574 20.34938 2.06655 25.10899 6.53574C315.20004 127.39552 317 131.87996 317 137.84288c0 8.32494-1.05506 11.22254-5.90857 16.22721C305.00585 160.34522 299.41898 162 284.3185 162H273z"/><path fill="#323944" d="M0 200V0h400v400H0zm338.03399 102.75c8.2751-4.17674 11.4918-14.68873 6.68681-21.85212-1.81391-2.70422-4.20912-4.17251-11.73293-7.19239-10.37258-4.16332-13.57094-6.53075-14.4927-10.72748-.79873-3.63661 1.65366-9.3742 4.92215-11.51579 4.49024-2.94212 13.38099-2.11384 18.78472 1.75002 2.25013 1.60893 3.45964.29029 1.69046-1.84298-3.45344-4.16414-13.8039-5.6866-20.27596-2.9824-7.60106 3.17592-10.55873 13.71461-5.69518 20.29291 2.33473 3.15789 4.9745 4.60058 15.28714 8.35477 9.97613 3.63168 13.48176 11.04103 8.83198 18.66691-2.87433 4.71407-7.22129 6.59819-14.0787 6.10217-5.20732-.37667-6.82576-1.05584-12.55408-5.26825-2.22311-1.63479-2.84049.3268-.81824 2.59973 5.16568 5.806 15.842 7.45217 23.44453 3.6149zM58.23312 278.61507L58.5 253.23015l11.90408 20.4169c6.54725 11.22929 12.39725 20.25463 13 20.0563.60276-.19832 6.27092-9.41444 12.59592-20.48026l11.5-20.11968.26688 25.4483c.16598 15.82654.63859 25.44829 1.25 25.44829.62123 0 .98312-10.52167.98312-28.58333 0-22.41935-.26956-28.49464-1.25-28.17205-.6875.2262-6.6979 9.94501-13.35644 21.59735L83.2871 290.02804 70.7816 268.76402C63.90357 257.06881 57.65147 247.5 56.88804 247.5c-1.14503 0-1.43453 4.94583-1.65361 28.25-.2308 24.55161-.06937 28.25 1.23311 28.25 1.28522 0 1.5367-3.61579 1.76558-25.38493zm75.53245-2.86507c-.22869-24.32641-.4739-28.25-1.76557-28.25s-1.53688 3.92359-1.76557 28.25C129.97294 303.5649 130.00014 304 132 304s2.02706-.4351 1.76557-28.25zm22.46755 2.80792l.26688-25.44207 18.81896 25.44207C185.66939 292.55107 194.7889 304 195.58454 304c1.23419 0 1.40761-4.13599 1.18103-28.16708-.20028-21.24256-.56868-28.26801-1.49853-28.57765-.9515-.31685-1.29392 5.47494-1.5 25.37126L193.5 298.40836l-18.98164-25.7103c-10.43989-14.14067-19.43989-25.55773-20-25.37126-.65051.21658-1.11429 10.51332-1.28393 28.50612-.23079 24.47794-.0693 28.16708 1.23311 28.16708 1.28533 0 1.53669-3.62216 1.76558-25.44208zM251 303c0-.62366-5.83333-1-15.5-1H220v-25h13c10.88889 0 13-.24359 13-1.5s-2.11111-1.5-13-1.5h-13v-24h15.58333c12.02223 0 15.48812-.28565 15.16667-1.25-.31144-.93432-4.68889-1.25-17.33333-1.25H216.5l-.26557 28.25-.26558 28.25h17.51558C244.49481 304 251 303.62861 251 303zm19-12v-13h9.74022l10.24126 12.57412c9.63832 11.83384 12.34384 14.43389 13.65502 13.12272.30263-.30263-3.98983-6.02936-9.5388-12.72605-5.54896-6.69669-9.87534-12.52155-9.61417-12.94414.26117-.42258 1.82697-1.03875 3.47955-1.36927 4.37288-.87457 9.98272-6.44505 10.98447-10.90738 2.8119-12.52583-6.34715-19.29916-25.07863-18.54621L266.5 247.5l-.26557 28.25c-.26082 27.74393-.22947 28.25 1.75 28.25 1.9174 0 2.01557-.63319 2.01557-13zm0-28.5V250l7.25.006c13.79659.0102 18.75 3.1789 18.75 11.994 0 8.99638-5.52818 13-17.95034 13H270zM68.3825 228.12984c1.57353-1.73874 2.68321-4.37466 10.05302-23.87984l2.73933-7.25 27.66257.009 27.66258.009 5.42659 14.66715c2.98462 8.06693 6.24712 15.48768 7.25 16.49056C150.69802 229.69802 152.65615 230 161 230c5.5 0 10-.19276 10-.42835 0-.2356-9.16595-23.5231-20.36877-51.75-11.20282-28.22691-22.71892-57.2985-25.59132-64.60355l-5.22256-13.2819-11.11804.2819-11.11803.2819-25.66058 64.75L46.26012 230h10.21495c8.70857 0 10.46454-.27579 11.90743-1.87016zM96.16656 157.25c4.91828-13.0625 9.76916-26.225 10.77974-29.25 1.01057-3.025 2.04882-4.825 2.30721-4 .25839.825 4.88312 13.425 10.27719 28 5.39406 14.575 10.00447 27.0625 10.24533 27.75.34154.97481-4.29412 1.25-21.05692 1.25H87.22423zM214 165v-65h-22v130h22zm59 39v-26l6.75.0147c3.7125.008 7.83269.57061 9.15598 1.25 1.32328.67939 9.54762 11.58526 18.27631 24.23526 8.72869 12.65 16.80835 23.7875 17.95481 24.75 1.71786 1.44222 4.08756 1.75 13.47368 1.75 6.26407 0 11.38922-.19309 11.38922-.42909 0-.83486-35.19127-50.10955-37.6054-52.65495l-2.45078-2.58404 7.4497-3.68185c13.90402-6.87173 20.77936-17.77377 20.90602-33.15007.0836-10.14306-2.11576-16.87358-7.51993-23.01303-5.20227-5.9101-9.66225-8.71948-18.36607-11.56896-6.32766-2.07156-9.22282-2.29913-34.16354-2.68536L251 99.81065V230h22zm0-64.38417V117l8.75.0201c17.89284.0411 26.08311 2.4573 31.65169 9.33747 2.49342 3.0807 3.07916 4.8303 3.42255 10.22307.5159 8.10212-1.59251 14.13069-6.42638 18.37489-5.99017 5.25944-9.67092 6.2972-24.14786 6.80832l-13.25.4678v-22.61583z"/><path fill="#2a313c" d="M0 200V0h400v400H0zm337.97957 102.75c5.92596-3.02802 8.26581-6.50241 8.72699-12.95853.62804-8.79189-2.93112-12.70647-15.29306-16.82026-11.24618-3.74248-15.1114-8.97179-12.04898-16.3012 2.82321-6.7569 12.7741-8.96819 20.58987-4.57549 4.28401 2.40775 6.23797 2.0479 3.93811-.72526-3.62638-4.37266-14.65946-5.75976-20.82142-2.61771-5.1216 2.61157-7.4557 6.39025-7.4557 12.07007 0 8.25332 2.78927 10.82376 17.59312 16.21292 9.85626 3.58804 13.13253 10.13156 8.96423 17.9038-2.6818 5.00051-7.43059 7.26446-14.30061 6.81769-5.14222-.3344-6.71633-.99371-12.46442-5.22066-.72148-.53055-1.65494-.62146-2.07437-.20204-1.2797 1.2797 1.11285 3.97695 5.66118 6.38217 5.74808 3.03966 13.07776 3.05298 18.98506.0345zm-279.74674-24L58.5 253.5l11.8664 20.29453c6.52652 11.162 12.37652 20.13486 13 19.93969.62348-.19517 6.4211-9.55064 12.8836-20.78993L108 252.5092v25.7454c0 16.49693.35923 25.7454 1 25.7454.64334 0 1-10.19444 1-28.58333 0-22.40995-.26997-28.49832-1.25-28.18969-.6875.21651-6.48988 9.50628-12.89418 20.64393-6.4043 11.13766-12.0293 20.29432-12.5 20.34815-.4707.0538-6.29377-9.08595-12.94016-20.3106C63.7584 256.66544 57.69555 247.5 56.91566 247.5c-1.1812 0-1.45964 4.67862-1.68123 28.25-.23079 24.54922-.06928 28.25 1.23283 28.25 1.28458 0 1.53652-3.60306 1.76557-25.25zM134 275.42668c0-26.67427-.11631-28.55095-1.75-28.23669-1.60982.30967-1.77127 2.59844-2.01557 28.57332-.26082 27.73059-.22945 28.23669 1.75 28.23669 1.97373 0 2.01557-.59308 2.01557-28.57332zm22.23312 3.21083l.26688-25.3625 18.57561 25.1125c10.21658 13.81187 19.32908 25.25799 20.25 25.43581 1.53433.29628 1.67439-2.06675 1.67439-28.25C197 250.98604 196.7931 247 195.51688 247c-1.26529 0-1.52231 3.76324-1.75 25.62279l-.26688 25.6228-18.95142-25.63899c-10.42329-14.10144-19.42329-25.48188-20-25.28987-.68985.22968-1.13944 9.98542-1.31415 28.51619-.23079 24.47794-.0693 28.16708 1.23311 28.16708 1.28518 0 1.53672-3.61329 1.76558-25.36249zM251 303c0-.62366-5.83333-1-15.5-1H220v-25h13c10.88889 0 13-.24359 13-1.5s-2.11111-1.5-13-1.5h-13v-24h15.5c13.21788 0 15.5-.22433 15.5-1.52361 0-1.31651-2.34479-1.48643-17.25-1.25L216.5 247.5l-.26557 28.25-.26558 28.25h17.51558C244.49481 304 251 303.62861 251 303zm19-12v-13h9.63208l10.43396 12.942c7.65444 9.49436 11.03416 12.95745 12.68704 13 1.88432.0485.54054-2.01403-8.21026-12.60178-5.75484-6.96288-10.2656-12.97976-10.0239-13.37084.24171-.39108 1.76196-.97556 3.37834-1.29883 4.26191-.85238 9.90673-6.2224 11.04984-10.5119 1.17321-4.40246-.0122-10.46813-2.60592-13.33414-3.83064-4.23281-7.31334-5.20635-18.84118-5.26682l-11-.0577-.26557 28.25c-.26082 27.74393-.22947 28.25 1.75 28.25 1.9174 0 2.01557-.63319 2.01557-13zm0-28.5V250l7.75.022c8.55728.0242 15.28581 2.30792 17.16932 5.82728 1.87446 3.50247 1.30938 10.5903-1.08722 13.63708C290.71742 273.44599 286.12334 275 277.53212 275H270zM68.67885 227.68115c1.0032-1.27537 4.23778-8.7074 7.18795-16.51562l5.36394-14.19676 27.55644.26561 27.55645.26562 5.78053 14.97857c3.1793 8.23822 6.56299 15.55072 7.51932 16.25 1.64035 1.19945 21.35652 1.94227 21.35652.80462 0-.37569-43.06475-109.3748-49.51096-125.31481l-1.7315-4.28162-11.10881.28162-11.1088.28162-16.2845 41c-8.95647 22.55-20.50517 51.6875-25.66377 64.75L46.2124 230H56.5336c9.60323 0 10.44812-.16131 12.14524-2.31885zm27.046-68.93115c4.63583-12.2375 9.42407-25.2896 10.64053-29.00467l2.21174-6.75467 10.3453 27.75467c5.68991 15.26507 10.55821 28.31717 10.81843 29.00467.36937.97586-4.23299 1.25-20.98583 1.25H87.29607zM214 165v-65h-22v130h22zm59 39v-26h6.4349c3.5392 0 7.52567.41471 8.85884.92158 1.57164.59754 7.96475 8.94849 18.18192 23.75 8.66689 12.55563 16.68385 23.84092 17.81547 25.07842 1.91165 2.0905 2.8958 2.25 13.88318 2.25 6.50413 0 11.82569-.24446 11.82569-.54326 0-1.01886-34.26429-48.94528-37.29841-52.17033l-3.02334-3.21358 2.91088-1.06293c10.64587-3.88742 19.86471-12.36428 23.40067-21.51727 3.13261-8.10891 3.18788-20.56387.12679-28.57214-2.71509-7.10311-9.13619-13.83837-16.52557-17.33411C310.06036 101.07766 301.44141 100 274.91203 100H251v130h22zm0-64.5V117l8.25.0327c24.94208.0989 34.36019 5.24191 35.49531 19.38309C318.1381 153.76707 307.49918 162 283.6844 162H273z"/></svg>