<svg xmlns="http://www.w3.org/2000/svg" role="img" viewBox="-3.08 -3.08 160.03 106.53"><title>ApsimX logo</title><path fill="#b8c9c7" d="M.01612 98c.00798-.825.45761-2.175.9992-3 .81646-1.24375 1.13416-1.26822 1.85968-.14324.61023.94622 1.08198 1.02187 1.55902.25C5.30605 93.6958 8 93.65972 8 95.05902c0 .58246-.45.7809-1 .44098-.55-.33992-1-.18962-1 .334 0 .52361.675 1.21104 1.5 1.52763 1.0185.39083 1.5-.05273 1.5-1.38181 0-1.47642.61433-1.90657 2.5-1.75051 1.375.1138 2.5069.67126 2.51531 1.2388.0084.56754.35979.48993.78081-.17247.42103-.6624 1.76414-1.12914 2.9847-1.0372 1.62945.12275 2.25062.8414 2.3375 2.70436l.11831 2.5372.63168-2.5C21.69956 93.71024 24 93.28174 24 96.41667c0 1.32916.5625 2.6199 1.25 2.8683.6875.24839-1.225.44346-4.25.43348-3.025-.01-5.8306-.5132-6.23469-1.11829-.50831-.76118-.7394-.715-.75.14984-.02002 1.63404-3.0106 1.63404-3.03062 0-.01176-.96025-.20657-.94848-.8404.05077C8.9371 100.70395-.0032 99.9971.01612 98zM19 97c0-.43231-.675-1.04504-1.5-1.36163C16.48478 95.2488 16 95.68886 16 97s.48478 1.7512 1.5 1.36163C18.325 98.04504 19 97.4323 19 97zm7.89927.25c-.45632-2.6824-.23384-3.25 1.27392-3.25C29.31482 94 30 94.728 30 95.94098c0 1.06754.45 2.2191 1 2.55902.56716.35052 1-.48962 1-1.94098C32 94.49607 32.48463 94 34.5 94c1.90715 0 2.51503.53357 2.56339 2.25.0615 2.18295.09338 2.1755 1.07-.25l1.0066-2.5 1.33188 2.46804 1.33188 2.46804.46194-2.46804c.45944-2.45463.46269-2.45356.59813.19863.0749 1.46666.69868 2.89364 1.38618 3.17105.6875.27741.0125.53991-1.5.58333-1.5125.04342-2.75-.42615-2.75-1.0435 0-.75138-.52107-.69-1.57621.1857-1.3063 1.08413-1.7318 1.06229-2.4847-.12755-.6926-1.09455-.9121-1.1229-.92378-.11928-.0098.84008-.99608 1.20193-2.72576 1-1.91767-.22387-2.89856-1.04765-3.35356-2.81642-.63255-2.45898-.65-2.45077-1.06347.5l-.42036 3zM47 96.99508v-3.00491l6 .13563c3.66838.08292 6.00595.57059 6.01531 1.25491.01032.75418.26502.72643.78081-.08508.42103-.6624 1.76414-1.12913 2.9847-1.0372C64.37748 94.37873 65 95.0672 65 96.7128 65 97.97076 65.45 99 66 99s1-1.04458 1-2.32129c0-2.08846.5015-2.34417 5-2.54943 3.54565-.16179 5.00445.14982 5.01531 1.07128.01077.91438.23302.96418.75.16805.95327-1.468 6.23-1.4626 6.25.0064.0084.61875.45153.45.98469-.375.73968-1.14458.973-.75774.98469 1.63258.01505 3.07841-.06682 3.13186-4.73469 3.0908-4.26666-.03753-4.81428-.3054-5.38169-2.63258L75.23663 94.5l-.11832 2.75C74.97292 100.62945 73 100.9447 73 97.58848c0-1.72786-.49612-2.3387-1.75-2.15467-.9625.14127-1.75.88895-1.75 1.66152 0 .77257.5625 1.29217 1.25 1.15467.6875-.1375 1.25.14706 1.25.63235 0 .4853-2.7.88236-6 .88236-3.79185 0-6.00563-.41674-6.01531-1.13236-.0094-.69429-.34073-.61907-.85648.19444-.92259 1.45523-4.19063 1.25665-5.37821-.32679-.47613-.63483-1.07096-.50222-1.62895.36315-.74207 1.15087-.97566 1.15087-1.5 0-.48094-1.05562-.75265-1.08115-1.20438-.11315C48.3534 101.02842 47 100.04561 47 96.99508zM57.98469 96.75c-.01196-1.7567-.21673-1.9316-.93402-.79775-.50529.79874-.69684 1.81124-.42567 2.25.86737 1.40343 1.37543.86078 1.35969-1.45225zM62.2 95.8c-.93333-.93333-1.2-.66667-1.2 1.2s.26667 2.13333 1.2 1.2.93333-1.46667 0-2.4zM81 97.55902c0-.79254-.45-1.7191-1-2.05902-.55-.33992-1 .30852-1 1.44098S79.45 99 80 99s1-.64844 1-1.44098zm8-.62188c0-2.60233.3383-3.01582 2.25-2.75 1.2375.17207 2.5806.76286 2.98469 1.31286.47606.64798.74007.61774.75-.0859.0089-.63427 2.50869-1.17588 6.01042-1.30224l5.99511-.21634-.97036 2.55224C105.2513 98.46923 105.3563 99 106.52475 99c.93499 0 1.4869-1.0071 1.50705-2.75.0305-2.63406.0937-2.66816 1.5-.80887 1.17299 1.55083 1.4682 1.62623 1.4682.375 0-1.78007 4.63337-2.21837 5.67275-.53662.36664.59324.14703.72714-.51824.31598-.63498-.39244-1.15451-.23697-1.15451.3455 0 .58245.45 1.05901 1 1.05901s1 .625 1 1.38889c0 1.0415-1.61183 1.38889-6.4443 1.38889-6.19516 0-6.45999-.10202-6.85017-2.6389L103.29966 94.5l-.14983 2.75c-.18156 3.33244-2.14983 3.71391-2.14983.41667 0-1.40741-.59524-2.33334-1.5-2.33334-.825 0-1.5.40156-1.5.89235 0 .4908-.48029.59552-1.0673.23272-.59633-.36855-1.33006.34511-1.66273 1.61725l-.59542 2.27687-.80505-2.17626c-.44278-1.19694-1.38205-2.14073-2.08728-2.09731-1.00373.0618-1.01073.1885-.03222.58333C93.75655 97.47194 93.18848 100 91 100c-1.56468 0-2-.66667-2-3.06286zm27 1.66985c0-.21616-.69837-.661-1.55194-.98855-.88992-.3415-1.29132-.17385-.94098.39301.58726.9502 2.49292 1.40545 2.49292.59554zM96.5 99c-.33992-.55-.40328-1-.1408-1 .26247 0 1.18903-.27315 2.05901-.60699 1.03799-.39831 1.58179-.05452 1.58179 1 0 1.76415-2.51524 2.20036-3.5.60699zm22.82832-1.72119c.20635-2.69313.40498-2.78529 6.4423-2.98895 6.00804-.20267 6.22938-.12272 6.22938 2.25C132 97.89294 132.45 99 133 99s1-1.125 1-2.5.45-2.5 1-2.5 1 1.125 1 2.5c0 3.32385 1.77694 3.1827 3.14739-.25l1.09789-2.75 1.41843 3 1.41844 3-.4024-2.75c-.28302-1.93411.0332-2.75 1.06591-2.75.92807 0 1.24498.582.86133 1.58179-.33385.86998-.60699 2.21998-.60699 3 0 .78001-.675 1.41821-1.5 1.41821s-1.5-.5051-1.5-1.12244c0-.77415-.38788-.8066-1.25-.1046-.6875.55983-5.61154 1.0779-10.9423 1.15127l-9.6923.1334zM123 96.55901c0-.24253-.45-.7191-1-1.05901-.55-.33992-1-.14148-1 .44098S121.45 97 122 97s1-.19844 1-.44098zm23.18358.73238c.27524-2.35614.8044-2.73913 4.06642-2.94322 3.60218-.22536 3.7494-.10874 3.73469 2.95861-.0117 2.42952-.24715 2.83447-.98469 1.69322-.64625-1-.97448-1.08333-.98469-.25-.009.72491-1.30343 1.25-3.08173 1.25-2.74504 0-3.03326-.28388-2.75-2.7086zM149 97.55902c0-.79254-.45-1.7191-1-2.05902-.55-.33992-1 .30852-1 1.44098S147.45 99 148 99s1-.64844 1-1.44098zM0 82.75497C0 80.669 10.98806 27.6786 11.53376 27.1329c.25643-.25643.61049-.27874.7868-.04958.1763.22917 2.68668 12.11667 5.57862 26.41667s5.49647 27.0125 5.78785 28.25c.3675 1.56073.07507 2.25-.95456 2.25-1.07303 0-1.96877-2.49397-3.23247-9l-1.74811-9h-5.8569c-6.57173 0-5.83852-.97853-8.18746 10.92675-.6974 3.5347-1.8169 6.6097-2.48777 6.83333C.54889 83.9837 0 83.5314 0 82.75497zm17-20.27242c0-.86239-4.07946-19.83804-4.7259-21.98255-.38331-1.27164-1.42946 1.82391-2.87259 8.5C6.21772 63.72868 6.08247 63 12 63c2.75 0 5-.23285 5-.51745zm25-7.51773c0-28.27869.04981-29.00853 1.91178-28.01204 6.69386 3.58245 11.89246 14.94291 10.49571 22.93618-.82736 4.73479-4.86804 11.71147-7.95399 13.73346C44.13732 65.14005 44 65.75527 44 74.61501 44 80.20501 43.59563 84 43 84c-.6437 0-1-10.34506-1-29.03518zm6.60659 2.05348c4.90736-7.41553 3.9388-18.33895-2.13176-24.04194L44 30.65137V45.8257C44 55.12963 44.38137 61 44.98581 61c.5422 0 2.17155-1.79176 3.62078-3.9817zM75.5674 83.10908c-.46178-.7472.02938-2.1398 1.21085-3.4331 6.47775-7.09098 6.65355-14.22833.59027-23.96423C73.76308 49.92244 73.5 48.98415 73.5 41.9145c0-6.73308.32431-8.05348 2.886-11.75 4.81384-6.94637 6.5496-5.04904 1.864 2.0375-4.2309 6.39884-3.86685 13.38488 1.1181 21.4567 4.77356 7.72952 6.02124 12.90945 4.53304 18.81963-1.30702 5.19066-7.1161 12.6009-8.33373 10.63075zM103 55c0-18.66667.35632-29 1-29s1 10.33333 1 29-.35632 29-1 29-1-10.33333-1-29zm20 28.29215c0-2.08363 7.98284-56.60832 8.34022-56.9657.57072-.57072 1.12968 2.77695 4.26659 25.55307 1.54376 11.20874 2.92522 19.98374 3.0699 19.5.14468-.48373 1.62621-10.51662 3.29228-22.2953 1.66607-11.77867 3.21354-21.60008 3.43881-21.82535.22527-.22528.64742.41182.93811 1.41577 1.18696 4.0994 7.81282 54.49997 7.24007 55.07271-1.49905 1.49905-2.44989-2.43935-5.00616-20.73551-1.49755-10.7185-2.82483-19.59018-2.94951-19.71486-.12468-.12469-1.51033 8.99738-3.07921 20.27126-1.85953 13.36242-3.23519 20.37197-3.95181 20.13605-.60678-.19976-2.31094-8.61498-3.80373-18.7831C133.30812 54.78955 131.95352 45.6 131.78534 44.5c-.16818-1.1-1.65119 7.19046-3.29556 18.42325-1.93003 13.18407-3.43285 20.56861-4.23978 20.83334-.6875.22554-1.25.01655-1.25-.46444zM87 28.55576c0-2.23764.86473-4.42715 2.4684-6.25L91.9368 19.5l.0316 4.0275C91.9992 27.45206 89.83857 32 87.9433 32 87.42448 32 87 30.4501 87 28.55576zm-3.86836-6.3098c-1.51843-2.8372-1.37299-9.18242.2788-12.16378 1.33757-2.41423 1.34123-2.4147 2.46456-.31574 1.55547 2.90643 1.41098 10.4602-.24336 12.72265-1.32512 1.8122-1.40414 1.80451-2.5-.24313zM75.16356 7.69707C73.44193 5.62264 72.51247 0 73.89118 0c1.77295 0 4.6969 6.81191 3.45642 8.0524-.70982.70982-1.39218.5988-2.18404-.35533z"/><path fill="#9bb3b1" d="M0 98.71997c0-.4683.52067-1.82433 1.15704-3.0134 1.13082-2.11296 1.17456-2.11714 1.92972-.18427C4.3411 98.7329 4.11606 99.57143 2 99.57143c-1.1 0-2-.38316-2-.85146zm5.5717.53003c.49777-.4125 1.24088-1.2 1.65135-1.75.42591-.57068.7529-.24868.76164.75.0085.9728-.72489 1.75-1.65136 1.75-.91666 0-1.2594-.3375-.76163-.75zM9 97c0-1.65.37206-3 .8268-3 .45475 0 .62868 1.35.3865 3-.24216 1.65-.61422 3-.8268 3C9.17393 100 9 98.65 9 97zm4.19495.5c.02038-1.65.2445-2.20394.49804-1.23097.25354.97297.23687 2.32297-.03705 3-.27393.67703-.48137-.11903-.461-1.76903zm2.61755 1.81689c.72188-.28888 1.58438-.25335 1.91667.07895.33229.33229-.25834.56864-1.3125.52522-1.16495-.04798-1.4019-.28494-.60417-.60417zm4 0c.72188-.28888 1.58438-.25335 1.91667.07895.33229.33229-.25834.56864-1.3125.52522-1.16495-.04798-1.4019-.28494-.60417-.60417zM23.116 97.25c.08891-2.10779.2327-2.28294.61568-.75.27483 1.1 1.01013 2.3306 1.634 2.73469.71988.46625.49493.74028-.61568.75-1.27387.01114-1.71844-.7329-1.634-2.73469zm3.6707-.25c-.24218-1.65-.06825-3 .3865-3 .45474 0 .8268 1.35.8268 3s-.17392 3-.3865 3c-.21258 0-.58464-1.35-.8268-3zm3.84762 2.32613c.62387-.45437 1.38196-1.72613 1.68464-2.82613.43394-1.577.51128-1.48782.36569.42167C32.58309 98.2536 31.825 99.52535 31 99.7478c-.9911.26724-1.11517.12419-.36568-.42167zm4.64498-.79338c-.96094-1.09076-.96094-1.49147 0-1.88305.89838-.3661.82463-.80169-.2793-1.6497-1.33333-1.02423-1.33333-1.10646 0-.74004.825.22672 1.5606 1.04848 1.63465 1.82613.30206 3.17184.43949 3.35239 1.4568 1.91391.86284-1.22006.98828-1.23172.67218-.0625-.5379 1.98963-2.03116 2.24473-3.48433.59525zm7.5332.78414c.72188-.28888 1.58438-.25335 1.91667.07895.33229.33229-.25834.56864-1.3125.52522-1.16495-.04798-1.4019-.28494-.60417-.60417zM47 97.55902c0-2.77998 1.69073-4.26829 3.16924-2.78979.65995.65996.54962 1.70808-.32769 3.11287C48.09063 100.68577 47 100.56177 47 97.55902zm6.21057.84012C52.5014 97.62961 52.36233 97 52.90156 97c1.03844 0 2.54172 1.90221 1.94858 2.46567-.19258.18294-.93038-.297-1.63957-1.06653zM60 97c0-1.65.40787-3 .90638-3 .49851 0 .65898.94606.3566 2.10236-.3221 1.23172.02726 2.46775.84362 2.98468 1.11359.70515 1.04197.8854-.3566.89765C60.46882 99.99589 60 99.1963 60 97zm5.63432 2.32613c.62387-.45437 1.38196-1.72613 1.68464-2.82613.43394-1.577.51128-1.48782.36568.42167C67.5831 98.2536 66.825 99.52535 66 99.7478c-.9911.26724-1.11517.12418-.36568-.42167zM73.78669 97c-.24217-1.65-.06824-3 .3865-3C74.62794 94 75 95.35 75 97s-.17392 3-.3865 3c-.21258 0-.58464-1.35-.8268-3zm4.87998 2.33333c-.97315-.97314-.81476-4.12377.24007-4.7757.4987-.30821.65918.3863.3566 1.54335-.32247 1.23314.0265 2.46887.84326 2.98606.76637.48529.9059.88923.31007.89765-.59584.0084-1.38334-.28469-1.75-.65136zm2.96911-.84008c-.38574-1.00523-.2441-2.28494.31477-2.8438 1.52842-1.52842 2.20346-.23999 1.2395 2.36584-.77338 2.09063-.91832 2.1352-1.55427.47796zM85.19495 97.5c.02038-1.65.2445-2.20394.49804-1.23097.25354.97297.23687 2.32297-.03705 3-.27393.67703-.48137-.11903-.461-1.76903zM89 98.94098c0-.58246.5625-.72107 1.25-.30804.89133.5355.86663.27806-.08609-.89718C88.78277 96.03204 89.32785 94 91.16601 94c.57638 0 .79448.66059.48465 1.46798-.30982.80738-.12563 1.73847.40933 2.0691.53495.33061.71374 1.02002.3973 1.53202C91.66823 100.34583 89 100.24696 89 98.94098zm4.7871-1.27431c-.25974-1.3588.038-2.33334.7129-2.33334.6749 0 .97264.97454.7129 2.33334C94.96756 98.95 94.64675 100 94.5 100c-.14677 0-.46757-1.05-.7129-2.33333zM97.5717 99.25c.49777-.4125 1.24088-1.2 1.65135-1.75.42591-.57068.7529-.24868.76164.75.0085.9728-.72489 1.75-1.65136 1.75-.91666 0-1.2594-.3375-.76163-.75zm4.21499-2.25c-.24217-1.65-.0682-3 .3865-3 .45475 0 .82681 1.35.82681 3s-.17393 3-.3865 3c-.21258 0-.58464-1.35-.82681-3zm6.23478 0l-.009-3.5 1.51173 2.89878c.83144 1.59433 1.27867 3.13183.99384 3.41667-.28484.28483-.52478-.11962-.5332-.89878-.01276-1.16647-.18667-1.15175-.98484.08333-.72745 1.12564-.97166.6265-.97853-2zm6.77027 2.3238c1.05565-.42356 1.05565-.82036 0-2.17105-1.15236-1.47442-1.1041-1.50565.44725-.28944 1.81727 1.42467 1.50026 3.19352-.54801 3.05774-.81746-.05419-.78586-.2415.10076-.59724zm6.62146-.53516c.87274-.48841 1.5868-1.48818 1.5868-2.2217 0-1.69807 3.74725-2.7349 4.37592-1.21078.31984.7754.81352.66067 1.53264-.35616.83803-1.18498 1.06403-.8136 1.07613 1.76837L130 100.03674l-5.0868-.18004c-3.55698-.1259-4.60958-.44711-3.5-1.06806zm9.96109-.25565c-.30962-.80686-.33103-2.04436-.0476-2.75.28346-.70564.55091-.30799.59433.88368.0434 1.19166.64145 2.39364 1.32895 2.67105.97906.39506.97226.5215-.0314.58333-.70477.04342-1.53471-.5812-1.84433-1.38806zm3.76189-1.28299c.11211-2.26388.21137-2.36314.5615-.56148.23392 1.20368 1.18514 2.38898 2.11381 2.634 1.19634.31563 1.03268.47929-.56149.56148-1.84607.09518-2.22555-.3777-2.11382-2.634zm11.24081 1.29003c-.34324-.89446-.34347-1.90688-.00053-2.24982.34295-.34295.62354.12646.62354 1.04312 0 2.08473 1.69044 2.19166 2.32489.14707.35829-1.15465.43594-1.1145.32332.16713-.20073 2.28448-2.49669 2.91089-3.27122.8925zm5.90231-.06485c-.96094-1.04544-.96094-1.4339 0-1.82548.89496-.3647.82043-.78052-.2793-1.55826-1.06333-.752-1.12697-1.06528-.21862-1.07613 1.48226-.01771 2.53871 2.20917 2.05319 4.32789-.27707 1.20912-.54435 1.2318-1.55527.13198zM97 96.05902c0-.51754.44485-1.21592.98855-1.55194.56686-.35034.7345.05106.393.94098C97.71678 97.18048 97 97.49745 97 96.05902zm-91.38691-1.242c.2888-.4673.94401-.59075 1.456-.27432 1.30839.80863 1.16107 1.12397-.5251 1.12397-.8008 0-1.21971-.38234-.9309-.84965zM53 95c-.9013-.58246-1.02463-.97549-.30902-.98469.65504-.00842 1.4691.43469 1.80902.98469.7673 1.24152.42112 1.24152-1.5 0zM.2282 81.75C.48195 80.5125 3.11 67.65032 6.0683 53.16738c3.44494-16.86533 5.64647-25.67375 6.12339-24.5.55849 1.37447 9.79834 45.4954 11.10289 53.01704.11298.65144-.23801 1.24139-.77999 1.311-.99568.1279-1.28743-.82138-3.47015-11.29101l-1.20828-5.7956-6.1267.2956-6.1267.29559L4.3036 73C2.3135 83.1126 2.03607 84 .86437 84c-.6082 0-.89183-1.00314-.63617-2.25zm16.77258-19.5c.0022-2.15204-4.38783-22.86619-4.9906-23.54767-.38803-.43872-1.83273 4.84878-3.21043 11.75L6.29484 63h5.35258c2.94392 0 5.35293-.3375 5.35336-.75zM42 55.5c0-16.75441.3805-28.5.92327-28.5 1.96328 0 7.01665 5.24444 8.99882 9.33906 4.20853 8.69367 2.2284 19.39187-4.8305 26.09803C44.0677 65.30986 44 65.57813 44 74.6871 44 80.22903 43.59508 84 43 84c-.64328 0-1-10.16667-1-28.5zm8.10641-.71016c3.53475-6.92574 1.54025-18.17969-4.13164-23.31267C44.01608 29.70456 44 29.82282 44 46v16.30998l2.10641-1.905c1.15853-1.04774 2.95852-3.57455 4-5.61514zM103 55c0-18.66667.35632-29 1-29s1 10.33333 1 29-.35632 29-1 29-1-10.33333-1-29zm20.46922 25.75c.30792-1.7875 2.12942-14.23862 4.0478-27.66915 1.91837-13.43053 3.71183-24.64303 3.98546-24.91667.27364-.27363.49752-.30947.49752-.07965 0 .22983 1.34474 9.86733 2.98831 21.41667 1.64357 11.54934 2.99357 21.6363 3 22.41547.039 4.72996 1.34222-2.26968 4.13975-22.23526 1.74977-12.4879 3.3356-22.55109 3.52405-22.36263.65815.65815 8.34746 56.01498 7.84985 56.5126-1.18648 1.18647-1.82696-1.74822-4.55868-20.8881-1.58717-11.1205-3.05868-20.39202-3.27004-20.60337-.21135-.21135-1.62695 8.7382-3.14577 19.8879-1.51883 11.1497-3.11414 20.65499-3.54515 21.12285-1.1653 1.26496-1.61872-.98168-4.60545-22.81929-1.50212-10.98275-2.85573-19.53275-3.00804-19-.1523.53275-1.43903 9.29363-2.8594 19.46863-1.42036 10.175-2.79962 19.5125-3.06501 20.75-.77119 3.59602-2.60682 2.66668-1.9752-1zM76 81.80954c0-.86056.70467-2.14948 1.56594-2.86426 5.83575-4.84325 5.8065-14.30018-.07373-23.8269-6.06766-9.83038-5.96654-19.24029.28336-26.36838 3.05511-3.48439 3.17556-1.63311.23298 3.58086-4.39186 7.78195-4.13396 12.43065 1.17793 21.23228 4.63012 7.67193 5.92695 14.5331 3.90494 20.65985C81.7869 78.17577 76 84.36669 76 81.80954zm11.33716-53.49976c.32936-2.02962 1.51324-4.60462 2.63084-5.72222l2.032-2.032v2.77188C92 26.60824 89.41588 32 87.84348 32c-.71541 0-.89398-1.3014-.50632-3.69022zm-4.15167-6.80203c-1.47176-3.23015-1.50767-6.53364-.11079-10.19265 1.03656-2.71517 1.1253-2.7462 2.5-.87397 1.7548 2.38989 1.79377 8.2672.07535 11.36368l-1.27907 2.3048-1.18549-2.60186zM75.25 6.8627C74.5625 6.1682 74 4.46857 74 3.0857c0-2.29572.1379-2.37639 1.58632-.92796.87248.87247 1.43498 2.57211 1.25 3.77697-.2702 1.75996-.58208 1.9424-1.58632.92797z"/><path fill="#b9c043" d="M.62485 97.53571c.34298-1.11964.7927-2.22321.99938-2.45238.53312-.59113 1.03312.10919 1.75092 2.45238C3.85812 99.11234 3.548 99.57143 2 99.57143S.14188 99.11233.62485 97.5357zM89 98.94098c0-.58246.41157-.80465.91459-.49377.50302.31089 1.1425-.00005 1.42105-.69098.30554-.75786.53778-.56198.58541.49377.04342.9625-.59605 1.75-1.42105 1.75s-1.5-.47656-1.5-1.05902zm37.35712-1.65422c-.32852-1.30894-.31827-2.65894.0228-3 .34106-.34105.6201.1299.6201 1.04657 0 2.2056 1.72881 2.14325 2.31067-.08333.25153-.9625.50953-.3625.57333 1.33334.14167 3.76576-2.62003 4.31657-3.52688.70343zm9.45538 2.03013c.72187-.28887 1.58437-.25335 1.91667.07895.33229.33229-.25834.56864-1.3125.52522-1.16495-.04798-1.4019-.28494-.60417-.60417zM32.07895 96.41667c.04798-1.16495.28494-1.4019.60416-.60417.28887.72188.25335 1.58438-.07895 1.91667-.33229.33229-.56864-.25834-.52522-1.3125zM49 97.07613c1.33333-.95656 1.33333-1.1957 0-2.15226-1.33333-.95656-1.33333-1.03064 0-.66667.825.2252 1.5 1.00947 1.5 1.7428 0 .73333-.675 1.5176-1.5 1.7428-1.33333.36397-1.33333.2899 0-.66667zm40.07895-.76711c-.11408-1.72088 1.6556-2.54754 2.50646-1.17082.4313.69784.29173.9039-.3455.51008-.588-.3634-1.297-.09544-1.57555.59549-.3625.89914-.5289.91769-.58541.06525zM.21464 82.25c.24634-.9625 2.8662-13.56648 5.82192-28.00885 2.95572-14.44236 5.67982-25.69236 6.05357-25C12.89614 30.7343 23 80.00138 23 82.43842c0 3.13051-1.73347.62982-2.38416-3.43938-.35578-2.2249-1.13155-6.30527-1.72394-9.06748l-1.07707-5.02219-6.11635.29532c-6.11506.29525-6.1165.29605-6.81223 3.79531C2.33244 81.84462 1.74707 84 .81247 84c-.57515 0-.84418-.7875-.59783-1.75zM17 61.63924c0-2.21241-4.15125-22.02737-4.90251-23.40093-.37954-.69393-1.71183 3.80607-2.96063 10-1.2488 6.19393-2.4958 12.04919-2.7711 13.01169-.4339 1.51705.24056 1.75 5.06685 1.75C15.46154 63 17 62.62398 17 61.63924zm25-6.08022C42 34.63362 42.30868 27 43.15484 27c.63516 0 2.78947 1.71836 4.78735 3.81857 8.35667 8.78468 7.98064 23.35365-.8161 31.61852C44.0864 65.29302 44 65.6161 44 74.12807c0 4.81465-.45 9.03201-1 9.37193-.65775.40651-1-9.15628-1-27.94098zm8.62888-1.2769c2.40297-5.63954 1.77118-13.25973-1.5311-18.4669C44.1713 28.04701 44 28.39316 44 46.1153v16.23333l2.62888-2.42432c1.44588-1.33337 3.24588-3.87236 4-5.6422zM103 55c0-19.15738.34208-28.90662 1-28.5.62798.38811 1 10.99071 1 28.5s-.37202 28.11189-1 28.5c-.65792.40662-1-9.34262-1-28.5zm20.83959 28.50626c-.27156-.27156 1.21441-12.30906 3.30215-26.75s3.80992-26.89376 3.82708-27.67293C131.06174 24.8619 132.14893 30.77275 135 51c1.74428 12.375 3.30383 22.63348 3.46567 22.79663.40273.40597.97855-3.18914 4.16746-26.0193 1.51517-10.84747 2.89175-19.58578 3.05906-19.41847.578.578 8.18217 55.10011 7.74567 55.53662-.99311.9931-1.47701-1.38733-4.32667-21.28429-1.63957-11.4479-3.16473-20.99806-3.38923-21.22256-.2245-.2245-1.66982 8.70871-3.21182 19.8516-3.00112 21.6868-3.9436 25.44816-4.94389 19.7305C136.64572 75.70889 132 42.96647 132 41.74048c0-.5906-.21597-.85784-.47994-.59387-.26397.26397-1.82297 9.84797-3.46445 21.29778-1.64148 11.4498-3.1505 20.98384-3.35339 21.18672-.20289.2029-.59107.1467-.86263-.12485zm-47.8214-1.08195c.01002-.50837 1.36002-2.90453 3-5.3248 3.92373-5.79053 4.10346-12.7275.48192-18.59951-7.62259-12.35934-8.3993-19.52063-3.00182-27.67678 1.56405-2.36344 3.0218-3.76293 3.23946-3.10997.21765.65296-.6468 2.5973-1.92101 4.32075C75.93949 34.57312 75.5 36.43214 75.5 41.83378c0 6.08781.36876 7.26811 4.25 13.60308C83.2317 61.1197 84 63.2617 84 67.28573c0 2.7016-.70035 6.3879-1.55634 8.19176-1.59131 3.35344-6.45831 8.61535-6.42546 6.94682zm11.31897-54.11453c.32936-2.02962 1.51324-4.60462 2.63084-5.72222l2.032-2.032v2.77188C92 26.60824 89.41588 32 87.84348 32c-.71541 0-.89398-1.3014-.50632-3.69022zm-4.15167-6.80203c-1.47176-3.23015-1.50767-6.53364-.11079-10.19265 1.03656-2.71517 1.1253-2.7462 2.5-.87397 1.7548 2.38989 1.79377 8.2672.07535 11.36368l-1.27907 2.3048-1.18549-2.60186zM75.25 6.8627C74.5625 6.1682 74 4.46857 74 3.0857c0-2.29572.1379-2.37639 1.58632-.92796.87248.87247 1.43498 2.57211 1.25 3.77697-.2702 1.75996-.58208 1.9424-1.58632.92797z"/><path fill="#6f928e" d="M.62485 97.53571c.34298-1.11964.7927-2.22321.99938-2.45238.53312-.59113 1.03312.10919 1.75092 2.45238C3.85812 99.11234 3.548 99.57143 2 99.57143S.14188 99.11233.62485 97.5357zM89 98.94098c0-.58246.41157-.80465.91459-.49377.50302.31089 1.1425-.00005 1.42105-.69098.30554-.75786.53778-.56198.58541.49377.04342.9625-.59605 1.75-1.42105 1.75s-1.5-.47656-1.5-1.05902zm37.35712-1.65422c-.32852-1.30894-.31827-2.65894.0228-3 .34106-.34105.6201.1299.6201 1.04657 0 2.2056 1.72881 2.14325 2.31067-.08333.25153-.9625.50953-.3625.57333 1.33334.14167 3.76576-2.62003 4.31657-3.52688.70343zm9.45538 2.03013c.72187-.28887 1.58437-.25335 1.91667.07895.33229.33229-.25834.56864-1.3125.52522-1.16495-.04798-1.4019-.28494-.60417-.60417zM32.07895 96.41667c.04798-1.16495.28494-1.4019.60416-.60417.28887.72188.25335 1.58438-.07895 1.91667-.33229.33229-.56864-.25834-.52522-1.3125zM49 97.07613c1.33333-.95656 1.33333-1.1957 0-2.15226-1.33333-.95656-1.33333-1.03064 0-.66667.825.2252 1.5 1.00947 1.5 1.7428 0 .73333-.675 1.5176-1.5 1.7428-1.33333.36397-1.33333.2899 0-.66667zm40.07895-.76711c-.11408-1.72088 1.6556-2.54754 2.50646-1.17082.4313.69784.29173.9039-.3455.51008-.588-.3634-1.297-.09544-1.57555.59549-.3625.89914-.5289.91769-.58541.06525zM.21464 82.25c.24634-.9625 2.8662-13.56648 5.82192-28.00885 2.95572-14.44236 5.67982-25.69236 6.05357-25C12.89614 30.7343 23 80.00138 23 82.43842c0 3.13051-1.73347.62982-2.38416-3.43938-.35578-2.2249-1.13155-6.30527-1.72394-9.06748l-1.07707-5.02219-6.11635.29532c-6.11506.29525-6.1165.29605-6.81223 3.79531C2.33244 81.84462 1.74707 84 .81247 84c-.57515 0-.84418-.7875-.59783-1.75zM17 61.63924c0-2.21241-4.15125-22.02737-4.90251-23.40093-.37954-.69393-1.71183 3.80607-2.96063 10-1.2488 6.19393-2.4958 12.04919-2.7711 13.01169-.4339 1.51705.24056 1.75 5.06685 1.75C15.46154 63 17 62.62398 17 61.63924zm25-6.08022C42 34.63362 42.30868 27 43.15484 27c.63516 0 2.78947 1.71836 4.78735 3.81857 8.35667 8.78468 7.98064 23.35365-.8161 31.61852C44.0864 65.29302 44 65.6161 44 74.12807c0 4.81465-.45 9.03201-1 9.37193-.65775.40651-1-9.15628-1-27.94098zm8.62888-1.2769c2.40297-5.63954 1.77118-13.25973-1.5311-18.4669C44.1713 28.04701 44 28.39316 44 46.1153v16.23333l2.62888-2.42432c1.44588-1.33337 3.24588-3.87236 4-5.6422zM103 55c0-19.15738.34208-28.90662 1-28.5.62798.38811 1 10.99071 1 28.5s-.37202 28.11189-1 28.5c-.65792.40662-1-9.34262-1-28.5zm20.83959 28.50626c-.27156-.27156 1.21441-12.30906 3.30215-26.75s3.80992-26.89376 3.82708-27.67293C131.06174 24.8619 132.14893 30.77275 135 51c1.74428 12.375 3.30383 22.63348 3.46567 22.79663.40273.40597.97855-3.18914 4.16746-26.0193 1.51517-10.84747 2.89175-19.58578 3.05906-19.41847.578.578 8.18217 55.10011 7.74567 55.53662-.99311.9931-1.47701-1.38733-4.32667-21.28429-1.63957-11.4479-3.16473-20.99806-3.38923-21.22256-.2245-.2245-1.66982 8.70871-3.21182 19.8516-3.00112 21.6868-3.9436 25.44816-4.94389 19.7305C136.64572 75.70889 132 42.96647 132 41.74048c0-.5906-.21597-.85784-.47994-.59387-.26397.26397-1.82297 9.84797-3.46445 21.29778-1.64148 11.4498-3.1505 20.98384-3.35339 21.18672-.20289.2029-.59107.1467-.86263-.12485zm-47.8214-1.08195c.01002-.50837 1.36002-2.90453 3-5.3248 3.92373-5.79053 4.10346-12.7275.48192-18.59951-7.62259-12.35934-8.3993-19.52063-3.00182-27.67678 1.56405-2.36344 3.0218-3.76293 3.23946-3.10997.21765.65296-.6468 2.5973-1.92101 4.32075C75.93949 34.57312 75.5 36.43214 75.5 41.83378c0 6.08781.36876 7.26811 4.25 13.60308C83.2317 61.1197 84 63.2617 84 67.28573c0 2.7016-.70035 6.3879-1.55634 8.19176-1.59131 3.35344-6.45831 8.61535-6.42546 6.94682z"/><path fill="#59827d" d="M5.90555 55.582C8.98104 40.5021 11.6565 28.32317 11.851 28.51768 12.26932 28.93598 23 80.7038 23 82.30356c0 3.1018-1.87151-1.5762-2.9219-7.30356-1.972-10.75245-1.44133-10.12992-8.35018-9.7956-6.8592.33193-6.18895-.59406-8.71883 12.0456C2.3761 80.4125 1.5107 83 1.08599 83s1.74408-12.3381 4.81956-27.418zm11.2977 7.88141c.61049-.61048-4.3819-24.97872-5.30647-25.90127-.72848-.7269-5.8999 24.61929-5.24112 25.68786.52427.8504 9.72446 1.03654 10.5476.21341zM42 55c0-15.4.26803-28 .59563-28 2.0352 0 6.61291 4.77749 8.81832 9.20317 4.39542 8.82044 3.11445 18.05472-3.4638 24.96989L44 65.32553v8.83724C44 79.38759 43.59123 83 43 83c-.64286 0-1-10-1-28zm8.73787-.4766c3.33469-6.4128 1.03347-17.80516-4.63146-22.92839L44 29.69003v32.6586l2.59501-2.42432c1.42726-1.33337 3.29155-3.76378 4.14286-5.4009zM76 82.49938c0-.44583 1.16886-2.34305 2.59747-4.21606 5.34632-7.00938 5.16923-14.36968-.54713-22.7401-3.71063-5.43343-5.39165-10.96187-4.76157-15.65951.51702-3.85467 5.4293-13.49897 6.38755-12.54072.275.275-.66467 2.48736-2.08816 4.91636-4.11438 7.02067-3.65823 13.3494 1.588 22.0322 5.18227 8.57696 6.13174 15.2253 3.0396 21.28393C80.27417 79.3798 76 84.1409 76 82.49938zM103 55c0-18 .35714-28 1-28s1 10 1 28-.35714 28-1 28-1-10-1-28zm21 26.30378c0-1.11626 1.575-12.95296 3.5-26.30378s3.5-24.73752 3.5-25.30378c0-4.12412 1.26204 2.9458 3.97874 22.28881 1.73689 12.36677 3.29327 22.62031 3.45861 22.78565.33678.33678 2.55053-13.81912 5.16368-33.01929.9543-7.01173 1.88528-12.59841 2.06884-12.41485C146.51254 30.1792 153.55728 83 152.827 83c-.45485 0-.827-.12935-.827-.28745 0-1.72342-5.97995-42.02583-6.28022-42.3261-.2233-.2233-1.66764 8.7109-3.20964 19.85377-3.00112 21.68681-3.9436 25.44817-4.94389 19.7305C136.64572 74.7089 132 41.96648 132 40.74049c0-.5906-.21325-.86056-.47389-.59993-.26063.26064-1.8099 9.8349-3.4428 21.27614C125.41152 80.13706 124 87.01164 124 81.30377z"/><path fill="#46736e" d="M4.65307 62.25c2.36766-11.4125 4.8536-23.62498 5.52431-27.13884.90228-4.727 1.4231-5.89753 2.00227-4.5C12.7938 32.0931 18.81393 60.83609 22.6287 80.5c.36525 1.88273.23384 2.62758-.35284 2-.51417-.55-1.52617-4.15-2.2489-8-1.89953-10.11894-1.45947-9.6286-8.34126-9.2945-6.81018.33062-6.14808-.58847-8.67662 12.0445C2.3761 80.4125 1.51847 83 1.10323 83c-.41524 0 1.1822-9.3375 3.54984-20.75zm12.53052 1.23308c.6032-.6032-4.3922-26.0446-5.28728-26.92799-.48747-.4811-5.89966 24.01892-5.89704 26.69491.00081.83423 10.36714 1.05026 11.18432.23308zM42 55c0-15.4.39269-28 .87264-28s2.6958 1.97789 4.92409 4.3953c6.56286 7.11987 7.8801 15.46164 3.8188 24.18356-1.30072 2.79338-3.54633 6.00814-4.99024 7.14392C44.13495 64.68168 44 65.25594 44 73.89392 44 79.29797 43.59346 83 43 83c-.64286 0-1-10-1-28zm6.48568 3.25c5.7354-8.40874 5.35236-17.70851-1.02679-24.9291L44.08326 29.5l-.04162 16.25c-.02508 9.7903.34156 16.25.92232 16.25.53017 0 2.11495-1.6875 3.52173-3.75zM76 82.68422c0-.34416 1.4625-2.70291 3.25-5.24167 2.75823-3.91747 3.2306-5.42735 3.12174-9.97841-.08575-3.58455-.83083-6.45688-2.2473-8.66331-5.19535-8.09286-7.3729-13.90415-6.87274-18.34152.467-4.14317 5.3759-14.16504 6.42462-13.11632.275.275-.66467 2.48736-2.08816 4.91636-3.5179 6.00284-3.55422 13.6186-.09179 19.24065 6.92349 11.24183 7.9749 16.70035 4.6229 24C80.49107 79.0457 76 84.31837 76 82.68422zM103 55c0-18 .35714-28 1-28s1 10 1 28-.35714 28-1 28-1-10-1-28zm21 26.55108c0-1.83071 6.84747-50.31839 7.33936-51.97078.15057-.50583 1.74292 9.38877 3.53855 21.988 1.79562 12.59924 3.39829 23.04123 3.56148 23.20443.45156.45155 1.10549-3.52593 4.14422-25.20648 1.53664-10.96357 2.99674-19.3252 3.24467-18.58141C146.96582 34.39745 153.45239 83 152.7703 83c-.42366 0-.7703-.40822-.7703-.90715 0-1.08356-4.70663-34.1462-5.54402-38.94503-.32172-1.8437-.74625-3.19088-.9434-2.99373-.19715.19715-1.52902 8.90563-2.95971 19.35218-2.87597 20.99966-3.40915 23.97078-4.16583 23.2141-.43866-.43866-6.35097-39.50065-6.37773-42.13704-.005-.50416-.23065-.69532-.50118-.4248-.27052.27053-1.84918 9.87419-3.50813 21.34147-2.70857 18.72266-4 25.19631-4 20.05108z"/><path fill="#1f5650" d="M.96948 82.25c-.09404-2.31097 10.46703-52.14682 10.94873-51.66513.74179.7418 11.11338 51.71687 10.62241 52.20784-.2026.2026-1.1164-3.15538-2.03068-7.46217-.91428-4.3068-1.83891-8.39304-2.05475-9.08054-.26029-.82911-2.54985-1.25-6.79975-1.25H5.24812L3.5 74C1.97487 81.85199 1.07294 84.79246.96948 82.25zm16.72943-20.5c-.28484-1.2375-1.52047-7.2-2.74582-13.25-1.22536-6.05-2.54195-11.35337-2.92577-11.78526-.61637-.69359-6.0777 22.8415-6.0415 26.03526.00978.86203 1.91009 1.25 6.12259 1.25 5.82143 0 6.08408-.1057 5.5905-2.25zm24.50863-6.53518c-.20268-27.62312-.16256-28.26112 1.71408-27.25677 3.2874 1.75936 7.82216 8.05518 9.10677 12.64333 2.19116 7.82608-1.39837 18.79012-7.44986 22.7552-2.3252 1.52354-2.52693 2.299-2.83344 10.89187-.1815 5.08835-.4234-3.47678-.53755-19.03363zm7.2486 1.9438c2.6127-3.71744 3.03792-5.204 3.00194-10.49476-.0433-6.36719-1.51404-10.28412-5.41218-14.41386-1.1681-1.2375-2.55628-2.25-3.08486-2.25C43.38618 30 43 36.45879 43 46.07332c0 14.61222.1551 16.04346 1.70613 15.74476.93838-.18072 3.07588-2.27748 4.75-4.65947zM76.0269 82.40498c-.0148-.60226.85693-1.89487 1.93716-2.87247 1.08024-.9776 2.70896-3.72793 3.61939-6.11185C83.76142 67.71773 82.89725 63.24842 78.02172 55c-2.25828-3.82054-4.06606-8.35501-4.38544-11l-.54337-4.5 1.31764 5.1223c.7247 2.81725 2.7298 7.1748 4.45579 9.68343C82.99318 60.3039 84.59152 67.17375 83.09941 72.5c-1.07588 3.84047-7.01708 12.16107-7.0725 9.90499zM103.44052 55c0-15.675.13824-22.0875.3072-14.25.16896 7.8375.16896 20.6625 0 28.5-.16896 7.8375-.3072 1.425-.3072-14.25zm20.63345 26.41667c.14371-3.72392 4.69902-31.88563 4.81171-29.74682.13587 2.5789-3.8847 30.64478-4.47626 31.24682-.22518.22916-.37614-.44584-.33545-1.5zM138 82.4983c0-.45928-.92947-7.30836-2.06549-15.22019-1.13603-7.91183-1.88805-14.91748-1.67118-15.56811.21688-.65063 1.14618 4.39827 2.06511 11.2198.91893 6.82151 1.8622 12.59418 2.09616 12.82813.46149.4615.43493.62358 4.46614-27.25793l2.74708-19 1.29226 8.8055c.71074 4.84303 1.01723 9.08053.68109 9.41667-.33615.33614-.6428-.70134-.68146-2.3055-.0683-2.83221-1.71842-8.00797-1.85942-5.8321-.26774 4.1315-6.12124 42.79971-6.54272 43.2212-.29016.29016-.52757.1518-.52757-.30747zm12.06678-15.46208c-1.23921-8.78746-2.08457-16.48284-1.87857-17.10085.206-.618 1.41592 6.37572 2.68871 15.54161 1.27279 9.1659 2.11815 16.86128 1.87858 17.10085-.23957.23958-1.4495-6.75415-2.68872-15.5416zM133.0365 47c-.12972-1.925-.58025-4.625-1.00118-6-.65113-2.12696-.87996-1.71164-1.53358 2.7834-.42255 2.90588-.97711 5.07457-1.23236 4.81931-.25526-.25526.11569-4.65779.82432-9.7834L131.38212 29.5l1.33986 8.5c.73693 4.675 1.16224 9.4.94513 10.5-.22379 1.13385-.49689.48424-.63061-1.5zm-58.95055-9.29966c-.11121-2.32862 2.29117-6.95163 4.55904-8.77317 1.25784-1.01029 1.10255-.46575-.5316 1.86419-1.26967 1.81025-2.6759 4.51025-3.12498 6-.50942 1.68993-.84883 2.0318-.90246.90898z"/></svg>