<svg xmlns="http://www.w3.org/2000/svg" role="img" viewBox="-3.35 -3.35 174.33 18.20"><title>AR6-WG1-Data-Compilation logo</title><g id="text2" transform="translate(-.152 9.117)"><path id="path10" d="M 8.0507813,0 H 6.8144531 L 5.9589844,-2.4316406 H 2.1855469 L 1.3300781,0 H 0.15234375 L 3.328125,-8.7246094 H 4.875 Z M 5.6015625,-3.4277344 4.0722656,-7.7109375 2.5371094,-3.4277344 Z"/><path id="path12" d="M 16.59375,0 H 15.087891 L 12.169922,-3.46875 H 10.535156 V 0 H 9.375 v -8.7246094 h 2.443359 q 0.791016,0 1.31836,0.1054688 0.527344,0.099609 0.949219,0.3632812 0.474609,0.2988282 0.738281,0.7558594 0.269531,0.4511719 0.269531,1.1484375 0,0.9433594 -0.474609,1.5820313 -0.47461,0.6328125 -1.306641,0.9550781 z m -2.712891,-6.2695312 q 0,-0.375 -0.134765,-0.6621094 -0.128906,-0.2929688 -0.433594,-0.4921875 -0.251953,-0.1699219 -0.597656,-0.234375 -0.345703,-0.070312 -0.814453,-0.070312 h -1.365235 v 3.2929687 h 1.171875 q 0.550782,0 0.960938,-0.09375 0.410156,-0.099609 0.697265,-0.3632812 0.263672,-0.2460938 0.386719,-0.5625 0.128906,-0.3222656 0.128906,-0.8144536 z"/><path id="path14" d="m 23.525391,-2.8300781 q 0,1.3300781 -0.878907,2.1738281 -0.873047,0.83789062 -2.144531,0.83789062 -0.644531,0 -1.171875,-0.19921875 -0.527344,-0.19921875 -0.931641,-0.59179687 -0.503906,-0.4863281 -0.779296,-1.2890625 -0.269532,-0.8027344 -0.269532,-1.9335938 0,-1.1601562 0.246094,-2.0566406 0.251953,-0.8964843 0.796875,-1.59375 0.515625,-0.6621094 1.330078,-1.03125 0.814453,-0.375 1.898438,-0.375 0.345703,0 0.580078,0.029297 0.234375,0.029297 0.474609,0.1054687 v 1.1191407 h -0.05859 q -0.164062,-0.087891 -0.498046,-0.1640625 -0.328125,-0.082031 -0.673829,-0.082031 -1.259765,0 -2.009765,0.7910157 -0.75,0.7851562 -0.873047,2.1269531 0.492187,-0.2988281 0.966797,-0.4511719 0.480469,-0.1582031 1.107422,-0.1582031 0.55664,0 0.978515,0.1054687 0.427735,0.099609 0.873047,0.4101563 0.515625,0.3574219 0.773438,0.9023437 0.263672,0.5449219 0.263672,1.3242188 z m -1.189454,0.046875 q 0,-0.5449219 -0.164062,-0.9023438 -0.158203,-0.3574218 -0.527344,-0.6210937 -0.269531,-0.1875 -0.597656,-0.2460938 -0.328125,-0.058594 -0.685547,-0.058594 -0.498047,0 -0.925781,0.1171875 -0.427735,0.1171875 -0.878906,0.3632812 -0.01172,0.1289063 -0.01758,0.2519531 -0.0059,0.1171875 -0.0059,0.2988282 0,0.9257812 0.1875,1.4648437 0.193359,0.5332032 0.527344,0.84375 0.269531,0.2578125 0.580078,0.3808594 0.316406,0.1171875 0.685547,0.1171875 0.849609,0 1.335937,-0.515625 0.486328,-0.5214844 0.486328,-1.4941406 z"/><path id="path16" d="m 28.728516,-3.2871094 h -3.65625 v -1.0605468 h 3.65625 z"/><path id="path18" d="M 40.658203,-8.7246094 38.390625,0 H 37.083984 L 35.25,-7.2421875 33.457031,0 h -1.277344 l -2.308593,-8.7246094 h 1.189453 l 1.833984,7.2539063 1.804688,-7.2539063 h 1.177734 l 1.822266,7.3242188 1.822265,-7.3242188 z"/><path id="path20" d="m 49.646484,-0.64453125 q -0.714843,0.328125 -1.564453,0.57421875 -0.84375,0.24023437 -1.634765,0.24023437 -1.019532,0 -1.869141,-0.28124999 -0.849609,-0.28125001 -1.447266,-0.84375001 -0.603515,-0.56835937 -0.93164,-1.41796877 -0.328125,-0.8554687 -0.328125,-1.9980468 0,-2.0917969 1.21875,-3.2988282 1.224609,-1.2128906 3.357422,-1.2128906 0.74414,0 1.517578,0.1816406 0.779297,0.1757813 1.675781,0.6035156 v 1.3769532 h -0.105469 q -0.18164,-0.140625 -0.527344,-0.3691406 -0.345703,-0.2285157 -0.679687,-0.3808594 -0.404297,-0.1816406 -0.919922,-0.2988281 -0.509766,-0.1230469 -1.160156,-0.1230469 -1.464844,0 -2.320313,0.9433594 -0.849609,0.9375 -0.849609,2.5429687 0,1.6933594 0.890625,2.6367188 0.890625,0.93749995 2.425781,0.93749995 0.5625,0 1.119141,-0.11132813 0.5625,-0.11132812 0.984375,-0.28710932 v -2.1386719 h -2.337891 v -1.0195313 h 3.486328 z"/><path id="path22" d="m 56.853516,0 h -4.722657 v -0.890625 h 1.816407 v -5.8476562 h -1.816407 v -0.796875 q 0.369141,0 0.791016,-0.058594 0.421875,-0.064453 0.638672,-0.1816406 0.269531,-0.1464844 0.421875,-0.3691407 0.158203,-0.2285156 0.18164,-0.609375 h 0.908204 v 7.8632813 h 1.78125 z"/><path id="path24" d="m 62.683594,-3.2871094 h -3.65625 v -1.0605468 h 3.65625 z"/><path id="path26" d="m 72.123047,-4.3535156 q 0,1.1894531 -0.521485,2.15625 -0.515625,0.9667969 -1.376953,1.49999998 Q 69.626953,-0.328125 68.888672,-0.1640625 68.15625,0 66.955078,0 h -2.203125 v -8.7246094 h 2.179688 q 1.277343,0 2.027343,0.1875 0.75586,0.1816406 1.277344,0.5039063 0.890625,0.5566406 1.388672,1.4824219 0.498047,0.9257812 0.498047,2.1972656 z m -1.212891,-0.017578 q 0,-1.0253907 -0.357422,-1.7285157 -0.357422,-0.703125 -1.066406,-1.1074218 Q 68.970703,-7.5 68.390625,-7.6113281 67.810547,-7.7285156 67.001953,-7.7285156 h -1.089844 v 6.73242185 h 1.089844 q 0.837891,0 1.458984,-0.12304685 0.626954,-0.1230469 1.148438,-0.4570313 0.650391,-0.4160156 0.972656,-1.0957031 0.328125,-0.6796875 0.328125,-1.6992186 z"/><path id="path28" d="m 78.996094,0 h -1.095703 v -0.69726562 q -0.146485,0.0996094 -0.398438,0.28124999 -0.246094,0.17578125 -0.480469,0.28125001 Q 76.746094,0 76.388672,0.08789062 q -0.357422,0.09375 -0.837891,0.09375 -0.884765,0 -1.5,-0.5859375 -0.615234,-0.5859375 -0.615234,-1.49414062 0,-0.7441406 0.316406,-1.2011719 0.322266,-0.4628906 0.914063,-0.7265625 0.597656,-0.2636718 1.435546,-0.3574218 0.837891,-0.09375 1.798829,-0.140625 v -0.1699219 q 0,-0.375 -0.134766,-0.6210938 -0.128906,-0.2460937 -0.375,-0.3867187 -0.234375,-0.1347656 -0.5625,-0.1816406 -0.328125,-0.046875 -0.685547,-0.046875 -0.433594,0 -0.966797,0.1171875 -0.533203,0.1113281 -1.101562,0.328125 h -0.05859 v -1.1191407 q 0.322266,-0.087891 0.931641,-0.1933593 0.609375,-0.1054688 1.201171,-0.1054688 0.691407,0 1.201172,0.1171875 0.515625,0.1113281 0.890625,0.3867188 0.369141,0.2695312 0.5625,0.6972656 0.19336,0.4277344 0.19336,1.0605469 z m -1.095703,-1.6113281 v -1.8222657 q -0.503907,0.029297 -1.189454,0.087891 -0.679687,0.058594 -1.078125,0.1699218 -0.474609,0.1347657 -0.767578,0.421875 -0.292968,0.28125 -0.292968,0.7792969 0,0.5625 0.339843,0.8496094 0.339844,0.28125 1.03711,0.28125 0.580078,0 1.060547,-0.2226562 0.480468,-0.2285157 0.890625,-0.5449222 z"/><path id="path30" d="m 84.515625,-0.05859375 q -0.310547,0.08203125 -0.679688,0.13476562 -0.363281,0.05273438 -0.65039,0.05273438 -1.001953,0 -1.523438,-0.5390625 -0.521484,-0.5390625 -0.521484,-1.72851565 v -3.4804687 h -0.744141 v -0.9257813 h 0.744141 v -1.8808594 h 1.101562 v 1.8808594 h 2.273438 v 0.9257813 h -2.273438 v 2.9824218 q 0,0.515625 0.02344,0.8085938 0.02344,0.2871094 0.164062,0.5390625 0.128907,0.234375 0.351563,0.34570312 0.228516,0.10546875 0.691406,0.10546875 0.269531,0 0.5625,-0.0761719 0.292969,-0.0820313 0.421875,-0.13476557 h 0.05859 z"/><path id="path32" d="m 90.931641,0 h -1.095704 v -0.69726562 q -0.146484,0.0996094 -0.398437,0.28124999 -0.246094,0.17578125 -0.480469,0.28125001 Q 88.681641,0 88.324219,0.08789062 q -0.357422,0.09375 -0.837891,0.09375 -0.884766,0 -1.5,-0.5859375 -0.615234,-0.5859375 -0.615234,-1.49414062 0,-0.7441406 0.316406,-1.2011719 0.322266,-0.4628906 0.914062,-0.7265625 0.597657,-0.2636718 1.435547,-0.3574218 0.837891,-0.09375 1.798828,-0.140625 v -0.1699219 q 0,-0.375 -0.134765,-0.6210938 -0.128906,-0.2460937 -0.375,-0.3867187 -0.234375,-0.1347656 -0.5625,-0.1816406 -0.328125,-0.046875 -0.685547,-0.046875 -0.433594,0 -0.966797,0.1171875 -0.533203,0.1113281 -1.101562,0.328125 h -0.05859 v -1.1191407 q 0.322265,-0.087891 0.93164,-0.1933593 0.609375,-0.1054688 1.201172,-0.1054688 0.691407,0 1.201172,0.1171875 0.515625,0.1113281 0.890625,0.3867188 0.369141,0.2695312 0.5625,0.6972656 0.19336,0.4277344 0.19336,1.0605469 z m -1.095704,-1.6113281 v -1.8222657 q -0.503906,0.029297 -1.189453,0.087891 -0.679687,0.058594 -1.078125,0.1699218 -0.474609,0.1347657 -0.767578,0.421875 -0.292969,0.28125 -0.292969,0.7792969 0,0.5625 0.339844,0.8496094 0.339844,0.28125 1.03711,0.28125 0.580078,0 1.060546,-0.2226562 0.480469,-0.2285157 0.890625,-0.5449222 z"/><path id="path34" d="m 96.521484,-3.2871094 h -3.65625 v -1.0605468 h 3.65625 z"/><path id="path36" d="m 105.32813,-0.6328125 q -0.32227,0.140625 -0.58594,0.26367187 -0.25781,0.12304688 -0.67969,0.25781251 Q 103.70508,0 103.2832,0.07617187 q -0.41601,0.08203125 -0.91992,0.08203125 -0.94922,0 -1.72851,-0.26367187 Q 99.861328,-0.375 99.287109,-0.94335938 98.724609,-1.5 98.408203,-2.3554688 q -0.316406,-0.8613281 -0.316406,-1.9980468 0,-1.078125 0.304687,-1.9277344 0.304688,-0.8496094 0.878907,-1.4355469 0.55664,-0.5683594 1.341799,-0.8671875 0.79101,-0.2988281 1.75195,-0.2988281 0.70313,0 1.40039,0.1699219 0.70313,0.1699218 1.5586,0.5976562 v 1.3769532 h -0.0879 q -0.7207,-0.6035157 -1.42968,-0.8789063 -0.70899,-0.2753906 -1.51758,-0.2753906 -0.66211,0 -1.19531,0.2167969 -0.52735,0.2109375 -0.94336,0.6621093 -0.4043,0.4394532 -0.632816,1.1132813 -0.222656,0.6679687 -0.222656,1.546875 0,0.9199218 0.246094,1.5820312 0.251953,0.6621094 0.644528,1.078125 0.41016,0.4335938 0.95508,0.6445313 0.55078,0.2050781 1.16016,0.2050781 0.83789,0 1.57031,-0.2871094 0.73242,-0.2871093 1.37109,-0.8613281 h 0.082 z"/><path id="path38" d="m 112.45898,-3.2695313 q 0,1.5996094 -0.82031,2.52539068 -0.82031,0.92578124 -2.19726,0.92578124 -1.38868,0 -2.20899,-0.92578124 -0.81445,-0.92578128 -0.81445,-2.52539068 0,-1.5996093 0.81445,-2.5253906 0.82031,-0.9316406 2.20899,-0.9316406 1.37695,0 2.19726,0.9316406 0.82031,0.9257813 0.82031,2.5253906 z m -1.13671,0 q 0,-1.2714843 -0.49805,-1.8867187 -0.49805,-0.6210937 -1.38281,-0.6210937 -0.89649,0 -1.39453,0.6210937 -0.49219,0.6152344 -0.49219,1.8867187 0,1.2304688 0.49804,1.8691407 0.49805,0.63281248 1.38868,0.63281248 0.8789,0 1.37695,-0.62695308 0.50391,-0.6328126 0.50391,-1.8750001 z"/><path id="path40" d="m 123.71484,0 h -1.10156 v -3.7265625 q 0,-0.421875 -0.041,-0.8144531 -0.0352,-0.3925781 -0.15821,-0.6269531 -0.13476,-0.2519532 -0.38672,-0.3808594 -0.25195,-0.1289063 -0.72656,-0.1289063 -0.46289,0 -0.92578,0.234375 -0.46289,0.2285157 -0.92578,0.5859375 0.0176,0.1347657 0.0293,0.3164063 0.0117,0.1757812 0.0117,0.3515625 V 0 h -1.10156 v -3.7265625 q 0,-0.4335937 -0.041,-0.8203125 -0.0352,-0.3925781 -0.15821,-0.6269531 -0.13476,-0.2519531 -0.38672,-0.375 -0.25195,-0.1289063 -0.72656,-0.1289063 -0.45117,0 -0.9082,0.2226563 -0.45117,0.2226562 -0.90234,0.5683594 V 0 h -1.10157 v -6.5449219 h 1.10157 v 0.7265625 q 0.51562,-0.4277343 1.02539,-0.6679687 0.51562,-0.2402344 1.0957,-0.2402344 0.66797,0 1.13086,0.28125 0.46875,0.28125 0.69726,0.7792969 0.66797,-0.5625 1.21875,-0.8085938 0.55079,-0.2519531 1.17774,-0.2519531 1.07812,0 1.58789,0.65625 0.51562,0.6503906 0.51562,1.8222656 z"/><path id="path42" d="m 131.5957,-3.3515625 q 0,0.796875 -0.22851,1.4589844 -0.22852,0.65625 -0.64453,1.11328123 -0.38672,0.43359374 -0.91407,0.67382812 -0.52148,0.234375 -1.10742,0.234375 -0.50976,0 -0.92578,-0.11132812 Q 127.36523,-0.09375 126.9375,-0.328125 v 2.7421875 h -1.10156 v -8.9589844 h 1.10156 v 0.6855469 q 0.43945,-0.3691406 0.98438,-0.6152344 0.55078,-0.2519531 1.17187,-0.2519531 1.18359,0 1.83984,0.8964844 0.66211,0.890625 0.66211,2.4785156 z m -1.13672,0.029297 q 0,-1.1835938 -0.40429,-1.7695313 -0.4043,-0.5859375 -1.24219,-0.5859375 -0.47461,0 -0.95508,0.2050782 -0.48047,0.2050781 -0.91992,0.5390625 v 3.7089843 q 0.46875,0.2109375 0.80273,0.2871094 0.33985,0.0761719 0.76758,0.0761719 0.91992,0 1.43555,-0.6210938 0.51562,-0.6210937 0.51562,-1.8398437 z"/><path id="path44" d="m 134.49609,-7.640625 h -1.24218 v -1.1425781 h 1.24218 z M 134.42578,0 h -1.10156 v -6.5449219 h 1.10156 z"/><path id="path46" d="m 137.71875,0 h -1.10156 v -9.1171875 h 1.10156 z"/><path id="path48" d="m 144.98437,0 h -1.0957 v -0.69726562 q -0.14648,0.0996094 -0.39844,0.28124999 -0.24609,0.17578125 -0.48046,0.28125001 Q 142.73437,0 142.37695,0.08789062 q -0.35742,0.09375 -0.83789,0.09375 -0.88476,0 -1.5,-0.5859375 -0.61523,-0.5859375 -0.61523,-1.49414062 0,-0.7441406 0.3164,-1.2011719 0.32227,-0.4628906 0.91407,-0.7265625 0.59765,-0.2636718 1.43554,-0.3574218 0.83789,-0.09375 1.79883,-0.140625 v -0.1699219 q 0,-0.375 -0.13476,-0.6210938 -0.12891,-0.2460937 -0.375,-0.3867187 -0.23438,-0.1347656 -0.5625,-0.1816406 -0.32813,-0.046875 -0.68555,-0.046875 -0.43359,0 -0.9668,0.1171875 -0.5332,0.1113281 -1.10156,0.328125 h -0.0586 v -1.1191407 q 0.32226,-0.087891 0.93164,-0.1933593 0.60937,-0.1054688 1.20117,-0.1054688 0.6914,0 1.20117,0.1171875 0.51563,0.1113281 0.89063,0.3867188 0.36914,0.2695312 0.5625,0.6972656 0.19335,0.4277344 0.19335,1.0605469 z m -1.0957,-1.6113281 v -1.8222657 q -0.5039,0.029297 -1.18945,0.087891 -0.67969,0.058594 -1.07813,0.1699218 -0.47461,0.1347657 -0.76757,0.421875 -0.29297,0.28125 -0.29297,0.7792969 0,0.5625 0.33984,0.8496094 0.33984,0.28125 1.03711,0.28125 0.58008,0 1.06055,-0.2226562 0.48047,-0.2285157 0.89062,-0.5449222 z"/><path id="path50" d="m 150.50391,-0.05859375 q -0.31055,0.08203125 -0.67969,0.13476562 -0.36328,0.05273438 -0.65039,0.05273438 -1.00196,0 -1.52344,-0.5390625 -0.52148,-0.5390625 -0.52148,-1.72851565 v -3.4804687 h -0.74414 v -0.9257813 h 0.74414 v -1.8808594 h 1.10156 v 1.8808594 h 2.27344 v 0.9257813 h -2.27344 v 2.9824218 q 0,0.515625 0.0234,0.8085938 0.0234,0.2871094 0.16406,0.5390625 0.1289,0.234375 0.35156,0.34570312 0.22852,0.10546875 0.69141,0.10546875 0.26953,0 0.5625,-0.0761719 0.29297,-0.0820313 0.42187,-0.13476557 h 0.0586 z"/><path id="path52" d="m 153.01758,-7.640625 h -1.24219 v -1.1425781 h 1.24219 z M 152.94727,0 h -1.10157 v -6.5449219 h 1.10157 z"/><path id="path54" d="m 160.70508,-3.2695313 q 0,1.5996094 -0.82031,2.52539068 -0.82032,0.92578124 -2.19727,0.92578124 -1.38867,0 -2.20898,-0.92578124 -0.81446,-0.92578128 -0.81446,-2.52539068 0,-1.5996093 0.81446,-2.5253906 0.82031,-0.9316406 2.20898,-0.9316406 1.37695,0 2.19727,0.9316406 0.82031,0.9257813 0.82031,2.5253906 z m -1.13672,0 q 0,-1.2714843 -0.49805,-1.8867187 -0.49804,-0.6210937 -1.38281,-0.6210937 -0.89648,0 -1.39453,0.6210937 -0.49219,0.6152344 -0.49219,1.8867187 0,1.2304688 0.49805,1.8691407 0.49804,0.63281248 1.38867,0.63281248 0.87891,0 1.37695,-0.62695308 0.50391,-0.6328126 0.50391,-1.8750001 z"/><path id="path56" d="m 167.88281,0 h -1.10156 v -3.7265625 q 0,-0.4511719 -0.0527,-0.84375 -0.0527,-0.3984375 -0.19336,-0.6210937 -0.14649,-0.2460938 -0.42188,-0.3632813 -0.27539,-0.1230469 -0.71484,-0.1230469 -0.45117,0 -0.94336,0.2226563 -0.49219,0.2226562 -0.94336,0.5683594 V 0 h -1.10156 v -6.5449219 h 1.10156 v 0.7265625 q 0.51562,-0.4277343 1.0664,-0.6679687 0.55079,-0.2402344 1.13086,-0.2402344 1.06055,0 1.61719,0.6386719 0.55664,0.6386719 0.55664,1.8398437 z"/></g></svg>