<svg xmlns="http://www.w3.org/2000/svg" role="img" viewBox="32.96 95.84 131.95 26.45"><title>ARTS logo</title><g fill="#356" stroke-width=".265"><path d="M41.95154 101.11721h-.35657q-.0465-.18604-.17053-.43925-.11885-.25838-.26871-.48576-.15503-.2377-.34107-.4134-.18086-.18088-.3514-.20671-.1602-.02067-.40307-.03101-.24288-.01034-.44958-.01034h-.29973v5.86526q0 .17053.07235.31523.07235.13952.25322.21704.09302.0362.38757.0982.29972.062.46508.0672v.3669h-3.4623v-.3669q.14469-.0103.43924-.0413.29973-.031.41341-.0775.17053-.0672.24805-.19121.08268-.12919.08268-.34106v-5.91176h-.29972q-.1602 0-.39791.01034-.23771.0052-.45475.031-.17053.02068-.35657.20671-.18086.18087-.3359.4134-.15502.23256-.27388.4961-.11885.25839-.16536.42892h-.36174v-1.98954h6.3872z"/><path d="M47.94082 106.46053h-2.50113v-.34106q.11885-.0103.26355-.0207.1447-.0103.2377-.0413.1447-.0465.21188-.1602.07235-.11885.07235-.30489v-2.61998q0-.54261-.25838-.83716-.25321-.29456-.62012-.29456-.26871 0-.50126.0879-.22737.0827-.40824.20671-.1757.12919-.26872.25838-.09302.12919-.14469.21704v2.93005q0 .17569.06718.28938.07235.11369.21704.1757.11369.0517.23255.0775.12402.0258.26871.0362v.34106h-2.50113v-.34106q.11886-.0103.24805-.0207.12919-.0155.21704-.0413.1447-.0465.21704-.1602.07235-.11885.07235-.30489v-5.93243q0-.1757-.08268-.3514-.07751-.1757-.2067-.26355-.09303-.06718-.33074-.09302-.23254-.031-.37723-.04134v-.33073l1.88618-.11885.07235.0775v3.55533h.02067q.17053-.17053.31006-.29972.13953-.13436.3669-.27906.19637-.12402.45992-.2067.26872-.0827.59944-.0827.68213 0 1.04903.43408.3669.42891.3669 1.24023v2.651q0 .18086.06202.29455.06717.10852.21704.17053.11885.0465.21187.0723.09819.0207.25321.031z"/><path d="M53.09294 105.26164q-.32039.60978-.85782.97152-.53744.36173-1.23507.36173-.61494 0-1.08003-.21704-.45992-.21704-.75964-.58911t-.44958-.86816q-.1447-.49609-.1447-1.04903 0-.49609.15503-.97151.1602-.48059.46509-.863.29455-.3669.72863-.5891.43925-.22738.98185-.22738.5581 0 .95601.1757t.64596.48059q.2377.28939.3514.68212.11885.39274.11885.85266v.34107h-3.37446q0 .50126.09302.9095.09819.40824.30489.7183.20154.29972.5271.47542.32556.17053.77514.17053.45992 0 .79065-.21187.3359-.21704.64595-.77514zm-1.14204-1.94302q0-.28939-.05168-.62012-.04651-.33073-.15503-.55294-.11886-.23771-.32556-.38757-.2067-.14986-.53227-.14986-.5426 0-.90433.45475-.35657.44959-.38757 1.25574z"/><path d="M63.20599 106.46053h-3.05407v-.3669q.40308-.0258.66663-.10335.26871-.0775.26871-.1912 0-.0465-.01034-.11369-.01033-.0672-.031-.11886l-.60979-1.6433h-2.5683q-.1447.36173-.23771.63045-.08785.26872-.1602.49609-.06718.22221-.09302.36173-.02584.13953-.02584.22738 0 .20671.32556.32039.32556.11369.7338.13436v.3669h-2.7595v-.3669q.13435-.0103.33589-.0568.20154-.0517.33073-.13436.2067-.13953.32039-.28939.11369-.15503.2222-.42374.55294-1.37976 1.21957-3.10058.66662-1.72082 1.18855-3.0644h.41341l2.44429 6.32517q.07751.20154.1757.32556.09819.12403.27388.24288.11886.0724.31006.12403.1912.0465.3204.0517zm-2.95588-2.99722l-1.11104-2.8422-1.09037 2.8422z"/><path d="M66.48227 106.23833q-.3359.13952-.63562.23254-.29972.0982-.7338.0982-.6408 0-.90434-.32039-.25838-.32556-.25838-.91467v-3.45197h-.91984v-.4961h.9405v-1.58646h.94052v1.58646h1.46244v.4961h-1.4521v2.84736q0 .32039.02066.53743.02584.21187.11369.37207.08268.14986.24805.22738.16536.0775.44441.0775.1292 0 .37724-.0207.25321-.0258.35657-.062z"/><path d="M75.71681 106.46053H73.2312v-.34106q.11885-.0103.2377-.0207.12403-.0103.21705-.0413.14469-.0465.21187-.1602.07235-.11885.07235-.30489v-2.63032q0-.53743-.24805-.82682-.24288-.29456-.60978-.29456-.25321 0-.47542.0775-.2222.0775-.40824.21704-.14986.11369-.25321.24805-.0982.12919-.14987.21704v2.94038q0 .18086.06201.29972.06201.11369.21188.1757.11885.0465.21187.0723.09819.0207.25321.031v.34106h-2.43395v-.34106q.11886-.0103.22738-.0207.11368-.0103.2067-.0413.1447-.0465.21187-.1602.07235-.11885.07235-.30489V102.962q0-.53743-.24804-.82682-.24288-.29456-.60978-.29456-.25322 0-.47542.0827-.22221.0775-.40825.21704-.14986.11368-.25321.25838-.10335.13952-.15503.21187v2.91971q0 .1757.07235.29456.07235.11885.21704.18086.10852.0517.22221.0775.11369.0258.25321.0362v.34106H66.9887v-.34106q.11886-.0103.24288-.0207.12919-.0103.2222-.0413.1447-.0465.21188-.1602.07235-.11885.07235-.30489v-3.16775q0-.16537-.07751-.29456-.07235-.13436-.2067-.22737-.09819-.062-.24288-.0982-.1447-.0413-.29973-.0517v-.3359l1.70532-.11369.07235.0724v.72863h.03617q.12919-.12919.31522-.30489.18604-.1757.34624-.28422.18086-.12402.44958-.2067.27388-.0827.5891-.0827.4961 0 .85267.26871.35656.26355.5116.64079.18603-.18087.32555-.31523.1447-.13952.37724-.29455.19637-.13436.45992-.21704.26871-.0827.59427-.0827.64596 0 1.0232.42374.37723.42375.37723 1.30224v2.58899q0 .18086.06201.29972.06201.11369.21187.1757.11886.0465.23255.0723.11885.0207.26355.031z"/><path d="M81.27718 103.86122q0 .53743-.17053 1.05936-.17053.51676-.48576.8785-.35656.41341-.82682.61494-.47025.20154-1.0542.20154-.48575 0-.925-.18086-.43925-.18604-.78031-.53744-.3359-.34623-.53743-.84232-.19637-.50126-.19637-1.12138 0-1.19372.69246-1.95336.69763-.75964 1.82417-.75964 1.0697 0 1.76216.72347.69763.7183.69763 1.91719zm-1.0697.0103q0-.38757-.07752-.81648-.0775-.43408-.23254-.73381-.16537-.32039-.43408-.51159-.26872-.19637-.65629-.19637-.3979 0-.68213.19637-.27905.19637-.45475.53743-.16536.31523-.23254.7183-.06718.40308-.06718.78031 0 .4961.0775.91984.08269.41858.25839.74931.1757.33073.43925.52193.26872.18603.66146.18603.64595 0 1.02318-.62528.37724-.62528.37724-1.72599z"/><path d="M85.38027 103.96457q.21188.18603.32557.42891.11368.24288.11368.59428 0 .70796-.53226 1.15755-.5271.44958-1.36942.44958-.44442 0-.82166-.16019-.37207-.1602-.53226-.29456l-.10335.3359h-.38758l-.05168-1.7725h.35657q.04134.20154.1757.47025.13436.26872.32556.48576.20154.22738.48059.38241.28422.15502.63562.15502.49609 0 .7648-.2222.26872-.22738.26872-.64596 0-.21704-.08785-.37207-.08268-.16019-.24804-.27905-.17054-.11885-.41858-.21187-.24805-.0982-.55294-.1912-.24288-.0724-.5426-.19637-.29455-.12919-.50643-.29973-.22737-.18086-.37206-.44441-.1447-.26355-.1447-.62012 0-.62528.46509-1.05936.46508-.43408 1.2454-.43408.29972 0 .60978.0775.31522.0775.5116.18604l.11885-.26872h.37207l.07752 1.63814h-.35657q-.10852-.54777-.47026-.88883-.35656-.34623-.87332-.34623-.42375 0-.66663.21187-.24288.21187-.24288.51159 0 .23255.07751.38758.08268.15503.24288.26355.15503.10335.38757.19637.23772.0879.58395.20153.34106.10852.64078.25322.3049.14469.50126.32039z"/><path d="M91.24553 101.96987q.3049.36173.47025.84232.17054.47542.17054 1.09037 0 .60461-.20154 1.10587-.20154.49609-.53227.84749-.34623.35657-.76997.54777-.42375.1912-.89917.1912-.45992 0-.75447-.10335-.29456-.10335-.4806-.24288h-.04133v1.52962q0 .18603.07235.31006.07235.12402.2222.18086.12403.0465.3514.0879.23255.0465.3824.0517v.34623h-2.84735v-.34623q.1602-.0103.31005-.0258.14986-.0155.26872-.0517.15503-.0517.21704-.18086.06201-.12919.06201-.30489v-5.42084q0-.15503-.07752-.29973-.07751-.14469-.20154-.23254-.09302-.062-.25838-.093-.16536-.0362-.3204-.0465v-.3359l1.73633-.11369.07235.062v.57361l.04134.0103q.26872-.31005.66662-.51676.39791-.2067.79065-.2067.47542 0 .86816.20153.39791.20154.68213.54261zm-.84232 3.66384q.2067-.32039.30489-.74414.09818-.42374.09818-.94567 0-.38241-.08268-.78031-.08268-.39791-.25838-.69246-.1757-.29973-.45992-.48576-.28422-.18604-.68213-.18604-.3824 0-.65112.17054-.26872.16536-.46509.3979v3.01273q.04651.13953.14987.28939.10852.14986.2377.25838.1602.12919.34624.21187.18603.0775.45475.0775.28939 0 .5581-.14986.26872-.15503.44959-.43408z"/><path d="M98.17015 106.46053h-2.50113v-.34106q.11886-.0103.26355-.0207.1447-.0103.23771-.0413.1447-.0465.21188-.1602.07235-.11885.07235-.30489v-2.61998q0-.54261-.25839-.83716-.2532-.29456-.62011-.29456-.26872 0-.50126.0879-.22738.0827-.40824.20671-.1757.12919-.26872.25838-.09302.12919-.1447.21704v2.93005q0 .17569.06719.28938.07235.11369.21704.1757.11368.0517.23254.0775.12402.0258.26872.0362v.34106h-2.50113v-.34106q.11885-.0103.24804-.0207.1292-.0155.21704-.0413.1447-.0465.21704-.1602.07235-.11885.07235-.30489v-5.93243q0-.1757-.08268-.3514-.0775-.1757-.2067-.26355-.09302-.06718-.33073-.09302-.23254-.031-.37724-.04134v-.33073l1.88619-.11885.07235.0775v3.55533h.02067q.17053-.17053.31005-.29972.13953-.13436.3669-.27906.19638-.12402.45992-.2067.26872-.0827.59945-.0827.68213 0 1.04903.43408.3669.42891.3669 1.24023v2.651q0 .18086.062.29455.06719.10852.21705.17053.11886.0465.21187.0723.0982.0207.25322.031z"/><path d="M103.32228 105.26164q-.3204.60978-.85783.97152-.53743.36173-1.23506.36173-.61495 0-1.08004-.21704-.45992-.21704-.75964-.58911t-.44958-.86816q-.1447-.49609-.1447-1.04903 0-.49609.15503-.97151.1602-.48059.4651-.863.29455-.3669.72863-.5891.43924-.22738.98185-.22738.5581 0 .95601.1757.3979.1757.64595.48059.23771.28939.3514.68212.11885.39274.11885.85266v.34107h-3.37446q0 .50126.09302.9095.0982.40824.3049.7183.20153.29972.5271.47542.32555.17053.77513.17053.45992 0 .79065-.21187.3359-.21704.64595-.77514zm-1.14205-1.94302q0-.28939-.0517-.62012-.0465-.33073-.15502-.55294-.11886-.23771-.32556-.38757-.20671-.14986-.53227-.14986-.5426 0-.90433.45475-.35657.44959-.38758 1.25574z"/><path d="M107.81294 102.02154q0 .26355-.12919.47026-.12919.20153-.39791.20153-.28938 0-.44441-.14986-.14986-.14986-.14986-.33073 0-.11368.0155-.2067.0207-.093.0362-.18604-.24288 0-.56844.19637-.32556.19637-.55293.55811v2.96622q0 .18086.0672.29455.0723.11369.2222.17053.1292.0517.33073.0775.20671.0258.35657.0362v.34106h-2.68717v-.34106q.11886-.0103.24288-.0207.12919-.0103.22221-.0413.14469-.0465.21187-.1602.0724-.11885.0724-.30489v-3.14708q0-.1602-.0775-.31523-.0723-.15503-.2067-.24804-.0982-.062-.23254-.0879-.13436-.031-.28939-.0413v-.3359l1.69498-.11369.0724.0724v.7183h.0258q.32039-.41858.71313-.63562.39274-.21704.7183-.21704.32556 0 .5271.21187.2067.21188.2067.56844z"/><path d="M110.72232 106.46053h-2.46496v-.34106q.11885-.0103.24288-.0207.12919-.0103.22221-.0413.14469-.0465.21187-.1602.0723-.11885.0723-.30489v-3.14708q0-.16537-.0775-.29973-.0724-.13952-.2067-.23254-.0982-.062-.28422-.10335-.18604-.0465-.34107-.0568v-.3359l1.79834-.11369.0723.0724v4.15477q0 .18087.0672.29972.0724.11886.22221.1757.11369.0465.22221.0775.10852.0258.24288.0362zm-.65112-7.1675q0 .29456-.19637.51677-.19121.21704-.47543.21704-.26354 0-.45991-.2067-.19121-.21188-.19121-.4806 0-.28422.19121-.49609.19637-.21187.45991-.21187.29456 0 .48059.20154.19121.19637.19121.45992z"/><path d="M113.70404 106.59489q-1.10587 0-1.73116-.7338-.62528-.7338-.62528-1.96887 0-.53743.16537-1.00252.17053-.47025.49092-.85266.30489-.3669.76481-.5891.45992-.22738 1.00252-.22738.7493 0 1.21956.36173.47025.35657.47025.97668 0 .25839-.12402.45992-.12402.19637-.40824.19637-.30489 0-.47542-.15503-.16537-.15502-.16537-.34623 0-.23254.062-.47542.062-.24804.0724-.36173-.093-.1602-.27905-.21187-.18087-.0568-.39274-.0568-.24805 0-.47542.10852-.22221.10335-.43408.38757-.19121.25839-.31006.69763-.11886.43925-.11886 1.04903 0 .96118.42375 1.57096.42891.60461 1.12137.60461.50126 0 .83716-.24288.34106-.24287.63045-.72863l.33073.21704q-.34107.60978-.89917.96635-.5581.35656-1.15238.35656z"/><path d="M125.98232 106.46053h-1.97403q-.65629-1.02835-1.18855-1.77766-.5271-.74931-1.14722-1.54512h-.7493v2.32543q0 .18087.0568.32039.0568.13436.24288.20671.093.0362.32556.0672.23254.031.39274.0362v.3669h-3.10058v-.3669q.12403-.0103.35657-.0362.23771-.0258.33073-.0672.15503-.0672.22221-.19637.0723-.12919.0723-.33073v-5.30198q0-.18087-.0517-.3204-.0517-.13952-.24288-.21187-.12919-.0465-.3359-.08268-.2067-.04134-.3514-.05168v-.3669h3.3848q.46509 0 .87333.09818.40824.09302.73897.30489.32039.2067.51159.5426.19121.33072.19121.80098 0 .42374-.12919.7493-.1292.32556-.38241.56328-.23254.2222-.5581.38757-.32556.1602-.7183.27388.5426.7183.89916 1.20923.36174.49092.88367 1.19372.22737.31006.40824.45992.18604.1447.3669.23771.13436.0672.3359.10335.20154.0362.33589.0413zm-2.71817-5.46735q0-.66662-.3824-1.0542-.38241-.39273-1.08004-.39273h-.87849v3.14708h.67696q.71313 0 1.18855-.45475.47542-.45992.47542-1.2454z"/><path d="M130.95874 106.36752q-.24288.0879-.42891.13952-.18087.0568-.41341.0568-.40308 0-.64596-.18604-.23771-.1912-.30489-.55293h-.031q-.3359.37206-.72347.56843-.3824.19637-.925.19637-.57361 0-.94568-.35139-.3669-.3514-.3669-.91984 0-.29456.0827-.5271.0827-.23254.24805-.41858.12919-.15503.34106-.27388.21187-.12403.39791-.19637.23254-.0878.94051-.32556.71313-.23771.96117-.37207v-.5116q0-.0672-.031-.25838-.0258-.1912-.11886-.36173-.10335-.1912-.29455-.33073-.18604-.14469-.53227-.14469-.23771 0-.44441.0827-.20154.0775-.28422.16536 0 .10335.0465.30489.0517.20154.0517.37207 0 .18087-.16536.33073-.1602.14986-.44959.14986-.25838 0-.3824-.18087-.11885-.18603-.11885-.41341 0-.23771.16536-.45475.17053-.21704.43925-.38757.23254-.14469.56327-.24288.33073-.10335.64595-.10335.43408 0 .75448.062.32556.0568.58911.25321.26354.19121.3979.52194.13953.32556.13953.84232 0 .73897-.0155 1.31258-.0155.56843-.0155 1.24539 0 .20154.0672.3204.0724.11885.21704.20153.0775.0465.24288.0517.17053.005.34623.005zm-1.8035-2.72851q-.43925.12919-.76998.25321-.33072.12403-.61494.31006-.25839.1757-.40825.41858-.14986.23771-.14986.56844 0 .42891.22221.63045.22738.20153.57361.20153.3669 0 .64595-.17569.27905-.18087.47025-.42375z"/><path d="M137.04621 106.36752l-1.77767.11368-.0775-.0723v-.47542l-.0413-.0103q-.26872.29972-.66663.49092-.39273.19121-.81131.19121-.43408 0-.84233-.19121-.40307-.19637-.70279-.54776-.30489-.35657-.48576-.85783-.1757-.50126-.1757-1.10587 0-.55294.1912-1.04903.19121-.49609.5271-.86816.31523-.34623.76998-.55294.45992-.2067.93534-.2067.35656 0 .69763.093.34623.0878.59427.22738v-1.7725q0-.21704-.0723-.39274-.0724-.18086-.20154-.27388-.14469-.09819-.39274-.13953-.24288-.0465-.5271-.06718v-.32039l2.08256-.11885.0775.0775v6.87295q0 .18087.0672.31006.0724.12403.2067.21188.0982.062.28422.0775.18604.0155.34107.0207zm-1.86552-.894v-2.98172q-.0413-.13436-.13435-.28939-.093-.15503-.23255-.28422-.14986-.12919-.3514-.21187-.20153-.0879-.47025-.0879-.31006 0-.57361.16019-.25838.1602-.45992.45992-.1912.28939-.30489.73897-.10852.44442-.10852.98702 0 .43408.0827.79065.0827.35139.27905.65628.18087.28939.45992.46509.28422.1757.67179.1757.41341 0 .68213-.18087.27388-.18086.45991-.3979z"/><path d="M140.0176 106.46053h-2.46496v-.34106q.11885-.0103.24288-.0207.12919-.0103.22221-.0413.14469-.0465.21187-.1602.0723-.11885.0723-.30489v-3.14708q0-.16537-.0775-.29973-.0724-.13952-.2067-.23254-.0982-.062-.28422-.10335-.18604-.0465-.34107-.0568v-.3359l1.79834-.11369.0723.0724v4.15477q0 .18087.0672.29972.0724.11886.22221.1757.11369.0465.22221.0775.10852.0258.24288.0362zm-.65112-7.1675q0 .29456-.19637.51677-.19121.21704-.47543.21704-.26354 0-.45991-.2067-.19121-.21188-.19121-.4806 0-.28422.19121-.49609.19637-.21187.45991-.21187.29456 0 .48059.20154.19121.19637.19121.45992z"/><path d="M145.46944 106.36752q-.24288.0879-.42892.13952-.18086.0568-.41341.0568-.40307 0-.64595-.18604-.23771-.1912-.30489-.55293h-.031q-.3359.37206-.72347.56843-.38241.19637-.92501.19637-.5736 0-.94567-.35139-.3669-.3514-.3669-.91984 0-.29456.0827-.5271.0827-.23254.24804-.41858.12919-.15503.34107-.27388.21187-.12403.3979-.19637.23255-.0878.94051-.32556.71313-.23771.96118-.37207v-.5116q0-.0672-.031-.25838-.0258-.1912-.11886-.36173-.10335-.1912-.29456-.33073-.18603-.14469-.53226-.14469-.23771 0-.44442.0827-.20153.0775-.28422.16536 0 .10335.0465.30489.0517.20154.0517.37207 0 .18087-.16537.33073-.16019.14986-.44958.14986-.25838 0-.3824-.18087-.11886-.18603-.11886-.41341 0-.23771.16537-.45475.17053-.21704.43924-.38757.23255-.14469.56328-.24288.33072-.10335.64595-.10335.43408 0 .75447.062.32556.0568.58911.25321.26355.19121.39791.52194.13952.32556.13952.84232 0 .73897-.0155 1.31258-.0155.56843-.0155 1.24539 0 .20154.0672.3204.0723.11885.21704.20153.0775.0465.24288.0517.17053.005.34623.005zm-1.8035-2.72851q-.43925.12919-.76998.25321-.33073.12403-.61495.31006-.25838.1757-.40824.41858-.14986.23771-.14986.56844 0 .42891.22221.63045.22737.20153.5736.20153.3669 0 .64596-.17569.27905-.18087.47025-.42375z"/><path d="M149.12295 106.23833q-.33589.13952-.63562.23254-.29972.0982-.7338.0982-.64079 0-.90433-.32039-.25839-.32556-.25839-.91467v-3.45197h-.91983v-.4961h.94051v-1.58646h.9405v1.58646h1.46244v.4961h-1.4521v2.84736q0 .32039.0207.53743.0258.21187.11369.37207.0827.14986.24804.22738.16537.0775.44442.0775.12919 0 .37724-.0207.25321-.0258.35656-.062z"/><path d="M152.10467 106.46053h-2.46496v-.34106q.11886-.0103.24288-.0207.12919-.0103.22221-.0413.14469-.0465.21187-.1602.0724-.11885.0724-.30489v-3.14708q0-.16537-.0775-.29973-.0723-.13952-.2067-.23254-.0982-.062-.28422-.10335-.18603-.0465-.34106-.0568v-.3359l1.79833-.11369.0724.0724v4.15477q0 .18087.0672.29972.0723.11886.2222.1757.11369.0465.22221.0775.10852.0258.24288.0362zm-.65112-7.1675q0 .29456-.19637.51677-.1912.21704-.47542.21704-.26355 0-.45992-.2067-.1912-.21188-.1912-.4806 0-.28422.1912-.49609.19637-.21187.45992-.21187.29455 0 .48059.20154.1912.19637.1912.45992z"/><path d="M157.76322 101.68048q-.23254.0413-.44441.17053-.20671.12402-.35657.44442-.30489.69246-.63045 1.44693-.32556.74931-.67696 1.57613-.10335.23771-.2222.56327-.11369.32556-.21188.62528h-.40307q-.49093-1.21439-.90434-2.21174-.41341-1.00252-.85782-2.05155-.10336-.23771-.3359-.3669-.22737-.13436-.45992-.17053v-.34107h2.35644v.36174q-.15503.005-.38757.0672-.23255.0568-.23255.16019 0 .0155.0258.0827.0258.062.0517.1447.21187.5271.59944 1.47277.38758.94568.63045 1.52445.18604-.44441.46509-1.10587.28422-.66146.60978-1.47794.0517-.13953.0982-.25838.0465-.12403.0465-.24805 0-.0878-.0879-.15503-.0827-.0723-.20153-.12402-.11886-.0517-.23255-.0775-.11368-.0258-.18603-.0362v-.33073h1.94819z"/><path d="M162.51228 105.26164q-.3204.60978-.85783.97152-.53743.36173-1.23506.36173-.61495 0-1.08004-.21704-.45992-.21704-.75964-.58911t-.44958-.86816q-.1447-.49609-.1447-1.04903 0-.49609.15503-.97151.1602-.48059.46509-.863.29455-.3669.72863-.5891.43925-.22738.98185-.22738.55811 0 .95601.1757.39791.1757.64596.48059.23771.28939.3514.68212.11885.39274.11885.85266v.34107h-3.37446q0 .50126.093.9095.0982.40824.30489.7183.20154.29972.5271.47542.32556.17053.77514.17053.45992 0 .79065-.21187.33589-.21704.64595-.77514zm-1.14205-1.94302q0-.28939-.0517-.62012-.0465-.33073-.15503-.55294-.11885-.23771-.32556-.38757-.2067-.14986-.53226-.14986-.5426 0-.90434.45475-.35656.44959-.38757 1.25574z"/><path d="M41.95154 114.34633h-.35657q-.0465-.18603-.17053-.43925-.11885-.25838-.26871-.48575-.15503-.23771-.34107-.41341-.18086-.18087-.3514-.20671-.1602-.0207-.40307-.031-.24288-.0103-.44958-.0103h-.29973v5.86526q0 .17053.07235.31522.07235.13953.25322.21704.09302.0362.38757.0982.29972.062.46508.0672v.3669h-3.4623v-.3669q.14469-.0103.43924-.0413.29973-.031.41341-.0775.17053-.0672.24805-.1912.08268-.12919.08268-.34106V112.76h-.29972q-.1602 0-.39791.0103-.23771.005-.45475.031-.17053.0207-.35657.20671-.18086.18086-.3359.41341-.15502.23254-.27388.49609-.11885.25838-.16536.42891h-.36174v-1.98953h6.3872z"/><path d="M46.30785 115.25067q0 .26355-.1292.47025-.12918.20154-.3979.20154-.28938 0-.44441-.14986-.14986-.14986-.14986-.33073 0-.11369.0155-.20671.02067-.093.03617-.18603-.24288 0-.56844.19637-.32556.19637-.55294.5581v2.96622q0 .18087.06718.29455.07235.11369.2222.17054.1292.0517.33074.0775.2067.0258.35656.0362v.34107H42.4063v-.34107q.11885-.0103.24288-.0207.12919-.0103.2222-.0413.1447-.0465.21188-.16019.07235-.11886.07235-.30489v-3.14709q0-.16019-.07751-.31522-.07235-.15503-.2067-.24805-.0982-.062-.23255-.0879-.13436-.031-.28939-.0413v-.3359l1.69498-.11368.07235.0723v.7183h.02584q.3204-.41857.71314-.63562.39273-.21704.7183-.21704.32556 0 .5271.21188.2067.21187.2067.56844z"/><path d="M51.5685 119.59664q-.24288.0879-.42892.13953-.18087.0568-.4134.0568-.40308 0-.64596-.18603-.23771-.19121-.3049-.55294h-.031q-.3359.37207-.72347.56844-.3824.19637-.925.19637-.57361 0-.94568-.3514-.3669-.3514-.3669-.91984 0-.29455.08268-.5271.08268-.23254.24804-.41857.1292-.15503.34107-.27389.21187-.12402.3979-.19637.23255-.0879.94051-.32556.71314-.23771.96118-.37207v-.51159q0-.0672-.031-.25838-.02585-.19121-.11886-.36174-.10336-.1912-.29456-.33073-.18603-.14469-.53226-.14469-.23772 0-.44442.0827-.20154.0775-.28422.16537 0 .10335.04651.30489.05168.20153.05168.37207 0 .18086-.16536.33072-.1602.14987-.44959.14987-.25838 0-.3824-.18087-.11886-.18604-.11886-.41341 0-.23771.16537-.45475.17053-.21704.43925-.38757.23254-.1447.56327-.24288.33073-.10336.64595-.10336.43408 0 .75447.062.32556.0568.58911.25321.26355.1912.39791.52193.13953.32556.13953.84232 0 .73897-.0155 1.31258-.0155.56844-.0155 1.2454 0 .20154.06718.32039.07235.11886.21704.20154.0775.0465.24287.0517.17054.005.34624.005zm-1.8035-2.72851q-.43926.12919-.76998.25322-.33073.12402-.61495.31005-.25838.1757-.40824.41858-.14986.23771-.14986.56844 0 .42891.2222.63045.22738.20154.5736.20154.36691 0 .64596-.1757.27905-.18087.47026-.42375z"/><path d="M57.70247 119.68966H55.2065v-.34107q.11886-.0103.25838-.0207.1447-.0103.23771-.0413.1447-.0465.21188-.16019.07235-.11886.07235-.30489v-2.61999q0-.5426-.25838-.83716-.25322-.29455-.62012-.29455-.27388 0-.50126.0879-.22737.0827-.40307.2067-.17054.11886-.27389.25839-.09819.13435-.1447.21704v2.93004q0 .1757.07236.28939.07235.11369.21704.1757.10852.0517.23254.0775.1292.0258.26355.0362v.34107h-2.49596v-.34107q.11885-.0103.24288-.0207.12919-.0103.2222-.0413.1447-.0465.21188-.16019.07235-.11886.07235-.30489v-3.14709q0-.1757-.07751-.32039-.07235-.14986-.2067-.24288-.0982-.062-.23255-.0879-.13436-.031-.28939-.0413v-.3359l1.69498-.11368.07235.0723v.7183h.02584q.12403-.12402.31006-.29455.18603-.1757.3514-.28422.1912-.12402.45475-.20671.26355-.0827.59428-.0827.7338 0 1.0852.45992.35656.45475.35656 1.21439v2.651q0 .18086.06201.29455.06201.10852.21188.17053.12402.0517.21187.0724.09302.0207.25321.031z"/><path d="M61.69188 117.19369q.21187.18604.32556.42892.11368.24288.11368.59427 0 .70797-.53226 1.15755-.5271.44959-1.36942.44959-.44442 0-.82166-.1602-.37206-.1602-.53226-.29456l-.10335.3359h-.38758l-.05168-1.7725h.35657q.04134.20154.1757.47026.13436.26872.32556.48576.20154.22737.48059.3824.28422.15503.63562.15503.49609 0 .7648-.22221.26872-.22737.26872-.64595 0-.21704-.08785-.37207-.08268-.1602-.24804-.27905-.17054-.11886-.41858-.21188-.24805-.0982-.55294-.1912-.24288-.0724-.5426-.19637-.29455-.12919-.50643-.29972-.22737-.18087-.37207-.44442-.14469-.26355-.14469-.62011 0-.62528.46509-1.05937.46508-.43408 1.2454-.43408.29972 0 .60978.0775.31522.0775.51159.18603l.11886-.26871h.37207l.0775 1.63813H61.511q-.10852-.54776-.47025-.88883-.35657-.34623-.87333-.34623-.42375 0-.66663.21187-.24288.21188-.24288.5116 0 .23254.07751.38757.08268.15503.24288.26355.15503.10335.38758.19637.2377.0879.58394.20154.34106.10852.64078.25321.3049.14469.50126.32039z"/><path d="M66.69414 112.30512q0 .23254-.12403.39274-.12402.1602-.37723.1602-.1602 0-.28422-.0672-.11886-.0672-.22221-.18087-.10335-.11369-.1912-.25838-.08785-.1447-.14986-.23255-.34623.0155-.53744.48576-.18603.46509-.18603 1.48828v.52193h1.31258v.49609h-1.31258v3.65868q0 .18087.06718.29455.07235.11369.2222.17054.12403.0465.33074.0775.2067.0258.35656.0362v.34107h-2.68717v-.34107q.11886-.0103.24288-.0207.1292-.0103.22221-.0413.1447-.0465.21187-.16019.07235-.11886.07235-.30489v-3.71036h-1.00768v-.49609h1.00768v-.32556q0-1.16272.59945-1.88102.60461-.72347 1.50895-.72347.45992 0 .69246.18087.23254.18087.23254.43925z"/><path d="M70.86958 118.49077q-.3204.60978-.85783.97151-.53743.36174-1.23506.36174-.61495 0-1.08003-.21704-.45992-.21704-.75964-.58911-.29973-.37207-.44959-.86817-.1447-.49609-.1447-1.04902 0-.4961.15504-.97152.1602-.48059.46508-.86299.29456-.3669.72864-.58911.43925-.22738.98185-.22738.5581 0 .956.1757.39792.1757.64596.48059.23771.28939.3514.68213.11886.39274.11886.85266v.34106H67.3711q0 .50126.09302.9095.09819.40825.30489.7183.20153.29973.5271.47543.32555.17053.77514.17053.45992 0 .79064-.21188.3359-.21704.64596-.77514zm-1.14205-1.94303q0-.28939-.05168-.62011-.0465-.33073-.15503-.55294-.11885-.23771-.32556-.38757-.2067-.14986-.53226-.14986-.5426 0-.90434.45475-.35656.44958-.38757 1.25573z"/><path d="M75.36025 115.25067q0 .26355-.1292.47025-.12918.20154-.3979.20154-.28939 0-.44442-.14986-.14986-.14986-.14986-.33073 0-.11369.0155-.20671.02067-.093.03617-.18603-.24288 0-.56844.19637-.32556.19637-.55293.5581v2.96622q0 .18087.06718.29455.07235.11369.2222.17054.1292.0517.33073.0775.2067.0258.35657.0362v.34107h-2.68717v-.34107q.11886-.0103.24288-.0207.1292-.0103.22221-.0413.1447-.0465.21187-.16019.07235-.11886.07235-.30489v-3.14709q0-.16019-.0775-.31522-.07236-.15503-.20671-.24805-.0982-.062-.23254-.0879-.13436-.031-.2894-.0413v-.3359l1.69499-.11368.07235.0723v.7183h.02584q.3204-.41857.71313-.63562.39274-.21704.7183-.21704.32556 0 .5271.21188.2067.21187.2067.56844z"/><path d="M83.0445 116.32553q.23255.25838.34107.56844.11369.30489.11369.71313 0 .97152-.7183 1.60197-.7183.63045-1.78283.63045-.49093 0-.98185-.14986-.49092-.15503-.8475-.37207l-.2222.37724h-.4134l-.07236-2.51147h.41858q.12919.46509.29972.84232.1757.37207.45992.69763.26872.30489.62528.48576.36174.18087.83716.18087.35657 0 .62011-.093.26872-.093.43408-.26355.16537-.17053.24288-.39791.08268-.23254.08268-.53226 0-.43925-.24804-.81649-.24805-.3824-.73897-.57877-.3359-.13436-.76998-.29456-.43408-.16536-.7493-.31006-.62012-.27905-.96635-.72863-.34107-.45475-.34107-1.18339 0-.41857.17054-.78031.17053-.36173.48575-.64595.29972-.26872.70797-.41858.40824-.15503.85266-.15503.50642 0 .90433.15503.40308.15503.7338.36173l.21188-.35139h.4134l.04135 2.43395h-.41858q-.11369-.41858-.25838-.80098-.13953-.38241-.3669-.69247-.22221-.29972-.5426-.47542-.3204-.18087-.78548-.18087-.49093 0-.83716.31523-.34623.31523-.34623.76998 0 .47542.2222.79064.22221.31006.64596.5116.37724.18087.73897.31522.3669.12919.70797.27906.31005.13435.59427.30489.28939.17053.50126.3979z"/><path d="M86.76003 119.68966h-2.46496v-.34107q.11886-.0103.24288-.0207.1292-.0103.22221-.0413.1447-.0465.21187-.16019.07235-.11886.07235-.30489v-3.14709q0-.16536-.0775-.29972-.07236-.13953-.20671-.23254-.0982-.062-.28422-.10336-.18604-.0465-.34106-.0568v-.3359l1.79833-.11368.07235.0723v4.15477q0 .18087.06718.29973.07235.11885.2222.1757.1137.0465.22222.0775.10852.0258.24287.0362zm-.65112-7.1675q0 .29455-.19637.51676-.1912.21704-.47542.21704-.26355 0-.45992-.2067-.1912-.21188-.1912-.48059 0-.28422.1912-.49609.19637-.21188.45992-.21188.29456 0 .48059.20154.1912.19637.1912.45992z"/><path d="M96.11343 119.68966h-2.48562v-.34107q.11885-.0103.2377-.0207.12403-.0103.21705-.0413.1447-.0465.21187-.16019.07235-.11886.07235-.30489v-2.63033q0-.53743-.24805-.82682-.24287-.29455-.60978-.29455-.2532 0-.47542.0775-.2222.0775-.40824.21704-.14986.11369-.25321.24805-.0982.12919-.14987.21704v2.94038q0 .18087.06201.29972.06201.11369.21188.1757.11885.0465.21187.0724.09819.0207.25321.031v.34107h-2.43395v-.34107q.11886-.0103.22738-.0207.11368-.0103.2067-.0413.1447-.0465.21187-.16019.07235-.11886.07235-.30489v-2.63033q0-.53743-.24804-.82682-.24288-.29455-.60978-.29455-.25322 0-.47542.0827-.22221.0775-.40825.21704-.14986.11369-.2532.25838-.10336.13953-.15504.21188v2.9197q0 .1757.07235.29456t.21704.18087q.10852.0517.22221.0775.11369.0258.25321.0362v.34107h-2.47529v-.34107q.11886-.0103.24288-.0207.12919-.0103.2222-.0413.1447-.0465.21188-.16019.07235-.11886.07235-.30489v-3.16776q0-.16536-.07751-.29455-.07235-.13436-.2067-.22738-.09819-.062-.24288-.0982-.1447-.0414-.29973-.0517v-.3359l1.70532-.11368.07235.0723v.72864h.03617q.1292-.12919.31523-.30489t.34623-.28422q.18086-.12402.44958-.20671.27388-.0827.58911-.0827.4961 0 .85266.26872.35656.26355.5116.64078.18603-.18086.32555-.31522.1447-.13953.37724-.29456.19637-.13435.45992-.21704.26872-.0827.59428-.0827.64595 0 1.02319.42375.37723.42374.37723 1.30224v2.58898q0 .18087.06201.29972.06201.11369.21188.1757.11885.0465.23254.0724.11885.0207.26355.031z"/><path d="M102.16989 119.59664l-1.6588.11369-.0775-.0724v-.64595h-.031q-.12403.12919-.27906.27905-.15503.14469-.35656.26355-.23255.13952-.44959.21187-.21704.0724-.61494.0724-.67696 0-1.03353-.43925-.3514-.44442-.3514-1.28674v-2.43912q0-.18603-.07235-.31006-.06718-.12919-.20153-.2222-.09302-.062-.23255-.0879-.13952-.031-.29455-.0414v-.33589l1.70015-.12402.0775.0723v3.53983q0 .55293.24805.83199.24805.27905.59428.27905.28422 0 .50643-.0878.2222-.0879.37206-.20671.13953-.10852.24288-.22737.10852-.12403.16537-.22738v-2.8887q0-.17053-.0724-.29972-.0724-.13436-.20154-.22738-.093-.062-.27905-.0724-.18086-.0155-.40824-.0258v-.33589l1.85001-.12402.0775.0723v4.04625q0 .1757.0724.29973.0724.12402.20154.21187.093.0568.2222.0775.1292.0155.28422.0207z"/><path d="M105.18262 119.68966H102.697v-.34107q.11885-.0103.25321-.0207.13436-.0155.22221-.0413.14469-.0465.21704-.16019.0723-.11886.0723-.30489v-5.90143q0-.18604-.0827-.34623-.0775-.16537-.2067-.25839-.093-.062-.34107-.11368-.24804-.0517-.3979-.062v-.33072l1.91719-.11886.0723.0775v6.99179q0 .18087.0672.29973.0672.11369.21704.1757.11369.0517.22221.0775.11369.0258.25321.0362z"/><path d="M110.64997 119.59664q-.24288.0879-.42891.13953-.18087.0568-.41341.0568-.40308 0-.64595-.18603-.23772-.19121-.30489-.55294h-.031q-.3359.37207-.72347.56844-.3824.19637-.925.19637-.57361 0-.94568-.3514-.3669-.3514-.3669-.91984 0-.29455.0827-.5271.0827-.23254.24805-.41857.12919-.15503.34106-.27389.21187-.12402.39791-.19637.23254-.0879.94051-.32556.71313-.23771.96118-.37207v-.51159q0-.0672-.031-.25838-.0258-.19121-.11886-.36174-.10335-.1912-.29455-.33073-.18604-.14469-.53227-.14469-.23771 0-.44441.0827-.20154.0775-.28422.16537 0 .10335.0465.30489.0517.20153.0517.37207 0 .18086-.16536.33072-.1602.14987-.44958.14987-.25839 0-.38241-.18087-.11885-.18604-.11885-.41341 0-.23771.16536-.45475.17053-.21704.43925-.38757.23254-.1447.56327-.24288.33073-.10336.64595-.10336.43408 0 .75448.062.32556.0568.58911.25321.26354.1912.3979.52193.13953.32556.13953.84232 0 .73897-.0155 1.31258-.0155.56844-.0155 1.2454 0 .20154.0672.32039.0724.11886.21704.20154.0775.0465.24288.0517.17053.005.34623.005zm-1.8035-2.72851q-.43925.12919-.76998.25322-.33072.12402-.61494.31005-.25838.1757-.40825.41858-.14986.23771-.14986.56844 0 .42891.22221.63045.22738.20154.57361.20154.3669 0 .64595-.1757.27905-.18087.47025-.42375z"/><path d="M114.30349 119.46745q-.3359.13953-.63562.23254-.29972.0982-.7338.0982-.64079 0-.90434-.3204-.25838-.32556-.25838-.91466v-3.45198h-.91984v-.49609h.94051v-1.58646h.94051v1.58646h1.46244v.49609h-1.45211v2.84736q0 .3204.0207.53744.0258.21187.11369.37207.0827.14986.24805.22737.16536.0775.44441.0775.12919 0 .37724-.0207.25321-.0258.35657-.062z"/><path d="M119.776 117.09034q0 .53743-.17053 1.05936-.17053.51677-.48576.8785-.35656.41341-.82682.61495-.47025.20154-1.05419.20154-.48576 0-.92501-.18087-.43925-.18604-.78031-.53743-.3359-.34623-.53743-.84233-.19637-.50126-.19637-1.12137 0-1.19372.69246-1.95336.69763-.75965 1.82417-.75965 1.0697 0 1.76216.72347.69763.7183.69763 1.91719zm-1.0697.0103q0-.38758-.0775-.81649-.0775-.43408-.23254-.7338-.16537-.32039-.43409-.5116-.26871-.19637-.65628-.19637-.39791 0-.68213.19637-.27905.19637-.45475.53744-.16537.31522-.23254.7183-.0672.40307-.0672.78031 0 .49609.0775.91984.0827.41857.25838.7493.1757.33073.43925.52193.26872.18604.66146.18604.64595 0 1.02319-.62529.37723-.62528.37723-1.72598z"/><path d="M124.41653 115.25067q0 .26355-.12919.47025-.1292.20154-.39791.20154-.28939 0-.44442-.14986-.14986-.14986-.14986-.33073 0-.11369.0155-.20671.0207-.093.0362-.18603-.24288 0-.56844.19637-.32556.19637-.55294.5581v2.96622q0 .18087.0672.29455.0724.11369.22221.17054.12919.0517.33073.0775.2067.0258.35656.0362v.34107h-2.68716v-.34107q.11885-.0103.24288-.0207.12919-.0103.2222-.0413.1447-.0465.21188-.16019.0723-.11886.0723-.30489v-3.14709q0-.16019-.0775-.31522-.0724-.15503-.20671-.24805-.0982-.062-.23254-.0879-.13436-.031-.28939-.0413v-.3359l1.69499-.11368.0723.0723v.7183h.0258q.32039-.41857.71313-.63562.39274-.21704.7183-.21704.32556 0 .5271.21188.20671.21187.20671.56844z"/></g></svg>