<svg xmlns="http://www.w3.org/2000/svg" role="img" viewBox="-5.54 113.71 197.83 301.08"><title>Autobidder logo</title><path fill="#E82127" d="M159.582 345.765v14.644h4.695v-9.75h17.094v9.75h4.693V345.79l-26.482-.025"/><path fill="#E82127" d="M163.75389 341.02734h18.05957c2.50781-.49805 4.37305-2.71191 4.89941-4.85352h-27.85742c.52051 2.14258 2.41309 4.35547 4.89844 4.85352"/><path fill="#E82127" d="M145.35839 360.41894c2.36719-1.00391 3.6416-2.74023 4.12988-4.77246h-21.06494l.0127-19.45996-4.72119.0127v24.21973h21.64355"/><path fill="#E82127" d="M88.60106 340.96191h16.67822c2.51416-.73047 4.62549-2.64551 5.14014-4.76953H83.92626v14.31348h21.68311v5.02148l-17.0083.01367c-2.66553.74316-4.92578 2.5332-6.05322 4.89746l1.37842-.02539h26.34277v-14.66602H88.60107v-4.78515"/><path fill="#E82127" d="M47.42919 341.00781h18.05273c2.51172-.5 4.37842-2.71191 4.90186-4.85547H42.52782c.52002 2.14356 2.41406 4.35547 4.90137 4.85547"/><path fill="#E82127" d="M47.42919 350.58008h18.05273c2.51172-.49512 4.37842-2.70898 4.90186-4.85352H42.52782c.52002 2.14551 2.41406 4.3584 4.90137 4.85352"/><path fill="#E82127" d="M47.42919 360.41601h18.05273c2.51172-.49902 4.37842-2.71191 4.90186-4.85449H42.52782c.52002 2.14258 2.41406 4.35547 4.90137 4.85449"/><g><path fill="#E82127" d="M.46434 336.21191c.54297 2.11621 2.37549 4.2793 4.88965 4.82227h7.59912l.3877.15234v19.17578h4.74512v-19.17578l.43115-.15234h7.60547c2.54248-.65527 4.33545-2.70605 4.86865-4.82227v-.04688H.46434v.04688"/></g><g><path fill="#E82127" d="M93.59765 288.2998l23.71045-133.34668c22.6001 0 29.729 2.47803 30.7583 12.59375 0 0 15.16016-5.65283 22.80762-17.13379-29.83984-13.82666-59.82129-14.4502-59.82129-14.4502L93.5581 157.27099l.03955-.00244-17.49463-21.30908s-29.98145.62451-59.81641 14.45117c7.63965 11.48096 22.80664 17.1333 22.80664 17.1333 1.03516-10.11572 8.15527-12.59424 30.60303-12.61035L93.59765 288.2998"/><path fill="#E82127" d="M93.58837 129.8081c24.12012-.18457 51.729 3.73145 79.99268 16.0498 3.77734-6.79932 4.74805-9.8042 4.74805-9.8042-30.89551-12.22314-59.82959-16.40625-84.74414-16.51123-24.91357.10498-53.84521 4.28857-84.73682 16.51123 0 0 1.37793 3.70166 4.74512 9.8042 28.25732-12.31836 55.87109-16.23438 79.9917-16.0498h.00341"/></g><g><path d="M36.36572 391.44531h4.08398l6.11133 17.27344h-3.91406l-1.13965-3.55078H35.146l-1.1709 3.55078h-3.77539l6.16601-17.27344zm-.23779 10.7461h4.42383l-2.18213-6.79688-2.2417 6.79688zm15.68896-6.2461v7.69922c0 .72656.08545 1.27344.25635 1.64062.30322.64844.89795.97266 1.78418.97266 1.13477 0 1.9126-.46094 2.33203-1.38281.21777-.5.32666-1.16016.32666-1.98047v-6.94922h3.38672v12.77344h-3.24609v-1.80469c-.03125.03906-.10938.15625-.2334.35156-.125.19531-.27295.36719-.44434.51562-.52197.46875-1.02637.78906-1.51318.96094-.4873.17188-1.05762.25782-1.7124.25782-1.88477 0-3.15479-.67969-3.80908-2.03906-.36621-.75-.54932-1.85547-.54932-3.31641v-7.69922h3.42187zm10.01954 2.4961v-2.37891h1.78125V392.5h3.30469v3.5625h2.07422v2.37891h-2.07422v6.75c0 .52344.06641.84961.19922.97852s.53906.19336 1.21875.19336c.10156 0 .20898-.00195.32227-.00586s.22461-.00977.33398-.01758v2.49609l-1.58203.05859c-1.57812.05469-2.65625-.21875-3.23438-.82031-.375-.38281-.5625-.97266-.5625-1.76953v-7.86328h-1.78125zm19.95703 8.71484c-1.07812 1.33105-2.71484 1.99609-4.91016 1.99609s-3.83203-.66504-4.91016-1.99609-1.61719-2.93359-1.61719-4.80664c0-1.8418.53906-3.43848 1.61719-4.78906 1.07812-1.34961 2.71484-2.02539 4.91016-2.02539s3.83203.67578 4.91016 2.02539c1.07812 1.35059 1.61719 2.94727 1.61719 4.78906-.00001 1.87305-.53907 3.47559-1.61719 4.80664zm-2.67188-1.8457c.52344-.69434.78516-1.68164.78516-2.96094s-.26172-2.26465-.78516-2.95508c-.52344-.68945-1.27344-1.03516-2.25-1.03516s-1.72852.3457-2.25586 1.03516c-.52734.69043-.79102 1.67578-.79102 2.95508s.26367 2.2666.79102 2.96094 1.2793 1.04102 2.25586 1.04102 1.72656-.34669 2.25-1.04102zm17.58643-7.83008c.95557 1.21094 1.43311 2.77344 1.43311 4.6875 0 1.98438-.47119 3.62891-1.41357 4.93359s-2.25781 1.95703-3.9458 1.95703c-1.06055 0-1.91211-.21094-2.55615-.63281-.38477-.25-.80127-.6875-1.24854-1.3125v1.60547h-3.29297v-17.25h3.33984v6.14062c.42432-.59375.89209-1.04688 1.40332-1.35938.60547-.39062 1.37598-.58594 2.31201-.58594 1.69043.00001 3.01318.60548 3.96875 1.81642zm-2.79151 7.78125c.48047-.69531.7207-1.60938.7207-2.74219 0-.90625-.11816-1.65625-.35449-2.25-.44922-1.125-1.27588-1.6875-2.48145-1.6875-1.2207 0-2.05957.55078-2.5166 1.65234-.23633.58594-.35449 1.34375-.35449 2.27344 0 1.09375.24414 2 .73242 2.71875s1.23291 1.07812 2.2334 1.07812c.86622.00001 1.54005-.34765 2.02051-1.04296zm9.97852-10.83984h-3.38672v-3.08203h3.38672v3.08203zm-3.38672 1.52343h3.38672v12.77344h-3.38672v-12.77344zm13.39453.20508c.60156.33984 1.08984.81055 1.46484 1.41211v-6.09375h3.38672v17.25h-3.24609v-1.76953c-.47656.75781-1.01953 1.30859-1.62891 1.65234s-1.36719.51562-2.27344.51562c-1.49219 0-2.74805-.60352-3.76758-1.81055s-1.5293-2.75586-1.5293-4.64648c0-2.17969.50195-3.89453 1.50586-5.14453s2.3457-1.875 4.02539-1.875c.77345 0 1.46095.16993 2.06251.50977zm.82031 9.09961c.49219-.70312.73828-1.61328.73828-2.73047 0-1.5625-.39453-2.67969-1.18359-3.35156-.48438-.40625-1.04688-.60938-1.6875-.60938-.97656 0-1.69336.36914-2.15039 1.10742s-.68555 1.6543-.68555 2.74805c0 1.17969.23242 2.12305.69727 2.83008s1.16992 1.06055 2.11523 1.06055 1.66407-.35157 2.15625-1.05469zm13.83985-9.09961c.60156.33984 1.08984.81055 1.46484 1.41211v-6.09375h3.38672v17.25h-3.24609v-1.76953c-.47656.75781-1.01953 1.30859-1.62891 1.65234s-1.36719.51562-2.27344.51562c-1.49219 0-2.74805-.60352-3.76758-1.81055s-1.5293-2.75586-1.5293-4.64648c0-2.17969.50195-3.89453 1.50586-5.14453s2.3457-1.875 4.02539-1.875c.77345 0 1.46095.16993 2.06251.50977zm.82031 9.09961c.49219-.70312.73828-1.61328.73828-2.73047 0-1.5625-.39453-2.67969-1.18359-3.35156-.48438-.40625-1.04688-.60938-1.6875-.60938-.97656 0-1.69336.36914-2.15039 1.10742s-.68555 1.6543-.68555 2.74805c0 1.17969.23242 2.12305.69727 2.83008s1.16992 1.06055 2.11523 1.06055 1.66406-.35157 2.15625-1.05469zm15.39014-9.0459c.89062.39941 1.62695 1.0293 2.20703 1.88965.52344.75879.86328 1.63867 1.01758 2.64062.08984.58691.12695 1.43164.11035 2.53516h-9.30322c.05176 1.28125.49707 2.17969 1.33545 2.69531.50977.32031 1.12402.48047 1.8418.48047.76074 0 1.37891-.19531 1.85449-.58594.25879-.21094.48926-.50391.6875-.87891h3.40918c-.08984.75781-.50195 1.52734-1.23828 2.30859-1.14355 1.24219-2.74609 1.86328-4.80469 1.86328-1.7002 0-3.2002-.52344-4.49951-1.57129-1.2998-1.04785-1.94922-2.75293-1.94922-5.11426 0-2.21289.58643-3.90918 1.75977-5.08984 1.17285-1.18066 2.69482-1.77148 4.56787-1.77148 1.11132.00001 2.11327.19923 3.0039.59864zm-4.99658 2.88477c-.47217.4873-.76855 1.14551-.88965 1.97754h5.75342c-.06055-.88672-.35742-1.55957-.88867-2.01855-.5332-.45898-1.19336-.68848-1.98145-.68848-.85742 0-1.52246.24316-1.99365.72949zm17.11572-3.44239c.04297.00391.13867.00977.28711.01758v3.42188c-.21094-.02344-.39844-.03906-.5625-.04688s-.29688-.01172-.39844-.01172c-1.34375 0-2.24609.4375-2.70703 1.3125-.25781.49219-.38672 1.25-.38672 2.27344v6.10547h-3.36328v-12.77344h3.1875v2.22656c.51562-.85156.96484-1.43359 1.34766-1.74609.625-.52344 1.4375-.78516 2.4375-.78516.0625 0 .11523.00196.1582.00586z"/></g></svg>