<svg xmlns="http://www.w3.org/2000/svg" role="img" viewBox="-1.00 -1.00 51.80 10.18"><title>Backbone logo</title><g stroke-width=".07" text-anchor="middle" transform="translate(-41.3 -90.491)"><path d="M47.10335 96.16542q0 .57361-.21704 1.01286-.21704.43925-.58394.72347-.43408.34106-.95601.48575-.51677.1447-1.31775.1447h-2.7285v-7.6946h2.27892q.84232 0 1.2609.06201.41858.06201.80098.25838.42375.22221.61495.5736.1912.34624.1912.832 0 .54776-.27905.93534-.27905.3824-.74414.61494v.04134q.78031.1602 1.2299.6873.44958.52193.44958 1.32291zm-1.72082-3.46747q0-.27906-.09302-.47026-.09302-.1912-.29972-.31006-.24288-.13952-.58911-.17053-.34623-.03617-.85783-.03617H42.3233v2.22208h1.32291q.4806 0 .76481-.0465.28422-.05169.5271-.20671.24288-.15503.34106-.39791.10336-.24805.10336-.58394zm.65629 3.50881q0-.46508-.13953-.73897-.13952-.27388-.50642-.46508-.24805-.1292-.60462-.16537-.3514-.04134-.85782-.04134H42.3233v2.86287h1.35391q.6718 0 1.1007-.06718.42892-.07235.7028-.25838.2894-.20154.42375-.45992.13436-.25838.13436-.66663z"/><path d="M52.96344 98.5322h-.96635v-.61495q-.12919.08785-.3514.24805-.21704.15502-.42374.24804-.24288.11886-.5581.19637-.31523.08268-.73898.08268-.7803 0-1.3229-.51676t-.5426-1.31775q0-.65629.27904-1.05936.28422-.40824.80615-.64079.5271-.23254 1.26607-.31522t1.58646-.12402v-.14987q0-.33072-.11885-.54776-.1137-.21704-.33073-.34107-.2067-.11885-.4961-.1602-.28938-.04133-.6046-.04133-.38241 0-.85266.10335-.47026.09819-.97152.28939h-.05168v-.98702q.28422-.07751.82165-.17053.53744-.09302 1.05937-.09302.60978 0 1.05936.10335.45475.09818.78548.34106.32556.23772.4961.61495.17052.37724.17052.93534zm-.96635-1.4211v-1.60713q-.44441.02584-1.04903.0775-.59944.05169-.95084.14987-.41858.11885-.67696.37207-.25838.24804-.25838.6873 0 .49608.29972.7493.29972.24804.91467.24804.5116 0 .93534-.19637.42375-.20153.78548-.48058z"/><path d="M59.11291 98.17046q-.48575.23254-.925.36174-.43408.12919-.925.12919-.62529 0-1.14722-.18087-.52193-.18604-.894-.5581-.37724-.37207-.58394-.94051t-.2067-1.32808q0-1.41593.77514-2.22208.78031-.80615 2.05671-.80615.4961 0 .97152.13952.48059.13953.8785.34107v1.08003h-.05169q-.44441-.34623-.91983-.53226-.47026-.18604-.91984-.18604-.82682 0-1.30741.5581-.47542.55294-.47542 1.6278 0 1.04387.46508 1.60714.47026.5581 1.31775.5581.29455 0 .59944-.0775.3049-.07752.54777-.20154.21188-.10852.3979-.22738.18604-.12402.29456-.21187h.05168z"/><path d="M65.60345 98.5322h-1.28157l-2.3151-2.52697-.63044.59944v1.92753h-.97152v-8.04083h.97152v5.15729l2.80602-2.8887h1.22472l-2.682 2.6665z"/><path d="M71.70642 95.60215q0 .72347-.2067 1.30224-.20154.57878-.54777.97152-.3669.40824-.80615.61495-.43925.20153-.96635.20153-.49092 0-.85783-.11885-.3669-.1137-.72346-.31006l-.06201.26872h-.9095v-8.04083h.9715v2.8732q.40825-.3359.86817-.54777.45992-.21704 1.03352-.21704 1.0232 0 1.6123.78548.59428.78548.59428 2.21691zm-1.00252.02584q0-1.03352-.34106-1.56579-.34107-.53743-1.1007-.53743-.42375 0-.85783.18603-.43408.18087-.80615.47026v3.30728q.4134.18603.70796.25838.29972.07235.67696.07235.80615 0 1.2609-.5271.45992-.53227.45992-1.66398z"/><path d="M78.14011 95.64866q0 1.41076-.72346 2.22725-.72347.81648-1.93786.81648-1.22473 0-1.9482-.81648-.7183-.81649-.7183-2.22725 0-1.41076.7183-2.22725.72347-.82165 1.9482-.82165 1.21439 0 1.93786.82165.72346.81649.72346 2.22725zm-1.00252 0q0-1.12138-.43924-1.66398-.43925-.54776-1.21956-.54776-.79065 0-1.2299.54776-.43408.5426-.43408 1.66398 0 1.0852.43925 1.64847.43925.5581 1.22473.5581.77514 0 1.21439-.55293.44441-.5581.44441-1.65364z"/><path d="M84.47562 98.5322h-.9715v-3.28662q0-.3979-.04652-.74413-.0465-.3514-.17053-.54777-.1292-.21704-.37207-.3204-.24288-.10851-.63045-.10851-.3979 0-.83199.19637-.43408.19636-.83199.50125v4.3098h-.97151v-5.77223h.97151v.64078q.45476-.37723.94051-.5891.48576-.21188.99735-.21188.93534 0 1.42627.56327.49092.56327.49092 1.62264z"/><path d="M91.17804 95.74684h-4.25296q0 .53227.1602.93018.1602.39274.43925.64595.26871.24805.63562.37207.37206.12402.81648.12402.58911 0 1.18339-.23254.59944-.23771.85265-.46509h.05169v1.05937q-.49093.2067-1.00252.34623-.5116.13952-1.07487.13952-1.4366 0-2.24275-.77514-.80615-.78031-.80615-2.21174 0-1.41593.76998-2.24792.77514-.83199 2.03604-.83199 1.16788 0 1.79833.68213.63562.68212.63562 1.93786zm-.94568-.74413q-.0052-.76481-.38757-1.18339-.37724-.41858-1.15238-.41858-.78031 0-1.2454.45992-.45992.45992-.52193 1.14205z"/></g></svg>