<svg xmlns="http://www.w3.org/2000/svg" role="img" viewBox="3.14 3.14 855.72 980.72"><title>beep logo</title><style>svg {enable-background:new 0 0 864 686}</style><style>.st0{fill:#231f20}.st1{fill:#808285}</style><path d="M668.3 259.2s7.7-13.6 7.7-22.7-7.7-22.7-7.7-22.7L557.8 22.5s41.9 78.2 41.9 214-41.9 214-41.9 214l110.5-191.3z" class="st0"/><path d="M297.6 427.8s7.9 13.5 15.8 18c7.9 4.6 23.5 4.7 23.5 4.7h220.9s-88.7-2.8-206.3-70.7c-117.6-67.9-164.4-143.3-164.4-143.3l110.5 191.3z" class="st1"/><path fill="#d71920" d="M336.9 22.5s-15.6.1-23.5 4.7c-7.9 4.6-15.8 18-15.8 18L187.2 236.5S234 161.1 351.6 93.2s206.3-70.7 206.3-70.7h-221zm-79.7 482h-70V520H213v66h18.4v-66h25.8zm47.4-2.5c-23.9 0-43.2 19.4-43.2 43.2 0 23.9 19.4 43.2 43.2 43.2 23.9 0 43.2-19.4 43.2-43.2 0-23.8-19.4-43.2-43.2-43.2m21.1 56.3c-2.8 7.1-9.2 12.5-16.9 13.9-1.4.2-2.8.4-4.3.4-1.4 0-2.9-.1-4.2-.4-7.7-1.4-14.1-6.7-16.9-13.9-1.6-4-2.5-8.5-2.5-13.1s.9-9 2.5-13.1c2.8-7.1 9.2-12.5 16.9-13.9 1.4-.3 2.8-.4 4.2-.4 1.4 0 2.9.1 4.3.4 7.7 1.4 14.1 6.7 16.9 13.9 1.6 4 2.5 8.5 2.5 13.1 0 4.7-.9 9.1-2.5 13.1m22.4-53.8h21.6l20.2 35 20.1-35h21.6L399 555.9V586h-18.3v-30.1zm83.9 40.8c0-23.9 19.3-43.2 43.2-43.2 23.9 0 43.2 19.4 43.2 43.2 0 23.9-19.4 43.2-43.2 43.2-23.9 0-43.2-19.4-43.2-43.2m43.2 27.3c1.4 0 2.9-.1 4.3-.4 7.7-1.4 14.1-6.7 16.9-13.9 1.6-4.1 2.5-8.5 2.5-13.1s-.9-9-2.5-13.1c-2.8-7.1-9.2-12.5-16.9-13.8-1.4-.2-2.8-.4-4.3-.4-1.4 0-2.9.1-4.2.4-7.7 1.4-14.2 6.7-16.9 13.8-1.6 4.1-2.5 8.5-2.5 13.1s.9 9 2.5 13.1c2.8 7.1 9.2 12.5 16.9 13.9 1.3.2 2.8.4 4.2.4m173.7-4.6h-34.7l-6.7 17.9h-20.4l33-81.5H643l33 81.5h-20.4l-6.7-17.9zm-5.3-14.2l-12-32.2-12 32.2h24zm-51.1-49.3h-70.1V520h25.9v66h18.3v-66h25.9z"/><path d="M581.9 623.3h15.2v38.9H608l-.1-38.9h15.3v-9.2h-41.3zm69.2 0h15.3v38.9h10.8v-38.9h15.2v-9.2h-41.3zm100.7 0H767v38.9h10.8v-38.9h15.3v-9.2h-41.3zm-240.1 19.8l-20.6-29h-10.8v48.1h10.8v-29l20.6 29h10.8v-48.1h-10.8zm-53.6-29h10.8v48.1h-10.8zm173.7 0h10.8v48.1h-10.8zm180.7 39v-10.9h24.2v-9.1h-24.2v-9.8h28v-9.2h-38.9v48.1H841v-9.1zm-80.1-10.9c0 8.3-2.7 12.1-10.3 12.1-7.6 0-10.3-3.8-10.3-12.1v-28H701v32c0 10.7 9.3 17.5 21.1 17.5 11.9 0 21.1-6.8 21.1-17.5v-32h-10.8v28zm-178.9-9c-5.9-1-8.5-3-8.5-5.9 0-3.7 3.3-5.2 8.5-5.2s8.5 1.2 8.5 6.2h11.5c0-10.9-8.8-15.6-20-15.6s-20.1 4.7-20.1 15.6c0 8.8 9.4 12 20.1 13.7 8.5 1.4 10 3.8 10 6.1 0 5.6-4.8 6.2-10 6.2s-10-1.6-10-7.2H532c0 12.2 10.3 16.5 21.5 16.5s21.5-4.4 21.5-16.5c0-9.3-11-12.2-21.5-13.9" class="st1"/><path d="M84.7 642.2h24.2v-9.1H84.7v-9.8h28.1v-9.2H73.9v48.1h39.4v-9.1H84.7zm99.5 0h24.2v-9.1h-24.2v-9.8h28v-9.2h-38.8v48.1h39.3v-9.1h-28.5zm231.6-28.1v19h-20.6v-19h-10.8v48.1h10.8v-20h20.6v20h10.8v-48.1zM63 628.4c0-8.9-4.7-14.3-16.9-14.3H22.2v48.1H33v-19.5h8.4l11.8 19.5h13l-12.4-20.4c6.5-2 9.2-6.7 9.2-13.4m-16 5.2H33v-10.3h14c1.8 0 5.1 1.2 5.1 5.2.1 3.9-3.3 5.1-5.1 5.1m271.8-5.2c0-8.9-4.7-14.3-16.9-14.3H278v48.1h10.8v-19.5h8.4l11.8 19.5h13l-12.4-20.4c6.5-2 9.2-6.7 9.2-13.4m-16 5.2h-14.1v-10.3h14.1c1.8 0 5.1 1.2 5.1 5.2 0 3.9-3.3 5.1-5.1 5.1m46.5-11.3c.8-.1 1.7-.2 2.5-.2s1.7.1 2.5.2c4.3.8 7.8 3.6 9.6 7.4h11.9c-3.5-9.9-12.9-17-24-17-14.1 0-25.5 11.4-25.5 25.5s11.4 25.5 25.5 25.5c11.1 0 20.5-7.1 24-17H364c-1.8 3.8-5.3 6.6-9.6 7.4-.8.1-1.7.2-2.5.2s-1.7-.1-2.5-.2c-4.6-.8-8.3-4-10-8.2-1-2.4-1.5-5-1.5-7.7s.5-5.3 1.5-7.7c1.6-4.3 5.4-7.4 9.9-8.2m-207.1 10.9c-5.9-1-8.5-3-8.5-5.9 0-3.7 3.3-5.2 8.5-5.2s8.5 1.2 8.5 6.2h11.5c0-10.9-8.8-15.6-20-15.6s-20.1 4.7-20.1 15.6c0 8.8 9.4 12 20.1 13.7 8.5 1.4 10 3.8 10 6.1 0 5.6-4.8 6.2-10 6.2s-10-1.6-10-7.2h-11.5c0 12.2 10.3 16.5 21.5 16.5s21.5-4.4 21.5-16.5c0-9.3-11-12.2-21.5-13.9m109.2-19.1H238l-19.5 48.1h12l3.9-10.6h20.5l4 10.6h12l-19.5-48.1zm-13.8 29.1l7.1-19 7.1 19h-14.2z" class="st0"/><path d="M241.5438 767.92865c-11.50881-14.75073-27.5158-22.08558-47.93989-22.08558-11.3062 0-20.58619 2.3504-27.92103 7.13223-6.15965 3.76873-11.83301 9.28-16.93904 16.49326v-74.6452h-40.48347v209.7117h39.75404V885.043c5.43022 7.57799 10.4552 12.88663 15.11545 15.92593 7.78061 5.14655 18.0737 7.69956 30.91982 7.69956 20.4241 0 36.3095-7.9427 47.73727-23.78758 11.38724-15.84489 17.0606-35.86374 17.0606-59.97552 0-23.26078-5.7544-42.26654-17.30375-56.97675zm-33.9591 94.58302c-5.79494 8.46951-13.94026 12.68401-24.35493 12.68401-12.07615 0-21.07248-4.3766-26.94846-13.12978-5.87598-8.71266-8.83423-19.73518-8.83423-33.02706 0-11.3062 1.41834-20.50514 4.29554-27.63736 5.51126-13.41345 15.60174-20.0999 30.35248-20.0999 14.50759 0 24.4765 6.84855 29.9067 20.50514 2.83669 7.2538 4.25503 16.3717 4.25503 27.3537 0 13.77816-2.8772 24.88173-8.67214 33.35125zm119.7484-75.09097c5.14655-5.87598 12.44087-8.83424 21.84244-8.83424 8.67213 0 15.8854 2.79616 21.72086 8.34795 5.87598 5.55179 9.1179 13.69711 9.76629 24.43597h-63.09587c1.33729-10.09048 4.57921-18.03318 9.76628-23.94968zm56.77413-35.05326c-10.37415-4.82236-22.00454-7.2538-34.9317-7.2538-21.72086 0-39.42984 7.17275-53.0459 21.51824-13.6566 14.3455-20.46463 34.97222-20.46463 61.83963 0 28.69099 7.57799 49.39875 22.65292 62.12329 15.11545 12.72454 32.54077 19.0868 52.31648 19.0868 23.90916 0 42.5502-7.57798 55.84207-22.65291 8.55057-9.52314 13.3324-18.88419 14.38602-28.08313h-41.45605c-2.1883 4.5792-4.70078 8.14532-7.57799 10.69833-5.2276 4.74131-11.9951 7.13223-20.34304 7.13223-7.90218 0-14.62917-1.94516-20.262-5.87598-9.19895-6.2407-14.10236-17.18218-14.6697-32.7434h106.29446c.20262-13.41344-.24314-23.66601-1.29677-30.79824-1.78305-12.1572-5.7544-22.815-11.833-32.05448-6.72699-10.41467-15.27755-18.0737-25.61117-22.93658zm-32.05449-7.2538zM489.5912 787.4207c5.18707-5.87598 12.48139-8.83424 21.88296-8.83424 8.63161 0 15.8854 2.79616 21.72086 8.34795 5.83546 5.55179 9.07738 13.69711 9.76629 24.43597h-63.1364c1.3373-10.09048 4.57922-18.03318 9.76629-23.94968zm56.77412-35.05326c-10.37414-4.82236-22.00453-7.2538-34.89116-7.2538-21.76139 0-39.47038 7.17275-53.08644 21.51824-13.61607 14.3455-20.4241 34.97222-20.4241 61.83963 0 28.69099 7.53747 49.39875 22.65292 62.12329 15.07493 12.72454 32.50025 19.0868 52.27596 19.0868 23.90916 0 42.5502-7.57798 55.84207-22.65291 8.55056-9.52314 13.3324-18.88419 14.38602-28.08313h-41.45605c-2.1883 4.5792-4.70079 8.14532-7.53747 10.69833-5.2276 4.74131-12.03562 7.13223-20.38357 7.13223-7.90218 0-14.62916-1.94516-20.22147-5.87598-9.23948-6.2407-14.10236-17.18218-14.6697-32.7434h106.25394c.20262-13.41344-.24315-23.66601-1.25625-30.79824-1.82358-12.1572-5.7544-22.815-11.833-32.05448-6.76751-10.41467-15.31808-18.0737-25.6517-22.93658zm-32.05448-7.2538zm196.94664 50.00662c5.47074 9.19894 8.18585 19.81623 8.18585 31.77081 0 14.54812-2.95826 26.1785-8.87476 34.89117-5.95703 8.75318-14.54812 13.12977-25.85431 13.12977-7.82113 0-14.54812-2.14777-20.262-6.40279-9.56367-7.33484-14.38602-20.01886-14.38602-38.05204 0-11.38724 1.45886-20.7888 4.29554-28.2047 5.51127-13.98078 15.60174-20.9509 30.35248-20.9509 12.23825 0 21.113 4.61973 26.54322 13.81868zm31.20348-29.2178c-12.56244-13.37293-27.92104-20.05939-46.07579-20.05939-12.44087 0-23.17973 3.44454-32.21658 10.37415-4.9034 3.8903-9.56366 9.23947-13.94026 15.96645V749.2471H611.3253v216.39816h40.19981v-80.92643c4.25502 6.56489 8.63161 11.54934 13.08925 14.99388 8.14533 6.15965 18.43842 9.23947 30.75772 9.23947 19.37047 0 35.21536-7.17275 47.53465-21.51824 12.27877-14.3455 18.43842-35.17483 18.43842-62.52853 0-25.93536-6.28122-45.5895-18.88418-59.00295z"/></svg>