<svg xmlns="http://www.w3.org/2000/svg" role="img" viewBox="3.78 20.28 141.57 64.57"><title>bifacialvf logo</title><path fill="#0079C1" fill-rule="evenodd" d="M28.5 49.5c-.7.5-1.6.9-2.5 1.3h8.3v-8.2c-.3.7-.8 1.8-1.3 2.5l-1.6-1.6c-.5.9-1.2 1.7-1.9 2.5-.8.8-1.6 1.4-2.5 1.9l1.5 1.6zm.1-8.7c-.4.9-1 1.8-1.8 2.6s-1.7 1.4-2.6 1.8l2.2 2.2c.9-.5 1.8-1.2 2.5-1.9.8-.8 1.4-1.6 1.9-2.5l-2.2-2.2zm5.2-.7c.5-2 .5-4.2 0-6.3h-1.1c.5 2.1.5 4.3 0 6.3h1.1zm-1.7 0c.5-1.9.6-4.2 0-6.3h-3.2c.7 2 .7 4.3 0 6.3h3.2zm.8-11.3c.4.6.9 1.6 1.3 2.5v-8.2h-8.3c.8.3 1.6.7 2.5 1.3L26.8 26c.9.5 1.7 1.1 2.5 1.9.8.8 1.4 1.6 1.9 2.5l1.7-1.6zm-8.7-.1c.9.4 1.8 1 2.6 1.8s1.3 1.6 1.8 2.6l2.2-2.2c-.5-.9-1.2-1.8-1.9-2.5-.8-.8-1.6-1.4-2.5-1.9l-2.2 2.2zm-.7-5.2c-2.1-.5-4.2-.5-6.3 0v1.1c2.1-.5 4.2-.5 6.3 0v-1.1zm0 1.7c-2.1-.6-4.2-.5-6.3 0v3.2c2-.7 4.3-.8 6.3 0v-3.2zM9.4 30.5c.5-.9 1.2-1.7 1.9-2.5.8-.8 1.6-1.4 2.5-1.9l-1.6-1.6c.8-.5 1.6-.9 2.5-1.3H6.5v8.3c.4-.9.8-1.7 1.3-2.5l1.6 1.5zm4.9-4.1c-.9.5-1.8 1.2-2.5 1.9-.8.8-1.4 1.6-1.9 2.5l2.2 2.2c.4-1 1-1.8 1.8-2.6s1.7-1.4 2.6-1.8l-2.2-2.2zm-5.7 7.4c-.5 2.1-.6 4.2 0 6.3h3.2c-.7-2-.7-4.3 0-6.3H8.6zm-1.7 0c-.5 2.1-.5 4.2 0 6.3H8c-.5-2-.5-4.2 0-6.3H6.9zm.9 11.3c-.5-.8-.9-1.6-1.3-2.5v8.3h8.2c-.9-.4-1.7-.8-2.5-1.3l1.7-1.6c-.9-.5-1.7-1.2-2.5-1.9-.8-.8-1.4-1.6-1.9-2.5l-1.7 1.5zm2-2.1c.5.9 1.2 1.8 1.9 2.5.8.8 1.6 1.4 2.5 1.9l2.2-2.2c-1-.4-1.8-1-2.6-1.8s-1.4-1.7-1.8-2.6L9.8 43zm7.4 2.5c2 .7 4.3.7 6.3 0v3.2c-2.1.6-4.2.5-6.3 0v-3.2zm0 3.8c2.1.5 4.2.5 6.3 0v1.1c-2.1.5-4.2.5-6.3 0v-1.1z" clip-rule="evenodd"/><path fill="#0079C1" d="M40.7 23h4.2l13.9 19.3V23h4.5v28h-3.8L45.2 31v19.9h-4.5V23zm35.7 13.8h3.9c3.4 0 5.5-1.8 5.5-4.7V32c0-3-2.1-4.6-5.6-4.6h-6.9v23.5h-4.7V23h12c3.4 0 6 1 7.8 2.8 1.4 1.5 2.2 3.6 2.2 6v.1c0 4.6-2.7 7.4-6.4 8.5L91.5 51h-5.6l-9.5-14.2zM95.6 23h21.3v4.4h-16v7.3h13V39h-13v7.5h16.2v4.4H95.6V23zm27 0h5.3v23.5h14.8V51h-20.1V23z"/><path fill="#5C6670" d="M9.9 58.9h-.4l-2.4-3v3h-.6v-4H7l2.4 3v-3h.6v4h-.1zm4.8 0h-.6l-.5-1h-2l-.5 1h-.6l1.8-4h.5l1.9 4zm-2.9-1.5h1.6l-.8-1.7-.8 1.7zm4.6 1.5h-.6v-3.4h-1.3V55h3.2v.5h-1.3v3.4zm2.6 0h-.6v-4h.6v4zm2.9.1c-1.2 0-2-.9-2-2 0-1.2.9-2.1 2-2.1 1.2 0 2 .9 2 2 0 1.2-.9 2.1-2 2.1zm0-3.6c-.8 0-1.5.6-1.5 1.5s.6 1.5 1.5 1.5c.8 0 1.5-.7 1.5-1.5-.1-.8-.7-1.5-1.5-1.5zm6.2 3.5h-.4l-2.4-3v3h-.6v-4h.5l2.4 3v-3h.6v4h-.1zm4.8 0h-.6l-.5-1h-2l-.5 1h-.6l1.8-4h.5l1.9 4zM30 57.4h1.6l-.8-1.7-.8 1.7zm6.2 1.5h-2.8v-4h.6v3.4h2.2v.6zm2.9 0h-.6v-4h1.7c.5 0 .9.1 1.1.4.2.2.3.5.3.8 0 .6-.4 1-1 1.2l1.2 1.6h-.7l-1.5-2h.5c.6 0 .9-.3.9-.7 0-.5-.3-.7-.9-.7H39v3.4zm50.5 0H89v-4h1.7c.5 0 .9.1 1.1.4.2.2.3.5.3.8 0 .6-.4 1-1 1.2l1.2 1.6h-.7l-1.5-2h.5c.6 0 .9-.3.9-.7 0-.5-.3-.7-.9-.7h-1.1v3.4zm30.4 0h-.6v-4h1.7c.5 0 .9.1 1.1.4.2.2.3.5.3.8 0 .6-.4 1-1 1.2l1.2 1.6h-.7l-1.5-2h.5c.6 0 .9-.3.9-.7 0-.5-.3-.7-.9-.7h-1v3.4zm15.9 0h-.6v-4h1.7c.5 0 .9.1 1.1.4.2.2.3.5.3.8 0 .6-.4 1-1 1.2l1.2 1.6h-.6l-1.5-2h.5c.6 0 .9-.3.9-.7 0-.5-.3-.7-.9-.7h-1.1v3.4zm-90.4 0h-3v-4h2.9v.5H43v1.2h2.1v.5H43v1.2h2.4v.6h.1zm4.2 0h-.4l-2.4-3v3h-.6v-4h.5l2.4 3v-3h.6v4h-.1zm3.9 0h-3v-4h2.9v.5h-2.4v1.2h2v.5h-2v1.2h2.4v.6h.1zm4.9.1H58l-1-3-1 3h-.5l-1.4-4h.6l1.1 3.1 1-3.1h.5l1 3.1 1.1-3.1h.6l-1.5 4zm5.3-.1h-.6l-.5-1h-2l-.5 1h-.6l1.8-4h.6l1.8 4zm-2.9-1.5h1.6l-.8-1.7-.8 1.7zm5.3 1.5h-1.8v-4h1.7c.4 0 .8.1 1.1.4.2.2.3.4.3.7 0 .5-.3.7-.5.9.5.2.7.5.7.9 0 .7-.6 1.1-1.5 1.1zm-1.2-.5h1.2c.6 0 .9-.2.9-.6 0-.5-.6-.6-1-.6H65v1.2zm0-1.7h1.1c.5 0 .8-.2.8-.6 0-.4-.3-.6-.8-.6H65v1.2zm6.2 2.2h-2.8v-4h.6v3.4h2.2v.6zm3.6 0h-3v-4h2.9v.5h-2.4v1.2h2v.5h-2v1.2h2.4v.6h.1zm5.4 0h-3v-4h2.9v.5h-2.4v1.2h2v.5h-2v1.2h2.4v.6h.1zm4.2 0H84l-2.4-3v3H81v-4h.5l2.3 2.9v-3h.6v4.1zm3.9 0h-3v-4h2.9v.5h-2.4v1.2h2v.5h-2v1.2h2.4v.6h.1zm6.6.1c-1.2 0-2-.8-2-2s.9-2.1 2-2.1c.6 0 1 .2 1.5.5l-.4.4c-.3-.2-.6-.4-1.1-.4-.8 0-1.4.7-1.4 1.5 0 .9.6 1.5 1.5 1.5.4 0 .8-.1 1.1-.4v-.9h-1.2v-.5h1.7v1.6c-.3.4-.9.8-1.7.8zm4.1-.1h-.6v-1.6L96.8 55h.7l1.3 1.9L100 55h.7L99 57.4v1.5zm6.6 0h-2.8v-4h.6v3.4h2.2v.6zm4.5 0h-.6l-.5-1h-2l-.5 1h-.6l1.8-4h.5l1.9 4zm-2.9-1.5h1.6l-.8-1.7-.8 1.7zm5.3 1.5h-1.8v-4h1.7c.5 0 .8.1 1.1.4.2.2.3.4.3.7 0 .5-.3.7-.5.9.5.2.7.5.7.9-.1.7-.6 1.1-1.5 1.1zm-1.3-.5h1.2c.6 0 .9-.2.9-.6 0-.5-.6-.6-1-.6h-1.2v1.2h.1zm0-1.7h1.1c.5 0 .8-.2.8-.6 0-.4-.3-.6-.8-.6h-1.1v1.2zm5.3 2.3c-1.2 0-2-.9-2-2 0-1.2.9-2.1 2-2.1 1.2 0 2 .9 2 2 .1 1.2-.8 2.1-2 2.1zm0-3.6c-.8 0-1.5.6-1.5 1.5s.6 1.5 1.5 1.5c.8 0 1.5-.7 1.5-1.5s-.6-1.5-1.5-1.5zm10.7 3.5h-.6l-.5-1h-2l-.5 1h-.6l1.8-4h.5l1.9 4zm-2.9-1.5h1.6l-.8-1.7-.8 1.7zm4.6 1.5h-.6v-3.4H127V55h3.2v.5h-1.3v3.4zm3.6.1c-1.2 0-2-.9-2-2 0-1.2.9-2.1 2-2.1 1.2 0 2 .9 2 2 0 1.2-.9 2.1-2 2.1zm0-3.6c-.8 0-1.5.6-1.5 1.5s.6 1.5 1.5 1.5c.8 0 1.5-.7 1.5-1.5-.1-.8-.7-1.5-1.5-1.5zm8.5 3.5h-.6v-1.6l-1.7-2.4h.7l1.3 1.9L142 55h.7l-1.7 2.4v1.5z"/><path d="M31.43902 69.48495c-1.03052-1.32081-2.46382-1.97759-4.29263-1.97759-1.01238 0-1.84333.21046-2.5001.63863-.55156.33746-1.05956.83095-1.51676 1.47684v-6.68388h-3.62497v18.778h3.55965V79.9716c.48623.67855.93618 1.1539 1.35347 1.42604.6967.46083 1.61836.68944 2.76862.68944 1.82882 0 3.25123-.71121 4.2745-2.13 1.01963-1.41878 1.52763-3.2113 1.52763-5.37032 0-2.08282-.51526-3.78463-1.5494-5.10181zm-3.04077 8.46915c-.51889.75838-1.24823 1.13575-2.18078 1.13575-1.08133 0-1.88688-.39189-2.41302-1.17566-.52615-.78015-.79104-1.76713-.79104-2.95731 0-1.01238.127-1.83607.38463-2.4747.4935-1.20108 1.39701-1.7998 2.71782-1.7998 1.29904 0 2.19168.61324 2.67791 1.83608.254.64952.381 1.46595.381 2.4493 0 1.23373-.25763 2.22796-.77652 2.98634zm10.93298-11.8002v-3.35646h-3.68666v3.35645zm-3.68666 1.65826v13.9048h3.68666v-13.9048zm12.96136-5.06915c-.18869-.01452-.39552-.02177-.62775-.02177-2.01387 0-3.28751.41729-3.81366 1.25186-.50075.56244-.75112 1.5857-.75112 3.07343v.89263h-1.9921v2.56542h2.02839v11.21238h3.62497V70.50458h2.38399v-2.56542h-2.384v-1.17203c0-.27215.09072-.52252.27215-.7475.18506-.22497.51526-.3302.99424-.31931.4826.01451.8237.03266 1.03052.05806v-2.96094c-.32657-.0254-.58057-.04355-.76563-.05443zm10.61365 12.21387v1.35346c-.0254 1.21559-.37012 2.0538-1.0269 2.511-.6604.46083-1.38249.68943-2.16264.68943-.49349 0-.9144-.13789-1.25912-.41366s-.51526-.72572-.51526-1.34621c0-.6967.2794-1.21195.84183-1.54578.3302-.19595.88175-.35924 1.64739-.49712l.81643-.1524c.4064-.0762.72935-.15966.96158-.24675.23223-.09071.46446-.20683.6967-.35197zm-2.20982-1.69819l-1.23735.1524c-1.40064.18143-2.46382.47898-3.18954.89627-1.31718.76563-1.97396 2.00298-1.97396 3.71206 0 1.31718.41004 2.33681 1.2301 3.05528.82006.71846 1.85784 1.07769 3.11697 1.07769.98698 0 1.87235-.22497 2.65613-.67855.65315-.381 1.2301-.84546 1.73447-1.38975.0254.31569.05806.59509.1016.84183.04355.24675.11975.51164.2286.79104h3.95518v-.53703c-.23949-.10886-.41729-.25038-.53703-.42092-.11612-.16692-.18869-.48986-.21409-.96884-.01814-.62775-.0254-1.16478-.0254-1.60747v-6.37545c0-1.67641-.59146-2.8158-1.77439-3.42177-1.18292-.60235-2.53639-.90352-4.05677-.90352-2.34045 0-3.98783.6096-4.94941 1.83607-.60598.78378-.94344 1.78164-1.01964 2.99723h3.50523c.08709-.53704.25763-.96158.51163-1.27364.3556-.42818.96521-.63864 1.82519-.63864.76563 0 1.3462.10886 1.74173.32295.39551.21771.59146.61323.59146 1.18292 0 .4681-.25763.80918-.77652 1.03052-.29029.13063-.76927.23586-1.44419.31932zm.19232-5.81664zm17.18505 5.35944h3.72294c-.2032-1.98122-.85997-3.36371-1.97033-4.1475-1.11035-.78014-2.53639-1.17203-4.27812-1.17203-2.05015 0-3.65762.66403-4.8224 1.98847-1.16479 1.32807-1.74899 3.18591-1.74899 5.57353 0 2.1191.52615 3.84269 1.58207 5.16713 1.05592 1.32807 2.69968 1.9921 4.9349 1.9921 2.23884 0 3.92614-.79466 5.06552-2.38762.71484-.98698 1.11398-2.03201 1.20107-3.13874h-3.71206c-.0762.73298-.29392 1.32807-.65315 1.7889-.3556.4572-.96158.68944-1.81067.68944-1.19744 0-2.01387-.58058-2.4493-1.7381-.2395-.6205-.3556-1.44056-.3556-2.4602 0-1.07043.1161-1.9304.3556-2.5763.44994-1.21558 1.28815-1.82519 2.51462-1.82519.85635 0 1.49135.2794 1.90138.84184.2794.41729.45358.88538.52252 1.40427zm-2.46382-5.35944zm12.42433-1.28816v-3.35645h-3.68666v3.35645zm-3.68666 1.65827v13.9048h3.68666v-13.9048zm14.87726 7.14472v1.35346c-.0254 1.21559-.37012 2.0538-1.0269 2.511-.6604.46083-1.3825.68943-2.16264.68943-.49349 0-.9144-.13789-1.25912-.41366s-.51527-.72572-.51527-1.34621c0-.6967.2794-1.21195.84184-1.54578.3302-.19595.88175-.35924 1.64738-.49712l.81644-.1524c.4064-.0762.72572-.15966.96158-.24675.23223-.09071.46446-.20683.69669-.35197zm-2.20982-1.69819l-1.23735.1524c-1.40064.18143-2.46382.47898-3.18954.89627-1.31718.76563-1.97396 2.00298-1.97396 3.71206 0 1.31718.41003 2.33681 1.2301 3.05528.82006.71846 1.85784 1.07769 3.11696 1.07769.98698 0 1.87236-.22497 2.65614-.67855.65315-.381 1.2301-.84546 1.73447-1.38975.0254.31569.05806.59509.1016.84183.04354.24675.11975.51164.2286.79104h3.95518v-.53703c-.23949-.10886-.4173-.25038-.53704-.42092-.11974-.16692-.18868-.48986-.21408-.96884-.01815-.62775-.0254-1.16478-.0254-1.60747v-6.37545c0-1.67641-.59146-2.8158-1.77439-3.42177-1.18292-.60235-2.53639-.90352-4.05677-.90352-2.34045 0-3.98783.6096-4.94941 1.83607-.60598.78378-.94344 1.78164-1.01964 2.99723h3.50523c.08708-.53704.25763-.96158.51163-1.27364.3556-.42818.9652-.63864 1.82519-.63864.76563 0 1.3462.10886 1.74172.32295.39552.21771.59147.61323.59147 1.18292 0 .4681-.25764.80918-.77652 1.03052-.2903.13063-.76927.23586-1.44419.31932zm.19232-5.81664zm12.59124 14.2749v-18.8034h-3.63586v18.8034zm12.11952-13.90479l-2.96093 10.25806-2.89563-10.25806h-4.08217l4.98932 13.9048h3.83906l5.01473-13.9048zm11.7095-5.06915c-.18506-.01452-.39552-.02177-.62412-.02177-2.0175 0-3.28751.41729-3.81366 1.25186-.50438.56244-.75475 1.5857-.75475 3.07343v.89263H122.76v2.56542h2.02838v11.21238h3.62135V70.50458h2.38762v-2.56542h-2.38762v-1.17203c0-.27215.09434-.52252.27577-.7475.18143-.22497.51526-.3302.99424-.31931.4826.01451.82369.03266 1.0269.05806v-2.96094c-.32295-.0254-.57696-.04355-.76564-.05443z"/></svg>