<svg xmlns="http://www.w3.org/2000/svg" role="img" viewBox="-1.84 -1.84 95.55 12.93"><title>BikeshareClient logo</title><g transform="translate(-1.172 9.117)"><path d="M7.75195-2.6836q0 .6504-.2461 1.14844-.24608.49805-.6621.82032-.49219.38672-1.08398.55078Q5.17383 0 4.26563 0H1.17188v-8.7246h2.58398q.95508 0 1.42969.0703.4746.07031.9082.29297.48047.25195.69727.6504.2168.39257.2168.94335 0 .6211-.31641 1.06055-.31641.4336-.84375.69726v.04688q.88476.18164 1.39453.7793.50976.5918.50976 1.5zM5.80078-6.61522q0-.31641-.10547-.5332-.10547-.2168-.33984-.35157-.2754-.1582-.66797-.19336-.39258-.04101-.97266-.04101h-1.3828v2.51953h1.5q.54491 0 .86718-.05274.32226-.0586.59765-.23437.2754-.17578.38672-.45117.1172-.28125.1172-.66211zm.74414 3.97851q0-.52734-.1582-.83789t-.57422-.52734q-.28125-.14649-.68555-.1875-.39843-.04688-.97265-.04688H2.33203v3.2461H3.8672q.76172 0 1.24804-.07618.48633-.08203.79688-.29296.32812-.22852.48047-.52149.15234-.29297.15234-.75586z"/><path d="M10.49414-7.64063H9.25195V-8.7832h1.2422zM10.42383 0H9.32227v-6.54492h1.10156z"/><path d="M18.54492 0H17.0918l-2.625-2.86523-.71485.67968V0H12.6504v-9.11719h1.10156v5.84766l3.18164-3.2754h1.38868l-3.04102 3.02345z"/><path d="M25.0664-3.1582h-4.82226q0 .60351.18164 1.05468.18164.44532.49805.73243.30469.28125.7207.42187.42188.14063.92578.14063.66797 0 1.3418-.26368.67969-.26953.9668-.52734h.05859v1.20117q-.55665.23438-1.13672.39258-.58008.1582-1.21875.1582-1.6289 0-2.54297-.8789-.91406-.88477-.91406-2.50782 0-1.60546.87305-2.54882.8789-.94336 2.3086-.94336 1.3242 0 2.03905.77344.7207.77343.7207 2.19726zm-1.07226-.84375q-.0059-.8672-.43945-1.3418-.42774-.4746-1.30664-.4746-.88477 0-1.41211.52147-.52149.52149-.5918 1.29493z"/><path d="M31.4121-1.88672q0 .89649-.74413 1.4707-.73828.57422-2.02149.57422-.72656 0-1.33593-.16992-.60352-.17578-1.01367-.38086V-1.6289h.05858q.52149.39258 1.16016.62696.63867.22851 1.22461.22851.72656 0 1.13672-.23437.41015-.23438.41015-.73828 0-.38672-.22265-.58594-.22266-.19922-.85547-.33984-.23438-.05274-.61523-.12305-.375-.07031-.68555-.15235-.86133-.22851-1.22461-.66796-.35742-.44532-.35742-1.08985 0-.4043.16406-.76172.16993-.35742.50977-.63867.32813-.27539.83203-.4336.50977-.16405 1.13672-.16405.58594 0 1.1836.14648.6035.14062 1.00195.3457v1.17774h-.0586q-.42187-.31055-1.02538-.52149-.60352-.2168-1.1836-.2168-.60351 0-1.01953.23438-.41601.22852-.41601.68555 0 .4043.25195.60937.2461.20508.79687.33399.3047.0703.6797.14062.38085.07031.6328.1289.76758.17579 1.1836.60352.41601.4336.41601 1.14844z"/><path d="M38.46094 0h-1.10156v-3.72656q0-.45117-.05274-.84375-.05272-.39844-.19335-.6211-.14649-.24609-.42188-.36328-.27539-.12304-.71484-.12304-.45117 0-.94336.22265-.49219.22266-.94336.56836V0h-1.10156v-9.11719h1.10156v3.29883q.51562-.42773 1.0664-.66797.55079-.24023 1.13086-.24023 1.06055 0 1.6172.63867.55663.63867.55663 1.83984z"/><path d="M45.66797 0h-1.0957v-.69727q-.14649.09961-.39844.28125-.2461.17579-.48047.28125-.2754.13477-.63281.22266-.35742.09375-.8379.09375-.88476 0-1.5-.58594-.61523-.58593-.61523-1.49414 0-.74414.3164-1.20117.32227-.46289.91407-.72656.59766-.26367 1.43555-.35742.83789-.09375 1.79883-.14063v-.16992q0-.375-.13477-.6211-.1289-.24609-.375-.38671-.23438-.13477-.5625-.18164-.32813-.04688-.68555-.04688-.4336 0-.9668.11719-.5332.11133-1.10156.32812h-.05859V-6.4043q.32227-.08789.93164-.19336.60938-.10547 1.20117-.10547.6914 0 1.20117.1172.51563.11132.89063.38671.36914.26953.5625.69727.19336.42773.19336 1.06054zm-1.0957-1.61133v-1.82226q-.50391.0293-1.18946.08789-.67968.0586-1.07812.16992-.47461.13476-.76758.42187-.29297.28125-.29297.7793 0 .5625.33984.84961.33985.28125 1.03711.28125.58008 0 1.06055-.22266.48047-.22851.89063-.54492z"/><path d="M51.87305-5.34375h-.0586q-.24609-.0586-.48046-.08203-.22852-.0293-.54492-.0293-.50977 0-.98438.22852-.4746.22265-.91406.58008V0h-1.10156v-6.54492h1.10156v.9668q.65625-.52735 1.1543-.74415.5039-.22265 1.02539-.22265.2871 0 .41601.01758.1289.01172.38672.05273z"/><path d="M58.38867-3.1582h-4.82226q0 .60351.18164 1.05468.18164.44532.49804.73243.3047.28125.7207.42187.42188.14063.92579.14063.66797 0 1.3418-.26368.67968-.26953.9668-.52734h.05858v1.20117q-.55664.23438-1.13672.39258-.58008.1582-1.21875.1582-1.6289 0-2.54297-.8789-.91406-.88477-.91406-2.50782 0-1.60546.87305-2.54882.8789-.94336 2.3086-.94336 1.32421 0 2.03906.77344.7207.77343.7207 2.19726zm-1.07226-.84375q-.0059-.8672-.43946-1.3418-.42773-.4746-1.30664-.4746-.88476 0-1.4121.52147-.5215.52149-.5918 1.29493z"/><path d="M66.88477-.63281q-.32227.14062-.58594.26367-.25781.12305-.67969.25781-.35742.11133-.7793.1875-.41601.08203-.91992.08203-.94922 0-1.72851-.26367-.77344-.26953-1.34766-.83789-.5625-.55664-.8789-1.4121-.31641-.86134-.31641-1.99806 0-1.07812.30469-1.92773.30468-.8496.8789-1.43555.55664-.56836 1.3418-.86718.79101-.29883 1.75195-.29883.70313 0 1.4004.16992.70312.16992 1.55859.59766v1.37695h-.0879q-.7207-.60352-1.42968-.8789-.70899-.2754-1.51758-.2754-.6621 0-1.19531.2168-.52735.21094-.94336.6621-.4043.43946-.63281 1.11329-.22266.66797-.22266 1.54687 0 .91993.2461 1.58204.25195.6621.64452 1.07812.41016.4336.95508.64453.55078.20508 1.16016.20508.83789 0 1.57031-.2871.73242-.28712 1.3711-.86134h.08202z"/><path d="M69.55078 0h-1.10156v-9.11719h1.10156z"/><path d="M72.91406-7.64063h-1.24219V-8.7832h1.2422zM72.84375 0h-1.10156v-6.54492h1.10156z"/><path d="M80.50195-3.1582H75.6797q0 .60351.18164 1.05468.18164.44532.49805.73243.30468.28125.7207.42187.42187.14063.92578.14063.66797 0 1.3418-.26368.67968-.26953.9668-.52734h.05858v1.20117q-.55664.23438-1.13672.39258-.58007.1582-1.21875.1582-1.6289 0-2.54297-.8789-.91406-.88477-.91406-2.50782 0-1.60546.87305-2.54882.8789-.94336 2.3086-.94336 1.32421 0 2.03906.77344.7207.77343.7207 2.19726zm-1.07226-.84375q-.0059-.8672-.43946-1.3418-.42773-.4746-1.30664-.4746-.88476 0-1.4121.52147-.52149.52149-.5918 1.29493z"/><path d="M87.64453 0h-1.10156v-3.72656q0-.45117-.05273-.84375-.05274-.39844-.19337-.6211-.14648-.24609-.42187-.36328-.2754-.12304-.71484-.12304-.45118 0-.94336.22265-.4922.22266-.94336.56836V0h-1.10156v-6.54492h1.10156v.72656q.51562-.42773 1.0664-.66797.55079-.24023 1.13086-.24023 1.06055 0 1.6172.63867.55663.63867.55663 1.83984z"/><path d="M93.16406-.0586q-.31054.08204-.67969.13477-.36328.05274-.65039.05274-1.00195 0-1.52343-.53907-.52149-.53906-.52149-1.72851v-3.48047h-.74414v-.92578h.74414v-1.88086h1.10156v1.88086h2.27344v.92578h-2.27344v2.98242q0 .51563.02345.8086.02343.2871.16406.53906.1289.23437.35156.3457.22852.10547.6914.10547.26954 0 .5625-.07617.29297-.08203.42188-.13477h.0586z"/></g></svg>