<svg xmlns="http://www.w3.org/2000/svg" role="img" viewBox="-6.24 -6.24 311.48 109.48"><title>biogas logo</title><path d="M146.6 92.8l3.3-7.8a20.562 20.562 0 0 0 3.817 2.373 24.737 24.737 0 0 0 1.783.777q2.759 1.078 6.559 1.226a31.788 31.788 0 0 0 1.241.024 21.701 21.701 0 0 0 4.521-.443q2.901-.618 5.101-2.098a12.576 12.576 0 0 0 1.528-1.209 11.352 11.352 0 0 0 2.907-4.493q1.143-3.101 1.143-7.457v-6.4q-2 2.4-5.75 4.55T163.8 74q-5.9 0-11.2-3.05a22.236 22.236 0 0 1-7.292-6.838A27.437 27.437 0 0 1 144 62a25.181 25.181 0 0 1-2.713-7.624 35.033 35.033 0 0 1-.587-6.576 32.06 32.06 0 0 1 .917-7.808 26.682 26.682 0 0 1 2.333-6.092 25.706 25.706 0 0 1 6.064-7.622A24.448 24.448 0 0 1 152.7 24.3q5.5-3.5 12.1-3.5a22.366 22.366 0 0 1 4.82.501 18.715 18.715 0 0 1 3.18.999 25.705 25.705 0 0 1 3.828 1.968A20.998 20.998 0 0 1 179 26v-4h8.2v50.8q0 8.6-3 14t-8.35 7.9a25.811 25.811 0 0 1-6.604 2.021 35.243 35.243 0 0 1-5.946.479q-4.6 0-8.95-1.1a27.232 27.232 0 0 1-5.3-1.917 23.518 23.518 0 0 1-2.45-1.383zm113.3-23l3.8-7.5a18.557 18.557 0 0 0 3.144 2.126q1.554.844 3.406 1.524a24.073 24.073 0 0 0 7.611 1.437 27.464 27.464 0 0 0 .839.013q5.392 0 8.235-1.715a7.738 7.738 0 0 0 .215-.135Q290 63.7 290 60.8a7.123 7.123 0 0 0-.314-2.147 6.212 6.212 0 0 0-.736-1.553 6.384 6.384 0 0 0-.929-1.094q-1.014-.972-2.687-1.925a22.3 22.3 0 0 0-.234-.131 28.462 28.462 0 0 0-1.994-.993q-2.116-.962-5.105-2.011A103.602 103.602 0 0 0 277 50.6a46.616 46.616 0 0 1-4.398-1.743q-2.114-.974-3.79-2.062a19.335 19.335 0 0 1-2.762-2.145 11.324 11.324 0 0 1-3.294-5.996 16.794 16.794 0 0 1-.356-3.554q0-6 5.25-10.15 4.404-3.481 11.658-4.042a37.527 37.527 0 0 1 2.892-.108 40.794 40.794 0 0 1 4.446.231q2.308.253 4.324.784a25.234 25.234 0 0 1 .13.035q3.9 1.05 7 2.65l-2.5 7.4q-2.7-1.6-6.15-2.6a25.024 25.024 0 0 0-4.483-.847 31.837 31.837 0 0 0-3.167-.153 20.632 20.632 0 0 0-2.937.195q-3.086.445-4.963 1.905a9.322 9.322 0 0 0-1.358 1.273q-.702.819-1.037 1.692A4.529 4.529 0 0 0 271.2 35a4.921 4.921 0 0 0 1.495 3.552 7.082 7.082 0 0 0 .605.548 9.88 9.88 0 0 0 1.3.869q2.273 1.302 6.698 2.765a84.459 84.459 0 0 0 .202.066 67.753 67.753 0 0 1 5.062 1.898q5.927 2.519 8.738 5.402 3.9 4 3.9 10 0 6.748-5.251 10.755a16.618 16.618 0 0 1-.399.295q-4.74 3.397-12.188 3.945a40.423 40.423 0 0 1-2.962.105q-5.9 0-10.65-1.5a30.883 30.883 0 0 1-3.84-1.485q-1.981-.931-3.562-2.079a18.229 18.229 0 0 1-.448-.336zM8.4 69.7V74H0V0h9v27.4q2-2.3 5.85-4.45a16.584 16.584 0 0 1 5.231-1.822A22.424 22.424 0 0 1 24 20.8q6 0 11.25 3.15a22.329 22.329 0 0 1 7.178 6.967A27.464 27.464 0 0 1 43.7 33.05Q46.9 39 46.9 47.5a33.315 33.315 0 0 1-.687 6.888A27.75 27.75 0 0 1 44.9 58.8a29.367 29.367 0 0 1-3.161 6.004 25.482 25.482 0 0 1-2.189 2.746 24.894 24.894 0 0 1-6.131 4.914A23.302 23.302 0 0 1 32 73.2a20.006 20.006 0 0 1-7.366 1.96 19.209 19.209 0 0 1-1.234.04q-4.5 0-8.45-1.65a30.274 30.274 0 0 1-3.303-1.608Q9.822 70.903 8.4 69.7zm229.9-43.5V22h8.2v39.4a12.15 12.15 0 0 0 .102 1.636q.332 2.434 1.748 3.314 1.85 1.15 4.05 1.15l-1.9 7a17.722 17.722 0 0 1-4.265-.472q-5.637-1.4-7.232-6.948a13.59 13.59 0 0 1-.103-.38 21.307 21.307 0 0 1-3.11 3.426 28.498 28.498 0 0 1-3.14 2.424q-3.95 2.65-10.05 2.65-6.5 0-11.8-3.3a22.947 22.947 0 0 1-7.413-7.527 27.923 27.923 0 0 1-1.037-1.823 27.228 27.228 0 0 1-2.63-7.942 36.644 36.644 0 0 1-.52-6.308 33.142 33.142 0 0 1 .997-8.269 27.968 27.968 0 0 1 2.153-5.731q3.15-6.2 8.7-9.85a22.297 22.297 0 0 1 11.195-3.606 27.388 27.388 0 0 1 1.555-.044 22.584 22.584 0 0 1 4.794.49 18.703 18.703 0 0 1 3.356 1.06 26.002 26.002 0 0 1 4.287 2.294A22.103 22.103 0 0 1 238.3 26.2zM93 71.75a24.559 24.559 0 0 0 4.598 2.09q4.055 1.36 8.702 1.36 7.4 0 13.25-3.4t9.25-9.55a26.255 26.255 0 0 0 2.653-7.141 34.184 34.184 0 0 0 .747-7.309 34.542 34.542 0 0 0-.485-5.909 25.795 25.795 0 0 0-2.965-8.441q-3.45-6.05-9.3-9.35a24.848 24.848 0 0 0-4.641-2.027A27.738 27.738 0 0 0 106.3 20.8a31.325 31.325 0 0 0-1.58.039A26.169 26.169 0 0 0 93.1 24.1q-5.9 3.3-9.3 9.4a26.023 26.023 0 0 0-2.749 7.59A35.006 35.006 0 0 0 80.4 48a34.82 34.82 0 0 0 .265 4.354 27.451 27.451 0 0 0 3.085 9.796q3.35 6.15 9.25 9.6zM68.4 74h-9V22h9v52zm37.9-6.8q7.9 0 12.3-5.35a18.802 18.802 0 0 0 3.819-8.09A27.105 27.105 0 0 0 123 48q0-5.2-2.2-9.55a19.198 19.198 0 0 0-4.172-5.569 18.17 18.17 0 0 0-1.778-1.431q-3.75-2.65-8.55-2.65a19.249 19.249 0 0 0-5.226.672A14.037 14.037 0 0 0 94 34a17.878 17.878 0 0 0-3.674 7.374Q89.6 44.306 89.6 47.8q0 5.2 2.2 9.65a19.437 19.437 0 0 0 3.53 5.04 17.627 17.627 0 0 0 2.42 2.06q3.75 2.65 8.55 2.65zm131.2-6.5V32.8q-2.7-1.9-5.95-3.05t-6.85-1.15a15.924 15.924 0 0 0-4.971.754 14.024 14.024 0 0 0-3.479 1.696 16.301 16.301 0 0 0-5.019 5.424 19.962 19.962 0 0 0-.731 1.376 20.663 20.663 0 0 0-1.753 5.677A27.678 27.678 0 0 0 208.4 48q0 5.6 2.1 9.95a17.602 17.602 0 0 0 3.106 4.546 15.697 15.697 0 0 0 2.694 2.254q3.7 2.45 8.3 2.45 3.8 0 7.2-1.85 3.4-1.85 5.7-4.65zM9 35.4v27.8a17.99 17.99 0 0 0 3.63 2.185 21.802 21.802 0 0 0 1.77.715 19.462 19.462 0 0 0 6.164 1.096A22.039 22.039 0 0 0 21 67.2q4.9 0 8.65-2.4t5.9-6.8q2.15-4.4 2.15-10.2 0-6-2.15-10.3-2.15-4.3-5.7-6.6-3.55-2.3-7.85-2.3a14.741 14.741 0 0 0-5.627 1.063 14.054 14.054 0 0 0-2.123 1.087Q10.8 32.9 9 35.4zM178.2 60V32.8q-2.166-1.575-5.203-2.859a36.018 36.018 0 0 0-.097-.041 16.249 16.249 0 0 0-3.804-1.051 22.135 22.135 0 0 0-3.396-.249q-4.1 0-7.7 2.2-3.6 2.2-5.85 6.35-2.25 4.15-2.25 10.15a24.32 24.32 0 0 0 .478 4.936 18.311 18.311 0 0 0 1.772 4.964 18.576 18.576 0 0 0 2.911 4.075A15.802 15.802 0 0 0 158 63.7q3.6 2.3 7.8 2.3a15.276 15.276 0 0 0 4.578-.668A13.606 13.606 0 0 0 173 64.2a20.855 20.855 0 0 0 2.981-2.016A16.309 16.309 0 0 0 178.2 60zM59.537 11.288A5.973 5.973 0 0 0 63.9 13.1a8.175 8.175 0 0 0 1.496-.131A5.647 5.647 0 0 0 68.5 11.35q1.7-1.75 1.7-4.55a7.26 7.26 0 0 0 0-.081 6.06 6.06 0 0 0-1.85-4.369 7.395 7.395 0 0 0-.058-.057A6.059 6.059 0 0 0 63.9.5a8.264 8.264 0 0 0-1.656.158A5.661 5.661 0 0 0 59.3 2.2a5.588 5.588 0 0 0-1.471 2.632A7.987 7.987 0 0 0 57.6 6.8a5.992 5.992 0 0 0 .492 2.419A6.643 6.643 0 0 0 59.45 11.2a7.466 7.466 0 0 0 .087.088z" vector-effect="non-scaling-stroke" fill="#000" fill-rule="evenodd" stroke="#000" stroke-linecap="round" stroke-width=".25mm"/></svg>