<svg xmlns="http://www.w3.org/2000/svg" role="img" viewBox="-0.74 -0.74 38.67 10.49"><title>BIRDS logo</title><g transform="translate(-1.172 8.883)"><path d="M7.75195-2.6836q0 .6504-.2461 1.14844-.24608.49805-.6621.82032-.49219.38672-1.08398.55078Q5.17383 0 4.26563 0H1.17188v-8.7246h2.58398q.95508 0 1.42969.0703.4746.07031.9082.29297.48047.25195.69727.6504.2168.39257.2168.94335 0 .6211-.31641 1.06055-.31641.4336-.84375.69726v.04688q.88476.18164 1.39453.7793.50976.5918.50976 1.5zM5.80078-6.61522q0-.31641-.10547-.5332-.10547-.2168-.33984-.35157-.2754-.1582-.66797-.19336-.39258-.04101-.97266-.04101h-1.3828v2.51953h1.5q.54491 0 .86718-.05274.32226-.0586.59765-.23437.2754-.17578.38672-.45117.1172-.28125.1172-.66211zm.74414 3.97851q0-.52734-.1582-.83789t-.57422-.52734q-.28125-.14649-.68555-.1875-.39843-.04688-.97265-.04688H2.33203v3.2461H3.8672q.76172 0 1.24804-.07618.48633-.08203.79688-.29296.32812-.22852.48047-.52149.15234-.29297.15234-.75586z"/><path d="M12.4746 0H9.0293v-.89063h1.14258v-6.94335H9.0293v-.89063h3.4453v.89063h-1.14257v6.94336h1.14258z"/><path d="M21.66797 0H20.1621l-2.91797-3.46875h-1.63477V0h-1.16015v-8.7246h2.44336q.79101 0 1.31836.10546.52734.0996.94922.36328.4746.29883.73828.75586.26953.45117.26953 1.14844 0 .94336-.47461 1.58203-.47461.63281-1.30664.95508zm-2.7129-6.26953q0-.375-.13476-.66211-.1289-.29297-.4336-.49219-.25194-.16992-.59765-.23437-.3457-.07032-.81445-.07032h-1.36523v3.29297h1.17187q.55078 0 .96094-.09375.41015-.0996.69726-.36328.26367-.2461.38672-.5625.1289-.32226.1289-.81445z"/><path d="M30.16406-4.35352q0 1.18946-.52148 2.15625-.51563.9668-1.37695 1.5-.59766.36914-1.33594.5332Q26.19727 0 24.99609 0h-2.20312v-8.7246h2.17969q1.27734 0 2.02734.1875.75586.18163 1.27734.5039.89063.55664 1.38868 1.48242.49804.92578.49804 2.19726zm-1.21289-.01757q0-1.0254-.35742-1.72852t-1.0664-1.10742q-.51563-.29297-1.0957-.4043-.58009-.11719-1.38868-.11719h-1.08985v6.73243h1.08985q.83789 0 1.45898-.12305.62696-.12305 1.14844-.45703.6504-.41602.97266-1.0957.32812-.6797.32812-1.69922z"/><path d="M38.3789-2.49023q0 .50976-.24023 1.0078-.23437.49806-.6621.84376-.46876.375-1.09571.58594-.6211.21093-1.5.21093-.94336 0-1.69922-.17578-.75-.17578-1.5293-.52148V-1.9922h.08203q.66211.55078 1.5293.84961.86719.29883 1.6289.29883 1.07813 0 1.67579-.4043.60351-.4043.60351-1.07812 0-.58008-.2871-.85547-.28126-.2754-.86133-.42773-.43946-.1172-.95508-.19336-.50977-.07618-1.08399-.19336-1.16015-.2461-1.72265-.8379-.55664-.59765-.55664-1.55273 0-1.0957.92578-1.79297.92578-.70312 2.3496-.70312.91993 0 1.6875.17578.76759.17578 1.35938.4336v1.37109h-.08203q-.49804-.42188-1.3125-.69727-.80859-.28125-1.6582-.28125-.93164 0-1.5.38672-.5625.38672-.5625.9961 0 .54491.28125.85546t.99023.47461q.375.08203 1.06641.19922.6914.11719 1.17188.24023.97265.25782 1.46484.7793.49219.52149.49219 1.45899z"/></g></svg>