<svg xmlns="http://www.w3.org/2000/svg" role="img" viewBox="-19.80 -19.80 1029.60 319.60"><title>blockchain-carbon-accounting logo</title><style>.st1{fill:#373a36}</style><style>.st1{fill:#373a36}</style><style>.st1{fill:#373a36}</style><style>.st1{fill:#373a36}</style><style id="style1102" type="text/css">.st1{fill:#373a36}</style><g id="g1206" transform="translate(-4.792 -4.15)"><g id="g1126"><g id="g1124"><path id="path1104" d="M254.70642 111.35275h44.80649v6.34059h-37.832v26.63018h35.19021v6.3406h-35.19021v35.50637h-6.97449z" class="st1"/><path id="path1106" d="M315.16321 148.76242c0-5.70669.95086-10.95354 2.85257-15.7469 1.90249-4.79018 4.54428-8.92889 7.92611-12.41613 3.38108-3.48725 7.44953-6.21765 12.20539-8.18961 4.75503-1.97195 9.9859-2.95873 15.69259-2.95873 5.70591 0 10.93677.98678 15.69342 2.95873 4.75504 1.97196 8.82349 4.70236 12.20536 8.18961 3.38186 3.48724 6.02286 7.62595 7.92456 12.41613 1.90329 4.79336 2.85333 10.04021 2.85333 15.7469 0 5.7067-.95004 10.97269-2.85333 15.79799-1.90171 4.8253-4.5427 8.98158-7.92456 12.47043-3.38187 3.48724-7.45032 6.19848-12.20536 8.1369-4.75665 1.93523-9.98751 2.90604-15.69342 2.90604-5.70669 0-10.93756-.97081-15.69259-2.90604-4.75586-1.93842-8.82431-4.64966-12.20539-8.1369-3.38183-3.48885-6.02362-7.64513-7.92611-12.47043-1.90171-4.8253-2.85257-10.09129-2.85257-15.79799zm6.97452 0c0 4.64966.73925 8.98157 2.21862 12.99733s3.59345 7.50302 6.34061 10.46175c2.74796 2.95872 6.07632 5.28357 9.9859 6.97448 3.9104 1.69094 8.29581 2.53562 13.15701 2.53562 4.86124 0 9.24665-.84468 13.15622-2.53562 3.91037-1.69091 7.23957-4.01576 9.98752-6.97448 2.74637-2.95873 4.86045-6.44599 6.33899-10.46175 1.48016-4.01576 2.21945-8.34767 2.21945-12.99733 0-4.64967-.73929-8.98318-2.21945-12.99895-1.47854-4.01576-3.59262-7.503-6.33899-10.46173-2.74795-2.95873-6.07715-5.28356-9.98752-6.97449-3.90957-1.69094-8.29498-2.5356-13.15622-2.5356-4.8612 0-9.24661.84466-13.15701 2.5356-3.90958 1.69093-7.23794 4.01576-9.9859 6.97449-2.74716 2.95873-4.86124 6.44597-6.34061 10.46173-1.47937 4.01577-2.21862 8.34928-2.21862 12.99895z" class="st1"/><path id="path1108" d="M468.22208 157.53163c0 4.01737-.45987 7.85748-1.3732 11.51877-.91651 3.66449-2.44937 6.90584-4.59696 9.72406-2.15078 2.81662-4.96744 5.0712-8.45468 6.76213-3.48724 1.69093-7.76645 2.53719-12.83926 2.53719-5.07279 0-9.35202-.84626-12.83927-2.53719-3.48724-1.69093-6.30545-3.94551-8.45465-6.76213-2.1492-2.81822-3.68203-6.05957-4.59695-9.72406-.91654-3.66129-1.3732-7.5014-1.3732-11.51877v-46.17888h6.97449v44.38416c0 2.6777.24591 5.53105.73928 8.55844.4918 3.03059 1.46262 5.84882 2.90604 8.45467 1.44345 2.60745 3.48724 4.75505 6.12982 6.44596 2.64099 1.69094 6.14582 2.53562 10.51444 2.53562 4.36706 0 7.87347-.84468 10.51443-2.53562 2.64258-1.69091 4.68479-3.83851 6.12982-6.44596 1.44187-2.60585 2.41108-5.42408 2.90604-8.45467.49182-3.02739.73929-5.88074.73929-8.55844v-44.38416h6.97452z" class="st1"/><path id="path1110" d="M494.14328 111.35275h8.9816l45.54657 65.5184h.21075v-65.5184h6.97449v74.81774h-8.98315l-45.54499-65.51841h-.21237v65.51841h-6.9729z" class="st1"/><path id="path1112" d="M582.2218 111.35275h23.14295c6.48114 0 11.97546.79357 16.48462 2.37753 4.5075 1.58555 8.25982 3.61178 11.25531 6.07713 2.99224 2.46534 5.35217 5.19574 7.07983 8.1896 1.72449 2.99387 2.9939 5.86478 3.80341 8.61114.80957 2.74956 1.32208 5.23087 1.53289 7.45032.21076 2.21944.31775 3.78743.31775 4.70395 0 .91652-.10699 2.48291-.31775 4.70076-.21081 2.21944-.72332 4.70395-1.53289 7.45032-.80951 2.74795-2.07892 5.62047-3.80341 8.61273-1.72766 2.99545-4.08759 5.72585-7.07983 8.19119-2.99549 2.46535-6.74781 4.48999-11.25531 6.07555-4.50916 1.58554-10.00348 2.37752-16.48462 2.37752H582.2218zm6.97449 68.47714h14.37213c4.93073 0 9.54523-.61474 13.84363-1.84901 4.29516-1.23108 8.02991-3.11839 11.20099-5.65401 3.16955-2.5356 5.66998-5.75938 7.50305-9.66975 1.83142-3.90878 2.74792-8.54088 2.74792-13.8947 0-5.35382-.9165-9.98592-2.74792-13.8979-1.83307-3.90877-4.3335-7.13097-7.50305-9.66816-3.17108-2.5372-6.90583-4.42134-11.20099-5.65401-4.2984-1.23107-8.9129-1.84901-13.84363-1.84901h-14.37213z" class="st1"/><path id="path1114" d="M687.82281 111.35275h7.18689l31.49061 74.81774h-7.82081l-8.1369-19.86646h-39.6275l-8.45465 19.86646h-7.29065zm3.27649 7.60839l-17.43621 41.0023h34.34393z" class="st1"/><path id="path1116" d="M751.88184 117.69334h-25.57319v-6.34059h58.12079v6.34059h-25.57312v68.47715h-6.97448z" class="st1"/><path id="path1118" d="M802.62732 111.35275h6.97449v74.81774h-6.97449z" class="st1"/><path id="path1120" d="M832.00226 148.76242c0-5.70669.95166-10.95354 2.85333-15.7469 1.90173-4.79018 4.54431-8.92889 7.92615-12.41613 3.3819-3.48725 7.45032-6.21765 12.20538-8.18961 4.75507-1.97195 9.9859-2.95873 15.69263-2.95873 5.70666 0 10.93756.98678 15.69263 2.95873 4.755 1.97196 8.82348 4.70236 12.20532 8.18961 3.38189 3.48724 6.02289 7.62595 7.92615 12.41613 1.90173 4.79336 2.85333 10.04021 2.85333 15.7469 0 5.7067-.9516 10.97269-2.85333 15.79799-1.90326 4.8253-4.54426 8.98158-7.92615 12.47043-3.38184 3.48724-7.45032 6.19848-12.20532 8.1369-4.75507 1.93523-9.98597 2.90604-15.69263 2.90604-5.70673 0-10.93756-.97081-15.69263-2.90604-4.75506-1.93842-8.82348-4.64966-12.20538-8.1369-3.38184-3.48885-6.02442-7.64513-7.92615-12.47043-1.90167-4.8253-2.85333-10.09129-2.85333-15.79799zm6.97449 0c0 4.64966.7409 8.98157 2.21948 12.99733 1.48016 4.01576 3.59259 7.50302 6.34057 10.46175 2.74799 2.95872 6.07715 5.28357 9.98591 6.97448 3.9104 1.69094 8.29663 2.53562 13.15704 2.53562s9.24664-.84468 13.15698-2.53562c3.90881-1.69091 7.23798-4.01576 9.98596-6.97448 2.74634-2.95873 4.86042-6.44599 6.34058-10.46175 1.47858-4.01576 2.21942-8.34767 2.21942-12.99733 0-4.64967-.74084-8.98318-2.21942-12.99895-1.48016-4.01576-3.59424-7.503-6.34058-10.46173-2.74798-2.95873-6.07715-5.28356-9.98596-6.97449-3.91034-1.69094-8.29657-2.5356-13.15698-2.5356-4.86041 0-9.24664.84466-13.15704 2.5356-3.90876 1.69093-7.23792 4.01576-9.98591 6.97449-2.74798 2.95873-4.86041 6.44597-6.34057 10.46173-1.47858 4.01577-2.21948 8.34928-2.21948 12.99895z" class="st1"/><path id="path1122" d="M931.65387 111.35275h8.98157l45.54657 65.5184h.21075v-65.5184h6.97455v74.81774h-8.98322l-45.54498-65.51841h-.21075v65.51841h-6.97449z" class="st1"/></g></g><g id="g1180"><path id="path1128" d="M64.36637 190.75864c-.31645 0-.61646-.15343-.8014-.41372l-58.5929-82.97613c-.20275-.28769-.237-.6603-.09042-.97813l42.43742-92.319c.14659-.31919.45208-.53564.8014-.56714l101.0276-9.34424c.34796-.05343.6877.12192.89182.41098l58.59291 82.97477c.20274.28768.237.6603.0904.97812l-42.43605 92.32174c-.14658.31782-.45208.53427-.80141.56715L64.45679 190.7559c-.03014.003-.06027.003-.09042.003zM6.90228 106.69753l57.93809 82.05006 99.90014-9.23874 41.96207-91.29156L148.7645 6.16721l-99.89879 9.23875zm158.49306 73.73738h.0247z" class="st1"/><path id="path1130" d="M64.0143 190.54767l-16.21575-84.42551-.07946-92.29709 79.00473 23.25442 81.92403 50.96518-60.84504 54.08449zM48.7027 15.13747l.0685 90.89154 15.94725 82.97888 82.5131-47.67053 59.78337-53.15569-80.75276-50.23365z" class="st1"/><g id="g1136"><ellipse id="ellipse1132" cx="128.021" cy="38.008" class="st1" rx="2.942" ry="2.947"/><path id="path1134" d="M128.02113 44.07842c-3.34397 0-6.066-2.7234-6.066-6.0715 0-3.34671 2.72203-6.07011 6.066-6.07011 3.34398 0 6.06465 2.7234 6.06465 6.07012 0 3.34808-2.72067 6.07149-6.06465 6.07149zm0-6.24684l-.18219.17535c0 .09726.0822.17672.18219.17672z" class="st1"/></g><g id="g1142"><ellipse id="ellipse1138" cx="147.662" cy="141.586" class="st1" rx="2.942" ry="2.947"/><path id="path1140" d="M147.6617 147.65817c-3.34398 0-6.06464-2.7234-6.06464-6.07148 0-3.34809 2.72066-6.07149 6.06464-6.07149 3.34398 0 6.06602 2.7234 6.06602 6.07149 0 3.34808-2.72204 6.07148-6.06602 6.07148zm0-6.24684l-.18082.17536c0 .0959.0808.17535.18082.17535z" class="st1"/></g><g id="g1148"><ellipse id="ellipse1144" cx="65.086" cy="189.778" class="st1" rx="2.942" ry="2.947"/><path id="path1146" d="M65.08559 195.84927c-3.34399 0-6.06465-2.7234-6.06465-6.0715 0-3.34808 2.72066-6.07149 6.06465-6.07149 3.34397 0 6.066 2.72341 6.066 6.07149 0 3.3481-2.72203 6.0715-6.066 6.0715zm0-6.24684l-.18083.17534c0 .0959.08083.17535.18083.17535z" class="st1"/></g><g id="g1154"><ellipse id="ellipse1150" cx="48.21" cy="107.011" class="st1" rx="2.942" ry="2.947"/><path id="path1152" d="M48.2109 113.08136c-3.34399 0-6.06602-2.7234-6.06602-6.06876 0-3.34808 2.72203-6.07148 6.06601-6.07148s6.06465 2.7234 6.06465 6.07148c0 3.34536-2.72067 6.06876-6.06465 6.06876zm0-6.24684l-.1822.17808c0 .0959.08356.17536.1822.17536z" class="st1"/></g><g id="g1160"><ellipse id="ellipse1156" cx="207.831" cy="88.26" class="st1" rx="2.942" ry="2.947"/><path id="path1158" d="M207.83139 94.32987c-3.34398 0-6.06601-2.7234-6.06601-6.06875 0-3.34809 2.72203-6.0715 6.06601-6.0715s6.06601 2.72341 6.06601 6.0715c0 3.34535-2.72203 6.06875-6.06601 6.06875zm0-6.24684l-.18083.1781c0 .09588.0808.17534.18083.17534z" class="st1"/></g><g id="g1166"><ellipse id="ellipse1162" cx="48.21" cy="14.482" class="st1" rx="2.942" ry="2.947"/><path id="path1164" d="M48.2109 20.55276c-3.34399 0-6.06602-2.7234-6.06602-6.0715 0-3.3467 2.72203-6.07011 6.06601-6.07011s6.06465 2.7234 6.06465 6.07012c0 3.34809-2.72067 6.07149-6.06465 6.07149zm0-6.24684l-.1822.17535c0 .09726.08218.17672.1822.17672z" class="st1"/></g><path id="path1168" d="M165.39534 181.41577c-.1096 0-.22057-.0164-.32741-.0548l-77.03068-27.19293-82.74462-46.51157c-.27399-.15343-.45893-.43015-.49455-.7425-.03561-.31234.08083-.62468.31235-.83565l62.2547-57.04627 81.40072-44.75532c.26851-.1507.59044-.16165.87538-.03562.28084.1274.48633.3781.55483.6781l18.23776 80.17603-2.05762 95.36159c-.007.31508-.16439.6055-.42331.78633-.16575.11509-.36028.17261-.55755.17261zM7.43518 106.60985l81.41032 45.7773 75.59774 26.67236 2.05214-93.76837L148.56996 6.6234 68.5008 50.61568z" class="st1"/><path id="path1170" d="M147.98227 141.95656l-.4014-.137-99.85219-34.7138.32193-.27946 80.13218-69.28377zm-99.28917-35.0371l98.64804 34.29734-19.48165-102.74547z" class="st1"/><path id="path1172" d="M87.72627 155.08315L66.73223 48.24983l102.66465 36.70704zM69.32412 51.26092L89.00304 151.4008l76.55258-65.73157z" class="st1"/><path id="rect1174" d="M57.138 11.888h1.964v40.46h-1.964z" class="st1" transform="rotate(-29.328 58.12 32.118)"/><path id="polygon1176" d="M87.537 152.713l1.655 1.058-23.279 36.536-1.655-1.058z" class="st1"/><path id="rect1178" d="M186.673 66.555h1.962v40.463h-1.962z" class="st1" transform="rotate(-85.822 187.654 86.787)"/></g><g id="g1204"><path id="path1182" d="M253.6989 20.27717h16.48537v27.89797h32.01913V20.27717h16.48538V95.0949H302.2034V62.75963h-32.01913V95.0949H253.6989z" class="st1"/><path id="path1184" d="M350.17938 63.18116l-28.10953-42.904h20.50034l15.8515 28.00336 16.80234-28.00336h19.55029l-28.11035 42.904V95.0949h-16.48459z" class="st1"/><path id="path1186" d="M398.15457 20.27717h27.7926c3.87366 0 7.53653.35447 10.99027 1.05703 3.45053.70575 6.46194 1.91926 9.03427 3.64532 2.57071 1.72766 4.61295 4.05249 6.12982 6.9745 1.5137 2.9236 2.27213 6.60565 2.27213 11.04454 0 4.36864-.70575 8.02993-2.11405 10.98866-1.40991 2.96033-3.34674 5.32029-5.81207 7.07988-2.46695 1.76278-5.38895 3.01142-8.77081 3.7523-3.38187.73929-7.04636 1.10972-10.99027 1.10972h-12.0473V95.0949h-16.48459zm16.48459 31.70137h10.99027c1.48016 0 2.90603-.13891 4.28082-.42153 1.37317-.28103 2.60425-.75685 3.69803-1.42748 1.09054-.66743 1.97195-1.58395 2.64096-2.74636.66903-1.16242 1.00433-2.62502 1.00433-4.3846 0-1.9033-.44067-3.43616-1.32046-4.59858-.88141-1.16241-2.0087-2.05977-3.38187-2.69527-1.3732-.6323-2.90604-1.03787-4.59699-1.2135-1.69091-.17565-3.31161-.26507-4.86041-.26507h-8.45468z" class="st1"/><path id="path1188" d="M463.24826 20.27717h50.83017v15.21678h-34.34399v13.949h32.44067v15.21678h-32.44067V79.8781h36.24566v15.2168h-52.73184z" class="st1"/><path id="path1190" d="M527.07416 20.27717h28.95501c3.805 0 7.41358.37044 10.83216 1.10972 3.4154.73928 6.40924 1.97355 8.98157 3.69961 2.57074 1.72606 4.61297 4.0509 6.12982 6.9745 1.51373 2.9236 2.27215 6.56892 2.27215 10.93756 0 5.28197-1.37475 9.77355-4.12274 13.47317-2.74634 3.698-6.76214 6.0404-12.04571 7.02558l19.0202 31.5976h-19.76105l-15.6383-29.90507h-8.13697V95.0949h-16.48614zm16.48614 30.96368h9.72089c1.48016 0 3.04657-.05429 4.70233-.15967 1.65582-.10538 3.15198-.42154 4.49164-.95165 1.33801-.52692 2.44775-1.35402 3.32916-2.4813.87976-1.1273 1.3205-2.71124 1.3205-4.75665 0-1.9017-.388-3.4154-1.16242-4.54268-.77606-1.12729-1.76123-1.99112-2.95874-2.58989-1.19916-.59718-2.57232-1.00434-4.12115-1.2167-1.55042-.21077-3.06415-.31616-4.54431-.31616h-10.7779z" class="st1"/><path id="path1192" d="M594.07269 20.27717h16.48621V79.8781h30.53894v15.2168h-47.02515z" class="st1"/><path id="path1194" d="M648.70465 20.27717h50.83014v15.21678h-34.34393v13.949h32.44061v15.21678h-32.44061V79.8781h36.2456v15.2168h-52.73181z" class="st1"/><path id="path1196" d="M712.53052 20.27717h24.72851c5.98609 0 11.67682.67062 17.0658 2.00868 5.38892 1.33805 10.09131 3.5048 14.10705 6.49867 4.01575 2.99545 7.20282 6.88667 9.5644 11.67685 2.35992 4.79177 3.53991 10.60385 3.53991 17.43623 0 6.05957-1.14642 11.39583-3.43457 16.01036-2.28967 4.61453-5.37298 8.48978-9.24664 11.62415-3.87524 3.13597-8.34766 5.5119-13.42047 7.13258-5.07275 1.62067-10.39307 2.43021-15.95606 2.43021h-26.94793zm16.4862 59.60094h8.55841c3.80506 0 7.34497-.3864 10.62146-1.16241 3.27485-.77442 6.11066-2.06137 8.50574-3.8577 2.39508-1.7963 4.28082-4.15626 5.65399-7.07987 1.37317-2.9236 2.05982-6.49867 2.05982-10.7252 0-3.66288-.68665-6.85154-2.05982-9.56438-1.37317-2.71124-3.22375-4.94825-5.54858-6.70944-2.32483-1.76118-5.05524-3.08168-8.18964-3.96307-3.13434-.88139-6.4284-1.32209-9.88055-1.32209h-9.72083z" class="st1"/><path id="path1198" d="M858.36102 89.81134c-4.86206 2.5356-9.93322 4.36864-15.21679 5.49593-5.28516 1.12409-10.67414 1.68933-16.16846 1.68933-5.84882 0-11.23773-.91652-16.1684-2.74636-4.93231-1.83305-9.19397-4.45487-12.78662-7.87346-3.59259-3.4154-6.39325-7.5557-8.40191-12.41773-2.00708-4.86043-3.01148-10.2845-3.01148-16.27382 0-5.98611 1.0044-11.41179 3.01148-16.27382 2.00866-4.86042 4.80932-8.99914 8.40191-12.41613 3.59265-3.41699 7.85431-6.03881 12.78662-7.87185 4.93067-1.83144 10.31958-2.74796 16.1684-2.74796 5.98614 0 11.49963.72331 16.53729 2.16675 5.03607 1.44344 9.4574 3.92794 13.26239 7.45032l-11.62414 12.68119c-2.25617-2.32483-4.79175-4.08602-7.6084-5.28516-2.81824-1.19754-6.34058-1.79632-10.56714-1.79632-3.52399 0-6.711.59878-9.56439 1.79632-2.85334 1.19914-5.30109 2.87091-7.34333 5.0201-2.04541 2.1492-3.61175 4.70236-4.70391 7.66109-1.09217 2.95873-1.63666 6.16655-1.63666 9.61547 0 3.52557.54449 6.74776 1.63666 9.66977 1.09216 2.9252 2.6585 5.4608 4.70391 7.60999 2.04224 2.1492 4.48999 3.82256 7.34333 5.0185 2.85339 1.19915 6.0404 1.79633 9.56439 1.79633 3.59265 0 6.69189-.40558 9.29932-1.21512 2.60589-.80953 4.68322-1.63823 6.23364-2.4829V65.92911h-13.42047V50.71074h29.27276z" class="st1"/><path id="path1200" d="M871.35834 20.27717h50.83014v15.21678h-34.34394v13.949h32.44068v15.21678h-32.44068V79.8781h36.24567v15.2168h-52.73187z" class="st1"/><path id="path1202" d="M935.18585 20.27717h28.95496c3.80499 0 7.41363.37044 10.83221 1.10972 3.41541.73928 6.40924 1.97355 8.98157 3.69961 2.57074 1.72606 4.61292 4.0509 6.12982 6.9745 1.51367 2.9236 2.27216 6.56892 2.27216 10.93756 0 5.28197-1.37482 9.77355-4.12274 13.47317-2.7464 3.698-6.76215 6.0404-12.04572 7.02558l19.0202 31.5976h-19.76104L959.8089 65.18983h-8.1369V95.0949h-16.48615zM951.672 51.24085h9.72088c1.48017 0 3.04651-.05429 4.70233-.15967 1.65583-.10538 3.15192-.42154 4.49158-.95165 1.33808-.52692 2.44782-1.35402 3.32916-2.4813.87983-1.1273 1.3205-2.71125 1.3205-4.75665 0-1.9017-.388-3.4154-1.16241-4.54268-.77601-1.12729-1.76117-1.99112-2.95874-2.58989-1.1991-.59718-2.57227-1.00434-4.1211-1.2167-1.55041-.21077-3.06415-.31616-4.54431-.31616H951.672z" class="st1"/></g></g><g id="text1332" transform="translate(-217.515 -116.444) scale(1.56917)"><path id="path1334" d="M178.08224 233.50998q0 2.73437-.78125 4.92187-.76171 2.1875-2.07031 3.67188-1.38672 1.54297-3.04687 2.32422-1.66016.76172-3.65235.76172-1.85547 0-3.24218-.44922-1.38672-.42969-2.73438-1.17188l-.23437 1.01563h-3.4375v-30.39063h3.67187v10.85938q1.54297-1.26953 3.28125-2.07031 1.73828-.82032 3.90625-.82032 3.86719 0 6.09375 2.96875 2.24609 2.96875 2.24609 8.37891zm-3.78906.0977q0-3.90625-1.28906-5.91797-1.28906-2.03125-4.16016-2.03125-1.60156 0-3.24218.70312-1.64063.6836-3.04688 1.77735v12.5q1.5625.70312 2.67578.97656 1.13281.27344 2.5586.27344 3.04687 0 4.76562-1.99219 1.73828-2.01172 1.73828-6.28906z"/><path id="path1336" d="M187.51584 244.5842h-3.67188v-30.39063h3.67188z"/><path id="path1338" d="M213.37521 233.68576q0 5.33203-2.73437 8.41797-2.73438 3.08594-7.32422 3.08594-4.62891 0-7.36328-3.08594-2.71485-3.08594-2.71485-8.41797 0-5.33203 2.71485-8.41797 2.73437-3.10547 7.36328-3.10547 4.58984 0 7.32422 3.10547 2.73437 3.08594 2.73437 8.41797zm-3.78906 0q0-4.23828-1.66016-6.28906-1.66015-2.07031-4.60937-2.07031-2.98828 0-4.64844 2.07031-1.64062 2.05078-1.64062 6.28906 0 4.10156 1.66015 6.23047 1.66016 2.10937 4.62891 2.10937 2.92969 0 4.58984-2.08984 1.67969-2.10937 1.67969-6.25z"/><path id="path1340" d="M235.19162 243.21701q-1.83594.87891-3.49609 1.36719-1.64063.48828-3.4961.48828-2.36328 0-4.33594-.68359-1.97265-.70313-3.3789-2.10938-1.42578-1.40625-2.20703-3.55469-.78125-2.14843-.78125-5.01953 0-5.35156 2.92968-8.39844 2.94922-3.04687 7.77344-3.04687 1.875 0 3.67188.52734 1.8164.52735 3.32031 1.28907v4.08203h-.19531q-1.67969-1.3086-3.47657-2.01172-1.77734-.70313-3.47656-.70313-3.125 0-4.9414 2.10938-1.79688 2.08984-1.79688 6.15234 0 3.94531 1.75781 6.07422 1.77735 2.10938 4.98047 2.10938 1.11328 0 2.26563-.29297 1.15234-.29297 2.07031-.76172.80078-.41016 1.50391-.85938.70312-.46875 1.11328-.80078h.19531z"/><path id="path1342" d="M259.70334 244.5842h-4.84375l-8.75-9.55078-2.38281 2.26562v7.28516h-3.67188v-30.39063h3.67188v19.49219l10.60546-10.91797h4.62891l-10.13672 10.07813z"/><path id="path1344" d="M279.70334 243.21701q-1.83594.87891-3.4961 1.36719-1.64062.48828-3.49609.48828-2.36328 0-4.33594-.68359-1.97265-.70313-3.3789-2.10938-1.42578-1.40625-2.20703-3.55469-.78125-2.14843-.78125-5.01953 0-5.35156 2.92968-8.39844 2.94922-3.04687 7.77344-3.04687 1.875 0 3.67188.52734 1.8164.52735 3.32031 1.28907v4.08203h-.19531q-1.67969-1.3086-3.47657-2.01172-1.77734-.70313-3.47656-.70313-3.125 0-4.94141 2.10938-1.79687 2.08984-1.79687 6.15234 0 3.94531 1.75781 6.07422 1.77735 2.10938 4.98047 2.10938 1.11328 0 2.26563-.29297 1.15234-.29297 2.07031-.76172.80078-.41016 1.5039-.85938.70313-.46875 1.11329-.80078h.19531z"/><path id="path1346" d="M302.65256 244.5842h-3.67188v-12.42188q0-1.5039-.17578-2.8125-.17578-1.32812-.64453-2.07031-.48828-.82031-1.40625-1.21094-.91797-.41015-2.38281-.41015-1.50391 0-3.14453.74218-1.64063.74219-3.14454 1.89454v16.28906h-3.67187v-30.39063h3.67187v10.9961q1.71875-1.42578 3.55469-2.22657 1.83594-.80078 3.76953-.80078 3.53516 0 5.39063 2.12891t1.85547 6.13281z"/><path id="path1348" d="M326.67599 244.5842h-3.65234v-2.32422q-.48828.33203-1.32812.9375-.82032.58594-1.60157.9375-.91797.44922-2.10937.74219-1.19141.3125-2.79297.3125-2.94922 0-5-1.95313-2.05078-1.95312-2.05078-4.98047 0-2.48047 1.05469-4.0039 1.07421-1.54297 3.04687-2.42188 1.99219-.8789 4.78516-1.1914 2.79297-.3125 5.99609-.46875v-.56641q0-1.25-.44922-2.07031-.42969-.82032-1.25-1.28907-.78125-.44921-1.875-.60546t-2.28515-.15625q-1.44532 0-3.22266.39062-1.77734.37109-3.67188 1.09375h-.19531v-3.73047q1.07422-.29297 3.10547-.64453 2.03125-.35156 4.00391-.35156 2.30468 0 4.0039.39062 1.71875.3711 2.96875 1.28907 1.23047.89843 1.875 2.32421.64453 1.42579.64453 3.53516zm-3.65234-5.3711v-6.07421q-1.67969.0976-3.96484.29296-2.26563.19532-3.59375.56641-1.58203.44922-2.5586 1.40625-.97656.9375-.97656 2.59766 0 1.875 1.13281 2.83203 1.13282.9375 3.45703.9375 1.9336 0 3.53516-.74219 1.60156-.76172 2.96875-1.81641z"/><path id="path1350" d="M337.69162 219.11545h-4.14063v-3.8086h4.14063zm-.23438 25.46875h-3.67187v-21.81641h3.67187z"/><path id="path1352" d="M362.96506 244.5842h-3.67188v-12.42188q0-1.5039-.17578-2.8125-.17578-1.32812-.64453-2.07031-.48828-.82031-1.40625-1.21094-.91797-.41015-2.38281-.41015-1.50391 0-3.14453.74218-1.64063.74219-3.14454 1.89454v16.28906h-3.67187v-21.81641h3.67187v2.42188q1.71875-1.42578 3.55469-2.22657 1.83594-.80078 3.76953-.80078 3.53516 0 5.39063 2.12891t1.85547 6.13281z"/><path id="path1354" d="M381.59787 233.62717h-12.1875v-3.53516h12.1875z"/><path id="path1356" d="M404.33224 243.21701q-1.83593.87891-3.49609 1.36719-1.64062.48828-3.49609.48828-2.36328 0-4.33594-.68359-1.97266-.70313-3.37891-2.10938-1.42578-1.40625-2.20703-3.55469-.78125-2.14843-.78125-5.01953 0-5.35156 2.92969-8.39844 2.94922-3.04687 7.77344-3.04687 1.875 0 3.67187.52734 1.81641.52735 3.32031 1.28907v4.08203h-.19531q-1.67969-1.3086-3.47656-2.01172-1.77734-.70313-3.47656-.70313-3.125 0-4.94141 2.10938-1.79687 2.08984-1.79687 6.15234 0 3.94531 1.75781 6.07422 1.77734 2.10938 4.98047 2.10938 1.11328 0 2.26562-.29297 1.15235-.29297 2.07031-.76172.80079-.41016 1.50391-.85938.70313-.46875 1.11328-.80078h.19531z"/><path id="path1358" d="M425.9924 244.5842h-3.65234v-2.32422q-.48828.33203-1.32813.9375-.82031.58594-1.60156.9375-.91797.44922-2.10938.74219-1.1914.3125-2.79296.3125-2.94922 0-5-1.95313-2.05079-1.95312-2.05079-4.98047 0-2.48047 1.05469-4.0039 1.07422-1.54297 3.04688-2.42188 1.99218-.8789 4.78515-1.1914 2.79297-.3125 5.9961-.46875v-.56641q0-1.25-.44922-2.07031-.42969-.82032-1.25-1.28907-.78125-.44921-1.875-.60546t-2.28516-.15625q-1.44531 0-3.22265.39062-1.77735.37109-3.67188 1.09375h-.19531v-3.73047q1.07422-.29297 3.10547-.64453 2.03125-.35156 4.0039-.35156 2.30469 0 4.00391.39062 1.71875.3711 2.96875 1.28907 1.23047.89843 1.875 2.32421.64453 1.42579.64453 3.53516zm-3.65234-5.3711v-6.07421q-1.67969.0976-3.96485.29296-2.26562.19532-3.59375.56641-1.58203.44922-2.55859 1.40625-.97656.9375-.97656 2.59766 0 1.875 1.13281 2.83203 1.13281.9375 3.45703.9375 1.93359 0 3.53516-.74219 1.60156-.76172 2.96875-1.81641z"/><path id="path1360" d="M446.67599 226.7717h-.19531q-.82031-.19531-1.60156-.27344-.76172-.0977-1.81641-.0977-1.69922 0-3.28125.76172-1.58203.74219-3.04687 1.9336v15.48828h-3.67188v-21.81641h3.67188v3.22266q2.1875-1.75781 3.84765-2.48047 1.67969-.74219 3.41797-.74219.95703 0 1.38672.0586.42969.0391 1.28906.17578z"/><path id="path1362" d="M469.33224 233.50998q0 2.73437-.78125 4.92187-.76171 2.1875-2.07031 3.67188-1.38672 1.54297-3.04687 2.32422-1.66016.76172-3.65235.76172-1.85547 0-3.24218-.44922-1.38672-.42969-2.73438-1.17188l-.23437 1.01563h-3.4375v-30.39063h3.67187v10.85938q1.54297-1.26953 3.28125-2.07031 1.73828-.82032 3.90625-.82032 3.86719 0 6.09375 2.96875 2.24609 2.96875 2.24609 8.37891zm-3.78906.0977q0-3.90625-1.28906-5.91797-1.28906-2.03125-4.16016-2.03125-1.60156 0-3.24218.70312-1.64063.6836-3.04688 1.77735v12.5q1.5625.70312 2.67578.97656 1.13281.27344 2.5586.27344 3.04687 0 4.76562-1.99219 1.73828-2.01172 1.73828-6.28906z"/><path id="path1364" d="M493.64865 233.68576q0 5.33203-2.73437 8.41797-2.73438 3.08594-7.32422 3.08594-4.62891 0-7.36328-3.08594-2.71485-3.08594-2.71485-8.41797 0-5.33203 2.71485-8.41797 2.73437-3.10547 7.36328-3.10547 4.58984 0 7.32422 3.10547 2.73437 3.08594 2.73437 8.41797zm-3.78906 0q0-4.23828-1.66016-6.28906-1.66015-2.07031-4.60937-2.07031-2.98828 0-4.64844 2.07031-1.64063 2.05078-1.64063 6.28906 0 4.10156 1.66016 6.23047 1.66016 2.10937 4.62891 2.10937 2.92968 0 4.58984-2.08984 1.67969-2.10937 1.67969-6.25z"/><path id="path1366" d="M517.57443 244.5842h-3.67187v-12.42188q0-1.5039-.17578-2.8125-.17579-1.32812-.64454-2.07031-.48828-.82031-1.40625-1.21094-.91796-.41015-2.38281-.41015-1.5039 0-3.14453.74218-1.64062.74219-3.14453 1.89454v16.28906h-3.67188v-21.81641h3.67188v2.42188q1.71875-1.42578 3.55469-2.22657 1.83593-.80078 3.76953-.80078 3.53515 0 5.39062 2.12891 1.85547 2.12891 1.85547 6.13281z"/><path id="path1368" d="M536.20724 233.62717h-12.1875v-3.53516h12.1875z"/><path id="path1370" d="M559.37131 244.5842h-3.65235v-2.32422q-.48828.33203-1.32812.9375-.82031.58594-1.60156.9375-.91797.44922-2.10938.74219-1.19141.3125-2.79297.3125-2.94922 0-5-1.95313-2.05078-1.95312-2.05078-4.98047 0-2.48047 1.05469-4.0039 1.07422-1.54297 3.04687-2.42188 1.99219-.8789 4.78516-1.1914 2.79297-.3125 5.99609-.46875v-.56641q0-1.25-.44922-2.07031-.42968-.82032-1.25-1.28907-.78125-.44921-1.875-.60546t-2.28515-.15625q-1.44531 0-3.22266.39062-1.77734.37109-3.67187 1.09375h-.19532v-3.73047q1.07422-.29297 3.10547-.64453 2.03125-.35156 4.00391-.35156 2.30469 0 4.00391.39062 1.71875.3711 2.96875 1.28907 1.23046.89843 1.875 2.32421.64453 1.42579.64453 3.53516zm-3.65235-5.3711v-6.07421q-1.67968.0976-3.96484.29296-2.26563.19532-3.59375.56641-1.58203.44922-2.55859 1.40625-.97657.9375-.97657 2.59766 0 1.875 1.13282 2.83203 1.13281.9375 3.45703.9375 1.93359 0 3.53515-.74219 1.60157-.76172 2.96875-1.81641z"/><path id="path1372" d="M582.57443 243.21701q-1.83594.87891-3.49609 1.36719-1.64063.48828-3.4961.48828-2.36328 0-4.33593-.68359-1.97266-.70313-3.37891-2.10938-1.42578-1.40625-2.20703-3.55469-.78125-2.14843-.78125-5.01953 0-5.35156 2.92969-8.39844 2.94922-3.04687 7.77343-3.04687 1.875 0 3.67188.52734 1.81641.52735 3.32031 1.28907v4.08203h-.19531q-1.67969-1.3086-3.47656-2.01172-1.77735-.70313-3.47657-.70313-3.125 0-4.9414 2.10938-1.79688 2.08984-1.79688 6.15234 0 3.94531 1.75782 6.07422 1.77734 2.10938 4.98046 2.10938 1.11329 0 2.26563-.29297t2.07031-.76172q.80078-.41016 1.50391-.85938.70312-.46875 1.11328-.80078h.19531z"/><path id="path1374" d="M603.41428 243.21701q-1.83594.87891-3.4961 1.36719-1.64062.48828-3.49609.48828-2.36328 0-4.33594-.68359-1.97266-.70313-3.37891-2.10938-1.42578-1.40625-2.20703-3.55469-.78125-2.14843-.78125-5.01953 0-5.35156 2.92969-8.39844 2.94922-3.04687 7.77344-3.04687 1.875 0 3.67187.52734 1.81641.52735 3.32032 1.28907v4.08203h-.19532q-1.67968-1.3086-3.47656-2.01172-1.77734-.70313-3.47656-.70313-3.125 0-4.94141 2.10938-1.79687 2.08984-1.79687 6.15234 0 3.94531 1.75781 6.07422 1.77734 2.10938 4.98047 2.10938 1.11328 0 2.26562-.29297 1.15235-.29297 2.07032-.76172.80078-.41016 1.5039-.85938.70313-.46875 1.11328-.80078h.19532z"/><path id="path1376" d="M626.71506 233.68576q0 5.33203-2.73438 8.41797-2.73437 3.08594-7.32422 3.08594-4.6289 0-7.36328-3.08594-2.71484-3.08594-2.71484-8.41797 0-5.33203 2.71484-8.41797 2.73438-3.10547 7.36328-3.10547 4.58985 0 7.32422 3.10547 2.73438 3.08594 2.73438 8.41797zm-3.78907 0q0-4.23828-1.66015-6.28906-1.66016-2.07031-4.60938-2.07031-2.98828 0-4.64843 2.07031-1.64063 2.05078-1.64063 6.28906 0 4.10156 1.66016 6.23047 1.66015 2.10937 4.6289 2.10937 2.92969 0 4.58985-2.08984 1.67968-2.10937 1.67968-6.25z"/><path id="path1378" d="M650.48459 244.5842h-3.67188v-2.42188q-1.85547 1.46485-3.55468 2.2461-1.69922.78125-3.75.78125-3.4375 0-5.35157-2.08985-1.91406-2.10937-1.91406-6.17187v-14.16016h3.67188v12.42188q0 1.66015.15625 2.85156.15625 1.17187.66406 2.01172.52734.85937 1.36719 1.25.83984.39062 2.4414.39062 1.42578 0 3.10547-.74218 1.69922-.74219 3.16406-1.89454v-16.28906h3.67188z"/><path id="path1380" d="M675.95334 244.5842h-3.67188v-12.42188q0-1.5039-.17578-2.8125-.17578-1.32812-.64453-2.07031-.48828-.82031-1.40625-1.21094-.91797-.41015-2.38281-.41015-1.50391 0-3.14453.74218-1.64063.74219-3.14453 1.89454v16.28906h-3.67188v-21.81641h3.67188v2.42188q1.71875-1.42578 3.55468-2.22657 1.83594-.80078 3.76953-.80078 3.53516 0 5.39063 2.12891t1.85547 6.13281z"/><path id="path1382" d="M694.35178 244.38889q-1.03516.27343-2.26563.44921-1.21094.17579-2.16797.17579-3.33984 0-5.07812-1.79688-1.73828-1.79687-1.73828-5.76172v-11.60156h-2.48047v-3.08594h2.48047v-6.26953h3.67187v6.26953h7.57813v3.08594h-7.57813v9.94141q0 1.71875.0781 2.69531.0781.95703.54687 1.79687.42969.78125 1.17188 1.15235.76171.35156 2.30468.35156.89844 0 1.875-.25391.97657-.27343 1.40625-.44922h.19532z"/><path id="path1384" d="M702.73068 219.11545h-4.14062v-3.8086h4.14062zm-.23437 25.46875h-3.67188v-21.81641h3.67188z"/><path id="path1386" d="M728.00412 244.5842h-3.67188v-12.42188q0-1.5039-.17578-2.8125-.17578-1.32812-.64453-2.07031-.48828-.82031-1.40625-1.21094-.91797-.41015-2.38281-.41015-1.50391 0-3.14453.74218-1.64063.74219-3.14453 1.89454v16.28906h-3.67188v-21.81641h3.67188v2.42188q1.71875-1.42578 3.55468-2.22657 1.83594-.80078 3.76954-.80078 3.53515 0 5.39062 2.12891 1.85547 2.12891 1.85547 6.13281z"/><path id="path1388" d="M752.76974 242.10373q0 5.54687-2.51953 8.14453-2.51953 2.59766-7.7539 2.59766-1.73828 0-3.39844-.25391-1.64063-.23437-3.24219-.68359v-3.75h.19531q.89844.35156 2.85157.85937 1.95312.52735 3.90625.52735 1.875 0 3.10547-.44922 1.23046-.44922 1.91406-1.25.68359-.76172.97656-1.83594.29297-1.07422.29297-2.40234v-1.99219q-1.66016 1.32812-3.18359 1.99219-1.50391.64453-3.84766.64453-3.90625 0-6.21094-2.8125-2.28515-2.83203-2.28515-7.96875 0-2.8125.78125-4.84375.80078-2.05078 2.16796-3.53516 1.26954-1.38672 3.08594-2.14844 1.81641-.78125 3.61328-.78125 1.89453 0 3.16407.39063 1.28906.37109 2.71484 1.15234l.23437-.9375h3.4375zm-3.67187-3.51563v-11.89453q-1.46484-.66406-2.73438-.9375-1.25-.29297-2.5-.29297-3.02734 0-4.76562 2.03125t-1.73828 5.89844q0 3.67188 1.28906 5.56641 1.28906 1.89453 4.27734 1.89453 1.60157 0 3.20313-.60547 1.62109-.625 2.96875-1.66016z"/></g></svg>