<svg xmlns="http://www.w3.org/2000/svg" role="img" viewBox="-93.28 -8.29 430.82 116.57"><title>BONSAI logo</title><path d="M-48.53742 53.95033c1.30901.3139 2.59347.82318 3.85007 1.52914 1.25726.70596 2.38315 1.59536 3.37835 2.66689.99519 1.07218 1.78073 2.31324 2.35794 3.72516.57588 1.41126.86383 2.98014.86383 4.70596 0 3.03245-.6157 5.58146-1.84642 7.64636-1.23138 2.06623-2.85554 3.73907-4.87113 5.0192-2.01693 1.28213-4.32179 2.19603-6.9146 2.74504-2.5928.549-5.25196.82384-7.9748.82384h-25.2215V27.28477h22.86488c2.25112 0 4.64755.17086 7.1886.50993 2.5404.34106 4.88374 1.01987 7.03203 2.03908 2.14763 1.0192 3.92902 2.50927 5.34286 4.4702 1.4145 1.96092 2.12175 4.53642 2.12175 7.72516 0 2.98013-.7464 5.43841-2.23985 7.37219-1.49212 1.9351-3.4699 3.37284-5.932 4.3139zm-18.93519 6.66623v7.52914h5.57838c1.4656 0 2.65783-.32583 3.57474-.98014.91624-.65298 1.37535-1.60794 1.37535-2.86291 0-.73179-.19638-1.33311-.58982-1.80397-.39277-.4702-.87776-.84901-1.45298-1.13709-.5772-.28675-1.19224-.48278-1.8464-.58808-.6555-.10397-1.27054-.15695-1.84642-.15695zm0-18.82252v6.82318h5.02838c1.309 0 2.38315-.30066 3.2211-.90199.8373-.60066 1.25726-1.52914 1.25726-2.7841 0-1.04504-.44585-1.82914-1.33555-2.35298-.89103-.52186-2.07-.78411-3.53558-.78411zM77.5682 27.28477h18.62136l15.87133 28.15563h.31448l-.78554-28.15563h17.75689v55.52715h-19.09244L94.854 56.30332h-.31448l.78554 26.5086H77.56818zm166.96114.0002h19.87864l21.68657 55.52649h-20.35036l-2.90729-8.1563H245.1583l-2.75005 8.1563H222.6079zm9.66465 19.37152L249.636 60.38166h9.03568zm56.2563-19.37192h18.8569v55.52715h-18.8569zM171.73453 83.79603c-2.17416-.3914-4.26871-.96358-6.28563-1.71722-2.01692-.75497-3.91641-1.63841-5.69648-2.65298-1.7814-1.01457-3.37835-2.1457-4.79218-3.3947l11.39296-12.3563c1.30834 1.41193 3.05059 2.6669 5.22409 3.7649 2.1735 1.09802 4.41269 1.64703 6.71888 1.64703 1.04628 0 2.00299-.18212 2.86748-.55034.86383-.36622 1.29574-1.04768 1.29574-2.04238 0-.52318-.1453-.96821-.43191-1.33576-.28861-.36689-.79881-.74636-1.53194-1.13841-.73379-.39205-1.74225-.82517-3.02538-1.2967-1.28446-.47019-2.89468-1.02052-4.83199-1.65098-1.8849-.62716-3.69283-1.37351-5.42115-2.23841-1.72831-.86424-3.26091-1.92517-4.59646-3.18279-1.33621-1.25695-2.39576-2.76225-3.1813-4.51655-.7862-1.75497-1.17963-3.86292-1.17963-6.32583 0-3.45563.70725-6.3894 2.12175-8.79868 1.4145-2.40927 3.23371-4.38741 5.46095-5.93245 2.22525-1.54503 4.72584-2.65761 7.50309-3.33907 2.77526-.68146 5.52597-1.02185 8.25014-1.02185 3.66629 0 7.3976.70596 11.19592 2.11722 3.79765 1.41192 7.13751 3.45099 10.01827 6.11788l-11.62783 11.84238c-1.25793-1.56887-2.80313-2.75695-4.63627-3.56887-1.83447-.80994-3.48384-1.21524-4.95009-1.21524-1.36275 0-2.46277.19603-3.29939.58808-.83928.39206-1.25792 1.03312-1.25792 1.92186 0 .83642.43191 1.46424 1.2964 1.88212.86383.41854 2.26506.94106 4.20303 1.5682 1.99038.62716 4.08692 1.36027 6.2863 2.19604 2.20004.83708 4.2289 1.92185 6.08925 3.25496 1.85901 1.33312 3.39095 2.96755 4.59712 4.90133 1.20418 1.9351 1.80594 4.3404 1.80594 7.21523 0 3.34702-.66678 6.26225-2.00299 8.74503-1.33621 2.4841-3.09106 4.549-5.26456 6.19537-2.17417 1.64702-4.62367 2.87682-7.34585 3.68675-2.72484.80994-5.5001 1.21523-8.32843 1.21523-2.25378 0-4.46709-.19602-6.63993-.5841zm-181.8264 4.7508H45.2428v11.50132h-55.33468zM9.82882 6.44833L3.37002 0-3.0901 6.44702l-7.95358 7.93775 7.50309 7.49139L3.3687 14.9808l6.90796 6.89602 7.50441-7.4894zM45.8153 41.71166c-1.57108-3.5808-3.74524-6.62716-6.52117-9.13643-2.77725-2.50993-6.0501-4.4437-9.82122-5.80397-3.77178-1.35894-7.85737-2.03907-12.25745-2.03907-4.40007 0-8.48567.68013-12.25679 2.03907-3.77111 1.36026-7.03203 3.29404-9.78207 5.80397-2.75005 2.50927-4.91095 5.55563-6.48202 9.13643-1.57175 3.58211-2.35728 7.59536-2.35728 12.0384 0 4.44504.78553 8.49736 2.35728 12.15696 1.57107 3.6596 3.73197 6.7841 6.48202 9.37152 2.75004 2.58808 6.01096 4.58808 9.78207 6 3.77112 1.41192 7.85672 2.11722 12.2568 2.11722 4.40007 0 8.48566-.7053 12.25744-2.11722 3.77112-1.41192 7.04397-3.41192 9.82122-6 2.77593-2.58741 4.9501-5.71192 6.52117-9.37152 1.57107-3.6596 2.35727-7.71192 2.35727-12.15695 0-4.44305-.7862-8.4563-2.35727-12.03841zM33.44507 52.89709l-6.90797-6.8967-6.90928 6.89537-7.15742-7.1457 14.06803-14.03973 14.0654 14.04239zM15.51701 70.50967l-6.90796-6.89603-6.90929 6.89537-7.15742-7.1457L8.6097 49.32358 22.67576 63.3653z"/></svg>