<svg xmlns="http://www.w3.org/2000/svg" role="img" viewBox="-1.77 -1.77 92.04 12.79"><title>breethe-server logo</title><g transform="translate(-1.084 9.117)"><path d="M6.84375-3.32227q0 .82032-.23438 1.47657-.22851.65625-.62109 1.10156-.41601.46289-.91406.69727-.49805.22851-1.0957.22851-.55665 0-.97266-.13476-.41602-.12891-.82031-.35157L2.11523 0H1.08398v-9.11719h1.10157v3.25782q.46289-.38086.98437-.6211.52149-.2461 1.17188-.2461 1.16015 0 1.82812.89063.67383.89063.67383 2.51367zm-1.13672.0293q0-1.17187-.38672-1.77539-.38672-.60937-1.24804-.60937-.48047 0-.97266.21093-.49219.20508-.91406.5332v3.75q.46875.21094.80273.29298.33984.08203.76758.08203.91406 0 1.42969-.59766.52148-.60352.52148-1.88672z"/><path d="M12.64453-5.34375h-.05859q-.2461-.0586-.48047-.08203-.22851-.0293-.54492-.0293-.50977 0-.98437.22852-.47461.22265-.91407.58008V0H8.56055v-6.54492H9.6621v.9668q.65625-.52735 1.1543-.74415.5039-.22265 1.02539-.22265.2871 0 .41601.01758.1289.01172.38672.05273z"/><path d="M19.16016-3.1582h-4.82227q0 .60351.18164 1.05468.18164.44532.49805.73243.30469.28125.7207.42187.42188.14063.92578.14063.66797 0 1.3418-.26368.67969-.26953.9668-.52734h.05859v1.20117q-.55665.23438-1.13672.39258-.58008.1582-1.21875.1582-1.6289 0-2.54297-.8789-.91406-.88477-.91406-2.50782 0-1.60546.87304-2.54882.8789-.94336 2.3086-.94336 1.32421 0 2.03906.77344.7207.77343.7207 2.19726zm-1.07227-.84375q-.0059-.8672-.43945-1.3418-.42774-.4746-1.30664-.4746-.88477 0-1.41211.52147-.52149.52149-.5918 1.29493z"/><path d="M26.3086-3.1582h-4.82227q0 .60351.18164 1.05468.18164.44532.49805.73243.30468.28125.7207.42187.42187.14063.92578.14063.66797 0 1.3418-.26368.67968-.26953.9668-.52734h.05858v1.20117q-.55664.23438-1.13671.39258-.58008.1582-1.21875.1582-1.62891 0-2.54297-.8789-.91407-.88477-.91407-2.50782 0-1.60546.87305-2.54882.8789-.94336 2.3086-.94336 1.32421 0 2.03906.77344.7207.77343.7207 2.19726zm-1.07227-.84375q-.0059-.8672-.43945-1.3418-.42774-.4746-1.30665-.4746-.88476 0-1.4121.52147-.52149.52149-.5918 1.29493z"/><path d="M31.37695-.0586q-.31054.08204-.67968.13477-.36329.05274-.6504.05274-1.00195 0-1.52343-.53907-.52149-.53906-.52149-1.72851v-3.48047h-.74414v-.92578h.74414v-1.88086h1.10157v1.88086h2.27343v.92578h-2.27343v2.98242q0 .51563.02344.8086.02344.2871.16406.53906.1289.23437.35156.3457.22852.10547.6914.10547.26954 0 .5625-.07617.29298-.08203.42188-.13477h.0586z"/><path d="M38.17969 0h-1.10156v-3.72656q0-.45117-.05274-.84375-.05272-.39844-.19335-.6211-.14649-.24609-.42188-.36328-.27539-.12304-.71484-.12304-.45117 0-.94336.22265-.49219.22266-.94336.56836V0h-1.10156v-9.11719h1.10156v3.29883q.51562-.42773 1.0664-.66797.55079-.24023 1.13086-.24023 1.06055 0 1.6172.63867.55663.63867.55663 1.83984z"/><path d="M45.7793-3.1582h-4.82227q0 .60351.18164 1.05468.18164.44532.49805.73243.30469.28125.7207.42187.42188.14063.92578.14063.66797 0 1.3418-.26368.67969-.26953.9668-.52734h.05859v1.20117q-.55664.23438-1.13672.39258-.58008.1582-1.21875.1582-1.6289 0-2.54297-.8789-.91406-.88477-.91406-2.50782 0-1.60546.87304-2.54882.87891-.94336 2.3086-.94336 1.32422 0 2.03906.77344.7207.77343.7207 2.19726zm-1.07227-.84375q-.0059-.8672-.43945-1.3418-.42774-.4746-1.30664-.4746-.88477 0-1.41211.52147-.52149.52149-.5918 1.29493z"/><path d="M50.91797-3.2871h-3.65625v-1.06056h3.65625z"/><path d="M57.57422-1.88672q0 .89649-.74414 1.4707-.73828.57422-2.02149.57422-.72656 0-1.33593-.16992-.60352-.17578-1.01368-.38086V-1.6289h.0586q.52148.39258 1.16015.62696.63867.22851 1.22461.22851.72656 0 1.13672-.23437.41016-.23438.41016-.73828 0-.38672-.22266-.58594t-.85547-.33984q-.23438-.05274-.61523-.12305-.375-.07031-.68555-.15235-.86133-.22851-1.22461-.66796-.35742-.44532-.35742-1.08985 0-.4043.16406-.76172.16992-.35742.50977-.63867.32812-.27539.83203-.4336.50976-.16405 1.13672-.16405.58593 0 1.18359.14648.60352.14062 1.00195.3457v1.17774h-.05859q-.42187-.31055-1.02539-.52149-.60351-.2168-1.1836-.2168-.6035 0-1.01952.23438-.41602.22852-.41602.68555 0 .4043.25195.60937.2461.20508.79688.33399.30469.0703.67969.14062.38086.07031.6328.1289.76759.17579 1.1836.60352.41602.4336.41602 1.14844z"/><path d="M64.6289-3.1582h-4.82226q0 .60351.18164 1.05468.18164.44532.49805.73243.30469.28125.7207.42187.42188.14063.92578.14063.66797 0 1.3418-.26368.67969-.26953.9668-.52734H64.5v1.20117q-.55664.23438-1.13672.39258-.58008.1582-1.21875.1582-1.6289 0-2.54297-.8789-.91406-.88477-.91406-2.50782 0-1.60546.87305-2.54882.8789-.94336 2.3086-.94336 1.3242 0 2.03905.77344.7207.77343.7207 2.19726zm-1.07226-.84375q-.0059-.8672-.43945-1.3418-.42774-.4746-1.30664-.4746-.88477 0-1.41211.52147-.52149.52149-.5918 1.29493z"/><path d="M70.38281-5.34375h-.05859q-.2461-.0586-.48047-.08203-.22851-.0293-.54492-.0293-.50976 0-.98437.22852-.47461.22265-.91407.58008V0h-1.10156v-6.54492h1.10156v.9668q.65625-.52735 1.1543-.74415.5039-.22265 1.0254-.22265.2871 0 .416.01758.12891.01172.38673.05273z"/><path d="M77.08008-6.54492L74.43164 0h-1.10742l-2.63086-6.54492h1.19531l2.02735 5.20898 2.00976-5.20898z"/><path d="M83.89453-3.1582h-4.82226q0 .60351.18164 1.05468.18164.44532.49804.73243.3047.28125.7207.42187.42188.14063.92579.14063.66797 0 1.3418-.26368.67968-.26953.9668-.52734h.05858v1.20117q-.55664.23438-1.13672.39258-.58008.1582-1.21875.1582-1.6289 0-2.54297-.8789-.91406-.88477-.91406-2.50782 0-1.60546.87305-2.54882.8789-.94336 2.3086-.94336 1.32421 0 2.03905.77344.7207.77343.7207 2.19726zm-1.07226-.84375q-.0059-.8672-.43946-1.3418-.42773-.4746-1.30664-.4746-.88476 0-1.4121.52147-.5215.52149-.5918 1.29493z"/><path d="M89.64844-5.34375h-.0586q-.24609-.0586-.48046-.08203-.22852-.0293-.54492-.0293-.50977 0-.98438.22852-.4746.22265-.91406.58008V0h-1.10156v-6.54492h1.10156v.9668q.65625-.52735 1.1543-.74415.5039-.22265 1.02539-.22265.2871 0 .41601.01758.1289.01172.38672.05273z"/></g></svg>