<svg xmlns="http://www.w3.org/2000/svg" role="img" viewBox="-7.80 -7.80 392.86 112.61"><title>Buhayra logo</title><path d="M128.8 74h-9V0h9v30.3q2.8-4.1 7.1-6.8a17.572 17.572 0 0 1 7.125-2.509A22.595 22.595 0 0 1 146 20.8a23.225 23.225 0 0 1 5.065.518q5.094 1.138 8.085 4.782 4.125 5.026 4.338 13.109a33.764 33.764 0 0 1 .012.891V74h-9V41.1q0-5.6-2.6-9a8.42 8.42 0 0 0-6.158-3.347 11.979 11.979 0 0 0-1.142-.053 13.23 13.23 0 0 0-6.713 1.866 17.586 17.586 0 0 0-2.037 1.384q-4.15 3.25-7.05 7.65V74zm102.4 21.2l2-7.5a9.908 9.908 0 0 0 1.165.574q.823.345 1.835.626a13.514 13.514 0 0 0 2.279.417 17.358 17.358 0 0 0 1.721.083q4.2 0 7.5-2.7a12.003 12.003 0 0 0 1.933-2.061q1.748-2.311 3.408-6.164A58.58 58.58 0 0 0 254 76.1l2.3-6h-4.8l-20.3-45.7 8-3.6 19.4 43.3 15.1-42.9 8.3 3.2-19.1 52.2a71.728 71.728 0 0 1-2.053 5.086q-1.102 2.44-2.269 4.428A30.86 30.86 0 0 1 256.6 89.1a24.268 24.268 0 0 1-2.878 3.211q-1.914 1.768-4.017 2.807a14.737 14.737 0 0 1-.605.282q-4.1 1.8-9.1 1.8-3 0-5.25-.6t-3.55-1.4zM58.9 55.8V22h9v32.6a22.981 22.981 0 0 0 .254 3.534q.288 1.847.903 3.335A10.136 10.136 0 0 0 70.5 63.95a8.404 8.404 0 0 0 5.113 3.021 12.807 12.807 0 0 0 2.487.229q4.1 0 7.95-1.65 3.85-1.65 6.85-4.45V22h9v38.5a15.602 15.602 0 0 0 .102 1.854q.332 2.762 1.748 3.796 1.85 1.35 4.05 1.35l-1.9 7q-9.3 0-11.5-7.4-3.5 3.6-8.1 5.85-4.6 2.25-9.9 2.25-4.5 0-8.5-1.9a14.441 14.441 0 0 1-5.51-4.639 18.266 18.266 0 0 1-.99-1.511 16.24 16.24 0 0 1-1.664-4.093Q58.9 59.905 58.9 55.8zM8.4 69.7V74H0V0h9v27.4q2-2.3 5.85-4.45a16.584 16.584 0 0 1 5.231-1.822A22.424 22.424 0 0 1 24 20.8q6 0 11.25 3.15a22.329 22.329 0 0 1 7.178 6.967A27.464 27.464 0 0 1 43.7 33.05Q46.9 39 46.9 47.5a33.315 33.315 0 0 1-.687 6.888A27.75 27.75 0 0 1 44.9 58.8a29.367 29.367 0 0 1-3.161 6.004 25.482 25.482 0 0 1-2.189 2.746 24.894 24.894 0 0 1-6.131 4.914A23.302 23.302 0 0 1 32 73.2a20.006 20.006 0 0 1-7.366 1.96 19.209 19.209 0 0 1-1.234.04q-4.5 0-8.45-1.65a30.274 30.274 0 0 1-3.303-1.608Q9.822 70.903 8.4 69.7zm206.2-43.5V22h8.2v39.4a12.15 12.15 0 0 0 .102 1.636q.332 2.434 1.748 3.314 1.85 1.15 4.05 1.15l-1.9 7a17.722 17.722 0 0 1-4.265-.472q-5.637-1.4-7.232-6.948a13.59 13.59 0 0 1-.103-.38 21.307 21.307 0 0 1-3.11 3.426 28.498 28.498 0 0 1-3.14 2.424Q205 75.2 198.9 75.2q-6.5 0-11.8-3.3a22.947 22.947 0 0 1-7.413-7.527 27.923 27.923 0 0 1-1.037-1.823 27.228 27.228 0 0 1-2.63-7.942 36.644 36.644 0 0 1-.52-6.308 33.142 33.142 0 0 1 .997-8.269 27.968 27.968 0 0 1 2.153-5.731q3.15-6.2 8.7-9.85a22.297 22.297 0 0 1 11.195-3.606 27.388 27.388 0 0 1 1.555-.044 22.584 22.584 0 0 1 4.794.49 18.703 18.703 0 0 1 3.356 1.06 26.002 26.002 0 0 1 4.287 2.294A22.103 22.103 0 0 1 214.6 26.2zm148.9 0V22h8.2v39.4a12.15 12.15 0 0 0 .102 1.636q.332 2.434 1.748 3.314 1.85 1.15 4.05 1.15l-1.9 7a17.722 17.722 0 0 1-4.265-.472q-5.637-1.4-7.232-6.948a13.59 13.59 0 0 1-.103-.38 21.307 21.307 0 0 1-3.11 3.426 28.498 28.498 0 0 1-3.14 2.424q-3.95 2.65-10.05 2.65-6.5 0-11.8-3.3a22.947 22.947 0 0 1-7.413-7.527 27.923 27.923 0 0 1-1.037-1.823 27.228 27.228 0 0 1-2.63-7.942 36.644 36.644 0 0 1-.52-6.308 33.142 33.142 0 0 1 .997-8.269 27.968 27.968 0 0 1 2.153-5.731q3.15-6.2 8.7-9.85a22.297 22.297 0 0 1 11.195-3.606A27.388 27.388 0 0 1 349 20.8a22.584 22.584 0 0 1 4.794.49 18.703 18.703 0 0 1 3.356 1.06 26.002 26.002 0 0 1 4.287 2.294A22.103 22.103 0 0 1 363.5 26.2zM300 74h-9V22h8.7v11.3q1.3-3.3 3.5-6.15 2.2-2.85 5.5-4.6a14.817 14.817 0 0 1 4.68-1.524 19.459 19.459 0 0 1 3.02-.226q1.5 0 3 .15a18.972 18.972 0 0 1 1.055.134q.5.078.927.178a8.817 8.817 0 0 1 .518.138l-2.7 9.3a9.763 9.763 0 0 0-2.145-.612q-1.096-.188-2.355-.188a12.958 12.958 0 0 0-6.63 1.846 15.609 15.609 0 0 0-.42.254q-3.328 2.086-5.472 6.442a22.927 22.927 0 0 0-.028.058q-1.763 3.607-2.08 8.828A39.09 39.09 0 0 0 300 49.7V74zm-86.2-13.3V32.8q-2.7-1.9-5.95-3.05T201 28.6a15.924 15.924 0 0 0-4.971.754 14.024 14.024 0 0 0-3.479 1.696 16.301 16.301 0 0 0-5.019 5.424 19.962 19.962 0 0 0-.731 1.376 20.663 20.663 0 0 0-1.753 5.677A27.678 27.678 0 0 0 184.7 48q0 5.6 2.1 9.95a17.602 17.602 0 0 0 3.106 4.546 15.697 15.697 0 0 0 2.694 2.254q3.7 2.45 8.3 2.45 3.8 0 7.2-1.85 3.4-1.85 5.7-4.65zm148.9 0V32.8q-2.7-1.9-5.95-3.05t-6.85-1.15a15.924 15.924 0 0 0-4.971.754 14.024 14.024 0 0 0-3.479 1.696 16.301 16.301 0 0 0-5.019 5.424 19.962 19.962 0 0 0-.731 1.376 20.663 20.663 0 0 0-1.753 5.677A27.678 27.678 0 0 0 333.6 48q0 5.6 2.1 9.95a17.602 17.602 0 0 0 3.106 4.546 15.697 15.697 0 0 0 2.694 2.254q3.7 2.45 8.3 2.45 3.8 0 7.2-1.85 3.4-1.85 5.7-4.65zM9 35.4v27.8a17.99 17.99 0 0 0 3.63 2.185 21.802 21.802 0 0 0 1.77.715 19.462 19.462 0 0 0 6.164 1.096A22.039 22.039 0 0 0 21 67.2q4.9 0 8.65-2.4t5.9-6.8q2.15-4.4 2.15-10.2 0-6-2.15-10.3-2.15-4.3-5.7-6.6-3.55-2.3-7.85-2.3a14.741 14.741 0 0 0-5.627 1.063 14.054 14.054 0 0 0-2.123 1.087Q10.8 32.9 9 35.4z" vector-effect="non-scaling-stroke" fill="#000" fill-rule="evenodd" stroke="#000" stroke-linecap="round" stroke-width=".25mm"/></svg>