<svg xmlns="http://www.w3.org/2000/svg" role="img" xmlns:xlink="http://www.w3.org/1999/xlink" viewBox="-6.45 -6.45 335.14 89.89"><title>BuildingSystems logo</title><g fill-opacity="1" transform="translate(-108.23 -155.91) translate(1.337 .918)"><use width="611.764" height="858.378" x="395.86" y="89.787" fill="#211e1e" transform="matrix(1.25 0 0 1.25 -103.078 95.08)" xlink:href="#glyph7-1"/><use width="611.764" height="858.378" x="400.191" y="89.787" fill="#211e1e" transform="matrix(1.25 0 0 1.25 -103.078 95.08)" xlink:href="#glyph7-2"/><use width="611.764" height="858.378" x="402.008" y="89.787" fill="#211e1e" transform="matrix(1.25 0 0 1.25 -103.078 95.08)" xlink:href="#glyph7-3"/><use width="611.764" height="858.378" x="403.825" y="89.787" fill="#211e1e" transform="matrix(1.25 0 0 1.25 -103.078 95.08)" xlink:href="#glyph7-4"/><use width="611.764" height="858.378" x="407.841" y="89.787" fill="#211e1e" transform="matrix(1.25 0 0 1.25 -103.078 95.08)" xlink:href="#glyph7-5"/><use width="611.764" height="858.378" x="411.543" y="89.787" fill="#211e1e" transform="matrix(1.25 0 0 1.25 -103.078 95.08)" xlink:href="#glyph7-6"/><use width="611.764" height="858.378" x="415.559" y="89.787" fill="#211e1e" transform="matrix(1.25 0 0 1.25 -103.078 95.08)" xlink:href="#glyph7-4"/><use width="611.764" height="858.378" x="419.576" y="89.787" fill="#211e1e" transform="matrix(1.25 0 0 1.25 -103.078 95.08)" xlink:href="#glyph7-5"/><use width="611.764" height="858.378" x="425.604" y="89.787" fill="#211e1e" transform="matrix(1.25 0 0 1.25 -103.078 95.08)" xlink:href="#glyph7-8"/><use width="611.764" height="858.378" x="429.621" y="89.787" fill="#211e1e" transform="matrix(1.25 0 0 1.25 -103.078 95.08)" xlink:href="#glyph7-9"/><use width="611.764" height="858.378" x="433.638" y="89.787" fill="#211e1e" transform="matrix(1.25 0 0 1.25 -103.078 95.08)" xlink:href="#glyph7-6"/><use width="611.764" height="858.378" x="437.654" y="89.787" fill="#211e1e" transform="matrix(1.25 0 0 1.25 -103.078 95.08)" xlink:href="#glyph7-10"/><use width="611.764" height="858.378" x="440.727" y="89.787" fill="#211e1e" transform="matrix(1.25 0 0 1.25 -103.078 95.08)" xlink:href="#glyph7-11"/><use width="611.764" height="858.378" x="450.152" y="89.787" fill="#211e1e" transform="matrix(1.25 0 0 1.25 -103.078 95.08)" xlink:href="#glyph7-12"/><use width="611.764" height="858.378" x="455.273" y="89.787" fill="#211e1e" transform="matrix(1.25 0 0 1.25 -103.078 95.08)" xlink:href="#glyph7-5"/><use width="611.764" height="858.378" x="458.975" y="89.787" fill="#211e1e" transform="matrix(1.25 0 0 1.25 -103.078 95.08)" xlink:href="#glyph7-10"/><use width="611.764" height="858.378" x="462.048" y="89.787" fill="#211e1e" transform="matrix(1.25 0 0 1.25 -103.078 95.08)" xlink:href="#glyph7-11"/><use width="611.764" height="858.378" x="464.494" y="89.787" fill="#211e1e" transform="matrix(1.25 0 0 1.25 -103.078 95.08)" xlink:href="#glyph7-13"/><use width="611.764" height="858.378" x="468.349" y="89.787" fill="#211e1e" transform="matrix(1.25 0 0 1.25 -103.078 95.08)" xlink:href="#glyph7-3"/><use width="611.764" height="858.378" x="470.166" y="89.787" fill="#211e1e" transform="matrix(1.25 0 0 1.25 -103.078 95.08)" xlink:href="#glyph7-11"/><use width="611.764" height="858.378" x="472.611" y="89.787" fill="#211e1e" transform="matrix(1.25 0 0 1.25 -103.078 95.08)" xlink:href="#glyph7-9"/><use width="611.764" height="858.378" x="476.627" y="89.787" fill="#211e1e" transform="matrix(1.25 0 0 1.25 -103.078 95.08)" xlink:href="#glyph7-6"/><use width="611.764" height="858.378" x="480.644" y="89.787" fill="#211e1e" transform="matrix(1.25 0 0 1.25 -103.078 95.08)" xlink:href="#glyph7-14"/><use width="611.764" height="858.378" x="491.64" y="89.787" fill="#211e1e" transform="matrix(1.25 0 0 1.25 -103.078 95.08)" xlink:href="#glyph7-15"/><use width="611.764" height="858.378" x="498.008" y="89.787" fill="#211e1e" transform="matrix(1.25 0 0 1.25 -103.078 95.08)" xlink:href="#glyph7-9"/><use width="611.764" height="858.378" x="502.024" y="89.787" fill="#211e1e" transform="matrix(1.25 0 0 1.25 -103.078 95.08)" xlink:href="#glyph7-10"/><use width="611.764" height="858.378" x="505.098" y="89.787" fill="#211e1e" transform="matrix(1.25 0 0 1.25 -103.078 95.08)" xlink:href="#glyph7-2"/><use width="611.764" height="858.378" x="506.915" y="89.787" fill="#211e1e" transform="matrix(1.25 0 0 1.25 -103.078 95.08)" xlink:href="#glyph7-16"/><use width="611.764" height="858.378" x="517.596" y="89.787" fill="#211e1e" transform="matrix(1.25 0 0 1.25 -103.078 95.08)" xlink:href="#glyph7-17"/><use width="611.764" height="858.378" x="522.402" y="89.787" fill="#211e1e" transform="matrix(1.25 0 0 1.25 -103.078 95.08)" xlink:href="#glyph7-13"/><use width="611.764" height="858.378" x="526.257" y="89.787" fill="#211e1e" transform="matrix(1.25 0 0 1.25 -103.078 95.08)" xlink:href="#glyph7-18"/><use width="611.764" height="858.378" x="528.703" y="89.787" fill="#211e1e" transform="matrix(1.25 0 0 1.25 -103.078 95.08)" xlink:href="#glyph7-10"/><use width="611.764" height="858.378" x="531.776" y="89.787" fill="#211e1e" transform="matrix(1.25 0 0 1.25 -103.078 95.08)" xlink:href="#glyph7-11"/><use width="611.764" height="858.378" x="534.222" y="89.787" fill="#211e1e" transform="matrix(1.25 0 0 1.25 -103.078 95.08)" xlink:href="#glyph7-5"/><use width="611.764" height="858.378" x="537.924" y="89.787" fill="#211e1e" transform="matrix(1.25 0 0 1.25 -103.078 95.08)" xlink:href="#glyph7-3"/><use width="611.764" height="858.378" x="539.741" y="89.787" fill="#211e1e" transform="matrix(1.25 0 0 1.25 -103.078 95.08)" xlink:href="#glyph7-3"/><use width="611.764" height="858.378" x="541.558" y="89.787" fill="#211e1e" transform="matrix(1.25 0 0 1.25 -103.078 95.08)" xlink:href="#glyph7-5"/><use width="611.764" height="858.378" x="545.26" y="89.787" fill="#211e1e" transform="matrix(1.25 0 0 1.25 -103.078 95.08)" xlink:href="#glyph7-6"/><use width="611.764" height="858.378" x="549.276" y="89.787" fill="#211e1e" transform="matrix(1.25 0 0 1.25 -103.078 95.08)" xlink:href="#glyph7-4"/><use width="611.764" height="858.378" x="553.293" y="89.787" fill="#211e1e" transform="matrix(1.25 0 0 1.25 -103.078 95.08)" xlink:href="#glyph7-5"/><use width="611.764" height="858.378" x="559.321" y="89.787" fill="#211e1e" transform="matrix(1.25 0 0 1.25 -103.078 95.08)" xlink:href="#glyph7-8"/><use width="611.764" height="858.378" x="563.338" y="89.787" fill="#211e1e" transform="matrix(1.25 0 0 1.25 -103.078 95.08)" xlink:href="#glyph7-9"/><use width="611.764" height="858.378" x="567.355" y="89.787" fill="#211e1e" transform="matrix(1.25 0 0 1.25 -103.078 95.08)" xlink:href="#glyph7-6"/><use width="611.764" height="858.378" x="571.371" y="89.787" fill="#211e1e" transform="matrix(1.25 0 0 1.25 -103.078 95.08)" xlink:href="#glyph7-10"/><use width="611.764" height="858.378" x="574.445" y="89.787" fill="#211e1e" transform="matrix(1.25 0 0 1.25 -103.078 95.08)" xlink:href="#glyph7-11"/><path fill="#e70036" fill-rule="evenodd" stroke="none" d="M142.32249 154.992H106.8928v35.23925h35.42969zm-33.96484 20.92284c0-1.17675.95215-2.1289 2.1289-2.1289 1.17677 0 2.12892.95215 2.12892 2.1289 0 1.17676-.95215 2.12891-2.12892 2.12891-1.17675 0-2.1289-.95215-2.1289-2.12891zm2.1289 7.3877c1.17677 0 2.12892-.95703 2.12892-2.12891 0-1.17675-.95215-2.1289-2.12892-2.1289-1.17675 0-2.1289.95215-2.1289 2.1289 0 1.17188.95215 2.12891 2.1289 2.12891zm-2.1289 3.125c0-1.17188.95215-2.12402 2.1289-2.12402 1.17677 0 2.12892.95214 2.12892 2.12402 0 1.17676-.95215 2.12891-2.12892 2.12891-1.17675 0-2.1289-.95215-2.1289-2.12891zm12.69531-8.38379c1.17675 0 2.1289-.95215 2.1289-2.12891 0-1.17675-.95215-2.1289-2.1289-2.1289-1.17676 0-2.12891.95215-2.12891 2.1289 0 1.17676.95215 2.12891 2.12891 2.12891zm-2.12891 8.38379c0-1.17188.95215-2.12402 2.12891-2.12402 1.17675 0 2.1289.95214 2.1289 2.12402 0 1.17676-.95215 2.12891-2.1289 2.12891-1.17676 0-2.12891-.95215-2.12891-2.12891zm9.24316-8.38379c1.17188 0 2.12892-.95215 2.12892-2.12891 0-1.17675-.95704-2.1289-2.12892-2.1289-1.17675 0-2.1289.95215-2.1289 2.1289 0 1.17676.95215 2.12891 2.1289 2.12891zm-2.1289 3.12988c0-1.17675.95215-2.1289 2.1289-2.1289 1.17188 0 2.12892.95215 2.12892 2.1289 0 1.17188-.95704 2.12891-2.12892 2.12891-1.17675 0-2.1289-.95703-2.1289-2.12891zm7.40723 2.12891c1.17676 0 2.12891-.95703 2.12891-2.12891 0-1.17675-.95215-2.1289-2.12891-2.1289-1.17676 0-2.12891.95215-2.12891 2.1289 0 1.17188.95215 2.12891 2.12891 2.12891zm-2.12891 3.125c0-1.17188.95215-2.12402 2.12891-2.12402 1.17676 0 2.12891.95214 2.12891 2.12402 0 1.17676-.95215 2.12891-2.12891 2.12891-1.17676 0-2.12891-.95215-2.12891-2.12891zm7.417-3.125c1.17675 0 2.1289-.95703 2.1289-2.12891 0-1.17675-.95215-2.1289-2.1289-2.1289-1.17677 0-2.12892.95215-2.12892 2.1289 0 1.17188.95215 2.12891 2.12892 2.12891zm-2.12892 3.125c0-1.17188.95215-2.12402 2.12892-2.12402 1.17675 0 2.1289.95214 2.1289 2.12402 0 1.17676-.95215 2.12891-2.1289 2.12891-1.17677 0-2.12892-.95215-2.12892-2.12891zm-8.4375 2.12891c1.17188 0 2.12892-.95215 2.12892-2.12891 0-1.17188-.95704-2.12402-2.12892-2.12402-1.17675 0-2.1289.95214-2.1289 2.12402 0 1.17676.95215 2.12891 2.1289 2.12891zm-19.80956-29.76563c0-1.17676.95215-2.1289 2.1289-2.1289 1.17677 0 2.12892.95214 2.12892 2.1289 0 1.17676-.95215 2.12891-2.12892 2.12891-1.17675 0-2.1289-.95215-2.1289-2.12891zm19.80956 7.3877c1.17188 0 2.12892-.95215 2.12892-2.12891 0-1.17676-.95704-2.12891-2.12892-2.12891-1.17675 0-2.1289.95215-2.1289 2.12891 0 1.17676.95215 2.12891 2.1289 2.12891zm-2.1289 3.12988c0-1.17676.95215-2.12891 2.1289-2.12891 1.17188 0 2.12892.95215 2.12892 2.12891 0 1.17676-.95704 2.12891-2.12892 2.12891-1.17675 0-2.1289-.95215-2.1289-2.12891zm7.40723-3.12988c1.17676 0 2.12891-.95215 2.12891-2.12891 0-1.17676-.95215-2.12891-2.12891-2.12891-1.17676 0-2.12891.95215-2.12891 2.12891 0 1.17676.95215 2.12891 2.12891 2.12891zm-2.12891 3.12988c0-1.17676.95215-2.12891 2.12891-2.12891 1.17676 0 2.12891.95215 2.12891 2.12891 0 1.17676-.95215 2.12891-2.12891 2.12891-1.17676 0-2.12891-.95215-2.12891-2.12891zm7.417-8.38867c1.17675 0 2.1289-.95215 2.1289-2.12891 0-1.17676-.95215-2.1289-2.1289-2.1289-1.17677 0-2.12892.95214-2.12892 2.1289 0 1.17676.95215 2.12891 2.12892 2.12891zm-2.12892 3.12988c0-1.17676.95215-2.12891 2.12892-2.12891 1.17675 0 2.1289.95215 2.1289 2.12891 0 1.17676-.95215 2.12891-2.1289 2.12891-1.17677 0-2.12892-.95215-2.12892-2.12891zm2.12892 7.3877c1.17675 0 2.1289-.95215 2.1289-2.12891 0-1.17676-.95215-2.12891-2.1289-2.12891-1.17677 0-2.12892.95215-2.12892 2.12891 0 1.17676.95215 2.12891 2.12892 2.12891zm-19.80958-7.3877c0-1.17676.95215-2.12891 2.12891-2.12891 1.17675 0 2.1289.95215 2.1289 2.12891 0 1.17676-.95215 2.12891-2.1289 2.12891-1.17676 0-2.12891-.95215-2.12891-2.12891zm2.12891 7.3877c1.17675 0 2.1289-.95215 2.1289-2.12891 0-1.17676-.95215-2.12891-2.1289-2.12891-1.17676 0-2.12891.95215-2.12891 2.12891 0 1.17676.95215 2.12891 2.12891 2.12891zm-12.69531-7.3877c0-1.17676.95215-2.12891 2.1289-2.12891 1.17677 0 2.12892.95215 2.12892 2.12891 0 1.17676-.95215 2.12891-2.12892 2.12891-1.17675 0-2.1289-.95215-2.1289-2.12891zm2.1289 7.3877c1.17677 0 2.12892-.95215 2.12892-2.12891 0-1.17676-.95215-2.12891-2.12892-2.12891-1.17675 0-2.1289.95215-2.1289 2.12891 0 1.17676.95215 2.12891 2.1289 2.12891zm3.14942 9.73632c0-1.17675.95215-2.1289 2.12891-2.1289 1.17675 0 2.1289.95215 2.1289 2.1289 0 1.17188-.95215 2.12891-2.1289 2.12891-1.17676 0-2.12891-.95703-2.12891-2.12891zm2.12891-14.99511c1.17675 0 2.1289-.95215 2.1289-2.12891 0-1.17676-.95215-2.12891-2.1289-2.12891-1.17676 0-2.12891.95215-2.12891 2.12891 0 1.17676.95215 2.12891 2.12891 2.12891"/><path fill="#211e1e" fill-rule="nonzero" stroke="none" d="M154.50022 176.96953c0 3.27637.98633 5.77149 4.52637 5.77149 3.54003 0 4.52637-2.75391 4.52637-5.77149v-9.63867h-1.35742v9.61426c0 2.05566-.30762 4.52636-3.16895 4.52636-2.72949 0-3.16894-2.23144-3.16894-4.52636v-9.61426h-1.35743zm12.28515 5.61524h1.26954v-6.92871c0-1.72852.98145-3.18848 2.53418-3.18848 2.0752 0 2.0752 1.83594 2.0752 2.59765v7.51954h1.26952v-7.47559c0-.74219 0-3.82324-3.08105-3.82324-1.86035 0-2.57812 1.31348-2.8418 1.79199h-.0439c-.0244-.80566-.0439-1.13769-.0879-1.64062h-1.18163c.0244 1.16211.0879 2.29492.0879 3.45703zm10.2295 0h1.26953v-11.14746h-1.26953zm-.13183-13.61817h1.52832v-1.96289h-1.52832zm6.49413 13.61817h1.52833l3.25683-11.14746h-1.26953l-2.72949 9.70703h-.0439l-2.64649-9.70703h-1.35254zm13.44239-5.15625c0-2.70996-.33204-6.14258-3.56445-6.14258-1.87989 0-3.95509 1.52832-3.95509 5.72754 0 1.11328 0 5.72754 4.37013 5.72754 1.333 0 2.07518-.35157 2.60253-.63477l-.0684-1.46484c-.63476.5664-1.67969.91797-2.40234.91797-.50293 0-3.14941 0-3.14941-4.13086zm-6.16699-1.18164c0-1.44043.81054-3.7793 2.53418-3.7793 1.03027 0 2.27538.83008 2.27538 3.7793zm8.54491 6.33789h1.26954v-7.01661c0-2.05566.91796-2.9248 2.92969-2.9248v-1.35742c-1.22559 0-2.16309.32715-2.97364 1.92383h-.0439c-.0195-.45899-.0635-1.11328-.0879-1.77246h-1.17675c.0195 1.16211.083 2.29492.083 3.45703zm10.86426-10.97168c-.41503-.13184-1.30859-.32715-2.05566-.32715-1.48437 0-3.27637.98633-3.27637 3.08105 0 1.57227.74219 2.16309 2.62207 3.10547 1.31348.6543 1.9873 1.08887 1.9873 2.16309 0 1.00586-.8496 1.92383-2.05077 1.92383-1.03028 0-2.16798-.50293-2.53906-.76661l-.1709 1.4209c.6543.23926 1.44042.52735 2.81738.52735 1.87988 0 3.30078-1.22559 3.30078-3.23731 0-1.79199-1.18164-2.3584-2.70996-3.19336-1.50879-.83008-1.90429-1.04492-1.90429-2.07519 0-.78614.59081-1.76758 1.90429-1.76758.72266 0 1.26465.21973 1.89941.45898zm3.01758 10.97168h1.26465v-11.14746h-1.26465zm-.13184-13.61817h1.52833v-1.96289h-1.52833zm5.04884.24414v2.22657h-1.66016v1.18164h1.66016v7.60742c0 1.24511.43945 2.51465 2.07519 2.51465.59082 0 1.15722-.0439 1.46485-.15625v-1.26465c-.23927.10742-.45899.23926-1.04982.23926-1.06933 0-1.2207-.78614-1.2207-1.68457v-7.25586h2.27052v-1.18164h-2.27052v-2.62207zm6.60156-.0439h1.26464v-2.14356h-1.26464zm3.27636 0h1.26953v-2.14356h-1.26953zm2.40723 5.81543c0-.81055 0-3.69629-3.43261-3.69629-1.22559 0-2.01173.41504-3.06153.98633l.19531 1.35254c.13184-.11231 1.31348-1.15723 2.79785-1.15723 2.31934 0 2.31934 2.01172 2.31934 3.4082h-.81055c-1.59667 0-5.37597.0635-5.37597 3.62793 0 1.81641 1.37695 3.23731 3.10546 3.23731 1.44044 0 2.3584-.52735 3.125-1.75293h.044l.0879 1.59668h1.1377c-.0684-.83008-.13184-1.66016-.13184-2.49024zm-1.18164 3.2959c0 3.04199-2.1875 3.28125-2.77832 3.28125-1.35254 0-2.05078-1.11817-2.05078-2.05567 0-2.53418 2.20703-2.53418 4.8291-2.53418zm4.67773-9.06739v2.22657h-1.66504v1.18164h1.66504v7.60742c0 1.24511.43457 2.51465 2.0752 2.51465.59082 0 1.15722-.0439 1.46485-.15625v-1.26465c-.23927.10742-.45899.23926-1.04982.23926-1.06933 0-1.22558-.78614-1.22558-1.68457v-7.25586h2.2754v-1.18164h-2.2754v-2.62207zm18.51074-3.01757h-1.26953v6.68945h-.0391c-.57128-1.03027-1.40136-1.59668-2.82226-1.59668-2.79785 0-3.69629 3.19336-3.69629 5.3125 0 1.54785.13184 6.14258 3.76465 6.14258 1.39649 0 2.09473-.63477 2.9248-1.68457h.0439v1.52832h1.18164c-.0439-.96192-.0879-1.94336-.0879-3.69141zm-6.46972 10.82031c0-2.57813.6543-4.5459 2.55859-4.5459 2.7295 0 2.7295 3.18848 2.7295 4.67773 0 2.27051-.58594 4.41407-2.75392 4.41407-2.53417 0-2.53417-3.62793-2.53417-4.5459zm16.28417.41504c0-2.70996-.32715-6.14258-3.56445-6.14258-1.87988 0-3.95507 1.52832-3.95507 5.72754 0 1.11328 0 5.72754 4.37011 5.72754 1.33301 0 2.08008-.35157 2.60254-.63477l-.0635-1.46484c-.63476.5664-1.68457.91797-2.40722.91797-.50294 0-3.14454 0-3.14454-4.13086zm-6.16211-1.18164c0-1.44043.80568-3.7793 2.53419-3.7793 1.02539 0 2.2705.83008 2.2705 3.7793zm8.54493 6.33789h1.26465v-7.01661c0-2.05566.92285-2.9248 2.92968-2.9248v-1.35742c-1.2207 0-2.16308.32715-2.97363 1.92383h-.0391c-.0244-.45899-.0683-1.11328-.0879-1.77246h-1.18164c.0244 1.16211.0879 2.29492.0879 3.45703zm12.10937 0h1.35254v-7.47559h.0439l5.8789 7.47559h1.792l-6.59669-7.99805 6.09375-7.25586h-1.66015l-5.50781 6.68457h-.0439v-6.68457h-1.35254zm11.97754-13.41797h1.26465v-2.14356h-1.26465zm3.27637 0h1.26953v-2.14356h-1.26953zm2.55859 2.27051h-1.26953v6.92871c0 1.72851-.98145 3.19336-2.53418 3.19336-2.07519 0-2.07519-1.83594-2.07519-2.60254v-7.51953H287.259v7.7832c0 1.76758.6543 3.52051 3.08105 3.52051 1.86036 0 2.70996-1.31348 2.8418-1.79688h.0439c.0244.81055.0439 1.1377.0879 1.64063h1.18164c-.0244-1.15723-.0879-2.29493-.0879-3.45215zm2.97364 11.14746h1.26465v-6.92871c0-1.72852.98632-3.18848 2.53417-3.18848 2.08007 0 2.08007 1.83594 2.08007 2.59765v7.51954h1.26465v-7.47559c0-.74219 0-3.82324-3.08104-3.82324-1.85548 0-2.57813 1.31348-2.8418 1.79199h-.0439c-.0195-.80566-.0439-1.13769-.0879-1.64062h-1.17676c.0195 1.16211.0879 2.29492.0879 3.45703zm14.90722-10.97168c-.41993-.13184-1.31348-.32715-2.05566-.32715-1.48927 0-3.28125.98633-3.28125 3.08105 0 1.57227.74706 2.16309 2.62206 3.10547 1.31349.6543 1.99219 1.08887 1.99219 2.16309 0 1.00586-.85449 1.92383-2.05567 1.92383-1.02538 0-2.16308-.50293-2.53417-.76661l-.17579 1.4209c.6543.23926 1.44044.52735 2.81739.52735 1.87989 0 3.30077-1.22559 3.30077-3.23731 0-1.79199-1.17675-2.3584-2.70995-3.19336-1.5088-.83008-1.89941-1.04492-1.89941-2.07519 0-.78614.59081-1.76758 1.89941-1.76758.72265 0 1.26953.21973 1.90429.45898zm3.47167-2.40235v2.22657h-1.66015v1.18164h1.66015v7.60742c0 1.24511.43945 2.51465 2.0752 2.51465.59082 0 1.16212-.0439 1.46484-.15625v-1.26465c-.23925.10742-.45897.23926-1.0498.23926-1.06934 0-1.2207-.78614-1.2207-1.68457v-7.25586h2.2705v-1.18164h-2.2705v-2.62207zm12.43653 8.21778c0-2.70996-.32715-6.14258-3.55956-6.14258-1.87989 0-3.95997 1.52832-3.95997 5.72754 0 1.11328 0 5.72754 4.375 5.72754 1.333 0 2.07519-.35157 2.59765-.63477l-.0635-1.46484c-.63476.5664-1.68458.91797-2.40723.91797-.49805 0-3.14453 0-3.14453-4.13086zm-6.16211-1.18164c0-1.44043.80566-3.7793 2.53418-3.7793 1.02539 0 2.27539.83008 2.27539 3.7793zm15.93262-7.65137h1.89941c1.99219 0 2.77831 1.16211 2.77831 2.60254 0 1.8164-1.22557 2.84179-2.82226 2.84179h-1.85546zm0 6.71387h2.07519c1.87988 0 2.92968 1.28906 2.92968 3.08105 0 .47852-.13183 2.92969-3.08105 2.92969h-1.92382zm-1.35254 7.27539h2.62206c1.08888 0 5.18067 0 5.18067-4.2627 0-2.22656-1.33789-3.32031-2.73438-3.71582v-.0391c.96191-.39551 2.40235-1.26953 2.40235-3.54492 0-1.87989-1.24512-3.69141-3.91114-3.69141h-3.55956zm17.59276-5.15625c0-2.70996-.32713-6.14258-3.56445-6.14258-1.87987 0-3.95507 1.52832-3.95507 5.72754 0 1.11328 0 5.72754 4.37011 5.72754 1.33301 0 2.08009-.35157 2.60254-.63477l-.0635-1.46484c-.63476.5664-1.68456.91797-2.40722.91797-.50293 0-3.14453 0-3.14453-4.13086zm-6.1621-1.18164c0-1.44043.80567-3.7793 2.53418-3.7793 1.02539 0 2.27051.83008 2.27051 3.7793zm8.54492 6.33789h1.26953v-7.01661c0-2.05566.91309-2.9248 2.9248-2.9248v-1.35742c-1.22557 0-2.16307.32715-2.96875 1.92383h-.0439c-.0244-.45899-.0684-1.11328-.0879-1.77246h-1.18165c.0195 1.16211.0879 2.29492.0879 3.45703zm6.18652 0h1.26465v-16.3916h-1.26465zm4.45801 0h1.26465v-11.14746h-1.26465zm-.13184-13.61817h1.52833v-1.96289h-1.52833zm4.47754 13.61817h1.26954v-6.92871c0-1.72852.98144-3.18848 2.53417-3.18848 2.08008 0 2.08008 1.83594 2.08008 2.59765v7.51954h1.26465v-7.47559c0-.74219 0-3.82324-3.08105-3.82324-1.85548 0-2.57813 1.31348-2.8418 1.79199h-.0439c-.0195-.80566-.0439-1.13769-.0879-1.64062h-1.18164c.0244 1.16211.0879 2.29492.0879 3.45703v7.69043"/><path fill="#211e1e" fill-rule="nonzero" stroke="none" d="M154.46875 189.09375v.6875h238.375v3.375h36.375v-4.0625z"/></g><g transform="translate(55.74 17.283) scale(.64866)"><path d="M21.51886 75.00531q0 2.16797-.82032 3.82813-.8203 1.66015-2.20703 2.73437-1.64062 1.28906-3.61328 1.83594-1.95312.54687-4.98047.54687H-.41474V54.8686h8.61328q3.1836 0 4.76563.23438 1.58203.23437 3.02734.97656 1.60156.83984 2.32422 2.16797.72266 1.3086.72266 3.14453 0 2.07031-1.05469 3.53516-1.05469 1.4453-2.8125 2.32421v.15625q2.94922.60547 4.64844 2.59766 1.69922 1.97266 1.69922 5zm-6.50391-13.10547q0-1.05469-.35156-1.77734-.35156-.72266-1.13281-1.17188-.91797-.52734-2.22657-.64453-1.3086-.13672-3.24219-.13672H3.45245v8.39844h5q1.8164 0 2.89062-.17578 1.07422-.19531 1.9922-.78125.91796-.58594 1.28906-1.5039.39062-.9375.39062-2.20704zm2.48047 13.26172q0-1.75781-.52734-2.79297-.52735-1.03515-1.91407-1.75781-.9375-.48828-2.28515-.625-1.32813-.15625-3.2422-.15625H3.45246v10.82031h5.11719q2.53906 0 4.16015-.2539 1.6211-.27344 2.65625-.97657 1.09375-.76172 1.60157-1.73828.5078-.97656.5078-2.51953z"/><path d="M44.8001 83.95062h-3.67187v-2.42187q-1.85547 1.46484-3.55469 2.2461-1.69922.78124-3.75.78124-3.4375 0-5.35156-2.08984-1.91406-2.10938-1.91406-6.17188V62.13422h3.67187v12.42187q0 1.66016.15625 2.85156.15625 1.17188.66407 2.01172.52734.85938 1.36718 1.25.83985.39063 2.44141.39063 1.42578 0 3.10547-.74219 1.69922-.74219 3.16406-1.89453V62.13422h3.67188z"/><path d="M55.97198 58.48187h-4.14062v-3.8086h4.14062zm-.23437 25.46875h-3.67188v-21.8164h3.67188z"/><path d="M66.71417 83.95062h-3.67188V53.56h3.67188z"/><path d="M91.6751 83.95062h-3.67187v-2.28515q-1.58203 1.36718-3.30078 2.1289-1.71875.76172-3.73047.76172-3.90625 0-6.21094-3.00781-2.28515-3.00781-2.28515-8.33985 0-2.77343.78125-4.9414.80078-2.16797 2.14843-3.6914 1.32813-1.48438 3.08594-2.26563 1.77735-.78125 3.67188-.78125 1.71875 0 3.04687.3711 1.32813.35155 2.79297 1.11327V53.56h3.67188zm-3.67187-5.3711V66.06q-1.48437-.66407-2.65625-.91797-1.17187-.2539-2.5586-.2539-3.08593 0-4.80468 2.14843-1.71875 2.14844-1.71875 6.09375 0 3.88672 1.32813 5.91797Q78.9212 81.06 81.85088 81.06q1.5625 0 3.16407-.6836 1.60156-.70312 2.98828-1.79687z"/><path d="M102.84698 58.48187h-4.14062v-3.8086h4.14062zm-.23437 25.46875h-3.67188v-21.8164h3.67188z"/><path d="M128.12042 83.95062h-3.67188V71.52875q0-1.5039-.17578-2.8125-.17578-1.32813-.64453-2.07032-.48828-.8203-1.40625-1.21093-.91797-.41016-2.38281-.41016-1.50391 0-3.14453.74219-1.64063.74219-3.14453 1.89453v16.28906h-3.67188v-21.8164h3.67188v2.42187q1.71875-1.42578 3.55468-2.22656 1.83594-.80078 3.76953-.80078 3.53516 0 5.39063 2.1289 1.85547 2.12891 1.85547 6.13282z"/><path d="M152.88604 81.47015q0 5.54688-2.51953 8.14453-2.51953 2.59766-7.7539 2.59766-1.73829 0-3.39844-.2539-1.64063-.23438-3.24219-.6836v-3.75h.19531q.89844.35156 2.85157.85938 1.95312.52734 3.90625.52734 1.875 0 3.10546-.44922 1.23047-.44922 1.91407-1.25.68359-.76172.97656-1.83594.29297-1.07422.29297-2.40234v-1.99219q-1.66016 1.32813-3.1836 1.99219-1.5039.64453-3.84765.64453-3.90625 0-6.21094-2.8125-2.28516-2.83203-2.28516-7.96875 0-2.8125.78125-4.84375.80079-2.05078 2.16797-3.53516 1.26953-1.38671 3.08594-2.14843 1.81641-.78125 3.61328-.78125 1.89453 0 3.16406.39062 1.28907.3711 2.71485 1.15235l.23437-.9375h3.4375zm-3.67187-3.51562V66.06q-1.46485-.66407-2.73438-.9375-1.25-.29297-2.5-.29297-3.02734 0-4.76562 2.03125t-1.73828 5.89844q0 3.67187 1.28906 5.5664 1.28906 1.89453 4.27734 1.89453 1.60157 0 3.20313-.60547 1.62109-.625 2.96875-1.66015z"/><path d="M181.53839 75.64984q0 1.69922-.80078 3.35938-.78125 1.66015-2.20704 2.8125-1.5625 1.25-3.65234 1.95312-2.07031.70313-5 .70313-3.14453 0-5.66406-.58594-2.5-.58594-5.09766-1.73828V77.31h.27344q2.20703 1.83593 5.09766 2.83203 2.89062.9961 5.42968.9961 3.59375 0 5.58594-1.34766 2.01172-1.34766 2.01172-3.59375 0-1.9336-.95703-2.85157-.9375-.91797-2.8711-1.42578-1.46484-.39062-3.18359-.64453-1.69922-.2539-3.61328-.64453-3.86719-.82031-5.74219-2.79297-1.85547-1.99219-1.85547-5.17578 0-3.65234 3.08594-5.97656 3.08594-2.34375 7.83203-2.34375 3.06641 0 5.625.58593 2.5586.58594 4.53125 1.44532v4.57031h-.27344q-1.66015-1.40625-4.375-2.32422-2.69531-.9375-5.52734-.9375-3.10547 0-5 1.28906-1.875 1.28907-1.875 3.32032 0 1.8164.9375 2.85156.9375 1.03515 3.30078 1.58203 1.25.27344 3.55469.66406 2.30469.39063 3.90625.80078 3.24219.85938 4.88281 2.59766 1.64063 1.73828 1.64063 4.86328z"/><path d="M205.73761 62.13422L193.00323 91.9975h-3.92578l4.0625-9.10156-8.69141-20.76172h3.98438l6.69922 16.17187 6.75781-16.17187z"/><path d="M226.12823 77.66156q0 2.98828-2.48047 4.90234-2.46094 1.91407-6.73828 1.91407-2.42187 0-4.45312-.56641-2.01172-.58594-3.37891-1.26953v-4.1211h.19531q1.73828 1.3086 3.86719 2.08985 2.12891.76172 4.08203.76172 2.42188 0 3.78906-.78125 1.36719-.78125 1.36719-2.46094 0-1.28906-.74219-1.95313-.74218-.66406-2.85156-1.1328-.78125-.17579-2.05078-.41016-1.25-.23438-2.28516-.50782-2.87109-.76172-4.08203-2.22656-1.1914-1.48437-1.1914-3.63281 0-1.34766.54687-2.53906.56641-1.19141 1.69922-2.12891 1.09375-.91797 2.77344-1.44531 1.69922-.54688 3.78906-.54688 1.95312 0 3.94531.48828 2.01172.46875 3.33985 1.15235v3.92578h-.19532q-1.40625-1.03516-3.41797-1.73828-2.01171-.72266-3.94531-.72266-2.01172 0-3.39844.78125-1.38671.76172-1.38671 2.28516 0 1.34765.83984 2.03125.82031.6836 2.65625 1.11328 1.01562.23437 2.26562.46875 1.26954.23437 2.10938.42969 2.55859.58593 3.94531 2.01171 1.38672 1.44532 1.38672 3.82813z"/><path d="M242.71026 83.75531q-1.03515.27344-2.26562.44922-1.21094.17578-2.16797.17578-3.33985 0-5.07813-1.79688-1.73828-1.79687-1.73828-5.76171V65.22015h-2.48047v-3.08593h2.48047v-6.26954h3.67188v6.26954h7.57812v3.08593h-7.57812v9.94141q0 1.71875.0781 2.69531.0781.95703.54688 1.79688.42968.78125 1.17187 1.15234.76172.35156 2.30469.35156.89844 0 1.875-.2539.97656-.27344 1.40625-.44922h.19531z"/><path d="M265.40557 73.42328h-16.07421q0 2.01172.60546 3.51562.60547 1.48438 1.66016 2.44141 1.01563.9375 2.40234 1.40625 1.40625.46875 3.08594.46875 2.22656 0 4.47266-.8789 2.26562-.89844 3.22265-1.75782h.19532v4.0039q-1.85547.78126-3.78907 1.3086-1.93359.52734-4.0625.52734-5.42968 0-8.47656-2.92968-3.04687-2.94922-3.04687-8.35938 0-5.35156 2.91015-8.4961 2.92969-3.14452 7.69532-3.14452 4.41406 0 6.79687 2.57812 2.40234 2.57813 2.40234 7.32422zm-3.57421-2.8125q-.0195-2.89063-1.46485-4.47266-1.42578-1.58203-4.35547-1.58203-2.94922 0-4.70703 1.73828-1.73828 1.73828-1.97265 4.3164z"/><path d="M302.80792 83.95062h-3.67188V71.52875q0-1.40625-.13672-2.71485-.11718-1.30859-.52734-2.08984-.44922-.83984-1.28906-1.26953-.83985-.42969-2.42188-.42969-1.54297 0-3.08593.78125-1.54297.76172-3.08594 1.95313.0586.44921.0976 1.05468.0391.58594.0391 1.17188v13.96484h-3.67188V71.52875q0-1.44532-.13672-2.73438-.11718-1.3086-.52734-2.08984-.44922-.83985-1.28906-1.25-.83985-.42969-2.42188-.42969-1.5039 0-3.02734.74219-1.50391.74219-3.00781 1.89453v16.28906h-3.67188v-21.8164h3.67188v2.42187q1.71875-1.42578 3.41796-2.22656 1.71875-.80078 3.65235-.80078 2.22656 0 3.76953.9375 1.5625.9375 2.32422 2.59765 2.22656-1.875 4.0625-2.6953 1.83594-.83985 3.92578-.83985 3.59375 0 5.29297 2.1875 1.71875 2.16797 1.71875 6.07422z"/><path d="M325.46417 77.66156q0 2.98828-2.48047 4.90234-2.46094 1.91407-6.73828 1.91407-2.42188 0-4.45313-.56641-2.01172-.58594-3.3789-1.26953v-4.1211h.19531q1.73828 1.3086 3.86719 2.08985 2.1289.76172 4.08203.76172 2.42187 0 3.78906-.78125t1.36719-2.46094q0-1.28906-.74219-1.95313-.74219-.66406-2.85156-1.1328-.78125-.17579-2.05078-.41016-1.25-.23438-2.28516-.50782-2.87109-.76172-4.08203-2.22656-1.19141-1.48437-1.19141-3.63281 0-1.34766.54688-2.53906.5664-1.19141 1.69922-2.12891 1.09375-.91797 2.77343-1.44531 1.69922-.54688 3.78907-.54688 1.95312 0 3.94531.48828 2.01172.46875 3.33984 1.15235v3.92578h-.19531q-1.40625-1.03516-3.41797-1.73828-2.01172-.72266-3.94531-.72266-2.01172 0-3.39844.78125-1.38672.76172-1.38672 2.28516 0 1.34765.83985 2.03125.82031.6836 2.65625 1.11328 1.01562.23437 2.26562.46875 1.26953.23437 2.10938.42969 2.55859.58593 3.94531 2.01171 1.38672 1.44532 1.38672 3.82813z"/></g></svg>