<svg xmlns="http://www.w3.org/2000/svg" role="img" viewBox="-9.05 -9.05 470.60 448.60"><title>CanFlood logo</title><g transform="translate(-34.293 .078)"><g transform="translate(-35.625 -263.398) scale(1.84183)"><path d="M86.3121 374.28894q-1.07422.46875-1.95312.87891-.85938.41015-2.26563.85937-1.1914.3711-2.59765.625-1.38672.27344-3.0664.27344-3.16407 0-5.76173-.87891-2.57812-.89843-4.49219-2.79297-1.875-1.85546-2.92968-4.70703-1.05469-2.87109-1.05469-6.66015 0-3.59375 1.01562-6.42578 1.01563-2.83204 2.9297-4.78516 1.85546-1.89453 4.47265-2.89063 2.63672-.99609 5.83984-.99609 2.34375 0 4.66797.56641 2.34375.5664 5.19531 1.99218v4.58985h-.29297q-2.40234-2.01172-4.76562-2.92969t-5.0586-.91797q-2.20703 0-3.98437.72266-1.75781.70312-3.14453 2.20703-1.34766 1.46484-2.10938 3.71094-.74218 2.22656-.74218 5.15625 0 3.0664.82031 5.27343.83984 2.20704 2.14844 3.59375 1.36718 1.44532 3.1836 2.14844 1.83593.6836 3.86718.6836 2.79297 0 5.23437-.95704 2.44141-.95703 4.57032-2.87109h.27343z"/><path d="M108.44101 376.39832h-3.65234v-2.32422q-.48829.33203-1.32813.9375-.82031.58593-1.60156.9375-.91797.44922-2.10938.74218-1.1914.3125-2.79296.3125-2.94922 0-5-1.95312-2.05079-1.95313-2.05079-4.98047 0-2.48047 1.0547-4.00391 1.07421-1.54296 3.04687-2.42187 1.99218-.87891 4.78515-1.19141 2.79297-.3125 5.9961-.46875v-.5664q0-1.25-.44922-2.07032-.42969-.82031-1.25-1.28906-.78125-.44922-1.875-.60547-1.09375-.15625-2.28516-.15625-1.44531 0-3.22265.39063-1.77735.37109-3.67188 1.09375h-.19531v-3.73047q1.07422-.29297 3.10547-.64453 2.03125-.35156 4.0039-.35156 2.30469 0 4.00391.39062 1.71875.37109 2.96875 1.28906 1.23047.89844 1.875 2.32422t.64453 3.53516zm-3.65234-5.3711V364.953q-1.67969.0977-3.96485.29297-2.26562.19531-3.59375.56641-1.58203.44922-2.5586 1.40625-.97655.9375-.97655 2.59765 0 1.875 1.1328 2.83204 1.13282.9375 3.45704.9375 1.93359 0 3.53516-.74219 1.60156-.76172 2.96875-1.81641z"/><path d="M133.75351 376.39832h-3.67188v-12.42188q0-1.50391-.17578-2.8125-.17578-1.32812-.64453-2.07031-.48828-.82031-1.40625-1.21094-.91797-.41016-2.38281-.41016-1.50391 0-3.14453.74219-1.64063.74219-3.14453 1.89453v16.28907h-3.67188v-21.81641h3.67188v2.42187q1.71875-1.42578 3.55468-2.22656 1.83594-.80078 3.76954-.80078 3.53515 0 5.39062 2.12891 1.85547 2.1289 1.85547 6.13281z"/><path d="M159.69101 350.75378h-14.70703v8.20313h12.63672v3.4375h-12.63672v14.00391h-3.86719v-29.08204h18.57422z"/><path d="M167.52304 376.39832h-3.67187v-30.39063h3.67187z"/><path d="M193.38242 365.49988q0 5.33203-2.73438 8.41797-2.73437 3.08593-7.32422 3.08593-4.6289 0-7.36328-3.08593-2.71484-3.08594-2.71484-8.41797 0-5.33203 2.71484-8.41797 2.73438-3.10547 7.36328-3.10547 4.58985 0 7.32422 3.10547 2.73438 3.08594 2.73438 8.41797zm-3.78907 0q0-4.23828-1.66015-6.28906-1.66016-2.07032-4.60938-2.07032-2.98828 0-4.64844 2.07032-1.64062 2.05078-1.64062 6.28906 0 4.10156 1.66016 6.23047 1.66015 2.10937 4.6289 2.10937 2.92969 0 4.58985-2.08984 1.67968-2.10938 1.67968-6.25z"/><path d="M217.65976 365.49988q0 5.33203-2.73438 8.41797-2.73437 3.08593-7.32421 3.08593-4.62891 0-7.36329-3.08593-2.71484-3.08594-2.71484-8.41797 0-5.33203 2.71484-8.41797 2.73438-3.10547 7.36329-3.10547 4.58984 0 7.32421 3.10547 2.73438 3.08594 2.73438 8.41797zm-3.78906 0q0-4.23828-1.66016-6.28906-1.66016-2.07032-4.60937-2.07032-2.98829 0-4.64844 2.07032-1.64063 2.05078-1.64063 6.28906 0 4.10156 1.66016 6.23047 1.66016 2.10937 4.62891 2.10937 2.92968 0 4.58984-2.08984 1.67969-2.10938 1.67969-6.25z"/><path d="M241.03867 376.39832h-3.67188v-2.28516q-1.58203 1.36719-3.30078 2.12891-1.71875.76171-3.73047.76171-3.90625 0-6.21094-3.00781-2.28515-3.00781-2.28515-8.33984 0-2.77344.78125-4.94141.80078-2.16797 2.14843-3.6914 1.32813-1.48438 3.08594-2.26563 1.77735-.78125 3.67188-.78125 1.71875 0 3.04687.37109 1.32813.35157 2.79297 1.11329v-9.45313h3.67188zm-3.67188-5.3711v-12.51953q-1.48437-.66406-2.65625-.91797-1.17187-.2539-2.55859-.2539-3.08594 0-4.80469 2.14843-1.71875 2.14844-1.71875 6.09375 0 3.88672 1.32812 5.91797 1.32813 2.01172 4.25782 2.01172 1.5625 0 3.16406-.68359 1.60156-.70313 2.98828-1.79688z"/></g><path fill="#27a9e0" d="M174.83991 327.52467c-4.76305-.77909-11.28805-2.16809-14.5-3.08667-6.93022-1.98195-20.88783-8.22341-20.11595-8.99529.29753-.29753 5.14154-.0689 10.76446.50816 34.63176 3.55389 68.94655-2.38895 106.51158-18.44632 6.05-2.5861 26.3-12.46099 45-21.9442 37.03041-18.77899 51.2599-24.57335 75-30.54057 36.27136-9.11704 73.34257-10.48253 101-3.72028l9 2.2005-5 .26031c-37.1438 1.93379-80.16898 12.74964-118.95103 29.9024-9.15712 4.05007-17.27794 8.1697-52.74779 26.75856-22.9747 12.04047-53.16584 21.90371-79.80118 26.07051-14.6192 2.28701-45.06904 2.84704-56.16009 1.03289zm-27.06876-25.61635C108.30897 298.8161 68.56495 280.02451 41 251.42525c-5.69607-5.90979-6.05334-6.49111-2.88863-4.70009C56.42839 257.0914 86.6067 266.53453 113 270.15864c13.28688 1.82444 47.62926 1.54017 61.30519-.50746 32.55203-4.87385 57.73908-13.16262 91.81586-30.21556 37.42077-18.72637 66.3345-28.63647 96.00729-32.90625 13.64326-1.9632 40.46824-1.99225 52.40148-.0567 10.81065 1.75344 24.2531 5.54652 33.92309 9.57214 6.88032 2.86429 23.06646 11.82485 22.38681 12.39323-.18685.15625-4.16472-.30385-8.83972-1.02244-11.69606-1.7978-39.93268-1.74079-54.88887.11082C365.99608 232.61656 325.50027 245.76588 273 271.0734c-26.07868 12.57112-41.93198 19.08756-56.5 23.22414-23.40207 6.64501-47.29249 9.29056-68.72885 7.61082zM185 206.0741v-54.9259l11.25-8.89912c6.1875-4.89451 20.925-16.24394 32.75-25.22095s26.51153-20.30576 32.63674-25.17499C267.76195 86.98391 273.04479 83 273.37639 83c.52549 0 34.53082 26.60703 44.87361 35.11077l3.75 3.08322V98.93003l10.25.28499L342.5 99.5l.27046 20.17155.27045 20.17155 9.47955 8.70159L362 157.24629v42.38153l-13.25 2.62541c-26.85178 5.32054-48.47249 13.14289-82.25 29.75798-23.01868 11.32285-36.26066 16.94557-50.5 21.44299-8.83463 2.79037-27.57256 7.54225-29.75 7.54451-.98484.001-1.25-11.64987-1.25-54.92461zm-72.17558 45.40003c-13.12732-1.79063-31.9703-6.48101-45.63457-11.35933-10.76502-3.84325-33.56381-14.07417-32.88216-14.75582.17687-.17687 4.7925.53202 10.25695 1.57531 17.28936 3.30096 31.40865 4.36683 50.22288 3.79133 28.18269-.86206 49.08444-5.71871 71.96248-16.72093l12.25-5.89112v40.74463l-5.25 1.06445c-16.5075 3.34693-42.8458 4.01764-60.92558 1.55148zm6.50996-29.90312c1.4058-3.66347 1.75287-8.53947.74224-10.42785-.82603-1.54345-45.19462-39.65956-65.48097-56.25331-1.88843-1.54469-1.62546-1.78863 6.46795-6 7.526-3.91613 8.46863-4.71927 8.73504-7.44247.16425-1.67895-2.19825-12.15052-5.25-23.27016S59 97.36625 59 96.64094c0-.99692 4.32766-.3819 17.73332 2.52016C86.48665 101.27249 95.40064 103 96.5422 103c3.77365 0 5.50969-2.40504 7.5857-10.50887 1.12341-4.38532 2.34953-8.52182 2.7247-9.19221.43085-.76987 6.56999 5.39112 16.66477 16.72408 15.70002 17.62571 19.05189 20.36147 22.38742 18.27241 2.91666-1.82673 2.20885-8.44976-4.70716-44.04541-3.76688-19.3875-6.66504-35.25-6.44037-35.25.22467 0 4.69607 2.25 9.93646 5 6.61678 3.4723 10.6987 5 13.35963 5h3.83166l8.75279-16.75c4.81404-9.2125 10.62199-20.25505 12.90658-24.53901l4.15379-7.78901 11.79628 22.5885c15.05098 28.82085 15.73967 29.28235 31.15709 20.8783 4.65266-2.53616 8.60294-4.44866 8.7784-4.25.27409.31036-1.90259 12.8911-11.00419 63.60177l-1.6585 9.24054-9.13362 6.6472c-5.02349 3.65596-15.77112 11.81575-23.88362 18.13287L179 148.24684v53.58207l-10.75 5.48305c-11.91323 6.07637-24.61521 10.82837-36.75 13.74874-9.76659 2.35044-12.92255 2.48282-12.16562.51031zm305.05001-27.59504C408.60316 189.1289 385.35081 185 373.83525 185c-2.59447 0-4.96146-.3952-5.25999-.87823-.79445-1.28544-1.17563-22.85473-.4173-23.61306.88565-.88565 22.13269 8.84141 34.52468 15.80567C413.40679 182.34131 434 195.60363 434 196.4832c0 .28424-.1125.46634-.25.40468-.1375-.0617-4.35203-1.37203-9.36561-2.91191z"/><path fill="#2295d2" d="M179.5 327.84065c-11.25316-1.26283-25.23061-5.16136-33.20826-9.26232L139.5 315.087l6.5.7065c13.20979 1.4358 45.88311.75563 57-1.18658 26.72125-4.66842 48.79462-13.03258 92.41684-35.01911 21.11657-10.6432 32.05848-15.66184 32.33541-14.83105.23021.69063.80331 1.01792 1.27355.7273.47023-.29063 1.6693.2826 2.66459 1.27382 2.81691 2.80543 5.79749 4.91521 4.94963 3.50357-.50473-.84034-.24678-1.04778.8023-.64521.85041.32633 1.29722.99618.99292 1.48854-.3043.49237.33578.89522 1.42241.89522s2.13385.47451 2.32717 1.05446c.19332.57995 1.11779 1.16692 2.05439 1.30438.93659.13747 2.05343.63511 2.48185 1.10587.42851.47087.14707.48936-.62557.0411-.97445-.56534-1.17312-.44045-.64885.40785.41561.67247 1.35224.99375 2.0814.71394.72915-.2798 1.77865.037 2.33222.70401 1.01676 1.22512-.1799 1.92048-37.70504 21.90966-41.03343 21.85802-92.96307 33.05362-132.65522 28.59938zM140 300.92224c-23.77331-3.01427-49.22745-12.53134-70.5-26.3593-8.70803-5.66055-23.64412-17.85524-30-24.49375l-4-4.17787 10.5 5.01116c21.1397 10.08899 48.54016 17.57151 73.96401 20.19811 13.95012 1.44121 43.33583.63008 57.53599-1.58816 19.63692-3.06754 40.51315-8.75357 59.19709-16.12342 8.96767-3.53728 35.6108-15.72228 39.70742-18.15983.49748-.29601.60344-.0511.23548.54432-.36797.59538.2375 1.37023 1.34549 1.72189 1.10799.35166 2.01452.9633 2.01452 1.35919 0 .3959.96709.79266 2.14908.8817 1.182.089 2.6445.70081 3.25 1.35951.82569.89821.74979.99732-.30359.39641-.94879-.54125-1.16972-.42132-.6809.3696.39798.64395 1.15559.90384 1.68358.57753.52798-.32631 2.04794.45385 3.3777 1.73369 1.32975 1.27984 2.63041 2.10198 2.89036 1.82698.25995-.275 1.70646.625 3.21446 2 1.50799 1.375 2.37765 1.87272 1.93258 1.10605-.56152-.96724.13778-.83454 2.28436.43348 1.70148 1.00509 2.82355 2.2644 2.49348 2.79846-.33276.53843-.0824.65103.56205.25276.6392-.39505 1.81142-.069 2.60494.72449 1.25701 1.25701.19388 1.99072-8.25767 5.69892-5.33524 2.3409-17.12543 7.96456-26.20043 12.49703-35.07523 17.51818-58.29741 25.36624-85.80122 28.99696-11.97974 1.58142-34.37401 1.78659-45.19878.41409zm45-94.73244v-54.90083l15.25-11.96449c8.3875-6.58047 24.925-19.32116 36.75-28.31266 11.825-8.99149 24.76086-19.00006 28.74636-22.24126 4.57011-3.71663 7.70937-5.61061 8.5-5.12824 2.24333 1.36867 33.06273 25.55933 40.25364 31.59575l7 5.87615.28275-11.05711L322.0655 99h8.38546c4.61201 0 9.09727.27315 9.96725.60699 1.36687.52452 1.58179 3.23246 1.58179 19.93037v19.32338l10 9.28763 10 9.28762-.001 21.032-.001 21.03201-14.16032 2.79282c-25.29277 4.98847-52.38087 14.95791-84.95766 31.26761-28.3565 14.19681-52.72045 23.02437-74.12929 26.85859l-3.75.67161V206.1898zm-67 45.7075c-24.04294-2.70315-51.38622-10.79259-74.44796-22.02525-5.52862-2.69281-9.24831-4.67353-8.26598-4.40159 6.1391 1.69952 27.58472 4.67955 39.38702 5.47313 34.21543 2.30063 67.20948-3.8265 94.55694-17.55962 4.80151-2.41118 8.96401-4.38397 9.25-4.38397.28599 0 .51998 8.94112.51998 19.86916v19.86916l-3.75.66111c-19.7639 3.48434-40.44874 4.38684-57.25 2.49787zm1.33438-30.32629c1.4058-3.66347 1.75287-8.53947.74224-10.42785-.82603-1.54345-45.19462-39.65956-65.48097-56.25331-1.88843-1.54469-1.62546-1.78863 6.46795-6 7.526-3.91613 8.46863-4.71927 8.73504-7.44247.16425-1.67895-2.19825-12.15052-5.25-23.27016S59 97.36625 59 96.64094c0-.99692 4.32766-.3819 17.73332 2.52016C86.48665 101.27249 95.40064 103 96.5422 103c3.77365 0 5.50969-2.40504 7.5857-10.50887 1.12341-4.38532 2.34953-8.52182 2.7247-9.19221.43085-.76987 6.56999 5.39112 16.66477 16.72408 15.70002 17.62571 19.05189 20.36147 22.38742 18.27241 2.91666-1.82673 2.20885-8.44976-4.70716-44.04541-3.76688-19.3875-6.66504-35.25-6.44037-35.25.22467 0 4.69607 2.25 9.93646 5 6.61678 3.4723 10.6987 5 13.35963 5h3.83166l8.75279-16.75c4.81404-9.2125 10.62199-20.25505 12.90658-24.53901l4.15379-7.78901 11.79628 22.5885c15.05098 28.82085 15.73967 29.28235 31.15709 20.8783 4.65266-2.53616 8.60294-4.44866 8.7784-4.25.27409.31036-1.90259 12.8911-11.00419 63.60177l-1.6585 9.24054-9.13362 6.6472c-5.02349 3.65596-15.77112 11.81575-23.88362 18.13287L179 148.24684v53.58207l-10.75 5.48305c-11.91323 6.07637-24.61521 10.82837-36.75 13.74874-9.76659 2.35044-12.92255 2.48282-12.16562.51031z"/><path fill="#1d86c7" d="M186.5 328.39887c-11.49895-1.14129-20.77284-2.83297-27.97634-5.10326-7.61296-2.39933-18.12487-7.07935-17.37309-7.73468.19218-.16753 3.72443.12582 7.84943.65189 10.40302 1.32673 44.60324.33771 54.84779-1.58611 18.4147-3.4581 41.38795-10.81232 59.65221-19.09592 8.25246-3.74283 13.69053-5.64809 13.0188-4.56121-.30911.50016.25517.84782 1.25396.77258.99879-.0752 4.60852 1.55958 8.02161 3.63293 6.31153 3.83405 7.59952 4.99554 4.45563 4.01802-1.55737-.48423-1.54911-.41564.075.62305 1.00375.64194 2.07331.91887 2.37679.61539.66917-.66917 5.91671 1.94215 6.81117 3.38942 1.33684 2.16306-24.01658 11.80268-44.96083 17.09455-20.95952 5.29574-53.254 8.75209-68.05213 7.28335zm99-32.00395c-2.56146-1.97421-5.5-3.59217-5.5-3.02831 0 .5083 6.25783 4.60694 7 4.58474.275-.008-.4-.70862-1.5-1.55643zM144 301.31138c-25.24334-2.65807-52.01015-12.3031-73.82509-26.60178C60.32203 268.25149 45.32044 256.13843 39 249.53736l-3.5-3.6554 11.5 5.49727c31.1622 14.89624 63.92462 21.40999 102.32291 20.3436 21.17207-.58799 36.61672-2.76571 55.67709-7.85056 13.14552-3.50691 16-4.02271 16-2.8912 0 .44272.73865 1.0884 1.64144 1.43483 1.43282.54983 1.4646.41552.25-1.05673-1.26962-1.53894-1.19199-1.58033.88657-.47272 1.28188.68309 1.97539 1.70355 1.58595 2.33366-.45105.72982-.11257.8974.972.48121 1.15196-.44205 1.66875-.10968 1.67935 1.08006.0132 1.4775.15347 1.50817 1.00003.21862.81751-1.24531 1.09316-1.10361 1.62342.83453.36891 1.34837.92184 1.87643 1.30895 1.25008.45518-.73649 1.29305-.57939 2.61126.48962 1.06757.86575 1.309 1.24619.53652.84542-.95542-.49568-1.16289-.33772-.64885.49402.41561.67247 1.38514.98112 2.15451.68589.80714-.30973 1.39885.0844 1.39885.93182 0 .80774.47656 1.46862 1.05902 1.46862.58246 0 .77409-.5625.42584-1.25-.34825-.6875-.0357-.575.6946.25.73028.825 2.00115 1.6432 2.82416 1.81823 2.73684.58203 6.06944 3.25454 5.40302 4.33284-.42426.68646.0661.83365 1.38397.41539 2.23302-.70874 3.47304.39361 2.39341 2.12768-1.78841 2.8725-31.87195 13.66258-48.44911 17.37727-18.76985 4.20604-43.43247 5.95659-59.73491 4.23997zm41-95.19541v-54.88403l19.25-14.93433c10.5875-8.21388 26-20.05127 34.25-26.30531s19.38768-14.90804 24.7504-19.23111c6.55244-5.28214 10.18847-7.59791 11.08605-7.06066 1.07604.64407 32.19249 25.1305 44.70244 35.17763L322 121.25632V99l7.75.01365c13.37475.02357 12.25-1.86002 12.25 20.51478v19.29517l9.75 9.3382 9.75 9.3382V199.42713l-4.5.8543c-32.90747 6.24729-56.95328 14.67228-92.10433 32.2708-18.94077 9.48278-29.7562 14.14419-44.39567 19.13435C211.91288 254.61368 188.1016 261 185.77509 261c-.4263 0-.77509-24.69781-.77509-54.88403zm-65.5 45.85663c-19.26209-2.17264-41.3016-7.72239-59.5685-14.99989C48.74478 232.51593 35.12389 225.64368 39 226.41198c40.961 8.11902 75.99949 6.76921 109.54772-4.22018 10.13589-3.32021 11.73467-3.59973 13.95009-2.43896 1.3762.72107 2.50219 1.54822 2.50219 1.83811 0 .2899-.51953.206-1.15451-.18644-.72104-.44563-.88282-.27393-.4309.45729.39798.64395 1.1293.92009 1.62514.61365 1.34814-.8332 6.7453 2.25435 7.98285 4.56674.59503 1.11183 1.84587 1.89467 2.77965 1.73965 1.44693-.2402 1.8251 1.09784 2.55957 9.05636.48648 5.27123.4837 9.7163-.006 10.20637-3.1249 3.1249-42.61141 5.76024-58.85543 3.92803zm-.16562-30.40159c1.4058-3.66347 1.75287-8.53947.74224-10.42785-.82603-1.54345-45.19462-39.65956-65.48097-56.25331-1.88843-1.54469-1.62546-1.78863 6.46795-6 7.526-3.91613 8.46863-4.71927 8.73504-7.44247.16425-1.67895-2.19825-12.15052-5.25-23.27016S59 97.36625 59 96.64094c0-.99692 4.32766-.3819 17.73332 2.52016C86.48665 101.27249 95.40064 103 96.5422 103c3.77365 0 5.50969-2.40504 7.5857-10.50887 1.12341-4.38532 2.34953-8.52182 2.7247-9.19221.43085-.76987 6.56999 5.39112 16.66477 16.72408 15.70002 17.62571 19.05189 20.36147 22.38742 18.27241 2.91666-1.82673 2.20885-8.44976-4.70716-44.04541-3.76688-19.3875-6.66504-35.25-6.44037-35.25.22467 0 4.69607 2.25 9.93646 5 6.61678 3.4723 10.6987 5 13.35963 5h3.83166l8.75279-16.75c4.81404-9.2125 10.62199-20.25505 12.90658-24.53901l4.15379-7.78901 11.79628 22.5885c15.05098 28.82085 15.73967 29.28235 31.15709 20.8783 4.65266-2.53616 8.60294-4.44866 8.7784-4.25.27409.31036-1.90259 12.8911-11.00419 63.60177l-1.6585 9.24054-9.13362 6.6472c-5.02349 3.65596-15.77112 11.81575-23.88362 18.13287L179 148.24684v53.58207l-10.75 5.48305c-11.91323 6.07637-24.61521 10.82837-36.75 13.74874-9.76659 2.35044-12.92255 2.48282-12.16562.51031z"/><path fill="#1d7dc1" d="M183 328.05961c-9.76904-1.0379-17.95618-2.69508-26-5.26272-5.89436-1.88151-16-6.38672-16-7.13298 0-.16632 3.2625.10134 7.25.5948 3.9875.49345 16.475.70932 27.75.47969 17.51826-.35678 22.39086-.81832 33.5-3.17321 7.15-1.51563 16.18771-3.76629 20.0838-5.00146l7.08379-2.24575 6.47823 4.09101c3.56303 2.25005 7.35032 4.65458 8.41621 5.3434 1.06588.68881 3.06297 1.73295 4.43797 2.32032 3.33862 1.42616 1.92716 2.13254-9.5 4.75435-20.28281 4.65364-47.69112 6.91214-63.5 5.23255zm-42-27.14752c-34.1384-4.38181-66.3635-19.46544-93.82045-43.91462-5.67625-5.05445-10.15675-9.3536-9.95667-9.55369.20008-.20008 3.96713 1.36583 8.37123 3.47979 17.20193 8.25693 36.12657 14.22589 57.90589 18.2639 10.51813 1.95013 15.59074 2.23864 41.07734 2.33633l29.07734.11145 12.42266 7.26312c6.83246 3.99472 14.44766 8.56214 16.92266 10.14982 2.475 1.58767 5.82413 3.48625 7.44251 4.21905 2.89219 1.3096 2.78105 1.37051-6.5 3.56243-19.84169 4.68605-45.34992 6.3405-62.94251 4.08242zm44-94.79612v-54.88403l19.25-14.93433c10.5875-8.21388 26-20.05127 34.25-26.30531s19.38768-14.90804 24.7504-19.23111c6.55244-5.28214 10.18847-7.59791 11.08605-7.06066 1.07604.64407 32.19249 25.1305 44.70244 35.17763L322 121.25632V99l7.75.01365c13.37475.02357 12.25-1.86002 12.25 20.51478v19.29517l9.75 9.3382 9.75 9.3382V199.42713l-4.5.8543c-32.90747 6.24729-56.95328 14.67228-92.10433 32.2708-18.94077 9.48278-29.7562 14.14419-44.39567 19.13435C211.91288 254.61368 188.1016 261 185.77509 261c-.4263 0-.77509-24.69781-.77509-54.88403zm-57.5 46.21673c-20.25479-1.24284-45.61533-6.90099-65.54268-14.62313C50.2639 233.1782 34.41008 225.42412 39 226.48119c14.657 3.37552 29.89835 4.80942 52.19973 4.91093 17.5046.0797 24.02655.43463 24.95 1.35788.68765.6875 1.60234 1.25 2.03266 1.25.43031 0 3.82781 1.87037 7.55 4.15638 3.72218 2.28601 7.33011 4.16101 8.01761 4.16667.6875.006 1.04429.21599.79287.46741-.53151.53151 4.36008 3.84156 9.88797 6.69103 3.68397 1.89897 3.74463 2.00933 1.4566 2.65032-2.42633.67973-9.35083.75538-18.38744.20089zm-8.16562-30.76169c1.4058-3.66347 1.75287-8.53947.74224-10.42785-.82603-1.54345-45.19462-39.65956-65.48097-56.25331-1.88843-1.54469-1.62546-1.78863 6.46795-6 7.526-3.91613 8.46863-4.71927 8.73504-7.44247.16425-1.67895-2.19825-12.15052-5.25-23.27016S59 97.36625 59 96.64094c0-.99692 4.32766-.3819 17.73332 2.52016C86.48665 101.27249 95.40064 103 96.5422 103c3.77365 0 5.50969-2.40504 7.5857-10.50887 1.12341-4.38532 2.34953-8.52182 2.7247-9.19221.43085-.76987 6.56999 5.39112 16.66477 16.72408 15.70002 17.62571 19.05189 20.36147 22.38742 18.27241 2.91666-1.82673 2.20885-8.44976-4.70716-44.04541-3.76688-19.3875-6.66504-35.25-6.44037-35.25.22467 0 4.69607 2.25 9.93646 5 6.61678 3.4723 10.6987 5 13.35963 5h3.83166l8.75279-16.75c4.81404-9.2125 10.62199-20.25505 12.90658-24.53901l4.15379-7.78901 11.79628 22.5885c15.05098 28.82085 15.73967 29.28235 31.15709 20.8783 4.65266-2.53616 8.60294-4.44866 8.7784-4.25.27409.31036-1.90259 12.8911-11.00419 63.60177l-1.6585 9.24054-9.13362 6.6472c-5.02349 3.65596-15.77112 11.81575-23.88362 18.13287L179 148.24684v53.58207l-10.75 5.48305c-11.91323 6.07637-24.61521 10.82837-36.75 13.74874-9.76659 2.35044-12.92255 2.48282-12.16562.51031z"/><path fill="#1b75bb" d="M183.5 327.92177c-5.5-.47095-14.275-1.94645-19.5-3.27887-9.39113-2.39483-21.75088-7.22536-20.83381-8.14242.26049-.2605 6.65487-.008 14.20973.56186 10.10774.76196 17.48541.71501 27.93009-.17774 19.16628-1.63823 20.24729-1.6415 19.91921-.0603-.15112.72838.19984 1.031.77991.6725.58008-.35851 4.73312 1.50468 9.22898 4.14042l8.17429 4.79226-3.4542.67499c-6.32599 1.23617-26.3258 1.68455-36.4542.81727zm-38-26.61509c-21.10529-1.88422-46.97508-10.12084-66-21.01358-13.70104-7.84455-36.9137-25.84404-39.76825-30.83699-.42254-.73906 3.1151.45036 7.86141 2.64316C67.94573 261.50219 93.42254 268.45342 117 271.03663c9.66253 1.05865 17 3.29907 17 5.19077 0 .42493.5625.7808 1.25.79082.6875.01 10.16514 5.35127 21.06141 11.86944 13.75142 8.22613 19.30879 12.04411 18.16822 12.48178-1.66238.63792-21.61535.59471-28.97963-.0628zm39.5-95.06413V151.4851l14.75-11.58526c8.1125-6.3719 23.525-18.26265 34.25-26.42389 10.725-8.16125 23.9537-18.35719 29.39711-22.65765 6.15793-4.86496 10.31378-7.50453 11-6.98662 8.0349 6.06423 35.64707 27.83893 40.60289 32.01906l6.5 5.48262.28275-11.16668L322.0655 99l6.21725.01101c3.41949.0061 7.90475.28993 9.96725.63084l3.75.61983.0705 19.61916.0705 19.61916 9.35896 8.5 9.35896 8.5.0705 21.65616.0705 21.65616-5.25.694c-9.69978 1.28222-35.48308 8.33487-49.42589 13.51973-7.60318 2.8274-25.74903 10.91338-40.32403 17.96886-29.06289 14.06878-45.45231 20.42879-65.98382 25.60541-7.4161 1.86982-13.8286 3.39968-14.25 3.39968-.4214 0-.76618-24.64085-.76618-54.75745zM79.7486 243.47704c-12.1405-3.54238-30.182-10.55014-38.49645-14.95297-4.7715-2.5267-4.58738-2.54992 4.74785-.59877 2.475.5173 8.29066 1.45289 12.92368 2.07908 6.48713.87679 9.40223 1.81179 12.68018 4.06708C73.94493 235.68216 76.08968 237 76.36997 237c.28029 0 4.24921 2.24914 8.81982 4.99809 4.57062 2.74895 7.86021 4.97777 7.31021 4.95295-.55-.0248-6.28813-1.58813-12.7514-3.474zm39.58578-21.90603c1.4058-3.66347 1.75287-8.53947.74224-10.42785-.82603-1.54345-45.19462-39.65956-65.48097-56.25331-1.88843-1.54469-1.62546-1.78863 6.46795-6 7.526-3.91613 8.46863-4.71927 8.73504-7.44247.16425-1.67895-2.19825-12.15052-5.25-23.27016S59 97.36625 59 96.64094c0-.99692 4.32766-.3819 17.73332 2.52016C86.48665 101.27249 95.40064 103 96.5422 103c3.77365 0 5.50969-2.40504 7.5857-10.50887 1.12341-4.38532 2.34953-8.52182 2.7247-9.19221.43085-.76987 6.56999 5.39112 16.66477 16.72408 15.70002 17.62571 19.05189 20.36147 22.38742 18.27241 2.91666-1.82673 2.20885-8.44976-4.70716-44.04541-3.76688-19.3875-6.66504-35.25-6.44037-35.25.22467 0 4.69607 2.25 9.93646 5 6.61678 3.4723 10.6987 5 13.35963 5h3.83166l8.75279-16.75c4.81404-9.2125 10.62199-20.25505 12.90658-24.53901l4.15379-7.78901 11.79628 22.5885c15.05098 28.82085 15.73967 29.28235 31.15709 20.8783 4.65266-2.53616 8.60294-4.44866 8.7784-4.25.27409.31036-1.90259 12.8911-11.00419 63.60177l-1.6585 9.24054-9.13362 6.6472c-5.02349 3.65596-15.77112 11.81575-23.88362 18.13287L179 148.24684v53.58207l-10.75 5.48305c-11.91323 6.07637-24.61521 10.82837-36.75 13.74874-9.76659 2.35044-12.92255 2.48282-12.16562.51031z"/><path fill="#ed2b2b" d="M185.0302 206.26905l.0302-54.76905 10.2198-8.08196c5.62089-4.44508 20.7948-16.12299 33.7198-25.95091 12.925-9.82793 28.16947-21.61136 33.8766-26.18541 6.74099-5.40266 10.77021-8.00843 11.5-7.4373.61787.48355 8.7734 6.86103 18.1234 14.17218 9.35 7.31115 19.5361 15.47334 22.63579 18.1382 3.09968 2.66486 5.91218 4.8452 6.25 4.8452.33781 0 .61421-4.95.61421-11V99l4.75.0087c2.6125.0048 7.1125.29246 10 .6393l5.25.63059.0285 19.61071.0285 19.61071 9.38827 8.5 9.38827 8.5.0737 21.5.0737 21.5-13.90859 2.71822c-24.20569 4.73062-49.18506 13.82942-79.18901 28.84477-31.35891 15.69344-50.97693 22.8822-80.13326 29.36378l-2.75.61133.0302-54.76905zm-65.69582 15.30196c1.4058-3.66347 1.75287-8.53947.74224-10.42785-.82603-1.54345-45.19462-39.65956-65.48097-56.25331-1.88843-1.54469-1.62546-1.78863 6.46795-6 7.526-3.91613 8.46863-4.71927 8.73504-7.44247.16425-1.67895-2.19825-12.15052-5.25-23.27016S59 97.36625 59 96.64094c0-.99692 4.32766-.3819 17.73332 2.52016C86.48665 101.27249 95.40064 103 96.5422 103c3.77365 0 5.50969-2.40504 7.5857-10.50887 1.12341-4.38532 2.34953-8.52182 2.7247-9.19221.43085-.76987 6.56999 5.39112 16.66477 16.72408 15.70002 17.62571 19.05189 20.36147 22.38742 18.27241 2.91666-1.82673 2.20885-8.44976-4.70716-44.04541-3.76688-19.3875-6.66504-35.25-6.44037-35.25.22467 0 4.69607 2.25 9.93646 5 6.61678 3.4723 10.6987 5 13.35963 5h3.83166l8.75279-16.75c4.81404-9.2125 10.62199-20.25505 12.90658-24.53901l4.15379-7.78901 11.79628 22.5885c15.05098 28.82085 15.73967 29.28235 31.15709 20.8783 4.65266-2.53616 8.60294-4.44866 8.7784-4.25.27409.31036-1.90259 12.8911-11.00419 63.60177l-1.6585 9.24054-9.13362 6.6472c-5.02349 3.65596-15.77112 11.81575-23.88362 18.13287L179 148.24684v53.58207l-10.75 5.48305c-11.91323 6.07637-24.61521 10.82837-36.75 13.74874-9.76659 2.35044-12.92255 2.48282-12.16562.51031z"/><path fill="#29378e" d="M185.0302 206.26905l.0302-54.76905 10.2198-8.08196c5.62089-4.44508 20.7948-16.12299 33.7198-25.95091 12.925-9.82793 28.16947-21.61136 33.8766-26.18541 6.74099-5.40266 10.77021-8.00843 11.5-7.4373.61787.48355 8.7734 6.86103 18.1234 14.17218 9.35 7.31115 19.5361 15.47334 22.63579 18.1382 3.09968 2.66486 5.91218 4.8452 6.25 4.8452.33781 0 .61421-4.95.61421-11V99l4.75.0087c2.6125.0048 7.1125.29246 10 .6393l5.25.63059.0285 19.61071.0285 19.61071 9.38827 8.5 9.38827 8.5.0737 21.5.0737 21.5-13.90859 2.71822c-24.20569 4.73062-49.18506 13.82942-79.18901 28.84477-31.35891 15.69344-50.97693 22.8822-80.13326 29.36378l-2.75.61133.0302-54.76905z"/></g></svg>