<svg xmlns="http://www.w3.org/2000/svg" role="img" viewBox="2.40 2.90 102.08 102.96"><title>captoolkit logo</title><circle cx="50.049" cy="45" r="40.14" fill="#0B3D91"/><g fill="#FFF"><circle cx="47.679" cy="12.57" r=".45"/><circle cx="52.299" cy="13.17" r=".45"/><circle cx="58.359" cy="21.33" r=".45"/><circle cx="25.119" cy="63.33" r=".45"/><circle cx="26.289" cy="66.93" r=".45"/><circle cx="20.709" cy="63.87" r=".337"/><circle cx="39.009" cy="70.942" r=".338"/><circle cx="67.711" cy="64.98" r=".337"/><circle cx="76.052" cy="55.92" r=".338"/><circle cx="35.169" cy="23.962" r=".337"/><circle cx="44.349" cy="17.22" r=".337"/><circle cx="43.352" cy="16.56" r=".337"/><circle cx="42.452" cy="15.9" r=".337"/><circle cx="36.609" cy="25.703" r=".337"/><circle cx="50.131" cy="8.16" r=".337"/><circle cx="52.352" cy="17.88" r=".337"/><circle cx="48.849" cy="15.982" r=".337"/><circle cx="42.849" cy="18.563" r=".337"/><circle cx="69.309" cy="73.883" r=".337"/><circle cx="24.549" cy="65.61" r=".338"/><circle cx="48.009" cy="69.96" r=".338"/><circle cx="31.531" cy="65.34" r=".338"/><circle cx="34.449" cy="70.103" r=".338"/><circle cx="55.929" cy="67.103" r=".337"/><circle cx="67.771" cy="60.42" r=".337"/><circle cx="76.749" cy="64.522" r=".337"/><circle cx="79.809" cy="66.48" r=".337"/><circle cx="80.312" cy="61.14" r=".337"/><circle cx="35.671" cy="53.58" r=".337"/><circle cx="35.799" cy="61.32" r=".45"/><circle cx="38.499" cy="67.02" r=".45"/><circle cx="70.839" cy="61.08" r=".45"/><circle cx="82.479" cy="60.42" r=".45"/><circle cx="76.719" cy="57.96" r=".45"/><circle cx="70.839" cy="58.2" r=".45"/><path d="M58.71 12.288l1.119-.107-1.117-.063c-.035-.216-.208-.385-.426-.413l-.107-1.114-.064 1.123c-.202.045-.357.214-.382.424l-1.144.104 1.152.062c.042.193.198.344.394.38l.104 1.148.061-1.146c.207-.035.371-.194.41-.398zM39.824 24.746l1.119-.107-1.117-.063c-.034-.216-.208-.385-.426-.413l-.107-1.114-.063 1.123c-.203.045-.358.214-.383.424l-1.144.104 1.152.062c.042.193.198.344.394.38l.104 1.148.062-1.146c.207-.034.371-.194.409-.398zm41.835 32.938l1.119-.107-1.117-.063c-.034-.216-.208-.385-.426-.413l-.107-1.114-.063 1.123c-.202.045-.357.214-.382.424l-1.144.104 1.152.062c.042.193.198.344.394.38l.104 1.148.062-1.146c.205-.034.369-.193.408-.398zM36.044 74.906l1.119-.107-1.117-.063c-.035-.216-.208-.385-.426-.413l-.107-1.113-.063 1.122c-.203.045-.358.214-.383.424l-1.144.104 1.152.062c.042.193.198.345.394.38l.104 1.148.062-1.146c.206-.034.371-.194.409-.398zm42.06-8.4l1.119-.107-1.117-.063c-.034-.216-.208-.385-.426-.413l-.107-1.114-.063 1.122c-.202.045-.357.214-.382.424l-1.144.104 1.152.062c.042.193.198.344.394.38l.104 1.148.062-1.146c.205-.033.37-.193.408-.397z"/></g><path fill="#FC3D21" d="M59.568 35.385c-4.667 1.814-9.219 3.433-13.06 4.635-7.805 2.444-29.16 9.06-42.06 17.4l1.08.42c7.86-4.44 12.969-5.835 17.88-7.38 5.34-1.68 22.603-5.72 30.42-7.92 2.641-.743 5.734-1.716 9.01-2.9-.762-1.063-1.566-2.129-2.412-3.193-.283-.359-.57-.713-.858-1.062zm5.702 7.859c-1.13.763-2.077 1.372-2.74 1.756-3.84 2.22-22.561 15-26.82 17.94s-16.08 14.1-19.56 17.34l-.12 1.319c11.22-10.08 14.74-12.566 19.2-15.959 5.52-4.2 16.939-11.97 20.82-14.46 3.71-2.38 7.056-4.569 10.059-6.572-.049-.082-.098-.164-.147-.247-.226-.371-.457-.743-.692-1.117zM82.809 24.72c-5.466 3.204-14.081 7.071-22.439 10.352.2.245.399.492.597.741.934 1.176 1.815 2.36 2.644 3.545 6.57-2.42 13.779-5.668 19.499-9.599-2.725 2.582-11.734 9.315-17.227 13.068.283.461.557.922.822 1.381 8.322-5.569 13.922-9.668 17.185-12.409 4.5-3.78 14.76-12.24 18.66-23.58-6.841 8.701-14.929 13.68-19.741 16.501z"/><path fill="#FFF" d="M44.884 54.939c-.885-1.114-2.109-2.606-3.028-3.763-1.229-1.547-2.366-3.11-3.408-4.671-.34.085-.679.17-1.018.255 1.258 1.963 2.655 3.923 4.177 5.839 1.112 1.4 2.123 2.527 2.641 3.228.105.142.313.456.594.874.324-.22.651-.442.981-.666-.319-.347-.634-.712-.939-1.096zm6.46 5.864c-.727-.688-2.49-1.837-4.325-3.561-.405.278-.814.56-1.224.844 1.185 1.67 2.799 3.721 4.063 4.319 1.904.902 2.417-.72 1.486-1.602zm9.623-24.99c-10.492-13.206-23.309-20.461-28.835-16.07-4.292 3.41-2.53 13.376 3.386 23.845.306-.105.609-.208.909-.31-5.971-10.2-7.605-19.679-3.557-22.896 5.087-4.042 17.37 3.241 27.558 16.064 2.109 2.654 3.963 5.318 5.533 7.915 6.012 9.95 7.857 18.948 3.703 22.621-1.271 1.124-5.155 1.565-10.243-.725-.071.089.043.33.132.389 4.392 1.766 8.599 2.439 10.723.752 5.104-4.056 1.183-18.379-9.309-31.585z"/><path fill="#FFF" d="M15.969 37.38h6.72l5.64 9.57v-7.47c0-.84-1.065-1.935-1.44-2.1h4.65c-.285.075-1.2 1.185-1.2 2.1v10.98c0 .675.975 1.605 1.44 1.965h-6.48l-5.73-9.615v7.56c0 .75.735 1.47 1.5 2.085h-4.95c.705-.3 1.38-1.245 1.44-1.995s0-10.425 0-10.845c0-.915-.885-1.665-1.59-2.235zm61.47 15.045h8.94c-.495-.12-1.05-.705-1.35-1.485-.3-.78-5.04-13.56-5.04-13.56H76.59c-.964.694-1.997 1.426-3.1 2.197-.003.028-.006.056-.011.083-.148.9-2.808 10.534-2.97 11.01-.225.66-1.38 1.395-1.845 1.785h4.815c-.48-.54-.87-1.065-.78-1.665.09-.6.36-1.8.36-1.8h4.98c.225.6.393 1.139.48 1.65.105.615-.525 1.305-1.08 1.785zm-3.93-5.355l1.68-5.49 2.22 5.49h-3.9zm-.757-9.142c.247-.182.495-.365.742-.548h-1.305c.13.12.345.309.563.548zM38.559 50.79c.09-.6.36-1.8.36-1.8h4.98c.225.6.393 1.139.48 1.65.105.615-.525 1.305-1.08 1.785h7.871c.164-.11.327-.22.49-.329-.305-.27-.586-.675-.771-1.156-.3-.78-5.04-13.56-5.04-13.56h-7.8c.375.345 1.455 1.275 1.29 2.28-.147.9-2.808 10.534-2.97 11.01-.225.66-1.38 1.395-1.845 1.785h4.815c-.48-.54-.87-1.065-.78-1.665zm2.49-9.21l2.22 5.49h-3.9l1.68-5.49zm24.699 3.268c-1.468.978-3.017 1.999-4.649 3.065.732.355 1.315.801 1.371 1.377.104 1.082-2.07 1.605-4.035 1.38-.393-.045-.779-.148-1.147-.286-.408.263-.82.528-1.238.796-.425.273-.941.609-1.53.997v1.553c.39-.765 1.243-1.45 1.905-1.485.285-.015 1.275.9 5.355.675 1.98-.109 5.805-2.22 5.745-4.65-.036-1.436-.786-2.556-1.777-3.422zM54.519 48.6v1.582c.361-.241.717-.478 1.066-.709-.549-.382-.938-.739-1.066-.873zm9.834-4.745c-.38-.225-.765-.422-1.134-.596-1.92-.9-3.93-1.065-4.35-2.28-.296-.857.54-1.65 2.58-1.62 2.04.03 3.93 1.245 4.44 1.68v-3.87c-.15.15-.808.905-1.41.78-1.155-.24-3.12-.553-5.37-.54-2.58.015-4.8 2.009-4.875 4.53-.105 3.525 2.715 4.485 4.305 5.04.164.057.351.118.554.183 1.525-.992 2.731-1.756 3.437-2.163.474-.273 1.095-.665 1.823-1.144z"/><path d="M19.23216 94.37189h2.46582c-.13445-1.31095-.56903-2.22573-1.30374-2.74435-.7347-.51621-1.6783-.77552-2.83318-.77552-1.35657 0-2.4202.43938-3.19093 1.31575-.77072.87876-1.15488 2.10808-1.15488 3.68793 0 1.40219.34815 2.54266 1.04684 3.41903.69629.87876 1.78634 1.31815 3.26536 1.31815 1.47901 0 2.59788-.52582 3.3518-1.57986.47299-.65307.7371-1.34456.79232-2.07687h-2.45622c-.05042.485-.19448.87877-.42978 1.1837-.2377.30252-.63626.45619-1.1981.45619-.79473 0-1.33495-.38416-1.62067-1.15008-.15847-.41057-.2377-.9532-.2377-1.62788 0-.7083.07923-1.27733.2377-1.7047.29772-.80434.85235-1.20771 1.66149-1.20771.56904 0 .98921.18487 1.25812.55703.18488.27611.30253.58584.34575.92919zm-1.62788-3.54628zm10.8213 4.97247v.89557c-.0168.80434-.2449 1.35897-.67948 1.6615-.43698.30492-.91478.45619-1.431.45619-.32653 0-.60505-.09124-.83074-.27372-.2281-.18247-.34334-.4802-.34334-.89077 0-.461.18727-.80193.55703-1.02283.2209-.12965.58344-.2377 1.09005-.32893l.54023-.10084c.26891-.05043.4826-.10565.63626-.16327.15607-.06003.30733-.13686.461-.2329zm-1.4598-1.12367l-.81874.10084c-.9292.12005-1.63268.31694-2.11048.59305-.87397.50661-1.30855 1.32535-1.30855 2.45622 0 .87157.27131 1.54625.81394 2.02165.54263.4754 1.23171.7131 2.06486.7131.65067 0 1.23652-.14887 1.75513-.449.43218-.2521.81634-.55943 1.14768-.91958.0168.2089.03842.39377.06723.55704.02881.16326.07923.33854.15126.52341h2.6171v-.35534c-.15607-.07203-.27612-.16567-.35296-.27852-.07923-.11045-.12725-.32413-.14406-.64107-.012-.41537-.0168-.77072-.0168-1.06364v-4.21856c0-1.10926-.39137-1.86317-1.1741-2.26414-.78272-.39857-1.67589-.59785-2.68431-.59785-1.54624 0-2.6387.40337-3.27496 1.2149-.39857.51862-.62426 1.1789-.67468 1.98323h2.32176c.05523-.35534.16807-.63626.33614-.84275.2377-.28332.63867-.42257 1.2077-.42257.50662 0 .89078.07203 1.15248.21368.26171.14407.39137.40577.39137.78273 0 .30973-.17047.53542-.51382.68188-.19208.08644-.509.15607-.9532.2113zm.12485-3.8488zm11.72888 2.96283c.32414.54503.485 1.1741.485 1.88239 0 .86196-.17527 1.55104-.52581 2.06726-.35295.51861-.86436.77792-1.53184.77792-.4634 0-.86196-.12725-1.2005-.37936-.56664-.43458-.85236-1.18609-.85236-2.25453 0-.67469.08404-1.23172.25451-1.6711.32654-.82835.92439-1.24132 1.79835-1.24132.7251 0 1.24852.27372 1.57265.81874zm1.84877-1.73112c-.7443-.79233-1.65429-1.1885-2.72993-1.1885-.73711 0-1.37337.2041-1.9088.61466-.29292.2305-.56663.54743-.82594.946V91.0705h-2.30496v12.82134h2.37939v-4.7948c.2545.38897.51381.68429.77792.88837.4826.36496 1.09246.54743 1.82236.54743 1.14768 0 2.08647-.42497 2.81637-1.27493.7275-.84995 1.09246-2.08407 1.09246-3.70474 0-1.53664-.37215-2.70113-1.11887-3.49586zm1.9112.81154h1.28454v5.66396c0 .57384.13445.99882.40576 1.27493.41538.43218 1.1909.62906 2.32897.59065l1.14048-.04322v-1.79835a3.9861 3.9861 0 0 1-.2425.0144c-.08164.0024-.15847.0048-.2305.0048-.4898 0-.78272-.04801-.87876-.14165-.09604-.09124-.14406-.32654-.14406-.7035v-4.86202h1.49582v-1.71431H46.2434v-2.56427H43.864v2.56427h-1.28453zm12.45159 4.95566c-.37696.49941-.91719.75152-1.62068.75152-.7035 0-1.24612-.2521-1.62548-.75152-.37935-.5018-.56903-1.2125-.56903-2.13689 0-.92198.18968-1.63268.56903-2.13208.37936-.49701.92199-.74671 1.62548-.74671.7035 0 1.24372.2497 1.62068.7467.37695.49941.56663 1.21011.56663 2.1321 0 .92438-.18968 1.63508-.56663 2.13688zm1.9256 1.32776c.77552-.958 1.16448-2.11288 1.16448-3.46465 0-1.32775-.38896-2.47783-1.16448-3.45263-.77793-.9724-1.95682-1.45981-3.53668-1.45981-1.58225 0-2.76115.4874-3.53907 1.4598-.77552.97481-1.16448 2.1249-1.16448 3.45264 0 1.35177.38896 2.50665 1.16448 3.46465.77792.9604 1.95682 1.4406 3.53907 1.4406 1.57986 0 2.75875-.4802 3.53668-1.4406zm-3.53668-8.32667zm12.17067 6.99891c-.37695.49941-.91718.75152-1.62067.75152-.7035 0-1.24372-.2521-1.62548-.75152-.37936-.5018-.56904-1.2125-.56904-2.13689 0-.92198.18968-1.63268.56904-2.13208.38176-.49701.92199-.74671 1.62548-.74671.7035 0 1.24372.2497 1.62067.7467.37696.49941.56664 1.21011.56664 2.1321 0 .92438-.18968 1.63508-.56664 2.13688zm1.9256 1.32776c.77553-.958 1.1645-2.11288 1.1645-3.46465 0-1.32775-.38897-2.47783-1.1645-3.45263-.77792-.9724-1.9568-1.45981-3.53667-1.45981-1.58226 0-2.76115.4874-3.53667 1.4598-.77792.97481-1.16689 2.1249-1.16689 3.45264 0 1.35177.38897 2.50665 1.16689 3.46465.77552.9604 1.95441 1.4406 3.53667 1.4406 1.57986 0 2.75875-.4802 3.53668-1.4406zM63.9796 90.8256zm8.8789 9.44553V87.82916h-2.4058v12.44198zm2.32177-12.39876v12.39876h2.36258v-2.8956l.99642-1.03723 2.20411 3.93283h2.90281L80.304 94.6336l3.21494-3.51987H80.5393l-2.99645 3.45984v-6.70119zm12.11304 2.10087v-2.22092H84.8539v2.22092zM84.8539 91.0705v9.20063h2.43941V91.0705zm3.82239 1.79835h1.28453v5.66396c0 .57384.13446.99882.40337 1.27493.41778.43218 1.1933.62906 2.33137.59065l1.13808-.04322v-1.79835c-.07684.0072-.15847.012-.2401.0144-.08164.0024-.15847.0048-.2329.0048-.4874 0-.78033-.04801-.87637-.14165-.09604-.09124-.14406-.32654-.14406-.7035v-4.86202h1.49343v-1.71431H92.3402v-2.56427h-2.37939v2.56427h-1.28453z"/></svg>