<svg xmlns="http://www.w3.org/2000/svg" role="img" viewBox="3.78 20.28 141.57 60.07"><title>carbon budget logo</title><path fill="#0079C1" fill-rule="evenodd" d="M28.5 49.5c-.7.5-1.6.9-2.5 1.3h8.3v-8.2c-.3.7-.8 1.8-1.3 2.5l-1.6-1.6c-.5.9-1.2 1.7-1.9 2.5-.8.8-1.6 1.4-2.5 1.9l1.5 1.6zm.1-8.7c-.4.9-1 1.8-1.8 2.6s-1.7 1.4-2.6 1.8l2.2 2.2c.9-.5 1.8-1.2 2.5-1.9.8-.8 1.4-1.6 1.9-2.5l-2.2-2.2zm5.2-.7c.5-2 .5-4.2 0-6.3h-1.1c.5 2.1.5 4.3 0 6.3h1.1zm-1.7 0c.5-1.9.6-4.2 0-6.3h-3.2c.7 2 .7 4.3 0 6.3h3.2zm.8-11.3c.4.6.9 1.6 1.3 2.5v-8.2h-8.3c.8.3 1.6.7 2.5 1.3L26.8 26c.9.5 1.7 1.1 2.5 1.9.8.8 1.4 1.6 1.9 2.5l1.7-1.6zm-8.7-.1c.9.4 1.8 1 2.6 1.8s1.3 1.6 1.8 2.6l2.2-2.2c-.5-.9-1.2-1.8-1.9-2.5-.8-.8-1.6-1.4-2.5-1.9l-2.2 2.2zm-.7-5.2c-2.1-.5-4.2-.5-6.3 0v1.1c2.1-.5 4.2-.5 6.3 0v-1.1zm0 1.7c-2.1-.6-4.2-.5-6.3 0v3.2c2-.7 4.3-.8 6.3 0v-3.2zM9.4 30.5c.5-.9 1.2-1.7 1.9-2.5.8-.8 1.6-1.4 2.5-1.9l-1.6-1.6c.8-.5 1.6-.9 2.5-1.3H6.5v8.3c.4-.9.8-1.7 1.3-2.5l1.6 1.5zm4.9-4.1c-.9.5-1.8 1.2-2.5 1.9-.8.8-1.4 1.6-1.9 2.5l2.2 2.2c.4-1 1-1.8 1.8-2.6s1.7-1.4 2.6-1.8l-2.2-2.2zm-5.7 7.4c-.5 2.1-.6 4.2 0 6.3h3.2c-.7-2-.7-4.3 0-6.3H8.6zm-1.7 0c-.5 2.1-.5 4.2 0 6.3H8c-.5-2-.5-4.2 0-6.3H6.9zm.9 11.3c-.5-.8-.9-1.6-1.3-2.5v8.3h8.2c-.9-.4-1.7-.8-2.5-1.3l1.7-1.6c-.9-.5-1.7-1.2-2.5-1.9-.8-.8-1.4-1.6-1.9-2.5l-1.7 1.5zm2-2.1c.5.9 1.2 1.8 1.9 2.5.8.8 1.6 1.4 2.5 1.9l2.2-2.2c-1-.4-1.8-1-2.6-1.8s-1.4-1.7-1.8-2.6L9.8 43zm7.4 2.5c2 .7 4.3.7 6.3 0v3.2c-2.1.6-4.2.5-6.3 0v-3.2zm0 3.8c2.1.5 4.2.5 6.3 0v1.1c-2.1.5-4.2.5-6.3 0v-1.1z" clip-rule="evenodd"/><path fill="#0079C1" d="M40.7 23h4.2l13.9 19.3V23h4.5v28h-3.8L45.2 31v19.9h-4.5V23zm35.7 13.8h3.9c3.4 0 5.5-1.8 5.5-4.7V32c0-3-2.1-4.6-5.6-4.6h-6.9v23.5h-4.7V23h12c3.4 0 6 1 7.8 2.8 1.4 1.5 2.2 3.6 2.2 6v.1c0 4.6-2.7 7.4-6.4 8.5L91.5 51h-5.6l-9.5-14.2zM95.6 23h21.3v4.4h-16v7.3h13V39h-13v7.5h16.2v4.4H95.6V23zm27 0h5.3v23.5h14.8V51h-20.1V23z"/><path fill="#5C6670" d="M9.9 58.9h-.4l-2.4-3v3h-.6v-4H7l2.4 3v-3h.6v4h-.1zm4.8 0h-.6l-.5-1h-2l-.5 1h-.6l1.8-4h.5l1.9 4zm-2.9-1.5h1.6l-.8-1.7-.8 1.7zm4.6 1.5h-.6v-3.4h-1.3V55h3.2v.5h-1.3v3.4zm2.6 0h-.6v-4h.6v4zm2.9.1c-1.2 0-2-.9-2-2 0-1.2.9-2.1 2-2.1 1.2 0 2 .9 2 2 0 1.2-.9 2.1-2 2.1zm0-3.6c-.8 0-1.5.6-1.5 1.5s.6 1.5 1.5 1.5c.8 0 1.5-.7 1.5-1.5-.1-.8-.7-1.5-1.5-1.5zm6.2 3.5h-.4l-2.4-3v3h-.6v-4h.5l2.4 3v-3h.6v4h-.1zm4.8 0h-.6l-.5-1h-2l-.5 1h-.6l1.8-4h.5l1.9 4zM30 57.4h1.6l-.8-1.7-.8 1.7zm6.2 1.5h-2.8v-4h.6v3.4h2.2v.6zm2.9 0h-.6v-4h1.7c.5 0 .9.1 1.1.4.2.2.3.5.3.8 0 .6-.4 1-1 1.2l1.2 1.6h-.7l-1.5-2h.5c.6 0 .9-.3.9-.7 0-.5-.3-.7-.9-.7H39v3.4zm50.5 0H89v-4h1.7c.5 0 .9.1 1.1.4.2.2.3.5.3.8 0 .6-.4 1-1 1.2l1.2 1.6h-.7l-1.5-2h.5c.6 0 .9-.3.9-.7 0-.5-.3-.7-.9-.7h-1.1v3.4zm30.4 0h-.6v-4h1.7c.5 0 .9.1 1.1.4.2.2.3.5.3.8 0 .6-.4 1-1 1.2l1.2 1.6h-.7l-1.5-2h.5c.6 0 .9-.3.9-.7 0-.5-.3-.7-.9-.7h-1v3.4zm15.9 0h-.6v-4h1.7c.5 0 .9.1 1.1.4.2.2.3.5.3.8 0 .6-.4 1-1 1.2l1.2 1.6h-.6l-1.5-2h.5c.6 0 .9-.3.9-.7 0-.5-.3-.7-.9-.7h-1.1v3.4zm-90.4 0h-3v-4h2.9v.5H43v1.2h2.1v.5H43v1.2h2.4v.6h.1zm4.2 0h-.4l-2.4-3v3h-.6v-4h.5l2.4 3v-3h.6v4h-.1zm3.9 0h-3v-4h2.9v.5h-2.4v1.2h2v.5h-2v1.2h2.4v.6h.1zm4.9.1H58l-1-3-1 3h-.5l-1.4-4h.6l1.1 3.1 1-3.1h.5l1 3.1 1.1-3.1h.6l-1.5 4zm5.3-.1h-.6l-.5-1h-2l-.5 1h-.6l1.8-4h.6l1.8 4zm-2.9-1.5h1.6l-.8-1.7-.8 1.7zm5.3 1.5h-1.8v-4h1.7c.4 0 .8.1 1.1.4.2.2.3.4.3.7 0 .5-.3.7-.5.9.5.2.7.5.7.9 0 .7-.6 1.1-1.5 1.1zm-1.2-.5h1.2c.6 0 .9-.2.9-.6 0-.5-.6-.6-1-.6H65v1.2zm0-1.7h1.1c.5 0 .8-.2.8-.6 0-.4-.3-.6-.8-.6H65v1.2zm6.2 2.2h-2.8v-4h.6v3.4h2.2v.6zm3.6 0h-3v-4h2.9v.5h-2.4v1.2h2v.5h-2v1.2h2.4v.6h.1zm5.4 0h-3v-4h2.9v.5h-2.4v1.2h2v.5h-2v1.2h2.4v.6h.1zm4.2 0H84l-2.4-3v3H81v-4h.5l2.3 2.9v-3h.6v4.1zm3.9 0h-3v-4h2.9v.5h-2.4v1.2h2v.5h-2v1.2h2.4v.6h.1zm6.6.1c-1.2 0-2-.8-2-2s.9-2.1 2-2.1c.6 0 1 .2 1.5.5l-.4.4c-.3-.2-.6-.4-1.1-.4-.8 0-1.4.7-1.4 1.5 0 .9.6 1.5 1.5 1.5.4 0 .8-.1 1.1-.4v-.9h-1.2v-.5h1.7v1.6c-.3.4-.9.8-1.7.8zm4.1-.1h-.6v-1.6L96.8 55h.7l1.3 1.9L100 55h.7L99 57.4v1.5zm6.6 0h-2.8v-4h.6v3.4h2.2v.6zm4.5 0h-.6l-.5-1h-2l-.5 1h-.6l1.8-4h.5l1.9 4zm-2.9-1.5h1.6l-.8-1.7-.8 1.7zm5.3 1.5h-1.8v-4h1.7c.5 0 .8.1 1.1.4.2.2.3.4.3.7 0 .5-.3.7-.5.9.5.2.7.5.7.9-.1.7-.6 1.1-1.5 1.1zm-1.3-.5h1.2c.6 0 .9-.2.9-.6 0-.5-.6-.6-1-.6h-1.2v1.2h.1zm0-1.7h1.1c.5 0 .8-.2.8-.6 0-.4-.3-.6-.8-.6h-1.1v1.2zm5.3 2.3c-1.2 0-2-.9-2-2 0-1.2.9-2.1 2-2.1 1.2 0 2 .9 2 2 .1 1.2-.8 2.1-2 2.1zm0-3.6c-.8 0-1.5.6-1.5 1.5s.6 1.5 1.5 1.5c.8 0 1.5-.7 1.5-1.5s-.6-1.5-1.5-1.5zm10.7 3.5h-.6l-.5-1h-2l-.5 1h-.6l1.8-4h.5l1.9 4zm-2.9-1.5h1.6l-.8-1.7-.8 1.7zm4.6 1.5h-.6v-3.4H127V55h3.2v.5h-1.3v3.4zm3.6.1c-1.2 0-2-.9-2-2 0-1.2.9-2.1 2-2.1 1.2 0 2 .9 2 2 0 1.2-.9 2.1-2 2.1zm0-3.6c-.8 0-1.5.6-1.5 1.5s.6 1.5 1.5 1.5c.8 0 1.5-.7 1.5-1.5-.1-.8-.7-1.5-1.5-1.5zm8.5 3.5h-.6v-1.6l-1.7-2.4h.7l1.3 1.9L142 55h.7l-1.7 2.4v1.5z"/><path d="M24.1799 68.59267h2.32635c-.12685-1.2368-.53685-2.09984-1.23-2.58912-.69315-.48702-1.58338-.73166-2.67294-.73166-1.27984 0-2.28332.41453-3.01045 1.24133-.72713.82906-1.08956 1.98884-1.08956 3.47935 0 1.32287.32845 2.39884.98763 3.22564.6569.82906 1.6853 1.2436 3.08067 1.2436 1.39536 0 2.45095-.49608 3.16222-1.4905.44624-.61614.69541-1.26852.74751-1.9594h-2.3173c-.04756.45757-.18348.82906-.40547 1.11674-.22425.28541-.60027.43039-1.13033.43039-.74978 0-1.25945-.36243-1.52901-1.08503-.1495-.38735-.22426-.89929-.22426-1.5358 0-.66824.07476-1.2051.22426-1.6083.28088-.75884.80415-1.1394 1.56752-1.1394.53685 0 .93326.17442 1.18696.52553.17442.2605.28542.5527.3262.87663zm-1.53581-3.3457zm10.20925 4.69123v.84492c-.01585.75884-.23105 1.2821-.64105 1.56752-.41227.28768-.86304.43039-1.35006.43039-.30807 0-.57083-.08608-.78376-.25824-.2152-.17215-.32392-.45304-.32392-.84038 0-.43492.17668-.75658.52552-.96498.2084-.12232.55045-.22425 1.0284-.31033l.50968-.09514c.2537-.04757.4553-.09967.60027-.15403.14724-.05663.28995-.12912.43492-.21973zm-1.37724-1.0601l-.77243.09514c-.87664.11326-1.54034.299-1.99111.5595-.82454.47796-1.23454 1.2504-1.23454 2.3173 0 .82227.25597 1.45879.7679 1.9073.51194.4485 1.16205.67276 1.94808.67276.61387 0 1.16658-.14044 1.65586-.42359.40773-.23785.77017-.5278 1.08276-.86757.01586.19707.03625.3715.06343.52553.02718.15403.07475.31939.1427.4938h2.46908v-.33524c-.14724-.06796-.2605-.1563-.33299-.26276-.07475-.1042-.12005-.3058-.13591-.60481-.01133-.39188-.01586-.72713-.01586-1.00349v-3.97995c0-1.04652-.36923-1.7578-1.10768-2.13609-.73846-.37602-1.58111-.56403-2.5325-.56403-1.45878 0-2.48945.38055-3.08973 1.14619-.37602.48928-.58895 1.11221-.63652 1.87106h2.19045c.0521-.33525.15856-.60028.31713-.79509.22425-.2673.60254-.39867 1.1394-.39867.47795 0 .84038.06795 1.08729.2016.2469.13591.36923.38282.36923.73845 0 .29221-.16083.50514-.48476.64332-.18121.08155-.48022.14724-.89928.19934zm.1178-3.63112zm10.36555.02718c-.02945-.00226-.0657-.00226-.10873-.00226-.67956 0-1.23.17668-1.65586.53232-.2605.21293-.56404.60934-.91515 1.18697v-1.51316h-2.16553v8.68025h2.28559V70.0107c0-.69768.08608-1.21188.26276-1.54713.3126-.59349.92647-.89023 1.83935-.89023.06795 0 .15856.00227.26955.0068.111.0068.24012.01585.38282.03171v-2.3241c-.10193-.00679-.16536-.00906-.1948-.01359zm8.89544 1.24813c-.64559-.82453-1.53807-1.23453-2.67974-1.23453-.63199 0-1.15298.13138-1.56072.39867-.34657.21066-.66144.51873-.94912.92194v-4.1725h-2.26067v11.7224h2.22216v-1.08955c.30128.42359.58443.72033.84266.89022.43718.28768 1.01254.43039 1.72835.43039 1.14166 0 2.03188-.44398 2.6684-1.32967.63652-.8857.95592-2.0047.95592-3.3525 0-1.30022-.32166-2.3626-.96724-3.18487zm-1.9005 5.28698c-.32393.47342-.77697.709-1.3614.709-.67276 0-1.17563-.24464-1.50408-.73392-.33072-.48702-.49382-1.10315-.49382-1.84614 0-.63199.07928-1.14619.23785-1.54487.30807-.74978.87437-1.12353 1.69663-1.12353.81321 0 1.37045.38281 1.67172 1.14619.16083.40547.24011.91514.24011 1.529 0 .77017-.1631 1.39084-.48702 1.86427zm9.91477.04077c-.35563.47116-.8653.709-1.529.709-.66371 0-1.17338-.23784-1.53128-.709-.36017-.47343-.53912-1.14393-.53912-2.01603 0-.86983.17895-1.54033.53912-2.0115.3579-.4689.86757-.70447 1.53127-.70447s1.17338.23558 1.52901.70447c.35564.47117.5346 1.14167.5346 2.0115 0 .8721-.17896 1.5426-.5346 2.01603zm1.8167 1.25266c.73165-.90382 1.09862-1.99338 1.09862-3.26869 0-1.25265-.36697-2.33768-1.09863-3.25736-.73392-.9174-1.84613-1.37724-3.33664-1.37724-1.49276 0-2.60498.45984-3.33663 1.37724-.73393.91968-1.09863 2.0047-1.09863 3.25736 0 1.27531.3647 2.36487 1.09863 3.26869.73165.90608 1.84387 1.35912 3.33663 1.35912 1.4905 0 2.60272-.45304 3.33664-1.35912zm-3.33665-7.85572zm13.07247.7294c-.57083-.47117-1.30475-.70448-2.20177-.70448-.71807 0-1.30929.17442-1.77592.52553-.2605.1948-.53685.51646-.82906.9627v-1.26624h-2.19045v8.66439h2.26294v-4.69803c0-.53685.07248-.9763.22199-1.32287.28768-.65238.81547-.97857 1.58564-.97857.6252 0 1.05105.22199 1.27304.66823.12232.24465.18348.59575.18348 1.05106v5.28018h2.32636v-5.84422c0-1.08956-.28542-1.86879-.85625-2.33768zm-3.03763-.7294zm17.88829 1.27531c-.64332-.82453-1.53808-1.23453-2.67974-1.23453-.63199 0-1.15072.13138-1.56072.39867-.34431.21066-.65917.51873-.94685.92194v-4.1725h-2.26067v11.7224h2.2199v-1.08955c.30353.42359.58442.72033.84491.89022.43492.28768 1.01255.43039 1.72835.43039 1.14166 0 2.02962-.44398 2.6684-1.32967.63653-.8857.95592-2.0047.95592-3.3525 0-1.30022-.32392-2.3626-.9695-3.18487zm-1.89824 5.28698c-.32393.47342-.77697.709-1.36139.709-.67503 0-1.17564-.24464-1.50636-.73392-.32845-.48702-.4938-1.10315-.4938-1.84614 0-.63199.07927-1.14619.2401-1.54487.30807-.74978.8721-1.12353 1.69664-1.12353.81094 0 1.36818.38281 1.67171 1.14619.15857.40547.23785.91514.23785 1.529 0 .77017-.16083 1.39084-.48475 1.86427zm6.75256-6.33124h-2.3241v5.23261c0 .99216.12459 1.7442.37376 2.25388.44625.9242 1.31155 1.3863 2.59592 1.3863.44625 0 .8336-.0589 1.16658-.17668.33072-.11553.67503-.33299 1.03066-.65238.1178-.10194.21746-.21746.30354-.3511.08381-.13139.13818-.21294.15857-.23785v1.22547h2.2063v-8.68025h-2.30144v4.72294c0 .55724-.07475 1.00575-.222 1.34553-.28767.62746-.81773.94006-1.5947.94006-.6048 0-1.01027-.21972-1.21867-.66144-.11553-.24917-.17442-.62066-.17442-1.11448zm1.59243-.23105zm10.71214.3715c-.41-.23106-.87664-.34658-1.40216-.34658-1.14166 0-2.05227.4236-2.73637 1.27304-.68182.84945-1.0216 2.01603-1.0216 3.49747 0 1.28437.34658 2.33542 1.03746 3.15769.69315.82 1.54713 1.23 2.56194 1.23.61614 0 1.13034-.11779 1.54487-.3511.41453-.23332.7815-.60708 1.10542-1.12354v1.20282h2.2063V62.43586h-2.30144v4.14078c-.2537-.40773-.58669-.72712-.99442-.95818zm.55723 6.184c-.33525.47568-.82226.7158-1.46558.7158-.64332 0-1.12127-.24012-1.4384-.72034-.31486-.48022-.47343-1.12127-.47343-1.92315 0-.74299.1563-1.36592.46663-1.8688.31033-.5006.79735-.75204 1.46106-.75204.43491 0 .81773.13818 1.14619.41453.53685.4553.80414 1.21641.80414 2.27653 0 .7611-.16536 1.3795-.5006 1.85746zm9.87401-.10874c-.3647.40094-.81547.60028-1.34553.60028-.79508 0-1.3478-.3647-1.65586-1.09862-.16989-.39188-.25597-.8404-.25597-1.34553 0-.58442.08155-1.0737.24011-1.47238.30128-.74978.85172-1.12354 1.64907-1.12354.58216 0 1.04879.2152 1.39763.64558.34657.43039.521 1.05558.521 1.88012 0 .87436-.18349 1.51315-.55045 1.9141zm-.77243-6.2225c-.32393-.13365-.70221-.19934-1.13713-.19934-1.18017 0-2.09078.43945-2.73183 1.31835-.64332.87663-.96498 1.96166-.96498 3.25282 0 1.33647.33299 2.39658.99895 3.18034.66824.78376 1.55846 1.17564 2.67294 1.17564.7226 0 1.30929-.17215 1.76006-.51873.24917-.18574.48249-.46436.69995-.83586v.55724c0 .82907-.09061 1.41802-.26956 1.76912-.27636.54592-.82453.82-1.64.82-.5799 0-.99216-.1042-1.23454-.31033-.14497-.11779-.2469-.30806-.31033-.5731h-2.46907c.07249.86531.4621 1.51543 1.16205 1.95034.69994.43492 1.60602.65238 2.71597.65238 1.83708 0 3.0784-.48928 3.72626-1.46558.37602-.56857.5663-1.41122.5663-2.5325v-8.234h-2.2063v1.2504c-.33979-.60935-.78603-1.03067-1.33874-1.2572zm-.41453-.22426zm8.2793 2.36487c.28995-.32845.69768-.49381 1.22321-.49381.48249 0 .88796.1563 1.21415.46663.32619.31033.5074.76564.54591 1.36591h-3.52918c.07475-.56403.25597-1.00801.54591-1.33873zm3.17355-1.9594c-.5799-.26956-1.23-.40547-1.95034-.40547-1.21641 0-2.2063.40094-2.96741 1.20282-.7611.80188-1.14166 1.95487-1.14166 3.4567 0 1.60376.42132 2.76128 1.26398 3.47255.84492.71127 1.81895 1.0669 2.92437 1.0669 1.33647 0 2.37846-.42358 3.12145-1.26624.47796-.53232.74525-1.05558.80414-1.56978h-2.3173c-.12232.25597-.26276.4553-.42132.59801-.29221.26503-.67277.39868-1.1394.39868-.44171 0-.81774-.10873-1.13033-.32846-.51647-.34884-.7883-.96044-.82227-1.83028h5.94162c.01132-.74978-.0136-1.32288-.07022-1.72155-.10194-.67956-.32166-1.2753-.66144-1.79177-.37829-.58216-.85625-1.01028-1.43387-1.2821zm-1.79178-.40547zm4.59383 1.92769h1.21188v5.3436c0 .54139.12685.94233.38282 1.20283.39188.40773 1.12354.59348 2.19724.55723l1.07371-.04077v-1.69663c-.07249.0068-.1495.01132-.22652.01359-.07702.00226-.1495.00453-.21746.00453-.4621 0-.73845-.0453-.82906-.13365-.09061-.08608-.13591-.30807-.13591-.6637v-4.58703h1.40895V65.5573h-1.40895v-2.41923h-2.24482v2.41923h-1.21188z"/></svg>