<svg xmlns="http://www.w3.org/2000/svg" role="img" viewBox="-6.44 62.56 412.62 168.12"><title>Carbon free energy for Google Cloud regions logo</title><style>svg {enable-background:new 0 0 400 245}</style><style>.st0{fill:#4094d0}.st1{fill:#ee4636}</style><path d="M1.69 120.74c0-27.67 23.26-50.2 50.94-50.2 15.31 0 26.2 6 34.41 13.84l-9.67 9.67c-5.88-5.51-13.84-9.8-24.73-9.8-20.2 0-36 16.28-36 36.49 0 20.2 15.79 36.49 36 36.49 13.1 0 20.57-5.27 25.35-10.04 3.92-3.92 6.49-9.55 7.47-17.26H52.63v-13.71h46.16c.49 2.45.74 5.39.74 8.57 0 10.29-2.82 23.02-11.88 32.08-8.82 9.18-20.08 14.08-35.02 14.08-27.67-.01-50.94-22.54-50.94-50.21z" class="st0"/><path d="M136.83 106.29c-17.88 0-32.45 13.59-32.45 32.32 0 18.61 14.57 32.32 32.45 32.32 17.88 0 32.45-13.71 32.45-32.32-.01-18.73-14.58-32.32-32.45-32.32zm0 51.91c-9.8 0-18.24-8.08-18.24-19.59 0-11.63 8.45-19.59 18.24-19.59 9.8 0 18.24 7.96 18.24 19.59 0 11.51-8.45 19.59-18.24 19.59z" class="st1"/><path fill="#ffc10e" d="M207.61 106.29c-17.88 0-32.45 13.59-32.45 32.32 0 18.61 14.57 32.32 32.45 32.32 17.88 0 32.45-13.71 32.45-32.32 0-18.73-14.57-32.32-32.45-32.32zm0 51.91c-9.8 0-18.24-8.08-18.24-19.59 0-11.63 8.45-19.59 18.24-19.59s18.24 7.96 18.24 19.59c0 11.51-8.44 19.59-18.24 19.59z"/><path d="M294.49 108.25v5.27H294c-3.18-3.8-9.31-7.22-17.02-7.22-16.16 0-30.98 14.2-30.98 32.45 0 18.12 14.82 32.2 30.98 32.2 7.71 0 13.84-3.43 17.02-7.35h.49v4.65c0 12.37-6.61 18.98-17.26 18.98-8.69 0-14.08-6.24-16.28-11.51l-12.37 5.14c3.55 8.57 12.98 19.1 28.65 19.1 16.65 0 30.73-9.8 30.73-33.67v-58.04h-13.47zm-16.28 49.95c-9.8 0-18-8.2-18-19.47 0-11.39 8.2-19.71 18-19.71 9.67 0 17.26 8.33 17.26 19.71 0 11.27-7.59 19.47-17.26 19.47z" class="st0"/><path fill="#2fb355" d="M317.76 73.96h14.2v95.01h-14.2z"/><path d="M370.9 158.2c-7.22 0-12.37-3.31-15.67-9.8l43.22-17.88-1.47-3.67c-2.69-7.22-10.9-20.57-27.67-20.57-16.65 0-30.49 13.1-30.49 32.32 0 18.12 13.71 32.32 32.08 32.32 14.81 0 23.39-9.06 26.94-14.33l-11.02-7.35c-3.68 5.41-8.7 8.96-15.92 8.96zm-1.11-39.42c5.63 0 10.41 2.82 12 6.86l-28.9 12c-.36-12.5 9.68-18.86 16.9-18.86z" class="st1"/><path fill="none" d="M1 70.46h397.92v130.09H1z"/><path d="M37.06294 209.6075c-1.03411 1.04265-1.55224 2.53093-1.55224 4.45844 0 1.78465.4563 3.18977 1.3646 4.21323.91046 1.01919 2.15993 1.52878 3.74842 1.52878 1.28358 0 2.33689-.3774 3.15992-1.1322.8209-.75266 1.33262-1.73347 1.53305-2.93817h-2.28572c-.15565.5693-.34968.99787-.58636 1.28146-.4243.53091-1.0405.7953-1.85074.7953-.78892 0-1.44137-.30916-1.9531-.92537-.51173-.61834-.7676-1.54584-.7676-2.78465s.24308-2.1983.72709-2.8742c.484-.67805 1.14712-1.01707 1.9872-1.01707.82304 0 1.44564.24094 1.86568.72069.23455.26865.42644.6695.57783 1.1983h2.30704c-.03411-.6887-.28998-1.37528-.76333-2.06184-.85927-1.21749-2.21962-1.8273-4.0789-1.8273-1.38806 0-2.53305.45416-3.43284 1.3646zm3.36675-1.49253zm10.98083 7.41366v.7953c-.01493.7143-.21536 1.20683-.60342 1.4755-.38806.27078-.81023.4051-1.27079.4051-.28998 0-.53518-.08101-.73774-.24306-.20256-.16205-.30277-.42644-.30277-.79105 0-.40938.16418-.71215.49467-.90832.19403-.11513.516-.21108.96589-.2921l.47974-.08956c.24094-.04478.42857-.09382.56503-.14499.1386-.0533.27506-.12153.40939-.20682zm-1.29638-.99787l-.72708.08955c-.82516.10661-1.4499.28145-1.8742.52665-.774.4499-1.16205 1.17698-1.16205 2.18125 0 .77398.24093 1.37313.72281 1.7953.48188.42218 1.09382.63327 1.8337.63327.57995 0 1.09808-.1322 1.55863-.39872.38593-.22388.72495-.4968 1.0192-.81663a6.19299 6.19299 0 0 0 .0597.49467c.02558.14499.07036.30064.13646.46482h2.32196v-.31557c-.1386-.06396-.24307-.14712-.31343-.24733-.07036-.09809-.113-.28785-.12793-.5693-.01067-.36887-.01493-.68444-.01493-.94457v-3.74627c0-.98508-.34755-1.65459-1.04265-2.01067-.69296-.35394-1.48827-.53091-2.3838-.53091-1.37313 0-2.34328.3582-2.90832 1.07889-.35394.46055-.55437 1.04691-.59914 1.7612h2.06183c.04904-.31557.14926-.56504.30064-.7484.20896-.2516.56717-.37527 1.07037-.37527.4499 0 .79104.06396 1.02345.18976.23241.12793.34968.36034.34968.6951 0 .27505-.15351.47548-.45842.60554-.17057.07676-.45202.1386-.84648.18764zm.113-3.41792zm9.75482.02559c-.02772-.00213-.06183-.00213-.10021-.00213-.63966 0-1.15992.1663-1.56077.50106-.24307.20043-.53092.57357-.86141 1.11728v-1.42431h-2.03839v8.17059h2.1514v-3.90406c0-.65672.08315-1.14073.24733-1.4563.29424-.55863.87207-.83795 1.73135-.83795.0661 0 .14925.00213.25586.0064.10448.0064.22388.01492.3582.02985v-2.18764c-.0938-.0064-.15564-.00853-.18336-.0128zm8.37315 1.17484c-.60768-.77612-1.44776-1.16205-2.5224-1.16205-.59488 0-1.08315.12367-1.46908.37527-.3241.1983-.6226.48827-.89126.8678v-3.9275H61.3423v11.03413h2.0917v-1.0256c.2857.39873.5501.67805.7953.83796.40938.2708.95096.40512 1.62687.40512 1.07463 0 1.91045-.41791 2.5096-1.2516.60128-.83369.89979-1.887.89979-3.15566 0-1.22388-.30277-2.22388-.91045-2.99787zm-1.78678 4.97656c-.3049.44563-.73348.66737-1.28146.66737-.6354 0-1.10874-.23027-1.4179-.69083-.30918-.45842-.46483-1.03838-.46483-1.73774 0-.59489.07463-1.0789.22601-1.45416.28785-.70576.8209-1.05757 1.59489-1.05757.76546 0 1.28998.36034 1.5757 1.07889.14925.38166.22388.8614.22388 1.43923 0 .72495-.15139 1.30918-.4563 1.7548zm9.33264.03838c-.33476.4435-.8145.66737-1.43924.66737-.62473 0-1.10661-.22388-1.4435-.66737-.33689-.44563-.50533-1.07677-.50533-1.89766 0-.81877.16844-1.4499.50533-1.8934.33689-.44136.81877-.66311 1.4435-.66311s1.10448.22175 1.43924.66311c.33475.4435.50106 1.07463.50106 1.8934 0 .8209-.1663 1.45203-.50106 1.89766zm1.70789 1.1791c.69083-.85075 1.03411-1.87633 1.03411-3.07676 0-1.17911-.34328-2.20043-1.03411-3.0661-.6887-.86355-1.73561-1.29638-3.14073-1.29638-1.403 0-2.4499.43283-3.14073 1.29637-.6887.86568-1.03412 1.887-1.03412 3.0661 0 1.20044.34542 2.22602 1.03412 3.07677.69083.85288 1.73774 1.27932 3.14073 1.27932 1.40512 0 2.45203-.42644 3.14073-1.27932zm-3.14073-7.39447zm12.30492.68657c-.53731-.4435-1.22814-.66311-2.0725-.66311-.67377 0-1.2324.16418-1.67164.49467-.2452.18337-.50533.48614-.78039.90618v-1.1919h-2.0597v8.15567h2.12794v-4.42219c0-.50533.07036-.91897.20895-1.2452.27079-.61407.7676-.92111 1.49254-.92111.59062 0 .98934.20895 1.20043.629.113.23028.17058.56077.17058.98934v4.97016h2.18976v-5.50108c0-1.02559-.26865-1.75906-.80597-2.20043zm-2.85928-.68657zm13.2836-2.7612c-.11087-.00853-.2324-.01279-.36886-.01279-1.18337 0-1.93177.2452-2.24094.7356-.29425.3305-.44137.93178-.44137 1.80598v.52452h-1.17058v1.50747h1.1919v6.5885h2.13007v-6.5885h1.40086v-1.50747h-1.40086v-.6887c0-.15991.0533-.30703.15992-.43923.10874-.1322.30277-.19403.58422-.18763.28358.00852.484.01919.60341.03411v-1.73987c-.18976-.01493-.33902-.02559-.44776-.03199zm6.26868 2.78679c-.02772-.00213-.0597-.00213-.10022-.00213-.63966 0-1.15991.1663-1.55863.50106-.2452.20043-.53305.57357-.86355 1.11728v-1.42431h-2.03838v8.17059h2.1514v-3.90406c0-.65672.08315-1.14073.24733-1.4563.29424-.55863.87207-.83795 1.73134-.83795.0661 0 .15139.00213.25587.0064.10447.0064.22388.01492.3582.02985v-2.18764c-.09381-.0064-.15564-.00853-.18336-.0128zm3.5096 2.20043c.27079-.30917.65458-.46482 1.14925-.46482.4563 0 .83583.14712 1.14286.43923.30917.29211.47975.72069.51386 1.28572h-3.31983c.07036-.53092.24094-.94883.51386-1.26013zm2.98721-1.84435c-.54584-.25374-1.15778-.38167-1.83796-.38167-1.14286 0-2.07463.3774-2.79105 1.1322-.71855.7548-1.07676 1.84009-1.07676 3.25374 0 1.5096.39872 2.59915 1.1919 3.26866.79531.66951 1.71216 1.00427 2.75054 1.00427 1.26013 0 2.23881-.39873 2.9403-1.1919.4499-.50107.7015-.9936.75694-1.47762h-2.18124c-.11514.24094-.24734.42857-.39873.5629-.27505.24947-.63113.37527-1.07036.37527-.41578 0-.76973-.10235-1.0661-.30917-.48401-.32836-.742-.90405-.77186-1.72282h5.59276c.01066-.70576-.01279-1.2452-.06823-1.62047-.09381-.63966-.30277-1.20043-.6226-1.68657-.35394-.54797-.80384-.95096-1.34755-1.20682zm-1.68657-.38167zm7.23669 2.22602c.27292-.30917.65671-.46482 1.15138-.46482.45416 0 .83583.14712 1.14286.43923.30704.29211.47762.72069.51386 1.28572h-3.32196c.07036-.53092.24094-.94883.51386-1.26013zm2.9872-1.84435c-.54583-.25374-1.15778-.38167-1.83582-.38167-1.14499 0-2.07676.3774-2.79318 1.1322-.71642.7548-1.07463 1.84009-1.07463 3.25374 0 1.5096.3966 2.59915 1.1919 3.26866.79318.66951 1.71003 1.00427 2.75054 1.00427 1.258 0 2.23881-.39873 2.93817-1.1919.4499-.50107.7015-.9936.75693-1.47762h-2.18124c-.11513.24094-.24733.42857-.39659.5629-.27505.24947-.63326.37527-1.0725.37527-.41577 0-.76972-.10235-1.06396-.30917-.48614-.32836-.742-.90405-.77186-1.72282h5.59063c.01066-.70576-.0128-1.2452-.0661-1.62047-.09594-.63966-.30277-1.20043-.6226-1.68657-.35608-.54797-.80597-.95096-1.34968-1.20682zm-1.68656-.38167zm11.50322 2.22602c.27079-.30917.65458-.46482 1.14925-.46482.4563 0 .83583.14712 1.14286.43923.30917.29211.47975.72069.51386 1.28572h-3.31983c.07036-.53092.24094-.94883.51386-1.26013zm2.98721-1.84435c-.54584-.25374-1.15778-.38167-1.83796-.38167-1.14286 0-2.07463.3774-2.79105 1.1322-.71855.7548-1.07676 1.84009-1.07676 3.25374 0 1.5096.39872 2.59915 1.1919 3.26866.79531.66951 1.71216 1.00427 2.75054 1.00427 1.26013 0 2.23881-.39873 2.9403-1.1919.4499-.50107.7015-.9936.75694-1.47762h-2.18125c-.11513.24094-.24733.42857-.39872.5629-.27505.24947-.63113.37527-1.07036.37527-.41578 0-.76973-.10235-1.0661-.30917-.48401-.32836-.742-.90405-.77186-1.72282h5.59276c.01066-.70576-.01279-1.2452-.06823-1.62047-.09381-.63966-.30277-1.20043-.6226-1.68657-.35394-.54797-.80384-.95096-1.34755-1.20682zm-1.68657-.38167zm11.76335.68657c-.53732-.4435-1.22815-.66311-2.0725-.66311-.67378 0-1.23028.16418-1.67165.49467-.2452.18337-.5032.48614-.77825.90618v-1.1919h-2.06184v8.15567h2.12794v-4.42219c0-.50533.07036-.91897.21109-1.2452.26865-.61407.76759-.92111 1.4904-.92111.59062 0 .98935.20895 1.20043.629.11514.23028.17271.56077.17271.98934v4.97016h2.18764v-5.50108c0-1.02559-.26866-1.75906-.80597-2.20043zm-2.85928-.68657zm7.71003 2.22602c.27292-.30917.65672-.46482 1.15139-.46482.45416 0 .83582.14712 1.14286.43923s.47761.72069.51386 1.28572h-3.32197c.07036-.53092.24094-.94883.51386-1.26013zm2.98721-1.84435c-.54584-.25374-1.15778-.38167-1.83582-.38167-1.145 0-2.07676.3774-2.79318 1.1322-.71642.7548-1.07463 1.84009-1.07463 3.25374 0 1.5096.39659 2.59915 1.1919 3.26866.79318.66951 1.71002 1.00427 2.75054 1.00427 1.258 0 2.2388-.39873 2.93817-1.1919.4499-.50107.7015-.9936.75693-1.47762h-2.18124c-.11514.24094-.24734.42857-.39659.5629-.27505.24947-.63326.37527-1.0725.37527-.41578 0-.76972-.10235-1.06396-.30917-.48615-.32836-.74201-.90405-.77186-1.72282h5.59063c.01066-.70576-.0128-1.2452-.0661-1.62047-.09595-.63966-.30277-1.20043-.6226-1.68657-.35608-.54797-.80597-.95096-1.34969-1.20682zm-1.68657-.38167zm9.70365.02559c-.02772-.00213-.06184-.00213-.10235-.00213-.63966 0-1.15778.1663-1.55864.50106-.2452.20043-.53092.57356-.8614 1.11728v-1.42431h-2.03839v8.17059h2.15139v-3.90406c0-.65672.08102-1.14073.24734-1.4563.29424-.55863.87207-.83795 1.73134-.83795.06397 0 .14926.00213.25373.0064.10661.0064.22602.01492.36035.02985v-2.18764c-.09382-.0064-.15566-.00853-.18337-.0128zm6.2111 6.04265c-.34542.3774-.7676.56504-1.26866.56504-.7484 0-1.26866-.34329-1.55864-1.03412-.15992-.36887-.2388-.79105-.2388-1.26653 0-.5501.07462-1.01066.22387-1.38593.28572-.70576.80171-1.05757 1.55224-1.05757.55011 0 .98721.20256 1.31557.60768.32623.40512.4904.9936.4904 1.76972 0 .82303-.1727 1.42431-.51599 1.80171zm-.72709-5.85715c-.3049-.1258-.6631-.18763-1.0725-.18763-1.10874 0-1.96588.41364-2.57143 1.24094-.60554.82516-.90618 1.84648-.90618 3.06184 0 1.258.31343 2.25586.9403 2.9936.62687.73775 1.46482 1.10662 2.51386 1.10662.68018 0 1.23242-.16205 1.65672-.48828.23455-.17484.4563-.4371.66099-.78678v.52452c0 .78039-.0853 1.33476-.25587 1.66525-.26013.51386-.77399.77186-1.54371.77186-.54584 0-.93177-.09808-1.16205-.29211-.13433-.11088-.23241-.28998-.29211-.53945h-2.3241c.07036.8145.43497 1.42644 1.09382 1.83582.66098.40939 1.51173.61408 2.5565.61408 1.72922 0 2.8998-.46056 3.50748-1.37954.35607-.53518.53305-1.32836.53305-2.3838v-7.75054h-2.07677v1.17697c-.31983-.57356-.73987-.97015-1.258-1.18337zm-.39019-.21109zm6.04905 9.95524v1.7079c.23028.01705.40299.02558.516.02771a24.3423 24.3423 0 0 0 .45842.00427c.94456 0 1.57356-.18763 1.88913-.55864.31556-.37313.742-1.33475 1.28145-2.88273l2.80384-8.03626h-2.27079l-1.68657 6.02773-1.78465-6.02773h-2.3774l3 8.53093c.0192.0597-.02345.22388-.1322.49467-.1066.26866-.22388.44776-.34754.53305-.13007.08955-.28998.14712-.47975.17057-.18976.0256-.3902.03412-.60128.02346zm2.8934-9.95524zm12.95951-2.7612c-.10874-.00853-.2324-.01279-.36674-.01279-1.18337 0-1.93177.2452-2.24094.7356-.29424.3305-.44137.93178-.44137 1.80598v.52452h-1.17057v1.50747h1.1919v6.5885h2.13006v-6.5885h1.40086v-1.50747h-1.40086v-.6887c0-.15991.0533-.30703.15992-.43923.10874-.1322.30277-.19403.58422-.18763.28358.00852.48401.01919.60341.03411v-1.73987c-.18976-.01493-.33902-.02559-.44989-.03199zm6.83797 8.97656c-.33476.4435-.8145.66738-1.43924.66738-.62473 0-1.10661-.22388-1.4435-.66738-.33689-.44562-.50533-1.07676-.50533-1.89765 0-.81877.16844-1.4499.50533-1.8934.33689-.44136.81877-.66311 1.4435-.66311.62474 0 1.10448.22175 1.43924.66311.33475.4435.50106 1.07463.50106 1.8934 0 .8209-.1663 1.45203-.50106 1.89765zm1.70789 1.17911c.69083-.85075 1.03412-1.87633 1.03412-3.07676 0-1.17911-.34329-2.20043-1.03412-3.0661-.6887-.86355-1.73561-1.29638-3.14073-1.29638-1.40299 0-2.4499.43283-3.14073 1.29637-.6887.86568-1.03412 1.887-1.03412 3.0661 0 1.20044.34542 2.22602 1.03412 3.07677.69083.85288 1.73774 1.27932 3.14073 1.27932 1.40512 0 2.45203-.42644 3.14073-1.27932zm-3.14073-7.39447zm10.24309.02559c-.02772-.00213-.0597-.00213-.10022-.00213-.63966 0-1.15991.1663-1.55864.50106-.2452.20043-.53305.57356-.86354 1.11728v-1.42431h-2.03838v8.17059h2.15139v-3.90406c0-.65672.08316-1.14073.24734-1.4563.29424-.55863.87207-.83795 1.73134-.83795.0661 0 .14926.00213.25587.0064.10447.0064.22388.01492.3582.02985v-2.18764c-.09381-.0064-.15565-.00853-.18336-.0128zm13.3028.7612h2.27079c-.1258-1.06397-.61408-1.9531-1.46483-2.66526-.85288-.71002-1.98081-1.0661-3.38593-1.0661-1.61834 0-2.92111.53945-3.90406 1.61834-.98507 1.0789-1.47761 2.51387-1.47761 4.30278 0 1.76973.48827 3.16206 1.46269 4.18338.9339 1.0128 2.13433 1.52026 3.59702 1.52026.88913 0 1.63966-.18764 2.24947-.56077.35394-.21535.7548-.58636 1.1983-1.11088l.2324 1.37954h1.53092v-5.92965h-4.60342v1.84435h2.55651c-.11514.72495-.42004 1.3113-.91471 1.75907-.49467.44563-1.13007.6695-1.90406.6695-.78891 0-1.49467-.28144-2.113-.84648-.62048-.56503-.92965-1.52665-.92965-2.887 0-1.34755.28572-2.3582.85715-3.03198.57356-.67165 1.30277-1.00853 2.1919-1.00853.46482 0 .887.08315 1.26866.24946.67804.29851 1.10661.82516 1.28145 1.57996zm-2.58637-3.73136zm12.02988 9.15993c-.33476.4435-.8145.66738-1.43924.66738-.6226 0-1.10448-.22388-1.44137-.66738-.33688-.44562-.50746-1.07676-.50746-1.89765 0-.81877.17058-1.4499.50746-1.8934.3369-.44136.81877-.66311 1.44137-.66311.62474 0 1.10448.22175 1.43924.66311.33688.4435.5032 1.07463.5032 1.8934 0 .8209-.16632 1.45203-.5032 1.89765zm1.71002 1.17911c.6887-.85075 1.03412-1.87633 1.03412-3.07676 0-1.17911-.34542-2.20043-1.03412-3.0661-.6887-.86355-1.73561-1.29638-3.14073-1.29638s-2.45203.43283-3.14073 1.29637c-.6887.86568-1.03412 1.887-1.03412 3.0661 0 1.20044.34542 2.22602 1.03412 3.07677.6887.85288 1.73561 1.27932 3.14073 1.27932s2.45203-.42644 3.14073-1.27932zm-3.14073-7.39447zm10.81025 6.21536c-.33688.4435-.81663.66738-1.43923.66738-.62474 0-1.10661-.22388-1.4435-.66738-.33689-.44562-.50746-1.07676-.50746-1.89765 0-.81877.17057-1.4499.50746-1.8934.33689-.44136.81876-.66311 1.4435-.66311.6226 0 1.10235.22175 1.43923.66311.33476.4435.50107 1.07463.50107 1.8934 0 .8209-.16631 1.45203-.50107 1.89765zm1.7079 1.17911c.69083-.85075 1.03411-1.87633 1.03411-3.07676 0-1.17911-.34328-2.20043-1.03411-3.0661-.6887-.86355-1.73561-1.29638-3.14073-1.29638s-2.45203.43283-3.14074 1.29637c-.6887.86568-1.03411 1.887-1.03411 3.0661 0 1.20044.34541 2.22602 1.03411 3.07677.6887.85288 1.73562 1.27932 3.14074 1.27932 1.40512 0 2.45203-.42644 3.14073-1.27932zm-3.14073-7.39447zm10.47976 6.06824c-.34542.3774-.7676.56504-1.26653.56504-.75053 0-1.27079-.34329-1.56077-1.03412-.15991-.36887-.2388-.79105-.2388-1.26653 0-.5501.07462-1.01066.22388-1.38593.28571-.70576.80384-1.05757 1.55224-1.05757.5501 0 .98934.20256 1.31556.60768.32836.40512.49041.9936.49041 1.76972 0 .82303-.17058 1.42431-.516 1.80171zm-.72708-5.85715c-.3049-.1258-.66312-.18763-1.0725-.18763-1.10874 0-1.96589.41364-2.57143 1.24094-.60341.82516-.90619 1.84648-.90619 3.06184 0 1.258.31344 2.25586.9403 2.9936.62687.73775 1.46482 1.10662 2.516 1.10662.67804 0 1.23028-.16205 1.65672-.48828.23454-.17484.45416-.4371.65885-.78678v.52452c0 .78039-.08529 1.33476-.25587 1.66525-.26012.51386-.77398.77186-1.5437.77186-.54372 0-.93178-.09808-1.16206-.29211-.13433-.11088-.2324-.28998-.2921-.53945h-2.3241c.07036.8145.43496 1.42644 1.09594 1.83582.65885.40939 1.51173.61408 2.55438.61408 1.72921 0 2.8998-.46056 3.5096-1.37954.35395-.53518.53092-1.32836.53092-2.3838v-7.75054h-2.07676v1.17697c-.31983-.57356-.73775-.97015-1.258-1.18337zm-.3902-.21109zm7.90194 8.38808v-11.04906h-2.13647v11.04906zm4.15566-6.16206c.27292-.30917.65671-.46482 1.15138-.46482.45416 0 .83583.14712 1.14286.43923.30704.29211.47762.72069.51386 1.28572h-3.32196c.07036-.53092.24093-.94883.51386-1.26013zm2.9872-1.84435c-.54583-.25374-1.15778-.38167-1.83582-.38167-1.14499 0-2.07676.3774-2.79318 1.1322-.71642.7548-1.07463 1.84009-1.07463 3.25374 0 1.5096.3966 2.59915 1.1919 3.26866.79318.66951 1.71003 1.00427 2.75054 1.00427 1.258 0 2.23881-.39873 2.93817-1.1919.4499-.50107.7015-.9936.75693-1.47762h-2.18124c-.11514.24094-.24733.42857-.39659.5629-.27505.24947-.63326.37527-1.0725.37527-.41577 0-.76972-.10235-1.06396-.30917-.48614-.32836-.742-.90405-.77186-1.72282h5.59063c.01066-.70576-.0128-1.2452-.0661-1.62047-.09595-.63966-.30277-1.20043-.6226-1.68657-.35608-.54797-.80597-.95096-1.34968-1.20682zm-1.68656-.38167zm10.6738-1.50533c-1.03413 1.04264-1.55225 2.53092-1.55225 4.45843 0 1.78465.4563 3.18977 1.3646 4.21323.91046 1.01919 2.15993 1.52878 3.74842 1.52878 1.28358 0 2.33689-.3774 3.15992-1.1322.8209-.75266 1.33262-1.73347 1.53305-2.93817h-2.28572c-.15565.5693-.34968.99787-.58636 1.28146-.4243.53091-1.0405.7953-1.85075.7953-.7889 0-1.44136-.30916-1.95309-.92537-.51173-.61834-.7676-1.54584-.7676-2.78465s.24095-2.1983.72709-2.8742c.484-.67805 1.14712-1.01707 1.98508-1.01707.82516 0 1.44776.24094 1.8678.72069.23455.26865.42644.6695.57783 1.1983h2.30704c-.03412-.6887-.28998-1.37528-.76333-2.06184-.85927-1.21749-2.21962-1.8273-4.0789-1.8273-1.38806 0-2.53305.45416-3.43284 1.3646zm3.36674-1.49254zm8.65673 11.38595v-11.04906h-2.13647v11.04906zm7.18978-2.17272c-.33476.4435-.8145.66738-1.43924.66738-.62473 0-1.10661-.22388-1.4435-.66738-.33689-.44562-.50533-1.07676-.50533-1.89765 0-.81877.16844-1.4499.50533-1.8934.33689-.44136.81877-.66311 1.4435-.66311.62474 0 1.10448.22175 1.43924.66311.33475.4435.50106 1.07463.50106 1.8934 0 .8209-.1663 1.45203-.50106 1.89765zm1.70789 1.17911c.69083-.85075 1.03412-1.87633 1.03412-3.07676 0-1.17911-.34329-2.20043-1.03412-3.0661-.6887-.86355-1.73561-1.29638-3.14073-1.29638-1.40299 0-2.4499.43283-3.14073 1.29637-.6887.86568-1.03412 1.887-1.03412 3.0661 0 1.20044.34542 2.22602 1.03412 3.07677.69083.85288 1.73774 1.27932 3.14073 1.27932 1.40512 0 2.45203-.42644 3.14073-1.27932zm-3.14073-7.39447zm7.8337.21749h-2.18977v4.92538c0 .9339.1194 1.6418.35395 2.12154.42004.86993 1.23454 1.3049 2.4435 1.3049.42004 0 .78465-.05543 1.09808-.1663.3113-.10875.6354-.31344.97015-.61408.11088-.09595.2047-.2047.28572-.3305.07889-.12366.13006-.20042.14925-.22387v1.15352h2.07676v-8.1706h-2.16631v4.44564c0 .52452-.07036.9467-.21109 1.26653-.26866.59062-.76972.88486-1.49894.88486-.5693 0-.95096-.20682-1.14712-.6226-.10874-.23454-.16418-.58422-.16418-1.04904zm1.49894-.21749zm10.08317.34968c-.38593-.21748-.82516-.32622-1.31983-.32622-1.07463 0-1.9339.39872-2.5757 1.1983-.6418.79957-.96162 1.89765-.96162 3.2921 0 1.20897.3241 2.1983.97655 2.9723.65245.77185 1.45629 1.15778 2.41151 1.15778.57783 0 1.06397-.11087 1.45417-.33049.38806-.21962.7356-.57143 1.0405-1.05757v1.1322h2.07677v-11.03414h-2.16631v3.89766c-.23881-.3838-.55224-.68443-.93604-.90192zm.52452 5.8209c-.31556.44777-.77612.67378-1.37953.67378-.60555 0-1.05544-.226-1.35395-.67804-.29637-.45202-.44563-1.05543-.44563-1.81023 0-.69937.14712-1.28572.43923-1.75907.29212-.47121.75054-.70789 1.37527-.70789.40939 0 .76973.13007 1.0789.3902.50533.42857.75693 1.14499.75693 2.14285 0 .71642-.15778 1.29851-.47122 1.7484zm13.32412-6.145c-.02772-.00212-.06183-.00212-.10235-.00212-.63966 0-1.15778.1663-1.55863.50106-.2452.20043-.53305.57356-.86141 1.11728v-1.42431h-2.03839v8.17059h2.1514v-3.90406c0-.65672.08102-1.14073.24733-1.4563.29424-.55863.87207-.83795 1.73135-.83795.06396 0 .14925.00213.25373.0064.10447.0064.22601.01492.36034.02985v-2.18764c-.09595-.0064-.15565-.00853-.18337-.0128zm3.50747 2.20044c.27292-.30917.65672-.46482 1.15139-.46482.45416 0 .83582.14712 1.14286.43923.30703.29211.4776.72069.51386 1.28572h-3.32197c.07036-.53092.24094-.94883.51386-1.26013zm2.98721-1.84435c-.54371-.25374-1.15565-.38167-1.83582-.38167-1.145 0-2.07463.3774-2.79319 1.1322-.71641.7548-1.07462 1.84009-1.07462 3.25374 0 1.5096.39659 2.59915 1.1919 3.26866.79317.66951 1.71002 1.00427 2.75053 1.00427 1.26013 0 2.23881-.39873 2.93818-1.1919.44989-.50107.70149-.9936.75693-1.47762h-2.18124c-.11514.24094-.24734.42857-.3966.5629-.27505.24947-.63326.37527-1.07249.37527-.41578 0-.76972-.10235-1.06397-.30917-.48614-.32836-.742-.90405-.77185-1.72282h5.59062c.01067-.70576-.01279-1.2452-.0661-1.62047-.09594-.63966-.30277-1.20043-.6226-1.68657-.35607-.54797-.80384-.95096-1.34968-1.20682zm-1.68657-.38167zm9.94032 6.06824c-.34542.3774-.7676.56504-1.26653.56504-.75053 0-1.2708-.34329-1.56077-1.03412-.15992-.36887-.2388-.79105-.2388-1.26653 0-.5501.07462-1.01066.22387-1.38593.28572-.70576.80384-1.05757 1.55225-1.05757.5501 0 .98934.20256 1.31556.60768.32836.40512.49041.9936.49041 1.76972 0 .82303-.17058 1.42431-.516 1.80171zm-.72708-5.85715c-.3049-.1258-.66312-.18763-1.0725-.18763-1.10874 0-1.96589.41364-2.57143 1.24094-.60342.82516-.90619 1.84648-.90619 3.06184 0 1.258.31344 2.25586.9403 2.9936.62687.73775 1.46482 1.10662 2.51387 1.10662.68017 0 1.2324-.16205 1.65672-.48828.23667-.17484.45629-.4371.66098-.78678v.52452c0 .78039-.08529 1.33476-.25587 1.66525-.26012.51386-.77399.77186-1.5437.77186-.54372 0-.93178-.09808-1.16206-.29211-.13433-.11088-.2324-.28998-.29211-.53945h-2.3241c.07036.8145.43497 1.42644 1.09382 1.83582.66098.40939 1.51173.61408 2.5565.61408 1.72922 0 2.8998-.46056 3.50961-1.37954.35395-.53518.53092-1.32836.53092-2.3838v-7.75054h-2.07677v1.17697c-.31983-.57356-.73774-.97015-1.258-1.18337zm-.3902-.21109zm7.91473-.75693v-1.97228h-2.16631v1.97228zm-2.16631.97442v8.17059h2.16631v-8.1706zm9.34116 5.99787c-.33475.4435-.8145.66738-1.43923.66738-.62474 0-1.10661-.22388-1.4435-.66738-.33689-.44562-.50533-1.07676-.50533-1.89765 0-.81877.16844-1.4499.50533-1.8934.33689-.44136.81876-.66311 1.4435-.66311.62473 0 1.10448.22175 1.43923.66311.33476.4435.50107 1.07463.50107 1.8934 0 .8209-.16631 1.45203-.50107 1.89765zm1.7079 1.17911c.69083-.85075 1.03625-1.87633 1.03625-3.07676 0-1.17911-.34542-2.20043-1.03625-3.0661-.6887-.86355-1.73561-1.29638-3.14073-1.29638-1.403 0-2.4499.43283-3.14074 1.29637-.6887.86568-1.03411 1.887-1.03411 3.0661 0 1.20044.34541 2.22602 1.03411 3.07677.69084.85288 1.73775 1.27932 3.14074 1.27932 1.40512 0 2.45203-.42644 3.14073-1.27932zm-3.14073-7.39447zm12.30492.68657c-.53731-.4435-1.22815-.66311-2.0725-.66311-.67377 0-1.23028.16418-1.67164.49467-.2452.18337-.5032.48614-.77825.90618v-1.1919h-2.06184v8.15567h2.12793v-4.42219c0-.50533.07037-.91897.2111-1.2452.26865-.61407.76545-.92111 1.4904-.92111.59062 0 .98934.20895 1.20043.629.11514.23028.1727.56077.1727.98934v4.97016h2.18764v-5.50108c0-1.02559-.26865-1.75906-.80597-2.20043zm-2.85928-.68657zm7.30065 5.7804h-2.16631c0 .83795.30704 1.52878.91898 2.0725.61194.54157 1.56077.81236 2.84435.81236 1.26013 0 2.18977-.25586 2.79318-.76759.60128-.51173.90192-1.1727.90192-1.98295 0-.61407-.20895-1.12793-.629-1.53731-.4243-.40512-1.06183-.70576-1.91045-.90619-1.27505-.27931-2.01706-.4776-2.22814-.59275-.20896-.10874-.31344-.28785-.31344-.53092 0-.19616.09808-.36673.29638-.51172.19616-.14286.52665-.21536.99147-.21536.56503 0 .96589.14286 1.20043.43284.1258.15992.20256.3774.2324.65245h2.13647c-.09595-.99787-.46268-1.7015-1.1066-2.10874-.6418-.40725-1.47123-.61194-2.49255-.61194-1.07463 0-1.90619.27079-2.49894.8145-.59275.54158-.88913 1.18976-.88913 1.94456 0 .63966.18977 1.13007.57143 1.46909.37954.34542 1.03199.63113 1.95523.8614 1.28359.30491 2.0256.52026 2.22602.64606.20042.12367.30064.30704.30064.54585 0 .24947-.12367.4371-.371.5629-.24734.12367-.5821.18763-1 .18763-.71643 0-1.2047-.14286-1.47122-.42857-.14926-.15992-.24734-.42857-.29212-.8081zm1.6354-5.7804z"/></svg>