<svg xmlns="http://www.w3.org/2000/svg" role="img" xmlns:xlink="http://www.w3.org/1999/xlink" viewBox="-7.38 -7.38 384.02 110.52"><title>Carbon Data Specification Consortium (CDSC) logo</title><defs><linearGradient id="New_Gradient_Swatch_4" x1="111.37" x2="42.36" y1="154.92" y2="98.77" gradientUnits="userSpaceOnUse"><stop offset="0" stop-color="#6e2995"/><stop offset="1" stop-color="#ff8300"/></linearGradient><linearGradient id="New_Gradient_Swatch_4-2" x1="347.79" x2="186.35" y1="248.44" y2="167.73" xlink:href="#New_Gradient_Swatch_4"/><linearGradient id="New_Gradient_Swatch_4-3" x1="352.81" x2="191.37" y1="238.4" y2="157.69" xlink:href="#New_Gradient_Swatch_4"/><linearGradient id="New_Gradient_Swatch_4-4" x1="358.28" x2="196.85" y1="227.45" y2="146.73" xlink:href="#New_Gradient_Swatch_4"/><linearGradient id="New_Gradient_Swatch_4-5" x1="363.57" x2="202.14" y1="216.86" y2="136.15" xlink:href="#New_Gradient_Swatch_4"/><linearGradient id="New_Gradient_Swatch_4-6" x1="368.79" x2="207.36" y1="206.43" y2="125.71" xlink:href="#New_Gradient_Swatch_4"/><linearGradient id="New_Gradient_Swatch_4-7" x1="373.55" x2="212.12" y1="196.91" y2="116.19" xlink:href="#New_Gradient_Swatch_4"/><linearGradient id="New_Gradient_Swatch_4-8" x1="379.59" x2="218.16" y1="184.83" y2="104.12" xlink:href="#New_Gradient_Swatch_4"/><linearGradient id="New_Gradient_Swatch_4-9" x1="382.09" x2="220.66" y1="179.84" y2="99.12" xlink:href="#New_Gradient_Swatch_4"/><linearGradient id="New_Gradient_Swatch_4-10" x1="386.33" x2="224.9" y1="171.35" y2="90.64" xlink:href="#New_Gradient_Swatch_4"/><linearGradient id="New_Gradient_Swatch_4-11" x1="391.87" x2="230.44" y1="160.27" y2="79.56" xlink:href="#New_Gradient_Swatch_4"/><style>.cls-1{fill:#009ceb}.cls-2{fill:#00386e}.cls-3{fill:#534fa5}.cls-6{fill:#202546}.cls-17{fill:#00a846}</style></defs><path d="M127.8 19.95v-7.46h-3.76v11.15h11.16v-3.69h-7.4z" class="cls-1"/><path d="M142.66 5.03h-18.62v5.54h3.7V8.72h11.22v11.23h-1.85v3.69h5.55V5.03z" class="cls-2"/><path d="M147.61 5.23h5.67v13.66h8.13v4.69h-13.8V5.23zm16.24 0h14.26v4.69h-8.58v2.31h7.32v4.35h-7.32v7h-5.68z" class="cls-2"/><path d="M192.72 23.71h-10.3V5.16h10.3v1.19h-9v7h8.45v1.19h-8.45v7.93h9zm17.94 0h-1.32L198.18 7.28h-.13c.13 2 .13 3.43.13 4.42v12h-1.19V5.16h1.32l11.16 16.44h.06c-.06-1.52-.13-3-.13-4.36V5.16h1.26v18.55zm15.58 0h-10.3V5.16h10.3v1.19h-9v7h8.48v1.19h-8.45v7.93h9zm5.61-8.05v8h-1.32V5.16h4.49a8.47 8.47 0 0 1 5.15 1.31 4.48 4.48 0 0 1 1.65 3.83 5.06 5.06 0 0 1-1 3.17 5.57 5.57 0 0 1-3 1.84l5.08 8.45h-1.58l-4.82-8zm0-1.12h3.56a5.59 5.59 0 0 0 3.7-1.06 3.8 3.8 0 0 0 1.32-3.1 3.66 3.66 0 0 0-1.25-3.1 7 7 0 0 0-4.23-1h-3.1zm21.52-.33h6.8v8.26a15.63 15.63 0 0 1-6 1.12c-2.9 0-5.15-.79-6.66-2.44a9.71 9.71 0 0 1-2.32-6.87 10.37 10.37 0 0 1 1.13-4.88 8 8 0 0 1 3.3-3.3 10.07 10.07 0 0 1 4.95-1.19 12.92 12.92 0 0 1 5.41 1.12l-.52 1.12a11.93 11.93 0 0 0-5-1.12 7.37 7.37 0 0 0-5.74 2.24 8.44 8.44 0 0 0-2.11 5.94c0 2.7.66 4.75 2 6.14s3.3 2 6 2a11.72 11.72 0 0 0 4.29-.72v-6.37h-5.48v-1.05zm15.71 1.05l5.48-10.1h1.39l-6.23 11.31v7.13h-1.3v-7l-6.27-11.42h1.57z" class="cls-1"/><path d="M51.37 68.37a7.87 7.87 0 0 1 .29-2.16 7.87 7.87 0 0 0-.29 2.16zm1.69 4.72a7.69 7.69 0 0 0 1 1 5.57 5.57 0 0 0 .56.43 5.57 5.57 0 0 1-.56-.43 7.69 7.69 0 0 1-1-1zm0 0a7.64 7.64 0 0 1-1.34-2.55 7.64 7.64 0 0 0 1.34 2.55z" class="cls-3"/><rect height="13.61" x="51.78" y="49.09" class="cls-3"/><path d="M55.86 75.25l-.38-.19zm-.62-.32c-.14-.07-.27-.16-.41-.24.14.08.27.17.41.24zm5.28-14.12l.59.16zm-3.19.01h.26zm-.7.19l.23-.07zm1.4-.31h.28zm1.88.01a2.7 2.7 0 0 1 .41.07 2.7 2.7 0 0 0-.41-.07zm-.62-.06h.39zm-.36-.01zm4.6 13.83a7.21 7.21 0 0 0 1.09-1 7.54 7.54 0 0 0 1.74-3.15 7.54 7.54 0 0 1-1.74 3.15 7.21 7.21 0 0 1-1.09 1zm-4.97 1.44a2.56 2.56 0 0 1-.39 0 2.56 2.56 0 0 0 .39 0zm.44.02zm6.33-11.9a8 8 0 0 1 .94 1.95 8 8 0 0 0-.94-1.95zm-.94-1.13a8.41 8.41 0 0 1 .94 1.13 8.41 8.41 0 0 0-.94-1.13zm-6.53 12.94l-.39-.07z" class="cls-3"/><path d="M64.4 62.9l4.58-7.62-4.58 7.62z" class="cls-3"/><path d="M56.51 75.47l-.38-.15zm.67.24l-.39-.11zm-19.4-43.75a7.5 7.5 0 0 1-.15.93 7.5 7.5 0 0 0 .15-.93zm-7.56-8.33zm.77.04zm6.52 9.68a6 6 0 0 1-.32.9 6 6 0 0 0 .32-.9zm8.21 14.72L36.24 35.9a7.48 7.48 0 0 0 1-1.65 7.48 7.48 0 0 1-1 1.65zm-8.35-19.42a7.45 7.45 0 0 1 .44 2.83 7.45 7.45 0 0 0-.44-2.83 7.59 7.59 0 0 0-2.88-3.71 7.59 7.59 0 0 1 2.88 3.71zm-13.2 7.34a7.86 7.86 0 0 0 2.14 1.88 7.86 7.86 0 0 1-2.14-1.88zm5.3-12.32zm3.04 14.87l-.24.07zm-.73.2h-.29zm-.74.12h-.32zm-.89.06z" class="cls-3"/><rect height="3.06" x="23.5" y="23.57" class="cls-3"/><rect height="4.07" x="36.44" y="100.64" class="cls-3" transform="rotate(-59.27 -36.708 78.84)"/><path d="M29.63 38.89a3 3 0 0 1-.42 0 3 3 0 0 0 .42 0zm-4.31-13.42l.11-.1zm1.24-.9l.16-.1zm-.6.36h.09zm1.3-.7l.13-.05zm.68-.25h.09zm.72-.19h.15zm-6.03 8.32a7 7 0 0 1 0-.8 7 7 0 0 0 0 .8zm5.64 6.57c-.22-.06-.44-.12-.65-.2.21.08.43.14.65.2zm.68.14l-.45-.09z" class="cls-3"/><path fill="#00afe0" d="M74.61 36.39l.39.06zm-.7-.07h.41zm1.38.2l.38.1zm.67.19l.37.14zm1.26.55l.39.24zm-3.69-.96h-.55.55zm-5.64 2.5a8.23 8.23 0 0 1 1.07-1 8.23 8.23 0 0 0-1.07 1zm9.92-1.18c.19.13.38.27.56.42-.18-.15-.37-.29-.56-.42zm-1.21-.66a3.26 3.26 0 0 1 .38.18 3.26 3.26 0 0 0-.38-.18zm-9.62 10.86a7.76 7.76 0 0 1-.46-.91 7.76 7.76 0 0 0 .46.91zm-.59-6.56a7.6 7.6 0 0 1 1-1.9 7.6 7.6 0 0 0-1 1.9z"/><path fill="url(#New_Gradient_Swatch_4)" d="M124.57 151.24a7.73 7.73 0 0 0-1.1-2.16c-.16-.21-.33-.42-.5-.62a8.19 8.19 0 0 0-1.2-1.07 7.7 7.7 0 0 0-1.4-.8 6.61 6.61 0 0 0-.74-.28l-.26-.07a4.77 4.77 0 0 0-.51-.13l-.31-.05-.47-.07h-1.6l-.48.08a3 3 0 0 0-.32.06l-.52.14-.27.08a7.21 7.21 0 0 0-.77.3L94.92 123a7.56 7.56 0 0 0 1.38-3.17 7.9 7.9 0 0 0 .11-.85 5.77 5.77 0 0 0 0-.72 6 6 0 0 0 0-.73v-.13a8 8 0 0 0-.29-1.29 7.85 7.85 0 0 0-2.41-3.54c-.18-.15-.37-.29-.56-.42l-.2-.12-.39-.24-.24-.12a3.26 3.26 0 0 0-.38-.18l-.27-.11-.37-.14-.29-.09-.38-.1-.29-.07-.39-.06h-1.63a7.63 7.63 0 0 0-4 1.5 8.23 8.23 0 0 0-1.07 1c-.17.18-.32.37-.47.56a7.6 7.6 0 0 0-1 1.9 5.39 5.39 0 0 0-.22.68 7.48 7.48 0 0 0-.26 2.16 6 6 0 0 0 0 .73 7.45 7.45 0 0 0 .56 2.08 7.76 7.76 0 0 0 .46.91l.23.36a5.79 5.79 0 0 0 .43.58 6.28 6.28 0 0 0 .49.54l-1.84 3.06-5.18 8.61-.59-.16h-.2a2.7 2.7 0 0 0-.41-.07h-1.98a3.64 3.64 0 0 0-.44.07h-.26c-.16 0-.32.08-.47.12l-.23.07a6.07 6.07 0 0 0-.67.25l-8.36-10.73L61 122.6l-9.48-12.17a7.48 7.48 0 0 0 1-1.65 6 6 0 0 0 .32-.9 3.45 3.45 0 0 0 .12-.46 7.5 7.5 0 0 0 .15-.93 3.87 3.87 0 0 0 0-.48 7.45 7.45 0 0 0-.44-2.83 7.61 7.61 0 0 0-5.51-4.84 6.54 6.54 0 0 0-.75-.13h-1.63q-.33 0-.66.09h-.15l-.63.16h-.09l-.55.2-.13.05L42 99l-.11.06c-.18.1-.35.2-.51.31h-.09l-.53.4-.11.1a5.34 5.34 0 0 0-.5.46l-2.63-1.57-2.7-1.6-4.06-2.41a8.76 8.76 0 0 0 .24-1.32v-1a8.35 8.35 0 0 0-.27-1.86 7.85 7.85 0 0 0-1.51-2.94 5.4 5.4 0 0 0-.56-.61l-.03-.02c-.19-.18-.39-.35-.59-.51l-.04-.07c-.2-.15-.41-.29-.62-.43l-.11-.06q-.33-.2-.66-.36h-.11a6.22 6.22 0 0 0-.71-.29h-.08c-.26-.08-.51-.16-.78-.22a6.85 6.85 0 0 0-.79-.13H24a6.81 6.81 0 0 0-.78 0h-.7a8.29 8.29 0 0 0-1.87.39A8 8 0 0 0 19 86a8.06 8.06 0 0 0-2.08 1.91 8.52 8.52 0 0 0-.53.8 7.66 7.66 0 0 0-.87 2.22 6.94 6.94 0 0 0-.15.93 7.37 7.37 0 0 0 0 1.41A7.8 7.8 0 0 0 16 96a7.66 7.66 0 0 0 .46.85l.27.39a7.82 7.82 0 0 0 5.1 3.17 5.41 5.41 0 0 0 .58.07H24c.24 0 .47-.06.7-.11l.66-.17h.13c.21-.07.42-.14.63-.23l.13-.05.63-.31c.2-.12.4-.24.59-.37l.11-.07c.19-.13.37-.27.55-.42a.39.39 0 0 0 .1-.08c.18-.16.36-.32.53-.49L32 100l2.39 1.42.31.19 3.5 2.07a7 7 0 0 0-.28 1.42 5.63 5.63 0 0 0 0 .71 7 7 0 0 0 0 .8 7.32 7.32 0 0 0 .25 1.32 7.48 7.48 0 0 0 1.29 2.56 7.86 7.86 0 0 0 2.14 1.88 7.7 7.7 0 0 0 1.3.61c.21.08.43.14.65.2l.23.05.45.09h.26a3 3 0 0 0 .42 0H46.32l.45-.07h.29l.49-.13.24-.07c.24-.08.48-.17.71-.27l9.75 12.52 1.91 2.45 8.09 10.39a7.77 7.77 0 0 0-1.08 1.9c-.08.22-.16.45-.23.68a7.87 7.87 0 0 0-.29 2.16v.73a7.84 7.84 0 0 0 .3 1.44 7.55 7.55 0 0 0 2.37 3.59 5.57 5.57 0 0 0 .56.43l.19.13c.14.08.27.17.41.24a1.83 1.83 0 0 0 .24.13l.38.19.27.11.38.15.28.09.39.11.29.06.39.07h.31a2.56 2.56 0 0 0 .39 0H74.73a7.62 7.62 0 0 0 4-1.48 7.21 7.21 0 0 0 1.09-1 7.54 7.54 0 0 0 1.74-3.15 7.18 7.18 0 0 0 .27-2.17 7.88 7.88 0 0 0-.36-2.16 8 8 0 0 0-.94-1.95 8.41 8.41 0 0 0-.94-1.13l4.58-7.61 2.44-4 .6.16h.2l.42.07h.23a2.73 2.73 0 0 0 .41 0h1.26l.47-.08.27-.06.49-.14H91.19a6.65 6.65 0 0 0 .69-.28l19.18 23.66a7.6 7.6 0 0 0 1.77 10.8c.19.13.39.25.59.37l.18.09a4.81 4.81 0 0 0 .46.22l.19.09.63.23c.22.07.44.12.66.17h.2l.5.08H117.87c.23 0 .47-.06.7-.1h.06a7.66 7.66 0 0 0 4.16-2.3 7.85 7.85 0 0 0 1-1.3 7.58 7.58 0 0 0 1.06-3.84 7.47 7.47 0 0 0-.28-2.3zm-97.5-57.4a4.15 4.15 0 0 1-.28.69c-.06.11-.13.22-.2.33a4.41 4.41 0 0 1-.47.58 4 4 0 0 1-.89.66 3.48 3.48 0 0 1-.69.29 2.22 2.22 0 0 1-.37.09l-.35.05h-.38a3.89 3.89 0 0 1-.49 0h-.12a2.68 2.68 0 0 1-.49-.11 3.61 3.61 0 0 1-.46-.17l-.11-.06a3.63 3.63 0 0 1-2.06-2.66 3.82 3.82 0 0 1-.08-.75 4.53 4.53 0 0 1 .07-.74 3.64 3.64 0 0 1 .22-.71 3.56 3.56 0 0 1 .35-.67 4 4 0 0 1 .45-.55 3.38 3.38 0 0 1 .55-.45 4 4 0 0 1 1.4-.66l.38-.06h.87L24 89a4.15 4.15 0 0 1 .48.11 3.66 3.66 0 0 1 .46.18h.12a3.62 3.62 0 0 1 .43.24l.23.17.09.07A3.89 3.89 0 0 1 27.16 92a3.81 3.81 0 0 1-.09 1.84zm21.58 14.08a2.37 2.37 0 0 1-.23.3 3.32 3.32 0 0 1-.53.53 3.65 3.65 0 0 1-1.67.79 2.38 2.38 0 0 1-.37.06h-.38a3.89 3.89 0 0 1-.49 0h-.12a3.38 3.38 0 0 1-.48-.11 3.66 3.66 0 0 1-.46-.18h-.11c-.15-.08-.3-.16-.44-.25a3.82 3.82 0 0 1-1.06-5.28 3.76 3.76 0 0 1 2.06-1.53l.36-.1h.76a4 4 0 0 1 .49 0h.12a4.15 4.15 0 0 1 .48.11 4.37 4.37 0 0 1 .46.18h.11a2.76 2.76 0 0 1 .44.25 3.82 3.82 0 0 1 1.62 2.42 3.8 3.8 0 0 1-.56 2.81zm29.27 36a3.9 3.9 0 0 1-.48 1 3.76 3.76 0 0 1-2.06 1.53l-.36.1h-.76a4 4 0 0 1-.49 0h-.12a4.15 4.15 0 0 1-.48-.11 4.37 4.37 0 0 1-.46-.18l-.11-.05c-.15-.08-.3-.16-.44-.25a4.41 4.41 0 0 1-.58-.47c-.08-.09-.17-.18-.25-.28a3.8 3.8 0 0 1-.79-1.67 3.74 3.74 0 0 1 0-1.49 4.44 4.44 0 0 1 .21-.71 4.17 4.17 0 0 1 .35-.66 3.55 3.55 0 0 1 .23-.31 3.26 3.26 0 0 1 .53-.52l.29-.23a5.19 5.19 0 0 1 .66-.35 3.26 3.26 0 0 1 .44-.15l.28-.07h.75a2.63 2.63 0 0 1 .49 0h.12a3.88 3.88 0 0 1 .49.11 3.66 3.66 0 0 1 .46.18l.11.05a2.76 2.76 0 0 1 .44.25 3.75 3.75 0 0 1 1.05 1 3.37 3.37 0 0 1 .19.32A3.47 3.47 0 0 1 78 142a3.86 3.86 0 0 1-.08 1.88zm14.55-24.3a3.59 3.59 0 0 1-.12.35 4.32 4.32 0 0 1-.36.67 3.94 3.94 0 0 1-.75.83 5 5 0 0 1-.61.41 4.19 4.19 0 0 1-.69.29c-.12 0-.24.07-.37.09-.11 0-.23 0-.35.06h-.38a3.91 3.91 0 0 1-.49 0h-.12a3.88 3.88 0 0 1-.49-.11l-.46-.17-.11-.06a3.75 3.75 0 0 1-.44-.24 3.79 3.79 0 0 1-.58-.48l-.25-.27a4.59 4.59 0 0 1-.35-.51 4.41 4.41 0 0 1-.35-.8 2.22 2.22 0 0 1-.09-.37 3.65 3.65 0 0 1-.08-.74 4.53 4.53 0 0 1 .07-.74 3.88 3.88 0 0 1 .57-1.38l.22-.3a3.94 3.94 0 0 1 .83-.75 3.76 3.76 0 0 1 1.37-.57l.38-.06h.37a4.22 4.22 0 0 1 .49 0h.12a4.15 4.15 0 0 1 .48.11 3.61 3.61 0 0 1 .46.17l.12.06a3.62 3.62 0 0 1 .43.24 3.92 3.92 0 0 1 1.06 1 3.2 3.2 0 0 1 .26.48 1.63 1.63 0 0 1 .09.19 3.55 3.55 0 0 1 .22.7 3.85 3.85 0 0 1-.1 1.86zm28.42 35.11a5 5 0 0 1-.28.69c-.06.11-.13.21-.2.32a3.77 3.77 0 0 1-2.24 1.58h-.93a3.88 3.88 0 0 1-.48 0h-.13a4.1 4.1 0 0 1-.48-.1 2.54 2.54 0 0 1-.46-.17l-.11-.05c-.15-.08-.3-.16-.44-.25a3.76 3.76 0 0 1-1.68-3.54 3.62 3.62 0 0 1 .14-.73 3.48 3.48 0 0 1 .29-.69 2.07 2.07 0 0 1 .19-.32 3.46 3.46 0 0 1 .22-.31l.25-.28a3.9 3.9 0 0 1 1.23-.82 3.53 3.53 0 0 1 .72-.22h.76a3.87 3.87 0 0 1 .48 0h.13a4.15 4.15 0 0 1 .48.11 3.66 3.66 0 0 1 .46.18h.12a3.18 3.18 0 0 1 .43.25 3.83 3.83 0 0 1 1.41 1.7 4.29 4.29 0 0 1 .22.72 3.86 3.86 0 0 1-.1 1.89z" transform="translate(-15.28 -74.53)"/><path d="M132.84 44.17v.3c0 2.81-1.14 5.56-4.81 5.56-3.93 0-5.15-2.53-5.15-8.1s1.22-8.1 5.18-8.1c4.43 0 4.69 3.28 4.69 4.89v.29h-2.49v-.26c0-1.45-.43-3.11-2.23-3s-2.66 1.14-2.66 6.16.83 6.29 2.66 6.29c2.08 0 2.32-2.32 2.32-3.76v-.26zm4.69-10h3.19l4.11 15.59h-2.6l-1-3.82h-4.51l-1 3.82h-2.6zm3.32 9.78l-1.79-7.69-1.86 7.69zm5.07-9.78h5.5c2.18 0 4 1.09 4 4 0 2-.89 3.55-2.6 3.82 1.55.15 2.36 1 2.45 3.19 0 1 0 2.23.09 3.16a1.6 1.6 0 0 0 .74 1.36h-2.82a2.62 2.62 0 0 1-.41-1.38c-.09-.94-.07-1.81-.11-3-.05-1.7-.57-2.44-2.27-2.44h-2v6.77h-2.57zm4.47 6.94a2.29 2.29 0 0 0 2.49-2.53c0-1.66-.72-2.53-2.36-2.53h-2.11v5.06zm7.25-6.94h5.08c2.31 0 4.19 1 4.19 3.78 0 1.9-.74 3-2.29 3.53 1.7.3 2.79 1.33 2.79 4s-1.88 4.26-4.8 4.26h-4.94zm4.46 6.57a2.19 2.19 0 0 0 2.29-2.47c0-1.85-1.11-2.22-2.51-2.22h-1.75v4.69zm.5 7.14c1.48 0 2.29-1 2.29-2.75a2.37 2.37 0 0 0-2.44-2.64h-2.32v5.39zm6.4-5.92c0-5.56 1.57-8.1 5.15-8.1s5.15 2.54 5.15 8.1-1.57 8.1-5.15 8.1-5.15-2.53-5.15-8.1zm7.81-.06c0-5.24-1.18-6.16-2.66-6.16s-2.66.92-2.66 6.16 1.18 6.29 2.66 6.29 2.66-.92 2.66-6.29zm4.7-7.73h3l4.52 11.61V34.17h2.36v15.59h-3l-4.52-11.92v11.92h-2.36zm17.77 0h4.44c4.9 0 5.51 3.19 5.51 7.79s-.61 7.8-5.51 7.8h-4.43zm2.49 13.71h2c2.06 0 2.91-1.35 2.91-5.92 0-4.39-.74-5.91-2.91-5.91h-2zm12.6-13.71h3.19l4.1 15.59h-2.6l-1-3.82h-4.56l-1 3.82h-2.6zm3.32 9.78l-1.79-7.69-1.86 7.69zm6.42-7.69h-3.71v-2.09h9.84v2.09h-3.64v13.5h-2.49zm9.3-2.09h3.19l4.1 15.59h-2.6l-1-3.82h-4.56l-1 3.82h-2.6zm3.32 9.78l-1.79-7.69-1.86 7.69zm12.23.98v.4c0 1.9.83 2.86 2.55 2.86a2.22 2.22 0 0 0 2.36-2.27 2.63 2.63 0 0 0-2.23-2.78l-1.7-.59c-2.27-.87-3.25-2-3.25-4.28 0-2.84 1.92-4.41 4.84-4.41 4 0 4.41 2.49 4.41 4.11v.35h-2.49v-.33c0-1.42-.63-2.25-2.18-2.25a2 2 0 0 0-2.09 2.25c0 1.33.67 2 2.33 2.64l1.68.61c2.21.79 3.17 2 3.17 4.13 0 3.32-2 4.69-5.15 4.69-3.87 0-4.74-2.57-4.74-4.76v-.37zm9.41-10.76h4.93c3 0 4.3 1.88 4.3 4.54s-1.63 4.61-4.56 4.61h-2.18v6.44h-2.49zm2.49 7.27h1.77c1.33 0 2.48-.72 2.48-2.69 0-1.68-.67-2.7-2.66-2.7h-1.59zm8.43-7.27h8.43v2.09h-5.94v4.33h5.59v2.09h-5.59v5h6.12v2.1h-8.6zm20.08 10v.3c0 2.81-1.13 5.56-4.8 5.56-3.93 0-5.15-2.53-5.15-8.1s1.22-8.1 5.17-8.1c4.43 0 4.7 3.28 4.7 4.89v.29h-2.49v-.26c0-1.45-.44-3.11-2.23-3s-2.66 1.14-2.66 6.16.83 6.29 2.66 6.29c2.07 0 2.31-2.32 2.31-3.76v-.26zm1.64-10h2.49v15.59h-2.49zm4.96 0h8.32v2.09h-5.83v4.33h5.48v2.09h-5.48v7.08h-2.49zm10 0h2.49v15.59h-2.49zm14.54 10v.3c0 2.81-1.14 5.56-4.8 5.56-3.93 0-5.16-2.53-5.16-8.1s1.23-8.1 5.18-8.1c4.43 0 4.69 3.28 4.69 4.89v.29h-2.49v-.26c0-1.45-.43-3.11-2.22-3s-2.67 1.14-2.67 6.16.83 6.29 2.67 6.29c2.07 0 2.31-2.32 2.31-3.76v-.26zm4.69-10h3.19l4.11 15.59h-2.6l-1-3.82h-4.57l-1 3.82h-2.6zm3.32 9.78l-1.8-7.69-1.86 7.69zm6.42-7.69h-3.71v-2.09h9.85v2.09h-3.65v13.5h-2.49zm7.45-2.09h2.49v15.59h-2.49zm4.58 7.79c0-5.56 1.58-8.1 5.16-8.1s5.15 2.54 5.15 8.1-1.57 8.1-5.15 8.1-5.16-2.53-5.16-8.1zm7.82-.06c0-5.24-1.18-6.16-2.66-6.16s-2.67.92-2.67 6.16 1.18 6.29 2.67 6.29 2.66-.92 2.66-6.29zm4.7-7.73h3l4.52 11.61V34.17h2.36v15.59h-3l-4.52-11.92h-.05v11.92h-2.35z" class="cls-6"/><path fill="url(#New_Gradient_Swatch_4-2)" d="M160.27 154.28v.72c0 6.26-2.52 12.37-10.67 12.37-8.72 0-11.44-5.63-11.44-18s2.72-18 11.49-18c9.84 0 10.42 7.27 10.42 10.85v.63h-5.52v-.58c0-3.2-1-6.88-5-6.74s-5.91 2.53-5.91 13.68 1.84 14 5.91 14c4.61 0 5.14-5.14 5.14-8.34v-.58z" transform="translate(-15.28 -74.53)"/><path fill="url(#New_Gradient_Swatch_4-3)" d="M163.32 149.38c0-12.36 3.49-18 11.44-18s11.44 5.62 11.44 18-3.49 18-11.44 18-11.44-5.64-11.44-18zm17.36-.14c0-11.64-2.62-13.68-5.92-13.68s-5.91 2-5.91 13.68c0 11.92 2.62 14 5.91 14s5.92-2.08 5.92-14z" transform="translate(-15.28 -74.53)"/><path fill="url(#New_Gradient_Swatch_4-4)" d="M191.1 132.07h6.74l10 25.79h.1v-25.79h5.24v34.62h-6.74l-10-26.47h-.09v26.47h-5.25z" transform="translate(-15.28 -74.53)"/><path fill="url(#New_Gradient_Swatch_4-5)" d="M223.19 156v.88c0 4.21 1.84 6.35 5.67 6.35a4.91 4.91 0 0 0 5.24-5c0-3.64-1.84-5.24-4.94-6.16l-3.79-1.31c-5-1.94-7.22-4.56-7.22-9.5 0-6.3 4.27-9.79 10.76-9.79 8.87 0 9.8 5.52 9.8 9.11v.77h-5.53v-.72c0-3.15-1.41-5-4.85-5-2.37 0-4.65 1.31-4.65 5 0 2.95 1.5 4.46 5.18 5.86l3.74 1.36c4.89 1.75 7 4.41 7 9.16 0 7.37-4.46 10.43-11.44 10.43-8.58 0-10.52-5.72-10.52-10.57V156z" transform="translate(-15.28 -74.53)"/><path fill="url(#New_Gradient_Swatch_4-6)" d="M243.26 149.38c0-12.36 3.49-18 11.44-18s11.44 5.62 11.44 18-3.49 18-11.44 18-11.44-5.64-11.44-18zm17.36-.14c0-11.64-2.62-13.68-5.92-13.68s-5.91 2-5.91 13.68c0 11.92 2.62 14 5.91 14s5.92-2.08 5.92-14z" transform="translate(-15.28 -74.53)"/><path fill="url(#New_Gradient_Swatch_4-7)" d="M271 132.07h12.22c4.85 0 8.77 2.43 8.77 8.92 0 4.46-2 7.91-5.77 8.49v.09c3.45.34 5.24 2.23 5.43 7.08.05 2.23.1 4.95.2 7a3.57 3.57 0 0 0 1.65 3h-6.26a5.93 5.93 0 0 1-.92-3.06c-.19-2.08-.15-4-.24-6.54-.1-3.78-1.26-5.43-5-5.43h-4.51v15H271zm10 15.42c3.54 0 5.53-2.13 5.53-5.62 0-3.69-1.6-5.63-5.24-5.63h-4.7v11.25z" transform="translate(-15.28 -74.53)"/><path fill="url(#New_Gradient_Swatch_4-8)" d="M301.87 136.73h-8.24v-4.66h21.87v4.66h-8.1v30h-5.53z" transform="translate(-15.28 -74.53)"/><path fill="url(#New_Gradient_Swatch_4-9)" d="M318.4 132.07h5.53v34.62h-5.53z" transform="translate(-15.28 -74.53)"/><path fill="url(#New_Gradient_Swatch_4-10)" d="M334.5 132.07v24.83c0 4.36 1.74 6.3 5.09 6.3s5-1.94 5-6.3v-24.83h5.53v24.39c0 8-4 10.91-10.57 10.91S329 164.46 329 156.46v-24.39z" transform="translate(-15.28 -74.53)"/><path fill="url(#New_Gradient_Swatch_4-11)" d="M355.44 132.07h8.63l6.11 25.65h.1l6-25.65h8.43v34.62h-5.23v-28.8h-.1l-7 28.8h-4.66l-7-28.8h-.09v28.8h-5.24z" transform="translate(-15.28 -74.53)"/><path d="M73.77 51.56zm-6.79-3.74l.23.36-.23-.36z" class="cls-17"/><rect height="3.11" x="61.92" y="122.27" class="cls-17" transform="rotate(-37.91 -54.218 108.816)"/><path d="M75.72 51.23h.15z" class="cls-17"/><path d="M68.98 55.28l2.43-4.05-2.43 4.05z" class="cls-17"/><path d="M85.89 71.57l-4.35-1.1a4.87 4.87 0 0 0-1.43-3 5 5 0 0 0-3-1.43l-3-11.35c.13-.11.27-.23.4-.36a4.83 4.83 0 0 0 .76-1 9.21 9.21 0 0 1-1.65.15 10.52 10.52 0 0 1-1.26-.08l-1.41 2.33h.28l2.92 10.92a5.85 5.85 0 0 0-1 .79 4.93 4.93 0 0 0-.91 5.75l-7.83 7.83a5 5 0 0 0-5.76.91 5.14 5.14 0 0 0-.77 1l-10.89-2.92v-.21a5 5 0 0 0-5.16-5l-2.92-10.92a4.27 4.27 0 0 0 1-.76 5 5 0 0 0 .81-5.75l2.78-2.78-1.92-2.46-3.08 3.09a5 5 0 0 0-5.76.93 4.67 4.67 0 0 0-.76 1l-10.92-2.92a4.92 4.92 0 0 0-1.41-3.76 5.05 5.05 0 0 0-3.73-1.45L13 38.11a4.38 4.38 0 0 0 1-.77 5 5 0 0 0 .91-5.76l3.12-3.11-2.7-1.6-2.55 2.6a4.93 4.93 0 0 0-2.24-.54 5 5 0 0 0-3.52 1.45 5.08 5.08 0 0 0-.77 1l-3.79-1.1a1.55242 1.55242 0 1 0-.8 3l3.93 1.15a4.84 4.84 0 0 0 1.43 3 5 5 0 0 0 3 1.43l3 11.35-.39.35a5 5 0 0 0-.91 5.76l-2.55 2.55a1.57 1.57 0 0 0 0 2.2 1.53 1.53 0 0 0 2.19 0l2.58-2.6a5 5 0 0 0 2.23.53 5 5 0 0 0 3.55-1.46 3.42 3.42 0 0 0 .36-.4l1.9.52 9.45 2.53a4.91 4.91 0 0 0 1.42 3 5.09 5.09 0 0 0 3 1.43l3 11.35a3.25 3.25 0 0 0-.39.35 5 5 0 0 0-1.45 3.52 4.81 4.81 0 0 0 .54 2.24l-3.06 3a1.56 1.56 0 0 0 0 2.19 1.55 1.55 0 0 0 2.2 0l3-3a5 5 0 0 0 5.76-.91 3.25 3.25 0 0 0 .35-.39l11.35 3a4.82 4.82 0 0 0 1.43 3 5 5 0 0 0 3 1.43l1.15 4.4a1.55 1.55 0 0 0 1.49 1.16 1.12 1.12 0 0 0 .4-.07 1.54 1.54 0 0 0 1.1-1.92l-1.1-4.25a4.26 4.26 0 0 0 1-.77 5 5 0 0 0 .91-5.75l7.83-7.83a5 5 0 0 0 5.76-.91 4.72 4.72 0 0 0 .76-1l4.25 1.11a1.39 1.39 0 0 0 .4.06 1.56 1.56 0 0 0 .39-3.06zm-45 6.22c.13 0-.12 0 0 0z" class="cls-6"/><rect height="3.14" x="36.12" y="96.48" class="cls-17" transform="rotate(-59.27 -37.021 74.218)"/><path d="M94.8 36.9l-4.4-1.15a4.87 4.87 0 0 0-1.43-3 5 5 0 0 0-3-1.42l-3-11.33c.14-.11.27-.23.41-.36a5 5 0 0 0 1.45-3.52 4.89 4.89 0 0 0-.54-2.23l3.43-3.42a1.55 1.55 0 0 0-2.19-2.19l-3.47 3.47a5 5 0 0 0-5.76.91 2.64 2.64 0 0 0-.35.4L64.6 9.96a4.9 4.9 0 0 0-1.43-3 5 5 0 0 0-3-1.43l-1.12-4.39a1.56 1.56 0 0 0-3 .8l1.11 4.25a4.55 4.55 0 0 0-1 .77 5 5 0 0 0-.92 5.76l-7.81 7.85a5 5 0 0 0-5.71.9 2.17 2.17 0 0 0-.35.39l-11.35-3a4.92 4.92 0 0 0-1.43-3 5.09 5.09 0 0 0-3-1.43l-1.6-5.77a1.56 1.56 0 0 0-3 .81l1.57 5.63a4.22 4.22 0 0 0-1 .76 5 5 0 0 0-1.16 5.2l4.22 2.51a9.52 9.52 0 0 1 5.6-1.83 9.3 9.3 0 0 1 2 .22 9.45 9.45 0 0 1 3.69 1.7l4.23 1.13a4.87 4.87 0 0 0 1.45 3.73 5 5 0 0 0 3 1.43l3 11.35c-.12.1-.27.23-.39.35a5 5 0 0 0-1.45 3.51l3.68 4.73a5.09 5.09 0 0 0 1.33.19 5 5 0 0 0 3.52-1.45 3.33 3.33 0 0 0 .36-.39l10.22 2.74.89-1.49a9.91 9.91 0 0 1-1-1.73l-9-2.42v-.21a5 5 0 0 0-5.17-5l-2.86-10.89a4.22 4.22 0 0 0 1-.76 5 5 0 0 0 .91-5.76l7.83-7.83a5 5 0 0 0 5.76-.91 4.48 4.48 0 0 0 .76-1l10.9 2.92v.21a5 5 0 0 0 1.45 3.52 4.89 4.89 0 0 0 3.52 1.45h.19L82.98 32a4.81 4.81 0 0 0-1 .76 5 5 0 0 0-1.26 4.95 9.41 9.41 0 0 1 1.93 3.57l.57-.56a5 5 0 0 0 2.23.54 5 5 0 0 0 3.52-1.45 5.14 5.14 0 0 0 .77-1l4.25 1.11a1.32 1.32 0 0 0 .39.06 1.57 1.57 0 0 0 .42-3.08z" class="cls-6"/></svg>