<svg xmlns="http://www.w3.org/2000/svg" role="img" viewBox="55.22 166.22 508.56 214.56"><title>CERES logo</title><style>svg {enable-background:new 0 0 612 792}</style><style>.st0{fill:#243559}.st1{fill:#a9bedc}</style><g id="W1rbq1.tif"><path d="M65.29 242.65h41.02v11.62H81.73v9.3h23.19v11.49H81.7v10.2h25.27v11.94H65.28c.01-18.18.01-36.36.01-54.55z" class="st0"/><path d="M422.57 176.19c2.49 1.11 4.97 2.22 7.84 3.5-3.67 1.22-6.93 2.3-10.31 3.42-3.3-1.11-6.64-2.23-10.7-3.59 3.2-1.31 5.69-2.32 8.18-3.33h4.99z" class="st1"/><path d="M274.27 276.4v-33.44h15.13v53.92h-20.54c-6.1-11.08-12.43-22.55-19.12-34.69v34.63h-15.22v-53.77h20.81c5.8 10.89 11.77 22.1 17.74 33.32.39 1.07.79 2.14 1.37 3.72.16-1.05.33-1.52.28-1.97-.05-.59-.29-1.15-.45-1.72zm-156.61 20.76v-54.54c11.65.51 23.1-1.19 34.4 1.24 11.53 2.49 18.41 10.46 19.15 22.25.26 4.05-.08 8.27-.94 12.24-1.69 7.83-6.74 13.21-14.22 15.97-3.69 1.36-7.67 2.37-11.58 2.6-7.29.44-14.62.2-21.93.24h-4.88zm16.59-11.79c7.01.14 14.11 1.23 17.7-5.82 3.4-6.67 3.38-13.86-1.1-20.18-4.1-5.79-10.37-5.36-16.6-4.69v30.69zm42.82-.39c5.6-2.05 10.21-3.73 15.09-5.52 1.88 5.48 5.49 8.3 11.27 7.63 1.29-.15 2.65-.52 3.77-1.14 3.31-1.84 3.38-5.58.1-7.46-1.7-.98-3.67-1.53-5.54-2.19-4.68-1.66-9.5-2.99-14.02-5-5.68-2.52-9.42-6.7-9.18-13.42.24-6.77 4.04-11.11 9.94-13.6 8.39-3.54 17.13-3.83 25.85-1.29 5.25 1.53 8.69 5.11 10.49 10.8-4.72 1.49-9.23 2.91-14.02 4.42-2.24-3.78-5.19-6.44-9.98-5.68-.81.13-1.83.08-2.37.55-1.29 1.11-3.19 2.43-3.28 3.77-.09 1.28 1.51 3.35 2.86 3.93 5.02 2.13 10.25 3.76 15.39 5.62 1.55.56 3.13 1.1 4.59 1.86 9.05 4.68 10.98 15.25 4.2 22.88-.44.49-.94.93-1.41 1.4-7.37 7.31-29.06 7.87-36.54 1.21-2.63-2.34-4.54-5.47-7.21-8.77z" class="st0"/><path d="M353.06 234.48c19.52-5.98 38.82-11.89 58.12-17.8-.01-.33-.01-.67-.02-1-19.75-5.98-39.5-11.96-59.25-17.93 3.67-2.46 7.15-3.31 11.23-2.05 18.3 5.62 36.64 11.11 55.04 16.4 2.51.72 5.62.62 8.15-.13 18.67-5.53 37.27-11.31 56.13-17.09 2.5.77 5.14 1.58 7.77 2.39.03.36.07.71.1 1.07l-56.19 17.43c19.56 7.65 39.79 12.91 60.29 19.41-2.98 1.01-5.31 1.8-7.85 2.66-21.06-6.27-42.24-12.57-63.66-18.95-19.98 6.11-40.16 12.28-60.86 18.61-.18 2.8-.37 5.68-.6 9.12-1.63-.37-3-.63-4.33-1.01-1.27-.36-2.51-.85-4.08-1.4.01-2.98.01-6.03.01-9.73z" class="st1"/><path d="M381.19 215.39c-14.63-4.46-29.26-8.93-43.89-13.39-.01-.29-.02-.57-.03-.86 2.24-.68 4.47-1.36 6.25-1.9 18.27 5.51 36.05 10.86 53.82 16.22.05.37.11.75.16 1.12-16.79 5.89-33.99 10.58-51.46 16.03-.17 2.82-.34 5.7-.55 9.26-2.67-.66-4.94-1.22-7.42-1.83v-9.91c14.45-4.5 28.96-9.01 43.46-13.52-.11-.41-.22-.81-.34-1.22zm42.18 12.25c-15.54 4.79-30.84 9.52-46.39 14.32-.19 2.81-.38 5.54-.6 8.85-2.69-.58-5.01-1.09-7.38-1.6v-9.88c18.14-5.52 36.11-10.99 53.94-16.42 18.44 5.48 36.73 10.91 55.86 16.59-4.14 2.48-7.36 2.54-10.99 1.42-14.68-4.51-29.41-8.81-44.44-13.28zm44.52-37.3c2.03.62 4.05 1.24 6.07 1.86.06.31.12.63.17.94-3.29 1.14-6.54 2.38-9.86 3.41-12.28 3.8-24.61 7.43-36.86 11.35-3.83 1.23-7.34 1.07-11.13-.09-15.44-4.72-30.94-9.25-46.41-13.87-.93-.28-1.8-.76-3.33-1.43 2.53-.96 4.48-1.69 6.35-2.4 15.16 4.42 30.16 8.88 45.22 13.11 2.08.59 4.63.64 6.69.04 14.27-4.12 28.44-8.49 43.09-12.92zm-21.62 25.91c2.96-1 5.23-1.83 7.53-2.54 14.02-4.33 28.08-8.53 42.04-13.03 3.49-1.12 6.3-.38 9.24.87.07.4.14.81.22 1.21-14.12 4.43-28.24 8.86-42.37 13.3-.01.3-.03.6-.04.89 14.74 4.45 29.49 8.89 45.03 13.58-3.26 2.07-5.96 2.8-8.93 1.92-16.6-4.9-33.18-9.85-49.77-14.81-.76-.23-1.46-.68-2.95-1.39z" class="st1"/><path d="M463.07 243.59c-3.42 3.01-6.84 2.69-10.37 1.61-8.51-2.61-17.02-5.19-25.57-7.69-1.53-.45-3.36-.96-4.78-.53-10.08 3.02-20.09 6.28-30.45 9.57-.17 2.91-.35 5.79-.56 9.3-2.72-.87-5.01-1.61-7.43-2.38v-9.59c13.08-4.04 26.26-8.11 39.66-12.25 13.07 3.97 26.28 7.96 39.5 11.96zm-140.77-37.4c3.53-2.13 6.31-2.73 9.54-1.74 12.13 3.7 24.3 7.29 36.58 11.41-11.96 5.17-24.73 7.94-37.28 12.72-.11 1.33-.25 2.75-.35 4.18-.09 1.45-.14 2.91-.23 5.05-2.79-1.05-5.16-1.95-7.56-2.85v-9.12c9.92-3.17 20.14-6.43 31.3-9.99-11.07-3.33-21.15-6.38-32-9.66zm169.71 10.78c9.73 3 19.46 5.99 29.89 9.2-2.76 2.22-5.11 3.14-7.76 2.35-12.18-3.63-24.34-7.37-36.49-11.1-.61-.19-1.14-.62-2.33-1.28 13.46-4.15 26.36-8.14 38.95-12.02 2.4.8 4.43 1.47 6.46 2.14.08.28.15.57.23.85-9.6 3.01-19.2 6.01-28.8 9.02-.04.28-.1.56-.15.84zm-32.77-28.1c-11.81 3.65-23.6 7.34-35.44 10.89-1.52.46-3.41.52-4.92.08-12.33-3.63-24.61-7.42-37.48-11.35 3.01-2.42 5.85-2.89 8.96-1.97 7.59 2.24 15.31 4.18 22.7 6.95 5.35 2.01 10.28 1.78 15.46.08 6.59-2.15 13.27-4.02 19.78-6.38 3.87-1.4 7.29-.95 10.94 1.7z" class="st1"/><path d="M315.81 232.97c-2.98-.77-5.15-1.33-7.6-1.96v-9.79c5.19-1.7 10.58-3.47 16.82-5.51-6.13-1.83-11.36-3.4-17.54-5.25 2.76-1.05 4.67-1.78 6.71-2.55 8.41 2.47 16.85 4.95 25.29 7.43.03.35.06.71.08 1.06-7.85 2.51-15.71 5.02-23.77 7.59.01 3 .01 5.58.01 8.98zm82.99 25.1v-9.76c8.47-2.6 16.94-5.2 25.35-7.78 8.47 2.52 16.79 4.99 25.1 7.46-3.11 2.14-6.06 3.32-9.62 1.8-2.41-1.03-5.21-1.17-7.56-2.29-5.77-2.76-11.19-1.62-16.72.65-2.71 1.11-5.6 1.78-8.74 2.74v9.66c-2.86-.91-5.14-1.64-7.81-2.48zm106.28-41.95c7.23-2.28 14.38-4.89 21.74-6.68 2.73-.66 5.93.6 8.92.99 0 .39-.01.78-.01 1.17-4.92 1.6-9.84 3.21-15.71 5.12 6.09 1.91 11.44 3.58 17.51 5.48-2.83.96-4.85 1.65-7.11 2.42-8.29-2.51-16.79-5.08-25.28-7.65-.02-.29-.04-.57-.06-.85zm-83.83-29.57c7.16-1.01 14.35-7.11 23.1-2.2-1.91.62-3.81 1.25-5.72 1.85-4.71 1.48-9.38 3.15-14.17 4.32-2.32.57-5.01.73-7.29.14-6.84-1.77-13.57-4-20.33-6.08-.25-.08-.39-.49-.84-1.09 8.89-4.14 16.16 2.33 25.25 3.06z" class="st1"/><path d="M413.75 262.24v-8.87c8.09-4.62 11.02-4.72 22.09-.41-3.8 1.3-6.84 2.35-10.28 3.53v8.61c-4.63.57-7.95-1.76-11.81-2.86zm-112.9-42.58v9.12c-3.87-1.21-7.22-2.26-10.81-3.38v-9.7c11.11-3.92 9.52-3.85 20.99.14-3.56 1.34-6.63 2.49-10.18 3.82zm233.69-3.44c3.02-1.1 6.03-2.2 9.03-3.29 3.68 1.13 7.27 2.24 10.82 3.33-3.92 3.68-10.06 3.98-19.85-.04zM274.27 276.4c.16.57.4 1.13.46 1.71.05.45-.12.92-.28 1.97-.58-1.58-.97-2.65-1.37-3.72.4.02.8.03 1.19.04z" class="st1"/></g><path d="M253 347.36c2.09-2.13 4.74-3.2 7.96-3.2 4.31 0 7.47 1.43 9.46 4.29 1.1 1.61 1.69 3.22 1.77 4.83h-5.41c-.34-1.24-.79-2.18-1.33-2.81-.96-1.12-2.39-1.69-4.29-1.69-1.93 0-3.45.79-4.56 2.38-1.11 1.59-1.67 3.83-1.67 6.74s.59 5.08 1.76 6.53c1.17 1.45 2.67 2.17 4.48 2.17 1.86 0 3.27-.62 4.25-1.86.54-.67.99-1.67 1.34-3.01h5.38c-.46 2.82-1.65 5.12-3.56 6.89-1.91 1.77-4.35 2.65-7.33 2.65-3.69 0-6.58-1.2-8.69-3.59-2.11-2.4-3.17-5.7-3.17-9.88.01-4.51 1.21-7.99 3.61-10.44zm42.68 1.88h-13.71v5.5h12.59v4.5h-12.59v6.66h14.34v4.66h-19.63v-25.91h19v4.59zm21.46-3.92c.95.41 1.76 1.01 2.43 1.81.55.66.98 1.38 1.3 2.18.32.8.48 1.71.48 2.72 0 1.23-.31 2.44-.93 3.63s-1.65 2.03-3.08 2.52c1.2.48 2.04 1.16 2.54 2.05s.75 2.24.75 4.05v1.74c0 1.18.05 1.99.14 2.41.14.67.48 1.16 1 1.48v.65h-5.98c-.16-.57-.28-1.04-.35-1.39-.14-.73-.22-1.47-.23-2.23l-.04-2.41c-.02-1.65-.31-2.75-.86-3.3s-1.58-.83-3.08-.83h-5.29v10.16h-5.29v-25.91h12.39c1.78.04 3.14.26 4.1.67zm-11.19 3.83v6.96h5.83c1.16 0 2.03-.14 2.6-.42 1.02-.49 1.54-1.46 1.54-2.92 0-1.57-.5-2.62-1.49-3.16-.56-.3-1.39-.46-2.5-.46h-5.98zm39.74.09h-13.71v5.5h12.59v4.5h-12.59v6.66h14.34v4.66h-19.63v-25.91h19v4.59zm8.75 13.32c.17 1.18.5 2.07.99 2.65.9 1.07 2.43 1.6 4.61 1.6 1.3 0 2.36-.14 3.18-.42 1.54-.54 2.32-1.54 2.32-3.01 0-.86-.38-1.52-1.13-1.99-.76-.46-1.96-.86-3.6-1.21l-2.81-.62c-2.76-.61-4.65-1.27-5.68-1.99-1.75-1.2-2.62-3.06-2.62-5.61 0-2.32.85-4.25 2.56-5.78s4.22-2.3 7.53-2.3c2.76 0 5.12.72 7.07 2.17 1.95 1.45 2.97 3.55 3.07 6.3h-5.2c-.1-1.56-.79-2.67-2.09-3.32-.87-.43-1.94-.65-3.23-.65-1.43 0-2.57.28-3.42.84-.85.56-1.28 1.35-1.28 2.36 0 .93.42 1.62 1.26 2.07.54.3 1.69.66 3.44 1.07l4.55 1.07c1.99.47 3.49 1.1 4.48 1.88 1.54 1.22 2.32 2.98 2.32 5.29 0 2.37-.92 4.33-2.75 5.9s-4.42 2.35-7.75 2.35c-3.41 0-6.09-.77-8.05-2.31s-2.93-3.66-2.93-6.35h5.16z"/></svg>