<svg xmlns="http://www.w3.org/2000/svg" role="img" viewBox="102.00 118.38 84.24 21.37"><title>CERES logo</title><style>svg {enable-background:new 0 0 288 266.42}</style><path d="M106.13 122.29c1.39-1.42 3.16-2.13 5.31-2.13 2.88 0 4.98.95 6.31 2.86.73 1.07 1.13 2.14 1.18 3.22h-3.61c-.23-.83-.52-1.45-.88-1.88-.64-.75-1.6-1.12-2.86-1.12-1.29 0-2.3.53-3.04 1.59-.74 1.06-1.11 2.56-1.11 4.49s.39 3.39 1.17 4.35c.78.96 1.78 1.45 2.99 1.45 1.24 0 2.18-.41 2.83-1.24.36-.45.66-1.11.89-2h3.59c-.31 1.88-1.1 3.41-2.37 4.59s-2.9 1.77-4.89 1.77c-2.46 0-4.39-.8-5.8-2.39-1.41-1.6-2.11-3.8-2.11-6.59 0-3.01.8-5.34 2.4-6.97zm28.46 1.25h-9.14v3.67h8.39v3h-8.39v4.44h9.56v3.11h-13.09v-17.27h12.67v3.05zm14.3-2.61c.64.27 1.17.68 1.62 1.21.37.44.66.92.87 1.45s.32 1.14.32 1.82c0 .82-.21 1.63-.62 2.42s-1.1 1.35-2.05 1.68c.8.32 1.36.78 1.69 1.37s.5 1.49.5 2.7v1.16c0 .79.03 1.32.1 1.61.09.45.32.77.67.98v.43H148c-.11-.38-.19-.69-.23-.93-.09-.48-.14-.98-.15-1.49l-.02-1.61c-.01-1.1-.21-1.84-.57-2.2-.37-.37-1.05-.55-2.06-.55h-3.53v6.77h-3.53v-17.27h8.26c1.18.03 2.09.18 2.72.45zm-7.46 2.56v4.64h3.88c.77 0 1.35-.09 1.74-.28.68-.33 1.02-.98 1.02-1.95 0-1.05-.33-1.75-.99-2.11-.37-.2-.93-.3-1.67-.3h-3.98zm26.5.05h-9.14v3.67h8.39v3h-8.39v4.44h9.56v3.11h-13.09v-17.27h12.67v3.05zm5.84 8.89c.11.79.33 1.38.66 1.77.6.71 1.62 1.07 3.08 1.07.87 0 1.58-.09 2.12-.28 1.03-.36 1.54-1.03 1.54-2 0-.57-.25-1.01-.76-1.32-.5-.3-1.3-.57-2.4-.81l-1.87-.41c-1.84-.41-3.1-.85-3.79-1.32-1.16-.8-1.75-2.04-1.75-3.74 0-1.55.57-2.83 1.71-3.86s2.81-1.54 5.02-1.54c1.84 0 3.41.48 4.71 1.45 1.3.96 1.98 2.37 2.05 4.2h-3.47c-.06-1.04-.53-1.78-1.39-2.21-.58-.29-1.29-.43-2.15-.43-.95 0-1.71.19-2.28.56-.57.38-.85.9-.85 1.57 0 .62.28 1.08.84 1.38.36.2 1.12.44 2.29.71l3.03.71c1.33.31 2.32.73 2.99 1.25 1.03.81 1.54 1.99 1.54 3.53 0 1.58-.61 2.89-1.83 3.93s-2.94 1.56-5.17 1.56c-2.27 0-4.06-.51-5.37-1.54s-1.95-2.44-1.95-4.24h3.45z"/></svg>