<svg xmlns="http://www.w3.org/2000/svg" role="img" viewBox="3.77 1.15 128.96 81.08"><title>chirps logo</title><path fill="#484F5E" d="M72.6332 27.8422c-.052-.2776-.1214-.5725-.1908-.85-.0867-.3296-.2082-.6419-.347-.9541-.0173-.0347-.0347-.0868-.052-.1214-1.2143-2.6542-3.8684-4.545-6.9389-4.5971-2.6541-.052-5.0134 1.249-6.4532 3.244-.3122.4163-.5725.8847-.798 1.3704-.0173.0347-.0347.0694-.052.1214-.1388.3123-.2429.6245-.347.9541-.0867.2776-.1387.5551-.1908.8501-.052.2602-.0867.5377-.1041.8153-.0173.2255-.0173.4337-.0173.6592 0 .3643.0347.7286.1041 1.0755.052.3296.1214.6419.2081.9541.9368 3.2093 3.8685 5.6032 7.3553 5.6726 2.6541.052 5.0133-1.249 6.4532-3.244l-4.0246-1.4745c-.5725.5378-1.3184.85-2.099.8847-1.3531.0694-2.498-.6071-3.1052-1.8561-.1388-.2949-.2602-.6072-.3296-.9541h10.9808c.0347-.2256.0694-.4684.0868-.7113.0173-.2255.0173-.4337.0173-.6592-.052-.399-.0867-.798-.1561-1.1796zm-10.9808 0c.0867-.2949.1908-.5898.3296-.85.1908-.3643.4163-.6766.6939-.9541h.0173-.0173c.0347-.0347.0867-.0694.1214-.1041.5551-.4857 1.2317-.798 1.9602-.8327.9021-.052 1.7001.2602 2.3246.8327.0347.0347.0867.0694.1214.1214.2602.2602.4857.5898.6592.9541.1214.2602.2255.5378.3123.8501h-6.5226v-.0174zM21.979 10.8419c0-2.96635-1.8041-5.5164-4.3715-6.60928-.8673-.3643-1.8041-.57246-2.7929-.57246H6.34912l.01735 19.98414h4.35413v-5.6379h3.2266l2.7583 5.6379h4.7531l-3.2613-6.4879c2.2552-1.2143 3.7817-3.5909 3.7817-6.3145zm-4.3541 0c0 1.5613-1.2664 2.8277-2.8276 2.8277h-4.0767V8.01433h4.0767c1.5612 0 2.8276 1.26636 2.8276 2.82757z"/><path fill="#484F5E" d="M27.3915 17.2431v-1.5439l-3.695 3.3827 3.695 3.5389v-1.5439c3.5215 0 5.6205 3.0531 5.6205 6.1583 0 3.1051-2.1684 6.2624-5.6205 6.2624-3.7471 0-5.6206-3.1573-5.6206-6.2624h-4.3715c0 5.5164 4.4756 9.992 9.9921 9.992 5.5164 0 9.992-4.4756 9.992-9.992.0174-5.5338-4.4582-9.9921-9.992-9.9921zm92.0965 13.6002c-.485 1.4572-1.682 2.2898-3.018 2.3592-1.527.0694-2.776-.7979-3.331-2.3766-.121-.3469-.208-.7285-.243-1.1449-.017-.2255-.034-.451-.034-.6939 0-.104 0-.2255.017-.3296.035-.4163.104-.7979.243-1.1622.503-1.4052 1.683-2.3419 3.001-2.4113 1.526-.0694 2.775.8327 3.313 2.4286l4.285-.7633c-1.006-3.0878-3.886-5.3776-7.268-5.4297-3.539-.0694-6.54 2.2552-7.581 5.4297-.226.6766-.347 1.4052-.382 2.1511v.5378c.017.7459.156 1.4571.382 2.151 1.006 3.0879 3.886 5.3777 7.268 5.4297 3.539.0694 6.54-2.2551 7.581-5.4297l-4.233-.7459zm10.721-9.0552h-4.354v14.9013h4.354V21.7881zm-.312-2.9144h-3.661c-.19 0-.364-.1561-.364-.3643v-3.6429c0-.1908.156-.3643.364-.3643h3.661c.19 0 .364.1561.364.3643v3.6603c0 .1908-.174.3469-.364.3469zm-24.148 8.3268c-1.336-1.7001-4.649-2.8797-6.2622-3.4695-1.4398-.5204-1.9602-.9367-1.9429-1.648.0521-1.3531 1.3704-1.648 2.2552-1.648 1.9599 0 2.2549 2.0644 2.2549 2.0644l3.851-.9542s-.746-4.8745-6.7478-4.8745c-1.9429 0-4.0593 1.1449-5.1695 2.6021-.9888 1.301-1.1102 2.897-.4684 4.4929.8501 2.1337 2.6021 2.7756 4.3716 3.4174 1.3184.4857 3.0881.9715 4.1981 2.0817.538.5378.642 1.4572.26 2.2378-.399.85-1.526 1.4398-2.6193 1.4398-2.394 0-3.3654-2.151-3.4001-2.2378l-.1214-.2949-4.3369.8674.1041.3643c.0174.052.399 1.3531 1.5613 2.6715 1.0755 1.2143 3.0358 2.6715 6.3144 2.6715 2.7929 0 5.0129-1.197 6.2099-3.3654 1.128-2.0123 1.18-4.5277-.312-6.4185zm-57.5234-5.8634c-1.5786-.0347-3.2093.4163-4.0593 1.2143v-.7286h-4.3542v21.8403h4.3542v-7.8063c.7633.7286 2.3072 1.1622 3.7644 1.1969 4.4235.0868 7.546-3.5735 7.4767-7.9971-.0868-4.1807-3.0185-7.6328-7.1818-7.7195zm-.4511 11.9002c-2.0296.1041-3.5908-1.4745-3.6082-4.1633v-.1041c.0174-2.1858 1.5092-3.7817 3.2439-3.8685 2.0297-.104 3.6083 1.5786 3.6083 4.2675 0 2.3766-1.5092 3.7643-3.244 3.8684zm34.9721-11.8481c-2.602 0-3.8164 1.7173-3.8164 1.7173v-1.3184H74.871v14.9014h4.0592v-7.0083c0-2.446 1.1276-4.3889 3.1226-4.3889 1.9949 0 3.0704 1.7347 3.0704 4.3889v7.0083h4.1113v-8.3094c0-1.5959-.3816-6.9909-6.4879-6.9909z"/><path d="M29.82507 60.8495h4.90362c-.26738-2.60699-1.1316-4.42615-2.59266-5.45748-1.46106-1.02656-3.33752-1.54223-5.63415-1.54223-2.6977 0-4.8129.87377-6.34557 2.61653-1.53268 1.74754-2.29663 4.1922-2.29663 7.33394 0 2.78843.69233 5.05641 2.08176 6.79918 1.38467 1.74754 3.55238 2.6213 6.4936 2.6213 2.94121 0 5.16622-1.04565 6.66548-3.14175.94061-1.29871 1.46583-2.67383 1.57565-4.13011h-4.88452c-.10027.96449-.38675 1.74754-.85467 2.35393-.4727.6016-1.2653.90719-2.38258.90719-1.58042 0-2.65473-.76395-3.22292-2.28708-.31513-.81648-.4727-1.89556-.4727-3.23725 0-1.40854.15757-2.54014.4727-3.39004.59206-1.59952 1.69502-2.40167 3.3041-2.40167 1.1316 0 1.96717.36765 2.50194 1.10773.36765.5491.6016 1.16503.68755 1.8478zm-3.23724-7.05223zm24.59925.60638c-.92152-.39152-1.95285-.58728-3.07968-.58728-1.00746 0-1.96718.21008-2.87914.63026-.91197.4154-1.71412 1.16025-2.41123 2.22023V47.9244h-4.76515v24.65655h4.76515V62.6782c0-1.5661.32946-2.7741.98359-3.61922.65413-.84513 1.61385-1.2653 2.87914-1.2653 1.21755 0 2.04835.42495 2.48285 1.27485.339.60638.50612 1.39898.50612 2.38257v11.12983h4.88451V61.83786c0-1.63295-.0573-2.8123-.16711-3.53328-.1146-.72098-.42017-1.42286-.9263-2.10564-.59205-.80692-1.35123-1.40376-2.27275-1.79529zm12.74845-2.3014v-4.4166h-4.8511v4.4166zm-4.8511 2.18204v18.29665h4.8511V54.28429zm19.6479-.42973c-.06208-.00477-.13847-.00477-.22442-.00477-1.4324 0-2.59743.37243-3.49508 1.12205-.54909.44882-1.1889 1.2844-1.92897 2.50195v-3.1895h-4.56462v18.29665h4.81767v-8.74248c0-1.4706.18144-2.55446.55387-3.26112.6589-1.25097 1.95285-1.87646 3.87706-1.87646.14324 0 .33422.00478.56819.01433.23873.01432.50611.03342.80692.06684v-4.89884c-.21009-.01432-.34855-.0191-.41062-.02865zm14.85409 5.83469c.64458 1.08385.96926 2.33483.96926 3.74336 0 1.71412-.35333 3.08446-1.05043 4.11102-.70188 1.03133-1.71412 1.547-3.04626 1.547-.92152 0-1.71412-.25306-2.38735-.7544-1.12683-.86422-1.69502-2.3587-1.69502-4.48344 0-1.3417.17189-2.44943.50612-3.3232.64936-1.64727 1.83826-2.46852 3.57625-2.46852 1.44196 0 2.48762.54432 3.12743 1.62818zm3.67652-3.44256c-1.48016-1.57565-3.28977-2.36348-5.42884-2.36348-1.46583 0-2.73113.40585-3.79588 1.22232-.57774.45838-1.12683 1.08864-1.6425 1.88124v-2.70248H81.812v25.4969h4.7365V70.2461c.50134.7735 1.01701 1.36079 1.54223 1.76664.96449.72575 2.17249 1.08863 3.624 1.08863 2.2823 0 4.1492-.84512 5.60072-2.53537 1.44673-1.69024 2.17249-4.14444 2.17249-7.36736 0-3.0558-.74008-5.37154-2.22501-6.95196zm9.41093 10.49479h-4.8511c0 1.87646.68279 3.42346 2.05313 4.641 1.3751 1.21278 3.49508 1.81917 6.37422 1.81917 2.81707 0 4.90362-.57297 6.25008-1.7189 1.35124-1.14592 2.02448-2.62608 2.02448-4.44047 0-1.3751-.4727-2.52581-1.40854-3.44255-.95494-.9072-2.38258-1.58043-4.2829-2.02925-2.85528-.62549-4.51687-1.06953-4.9848-1.32737-.47269-.2435-.70665-.64458-.70665-1.1889 0-.43927.22441-.82125.66368-1.14593.44405-.3199 1.18413-.48224 2.22501-.48224 1.2653 0 2.15817.3199 2.68339.96926.2817.3581.4536.84513.52044 1.46106h4.78425c-.21009-2.23456-1.03611-3.8102-2.4733-4.72218-1.43718-.91196-3.29932-1.37034-5.58162-1.37034-2.40645 0-4.27336.6064-5.60073 1.82394-1.32259 1.21277-1.98627 2.66428-1.98627 4.35453 0 1.4324.42495 2.53059 1.27484 3.28976.8499.7735 2.31096 1.41332 4.38318 1.92898 2.87437.68279 4.53596 1.16503 4.98479 1.44674.44404.27693.66845.68755.66845 1.22232 0 .55864-.27693.97881-.8308 1.26052-.55386.27693-1.29871.42017-2.23933.42017-1.59952 0-2.6977-.3199-3.28977-.95971-.33423-.3581-.55386-.95971-.65413-1.80961zm3.65742-12.94421z"/></svg>