<svg xmlns="http://www.w3.org/2000/svg" role="img" viewBox="99.27 117.02 89.96 26.34"><title>CIMSpy logo</title><style>svg {enable-background:new 0 0 288 264}</style><path d="M103.47 121.08c1.39-1.42 3.16-2.13 5.31-2.13 2.88 0 4.98.95 6.31 2.86.73 1.07 1.13 2.14 1.18 3.22h-3.61c-.23-.83-.52-1.45-.88-1.88-.64-.75-1.6-1.12-2.86-1.12-1.29 0-2.3.53-3.04 1.59-.74 1.06-1.11 2.56-1.11 4.49s.39 3.39 1.17 4.35c.78.96 1.78 1.45 2.99 1.45 1.24 0 2.18-.41 2.83-1.24.36-.45.66-1.11.89-2h3.59c-.31 1.88-1.1 3.41-2.37 4.59s-2.9 1.77-4.89 1.77c-2.46 0-4.39-.8-5.8-2.39-1.41-1.6-2.11-3.8-2.11-6.59 0-3.01.8-5.34 2.4-6.97zm18.98 15.47h-3.59v-17.27h3.59v17.27zm14.83-17.28h5.19v17.27h-3.36v-11.68c0-.34 0-.81.01-1.41s.01-1.07.01-1.4l-3.27 14.5h-3.51l-3.25-14.5c0 .33 0 .79.01 1.4s.01 1.08.01 1.41v11.68h-3.36v-17.27h5.25l3.14 13.58 3.13-13.58zm11.14 11.94c.11.79.33 1.38.66 1.77.6.71 1.62 1.07 3.08 1.07.87 0 1.58-.09 2.12-.28 1.03-.36 1.54-1.03 1.54-2 0-.57-.25-1.01-.76-1.32-.5-.3-1.3-.57-2.4-.81l-1.87-.41c-1.84-.41-3.1-.85-3.79-1.32-1.16-.8-1.75-2.04-1.75-3.74 0-1.55.57-2.83 1.71-3.86s2.81-1.54 5.02-1.54c1.84 0 3.41.48 4.71 1.45 1.3.96 1.98 2.37 2.05 4.2h-3.47c-.06-1.04-.53-1.78-1.39-2.21-.58-.29-1.29-.43-2.15-.43-.95 0-1.71.19-2.28.56-.57.38-.85.9-.85 1.57 0 .62.28 1.08.84 1.38.36.2 1.12.44 2.29.71l3.03.71c1.33.31 2.32.73 2.99 1.25 1.03.81 1.54 1.99 1.54 3.53 0 1.58-.61 2.89-1.83 3.93s-2.94 1.56-5.17 1.56c-2.27 0-4.06-.51-5.37-1.54s-1.95-2.44-1.95-4.24h3.45zm23.88-6.07c1.04 1.1 1.56 2.72 1.56 4.85 0 2.25-.51 3.96-1.53 5.14s-2.33 1.77-3.93 1.77c-1.02 0-1.87-.25-2.55-.76-.37-.28-.73-.69-1.08-1.23v6.66h-3.3v-17.8h3.2v1.89c.36-.55.75-.99 1.16-1.31.75-.57 1.63-.86 2.67-.86 1.48 0 2.75.55 3.8 1.65zm-2.57 2.41c-.45-.76-1.19-1.14-2.21-1.14-1.22 0-2.06.57-2.52 1.72-.24.61-.36 1.38-.36 2.32 0 1.48.4 2.53 1.19 3.13.47.35 1.03.53 1.68.53.94 0 1.66-.36 2.15-1.08s.74-1.68.74-2.87c.01-.98-.21-1.86-.67-2.61zm6.99 11.45l.42.02c.33.02.64 0 .94-.04s.55-.13.75-.27c.2-.13.38-.41.54-.83s.24-.68.22-.77l-4.69-13.34h3.71l2.79 9.42 2.64-9.42h3.55l-4.38 12.56c-.85 2.42-1.52 3.92-2.01 4.51s-1.48.87-2.96.87c-.3 0-.54 0-.72-.01s-.45-.02-.81-.04V139z"/></svg>