<svg xmlns="http://www.w3.org/2000/svg" role="img" viewBox="-1.03 -1.03 53.82 11.07"><title>CircuMat logo</title><g transform="translate(-.674 8.883)"><path d="M7.91016-.63281q-.32227.14062-.58594.26367-.25781.12305-.67969.25781-.35742.11133-.7793.1875-.41601.08203-.91992.08203-.94922 0-1.72851-.26367Q2.44336-.375 1.86914-.94336 1.30664-1.5.99024-2.35546.67382-3.2168.67382-4.35353q0-1.07812.30469-1.92773.30468-.8496.8789-1.43555.55664-.56836 1.3418-.86718.79101-.29883 1.75195-.29883.70313 0 1.4004.16992.70312.16992 1.55859.59766v1.37695h-.0879q-.7207-.60352-1.42968-.8789-.70899-.2754-1.51758-.2754-.6621 0-1.19531.2168-.52735.21094-.94336.6621-.4043.43946-.63281 1.11329-.22266.66797-.22266 1.54687 0 .91993.2461 1.58204.25195.6621.64452 1.07812.41016.4336.95508.64453.55078.20508 1.16016.20508.83789 0 1.57031-.2871.73242-.28712 1.3711-.86134h.08203z"/><path d="M10.64648-7.64063H9.4043V-8.7832h1.24218zM10.57618 0H9.4746v-6.54492h1.10156z"/><path d="M16.83984-5.34375h-.05859q-.24609-.0586-.48046-.08203-.22852-.0293-.54493-.0293-.50976 0-.98437.22852-.47461.22265-.91406.58008V0h-1.10157v-6.54492h1.10157v.9668q.65625-.52735 1.1543-.74415.5039-.22265 1.02538-.22265.28711 0 .41602.01758.1289.01172.38672.05273z"/><path d="M22.7168-.41016Q22.16602-.14648 21.66797 0q-.49219.14648-1.04883.14648-.70898 0-1.30078-.20507-.5918-.21094-1.01367-.63282-.42774-.42187-.66211-1.0664-.23438-.64453-.23438-1.50586 0-1.60547.8789-2.51953.88477-.91407 2.33204-.91407.5625 0 1.10156.1582.54492.15821.9961.38673v1.2246h-.0586q-.5039-.39257-1.04296-.60351-.5332-.21094-1.04297-.21094-.9375 0-1.48242.63281-.53906.62696-.53906 1.8457 0 1.1836.52734 1.82227.5332.63282 1.49414.63282.33398 0 .67969-.0879.3457-.08788.6211-.22851.24023-.12305.45116-.25781.21094-.14063.33399-.24024h.05859z"/><path d="M29.55469 0h-1.10156v-.72656q-.55665.43945-1.06641.67383-.50977.23437-1.125.23437-1.03125 0-1.60547-.62695-.57422-.63282-.57422-1.85157v-4.24804h1.10156v3.72656q0 .49805.04687.85547.04687.35156.19922.60351.1582.25782.41016.375.25195.1172.73242.1172.42773 0 .93164-.22266.50977-.22266.94922-.56836v-4.88672h1.10156z"/><path d="M39.58008 0h-1.16016v-7.51758l-2.42578 5.11524h-.6914l-2.4082-5.11524V0h-1.084v-8.7246h1.58204l2.32617 4.85741 2.25-4.85742h1.61133z"/><path d="M46.92188 0h-1.0957v-.69727q-.1465.09961-.39845.28125-.24609.17579-.48046.28125-.2754.13477-.63282.22266-.35742.09375-.83789.09375-.88476 0-1.5-.58594-.61523-.58593-.61523-1.49414 0-.74414.3164-1.20117.32227-.46289.91407-.72656.59765-.26367 1.43554-.35742.8379-.09375 1.79883-.14063v-.16992q0-.375-.13476-.6211-.12891-.24609-.375-.38671-.23438-.13477-.5625-.18164-.32813-.04688-.68555-.04688-.4336 0-.9668.11719-.5332.11133-1.10156.32812h-.05859V-6.4043q.32227-.08789.93164-.19336.60938-.10547 1.20117-.10547.6914 0 1.20117.1172.51563.11132.89063.38671.36914.26953.5625.69727.19336.42773.19336 1.06054zm-1.0957-1.61133v-1.82226q-.50391.0293-1.18946.08789-.67969.0586-1.07813.16992-.4746.13476-.76757.42187-.29297.28125-.29297.7793 0 .5625.33984.84961.33984.28125 1.03711.28125.58008 0 1.06055-.22266.48047-.22851.89062-.54492z"/><path d="M52.4414-.0586q-.31054.08204-.67968.13477-.36328.05274-.6504.05274-1.00194 0-1.52343-.53907-.52148-.53906-.52148-1.72851v-3.48047h-.74414v-.92578h.74414v-1.88086h1.10156v1.88086h2.27344v.92578h-2.27344v2.98242q0 .51563.02344.8086.02344.2871.16406.53906.1289.23437.35156.3457.22852.10547.69141.10547.26953 0 .5625-.07617.29297-.08203.42188-.13477h.05858z"/></g></svg>