<svg xmlns="http://www.w3.org/2000/svg" role="img" viewBox="-8.95 -8.95 465.40 286.40"><title>Climatemind logo</title><style>svg {fill:#fff}</style><g id="g1332" fill="#006080" fill-opacity="1"><g id="g1190" transform="translate(0 214.825)"><path id="path1168" d="M55.493 402.28c0-15.361 11.456-26.225 25.907-26.225a25.014 25.014 0 0 1 12.354 2.845c2.171 1.2 3.369 2.473 3.369 4.5a3.6 3.6 0 0 1-3.744 3.672 7.112 7.112 0 0 1-3.294-1.05 18.891 18.891 0 0 0-8.386-1.948c-10.333 0-16.922 8.018-16.922 18.208 0 10.04 6.439 18.058 17 18.058a21.149 21.149 0 0 0 8.835-1.948 8.619 8.619 0 0 1 3.594-1.274 3.618 3.618 0 0 1 3.744 3.747 4.51 4.51 0 0 1-2.1 3.672c-2.7 2.023-7.638 3.971-14.077 3.971-15.498-.002-26.28-11.092-26.28-26.228z" transform="translate(-55.493 -374.331)"/><path id="path1170" d="M124.182 423.127v-45.033a4.332 4.332 0 0 1 4.268-4.346 4.284 4.284 0 0 1 4.268 4.346v45.034a4.336 4.336 0 0 1-4.193 4.421 4.412 4.412 0 0 1-4.343-4.422z" transform="translate(-72.894 -373.748)"/><path id="path1172" d="M151.046 382.555a4.867 4.867 0 1 1 4.867 4.8 4.75 4.75 0 0 1-4.867-4.8zm.6 41.587V398.59a4.267 4.267 0 0 1 4.268-4.271 4.221 4.221 0 0 1 4.268 4.271v25.551a4.349 4.349 0 0 1-4.268 4.421 4.4 4.4 0 0 1-4.269-4.421z" transform="translate(-79.7 -374.762)"/><path id="path1174" d="M229.739 411.207v18.358a4.271 4.271 0 1 1-8.536 0v-16.558c0-4.721-2.7-6.22-5.541-6.22s-5.242 1.8-6.813 4.645v18.134a4.271 4.271 0 1 1-8.536 0v-16.635c0-4.646-2.7-6.144-5.466-6.144-2.92 0-5.316 1.8-6.889 4.8v17.983a4.349 4.349 0 0 1-4.268 4.421 4.4 4.4 0 0 1-4.268-4.421v-25.481a4.332 4.332 0 0 1 4.268-4.346 4.284 4.284 0 0 1 4.268 4.346v.15a11.957 11.957 0 0 1 9.808-5.021c3.894 0 7.787 1.648 9.734 5.62 2.995-3.821 6.439-5.62 11.007-5.62 5.766.001 11.232 3.448 11.232 11.989z" transform="translate(-86.889 -380.186)"/><path id="path1176" d="M288.566 410.484v19.332a4.082 4.082 0 1 1-8.162 0c-3.294 2.922-6.888 4.571-10.707 4.571-5.99 0-10.033-4.2-10.033-9.366 0-4.72 2.846-7.568 7.638-9.292 3.893-1.349 8.91-1.8 13.1-2.248v-2.1c0-3.3-2.021-4.645-5.99-4.645a14.106 14.106 0 0 0-5.766 1.2 10.273 10.273 0 0 1-2.62.674 3.428 3.428 0 0 1-3.594-3.447 3.825 3.825 0 0 1 2.247-3.447 25.724 25.724 0 0 1 10.782-2.4c8.088.003 13.105 4.05 13.105 11.168zm-16.323 17.009a14.45 14.45 0 0 0 8.161-3.222v-5.395c-2.621.374-5.316.749-7.413 1.274-3.594.824-5.016 2.023-5.016 3.971 0 2.023 1.647 3.372 4.268 3.372z" transform="translate(-107.216 -380.212)"/><path id="path1178" d="M337.232 427.218c0 1.574-.974 2.623-2.621 3.448a17.333 17.333 0 0 1-8.161 1.873c-7.862 0-11.681-3.971-11.681-10.64v-16.335h-2.995a2.549 2.549 0 0 1-2.7-2.473 3.084 3.084 0 0 1 1.348-2.4l7.862-6.744a3.6 3.6 0 0 1 2.545-1.349c1.273 0 2.471.9 2.471 3v2.7h9.734a3.634 3.634 0 1 1 0 7.268H323.3v14.911c0 2.848 1.647 4.421 4.343 4.421a10.013 10.013 0 0 0 3.743-.749 8.148 8.148 0 0 1 2.321-.6 3.505 3.505 0 0 1 3.525 3.669z" transform="translate(-119.735 -378.513)"/><path id="path1180" d="M387.136 414.155a4.529 4.529 0 0 1-.974 3.147c-.824.974-2.1 1.2-4.043 1.2h-18.868c.9 5.47 5.092 8.392 10.707 8.392a16.839 16.839 0 0 0 5.316-.974 11.18 11.18 0 0 1 2.695-.525 3.373 3.373 0 0 1 3.37 3.447 3.867 3.867 0 0 1-2.471 3.522 22.42 22.42 0 0 1-9.584 2.023c-10.482 0-18.419-6.969-18.419-17.609 0-10.04 7.113-17.459 17.071-17.459 9.584 0 15.2 7.119 15.2 14.836zm-7.638-1.123c-.075-3.822-2.995-7.044-7.712-7.044-4.343 0-7.338 2.623-8.311 7.044z" transform="translate(-131.334 -380.212)"/><path id="path1182" d="M492.549 381.951v41.812a4.418 4.418 0 1 1-8.835 0v-31.322l-11.081 17.983c-1.273 2.1-2.92 3.222-4.942 3.222-1.947 0-3.518-1.049-4.941-3.147l-11.007-17.683v30.946a4.414 4.414 0 0 1-4.493 4.5 4.337 4.337 0 0 1-4.343-4.5v-41.736a5.251 5.251 0 0 1 5.166-5.47c2.546 0 4.119.974 5.691 3.522l14.151 23.753 14-23.753c1.5-2.473 3.07-3.522 5.316-3.522a5.261 5.261 0 0 1 5.318 5.395z" transform="translate(-153.638 -374.458)"/><path id="path1184" d="M526.808 382.555a4.868 4.868 0 1 1 4.867 4.8 4.75 4.75 0 0 1-4.867-4.8zm.6 41.587V398.59a4.267 4.267 0 0 1 4.267-4.271 4.221 4.221 0 0 1 4.268 4.271v25.551a4.349 4.349 0 0 1-4.268 4.421 4.4 4.4 0 0 1-4.267-4.421z" transform="translate(-174.893 -374.762)"/><path id="path1186" d="M585.959 411.383v18.208a4.387 4.387 0 0 1-4.193 4.421 4.463 4.463 0 0 1-4.343-4.421v-16.41c0-3.971-2.171-6.444-5.99-6.444-3.145 0-5.915 1.873-7.712 5.245v17.609a4.4 4.4 0 0 1-4.268 4.421 4.349 4.349 0 0 1-4.268-4.421V404.04a4.221 4.221 0 0 1 4.268-4.271 4.267 4.267 0 0 1 4.268 4.271v.449a13.374 13.374 0 0 1 10.482-5.17c6.365 0 11.756 4.271 11.756 12.064z" transform="translate(-182.082 -380.212)"/><path id="path1188" d="M643.934 423.278a4.2 4.2 0 0 1-4.193 4.271 4.158 4.158 0 0 1-4.193-4.271v-.225a12.791 12.791 0 0 1-9.809 4.87c-9.434 0-15.873-8.092-15.873-17.534 0-9.517 6.439-17.534 15.873-17.534a13.762 13.762 0 0 1 9.584 3.522v-18.283a4.331 4.331 0 0 1 4.267-4.346 4.285 4.285 0 0 1 4.269 4.346zm-8.611-7.268v-11.54a8.975 8.975 0 0 0-7.638-4.046c-4.867 0-9.06 4.046-9.06 9.966 0 5.845 4.193 9.89 9.06 9.89a9.02 9.02 0 0 0 7.639-4.271z" transform="translate(-195.934 -373.748)"/></g><g id="g1330" transform="translate(134.022)"><path id="path1192" d="M358.108 276.127c-9.047 0-17.533-.969-20.837-2.324-4.26-1.745-17.222-7.056-17.486-24.141a4.051 4.051 0 0 1 3.987-4.115h.064a4.052 4.052 0 0 1 4.048 3.991c.128 8.225 3.853 13.239 12.456 16.763 6.7 2.746 35.489 2.191 39.54-1.55 2.964-2.738 4.43-17.94 5.135-25.246.512-5.3.915-9.489 1.614-11.935 1.6-5.6 7.737-7.363 13.153-8.923 2.238-.643 6.353-1.828 7.044-2.851a24.172 24.172 0 0 0-1.966-4.415c-3.568-7.022-10.21-20.091-13.254-48.738-4.779-44.958-46.753-62.965-47.176-63.134-10.623-4.252-47.932-15.474-82.006 18.625a64.909 64.909 0 0 0-19.045 39.466 45.144 45.144 0 0 0 15.677 39.626 42.49 42.49 0 0 0 39.76 8.62c8.962-2.574 15.568-7.489 18.128-13.484a12.115 12.115 0 0 0-.37-10.7 4.051 4.051 0 1 1 7.172-3.769 20.246 20.246 0 0 1 .647 17.66c-3.522 8.247-12.03 14.841-23.343 18.091a50.466 50.466 0 0 1-47.227-10.223 53.237 53.237 0 0 1-18.494-46.729A72.832 72.832 0 0 1 256.7 112.4c16.6-16.62 35.92-25.4 57.407-26.106a84.118 84.118 0 0 1 33.331 5.688c13.015 5.21 47.769 27.907 52.222 69.8 2.887 27.162 9.089 39.365 12.421 45.921 2.211 4.353 3.958 7.791 2.037 11.635-2.11 4.223-7.187 5.685-12.1 7.1-2.529.728-7.238 2.082-7.6 3.357a87.13 87.13 0 0 0-1.34 10.487c-1.4 14.5-2.855 25.944-7.7 30.424-4.301 3.972-16.206 5.421-27.27 5.421z" transform="translate(-234.986 -86.25)"/><g id="g1196" transform="translate(21.324 18.188)"><path id="path1194" fill="#006080" fill-opacity="1" d="M329.48 182.286c.314.146.826.361 1.261.533.455.18.92.354 1.389.52.937.333 1.891.636 2.849.907a41.336 41.336 0 0 0 5.805 1.212 24.272 24.272 0 0 0 11.1-.814 15.261 15.261 0 0 0 8.046-6.521 29.126 29.126 0 0 0 3.732-10.906 3.585 3.585 0 0 1 .782-1.728l.026-.031.368-.442.409-.525c.272-.359.538-.729.8-1.107.517-.755 1-1.537 1.449-2.336a27.341 27.341 0 0 0 2.177-4.968 19.879 19.879 0 0 0 .936-5.146 15.848 15.848 0 0 0-.093-2.55c-.049-.421-.111-.839-.2-1.252-.065-.4-.2-.9-.3-1.333a16.378 16.378 0 0 0-5.132-8.812 23.671 23.671 0 0 0-9.7-4.654l-.073-.019a2.742 2.742 0 0 1-1.758-1.4c-.088-.172-.267-.484-.417-.732s-.326-.528-.5-.791c-.341-.528-.715-1.042-1.092-1.55a28.937 28.937 0 0 0-2.485-2.871 22.426 22.426 0 0 0-5.971-4.4 17.488 17.488 0 0 0-6.983-1.843 20.908 20.908 0 0 0-7.317 1.061l-.054.017a2.393 2.393 0 0 1-2.085-.315c-.388-.272-.934-.612-1.427-.9-.508-.3-1.028-.578-1.555-.845a29.587 29.587 0 0 0-3.241-1.409 20.58 20.58 0 0 0-6.71-1.329 12.463 12.463 0 0 0-6.267 1.5 14.382 14.382 0 0 0-4.811 4.545l-.015.022a2.042 2.042 0 0 1-1.661.876 35.551 35.551 0 0 0-4.012.271 39.3 39.3 0 0 0-4.024.7 27.4 27.4 0 0 0-7.491 2.812 15.09 15.09 0 0 0-5.549 5.213 14.423 14.423 0 0 0-1.97 7.358 1.648 1.648 0 0 1-.585 1.233 39.283 39.283 0 0 0-6.671 7.219 23.251 23.251 0 0 0-4.025 8.748 13.464 13.464 0 0 0 1.319 9.136 21.833 21.833 0 0 0 6.579 7.1 1.114 1.114 0 0 1 .449 1.024 19.494 19.494 0 0 0 .025 4.252 17.979 17.979 0 0 0 .953 4.175 13.179 13.179 0 0 0 5.051 6.63 14.618 14.618 0 0 0 3.862 1.836 20.18 20.18 0 0 0 4.269.87 30.258 30.258 0 0 0 8.8-.35 15.8 15.8 0 0 0 7.783-3.773 13.845 13.845 0 0 0 4.026-7.674 21.6 21.6 0 0 0-.338-8.89 22.128 22.128 0 0 0-1.478-4.248 13.178 13.178 0 0 0-2.508-3.729 13.246 13.246 0 0 1 2.644 3.662 22.329 22.329 0 0 1 1.636 4.238 22.05 22.05 0 0 1 .642 9.067 14.618 14.618 0 0 1-3.989 8.225 16.868 16.868 0 0 1-8.16 4.31 30.472 30.472 0 0 1-9.2.651 21.7 21.7 0 0 1-4.6-.823 16.207 16.207 0 0 1-4.331-1.935 14.677 14.677 0 0 1-3.565-3.211 16.113 16.113 0 0 1-2.36-4.17 19.955 19.955 0 0 1-1.174-4.605 21.41 21.41 0 0 1-.134-4.784l.45 1.023a24.081 24.081 0 0 1-7.451-7.706 15.908 15.908 0 0 1-1.867-5.226 16.67 16.67 0 0 1 .037-5.555 26 26 0 0 1 4.245-9.931 41.066 41.066 0 0 1 3.267-4.219 40.407 40.407 0 0 1 3.8-3.8l-.584 1.232a17.722 17.722 0 0 1 2.224-9.076 18.581 18.581 0 0 1 6.639-6.6 31.1 31.1 0 0 1 8.426-3.419 43.2 43.2 0 0 1 4.4-.878 38.8 38.8 0 0 1 4.533-.412l-1.676.9a18.49 18.49 0 0 1 6.067-5.972 16.787 16.787 0 0 1 8.348-2.252 25.019 25.019 0 0 1 8.234 1.4 34.1 34.1 0 0 1 3.795 1.538q.923.438 1.82.932c.614.341 1.162.654 1.828 1.094l-2.138-.3a25.788 25.788 0 0 1 9.037-1.522 22.6 22.6 0 0 1 9.055 2.143 27.712 27.712 0 0 1 7.513 5.236 34.576 34.576 0 0 1 3.046 3.346c.465.593.921 1.193 1.351 1.82.216.313.428.63.635.956s.394.624.636 1.063l-1.832-1.422a29.318 29.318 0 0 1 12.206 5.585 20.879 20.879 0 0 1 4.635 5.349 25.537 25.537 0 0 1 2.685 6.36c.149.552.29 1.029.414 1.633.138.579.241 1.164.326 1.753a22.167 22.167 0 0 1 .22 3.539 26.3 26.3 0 0 1-1.06 6.861 33.9 33.9 0 0 1-2.554 6.262q-.782 1.485-1.695 2.893c-.3.471-.62.934-.951 1.4l-.511.691c-.186.242-.335.436-.593.743l.808-1.759a43.277 43.277 0 0 1-1.466 6.913 30.182 30.182 0 0 1-2.917 6.738 23.551 23.551 0 0 1-4.9 5.881 22.679 22.679 0 0 1-6.667 3.929 31.741 31.741 0 0 1-14.579 1.542 49.116 49.116 0 0 1-6.955-1.269q-1.7-.436-3.374-.983c-.558-.182-1.114-.374-1.673-.579-.578-.215-1.073-.4-1.752-.694a4.054 4.054 0 0 1 3.214-7.444l.089.04z" transform="translate(-263.545 -110.592)"/></g><g id="g1200" transform="translate(47.42 35.257)"><path id="path1198" fill="#006080" fill-opacity="1" d="M298.9 137.289a.405.405 0 0 1-.273-.7c.063-.058 6.383-5.678 15.6-1.768a.406.406 0 0 1-.317.747c-8.726-3.7-14.682 1.567-14.742 1.621a.4.4 0 0 1-.268.1z" transform="translate(-298.495 -133.434)"/></g><g id="g1204" transform="translate(67.091 76.746)"><path id="path1202" fill="#006080" fill-opacity="1" d="M338.226 192.813a.407.407 0 0 1-.2-.053c-7.553-4.329-12.6-2.666-12.647-2.649a.405.405 0 0 1-.264-.767c.218-.075 5.445-1.8 13.314 2.712a.405.405 0 0 1-.2.757z" transform="translate(-324.84 -188.959)"/></g><g id="g1208" transform="translate(101.493 81.906)"><path id="path1206" fill="#006080" fill-opacity="1" d="M381.623 199.229a.4.4 0 0 1-.1-.012l-10.3-2.554a.405.405 0 0 1 .195-.787l10.3 2.554a.405.405 0 0 1-.1.8z" transform="translate(-370.914 -195.865)"/></g><g id="g1212" transform="translate(108.81 74.865)"><path id="path1210" fill="#006080" fill-opacity="1" d="M386.332 204a.405.405 0 0 1-.387-.285l-5.212-16.748a.405.405 0 1 1 .773-.242l5.213 16.749a.405.405 0 0 1-.267.507.4.4 0 0 1-.12.019z" transform="translate(-380.714 -186.442)"/></g><g id="g1216" transform="translate(106.78 72.833)"><ellipse id="ellipse1214" cx="2.435" cy="2.437" fill="#006080" fill-opacity="1" rx="2.435" ry="2.437"/></g><g id="g1220" transform="translate(46.109 74.847)"><path id="path1218" fill="#006080" fill-opacity="1" d="M297.145 210.866h-.045a.4.4 0 0 1-.358-.448l2.621-23.638a.405.405 0 0 1 .806.09l-2.622 23.638a.4.4 0 0 1-.402.358z" transform="translate(-296.74 -186.418)"/></g><g id="g1224" transform="translate(46.7 72.816)"><ellipse id="ellipse1222" cx="2.435" cy="2.437" fill="#006080" fill-opacity="1" rx="2.435" ry="2.437"/></g><g id="g1228" transform="translate(60.563 34.576)"><ellipse id="ellipse1226" cx="2.435" cy="2.437" fill="#006080" fill-opacity="1" rx="2.435" ry="2.437"/></g><g id="g1232" transform="translate(79.231 78.076)"><ellipse id="ellipse1230" cx="2.435" cy="2.437" fill="#006080" fill-opacity="1" rx="2.435" ry="2.437"/></g><g id="g1236" transform="translate(33.043 46.408)"><path id="path1234" fill="#006080" fill-opacity="1" d="M303.308 161.806a.405.405 0 0 1-.348-.2c-4.714-7.939-10.771-10.829-15.021-11.856a19.953 19.953 0 0 0-8.2-.33.406.406 0 0 1-.179-.791c.146-.034 14.773-3.147 24.1 12.564a.405.405 0 0 1-.348.613z" transform="translate(-279.241 -148.358)"/></g><g id="g1240" transform="translate(54.676 57.014)"><ellipse id="ellipse1238" cx="2.435" cy="2.437" fill="#006080" fill-opacity="1" rx="2.435" ry="2.437"/></g><g id="g1244" transform="translate(70.957 57.26)"><path id="path1242" fill="#006080" fill-opacity="1" d="M332.49 183.488a.4.4 0 0 1-.337-.18 14.916 14.916 0 0 1-1.986-5.9c-.441-3.318-.106-8.5 4-14.353a.405.405 0 0 1 .663.466c-3.941 5.618-4.275 10.572-3.862 13.74a14.382 14.382 0 0 0 1.862 5.6.4.4 0 0 1-.337.63z" transform="translate(-330.018 -162.881)"/></g><g id="g1248" transform="translate(72.998 55.229)"><ellipse id="ellipse1246" cx="2.435" cy="2.437" fill="#006080" fill-opacity="1" rx="2.435" ry="2.437"/></g><g id="g1252" transform="translate(112.785 50.023)"><path id="path1250" fill="#006080" fill-opacity="1" d="M397.932 157.031a24.249 24.249 0 0 1-11.683-3.076.405.405 0 1 1 .391-.711 22.5 22.5 0 0 0 14.573 2.682.405.405 0 1 1 .182.79 16.568 16.568 0 0 1-3.463.315z" transform="translate(-386.038 -153.195)"/></g><g id="g1256" transform="translate(109.762 47.179)"><ellipse id="ellipse1254" cx="2.435" cy="2.437" fill="#006080" fill-opacity="1" rx="2.435" ry="2.437"/></g><g id="g1260" transform="translate(91.705 29.443)"><path id="path1258" fill="#006080" fill-opacity="1" d="M364.858 140.428a.384.384 0 0 1-.071-.006.405.405 0 0 1-.329-.469c1.789-10.181-6.061-13.384-6.4-13.516a.405.405 0 1 1 .294-.755c.087.034 8.805 3.562 6.9 14.412a.4.4 0 0 1-.394.334z" transform="translate(-357.805 -125.654)"/></g><g id="g1264" transform="translate(96.451 42.653)"><ellipse id="ellipse1262" cx="2.435" cy="2.437" fill="#006080" fill-opacity="1" rx="2.435" ry="2.437"/></g><g id="g1268" transform="translate(99.463 79.874)"><ellipse id="ellipse1266" cx="2.435" cy="2.437" fill="#006080" fill-opacity="1" rx="2.435" ry="2.437"/></g><g id="g1272" transform="translate(47.058 82.228)"><path id="path1270" fill="#006080" fill-opacity="1" d="M298.416 204.805a.405.405 0 0 1-.264-.714l8.994-7.7a.405.405 0 0 1 .527.616l-9 7.7a.4.4 0 0 1-.257.098z" transform="translate(-298.011 -196.295)"/></g><g id="g1276" transform="translate(54.023 80.196)"><ellipse id="ellipse1274" cx="2.435" cy="2.437" fill="#006080" fill-opacity="1" rx="2.435" ry="2.437"/></g><g id="g1280" transform="translate(38.465 33.225)"><path id="path1278" fill="#006080" fill-opacity="1" d="M312.24 145.886a.408.408 0 0 1-.2-.052l-25.334-14.36a.405.405 0 0 1 .4-.705l25.334 14.36a.405.405 0 0 1-.2.758z" transform="translate(-286.502 -130.715)"/></g><g id="g1284" transform="translate(61.768 45.553)"><ellipse id="ellipse1282" cx="2.435" cy="2.437" fill="#006080" fill-opacity="1" rx="2.435" ry="2.437"/></g><g id="g1288" transform="translate(91.207 53.037)"><path id="path1286" fill="#006080" fill-opacity="1" d="M357.543 162.777a.405.405 0 0 1-.057-.806l32.279-4.737a.405.405 0 1 1 .116.8l-32.281 4.739a.4.4 0 0 1-.057.004z" transform="translate(-357.138 -157.229)"/></g><g id="g1292" transform="translate(89.177 55.742)"><ellipse id="ellipse1290" cx="2.435" cy="2.437" fill="#006080" fill-opacity="1" rx="2.435" ry="2.437"/></g><g id="g1296" transform="translate(82.507 23.887)"><path id="path1294" fill="#006080" fill-opacity="1" d="M345.892 134.186a.405.405 0 0 1-.293-.686l14.52-15.158a.406.406 0 0 1 .586.561l-14.521 15.159a.407.407 0 0 1-.292.124z" transform="translate(-345.487 -118.218)"/></g><g id="g1300" transform="translate(80.477 37.013)"><ellipse id="ellipse1298" cx="2.435" cy="2.437" fill="#006080" fill-opacity="1" rx="2.435" ry="2.437"/></g><g id="g1304" transform="translate(24.181 61.979)"><path id="path1302" fill="#006080" fill-opacity="1" d="M276.511 173.152a.4.4 0 0 1-.137-.024l-8.734-3.145a.405.405 0 1 1 .274-.763l8.734 3.145a.405.405 0 0 1-.137.787z" transform="translate(-267.372 -169.196)"/></g><g id="g1308" transform="translate(30.886 63.092)"><ellipse id="ellipse1306" cx="2.435" cy="2.437" fill="#006080" fill-opacity="1" rx="2.435" ry="2.437"/></g><g id="g1312" transform="translate(102.182 55.629)"><path id="path1310" fill="#006080" fill-opacity="1" d="M372.242 170.479a.406.406 0 0 1-.376-.557l3.636-8.97a.4.4 0 1 1 .75.3l-3.636 8.969a.4.4 0 0 1-.374.258z" transform="translate(-371.837 -160.698)"/></g><g id="g1316" transform="translate(100.152 62.568)"><ellipse id="ellipse1314" cx="2.435" cy="2.437" fill="#006080" fill-opacity="1" rx="2.435" ry="2.437"/></g><g id="g1320" transform="translate(40.952 46.894)"><path id="path1318" fill="#006080" fill-opacity="1" d="M292.345 159.908a.4.4 0 0 1-.395-.322l-2.109-10.09a.4.4 0 1 1 .792-.166l2.109 10.09a.4.4 0 0 1-.313.48.41.41 0 0 1-.084.008z" transform="translate(-289.832 -149.008)"/></g><g id="g1324" transform="translate(41.03 54.952)"><ellipse id="ellipse1322" cx="2.435" cy="2.437" fill="#006080" fill-opacity="1" rx="2.435" ry="2.437"/></g><g id="g1328" transform="translate(20.139 128.267)"><path id="path1326" fill="#006080" fill-opacity="1" d="M266 257.909a31.268 31.268 0 0 1 6.137 5.893 41.656 41.656 0 0 1 4.689 7.179 37.409 37.409 0 0 1 4.293 17.048 29.268 29.268 0 0 1-5.389 17.166 28.324 28.324 0 0 1-6.209 6.268 27.973 27.973 0 0 1-3.643 2.305 30.484 30.484 0 0 1-3.921 1.689c3.366-4.589 6.345-8.89 8.253-13.445a35.3 35.3 0 0 0 2.81-14 57.929 57.929 0 0 0-2.111-14.731c-1.293-5.01-3.032-10.03-4.909-15.372z" transform="translate(-261.958 -257.909)"/></g></g></g></svg>