<svg xmlns="http://www.w3.org/2000/svg" role="img" xmlns:xlink="http://www.w3.org/1999/xlink" viewBox="-3.40 -3.40 176.67 84.55"><title>Climate Watch logo</title><defs><path id="a" d="M.21.077h24.238v28.298H.21z"/></defs><g fill="none" fill-rule="evenodd"><path fill="#F3B229" d="M16.513 4.92l-3.267 3.266 3.078 3.078 3.267-3.267-3.078-3.078m21.845 28.379l11.81 11.809 3.266-3.267-11.81-11.81-3.266 3.268M12.821 16.4l3.267 3.267L29.132 6.623l4.647 4.647 3.267-3.267L29.132.09 12.822 16.4m34.26.006l3.267 3.267 3.085-3.085-3.267-3.267-3.085 3.085M13.246 50.243l3.267 3.267L28.322 41.7l-3.267-3.267-11.809 11.809m16.709-16.708l3.267 3.267 12.227-12.228-3.267-3.266-12.227 12.227"/><path fill="#F3B229" d="M38.68 16.17l13.049 13.05-4.64 4.642 3.266 3.266 7.908-7.907-16.317-16.317-3.267 3.266M4.843 41.84l3.266 3.266 3.072-3.07-3.267-3.267-3.071 3.07m25.112-25.111l3.267 3.266L45.03 8.185l-3.267-3.267-11.81 11.81M0 29.221l16.317 16.317 3.267-3.267-13.05-13.05 4.654-4.654L7.92 21.3 0 29.221m21.224-13.057l12.234 12.233 3.266-3.266-12.233-12.234-3.267 3.267m17.461 34.268l3.079 3.078 3.267-3.267-3.079-3.078-3.267 3.267M4.843 16.59l11.808 11.807 3.267-3.266L8.11 13.323l-3.267 3.266"/><g transform="translate(21.007 29.954)"><mask id="b" fill="#fff"><use xlink:href="#a"/></mask><path fill="#F3B229" d="M.545 3.344l12.233 12.233 3.267-3.267L3.812.077.545 3.344" mask="url(#b)"/><path fill="#F3B229" d="M8.124 21.865l-4.647-4.648L.21 20.484l7.914 7.914 16.324-16.324-3.266-3.267L8.124 21.865" mask="url(#b)"/></g><path fill="#F3B229" d="M12.814 33.868l3.267 3.267 12.24-12.24-3.266-3.267-12.24 12.24"/><path fill="#1A1919" d="M74.779 6.51c-.144-.459-.285-.76-.462-.88-.135-.093-.386-.113-.495-.113-.128 0-.205-.013-.205-.115 0-.087.106-.109.275-.109.653 0 1.338.03 1.453.03.114 0 .663-.03 1.387-.03.17 0 .26.03.26.11 0 .101-.101.114-.225.114-.099 0-.223 0-.31.046-.113.052-.139.138-.139.273 0 .167.124.59.277 1.148.21.828 1.371 4.616 1.597 5.314h.036L80.65 5.79c.126-.354.21-.45.316-.45.136 0 .197.19.364.59l2.595 6.278h.036c.223-.836 1.225-4.134 1.666-5.594.08-.286.12-.548.12-.728 0-.196-.11-.369-.6-.369-.12 0-.208-.042-.208-.115 0-.087.094-.109.287-.109.66 0 1.184.03 1.296.03.086 0 .625-.03 1.037-.03.135 0 .224.022.224.098 0 .084-.057.126-.171.126-.127 0-.3.013-.439.06-.302.113-.434.61-.704 1.327-.568 1.572-1.88 5.543-2.493 7.417-.138.437-.2.588-.364.588-.128 0-.198-.15-.386-.617l-2.597-6.255H80.6c-.235.638-1.899 5.06-2.435 6.205-.24.516-.299.667-.448.667-.127 0-.175-.137-.288-.464L74.78 6.51m23.717 3.74c0-2.8-1.61-4.537-3.66-4.537-1.435 0-3.074.798-3.074 3.91 0 2.6 1.443 4.662 3.84 4.662.876 0 2.894-.424 2.894-4.035zm-8.454-.237c0-2.138 1.409-4.896 5.16-4.896 3.109 0 5.046 1.806 5.046 4.67 0 2.861-2.003 5.122-5.17 5.122-3.587 0-5.036-2.686-5.036-4.896zM106.29 9.9c0 .139.026.184.112.226.258.087.64.124.95.124.496 0 .66-.053.889-.211.373-.278.734-.855.734-1.882 0-1.769-1.168-2.279-1.912-2.279-.312 0-.536.008-.66.053-.087.023-.113.072-.113.171V9.9zm-1.472-.986c0-1.898 0-2.252-.025-2.648-.025-.43-.125-.627-.536-.716a3.197 3.197 0 0 0-.49-.033c-.137 0-.214-.03-.214-.115 0-.087.09-.109.273-.109.668 0 1.455.03 1.717.03.422 0 1.371-.03 1.757-.03.79 0 1.63.076 2.3.534.353.239.85.878.85 1.711 0 .926-.386 1.768-1.648 2.794 1.111 1.403 1.972 2.516 2.71 3.287.698.724 1.21.81 1.401.852.134.026.25.036.346.036.103 0 .152.044.152.104 0 .093-.086.121-.24.121h-1.184c-.701 0-1.014-.065-1.333-.235-.54-.289-1.018-.878-1.714-1.836-.5-.691-1.07-1.537-1.24-1.73-.057-.067-.134-.082-.221-.082l-1.088-.029c-.06 0-.1.03-.1.1v.18c0 1.16 0 2.145.062 2.671.038.36.109.64.49.685.187.03.457.051.607.051.101 0 .156.044.156.104 0 .086-.089.121-.254.121-.723 0-1.647-.035-1.833-.035-.238 0-1.025.035-1.526.035-.167 0-.25-.035-.25-.121 0-.06.05-.104.204-.104.184 0 .333-.021.445-.051.249-.046.313-.325.363-.685.063-.526.063-1.512.063-2.659V8.914zm12.95 2.198c0 1.595 0 2.458.262 2.683.212.19.54.279 1.51.279.663 0 1.151-.017 1.463-.354.155-.16.3-.514.323-.746.014-.114.036-.19.136-.19.093 0 .105.064.105.21 0 .142-.09 1.08-.189 1.436-.074.274-.14.342-.79.342-.896 0-1.544-.028-2.107-.04a28.096 28.096 0 0 0-1.526-.035c-.134 0-.416 0-.712.007-.286 0-.61.028-.857.028-.165 0-.255-.035-.255-.121 0-.06.056-.104.2-.104.19 0 .338-.021.451-.051.255-.046.313-.325.36-.685.065-.526.065-1.512.065-2.659V8.914c0-1.898 0-2.252-.025-2.648-.025-.43-.128-.627-.536-.716a2.309 2.309 0 0 0-.414-.033c-.138 0-.212-.03-.212-.115 0-.087.09-.109.273-.109.59 0 1.374.03 1.713.03.3 0 1.213-.03 1.698-.03.176 0 .266.022.266.11 0 .084-.077.114-.228.114a4.3 4.3 0 0 0-.487.033c-.338.065-.44.277-.462.716-.025.396-.025.75-.025 2.648v2.198m9.516-.825c0 1.32.009 2.283.026 2.524.011.31.04.808.14.949.16.235.647.496 1.632.496 1.276 0 2.126-.249 2.872-.898.806-.69 1.05-1.823 1.05-3.108 0-1.585-.662-2.614-1.195-3.126-1.153-1.099-2.576-1.246-3.55-1.246-.25 0-.712.034-.81.085-.112.052-.156.113-.156.248-.009.43-.009 1.516-.009 2.505v1.571zm-1.56-1.373c0-1.898 0-2.252-.028-2.648-.025-.43-.125-.627-.536-.716a3.142 3.142 0 0 0-.485-.033c-.142 0-.216-.03-.216-.115 0-.087.091-.109.275-.109.663 0 1.446.03 1.8.03.386 0 1.175-.03 1.925-.03 1.561 0 3.648 0 5.01 1.42.625.652 1.208 1.69 1.208 3.172 0 1.575-.659 2.776-1.36 3.489-.575.585-1.873 1.472-4.182 1.472-.45 0-.964-.038-1.437-.074-.477-.04-.917-.075-1.222-.075-.14 0-.416 0-.718.007-.286 0-.609.028-.862.028-.162 0-.244-.035-.244-.121 0-.06.05-.104.196-.104.188 0 .34-.021.45-.051.252-.046.314-.325.365-.685.062-.526.062-1.512.062-2.659V8.914zM77.368 30.17c0 .141.026.193.11.229.262.087.641.124.949.124.503 0 .665-.052.888-.212.378-.277.734-.848.734-1.873 0-1.775-1.17-2.286-1.906-2.286-.312 0-.54.012-.665.049-.084.027-.11.072-.11.174v3.796zm-1.476-.982c0-1.9 0-2.252-.022-2.65-.025-.422-.124-.624-.543-.71a2.446 2.446 0 0 0-.481-.036c-.135 0-.211-.026-.211-.119 0-.085.083-.113.276-.113.657 0 1.444.043 1.708.043.421 0 1.369-.043 1.762-.043.782 0 1.624.082 2.298.545.347.237.85.873.85 1.71 0 .92-.392 1.772-1.651 2.797 1.111 1.398 1.973 2.51 2.71 3.286.698.722 1.21.812 1.397.846.141.025.25.043.352.043.095 0 .15.03.15.095 0 .102-.088.124-.237.124h-1.188c-.704 0-1.01-.06-1.338-.237-.536-.288-1.01-.871-1.71-1.835-.499-.684-1.071-1.536-1.235-1.72-.062-.08-.141-.09-.23-.09l-1.08-.024c-.063 0-.1.025-.1.098v.178c0 1.159 0 2.143.061 2.67.04.36.113.637.487.687.188.026.464.054.61.054.102 0 .153.03.153.095 0 .085-.09.124-.253.124-.723 0-1.646-.039-1.832-.039-.24 0-1.027.039-1.523.039-.16 0-.255-.039-.255-.124 0-.064.053-.095.202-.095.188 0 .34-.028.454-.054.248-.05.311-.327.361-.687.058-.527.058-1.511.058-2.663v-2.195zm11.39 0c0-1.9 0-2.252-.023-2.65-.024-.422-.126-.624-.538-.71a2.556 2.556 0 0 0-.484-.036c-.14 0-.218-.026-.218-.119 0-.085.09-.113.277-.113.337 0 .702.015 1.015.015.32.013.61.028.784.028.401 0 2.884 0 3.124-.015.233-.028.434-.05.535-.073.062-.011.14-.052.198-.052.061 0 .076.052.076.112 0 .089-.058.24-.102.815-.008.123-.033.678-.059.82-.011.065-.04.138-.127.138s-.111-.06-.111-.171c0-.088-.01-.303-.072-.45-.091-.225-.214-.377-.84-.454-.212-.025-1.525-.045-1.773-.045-.064 0-.087.033-.087.122v3.163c0 .086.014.135.087.135.274 0 1.713 0 1.998-.026.303-.023.488-.06.597-.186.09-.1.139-.163.201-.163.053 0 .087.025.087.102 0 .074-.046.273-.098.91-.01.248-.051.75-.051.84 0 .097 0 .233-.113.233-.088 0-.113-.048-.113-.11-.007-.123-.007-.285-.047-.452-.062-.247-.234-.433-.7-.485-.237-.025-1.476-.04-1.772-.04-.062 0-.076.052-.076.128v.984c0 .425-.014 1.578 0 1.94.023.855.222 1.05 1.495 1.05.327 0 .852 0 1.178-.148.326-.156.475-.412.565-.928.023-.143.045-.19.135-.19.1 0 .1.103.1.227 0 .288-.1 1.138-.164 1.386-.091.325-.196.325-.672.325-.938 0-1.622-.029-2.163-.039-.536-.022-.926-.039-1.3-.039-.137 0-.411 0-.712.017-.287 0-.61.022-.861.022-.162 0-.255-.039-.255-.124 0-.064.057-.095.2-.095.19 0 .343-.028.456-.054.25-.05.309-.327.361-.687.062-.527.062-1.511.062-2.663v-2.195m9.171 5.672c-.205-.091-.24-.15-.24-.426 0-.69.046-1.437.058-1.635.014-.19.054-.322.152-.322.114 0 .125.11.125.21 0 .158.052.42.113.637.273.923 1.013 1.26 1.79 1.26 1.118 0 1.67-.766 1.67-1.43 0-.61-.191-1.18-1.224-1.993l-.574-.452c-1.374-1.072-1.849-1.95-1.849-2.958 0-1.376 1.15-2.365 2.888-2.365.808 0 1.334.129 1.66.217.113.028.177.06.177.149 0 .162-.056.52-.056 1.498 0 .277-.039.375-.135.375-.09 0-.126-.075-.126-.222 0-.115-.058-.504-.322-.827-.19-.234-.55-.611-1.366-.611-.923 0-1.483.537-1.483 1.285 0 .577.291 1.009 1.327 1.802l.345.26c1.516 1.136 2.049 1.998 2.049 3.187 0 .72-.273 1.588-1.17 2.171-.623.397-1.323.516-1.99.516-.722 0-1.283-.09-1.819-.326m17.007-4.337c0-2.796-1.61-4.535-3.655-4.535-1.44 0-3.077.802-3.077 3.911 0 2.6 1.44 4.659 3.835 4.659.878 0 2.897-.427 2.897-4.035zm-8.456-.237c0-2.134 1.41-4.9 5.16-4.9 3.106 0 5.049 1.816 5.049 4.678 0 2.86-2.003 5.122-5.174 5.122-3.584 0-5.035-2.687-5.035-4.9zm14.363-1.098c0-1.9 0-2.252-.024-2.65-.026-.422-.126-.624-.54-.71a2.543 2.543 0 0 0-.488-.036c-.139 0-.211-.026-.211-.119 0-.085.086-.113.276-.113.66 0 1.447.043 1.823.043.297 0 1.09-.043 1.534-.043.19 0 .277.028.277.113 0 .093-.076.12-.2.12-.138 0-.215.01-.364.035-.34.059-.432.277-.462.71-.022.398-.022.75-.022 2.65v1.748c0 1.808.36 2.573.972 3.075.562.461 1.14.51 1.56.51.551 0 1.228-.174 1.727-.675.686-.692.722-1.812.722-3.099v-1.559c0-1.9 0-2.252-.021-2.65-.026-.422-.128-.624-.538-.71a2.385 2.385 0 0 0-.454-.036c-.135 0-.208-.026-.208-.119 0-.085.083-.113.264-.113.631 0 1.416.043 1.416.043.17 0 .952-.043 1.44-.043.179 0 .26.028.26.113 0 .093-.07.12-.224.12-.135 0-.214.01-.356.035-.34.059-.445.277-.468.71-.024.398-.024.75-.024 2.65v1.335c0 1.388-.135 2.857-1.188 3.757-.885.765-1.783.906-2.6.906-.655 0-1.859-.042-2.768-.868-.64-.574-1.11-1.497-1.11-3.306v-1.824m14.612.982c0 .141.023.193.111.229.263.087.637.124.95.124.5 0 .66-.052.886-.212.376-.277.737-.848.737-1.873 0-1.775-1.174-2.286-1.91-2.286-.314 0-.535.012-.663.049-.088.027-.112.072-.112.174v3.796zm-1.475-.982c0-1.9 0-2.252-.026-2.65-.026-.422-.123-.624-.536-.71a2.567 2.567 0 0 0-.487-.036c-.135 0-.216-.026-.216-.119 0-.085.087-.113.28-.113.656 0 1.447.043 1.708.043.429 0 1.375-.043 1.763-.043.786 0 1.626.082 2.295.545.354.237.853.873.853 1.71 0 .92-.386 1.772-1.652 2.797 1.113 1.398 1.974 2.51 2.71 3.286.699.722 1.214.812 1.4.846.138.025.252.043.35.043.101 0 .15.03.15.095 0 .102-.085.124-.24.124h-1.183c-.696 0-1.014-.06-1.334-.237-.54-.288-1.017-.871-1.713-1.835-.502-.684-1.075-1.536-1.238-1.72-.063-.08-.14-.09-.224-.09l-1.082-.024c-.065 0-.104.025-.104.098v.178c0 1.159 0 2.143.064 2.67.04.36.109.637.488.687.184.026.46.054.609.054.1 0 .148.03.148.095 0 .085-.087.124-.247.124-.725 0-1.65-.039-1.836-.039-.238 0-1.029.039-1.523.039-.162 0-.249-.039-.249-.124 0-.064.045-.095.197-.095.19 0 .339-.028.45-.054.25-.05.311-.327.363-.687.062-.527.062-1.511.062-2.663v-2.195zm11.514 4.63c-1.228-1.074-1.548-2.471-1.548-3.682 0-.846.262-2.322 1.464-3.423.893-.826 2.081-1.327 3.944-1.327.773 0 1.237.054 1.81.129.476.06.876.178 1.251.21.134.014.188.077.188.154 0 .1-.038.244-.063.682-.026.417-.016 1.103-.04 1.35-.012.188-.037.29-.15.29-.098 0-.122-.102-.122-.277a1.804 1.804 0 0 0-.488-1.146c-.411-.436-1.384-.777-2.535-.777-1.087 0-1.801.272-2.348.777-.913.833-1.152 2.019-1.152 3.231 0 2.973 2.264 4.447 3.936 4.447 1.11 0 1.785-.12 2.282-.7.216-.237.38-.602.427-.822.037-.203.065-.248.164-.248.089 0 .113.085.113.187 0 .147-.15 1.236-.277 1.66-.066.21-.112.277-.32.363-.504.2-1.454.29-2.253.29-1.71 0-3.146-.376-4.283-1.368m11.761-4.63c0-1.9 0-2.252-.021-2.65-.025-.422-.128-.624-.538-.71-.1-.026-.31-.036-.487-.036-.137 0-.215-.026-.215-.119 0-.085.089-.113.27-.113.347 0 .704.015 1.018.015.33.013.616.028.789.028.399 0 2.883 0 3.123-.015.235-.028.435-.05.535-.073.065-.011.144-.052.196-.052.069 0 .076.052.076.112 0 .089-.062.24-.095.815-.013.123-.033.678-.062.82-.013.065-.04.138-.123.138-.092 0-.117-.06-.117-.171 0-.088-.01-.303-.077-.45-.085-.225-.21-.377-.834-.454-.211-.025-1.526-.045-1.772-.045-.065 0-.09.033-.09.122v3.163c0 .086.018.135.09.135.27 0 1.714 0 1.998-.026.3-.023.484-.06.598-.186.087-.1.139-.163.204-.163.044 0 .084.025.084.102 0 .074-.051.273-.099.91-.016.248-.05.75-.05.84 0 .097 0 .233-.115.233-.085 0-.112-.048-.112-.11-.009-.123-.009-.285-.047-.452-.066-.247-.24-.433-.704-.485-.236-.025-1.473-.04-1.767-.04-.062 0-.08.052-.08.128v.984c0 .425-.01 1.578 0 1.94.025.855.23 1.05 1.5 1.05.325 0 .849 0 1.175-.148.325-.156.474-.412.565-.928.017-.143.047-.19.135-.19.1 0 .1.103.1.227 0 .288-.1 1.138-.162 1.386-.088.325-.205.325-.675.325-.934 0-1.622-.029-2.16-.039-.541-.022-.928-.039-1.295-.039-.142 0-.418 0-.715.017-.292 0-.615.022-.865.022-.17 0-.25-.039-.25-.124 0-.064.052-.095.201-.095a1.9 1.9 0 0 0 .449-.054c.25-.05.313-.327.363-.687.058-.527.058-1.511.058-2.663v-2.195m9.171 5.672c-.196-.091-.238-.15-.238-.426 0-.69.049-1.437.064-1.635.014-.19.046-.322.145-.322.117 0 .124.11.124.21 0 .158.049.42.117.637.272.923 1.013 1.26 1.786 1.26 1.12 0 1.673-.766 1.673-1.43 0-.61-.187-1.18-1.225-1.993l-.574-.452c-1.374-1.072-1.846-1.95-1.846-2.958 0-1.376 1.148-2.365 2.883-2.365.813 0 1.341.129 1.662.217.113.028.176.06.176.149 0 .162-.048.52-.048 1.498 0 .277-.04.375-.142.375-.085 0-.126-.075-.126-.222 0-.115-.06-.504-.32-.827-.19-.234-.553-.611-1.367-.611-.921 0-1.482.537-1.482 1.285 0 .577.289 1.009 1.326 1.802l.346.26c1.513 1.136 2.05 1.998 2.05 3.187 0 .72-.278 1.588-1.175 2.171-.627.397-1.326.516-1.986.516-.725 0-1.287-.09-1.823-.326M75.892 49.463c0-1.896 0-2.245-.022-2.648-.025-.426-.15-.636-.427-.699a1.692 1.692 0 0 0-.452-.044c-.121 0-.196-.03-.196-.135 0-.069.101-.096.295-.096.478 0 1.265.035 1.626.035.313 0 1.051-.035 1.527-.035.16 0 .258.027.258.096 0 .106-.074.135-.2.135-.12 0-.222.005-.376.032-.334.062-.433.274-.455.711-.029.403-.029.752-.029 2.648v2.197c0 1.213 0 2.2.051 2.74.04.336.126.558.496.606.178.027.452.055.641.055.137 0 .197.037.197.1 0 .085-.097.122-.237.122-.822 0-1.61-.037-1.948-.037-.286 0-1.073.037-1.57.037-.16 0-.254-.037-.254-.122 0-.063.053-.1.202-.1.188 0 .34-.028.454-.055.248-.048.32-.255.361-.62.058-.526.058-1.513.058-2.726v-2.197m8.306 4.125c.026.973.187 1.298.438 1.385.212.073.449.088.649.088.14 0 .211.024.211.1 0 .097-.11.122-.284.122-.813 0-1.318-.037-1.551-.037-.111 0-.697.037-1.35.037-.159 0-.274-.01-.274-.122 0-.076.073-.1.197-.1.164 0 .39-.015.565-.061.328-.101.374-.468.387-1.55l.116-7.398c0-.25.033-.424.16-.424.135 0 .248.163.463.386.146.165 2.05 2.2 3.871 4.012.851.85 2.534 2.65 2.744 2.847h.069l-.127-5.61c-.014-.764-.13-.997-.426-1.124-.184-.067-.488-.067-.66-.067-.15 0-.204-.042-.204-.12 0-.101.142-.111.329-.111.65 0 1.25.035 1.511.035.139 0 .611-.035 1.222-.035.163 0 .29.01.29.112 0 .077-.076.119-.229.119-.123 0-.22 0-.374.032-.35.103-.447.362-.46 1.062l-.138 7.88c0 .274-.051.393-.164.393-.136 0-.287-.144-.423-.278-.785-.752-2.386-2.387-3.685-3.674-1.363-1.351-2.749-2.91-2.974-3.147h-.033l.134 5.248m12.402 1.55c-.201-.092-.235-.154-.235-.427 0-.686.048-1.436.058-1.638.015-.184.051-.323.15-.323.113 0 .128.112.128.215 0 .156.049.42.113.63.273.926 1.01 1.266 1.786 1.266 1.119 0 1.673-.762 1.673-1.425 0-.61-.19-1.185-1.224-2l-.577-.447c-1.374-1.079-1.848-1.949-1.848-2.96 0-1.377 1.147-2.36 2.883-2.36a6.23 6.23 0 0 1 1.664.207c.113.03.175.061.175.154 0 .165-.049.524-.049 1.495 0 .276-.037.377-.138.377-.088 0-.128-.072-.128-.226 0-.109-.06-.497-.32-.819-.19-.242-.555-.614-1.363-.614-.924 0-1.484.537-1.484 1.282 0 .577.287 1.011 1.323 1.801l.349.262c1.51 1.135 2.045 2 2.045 3.186 0 .722-.277 1.586-1.174 2.17-.62.4-1.322.518-1.983.518-.725 0-1.29-.092-1.824-.324m11.576-8.595l-1.86.046c-.73.026-1.022.087-1.21.364a1.5 1.5 0 0 0-.217.435c-.022.102-.06.151-.134.151-.087 0-.114-.06-.114-.198 0-.199.235-1.335.268-1.436.036-.168.072-.235.142-.235.102 0 .23.121.535.144.366.037.84.062 1.251.062h4.951c.396 0 .671-.035.859-.062.188-.037.288-.058.34-.058.088 0 .098.072.098.258 0 .265-.038 1.128-.038 1.45-.011.129-.035.201-.112.201-.1 0-.127-.066-.141-.245l-.005-.143c-.028-.324-.365-.672-1.476-.697l-1.574-.037v5.117c0 1.15 0 2.136.066 2.673.032.353.108.625.482.673.175.027.45.055.636.055.138 0 .201.037.201.1 0 .085-.101.122-.237.122-.823 0-1.607-.037-1.957-.037-.292 0-1.082.037-1.578.037-.161 0-.253-.037-.253-.122 0-.063.055-.1.201-.1.194 0 .343-.028.452-.055.253-.048.324-.32.361-.68.063-.53.063-1.516.063-2.666v-5.117m9.17 2.92c0-1.896 0-2.245-.026-2.648-.025-.426-.153-.636-.424-.699-.137-.04-.3-.044-.455-.044-.123 0-.198-.03-.198-.135 0-.069.1-.096.296-.096.479 0 1.27.035 1.63.035.312 0 1.048-.035 1.523-.035.162 0 .26.027.26.096 0 .106-.075.135-.198.135-.123 0-.221.005-.373.032-.337.062-.442.274-.461.711-.027.403-.027.752-.027 2.648v2.197c0 1.213 0 2.2.046 2.74.042.336.127.558.506.606.17.027.447.055.638.055.135 0 .196.037.196.1 0 .085-.105.122-.24.122-.822 0-1.61-.037-1.948-.037-.283 0-1.073.037-1.574.037-.163 0-.25-.037-.25-.122 0-.063.051-.1.201-.1.188 0 .338-.028.447-.055.252-.048.325-.255.363-.62.068-.526.068-1.513.068-2.726v-2.197m9.262-2.92l-1.858.046c-.724.026-1.025.087-1.215.364-.124.19-.188.337-.208.435-.03.102-.066.151-.138.151-.092 0-.111-.06-.111-.198 0-.199.234-1.335.26-1.436.038-.168.073-.235.15-.235.1 0 .225.121.538.144.363.037.836.062 1.246.062h4.948c.4 0 .674-.035.867-.062.181-.037.284-.058.33-.058.089 0 .103.072.103.258 0 .265-.04 1.128-.04 1.45-.01.129-.036.201-.109.201-.103 0-.126-.066-.14-.245l-.009-.143c-.026-.324-.367-.672-1.473-.697l-1.578-.037v5.117c0 1.15 0 2.136.062 2.673.038.353.112.625.488.673.176.027.448.055.634.055.143 0 .206.037.206.1 0 .085-.102.122-.243.122-.82 0-1.61-.037-1.962-.037-.282 0-1.07.037-1.573.037-.162 0-.251-.037-.251-.122 0-.063.055-.1.202-.1.188 0 .338-.028.446-.055.255-.048.329-.32.37-.68.058-.53.058-1.516.058-2.666v-5.117m8.632 2.92c0-1.896 0-2.245-.028-2.648-.025-.426-.122-.62-.535-.711a2.453 2.453 0 0 0-.484-.032c-.136 0-.214-.03-.214-.12 0-.084.085-.111.275-.111.66 0 1.447.035 1.823.035.298 0 1.082-.035 1.536-.035.188 0 .275.027.275.112 0 .09-.076.119-.201.119-.134 0-.215.005-.364.032-.332.062-.437.274-.46.711-.025.403-.025.752-.025 2.648v1.748c0 1.813.363 2.577.974 3.074.561.466 1.136.513 1.563.513.547 0 1.217-.175 1.722-.675.688-.687.722-1.809.722-3.098v-1.562c0-1.896 0-2.245-.024-2.648-.019-.426-.12-.62-.535-.711a2.234 2.234 0 0 0-.445-.032c-.146 0-.223-.03-.223-.12 0-.084.092-.111.265-.111.643 0 1.427.035 1.438.035.153 0 .94-.035 1.429-.035.171 0 .259.027.259.112 0 .09-.074.119-.223.119-.14 0-.212.005-.364.032-.34.062-.438.274-.464.711-.025.403-.025.752-.025 2.648v1.334c0 1.389-.138 2.863-1.186 3.764-.884.76-1.784.9-2.599.9-.661 0-1.861-.037-2.77-.857-.637-.579-1.113-1.505-1.113-3.318v-1.823m14.798-2.92l-1.86.046c-.725.026-1.023.087-1.21.364-.124.19-.185.337-.215.435-.022.102-.062.151-.136.151-.086 0-.113-.06-.113-.198 0-.199.235-1.335.26-1.436.04-.168.08-.235.153-.235.099 0 .222.121.536.144.361.037.838.062 1.25.062h4.946c.402 0 .672-.035.864-.062.186-.037.285-.058.34-.058.083 0 .098.072.098.258 0 .265-.04 1.128-.04 1.45-.015.129-.037.201-.113.201-.099 0-.128-.066-.135-.245l-.011-.143c-.03-.324-.365-.672-1.472-.697l-1.578-.037v5.117c0 1.15 0 2.136.061 2.673.04.353.117.625.485.673.183.027.449.055.638.055.141 0 .203.037.203.1 0 .085-.103.122-.238.122-.83 0-1.613-.037-1.958-.037-.29 0-1.08.037-1.58.037-.16 0-.247-.037-.247-.122 0-.063.047-.1.2-.1.186 0 .336-.028.447-.055.253-.048.324-.32.367-.68.058-.53.058-1.516.058-2.666v-5.117m9.166 2.92c0-1.896 0-2.245-.022-2.648-.025-.426-.121-.62-.536-.711-.101-.027-.313-.032-.49-.032-.136 0-.213-.03-.213-.12 0-.084.088-.111.278-.111.338 0 .696.01 1.016.01.321.017.605.025.78.025.402 0 2.89 0 3.124-.008.237-.027.439-.054.54-.077.063-.014.134-.054.198-.054.062 0 .075.054.075.114 0 .086-.066.238-.098.812-.015.125-.041.678-.07.827-.007.065-.035.135-.12.135-.086 0-.113-.058-.113-.172 0-.088-.008-.298-.077-.45-.087-.223-.207-.377-.838-.45-.208-.026-1.516-.054-1.77-.054-.064 0-.089.044-.089.127v3.16c0 .092.015.138.089.138.275 0 1.714 0 1.999-.023.295-.023.481-.06.597-.186.09-.1.14-.163.202-.163.049 0 .085.023.085.097 0 .075-.05.275-.1.91-.014.252-.047.755-.047.84 0 .1 0 .243-.114.243-.087 0-.112-.054-.112-.117-.014-.127-.014-.288-.051-.45-.058-.25-.238-.44-.695-.482-.238-.034-1.482-.043-1.78-.043-.058 0-.073.05-.073.126v.984c0 .426-.01 1.575 0 1.936.025.865.23 1.048 1.497 1.048.327 0 .852 0 1.178-.148.325-.15.474-.41.562-.926.022-.134.046-.186.139-.186.099 0 .099.1.099.226 0 .289-.1 1.141-.164 1.39-.09.32-.202.32-.676.32-.937 0-1.625-.025-2.158-.037a26.578 26.578 0 0 0-1.301-.037c-.138 0-.412 0-.714.012-.285 0-.612.025-.86.025-.16 0-.247-.037-.247-.122 0-.063.046-.1.2-.1.185 0 .338-.028.448-.055.251-.048.315-.32.36-.68.062-.53.062-1.516.062-2.666v-2.197"/></g><path d="M17.2613 64.2255c-1.38177 1.39316-2.07407 3.38176-2.07407 5.95725 0 2.38462.60968 4.2621 1.82336 5.62963 1.21652 1.36182 2.88603 2.04273 5.00854 2.04273 1.7151 0 3.1225-.50427 4.22222-1.51282 1.09686-1.0057 1.78062-2.31623 2.04843-3.92592h-3.05413c-.20798.76068-.46724 1.33333-.78347 1.71225-.56696.7094-1.39032 1.06268-2.47294 1.06268-1.05413 0-1.92592-.4131-2.60968-1.23647-.68376-.8262-1.02564-2.06552-1.02564-3.7208 0-1.65526.32478-2.93731.9715-3.84045.64673-.90598 1.53277-1.35897 2.65528-1.35897 1.09971 0 1.93162.32194 2.49287.96296.3134.35898.5698.89459.77208 1.60114h3.08262c-.04559-.92023-.38747-1.8376-1.01994-2.75498-1.14815-1.62678-2.96581-2.4416-5.45014-2.4416-1.8547 0-3.38461.60684-4.5869 1.82337zm4.49857-1.9943zm11.56694 15.21366V62.68134h-2.8547v14.76352zm5.7208-12.21937v-2.63532H36.153v2.63532zm-2.8946 1.302v10.91737h2.8946V66.52749zm19.2792.03988c-.46725-.18518-.94018-.2792-1.42166-.2792-.7208 0-1.37607.14815-1.96296.45014-.55556.29915-1.0171.77208-1.39316 1.4131-.21368-.5356-.52707-.9715-.94017-1.31338-.51567-.36752-1.18804-.54986-2.0228-.54986-.88318 0-1.60113.21368-2.15384.64103-.31339.23931-.64957.64387-1.00284 1.21082v-1.59259h-2.77493v10.89743h2.89458v-6.5698c0-.59544.07693-1.04273.23077-1.34188.28205-.52706.82906-.79202 1.64388-.79202.70085 0 1.17093.26496 1.4131.79202.13105.29345.19943.76353.19943 1.4131v6.49858h2.87464v-6.49857c0-.49003.07692-.90599.23077-1.25356.29915-.65527.8433-.98006 1.63248-.98006.6809 0 1.14814.25356 1.4017.76068.1339.26496.19944.60684.19944 1.01995v6.95156h2.92592l.01994-6.88034c0-.7094-.03419-1.24501-.09971-1.61253-.10827-.55556-.3134-1.0228-.62109-1.40171-.38176-.46724-.80626-.79487-1.2735-.9829zm10.63816 5.5698v1.06268c-.01995.95441-.2906 1.61253-.80627 1.9715-.51852.36183-1.08262.54131-1.698.54131-.38747 0-.7151-.10826-.98576-.32478-.27065-.21653-.4074-.5698-.4074-1.05698 0-.547.22222-.95157.66096-1.21368.26211-.15384.69231-.28205 1.29345-.3903l.64102-.11967c.3191-.05983.57265-.12535.75499-.19373.18518-.07122.36752-.1624.547-.27635zm-1.7322-1.33333l-.9715.11965c-1.10257.14245-1.93732.37607-2.50427.7037-1.03704.60115-1.55271 1.57266-1.55271 2.91453 0 1.0342.32194 1.83476.96581 2.39886.64388.5641 1.46154.84616 2.45014.84616.77208 0 1.46724-.17664 2.08262-.53277.51282-.29914.96866-.66381 1.36182-1.09116.01995.24786.04559.46723.07977.66096.0342.19374.09402.40171.1795.62109h3.1054v-.42166c-.18518-.08547-.32763-.19658-.4188-.33048-.09402-.13105-.151-.38461-.17094-.76068-.01425-.49288-.01994-.91453-.01994-1.26211v-5.0057c0-1.31623-.4644-2.21082-1.39317-2.6866-.92877-.47293-1.9886-.7094-3.18518-.7094-1.83475 0-3.13105.47863-3.88603 1.4416-.47294.61538-.74074 1.39885-.80057 2.35327h2.75498c.06553-.42166.19943-.75499.39886-1 .28205-.33618.75783-.50143 1.43305-.50143.60114 0 1.05698.08547 1.36752.25356.31054.17094.46438.48149.46438.92878 0 .36752-.20227.63533-.60968.80911-.22792.10257-.60399.18519-1.13105.25072zm.14815-4.56695zm5.849 2.4245h1.52422v6.72079c0 .68091.15954 1.18518.48148 1.51282.49287.51282 1.4131.74644 2.76353.70085l1.35327-.05128v-2.1339a4.72987 4.72987 0 0 1-.28775.0171c-.09686.00284-.18803.0057-.2735.0057-.5812 0-.92878-.05699-1.04274-.1681-.11396-.10826-.17094-.38746-.17094-.83476V68.6614h1.77493v-2.0342H74.6829v-3.04273h-2.82335v3.04273h-1.52422zm10.72364.54986c.36467-.4131.87749-.62109 1.53846-.62109.60683 0 1.1168.19658 1.52706.5869.41026.39031.63818.96296.6866 1.71794h-4.43873c.09401-.7094.32193-1.2678.6866-1.68375zm3.99145-2.46439c-.72935-.33903-1.54701-.50997-2.453-.50997-1.5299 0-2.77492.50427-3.73218 1.51282-.95727 1.00855-1.4359 2.45869-1.4359 4.34757 0 2.0171.52991 3.47293 1.5926 4.36752 1.05982.89459 2.28489 1.34188 3.6752 1.34188 1.68091 0 2.99145-.53276 3.92592-1.5926.60114-.6695.93732-1.32763 1.0114-1.97435h-2.91453c-.15384.32194-.33048.57265-.52991.75214-.36752.33333-.84616.50142-1.43305.50142-.55555 0-1.02849-.13675-1.42165-.4131-.64957-.43875-.99145-1.20798-1.03134-2.302h7.47008c.01424-.94301-.0171-1.66381-.08832-2.16524-.1282-.8547-.40456-1.60398-.8319-2.25355-.4758-.7322-1.07693-1.27066-1.80342-1.61254zm-2.25356-.50997zm14.84329-3.55555h-3.27635l4.18803 14.76352h2.86324l1.78348-8.63247.52136-2.8547.52137 2.8547 1.78347 8.63247h2.94302l4.1567-14.76352h-3.1339l-1.97437 8.54415-.45014 2.2621-.45014-2.35327-1.75213-8.45298h-3.25641l-1.66382 8.50426-.4302 2.302-.4188-2.35328zm23.13673 9.45583v1.06268c-.01995.95441-.28775 1.61253-.80627 1.9715-.51567.36183-1.08262.54131-1.698.54131-.38747 0-.7151-.10826-.98576-.32478-.27065-.21653-.40456-.5698-.40456-1.05698 0-.547.21938-.95157.66097-1.21368.25926-.15384.68946-.28205 1.2906-.3903l.64102-.11967c.32194-.05983.57265-.12535.75784-.19373.18233-.07122.36467-.1624.54416-.27635zm-1.7322-1.33333l-.9715.11966c-1.10257.14244-1.93733.37606-2.50428.7037-1.03418.60114-1.5527 1.57265-1.5527 2.91453 0 1.03418.32194 1.83475.9658 2.39885.64673.5641 1.46155.84616 2.45015.84616.77493 0 1.47008-.17664 2.08262-.53277.51567-.29914.96866-.66381 1.36182-1.09116a8.27494 8.27494 0 0 0 .07977.66096c.03419.19374.09402.40171.18234.62109h3.1054v-.42166c-.18803-.08547-.32763-.19658-.42164-.33048-.09402-.13105-.151-.38461-.17094-.76068-.01425-.49288-.01995-.91453-.01995-1.26211v-5.0057c0-1.31623-.46438-2.21082-1.39316-2.6866-.92592-.47293-1.9886-.7094-3.18518-.7094-1.83476 0-3.13105.47863-3.88604 1.4416-.47293.61538-.74074 1.39885-.80056 2.35327h2.75498c.06552-.42165.19943-.75499.4017-1 .2792-.33618.75784-.50143 1.4302-.50143.60114 0 1.05698.08547 1.36752.25357.31055.17094.46724.48148.46724.92877 0 .36752-.20513.63533-.61253.80912-.22508.10256-.604.18518-1.13106.2507zm.151-4.56695zm5.849 2.4245h1.52136v6.72079c0 .68091.15955 1.18518.48148 1.51282.49288.51282 1.41596.74644 2.76353.70085l1.35328-.05128v-2.1339a4.63585 4.63585 0 0 1-.2849.0171c-.09687.00284-.19088.0057-.27635.0057-.5812 0-.92878-.05699-1.04274-.1681-.1111-.10826-.16809-.38746-.16809-.83476V68.6614h1.77208v-2.0342h-1.77208v-3.04273h-2.8262v3.04273h-1.52137zm14.47292 1.78347h2.92307c-.15954-1.55555-.67521-2.64102-1.547-3.2564-.8718-.61254-1.99146-.92023-3.35898-.92023-1.60968 0-2.87179.52137-3.78632 1.56125-.91453 1.04273-1.37322 2.50142-1.37322 4.37606 0 1.66382.41596 3.0171 1.24217 4.05698.82906 1.04274 2.11965 1.5641 3.87749 1.5641 1.75498 0 3.07977-.62393 3.97435-1.87464.56125-.77493.87464-1.59544.94302-2.46439h-2.91453c-.05983.5755-.23077 1.04274-.50997 1.40456-.28205.35898-.75498.54131-1.4245.54131-.94017 0-1.5812-.45584-1.92307-1.36467-.18519-.48718-.2792-1.13105-.2792-1.93162 0-.84046.09401-1.51567.2792-2.0228.35612-.9544 1.0114-1.43304 1.97435-1.43304.67522 0 1.17094.21937 1.49288.66097.21937.32763.35613.69516.41026 1.10256zm-1.93447-4.20797zm14.6809.36182c-.55271-.23361-1.16525-.35042-1.84046-.35042-.60114 0-1.17379.12535-1.71795.37606-.54416.24787-1.02279.69231-1.4359 1.32479v-5.21652h-2.8433v14.71224h2.8433v-5.90883c0-.93447.19659-1.65527.5869-2.15954.39031-.50427.96296-.75499 1.71795-.75499.7265 0 1.21937.25356 1.48148.76069.19943.36182.29914.83475.29914 1.42165v6.64102h2.91453V71.0346c0-.97436-.03134-1.67807-.09972-2.10826-.06552-.4302-.2507-.849-.54985-1.25641-.35328-.48148-.80627-.8376-1.35613-1.07123z"/></svg>