<svg xmlns="http://www.w3.org/2000/svg" role="img" viewBox="-13.29 -13.29 691.08 88.08"><title>Climatescape logo</title><g fill="none" fill-rule="evenodd" stroke="none" stroke-width="1"><path fill="#000" d="M91 32.11552v-.11602C91 20.51304 99.67751 11 111.75708 11c7.4461 0 11.90366 2.60956 16.00735 6.43838l-3.16649 3.36472c-3.45867-3.2487-7.32882-5.5692-12.8995-5.5692-9.089 0-15.89007 7.31057-15.89007 16.65058v.11502c0 9.39801 6.85972 16.7656 15.89008 16.7656 5.6293 0 9.32355-2.14647 13.25234-5.85926L128 45.86447C123.71938 50.1574 119.02828 53 111.58117 53 99.73717 53 91 43.77602 91 32.11552"/><path fill="#000" d="M147 12h4.51v36.723H174V53h-27z"/><path fill="#000" d="M193 53h5V12h-5z"/><path fill="#000" d="M220 12h4.657l14.844 22.374L254.344 12H259v41h-4.598V19.79l-14.844 21.964h-.233l-14.843-21.906V53H220z"/><path fill="#000" d="M307.59903 37.05417l-9.15612-20.70355-9.2137 20.70355h18.36982zM296.36983 11h4.26134L319 52h-4.89379l-4.72202-10.75839h-21.94014L282.66543 52H278l18.36983-41z"/><path fill="#000" d="M342.673 16.275H329V12h32v4.275h-13.673V53h-4.654z"/><path fill="#000" d="M380 12h29.706v4.217h-25.068v13.998h22.426v4.217h-22.426v14.351H410V53h-30z"/><path fill="#000" d="M427 46.46651l2.8001-3.38341c4.17057 3.85009 8.17169 5.77513 13.71473 5.77513 5.37062 0 8.91458-2.91573 8.91458-6.94082v-.11768c0-3.79075-2.00105-5.95014-10.40133-7.75852-9.19932-2.04171-13.42803-5.07411-13.42803-11.7826v-.11768C428.60005 15.7251 434.1431 11 441.74235 11c5.82877 0 10.00033 1.6917 14.05761 5.01679l-2.62866 3.55842c-3.7144-3.09275-7.42881-4.43445-11.54225-4.43445-5.20115 0-8.51555 2.91774-8.51555 6.59283v.11566c0 3.8511 2.0582 6.00949 10.85849 7.93353C452.88558 31.76716 457 35.09124 457 41.33305v.11768C457 48.44989 451.28553 53 443.3424 53c-6.34306 0-11.54224-2.15839-16.3424-6.53349"/><path fill="#000" d="M475 32.11552v-.11602C475 20.51304 483.67752 11 495.75708 11c7.4461 0 11.90366 2.60956 16.00735 6.43838l-3.16649 3.36472c-3.45867-3.2487-7.32882-5.5692-12.8995-5.5692-9.089 0-15.89007 7.31057-15.89007 16.65058v.11502c0 9.39801 6.85972 16.7656 15.89007 16.7656 5.62932 0 9.32356-2.14647 13.25235-5.85926L512 45.86447C507.71938 50.1574 503.02828 53 495.58117 53 483.73717 53 475 43.77602 475 32.11552"/><path fill="#000" d="M556.59903 37.05417l-9.15612-20.70355-9.2137 20.70355h18.36982zM545.36983 11h4.26134L568 52h-4.89379l-4.72202-10.75839h-21.94014L531.66543 52H527l18.36983-41z"/><path fill="#000" d="M601.42744 34.31525c6.64166 0 10.9931-3.63151 10.9931-9.02022v-.11714c0-5.8573-4.29418-8.90207-10.76407-8.90207H591.5232v18.03943h9.90424zM587 12h15c9.0464 0 15 4.91911 15 13.00217v.11815c0 8.8435-7.21323 13.4132-15.74432 13.4132h-9.73248V53H587V12z"/><path fill="#000" d="M635 12h29.706v4.217h-25.068v13.998h22.426v4.217h-22.426v14.351H665V53h-30z"/><path fill="#00BF7F" d="M41 1.58716L1.58602 41C.76482 38.6351.22162 36.13759 0 33.54905L33.54482 0C36.1341.22462 38.63235.76587 41 1.58716"/><path fill="#3B185E" d="M21 60.479L60.4813 21c.80619 2.41006 1.32537 4.95469 1.5187 7.58901L28.58654 62c-2.63282-.19436-5.17495-.71365-7.58654-1.521"/><path fill="#184AC6" d="M6.75838 51C5.32518 49.34486 4.06337 47.53033 3 45.5995L45.59696 3C47.53126 4.06466 49.3393 5.32481 51 6.7564L6.75838 51z"/><path fill="#00EAA2" d="M0 27C1.96323 13.0214 13.01782 1.96316 27 0L0 27z"/><path fill="#001E7C" d="M16.45884 59C14.50804 57.95261 12.6777 56.70338 11 55.28143L55.28213 11c1.4237 1.67903 2.66867 3.50668 3.71787 5.46087L16.45884 59z"/><path fill="#510038" d="M62 36c-2.10668 13.34313-12.64605 23.89219-26 26l26-26z"/></g></svg>