<svg xmlns="http://www.w3.org/2000/svg" role="img" viewBox="-8.34 -8.34 433.42 75.67"><title>climatedataguide logo</title><g transform="translate(-.5 .367)"><path fill="#c6d8e2" d="M79.87017 57.49338c-7.4933-2.40154-13.84046-7.34616-17.23689-13.42805-2.57332-4.60798-3.0983-6.7588-3.45117-14.13959-.52207-10.9194 1.31003-17.04746 6.6579-22.26952C73.0584.60766 83.65293-1.4842 98.9181 1.12503 108.14599 2.70233 109 3.29755 109 8.15182c0 3.77274-.17018 4.02865-2.25 3.3835C87.17555 5.46338 75.20852 7.2515 70.17774 17c-4.73898 9.18305-1.31931 24.29619 6.7233 29.71343 7.19973 4.8495 19.0233 5.51205 27.09534 1.51833 2.17167-1.07446 4.18589-1.71616 4.47605-1.426.29016.29017.52757 2.20371.52757 4.25233 0 3.4402-.32468 3.85878-4.25 5.47914-5.74949 2.37339-18.88292 2.87811-24.87983.95615zM.5 29.5V2h12.05595l15.47203 21.54066L43.5 45.08132l.2695-21.54066L44.039 2H53v55H41.2304L25.8652 35.60155 10.5 14.20309l-.2695 21.39846L9.961 57H.5zm109.68406 26.75c5.04924-10.79733 7.89298-17.09532 15.36638-34.0318L134.5 1.9364l5.77958.2818 5.77958.2818 10.97016 24.78478c6.03358 13.63163 11.69702 25.89413 12.58542 27.25L171.23002 57h-5.70863c-4.91177 0-5.78337-.2858-6.24406-2.0475-.29449-1.12613-2.03479-5.17612-3.86733-9L152.0781 39h-23.78202l-3.05364 6.75c-1.6795 3.7125-3.35144 7.7625-3.71542 9-.58279 1.9814-1.32025 2.25-6.17774 2.25-3.03377 0-5.35812-.3375-5.16522-.75zM149 30.48002c0-.96728-9.12228-18.69142-9.43631-18.33429C138.92736 12.8694 132 29.38286 132 30.17608c0 .45315 3.825.82392 8.5.82392s8.5-.234 8.5-.51998zM173.06375 29l-.14838-28 8.29232-.24281c23.29201-.68203 29.12111 1.3574 31.22224 10.9238 1.65076 7.51584-3.77926 15.72726-12.09416 18.2891-2.10967.65-4.42283 1.36795-5.14036 1.59543-1.13072.35848 20.16734 19.75603 25.05459 22.81885C223.3344 56.31736 222.1511 57 215.71606 57h-6.28395l-12.96605-11.47515L183.5 34.0497l-.28174 11.47515L182.93653 57h-9.72439zm22.03634-5.01119c1.98005-.55002 4.43255-1.9199 5.45-3.04416 2.36998-2.6188 2.38801-8.25058.0347-10.8509-2.14991-2.37563-8.80008-3.57108-14.50441-2.60734L182 8.1758V25l4.75-.0056c2.6125-.0031 6.37004-.4556 8.35009-1.00561z" display="inline"/><path fill="#aec8d6" d="M82.34375 58.02167C67.57867 54.8764 58.98909 43.53509 59.00977 27.21249 59.03775 5.11945 74.8322-3.97171 102.75 2.03597L108 3.16573v4.52412c0 3.92682-.23105 4.42543-1.75 3.77655-7.72256-3.299-20.24106-4.43003-27.30685-2.46715C72.12361 10.89372 68 17.7835 68 27.2832c0 7.47178 1.97902 12.73614 6.47984 17.23696 7.43189 7.4319 18.56414 8.48066 31.77016 2.99305 1.50268-.62442 1.75-.13955 1.75 3.43083 0 3.80634-.29585 4.28163-3.498 5.61957-4.36919 1.82557-16.64198 2.63314-22.15825 1.45806zM1 29.5V2l5.75.01112 5.75.01111 13.77162 19.23888C33.84602 31.84251 40.92351 41.625 41.9994 43l1.95614 2.5.02224-21.75L44 2h9v55H41.44999l-15.475-21.50417L10.5 13.99167l-.2695 21.50416L9.961 57H1zm121.36592.01557L134.5 2.03114l5.78138-.01557c4.60812-.0124 5.90937.33958 6.41203 1.73443 1.6085 4.46352 20.67582 47.11958 22.35007 50l1.88907 3.25h-5.49766c-4.36791 0-5.60624-.35962-6.02603-1.75-.29061-.9625-2.0728-5.0125-3.96043-9L152.01637 39h-23.82786l-3.11394 6.65434c-1.71267 3.65989-3.37886 7.70989-3.70266 9C120.84733 56.7444 120.20834 57 115.50752 57h-5.27567zm26.46741.64687c-1.73665-4.36363-8.44621-18.14608-8.83733-18.15323-.2772-.00507-2.36396 4.26579-4.63723 9.49079l-4.13323 9.5h8.97056c4.93381 0 8.82057-.3769 8.63723-.83756zM173.5 29.58975V2.18008l3.5-.57904c6.80981-1.1266 23.97402-.63874 27.36422.77778C209.47346 4.5136 212 8.41989 212 14.18452c0 2.70314-.67988 6.22955-1.51085 7.83646-1.95411 3.77883-7.97755 7.85858-12.73915 8.62838-2.0625.33344-3.74149.88624-3.7311 1.22845.0104.3422 6.08212 5.79719 13.4927 12.12219l13.4738 11.5-5.7427.5-5.7427.5-10.36336-9c-5.69985-4.95-11.9457-10.31836-13.87966-11.92968l-3.5163-2.92968.43425 12.17968L182.60918 57l-4.55459-.00029-4.55459-.00029zm25.85359-6.90186c5.19576-3.4044 4.19076-12.60527-1.59725-14.62299-3.32703-1.1598-11.64517-1.42853-14.17455-.45791C182.31058 8.09479 182 9.88774 182 16.73849v8.52452l7.44048-.4775c4.4417-.28505 8.43705-1.13047 9.91311-2.09762z" display="inline"/><path fill="#8db2c6" d="M81.5 57.65732c-7.24394-1.88154-10.74388-3.99143-15.4049-9.28662-5.4256-6.16381-7.4861-13.138-6.8797-23.28572.6915-11.5717 5.14607-18.50165 14.65532-22.79922C78.37535.24996 93.92553.02023 102.25 1.86651L108 3.1418v8.64848l-6.25-1.96618c-8.52186-2.68087-22.30685-2.2952-26.36657.73769-5.391 4.02743-6.82286 7.0085-7.22896 15.05036-.48317 9.56818 1.48237 15.06519 7.10884 19.88124 7.8535 6.7223 18.30016 7.3986 31.05061 2.01015 1.6129-.68162 1.77914-.29153 1.5 3.52001-.29325 4.0043-.57735 4.37898-4.31392 5.68939-5.72757 2.00864-16.1758 2.45715-22 .94438zM1 29.5V2h5.96482c5.05246 0 6.13822.32402 7.09853 2.11837.62355 1.16511 7.50188 10.92565 15.28519 21.6901L43.5 45.3802l.2695-21.6901L44.039 2H53v55h-5.88499c-5.32127 0-6.05571-.26342-7.66722-2.75-.98023-1.5125-7.89448-11.20848-15.36501-21.54661L10.5 13.90678l-.2695 21.5466L9.961 57H1zm121.39421.0413L134.5 2.0826l5.5-.03162 5.5-.03163 11.81128 26.24033c6.4962 14.43217 12.05685 26.80282 12.35699 27.49032.39475.90422-.81034 1.25-4.35643 1.25h-4.90215l-3.85476-9-3.85475-9H127.91635l-2.96803 6.6152c-1.63242 3.63835-3.23739 7.68835-3.56659 9-.53561 2.13404-1.1503 2.3848-5.84593 2.3848h-5.24738zm26.3144.2087C146.10908 23.32014 140.5708 12 140.02458 12c-.37881 0-2.52499 4.275-4.76931 9.5L131.1747 31h9.01964c6.81857 0 8.89631-.30504 8.51427-1.25zm25.28771 27.0575c-.002-.16913-.11452-12.52961-.25-27.46774L173.5 2.1795l3.5-.57875c6.81142-1.12632 23.97436-.63831 27.36422.77806 5.18053 2.16456 7.63641 6.02793 7.63204 12.00604-.005 7.02946-2.658 11.084-9.26475 14.15994-2.87733 1.33962-6.01901 2.44006-6.98151 2.44543-.9625.0054-1.75.38101-1.75.83476 0 .45374 6.04035 5.96624 13.423 12.25L220.84599 55.5l-5.99663.29963-5.99663.29963-11.67637-10.30765c-6.422-5.66921-12.4992-10.95098-13.5049-11.73726-1.75196-1.36973-1.81759-.92965-1.56706 10.50802L182.36588 56.5l-4.18294.3075c-2.30062.16912-4.18459.16912-4.18662 0zm23.45531-33.22284c3.84708-1.60742 5.56276-4.17909 5.51657-8.26892C202.90568 9.78072 198.78575 7 190.64753 7 182.00486 7 182 7.0054 182 16.60699V25h6.03212c3.31766 0 7.55644-.6369 9.41951-1.41534z"/><path fill="#6999b5" d="M84.5 58.00482c-14.79367-2.20625-24.0327-12.31407-25.26278-27.63837C57.74373 11.7608 67.981.59278 86.5.625c4.4.00765 11.0375.59612 14.75 1.3077L108 3.22645v8.46313l-5.75-1.94614C95.37701 7.41723 81.77523 6.96792 78 8.9424c-7.23623 3.78462-10.18122 8.95291-10.22505 17.94437-.05219 10.7073 4.30832 18.32055 12.72505 22.21737 5.55764 2.5731 16.54729 2.51112 22.3592-.1261C105.25677 47.89012 107.39427 47 107.6092 47c.21494 0 .3908 1.7454.3908 3.87868 0 3.28926-.4179 4.0513-2.75 5.01455-2.47055 1.02045-14.0071 3.27194-15.25 2.97622-.275-.06543-2.75-.45451-5.5-.86463zM1 29.5V2l5.75.06595 5.75.06595L28 23.96692l15.5 21.83501.26913-21.90096L44.03826 2H53v55l-5.75-.05176-5.75-.05176-15-21.01274c-8.25-11.557-15.58744-21.50952-16.30543-22.11669-1.06921-.90418-1.25016 2.90766-1 21.06554L9.5 57.00207l-4.25-.00103L1 57zm110.86638 23.75C115.42833 46.24572 134 4.13787 134 3.06607 134 2.43351 136.36503 2 139.81599 2h5.81598l2.36073 5.75c1.29841 3.1625 6.58355 14.975 11.74478 26.25 5.16122 11.275 9.62984 21.0625 9.93027 21.75.39573.9056-.792 1.24122-4.31076 1.21813L160.5 56.93627l-4.01375-9.21814L152.47249 38.5l-12.07462-.27948-12.07462-.27948-3.10761 6.77948c-1.70919 3.72871-3.57078 8.01698-4.13688 9.52948-.93591 2.5006-1.4868 2.75-6.07433 2.75h-5.04508zM149 30.67742c0-.72742-2.05197-5.53858-4.55993-10.69146l-4.55993-9.36888-3.92792 8.86549C129.84549 33.26575 129.44299 32 139.93261 32 146.78524 32 149 31.67695 149 30.67742zm24.78138-1.55683L173.5 2.24119l6.5-.6135c22.77841-2.14986 32 1.36405 32 12.19369 0 8.61341-4.94376 14.20397-14.7661 16.69796l-4.36498 1.1083 14.11902 12.18618L221.10695 56h-12.3031l-12.15193-10.80336c-6.68355-5.94185-12.7424-11.1607-13.4641-11.59745-1.05985-.64138-1.25215 1.43654-1 10.80533L182.5 56.00393l-4.21862-.00196L174.06276 56zm24.23864-5.63094c5.20419-2.6912 6.66633-9.18552 3.06841-13.62877-1.68965-2.08663-2.90863-2.40164-10.5-2.7134L182 6.79477V25h6.54966c3.88601 0 7.73746-.61424 9.47036-1.51035z" display="inline"/><path fill="#2c7197" d="M78.20496 56.10577c-7.24694-2.50313-12.1598-6.7428-15.63143-13.48953-2.50597-4.87008-2.93703-6.8676-3-13.90175-.08949-9.99713 1.90672-15.8253 7.18476-20.97677 2.05794-2.0086 5.71079-4.34627 8.11744-5.19485C80.02993.7255 93.79646.6258 102 2.34643L107.5 3.5l.31028 4.30685.31027 4.30685-3.02601-1.56481c-1.66431-.86065-6.39252-2.0882-10.50713-2.72788-15.03964-2.33816-24.13857 2.34583-26.68818 13.73865C65.3465 32.96652 70.0881 44.13346 79.5 48.88056c6.56104 3.30921 16.71535 3.45302 23.75.33636l4.75-2.10446v3.90503c0 3.83963-.0868 3.9308-5.1815 5.44377-6.98637 2.07473-18.0399 1.91508-24.61354-.35549zM1 29V2h6c3.3 0 6 .39296 6 .87325 0 1.2806 29.8445 42.56419 31.0697 42.97839.70542.23848.942-6.76073.73521-21.75104L44.5 1.99793l4 .00073 4 .00073V55.99924l-5.72343.00038c-5.71566.00038-5.72789-.0062-9-4.80322C35.97445 48.55442 28.875 38.61275 22 29.1038L9.5 11.8148l-.26913 22.0926L8.96174 56H1zm122.08769.25L134.96346 2.5l5.51827-.2999C143.79809 2.01986 146 2.31154 146 2.93108c0 1.33618 19.56727 45.5588 22.04348 49.81892l1.88907 3.25-4.71628-.00033-4.71627-.00033-4-8.98145-4-8.98145-12.24004-.01822L128.01991 38l-3.04504 6.71569c-1.67477 3.69363-3.30303 7.74363-3.61836 9-.4972 1.981-1.20877 2.28431-5.35896 2.28431h-4.78563zm26.74564 1.89843c-1.73788-4.4398-9.46706-20.12007-9.92374-20.13244-.60035-.01626-8.9143 18.86151-8.91125 20.23401.00091.4125 4.31416.75 9.58499.75 5.27084 0 9.43334-.3832 9.25-.85157zM174 29.11945V2.2389l10.46486-.71328C204.33559.17122 212 3.80956 212 14.59672c0 7.20262-5.51592 13.32551-13.9524 15.48772-2.77618.71151-5.01913 1.54609-4.98434 1.85461.0348.30852 6.10979 5.71749 13.5 12.01992C213.95347 50.26141 220 55.54891 220 55.70897c0 .16007-2.36958.29103-5.26573.29103h-5.26573l-12.98427-11.47041c-7.14135-6.30873-13.32177-11.48373-13.73427-11.5C182.3375 33.0133 182 38.175 182 44.5V56h-8zm20-4.20487c6.33585-1.4594 9-4.25198 9-9.4339 0-6.82037-5.21448-9.60514-16.25-8.67825l-4.75.39896v8.82598c0 7.56481.25006 8.89133 1.75 9.2833 2.98432.77989 5.58006.67958 10.25-.39609z" display="inline"/><path fill="#19648e" d="M79.22179 56.5866c-4.16572-1.35565-10.38874-5.43673-13.0312-8.54591C65.4704 47.1933 63.6892 44.025 62.23237 41c-5.26324-10.92865-3.11131-26.26288 4.67246-33.29506C73.14955 2.06322 78.29473.64723 90.2388 1.28327c5.64366.30053 11.9487 1.0559 14.0112 1.67858C107.66907 3.9941 108 4.40817 108 7.65399c0 2.9876-.28137 3.44865-1.75 2.86751-3.4474-1.36414-14.82452-3.487-18.75-3.49856-13.91502-.041-21.6164 8.85203-20.1253 23.23936 1.03546 9.99097 6.11397 17.0235 14.3499 19.87125 5.81917 2.0121 15.95926 1.58886 21.5254-.89847l4.75-2.12262v3.41809c0 2.83805-.55152 3.70895-3.25 5.1321-4.34072 2.28925-19.63214 2.84269-25.52821.92394zM1 29V2h10.53209l15.48034 21.58204c8.5142 11.87012 16.06897 22.07055 16.78838 22.66761 1.0723.88993 1.25317-2.99976 1.00361-21.58305L44.5 1.99798l4.35699.001c3.56193.00083 4.24623.28966 3.75 1.5828-.33385.87-.60699 13.02-.60699 27V56h-5.38499c-4.77641 0-5.58613-.31079-7.16475-2.75-.97887-1.5125-8.11812-11.51214-15.86501-22.22142L9.5 11.55718l-.26913 22.22142L8.96174 56H1zm116.91543 12.25c3.68788-8.1125 9.12886-20.2625 12.09107-27L135.39235 2h5.30382C144.37043 2 146 2.39782 146 3.2948c0 1.29401 16.78045 39.45877 20.8478 47.41536 1.18371 2.3156 2.1522 4.4531 2.1522 4.75 0 .29691-2.025.53984-4.5.53984s-4.5-.46746-4.5-1.0388-1.63762-4.62134-3.63916-9L152.72168 38h-24.85182l-3.43493 7.43446c-1.88921 4.08895-3.43493 8.13895-3.43493 9C121 55.64196 119.88053 56 116.1051 56h-4.89489zm32.07019-10c-.02521-1.31563-10.00062-21.56835-10.41775-21.15081-.22023.22044-1.29993 2.65081-2.39932 5.40081-1.09939 2.75-3.1564 7.5875-4.57111 10.75L130.02522 32h9.98739c5.49306 0 9.98092-.3375 9.97301-.75zM174 29.1199V2.2398l11.31883-.70723c13.11124-.81922 18.18712.1607 22.97033 4.4345C211.16784 8.53915 211.5 9.4058 211.5 14.34463c0 8.41032-4.67053 13.37547-15.07961 16.03085l-4.50933 1.15034 12.13107 10.48708c6.67209 5.7679 13.1046 11.26458 14.29447 12.21485 2.1156 1.6896 2.04188 1.72749-3.3366 1.71519l-5.5-.01258L196 43.98542l-13.5-11.94494-.28078 11.97976L181.93844 56H174zm25.12778-5.68598C202.23935 21.82487 203 20.1661 203 14.98964c0-6.79702-3.95037-8.72452-16.75-8.17282L182 7v8.92668c0 7.64489.25128 8.9983 1.75 9.42551 2.76732.78883 12.48762-.4237 15.37778-1.91827z" display="inline"/><g fill="#19648e" stroke-width="1.228" transform="scale(.81452 1.22772)"><path fill="#19648e" d="M300.22467 46.41217h-4.17233V-.29873h4.17233z"/></g><g fill="#19648e" transform="translate(119.313 13.46) scale(.54572)"><path d="M282.20874 17.35613q-3.24219 0-5.99609-.95703-2.73438-.95704-4.70703-2.85157-1.97266-1.89453-3.06641-4.72656-1.07422-2.83203-1.07422-6.54297 0-3.45703 1.03516-6.26953 1.03515-2.8125 3.00781-4.82422 1.89453-1.9336 4.6875-2.98828 2.8125-1.05469 6.13281-1.05469 1.83594 0 3.30078.21485 1.48438.1953 2.73438.52734 1.30859.3711 2.36328.83984 1.07422.44922 1.875.83985v7.05078h-.85938q-.54687-.46875-1.38671-1.11328-.82032-.64453-1.875-1.26953-1.07422-.625-2.32422-1.0547-1.25-.42968-2.67578-.42968-1.58204 0-3.00782.50781-1.42578.48829-2.63672 1.64063-1.15234 1.11328-1.875 2.94922-.70312 1.83594-.70312 4.45312 0 2.73438.76172 4.57032.78125 1.83593 1.95312 2.89062 1.19141 1.07422 2.65625 1.54297 1.46485.44922 2.89063.44922 1.36719 0 2.69531-.41016 1.34766-.41015 2.48047-1.11328.95703-.5664 1.77734-1.21094.82032-.64453 1.34766-1.11328h.78125v6.95313q-1.09375.48828-2.08984.91797-.9961.42968-2.08985.74218-1.42578.41016-2.67578.625-1.25.21485-3.4375.21485z"/><path d="M318.98608 16.78972h-20.97656V-12.2923h7.5v23.45703h13.47656z"/><path d="M339.22046 16.78972h-17.03125v-5.15625h4.76562V-7.13606h-4.76562v-5.15625h17.03125v5.15625h-4.76563v18.76953h4.76563z"/><path d="M375.82202 16.78972h-7.46094V-2.68294l-5.39062 12.63672h-5.17578l-5.39063-12.63672v19.47266h-7.07031V-12.2923h8.71094l6.54297 14.58984 6.52343-14.58984h8.71094z"/><path d="M410.1189 16.78972h-7.75391l-2.01172-5.8789h-10.78125l-2.01172 5.8789h-7.55859L390.7439-12.2923h8.63281zM398.53687 5.57878L394.96265-4.8509l-3.57422 10.42968z"/><path d="M437.05249-6.66731h-9.08203v23.45703h-7.5V-6.6673h-9.08203v-5.625h25.66406z"/><path d="M462.59937 16.78972h-21.03516V-12.2923h21.03516v5.625h-13.57422v5.01953h12.59765v5.625h-12.59765v7.1875h13.57422z"/><path d="M296.54468 52.278q0 4.0625-1.85547 7.28516-1.85547 3.20312-4.6875 4.92187-2.12891 1.28907-4.66797 1.79688-2.53906.50781-6.01562.50781h-10.25391V37.7077h10.54687q3.55469 0 6.13282.60547 2.57812.58594 4.33593 1.67969 3.00782 1.83593 4.72657 4.96093 1.73828 3.10547 1.73828 7.32422zm-7.75391-.05859q0-2.8711-1.05469-4.90234-1.03515-2.05078-3.30078-3.20313-1.15234-.5664-2.36328-.76172-1.1914-.21484-3.61328-.21484h-1.89453v18.20313h1.89453q2.67578 0 3.92578-.23438 1.25-.2539 2.44141-.89844 2.05078-1.17187 3.00781-3.125.95703-1.97265.95703-4.86328z"/><path d="M329.14233 66.78972h-7.7539l-2.01172-5.8789h-10.78125l-2.01172 5.8789h-7.55859l10.74218-29.08203h8.63282zM317.5603 55.57878l-3.57422-10.42968-3.57421 10.42968z"/><path d="M356.07593 43.33269h-9.08203v23.45703h-7.5V43.3327h-9.08203v-5.625h25.66406z"/><path d="M387.46265 66.78972h-7.75391l-2.01172-5.8789h-10.78125l-2.01172 5.8789h-7.55859l10.74219-29.08203h8.63281zm-11.58203-11.21094L372.3064 45.1491l-3.57422 10.42968z"/><path d="M431.03687 65.12956q-1.95313.76172-5.17579 1.52344-3.22265.74219-6.42578.74219-7.42187 0-11.62109-4.02344-4.19922-4.04297-4.19922-11.15234 0-6.77735 4.23828-10.91797 4.23828-4.16016 11.81641-4.16016 2.87109 0 5.46875.52735 2.59765.5078 5.78125 2.05078v6.8164h-.83985q-.54687-.41015-1.60156-1.15234-1.05469-.76172-2.03125-1.28906-1.13281-.625-2.65625-1.07422-1.5039-.44922-3.20312-.44922-1.99219 0-3.61328.58594-1.6211.58594-2.91016 1.79687-1.23047 1.17188-1.95313 2.98828-.70312 1.79688-.70312 4.16016 0 4.82422 2.55859 7.38281 2.5586 2.5586 7.5586 2.5586.42968 0 .9375-.01953.52734-.01953.95703-.0586v-5.70312h-5.80078V50.7741h13.41797z"/><path d="M463.22437 56.26238q0 5.39062-3.28125 8.26172-3.28125 2.87109-9.66797 2.87109t-9.66797-2.8711q-3.26172-2.87109-3.26172-8.24218V37.70769h7.53906v18.14453q0 3.02734 1.26953 4.51172 1.26953 1.48437 4.1211 1.48437 2.8125 0 4.10156-1.42578 1.30859-1.42578 1.30859-4.5703V37.70768h7.53907z"/><path d="M485.95874 66.78972h-17.03125v-5.15625h4.76563V42.86394h-4.76563v-5.15625h17.03125v5.15625h-4.76562v18.76953h4.76562z"/><path d="M519.55249 52.278q0 4.0625-1.85547 7.28516-1.85547 3.20312-4.6875 4.92187-2.1289 1.28907-4.66797 1.79688-2.53906.50781-6.01562.50781h-10.25391V37.7077h10.54688q3.55468 0 6.13281.60547 2.57812.58594 4.33594 1.67969 3.00781 1.83593 4.72656 4.96093 1.73828 3.10547 1.73828 7.32422zm-7.75391-.05859q0-2.8711-1.05468-4.90234-1.03516-2.05078-3.30078-3.20313-1.15235-.5664-2.36329-.76172-1.1914-.21484-3.61328-.21484h-1.89453v18.20313h1.89453q2.67578 0 3.92578-.23438 1.25-.2539 2.44141-.89844 2.05078-1.17187 3.00781-3.125.95703-1.97265.95703-4.86328z"/><path d="M546.3103 66.78972h-21.03515V37.7077h21.03515v5.625h-13.57422v5.01953h12.59766v5.625h-12.59766v7.1875h13.57422z"/></g></g></svg>