<svg xmlns="http://www.w3.org/2000/svg" role="img" viewBox="-2.21 -2.21 115.05 15.93"><title>Climate categories logo</title><g transform="translate(-.674 9.117)"><path d="M7.91016-.63281q-.32227.14062-.58594.26367-.25781.12305-.67969.25781-.35742.11133-.7793.1875-.41601.08203-.91992.08203-.94922 0-1.72851-.26367Q2.44336-.375 1.86914-.94336 1.30664-1.5.99024-2.35546.67382-3.2168.67382-4.35353q0-1.07812.30469-1.92773.30468-.8496.8789-1.43555.55664-.56836 1.3418-.86718.79101-.29883 1.75195-.29883.70313 0 1.4004.16992.70312.16992 1.55859.59766v1.37695h-.0879q-.7207-.60352-1.42968-.8789-.70899-.2754-1.51758-.2754-.6621 0-1.19531.2168-.52735.21094-.94336.6621-.4043.43946-.63281 1.11329-.22266.66797-.22266 1.54687 0 .91993.2461 1.58204.25195.6621.64452 1.07812.41016.4336.95508.64453.55078.20508 1.16016.20508.83789 0 1.57031-.2871.73242-.28712 1.3711-.86134h.08203z"/><path d="M10.57617 0H9.47461v-9.11719h1.10156z"/><path d="M13.93945-7.64063h-1.24218V-8.7832h1.24218zM13.86915 0h-1.10157v-6.54492h1.10156z"/><path d="M25.5996 0h-1.10155v-3.72656q0-.42188-.04102-.81446-.03516-.39257-.1582-.62695-.13477-.25195-.38672-.38086-.25196-.1289-.72657-.1289-.46289 0-.92578.23437-.46289.22852-.92578.58594.01758.13476.0293.3164.01172.17579.01172.35157V0h-1.10156v-3.72656q0-.4336-.04102-.82031-.03516-.39258-.1582-.62696-.13477-.25195-.38673-.375-.25195-.1289-.72656-.1289-.45117 0-.9082.22265-.45117.22266-.90234.56836V0h-1.10157v-6.54492h1.10157v.72656q.51562-.42773 1.02539-.66797.51562-.24023 1.0957-.24023.66797 0 1.13086.28125.46875.28125.69726.7793.66797-.5625 1.21875-.8086.55079-.25195 1.17774-.25195 1.07812 0 1.58789.65625.51562.65039.51562 1.82226z"/><path d="M32.80664 0h-1.0957v-.69727q-.14649.09961-.39844.28125-.2461.17579-.48047.28125Q30.55664 0 30.19922.0879q-.35742.09375-.8379.09375-.88476 0-1.5-.58594-.61523-.58593-.61523-1.49414 0-.74414.31641-1.20117.32227-.46289.91406-.72656.59766-.26367 1.43555-.35742.83789-.09375 1.79883-.14063v-.16992q0-.375-.13477-.6211-.1289-.24609-.375-.38671-.23437-.13477-.5625-.18164-.32812-.04688-.68555-.04688-.43359 0-.9668.11719-.5332.11133-1.10155.32812h-.0586V-6.4043q.32227-.08789.93165-.19336.60937-.10547 1.20117-.10547.6914 0 1.20117.1172.51563.11132.89063.38671.36914.26953.5625.69727.19336.42773.19336 1.06054zm-1.0957-1.61133v-1.82226q-.5039.0293-1.18946.08789-.67968.0586-1.07812.16992-.47461.13476-.76758.42187-.29297.28125-.29297.7793 0 .5625.33985.84961.33984.28125 1.0371.28125.58008 0 1.06055-.22266.48047-.22851.89063-.54492z"/><path d="M38.32617-.0586q-.31054.08204-.67969.13477-.36328.05274-.65039.05274-1.00195 0-1.52343-.53907-.52149-.53906-.52149-1.72851v-3.48047h-.74414v-.92578h.74414v-1.88086h1.10156v1.88086h2.27344v.92578h-2.27344v2.98242q0 .51563.02344.8086.02344.2871.16407.53906.1289.23437.35156.3457.22851.10547.6914.10547.26954 0 .5625-.07617.29297-.08203.42188-.13477h.05859z"/><path d="M45.13477-3.1582H40.3125q0 .60351.18164 1.05468.18164.44532.49805.73243.30469.28125.7207.42187.42188.14063.92578.14063.66797 0 1.3418-.26368.67969-.26953.9668-.52734h.05859v1.20117q-.55664.23438-1.13672.39258-.58008.1582-1.21875.1582-1.6289 0-2.54297-.8789-.91406-.88477-.91406-2.50782 0-1.60546.87304-2.54882.8789-.94336 2.3086-.94336 1.32422 0 2.03906.77344.7207.77343.7207 2.19726zm-1.07227-.84375q-.0059-.8672-.43945-1.3418-.42774-.4746-1.30664-.4746-.88477 0-1.41211.52147-.52149.52149-.5918 1.29493z"/><path d="M55.86328-.41016Q55.3125-.14648 54.81445 0q-.49218.14648-1.04883.14648-.70898 0-1.30078-.20507-.5918-.21094-1.01367-.63282-.42773-.42187-.6621-1.0664-.23438-.64453-.23438-1.50586 0-1.60547.8789-2.51953.88477-.91407 2.33203-.91407.5625 0 1.10157.1582.54492.15821.9961.38673v1.2246h-.0586q-.5039-.39257-1.04297-.60351-.5332-.21094-1.04297-.21094-.9375 0-1.48242.63281-.53906.62696-.53906 1.8457 0 1.1836.52734 1.82227.5332.63282 1.49414.63282.33398 0 .67969-.0879.3457-.08788.6211-.22851.24023-.12305.45116-.25781.21094-.14063.33399-.24024h.05859z"/><path d="M62.36133 0h-1.0957v-.69727q-.14649.09961-.39844.28125-.2461.17579-.48047.28125Q60.11132 0 59.7539.0879q-.35743.09375-.8379.09375-.88476 0-1.5-.58594-.61523-.58593-.61523-1.49414 0-.74414.3164-1.20117.32227-.46289.91407-.72656.59766-.26367 1.43555-.35742.83789-.09375 1.79883-.14063v-.16992q0-.375-.13477-.6211-.1289-.24609-.375-.38671-.23438-.13477-.5625-.18164-.32813-.04688-.68555-.04688-.4336 0-.9668.11719-.5332.11133-1.10156.32812h-.05859V-6.4043q.32227-.08789.93164-.19336.60938-.10547 1.20118-.10547.6914 0 1.20117.1172.51562.11132.89062.38671.36914.26953.5625.69727.19336.42773.19336 1.06054zm-1.0957-1.61133v-1.82226q-.50391.0293-1.18946.08789-.67969.0586-1.07812.16992-.47461.13476-.76758.42187-.29297.28125-.29297.7793 0 .5625.33984.84961.33985.28125 1.03711.28125.58008 0 1.06055-.22266.48047-.22851.89063-.54492z"/><path d="M67.88086-.0586q-.31055.08204-.67969.13477-.36328.05274-.65039.05274-1.00195 0-1.52344-.53907-.52148-.53906-.52148-1.72851v-3.48047h-.74414v-.92578h.74414v-1.88086h1.10156v1.88086h2.27344v.92578h-2.27344v2.98242q0 .51563.02344.8086.02344.2871.16406.53906.12891.23437.35157.3457.22851.10547.6914.10547.26953 0 .5625-.07617.29297-.08203.42188-.13477h.05859z"/><path d="M74.68945-3.1582H69.8672q0 .60351.18164 1.05468.18164.44532.49805.73243.30468.28125.7207.42187.42187.14063.92578.14063.66797 0 1.3418-.26368.67968-.26953.9668-.52734h.05858v1.20117q-.55664.23438-1.13672.39258-.58007.1582-1.21875.1582-1.6289 0-2.54297-.8789-.91406-.88477-.91406-2.50782 0-1.60546.87305-2.54882.8789-.94336 2.3086-.94336 1.32421 0 2.03906.77344.7207.77343.7207 2.19726zm-1.07226-.84375q-.00586-.8672-.43946-1.3418-.42773-.4746-1.30664-.4746-.88476 0-1.4121.52147-.52149.52149-.5918 1.29493z"/><path d="M81.66797-.74414q0 1.66406-.75586 2.44336-.75586.7793-2.32617.7793-.52149 0-1.01953-.07618-.4922-.0703-.97266-.20507v-1.125h.05859q.26953.10546.85547.2578.58594.15821 1.17187.15821.5625 0 .93164-.13476.36915-.13477.57423-.375.20507-.22852.29297-.55079.08789-.32226.08789-.7207v-.59766q-.49805.39844-.95508.59766-.45117.19336-1.1543.19336-1.17187 0-1.86328-.84375-.68555-.8496-.68555-2.39062 0-.84375.23438-1.45313.24023-.61523.65039-1.06055.38086-.41601.92578-.64453.54492-.23437 1.08398-.23437.56836 0 .94922.11719.38672.11132.81446.3457l.0703-.28125h1.03126zM80.5664-1.79883v-3.56836q-.43946-.19922-.82032-.28125-.375-.08789-.75-.08789-.9082 0-1.42968.60938-.52149.60937-.52149 1.76953 0 1.10156.38672 1.66992t1.2832.56836q.48047 0 .96094-.18164.48633-.1875.89063-.49805z"/><path d="M89.41406-3.26953q0 1.5996-.82031 2.52539-.82031.92578-2.19727.92578-1.38867 0-2.20898-.92578-.81445-.92578-.81445-2.5254 0-1.5996.81445-2.52538.82031-.93164 2.20898-.93164 1.37696 0 2.19727.93164.82031.92578.82031 2.52539zm-1.13672 0q0-1.27149-.49804-1.88672-.49805-.6211-1.38282-.6211-.89648 0-1.39453.6211-.49218.61523-.49218 1.88672 0 1.23047.49804 1.86914.49805.63281 1.38867.63281.87891 0 1.37696-.62695.5039-.63281.5039-1.875z"/><path d="M95.20313-5.34375h-.0586q-.24609-.0586-.48046-.08203-.22852-.0293-.54492-.0293-.50977 0-.98438.22852-.47461.22265-.91406.58008V0h-1.10156v-6.54492h1.10156v.9668q.65625-.52735 1.1543-.74415.5039-.22265 1.02539-.22265.2871 0 .41601.01758.1289.01172.38672.05273z"/><path d="M97.42383-7.64063h-1.24219V-8.7832h1.24219zM97.35352 0h-1.10157v-6.54492h1.10157z"/><path d="M105.01172-3.1582h-4.82227q0 .60351.18164 1.05468.18164.44532.49805.73243.30469.28125.7207.42187.42188.14063.92579.14063.66796 0 1.34179-.26368.67969-.26953.9668-.52734h.0586v1.20117q-.55664.23438-1.13672.39258-.58007.1582-1.21875.1582-1.6289 0-2.54296-.8789-.91407-.88477-.91407-2.50782 0-1.60546.87305-2.54882.87891-.94336 2.30859-.94336 1.32422 0 2.03907.77344.7207.77343.7207 2.19726zm-1.07227-.84375q-.006-.8672-.43945-1.3418-.42773-.4746-1.30664-.4746-.88477 0-1.41211.52147-.52148.52149-.5918 1.29493z"/><path d="M111.35742-1.88672q0 .89649-.74414 1.4707-.73828.57422-2.02148.57422-.72657 0-1.33594-.16992-.60352-.17578-1.01367-.38086V-1.6289h.0586q.52149.39258 1.16016.62696.63867.22851 1.22461.22851.72656 0 1.13672-.23437.41015-.23438.41015-.73828 0-.38672-.22265-.58594-.22266-.19922-.85547-.33984-.23438-.05274-.61524-.12305-.375-.07031-.68554-.15235-.86133-.22851-1.22461-.66796-.35743-.44532-.35743-1.08985 0-.4043.16407-.76172.16992-.35742.50976-.63867.32813-.27539.83203-.4336.50977-.16405 1.13672-.16405.58594 0 1.1836.14648.60351.14062 1.00195.3457v1.17774h-.0586q-.42188-.31055-1.02539-.52149-.60352-.2168-1.1836-.2168-.60351 0-1.01953.23438-.41602.22852-.41602.68555 0 .4043.25196.60937.24609.20508.79687.33399.30469.0703.67969.14062.38086.07031.63281.1289.76758.17579 1.1836.60352.41601.4336.41601 1.14844z"/></g></svg>