<svg xmlns="http://www.w3.org/2000/svg" role="img" viewBox="-2.77 -2.77 144.17 17.05"><title>Cloud Carbon Footprint logo</title><g transform="translate(-.674 9.117)"><path d="M7.91016-.63281q-.32227.14062-.58594.26367-.25781.12305-.67969.25781-.35742.11133-.7793.1875-.41601.08203-.91992.08203-.94922 0-1.72851-.26367Q2.44336-.375 1.86914-.94336 1.30664-1.5.99024-2.35546.67382-3.2168.67382-4.35353q0-1.07812.30469-1.92773.30468-.8496.8789-1.43555.55664-.56836 1.3418-.86718.79101-.29883 1.75195-.29883.70313 0 1.4004.16992.70312.16992 1.55859.59766v1.37695h-.0879q-.7207-.60352-1.42968-.8789-.70899-.2754-1.51758-.2754-.6621 0-1.19531.2168-.52735.21094-.94336.6621-.4043.43946-.63281 1.11329-.22266.66797-.22266 1.54687 0 .91993.2461 1.58204.25195.6621.64452 1.07812.41016.4336.95508.64453.55078.20508 1.16016.20508.83789 0 1.57031-.2871.73242-.28712 1.3711-.86134h.08203z"/><path d="M10.57617 0H9.47461v-9.11719h1.10156z"/><path d="M18.33398-3.26953q0 1.5996-.8203 2.52539-.82032.92578-2.19727.92578-1.38868 0-2.20899-.92578-.81445-.92578-.81445-2.5254 0-1.5996.81445-2.52538.82031-.93164 2.20899-.93164 1.37695 0 2.19726.93164.82031.92578.82031 2.52539zm-1.13671 0q0-1.27149-.49805-1.88672-.49805-.6211-1.38281-.6211-.89649 0-1.39453.6211-.4922.61523-.4922 1.88672 0 1.23047.49805 1.86914.49805.63281 1.38868.63281.8789 0 1.37695-.62695.5039-.63281.5039-1.875z"/><path d="M25.46484 0h-1.10156v-.72656q-.55664.43945-1.0664.67383-.50977.23437-1.125.23437-1.03126 0-1.60547-.62695-.57422-.63282-.57422-1.85157v-4.24804h1.10156v3.72656q0 .49805.04687.85547.04687.35156.19922.60351.1582.25782.41015.375.25196.1172.73243.1172.42773 0 .93164-.22266.50976-.22266.94922-.56836v-4.88672h1.10156z"/><path d="M32.9414 0h-1.10156v-.68555q-.4746.41016-.99023.63867-.51563.22852-1.11914.22852-1.17188 0-1.86328-.90234-.68555-.90235-.68555-2.50196 0-.83203.23438-1.48242.24023-.65039.64453-1.10742.39843-.44531.92578-.67969.5332-.23437 1.10156-.23437.51563 0 .91406.11133.39844.10546.8379.33398v-2.83594h1.10156zm-1.10156-1.61133v-3.75586q-.4453-.19922-.79687-.27539-.35156-.07617-.76758-.07617-.92578 0-1.4414.64453-.51563.64453-.51563 1.82813 0 1.16601.39844 1.77539.39843.60351 1.27734.60351.46875 0 .94922-.20508.48047-.21093.89648-.53906z"/><path d="M46.1543-.63281q-.32227.14062-.58594.26367-.25781.12305-.67969.25781-.35742.11133-.7793.1875-.41601.08203-.91992.08203-.94922 0-1.72851-.26367-.77344-.26953-1.34766-.83789-.5625-.55664-.8789-1.4121-.31641-.86134-.31641-1.99806 0-1.07812.30469-1.92773.30468-.8496.8789-1.43555.55664-.56836 1.3418-.86718.79102-.29883 1.75195-.29883.70313 0 1.4004.16992.70312.16992 1.55859.59766v1.37695h-.0879q-.7207-.60352-1.42968-.8789-.70898-.2754-1.51758-.2754-.6621 0-1.19531.2168-.52735.21094-.94336.6621-.4043.43946-.63281 1.11329-.22266.66797-.22266 1.54687 0 .91993.2461 1.58204.25195.6621.64453 1.07812.41015.4336.95507.64453.55078.20508 1.16016.20508.8379 0 1.57031-.2871.73242-.28712 1.3711-.86134h.08203z"/><path d="M52.79297 0h-1.0957v-.69727q-.14649.09961-.39844.28125-.2461.17579-.48047.28125-.2754.13477-.63281.22266-.35742.09375-.8379.09375-.88476 0-1.5-.58594-.61523-.58593-.61523-1.49414 0-.74414.3164-1.20117.32227-.46289.91407-.72656.59766-.26367 1.43555-.35742.83789-.09375 1.79883-.14063v-.16992q0-.375-.13477-.6211-.1289-.24609-.375-.38671-.23438-.13477-.5625-.18164-.32813-.04688-.68555-.04688-.4336 0-.9668.11719-.5332.11133-1.10156.32812h-.05859V-6.4043q.32227-.08789.93164-.19336.60938-.10547 1.20117-.10547.6914 0 1.20117.1172.51563.11132.89063.38671.36914.26953.5625.69727.19336.42773.19336 1.06054zm-1.0957-1.61133v-1.82226q-.50391.0293-1.18946.08789-.67968.0586-1.07812.16992-.47461.13476-.76758.42187-.29297.28125-.29297.7793 0 .5625.33984.84961.33985.28125 1.03711.28125.58008 0 1.06055-.22266.48047-.22851.89063-.54492z"/><path d="M58.99805-5.34375h-.0586q-.24609-.0586-.48046-.08203-.22852-.0293-.54492-.0293-.50977 0-.98438.22852-.4746.22265-.91406.58008V0h-1.10156v-6.54492h1.10156v.9668q.65625-.52735 1.1543-.74415.5039-.22265 1.02539-.22265.2871 0 .41601.01758.1289.01172.38672.05273z"/><path d="M65.79492-3.32227q0 .82032-.23437 1.47657-.22852.65625-.6211 1.10156-.41601.46289-.91406.69726-.49805.22852-1.0957.22852-.55664 0-.97266-.13477-.41601-.1289-.82031-.35156L61.0664 0h-1.03125v-9.11719h1.10156v3.25782q.46289-.38086.98437-.6211.52149-.2461 1.17188-.2461 1.16016 0 1.82812.89063.67383.89063.67383 2.51367zm-1.13672.0293q0-1.17187-.38672-1.77539-.38671-.60937-1.24804-.60937-.48047 0-.97266.21093-.49219.20508-.91406.5332v3.75q.46875.21094.80273.29298.33985.08203.76758.08203.91406 0 1.42969-.59766.52148-.60352.52148-1.88672z"/><path d="M73.08984-3.26953q0 1.5996-.8203 2.52539-.82032.92578-2.19727.92578-1.38868 0-2.20899-.92578-.81445-.92578-.81445-2.5254 0-1.5996.81445-2.52538.82031-.93164 2.20899-.93164 1.37695 0 2.19726.93164.82031.92578.82031 2.52539zm-1.13671 0q0-1.27149-.49805-1.88672-.49805-.6211-1.38281-.6211-.89649 0-1.39454.6211-.49218.61523-.49218 1.88672 0 1.23047.49804 1.86914.49805.63281 1.38868.63281.8789 0 1.37695-.62695.5039-.63281.5039-1.875z"/><path d="M80.26758 0h-1.10156v-3.72656q0-.45117-.05273-.84375-.05273-.39844-.19336-.6211-.14649-.24609-.42188-.36328-.27539-.12304-.71484-.12304-.45117 0-.94336.22265-.49219.22266-.94336.56836V0h-1.10156v-6.54492h1.10156v.72656q.51562-.42773 1.0664-.66797.55079-.24023 1.13086-.24023 1.06055 0 1.6172.63867.55663.63867.55663 1.83984z"/><path d="M92.26758-7.69336h-4.41211v2.46094h3.79101v1.03125h-3.79101V0H86.6953v-8.7246h5.57227z"/><path d="M98.78906-3.26953q0 1.5996-.82031 2.52539-.82031.92578-2.19727.92578-1.38867 0-2.20898-.92578-.81445-.92578-.81445-2.5254 0-1.5996.81445-2.52538.82031-.93164 2.20898-.93164 1.37696 0 2.19727.93164.82031.92578.82031 2.52539zm-1.13672 0q0-1.27149-.49804-1.88672-.49805-.6211-1.38282-.6211-.89648 0-1.39453.6211-.49218.61523-.49218 1.88672 0 1.23047.49804 1.86914.49805.63281 1.38867.63281.87891 0 1.37696-.62695.5039-.63281.5039-1.875z"/><path d="M106.07227-3.26953q0 1.5996-.82032 2.52539-.82031.92578-2.19726.92578-1.38867 0-2.20899-.92578-.81445-.92578-.81445-2.5254 0-1.5996.81445-2.52538.82032-.93164 2.20899-.93164 1.37695 0 2.19726.93164.82032.92578.82032 2.52539zm-1.13672 0q0-1.27149-.49805-1.88672-.49805-.6211-1.38281-.6211-.89649 0-1.39453.6211-.49219.61523-.49219 1.88672 0 1.23047.49805 1.86914.49804.63281 1.38867.63281.8789 0 1.37695-.62695.50391-.63281.50391-1.875z"/><path d="M111.17578-.0586q-.31055.08204-.67969.13477-.36328.05274-.65039.05274-1.00195 0-1.52343-.53907-.52149-.53906-.52149-1.72851v-3.48047h-.74414v-.92578h.74414v-1.88086h1.10156v1.88086h2.27344v.92578h-2.27344v2.98242q0 .51563.0234.8086.0234.2871.16406.53906.12891.23437.35157.3457.22851.10547.6914.10547.26953 0 .5625-.07617.29297-.08203.42188-.13477h.0586z"/><path d="M118.26563-3.35156q0 .79687-.22852 1.45898-.22852.65625-.64453 1.11328-.38672.4336-.91406.67383-.52149.23438-1.10743.23438-.50976 0-.92578-.11133-.41015-.11133-.83789-.3457v2.74218h-1.10156v-8.95898h1.10156v.68554q.43946-.36914.98438-.61523.55078-.25195 1.17187-.25195 1.1836 0 1.83985.89648.66211.89063.66211 2.47852zm-1.13672.0293q0-1.1836-.4043-1.76954-.4043-.58593-1.24219-.58593-.47461 0-.95508.20507-.48046.20508-.91992.53907v3.70898q.46875.21094.80274.28711.33984.07617.76757.07617.91993 0 1.43555-.6211.51563-.62109.51563-1.83984z"/><path d="M124.06641-5.34375h-.0586q-.24609-.0586-.48047-.08203-.22851-.0293-.54492-.0293-.50976 0-.98437.22852-.47461.22265-.91407.58008V0h-1.10156v-6.54492h1.10156v.9668q.65625-.52735 1.1543-.74415.50391-.22265 1.02539-.22265.28711 0 .41602.01758.1289.01172.38672.05273z"/><path d="M126.28711-7.64063h-1.24219V-8.7832h1.24219zM126.2168 0h-1.10157v-6.54492h1.10157z"/><path d="M133.86914 0h-1.10156v-3.72656q0-.45117-.0527-.84375-.0527-.39844-.19336-.6211-.14648-.24609-.42187-.36328-.27539-.12304-.71484-.12304-.45118 0-.94336.22265-.49219.22266-.94336.56836V0h-1.10157v-6.54492h1.10157v.72656q.51562-.42773 1.0664-.66797.55078-.24023 1.13086-.24023 1.06055 0 1.61719.63867.55664.63867.55664 1.83984z"/><path d="M139.38867-.0586q-.31055.08204-.67969.13477-.36328.05274-.65039.05274-1.00195 0-1.52343-.53907-.52149-.53906-.52149-1.72851v-3.48047h-.74414v-.92578h.74414v-1.88086h1.10156v1.88086h2.27344v.92578h-2.27344v2.98242q0 .51563.0234.8086.0234.2871.16406.53906.12891.23437.35157.3457.22851.10547.6914.10547.26953 0 .5625-.07617.29297-.08203.42188-.13477h.0586z"/></g></svg>