<svg xmlns="http://www.w3.org/2000/svg" role="img" viewBox="92.63 47.88 227.24 50.49"><title>CoMPAS logo</title><path d="M128.62012 92.29297c-1.68018.83984-5.45996 1.74023-10.37988 1.74023-13.979 0-21.17871-8.7002-21.17871-20.21973 0-13.79883 9.83936-21.47852 22.0791-21.47852 4.73975 0 8.33936.95996 9.95947 1.7998l-1.85986 7.25977c-1.85986-.78027-4.43994-1.5-7.67969-1.5-7.25977 0-12.89941 4.37988-12.89941 13.37891 0 8.09961 4.7998 13.19922 12.95947 13.19922 2.75977 0 5.81982-.59961 7.61963-1.31934l1.37988 7.13966zm33.53906-13.85938c0 10.73926-7.61963 15.65918-15.47949 15.65918-8.57959 0-15.1792-5.63965-15.1792-15.11914s6.23975-15.54004 15.65918-15.54004c8.99951 0 14.99951 6.18067 14.99951 15zm-21.23926.29981c0 5.04004 2.1001 8.81934 6 8.81934 3.53955 0 5.81982-3.53906 5.81982-8.81934 0-4.37988-1.68018-8.81934-5.81982-8.81934-4.37988 0-6 4.5-6 8.81934zm61.37891-.78028c-.17969-4.85938-.35986-10.73926-.35986-16.61914h-.17969c-1.26025 5.16016-2.93994 10.91992-4.5 15.65918l-4.91992 15.7793h-7.13965l-4.31982-15.65918c-1.31982-4.73926-2.69971-10.49902-3.65967-15.7793h-.12012c-.23975 5.45996-.41992 11.69922-.72021 16.73926l-.71973 15.35938h-8.45947l2.57959-40.43848h12.17969l3.95996 13.5c1.25977 4.67969 2.51953 9.71973 3.41992 14.45898h.17969c1.14014-4.67969 2.52002-10.01953 3.83984-14.51953l4.31982-13.43945h11.93945l2.22021 40.43848h-8.93994l-.60009-15.4795zm16.56103-24.41894c2.81982-.47949 6.77979-.83984 12.35938-.83984 5.63965 0 9.65967 1.08008 12.35938 3.24023 2.58008 2.04004 4.31982 5.39941 4.31982 9.35938s-1.31982 7.31934-3.71973 9.59961c-3.12012 2.93945-7.73975 4.25977-13.13965 4.25977-1.19971 0-2.27979-.05957-3.11963-.17969v14.45898h-9.05957V53.53418zm9.05957 18.35937c.77979.17969 1.73975.24023 3.06006.24023 4.85938 0 7.85938-2.45996 7.85938-6.59961 0-3.71973-2.58008-5.94043-7.13965-5.94043-1.85986 0-3.12012.18066-3.77979.36035v11.93946zm31.61963 11.16016l-2.87988 10.37891h-9.47949l12.35938-40.43848h11.99951l12.53955 40.43848h-9.83984l-3.11963-10.37891h-11.5796zm10.25977-6.83984l-2.52002-8.58008c-.72021-2.39941-1.43994-5.39941-2.04004-7.7998h-.11963c-.6001 2.40039-1.2002 5.45996-1.86035 7.7998l-2.3999 8.58008h8.93994zm19.98047 7.7998c2.45996 1.25977 6.24023 2.51953 10.13965 2.51953 4.2002 0 6.41992-1.74023 6.41992-4.37988 0-2.51953-1.91992-3.95996-6.78027-5.7002-6.71973-2.33984-11.09961-6.05957-11.09961-11.93945 0-6.89941 5.75977-12.17871 15.2998-12.17871 4.55957 0 7.91992.95996 10.31934 2.03906l-2.04004 7.37988c-1.61914-.7793-4.49902-1.91992-8.45898-1.91992s-5.87988 1.7998-5.87988 3.90039c0 2.5791 2.2793 3.71973 7.5 5.69922 7.13965 2.63965 10.49902 6.36035 10.49902 12.05957 0 6.78027-5.21973 12.54004-16.31934 12.54004-4.62012 0-9.17969-1.2002-11.45898-2.45996l1.85937-7.55957z"/></svg>