<?xml version="1.0" encoding="utf-8"?>
<!-- Generator: Adobe Illustrator 24.1.3, SVG Export Plug-In . SVG Version: 6.00 Build 0)  -->
<svg version="1.1" id="Layer_1" xmlns="http://www.w3.org/2000/svg" xmlns:xlink="http://www.w3.org/1999/xlink" x="0px" y="0px"
	 viewBox="0 0 400 125" style="enable-background:new 0 0 400 125;" xml:space="preserve">
<style type="text/css">
	.st0{opacity:0.8;}
	.st1{opacity:0.5;}
	.st2{opacity:0.65;}
	.st3{fill:#009ADE;}
	.st4{fill:none;}
	.st5{fill:#003764;}
	.st6{fill:#D1D1D1;}
	.st7{opacity:0.5;fill:#009ADE;}
	.st8{fill:#FFFFFF;}
	.st9{opacity:0.8;fill:#FFFFFF;}
	.st10{opacity:0.5;fill:#FFFFFF;}
	.st11{opacity:0.65;fill:#FFFFFF;}
	.st12{fill:none;stroke:#000000;stroke-width:0;stroke-linecap:round;stroke-linejoin:round;}
</style>
<g>
	<g>
		<path class="st3" d="M171.6,92.9v1.2c0,10.6-4.3,20.9-18,20.9c-14.8,0-19.3-9.5-19.3-30.4c0-20.9,4.6-30.4,19.4-30.4
			c16.6,0,17.6,12.3,17.6,18.4v1.1h-9.3v-1c0-5.4-1.6-11.6-8.4-11.4c-6.9,0-10,4.3-10,23.1c0,18.9,3.1,23.6,10,23.6
			c7.8,0,8.7-8.7,8.7-14.1v-1H171.6z"/>
		<path class="st3" d="M193.9,68.6c12.9,0,16.5,9.5,16.5,23.2s-4.2,23.2-16.5,23.2c-12.2,0-16.4-9.5-16.4-23.2
			S181.1,68.6,193.9,68.6z M193.9,108.4c6.5,0,7.6-5.4,7.6-16.6c0-9.8-1.1-16.6-7.6-16.6c-6.4,0-7.5,6.9-7.5,16.6
			C186.4,103,187.5,108.4,193.9,108.4z"/>
		<path class="st3" d="M219.4,55.3H234l10.3,43.4h0.2l10.2-43.4h14.3v58.5h-8.9V65.1h-0.2l-11.8,48.7h-7.9l-11.8-48.7h-0.2v48.7
			h-8.9V55.3z"/>
		<path class="st3" d="M280.2,55.3h18.5c11.2,0,16.2,7.1,16.2,17.1c0,10.5-6.1,17.3-17.1,17.3h-8.2v24.2h-9.3V55.3z M289.6,82.6h6.6
			c5,0,9.3-2.7,9.3-10.1c0-6.3-2.5-10.2-10-10.2h-6V82.6z"/>
		<path class="st3" d="M330.9,55.3h12l15.4,58.5h-9.8l-3.6-14.3h-17.1l-3.8,14.3h-9.8L330.9,55.3z M343.4,92l-6.7-28.9h-0.2l-7,28.9
			H343.4z"/>
		<path class="st3" d="M371.2,95.7v1.5c0,7.1,3.1,10.7,9.6,10.7c5.9,0,8.9-4.2,8.9-8.5c0-6.1-3.1-8.9-8.4-10.4l-6.4-2.2
			c-8.5-3.3-12.2-7.7-12.2-16.1c0-10.7,7.2-16.6,18.2-16.6c15,0,16.6,9.3,16.6,15.4v1.3h-9.3v-1.2c0-5.3-2.4-8.4-8.2-8.4
			c-4,0-7.9,2.2-7.9,8.4c0,5,2.5,7.5,8.8,9.9l6.3,2.3c8.3,3,11.9,7.5,11.9,15.5c0,12.5-7.5,17.6-19.3,17.6
			c-14.5,0-17.8-9.7-17.8-17.9v-1.4H371.2z"/>
	</g>
	<path class="st4" d="M289.7,20.5c0-1.8-0.6-3.2-1.7-4c-1.1-0.9-3-1.3-5.6-1.3h-4v10.7h0.1h4.7c2.1,0,3.7-0.4,4.9-1.4
		C289.1,23.6,289.7,22.2,289.7,20.5z"/>
	<polygon class="st3" points="141.8,23.2 136.8,23.2 136.8,37.8 151.5,37.8 151.5,33 141.8,33 	"/>
	<polygon class="st5" points="136.8,20.7 141.7,20.7 141.7,18.3 156.4,18.3 156.4,33 154,33 154,37.8 161.3,37.8 161.3,13.4 
		136.8,13.4 	"/>
	<polygon class="st5" points="175.2,13.6 167.8,13.6 167.8,37.8 185.9,37.8 185.9,31.6 175.2,31.6 	"/>
	<polygon class="st5" points="189.1,37.8 196.6,37.8 196.6,28.6 206.3,28.6 206.3,22.9 196.6,22.9 196.6,19.8 207.8,19.8 
		207.8,13.6 189.1,13.6 	"/>
	<polygon class="st3" points="213.5,38 227,38 227,36.4 215.3,36.4 215.3,26 226.4,26 226.4,24.4 215.3,24.4 215.3,15.2 227,15.2 
		227,13.6 213.5,13.6 	"/>
	<path class="st3" d="M249,29.5c0,1.8,0.1,3.7,0.2,5.7H249l-14.7-21.6h-1.7v24.3h1.6V22.1c0-1.3-0.1-3.2-0.2-5.8h0.1L248.8,38h1.8
		h0.1V13.6H249V29.5z"/>
	<polygon class="st3" points="257.6,38 271.1,38 271.1,36.4 259.4,36.4 259.4,26 270.5,26 270.5,24.4 259.4,24.4 259.4,15.2 
		271.1,15.2 271.1,13.6 257.6,13.6 	"/>
	<path class="st3" d="M290.3,24.5c0.9-1.1,1.3-2.5,1.3-4.2c0-2.3-0.8-3.9-2.2-5.1c-1.5-1.1-3.8-1.7-6.8-1.7h-5.9V38h1.7V27.3
		l6.1,0.1L291,38h2.1l-6.7-11.1C288.1,26.5,289.4,25.6,290.3,24.5z M283.1,25.9h-4.7h-0.1V15.2h4c2.6,0,4.4,0.4,5.6,1.3
		c1.1,0.8,1.7,2.2,1.7,4c0,1.8-0.6,3.1-1.7,4C286.9,25.5,285.2,25.9,283.1,25.9z"/>
	<path class="st3" d="M306.9,27h7.2v8.3c-1.6,0.6-3.5,0.9-5.7,0.9c-3.5,0-6.1-0.9-7.8-2.7c-1.8-1.8-2.7-4.5-2.7-8.1
		c0-3.3,0.9-5.9,2.8-7.8c1.8-2,4.4-2.9,7.6-2.9c2.2,0,4.4,0.5,6.5,1.5l0.7-1.5c-2.1-0.9-4.5-1.5-7.1-1.5c-2.5,0-4.6,0.5-6.5,1.5
		c-1.9,1-3.3,2.5-4.4,4.4c-1,1.9-1.5,4-1.5,6.4c0,3.9,1,6.9,3,9c2,2.1,5,3.2,8.8,3.2c2.9,0,5.6-0.4,7.9-1.5V25.4h-8.9L306.9,27z"/>
	<polygon class="st3" points="334.7,13.6 327.5,26.8 320.3,13.6 318.3,13.6 326.5,28.6 326.5,37.8 328.3,37.8 328.3,28.4 
		336.5,13.6 	"/>
	<g>
		<path class="st4" d="M51.1,26.8c0.4-0.1,0.7-0.3,1.1-0.4C51.9,26.5,51.5,26.6,51.1,26.8z"/>
		<path class="st4" d="M61.8,24.3c0.5-0.1,1-0.1,1.5-0.1C62.8,24.2,62.3,24.2,61.8,24.3z"/>
		<path class="st4" d="M91.9,81.9c0.1-0.2,0.3-0.4,0.4-0.6c3.3-5.5,5.2-11.9,5.2-18.8c0-20-16.3-36.3-36.3-36.3
			c-10.4,0-19.8,4.4-26.5,11.5c-1.7,1.8-3.2,3.7-4.5,5.8c-3.4,5.5-5.4,12.1-5.4,19.1c0,20,16.3,36.3,36.3,36.3
			c4.7,0,9.1-0.9,13.2-2.5C81.4,93.1,87.5,88.1,91.9,81.9z M64.7,64.9l-0.1,0.2L44.7,87l12.7-26.6l0.3-0.5L77.6,38L64.7,64.9z"/>
		<path class="st4" d="M23.7,58.1c-0.1,0.3-0.1,0.6-0.2,0.9C23.6,58.8,23.7,58.5,23.7,58.1z"/>
		<polygon class="st3" points="57.5,60.4 44.7,87 64.6,65.1 64.7,64.9 77.6,38 57.8,59.9 		"/>
		<polygon class="st6" points="17.6,35.9 17.6,35.9 17.6,35.9 		"/>
		<polygon class="st7" points="17.6,35.9 17.6,35.9 17.6,35.9 		"/>
		<path class="st6" d="M113.3,63.1l8.2-5c-0.4-6.2-1.8-12.3-4.2-18.1l-9.5-0.9c-1.1-0.1-1.7-1.3-1.2-2.2l4.6-8.4
			c-3.5-5.2-7.7-9.7-12.7-13.6l-8.6,4c-1,0.4-2.1-0.2-2.1-1.3l-0.2-9.5C81.9,5.4,76,3.6,69.8,2.7l-5.5,7.8c-0.3,0.4-0.8,0.6-1.3,0.6
			c-0.5,0-1-0.3-1.2-0.7l-5-8.2c-6.2,0.4-12.3,1.8-18.1,4.2l-0.9,9.5c0,0.5-0.3,0.9-0.8,1.2c-0.4,0.2-1,0.2-1.4,0l-8.4-4.6
			c-5.2,3.5-9.7,7.8-13.6,12.7l4,8.7c0.1,0.2,0.1,0.5,0.1,0.7c0,0.2-0.1,0.5-0.2,0.9c0,0,0,0.1,0,0.1c0,0.1-0.1,0.2-0.1,0.3
			c0,0,0,0,0,0v0c-0.1,0.4-0.3,0.8-0.5,1.3c-0.1,0.3-0.3,0.6-0.4,0.8c0,0,0,0,0,0c-0.1,0.1-0.1,0.2-0.2,0.3c-2.6,5.6-4,11.7-4,18.3
			c0,14.1,6.6,26.6,16.9,34.6c1.9,1.5,3.9,2.8,6,3.9c6.2,3.3,13.3,5.3,20.8,5.3c6.5,0,12.7-1.4,18.2-4c-4.1,1.6-8.6,2.5-13.2,2.5
			c-20,0-36.3-16.3-36.3-36.3c0-7,2-13.5,5.4-19.1c1.3-2.1,2.8-4,4.5-5.8c0,0,0.2-0.3,0.4-0.4c0.3-0.3,0.5-0.5,0.8-0.8
			c0.2-0.2,0.5-0.5,0.7-0.7c0.3-0.3,0.5-0.5,0.8-0.8c0.3-0.2,0.5-0.4,0.8-0.7c0.3-0.2,0.6-0.5,0.9-0.7c0.3-0.2,0.5-0.4,0.8-0.6
			c0.3-0.2,0.6-0.4,0.9-0.7c0.3-0.2,0.5-0.4,0.8-0.6c0.3-0.2,0.6-0.4,0.9-0.6c0.3-0.2,0.6-0.4,0.9-0.5c0.3-0.2,0.6-0.4,1-0.6
			c0.3-0.2,0.6-0.3,0.9-0.5c0.3-0.2,0.7-0.4,1-0.5c0.3-0.2,0.6-0.3,0.9-0.5c0.3-0.2,0.7-0.3,1-0.5c0.3-0.1,0.6-0.3,0.9-0.4
			c0.4-0.2,0.7-0.3,1.1-0.4c0.3-0.1,0.6-0.3,0.9-0.4c0.4-0.1,0.7-0.3,1.1-0.4c0.3-0.1,0.6-0.2,0.9-0.3c0.4-0.1,0.8-0.2,1.1-0.3
			c0.3-0.1,0.6-0.2,1-0.3c0.4-0.1,0.8-0.2,1.2-0.3c0.3-0.1,0.6-0.2,0.9-0.2c0.4-0.1,0.8-0.2,1.2-0.2c0.3-0.1,0.6-0.1,0.9-0.2
			c0.4-0.1,0.9-0.1,1.3-0.2c0.3,0,0.6-0.1,0.9-0.1c0.5-0.1,1-0.1,1.5-0.1c0.3,0,0.5,0,0.8-0.1c0.8,0,1.5-0.1,2.3-0.1
			c6.1,0,11.9,1.3,17.2,3.5c3.4,1.5,6.6,3.4,9.5,5.6c10.3,8,16.9,20.5,16.9,34.6c0,0.8,0,1.5-0.1,2.3c0,0.3,0,0.5-0.1,0.8
			c0,0.5-0.1,1-0.1,1.5c0,0.3-0.1,0.6-0.1,0.9c-0.1,0.4-0.1,0.9-0.2,1.3c0,0.3-0.1,0.6-0.2,0.9c-0.1,0.4-0.1,0.9-0.2,1.3
			c-0.1,0.3-0.1,0.6-0.2,0.9c-0.1,0.4-0.2,0.8-0.3,1.2c-0.1,0.3-0.2,0.6-0.3,0.9c-0.1,0.4-0.2,0.8-0.3,1.2c-0.1,0.3-0.2,0.6-0.3,0.9
			c-0.1,0.4-0.3,0.8-0.4,1.2c-0.1,0.3-0.2,0.6-0.3,0.9c-0.2,0.4-0.3,0.8-0.5,1.1c-0.1,0.3-0.3,0.6-0.4,0.9c-0.2,0.4-0.3,0.7-0.5,1.1
			c0,0.1-0.1,0.1-0.1,0.2c0,0.1-0.1,0.1-0.1,0.2c-1,2-0.9,3-0.9,3.2c0-0.3,0-0.5,0.2-0.8c0,0,0-0.1,0.1-0.1c0.1-0.1,0.1-0.2,0.2-0.3
			c0.3-0.3,0.6-0.4,1-0.4l9.6-0.2c2.7-5.6,4.6-11.6,5.4-17.8l-7.8-5.5C112.3,65,112.4,63.7,113.3,63.1z M23.5,59.1
			c0.1-0.3,0.1-0.6,0.2-0.9C23.7,58.5,23.6,58.8,23.5,59.1z"/>
		<path class="st3" d="M105.4,87.4c0-0.1,0.1-0.2,0.1-0.2c0-0.1,0.1-0.1,0.1-0.2c0.2-0.4,0.3-0.7,0.5-1.1c0.1-0.3,0.3-0.6,0.4-0.9
			c0.2-0.4,0.3-0.8,0.5-1.1c0.1-0.3,0.2-0.6,0.3-0.9c0.1-0.4,0.3-0.8,0.4-1.2c0.1-0.3,0.2-0.6,0.3-0.9c0.1-0.4,0.2-0.8,0.3-1.2
			c0.1-0.3,0.2-0.6,0.3-0.9c0.1-0.4,0.2-0.8,0.3-1.2c0.1-0.3,0.1-0.6,0.2-0.9c0.1-0.4,0.2-0.8,0.2-1.3c0.1-0.3,0.1-0.6,0.2-0.9
			c0.1-0.4,0.1-0.9,0.2-1.3c0-0.3,0.1-0.6,0.1-0.9c0.1-0.5,0.1-1,0.1-1.5c0-0.3,0-0.5,0.1-0.8c0-0.8,0.1-1.5,0.1-2.3
			c0-14.1-6.6-26.6-16.9-34.6c-2.9-2.3-6.1-4.2-9.5-5.6C78.3,25.3,72.5,24,66.4,24c-0.8,0-1.5,0-2.3,0.1c-0.3,0-0.5,0-0.8,0.1
			c-0.5,0-1,0.1-1.5,0.1c-0.3,0-0.6,0.1-0.9,0.1c-0.4,0.1-0.9,0.1-1.3,0.2c-0.3,0-0.6,0.1-0.9,0.2c-0.4,0.1-0.8,0.1-1.2,0.2
			c-0.3,0.1-0.6,0.1-0.9,0.2c-0.4,0.1-0.8,0.2-1.2,0.3c-0.3,0.1-0.6,0.2-1,0.3c-0.4,0.1-0.8,0.2-1.1,0.3c-0.3,0.1-0.6,0.2-0.9,0.3
			c-0.4,0.1-0.7,0.3-1.1,0.4c-0.3,0.1-0.6,0.2-0.9,0.4c-0.4,0.1-0.7,0.3-1.1,0.4c-0.3,0.1-0.6,0.3-0.9,0.4c-0.3,0.2-0.7,0.3-1,0.5
			c-0.3,0.1-0.6,0.3-0.9,0.5c-0.3,0.2-0.7,0.4-1,0.5c-0.3,0.2-0.6,0.3-0.9,0.5c-0.3,0.2-0.7,0.4-1,0.6c-0.3,0.2-0.6,0.4-0.9,0.5
			c-0.3,0.2-0.6,0.4-0.9,0.6c-0.3,0.2-0.6,0.4-0.8,0.6c-0.3,0.2-0.6,0.4-0.9,0.7c-0.3,0.2-0.5,0.4-0.8,0.6c-0.3,0.2-0.6,0.5-0.9,0.7
			c-0.3,0.2-0.5,0.4-0.8,0.7c-0.3,0.2-0.6,0.5-0.8,0.8c-0.2,0.2-0.5,0.5-0.7,0.7c-0.3,0.3-0.5,0.5-0.8,0.8c-0.1,0.1-0.4,0.4-0.4,0.4
			c6.6-7,16-11.5,26.5-11.5c20,0,36.3,16.3,36.3,36.3c0,6.9-1.9,13.3-5.2,18.8c-0.1,0.2-0.3,0.4-0.4,0.6
			c-4.4,6.2-10.4,11.2-17.4,14.5c-5.5,2.5-11.7,4-18.2,4c-7.5,0-14.6-1.9-20.8-5.3c-2.1-1.1-4.1-2.5-6-3.9
			c-10.3-8-16.9-20.5-16.9-34.6c0-6.5,1.4-12.7,4-18.3c0-0.1,0.1-0.2,0.2-0.3c0,0,0,0,0,0c0.1-0.3,0.3-0.6,0.4-0.8
			c0.2-0.5,0.4-0.9,0.5-1.3c0,0,0,0,0,0c0-0.1,0.1-0.2,0.1-0.3c0,0,0-0.1,0-0.1c0.1-0.4,0.1-0.7,0.2-0.9c0,0.3-0.2,0.6-0.4,0.9
			c0,0,0,0.1-0.1,0.1c-0.3,0.2-0.6,0.4-1,0.4l-9.5,0.2c-2.7,5.6-4.5,11.6-5.4,17.8l7.8,5.5c0.4,0.3,0.6,0.8,0.6,1.3
			c0,0.5-0.3,1-0.7,1.2l-8.2,5c0.4,6.2,1.8,12.3,4.2,18.1l9.5,0.9c0.5,0,0.9,0.3,1.2,0.8c0.2,0.4,0.2,1,0,1.4l-4.6,8.3
			c3.5,5.1,7.7,9.7,12.6,13.6l8.7-4c0.5-0.2,1-0.2,1.4,0.1c0.4,0.3,0.7,0.7,0.7,1.2l0.2,9.6c5.6,2.7,11.5,4.6,17.7,5.4l5.5-7.8
			c0.3-0.4,0.8-0.6,1.3-0.6c0.5,0,1,0.3,1.2,0.7l5,8.2c6.2-0.4,12.3-1.8,18.1-4.2l0.9-9.5c0.1-1.1,1.3-1.7,2.2-1.2l8.4,4.6
			c5.2-3.5,9.7-7.8,13.6-12.7l-4-8.6c-0.1-0.2-0.1-0.3-0.1-0.5l0,0c0,0,0,0,0,0c0,0,0,0,0,0C104.5,90.4,104.4,89.4,105.4,87.4z"/>
	</g>
</g>
</svg>
