<svg xmlns="http://www.w3.org/2000/svg" role="img" viewBox="-6.53 -6.53 326.82 85.32"><title>CODED logo</title><path d="M246.201 71.201h-42v-70h42v8.2h-32.5v21.3h28v8h-28v24.3h32.5v8.2zm-197.3-67.6l-2.9 8q-3.1-1.5-6.35-2.4-2.793-.774-6.436-.883a40.705 40.705 0 0 0-1.214-.017 21.173 21.173 0 0 0-7.905 1.455 19.981 19.981 0 0 0-3.545 1.845 21.167 21.167 0 0 0-6.366 6.581 26.978 26.978 0 0 0-1.584 2.919q-2.9 6.2-2.9 15 0 8.4 2.85 14.7a25.677 25.677 0 0 0 3.586 5.828 21.423 21.423 0 0 0 4.314 3.972 19.703 19.703 0 0 0 11.145 3.496 23.894 23.894 0 0 0 .405.004 33.715 33.715 0 0 0 3.971-.222q2.476-.294 4.529-.978 3.6-1.2 7-3.1l2.9 7.9a37.561 37.561 0 0 1-4.495 2.044 47.894 47.894 0 0 1-3.955 1.306 33.592 33.592 0 0 1-4.966.991q-2.481.314-5.279.353a57.414 57.414 0 0 1-.805.006 32.384 32.384 0 0 1-9.325-1.301 27.961 27.961 0 0 1-6.775-3.049 28.6 28.6 0 0 1-9.877-10.446 34.916 34.916 0 0 1-1.023-1.954 37.611 37.611 0 0 1-3.1-9.717q-.775-4.266-.8-9.12a62.816 62.816 0 0 1 0-.313q0-10.7 3.95-18.95t11.2-12.9A29.371 29.371 0 0 1 27.831.239a37.292 37.292 0 0 1 4.27-.238 45.639 45.639 0 0 1 5.058.268 35.2 35.2 0 0 1 4.042.682 38.224 38.224 0 0 1 7.474 2.544 35.605 35.605 0 0 1 .226.106zm87.1 67.4v-69.6q4.7-.5 9.2-.75a151.31 151.31 0 0 1 4.186-.171q2.851-.079 6.114-.079a48.608 48.608 0 0 1 7.344.526q3.934.602 7.266 1.891a29.198 29.198 0 0 1 .94.383 30.978 30.978 0 0 1 7.289 4.32 27.223 27.223 0 0 1 3.511 3.38q4.25 4.9 6.3 11.35a44.256 44.256 0 0 1 1.971 10.995 51.506 51.506 0 0 1 .079 2.855 45.309 45.309 0 0 1-1.482 11.697 41.802 41.802 0 0 1-.618 2.103q-2.1 6.5-6.45 11.45-4.35 4.95-11.1 7.8-6.276 2.649-14.842 2.835a60.192 60.192 0 0 1-1.308.015 186.98 186.98 0 0 1-4.071-.043q-2.015-.044-3.807-.133a101.5 101.5 0 0 1-2.072-.124q-4.25-.3-8.45-.7zm123.7 0v-69.6q4.7-.5 9.2-.75a151.31 151.31 0 0 1 4.186-.171q2.851-.079 6.114-.079a48.608 48.608 0 0 1 7.344.526q3.934.602 7.266 1.891a29.198 29.198 0 0 1 .94.383 30.978 30.978 0 0 1 7.289 4.32 27.223 27.223 0 0 1 3.511 3.38q4.25 4.9 6.3 11.35a44.256 44.256 0 0 1 1.971 10.995 51.506 51.506 0 0 1 .079 2.855 45.309 45.309 0 0 1-1.482 11.697 41.802 41.802 0 0 1-.618 2.103q-2.1 6.5-6.45 11.45-4.35 4.95-11.1 7.8-6.276 2.649-14.842 2.835a60.192 60.192 0 0 1-1.308.015 186.98 186.98 0 0 1-4.071-.043q-2.015-.044-3.807-.133a101.5 101.5 0 0 1-2.072-.124q-4.25-.3-8.45-.7zm-178.392.642a36.51 36.51 0 0 0 7.592.758 38.35 38.35 0 0 0 5.161-.337 30.074 30.074 0 0 0 8.739-2.513q6.1-2.85 10.4-7.8 4.3-4.95 6.55-11.55 2.25-6.6 2.25-14.1a48.215 48.215 0 0 0-.079-2.778 41.439 41.439 0 0 0-2.171-11.222q-2.25-6.5-6.55-11.5t-10.45-7.8A29.925 29.925 0 0 0 96.859.838a36.42 36.42 0 0 0-7.958-.837 39.35 39.35 0 0 0-6.228.475 29.661 29.661 0 0 0-11.472 4.275q-7.4 4.75-11.35 12.9a37.989 37.989 0 0 0-2.836 8.113 46.182 46.182 0 0 0-1.114 10.337 48.913 48.913 0 0 0 .035 1.86 42.769 42.769 0 0 0 2.215 12.24 39.376 39.376 0 0 0 .439 1.222 34.353 34.353 0 0 0 6.061 10.328q4.25 4.95 10.35 7.8a29.142 29.142 0 0 0 6.308 2.092zm7.592-7.442a26.517 26.517 0 0 0 5.948-.635 19.316 19.316 0 0 0 6.952-3.065 22.47 22.47 0 0 0 7.325-8.871 27.252 27.252 0 0 0 .525-1.179 34.108 34.108 0 0 0 2.322-8.929 43.503 43.503 0 0 0 .328-5.421q0-5.4-1.6-10.4a29.735 29.735 0 0 0-4.14-8.327 28.121 28.121 0 0 0-.46-.623q-3-3.95-7.35-6.25a19.921 19.921 0 0 0-7.417-2.182 24.578 24.578 0 0 0-2.433-.118 24.086 24.086 0 0 0-6.493.84 19.545 19.545 0 0 0-6.057 2.86 23.148 23.148 0 0 0-7.601 9.126 27.785 27.785 0 0 0-.399.874 32.793 32.793 0 0 0-2.454 9.187 41.257 41.257 0 0 0-.296 5.013q0 5.4 1.55 10.45a29.379 29.379 0 0 0 4.18 8.545 27.923 27.923 0 0 0 .37.505q3 4 7.35 6.3a19.921 19.921 0 0 0 7.417 2.181 24.578 24.578 0 0 0 2.433.119zm56.6-55.1v54.1q2.1.3 4.4.4a107.265 107.265 0 0 0 3.562.093 121.297 121.297 0 0 0 1.238.007 37.906 37.906 0 0 0 6.164-.472q4.929-.814 8.536-3.028 5.7-3.5 8.4-9.75a32.292 32.292 0 0 0 2.254-8.075 42.502 42.502 0 0 0 .446-6.275q0-7.2-2.7-13.5t-8.3-10.15a20.895 20.895 0 0 0-7.052-3.06q-2.841-.679-6.152-.775a38.008 38.008 0 0 0-1.096-.015q-2.9 0-5.3.15t-4.4.35zm123.7 0v54.1q2.1.3 4.4.4a107.265 107.265 0 0 0 3.562.093 121.297 121.297 0 0 0 1.238.007 37.906 37.906 0 0 0 6.164-.472q4.929-.814 8.536-3.028 5.7-3.5 8.4-9.75a32.292 32.292 0 0 0 2.254-8.075 42.502 42.502 0 0 0 .446-6.275q0-7.2-2.7-13.5t-8.3-10.15a20.895 20.895 0 0 0-7.052-3.06q-2.841-.679-6.152-.775a38.008 38.008 0 0 0-1.096-.015q-2.9 0-5.3.15t-4.4.35z" vector-effect="non-scaling-stroke" fill="#000" fill-rule="evenodd" stroke="#000" stroke-linecap="round" stroke-width=".25mm"/></svg>