<svg xmlns="http://www.w3.org/2000/svg" role="img" viewBox="-4.97 -4.97 258.44 244.19"><title>ConferenceCarbonTracker logo</title><g transform="translate(19.762)"><g transform="translate(-36.018 125.156) scale(.48378)"><path d="M57.72312 223.31436q-1.07422.46875-1.95313.87891-.85937.41015-2.26562.85937-1.1914.3711-2.59766.625-1.38671.27344-3.0664.27344-3.16406 0-5.76172-.87891-2.57813-.89843-4.49219-2.79296-1.875-1.85547-2.92969-4.70704-1.05468-2.87109-1.05468-6.66015 0-3.59375 1.01562-6.42578 1.01563-2.83203 2.92969-4.78516 1.85547-1.89453 4.47266-2.89062 2.63671-.9961 5.83984-.9961 2.34375 0 4.66797.56641 2.34375.5664 5.19531 1.99219v4.58984h-.29297q-2.40234-2.01172-4.76562-2.92969t-5.0586-.91797q-2.20703 0-3.98437.72266-1.75781.70312-3.14453 2.20703-1.34766 1.46484-2.10938 3.71094-.74219 2.22656-.74219 5.15625 0 3.0664.82032 5.27344.83984 2.20703 2.14843 3.59375 1.3672 1.44531 3.1836 2.14843 1.83594.6836 3.86719.6836 2.79296 0 5.23437-.95703 2.4414-.95704 4.57031-2.8711h.27344z"/><path d="M81.49265 214.5253q0 5.33203-2.73437 8.41797-2.73438 3.08594-7.32422 3.08594-4.6289 0-7.36328-3.08594-2.71485-3.08594-2.71485-8.41797 0-5.33203 2.71485-8.41797 2.73437-3.10547 7.36328-3.10547 4.58984 0 7.32422 3.10547 2.73437 3.08594 2.73437 8.41797zm-3.78906 0q0-4.23828-1.66016-6.28906-1.66015-2.07032-4.60937-2.07032-2.98828 0-4.64844 2.07032-1.64063 2.05078-1.64063 6.28906 0 4.10156 1.66016 6.23047 1.66016 2.10937 4.6289 2.10937 2.9297 0 4.58985-2.08984 1.67969-2.10938 1.67969-6.25z"/><path d="M105.41843 225.42374h-3.67187v-12.42188q0-1.5039-.17578-2.8125-.17579-1.32812-.64454-2.07031-.48828-.82031-1.40625-1.21094-.91796-.41015-2.3828-.41015-1.50391 0-3.14454.74218-1.64062.74219-3.14453 1.89453v16.28907h-3.67188v-21.81641h3.67188v2.42188q1.71875-1.42579 3.55469-2.22657 1.83593-.80078 3.76953-.80078 3.53515 0 5.39062 2.12891 1.85547 2.1289 1.85547 6.13281z"/><path d="M124.22703 198.5878h-.19532q-.60547-.17578-1.58203-.35156-.97656-.19532-1.71875-.19532-2.36328 0-3.4375 1.05469-1.05469 1.03516-1.05469 3.76953v.74219h6.6211v3.08594h-6.50391v18.73047h-3.67187v-18.73047h-2.48047v-3.08594h2.48047v-.72266q0-3.88671 1.93359-5.95703 1.93359-2.08984 5.58594-2.08984 1.23047 0 2.20703.11719.99609.11718 1.81641.27343z"/><path d="M144.81296 214.89639h-16.07422q0 2.01172.60547 3.51563.60547 1.48437 1.66016 2.4414 1.01562.9375 2.40234 1.40625 1.40625.46875 3.08594.46875 2.22656 0 4.47266-.8789 2.26562-.89844 3.22265-1.75781h.19532v4.0039q-1.85547.78125-3.78907 1.3086-1.93359.52734-4.0625.52734-5.42968 0-8.47656-2.92969-3.04687-2.94922-3.04687-8.35937 0-5.35157 2.91015-8.4961 2.92969-3.14453 7.69531-3.14453 4.41407 0 6.79688 2.57813 2.40234 2.57812 2.40234 7.32422zm-3.57422-2.8125q-.0195-2.89062-1.46484-4.47265-1.42578-1.58203-4.35547-1.58203-2.94922 0-4.70703 1.73828-1.73828 1.73828-1.97266 4.3164z"/><path d="M163.99265 207.61124h-.19531q-.82031-.19532-1.60156-.27344-.76172-.0977-1.81641-.0977-1.69922 0-3.28125.76172-1.58203.74219-3.04688 1.9336v15.48828h-3.67187v-21.81641h3.67187v3.22266q2.1875-1.75782 3.84766-2.48047 1.67969-.74219 3.41797-.74219.95703 0 1.38672.0586.42969.0391 1.28906.17579z"/><path d="M185.7114 214.89639h-16.07422q0 2.01172.60547 3.51563.60547 1.48437 1.66016 2.4414 1.01562.9375 2.40234 1.40625 1.40625.46875 3.08594.46875 2.22656 0 4.47265-.8789 2.26563-.89844 3.22266-1.75781h.19531v4.0039q-1.85547.78125-3.78906 1.3086-1.93359.52734-4.0625.52734-5.42969 0-8.47656-2.92969-3.04688-2.94922-3.04688-8.35937 0-5.35157 2.91016-8.4961 2.92969-3.14453 7.69531-3.14453 4.41406 0 6.79688 2.57813 2.40234 2.57812 2.40234 7.32422zm-3.57422-2.8125q-.0195-2.89062-1.46484-4.47265-1.42578-1.58203-4.35547-1.58203-2.94922 0-4.70703 1.73828-1.73828 1.73828-1.97266 4.3164z"/><path d="M209.51999 225.42374h-3.67187v-12.42188q0-1.5039-.17578-2.8125-.17578-1.32812-.64453-2.07031-.48828-.82031-1.40625-1.21094-.91797-.41015-2.38282-.41015-1.5039 0-3.14453.74218-1.64062.74219-3.14453 1.89453v16.28907h-3.67187v-21.81641h3.67187v2.42188q1.71875-1.42579 3.55469-2.22657 1.83594-.80078 3.76953-.80078 3.53516 0 5.39063 2.12891 1.85546 2.1289 1.85546 6.13281z"/><path d="M232.72312 224.05655q-1.83594.87891-3.49609 1.36719-1.64063.48828-3.4961.48828-2.36328 0-4.33594-.6836-1.97265-.70312-3.3789-2.10937-1.42578-1.40625-2.20703-3.55469t-.78125-5.01953q0-5.35156 2.92968-8.39844 2.94922-3.04687 7.77344-3.04687 1.875 0 3.67188.52734 1.8164.52735 3.32031 1.28906v4.08204h-.19531q-1.67969-1.3086-3.47657-2.01172-1.77734-.70313-3.47656-.70313-3.125 0-4.9414 2.10938-1.79688 2.08984-1.79688 6.15234 0 3.94531 1.75781 6.07422 1.77735 2.10937 4.98047 2.10937 1.11328 0 2.26563-.29296 1.15234-.29297 2.07031-.76172.80078-.41016 1.50391-.85938.70312-.46875 1.11328-.80078h.19531z"/><path d="M255.69187 214.89639h-16.07422q0 2.01172.60547 3.51563.60547 1.48437 1.66016 2.4414 1.01562.9375 2.40234 1.40625 1.40625.46875 3.08594.46875 2.22656 0 4.47265-.8789 2.26563-.89844 3.22266-1.75781h.19531v4.0039q-1.85547.78125-3.78906 1.3086-1.93359.52734-4.0625.52734-5.42969 0-8.47656-2.92969-3.04688-2.94922-3.04688-8.35937 0-5.35157 2.91016-8.4961 2.92969-3.14453 7.69531-3.14453 4.41406 0 6.79688 2.57813 2.40234 2.57812 2.40234 7.32422zm-3.57422-2.8125q-.0195-2.89062-1.46484-4.47265-1.42578-1.58203-4.35547-1.58203-2.94922 0-4.70703 1.73828-1.73828 1.73828-1.97266 4.3164z"/><path d="M284.01218 223.31436q-1.07422.46875-1.95312.87891-.85938.41015-2.26563.85937-1.1914.3711-2.59765.625-1.38672.27344-3.06641.27344-3.16406 0-5.76172-.87891-2.57812-.89843-4.49219-2.79296-1.875-1.85547-2.92968-4.70704-1.05469-2.87109-1.05469-6.66015 0-3.59375 1.01562-6.42578 1.01563-2.83203 2.92969-4.78516 1.85547-1.89453 4.47266-2.89062 2.63672-.9961 5.83984-.9961 2.34375 0 4.66797.56641 2.34375.5664 5.19531 1.99219v4.58984h-.29297q-2.40234-2.01172-4.76562-2.92969t-5.0586-.91797q-2.20703 0-3.98437.72266-1.75781.70312-3.14453 2.20703-1.34766 1.46484-2.10938 3.71094-.74218 2.22656-.74218 5.15625 0 3.0664.82031 5.27344.83984 2.20703 2.14844 3.59375 1.36718 1.44531 3.18359 2.14843 1.83594.6836 3.86719.6836 2.79297 0 5.23437-.95703 2.44141-.95704 4.57031-2.8711h.27344z"/><path d="M306.14109 225.42374h-3.65235v-2.32422q-.48828.33203-1.32812.9375-.82031.58594-1.60156.9375-.91797.44922-2.10938.74219-1.1914.3125-2.79297.3125-2.94922 0-5-1.95313-2.05078-1.95312-2.05078-4.98047 0-2.48047 1.05469-4.0039 1.07422-1.54297 3.04687-2.42188 1.99219-.87891 4.78516-1.19141 2.79297-.3125 5.99609-.46875v-.5664q0-1.25-.44921-2.07031-.42969-.82032-1.25-1.28907-.78125-.44922-1.875-.60547-1.09375-.15625-2.28516-.15625-1.44531 0-3.22266.39063-1.77734.37109-3.67187 1.09375h-.19531v-3.73047q1.07421-.29297 3.10546-.64453 2.03125-.35156 4.00391-.35156 2.30469 0 4.00391.39062 1.71875.3711 2.96875 1.28906 1.23047.89844 1.875 2.32422t.64453 3.53516zm-3.65235-5.3711v-6.07422q-1.67968.0977-3.96484.29297-2.26562.19532-3.59375.56641-1.58203.44922-2.55859 1.40625-.97657.9375-.97657 2.59766 0 1.875 1.13282 2.83203 1.13281.9375 3.45703.9375 1.93359 0 3.53515-.74219 1.60157-.76172 2.96875-1.81641z"/><path d="M326.82468 207.61124h-.19531q-.82031-.19532-1.60156-.27344-.76172-.0977-1.81641-.0977-1.69922 0-3.28125.76172-1.58203.74219-3.04687 1.9336v15.48828h-3.67188v-21.81641h3.67188v3.22266q2.1875-1.75782 3.84765-2.48047 1.67969-.74219 3.41797-.74219.95703 0 1.38672.0586.42969.0391 1.28906.17579z"/><path d="M349.48093 214.34952q0 2.73437-.78125 4.92187-.76172 2.1875-2.07031 3.67188-1.38672 1.54297-3.04688 2.32422-1.66015.76172-3.65234.76172-1.85547 0-3.24219-.44922-1.38672-.42969-2.73437-1.17188l-.23438 1.01563h-3.4375v-30.39063h3.67188v10.85938q1.54297-1.26953 3.28125-2.07032 1.73828-.82031 3.90625-.82031 3.86719 0 6.09375 2.96875 2.24609 2.96875 2.24609 8.37891zm-3.78906.0976q0-3.90625-1.28906-5.91796-1.28907-2.03125-4.16016-2.03125-1.60156 0-3.24219.70312-1.64062.68359-3.04687 1.77734v12.5q1.5625.70313 2.67578.97657 1.13281.27343 2.55859.27343 3.04688 0 4.76563-1.99218 1.73828-2.01172 1.73828-6.28907z"/><path d="M373.79734 214.5253q0 5.33203-2.73438 8.41797-2.73437 3.08594-7.32422 3.08594-4.6289 0-7.36328-3.08594-2.71484-3.08594-2.71484-8.41797 0-5.33203 2.71484-8.41797 2.73438-3.10547 7.36328-3.10547 4.58985 0 7.32422 3.10547 2.73438 3.08594 2.73438 8.41797zm-3.78906 0q0-4.23828-1.66016-6.28906-1.66016-2.07032-4.60938-2.07032-2.98828 0-4.64843 2.07032-1.64063 2.05078-1.64063 6.28906 0 4.10156 1.66016 6.23047 1.66015 2.10937 4.6289 2.10937 2.92969 0 4.58985-2.08984 1.67969-2.10938 1.67969-6.25z"/><path d="M397.72312 225.42374h-3.67188v-12.42188q0-1.5039-.17578-2.8125-.17578-1.32812-.64453-2.07031-.48828-.82031-1.40625-1.21094-.91797-.41015-2.38281-.41015-1.50391 0-3.14453.74218-1.64063.74219-3.14453 1.89453v16.28907h-3.67188v-21.81641h3.67188v2.42188q1.71875-1.42579 3.55468-2.22657 1.83594-.80078 3.76954-.80078 3.53515 0 5.39062 2.12891 1.85547 2.1289 1.85547 6.13281z"/><path d="M425.82859 199.77921h-10.39063v25.64453h-3.86718v-25.64453h-10.39063v-3.4375h24.64844z"/><path d="M439.1489 207.61124h-.19531q-.82031-.19532-1.60156-.27344-.76172-.0977-1.81641-.0977-1.69922 0-3.28125.76172-1.58203.74219-3.04688 1.9336v15.48828h-3.67187v-21.81641h3.67187v3.22266q2.1875-1.75782 3.84766-2.48047 1.67969-.74219 3.41797-.74219.95703 0 1.38672.0586.42969.0391 1.28906.17579z"/><path d="M458.85593 225.42374h-3.65234v-2.32422q-.48828.33203-1.32813.9375-.82031.58594-1.60156.9375-.91797.44922-2.10937.74219-1.19141.3125-2.79297.3125-2.94922 0-5-1.95313-2.05078-1.95312-2.05078-4.98047 0-2.48047 1.05468-4.0039 1.07422-1.54297 3.04688-2.42188 1.99219-.87891 4.78515-1.19141 2.79297-.3125 5.9961-.46875v-.5664q0-1.25-.44922-2.07031-.42969-.82032-1.25-1.28907-.78125-.44922-1.875-.60547-1.09375-.15625-2.28516-.15625-1.44531 0-3.22265.39063-1.77735.37109-3.67188 1.09375h-.19531v-3.73047q1.07422-.29297 3.10547-.64453 2.03125-.35156 4.0039-.35156 2.30469 0 4.00391.39062 1.71875.3711 2.96875 1.28906 1.23047.89844 1.875 2.32422t.64453 3.53516zm-3.65234-5.3711v-6.07422q-1.67969.0977-3.96485.29297-2.26562.19532-3.59375.56641-1.58203.44922-2.55859 1.40625-.97656.9375-.97656 2.59766 0 1.875 1.13281 2.83203 1.13281.9375 3.45703.9375 1.9336 0 3.53516-.74219 1.60156-.76172 2.96875-1.81641z"/><path d="M482.05906 224.05655q-1.83594.87891-3.4961 1.36719-1.64062.48828-3.49609.48828-2.36328 0-4.33594-.6836-1.97265-.70312-3.3789-2.10937-1.42579-1.40625-2.20704-3.55469-.78125-2.14844-.78125-5.01953 0-5.35156 2.92969-8.39844 2.94922-3.04687 7.77344-3.04687 1.875 0 3.67187.52734 1.81641.52735 3.32032 1.28906v4.08204h-.19532q-1.67968-1.3086-3.47656-2.01172-1.77734-.70313-3.47656-.70313-3.125 0-4.94141 2.10938-1.79687 2.08984-1.79687 6.15234 0 3.94531 1.75781 6.07422 1.77734 2.10937 4.98047 2.10937 1.11328 0 2.26562-.29296 1.15235-.29297 2.07032-.76172.80078-.41016 1.5039-.85938.70313-.46875 1.11328-.80078h.19532z"/><path d="M506.57078 225.42374h-4.84375l-8.75-9.55078-2.38282 2.26562v7.28516h-3.67187v-30.39063h3.67187v19.49219l10.60547-10.91797h4.62891l-10.13672 10.07813z"/><path d="M528.30906 214.89639h-16.07422q0 2.01172.60547 3.51563.60547 1.48437 1.66015 2.4414 1.01563.9375 2.40235 1.40625 1.40625.46875 3.08593.46875 2.22657 0 4.47266-.8789 2.26563-.89844 3.22266-1.75781h.19531v4.0039q-1.85547.78125-3.78906 1.3086-1.9336.52734-4.0625.52734-5.42969 0-8.47657-2.92969-3.04687-2.94922-3.04687-8.35937 0-5.35157 2.91016-8.4961 2.92968-3.14453 7.69531-3.14453 4.41406 0 6.79687 2.57813 2.40235 2.57812 2.40235 7.32422zm-3.57422-2.8125q-.0195-2.89062-1.46485-4.47265-1.42578-1.58203-4.35546-1.58203-2.94922 0-4.70704 1.73828-1.73828 1.73828-1.97265 4.3164z"/><path d="M547.48874 207.61124h-.19531q-.82031-.19532-1.60156-.27344-.76172-.0977-1.81641-.0977-1.69922 0-3.28125.76172-1.58203.74219-3.04687 1.9336v15.48828h-3.67188v-21.81641h3.67188v3.22266q2.1875-1.75782 3.84765-2.48047 1.67969-.74219 3.41797-.74219.95703 0 1.38672.0586.42969.0391 1.28906.17579z"/></g><g transform="translate(4.541)"><path fill="#cfcfcf" d="M0 100V0h200v200H0zm130 87.45455c0-1.4-1.10455-3.65-2.45455-5-2.37305-2.37306-2.92087-2.45455-16.5-2.45455H97l.05533-2.75c.0796-3.95617 4.40486-6.90226 12.66069-8.62365 3.85251-.80327 10.22744-3.08351 14.16653-5.0672 6.01027-3.02673 7.25757-3.35757 7.75649-2.05741.46163 1.20299.90647 1.29042 1.99007.3911.99674-.82722 1.0955-1.51974.34558-2.42333-.77542-.93433-.33838-1.82487 1.67143-3.40579l2.7214-2.14065-2.14847-2.14846c-2.09826-2.09826-2.19639-2.10509-4.19966-.29216-1.99964 1.80965-2.08755 1.80807-3.49734-.0631-1.31131-1.74043-1.1764-2.15246 1.44701-4.41938 4.62631-3.99764 11.79683-15.3931 13.65204-21.69597 2.20148-7.47923 2.18612-19.16009-.0352-26.80403-2.10978-7.26-9.2376-18.15544-14.92135-22.80847-5.13511-4.20387-13.09484-8.30643-17.845-9.19757-2.58874-.48565-4.60684-.13782-7.34206 1.26543l-3.77204 1.93517-4.10795-2.29597c-3.59399-2.00872-4.66502-2.17082-8.56044-1.29558-2.44887.55023-6.68556 2.12202-9.41487 3.49288-4.40213 2.21106-5.13105 2.32379-6.45637.99847-1.22784-1.22778-1.2648-1.77014-.20747-3.04414C71.66595 66.69759 72.89023 66 73.67898 66c1.18444 0 1.13866-.50012-.26294-2.87285-1.67027-2.82753-1.74411-2.84725-4.68036-1.25-2.18593 1.1891-3.10112 1.30377-3.4241.42903-.68532-1.85607-3.44374-.29794-2.84002 1.60422.35343 1.11356-1.42221 3.68222-5.30663 7.6766-6.84329 7.03701-12.4164 16.50592-14.66566 24.91746-1.87909 7.02723-2.14215 21.83505-.5151 28.99498.62486 2.74969 2.47494 7.719 4.1113 11.04292 6.75103 13.7133 17.59288 23.59042 32.40485 29.52142C87.31368 169.59282 92 173.53612 92 177.42308V180H77.95454c-13.57912 0-14.12694.0815-16.5 2.45455-1.35 1.35-2.45454 3.6-2.45454 5V190h71zm-40-24.08258c-4.64088-.89349-12.47288-3.63466-17-5.94993-2.475-1.26577-7.29328-5.00162-10.7073-8.30188-11.84205-11.44749-17.4159-27.78286-15.13242-44.34873 1.5121-10.96974 5.87407-20.42835 13.01445-28.22081 4.8426-5.28485 6.33059-6.37613 7.43932-5.45596.76227.63262 1.37298 1.65763 1.35712 2.27778-.01586.62016-2.3314 3.57962-5.14567 6.57657-6.26036 6.66677-10.365 15.19688-11.9341 24.80099-.91351 5.59132-.9127 8.89587.0036 14.44402.65343 3.95672 2.50776 9.95921 4.12072 13.33887 1.61297 3.37966 5.30678 8.60304 8.20849 11.6075C73.4785 153.72248 85.65188 159 98.5 159c7.20603 0 16.31085-2.20369 21.7613-5.26701 3.84724-2.16228 3.9477-2.16765 5.32447-.28481 1.26319 1.72752 1.12932 2.10174-1.34126 3.74946-4.66956 3.11431-15.37113 5.96102-23.74451 6.31625-4.4.18667-9.125.1228-10.5-.14192zM69 116c0-23.33333.2037-27 1.5-27 1.29412 0 1.5 3.5 1.5 25.5V140h25.5c22 0 25.5.20588 25.5 1.5 0 1.2963-3.66667 1.5-27 1.5H69zm46.19143 18.58056c-1.81971-.62155-2.99854-1.44012-2.61962-1.81904.37892-.37892-1.70889-3.45681-4.63958-6.83974l-5.32852-6.1508-3.8887 4.16889c-2.1388 2.2929-4.2101 4.03192-4.6029 3.86451C92.85014 127.26656 77 109.79424 77 108.94097c0-2.66476 2.57301-.98388 9.38593 6.13156l7.67266 8.01336 4.42629-3.62701 4.42629-3.62701 6.15907 6.58406c3.38749 3.62124 6.7739 6.58407 7.52536 6.58407 1.34915 0 2.92623 4.0704 2.25204 5.81241-.19572.5057-1.79354.40437-3.65621-.23185zM114 97.58341c0-.77913 1.23668-2.31745 2.74817-3.4185 1.54329-1.12421 2.36013-2.36646 1.8631-2.8334-.4868-.45733-1.08597-.26901-1.33151.41849C116.65707 93.49354 114 93.3195 114 91.53518 114 90.28344 116.81803 88 118.36283 88 119.22618 88 122 91.105 122 92.07143c0 .51071-.9 1.82857-2 2.92857l-2 2h2c1.1 0 2 .45 2 1s-1.8 1-4 1c-2.78422 0-4-.43057-4-1.4166zm-30.66323-1.06008c-2.78492-1.95063-3.68827-5.92824-2.301-10.1317C82.31427 82.5177 84.52665 81 88.8953 81 91.997 81 96 84.20512 96 86.68856c0 1.85142-3.71967 1.63477-4.79069-.27903-.53395-.9541-1.85418-1.45424-3.2997-1.25-2.0878.295-2.40961.87468-2.40961 4.34047 0 3.4658.3218 4.04547 2.40962 4.34047 1.4455.20424 2.76575-.2959 3.29969-1.25C92.28033 90.67667 96 90.46002 96 92.31144c0 .72129-.91753 2.29629-2.03896 3.5-2.39626 2.57208-7.48195 2.91286-10.62427.71189zm17.16323.28172c-2.90465-1.64712-3.46937-2.8362-3.46937-7.30505 0-4.56057.5834-5.73425 3.65363-7.3503 5.70034-3.00042 11.11692-.05092 12.00021 6.5345.4766 3.55335.18083 4.54141-2.01754 6.73978-2.76575 2.76575-6.76668 3.30923-10.16693 1.38107zm7.46496-4.73957C109.43788 89.3133 107.62784 85 105 85s-4.43788 4.3133-2.96496 7.06548C102.60447 93.12946 103.9387 94 105 94c1.0613 0 2.39553-.87054 2.96496-1.93453z"/><path fill="#aeaeae" d="M0 100V0h200v200H0zm129.98469 87.25c-.03443-6.1832-2.89184-7.25-19.41895-7.25H97v-3c0-1.65.36515-3 .81144-3 .44629 0 1.69277-.82109 2.76995-1.82464 1.07719-1.00355 4.75062-2.37395 8.1632-3.04533 3.41257-.67138 9.64278-2.78749 13.84492-4.70247 5.32816-2.42812 8.00609-3.17815 8.84916-2.47846 1.53018 1.26993 3.62921-.60864 2.8753-2.5733-.29136-.75927.5313-2.25202 1.82814-3.31723l2.35789-1.93673-2.21471-2.24785c-2.08188-2.11304-2.32559-2.1475-4.06365-.57457-1.42625 1.29074-2.12017 1.40205-3.03529.48693-.65249-.65249-1.18635-1.46584-1.18635-1.80745 0-.3416 1.9125-2.64613 4.25-5.12116 6.574-6.96081 10.61892-14.58953 12.44142-23.46453 1.35747-6.6104 1.43475-9.19338.47556-15.89321-1.27214-8.88574-5.28947-17.94655-10.82361-24.41195-5.07822-5.93276-13.02969-11.3302-20.29203-13.77421l-6.50245-2.18827-3.73309 2.09811-3.73309 2.09812-4.32543-2.29463c-4.28602-2.27373-4.37948-2.27892-10.26125-.56904-3.26471.94908-7.6206 2.5851-9.67975 3.6356-3.70923 1.8923-3.75386 1.89141-4.8176-.09621-.90865-1.6978-.68362-2.18395 1.4638-3.16238C73.85813 66.19924 75 65.40133 75 65.06199s-.69747-1.61276-1.54993-2.82982c-1.46569-2.09256-1.68339-2.1254-4.00501-.60421-1.77034 1.15996-2.81166 1.31268-3.7336.54753-1.66457-1.38147-3.94745.04596-3.1978 1.99952.37133.96765-.63185 2.4405-2.77634 4.07618-5.2544 4.00773-13.34182 16.54532-16.35235 25.35039-2.2064 6.45318-2.70867 9.72821-2.74494 17.89842-.03026 6.8174.52494 11.90956 1.74448 16 3.66673 12.29853 12.54208 24.87438 22.11549 31.33637C70.78422 163.07818 80.87238 168 83.28252 168c.77587 0 3.0547 1.59666 5.06408 3.54814 2.24642 2.18169 3.6534 4.49238 3.6534 6V180H78.13486c-12.5128 0-14.12214.20215-16.5 2.07258-1.77445 1.39578-2.63486 3.02853-2.63486 5V190h71l-.0153-2.75zM89.5 162.93476c-8.48823-1.40905-18.25457-5.95366-24.45481-11.37965-6.7004-5.86371-11.46329-12.58989-14.90935-21.05511-3.22767-7.92874-4.06846-22.311-1.81788-31.0959 2.43965-9.52286 6.41409-16.87165 12.37358-22.87892C63.70624 73.48633 66.53577 71 66.97941 71c.44364 0 1.09677.75613 1.4514 1.68028.45036 1.17363-.85867 3.20896-4.3413 6.75-6.25992 6.3649-11.00234 16.31736-12.40076 26.02426-.79367 5.50915-.7363 9.07167.23344 14.49807 1.80237 10.08541 6.90017 19.77041 13.65668 25.94548 3.02992 2.76918 6.7267 5.69391 8.21504 6.4994 9.50872 5.14611 14.7849 6.54837 24.70609 6.5662 8.09258.0145 15.56683-1.74922 21.46833-5.06605 3.53672-1.98775 4.28256-2.11475 5.07364-.86397.51007.80648.9343 1.82747.94272 2.26887.0296 1.55175-12.55685 6.62075-18.98469 7.6458-7.35308 1.17259-10.3685 1.17025-17.5-.0136zM69 116c0-17.33333.35802-27 1-27 .64052 0 1 9.16667 1 25.5V140h26c22.44444 0 26 .20513 26 1.5 0 1.2963-3.66667 1.5-27 1.5H69zm45.75 18.31067c-.9625-.25152-1.75081-.98682-1.75181-1.63399-.00099-.64718-2.36349-3.81106-5.25-7.03087L102.5 119.79162l-4.1066 4.15671-4.1066 4.1567-8.67767-9.21825c-6.07454-6.45295-8.36189-9.53402-7.625-10.27091.73688-.73688 3.3399 1.43303 8.67733 7.23354l7.62466 8.2862 4.21397-4.1357 4.21397-4.1357 6.5545 7.18159c3.68145 4.03366 7.03161 6.88672 7.64297 6.50888.59866-.36999 1.08847-.008 1.08847.80452 0 .81247.27314 2.18903.60699 3.05901.61325 1.59812-.32551 1.81534-3.85699.89246zm-.75-36.2702c0-.52774 1.21583-2.08691 2.70184-3.46482C119.47179 92.0072 119.28978 89.68469 116.5 92c-1.88146 1.56147-2.77985.89284-1.89579-1.41097.8848-2.30576 5.75702-1.73018 6.22489.73537.19041 1.00343-.43798 2.69093-1.39643 3.75-1.66898 1.8442-1.65155 1.9256.41234 1.9256C121.03026 97 122 97.45 122 98s-1.8 1-4 1-4-.43179-4-.95953zm-30.36514-2.11305C81.50902 94.25524 81 93.01353 81 89.5s.50902-4.75524 2.63486-6.42742C85.08403 81.93266 87.2339 81 88.41236 81 91.42171 81 95 83.7467 95 86.0567c0 2.48596-1.46991 2.47339-3.97732-.03402-2.35372-2.35372-4.81334-1.70348-6.07123 1.60502-1.11341 2.9285-.3335 5.09747 2.3492 6.5332 1.70275.91129 2.36859.73085 3.79264-1.02778 1.8681-2.307 3.43075-2.71226 4.40153-1.1415C96.4458 93.53034 91.37646 98 88.68032 98c-1.32583 0-3.59629-.93266-5.04546-2.07258zm16 0C97.5783 94.30974 97 92.98286 97 89.88196c0-2.88478.67225-4.64512 2.45454-6.42742 2.56592-2.56591 6.3765-3.15052 9.53112-1.46222 1.01979.54578 2.38384 2.59724 3.03122 4.55881 2.84338 8.61555-5.40679 14.863-12.38202 9.37629zm7.88597-2.59111c1.16506-1.16505 1.48167-2.57381 1.05637-4.70029-.53348-2.66742-2.03879-4.6054-3.5772-4.6054-1.53841 0-3.04372 1.93798-3.5772 4.6054-.4253 2.12648-.10869 3.53524 1.05637 4.70029C103.3942 94.25134 104.52857 95 105 95c.47143 0 1.6058-.74866 2.52083-1.66369z"/><path fill="#9d9d9d" d="M0 100V0h200v200H0zm130 87c0-1.66667-.88889-3.88889-2-5-1.81609-1.81609-3.33333-2-16.5-2-14.4219 0-14.5-.0123-14.5-2.27732 0-3.66857 5.08958-7.28546 12.19142-8.66379 3.46972-.6734 9.62799-2.77001 13.68505-4.65911 4.93976-2.30013 7.75869-3.11753 8.53354-2.47447 1.55586 1.29126 3.80088-.21217 3.08859-2.06836-.31302-.81573.34674-2.31199 1.46613-3.32503C137.08413 155.51888 138 154.15451 138 153.5c0-.65451-.83548-1.94612-1.85662-2.87024-1.65739-1.49992-1.99244-1.51655-3.12244-.15499-.69621.83888-1.85917 1.52523-2.58437 1.52523-2.94866 0-2.45199-2.41444 1.30487-6.34328 6.61598-6.91885 11.15248-15.43051 13.00881-24.40794 1.39265-6.73501 1.48732-9.36435.56711-15.7518-1.8933-13.142-10.10853-26.19595-21.04458-33.43968-2.57836-1.70784-7.57492-3.99687-11.10345-5.08672l-6.41551-1.98155-3.32263 2.0535-3.32264 2.0535-4.14058-2.11237c-3.6324-1.85311-4.7463-1.98247-9.0758-1.05395-2.71436.58212-7.15988 2.18573-9.87892 3.56358-4.88562 2.47573-4.9563 2.48162-6.016.50159-.90688-1.69455-.6809-2.1819 1.46524-3.15974C73.85812 66.19924 75 65.40133 75 65.06199s-.71734-1.64112-1.59408-2.89285c-1.5142-2.16182-1.718-2.19468-4.06693-.6556-1.89825 1.24378-2.79565 1.35236-3.8621.46727-1.85975-1.54344-3.7038-.2711-2.96784 2.04771.41353 1.3029-.2053 2.38157-2.06556 3.60046-3.5819 2.34695-11.84017 13.40272-14.99898 20.0799C42.70426 93.50127 40 105.6312 40 112.13012c0 7.25023 3.11858 19.24858 6.80437 26.17898 4.21562 7.92663 10.66292 15.79798 16.2621 19.854 4.3713 3.16655 14.10378 8.07791 19.6055 9.89365 4.29697 1.41812 9.25829 6.58994 9.29872 9.69324.029 2.22656-.11515 2.25-13.83583 2.25-12.5128 0-14.12214.20215-16.5 2.07258-1.77445 1.39578-2.63486 3.02853-2.63486 5V190h71zm-41.50927-24.45434c-9.30284-1.69065-18.63976-6.54808-25.80843-13.42654C52.35464 139.20956 47 126.47253 47 111.81575 47 98.04728 51.97992 85.39729 61.00117 76.25c2.8477-2.8875 5.53927-5.25 5.98125-5.25.44198 0 1.08633.73677 1.43188 1.63727.42934 1.11885-1.06238 3.41445-4.7112 7.25-20.4606 21.5077-15.43561 56.98106 10.28494 72.60546 3.11734 1.89369 8.31485 4.13251 11.55003 4.97517 11.2501 2.93028 28.18075 1.22235 34.67144-3.49759 1.49023-1.08367 3.12958-1.97031 3.64301-1.97031s1.23114.77563 1.59492 1.72362c.82161 2.14108-1.11363 3.63364-8.10101 6.24795-5.22862 1.95628-16.0004 4.08965-19.84643 3.93063-1.1-.0455-5.15417-.65593-9.00927-1.35654zm-18.82406-20.21233C68.5581 141.22477 68.88007 90.19215 70 89.5c.6567-.40586 1 8.15066 1 24.9241v25.54214l25.66715.26688c19.45162.20225 25.76793.56958 26.08333 1.51688.32594.97896-5.31185 1.25-26.00048 1.25-14.52917 0-26.71667-.3-27.08333-.66667zm45.5685-8.04101c-1.24566-.23942-2.00661-.85312-1.69101-1.36378C114.23471 131.81121 104.04811 120 102.3939 120c-.63864 0-2.68116 1.6875-4.53891 3.75l-3.37774 3.75-8.23862-8.70675c-4.53125-4.78872-8.23723-9.28872-8.23551-10 .0017-.71129 3.65415 2.42423 8.11654 6.96782l8.11342 8.26108 3.88634-3.51108C100.25691 118.57998 102.2891 117 102.6354 117c.34631 0 3.30988 2.925 6.58571 6.5 3.27584 3.575 6.53875 6.5 7.2509 6.5.71216 0 1.50989 1.125 1.77274 2.5.26285 1.375.20281 2.43872-.13342 2.36382-.33623-.0749-1.6305-.33207-2.87616-.5715zM114 98.30472c0-.3824 1.20469-1.95271 2.6771-3.48957 2.74596-2.86617 2.60397-5.12323-.1771-2.81515-2.02315 1.67906-3.16366.50458-1.48001-1.5241 1.69018-2.03653 5.35957-1.50041 5.80745.8485.19133 1.00343-.43632 2.69093-1.39477 3.75-1.5896 1.75648-1.59729 1.9256-.08766 1.9256.91025 0 1.65499.45 1.65499 1s-1.575 1-3.5 1-3.5-.31288-3.5-.69528zm-30.36514-2.3773C81.50902 94.25524 81 93.01353 81 89.5s.50902-4.75524 2.63486-6.42742C85.08403 81.93266 87.2339 81 88.41236 81 91.13753 81 95 83.67168 95 85.5567c0 1.9425-1.92393 1.82212-4.2298-.26466-1.42977-1.29393-2.2973-1.45063-3.57874-.64642-.9303.58385-2.11104 2.2388-2.62385 3.67768-.72815 2.04305-.5299 3.06088.90499 4.64642C87.79687 95.538 89.641 95.5477 91.23207 93 92.82565 90.44829 95 90.41556 95 92.9433 95 95.2533 91.42172 98 88.41235 98c-1.17845 0-3.32832-.93266-4.7775-2.07258zm17.68051 1.0656C98.61309 95.90425 97 93.02419 97 89.28825c0-5.97341 5.52118-9.55765 11.13849-7.23089 5.51425 2.28408 5.69387 12.3311.26468 14.8048-2.89483 1.31898-4.08444 1.34094-7.0878.13086zm6.1132-3.56445C108.29286 92.5643 109 90.79643 109 89.5c0-2.31606-2.31559-5.5-4-5.5-1.68441 0-4 3.18394-4 5.5s2.31559 5.5 4 5.5c.47143 0 1.56429-.70714 2.42857-1.57143z"/><path fill="#686868" d="M0 100V0h200v200H0zm130 87c0-1.66667-.88889-3.88889-2-5-1.81609-1.81609-3.33333-2-16.5-2-14.06084 0-14.5-.0636-14.5-2.09879 0-1.15433 1.30556-3.31836 2.90123-4.80895 2.07266-1.93615 4.81926-3.06357 9.6171-3.9476 3.69372-.6806 9.85024-2.8159 13.68116-4.74512 4.84307-2.43893 7.33127-3.20394 8.16644-2.51081 1.59032 1.31985 3.85514-.14906 3.13267-2.03178-.31302-.81573.34674-2.31199 1.46613-3.32503 1.1194-1.01304 2.03527-2.29922 2.03527-2.85817 0-.55895-.72468-1.81703-1.61039-2.79573-1.49063-1.64713-1.79192-1.66052-4.05135-.18009-1.84299 1.20758-2.72335 1.31698-3.59375.44658-.87039-.87039-.1532-2.19291 2.92765-5.39865 6.34464-6.60184 11.91757-16.77169 13.34962-24.3613 2.13139-11.29594.0652-24.14892-5.30475-32.99902-1.21937-2.0096-4.59722-6.2402-7.50634-9.40131-5.34507-5.80807-13.96898-11.1897-19.96069-12.45618-1.7875-.37783-3.25-1.04285-3.25-1.47783 0-1.19369 13.79321-5.83316 19.62195-6.60003 7.66525-1.0085 7.96469-1.37739 5.86273-7.22272-.98561-2.7409-2.60284-6.05087-3.59384-7.35547l-1.8018-2.372-14.54452 4.99344L100 51.48688l-14.56495-4.99344c-14.19705-4.86731-14.60117-4.94443-15.9993-3.05326-.7889 1.0671-2.35566 4.40258-3.4817 7.41216-1.4952 3.99631-1.7342 5.6655-.88621 6.18959.63861.39468 3.2471 1.0005 5.79663 1.34628 2.54954.34576 8.2136 1.81699 12.5868 3.26938l7.95127 2.64071-6.45127 2.21473c-3.5482 1.2181-7.93402 2.83228-9.74626 3.58707-2.84935 1.18673-3.42163 1.17133-4.23134-.11388-.65275-1.03606-.44472-1.8539.6868-2.70016.89273-.66766 2.04546-1.3547 2.56162-1.52676.9809-.32697-1.05656-5.7593-2.1601-5.7593-.33934 0-1.63644.71406-2.88244 1.5868-1.75908 1.2321-2.58136 1.32462-3.6787.4139-1.77865-1.47614-3.83207-.30623-3.04814 1.73665.38253.99686-.81567 2.73743-3.41757 4.96456C53.46117 73.47303 45.32384 86.23926 42.90988 94c-4.44824 14.30082-3.25646 30.66203 3.15295 43.28464 3.97817 7.83455 11.18431 16.81569 16.6518 20.75341 4.88941 3.5214 16.52194 9.37182 20.57548 10.34816 3.50513.84425 8.64177 6.38518 8.68058 9.36379.02905 2.22989-.09861 2.25-14.28213 2.25-13.02033 0-14.50888.18394-16.5 2.03896-1.2996 1.21076-2.18856 3.24167-2.18856 5V190h71zm-45.73545-25.54159c-8.02056-2.16004-14.1363-5.67307-21.2687-12.21728C52.75861 139.84816 47 126.44107 47 112c0-13.38578 4.83033-25.8254 13.59684-35.01618C63.73602 73.69272 66.6378 71 67.04524 71c.40743 0 1.03125.75695 1.38627 1.6821.4539 1.18285-.96824 3.33468-4.79151 7.25-2.99035 3.06235-6.38481 7.46667-7.54326 9.7874-6.7196 13.46141-6.72068 29.99942-.0029 44.02457 3.27877 6.8453 14.0284 17.11414 22.18742 21.19508 6.06727 3.0347 7.86466 3.44001 17.07063 3.84944 7.82197.34788 11.71122.0472 16.21873-1.25393 3.26115-.94136 7.43764-2.63675 9.28109-3.76754 2.78297-1.7071 3.50155-1.81935 4.23469-.66155.48563.76694.88986 1.72278.89828 2.12411.0253 1.20579-7.53941 4.67976-13.66429 6.27508-7.11481 1.85318-21.08832 1.83009-28.05585-.0464zM114 98.07258c0-.51008 1.125-1.81235 2.5-2.89392 1.375-1.08157 2.5-2.46424 2.5-3.07258 0-1.51549-2.69979-1.40118-3.39903.14392-.31114.6875-.45497.35-.31964-.75.17155-1.39442.99475-2 2.71867-2 3.41346 0 3.91247 3.29273.85534 5.644L116.5 96.95553l2.25.02224C119.9875 96.98999 121 97.45 121 98s-1.575 1-3.5 1-3.5-.41734-3.5-.92742zm-27.7412-.7895c-4.89688-.9174-6.98941-8.9243-3.46862-13.2723C85.8352 80.25035 95 81.46008 95 85.62245c0 1.81283-1.76697 1.75344-3.64286-.12245-.825-.825-2.11071-1.5-2.85714-1.5-2.12282 0-4.5 2.90544-4.5 5.5 0 2.56863 2.3712 5.5 4.44898 5.5.71837 0 1.86633-.675 2.55102-1.5 1.3195-1.58991 4-2.05305 4-.69113 0 1.52252-2.49879 3.9889-4.5 4.44164-1.1.24885-3.00854.26351-4.2412.03258zm15.09042-.74044c-2.18-.94281-3.3512-2.27516-3.80126-4.3243-1.0667-4.85663.336-8.2719 4.03156-9.81601C107.40569 79.968 112 83.0973 112 89.5c0 4.36228-1.66997 6.74104-5.5 7.83436-1.1.314-3.41785-.04227-5.15078-.79173zM107.8 93.8c2.67035-2.67035.63331-9.8-2.8-9.8-2.21287 0-4 2.78535-4 6.23426C101 92.97176 102.70235 95 105 95c.88 0 2.14-.54 2.8-1.2zm40.81473-35.55c-.32716-8.6625-.86216-18.0298-1.1889-20.8162l-.59407-5.0662 6.22874-1.88592 6.22873-1.8859-29.65272-9.76684L99.98379 9.0621 70.3431 18.91892c-26.22123 8.7197-29.24858 9.93931-26.2419 10.57192C45.97056 29.88414 50.2 31.24 53.5 32.50386c3.3 1.26386 15.35698 5.32708 26.7933 9.02938 20.772 6.72457 20.79709 6.72978 24.5 5.0937C108.80999 44.8522 142.74237 34 144.27486 34c.53698 0 .65452 1.80973.27603 4.25-.36255 2.3375-.89935 11.3375-1.19289 20L142.82428 74h6.38528zM96.66667 28.33333c-2.15367-2.15367 2.19733-3.71573 6.15677-2.21036 2.10355.79977 2.32485 1.17145 1.14268 1.91913-1.70488 1.07828-6.32796 1.26273-7.29945.29123z"/><path fill="#4e4e4e" d="M0 100V0h200v200H0zm130 86.5567c0-5.74826-2.24684-6.5567-18.22251-6.5567H98v-2.60608c0-3.68762 4.2598-6.67346 11.46313-8.03489 3.32028-.62754 9.36871-2.76259 13.44097-4.74456 5.50547-2.67952 7.73799-3.32647 8.70619-2.52293 1.75152 1.45362 3.67867.12143 3.08858-2.13507-.28391-1.08565.4888-2.7236 1.91849-4.06672l2.39385-2.24891-2.18038-2.32091c-2.06156-2.19444-2.31395-2.2334-4.6314-.71495-1.98701 1.30194-2.60505 1.35674-3.26467.28946-.54139-.87599.59347-2.8353 3.39158-5.85547C141.69903 134.92244 146 124.47226 146 111.81575c0-13.187-5.24667-25.05892-15.21307-34.42342-6.59019-6.1922-11.01469-8.926-17.06523-10.54428-2.59694-.69457-4.7217-1.52677-4.7217-1.84934 0-.997 16.569-6.0419 21.92806-6.6766C135.1021 57.82776 136 57.37306 136 55.75368c0-1.08226-1.36112-4.81971-3.02471-8.30545l-3.0247-6.3377-4.2253 1.28078c-2.32391.70443-9.05252 2.98728-14.95246 5.073l-10.72717 3.79223-13.10817-4.62827C79.72799 44.08272 72.9486 42 71.87219 42c-1.41868 0-2.77057 1.71949-4.91386 6.25-1.62622 3.4375-2.9571 6.97482-2.95754 7.8607-.00059 1.19418 1.33443 1.76885 5.16234 2.22221 2.83972.33633 8.77441 1.81417 13.1882 3.2841l8.02506 2.67258-6.4382 2.17826c-3.541 1.19803-7.41415 2.7933-8.60699 3.54503-1.83493 1.15639-2.42353 1.15538-3.82357-.0066-1.5098-1.25302-1.4293-1.49147.9188-2.72177 2.91531-1.52749 3.16466-2.91872 1.02927-5.74278-1.4316-1.89329-1.58002-1.89955-4.4761-.1888-2.69678 1.59303-3.0561 1.61124-3.60428.1827-.47887-1.2479-.91214-1.33504-2.02903-.40811-.78107.64824-1.33167 1.89722-1.22355 2.77552.10811.8783-2.23777 4.12426-5.21308 7.21325-6.37046 6.61384-11.55977 14.92778-14.20132 22.75233-1.04384 3.09196-2.13985 9.67734-2.43558 14.63417-.42643 7.14766-.10706 10.71535 1.54355 17.24261 3.43774 13.59443 12.36849 26.55685 23.56012 34.19605 2.68204 1.83071 8.44698 4.79013 12.81097 6.57649 4.36399 1.78636 9.0321 4.27903 10.37356 5.53928C90.0303 173.43764 91 175.47205 91 177.17431V180H77.46482c-10.77554 0-14.03773.32928-16 1.61501-1.81625 1.19005-2.46482 2.50571-2.46482 5V190h71zm-44.22691-24.63673c-7.03937-1.66048-16.28086-6.72655-22.36913-12.26246-9.92303-9.02277-16.3744-23.8595-16.3744-37.65751 0-12.92138 5.78354-27.43873 14.26315-35.80216 4.64663-4.58297 5.54639-5.09664 6.63332-3.78697 1.05663 1.27316.42707 2.35881-3.94131 6.79665-8.82507 8.96537-12.95193 19.44833-12.97285 32.95339-.01317 8.50359 2.2549 17.20657 6.26849 24.05329C61.02301 142.59871 70.64608 151.22861 78 154.79542c7.3952 3.58684 18.09529 5.58635 24.88588 4.65041 6.9029-.95142 13.85804-3.12444 17.80199-5.56194 2.90856-1.79759 3.66803-1.93198 4.39854-.77832.48563.76694.88986 1.65217.89828 1.96717.0268 1.00276-8.96854 5.10356-14.32109 6.5287-5.69401 1.51605-20.06432 1.69285-25.89051.31853zM148.59564 58.25c-.31905-8.6625-.69608-18-.83786-20.75l-.25778-5 5.82349-1.84317c3.20292-1.01375 5.6771-1.98958 5.49816-2.16851-.17893-.17894-13.3745-4.67563-29.32349-9.99266L100.5 8.82834 84 14.09022c-9.075 2.89404-17.175 5.63615-18 6.09359-.825.45744-6.655 2.4207-12.95554 4.36282-6.30055 1.94212-11.60208 3.67766-11.78118 3.85676-.1791.1791 12.98457 4.72114 29.2526 10.09343l29.57824 9.7678 20.20294-6.54946c11.11162-3.6022 21.21544-6.84207 22.45294-7.1997 2.02934-.58647 2.25-.30617 2.25 2.85814 0 1.9296-.411 3.76238-.91334 4.07284-.50234.31046-.96829 7.76202-1.03545 16.55902L142.9291 74h6.24662zM97.24377 28.35742C94.99554 27.41205 97.03122 26 100.64235 26c2.37169 0 3.39008.40881 3.11386 1.25-.43429 1.32261-4.39785 1.9966-6.51244 1.10742z"/><path fill="#2f2f2f" d="M0 100V0h200v200H0zm130 86.5567c0-5.74826-2.24684-6.5567-18.22251-6.5567H98v-2.54797c0-3.15176 4.54934-7.37469 8-7.42601 3.96988-.059 9.95055-1.98249 17.43405-5.60701 5.05511-2.44836 7.27877-3.07231 8.2062-2.30262 1.68949 1.40216 3.53038.166 3.1576-2.12033-.16382-1.00472.71717-2.90904 1.95776-4.23183l2.2556-2.40507-2.49513-2.34405c-2.44814-2.29991-2.53413-2.30875-4.56665-.46934-1.77005 1.60187-2.20303 1.66219-2.97509.41447-.65986-1.06639.25521-2.67396 3.39274-5.96024C141.7611 135.1606 146 124.73551 146 111.4714c0-12.81183-5.1121-24.6029-14.80077-34.138C126.08232 72.29759 115.19559 66 111.60703 66 110.72316 66 110 65.58696 110 65.08212c0-1.20525 14.11901-5.79053 20.5-6.65756 2.75-.37367 5.31475-.85955 5.69944-1.07974.9135-.52289-3.03843-11.4799-5.15036-14.27975l-1.63657-2.16965-14.40106 5.06589-14.40105 5.0659-14.90872-5.06317c-14.12848-4.7982-14.98064-4.969-16.28328-3.2636C67.76683 44.86263 64 54.48207 64 56.5375 64 57.48931 65.02697 58 66.94098 58c1.61754 0 3.20007.41921 3.51673.93158.31666.51237-.44408 1.6459-1.69054 2.51895-1.9386 1.35785-2.41578 1.38293-3.30016.17347-.82032-1.12186-1.37353-1.16552-2.67839-.21139-1.07112.78322-1.3468 1.68424-.79066 2.5841.60457.9782-.42404 2.50643-3.52312 5.23435C52.6367 74.37001 45.69761 85.00154 42.96113 93c-3.04306 8.89456-3.71352 23.16007-1.526 32.46898 2.9085 12.377 12.68059 26.92993 22.71405 33.82653 2.94295 2.02287 9.06603 5.19613 13.60683 7.05168C86.65366 169.98312 91 173.6601 91 177.55152V180H77.2225C61.24685 180 59 180.80844 59 186.5567V190h71zm-44.5-25.05223c-8.60024-2.34598-14.38357-5.44846-21.37765-11.46808-5.4862-4.72182-7.54945-7.39252-10.95253-14.17709-5.43548-10.83644-7.0559-20.44323-5.33167-31.6093 1.57738-10.21512 6.61569-20.73488 13.33175-27.83613 4.4587-4.71441 5.42357-5.32273 6.3762-4.01995.90819 1.24204.17054 2.5441-3.86404 6.82058-2.76352 2.92921-6.54265 8.54745-8.47714 12.60252-2.99684 6.28194-3.5595 8.63374-3.9775 16.62503-.57 10.89737.73362 17.6159 4.99295 25.73247 9.7342 18.54945 31.25453 28.74006 51.62008 24.44386 4.03726-.85168 9.32562-2.65803 11.75192-4.01412 4.16836-2.32974 4.46478-2.36599 5.37899-.65778.831 1.55273.16049 2.16961-4.75192 4.37184-3.14569 1.41021-7.74444 3.02949-10.21944 3.5984-6.22266 1.43037-18.50257 1.22374-24.5-.41225zM71.4152 69.86279c-.39313-.6361.35182-1.93275 1.69053-2.94254 2.3691-1.78701 2.37505-1.83634.58729-4.86279-.99335-1.6816-1.44315-3.05946-.99956-3.0619.4436-.0024 4.6266 1.20972 9.29557 2.69372l8.48904 2.69818-5.48904 1.63956c-3.01896.90176-6.92918 2.38958-8.68937 3.30627C74.53947 70.25 72.87853 71 72.60868 71c-.26986 0-.80692-.51175-1.19348-1.13722zm76.48819 4.21808c1.16102-.73506 1.30459-4.41852.83129-21.3277l-.57211-20.43917 5.41872-1.7081C156.56158 29.66645 159 28.71833 159 28.49899c0-.21935-5.0625-2.0013-11.25-3.9599-6.1875-1.95858-11.925-3.93658-12.75-4.39554-.825-.45896-9.06621-3.19978-18.3138-6.09072L99.8724 8.7966l-29.51364 9.69094c-16.2325 5.33001-29.31822 9.88635-29.07938 10.12519.51166.51166 8.6493 3.29816 33.22062 11.37543 9.9 3.2544 19.8 6.572 22 7.37245 3.51889 1.2803 4.42097 1.27518 7.5-.04252 1.925-.82383 11.75344-4.10246 21.84098-7.28587l18.34098-5.788-.62548 4.6279c-.34402 2.54533-.87748 11.05555-1.18547 18.91158-.41015 10.46216-.23439 14.676.65695 15.75 1.38448 1.66819 2.84576 1.83219 4.87543.54717zM97.73776 28.30832C94.89819 27.56762 96.81416 26 100.55902 26c3.57264 0 4.61133 1.33692 1.85919 2.39301-1.67515.64282-1.90757.63861-4.68045-.08469z"/><path fill="#000" d="M0 100V0h200v200H0zm130 86.82874c0-1.74419-.74474-3.99419-1.65499-5-1.4568-1.60975-3.37277-1.82874-16-1.82874H98v-3c0-1.65.43247-3 .96105-3 .52857 0 1.76607-.84371 2.74999-1.87492 1.09942-1.15225 3.90889-2.1321 7.28896-2.54215 3.11172-.3775 8.97387-2.32138 13.5-4.47658 4.4-2.09513 8.15-3.42616 8.33333-2.95784.51589 1.31781 2.79312 1.00651 4.09278-.55948.88488-1.06621.88831-1.58569.0141-2.12601-.7697-.4757-.20019-1.48878 1.70144-3.02666l2.85839-2.31162-2.71205-2.7517c-2.58152-2.61924-2.80325-2.66917-4.60662-1.03714-1.57495 1.42531-2.08394 1.48638-3.01711.36198-.87295-1.05185-.48174-1.82634 1.75948-3.48334 4.11525-3.04254 11.98623-16.15133 13.77451-22.94087 1.98118-7.52191 1.31214-22.94148-1.26943-29.25696-2.98622-7.30531-9.14077-15.74112-14.71426-20.16825-5.51761-4.38273-14.03882-8.82236-16.96456-8.8387-.9625-.00536-1.75-.367-1.75-.80364 0-1.13261 15.51145-5.9279 21.75-6.72392 2.8875-.36843 5.25-1.07291 5.25-1.56552 0-1.8936-5.23955-13.8706-6.54014-14.95-1.05231-.87334-4.71098.01758-15.83699 3.85642l-14.46852 4.99213-14.22218-4.90761C78.10997 43.20842 71.3016 41 70.80246 41c-.8803 0-6.00055 10.33805-7.2401 14.61811-.53886 1.86068-.09378 2.20146 3.66211 2.8039l4.27553.6858-2.49453 1.88484c-2.1127 1.59634-2.61833 1.66361-3.30339.43949-.62058-1.10892-1.27317-1.19687-2.80353-.37785-1.32443.70882-1.79797 1.68726-1.40927 2.91193.4097 1.29087-.28018 2.46076-2.29867 3.89805-4.15127 2.95597-13.15837 16.42793-16.10042 24.08148C40.8402 97.79893 40.57292 99.944 40.59136 112c.01736 11.34923.36553 14.42746 2.18538 19.3215 2.96646 7.97752 10.29618 18.70606 16.53358 24.20025C64.36332 159.97267 80.6991 169 83.70044 169 85.98902 169 91 174.90766 91 177.60576V180H77.2225C61.24685 180 59 180.80844 59 186.5567V190h71zM87.10833 161.9184c-6.93417-1.3618-17.01513-6.56557-22.53869-11.63444C53.21738 139.8662 47.59933 127.1731 47.6249 112c.02417-14.34668 4.3977-25.6018 13.76844-35.43263 4.4564-4.6752 5.6926-5.507 6.20399-4.17436.43983 1.14619-.92017 3.31247-4.36891 6.959-2.75415 2.9121-5.9159 7.07526-7.02612 9.25146-5.67058 11.11527-7.06166 26.51734-3.43212 38.00071 4.9039 15.51531 18.4788 28.12153 34.2975 31.85011 3.53778.83388 8.5935 1.5228 11.23493 1.53093 6.9002.0212 18.06526-2.74563 22.08383-5.47271 1.89799-1.28801 3.7125-2.08025 4.03224-1.76051 1.47889 1.47889.25065 3.37605-3.38719 5.23194-8.63286 4.40416-23.02931 6.07388-33.92315 3.93446zM71.69777 70.36443c-1.31356-1.31356-.6969-2.41427 1.90729-3.40437 2.53562-.96404 2.5606-1.0583.93699-3.53623-.91744-1.40018-1.52721-2.91407-1.35506-3.3642.17216-.45013 4.13801.43635 8.81301 1.96997s7.6 2.84002 6.5 2.90313c-1.61702.09277-7.96164 2.47747-15.05223 5.65755-.57873.25955-1.36623.15792-1.75-.22585zM148.5 53.59687V32.69374l5.41024-1.84044c2.97563-1.01224 5.59689-2.0271 5.82502-2.25522C160.30671 28.02662 102.23778 9 99.92225 9c-1.68939 0-58.94741 18.69183-59.7662 19.51062-.1912.1912 2.81094 1.2883 6.67142 2.438 3.86048 1.1497 8.29109 2.75382 9.8458 3.56471 1.5547.8109 3.29217 1.47712 3.86104 1.4805.56888.0034 9.96428 2.93524 20.87869 6.51522 18.43263 6.046 20.04266 6.41012 22.63184 5.11847 4.57272-2.28117 39.01751-12.8985 39.6838-12.23221.33833.33832.0878 3.47717-.55675 6.97521-1.27266 6.90699-1.61626 30.85177-.45931 32.00872.39191.39192 1.85441.57942 3.25.41667L148.5 74.5zM97 27c0-.55 1.32344-1 2.94098-1 1.61754 0 3.2191.45 3.55902 1 .3678.59512-.82295 1-2.94098 1C98.60156 28 97 27.55 97 27z"/></g></g></svg>