<svg xmlns="http://www.w3.org/2000/svg" role="img" xmlns:xlink="http://www.w3.org/1999/xlink" viewBox="-4.76 -4.26 247.26 242.51"><title>CoopCycle logo</title><defs id="defs10567"><path id="b3oJAPLe5v" d="m 107.54,100.04 -0.3,0.03 -0.29,0.05 -0.3,0.05 -0.29,0.07 -0.3,0.07 -0.29,0.09 -0.28,0.1 -0.29,0.1 -0.28,0.12 -0.28,0.13 -0.27,0.14 -0.27,0.15 -0.26,0.16 -0.26,0.17 -0.26,0.18 -0.25,0.19 -0.24,0.2 -0.24,0.21 -0.23,0.22 -0.22,0.23 -0.21,0.24 -0.2,0.24 -0.19,0.25 -0.18,0.26 -0.17,0.26 -0.16,0.26 -0.15,0.27 -0.14,0.27 -0.13,0.28 -0.11,0.28 -0.11,0.29 -0.1,0.28 -0.08,0.29 -0.08,0.3 -0.07,0.29 -0.05,0.3 -0.05,0.29 -0.03,0.3 -0.02,0.3 -0.02,0.3 v 0.3 l 0.01,0.3 0.02,0.3 0.03,0.3 0.04,0.3 0.05,0.29 0.06,0.3 0.07,0.29 0.08,0.29 0.1,0.29 0.1,0.28 0.11,0.28 0.13,0.28 0.13,0.27 0.15,0.27 0.15,0.27 0.17,0.26 0.18,0.25 0.19,0.25 -0.21,0.12 -0.2,0.12 -0.21,0.12 -0.2,0.12 -0.21,0.11 -0.21,0.11 -0.21,0.12 -0.21,0.11 -0.21,0.11 -0.21,0.11 -0.21,0.1 -0.22,0.11 -0.21,0.1 -0.22,0.11 -0.22,0.1 -0.21,0.1 -0.22,0.1 -0.22,0.09 -0.22,0.1 -0.22,0.09 -0.22,0.1 -0.22,0.09 -0.23,0.08 -0.22,0.09 -0.23,0.09 -0.22,0.08 -0.23,0.08 -0.23,0.09 -0.22,0.07 -0.23,0.08 -0.23,0.08 -0.23,0.07 -0.23,0.07 -0.24,0.07 -0.23,0.07 -0.23,0.07 -0.24,0.06 -0.23,0.07 -0.24,0.06 -0.23,0.06 -0.05,-0.32 -0.05,-0.31 -0.07,-0.3 -0.08,-0.3 -0.08,-0.3 -0.1,-0.29 -0.11,-0.28 -0.12,-0.28 -0.13,-0.28 -0.13,-0.27 -0.15,-0.26 -0.15,-0.26 -0.17,-0.25 -0.17,-0.25 -0.18,-0.24 -0.19,-0.23 -0.2,-0.23 -0.2,-0.22 -0.22,-0.21 -0.22,-0.2 -0.22,-0.2 -0.24,-0.18 -0.24,-0.18 -0.25,-0.17 -0.25,-0.17 -0.26,-0.15 -0.26,-0.14 -0.28,-0.14 -0.27,-0.12 -0.28,-0.12 -0.29,-0.1 -0.29,-0.1 -0.3,-0.08 -0.3,-0.08 -0.3,-0.06 -0.31,-0.05 -0.31,-0.04 -0.32,-0.03 -0.32,-0.02 -0.32,-0.01 -0.32,0.01 -0.32,0.02 -0.32,0.03 -0.31,0.04 -0.31,0.05 -0.3,0.07 -0.31,0.07 -0.29,0.09 -0.29,0.1 -0.29,0.1 -0.28,0.12 -0.28,0.13 -0.27,0.13 -0.26,0.15 -0.26,0.15 -0.26,0.17 -0.24,0.17 -0.25,0.18 -0.23,0.19 -0.23,0.19 -0.22,0.21 -0.21,0.21 -0.2,0.22 -0.2,0.23 -0.19,0.23 -0.18,0.24 -0.17,0.24 -0.17,0.26 -0.15,0.25 -0.15,0.27 -0.14,0.27 -0.12,0.27 -0.12,0.28 -0.11,0.28 -0.1,0.29 -0.09,0.3 -0.07,0.29 -0.07,0.3 -0.05,0.31 -0.05,0.31 -0.24,-0.07 -0.23,-0.06 -0.24,-0.07 -0.23,-0.07 -0.23,-0.07 -0.24,-0.07 -0.23,-0.07 -0.23,-0.07 -0.23,-0.08 -0.23,-0.08 -0.23,-0.07 -0.23,-0.08 -0.22,-0.08 -0.23,-0.09 -0.23,-0.08 -0.22,-0.09 -0.23,-0.08 -0.22,-0.09 -0.22,-0.09 -0.22,-0.09 -0.22,-0.09 -0.22,-0.1 -0.22,-0.09 -0.22,-0.1 -0.22,-0.1 -0.21,-0.1 -0.22,-0.1 -0.21,-0.1 -0.22,-0.11 -0.21,-0.1 -0.21,-0.11 -0.21,-0.11 -0.21,-0.11 -0.21,-0.11 -0.21,-0.11 -0.21,-0.12 -0.2,-0.11 -0.21,-0.12 -0.2,-0.12 -0.21,-0.12 0.19,-0.25 0.18,-0.25 0.16,-0.26 0.16,-0.27 0.15,-0.27 0.13,-0.27 0.13,-0.28 0.11,-0.28 0.1,-0.28 0.09,-0.29 0.09,-0.29 0.07,-0.29 0.06,-0.3 0.05,-0.29 0.04,-0.3 0.03,-0.3 0.02,-0.3 0.01,-0.3 -0.01,-0.3 -0.01,-0.3 -0.02,-0.3 -0.04,-0.3 -0.04,-0.29 -0.06,-0.3 -0.06,-0.29 -0.08,-0.3 -0.08,-0.29 -0.1,-0.28 -0.11,-0.29 -0.12,-0.28 -0.12,-0.28 -0.14,-0.27 -0.15,-0.27 -0.16,-0.26 -0.17,-0.26 -0.18,-0.26 -0.19,-0.25 -0.2,-0.24 -0.22,-0.24 -0.22,-0.23 -0.23,-0.22 -0.23,-0.21 -0.25,-0.2 -0.25,-0.19 -0.25,-0.18 -0.26,-0.17 -0.27,-0.16 -0.26,-0.15 -0.28,-0.14 -0.27,-0.13 -0.29,-0.12 -0.28,-0.1 -0.29,-0.1 -0.29,-0.09 -0.29,-0.07 -0.29,-0.07 -0.3,-0.05 -0.3,-0.05 -0.3,-0.03 -0.29,-0.02 -0.3,-0.02 h -0.3 l -0.3,0.01 -0.3,0.02 -0.3,0.03 -0.3,0.04 -0.3,0.05 -0.29,0.06 -0.29,0.07 -0.29,0.08 -0.29,0.09 -0.29,0.11 -0.28,0.11 -0.27,0.13 -0.28,0.13 -0.27,0.15 -0.26,0.15 -0.26,0.17 -0.26,0.18 -0.25,0.18 -0.12,-0.2 -0.12,-0.2 -0.11,-0.21 -0.12,-0.21 -0.11,-0.2 -0.12,-0.21 -0.11,-0.21 -0.11,-0.21 -0.11,-0.21 -0.11,-0.21 -0.11,-0.22 -0.1,-0.21 -0.11,-0.21 -0.1,-0.22 -0.1,-0.22 -0.1,-0.21 -0.1,-0.22 -0.1,-0.22 -0.09,-0.22 -0.1,-0.22 -0.09,-0.22 -0.09,-0.22 -0.09,-0.23 -0.09,-0.22 -0.08,-0.23 -0.09,-0.22 -0.08,-0.23 -0.08,-0.23 -0.08,-0.22 -0.08,-0.23 -0.07,-0.23 -0.07,-0.23 -0.08,-0.23 -0.07,-0.24 -0.07,-0.23 -0.06,-0.23 -0.07,-0.24 -0.06,-0.23 -0.06,-0.24 -0.06,-0.23 0.31,-0.05 0.31,-0.05 0.31,-0.07 0.3,-0.08 0.29,-0.09 0.29,-0.09 0.29,-0.11 0.28,-0.12 0.28,-0.13 0.27,-0.13 0.26,-0.15 0.26,-0.16 0.25,-0.16 0.25,-0.17 0.24,-0.18 0.23,-0.19 0.22,-0.2 0.22,-0.21 0.21,-0.21 0.21,-0.22 0.19,-0.22 0.19,-0.24 0.18,-0.24 0.17,-0.25 0.16,-0.25 0.15,-0.26 0.15,-0.27 0.13,-0.27 0.13,-0.27 0.11,-0.28 0.11,-0.29 0.09,-0.29 0.09,-0.3 0.07,-0.3 0.07,-0.3 0.05,-0.31 0.04,-0.31 0.03,-0.32 0.02,-0.32 V 84.56 84.24 L 59.1,83.92 59.07,83.6 59.03,83.29 58.98,82.98 58.91,82.67 58.84,82.37 58.75,82.08 58.66,81.79 58.55,81.5 58.44,81.22 58.31,80.94 58.18,80.67 58.03,80.4 57.88,80.15 57.72,79.89 57.55,79.64 57.37,79.4 57.18,79.17 56.99,78.94 56.78,78.72 56.57,78.51 56.35,78.31 56.13,78.11 55.9,77.92 55.66,77.74 55.41,77.56 55.16,77.4 54.9,77.25 54.64,77.1 l -0.27,-0.14 -0.28,-0.13 -0.28,-0.11 -0.29,-0.11 -0.29,-0.1 -0.29,-0.09 -0.3,-0.07 -0.31,-0.07 -0.31,-0.06 -0.31,-0.04 0.06,-0.24 0.07,-0.23 0.07,-0.24 0.06,-0.23 0.07,-0.24 0.07,-0.23 0.08,-0.23 0.07,-0.23 0.07,-0.23 0.08,-0.23 0.08,-0.23 0.08,-0.23 0.08,-0.23 0.08,-0.22 0.09,-0.23 0.08,-0.22 0.09,-0.23 0.09,-0.22 0.09,-0.22 0.09,-0.22 0.09,-0.22 0.09,-0.22 0.1,-0.22 0.1,-0.22 0.09,-0.22 0.1,-0.22 0.11,-0.21 0.1,-0.22 0.1,-0.21 0.11,-0.21 0.11,-0.21 0.1,-0.21 0.11,-0.21 0.12,-0.21 0.11,-0.21 0.11,-0.21 0.12,-0.21 0.12,-0.2 0.11,-0.21 0.12,-0.2 0.25,0.19 0.26,0.18 0.26,0.16 0.26,0.16 0.27,0.14 0.28,0.14 0.27,0.12 0.28,0.12 0.29,0.1 0.29,0.09 0.29,0.09 0.29,0.07 0.29,0.06 0.3,0.05 0.3,0.04 0.3,0.03 0.3,0.02 h 0.3 0.3 l 0.3,-0.01 0.29,-0.02 0.3,-0.04 0.3,-0.04 0.3,-0.06 0.29,-0.06 0.29,-0.08 0.29,-0.09 0.29,-0.09 0.28,-0.11 0.29,-0.12 0.27,-0.13 0.28,-0.13 0.26,-0.15 0.27,-0.16 0.26,-0.17 0.25,-0.18 0.25,-0.19 0.25,-0.2 0.23,-0.22 0.23,-0.22 0.22,-0.23 0.22,-0.24 0.2,-0.24 0.19,-0.25 0.18,-0.25 0.17,-0.26 0.16,-0.27 0.15,-0.27 0.14,-0.27 0.12,-0.28 0.12,-0.28 0.11,-0.28 0.1,-0.29 0.08,-0.29 0.08,-0.29 0.06,-0.29 0.06,-0.3 0.04,-0.3 0.04,-0.3 0.02,-0.3 0.01,-0.3 0.01,-0.3 -0.01,-0.3 -0.02,-0.29 -0.03,-0.3 -0.04,-0.3 -0.05,-0.3 -0.06,-0.29 -0.07,-0.29 -0.09,-0.29 -0.09,-0.29 -0.1,-0.29 -0.11,-0.28 -0.13,-0.27 -0.13,-0.28 -0.15,-0.27 -0.16,-0.26 -0.16,-0.26 -0.18,-0.26 -0.19,-0.25 0.21,-0.12 0.2,-0.12 0.21,-0.11 0.2,-0.12 0.21,-0.12 0.21,-0.11 0.21,-0.11 0.21,-0.11 0.21,-0.11 0.21,-0.11 0.21,-0.11 0.22,-0.1 0.21,-0.11 0.22,-0.1 0.21,-0.1 0.22,-0.1 0.22,-0.1 0.22,-0.1 0.22,-0.09 0.22,-0.1 0.22,-0.09 0.22,-0.09 0.22,-0.09 0.23,-0.09 0.22,-0.08 0.23,-0.09 0.23,-0.08 0.22,-0.08 0.23,-0.08 0.23,-0.08 0.23,-0.07 0.23,-0.08 0.23,-0.07 0.23,-0.07 0.24,-0.07 0.23,-0.06 0.23,-0.07 0.24,-0.06 0.23,-0.06 0.24,-0.06 0.05,0.31 0.05,0.31 0.07,0.3 0.07,0.31 0.09,0.29 0.1,0.29 0.11,0.29 0.12,0.28 0.12,0.27 0.14,0.27 0.15,0.27 0.15,0.26 0.17,0.25 0.17,0.25 0.18,0.24 0.19,0.23 0.2,0.22 0.2,0.22 0.21,0.21 0.22,0.21 0.23,0.19 0.23,0.19 0.25,0.18 0.24,0.17 0.26,0.16 0.26,0.15 0.26,0.15 0.27,0.13 0.28,0.13 0.28,0.11 0.29,0.11 0.29,0.09 0.29,0.09 0.31,0.07 0.3,0.06 0.31,0.06 0.31,0.04 0.32,0.03 0.32,0.01 0.32,0.01 0.32,-0.01 0.32,-0.01 0.32,-0.03 0.31,-0.04 0.31,-0.06 0.3,-0.06 0.3,-0.07 0.3,-0.09 0.29,-0.09 0.29,-0.11 0.28,-0.11 0.27,-0.13 0.28,-0.13 0.26,-0.15 0.26,-0.15 0.25,-0.16 0.25,-0.17 0.24,-0.18 0.24,-0.19 0.22,-0.19 0.22,-0.21 0.22,-0.21 0.2,-0.22 0.2,-0.22 0.19,-0.23 0.18,-0.24 0.17,-0.25 0.17,-0.25 0.15,-0.26 0.15,-0.27 0.13,-0.27 0.13,-0.27 0.12,-0.28 0.11,-0.29 0.1,-0.29 0.08,-0.29 0.08,-0.31 0.07,-0.3 0.05,-0.31 0.05,-0.31 0.23,0.06 0.24,0.07 0.23,0.06 0.24,0.07 0.23,0.07 0.23,0.07 0.24,0.08 0.23,0.07 0.23,0.07 0.23,0.08 0.23,0.08 0.22,0.08 0.23,0.08 0.23,0.08 0.22,0.09 0.23,0.08 0.22,0.09 0.23,0.09 0.22,0.09 0.22,0.09 0.22,0.09 0.22,0.09 0.22,0.1 0.22,0.1 0.21,0.09 0.22,0.1 0.22,0.1 0.21,0.11 0.22,0.1 0.21,0.11 0.21,0.1 0.21,0.11 0.21,0.11 0.21,0.11 0.21,0.12 0.21,0.11 0.2,0.12 0.21,0.11 0.2,0.12 0.21,0.12 -0.19,0.25 -0.18,0.26 -0.17,0.26 -0.15,0.26 -0.15,0.27 -0.13,0.28 -0.13,0.27 -0.11,0.28 -0.1,0.29 -0.1,0.29 -0.08,0.29 -0.07,0.29 -0.06,0.29 -0.05,0.3 -0.04,0.3 -0.03,0.3 -0.02,0.29 -0.01,0.3 v 0.3 l 0.02,0.3 0.02,0.3 0.03,0.3 0.05,0.3 0.05,0.3 0.07,0.29 0.08,0.29 0.08,0.29 0.1,0.29 0.11,0.28 0.11,0.28 0.13,0.28 0.14,0.27 0.15,0.27 0.16,0.27 0.17,0.26 0.18,0.25 0.19,0.25 0.2,0.24 0.21,0.24 0.22,0.23 0.23,0.22 0.24,0.22 0.24,0.2 0.25,0.19 0.26,0.18 0.26,0.17 0.26,0.16 0.27,0.15 0.27,0.13 0.28,0.13 0.28,0.12 0.29,0.11 0.28,0.09 0.29,0.09 0.3,0.08 0.29,0.06 0.3,0.06 0.29,0.04 0.3,0.04 0.3,0.02 0.3,0.01 h 0.3 0.3 l 0.3,-0.02 0.3,-0.03 0.3,-0.04 0.29,-0.05 0.3,-0.06 0.29,-0.07 0.29,-0.09 0.29,-0.09 0.28,-0.1 0.28,-0.12 0.28,-0.12 0.27,-0.14 0.27,-0.14 0.27,-0.16 0.26,-0.16 0.25,-0.18 0.25,-0.19 0.12,0.2 0.12,0.21 0.12,0.2 0.12,0.21 0.11,0.21 0.12,0.21 0.11,0.21 0.11,0.21 0.11,0.21 0.11,0.21 0.11,0.21 0.1,0.21 0.11,0.22 0.1,0.21 0.1,0.22 0.1,0.22 0.1,0.22 0.09,0.22 0.1,0.22 0.09,0.22 0.1,0.22 0.09,0.22 0.09,0.22 0.08,0.23 0.09,0.22 0.08,0.23 0.09,0.22 0.08,0.23 0.08,0.23 0.07,0.23 0.08,0.23 0.07,0.23 0.07,0.23 0.07,0.23 0.07,0.23 0.07,0.24 0.06,0.23 0.07,0.24 0.06,0.23 0.06,0.24 -0.32,0.04 -0.3,0.06 -0.31,0.07 -0.3,0.07 -0.29,0.09 -0.3,0.1 -0.28,0.11 -0.28,0.11 -0.28,0.13 -0.27,0.14 -0.26,0.15 -0.26,0.15 -0.25,0.16 -0.25,0.18 -0.24,0.18 -0.23,0.19 -0.23,0.2 -0.22,0.2 -0.21,0.21 -0.2,0.22 -0.2,0.23 -0.18,0.23 -0.18,0.24 -0.17,0.25 -0.16,0.26 -0.16,0.25 -0.14,0.27 -0.14,0.27 -0.12,0.28 -0.12,0.28 -0.1,0.29 -0.1,0.29 -0.08,0.29 -0.07,0.3 -0.07,0.31 -0.05,0.31 -0.04,0.31 -0.03,0.32 -0.02,0.32 v 0.32 0.32 l 0.02,0.32 0.03,0.32 0.04,0.31 0.05,0.31 0.07,0.3 0.07,0.3 0.08,0.3 0.1,0.29 0.1,0.29 0.12,0.28 0.12,0.27 0.14,0.27 0.14,0.27 0.16,0.26 0.16,0.25 0.17,0.25 0.18,0.24 0.18,0.24 0.2,0.22 0.2,0.22 0.21,0.21 0.22,0.21 0.23,0.2 0.23,0.19 0.24,0.18 0.25,0.17 0.25,0.16 0.26,0.16 0.26,0.15 0.27,0.13 0.28,0.13 0.28,0.12 0.28,0.11 0.3,0.09 0.29,0.09 0.3,0.08 0.31,0.07 0.3,0.05 0.32,0.05 -0.07,0.23 -0.06,0.24 -0.07,0.23 -0.07,0.24 -0.07,0.23 -0.07,0.23 -0.07,0.24 -0.07,0.23 -0.08,0.23 -0.07,0.23 -0.08,0.23 -0.08,0.22 -0.08,0.23 -0.09,0.23 -0.08,0.22 -0.08,0.23 -0.09,0.22 -0.09,0.23 -0.09,0.22 -0.09,0.22 -0.09,0.22 -0.1,0.22 -0.09,0.22 -0.1,0.22 -0.1,0.21 -0.1,0.22 -0.1,0.22 -0.1,0.21 -0.11,0.21 -0.1,0.22 -0.11,0.21 -0.11,0.21 -0.11,0.21 -0.11,0.21 -0.11,0.21 -0.12,0.2 -0.11,0.21 -0.12,0.21 -0.12,0.2 -0.12,0.2 -0.25,-0.18 -0.25,-0.18 -0.26,-0.17 -0.27,-0.15 -0.27,-0.15 -0.27,-0.13 -0.28,-0.13 -0.28,-0.11 -0.28,-0.11 -0.29,-0.09 -0.29,-0.08 -0.29,-0.07 -0.3,-0.06 -0.29,-0.05 -0.3,-0.04 -0.3,-0.03 -0.3,-0.02 -0.3,-0.01 h -0.3 l -0.3,0.02 z m -25.82,-27.89 -1.29,0.36 -1.23,0.48 -1.16,0.6 -1.09,0.72 -1.01,0.82 -0.92,0.92 -0.82,1 -0.72,1.09 -0.6,1.17 -0.48,1.23 -0.35,1.29 -0.22,1.34 -0.08,1.39 0.08,1.38 0.22,1.34 0.35,1.3 0.48,1.23 0.6,1.16 0.72,1.09 0.82,1.01 0.92,0.92 1.01,0.82 1.09,0.71 1.16,0.61 1.23,0.48 1.29,0.35 1.34,0.22 1.39,0.07 1.38,-0.07 1.35,-0.22 1.29,-0.35 1.23,-0.48 1.16,-0.61 1.09,-0.71 1.01,-0.82 0.92,-0.92 0.82,-1.01 0.71,-1.09 0.61,-1.16 0.48,-1.23 0.35,-1.3 0.22,-1.34 0.07,-1.38 -0.07,-1.39 -0.22,-1.34 -0.35,-1.29 -0.48,-1.23 -0.61,-1.17 -0.71,-1.09 -0.82,-1 -0.92,-0.92 -1.01,-0.82 -1.09,-0.72 -1.16,-0.6 -1.23,-0.48 -1.29,-0.36 -1.35,-0.21 -1.38,-0.08 -1.39,0.08 z"/><path id="e5pUIamS" d="M 132.27,132.38 C 105.84,158.8 63.05,158.8 36.7,132.38 10.34,105.95 10.27,63.16 36.7,36.8 49.91,23.59 67.18,17.02 84.51,17.02 c 0,-1.69 0,-15.2 0,-16.88 -21.65,0 -43.24,8.24 -59.74,24.74 -32.99,33 -32.99,86.49 0,119.48 33,33 86.49,33 119.48,0 16.5,-16.5 24.75,-38.15 24.75,-59.74 -1.13,0 -6.78,-0.02 -16.95,-0.06 -4.38,23.07 -10.98,39.01 -19.78,47.82 z"/><path id="aJ4MdQrTs" d="m 84.45,25.4 c -15.79,0 -30.68,6.12 -41.83,17.33 -11.53,11.54 -17.33,26.68 -17.33,41.83 1.26,0 11.37,0 12.63,0 0,-11.92 4.51,-23.78 13.6,-32.87 18.17,-18.17 47.56,-18.17 65.73,0 18.17,18.17 18.17,47.56 0,65.73 -9.09,9.09 -20.94,13.6 -32.87,13.6 0,1.27 0,11.37 0,12.63 15.15,0 30.29,-5.73 41.83,-17.27 11.15,-11.15 17.33,-26.03 17.33,-41.82 0,-0.57 0,-3.38 0,-8.44 4.76,0 7.4,0 7.93,0 -1.8,-14.38 -8.25,-28.3 -19.27,-39.38 -11.02,-11.02 -24.94,-17.46 -39.37,-19.27 0,0.53 0.02,3.17 0.06,7.93 -5.06,0 -7.88,0 -8.44,0 z"/></defs><g id="g10595" transform="translate(34.45 .36)"><g id="g10593"><g id="g10575"><use id="use10569" fill="#ed1a3b" fill-opacity="1" opacity="1" xlink:href="#b3oJAPLe5v"/><g id="g10573"><use id="use10571" fill-opacity="0" stroke="#000" stroke-opacity="0" stroke-width="1" opacity="1" xlink:href="#b3oJAPLe5v"/></g></g><g id="g10583"><use id="use10577" fill="#ed1a3b" fill-opacity="1" opacity="1" xlink:href="#e5pUIamS"/><g id="g10581"><use id="use10579" fill-opacity="0" stroke="#000" stroke-opacity="0" stroke-width="1" opacity="1" xlink:href="#e5pUIamS"/></g></g><g id="g10591"><use id="use10585" fill="#ed1a3b" fill-opacity="1" opacity="1" xlink:href="#aJ4MdQrTs"/><g id="g10589"><use id="use10587" fill-opacity="0" stroke="#000" stroke-opacity="0" stroke-width="1" opacity="1" xlink:href="#aJ4MdQrTs"/></g></g></g></g><g id="svgGroup" fill="#000" fill-rule="evenodd" stroke="#000" stroke-linecap="round" stroke-width=".25mm" transform="translate(.226 187.733) scale(.47917)"><path id="path10597" d="m 59.4,17.1 -1.9,0.6 A 27.656,27.656 0 0 0 54.317,12.832 22.115,22.115 0 0 0 50.8,9.4 26.39,26.39 0 0 0 43.937,5.518 24.575,24.575 0 0 0 42.25,4.95 Q 37.7,3.6 33.1,3.6 A 32.295,32.295 0 0 0 25.689,4.418 26.422,26.422 0 0 0 19.9,6.5 Q 14.1,9.4 10.1,14.3 6.1,19.2 4.05,25.15 2,31.1 2,37.3 q 0,6.8 2.4,12.95 2.4,6.15 6.7,10.95 4.3,4.8 10,7.6 5.7,2.8 12.3,2.8 A 29.935,29.935 0 0 0 41.018,70.584 35.017,35.017 0 0 0 43,70 q 4.9,-1.6 9.2,-4.9 a 24.696,24.696 0 0 0 6.3,-7.23 29.041,29.041 0 0 0 0.7,-1.27 l 1.9,0.5 q -2.4,5.3 -7,9 -4.6,3.7 -10.15,5.6 A 34.879,34.879 0 0 1 36.049,73.45 31.187,31.187 0 0 1 33,73.6 28.58,28.58 0 0 1 21.717,71.378 27.632,27.632 0 0 1 19.75,70.45 Q 13.7,67.3 9.25,62.05 4.8,56.8 2.4,50.25 0,43.7 0,37 0,30.6 2.25,24.35 4.5,18.1 8.8,12.95 13.1,7.8 19.3,4.7 A 29.229,29.229 0 0 1 28.618,1.91 37.291,37.291 0 0 1 33.5,1.6 34.496,34.496 0 0 1 41.129,2.403 25.463,25.463 0 0 1 49.6,5.95 27.354,27.354 0 0 1 57.822,14.218 26.676,26.676 0 0 1 59.4,17.1 Z m 247.2,0 -1.9,0.6 A 27.656,27.656 0 0 0 301.517,12.832 22.115,22.115 0 0 0 298,9.4 26.39,26.39 0 0 0 291.137,5.518 24.575,24.575 0 0 0 289.45,4.95 Q 284.9,3.6 280.3,3.6 A 32.295,32.295 0 0 0 272.889,4.418 26.422,26.422 0 0 0 267.1,6.5 q -5.8,2.9 -9.8,7.8 -4,4.9 -6.05,10.85 -2.05,5.95 -2.05,12.15 0,6.8 2.4,12.95 2.4,6.15 6.7,10.95 4.3,4.8 10,7.6 5.7,2.8 12.3,2.8 A 29.935,29.935 0 0 0 288.218,70.584 35.017,35.017 0 0 0 290.2,70 q 4.9,-1.6 9.2,-4.9 a 24.696,24.696 0 0 0 6.3,-7.23 29.041,29.041 0 0 0 0.7,-1.27 l 1.9,0.5 q -2.4,5.3 -7,9 -4.6,3.7 -10.15,5.6 A 34.879,34.879 0 0 1 283.249,73.45 31.187,31.187 0 0 1 280.2,73.6 28.58,28.58 0 0 1 268.917,71.378 27.632,27.632 0 0 1 266.95,70.45 Q 260.9,67.3 256.45,62.05 252,56.8 249.6,50.25 247.2,43.7 247.2,37 q 0,-6.4 2.25,-12.65 2.25,-6.25 6.55,-11.4 4.3,-5.15 10.5,-8.25 a 29.229,29.229 0 0 1 9.318,-2.79 37.291,37.291 0 0 1 4.882,-0.31 34.496,34.496 0 0 1 7.629,0.803 25.463,25.463 0 0 1 8.471,3.547 27.354,27.354 0 0 1 8.222,8.268 26.676,26.676 0 0 1 1.578,2.882 z m 18.3,78.2 v -2 q 1.7,0 2.95,-0.15 a 3.948,3.948 0 0 0 0.66,-0.133 q 0.35,-0.104 0.614,-0.272 A 1.692,1.692 0 0 0 329.6,92.3 q 0.386,-0.483 1.052,-1.852 A 35.125,35.125 0 0 0 330.7,90.35 q 0.7,-1.45 2.45,-5.45 a 1039.794,1039.794 0 0 0 0.978,-2.244 q 1.115,-2.565 2.669,-6.167 A 4726.849,4726.849 0 0 0 338.3,73 L 314.2,21.1 h 2.2 L 339.3,70.5 361,21.1 h 2.2 l -30.9,70.5 q -0.4,0.9 -0.9,1.55 -0.5,0.65 -1.05,1.05 A 3.407,3.407 0 0 1 329.652,94.587 4.596,4.596 0 0 1 329,94.8 23.89,23.89 0 0 1 327.832,95.028 29.448,29.448 0 0 1 327.05,95.15 Q 326,95.3 324.9,95.3 Z M 495.6,48.2 h -47.5 q 0.5,6.7 3.7,12.1 3.2,5.4 8.3,8.55 5.1,3.15 11.1,3.15 6,0 11.2,-3.05 a 20.093,20.093 0 0 0 4.216,-3.244 16.163,16.163 0 0 0 3.184,-4.606 l 1.9,0.5 a 16.34,16.34 0 0 1 -3.042,4.837 20.219,20.219 0 0 1 -1.508,1.513 23.007,23.007 0 0 1 -7.089,4.349 26.056,26.056 0 0 1 -0.261,0.101 q -4.2,1.6 -8.7,1.6 -5.1,0 -9.65,-2.15 -4.55,-2.15 -8,-5.9 Q 450,62.2 448.05,57.25 446.1,52.3 446.1,46.7 a 27.912,27.912 0 0 1 1.696,-9.797 26.163,26.163 0 0 1 1.604,-3.503 q 3.3,-6 8.85,-9.55 5.55,-3.55 12.35,-3.55 6.9,0 12.55,3.6 5.65,3.6 9.05,9.65 a 26.758,26.758 0 0 1 3.359,11.927 32.084,32.084 0 0 1 0.041,1.623 v 0.55 z M 413,31.9 l -2,0.7 q -2.5,-4.8 -7.3,-7.55 -4.8,-2.75 -10.5,-2.75 -6.3,0 -11.45,3.25 -5.15,3.25 -8.2,8.8 a 24.887,24.887 0 0 0 -2.99,10.536 30,30 0 0 0 -0.06,1.914 q 0,6.8 3.1,12.55 3.1,5.75 8.3,9.2 5.2,3.45 11.4,3.45 4.1,0 8,-1.55 3.9,-1.55 6.75,-4.05 a 14.997,14.997 0 0 0 1.849,-1.917 Q 411.2,62.85 411.7,61.1 l 2,0.6 A 13.449,13.449 0 0 1 411.006,66.463 17.113,17.113 0 0 1 409.5,68 22.93,22.93 0 0 1 402.765,72.195 26.123,26.123 0 0 1 402.25,72.4 q -4.15,1.6 -8.65,1.6 -5.1,0 -9.65,-2.15 -4.55,-2.15 -8.05,-5.9 -3.5,-3.75 -5.45,-8.65 A 27.994,27.994 0 0 1 368.504,47.323 31.885,31.885 0 0 1 368.5,46.8 29.336,29.336 0 0 1 369.663,38.423 25.834,25.834 0 0 1 371.8,33.3 q 3.3,-6 9,-9.5 5.7,-3.5 12.7,-3.5 a 23.769,23.769 0 0 1 7.75,1.237 21.647,21.647 0 0 1 3.95,1.813 q 5.2,3.05 7.8,8.55 z M 192.5,61.1 v 33.2 h -2 V 21.1 h 2 v 11 q 3.3,-5.2 8.85,-8.5 5.55,-3.3 11.45,-3.3 5.5,0 10.05,2.3 4.55,2.3 7.9,6.15 3.35,3.85 5.2,8.65 1.85,4.8 1.85,9.8 0,7.1 -3,13.2 -3,6.1 -8.4,9.85 A 21.001,21.001 0 0 1 216.262,73.879 26.575,26.575 0 0 1 213.7,74 q -6.9,0 -12.35,-3.85 A 34.385,34.385 0 0 1 194.206,63.463 31.555,31.555 0 0 1 192.5,61.1 Z m 234.2,4.2 V 0 h 2 v 65.3 a 7.536,7.536 0 0 0 0.253,2.005 5.509,5.509 0 0 0 1.547,2.595 6.074,6.074 0 0 0 3.001,1.526 8.819,8.819 0 0 0 1.799,0.174 12.099,12.099 0 0 0 0.888,-0.035 q 0.49,-0.036 1.046,-0.11 A 25.146,25.146 0 0 0 437.95,71.35 23.104,23.104 0 0 0 439.702,71 18.62,18.62 0 0 0 440.8,70.7 l 0.7,1.6 q -1.3,0.4 -3.4,0.8 a 28.855,28.855 0 0 1 -1.361,0.228 Q 435.519,73.5 434.6,73.5 A 8.863,8.863 0 0 1 431.901,73.107 7.188,7.188 0 0 1 428.9,71.25 Q 426.7,69 426.7,65.3 Z M 94.2,74 q -5.1,0 -9.6,-2.1 -4.5,-2.1 -7.9,-5.85 -3.4,-3.75 -5.3,-8.6 -1.9,-4.85 -1.9,-10.25 0,-5.5 1.95,-10.35 1.95,-4.85 5.35,-8.6 3.4,-3.75 7.9,-5.85 4.5,-2.1 9.5,-2.1 5,0 9.5,2.1 4.5,2.1 7.9,5.85 3.4,3.75 5.35,8.6 1.95,4.85 1.95,10.35 0,5.4 -1.9,10.25 -1.9,4.85 -5.35,8.6 -3.45,3.75 -7.9,5.85 Q 99.3,74 94.2,74 Z m 58.6,0 q -5.1,0 -9.6,-2.1 -4.5,-2.1 -7.9,-5.85 -3.4,-3.75 -5.3,-8.6 -1.9,-4.85 -1.9,-10.25 0,-5.5 1.95,-10.35 1.95,-4.85 5.35,-8.6 3.4,-3.75 7.9,-5.85 4.5,-2.1 9.5,-2.1 5,0 9.5,2.1 4.5,2.1 7.9,5.85 3.4,3.75 5.35,8.6 1.95,4.85 1.95,10.35 0,5.4 -1.9,10.25 -1.9,4.85 -5.35,8.6 -3.45,3.75 -7.9,5.85 Q 157.9,74 152.8,74 Z M 71.5,47.4 q 0,6.7 3.05,12.3 3.05,5.6 8.2,8.95 Q 87.9,72 94.1,72 q 6.2,0 11.4,-3.4 5.2,-3.4 8.3,-9.1 3.1,-5.7 3.1,-12.4 0,-6.7 -3.1,-12.35 -3.1,-5.65 -8.25,-9.05 -5.15,-3.4 -11.35,-3.4 -6.1,0 -11.3,3.45 -5.2,3.45 -8.3,9.15 -3.1,5.7 -3.1,12.5 z m 58.6,0 q 0,6.7 3.05,12.3 3.05,5.6 8.2,8.95 5.15,3.35 11.35,3.35 6.2,0 11.4,-3.4 5.2,-3.4 8.3,-9.1 3.1,-5.7 3.1,-12.4 0,-6.7 -3.1,-12.35 -3.1,-5.65 -8.25,-9.05 -5.15,-3.4 -11.35,-3.4 -6.1,0 -11.3,3.45 -5.2,3.45 -8.3,9.15 -3.1,5.7 -3.1,12.5 z m 62.4,-9.2 v 18.7 q 1.9,4.2 5.1,7.6 3.2,3.4 7.35,5.45 4.15,2.05 8.75,2.05 a 21.26,21.26 0 0 0 5.405,-0.664 18.036,18.036 0 0 0 3.745,-1.436 q 4.05,-2.1 6.95,-5.7 2.9,-3.6 4.45,-8 1.55,-4.4 1.55,-9 0,-4.9 -1.75,-9.35 -1.75,-4.45 -4.95,-7.95 -3.2,-3.5 -7.35,-5.55 -4.15,-2.05 -8.95,-2.05 a 15.889,15.889 0 0 0 -3.315,0.367 21.805,21.805 0 0 0 -3.135,0.933 q -3.45,1.3 -6.55,3.55 -3.1,2.25 -5.1,5.1 -2,2.85 -2.2,5.95 z m 255.6,8 h 45.4 A 30.24,30.24 0 0 0 492.313,39.228 24.985,24.985 0 0 0 490,33.85 q -3.1,-5.35 -8.1,-8.45 -5,-3.1 -11.2,-3.1 -6.1,0 -11.1,3.1 a 23.192,23.192 0 0 0 -7.954,8.332 27.072,27.072 0 0 0 -0.096,0.168 26.87,26.87 0 0 0 -3.133,9.25 32.823,32.823 0 0 0 -0.317,3.05 z" vector-effect="non-scaling-stroke"/></g></svg>