<svg xmlns="http://www.w3.org/2000/svg" role="img" viewBox="-16.51 -16.51 832.52 201.52"><title>covXtreme logo</title><style>svg {enable-background:new 0 0 800 169.2}</style><style>.Graphic_x0020_Style_x0020_2{fill:#133563}.st5{fill:#4a92cc}.st6{fill:#213861}</style><path d="M167 100.2v14.5c-12.9-6-28.9-20.4-45-31.2-13.2-8.9-21.6-14.6-38.5-14.6-8.5 0-14.8 1.4-20.6 4S51.6 79 45 83.5c-16 10.8-32.1 25.2-45 31.2v-14.5c12.7-10.5 12.5-13.2 30.4-34 10.5-12.2 19.5-21.1 28-27 8.6-5.9 16.6-8.8 25.1-8.8 16.9 0 32.2 11.5 53.1 35.8 17.9 20.8 17.7 23.5 30.4 34z" class="Graphic_x0020_Style_x0020_2"/><path d="M167 124.2v10.1c-9.2-2.8-16.2-6.1-21-8.6-10-5.2-14.6-9.4-31.9-18.9-4.2-2.3-9.4-5.1-16.9-6.8-5.6-1.3-10.4-1.6-13.6-1.6-3.3 0-8.1.3-13.6 1.6-7.4 1.8-12.7 4.6-16.9 6.8-17.4 9.5-21.9 13.6-31.9 18.9-4.8 2.5-11.8 5.7-21 8.6v-10.1c4.4-1.6 10-4 16.1-7.7 1.5-.9 3.9-2.4 13-9.2 14-10.4 13.8-11 20.3-15.4 7.3-5 12.7-8.5 20.7-10.9 2.8-.9 8-1.8 13.4-1.8 5-.1 10.1.7 13.4 1.8 7.9 2.7 13.4 6 20.7 10.9 6.5 4.4 6.3 5 20.3 15.4 9.1 6.8 11.5 8.3 13 9.2 5.9 3.7 11.5 6.1 15.9 7.7z" class="Graphic_x0020_Style_x0020_2"/><path d="M167 141.9v9.5c-4.9-.5-11.5-1.4-19.2-3.4-7.9-2-14-4.4-18.9-6.4-9.6-3.8-11.3-5.3-22.6-9.5-3.8-1.4-8.5-3.1-14.8-4-3.3-.5-6-.6-7.9-.6-1.9 0-4.7.1-7.9.6-6.4.9-11 2.6-14.8 4-11.2 4.3-13 5.8-22.6 9.5-5 2-11 4.3-18.9 6.4-7.7 2-14.3 2.9-19.2 3.4v-9.5c3.4-.5 7.5-1.2 12.2-2.6 7.9-2.3 13.5-5.2 19.7-8.5 5.3-2.8 4.6-2.7 19.8-11.7 9.9-5.8 13.5-7.8 18.8-9.3 2.6-.8 7.7-1.6 12.8-1.6s10.2.8 12.9 1.6c5.3 1.5 8.9 3.5 18.8 9.3 15.3 8.9 14.5 8.9 19.8 11.7 6.3 3.3 11.9 6.2 19.7 8.5 4.7 1.4 8.9 2.2 12.3 2.6z" class="Graphic_x0020_Style_x0020_2"/><path d="M167 160.6v7.9c-22.5-1.2-34.9-3.2-42.2-4.8-6.2-1.4-12.4-2.6-18.6-3.9-3.7-.8-7.6-1.6-12.9-2.3-2-.3-5.9-.8-9.8-.8-3.9 0-7.7.5-9.8.8-5.3.7-9.2 1.5-12.9 2.3-6.2 1.3-12.4 2.5-18.6 3.9-7.3 1.6-19.8 3.6-42.2 4.8v-7.9c14.1-.8 24.8-3.6 32.2-6.2 10.5-3.7 19.6-7.7 19.6-7.7 7.6-3.4 12.4-5.9 20.2-7.8 2.4-.6 6.9-1.3 11.5-1.3s9.1.7 11.5 1.3c7.8 1.9 12.5 4.4 20.2 7.8 0 0 9.1 4 19.6 7.7 7.4 2.6 18.1 5.4 32.2 6.2z" class="Graphic_x0020_Style_x0020_2"/><g><path d="M167 100.2v14.5c-12.9-6-28.9-20.4-45-31.2-13.2-8.9-21.6-14.6-38.5-14.6-8.5 0-14.8 1.4-20.6 4S51.6 79 45 83.5c-16 10.8-32.1 25.2-45 31.2v-14.5c12.7-10.5 12.5-13.2 30.4-34 10.5-12.2 19.5-21.1 28-27 8.6-5.9 16.6-8.8 25.1-8.8 16.9 0 32.2 11.5 53.1 35.8 17.9 20.8 17.7 23.5 30.4 34z" class="Graphic_x0020_Style_x0020_2"/><path d="M167 124.2v10.1c-9.2-2.8-16.2-6.1-21-8.6-10-5.2-14.6-9.4-31.9-18.9-4.2-2.3-9.4-5.1-16.9-6.8-5.6-1.3-10.4-1.6-13.6-1.6-3.3 0-8.1.3-13.6 1.6-7.4 1.8-12.7 4.6-16.9 6.8-17.4 9.5-21.9 13.6-31.9 18.9-4.8 2.5-11.8 5.7-21 8.6v-10.1c4.4-1.6 10-4 16.1-7.7 1.5-.9 3.9-2.4 13-9.2 14-10.4 13.8-11 20.3-15.4 7.3-5 12.7-8.5 20.7-10.9 2.8-.9 8-1.8 13.4-1.8 5-.1 10.1.7 13.4 1.8 7.9 2.7 13.4 6 20.7 10.9 6.5 4.4 6.3 5 20.3 15.4 9.1 6.8 11.5 8.3 13 9.2 5.9 3.7 11.5 6.1 15.9 7.7z" class="Graphic_x0020_Style_x0020_2"/><path d="M167 141.9v9.5c-4.9-.5-11.5-1.4-19.2-3.4-7.9-2-14-4.4-18.9-6.4-9.6-3.8-11.3-5.3-22.6-9.5-3.8-1.4-8.5-3.1-14.8-4-3.3-.5-6-.6-7.9-.6-1.9 0-4.7.1-7.9.6-6.4.9-11 2.6-14.8 4-11.2 4.3-13 5.8-22.6 9.5-5 2-11 4.3-18.9 6.4-7.7 2-14.3 2.9-19.2 3.4v-9.5c3.4-.5 7.5-1.2 12.2-2.6 7.9-2.3 13.5-5.2 19.7-8.5 5.3-2.8 4.6-2.7 19.8-11.7 9.9-5.8 13.5-7.8 18.8-9.3 2.6-.8 7.7-1.6 12.8-1.6s10.2.8 12.9 1.6c5.3 1.5 8.9 3.5 18.8 9.3 15.3 8.9 14.5 8.9 19.8 11.7 6.3 3.3 11.9 6.2 19.7 8.5 4.7 1.4 8.9 2.2 12.3 2.6z" class="Graphic_x0020_Style_x0020_2"/><path d="M167 160.6v7.9c-22.5-1.2-34.9-3.2-42.2-4.8-6.2-1.4-12.4-2.6-18.6-3.9-3.7-.8-7.6-1.6-12.9-2.3-2-.3-5.9-.8-9.8-.8-3.9 0-7.7.5-9.8.8-5.3.7-9.2 1.5-12.9 2.3-6.2 1.3-12.4 2.5-18.6 3.9-7.3 1.6-19.8 3.6-42.2 4.8v-7.9c14.1-.8 24.8-3.6 32.2-6.2 10.5-3.7 19.6-7.7 19.6-7.7 7.6-3.4 12.4-5.9 20.2-7.8 2.4-.6 6.9-1.3 11.5-1.3s9.1.7 11.5 1.3c7.8 1.9 12.5 4.4 20.2 7.8 0 0 9.1 4 19.6 7.7 7.4 2.6 18.1 5.4 32.2 6.2z" class="Graphic_x0020_Style_x0020_2"/></g><g><linearGradient id="SVGID_1_" x1="83.484" x2="83.484" y1="30.338" y2="168.515" gradientUnits="userSpaceOnUse"><stop offset="0" stop-color="#80e3ff"/><stop offset=".3" stop-color="#00c8ff"/><stop offset=".767" stop-color="#00c8ff" stop-opacity=".2"/></linearGradient><path fill="url(#SVGID_1_)" d="M167 100.2v14.5c-12.9-6-28.9-20.4-45-31.2-13.2-8.9-21.6-14.6-38.5-14.6-8.5 0-14.8 1.4-20.6 4S51.6 79 45 83.5c-16 10.8-32.1 25.2-45 31.2v-14.5c12.7-10.5 12.5-13.2 30.4-34 10.5-12.2 19.5-21.1 28-27 8.6-5.9 16.6-8.8 25.1-8.8 16.9 0 32.2 11.5 53.1 35.8 17.9 20.8 17.7 23.5 30.4 34z"/><linearGradient id="SVGID_00000047763639216422983870000000474984189839915145_" x1="83.484" x2="83.484" y1="30.338" y2="168.515" gradientUnits="userSpaceOnUse"><stop offset="0" stop-color="#80e3ff"/><stop offset=".3" stop-color="#00c8ff"/><stop offset=".767" stop-color="#00c8ff" stop-opacity=".2"/></linearGradient><path fill="url(#SVGID_00000047763639216422983870000000474984189839915145_)" d="M167 124.2v10.1c-9.2-2.8-16.2-6.1-21-8.6-10-5.2-14.6-9.4-31.9-18.9-4.2-2.3-9.4-5.1-16.9-6.8-5.6-1.3-10.4-1.6-13.6-1.6-3.3 0-8.1.3-13.6 1.6-7.4 1.8-12.7 4.6-16.9 6.8-17.4 9.5-21.9 13.6-31.9 18.9-4.8 2.5-11.8 5.7-21 8.6v-10.1c4.4-1.6 10-4 16.1-7.7 1.5-.9 3.9-2.4 13-9.2 14-10.4 13.8-11 20.3-15.4 7.3-5 12.7-8.5 20.7-10.9 2.8-.9 8-1.8 13.4-1.8 5-.1 10.1.7 13.4 1.8 7.9 2.7 13.4 6 20.7 10.9 6.5 4.4 6.3 5 20.3 15.4 9.1 6.8 11.5 8.3 13 9.2 5.9 3.7 11.5 6.1 15.9 7.7z"/><linearGradient id="SVGID_00000101067669010782029410000003492890943934146690_" x1="83.484" x2="83.484" y1="30.338" y2="168.515" gradientUnits="userSpaceOnUse"><stop offset="0" stop-color="#80e3ff"/><stop offset=".3" stop-color="#00c8ff"/><stop offset=".767" stop-color="#00c8ff" stop-opacity=".2"/></linearGradient><path fill="url(#SVGID_00000101067669010782029410000003492890943934146690_)" d="M167 141.9v9.5c-4.9-.5-11.5-1.4-19.2-3.4-7.9-2-14-4.4-18.9-6.4-9.6-3.8-11.3-5.3-22.6-9.5-3.8-1.4-8.5-3.1-14.8-4-3.3-.5-6-.6-7.9-.6-1.9 0-4.7.1-7.9.6-6.4.9-11 2.6-14.8 4-11.2 4.3-13 5.8-22.6 9.5-5 2-11 4.3-18.9 6.4-7.7 2-14.3 2.9-19.2 3.4v-9.5c3.4-.5 7.5-1.2 12.2-2.6 7.9-2.3 13.5-5.2 19.7-8.5 5.3-2.8 4.6-2.7 19.8-11.7 9.9-5.8 13.5-7.8 18.8-9.3 2.6-.8 7.7-1.6 12.8-1.6s10.2.8 12.9 1.6c5.3 1.5 8.9 3.5 18.8 9.3 15.3 8.9 14.5 8.9 19.8 11.7 6.3 3.3 11.9 6.2 19.7 8.5 4.7 1.4 8.9 2.2 12.3 2.6z"/><linearGradient id="SVGID_00000019642538188680963680000017384866664581371776_" x1="83.484" x2="83.484" y1="30.338" y2="168.515" gradientUnits="userSpaceOnUse"><stop offset="0" stop-color="#80e3ff"/><stop offset=".3" stop-color="#00c8ff"/><stop offset=".767" stop-color="#00c8ff" stop-opacity=".2"/></linearGradient><path fill="url(#SVGID_00000019642538188680963680000017384866664581371776_)" d="M167 160.6v7.9c-22.5-1.2-34.9-3.2-42.2-4.8-6.2-1.4-12.4-2.6-18.6-3.9-3.7-.8-7.6-1.6-12.9-2.3-2-.3-5.9-.8-9.8-.8-3.9 0-7.7.5-9.8.8-5.3.7-9.2 1.5-12.9 2.3-6.2 1.3-12.4 2.5-18.6 3.9-7.3 1.6-19.8 3.6-42.2 4.8v-7.9c14.1-.8 24.8-3.6 32.2-6.2 10.5-3.7 19.6-7.7 19.6-7.7 7.6-3.4 12.4-5.9 20.2-7.8 2.4-.6 6.9-1.3 11.5-1.3s9.1.7 11.5 1.3c7.8 1.9 12.5 4.4 20.2 7.8 0 0 9.1 4 19.6 7.7 7.4 2.6 18.1 5.4 32.2 6.2z"/></g><path fill="#133563" d="M7.5 78V9.4h151.9V78c2 2 4.4 4 7.5 6.5V1.9H0v82.6C3.1 82 5.5 80 7.5 78z"/><g><path d="M206.2 24.5V12.3h-6.1v18.2h18.1v-6z" class="st5"/><path d="M230.3.2h-30.2v9h6v-3h18.2v18.3h-3v6h9z" class="st6"/><path d="M238.4.5h9.2v22.2h13.2v7.6h-22.4V.5zm26.3 0h23.2v7.6H274v3.8h11.9V19H274v11.4h-9.2V.5z" class="st6"/><path d="M311.6 30.6h-16.7V.4h16.7v1.9H297v11.4h13.7v1.9H297v12.9h14.6v2.1zm29.2 0h-2.1L320.5 3.9h-.2c.2 3.2.2 5.6.2 7.2v19.5h-1.9V.4h2.1l18.1 26.7h.1c-.1-2.5-.2-4.8-.2-7.1V.4h2l.1 30.2zm25.3 0h-16.7V.4h16.7v1.9h-14.6v11.4h13.7v1.9h-13.7v12.9h14.6v2.1zm9.1-13.1v13.1h-2.1V.4h7.3c3.8 0 6.5.6 8.4 2 1.8 1.4 2.7 3.4 2.7 6.2 0 2-.5 3.8-1.6 5.1s-2.7 2.4-4.9 3l8.3 13.7h-2.6l-7.8-13.1h-7.7zm0-1.8h5.8c2.6 0 4.6-.5 6-1.7 1.4-1.2 2.1-2.8 2.1-5s-.6-4-2-5-3.6-1.6-6.9-1.6h-5v13.3zm35-.6h11v13.4c-2.9 1.2-6.1 1.8-9.8 1.8-4.7 0-8.4-1.3-10.8-4-2.5-2.7-3.8-6.3-3.8-11.2 0-3 .6-5.7 1.8-7.9 1.3-2.4 3-4.1 5.4-5.4 2.4-1.3 5-1.9 8-1.9 3.2 0 6.2.6 8.8 1.8l-.8 1.9c-2.6-1.2-5.3-1.8-8-1.8-4 0-7.1 1.2-9.3 3.6-2.3 2.5-3.4 5.7-3.4 9.7 0 4.4 1.1 7.7 3.3 10 2.1 2.3 5.4 3.3 9.7 3.3 2.8 0 5-.4 7-1.2V16.8h-8.9v-1.7h-.2zm25.5 1.7L444.6.4h2.3l-10.1 18.3v11.6h-2.1V19L424.4.4h2.5l8.8 16.4z" class="st5"/><g><path d="M258.5 136.3c-1.1 20.2-8 32.9-28.8 32.9-24.4 0-31.3-18.2-31.3-44.3s6.9-44.3 31.3-44.3c25.2-.3 29 19.7 29 30.2h-16.9c0-7.8-2.2-18-12.1-17.7-12.2 0-14.4 13.2-14.4 31.8s2.2 31.8 14.4 31.8c9.4.2 12.8-7.7 12.8-20.4h16zm38.2-55.8c24.6 0 31.5 18.2 31.5 44.3s-8 44.3-31.5 44.3c-23.3 0-31.3-18.2-31.3-44.3s6.8-44.3 31.3-44.3zm0 76.2c12.4 0 14.6-10.3 14.6-31.8 0-18.6-2.2-31.8-14.6-31.8-12.2 0-14.4 13.2-14.4 31.8 0 21.4 2.1 31.8 14.4 31.8zm33.2-74H348l14.7 66.4h.3l13.3-66.4h18L372.2 167h-19.7l-22.6-84.3z" class="st6"/><path d="M419.5 110.2l-27-55h19.7l17.9 37.1 17.5-37.1h19.3l-27.1 55 28.5 56.9h-19.7l-19.4-40.4-19.9 40.3H390l29.5-56.8z" class="st6"/><path d="M464.7 82.7h11.6v-24h16.9v24H507v12.5h-13.8v50.3c0 6.6 1.9 8.9 7.7 8.9 2.5 0 4.5-.2 6.1-.5v12.5c-3.6.9-8.3 1.4-13.6 1.4-11.4 0-17.1-3.1-17.1-20.4V95.3h-11.6V82.7zm48.9 0h16.9v13.2h.3c3.8-9.4 10-15.4 19.6-15.4 1.9 0 3 .3 4.1.6v17.2c-1.3-.3-4.2-.9-7.1-.9-7.7 0-16.9 3.4-16.9 19.1V167h-16.9V82.7zm61.4 44.4v4.9c0 11.3 1.4 25.7 14.1 25.7 12.1 0 13.5-13.8 13.5-18.8h16c0 18.6-11.3 30.4-29.6 30.4-13.8 0-30.9-4.1-30.9-43.1 0-22.1 4.7-45.6 31.2-45.6 23.5 0 29.8 14.1 29.8 37.6v8.9H575zm27.2-11.6V111c0-10.7-3.4-18.8-13-18.8-10.8 0-14.1 10.7-14.1 21.6v1.7h27.1zm27.9-32.8h16v9.9h.5c4.2-7.5 12.2-12.1 20.2-12.1 12.1 0 17.1 5.8 19.6 12.8 4.9-8.1 11.1-12.8 21.3-12.8 11.9 0 20.5 6.1 20.5 22.4V167h-16.9v-57.8c0-11-3.3-15.2-10.2-15.2-6.9 0-13.5 5.5-13.5 16.5V167h-16.9v-57.8c0-11-3.3-15.2-10.3-15.2-6.7 0-13.3 5.5-13.3 16.5V167h-16.9V82.7zM756 127.1v4.9c0 11.3 1.4 25.7 14.1 25.7 12.1 0 13.5-13.8 13.5-18.8h16c0 18.6-11.3 30.4-29.6 30.4-13.8 0-30.9-4.1-30.9-43.1 0-22.1 4.7-45.6 31.2-45.6 23.5 0 29.8 14.1 29.8 37.6v8.9H756zm27.1-11.6V111c0-10.7-3.4-18.8-13-18.8-10.8 0-14.1 10.7-14.1 21.6v1.7h27.1z" class="st6"/></g></g></svg>