<svg xmlns="http://www.w3.org/2000/svg" role="img" viewBox="-2.81 -2.81 145.99 70.74"><title>Credible Goals Database logo</title><path fill="#113f67" d="M20.53188 11.43h-7.89642v5.8024h9.16052v2.464H9.62358V1.30356h12.0943V3.7676h-9.08242v5.19834h7.89642z"/><path fill="#113f67" d="M26.71178 6.04088l.156 1.78046c.437-.65177.9832-1.14458 1.6542-1.51021.6554-.34974 1.4201-.52461 2.294-.52461.8739 0 1.623.20666 2.2628.60409.6243.39743 1.0924 1.01741 1.4201 1.81226.4058-.76305.952-1.35124 1.6386-1.78046.6711-.42923 1.467-.65178 2.3877-.65178 1.3421 0 2.4189.47691 3.1991 1.41483.7803.93793 1.1705 2.36866 1.1705 4.27634v8.2346h-3.0119v-8.2505c0-1.1605-.2029-1.97126-.593-2.44817-.3902-.47692-.9832-.69947-1.7635-.69947-.6398 0-1.186.17486-1.6386.5246-.4525.34973-.7646.82664-.9675 1.43074 0 .1272 0 .2384.0156.3338.0156.0954.0156.1749.0156.2703v8.8546h-3.0119v-8.2664c0-1.1128-.2028-1.92357-.6086-2.41638-.4057-.49281-.9831-.73126-1.7634-.73126-.6086 0-1.1236.12717-1.5606.36563-.4213.23845-.7647.57229-1.0143 1.01741v10.031h-3.0119V6.04088z"/><path fill="#113f67" d="M57.81368 13.3217c0 2.003-.4526 3.6087-1.3733 4.8168-.9207 1.2241-2.2004 1.8282-3.8546 1.8282-.8427 0-1.5606-.1749-2.1692-.5246-.6086-.3497-1.1236-.8426-1.5449-1.5102l-.2965 1.7645h-2.5281V0h3.0118v7.58289c.4058-.58819.9052-1.03331 1.4826-1.33535.5774-.31794 1.2484-.46102 2.0287-.46102 1.6854 0 2.9807.66768 3.8858 2.00303.9207 1.33535 1.3733 3.08405 1.3733 5.27785v.2543zm-3.0119-.2702c0-1.4308-.2341-2.5753-.7179-3.44969-.4837-.87433-1.2328-1.31945-2.2784-1.31945-.671 0-1.2328.15897-1.6854.46101-.4525.30205-.8115.73127-1.0768 1.25587v5.73886c.2497.5405.6087.9697 1.0612 1.2717.4526.3021 1.03.4452 1.7166.4452 1.0456 0 1.7947-.3657 2.2628-1.1128.4682-.7472.7023-1.7487.7023-3.0205v-.2702z"/><path fill="#113f67" d="M66.17838 19.9667c-1.9039 0-3.4177-.6359-4.5413-1.9077-1.1236-1.2717-1.6854-2.8932-1.6854-4.8804v-.5087c0-1.9871.5618-3.64038 1.6854-4.94394 1.1236-1.30355 2.5281-1.95533 4.2135-1.95533 1.8103 0 3.1992.55639 4.1667 1.66919.9676 1.11279 1.4514 2.60708 1.4514 4.48298v1.8122h-8.3646l-.0313.0636c.0469 1.081.359 1.9713.9364 2.6548.5774.6836 1.3733 1.0333 2.3876 1.0333.8115 0 1.4982-.0953 2.0756-.302.5774-.2067 1.1392-.4928 1.6698-.8743l.9675 2.0189c-.4993.461-1.1704.8425-2.0131 1.1605-.8583.3179-1.8258.4769-2.9182.4769zm-.3434-11.71614c-.749 0-1.3577.30205-1.8414.90614-.4838.60408-.7803 1.3671-.8895 2.2892l.0312.0636h5.3059v-.318c0-.8743-.2185-1.57379-.6555-2.11429-.4213-.5564-1.0768-.82665-1.9507-.82665z"/><path fill="#113f67" d="M73.30998 13.0515c0-2.1779.4526-3.94249 1.3733-5.27785.9207-1.33535 2.2004-2.00302 3.8702-2.00302.7334 0 1.3733.14307 1.9507.44511.5774.30205 1.0768.73127 1.4981 1.28767V0h3.0119v19.7123h-2.5281l-.2965-1.6851c-.437.6359-.9519 1.1287-1.545 1.4626-.6086.3338-1.3108.4928-2.1067.4928-1.6386 0-2.9339-.6041-3.839-1.8282-.9207-1.224-1.3733-2.8297-1.3733-4.8168v-.2861zm3.0119.2702c0 1.2559.2341 2.2733.7178 3.0205.4682.7471 1.2329 1.1287 2.2629 1.1287.6398 0 1.1704-.1431 1.6229-.4134.437-.2702.8115-.6676 1.0924-1.1923V9.90386c-.2809-.50871-.6398-.90613-1.0924-1.17638-.4525-.28615-.9675-.42922-1.5917-.42922-1.03 0-1.7791.44511-2.2629 1.31945-.4837.87439-.7334 2.03479-.7334 3.44969v.2543z"/><path fill="#113f67" d="M87.68268 13.0515c0-2.1779.4525-3.94249 1.3733-5.27785.9207-1.33535 2.2004-2.00302 3.8702-2.00302.7334 0 1.3733.14307 1.9507.44511.5774.30205 1.0768.73127 1.4981 1.28767V0h3.0119v19.7123h-2.5281l-.2965-1.6851c-.437.6359-.952 1.1287-1.545 1.4626-.6086.3338-1.3108.4928-2.1067.4928-1.6386 0-2.9339-.6041-3.839-1.8282-.9207-1.224-1.3733-2.8297-1.3733-4.8168v-.2861zm3.0119.2702c0 1.2559.2341 2.2733.7178 3.0205.4682.7471 1.2329 1.1287 2.2628 1.1287.6399 0 1.1705-.1431 1.623-.4134.437-.2702.8115-.6676 1.0924-1.1923V9.90386c-.2809-.50871-.6398-.90613-1.0924-1.17638-.4525-.28615-.9675-.42922-1.5917-.42922-1.03 0-1.7791.44511-2.2629 1.31945-.4837.87439-.7334 2.03479-.7334 3.44969v.2543z"/><path fill="#113f67" d="M105.84778 2.6866h-3.0119V0h3.0119zm0 17.0098h-3.0119V6.02498h3.0119z"/><path fill="#113f67" d="M111.94958 6.04088l.171 1.97123c.437-.69947.984-1.23997 1.655-1.63739.671-.39743 1.42-.58819 2.247-.58819 1.404 0 2.481.42922 3.261 1.28766.781.85844 1.171 2.20968 1.171 4.03781v8.5844h-3.012v-8.5526c0-1.0333-.203-1.76454-.624-2.19376-.422-.42922-1.046-.65178-1.904-.65178-.593 0-1.108.12717-1.576.39742-.468.27025-.843.63589-1.14 1.0969v9.91972h-3.0114V6.04088z"/><path fill="#113f67" d="M123.04458 13.0515c0-2.1779.469-3.92659 1.405-5.26195.936-1.33535 2.232-2.00302 3.886-2.00302.796 0 1.513.17486 2.107.5246.608.34973 1.123.85844 1.544 1.51022l.297-1.78047h2.512V19.7123c0 1.7646-.53 3.1159-1.607 4.0856-1.061.9538-2.575 1.4466-4.541 1.4466-.656 0-1.358-.0954-2.107-.2861-.749-.1908-1.436-.4451-2.06-.7472l.64-2.4163c.499.2543 1.046.461 1.639.6199.593.1431 1.217.2226 1.857.2226 1.092 0 1.888-.2385 2.387-.7154.5-.4769.749-1.2081.749-2.1938v-1.3989c-.421.5405-.92.9697-1.498 1.24-.577.2861-1.233.4292-1.982.4292-1.638 0-2.934-.6041-3.87-1.8282-.936-1.224-1.404-2.8296-1.404-4.8168v-.302zm3.028.2702c0 1.2559.25 2.2574.733 3.0046.484.7471 1.249 1.1287 2.294 1.1287.64 0 1.186-.1431 1.639-.4134.437-.2702.796-.6676 1.077-1.1763V9.88796c-.281-.4928-.64-.89023-1.093-1.16048-.437-.28615-.967-.42922-1.591-.42922-1.03 0-1.795.44512-2.294 1.31945-.5.89019-.749 2.03479-.749 3.43379v.2702z"/><path fill="#17609b" d="M32.75098 30.9516c0 1.2399-.3589 2.1937-1.0768 2.8614s-1.7322 1.0174-3.0587 1.0174h-.8271v3.6722h-2.9338V27.4224h3.7609c1.3733 0 2.4033.3021 3.0899.922.7023.62 1.0456 1.4944 1.0456 2.6072zm-4.9626 1.4466h.5306c.437 0 .7959-.1272 1.0456-.3815.2653-.2544.3901-.6041.3901-1.0492 0-.7472-.4057-1.1287-1.2172-1.1287h-.7647v2.5594z"/><path fill="#17609b" d="M42.75438 34.4807v4.0378h-2.9339V27.4383h3.5581c2.9494 0 4.432 1.0969 4.432 3.2748 0 1.2877-.6086 2.2733-1.8415 2.9727l3.1679 4.8327h-3.3396l-2.3096-4.0378zm0-2.2415h.5461c1.03 0 1.545-.461 1.545-1.383 0-.7631-.4994-1.1446-1.5137-1.1446h-.5774z"/><path fill="#17609b" d="M65.63208 32.9546c0 1.8599-.4526 3.2748-1.3421 4.2445-.8895.9697-2.216 1.4625-3.9482 1.4625-1.701 0-3.0119-.4928-3.917-1.4625-.9052-.9697-1.3577-2.4005-1.3577-4.2604 0-1.8441.4525-3.2589 1.3577-4.2286.9051-.9697 2.216-1.4626 3.9482-1.4626 1.7322 0 3.0431.477 3.9326 1.4467.8739.9856 1.3265 2.4004 1.3265 4.2604zm-7.4907 0c0 2.1461.7335 3.2112 2.2004 3.2112.749 0 1.2952-.2544 1.6542-.779.3589-.5246.5462-1.3353.5462-2.4322 0-1.1128-.1873-1.9236-.5462-2.4482-.359-.5246-.9052-.7948-1.6386-.7948-1.4669 0-2.216 1.081-2.216 3.243z"/><path fill="#17609b" d="M72.07708 42c-.5305 0-1.0455-.0477-1.5293-.159v-2.3209c.1561.0318.3277.0636.4994.0953.1716.0318.3745.0636.5774.0636.4838 0 .8271-.143 1.0456-.4451.2028-.302.3121-.8107.3121-1.5261V27.4542h2.9494v9.9992c0 1.4944-.3277 2.639-.9675 3.402-.6398.7472-1.6074 1.1446-2.8871 1.1446z"/><path fill="#17609b" d="M90.08598 38.5185h-6.4607V27.4383h6.4607v2.4005h-3.5268v1.7486h3.2615v2.4005h-3.2615v2.0984h3.5268z"/><path fill="#17609b" d="M102.16478 29.7275c-.7022 0-1.2484.2861-1.6386.8743-.3901.5882-.593 1.383-.593 2.4164 0 2.1302.7959 3.1953 2.3877 3.1953.4837 0 .9519-.0636 1.4045-.2067.4525-.1431.9051-.302 1.3577-.4928v2.5276c-.9052.4133-1.9351.62-3.0744.62-1.6385 0-2.9026-.4928-3.7765-1.4625-.8739-.9697-1.3109-2.3687-1.3109-4.2127 0-1.1446.2185-2.162.6399-3.0205.4213-.8743 1.0299-1.542 1.8258-2.003.7959-.461 1.7322-.6995 2.809-.6995 1.1704 0 2.294.2544 3.3708.779l-.9051 2.3527c-.4057-.1907-.7959-.3497-1.2016-.4928-.4058-.143-.8271-.1748-1.2953-.1748z"/><path fill="#17609b" d="M117.33358 38.5185h-2.934v-8.6321h-2.653v-2.4481h8.24v2.4481h-2.653z"/><g fill="#000" transform="translate(-1.877 50.628) scale(.28805)"><path d="M30.63837 47.8991q-1.07421.46875-1.95312.8789-.85938.41016-2.26563.85938-1.1914.3711-2.59765.625-1.38672.27344-3.0664.27344-3.16407 0-5.76173-.8789-2.57812-.89844-4.49219-2.79297-1.875-1.85547-2.92968-4.70704-1.05469-2.87109-1.05469-6.66015 0-3.59375 1.01563-6.42578 1.01562-2.83203 2.92968-4.78516 1.85547-1.89453 4.47266-2.89063 2.63672-.99609 5.83984-.99609 2.34375 0 4.66797.5664 2.34375.56641 5.19531 1.9922v4.58984h-.29296q-2.40235-2.01172-4.76563-2.92969-2.36328-.91797-5.0586-.91797-2.20703 0-3.98437.72266-1.75781.70312-3.14453 2.20703-1.34766 1.46484-2.10938 3.71094-.74218 2.22656-.74218 5.15625 0 3.0664.82031 5.27344.83984 2.20703 2.14844 3.59375 1.36718 1.4453 3.1836 2.14843 1.83593.6836 3.86718.6836 2.79297 0 5.23437-.95703 2.44141-.95704 4.57032-2.8711h.27343z"/><path d="M49.42744 32.19598h-.19532q-.8203-.19532-1.60156-.27344-.76172-.09766-1.8164-.09766-1.69922 0-3.28126.76172-1.58203.74219-3.04687 1.9336v15.48828h-3.67188V28.19207h3.67188v3.22266q2.1875-1.75782 3.84766-2.48047 1.67968-.74219 3.41797-.74219.95703 0 1.38671.05859.4297.03906 1.28907.17578z"/><path d="M71.14619 39.48113H55.07197q0 2.01172.60547 3.51563.60547 1.48437 1.66015 2.4414 1.01563.9375 2.40235 1.40625 1.40625.46875 3.08593.46875 2.22657 0 4.47266-.8789 2.26563-.89844 3.22266-1.75782h.1953v4.00391q-1.85546.78125-3.78905 1.3086-1.9336.52734-4.0625.52734-5.4297 0-8.47657-2.92969-3.04687-2.94922-3.04687-8.35937 0-5.35157 2.91015-8.4961 2.9297-3.14453 7.69532-3.14453 4.41406 0 6.79687 2.57813 2.40235 2.57812 2.40235 7.32422zm-3.57422-2.8125q-.01953-2.89062-1.46485-4.47265-1.42578-1.58203-4.35546-1.58203-2.94922 0-4.70704 1.73828-1.73828 1.73828-1.97265 4.3164z"/><path d="M94.4079 50.00848h-3.67187v-2.28516q-1.58203 1.36719-3.30078 2.1289-1.71875.76172-3.73047.76172-3.90625 0-6.21094-3.0078-2.28515-3.00782-2.28515-8.33985 0-2.77344.78125-4.9414.80078-2.16798 2.14843-3.69141 1.32813-1.48438 3.08594-2.26563 1.77734-.78125 3.67188-.78125 1.71875 0 3.04687.3711 1.32813.35156 2.79297 1.11328v-9.45313h3.67188zm-3.67187-5.3711V32.11785q-1.48438-.66406-2.65625-.91797-1.17188-.2539-2.5586-.2539-3.08593 0-4.80468 2.14843-1.71875 2.14844-1.71875 6.09375 0 3.88672 1.32812 5.91797 1.32813 2.01172 4.25782 2.01172 1.5625 0 3.16406-.6836 1.60156-.70312 2.98828-1.79687z"/><path d="M105.57978 24.53973h-4.14062v-3.8086h4.14062zm-.23437 25.46875h-3.67188V28.19207h3.67188z"/><path d="M131.81025 38.93426q0 2.73437-.78125 4.92187-.76172 2.1875-2.07031 3.67188-1.38672 1.54297-3.04688 2.32422-1.66015.76172-3.65234.76172-1.85547 0-3.24219-.44922-1.38672-.4297-2.73437-1.17188l-.23438 1.01563h-3.4375V19.61785h3.67188v10.85938q1.54296-1.26953 3.28125-2.07032 1.73828-.8203 3.90625-.8203 3.86718 0 6.09375 2.96874 2.24609 2.96875 2.24609 8.3789zm-3.78906.09766q0-3.90625-1.28907-5.91797-1.28906-2.03125-4.16015-2.03125-1.60156 0-3.24219.70312-1.64062.6836-3.04687 1.77735v12.5q1.5625.70312 2.67578.97656 1.13281.27344 2.55859.27344 3.04688 0 4.76563-1.99219 1.73828-2.01172 1.73828-6.28906z"/><path d="M141.24384 50.00848h-3.67187V19.61785h3.67187z"/><path d="M166.77119 39.48113h-16.07422q0 2.01172.60547 3.51563.60547 1.48437 1.66015 2.4414 1.01563.9375 2.40235 1.40625 1.40625.46875 3.08593.46875 2.22657 0 4.47266-.8789 2.26563-.89844 3.22266-1.75782h.19531v4.00391q-1.85547.78125-3.78906 1.3086-1.9336.52734-4.0625.52734-5.42969 0-8.47657-2.92969-3.04687-2.94922-3.04687-8.35937 0-5.35157 2.91016-8.4961 2.92968-3.14453 7.69531-3.14453 4.41406 0 6.79687 2.57813 2.40235 2.57812 2.40235 7.32422zm-3.57422-2.8125q-.0195-2.89062-1.46485-4.47265-1.42578-1.58203-4.35546-1.58203-2.94922 0-4.70704 1.73828-1.73828 1.73828-1.97265 4.3164z"/><path d="M210.95087 47.86004q-2.38281 1.09375-5.21484 1.91406-2.8125.80078-5.44922.80078-3.39844 0-6.23047-.9375-2.83203-.9375-4.82422-2.8125-2.01171-1.89453-3.10546-4.72656-1.09375-2.85156-1.09375-6.66016 0-6.97265 4.0625-10.99609 4.08203-4.04297 11.1914-4.04297 2.48047 0 5.0586.60547 2.59765.58594 5.58593 2.01172v4.58984h-.35156q-.60547-.46875-1.75781-1.23047-1.15235-.76171-2.26563-1.26953-1.34765-.60547-3.0664-.9961-1.69922-.41015-3.86719-.41015-4.88281 0-7.73438 3.14453-2.83203 3.125-2.83203 8.47657 0 5.64453 2.96875 8.78906 2.96875 3.125 8.08594 3.125 1.875 0 3.73047-.3711 1.875-.37109 3.28125-.95703v-7.1289h-7.79297v-3.39844h11.62109z"/><path d="M236.00947 39.11004q0 5.33203-2.73438 8.41797-2.73437 3.08593-7.32422 3.08593-4.6289 0-7.36328-3.08593-2.71484-3.08594-2.71484-8.41797 0-5.33203 2.71484-8.41797 2.73438-3.10547 7.36328-3.10547 4.58985 0 7.32422 3.10547 2.73438 3.08594 2.73438 8.41797zm-3.78906 0q0-4.23828-1.66016-6.28906-1.66016-2.07032-4.60938-2.07032-2.98828 0-4.64843 2.07032-1.64063 2.05078-1.64063 6.28906 0 4.10156 1.66016 6.23047 1.66015 2.10937 4.6289 2.10937 2.92969 0 4.58985-2.08984 1.67969-2.10938 1.67969-6.25z"/><path d="M258.64619 50.00848h-3.65235v-2.32422q-.48828.33203-1.32812.9375-.82031.58593-1.60156.9375-.91797.44922-2.10938.74218-1.19141.3125-2.79297.3125-2.94922 0-5-1.95312-2.05078-1.95313-2.05078-4.98047 0-2.48047 1.05469-4.0039 1.07422-1.54297 3.04687-2.42188 1.99219-.8789 4.78516-1.1914 2.79297-.3125 5.99609-.46876v-.5664q0-1.25-.44922-2.07032-.42968-.8203-1.25-1.28906-.78125-.44922-1.875-.60547-1.09375-.15625-2.28515-.15625-1.44531 0-3.22266.39063-1.77734.3711-3.67187 1.09375h-.19532v-3.73047q1.07422-.29297 3.10547-.64453 2.03125-.35156 4.00391-.35156 2.30469 0 4.00391.39062 1.71875.3711 2.96875 1.28906 1.23046.89844 1.875 2.32422.64453 1.42578.64453 3.53516zm-3.65235-5.3711v-6.07422q-1.67968.09766-3.96484.29297-2.26563.19531-3.59375.5664-1.58203.44923-2.55859 1.40626-.97657.9375-.97657 2.59766 0 1.875 1.13282 2.83203 1.13281.9375 3.45703.9375 1.93359 0 3.53515-.7422 1.60157-.76171 2.96875-1.8164z"/><path d="M269.42744 50.00848h-3.67188V19.61785h3.67188z"/><path d="M292.279 43.71941q0 2.98828-2.48047 4.90235-2.46094 1.91406-6.73828 1.91406-2.42188 0-4.45313-.5664-2.01171-.58594-3.3789-1.26954v-4.1211h.19531q1.73828 1.3086 3.86719 2.08985 2.1289.76172 4.08203.76172 2.42187 0 3.78906-.78125t1.36719-2.46094q0-1.28906-.74219-1.95312-.74219-.66406-2.85156-1.13281-.78125-.17578-2.05078-.41016-1.25-.23438-2.28516-.50781-2.87109-.76172-4.08203-2.22657-1.19141-1.48437-1.19141-3.6328 0-1.34766.54688-2.53907.56641-1.1914 1.69922-2.1289 1.09375-.91797 2.77344-1.44532 1.69921-.54687 3.78906-.54687 1.95312 0 3.94531.48828 2.01172.46875 3.33984 1.15234v3.92578h-.19531q-1.40625-1.03515-3.41797-1.73828-2.01172-.72266-3.94531-.72266-2.01172 0-3.39844.78125-1.38672.76172-1.38672 2.28516 0 1.34766.83985 2.03125.82031.6836 2.65625 1.11328 1.01562.23438 2.26562.46875 1.26953.23438 2.10938.42969 2.55859.58594 3.94531 2.01172 1.38672 1.44531 1.38672 3.82812z"/><path d="M336.45869 35.49676q0 3.96484-1.73828 7.1875-1.71875 3.22265-4.58985 5-1.99219 1.23047-4.45312 1.77734-2.44141.54688-6.44532.54688h-7.34375V20.92645h7.26563q4.25781 0 6.75781.625 2.51953.60546 4.25781 1.67968 2.96875 1.85547 4.62891 4.9414 1.66016 3.08595 1.66016 7.32423zm-4.04297-.0586q0-3.41796-1.19141-5.76171-1.1914-2.34375-3.55469-3.6914-1.71875-.97657-3.65234-1.34766-1.93359-.39063-4.62891-.39063h-3.63281v22.4414h3.63281q2.79297 0 4.86329-.41015 2.08984-.41016 3.82812-1.52344 2.16797-1.38672 3.24219-3.65234 1.09375-2.26563 1.09375-5.66406z"/><path d="M359.36884 50.00848h-3.65234v-2.32422q-.48828.33203-1.32813.9375-.82031.58593-1.60156.9375-.91797.44922-2.10937.74218-1.19141.3125-2.79297.3125-2.94922 0-5-1.95312-2.05078-1.95313-2.05078-4.98047 0-2.48047 1.05468-4.0039 1.07422-1.54297 3.04688-2.42188 1.99219-.8789 4.78516-1.1914 2.79296-.3125 5.99609-.46876v-.5664q0-1.25-.44922-2.07032-.42969-.8203-1.25-1.28906-.78125-.44922-1.875-.60547-1.09375-.15625-2.28516-.15625-1.44531 0-3.22265.39063-1.77735.3711-3.67188 1.09375h-.19531v-3.73047q1.07422-.29297 3.10547-.64453 2.03125-.35156 4.00391-.35156 2.30468 0 4.0039.39062 1.71875.3711 2.96875 1.28906 1.23047.89844 1.875 2.32422t.64453 3.53516zm-3.65234-5.3711v-6.07422q-1.67969.09766-3.96484.29297-2.26563.19531-3.59375.5664-1.58204.44923-2.5586 1.40626-.97656.9375-.97656 2.59766 0 1.875 1.13281 2.83203 1.13281.9375 3.45703.9375 1.9336 0 3.53516-.7422 1.60156-.76171 2.96875-1.8164z"/><path d="M377.76728 49.81316q-1.03516.27344-2.26562.44922-1.21094.17578-2.16797.17578-3.33985 0-5.07813-1.79687-1.73828-1.79688-1.73828-5.76172V31.27801h-2.48047v-3.08594h2.48047v-6.26953h3.67188v6.26953h7.57812v3.08594h-7.57812v9.9414q0 1.71875.0781 2.69532.0781.95703.54688 1.79687.42968.78125 1.17187 1.15235.76172.35156 2.30469.35156.89844 0 1.875-.2539.97656-.27345 1.40625-.44923h.19531z"/><path d="M399.154 50.00848h-3.65234v-2.32422q-.48829.33203-1.32813.9375-.82031.58593-1.60156.9375-.91797.44922-2.10938.74218-1.1914.3125-2.79297.3125-2.94921 0-5-1.95312-2.05078-1.95313-2.05078-4.98047 0-2.48047 1.05469-4.0039 1.07422-1.54297 3.04688-2.42188 1.99218-.8789 4.78515-1.1914 2.79297-.3125 5.9961-.46876v-.5664q0-1.25-.44922-2.07032-.42969-.8203-1.25-1.28906-.78125-.44922-1.875-.60547-1.09375-.15625-2.28516-.15625-1.44531 0-3.22266.39063-1.77734.3711-3.67187 1.09375h-.19531v-3.73047q1.07422-.29297 3.10547-.64453 2.03125-.35156 4.0039-.35156 2.30469 0 4.00391.39062 1.71875.3711 2.96875 1.28906 1.23047.89844 1.875 2.32422t.64453 3.53516zm-3.65234-5.3711v-6.07422q-1.67969.09766-3.96485.29297-2.26562.19531-3.59375.5664-1.58203.44923-2.55859 1.40626-.97656.9375-.97656 2.59766 0 1.875 1.13281 2.83203 1.13281.9375 3.45703.9375 1.93359 0 3.53516-.7422 1.60156-.76171 2.96875-1.8164z"/><path d="M425.42353 38.93426q0 2.73437-.78125 4.92187-.76172 2.1875-2.07031 3.67188-1.38672 1.54297-3.04688 2.32422-1.66015.76172-3.65234.76172-1.85547 0-3.24219-.44922-1.38672-.4297-2.73437-1.17188l-.23438 1.01563h-3.4375V19.61785h3.67188v10.85938q1.54297-1.26953 3.28125-2.07032 1.73828-.8203 3.90625-.8203 3.86718 0 6.09375 2.96874 2.24609 2.96875 2.24609 8.3789zm-3.78906.09766q0-3.90625-1.28906-5.91797-1.28907-2.03125-4.16016-2.03125-1.60156 0-3.24219.70312-1.64062.6836-3.04687 1.77735v12.5q1.5625.70312 2.67578.97656 1.13281.27344 2.55859.27344 3.04688 0 4.76563-1.99219 1.73828-2.01172 1.73828-6.28906z"/><path d="M448.09931 50.00848h-3.65234v-2.32422q-.48828.33203-1.32813.9375-.82031.58593-1.60156.9375-.91797.44922-2.10937.74218-1.19141.3125-2.79297.3125-2.94922 0-5-1.95312-2.05078-1.95313-2.05078-4.98047 0-2.48047 1.05468-4.0039 1.07422-1.54297 3.04688-2.42188 1.99219-.8789 4.78515-1.1914 2.79297-.3125 5.9961-.46876v-.5664q0-1.25-.44922-2.07032-.42969-.8203-1.25-1.28906-.78125-.44922-1.875-.60547-1.09375-.15625-2.28516-.15625-1.44531 0-3.22265.39063-1.77735.3711-3.67188 1.09375h-.19531v-3.73047q1.07422-.29297 3.10547-.64453 2.03125-.35156 4.0039-.35156 2.30469 0 4.00391.39062 1.71875.3711 2.96875 1.28906 1.23047.89844 1.875 2.32422t.64453 3.53516zm-3.65234-5.3711v-6.07422q-1.67969.09766-3.96485.29297-2.26562.19531-3.59375.5664-1.58203.44923-2.55859 1.40626-.97656.9375-.97656 2.59766 0 1.875 1.13281 2.83203 1.13281.9375 3.45703.9375 1.9336 0 3.53516-.7422 1.60156-.76171 2.96875-1.8164z"/><path d="M470.75556 43.71941q0 2.98828-2.48047 4.90235-2.46093 1.91406-6.73828 1.91406-2.42187 0-4.45312-.5664-2.01172-.58594-3.37891-1.26954v-4.1211h.19531q1.73828 1.3086 3.86719 2.08985 2.12891.76172 4.08203.76172 2.42188 0 3.78906-.78125 1.36719-.78125 1.36719-2.46094 0-1.28906-.74219-1.95312-.74218-.66406-2.85156-1.13281-.78125-.17578-2.05078-.41016-1.25-.23438-2.28516-.50781-2.87109-.76172-4.08203-2.22657-1.1914-1.48437-1.1914-3.6328 0-1.34766.54687-2.53907.56641-1.1914 1.69922-2.1289 1.09375-.91797 2.77344-1.44532 1.69922-.54687 3.78906-.54687 1.95313 0 3.94531.48828 2.01172.46875 3.33985 1.15234v3.92578h-.19532q-1.40625-1.03515-3.41796-1.73828-2.01172-.72266-3.94532-.72266-2.01172 0-3.39843.78125-1.38672.76172-1.38672 2.28516 0 1.34766.83984 2.03125.82031.6836 2.65625 1.11328 1.01563.23438 2.26563.46875 1.26953.23438 2.10937.42969 2.55859.58594 3.94531 2.01172 1.38672 1.44531 1.38672 3.82812z"/><path d="M494.27119 39.48113h-16.07422q0 2.01172.60547 3.51563.60547 1.48437 1.66015 2.4414 1.01563.9375 2.40235 1.40625 1.40625.46875 3.08593.46875 2.22657 0 4.47266-.8789 2.26563-.89844 3.22266-1.75782h.19531v4.00391q-1.85547.78125-3.78906 1.3086-1.9336.52734-4.0625.52734-5.42969 0-8.47657-2.92969-3.04687-2.94922-3.04687-8.35937 0-5.35157 2.91016-8.4961 2.92968-3.14453 7.69531-3.14453 4.41406 0 6.79687 2.57813 2.40235 2.57812 2.40235 7.32422zm-3.57422-2.8125q-.0195-2.89062-1.46485-4.47265-1.42578-1.58203-4.35546-1.58203-2.94922 0-4.70704 1.73828-1.73828 1.73828-1.97265 4.3164z"/></g></svg>