<svg xmlns="http://www.w3.org/2000/svg" role="img" viewBox="-1.48 -1.48 76.70 11.95"><title>CRITERIA3D logo</title><g transform="translate(-.674 8.906)"><path d="M7.91016-.63281q-.32227.14062-.58594.26367-.25781.12305-.67969.25781-.35742.11133-.7793.1875-.41601.08203-.91992.08203-.94922 0-1.72851-.26367Q2.44336-.375 1.86914-.94336 1.30664-1.5.99024-2.35546.67382-3.2168.67382-4.35353q0-1.07812.30469-1.92773.30468-.8496.8789-1.43555.55664-.56836 1.3418-.86718.79101-.29883 1.75195-.29883.70313 0 1.4004.16992.70312.16992 1.55859.59766v1.37695h-.0879q-.7207-.60352-1.42968-.8789-.70899-.2754-1.51758-.2754-.6621 0-1.19531.2168-.52735.21094-.94336.6621-.4043.43946-.63281 1.11329-.22266.66797-.22266 1.54687 0 .91993.2461 1.58204.25195.6621.64452 1.07812.41016.4336.95508.64453.55078.20508 1.16016.20508.83789 0 1.57031-.2871.73242-.28712 1.3711-.86134h.08203z"/><path d="M16.76953 0h-1.50586L12.3457-3.46875h-1.63476V0H9.55078v-8.7246h2.44336q.79102 0 1.31836.10546.52734.0996.94922.36328.4746.29883.73828.75586.26953.45117.26953 1.14844 0 .94336-.4746 1.58203-.47462.63281-1.30665.95508zm-2.71289-6.26953q0-.375-.13476-.66211-.12891-.29297-.4336-.49219-.25195-.16992-.59765-.23437-.3457-.07032-.81446-.07032h-1.36523v3.29297h1.17187q.55078 0 .96094-.09375.41016-.0996.69727-.36328.26367-.2461.38671-.5625.12891-.32226.12891-.81445z"/><path d="M20.9707 0h-3.4453v-.89063h1.14257v-6.94335h-1.14258v-.89063h3.44531v.89063h-1.14258v6.94336h1.14258z"/><path d="M29.16797-7.69336h-3.11719V0h-1.16015v-7.69336h-3.1172V-8.7246h7.39454z"/><path d="M36.0879 0h-5.74806v-8.7246h5.74805v1.03124H31.5v2.39063h4.5879v1.03125H31.5v3.24023h4.5879z"/><path d="M45.14648 0h-1.50585l-2.91797-3.46875h-1.63477V0h-1.16016v-8.7246h2.44336q.79102 0 1.31836.10546.52735.0996.94922.36328.47461.29883.73828.75586.26953.45117.26953 1.14844 0 .94336-.4746 1.58203-.47461.63281-1.30665.95508zM42.4336-6.26953q0-.375-.13476-.66211-.1289-.29297-.4336-.49219-.25195-.16992-.59765-.23437-.3457-.07032-.81446-.07032H39.0879v3.29297h1.17188q.55078 0 .96093-.09375.41016-.0996.69727-.36328.26367-.2461.38672-.5625.1289-.32226.1289-.81445z"/><path d="M49.34766 0h-3.44532v-.89063h1.14258v-6.94335h-1.14258v-.89063h3.44532v.89063h-1.14258v6.94336h1.14258z"/><path d="M58.20117 0h-1.23633l-.85547-2.43164h-3.77343L51.48047 0h-1.17774l3.17579-8.7246h1.54687zm-2.44922-3.42773l-1.5293-4.2832-1.53515 4.2832z"/><path d="M64.43555-4.20117q.28125.25195.46289.63281.18164.38086.18164.98438 0 .59765-.2168 1.0957-.2168.49805-.60937.86719-.43946.41015-1.03711.60937-.5918.19336-1.30078.19336-.72657 0-1.4297-.17578-.70312-.16992-1.15429-.375v-1.22461h.0879q.49804.32813 1.17187.54492.67382.2168 1.30078.2168.36914 0 .78515-.12305.41602-.12305.67383-.36328.26953-.25781.39844-.56836.13477-.31055.13477-.78516 0-.46875-.15235-.77343-.14648-.31055-.41015-.48633-.26368-.18164-.63868-.2461-.375-.0703-.8086-.0703h-.52733v-.97266h.41015q.89063 0 1.41797-.36914.5332-.375.5332-1.08985 0-.3164-.13476-.55078-.13477-.24023-.375-.39258-.25195-.15234-.53906-.21093-.28711-.0586-.6504-.0586-.55664 0-1.18359.19922-.62695.19922-1.1836.5625H59.584v-1.2246q.41601-.20509 1.10742-.375.69726-.17579 1.34765-.17579.63867 0 1.125.11719.48633.11718.8789.375.42188.28125.63868.67968.2168.39844.2168.93165 0 .72656-.51563 1.27148-.50976.53906-1.20703.67969v.08203q.28125.04687.64453.19922.36328.14648.61524.36914z"/><path d="M74.5254-4.35352q0 1.18946-.5215 2.15625-.51562.9668-1.37695 1.5-.59765.36914-1.33593.5332Q70.55859 0 69.35742 0H67.1543v-8.7246h2.17968q1.27735 0 2.02735.1875.75586.18163 1.27734.5039.89063.55664 1.38867 1.48242.49805.92578.49805 2.19726zm-1.2129-.01757q0-1.0254-.35742-1.72852t-1.0664-1.10742q-.51563-.29297-1.09571-.4043-.58008-.11719-1.38867-.11719h-1.08985v6.73243h1.08985q.83789 0 1.45898-.12305.62695-.12305 1.14844-.45703.65039-.41602.97266-1.0957.32812-.6797.32812-1.69922z"/></g></svg>