<svg xmlns="http://www.w3.org/2000/svg" role="img" viewBox="-4.46 -4.46 231.92 20.42"><title>Cryosphere Software, Data and Tools logo</title><g transform="translate(-.674 9.176)"><path d="M7.91016-.63281q-.32227.14062-.58594.26367-.25781.12305-.67969.25781-.35742.11133-.7793.1875-.41601.08203-.91992.08203-.94922 0-1.72851-.26367Q2.44336-.375 1.86914-.94336 1.30664-1.5.99024-2.35546.67382-3.2168.67382-4.35353q0-1.07812.30469-1.92773.30468-.8496.8789-1.43555.55664-.56836 1.3418-.86718.79101-.29883 1.75195-.29883.70313 0 1.4004.16992.70312.16992 1.55859.59766v1.37695h-.0879q-.7207-.60352-1.42968-.8789-.70899-.2754-1.51758-.2754-.6621 0-1.19531.2168-.52735.21094-.94336.6621-.4043.43946-.63281 1.11329-.22266.66797-.22266 1.54687 0 .91993.2461 1.58204.25195.6621.64452 1.07812.41016.4336.95508.64453.55078.20508 1.16016.20508.83789 0 1.57031-.2871.73242-.28712 1.3711-.86134h.08203z"/><path d="M13.54688-5.34375h-.0586q-.24609-.0586-.48046-.08203-.22852-.0293-.54493-.0293-.50976 0-.98437.22852-.47461.22265-.91406.58008V0H9.46289v-6.54492h1.10156v.9668q.65625-.52735 1.1543-.74415.5039-.22265 1.0254-.22265.2871 0 .416.01758.12891.01172.38672.05273z"/><path d="M20.24414-6.54492l-3.82031 8.95898h-1.17774L16.46484-.3164l-2.60742-6.22851h1.19531l2.00977 4.85156 2.02734-4.85156z"/><path d="M27.1582-3.26953q0 1.5996-.8203 2.52539-.82032.92578-2.19728.92578-1.38867 0-2.20898-.92578-.81445-.92578-.81445-2.5254 0-1.5996.81445-2.52538.82031-.93164 2.20898-.93164 1.37696 0 2.19727.93164.82031.92578.82031 2.52539zm-1.13672 0q0-1.27149-.49804-1.88672-.49805-.6211-1.38281-.6211-.89649 0-1.39454.6211-.49218.61523-.49218 1.88672 0 1.23047.49804 1.86914.49805.63281 1.38867.63281.87891 0 1.37696-.62695.5039-.63281.5039-1.875z"/><path d="M33.53906-1.88672q0 .89649-.74414 1.4707-.73828.57422-2.02148.57422-.72656 0-1.33594-.16992-.60352-.17578-1.01367-.38086V-1.6289h.05859q.52148.39258 1.16015.62696.63868.22851 1.22461.22851.72657 0 1.13672-.23437.41016-.23438.41016-.73828 0-.38672-.22266-.58594-.22265-.19922-.85547-.33984-.23437-.05274-.61523-.12305-.375-.07031-.68555-.15235-.86133-.22851-1.2246-.66796-.35743-.44532-.35743-1.08985 0-.4043.16406-.76172.16993-.35742.50977-.63867.32812-.27539.83203-.4336.50977-.16405 1.13672-.16405.58594 0 1.1836.14648.6035.14062 1.00195.3457v1.17774h-.0586q-.42187-.31055-1.02538-.52149-.60352-.2168-1.1836-.2168-.60351 0-1.01953.23438-.41602.22852-.41602.68555 0 .4043.25196.60937.2461.20508.79687.33399.3047.0703.6797.14062.38085.07031.6328.1289.76758.17579 1.1836.60352.41601.4336.41601 1.14844z"/><path d="M40.875-3.35156q0 .79687-.22852 1.45898-.22851.65625-.64453 1.11328-.38672.4336-.91406.67383-.52148.23438-1.10742.23438-.50977 0-.92578-.11133-.41016-.11133-.8379-.3457v2.74218h-1.10156v-8.95898h1.10157v.68554q.43945-.36914.98437-.61523.55078-.25195 1.17188-.25195 1.1836 0 1.83984.89648.66211.89063.66211 2.47852zm-1.13672.0293q0-1.1836-.4043-1.76954-.4043-.58593-1.24218-.58593-.47461 0-.95508.20507-.48047.20508-.91992.53907v3.70898q.46875.21094.80273.28711.33984.07617.76758.07617.91992 0 1.43555-.6211.51562-.62109.51562-1.83984z"/><path d="M48.06445 0H46.9629v-3.72656q0-.45117-.05273-.84375-.05273-.39844-.19336-.6211-.14648-.24609-.42187-.36328-.2754-.12304-.71485-.12304-.45117 0-.94336.22265-.49218.22266-.94336.56836V0H42.5918v-9.11719h1.10156v3.29883q.51563-.42773 1.06641-.66797.55078-.24023 1.13086-.24023 1.06055 0 1.61719.63867.55664.63867.55664 1.83984z"/><path d="M55.66406-3.1582H50.8418q0 .60351.18164 1.05468.18164.44532.49804.73243.3047.28125.7207.42187.42188.14063.92579.14063.66797 0 1.3418-.26368.67968-.26953.9668-.52734h.05858v1.20117q-.55664.23438-1.13672.39258-.58007.1582-1.21875.1582-1.6289 0-2.54296-.8789-.91407-.88477-.91407-2.50782 0-1.60546.87305-2.54882.8789-.94336 2.3086-.94336 1.32421 0 2.03906.77344.7207.77343.7207 2.19726zm-1.07226-.84375q-.0059-.8672-.43946-1.3418-.42773-.4746-1.30664-.4746-.88476 0-1.4121.52147-.5215.52149-.5918 1.29493z"/><path d="M61.41797-5.34375h-.0586q-.24609-.0586-.48046-.08203-.22851-.0293-.54492-.0293-.50977 0-.98438.22852-.4746.22265-.91406.58008V0H57.334v-6.54492h1.10156v.9668q.65625-.52735 1.1543-.74415.5039-.22265 1.02539-.22265.2871 0 .41601.01758.12891.01172.38672.05273z"/><path d="M67.9336-3.1582h-4.82227q0 .60351.18164 1.05468.18164.44532.49805.73243.30468.28125.7207.42187.42187.14063.92578.14063.66797 0 1.3418-.26368.67968-.26953.9668-.52734h.05858v1.20117q-.55664.23438-1.13671.39258-.58008.1582-1.21875.1582-1.62891 0-2.54297-.8789-.91407-.88477-.91407-2.50782 0-1.60546.87305-2.54882.8789-.94336 2.3086-.94336 1.32421 0 2.03906.77344.7207.77343.7207 2.19726zm-1.07227-.84375q-.0059-.8672-.43945-1.3418-.42774-.4746-1.30665-.4746-.88476 0-1.4121.52147-.52149.52149-.5918 1.29493z"/><path d="M80.25-2.49023q0 .50976-.24023 1.0078-.23438.49806-.66211.84376-.46875.375-1.0957.58594-.6211.21093-1.5.21093-.94337 0-1.69923-.17578-.75-.17578-1.5293-.52148V-1.9922h.08204q.6621.55078 1.5293.84961.86718.29883 1.6289.29883 1.07813 0 1.67578-.4043.60352-.4043.60352-1.07812 0-.58008-.28711-.85547-.28125-.2754-.86133-.42773-.43945-.1172-.95508-.19336-.50976-.07618-1.08398-.19336-1.16016-.2461-1.72266-.8379-.55664-.59765-.55664-1.55273 0-1.0957.92578-1.79297.92578-.70312 2.34961-.70312.91992 0 1.6875.17578t1.35938.4336v1.37109h-.08203q-.49805-.42188-1.3125-.69727-.8086-.28125-1.6582-.28125-.93165 0-1.5.38672-.5625.38672-.5625.9961 0 .54491.28124.85546.28125.31055.99024.47461.375.08203 1.0664.19922t1.17188.24023q.97265.25782 1.46484.7793.49219.52149.49219 1.45899z"/><path d="M87.60352-3.26953q0 1.5996-.82032 2.52539-.8203.92578-2.19726.92578-1.38867 0-2.20899-.92578-.81445-.92578-.81445-2.5254 0-1.5996.81445-2.52538.82032-.93164 2.20899-.93164 1.37695 0 2.19726.93164.82032.92578.82032 2.52539zm-1.13672 0q0-1.27149-.49805-1.88672-.49805-.6211-1.38281-.6211-.89649 0-1.39453.6211-.4922.61523-.4922 1.88672 0 1.23047.49806 1.86914.49804.63281 1.38867.63281.8789 0 1.37695-.62695.5039-.63281.5039-1.875z"/><path d="M92.83008-8.05078h-.0586q-.18163-.05274-.4746-.10547-.29297-.0586-.51563-.0586-.70898 0-1.03125.31641-.3164.31055-.3164 1.13086v.22266h1.98633v.92578h-1.95118V0h-1.10156v-5.61914h-.74414v-.92578h.74414v-.2168q0-1.16601.58008-1.7871.58007-.62696 1.67578-.62696.36914 0 .6621.03515.29883.03516.54493.08204z"/><path d="M96.92578-.0586q-.31055.08204-.67969.13477-.36328.05274-.65039.05274-1.00195 0-1.52343-.53907-.52149-.53906-.52149-1.72851v-3.48047h-.74414v-.92578h.74414v-1.88086h1.10156v1.88086h2.27344v.92578h-2.27344v2.98242q0 .51563.02344.8086.02344.2871.16407.53906.1289.23437.35156.3457.22851.10547.6914.10547.26954 0 .5625-.07617.29297-.08203.42188-.13477h.05859z"/><path d="M106.48828-6.54492L104.7832 0h-1.01953l-1.68164-5.04492L100.41211 0h-1.01367l-1.72266-6.54492h1.14844l1.20117 5.06836 1.63477-5.06836h.9082l1.67578 5.06836 1.13672-5.06836z"/><path d="M113.04492 0h-1.0957v-.69727q-.14649.09961-.39844.28125-.24609.17579-.48047.28125-.27539.13477-.63281.22266-.35742.09375-.83789.09375-.88477 0-1.5-.58594-.61523-.58593-.61523-1.49414 0-.74414.3164-1.20117.32227-.46289.91406-.72656.59766-.26367 1.43555-.35742.83789-.09375 1.79883-.14063v-.16992q0-.375-.13477-.6211-.1289-.24609-.375-.38671-.23437-.13477-.5625-.18164-.32812-.04688-.68554-.04688-.4336 0-.9668.11719-.5332.11133-1.10156.32812h-.0586V-6.4043q.32227-.08789.93164-.19336.60938-.10547 1.20118-.10547.6914 0 1.20117.1172.51562.11132.89062.38671.36914.26953.5625.69727.19336.42773.19336 1.06054zm-1.0957-1.61133v-1.82226q-.50391.0293-1.18945.08789-.67969.0586-1.07813.16992-.47461.13476-.76758.42187-.29297.28125-.29297.7793 0 .5625.33985.84961.33984.28125 1.03711.28125.58008 0 1.06054-.22266.48047-.22851.89063-.54492z"/><path d="M119.25-5.34375h-.0586q-.2461-.0586-.48047-.08203-.22852-.0293-.54492-.0293-.50977 0-.98438.22852-.47461.22265-.91406.58008V0h-1.10156v-6.54492h1.10156v.9668q.65625-.52735 1.1543-.74415.5039-.22265 1.02539-.22265.28711 0 .41601.01758.12891.01172.38672.05273z"/><path d="M125.76563-3.1582h-4.82227q0 .60351.18164 1.05468.18164.44532.49805.73243.30468.28125.7207.42187.42188.14063.92578.14063.66797 0 1.3418-.26368.67969-.26953.9668-.52734h.0586v1.20117q-.55664.23438-1.13672.39258-.58008.1582-1.21875.1582-1.62891 0-2.54297-.8789-.91406-.88477-.91406-2.50782 0-1.60546.87305-2.54882.8789-.94336 2.30859-.94336 1.32422 0 2.03906.77344.72071.77343.72071 2.19726zm-1.07227-.84375q-.006-.8672-.43945-1.3418-.42774-.4746-1.30664-.4746-.88477 0-1.41211.52147-.52149.52149-.5918 1.29493z"/><path d="M129.7207-1.66992l-1.65234 3.83789h-.85547l1.01953-3.8379z"/><path d="M143.47852-4.35352q0 1.18946-.52149 2.15625-.51562.9668-1.37695 1.5-.59766.36915-1.33594.5332Q139.51172 0 138.31055 0h-2.20313v-8.7246h2.17969q1.27734 0 2.02734.1875.75586.18163 1.27735.5039.89062.55664 1.38867 1.48242.49805.92578.49805 2.19726zm-1.2129-.01757q0-1.0254-.35742-1.72852t-1.0664-1.10742q-.51563-.29297-1.09571-.4043-.58007-.11719-1.38867-.11719h-1.08984v6.73243h1.08984q.83789 0 1.45899-.12305.62695-.12305 1.14843-.45703.65039-.41602.97266-1.0957.32812-.6797.32812-1.69922z"/><path d="M150.35156 0h-1.0957v-.69727q-.14649.09961-.39844.28125-.24609.17579-.48047.28125-.27539.13477-.63281.22266-.35742.09375-.83789.09375-.88477 0-1.5-.58594-.61523-.58593-.61523-1.49414 0-.74414.3164-1.20117.32227-.46289.91406-.72656.59766-.26367 1.43555-.35742.83789-.09375 1.79883-.14063v-.16992q0-.375-.13477-.6211-.1289-.24609-.375-.38671-.23437-.13477-.5625-.18164-.32812-.04688-.68554-.04688-.4336 0-.9668.11719-.5332.11133-1.10156.32812h-.0586V-6.4043q.32227-.08789.93164-.19336.60938-.10547 1.20118-.10547.6914 0 1.20117.1172.51562.11132.89062.38671.36914.26953.5625.69727.19336.42773.19336 1.06054zm-1.0957-1.61133v-1.82226q-.50391.0293-1.18945.08789-.67969.0586-1.07813.16992-.47461.13476-.76758.42187-.29297.28125-.29297.7793 0 .5625.33985.84961.33984.28125 1.03711.28125.58008 0 1.06054-.22266.48047-.22851.89063-.54492z"/><path d="M155.87109-.0586q-.31054.08204-.67968.13477-.36329.05274-.65039.05274-1.00196 0-1.52344-.53907-.52149-.53906-.52149-1.72851v-3.48047h-.74414v-.92578h.74414v-1.88086h1.10157v1.88086h2.27343v.92578h-2.27343v2.98242q0 .51563.0234.8086.0234.2871.16407.53906.1289.23437.35156.3457.22851.10547.6914.10547.26954 0 .5625-.07617.29297-.08203.42188-.13477h.0586z"/><path d="M162.28711 0h-1.0957v-.69727q-.14649.09961-.39844.28125-.2461.17579-.48047.28125-.27539.13477-.63281.22266-.35742.09375-.83789.09375-.88477 0-1.5-.58594-.61524-.58593-.61524-1.49414 0-.74414.31641-1.20117.32226-.46289.91406-.72656.59766-.26367 1.43555-.35742.83789-.09375 1.79883-.14063v-.16992q0-.375-.13477-.6211-.12891-.24609-.375-.38671-.23437-.13477-.5625-.18164-.32812-.04688-.68555-.04688-.43359 0-.96679.11719-.53321.11133-1.10157.32812h-.0586V-6.4043q.32227-.08789.93164-.19336.60938-.10547 1.20117-.10547.69141 0 1.20117.1172.51563.11132.89063.38671.36914.26953.5625.69727.19336.42773.19336 1.06054zm-1.0957-1.61133v-1.82226q-.50391.0293-1.18946.08789-.67968.0586-1.07812.16992-.47461.13476-.76758.42187-.29297.28125-.29297.7793 0 .5625.33984.84961.33985.28125 1.03711.28125.58008 0 1.06055-.22266.48047-.22851.89063-.54492z"/><path d="M173.71289 0h-1.0957v-.69727q-.14649.09961-.39844.28125-.24609.17579-.48047.28125-.27539.13477-.63281.22266-.35742.09375-.83789.09375-.88477 0-1.5-.58594-.61524-.58593-.61524-1.49414 0-.74414.31641-1.20117.32227-.46289.91406-.72656.59766-.26367 1.43555-.35742.83789-.09375 1.79883-.14063v-.16992q0-.375-.13477-.6211-.1289-.24609-.375-.38671-.23437-.13477-.5625-.18164-.32812-.04688-.68555-.04688-.43359 0-.96679.11719-.53321.11133-1.10156.32812h-.0586V-6.4043q.32227-.08789.93164-.19336.60938-.10547 1.20117-.10547.69141 0 1.20118.1172.51562.11132.89062.38671.36914.26953.5625.69727.19336.42773.19336 1.06054zm-1.0957-1.61133v-1.82226q-.50391.0293-1.18946.08789-.67968.0586-1.07812.16992-.47461.13476-.76758.42187-.29297.28125-.29297.7793 0 .5625.33985.84961.33984.28125 1.03711.28125.58007 0 1.06054-.22266.48047-.22851.89063-.54492z"/><path d="M181.30664 0h-1.10156v-3.72656q0-.45117-.0527-.84375-.0527-.39844-.19336-.6211-.14648-.24609-.42187-.36328-.27539-.12304-.71484-.12304-.45118 0-.94336.22265-.49219.22266-.94336.56836V0h-1.10157v-6.54492h1.10157v.72656q.51562-.42773 1.0664-.66797.55078-.24023 1.13086-.24023 1.06055 0 1.61719.63867.55664.63867.55664 1.83984z"/><path d="M188.73633 0h-1.10156v-.68555q-.47461.41016-.99024.63867-.51562.22852-1.11914.22852-1.17187 0-1.86328-.90234-.68555-.90235-.68555-2.50196 0-.83203.23438-1.48242.24023-.65039.64453-1.10742.39844-.44531.92578-.67969.5332-.23437 1.10156-.23437.51563 0 .91406.11133.39844.10546.8379.33398v-2.83594h1.10156zm-1.10156-1.61133v-3.75586q-.44532-.19922-.79688-.27539-.35156-.07617-.76758-.07617-.92578 0-1.4414.64453-.51563.64453-.51563 1.82813 0 1.16601.39844 1.77539.39844.60351 1.27734.60351.46875 0 .94922-.20508.48047-.21093.89649-.53906z"/><path d="M201.43359-7.69336h-3.11718V0h-1.16016v-7.69336h-3.11719V-8.7246h7.39453z"/><path d="M206.80664-3.26953q0 1.5996-.82031 2.52539-.82031.92578-2.19727.92578-1.38867 0-2.20898-.92578-.81446-.92578-.81446-2.5254 0-1.5996.81446-2.52538.82031-.93164 2.20898-.93164 1.37696 0 2.19727.93164.82031.92578.82031 2.52539zm-1.13672 0q0-1.27149-.49805-1.88672-.49804-.6211-1.38281-.6211-.89648 0-1.39453.6211-.49219.61523-.49219 1.88672 0 1.23047.49805 1.86914.49805.63281 1.38867.63281.87891 0 1.37696-.62695.5039-.63281.5039-1.875z"/><path d="M214.08984-3.26953q0 1.5996-.82031 2.52539-.82031.92578-2.19726.92578-1.38868 0-2.20899-.92578-.81445-.92578-.81445-2.5254 0-1.5996.81445-2.52538.82031-.93164 2.20899-.93164 1.37695 0 2.19726.93164.82031.92578.82031 2.52539zm-1.13672 0q0-1.27149-.49804-1.88672-.49805-.6211-1.38281-.6211-.89649 0-1.39454.6211-.49218.61523-.49218 1.88672 0 1.23047.49804 1.86914.49805.63281 1.38868.63281.8789 0 1.37695-.62695.5039-.63281.5039-1.875z"/><path d="M216.9082 0h-1.10156v-9.11719h1.10156z"/><path d="M223.76367-1.88672q0 .89649-.74414 1.4707-.73828.57422-2.02148.57422-.72657 0-1.33594-.16992-.60352-.17578-1.01367-.38086V-1.6289h.0586q.52149.39258 1.16016.62696.63867.22851 1.22461.22851.72656 0 1.13672-.23437.41015-.23438.41015-.73828 0-.38672-.22265-.58594-.22266-.19922-.85547-.33984-.23438-.05274-.61524-.12305-.375-.07031-.68554-.15235-.86133-.22851-1.22461-.66796-.35743-.44532-.35743-1.08985 0-.4043.16407-.76172.16992-.35742.50976-.63867.32813-.27539.83203-.4336.50977-.16405 1.13672-.16405.58594 0 1.1836.14648.60351.14062 1.00195.3457v1.17774h-.0586q-.42188-.31055-1.0254-.52149-.60351-.2168-1.18359-.2168-.60351 0-1.01953.23438-.41602.22852-.41602.68555 0 .4043.25196.60937.24609.20508.79687.33399.30469.0703.67969.14062.38086.07031.63281.1289.76758.17579 1.1836.60352.41601.4336.41601 1.14844z"/></g></svg>