<svg xmlns="http://www.w3.org/2000/svg" role="img" viewBox="-61.30 -61.30 3057.60 217.60"><title>Datasets APIs and open source projects related to Climate Change logo</title><path d="M2357.031 22.168h8.545l.244 5.859a19.044 19.044 0 0 1 13.565-6.754 26.654 26.654 0 0 1 2.109-.082 22.319 22.319 0 0 1 5.675.672 13.826 13.826 0 0 1 9.413 7.825 20.014 20.014 0 0 1 6.86-6.153q4.224-2.344 9.986-2.344 13.943 0 16.89 11.844a29.163 29.163 0 0 1 .786 6.565V75h-9.034V40.137a19.793 19.793 0 0 0-.228-3.112q-.261-1.64-.823-2.949a8.421 8.421 0 0 0-1.537-2.411q-2.587-2.808-8.691-2.808a13.838 13.838 0 0 0-4.057.57 11.197 11.197 0 0 0-4.293 2.433 11.581 11.581 0 0 0-3.489 5.959 15.669 15.669 0 0 0-.368 2.122V75h-9.082V40.381q0-9.097-7.029-11.013a16.188 16.188 0 0 0-4.25-.511 16.001 16.001 0 0 0-4.838.685q-4.797 1.517-7.1 6.396a16.21 16.21 0 0 0-.221.488V75h-9.033V22.168zm-69.287 30.273h9.424a33.516 33.516 0 0 1-1.789 7.735 23.323 23.323 0 0 1-6.536 9.673 23.964 23.964 0 0 1-10.484 5.248q-3.624.852-7.87.879a43.766 43.766 0 0 1-.274.001 28.37 28.37 0 0 1-9.657-1.579 24.377 24.377 0 0 1-10.534-7.455 30.992 30.992 0 0 1-6.241-12.484q-1.182-4.637-1.33-10.106a58.464 58.464 0 0 1-.021-1.58v-6.835a47.233 47.233 0 0 1 .777-8.767 35.875 35.875 0 0 1 2.763-8.665 28.212 28.212 0 0 1 5.06-7.506 25.109 25.109 0 0 1 4.974-4.042 26.83 26.83 0 0 1 11.399-3.836 33.631 33.631 0 0 1 3.64-.192 32.911 32.911 0 0 1 7.845.884 22.95 22.95 0 0 1 10.319 5.439 24.003 24.003 0 0 1 6.607 10.69 34.289 34.289 0 0 1 1.352 6.815h-9.424q-.765-5.323-2.65-8.806a13.588 13.588 0 0 0-2.648-3.499 13.407 13.407 0 0 0-5.614-3.079q-2.078-.587-4.559-.702a26.621 26.621 0 0 0-1.228-.027 19.477 19.477 0 0 0-6.427 1.013 16.253 16.253 0 0 0-7.66 5.627q-5.103 6.641-5.103 18.897v6.884q0 8.606 2.674 14.593a22.422 22.422 0 0 0 2.16 3.816 15.335 15.335 0 0 0 11.094 6.693 20.16 20.16 0 0 0 2.432.143 27.742 27.742 0 0 0 4.527-.346q2.439-.404 4.392-1.28a12.836 12.836 0 0 0 3.068-1.914 12.529 12.529 0 0 0 2.833-3.567q1.817-3.3 2.656-8.43a43.507 43.507 0 0 0 .053-.333zm366.065 0h9.423a33.516 33.516 0 0 1-1.788 7.735 23.323 23.323 0 0 1-6.537 9.673 23.964 23.964 0 0 1-10.484 5.248q-3.623.852-7.869.879a43.766 43.766 0 0 1-.275.001 28.37 28.37 0 0 1-9.656-1.579 24.377 24.377 0 0 1-10.534-7.455 30.992 30.992 0 0 1-6.242-12.484q-1.182-4.637-1.33-10.106a58.464 58.464 0 0 1-.021-1.58v-6.835a47.233 47.233 0 0 1 .778-8.767 35.875 35.875 0 0 1 2.762-8.665 28.212 28.212 0 0 1 5.06-7.506 25.109 25.109 0 0 1 4.974-4.042 26.83 26.83 0 0 1 11.399-3.836 33.631 33.631 0 0 1 3.64-.192 32.911 32.911 0 0 1 7.846.884 22.95 22.95 0 0 1 10.318 5.439 24.003 24.003 0 0 1 6.607 10.69 34.289 34.289 0 0 1 1.352 6.815h-9.423q-.765-5.323-2.651-8.806a13.588 13.588 0 0 0-2.647-3.499 13.407 13.407 0 0 0-5.614-3.079q-2.079-.587-4.56-.702a26.621 26.621 0 0 0-1.228-.027 19.477 19.477 0 0 0-6.426 1.013 16.253 16.253 0 0 0-7.661 5.627q-5.102 6.641-5.102 18.897v6.884q0 8.606 2.673 14.593a22.422 22.422 0 0 0 2.161 3.816 15.335 15.335 0 0 0 11.094 6.693 20.16 20.16 0 0 0 2.431.143 27.742 27.742 0 0 0 4.528-.346q2.438-.404 4.391-1.28a12.836 12.836 0 0 0 3.069-1.914 12.529 12.529 0 0 0 2.833-3.567q1.817-3.3 2.656-8.43a43.507 43.507 0 0 0 .053-.333zM2683.643 0v28.564q6.005-7.373 15.625-7.373a21.166 21.166 0 0 1 7.038 1.073q9.745 3.43 9.856 17.824V75h-9.033V40.039q-.049-5.713-2.612-8.447-2.068-2.206-5.995-2.632a18.441 18.441 0 0 0-1.989-.103 13.921 13.921 0 0 0-4.604.742 12.481 12.481 0 0 0-3.111 1.602 15.915 15.915 0 0 0-5.175 6.153V75h-9.034V0h9.034zm189.404 28.027l.439-5.859h8.252V73.73a27.894 27.894 0 0 1-.785 6.809 19.315 19.315 0 0 1-5.294 9.354q-6.079 5.908-16.333 5.908-5.713 0-11.181-2.442a22.254 22.254 0 0 1-4.559-2.685 17.364 17.364 0 0 1-3.791-4.004l4.687-5.42a20.991 20.991 0 0 0 4.828 4.444 16.819 16.819 0 0 0 9.381 2.734 18.83 18.83 0 0 0 4.189-.439q2.982-.68 5.139-2.415a11.523 11.523 0 0 0 .951-.857 12.109 12.109 0 0 0 3.078-5.474q.608-2.238.608-4.975v-4.541a17.785 17.785 0 0 1-11.689 6.065 25.326 25.326 0 0 1-3.106.185q-9.277 0-15.014-7.471a25.734 25.734 0 0 1-4.258-8.667q-1.017-3.54-1.335-7.74a52.428 52.428 0 0 1-.145-3.954 43.443 43.443 0 0 1 .675-7.896q1.289-6.967 5.038-11.758a18.074 18.074 0 0 1 13.12-7.212 22.866 22.866 0 0 1 2.017-.088 21.899 21.899 0 0 1 6.654.962 17.217 17.217 0 0 1 8.434 5.874zM244.922 37.695h-9.082q0-3.711-3.15-6.396-3.149-2.686-7.934-2.686a18.294 18.294 0 0 0-3.005.232q-1.598.266-2.888.839a8.839 8.839 0 0 0-1.822 1.078 7.251 7.251 0 0 0-1.945 2.207q-.812 1.458-.837 3.289a8.552 8.552 0 0 0-.001.119 6.531 6.531 0 0 0 .334 2.143 5.329 5.329 0 0 0 2.254 2.789 12.15 12.15 0 0 0 1.669.871q1.824.8 4.665 1.564a73.127 73.127 0 0 0 3.016.738 70.196 70.196 0 0 1 4.53 1.164q3.742 1.105 6.432 2.45 4.199 2.099 6.226 5.053a11.381 11.381 0 0 1 1.803 4.524 15.424 15.424 0 0 1 .223 2.679 14.224 14.224 0 0 1-1.242 6.015q-1.41 3.065-4.422 5.337-5.36 4.043-13.737 4.26a37.071 37.071 0 0 1-.96.013 30.507 30.507 0 0 1-5.938-.553 23.595 23.595 0 0 1-5.293-1.694 19.676 19.676 0 0 1-4.821-3.09 17.116 17.116 0 0 1-2.82-3.184 15.123 15.123 0 0 1-2.759-8.716h9.033a10.358 10.358 0 0 0 .817 3.614 9.193 9.193 0 0 0 2.821 3.588 11.912 11.912 0 0 0 4.469 2.143q2.034.519 4.491.519a20.695 20.695 0 0 0 3.285-.246q1.795-.289 3.257-.918a10.452 10.452 0 0 0 1.685-.912 7.656 7.656 0 0 0 1.828-1.671 6.156 6.156 0 0 0 1.273-3.871 7.761 7.761 0 0 0-.404-2.564 6.452 6.452 0 0 0-2.355-3.124 11.672 11.672 0 0 0-1.876-1.096q-2.098-1.002-5.376-1.842a59.907 59.907 0 0 0-2.367-.553q-4.502-.962-7.785-2.175a29.103 29.103 0 0 1-3.104-1.341 20.571 20.571 0 0 1-2.726-1.648q-1.456-1.053-2.488-2.263a11.305 11.305 0 0 1-.743-.972 11.071 11.071 0 0 1-1.808-4.852 14.346 14.346 0 0 1-.12-1.886 13.405 13.405 0 0 1 4.434-10.053 18.819 18.819 0 0 1 1.059-.933q5.493-4.493 14.038-4.493a28.433 28.433 0 0 1 6.261.653 19.527 19.527 0 0 1 8.314 3.986 15.379 15.379 0 0 1 4.193 5.286 15.243 15.243 0 0 1 1.398 6.579zm137.207 0h-9.082q0-3.711-3.15-6.396-3.149-2.686-7.934-2.686a18.294 18.294 0 0 0-3.005.232q-1.598.266-2.888.839a8.839 8.839 0 0 0-1.822 1.078 7.251 7.251 0 0 0-1.945 2.207q-.812 1.458-.837 3.289a8.552 8.552 0 0 0-.001.119 6.531 6.531 0 0 0 .334 2.143 5.329 5.329 0 0 0 2.254 2.789 12.15 12.15 0 0 0 1.669.871q1.824.8 4.665 1.564a73.127 73.127 0 0 0 3.016.738 70.196 70.196 0 0 1 4.53 1.164q3.742 1.105 6.432 2.45 4.199 2.099 6.226 5.053a11.381 11.381 0 0 1 1.803 4.524 15.424 15.424 0 0 1 .223 2.679 14.224 14.224 0 0 1-1.242 6.015q-1.41 3.065-4.422 5.337-5.36 4.043-13.736 4.26a37.071 37.071 0 0 1-.961.013 30.507 30.507 0 0 1-5.938-.553 23.595 23.595 0 0 1-5.293-1.694 19.676 19.676 0 0 1-4.821-3.09 17.116 17.116 0 0 1-2.82-3.184 15.123 15.123 0 0 1-2.759-8.716h9.033a10.358 10.358 0 0 0 .817 3.614 9.193 9.193 0 0 0 2.821 3.588 11.912 11.912 0 0 0 4.469 2.143q2.034.519 4.491.519a20.695 20.695 0 0 0 3.285-.246q1.795-.289 3.257-.918a10.452 10.452 0 0 0 1.685-.912 7.656 7.656 0 0 0 1.829-1.671 6.156 6.156 0 0 0 1.272-3.871 7.761 7.761 0 0 0-.404-2.564 6.452 6.452 0 0 0-2.355-3.124 11.672 11.672 0 0 0-1.876-1.096q-2.098-1.002-5.376-1.842a59.907 59.907 0 0 0-2.367-.553q-4.502-.962-7.785-2.175a29.103 29.103 0 0 1-3.104-1.341 20.571 20.571 0 0 1-2.726-1.648q-1.456-1.053-2.488-2.263a11.305 11.305 0 0 1-.743-.972 11.071 11.071 0 0 1-1.808-4.852 14.346 14.346 0 0 1-.12-1.886 13.405 13.405 0 0 1 4.434-10.053 18.819 18.819 0 0 1 1.059-.933q5.493-4.493 14.038-4.493a28.433 28.433 0 0 1 6.261.653 19.527 19.527 0 0 1 8.314 3.986 15.379 15.379 0 0 1 4.193 5.286 15.243 15.243 0 0 1 1.398 6.579zm231.836 0h-9.082q0-3.711-3.15-6.396-3.149-2.686-7.934-2.686a18.294 18.294 0 0 0-3.005.232q-1.598.266-2.888.839a8.839 8.839 0 0 0-1.822 1.078 7.251 7.251 0 0 0-1.945 2.207q-.812 1.458-.837 3.289a8.552 8.552 0 0 0-.001.119 6.531 6.531 0 0 0 .334 2.143 5.329 5.329 0 0 0 2.254 2.789 12.15 12.15 0 0 0 1.669.871q1.824.8 4.664 1.564a73.127 73.127 0 0 0 3.017.738 70.196 70.196 0 0 1 4.53 1.164q3.742 1.105 6.432 2.45 4.199 2.099 6.226 5.053a11.381 11.381 0 0 1 1.803 4.524 15.424 15.424 0 0 1 .223 2.679 14.224 14.224 0 0 1-1.242 6.015q-1.41 3.065-4.422 5.337-5.36 4.043-13.737 4.26a37.071 37.071 0 0 1-.96.013 30.507 30.507 0 0 1-5.938-.553 23.595 23.595 0 0 1-5.293-1.694 19.676 19.676 0 0 1-4.821-3.09 17.116 17.116 0 0 1-2.82-3.184 15.123 15.123 0 0 1-2.759-8.716h9.033a10.358 10.358 0 0 0 .817 3.614 9.193 9.193 0 0 0 2.821 3.588 11.912 11.912 0 0 0 4.469 2.143q2.034.519 4.491.519a20.695 20.695 0 0 0 3.285-.246q1.795-.289 3.257-.918a10.452 10.452 0 0 0 1.685-.912 7.656 7.656 0 0 0 1.828-1.671 6.156 6.156 0 0 0 1.273-3.871 7.761 7.761 0 0 0-.404-2.564 6.452 6.452 0 0 0-2.355-3.124 11.672 11.672 0 0 0-1.876-1.096q-2.098-1.002-5.376-1.842a59.907 59.907 0 0 0-2.367-.553q-4.502-.962-7.785-2.175a29.103 29.103 0 0 1-3.104-1.341 20.571 20.571 0 0 1-2.726-1.648q-1.456-1.053-2.488-2.263a11.305 11.305 0 0 1-.743-.972 11.071 11.071 0 0 1-1.808-4.852 14.346 14.346 0 0 1-.12-1.886 13.405 13.405 0 0 1 4.434-10.053 18.819 18.819 0 0 1 1.059-.933q5.493-4.493 14.038-4.493a28.433 28.433 0 0 1 6.261.653 19.527 19.527 0 0 1 8.314 3.986 15.379 15.379 0 0 1 4.193 5.286 15.243 15.243 0 0 1 1.398 6.579zm513.086 0h-9.082q0-3.711-3.15-6.396-3.149-2.686-7.934-2.686a18.294 18.294 0 0 0-3.005.232q-1.598.266-2.888.839a8.839 8.839 0 0 0-1.822 1.078 7.251 7.251 0 0 0-1.945 2.207q-.812 1.458-.837 3.289a8.552 8.552 0 0 0-.001.119 6.531 6.531 0 0 0 .334 2.143 5.329 5.329 0 0 0 2.254 2.789 12.15 12.15 0 0 0 1.669.871q1.824.8 4.664 1.564a73.127 73.127 0 0 0 3.017.738 70.196 70.196 0 0 1 4.53 1.164q3.742 1.105 6.432 2.45 4.199 2.099 6.226 5.053a11.381 11.381 0 0 1 1.803 4.524 15.424 15.424 0 0 1 .223 2.679 14.224 14.224 0 0 1-1.242 6.015q-1.41 3.065-4.422 5.337-5.36 4.043-13.737 4.26a37.071 37.071 0 0 1-.96.013 30.507 30.507 0 0 1-5.938-.553 23.595 23.595 0 0 1-5.293-1.694 19.676 19.676 0 0 1-4.821-3.09 17.116 17.116 0 0 1-2.82-3.184 15.123 15.123 0 0 1-2.759-8.716h9.033a10.358 10.358 0 0 0 .817 3.614 9.193 9.193 0 0 0 2.821 3.588 11.912 11.912 0 0 0 4.469 2.143q2.034.519 4.491.519a20.695 20.695 0 0 0 3.285-.246q1.795-.289 3.257-.918a10.452 10.452 0 0 0 1.685-.912 7.656 7.656 0 0 0 1.828-1.671 6.156 6.156 0 0 0 1.273-3.871 7.761 7.761 0 0 0-.404-2.564 6.452 6.452 0 0 0-2.355-3.124 11.672 11.672 0 0 0-1.876-1.096q-2.098-1.002-5.376-1.842a59.907 59.907 0 0 0-2.367-.553q-4.502-.962-7.785-2.175a29.103 29.103 0 0 1-3.104-1.341 20.571 20.571 0 0 1-2.726-1.648q-1.456-1.053-2.488-2.263a11.305 11.305 0 0 1-.743-.972 11.071 11.071 0 0 1-1.808-4.852 14.346 14.346 0 0 1-.12-1.886 13.405 13.405 0 0 1 4.434-10.053 18.819 18.819 0 0 1 1.059-.933q5.493-4.493 14.038-4.493a28.433 28.433 0 0 1 6.261.653 19.527 19.527 0 0 1 8.314 3.986 15.379 15.379 0 0 1 4.193 5.286 15.243 15.243 0 0 1 1.398 6.579zm634.57 0h-9.082q0-3.711-3.149-6.396-3.15-2.686-7.935-2.686a18.294 18.294 0 0 0-3.005.232q-1.597.266-2.888.839a8.839 8.839 0 0 0-1.822 1.078 7.251 7.251 0 0 0-1.945 2.207q-.812 1.458-.837 3.289a8.552 8.552 0 0 0-.001.119 6.531 6.531 0 0 0 .334 2.143 5.329 5.329 0 0 0 2.254 2.789 12.15 12.15 0 0 0 1.669.871q1.824.8 4.665 1.564a73.127 73.127 0 0 0 3.017.738 70.196 70.196 0 0 1 4.529 1.164q3.742 1.105 6.432 2.45 4.2 2.099 6.226 5.053a11.381 11.381 0 0 1 1.803 4.524 15.424 15.424 0 0 1 .223 2.679 14.224 14.224 0 0 1-1.242 6.015q-1.41 3.065-4.422 5.337-5.36 4.043-13.736 4.26a37.071 37.071 0 0 1-.961.013 30.507 30.507 0 0 1-5.938-.553 23.595 23.595 0 0 1-5.292-1.694 19.676 19.676 0 0 1-4.822-3.09 17.116 17.116 0 0 1-2.82-3.184 15.123 15.123 0 0 1-2.759-8.716h9.033a10.358 10.358 0 0 0 .817 3.614 9.193 9.193 0 0 0 2.821 3.588 11.912 11.912 0 0 0 4.469 2.143q2.034.519 4.491.519a20.695 20.695 0 0 0 3.285-.246q1.795-.289 3.257-.918a10.452 10.452 0 0 0 1.686-.912 7.656 7.656 0 0 0 1.828-1.671 6.156 6.156 0 0 0 1.272-3.871 7.761 7.761 0 0 0-.404-2.564 6.452 6.452 0 0 0-2.355-3.124 11.672 11.672 0 0 0-1.876-1.096q-2.098-1.002-5.375-1.842a59.907 59.907 0 0 0-2.368-.553q-4.502-.962-7.784-2.175a29.103 29.103 0 0 1-3.104-1.341 20.571 20.571 0 0 1-2.726-1.648q-1.456-1.053-2.489-2.263a11.305 11.305 0 0 1-.742-.972 11.071 11.071 0 0 1-1.809-4.852 14.346 14.346 0 0 1-.12-1.886 13.405 13.405 0 0 1 4.434-10.053 18.819 18.819 0 0 1 1.059-.933q5.493-4.493 14.038-4.493a28.433 28.433 0 0 1 6.261.653 19.527 19.527 0 0 1 8.314 3.986 15.379 15.379 0 0 1 4.193 5.286 15.243 15.243 0 0 1 1.398 6.579zM705.371 22.168h8.545l.293 6.641a20.007 20.007 0 0 1 6.921-5.683q3.854-1.874 8.593-1.933a24.818 24.818 0 0 1 .306-.002 21.166 21.166 0 0 1 7.039 1.073q9.744 3.43 9.856 17.824V75h-9.033V40.039q-.049-5.713-2.613-8.447-2.067-2.206-5.994-2.632a18.441 18.441 0 0 0-1.989-.103 13.921 13.921 0 0 0-4.604.742 12.481 12.481 0 0 0-3.111 1.602 15.915 15.915 0 0 0-5.176 6.153V75h-9.033V22.168zm302.442 0h8.544l.293 6.641a20.007 20.007 0 0 1 6.921-5.683q3.854-1.874 8.593-1.933a24.818 24.818 0 0 1 .307-.002 21.166 21.166 0 0 1 7.039 1.073q9.744 3.43 9.855 17.824V75h-9.033V40.039q-.049-5.713-2.612-8.447-2.068-2.206-5.994-2.632a18.441 18.441 0 0 0-1.99-.103 13.921 13.921 0 0 0-4.604.742 12.481 12.481 0 0 0-3.111 1.602 15.915 15.915 0 0 0-5.175 6.153V75h-9.033V22.168zm1776.269 0h8.545l.293 6.641a20.007 20.007 0 0 1 6.921-5.683q3.854-1.874 8.593-1.933a24.818 24.818 0 0 1 .306-.002 21.166 21.166 0 0 1 7.039 1.073q9.744 3.43 9.856 17.824V75h-9.033V40.039q-.049-5.713-2.613-8.447-2.068-2.206-5.994-2.632a18.441 18.441 0 0 0-1.989-.103 13.921 13.921 0 0 0-4.604.742 12.481 12.481 0 0 0-3.111 1.602 15.915 15.915 0 0 0-5.176 6.153V75h-9.033V22.168zM1229.15 75l-.195-5.225q-5.218 6.136-15.265 6.201a33.325 33.325 0 0 1-.213.001 23.183 23.183 0 0 1-5.11-.529q-4.788-1.082-7.757-4.379a15.666 15.666 0 0 1-3.145-5.525q-.8-2.355-1.116-5.232a36.21 36.21 0 0 1-.206-3.769V22.168h9.033v34.131q0 12.012 9.765 12.012a21.414 21.414 0 0 0 5.01-.545q6.25-1.505 8.76-7.17V22.168h9.033V75h-8.594zm88.868-16.65h8.545a15.912 15.912 0 0 1-2.213 7.219 19.691 19.691 0 0 1-.912 1.423 20.315 20.315 0 0 1-6.77 6.05 24.099 24.099 0 0 1-.921.493q-4.809 2.442-10.181 2.442a26.07 26.07 0 0 1-7.747-1.097 20.435 20.435 0 0 1-9.416-6.106 24.12 24.12 0 0 1-5.152-9.778q-1.22-4.455-1.22-9.924v-1.513q0-7.715 2.832-13.721a22.311 22.311 0 0 1 4.884-6.825 21.018 21.018 0 0 1 3.246-2.501 21.588 21.588 0 0 1 8.404-3.028 28.104 28.104 0 0 1 4.121-.293 24.397 24.397 0 0 1 7.201 1.019 19.847 19.847 0 0 1 7.569 4.304q5.884 5.322 6.275 13.818h-8.545a13.548 13.548 0 0 0-1.136-4.603 12.08 12.08 0 0 0-2.746-3.82 11.973 11.973 0 0 0-8.102-3.287 15.573 15.573 0 0 0-.516-.009 15.269 15.269 0 0 0-4.683.683 12.007 12.007 0 0 0-5.986 4.273q-3.785 4.956-3.785 14.331v1.709q0 6.091 1.673 10.313a15.655 15.655 0 0 0 2.087 3.75 12.226 12.226 0 0 0 8.741 4.823 17.897 17.897 0 0 0 2.001.109q4.834 0 8.448-2.93a11.194 11.194 0 0 0 2.712-3.125 10.151 10.151 0 0 0 1.292-4.199zm352.929 0h8.545a15.912 15.912 0 0 1-2.212 7.219 19.691 19.691 0 0 1-.913 1.423 20.315 20.315 0 0 1-6.769 6.05 24.099 24.099 0 0 1-.921.493q-4.81 2.442-10.181 2.442a26.07 26.07 0 0 1-7.747-1.097 20.435 20.435 0 0 1-9.416-6.106 24.12 24.12 0 0 1-5.152-9.778q-1.22-4.455-1.22-9.924v-1.513q0-7.715 2.832-13.721a22.311 22.311 0 0 1 4.884-6.825 21.018 21.018 0 0 1 3.246-2.501 21.588 21.588 0 0 1 8.403-3.028 28.104 28.104 0 0 1 4.121-.293 24.397 24.397 0 0 1 7.201 1.019 19.847 19.847 0 0 1 7.57 4.304q5.884 5.322 6.274 13.818h-8.545a13.548 13.548 0 0 0-1.135-4.603 12.08 12.08 0 0 0-2.747-3.82 11.973 11.973 0 0 0-8.101-3.287 15.573 15.573 0 0 0-.517-.009 15.269 15.269 0 0 0-4.683.683 12.007 12.007 0 0 0-5.986 4.273q-3.784 4.956-3.784 14.331v1.709q0 6.091 1.673 10.313a15.655 15.655 0 0 0 2.087 3.75 12.226 12.226 0 0 0 8.74 4.823 17.897 17.897 0 0 0 2.002.109q4.834 0 8.447-2.93a11.194 11.194 0 0 0 2.712-3.125 10.151 10.151 0 0 0 1.292-4.199zM466.602 75l-6.788-18.555h-29.785L423.34 75h-9.668L440.82 3.906h8.203L476.221 75h-9.619zM106.25 75h-9.473q-.781-1.562-1.269-5.566a21.481 21.481 0 0 1-6.909 4.907 20.155 20.155 0 0 1-8.13 1.636 22.593 22.593 0 0 1-5.881-.729 16.988 16.988 0 0 1-6.937-3.69 14.202 14.202 0 0 1-4.984-10.341 17.812 17.812 0 0 1-.021-.865 17.307 17.307 0 0 1 .939-5.831 14.557 14.557 0 0 1 5.336-6.987q6.274-4.565 17.651-4.565h8.789v-4.151a12.803 12.803 0 0 0-.397-3.277 9.196 9.196 0 0 0-2.435-4.267q-2.832-2.807-8.349-2.807a15.837 15.837 0 0 0-3.801.434 11.865 11.865 0 0 0-4.305 2.007 9.506 9.506 0 0 0-1.829 1.756 6.582 6.582 0 0 0-1.442 4.152h-9.082a11.565 11.565 0 0 1 1.388-5.429 15.652 15.652 0 0 1 1.419-2.212 18.11 18.11 0 0 1 5.07-4.505 22.807 22.807 0 0 1 2.548-1.33 24.987 24.987 0 0 1 8.618-2.085 29.659 29.659 0 0 1 1.953-.064 29.439 29.439 0 0 1 5.749.528q5.141 1.024 8.557 4.038a15.51 15.51 0 0 1 5.038 9.178 22.2 22.2 0 0 1 .334 3.395v24.316a46.423 46.423 0 0 0 .199 4.454q.409 4.232 1.656 7.119V75zm87.061 0h-9.473q-.781-1.562-1.27-5.566a21.481 21.481 0 0 1-6.909 4.907 20.155 20.155 0 0 1-8.13 1.636 22.593 22.593 0 0 1-5.881-.729 16.988 16.988 0 0 1-6.936-3.69 14.202 14.202 0 0 1-4.984-10.341 17.812 17.812 0 0 1-.021-.865 17.307 17.307 0 0 1 .938-5.831 14.557 14.557 0 0 1 5.336-6.987q6.275-4.565 17.652-4.565h8.789v-4.151a12.803 12.803 0 0 0-.397-3.277 9.196 9.196 0 0 0-2.435-4.267q-2.832-2.807-8.35-2.807a15.837 15.837 0 0 0-3.8.434 11.865 11.865 0 0 0-4.305 2.007 9.506 9.506 0 0 0-1.829 1.756 6.582 6.582 0 0 0-1.443 4.152h-9.082a11.565 11.565 0 0 1 1.388-5.429 15.652 15.652 0 0 1 1.42-2.212 18.11 18.11 0 0 1 5.07-4.505 22.807 22.807 0 0 1 2.547-1.33 24.987 24.987 0 0 1 8.619-2.085 29.659 29.659 0 0 1 1.952-.064 29.439 29.439 0 0 1 5.75.528q5.14 1.024 8.557 4.038a15.51 15.51 0 0 1 5.037 9.178 22.2 22.2 0 0 1 .334 3.395v24.316a46.423 46.423 0 0 0 .2 4.454q.409 4.232 1.656 7.119V75zm499.755 0h-9.472q-.781-1.562-1.27-5.566a21.481 21.481 0 0 1-6.909 4.907 20.155 20.155 0 0 1-8.13 1.636 22.593 22.593 0 0 1-5.881-.729 16.988 16.988 0 0 1-6.936-3.69 14.202 14.202 0 0 1-4.984-10.341 17.812 17.812 0 0 1-.021-.865 17.307 17.307 0 0 1 .938-5.831 14.557 14.557 0 0 1 5.336-6.987q6.275-4.565 17.652-4.565h8.789v-4.151a12.803 12.803 0 0 0-.397-3.277 9.196 9.196 0 0 0-2.435-4.267q-2.832-2.807-8.35-2.807a15.837 15.837 0 0 0-3.8.434 11.865 11.865 0 0 0-4.305 2.007 9.506 9.506 0 0 0-1.829 1.756 6.582 6.582 0 0 0-1.443 4.152h-9.082a11.565 11.565 0 0 1 1.388-5.429 15.652 15.652 0 0 1 1.42-2.212 18.11 18.11 0 0 1 5.07-4.505 22.807 22.807 0 0 1 2.547-1.33 24.987 24.987 0 0 1 8.619-2.085 29.659 29.659 0 0 1 1.952-.064 29.439 29.439 0 0 1 5.75.528q5.14 1.024 8.557 4.038a15.51 15.51 0 0 1 5.037 9.178 22.2 22.2 0 0 1 .334 3.395v24.316a46.423 46.423 0 0 0 .2 4.454q.409 4.232 1.655 7.119V75zm1257.813 0h-9.473q-.781-1.562-1.269-5.566a21.481 21.481 0 0 1-6.909 4.907 20.155 20.155 0 0 1-8.13 1.636 22.593 22.593 0 0 1-5.881-.729 16.988 16.988 0 0 1-6.937-3.69 14.202 14.202 0 0 1-4.984-10.341 17.812 17.812 0 0 1-.021-.865 17.307 17.307 0 0 1 .939-5.831 14.557 14.557 0 0 1 5.336-6.987q6.274-4.565 17.651-4.565h8.789v-4.151a12.803 12.803 0 0 0-.397-3.277 9.196 9.196 0 0 0-2.435-4.267q-2.832-2.807-8.349-2.807a15.837 15.837 0 0 0-3.801.434 11.865 11.865 0 0 0-4.305 2.007 9.506 9.506 0 0 0-1.829 1.756 6.582 6.582 0 0 0-1.442 4.152h-9.082a11.565 11.565 0 0 1 1.388-5.429 15.652 15.652 0 0 1 1.419-2.212 18.11 18.11 0 0 1 5.07-4.505 22.807 22.807 0 0 1 2.547-1.33 24.987 24.987 0 0 1 8.619-2.085 29.659 29.659 0 0 1 1.953-.064 29.439 29.439 0 0 1 5.749.528q5.141 1.024 8.557 4.038a15.51 15.51 0 0 1 5.038 9.178 22.2 22.2 0 0 1 .333 3.395v24.316a46.423 46.423 0 0 0 .2 4.454q.409 4.232 1.656 7.119V75zm535.937 0h-9.472q-.781-1.562-1.27-5.566a21.481 21.481 0 0 1-6.909 4.907 20.155 20.155 0 0 1-8.13 1.636 22.593 22.593 0 0 1-5.881-.729 16.988 16.988 0 0 1-6.936-3.69 14.202 14.202 0 0 1-4.984-10.341 17.812 17.812 0 0 1-.021-.865 17.307 17.307 0 0 1 .938-5.831 14.557 14.557 0 0 1 5.336-6.987q6.275-4.565 17.652-4.565h8.789v-4.151a12.803 12.803 0 0 0-.397-3.277 9.196 9.196 0 0 0-2.435-4.267q-2.832-2.807-8.35-2.807a15.837 15.837 0 0 0-3.8.434 11.865 11.865 0 0 0-4.305 2.007 9.506 9.506 0 0 0-1.829 1.756 6.582 6.582 0 0 0-1.443 4.152h-9.082a11.565 11.565 0 0 1 1.388-5.429 15.652 15.652 0 0 1 1.42-2.212 18.11 18.11 0 0 1 5.07-4.505 22.807 22.807 0 0 1 2.547-1.33 24.987 24.987 0 0 1 8.619-2.085 29.659 29.659 0 0 1 1.952-.064 29.439 29.439 0 0 1 5.75.528q5.14 1.024 8.557 4.038a15.51 15.51 0 0 1 5.037 9.178 22.2 22.2 0 0 1 .334 3.395v24.316a46.423 46.423 0 0 0 .2 4.454q.409 4.232 1.655 7.119V75zm284.961 0h-9.472q-.782-1.562-1.27-5.566a21.481 21.481 0 0 1-6.909 4.907 20.155 20.155 0 0 1-8.13 1.636 22.593 22.593 0 0 1-5.881-.729 16.988 16.988 0 0 1-6.936-3.69 14.202 14.202 0 0 1-4.984-10.341 17.812 17.812 0 0 1-.021-.865 17.307 17.307 0 0 1 .938-5.831 14.557 14.557 0 0 1 5.336-6.987q6.275-4.565 17.652-4.565h8.789v-4.151a12.803 12.803 0 0 0-.398-3.277 9.196 9.196 0 0 0-2.434-4.267q-2.832-2.807-8.35-2.807a15.837 15.837 0 0 0-3.801.434 11.865 11.865 0 0 0-4.304 2.007 9.506 9.506 0 0 0-1.829 1.756 6.582 6.582 0 0 0-1.443 4.152h-9.082a11.565 11.565 0 0 1 1.388-5.429 15.652 15.652 0 0 1 1.42-2.212 18.11 18.11 0 0 1 5.07-4.505 22.807 22.807 0 0 1 2.547-1.33 24.987 24.987 0 0 1 8.619-2.085 29.659 29.659 0 0 1 1.952-.064 29.439 29.439 0 0 1 5.749.528q5.141 1.024 8.558 4.038a15.51 15.51 0 0 1 5.037 9.178 22.2 22.2 0 0 1 .334 3.395v24.316a46.423 46.423 0 0 0 .2 4.454q.409 4.232 1.655 7.119V75zM758.35 48.828v-.683a41.798 41.798 0 0 1 .744-8.124q1.326-6.693 5.017-11.432 5.666-7.275 14.78-7.396a23.294 23.294 0 0 1 .308-.002 21.822 21.822 0 0 1 6.644.964 17.317 17.317 0 0 1 8.053 5.384V0h9.034v75h-8.301l-.44-5.664q-5.419 6.641-15.087 6.641a17.782 17.782 0 0 1-13.564-5.861 23.09 23.09 0 0 1-1.402-1.659 26.727 26.727 0 0 1-4.718-10.07q-1.068-4.356-1.068-9.559zm1288.281 0v-.683a41.798 41.798 0 0 1 .744-8.124q1.326-6.693 5.018-11.432 5.666-7.275 14.779-7.396a23.294 23.294 0 0 1 .308-.002 21.822 21.822 0 0 1 6.645.964 17.317 17.317 0 0 1 8.053 5.384V0h9.033v75h-8.301l-.439-5.664q-5.42 6.641-15.088 6.641a17.782 17.782 0 0 1-13.563-5.861 23.09 23.09 0 0 1-1.403-1.659 26.727 26.727 0 0 1-4.718-10.07q-1.068-4.356-1.068-9.559zM943.359 48.34v.83a42.978 42.978 0 0 1-.712 8.063q-.908 4.752-2.973 8.52a23.997 23.997 0 0 1-1.832 2.851 17.447 17.447 0 0 1-12.647 7.257 22.362 22.362 0 0 1-2.295.116q-9.619 0-15.136-6.104v25.44h-9.034V22.168h8.252l.44 5.859q5.517-6.836 15.332-6.836a20.317 20.317 0 0 1 7.079 1.185 17.739 17.739 0 0 1 7.984 5.993q4.53 5.867 5.358 15.486a52.378 52.378 0 0 1 .184 4.485zm515.723 0v.83a42.978 42.978 0 0 1-.713 8.063q-.908 4.752-2.973 8.52a23.997 23.997 0 0 1-1.832 2.851 17.447 17.447 0 0 1-12.646 7.257 22.362 22.362 0 0 1-2.295.116q-9.619 0-15.137-6.104v25.44h-9.033V22.168h8.252l.44 5.859q5.517-6.836 15.332-6.836a20.317 20.317 0 0 1 7.079 1.185 17.739 17.739 0 0 1 7.984 5.993q4.53 5.867 5.357 15.486a52.378 52.378 0 0 1 .185 4.485zM254.883 50.049v-1.66a35.217 35.217 0 0 1 .847-7.878 28.681 28.681 0 0 1 2.156-6.16 24.345 24.345 0 0 1 4.971-6.951 22.592 22.592 0 0 1 3.427-2.717 21.115 21.115 0 0 1 11.695-3.492 25.048 25.048 0 0 1 6.812.877 18.214 18.214 0 0 1 9.203 5.911q5.713 6.787 5.713 19.433v3.76h-35.791a23.461 23.461 0 0 0 .79 5.645 16.845 16.845 0 0 0 3.775 6.977 14.244 14.244 0 0 0 10.379 4.795 18.354 18.354 0 0 0 .73.015 19.593 19.593 0 0 0 3.646-.323q2.323-.44 4.195-1.48a12.287 12.287 0 0 0 .264-.151q3.321-1.953 5.811-5.175l5.517 4.296a21.402 21.402 0 0 1-15.552 9.904 30.546 30.546 0 0 1-4.369.302 26.605 26.605 0 0 1-8.347-1.255 21.937 21.937 0 0 1-9.134-5.801 23.728 23.728 0 0 1-6.047-11.791 34.476 34.476 0 0 1-.691-7.081zm697.656 0v-1.66a35.217 35.217 0 0 1 .848-7.878 28.681 28.681 0 0 1 2.155-6.16 24.345 24.345 0 0 1 4.972-6.951 22.592 22.592 0 0 1 3.426-2.717 21.115 21.115 0 0 1 11.695-3.492 25.048 25.048 0 0 1 6.812.877 18.214 18.214 0 0 1 9.203 5.911q5.713 6.787 5.713 19.433v3.76h-35.791a23.461 23.461 0 0 0 .79 5.645 16.845 16.845 0 0 0 3.776 6.977 14.244 14.244 0 0 0 10.378 4.795 18.354 18.354 0 0 0 .73.015 19.593 19.593 0 0 0 3.646-.323q2.323-.44 4.195-1.48a12.287 12.287 0 0 0 .265-.151q3.32-1.953 5.81-5.175l5.518 4.296a21.402 21.402 0 0 1-15.553 9.904 30.546 30.546 0 0 1-4.369.302 26.605 26.605 0 0 1-8.347-1.255 21.937 21.937 0 0 1-9.134-5.801 23.728 23.728 0 0 1-6.047-11.791 34.476 34.476 0 0 1-.691-7.081zm381.885 0v-1.66a35.217 35.217 0 0 1 .847-7.878 28.681 28.681 0 0 1 2.156-6.16 24.345 24.345 0 0 1 4.972-6.951 22.592 22.592 0 0 1 3.426-2.717 21.115 21.115 0 0 1 11.695-3.492 25.048 25.048 0 0 1 6.812.877 18.214 18.214 0 0 1 9.203 5.911q5.713 6.787 5.713 19.433v3.76h-35.791a23.461 23.461 0 0 0 .79 5.645 16.845 16.845 0 0 0 3.775 6.977 14.244 14.244 0 0 0 10.379 4.795 18.354 18.354 0 0 0 .73.015 19.593 19.593 0 0 0 3.646-.323q2.323-.44 4.195-1.48a12.287 12.287 0 0 0 .264-.151q3.321-1.953 5.811-5.175l5.517 4.296a21.402 21.402 0 0 1-15.552 9.904 30.546 30.546 0 0 1-4.369.302 26.605 26.605 0 0 1-8.347-1.255 21.937 21.937 0 0 1-9.134-5.801 23.728 23.728 0 0 1-6.047-11.791 34.476 34.476 0 0 1-.691-7.081zm247.607 0v-1.66a35.217 35.217 0 0 1 .848-7.878 28.681 28.681 0 0 1 2.155-6.16 24.345 24.345 0 0 1 4.972-6.951 22.592 22.592 0 0 1 3.427-2.717 21.115 21.115 0 0 1 11.694-3.492 25.048 25.048 0 0 1 6.812.877 18.214 18.214 0 0 1 9.204 5.911q5.712 6.787 5.712 19.433v3.76h-35.791a23.461 23.461 0 0 0 .79 5.645 16.845 16.845 0 0 0 3.776 6.977 14.244 14.244 0 0 0 10.378 4.795 18.354 18.354 0 0 0 .73.015 19.593 19.593 0 0 0 3.646-.323q2.323-.44 4.196-1.48a12.287 12.287 0 0 0 .264-.151q3.32-1.953 5.81-5.175l5.518 4.296a21.402 21.402 0 0 1-15.553 9.904 30.546 30.546 0 0 1-4.369.302 26.605 26.605 0 0 1-8.347-1.255 21.937 21.937 0 0 1-9.133-5.801 23.728 23.728 0 0 1-6.047-11.791 34.476 34.476 0 0 1-.692-7.081zm247.217 0v-1.66a35.217 35.217 0 0 1 .848-7.878 28.681 28.681 0 0 1 2.155-6.16 24.345 24.345 0 0 1 4.972-6.951 22.592 22.592 0 0 1 3.426-2.717 21.115 21.115 0 0 1 11.695-3.492 25.048 25.048 0 0 1 6.812.877 18.214 18.214 0 0 1 9.203 5.911q5.713 6.787 5.713 19.433v3.76h-35.791a23.461 23.461 0 0 0 .79 5.645 16.845 16.845 0 0 0 3.776 6.977 14.244 14.244 0 0 0 10.378 4.795 18.354 18.354 0 0 0 .73.015 19.593 19.593 0 0 0 3.646-.323q2.323-.44 4.195-1.48a12.287 12.287 0 0 0 .265-.151q3.32-1.953 5.81-5.175l5.518 4.296a21.402 21.402 0 0 1-15.553 9.904 30.546 30.546 0 0 1-4.369.302 26.605 26.605 0 0 1-8.347-1.255 21.937 21.937 0 0 1-9.134-5.801 23.728 23.728 0 0 1-6.047-11.791 34.476 34.476 0 0 1-.691-7.081zm164.307 0v-1.66a35.217 35.217 0 0 1 .847-7.878 28.681 28.681 0 0 1 2.156-6.16 24.345 24.345 0 0 1 4.971-6.951 22.592 22.592 0 0 1 3.427-2.717 21.115 21.115 0 0 1 11.694-3.492 25.048 25.048 0 0 1 6.813.877 18.214 18.214 0 0 1 9.203 5.911q5.713 6.787 5.713 19.433v3.76h-35.791a23.461 23.461 0 0 0 .79 5.645 16.845 16.845 0 0 0 3.775 6.977 14.244 14.244 0 0 0 10.379 4.795 18.354 18.354 0 0 0 .73.015 19.593 19.593 0 0 0 3.646-.323q2.323-.44 4.195-1.48a12.287 12.287 0 0 0 .264-.151q3.321-1.953 5.811-5.175l5.517 4.296a21.402 21.402 0 0 1-15.552 9.904 30.546 30.546 0 0 1-4.37.302 26.605 26.605 0 0 1-8.346-1.255 21.937 21.937 0 0 1-9.134-5.801 23.728 23.728 0 0 1-6.047-11.791 34.476 34.476 0 0 1-.691-7.081zm535.937 0v-1.66a35.217 35.217 0 0 1 .848-7.878 28.681 28.681 0 0 1 2.155-6.16 24.345 24.345 0 0 1 4.972-6.951 22.592 22.592 0 0 1 3.427-2.717 21.115 21.115 0 0 1 11.694-3.492 25.048 25.048 0 0 1 6.812.877 18.214 18.214 0 0 1 9.204 5.911q5.712 6.787 5.712 19.433v3.76h-35.791a23.461 23.461 0 0 0 .79 5.645 16.845 16.845 0 0 0 3.776 6.977 14.244 14.244 0 0 0 10.378 4.795 18.354 18.354 0 0 0 .73.015 19.593 19.593 0 0 0 3.646-.323q2.323-.44 4.196-1.48a12.287 12.287 0 0 0 .264-.151q3.32-1.953 5.81-5.175l5.518 4.296a21.402 21.402 0 0 1-15.553 9.904 30.546 30.546 0 0 1-4.369.302 26.605 26.605 0 0 1-8.347-1.255 21.937 21.937 0 0 1-9.134-5.801 23.728 23.728 0 0 1-6.046-11.791 34.476 34.476 0 0 1-.692-7.081zm363.574 0v-1.66a35.217 35.217 0 0 1 .848-7.878 28.681 28.681 0 0 1 2.155-6.16 24.345 24.345 0 0 1 4.972-6.951 22.592 22.592 0 0 1 3.427-2.717 21.115 21.115 0 0 1 11.694-3.492 25.048 25.048 0 0 1 6.812.877 18.214 18.214 0 0 1 9.204 5.911q5.713 6.787 5.713 19.433v3.76H2902.1a23.461 23.461 0 0 0 .789 5.645 16.845 16.845 0 0 0 3.776 6.977 14.244 14.244 0 0 0 10.379 4.795 18.354 18.354 0 0 0 .729.015 19.593 19.593 0 0 0 3.647-.323q2.322-.44 4.195-1.48a12.287 12.287 0 0 0 .264-.151q3.32-1.953 5.81-5.175l5.518 4.296a21.402 21.402 0 0 1-15.553 9.904 30.546 30.546 0 0 1-4.369.302 26.605 26.605 0 0 1-8.347-1.255 21.937 21.937 0 0 1-9.133-5.801 23.728 23.728 0 0 1-6.047-11.791 34.476 34.476 0 0 1-.692-7.081zM511.914 47.168h-16.748V75h-9.375V3.906h26.221a36.837 36.837 0 0 1 7.387.696q4.473.916 7.924 3.038a20.433 20.433 0 0 1 2.975 2.223 19.686 19.686 0 0 1 6.525 13.524 27.227 27.227 0 0 1 .091 2.248 26.474 26.474 0 0 1-.764 6.554 17.94 17.94 0 0 1-5.706 9.388q-6.469 5.591-18.53 5.591zM19.678 75H0V3.906h20.068a35.659 35.659 0 0 1 9.219 1.149 29.679 29.679 0 0 1 7.188 2.953 27.74 27.74 0 0 1 11.01 11.67 35.446 35.446 0 0 1 3.521 11.432 45.253 45.253 0 0 1 .41 5.951v4.541q0 10.058-3.882 17.627A27.305 27.305 0 0 1 36.45 70.85a32.013 32.013 0 0 1-11.022 3.703 41.308 41.308 0 0 1-5.75.447zM121.777 9.375h9.034v12.793h9.863v6.982h-9.863v32.764a12.204 12.204 0 0 0 .116 1.745q.129.89.401 1.609a4.894 4.894 0 0 0 .801 1.407 3.9 3.9 0 0 0 1.609 1.126q.66.259 1.489.372a10.308 10.308 0 0 0 1.394.089 11.617 11.617 0 0 0 1.084-.057q1.141-.108 2.694-.421a44.686 44.686 0 0 0 .519-.108V75a27.369 27.369 0 0 1-4.809.881 23.968 23.968 0 0 1-2.125.096q-4.967 0-7.93-2.466a9.511 9.511 0 0 1-1.2-1.197 12.049 12.049 0 0 1-2.246-4.229q-.831-2.67-.831-6.171V29.15h-9.619v-6.982h9.619V9.375zm191.602 0h9.033v12.793h9.863v6.982h-9.863v32.764a12.204 12.204 0 0 0 .116 1.745q.129.89.402 1.609a4.894 4.894 0 0 0 .8 1.407 3.9 3.9 0 0 0 1.61 1.126q.659.259 1.489.372a10.308 10.308 0 0 0 1.394.089 11.617 11.617 0 0 0 1.083-.057q1.142-.108 2.694-.421a44.686 44.686 0 0 0 .52-.108V75a27.369 27.369 0 0 1-4.809.881 23.968 23.968 0 0 1-2.125.096q-4.968 0-7.931-2.466a9.511 9.511 0 0 1-1.2-1.197 12.049 12.049 0 0 1-2.246-4.229q-.83-2.67-.83-6.171V29.15h-9.619v-6.982h9.619V9.375zm1379.492 0h9.033v12.793h9.864v6.982h-9.864v32.764a12.204 12.204 0 0 0 .116 1.745q.129.89.402 1.609a4.894 4.894 0 0 0 .801 1.407 3.9 3.9 0 0 0 1.609 1.126q.659.259 1.489.372a10.308 10.308 0 0 0 1.394.089 11.617 11.617 0 0 0 1.083-.057q1.142-.108 2.695-.421a44.686 44.686 0 0 0 .519-.108V75a27.369 27.369 0 0 1-4.809.881 23.968 23.968 0 0 1-2.125.096q-4.968 0-7.93-2.466a9.511 9.511 0 0 1-1.201-1.197 12.049 12.049 0 0 1-2.246-4.229q-.83-2.67-.83-6.171V29.15h-9.619v-6.982h9.619V9.375zm273.535 0h9.033v12.793h9.864v6.982h-9.864v32.764a12.204 12.204 0 0 0 .117 1.745q.129.89.401 1.609a4.894 4.894 0 0 0 .801 1.407 3.9 3.9 0 0 0 1.609 1.126q.659.259 1.489.372a10.308 10.308 0 0 0 1.394.089 11.617 11.617 0 0 0 1.083-.057q1.142-.108 2.695-.421a44.686 44.686 0 0 0 .519-.108V75a27.369 27.369 0 0 1-4.809.881 23.968 23.968 0 0 1-2.125.096q-4.968 0-7.93-2.466a9.511 9.511 0 0 1-1.201-1.197 12.049 12.049 0 0 1-2.245-4.229q-.831-2.67-.831-6.171V29.15h-9.619v-6.982h9.619V9.375zm166.797 0h9.033v12.793h9.864v6.982h-9.864v32.764a12.204 12.204 0 0 0 .117 1.745q.129.89.401 1.609a4.894 4.894 0 0 0 .801 1.407 3.9 3.9 0 0 0 1.609 1.126q.659.259 1.489.372a10.308 10.308 0 0 0 1.394.089 11.617 11.617 0 0 0 1.083-.057q1.142-.108 2.695-.421a44.686 44.686 0 0 0 .519-.108V75a27.369 27.369 0 0 1-4.809.881 23.968 23.968 0 0 1-2.125.096q-4.968 0-7.93-2.466a9.511 9.511 0 0 1-1.201-1.197 12.049 12.049 0 0 1-2.246-4.229q-.83-2.67-.83-6.171V29.15h-9.619v-6.982h9.619V9.375zm369.141 0h9.033v12.793h9.863v6.982h-9.863v32.764a12.204 12.204 0 0 0 .116 1.745q.129.89.401 1.609a4.894 4.894 0 0 0 .801 1.407 3.9 3.9 0 0 0 1.61 1.126q.659.259 1.489.372a10.308 10.308 0 0 0 1.393.089 11.617 11.617 0 0 0 1.084-.057q1.141-.108 2.694-.421a44.686 44.686 0 0 0 .519-.108V75a27.369 27.369 0 0 1-4.808.881 23.968 23.968 0 0 1-2.125.096q-4.968 0-7.931-2.466a9.511 9.511 0 0 1-1.2-1.197 12.049 12.049 0 0 1-2.246-4.229q-.83-2.67-.83-6.171V29.15h-9.619v-6.982h9.619V9.375zm-941.602 12.793h9.033v58.936a24.476 24.476 0 0 1-.614 5.749q-1.868 7.701-9.408 9.15a20.145 20.145 0 0 1-3.796.335 17.712 17.712 0 0 1-3.715-.377 15.288 15.288 0 0 1-1.803-.502v-7.227a10.987 10.987 0 0 0 1.19.223q1.246.168 2.912.168a8.961 8.961 0 0 0 1.792-.168q1.076-.22 1.899-.727a4.77 4.77 0 0 0 .923-.741 4.581 4.581 0 0 0 .936-1.488q.651-1.604.651-4.2V22.168zM1894.336 0v75h-9.033V0h9.033zm424.023 0v75h-9.033V0h9.033zM839.307 48.73v-.634a33.961 33.961 0 0 1 .965-8.24 28.587 28.587 0 0 1 2.086-5.725 23.999 23.999 0 0 1 4.608-6.506 21.745 21.745 0 0 1 3.888-3.064 22.626 22.626 0 0 1 10.494-3.303 27.674 27.674 0 0 1 1.933-.067 25.301 25.301 0 0 1 8.371 1.33 21.518 21.518 0 0 1 9.085 6.141 25.439 25.439 0 0 1 5.767 11.43 37.474 37.474 0 0 1 .898 8.443v.635a34.597 34.597 0 0 1-.883 7.963 28.637 28.637 0 0 1-2.071 5.88 22.849 22.849 0 0 1-5.859 7.667 22.23 22.23 0 0 1-2.588 1.879 22.726 22.726 0 0 1-10.22 3.317 28.098 28.098 0 0 1-2.402.101 25.13 25.13 0 0 1-8.338-1.33 21.534 21.534 0 0 1-9.069-6.141q-6.665-7.471-6.665-19.776zm297.607 0v-.634a33.961 33.961 0 0 1 .966-8.24 28.587 28.587 0 0 1 2.086-5.725 23.999 23.999 0 0 1 4.608-6.506 21.745 21.745 0 0 1 3.888-3.064 22.626 22.626 0 0 1 10.493-3.303 27.674 27.674 0 0 1 1.934-.067 25.301 25.301 0 0 1 8.37 1.33 21.518 21.518 0 0 1 9.086 6.141 25.439 25.439 0 0 1 5.766 11.43 37.474 37.474 0 0 1 .899 8.443v.635a34.597 34.597 0 0 1-.884 7.963 28.637 28.637 0 0 1-2.07 5.88 22.849 22.849 0 0 1-5.86 7.667 22.23 22.23 0 0 1-2.588 1.879 22.726 22.726 0 0 1-10.219 3.317 28.098 28.098 0 0 1-2.403.101 25.13 25.13 0 0 1-8.338-1.33 21.534 21.534 0 0 1-9.069-6.141q-6.665-7.471-6.665-19.776zm364.111 0v-.634a33.961 33.961 0 0 1 .966-8.24 28.587 28.587 0 0 1 2.086-5.725 23.999 23.999 0 0 1 4.608-6.506 21.745 21.745 0 0 1 3.888-3.064 22.626 22.626 0 0 1 10.494-3.303 27.674 27.674 0 0 1 1.933-.067 25.301 25.301 0 0 1 8.371 1.33 21.518 21.518 0 0 1 9.085 6.141 25.439 25.439 0 0 1 5.766 11.43 37.474 37.474 0 0 1 .899 8.443v.635a34.597 34.597 0 0 1-.883 7.963 28.637 28.637 0 0 1-2.071 5.88 22.849 22.849 0 0 1-5.859 7.667 22.23 22.23 0 0 1-2.588 1.879 22.726 22.726 0 0 1-10.22 3.317 28.098 28.098 0 0 1-2.402.101 25.13 25.13 0 0 1-8.338-1.33 21.534 21.534 0 0 1-9.07-6.141q-6.665-7.471-6.665-19.776zm658.252 0v-.634a33.961 33.961 0 0 1 .966-8.24 28.587 28.587 0 0 1 2.086-5.725 23.999 23.999 0 0 1 4.608-6.506 21.745 21.745 0 0 1 3.888-3.064 22.626 22.626 0 0 1 10.494-3.303 27.674 27.674 0 0 1 1.933-.067 25.301 25.301 0 0 1 8.371 1.33 21.518 21.518 0 0 1 9.085 6.141 25.439 25.439 0 0 1 5.766 11.43 37.474 37.474 0 0 1 .899 8.443v.635a34.597 34.597 0 0 1-.883 7.963 28.637 28.637 0 0 1-2.071 5.88 22.849 22.849 0 0 1-5.859 7.667 22.23 22.23 0 0 1-2.588 1.879 22.726 22.726 0 0 1-10.22 3.317 28.098 28.098 0 0 1-2.402.101 25.13 25.13 0 0 1-8.338-1.33 21.534 21.534 0 0 1-9.07-6.141q-6.665-7.471-6.665-19.776zm-882.275-26.855v8.398a25.009 25.009 0 0 0-2.697-.293 30.912 30.912 0 0 0-1.746-.048q-8.643 0-11.882 7.158a16.051 16.051 0 0 0-.179.41V75h-9.033V22.168h8.789l.146 6.103a16.014 16.014 0 0 1 3.855-4.314q3.647-2.766 8.743-2.766a16.507 16.507 0 0 1 1.383.054q1.431.121 2.362.511a4.272 4.272 0 0 1 .259.119zm219.092 0v8.398a25.009 25.009 0 0 0-2.697-.293 30.912 30.912 0 0 0-1.747-.048q-8.642 0-11.881 7.158a16.051 16.051 0 0 0-.179.41V75h-9.033V22.168h8.789l.146 6.103a16.014 16.014 0 0 1 3.855-4.314q3.646-2.766 8.743-2.766a16.507 16.507 0 0 1 1.383.054q1.431.121 2.362.511a4.272 4.272 0 0 1 .259.119zm328.076 0v8.398a25.009 25.009 0 0 0-2.697-.293 30.912 30.912 0 0 0-1.746-.048q-8.643 0-11.882 7.158a16.051 16.051 0 0 0-.179.41V75h-9.033V22.168h8.789l.146 6.103a16.014 16.014 0 0 1 3.855-4.314q3.647-2.766 8.743-2.766a16.507 16.507 0 0 1 1.383.054q1.431.121 2.362.511a4.272 4.272 0 0 1 .259.119zM558.936 3.906V75h-9.375V3.906h9.375zM20.313 11.621H9.375v55.713h9.863a27.992 27.992 0 0 0 7.028-.833 19.416 19.416 0 0 0 9.842-5.905 21.969 21.969 0 0 0 4.57-8.317q1.461-4.744 1.461-10.873v-4.15a41.512 41.512 0 0 0-.613-7.366q-1.254-6.947-5.076-11.457a18.739 18.739 0 0 0-11.066-6.322 27.764 27.764 0 0 0-5.072-.49zm2322.314 10.547V75h-9.033V22.168h9.033zM851.112 61.221a17.164 17.164 0 0 0 1.354 2.06q4.077 5.323 10.913 5.323 6.763 0 10.793-5.207a16.377 16.377 0 0 0 .144-.189q3.219-4.285 3.881-11.296a40.609 40.609 0 0 0 .172-3.816q0-7.496-3.069-12.54a17.624 17.624 0 0 0-1.057-1.547 13.676 13.676 0 0 0-4.611-3.95q-2.681-1.378-6.021-1.443a17.075 17.075 0 0 0-.33-.003 13.542 13.542 0 0 0-5.852 1.239q-2.816 1.329-4.939 4.084a17.656 17.656 0 0 0-2.801 5.528q-.772 2.449-1.086 5.412a40.845 40.845 0 0 0-.214 4.294q0 7.183 2.723 12.051zm297.608 0a17.164 17.164 0 0 0 1.353 2.06q4.077 5.323 10.913 5.323 6.763 0 10.793-5.207a16.377 16.377 0 0 0 .145-.189q3.218-4.285 3.881-11.296a40.609 40.609 0 0 0 .172-3.816q0-7.496-3.069-12.54a17.624 17.624 0 0 0-1.057-1.547 13.676 13.676 0 0 0-4.612-3.95q-2.68-1.378-6.02-1.443a17.075 17.075 0 0 0-.33-.003 13.542 13.542 0 0 0-5.852 1.239q-2.816 1.329-4.939 4.084a17.656 17.656 0 0 0-2.802 5.528q-.772 2.449-1.085 5.412a40.845 40.845 0 0 0-.215 4.294q0 7.183 2.724 12.051zm364.111 0a17.164 17.164 0 0 0 1.354 2.06q4.077 5.323 10.913 5.323 6.763 0 10.793-5.207a16.377 16.377 0 0 0 .144-.189q3.219-4.285 3.881-11.296a40.609 40.609 0 0 0 .172-3.816q0-7.496-3.069-12.54a17.624 17.624 0 0 0-1.057-1.547 13.676 13.676 0 0 0-4.612-3.95q-2.68-1.378-6.02-1.443a17.075 17.075 0 0 0-.33-.003 13.542 13.542 0 0 0-5.852 1.239q-2.816 1.329-4.939 4.084a17.656 17.656 0 0 0-2.802 5.528q-.771 2.449-1.085 5.412a40.845 40.845 0 0 0-.215 4.294q0 7.183 2.724 12.051zm658.252 0a17.164 17.164 0 0 0 1.354 2.06q4.077 5.323 10.913 5.323 6.763 0 10.793-5.207a16.377 16.377 0 0 0 .144-.189q3.219-4.285 3.881-11.296a40.609 40.609 0 0 0 .172-3.816q0-7.496-3.069-12.54a17.624 17.624 0 0 0-1.057-1.547 13.676 13.676 0 0 0-4.612-3.95q-2.68-1.378-6.02-1.443a17.075 17.075 0 0 0-.33-.003 13.542 13.542 0 0 0-5.852 1.239q-2.816 1.329-4.939 4.084a17.656 17.656 0 0 0-2.802 5.528q-.771 2.449-1.085 5.412a40.845 40.845 0 0 0-.215 4.294q0 7.183 2.724 12.051zM907.764 36.133v25.244a14.793 14.793 0 0 0 3.643 4.404q2.987 2.381 7.169 2.754a17.933 17.933 0 0 0 1.59.069 13.154 13.154 0 0 0 5.173-.986q2.998-1.268 5.154-4.166 3.833-5.151 3.833-15.307a33.969 33.969 0 0 0-.43-5.58q-.849-5.095-3.378-8.532a12.07 12.07 0 0 0-8.736-5.084 15.709 15.709 0 0 0-1.714-.092 14.51 14.51 0 0 0-5.731 1.088q-4.058 1.726-6.573 6.188zm515.722 0v25.244a14.793 14.793 0 0 0 3.644 4.404q2.987 2.381 7.169 2.754a17.933 17.933 0 0 0 1.59.069 13.154 13.154 0 0 0 5.173-.986q2.998-1.268 5.154-4.166 3.833-5.151 3.833-15.307a33.969 33.969 0 0 0-.43-5.58q-.85-5.095-3.379-8.532a12.07 12.07 0 0 0-8.735-5.084 15.709 15.709 0 0 0-1.714-.092 14.51 14.51 0 0 0-5.731 1.088q-4.058 1.726-6.574 6.188zm-629.59 24.463V36.328q-4.052-7.471-12.451-7.471a13.759 13.759 0 0 0-4.741.783 11.862 11.862 0 0 0-5.61 4.344q-2.639 3.646-3.401 9.785a43.942 43.942 0 0 0-.31 5.401q0 8.984 3.711 14.062a11.777 11.777 0 0 0 8.469 4.978 15.451 15.451 0 0 0 1.785.101 14.894 14.894 0 0 0 5.577-.997q3.675-1.471 6.044-5.113a18.007 18.007 0 0 0 .927-1.605zm1288.282 0V36.328q-4.053-7.471-12.451-7.471a13.759 13.759 0 0 0-4.741.783 11.862 11.862 0 0 0-5.611 4.344q-2.639 3.646-3.401 9.785a43.942 43.942 0 0 0-.31 5.401q0 8.984 3.711 14.062a11.777 11.777 0 0 0 8.47 4.978 15.451 15.451 0 0 0 1.784.101 14.894 14.894 0 0 0 5.578-.997q3.674-1.471 6.044-5.113a18.007 18.007 0 0 0 .927-1.605zm790.478-.049V36.426q-3.937-7.181-11.611-7.549a17.533 17.533 0 0 0-.84-.02 13.531 13.531 0 0 0-4.838.83q-3.247 1.233-5.465 4.297-2.638 3.646-3.401 9.785a43.942 43.942 0 0 0-.31 5.401 35.317 35.317 0 0 0 .395 5.451q.807 5.159 3.268 8.587a11.654 11.654 0 0 0 8.457 5.002 15.567 15.567 0 0 0 1.796.101 14.663 14.663 0 0 0 5.663-1.047q4.353-1.804 6.886-6.717zM495.166 11.621v27.881h16.846a25.697 25.697 0 0 0 4.356-.346q2.414-.416 4.331-1.332a12.186 12.186 0 0 0 2.836-1.862 11.421 11.421 0 0 0 3.531-6.003q.458-1.867.473-4.083a22.185 22.185 0 0 0 0-.144 16.288 16.288 0 0 0-.599-4.529 12.353 12.353 0 0 0-3.405-5.627q-3.882-3.692-10.563-3.943a25.703 25.703 0 0 0-.423-.012h-17.383zm-50.244 3.858L432.861 48.73h24.17l-12.109-33.251zM95.361 60.205v-10.84h-7.08a42.398 42.398 0 0 0-5.642.342q-6.175.834-8.871 3.705a7.953 7.953 0 0 0-2.088 5.67 10.222 10.222 0 0 0 .382 2.87 7.628 7.628 0 0 0 2.45 3.771 9.928 9.928 0 0 0 4.594 2.147 13.989 13.989 0 0 0 2.681.245q4.248 0 8.057-2.197 3.808-2.197 5.517-5.713zm87.061 0v-10.84h-7.08a42.398 42.398 0 0 0-5.642.342q-6.176.834-8.871 3.705a7.953 7.953 0 0 0-2.089 5.67 10.222 10.222 0 0 0 .382 2.87 7.628 7.628 0 0 0 2.45 3.771 9.928 9.928 0 0 0 4.594 2.147 13.989 13.989 0 0 0 2.682.245q4.248 0 8.056-2.197 3.809-2.197 5.518-5.713zm499.756 0v-10.84h-7.08a42.398 42.398 0 0 0-5.642.342q-6.176.834-8.872 3.705a7.953 7.953 0 0 0-2.088 5.67 10.222 10.222 0 0 0 .382 2.87 7.628 7.628 0 0 0 2.45 3.771 9.928 9.928 0 0 0 4.594 2.147 13.989 13.989 0 0 0 2.682.245q4.248 0 8.056-2.197 3.809-2.197 5.518-5.713zm1257.812 0v-10.84h-7.08a42.398 42.398 0 0 0-5.642.342q-6.175.834-8.871 3.705a7.953 7.953 0 0 0-2.088 5.67 10.222 10.222 0 0 0 .381 2.87 7.628 7.628 0 0 0 2.451 3.771 9.928 9.928 0 0 0 4.594 2.147 13.989 13.989 0 0 0 2.681.245q4.248 0 8.057-2.197 3.808-2.197 5.517-5.713zm535.938 0v-10.84h-7.08a42.398 42.398 0 0 0-5.642.342q-6.176.834-8.872 3.705a7.953 7.953 0 0 0-2.088 5.67 10.222 10.222 0 0 0 .382 2.87 7.628 7.628 0 0 0 2.45 3.771 9.928 9.928 0 0 0 4.594 2.147 13.989 13.989 0 0 0 2.682.245q4.248 0 8.056-2.197 3.809-2.197 5.518-5.713zm284.961 0v-10.84h-7.08a42.398 42.398 0 0 0-5.642.342q-6.176.834-8.872 3.705a7.953 7.953 0 0 0-2.088 5.67 10.222 10.222 0 0 0 .382 2.87 7.628 7.628 0 0 0 2.45 3.771 9.928 9.928 0 0 0 4.594 2.147 13.989 13.989 0 0 0 2.681.245q4.249 0 8.057-2.197 3.809-2.197 5.518-5.713zM264.209 43.75h26.465v-.684q-.289-5.098-2.186-8.497a12.557 12.557 0 0 0-1.525-2.172 10.923 10.923 0 0 0-7.272-3.691 15.439 15.439 0 0 0-1.712-.093q-5.469 0-9.18 3.98-3.262 3.497-4.336 9.466a30.452 30.452 0 0 0-.254 1.691zm697.656 0h26.465v-.684q-.289-5.098-2.185-8.497a12.557 12.557 0 0 0-1.526-2.172 10.923 10.923 0 0 0-7.271-3.691 15.439 15.439 0 0 0-1.713-.093q-5.469 0-9.18 3.98-3.261 3.497-4.335 9.466a30.452 30.452 0 0 0-.255 1.691zm381.885 0h26.465v-.684q-.289-5.098-2.186-8.497a12.557 12.557 0 0 0-1.525-2.172 10.923 10.923 0 0 0-7.272-3.691 15.439 15.439 0 0 0-1.712-.093q-5.469 0-9.18 3.98-3.262 3.497-4.336 9.466a30.452 30.452 0 0 0-.254 1.691zm247.607 0h26.465v-.684q-.289-5.098-2.185-8.497a12.557 12.557 0 0 0-1.526-2.172 10.923 10.923 0 0 0-7.271-3.691 15.439 15.439 0 0 0-1.713-.093q-5.469 0-9.18 3.98-3.261 3.497-4.335 9.466a30.452 30.452 0 0 0-.255 1.691zm247.217 0h26.465v-.684q-.289-5.098-2.185-8.497a12.557 12.557 0 0 0-1.526-2.172 10.923 10.923 0 0 0-7.271-3.691 15.439 15.439 0 0 0-1.713-.093q-5.469 0-9.18 3.98-3.262 3.497-4.335 9.466a30.452 30.452 0 0 0-.255 1.691zm164.307 0h26.465v-.684q-.29-5.098-2.186-8.497a12.557 12.557 0 0 0-1.525-2.172 10.923 10.923 0 0 0-7.272-3.691 15.439 15.439 0 0 0-1.713-.093q-5.468 0-9.179 3.98-3.262 3.497-4.336 9.466a30.452 30.452 0 0 0-.254 1.691zm535.937 0h26.465v-.684q-.289-5.098-2.185-8.497a12.557 12.557 0 0 0-1.526-2.172 10.923 10.923 0 0 0-7.271-3.691 15.439 15.439 0 0 0-1.713-.093q-5.469 0-9.18 3.98-3.261 3.497-4.335 9.466a30.452 30.452 0 0 0-.255 1.691zm363.575 0h26.464v-.684q-.289-5.098-2.185-8.497a12.557 12.557 0 0 0-1.526-2.172 10.923 10.923 0 0 0-7.271-3.691 15.439 15.439 0 0 0-1.713-.093q-5.469 0-9.18 3.98-3.261 3.497-4.335 9.466a30.452 30.452 0 0 0-.254 1.691zM2333.171 6.201a5.95 5.95 0 0 0-.31 1.953 6.719 6.719 0 0 0 .027.604 5.068 5.068 0 0 0 1.316 3.058 4.02 4.02 0 0 0 .833.693q.702.44 1.625.629a7.58 7.58 0 0 0 1.522.143 8.925 8.925 0 0 0 .442-.011q.85-.042 1.556-.249a4.363 4.363 0 0 0 2.005-1.205 4.911 4.911 0 0 0 1.087-1.821 5.809 5.809 0 0 0 .281-1.841 6.815 6.815 0 0 0-.009-.339 5.264 5.264 0 0 0-1.359-3.372 4.15 4.15 0 0 0-.668-.597q-.749-.534-1.759-.757a7.32 7.32 0 0 0-1.576-.159q-2.637 0-3.98 1.513a5.168 5.168 0 0 0-1.033 1.758zm-772.955-.214a5.725 5.725 0 0 0-.402 2.167q0 2.198 1.319 3.662.906 1.007 2.436 1.322a7.545 7.545 0 0 0 1.519.143 8.925 8.925 0 0 0 .442-.011q.85-.042 1.557-.249a4.363 4.363 0 0 0 2.005-1.205 4.911 4.911 0 0 0 1.086-1.821 5.809 5.809 0 0 0 .281-1.841 6.815 6.815 0 0 0-.008-.339 5.264 5.264 0 0 0-1.359-3.372 4.15 4.15 0 0 0-.669-.597q-.749-.534-1.759-.757a7.32 7.32 0 0 0-1.576-.159 8.534 8.534 0 0 0-.144.001q-.846.014-1.555.197a4.31 4.31 0 0 0-2.232 1.34 5.353 5.353 0 0 0-.941 1.519z" vector-effect="non-scaling-stroke" fill="#000" fill-rule="evenodd" stroke="#000" stroke-linecap="round" stroke-width=".25mm"/></svg>