<svg xmlns="http://www.w3.org/2000/svg" role="img" viewBox="-11.75 -11.25 559.00 119.50"><title>deep-smoke-machine logo</title><path d="M536.328 66.212v7.324h-39.746V2.149h39.746v7.325h-31.445v23.095h29.638v7.227h-29.638v26.416h31.445zm-99.219 4.98v-7.959a47.335 47.335 0 0 0 3.242 1.194q2.563.846 5.694 1.614a45.878 45.878 0 0 0 10.317 1.289 50.91 50.91 0 0 0 .718.005 33.384 33.384 0 0 0 3.943-.22q2.878-.343 5.139-1.221a14.422 14.422 0 0 0 2.883-1.487 10.724 10.724 0 0 0 2.757-2.663 10.352 10.352 0 0 0 1.806-4.669 13.561 13.561 0 0 0 .122-1.849 13.757 13.757 0 0 0-.265-2.779q-.389-1.885-1.346-3.349-1.237-1.894-3.728-3.529a22.521 22.521 0 0 0-1.619-.964 44.581 44.581 0 0 0-2.599-1.292q-3.15-1.451-7.581-3.029a61.148 61.148 0 0 1-4.273-1.691 45.651 45.651 0 0 1-3.735-1.849 27.457 27.457 0 0 1-3.367-2.194 21.596 21.596 0 0 1-2.444-2.176 16.255 16.255 0 0 1-3.54-5.664 18.652 18.652 0 0 1-.967-3.919 24.957 24.957 0 0 1-.229-3.454 18.76 18.76 0 0 1 .638-4.997 15.095 15.095 0 0 1 2.267-4.793 17.666 17.666 0 0 1 5.911-5.208 22.089 22.089 0 0 1 2.146-1.042q5.151-2.173 11.841-2.173a53.321 53.321 0 0 1 6.483.379 43.356 43.356 0 0 1 4.088.695 49.357 49.357 0 0 1 6.03 1.726 41.64 41.64 0 0 1 2.881 1.155l-2.588 7.129a56.208 56.208 0 0 0-7.506-2.514 62.11 62.11 0 0 0-.672-.172 36.8 36.8 0 0 0-8.911-1.074q-3.782 0-6.586.912a13.89 13.89 0 0 0-1.154.431 12.328 12.328 0 0 0-2.625 1.5 9.703 9.703 0 0 0-2.184 2.284 9.554 9.554 0 0 0-1.557 4.184 12.396 12.396 0 0 0-.103 1.627 14.706 14.706 0 0 0 .242 2.743q.313 1.647 1.029 2.971a8.751 8.751 0 0 0 .315.536q1.587 2.49 5.079 4.419 2.345 1.295 5.716 2.668a101.677 101.677 0 0 0 3.537 1.36 84.123 84.123 0 0 1 5.061 2.022q3.126 1.374 5.632 2.836a21.627 21.627 0 0 1 3.764 2.747 16.874 16.874 0 0 1 2.925 3.503 14.377 14.377 0 0 1 1.757 4.328q.437 1.852.519 4.01a26.665 26.665 0 0 1 .019 1.013 21.302 21.302 0 0 1-.645 5.361 16.619 16.619 0 0 1-2.504 5.454 18.859 18.859 0 0 1-6.456 5.685 23.793 23.793 0 0 1-2.358 1.127 29.64 29.64 0 0 1-6.53 1.82q-2.978.491-6.349.522a49.575 49.575 0 0 1-.451.002 75.168 75.168 0 0 1-5.365-.185 63.82 63.82 0 0 1-2.301-.206 57.701 57.701 0 0 1-3.879-.548 45.752 45.752 0 0 1-2.761-.575 33.03 33.03 0 0 1-2.824-.811 24.207 24.207 0 0 1-2.499-.996zM352.1 2.149h19.287q8.789 0 14.526 2.173a19.807 19.807 0 0 1 4.464 2.336 15.296 15.296 0 0 1 4.105 4.28 17.088 17.088 0 0 1 2.168 5.232q.664 2.762.664 6.097a26.02 26.02 0 0 1-.288 3.983q-.481 3.1-1.762 5.465a17.936 17.936 0 0 1-4.171 5.198 17.118 17.118 0 0 1-1.2.93 27.458 27.458 0 0 1-7.08 3.613l19.58 32.08h-9.668l-17.481-29.785H360.4v29.785h-8.3V2.149zM227.588 43.263v5.029h-36.963a31.991 31.991 0 0 0 .521 5.451q1.045 5.514 4.167 8.904a14.792 14.792 0 0 0 7.777 4.401 22.359 22.359 0 0 0 5.015.531 47.71 47.71 0 0 0 4.22-.178q2.568-.228 4.765-.75a46.047 46.047 0 0 0 4.997-1.503 56.04 56.04 0 0 0 3.108-1.231v7.129a40.904 40.904 0 0 1-6.038 2.16 36.059 36.059 0 0 1-1.994.477q-3.42.713-7.903.813a66.892 66.892 0 0 1-1.496.017 31.944 31.944 0 0 1-6.798-.692 24.615 24.615 0 0 1-6.654-2.458q-5.738-3.149-8.912-9.253a26.772 26.772 0 0 1-2.429-7.021q-.628-3.071-.726-6.598a47.526 47.526 0 0 1-.018-1.322 43.318 43.318 0 0 1 .556-7.118q.681-4.09 2.198-7.513a26.978 26.978 0 0 1 .151-.335 24.246 24.246 0 0 1 3.893-6.047 20.949 20.949 0 0 1 4.31-3.694 21.344 21.344 0 0 1 8.978-3.201 27.439 27.439 0 0 1 3.498-.217 25.903 25.903 0 0 1 5.607.579 19.5 19.5 0 0 1 6.111 2.448q4.883 3.028 7.471 8.472a26.13 26.13 0 0 1 2.153 7.06 35.241 35.241 0 0 1 .435 5.66zM0 2.149h18.652a56.146 56.146 0 0 1 7.184.427q8.427 1.091 13.007 4.969a17.487 17.487 0 0 1 5.868 10.165 26.339 26.339 0 0 1 .504 5.289q0 4.541-1.489 8.618a18.333 18.333 0 0 1-4.81 7.178 19.88 19.88 0 0 1-4.113 2.922q-1.944 1.055-4.288 1.855a33.532 33.532 0 0 1-.315.106 32.147 32.147 0 0 1-4.982 1.186q-3.709.596-8.226.596H8.301v28.076H0V2.149zm277.441 19.727L275 28.663a35.586 35.586 0 0 0-2.587-.914q-1.429-.447-3.053-.844-3.198-.781-5.981-.781a21.391 21.391 0 0 0-4.062.365q-2.484.481-4.472 1.594a12.886 12.886 0 0 0-.719.434 13.681 13.681 0 0 0-4.557 4.98 17.745 17.745 0 0 0-.961 2.051q-1.509 3.823-1.774 9.106a46.271 46.271 0 0 0-.057 2.32q0 5.53 1.293 9.679a21.743 21.743 0 0 0 .49 1.405 16.716 16.716 0 0 0 2.057 3.825 13.327 13.327 0 0 0 3.265 3.181q3.495 2.386 8.726 2.417a23.282 23.282 0 0 0 .136 0 34.552 34.552 0 0 0 4.041-.225 26.169 26.169 0 0 0 3.625-.678 46.907 46.907 0 0 0 3.645-1.117 37.367 37.367 0 0 0 2.556-1.007v7.227a23.848 23.848 0 0 1-3.981 1.579 28.488 28.488 0 0 1-2 .52q-2.8.622-6.499.716a52.904 52.904 0 0 1-1.338.017 29.814 29.814 0 0 1-6.799-.745 23.902 23.902 0 0 1-5.945-2.234 20.001 20.001 0 0 1-7.787-7.605 24.907 24.907 0 0 1-.807-1.477q-2.55-5.06-2.986-12.303a51.259 51.259 0 0 1-.09-3.078 47.764 47.764 0 0 1 .419-6.527q.467-3.381 1.455-6.194a23.623 23.623 0 0 1 1.373-3.172 22.448 22.448 0 0 1 4.433-5.937 20.066 20.066 0 0 1 4.527-3.219q5.713-2.978 12.988-2.978a36.609 36.609 0 0 1 7.739.806 35.249 35.249 0 0 1 2.613.662q2.02.601 3.515 1.364zM314.063 66.7v6.299q-1.352.606-3.704 1.034a33.204 33.204 0 0 1-.227.04 28.825 28.825 0 0 1-4.307.433 26.309 26.309 0 0 1-.6.007 20.981 20.981 0 0 1-4.651-.498 17.616 17.616 0 0 1-3.064-.992q-3.467-1.489-5.542-5.053a13.3 13.3 0 0 1-1.305-3.202q-.432-1.583-.622-3.484a32.047 32.047 0 0 1-.148-3.178V26.368h-7.618v-3.955l7.666-3.174 3.223-11.621h4.883V20.02h15.674v6.348h-15.674v31.494q0 3.206.942 5.38a7.457 7.457 0 0 0 1.377 2.14 7.696 7.696 0 0 0 4.84 2.41 10.777 10.777 0 0 0 1.337.08 25.36 25.36 0 0 0 3.839-.3 27.949 27.949 0 0 0 .263-.042q1.475-.24 2.564-.552a11.938 11.938 0 0 0 .854-.278zM145.947 96.339v-6.592a22.327 22.327 0 0 0 3.076.757q1.557.267 3.501.268a29.07 29.07 0 0 0 .015 0 9.677 9.677 0 0 0 2.356-.272 6.923 6.923 0 0 0 3.015-1.583q1.876-1.697 2.036-5.926a21.461 21.461 0 0 0 .015-.812V20.02h8.105v61.963q0 4.883-1.562 8.374a11.348 11.348 0 0 1-4.785 5.347 12.916 12.916 0 0 1-3.408 1.332q-1.578.384-3.425.487a24.817 24.817 0 0 1-1.37.036 28.636 28.636 0 0 1-2.023-.067q-1.265-.09-2.323-.299-1.595-.314-2.829-.719a16.039 16.039 0 0 1-.394-.135zm-56.201-76.66l-1.025 7.519q-1.319-.342-2.93-.537a27.288 27.288 0 0 0-1.915-.167 22.224 22.224 0 0 0-1.112-.028 14.561 14.561 0 0 0-6.079 1.294q-2.857 1.294-5.005 3.711-2.149 2.417-3.369 5.81a20.601 20.601 0 0 0-1.077 4.78 25.769 25.769 0 0 0-.144 2.764v28.711h-8.154V20.02h6.738l.879 9.864h.342a26.833 26.833 0 0 1 4.003-5.445 18.127 18.127 0 0 1 5.445-3.93 15.397 15.397 0 0 1 5.277-1.395 18.68 18.68 0 0 1 1.632-.07 33.676 33.676 0 0 1 2.499.096 38.653 38.653 0 0 1 .87.075q1.758.171 3.125.464zm56.201 27.002q0 6.591-1.709 11.767a26.362 26.362 0 0 1-2.401 5.313 21.849 21.849 0 0 1-2.53 3.427q-3.223 3.565-7.788 5.445a24.667 24.667 0 0 1-6.175 1.615 31.567 31.567 0 0 1-4.153.265 26.711 26.711 0 0 1-6.361-.735 23.087 23.087 0 0 1-3.477-1.145 21.691 21.691 0 0 1-7.715-5.445 23.365 23.365 0 0 1-3.842-5.809 28.925 28.925 0 0 1-1.188-2.931 31.912 31.912 0 0 1-1.441-6.271 42.472 42.472 0 0 1-.341-5.496q0-7.811 2.352-13.559a25.318 25.318 0 0 1 .627-1.407q2.978-6.177 8.52-9.424a23.222 23.222 0 0 1 7.757-2.791 31.212 31.212 0 0 1 5.451-.456q7.324 0 12.818 3.271a21.745 21.745 0 0 1 7.951 8.316 26.498 26.498 0 0 1 .594 1.133q2.869 5.808 3.04 13.884a48.772 48.772 0 0 1 .011 1.033zm276.172 26.855h-8.301V2.149h8.301v71.387zM105.225 46.681a40.941 40.941 0 0 0 .321 5.268q.354 2.726 1.098 5.061a23.827 23.827 0 0 0 .29.852 17.163 17.163 0 0 0 2.05 4.027 13.815 13.815 0 0 0 3.223 3.297 12.996 12.996 0 0 0 4.659 2.093q1.806.433 3.913.488a23.652 23.652 0 0 0 .608.007 19.645 19.645 0 0 0 4.009-.387q2.577-.537 4.584-1.819a12.072 12.072 0 0 0 .562-.382 14.242 14.242 0 0 0 4.326-5.09 18.412 18.412 0 0 0 .972-2.234 27.309 27.309 0 0 0 1.268-5.076q.441-2.832.441-6.105a40.354 40.354 0 0 0-.304-5.089q-.339-2.661-1.055-4.94a23.205 23.205 0 0 0-.35-1.031 16.72 16.72 0 0 0-2.091-4.019 13.634 13.634 0 0 0-3.183-3.183 13.031 13.031 0 0 0-4.489-2.009q-1.747-.431-3.784-.512a24.1 24.1 0 0 0-.955-.018 19.864 19.864 0 0 0-4.781.538 12.427 12.427 0 0 0-7.451 4.979 19.185 19.185 0 0 0-2.653 5.641q-1.228 4.149-1.228 9.643zM17.871 9.229h-9.57v29.102h7.763a52.78 52.78 0 0 0 4.785-.204q2.332-.213 4.32-.648a25.036 25.036 0 0 0 2.297-.613q4.565-1.465 6.86-4.761 2.295-3.296 2.295-8.764a17.692 17.692 0 0 0-.466-4.194 11.167 11.167 0 0 0-4.075-6.426 14.044 14.044 0 0 0-4.026-2.094q-3.803-1.307-9.403-1.392a51.833 51.833 0 0 0-.78-.006zm353.027.098H360.4V36.72h11.329q8.74 0 12.866-3.565a11.426 11.426 0 0 0 3.593-5.949q.491-1.896.529-4.162a22.832 22.832 0 0 0 .004-.387 18.989 18.989 0 0 0-.346-3.756q-.438-2.168-1.432-3.796a9.034 9.034 0 0 0-2.592-2.751q-4.09-2.833-12.306-3.014a51.822 51.822 0 0 0-1.147-.013zM190.771 41.798h28.321q-.049-4.785-1.489-8.423a13.09 13.09 0 0 0-2.013-3.486 11.395 11.395 0 0 0-2.358-2.178q-2.72-1.882-6.872-2.016a20.005 20.005 0 0 0-.647-.011 16.032 16.032 0 0 0-4.65.642 12.413 12.413 0 0 0-5.702 3.607q-3.39 3.733-4.366 10.069a31.738 31.738 0 0 0-.224 1.796zm-31.42-37.971a8.506 8.506 0 0 0-.122 1.496 9.21 9.21 0 0 0 .033.801q.071.814.293 1.48a4.116 4.116 0 0 0 1.065 1.723 4.646 4.646 0 0 0 1.741 1.05 5.493 5.493 0 0 0 1.75.268q2.002 0 3.443-1.318 1.44-1.318 1.44-4.004a9.104 9.104 0 0 0-.04-.87q-.2-2.08-1.4-3.158a4.976 4.976 0 0 0-3.443-1.294 6.362 6.362 0 0 0-.576.025 4.791 4.791 0 0 0-2.915 1.269q-.978.91-1.269 2.532z" vector-effect="non-scaling-stroke" fill="#000" fill-rule="evenodd" stroke="#000" stroke-linecap="round" stroke-width=".25mm"/></svg>