<svg xmlns="http://www.w3.org/2000/svg" role="img" viewBox="-0.12 -4.87 222.74 253.24"><title>DeepTreeAttention logo</title><g transform="translate(7.11 .01)"><path fill="#ccc" d="M25.25 199.29427c-1.2375-.23836-2.25-.85207-2.25-1.36382S22.425 197 21.72224 197c-1.44811 0-3.9276-2.63486-5.21735-5.54428-.47684-1.07565-1.44609-10.28072-2.1539-20.45572-1.1856-17.04358-3.16981-38.19029-5.2076-55.5-.45325-3.85-1.36803-12.175-2.03284-18.5-.66481-6.325-1.61352-13.33246-2.10824-15.57213-.49472-2.23967-1.21392-9.43967-1.59822-16-.3843-6.56033-1.0623-12.16698-1.50665-12.45922C1.4531 52.67641.77701 42.95991.39503 31.37643-.24024 12.112-.14534 10.05463 1.50757 7.25647 5.65785.23061 19.04654-2.4665 24.53289 2.61807c3.4225 3.17186 5.37499 11.78851 5.43036 23.96515.02022 4.44577.49838 10.52077 1.0626 13.5C31.59006 43.06245 32.48888 50.675 33.0232 57c1.72295 20.39481 3.56578 37.46115 4.21124 39 .34604.825.94695 6 1.33536 11.5.38841 5.5.81447 9.55.9468 9 .13232-.55.72525-2.8 1.31761-5 .59237-2.2 1.32212-5.575 1.62166-7.5.56104-3.60546 4.40343-9 6.41047-9C49.48985 95 50 94.57757 50 94.06127s1.97699-1.2352 4.39331-1.59754C60.17797 91.59627 69 95.50085 69 98.92857c0 .58929.36567 1.07143.81261 1.07143C70.7782 100 75 109.36717 75 111.50954c0 .81975.3375 1.49431.75 1.49901.4125.005 1.5926 2.8172 2.62244 6.25 3.9772 13.25727 4.29699 14.04528 4.97886 12.26835.35679-.92976.6487-3.45367.6487-5.60869 0-2.15501.3791-3.91821.84245-3.91821.46334 0 1.36524-4.8375 2.00421-10.75.63898-5.9125 1.82261-16.6 2.6303-23.75.80769-7.15 1.92728-17.95 2.48798-24 .5607-6.05 1.2782-11.9 1.59442-13 .31623-1.1.99354-5.15 1.50514-9 1.52475-11.47428 3.38543-21.29377 4.1855-22.08842.4125-.4097.76497-1.45741.78327-2.32825C100.07379 15.15491 103.40479 11 104.91029 11c.59934 0 1.08971-.37877 1.08971-.84171 0-.46294 1.73971-1.36294 3.86602-2 5.08656-1.52397 66.03797-1.61479 69.35525-.10334 5.66468 2.581 8.53708 12.19003 5.79773 19.39508C183.42116 31.65266 178.30934 36 174.96552 36 173.33448 36 172 36.45 172 37c0 .63817-8.46404 1-23.39213 1h-23.39213l-.72705 10.25c-.39988 5.6375-1.05518 10.475-1.45622 10.75-.40104.275-1.01035 4.8875-1.35402 10.25l-.62487 9.75h24.06884c22.73009 0 24.23039.11503 26.97321 2.0681 1.5974 1.13745 2.90437 2.71245 2.90437 3.5 0 .78754.45 1.4319 1 1.4319 1.57771 0 1.16486 10.36226-.5498 13.79937-.85239 1.70866-2.91192 4.2528-4.57673 5.65364L167.84655 108h-50.68736l-.64825 6.75c-.35654 3.7125-1.04537 7.875-1.53074 9.25-.48538 1.375-1.18414 5.65-1.5528 9.5-.36867 3.85-1.00578 7.45-1.4158 8-.41002.55-1.05107 3.40176-1.42456 6.33725-.37349 2.93549-1.05544 6.08549-1.51544 7-.46.91451-1.35993 3.68775-1.99985 6.16275-.63992 2.475-1.54546 5.9625-2.01231 7.75l-.84882 3.25h29.66029c26.98814 0 29.97221.16728 33.12252 1.85681 7.07329 3.79345 8.83604 11.5966 4.47327 19.80184-1.39331 2.62046-3.08081 5.11238-3.75 5.5376-.66918.42522-22.60419.78002-48.74446.78844-44.04062.01419-47.63723-.11309-49.01977-1.73469C67.94003 195.88959 64 185.40552 64 182.41102 64 181.08496 63.58238 180 63.07196 180c-.51043 0-1.24095-2.5875-1.6234-5.75-.38244-3.1625-1.05-6.2-1.48347-6.75-.43346-.55-.94968-2.35-1.14715-4-.34248-2.86168-.4837-2.73611-3.06275 2.72337-1.48705 3.14786-2.98908 6.86036-3.33786 8.25-.34878 1.38965-.9996 2.52663-1.44628 2.52663-.44668 0-1.10865 1.35-1.47105 3-.3624 1.65-1.0374 3-1.5 3-.4626 0-1.1376 1.35-1.5 3-.3624 1.65-1.07316 3-1.57946 3-.5063 0-.92054.81457-.92054 1.81016s-1.34801 3.18894-2.99558 4.87412c-3.77816 3.86439-8.64437 4.97944-15.75442 3.60999z"/><path fill="#afafaf" d="M71.4769 199.23469C69.8698 198.08063 67 193.21833 67 191.64949c0-.78148-.67223-2.70981-1.49384-4.28518-.82161-1.57537-1.49661-4.07525-1.5-5.55529-.0034-1.48004-.42467-2.94964-.93617-3.26577-.51151-.31612-1.2391-3.04863-1.61688-6.07223-.37777-3.0236-1.08426-5.74306-1.56998-6.04325-.48572-.30019-.89744-1.98175-.91493-3.73679-.03061-3.07069-.0895-3.11559-1.5621-1.19098-.84166 1.1-1.7836 3.2375-2.0932 4.75-.3096 1.5125-.95665 2.75-1.4379 2.75-.48125 0-.875.71807-.875 1.59571s-.61696 2.79014-1.37103 4.25-3.33553 6.63696-5.73659 11.50466C40.70651 196.86379 38.19932 199 31.04597 199c-7.58812 0-12.88878-3.3019-14.44802-9-.37626-1.375-1.34864-11.5-2.16086-22.5-1.39675-18.91654-2.23913-27.49208-5.84472-59.5-.8364-7.425-1.97034-17.775-2.51987-23-.54953-5.225-1.2805-11.06629-1.6244-12.98064-.3439-1.91435-1.03754-8.21435-1.54143-14C2.40277 52.23371 1.57462 43.45 1.06632 38.5c-1.5805-15.39149-1.32165-27.6856.64276-30.5275C4.07703 4.5468 4.97885 3.7694 9.10052 1.6007c4.96081-2.61024 12.15607-1.79865 15.72886 1.77415C27.7981 6.34356 28.2489 9.07177 29.9723 34.5c.59642 8.8 1.52165 17.88677 2.05605 20.19282.5344 2.30605.97165 6.2214.97165 8.70078s.45199 6.6676 1.00442 9.30718C34.55685 75.34035 35.4302 82.225 35.9452 88c.51499 5.775 1.4837 15.19834 2.1527 20.94075l1.21634 10.44075 1.3277-4.44075c.73023-2.44241 1.33453-5.91219 1.34288-7.71062.02165-4.6625 4.38613-11.06935 8.7958-12.91183 4.56558-1.90762 11.48456-1.25494 15.08362 1.42286C68.674 97.8317 75 109.24003 75 112.21662c0 .98086.41045 1.78338.9121 1.78338.50166 0 1.21581 1.79764 1.58702 3.99476.3712 2.19712 1.08575 4.24868 1.5879 4.55902.50214.31034.91549 1.3252.91856 2.25524.009 2.72531 2.08667 9.43206 2.7244 8.79434 1.1497-1.14971 4.71868-23.52704 6.2366-39.10336.53599-5.5 1.25228-11.35 1.59176-13 .33949-1.65 1.00213-6.825 1.47253-11.5 2.30053-22.86327 5.60002-44.99748 7.5973-50.96554 1.74208-5.20547 6.3947-9.76583 10.7856-10.57172 1.69742-.31154 17.96893-.4306 36.15889-.26459 35.63891.32527 33.75201.0364 37.71826 5.77436 3.63692 5.2615 1.26837 14.97364-4.77604 19.58394-3.19382 2.43605-3.2786 2.4436-27.60927 2.45886-13.42309.0084-24.8766.34592-25.45226.75-1.08663.76275-3.03646 13.18286-4.51105 28.73469-.46934 4.95-1.10694 10.0125-1.41688 11.25L119.9619 79l23.26905.0016c25.81648.0017 28.45141.53864 31.89132 6.49845 2.96399 5.13525 1.72978 13.8236-2.56278 18.04092C168.09827 107.92395 167.57528 108 141.89413 108h-24.66087l-.60297 2.25c-.33164 1.2375-.60913 4.36094-.61664 6.94098-.008 2.58004-.39722 4.92805-.86604 5.21779-.46881.28974-1.13112 3.51177-1.47181 7.16006-.34068 3.64829-1.04473 8.05029-1.56454 9.78221-.51982 1.73193-1.85553 6.97396-2.96826 11.64896-1.11272 4.675-2.67084 10.75-3.46247 13.5-.79164 2.75-1.60611 5.675-1.80994 6.5-.32243 1.30508 3.69354 1.53434 30.9041 1.76428l31.27468.26428 2.82695 2.51882c6.05525 5.39526 5.96124 15.38824-.20324 21.60275L165.84615 200l-46.67307-.0153c-25.6702-.008-47.13347-.34592-47.69618-.75z"/><path fill="#8d8d8d" d="M70.86186 198.25c-2.38148-2.87793-3.4973-5.79995-7.94377-20.80247-.49758-1.67887-1.33487-5.05387-1.86065-7.5-.52578-2.44614-1.32307-5.96548-1.77177-7.82076-.81238-3.35905-.82077-3.36325-1.99614-1C54.8315 166.06903 52 172.93072 52 173.94514 52 174.52531 51.55 175 51 175s-1 .65973-1 1.46607c0 1.41433-2.9777 8.51163-4 9.53393-.275.275-1.56662 2.54784-2.87027 5.05075-1.30365 2.50292-3.70262 5.31542-5.33104 6.25-3.75008 2.15226-10.78856 2.18596-14.47658.0693-5.42816-3.11533-6.70599-5.9967-7.47347-16.85187-2.00987-28.42718-2.74942-37.27984-3.30302-39.53819C12.21124 139.616 11.5335 134 11.0395 128.5c-.494-5.5-1.62527-16.075-2.51394-23.5-2.82573-23.60954-4.53984-39.19695-5.4984-50-.51241-5.775-1.39946-14.55-1.9712-19.5C.4842 30.55.01271 23.11696.0082 18.98213c-.00699-6.4062.3665-8.0693 2.52584-11.24704C7.13932.95781 16.67578-1.9902 22.0275 1.70908 27.83283 5.7219 27.2354 3.10954 29.86965 36c.59468 7.425 1.51926 16.425 2.05462 20 .53536 3.575 1.4993 11.675 2.14208 18 1.5463 15.21543 2.46058 23.34729 4.04759 36 1.31453 10.48036 1.31925 10.49252 2.52468 6.5.66422-2.2 1.24226-5.61836 1.28453-7.59636.08686-4.06469 2.43865-9.48707 5.32667-12.28134 4.44964-4.30521 15.35858-4.0139 19.90398.5315C69.19996 99.19996 75 110.04856 75 111.82961c0 .51797.67223 2.23071 1.49384 3.80608.82161 1.57537 1.49661 3.80181 1.5 4.94764.0034 1.14584.34366 2.41797.75616 2.82697.4125.409 1.2 2.76104 1.75 5.22675 1.22044 5.47139 2.7341 5.73381 3.78543.65629 1.319-6.37026 3.678-22.29326 4.7102-31.79334.53783-4.95 1.21057-10.125 1.49497-11.5.28441-1.375.97814-7.45 1.54163-13.5s1.64202-15.725 2.39673-21.5c3.40009-26.0173 5.29654-34.25487 8.73613-37.94682C107.63435 8.25598 109.73153 8 144.56359 8c36.2982 0 36.66471.0615 39.8217 6.68177 2.7847 5.83958 1.59803 11.93986-3.38529 17.40268C177.68999 35.71295 175.45655 36 150.53436 36c-18.82759 0-24.67781.2932-24.94109 1.25-1.29612 4.71025-4.60317 30.62095-4.94577 38.75l-.1475 3.5 25.02563.5c23.31618.46585 25.16361.63662 27.04554 2.5C174.96188 84.86715 177 89.28914 177 92.10898c0 1.10818-1.11628 4.3745-2.48063 7.2585C170.57328 107.70883 169.44515 108 141.07306 108 114.93751 108 116 107.74289 116 114.06744c0 1.59712-.43001 4.82282-.95558 7.16821S113.57404 128.425 112.94484 132c-2.75729 15.66652-5.03125 25.84991-6.16209 27.59538-.39032.60246-1.01022 2.97494-1.37756 5.27217-.36734 2.29722-1.05879 4.41836-1.53654 4.71363-.47776.29527-.86865 1.1853-.86865 1.97784C103 172.78299 107.71676 173 134.31989 173h31.31989l3.43011 3.06293c3.27991 2.92881 3.42775 3.35843 3.3762 9.81116-.0497 6.22307-.31514 7.0353-3.41068 10.43707L165.67864 200h-46.68433c-43.24294 0-46.79109-.129-48.13245-1.75z"/><path fill="#6d6d6d" d="M71.35641 198.61809c-1.94261-2.21824-3.99992-6.85541-5.8199-13.11809-.95902-3.3-2.17806-7.35-2.709-9-.53093-1.65-1.40695-5.25-1.94672-8-2.25166-11.47179-1.9909-10.79026-3.36693-8.79999-.68445.99-1.5838 2.92499-1.99854 4.29999-2.39437 7.93801-13.57945 29.90529-16.32752 32.06692-5.16698 4.06434-13.9241 3.26787-19.3147-1.75671-2.28079-2.12591-2.71139-3.52645-3.26803-10.62937-1.67762-21.4071-5.39137-59.2356-6.69354-68.18084-.56045-3.85-1.47617-11.275-2.03493-16.5-.55876-5.225-1.64116-15.35-2.40532-22.5-.76417-7.15-1.8528-18.175-2.4192-24.5-.5664-6.325-1.48482-15.93518-2.04095-21.35596C-.62565 14.6896-.40143 11.85424 2.85223 7.3627c2.16465-2.98821 4.1969-4.39445 8.43019-5.8334 5.3582-1.8213 5.73153-1.82675 9.47616-.13815C25.84991 3.687 28 7.46117 28 14.10239c0 2.9116.45757 8.91717 1.01682 13.34571S30.49847 41.125 31.0666 48c1.62489 19.66313 2.5683 29.12925 3.7494 37.6213.60269 4.33328 1.59857 12.1537 2.21306 17.3787 1.71386 14.57274 2.15662 17.00328 3.00216 16.48071.42978-.26562 1.06513-2.84494 1.4119-5.73183 1.14975-9.57195 2.65658-13.62924 6.22554-16.76282C50.62037 94.39442 51.8474 94 56.95807 94c4.77275 0 6.43428.45926 8.76906 2.42385 3.15185 2.6521 8.029 11.95042 10.7926 20.57615.96918 3.025 2.11123 6.22136 2.5379 7.10303.42666.88166 1.09016 3.69969 1.47445 6.26229.82653 5.51175 2.17567 6.8296 2.99503 2.92558.32216-1.535.98185-4.5909 1.46599-6.7909.48413-2.2 1.5591-8.725 2.38883-14.5 2.27752-15.85186 3.46054-26.00789 6.63964-57 .53597-5.225 1.39586-11.525 1.91086-14 .515-2.475 1.20421-6.525 1.53158-9 1.45376-10.99097 2.99713-15.43257 6.62974-19.07954 1.97657-1.98439 5.0703-3.90327 6.875-4.26421C112.77344 8.29531 128.41182 8 145.72071 8c35.51796 0 35.51383-.00079 38.55037 7.34089 2.22421 5.37762 2.19807 5.79849-.74346 11.97104C179.4532 35.86172 178.92 36 150.024 36h-24.81393l-.48275 3.75c-.26552 2.0625-.99253 7.8-1.61559 12.75-.62305 4.95-1.57808 11.50209-2.12228 14.5602-.5442 3.0581-.98945 7.19896-.98945 9.2019v3.6417l25.27536.2981c24.1948.28536 25.37303.38917 27.55988 2.42821 1.6357 1.52515 2.44453 3.6805 2.84793 7.58906.71836 6.96022-1.53005 12.0278-6.81747 15.36561C165.09084 107.96774 164.71413 108 140.65977 108h-24.37996l-.73533 5.75c-2.32817 18.2057-3.80511 26.53289-6.13939 34.61483-.7728 2.67566-1.40509 5.91161-1.40509 7.19099 0 1.27938-.39808 2.57217-.88461 2.87287-.48654.30069-1.18754 2.56676-1.55778 5.0357-.37024 2.46895-1.09717 4.75104-1.61539 5.07132-.51822.32028-.94222 1.45577-.94222 2.52331 0 1.87897.97646 1.94098 30.56574 1.94098 20.86156 0 31.25921.36054 32.75 1.13561 3.67443 1.91036 5.4248 4.35295 6.0539 8.44807.81764 5.32243-.31167 9.41308-3.79947 13.76261L165.64034 200l-46.57017-.038c-37.03036-.0302-46.80443-.30553-47.71375-1.34387z"/><path fill="#4d4d4d" d="M71.01908 197.75c-2.7258-4.19494-3.82873-6.60665-4.54243-9.93264-.39151-1.82455-.99472-3.76736-1.34045-4.31736-.64964-1.03344-2.5318-8.63537-4.08526-16.5-.48887-2.475-1.33253-5.625-1.8748-7-.97742-2.47843-1.00007-2.46549-2.62586 1.5-2.6294 6.41347-3.0753 7.38946-9.13703 20-7.46327 15.52622-7.96567 16-16.9667 16-6.6205 0-7.3118-.21141-10.22826-3.12786-3.45327-3.45327-3.00588-.23593-6.23975-44.87214-.518-7.15-1.4001-14.88677-1.96019-17.19282-.5601-2.30605-1.01835-6.3859-1.01835-9.06634s-.44765-7.31867-.99478-10.30718C9.4581 109.94515 8.55327 103 7.99451 97.5c-.55877-5.5-1.6843-15.85-2.50118-23C4.219 63.34622 2.48968 45.24146.31193 20.25475c-.84874-9.73807 2.4181-15.35232 10.79474-18.55138 4.29384-1.63984 4.8016-1.6416 9.14491-.03186C26.23545 3.8893 27.23911 6.09396 28.14028 19c.95092 13.61885 3.48979 40.16917 5.35498 56 .81002 6.875 1.90593 16.775 2.43536 22 1.44767 14.28709 3.35634 25.24335 4.1447 23.79165.3858-.71041 1.01997-3.76665 1.40929-6.79165 1.85882-14.44332 5.98743-20 14.85998-20 10.7187 0 15.14241 6.30552 23.05676 32.86483C80.2806 129.81549 81 133.11549 81 134.19817c0 1.08267.5185 1.79566 1.15222 1.58442 1.41291-.47097 3.74352-8.97772 3.80365-13.88337.02427-1.98042.48833-4.90542 1.03124-6.5C87.53002 113.80465 88.44887 108 89.029 102.5s1.67521-15.4 2.43355-22c.75833-6.6 1.86955-16.95 2.46938-23 .59983-6.05 1.50944-12.8 2.02135-15 .51192-2.2 1.19347-6.25 1.51456-9 1.64837-14.11754 4.14169-20.03627 9.74512-23.13333 2.94711-1.62888 6.64292-1.85181 35.73638-2.15564 37.91986-.396 38.48833-.28818 41.37834 7.84886 1.49839 4.2188 1.50968 5.053.12244 9.0438-1.87899 5.40544-3.08034 6.90935-7.30622 9.14631-2.88661 1.52801-6.38965 1.75-27.61552 1.75h-24.30956l-.60937 3.75c-.33515 2.0625-1.07593 7.8-1.64618 12.75-.57024 4.95-1.47026 10.91896-2.00003 13.26435-.52978 2.3454-.96323 6.5079-.96323 9.25V80H168.96845l3.26577 2.91821c3.06416 2.73805 3.26142 3.31369 3.19524 9.32398-.0842 7.64972-1.91848 10.73204-8.16856 13.72669C163.37378 107.83135 161.08299 108 139.67204 108h-23.34976l-1.24319 8.75c-.68376 4.8125-1.68718 10.82926-2.22984 13.37058-.54265 2.54132-1.37492 7.04132-1.84948 10-1.15309 7.18894-2.92102 14.9231-3.97273 17.37942-.76149 1.7785-2.09439 6.52999-3.71693 13.25l-.54326 2.25h29.79557c31.68278 0 34.5312.35691 37.83044 4.74019 2.53891 3.37314 2.58044 12.12541.0757 15.94817-4.32896 6.60683-1.30631 6.24173-51.97799 6.27837L72.48109 200z"/><path fill="#2d2d2d" d="M71.78259 198.25c-1.7169-1.96713-4.29708-7.47938-5.26593-11.25-.3533-1.375-1.03784-3.4-1.5212-4.5-.90633-2.06259-2.23365-7.59963-4.30448-17.95649-.65504-3.27607-1.62464-5.92423-2.15467-5.88479-1.0088.0751-1.34535.62909-3.85215 6.34128C50.7742 173.90959 50 175.8766 50 176.90113 50 177.50551 49.55 178 49 178s-1 .51692-1 1.1487c0 1.90305-6.35483 14.08349-8.5 16.29213-1.65348 1.7024-3.24533 2.05917-9.1876 2.05917-6.85116 0-7.32379-.15254-10.09697-3.2587-2.8264-3.16577-2.94271-3.72186-4.07879-19.5-2.47563-34.3823-3.09-41.40096-4.04768-46.2413-.5441-2.75-1.49751-9.95-2.1187-16-.62118-6.05-1.5593-14.6-2.08472-19-2.5373-21.24833-4.0988-36.53664-5.41322-53C1.68192 30.6.74477 20.99356.38977 19.15235c-2.07012-10.737 8.67801-20.09609 19.6773-17.1343C25.60674 3.50975 28 8.4026 28 18.2364c0 4.02384.43657 10.90426.97017 15.28983C29.50376 37.91181 30.441 46.675 31.05292 53c.61193 6.325 1.73057 17.125 2.48586 24 .7553 6.875 2.0407 18.575 2.85645 26 2.33775 21.27823 3.63844 24.10296 5.41048 11.75 1.78611-12.451 3.1311-15.58839 8.1668-19.05024 3.13727-2.15676 10.3685-2.2021 13.94831-.08746 2.89549 1.7104 7.63195 8.7576 8.6725 12.90347C72.93623 109.8821 73.61802 111 74.1084 111c.49037 0 .89159.94449.89159 2.09887 0 1.15438.612 3.51688 1.36 5.25 2.00616 4.64834 4.64 14.0081 4.64 16.48902C81 136.02705 81.46114 137 82.02475 137c1.43236 0 2.7922-3.98653 3.48298-10.21085.32285-2.90903 1.02428-6.86415 1.55873-8.78915.53444-1.925 1.44867-8 2.03162-13.5 2.85463-26.93298 3.87778-36.0195 5.40487-48 2.41612-18.9553 3.26484-24.5261 4.41817-29 .56714-2.2 1.0419-5.4625 1.05502-7.25C99.98927 18.4625 100.45 17 101 17s1-.575 1-1.27776c0-2.10371 3.57377-4.51818 9.12973-6.16813 4.21733-1.2524 10.8764-1.54985 34.30177-1.53215 37.81665.02857 39.24541.54998 38.8913 14.19291-.13584 5.23375-2.43419 8.95838-7.38623 11.9699C174.26793 35.80767 171.35831 36 149.47583 36 125.61169 36 125 36.05032 125 38.01357c0 1.10746-.42856 2.79496-.95235 3.75-.52379.95504-1.45056 6.68643-2.05948 12.73643-.60892 6.05-1.45855 13.925-1.88806 17.5-.4295 3.575-.60118 6.8375-.3815 7.25.21968.4125 10.97745.75 23.90615.75 15.59358 0 24.24202.38228 25.69098 1.1356C173.97841 83.55977 175 85.59949 175 92.48485c0 5.9732-.28643 6.88322-3.16068 10.04181-1.73837 1.91034-3.96181 3.47335-4.94098 3.47335-.97917 0-2.05842.45-2.39834 1-.38412.62153-9.66195 1-24.5137 1h-23.89567l-.58154 3.25c-.31984 1.7875-1.00783 6.175-1.52887 9.75-2.15243 14.76866-3.5161 22.55653-4.11487 23.5-.34905.55-.94772 3.025-1.33037 5.5-.7049 4.55928-1.03731 5.78664-4.46173 16.47417-1.05281 3.28579-1.69843 6.32329-1.43471 6.75.26372.42671 14.66255.77583 31.9974.77583h31.51791l2.92307 2.92308c2.58045 2.58044 2.92308 3.62556 2.92308 8.91614 0 5.55999-.27519 6.28819-3.80813 10.07693L164.38373 200h-45.53688c-42.11992 0-45.65148-.13131-47.06426-1.75z"/><path fill="#000" d="M71.90029 197.25c-1.33667-1.5125-3.30542-5.45-4.375-8.75-1.0696-3.3-2.25697-6.45-2.63863-7-.38165-.55-1.01413-3.5875-1.4055-6.75-.39139-3.1625-1.10976-5.75-1.59638-5.75-.48663 0-.88729-1.2375-.89036-2.75-.0031-1.5125-.48806-4.48766-1.07778-6.61146-.97977-3.52858-1.18168-3.70099-2.34222-2-.6985 1.0238-2.10857 4.11146-3.13347 6.86146-1.0249 2.75-2.44061 6.125-3.14604 7.5-.70542 1.375-1.28536 3.25-1.28875 4.16667-.0034.91666-.34366 1.81666-.75616 2-.4125.18333-2.51254 3.84719-4.66675 8.14192-2.15422 4.29472-5.0274 8.68222-6.38486 9.75-4.43684 3.49002-14.32608 2.10726-18.18524-2.54275-1.73093-2.08564-3.9328-17.69867-3.97796-28.20682-.01936-4.50504-.42138-8.42966-.89338-8.72138-.472-.29171-1.18385-6.94586-1.58188-14.78698-.39802-7.84113-1.02434-14.71651-1.3918-15.27863-.36747-.56212-1.21002-6.87203-1.87233-14.02203-.66232-7.15-1.89325-18.85-2.73541-26-.84216-7.15-1.96895-17.5-2.50397-23C4.5214 58 3.61825 49.675 3.04942 45c-.56883-4.675-1.03766-12.4375-1.04183-17.25C2.0031 22.5884 1.58989 19 1 19c-.55 0-1-1.125-1-2.5S.45 14 1 14s1-1.05615 1-2.34699C2 6.47931 8.51883 2 16.0482 2c4.56396 0 6.00644.42926 7.77749 2.31445C25.02156 5.5874 26 7.6124 26 8.81445 26 10.0165 26.37965 11 26.84367 11c.46401 0 1.14504 7.66607 1.51339 17.03571.36834 9.36964 1.10298 18.93214 1.63253 21.25.91101 3.9876 2.56147 19.77534 3.68131 35.21429.27926 3.85.87761 7.45 1.32967 8 .45207.55 1.14782 6.7375 1.54611 13.75.3983 7.0125 1.11323 12.75 1.58875 12.75.47551 0 .86457.675.86457 1.5s.34768 1.5.77262 1.5c.77165 0 2.56944-6.94204 3.75508-14.5C44.8379 99.14803 49.97857 94 57.0084 94c3.15081 0 9.51088 3.10431 10.60577 5.1766C72.64113 108.69114 76 116.36772 76 118.34212c0 .84692.39069 1.78131.8682 2.07643.4775.29511 1.16554 2.77818 1.52898 5.51792.36344 2.73974 1.09776 5.25139 1.63181 5.58146.53406.33006.97101 2.14856.97101 4.0411 0 1.89254.34175 3.44098.75945 3.44098 1.71111 0 3.13392-4.15419 3.80818-11.11877.39303-4.05967 1.0396-7.60623 1.43684-7.88123.39724-.275 1.24613-5.45 1.88643-11.5.6403-6.05 1.54745-14.15 2.01588-18 .46843-3.85 1.38102-12.4 2.02797-19 .64695-6.6 1.59262-14.025 2.10147-16.5.50886-2.475 1.21843-8.1 1.57683-12.5.3584-4.4.98345-8.45 1.38899-9 .40554-.55 1.05016-3.87286 1.43249-7.38413 1.042-9.56972 5.00846-14.96322 11.66032-15.85542 2.17465-.29168 4.1945-.9196 4.48855-1.39539C116.35656 7.61406 175 7.74724 175 9c0 .55.87682 1 1.94848 1s3.09666 1.0641 4.5 2.36467C183.61788 14.3752 184 15.59661 184 20.52028c0 4.67229-.49446 6.4392-2.55967 9.14684-4.45539 5.84131-6.99452 6.33197-32.81245 6.34068L125.5 36.0156l-1.25 2.69157c-.6875 1.48035-1.25 4.01065-1.25 5.62286 0 1.61222-.64345 7.26-1.42988 12.55064-.78644 5.29063-1.66951 12.65683-1.96238 16.36933l-.53249 6.75h23.42845c19.905 0 23.95992.25344 26.96237 1.68521 1.94366.92687 3.53393 2.27687 3.53393 3 0 .72314.45 1.31479 1 1.31479 1.82247 0 1.12717 12.2792-.82106 14.5-5.44494 6.20677-4.21784 5.95776-32.03178 6.5l-25.64716.5-1 9c-.55 4.95-1.28211 9.45-1.62692 10-.34481.55-.95158 4.15-1.34838 8-.3968 3.85-1.07386 7.45-1.50457 8-.43072.55-1.03813 2.575-1.34981 4.5-.89024 5.49831-3.10679 14.39023-3.88757 15.59538-.39032.60246-1.00862 2.96496-1.37402 5.25-.36539 2.28504-1.14683 4.15462-1.73654 4.15462-.68441 0-.72526.34693-.11297.95922.55985.55985 14.30913 1.0803 33.02272 1.25 34.4414.31234 33.05907.0996 36.16806 5.56588 3.07835 5.41238-.76876 18.2249-5.47224 18.2249-.70277 0-1.27776.45-1.27776 1 0 .6518-15.61157 1-44.8347 1H74.3306z"/><g transform="translate(-6.915 109.388) scale(.58348)"><path d="M32.38281 207.51276q0 3.96484-1.73828 7.1875-1.71875 3.22265-4.58984 5-1.99219 1.23047-4.45313 1.77734-2.4414.54688-6.44531.54688H7.8125v-29.08204h7.26563q4.2578 0 6.7578.625 2.51954.60547 4.25782 1.67969 2.96875 1.85547 4.6289 4.94141 1.66016 3.08594 1.66016 7.32422zm-4.04297-.0586q0-3.41797-1.1914-5.76172-1.1914-2.34375-3.55469-3.6914-1.71875-.97656-3.65234-1.34766-1.9336-.39062-4.62891-.39062h-3.63281v22.4414h3.63281q2.79297 0 4.86328-.41015 2.08985-.41016 3.82813-1.52344 2.16796-1.38672 3.24218-3.65234 1.09375-2.26563 1.09375-5.66407z"/><path d="M56.60156 211.49713H40.52734q0 2.01172.60547 3.51563.60547 1.48437 1.66016 2.4414 1.01562.9375 2.40234 1.40625 1.40625.46875 3.08594.46875 2.22656 0 4.47266-.8789 2.26562-.89844 3.22265-1.75782h.19532v4.00391q-1.85547.78125-3.78907 1.30859-1.9336.52735-4.0625.52735-5.42968 0-8.47656-2.92969-3.04688-2.94922-3.04688-8.35937 0-5.35157 2.91016-8.4961 2.92969-3.14453 7.69531-3.14453 4.41407 0 6.79688 2.57813 2.40234 2.57812 2.40234 7.32421zm-3.57422-2.8125q-.01953-2.89062-1.46484-4.47265-1.42578-1.58204-4.35547-1.58204-2.94922 0-4.70703 1.73829-1.73828 1.73828-1.97266 4.3164z"/><path d="M80.42969 211.49713H64.35547q0 2.01172.60547 3.51563.60547 1.48437 1.66015 2.4414 1.01563.9375 2.40235 1.40625 1.40625.46875 3.08594.46875 2.22656 0 4.47265-.8789 2.26563-.89844 3.22266-1.75782H80v4.00391q-1.85547.78125-3.78906 1.30859-1.9336.52735-4.0625.52735-5.42969 0-8.47656-2.92969-3.04688-2.94922-3.04688-8.35937 0-5.35157 2.91016-8.4961 2.92968-3.14453 7.6953-3.14453 4.41407 0 6.79688 2.57813 2.40235 2.57812 2.40235 7.32421zm-3.57422-2.8125q-.01953-2.89062-1.46484-4.47265-1.42579-1.58204-4.35547-1.58204-2.94922 0-4.70704 1.73829-1.73828 1.73828-1.97265 4.3164z"/><path d="M105.19531 210.8526q0 2.65625-.76172 4.86328-.76171 2.1875-2.14843 3.71094-1.28907 1.44531-3.04688 2.24609-1.73828.78125-3.6914.78125-1.69922 0-3.08594-.37109-1.36719-.37109-2.79297-1.15234v9.14062h-3.67188v-29.86328h3.67188v2.28516q1.46484-1.23047 3.28125-2.05079 1.83594-.83984 3.90625-.83984 3.94531 0 6.13281 2.98828 2.20703 2.96875 2.20703 8.26172zm-3.78906.0977q0-3.94532-1.34766-5.89844-1.34765-1.95313-4.14062-1.95313-1.58203 0-3.1836.6836-1.60156.68359-3.0664 1.79687v12.36328q1.5625.70313 2.67578.95704 1.13281.2539 2.5586.2539 3.0664 0 4.78515-2.07031t1.71875-6.13281z"/><path d="M131.95312 196.37994H121.5625v25.64454h-3.86719v-25.64454h-10.39062v-3.4375h24.64843z"/><path d="M145.27344 204.21198h-.19532q-.82031-.19532-1.60156-.27344-.76172-.0977-1.8164-.0977-1.69922 0-3.28125.76172-1.58204.74219-3.04688 1.93359v15.48829h-3.67187v-21.81641h3.67187v3.22266q2.1875-1.75782 3.84766-2.48047 1.67968-.74219 3.41797-.74219.95703 0 1.38671.0586.42969.0391 1.28907.17578z"/><path d="M166.99219 211.49713h-16.07422q0 2.01172.60547 3.51563.60547 1.48437 1.66015 2.4414 1.01563.9375 2.40235 1.40625 1.40625.46875 3.08593.46875 2.22657 0 4.47266-.8789 2.26563-.89844 3.22266-1.75782h.19531v4.00391q-1.85547.78125-3.78906 1.30859-1.9336.52735-4.0625.52735-5.42969 0-8.47657-2.92969-3.04687-2.94922-3.04687-8.35937 0-5.35157 2.91016-8.4961 2.92968-3.14453 7.69531-3.14453 4.41406 0 6.79687 2.57813 2.40235 2.57812 2.40235 7.32421zm-3.57422-2.8125q-.0195-2.89062-1.46485-4.47265-1.42578-1.58204-4.35546-1.58204-2.94922 0-4.70704 1.73829-1.73828 1.73828-1.97265 4.3164z"/><path d="M190.82031 211.49713h-16.07422q0 2.01172.60547 3.51563.60547 1.48437 1.66016 2.4414 1.01562.9375 2.40234 1.40625 1.40625.46875 3.08594.46875 2.22656 0 4.47266-.8789 2.26562-.89844 3.22265-1.75782h.19531v4.00391q-1.85546.78125-3.78906 1.30859-1.93359.52735-4.0625.52735-5.42969 0-8.47656-2.92969-3.04688-2.94922-3.04688-8.35937 0-5.35157 2.91016-8.4961 2.92969-3.14453 7.69531-3.14453 4.41407 0 6.79688 2.57813 2.40234 2.57812 2.40234 7.32421zm-3.57422-2.8125q-.0195-2.89062-1.46484-4.47265-1.42578-1.58204-4.35547-1.58204-2.94922 0-4.70703 1.73829-1.73828 1.73828-1.97266 4.3164z"/><path d="M219.60937 222.02448h-4.12109l-2.85156-8.10547h-12.57813l-2.85156 8.10547h-3.92578l10.58594-29.08204h5.15625zm-8.16406-11.42579l-5.09765-14.27734-5.11719 14.27734z"/><path d="M234.66797 221.82916q-1.03516.27344-2.26563.44922-1.21093.17578-2.16797.17578-3.33984 0-5.07812-1.79687-1.73828-1.79688-1.73828-5.76172v-11.60156h-2.48047v-3.08594h2.48047v-6.26953h3.67187v6.26953h7.57813v3.08594h-7.57813v9.9414q0 1.71875.0781 2.69532.0781.95703.54687 1.79687.42969.78125 1.17188 1.15234.76172.35157 2.30469.35157.89843 0 1.875-.25391.97656-.27344 1.40625-.44922h.19531z"/><path d="M250.42969 221.82916q-1.03516.27344-2.26563.44922-1.21094.17578-2.16797.17578-3.33984 0-5.07812-1.79687-1.73828-1.79688-1.73828-5.76172v-11.60156h-2.48047v-3.08594h2.48047v-6.26953h3.67187v6.26953h7.57813v3.08594h-7.57813v9.9414q0 1.71875.0781 2.69532.0781.95703.54687 1.79687.42969.78125 1.17188 1.15234.76172.35157 2.30468.35157.89844 0 1.875-.25391.97657-.27344 1.40625-.44922h.19532z"/><path d="M273.125 211.49713h-16.07422q0 2.01172.60547 3.51563.60547 1.48437 1.66016 2.4414 1.01562.9375 2.40234 1.40625 1.40625.46875 3.08594.46875 2.22656 0 4.47265-.8789 2.26563-.89844 3.22266-1.75782h.19531v4.00391q-1.85547.78125-3.78906 1.30859-1.93359.52735-4.0625.52735-5.42969 0-8.47656-2.92969-3.04688-2.94922-3.04688-8.35937 0-5.35157 2.91016-8.4961 2.92969-3.14453 7.69531-3.14453 4.41406 0 6.79688 2.57813 2.40234 2.57812 2.40234 7.32421zm-3.57422-2.8125q-.0195-2.89062-1.46484-4.47265-1.42578-1.58204-4.35547-1.58204-2.94922 0-4.70703 1.73829-1.73828 1.73828-1.97266 4.3164z"/><path d="M296.93359 222.02448h-3.67187V209.6026q0-1.50391-.17578-2.8125-.17578-1.32812-.64453-2.07031-.48829-.82031-1.40625-1.21094-.91797-.41016-2.38282-.41016-1.5039 0-3.14453.74219-1.64062.74219-3.14453 1.89453v16.28907h-3.67187v-21.81641h3.67187v2.42187q1.71875-1.42578 3.55469-2.22656t3.76953-.80078q3.53516 0 5.39062 2.12891 1.85547 2.1289 1.85547 6.13281z"/><path d="M315.33203 221.82916q-1.03516.27344-2.26562.44922-1.21094.17578-2.16797.17578-3.33985 0-5.07813-1.79687-1.73828-1.79688-1.73828-5.76172v-11.60156h-2.48047v-3.08594h2.48047v-6.26953h3.67188v6.26953h7.57812v3.08594h-7.57812v9.9414q0 1.71875.0781 2.69532.0781.95703.54688 1.79687.42968.78125 1.17187 1.15234.76172.35157 2.30469.35157.89844 0 1.875-.25391.97656-.27344 1.40625-.44922h.19531z"/><path d="M323.71094 196.55573h-4.14063v-3.8086h4.14063zm-.23438 25.46875h-3.67187v-21.81641h3.67187z"/><path d="M349.33594 211.12604q0 5.33203-2.73438 8.41797-2.73437 3.08593-7.32422 3.08593-4.6289 0-7.36328-3.08593-2.71484-3.08594-2.71484-8.41797 0-5.33203 2.71484-8.41797 2.73438-3.10547 7.36328-3.10547 4.58985 0 7.32422 3.10547 2.73438 3.08594 2.73438 8.41797zm-3.78907 0q0-4.23828-1.66015-6.28906-1.66016-2.07032-4.60938-2.07032-2.98828 0-4.64843 2.07032-1.64063 2.05078-1.64063 6.28906 0 4.10156 1.66016 6.23047 1.66015 2.10937 4.6289 2.10937 2.92969 0 4.58985-2.08984 1.67968-2.10938 1.67968-6.25z"/><path d="M373.26172 222.02448h-3.67188V209.6026q0-1.50391-.17578-2.8125-.17578-1.32812-.64453-2.07031-.48828-.82031-1.40625-1.21094-.91797-.41016-2.38281-.41016-1.50391 0-3.14453.74219-1.64063.74219-3.14453 1.89453v16.28907h-3.67188v-21.81641h3.67188v2.42187q1.71875-1.42578 3.55468-2.22656 1.83594-.80078 3.76953-.80078 3.53516 0 5.39063 2.12891 1.85547 2.1289 1.85547 6.13281z"/></g></g></svg>