<svg xmlns="http://www.w3.org/2000/svg" role="img" viewBox="34.96 161.96 730.08 271.08"><title>dieter_py logo</title><style>svg {enable-background:new 0 0 800 450}</style><style>.st2{fill:#008782}</style><path fill="#fff" d="M0 0h800v450H0z"/><path fill="#008782" fill-rule="evenodd" d="M738.7 260.4h12.5v-68.5h-10.1v52.2l-27.3-52.2h-12.5v68.5h10.2v-52.1l27.2 52.1zm-66.5-68.5v68.5h10.2v-68.5h-10.2zm-48.3 68.5H661v-9.1h-26.8v-59.4h-10.3v68.5zm-41.7-60c7.1 0 12.8 2.8 12.8 9.9 0 7.1-6.1 11.9-15.4 11.9-1.8 0-3.4-.1-5-.2v-21.2c2.2-.2 4.7-.4 7.6-.4zm-17.8 60h10.1v-29.2c6.8 0 10.4 3.6 14.1 10.7l9.7 18.6H610l-12.6-22.6c-2.2-3.8-4.7-6.8-7.4-8.8 8.8-2.9 15.3-9.4 15.3-19 0-12.8-10.3-18.6-23.4-18.6-6.4 0-11.1.5-17.5 1.1v67.8zm-56.6 0h40v-9.2H518v-21.7h26.9v-9H518V201h28.8l.5-9.1h-39.5v68.5zm-38.7-60.2c7.4 0 11.6 2.6 11.6 8.8 0 6.2-4.5 11.1-15.4 11.1h-4.8v-19.4c2.8-.3 5.6-.5 8.6-.5zm-1.9 28.4c11.5 0 16.6 3.5 16.6 11.6s-5.9 12-14.7 12c-2.8 0-5.7-.1-8.6-.4v-23.2h6.7zm-16.9 31.3c6 .6 11.9 1 18.3 1 13.1 0 25.6-5 25.6-20.3 0-8.9-4.9-14.6-12.7-17.2 5.9-3 9.5-8.2 9.5-15 0-11.9-9.1-17-22.1-17-6.5 0-13.3.6-18.7 1.1v67.4h.1z" clip-rule="evenodd"/><path d="M70.3 241.2c-8.6-7.3-15.5-14.2-21.2-20.6v52.8c13.5-6.1 26.1-12.9 37.9-19.9-5.5-3.6-11.1-7.6-16.7-12.3zm174.9-38.3c-3.1 0-6.6.2-9.9.6v45.4c3 .3 6.1.4 8.9.4 13.8 0 21-7.7 21-24.1.1-17-7.6-22.3-20-22.3zM53.8 276.2h83.5c-12-3.3-27.5-8.9-44.1-18.9-17 9.1-31 15.4-39.4 18.9z" class="st2"/><path d="M205.1 176.1c-34 33.9-71.8 59-102.2 75.9 18.2 13.4 36.5 20.1 49.7 24.2h271.9V176.1H205.1zm38.2 84.8c-6.7 0-13.6-.5-21.4-1.1v-67.2c6.8-.7 15-1.3 22.8-1.3 22.4 0 34.3 10.2 34.3 33 0 24.8-12.1 36.6-35.7 36.6zm64.1-.5h-13.5v-68.5h13.5v68.5zm83.5 0h-17.6l-10.7-51.7-10.6 51.7h-17.7l-14.5-68.5h14.1l9.9 53 10.6-53h17.2l10.5 52.4 10.3-52.4H406l-15.1 68.5zM96.6 247.3c43.2-27.6 72.9-57.8 85.1-71.2H49.1c3.4 12.9 11.1 30.8 27.9 51.8 6.3 7.5 12.9 13.9 19.6 19.4z" class="st2"/><path d="M153.579 322.40557c-3.30224-1.86093-7.06058-2.7914-11.29328-2.7914-9.19518 0-16.54767 3.4117-22.03924 10.25336-5.49156 6.84165-8.24647 16.23751-8.24647 28.16935 0 10.34457 2.7914 18.80998 8.37418 25.4327 5.58279 6.60447 12.46093 9.9067 20.63442 9.9067 4.94423 0 9.10395-.9487 12.44268-2.82788 3.32048-1.87917 6.29432-4.8895 8.90327-9.04922v9.68777h17.77004v-94.41477h-18.5363v33.35077c-2.04338-3.284-4.7253-5.85646-8.0093-7.71738zm4.48812 49.8072c-2.70017 3.83133-6.64096 5.76524-11.80412 5.76524-5.18141 0-9.03098-1.9339-11.5852-5.80172-2.53597-3.86781-3.81308-9.03098-3.81308-15.4895 0-5.98416 1.25887-11.00137 3.75835-15.05163 2.49948-4.032 6.42203-6.05714 11.76764-6.05714 3.50292 0 6.58622 1.11291 9.23166 3.33873 4.32393 3.66712 6.47676 9.79724 6.47676 18.33562 0 6.13012-1.35008 11.11084-4.032 14.9604zm57.46986-59.27605v-16.87607h-18.5363v16.87607zm-18.5363 8.3377v69.91253h18.5363v-69.91254zm53.96693 17.18622c2.33528-2.64544 5.61927-3.97728 9.85197-3.97728 3.88606 0 7.1518 1.25886 9.779 3.75834 2.6272 2.49949 4.08675 6.16661 4.3969 11.00138h-28.42477c.60206-4.54286 2.06161-8.11876 4.3969-10.78244zm25.5604-15.7814c-4.65232-2.1711-9.9067-3.26576-15.70843-3.26576-9.79724 0-17.77004 3.22926-23.90016 9.68778-6.13012 6.45852-9.19518 15.74492-9.19518 27.84095 0 12.91704 3.39346 22.23993 10.19862 27.96867 6.78692 5.72874 14.63201 8.59311 23.53528 8.59311 10.78244 0 19.15662-3.4117 25.14078-10.19862 3.84957-4.28743 6.0024-8.50189 6.47676-12.64337h-18.66402c-.9852 2.06162-2.11635 3.66713-3.39346 4.81653-2.35352 2.13459-5.41858 3.21101-9.17693 3.21101-3.55766 0-6.58623-.87573-9.10396-2.64544-4.15972-2.80964-6.34905-7.73562-6.60447-14.74147h47.83682c.09122-6.0389-.10947-10.65473-.56558-13.86575-.821-5.47332-2.5907-10.2716-5.32736-14.43132-3.04682-4.6888-6.87814-8.137-11.5487-10.32633zm-14.43132-3.26576zm37.01789 15.52599h9.7425V377.978c0 4.36041 1.0217 7.58967 3.08331 9.68777 3.15628 3.284 9.06747 4.78004 17.69707 4.48813l8.66609-.3284v-13.66506c-.60207.05474-1.22237.09122-1.84268.10947-.62031.01824-1.20413.03649-1.75147.03649-3.72185 0-5.94767-.3649-6.67745-1.07642-.72977-.69329-1.09466-2.48124-1.09466-5.34561v-36.94491h11.36626v-13.0265h-11.36626v-19.48502h-18.0802v19.48502h-9.74251zm68.65368 3.52117c2.33528-2.64544 5.61927-3.97728 9.85197-3.97728 3.88606 0 7.1518 1.25886 9.779 3.75834 2.6272 2.49949 4.08675 6.16661 4.3969 11.00138h-28.42477c.60206-4.54286 2.06161-8.11876 4.3969-10.78244zm25.5604-15.7814c-4.65232-2.1711-9.9067-3.26576-15.70843-3.26576-9.79724 0-17.77004 3.22926-23.90016 9.68778-6.13012 6.45852-9.19518 15.74492-9.19518 27.84095 0 12.91704 3.39346 22.23993 10.19862 27.96867 6.78692 5.72874 14.632 8.59311 23.53528 8.59311 10.7642 0 19.15662-3.4117 25.14078-10.19862 3.84957-4.28743 6.0024-8.50189 6.47676-12.64337h-18.66402c-.9852 2.06162-2.11635 3.66713-3.39346 4.81653-2.35353 2.13459-5.41859 3.21101-9.17693 3.21101-3.55766 0-6.58623-.87573-9.10396-2.64544-4.15972-2.80964-6.34905-7.73562-6.60447-14.74147h47.83682c.09122-6.0389-.10947-10.65473-.56558-13.86575-.821-5.47332-2.5907-10.2716-5.32736-14.43132-3.04682-4.6888-6.89639-8.137-11.54871-10.32633zm-14.43132-3.26576zm83.03026.21894c-.23717-.01825-.52908-.01825-.85748-.01825-5.47332 0-9.92496 1.42307-13.3549 4.28744-2.0981 1.71497-4.54286 4.90774-7.37074 9.56006v-12.18726h-17.44165v69.91254h18.4086v-33.4055c0-5.61927.69329-9.76075 2.11635-12.46092 2.51773-4.78003 7.46196-7.17005 14.81446-7.17005.54733 0 1.2771.01825 2.17108.05474.91222.05473 1.9339.1277 3.0833.25542v-18.71876c-.80275-.05473-1.33184-.07297-1.56902-.10946zm3.75835 87.9745h73.05058v-6.47677h-73.05058zm126.0688-65.67985c2.44475 4.14148 3.68537 8.92152 3.68537 14.30361 0 6.54974-1.33184 11.78589-4.01376 15.70843-2.66369 3.9408-6.54974 5.91119-11.63993 5.91119-3.50293 0-6.54974-.96696-9.10396-2.88262-4.32392-3.30223-6.47676-9.01273-6.47676-17.13149 0-5.12668.63855-9.35938 1.91566-12.6981 2.48124-6.29432 7.04234-9.43236 13.66506-9.43236 5.5098 0 9.50533 2.07986 11.96832 6.22134zm14.0482-13.1542c-5.67402-6.02066-12.58864-9.03099-20.76213-9.03099-5.60104 0-10.4358 1.55078-14.48606 4.67057-2.22581 1.75146-4.32392 4.15972-6.29432 7.1883V321.2744h-17.51462v97.4251h18.09844v-36.43407c1.91567 2.9556 3.88606 5.19966 5.89295 6.75043 3.68536 2.77315 8.3012 4.15972 13.86574 4.15972 8.72082 0 15.85438-3.22926 21.38244-9.68777 5.5463-6.45852 8.3012-15.83614 8.3012-28.15111 0-11.67642-2.82788-20.52495-8.48365-26.56385zm24.52047 75.82372v14.61376c1.9704.14596 3.44819.21893 4.43339.23718.9852.01824 2.28055.03649 3.9043.03649 8.08227 0 13.4826-1.6055 16.16454-4.78003 2.70017-3.19277 6.34905-11.421 10.96488-24.66643l23.99139-68.76315h-19.43029l-14.43132 51.57692-15.27056-51.57692h-20.32426l25.65162 72.99585c.1642.51084-.20069 1.91566-1.1129 4.2327-.93047 2.2988-1.91567 3.83132-2.99209 4.5611-1.1129.76626-2.48124 1.25886-4.10499 1.45955-1.62375.21893-3.33872.29191-5.12667.20069zm24.75765-85.1831z"/></svg>