<svg xmlns="http://www.w3.org/2000/svg" role="img" xmlns:xlink="http://www.w3.org/1999/xlink" viewBox="-3.67 0.33 321.10 186.35"><title>Digital Substations SIG logo</title><defs><symbol overflow="visible"><path d="M2 0v-39.98438h15.9375V0zm1.98438-2H15.9375v-36H3.98437zm0 0"/></symbol><symbol id="a" overflow="visible"><path d="M40.45313-21.0625c0 3.4375-.51563 6.46875-1.54688 9.09375s-2.44922 4.82422-4.25 6.59375c-1.79297 1.77344-3.91797 3.10938-6.375 4.01563C25.83203-.45313 23.19141 0 20.35937 0H4.92188v-41.28125h13.65625c3.17579 0 6.10938.39844 8.79688 1.1875 2.6875.79297 4.99219 2.01563 6.92188 3.67188 1.9375 1.64843 3.4453 3.74218 4.53124 6.28124 1.08204 2.53126 1.625 5.5586 1.625 9.07813zm-5.625 0c0-2.78906-.40235-5.17578-1.20313-7.15625-.79297-1.98828-1.91406-3.61719-3.35938-4.89063-1.44921-1.26953-3.17968-2.20312-5.1875-2.79687-2.01171-.59375-4.21874-.89063-6.625-.89063h-7.9375v32.3125h9.20313c2.16406 0 4.17188-.34765 6.01563-1.04687 1.84374-.70703 3.4375-1.7539 4.78124-3.14063 1.35157-1.3828 2.41016-3.11328 3.17188-5.1875.75781-2.0703 1.14063-4.47265 1.14063-7.20312zm0 0"/></symbol><symbol id="b" overflow="visible"><path d="M4.01563-38.4375v-5.04688h5.26562v5.04688zm0 38.4375v-31.70313h5.26562V0zm0 0"/></symbol><symbol id="c" overflow="visible"><path d="M16.0625 12.45313c-1.82422 0-3.4375-.1875-4.84375-.5625-1.40625-.3672-2.60938-.89844-3.60938-1.59375-.99218-.6875-1.79687-1.51172-2.42187-2.46875-.625-.96094-1.07422-2.02735-1.34375-3.20313l5.29688-.75c.35156 1.45703 1.1289 2.58203 2.32812 3.375 1.19531.78906 2.77344 1.1875 4.73438 1.1875 1.1875 0 2.26953-.16797 3.25-.5.97656-.33594 1.80468-.86719 2.48437-1.59375.6875-.73047 1.21094-1.6836 1.57813-2.85938.375-1.16796.5625-2.59375.5625-4.28125v-5.09375h-.04688c-.39844.8047-.88672 1.57422-1.46875 2.3125-.57422.73047-1.27734 1.375-2.10938 1.9375-.82421.5625-1.78124 1.01563-2.875 1.35938-1.09374.34375-2.34374.51563-3.75.51563-2.01171 0-3.73437-.33204-5.17187-1-1.4375-.67579-2.60938-1.6875-3.51563-3.03125-.90625-1.35157-1.57421-3.03125-2-5.03125-.41796-2.00782-.625-4.33204-.625-6.96875 0-2.53125.20704-4.8125.625-6.84375.42579-2.03126 1.11329-3.75391 2.0625-5.17188.94532-1.41406 2.17579-2.5 3.6875-3.25 1.50782-.75781 3.35157-1.14063 5.53125-1.14063 2.23829 0 4.1797.51563 5.82813 1.54688 1.65625 1.02344 2.92969 2.48047 3.82813 4.375h.0625c0-.48828.01562-1.03516.04687-1.64063.03125-.60156.05469-1.17187.07813-1.70312.03124-.53906.0664-1.0039.10937-1.39063.03906-.39453.08203-.625.125-.6875h5c-.02344.1797-.04297.48047-.0625.90626-.01172.41796-.02734.91796-.04688 1.5-.02343.58593-.03906 1.23437-.04687 1.95312-.01172.71094-.01563 1.44531-.01563 2.20313V-.90626c0 4.4375-1.08984 7.76953-3.26562 10-2.17969 2.23828-5.51172 3.35938-10 3.35938zm8.01563-28.29688c0-2.20703-.2422-4.09766-.71876-5.67188-.48046-1.5703-1.10937-2.85156-1.89062-3.84374-.78125-1-1.67969-1.73438-2.6875-2.20313-1-.46875-2.02734-.70313-3.07813-.70313-1.34375 0-2.5.23438-3.46875.70313s-1.77343 1.21094-2.40625 2.21875c-.63671 1-1.10546 2.28906-1.40625 3.85938-.30468 1.57421-.45312 3.45312-.45312 5.64062 0 2.28125.14844 4.19922.45313 5.75.30078 1.55469.76562 2.8086 1.39062 3.76563.625.96093 1.41406 1.64843 2.375 2.0625.95703.40625 2.09766.60937 3.42188.60937 1.0625 0 2.09375-.22266 3.09375-.67188 1.0078-.45703 1.91406-1.17187 2.71874-2.14062.80079-.97656 1.44141-2.23828 1.92188-3.78125.48828-1.53906.73438-3.40625.73438-5.59375zm0 0"/></symbol><symbol id="d" overflow="visible"><path d="M16.23438-.23438c-.8047.21876-1.6211.39063-2.45313.51563-.82422.125-1.78125.1875-2.875.1875-4.21875 0-6.32813-2.39063-6.32813-7.17188v-21.15624H.90625v-3.84376h3.875l1.54688-7.09374h3.51562v7.09374h5.85938v3.84376H9.84375v20c0 1.53125.25 2.60546.75 3.21875.5.61718 1.36328.92187 2.59375.92187.50781 0 1-.03516 1.46875-.10938a51.98793 51.98793 0 0 0 1.57813-.29687zm0 0"/></symbol><symbol id="e" overflow="visible"><path d="M12.125.59375c-3.17969 0-5.57031-.83594-7.17188-2.51563-1.60546-1.6875-2.40625-3.99218-2.40625-6.92187 0-2.09375.39454-3.80469 1.1875-5.14063.78907-1.34375 1.82813-2.39453 3.10938-3.15625 1.28125-.7578 2.73828-1.28515 4.375-1.57812 1.64453-.28906 3.3164-.45703 5.01563-.5l7.10937-.125v-1.71875c0-1.3125-.13672-2.42578-.40625-3.34375-.27344-.91406-.69531-1.65625-1.26563-2.21875-.5625-.57031-1.27343-.98828-2.125-1.25-.84374-.25781-1.84374-.39063-3-.39063-1.01171 0-1.92968.07422-2.75.21876-.82421.14843-1.53906.41406-2.14062.79687-.60547.375-1.09375.89063-1.46875 1.54688-.36719.64843-.60547 1.46874-.71875 2.46874l-5.51563-.5c.19532-1.25.56641-2.39453 1.10938-3.4375.55078-1.03906 1.32813-1.9414 2.32813-2.70312 1.0078-.76953 2.26953-1.36328 3.78125-1.78125 1.51953-.41406 3.35156-.625 5.5-.625 3.97656 0 6.97265.91406 8.98437 2.73438 2.01953 1.82421 3.03125 4.46484 3.03125 7.92187v13.65625c0 1.5625.20313 2.74219.60938 3.53125.40624.79297 1.1875 1.1875 2.34374 1.1875.28907 0 .58204-.01953.875-.0625.28907-.03906.57813-.08594.85938-.14063v3.28125c-.66797.15626-1.32813.26954-1.98438.34376-.65624.08203-1.35546.125-2.09374.125-1 0-1.85547-.13282-2.5625-.39063-.71094-.26953-1.29297-.67188-1.75-1.20313-.44922-.53906-.79297-1.20703-1.03126-2-.23046-.78906-.37109-1.71093-.42187-2.76562h-.1875c-.5625 1.01172-1.1836 1.92969-1.85938 2.75-.66796.82422-1.45312 1.52344-2.35937 2.09375-.89844.57422-1.91797 1.01563-3.0625 1.32813-1.13672.3203-2.44922.48437-3.9375.48437zM13.32813-3.375c1.67578 0 3.14453-.30469 4.40625-.92188 1.2578-.61328 2.30468-1.39843 3.14062-2.35937.83203-.95703 1.45313-2 1.85938-3.125.40624-1.13281.60937-2.21875.60937-3.25v-2.60938l-5.76563.10938c-1.29296.02344-2.52343.11719-3.6875.28125-1.15625.16797-2.17968.4961-3.0625.98438-.875.49218-1.57421 1.17187-2.09375 2.04687-.51171.875-.76562 2.02734-.76562 3.45313 0 1.71875.46094 3.04687 1.39063 3.98437.92578.9375 2.25 1.40625 3.96875 1.40625zm0 0"/></symbol><symbol id="f" overflow="visible"><path d="M4.04688 0v-43.48438H9.3125V0zm0 0"/></symbol><symbol id="g" overflow="visible"><path d="M37.26563-11.39063c0 1.73047-.33985 3.32813-1.01563 4.79688-.66797 1.46875-1.70313 2.73438-3.10938 3.79688-1.40624 1.0625-3.18359 1.89843-5.32812 2.5-2.13672.59374-4.66797.89062-7.59375.89062-5.13672 0-9.14063-.89844-12.01563-2.70313C5.32813-3.91016 3.5-6.5078 2.71875-9.90625l5.42188-1.07813c.28125 1.07422.70312 2.0547 1.26562 2.9375.5625.875 1.32813 1.63282 2.29688 2.26563.96875.63672 2.16406 1.13281 3.59375 1.48438 1.42578.34375 3.1328.51562 5.125.51562 1.65624 0 3.17578-.14063 4.5625-.42188C26.3789-4.48438 27.5703-4.91406 28.5625-5.5c1-.59375 1.77344-1.35156 2.32813-2.28125.5625-.92578.84374-2.03516.84374-3.32813 0-1.34375-.30859-2.42968-.92187-3.26562-.61719-.84375-1.48047-1.53516-2.59375-2.07813-1.11719-.55078-2.44531-1.01562-3.98438-1.39062-1.54296-.375-3.25-.77344-5.125-1.20313-1.15624-.25-2.3203-.52343-3.48437-.82812-1.15625-.30078-2.27344-.66016-3.34375-1.07813-1.0625-.42578-2.0625-.92187-3-1.48437-.9375-.57031-1.75-1.2539-2.4375-2.04688-.67969-.78906-1.21484-1.70703-1.60938-2.75-.38671-1.03906-.57812-2.24218-.57812-3.60937 0-1.95703.39453-3.63281 1.1875-5.03125.78906-1.39453 1.89063-2.53906 3.29688-3.4375 1.40625-.90625 3.0664-1.5625 4.98437-1.96875 1.91406-.40625 3.98438-.60938 6.20313-.60938 2.5625 0 4.75.20313 6.5625.60938 1.8203.39844 3.35937.9961 4.60937 1.79688 1.25.79296 2.25 1.78124 3 2.96874.75 1.1797 1.34766 2.54688 1.79688 4.10938l-5.5.96875c-.28126-1-.6836-1.89063-1.20313-2.67188-.51172-.78124-1.1875-1.42968-2.03125-1.95312-.83594-.53125-1.85547-.92969-3.0625-1.20313-1.19922-.26953-2.60547-.40624-4.21875-.40624-1.91797 0-3.52734.17187-4.82813.51562-1.30468.33594-2.35156.79688-3.14062 1.39063-.78125.58593-1.34375 1.27343-1.6875 2.0625-.34375.79296-.51563 1.64843-.51563 2.5625 0 1.23046.3047 2.24218.92188 3.03124.61328.79297 1.44531 1.45313 2.5 1.98438 1.0625.52344 2.28516.96094 3.67188 1.3125 1.3828.35547 2.85937.70313 4.42187 1.04688 1.26953.29296 2.53516.59374 3.79688.90624 1.2578.3047 2.46093.66407 3.60937 1.07813 1.15625.41797 2.23438.91406 3.23438 1.48438 1.0078.5625 1.8828 1.2578 2.625 2.07812.73828.8125 1.3164 1.77734 1.73437 2.89063.42578 1.11718.64063 2.42968.64063 3.9375zm0 0"/></symbol><symbol id="h" overflow="visible"><path d="M9.20313-31.70313v20.09376c0 1.55468.10937 2.84375.32812 3.875.22656 1.03125.59375 1.86718 1.09375 2.5.50781.63671 1.17969 1.08984 2.01563 1.35937.83203.26172 1.86328.39063 3.09375.39063 1.25 0 2.375-.21875 3.375-.65625 1.0078-.44532 1.86718-1.08204 2.57812-1.90625.71875-.83204 1.26953-1.85938 1.65625-3.07813.39453-1.21875.59375-2.61719.59375-4.20313v-18.375h5.26563v24.9375c0 .66797.0039 1.3672.01562 2.09375.00781.73047.02344 1.42188.04688 2.07813.01953.65625.03906 1.21875.0625 1.6875.01953.46875.03906.77344.0625.90625h-4.98438c-.02344-.09375-.04297-.35156-.0625-.78125-.02344-.4375-.04688-.92969-.07813-1.48438-.02343-.5625-.04296-1.1289-.0625-1.70312-.02343-.57031-.03124-1.05469-.03124-1.45313h-.09376c-.5.91797-1.05859 1.75-1.67187 2.5-.60547.7422-1.3086 1.3711-2.10938 1.89063-.79296.51172-1.71093.90625-2.75 1.1875-1.03124.28906-2.23046.4375-3.59374.4375-1.76172 0-3.27735-.21484-4.54688-.64063-1.27344-.4375-2.32031-1.10156-3.14063-2-.8125-.90625-1.41406-2.0625-1.79687-3.46875-.38672-1.40625-.57813-3.09375-.57813-5.0625v-21.125zm0 0"/></symbol><symbol id="i" overflow="visible"><path d="M30.84375-16c0 11.0625-3.88672 16.59375-11.65625 16.59375-2.39844 0-4.39063-.4336-5.98438-1.29688-1.59375-.875-2.89062-2.28125-3.89062-4.21875h-.04688c0 .51172-.01562 1.04297-.04687 1.59375-.03125.54297-.0625 1.04688-.09375 1.51563s-.0625.8711-.09375 1.20313c-.02344.32421-.04297.52734-.0625.60937H3.875c.00781-.17578.02344-.47266.04688-.89063.01953-.42578.03906-.92968.0625-1.51562.01953-.58203.03515-1.22266.04687-1.92188.00781-.70703.01563-1.4414.01563-2.20312v-36.95313H9.3125v12.40626c0 .58593-.00781 1.14843-.01563 1.6875-.01171.53124-.02343 1-.03125 1.40624-.02343.4922-.04296.94922-.0625 1.375h.10938c.97656-2.03124 2.26953-3.48437 3.875-4.35937 1.61328-.875 3.61328-1.3125 6-1.3125 4.00781 0 6.95313 1.35156 8.82813 4.04688 1.8828 2.6875 2.82812 6.76562 2.82812 12.23437zm-5.53125.17188c0-2.1875-.13672-4.0625-.40625-5.625-.27344-1.5625-.71484-2.84376-1.32813-3.84376-.60546-1.0078-1.375-1.75-2.3125-2.21874-.9375-.46876-2.07812-.70313-3.42187-.70313-1.38672 0-2.61719.23047-3.6875.6875-1.0625.44922-1.94922 1.17188-2.65625 2.17188-.71094.99218-1.25 2.29687-1.625 3.92187-.375 1.61719-.5625 3.59375-.5625 5.9375 0 2.27344.1875 4.17969.5625 5.71875.375 1.54297.91406 2.79688 1.625 3.76563.70703.96093 1.58594 1.65234 2.64063 2.07812 1.0625.41797 2.27343.625 3.64062.625 1.28906 0 2.40625-.22266 3.34375-.67188.9375-.4453 1.71875-1.16406 2.34375-2.15625.625-1 1.08594-2.29687 1.39063-3.89062.30078-1.59375.45312-3.52344.45312-5.79688zm0 0"/></symbol><symbol id="j" overflow="visible"><path d="M27.82813-8.76563c0 1.4922-.28907 2.82032-.85938 3.98438-.57422 1.15625-1.40625 2.13281-2.5 2.92188-1.09375.79296-2.4375 1.40234-4.03125 1.82812-1.59375.41406-3.41797.625-5.46875.625-1.83594 0-3.49219-.14844-4.96875-.4375C8.53125-.125 7.23828-.57813 6.125-1.20313c-1.11719-.625-2.04688-1.4453-2.79688-2.46875-.75-1.03125-1.30468-2.28515-1.65625-3.76562l4.65625-.90625c.44532 1.69922 1.375 2.94531 2.78125 3.73438 1.40625.79296 3.35938 1.1875 5.85938 1.1875 1.13281 0 2.17578-.07813 3.125-.23438.94531-.15625 1.75781-.42578 2.4375-.8125.6875-.38281 1.21875-.89063 1.59375-1.51563.38281-.6328.57813-1.42187.57813-2.35937 0-.95703-.22657-1.74219-.67188-2.35938-.44922-.61328-1.07422-1.125-1.875-1.53125-.80469-.41406-1.77734-.77343-2.92188-1.07812-1.13671-.30078-2.38671-.64063-3.75-1.01563-1.27343-.33203-2.53125-.70312-3.78125-1.10937-1.25-.41406-2.3828-.95703-3.39062-1.625-1-.67578-1.8125-1.50781-2.4375-2.5-.625-1-.9375-2.2539-.9375-3.76563 0-2.8828 1.02344-5.08203 3.07813-6.59374 2.0625-1.51954 5.0664-2.28126 9.01562-2.28126 3.5 0 6.27344.6211 8.32813 1.85938 2.0625 1.23047 3.36718 3.19922 3.92187 5.90625l-4.75.59375c-.17969-.82031-.5-1.50781-.96875-2.0625-.46875-.5625-1.03906-1.01563-1.70313-1.35938-.65624-.34374-1.40234-.58593-2.23437-.73437-.83594-.14453-1.69922-.21875-2.59375-.21875-2.38672 0-4.14844.36719-5.28125 1.09375-1.125.71875-1.6875 1.8125-1.6875 3.28125 0 .85547.20703 1.5625.625 2.125.41406.55469 1 1.02344 1.75 1.40625.75781.375 1.66406.71094 2.71875 1 1.05078.28125 2.21094.57813 3.48438.89063.84374.21093 1.70312.4375 2.57812.6875.875.24218 1.72656.53124 2.5625.875.83203.34374 1.61328.74609 2.34375 1.20312.72656.46094 1.36328 1.01172 1.90625 1.65625.55078.64844.98828 1.40234 1.3125 2.26563.32031.85546.48438 1.84375.48438 2.96875zm0 0"/></symbol><symbol id="k" overflow="visible"><path d="M30.84375-15.875c0 5.54297-1.21875 9.67188-3.65625 12.39063S21.20312.59375 16.54687.59375c-2.19921 0-4.16796-.33594-5.90624-1-1.7422-.66406-3.21485-1.67969-4.42188-3.04688-1.19922-1.375-2.11719-3.08593-2.75-5.14062-.63672-2.0625-.95313-4.48828-.95313-7.28125 0-10.9375 4.73829-16.40625 14.21875-16.40625 2.45704 0 4.57813.34375 6.35938 1.03125 1.78906.67969 3.2539 1.69922 4.39063 3.0625 1.14453 1.36719 1.98828 3.07422 2.53124 5.125.55079 2.05469.82813 4.44922.82813 7.1875zm-5.53125 0c0-2.46875-.19531-4.5-.57813-6.09375-.375-1.60156-.93359-2.88281-1.67187-3.84375-.73047-.95703-1.6211-1.625-2.67188-2-1.05468-.38281-2.24609-.57813-3.57812-.57813-1.34375 0-2.5586.20313-3.64063.60938-1.08593.39844-2.0078 1.07813-2.76562 2.04688-.76172.96874-1.34375 2.2578-1.75 3.85937-.39844 1.59375-.59375 3.59375-.59375 6 0 2.46094.21094 4.4961.64063 6.10938.42578 1.60546 1.01562 2.88671 1.76562 3.84375.75781.96093 1.64844 1.63671 2.67188 2.03125 1.01953.38671 2.14062.57812 3.35937.57812 1.34375 0 2.5625-.1875 3.65625-.5625 1.09375-.38281 2.01953-1.05469 2.78125-2.01563.75781-.95703 1.34375-2.24218 1.75-3.85937.41406-1.625.625-3.66406.625-6.125zm0 0"/></symbol><symbol id="l" overflow="visible"><path d="M24.17188 0v-20.09375c0-1.53906-.1172-2.82813-.34376-3.85938-.21874-1.03906-.58593-1.8789-1.09374-2.51562-.51172-.63281-1.1836-1.08203-2.01563-1.34375-.82422-.26953-1.85156-.40625-3.07813-.40625-1.25 0-2.3828.22656-3.39062.67188-1 .4375-1.85938 1.07421-2.57813 1.90624-.71093.82422-1.26171 1.84376-1.65625 3.0625-.38671 1.21876-.57812 2.6211-.57812 4.20313V0H4.15625v-24.9375c0-.65625-.00781-1.34766-.01563-2.07813-.01171-.73828-.02734-1.4375-.04687-2.09374-.01172-.65626-.02734-1.21876-.04688-1.6875-.02343-.46876-.04296-.76954-.0625-.90626h4.98438c.01953.10547.03516.3711.04688.79688.01953.42969.04687.92188.07812 1.48438.03125.55468.05469 1.12109.07813 1.70312.01953.57422.03125 1.05469.03125 1.4375h.07812c.50781-.91406 1.0664-1.74219 1.67188-2.48438.60156-.75 1.30468-1.3789 2.10937-1.89062.80078-.51953 1.71875-.92188 2.75-1.20313 1.03906-.28124 2.24219-.42187 3.60938-.42187 1.7578 0 3.27343.21484 4.54687.64063 1.26953.42968 2.3125 1.09374 3.125 2 .82031.89843 1.42188 2.05468 1.79688 3.46874.3828 1.41797.57812 3.10157.57812 5.04688V0zm0 0"/></symbol><symbol id="m" overflow="visible"><path d="M5.53125 0v-41.28125h5.60938V0zm0 0"/></symbol><symbol id="n" overflow="visible"><path d="M3.01563-20.82813c0-3.22656.42968-6.14062 1.29687-8.73437.875-2.59375 2.17578-4.80078 3.90625-6.625 1.72656-1.83203 3.86719-3.23828 6.42188-4.21875 2.5625-.98828 5.53515-1.48438 8.92187-1.48438 2.53125 0 4.7539.22657 6.67188.67188 1.91406.44922 3.57812 1.09375 4.98437 1.9375 1.40625.83594 2.59375 1.85547 3.5625 3.0625.97656 1.19922 1.8125 2.54688 2.5 4.04688l-5.32813 1.57812c-.51171-1.00781-1.125-1.92578-1.84374-2.75-.71094-.83203-1.57422-1.53906-2.59376-2.125-1.01171-.59375-2.1875-1.05078-3.53124-1.375-1.33594-.32031-2.85938-.48438-4.57813-.48438-2.5 0-4.67188.39063-6.51563 1.17188-1.84374.78125-3.375 1.89844-4.59374 3.34375-1.21094 1.44922-2.10938 3.1875-2.70313 5.21875s-.89063 4.28906-.89063 6.76563c0 2.48046.32032 4.75.96875 6.8125.64454 2.0625 1.59766 3.83984 2.85938 5.32812 1.26953 1.49219 2.84766 2.65234 4.73438 3.48438 1.8828.83593 4.0664 1.25 6.54687 1.25 1.625 0 3.11719-.13282 4.48438-.40625C29.67188-4.64063 30.90624-5 32-5.4375c1.10156-.4375 2.07813-.92188 2.92188-1.45313.84374-.53906 1.54687-1.08593 2.10937-1.64062v-7.4375H24.70312v-4.6875H42.1875v14.23438c-.91797.9375-1.9961 1.83593-3.23438 2.6875-1.24218.84375-2.6328 1.58984-4.17187 2.23437-1.54297.64844-3.23438 1.15625-5.07813 1.53125-1.83593.375-3.79687.5625-5.89062.5625C20.34375.59375 17.30469.0625 14.70312-1c-2.59375-1.07031-4.7578-2.5625-6.48437-4.46875C6.48828-7.375 5.1875-9.63281 4.3125-12.25c-.86719-2.61328-1.29688-5.47266-1.29688-8.57813zm0 0"/></symbol></defs><use y="50" xlink:href="#a"/><use x="43.33" y="50" xlink:href="#b"/><use x="56.66" y="50" xlink:href="#c"/><use x="90.029" y="50" xlink:href="#b"/><use x="103.359" y="50" xlink:href="#d"/><use x="120.029" y="50" xlink:href="#e"/><use x="153.398" y="50" xlink:href="#f"/><g><use y="120" xlink:href="#g"/><use x="40.02" y="120" xlink:href="#h"/><use x="73.389" y="120" xlink:href="#i"/><use x="106.758" y="120" xlink:href="#j"/><use x="136.758" y="120" xlink:href="#d"/><use x="153.428" y="120" xlink:href="#e"/><use x="186.797" y="120" xlink:href="#d"/><use x="203.467" y="120" xlink:href="#b"/><use x="216.797" y="120" xlink:href="#k"/><use x="250.166" y="120" xlink:href="#l"/><use x="283.535" y="120" xlink:href="#j"/></g><g><use y="180" xlink:href="#g"/><use x="40.02" y="180" xlink:href="#m"/><use x="56.689" y="180" xlink:href="#n"/></g></svg>