<svg xmlns="http://www.w3.org/2000/svg" role="img" viewBox="-10.22 -10.22 531.44 113.94"><title>Digital Substations SIG logo</title><defs><style>.cls-1,.cls-2{fill:#0094ff;stroke-width:0}.cls-2{fill:#003778}</style></defs><path d="M12.53 50.51v-25H0v37.53h37.47V50.51H12.53z" class="cls-1"/><path d="M62.42.46H0v18.77h12.42v-6.14H50v37.42h-6.29v12.53h18.71V.46zm16.6.78h19.07v45.97h27.32v15.83H79.02V1.24zm54.53 0h47.78v15.82h-28.76v7.73h24.64v14.69h-24.64v23.56H133.5V1.24h.05z" class="cls-2"/><path d="M230.51 63.35h-34.59V1.08h34.59V5.1h-30.1v23.56h28.4v4.02h-28.4v26.75h30.1v3.92zm60.2 0h-4.48L248.81 8.04h-.31c.31 6.55.52 11.55.52 14.9V63.3h-4.23V1.08h4.38l37.42 55.26h.26c-.26-5.1-.41-10-.41-14.54V1.08h4.28v62.27zm52.42 0H308.6V1.08h34.53V5.1h-30.05v23.56h28.4v4.02h-28.4v26.75h30.05v3.92zm18.71-27.11V63.4h-4.38V1.08h15.05c7.83 0 13.61 1.44 17.42 4.28s5.62 7.16 5.62 12.89c0 4.23-1.08 7.73-3.35 10.62-2.27 2.89-5.62 4.95-10.15 6.13l17.16 28.35h-5.36l-16.34-27.16h-15.62v.05h-.05zm0-3.72h12.01c5.31 0 9.48-1.19 12.37-3.51 2.94-2.37 4.38-5.77 4.38-10.36s-1.44-8.14-4.28-10.36c-2.83-2.22-7.58-3.3-14.12-3.3h-10.36v27.52zm72.37-1.28h22.78v27.73c-5.98 2.53-12.68 3.76-20.21 3.76-9.74 0-17.22-2.68-22.37-8.14-5.1-5.46-7.83-13.09-7.83-23.04 0-6.24 1.29-11.7 3.87-16.49 2.58-4.79 6.29-8.5 11.08-11.08 4.79-2.63 10.36-3.97 16.55-3.97 6.7 0 12.78 1.24 18.14 3.71l-1.75 3.87c-5.36-2.42-10.93-3.71-16.65-3.71-8.14 0-14.64 2.42-19.33 7.42-4.69 5-7.16 11.6-7.16 20 0 9.17 2.27 16.08 6.8 20.67 4.54 4.64 11.19 6.91 20 6.91 5.72 0 10.52-.77 14.43-2.37V35.22h-18.4v-3.97h.05zm52.89 3.71l18.4-33.87h4.74l-20.98 37.99v23.97h-4.53V39.43L463.75 1.08h5l18.35 33.87z" class="cls-1"/><g><path d="M241.99 76.25h7.39c4.44 0 7.78 2.78 7.78 8.47 0 4.97-2.54 8.67-7.78 8.67h-7.39V76.25zm3.77 13.97h3.36c2.18 0 4.27-1.34 4.27-5.14 0-3.46-1.2-5.66-4.94-5.66h-2.69v10.8zm14.28-13.97h3.77v17.14h-3.77V76.25zm19.67 15.19c-1.32 1.7-3.05 2.35-4.7 2.35-5.3 0-8.42-3.96-8.42-8.91s3.12-9.05 8.42-9.05c3.5 0 6.82 2.16 7.22 6.05h-3.6c-.43-1.9-1.85-2.88-3.62-2.88-3.38 0-4.66 2.88-4.66 5.88s1.27 5.74 4.66 5.74c2.45 0 3.86-1.32 4.08-3.7h-3.79v-2.81h7.2v9.26h-2.4l-.38-1.94zm6.16-15.19h3.77v17.14h-3.77V76.25zm10.9 3.17h-5.14v-3.17h14.04v3.17h-5.14v13.97h-3.77V79.42zm13.92-3.17h3.86l6.41 17.14h-3.91l-1.3-3.82h-6.41L308 93.39h-3.82l6.5-17.14zm-.36 10.51h4.44l-2.16-6.29h-.05l-2.23 6.29zm12.43-10.51h3.77v13.97h8.35v3.17h-12.12V76.25zm23.95 11.45c0 2.28 1.78 3.17 3.79 3.17 1.32 0 3.34-.38 3.34-2.14 0-1.85-2.57-2.16-5.09-2.83-2.54-.67-5.11-1.66-5.11-4.87 0-3.5 3.31-5.18 6.41-5.18 3.58 0 6.86 1.56 6.86 5.52h-3.65c-.12-2.06-1.58-2.59-3.38-2.59-1.2 0-2.59.5-2.59 1.94 0 1.32.82 1.49 5.11 2.59 1.25.31 5.09 1.1 5.09 4.99 0 3.14-2.47 5.5-7.13 5.5-3.79 0-7.34-1.87-7.3-6.1h3.65zm27.82-.79c0 4.63-2.74 6.89-7.32 6.89s-7.3-2.23-7.3-6.89V76.25h3.77v10.66c0 1.87.48 3.72 3.53 3.72 2.69 0 3.55-1.18 3.55-3.72V76.25h3.77v10.66zm3.5-10.66h8.06c3.26 0 5.47 1.06 5.47 4.25 0 1.68-.84 2.86-2.33 3.58 2.09.6 3.14 2.21 3.14 4.34 0 3.48-2.95 4.97-6.05 4.97h-8.3V76.25zm3.77 6.94h3.82c1.32 0 2.3-.6 2.3-2.04 0-1.63-1.25-1.97-2.59-1.97h-3.53v4.01zm0 7.27h4.03c1.49 0 2.78-.48 2.78-2.26s-1.1-2.45-2.71-2.45h-4.1v4.7zm16.02-2.76c0 2.28 1.78 3.17 3.79 3.17 1.32 0 3.34-.38 3.34-2.14 0-1.85-2.57-2.16-5.09-2.83-2.54-.67-5.11-1.66-5.11-4.87 0-3.5 3.31-5.18 6.41-5.18 3.58 0 6.86 1.56 6.86 5.52h-3.65c-.12-2.06-1.58-2.59-3.38-2.59-1.2 0-2.59.5-2.59 1.94 0 1.32.82 1.49 5.11 2.59 1.25.31 5.09 1.1 5.09 4.99 0 3.14-2.47 5.5-7.13 5.5-3.79 0-7.34-1.87-7.3-6.1h3.65zm17.02-8.28h-5.14v-3.17h14.04v3.17h-5.14v13.97h-3.77V79.42zm13.92-3.17h3.86l6.41 17.14h-3.91l-1.3-3.82h-6.41l-1.34 3.82h-3.82l6.5-17.14zm-.36 10.51h4.44l-2.16-6.29h-.05l-2.23 6.29zm14.3-7.34h-5.14v-3.17h14.04v3.17h-5.14v13.97h-3.77V79.42zm10.93-3.17h3.77v17.14h-3.77V76.25zm14.97-.41c5.3 0 8.42 3.96 8.42 9.05s-3.12 8.91-8.42 8.91-8.42-3.96-8.42-8.91 3.12-9.05 8.42-9.05zm0 14.79c3.38 0 4.66-2.88 4.66-5.74 0-3-1.27-5.88-4.66-5.88s-4.66 2.88-4.66 5.88 1.27 5.74 4.66 5.74zm11.22-14.38h3.74l7.15 11.5h.05v-11.5h3.53v17.14h-3.77l-7.13-11.47h-.05v11.47h-3.53V76.25zm20.65 11.45c0 2.28 1.78 3.17 3.79 3.17 1.32 0 3.34-.38 3.34-2.14 0-1.85-2.57-2.16-5.09-2.83-2.54-.67-5.11-1.66-5.11-4.87 0-3.5 3.31-5.18 6.41-5.18 3.58 0 6.86 1.56 6.86 5.52h-3.65c-.12-2.06-1.58-2.59-3.38-2.59-1.2 0-2.59.5-2.59 1.94 0 1.32.82 1.49 5.11 2.59 1.25.31 5.09 1.1 5.09 4.99 0 3.14-2.47 5.5-7.13 5.5-3.79 0-7.34-1.87-7.3-6.1h3.65z" class="cls-2"/></g></svg>