<svg xmlns="http://www.w3.org/2000/svg" role="img" viewBox="-4.00 -4.25 208.00 110.25"><title>draf logo</title><path d="M30.55 97.21q.19-2 .47-7.45h-1.24c0-.21 0-.66.09-1.34s.06-1.18.06-1.49h1.45v-.7a9.17 9.17 0 0 1 .09-1.46 2.43 2.43 0 0 1 .36-.9 2.25 2.25 0 0 1 .73-.66 3 3 0 0 1 1.07-.39 7 7 0 0 1 1.23-.1 11.56 11.56 0 0 1 1.27.07 14.37 14.37 0 0 1 1.64.33c0 1.08.07 2 .14 2.69a5.26 5.26 0 0 0-1.81-.37 1.32 1.32 0 0 0-.86.25 1.2 1.2 0 0 0-.31.94v.3h2.34c-.06.78-.11 1.72-.17 2.83H35l-.33 7.45H32.6zm7.78 0l.32-4.51.1-2.59v-1.43-1.84H42.64v1.15a7.16 7.16 0 0 1 .65-.67 3.66 3.66 0 0 1 .58-.39 2.68 2.68 0 0 1 .68-.27 3.5 3.5 0 0 1 .74-.08 3.57 3.57 0 0 1 .81.1c0 .74 0 1.35.05 1.83l.07 1.56a3.66 3.66 0 0 0-1-.16 2.74 2.74 0 0 0-1.05.18 2.11 2.11 0 0 0-.78.54 2.74 2.74 0 0 0-.55.89 6.64 6.64 0 0 0-.28 1.71c0 .78-.08 1.67-.08 2.67v1.31h-2zm19.01-3.07c-.09.41-.26 1.39-.51 3a19.36 19.36 0 0 1-2 .31c-.54 0-1.08.08-1.63.08a13.91 13.91 0 0 1-2.2-.22 5 5 0 0 1-1.75-.6A4.11 4.11 0 0 1 48 95.65a4.4 4.4 0 0 1-.75-1.5 6 6 0 0 1-.26-1.8 6.66 6.66 0 0 1 .51-2.54 5.1 5.1 0 0 1 1.34-1.94 4.88 4.88 0 0 1 1.88-1 8.5 8.5 0 0 1 2.19-.29 8.86 8.86 0 0 1 2.21.27 4.07 4.07 0 0 1 1.78.94 3.81 3.81 0 0 1 1 1.51 5.15 5.15 0 0 1 .31 1.82 7 7 0 0 1-.13 1.29H51v.29a1.79 1.79 0 0 0 .78 1.61 3.42 3.42 0 0 0 1.91.51 9 9 0 0 0 1.53-.15c.57-.1 1.28-.28 2.12-.53zm-6.25-3.28h3.35v-.29a1.93 1.93 0 0 0-.19-.9 1.09 1.09 0 0 0-.53-.55 1.73 1.73 0 0 0-.79-.18 2 2 0 0 0-.59.1 1.64 1.64 0 0 0-.89.72 1.85 1.85 0 0 0-.23.47 5.24 5.24 0 0 0-.13.63zm18.55 3.28c-.08.41-.25 1.39-.5 3a19.36 19.36 0 0 1-2 .31c-.54 0-1.08.08-1.63.08a13.82 13.82 0 0 1-2.22-.17 5 5 0 0 1-1.75-.6 4 4 0 0 1-1.24-1.06 4.61 4.61 0 0 1-.76-1.5 6.36 6.36 0 0 1-.25-1.8 6.66 6.66 0 0 1 .51-2.54 5 5 0 0 1 1.34-1.94 4.81 4.81 0 0 1 1.88-1 8.44 8.44 0 0 1 2.19-.29 8.86 8.86 0 0 1 2.21.27 4.07 4.07 0 0 1 1.78.94 3.81 3.81 0 0 1 1 1.51 5.15 5.15 0 0 1 .31 1.82 7 7 0 0 1-.13 1.29h-7.06v.29a1.79 1.79 0 0 0 .78 1.61 3.42 3.42 0 0 0 1.91.51 9 9 0 0 0 1.53-.15c.56-.15 1.27-.33 2.1-.58zm-6.24-3.28h3.35v-.29a1.93 1.93 0 0 0-.19-.9 1.07 1.07 0 0 0-.54-.55 1.66 1.66 0 0 0-.78-.18 1.92 1.92 0 0 0-.59.1 1.58 1.58 0 0 0-.51.28 1.81 1.81 0 0 0-.39.44 2.19 2.19 0 0 0-.22.47 5.24 5.24 0 0 0-.13.63zm12.86 10.99c-.21-1.62-.36-2.62-.43-3a5.44 5.44 0 0 0 1.13.41 3.66 3.66 0 0 0 .85.11 2.34 2.34 0 0 0 .71-.1A1.68 1.68 0 0 0 79 99a1.86 1.86 0 0 0 .42-.45 2.66 2.66 0 0 0 .38-.55 3.31 3.31 0 0 0 .23-.63l-1.91-5.77-1.64-4.8h4.12c.12.52.36 1.42.71 2.7s.6 2.29.76 3c.09.4.17.91.25 1.52l.22-.81.23-.74c.09-.28.2-.61.34-1l.66-1.84 1.09-2.84h3.92l-2 4.43-3.54 8.22a6.6 6.6 0 0 1-.66 1.09 3.69 3.69 0 0 1-1.34 1.07 5.26 5.26 0 0 1-1.12.37 6.9 6.9 0 0 1-1.36.14h-.84l-.83-.09c-.2-.02-.48-.09-.83-.17zm19.18-15.27a7.81 7.81 0 0 1 2.42.38 5.43 5.43 0 0 1 2 1.12 4.47 4.47 0 0 1 1.14 1.69 5.55 5.55 0 0 1 .38 2.09 6.24 6.24 0 0 1-.34 2.07 5.13 5.13 0 0 1-3.22 3.12 8.33 8.33 0 0 1-5.13 0 5.4 5.4 0 0 1-2-1.1 4.48 4.48 0 0 1-1.19-1.72 5.73 5.73 0 0 1 0-4.23 5 5 0 0 1 1.23-1.81A5.89 5.89 0 0 1 92.84 87a7.84 7.84 0 0 1 2.6-.42zm-.07 3a2.1 2.1 0 0 0-1.16.34 2 2 0 0 0-.76 1 3.61 3.61 0 0 0-.26 1.41 2.38 2.38 0 0 0 .56 1.67 1.86 1.86 0 0 0 1.4.59 2 2 0 0 0 1.15-.34 2.11 2.11 0 0 0 .76-1 4 4 0 0 0 .26-1.43 3.17 3.17 0 0 0-.2-1.14 1.71 1.71 0 0 0-.67-.81 2 2 0 0 0-1.08-.31zm18.89 7.63H110.41v-1.39a6.82 6.82 0 0 1-.62.69 3.69 3.69 0 0 1-.55.4 5.19 5.19 0 0 1-.67.3 4.65 4.65 0 0 1-.85.19 6.48 6.48 0 0 1-1 .08 6.14 6.14 0 0 1-1.52-.19 3.27 3.27 0 0 1-1.26-.64 2.28 2.28 0 0 1-.74-1 3.82 3.82 0 0 1-.2-1.32v-.57l.16-2.31c0-.84.09-1.78.13-2.81v-1.79h4.15l-.32 3.87c0 .59-.07 1-.07 1.2v.44a1.9 1.9 0 0 0 .43 1.44 1.54 1.54 0 0 0 1 .37 1.86 1.86 0 0 0 1-.27 1.69 1.69 0 0 0 .36-.3 2 2 0 0 0 .31-.47 3.58 3.58 0 0 0 .24-.72 10 10 0 0 0 .17-1.36c0-.4.07-1.09.11-2.08l.08-2.12h4.05c-.15 1.72-.28 3.36-.36 4.91s-.13 3.36-.18 5.45zm2.29 0l.31-4.51.1-2.59v-1.43-1.84h3.94v1.15a7.16 7.16 0 0 1 .65-.67 3.66 3.66 0 0 1 .58-.39 2.84 2.84 0 0 1 .68-.27 3.65 3.65 0 0 1 .74-.08 3.59 3.59 0 0 1 .82.1v1.83l.07 1.56a3.67 3.67 0 0 0-1-.16 2.82 2.82 0 0 0-1 .18 2.28 2.28 0 0 0-.78.54 2.56 2.56 0 0 0-.54.89 6.55 6.55 0 0 0-.29 1.71c-.05.78-.08 1.67-.08 2.67v1.31h-2zm14.59 0q.2-2 .47-7.45h-1.24c0-.21 0-.66.09-1.34s0-1.18.06-1.49H132v-.7a9 9 0 0 1 .1-1.46 2.13 2.13 0 0 1 .36-.9 2.25 2.25 0 0 1 .73-.66 3.06 3.06 0 0 1 1.06-.39 7.16 7.16 0 0 1 1.24-.1 11.69 11.69 0 0 1 1.27.07 14.37 14.37 0 0 1 1.64.33c0 1.08.07 2 .13 2.69a5.21 5.21 0 0 0-1.8-.37 1.32 1.32 0 0 0-.86.25 1.17 1.17 0 0 0-.31.94v.3h2.33c0 .78-.1 1.72-.16 2.83h-2.11l-.33 7.45h-2.08zm7.77 0l.18-2.18.4-7.6.11-4.08h4.17l-.24 3.12-.37 7.67-.08 3.07h-4.17zm16.51-3.07c-.08.41-.25 1.39-.5 3a19.36 19.36 0 0 1-2 .31c-.54 0-1.08.08-1.63.08a13.82 13.82 0 0 1-2.22-.17 5 5 0 0 1-1.75-.6 4 4 0 0 1-1.24-1.06 4.61 4.61 0 0 1-.76-1.5 6.36 6.36 0 0 1-.25-1.8 6.66 6.66 0 0 1 .51-2.54 5 5 0 0 1 1.34-1.94 4.81 4.81 0 0 1 1.88-1 8.44 8.44 0 0 1 2.19-.29 8.92 8.92 0 0 1 2.21.27 4.07 4.07 0 0 1 1.78.94 3.81 3.81 0 0 1 1 1.51 5.15 5.15 0 0 1 .31 1.82 8 8 0 0 1-.13 1.29h-7.06v.29a1.79 1.79 0 0 0 .78 1.61 3.42 3.42 0 0 0 1.91.51 9 9 0 0 0 1.53-.15c.56-.15 1.27-.33 2.1-.58zm-6.24-3.28h3.35v-.29a1.93 1.93 0 0 0-.19-.9 1.07 1.07 0 0 0-.54-.55 1.66 1.66 0 0 0-.78-.18 1.92 1.92 0 0 0-.59.1 1.75 1.75 0 0 0-.52.28 2 2 0 0 0-.38.44 2.19 2.19 0 0 0-.22.47 5.24 5.24 0 0 0-.13.63zm7.4 6.35l2.32-3.08 1.71-2.35-3.18-4.94h4.75l1.08 2.33.29.66c.52-.9 1.14-1.89 1.85-3H169.79L168.16 89q-.48.61-2 2.76c.62 1.07 1.76 2.9 3.41 5.47H164.87c-.44-.95-.78-1.65-1-2.1s-.43-.87-.6-1.25l-.32.56c-.1.17-.26.42-.47.75l-1.29 2h-2.13zm19.93 0c.05-.63.09-1.11.11-1.45s0-1 .1-2.08H180.91c-.1 1.52-.16 2.7-.18 3.53h-2.06zM177 92c.1-2.38.18-5.28.24-8.68H181.38c-.13 1.24-.36 4.14-.68 8.68h-1.66z"/><path fill-rule="evenodd" d="M72 69.72c-24.1 5.9-44.33 8.4-72 2.55C20.8 60.19 26.83 25.81 30.58 23c7.81.41 7.12 3.92 13.36 2 4.77 28.49 34.53 38.54 28 44.75zM44 19.33c-1.42-1.73 1.42-6.27 6.33-10.15s10-5.61 11.45-3.88c-5.09 1.18-12.35 6.32-16.2 11.49A15.67 15.67 0 0 0 44 19.33zm-6-.13c-1.74-.71-1.72-4.69.05-8.89s4.62-7 6.36-6.33c-3.07 2.45-5.94 8.26-6.4 13a11 11 0 0 0 0 2.22zm-6.09-.44C33 17 31.42 14 28.35 12.23s-6.43-1.8-7.53 0c2.21-1.14 6.17-.08 8.83 2.38a6.18 6.18 0 0 1 2.26 4.15z"/><path fill="#fff" fill-rule="evenodd" d="M53.53 59.6c-.76.62-3.76-1.73-6.71-5.24s-4.72-6.85-4-7.47c1.45 3.25 5.48 8.35 9 11.4a17.41 17.41 0 0 0 1.68 1.31zm-30.79 1.71c.62.34 2.94-2.62 5.18-6.6s3.55-7.48 2.93-7.82A55.51 55.51 0 0 1 24 59.66c-.47.64-.9 1.2-1.3 1.65z"/><path fill="#de7400" fill-rule="evenodd" d="M12.38 13.5a3.52 3.52 0 0 1 3.44-3.6 3.52 3.52 0 0 1 3.43 3.6 3.52 3.52 0 0 1-3.43 3.6 3.52 3.52 0 0 1-3.44-3.6zm33-10.8a2.53 2.53 0 1 1 5 0 2.53 2.53 0 1 1-5 0zM62.8 6.08a2.53 2.53 0 1 1 2.52 2.47 2.5 2.5 0 0 1-2.52-2.47z"/><path d="M106.74 67.57h-9.47v-4.23h-.12a10.63 10.63 0 0 1-9.51 5 11.67 11.67 0 0 1-9.26-4.06q-3.51-4.07-3.51-11.35 0-7.62 3.87-12.2a12.6 12.6 0 0 1 10.13-4.59q5.94 0 8.28 4.26h.12V22.12h9.47zm-9.29-14.93v-2.31a7.27 7.27 0 0 0-1.74-5 6.14 6.14 0 0 0-9.45.5 11.48 11.48 0 0 0-1.77 6.79 9.89 9.89 0 0 0 1.71 6.23 6.07 6.07 0 0 0 9.43-.12 9.58 9.58 0 0 0 1.82-6.09zm37.29-7.23a8.22 8.22 0 0 0-4-.93 5.75 5.75 0 0 0-4.82 2.27 9.87 9.87 0 0 0-1.74 6.16v14.66h-9.47v-30.7h9.47v5.69h.12q2.25-6.23 8.09-6.23a6.1 6.1 0 0 1 2.34.36zm29.95 22.16h-9v-4.41h-.12a10 10 0 0 1-9.15 5.16 9.58 9.58 0 0 1-7-2.54 9.09 9.09 0 0 1-2.55-6.78q0-8.93 10.58-10.31l8.34-1.11q0-5-5.46-5a18.61 18.61 0 0 0-10.43 3.27V38.7a23.44 23.44 0 0 1 5.41-1.8 28.42 28.42 0 0 1 6.25-.78q13.14 0 13.13 13.1zm-8.9-12.47V53l-5.58.72q-4.62.6-4.62 4.17a3.45 3.45 0 0 0 1.13 2.65 4.31 4.31 0 0 0 3 1 5.61 5.61 0 0 0 4.35-1.84 6.65 6.65 0 0 0 1.72-4.6zm36.42-25.73a9.49 9.49 0 0 0-3.5-.72q-4.56 0-4.56 5v3.27h7v7h-7v23.65h-9.44V43.85h-5.16v-7h5.16v-3.79a11.07 11.07 0 0 1 3.41-8.45q3.42-3.21 9.3-3.21a16.21 16.21 0 0 1 4.79.6z"/><circle cx="196.21" cy="63.57" r="4" fill="#de7400"/></svg>