<svg xmlns="http://www.w3.org/2000/svg" role="img" viewBox="-6.49 -6.49 258.74 337.74"><title>Dragonfly logo</title><g transform="translate(-16.05 -12.335)"><g stroke-width="1.333" transform="translate(3.99)"><path fill="#d2d2d2" d="M124.66666 255.93594c-2.93333-1.46968-6.83333-3.58391-8.66666-4.69828-3.4752-2.11235-14.75734-1.80739-17.80784.48136-.83902.62951-4.12162 1.29947-7.29465 1.48879-11.03664.65853-18.18404-7.15046-20.8139-22.74051-1.12771-6.68516-3.55068-8.47969-8.92139-6.60745-2.32475.81041-6.82675 1.47348-10.00444 1.47348-4.99707 0-6.59138-.77972-11.80104-5.77144-6.0088-5.75746-6.0234-5.79387-6.0234-15.0208 0-10.77929-2.33708-16.10579-9.30721-21.21235-2.5523-1.86989-6.3023-5.87412-8.33334-8.89825-4.95533-7.37831-4.85206-13.41376.3704-21.64872C19.9434 146.6633 34.65065 128.80638 38.12109 126c3.5989-2.91027 8.54558-11.91815 8.54558-15.56146 0-2.1208-1.25717-7.58707-2.7937-12.14727-3.105-9.21516-2.73062-18.13684 1.07005-25.49978 3.87258-7.50223 23.0078-24.56904 31.54701-28.13695 5.94896-2.48563 15.86435-2.46368 22.8433.05058 6.46831 2.33029 13.1649 2.49568 17.08766.42202C119.20715 43.6543 135.2177 30.31564 138 27.14929c3.2973-3.75245 18.39353-13.6905 21.99933-14.48247 6.29441-1.38249 12.50299 1.53018 19.87345 9.32337 9.93703 10.50694 11.49706 11.3364 21.4239 11.3911l8.70331.04795-4 3.40527L202 40.23977l5.71559-3.11988L213.43119 34l5.46979 5.8138 5.4698 5.81378-.85607 11.13716c-.95512 12.42572-.62525 12.98083 8.48528 14.27926 2.56667.3658 6.46667 1.41474 8.66667 2.33098l4 1.66589-3.33333 1.11364c-2.95827.98834-2.83824 1.06719 1.06666.70071 3.55811-.33393 4.91315.3077 7.08178 3.35325 4.08796 5.741 4.44689 11.44175 1.30724 20.76169-1.53396 4.55348-2.78902 9.13066-2.78902 10.1715 0 1.04085 2.25 5.10978 5 9.04206 4.50255 6.43829 5 7.99219 5 15.61837 0 8.23532-.146 8.5913-5.29684 12.9157-6.41613 5.38667-13.29548 6.60722-29.85357 5.2967-12.33695-.97645-22.84958.74315-22.84958 3.73757 0 .90712 4.48293 5.94566 9.96206 11.19675 16.18741 15.51373 26.00277 32.93176 26.02491 46.18301.026 15.52591-6.54931 21.77677-21.63315 20.56599-10.8462-.87063-26.61618-8.43468-35.67633-17.11211-1.19501-1.14452-3.33631-2.94452-4.75845-4-1.42214-1.05547-4.87588-4.76904-7.67498-8.25237-5.27605-6.56577-9.26238-8.02616-10.91861-4-.52792 1.28333-1.42425 11.79008-1.99184 23.34833-.71015 14.46124-1.59879 21.703-2.84947 23.22112-1.59096 1.93116-1.92064 1.22304-2.64521-5.68167l-.82775-7.88778.0533 9.092c.0505 8.59729-.1584 9.23161-3.83892 11.65788-4.98835 3.28841-11.80977 3.23428-18.55898-.14727zM135 252.3399c-11.66888-.41627-12.33901-.59891-12.4386-3.38995-.0579-1.62248-.41449-2.18016-.79244-1.2393-1.87036 4.65605.5301 5.62902 13.1892 5.34596l12.37517-.27672zm9.55886-32.00657c-.47777-16.68334-1.26126-36.48333-1.74109-44-.58761-9.20517-.41565-13.66667.52676-13.66667 1.82628 0 17.23272 15.77576 19.23316 19.69423.85009 1.66515 1.12517 3.70785.61129 4.53935-.52445.84857-.34457 1.14729.41003.68092 1.6698-1.032 4.76411 5.41928 3.54525 7.39142-.56988.9221-.25493 1.04718.87631.34803 1.27965-.79087 1.53317-.48484.92067 1.11133-.488 1.27168-.23154 2.0686.60674 1.88539.7986-.17453 1.75486.51619 2.12499 1.53493.4648 1.27927.10387 1.51771-1.16667.7708-1.0118-.5948-.70945.20754.6719 1.78296 1.38133 1.57544 2.94412 2.59707 3.47285 2.27029.52872-.32677 2.35312.88738 4.05421 2.69811 1.7011 1.81073 2.61486 3.29224 2.03056 3.29224-.58429 0-.34501.86433.53174 1.92075.87674 1.05641 2.35408 1.6291 3.28297 1.27265.92889-.35645 2.53503.39439 3.56919 1.66853 1.60534 1.9779 1.60645 2.1516.008 1.188-1.28071-.77185-1.5677-.63514-.90787.43247.53064.8586 1.51095 1.22356 2.17845.81103 1.71484-1.05983 6.83824 1.91245 5.90352 3.42486-.43678.70674.22234.86912 1.51472.37319 1.67518-.64283 1.99566-.405 1.19658.88795-.69915 1.13124-.57407 1.44618.34802.8763 1.97215-1.21885 8.42343 1.87546 7.39143 3.54526-.45698.7394-.18715.94653.59962.46028.78676-.48626 4.91536.0236 9.17467 1.13301l7.7442 2.01711 3.93597-3.93599 3.93599-3.93597-2.26625-8.1513c-1.24644-4.4832-1.86083-8.80728-1.36531-9.60905.58147-.94083.27475-1.07075-.86497-.36636-1.29295.79908-1.53078.4786-.88795-1.19657.59168-1.54189.37428-1.97668-.66667-1.33333-1.04096.64333-1.25834.20854-.66666-1.33334.59168-1.54189.37428-1.97668-.66667-1.33333-1.04096.64333-1.25835.20855-.66667-1.33333.59168-1.5419.37428-1.97668-.66666-1.33334-1.0255.63379-1.264.22328-.70963-1.22138.45925-1.19682.16852-2.58795-.64609-3.0914-.95927-.59287-1.10106-.30043-.40243.82997.73523 1.18963.55961 1.42455-.55156.73781-.89663-.55414-1.31553-1.82764-.93091-2.82998.38464-1.00234.0328-2.23435-.78177-2.7378-.95927-.59287-1.10105-.30043-.40243.82997.73523 1.18963.55962 1.42455-.55156.73781-.89662-.55414-1.325-1.80298-.95192-2.7752.37307-.9722-.18602-2.48497-1.24244-3.36172-1.05681-.87674-1.92114-1.14714-1.92114-.60089s-.92731.22359-2.06068-.71703c-1.13338-.94061-1.77384-2.4577-1.42326-3.37132.78888-2.05577-3.9685-6.53605-6.96611-6.56038-1.21535-.009-2.21127-.71794-2.21316-1.5735-.001-.85554-.54966-2.05554-1.21723-2.66666-.7166-.656-.77712-.35759-.14773.72853.73346 1.26573.48818 1.62969-.78623 1.16667-1.01875-.37014-1.70947-1.32639-1.53493-2.12499.18321-.83828-.61371-1.09475-1.88539-.60675-1.46787.56327-1.88424.32995-1.24809-.69938.64334-1.04095.20856-1.25835-1.33334-.66667-1.67517.64283-1.99565.405-1.19657-.88795.72225-1.16862.57595-1.44736-.43256-.82406-2.91609 1.80224-12.93768-4.1996-20.71153-12.40395-4.30291-4.5412-7.60291-8.43872-7.33334-8.66117.26959-.22244 13.99015.0624 30.49015.63286 31.50808 1.08946 47.5511 1.48702 53.66666 1.32994l3.66667-.0942V124h-6.64127c-6.17038 0-6.69558-.25997-7.4074-3.66667-.42138-2.01667-1.56581-7.11667-2.54318-11.33333l-1.77704-7.66667 4.8511-.0204c8.04196-.0338 8.71211-1.08908 7.6882-12.10593-.49673-5.34462-1.07912-9.89348-1.29421-10.10856-.21508-.21509-15.05021 1.03096-32.96696 2.769-28.58193 2.77262-37.65973 3.1184-32.43186 1.23535.81256-.29268 7.90781-4.71797 15.76724-9.83399 7.85942-5.11602 14.85947-8.94981 15.55566-8.51955.69619.43027 1.10092.06271.89943-.8168-.20151-.8795.46714-1.90194 1.48589-2.27208 1.24239-.4514 1.50381-.10917.79399 1.03934-.6991 1.13115-.52843 1.38486.50281.74752.8586-.53065 1.23451-1.49325.83533-2.13912-.39916-.64587.64106-1.88568 2.31159-2.75514 1.67055-.86946 3.24092-1.75314 3.48975-1.96374.24881-.2106-2.02618-4.62678-5.05552-9.81375-5.4721-9.36952-5.52886-9.41714-8.7271-7.32157-1.77054 1.16011-3.86043 1.71298-4.64418 1.2286-.78375-.4844-1.26013-.2209-1.05864.58552.20151.80643-1.23504 2.46052-3.19233 3.67575-3.43768 2.13439-3.84575 2.05904-12-2.21567-10.50242-5.5057-11.63958-6.49681-9.19064-8.01033 2.58689-1.5988 2.89186-4.93963.62281-6.82278-1.0304-.85516-1.87347-1.08838-1.87347-.51827 0 .57012-1.2-.0494-2.66666-1.37672-2.93688-2.65784-3.63974-5.37961-1-3.87247.91666.52336-.13334-1.08823-2.33334-3.58132-2.2-2.49309-4.16101-4.7969-4.35781-5.11958-.19679-.32268-2.72193 1.72183-5.61144 4.54335-2.88949 2.82152-4.99264 5.55234-4.67363 6.0685.85648 1.38582-4.31418 5.68478-5.76157 4.79024-.68153-.4212-2.31233.42001-3.624 1.86939-1.31167 1.44937-1.89887 2.63522-1.30488 2.63522s-.0252 1.22116-1.37589 2.7137c-1.35072 1.49252-3.18734 2.43298-4.08138 2.08991-1.71418-.6578-6.36642 3.59492-5.20413 4.75721.89513.89513-3.94326 5.23257-6.22165 5.57749-2.7735.41987-5.22779 2.27033-4.5232 3.41037.56461.91356-12.8203 13.45132-14.3602 13.45132-.33612 0-.95295-1.36194-1.37074-3.02653-.41779-1.6646-2.13283-4.50051-3.81121-6.30204-1.67838-1.80153-3.0516-3.8396-3.0516-4.52902 0-.68944-.9-1.4992-2-1.79947-1.77778-.4853-1.77778-.37255 0 1.01466 1.65428 1.29085 1.53904 1.38315-.66667.53393-4.06357-1.5645-19.33263-1.63576-18.37467-.08575.46498.75235-.0756.9734-1.26466.51711-1.83253-.7032-7.73829 3.81679-7.41762 5.6771.0632.36667-.3168 2.02687-.84444 3.68933-.945 2.97744-9.33845 7.60452-11.43926 6.30615-1.29994-.8034-9.32793 8.14032-9.32103 10.38425.0028.89115 1.1055-.17972 2.4506-2.37972 1.34507-2.2 3.59283-4.88185 4.995-5.95965 2.10996-1.62186 2.061-1.39202-.28396 1.33333-5.0325 5.84882-6.0269 9.15359-5.5898 18.577.23274 5.01794.84308 8.86502 1.35628 8.54908 1.32186-.81378 3.84046 4.28223 2.68665 5.43604-.5242.5242-.35308.76043.38025.52495 1.09734-.35236 9.43941 2.41108 11.14472 3.69187.9206.69142-10.84973 13.77505-11.84114 13.16232-1.26645-.7827-4.42143 2.9489-4.82646 5.70858-.16854 1.14831-2.27012 3.93779-4.67019 6.19883-3.24227 3.05445-3.69254 3.25432-1.75201.77765L44.66667 130l-2.96856 2.51153c-1.63271 1.38133-2.65277 3.02248-2.26681 3.64697.38596.62451-1.57819 3.42591-4.36478 6.22536-2.78659 2.79944-3.86652 3.5583-2.39985 1.68635l2.66666-3.40355-3.62557 3.19382c-1.99406 1.7566-3.30867 3.70657-2.92134 4.33328.8161 1.32049-12.96082 17.40961-14.0096 16.36084-.38477-.38478-.11697-1.12944.59513-1.6548.7121-.52536 3.38217-3.34274 5.9335-6.26083 4.02956-4.60884 3.7695-4.47417-1.98012 1.02536l-6.6189 6.33099 5.15756 5.00234c2.83666 2.75128 4.7423 4.25234 4.23476 3.33567-1.4574-2.63223 1.23982-1.94084 3.90125 1C27.3273 174.8 27.94684 176 27.37672 176c-.57011 0-.27842.91352.64821 2.03004 1.5038 1.81196 2.05114 1.78998 5.0951-.20448 2.04964-1.34299 3.59387-1.68386 3.87037-.85435.25303.75909 2.58096 4.90111 5.17317 9.20448 4.47277 7.42532 4.60749 7.99428 2.6419 11.15764-1.13918 1.83333-2.73102 3.16847-3.53745 2.96696-.80643-.20149-1.06286.28631-.56985 1.08403.49302.7977-.12117 2.57475-1.36484 3.94901-1.29274 1.42846-1.83597 3.24845-1.26834 4.24932.7896 1.39222.6317 1.41588-.77121.11546-1.45411-1.34782-1.32146-2.16786.7549-4.66666l2.519-3.03151-3.2468 3-3.2468 3 3.14646 3c1.73055 1.65 2.72847 2.25 2.2176 1.33333-1.38158-2.47901 1.28474-2.0167 3.3986.58928 1.57836 1.94582 1.55498 2.09392-.17007 1.07739-1.72505-1.01653-1.74844-.86843-.17008 1.07739 1.9811 2.4423 3.5114 3.09292 2.17008.92261-1.4199-2.29743.67048-1.46613 5.41702 2.15423l4.57242 3.48756 2.75108-3.15423 2.75108-3.15423-2.23248 3.66667c-2.67442 4.39251-2.45684 4.36777-7.71996.87775L46 217.08882l3.74102 3.45559c2.05756 1.90057 4.2667 3.45558 4.9092 3.45558 1.92675 0 6.3527-7.19129 5.65336-9.1856-.361-1.02946-.0473-1.48005.70624-1.01434.74567.46085 1.2735-.20563 1.17297-1.48107-.1011-1.28257.60638-2.15525 1.58298-1.95261.97118.20149 1.40778-.21288.97023-.92086-.86516-1.39985 17.27962-29.79083 19.5684-30.61849.77006-.27846 1.07986.0215.68844.66667-.8951 1.47528-6.86823 64.42918-6.17182 65.04809.28177.25043 5.09492.73653 10.6959 1.08024l10.18358.62492.66006-5.856c.36303-3.2208.88041-6.06301 1.14975-6.31601.26933-.253 5.28969.567 11.15635 1.82222l10.66667 2.28223.40639 6.24364.40639 6.24364h21.28143zM130 238.66666l-.9285-8h-4.98914c-4.49325 0-21.27152-3.72829-27.0157-6.00315-1.96704-.779-2.31955.2194-2.66667 7.55275-.34509 7.29045-.76603 8.4972-3.06666 8.79137-6.29323.80468-6.30113.63112-2.03262-44.66155 2.21794-23.53426 4.03262-43.54854 4.03262-44.47618 0-.92765-2.25 1.96475-5 6.42754C78.8721 173.65145 52.66576 213.32202 52 213.29805c-.36667-.0133-2.0191-1.06508-3.67206-2.3375l-3.00538-2.31349 4.87373-7.23708c4.7119-6.99676 4.80158-7.35064 2.70075-10.65686-4.66647-7.34398-12.8989-24.75283-12.93312-27.34926-.03069-2.32918-.74323-1.97636-4.78 2.36688-4.66748 5.02186-4.79043 5.06504-7.63059 2.68088-1.58766-1.33276-3.1505-2.59342-3.47295-2.80148-.32245-.20804 2.13246-3.21444 5.45535-6.68086 9.36719-9.77183 53.13093-59.8958 53.13093-60.85251 0-.46856-1.7702.06349-3.93378 1.18232-13.33554 6.89608-27.78665-5.14716-22.20524-18.50536 2.08565-4.99166 8.93614-10.11369 13.53784-10.12208 1.88778-.0035 3.23232-1.38817 4.35054-4.48058 2.21039-6.1127 5.71365-8.95004 12.10992-9.80796 4.85292-.65092 5.87583-.248 10.1035 3.97966 5.5606 5.5606 6.29786 11.91787 2.01376 17.36422-1.62915 2.07113-2.1597 3.74779-1.3452 4.25117.7397.45717 16.01231-12.1009 33.9391-27.9068 17.9268-15.80592 33.08782-28.73803 33.69115-28.73803.60332 0 1.89764 1.2821 2.87625 2.84912 1.59842 2.55946 1.36892 3.2595-2.2573 6.88573l-4.03662 4.03662 10.24471 4.4413c5.63459 2.44272 12.73431 6.1892 15.77713 8.3255l5.53244 3.8842 6.7483-4.54456c3.71157-2.49952 7.38483-4.54457 8.16282-4.54457 1.43257 0 4.9206 6.33 3.90727 7.09081-.30246.22709-14.56692 9.52295-31.69881 20.65748-18.52499 12.03994-29.60255 19.9741-27.33334 19.57717 2.09856-.36708 20.31556-2.15943 40.48223-3.98299 20.16666-1.82356 38.91666-3.62871 41.66666-4.01144 4.93267-.68651 5-.63492 5 3.83121v4.5271l-8.40844.90046-8.40844.90047 3.00358 8.92153c1.65197 4.90684 3.40566 12.67153 3.8971 17.25486l.89352 8.33333h14.52498L245.08447 135c-.2298 2.38333-.87001 4.26781-1.42269 4.18773-.55269-.0801-17.77184-.58197-38.26477-1.11532-29.08827-.75704-39.30553-1.49591-46.58735-3.36896l-9.32745-2.39925 4.12757 7.51457c5.9017 10.74451 21.44926 26.42303 30.06647 30.31969 11.02997 4.98774 16.95784 9.468 23.32124 17.62614 11.0574 14.17605 18.60258 30.70083 15.64509 34.26441-3.27361 3.94446-24.41678-6.01283-37.05766-17.45216-5.9249-5.36172-9.51016-10.20305-14.01462-18.92451-7.21105-13.96193-18.73701-25.84078-31.15589-32.10981l-8.15649-4.11739 1.74949 7.62076c2.35072 10.23963 3.07961 20.55128 4.09661 57.95409l.86103 31.66667h-4.01828c-3.91917 0-4.04117-.19731-4.94677-8zm75.87331-63l-2.53998-3 3 2.53999c2.81925 2.38696 3.60698 3.46001 2.53998 3.46001-.25301 0-1.60301-1.35-3-3zm-188-8l-2.53998-3 3 2.53999c1.65 1.39699 3 2.74699 3 3 0 1.067-1.07306.27927-3.46001-2.53999zm31.46002-42.83674c0-.27687 1.05-1.32687 2.33334-2.33333 2.11474-1.65849 2.1619-1.61133.5034.50341-1.74182 2.22099-2.83674 2.9273-2.83674 1.82992zm23.33333-70.16326C73.99398 53.2 75.37996 52 75.74663 52c.36667 0-.41932 1.2-1.74663 2.66666-1.32732 1.46667-2.7133 2.66667-3.07997 2.66667-.36667 0 .41932-1.2 1.74663-2.66667zm60.66667-12.5034c0-.27688 1.05-1.32688 2.33333-2.33333 2.11475-1.6585 2.16191-1.61134.50342.5034-1.74183 2.221-2.83675 2.9273-2.83675 1.82993zM144 32.82993c0-.27688 1.05-1.32688 2.33333-2.33334 2.11475-1.6585 2.16191-1.61133.50341.5034C145.09492 33.221 144 33.9273 144 32.82994zm14.58814-13.16896l4.58814-4.98038 3.07853 2.89212c3.71341 3.48857 4.16356 5.15587.49587 1.83666-2.72819-2.46898-3.91448-2.16123-9.41735 2.443-1.83333 1.53394-1.26867.54781 1.25481-2.1914zm-71.2548 227.10357L78 245.99999l-.8108-5.33333-.81079-5.33333-.1892 4.73333c-.26888 6.72644 1.62922 7.97059 11.74412 7.69788l8.73333-.23544zm14.91081-3.01455c-.42564-1.06364-.74158-.7477-.80556.80556-.0579 1.40555.25724 2.19306.7003 1.75.44305-.44306.49042-1.59306.10526-2.55556zm130.9076-22.77104c-.17652-2.89588-.19709-2.89992-.73769-.14465-.30585 1.55887-2.02415 4.21345-3.81843 5.89908-1.79426 1.68563-3.24472 3.7102-3.22322 4.49903.0215.78884 1.8215-.52522 4-2.92012s3.87921-5.6949 3.77934-7.33334zM252.91081 143.75c-.42563-1.06364-.74158-.74771-.80555.80556-.0579 1.40554.25723 2.19305.70029 1.75.44306-.44307.49042-1.59307.1052-2.55556zm-3.24415-21.96638c-.91667-.36988-2.41667-.36988-3.33333 0-.91667.36989-.16667.67252 1.66666.67252 1.83334 0 2.58334-.30263 1.66667-.67252zm-1.93609-25.94741c-.45226-4.39203-.48006-4.36424-1.12904 1.12904-.36596 3.09756-.15731 5.12385.46366 4.50288.62098-.62098.9204-3.15534.66538-5.63192zM47.57748 90.41666c-.42563-1.06364-.74157-.7477-.80555.80556-.0579 1.40556.25724 2.19306.7003 1.75.44305-.44306.49041-1.59306.10526-2.55556zM246.25243 79c-.33537-1.28333-.60977-.23333-.60977 2.33333 0 2.56667.2744 3.61667.60977 2.33333.33536-1.28333.33536-3.38333 0-4.66666zm-13.28021-1.1389c-.44307-.44305-1.59307-.49041-2.55556-.10526-1.06364.42564-.74771.74158.80556.80556 1.40555.05789 2.19305-.25724 1.75-.7003zm-10.694-21.36246c.23341-.70023-.5168-2.44888-1.66715-3.8859-1.99286-2.4895-2.01769-2.4614-.5263.59543 1.36148 2.7906 1.15412 3.54948-1.59312 5.83036l-3.15832 2.62218 3.26025-1.94447c1.79315-1.06945 3.45124-2.51737 3.68464-3.2176zm-4.94489-9.83197C216.54839 45.2 215.60617 44 215.2395 44c-.36667 0-.0244 1.2.76049 2.66667.78494 1.46666 1.72716 2.66666 2.09383 2.66666.36667 0 .0244-1.2-.76049-2.66666zm-127.64129.45875c-.90271-.36523-2.70271-.38747-4-.0494-1.29729.33805-.5587.63687 1.6413.66405 2.2.02717 3.26141-.24942 2.3587-.61465zm123.39611-7.79772c-.83673-1.83643-1.77248-3.08782-2.07944-2.78086-.62273.62273 2.08063 6.11983 3.0096 6.11983.32515 0-.0935-1.50254-.93016-3.33897z"/><path fill="#afafaf" d="M123.00291 244.66666c.0148-2.93333.28784-3.97633.60677-2.31779.31892 1.65855.30681 4.05855-.0269 5.33334-.33372 1.27478-.59466-.0822-.57986-3.01555zm-37.31087 1.07601c1.29729-.33805 3.09729-.31582 4 .0495.90271.36524-.1587.64183-2.3587.61465-2.2-.0272-2.93859-.326-1.6413-.66405zm14.41322-1.18712c.064-1.55326.37992-1.8692.80556-.80556.38516.9625.33779 2.1125-.10527 2.55556s-.75819-.34445-.70029-1.75zm31.16572.27963c-.28537-.82601-.68808-4.17235-.89492-7.43628L130 231.46449l-11.53175-1.65799c-6.34245-.91188-13.76573-2.59139-16.49616-3.73224-6.9759-2.91471-7.30324-2.75415-7.32363 3.5924-.03072 9.56128-1.08074 11.77007-5.13396 10.79964-1.93298-.46279-3.62488-.91741-3.7598-1.01028-.32034-.22049 7.23102-81.42288 8.11666-87.28105.64465-4.26416.45886-4.12908-3.66764 2.66667-3.38622 5.57661-36.15011 56.29363-37.63991 58.26489-.18284.24193-1.86754-.56596-3.74377-1.79532l-3.41134-2.23519 5.12654-7.54917 5.12654-7.54916-3.25505-4.65552c-4.62105-6.60921-9.15775-15.71259-11.14923-22.37208l-1.7095-5.71659-4.86763 4.75311c-4.83986 4.726-4.88144 4.73784-7.29135 2.07492-2.09843-2.31875-2.17556-2.99469-.57469-5.03652 1.49407-1.90561 43.3584-49.78595 53.64427-61.35309 3.33546-3.75094 2.0637-5.32259-2.00239-2.47459-1.67726 1.1748-5.37606 2.136-8.21955 2.136-4.10182 0-6.10663-.93663-9.70333-4.53333C56.72271 92.98937 56 91.31136 56 86.27434c0-7.42 5.07986-13.60569 12.2831-14.95702 3.92392-.73613 5.0842-1.7669 6.74333-5.99065 3.93356-10.01387 15.99775-12.04046 22.8932-3.8457 4.17764 4.96486 4.46807 11.48566.72357 16.24602-3.70195 4.70626-.81972 6.20195 3.79848 1.97116 1.95707-1.7929 16.68597-14.81412 32.73088-28.93605l29.17257-25.67623 2.82743 2.8615L170 30.80889l-4.98042 4.59556C162.28034 37.932 160.60784 40 161.30289 40c3.26993 0 16.57261 5.95096 23.92412 10.70248l8.17149 5.28149 7.33327-4.86902c7.08293-4.7028 7.39889-4.78218 9.25561-2.32532 1.05728 1.39904 1.75004 3.12155 1.53944 3.8278C211.14739 53.88989 155.1273 91.02037 150 93.3978c-1.91915.88988-.98475 1.05252 3.33333.5802 3.3-.36096 22.5-2.16208 42.66667-4.00249 20.16666-1.84041 38.16666-3.4878 39.99999-3.66086 2.86502-.27044 3.39204.29417 3.75115 4.01868.4128 4.28136.34883 4.33355-5.33333 4.35154-3.16314.01-6.99387.35194-8.51275.75983-2.74565.73735-2.74757.78323-.33145 7.94001 1.33658 3.95911 3.10225 11.71719 3.92369 17.24017l1.49352 10.04178h7.17125c7.13974 0 7.17126.0183 7.17126 4.15802v4.15801l-37.66667-.95447c-28.43073-.72042-40.18194-1.5306-47.92465-3.30405l-10.25799-2.3496 3.82076 7.47939c5.44662 10.6621 22.19082 26.65165 34.1219 32.58404 12.37436 6.1528 22.63271 17.14828 29.76962 31.90875 6.93048 14.33352 7.57943 16.77259 4.75135 17.85783-6.22178 2.38752-30.89241-10.88124-40.96864-22.03442-2.58391-2.86008-6.63012-9.3184-8.99157-14.35183-5.70599-12.16227-18.88555-25.78801-30.80935-31.85239l-8.8219-4.48676 1.87665 8.92707c1.04358 4.96431 2.43052 24.01984 3.1244 42.92708 1.7413 47.4484 1.92746 43.57098-2.129 44.34642-1.91862.36676-3.66775-.007-3.95726-.84457zm-14.95506-3.50519c-4.1628-2.242-4.2204-2.37813-1.33333-3.15173 1.65957-.44468 4.21741-.74572 5.68407-.66897 1.75141.0916 1.29377.48889-1.33333 1.15737-3.23389.82288-3.42542 1.04804-1 1.17559 1.70767.0897 3 1.0193 3 2.15774 0 1.1-.15 1.92647-.33333 1.83662-.18334-.0899-2.29117-1.21784-4.68408-2.50662zm29.44417-5.33c0-4.76666.242-6.71666.53777-4.33333.29576 2.38333.29576 6.28333 0 8.66667-.29577 2.38333-.53777.43333-.53777-4.33334zm-68.11742 2.66667c0-2.56667.2744-3.61667.60976-2.33333.33537 1.28333.33537 3.38333 0 4.66666-.33537 1.28334-.60976.23334-.60976-2.33333zm24.57955.44444c-.48889-.48888-.88889-2.05308-.88889-3.47599 0-1.81129.63244-2.3444 2.10905-1.77777 1.15998.44513 2.80998.81851 3.66667.82973.90846.012.72409.58822-.44239 1.3828-1.4925 1.01668-.81584 1.22794 2.66667.83251 2.56667-.29143 3.61667-.27196 2.33333.0432-1.28333.31524-2.33333 1.13141-2.33333 1.81375 0 1.41458-5.76319 1.69964-7.11111.3517zM78.976 223.99999c0-2.56666.2744-3.61666.60977-2.33333.33536 1.28333.33536 3.38333 0 4.66667-.33538 1.28333-.60977.23333-.60977-2.33334zm151.79593-2.1111c.064-1.55327.37992-1.8692.80554-.80556.38516.96249.3378 2.11249-.1052 2.55556-.44306.44305-.75818-.34446-.70029-1.75zM79.97958 209.66666c-.0132-3.24365-.41643-4.37528-1.14778-3.22153-.89628 1.4139-1.30537 1.31457-1.99579-.48462-.61874-1.61241-1.72628-2.01269-3.85221-1.39225-6.05958 1.76847-7.70269 1.92824-6.92728.67361.43692-.70696 1.45491-.87716 2.2622-.37824.93873.58018 1.1668.1228.63276-1.26888-.45926-1.19681-.16852-2.58794.6461-3.09139.89687-.55431 1.10583-.30818.52974.62396-.52325.84664-.63707 1.53934-.25292 1.53934.38414 0 1.37941-1.2724 2.21171-2.82757 1.2202-2.27995 1.16473-2.64488-.28642-1.88429-.98983.5188-.2997-.36087 1.53364-1.9548 1.83333-1.59394 2.43333-2.41922 1.33333-1.83394-1.49588.79591-1.36033.0689.5378-2.8843 4.97015-7.7328 5.7129-8.58663 6.65227-7.64726.52298.52299.57826-.0201.12284-1.20694-.45542-1.1868-.11028-2.60143.76697-3.14359 1.19767-.74021 1.39445.80388.78993 6.19845-.4428 3.95134-.86181 8.98424-.93116 11.18424-.1102 3.49622-.27787 3.66415-1.33131 1.33334-.77285-1.70999-.9166.80129-.40067 6.99999.4425 5.31667.42703 9.66667-.0344 9.66667-.46141 0-.84813-2.25-.85936-5zm63.93603-21c-.41308-13.93333-.59252-25.55389-.39875-25.82348.19376-.26957 4.04502 3.03043 8.55832 7.33334 7.3917 7.04712 14.36402 17.16205 12.86396 18.6621-.3191.31912-1.3306-1.2314-2.24774-3.4456-.91716-2.21418-2.12994-3.74002-2.69507-3.39076-.56513.34927-1.76896-.25836-2.67519-1.35028-1.98337-2.38982-6.84316-2.59664-9.05448-.38532-1.24444 1.24444-1.66089 1.17038-1.87405-.33333-.15072-1.06333-.60072 6.16667-1 16.06667l-.72595 17.99999zm10.08657-15.04678l-6.53582-6.28655 5.93348 6.73689c3.26342 3.70528 6.20454 6.53423 6.53582 6.28655.3313-.24769-2.33877-3.27929-5.93348-6.73689zm26.5378 36.71345l-2.53998-3 3 2.53998c2.81925 2.38696 3.60698 3.46002 2.53998 3.46002-.25301 0-1.60301-1.35-3-3zM42.19273 197.0845c-.2503-.96314-1.0562-3.60117-1.79088-5.86228-1.01316-3.11818-.93167-4.11112.3374-4.11112.95414 0 1.35001.90724.92119 2.11112-.4136 1.16111-.2616 1.66631.33777 1.12268 1.27204-1.15376 4.66846 1.32458 4.66846 3.40652 0 .78371-.9035.26024-2.00778-1.16325-1.8824-2.42656-1.92721-2.36216-.71761 1.03129.83192 2.33391.83134 3.90303-.0016 4.41784-.7105.43911-1.4966.0107-1.7469-.9528zm170.97052-12.75117c-1.6585-2.11475-1.61134-2.16191.50341-.50341 2.221 1.74182 2.92731 2.83674 1.82992 2.83674-.27687 0-1.32687-1.05-2.33333-2.33333zM32.47466 180.1111c-2.89225-2.62777-4.1935-3.94496-2.89166-2.92709 1.93154 1.51023 2.74544 1.5366 4.42421.14333 2.36426-1.96216 2.30534-2.00222 5.07588 3.45043 2.91047 5.72805.12004 5.44655-6.60843-.66667zm6.192 2.8104c0-.59317-.8084-2.18406-1.79647-3.53532-1.40266-1.91825-2.0324-2.07509-2.87268-.71549-.68579 1.10963-.5526 1.41772.36715.84929.79384-.49062 1.82698.31667 2.29586 1.79399.85644 2.69839 2.00615 3.61965 2.00615 1.60753zm141.17544-22.63001c-.0868-.52699-.11066-1.33672-.0529-1.7994.0577-.46268-1.17435-1.96268-2.73796-3.33333-1.89384-1.66012-2.48527-1.8244-1.77155-.4921.58926 1.1-1.82865-.82894-5.37314-4.28654-3.54451-3.4576-6.1735-6.4576-5.8422-6.66667.33128-.20907 8.40233-.0527 17.93566.34767 17.10472.71818 17.17507.73386 5.33334 1.1892-9.07898.3491-10.70176.65984-6.66667 1.27652 3.87632.59241 4.69589 1.07566 3 1.76894-2.61745 1.07-3.21808 7.61947-.91037 9.92718 1.00838 1.00838.81416 1.65657-.66667 2.22481-1.14929.44103-2.16068.37069-2.24752-.15628zm-156.50877-5.62483C24.66065 153.2 26.04663 152 26.4133 152c.36667 0-.41932 1.2-1.74663 2.66666-1.32732 1.46667-2.7133 2.66667-3.07997 2.66667-.36667 0 .41932-1.2 1.74663-2.66667zm8.66667-10c1.72233-1.83333 3.4315-3.33333 3.79817-3.33333.36667 0-.74251 1.5-2.46484 3.33333C31.61101 146.5 29.90183 148 29.53516 148c-.36667 0 .74251-1.5 2.46484-3.33334zm186.99999 1.01468c4.21667-.2646 11.11667-.2646 15.33334 0 4.21666.2646.76666.4811-7.66667.4811s-11.88333-.2165-7.66667-.4811zm31.976-11.01468c0-2.56666.2744-3.61666.60978-2.33333.33536 1.28333.33536 3.38333 0 4.66667-.33538 1.28333-.60978.23333-.60978-2.33334zm-208.976-1.33333c1.32732-1.46667 2.7133-2.66667 3.07998-2.66667.36666 0-.41932 1.2-1.74664 2.66667C42.00602 134.8 40.62003 136 40.25337 136c-.36667 0 .41931-1.2 1.74663-2.66667zM52 122c1.72234-1.83334 3.43151-3.33334 3.79818-3.33334.36667 0-.74251 1.5-2.46484 3.33334-1.72232 1.83333-3.4315 3.33333-3.79817 3.33333-.36666 0 .74251-1.5 2.46484-3.33333zm188.33334 1.04499c2.01666-.3055 5.31666-.3055 7.33333 0 2.01667.3055.36667.55545-3.66667.55545-4.03333 0-5.68333-.24995-3.66666-.55545zm-1.66667-4.60055c0-1.58889.16979-2.63889.37729-2.33333.20751.30555 1.18098 1.60555 2.16326 2.88889 1.52877 1.99731 1.47444 2.33333-.3773 2.33333-1.32982 0-2.16325-1.11298-2.16325-2.88889zm-2.40673-1.77778c.0272-2.2.326-2.93858.66405-1.64129s.31583 3.09729-.0495 4c-.36517.90271-.64176-.15871-.61458-2.35871zm-180.9266-5.97484c0-4.07756.43104-4.81391 2.66667-4.55555 1.46667.16949 3.09783.35817 3.62482.41928.52698.0611.57502 1.10954.10675 2.32984-.6343 1.65295-.36863 1.93813 1.04184 1.11833 1.0413-.60521.53261.39636-1.1304 2.22572-4.28993 4.71906-6.30968 4.22687-6.30968-1.53762zm4.83674 1.64151c1.6585-2.11474 1.61134-2.1619-.5034-.50341-1.28334 1.00646-2.33334 2.05646-2.33334 2.33334 0 1.09738 1.09492.39107 2.83674-1.82993zm174.05078-4.22908c-1.32468-6.62339-1.23883-6.78712 3.44581-6.57114 4.03324.18594 4.07941.23824.66667.75523-2.33971.35443-3.65928 1.36783-3.64626 2.80022.0163 1.78698.25672 1.87173 1.17914.41559 1.93985-3.06231 3.60789-1.085 2.66786 3.16251-.60297 2.7246-.96542 3.14973-1.1367 1.33334-.24694-2.61865-.26982-2.61978-1.27024-.0624-.8627 2.20528-1.15474 1.92441-1.90628-1.83333zm11.37241-15.43759c.0272-2.2.326-2.93858.66405-1.64129.33806 1.2973.31583 3.0973-.0495 4-.36518.90271-.64176-.1587-.61459-2.3587zm-66.92814-8.68524c.003-1.01455 9.81669-6.89814 11.12297-6.66805.61677.10864 2.01127-.89242 3.09887-2.22459 1.0876-1.33216 1.56056-1.61225 1.05101-.62242-.74664 1.4504-.37765 1.50598 1.90112.28642 1.55517-.8323 2.82757-1.82757 2.82757-2.21172 0-.38414-.6927-.27033-1.53934.25293-.93214.57609-1.17827.36712-.62396-.52975.50345-.81461 1.89458-1.10535 3.0914-.6461 1.39169.53405 1.84905.30598 1.26888-.63276-.49892-.80728-.20464-1.90195.65396-2.4326 1.03124-.63734 1.2019-.38363.50281.74752-.70544 1.14143-.44072 1.50647.79399 1.0949 1.01874-.33958 1.85226-1.26742 1.85226-2.06187 0-.79444.40497-1.84942.89995-2.3444.49498-.49497.76234.03765.59416 1.18363-.1682 1.14597-.72318 2.50095-1.2333 3.01107-1.5865 1.58651-1.02356 4.83356 1.27918 7.37805 2.10086 2.32144 1.95706 2.44469-3 2.57123-4.3334.1106-4.65171.28744-1.89784 1.05432 2.25552.6281-.82215 1.32856-9.66823 2.20043-7.13736.70345-12.97632.97065-12.97546.59376zm33.01709-3.5911c1.65854-.31893 4.05854-.30682 5.33333.0269 1.27479.33373-.0823.59467-3.01555.57987-2.93333-.0148-3.97633-.28785-2.31778-.60677zm14.66666-1.33334c1.65855-.31892 4.05855-.30681 5.33334.02691 1.27478.33373-.0823.59466-3.01555.57987-2.93333-.0148-3.97633-.28785-2.31779-.60677zM54 70.66666C55.3273 69.2 56.7133 68 57.07997 68c.36666 0-.41932 1.2-1.74664 2.66666-1.32731 1.46667-2.7133 2.66667-3.07996 2.66667-.36667 0 .41931-1.2 1.74663-2.66667zm53.47526-6.437c-.44948-.7273-.41334-2.37492.0803-3.6614.58685-1.5293.38945-2.025-.57021-1.4319-.80728.49892-1.90195.20464-2.43259-.65396-.64675-1.04645-.38264-1.2013.80112-.46969 1.237.76451 1.53979.5021 1.01092-.8761-.58513-1.52485.1166-1.8396 3.11896-1.39894 2.13068.31272 4.91847-.25033 6.19509-1.25121 2.05096-1.60798 2.12848-1.57273.66602.30288-.9103 1.16748-1.36656 2.41122-1.0139 2.76387.35265.35266-1.08674 2.29665-3.19865 4.31999-2.15858 2.06805-4.19766 3.09981-4.65708 2.35645zm4.62565-3.78926l3.23242-3.5596-3.62477 2.5596c-1.99362 1.40778-3.64362 3.0096-3.66666 3.5596-.0688 1.64196.66229 1.18093 4.05901-2.5596zM72 55.33333C73.72233 53.5 75.4315 52 75.79817 52c.36667 0-.74251 1.5-2.46484 3.33333-1.72233 1.83334-3.4315 3.33334-3.79817 3.33334-.36667 0 .74251-1.5 2.46484-3.33334zm50.66666-4C124.38899 49.5 126.09817 48 126.46483 48c.36667 0-.74251 1.5-2.46483 3.33333-1.72233 1.83334-3.43151 3.33334-3.79817 3.33334-.36667 0 .74251-1.5 2.46483-3.33334zm-36.97462-2.92399c1.29729-.33805 3.09729-.31582 4 .0494.90271.36524-.1587.64183-2.3587.61466-2.2-.02717-2.93859-.326-1.6413-.66406zm46.97462-5.74267C133.99398 41.2 135.37997 40 135.74664 40c.36666 0-.41932 1.2-1.74664 2.66667-1.32732 1.46666-2.7133 2.66666-3.07997 2.66666-.36667 0 .41932-1.2 1.74663-2.66666zm54.96651 1.10662c-.79503-.49136-1.58273-1.82832-1.75044-2.97103-.27581-1.87924.0769-1.8802 3.69317-.01013 2.19896 1.13713 4.74396 1.7813 5.65555 1.43149.91159-.34981 1.65744.05677 1.65744.90352 0 1.64956-6.85759 2.1283-9.25572.64617zM190 42.66667c-.45323-.73334-1.53864-1.32415-2.41203-1.31292-.95415.01227-.78969.5363.41203 1.31292 2.56149 1.65536 3.02306 1.65536 2 0zm-10.9251-3.52474c-.87548-.35616-1.21313-1.65879-.75036-2.89474.76099-2.03242.59455-2.05605-1.74157-.2472-2.38325 1.84537-2.44328 1.82176-.77629-.3053 1.35788-1.73266 2.41586-1.97929 4.25906-.99284 3.3066 1.76964 4.71448 4.18052 1.78478 3.0563-1.5523-.59568-1.97799-.37641-1.3239.68193 1.0316 1.66916.98338 1.69247-1.45172.70185zM144 32.66667c1.72233-1.83334 3.4315-3.33334 3.79817-3.33334.36667 0-.74251 1.5-2.46484 3.33334C143.611 34.5 141.90182 36 141.53516 36c-.36667 0 .7425-1.5 2.46484-3.33333zM175.20665 29l-2.53999-3 3 2.53998C178.48592 30.92694 179.27365 32 178.20665 32c-.25301 0-1.60301-1.35-3-3zm-19.87332-6.33333C156.66065 21.2 158.04664 20 158.4133 20c.36667 0-.41932 1.2-1.74664 2.66667-1.32732 1.46666-2.7133 2.66666-3.07997 2.66666-.36667 0 .41932-1.2 1.74664-2.66666z"/><path fill="#03c761" d="M130.66666 238.18411v-7.1492l-8.66743-.888c-4.76709-.48841-12.41709-2.06352-17-3.50026s-8.70507-2.61999-9.16034-2.62946c-.45528-.009-1.23921 3.61938-1.74208 8.0641-.88259 7.80109-1.0388 8.0669-4.50555 7.66666-3.1014-.35806-3.54487-.96024-3.25114-4.41462.98965-11.63896 7.05766-76.95163 7.68032-82.66667L94.74677 146l-2.44737 4.66666c-5.67163 10.81471-39.40115 61.33333-40.95012 61.33333-.92919 0-2.44274-.90768-3.36346-2.01708-1.38705-1.67129-.84588-3.26436 3.15689-9.29295l4.8309-7.27587-5.14872-7.35005c-2.8318-4.04254-6.52635-11.11071-8.2101-15.70706-1.68375-4.59634-3.2239-8.57-3.42255-8.83033-.19864-.26035-2.2936 1.72755-4.65544 4.41755l-4.29428 4.89092-2.67845-2.67846-2.67844-2.67845 6.53378-7.73911C35.013 153.4826 40.43671 147.3 43.47212 144c14.22782-15.46806 39.19454-44.44929 39.19454-45.4968 0-1.55854-.2319-1.51495-5.24464.98574C67.93448 104.22194 56 97.36709 56 87.18469c0-8.99296 6.00608-15.1847 14.7294-15.1847 3.42717 0 3.93726-.48564 3.93726-3.74858 0-4.25753 3.96757-9.13148 8.98677-11.03978 4.99774-1.90013 12.01812.85285 15.11144 5.92583 3.24832 5.32718 3.22524 8.43565-.10318 13.89476-6.31092 10.35085-1.1174 7.30186 21.38864-12.55677 11.33899-10.00517 25.99671-22.90813 32.57271-28.67325l11.95639-10.48204 2.71028 2.7634L170 30.84694l-5.1286 4.35098-5.12859 4.35098 7.79886 2.84361c4.28937 1.56398 11.83644 5.27878 16.77125 8.2551l8.97239 5.4115 7.38986-4.90659c7.13714-4.73879 7.45571-4.8196 9.31495-2.3629 1.05879 1.39904 1.94415 2.9215 1.96748 3.38324.0512 1.0144-58.82433 39.45352-63.00947 41.1381-4.58018 1.84359-1.97151 1.68329 44.41259-2.72918 23.61724-2.24667 43.77268-3.7655 44.78985-3.37517 2.52374.96844 2.34087 5.65282-.25962 6.65073-1.15998.44512-5.12418.80931-8.80933.80931-5.47984 0-6.55701.3733-5.91381 2.04945 2.58344 6.73235 5.3651 18.36613 6.04542 25.28389l.78676 8 7.33334.66666c6.81624.61966 7.36308.92522 7.75522 4.33334.41799 3.6327.35007 3.66622-7.33333 3.61861-25.9692-.16089-72.7956-2.79047-79.74422-4.47808-4.39396-1.06717-8.13343-1.79589-8.30994-1.61938-.1765.17651 1.73759 4.18146 4.25354 8.89989 6.44501 12.08698 18.81713 23.78424 32.35782 30.5928 8.19212 4.11917 12.83026 7.56613 18.27167 13.57909 7.95724 8.79303 18.08257 27.61028 18.08257 33.60524 0 3.62721-.18332 3.73121-5 2.83644-7.04964-1.30958-20.93905-8.87523-30.50825-16.61803-6.61933-5.35594-9.26668-8.77304-14.20617-18.33681-4.60747-8.92091-8.42678-14.03777-15.84486-21.22795-8.54638-8.28381-22.98281-17.75417-24.59955-16.13744-.30819.3082.31396 4.39854 1.38255 9.08966 1.14292 5.01736 2.2607 19.50928 2.71472 35.19596.42451 14.66666 1.09822 32.21666 1.49714 38.99999l.72532 12.33334h-4.08044c-4.04438 0-4.08046-.0632-4.08046-7.14922z"/><path fill="#5d5e5e" d="M130.66666 238.18411v-7.1492l-8.66743-.888c-4.76709-.48841-12.41709-2.06352-17-3.50026s-8.70507-2.61999-9.16034-2.62946c-.45528-.009-1.23921 3.61938-1.74208 8.0641-.88259 7.80109-1.0388 8.0669-4.50555 7.66666-3.1014-.35806-3.54487-.96024-3.25114-4.41462.98965-11.63896 7.05766-76.95163 7.68032-82.66667L94.74677 146l-2.44737 4.66666c-5.67163 10.81471-39.40115 61.33333-40.95012 61.33333-.92919 0-2.44274-.90768-3.36346-2.01708-1.38705-1.67129-.84588-3.26436 3.15689-9.29295l4.8309-7.27587-5.14872-7.35005c-2.8318-4.04254-6.52635-11.11071-8.2101-15.70706-1.68375-4.59634-3.2239-8.57-3.42255-8.83033-.19864-.26035-2.2936 1.72755-4.65544 4.41755l-4.29428 4.89092-2.67845-2.67846-2.67844-2.67845 6.53378-7.73911C35.013 153.4826 40.43671 147.3 43.47212 144c14.22782-15.46806 39.19454-44.44929 39.19454-45.4968 0-1.55854-.2319-1.51495-5.24464.98574C67.93448 104.22194 56 97.36709 56 87.18469c0-8.99296 6.00608-15.1847 14.7294-15.1847 3.42717 0 3.93726-.48564 3.93726-3.74858 0-4.25753 3.96757-9.13148 8.98677-11.03978 4.99774-1.90013 12.01812.85285 15.11144 5.92583 3.24832 5.32718 3.22524 8.43565-.10318 13.89476-6.31092 10.35085-1.1174 7.30186 21.38864-12.55677 11.33899-10.00517 25.99671-22.90813 32.57271-28.67325l11.95639-10.48204 2.71028 2.7634L170 30.84694l-5.1286 4.35098-5.12859 4.35098 7.79886 2.84361c4.28937 1.56398 11.83644 5.27878 16.77125 8.2551l8.97239 5.4115 7.38986-4.90659c7.13714-4.73879 7.45571-4.8196 9.31495-2.3629 1.05879 1.39904 1.94415 2.9215 1.96748 3.38324.0512 1.0144-58.82433 39.45352-63.00947 41.1381-4.58018 1.84359-1.97151 1.68329 44.41259-2.72918 23.61724-2.24667 43.77268-3.7655 44.78985-3.37517 2.52374.96844 2.34087 5.65282-.25962 6.65073-1.15998.44512-5.12418.80931-8.80933.80931-5.47984 0-6.55701.3733-5.91381 2.04945 2.58344 6.73235 5.3651 18.36613 6.04542 25.28389l.78676 8 7.33334.66666c6.81624.61966 7.36308.92522 7.75522 4.33334.41799 3.6327.35007 3.66622-7.33333 3.61861-25.9692-.16089-72.7956-2.79047-79.74422-4.47808-4.39396-1.06717-8.13343-1.79589-8.30994-1.61938-.1765.17651 1.73759 4.18146 4.25354 8.89989 6.44501 12.08698 18.81713 23.78424 32.35782 30.5928 8.19212 4.11917 12.83026 7.56613 18.27167 13.57909 7.95724 8.79303 18.08257 27.61028 18.08257 33.60524 0 3.62721-.18332 3.73121-5 2.83644-7.04964-1.30958-20.93905-8.87523-30.50825-16.61803-6.61933-5.35594-9.26668-8.77304-14.20617-18.33681-4.60747-8.92091-8.42678-14.03777-15.84486-21.22795-8.54638-8.28381-22.98281-17.75417-24.59955-16.13744-.30819.3082.31396 4.39854 1.38255 9.08966 1.14292 5.01736 2.2607 19.50928 2.71472 35.19596.42451 14.66666 1.09822 32.21666 1.49714 38.99999l.72532 12.33334h-4.08044c-4.04438 0-4.08046-.0632-4.08046-7.14922zm-2.80036-26.51745c-2.2044-4.23693-3.01552-4.82604-1.97394-1.43367.71059 2.31431.27299 3.01784-2.16769 3.4851-2.25689.43205-1.91049.63298 1.32224.767 4.13304.17132 4.29215.012 2.81939-2.81843zm-13.62215-1.25c-.42564-1.06364-.74158-.74771-.80556.80556-.0579 1.40555.25724 2.19305.7003 1.75.44305-.44307.49042-1.59307.10526-2.55556zm5.30556-1.41667c-.36989-.91666-.67252-.16666-.67252 1.66667 0 1.83333.30263 2.58333.67252 1.66667.36988-.91667.36988-2.41667 0-3.33334zM112 211.41202c0-.32339-.6-.9588-1.33334-1.41203-.73333-.45322-1.33333-.18864-1.33333.58798 0 .77661.6 1.41202 1.33333 1.41202.73334 0 1.33334-.26458 1.33334-.58797zm-7.33334-2.07869c-.45322-.73334-1.53863-1.32415-2.41202-1.31292-.95415.012-.7897.5363.41202 1.31292 2.5615 1.65537 3.02308 1.65537 2 0zm-5.73886-5c-.38632-2.01667-.95972-2.89687-1.27421-1.95601-.56713 1.69666.44742 5.62267 1.453 5.62267.28799 0 .20753-1.65-.1788-3.66666zm7.73886-1c0-2.32581-.70526-3.30152-2.33333-3.22807-1.39392.0629-1.66232.37602-.66667.77778.91667.36988 1.66667 1.82252 1.66667 3.22806 0 1.40556.3 2.55556.66667 2.55556.36666 0 .66666-1.5.66666-3.33333zm4.88305-1c-.36989-.91667-.67252-.16667-.67252 1.66666 0 1.83334.30263 2.58334.67252 1.66667.36988-.91667.36988-2.41667 0-3.33333zM116 203.99999c0-.73333-.63541-1.33333-1.41203-1.33333-.77661 0-1.0412.6-.58797 1.33333.45322.73334 1.08863 1.33334 1.41202 1.33334.32339 0 .58798-.6.58798-1.33334zm12.88304-4.33333c-.36989-.91666-.67252-.16666-.67252 1.66667 0 1.83333.30263 2.58333.67252 1.66666.36988-.91666.36988-2.41666 0-3.33333zm-6.03234-3.06702l-1.06111-3.93298-.70101 3.62015c-.39692 2.04976-.0621 3.85035.77187 4.1508 2.10914.75987 2.16859.52948.99025-3.83797zM117.33333 196c0-1.46667-.58117-2.66667-1.29149-2.66667-.71031 0-.94612.9-.52401 2s.10328 2-.70851 2c-.8118 0-1.52336-1.35-1.58125-3-.0579-1.65-.4145-2.2302-.79244-1.28935-1.02507 2.5518.53469 5.62268 2.85585 5.62268 1.15296 0 2.04185-1.16089 2.04185-2.66666zm-9.78362-3c-.36989-.91667-.67252-.16667-.67252 1.66666 0 1.83334.30263 2.58334.67252 1.66667.36988-.91667.36988-2.41667 0-3.33333zm-7.95906-3.30796c-.33806-1.2973-.63688-.55871-.66405 1.64129-.02717 2.2.24942 3.26141.61465 2.35871.36523-.90271.38746-2.70271.0494-4zm24.74116-1.90054c-.51515-1.96993-.26596-2.57485.79149-1.9213.84885.52461 1.54336.31844 1.54336-.45818 0-.77661-.9-1.41202-2-1.41202-1.24444 0-2 1.25925-2 3.33333 0 1.83333.54383 3.33333 1.20851 3.33333.66468 0 .87017-1.29382.45664-2.87516zm-5.66515.25034c0-.71031-.85225-.96444-1.8939-.56472-1.22737.47098-2.10197-.36494-2.48509-2.37519-.53088-2.78551-.60971-2.72791-.77276.56473-.14056 2.83831.42087 3.66667 2.48509 3.66667 1.46666 0 2.66666-.58117 2.66666-1.29149zm-9.33333-2.70851c0-2.06423-.82836-2.62564-3.66667-2.48509-3.14379.15568-3.23886.26397-.66666.7594 1.65.31781 3 1.43609 3 2.48509S108.3 188 108.66666 188c.36667 0 .66667-1.2.66667-2.66667zM119 179.11696c-.91667-.36988-2.41667-.36988-3.33334 0-.91666.36988-.16666.67252 1.66667.67252 1.83333 0 2.58333-.30264 1.66667-.67252zm8.73057-5.94742c-.45225-4.39202-.48005-4.36424-1.12904 1.12904-.36596 3.09756-.15731 5.12386.46367 4.50288.62097-.62097.92039-3.15534.66537-5.63192zm-59.10154-.0185l3.65007-5.51561-9.47288-9.4729c-6.504-6.50396-9.47289-8.7205-9.47289-7.07232 0 1.3203.49684 2.09347 1.10408 1.71818.60724-.37531 4.56285 2.81288 8.79023 7.08484l7.68616 7.7672-3.07877 4.6967c-2.77315 4.23048-3.25597 4.47896-4.86379 2.50314-1.54667-1.90067-1.5909-1.79299-.33122.80642.7996 1.65 1.65296 3 1.89638 3 .24341 0 2.0851-2.48202 4.09263-5.51562zM105 177.71166c-4.9255-.74616-4.61867-3.3357.89338-7.53994 3.18125-2.42646 4.76203-2.97826 5.22807-1.82492.39262.97164.71142.69125.77328-.68014.14805-3.2816-1.22889-2.93088-6.92427 1.76374-6.41963 5.2916-6.70338 9.31616-.63713 9.03649 4.03324-.18595 4.07941-.23824.66667-.75523zm5.21637-3.37833c-.36988-.91667-.67251-.16667-.67251 1.66667 0 1.83333.30263 2.58333.67251 1.66666.36988-.91666.36988-2.41666 0-3.33333zM115.54971 173c-.36989-.91667-.67252-.16667-.67252 1.66666 0 1.83334.30263 2.58334.67252 1.66667.36988-.91667.36988-2.41667 0-3.33333zm-10.75636-7.97703c1.84348-2.16068 1.92663-2.50351.30323-1.25023-1.95784 1.51147-2.30701 1.25922-2.80022-2.02297-.46853-3.11796-.59714-2.90729-.76325 1.25023-.10988 2.75.007 5 .26024 5 .25301 0 1.60301-1.33967 3-2.97703zM120 165.85734c0-.2882-.9-.52401-2-.52401s-2 .58117-2 1.29149c0 .71031.9.94612 2 .52402 1.1-.42212 2-1.00328 2-1.2915zm-44.53935-3.39669c.53382-.86373.37086-1.18057-.3713-.72189-.72747.44961-3.51694-1.42967-6.19882-4.17618l-4.87615-4.99362 7.96213-7.87906 7.96213-7.87905 3.69735 3.22364 3.69734 3.22363-3.66254-3.92796-3.66254-3.92798-8.66485 8.58783-8.66484 8.58783 5.605 5.71108c6.35264 6.47288 5.91289 6.21726 7.1771 4.17173zM125.59446 159c-.38632-2.01667-.95971-2.89687-1.27421-1.95602-.56713 1.69667.44743 5.62268 1.453 5.62268.28799 0 .20754-1.65-.17879-3.66666zm-12.44271-1.33334c-.14947-3.0185-.28181-3.15085-.74865-.74864-.3119 1.60491-1.58019 3.18531-2.81843 3.512-1.59512.42084-1.3769.63906.74866.74864 2.46142.12694 2.9674-.50358 2.81842-3.512zm5.06462-3.33333c-.36988-.91667-.67251-.16667-.67251 1.66667 0 1.83333.30263 2.58333.67251 1.66666.36988-.91666.36988-2.41666 0-3.33333zm-35.50636-3.07013c1.61013-2.60524 2.69927-4.96503 2.42032-5.24399-.27895-.27895-1.8653 1.85261-3.52524 4.7368-3.76117 6.53519-2.87265 6.94303 1.10492.50719zm27.30729-.93974c5.26537-.53669 5.25568-.544-1.0173-.766-5.23503-.18526-6.3298.18051-6.31292 2.1092.0135 1.54259.35825 1.80218 1.0173.766.54829-.86204 3.3891-1.81118 6.31292-2.1092zm13.56018.0932c-.42563-1.06364-.74158-.7477-.80555.80556-.0579 1.40555.25723 2.19306.70029 1.75.44305-.44306.49042-1.59306.10527-2.55556zm-58.48671-5.49973l4.28055-4.41641-3.09283-2.90556-3.09283-2.90556-5.19676 5.32197c-2.85822 2.92708-4.75666 5.32196-4.21876 5.32196.5379 0 2.8398-2.12048 5.11533-4.71216 3.94558-4.49377 4.25395-4.60663 6.6535-2.43507 2.4526 2.21956 2.42411 2.37318-1.12707 6.0798-2.00377 2.0915-4.44734 3.49415-5.43015 3.11702-.9828-.37715-1.42035-.0925-.97231.63234 1.31128 2.12171 2.54509 1.58188 7.08133-3.09833zM119.5497 145c-.36989-.91667-.67252-.16667-.67252 1.66666 0 1.83334.30263 2.58334.67252 1.66667.36988-.91667.36988-2.41667 0-3.33333zm2.69444-1.25c-.42564-1.06364-.74158-.74771-.80556.80556-.0579 1.40554.25724 2.19305.7003 1.75.44305-.44307.49042-1.59307.10526-2.55556zm-7.9386.77777c-.44305-.44305-1.59305-.49041-2.55555-.1052-1.06365.42563-.7477.74157.80555.80555 1.40556.0579 2.19306-.25723 1.75-.7003zm1.2851-8.16907c-.33806-1.29729-.63688-.5587-.66405 1.6413-.0272 2.2.24942 3.26141.61465 2.3587.36523-.9027.38746-2.7027.0494-4zm5.33334 0c-.33806-1.29729-.63689-.5587-.66406 1.6413-.0272 2.2.24942 3.26141.61465 2.3587.36523-.9027.38746-2.7027.0494-4zm-12.59066 2.75826c-.91667-.36988-2.41667-.36988-3.33333 0-.91667.36988-.16667.67252 1.66666.67252 1.83334 0 2.58334-.30264 1.66667-.67252zm-32.87332-4.78363l2.53999-3-3 2.53999c-2.9018 2.45682-3.08765 2.46065-5.67746.11693-2.51075-2.27219-2.53879-2.5763-.45025-4.88411 2.12866-2.35213 2.35039-2.35731 5.0108-.11692l2.78358 2.34411-2.55871-3.02069-2.55871-3.02069-3.11543 2.9268-3.11544 2.9268 2.90656 3.09389c3.59043 3.82184 4.07346 3.8281 7.23507.0939zm13.40628-2.7169c-.36768-.90631-.70201-.59136-.76103.7169-.12331 2.73345-2.77193 3.20795-2.77193.49659 0-2.09323 3.2166-5.16887 4.28668-4.0988.38939.38939 1.05017-.60055 1.4684-2.19987.65038-2.48707.0984-2.26619-3.81465 1.52649-4.32854 4.19538-4.45457 4.56748-2.3389 6.90527 1.99262 2.20183 2.36419 2.24216 3.41168.37039.64654-1.1553.88043-2.82793.51975-3.71697zm21.13804 2.06349c-2.19762-.32298-4.43843-1.28307-4.97958-2.13357-.63874-1.00387-.99108-.72778-1.00434.78698-.0162 1.84611 1.02364 2.29161 4.97959 2.13356 4.53467-.18119 4.62814-.25443 1.00433-.78697zm6.87871-6.01326c-.36989-.91666-.67252-.16666-.67252 1.66667 0 1.83333.30263 2.58333.67252 1.66667.36988-.91667.36988-2.41667 0-3.33334zm-29.2583-5.28778c3.87306-3.82495 7.04192-7.37219 7.04192-7.88275 0-.51056-3.25747 2.46147-7.23882 6.60452-7.4903 7.7945-12.22023 8.8698-5.36106 1.21877L85.93917 118l-4.46908 4.1918c-2.458 2.30549-4.0589 4.85549-3.55756 5.66666 1.44638 2.3403 2.25716 1.88286 9.7122-5.47958zm97.29924 1.97983c-.33805-1.29729-.63688-.55871-.66405 1.64129-.0272 2.2.24941 3.26142.61465 2.35871.36523-.90271.38746-2.70271.0495-4zm9.38158 4.16906c-.44307-.44305-1.59307-.49042-2.55556-.10526-1.06364.42563-.74771.74157.80556.80555 1.40554.0579 2.19305-.25723 1.75-.70029zM211.97958 127c-.0136-1.55229-.35565-1.8062-1.02191-.75855-.55081.86613-3.69162 1.81131-6.97958 2.10039l-5.97809.5256 6.99999.23295c5.8733.19545 6.99672-.14263 6.97959-2.10039zm-38.9959.0778c-1.29232-.3371-1.96991-1.22736-1.50578-1.97836.46415-.751-.5785-.62431-2.317.28152-4.75833 2.47929-4.69956 2.63174.9502 2.46441 2.87223-.0851 4.16488-.43047 2.87258-.76757zM180 124c0-4.5117-1.00768-4.92079-4.74516-1.92645-2.48536 1.99119-2.46902 2.01581.41182.61976 2.70452-1.31061 3-1.12086 3 1.92644 0 1.85914.3 3.38025.66667 3.38025S180 126.2 180 124zm-73.72365-5.65112c-.31893-1.65855-.59198-.61555-.60678 2.31778-.0148 2.93334.24614 4.29033.57987 3.01555.33372-1.27478.34583-3.67478.0269-5.33333zM160 124.12482c0-.66468-1.2-.8947-2.66667-.51116-1.46667.38355-2.66667.92738-2.66667 1.20851 0 .28114 1.2.51116 2.66667.51116S160 124.7895 160 124.12482zm-80.78606-4.00021c2.04208-2.13146 3.80433-4.38146 3.91613-5 .1118-.61854.63167-.98181 1.15528-.80727.5236.17453.6609-.44129.3051-1.3685-.3558-.92721 1.7469-4.02334 4.67267-6.88029l5.3196-5.19444 1.29079 3.22961c.81227 2.03233 1.32212 2.42512 1.3753 1.05954.04649-1.19354-.74528-2.85875-1.75948-3.70046-1.4773-1.22605-3.86367.69424-12 9.65625-5.5858 6.15265-10.156 11.56785-10.156 12.03379 0 1.86302 2.35766.64894 5.88061-3.02823zm-1.8806-.62802c0-.27687 1.05-1.32687 2.33332-2.33333 2.11475-1.6585 2.1619-1.61134.50341.5034-1.74182 2.221-2.83674 2.92731-2.83674 1.82993zM112 118c-3.23871-3.3-6.18856-6-6.55522-6-.36667 0 1.98318 2.7 5.22188 6 3.23871 3.3 6.18856 6 6.55523 6 .36666 0-1.98319-2.7-5.22189-6zm40.97222 5.19444c-.44306-.44305-1.59306-.49042-2.55556-.10527-1.06364.42564-.7477.74158.80556.80556 1.40555.0579 2.19306-.25724 1.75-.70029zm59.95176-4.16907c-.33805-1.29729-.63688-.55871-.66405 1.64129-.0272 2.2.24941 3.26142.61465 2.35871.36523-.90271.38745-2.70271.0495-4zm-65.28509 2.83574c-.44307-.44306-1.59307-.49043-2.55556-.10527-1.06364.42564-.74771.74158.80556.80556 1.40555.0579 2.19305-.25724 1.75-.7003zm47.91081-3.52778c-.36988-.91667-.67252-.16667-.67252 1.66667 0 1.83333.30264 2.58333.67252 1.66666.36988-.91666.36988-2.41666 0-3.33333zm-51.85913.33333C144.60652 117.2 145.14384 116 144.88461 116c-.25923 0-1.55729 1.2-2.88461 2.66666-1.32732 1.46667-1.86464 2.66667-1.19404 2.66667.67058 0 1.96866-1.2 2.88461-2.66667zm25.64276 2.23242c0-.23883-1.5-1.84342-3.33333-3.56575l-3.33334-3.1315.0204 3.23242c.014 2.20812.36814 2.68428 1.1177 1.50264.87642-1.38162 1.4419-1.31453 2.80952.33333 1.61344 1.94406 2.71905 2.60639 2.71905 1.62886zM200.88304 117c-.36988-.91667-.67252-.16667-.67252 1.66666 0 1.83334.30264 2.58334.67252 1.66667.36988-.91667.36988-2.41667 0-3.33333zm-59.77574-2.88464c2.32432-3.23655 4.22603-6.34216 4.22603-6.90136 0-.5592-2.04837 1.86436-4.55195 5.38569-4.21089 5.92271-4.5969 6.16507-5.15176 3.2347-.5537-2.92426-.61376-2.88591-.78138.49894-.25538 5.15694 1.37864 4.57791 6.25906-2.21797zm17.10907 1.5513c-.36988-.91666-.67252-.16666-.67252 1.66667 0 1.83333.30264 2.58333.67252 1.66667.36988-.91667.36988-2.41667 0-3.33334zm-27.65497.66667c-.0635-1.40766-.37316-1.66884-.78055-.65836-.3714.92124-1.22403 1.33583-1.89473.92131-.6707-.41451-1.21946-.11825-1.21946.65836 0 .77661.9 1.41202 2 1.41202s1.95264-1.05 1.89474-2.33333zm44.89925.79399c.60989-.98684.36343-1.17598-.68668-.52698-.96447.59608-3.10523-.2787-5.20601-2.12732L166 111.33333 169.23241 115c3.54744 4.024 4.79308 4.44946 6.22824 2.12732zm10.57463-.86982c-.41052-.41051-1.48639-.00084-2.39084.91038-1.30702 1.31682-1.15387 1.46997.7464.74639 1.31496-.5007 2.05496-1.24625 1.64444-1.65677zm6.29805.19279c-.91667-.36988-2.41667-.36988-3.33333 0-.91667.36988-.16667.67251 1.66666.67251 1.83334 0 2.58334-.30263 1.66667-.67251zm-69.89484-5.78363c.11494-2.93333-.3035-5.33333-.92986-5.33333s-.83987 1.65-.47445 3.66667l.66438 3.66666-3.26855-3c-5.21024-4.78216-6.07433-3.46896-1.09668 1.66667C119.82104 113.9 121.94038 116 122.04297 116c.10259 0 .28058-2.4.39552-5.33334zm26.89484 0c1.56653-2.2 2.54825-4 2.18159-4-.36667 0-1.94839 1.8-3.51492 4-1.56654 2.2-2.54826 4-2.18159 4 .36667 0 1.94839-1.8 3.51492-4zm62.66666 2.66667c0-.73333-.63541-1.33333-1.41202-1.33333-.77662 0-1.0412.6-.58798 1.33333.45323.73333 1.08864 1.33333 1.41203 1.33333.32339 0 .58797-.6.58797-1.33333zm-33.74267-4.97462c-.33806-1.29729-.63688-.55871-.66406 1.64129-.0272 2.2.24942 3.26142.61466 2.35871.36522-.90271.38745-2.70271.0495-4zM183.58577 107c-.33537-1.28334-.60977-.23334-.60977 2.33333 0 2.56667.2744 3.61667.60977 2.33333.33536-1.28333.33536-3.38333 0-4.66666zm14.46905 4.91129c1.36808-2.21361.14015-2.52057-1.77406-.44348-.94558 1.02604-1.13099 1.86552-.41202 1.86552.71896 0 1.7027-.63992 2.18608-1.42204zm-41.17178-4.24463c-.36988-.91666-.67252-.16666-.67252 1.66667 0 1.83333.30264 2.58333.67252 1.66667.36988-.91667.36988-2.41667 0-3.33334zm6.8454 1.72731c-.89512-1.43332-1.88571-2.34782-2.20131-2.03222-.57145.57146 2.33432 4.63825 3.31409 4.63825.28308 0-.21766-1.17272-1.11278-2.60603zm27.47148 1.58561c-.80671-.53877-1.80934-1.87958-2.22807-2.97958-.50872-1.3364-.79625-1.00459-.86659 1-.0707 2.01552.66044 2.9933 2.22807 2.97958 1.43924-.0125 1.77131-.39578.86659-1zm-59.60927-5.28754c-.33806-1.29729-.63688-.55871-.66405 1.64129-.0272 2.2.24942 3.26142.61465 2.35871.36523-.90271.38746-2.70271.0494-4zm11.07601 1.48585c0-.28117-1.5-.51123-3.33333-.51123-1.83333 0-3.33333.5168-3.33333 1.14844 0 .63164 1.5.8617 3.33333.51123 1.83333-.35046 3.33333-.86726 3.33333-1.14844zm67.12677-1.2354c-.43425-1.13162-1.0755-1.77154-1.425-1.42204-.3495.34951-.23997 1.27538.2434 2.05751 1.31474 2.12728 2.08318 1.71401 1.1816-.63547zm-54.42482-3.01832c-.41052-.41052-1.48639-.00085-2.39084.91038-1.30701 1.31682-1.15387 1.46997.7464.74639 1.31496-.50071 2.05496-1.24626 1.64444-1.65677zm46.47347.33991c.45532-1.18657.2318-1.72176-.52402-1.25464-.72493.44803-1.31806 1.37919-1.31806 2.06925 0 1.91791.95569 1.49528 1.84208-.81461zm5.33333 0c.45532-1.18657.2318-1.72176-.52402-1.25464-.72493.44803-1.31806 1.37919-1.31806 2.06925 0 1.91791.95569 1.49528 1.84208-.81461zm-38.81671-1.472c-.9027-.36523-2.7027-.38746-4-.0494-1.29729.33806-.5587.63689 1.6413.66406 2.2.0272 3.26141-.24942 2.3587-.61465zm16.97463-1.26807c0-.28821-.9-.52401-2-.52401s-2 .58117-2 1.29148c0 .71032.9.94613 2 .52402s2-1.00328 2-1.29149zm14.30556.004c-.44307-.44306-1.59307-.49043-2.55556-.10527-1.06364.42563-.74771.74158.80556.80555 1.40555.0579 2.19305-.25723 1.75-.70029zM105 95.78362c-2.01667-.73655-3.66667-1.98918-3.66667-2.78362 0-.79445-.3855-1.05895-.85667-.58778-1.46923 1.46924 2.37374 4.92641 5.35326 4.81585 2.41193-.08951 2.28764-.30581-.82992-1.44445zm12.33333-1.70493c0-1.4073-2.55882-1.99855-3.31989-.7671-.46062.74529.0979 1.35507 1.2412 1.35507 1.14328 0 2.07869-.26458 2.07869-.58797zm2.83212-3.76758c-1.31682-1.30702-1.46998-1.15387-.7464.7464.50071 1.31495 1.24626 2.05495 1.65678 1.64444.41051-.41052.00084-1.4864-.91038-2.39084zm-7.6609-2.03501c2.14033 2.92232 2.17829 2.92812.86012.13149-2.17098-4.60598-3.35464-4.61022-7.49397-.02685L102 92.66666l4.1327-3.7239 4.1327-3.7239zm22.16211.67835c0-.20838-3.17856-3.51796-7.06348-7.35462l-7.06348-6.97574-3.71252 3.87503c-2.69264 2.81051-3.2596 4.15494-2.06383 4.89396.98346.60781 1.30924.46974.80743-.3422-.46268-.74864.3704-2.45767 1.85128-3.79785 2.63773-2.38711 2.81988-2.30934 8.95102 3.8218 5.33537 5.33538 8.29358 7.43256 8.29358 5.87962zm-2.45058-8.21616l-7.54942-7.2617L130 67.78849l5.33333-5.68811-6.12337 5.28314-6.12336 5.28314 7.41496 7.66667C134.57978 84.55 138.33254 88 138.84101 88c.50847 0-2.47276-3.26777-6.62493-7.2617zm14.36128-3.31659C144.18101 74.43977 142.12537 72 142.00926 72c-.11613 0-1.66568 1.65-3.44352 3.66666l-3.23241 3.66667 3.41436-2.9954 3.41436-2.99538 3.91897 5.21441c2.15544 2.86793 4.1292 5.00563 4.38616 4.75044.25695-.2552-1.49346-2.90376-3.88982-5.8857zM156 78.58797c0-.7766-.50494-1.09995-1.12207-.71854-.61713.3814-3.01448-1.25902-5.32745-3.64539l-4.20539-4.33886 3.6742-4.4011 3.67419-4.40108 2.52657 2.79183c1.38963 1.53551 3.06704 2.79183 3.72761 2.79183.66058 0-.48242-1.49404-2.53998-3.32009l-3.74102-3.3201-4.35853 4.90474-4.35855 4.90473 4.96247 5.08203c5.0368 5.15814 7.08795 6.22019 7.08795 3.67zm6.56814-3.13593c.92134-1.11014 1.05039-2.19709.31486-2.65168-.68558-.4237-1.55854.42288-1.93992 1.8813-.8216 3.14182-.47818 3.30463 1.62506.77038zm-5.65733-2.3687c-.42563-1.06365-.74157-.74771-.80555.80555-.0579 1.40555.25723 2.19305.7003 1.75.44305-.44306.49041-1.59306.1052-2.55556zm-18.31823-4.24905c-.32592-.31521-1.72901 1.01812-3.11798 2.96296l-2.5254 3.53608 3.118-2.96296c1.71489-1.62963 2.85132-3.22087 2.52538-3.53608zm35.74075-.95123c3.95188-2.44734 3.78881-3.40667-1-5.88306-2.2-1.13767-4-1.77224-4-1.41016 0 .36208 1.60519 1.49937 3.56708 2.5273l3.56708 1.86899-5.56708 3.68411c-3.06189 2.02627-5.56708 3.9734-5.56708 4.32695 0 .35356 1.35-.23447 3-1.30672 1.65-1.07226 4.35-2.78559 6-3.8074zm-28.46881-5.82396l3.51436-4.60757-2.85931-1.53025c-2.46064-1.3169-3.41308-.97649-6.83097 2.4414-2.90926 2.90926-3.52204 4.24955-2.29079 5.0105 1.00552.62145 1.34676.49823.84929-.3067-1.25784-2.03523 4.97064-7.28297 7.49456-6.31445 1.91115.73337 1.83483 1.2621-.67142 4.652-1.55522 2.10353-3.42494 3.45544-4.15496 3.00427-.74668-.46148-.91114-.14695-.37594.71902 1.32023 2.13617 1.38334 2.09981 5.32518-3.06822zm19.04629 1.6909c-.42563-1.06365-.74157-.7477-.80555.80555-.0579 1.40556.25723 2.19306.7003 1.75.44305-.44305.49041-1.59305.1052-2.55555zM161.75446 57c-.31818-.55-1.2931-.95263-2.16649-.89474-1.13659.07535-1.11185.29722.0871.78055.92124.3714 1.31781 1.25317.88129 1.95948-.48165.77933-1.66432.61255-3.00831-.42424-1.45442-1.12198-1.31572-.65666.40408 1.35558 2.42443 2.8367 2.68407 2.88445 3.49983.64369.48461-1.33118.62079-2.87032.3026-3.42032zm5.57887 3c.45323-.73334.18864-1.33334-.58797-1.33334-.77662 0-1.41203.6-1.41203 1.33334 0 .73333.26459 1.33333.58797 1.33333.32339 0 .9588-.6 1.41203-1.33333zm-13.42184-5.46962c-4.17548-1.63514-5.2768-1.33522-2.51437.68472 1.41541 1.03497 3.14026 1.53147 3.83301 1.10333.69273-.42814.0993-1.23277-1.31864-1.78805z"/><path fill="#03a752" d="M130.66666 238.16207v-7.17125l-10.04178-1.49352c-5.52298-.82144-13.46736-2.65-17.65418-4.06347-4.18682-1.41345-7.76661-2.4157-7.9551-2.22721-.1885.18849-.72959 4.04411-1.20244 8.56804-.78486 7.50915-1.1334 8.22533-4.0031 8.22533-3.94941 0-4.00525 3.08574.8566-47.33333 4.84992-50.29524 4.8405-49.88204.9583-41.97361-3.42227 6.97156-38.59 61.25708-39.70346 61.28696-.40983.0107-1.8346-.77664-3.16615-1.75028-2.28394-1.67007-2.13752-2.1972 2.5864-9.31195l5.00739-7.54166-3.31874-4.35474c-4.3496-5.7074-9.62455-16.22062-11.81704-23.55193l-1.75364-5.86389-4.36689 5.05174c-3.87205 4.47931-4.63464 4.84658-6.72986 3.24118-1.29963-.99582-2.58059-1.94796-2.84657-2.1159-.26598-.16793 12.80624-15.35908 29.04936-33.75808 16.24313-18.39902 29.21925-33.96033 28.83584-34.5807-.38341-.62038-3.14625.08378-6.13963 1.56479-4.75758 2.35386-6.1104 2.49265-10.74935 1.10278-10.91771-3.27102-13.81453-16.78323-5.24058-24.4447C64.08467 73.15336 66.83672 72 70.02104 72c4.10343 0 4.64563-.40101 4.64563-3.4359 0-2.0198 1.60632-5.04222 3.89743-7.33333C87.05352 52.74135 100 58.14744 100 70.18182c0 3.95608-.8179 6.63608-2.55556 8.37373-2.64411 2.64412-2.34521 4.11112.83764 4.11112 1.0107 0 16.3607-12.8579 34.11111-28.5731 31.46609-27.85828 32.33634-28.51164 34.78627-26.11683 2.45623 2.40097 2.40218 2.55338-2.40178 6.77131-2.70302 2.37328-4.43378 4.7521-3.84614 5.28627.58766.53417 4.18058 1.98061 7.98427 3.21431 3.80369 1.2337 10.57393 4.60745 15.04499 7.49723C188.43185 53.63563 192.52774 56 193.06278 56c.53504 0 4.0841-2.09526 7.88678-4.65614l6.91397-4.65614 2.04809 2.92405c2.01004 2.86974 1.56608 3.23967-23.90177 19.91569-30.94124 20.25993-36.8686 23.80587-39.79367 23.80587-1.2189 0-2.21618.62719-2.21618 1.39375 0 .82946 1.75445 1.10576 4.33333.68244 2.38333-.39123 20.83333-2.22112 41-4.06643 20.16666-1.8453 39.43802-3.6979 42.82524-4.11685 5.7545-.71176 6.19989-.5456 6.78832 2.53257.55604 2.90876.0693 3.38701-4.15858 4.0864-2.63357.43566-6.50829.7987-8.61049.80678-3.33125.0128-3.71.4-2.9488 3.01467 3.78671 13.00723 6.10431 23.53327 6.10431 27.72444 0 5.49175 1.74706 6.5564 10.8151 6.59069 4.43952.0168 4.76439.28352 4.16488 3.41962l-.65022 3.40141-12.16488-.71013c-6.69068-.39057-23.86488-1.06009-38.16488-1.48781-16.64439-.49786-29.01588-1.52892-34.38139-2.86546-4.60976-1.14826-8.7001-1.76904-9.08964-1.3795-1.74686 1.74685 7.36502 15.84958 15.98952 24.74746 7.17524 7.40268 12.31056 11.23922 21.16618 15.81295 8.57021 4.42635 13.24556 7.86904 17.50879 12.89261 7.49772 8.83494 13.24398 18.40449 16.30456 27.15289 3.31072 9.46342 1.91195 10.68844-8.16166 7.14786-17.25145-6.0634-33.96503-20.51444-40.68372-35.17633-4.66153-10.17266-20.95019-26.61663-32.31931-32.6275-8.66582-4.58164-8.55176-4.75136-5.7818 8.60296 1.17851 5.68174 2.24499 23.20286 2.84582 46.75384l.96094 37.66667h-3.51248c-3.35904 0-3.51248-.31327-3.51248-7.17126zm-2.80036-26.49541c-2.2044-4.23693-3.01552-4.82604-1.97394-1.43367.71059 2.31431.27299 3.01784-2.16769 3.4851-2.25689.43205-1.91049.63298 1.32224.767 4.13304.17132 4.29215.012 2.81939-2.81843zm-13.62215-1.25c-.42564-1.06364-.74158-.74771-.80556.80556-.0579 1.40555.25724 2.19305.7003 1.75.44305-.44307.49042-1.59307.10526-2.55556zm5.30556-1.41667c-.36989-.91666-.67252-.16666-.67252 1.66667 0 1.83333.30263 2.58333.67252 1.66667.36988-.91667.36988-2.41667 0-3.33334zM112 211.41202c0-.32339-.6-.9588-1.33334-1.41203-.73333-.45322-1.33333-.18864-1.33333.58798 0 .77661.6 1.41202 1.33333 1.41202.73334 0 1.33334-.26458 1.33334-.58797zm-7.33334-2.07869c-.45322-.73334-1.53863-1.32415-2.41202-1.31292-.95415.012-.7897.5363.41202 1.31292 2.5615 1.65537 3.02308 1.65537 2 0zm-5.73886-5c-.38632-2.01667-.95972-2.89687-1.27421-1.95601-.56713 1.69666.44742 5.62267 1.453 5.62267.28799 0 .20753-1.65-.1788-3.66666zm7.73886-1c0-2.32581-.70526-3.30152-2.33333-3.22807-1.39392.0629-1.66232.37602-.66667.77778.91667.36988 1.66667 1.82252 1.66667 3.22806 0 1.40556.3 2.55556.66667 2.55556.36666 0 .66666-1.5.66666-3.33333zm4.88305-1c-.36989-.91667-.67252-.16667-.67252 1.66666 0 1.83334.30263 2.58334.67252 1.66667.36988-.91667.36988-2.41667 0-3.33333zM116 203.99999c0-.73333-.63541-1.33333-1.41203-1.33333-.77661 0-1.0412.6-.58797 1.33333.45322.73334 1.08863 1.33334 1.41202 1.33334.32339 0 .58798-.6.58798-1.33334zm12.88304-4.33333c-.36989-.91666-.67252-.16666-.67252 1.66667 0 1.83333.30263 2.58333.67252 1.66666.36988-.91666.36988-2.41666 0-3.33333zm-6.03234-3.06702l-1.06111-3.93298-.70101 3.62015c-.39692 2.04976-.0621 3.85035.77187 4.1508 2.10914.75987 2.16859.52948.99025-3.83797zM117.33333 196c0-1.46667-.58117-2.66667-1.29149-2.66667-.71031 0-.94612.9-.52401 2s.10328 2-.70851 2c-.8118 0-1.52336-1.35-1.58125-3-.0579-1.65-.4145-2.2302-.79244-1.28935-1.02507 2.5518.53469 5.62268 2.85585 5.62268 1.15296 0 2.04185-1.16089 2.04185-2.66666zm-9.78362-3c-.36989-.91667-.67252-.16667-.67252 1.66666 0 1.83334.30263 2.58334.67252 1.66667.36988-.91667.36988-2.41667 0-3.33333zm-7.95906-3.30796c-.33806-1.2973-.63688-.55871-.66405 1.64129-.02717 2.2.24942 3.26141.61465 2.35871.36523-.90271.38746-2.70271.0494-4zm24.74116-1.90054c-.51515-1.96993-.26596-2.57485.79149-1.9213.84885.52461 1.54336.31844 1.54336-.45818 0-.77661-.9-1.41202-2-1.41202-1.24444 0-2 1.25925-2 3.33333 0 1.83333.54383 3.33333 1.20851 3.33333.66468 0 .87017-1.29382.45664-2.87516zm-5.66515.25034c0-.71031-.85225-.96444-1.8939-.56472-1.22737.47098-2.10197-.36494-2.48509-2.37519-.53088-2.78551-.60971-2.72791-.77276.56473-.14056 2.83831.42087 3.66667 2.48509 3.66667 1.46666 0 2.66666-.58117 2.66666-1.29149zm-9.33333-2.70851c0-2.06423-.82836-2.62564-3.66667-2.48509-3.14379.15568-3.23886.26397-.66666.7594 1.65.31781 3 1.43609 3 2.48509S108.3 188 108.66666 188c.36667 0 .66667-1.2.66667-2.66667zM119 179.11696c-.91667-.36988-2.41667-.36988-3.33334 0-.91666.36988-.16666.67252 1.66667.67252 1.83333 0 2.58333-.30264 1.66667-.67252zm8.73057-5.94742c-.45225-4.39202-.48005-4.36424-1.12904 1.12904-.36596 3.09756-.15731 5.12386.46367 4.50288.62097-.62097.92039-3.15534.66537-5.63192zm-59.10154-.0185l3.65007-5.51561-9.47288-9.4729c-6.504-6.50396-9.47289-8.7205-9.47289-7.07232 0 1.3203.49684 2.09347 1.10408 1.71818.60724-.37531 4.56285 2.81288 8.79023 7.08484l7.68616 7.7672-3.07877 4.6967c-2.77315 4.23048-3.25597 4.47896-4.86379 2.50314-1.54667-1.90067-1.5909-1.79299-.33122.80642.7996 1.65 1.65296 3 1.89638 3 .24341 0 2.0851-2.48202 4.09263-5.51562zM105 177.71166c-4.9255-.74616-4.61867-3.3357.89338-7.53994 3.18125-2.42646 4.76203-2.97826 5.22807-1.82492.39262.97164.71142.69125.77328-.68014.14805-3.2816-1.22889-2.93088-6.92427 1.76374-6.41963 5.2916-6.70338 9.31616-.63713 9.03649 4.03324-.18595 4.07941-.23824.66667-.75523zm5.21637-3.37833c-.36988-.91667-.67251-.16667-.67251 1.66667 0 1.83333.30263 2.58333.67251 1.66666.36988-.91666.36988-2.41666 0-3.33333zM115.54971 173c-.36989-.91667-.67252-.16667-.67252 1.66666 0 1.83334.30263 2.58334.67252 1.66667.36988-.91667.36988-2.41667 0-3.33333zm-10.75636-7.97703c1.84348-2.16068 1.92663-2.50351.30323-1.25023-1.95784 1.51147-2.30701 1.25922-2.80022-2.02297-.46853-3.11796-.59714-2.90729-.76325 1.25023-.10988 2.75.007 5 .26024 5 .25301 0 1.60301-1.33967 3-2.97703zM120 165.85734c0-.2882-.9-.52401-2-.52401s-2 .58117-2 1.29149c0 .71031.9.94612 2 .52402 1.1-.42212 2-1.00328 2-1.2915zm-44.53935-3.39669c.53382-.86373.37086-1.18057-.3713-.72189-.72747.44961-3.51694-1.42967-6.19882-4.17618l-4.87615-4.99362 7.96213-7.87906 7.96213-7.87905 3.69735 3.22364 3.69734 3.22363-3.66254-3.92796-3.66254-3.92798-8.66485 8.58783-8.66484 8.58783 5.605 5.71108c6.35264 6.47288 5.91289 6.21726 7.1771 4.17173zM125.59446 159c-.38632-2.01667-.95971-2.89687-1.27421-1.95602-.56713 1.69667.44743 5.62268 1.453 5.62268.28799 0 .20754-1.65-.17879-3.66666zm-12.44271-1.33334c-.14947-3.0185-.28181-3.15085-.74865-.74864-.3119 1.60491-1.58019 3.18531-2.81843 3.512-1.59512.42084-1.3769.63906.74866.74864 2.46142.12694 2.9674-.50358 2.81842-3.512zm5.06462-3.33333c-.36988-.91667-.67251-.16667-.67251 1.66667 0 1.83333.30263 2.58333.67251 1.66666.36988-.91666.36988-2.41666 0-3.33333zm-35.50636-3.07013c1.61013-2.60524 2.69927-4.96503 2.42032-5.24399-.27895-.27895-1.8653 1.85261-3.52524 4.7368-3.76117 6.53519-2.87265 6.94303 1.10492.50719zm27.30729-.93974c5.26537-.53669 5.25568-.544-1.0173-.766-5.23503-.18526-6.3298.18051-6.31292 2.1092.0135 1.54259.35825 1.80218 1.0173.766.54829-.86204 3.3891-1.81118 6.31292-2.1092zm13.56018.0932c-.42563-1.06364-.74158-.7477-.80555.80556-.0579 1.40555.25723 2.19306.70029 1.75.44305-.44306.49042-1.59306.10527-2.55556zm-58.48671-5.49973l4.28055-4.41641-3.09283-2.90556-3.09283-2.90556-5.19676 5.32197c-2.85822 2.92708-4.75666 5.32196-4.21876 5.32196.5379 0 2.8398-2.12048 5.11533-4.71216 3.94558-4.49377 4.25395-4.60663 6.6535-2.43507 2.4526 2.21956 2.42411 2.37318-1.12707 6.0798-2.00377 2.0915-4.44734 3.49415-5.43015 3.11702-.9828-.37715-1.42035-.0925-.97231.63234 1.31128 2.12171 2.54509 1.58188 7.08133-3.09833zM119.5497 145c-.36989-.91667-.67252-.16667-.67252 1.66666 0 1.83334.30263 2.58334.67252 1.66667.36988-.91667.36988-2.41667 0-3.33333zm2.69444-1.25c-.42564-1.06364-.74158-.74771-.80556.80556-.0579 1.40554.25724 2.19305.7003 1.75.44305-.44307.49042-1.59307.10526-2.55556zm-7.9386.77777c-.44305-.44305-1.59305-.49041-2.55555-.1052-1.06365.42563-.7477.74157.80555.80555 1.40556.0579 2.19306-.25723 1.75-.7003zm1.2851-8.16907c-.33806-1.29729-.63688-.5587-.66405 1.6413-.0272 2.2.24942 3.26141.61465 2.3587.36523-.9027.38746-2.7027.0494-4zm5.33334 0c-.33806-1.29729-.63689-.5587-.66406 1.6413-.0272 2.2.24942 3.26141.61465 2.3587.36523-.9027.38746-2.7027.0494-4zm-12.59066 2.75826c-.91667-.36988-2.41667-.36988-3.33333 0-.91667.36988-.16667.67252 1.66666.67252 1.83334 0 2.58334-.30264 1.66667-.67252zm-32.87332-4.78363l2.53999-3-3 2.53999c-2.9018 2.45682-3.08765 2.46065-5.67746.11693-2.51075-2.27219-2.53879-2.5763-.45025-4.88411 2.12866-2.35213 2.35039-2.35731 5.0108-.11692l2.78358 2.34411-2.55871-3.02069-2.55871-3.02069-3.11543 2.9268-3.11544 2.9268 2.90656 3.09389c3.59043 3.82184 4.07346 3.8281 7.23507.0939zm13.40628-2.7169c-.36768-.90631-.70201-.59136-.76103.7169-.12331 2.73345-2.77193 3.20795-2.77193.49659 0-2.09323 3.2166-5.16887 4.28668-4.0988.38939.38939 1.05017-.60055 1.4684-2.19987.65038-2.48707.0984-2.26619-3.81465 1.52649-4.32854 4.19538-4.45457 4.56748-2.3389 6.90527 1.99262 2.20183 2.36419 2.24216 3.41168.37039.64654-1.1553.88043-2.82793.51975-3.71697zm21.13804 2.06349c-2.19762-.32298-4.43843-1.28307-4.97958-2.13357-.63874-1.00387-.99108-.72778-1.00434.78698-.0162 1.84611 1.02364 2.29161 4.97959 2.13356 4.53467-.18119 4.62814-.25443 1.00433-.78697zm6.87871-6.01326c-.36989-.91666-.67252-.16666-.67252 1.66667 0 1.83333.30263 2.58333.67252 1.66667.36988-.91667.36988-2.41667 0-3.33334zm-29.2583-5.28778c3.87306-3.82495 7.04192-7.37219 7.04192-7.88275 0-.51056-3.25747 2.46147-7.23882 6.60452-7.4903 7.7945-12.22023 8.8698-5.36106 1.21877L85.93917 118l-4.46908 4.1918c-2.458 2.30549-4.0589 4.85549-3.55756 5.66666 1.44638 2.3403 2.25716 1.88286 9.7122-5.47958zm97.29924 1.97983c-.33805-1.29729-.63688-.55871-.66405 1.64129-.0272 2.2.24941 3.26142.61465 2.35871.36523-.90271.38746-2.70271.0495-4zm9.38158 4.16906c-.44307-.44305-1.59307-.49042-2.55556-.10526-1.06364.42563-.74771.74157.80556.80555 1.40554.0579 2.19305-.25723 1.75-.70029zM211.97958 127c-.0136-1.55229-.35565-1.8062-1.02191-.75855-.55081.86613-3.69162 1.81131-6.97958 2.10039l-5.97809.5256 6.99999.23295c5.8733.19545 6.99672-.14263 6.97959-2.10039zm-38.9959.0778c-1.29232-.3371-1.96991-1.22736-1.50578-1.97836.46415-.751-.5785-.62431-2.317.28152-4.75833 2.47929-4.69956 2.63174.9502 2.46441 2.87223-.0851 4.16488-.43047 2.87258-.76757zM180 124c0-4.5117-1.00768-4.92079-4.74516-1.92645-2.48536 1.99119-2.46902 2.01581.41182.61976 2.70452-1.31061 3-1.12086 3 1.92644 0 1.85914.3 3.38025.66667 3.38025S180 126.2 180 124zm-73.72365-5.65112c-.31893-1.65855-.59198-.61555-.60678 2.31778-.0148 2.93334.24614 4.29033.57987 3.01555.33372-1.27478.34583-3.67478.0269-5.33333zM160 124.12482c0-.66468-1.2-.8947-2.66667-.51116-1.46667.38355-2.66667.92738-2.66667 1.20851 0 .28114 1.2.51116 2.66667.51116S160 124.7895 160 124.12482zm-80.78606-4.00021c2.04208-2.13146 3.80433-4.38146 3.91613-5 .1118-.61854.63167-.98181 1.15528-.80727.5236.17453.6609-.44129.3051-1.3685-.3558-.92721 1.7469-4.02334 4.67267-6.88029l5.3196-5.19444 1.29079 3.22961c.81227 2.03233 1.32212 2.42512 1.3753 1.05954.04649-1.19354-.74528-2.85875-1.75948-3.70046-1.4773-1.22605-3.86367.69424-12 9.65625-5.5858 6.15265-10.156 11.56785-10.156 12.03379 0 1.86302 2.35766.64894 5.88061-3.02823zm-1.8806-.62802c0-.27687 1.05-1.32687 2.33332-2.33333 2.11475-1.6585 2.1619-1.61134.50341.5034-1.74182 2.221-2.83674 2.92731-2.83674 1.82993zM112 118c-3.23871-3.3-6.18856-6-6.55522-6-.36667 0 1.98318 2.7 5.22188 6 3.23871 3.3 6.18856 6 6.55523 6 .36666 0-1.98319-2.7-5.22189-6zm40.97222 5.19444c-.44306-.44305-1.59306-.49042-2.55556-.10527-1.06364.42564-.7477.74158.80556.80556 1.40555.0579 2.19306-.25724 1.75-.70029zm59.95176-4.16907c-.33805-1.29729-.63688-.55871-.66405 1.64129-.0272 2.2.24941 3.26142.61465 2.35871.36523-.90271.38745-2.70271.0495-4zm-65.28509 2.83574c-.44307-.44306-1.59307-.49043-2.55556-.10527-1.06364.42564-.74771.74158.80556.80556 1.40555.0579 2.19305-.25724 1.75-.7003zm47.91081-3.52778c-.36988-.91667-.67252-.16667-.67252 1.66667 0 1.83333.30264 2.58333.67252 1.66666.36988-.91666.36988-2.41666 0-3.33333zm-51.85913.33333C144.60652 117.2 145.14384 116 144.88461 116c-.25923 0-1.55729 1.2-2.88461 2.66666-1.32732 1.46667-1.86464 2.66667-1.19404 2.66667.67058 0 1.96866-1.2 2.88461-2.66667zm25.64276 2.23242c0-.23883-1.5-1.84342-3.33333-3.56575l-3.33334-3.1315.0204 3.23242c.014 2.20812.36814 2.68428 1.1177 1.50264.87642-1.38162 1.4419-1.31453 2.80952.33333 1.61344 1.94406 2.71905 2.60639 2.71905 1.62886zM200.88304 117c-.36988-.91667-.67252-.16667-.67252 1.66666 0 1.83334.30264 2.58334.67252 1.66667.36988-.91667.36988-2.41667 0-3.33333zm-59.77574-2.88464c2.32432-3.23655 4.22603-6.34216 4.22603-6.90136 0-.5592-2.04837 1.86436-4.55195 5.38569-4.21089 5.92271-4.5969 6.16507-5.15176 3.2347-.5537-2.92426-.61376-2.88591-.78138.49894-.25538 5.15694 1.37864 4.57791 6.25906-2.21797zm17.10907 1.5513c-.36988-.91666-.67252-.16666-.67252 1.66667 0 1.83333.30264 2.58333.67252 1.66667.36988-.91667.36988-2.41667 0-3.33334zm-27.65497.66667c-.0635-1.40766-.37316-1.66884-.78055-.65836-.3714.92124-1.22403 1.33583-1.89473.92131-.6707-.41451-1.21946-.11825-1.21946.65836 0 .77661.9 1.41202 2 1.41202s1.95264-1.05 1.89474-2.33333zm44.89925.79399c.60989-.98684.36343-1.17598-.68668-.52698-.96447.59608-3.10523-.2787-5.20601-2.12732L166 111.33333 169.23241 115c3.54744 4.024 4.79308 4.44946 6.22824 2.12732zm10.57463-.86982c-.41052-.41051-1.48639-.00084-2.39084.91038-1.30702 1.31682-1.15387 1.46997.7464.74639 1.31496-.5007 2.05496-1.24625 1.64444-1.65677zm6.29805.19279c-.91667-.36988-2.41667-.36988-3.33333 0-.91667.36988-.16667.67251 1.66666.67251 1.83334 0 2.58334-.30263 1.66667-.67251zm-69.89484-5.78363c.11494-2.93333-.3035-5.33333-.92986-5.33333s-.83987 1.65-.47445 3.66667l.66438 3.66666-3.26855-3c-5.21024-4.78216-6.07433-3.46896-1.09668 1.66667C119.82104 113.9 121.94038 116 122.04297 116c.10259 0 .28058-2.4.39552-5.33334zm26.89484 0c1.56653-2.2 2.54825-4 2.18159-4-.36667 0-1.94839 1.8-3.51492 4-1.56654 2.2-2.54826 4-2.18159 4 .36667 0 1.94839-1.8 3.51492-4zm62.66666 2.66667c0-.73333-.63541-1.33333-1.41202-1.33333-.77662 0-1.0412.6-.58798 1.33333.45323.73333 1.08864 1.33333 1.41203 1.33333.32339 0 .58797-.6.58797-1.33333zm-33.74267-4.97462c-.33806-1.29729-.63688-.55871-.66406 1.64129-.0272 2.2.24942 3.26142.61466 2.35871.36522-.90271.38745-2.70271.0495-4zM183.58577 107c-.33537-1.28334-.60977-.23334-.60977 2.33333 0 2.56667.2744 3.61667.60977 2.33333.33536-1.28333.33536-3.38333 0-4.66666zm14.46905 4.91129c1.36808-2.21361.14015-2.52057-1.77406-.44348-.94558 1.02604-1.13099 1.86552-.41202 1.86552.71896 0 1.7027-.63992 2.18608-1.42204zm-41.17178-4.24463c-.36988-.91666-.67252-.16666-.67252 1.66667 0 1.83333.30264 2.58333.67252 1.66667.36988-.91667.36988-2.41667 0-3.33334zm6.8454 1.72731c-.89512-1.43332-1.88571-2.34782-2.20131-2.03222-.57145.57146 2.33432 4.63825 3.31409 4.63825.28308 0-.21766-1.17272-1.11278-2.60603zm27.47148 1.58561c-.80671-.53877-1.80934-1.87958-2.22807-2.97958-.50872-1.3364-.79625-1.00459-.86659 1-.0707 2.01552.66044 2.9933 2.22807 2.97958 1.43924-.0125 1.77131-.39578.86659-1zm-59.60927-5.28754c-.33806-1.29729-.63688-.55871-.66405 1.64129-.0272 2.2.24942 3.26142.61465 2.35871.36523-.90271.38746-2.70271.0494-4zm11.07601 1.48585c0-.28117-1.5-.51123-3.33333-.51123-1.83333 0-3.33333.5168-3.33333 1.14844 0 .63164 1.5.8617 3.33333.51123 1.83333-.35046 3.33333-.86726 3.33333-1.14844zm67.12677-1.2354c-.43425-1.13162-1.0755-1.77154-1.425-1.42204-.3495.34951-.23997 1.27538.2434 2.05751 1.31474 2.12728 2.08318 1.71401 1.1816-.63547zm-54.42482-3.01832c-.41052-.41052-1.48639-.00085-2.39084.91038-1.30701 1.31682-1.15387 1.46997.7464.74639 1.31496-.50071 2.05496-1.24626 1.64444-1.65677zm46.47347.33991c.45532-1.18657.2318-1.72176-.52402-1.25464-.72493.44803-1.31806 1.37919-1.31806 2.06925 0 1.91791.95569 1.49528 1.84208-.81461zm5.33333 0c.45532-1.18657.2318-1.72176-.52402-1.25464-.72493.44803-1.31806 1.37919-1.31806 2.06925 0 1.91791.95569 1.49528 1.84208-.81461zm-38.81671-1.472c-.9027-.36523-2.7027-.38746-4-.0494-1.29729.33806-.5587.63689 1.6413.66406 2.2.0272 3.26141-.24942 2.3587-.61465zm16.97463-1.26807c0-.28821-.9-.52401-2-.52401s-2 .58117-2 1.29148c0 .71032.9.94613 2 .52402s2-1.00328 2-1.29149zm14.30556.004c-.44307-.44306-1.59307-.49043-2.55556-.10527-1.06364.42563-.74771.74158.80556.80555 1.40555.0579 2.19305-.25723 1.75-.70029zM105 95.78362c-2.01667-.73655-3.66667-1.98918-3.66667-2.78362 0-.79445-.3855-1.05895-.85667-.58778-1.46923 1.46924 2.37374 4.92641 5.35326 4.81585 2.41193-.08951 2.28764-.30581-.82992-1.44445zm12.33333-1.70493c0-1.4073-2.55882-1.99855-3.31989-.7671-.46062.74529.0979 1.35507 1.2412 1.35507 1.14328 0 2.07869-.26458 2.07869-.58797zm2.83212-3.76758c-1.31682-1.30702-1.46998-1.15387-.7464.7464.50071 1.31495 1.24626 2.05495 1.65678 1.64444.41051-.41052.00084-1.4864-.91038-2.39084zm-7.6609-2.03501c2.14033 2.92232 2.17829 2.92812.86012.13149-2.17098-4.60598-3.35464-4.61022-7.49397-.02685L102 92.66666l4.1327-3.7239 4.1327-3.7239zm22.16211.67835c0-.20838-3.17856-3.51796-7.06348-7.35462l-7.06348-6.97574-3.71252 3.87503c-2.69264 2.81051-3.2596 4.15494-2.06383 4.89396.98346.60781 1.30924.46974.80743-.3422-.46268-.74864.3704-2.45767 1.85128-3.79785 2.63773-2.38711 2.81988-2.30934 8.95102 3.8218 5.33537 5.33538 8.29358 7.43256 8.29358 5.87962zm-2.45058-8.21616l-7.54942-7.2617L130 67.78849l5.33333-5.68811-6.12337 5.28314-6.12336 5.28314 7.41496 7.66667C134.57978 84.55 138.33254 88 138.84101 88c.50847 0-2.47276-3.26777-6.62493-7.2617zm14.36128-3.31659C144.18101 74.43977 142.12537 72 142.00926 72c-.11613 0-1.66568 1.65-3.44352 3.66666l-3.23241 3.66667 3.41436-2.9954 3.41436-2.99538 3.91897 5.21441c2.15544 2.86793 4.1292 5.00563 4.38616 4.75044.25695-.2552-1.49346-2.90376-3.88982-5.8857zM156 78.58797c0-.7766-.50494-1.09995-1.12207-.71854-.61713.3814-3.01448-1.25902-5.32745-3.64539l-4.20539-4.33886 3.6742-4.4011 3.67419-4.40108 2.52657 2.79183c1.38963 1.53551 3.06704 2.79183 3.72761 2.79183.66058 0-.48242-1.49404-2.53998-3.32009l-3.74102-3.3201-4.35853 4.90474-4.35855 4.90473 4.96247 5.08203c5.0368 5.15814 7.08795 6.22019 7.08795 3.67zm6.56814-3.13593c.92134-1.11014 1.05039-2.19709.31486-2.65168-.68558-.4237-1.55854.42288-1.93992 1.8813-.8216 3.14182-.47818 3.30463 1.62506.77038zm-5.65733-2.3687c-.42563-1.06365-.74157-.74771-.80555.80555-.0579 1.40555.25723 2.19305.7003 1.75.44305-.44306.49041-1.59306.1052-2.55556zm-18.31823-4.24905c-.32592-.31521-1.72901 1.01812-3.11798 2.96296l-2.5254 3.53608 3.118-2.96296c1.71489-1.62963 2.85132-3.22087 2.52538-3.53608zm35.74075-.95123c3.95188-2.44734 3.78881-3.40667-1-5.88306-2.2-1.13767-4-1.77224-4-1.41016 0 .36208 1.60519 1.49937 3.56708 2.5273l3.56708 1.86899-5.56708 3.68411c-3.06189 2.02627-5.56708 3.9734-5.56708 4.32695 0 .35356 1.35-.23447 3-1.30672 1.65-1.07226 4.35-2.78559 6-3.8074zm-28.46881-5.82396l3.51436-4.60757-2.85931-1.53025c-2.46064-1.3169-3.41308-.97649-6.83097 2.4414-2.90926 2.90926-3.52204 4.24955-2.29079 5.0105 1.00552.62145 1.34676.49823.84929-.3067-1.25784-2.03523 4.97064-7.28297 7.49456-6.31445 1.91115.73337 1.83483 1.2621-.67142 4.652-1.55522 2.10353-3.42494 3.45544-4.15496 3.00427-.74668-.46148-.91114-.14695-.37594.71902 1.32023 2.13617 1.38334 2.09981 5.32518-3.06822zm19.04629 1.6909c-.42563-1.06365-.74157-.7477-.80555.80555-.0579 1.40556.25723 2.19306.7003 1.75.44305-.44305.49041-1.59305.1052-2.55555zM161.75446 57c-.31818-.55-1.2931-.95263-2.16649-.89474-1.13659.07535-1.11185.29722.0871.78055.92124.3714 1.31781 1.25317.88129 1.95948-.48165.77933-1.66432.61255-3.00831-.42424-1.45442-1.12198-1.31572-.65666.40408 1.35558 2.42443 2.8367 2.68407 2.88445 3.49983.64369.48461-1.33118.62079-2.87032.3026-3.42032zm5.57887 3c.45323-.73334.18864-1.33334-.58797-1.33334-.77662 0-1.41203.6-1.41203 1.33334 0 .73333.26459 1.33333.58797 1.33333.32339 0 .9588-.6 1.41203-1.33333zm-13.42184-5.46962c-4.17548-1.63514-5.2768-1.33522-2.51437.68472 1.41541 1.03497 3.14026 1.53147 3.83301 1.10333.69273-.42814.0993-1.23277-1.31864-1.78805z"/><path fill="#0f5733" d="M130.66666 238.16207v-7.17125l-10.04178-1.49352c-5.52298-.82144-13.46736-2.65-17.65418-4.06347-4.18682-1.41345-7.76661-2.4157-7.9551-2.22721-.1885.18849-.72959 4.04411-1.20244 8.56804-.78486 7.50915-1.1334 8.22533-4.0031 8.22533-3.94941 0-4.00525 3.08574.8566-47.33333 4.84992-50.29524 4.8405-49.88204.9583-41.97361-3.42227 6.97156-38.59 61.25708-39.70346 61.28696-.40983.0107-1.8346-.77664-3.16615-1.75028-2.28394-1.67007-2.13752-2.1972 2.5864-9.31195l5.00739-7.54166-3.31874-4.35474c-4.3496-5.7074-9.62455-16.22062-11.81704-23.55193l-1.75364-5.86389-4.36689 5.05174c-3.87205 4.47931-4.63464 4.84658-6.72986 3.24118-1.29963-.99582-2.58059-1.94796-2.84657-2.1159-.26598-.16793 12.80624-15.35908 29.04936-33.75808 16.24313-18.39902 29.21925-33.96033 28.83584-34.5807-.38341-.62038-3.14625.08378-6.13963 1.56479-4.75758 2.35386-6.1104 2.49265-10.74935 1.10278-10.91771-3.27102-13.81453-16.78323-5.24058-24.4447C64.08467 73.15336 66.83672 72 70.02104 72c4.10343 0 4.64563-.40101 4.64563-3.4359 0-2.0198 1.60632-5.04222 3.89743-7.33333C87.05352 52.74135 100 58.14744 100 70.18182c0 3.95608-.8179 6.63608-2.55556 8.37373-2.64411 2.64412-2.34521 4.11112.83764 4.11112 1.0107 0 16.3607-12.8579 34.11111-28.5731 31.46609-27.85828 32.33634-28.51164 34.78627-26.11683 2.45623 2.40097 2.40218 2.55338-2.40178 6.77131-2.70302 2.37328-4.43378 4.7521-3.84614 5.28627.58766.53417 4.18058 1.98061 7.98427 3.21431 3.80369 1.2337 10.57393 4.60745 15.04499 7.49723C188.43185 53.63563 192.52774 56 193.06278 56c.53504 0 4.0841-2.09526 7.88678-4.65614l6.91397-4.65614 2.04809 2.92405c2.01004 2.86974 1.56608 3.23967-23.90177 19.91569-30.94124 20.25993-36.8686 23.80587-39.79367 23.80587-1.2189 0-2.21618.62719-2.21618 1.39375 0 .82946 1.75445 1.10576 4.33333.68244 2.38333-.39123 20.83333-2.22112 41-4.06643 20.16666-1.8453 39.43802-3.6979 42.82524-4.11685 5.7545-.71176 6.19989-.5456 6.78832 2.53257.55604 2.90876.0693 3.38701-4.15858 4.0864-2.63357.43566-6.50829.7987-8.61049.80678-3.33125.0128-3.71.4-2.9488 3.01467 3.78671 13.00723 6.10431 23.53327 6.10431 27.72444 0 5.49175 1.74706 6.5564 10.8151 6.59069 4.43952.0168 4.76439.28352 4.16488 3.41962l-.65022 3.40141-12.16488-.71013c-6.69068-.39057-23.86488-1.06009-38.16488-1.48781-16.64439-.49786-29.01588-1.52892-34.38139-2.86546-4.60976-1.14826-8.7001-1.76904-9.08964-1.3795-1.74686 1.74685 7.36502 15.84958 15.98952 24.74746 7.17524 7.40268 12.31056 11.23922 21.16618 15.81295 8.57021 4.42635 13.24556 7.86904 17.50879 12.89261 7.49772 8.83494 13.24398 18.40449 16.30456 27.15289 3.31072 9.46342 1.91195 10.68844-8.16166 7.14786-17.25145-6.0634-33.96503-20.51444-40.68372-35.17633-4.66153-10.17266-20.95019-26.61663-32.31931-32.6275-8.66582-4.58164-8.55176-4.75136-5.7818 8.60296 1.17851 5.68174 2.24499 23.20286 2.84582 46.75384l.96094 37.66667h-3.51248c-3.35904 0-3.51248-.31327-3.51248-7.17126zm-3.52051-28.41934c-3.05764-6.25968-8.47949-7.92929-8.47949-2.61119 0 1.82436-.35001 4.22915-.77781 5.34397-.60952 1.58838.47235 2.11684 5 2.44239 3.1778.22848 5.99358.29965 6.2573.15816.26372-.14149-.63628-2.54149-2-5.33333zm-11.74108-.98955c.94898-5.05849.0717-7.41985-2.75668-7.41985-2.67091 0-4.2368 9.26421-1.82417 10.79225 3.02278 1.91448 3.67976 1.43081 4.58085-3.3724zm-8.73841-1.3108c0-1.77336.34234-4.11639.76074-5.20673.53676-1.39877-.44463-2.2472-3.33333-2.88165-5.32256-1.16904-5.46351-3.96123-.14628-2.89778 3.7158.74316 3.99436.49831 4.74016-4.16666.4358-2.72592.98613-5.94124 1.22295-7.14515.32175-1.63568-.9213-2.40509-4.91816-3.04423-2.94181-.47041-5.52165-.68238-5.73299-.47105-.21133.21133-.80788 6.15568-1.32568 13.20965l-.94145 12.82543 3.83702 1.39596c5.54729 2.01818 5.83702 1.93788 5.83702-1.61779zm22.50892-7.77572c-.14475-5.19952-.23414-5.33692-1.08429-1.66666-.50959 2.2-.67441 4.75-.36626 5.66666 1.06166 3.15817 1.60789 1.65191 1.45055-4zm-4.65157-.44238c1.34016-3.4924.91868-5.89095-1.03517-5.89095-1.92481 0-3.86117 4.98553-2.67917 6.89805 1.08535 1.75615 2.83615 1.28143 3.71434-1.0071zM117.71127 193c-.76693-1.43266-5.71127-1.2385-5.71127.22428 0 .67336-.34588 2.12561-.76861 3.22724-.52673 1.37264.20755 2.14124 2.33333 2.44238 2.17836.30859 3.33715-.35456 3.89191-2.22724.43448-1.46666.54907-3.11666.25464-3.66666zm8.95539-5.66667c0-1.94924-.76591-3.33333-1.84456-3.33333-1.01451 0-2.13131 1.5-2.48177 3.33333-.49509 2.58989-.0837 3.33333 1.84456 3.33333 1.75834 0 2.48177-.97166 2.48177-3.33333zm-7.43082-.22673c.86446-2.25276-1.17633-4.38204-4.23584-4.41952-.91667-.0107-1.66667.53052-1.66667 1.20386 0 .67336-.36419 2.17336-.80932 3.33334-.60499 1.57658.0322 2.10905 2.52402 2.10905 1.88382 0 3.7049-.96831 4.18781-2.22673zm8.49736-13.43994L127.33333 166l-5.62256-.40784c-6.08684-.44152-5.7748-.85348-7.57474 10.0002-.69154 4.16998-.58886 4.26964 4.91216 4.76705 3.09016.27941 6.39842.61285 7.35168.74097 1.28729.17302 1.63033-1.73949 1.33333-7.43372zm-55.73891-6.11716c.0031-.61444-4.3443-5.20284-9.66096-10.19644-5.31666-4.9936-9.22034-9.5372-8.67484-10.09689.5455-.55968 2.2108.0856 3.70066 1.43385 2.65502 2.40278 2.81398 2.34878 8.00311-2.71828l5.29429-5.16972-3.62214-3.7807-3.62215-3.7807-6.13233 6.95546c-6.03038 6.83981-6.10406 7.03456-4.43133 11.71302.93556 2.61666 1.72735 5.5946 1.75954 6.61766.0322 1.02305 2.216 6.34568 4.85293 11.82806l4.7944 9.96799 3.86656-5.82808c2.1266-3.20544 3.86912-6.33079 3.87226-6.94523zm39.17237 8.28383c1.28886-6.44425.99149-10.5-.76985-10.5-2.48932 0-10.39681 8.24741-10.39681 10.84375 0 1.61894 1.31025 2.48322 4.33333 2.85838 2.38333.29578 4.70833.63379 5.16667.75115.45833.11733 1.20833-1.66161 1.66666-3.95328zm-.10319-14.5c1.24842 0 2.26986-.825 2.26986-1.83333 0-1.00834.375-3.70834.83333-6L115 149.33333h-6.20852c-7.05958 0-7.07256.0195-7.78681 11.68919l-.51142 8.35585 4.15018-4.02252c2.2826-2.21239 5.17162-4.02252 6.42004-4.02252zm-30.66248-5.56527c6.69895-10.72242 7.35032-14.28425 3.30688-18.08286l-3.16114-2.96975-9.17856 9.24944-9.17856 9.24944 5.9052 5.33815c3.24785 2.93598 6.20519 5.33562 6.57186 5.33256.36666-.003 2.9471-3.65572 5.73432-8.11698zm45.60392 3.8986c-.39191-1.65-1.79677-8.4-3.12193-15l-2.40937-12L118.85799 144c-.8886 6.23333-1.94283 12.98333-2.34275 15-.69841 3.52185-.5113 3.66666 4.73755 3.66666 4.98931 0 5.40269-.26096 4.75212-3zm-9.07302-25.10958l1.61646-11.22375-5.89406-5.93567c-3.24173-3.26462-6.148-5.66462-6.45838-5.33333-.31038.33128-.99388 5.55233-1.5189 11.60233l-.95456 11h5.47211c7.22585 0 7.06626 2.398-.19456 2.92334-5.34624.38681-5.69069.6604-6.09155 4.83814l-.42489 4.42816 6.41594-.53774 6.41593-.53775zm-42.15483-5.72874l-3.96723-3.96723-2.64264 3.23611-2.64264 3.23611 3.4862 3.66565 3.48621 3.66564 3.12366-2.93452 3.12367-2.93453zm14.39404 5.50499c.6078-1.65 1.53668-4.8 2.06416-7l.95907-4-4.74782 4.57937c-4.45656 4.29844-4.61344 4.72787-2.55718 7 2.77478 3.0661 2.94751 3.04272 4.28177-.57937zm7.01444-24.64164c1.35798-6.06806 1.29633-7.44792-.40895-9.15319-1.78842-1.78842-3.08877-.75134-11.89228 9.48458-5.43637 6.32091-10.08431 12.05154-10.32876 12.73474-.90756 2.53654 2.06464 1.11787 5.77778-2.75782 2.10774-2.2 4.74176-4 5.85339-4 1.27864 0 .12926 1.93745-3.1287 5.27391-4.43213 4.53891-4.9036 5.57062-3.38295 7.40288 1.5708 1.8927 2.55177 1.35385 8.83917-4.85545 5.78843-5.71653 7.36255-8.28152 8.6713-14.12965zm84.20858 14.64164c-.42436-2.75-.83664-5.08296-.91618-5.18436-.0796-.1014-3.44461 1.69861-7.47794 4l-7.33334 4.18436 5.33334.81079c11.29826 1.71761 11.24994 1.73532 10.39412-3.81079zM196 122.81254v-6.52079l-5-.64467c-6.81115-.87819-8.66864 1.11979-7.54923 8.12018.88717 5.54812.90885 5.56607 6.71964 5.56607H196zm16.52401 4.41174c1.01622-2.64823 1.01648-9.64964.00049-13.43693-.77083-2.87346-.7836-2.87431-6.26761-.41904-5.91908 2.65005-7.35029 4.87075-7.49651 11.63169-.0932 4.31124-.0605 4.33333 6.43029 4.33333 4.71907 0 6.74792-.5835 7.33334-2.10905zm-54.18249-14.98069c-.92118-5.36602-2.27486-9.83487-3.00819-9.93077-1.57789-.20636-15.46233 17.99039-14.49488 18.99679.36501.37971 4.67569 1.61018 9.57928 2.73437 10.60129 2.43045 10.41451 2.70861 7.92379-11.80039zm9.7256 10.04734c1.80286-1.41662 1.47165-2.13562-2.59086-5.62427-3.35788-2.88354-4.40002-3.31829-3.73378-1.55761.5083 1.34331.92418 3.89331.92418 5.66666 0 3.49399 2.12382 4.08987 5.40046 1.51522zm-25.58688-9.56405l4.35212-6.06022h-5.32634c-5.70298 0-6.48033.97604-6.9024 8.66667-.42997 7.83472.6303 7.48387 7.87662-2.60645zm-10.73436-1.17821l1.20575-7.68897-3.47582.40348c-3.18376.36958-3.50935.98237-3.875 7.29304-.33256 5.73978.001 6.97828 2 7.42124 1.31955.29243 2.52072.4706 2.66925.39593.14854-.0747.81266-3.59579 1.47582-7.82472zm44.90956 5.54717c2.10176-.95763 3.16724-2.30143 2.72941-3.44239-.395-1.02935-.71819-4.52248-.71819-7.7625 0-5.39479-.28074-5.89095-3.33333-5.89095-2.81481 0-3.33333.62222-3.33333 4 0 2.2-.6 4-1.33334 4-.73333 0-1.33333-1.5-1.33333-3.33334 0-2.92063-.57777-3.33333-4.66667-3.33333-7.06869 0-6.4449 4.87477 1.52106 11.88668 3.40324 2.99566 6.37501 5.44665 6.60393 5.44665.22891 0 1.96761-.70687 3.86379-1.57082zm-53.98878-6.42918v-5.33333H111.4588l5.20786 5.33333C119.53099 113.6 122.05276 116 122.27059 116c.21784 0 .39607-2.4.39607-5.33334zm62.6613-5.33333c.63745 0 1.5803 1.35 2.09522 3 1.16127 3.72109 2.95762 4.95476 7.24348 4.97459 2.70652.0125 3.80191-1.12391 5.82512-6.04336 1.37048-3.33233 2.20184-6.34871 1.84748-6.70307-1.2259-1.22591-14.12988-2.23647-17.56113-1.37528-3.67448.92224-4.45239 4.6026-2.4266 11.48045.93823 3.18542 1.00035 3.14104 1.39961-1 .2298-2.38333.93936-4.33333 1.57682-4.33333zm23.00537 4.35989c2.80848-.80752 2.97622-2.97099.49364-6.36615-1.72344-2.35694-2.0262-2.15036-4.79086 3.2688-2.70497 5.30218-2.74614 5.70063-.49364 4.7765 1.35164-.55454 3.50752-1.31016 4.79086-1.67915zm-59.97463-6.56781c-.9027-.36523-2.7027-.38746-4-.0494-1.29729.33806-.5587.63689 1.6413.66406 2.2.0272 3.26141-.24942 2.3587-.61465zm-31.36998-9.00303c.65545-.65545-5.34586-10.0828-6.43324-10.10588-.42782-.0091-3.12782 2.01736-6 4.50319-5.08812 4.40369-5.16048 4.58802-2.81921 7.1819 2.24382 2.48592 2.81062 2.5395 8.55999.8092 3.38639-1.01916 6.39799-2.09394 6.69246-2.3884zm14.06811-3.97148l3.72351-1.48424-7.07026-6.97184-7.07025-6.97185-3.84819 3.06845-3.84819 3.06844 3.6517 6.23116c3.92429 6.6963 4.84848 6.89184 14.46168 3.05988zm18.08989-5.74198l3.1467-1.996-5.07904-5.2014-5.07902-5.2014-3.72044 3.5644c-4.9222 4.71576-6.60269 2.82574-1.87506-2.10884 2.32171-2.42334 3.1466-4.16874 2.23614-4.73145-.79347-.49038-1.44267-1.82967-1.44267-2.97618 0-1.73695.34668-1.79685 2.07893-.35921 1.75974 1.46044 2.72732 1.07695 6.30199-2.49771 4.21588-4.21588 4.21855-4.22759 1.56995-6.87619-2.64859-2.6486-2.67183-2.63678-13.64886 6.94198L122.63961 72.562l7.67251 7.75341c6.84306 6.91522 8.10577 7.66348 11.6802 6.92145 2.20422-.45757 5.4237-1.73015 7.1544-2.82794zm7.2446-21.38935l-3.71935-2.98043-4.63019 4.63019-4.6302 4.63019 5.96088 6.08795 5.96087 6.08796 2.38867-7.73772L160.11068 66zm14.76669 7.25791c8.4316-5.66597 8.44524-5.45499-.66433-10.27435l-4.83964-2.56039-2.30316 8.2084c-1.26674 4.51461-2.64087 9.08842-3.0536 10.16402-.87396 2.27747-.43926 2.05583 10.86073-5.53768zm-8.51176-12.45253c.0191-1.41427-11.72436-5.19129-12.79912-4.11652-.27235.27234 2.05064 2.34014 5.16219 4.59512 5.46033 3.95719 7.57868 3.82443 7.63693-.4786z"/><path fill="#020303" d="M130.66666 238.08169v-7.25163l-6.33333-.84872c-6.7927-.91027-23.60887-4.94204-27.1581-6.51131-2.5737-1.13794-3.7963 2.33548-3.8237 10.8633-.01654 5.1507-.3217 5.66666-3.35153 5.66666-1.99466 0-3.33333-.76233-3.33333-1.89824 0-3.68985 7.97032-86.83562 8.76493-91.43509.97524-5.64501-.6481-4.3733-3.40902 2.67058-2.07584 5.29605-38.76075 62.60019-40.10107 62.64041-.40984.012-1.73761-.72766-2.9506-1.64432-2.00321-1.51384-1.77408-2.36666 2.49872-9.30013l4.70417-7.63346-4.39366-6.36654c-2.41652-3.50159-6.27965-11.03227-8.58476-16.73483l-4.19109-10.36828-4.22817 4.81561c-3.66916 4.17896-4.5288 4.58602-6.50214 3.07892-1.2507-.9552-2.47561-1.85812-2.72205-2.00652-.24644-.14838 12.83786-15.31996 29.07622-33.71461 26.92076-30.49556 33.9165-40.26159 24.35114-33.99412-4.4491 2.91516-12.22915 2.88043-16.73928-.07472-4.7908-3.13905-7.2032-11.15704-4.9752-16.53588 2.3608-5.6995 5.75643-8.28791 11.96503-9.12066 4.67912-.6276 5.43683-1.18361 5.43683-3.98957 0-1.82575 1.7149-4.97525 3.89743-7.15777 5.10845-5.10845 11.59396-5.27517 17.3336-.44558C99.29528 63.64407 100 65.2119 100 69.91187c0 3.9815-.79571 6.39494-2.66667 8.08813-3.20578 2.90119-3.34701 4.12029-.59948 5.17462 1.40724.54 12.29835-8.24699 34.11486-27.52402 17.62621-15.5745 32.63401-28.52994 33.35065-28.78988.71664-.25993 2.07685.58574 3.02272 1.87928 1.49364 2.04267 1.13192 2.868-2.75118 6.2774-2.459 2.15903-4.46577 4.31336-4.4595 4.78739.007.47403 3.57877 1.97386 7.9389 3.33295 4.36014 1.3591 11.82704 5.0323 16.59314 8.16268l8.66562 5.6916 6.6762-4.496c7.63647-5.1427 8.87483-5.39541 10.59801-2.16269 1.06426 1.99657-2.89517 5.02749-27.43319 21-27.19406 17.7014-32.31523 20.72784-38.24092 22.59903-1.3883.4384-2.26206 1.0592-1.94168 1.37956.46856.46857 62.99473-5.00813 89.32559-7.82408 5.69972-.60955 6.24135-.40984 6.79894 2.507.57304 2.99764.1473 3.21841-7.85975 4.0759-4.65608.49862-8.4656 1.36125-8.4656 1.91695 0 .5557.93679 3.6358 2.08176 6.84467 1.14497 3.20887 2.82516 10.9343 3.73376 17.16764l1.652 11.33333 7.40308.39401c7.11731.3788 7.37828.52372 6.76071 3.75435-.62204 3.25397-.90072 3.33772-8.80351 2.64571-4.48863-.39304-21.79715-1.08312-38.46337-1.5335-19.2476-.52013-32.86728-1.50169-37.33333-2.69056-11.7813-3.13621-12.00211-2.96394-7.38723 5.76332 6.26408 11.8461 21.02209 26.1993 33.38607 32.4703 11.73398 5.95146 18.79421 12.40658 26.34178 24.08416 5.91605 9.15327 11.10261 21.95294 10.02913 24.75039-.92869 2.42012-3.89454 1.57611-17.40085-4.95188-15.15138-7.32309-25.47129-17.07921-31.81-30.07218-6.37586-13.06912-17.0125-24.38912-30.16212-32.09991C137.20988 150.6314 132.32503 148 131.83933 148c-.4857 0 .1952 4.95 1.51311 11 1.80938 8.30618 2.62589 20.22425 3.33414 48.66666l.93796 37.66667h-3.47894c-3.32325 0-3.47894-.32451-3.47894-7.25164zm-2.36728-27.56208c-1.89207-4.81676-7.2008-9.39597-8.91063-7.68615-.32999.32999-.99502 3.07045-1.47785 6.08991-.96425 6.03009-.27034 6.60774 8.31517 6.92196l4.22607.15466zm-11.83913-3.57111c.69951-3.70879.36804-4.56096-2.14996-5.52736-3.84114-1.4742-4.66522-.55504-5.18511 5.78336-.34528 4.20963.0798 5.38647 2.22397 6.1564 3.0065 1.0796 3.91244-.0569 5.1111-6.4124zm-8.94873-6.29828c-.41864-1.09096-1.97999-1.98356-3.46968-1.98356-1.48968 0-2.70851-.49608-2.70851-1.10241 0-.60632 1.70993-.85144 3.79984-.54471 3.68348.54062 3.82515.34395 4.6266-6.42306.45472-3.83943.50939-7.49431.12148-8.12196-.38792-.62766-3.01358-1.14119-5.83482-1.14119H98.9169L98.1251 188c-.43548 3.66666-1.13679 9.58454-1.55846 13.15084l-.76669 6.48415 5.10002 2.04979L106 211.73457l1.13634-4.5504c.62499-2.50272.79382-5.443.37518-6.53395zM129.37167 200l-.86832-7.33334-1.04039 4.8596c-.66523 3.10724-.47663 5.91301.52301 7.78087 2.15981 4.03564 2.38833 3.16042 1.3857-5.30713zm-3.74458-2.73036c.51472-3.50706.21583-4.00932-2.182-3.66667-3.88366.55496-4.82887 7.73036-1.01832 7.73036 1.88294 0 2.76903-1.12515 3.20032-4.06369zm-7.2052-1.61438c.3788-3.28184.004-3.65526-3.66666-3.65526-3.43465 0-4.08857.51536-4.08857 3.22222 0 5.84076 7.0854 6.2364 7.75523.43304zm8.79897-8.48998c.63618-2.11188.1915-3.00794-1.7439-3.51406-1.94786-.50937-2.81053.1682-3.44804 2.70824-.53833 2.14487-.21455 3.78046.88261 4.45854 2.01073 1.2427 3.11717.30485 4.30933-3.65272zM120 186.66666c0-3.55556-.44445-4-4-4-3.341 0-4 .53087-4 3.22223 0 3.27296 1.46759 4.48308 5.66666 4.67251 1.7271.0779 2.33334-.934 2.33334-3.89474zm8.809-8.75906c.4498-1.79215.4391-5.27722-.0238-7.74459-.76627-4.0846-1.34626-4.55428-6.48008-5.24763-3.10116-.41882-6.05147-.34613-6.55624.16155-.50478.50769-1.32446 4.01565-1.82152 7.79548-1.00584 7.6488-.77988 7.85175 9.06821 8.14493 4.24466.1264 5.11852-.34109 5.81341-3.10974zm-58.99883-5.21264l3.51708-5.30504-9.3303-9.39299c-5.13165-5.16613-9.33029-9.92185-9.33029-10.56827 0-.64641 1.2153-.0755 2.70066 1.26876 2.6442 2.39296 2.81133 2.33599 7.99494-2.72568l5.29428-5.16972-3.58295-3.7398-3.58295-3.7398-3.86716 3.67212c-8.77936 8.3366-9.0064 9.14188-5.75466 20.41215 3.15265 10.9268 9.78233 23.54865 11.4117 21.726.55692-.62297 2.59526-3.51996 4.52965-6.43773zm41.46547 5.63837c.28891-.91667.90685-4.51667 1.37319-8 1.04313-7.79161-.14949-8.01361-8.0911-1.50605-6.12214 5.01664-7.57498 9.2038-3.55773 10.25361 4.73559 1.23755 9.76532.87163 10.27564-.74756zM105.04457 166c1.97716-1.83334 4.62379-3.33334 5.88139-3.33334 1.60357 0 2.53815-1.49345 3.12894-5 1.57493-9.34782 1.77491-8.98824-5.08905-9.15076-3.50211-.0829-6.60218.22899-6.88902.69312-1.0097 1.63372-2.41021 20.12431-1.52425 20.12431.49342 0 2.51482-1.5 4.49199-3.33333zm-24.55432-9.66667c7.75325-12.09387 8.08722-13.94783 3.3331-18.50257l-3.8727-3.71028-9.30366 9.23237-9.30366 9.23237 6.27821 6.37406c3.45302 3.50573 6.46287 6.37405 6.68856 6.37405.2257 0 3.00677-4.05 6.18015-9zM126.6677 161c.002-3.5868-5.75975-30.3524-6.39696-29.71519-.65268.65268-4.07434 24.28319-4.20619 29.04852-.051 1.84409 1.05371 2.33333 5.26878 2.33333 3.37722 0 5.33371-.61128 5.33437-1.66666zm-9.31604-25.79578l1.62709-11.46244-6.47334-6.57216c-6.34755-6.44446-6.49029-6.50878-7.34576-3.31007-.47983 1.79415-1.08704 7.35972-1.34937 12.36793l-.47695 9.10585 5.33333.81079 5.33334.8108-5.66667.1892c-4.63148.15465-5.66667.65644-5.66667 2.74682 0 1.4067-.36419 3.5067-.80931 4.66667-.67758 1.76575.3852 2.10905 6.52894 2.10905h7.33827zm-41.34323.12014l3.13994-3.34232-3.82267-3.99-3.82266-3.99001-3.08486 2.89807c-3.81916 3.58792-3.8448 4.78577-.18576 8.68063 3.61528 3.84829 3.92961 3.83793 7.77601-.25637zm14.5298-2.99103c.9669-3.48333 2.07302-7.53333 2.45807-9 .51437-1.9593-.76281-1.26857-4.81478 2.60393-6.16269 5.88974-6.45853 6.81002-3.3082 10.29108 3.1794 3.5132 3.7098 3.14852 5.66491-3.89501zM88.16097 123c9.24144-9.56048 12.27674-17.82155 8.08733-22.01096-2.62758-2.62758-2.6564-2.61583-7.77616 3.17011-2.82634 3.1941-7.62443 8.48941-10.6624 11.76735l-5.5236 5.9599 3.34851 4.39013c1.84169 2.41457 3.74609 4.39013 4.232 4.39013.48592 0 4.21836-3.45 8.29432-7.66666zm-8.18033-2.31336c2.47706-2.55568 4.80102-4.34942 5.16435-3.98609.87726.87726-6.59966 8.63278-8.32267 8.63278-.73999 0 .68125-2.09101 3.15832-4.64669zm116.58082 3.15771c.49776-3.75228.62662-7.10072.28636-7.44098-.34026-.34026-3.52022-.72021-7.06657-.84434l-6.44792-.2257v6.65357c0 6.3139.20421 6.69724 4 7.50892 8.072 1.72607 8.26516 1.60778 9.22813-5.65147zm16.74447 2.23869c1.50364-4.55608.69286-13.51438-1.33664-14.76868-.58395-.36091-3.75482.4982-7.04638 1.90913-5.86426 2.51372-5.99407 2.70378-6.45378 9.44934-.25803 3.78622-.21913 7.13373.0864 7.43893.30557.3052 3.40904.5549 6.89661.5549 6.04277 0 6.4122-.2156 7.85379-4.58362zm-32.40779-1.58158c-.43126-2.65753-1.02656-5.07432-1.32288-5.37064-.29632-.29632-3.91205 1.39875-8.03494 3.76682-8.60466 4.94225-7.93764 6.38424 2.96746 6.41527l7.17446.0204zM160.80534 123c-.40693-2.01667-1.4162-7.71667-2.24282-12.66667-.9626-5.76434-2.13068-9-3.24903-9-1.63467 0-13.12325 14.88219-14.73899 19.09272-.541 1.40981 1.30648 2.44921 7.01215 3.94503 4.26068 1.117 9.14435 2.09046 10.85263 2.16325 2.69844.11497 3.00886-.34872 2.36606-3.53433zm6.90696-.0698l3.04563-2.34385-4.03172-3.86264c-2.21745-2.12445-4.39756-3.49681-4.84468-3.04968-1.02787 1.02787.71287 11.6696 1.90233 11.62966.48554-.0163 2.25334-1.08438 3.92844-2.37349zm-25.88712-8.37596c2.78359-3.7285 4.76122-7.07895 4.39472-7.44544-.36648-.36649-3.11589-.9949-6.10978-1.39646-5.04698-.67694-5.44452-.49883-5.45814 2.44544-.008 1.74655-.38657 5.42556-.84112 8.17556-1.18989 7.19887 1.80859 6.53324 8.01432-1.7791zM132.01467 117c.008-1.65.38658-5.25.84112-8 .80811-4.88908.73385-5-3.348-5-4.16328 0-4.17446.0193-4.17446 7.22222 0 6.99788.81303 8.40807 5 8.67251.91667.0579 1.67327-1.24473 1.68134-2.89473zm45.11041.53693c2.86458-2.2034 3.04628-3.0345 2.1797-9.97035-.85214-6.82036-1.25897-7.56658-4.12508-7.56658-2.65774 0-3.1797.66953-3.1797 4.07869 0 2.3796-.55544 3.73541-1.33334 3.25464-.73333-.45322-1.33333-2.28863-1.33333-4.07869 0-3.4046-1.82292-3.9804-7.65388-2.41761-4.55153 1.2199-2.57713 6.75118 4.79925 13.44507 3.40338 3.08849 6.48796 5.62515 6.85463 5.63702.36667.0119 2.07296-1.06012 3.79175-2.38219zm-53.6491-2.31265c-.44512-1.15998-.80932-4.12225-.80932-6.58284 0-4.41799-.0624-4.46416-5-3.70223-2.75.42436-5.16955.9062-5.37679 1.07075-.60324.47898 9.59227 10.94966 10.85278 11.14568.62846.0977.77846-.77138.33333-1.93136zm61.71928-5.32711c.52399-3.86324.5361-3.86827 1.39028-.5772.6683 2.57477 1.98863 3.50315 5.88227 4.13604 4.93365.80195 5.07845.7018 8.36601-5.78588 1.84-3.63108 3.15512-6.75322 2.92248-6.9381-2.24025-1.78037-9.85704-2.89675-16.16649-2.3695-6.0642.50676-7.58227 1.06729-7 2.58466.40893 1.06567.74352 4.6385.74352 7.93964 0 6.83785 2.96625 7.61387 3.86193 1.01034zm24.78649-5.93244c-1.12762-2.1806-2.32264-3.96473-2.65557-3.96473-.85496 0-5.99285 10.26571-5.99285 11.97398 0 .77745 2.4072.18549 5.34933-1.31548l5.34935-2.72903zm-59.31509-1.58337c0-.73333-.94906-.96914-2.10905-.52401-1.15997.44512-4.00997.8883-6.33333.98484L138 103.01771l4.66666.89033c5.22075.99603 8 .46566 8-1.52668zm-38.92271-5.47317c3.15918-.9449 5.72264-2.14354 5.69658-2.66364-.0908-1.81277-6.11353-11.55313-6.94587-11.23339-.46127.1772-3.3436 2.59982-6.40518 5.3836l-5.5665 5.06144 3.07184 2.56087c3.68188 3.06944 3.05124 3.01407 10.14913.89112zm93.58938.42514c0-.73333-.9-1.33333-2-1.33333s-2 .6-2 1.33333c0 .73333.9 1.33333 2 1.33333s2-.6 2-1.33333zm-72.57035-6.70328c3.05436-1.16127 2.9154-1.41466-4.82458-8.79735l-7.96952-7.60164-3.65111 3.2178c-2.00811 1.7698-3.85894 3.32564-4.11296 3.45744-.25402.1318 1.4622 3.03615 3.81382 6.45411 4.04202 5.87487 4.53044 6.16669 8.93754 5.33991 2.56402-.48101 6.07709-1.41264 7.80681-2.07027zm18.64224-6.74638c.40792-.66003-1.51592-3.90085-4.2752-7.20184l-5.01688-6.00179-4.3899 4.25487c-5.21823 5.0577-5.94881 3.50481-.85331-1.81374 2.95364-3.08295 3.2564-4.02904 1.83675-5.73963-1.87522-2.2595-.0475-2.85572 2.11744-.69075.92106.92106 2.72941-.34974 5.62498-3.9529l4.26752-5.31035-3.3359-2.18577c-3.29352-2.158-3.47042-2.06968-13.9258 6.9529-5.82444 5.02626-10.63453 9.79733-10.68908 10.60237-.0545.80504 3.43987 4.83939 7.76538 8.96522l7.86455 7.50151 6.13389-2.09002c3.37364-1.14952 6.46764-2.63005 6.87556-3.29008zm7.12939-10.90366c1.92825-7.40305 1.91287-7.52443-1.29156-10.19178-1.78368-1.48473-3.92184-2.71948-4.75147-2.74387C151.0877 60.00307 144 68.23533 144 69.90719c0 1.73263 9.84517 11.47775 11.15461 11.04127.78568-.2619 2.30668-3.8477 3.38-7.96845zm10.28883-.4669C173.87054 69.12866 178 65.69775 178 64.88887c0-1.69163-10.04747-7.70376-11.90058-7.12098-.67865.21343-2.26378 3.95296-3.5225 8.31008-1.25874 4.35712-2.71767 8.97203-3.24208 10.25536-.52442 1.28333-.66874 2.33333-.32072 2.33333s4.76221-2.7691 9.80932-6.15355zM162 58.64268c0-2.59024-1.04275-3.41257-6-4.73172-3.3-.87814-7.2-2.05566-8.66667-2.6167-3.4392-1.31559-1.88897.37363 6 6.53794C160.03544 63.06912 162 63.25285 162 58.64269z"/></g><path d="M25.51984 333.37681v-22.16h6.4q2.64 0 4.44.76 1.8.72 2.92 2.16 1.16 1.4 1.64 3.44.52 2 .52 4.56 0 2.64-.56 4.52-.52 1.84-1.36 3.08-.84 1.24-1.92 1.96-1.04.72-2.12 1.12-1.08.36-2.04.48-.96.08-1.6.08zm-3.8-25.36v28.56h9.8q3.56 0 6.16-1t4.28-2.88q1.68-1.92 2.48-4.68.8-2.8.8-6.4 0-6.88-3.56-10.24-3.56-3.36-10.16-3.36z"/><path d="M49.87979 308.01681v28.56h3.8v-12.2h9.28q1.4 0 2.24.44.84.4 1.36 1.12.52.68.76 1.64.24.92.4 1.96.2 1.04.24 2.12.04 1.08.08 2.04.04.92.16 1.68.16.76.56 1.2h4.24q-.6-.72-.92-1.64-.28-.96-.44-2-.16-1.04-.2-2.12-.04-1.08-.12-2.12-.12-1.04-.36-2-.2-.96-.68-1.72-.44-.8-1.24-1.36-.76-.56-2-.8v-.08q2.6-.72 3.76-2.68 1.2-1.96 1.2-4.56 0-3.48-2.32-5.48-2.28-2-6.36-2zm11.72 13.16h-7.92v-9.96h9.44q2.68 0 3.88 1.36 1.2 1.36 1.2 3.52 0 1.56-.56 2.56-.52.96-1.44 1.56-.88.56-2.08.76-1.2.2-2.52.2z"/><path d="M82.19976 324.77681l4.84-13.32h.08l4.76 13.32zm2.84-16.76l-11.12 28.56h3.88l3.2-8.6h12.08l3.12 8.6h4.20001l-11.16-28.56z"/><path d="M124.55972 333.01681l1 3.56h2.4v-15.04h-12.52v3.2h9.12q.08 1.96-.52 3.68-.6 1.68-1.8 2.96-1.16 1.24-2.88 1.96t-3.96.72q-2.4 0-4.24-.92-1.8-.96-3.04-2.52-1.24-1.6-1.88-3.64-.64-2.08-.64-4.32 0-2.28.56-4.44.56-2.2 1.72-3.88 1.2-1.72 3.04-2.76 1.88-1.04 4.48-1.04 1.6 0 3 .4 1.44.36 2.56 1.12 1.12.76 1.88 1.96.76 1.16 1.04 2.8h3.8q-.4-2.52-1.52-4.28-1.08-1.8-2.72-2.96-1.6-1.16-3.68-1.68-2.04-.56-4.36-.56-3.4 0-5.96 1.28-2.52 1.24-4.24 3.36-1.68 2.12-2.56 4.96-.84 2.8-.84 5.92 0 2.8.92 5.4.92 2.6 2.68 4.6 1.76 2 4.28 3.2 2.52 1.16 5.72 1.16 2.52 0 5-.96 2.48-1 4.16-3.24z"/><path d="M135.75967 322.29681q0-2.16.56-4.24.56-2.12 1.76-3.8 1.2-1.68 3.08-2.68 1.88-1.04 4.48-1.04 2.6 0 4.48 1.04 1.88 1 3.08 2.68 1.2 1.68 1.76 3.8.56 2.08.56 4.24t-.56 4.28q-.56 2.08-1.76 3.76-1.2 1.68-3.08 2.72-1.88 1-4.48 1-2.6 0-4.48-1-1.88-1.04-3.08-2.72-1.2-1.68-1.76-3.76-.56-2.12-.56-4.28zm-3.8 0q0 2.92.84 5.64.88 2.68 2.6 4.76 1.72 2.08 4.28 3.32 2.56 1.2 5.96 1.2t5.96-1.2q2.56-1.24 4.28-3.32 1.72-2.08 2.56-4.76.88-2.72.88-5.64 0-2.92-.88-5.6-.84-2.72-2.56-4.8-1.72-2.08-4.28-3.32-2.56-1.24-5.96-1.24t-5.96 1.24q-2.56 1.24-4.28 3.32-1.72 2.08-2.6 4.8-.84 2.68-.84 5.6z"/><path d="M163.91961 308.01681v28.56h3.6v-22.92h.08l14.92 22.92h4.16v-28.56h-3.6v23.16h-.08l-15.04-23.16z"/><path d="M192.83953 308.01681v28.56h3.8v-13.08h13.12v-3.2h-13.12v-9.08h14.96v-3.2z"/><path d="M215.79951 308.01681v28.56h18.92v-3.2h-15.12v-25.36z"/><path d="M245.3995 324.89681l10.92-16.88h-4.32l-8.36 13.6-8.56-13.6h-4.52l11.04 16.88v11.68h3.8z"/></g></svg>