<svg xmlns="http://www.w3.org/2000/svg" role="img" viewBox="-5.52 -5.52 287.04 80.29"><title>droughtwatch logo</title><path fill="#fc3" d="M0 13.56615c0 2.3975 1.94355 4.341 4.34105 4.341 2.39747 0 4.34104-1.9435 4.34104-4.341s-1.94357-4.341-4.34104-4.341C1.94355 9.22514 0 11.16864 0 13.56614z"/><path fill="#fc3" d="M0 35.27125c0 2.3975 1.94355 4.341 4.34105 4.341 2.39747 0 4.34104-1.9435 4.34104-4.341s-1.94357-4.3411-4.34104-4.3411C1.94355 30.93014 0 32.87374 0 35.27125z"/><path fill="#fc3" d="M1.62793 24.41875c0 1.4985 1.21474 2.7132 2.71319 2.7132 1.49847 0 2.7132-1.2147 2.7132-2.7132 0-1.4985-1.21473-2.7132-2.7132-2.7132-1.49845 0-2.71319 1.2147-2.71319 2.7132z"/><path fill="#fc3" d="M1.62793 2.7132c0 1.49846 1.21474 2.7132 2.71319 2.7132 1.49847 0 2.7132-1.21474 2.7132-2.7132C7.05432 1.21472 5.83959 0 4.34112 0 2.84267 0 1.62793 1.21473 1.62793 2.7132z"/><path fill="#fc3" d="M16.6587 28.43385c0 2.3974 1.9436 4.341 4.341 4.341 2.3975 0 4.3411-1.9436 4.3411-4.341 0-2.3975-1.9436-4.3411-4.3411-4.3411-2.3974 0-4.341 1.9436-4.341 4.3411z"/><path fill="#fc3" d="M18.2866 39.28634c0 1.4984 1.2148 2.7134 2.7132 2.7134 1.4985 0 2.7132-1.215 2.7132-2.7134s-1.2147-2.7131-2.7132-2.7131c-1.4984 0-2.7132 1.2147-2.7132 2.7131z"/><path fill="#fc3" d="M18.2866 17.58134c0 1.4985 1.2148 2.7132 2.7132 2.7132 1.4985 0 2.7132-1.2147 2.7132-2.7132 0-1.4984-1.2147-2.7132-2.7132-2.7132-1.4984 0-2.7132 1.2148-2.7132 2.7132z"/><path fill="#fc3" d="M18.2866 6.72882c0 1.49843 1.2148 2.71322 2.7132 2.71322 1.4985 0 2.7132-1.21479 2.7132-2.71322 0-1.49846-1.2147-2.7132-2.7132-2.7132-1.4984 0-2.7132 1.21473-2.7132 2.7132z"/><path fill="#fc3" d="M33.3174 13.56615c0 2.3975 1.9435 4.341 4.341 4.341 2.3976 0 4.3411-1.9435 4.3411-4.341s-1.9435-4.341-4.3411-4.341c-2.3975 0-4.341 1.9435-4.341 4.341z"/><path fill="#fc3" d="M34.9463 2.7132c0 1.49846 1.2147 2.7132 2.7132 2.7132 1.4983 0 2.7132-1.21474 2.7132-2.7132C40.3727 1.21472 39.1578 0 37.6595 0c-1.4985 0-2.7132 1.21473-2.7132 2.7132z"/><path fill="#fc3" d="M34.9463 24.41875c0 1.4985 1.2147 2.7132 2.7132 2.7132 1.4983 0 2.7132-1.2147 2.7132-2.7132 0-1.4985-1.2149-2.7132-2.7132-2.7132-1.4985 0-2.7132 1.2147-2.7132 2.7132z"/><path fill="#fc3" d="M34.9463 35.27134c0 1.4984 1.2147 2.7132 2.7132 2.7132 1.4983 0 2.7132-1.2148 2.7132-2.7132 0-1.4985-1.2149-2.7132-2.7132-2.7132-1.4985 0-2.7132 1.2147-2.7132 2.7132z"/><path fill="#000" fill-rule="evenodd" d="M124.796 22.26925c0 1.279-.028 3.1974-.058 4.6507l-2.18.407v1.0464h6.744v-1.0464l-2.006-.407c-.029-1.4533-.058-3.3717-.058-4.6507v-4.0983c1.483-1.3371 2.674-1.8894 4.099-1.8894 1.714 0 2.383.843 2.383 3.5171v2.4706c0 1.3371-.029 3.2264-.058 4.6798l-2.122.3779v1.0464h6.743v-1.0464l-2.034-.407c-.029-1.4533-.058-3.3136-.058-4.6507v-2.7031c0-3.8078-1.221-5.3774-3.721-5.3774-1.831 0-3.895 1.1046-5.319 2.7032v-5.6389l.116-4.12745-.407-.23253-4.447 1.308v1.01728l2.383.2907zm-22.08-11.2778c1.075 0 1.947-.7848 1.947-1.8603 0-1.13361-.872-1.86027-1.947-1.86027-1.105 0-1.948.72666-1.948 1.86027 0 1.0755.843 1.8603 1.948 1.8603zm3.313 16.3354l-2.034-.4069c-.03-1.4534-.059-3.3718-.059-4.6507v-3.8368l.087-3.953-.436-.2907-4.4757 1.7731v1.0173l2.3257.2616c.058 1.1627.087 2.0637.087 3.6624v1.3661c0 1.2789-.029 3.1973-.059 4.6507l-2.1795.4069v1.0464h6.7435zm-28.1187 1.2499h-1.2498l-5.0286-15.0856-4.7375 15.0856h-1.2501l-5.2321-18.1666L58 10.11945V8.92774h7.9061v1.1917l-2.6744.3197 3.5754 13.3707 4.418-13.3416-2.9068-.3488v-1.1917h7.9062v1.1917l-2.9356.3488 4.3311 13.4579 3.6912-13.4288-2.6449-.3779v-1.1917h6.5979v1.1917l-2.4414.3488zm16.5287-9.9118c0-1.6567-1.3663-3.1391-3.1682-3.1391-1.6278 0-3.517 1.2789-3.837 4.6506h5.2902c1.3951 0 1.715-.6685 1.715-1.5115zm-9.6792 2.9358c0-4.4472 3.0521-7.412 6.6852-7.412 3.0228 0 5.4066 2.0637 5.4066 5.5808 0 .6685-.0873 1.2499-.2034 1.6277h-9.2724c.058 3.5752 1.9184 5.4645 4.7087 5.4645 1.8604 0 2.994-.8138 4.0403-2.0346l.6976.5522c-1.0756 2.0638-2.9356 3.3718-5.5808 3.3718-3.9239 0-6.4818-2.7032-6.4818-7.1504zm32.0202-2.7323c0-2.0637-1.047-3.488-2.849-3.488-1.831 0-2.935 1.4824-2.935 3.6043 0 2.1218 1.017 3.5752 2.819 3.5752 1.86 0 2.965-1.5405 2.965-3.6915zm-5.901 4.1856c-1.395-.7557-2.238-2.1219-2.238-4.0984 0-3.052 2.238-4.7669 5.261-4.7669 1.483 0 2.762.3779 3.692 1.1336l3.284-1.1336.436.2906v1.8313h-2.848c.436.6976.668 1.5986.668 2.645 0 3.052-2.238 4.767-5.261 4.767-.784 0-1.511-.1163-2.151-.3198-.494.6395-.726 1.1917-.726 1.8603 0 .7848.319 1.2789 1.685 1.2789h3.808c3.197 0 4.68 1.3952 4.68 3.7496 0 2.5288-2.413 5.0285-7.179 5.0285-4.215 0-6.017-1.4533-6.017-3.517 0-1.2499.697-2.2672 2.848-3.3136-1.279-.3488-1.918-1.0755-1.918-2.2091 0-.9011.523-1.8893 1.976-3.2264zm-.523 8.284c0 1.8893 1.454 2.6451 3.75 2.6451 3.168 0 4.883-1.308 4.883-2.9358 0-1.2789-.814-2.2672-2.907-2.2672h-3.401c-.407 0-.813-.029-1.191-.0581-.814.872-1.134 1.6568-1.134 2.616zm33.79-15.2308v9.0106c0 1.4824.61 2.1219 1.598 2.1219.64 0 1.221-.2616 1.948-.7848l.698.7557c-.756.9883-1.948 1.5406-3.43 1.5406-2.035 0-3.314-1.0464-3.314-3.3136 0-.3231.006-.6232.012-.9566.008-.4163.017-.8845.017-1.5141v-6.8597h-2.412v-1.2789l2.586-.3198.756-3.8949h1.744l-.145 3.9531h3.895v1.5405zm10.122 12.6439c3.749 0 5.668-1.9475 5.668-4.1566 0-1.8312-1.105-3.1973-4.012-4.2728l-.901-.3197c-1.976-.7266-2.674-1.2208-2.674-2.4997 0-1.1917.93-1.9765 2.703-1.9765.698 0 1.367.1743 2.006.4941l.465 2.3253h1.512l.116-2.9648c-1.25-.7557-2.5-1.1917-4.069-1.1917-3.256 0-5.058 1.9765-5.058 4.0984 0 1.9765 1.395 3.1392 3.517 3.924l1.337.4941c1.831.6395 2.703 1.2789 2.703 2.5288 0 1.308-1.046 2.2091-3.255 2.2091-.901 0-1.657-.1454-2.355-.4651l-.552-2.5288h-1.599l.117 3.1974c1.424.7266 2.703 1.1045 4.331 1.1045zm18.718-16.5389c0 1.0464.233 1.9474 1.308 3.2845.262.3488.523.6686.785.9592 1.802-1.2498 3.081-2.5288 3.081-4.2146 0-1.6859-1.105-2.7323-2.529-2.7323-1.482 0-2.645 1.1627-2.645 2.7032zm14.446 14.9693l-.116 1.2789c-.872.2035-1.453.2907-2.209.2907-1.541 0-2.442-.3488-3.401-1.337-.171-.1992-.341-.3844-.509-.566v-.0009l-.001-.0002V26.84645c-.174-.1888-.345-.3736-.507-.566-1.279 1.3953-3.139 2.4707-5.93 2.4707-3.633 0-6.133-2.3544-6.133-5.2901 0-2.616 1.482-4.5635 4.389-6.0168-.014-.029-.036-.0508-.058-.0725-.022-.0219-.044-.0437-.058-.0728-1.454-1.6569-2.006-3.1393-2.006-4.6798 0-2.5578 2.035-4.12745 4.767-4.12745 2.878 0 4.418 1.54055 4.418 3.72055 0 2.0056-1.337 3.4298-4.302 5.0285.611.6976 1.308 1.4824 2.326 2.5869.796.8761 1.538 1.6703 2.291 2.4762.346.3705.694.7436 1.052 1.1281 1.075-1.8021 1.889-3.6914 2.412-5.9877l-2.296-.3779v-1.1627h5.9v1.1627l-2.209.407c-.668 2.645-1.686 4.7959-3.023 6.8015.324.3372.654.6918 1 1.0637l.001.0009.002.0022.001.0003v.0004c.429.4605.882.9476 1.38 1.4613zm-7.586-1.8312c-1.047-1.1917-1.977-2.2381-2.965-3.3426-1.308-1.5987-2.209-2.6451-3.168-3.7496-2.006 1.2208-2.558 2.9648-2.558 4.4181 0 2.1218 1.569 4.2147 4.389 4.2147 1.628 0 3.197-.5523 4.302-1.5406zm19.71-5.9877c0 2.5288 0 5.0576-.058 7.4992l-2.674.3197v1.1918h7.994c5.58 0 7.76-2.6742 7.76-5.3193 0-2.3543-1.627-4.2437-5.493-4.7959 3.226-.6686 4.505-2.5288 4.505-4.5926 0-2.7613-2.296-4.73781-6.336-4.73781h-8.43v1.1917l2.674.3197c.058 2.4998.058 4.9995.058 7.4992zm4.361-.3779c4.011 0 5.755 1.3662 5.755 4.0693 0 2.5579-1.802 3.9531-5.523 3.9531h-1.773c-.058-2.4707-.058-4.9704-.058-8.0224zm.465-8.72c2.964 0 4.476.9592 4.476 3.6043s-1.512 3.7787-5.029 3.7787h-1.511c0-2.2963 0-4.8832.058-7.383zm15.838-1.1336c0 1.0755-.872 1.8603-1.948 1.8603-1.104 0-1.947-.7848-1.947-1.8603 0-1.13361.843-1.86027 1.947-1.86027 1.076 0 1.948.72666 1.948 1.86027zm-.669 17.7888l2.035.4069v1.0464h-6.743v-1.0464l2.179-.4069c.029-1.4534.059-3.3718.059-4.6507v-1.3661c0-1.5987-.03-2.4997-.088-3.6624l-2.325-.2616v-1.0173l4.476-1.7731.436.2907-.087 3.953v3.8368c0 1.2789.029 3.1973.058 4.6507zm15.024 1.744c1.017 0 1.831-.3779 2.528-1.5115l-.581-.6395c-.32.3779-.64.6395-1.134.6395-.639 0-1.046-.465-1.046-1.7149v-6.1912c0-3.6624-1.453-5.0576-4.505-5.0576-2.965 0-5.116 1.3952-5.668 3.6043.087.7557.552 1.1917 1.366 1.1917.785 0 1.25-.4941 1.512-1.3952l.552-1.8894c.61-.1453 1.133-.1743 1.569-.1743 1.919 0 2.733.6976 2.733 3.517v.7267c-1.163.2616-2.384.6394-3.285.9592-3.924 1.4242-4.825 2.7323-4.825 4.389 0 2.4126 1.773 3.6334 3.895 3.6334 1.715 0 2.674-.7558 4.273-2.3253.232 1.3661 1.221 2.2381 2.616 2.2381zm-8.197-3.9821c0-.8721.32-1.9766 2.848-2.9648.611-.2326 1.657-.5814 2.675-.8721v4.4763c-1.657 1.1627-2.21 1.5115-3.198 1.5115-1.337 0-2.325-.6104-2.325-2.1509zm22.375-.0873c0 2.2091-1.918 4.1566-5.668 4.1566-1.628 0-2.907-.3779-4.331-1.1045l-.116-3.1974h1.599l.552 2.5288c.697.3197 1.453.4651 2.354.4651 2.209 0 3.255-.9011 3.255-2.2091 0-1.2499-.871-1.8893-2.702-2.5288l-1.337-.4941c-2.122-.7848-3.518-1.9475-3.518-3.924 0-2.1219 1.802-4.0984 5.058-4.0984 1.57 0 2.819.436 4.069 1.1917l-.116 2.9648h-1.512l-.464-2.3253c-.64-.3198-1.309-.4941-2.006-.4941-1.773 0-2.703.7848-2.703 1.9765 0 1.2789.697 1.7731 2.674 2.4997l.901.3197c2.907 1.0755 4.011 2.4416 4.011 4.2728zm8.94-9.0687c1.803 0 3.169 1.4824 3.169 3.1391 0 .843-.32 1.5115-1.715 1.5115h-5.29c.319-3.3717 2.209-4.6506 3.836-4.6506zm.175-1.3371c-3.634 0-6.685 2.9648-6.685 7.412 0 4.4472 2.557 7.1504 6.481 7.1504 2.645 0 4.506-1.308 5.581-3.3718l-.697-.5522c-1.047 1.2208-2.18 2.0346-4.041 2.0346-2.79 0-4.65-1.8893-4.708-5.4645h9.272c.116-.3778.203-.9592.203-1.6277 0-3.5171-2.383-5.5808-5.406-5.5808zm18.305 10.4058c0 2.2091-1.919 4.1566-5.668 4.1566-1.628 0-2.907-.3779-4.331-1.1045l-.116-3.1974h1.599l.552 2.5288c.697.3197 1.453.4651 2.354.4651 2.209 0 3.255-.9011 3.255-2.2091 0-1.2499-.871-1.8893-2.703-2.5288l-1.337-.4941c-2.121-.7848-3.517-1.9475-3.517-3.924 0-2.1219 1.802-4.0984 5.058-4.0984 1.569 0 2.819.436 4.069 1.1917l-.116 2.9648h-1.512l-.465-2.3253c-.639-.3198-1.308-.4941-2.005-.4941-1.773 0-2.704.7848-2.704 1.9765 0 1.2789.698 1.7731 2.674 2.4997l.902.3197c2.907 1.0755 4.011 2.4416 4.011 4.2728z" clip-rule="evenodd"/><g fill="#000" transform="translate(-7.973 43.465) scale(.39297)"><path d="M57.84419 48.73694q0 2.16797-.82031 3.82812-.82032 1.66016-2.20703 2.73438-1.64063 1.28906-3.61329 1.83594-1.95312.54687-4.98047.54687H35.9106V28.60022h8.61329q3.18359 0 4.76562.23438 1.58203.23437 3.02735.97656 1.60156.83984 2.32421 2.16797.72266 1.30859.72266 3.14453 0 2.07031-1.05469 3.53515-1.05468 1.44532-2.8125 2.32422v.15625q2.94922.60547 4.64844 2.59766 1.69922 1.97266 1.69922 5zm-6.5039-13.10547q0-1.05469-.35157-1.77734-.35156-.72266-1.13281-1.17188-.91797-.52734-2.22656-.64453-1.3086-.13672-3.2422-.13672h-4.60937v8.39844h5q1.8164 0 2.89063-.17578 1.07422-.19531 1.99219-.78125.91796-.58594 1.28906-1.5039.39062-.9375.39062-2.20704zm2.48046 13.26172q0-1.75781-.52734-2.79297-.52735-1.03516-1.91406-1.75781-.9375-.48828-2.28516-.625-1.32813-.15625-3.24219-.15625h-6.07422v10.82031h5.11719q2.53906 0 4.16016-.2539 1.62109-.27344 2.65625-.97657 1.09375-.76172 1.60156-1.73828.50781-.97656.50781-2.51953z"/><path d="M81.30122 47.1549H65.227q0 2.01173.60547 3.51563.60547 1.48438 1.66016 2.4414 1.01562.9375 2.40234 1.40626 1.40625.46875 3.08594.46875 2.22656 0 4.47265-.8789 2.26563-.89845 3.22266-1.75782h.19531v4.0039q-1.85547.78126-3.78906 1.3086-1.9336.52734-4.0625.52734-5.42969 0-8.47656-2.92968-3.04688-2.94922-3.04688-8.35938 0-5.35156 2.91016-8.4961 2.92969-3.14452 7.69531-3.14452 4.41406 0 6.79688 2.57812 2.40234 2.57813 2.40234 7.32422zM77.727 44.3424q-.01953-2.89062-1.46484-4.47265-1.42578-1.58203-4.35547-1.58203-2.94922 0-4.70703 1.73828-1.73828 1.73828-1.97266 4.3164z"/><path d="M105.10981 57.68225h-3.67187V45.26038q0-1.50391-.17578-2.8125-.17578-1.32813-.64453-2.07032-.48829-.8203-1.40625-1.21093-.91797-.41016-2.38282-.41016-1.5039 0-3.14453.74219-1.64062.74219-3.14453 1.89453v16.28906h-3.67187v-21.8164h3.67187v2.42187q1.71875-1.42578 3.55469-2.22656t3.76953-.80078q3.53516 0 5.39062 2.1289 1.85547 2.1289 1.85547 6.13282z"/><path d="M128.31294 56.31506q-1.83594.87891-3.4961 1.3672-1.64062.48827-3.49609.48827-2.36328 0-4.33594-.6836-1.97265-.70312-3.3789-2.10937-1.42578-1.40625-2.20703-3.55468-.78125-2.14844-.78125-5.01953 0-5.35157 2.92968-8.39844 2.94922-3.04688 7.77344-3.04688 1.875 0 3.67188.52735 1.8164.52734 3.32031 1.28906v4.08203h-.19531q-1.67969-1.3086-3.47657-2.01172-1.77734-.70312-3.47656-.70312-3.125 0-4.94141 2.10937-1.79687 2.08984-1.79687 6.15234 0 3.94532 1.75781 6.07422 1.77735 2.10938 4.98047 2.10938 1.11328 0 2.26563-.29297 1.15234-.29297 2.07031-.76172.80078-.41016 1.5039-.85937.70313-.46875 1.11329-.80078h.19531z"/><path d="M151.26216 57.68225h-3.67188V45.26038q0-1.50391-.17578-2.8125-.17578-1.32813-.64453-2.07032-.48828-.8203-1.40625-1.21093-.91797-.41016-2.38281-.41016-1.50391 0-3.14453.74219-1.64063.74219-3.14454 1.89453v16.28906h-3.67187V27.29163h3.67187v10.99609q1.71875-1.42578 3.55469-2.22656t3.76953-.80078q3.53516 0 5.39063 2.1289t1.85547 6.13282z"/><path d="M190.16841 57.68225h-3.67188V45.26038q0-1.40625-.13672-2.71485-.11718-1.3086-.52734-2.08984-.44922-.83984-1.28906-1.26953-.83985-.42969-2.42188-.42969-1.54297 0-3.08594.78125-1.54296.76172-3.08593 1.95313.0586.44921.0977 1.05468.0391.58594.0391 1.17188v13.96484h-3.67196V45.26038q0-1.44532-.13672-2.73438-.11719-1.3086-.52734-2.08984-.44922-.83985-1.28906-1.25-.83985-.42969-2.42188-.42969-1.50391 0-3.02734.74219-1.50391.74219-3.00782 1.89453v16.28906h-3.67187v-21.8164h3.67187v2.42187q1.71875-1.42578 3.41797-2.22656 1.71875-.80078 3.65235-.80078 2.22656 0 3.76953.9375 1.5625.9375 2.32422 2.59765 2.22656-1.875 4.0625-2.69531 1.83593-.83984 3.92578-.83984 3.59375 0 5.29297 2.1875 1.71875 2.16797 1.71875 6.07422z"/><path d="M214.19184 57.68225h-3.65234v-2.32422q-.48828.33203-1.32812.9375-.82032.58594-1.60157.9375-.91797.44922-2.10937.74219-1.19141.3125-2.79297.3125-2.94922 0-5-1.95313-2.05078-1.95312-2.05078-4.98046 0-2.48047 1.05469-4.00391 1.07421-1.54297 3.04687-2.42188 1.99219-.8789 4.78516-1.1914 2.79297-.3125 5.99609-.46875v-.5664q0-1.25-.44922-2.07032-.42969-.82031-1.25-1.28906-.78125-.44922-1.875-.60547-1.09375-.15625-2.28515-.15625-1.44532 0-3.22266.39062-1.77734.3711-3.67188 1.09375h-.19531V36.3346q1.07422-.29296 3.10547-.64453 2.03125-.35156 4.00391-.35156 2.30468 0 4.0039.39063 1.71875.37109 2.96875 1.28906 1.23047.89844 1.875 2.32422t.64453 3.53515zm-3.65234-5.3711v-6.07421q-1.67969.09766-3.96484.29297-2.26563.19531-3.59375.5664-1.58203.44922-2.5586 1.40625-.97656.9375-.97656 2.59766 0 1.875 1.13281 2.83203 1.13282.9375 3.45703.9375 1.9336 0 3.53516-.74219 1.60156-.76172 2.96875-1.8164z"/><path d="M234.87544 39.86975h-.19531q-.82032-.19531-1.60157-.27344-.76172-.09766-1.8164-.09766-1.69922 0-3.28125.76172-1.58203.74219-3.04688 1.9336v15.48828h-3.67187v-21.8164h3.67187v3.22265q2.1875-1.75781 3.84766-2.48047 1.67969-.74218 3.41797-.74218.95703 0 1.38672.05858.42968.03907 1.28906.17579z"/><path d="M258.13716 57.68225h-4.84375l-8.75-9.55078-2.38282 2.26563v7.28515h-3.67187V27.29163h3.67187V46.7838l10.60547-10.91797h4.62891l-10.13672 10.07813z"/><path d="M287.80513 30.84631h-.19532q-.60547-.17578-1.58203-.35156-.97656-.19531-1.71875-.19531-2.36328 0-3.4375 1.05469-1.05469 1.03515-1.05469 3.76953v.74218h6.6211v3.08594h-6.50391v18.73047h-3.67187V38.95178h-2.48047v-3.08593h2.48047v-.72266q0-3.88672 1.93359-5.95703 1.93359-2.08985 5.58594-2.08985 1.23047 0 2.20703.1172.99609.11718 1.81641.27343z"/><path d="M308.72309 46.78381q0 5.33203-2.73437 8.41797-2.73438 3.08594-7.32422 3.08594-4.62891 0-7.36328-3.08594-2.71484-3.08593-2.71484-8.41797 0-5.33203 2.71484-8.41797 2.73437-3.10546 7.36328-3.10546 4.58984 0 7.32422 3.10547 2.73437 3.08593 2.73437 8.41796zm-3.78906 0q0-4.23828-1.66015-6.28906-1.66016-2.07031-4.60938-2.07031-2.98828 0-4.64844 2.07031-1.64062 2.05078-1.64062 6.28906 0 4.10157 1.66015 6.23047 1.66016 2.10938 4.62891 2.10938 2.92969 0 4.58984-2.08985 1.67969-2.10937 1.67969-6.25z"/><path d="M328.01997 39.86975h-.19531q-.82032-.19531-1.60157-.27344-.76171-.09766-1.8164-.09766-1.69922 0-3.28125.76172-1.58203.74219-3.04688 1.9336v15.48828h-3.67187v-21.8164h3.67187v3.22265q2.1875-1.75781 3.84766-2.48047 1.67969-.74218 3.41797-.74218.95703 0 1.38672.05858.42968.03907 1.28906.17579z"/><path d="M370.40278 43.17053q0 3.96485-1.73828 7.1875-1.71875 3.22266-4.58984 5-1.99219 1.23047-4.45313 1.77735-2.4414.54687-6.44531.54687h-7.34375V28.60022h7.26562q4.25782 0 6.75782.625 2.51953.60547 4.25781 1.67969 2.96875 1.85547 4.62891 4.9414 1.66015 3.08594 1.66015 7.32422zm-4.04297-.05859q0-3.41797-1.1914-5.76172-1.19141-2.34375-3.55469-3.6914-1.71875-.97656-3.65234-1.34766-1.9336-.39062-4.62891-.39062h-3.63281v22.4414h3.63281q2.79297 0 4.86328-.41015 2.08984-.41016 3.82813-1.52344 2.16796-1.38672 3.24218-3.65235 1.09375-2.26562 1.09375-5.66406z"/><path d="M389.97309 39.86975h-.19531q-.82031-.19531-1.60156-.27344-.76172-.09766-1.81641-.09766-1.69922 0-3.28125.76172-1.58203.74219-3.04687 1.9336v15.48828h-3.67188v-21.8164h3.67188v3.22265q2.1875-1.75781 3.84765-2.48047 1.67969-.74218 3.41797-.74218.95703 0 1.38672.05858.42969.03907 1.28906.17579z"/><path d="M412.02388 46.78381q0 5.33203-2.73438 8.41797-2.73437 3.08594-7.32422 3.08594-4.6289 0-7.36328-3.08594-2.71484-3.08593-2.71484-8.41797 0-5.33203 2.71484-8.41797 2.73438-3.10546 7.36328-3.10546 4.58985 0 7.32422 3.10547 2.73438 3.08593 2.73438 8.41796zm-3.78907 0q0-4.23828-1.66015-6.28906-1.66016-2.07031-4.60938-2.07031-2.98828 0-4.64844 2.07031-1.64062 2.05078-1.64062 6.28906 0 4.10157 1.66016 6.23047 1.66015 2.10938 4.6289 2.10938 2.92969 0 4.58985-2.08985 1.67968-2.10937 1.67968-6.25z"/><path d="M435.79341 57.68225h-3.67188v-2.42187q-1.85547 1.46484-3.55469 2.24609-1.69921.78125-3.75.78125-3.4375 0-5.35156-2.08984-1.91406-2.10938-1.91406-6.17188V35.86584h3.67187v12.42188q0 1.66016.15625 2.85156.15625 1.17188.66407 2.01172.52734.85938 1.36718 1.25.83985.39063 2.44141.39063 1.42578 0 3.10547-.7422 1.69922-.74218 3.16406-1.89452V35.86584h3.67188z"/><path d="M460.71528 55.20178q0 5.54688-2.51953 8.14453-2.51953 2.59766-7.75391 2.59766-1.73828 0-3.39843-.2539-1.64063-.23438-3.24219-.6836v-3.75h.19531q.89844.35156 2.85156.85938 1.95313.52734 3.90625.52734 1.875 0 3.10547-.44922t1.91407-1.25q.68359-.76172.97656-1.83594.29297-1.07422.29297-2.40234V54.7135q-1.66016 1.32813-3.1836 1.99219-1.5039.64453-3.84765.64453-3.90625 0-6.21094-2.8125-2.28516-2.83203-2.28516-7.96875 0-2.8125.78125-4.84375.80078-2.05078 2.16797-3.53516 1.26953-1.38671 3.08594-2.14843 1.81641-.78125 3.61328-.78125 1.89453 0 3.16406.39062 1.28907.3711 2.71485 1.15235l.23437-.9375h3.4375zm-3.67187-3.51562V39.79163q-1.46485-.66407-2.73438-.9375-1.25-.29297-2.5-.29297-3.02734 0-4.76562 2.03125t-1.73828 5.89844q0 3.67187 1.28906 5.5664 1.28906 1.89453 4.27734 1.89453 1.60156 0 3.20313-.60547 1.62109-.625 2.96875-1.66015z"/><path d="M486.18403 57.68225h-3.67187V45.26038q0-1.50391-.17578-2.8125-.17579-1.32813-.64454-2.07032-.48828-.8203-1.40625-1.21093-.91796-.41016-2.38281-.41016-1.5039 0-3.14453.74219-1.64062.74219-3.14453 1.89453v16.28906h-3.67188V27.29163h3.67188v10.99609q1.71875-1.42578 3.55469-2.22656 1.83593-.80078 3.76953-.80078 3.53515 0 5.39062 2.1289 1.85547 2.1289 1.85547 6.13282z"/><path d="M504.58247 57.48694q-1.03516.27344-2.26563.44922-1.21093.17578-2.16796.17578-3.33985 0-5.07813-1.79688-1.73828-1.79687-1.73828-5.76172V38.95179H490.852v-3.08593h2.48047V29.5963h3.67187v6.26954h7.57813v3.08593h-7.57813v9.9414q0 1.71876.0781 2.69532.0781.95703.54687 1.79688.42969.78125 1.17188 1.15234.76172.35156 2.30469.35156.89843 0 1.875-.2539.97656-.27344 1.40625-.44922h.19531z"/><path d="M542.39497 37.38928q0 1.9336-.68359 3.59375-.66407 1.64063-1.875 2.85157-1.50391 1.5039-3.55469 2.26562-2.05078.74219-5.17578.74219h-3.86719v10.83984h-3.86719V28.60022h7.89063q2.61718 0 4.43359.44922 1.81641.42969 3.22266 1.36719 1.66015 1.11328 2.55859 2.77343.91797 1.66016.91797 4.19922zm-4.02344.09766q0-1.5039-.52734-2.61718-.52735-1.11329-1.60156-1.81641-.9375-.60547-2.14844-.85938-1.19141-.27343-3.02735-.27343h-3.82812v11.62109h3.26172q2.34375 0 3.80859-.41016 1.46485-.42968 2.38281-1.34765.91797-.9375 1.28907-1.97266.39062-1.03516.39062-2.32422z"/><path d="M560.81294 39.86975h-.19531q-.82032-.19531-1.60157-.27344-.76172-.09766-1.8164-.09766-1.69922 0-3.28125.76172-1.58203.74219-3.04688 1.9336v15.48828h-3.67187v-21.8164h3.67187v3.22265q2.1875-1.75781 3.84766-2.48047 1.67969-.74218 3.41797-.74218.95703 0 1.38672.05858.42968.03907 1.28906.17579z"/><path d="M582.53169 47.1549h-16.07422q0 2.01173.60547 3.51563.60547 1.48438 1.66015 2.4414 1.01563.9375 2.40235 1.40626 1.40625.46875 3.08594.46875 2.22656 0 4.47265-.8789 2.26563-.89845 3.22266-1.75782h.19531v4.0039q-1.85547.78126-3.78906 1.3086-1.9336.52734-4.0625.52734-5.42969 0-8.47656-2.92968-3.04688-2.94922-3.04688-8.35938 0-5.35156 2.91016-8.4961 2.92968-3.14452 7.69531-3.14452 4.41406 0 6.79687 2.57812 2.40235 2.57813 2.40235 7.32422zm-3.57422-2.8125q-.0195-2.89062-1.46484-4.47265-1.42579-1.58203-4.35547-1.58203-2.94922 0-4.70703 1.73828-1.73829 1.73828-1.97266 4.3164z"/><path d="M605.79341 57.68225h-3.67188V55.3971q-1.58203 1.3672-3.30078 2.12891-1.71875.76172-3.73047.76172-3.90625 0-6.21094-3.00781-2.28515-3.00781-2.28515-8.33985 0-2.77343.78125-4.9414.80078-2.16797 2.14844-3.6914 1.32812-1.48438 3.08593-2.26563 1.77735-.78125 3.67188-.78125 1.71875 0 3.04687.37109 1.32813.35156 2.79297 1.11328v-9.45312h3.67188zm-3.67188-5.3711V39.79164q-1.48437-.66407-2.65625-.91797-1.17187-.2539-2.55859-.2539-3.08594 0-4.80469 2.14843-1.71875 2.14844-1.71875 6.09375 0 3.88672 1.32813 5.91797 1.32812 2.01172 4.25781 2.01172 1.5625 0 3.16406-.6836 1.60156-.70312 2.98828-1.79687z"/><path d="M616.96528 32.2135h-4.14062v-3.8086h4.14062zm-.23437 25.46875h-3.67188v-21.8164h3.67188z"/><path d="M640.12934 56.31506q-1.83593.87891-3.49609 1.3672-1.64062.48827-3.49609.48827-2.36328 0-4.33594-.6836-1.97266-.70312-3.37891-2.10937-1.42578-1.40625-2.20703-3.55468-.78125-2.14844-.78125-5.01953 0-5.35157 2.92969-8.39844 2.94922-3.04688 7.77344-3.04688 1.875 0 3.67187.52735 1.81641.52734 3.32031 1.28906v4.08203h-.19531q-1.67969-1.3086-3.47656-2.01172-1.77734-.70312-3.47656-.70312-3.125 0-4.94141 2.10937-1.79687 2.08984-1.79687 6.15234 0 3.94532 1.75781 6.07422 1.77734 2.10938 4.98047 2.10938 1.11328 0 2.26562-.29297 1.15235-.29297 2.07031-.76172.80079-.41016 1.50391-.85937.70313-.46875 1.11328-.80078h.19531z"/><path d="M656.1645 57.48694q-1.03516.27344-2.26562.44922-1.21094.17578-2.16797.17578-3.33985 0-5.07813-1.79688-1.73828-1.79687-1.73828-5.76172V38.95179h-2.48047v-3.08593h2.48047V29.5963h3.67188v6.26954h7.57812v3.08593h-7.57812v9.9414q0 1.71876.0781 2.69532.0781.95703.54688 1.79688.42968.78125 1.17187 1.15234.76172.35156 2.30469.35156.89844 0 1.875-.2539.97656-.27344 1.40625-.44922h.19531z"/><path d="M664.54341 32.2135h-4.14063v-3.8086h4.14063zm-.23438 25.46875h-3.67187v-21.8164h3.67187z"/><path d="M690.16841 46.78381q0 5.33203-2.73438 8.41797-2.73437 3.08594-7.32422 3.08594-4.6289 0-7.36328-3.08594-2.71484-3.08593-2.71484-8.41797 0-5.33203 2.71484-8.41797 2.73438-3.10546 7.36328-3.10546 4.58985 0 7.32422 3.10547 2.73438 3.08593 2.73438 8.41796zm-3.78907 0q0-4.23828-1.66015-6.28906-1.66016-2.07031-4.60938-2.07031-2.98828 0-4.64843 2.07031-1.64063 2.05078-1.64063 6.28906 0 4.10157 1.66016 6.23047 1.66015 2.10938 4.6289 2.10938 2.92969 0 4.58985-2.08985 1.67968-2.10937 1.67968-6.25z"/><path d="M714.09419 57.68225h-3.67188V45.26038q0-1.50391-.17578-2.8125-.17578-1.32813-.64453-2.07032-.48828-.8203-1.40625-1.21093-.91797-.41016-2.38281-.41016-1.50391 0-3.14453.74219-1.64063.74219-3.14453 1.89453v16.28906H695.852v-21.8164h3.67188v2.42187q1.71875-1.42578 3.55468-2.22656 1.83594-.80078 3.76953-.80078 3.53516 0 5.39063 2.1289t1.85547 6.13282z"/></g></svg>