<svg xmlns="http://www.w3.org/2000/svg" role="img" viewBox="3.78 20.28 141.57 80.57"><title>dsgrid logo</title><path fill="#0079C1" fill-rule="evenodd" d="M28.5 49.5c-.7.5-1.6.9-2.5 1.3h8.3v-8.2c-.3.7-.8 1.8-1.3 2.5l-1.6-1.6c-.5.9-1.2 1.7-1.9 2.5-.8.8-1.6 1.4-2.5 1.9l1.5 1.6zm.1-8.7c-.4.9-1 1.8-1.8 2.6s-1.7 1.4-2.6 1.8l2.2 2.2c.9-.5 1.8-1.2 2.5-1.9.8-.8 1.4-1.6 1.9-2.5l-2.2-2.2zm5.2-.7c.5-2 .5-4.2 0-6.3h-1.1c.5 2.1.5 4.3 0 6.3h1.1zm-1.7 0c.5-1.9.6-4.2 0-6.3h-3.2c.7 2 .7 4.3 0 6.3h3.2zm.8-11.3c.4.6.9 1.6 1.3 2.5v-8.2h-8.3c.8.3 1.6.7 2.5 1.3L26.8 26c.9.5 1.7 1.1 2.5 1.9.8.8 1.4 1.6 1.9 2.5l1.7-1.6zm-8.7-.1c.9.4 1.8 1 2.6 1.8s1.3 1.6 1.8 2.6l2.2-2.2c-.5-.9-1.2-1.8-1.9-2.5-.8-.8-1.6-1.4-2.5-1.9l-2.2 2.2zm-.7-5.2c-2.1-.5-4.2-.5-6.3 0v1.1c2.1-.5 4.2-.5 6.3 0v-1.1zm0 1.7c-2.1-.6-4.2-.5-6.3 0v3.2c2-.7 4.3-.8 6.3 0v-3.2zM9.4 30.5c.5-.9 1.2-1.7 1.9-2.5.8-.8 1.6-1.4 2.5-1.9l-1.6-1.6c.8-.5 1.6-.9 2.5-1.3H6.5v8.3c.4-.9.8-1.7 1.3-2.5l1.6 1.5zm4.9-4.1c-.9.5-1.8 1.2-2.5 1.9-.8.8-1.4 1.6-1.9 2.5l2.2 2.2c.4-1 1-1.8 1.8-2.6s1.7-1.4 2.6-1.8l-2.2-2.2zm-5.7 7.4c-.5 2.1-.6 4.2 0 6.3h3.2c-.7-2-.7-4.3 0-6.3H8.6zm-1.7 0c-.5 2.1-.5 4.2 0 6.3H8c-.5-2-.5-4.2 0-6.3H6.9zm.9 11.3c-.5-.8-.9-1.6-1.3-2.5v8.3h8.2c-.9-.4-1.7-.8-2.5-1.3l1.7-1.6c-.9-.5-1.7-1.2-2.5-1.9-.8-.8-1.4-1.6-1.9-2.5l-1.7 1.5zm2-2.1c.5.9 1.2 1.8 1.9 2.5.8.8 1.6 1.4 2.5 1.9l2.2-2.2c-1-.4-1.8-1-2.6-1.8s-1.4-1.7-1.8-2.6L9.8 43zm7.4 2.5c2 .7 4.3.7 6.3 0v3.2c-2.1.6-4.2.5-6.3 0v-3.2zm0 3.8c2.1.5 4.2.5 6.3 0v1.1c-2.1.5-4.2.5-6.3 0v-1.1z" clip-rule="evenodd"/><path fill="#0079C1" d="M40.7 23h4.2l13.9 19.3V23h4.5v28h-3.8L45.2 31v19.9h-4.5V23zm35.7 13.8h3.9c3.4 0 5.5-1.8 5.5-4.7V32c0-3-2.1-4.6-5.6-4.6h-6.9v23.5h-4.7V23h12c3.4 0 6 1 7.8 2.8 1.4 1.5 2.2 3.6 2.2 6v.1c0 4.6-2.7 7.4-6.4 8.5L91.5 51h-5.6l-9.5-14.2zM95.6 23h21.3v4.4h-16v7.3h13V39h-13v7.5h16.2v4.4H95.6V23zm27 0h5.3v23.5h14.8V51h-20.1V23z"/><path fill="#5C6670" d="M9.9 58.9h-.4l-2.4-3v3h-.6v-4H7l2.4 3v-3h.6v4h-.1zm4.8 0h-.6l-.5-1h-2l-.5 1h-.6l1.8-4h.5l1.9 4zm-2.9-1.5h1.6l-.8-1.7-.8 1.7zm4.6 1.5h-.6v-3.4h-1.3V55h3.2v.5h-1.3v3.4zm2.6 0h-.6v-4h.6v4zm2.9.1c-1.2 0-2-.9-2-2 0-1.2.9-2.1 2-2.1 1.2 0 2 .9 2 2 0 1.2-.9 2.1-2 2.1zm0-3.6c-.8 0-1.5.6-1.5 1.5s.6 1.5 1.5 1.5c.8 0 1.5-.7 1.5-1.5-.1-.8-.7-1.5-1.5-1.5zm6.2 3.5h-.4l-2.4-3v3h-.6v-4h.5l2.4 3v-3h.6v4h-.1zm4.8 0h-.6l-.5-1h-2l-.5 1h-.6l1.8-4h.5l1.9 4zM30 57.4h1.6l-.8-1.7-.8 1.7zm6.2 1.5h-2.8v-4h.6v3.4h2.2v.6zm2.9 0h-.6v-4h1.7c.5 0 .9.1 1.1.4.2.2.3.5.3.8 0 .6-.4 1-1 1.2l1.2 1.6h-.7l-1.5-2h.5c.6 0 .9-.3.9-.7 0-.5-.3-.7-.9-.7H39v3.4zm50.5 0H89v-4h1.7c.5 0 .9.1 1.1.4.2.2.3.5.3.8 0 .6-.4 1-1 1.2l1.2 1.6h-.7l-1.5-2h.5c.6 0 .9-.3.9-.7 0-.5-.3-.7-.9-.7h-1.1v3.4zm30.4 0h-.6v-4h1.7c.5 0 .9.1 1.1.4.2.2.3.5.3.8 0 .6-.4 1-1 1.2l1.2 1.6h-.7l-1.5-2h.5c.6 0 .9-.3.9-.7 0-.5-.3-.7-.9-.7h-1v3.4zm15.9 0h-.6v-4h1.7c.5 0 .9.1 1.1.4.2.2.3.5.3.8 0 .6-.4 1-1 1.2l1.2 1.6h-.6l-1.5-2h.5c.6 0 .9-.3.9-.7 0-.5-.3-.7-.9-.7h-1.1v3.4zm-90.4 0h-3v-4h2.9v.5H43v1.2h2.1v.5H43v1.2h2.4v.6h.1zm4.2 0h-.4l-2.4-3v3h-.6v-4h.5l2.4 3v-3h.6v4h-.1zm3.9 0h-3v-4h2.9v.5h-2.4v1.2h2v.5h-2v1.2h2.4v.6h.1zm4.9.1H58l-1-3-1 3h-.5l-1.4-4h.6l1.1 3.1 1-3.1h.5l1 3.1 1.1-3.1h.6l-1.5 4zm5.3-.1h-.6l-.5-1h-2l-.5 1h-.6l1.8-4h.6l1.8 4zm-2.9-1.5h1.6l-.8-1.7-.8 1.7zm5.3 1.5h-1.8v-4h1.7c.4 0 .8.1 1.1.4.2.2.3.4.3.7 0 .5-.3.7-.5.9.5.2.7.5.7.9 0 .7-.6 1.1-1.5 1.1zm-1.2-.5h1.2c.6 0 .9-.2.9-.6 0-.5-.6-.6-1-.6H65v1.2zm0-1.7h1.1c.5 0 .8-.2.8-.6 0-.4-.3-.6-.8-.6H65v1.2zm6.2 2.2h-2.8v-4h.6v3.4h2.2v.6zm3.6 0h-3v-4h2.9v.5h-2.4v1.2h2v.5h-2v1.2h2.4v.6h.1zm5.4 0h-3v-4h2.9v.5h-2.4v1.2h2v.5h-2v1.2h2.4v.6h.1zm4.2 0H84l-2.4-3v3H81v-4h.5l2.3 2.9v-3h.6v4.1zm3.9 0h-3v-4h2.9v.5h-2.4v1.2h2v.5h-2v1.2h2.4v.6h.1zm6.6.1c-1.2 0-2-.8-2-2s.9-2.1 2-2.1c.6 0 1 .2 1.5.5l-.4.4c-.3-.2-.6-.4-1.1-.4-.8 0-1.4.7-1.4 1.5 0 .9.6 1.5 1.5 1.5.4 0 .8-.1 1.1-.4v-.9h-1.2v-.5h1.7v1.6c-.3.4-.9.8-1.7.8zm4.1-.1h-.6v-1.6L96.8 55h.7l1.3 1.9L100 55h.7L99 57.4v1.5zm6.6 0h-2.8v-4h.6v3.4h2.2v.6zm4.5 0h-.6l-.5-1h-2l-.5 1h-.6l1.8-4h.5l1.9 4zm-2.9-1.5h1.6l-.8-1.7-.8 1.7zm5.3 1.5h-1.8v-4h1.7c.5 0 .8.1 1.1.4.2.2.3.4.3.7 0 .5-.3.7-.5.9.5.2.7.5.7.9-.1.7-.6 1.1-1.5 1.1zm-1.3-.5h1.2c.6 0 .9-.2.9-.6 0-.5-.6-.6-1-.6h-1.2v1.2h.1zm0-1.7h1.1c.5 0 .8-.2.8-.6 0-.4-.3-.6-.8-.6h-1.1v1.2zm5.3 2.3c-1.2 0-2-.9-2-2 0-1.2.9-2.1 2-2.1 1.2 0 2 .9 2 2 .1 1.2-.8 2.1-2 2.1zm0-3.6c-.8 0-1.5.6-1.5 1.5s.6 1.5 1.5 1.5c.8 0 1.5-.7 1.5-1.5s-.6-1.5-1.5-1.5zm10.7 3.5h-.6l-.5-1h-2l-.5 1h-.6l1.8-4h.5l1.9 4zm-2.9-1.5h1.6l-.8-1.7-.8 1.7zm4.6 1.5h-.6v-3.4H127V55h3.2v.5h-1.3v3.4zm3.6.1c-1.2 0-2-.9-2-2 0-1.2.9-2.1 2-2.1 1.2 0 2 .9 2 2 0 1.2-.9 2.1-2 2.1zm0-3.6c-.8 0-1.5.6-1.5 1.5s.6 1.5 1.5 1.5c.8 0 1.5-.7 1.5-1.5-.1-.8-.7-1.5-1.5-1.5zm8.5 3.5h-.6v-1.6l-1.7-2.4h.7l1.3 1.9L142 55h.7l-1.7 2.4v1.5z"/><path d="M30.8065 70.7322c-.93175-.52508-1.9922-.78762-3.18649-.78762-2.59449 0-4.66905.96264-6.21854 2.89307-1.54949 1.93042-2.3268 4.58154-2.3268 7.9482 0 2.9188.7876 5.30738 2.36283 7.17603 1.57523 1.8635 3.51595 2.79526 5.82217 2.79526 1.39505 0 2.56875-.26769 3.5108-.79791.9369-.53022 1.77599-1.37961 2.51212-2.5533v2.73347h5.01396V63.49954h-5.23017v9.41018c-.57655-.9266-1.33328-1.65245-2.25988-2.17752zm1.26636 14.0535c-.76188 1.08103-1.8738 1.6267-3.33063 1.6267-1.46197 0-2.54816-.54567-3.26885-1.637-.71555-1.09134-1.0759-2.54817-1.0759-4.37049 0-1.68848.3552-3.10412 1.06046-4.24693.70524-1.13767 1.81202-1.70907 3.32033-1.70907.98837 0 1.85835.31401 2.60478.94205 1.22003 1.0347 1.82747 2.76436 1.82747 5.17354 0 1.72966-.38093 3.135-1.13766 4.2212zm14.92862-.94206H41.7713c0 2.02309.74129 3.69098 2.2187 5.00367 1.47742 1.30754 3.7682 1.9613 6.86717 1.9613 3.04235 0 5.2868-.61773 6.73847-1.8532 1.45683-1.23547 2.18267-2.8313 2.18267-4.78745 0-1.48257-.50449-2.7232-1.5186-3.71157-1.02441-.97808-2.5636-1.70392-4.61758-2.18781-3.07324-.67437-4.86467-1.15311-5.3743-1.4311-.50449-.26253-.75673-.69494-.75673-1.2818 0-.4736.2368-.88542.7104-1.23547.47874-.3449 1.27665-.51992 2.39887-.51992 1.36417 0 2.33196.3449 2.89821 1.045.29858.38608.48904.91116.56111 1.57523h5.1581c-.23165-2.40917-1.12222-4.10795-2.6717-5.09118-1.5495-.98323-3.55714-1.47742-6.01779-1.47742-2.59449 0-4.60728.65377-6.03322 1.96646-1.43109 1.30754-2.14663 2.87248-2.14663 4.6948 0 1.54434.45815 2.72833 1.37446 3.54683.91631.83394 2.49154 1.52375 4.72568 2.07971 3.09898.73614 4.89041 1.25607 5.3743 1.55979.4839.29857.72584.74128.72584 1.31783 0 .6023-.29857 1.0553-.89571 1.35902-.59715.29857-1.40535.453-2.41947.453-1.72451 0-2.9085-.3449-3.54683-1.0347-.36035-.38608-.59715-1.0347-.70525-1.95102zm3.94836-13.95568zM75.12391 84.5386c-.8288.91116-1.84806 1.36416-3.0578 1.36416-1.80687 0-3.06293-.8288-3.76303-2.49668-.38609-.89057-.5817-1.90983-.5817-3.0578 0-1.32812.18531-2.44005.54566-3.34606.6898-1.70392 1.93557-2.55331 3.7476-2.55331 1.32298 0 2.38343.48904 3.1762 1.46712.7876.97808 1.18399 2.39888 1.18399 4.27268 0 1.98705-.41698 3.43873-1.25092 4.34989zm-1.7554-14.14101c-.73613-.30372-1.59582-.453-2.5842-.453-2.682 0-4.75141.99867-6.20824 2.99601-1.46198 1.9922-2.19296 4.458-2.19296 7.39224 0 3.0372.75672 5.44638 2.27532 7.22752 1.51346 1.78113 3.53654 2.6717 6.06926 2.6717 1.64215 0 2.97543-.39123 3.99984-1.17884.56626-.42212 1.09648-1.0553 1.59067-1.89954v1.26636c0 1.8841-.20076 3.22252-.61259 4.02043-.62803 1.24062-1.86865 1.8635-3.727 1.8635-1.31784 0-2.2496-.2368-2.80556-.70525-.32946-.26768-.5611-.7001-.70525-1.30239h-5.6111c.16988 1.96646 1.05015 3.44388 2.64082 4.43226 1.59067.98837 3.6498 1.48256 6.17222 1.48256 4.17486 0 6.99586-1.11192 8.46813-3.33062.85968-1.2921 1.28695-3.20708 1.28695-5.75524V70.41303h-5.01396v2.84159c-.77217-1.38476-1.78629-2.34225-3.04235-2.85703zm-.9369-.50963zm24.76607.06177c-.06692-.00515-.14929-.00515-.2471-.00515-1.54434 0-2.8004.40153-3.76304 1.20974-.592.48389-1.28695 1.38476-2.07971 2.69744v-3.43873h-4.92645V90.1394h5.19413v-9.42562c0-1.58552.20077-2.75407.59715-3.51595.71554-1.34872 2.10545-2.02308 4.18516-2.02308.15444 0 .36035.00515.61259.01544.25224.01545.54567.03604.86998.07207v-5.28164c-.23165-.01545-.3758-.0206-.44271-.03089zm8.7667-1.88924v-4.76172h-5.23016v4.76172zm-5.23016 2.35254V90.1394h5.23016V70.41303zm20.68386.31917c-.9266-.52508-1.98706-.78762-3.18134-.78762-2.5945 0-4.66906.96264-6.21855 2.89307-1.54949 1.93042-2.3268 4.58154-2.3268 7.9482 0 2.9188.78761 5.30738 2.36284 7.17603 1.57522 1.8635 3.51594 2.79526 5.81701 2.79526 1.4002 0 2.5739-.26769 3.5108-.79791.94205-.53022 1.78114-1.37961 2.51728-2.5533v2.73347h5.01395V63.49954h-5.23016v9.41018c-.5817-.9266-1.33328-1.65245-2.26503-2.17752zm1.26635 14.0535c-.75672 1.08103-1.86865 1.6267-3.32547 1.6267-1.46198 0-2.55331-.54567-3.26886-1.637-.71554-1.09134-1.07589-2.54817-1.07589-4.37049 0-1.68848.35005-3.10412 1.0553-4.24693.7104-1.13767 1.81717-1.70907 3.32548-1.70907.98838 0 1.85836.31401 2.60479.94205 1.22003 1.0347 1.82747 2.76436 1.82747 5.17354 0 1.72966-.38094 3.135-1.14282 4.2212z"/></svg>