<svg xmlns="http://www.w3.org/2000/svg" role="img" viewBox="-13.58 -13.58 588.16 706.16"><title>DSMR-reader logo</title><g transform="translate(.722 .211)"><g transform="translate(-107.902 -676.244) scale(2.13554)"><path d="M74.75905 619.55829q0 3.96484-1.73829 7.1875-1.71875 3.22265-4.58984 5-1.99219 1.23047-4.45313 1.77734-2.4414.54688-6.4453.54688h-7.34376v-29.08203h7.26563q4.25781 0 6.75781.625 2.51953.60546 4.25781 1.67968 2.96875 1.85547 4.6289 4.94141 1.66017 3.08594 1.66017 7.32422zm-4.04297-.0586q0-3.41796-1.19141-5.76171-1.1914-2.34375-3.55469-3.69141-1.71875-.97656-3.65234-1.34766-1.9336-.39062-4.6289-.39062h-3.63282v22.4414h3.63281q2.79297 0 4.86328-.41015 2.08985-.41016 3.82813-1.52344 2.16797-1.38672 3.24219-3.65234 1.09375-2.26563 1.09375-5.66407z"/><path d="M102.14186 625.76923q0 1.69921-.80078 3.35937-.78125 1.66016-2.20704 2.8125-1.5625 1.25-3.65234 1.95313-2.07031.70312-5 .70312-3.14453 0-5.66406-.58594-2.5-.58593-5.09766-1.73828v-4.84375h.27344q2.20703 1.83594 5.09766 2.83203 2.89062.9961 5.42968.9961 3.59375 0 5.58594-1.34766 2.01172-1.34766 2.01172-3.59375 0-1.93359-.95703-2.85156-.9375-.91797-2.8711-1.42578-1.46484-.39063-3.18359-.64453-1.69922-.25391-3.61328-.64454-3.86719-.82031-5.74219-2.79296-1.85547-1.99219-1.85547-5.17579 0-3.65234 3.08594-5.97656 3.08594-2.34375 7.83203-2.34375 3.0664 0 5.625.58594t4.53125 1.44531v4.57031h-.27344q-1.66015-1.40625-4.375-2.32421-2.6953-.9375-5.52734-.9375-3.10547 0-5 1.28906-1.875 1.28906-1.875 3.32031 0 1.81641.9375 2.85156.9375 1.03516 3.30078 1.58203 1.25.27344 3.55469.66407 2.30469.39062 3.90625.80078 3.24219.85937 4.88281 2.59765 1.64063 1.73829 1.64063 4.86329z"/><path d="M134.25123 634.07001h-3.86719v-25.0586l-8.08593 17.05078h-2.30469l-8.02734-17.05078v25.0586h-3.61329v-29.08203h5.27344l7.75391 16.1914 7.5-16.1914h5.37109z"/><path d="M166.12623 634.07001h-5.01953l-9.72656-11.5625h-5.44922v11.5625h-3.86719v-29.08203h8.14453q2.63672 0 4.39453.35156 1.75782.33203 3.16407 1.21094 1.58203.99609 2.46093 2.51953.89844 1.5039.89844 3.82812 0 3.14453-1.58203 5.27344-1.58203 2.10937-4.35547 3.18359zm-9.04297-20.89844q0-1.25-.44922-2.20703-.42968-.97656-1.44531-1.64063-.83984-.5664-1.99219-.78125-1.15234-.23437-2.71484-.23437h-4.55078v10.97656h3.90625q1.83594 0 3.20312-.3125 1.36719-.33203 2.32422-1.21094.87891-.82031 1.28907-1.875.42968-1.07422.42968-2.71484z"/><path d="M179.19264 623.11298h-12.1875v-3.53516h12.1875z"/><path d="M199.40748 616.25751h-.19531q-.82031-.19532-1.60156-.27344-.76172-.0977-1.81641-.0977-1.69922 0-3.28125.76172-1.58203.74219-3.04687 1.9336v15.48828h-3.67188V612.2536h3.67188v3.22266q2.1875-1.75782 3.84765-2.48047 1.67969-.74219 3.41797-.74219.95703 0 1.38672.0586.42969.0391 1.28906.17579z"/><path d="M221.12623 623.54266h-16.07422q0 2.01172.60547 3.51563.60547 1.48437 1.66016 2.4414 1.01562.9375 2.40234 1.40625 1.40625.46875 3.08594.46875 2.22656 0 4.47266-.8789 2.26562-.89844 3.22265-1.75781h.19531v4.0039q-1.85546.78125-3.78906 1.3086-1.93359.52734-4.0625.52734-5.42969 0-8.47656-2.92969-3.04688-2.94922-3.04688-8.35937 0-5.35157 2.91016-8.4961 2.92969-3.14453 7.69531-3.14453 4.41407 0 6.79688 2.57813 2.40234 2.57812 2.40234 7.32422zm-3.57422-2.8125q-.0195-2.89062-1.46484-4.47265-1.42578-1.58203-4.35547-1.58203-2.94922 0-4.70703 1.73828-1.73828 1.73828-1.97266 4.3164z"/><path d="M243.64576 634.07001h-3.65234v-2.32422q-.48828.33203-1.32813.9375-.82031.58594-1.60156.9375-.91797.44922-2.10937.74219-1.19141.3125-2.79297.3125-2.94922 0-5-1.95313-2.05078-1.95312-2.05078-4.98047 0-2.48047 1.05468-4.0039 1.07422-1.54297 3.04688-2.42188 1.99219-.87891 4.78516-1.19141 2.79296-.3125 5.99609-.46875v-.5664q0-1.25-.44922-2.07031-.42969-.82032-1.25-1.28907-.78125-.44922-1.875-.60547-1.09375-.15625-2.28516-.15625-1.44531 0-3.22265.39063-1.77735.37109-3.67188 1.09375h-.19531v-3.73047q1.07422-.29297 3.10547-.64453 2.03125-.35156 4.00391-.35156 2.30468 0 4.0039.39062 1.71875.3711 2.96875 1.28906 1.23047.89844 1.875 2.32422t.64453 3.53516zm-3.65234-5.3711v-6.07422q-1.67969.0977-3.96484.29297-2.26563.19532-3.59375.56641-1.58204.44922-2.5586 1.40625-.97656.9375-.97656 2.59766 0 1.875 1.13281 2.83203 1.13281.9375 3.45703.9375 1.9336 0 3.53516-.74219 1.60156-.76172 2.96875-1.81641z"/><path d="M268.41139 634.07001h-3.67188v-2.28516q-1.58203 1.36719-3.30078 2.12891t-3.73047.76172q-3.90625 0-6.21093-3.00782-2.28516-3.00781-2.28516-8.33984 0-2.77344.78125-4.94141.80078-2.16797 2.14844-3.6914 1.32812-1.48438 3.08593-2.26563 1.77735-.78125 3.67188-.78125 1.71875 0 3.04687.3711 1.32813.35156 2.79297 1.11328v-9.45313h3.67188zm-3.67188-5.3711v-12.51953q-1.48437-.66406-2.65625-.91797-1.17187-.2539-2.55859-.2539-3.08594 0-4.80469 2.14843-1.71875 2.14844-1.71875 6.09375 0 3.88672 1.32813 5.91797 1.32812 2.01172 4.25781 2.01172 1.5625 0 3.16406-.68359 1.60156-.70313 2.98828-1.79688z"/><path d="M293.89967 623.54266h-16.07422q0 2.01172.60547 3.51563.60547 1.48437 1.66016 2.4414 1.01562.9375 2.40234 1.40625 1.40625.46875 3.08594.46875 2.22656 0 4.47265-.8789 2.26563-.89844 3.22266-1.75781h.19531v4.0039q-1.85547.78125-3.78906 1.3086-1.93359.52734-4.0625.52734-5.42969 0-8.47656-2.92969-3.04688-2.94922-3.04688-8.35937 0-5.35157 2.91016-8.4961 2.92969-3.14453 7.69531-3.14453 4.41406 0 6.79688 2.57813 2.40234 2.57812 2.40234 7.32422zm-3.57422-2.8125q-.0195-2.89062-1.46484-4.47265-1.42578-1.58203-4.35547-1.58203-2.94922 0-4.70703 1.73828-1.73828 1.73828-1.97266 4.3164z"/><path d="M313.07936 616.25751h-.19532q-.82031-.19532-1.60156-.27344-.76172-.0977-1.8164-.0977-1.69922 0-3.28125.76172-1.58204.74219-3.04688 1.9336v15.48828h-3.67187V612.2536h3.67187v3.22266q2.1875-1.75782 3.84766-2.48047 1.67968-.74219 3.41797-.74219.95703 0 1.38671.0586.42969.0391 1.28907.17579z"/></g><g stroke-width="1.067"><path fill="#f6cdd4" d="M256.5829 544.00671c-32.71003-8.8124-48.59535-33.90919-43.21449-68.27341 2.0138-12.86084 8.53638-31.10398 18.13867-50.73243 11.73348-23.98489 17.04679-35.99789 22.85242-51.66756 22.91532-61.84954 30.43527-111.53175 24.37922-161.06666-1.32691-10.85333-3.4772-23.53957-4.77843-28.19164-2.67947-9.57949-4.00546-9.49238-1.51986.0998.88975 3.43366 2.1472 15.11899 2.79432 25.9674 1.00216 16.80025.90858 22.4917-.63121 38.39105-5.51716 56.96797-29.48808 119.68706-70.22139 183.73184-4.75685 7.47919-8.89262 13.59918-9.19057 13.6-2.49819.006-27.88461-83.02612-32.98795-107.89575-5.63726-27.47154-7.88395-48.7021-7.94057-75.03609-.10389-48.33969 9.01528-92.3242 28.41774-137.06666 7.7243-17.81239 13.96979-29.91583 27.52052-53.33333 16.81148-29.0525 24.84866-45.41772 29.516-60.10002l4.016-12.63337 5.86666.60526C286.07291 4.1681 326.71767 39.4804 350.42234 88c16.29265 33.34842 24.57084 66.82429 25.80952 104.37021 2.47672 75.07267-24.62057 146.58602-75.66069 199.67855-13.31322 13.84857-22.86762 21.85916-38.90723 32.62056-10.68424 7.16835-11.11693 7.61595-15.18719 15.71131-2.3043 4.58301-5.85317 13.11201-7.88641 18.95334-8.89908 25.56639-7.71079 43.7543 3.57416 54.70597 11.36497 11.02932 29.25793 14.14146 58.84751 10.2354 37.34924-4.9304 71.76895-19.17301 102.7213-42.50527 11.00745-8.29756 32.43477-29.73856 40.82968-40.85575 49.22244-65.18424 57.72169-151.09693 22.16742-224.07421-17.27775-35.46363-43.61343-65.16266-77.15076-87.00377l-9.88912-6.44025-7.42181-14.43263c-4.08199-7.93794-7.24048-14.61395-7.01884-14.83557.22162-.22162 5.85106 2.31374 12.50985 5.63415 60.63221 30.23424 104.60494 83.77612 122.99682 149.76287 11.07405 39.73173 10.68244 85.80644-1.0761 126.60611-11.05587 38.36156-30.637 71.16629-60.15292 100.7756-27.80888 27.89685-56.15269 45.45781-92.86088 57.53374-24.77993 8.15188-46.16399 11.73993-69.30535 11.62877-9.53918-.0458-15.48304-.63579-20.7784-2.06241zM92.31404 508.72606c-4.08061-6.49252-7.70826-11.98317-8.06145-12.20145-.35319-.21828-3.61229 1.555-7.24244 3.94061-5.4572 3.5863-6.87798 4.10703-8.20376 3.00673-2.72182-2.25892-9.89937-17.70981-11.2534-24.22485-2.78777-13.41364.60897-28.11329 9.18976-39.76946l4.74295-6.44285-4.13561-7.29817c-13.24756-23.37816-22.96745-51.47974-27.53352-79.60331-2.67847-16.49732-2.69859-53.94515-.038-70.724 12.0883-76.23425 58.97588-140.66329 127.61964-175.36437 7.88236-3.98472 14.68573-7.24495 15.1186-7.24495.43289 0-.82194 3.72-2.78851 8.26667-1.96655 4.54667-4.14614 10.54359-4.84352 13.32652-1.14692 4.57683-1.84154 5.38422-7.27638 8.45772-39.89206 22.55977-72.24712 57.93861-91.0407 99.54909-24.9843 55.31719-25.24784 118.92215-.72365 174.6516 3.67905 8.36037 9.28232 19.15381 12.42503 23.93402.6248.95035 2.3633.89008 7.21044-.25001 21.81481-5.13101 43.18475 4.48925 55.90912 25.16898l3.25195 5.28509-3.98698 2.52151c-2.19282 1.38685-6.25243 3.96035-9.02134 5.71891l-5.03438 3.19739 7.41068 11.61957c4.07589 6.39078 7.41892 12.09959 7.42897 12.68625.0175 1.0191-15.93566 11.63918-16.49835 10.98304-.14921-.174-3.29126-5.11637-6.98233-10.98304-3.69108-5.86666-7.23136-11.2421-7.86729-11.94539-.87936-.97251-3.26041.0693-9.94292 4.35055l-8.78668 5.62928 7.42964 11.64945c4.08631 6.4072 7.43621 12.12945 7.44422 12.71611.011.8058-12.15699 9.1525-15.9369 10.932-.30999.14593-3.90229-5.04673-7.9829-11.53924zm7.70286-46.96575c12.16403-7.68514 22.73059-14.55644 23.48125-15.26957 1.08975-1.03528.24574-1.82005-4.1876-3.89369-7.97353-3.72954-18.55819-3.59281-26.12426.33746-10.2889 5.34466-16.3863 15.4369-16.3863 27.12214 0 3.12216.24761 5.67665.55025 5.67665.30263 0 10.50263-6.28784 22.66666-13.97299z"/><path fill="#f3bac4" d="M257.06665 544.01793c-22.06963-5.93189-37.49588-19.97716-42.78107-38.95129-.86109-3.09134-1.46135-10.04153-1.42793-16.53334.0938-18.21453 5.04364-35.79109 16.60133-58.95016 18.4651-36.99996 30.80263-68.51709 39.34765-100.51649 7.35669-27.5494 10.63092-48.65835 11.74706-75.73333.85542-20.75071.73166-23.85295-1.68093-42.13333-1.64184-12.44039-3.86639-23.95776-6.01918-31.16383-1.87815-6.28677-3.56662-11.2787-3.75216-11.09317-.18552.18553.8525 5.32926 2.30672 11.43049 4.03598 16.93309 5.34762 44.21975 3.22194 67.02757-5.37312 57.65157-29.28704 119.89698-72.02276 187.46757-3.78071 5.97775-7.23716 10.51061-7.68101 10.073-2.73983-2.70129-23.70219-69.93085-30.14353-96.67497-7.309-30.34665-10.30883-55.26588-10.23946-85.05824.16311-70.06128 15.29121-120.69318 58.24584-194.94175 6.95773-12.02666 15.15463-27.14666 18.21536-33.6 5.5589-11.72056 12.19547-29.63866 12.19547-32.9266 0-2.3088 3.46762-2.22436 15.20125.37017 10.90755 2.41186 26.26805 9.9201 37.59874 18.37831 10.30653 7.69369 26.4309 24.04883 34.86909 35.36815 28.33724 38.01265 45.66424 93.40176 45.66424 145.97463 0 39.30389-11.355 88.92335-27.80807 121.51671-21.95938 43.50129-52.50248 78.65742-89.30948 102.79817-9.57149 6.2777-9.80561 6.53328-13.6672 14.92044-20.37402 44.25123-17.08191 71.19228 9.98253 81.69204 8.55901 3.32049 29.25139 4.02347 46.17661 1.56875 47.59742-6.90321 89.56717-27.72581 123.08667-61.06744 34.38803-34.20554 55.58617-77.33987 62.01701-126.19334 2.29821-17.45889 1.58233-46.57725-1.56035-63.46667-11.08969-59.59838-44.16793-109.8522-93.7595-142.44329l-11.59904-7.62278-7.75883-14.89497-7.75882-14.89498 4.11256 1.7141c7.31003 3.04677 26.29531 13.50699 34.51258 19.01521 26.38846 17.68881 52.88494 44.81243 69.48215 71.12672 37.43132 59.34604 46.22877 133.52483 23.7786 200.49748-4.73436 14.12338-17.47516 40.25797-25.75786 52.83584-42.59525 64.68392-113.14129 104.7372-188.03622 106.75961-15.26999.41234-18.65909.19059-25.6-1.67499zM91.82738 507.65856L84.227 495.85049l-3.98017 2.39552c-2.1891 1.31752-5.36085 3.34706-7.04836 4.51006l-3.06819 2.11456-2.01253-2.56867c-3.84967-4.91345-9.47177-17.54199-10.64093-23.90199-2.6983-14.67823 1.38436-29.13379 11.92636-42.22792l2.22307-2.76126-6.94114-13.23874c-17.14395-32.69845-25.63149-64.56548-27.03268-101.49601-3.47806-91.6698 47.71825-177.36406 130.88089-219.07322 7.33334-3.67794 13.46363-6.3223 13.62289-5.87634.15926.44596-1.09759 3.89993-2.79299 7.6755-1.69539 3.77558-3.69776 9.31182-4.44971 12.30276-1.33622 5.31501-1.57597 5.56014-10.59266 10.83045-57.7474 33.75375-96.28454 92.23809-105.252 159.73146-3.38147 25.45057-.75096 60.14693 6.43446 84.87026 6.48953 22.3289 20.91977 52.90275 24.80429 52.55369 1.07748-.0969 5.1972-.76748 9.15494-1.49034 13.01913-2.37786 27.75695 1.7009 39.23048 10.85724 4.47509 3.57132 14.90697 17.2391 14.90697 19.53103 0 .65302-3.24 3.21093-7.2 5.68423-3.96 2.47331-7.83598 4.91431-8.61329 5.42444-1.08402.71141.34495 3.6866 6.13333 12.7699 4.15065 6.51331 7.53305 12.22275 7.51645 12.68763-.0165.46488-3.70509 3.07487-8.19666 5.79999l-8.16649 4.95474-6.83863-10.8214c-3.76125-5.95179-7.40309-11.41463-8.09301-12.13967-.98599-1.03618-3.0753-.15561-9.7647 4.11551-4.68068 2.98856-8.65642 5.56786-8.83497 5.73177-.17855.16392 3.06145 5.61159 7.2 12.10592 4.13855 6.49435 7.52464 12.07794 7.52464 12.40799 0 .82439-14.52332 10.15705-15.80624 10.15705-.56797 0-4.45284-5.31363-8.63304-11.80807zm9.62339-46.59192c12.81765-8.06667 23.3148-14.98385 23.32701-15.37151.0122-.38767-2.23174-1.79597-4.98657-3.12956-19.9566-9.66083-42.99122 5.06885-42.99122 27.49108 0 3.12216.30285 5.67665.67299 5.67665.37014 0 11.16015-6.6 23.97779-14.66666z"/><path fill="#ee9aa8" d="M259.73332 544.55479c-19.19162-4.22488-35.19166-15.73286-41.79982-30.06438-2.89592-6.28055-5.62398-18.05777-5.64204-24.35711-.0461-16.08539 6.91402-40.10124 18.03694-62.23625 13.88573-27.63304 19.51892-40.72264 28.45808-66.1267 13.40285-38.08942 21.01273-76.21642 22.17553-111.1037.5333-16.00087.24972-21.59011-1.98574-39.13752-1.76343-13.84219-3.71891-24.11698-6.03895-31.73091-1.88709-6.19304-3.59282-11.09829-3.79054-10.90058-.19771.19771.81237 5.59662 2.24463 11.99758 4.21477 18.83637 5.24973 44.4058 2.78496 68.80488-4.99125 49.40899-24.25816 104.40848-55.82781 159.36654-6.85052 11.92575-22.19505 35.73333-23.03093 35.73333-2.08167 0-22.89967-65.52537-29.88905-94.0769-7.41777-30.30139-10.73909-57.61741-10.73909-88.32309 0-68.50998 15.9654-121.79297 58.16893-194.13332 16.7433-28.69942 27.56285-52.02734 29.85598-64.37226l.76263-4.1056 5.86378.73263c21.59827 2.69853 43.53123 14.85739 64.33694 35.66613 31.94299 31.94765 53.55574 79.3403 60.84087 133.41243 1.80729 13.41421 1.82353 48.77142.0291 63.46666-4.23371 34.67236-15.18124 70.80501-29.24783 96.53333-23.65181 43.26009-50.3277 73.22698-85.42354 95.96223l-9.97959 6.46481-4.30972 9.31981c-13.36043 28.89197-16.59588 51.76326-9.23564 65.28645 7.99617 14.69161 23.93362 20.77779 50.20485 19.17221 28.44044-1.73814 50.9575-7.51196 77.71034-19.92647 66.33695-30.78328 113.0434-94.56873 122.67535-167.53368 1.8393-13.93319 2.06138-38.07433.47788-51.94536-5.6904-49.84613-30.02003-98.43059-66.15973-132.11609-10.03556-9.35405-27.49822-22.7509-35.37727-27.14038-4.77399-2.65963-5.73158-3.95044-12.68243-17.09559-4.1352-7.82031-7.24107-14.4962-6.90196-14.83532.99594-.99594 23.73648 10.88684 35.17219 18.37877 54.02741 35.39526 91.15558 90.7015 103.05462 153.5105 14.02286 74.01965-8.36859 150.06444-60.48974 205.43249-32.24692 34.25575-77.69049 59.59456-123.32213 68.76298-23.86427 4.79487-48.11245 6.09017-60.9801 3.25745zM92.06774 507.74786c-3.99726-6.44532-7.55333-11.72532-7.90237-11.73333-.34905-.009-3.67364 1.94964-7.38798 4.35035l-6.75335 4.36489-1.95941-2.49823c-4.49473-5.73075-9.42367-17.61649-10.6533-25.68954-2.05229-13.47429 2.22599-28.68412 10.82235-38.47483l3.48138-3.96507-8.58799-17.31773c-4.72339-9.52475-10.49218-22.8551-12.81953-29.62301-28.48835-82.8438-8.64642-174.57294 51.37691-237.51524 14.08763-14.77272 26.05168-24.93024 41.24887-35.02043 16.13177-10.7107 39.46667-22.7259 39.46667-20.32147 0 .24066-1.42639 3.45366-3.16975 7.14-1.74337 3.68634-3.72164 9.16851-4.39616 12.1826-1.21108 5.41168-1.34143 5.54764-10.43025 10.87911-16.3514 9.59169-28.06387 18.66615-42.37059 32.82739-36.6663 36.29351-57.45305 78.89444-63.4726 130.08255-1.99293 16.94717-.7075 47.14786 2.7262 64.05078 3.78027 18.60903 10.18772 37.45789 18.2707 53.74709 9.33904 18.82047 7.83192 17.51938 17.90212 15.45492 18.93489-3.88177 37.41733 3.55786 50.00694 20.12902 4.65774 6.13077 6.87549 10.15867 5.96412 10.83206-.20023.14795-4.08406 2.59555-8.63073 5.43912s-8.26666 5.35285-8.26666 5.57618c0 .22333 3.35999 5.69987 7.46666 12.1701 4.10667 6.47022 7.46667 11.96687 7.46667 12.21476 0 .69059-14.8227 10.03674-15.91795 10.03674-.52954 0-4.24462-5.26161-8.25576-11.69247-4.01112-6.43085-7.55259-11.71085-7.86994-11.73333-.56488-.04-16.71887 9.9661-17.74341 10.99064-.28593.28593 2.87918 5.85378 7.03359 12.37301 4.15441 6.51922 7.55347 12.08331 7.55347 12.36463 0 .7422-14.77129 10.09751-15.94317 10.09751-.5434 0-4.2585-5.27345-8.25575-11.71877zm10.32531-47.18101c12.31637-7.79178 22.39646-14.51712 22.40018-14.9452.0157-1.80978-9.47676-5.41027-15.54895-5.89769-17.65294-1.41701-32.40701 11.98281-32.43386 29.4568-.0086 5.5914.2702 6.6731 1.5894 6.16688.8799-.33765 11.67686-6.98901 23.99323-14.78079z"/><path fill="#e87489" d="M259.73332 544.36575c-18.98868-4.05282-33.82234-14.73048-41.04012-29.54177-10.90382-22.37524-7.38171-47.24368 12.48566-88.15734 26.52059-54.61494 38.51227-90.07531 46.02577-136.10202 4.7512-29.10515 5.31447-53.40004 1.8524-79.89797-1.82356-13.95721-3.72429-23.66783-6.10533-31.19159-1.90157-6.00871-3.65869-10.72365-3.90471-10.47763-.24601.24602.79045 5.88223 2.30325 12.52493 6.29592 27.64523 5.10083 68.40694-3.04362 103.81096-9.47005 41.16643-30.14207 91.06783-53.98278 130.31219-8.58556 14.13276-18.38841 29.15435-19.01905 29.1442-1.87894-.0302-21.7208-62.17097-28.77674-90.12306-9.09891-36.0453-12.49523-65.83026-11.55482-101.33333.8765-33.09068 5.11246-60.34677 13.75785-88.52435 9.98747-32.55176 22.02801-58.47318 46.94399-101.06309 4.02869-6.88643 10.14581-18.16643 13.59358-25.06666 6.2119-12.43227 13.93134-32.73977 13.93134-36.64912 0-2.52598 1.19116-2.52756 13.33333-.0177 33.97511 7.02288 70.54702 40.16125 92.50543 83.82058 26.19665 52.08613 33.60654 112.69693 21.12954 172.83367-14.63705 70.54771-56.17762 132.54257-112.92823 168.53332-5.7745 3.66214-7.24606 5.28364-10.38604 11.44429-12.63295 24.78588-17.3571 48.77574-12.54137 63.68677 3.7145 11.50128 15.21732 20.04545 31.13563 23.12721 6.71229 1.29949 10.7504 1.37714 22.86874.43978 52.74915-4.08023 99.99019-25.71936 137.0457-62.77486 34.70862-34.70863 55.63774-77.66223 62.17866-127.61155 1.63456-12.48221.7153-49.24801-1.5296-61.17676-11.39844-60.56792-44.90302-111.27627-95.2762-144.1982l-10.60346-6.93-7.17507-13.73877c-3.94629-7.55633-6.94786-13.966-6.67015-14.2437.85461-.8546 23.55113 10.94177 33.38381 17.35102 38.10328 24.83698 66.62381 57.10737 85.75038 97.02479 43.06275 89.87257 24.69606 196.77092-45.91131 267.21457-39.14339 39.05262-89.08981 62.73065-143.88948 68.21352-14.83645 1.48443-26.86924 1.26235-35.88698-.66233zm8.72865-379.23243c-.3405-.85091-.59326-.59816-.64444.64445-.0463 1.12444.20578 1.75444.56023 1.4.35445-.35445.39234-1.27445.0842-2.04445zM92.17365 507.73454c-4.0555-6.45266-7.77956-11.73266-8.27566-11.73333-.4961-.00069-2.1761.87441-3.73333 1.94465-1.55723 1.07025-4.59897 3.00939-6.75943 4.30922l-3.9281 2.36333-4.19398-7.24255c-7.6806-13.26354-9.9363-24.74891-7.3146-37.24372 1.80807-8.61713 5.59534-16.74638 10.29613-22.10027 1.76109-2.00577 3.20198-4.15777 3.20198-4.78223 0-.62445-1.72239-4.07418-3.82753-7.66606-12.68466-21.64308-23.51734-53.65399-27.78885-82.11693-2.21595-14.76584-2.502-46.8667-.5513-61.86667 8.94593-68.78966 46.29918-128.46863 105.31138-168.25506 6.86788-4.63038 31.3524-17.71538 35.38142-18.90851l2.39178-.7083-2.2651 5.13594c-1.24581 2.82477-3.3466 8.49594-4.66842 12.60261l-2.40332 7.46667-10.54205 6.42995C104.53874 160.71869 67.2879 218.0949 58.64594 285.33332c-1.45172 11.29509-1.44098 38.34496.01995 50.22906 3.47723 28.28588 13.35356 58.47387 26.437 80.8073 3.29729 5.62847 3.92848 6.17418 6.47526 5.59833 10.02-2.26559 14.90439-2.63724 21.92613-1.66831 9.29149 1.28213 20.69218 6.69615 27.07064 12.85544 5.50971 5.3204 13.36942 16.6247 12.51741 18.00329-.3363.54413-4.22571 3.24201-8.64313 5.99527-4.81107 2.9986-7.82404 5.54706-7.51385 6.3554.28482.74222 3.14428 5.42078 6.35436 10.3968 9.36632 14.51901 9.29948 12.73121.68435 18.30431-4.12899 2.67104-7.92371 4.85643-8.43271 4.85643-.509 0-4.20747-5.28-8.21883-11.73334-4.01136-6.45333-7.64497-11.73333-8.0747-11.73333-.78292 0-15.47504 9.1551-17.26824 10.76037-.53464.47861 2.09281 5.68442 5.97921 11.84671 3.81312 6.0461 7.25227 11.56321 7.64257 12.26025.44309.79134-2.11555 3.0949-6.81247 6.13333-4.13715 2.6763-7.90897 4.866-8.38183 4.866-.47286 0-4.1779-5.27944-8.2334-11.73209zm10.06017-46.93301c12.41139-7.91915 22.56617-14.78123 22.56617-15.24908 0-.46784-2.52-2.02385-5.6-3.4578-14.97957-6.97398-32.78351-.30077-39.88517 14.94964-2.92518 6.28164-3.73887 20.58989-1.081 19.00868.7886-.46915 11.5886-7.33229 24-15.25144z"/><path fill="#e4556e" d="M263.20767 545.0307c-8.00262-1.34725-18.13763-5.06072-24.94136-9.13853-16.93695-10.15112-24.94374-25.1427-25.0089-46.82553-.0579-19.27354 4.62057-34.95426 19.57242-65.6 17.80129-36.48606 27.85147-62.58423 36.44661-94.64415 15.07523-56.2306 16.0954-108.04739 2.98226-151.47581-2.69921-8.93932-5.05653-16.10444-5.23848-15.92248-.18195.18196 1.31321 7.49594 3.3226 16.2533 14.65588 63.87363-3.54588 145.67928-50.95772 229.02345-9.89055 17.38634-23.47835 38.16579-24.3723 37.27183-2.61716-2.61716-21.76861-63.58287-29.13531-92.7478-8.31163-32.90597-11.78278-64.28127-10.83006-97.89166.34922-12.32 1.13591-26 1.74821-30.4 8.16544-58.67746 20.38836-91.91275 58.02638-157.77923 14.88142-26.04248 24.5773-46.66246 27.37642-58.22076.71038-2.93333 1.63413-5.71713 2.0528-6.18622.41865-.4691 5.7534.16211 11.85497 1.40268 19.60494 3.98607 37.22489 14.47818 56.82342 33.83653 51.35845 50.72904 74.1997 138.15554 57.60924 220.50344-4.75616 23.60747-12.72153 47.55247-22.01393 66.17689-21.85231 43.79774-51.78135 78.38077-89.46699 103.37917l-9.20871 6.1085-4.98502 10.59805c-8.98974 19.11196-12.45903 31.86273-12.42468 45.66472.0278 11.18755 2.11017 17.67122 7.72351 24.0483 5.62245 6.38744 11.42497 9.69269 21.79552 12.41522 7.24211 1.90124 10.23993 2.11854 21.10035 1.52945 54.9685-2.98155 103.84917-24.73747 142.56476-63.45305 44.48127-44.48128 66.86934-103.82384 62.78636-166.42369-2.66622-40.87834-15.7856-77.32278-40.41007-112.25553-13.25812-18.80822-42.37685-45.74418-61.95643-57.31211-5.76185-3.40419-6.18858-3.98493-13.06164-17.77576-3.90786-7.84112-6.83115-14.2566-6.49618-14.2566 1.75914 0 27.42262 13.85865 35.43559 19.13574 47.63075 31.36806 82.60836 79.04671 97.7551 133.25185 17.26924 61.80087 8.47323 128.31392-24.21129 183.07906-29.70211 49.76792-74.93464 86.00399-129.87971 104.04746-26.99212 8.86398-64.19777 13.64388-82.37774 10.58327zm-170.941-37.2974c-4.10668-6.45034-7.84499-11.72913-8.30737-11.73062-.46238-.001-3.80295 1.8807-7.4235 4.18267l-6.5828 4.18536-2.53811-3.73517c-4.54476-6.68822-8.87374-17.17722-9.80321-23.75293-1.89495-13.40617 2.90028-30.23499 11.24807-39.47499l3.5683-3.94968-2.24162-3.66232c-1.2329-2.01427-4.74793-8.70231-7.81118-14.86231-25.1786-50.63246-31.16467-108.04679-17.03016-163.34135 14.13969-55.31476 49.84557-105.24501 98.10643-137.18968 9.41136-6.22955 35.91261-20.53562 38.04113-20.53562.43447 0-.45892 2.76-1.98531 6.13333-1.52639 3.37334-3.58711 9.00635-4.57937 12.51781l-1.80412 6.38446-9.41489 5.64374c-15.87021 9.51335-25.91408 17.28356-40.31251 31.1868-39.51802 38.15892-61.88907 85.92346-65.69569 140.26718-2.80956 40.10966 6.58604 83.44946 25.35234 116.94465 4.65361 8.30602 5.21787 8.9027 8.17281 8.64234 17.29485-1.52386 22.89836-1.47505 28.88664.25165 8.64713 2.49335 16.29155 7.05848 21.90857 13.08343 4.47199 4.79677 11.57887 14.39153 11.57887 15.63225 0 .31347-3.86698 3.05051-8.59328 6.08231-5.14865 3.30272-8.38545 6.05398-8.0748 6.8635.44468 1.15884 8.49844 14.30207 13.14904 21.45843 1.4196 2.18448 1.1074 2.53001-6.66024 7.37137-4.7529 2.96235-8.44234 4.63781-8.85185 4.01985-.38621-.58277-3.82152-5.93989-7.63402-11.90469-3.81249-5.9648-7.31905-10.8451-7.79235-10.8451-.4733 0-4.70096 2.46352-9.39481 5.4745-5.40863 3.46949-8.3343 5.99557-7.9883 6.89724.30028.78252 3.36316 5.87899 6.80639 11.32551 3.44325 5.44651 6.58977 10.46538 6.9923 11.15305.46057.78683-2.17231 3.0604-7.10263 6.13334-4.30898 2.68566-8.03422 4.88181-8.27831 4.88032-.2441-.001-3.8038-5.28028-7.91047-11.73063zm10.93332-47.42732c11.88-7.5036 21.6-14.08419 21.6-14.62353 0-.53934-2.52-2.15385-5.6-3.5878-14.38278-6.69614-32.68767-.33035-39.98486 13.90532-1.93716 3.77912-3.54268 13.52411-2.84278 17.25487.63911 3.40677.817 3.53683 2.95386 2.15957 1.25058-.80603 11.99378-7.60483 23.87378-15.10843z"/><path fill="#dd2d4d" d="M264.39415 545.05154c-14.37451-2.25701-27.96156-8.75598-36.66083-17.53563-9.97817-10.07036-14.4-21.92444-14.4-38.60364 0-18.98761 5.05374-35.5789 20.58469-67.57896 13.7836-28.39981 17.53839-37.25723 25.43957-60.01109 19.26274-55.47288 25.91321-104.72672 20.19817-149.5889-1.27052-9.97333-2.80767-20.05333-3.41591-22.4-1.90541-7.35149-9.71395-31.58147-10.06465-31.23076-.18388.18387 1.3511 7.28602 3.41104 15.78254 5.34508 22.04649 6.85103 48.86868 4.25821 75.84231-5.45056 56.70317-30.13784 120.34032-71.91699 185.38256l-6.45121 10.04331-1.78824-4.17665c-4.87867-11.39468-23.84976-73.5197-28.63653-93.77665-7.08116-29.96639-9.68708-52.87713-9.70604-85.33333C155.20593 194.3335 170.89737 141.14813 211.26212 72c14.6588-25.11175 24.60456-45.3221 29.23485-59.4069l4.1006-12.47358 3.30121.54357c26.05159 4.28958 45.33257 15.18354 67.65392 38.22517 28.54372 29.4648 48.15936 70.63862 56.74779 119.11534 4.77809 26.96954 4.02119 68.51832-1.77549 97.46305-10.69161 53.38672-34.16265 98.68827-70.54875 136.16646-14.10188 14.52513-23.36722 22.29349-39.49607 33.11476l-11.11466 7.45713-4.12484 8.80218c-5.81312 12.40488-11.41203 29.72774-12.77459 39.52421-2.68853 19.32971 4.10841 33.86366 19.08052 40.80006 11.86938 5.49894 21.49234 6.53318 41.94036 4.5076 39.97892-3.96031 78.38754-19.13253 111.01468-43.85317 11.23878-8.5153 31.5525-28.79799 39.91351-39.85257 50.15153-66.30821 58.83686-152.02861 22.88175-225.83258-16.75006-34.38233-43.67812-64.75393-76.87429-86.70492l-10.15598-6.71565-7.31291-14.03491-7.31292-14.03491 4.11292 1.71391c12.72585 5.30305 34.53055 18.58661 48.85754 29.76434 39.46276 30.78833 69.44906 76.64938 82.02219 125.44473 14.04503 54.50769 8.26361 111.73587-16.35347 161.87716-38.27987 77.97032-114.91716 128.22039-201.08001 131.84554-7.04.29619-15.50262.11418-18.80583-.40448zM92.41981 507.71939c-4.02243-6.44568-7.81056-11.71942-8.41807-11.71942-.6075 0-4.09041 1.88575-7.7398 4.19055l-6.63526 4.19054-4.38742-7.66822c-2.41308-4.21752-5.11389-10.06327-6.0018-12.99054-2.37197-7.82001-2.11253-21.57941.55628-29.50165 2.2408-6.6517 7.8236-16.29796 10.89856-18.83113 1.53663-1.26588.95962-2.85118-5.62948-15.46667-20.12777-38.53656-29.02015-79.63197-26.58407-122.8562 4.23916-75.21711 43.67674-142.57396 108.04254-184.52971 7.91009-5.15605 33.37189-18.67028 35.17619-18.67028.31279 0-.79527 3.00822-2.46238 6.68494-1.6671 3.67672-3.81056 9.36617-4.76322 12.64323-1.70998 5.88214-1.85359 6.03019-11.23751 11.58481-41.96701 24.84155-75.59874 64.67599-92.25254 109.26666C48.5853 294.01325 53.14918 358.34861 83.7869 414.55425l4.79462 8.79585 5.04257-1.53019c2.77341-.8416 8.88257-1.52525 13.5759-1.51922 18.13169.0233 33.71739 9.37677 43.76297 26.2636l2.63589 4.431-8.53277 5.47354c-4.69301 3.01044-8.53276 5.92481-8.53276 6.47637 0 .55156 3.02605 5.69453 6.72456 11.42881s7.0568 10.97735 7.46286 11.65126c.45992.76333-2.30025 3.11915-7.32074 6.24828-4.43246 2.76263-8.21267 4.85124-8.40047 4.64136-.18779-.20988-2.07952-3.14161-4.20383-6.51494s-5.52834-8.7607-7.56451-11.97195l-3.70213-5.8386-8.68299 5.52671c-4.77563 3.03969-8.89909 6.0899-9.16323 6.77824-.26415.68835 2.57521 5.9887 6.30967 11.77857 3.73446 5.78987 7.12217 11.07842 7.52823 11.75233.45949.76259-2.23541 3.07874-7.13632 6.13333-4.33103 2.69943-8.04931 4.90177-8.26285 4.89413-.21353-.007-3.67933-5.28766-7.70176-11.73334zm9.57645-46.45923c11.66205-7.41297 21.8491-14.09159 22.63787-14.84138 1.18248-1.12406.37867-1.87965-4.58074-4.30607-10.36449-5.07087-23.01616-3.74476-32.37483 3.39345-7.5548 5.76232-13.07173 19.08793-11.45983 27.68009.82244 4.38402-1.76398 5.58064 25.77753-11.92609z"/><path fill="#d70026" d="M266.66665 545.05229c-21.00376-2.61227-40.41623-14.72114-47.46418-29.60664-10.7423-22.68808-7.2499-48.27664 11.97124-87.71234 25.5437-52.40758 38.62513-90.50067 46.33701-134.93333 2.80311-16.15026 3.40904-22.77749 3.81476-41.72251.67467-31.50511-1.8087-51.38828-9.5598-76.54051-3.05024-9.898-5.70009-17.53379-5.88855-16.9684-.18846.56537 1.37139 8.18373 3.46631 16.92969 15.7798 65.87778-1.31566 144.59848-50.47698 232.43506-9.07852 16.22059-22.85161 36.97485-23.86501 35.96146-1.61451-1.61451-9.04078-23.55476-17.40724-51.42813-12.60687-42.00054-16.9235-60.948-20.41275-89.59999-2.25567-18.52248-2.53414-58.98924-.51748-75.2 7.15189-57.49005 20.47861-95.00625 55.23092-155.48116C230.524 38.7677 236.91136 25.54355 241.64116 9.6c2.80549-9.45694 3.43649-9.72467 16.33905-6.9327 20.81305 4.50372 46.40226 22.12936 65.66677 45.23076 19.68207 23.60212 35.40329 55.43288 43.86466 88.81278 5.05091 19.9257 7.05571 34.5841 7.66602 56.05112.65974 23.20526-.64807 40.51043-4.65816 61.63803-7.93688 41.81626-24.34965 78.90031-50.13537 113.27896-17.14224 22.85477-37.30968 41.96651-59.80207 56.67157l-10.88458 7.11613-4.77987 10.13372c-9.32477 19.76929-14.57531 40.72459-13.04867 52.07824 2.26701 16.85993 12.4437 27.32403 30.77727 31.64655 16.47211 3.88363 52.09177-.3405 78.15377-9.26825 82.30708-28.19497 138.8513-99.12432 147.66889-185.2366 4.76164-46.50203-7.5267-96.91434-33.27016-136.48915-17.69091-27.19584-41.62793-50.83312-67.8927-67.04257-6.43337-3.97039-6.83696-4.4943-13.96042-18.12252l-7.33554-14.03392 7.1283 3.22076c10.94838 4.94677 28.42488 15.46517 39.65433 23.86636 49.28187 36.86966 80.6971 87.8224 92.01942 149.24739 3.21401 17.43645 3.43488 60.19913.39666 76.8-4.86784 26.59796-12.48545 49.32348-23.70217 70.7103-32.43862 61.8505-91.18412 106.8137-158.30951 121.16847-19.65765 4.20379-44.70356 6.37779-56.53043 4.90687zm-167.2508-26.99354c-.54355-.69233-4.00228-6.05878-7.68606-11.92545-3.68379-5.86666-6.82551-10.82218-6.98162-11.01226-.1561-.19008-3.38017 1.60992-7.1646 4s-7.16747 4.3456-7.51787 4.3456c-.3504 0-2.54435-3.24-4.87543-7.2-6.15671-10.45891-7.97457-17.78627-7.32774-29.5364.61144-11.10729 3.46122-18.72508 10.48525-28.02835l4.26875-5.65392-4.3637-7.4717c-14.57304-24.95247-25.45164-59.08469-28.89216-90.6507-1.7499-16.05491-.68534-48.57553 2.10295-64.24187 13.17909-74.04841 60.0463-136.95946 126.76183-170.15563 6.60755-3.28778 12.24015-5.75135 12.51689-5.47461.27673.27673-.64803 2.98785-2.05502 6.0247-1.40699 3.03685-3.34188 8.31468-4.29975 11.72849-1.61372 5.75128-2.14704 6.43263-7.26458 9.28119-36.36442 20.24136-67.55557 52.85003-86.79589 90.74039-31.34054 61.71964-31.56168 131.65244-.61398 194.17037 3.21232 6.48925 6.631 12.84068 7.59706 14.11431 1.6943 2.23371 1.94186 2.25971 6.99267.73471 18.33232-5.53513 40.28444 2.39136 52.47165 18.94653 7.75949 10.5405 7.92 9.41325-2.24118 15.73916-10.36568 6.45323-10.36518 4.24259-.004 20.25959l6.65496 10.28824-7.88838 4.98044-7.88838 4.98045-7.4171-11.45436c-4.07942-6.2999-7.56748-11.87887-7.75126-12.39769-.18378-.51883-4.74494 1.83698-10.13592 5.23513l-9.80177 6.17846 2.34045 3.83153c1.28726 2.10734 4.82338 7.70007 7.85806 12.42828l5.51758 8.59675-7.80643 4.9287c-5.7007 3.59922-8.07301 4.58915-8.7947 3.66992zm2.85016-56.72544c12.97675-8.21334 23.59556-15.3199 23.59736-15.79235.002-.47245-2.75671-2.12496-6.13004-3.67223-19.39068-8.89405-40.66035 3.1169-43.60844 24.62561-.7097 5.17784.18704 10.67364 1.6504 10.11474.49315-.18834 11.51397-7.06244 24.49072-15.27577z"/></g></g></svg>