<svg xmlns="http://www.w3.org/2000/svg" role="img" viewBox="2.41 2.91 102.05 93.80"><title>Earthdata Search logo</title><circle cx="50.049" cy="45" r="40.14" fill="#0B3D91"/><g fill="#FFF"><circle cx="47.679" cy="12.57" r=".45"/><circle cx="52.299" cy="13.17" r=".45"/><circle cx="58.359" cy="21.33" r=".45"/><circle cx="25.119" cy="63.33" r=".45"/><circle cx="26.289" cy="66.93" r=".45"/><circle cx="20.709" cy="63.87" r=".337"/><circle cx="39.009" cy="70.942" r=".338"/><circle cx="67.711" cy="64.98" r=".337"/><circle cx="76.052" cy="55.92" r=".338"/><circle cx="35.169" cy="23.962" r=".337"/><circle cx="44.349" cy="17.22" r=".337"/><circle cx="43.352" cy="16.56" r=".337"/><circle cx="42.452" cy="15.9" r=".337"/><circle cx="36.609" cy="25.703" r=".337"/><circle cx="50.131" cy="8.16" r=".337"/><circle cx="52.352" cy="17.88" r=".337"/><circle cx="48.849" cy="15.982" r=".337"/><circle cx="42.849" cy="18.563" r=".337"/><circle cx="69.309" cy="73.883" r=".337"/><circle cx="24.549" cy="65.61" r=".338"/><circle cx="48.009" cy="69.96" r=".338"/><circle cx="31.531" cy="65.34" r=".338"/><circle cx="34.449" cy="70.103" r=".338"/><circle cx="55.929" cy="67.103" r=".337"/><circle cx="67.771" cy="60.42" r=".337"/><circle cx="76.749" cy="64.522" r=".337"/><circle cx="79.809" cy="66.48" r=".337"/><circle cx="80.312" cy="61.14" r=".337"/><circle cx="35.671" cy="53.58" r=".337"/><circle cx="35.799" cy="61.32" r=".45"/><circle cx="38.499" cy="67.02" r=".45"/><circle cx="70.839" cy="61.08" r=".45"/><circle cx="82.479" cy="60.42" r=".45"/><circle cx="76.719" cy="57.96" r=".45"/><circle cx="70.839" cy="58.2" r=".45"/><path d="M58.71 12.288l1.119-.107-1.117-.063c-.035-.216-.208-.385-.426-.413l-.107-1.114-.064 1.123c-.202.045-.357.214-.382.424l-1.144.104 1.152.062c.042.193.198.344.394.38l.104 1.148.061-1.146c.207-.035.371-.194.41-.398zM39.824 24.746l1.119-.107-1.117-.063c-.034-.216-.208-.385-.426-.413l-.107-1.114-.063 1.123c-.203.045-.358.214-.383.424l-1.144.104 1.152.062c.042.193.198.344.394.38l.104 1.148.062-1.146c.207-.034.371-.194.409-.398zm41.835 32.938l1.119-.107-1.117-.063c-.034-.216-.208-.385-.426-.413l-.107-1.114-.063 1.123c-.202.045-.357.214-.382.424l-1.144.104 1.152.062c.042.193.198.344.394.38l.104 1.148.062-1.146c.205-.034.369-.193.408-.398zM36.044 74.906l1.119-.107-1.117-.063c-.035-.216-.208-.385-.426-.413l-.107-1.113-.063 1.122c-.203.045-.358.214-.383.424l-1.144.104 1.152.062c.042.193.198.345.394.38l.104 1.148.062-1.146c.206-.034.371-.194.409-.398zm42.06-8.4l1.119-.107-1.117-.063c-.034-.216-.208-.385-.426-.413l-.107-1.114-.063 1.122c-.202.045-.357.214-.382.424l-1.144.104 1.152.062c.042.193.198.344.394.38l.104 1.148.062-1.146c.205-.033.37-.193.408-.397z"/></g><path fill="#FC3D21" d="M59.568 35.385c-4.667 1.814-9.219 3.433-13.06 4.635-7.805 2.444-29.16 9.06-42.06 17.4l1.08.42c7.86-4.44 12.969-5.835 17.88-7.38 5.34-1.68 22.603-5.72 30.42-7.92 2.641-.743 5.734-1.716 9.01-2.9-.762-1.063-1.566-2.129-2.412-3.193-.283-.359-.57-.713-.858-1.062zm5.702 7.859c-1.13.763-2.077 1.372-2.74 1.756-3.84 2.22-22.561 15-26.82 17.94s-16.08 14.1-19.56 17.34l-.12 1.319c11.22-10.08 14.74-12.566 19.2-15.959 5.52-4.2 16.939-11.97 20.82-14.46 3.71-2.38 7.056-4.569 10.059-6.572-.049-.082-.098-.164-.147-.247-.226-.371-.457-.743-.692-1.117zM82.809 24.72c-5.466 3.204-14.081 7.071-22.439 10.352.2.245.399.492.597.741.934 1.176 1.815 2.36 2.644 3.545 6.57-2.42 13.779-5.668 19.499-9.599-2.725 2.582-11.734 9.315-17.227 13.068.283.461.557.922.822 1.381 8.322-5.569 13.922-9.668 17.185-12.409 4.5-3.78 14.76-12.24 18.66-23.58-6.841 8.701-14.929 13.68-19.741 16.501z"/><path fill="#FFF" d="M44.884 54.939c-.885-1.114-2.109-2.606-3.028-3.763-1.229-1.547-2.366-3.11-3.408-4.671-.34.085-.679.17-1.018.255 1.258 1.963 2.655 3.923 4.177 5.839 1.112 1.4 2.123 2.527 2.641 3.228.105.142.313.456.594.874.324-.22.651-.442.981-.666-.319-.347-.634-.712-.939-1.096zm6.46 5.864c-.727-.688-2.49-1.837-4.325-3.561-.405.278-.814.56-1.224.844 1.185 1.67 2.799 3.721 4.063 4.319 1.904.902 2.417-.72 1.486-1.602zm9.623-24.99c-10.492-13.206-23.309-20.461-28.835-16.07-4.292 3.41-2.53 13.376 3.386 23.845.306-.105.609-.208.909-.31-5.971-10.2-7.605-19.679-3.557-22.896 5.087-4.042 17.37 3.241 27.558 16.064 2.109 2.654 3.963 5.318 5.533 7.915 6.012 9.95 7.857 18.948 3.703 22.621-1.271 1.124-5.155 1.565-10.243-.725-.071.089.043.33.132.389 4.392 1.766 8.599 2.439 10.723.752 5.104-4.056 1.183-18.379-9.309-31.585z"/><path fill="#FFF" d="M15.969 37.38h6.72l5.64 9.57v-7.47c0-.84-1.065-1.935-1.44-2.1h4.65c-.285.075-1.2 1.185-1.2 2.1v10.98c0 .675.975 1.605 1.44 1.965h-6.48l-5.73-9.615v7.56c0 .75.735 1.47 1.5 2.085h-4.95c.705-.3 1.38-1.245 1.44-1.995s0-10.425 0-10.845c0-.915-.885-1.665-1.59-2.235zm61.47 15.045h8.94c-.495-.12-1.05-.705-1.35-1.485-.3-.78-5.04-13.56-5.04-13.56H76.59c-.964.694-1.997 1.426-3.1 2.197-.003.028-.006.056-.011.083-.148.9-2.808 10.534-2.97 11.01-.225.66-1.38 1.395-1.845 1.785h4.815c-.48-.54-.87-1.065-.78-1.665.09-.6.36-1.8.36-1.8h4.98c.225.6.393 1.139.48 1.65.105.615-.525 1.305-1.08 1.785zm-3.93-5.355l1.68-5.49 2.22 5.49h-3.9zm-.757-9.142c.247-.182.495-.365.742-.548h-1.305c.13.12.345.309.563.548zM38.559 50.79c.09-.6.36-1.8.36-1.8h4.98c.225.6.393 1.139.48 1.65.105.615-.525 1.305-1.08 1.785h7.871c.164-.11.327-.22.49-.329-.305-.27-.586-.675-.771-1.156-.3-.78-5.04-13.56-5.04-13.56h-7.8c.375.345 1.455 1.275 1.29 2.28-.147.9-2.808 10.534-2.97 11.01-.225.66-1.38 1.395-1.845 1.785h4.815c-.48-.54-.87-1.065-.78-1.665zm2.49-9.21l2.22 5.49h-3.9l1.68-5.49zm24.699 3.268c-1.468.978-3.017 1.999-4.649 3.065.732.355 1.315.801 1.371 1.377.104 1.082-2.07 1.605-4.035 1.38-.393-.045-.779-.148-1.147-.286-.408.263-.82.528-1.238.796-.425.273-.941.609-1.53.997v1.553c.39-.765 1.243-1.45 1.905-1.485.285-.015 1.275.9 5.355.675 1.98-.109 5.805-2.22 5.745-4.65-.036-1.436-.786-2.556-1.777-3.422zM54.519 48.6v1.582c.361-.241.717-.478 1.066-.709-.549-.382-.938-.739-1.066-.873zm9.834-4.745c-.38-.225-.765-.422-1.134-.596-1.92-.9-3.93-1.065-4.35-2.28-.296-.857.54-1.65 2.58-1.62 2.04.03 3.93 1.245 4.44 1.68v-3.87c-.15.15-.808.905-1.41.78-1.155-.24-3.12-.553-5.37-.54-2.58.015-4.8 2.009-4.875 4.53-.105 3.525 2.715 4.485 4.305 5.04.164.057.351.118.554.183 1.525-.992 2.731-1.756 3.437-2.163.474-.273 1.095-.665 1.823-1.144z"/><path d="M18.65283 88.72448v-1.26546h-5.2383v7.14338h5.41337v-1.28338h-3.95492v-1.83754h3.46969v-1.24065h-3.46969v-1.51635zm-2.58193-1.26546zm6.72157 4.57524v.51418c-.00965.4618-.14061.78023-.39012.95392-.25089.17507-.52383.26192-.82159.26192-.18747 0-.346-.05239-.47696-.15715-.13095-.10477-.19712-.2757-.19712-.51143 0-.26467.10752-.46042.3198-.58724.12683-.07444.33499-.13647.62585-.18885l.31016-.0579c.1544-.02895.27708-.06065.3653-.09374.0896-.03446.17783-.07857.26468-.13371zm-.83813-.64514l-.47007.0579c-.53348.06892-.93738.18196-1.2117.34049-.50178.29086-.75129.76093-.75129 1.4102 0 .5004.15578.88776.46732 1.1607.31154.27294.70717.40941 1.1855.40941.37358 0 .70993-.08546 1.00769-.25778.24813-.14474.46869-.32119.65892-.52796.00965.11993.02206.22607.0386.31981.01654.09374.0455.19437.08685.30051h1.50256v-.20401c-.0896-.04136-.15853-.09512-.20264-.15991-.04549-.06341-.07306-.1861-.0827-.36806-.0069-.23848-.00966-.4425-.00966-.61068v-2.42202c0-.63687-.2247-1.06972-.67408-1.29993-.4494-.22883-.9622-.34324-1.54117-.34324-.88775 0-1.51497.23159-1.88027.69752-.22883.29776-.35841.67684-.38736 1.13864h1.33301c.0317-.20402.0965-.3653.19299-.48385.13647-.16267.36668-.24262.69339-.24262.29086 0 .51142.04136.66168.12269.15025.0827.2247.23296.2247.44939 0 .17782-.09788.3074-.295.3915-.11029.04962-.29225.0896-.54727.1213zm.07168-2.20974zm6.30802.01655c-.01793-.00138-.03998-.00138-.06617-.00138-.41355 0-.74853.10752-1.00769.32395-.15852.12958-.34324.37081-.55691.72233v-.92084h-1.31785v5.28241h1.39091v-2.52403c0-.42458.05238-.7375.1599-.94152.19024-.36116.56381-.54175 1.11935-.54175.04135 0 .0965.00138.16404.00414.06893.00414.14612.00965.23297.0193V89.2042c-.06066-.00414-.10063-.00552-.11855-.00827zm.3846 1.15656h.7375v3.25188c0 .32946.07719.57346.23296.73198.23848.24813.68374.36117 1.33715.33911l.6534-.0248v-1.0325a2.17928 2.17928 0 0 1-.13785.00827c-.04686.00137-.09098.00275-.13233.00275-.28122 0-.4494-.02757-.50453-.08133-.05514-.05238-.08271-.18747-.08271-.4039V90.3525h.85742v-.98425h-.85742V87.896h-1.3661v1.47224h-.7375zm7.65067-.99804c-.26743-.11303-.5638-.16955-.88913-.16955-.29086 0-.56794.06065-.83124.18196-.26329.11993-.49488.33498-.69614.641v-2.52403h-1.37574v7.11857h1.37574v-2.859c0-.45215.09512-.80091.28397-1.0449.18886-.244.46594-.36531.83124-.36531.35152 0 .59137.12269.71682.36806.09787.17507.14612.4039.14612.68787v3.21328h1.4102v-3.10162c0-.47145-.01654-.81194-.04824-1.0201-.03309-.20814-.12131-.41078-.26743-.60791-.17094-.23297-.39012-.40528-.65617-.51832zm5.06185.051c-.2495-.1406-.53348-.2109-.85329-.2109-.69476 0-1.24892.25778-1.66385.77472-.4163.51693-.62308 1.22686-.62308 2.1284 0 .7816.21091 1.42123.63273 1.92163.42044.49902.94014.74852 1.5577.74852.37496 0 .68788-.07168.94014-.21366.25227-.14199.47697-.36944.6741-.68374v.73198h1.34127v-7.13373h-1.40055v2.5199c-.1544-.24814-.35704-.4425-.60517-.58311zm.33911 3.76331c-.20401.28949-.50039.43561-.89188.43561-.39012 0-.68236-.14612-.87397-.43836-.193-.29224-.28949-.68236-.28949-1.17035 0-.45215.09512-.83123.28397-1.13726.18886-.30465.48523-.45766.88913-.45766.26468 0 .49764.08408.69753.25226.3267.27708.48936.74026.48936 1.3854 0 .46317-.10063.8395-.30465 1.13036zm5.8352-1.1345v.51418c-.00965.4618-.14061.78023-.39012.95392-.25089.17507-.52383.26192-.82159.26192-.18747 0-.346-.05239-.47696-.15715-.13095-.10477-.19712-.2757-.19712-.51143 0-.26467.10752-.46042.31981-.58724.12682-.07444.33498-.13647.62584-.18885l.31016-.0579c.1544-.02895.27708-.06065.3653-.09374.0896-.03446.17783-.07857.26468-.13371zm-.83813-.64514l-.47007.0579c-.53348.06892-.93738.18196-1.2117.34049-.50178.29086-.75128.76093-.75128 1.4102 0 .5004.15577.88776.4673 1.1607.31155.27294.70718.40941 1.18552.40941.37357 0 .70992-.08546 1.00768-.25778.24813-.14474.46869-.32119.65892-.52796.00965.11993.02206.22607.0386.31981.01654.09374.0455.19437.08685.30051h1.50256v-.20401c-.0896-.04136-.15853-.09512-.20264-.15991-.04549-.06341-.07306-.1861-.0827-.36806-.0069-.23848-.00966-.4425-.00966-.61068v-2.42202c0-.63687-.2247-1.06972-.67408-1.29993-.4494-.22883-.9622-.34324-1.54117-.34324-.88775 0-1.51497.23159-1.88027.69752-.22883.29776-.35841.67684-.38736 1.13864h1.33301c.0317-.20402.0965-.3653.19299-.48385.13647-.16267.36668-.24262.69339-.24262.29086 0 .51142.04136.66168.12269.15025.0827.2247.23296.2247.44939 0 .17782-.09788.3074-.295.3915-.11029.04962-.29225.0896-.54727.1213zm.07168-2.20974zm2.83006 1.1731h.7375v3.25189c0 .32946.0772.57346.23296.73198.23848.24813.68374.36117 1.33715.33911l.65479-.0248v-1.0325a2.28857 2.28857 0 0 1-.13923.00827c-.04687.00137-.09098.00275-.13234.00275-.28121 0-.44939-.02757-.50453-.08133-.05514-.05238-.0827-.18747-.0827-.4039V90.3525h.8588v-.98425h-.8588V87.896h-1.3661v1.47224h-.7375zm6.76154 1.68178v.51418c-.00965.4618-.1406.78023-.39011.95392-.25089.17507-.52521.26192-.82159.26192-.18747 0-.34738-.05239-.47696-.15715-.13096-.10477-.19713-.2757-.19713-.51143 0-.26467.10753-.46042.31982-.58724.12682-.07444.33497-.13647.62584-.18885l.31016-.0579c.15439-.02895.27708-.06065.3653-.09374.0896-.03446.17645-.07857.26467-.13371zm-.83813-.64514l-.47006.0579c-.53348.06892-.93738.18196-1.2117.34049-.50178.29086-.75129.76093-.75129 1.4102 0 .5004.15577.88776.46731 1.1607.31154.27294.70717.40941 1.18551.40941.37358 0 .70993-.08546 1.00769-.25778.24813-.14474.46869-.32119.65892-.52796.00965.11993.02206.22607.0386.31981.01654.09374.04549.19437.08684.30051h1.50257v-.20401c-.0896-.04136-.15853-.09512-.20264-.15991-.0455-.06341-.07306-.1861-.08271-.36806-.0069-.23848-.00965-.4425-.00965-.61068v-2.42202c0-.63687-.2247-1.06972-.67409-1.29993-.44939-.22883-.96219-.34324-1.54116-.34324-.88775 0-1.51497.23159-1.88027.69752-.22884.29776-.35841.67684-.38736 1.13864h1.333c.03171-.20402.0965-.3653.193-.48385.13647-.16267.36668-.24262.69338-.24262.29087 0 .51143.04136.66168.12269.15026.0827.2247.23296.2247.44939 0 .17782-.09788.3074-.295.3915-.11028.04962-.29224.0896-.54727.1213zm.07169-2.20974zm7.32259 3.2188h-1.424c0 .74301.26606 1.32612.79954 1.7507.53348.42595 1.26408.63824 2.19457.63824.91119 0 1.61698-.21642 2.116-.6479.49901-.43008.74852-.97321.74852-1.62524 0-.63687-.21229-1.12348-.63962-1.45846-.27432-.21642-.68098-.39011-1.22135-.51831l-1.231-.29638c-.4742-.11304-.78437-.21091-.93049-.295-.22607-.12682-.33911-.31705-.33911-.57208 0-.27845.11441-.49488.34462-.64927.22884-.15577.53624-.23297.92084-.23297.34463 0 .63411.05928.86708.1792.34876.1806.53624.48662.56243.91533h1.43364c-.02482-.75817-.30327-1.33714-.83537-1.7369-.5321-.3984-1.1731-.59828-1.92577-.59828-.90154 0-1.58527.21091-2.0512.63411-.46456.42458-.69753.9553-.69753 1.59493 0 .70165.24124 1.21721.72234 1.54667.28397.19713.79815.3791 1.54116.54727l.75542.16955c.44387.0965.76782.20816.9746.33498.20677.1282.31016.31154.31016.54726 0 .4039-.20815.6796-.62446.82848-.22056.0772-.50591.1158-.8588.1158-.58725 0-1.00218-.14612-1.2448-.44112-.13233-.16129-.22193-.40528-.26742-.7306zm1.45018-5.15697zm5.31825 3.37733c.17645-.19988.42458-.30051.7444-.30051.29361 0 .54037.09511.73887.28397.1985.18885.30878.46593.33222.83123h-2.1477c.04549-.34324.15577-.61343.33221-.8147zm1.93128-1.1924c-.3529-.16405-.74852-.24676-1.18689-.24676-.74025 0-1.34266.244-1.80583.73199-.46318.48799-.69477 1.18964-.69477 2.10359 0 .97598.2564 1.6804.77059 2.11324.5128.43285 1.10555.64927 1.77826.64927.81332 0 1.44743-.25778 1.89957-.77058.29087-.32395.45353-.64238.48937-.9553h-1.4102c-.07444.15577-.15991.27708-.2564.36393-.17783.16128-.40942.24261-.69339.24261-.2688 0-.49764-.06617-.68787-.19988-.3143-.21229-.47972-.58449-.49902-1.11383h3.61443c.0069-.45628-.00827-.80504-.04274-1.04766-.06203-.41355-.19574-.7761-.40252-1.0904-.2302-.35427-.52107-.6148-.87259-.78022zm-1.0904-.24676zm6.2515 2.85488v.51418c-.00964.4618-.13922.78023-.3901.95392-.2509.17507-.52384.26192-.8216.26192-.18747 0-.346-.05239-.47696-.15715-.13095-.10477-.19574-.2757-.19574-.51143 0-.26467.10614-.46042.3198-.58724.12545-.07444.3336-.13647.62447-.18885l.31016-.0579c.15577-.02895.27708-.06065.3653-.09374.0896-.03446.17783-.07857.26468-.13371zm-.83812-.64514l-.47007.0579c-.53348.06892-.93738.18196-1.2117.34049-.5004.29086-.75128.76093-.75128 1.4102 0 .5004.15577.88776.4673 1.1607.31155.27294.70718.40941 1.18552.40941.37495 0 .7113-.08546 1.00768-.25778.2495-.14474.4687-.32119.65892-.52796a4.00386 4.00386 0 0 0 .0386.31981c.01654.09374.0455.19437.08823.30051h1.50256v-.20401c-.09098-.04136-.15853-.09512-.20402-.15991-.04549-.06341-.07306-.1861-.0827-.36806-.0069-.23848-.00966-.4425-.00966-.61068v-2.42202c0-.63687-.2247-1.06972-.67408-1.29993-.44802-.22883-.9622-.34324-1.54117-.34324-.88775 0-1.51497.23159-1.88027.69752-.22883.29776-.35841.67684-.38736 1.13864h1.33301c.0317-.20402.0965-.3653.19437-.48385.1351-.16267.36668-.24262.692-.24262.29087 0 .51143.04136.66169.12269.15025.0827.22607.23296.22607.44939 0 .17782-.09925.3074-.29638.3915-.11028.04962-.29224.0896-.54726.1213zm.07306-2.20974zm6.30664.01655c-.01792-.00138-.03998-.00138-.0648-.00138-.41354 0-.7499.10752-1.00768.32395-.15852.12957-.34462.37081-.55829.72233v-.92084h-1.31785v5.28241h1.39091v-2.52403c0-.42458.05376-.7375.1599-.94152.19024-.36116.56381-.54175 1.11935-.54175.04273 0 .0965.00138.16542.00414.06755.00414.14474.00965.23159.0193V89.2042c-.06066-.00414-.10063-.00552-.11855-.00827zm4.08311 2.0195H87.888c-.07857-.75266-.32808-1.27787-.74852-1.57563-.42182-.29637-.96357-.44525-1.62663-.44525-.77886 0-1.38953.25226-1.83203.75542-.4425.50453-.66444 1.21032-.66444 2.11737 0 .80505.20126 1.45983.60103 1.96299.40114.50453 1.02698.7568 1.87614.7568.84915 0 1.49153-.3019 1.92438-.90706.27157-.37495.4232-.77196.4549-1.1924h-1.4102c-.02895.27845-.11166.50453-.24675.6796-.13647.17369-.3653.26191-.68787.26191-.45628 0-.76645-.22056-.93049-.6603-.09098-.23572-.13647-.54726-.13647-.93462 0-.40666.0455-.73336.13647-.97874.17094-.4618.48937-.69338.95392-.69338.3267 0 .56657.10614.72234.31981.10614.15853.17231.33635.1985.53348zm-.93462-2.03604zm7.10203.17506c-.26743-.11303-.5638-.16955-.88913-.16955-.29086 0-.56794.06065-.83124.18196-.26329.11993-.49488.33498-.69614.641v-2.52403h-1.37574v7.11857h1.37574v-2.859c0-.45215.09512-.80091.28397-1.0449.18886-.244.46594-.36531.83124-.36531.35152 0 .59137.12269.71682.36806.0965.17507.14612.4039.14612.68787v3.21328h1.4102v-3.10162c0-.47145-.01654-.81194-.04962-1.0201-.0317-.20814-.11993-.41078-.26605-.60791-.17094-.23297-.39012-.40528-.65617-.51832z"/></svg>