<svg xmlns="http://www.w3.org/2000/svg" role="img" viewBox="-5.24 28.26 272.74 87.99"><title>ecmwf-opendata logo</title><path d="M100.13078 37.36062v7.07071h-20.1852v8.19104h18.52328v6.52911H79.9456v9.36744h20.6154v7.07071H71.5436V37.36078zm27.8845 10.19776c-.50417-.80291-1.12658-1.50625-1.87352-2.1162-.75314-.60375-1.59961-1.08301-2.54577-1.41912-.94609-.3361-1.93567-.51038-2.96899-.51038-1.89216 0-3.49799.36723-4.81748 1.10169-1.32576.72823-2.39632 1.71163-3.21787 2.94396-.8216 1.2324-1.4129 2.63294-1.79258 4.20132-.37344 1.56851-.56017 3.19302-.56017 4.87358 0 1.60582.18673 3.16815.56017 4.6806.37968 1.5187.97099 2.88183 1.79258 4.09552.8216 1.21373 1.89216 2.19093 3.21787 2.91911 1.31954.73446 2.92532 1.09547 4.81748 1.09547 2.57064 0 4.57481-.78426 6.01875-2.35282 1.45025-1.56851 2.3278-3.64124 2.65158-6.21171h8.1351c-.21162 2.3901-.76556 4.54995-1.6557 6.4794-.89629 1.92945-2.0727 3.5665-3.53543 4.92329s-3.17438 2.39631-5.1349 3.10585c-1.96689.7158-4.12658 1.07056-6.4794 1.07056-2.93153 0-5.56447-.51038-7.89848-1.52493-2.34039-1.01455-4.31333-2.41496-5.91916-4.20132-1.59962-1.78636-2.83211-3.88391-3.69095-6.29265-.85894-2.40875-1.2822-5.00423-1.2822-7.78647 0-2.85697.42326-5.50838 1.2822-7.95457.85893-2.43982 2.09133-4.57481 3.69095-6.39846 1.60583-1.81743 3.57893-3.24289 5.91916-4.28226 2.33401-1.03321 4.96695-1.54982 7.89848-1.54982 2.10377 0 4.09552.30497 5.96904.90873 1.87352.60997 3.54786 1.49381 5.02909 2.65158 1.48137 1.15771 2.7075 2.59549 3.6661 4.30712.96475 1.71784 1.57473 3.67852 1.82364 5.8943h-8.14132c-.13687-.96475-.46059-1.84866-.95852-2.65158m24.60235-10.19755l8.93801 26.28473h.1058l8.46494-26.28473h11.82606v38.22885h-7.86741V48.4953h-.1058l-9.36744 27.09417h-6.4794L148.76468 48.763h-.11201v26.82648h-7.86741V37.36062zm62.65248 38.22567l-6.4794-26.02341h-.1058l-6.36739 26.0234h-8.5148l-10.12065-38.22884h8.40901l6.04998 26.01703h.1058l6.6413-26.01703h7.8674l6.52913 26.3405h.11201l6.26159-26.3405h8.24712l-10.28237 38.22885zm47.22838-38.22567v7.07071h-18.4675v8.83222h16.00888v6.52928h-16.00889v15.79712h-8.40885V37.3611zM.21823 58.77592h18.79734v-5.0914H.21823c-.305 1.70542-.2801 3.44207 0 5.0914m62.59034 1.76867c-1.92323 10.48776-11.2161 18.26833-21.8726 18.26833-3.09964 0-6.39846-.78425-9.19934-1.98553-2.9379 1.36933-6.18063 1.98553-9.48567 1.98553-10.64964 0-19.93662-7.63716-21.84073-18.1807l13.712-.02485c1.50626 3.41083 4.97317 5.62056 8.69519 5.62056 3.99593 0 7.71811-2.71993 9.06246-6.46697 1.2884 3.84041 5.00423 6.46697 9.05625 6.46697 3.80918 0 7.33219-2.20957 8.84464-5.65163zm0-8.63623c-1.92323-10.50018-11.2161-18.26833-21.8726-18.26833-3.09964 0-6.39846.78426-9.19934 2.01661-2.9379-1.40044-6.18063-2.0166-9.48567-2.0166-10.64964 0-19.93662 7.63094-21.84073 18.18069l13.712.02485c1.50626-3.41083 4.97317-5.61418 8.69519-5.61418 3.99593 0 7.71811 2.7075 9.06246 6.44833 1.2884-3.82799 5.00423-6.44833 9.05625-6.44833 3.80918 0 7.33219 2.20335 8.84464 5.6392z" fill="#2366ab"/><path d="M27.56475 94.19348c.48778-.55691 1.17913-.8373 2.0702-.8373.82192 0 1.50559.26502 2.05866.79121.55692.5262.86418 1.2982.92563 2.316h-5.98012c.12675-.95635.43401-1.70915.92563-2.2699zm5.38096-3.32229c-.98324-.45705-2.08555-.6875-3.31077-.6875-2.05867 0-3.7371.67982-5.0276 2.03946-1.29435 1.35965-1.9396 3.31461-1.9396 5.86106 0 2.71929.71822 4.68194 2.147 5.88795 1.43262 1.20601 3.08416 1.80902 4.95463 1.80902 2.26991 0 4.03284-.71823 5.29646-2.14701.81041-.90259 1.26363-1.78981 1.36349-2.66167h-3.92914c-.2074.434-.44553.772-.71823 1.01397-.49546.44937-1.13688.67598-1.92808.67598-.74896 0-1.38653-.18436-1.9204-.55692-.87186-.59148-1.3366-1.6285-1.39037-3.10337h10.07442c.0192-1.2713-.02305-2.24302-.1229-2.919-.169-1.15224-.5454-2.16237-1.12152-3.03808-.63757-.98708-1.44798-1.713-2.42739-2.17389zm-3.03807-.6875zm18.094 5.67286h3.94067c-.21509-2.09708-.91027-3.56042-2.08555-4.39003-1.17529-.82578-2.68472-1.24058-4.53215-1.24058-2.16621 0-3.86768.70286-5.10058 2.10476-1.23674 1.40573-1.85127 3.37222-1.85127 5.89946 0 2.24303.55692 4.06741 1.6746 5.4693 1.11382 1.40574 2.85755 2.1086 5.22348 2.1086 2.36977 0 4.15575-.84113 5.36176-2.52724.75663-1.0447 1.17912-2.15085 1.2713-3.3223h-3.92914c-.0845.77585-.3111 1.40574-.69134 1.89352-.3764.48394-1.01781.72975-1.91656.72975-1.26746 0-2.13164-.61453-2.59254-1.83974-.2535-.65678-.3764-1.5248-.3764-2.60407 0-1.13303.1229-2.0433.3764-2.72696.47626-1.28667 1.36348-1.93193 2.66167-1.93193.90643 0 1.57857.29575 2.00874.89107.29959.4417.48394.93716.55692 1.48639zm-2.6079-5.67286zm27.55775.44553c-.6299-.24965-1.26747-.3764-1.91656-.3764-.97173 0-1.85511.19972-2.64631.60685-.74512.40328-1.37117 1.04086-1.87816 1.90504-.28806-.72207-.71054-1.30972-1.26746-1.77061-.69134-.49547-1.60161-.74128-2.72697-.74128-1.19065 0-2.15469.28806-2.90364.86418-.4225.32263-.87186.86802-1.35196 1.63234v-2.147h-3.7371v14.69106h3.90225v-8.8569c0-.80273.1037-1.40573.30726-1.80902.38024-.71054 1.11768-1.06774 2.21615-1.06774.94483 0 1.57856.3572 1.90503 1.06774.18052.3956.26886 1.02934.26886 1.90504v8.76087h3.87537v-8.76087c0-.66062.1037-1.22137.3111-1.68995.40328-.88339 1.13688-1.32124 2.20078-1.32124.91795 0 1.54784.34183 1.88967 1.0255.18052.3572.26886.81809.26886 1.375v9.37156h3.9445l.02689-9.27554c0-.95636-.0461-1.67843-.13443-2.17389-.14595-.74896-.42249-1.37885-.8373-1.88967-.51466-.6299-1.08694-1.07159-1.71683-1.32508zm13.16626-.05377l-2.12012 10.55836-2.29296-10.55836h-4.1327l4.1327 14.71795h3.99443l2.3352-10.71968 2.31217 10.71968h3.95602l4.26713-14.71795H94.556l-2.29296 10.6006L90.02 90.57546zm20.65966-5.3656c-.19972-.01536-.41865-.02304-.66062-.02304-2.13548 0-3.47976.44169-4.03668 1.32507-.53387.59533-.79888 1.67843-.79888 3.25316v.94484h-2.10476v2.71544h2.147v11.86808h3.83312V93.42532h2.52725v-2.71544h-2.52725V89.4693c0-.28806.09602-.55308.2919-.7912.19204-.23814.5454-.34952 1.05238-.338.50699.01537.87187.03457 1.08695.06146v-3.1341c-.34183-.02688-.61069-.04609-.8104-.0576zm1.9588 10.55068v3.64492h7.75074v-3.64492zm19.56504 5.61909c-.603.79889-1.46718 1.20217-2.59254 1.20217-1.12535 0-1.99337-.40328-2.60022-1.20217-.60684-.80273-.91027-1.9396-.91027-3.41831 0-1.47487.30343-2.61175.91027-3.41063.60685-.79505 1.47487-1.1945 2.60022-1.1945 1.12536 0 1.98954.39945 2.59254 1.1945.60301.79888.90643 1.93576.90643 3.41063 0 1.4787-.30342 2.61558-.90643 3.41831zm3.08033 2.12396c1.24057-1.53248 1.86278-3.3799 1.86278-5.54227 0-2.12396-.6222-3.9637-1.86278-5.52307-1.24442-1.55553-3.13026-2.3352-5.66134-2.3352-2.52725 0-4.41308.77967-5.6575 2.3352-1.24058 1.55936-1.86279 3.3991-1.86279 5.52307 0 2.16237.62221 4.0098 1.86279 5.54227 1.24442 1.53632 3.13025 2.30448 5.6575 2.30448 2.53108 0 4.41692-.76816 5.66134-2.30448zm-5.66134-13.3199zm19.64185 4.73956c.5185.87186.77584 1.87815.77584 3.01118 0 1.37885-.28038 2.48116-.84498 3.30693-.56075.82961-1.37884 1.24442-2.45043 1.24442-.73743 0-1.375-.20356-1.91656-.60685-.91027-.69518-1.36348-1.89735-1.36348-3.6065 0-1.07927.13443-1.97034.40328-2.6732.52235-1.32508 1.48255-1.9857 2.87676-1.9857 1.16377 0 2.00106.43785 2.51957 1.30972zm2.95741-2.76922c-1.19448-1.26747-2.65015-1.9012-4.36699-1.9012-1.17912 0-2.19693.32647-3.05343.98325-.46858.36871-.91027.8757-1.32124 1.51327v-2.17389h-3.68716v20.50987h3.80623v-7.67008c.40712.62221.81809 1.09463 1.24442 1.4211.772.5838 1.74372.8757 2.91516.8757 1.8359 0 3.33766-.67982 4.50142-2.03946 1.1676-1.35965 1.7514-3.33382 1.7514-5.92636 0-2.4581-.59916-4.3209-1.7898-5.5922zm8.30381 2.03946c.49163-.55691 1.18297-.8373 2.07404-.8373.81809 0 1.50559.26502 2.05866.79121.55308.5262.86034 1.2982.92564 2.316h-5.98397c.12675-.95635.43401-1.70915.92563-2.2699zm5.38096-3.32229c-.98324-.45705-2.08555-.6875-3.30692-.6875-2.06251 0-3.74094.67982-5.03145 2.03946-1.29051 1.35965-1.93577 3.31461-1.93577 5.86106 0 2.71929.7144 4.68194 2.14701 5.88795 1.42878 1.20601 3.08032 1.80902 4.95463 1.80902 2.26608 0 4.03284-.71823 5.29263-2.14701.8104-.90259 1.26362-1.78981 1.36348-2.66167h-3.92914c-.2074.434-.44553.772-.71439 1.01397-.49546.44937-1.14071.67598-1.93192.67598-.74896 0-1.38653-.18436-1.91656-.55692-.8757-.59148-1.3366-1.6285-1.39037-3.10337h10.07058c.0192-1.2713-.02305-2.24302-.11907-2.919-.17283-1.15224-.54539-2.16237-1.1215-3.03808-.64142-.98708-1.45183-1.713-2.43124-2.17389zm-3.03807-.6875zm21.19354 1.23674c-.96789-.7989-2.2123-1.1945-3.73326-1.1945-1.21754 0-2.21998.29575-3.01119.89107-.4417.33031-.91027.8757-1.40573 1.63234v-2.147h-3.71406v14.69106h3.83696v-7.96582c0-.91027.12291-1.65539.3764-2.24303.48778-1.10615 1.38269-1.65923 2.68856-1.65923 1.06006 0 1.78213.3764 2.15853 1.13304.2074.4148.3111 1.01013.3111 1.78213v8.9529h3.9445v-9.90926c0-1.84742-.48393-3.16866-1.45181-3.9637zm-5.15052-1.23674zm17.95574.62989c-.69134-.39176-1.48255-.58764-2.37361-.58764-1.93576 0-3.4836.71823-4.63969 2.15853-1.15608 1.4403-1.73604 3.4183-1.73604 5.9302 0 2.17773.58764 3.95986 1.76293 5.35407 1.17528 1.39037 2.62326 2.08555 4.3401 2.08555 1.0447 0 1.91656-.19972 2.61943-.59532.70286-.3956 1.32891-1.02934 1.87815-1.90504v2.03947h3.74094V85.41726h-3.90225v7.02098c-.43402-.69135-.99477-1.2329-1.68996-1.62466zm.94484 10.48538c-.5646.80657-1.39421 1.2137-2.48116 1.2137-1.09078 0-1.90503-.40713-2.4389-1.22138-.53772-.81425-.80273-1.9012-.80273-3.26084 0-1.25978.26117-2.316.78736-3.16866.53003-.84881 1.3558-1.27514 2.48116-1.27514.73743 0 1.38269.23429 1.94344.70286.91027.772 1.36349 2.06251 1.36349 3.86 0 1.29052-.28422 2.33905-.85266 3.14946zm16.2581-3.16098v1.43262c-.02688 1.28667-.38791 2.1739-1.08694 2.65784-.69518.48778-1.4595.72975-2.28912.72975-.52235 0-.96404-.14595-1.32891-.43785-.36488-.2919-.5454-.76816-.5454-1.42494 0-.73743.29574-1.28283.89107-1.63618.34951-.2074.92947-.38024 1.73988-.52619l.86418-.16131c.43401-.08066.772-.169 1.02165-.26118.24581-.09602.49163-.21892.7336-.37256zm-2.3352-1.79749l-1.30971.16131c-1.4864.19204-2.61175.50699-3.37607.94868-1.3942.81041-2.09323 2.12012-2.09323 3.92914 0 1.39421.434 2.47348 1.30203 3.23395.87186.76048 1.97033 1.14072 3.30309 1.14072 1.0447 0 1.98185-.23813 2.80762-.71823.69519-.40328 1.30587-.8949 1.8359-1.47102.02689.33414.0653.62989.10755.89106.04609.26118.12674.54155.2458.8373h4.18648v-.56844c-.2535-.11523-.4417-.26502-.56844-.44554-.12674-.17667-.20356-.5185-.23045-1.02549-.01536-.66446-.02688-1.2329-.02688-1.70147v-6.74829c0-1.77445-.62605-2.98046-1.87815-3.62187-1.24826-.63758-2.68088-.95636-4.29018-.95636-2.47731 0-4.22488.64525-5.24269 1.94344-.63757.82961-.9986 1.88583-1.07926 3.1725h3.71405c.08834-.56844.26886-1.01781.54155-1.34812.3764-.45321 1.02166-.67598 1.92808-.67598.81041 0 1.42494.11522 1.84359.34183.41865.23045.62989.6491.62989 1.2521 0 .49547-.27654.8565-.82577 1.09079-.30343.13827-.81425.24965-1.5248.33799zm.20356-6.1568zm7.88516 3.26852h2.051v9.06045c0 .91795.21508 1.59777.64909 2.03946.66446.69134 1.90887 1.00629 3.72557.94484l1.82438-.06914v-2.87676a6.24969 6.24969 0 0 1-.38408.02305c-.13058.00384-.25349.00768-.37255.00768-.78353 0-1.2521-.07682-1.40574-.2266-.14979-.14596-.2266-.52236-.2266-1.12536V93.4522h2.38897v-2.74233h-2.38897V86.6079h-3.81008v4.10198h-2.05099zm18.83529 4.68577v1.43262c-.02689 1.28667-.38792 2.1739-1.08695 2.65784-.69518.48778-1.4595.72975-2.28912.72975-.52234 0-.96404-.14595-1.32891-.43785-.36488-.2919-.5454-.76816-.5454-1.42494 0-.73743.29575-1.28283.89107-1.63618.34951-.2074.92947-.38024 1.73988-.52619l.86418-.16131c.43401-.08066.772-.169 1.02166-.26118.2458-.09602.49162-.21892.73359-.37256zm-2.3352-1.79749l-1.30972.16131c-1.4864.19204-2.61175.50699-3.37606.94868-1.39421.81041-2.09324 2.12012-2.09324 3.92914 0 1.39421.43401 2.47348 1.30203 3.23395.87186.76048 1.97033 1.14072 3.30309 1.14072 1.0447 0 1.98185-.23813 2.80762-.71823.69519-.40328 1.30588-.8949 1.8359-1.47102.0269.33414.0653.62989.10755.89106.04609.26118.12674.54155.24581.8373h4.18647v-.56844c-.2535-.11523-.44169-.26502-.56844-.44554-.12674-.17667-.20356-.5185-.23044-1.02549-.0192-.66446-.02689-1.2329-.02689-1.70147v-6.74829c0-1.77445-.62605-2.98046-1.87815-3.62187-1.24826-.63758-2.68088-.95636-4.29402-.95636-2.47347 0-4.22104.64525-5.23885 1.94344-.63757.82961-.9986 1.88583-1.07926 3.1725h3.71405c.08834-.56844.26886-1.01781.54155-1.34812.3764-.45321 1.02166-.67598 1.92809-.67598.8104 0 1.42493.11522 1.84358.34183.41865.23045.6299.6491.6299 1.2521 0 .49547-.27655.8565-.82578 1.09079-.30342.13827-.81425.24965-1.5248.33799zm.20355-6.1568z"/></svg>