<svg xmlns="http://www.w3.org/2000/svg" role="img" xmlns:xlink="http://www.w3.org/1999/xlink" viewBox="-1.44 -13.94 230.88 118.63"><title>EcoStruxure logo</title><g><g><g><path fill="#009E4D" d="M430.72397,126.81207c-4.06171,1.8746-6.48438,2.60234-8.88943,2.60234 c-2.52463,0-4.14182-0.93945-4.14182-2.39218c0-4.38361,14.30197-3.14961,14.30197-13.28868 c0-5.59062-4.51172-8.83907-10.77969-8.83907c-4.91641,0-7.33789,1.32227-10.12656,2.81993v6.27148 c4.02225-2.77071,6.48398-3.74962,9.5867-3.74962c2.69064,0,4.14182,0.97891,4.14182,2.68477 c0,4.77344-14.30197,3.02461-14.30197,13.46484c0,5.03438,4.18439,8.36797,10.70001,8.36797 c3.14493,0,5.98242-0.68593,9.50897-2.26367V126.81207" transform="matrix(1.25 0 0 -1.25 -509.963 159.04)"/></g><g><path fill="#009E4D" d="M450.7482,106.22652c-2.384-0.89844-4.39999-1.32733-6.41135-1.32733 c-6.66092,0-10.96716,4.03358-10.96716,10.1703c0,6.02461,4.47342,10.28008,10.71951,10.28008 c1.92969,0,4.39688-0.51328,6.36914-1.27734v-4.61171c-1.56171,0.86211-3.36954,1.33476-4.84921,1.33476 c-3.57538,0-5.875-2.2332-5.875-5.68086c0-3.4957,2.26093-5.79648,5.66797-5.79648c1.4379,0,2.71564,0.34218,5.3461,1.36601 V106.22652" transform="matrix(1.25 0 0 -1.25 -509.963 159.04)"/></g><g><path fill="#009E4D" d="M502.6806,117.32925c0.24454,2.7375,1.77344,4.31953,4.11563,4.31953 c2.30157,0,3.86172-1.62695,4.10861-4.31953H502.6806z M506.38452,125.3437c-5.84454,0-10.00626-4.29218-10.00626-10.33163 c0-6.08438,4.32812-10.11288,10.99689-10.11288c1.47577,0,5.04843,0,8.45236,2.61835v3.85118 c-2.78754-2.06445-4.63205-2.77617-7.01175-2.77617c-3.75702,0-6.05389,2.02109-6.26328,5.47108h13.61096 C516.44543,121.26402,511.90015,125.3437,506.38452,125.3437" transform="matrix(1.25 0 0 -1.25 -509.963 159.04)"/></g><g><path fill="#009E4D" d="M518.46576,105.25777h5.95081v19.72227h-5.95081V105.25777z" transform="matrix(1.25 0 0 -1.25 -509.963 159.04)"/></g><g><path fill="#009E4D" d="M540.97437,110.64879c-1.23907-1.16016-2.26874-1.625-3.53906-1.625 c-2.80237,0-4.57501,2.39726-4.57501,5.99063c0,3.9375,1.77264,6.20703,4.77191,6.20703 c1.07343,0,2.47418-0.51329,3.34216-1.15742V110.64879z M540.97437,134.3898v-10.27461 c-1.60547,0.80821-3.20935,1.23438-4.94141,1.23438c-5.42657,0-9.1828-4.1703-9.1828-10.20586 c0-5.90585,3.75623-10.24922,8.84845-10.24922c2.01874,0,3.57965,0.55,5.27576,1.95665v-1.58672h5.95081v29.12538H540.97437" transform="matrix(1.25 0 0 -1.25 -509.963 159.04)"/></g><g><path fill="#009E4D" d="M555.73218,117.32925c0.24841,2.7375,1.76874,4.31953,4.10626,4.31953 c2.30701,0,3.88281-1.62695,4.12891-4.31953H555.73218z M559.43298,125.3437c-5.84302,0-9.99609-4.29218-9.99609-10.33163 c0-6.08438,4.32574-10.11288,10.98669-10.11288c1.47498,0,5.05469,0,8.46643,2.61835v3.85118 c-2.79065-2.06445-4.6391-2.77617-7.02972-2.77617c-3.73669,0-6.04297,2.02109-6.25153,5.47108h13.60309 C569.49548,121.26402,564.9447,125.3437,559.43298,125.3437" transform="matrix(1.25 0 0 -1.25 -509.963 159.04)"/></g><g><g transform="matrix(1.25 0 0 -1.25 -509.963 159.04)"><defs><path id="a" d="M410.515 134.754L410.515 80.222 588.187 80.222 588.187 134.754"/></defs><clipPath id="b"><use overflow="visible" xlink:href="#a"/></clipPath><g clip-path="url(#b)"><g><path fill="#009E4D" d="M578.12122,119.33316h0.08752c1.76562,4.10429,3.74298,6.02892,6.03674,6.02892 c1.18982,0,2.21558-0.4711,3.94141-1.79883l-1.63751-5.46797c-1.5625,1.02539-2.58905,1.4539-3.53284,1.4539 c-2.18359,0-3.57965-2.13985-4.89532-5.75742v-8.50743h-5.95856v19.71642h5.95856V119.33316"/></g><g><path fill="#009E4D" d="M524.6947,133.27652c0.55859-1.53203-0.4469-3.66992-2.23907-4.76991 c-1.79999-1.09845-3.7016-0.74962-4.25549,0.78281c-0.56561,1.53476,0.43518,3.67422,2.23285,4.76836 C522.22827,135.16246,524.1322,134.81245,524.6947,133.27652"/></g></g></g></g><g><path fill="#009E4D" d="M472.181,117.8105c0,5.34492-3.49295,7.5332-6.94141,7.5332c-2.34375,0-4.27069-1.0289-5.9949-3.29726 h-0.08167v12.34335h-5.95624v-29.0746h5.95624v12.4953c1.39377,2.0961,2.58322,2.99258,3.97891,2.99258 c1.85275,0,3.08398-1.36992,3.08398-4.31601v-6.92813c1.99765,1.06758,4.02814,1.72226,5.95508,1.9664V117.8105" transform="matrix(1.25 0 0 -1.25 -509.963 159.04)"/></g><g><path fill="#009E4D" d="M487.12201,125.34956c-2.42654,0-4.2793-0.9371-6.17499-3.19218v2.82266h-5.95428V111.5773 c2.06326-0.21367,4.69492-1.19687,5.95428-2.82187v9.20976c1.56561,2.44258,2.67618,3.25626,4.15704,3.25626 c1.68671,0,2.96796-1.15742,2.96796-3.93829v-11.97343h5.95624v12.48555 C494.02826,123.60347,490.08295,125.34956,487.12201,125.34956" transform="matrix(1.25 0 0 -1.25 -509.963 159.04)"/></g><g><path fill="#009E4D" d="M497.31732,99.64566h-6.92029v-5.11171h6.67578v-2.19298h-6.67578v-5.27344h7.12656v-2.19063h-9.44687 v16.95703h9.2406V99.64566" transform="matrix(1.25 0 0 -1.25 -509.963 159.04)"/></g><g><path fill="#009E4D" d="M502.96811,84.86676h2.11954v16.97343h-2.11954V84.86676z" transform="matrix(1.25 0 0 -1.25 -509.963 159.04)"/></g><g><path fill="#009E4D" d="M515.58142,94.373c1.50232,0,2.43433-1.07578,2.50391-2.76718h-5.39771 C512.97986,93.37222,513.95795,94.373,515.58142,94.373z M512.64935,90.13394h7.55078c0,4.13907-1.81952,6.13672-4.66638,6.13672 c-2.95624,0-5.00705-2.27187-5.00705-5.65781c0-3.0961,1.85391-5.9547,5.18985-5.9547c1.81952,0,2.9953,0.42032,4.29767,1.31798 v2.14453c-1.25861-0.85469-2.47815-1.34923-3.76172-1.34923C514.19934,86.77144,512.97986,87.91519,512.64935,90.13394" transform="matrix(1.25 0 0 -1.25 -509.963 159.04)"/></g><g><path fill="#009E4D" d="M534.03918,93.12067c-1.21875,0.86641-2.03125,1.12265-2.96014,1.12265 c-1.93982,0-3.28357-1.54765-3.28357-3.81406c0-2.30859,1.42969-3.69844,3.63904-3.69844 c0.90784,0,1.77344,0.24374,2.84143,0.74141v-2.17345c-0.71332-0.34999-2.07343-0.64062-3.1969-0.64062 c-3.20935,0-5.4375,2.29454-5.4375,5.57422c0,3.70001,2.03595,6.03828,5.29218,6.03828 c1.24457,0,2.08051-0.30078,3.10547-0.76953V93.12067" transform="matrix(1.25 0 0 -1.25 -509.963 159.04)"/></g><g><path fill="#009E4D" d="M543.69623,96.05659h3.40314v-1.98593h-3.40314V88.3316c0-1.31407,0.91565-1.69453,1.53284-1.69453 c0.76794,0,1.55859,0.2789,2.41718,0.83047v-2.0672c-0.74451-0.42578-1.88672-0.74219-2.58594-0.74219 c-2.30859,0-3.47498,1.48907-3.47498,3.50626v5.90625h-1.86957v0.24609l3.98047,4.05078V96.05659" transform="matrix(1.25 0 0 -1.25 -509.963 159.04)"/></g><g><path fill="#009E4D" d="M555.20404,96.05659v-2.58905h0.04376c1.08044,1.98203,2.10779,2.80312,3.10858,2.80312 c0.86328,0,1.67035-0.42265,2.55939-1.2953l-1.12421-1.94141c-0.64374,0.66249-1.47815,1.1203-1.98285,1.1203 c-1.46014,0-2.60468-1.5414-2.60468-3.4539v-5.83359h-2.11719v11.18983H555.20404" transform="matrix(1.25 0 0 -1.25 -509.963 159.04)"/></g><g><path fill="#009E4D" d="M582.63452,93.12067c-1.22424,0.86641-2.03827,1.12265-2.97186,1.12265 c-1.93518,0-3.26801-1.54765-3.26801-3.81406c0-2.30859,1.43127-3.69844,3.62659-3.69844 c0.90936,0,1.76953,0.24374,2.85388,0.74141v-2.17345c-0.72968-0.34999-2.09216-0.64062-3.21246-0.64062 c-3.20551,0-5.4422,2.29454-5.4422,5.57422c0,3.70001,2.04456,6.03828,5.30157,6.03828 c1.24762,0,2.07501-0.30078,3.11249-0.76953V93.12067" transform="matrix(1.25 0 0 -1.25 -509.963 159.04)"/></g><g><path fill="#009E4D" d="M566.53375,84.86676h2.11951v11.18906h-2.11951V84.86676z" transform="matrix(1.25 0 0 -1.25 -509.963 159.04)"/></g><g><g transform="matrix(1.25 0 0 -1.25 -509.963 159.04)"><defs><path id="c" d="M410.515 134.754L410.515 80.222 588.187 80.222 588.187 134.754"/></defs><clipPath id="d"><use overflow="visible" xlink:href="#c"/></clipPath><g clip-path="url(#d)"><g><path fill="#009E4D" d="M568.72437,100.07613c0.20703-0.54062-0.15466-1.30389-0.79138-1.69296 c-0.64301-0.38907-1.3219-0.26485-1.51642,0.27657c-0.19299,0.5453,0.15778,1.30391,0.8031,1.69453 C567.85559,100.748,568.53137,100.62222,568.72437,100.07613"/></g><g><path fill="#009E4D" d="M473.85443,99.17223c-0.37381,0-0.53125-0.06406-0.68396-0.24219 c-0.06018-0.06796-0.08398-0.13828-0.10547-0.2789l-1.90118-7.49376c-0.44611-2.62813-3.55078-5.25313-7.59882-5.25313 h-5.62695l0.97617,3.85001h3.61484c0.36914,0,0.65741,0.14297,0.89923,0.42343 c0.08905,0.1086,0.20428,0.27892,0.22031,0.45235l1.5,6.54845c0.44257,2.63046,3.11484,5.53516,7.16132,5.53516h5.76328 l-0.73709-3.54141H473.85443z M475.15289,94.60426l0.64294,2.42499h5.85471c0.72226,3.51642,0.1539,6.77266-1.89844,8.90625 c-4.15314,4.31836-12.84259,2.85118-19.31564-3.58905c-1.01132-0.99922-1.86484-2.08047-2.64258-3.18594h3.52502 l-0.81995-2.42891h-4.2113c-0.40274-0.76562-0.78049-1.52577-1.06876-2.29688h4.99374l-0.79962-2.42969h-4.90701 c-0.83908-3.71172-0.30392-7.17421,1.80704-9.37343c4.10193-4.26329,12.76404-2.76485,19.23398,3.67343 c1.13281,1.12109,2.06796,2.3289,2.91287,3.56953h-4.5285l0.69025,2.425h5.29413 c0.38828,0.77109,0.74493,1.53358,1.02423,2.30469H475.15289"/></g></g></g></g></g></g><g><path d="M58.14404 85.78516h-9.14062v3.66797h8.39062v3h-8.39062v4.44141h9.5625V100H45.47607V82.72656h12.66797V85.78516zM68.74951 91.80859c-.0625-.47656-.22314-.90625-.48145-1.28906-.37598-.51562-.95947-.77344-1.75049-.77344-1.12793 0-1.89941.55859-2.31396 1.67578-.21973.59277-.3291 1.37891-.3291 2.36133 0 .93555.10938 1.6875.3291 2.25586.39893 1.0625 1.15088 1.59375 2.25537 1.59375.7832 0 1.33936-.21094 1.66797-.63281s.52881-.96875.59912-1.64062h3.41016c-.07812 1.01562-.4458 1.97656-1.10254 2.88281-1.04834 1.46094-2.60059 2.19141-4.65723 2.19141s-3.56982-.60938-4.53955-1.82812-1.45459-2.79883-1.45459-4.74023c0-2.19141.53564-3.89648 1.60693-5.11523s2.54932-1.82812 4.43408-1.82812c1.60352 0 2.91504.35938 3.93555 1.07812s1.62451 1.98828 1.8125 3.80859H68.74951zM85.10889 98.4375c-1.07812 1.33105-2.71484 1.99609-4.91016 1.99609s-3.83203-.66504-4.91016-1.99609-1.61719-2.93359-1.61719-4.80664c0-1.8418.53906-3.43848 1.61719-4.78906 1.07812-1.34961 2.71484-2.02539 4.91016-2.02539s3.83203.67578 4.91016 2.02539c1.07812 1.35059 1.61719 2.94727 1.61719 4.78906C86.72607 95.50391 86.18701 97.10645 85.10889 98.4375zM82.43701 96.5918c.52344-.69434.78516-1.68164.78516-2.96094s-.26172-2.26465-.78516-2.95508c-.52344-.68945-1.27344-1.03516-2.25-1.03516s-1.72852.3457-2.25586 1.03516c-.52734.69043-.79102 1.67578-.79102 2.95508s.26367 2.2666.79102 2.96094 1.2793 1.04102 2.25586 1.04102S81.91357 97.28613 82.43701 96.5918zM91.98779 94.66797c.11182.78906.33105 1.37891.6582 1.76953.59814.71094 1.62305 1.06641 3.07568 1.06641.86914 0 1.57422-.09375 2.11719-.28125 1.0293-.35938 1.54297-1.02734 1.54297-2.00391 0-.57031-.25195-1.01172-.75586-1.32422-.50391-.30469-1.30273-.57422-2.39844-.80859l-1.86963-.41016c-1.83789-.40625-3.10059-.84766-3.78809-1.32422-1.16406-.79688-1.74609-2.04297-1.74609-3.73828 0-1.54688.56934-2.83203 1.70801-3.85547 1.13916-1.02344 2.81152-1.53516 5.01807-1.53516 1.84277 0 3.41406.48242 4.71582 1.44727 1.30078.96484 1.9834 2.36523 2.0459 4.20117h-3.46875c-.06348-1.03906-.52832-1.77734-1.39258-2.21484-.57715-.28906-1.29395-.43359-2.15039-.43359-.95361 0-1.71436.1875-2.2832.5625s-.85303.89844-.85303 1.57031c0 .61719.28027 1.07812.84082 1.38281.36035.20312 1.12549.44141 2.29541.71484l3.03125.71484c1.32812.3125 2.32422.73047 2.9873 1.25391 1.03027.8125 1.54395 1.98828 1.54395 3.52734 0 1.57812-.60938 2.88867-1.83008 3.93164-1.21973 1.04297-2.94336 1.56445-5.16992 1.56445-2.27393 0-4.0625-.51367-5.36572-1.54102-1.30273-1.02734-1.9541-2.43945-1.9541-4.23633H91.98779zM103.81152 89.72266v-2.37891h1.78125v-3.5625h3.30469v3.5625h2.07422v2.37891h-2.07422v6.75c0 .52344.06641.84961.19922.97852s.53906.19336 1.21875.19336c.10156 0 .20898-.00195.32227-.00586s.22461-.00977.33398-.01758v2.49609l-1.58203.05859c-1.57812.05469-2.65625-.21875-3.23438-.82031-.375-.38281-.5625-.97266-.5625-1.76953v-7.86328H103.81152zM120.21191 86.92773c.04297.00391.13867.00977.28711.01758v3.42188c-.21094-.02344-.39844-.03906-.5625-.04688s-.29688-.01172-.39844-.01172c-1.34375 0-2.24609.4375-2.70703 1.3125-.25781.49219-.38672 1.25-.38672 2.27344V100h-3.36328V87.22656h3.1875v2.22656c.51562-.85156.96484-1.43359 1.34766-1.74609.625-.52344 1.4375-.78516 2.4375-.78516C120.11621 86.92188 120.16895 86.92383 120.21191 86.92773zM125.78418 87.22656v7.69922c0 .72656.08594 1.27344.25781 1.64062.30273.64844.89648.97266 1.7832.97266 1.13477 0 1.91211-.46094 2.33203-1.38281.2168-.5.32617-1.16016.32617-1.98047v-6.94922h3.38672V100h-3.24609v-1.80469c-.03125.03906-.10938.15625-.23242.35156-.125.19531-.27344.36719-.44531.51562-.52148.46875-1.02539.78906-1.51367.96094-.48633.17188-1.05664.25781-1.71094.25781-1.88477 0-3.15625-.67969-3.81055-2.03906-.36523-.75-.54883-1.85547-.54883-3.31641v-7.69922H125.78418zM135.84473 100l4.35938-6.46875L136.03223 87.25h4.08984l2.13477 3.7002 2.08398-3.7002h3.97266l-4.19531 6.22266L148.47754 100h-4.16016l-2.19727-3.83984L139.89941 100H135.84473zM153.79199 87.22656v7.69922c0 .72656.08594 1.27344.25781 1.64062.30273.64844.89648.97266 1.7832.97266 1.13477 0 1.91211-.46094 2.33203-1.38281.2168-.5.32617-1.16016.32617-1.98047v-6.94922h3.38672V100h-3.24609v-1.80469c-.03125.03906-.10938.15625-.23242.35156-.125.19531-.27344.36719-.44531.51562-.52148.46875-1.02539.78906-1.51367.96094-.48633.17188-1.05664.25781-1.71094.25781-1.88477 0-3.15625-.67969-3.81055-2.03906-.36523-.75-.54883-1.85547-.54883-3.31641v-7.69922H153.79199zM172.21973 86.92773c.04297.00391.13867.00977.28711.01758v3.42188c-.21094-.02344-.39844-.03906-.5625-.04688s-.29688-.01172-.39844-.01172c-1.34375 0-2.24609.4375-2.70703 1.3125-.25781.49219-.38672 1.25-.38672 2.27344V100h-3.36328V87.22656h3.1875v2.22656c.51562-.85156.96484-1.43359 1.34766-1.74609.625-.52344 1.4375-.78516 2.4375-.78516C172.12402 86.92188 172.17676 86.92383 172.21973 86.92773zM182.78809 87.48535c.89062.39941 1.62695 1.0293 2.20703 1.88965.52344.75879.86328 1.63867 1.01758 2.64062.08984.58691.12695 1.43164.10938 2.53516h-9.30273c.05273 1.28125.49805 2.17969 1.33594 2.69531.50977.32031 1.125.48047 1.8418.48047.76172 0 1.37891-.19531 1.85352-.58594.25977-.21094.49023-.50391.6875-.87891h3.41016c-.08984.75781-.50195 1.52734-1.23828 2.30859-1.14453 1.24219-2.74609 1.86328-4.80469 1.86328-1.70117 0-3.19922-.52344-4.5-1.57129-1.29883-1.04785-1.94922-2.75293-1.94922-5.11426 0-2.21289.58789-3.90918 1.75977-5.08984 1.17383-1.18066 2.69531-1.77148 4.56836-1.77148C180.89551 86.88672 181.89746 87.08594 182.78809 87.48535zM177.79199 90.37012c-.47266.4873-.76953 1.14551-.89062 1.97754h5.75391c-.06055-.88672-.35742-1.55957-.88867-2.01855-.5332-.45898-1.19336-.68848-1.98047-.68848C178.92871 89.64062 178.2627 89.88379 177.79199 90.37012z"/></g></svg>