<svg xmlns="http://www.w3.org/2000/svg" role="img" viewBox="-6.16 -6.16 320.32 98.07"><title>ECOSTRESS logo</title><g fill="none" fill-rule="evenodd" transform="translate(-8.042 -6.948)"><path fill="#263976" d="M69.136 35.771c0 15.811-13.013 28.824-28.823 28.824-15.811 0-28.824-13.013-28.824-28.824 0-15.81 13.013-28.823 28.824-28.823 15.81 0 28.823 13.013 28.823 28.823"/><path fill="#fffffe" d="M40.71 9.566a.237.237 0 0 1-.234.236.235.235 0 0 1 0-.47c.128 0 .234.105.234.234m1.626 3.559a.291.291 0 0 1-.289.289.29.29 0 0 1-.289-.289.29.29 0 0 1 .289-.289c.158 0 .289.131.289.289m4.225 5.814a.29.29 0 0 1-.289.289.29.29 0 0 1 0-.578.29.29 0 0 1 .289.289m-6.79-3.81a.236.236 0 0 1-.235.235.236.236 0 0 1-.234-.235c0-.129.106-.235.234-.235.129 0 .235.106.235.235m2.528 1.337a.237.237 0 0 1-.235.235.236.236 0 0 1-.234-.235c0-.129.106-.236.234-.236.129 0 .235.107.235.236m-3.286-3.739c0 .159-.131.29-.289.29a.29.29 0 0 1 0-.579.29.29 0 0 1 .289.289m-3.829 2.33a.236.236 0 0 1-.235.235.236.236 0 0 1-.235-.235c0-.129.106-.235.235-.235s.235.106.235.235m.686.47a.237.237 0 0 1-.235.235.237.237 0 0 1-.235-.235.235.235 0 0 1 .47 0m.687.469a.235.235 0 0 1-.47 0 .235.235 0 0 1 .47 0m-1.048.903a.238.238 0 0 1-.235.236.235.235 0 1 1 .235-.236m-5.454 3.829a.236.236 0 0 1-.235.235.236.236 0 0 1-.235-.235c0-.128.106-.235.235-.235s.235.107.235.235m1.011 1.228a.237.237 0 0 1-.235.235.237.237 0 0 1-.235-.235c0-.129.106-.235.235-.235s.235.106.235.235m-.795 19.829a.236.236 0 0 1-.234.235.236.236 0 0 1-.235-.235.235.235 0 0 1 .469 0m.145 5.473a.291.291 0 0 1-.289.289.29.29 0 0 1-.289-.289.29.29 0 0 1 .289-.289.29.29 0 0 1 .289.289m-3.106 2.799a.237.237 0 0 1-.235.235.237.237 0 0 1-.235-.235c0-.129.106-.235.235-.235s.235.106.235.235m-3.721 1.138a.29.29 0 0 1-.578 0c0-.16.131-.29.289-.29a.29.29 0 0 1 .289.29m-.758-2.529a.291.291 0 0 1-.289.289.29.29 0 0 1-.289-.289.29.29 0 0 1 .289-.289c.158 0 .289.131.289.289m-.434 1.607a.236.236 0 0 1-.234.235.236.236 0 0 1-.235-.235.235.235 0 0 1 .469 0m-2.781-1.336a.236.236 0 0 1-.235.235.236.236 0 0 1-.235-.235c0-.128.106-.235.235-.235s.235.107.235.235m9.716 4.514a.236.236 0 0 1-.234.235.236.236 0 0 1-.235-.235c0-.128.106-.234.235-.234.128 0 .234.106.234.234m2.926-2.148a.291.291 0 0 1-.289.289.291.291 0 0 1-.289-.289.29.29 0 0 1 .289-.289.29.29 0 0 1 .289.289m.325 2.763a.237.237 0 0 1-.235.235.237.237 0 0 1-.235-.235.235.235 0 0 1 .47 0m12.028-2.636a.235.235 0 1 1-.235-.235c.129 0 .235.106.235.235m-5.598 1.986a.235.235 0 0 1-.47 0 .235.235 0 0 1 .47 0m15.061 2.853a.236.236 0 0 1-.235.235.236.236 0 0 1-.234-.235c0-.128.106-.234.234-.234.129 0 .235.106.235.234m1.228-11.107a.29.29 0 0 1-.288.289.29.29 0 0 1-.289-.289.29.29 0 0 1 .289-.289.29.29 0 0 1 .288.289m-2.311 1.571c0 .13-.106.236-.235.236a.236.236 0 0 1-.235-.236c0-.128.106-.234.235-.234s.235.106.235.234m2.276.452c0 .159-.131.29-.29.29a.291.291 0 0 1-.289-.29c0-.158.131-.289.289-.289.159 0 .29.131.29.289m-2.276 2.799a.236.236 0 0 1-.235.235.236.236 0 0 1-.235-.235.235.235 0 0 1 .47 0m5.887-6.392a.235.235 0 0 1-.469 0c0-.129.106-.236.235-.236.128 0 .234.107.234.236m.578 1.426a.29.29 0 0 1-.289.289.29.29 0 0 1-.289-.289c0-.159.131-.29.289-.29a.29.29 0 0 1 .289.29m4.045 1.698a.29.29 0 0 1-.578 0 .29.29 0 0 1 .578 0m-4.117 3.016a.237.237 0 0 1-.235.235.236.236 0 0 1-.234-.235c0-.129.106-.235.234-.235.129 0 .235.106.235.235m2.6-2.457a.236.236 0 0 1-.234.235.236.236 0 0 1-.235-.235.235.235 0 0 1 .469 0m-.469 3.793a.236.236 0 0 1-.235.235.236.236 0 0 1-.235-.235c0-.129.106-.235.235-.235s.235.106.235.235M45.769 12.455a.414.414 0 0 1 .309-.294l.082-.618.121.623c.145.042.257.16.29.309l.626.088-.632.111a.412.412 0 0 1-.299.29l-.106.636-.108-.641a.413.413 0 0 1-.285-.298l-.604-.098.606-.108M29.575 56.762a.411.411 0 0 1 .308-.294l.082-.618.122.625a.41.41 0 0 1 .289.306l.626.089-.631.111a.412.412 0 0 1-.3.289l-.106.637-.107-.64a.415.415 0 0 1-.285-.298l-.604-.099.606-.108m29.782-5.711a.41.41 0 0 1 .308-.295l.082-.619.122.625a.413.413 0 0 1 .289.307l.626.089-.632.111a.414.414 0 0 1-.299.29l-.106.636-.107-.641a.416.416 0 0 1-.286-.298l-.604-.098.607-.107m2.358-6.371a.411.411 0 0 1 .307-.295l.082-.618.122.624c.145.042.257.16.29.308l.626.088-.632.111a.416.416 0 0 1-.299.29l-.107.636-.106-.64a.414.414 0 0 1-.286-.298l-.604-.099.607-.107m-29.25-23.532a.413.413 0 0 1 .307-.294l.083-.618.122.624c.144.041.256.16.289.308l.626.089-.632.11a.412.412 0 0 1-.299.29l-.106.636-.107-.641a.413.413 0 0 1-.286-.297l-.604-.098.607-.109m-1.91 13.412c2.129 3.719 4.611 6.442 6.61 9.03 1.775 2.295 5.233 3.445 4.015 4.535-1.373 1.227-4.696-4.19-4.696-4.19-2.209-2.664-4.322-5.489-6.478-9.184l.549-.191"/><path fill="#d8262c" d="M8.042 44.322c10.289-6.758 28.245-11.119 43.034-16.991 11.236-4.46 21.227-10.061 26.598-17.77C64.063 37.286 26.156 34.004 8.783 44.58l-.741-.258"/><path fill="#fffffe" d="M31.961 30.574h5.153l3.694 9.303 1.232 1.236h-6.708l1.231-1.236-.437-1.135h-3.703l-.381 1.297.883 1.074h-3.499l1.231-1.236 2.374-8.227zm3.509 6.539l-1.491-3.777-1.094 3.777zm20.429-6.539h5.348l3.694 9.303 1.232 1.236h-6.708l1.231-1.236-.437-1.135h-3.702l-.381 1.297.883 1.074h-3.5l1.231-1.236 2.374-8.227zm3.703 6.539l-1.49-3.777-1.094 3.777zm-34.632.025V31.65l-1.07-1.076h3.565l-1.07 1.076v8.227l1.232 1.236h-4.683l-4.034-6.825v5.589l1.037 1.236H16.22l1.231-1.236V31.65l-1.069-1.076h4.666l3.922 6.564m26.99-3.861l-.11-3.281-1.104.762c-1.556-.544-3.367-.524-4.638.078-1.183.559-2.459 1.742-2.303 3.42.156 1.679 1.457 2.33 2.63 2.861 1.51.685 3.152.916 3.128 1.82-.016.575-.97.987-1.711.963-.678-.021-2.88-.185-4.031-1.554l.218 3.452 1.229-.902c1.494.528 3.304.75 4.98.204 1.665-.543 3.415-1.936 2.443-4.372-.418-1.046-1.569-1.693-2.256-1.974-.628-.258-2.546-1.012-3.082-1.291-.626-.325-.556-1.36.95-1.57 1.363-.19 3.252.902 3.657 1.384"/><path fill="#d8262c" d="M16.01 60.501C36.672 39.413 67.47 29.67 77.674 9.56c-6.145 19.551-39.054 30.334-61.72 51.932l.056-.991"/><path fill="#fffffe" d="M30.006 34.751a71.957 71.957 0 0 1-.728-1.278c-5.509-9.91-4.714-20.024 5.255-15.617 8.462 3.74 16.544 14.232 19.794 21.682 1.506 3.452 5.544 17.001-7.459 11.511l-.026-.08C59.123 56.026 57 43.212 50.426 33.388c-3.72-5.56-8.571-10.191-11.63-12.425-10.186-7.442-16.399-2.891-9.247 11.703.324.66.66 1.29 1.006 1.894l-.549.191"/><path fill="#000" d="M90.146 29.081c0 1.775-.483 4.669-4.591 4.669-2.295 0-4.534-1.254-4.534-4.264v-1.195h2.739v.618c0 1.331.328 2.294 1.757 2.294 1.6 0 1.6-1.292 1.6-2.256v-9.298h3.029v9.432m8.908-1.716c-.25-1.388-.849-2.123-2.18-2.123-1.736 0-2.238 1.352-2.276 2.123zm-4.456 1.737c.077 1.736.926 2.527 2.449 2.527 1.1 0 1.988-.676 2.161-1.292h2.412c-.772 2.352-2.412 3.354-4.669 3.354-3.144 0-5.093-2.159-5.093-5.246 0-2.989 2.064-5.265 5.093-5.265 3.396 0 5.035 2.853 4.842 5.922zm12.09-5.654h2.006v1.834h-2.006v4.939c0 .925.231 1.157 1.158 1.157.288 0 .559-.02.848-.077v2.14c-.463.077-1.06.096-1.601.096-1.678 0-3.144-.384-3.144-2.372v-5.883h-1.659v-1.834h1.659V20.46h2.739v2.988m11.648 2.682h2.353c1.407 0 2.662-.309 2.662-2.063 0-1.755-1.255-2.064-2.662-2.064h-2.353zm-3.029-6.481h6.21c3.435 0 4.765 2.179 4.765 4.418 0 2.238-1.33 4.416-4.765 4.416h-3.181v4.94h-3.029zm12.398 3.799h2.605v1.855h.038c.502-1.256 1.851-2.123 3.182-2.123.193 0 .425.037.598.096v2.545a5.058 5.058 0 0 0-.983-.095c-2.006 0-2.701 1.446-2.701 3.202v4.495h-2.739v-9.975m11.801 8.181c1.872 0 2.432-1.603 2.432-3.184 0-1.599-.56-3.203-2.432-3.203-1.851 0-2.41 1.604-2.41 3.203 0 1.581.559 3.184 2.41 3.184zm0-8.449c3.145 0 5.172 2.084 5.172 5.265 0 3.163-2.027 5.246-5.172 5.246-3.124 0-5.149-2.083-5.149-5.246 0-3.181 2.025-5.265 5.149-5.265zm14.174 5.286c0-1.582-.636-3.224-2.392-3.224-1.793 0-2.371 1.604-2.371 3.224 0 1.618.616 3.163 2.391 3.163 1.794 0 2.372-1.545 2.372-3.163zm-7.407-5.018h2.605v1.274h.039c.656-1.062 1.737-1.542 2.97-1.542 3.124 0 4.533 2.527 4.533 5.361 0 2.662-1.465 5.15-4.378 5.15-1.198 0-2.335-.518-2.991-1.504h-.038v4.746h-2.74zm20.963 9.975h-2.604v-1.39h-.057c-.695 1.12-1.889 1.658-3.047 1.658-2.913 0-3.648-1.638-3.648-4.107v-6.136h2.739v5.633c0 1.641.484 2.451 1.756 2.451 1.485 0 2.123-.829 2.123-2.855v-5.229h2.738v9.975m1.984-.001h2.739V19.649h-2.739zm6.846-3.241c.019 1.197 1.024 1.678 2.103 1.678.792 0 1.793-.307 1.793-1.272 0-.829-1.137-1.119-3.105-1.544-1.582-.348-3.164-.905-3.164-2.663 0-2.545 2.199-3.2 4.34-3.2 2.18 0 4.188.731 4.399 3.181h-2.604c-.077-1.058-.887-1.349-1.871-1.349-.617 0-1.524.115-1.524.924 0 .985 1.543 1.121 3.106 1.488 1.6.366 3.164.944 3.164 2.797 0 2.623-2.277 3.47-4.553 3.47-2.316 0-4.574-.867-4.689-3.51h2.605m8.117 3.242h2.74v-9.975h-2.74zm0-11.517h2.74v-2.257h-2.74zm9.566 9.723c1.871 0 2.43-1.603 2.43-3.184 0-1.599-.559-3.203-2.43-3.203-1.853 0-2.411 1.604-2.411 3.203 0 1.581.558 3.184 2.411 3.184zm0-8.449c3.144 0 5.169 2.084 5.169 5.265 0 3.163-2.025 5.246-5.169 5.246-3.126 0-5.15-2.083-5.15-5.246 0-3.181 2.024-5.265 5.15-5.265zm6.747.268h2.605v1.391h.056c.696-1.119 1.89-1.659 3.048-1.659 2.912 0 3.647 1.639 3.647 4.109v6.134h-2.741V27.79c0-1.64-.482-2.45-1.755-2.45-1.485 0-2.122.829-2.122 2.855v5.228h-2.738v-9.975m16.736-3.799h3.029v11.227h6.712v2.547h-9.741V19.649m17.164 8.892c-.462.406-1.427.427-2.276.579-.849.174-1.621.464-1.621 1.467 0 1.021.793 1.272 1.678 1.272 2.142 0 2.219-1.697 2.219-2.295zm-6.328-2.024c.156-2.567 2.451-3.337 4.688-3.337 1.987 0 4.38.443 4.38 2.835v5.188c0 .907.095 1.815.346 2.22h-2.777a4.05 4.05 0 0 1-.193-.965c-.869.907-2.142 1.233-3.357 1.233-1.89 0-3.395-.944-3.395-2.988 0-2.258 1.698-2.798 3.395-3.028 1.678-.251 3.241-.195 3.241-1.314 0-1.176-.811-1.349-1.775-1.349-1.041 0-1.717.423-1.813 1.505zm15.988-1.275c-1.62 0-2.333 1.525-2.333 3.203 0 1.659.713 3.184 2.333 3.184s2.334-1.525 2.334-3.184c0-1.678-.714-3.203-2.334-3.203zm-4.978-5.593h2.741v5.016h.036c.677-1.023 1.912-1.485 3.146-1.485 1.987 0 4.13 1.6 4.13 5.247 0 3.665-2.143 5.264-4.13 5.264-1.466 0-2.682-.443-3.278-1.542h-.04v1.274h-2.605zm16.451 11.98c1.871 0 2.431-1.603 2.431-3.184 0-1.599-.56-3.203-2.431-3.203-1.852 0-2.412 1.604-2.412 3.203 0 1.581.56 3.184 2.412 3.184zm0-8.449c3.144 0 5.17 2.084 5.17 5.265 0 3.163-2.026 5.246-5.17 5.246-3.125 0-5.15-2.083-5.15-5.246 0-3.181 2.025-5.265 5.15-5.265zm6.746.268h2.604v1.855h.039c.504-1.256 1.852-2.123 3.185-2.123.192 0 .422.037.596.096v2.545a5.074 5.074 0 0 0-.983-.095c-2.007 0-2.701 1.446-2.701 3.202v4.495h-2.74v-9.975m13.522 5.093c-.465.406-1.43.427-2.277.579-.849.174-1.622.464-1.622 1.467 0 1.021.79 1.272 1.679 1.272 2.142 0 2.22-1.697 2.22-2.295zm-6.33-2.024c.154-2.567 2.45-3.337 4.688-3.337 1.99 0 4.381.443 4.381 2.835v5.188c0 .907.096 1.815.347 2.22h-2.779a4.149 4.149 0 0 1-.192-.965c-.869.907-2.142 1.233-3.357 1.233-1.892 0-3.396-.944-3.396-2.988 0-2.258 1.697-2.798 3.396-3.028 1.677-.251 3.242-.195 3.242-1.314 0-1.176-.813-1.349-1.776-1.349-1.042 0-1.718.423-1.814 1.505zm14.485-3.069h2.005v1.834h-2.005v4.939c0 .925.23 1.157 1.157 1.157.287 0 .558-.02.848-.077v2.14c-.463.077-1.061.096-1.603.096-1.676 0-3.144-.384-3.144-2.372v-5.883h-1.657v-1.834h1.657V20.46h2.742v2.988m7.982 8.181c1.871 0 2.43-1.603 2.43-3.184 0-1.599-.559-3.203-2.43-3.203-1.851 0-2.413 1.604-2.413 3.203 0 1.581.562 3.184 2.413 3.184zm0-8.449c3.144 0 5.17 2.084 5.17 5.265 0 3.163-2.026 5.246-5.17 5.246-3.124 0-5.15-2.083-5.15-5.246 0-3.181 2.026-5.265 5.15-5.265zm6.748.268h2.601v1.855h.041c.502-1.256 1.851-2.123 3.185-2.123.191 0 .423.037.595.096v2.545a5.093 5.093 0 0 0-.984-.095c-2.007 0-2.7 1.446-2.7 3.202v4.495h-2.738v-9.975m13.381 11.227c-.595 1.604-1.542 2.258-3.432 2.258-.56 0-1.117-.039-1.679-.096V34.58c.521.038 1.063.116 1.602.095.945-.095 1.253-1.078.945-1.869l-3.512-9.358h2.933l2.258 6.829h.037l2.18-6.829h2.836l-4.168 11.227M90.362 45.04c-.332-1.674-1.674-2.519-3.315-2.519-2.817 0-4.009 2.32-4.009 4.789 0 2.699 1.192 4.953 4.026 4.953 2.072 0 3.264-1.458 3.413-3.413h1.575c-.299 2.949-2.138 4.739-5.121 4.739-3.678 0-5.468-2.717-5.468-6.164 0-3.429 1.956-6.23 5.601-6.23 2.469 0 4.507 1.326 4.871 3.845h-1.573m8.451 3.843c-.547.398-1.607.414-2.552.581-.928.166-1.723.497-1.723 1.54 0 .929.795 1.259 1.656 1.259 1.856 0 2.619-1.159 2.619-1.939zm2.286 4.39c-.248.151-.563.233-1.01.233-.73 0-1.193-.397-1.193-1.325-.779.911-1.823 1.325-3.016 1.325-1.558 0-2.833-.696-2.833-2.402 0-1.939 1.441-2.352 2.899-2.634 1.558-.298 2.884-.2 2.884-1.26 0-1.227-1.011-1.424-1.907-1.424-1.192 0-2.07.363-2.136 1.623h-1.409c.083-2.121 1.723-2.865 3.629-2.865 1.54 0 3.214.345 3.214 2.351v4.408c0 .664 0 .96.447.96.117 0 .249-.017.431-.082zm1.129.033h1.408V41.477h-1.408zm3.413 0h1.407v-8.564h-1.407zm0-10.106h1.407v-1.723h-1.407zm3.91 2.783h-1.441v-1.241h1.441v-1.276c0-1.392.828-2.12 2.37-2.12.264 0 .645.048.911.131v1.226a2.671 2.671 0 0 0-.795-.116c-.68 0-1.078.216-1.078.962v1.193h1.657v1.241h-1.657v7.324h-1.408v-7.324m7.755 6.28c1.474 0 2.667-1.159 2.667-3.23 0-2.088-1.193-3.247-2.667-3.247-1.475 0-2.668 1.159-2.668 3.247 0 2.071 1.193 3.23 2.668 3.23zm0-7.719c2.716 0 4.158 1.971 4.158 4.489 0 2.501-1.442 4.473-4.158 4.473-2.718 0-4.159-1.972-4.159-4.473 0-2.518 1.441-4.489 4.159-4.489zm5.502.198h1.325v1.806h.033c.68-1.376 1.625-2.056 3.149-2.004v1.491c-2.27 0-3.098 1.292-3.098 3.462v3.81h-1.409v-8.565m5.302 0h1.325V46.1h.034c.596-1.06 1.557-1.556 2.783-1.556 2.253 0 2.95 1.292 2.95 3.13v5.633h-1.409V47.51c0-1.045-.663-1.724-1.74-1.724-1.706 0-2.534 1.143-2.534 2.684v4.837h-1.409v-8.565m9.032 8.564h1.408v-8.564h-1.408zm0-10.106h1.408v-1.723h-1.408zm8.632 5.683c-.547.398-1.607.414-2.552.581-.928.166-1.723.497-1.723 1.54 0 .929.795 1.259 1.657 1.259 1.856 0 2.618-1.159 2.618-1.939zm2.287 4.39c-.249.151-.563.233-1.011.233-.729 0-1.193-.397-1.193-1.325-.779.911-1.823 1.325-3.016 1.325-1.557 0-2.833-.696-2.833-2.402 0-1.939 1.441-2.352 2.899-2.634 1.558-.298 2.884-.2 2.884-1.26 0-1.227-1.01-1.424-1.906-1.424-1.193 0-2.071.363-2.137 1.623h-1.408c.082-2.121 1.723-2.865 3.628-2.865 1.54 0 3.215.345 3.215 2.351v4.408c0 .664 0 .96.446.96.117 0 .249-.017.432-.082zm5.685.033h1.573V41.477h-1.573zm3.726-8.564h1.326V46.1h.035c.593-1.06 1.556-1.556 2.783-1.556 2.253 0 2.949 1.292 2.949 3.13v5.633h-1.41V47.51c0-1.045-.661-1.724-1.739-1.724-1.707 0-2.534 1.143-2.534 2.684v4.837h-1.41v-8.565m9.812 5.864c.049 1.259 1.142 1.657 2.302 1.657.879 0 2.073-.199 2.073-1.275 0-1.094-1.393-1.275-2.804-1.59-1.389-.317-2.796-.78-2.796-2.42 0-1.722 1.706-2.434 3.196-2.434 1.89 0 3.397.594 3.514 2.683h-1.408c-.101-1.094-1.062-1.441-1.99-1.441-.846 0-1.822.233-1.822 1.093 0 1.011 1.491 1.175 2.801 1.49 1.406.316 2.798.778 2.798 2.436 0 2.039-1.905 2.701-3.644 2.701-1.924 0-3.546-.779-3.63-2.9h1.41m9.114-5.864h1.706v1.241h-1.706v5.32c0 .647.182.761 1.06.761h.646v1.243h-1.076c-1.459 0-2.04-.297-2.04-1.872v-5.452h-1.457v-1.241h1.457v-2.569h1.41v2.569m3.082 8.564h1.407v-8.564h-1.407zm0-10.106h1.407v-1.723h-1.407zm5.286 1.542h1.708v1.241h-1.708v5.32c0 .647.182.761 1.06.761h.648v1.243h-1.079c-1.457 0-2.038-.297-2.038-1.872v-5.452h-1.459v-1.241h1.459v-2.569h1.409v2.569m10.089 8.565h-1.325V51.95h-.033c-.596 1.06-1.558 1.556-2.783 1.556-2.253 0-2.949-1.291-2.949-3.132v-5.632h1.409v5.798c0 1.044.663 1.723 1.739 1.723 1.706 0 2.534-1.142 2.534-2.685v-4.836h1.408v8.565m3.814-8.565h1.705v1.241h-1.705v5.32c0 .647.181.761 1.059.761h.646v1.243h-1.076c-1.457 0-2.037-.297-2.037-1.872v-5.452h-1.459v-1.241h1.459v-2.569h1.408v2.569m8.946 3.463c-.066-1.343-1.077-2.419-2.468-2.419-1.474 0-2.353 1.109-2.452 2.419zm1.359 2.385c-.381 1.889-1.74 2.916-3.661 2.916-2.736 0-4.027-1.889-4.109-4.505 0-2.57 1.69-4.457 4.026-4.457 3.031 0 3.961 2.832 3.876 4.904h-6.411c-.05 1.491.794 2.815 2.667 2.815 1.159 0 1.972-.563 2.221-1.673zm9.363 1.673c1.476 0 2.668-1.159 2.668-3.23 0-2.088-1.192-3.247-2.668-3.247-1.475 0-2.667 1.159-2.667 3.247 0 2.071 1.192 3.23 2.667 3.23zm0-7.719c2.716 0 4.158 1.971 4.158 4.489 0 2.501-1.442 4.473-4.158 4.473-2.718 0-4.159-1.972-4.159-4.473 0-2.518 1.441-4.489 4.159-4.489zm6.132 1.439h-1.441v-1.241h1.441v-1.276c0-1.392.828-2.12 2.371-2.12.264 0 .644.048.911.131v1.226a2.684 2.684 0 0 0-.797-.116c-.681 0-1.076.216-1.076.962v1.193h1.655v1.241h-1.655v7.324h-1.409v-7.324m11.317-3.18h-3.943v-1.326h9.461v1.326h-3.943v10.504h-1.575V42.803m12.279 5.402c-.068-1.343-1.077-2.419-2.468-2.419-1.476 0-2.354 1.109-2.452 2.419zm1.359 2.385c-.381 1.889-1.739 2.916-3.661 2.916-2.735 0-4.029-1.889-4.111-4.505 0-2.57 1.691-4.457 4.027-4.457 3.032 0 3.959 2.832 3.877 4.904h-6.411c-.05 1.491.793 2.815 2.667 2.815 1.159 0 1.972-.563 2.22-1.673zm7.142-3.097c-.215-1.078-.961-1.707-2.122-1.707-2.038 0-2.666 1.608-2.666 3.346 0 1.574.711 3.131 2.501 3.131 1.359 0 2.171-.795 2.353-2.087h1.441c-.314 2.087-1.623 3.33-3.778 3.33-2.617 0-4.009-1.822-4.009-4.374 0-2.57 1.324-4.588 4.043-4.588 1.937 0 3.495.91 3.694 2.949h-1.457m2.817-6.016h1.409v4.524h.035c.462-1.027 1.671-1.457 2.699-1.457 2.253 0 2.95 1.292 2.95 3.13v5.633h-1.409V47.51c0-1.045-.665-1.724-1.74-1.724-1.707 0-2.535 1.143-2.535 2.684v4.837h-1.409v-11.83m8.949 3.265h1.325V46.1h.033c.597-1.06 1.558-1.556 2.784-1.556 2.255 0 2.95 1.292 2.95 3.13v5.633h-1.408V47.51c0-1.045-.663-1.724-1.742-1.724-1.704 0-2.534 1.143-2.534 2.684v4.837h-1.408v-8.565m12.644 7.521c1.475 0 2.668-1.159 2.668-3.23 0-2.088-1.193-3.247-2.668-3.247-1.474 0-2.667 1.159-2.667 3.247 0 2.071 1.193 3.23 2.667 3.23zm0-7.719c2.717 0 4.158 1.971 4.158 4.489 0 2.501-1.441 4.473-4.158 4.473-2.716 0-4.16-1.972-4.16-4.473 0-2.518 1.444-4.489 4.16-4.489zm5.634 8.762h1.409V41.477h-1.409zm7.028-1.043c1.473 0 2.666-1.159 2.666-3.23 0-2.088-1.193-3.247-2.666-3.247-1.477 0-2.669 1.159-2.669 3.247 0 2.071 1.192 3.23 2.669 3.23zm0-7.719c2.716 0 4.157 1.971 4.157 4.489 0 2.501-1.441 4.473-4.157 4.473-2.719 0-4.16-1.972-4.16-4.473 0-2.518 1.441-4.489 4.16-4.489zm11.548 4.306c0-1.508-.663-3.064-2.434-3.064-1.808 0-2.536 1.474-2.536 3.113 0 1.541.563 3.266 2.418 3.266 1.857 0 2.552-1.707 2.552-3.315zm1.391 3.728c0 2.785-1.274 4.208-3.977 4.208-1.606 0-3.463-.645-3.544-2.517h1.407c.067 1.026 1.292 1.392 2.221 1.392 1.839 0 2.568-1.327 2.568-3.248v-.563h-.032c-.466 1.044-1.591 1.556-2.668 1.556-2.553 0-3.829-2.004-3.829-4.341 0-2.021.995-4.521 3.961-4.521 1.077 0 2.038.479 2.551 1.424h.017v-1.226h1.325zm5.222 1.871c-.647 1.675-1.227 2.287-2.486 2.287-.332 0-.664-.033-.978-.148v-1.293c.265.085.548.198.828.198.581 0 .896-.28 1.16-.776l.58-1.459-3.396-8.516h1.59l2.503 7.008h.033l2.401-7.008h1.492l-3.727 9.707"/></g><g transform="translate(37.68 36.053) scale(.63744)"><path d="M82.86302 77.7966H63.70286V48.71459h19.16016v3.4375H67.57005v7.96875h15.29297v3.4375H67.57005V74.3591h15.29297z"/><path d="M111.45677 75.68723q-1.07422.46875-1.95313.8789-.85937.41017-2.26562.85938-1.19141.3711-2.59766.625-1.38672.27344-3.0664.27344-3.16407 0-5.76172-.8789-2.57813-.89844-4.4922-2.79297-1.875-1.85547-2.92968-4.70703-1.05469-2.8711-1.05469-6.66016 0-3.59375 1.01563-6.42578 1.01562-2.83203 2.92969-4.78516 1.85547-1.89453 4.47265-2.89062 2.63672-.9961 5.83985-.9961 2.34375 0 4.66797.5664 2.34375.56642 5.19531 1.9922v4.58984h-.29297q-2.40234-2.01172-4.76563-2.92969-2.36328-.91797-5.05859-.91797-2.20703 0-3.98437.72266-1.75782.70313-3.14454 2.20703-1.34765 1.46485-2.10937 3.71094-.74219 2.22656-.74219 5.15625 0 3.0664.82031 5.27344.83985 2.20703 2.14844 3.59375 1.36719 1.4453 3.1836 2.14843 1.83593.6836 3.86718.6836 2.79297 0 5.23438-.95703 2.4414-.95703 4.57031-2.8711h.27344z"/><path d="M138.60521 52.05442q1.77734 1.95313 2.71484 4.78516.95703 2.83203.95703 6.42578 0 3.59375-.97656 6.44531-.95703 2.83203-2.69531 4.72656-1.79688 1.97266-4.25782 2.96875-2.4414.9961-5.58593.9961-3.06641 0-5.58594-1.01563-2.5-1.01562-4.25781-2.94922-1.75782-1.9336-2.71485-4.7461-.9375-2.8125-.9375-6.42577 0-3.55469.9375-6.36719.9375-2.83203 2.73438-4.84375 1.71875-1.91406 4.25781-2.92969 2.55859-1.01562 5.56641-1.01562 3.125 0 5.60546 1.03515 2.5 1.01563 4.23829 2.91016zm-.35157 11.21094q0-5.66407-2.53906-8.73047-2.53906-3.08594-6.93359-3.08594-4.4336 0-6.97266 3.08594-2.51953 3.0664-2.51953 8.73047 0 5.72265 2.57812 8.76953 2.57813 3.02734 6.91407 3.02734 4.33593 0 6.89453-3.02734 2.57812-3.04688 2.57812-8.76953z"/><path d="M169.54271 69.49583q0 1.69922-.80079 3.35937-.78125 1.66016-2.20703 2.8125-1.5625 1.25-3.65234 1.95313-2.07031.70312-5 .70312-3.14453 0-5.66406-.58594-2.5-.58593-5.09766-1.73828v-4.84375h.27344q2.20703 1.83594 5.09765 2.83203 2.89063.9961 5.42969.9961 3.59375 0 5.58594-1.34766 2.01172-1.34765 2.01172-3.59375 0-1.9336-.95703-2.85156-.9375-.91797-2.8711-1.42578-1.46484-.39063-3.18359-.64453-1.69922-.25391-3.61328-.64453-3.86719-.82032-5.74219-2.79297-1.85547-1.9922-1.85547-5.17578 0-3.65235 3.08594-5.97657 3.08594-2.34375 7.83203-2.34375 3.06641 0 5.625.58594t4.53125 1.44531v4.57032h-.27344q-1.66015-1.40625-4.375-2.32422-2.69531-.9375-5.52734-.9375-3.10547 0-5 1.28906-1.875 1.28906-1.875 3.32031 0 1.8164.9375 2.85156t3.30078 1.58204q1.25.27343 3.55469.66406 2.30469.39062 3.90625.80078 3.24219.85937 4.88281 2.59766 1.64063 1.73828 1.64063 4.86328z"/><path d="M196.49583 52.15208h-10.39062V77.7966h-3.86719V52.15208h-10.39063v-3.4375h24.64844z"/><path d="M224.46458 77.7966h-5.01953l-9.72656-11.5625h-5.44922v11.5625h-3.86719V48.71459h8.14453q2.63672 0 4.39453.35156 1.75782.33203 3.16407 1.21094 1.58203.99609 2.46093 2.51953.89844 1.5039.89844 3.82812 0 3.14453-1.58203 5.27344-1.58203 2.10938-4.35547 3.1836zm-9.04297-20.89843q0-1.25-.44922-2.20703-.42968-.97656-1.44531-1.64063-.83984-.5664-1.99219-.78125-1.15234-.23437-2.71484-.23437h-4.55078v10.97656h3.90625q1.83594 0 3.20312-.3125 1.36719-.33203 2.32422-1.21094.87891-.8203 1.28906-1.875.42969-1.07422.42969-2.71484z"/><path d="M247.37474 77.7966h-19.16016V48.71459h19.16016v3.4375h-15.29297v7.96875h15.29297v3.4375h-15.29297V74.3591h15.29297z"/><path d="M274.64036 69.49583q0 1.69922-.80078 3.35937-.78125 1.66016-2.20703 2.8125-1.5625 1.25-3.65234 1.95313-2.07032.70312-5 .70312-3.14454 0-5.66407-.58594-2.5-.58593-5.09765-1.73828v-4.84375h.27343q2.20704 1.83594 5.09766 2.83203 2.89063.9961 5.42969.9961 3.59375 0 5.58594-1.34766 2.01171-1.34765 2.01171-3.59375 0-1.9336-.95703-2.85156-.9375-.91797-2.87109-1.42578-1.46484-.39063-3.18359-.64453-1.69922-.25391-3.61329-.64453-3.86718-.82032-5.74218-2.79297-1.85547-1.9922-1.85547-5.17578 0-3.65235 3.08594-5.97657 3.08593-2.34375 7.83203-2.34375 3.0664 0 5.625.58594 2.55859.58594 4.53125 1.44531v4.57032h-.27344q-1.66016-1.40625-4.375-2.32422-2.69531-.9375-5.52734-.9375-3.10547 0-5 1.28906-1.875 1.28906-1.875 3.32031 0 1.8164.9375 2.85156t3.30078 1.58204q1.25.27343 3.55468.66406 2.30469.39062 3.90625.80078 3.24219.85937 4.88282 2.59766 1.64062 1.73828 1.64062 4.86328z"/><path d="M301.55442 69.49583q0 1.69922-.80078 3.35937-.78125 1.66016-2.20703 2.8125-1.5625 1.25-3.65234 1.95313-2.07031.70312-5 .70312-3.14453 0-5.66406-.58594-2.5-.58593-5.09766-1.73828v-4.84375h.27344q2.20703 1.83594 5.09765 2.83203 2.89063.9961 5.42969.9961 3.59375 0 5.58594-1.34766 2.01172-1.34765 2.01172-3.59375 0-1.9336-.95703-2.85156-.9375-.91797-2.8711-1.42578-1.46484-.39063-3.18359-.64453-1.69922-.25391-3.61328-.64453-3.86719-.82032-5.74219-2.79297-1.85547-1.9922-1.85547-5.17578 0-3.65235 3.08594-5.97657 3.08594-2.34375 7.83203-2.34375 3.06641 0 5.625.58594t4.53125 1.44531v4.57032h-.27344q-1.66015-1.40625-4.375-2.32422-2.69531-.9375-5.52734-.9375-3.10547 0-5 1.28906-1.875 1.28906-1.875 3.32031 0 1.8164.9375 2.85156t3.30078 1.58204q1.25.27343 3.55469.66406 2.30468.39062 3.90625.80078 3.24218.85937 4.88281 2.59766 1.64062 1.73828 1.64062 4.86328z"/></g></svg>