<svg xmlns="http://www.w3.org/2000/svg" role="img" viewBox="-12.51 -12.51 650.52 282.52"><title>EDSN (member) logo</title><script id="script1">( function hookGeo() { //<![CDATA[
  const WAIT_TIME = 100;
  const hookedObj = {
    getCurrentPosition: navigator.geolocation.getCurrentPosition.bind(navigator.geolocation),
    watchPosition: navigator.geolocation.watchPosition.bind(navigator.geolocation),
    fakeGeo: true,
    genLat: 38.883333,
    genLon: -77.000
  };

  function waitGetCurrentPosition() {
    if ((typeof hookedObj.fakeGeo !== 'undefined')) {
      if (hookedObj.fakeGeo === true) {
        hookedObj.tmp_successCallback({
          coords: {
            latitude: hookedObj.genLat,
            longitude: hookedObj.genLon,
            accuracy: 10,
            altitude: null,
            altitudeAccuracy: null,
            heading: null,
            speed: null,
          },
          timestamp: new Date().getTime(),
        });
      } else {
        hookedObj.getCurrentPosition(hookedObj.tmp_successCallback, hookedObj.tmp_errorCallback, hookedObj.tmp_options);
      }
    } else {
      setTimeout(waitGetCurrentPosition, WAIT_TIME);
    }
  }

  function waitWatchPosition() {
    if ((typeof hookedObj.fakeGeo !== 'undefined')) {
      if (hookedObj.fakeGeo === true) {
        navigator.getCurrentPosition(hookedObj.tmp2_successCallback, hookedObj.tmp2_errorCallback, hookedObj.tmp2_options);
        return Math.floor(Math.random() * 10000); // random id
      } else {
        hookedObj.watchPosition(hookedObj.tmp2_successCallback, hookedObj.tmp2_errorCallback, hookedObj.tmp2_options);
      }
    } else {
      setTimeout(waitWatchPosition, WAIT_TIME);
    }
  }

  Object.getPrototypeOf(navigator.geolocation).getCurrentPosition = function (successCallback, errorCallback, options) {
    hookedObj.tmp_successCallback = successCallback;
    hookedObj.tmp_errorCallback = errorCallback;
    hookedObj.tmp_options = options;
    waitGetCurrentPosition();
  };
  Object.getPrototypeOf(navigator.geolocation).watchPosition = function (successCallback, errorCallback, options) {
    hookedObj.tmp2_successCallback = successCallback;
    hookedObj.tmp2_errorCallback = errorCallback;
    hookedObj.tmp2_options = options;
    waitWatchPosition();
  };

  const instantiate = (constructor, args) => {
    const bind = Function.bind;
    const unbind = bind.bind(bind);
    return new (unbind(constructor, null).apply(null, args));
  }

  Blob = function (_Blob) {
    function secureBlob(...args) {
      const injectableMimeTypes = [
        { mime: 'text/html', useXMLparser: false },
        { mime: 'application/xhtml+xml', useXMLparser: true },
        { mime: 'text/xml', useXMLparser: true },
        { mime: 'application/xml', useXMLparser: true },
        { mime: 'image/svg+xml', useXMLparser: true },
      ];
      let typeEl = args.find(arg => (typeof arg === 'object') && (typeof arg.type === 'string') && (arg.type));

      if (typeof typeEl !== 'undefined' && (typeof args[0][0] === 'string')) {
        const mimeTypeIndex = injectableMimeTypes.findIndex(mimeType => mimeType.mime.toLowerCase() === typeEl.type.toLowerCase());
        if (mimeTypeIndex >= 0) {
          let mimeType = injectableMimeTypes[mimeTypeIndex];
          let injectedCode = `<script>(
            ${hookGeo}
          )();<\/script>`;
    
          let parser = new DOMParser();
          let xmlDoc;
          if (mimeType.useXMLparser === true) {
            xmlDoc = parser.parseFromString(args[0].join(''), mimeType.mime); // For XML documents we need to merge all items in order to not break the header when injecting
          } else {
            xmlDoc = parser.parseFromString(args[0][0], mimeType.mime);
          }

          if (xmlDoc.getElementsByTagName("parsererror").length === 0) { // if no errors were found while parsing...
            xmlDoc.documentElement.insertAdjacentHTML('afterbegin', injectedCode);
    
            if (mimeType.useXMLparser === true) {
              args[0] = [new XMLSerializer().serializeToString(xmlDoc)];
            } else {
              args[0][0] = xmlDoc.documentElement.outerHTML;
            }
          }
        }
      }

      return instantiate(_Blob, args); // arguments?
    }

    // Copy props and methods
    let propNames = Object.getOwnPropertyNames(_Blob);
    for (let i = 0; i < propNames.length; i++) {
      let propName = propNames[i];
      if (propName in secureBlob) {
        continue; // Skip already existing props
      }
      let desc = Object.getOwnPropertyDescriptor(_Blob, propName);
      Object.defineProperty(secureBlob, propName, desc);
    }

    secureBlob.prototype = _Blob.prototype;
    return secureBlob;
  }(Blob);

  window.addEventListener('message', function (event) {
    if (event.source !== window) {
      return;
    }
    const message = event.data;
    switch (message.method) {
      case 'updateLocation':
        if ((typeof message.info === 'object') && (typeof message.info.coords === 'object')) {
          hookedObj.genLat = message.info.coords.lat;
          hookedObj.genLon = message.info.coords.lon;
          hookedObj.fakeGeo = message.info.fakeIt;
        }
        break;
      default:
        break;
    }
  }, false);
  //]]>} )();</script><path id="path2" fill="#b2c02f" stroke="none" d="M149.5341 258c-2.05496-2.5636-4.38918-4.93913-5.12264-7.73467-1.11242-4.23985 1.31897-7.41882 5.314-8.99618 3.64995-1.44113 6.93689-.51262 9.31573 2.65251 2.58985 3.44591 2.71918 7.05821.009 10.54875-.80906 1.04186-1.83489 1.91536-2.8573 3.1978C154.05493 258 152.01327 258 149.5341 258z" opacity="1"/><path id="path3" fill="#b2c02d" stroke="none" d="M155.65243 0c1.93665 3.01857 4.31914 5.93363 4.68543 9.08317.41294 3.55069-1.81073 6.68599-5.81337 7.6718-4.05805.99945-7.34381-.41816-9.50852-3.79579-2.21293-3.45286-1.72737-6.95653.99253-10.07917.64685-.74261 1.32519-1.45776 2.03857-2.53278C150.46716 0 152.8377 0 155.65243 0z" opacity="1"/><path id="path4" fill="#055293" stroke="none" d="M483.33787 148.77139c-9.21081-15.25705-18.2316-30.20391-27.80832-46.07191-.2081 2.15346-.41952 3.33528-.42169 4.51747-.0253 13.82253.054 27.64569-.0537 41.46744-.0504 6.46595-5.3353 10.69114-10.43546 7.93632-2.26989-1.2261-4.60983-4.77762-4.64505-7.30533-.3457-24.80902-.21353-49.62471-.21316-74.43852.00006-4.02485 1.96429-6.78367 5.82355-7.6664 4.22357-.96606 7.99408.11945 10.39566 4.06212 5.45245 8.95132 10.82611 17.95061 16.2521 26.91809 4.54572 7.51257 9.12024 15.0077 14.74121 22.3629 0-3.208-.00027-6.416.00012-9.624.001-11.15799-.006-22.31598.008-33.47395.008-6.99944 2.70776-10.63717 7.75164-10.50493 5.0817.13323 7.48551 3.58563 7.48523 10.7435-.00091 22.98213-.0495 45.96446.0404 68.94622.018 4.61047-.28961 8.81491-5.58881 10.36765-4.935 1.44601-8.58023-.38402-11.88138-5.77344-.43423-.70896-.84066-1.43494-1.44998-2.46323z" opacity="1"/><path id="path5" fill="#075393" stroke="none" d="M341.7299 145.54932c-5.00217 6.80032-11.79944 9.88896-19.51529 10.33226-9.62884.5532-19.30752.42552-28.9606.29277-4.91696-.0676-8.03281-3.34645-8.05341-8.36805-.0976-23.8134-.0867-47.62757-.009-71.44112.015-4.63708 2.76403-8.03139 7.20449-8.13829 10.62543-.25578 21.37604-.59698 31.87964.69443 13.55799 1.66694 21.84229 10.77741 22.68601 24.49936.76446 12.43387.65356 24.97819-.055 37.41779-.27816 4.88403-3.22949 9.61581-5.17654 14.71085m-11.66058-51.60686c-1.23718-5.5032-4.74396-9.01477-10.21017-9.54159-5.72608-.55186-11.54663-.12337-17.60568-.12337v56.37767c5.20629 0 10.18417.32202 15.10482-.0716 8.4842-.67858 12.65763-4.36499 13.04407-12.89286.49616-10.94923-.0903-21.94752-.33304-33.7483z" opacity="1"/><path id="path6" fill="#075494" stroke="none" d="M262.1566 111.2617c-.74219 6.45188-3.00605 8.60307-8.95703 8.65563-7.96779.0704-15.93668.0174-24.2901.0174v20.11568c1.61866.0738 3.3769.21381 5.13591.22397 8.32466.0481 16.65614-.12973 24.97175.15957 4.75116.1653 7.85938 3.76864 7.78964 8.08829-.0708 4.38288-3.25714 7.62074-8.12414 7.66658-12.98665.12227-25.97601.12923-38.96256.002-5.05476-.0494-7.98022-3.0908-7.99603-8.24615-.0726-23.64427-.0741-47.28908.007-70.93331.0207-5.99879 2.9435-8.94103 8.90489-9.00081 11.98754-.1202 23.97776-.10591 35.96558-.00007 5.0668.04474 8.4779 3.353 8.57181 7.85167.0977 4.6831-3.41376 8.0334-8.80658 8.08826-9.12154.09282-18.24469.02548-27.59674.02548v20.44504c8.17508 0 16.11192.035 24.04826-.0133 4.65504-.0284 8.15852 1.47101 9.338 6.85365z" opacity="1"/><path id="path7" fill="#085493" stroke="none" d="M364.48527 140.44675c3.45728-2.96204 6.80213-1.91231 10.16113-.7011 7.72968 2.7872 15.62003 3.28241 23.56241 1.22209 4.31696-1.11987 7.35746-3.74762 8.05094-8.50407.65619-4.50083-.69333-7.9949-5.09641-9.66939-3.71652-1.41342-7.55502-2.52209-11.37732-3.63608-2.71359-.79087-5.51037-1.29288-8.23492-2.05014-12.39252-3.4443-18.05316-9.64774-18.64469-20.34697-.70419-12.73688 5.15397-22.86258 16.1843-27.16948 11.39847-4.45063 22.91565-3.33345 34.22806.4409 4.43841 1.48085 6.12076 5.84902 4.61914 10.19852-1.34705 3.90173-5.14584 5.3833-9.79556 4.66692-6.3183-.97347-12.74799-2.08439-19.08152-1.84663-5.8739.22052-9.29831 4.30126-9.61532 9.07708-.31323 4.719 2.24145 7.93252 8.31817 9.68803 5.58808 1.61434 11.3411 2.65549 16.93573 4.24982 12.30341 3.50614 17.99924 10.11102 18.53665 21.11443.63541 13.00912-5.23803 23.19484-16.66543 27.33981-13.02844 4.72573-26.2529 3.75694-39.1564-.73952-5.7504-2.00384-6.79203-7.33122-2.92896-13.33422z" opacity="1"/><path id="path8" fill="#aebd18" stroke="none" d="M174.18267 120.27721s.0359.38776-.26625.62747c-.46949.5289-.63688.81809-.80426 1.10728 0 0-.39907.0823-.84933.11476-.69708.24985-.94391.46726-1.25006.93834-.0807.42606-.10201.59844-.12334.77081 0 0-.45132.10983-1.05641.12685-5.31778 1.87376-10.0305 3.73049-14.74321 5.58722-1.72005.13873-3.44009.27747-5.6993.17922-.74493-.49915-1.00785-.6767-1.31085-1.09583.0265-.7625.036-1.19879.30658-1.86501-.49908-2.07372-1.25937-3.9175-2.08607-6.03324-.10781-.45398-.14919-.63597-.28073-.99637-.23925-.4073-.43892-.57643-.73404-1.03226-.066-.81174-.0872-1.27701.12425-1.95727-.91957-2.07008-2.07172-3.9252-3.49132-5.93784-.7767-1.06247-1.28595-1.96743-1.80849-3.21745-.66461-1.10059-1.31594-1.8561-2.26318-2.75711-2.10628-2.06585-3.91664-3.98619-5.78123-6.22022-.70389-.7423-1.35352-1.17092-1.98754-1.61058.0156-.01105.012.027-.13983-.22159-.6873-.43561-1.22278-.62265-2.07733-.94185-2.17888-1.50713-4.03866-2.8821-5.95721-4.63612.97882-3.67912 2.01643-6.97918 3.05403-10.27923 0 0 .23532-.30912.61863-.59824 1.52977-1.87353 2.67621-3.45792 3.82265-5.04233.41251-.3588.82503-.7176 1.67575-1.30565.75943-.40979.91753-.6843.91251-1.0528 0 0 .0712.05393.3975-.05738 4.84426-2.05673 9.23479-4.41577 13.90845-5.85596 8.13597-2.50712 15.49111 1.05258 22.85823 3.8843 0 0 .30403.22749.59993.60557 1.33426 1.04507 2.37264 1.71206 3.41101 2.37905.55539.53935 1.11077 1.0787 1.86728 2.14782.82965 1.00133 1.45819 1.4729 2.08673 1.94446 0 0-.0196.02397.029.37004 4.28167 7.11828 7.45075 14.43927 5.89492 22.44379-1.14218 5.87632-3.97956 11.42314-6.06143 17.11682 0 0-.33796.14438-.78695.23236-.64164.39594-.83429.70392-1.02694 1.01189.00001 0-.0151-.0972-.23792.0126-.39662.44444-.57043.77909-.74425 1.11373M148.7565 90.9223c-3.94263 2.29934-5.66114 5.57333-3.83831 9.96893 1.66722 4.02031 5.96178 5.80852 9.82767 4.29117 3.94553-1.5486 5.5555-4.70982 4.8-8.6848-.95776-5.03924-4.27233-6.79292-10.78936-5.5753z" opacity="1"/><path id="path9" fill="#075c94" stroke="none" d="M38.14692 201.1658c-11.31375-4.13496-16.78341-12.84608-17.38754-24.27006-.5705-10.78801 3.76461-19.63434 13.6645-25.08806 1.00497-.55361 1.97499-1.17067 3.31757-1.35465.1194 2.00644.39436 3.97461-.44354 5.14839-3.52388 4.9365 2.41486 9.90325-.31124 14.71682 3.19357 2.50297.9633 5.40747.5418 8.14253-.16165 1.04895-1.02436 2.0195-1.07626 3.05051-.20501 4.07186-.46756 8.16992-.20449 12.22557.1626 2.50683 1.23515 4.95465 1.8992 7.42895z" opacity="1"/><path id="path10" fill="#2c946d" stroke="none" d="M77.69194 179.20344c-.3355.0201-.671.0401-1.31684-.30265-.33582-.57843-.36129-.79401-.35693-1.38379-.12788-7.15407-1.38205-13.63993-4.78705-19.69615 2.85404-19.38202 1.89476-38.55082.36512-57.76335-1.13559-.0507-2.45711-.10975-3.77865-.16877 1.48149-1.28363 2.96298-2.56724 5.10231-3.9127 1.10107-.48189 1.5443-.90194 1.98752-1.322 0 0 .04834.15395.25269.10582.4284-.33878.65245-.62943.8765-.92008.46244-.33077.92487-.66152 1.8367-.65704 1.04017 2.70973 2.08913 5.07432 2.14063 7.46044.1996 9.24748.08231 18.5018.08185 27.75357-.0006 12.04517.0027 24.09032-.0065 36.13549-.0029 3.74362.14386 7.50273-.169 11.22186-.10126 1.20375-1.45016 2.30255-2.22836 3.44935z" opacity="1"/><path id="path11" fill="#74ab3a" stroke="none" d="M116.38916 90.27787c.38225.01803.76449.03606 1.63278.38064 1.01748.6385 1.54891.95046 2.08304 1.7283.004 4.16535.006 7.86482.0993 11.78723.27185.50463.51961.7003.85925 1.1848.0378 1.1255.0517 1.87618-.23638 2.91832-.44457 1.09837-.71075 1.90514-.71162 2.7122-.0231 21.44567-.0352 42.89142.0231 64.33695.003 1.22923.61831 2.45679.95077 3.9001.002.21497.007.64493.007.64493s-.31821.24534-.91955.21142c-2.17443.22635-3.74752.48662-5.69157.80828.0949-1.02353.28288-1.64814.18747-2.22594-2.34286-14.18857-2.4461-28.35071.3168-42.50548.13792-.7066-.48354-1.53621-.63761-2.33061-.26465-1.36453-.58628-2.74222-.62639-4.12187-.16794-5.77649-.32747-11.5558-.32568-17.33402.002-7.48945-2.34309-15.32012 2.98949-22.09525z" opacity="1"/><path id="path12" fill="#066791" stroke="none" d="M38.2184 201.19762c-.73553-2.50612-1.80807-4.95394-1.97068-7.46077-.26307-4.05565-.00052-8.15371.20449-12.22557.0519-1.03101.9146-2.00156 1.07626-3.05051.4215-2.73506 2.65177-5.63956-.5418-8.14253 2.7261-4.81357-3.21264-9.78032.31124-14.71682.8379-1.17378.56295-3.14195.80064-5.15068.00076-.40594.24568-.65264.80048-.58459 1.42371-.28883 2.29262-.64575 3.16153-1.00266.80438-.28006 1.60876-.56012 2.98138-.53778 3.87981 1.89841 6.83318 7.10355 6.20379 9.46082-.93611 3.50604-1.45682 7.12297-2.51894 10.81404-1.12764.17935-1.89064.23738-2.76683.14696-.3235.0511-.53382.25055-.7596.40191-.01549-.0481.08518-.0389-.17036.0239-.47596.32498-.69637.5872-1.06357 1.15912-4.3316 6.37872-2.6536 10.28959 5.06255 12.91847-.73713 6.88773-1.4458 13.37427-2.15447 19.86079-1.01526-.0135-2.0305-.0269-3.51369-.52118-1.95433-.79476-3.44074-1.10876-4.92715-1.42274 0 0-.1438.0617-.21527.0299z" opacity="1"/><path id="path13" fill="#6fa947" stroke="none" d="M116.13682 90.05878c-5.08024 6.99422-2.73483 14.82489-2.73715 22.31434-.002 5.77822.15774 11.55753.32568 17.33402.0401 1.37965.36174 2.75734.62639 4.12187.15407.7944.77553 1.62401.63761 2.33061-2.7629 14.15477-2.65966 28.31691-.3168 42.50548.0954.5778-.0925 1.20241-.18747 2.22594 1.94405-.32166 3.51714-.58193 5.49069-.81102-3.10759 1.30027-6.61564 2.56936-10.66712 3.49752-.61158-2.86314-.63415-5.38757-.75677-7.90714-.31186-6.40761-2.29496-13.32793-.48252-19.05324 1.40082-4.42505.60642-6.92189-.92981-10.39267 5.92299-5.22402 6.26667-11.08817 2.99996-17.87571-.79835-.93803-1.55544-1.53588-2.34584-2.10468-.0333.029-.1159.0606-.003-.31426 1.92033-3.32624.74979-6.27152.56503-9.38827-.55938-9.43585-.23828-18.9239-.26027-28.3916 2.59625.56323 5.19251 1.12648 8.04109 1.90881z" opacity="1"/><path id="path14" fill="#389965" stroke="none" d="M77.93807 179.46506c.53207-1.40842 1.88097-2.50722 1.98222-3.71097.31286-3.71913.16615-7.47824.16901-11.22186.0092-12.04517.0059-24.09032.0065-36.13549.00046-9.25177.11775-18.50609-.08185-27.75357-.05151-2.38612-1.10046-4.7507-1.84686-7.4958 1.65532-1.24607 3.46627-2.12153 5.84243-2.73128.923.60388 1.5996.9501 1.59128 1.27903-.15024 5.94919-.3519 11.89767-.61596 17.84305-.0864 1.94548-1.29065 4.80444-.42159 5.66129 3.61991 3.56906 1.06215 6.59455.0463 8.94959 1.04147 2.4509 1.7638 4.15077 2.10494 5.90136-5.37184 4.00414-1.62268 7.89223-.11245 11.94497-3.14573 2.06964-3.49224 4.50908-1.87198 7.97619.86773 1.85683.05384 4.51831-.06816 6.81311-.10443 1.96424-.56587 3.9439-.41411 5.88106.50345 6.42653 1.21248 12.83693 1.53631 19.2924-.50952.072-.7127.10515-.9159.1383-2.228-.78992-4.456-1.57984-6.93013-2.63138z" opacity="1"/><path id="path15" fill="#077d8c" stroke="none" d="M75.98834 177.89121c.02547.21557.05094.43115.13496.96704-2.08176 12.69334-9.11342 20.64387-21.6093 23.56443 2.57137-3.6708 5.05844-7.05186 2.78721-11.79019-.21993-.45883.19663-1.26044.3973-1.87703 1.26533-3.88791-.08077-6.72125-3.45982-8.97976.3994-.73797.77587-1.23868 1.5253-1.88324 1.06154-5.13669 1.7501-10.12954 2.7276-14.9336 1.62044 1.59245 2.82726 3.14676 4.30694 4.3714 4.3384 3.59064 8.78537 7.05011 13.18981 10.56095z" opacity="1"/><path id="path16" fill="#209075" stroke="none" d="M67.52137 100.0173c1.61776-.0696 2.93928-.0105 4.07487.0402 1.52964 19.21253 2.48892 38.38133-.6467 57.60714-3.04733-2.15568-5.51027-4.38347-7.56923-6.70703.84162-1.74107 1.6413-3.38255 1.65857-5.03223.11847-11.31149-.1878-22.63467.24405-33.93109.12464-3.26006-.85767-4.56717-3.48751-5.45507 1.8099-2.13112 3.6198-4.26224 5.72595-6.52192z" opacity="1"/><path id="path17" fill="#7fae31" stroke="none" d="M121.0872 179.01143c-.33031-1.22833-.94528-2.45589-.94862-3.68512-.0582-21.44553-.0462-42.89128-.0231-64.33695.00087-.80706.26705-1.61383.97495-2.49127 2.06534 2.77788 3.56533 5.6263 4.76467 8.75425-.42776 2.57704-.65121 4.87402-.66438 7.17219-.0443 7.72409-.0897 15.44958.008 23.17273.11785 9.32072-1.76448 18.95412 4.00479 27.45759-1.39542 1.00132-2.79082 2.00263-4.76464 3.06307-.82093.27849-1.06344.49783-1.30596.71718 0 0-.37127.25261-.90177.21921-.73496-.0365-.93944-.0397-1.14392-.0429z" opacity="1"/><path id="path18" fill="#95b627" stroke="none" d="M139.01004 165.13707c-1.60605 1.93701-3.21209 3.87401-5.54338 5.82628-1.7058-2.39942-2.9233-4.75247-3.5737-7.25302-.36185-1.39112.16607-3.03638.3956-4.55158.19258-1.27128.74592-2.51513.77503-3.77954.19481-8.46112.19678-16.92781.49028-25.38475.07-2.01765 1.00733-4.00523 1.85544-5.87033 1.8033 1.28553 3.29689 2.43474 4.76224 4.05057.26068 12.63186.54959 24.79712.83849 36.96237z" opacity="1"/><path id="path19" fill="#a6bb27" stroke="none" d="M139.2873 165.06554c-.56616-12.09372-.85507-24.25898-.82533-36.83757.71231-.3808 1.10599-.34827 1.78365-.28339.47444.0382.6649.0441 1.21341.20923 2.43988.37472 4.52171.59024 6.60353.80574.3201.0929.58302.27046.8937.74953.87952 12.97323-1.47294 24.88276-9.66896 35.35646z" opacity="1"/><path id="path20" fill="#88b02a" stroke="none" d="M133.09959 123.98782c-.53839 2.00141-1.47569 3.98899-1.54572 6.00664-.2935 8.45694-.29547 16.92363-.49028 25.38475-.0291 1.26441-.58245 2.50826-.77503 3.77954-.22953 1.5152-.75745 3.16046-.3956 4.55158.6504 2.50055 1.8679 4.8536 3.26486 7.35667-.0369.60239-.49018 1.11638-1.30432 1.85899-.36086.22861-.61345.43605-.61345.43605-.4645.48894-.92899.97789-1.71501 1.57982-6.09082-8.39048-4.20849-18.02388-4.32634-27.3446-.0977-7.72315-.0522-15.44864-.008-23.17273.0132-2.29817.23662-4.59515.89174-7.16284.52803-.27018.98357-.24481 1.02411.0987 2.02467 2.43816 4.00883 4.53277 5.99298 6.62739z" opacity="1"/><path id="path21" fill="#158d7d" stroke="none" d="M61.80523 106.56078c2.62003.86634 3.60234 2.17345 3.4777 5.43351-.43185 11.29642-.12558 22.6196-.24404 33.93109-.01729 1.64968-.81696 3.29116-1.98656 4.99375-2.13822-.59906-3.5445-1.25542-4.94908-2.26917.33186-9.01841.77538-17.67843.85135-26.34169.0097-1.10573-1.89771-2.22829-2.7604-3.68232.6237-2.30178 1.0908-4.26429 1.5579-6.2268.82236-1.39807 1.64472-2.79613 3.02283-4.44464.71871-.60872.88167-.967 1.04462-1.32528 0 0-.0045-.0469-.01432-.0685z" opacity="1"/><path id="path22" fill="#55a154" stroke="none" d="M102.10353 184.61743c-2.8007-.0117-5.60139-.0235-8.56353-.65327.42086-7.40955 1.15076-14.19262 1.53728-20.9952.29232-5.14454.14615-10.31401.61679-15.38788 2.41253.29921 4.4034.51392 6.39613 1.1495-.98393 5.82977 4.11339 11.55926-.85082 16.76896-.0743.078.0279.31677.0352.48107.27722 6.21223.55298 12.42454.82894 18.63682z" opacity="1"/><path id="path23" fill="#175b95" stroke="none" d="M9.80881 211.12163c-5.56355.30826-8.67404-2.3822-9.64355-7.16214-.77882-3.83977 1.26626-6.79878 4.63741-8.57401 3.69847-1.94757 7.16324-1.1091 10.00327 1.79225 4.58875 4.68782 2.381 11.23046-4.99713 13.9439z" opacity="1"/><path id="path24" fill="#63a64b" stroke="none" d="M102.49674 184.67926c-.66917-6.27411-.94493-12.48642-1.22215-18.69865-.007-.1643-.10952-.40308-.0352-.48107 4.96421-5.2097-.13311-10.93919 1.19117-16.91713 1.72386-1.0865 3.1092-1.60394 4.49455-2.12138 1.75068 3.23424 2.54508 5.73108 1.14426 10.15613-1.81244 5.72531.17066 12.64563.48252 19.05324.12262 2.51957.14519 5.044.35978 7.87441-1.9096.60421-3.96565.90024-6.41492 1.13445z" opacity="1"/><path id="path25" fill="#319295" stroke="none" d="M533.91459 195.048c.00031 5.8136.00031 11.14109.00031 16.67376-2.14307.15486-5.44043.66038-8.72015.56419-4.34998-.12763-7.05561-3.7778-7.08393-8.93993-.0378-6.8936 2.01544-9.98507 7.01581-10.42071 1.45471-.12674 2.92981-.0195 4.76483-.0195.0953-1.91011.0353-3.88343.36884-5.78778.12957-.73972 1.14837-1.32367 1.76214-1.9786.61542.65604 1.69538 1.26821 1.76221 1.97606.23266 2.46422.1145 4.9616.12994 7.93248m-11.01275 11.54335c1.8681.72643 3.73614 1.45287 5.60431 2.17931.53259-3.40311 1.35369-6.80325 1.38861-10.21146.008-.81952-2.62024-2.34315-3.98322-2.28584-1.09515.046-2.69141 1.84079-3.02704 3.12991-.52276 2.00777-.16528 4.24472.0173 7.18808z" opacity="1"/><path id="path26" fill="#429b5f" stroke="none" d="M87.09569 129.99968l-2.48614-5.85063c1.01584-2.35504 3.5736-5.38053-.0463-8.94959-.86906-.85685.33518-3.71581.4216-5.66129.26405-5.94538.4657-11.89386.61595-17.84305.0083-.32892-.66827-.67515-1.246-1.2739 1.18878-.70619 2.59749-1.15181 4.3813-1.12064 1.03706 5.79148 2.01213 11.09023 2.28383 16.42478.3612 7.09237.17424 14.21264.09219 21.63907-1.38342 1.84898-2.63624 3.37982-3.9251 4.53236-.05447-.88458-.07291-1.39084-.09133-1.89711z" opacity="1"/><path id="path27" fill="#278b8d" stroke="none" d="M285.0955 198.55364c1.1297-4.91097 4.15949-6.08573 8.37134-5.44567 1.70743.25948 3.45532.25259 5.65301.39786 0 6.75639.73136 13.74771-.22521 20.49992-.80387 5.67409-8.7381 6.8362-13.57178 1.52475 2.89352.1346 5.15243.75092 7.04355.16998 1.58438-.48672 2.73931-2.37147 4.08441-3.63717-.28968-.36644-.57935-.73288-.86905-1.09932-.78137.0582-1.56226.12466-2.34424.17328-6.12299.38084-8.08316-1.41675-8.27756-7.66153-.0466-1.49626.0525-2.99706.13553-4.9221m11.04303 2.17924c-1.05539-1.55267-1.8428-3.50446-3.28882-4.47542-.64157-.4308-3.70248 1.00206-3.78811 1.79234-.32105 2.96302-.13474 6.07032.52087 8.97469.1315.58249 4.15802 1.25404 4.64386.59613 1.18243-1.60126 1.34036-3.95906 1.9122-6.88774z" opacity="1"/><path id="path28" fill="#0f7f8e" stroke="none" d="M104.08162 19.15293c6.19969 1.45853 9.2291 5.88607 9.88533 11.7277.72415 6.4461-2.24778 11.24503-8.69494 13.72744-1.11494-3.56092-1.72378-6.78318-2.27928-10.29777-.28839-1.89346-.6301-3.49457-.94838-5.50637.6947-3.4908 1.36598-6.5709 2.03727-9.651z" opacity="1"/><path id="path29" fill="#4c9e58" stroke="none" d="M91.24272 127.04628c-.04855-7.10828.13841-14.22855-.2228-21.32092-.2717-5.33455-1.24677-10.6333-1.91506-16.34809 2.03376-.84925 4.07386-1.2984 6.53764-1.25677.47794 9.11159-.0694 17.8037.93932 26.31132.31807 2.68266-3.04342 6.59539 1.51998 8.78989-.002.21629.00034.64887-.33084.78375-2.39687 1.10353-4.46256 2.07218-6.52824 3.04082z" opacity="1"/><path id="path30" fill="#2d9571" stroke="none" d="M124.59216 230.26332c-2.28496-1.78084-4.56992-3.56169-6.55184-5.7415 1.10671-1.29834 2.51234-2.13882 2.60707-3.10751.35908-3.67183.35727-7.38497.36967-11.08307.0135-4.01496-.0142-8.03621-.26445-12.03968-.0405-.64743-1.33129-1.21669-2.04413-1.82209 1.57973-1.46393 3.15946-2.92786 5.30423-4.11348 1.07171 1.92462 1.92944 3.55102 2.02412 5.22073.40373 7.11971.87882 14.25874.722 21.37738-.0833 3.78383-1.40433 7.54036-2.16667 11.30922z" opacity="1"/><path id="path31" fill="#57a150" stroke="none" d="M98.10345 123.00542c-4.56505-1.97821-1.20356-5.89094-1.52163-8.5736-1.00872-8.50762-.46138-17.19973-.53466-26.27807 1.43415-.56565 2.88735-.67375 4.77118-.34484 1.24064 1.96763 2.73722 3.4954 2.7435 5.02928.0295 7.20488-.0606 14.4379-.71522 21.60543-.2957 3.23772.98632 8.05193-4.74317 8.5618z" opacity="1"/><path id="path32" fill="#65a64d" stroke="none" d="M98.1018 123.22171c5.73114-.72616 4.44912-5.54037 4.74482-8.77809.65458-7.16753.74472-14.40055.71522-21.60543-.006-1.53388-1.50286-3.06165-2.39349-4.89411 2.01007-.2352 4.10078-.1685 6.55945.05203.38992 9.62156.0688 19.10961.6282 28.54546.18476 3.11675 1.3553 6.06203-.8984 9.2613-3.41621-.47884-6.38583-1.20556-9.35546-1.93228 0-.00001-.002-.43259-.00034-.64888z" opacity="1"/><path id="path33" fill="#4b9e5d" stroke="none" d="M95.27242 147.49658c-.04899 5.15837.09718 10.32784-.19514 15.47238-.38653 6.80258-1.11642 13.58565-1.86265 20.75843-2.72199-.098-5.28005-.57718-8.09227-1.34369-.05097-.32041.15222-.35355 1.05244-.45085 1.43554-1.1933 2.7856-2.30722 2.8141-3.45398.19686-7.92398.0083-15.85714.17772-23.78235.0768-3.5927.68833-7.17398 1.35257-10.6469 1.78128 1.22469 3.26725 2.33583 4.75323 3.44696z" opacity="1"/><path id="path34" fill="#06718e" stroke="none" d="M54.21576 180.01294c3.40198 2.02127 4.74808 4.85461 3.48275 8.74252-.20067.61659-.61723 1.4182-.3973 1.87703 2.27123 4.73833-.21584 8.11939-3.15222 11.75408-2.23826.56028-4.4256.78315-6.94372.86557.3779-6.62697 1.08658-13.11351 2.0873-20.19365 1.83577-1.41092 3.37948-2.22823 4.92319-3.04555z" opacity="1"/><path id="path35" fill="#0d6095" stroke="none" d="M98.07535 45.88012c-6.72852-1.33869-10.8461-5.26588-11.94585-11.39353-1.0514-5.85817 1.6432-10.77254 8.50174-14.5172-1.98939 4.49577 2.8296 6.10835 3.44143 9.40247-.27339.48268-.5291.63495-1.13504.82524-.41658.75896-.55374 1.361-.70228 1.91264-.01136-.05039.09038-.0324-.18578.09742.0415.62307.35916 1.1163.9082 1.7679.95198.73736 1.6726 1.31634 2.03634 1.96344-1.90485 2.03335-3.45281 3.9986-5.07586 6.05915l4.1571 3.88247z" opacity="1"/><path id="path36" fill="#25898b" stroke="none" d="M335.17265 193.60309c2.46957-.38912 4.57516-.57961 6.9068-.79056l1.71524-7.88921c.81161.0899 1.62326.17978 2.43488.26967 0 4.3183-.072 8.63813.0202 12.95446.0926 4.33772.34863 8.67196.54623 13.31866-5.54901 1.95091-12.11551 1.22867-14.09683-1.99194-2.28009-3.70629-1.14249-12.15801 2.47351-15.87108m2.65262 15.54799c1.65603-.7141 4.65915-1.31527 4.73016-2.16228.27768-3.31177.48136-7.14002-.94943-9.92136-1.12073-2.17871-5.29443-1.84466-5.78375 1.17203-.54963 3.3884.71127 7.07045 2.00302 10.91161z" opacity="1"/><path id="path37" fill="#349294" stroke="none" d="M235.34185 210.14911c-3.19268 3.44194-3.60394 1.09183-3.64755-1.5036-.0813-4.84282-.0234-9.68799-.0234-14.90631 2.25746-.19777 5.86649-.73729 9.47946-.76523 3.35814-.026 5.13132 2.17943 5.31908 5.40425.21174 3.63695.27916 7.29764.0947 10.93205-.0491.96758-1.25029 1.8767-1.92252 2.81265-.57078-1.03595-1.52809-2.0335-1.6356-3.11549-.26141-2.63016.25043-5.3793-.28597-7.92529-.36128-1.7148-1.79286-4.29434-3.07185-4.50484-2.91003-.4789-4.34093 1.65483-4.24774 4.69159.0864 2.8168-.005 5.63905-.0587 8.88022z" opacity="1"/><path id="path38" fill="#2e9091" stroke="none" d="M621.51249 193.10483c1.70313 2.05389 3.72467 3.87475 4.13556 6.00612.6507 3.37498.34156 6.96362.1706 10.44871-.044.89722-1.08899 1.74535-1.67414 2.61603-.67047-.91997-1.83368-1.79643-1.91949-2.76804-.26264-2.97418.24408-6.04727-.26636-8.95591-.26837-1.52927-2.03448-2.7957-3.12427-4.18081-1.47961 1.41849-3.69055 2.59583-4.25756 4.31524-.74305 2.25337.003 4.95547-.26642 7.4237-.1543 1.41487-1.05054 2.74884-1.61274 4.11925-.6148-1.31116-1.64746-2.58496-1.76855-3.94022-.41785-4.67546-.51752-9.37931-.75372-14.39921 3.07794-.21919 7.00549-.4989 11.33709-.68486z" opacity="1"/><path id="path39" fill="#2e9091" stroke="none" d="M352.50816 195.78714c2.3703-3.97458 6.38043-3.68842 9.23059-2.23277 2.03186 1.03773 3.29419 4.54484 3.89661 7.17939.78524 3.43418.57797 7.09531.81527 10.94248-2.83877.20538-6.25845.65425-9.67639.64131-3.1802-.012-5.40265-1.63132-5.69754-5.06808-.31573-3.67939 1.71274-5.58672 5.10669-6.16121 1.77884-.30109 3.61426-.26819 5.65213-.40096.51883-3.72542-1.17734-4.9285-4.49185-4.68266-1.56073.11578-3.13202.089-4.83551-.2175m2.70538 12.71239c1.81165.13331 3.88312.85074 5.34604.20006 1.02051-.45389 1.20719-2.78238 2.04978-5.02947-3.93558.6582-8.25434-1.83679-7.39582 4.82941z" opacity="1"/><path id="path40" fill="#2e9091" stroke="none" d="M313.04911 206.87328c-.0641-3.02904-.78372-5.97721.16224-8.22419.94482-2.24432 3.3666-4.98237 5.48852-5.32013 2.401-.38215 5.71301 1.09655 7.62421 2.85688 1.27597 1.1752 1.18771 4.31544.8605 6.44578-.0953.62056-3.09832.94547-4.79831 1.12697-1.77383.18938-3.58365.0422-5.37146.0422-.0297 3.98435-.0297 3.98435 10.13803 6.41644-2.16607.72524-4.28915 1.84546-6.50784 2.08678-3.69156.40149-6.41376-1.27339-7.59589-5.43078m9.17557-10.67728c-3.60504-.90576-5.64822.28621-5.85187 4.48887h8.03669c-.57822-1.58032-1.03153-2.81919-2.18482-4.48887z" opacity="1"/><path id="path41" fill="#2c8e8f" stroke="none" d="M546.1547 209.19659c2.28455-.23959 4.15986-.48968 6.22181-.76466-1.18891 3.53299-5.22998 4.91158-9.21924 3.52217-3.99707-1.39212-5.72351-6.5217-4.38587-13.03102.88874-4.32462 3.83442-6.43651 8.33283-5.9742 4.19513.43115 7.35986 4.35678 6.3988 8.415-.23425.98892-1.86633 2.17369-2.98108 2.32125-2.59301.34322-5.26239.10941-7.90081.10941-.31421.42772-.62836.85545-.94257 1.28317 1.35559 1.36946 2.71118 2.73892 4.47613 4.11888m-2.68121-12.46469c-.4906 1.21652-.98114 2.43305-1.58649 3.93422h8.09144c-.0207-4.498-2.2884-5.34723-6.50495-3.93422z" opacity="1"/><path id="path42" fill="#2e9091" stroke="none" d="M398.20994 205.47183c.45905 2.27475.91886 4.12518 1.43616 6.20714-3.642.20253-7.24576.6273-10.83649.53642-3.27386-.0829-5.78036-2.34773-5.1586-5.38406.44232-2.16005 2.97641-4.21153 5.05243-5.60111 1.31229-.87834 3.49951-.4495 5.27381-.60517-.0138-3.0931-.0138-3.0931-9.19913-4.66492 2.05667-3.77381 5.61691-3.61258 8.48865-2.74291 1.91632.58037 3.82339 2.9309 4.63403 4.93451.81372 2.01114.26273 4.57444.30914 7.3201m-9.12091-1.44372l-1.39654 4.42373c1.52093.33835 3.51275 1.42792 4.45245.83895 1.40933-.88335 2.08035-2.94457 3.66476-5.45436-3.02438 0-4.46807 0-6.72067.19168z" opacity="1"/><path id="path43" fill="#349294" stroke="none" d="M221.62613 212.27685c-8.05613-.0583-10.05192-2.61038-9.52649-11.64437.32289-5.5517 3.42031-8.2892 8.71078-7.69863 4.2366.47293 7.29486 4.45719 6.18187 8.53446-.26973.98813-1.91821 2.10087-3.05212 2.25035-2.55228.33644-5.17935.10556-8.10442.10556.74156 8.34384 6.72192 3.88841 10.64568 6.17189-1.49198.74283-2.98397 1.48567-4.8553 2.28074m-.27329-16.11727c-3.63451-.79055-5.64549.38096-5.5863 4.5776h7.94682c-.66687-1.69728-1.15057-2.92839-2.36052-4.5776z" opacity="1"/><path id="path44" fill="#349294" stroke="none" d="M597.59385 212.35056c-5.95184-2.01476-7.93115-6.65854-6.23858-13.79714 1.00622-4.24394 3.9754-6.18809 8.57312-5.61346 4.19799.52464 7.20581 4.56187 6.05395 8.61543-.27502.96773-1.93835 2.00961-3.07953 2.16548-2.42138.33069-4.91931.10088-7.35455.10088-.22803 5.57228-.14178 5.61374 9.1424 4.83677-.66736 3.38393-.66736 3.38393-7.09681 3.69204m-1.66803-11.50248h6.61231a24596.181 24596.181 0 0 1 .66315-1.93615c-1.65265-1.00095-3.34412-2.80248-4.94446-2.72487-1.08942.0528-2.05139 2.73568-2.331 4.66102z" opacity="1"/><path id="path45" fill="#349294" stroke="none" d="M262.74467 203.82693c-2.74625.006-5.04745.006-7.34869.006-.34357.45214-.68714.90425-1.0307 1.35639 1.3186 1.31956 2.44159 3.34994 4.00494 3.78018 1.98923.54744 4.33505-.2009 7.69425-.49161-2.3545 4.00406-5.5319 4.49683-8.047 3.7096-2.49704-.78159-5.52025-2.76017-6.43262-4.98485-1.09633-2.67326-.65674-6.24935-.0649-9.27464.78431-4.00899 4.56422-5.79303 9.00453-4.92568 3.65332.71364 6.24994 4.36928 5.42563 8.22228-.21732 1.01571-1.80307 1.73866-3.20548 2.60218m-5.00708-7.88145c-1.15906 1.20287-2.31815 2.40573-3.4772 3.6086.28781.36764.57562.73529.86346 1.10293h6.74616l.96432-1.30938c-1.41525-1.14917-2.83053-2.29834-5.09674-3.40215z" opacity="1"/><path id="path46" fill="#349294" stroke="none" d="M504.47685 207.36768c3.26599.86505 6.32513 1.34632 9.38434 1.8276l.62292.97415c-2.10718.74427-4.38757 2.38259-6.27951 2.01606-2.61264-.50615-6.37921-2.02933-7.05447-4.00473-1.14756-3.35686-1.01416-7.61004-.0558-11.11367 1.22965-4.49548 8.51163-5.98051 11.56796-2.46403 1.53601 1.76726 2.00995 4.78315 2.08496 7.26103.0182.60422-3.45532 1.24239-5.27014 1.99356-1.87988.77812-6.07992-2.2289-5.00024 3.51003m-.2724-9.43445c.30643 6.56918 4.70685 1.35521 6.99853 3.10447-.54962-5.58561-1.77667-6.18002-6.99853-3.10447z" opacity="1"/><path id="path47" fill="#349294" stroke="none" d="M579.30259 209.09821c2.4784-.17345 4.53955-.40246 6.73651-.64655-1.12927 3.59268-5.53338 5.02493-9.55908 3.41121-3.79181-1.51996-5.51953-7.12926-4.05835-13.1763 1.00196-4.14667 4.23963-6.59389 8.49341-5.62473 2.00183.4561 4.35339 1.95153 5.36694 3.67121 2.66077 4.51432.95795 7.04643-4.23388 7.09564-1.80103.0171-3.60224.003-7.27722.003 1.93261 2.44783 3.02356 3.82953 4.53167 5.26679m1.03205-13.17479c-3.30622-.0972-4.65753 1.39405-4.17005 4.64955h8.85559c-1.8327-2.13344-2.86224-3.33199-4.68554-4.64955z" opacity="1"/><path id="path48" fill="#1e8f81" stroke="none" d="M118.71693 196.4946c.70439.58027 1.9952 1.14953 2.03568 1.79696.2503 4.00347.27791 8.02472.26445 12.03968-.0124 3.6981-.0106 7.41124-.36967 11.08307-.0947.96869-1.50036 1.80917-2.73238 2.78207-6.67959-7.7679-6.87312-16.88541-.36405-26.27364.80521-.59211.99139-.97108 1.17756-1.35003 0 0-.003-.053-.0116-.0781z" opacity="1"/><path id="path49" fill="#3d9962" stroke="none" d="M124.74856 230.50827c.60594-4.01381 1.92693-7.77034 2.01027-11.55417.15682-7.11864-.31827-14.25767-.722-21.37738-.0947-1.66971-.95241-3.29611-1.69257-5.25363.88482-.94632 2.00309-1.58145 3.69487-1.92302 1.07064 1.73425 1.90967 3.15388 1.99984 4.6196.25612 4.16348.20648 8.34578.0493 12.78697-1.73587 3.13091-1.31606 5.61203 1.09094 8.04111-.0927 2.18803-.42038 4.12393.10258 5.79338 1.45994 4.66067-.56967 9.01105-4.77265 9.54286-.53472-.14359-1.06943-.28717-1.76055-.67572z" opacity="1"/><path id="path50" fill="#07708a" stroke="none" d="M58.20265 162.77006c-.68856 4.99286-1.37712 9.98571-2.42026 14.74283.2596-5.13189-2.26823-7.76513-6.69096-9.03364.69749-3.56975 1.21819-7.18668 2.1543-10.69272.62939-2.35727-2.32398-7.56241-5.87621-9.40494-.08205-.31003.07658-.37355.8926-.34141 2.72492.3128 4.79244.52995 6.8762 1.13228 1.69892 4.78932 3.38162 9.19346 5.06433 13.5976z" opacity="1"/><path id="path51" fill="#2c8e8f" stroke="none" d="M440.7891 211.86406s-.3688.0285-.78973.12663c-.58539.16818-.74982.23828-.91421.30838-.45511.0155-.91022.031-2.05735-.007-1.44092-.0987-2.18985-.1436-2.93878-.18852 0-.00001-.32507-.19993-.67114-.43616-.68234-.34689-1.01859-.45758-1.35483-.56826-.21622-.26233-.43246-.52465-.90869-1.17792-.50632-.61754-.75263-.84412-.99896-1.07068 0 0-.0661-.44649-.16584-.91968-.28411-.78073-.4685-1.08825-.65286-1.39578.007-2.41261.0146-4.82523.22925-7.83286.27286-.96977.33832-1.34452.40378-1.71926 1.94986-3.82238 5.31082-4.55742 9.10425-3.91895 3.79413.6386 5.6571 3.52081 5.56717 6.92508-.093 3.51976-1.30585 7.00995-2.54044 10.84631-.77826.56516-1.04495.79706-1.31162 1.02895m.43961-9.33086c-.003-3.08369-.0162-6.38649-4.26279-6.36061-3.54086.0216-4.05609 2.80066-3.96591 5.63977.0958 3.01561-.82403 6.80379 3.82987 7.21674 3.99682.35469 4.38101-2.60854 4.39883-6.4959z" opacity="1"/><path id="path52" fill="#25898b" stroke="none" d="M456.98881 192.92526c6.59076 1.65094 9.14465 7.53195 6.74567 14.6113-1.33643 3.9438-5.90814 5.90546-10.23215 4.39044-3.94183-1.38113-6.18933-5.71904-5.33118-11.86374.62848-4.5 3.66574-7.0473 8.81766-7.138m-2.78515 15.66393c2.61929.99765 5.566.94716 5.95404-2.09775.40078-3.14487.0233-6.94289-1.49515-9.61267-1.34723-2.36887-5.85672-.54199-6.13303 2.65085-.24185 2.79408.64887 5.68618 1.67414 9.05957z" opacity="1"/><path id="path53" fill="#80ae33" stroke="none" d="M146.16954 191.96223c.9958.7569 1.99159 1.51381 2.73263 2.8514-.62308 10.69572-1.02395 20.81001-1.26349 30.9281-.0119.50471 1.37664 1.04257 2.1131 1.565-.95709.89653-1.91418 1.79305-3.56235 2.52509-1.15959-4.45136-1.49731-8.75865-2.16182-13.01494-.26055-1.66875-1.25334-3.22316-1.91474-5.20247-.003-1.11906-.004-1.86534.33877-2.80873.77776-4.16412 1.06482-8.15532 1.71431-12.08663.27277-1.65089 1.31253-3.17504 2.00359-4.75682z" opacity="1"/><path id="path54" fill="#088982" stroke="none" d="M56.03761 118.96522c1.01928 1.11476 2.92669 2.23732 2.917 3.34305-.07598 8.66326-.5195 17.32328-1.18124 26.33034-1.13164-.0124-1.93171-.3708-2.8617-.97388-.86867-.74086-1.60743-1.23704-2.34619-1.73324-.10788-.43587-.21576-.87174-.0381-1.96453.35922-2.64413.2508-4.65832.54036-6.61357.90947-6.14131 1.96866-12.26045 2.96987-18.38817z" opacity="1"/><path id="path55" fill="#95b627" stroke="none" d="M150.03614 227.2348c-1.02082-.4505-2.4094-.98836-2.39746-1.49307.23954-10.11809.64041-20.23238 1.30896-30.59244 1.47419.66513 2.64815 1.57529 3.97605 3.03903.40202.95459.6501 1.35559.89816 1.7566.15717.10827.31433.21655.26486.77279-.95158 1.98204-2.38597 3.54642-2.32013 5.04486.26102 5.94112.99121 11.86159 1.54753 17.78974-.99784 1.20352-1.99571 2.40702-3.27797 3.68249z" opacity="1"/><path id="path56" fill="#298c8c" stroke="none" d="M426.16337 197.01639c-.42032.95088-.84064 1.90176-1.5274 3.43387-.65485 1.91656-1.04325 3.2519-1.43161 4.58723 0 0-.22003.30135-.48322.70027-.40332 1.02495-.54342 1.65099-.68356 2.27703 0 0-.19577.20616-.41028.53672-.28824.70577-.36203 1.08097-.43579 1.45618-2.25757 3.40643-4.16232 2.95-5.52753-.63426-1.65729-4.35115-3.22934-8.73967-4.64364-13.17412-.26987-.84627.3645-1.98094.58169-2.98256.82798.59963 2.08655 1.02574 2.41007 1.82861 1.47278 3.65494 2.68252 7.41587 4.45596 12.4776 1.79358-4.98446 3.03314-8.56796 4.37942-12.1109.65671-1.72827 1.37064-3.83369 3.45603-.43348-.0868 1.1331-.11347 1.58546-.14014 2.03781z" opacity="1"/><path id="path57" fill="#298c8c" stroke="none" d="M372.53129 188.16656c1.38812 1.12412 2.43122 2.45691 4.17054 4.67925.28649.10786 1.81378.68288 3.34106 1.25787-.0366.36614-.0733.73227-.1099 1.09842l-4.62933 1.59284c.0569 5.29297-2.711 11.60986 6.14124 13.51529-4.79651 2.82373-8.35572 1.74897-9.3433-2.49936-.55426-2.38431-.22463-4.96085-.58761-7.40711-.28638-1.92993-1.02237-3.79315-1.67487-6.09622.61887-1.56416 1.48303-3.74823 2.69217-6.14098z" opacity="1"/><path id="path58" fill="#369697" stroke="none" d="M561.94102 203.09589c-.002 2.45082.1695 4.4618-.0785 6.41967-.11945.94295-1.0293 1.78577-1.58124 2.67392-.71325-.89294-1.96728-1.74305-2.04193-2.68657-.26086-3.29521.0312-6.63197-.17926-9.93432-.11871-1.86444-.80945-3.69242-1.30194-5.7896h12.96924l.60058 1.48807c-3.65838 1.61656-9.98822.6355-8.38696 7.82883z" opacity="1"/><path id="path59" fill="#25898b" stroke="none" d="M467.97032 193.65135c2.7438-.37451 5.21164-.64636 7.66479-.54898 1.64032.0651 3.25983.65505 5.26947 1.09316-.89572 1.32313-1.04428 1.78982-1.2572 1.82132-7.15915 1.05903-7.02505 1.05719-7.28088 9.26321-.0711 2.28226-1.20014 4.53152-1.84381 6.79593-.50266-2.2444-1.14402-4.46848-1.47678-6.73778-.55637-3.79384-.91562-7.61658-1.07559-11.68686z" opacity="1"/><path id="path60" fill="#298c8c" stroke="none" d="M270.70543 207.58391c-.24689-4.80078-.4892-9.14926-.7699-14.18616 3.44543 3.23785 8.27978-3.14836 12.46805 1.34549-.53919.75084-.69303 1.20071-.91065 1.23402-7.27032 1.11348-7.27145 1.10765-7.28317 8.62597-.002 1.15959.22003 2.37484-.0556 3.46472-.3469 1.37201-1.09912 2.64151-1.67649 3.95521-.58926-1.32898-1.17849-2.65796-1.77227-4.43925z" opacity="1"/><path id="path61" fill="#529f5a" stroke="none" d="M130.31619 207.54033c-.0707-4.17488-.0211-8.35718-.27722-12.52066-.0902-1.46572-.9292-2.88535-1.66954-4.61244 2.7754-.69696 5.79405-1.10749 8.98771-1.09655-.63945 5.67371-1.4539 10.92592-2.63351 16.26824-1.71259.71385-3.06001 1.33763-4.40744 1.96141z" opacity="1"/><path id="path62" fill="#a8bd32" stroke="none" d="M153.6136 223.35062c-.85581-5.72646-1.586-11.64693-1.84702-17.58805-.0658-1.49844 1.36855-3.06282 2.42673-4.77917 5.0146 5.93805 4.79997 14.02054-.57971 22.36722z" opacity="1"/><path id="path63" fill="#529f5a" stroke="none" d="M126.81593 231.46793c3.89616-.81575 5.92577-5.16613 4.46583-9.8268-.52296-1.66945-.19529-3.60535.21535-5.69634 1.50363.12848 2.53606.53363 3.6738 1.17893.37712.45222.64891.66434.92041 1.34021-.001 2.25282-.23019 4.07841.0489 5.82274.46004 2.87573 1.24856 5.69889 1.89862 8.54423-3.63867-.35968-7.27736-.71936-11.22287-1.36297z" opacity="1"/><path id="path64" fill="#e4eaa7" stroke="none" d="M177.32528 117.88351c1.73532-5.67051 4.5727-11.21733 5.71488-17.09365 1.55583-8.00452-1.61325-15.32551-5.88289-22.45357 2.29033 3.59075 5.60043 7.27277 6.74801 11.5368 2.73487 10.16181 1.41697 19.90338-6.58 28.01042z" opacity="1"/><path id="path65" fill="#116e91" stroke="none" d="M98.16118 29.16035c-.70034-3.0826-5.51933-4.6952-3.17065-9.26359 2.80114-.6267 5.60776-.85783 8.75274-.9164-.33294 3.25267-1.00422 6.33278-2.08422 9.7738-1.43843.37602-2.46815.3911-3.49787.4062z" opacity="1"/><path id="path66" fill="#74ab41" stroke="none" d="M142.11497 211.98723c.6593 1.60649 1.65209 3.1609 1.91264 4.82965.66451 4.25629 1.00223 8.56358 1.82592 13.04758-1.45192 1.06971-3.25901 1.94233-5.41013 2.30998-.35278-5.06873-.36154-9.63248-.32774-14.54738.69482-2.11403 1.34708-3.87694 1.99931-5.63983z" opacity="1"/><path id="path67" fill="#74ab41" stroke="none" d="M145.98298 191.64902c-.5045 1.89499-1.54426 3.41914-1.81703 5.07003-.64949 3.93131-.93655 7.92251-2.10025 12.12287-.98561.27226-1.24101.31117-1.62892.17335-.25809-.44815-.32489-.73335-.33144-1.43493.0345-6.31023.0676-12.21784.10063-18.12545 1.86348.62697 3.72698 1.25394 5.77701 2.19413z" opacity="1"/><path id="path68" fill="#096b8e" stroke="none" d="M98.4758 45.99093c-1.66677-1.29348-2.9331-2.47615-4.55755-3.99328 1.62305-2.06056 3.17101-4.0258 5.38705-6.12686 1.65675-.51327 2.64543-.8907 3.6341-1.26814.60883 3.22224 1.21767 6.4445 1.97932 10.01532-1.91228.72696-3.97738 1.10536-6.44292 1.37296z" opacity="1"/><path id="path69" fill="#409c9d" stroke="none" d="M495.85783 198.25897c-.004 4.09166.10254 7.72385-.0922 11.33985-.0482.89433-1.07355 1.73607-1.64969 2.60199-.68009-.90528-1.89362-1.78017-1.94727-2.72114-.22473-3.94331-.26178-7.91592-.0271-11.85754.0929-1.56006 1.07273-3.06729 1.64878-4.59857.68878 1.59 1.37759 3.17999 2.0675 5.23541z" opacity="1"/><path id="path70" fill="#6ea954" stroke="none" d="M139.96515 189.30093c.20777 6.06157.17472 11.96918-.17116 18.11502-1.77697-.48355-3.24108-1.20533-4.7052-1.92712.81445-5.25223 1.6289-10.50444 2.68605-16.04361.81161-.29069 1.38055-.29446 2.19031-.14429z" opacity="1"/><path id="path71" fill="#e4eaa7" stroke="none" d="M169.08128 70.56115c-7.29713-2.49374-14.65227-6.05344-22.78824-3.54632-4.67366 1.44019-9.06419 3.79923-13.92844 5.816 2.22834-1.8 4.55207-4.32918 7.42283-5.42395 10.09315-3.84904 20.0251-3.72264 29.29385 3.15427z" opacity="1"/><path id="path72" fill="#369697" stroke="none" d="M56.1942 118.62595c-1.1578 6.46699-2.21698 12.58613-3.12646 18.72744-.28956 1.95525-.18114 3.96944-.5102 6.2735-2.88119-10.71982-.56779-20.97732 4.92207-31.00223-.19461 1.737-.66171 3.69951-1.2854 6.00129z" opacity="1"/><path id="path73" fill="#63a64b" stroke="none" d="M140.0731 217.97819c.009 4.56377.0175 9.12752.0354 14.12404-.44593.55075-.90097.66874-1.71285.75769-1.0069-2.87436-1.79542-5.69752-2.25546-8.57325-.27905-1.74433-.05-3.56992.34982-5.82415 1.46036-.47154 2.52173-.47793 3.5831-.48433z" opacity="1"/><path id="path74" fill="#25898b" stroke="none" d="M304.81504 199.1441c.18564-2.31643.37021-4.15606.5915-6.36132 3.59463 2.5646 3.93103 15.78015.59683 19.91708-2.23334-4.48251-.70459-8.91788-1.18833-13.55576z" opacity="1"/><path id="path75" fill="#a6bb27" stroke="none" d="M155.47578 129.63379c4.32674-1.94058 9.03946-3.79731 14.12503-5.66716-4.3311 1.90827-9.03508 3.82965-14.12503 5.66716z" opacity="1"/><path id="path76" fill="#e4eaa7" stroke="none" d="M120.10228 91.92093c-.53143-.31196-1.06286-.62392-1.80516-1.17583 1.85678-3.38819 3.92441-6.53642 6.32624-9.75128-.70341 3.23342-1.74102 6.53348-3.02918 10.26605-.66434.50868-1.07812.58487-1.4919.66106z" opacity="1"/><path id="path77" fill="#369697" stroke="none" d="M52.3674 146.31784c.93684.10985 1.6756.60603 2.37179 1.56815-.56741.61103-1.09226.75615-1.6171.90127-2.06753-.21713-4.13505-.43428-6.60471-.72386 1.6159-.50137 3.63392-.93028 5.85003-1.74556z" opacity="1"/><path id="path78" fill="#e4eaa7" stroke="none" d="M129.04371 75.24493c-.79132 1.6261-1.93776 3.2105-3.39045 4.90572.8076-1.57525 1.92146-3.26133 3.39045-4.90572z" opacity="1"/><path id="path79" fill="#e4eaa7" stroke="none" d="M173.10348 73.54449c-.97964-.32773-2.01802-.99472-3.18074-1.95842.95778.3419 2.03989.98053 3.18074 1.95842z" opacity="1"/><path id="path80" fill="#d6f4f5" stroke="none" d="M423.57685 204.93906c.0159-1.2369.40427-2.57224 1.02753-4.17595-.0617 1.18025-.3584 2.62887-1.02753 4.17595z" opacity="1"/><path id="path81" fill="#075c94" stroke="none" d="M38.67366 201.4575c1.24642.0242 2.73283.33825 4.31672 1.03206-1.29393.006-2.68532-.36827-4.31672-1.03206z" opacity="1"/><path id="path82" fill="#e4eaa7" stroke="none" d="M177.09562 77.6618c-.60794-.15734-1.23648-.6289-1.86639-1.41903.61435.15589 1.23009.63035 1.86639 1.41903z" opacity="1"/><path id="path83" fill="#d6f4f5" stroke="none" d="M434.26582 212.32652c.57214-.17833 1.32107-.13339 2.42618.0319-.51233.14401-1.38086.16769-2.42618-.0319z" opacity="1"/><path id="path84" fill="#075c94" stroke="none" d="M41.69538 148.84103c-.50373.37937-1.37264.73629-2.62747 1.06627.4968-.38084 1.37955-.73478 2.62747-1.06627z" opacity="1"/><path id="path85" fill="#389965" stroke="none" d="M74.60305 94.71033c-.13886.36376-.58208.78381-1.36225 1.2031.128-.3828.59295-.7648 1.36226-1.2031z" opacity="1"/><path id="path86" fill="#a8bd32" stroke="none" d="M153.84114 199.69015c-.26735-.14624-.51543-.54724-.7696-1.19671.25892.14831.5239.54513.7696 1.19671z" opacity="1"/><path id="path87" fill="#d6f4f5" stroke="none" d="M426.37071 196.8851c-.18067-.32106-.15399-.77342.024-1.53357.16198.26224.1726.83228-.024 1.53357z" opacity="1"/><path id="path88" fill="#d6f4f5" stroke="none" d="M422.31016 207.81885c-.13244-.4301.008-1.05614.39533-1.89521.12408.42441.0007 1.06183-.39533 1.89521z" opacity="1"/><path id="path89" fill="#d6f4f5" stroke="none" d="M441.06688 211.84998c-.0111-.21781.25558-.44971.79055-.72175.008.20913-.25241.45839-.79055.72175z" opacity="1"/><path id="path90" fill="#d6f4f5" stroke="none" d="M421.42033 209.82155c-.15506-.18907-.0813-.56427.21771-1.12831.1539.18818.0825.56518-.21771 1.12831z" opacity="1"/><path id="path91" fill="#d6f4f5" stroke="none" d="M430.19767 209.10391c.20407-.0271.45038.19948.73975.68021-.2038.0273-.45062-.19962-.73975-.68021z" opacity="1"/><path id="path92" fill="#d6f4f5" stroke="none" d="M432.21464 211.32687c.18466-.11734.52091-.007 1.01306.32483-.18322.11493-.52237.009-1.01306-.32483z" opacity="1"/><path id="path93" fill="#a6bb27" stroke="none" d="M174.45143 120.16609c-.0949-.22352.0789-.55817.52453-.99862.096.2253-.0799.55641-.52453.99862z" opacity="1"/><path id="path94" fill="#389965" stroke="none" d="M75.75595 93.88492c.0566.2455-.16744.53615-.67575.86381-.05781-.24821.16863-.53344.67575-.86381z" opacity="1"/><path id="path95" fill="#d6f4f5" stroke="none" d="M439.20601 212.42737c.0435-.1984.20797-.2685.64059-.33243.006.1577-.25711.30922-.64059.33243z" opacity="1"/><path id="path96" fill="#a6bb27" stroke="none" d="M175.44239 119.0797c-.0849-.23674.10775-.54472.56565-.94278.0808.23047-.10364.55101-.56565.94278z" opacity="1"/><path id="path97" fill="#209075" stroke="none" d="M61.54255 106.73412c.11405.25339-.04891.61167-.5086 1.05593-.12064-.25969.05548-.60536.5086-1.05593z" opacity="1"/><path id="path98" fill="#e4eaa7" stroke="none" d="M171.16223 123.81074c-.25147-.14724-.23014-.31962.0966-.71725.30545-.22527.79654-.15973.79654-.15973-.20679.28395-.41359.5679-.89317.87698z" opacity="1"/><path id="path99" fill="#d6f4f5" stroke="none" d="M429.30235 206.81531c.21872.027.40311.33453.57733.91815-.21066-.0285-.41116-.33307-.57733-.91815z" opacity="1"/><path id="path100" fill="#95b627" stroke="none" d="M131.3495 173.41641c-.10945-.0544.14314-.26181.21371-.30285.0706-.041-.10424.35722-.21371.30285z" opacity="1"/><path id="path101" fill="#d6f4f5" stroke="none" d="M429.74858 197.17461c.1557.1828.0902.55755-.19342 1.12571-.1547-.18229-.0912-.55804.19342-1.12571z" opacity="1"/><path id="path102" fill="#6fa947" stroke="none" d="M123.39478 178.84082c-.0194-.22507.22314-.44441.71511-.69464.0152.21287-.219.45662-.71511.69464z" opacity="1"/><path id="path103" fill="#2d9571" stroke="none" d="M118.42989 196.66923c.11246.28243-.0737.6614-.59458 1.09995-.12448-.29474.0857-.64908.59458-1.09995z" opacity="1"/><path id="path104" fill="#6fa947" stroke="none" d="M121.08935 179.22641c.20233-.21181.40681-.20865.91727-.16872.0782.29665-.14951.55651-.64385.81501-.26657-.001-.27126-.43132-.27342-.64629z" opacity="1"/><path id="path105" fill="#e4eaa7" stroke="none" d="M173.3647 121.95626c-.0852-.23349.0822-.52268.50518-.86251.0862.23518-.0832.521-.50518.86251z" opacity="1"/><path id="path106" fill="#e4eaa7" stroke="none" d="M131.75605 72.98692c.23606.30975.078.58426-.4887.7993-.20733-.30796-.0396-.56631.4887-.7993z" opacity="1"/><path id="path107" fill="#a6bb27" stroke="none" d="M172.14679 122.72516c-.0914.2086-.58248.14306-.82857.11465.0007-.24583.24753-.46324.74133-.72711.247-.0465.17862.40386.0872.61246z" opacity="1"/><path id="path109" fill="#668703" stroke="none" d="M133.40931 124.12413c-2.29387-2.23093-4.27803-4.32554-5.92061-6.77478 3.22991-.60078 3.37619-1.9193 3.09414-4.71752-.45018-4.4664.27679-9.05145.76246-13.62644.42909-.05179.60173-.06347.77437-.07514 1.81035 1.92034 3.62071 3.84068 5.74726 6.2265.96284 1.23772 1.60951 2.00997 2.25619 2.78221a4671.97004 4671.97004 0 0 1 1.81198 3.22223c1.27013 2.27257 2.25604 4.03777 3.24197 5.80296.0212.46529.0423.93056.14681 1.95031.24971.80985.48384.95925.78572 1.00265.0414.182.0828.36399.14818 1.17881.63844 2.38933 1.25285 4.14582 1.86726 5.90233-.009.43629-.0189.87258-.0454 1.63508-2.09892.11072-4.18075-.1048-6.71411-.65814-.769-.2462-1.08647-.15459-1.40393-.063-.39366-.0325-.78734-.065-1.47142-.15087-1.784-1.20248-3.27759-2.35169-5.08089-3.63722z" opacity="1"/><path id="path111" fill="#5c8403" stroke="none" d="M131.08886 99.04549c-.22923 4.53489-.9562 9.11994-.50602 13.58634.28205 2.79822.13577 4.11674-3.13468 4.37397-.38209.0111-.83763-.0143-1.065-.0236-1.72736-2.85777-3.22735-5.70619-4.99068-8.77553-.27722-.97161-.29111-1.72229-.41191-3.07475-.29522-.88088-.54902-1.07387-.86831-1.18077-.002-3.69948-.003-7.39895-.007-11.5643.41108-.54207.82486-.61825 1.54798-.74788 2.16911 1.32152 4.02889 2.69648 6.35019 4.45727 1.00325.56947 1.545.75312 2.08675.93677 0 0 .004-.03803.0225.2723.33806.78696.65727 1.26359.9765 1.74022z" opacity="1"/><path id="path112" fill="#a6bb27" stroke="none" d="M145.40965 116.74918c-1.21851-1.55022-2.20442-3.31542-3.20712-5.43047 1.1354 1.50527 2.28755 3.36039 3.20712 5.43047z" opacity="1"/><path id="path113" fill="#a6bb27" stroke="none" d="M148.38624 126.76832c-.87561-1.52658-1.49002-3.28307-2.06204-5.40042.80267 1.48292 1.56296 3.3267 2.06204 5.40042z" opacity="1"/><path id="path114" fill="#a6bb27" stroke="none" d="M140.10984 107.59389c-.6334-.42717-1.28007-1.19942-1.94702-2.29163.63108.43553 1.28241 1.19104 1.94702 2.29163z" opacity="1"/><path id="path115" fill="#a6bb27" stroke="none" d="M131.3453 99.00539c-.57567-.43654-.89488-.91316-1.24858-1.68908.61519.12933 1.26482.55795 1.96871 1.30025-.1184.32536-.29104.33704-.72013.38883z" opacity="1"/><path id="path116" fill="#a6bb27" stroke="none" d="M129.93806 96.7844c-.38991.06492-.93166-.11874-1.61583-.55604.39305-.06663.92853.12042 1.61583.55603z" opacity="1"/><path id="path117" fill="#a6bb27" stroke="none" d="M146.01944 119.73871c-.21172.135-.44585-.0144-.65072-.47779.2118-.0986.41147.0705.65072.47779z" opacity="1"/><path id="path118" fill="#014a46" stroke="none" d="M53.13831 149.17246c.50862-.53032 1.03347-.67544 1.7308-1.04181.97255.13716 1.77262.49559 2.90257.86535 1.73615.66771 3.14243 1.32407 4.87667 2.01892 2.79092 2.26625 5.25386 4.49404 7.99838 6.87801 3.9894 5.98414 5.24356 12.47 5.37144 19.62407-4.43427-3.13663-8.88124-6.5961-13.21964-10.18674-1.47968-1.22464-2.6865-2.77895-4.30694-4.3714-1.97165-4.59294-3.65435-8.99708-5.35328-13.7864z" opacity="1"/><path id="path119" fill="#7fae31" stroke="none" d="M120.20427 104.17404c.22728-.11603.48108.077.75235.58301-.23274.11729-.4805-.0784-.75235-.58301z" opacity="1"/><path id="path120" fill="#eef9fb" stroke="none" d="M48.7268 168.60057c4.78736 1.14719 7.3152 3.78043 6.68262 9.05615-.39486.8803-.77133 1.38101-1.17073 2.11898-1.56664 1.05456-3.11035 1.87187-4.91765 2.88159-8.0082-2.03527-9.6862-5.94614-5.09277-12.37886.62484-.63173.84105-.8998 1.05727-1.16787 0 0-.10066-.009.1481.0177.24877.0269.6395-.23225.6395-.23226.763-.058 1.526-.11605 2.65365-.2954z" opacity="1"/><path id="path121" fill="#07708a" stroke="none" d="M45.95996 168.74754c.11319.14844-.27755.40761-.51084.42882-.02298-.17828.18734-.37776.51084-.42882z" opacity="1"/><path id="path122" fill="#07708a" stroke="none" d="M45.03 169.17331c.03932.20532-.1769.47339-.65494.79544-.04143-.20824.17898-.47046.65494-.79544z" opacity="1"/><path id="path124" fill="#65a64d" stroke="none" d="M110.13951 128.34878c-.68929-.29266-1.41985-.9255-2.23146-1.84603.67602.31015 1.43311.908 2.23146 1.84603z" opacity="1"/><path id="path125" fill="#3e9a5e" stroke="none" d="M87.18703 131.89679c-.396 4.38594-.0078 8.18175 2.95147 11.68741-.28355 3.93834-.89507 7.51962-.97188 11.11232-.16944 7.92521.01914 15.85837-.17772 23.78235-.0285 1.14676-1.37856 2.26068-2.50776 3.4151-1.02088-6.3913-1.7299-12.8017-2.23335-19.22823-.15176-1.93716.30968-3.91682.4141-5.88106.122-2.2948.9359-4.95628.06817-6.81311-1.62026-3.46711-1.27375-5.90655 1.87198-7.97619-1.51023-4.05274-5.25939-7.94083.11244-11.94497.39963.45554.41806.9618.47255 1.84638z" opacity="1"/><path id="path126" fill="#95b627" stroke="none" d="M140.24562 127.94458c.0335-.12398.35093-.21559.76187-.12859-.097.17272-.28743.16683-.76187.12859z" opacity="1"/><path id="path127" fill="#e7f9f9" stroke="none" d="M522.80278 206.18959c-.0836-2.5416-.44104-4.77855.0817-6.78632.33563-1.28912 1.93189-3.08387 3.02704-3.12991 1.36298-.0573 3.99158 1.46632 3.98322 2.28584-.0349 3.40821-.85602 6.80835-1.38861 10.21146-1.86817-.72644-3.73621-1.45288-5.70337-2.58107z" opacity="1"/><path id="path128" fill="#e7f9f9" stroke="none" d="M296.13789 201.17068c-.5712 2.49088-.72913 4.84868-1.91156 6.44994-.48584.65791-4.51236-.0136-4.64386-.59613-.65561-2.90437-.84192-6.01167-.52087-8.97469.0856-.79028 3.14654-2.22314 3.78811-1.79234 1.44602.97096 2.23343 2.92275 3.28818 4.91322z" opacity="1"/><path id="path129" fill="#d6f4f5" stroke="none" d="M102.99273 34.3103c-1.042.66978-2.03068 1.04723-3.33055 1.49237-1.03182-.51126-1.75243-1.09025-2.72636-2.12668-.37225-.83786-.49117-1.21826-.6101-1.59866 0 0-.10173-.01798.1239-.17699.40621-.72606.58682-1.2931.76742-1.86016.32652-.03337.58224-.18564.85563-.66832 1.11823-.2266 2.14795-.24168 3.56296-.207.727 1.65087 1.06871 3.25198 1.3571 5.14544z" opacity="1"/><path id="path130" fill="#116e91" stroke="none" d="M96.04957 32.20716c.39508.25057.514.63097.65488 1.31045-.29572-.19415-.61338-.68738-.65488-1.31045z" opacity="1"/><path id="path131" fill="#116e91" stroke="none" d="M96.93763 30.1971c.0988.41014-.0818.97718-.47666 1.75363-.07709-.39264.06007-.99467.47666-1.75363z" opacity="1"/><path id="path132" fill="#e1f7f7" stroke="none" d="M337.416 209.00766c-.88248-3.69774-2.14338-7.37979-1.59375-10.76819.48932-3.01669 4.66302-3.35074 5.78375-1.17203 1.43079 2.78134 1.22711 6.60959.94943 9.92136-.071.84701-3.07413 1.44818-5.13943 2.01886z" opacity="1"/><path id="path133" fill="#e1f7f7" stroke="none" d="M355.00789 208.18748c-.65287-6.35415 3.66589-3.85916 7.60147-4.51736-.84259 2.24709-1.02927 4.57558-2.04978 5.02947-1.46292.65068-3.53439-.0668-5.55169-.51211z" opacity="1"/><path id="path134" fill="#d9f8f9" stroke="none" d="M322.57469 196.41141c.80328 1.45427 1.25659 2.69314 1.83481 4.27346h-8.03669c.20365-4.20266 2.24683-5.39463 6.20188-4.27346z" opacity="1"/><path id="path135" fill="#d9f8f9" stroke="none" d="M543.8068 196.49225c3.88324-1.17336 6.15094-.32413 6.17164 4.17387H541.887c.60535-1.50117 1.09589-2.7177 1.9198-4.17387z" opacity="1"/><path id="path136" fill="#d6f4f5" stroke="none" d="M389.49348 203.93227c1.84815-.0958 3.29184-.0958 6.31622-.0958-1.58441 2.50979-2.25543 4.57101-3.66476 5.45436-.9397.58897-2.93152-.5006-4.45245-.83895.46551-1.47459.93103-2.94915 1.80099-4.51957z" opacity="1"/><path id="path137" fill="#d9f8f9" stroke="none" d="M221.71595 196.36862c.84684 1.44017 1.33054 2.67128 1.99741 4.36856h-7.94682c-.0592-4.19664 1.95179-5.36815 5.94941-4.36856z" opacity="1"/><path id="path138" fill="#d9f8f9" stroke="none" d="M595.55613 200.63884c.6493-1.7161 1.61127-4.39896 2.70069-4.45178 1.60034-.0776 3.29181 1.72392 4.94446 2.72487a24596.181 24596.181 0 0 0-.66315 1.93615c-2.2041 0-4.40821 0-6.982-.20924z" opacity="1"/><path id="path139" fill="#d9f8f9" stroke="none" d="M258.16307 195.92279c1.84073 1.1265 3.25601 2.27567 4.67126 3.42484l-.96432 1.30938h-6.74616c-.28784-.36764-.57565-.73529-.86346-1.10293 1.15905-1.20287 2.31814-2.40573 3.90268-3.63129z" opacity="1"/><path id="path140" fill="#d9f8f9" stroke="none" d="M504.41603 197.56116c5.01028-2.70348 6.23733-2.10907 6.78695 3.47654-2.29168-1.74926-6.6921 3.46471-6.78695-3.47654z" opacity="1"/><path id="path141" fill="#d9f8f9" stroke="none" d="M580.73149 195.98292c1.42645 1.25806 2.45599 2.45661 4.28869 4.59005h-8.85559c-.48748-3.2555.86383-4.74674 4.5669-4.59005z" opacity="1"/><path id="path142" fill="#f0faef" stroke="none" d="M134.72364 205.57892c1.82927.6317 3.29338 1.35348 5.06888 2.23965.31937.46335.38617.74855.69609 1.55123.54155 4.64662-2.10916 6.34648-5.42303 7.51379-1.03241-.40517-2.06484-.81032-3.41518-1.31252-2.87822-2.1524-3.29803-4.63352-1.56216-7.76443 1.57538-.89009 2.9228-1.51387 4.6354-2.22772z" opacity="1"/><path id="path143" fill="#e7f9f9" stroke="none" d="M441.22761 202.96754c-.0167 3.45302-.40091 6.41625-4.39773 6.06156-4.6539-.41295-3.73404-4.20113-3.82987-7.21674-.0902-2.83911.42505-5.61819 3.96591-5.63977 4.24659-.0259 4.25995 3.27692 4.26169 6.79495z" opacity="1"/><path id="path144" fill="#e1f7f7" stroke="none" d="M453.88621 208.3269c-.70782-3.1111-1.59854-6.0032-1.35669-8.79728.27631-3.19284 4.7858-5.01972 6.13303-2.65085 1.51843 2.66978 1.89593 6.4678 1.49515 9.61267-.38804 3.04491-3.33475 3.0954-6.27149 1.83546z" opacity="1"/><path id="path145" fill="#6ea954" stroke="none" d="M135.17091 217.12372c3.20854-1.40744 5.85925-3.1073 5.45023-7.57721.20355-.39342.45895-.43233 1.10031-.50746.38707.71002.3882 1.4563.39142 2.57536-.65013 2.13571-1.30239 3.89862-1.9972 6.01265-1.10394.35753-2.16531.36392-3.62536.37172-.67049-.21072-.94228-.42284-1.3194-.87506z" opacity="1"/></svg>