<svg xmlns="http://www.w3.org/2000/svg" role="img" viewBox="-6.64 -6.64 345.28 90.03"><title>EEA geospatial data catalogue logo</title><g transform="translate(.308 -5.094)"><path fill="#bac8d5" d="M250 74.66203v-7.33797l3.48149-.13088C257.17094 67.05448 259 68.9385 259 72.87756c0 2.35197-3.61228 5.20845-5.6148 4.44001-.96197-.36914-1.3852.26499-1.3852 2.07544C252 80.82685 251.55 82 251 82c-.57582 0-1-3.11266-1-7.33797zm6.79826-3.07452c-.43376-3.0359-4.19855-2.79274-4.63575.2994-.18562 1.3128.24928 2.74956.96646 3.1928 1.81838 1.12382 4.0283-.97944 3.66929-3.4922zm-15.87247 4.33828c-2.42163-2.42163-2.45783-5.13432-.097-7.2708 2.55156-2.30913 4.85725-2.06387 6.67478.71003 3.27894 5.0043-2.43499 10.7035-6.57773 6.56077zm4.88757-3.7528C246.071 69.56414 245.77185 69 244.13075 69c-2.45202 0-3.75967 3.53727-2.06328 5.5813 1.82234 2.19579 3.39078 1.1874 3.74589-2.40831zm16.40915 4.2703c-4.25808-2.98247-1.8313-10.31487 3.0116-9.09938 2.58333.64837 4.23422 3.0893 3.21012 4.74633-.30925.50037-1.94081.90976-3.62569.90976-2.62986 0-2.88459.2155-1.7998 1.52258.72948.87897 2.04936 1.2732 3.12244.93261 2.25461-.71558 2.51136 1.08043.27703 1.93782-2.00484.76933-1.61565.85742-4.1957-.94971zM266 70c0-.55-.64844-1-1.44098-1-.79254 0-1.7191.45-2.05902 1-.33992.55.30852 1 1.44098 1S266 70.55 266 70zm15.25 7.33772c-2.03334-.82047-1.42367-2.52762.66584-1.86443 2.99432.95036 3.5048-1.3245.59477-2.65041-1.78712-.81427-2.50953-1.83357-2.30639-3.25426.33283-2.32774 4.34989-3.4145 6.11112-1.65329C287.09489 68.6949 286.6405 69 284.7 69c-3.38341 0-3.47743 1.32475-.2 2.81805 2.98429 1.35973 3.24306 3.7139.56574 5.14677-1.06384.56935-2.07634.99965-2.25.95623-.17366-.04342-.87824-.30592-1.56574-.58333zm8.90461-.94198c-2.52469-1.76836-2.90373-6.52913-.6676-8.38496 2.24869-1.86625 6.37378-.41361 7.10561 2.50221 1.26173 5.02715-2.6094 8.56441-6.43801 5.88275zm3.80552-1.8477c1.72616-2.0799.86763-5.04804-1.46013-5.04804-2.04198 0-3.09294 2.51243-2.11596 5.05841.70605 1.83994 2.04369 1.83606 3.57609-.01037zm5.61586 1.8851c-1.10785-1.10786-1.57849-2.91935-1.37894-5.30752.42105-5.039 2.23666-4.54752 2.61452.70774.24416 3.39574.64051 4.20714 1.83179 3.75.83612-.32085 1.70841-.58336 1.93843-.58336.23001 0 .41821-1.8.41821-4s.45-4 1-4 1 2.25 1 5c0 3.64962-.38302 5-1.41821 5-.78002 0-2.072.25088-2.87106.55751-.79907.30663-2.2097-.19934-3.13474-1.12438zm17.64652.01016c-2.69559-1.88806-2.88013-5.53818-.39377-7.7883C318.84568 66.82967 322 66.43015 322 68c0 .55-.86968 1-1.93261 1-1.06945 0-2.22293.9147-2.58262 2.04799-.75695 2.38493 1.24095 5.27124 3.14342 4.5412.71927-.27602 1.54459-.11865 1.83404.3497.28946.46835-.18294 1.1237-1.04976 1.45633-1.9982.76678-1.61038.85489-4.18996-.95192zM325 76c-2.49115-2.49115-2.55405-5.18862-.17126-7.34501 2.43412-2.20285 4.86695-2.09212 6.13608.27927C332.6936 72.16452 332.16194 73 328.37756 73c-3.09613 0-3.44274.21654-2.38558 1.49033.79143.95362 2.18603 1.28922 3.87244.93188 2.53203-.53653 2.55932-.49686.69445 1.00966C328.04842 78.45992 327.41035 78.41035 325 76zm4.5-6c-.33992-.55-1.26648-1-2.05902-1-.79254 0-1.44098.45-1.44098 1s.92656 1 2.05902 1c1.13246 0 1.7809-.45 1.44098-1zM270 72.16203c0-4.83248.004-4.83812 3.48149-4.96885C277.44097 67.04433 279 68.94874 279 73.93426 279 75.9927 278.50715 77 277.5 77c-1.08783 0-1.5-1.11926-1.5-4.07332 0-3.33903-.31547-4.01354-1.75-3.74169-1.22302.23178-1.84346 1.45838-2.06037 4.07333C271.73732 78.7113 270 77.84148 270 72.16203zm39-.0099c0-4.70085.091-4.8504 3-4.93312 3.38466-.09623 4.0464 1.27404 1 2.07069-1.53195.40061-2 1.36402-2 4.11663C311 75.38287 310.55 77 310 77s-1-2.18152-1-4.84782zM30 64.99754c-14.51896-.79106-18.3155-2.08287-22.814-7.7627-4.73115-5.97357-4.04294-8.13314 2.64579-8.30233 1.93869-.04904 1.38476-.41302-2.02599-1.33125C.8515 45.72906 0 44.67203 0 37.91128v-5.84383l3.25 1.87943C7.29577 36.28648 18.27402 38 29.21779 38c10.75973 0 23.89435 1.66094 28.8662 3.65028 4.5402 1.81663 4.89194 3.5164 1.9294 9.32348-2.4136 4.73104-5.4565 7.00526-9.4859 7.08963-2.81383.0589-2.8687.1272-.77749.96777C50.9875 59.52858 52 60.3556 52 60.869c0 1.17518-6.70399 5.18628-8.30716 4.9703-.65606-.08838-6.81784-.46717-13.69284-.84176zm61.00051-2.121c-7.28733-2.90585-11.16896-11.75468-11.177-25.47984-.00844-14.42495 4.68984-22.84221 14.17562-25.39647 6.45669-1.7386 16.15799 1.50947 14.16072 4.74112-.54627.88389-1.79194.80695-5.0372-.31114C91.20209 12.32324 84 20.3571 84 37.76131 84 52.42525 88.76684 60 97.99494 60 105.96757 60 106 59.95906 106 49.89301V41h-4c-3.3658 0-4-.32502-4-2.0499 0-1.86364.52247-2.02266 5.75-1.75l5.75.2999.28206 11.78763.28206 11.78763-3.49994 1.46237c-3.96417 1.65633-11.83026 1.82763-15.56367.33892zm27.92949-.3542c-4.28374-2.32954-6.43-8.6705-6.43-18.99693 0-11.11407 2.16435-16.24363 7.75094-18.3699 7.11417-2.70767 12.68793 3.06808 13.0483 13.52119L133.5 44.5l-8.88033.29083-8.88032.29084.63607 4.70916c.34984 2.59004 1.48264 5.83417 2.51733 7.20917 1.67911 2.23138 2.53808 2.48133 7.99425 2.32624 4.34962-.12364 6.113.19064 6.113 1.08948 0 3.22605-9.41838 4.6362-14.07 2.10662zM129.55933 37.25c-.87802-4.96431-3.71592-8.75-6.55933-8.75s-5.68131 3.78569-6.55933 8.75l-.66325 3.75h14.44516zm11.44484 23.90802c-1.56309-1.5631-3.37761-4.8256-4.03226-7.25-1.73546-6.42706-.82834-19.75684 1.63107-23.96793 4.55648-7.80177 14.60393-7.1073 18.4071 1.27227 2.6784 5.90136 2.71943 19.58448.0762 25.40514-3.54007 7.79551-10.78234 9.84025-16.08208 4.54052zM153.30727 56c1.46605-2.83918 1.74292-5.3324 1.46646-13.20514-.30382-8.65144-.60503-9.98638-2.77431-12.29548-3.08109-3.27967-6.57878-2.97238-9.40052.82589-1.81063 2.43724-2.0989 4.2288-2.0989 13.0446 0 12.76795 1.49294 15.92057 7.31025 15.4369 3.06802-.25508 3.99428-.89653 5.49702-3.80677zM202.93 62.52234c-4.28374-2.32954-6.43-8.6705-6.43-18.99693 0-11.11407 2.16435-16.24363 7.75094-18.3699 7.11417-2.70767 12.68793 3.06808 13.0483 13.52119L217.5 44.5l-8.88033.29083-8.88032.29084.63607 4.70916c.34984 2.59004 1.48264 5.83417 2.51733 7.20917 1.67911 2.23138 2.53808 2.48133 7.99425 2.32624 4.34962-.12364 6.113.19064 6.113 1.08948 0 3.22605-9.41838 4.6362-14.07 2.10662zM213.55933 37.25c-.87802-4.96431-3.71592-8.75-6.55933-8.75s-5.68131 3.78569-6.55933 8.75l-.66325 3.75h14.44516zm10.9329 24.74141c-1.65678-1.83072-1.95975-4.12188-2.3205-17.54852C221.84249 32.18865 221.4722 29 220.37841 29c-2.10257 0-1.64209-2.69778.55871-3.2733 1.47387-.38543 2.01195-1.54927 2.25-4.86664.2203-3.06989.75674-4.36006 1.81288-4.36006 1.04639 0 1.59215 1.26797 1.80471 4.1929.29335 4.0367.44066 4.20433 3.95438 4.5l3.64968.3071 3.13051 15c1.8882 9.0474 3.36902 14.20632 3.73153 13 .33056-1.1 1.83334-7.9625 3.33952-15.25C246.93754 26.98999 247.62772 25 249.2058 25c2.31881 0 2.20093-.34158 5.69439 16.5 1.59722 7.7 3.14381 13.325 3.43688 12.5.29306-.825 1.76737-7.50742 3.27623-14.84982 2.52354-12.28 4.07589-15.79432 6.08792-13.7823.4869.4869-5.17552 28.14913-7.34503 35.88212-.27987.99757-1.45099 1.75-2.72379 1.75-2.07767 0-2.44254-1.04498-5.25042-15.037l-3.01758-15.03702-2.74629 13.28701C243.03286 63.5591 243.23306 63 240.60702 63c-2.09247 0-2.45973-.97238-5.00433-13.25C231.47125 29.81596 231.2101 29 228.96146 29 227.09721 29 227 29.7682 227 44.5V60h3.07332c2.3866 0 2.99925.39103 2.74181 1.75-.50875 2.68565-5.96761 2.84398-8.3229.24141zm48.51194-.8334c-1.56309-1.56308-3.37761-4.82558-4.03226-7.25-1.73546-6.42705-.82834-19.75683 1.63107-23.96792 4.55648-7.80177 14.60393-7.1073 18.4071 1.27227 2.6784 5.90136 2.71943 19.58448.0762 25.40514-3.54007 7.79551-10.78234 9.84025-16.08208 4.54052zM285.30727 56c1.46605-2.83918 1.74292-5.3324 1.46646-13.20514-.30382-8.65144-.60503-9.98638-2.77431-12.29548-3.08109-3.27967-6.57878-2.97238-9.40052.82589-1.81063 2.43724-2.0989 4.2288-2.0989 13.0446 0 12.76795 1.49294 15.92057 7.31025 15.4369 3.06802-.25508 3.99428-.89653 5.49702-3.80677zM164 37.43358V11.86716l2.65744.31642c2.44724.2914 3.37664 2.01702 11.75 21.81642L187.5 55.5l.2697-21.81953c.24801-20.06498.40883-21.79277 2-21.48677 1.57736.30334 1.75392 2.56343 1.99747 25.56953L192.03434 63l-2.76717-.01074c-2.65363-.0103-3.14498-.90273-11.97507-21.75L168.0842 19.5l-.0421 21.75C168.00132 62.3193 167.93741 63 166 63c-1.94785 0-2-.66667-2-25.56642zM296 44c0-16.22222.2193-19 1.5-19 1.01743 0 1.51288 1.04557 1.54004 3.25l.04 3.25 1.47872-2.72486c1.81805-3.35013 4.87159-5.0907 7.47897-4.26315 3.08245.97833 2.00337 3.98801-1.42985 3.98801-1.04064 0-2.84064 1.2687-4 2.81934-1.87318 2.50537-2.14398 4.42637-2.43169 17.25C299.87406 62.03704 299.72392 63 297.92623 63 296.09218 63 296 62.09077 296 44zm16-8c0-26.61434.0295-27 2.06446-27 2.01851 0 2.05746.38505 1.75 17.30182L315.5 43.60364l5.45186-9.30182C324.80432 27.72884 326.96262 25 328.30885 25c2.33303 0 1.9736 1.09129-2.83571 8.60944l-3.59159 5.61456 4.55923 11.39307C328.94835 56.88327 331 62.23287 331 62.50507c0 .27221-.86725.49493-1.92722.49493-1.51907 0-2.75631-2.14853-5.84191-10.14476-3.88404-10.06537-3.92765-10.12624-5.57277-7.7775C316.45901 46.78969 316 49.59807 316 55.22252 316 62.33333 315.82857 63 314 63c-1.95062 0-2-.66667-2-27zM13.23104 33.8886c-2.89794-.48269-6.89159-1.55558-8.87478-2.38421-3.31197-1.38383-3.55473-1.76203-2.97898-4.6408.92447-4.62236 4.38545-9.67656 7.96926-11.63783C12.02013 13.76262 15.39131 13.5 31.5 13.5c21.65983 0 24.03246.67641 28.25683 8.05573 3.50256 6.1184 2.73465 8.61677-3.25683 10.59586-2.75.90838-8.0375 1.9733-11.75 2.3665l-6.75.7149v-6.05007c0-5.83242.09893-6.06506 2.75-6.46667 1.5125-.22912.1625-.48401-3-.56642L32 22v13l-6.75-.1169c-3.7125-.0643-9.12103-.51183-12.01896-.9945zm11.038-11.54454c-.67704-.27392-2.02704-.2906-3-.03705-.97298.25354-.41904.47766 1.23096.49804 1.65.02038 2.44606-.18706 1.76903-.46099zm-2.10279-12.4062c-1.28356-.51446-2.1502-1.48602-1.92586-2.15903.5677-1.7031 4.2111-2.56234 11.36039-2.67915 9.88997-.1616 16.03437 3.14816 9.32508 5.02306-3.61454 1.01008-16.08482.88718-18.7596-.18488z"/><path fill="#6a8ca9" d="M250 74.6084c0-5.92775.17566-6.43567 2.42054-6.9991 3.36479-.84451 5.2927.11203 6.01341 2.98358C259.2906 74.006 257.43586 77 254.46482 77 252.66667 77 252 77.54095 252 79c0 1.1-.45 2-1 2-.56236 0-1-2.7972-1-6.3916zm6.5-2.1221c0-2.33555-.4903-3.05593-2.25-3.30585-1.88999-.26842-2.25.14492-2.25 2.58333 0 3.36356.78169 4.42491 2.95124 4.0071.98601-.1899 1.54876-1.38335 1.54876-3.28458zm-16.55132 1.87872c-.76152-2.00296-.63013-3.20225.5478-5 1.71739-2.62106 2.71257-2.85869 5.56926-1.32984 2.19222 1.17324 2.63573 5.86335.73426 7.76482-2.17303 2.17302-5.76564 1.42057-6.85132-1.43498zm6.01149.18297c1.825-2.19899.31851-5.72906-2.28584-5.35629-2.20967.31628-3.27257 2.80692-2.29029 5.36671.71175 1.85479 3.03254 1.8495 4.57613-.01042zm14.82249-.12565c-1.26182-2.7694-.47494-4.9523 2.45035-6.79752C265.22875 66.36594 268 68.39925 268 71.12244 268 72.55324 267.26631 73 264.91667 73c-2.02984 0-2.93609.4271-2.65239 1.25.23703.6875 1.62453 1.23226 3.08334 1.21058 1.45881-.02168 2.65238.31582 2.65238.75S266.64035 77 264.97856 77c-2.27672 0-3.31092-.63533-4.1959-2.57766zM266.5 70c-.33992-.55-1.49148-1-2.55902-1S262 69.45 262 70s1.15156 1 2.55902 1c1.45136 0 2.2915-.43284 1.94098-1zm3.5 2.61658c0-3.96274.25784-4.43271 2.68662-4.897 4.41851-.84466 5.32673.05758 5.17147 5.1374l-.1419 4.64302-.6081-4c-.48034-3.1597-1.08076-4.06713-2.85809-4.31955-2.01709-.28647-2.25.1017-2.25 3.75C272 75.1687 271.55 77 271 77s-1-1.97254-1-4.38342zm10 3.5221c0-.47374 1.125-.64628 2.5-.38343 3.21089.6138 3.4063-1.88234.25584-3.26812-1.23429-.54292-2.38488-1.73618-2.55687-2.6517-.38091-2.02759 3.52688-3.50958 5.10169-1.93477.79912.79912.29372 1.10803-1.85066 1.13114-2.82689.03048-2.86654.09165-.95 1.4659 3.82487 2.7426 4.42819 3.52587 3.85877 5.00974-.60222 1.56936-6.35877 2.1408-6.35877.63123zm9.24298-.2957c-1.72082-1.72082-1.55517-5.38793.32845-7.27155 2.10581-2.10581 3.74959-1.97917 5.95597.45885 3.78379 4.18104-2.31002 10.7871-6.28442 6.8127zM294.5 72.4863c0-2.33557-.4903-3.05594-2.25-3.30586-1.88999-.26842-2.25.14492-2.25 2.58333 0 3.36356.78169 4.42491 2.95124 4.0071.98601-.1899 1.54876-1.38335 1.54876-3.28458zm5.13128 3.81164c-.3472-.3472-.56369-2.69378-.48109-5.21462l.1502-4.58333.5998 4.5c.4843 3.6334.98497 4.5 2.59981 4.5 1.58927 0 2.06374-.77012 2.31037-3.75.43008-5.19652 2.18963-4.72404 2.18963.58797 0 4.23375-.0809 4.34101-3.36872 4.46461-1.8528.06965-3.6528-.15743-4-.50463zM309 72.5c0-3.218.40403-4.5 1.41821-4.5.78002 0 2.24252-.2503 3.25-.55622 1.41042-.42827 1.31422-.17018-.41821 1.12197-1.55809 1.16212-2.25 2.717-2.25 5.05622C311 75.4799 310.55 77 310 77s-1-2.025-1-4.5zm6.94868 1.86502C314.8208 71.39848 316.92022 67 319.46404 67c2.43226 0 2.6863 1.83988.30079 2.1785-1.7696.2512-2.26483.96763-2.26483 3.27641 0 2.2998.55426 3.1091 2.5 3.65033l2.5.6954-2.77475.09968c-2.12424.07631-3.00962-.51806-3.77657-2.5353zm8 0c-.76152-2.00296-.63013-3.20225.5478-5 1.92867-2.94351 3.93679-3.01222 5.90511-.20205C332.32796 71.91324 331.63993 73 327.97237 73c-3.7283 0-3.02193 2.69672.86226 3.29191 2.35925.36152 2.28926.42563-.60938.55826-2.68483.12284-3.45522-.32484-4.27657-2.48515zM330 70c0-.55-.87344-1-1.94098-1s-2.2191.45-2.55902 1c-.35052.56716.48962 1 1.94098 1C328.84844 71 330 70.55 330 70zM31.4047 64.97703c-6.65242-.3959-13.70378-1.25066-15.6697-1.89947C11.84974 61.7953 3.6249 53.64199 4.25765 51.7c.21505-.66 2.38255-1.7263 4.81667-2.36953 2.59115-.68474 3.4797-1.20288 2.14356-1.25C8.25271 47.9759 1.78731 45.26423.80036 43.7112.377 43.04505.02373 40.34667.0153 37.71481c-.01466-4.58091.07601-4.7363 2.12408-3.64021C6.5867 36.45474 11.08273 37.1308 31.5 38.4895c27.70533 1.84373 31.75169 3.1878 29.5629 9.8199-1.65528 5.01556-5.46735 8.41375-10.37122 9.2452-3.67785.62359-3.91587.81308-1.94168 1.54582 1.2375.45932 2.25 1.30624 2.25 1.88204 0 1.00957-5.98052 5.16365-7 4.86222-.275-.08131-5.94289-.47176-12.5953-.86766zm60.59581-2.03928c-3.5838-1.5168-6.87123-4.83588-9.34783-9.43775C80.80578 50.06819 80.5 47.86645 80.5 38c0-10.26705.26803-12.0359 2.5-16.49855C86.24814 15.00703 90.73586 12 97.18 12c2.68633 0 6.49985.67505 8.47448 1.5001 2.93332 1.22562 3.374 1.76066 2.40841 2.92412-1.0225 1.23203-1.64138 1.23202-4.59024-.0001-4.6553-1.9451-8.37417-1.78156-12.1741.5354-5.11477 3.11865-6.64108 7.16219-7.11306 18.84404-.48393 11.97774 1.05718 17.53995 6.0158 21.71236 2.67395 2.24998 3.82555 2.53586 9.17815 2.27844L105.5 59.5l.28753-9.25.28752-9.25h-4.11085c-3.37517 0-4.05131-.31318-3.77816-1.75.25713-1.35252 1.523-1.81865 5.57333-2.05226L109 36.89548v12.44527c0 10.69503-.23448 12.53525-1.66732 13.08508-3.22251 1.2366-12.8597 1.55837-15.33217.51192zM121 63.29377c-3.20887-1.17302-6.0995-4.88972-7.51807-9.66656C109.5343 40.33407 114.3686 25 122.50711 25c1.83112 0 4.06029.2805 4.9537.62333 2.36326.90687 5.19414 7.0856 6.0142 13.12667l.71267 5.25H116v3.47976c0 9.16953 5.52505 14.92727 12.11842 12.6288 3.99371-1.39221 3.88158-1.40423 3.88158.4162 0 2.5826-6.81619 4.29843-11 2.76901zm8.72172-26.33187C128.94062 31.13838 126.58673 28 123 28c-3.57193 0-5.61434 2.7171-6.57727 8.75l-.67835 4.25h14.51896zm13.15976 25.58443c-4.30473-2.4206-6.27736-7.88623-6.33275-17.54633-.05786-10.09266.59548-12.8295 4.03987-16.92293C142.74448 25.51495 143.90111 25 147.5 25c3.58467 0 4.75742.51722 6.87268 3.03105 3.21555 3.82147 4.61617 8.8184 4.61617 16.46895 0 7.43757-1.41425 12.72842-4.2854 16.03211-2.71728 3.12665-8.18651 4.0585-11.82197 2.01422zm8.81276-3.95908c2.63658-2.26727 2.82723-2.9712 3.16177-11.67448.56186-14.61705-2.29603-20.27407-9.34817-18.5041C141.73647 29.35524 140 34.27074 140 44c0 8.63065 1.60277 14.09249 4.6563 15.86746 2.74645 1.59648 3.94651 1.37819 7.03794-1.2802zM205 63.29377c-3.20887-1.17302-6.0995-4.88972-7.51807-9.66656C193.5343 40.33407 198.3686 25 206.50711 25c1.83112 0 4.06029.2805 4.9537.62333 2.36326.90687 5.19414 7.0856 6.0142 13.12667l.71267 5.25H200v3.47976c0 9.16953 5.52505 14.92727 12.11842 12.6288 3.99371-1.39221 3.88158-1.40423 3.88158.4162 0 2.5826-6.81619 4.29843-11 2.76901zm8.72172-26.33187C212.94062 31.13838 210.58673 28 207 28c-3.57193 0-5.61434 2.7171-6.57727 8.75l-.67835 4.25h14.51896zm11.33886 25.09868C223.15841 60.1584 223 58.8174 223 44.61663c0-15.0924-.0426-15.39576-2.25-16.0383l-2.25-.65492 2.25-1.58368c1.2375-.87102 2.25614-2.54129 2.26365-3.7117C223.03421 19.42425 224.12068 16 225.11663 16c.48585 0 .88337 2.025.88337 4.5V25h7.86358l1.60772 7.25c.88424 3.9875 2.43907 11.3 3.45518 16.25 1.34426 6.5486 2.00501 8.31906 2.42585 6.5.31811-1.375 1.80758-8.51063 3.30994-15.85695 2.48445-12.14863 4.0491-15.76502 5.98376-13.83035C251.37574 26.0424 257 51.78638 257 54.39677c0 4.96104 1.92759-1.02326 4.59745-14.273 2.58975-12.8522 4.14211-16.71754 5.97702-14.88263.26852.26852-1.32589 8.64657-3.54313 18.6179C261.8141 53.83037 260 62.24757 260 62.56392c0 .31635-.99204.43138-2.20453.25563-2.00128-.29009-2.49029-1.7362-5.3042-15.68583l-3.09968-15.36629-2.27002 10.86629c-4.61385 22.08594-4.11238 20.50954-6.41738 20.17337-1.86958-.27267-2.50551-2.15657-5.67343-16.80709-3.50581-16.21322-3.6153-16.5055-6.29929-16.81642L226 28.86716v14.49499C226 58.82163 226.63664 61 231.15476 61c2.92961 0 1.69571 2.44-1.4213 2.81058-1.62586.1933-3.39041-.46753-4.67288-1.75zm49.8209.48575c-4.30473-2.4206-6.27736-7.88623-6.33275-17.54633-.05786-10.09266.59548-12.8295 4.03987-16.92293C274.74448 25.51495 275.90111 25 279.5 25c3.58467 0 4.75742.51722 6.87268 3.03105 3.21555 3.82147 4.61617 8.8184 4.61617 16.46895 0 7.43757-1.41425 12.72842-4.2854 16.03211-2.71728 3.12665-8.18651 4.0585-11.82197 2.01422zm8.81276-3.95908c2.63658-2.26727 2.82723-2.9712 3.16177-11.67448.56186-14.61705-2.29603-20.27407-9.34817-18.5041C273.73647 29.35524 272 34.27074 272 44c0 8.63065 1.60277 14.09249 4.6563 15.86746 2.74645 1.59648 3.94651 1.37819 7.03794-1.2802zM164.23283 37.75c.26401-24.95174.29248-25.2536 2.40965-25.55546 1.90984-.2723 3.1586 2.0977 11.5 21.82564L187.5 56.15128l.26913-22.07564c.22808-18.70821.49503-22.07564 1.75-22.07564C190.78835 12 191 15.65454 191 37.56955V63.1391l-2.21429-.31955c-1.85936-.26833-3.66261-3.7551-11.25-21.7531L168.5 19.63291l-.2695 21.68354C167.9705 62.23495 167.89051 63 165.96333 63c-1.95121 0-1.99146-.58733-1.7305-25.25zM296 43.91667c0-14.82178.27914-18.99048 1.25-18.6675.6875.2287 1.53426 1.7287 1.88169 3.33333.34742 1.60462.68492 2.355.75 1.6675.22366-2.363 4.12078-5.25 7.08693-5.25 3.89403 0 3.08291 2.5397-1.07683 3.37164-4.68675.93735-6.16575 5.66694-6.6853 21.37836-.34415 10.4073-.73511 13.25-1.82232 13.25C296.25363 63 296 59.50322 296 43.91667zM312 36c0-23.33333.2037-27 1.5-27 1.27697 0 1.5 2.63808 1.5 17.74276V44.4855l5.68194-9.34395c5.25191-8.63678 7.58366-11.2093 8.93519-9.85776.29198.29198-1.36174 3.5276-3.67493 7.19029l-4.2058 6.65941 2.78162 7.18325C331.69489 64.85033 331.18076 63 329.15357 63c-1.38447 0-2.73245-2.41663-5.66018-10.14748l-3.84293-10.14747-2.32523 2.70324C315.34191 47.71403 315 49.20617 315 55.55576 315 61.5062 314.699 63 313.5 63c-1.2963 0-1.5-3.66667-1.5-27zM16.17315 33.92539C2.75524 32.1842.10738 30.27136 2.5757 24.1024c3.61452-9.03356 11.96299-11.7369 33.66432-10.9009 15.63819.60244 20.19917 2.40617 23.5561 9.31576C61.00827 25.0122 62 27.67925 62 28.44404c0 .7648-1.9125 2.10386-4.25 2.9757-4.67686 1.74435-17.62343 3.77652-18.92697 2.97089C38.37036 34.11086 38 31.46069 38 28.50135v-5.38062l3.75-.39226c2.28478-.239 1.1126-.45795-3-.56037L32 22v13l-4.75-.1268c-2.6125-.06975-7.59708-.49626-11.07685-.94781zM24.25 22.29427c-1.2375-.23836-3.2625-.23836-4.5 0-1.2375.23835-.225.43337 2.25.43337s3.4875-.19502 2.25-.43337zm-.6675-12.16259c-4.31762-.93483-4.26792-2.84753.10554-4.06199 7.14889-1.98516 19.94655-.4767 19.04142 2.24442-.50077 1.50552-4.82769 2.44926-11.22946 2.44926-2.75 0-6.31288-.28426-7.9175-.63169z"/><path fill="#bbb72c" d="M250 74.6084c0-5.92775.17566-6.43567 2.42054-6.9991 3.36479-.84451 5.2927.11203 6.01341 2.98358C259.2906 74.006 257.43586 77 254.46482 77 252.66667 77 252 77.54095 252 79c0 1.1-.45 2-1 2-.56236 0-1-2.7972-1-6.3916zm6.5-2.1221c0-2.33555-.4903-3.05593-2.25-3.30585-1.88999-.26842-2.25.14492-2.25 2.58333 0 3.36356.78169 4.42491 2.95124 4.0071.98601-.1899 1.54876-1.38335 1.54876-3.28458zm-16.55132 1.87872c-.76152-2.00296-.63013-3.20225.5478-5 1.71739-2.62106 2.71257-2.85869 5.56926-1.32984 2.19222 1.17324 2.63573 5.86335.73426 7.76482-2.17303 2.17302-5.76564 1.42057-6.85132-1.43498zm6.01149.18297c1.825-2.19899.31851-5.72906-2.28584-5.35629-2.20967.31628-3.27257 2.80692-2.29029 5.36671.71175 1.85479 3.03254 1.8495 4.57613-.01042zm14.82249-.12565c-1.26182-2.7694-.47494-4.9523 2.45035-6.79752C265.22875 66.36594 268 68.39925 268 71.12244 268 72.55324 267.26631 73 264.91667 73c-2.02984 0-2.93609.4271-2.65239 1.25.23703.6875 1.62453 1.23226 3.08334 1.21058 1.45881-.02168 2.65238.31582 2.65238.75S266.64035 77 264.97856 77c-2.27672 0-3.31092-.63533-4.1959-2.57766zM266.5 70c-.33992-.55-1.49148-1-2.55902-1S262 69.45 262 70s1.15156 1 2.55902 1c1.45136 0 2.2915-.43284 1.94098-1zm3.5 2.61658c0-3.96274.25784-4.43271 2.68662-4.897 4.41851-.84466 5.32673.05758 5.17147 5.1374l-.1419 4.64302-.6081-4c-.48034-3.1597-1.08076-4.06713-2.85809-4.31955-2.01709-.28647-2.25.1017-2.25 3.75C272 75.1687 271.55 77 271 77s-1-1.97254-1-4.38342zm10 3.5221c0-.47374 1.125-.64628 2.5-.38343 3.21089.6138 3.4063-1.88234.25584-3.26812-1.23429-.54292-2.38488-1.73618-2.55687-2.6517-.38091-2.02759 3.52688-3.50958 5.10169-1.93477.79912.79912.29372 1.10803-1.85066 1.13114-2.82689.03048-2.86654.09165-.95 1.4659 3.82487 2.7426 4.42819 3.52587 3.85877 5.00974-.60222 1.56936-6.35877 2.1408-6.35877.63123zm9.24298-.2957c-1.72082-1.72082-1.55517-5.38793.32845-7.27155 2.10581-2.10581 3.74959-1.97917 5.95597.45885 3.78379 4.18104-2.31002 10.7871-6.28442 6.8127zM294.5 72.4863c0-2.33557-.4903-3.05594-2.25-3.30586-1.88999-.26842-2.25.14492-2.25 2.58333 0 3.36356.78169 4.42491 2.95124 4.0071.98601-.1899 1.54876-1.38335 1.54876-3.28458zm5.13128 3.81164c-.3472-.3472-.56369-2.69378-.48109-5.21462l.1502-4.58333.5998 4.5c.4843 3.6334.98497 4.5 2.59981 4.5 1.58927 0 2.06374-.77012 2.31037-3.75.43008-5.19652 2.18963-4.72404 2.18963.58797 0 4.23375-.0809 4.34101-3.36872 4.46461-1.8528.06965-3.6528-.15743-4-.50463zM309 72.5c0-3.218.40403-4.5 1.41821-4.5.78002 0 2.24252-.2503 3.25-.55622 1.41042-.42827 1.31422-.17018-.41821 1.12197-1.55809 1.16212-2.25 2.717-2.25 5.05622C311 75.4799 310.55 77 310 77s-1-2.025-1-4.5zm6.94868 1.86502C314.8208 71.39848 316.92022 67 319.46404 67c2.43226 0 2.6863 1.83988.30079 2.1785-1.7696.2512-2.26483.96763-2.26483 3.27641 0 2.2998.55426 3.1091 2.5 3.65033l2.5.6954-2.77475.09968c-2.12424.07631-3.00962-.51806-3.77657-2.5353zm8 0c-.76152-2.00296-.63013-3.20225.5478-5 1.92867-2.94351 3.93679-3.01222 5.90511-.20205C332.32796 71.91324 331.63993 73 327.97237 73c-3.7283 0-3.02193 2.69672.86226 3.29191 2.35925.36152 2.28926.42563-.60938.55826-2.68483.12284-3.45522-.32484-4.27657-2.48515zM330 70c0-.55-.87344-1-1.94098-1s-2.2191.45-2.55902 1c-.35052.56716.48962 1 1.94098 1C328.84844 71 330 70.55 330 70zM33.5 64.82918c-17.17858-1.06773-19.17029-1.53651-23.62415-5.56031-2.3032-2.0808-3.744-4.17008-3.4336-4.97899.29417-.76656.09-1.11883-.4537-.7828C5.44485 53.8431 5 53.24396 5 52.17565c0-2.05395 2.30191-3.05806 7.5-3.27156 2.43032-.09982 2.14548-.28977-1.5-1.0003-9.53595-1.85864-11-3.47591-11-12.15123 0-2.35464.28035-2.76478 1.3073-1.91249C4.0825 36.1433 15.05786 38.0879 28 38.56944c15.89027.59125 27.41829 2.09083 31.25 4.06504 3.22177 1.65995 3.17234 1.41896 1.23978 6.04422-2.22827 5.333-5.53848 8.14307-10.5634 8.96736-3.66615.6014-4.00974.8277-2.00052 1.3176 3.61044.88034 3.56237 2.55837-.13374 4.66915-2.90712 1.6602-4.57854 1.80012-14.29212 1.19637zm-8.25-15.49146c-.6875-.27741-1.8125-.27741-2.5 0s-.125.50439 1.25.50439 1.9375-.22698 1.25-.5044zM92.60432 62.9995C84.45068 60.45274 80.5 52.13007 80.5 37.5c0-8.95726.2956-10.60196 2.83476-15.77292C86.59648 15.08468 91.25027 12 98.00982 12 102.05417 12 108 14.29676 108 15.85901c0 1.71517-1.2453 1.89482-3.82069.55117-4.38234-2.28637-10.57072-1.79315-14.03074 1.11826-4.5949 3.86635-6.65476 10.39853-6.61318 20.97156.06433 16.35674 6.35498 23.82042 18.447 21.88683L106 59.74438V41.12073l-3.6727-.31037C96.1044 40.2845 96.98992 38 103.41667 38H109v11.8916c0 11.50634-.0729 11.90897-2.25 12.42823-5.13386 1.22447-11.43253 1.5271-14.14568.67967zm27.70291-.4663c-5.06649-2.2034-7.60514-8.27512-7.60629-18.1921-.002-13.57057 5.4357-21.45929 12.94691-18.78414 4.2704 1.52092 6.6699 5.68782 7.15756 12.4296L133.24038 44H116v4.03212c0 9.39673 4.75795 14.24642 12.06377 12.29638 3.11769-.83216 3.93623-.77738 3.93623.26343 0 .72273-1.6875 1.7827-3.75 2.35549-4.53428 1.25923-4.03494 1.28527-7.94277-.41423zm9.68903-24.7832c-.002-1.7875-.89544-4.7125-1.9853-6.5-4.0341-6.6164-11.99709-2.3057-12.00722 6.5L116 41h14l-.004-3.25zm14.10014 24.98526c-7.20594-3.70328-9.96513-17.78503-5.97025-30.46962 2.11447-6.71387 9.91828-9.37833 15.23013-5.20003 8.49198 6.6798 6.70336 32.62634-2.46952 35.82402-3.90509 1.36132-3.83811 1.36285-6.79036-.15437zm6.3588-2.35644c4.13582-1.58707 6.61525-14.16023 4.62367-23.44664C153.64838 30.262 151.68611 28 147.33031 28c-2.7076 0-3.7535.63082-5.38856 3.25-1.76833 2.83267-1.99116 4.62041-1.7353 13.92218.26698 9.70625.51297 10.9055 2.71786 13.25 2.42759 2.5813 4.49993 3.11972 7.53089 1.95664zm53.85203 2.15437c-5.06649-2.20339-7.60514-8.27511-7.60629-18.19209-.002-13.57057 5.4357-21.45929 12.94691-18.78414 4.2704 1.52092 6.6699 5.68782 7.15756 12.4296L217.24038 44H200v4.03212c0 9.39673 4.75795 14.24642 12.06377 12.29638 3.11769-.83216 3.93623-.77738 3.93623.26343 0 .72273-1.6875 1.7827-3.75 2.35549-4.53428 1.25923-4.03494 1.28527-7.94277-.41423zM213.99626 37.75c-.002-1.7875-.89544-4.7125-1.9853-6.5-4.0341-6.6164-11.99709-2.3057-12.00722 6.5L200 41h14l-.004-3.25zm11.44487 24.83264c-1.76219-1.28671-1.97038-2.94602-2.25843-18C222.92286 31.00302 222.60595 28 221.4327 28c-.78798 0-1.4327-.45-1.4327-1s.62391-1 1.38646-1c.87656 0 1.63463-1.65494 2.06127-4.5.37115-2.475 1.09724-4.5 1.61354-4.5S226 19.025 226 21.5V26h7.86358l1.6069 7.25c.8838 3.9875 2.41208 11.3 3.39619 16.25 2.02253 10.17323 1.81305 10.4949 5.77987-8.87502 2.60089-12.70014 4.10139-16.21039 6.08247-14.2293.35352.35352 2.07659 7.6948 3.82904 16.31398 1.77574 8.73366 3.43586 14.8122 3.75003 13.73078.31006-1.06724 1.79222-7.88465 3.29369-15.14979 2.83797-13.73203 3.53009-15.78518 5.11135-15.16253.52994.20867-.81914 8.38153-3.07387 18.62188-3.29212 14.95186-4.32616 18.25-5.72179 18.25-2.16619 0-2.0843.2585-5.49032-17.33283-3.23111-16.68797-2.9294-16.84222-7.00791 3.58283C243.09956 60.86684 242.3916 63 240.85586 63c-1.05964 0-2.04125-.9384-2.35362-2.25-.29473-1.2375-1.99505-9-3.77849-17.25-3.17476-14.68605-3.29999-15.00662-5.98319-15.31642L226 27.86716v15.36642C226 59.10887 226.44706 61 230.2 61c2.22205 0 2.36514 1.56916.21821 2.39301-2.25826.86658-2.80159.77811-4.97708-.81037zm50.65527.15262c-7.20594-3.70328-9.96513-17.78503-5.97025-30.46962 2.11447-6.71387 9.91828-9.37833 15.23013-5.20003 8.49198 6.6798 6.70336 32.62634-2.46952 35.82402-3.90509 1.36132-3.83811 1.36285-6.79036-.15437zm6.3588-2.35644c4.13582-1.58707 6.61525-14.16023 4.62367-23.44664C285.64838 30.262 283.68611 28 279.33031 28c-2.7076 0-3.7535.63082-5.38856 3.25-1.76833 2.83267-1.99116 4.62041-1.7353 13.92218.26698 9.70625.51297 10.9055 2.71786 13.25 2.42759 2.5813 4.49993 3.11972 7.53089 1.95664zM165 37.93045c0-24.91617.0129-25.0676 2.10372-24.75 1.71021.25978 3.85597 4.43485 11.47105 22.31955l9.36731 22 .029-22.25C187.9959 16.15176 188.21248 13 189.5 13c1.29344 0 1.5 3.45217 1.5 25.06955 0 24.84913-.0183 25.06674-2.08589 24.75-1.68679-.2584-3.77816-4.33768-10.93019-21.31955-4.86435-11.55-9.2132-21.59884-9.6641-22.33076-.4509-.73191-.68339 8.83059-.51664 21.25.2669 19.87886.11733 22.58076-1.25 22.58076C165.19024 63 165 59.9293 165 37.93045zM296 44.5c0-15.77778.22072-18.5 1.5-18.5 1.01566 0 1.5 1.01643 1.5 3.14788v3.14789l2.2823-3.39789C303.74766 25.22747 309 23.50516 309 26.36715c0 .88502-1.10742 1.62974-2.7011 1.81643-1.84963.21667-3.34698 1.41973-4.75 3.81642-1.73662 2.96656-2.10162 5.59566-2.3948 17.25-.27606 10.97396-.62937 13.75-1.75 13.75C296.24923 63 296 59.71623 296 44.5zm16-8.5c0-23.14585.21083-27 1.47693-27 1.2368 0 1.52132 2.88434 1.75 17.74104L315.5 44.4821l5.46896-9.24105c3.00792-5.08257 6.04542-9.24104 6.75-9.24104 1.89062 0 1.58781.93812-2.24456 6.95366-1.91092 2.99952-3.4744 6.04215-3.4744 6.7614 0 .71926 1.99887 6.28057 4.44194 12.35848 3.49295 8.68985 4.09562 10.98405 2.82093 10.73857-.99661-.19193-3.08978-3.93636-5.43414-9.72101-2.09722-5.17486-4.03039-9.6261-4.29593-9.89163-.26553-.26554-1.37907.59345-2.47453 1.90887-1.60363 1.92562-1.99821 3.90181-2.025 10.14166-.02665 6.20744-.33183 7.75-1.53327 7.75-1.2963 0-1.5-3.66667-1.5-27zM20.28175 34.00491c-9.32997-.82558-16.74878-2.6578-18.2923-4.51763-1.08915-1.31234-.09027-4.53922 2.87786-9.29695.9952-1.59525 1.66874-1.94102 2.17747-1.11787.49971.80854.94566.53304 1.38676-.85675.3576-1.1267 2.0943-2.59616 3.85932-3.26547 4.47986-1.69878 26.93787-2.3943 34.12722-1.0569 5.81063 1.08091 10.04914 3.54167 9.0064 5.22885-.2906.4702.17344.5856 1.0312.25645 1.14146-.43803 2.11997.66848 3.6501 4.12757 1.85204 4.18685 1.92055 4.89603.60052 6.21606-1.82414 1.82414-11.69666 4.24088-17.41099 4.2621-3.99428.01485-4.2366-.15451-4.84255-3.3845-1.06773-5.69148-.36073-7.03475 4.05692-7.70797 3.18944-.48604 2.54479-.63657-3.21196-.75L32.09544 22l-.29772 6.23996c-.34148 7.1571.34322 6.81434-11.51597 5.76495zM25.5 23c.38638-.62518-1.37189-.9437-4.69098-.8498L15.5 22.30038 20 23c2.475.38479 4.58594.7672 4.69098.8498.10504.08261.4691-.2998.80902-.8498zm1-12.65494c-1.1-.2326-3.0125-.63898-4.25-.90305-3.77124-.80472-2.52867-2.21652 2.99311-3.40073 7.37133-1.58086 19.82954.2194 17.51757 2.53137C41.12424 10.2091 31.04982 11.3072 26.5 10.34506z"/><path fill="#476b8f" d="M33.5 64.82918c-16.59429-1.03142-19.15886-1.59076-23.08041-5.03392-1.9228-1.68825-3.9196-3.86102-4.4373-4.82837-.88523-1.65405-.65958-1.67258 3.7882-.31105C12.37172 55.4521 21.25 56.5029 29.5 56.99095c20.85316 1.23361 25.07684 2.76722 18.29212 6.64185-2.90712 1.6602-4.57854 1.80012-14.29212 1.19637zm59.10432-1.82968C84.45068 60.45274 80.5 52.13007 80.5 37.5c0-8.95726.2956-10.60196 2.83476-15.77292C86.59648 15.08468 91.25027 12 98.00982 12 102.05417 12 108 14.29676 108 15.85901c0 1.71517-1.2453 1.89482-3.82069.55117-4.38234-2.28637-10.57072-1.79315-14.03074 1.11826-4.5949 3.86635-6.65476 10.39853-6.61318 20.97156.06433 16.35674 6.35498 23.82042 18.447 21.88683L106 59.74438V41.12073l-3.6727-.31037C96.1044 40.2845 96.98992 38 103.41667 38H109v11.8916c0 11.50634-.0729 11.90897-2.25 12.42823-5.13386 1.22447-11.43253 1.5271-14.14568.67967zm27.70291-.4663c-5.06649-2.2034-7.60514-8.27512-7.60629-18.1921-.002-13.57057 5.4357-21.45929 12.94691-18.78414 4.2704 1.52092 6.6699 5.68782 7.15756 12.4296L133.24038 44H116v4.03212c0 9.39673 4.75795 14.24642 12.06377 12.29638 3.11769-.83216 3.93623-.77738 3.93623.26343 0 .72273-1.6875 1.7827-3.75 2.35549-4.53428 1.25923-4.03494 1.28527-7.94277-.41423zm9.68903-24.7832c-.002-1.7875-.89544-4.7125-1.9853-6.5-4.0341-6.6164-11.99709-2.3057-12.00722 6.5L116 41h14l-.004-3.25zm14.10014 24.98526c-7.20594-3.70328-9.96513-17.78503-5.97025-30.46962 2.11447-6.71387 9.91828-9.37833 15.23013-5.20003 8.49198 6.6798 6.70336 32.62634-2.46952 35.82402-3.90509 1.36132-3.83811 1.36285-6.79036-.15437zm6.3588-2.35644c4.13582-1.58707 6.61525-14.16023 4.62367-23.44664C153.64838 30.262 151.68611 28 147.33031 28c-2.7076 0-3.7535.63082-5.38856 3.25-1.76833 2.83267-1.99116 4.62041-1.7353 13.92218.26698 9.70625.51297 10.9055 2.71786 13.25 2.42759 2.5813 4.49993 3.11972 7.53089 1.95664zm53.85203 2.15437c-5.06649-2.20339-7.60514-8.27511-7.60629-18.19209-.002-13.57057 5.4357-21.45929 12.94691-18.78414 4.2704 1.52092 6.6699 5.68782 7.15756 12.4296L217.24038 44H200v4.03212c0 9.39673 4.75795 14.24642 12.06377 12.29638 3.11769-.83216 3.93623-.77738 3.93623.26343 0 .72273-1.6875 1.7827-3.75 2.35549-4.53428 1.25923-4.03494 1.28527-7.94277-.41423zM213.99626 37.75c-.002-1.7875-.89544-4.7125-1.9853-6.5-4.0341-6.6164-11.99709-2.3057-12.00722 6.5L200 41h14l-.004-3.25zm11.44487 24.83264c-1.76219-1.28671-1.97038-2.94602-2.25843-18C222.92286 31.00302 222.60595 28 221.4327 28c-.78798 0-1.4327-.45-1.4327-1s.62391-1 1.38646-1c.87656 0 1.63463-1.65494 2.06127-4.5.37115-2.475 1.09724-4.5 1.61354-4.5S226 19.025 226 21.5V26h7.86358l1.6069 7.25c.8838 3.9875 2.41208 11.3 3.39619 16.25 2.02253 10.17323 1.81305 10.4949 5.77987-8.87502 2.60089-12.70014 4.10139-16.21039 6.08247-14.2293.35352.35352 2.07659 7.6948 3.82904 16.31398 1.77574 8.73366 3.43586 14.8122 3.75003 13.73078.31006-1.06724 1.79222-7.88465 3.29369-15.14979 2.83797-13.73203 3.53009-15.78518 5.11135-15.16253.52994.20867-.81914 8.38153-3.07387 18.62188-3.29212 14.95186-4.32616 18.25-5.72179 18.25-2.16619 0-2.0843.2585-5.49032-17.33283-3.23111-16.68797-2.9294-16.84222-7.00791 3.58283C243.09956 60.86684 242.3916 63 240.85586 63c-1.05964 0-2.04125-.9384-2.35362-2.25-.29473-1.2375-1.99505-9-3.77849-17.25-3.17476-14.68605-3.29999-15.00662-5.98319-15.31642L226 27.86716v15.36642C226 59.10887 226.44706 61 230.2 61c2.22205 0 2.36514 1.56916.21821 2.39301-2.25826.86658-2.80159.77811-4.97708-.81037zm50.65527.15262c-7.20594-3.70328-9.96513-17.78503-5.97025-30.46962 2.11447-6.71387 9.91828-9.37833 15.23013-5.20003 8.49198 6.6798 6.70336 32.62634-2.46952 35.82402-3.90509 1.36132-3.83811 1.36285-6.79036-.15437zm6.3588-2.35644c4.13582-1.58707 6.61525-14.16023 4.62367-23.44664C285.64838 30.262 283.68611 28 279.33031 28c-2.7076 0-3.7535.63082-5.38856 3.25-1.76833 2.83267-1.99116 4.62041-1.7353 13.92218.26698 9.70625.51297 10.9055 2.71786 13.25 2.42759 2.5813 4.49993 3.11972 7.53089 1.95664zM165 37.93045c0-24.91617.0129-25.0676 2.10372-24.75 1.71021.25978 3.85597 4.43485 11.47105 22.31955l9.36731 22 .029-22.25C187.9959 16.15176 188.21248 13 189.5 13c1.29344 0 1.5 3.45217 1.5 25.06955 0 24.84913-.0183 25.06674-2.08589 24.75-1.68679-.2584-3.77816-4.33768-10.93019-21.31955-4.86435-11.55-9.2132-21.59884-9.6641-22.33076-.4509-.73191-.68339 8.83059-.51664 21.25.2669 19.87886.11733 22.58076-1.25 22.58076C165.19024 63 165 59.9293 165 37.93045zM296 44.5c0-15.77778.22072-18.5 1.5-18.5 1.01566 0 1.5 1.01643 1.5 3.14788v3.14789l2.2823-3.39789C303.74766 25.22747 309 23.50516 309 26.36715c0 .88502-1.10742 1.62974-2.7011 1.81643-1.84963.21667-3.34698 1.41973-4.75 3.81642-1.73662 2.96656-2.10162 5.59566-2.3948 17.25-.27606 10.97396-.62937 13.75-1.75 13.75C296.24923 63 296 59.71623 296 44.5zm16-8.5c0-23.14585.21083-27 1.47693-27 1.2368 0 1.52132 2.88434 1.75 17.74104L315.5 44.4821l5.46896-9.24105c3.00792-5.08257 6.04542-9.24104 6.75-9.24104 1.89062 0 1.58781.93812-2.24456 6.95366-1.91092 2.99952-3.4744 6.04215-3.4744 6.7614 0 .71926 1.99887 6.28057 4.44194 12.35848 3.49295 8.68985 4.09562 10.98405 2.82093 10.73857-.99661-.19193-3.08978-3.93636-5.43414-9.72101-2.09722-5.17486-4.03039-9.6261-4.29593-9.89163-.26553-.26554-1.37907.59345-2.47453 1.90887-1.60363 1.92562-1.99821 3.90181-2.025 10.14166-.02665 6.20744-.33183 7.75-1.53327 7.75-1.2963 0-1.5-3.66667-1.5-27zM52.0856 52.34847c-2.1037-.91702-9.39738-1.85536-19-2.44438-16.2697-.99796-25.64556-2.29084-29.56565-4.07696C1.15809 44.751 0 41.43638 0 35.75256c0-2.35464.28035-2.76478 1.3073-1.91249C4.0825 36.1433 15.05786 38.0879 28 38.56944c15.95749.59375 27.4209 2.09214 31.30089 4.09135 2.99717 1.54434 3.00387 2.7764.04674 8.58921-1.57228 3.09064-2.40348 3.21637-7.26204 1.09847zM20.28174 34.00491c-9.36714-.82887-16.74989-2.65913-18.3103-4.5393-.77618-.93525-.4775-2.53826 1.09712-5.88811C5.20355 19.03554 7 16.90413 7 18.91305c0 1.2349 8.89607 3.86312 14.5 4.2838 3.88196.29141 4.01476.19703 4.5-3.19829.41978-2.93722.9474-3.54993 3.28845-3.8187l2.78846-.32013-.28846 9.30871c-.32993 10.64742.6298 9.9104-11.5067 8.83647zm18.171-3.40505c-1.16722-6.22187-.6141-6.85455 7.134-8.16006 3.89679-.65659 8.02933-1.69915 9.18342-2.3168 3.04502-1.62964 3.14762-1.56308 5.38422 3.49312 1.80897 4.08948 1.87194 4.78612.55191 6.10615-1.82414 1.82414-11.69666 4.24088-17.41099 4.2621-3.99428.01485-4.2366-.15451-4.84255-3.3845zM26.5 10.34506c-1.1-.2326-3.0125-.63898-4.25-.90305-3.77124-.80472-2.52867-2.21652 2.99311-3.40073 7.37133-1.58086 19.82954.2194 17.51757 2.53137C41.12424 10.2091 31.04982 11.3072 26.5 10.34506z"/><path fill="#0b5591" d="M27.5 63.98814c-12.63823-.78972-15.14608-1.59039-18.87977-6.02762-3.17419-3.77231-2.95288-4.42157.99108-2.90758 1.58878.60989 10.07814 1.52123 18.86525 2.0252C43.4335 57.93596 51 59.20709 51 60.86194c0 1.52786-5.98977 4.12927-9.1543 3.9758-1.84013-.08923-8.2957-.47155-14.3457-.8496zM88.98487 60.75c-6.23848-4.2395-9.75954-15.66932-8.5393-27.7196 1.4958-14.77145 9.57217-22.75046 20.8807-20.62897 3.85808.72378 7.50813 3.0975 6.42638 4.17925-.40931.40931-1.89227.2211-3.29548-.41824-3.52273-1.60506-9.99004-1.45536-13.40442.31028-8.8566 4.57993-10.80382 29.94626-3.05499 39.7973 2.689 3.41852 8.0391 5.1015 13.57722 4.271L106 59.87746V40h-3.5c-1.925 0-3.5-.45-3.5-1s2.25-1 5-1h5v11.52475c0 11.45093-.0164 11.531-2.5651 12.5-4.84703 1.84284-13.82787 1.18678-17.45003-1.27475zm29.67021 1.11678c-5.74814-3.34123-7.82037-22.14909-3.40508-30.90489 1.83728-3.64344 2.94136-4.63267 6.01906-5.39291 3.14993-.77809 4.21766-.59844 6.5 1.09366 3.20785 2.37826 5.09569 7.15298 5.1745 13.08736L133 44h-18.12255l.69113 4.75c1.43163 9.83938 5.36289 13.48222 12.49519 11.5785 3.04767-.81347 3.93623-.76754 3.93623.20344 0 .68975-.7118 1.52723-1.58179 1.86107-2.5231.9682-9.74821.64499-11.76313-.52623zm11.50027-23.80063c-.51721-5.15313-1.78424-7.77688-4.66796-9.66637-2.47919-1.62442-2.72884-1.61052-5.29463.29495-2.65366 1.97072-5.78424 10.53922-4.569 12.50551.30047.48617 3.77054.7525 7.71127.59185L130.5 41.5zm10.4941 21.9291c-3.05518-3.63089-4.05594-9.41245-3.44775-19.91843.55287-9.55052 2.92556-13.63487 8.5318-14.6866 7.68439-1.4416 12.44151 4.92316 12.64468 16.91786.15875 9.37201-.87862 13.94477-4.00686 17.66248C152.25749 62.4827 151.08416 63 147.5 63c-3.57635 0-4.75852-.51852-6.85055-3.00475zm11.2978-.9425c2.88202-2.88202 4.33321-9.62685 3.81758-17.74323-.49806-7.8396-2.30255-11.68614-6.34661-13.52874-3.71547-1.69288-7.55966 1.5654-9.22203 7.81646-2.30493 8.66734.0536 23.13246 4.03277 24.73347 2.73263 1.09946 5.85842.58191 7.71829-1.27796zM165 38c0-23.98039.0782-25 1.91874-25 1.55118 0 3.70624 4.21982 11.25 22.0286L187.5 57.05717l.26913-22.02859c.22806-18.66666.49514-22.02859 1.75-22.02859C190.78747 13 191 16.58799 191 38c0 23.8742-.0854 25-1.89556 25-1.52073 0-3.71431-4.30088-11.09313-21.75-5.05867-11.9625-9.60566-22.1775-10.10444-22.7C167.36311 17.98038 167 26.68908 167 40.3c0 14.46667-.3627 22.7-1 22.7-.64 0-1-9-1-25zm37.65508 23.86678c-5.74814-3.34123-7.82037-22.14909-3.40508-30.90489 1.83728-3.64344 2.94136-4.63267 6.01906-5.39291 3.14993-.77809 4.21766-.59844 6.5 1.09366 3.20785 2.37826 5.09569 7.15298 5.1745 13.08736L217 44h-18.12255l.69113 4.75c1.43163 9.83938 5.36289 13.48222 12.49519 11.5785 3.04767-.81347 3.93623-.76754 3.93623.20344 0 .68975-.7118 1.52723-1.58179 1.86107-2.5231.9682-9.74821.64499-11.76313-.52623zm11.50027-23.80063c-.51721-5.15313-1.78424-7.77688-4.66796-9.66637-2.47919-1.62442-2.72884-1.61052-5.29463.29495-2.65366 1.97072-5.78424 10.53922-4.569 12.50551.30047.48617 3.77054.7525 7.71127.59185L214.5 41.5zm10.71709 23.28355c-1.0027-1.2057-1.45833-5.9203-1.69125-17.5-.2824-14.03941-.51083-15.85333-2-15.8815-1.50445-.02846-1.48831-.17797.15353-1.4222 1.01774-.77126 2.07827-3.20618 2.38167-5.4682C224.45133 15.59843 226 15.88474 226 21.5V26H233.73929l2.13559 10.25c1.17457 5.6375 2.74606 13.175 3.4922 16.75.74614 3.575 1.59557 5.825 1.88762 5 .29205-.825 1.76916-7.8 3.28246-15.5 3.21969-16.38253 3.25579-16.5 5.06983-16.5.76615 0 1.39778.1125 1.40361.25.006.1375 1.53717 7.675 3.40298 16.75 2.30109 11.19216 3.58396 15.69578 3.98794 14 .32756-1.375 1.94268-8.75896 3.58915-16.4088 1.64647-7.64983 3.22212-14.13733 3.50146-14.41666 1.87095-1.87095 1.32888 2.98604-2.05616 18.42349-3.47231 15.83547-5.10089 20.07038-6.9913 18.17997-.258-.258-1.89535-7.59296-3.63856-16.29992-2.1347-10.6623-3.41502-15.2019-3.92152-13.90446-.41362 1.05951-1.98973 8.1598-3.50246 15.77843-1.71842 8.6545-3.26034 14.04772-4.10941 14.37354-.74743.28682-1.55096.3295-1.7856.09487-.23464-.23464-2.02094-7.76744-3.96955-16.73954-1.9486-8.9721-3.78877-16.71072-4.08926-17.19692-.30049-.4862-1.64479-.884-2.98733-.884H226v15.3c0 15.80624.44937 17.7 4.2 17.7.99 0 1.8.45 1.8 1 0 1.64512-5.64709 1.1299-7.12756-.6503zm47.77701-1.35445c-3.05518-3.63089-4.05594-9.41245-3.44775-19.91843.55287-9.55052 2.92556-13.63487 8.5318-14.6866 7.68439-1.4416 12.44151 4.92316 12.64468 16.91786.15875 9.37201-.87862 13.94477-4.00686 17.66248C284.25749 62.4827 283.08416 63 279.5 63c-3.57635 0-4.75852-.51852-6.85055-3.00475zm11.2978-.9425c2.88202-2.88202 4.33321-9.62685 3.81758-17.74323-.49806-7.8396-2.30255-11.68614-6.34661-13.52874-3.71547-1.69288-7.55966 1.5654-9.22203 7.81646-2.30493 8.66734.0536 23.13246 4.03277 24.73347 2.73263 1.09946 5.85842.58191 7.71829-1.27796zM296 44.5c0-17.33697.88947-22.8327 2.50497-15.47739l.66387 3.02261 2.19788-3.27261C303.7563 25.21457 309 23.56214 309 26.36716c0 .87656-1.10187 1.6315-2.6511 1.81642-1.48925.17775-3.57095 1.5528-4.75 3.13757-1.85856 2.4981-2.13826 4.4734-2.44266 17.25C298.88062 60.13956 298.53369 63 297.40624 63 296.2486 63 296 59.72954 296 44.5zm16-8c0-22.88889.2044-26.5 1.5-26.5 1.27687 0 1.5 2.63437 1.5 17.70938v17.70938l5.75-9.68741c3.1625-5.32808 6.3125-9.6973 7-9.70938 1.77353-.03117 1.68189.21458-2.61266 7.00668l-3.86265 6.10903 4.49703 11.46345c4.1552 10.59207 4.74514 13.45438 2.48518 12.05764-.48189-.29782-2.61573-5.13492-4.74187-10.74911l-3.86571-10.20762-2.31969 2.89898c-1.97602 2.46948-2.32043 4.04719-2.32466 10.64898-.00399 6.22001-.3011 7.75-1.50497 7.75-1.2956 0-1.5-3.61111-1.5-26.5zM53.29628 52.43444C49.43634 50.74478 35.31305 49.026 25 48.99084c-8.55857-.02918-20.77333-2.3356-22.7296-4.29186-.72584-.72585-1.6029-3.71083-1.94903-6.63329l-.6293-5.31356 2.40396 1.56853C6.08234 36.92163 13.59437 38.07913 32.5 39.00549c17.16583.8411 27.54016 2.63244 29.00894 5.00897.71292 1.15353-3.0498 10.02062-4.20271 9.90397-.44343-.04487-2.2479-.71266-4.00995-1.48399zM12 32.90378C1.7871 30.91321.474 29.26791 3.69969 22.50357c1.21942-2.55716 2.13775-3.37637 3.25-2.89923 4.54111 1.94806 9.08887 3.20714 13.66976 3.78458l5.11946.64533.64236-4.01713C26.88132 16.89003 27.46413 16 29.01182 16 30.84879 16 31 16.6845 31 25v9l-7.25-.10957c-3.9875-.06026-9.275-.50425-11.75-.98665zm26.63266-3.56718c-.35156-2.56487-.47232-4.83028-.26835-5.03424.20396-.20396 3.24293-.83122 6.75326-1.3939 3.51034-.5627 7.68907-1.67229 9.28607-2.46577C56.00064 19.64921 57.41358 19 57.5435 19c.12993 0 1.20719 2.06561 2.3939 4.59025 1.62676 3.46076 1.88296 4.92127 1.0412 5.93552C59.69224 31.07575 47.73828 34 42.6885 34c-3.30907 0-3.43679-.14685-4.05585-4.6634zM21.5223 9.08676c-1.91696-.74895-1.90856-.80967.27347-1.97746 2.43961-1.30564 14.1379-1.66602 18.50458-.57005 3.0282.76003 3.49155 1.9429 1.11786 2.85376-2.23497.85764-17.51903.62238-19.8959-.30625z"/><path fill="#134675" d="M27.5 63.98814c-12.63823-.78972-15.14608-1.59039-18.87977-6.02762-3.17419-3.77231-2.95288-4.42157.99108-2.90758 1.58878.60989 10.07814 1.52123 18.86525 2.0252C43.4335 57.93596 51 59.20709 51 60.86194c0 1.52786-5.98977 4.12927-9.1543 3.9758-1.84013-.08923-8.2957-.47155-14.3457-.8496zM88.98487 60.75c-6.23848-4.2395-9.75954-15.66932-8.5393-27.7196 1.4958-14.77145 9.57217-22.75046 20.8807-20.62897 3.85808.72378 7.50813 3.0975 6.42638 4.17925-.40931.40931-1.89227.2211-3.29548-.41824-3.52273-1.60506-9.99004-1.45536-13.40442.31028-8.8566 4.57993-10.80382 29.94626-3.05499 39.7973 2.689 3.41852 8.0391 5.1015 13.57722 4.271L106 59.87746V40h-3.5c-1.925 0-3.5-.45-3.5-1s2.25-1 5-1h5v11.52475c0 11.45093-.0164 11.531-2.5651 12.5-4.84703 1.84284-13.82787 1.18678-17.45003-1.27475zm29.67021 1.11678c-5.74814-3.34123-7.82037-22.14909-3.40508-30.90489 1.83728-3.64344 2.94136-4.63267 6.01906-5.39291 3.14993-.77809 4.21766-.59844 6.5 1.09366 3.20785 2.37826 5.09569 7.15298 5.1745 13.08736L133 44h-18.12255l.69113 4.75c1.43163 9.83938 5.36289 13.48222 12.49519 11.5785 3.04767-.81347 3.93623-.76754 3.93623.20344 0 .68975-.7118 1.52723-1.58179 1.86107-2.5231.9682-9.74821.64499-11.76313-.52623zm11.50027-23.80063c-.51721-5.15313-1.78424-7.77688-4.66796-9.66637-2.47919-1.62442-2.72884-1.61052-5.29463.29495-2.65366 1.97072-5.78424 10.53922-4.569 12.50551.30047.48617 3.77054.7525 7.71127.59185L130.5 41.5zm10.4941 21.9291c-3.05518-3.63089-4.05594-9.41245-3.44775-19.91843.55287-9.55052 2.92556-13.63487 8.5318-14.6866 7.68439-1.4416 12.44151 4.92316 12.64468 16.91786.15875 9.37201-.87862 13.94477-4.00686 17.66248C152.25749 62.4827 151.08416 63 147.5 63c-3.57635 0-4.75852-.51852-6.85055-3.00475zm11.2978-.9425c2.88202-2.88202 4.33321-9.62685 3.81758-17.74323-.49806-7.8396-2.30255-11.68614-6.34661-13.52874-3.71547-1.69288-7.55966 1.5654-9.22203 7.81646-2.30493 8.66734.0536 23.13246 4.03277 24.73347 2.73263 1.09946 5.85842.58191 7.71829-1.27796zM165 38c0-23.98039.0782-25 1.91874-25 1.55118 0 3.70624 4.21982 11.25 22.0286L187.5 57.05717l.26913-22.02859c.22806-18.66666.49514-22.02859 1.75-22.02859C190.78747 13 191 16.58799 191 38c0 23.8742-.0854 25-1.89556 25-1.52073 0-3.71431-4.30088-11.09313-21.75-5.05867-11.9625-9.60566-22.1775-10.10444-22.7C167.36311 17.98038 167 26.68908 167 40.3c0 14.46667-.3627 22.7-1 22.7-.64 0-1-9-1-25zm37.65508 23.86678c-5.74814-3.34123-7.82037-22.14909-3.40508-30.90489 1.83728-3.64344 2.94136-4.63267 6.01906-5.39291 3.14993-.77809 4.21766-.59844 6.5 1.09366 3.20785 2.37826 5.09569 7.15298 5.1745 13.08736L217 44h-18.12255l.69113 4.75c1.43163 9.83938 5.36289 13.48222 12.49519 11.5785 3.04767-.81347 3.93623-.76754 3.93623.20344 0 .68975-.7118 1.52723-1.58179 1.86107-2.5231.9682-9.74821.64499-11.76313-.52623zm11.50027-23.80063c-.51721-5.15313-1.78424-7.77688-4.66796-9.66637-2.47919-1.62442-2.72884-1.61052-5.29463.29495-2.65366 1.97072-5.78424 10.53922-4.569 12.50551.30047.48617 3.77054.7525 7.71127.59185L214.5 41.5zm10.71709 23.28355c-1.0027-1.2057-1.45833-5.9203-1.69125-17.5-.2824-14.03941-.51083-15.85333-2-15.8815-1.50445-.02846-1.48831-.17797.15353-1.4222 1.01774-.77126 2.07827-3.20618 2.38167-5.4682C224.45133 15.59843 226 15.88474 226 21.5V26H233.73929l2.13559 10.25c1.17457 5.6375 2.74606 13.175 3.4922 16.75.74614 3.575 1.59557 5.825 1.88762 5 .29205-.825 1.76916-7.8 3.28246-15.5 3.21969-16.38253 3.25579-16.5 5.06983-16.5.76615 0 1.39778.1125 1.40361.25.006.1375 1.53717 7.675 3.40298 16.75 2.30109 11.19216 3.58396 15.69578 3.98794 14 .32756-1.375 1.94268-8.75896 3.58915-16.4088 1.64647-7.64983 3.22212-14.13733 3.50146-14.41666 1.87095-1.87095 1.32888 2.98604-2.05616 18.42349-3.47231 15.83547-5.10089 20.07038-6.9913 18.17997-.258-.258-1.89535-7.59296-3.63856-16.29992-2.1347-10.6623-3.41502-15.2019-3.92152-13.90446-.41362 1.05951-1.98973 8.1598-3.50246 15.77843-1.71842 8.6545-3.26034 14.04772-4.10941 14.37354-.74743.28682-1.55096.3295-1.7856.09487-.23464-.23464-2.02094-7.76744-3.96955-16.73954-1.9486-8.9721-3.78877-16.71072-4.08926-17.19692-.30049-.4862-1.64479-.884-2.98733-.884H226v15.3c0 15.80624.44937 17.7 4.2 17.7.99 0 1.8.45 1.8 1 0 1.64512-5.64709 1.1299-7.12756-.6503zm47.77701-1.35445c-3.05518-3.63089-4.05594-9.41245-3.44775-19.91843.55287-9.55052 2.92556-13.63487 8.5318-14.6866 7.68439-1.4416 12.44151 4.92316 12.64468 16.91786.15875 9.37201-.87862 13.94477-4.00686 17.66248C284.25749 62.4827 283.08416 63 279.5 63c-3.57635 0-4.75852-.51852-6.85055-3.00475zm11.2978-.9425c2.88202-2.88202 4.33321-9.62685 3.81758-17.74323-.49806-7.8396-2.30255-11.68614-6.34661-13.52874-3.71547-1.69288-7.55966 1.5654-9.22203 7.81646-2.30493 8.66734.0536 23.13246 4.03277 24.73347 2.73263 1.09946 5.85842.58191 7.71829-1.27796zM296 44.5c0-17.33697.88947-22.8327 2.50497-15.47739l.66387 3.02261 2.19788-3.27261C303.7563 25.21457 309 23.56214 309 26.36716c0 .87656-1.10187 1.6315-2.6511 1.81642-1.48925.17775-3.57095 1.5528-4.75 3.13757-1.85856 2.4981-2.13826 4.4734-2.44266 17.25C298.88062 60.13956 298.53369 63 297.40624 63 296.2486 63 296 59.72954 296 44.5zm16-8c0-22.88889.2044-26.5 1.5-26.5 1.27687 0 1.5 2.63437 1.5 17.70938v17.70938l5.75-9.68741c3.1625-5.32808 6.3125-9.6973 7-9.70938 1.77353-.03117 1.68189.21458-2.61266 7.00668l-3.86265 6.10903 4.49703 11.46345c4.1552 10.59207 4.74514 13.45438 2.48518 12.05764-.48189-.29782-2.61573-5.13492-4.74187-10.74911l-3.86571-10.20762-2.31969 2.89898c-1.97602 2.46948-2.32043 4.04719-2.32466 10.64898-.00399 6.22001-.3011 7.75-1.50497 7.75-1.2956 0-1.5-3.61111-1.5-26.5zM53.29628 52.43444c-2.74093-1.19982-17.1945-3.4007-22.50082-3.42624-1.41204-.0068-1.29031-.42244.70933-2.42208 1.32763-1.32763 2.72087-3.63702 3.09607-5.13197l.6822-2.7181 7.71566.64346c8.15783.68034 17.51406 3.02313 18.51022 4.63495.71292 1.15353-3.0498 10.02062-4.20271 9.90397-.44343-.04487-2.2479-.71266-4.00995-1.48399zM7 46.8365c-4.91343-1.38015-5.96377-2.735-6.65683-8.5868l-.60752-5.12957 4.13217 2.04444C6.3657 36.40042 8 37.90349 8 38.96496c0 .96577 1.11144 3.39374 2.46986 5.3955C13.0789 48.20508 12.7381 48.44828 7 46.8365zm31.63266-17.4999c-.35156-2.56487-.47232-4.83028-.26835-5.03424.20396-.20396 3.24293-.83122 6.75326-1.3939 3.51034-.5627 7.68907-1.67229 9.28607-2.46577C56.00064 19.64921 57.41358 19 57.5435 19c.12993 0 1.20719 2.06561 2.3939 4.59025 1.62676 3.46076 1.88296 4.92127 1.0412 5.93552C59.69224 31.07575 47.73828 34 42.6885 34c-3.30907 0-3.43679-.14685-4.05585-4.6634zM4.25 30.7795C3.0125 30.18268 2 28.8408 2 27.79753c0-1.53342 2.3388-7.23855 3.53425-8.62127.15394-.17805 1.57476.34587 3.15737 1.16427 1.58262.8184 4.60793 1.81264 6.7229 2.20941l3.84542.7214-3.03474 1.27602c-1.6691.7018-4.06222 2.66575-5.31803 4.36432C8.4474 32.23871 7.7066 32.44656 4.25 30.7795zm23.37908-6.25997C25.03823 22.55747 26.1283 16 29.0453 16 30.72427 16 31 16.7053 31 21c0 5.32305-.41596 5.75735-3.37092 3.51953zM21.5223 9.08676c-1.91696-.74895-1.90856-.80967.27347-1.97746 2.43961-1.30564 14.1379-1.66602 18.50458-.57005 3.0282.76003 3.49155 1.9429 1.11786 2.85376-2.23497.85764-17.51903.62238-19.8959-.30625z"/><path fill="#003265" d="M28.40905 64.02142c-13.04452-.7139-17.38344-2.281-20.81468-7.51774-1.61051-2.45795-1.60905-2.45976 1.14464-1.4128 1.51647.57655 10.85806 1.646 20.7591 2.37656C46.77351 58.7421 51 59.41514 51 60.89138c0 1.28942-5.81827 4.10797-8.1543 3.95018-1.29013-.08714-7.78663-.4562-14.43665-.82014zm60.8779-3.11307c-7.34442-4.7041-11.08975-20.32274-7.87884-32.85612 2.91552-11.38038 9.38103-16.90124 18.35298-15.6715 5.48428.7517 8.80929 2.44889 7.45363 3.80455-.66667.66667-1.68054.63579-3.04162-.09264C103.05021 15.4917 99.89949 15 97.1715 15c-4.05757 0-5.5079.51183-7.97153 2.8132C85.53737 21.2346 83 29.141 83 37.13228c0 17.36171 6.98346 25.78182 19.44412 23.44418L106 59.90937V40h-3.5c-1.925 0-3.5-.45-3.5-1s2.25-1 5-1h5v11.52475c0 11.45093-.0164 11.531-2.5651 12.5-4.57224 1.73837-13.60946 1.15-17.14795-1.1164zm28.80866-.48135c-4.01352-3.37715-5.41934-8.90503-4.88285-19.20003.46532-8.92918 2.05657-12.35067 7.06633-15.19395C126.1239 22.7158 133 30.10972 133 39.71189V44h-9c-10.10459 0-9.82288-.28474-7.91458 8 1.36838 5.94074 4.31025 9 8.65464 9 1.86528 0 4.26184-.46583 5.32568-1.03518 1.26605-.67757 1.93426-.68973 1.93426-.03519C132 61.51526 128.44211 63 124.64247 63c-2.28906 0-4.54068-.88492-6.54686-2.573zm12.37405-22.177c-1.43993-8.69577-4.12203-11.87732-8.98405-10.65703-2.9698.74537-4.94012 4.16145-5.85835 10.15703l-.6509 4.25h16.11427zm12.18542 23.61678c-5.56347-3.2339-7.78994-21.8253-3.64032-30.39727 4.20891-8.69444 12.8515-8.50869 17.14891.36858 2.56589 5.30044 3.0604 17.26623.96689 23.39627-2.23393 6.54122-9.16725 9.71795-14.47548 6.63242zm10.74558-4.1888c1.79345-2.41082 2.09934-4.23218 2.09934-12.5 0-6.06824-.52448-10.92156-1.40617-13.0121-2.46485-5.84436-9.81867-6.53244-12.58767-1.1778-3.45882 6.68863-2.71099 23.91813 1.22703 28.26959 2.51657 2.78078 8.03115 1.96416 10.66747-1.57968zM165 38c0-23.47772.11044-25 1.81377-25 1.41419 0 3.8722 4.85516 11.15719 22.03813 5.13888 12.12097 9.61018 22.20363 9.93623 22.40591.32604.20228.45638-9.71488.28963-22.03813C187.92998 15.68513 188.07978 13 189.44682 13 190.80964 13 191 16.06403 191 38c0 33.07593-.16791 33.11162-12.93598 2.75-5.14628-12.2375-9.74098-22.6775-10.21045-23.2-.4742-.52777-.85357 9.36126-.85357 22.25 0 14.8-.36207 23.2-1 23.2-.64 0-1-9-1-25zm37.09561 22.427c-4.01352-3.37715-5.41934-8.90503-4.88285-19.20003.46532-8.92918 2.05657-12.35067 7.06633-15.19395C210.1239 22.7158 217 30.10972 217 39.71189V44h-9c-10.10459 0-9.82288-.28474-7.91458 8 1.36838 5.94074 4.31025 9 8.65464 9 1.86528 0 4.26184-.46583 5.32568-1.03518 1.26605-.67757 1.93426-.68973 1.93426-.03519C216 61.51526 212.44211 63 208.64247 63c-2.28906 0-4.54068-.88492-6.54686-2.573zm12.37405-22.177c-1.43993-8.69577-4.12203-11.87732-8.98405-10.65703-2.9698.74537-4.94012 4.16145-5.85835 10.15703l-.6509 4.25h16.11427zm10.40278 23.0997c-1.0027-1.2057-1.45833-5.9203-1.69125-17.5-.2824-14.03941-.51083-15.85333-2-15.8815-1.50445-.02846-1.48831-.17797.15353-1.4222 1.01774-.77126 2.07827-3.20618 2.38167-5.4682C224.45133 15.59843 226 15.88474 226 21.5V26h7.70448l3.37374 16.44069c1.85556 9.04238 3.57371 16.24072 3.81812 15.9963.24441-.2444 1.70481-6.63021 3.24534-14.19068C247.90255 25.789 247.84119 26 249.44815 26c1.44671 0 1.63441.69654 6.06307 22.5 1.22887 6.05 2.48401 10.325 2.78922 9.5.30521-.825 1.93526-8.21029 3.62232-16.41175 1.68707-8.20146 3.29462-15.13896 3.57232-15.41667 1.7849-1.78489 1.25148 2.7892-2.14406 18.38544-3.39048 15.57298-5.06569 20.06164-6.82908 18.29825-.21549-.2155-1.87047-7.73545-3.67772-16.711-1.80725-8.97557-3.48726-15.71735-3.73335-14.98174-.2461.7356-1.85983 8.08624-3.58608 16.33474-4.26419 20.37555-5.19808 20.40478-9.51801.29785C231.8525 28.45925 231.67834 28 228.49998 28h-2.54952l.27477 16.25L226.5 60.5l2.75.31642c1.5125.17404 2.75.73654 2.75 1.25 0 1.59494-5.6801 1.02377-7.12756-.71672zm49.78264.51708c-5.56347-3.2339-7.78994-21.8253-3.64032-30.39727 4.20891-8.69444 12.8515-8.50869 17.14891.36858 2.56589 5.30044 3.0604 17.26623.96689 23.39627-2.23393 6.54122-9.16725 9.71795-14.47548 6.63242zm10.74558-4.1888c1.79345-2.41082 2.09934-4.23218 2.09934-12.5 0-6.06824-.52448-10.92156-1.40617-13.0121-2.46485-5.84436-9.81867-6.53244-12.58767-1.1778-3.45882 6.68863-2.71099 23.91813 1.22703 28.26959 2.51657 2.78078 8.03115 1.96416 10.66747-1.57968zM296 44.5c0-17.38644.88955-22.83235 2.51824-15.41697l.67714 3.08303 1.54862-2.33303C303.80498 25.22156 309 23.12428 309 26.5c0 .88435-.92347 1.50629-2.25 1.51531-5.93815.04042-7.75 5.17264-7.75 21.95257C299 60.88532 298.7566 63 297.5 63c-1.27928 0-1.5-2.72222-1.5-18.5zm16-8c0-22.5361.21785-26.5 1.45638-26.5 1.20943 0 1.50616 3.0096 1.75 17.75.43057 26.02877-.03503 35.25-1.77985 35.25C312.22705 63 312 58.78227 312 36.5zm15.08958 24.25c-7.57852-19.8065-7.14971-19.00556-9.18777-17.16114-1.04599.94661-1.90181 1.44233-1.90181 1.1016 0-.89954 9.05789-15.92964 10.62528-17.63094 2.93223-3.18273 2.05688-.12895-1.63819 5.71504l-3.92042 6.20038 4.46667 11.55696C327.99 56.88823 330 62.29386 330 62.54443c0 1.44828-2.18517.101-2.91042-1.79443zm-271.548-7.68272c-.61134-.98918-7.56345-2.5256-16.35389-3.61421-4.82326-.59732-5.1805-.80956-3.88049-2.30548.7875-.90617 1.87396-2.99759 2.41434-4.64759.94933-2.89865 1.16489-2.98985 6.3805-2.69963 7.1645.39868 15.85026 2.91176 16.57298 4.79512C61.30486 46.23684 58.19459 54 56.90714 54c-.434 0-1.04851-.41972-1.36556-.93272zM4.3953 45.57023c-2.54277-1.10688-3.2254-2.10626-3.77152-5.52154-.8139-5.0898-.17147-6.41217 2.4369-5.01621 1.18478.63407 1.94172 2.09416 1.94548 3.7527.0034 1.49315.6517 3.95232 1.4407 5.46482.789 1.5125 1.34872 2.73239 1.24384 2.71086-.10489-.02153-1.58782-.64731-3.2954-1.39063zM39 30.58178c0-1.88002-.24648-4.06053-.54773-4.84557-.42039-1.09551 1.114-1.70178 6.59988-2.60776 3.93119-.64922 8.38138-1.8184 9.88933-2.5982 2.66223-1.3767 2.7898-1.31697 4.40012 2.0599 2.36206 4.95328 2.0937 6.9902-1.0916 8.28543C54.85251 32.25711 45.71165 34 41.86351 34 39.27064 34 39 33.67693 39 30.58179zm-35.75-.24407c-1.83092-.7388-1.5195-4.38349.68323-7.99594 1.92317-3.154 1.93018-3.15609 5.24626-1.56166L12.5 22.37668l-3.25 3.38286C7.4625 27.62012 6 29.56036 6 30.0712c0 .99639-.75892 1.06994-2.75.26652zm24.60739-9.00637C25.59504 20.72997 26.67945 17 29.11663 17 30.4589 17 31 17.71827 31 19.5c0 2.52281-.1696 2.62165-3.14261 1.83136zM22.02896 9.03906c-2.56035-1.61922-.10805-2.521 7.80057-2.86848C38.259 5.80021 45.2258 7.51305 41.5 9.03985c-2.7722 1.13602-17.67444 1.13542-19.47104-.00079z"/></g></svg>