<svg xmlns="http://www.w3.org/2000/svg" role="img" viewBox="-10.24 151.26 532.48 316.48"><title>EGRET Python logo</title><style>svg {enable-background:new 0 0 512 512}</style><style>.st0{fill:#007150}</style><g id="XMLID_1_"><path id="XMLID_7_" d="M238.31 163.55v92.59c0 19.5-11.08 40.12-44.33 40.12-30.02 0-44.47-15.57-44.47-40.12v-92.59h27.36v90.77c0 16.13 6.87 22.45 16.84 22.45 11.93 0 17.4-8 17.4-22.45v-90.77h27.2m44.48 132.85c-33.81 0-40.12-19.92-38.72-42.51h27.36c0 12.49.56 23.01 15.57 23.01 9.26 0 13.75-6.03 13.75-14.87 0-23.57-55-24.97-55-63.83 0-20.48 9.82-36.76 43.07-36.76 26.66 0 39.84 11.93 38.02 39.28h-26.66c0-9.82-1.68-19.78-12.63-19.78-8.84 0-14.17 4.91-14.17 13.89 0 24.83 55 22.59 55 63.69 0 33.96-24.83 37.88-45.59 37.88m183.64 0c-33.81 0-40.12-19.92-38.72-42.51h27.36c0 12.49.56 23.01 15.57 23.01 9.26 0 13.75-6.03 13.75-14.87 0-23.57-55-24.97-55-63.83 0-20.48 9.82-36.76 43.07-36.76 26.66 0 39.84 11.93 38.02 39.28h-26.66c0-9.82-1.68-19.78-12.63-19.78-8.84 0-14.17 4.91-14.17 13.89 0 24.83 55 22.59 55 63.69.01 33.96-24.83 37.88-45.59 37.88m-86.98-50.78h16.13v28.76l-1.4.56c-4.21 1.4-8.98 2.53-13.61 2.53-15.57 0-19.5-7.3-19.5-48.12 0-25.39 0-48.26 16.98-48.26 13.19 0 15.99 8.98 16.27 19.78h27.22c.28-25.39-16.13-39.28-41.81-39.28-44.75 0-46.3 33.53-46.3 66.36 0 49.52 5.33 68.74 51.35 68.74 10.66 0 27.64-2.39 35.49-4.49.42-.14 1.26-.7 1.26-1.26v-64.96h-42.09v19.64" class="st0"/><path id="XMLID_15_" d="M35.45 207.32l.42.42c12.77 10.66 26.66 9.68 37.18 2.67 6.59-4.35 36.62-24.41 53.59-35.63v-11.22H.23v29.74c7.72-1.27 20.2-.01 35.22 14.02m47.56 49.52l-14.87-14.31c-2.1-1.96-3.93-3.37-4.21-3.65-12.21-8.56-23.57-6.03-28.48-4.21-1.54.56-2.95 1.4-3.93 2.1L.37 257.67v37.74h126.41v-27.22c-2.95 1.84-20.06 11.1-43.77-11.35m-48.69-46.16c-.7-.56-1.4-1.26-2.1-1.82-14.87-11.5-29.04-5.89-31.99-4.49v13.05l7.3-4.91s11.22-8.42 28.76.28l-1.97-2.11m17.54 16.84c-.7-.56-1.26-1.12-1.96-1.82-13.19-11.22-26.09-8.42-31.29-6.45-1.54.56-2.95 1.4-3.93 2.1L.37 230.89v13.33l23.85-16.13s11.08-8.28 28.48 0l-.84-.57m74.78 14.03c-4.91 3.37-9.96 6.73-12.07 8.14-4.49 2.95-14.87 10.52-32.27 2.24l2.1 1.96c.7.7 1.68 1.54 2.67 2.24 12.49 9.26 25.67 8 35.63 1.4 1.4-.98 2.67-1.68 3.79-2.53l.15-13.45m0-26.8c-10.94 7.3-25.67 17.26-28.48 19.08-4.49 2.95-15.01 10.52-31.99 2.53l1.96 1.82c.28.14.42.42.7.56 13.19 11.08 27.64 9.4 37.6 2.81 5.61-3.79 13.61-9.12 20.2-13.61l.01-13.19m0-26.65c-15.71 10.52-41.53 27.92-44.75 29.88-4.49 3.09-15.29 10.66-31.99 2.67l1.96 1.96c1.26 1.12 2.81 2.53 4.63 3.65 11.64 7.44 23.71 6.03 33.53-.56 7.16-4.77 24.55-16.27 36.48-24.27V188.1" class="st0"/><path id="XMLID_51_" d="M6.69 334.28c-.28.98-.42 2.1-.28 2.81.28.7.84 1.12 2.1 1.12s2.53-.84 2.95-2.39c.98-4.91-10.52-3.79-8.98-11.08 1.12-4.91 6.31-6.45 10.52-6.45 4.35 0 7.86 2.1 6.45 7.01h-6.31c.28-1.54.42-2.53 0-2.95-.28-.42-.84-.56-1.54-.56-1.4 0-2.39.98-2.67 2.53-.84 3.65 10.52 3.51 8.98 10.8-.84 4.07-4.77 7.01-10.1 7.01-5.61 0-9.12-1.4-7.3-7.86l6.18.01m27.49-7.43c.7-3.37.14-4.63-1.96-4.63-2.81 0-3.51 2.39-4.49 7.16-1.54 7.01-1.26 8.56 1.12 8.56 1.96 0 3.37-1.82 3.93-4.77h6.45c-1.26 6.31-5.33 8.98-11.36 8.98-8.28 0-8.28-5.05-6.73-12.35 1.4-6.31 3.37-11.64 11.93-11.64 5.89 0 8.7 2.67 7.44 8.7l-6.33-.01m20.07-17.12l-1.12 5.05h-6.45l1.12-5.05h6.45m-6.74 31.99h-6.45l4.91-23.01h6.45l-4.91 23.01zm308.09-31.99l-1.12 5.05h-6.45l1.12-5.05h6.45m-6.88 31.99h-6.45l4.91-23.01h6.45l-4.91 23.01zM66.59 327.55c.42-2.24 1.26-5.47-1.82-5.47-2.95 0-3.65 3.51-4.07 5.47h5.89m-6.73 3.65c-.56 2.81-1.4 6.87 1.4 6.87 2.24 0 3.23-2.24 3.65-4.07h6.59c-.56 2.53-1.82 4.63-3.79 6.03-1.82 1.4-4.21 2.24-7.3 2.24-8.28 0-8.28-5.05-6.73-12.35 1.4-6.31 3.37-11.64 11.93-11.64 8.7 0 8.42 5.61 6.59 13.05l-12.34-.13zm24.55-10.24c1.82-2.1 3.65-2.81 6.17-2.81 3.09 0 5.33 1.82 4.63 5.05l-3.93 18.52h-6.45l3.37-15.85c.42-2.1.42-3.65-1.68-3.65s-2.81 1.54-3.23 3.65l-3.37 15.85h-6.45l4.91-23.01h6.45l-.42 2.25m25.53 5.89c.7-3.37.14-4.63-1.96-4.63-2.81 0-3.51 2.39-4.49 7.16-1.54 7.01-1.26 8.56 1.12 8.56 1.96 0 3.37-1.82 3.93-4.77h6.45c-1.26 6.31-5.33 8.98-11.36 8.98-8.28 0-8.28-5.05-6.73-12.35 1.4-6.31 3.37-11.64 11.93-11.64 5.89 0 8.7 2.67 7.44 8.7l-6.33-.01m21.33.7c.42-2.24 1.26-5.47-1.82-5.47-2.95 0-3.65 3.51-4.07 5.47h5.89m-6.6 3.65c-.56 2.81-1.4 6.87 1.4 6.87 2.24 0 3.23-2.24 3.65-4.07h6.59c-.56 2.53-1.82 4.63-3.79 6.03-1.82 1.4-4.21 2.24-7.3 2.24-8.28 0-8.28-5.05-6.73-12.35 1.4-6.31 3.37-11.64 11.93-11.64 8.7 0 8.42 5.61 6.59 13.05l-12.34-.13zm39.29-17.4c-2.53-.14-3.37.84-3.79 3.09l-.42 1.68h3.09l-.84 3.93h-2.95l-4.07 19.08h-6.45l4.07-19.08h-2.81l.84-3.93h2.95c1.26-5.75 2.39-8.98 9.26-8.98.84 0 1.54 0 2.24.14l-1.12 4.07m10.52 15.71c.98-4.77 1.26-7.16-1.4-7.16-2.81 0-3.51 2.39-4.49 7.16-1.54 7.01-1.26 8.56 1.12 8.56 2.24 0 3.22-1.54 4.77-8.56m-12.49.43c1.4-6.31 3.37-11.64 11.93-11.64s8.28 5.33 6.87 11.64c-1.54 7.16-3.65 12.35-12.07 12.35-8.27-.15-8.27-5.2-6.73-12.35zm30.31-11.37l-.56 2.95h.14c1.68-2.67 4.07-3.37 6.73-3.37l-1.26 5.75c-5.61-.42-6.31 2.95-6.87 5.19l-2.67 12.49h-6.45l4.91-23.01h6.03m19.5 16c-.28 1.68-.56 3.65 1.54 3.65 3.79 0 4.35-5.05 4.77-7.58-3.23 0-5.47-.28-6.31 3.93m11.22 2.8c-.28 1.4-.42 2.95-.56 4.35h-6.03l.42-3.09h-.14c-1.82 2.39-3.93 3.51-6.73 3.51-4.49 0-5.47-3.37-4.49-7.3 1.68-7.58 7.58-8 13.61-7.86l.42-1.82c.42-1.96.42-3.37-1.82-3.37s-2.81 1.68-3.23 3.51h-6.31c.56-2.81 1.82-4.63 3.51-5.61 1.68-1.12 3.93-1.54 6.31-1.54 8.14 0 8.42 3.51 7.58 7.72l-2.54 11.5zm25.53-10.52c.7-3.37.14-4.63-1.96-4.63-2.81 0-3.51 2.39-4.49 7.16-1.54 7.01-1.26 8.56 1.12 8.56 1.96 0 3.37-1.82 3.93-4.77h6.45c-1.26 6.31-5.33 8.98-11.36 8.98-8.28 0-8.28-5.05-6.73-12.35 1.4-6.31 3.37-11.64 11.93-11.64 5.89 0 8.7 2.67 7.44 8.7l-6.33-.01m35.36 7.72c-.42 1.68-.56 3.65 1.54 3.65 3.79 0 4.35-5.05 4.77-7.58-3.23 0-5.47-.28-6.31 3.93m11.22 2.8c-.28 1.4-.42 2.95-.56 4.35h-6.03l.42-3.09h-.14c-1.82 2.39-3.93 3.51-6.73 3.51-4.49 0-5.47-3.37-4.49-7.3 1.68-7.58 7.58-8 13.61-7.86l.42-1.82c.42-1.96.42-3.37-1.82-3.37s-2.81 1.68-3.23 3.51h-6.31c.56-2.81 1.82-4.63 3.51-5.61 1.68-1.12 3.93-1.54 6.31-1.54 8.14 0 8.42 3.51 7.58 7.72l-2.54 11.5zm14.17-16.41c1.82-2.1 3.65-2.81 6.17-2.81 3.09 0 5.33 1.82 4.63 5.05l-3.93 18.52h-6.45l3.37-15.85c.42-2.1.42-3.65-1.68-3.65s-2.81 1.54-3.23 3.65l-3.37 15.85h-6.45l4.91-23.01h6.45l-.42 2.25m20.2 16.41c2.39 0 3.23-2.39 4.21-7.3 1.12-5.05 1.4-8-.98-8-2.39 0-3.23 1.68-4.63 8.7-.42 2.25-1.68 6.6 1.4 6.6m13.05-18.66l-5.05 23.99c-.28 1.54-1.54 7.86-10.38 7.86-4.77 0-8.7-1.26-7.58-6.87h6.31c-.14.98-.28 1.82 0 2.39s.98.98 1.96.98c1.54 0 2.67-1.54 3.23-3.79l.98-4.49h-.28c-1.4 1.82-3.37 2.67-5.47 2.67-7.01 0-5.33-6.45-4.35-11.64 1.12-5.05 2.53-11.5 9.26-11.5 2.24 0 4.07.98 4.49 3.09h.14l.56-2.67 6.18-.02zm21.61 2.25c1.82-2.1 3.65-2.81 6.17-2.81 3.09 0 5.33 1.82 4.63 5.05l-3.93 18.52h-6.45l3.37-15.85c.42-2.1.42-3.65-1.68-3.65s-2.81 1.54-3.23 3.65l-3.37 15.85h-6.45l4.91-23.01h6.45l-.42 2.25m20.34 16.41c2.39 0 3.23-2.39 4.21-7.3 1.12-5.05 1.4-8-.84-8-2.39 0-3.23 1.68-4.63 8.7-.56 2.25-1.83 6.6 1.26 6.6m13.05-18.66l-5.05 23.99c-.28 1.54-1.54 7.86-10.38 7.86-4.77 0-8.7-1.26-7.58-6.87h6.31c-.14.98-.28 1.82 0 2.39s.98.98 1.96.98c1.54 0 2.67-1.54 3.23-3.79l.98-4.49h-.14c-1.4 1.82-3.37 2.67-5.47 2.67-7.01 0-5.33-6.45-4.35-11.64 1.12-5.05 2.53-11.5 9.26-11.5 2.24 0 4.07.98 4.49 3.09h.14l.56-2.67 6.04-.02zm10.1 0h6.45l-.56 17.4h.14l7.72-17.4h6.87l.14 17.4h.14l7.01-17.4h6.17l-10.94 23.01h-6.73l-.7-15.29h-.42l-7.72 15.29h-6.87l-.7-23.01m44.89 10.8c.98-4.77 1.26-7.16-1.4-7.16-2.81 0-3.51 2.39-4.49 7.16-1.54 7.01-1.26 8.56 1.12 8.56 2.39 0 3.23-1.54 4.77-8.56m-12.48.43c1.4-6.31 3.37-11.64 11.93-11.64s8.28 5.33 6.87 11.64c-1.54 7.16-3.65 12.35-12.07 12.35-8.42-.01-8.28-5.2-6.73-12.35zm30.72-11.23l-.7 2.95h.14c1.68-2.67 4.07-3.37 6.73-3.37l-1.26 5.75c-5.61-.42-6.31 2.95-6.87 5.19l-2.67 12.49h-6.45l4.91-23.01h6.17m-198.66-.56c-2.39 0-4.35.7-6.03 2.81h-.14l2.39-11.22h-6.45l-6.73 31.99h6.45l3.37-15.85c.42-2.1 1.12-3.65 3.23-3.65 2.1 0 2.1 1.54 1.68 3.65l-3.37 15.85h6.45l3.93-18.52c.55-3.24-1.69-5.06-4.78-5.06m209.46-8.42l-6.73 31.99h6.45l6.73-31.99h-6.45m17.12 20.21c-1.26 5.75-2.1 8.28-4.35 8.28-2.39 0-2.24-2.39-.98-8.28.98-4.63 1.54-7.86 4.35-7.86 2.8.14 1.96 3.23.98 7.86m4.35-20.21l-2.39 11.08h-.14c-.84-1.96-2.39-2.67-4.63-2.67-6.45 0-7.86 7.16-8.84 11.78-.98 4.77-2.81 12.21 3.79 12.21 2.53 0 4.35-.84 6.03-2.95h.14l-.56 2.53h6.17l6.73-31.99h-6.3v.01z" class="st0"/></g><path d="M118.23406 382.22387v-15.76656H52.96944v89.00034h67.44583V439.4678H71.1405v-22.89414h43.22922v-15.4574H71.14049v-18.8924zm-32.16859-15.76656zm108.68277 27.77182h18.29127c-1.01332-8.57028-4.94637-15.73221-11.79916-21.46863-6.86996-5.71924-15.95548-8.58745-27.27374-8.58745-13.03575 0-23.52961 4.34525-31.44724 13.03575-7.9348 8.6905-11.9022 20.2492-11.9022 34.65895 0 14.25517 3.93305 25.47038 11.78198 33.69715 7.5226 8.15808 17.19207 12.2457 28.97405 12.2457 7.16194 0 13.2075-1.51138 18.11952-4.517 2.85104-1.73466 6.07992-4.72309 9.6523-8.94811l1.87206 11.11216h12.33158v-47.7634h-37.08061v14.85629h20.5927c-.92744 5.83946-3.38345 10.56256-7.36803 14.16929-3.98457 3.58955-9.1027 5.39292-15.33718 5.39292-6.35472 0-12.0396-2.26709-17.02033-6.81844-4.9979-4.55135-7.48826-12.29723-7.48826-23.25481 0-10.85454 2.30144-18.99544 6.90431-24.4227 4.60288-5.4101 10.49387-8.12374 17.6558-8.12374 3.74413 0 7.14476.66982 10.21907 2.00947 5.46161 2.40448 8.91377 6.64668 10.32211 12.7266zm-20.83315-30.05608zm75.77566 17.74167h21.6232c4.01892 0 7.0417.53243 9.05117 1.5801 3.58955 1.8377 5.37574 5.46161 5.37574 10.85453 0 4.9979-1.85489 8.32983-5.56467 10.03014-2.09533.9618-5.22117 1.4427-9.41184 1.4427h-21.0736zm39.88011-13.15597c-3.36628-1.40834-8.15807-2.18121-14.39256-2.30144h-43.6586v89.00034h18.17105v-34.8994h19.20153c5.4788 0 9.20575.94462 11.19804 2.83386 1.99229 1.88924 3.02278 5.68489 3.10866 11.3526l.12022 8.2783c.05153 2.6106.30915 5.16965.79005 7.66001.24044 1.21942.63547 2.79951 1.20224 4.77463h20.47248v-2.23274c-1.76901-1.08202-2.90256-2.78234-3.38346-5.0666-.32632-1.45986-.4809-4.20785-.4809-8.2783v-5.97686c0-6.2345-.85874-10.87172-2.55905-13.91167-1.7175-3.03996-4.62005-5.39292-8.72485-7.04171 4.91202-1.68314 8.43287-4.56853 10.56256-8.65615 2.12969-4.08763 3.19453-8.24395 3.19453-12.46898 0-3.50368-.56677-6.62951-1.68314-9.36032-1.13354-2.74798-2.6621-5.23834-4.5857-7.48826-2.33578-2.74798-5.18682-4.80897-8.5531-6.21731zm96.64317 13.46512v-15.76656h-65.2818v89.00034h67.44583V439.4678h-49.2576v-22.89414h43.22921v-15.4574h-43.22922v-18.8924zm-32.18577-15.76656zm113.50892 0h-72.08306v15.76656h26.74132v73.23378h18.72064v-73.23378h26.6211z"/></svg>