<svg xmlns="http://www.w3.org/2000/svg" role="img" viewBox="3.77 1.15 128.96 94.96"><title>EIA logo</title><path fill="#484F5E" d="M72.6332 27.8422c-.052-.2776-.1214-.5725-.1908-.85-.0867-.3296-.2082-.6419-.347-.9541-.0173-.0347-.0347-.0868-.052-.1214-1.2143-2.6542-3.8684-4.545-6.9389-4.5971-2.6541-.052-5.0134 1.249-6.4532 3.244-.3122.4163-.5725.8847-.798 1.3704-.0173.0347-.0347.0694-.052.1214-.1388.3123-.2429.6245-.347.9541-.0867.2776-.1387.5551-.1908.8501-.052.2602-.0867.5377-.1041.8153-.0173.2255-.0173.4337-.0173.6592 0 .3643.0347.7286.1041 1.0755.052.3296.1214.6419.2081.9541.9368 3.2093 3.8685 5.6032 7.3553 5.6726 2.6541.052 5.0133-1.249 6.4532-3.244l-4.0246-1.4745c-.5725.5378-1.3184.85-2.099.8847-1.3531.0694-2.498-.6071-3.1052-1.8561-.1388-.2949-.2602-.6072-.3296-.9541h10.9808c.0347-.2256.0694-.4684.0868-.7113.0173-.2255.0173-.4337.0173-.6592-.052-.399-.0867-.798-.1561-1.1796zm-10.9808 0c.0867-.2949.1908-.5898.3296-.85.1908-.3643.4163-.6766.6939-.9541h.0173-.0173c.0347-.0347.0867-.0694.1214-.1041.5551-.4857 1.2317-.798 1.9602-.8327.9021-.052 1.7001.2602 2.3246.8327.0347.0347.0867.0694.1214.1214.2602.2602.4857.5898.6592.9541.1214.2602.2255.5378.3123.8501h-6.5226v-.0174zM21.979 10.8419c0-2.96635-1.8041-5.5164-4.3715-6.60928-.8673-.3643-1.8041-.57246-2.7929-.57246H6.34912l.01735 19.98414h4.35413v-5.6379h3.2266l2.7583 5.6379h4.7531l-3.2613-6.4879c2.2552-1.2143 3.7817-3.5909 3.7817-6.3145zm-4.3541 0c0 1.5613-1.2664 2.8277-2.8276 2.8277h-4.0767V8.01433h4.0767c1.5612 0 2.8276 1.26636 2.8276 2.82757z"/><path fill="#484F5E" d="M27.3915 17.2431v-1.5439l-3.695 3.3827 3.695 3.5389v-1.5439c3.5215 0 5.6205 3.0531 5.6205 6.1583 0 3.1051-2.1684 6.2624-5.6205 6.2624-3.7471 0-5.6206-3.1573-5.6206-6.2624h-4.3715c0 5.5164 4.4756 9.992 9.9921 9.992 5.5164 0 9.992-4.4756 9.992-9.992.0174-5.5338-4.4582-9.9921-9.992-9.9921zm92.0965 13.6002c-.485 1.4572-1.682 2.2898-3.018 2.3592-1.527.0694-2.776-.7979-3.331-2.3766-.121-.3469-.208-.7285-.243-1.1449-.017-.2255-.034-.451-.034-.6939 0-.104 0-.2255.017-.3296.035-.4163.104-.7979.243-1.1622.503-1.4052 1.683-2.3419 3.001-2.4113 1.526-.0694 2.775.8327 3.313 2.4286l4.285-.7633c-1.006-3.0878-3.886-5.3776-7.268-5.4297-3.539-.0694-6.54 2.2552-7.581 5.4297-.226.6766-.347 1.4052-.382 2.1511v.5378c.017.7459.156 1.4571.382 2.151 1.006 3.0879 3.886 5.3777 7.268 5.4297 3.539.0694 6.54-2.2551 7.581-5.4297l-4.233-.7459zm10.721-9.0552h-4.354v14.9013h4.354V21.7881zm-.312-2.9144h-3.661c-.19 0-.364-.1561-.364-.3643v-3.6429c0-.1908.156-.3643.364-.3643h3.661c.19 0 .364.1561.364.3643v3.6603c0 .1908-.174.3469-.364.3469zm-24.148 8.3268c-1.336-1.7001-4.649-2.8797-6.2622-3.4695-1.4398-.5204-1.9602-.9367-1.9429-1.648.0521-1.3531 1.3704-1.648 2.2552-1.648 1.9599 0 2.2549 2.0644 2.2549 2.0644l3.851-.9542s-.746-4.8745-6.7478-4.8745c-1.9429 0-4.0593 1.1449-5.1695 2.6021-.9888 1.301-1.1102 2.897-.4684 4.4929.8501 2.1337 2.6021 2.7756 4.3716 3.4174 1.3184.4857 3.0881.9715 4.1981 2.0817.538.5378.642 1.4572.26 2.2378-.399.85-1.526 1.4398-2.6193 1.4398-2.394 0-3.3654-2.151-3.4001-2.2378l-.1214-.2949-4.3369.8674.1041.3643c.0174.052.399 1.3531 1.5613 2.6715 1.0755 1.2143 3.0358 2.6715 6.3144 2.6715 2.7929 0 5.0129-1.197 6.2099-3.3654 1.128-2.0123 1.18-4.5277-.312-6.4185zm-57.5234-5.8634c-1.5786-.0347-3.2093.4163-4.0593 1.2143v-.7286h-4.3542v21.8403h4.3542v-7.8063c.7633.7286 2.3072 1.1622 3.7644 1.1969 4.4235.0868 7.546-3.5735 7.4767-7.9971-.0868-4.1807-3.0185-7.6328-7.1818-7.7195zm-.4511 11.9002c-2.0296.1041-3.5908-1.4745-3.6082-4.1633v-.1041c.0174-2.1858 1.5092-3.7817 3.2439-3.8685 2.0297-.104 3.6083 1.5786 3.6083 4.2675 0 2.3766-1.5092 3.7643-3.244 3.8684zm34.9721-11.8481c-2.602 0-3.8164 1.7173-3.8164 1.7173v-1.3184H74.871v14.9014h4.0592v-7.0083c0-2.446 1.1276-4.3889 3.1226-4.3889 1.9949 0 3.0704 1.7347 3.0704 4.3889v7.0083h4.1113v-8.3094c0-1.5959-.3816-6.9909-6.4879-6.9909z"/><path d="M54.31517 57.1125v-7.89086H21.6515v44.54292h33.75531v-8.0026H30.74576V74.3039h21.63537v-7.73613H30.74576V57.1125zm-16.09975-7.89086zm32.9645 44.54292V49.22164h-9.24896v44.54292zm-4.62448-45.41968zm25.47766 28.5893l5.74193-17.52663 5.56141 17.52663zm.5759-27.71254L76.71557 93.76456h9.73033l3.07726-9.15442h16.4092l2.87096 9.15442h10.09135l-15.7731-44.54292zm5.19181 0z"/></svg>