<svg xmlns="http://www.w3.org/2000/svg" role="img" viewBox="-0.76 -0.69 36.08 10.07"><title>EMMA logo</title><g transform="translate(-1.172 8.725)"><path d="M6.91992 0H1.17187v-8.7246h5.74805v1.03124H2.33203v2.39063h4.5879v1.03125h-4.5879v3.24023h4.5879z"/><path d="M16.5293 0h-1.16016v-7.51758l-2.42578 5.11524h-.6914L9.84374-7.51758V0H8.75977v-8.7246h1.58203l2.32617 4.85741 2.25-4.85742h1.61133z"/><path d="M26.64258 0h-1.16016v-7.51758l-2.42578 5.11524h-.6914l-2.4082-5.11524V0h-1.084v-8.7246h1.58204l2.32617 4.85741 2.25-4.85742h1.61133z"/><path d="M35.86523 0h-1.23632l-.85547-2.43164H30L29.14453 0H27.9668l3.17578-8.7246h1.54687zm-2.44921-3.42773l-1.5293-4.2832-1.53516 4.2832z"/></g></svg>