<svg xmlns="http://www.w3.org/2000/svg" role="img" viewBox="-8.06 -8.06 406.12 111.37"><title>energyRt logo</title><path d="M274.707 71.094l-20.654-52.783h5.225l12.89 33.691a225.313 225.313 0 0 1 1.105 2.863 171.925 171.925 0 0 1 .971 2.63 213.065 213.065 0 0 1 .848 2.405 157.642 157.642 0 0 1 .739 2.185 70.105 70.105 0 0 1 .621 1.98 50.911 50.911 0 0 1 .502 1.804h.293a218.445 218.445 0 0 1 .396-1.204q.641-1.927 1.557-4.582a549.13 549.13 0 0 1 1.306-3.741 751.536 751.536 0 0 1 1.477-4.144l12.744-33.887H300l-24.218 63.037a50.42 50.42 0 0 1-1.604 3.75q-.872 1.819-1.815 3.348a29.045 29.045 0 0 1-.439.69 16.909 16.909 0 0 1-2.263 2.789 13.254 13.254 0 0 1-2.668 2.045 11.874 11.874 0 0 1-3.749 1.361 16.497 16.497 0 0 1-3.087.275 21.064 21.064 0 0 1-1.721-.067 15.75 15.75 0 0 1-1.551-.202q-1.465-.268-2.832-.708v-4.248a26.647 26.647 0 0 0 2.612.659 13.559 13.559 0 0 0 1.596.217 17.335 17.335 0 0 0 1.359.052 11.346 11.346 0 0 0 2.366-.236 8.531 8.531 0 0 0 2.443-.912 9.553 9.553 0 0 0 2.12-1.656q.8-.818 1.518-1.884a22.758 22.758 0 0 0 1.277-2.161q.568-1.087 1.11-2.355a43.8 43.8 0 0 0 .64-1.587l3.613-9.424zm-39.746-52.832H252.1v3.516l-10.937.732a18.475 18.475 0 0 1 3.154 5.404 17.662 17.662 0 0 1 .068.187 18.631 18.631 0 0 1 1.074 6.323q0 7.91-4.98 12.549a16.435 16.435 0 0 1-6.951 3.782q-3.098.857-6.916.857a25.91 25.91 0 0 1-4.785-.44 26.645 26.645 0 0 0-1.958 1.267q-.89.636-1.596 1.276a12.243 12.243 0 0 0-.987.997 6.259 6.259 0 0 0-1.524 3.611 8.268 8.268 0 0 0-.039.808 4.605 4.605 0 0 0 .16 1.243 3.506 3.506 0 0 0 .817 1.467 4.919 4.919 0 0 0 1.108.877q.738.436 1.724.734a11.816 11.816 0 0 0 1.644.364q.855.13 1.835.175a23.347 23.347 0 0 0 1.062.023h9.326a34.059 34.059 0 0 1 5.006.343q5.071.756 8.226 3.173a11.379 11.379 0 0 1 4.338 7.329 17.279 17.279 0 0 1 .252 3.022 16.157 16.157 0 0 1-1.132 6.164q-1.655 4.05-5.728 6.776a23.779 23.779 0 0 1-6.449 2.95q-3.083.922-6.814 1.326a57.732 57.732 0 0 1-6.195.313q-10.01 0-15.552-3.857a12.819 12.819 0 0 1-3.978-4.292q-1.564-2.816-1.564-6.499 0-5.371 3.369-9.253a13.5 13.5 0 0 1 6.889-4.218 18.066 18.066 0 0 1 2.242-.445 10.401 10.401 0 0 1-2.725-1.821 9.484 9.484 0 0 1-1.01-1.109 6.81 6.81 0 0 1-1.441-4.297 8.474 8.474 0 0 1 1.502-4.805 10.427 10.427 0 0 1 .207-.297q1.409-1.952 3.978-3.655a24.408 24.408 0 0 1 1.149-.715q-4.59-1.66-7.226-5.64a15.656 15.656 0 0 1-2.367-6.165 20.943 20.943 0 0 1-.27-3.43 21.17 21.17 0 0 1 .504-4.724 16.379 16.379 0 0 1 1.791-4.602q2.295-3.955 6.518-6.128a19.146 19.146 0 0 1 5.518-1.807 26.099 26.099 0 0 1 4.468-.366 55.083 55.083 0 0 1 1.678.025 41.017 41.017 0 0 1 1.52.073 26.922 26.922 0 0 1 1.551.149 21.425 21.425 0 0 1 1.11.168q1.221.22 2.197.562zm75-18.262h17.334a64.375 64.375 0 0 1 5.977.261q4.652.435 8.208 1.595a18.827 18.827 0 0 1 4.37 2.036 14.455 14.455 0 0 1 4.199 4.067 15.241 15.241 0 0 1 2.02 4.462q.565 2.009.759 4.401a32.277 32.277 0 0 1 .102 2.612 24.885 24.885 0 0 1-.365 4.374q-.462 2.587-1.508 4.719a15.498 15.498 0 0 1-.104.209q-1.978 3.881-5.445 6.372a25.092 25.092 0 0 1-5.938 3.126 29.832 29.832 0 0 1-2.07.682l19.581 32.471h-5.957l-18.409-31.055h-17.724v31.055h-5.03V0zM99.854 36.67v34.717h-4.883V36.963q0-4.835-1.35-8.101a11.002 11.002 0 0 0-2.263-3.52q-3.218-3.305-9.031-3.666a23.64 23.64 0 0 0-1.467-.045 23.935 23.935 0 0 0-5.292.549q-4.962 1.125-8.063 4.554-4.614 5.102-4.614 15.405v29.248h-4.932V18.311h4.004l.733 9.668h.293a18.864 18.864 0 0 1 3.882-5.396 17.255 17.255 0 0 1 4.137-2.97 21.114 21.114 0 0 1 1.942-.887 19.621 19.621 0 0 1 4.302-1.145 27.019 27.019 0 0 1 4.096-.296 27.257 27.257 0 0 1 5.402.502q3.187.645 5.64 2.119a14.445 14.445 0 0 1 2.679 2.067 14.287 14.287 0 0 1 3.394 5.452q1.391 3.849 1.391 9.245zm-56.445 5.127v3.565H5.079a38.13 38.13 0 0 0 .493 6.34q1.086 6.428 4.56 10.456a16.386 16.386 0 0 0 9.268 5.343 24.88 24.88 0 0 0 5.21.517 50.974 50.974 0 0 0 3.931-.144q1.901-.147 3.56-.446a27.737 27.737 0 0 0 1.078-.216q3.638-.805 8.081-2.759v4.541a38.217 38.217 0 0 1-6.347 2.228 34.612 34.612 0 0 1-1.465.336 36.895 36.895 0 0 1-3.92.578q-2.053.197-4.354.224a62.467 62.467 0 0 1-.711.004 32.125 32.125 0 0 1-6.06-.542q-3.663-.704-6.613-2.322a19.544 19.544 0 0 1-.828-.481q-5.444-3.345-8.203-9.448a30.194 30.194 0 0 1-2.23-7.516A41.095 41.095 0 0 1 0 45.313a40.943 40.943 0 0 1 .751-8.002 32.845 32.845 0 0 1 1.911-6.305 24.31 24.31 0 0 1 4.038-6.6 21.725 21.725 0 0 1 3.774-3.434 19.425 19.425 0 0 1 7.991-3.29 26.483 26.483 0 0 1 4.68-.397 23.939 23.939 0 0 1 5.117.519 16.915 16.915 0 0 1 6.187 2.655 18.749 18.749 0 0 1 6.301 7.678 22.849 22.849 0 0 1 .437 1.014 30.075 30.075 0 0 1 1.841 7.019 39.926 39.926 0 0 1 .381 5.627zm113.965 0v3.565h-38.331a38.13 38.13 0 0 0 .494 6.34q1.086 6.428 4.56 10.456a16.386 16.386 0 0 0 9.267 5.343 24.88 24.88 0 0 0 5.211.517 50.974 50.974 0 0 0 3.93-.144q1.902-.147 3.56-.446a27.737 27.737 0 0 0 1.079-.216q3.638-.805 8.081-2.759v4.541a38.217 38.217 0 0 1-6.348 2.228 34.612 34.612 0 0 1-1.464.336 36.895 36.895 0 0 1-3.92.578q-2.053.197-4.354.224a62.467 62.467 0 0 1-.711.004 32.125 32.125 0 0 1-6.06-.542q-3.664-.704-6.613-2.322a19.544 19.544 0 0 1-.828-.481q-5.444-3.345-8.203-9.448a30.194 30.194 0 0 1-2.231-7.516 41.095 41.095 0 0 1-.528-6.742 40.943 40.943 0 0 1 .751-8.002 32.845 32.845 0 0 1 1.91-6.305 24.31 24.31 0 0 1 4.038-6.6 21.725 21.725 0 0 1 3.775-3.434 19.425 19.425 0 0 1 7.991-3.29 26.483 26.483 0 0 1 4.68-.397 23.939 23.939 0 0 1 5.117.519 16.915 16.915 0 0 1 6.187 2.655 18.749 18.749 0 0 1 6.301 7.678 22.849 22.849 0 0 1 .437 1.014 30.075 30.075 0 0 1 1.841 7.019 39.926 39.926 0 0 1 .381 5.627zm232.861 25.098v4.101a22.577 22.577 0 0 1-1.47.447q-.758.204-1.612.386a38.92 38.92 0 0 1-.58.12q-2.1.415-4.639.415a19.878 19.878 0 0 1-3.156-.237q-1.763-.284-3.221-.908a11.053 11.053 0 0 1-1.094-.54 10.295 10.295 0 0 1-4.037-4.194 13.066 13.066 0 0 1-.455-.933q-1.176-2.676-1.438-6.488a33.234 33.234 0 0 1-.076-2.277V22.412h-7.91v-2.929l7.862-1.514 1.709-12.5h3.271v12.842h16.553v4.101h-16.553v34.082a24.708 24.708 0 0 0 .187 3.149q.207 1.607.643 2.916a9.644 9.644 0 0 0 1.294 2.602 6.685 6.685 0 0 0 3.595 2.504q1.475.45 3.363.45a27.18 27.18 0 0 0 2.679-.126 22.228 22.228 0 0 0 1.594-.215 25.515 25.515 0 0 0 1.752-.364q.818-.201 1.536-.445a15.566 15.566 0 0 0 .203-.07zM200.489 18.311l-.782 4.541a24.773 24.773 0 0 0-3.271-.659 25.313 25.313 0 0 0-2.171-.189 30.707 30.707 0 0 0-1.393-.031 17.073 17.073 0 0 0-3.768.4 13.848 13.848 0 0 0-2.946 1.016q-2.954 1.416-5.005 4.053-2.051 2.636-3.125 6.347-1.074 3.711-1.074 8.301v29.297h-4.981V18.311h4.248l.488 10.01h.293q1.221-3.077 3.443-5.542a16.432 16.432 0 0 1 5.383-3.925 19.507 19.507 0 0 1 .012-.006 15.792 15.792 0 0 1 4.544-1.292 20.151 20.151 0 0 1 2.683-.173q2.099 0 3.955.244a27.657 27.657 0 0 1 2.383.416 23.323 23.323 0 0 1 1.084.268zM326.807 4.444h-11.816v31.445H329.2a29.422 29.422 0 0 0 5.323-.452q3.063-.564 5.484-1.832a15.188 15.188 0 0 0 2.84-1.915 13.599 13.599 0 0 0 4.475-7.716 20.655 20.655 0 0 0 .432-4.345 22.553 22.553 0 0 0-.365-4.212q-1.009-5.299-4.81-7.702-5.176-3.271-15.772-3.271zm-94.482 64.55h-8.887a26.866 26.866 0 0 0-3.957.278 20.108 20.108 0 0 0-3.611.87 11.776 11.776 0 0 0-2.847 1.412 9.57 9.57 0 0 0-2.305 2.226q-1.595 2.169-1.8 5.598a17.42 17.42 0 0 0-.031 1.042 10.73 10.73 0 0 0 .563 3.563 8.833 8.833 0 0 0 3.612 4.518 14.166 14.166 0 0 0 3.67 1.681q3.508 1.078 8.513 1.078 5.323 0 9.299-.88a25.335 25.335 0 0 0 2.346-.634 18.918 18.918 0 0 0 3.171-1.337q1.778-.963 3.047-2.242a10.749 10.749 0 0 0 .789-.888q2.344-2.955 2.344-7.3a11.937 11.937 0 0 0-.184-2.166q-.224-1.21-.719-2.164a5.972 5.972 0 0 0-.806-1.188 7.921 7.921 0 0 0-2.529-1.897q-1.036-.505-2.305-.813a24.929 24.929 0 0 0-2.95-.517q-1.525-.18-3.251-.225a45.086 45.086 0 0 0-1.172-.015zM5.225 41.162h33.057a34.592 34.592 0 0 0-.365-5.147 25.333 25.333 0 0 0-1.295-5.107q-1.661-4.443-5.005-6.909a12.218 12.218 0 0 0-4.618-2.059q-1.688-.381-3.641-.405a21.439 21.439 0 0 0-.262-.002 18.641 18.641 0 0 0-5.81.867 15.266 15.266 0 0 0-6.519 4.187q-4.712 5.054-5.542 14.575zm113.965 0h33.057a34.592 34.592 0 0 0-.365-5.147 25.333 25.333 0 0 0-1.296-5.107q-1.66-4.443-5.004-6.909a12.218 12.218 0 0 0-4.618-2.059q-1.688-.381-3.641-.405a21.439 21.439 0 0 0-.262-.002 18.641 18.641 0 0 0-5.81.867 15.266 15.266 0 0 0-6.519 4.187q-4.712 5.054-5.542 14.575zm107.617 6.495a20.988 20.988 0 0 0 3.907-.341q3.811-.723 6.201-2.98 3.515-3.32 3.515-9.619 0-6.738-3.613-10.107a11.888 11.888 0 0 0-4.977-2.725q-2.289-.645-5.131-.645a17.81 17.81 0 0 0-4.093.444 11.85 11.85 0 0 0-5.794 3.145 11.742 11.742 0 0 0-3.042 5.453q-.479 1.832-.539 4.003a22.748 22.748 0 0 0-.008.627 17.205 17.205 0 0 0 .399 3.823q.601 2.637 2.105 4.557a10.388 10.388 0 0 0 .914 1.02 10.789 10.789 0 0 0 4.248 2.508q2.539.837 5.908.837z" vector-effect="non-scaling-stroke" fill="#000" fill-rule="evenodd" stroke="#000" stroke-linecap="round" stroke-width=".25mm"/></svg>