<svg xmlns="http://www.w3.org/2000/svg" role="img" viewBox="-8.39 -8.39 436.54 325.54"><title>energy-data logo</title><g clip-path="url(#a)"><path fill="#fff" d="M0 0h420v240H0z"/><path fill="#002147" d="M0 0h420v214H0V0z"/><path fill="#fff" d="M82.4575 63.496c0 4.7227-.748 9.064-2.244 13.024-1.496 3.9307-3.608 7.3187-6.336 10.164s-6.0133 5.06-9.856 6.644c-3.8133 1.5547-8.0373 2.332-12.672 2.332-4.6346 0-8.8586-.7773-12.672-2.332-3.8133-1.584-7.084-3.7987-9.812-6.644-2.728-2.8453-4.84-6.2333-6.336-10.164-1.496-3.96-2.244-8.3013-2.244-13.024s.748-9.0493 2.244-12.98c1.496-3.96 3.608-7.3627 6.336-10.208 2.728-2.8747 5.9987-5.104 9.812-6.688 3.8134-1.584 8.0374-2.376 12.672-2.376 4.6347 0 8.8587.792 12.672 2.376 3.8427 1.584 7.128 3.8133 9.856 6.688 2.728 2.8453 4.84 6.248 6.336 10.208 1.496 3.9307 2.244 8.2573 2.244 12.98zm-8.756 0c0-3.872-.528-7.348-1.584-10.428-1.056-3.08-2.552-5.676-4.488-7.788-1.936-2.1413-4.2826-3.784-7.04-4.928-2.7573-1.144-5.8373-1.716-9.24-1.716-3.3733 0-6.4386.572-9.196 1.716-2.7573 1.144-5.1186 2.7867-7.084 4.928-1.936 2.112-3.432 4.708-4.488 7.788-1.056 3.08-1.584 6.556-1.584 10.428 0 3.872.528 7.348 1.584 10.428 1.056 3.0507 2.552 5.6467 4.488 7.788 1.9654 2.112 4.3267 3.74 7.084 4.884 2.7574 1.1147 5.8227 1.672 9.196 1.672 3.4027 0 6.4827-.5573 9.24-1.672 2.7574-1.144 5.104-2.772 7.04-4.884 1.936-2.1413 3.432-4.7373 4.488-7.788 1.056-3.08 1.584-6.556 1.584-10.428zm52.4455-13.068V95h-4.664c-1.115 0-1.819-.5427-2.112-1.628l-.616-4.796c-1.936 2.1413-4.107 3.872-6.512 5.192-2.406 1.2907-5.163 1.936-8.272 1.936-2.435 0-4.5909-.396-6.4682-1.188-1.848-.8213-3.4027-1.9653-4.664-3.432-1.2613-1.4667-2.2147-3.2413-2.86-5.324-.616-2.0827-.924-4.3853-.924-6.908V50.428h7.832v28.424c0 3.3733.7627 5.984 2.288 7.832 1.5542 1.848 3.9162 2.772 7.0842 2.772 2.317 0 4.473-.5427 6.468-1.628 2.024-1.1147 3.886-2.64 5.588-4.576V50.428h7.832zm17.214 8.932c1.408-3.0507 3.139-5.4267 5.192-7.128 2.053-1.7307 4.561-2.596 7.524-2.596.939 0 1.833.1027 2.684.308.88.2053 1.657.528 2.332.968l-.572 5.852c-.176.7333-.616 1.1-1.32 1.1-.411 0-1.012-.088-1.804-.264-.792-.176-1.687-.264-2.684-.264-1.408 0-2.669.2053-3.784.616-1.085.4107-2.068 1.0267-2.948 1.848-.851.792-1.628 1.7893-2.332 2.992-.675 1.1733-1.291 2.5227-1.848 4.048V95h-7.876V50.428h4.488c.851 0 1.437.1613 1.76.484.323.3227.543.88.66 1.672l.528 6.776zm122.317-27.412L246.01 95h-7.656l-15.972-48.092c-.147-.4693-.294-.968-.44-1.496-.118-.528-.25-1.0853-.396-1.672-.147.5867-.294 1.144-.44 1.672-.147.528-.294 1.0267-.44 1.496L204.606 95h-7.656l-19.668-63.052h7.084c.762 0 1.393.1907 1.892.572.528.3813.865.8653 1.012 1.452l13.024 43.824c.205.792.396 1.6427.572 2.552.205.9093.396 1.8773.572 2.904.205-1.0267.41-1.9947.616-2.904.234-.9387.484-1.7893.748-2.552l14.828-43.824c.176-.4987.513-.9533 1.012-1.364.528-.44 1.158-.66 1.892-.66h2.464c.762 0 1.378.1907 1.848.572.469.3813.821.8653 1.056 1.452l14.784 43.824c.264.7627.498 1.584.704 2.464.234.88.454 1.804.66 2.772.146-.968.308-1.892.484-2.772.176-.88.366-1.7013.572-2.464l13.068-43.824c.146-.528.469-.9973.968-1.408.528-.4107 1.158-.616 1.892-.616h6.644zm18.701 17.776c3.256 0 6.189.5427 8.8 1.628 2.611 1.0853 4.84 2.6253 6.688 4.62 1.848 1.9947 3.256 4.4147 4.224 7.26.997 2.816 1.496 5.9693 1.496 9.46 0 3.52-.499 6.688-1.496 9.504-.968 2.816-2.376 5.2213-4.224 7.216-1.848 1.9947-4.077 3.5347-6.688 4.62-2.611 1.056-5.544 1.584-8.8 1.584-3.285 0-6.248-.528-8.888-1.584-2.611-1.0853-4.84-2.6253-6.688-4.62-1.848-1.9947-3.271-4.4-4.268-7.216-.968-2.816-1.452-5.984-1.452-9.504 0-3.4907.484-6.644 1.452-9.46.997-2.8453 2.42-5.2653 4.268-7.26 1.848-1.9947 4.077-3.5347 6.688-4.62 2.64-1.0853 5.603-1.628 8.888-1.628zm0 39.776c4.4 0 7.685-1.4667 9.856-4.4 2.171-2.9627 3.256-7.084 3.256-12.364 0-5.3093-1.085-9.4453-3.256-12.408s-5.456-4.444-9.856-4.444c-2.229 0-4.18.3813-5.852 1.144-1.643.7627-3.021 1.8627-4.136 3.3-1.085 1.4373-1.907 3.212-2.464 5.324-.528 2.0827-.792 4.444-.792 7.084 0 5.28 1.085 9.4013 3.256 12.364 2.2 2.9333 5.529 4.4 9.988 4.4zm35.938-30.14c1.408-3.0507 3.138-5.4267 5.192-7.128 2.053-1.7307 4.561-2.596 7.524-2.596.938 0 1.833.1027 2.684.308.88.2053 1.657.528 2.332.968l-.572 5.852c-.176.7333-.616 1.1-1.32 1.1-.411 0-1.012-.088-1.804-.264-.792-.176-1.687-.264-2.684-.264-1.408 0-2.67.2053-3.784.616-1.086.4107-2.068 1.0267-2.948 1.848-.851.792-1.628 1.7893-2.332 2.992-.675 1.1733-1.291 2.5227-1.848 4.048V95h-7.876V50.428h4.488c.85 0 1.437.1613 1.76.484.322.3227.542.88.66 1.672l.528 6.776zm30.074-29.172V95h-7.832V30.188h7.832zm39.101 30.844c-1.466-1.9653-3.05-3.3293-4.752-4.092-1.701-.792-3.608-1.188-5.72-1.188-4.136 0-7.318 1.4813-9.548 4.444-2.229 2.9627-3.344 7.1867-3.344 12.672 0 2.904.25 5.3973.748 7.48.499 2.0533 1.232 3.7547 2.2 5.104.968 1.32 2.156 2.288 3.564 2.904 1.408.616 3.007.924 4.796.924 2.582 0 4.826-.5867 6.732-1.76 1.936-1.1733 3.711-2.8307 5.324-4.972V61.032zm7.832-30.844V95h-4.664c-1.114 0-1.818-.5427-2.112-1.628l-.704-5.412c-1.906 2.288-4.077 4.136-6.512 5.544-2.434 1.408-5.25 2.112-8.448 2.112-2.552 0-4.869-.484-6.952-1.452-2.082-.9973-3.857-2.4493-5.324-4.356-1.466-1.9067-2.596-4.2827-3.388-7.128-.792-2.8453-1.188-6.116-1.188-9.812 0-3.2853.44-6.336 1.32-9.152.88-2.8453 2.142-5.3093 3.784-7.392 1.643-2.0827 3.652-3.7107 6.028-4.884 2.406-1.2027 5.104-1.804 8.096-1.804 2.728 0 5.06.4693 6.996 1.408 1.966.9093 3.711 2.1853 5.236 3.828V30.188h7.832zM93.7277 140.428V185h-7.832v-44.572h7.832zm1.672-13.992c0 .763-.1613 1.481-.484 2.156-.2933.645-.704 1.232-1.232 1.76-.4987.499-1.1.895-1.804 1.188-.6747.293-1.3933.44-2.156.44-.7627 0-1.4813-.147-2.156-.44-.6453-.293-1.2173-.689-1.716-1.188-.4987-.528-.8947-1.115-1.188-1.76-.2933-.675-.44-1.393-.44-2.156 0-.763.1467-1.481.44-2.156.2933-.704.6893-1.305 1.188-1.804.4987-.528 1.0707-.939 1.716-1.232.6747-.293 1.3933-.44 2.156-.44.7627 0 1.4813.147 2.156.44.704.293 1.3053.704 1.804 1.232.528.499.9387 1.1 1.232 1.804.3227.675.484 1.393.484 2.156zm15.9483 20.46c.968-1.085 1.995-2.068 3.08-2.948 1.086-.88 2.23-1.628 3.432-2.244 1.232-.645 2.523-1.129 3.872-1.452 1.379-.352 2.86-.528 4.444-.528 2.435 0 4.576.411 6.424 1.232 1.878.792 3.432 1.936 4.664 3.432 1.262 1.467 2.215 3.241 2.86 5.324.646 2.083.968 4.385.968 6.908V185h-7.876v-28.38c0-3.373-.777-5.984-2.332-7.832-1.525-1.877-3.857-2.816-6.996-2.816-2.317 0-4.488.557-6.512 1.672-1.994 1.115-3.842 2.625-5.544 4.532V185h-7.876v-44.572h4.708c1.115 0 1.804.543 2.068 1.628l.616 4.84zm115.41 6.6c0 4.723-.748 9.02-2.244 12.892-1.496 3.872-3.608 7.187-6.336 9.944-2.728 2.757-6.013 4.899-9.856 6.424-3.813 1.496-8.037 2.244-12.672 2.244h-23.54v-63.052h23.54c4.635 0 8.859.763 12.672 2.288 3.843 1.496 7.128 3.637 9.856 6.424 2.728 2.757 4.84 6.072 6.336 9.944 1.496 3.872 2.244 8.169 2.244 12.892zm-8.756 0c0-3.872-.528-7.333-1.584-10.384s-2.552-5.632-4.488-7.744c-1.936-2.112-4.282-3.725-7.04-4.84-2.757-1.115-5.837-1.672-9.24-1.672h-15.004v49.236h15.004c3.403 0 6.483-.557 9.24-1.672 2.758-1.115 5.104-2.713 7.04-4.796 1.936-2.112 3.432-4.693 4.488-7.744 1.056-3.051 1.584-6.512 1.584-10.384zm39.604 11.44c-3.608.117-6.688.411-9.24.88-2.522.44-4.59 1.027-6.204 1.76-1.584.733-2.742 1.599-3.476 2.596-.704.997-1.056 2.112-1.056 3.344 0 1.173.191 2.185.572 3.036.382.851.895 1.555 1.54 2.112.675.528 1.452.924 2.332 1.188.91.235 1.878.352 2.904.352 1.379 0 2.64-.132 3.784-.396 1.144-.293 2.215-.704 3.212-1.232 1.027-.528 1.995-1.159 2.904-1.892.939-.733 1.848-1.569 2.728-2.508v-9.24zm-25.3-18.216c2.464-2.376 5.119-4.151 7.964-5.324 2.846-1.173 5.999-1.76 9.46-1.76 2.494 0 4.708.411 6.644 1.232s3.564 1.965 4.884 3.432c1.32 1.467 2.318 3.241 2.992 5.324.675 2.083 1.012 4.371 1.012 6.864V185h-3.476c-.762 0-1.349-.117-1.76-.352-.41-.264-.733-.763-.968-1.496l-.88-4.224c-1.173 1.085-2.317 2.053-3.432 2.904-1.114.821-2.288 1.525-3.52 2.112-1.232.557-2.552.983-3.96 1.276-1.378.323-2.918.484-4.62.484-1.73 0-3.358-.235-4.884-.704-1.525-.499-2.86-1.232-4.004-2.2-1.114-.968-2.009-2.185-2.684-3.652-.645-1.496-.968-3.256-.968-5.28 0-1.76.484-3.447 1.452-5.06.968-1.643 2.538-3.095 4.708-4.356 2.171-1.261 5.002-2.288 8.492-3.08 3.491-.821 7.774-1.291 12.848-1.408v-3.476c0-3.461-.748-6.072-2.244-7.832-1.496-1.789-3.681-2.684-6.556-2.684-1.936 0-3.564.249-4.884.748-1.29.469-2.42 1.012-3.388 1.628-.938.587-1.76 1.129-2.464 1.628-.674.469-1.349.704-2.024.704-.528 0-.982-.132-1.364-.396-.381-.293-.704-.645-.968-1.056l-1.408-2.508zm55.329 38.984c-3.52 0-6.233-.983-8.14-2.948-1.877-1.965-2.816-4.796-2.816-8.492v-27.28h-5.368c-.469 0-.865-.132-1.188-.396-.323-.293-.484-.733-.484-1.32v-3.124l7.304-.924 1.804-13.772c.088-.44.279-.792.572-1.056.323-.293.733-.44 1.232-.44h3.96v15.356h12.892v5.676h-12.892v26.752c0 1.877.455 3.271 1.364 4.18.909.909 2.083 1.364 3.52 1.364.821 0 1.525-.103 2.112-.308.616-.235 1.144-.484 1.584-.748.44-.264.807-.499 1.1-.704.323-.235.601-.352.836-.352.411 0 .777.249 1.1.748l2.288 3.74c-1.349 1.261-2.977 2.259-4.884 2.992-1.907.704-3.872 1.056-5.896 1.056zm39.371-20.768c-3.608.117-6.688.411-9.24.88-2.523.44-4.591 1.027-6.204 1.76-1.584.733-2.743 1.599-3.476 2.596-.704.997-1.056 2.112-1.056 3.344 0 1.173.191 2.185.572 3.036.381.851.895 1.555 1.54 2.112.675.528 1.452.924 2.332 1.188.909.235 1.877.352 2.904.352 1.379 0 2.64-.132 3.784-.396 1.144-.293 2.215-.704 3.212-1.232 1.027-.528 1.995-1.159 2.904-1.892.939-.733 1.848-1.569 2.728-2.508v-9.24zm-25.3-18.216c2.464-2.376 5.119-4.151 7.964-5.324 2.845-1.173 5.999-1.76 9.46-1.76 2.493 0 4.708.411 6.644 1.232s3.564 1.965 4.884 3.432c1.32 1.467 2.317 3.241 2.992 5.324.675 2.083 1.012 4.371 1.012 6.864V185h-3.476c-.763 0-1.349-.117-1.76-.352-.411-.264-.733-.763-.968-1.496l-.88-4.224c-1.173 1.085-2.317 2.053-3.432 2.904-1.115.821-2.288 1.525-3.52 2.112-1.232.557-2.552.983-3.96 1.276-1.379.323-2.919.484-4.62.484-1.731 0-3.359-.235-4.884-.704-1.525-.499-2.86-1.232-4.004-2.2-1.115-.968-2.009-2.185-2.684-3.652-.645-1.496-.968-3.256-.968-5.28 0-1.76.484-3.447 1.452-5.06.968-1.643 2.537-3.095 4.708-4.356 2.171-1.261 5.001-2.288 8.492-3.08 3.491-.821 7.773-1.291 12.848-1.408v-3.476c0-3.461-.748-6.072-2.244-7.832-1.496-1.789-3.681-2.684-6.556-2.684-1.936 0-3.564.249-4.884.748-1.291.469-2.42 1.012-3.388 1.628-.939.587-1.76 1.129-2.464 1.628-.675.469-1.349.704-2.024.704-.528 0-.983-.132-1.364-.396-.381-.293-.704-.645-.968-1.056l-1.408-2.508z"/><path fill="#D42B21" d="M0 213.578h420V240H0z"/></g><defs><clipPath id="a"><path fill="#fff" d="M0 0h420v240H0z"/></clipPath></defs><path d="M47.58594 270.86001c1.08672-1.24075 2.62696-1.8654 4.61217-1.8654 1.83117 0 3.3543.59042 4.5865 1.76272 1.24074 1.1723 1.9253 2.89223 2.0622 5.15981H45.52373c.28238-2.13067.96693-3.80782 2.06222-5.05713zm11.98821-7.40172c-2.19056-1.01827-4.6464-1.53168-7.37604-1.53168-4.5865 0-8.32587 1.51457-11.20099 4.54371-2.88367 3.02915-4.32123 7.3846-4.32123 13.05783 0 6.05829 1.60014 10.43086 4.7833 13.11773 3.19173 2.68687 6.8712 4.0303 11.0384 4.0303 5.05713 0 8.98475-1.60014 11.79997-4.7833 1.8055-2.01088 2.81522-3.98752 3.0377-5.92994h-8.7537c-.46208.96693-.9926 1.71994-1.60015 2.25902-1.10384 1.00116-2.53284 1.50602-4.29556 1.50602-1.6686 0-3.08904-.41073-4.27845-1.24075-1.94242-1.31777-2.9778-3.62813-3.0976-6.91398h22.44475c.04278-2.83233-.05134-4.99723-.27382-6.50324-.3765-2.56707-1.21508-4.81754-2.49862-6.76851-1.42044-2.19912-3.22595-3.81638-5.40796-4.8432zm-6.7685-1.53168zm47.20841 2.75532c-2.15634-1.77983-4.92877-2.6612-8.3173-2.6612-2.70398 0-4.93734.65889-6.70861 1.9852-.98405.7359-2.01943 1.95098-3.12327 3.63669v-4.7833h-8.27452v32.73013h8.53978v-17.747c0-2.028.28238-3.68803.84713-4.99724 1.07817-2.46438 3.08049-3.69658 5.98128-3.69658 2.37026 0 3.9704.83858 4.81753 2.52429.46207.92414.69311 2.25046.69311 3.9704v19.94613h8.77938v-22.0768c0-4.11587-1.07817-7.05944-3.2345-8.83072zm-11.4748-2.75532zM119.481 270.86c1.09528-1.24075 2.63553-1.8654 4.62073-1.8654 1.82262 0 3.3543.59042 4.5865 1.76272 1.23219 1.1723 1.91674 2.89223 2.0622 5.15981H117.4188c.28237-2.13067.96693-3.80782 2.06221-5.05713zm11.98822-7.40172c-2.19057-1.01827-4.6464-1.53168-7.3675-1.53168-4.59505 0-8.33441 1.51457-11.20953 4.54371-2.87512 3.02915-4.31268 7.3846-4.31268 13.05783 0 6.05829 1.59158 10.43086 4.7833 13.11773 3.18317 2.68687 6.86264 4.0303 11.0384 4.0303 5.04858 0 8.98475-1.60014 11.79142-4.7833 1.8055-2.01088 2.81522-3.98752 3.0377-5.92994h-8.75371c-.46208.96693-.9926 1.71994-1.59159 2.25902-1.10384 1.00116-2.5414 1.50602-4.30412 1.50602-1.6686 0-3.08904-.41073-4.2699-1.24075-1.95096-1.31777-2.9778-3.62813-3.09759-6.91398h22.4362c.04278-2.83233-.05135-4.99723-.26527-6.50324-.38506-2.56707-1.21508-4.81754-2.49862-6.76851-1.429-2.19912-3.2345-3.81638-5.41651-4.8432zm-6.76851-1.53168zm38.94245.10268c-.11124-.00856-.24815-.00856-.41073-.00856-2.56707 0-4.6464.66744-6.2551 2.01088-.98404.80435-2.13066 2.3018-3.45698 4.48381v-5.716h-8.1804v32.79003h8.63391v-15.66768c0-2.63553.32517-4.57794.9926-5.84436 1.18086-2.24191 3.49978-3.36286 6.9482-3.36286.25671 0 .59899.00855 1.01828.02567.42784.02567.90703.0599 1.44611.1198v-8.77939c-.3765-.02567-.62465-.03422-.73589-.05134zm24.92625 24.25026c-1.38622 1.51457-3.08048 2.26757-5.09136 2.26757-3.00347 0-5.09135-1.37766-6.25509-4.1501-.64177-1.48034-.95837-3.1746-.95837-5.08279 0-2.20768.29949-4.05597.89847-5.56199 1.14663-2.83233 3.2174-4.24422 6.22943-4.24422 2.20768 0 3.96184.8129 5.2796 2.43872 1.3092 1.62581 1.96809 3.98751 1.96809 7.10223 0 3.30296-.6931 5.716-2.07077 7.23058zm-2.9179-23.5058c-1.22364-.50487-2.6612-.75302-4.30412-.75302-4.4496 0-7.88946 1.66004-10.31962 4.98012-2.43016 3.31152-3.63669 7.41028-3.63669 12.2877 0 5.04858 1.25787 9.0532 3.7736 12.0139 2.51572 2.96068 5.87859 4.44103 10.08858 4.44103 2.72965 0 4.94589-.65033 6.64871-1.95953.94126-.70167 1.83118-1.75417 2.65264-3.1575v2.105c0 3.13182-.34227 5.35662-1.02683 6.68294-1.04394 2.06221-3.10615 3.0976-6.1952 3.0976-2.19056 0-3.73936-.39362-4.6635-1.1723-.53909-.44496-.9327-1.16374-1.1723-2.1649h-9.32702c.28238 3.26874 1.7456 5.72457 4.3897 7.3675 2.65263 1.64292 6.06683 2.46438 10.25971 2.46438 6.93965 0 11.63739-1.84829 14.0761-5.53631 1.429-2.14778 2.13923-5.33095 2.13923-9.56662V262.7994h-8.33442v4.72341c-1.28354-2.3018-2.96925-3.89339-5.04857-4.74908zm-1.56592-.84714zm24.27593 39.95217v6.85407c.92415.06846 1.61725.10268 2.07077.11124a97.99723 97.99723 0 0 0 1.83973.01712c3.79071 0 6.315-.75301 7.58142-2.24191 1.26642-1.49746 2.9778-5.35662 5.1427-11.56893l11.25232-32.25096h-9.1131l-6.7685 24.19036-7.16213-24.19036h-9.54095l12.03956 34.23616c.07701.2396-.09413.89847-.53053 1.9852-.42784 1.07817-.89847 1.79695-1.39477 2.13923-.52197.35939-1.16374.59042-1.9253.68455-.76157.10268-1.56592.1369-2.41305.09412zm11.61171-39.95217zm18.73961 12.42462v8.1205h17.26783v-8.1205zm40.49126-11.02129c-1.54025-.8728-3.31153-1.3092-5.29673-1.3092-4.30412 0-7.75255 1.60014-10.32817 4.80897-2.57563 3.20884-3.86772 7.61564-3.86772 13.21186 0 4.85176 1.3092 8.82216 3.92761 11.92831 2.61842 3.0976 5.83581 4.6464 9.6693 4.6464 2.32748 0 4.2699-.44496 5.8358-1.32632 1.56592-.88136 2.9607-2.29325 4.18433-4.24422v4.54371h8.33442V251.3075h-8.6938v15.642c-.96694-1.54023-2.21625-2.74676-3.76504-3.61956zm2.105 23.36034c-1.25787 1.79695-3.10616 2.70398-5.53632 2.70398-2.4216 0-4.23567-.90703-5.42508-2.7211-1.19796-1.81406-1.78839-4.23566-1.78839-7.2648 0-2.80667.58187-5.15982 1.75417-7.05945 1.1723-1.89107 3.01202-2.84089 5.5192-2.84089 1.65148 0 3.08904.52197 4.33834 1.56592 2.01943 1.71993 3.0377 4.59505 3.0377 8.59968 0 2.87512-.6332 5.21115-1.89963 7.01666zm36.22135-7.04233v3.19172c-.0599 2.86656-.86425 4.8432-2.4216 5.92138-1.55736 1.08672-3.25162 1.6258-5.09991 1.6258-1.16374 0-2.14779-.32515-2.9607-.97548-.8129-.65032-1.21507-1.71138-1.21507-3.1746 0-1.64293.65888-2.85801 1.9852-3.64525.77868-.46207 2.07077-.84713 3.87627-1.1723l1.9253-.35938c.96694-.1797 1.71994-.3765 2.27614-.58187.54764-.21392 1.09529-.48775 1.63437-.83002zm-5.2026-4.00463l-2.9179.35939c-3.31152.42784-5.81869 1.12951-7.52151 2.11355-3.10616 1.80551-4.66351 4.72341-4.66351 8.75371 0 3.10616.96693 5.51065 2.90079 7.20491 1.93386 1.69427 4.38969 2.5414 7.35893 2.5414 2.32748 0 4.41536-.53053 6.2551-1.60014 1.5488-.89847 2.90934-1.99376 4.0902-3.2773.05989.74446.14546 1.40334.23959 1.9852.10268.58188.28237 1.20653.54764 1.86541h9.32702v-1.26642c-.56476-.2567-.98405-.59042-1.26642-.9926-.28238-.39362-.45352-1.15518-.51342-2.28469-.04278-1.48034-.0599-2.74677-.0599-3.7907v-15.03448c0-3.95329-1.39477-6.64015-4.18432-8.06916-2.781-1.42044-5.97272-2.13067-9.56661-2.13067-5.51065 0-9.40404 1.43756-11.67162 4.3298-1.42044 1.84829-2.22479 4.20143-2.40448 7.068h8.27452c.1968-1.26643.59898-2.26758 1.20652-3.00348.83858-1.00971 2.27614-1.50601 4.29556-1.50601 1.80551 0 3.17461.2567 4.10732.76156.9327.51342 1.40333 1.44612 1.40333 2.78955 0 1.10384-.6161 1.9082-1.83974 2.43016-.68455.30805-1.81406.5562-3.39708.75301zm.45352-13.71671zm17.56732 7.28192h4.56938v20.18573c0 2.0451.47919 3.55967 1.44612 4.54371 1.48034 1.54024 4.25278 2.24191 8.30019 2.105l4.06453-.15402v-6.40912a13.92365 13.92365 0 0 1-.8557.05134c-.29093.00856-.5733.01711-.83001.01711-1.7456 0-2.78955-.17114-3.13183-.50485-.34227-.32517-.50485-1.16374-.50485-2.50718v-17.32772h5.32239v-6.10963h-5.3224v-9.13876h-8.48844v9.13876h-4.56938zm41.96303 10.43942v3.19172c-.0599 2.86656-.86424 4.8432-2.4216 5.92138-1.55735 1.08672-3.25162 1.6258-5.09991 1.6258-1.16374 0-2.14778-.32515-2.96069-.97548-.8129-.65032-1.22364-1.71138-1.22364-3.1746 0-1.64293.66744-2.85801 1.99376-3.64525.77868-.46207 2.07077-.84713 3.87628-1.1723l1.9253-.35938c.96693-.1797 1.71994-.3765 2.26758-.58187.5562-.21392 1.10384-.48775 1.64292-.83002zm-5.2026-4.00463l-2.9179.35939c-3.31151.42784-5.81869 1.12951-7.5215 2.11355-3.10616 1.80551-4.66352 4.72341-4.66352 8.75371 0 3.10616.96693 5.51065 2.90079 7.20491 1.93386 1.69427 4.38969 2.5414 7.35893 2.5414 2.32748 0 4.4068-.53053 6.2551-1.60014 1.5488-.89847 2.90934-1.99376 4.0902-3.2773.0599.74446.14546 1.40334.23959 1.9852.10268.58188.28238 1.20653.54764 1.86541h9.31846v-1.26642c-.5562-.2567-.97548-.59042-1.25786-.9926-.28238-.39362-.45352-1.15518-.51341-2.28469-.04279-1.48034-.0599-2.74677-.0599-3.7907v-15.03448c0-3.95329-1.39478-6.64015-4.18433-8.06916-2.78099-1.42044-5.97271-2.13067-9.56661-2.13067-5.51064 0-9.40403 1.43756-11.67161 4.3298-1.42045 1.84829-2.2248 4.20143-2.4045 7.068h8.27453c.19681-1.26643.59898-2.26758 1.19797-3.00348.84713-1.00971 2.28469-1.50601 4.30412-1.50601 1.8055 0 3.1746.2567 4.10731.76156.9327.51342 1.40333 1.44612 1.40333 2.78955 0 1.10384-.6161 1.9082-1.83973 2.43016-.68455.30805-1.81406.5562-3.3971.75301zm.45352-13.71671z"/></svg>