<svg xmlns="http://www.w3.org/2000/svg" role="img" xmlns:xlink="http://www.w3.org/1999/xlink" viewBox="-7.80 -0.80 743.60 241.60"><title>Energy Market Methods Consortium logo</title><defs><linearGradient id="linear-gradient" x1="25.711" x2="196.501" y1="-30.992" y2="78.682" gradientUnits="userSpaceOnUse"><stop offset="0" stop-color="#27c3e9"/><stop offset="1" stop-color="#7ecdc4"/></linearGradient><linearGradient id="linear-gradient-2" x1="11.415" x2="182.205" y1="-8.73" y2="100.944" xlink:href="#linear-gradient"/><linearGradient id="linear-gradient-3" x1="9.183" x2="179.973" y1="-5.253" y2="104.421" xlink:href="#linear-gradient"/><linearGradient id="linear-gradient-4" x1="-1.894" x2="168.896" y1="11.996" y2="121.67" xlink:href="#linear-gradient"/><linearGradient id="linear-gradient-5" x1="-30.367" x2="140.423" y1="56.336" y2="166.01" xlink:href="#linear-gradient"/><linearGradient id="linear-gradient-6" x1="-36.669" x2="134.121" y1="66.149" y2="175.823" xlink:href="#linear-gradient"/><linearGradient id="linear-gradient-7" x1="-49.341" x2="121.45" y1="85.882" y2="195.556" xlink:href="#linear-gradient"/><linearGradient id="linear-gradient-8" x1="576.546" x2="621.804" y1="79.613" y2="79.613" gradientUnits="userSpaceOnUse"><stop offset="0" stop-color="#7ecdc4"/><stop offset="1" stop-color="#27c3e9"/></linearGradient><linearGradient id="linear-gradient-9" x1="529.708" x2="711.115" y1="71.681" y2="71.681" xlink:href="#linear-gradient-8"/><linearGradient id="linear-gradient-10" x1="657.188" x2="721.952" y1="124.155" y2="124.155" xlink:href="#linear-gradient-8"/><linearGradient id="linear-gradient-11" x1="655.453" x2="701.588" y1="176.292" y2="176.292" xlink:href="#linear-gradient-8"/><linearGradient id="linear-gradient-12" x1="560.925" x2="625.269" y1="172.332" y2="172.332" xlink:href="#linear-gradient-8"/><linearGradient id="linear-gradient-13" x1="615.122" x2="681.423" y1="184.185" y2="184.185" xlink:href="#linear-gradient-8"/><linearGradient id="linear-gradient-14" x1="540.115" x2="634.386" y1="207.635" y2="207.635" xlink:href="#linear-gradient-8"/><style>.cls-1{fill:#009ade}</style></defs><path d="M224.341 67.334V52.357h-7.504v22.467h22.476v-7.49h-14.972z" class="cls-1"/><path fill="#003764" d="M254.286 37.369h-37.444v11.236h7.488v-3.714h22.469v22.443h-3.74v7.49h11.227V37.369zm9.89263.43674h11.40749v27.531h16.38415v9.48768h-27.79164zm32.66465 0h28.62083v9.4869h-17.21334v4.61467h14.77684v8.81474h-14.77684v14.10234h-11.40749z"/><path d="M354.90121 75.01849h-20.67429V37.71978h20.67429v2.39831h-18.03482V54.226h17.02555v2.3983h-17.02555v15.99588h18.03482zm36.06917 0h-2.66511L365.89775 41.904h-.207q.31047 5.91888.31047 8.92911v24.18538h-2.536V37.71978h2.63947l22.38189 33.06368h.15523q-.23284-4.59225-.23309-8.725V37.71978h2.56162zm31.38647 0h-20.67429V37.71978h20.67429v2.39831H404.322V54.226h17.02556v2.3983H404.322v15.99588h18.03482zm11.20353-16.25128v16.25128h-2.63948V37.71978h9.0046q7.03757 0 10.40171 2.564 3.36318 2.56424 3.3639 7.71762a9.99126 9.99126 0 0 1-2.00524 6.32666 11.16982 11.16982 0 0 1-6.09358 3.69954l10.27211 16.9909h-3.15692l-9.75466-16.25128zm0-2.245h7.21915q4.78665 0 7.42613-2.10493a7.469 7.469 0 0 0 2.639-6.21178q0-4.26042-2.58726-6.19944-2.58773-1.939-8.43539-1.93926h-6.26163zm43.34741-.73645h13.632v16.63285a30.97228 30.97228 0 0 1-12.06409 2.24447q-8.75123 0-13.41719-4.875-4.66619-4.875-4.66619-13.80278a20.49464 20.49464 0 0 1 2.31407-9.86232 16.09186 16.09186 0 0 1 6.62669-6.64571 20.40108 20.40108 0 0 1 9.90129-2.34424 25.84275 25.84275 0 0 1 10.85021 2.19436l-1.03708 2.29412a23.73881 23.73881 0 0 0-9.96486-2.19436q-7.309 0-11.5959 4.45136-4.28687 4.45113-4.2871 12.007 0 8.2292 4.07179 12.381 4.07179 4.15252 11.96294 4.15207a23.46884 23.46884 0 0 0 8.67488-1.4213V58.17964h-11.00146zm31.64561 2.20992l11.00888-20.28913h2.82962l-12.52657 22.74924v14.32882h-2.70078V60.65824l-12.578-22.95169h3.00945z" class="cls-1"/><path fill="#555554" d="M102.22135 114.12865H89.47819v6.85693h11.7334a2.79442 2.79442 0 0 1 1.93359.58106 1.97541 1.97541 0 0 1 .63819 1.5332 2.04892 2.04892 0 0 1-.62891 1.55273 2.72574 2.72574 0 0 1-1.94287.59961h-11.7334v7.94336h13.18115a2.88441 2.88441 0 0 1 2.00977.61914 2.1255 2.1255 0 0 1 .67627 1.64746 2.08059 2.08059 0 0 1-.67627 1.60938 2.88441 2.88441 0 0 1-2.00977.61914H87.28776a2.96126 2.96126 0 0 1-3.46631-3.4668v-20.99023a4.70218 4.70218 0 0 1 .36182-1.99073 2.248 2.248 0 0 1 1.1333-1.124 4.77238 4.77238 0 0 1 1.97119-.35205h14.93359a2.89928 2.89928 0 0 1 2.00928.6001 2.02632 2.02632 0 0 1 .65723 1.57129 2.04875 2.04875 0 0 1-.65723 1.59033 2.90171 2.90171 0 0 1-2.00928.60008zm11.98096 5.77148v.62842a9.1043 9.1043 0 0 1 3-2.65723 7.99758 7.99758 0 0 1 3.74268-.84765 7.47117 7.47117 0 0 1 3.67627.8955 5.69127 5.69127 0 0 1 2.41894 2.53321 6.03247 6.03247 0 0 1 .667 2.05761 21.3081 21.3081 0 0 1 .15235 2.81836v9.67676a3.44367 3.44367 0 0 1-.71436 2.36133 2.371 2.371 0 0 1-1.85742.80078 2.39939 2.39939 0 0 1-1.88574-.81933 3.42757 3.42757 0 0 1-.72363-2.34278v-8.667a8.66591 8.66591 0 0 0-.71436-3.93359 2.90968 2.90968 0 0 0-2.84766-1.36133 4.21389 4.21389 0 0 0-2.5332.82812 4.766 4.766 0 0 0-1.67627 2.27637 16.29537 16.29537 0 0 0-.38086 4.34277v6.51465a3.37767 3.37767 0 0 1-.7334 2.3711 2.46653 2.46653 0 0 1-1.895.791 2.356 2.356 0 0 1-1.84765-.81933 3.42521 3.42521 0 0 1-.72412-2.34278V119.9763a3.27119 3.27119 0 0 1 .64795-2.21924 2.2412 2.2412 0 0 1 1.77148-.73339 2.402 2.402 0 0 1 1.23779.32422 2.31847 2.31847 0 0 1 .88575.97119 3.42618 3.42618 0 0 1 .33346 1.58105zm33.35254 8.97119h-10.17139a6.89855 6.89855 0 0 0 .71387 3.124 4.7796 4.7796 0 0 0 4.39067 2.72368 6.21755 6.21755 0 0 0 1.70507-.21875 5.52968 5.52968 0 0 0 1.49512-.68555 11.507 11.507 0 0 0 1.3335-1q.60938-.53321 1.58056-1.44824a1.70723 1.70723 0 0 1 1.14307-.34277 1.88449 1.88449 0 0 1 1.29541.43847 1.56675 1.56675 0 0 1 .49512 1.23828 3.384 3.384 0 0 1-.55225 1.64747 6.54252 6.54252 0 0 1-1.667 1.80957 9.48162 9.48162 0 0 1-2.79981 1.4375 12.03673 12.03673 0 0 1-3.87646.57226q-5.00976 0-7.79053-2.85742a10.64113 10.64113 0 0 1-2.78076-7.75293 12.92866 12.92866 0 0 1 .68555-4.27539 9.43175 9.43175 0 0 1 2-3.38135 8.68149 8.68149 0 0 1 3.23828-2.16211 11.62418 11.62418 0 0 1 4.2666-.75244 10.1152 10.1152 0 0 1 5.22852 1.28613 8.451 8.451 0 0 1 3.2666 3.32422 8.73264 8.73264 0 0 1 1.08593 4.15137q0 1.96289-1.124 2.543a6.99688 6.99688 0 0 1-3.16167.581zm-10.17139-2.95215h9.42823a6.32153 6.32153 0 0 0-1.438-3.99023 4.30436 4.30436 0 0 0-3.28565-1.32422 4.1619 4.1619 0 0 0-3.19043 1.34277 6.67758 6.67758 0 0 0-1.51415 3.97168zm24 4.74317v4.34277a3.34923 3.34923 0 0 1-.74267 2.3711 2.47565 2.47565 0 0 1-1.88574.791 2.37816 2.37816 0 0 1-1.84766-.80078 3.41093 3.41093 0 0 1-.72412-2.36133v-14.47655q0-3.50464 2.53369-3.50488a2.11573 2.11573 0 0 1 1.8667.81933 4.51924 4.51924 0 0 1 .62842 2.41895 9.10226 9.10226 0 0 1 1.91406-2.41895 3.95633 3.95633 0 0 1 2.61914-.81933 6.70654 6.70654 0 0 1 3.18115.81933 2.4469 2.4469 0 0 1 1.543 2.17139 2.06668 2.06668 0 0 1-.65723 1.57178 2.04206 2.04206 0 0 1-1.41894.61914 6.5788 6.5788 0 0 1-1.38135-.35254 6.40683 6.40683 0 0 0-1.9331-.35254 2.831 2.831 0 0 0-1.8667.59961 3.85456 3.85456 0 0 0-1.124 1.78125 12.42942 12.42942 0 0 0-.55224 2.80957q-.15242 1.62891-.15241 3.97168zm30.07618-9.8291v15.10547a15.83366 15.83366 0 0 1-.55225 4.457 7.13778 7.13778 0 0 1-1.77149 3.085 7.43178 7.43178 0 0 1-3.19042 1.80957 17.35765 17.35765 0 0 1-4.90479.59082 14.282 14.282 0 0 1-4.80029-.75195 8.28844 8.28844 0 0 1-3.25684-1.94336 3.54258 3.54258 0 0 1-1.14307-2.44727 2.02012 2.02012 0 0 1 .64747-1.55273 2.219 2.219 0 0 1 1.562-.59961 2.55994 2.55994 0 0 1 2 1.00879q.41894.51563.8667 1.03906a5.05785 5.05785 0 0 0 .99072.89453 3.87021 3.87021 0 0 0 1.30469.55273 7.65275 7.65275 0 0 0 1.75244.18067 7.10091 7.10091 0 0 0 3.1333-.56153 3.21306 3.21306 0 0 0 1.562-1.57128 6.3399 6.3399 0 0 0 .52344-2.16211q.07617-1.15284.11426-3.70508a8.53477 8.53477 0 0 1-2.771 2.55273 7.5724 7.5724 0 0 1-3.74316.876 7.89364 7.89364 0 0 1-4.562-1.333 8.51507 8.51507 0 0 1-3-3.7334 13.75252 13.75252 0 0 1-1.04736-5.543 13.12853 13.12853 0 0 1 .63818-4.22851 8.86911 8.86911 0 0 1 1.81885-3.18115 7.79636 7.79636 0 0 1 2.72363-1.95264 8.567 8.567 0 0 1 3.39063-.65723 8.15648 8.15648 0 0 1 3.82861.84766 9.33078 9.33078 0 0 1 3.00977 2.65723v-.70459a3.02789 3.02789 0 0 1 .6665-2.09522 2.19892 2.19892 0 0 1 1.71436-.74316 2.021 2.021 0 0 1 2 .981 6.43992 6.43992 0 0 1 .49512 2.82856zm-15.0669 6.59082a7.19267 7.19267 0 0 0 1.38135 4.78125 4.47627 4.47627 0 0 0 3.57129 1.61914 4.66872 4.66872 0 0 0 2.44775-.69531 5.10221 5.10221 0 0 0 1.876-2.09571 7.33267 7.33267 0 0 0 .72412-3.40039 7.80173 7.80173 0 0 0-1.40039-4.95215 4.46981 4.46981 0 0 0-3.68555-1.77148 4.32733 4.32733 0 0 0-3.57129 1.69531 7.59816 7.59816 0 0 0-1.34328 4.81934zm25.12451 11.39062l.47608-1.16211-6.39991-16.11426a6.026 6.026 0 0 1-.59082-2.019 2.36512 2.36512 0 0 1 .34327-1.23828 2.55265 2.55265 0 0 1 .94287-.91406 2.4805 2.4805 0 0 1 1.24756-.34326 2.04229 2.04229 0 0 1 1.69531.71435 6.60641 6.60641 0 0 1 1.00928 2.04785l4.3999 12.8003 4.17187-11.90528a20.59669 20.59669 0 0 1 .895-2.2666 2.668 2.668 0 0 1 .84766-1.10449 2.35414 2.35414 0 0 1 1.2666-.28613 2.23109 2.23109 0 0 1 1.1333.31445 2.198 2.198 0 0 1 .83838.84766 2.29319 2.29319 0 0 1 .29492 1.124q-.07617.36182-.24756 1.02832-.17138.66723-.41894 1.35254l-6.78125 17.752a20.7367 20.7367 0 0 1-1.71387 3.67676 5.65029 5.65029 0 0 1-2.21924 2.04785 8.173 8.173 0 0 1-3.72363.71387 9.05336 9.05336 0 0 1-3.42871-.49512 1.80656 1.80656 0 0 1-1.14307-1.80957 1.75624 1.75624 0 0 1 .543-1.38086 2.343 2.343 0 0 1 1.60938-.48535 2.96965 2.96965 0 0 1 .81933.11426 3.89132 3.89132 0 0 0 .85694.11426 3.10891 3.10891 0 0 0 1.40966-.26661 2.48171 2.48171 0 0 0 .92383-.92382 14.27794 14.27794 0 0 0 .94286-1.93367zm35.88526-5.33398l-4.47608-17.79v19.2763a3.50725 3.50725 0 0 1-.71435 2.39941 2.62036 2.62036 0 0 1-3.76172.00977 3.46748 3.46748 0 0 1-.72412-2.40918v-22.09568a2.768 2.768 0 0 1 .95263-2.46631 4.56 4.56 0 0 1 2.57129-.63818h1.75244a6.68615 6.68615 0 0 1 2.29541.28564 1.92685 1.92685 0 0 1 1.05713 1.02833 15.98018 15.98018 0 0 1 .78076 2.41943l4.05713 15.29492 4.05713-15.29492a15.96966 15.96966 0 0 1 .78125-2.41943 1.92692 1.92692 0 0 1 1.05713-1.02833 6.683 6.683 0 0 1 2.29492-.28564h1.75244a4.56281 4.56281 0 0 1 2.57178.63818 2.769 2.769 0 0 1 .95215 2.46631V134.967a3.50475 3.50475 0 0 1-.71435 2.39941 2.43643 2.43643 0 0 1-1.91407.80078 2.37815 2.37815 0 0 1-1.84765-.80078 3.47352 3.47352 0 0 1-.72364-2.39941v-19.27634l-4.47656 17.79q-.438 1.73438-.71435 2.543a3.50529 3.50529 0 0 1-1.019 1.47656 2.97011 2.97011 0 0 1-2.05713.667 3.0087 3.0087 0 0 1-2.74267-1.52441 6.23741 6.23741 0 0 1-.6001-1.47559q-.21905-.81006-.4478-1.68652zm35.84814 1.75293a16.13732 16.13732 0 0 1-3.64746 2.20019 10.20941 10.20941 0 0 1-3.95264.7334 7.48351 7.48351 0 0 1-3.51416-.791 5.77878 5.77878 0 0 1-2.33349-2.14258 5.55968 5.55968 0 0 1-.81885-2.9336 5.25131 5.25131 0 0 1 1.352-3.63769 6.76423 6.76423 0 0 1 3.71436-2.01953q.49511-.11425 2.45752-.51367 1.96141-.40137 3.36181-.7334 1.39966-.334 3.03809-.80957a5.4286 5.4286 0 0 0-.82862-3.01953q-.73316-.96168-3.03808-.96192a6.33061 6.33061 0 0 0-2.981.55274 4.84083 4.84083 0 0 0-1.71435 1.65722q-.71412 1.1045-1.00928 1.457a1.65581 1.65581 0 0 1-1.26709.35254 2.21406 2.21406 0 0 1-1.51416-.5625 1.82711 1.82711 0 0 1-.63819-1.4375 4.39674 4.39674 0 0 1 .97168-2.667 6.95134 6.95134 0 0 1 3.02832-2.1333 13.64754 13.64754 0 0 1 5.124-.83838 14.50662 14.50662 0 0 1 5.39062.80957 5.01552 5.01552 0 0 1 2.77149 2.562 11.20641 11.20641 0 0 1 .80957 4.648q0 1.82813-.00977 3.10449-.00952 1.27589-.02881 2.83789a10.4595 10.4595 0 0 0 .48584 3.05762 9.66428 9.66428 0 0 1 .48584 2.04785 1.91724 1.91724 0 0 1-.75244 1.457 2.52487 2.52487 0 0 1-1.70459.65723 2.29806 2.29806 0 0 1-1.58105-.75293 11.13144 11.13144 0 0 1-1.65711-2.18064zm-.34277-7.52442a25.93724 25.93724 0 0 1-3.32373.88575q-2.18115.46728-3.01905.68652a4.10555 4.10555 0 0 0-1.60009.85644 2.19638 2.19638 0 0 0-.76221 1.78125 2.638 2.638 0 0 0 .89551 2.00977 3.31376 3.31376 0 0 0 2.34277.82812 6.09138 6.09138 0 0 0 2.84766-.67578 4.51481 4.51481 0 0 0 1.91455-1.74316 7.96664 7.96664 0 0 0 .70459-3.88574zm15.54297 2.95313v4.34277a3.34919 3.34919 0 0 1-.74268 2.3711 2.47562 2.47562 0 0 1-1.88574.791 2.37817 2.37817 0 0 1-1.84766-.80078 3.41093 3.41093 0 0 1-.72412-2.36133v-14.47655q0-3.50464 2.53369-3.50488a2.11573 2.11573 0 0 1 1.8667.81933 4.51924 4.51924 0 0 1 .62842 2.41895 9.10226 9.10226 0 0 1 1.91406-2.41895 3.95635 3.95635 0 0 1 2.61914-.81933 6.70657 6.70657 0 0 1 3.18116.81933 2.44689 2.44689 0 0 1 1.543 2.17139 2.06667 2.06667 0 0 1-.65722 1.57178 2.04208 2.04208 0 0 1-1.419.61914 6.5788 6.5788 0 0 1-1.38135-.35254 6.40683 6.40683 0 0 0-1.9331-.35254 2.831 2.831 0 0 0-1.8667.59961 3.85454 3.85454 0 0 0-1.124 1.78125 12.42884 12.42884 0 0 0-.55225 2.80957q-.15235 1.62891-.15235 3.97168zm23.90478 5.12402l-4.59033-7.543-2.81934 2.666v4.13379a3.17845 3.17845 0 0 1-.79052 2.31445 2.47471 2.47471 0 0 1-1.81885.80957 2.34974 2.34974 0 0 1-1.88574-.80078 3.54118 3.54118 0 0 1-.68555-2.36133v-22.17182a4.40639 4.40639 0 0 1 .6665-2.63819 2.2246 2.2246 0 0 1 1.90479-.90429 2.38479 2.38479 0 0 1 1.90478.81884 3.61876 3.61876 0 0 1 .70459 2.41895v12.60937l5.84766-6.1333a14.413 14.413 0 0 1 1.65723-1.56152 2.28679 2.28679 0 0 1 1.39062-.41943 2.25229 2.25229 0 0 1 1.61914.61914 2.06152 2.06152 0 0 1 .64746 1.55273q0 1.14258-2.11425 3.04785l-2.76221 2.53321 5.33349 8.38086q.59034.93311.84766 1.41894a1.98181 1.98181 0 0 1 .25732.92383 2.72387 2.72387 0 0 1-.67626 1.95215 2.33933 2.33933 0 0 1-1.78125.71484 1.984 1.984 0 0 1-1.46631-.51465 12.424 12.424 0 0 1-1.39063-1.86621zm22.43848-6.91504h-10.17139a6.89855 6.89855 0 0 0 .71387 3.124 4.77957 4.77957 0 0 0 4.39062 2.72363 6.21768 6.21768 0 0 0 1.70508-.21875 5.52968 5.52968 0 0 0 1.49512-.68555 11.506 11.506 0 0 0 1.33349-1q.60938-.53321 1.58057-1.44824a1.70721 1.70721 0 0 1 1.14307-.34277 1.88449 1.88449 0 0 1 1.29541.43847 1.56675 1.56675 0 0 1 .49512 1.23828 3.38406 3.38406 0 0 1-.55225 1.64747 6.54252 6.54252 0 0 1-1.667 1.80957 9.48162 9.48162 0 0 1-2.79981 1.4375 12.03673 12.03673 0 0 1-3.87646.57226q-5.00978 0-7.79053-2.85742a10.64113 10.64113 0 0 1-2.78076-7.75293 12.9284 12.9284 0 0 1 .68555-4.27539 9.43175 9.43175 0 0 1 2-3.38135 8.68149 8.68149 0 0 1 3.23828-2.16211 11.62414 11.62414 0 0 1 4.2666-.75244 10.11513 10.11513 0 0 1 5.22851 1.28613 8.45094 8.45094 0 0 1 3.26661 3.32422 8.73264 8.73264 0 0 1 1.08593 4.15137q0 1.96289-1.124 2.543a6.99688 6.99688 0 0 1-3.16163.58105zm-10.17139-2.95215h9.42822a6.32147 6.32147 0 0 0-1.438-3.99023 4.30436 4.30436 0 0 0-3.28565-1.32422 4.16189 4.16189 0 0 0-3.19043 1.34277 6.67758 6.67758 0 0 0-1.51414 3.97168zm19.12402-8.43798h.57129v-3.124q0-1.25683.06641-1.97119a2.9142 2.9142 0 0 1 .37158-1.229 2.34591 2.34591 0 0 1 .876-.86621 2.48852 2.48852 0 0 1 1.27637-.3335 2.5685 2.5685 0 0 1 1.79052.74268 2.20244 2.20244 0 0 1 .67627 1.20947 10.99736 10.99736 0 0 1 .14258 2.02881v3.543h1.90479a2.4393 2.4393 0 0 1 1.686.52343 1.72873 1.72873 0 0 1 .58106 1.34327 1.50291 1.50291 0 0 1-.82862 1.4663 5.37289 5.37289 0 0 1-2.37158.41944h-.97168v9.56152a15.49034 15.49034 0 0 0 .08594 1.876 1.913 1.913 0 0 0 .457 1.06738 1.56177 1.56177 0 0 0 1.20947.40918 6.43458 6.43458 0 0 0 1.23828-.16211 6.45415 6.45415 0 0 1 1.21924-.16113 1.56874 1.56874 0 0 1 1.1333.5039 1.69852 1.69852 0 0 1 .5044 1.24805 2.08779 2.08779 0 0 1-1.3711 1.92383 9.27037 9.27037 0 0 1-3.94287.667 6.81115 6.81115 0 0 1-3.69531-.81933 3.79763 3.79763 0 0 1-1.64746-2.26661 15.356 15.356 0 0 1-.39063-3.86718v-9.98047h-.686a2.472 2.472 0 0 1-1.71387-.53369 1.74061 1.74061 0 0 1-.59082-1.352 1.68178 1.68178 0 0 1 .61914-1.34327 2.7182 2.7182 0 0 1 1.8003-.52357zm33.06641 15.99951l-4.47656-17.79v19.2763a3.51462 3.51462 0 0 1-.71289 2.39941 2.62266 2.62266 0 0 1-3.76367.00977 3.46977 3.46977 0 0 1-.72266-2.40918v-22.09568a2.76879 2.76879 0 0 1 .95117-2.46631 4.56675 4.56675 0 0 1 2.57227-.63818h1.75195a6.67345 6.67345 0 0 1 2.29492.28564 1.92792 1.92792 0 0 1 1.0586 1.02833 16.08348 16.08348 0 0 1 .78125 2.41943l4.05664 15.29492 4.05664-15.29492a16.08231 16.08231 0 0 1 .78125-2.41943 1.92449 1.92449 0 0 1 1.05664-1.02833 6.68868 6.68868 0 0 1 2.29492-.28564h1.75391a4.55983 4.55983 0 0 1 2.57031.63818 2.76934 2.76934 0 0 1 .95312 2.46631V134.967a3.50478 3.50478 0 0 1-.71484 2.39941 2.43571 2.43571 0 0 1-1.91406.80078 2.37746 2.37746 0 0 1-1.84766-.80078 3.476 3.476 0 0 1-.72461-2.39941v-19.27634l-4.47461 17.79q-.43945 1.73438-.71484 2.543a3.49782 3.49782 0 0 1-1.01953 1.47656 2.96965 2.96965 0 0 1-2.05664.667 3.0148 3.0148 0 0 1-2.74414-1.52441 6.27765 6.27765 0 0 1-.59961-1.47559q-.21974-.81006-.44727-1.68652zm37.21973-4.60938H403.861a6.89881 6.89881 0 0 0 .71485 3.124 4.77957 4.77957 0 0 0 4.39062 2.72363 6.2054 6.2054 0 0 0 1.7041-.21875 5.51617 5.51617 0 0 0 1.49512-.68555 11.55439 11.55439 0 0 0 1.334-1q.60938-.53321 1.58106-1.44824a1.70581 1.70581 0 0 1 1.14258-.34277 1.88234 1.88234 0 0 1 1.29492.43847 1.56675 1.56675 0 0 1 .49512 1.23828 3.3827 3.3827 0 0 1-.55176 1.64747 6.55009 6.55009 0 0 1-1.667 1.80957 9.48162 9.48162 0 0 1-2.79981 1.4375 12.03573 12.03573 0 0 1-3.876.57226q-5.00977 0-7.791-2.85742a10.63935 10.63935 0 0 1-2.78125-7.75293 12.9037 12.9037 0 0 1 .68652-4.27539 9.41784 9.41784 0 0 1 2-3.38135 8.67783 8.67783 0 0 1 3.23731-2.16211 11.63129 11.63129 0 0 1 4.26758-.75244 10.11637 10.11637 0 0 1 5.22851 1.28613 8.4574 8.4574 0 0 1 3.2666 3.32422 8.73684 8.73684 0 0 1 1.085 4.15137q0 1.96289-1.123 2.543a7.002 7.002 0 0 1-3.16219.58105zm-10.17188-2.95215h9.42871a6.32411 6.32411 0 0 0-1.4375-3.99023 4.30614 4.30614 0 0 0-3.28613-1.32422 4.1619 4.1619 0 0 0-3.19043 1.34277 6.68084 6.68084 0 0 0-1.51465 3.97168zm19.124-8.43798h.57129v-3.124q0-1.25683.0664-1.97119a2.90744 2.90744 0 0 1 .37207-1.229 2.33878 2.33878 0 0 1 .876-.86621 2.48471 2.48471 0 0 1 1.27637-.3335 2.56737 2.56737 0 0 1 1.79.74268 2.19878 2.19878 0 0 1 .67579 1.20947 10.93931 10.93931 0 0 1 .14355 2.02881v3.543h1.9043a2.43625 2.43625 0 0 1 1.68554.52343 1.72711 1.72711 0 0 1 .58106 1.34327 1.50332 1.50332 0 0 1-.82813 1.4663 5.37236 5.37236 0 0 1-2.37207.41944h-.9707v9.56152a15.38916 15.38916 0 0 0 .08594 1.876 1.90619 1.90619 0 0 0 .457 1.06738 1.55986 1.55986 0 0 0 1.209.40918 6.43458 6.43458 0 0 0 1.23828-.16211 6.45482 6.45482 0 0 1 1.21875-.16113 1.56979 1.56979 0 0 1 1.13379.5039 1.69893 1.69893 0 0 1 .50489 1.24805 2.08737 2.08737 0 0 1-1.37207 1.92383 9.268 9.268 0 0 1-3.94239.667 6.81115 6.81115 0 0 1-3.69531-.81933 3.79963 3.79963 0 0 1-1.64746-2.26661 15.35609 15.35609 0 0 1-.39062-3.86718v-9.98047h-.68555a2.47386 2.47386 0 0 1-1.71485-.53369 1.74138 1.74138 0 0 1-.58984-1.352 1.68034 1.68034 0 0 1 .61914-1.34327 2.715 2.715 0 0 1 1.79983-.52357zm18.6094-5.02881v7.71435a11.12019 11.12019 0 0 1 1.93359-1.80957 6.946 6.946 0 0 1 2.08594-1 8.73542 8.73542 0 0 1 2.457-.33349 7.20894 7.20894 0 0 1 3.51368.83838 6.50276 6.50276 0 0 1 3.15239 4.52395 16.46085 16.46085 0 0 1 .19043 2.65723v9.96191a3.44119 3.44119 0 0 1-.71387 2.36133 2.416 2.416 0 0 1-1.89551.80078q-2.57079 0-2.57129-3.16211v-8.78125a8.04143 8.04143 0 0 0-.74316-3.83789 2.92852 2.92852 0 0 0-2.81836-1.34277 4.227 4.227 0 0 0-2.50488.79 4.75828 4.75828 0 0 0-1.667 2.16211 13.838 13.838 0 0 0-.41895 4.13379v6.876a3.5145 3.5145 0 0 1-.69531 2.35254 2.41546 2.41546 0 0 1-1.9336.80957q-2.57079 0-2.57128-3.16211v-22.55275a3.56987 3.56987 0 0 1 .67675-2.37158 2.35874 2.35874 0 0 1 1.89453-.79 2.42738 2.42738 0 0 1 1.9336.7998 3.50641 3.50641 0 0 1 .6953 2.36178zm37.94238 15.14262a12.29343 12.29343 0 0 1-.72363 4.28613 9.45183 9.45183 0 0 1-2.0957 3.37109 9.23084 9.23084 0 0 1-3.27539 2.16211 11.58183 11.58183 0 0 1-4.28614.75293 11.26093 11.26093 0 0 1-4.248-.76269 9.36979 9.36979 0 0 1-5.36133-5.53321 12.24388 12.24388 0 0 1-.71484-4.27636 12.38407 12.38407 0 0 1 .72461-4.32325 9.40229 9.40229 0 0 1 2.07617-3.35254 9.1582 9.1582 0 0 1 3.27539-2.14306 12.40015 12.40015 0 0 1 8.53418.00976 9.21852 9.21852 0 0 1 5.38086 5.52393 12.34829 12.34829 0 0 1 .71382 4.28516zm-5.21875 0a7.80164 7.80164 0 0 0-1.40039-4.95215 4.5479 4.5479 0 0 0-3.76172-1.77149 4.657 4.657 0 0 0-2.68554.791 5.00728 5.00728 0 0 0-1.791 2.333 10.59514 10.59514 0 0 0-.00879 7.16211 5.09875 5.09875 0 0 0 1.77149 2.333 4.59642 4.59642 0 0 0 2.71386.80957 4.53758 4.53758 0 0 0 3.76172-1.78125 7.77331 7.77331 0 0 0 1.40034-4.92379zm23.5625 7.60054v-.51465a13.2104 13.2104 0 0 1-2.0664 1.95215 7.80067 7.80067 0 0 1-2.21 1.14356 8.31611 8.31611 0 0 1-2.59961.39062 7.65752 7.65752 0 0 1-3.458-.791 8.06894 8.06894 0 0 1-2.752-2.25684 10.2779 10.2779 0 0 1-1.76172-3.44824 14.70346 14.70346 0 0 1-.60059-4.28516q0-4.87647 2.38086-7.6001a7.92228 7.92228 0 0 1 6.26758-2.72412 8.41829 8.41829 0 0 1 3.79.77149 10.594 10.594 0 0 1 3.00976 2.37158v-7.67627a3.883 3.883 0 0 1 .6377-2.41895 2.1719 2.1719 0 0 1 1.81934-.81884 2.25486 2.25486 0 0 1 1.81933.75195 3.35689 3.35689 0 0 1 .6377 2.21924v22.93359a3.18616 3.18616 0 0 1-.68555 2.22852 2.30192 2.30192 0 0 1-1.77148.74316 2.26969 2.26969 0 0 1-1.76172-.77148 3.17542 3.17542 0 0 1-.6952-2.20021zm-10.22853-7.63867a8.86644 8.86644 0 0 0 .65722 3.60059 5.01685 5.01685 0 0 0 1.79981 2.23828 4.451 4.451 0 0 0 2.49512.752 4.60975 4.60975 0 0 0 2.50488-.71387 4.92326 4.92326 0 0 0 1.80957-2.19043 8.86171 8.86171 0 0 0 .67578-3.68652 8.62825 8.62825 0 0 0-.67578-3.57129 5.36789 5.36789 0 0 0-1.8291-2.28516 4.36629 4.36629 0 0 0-2.52344-.791 4.2601 4.2601 0 0 0-2.55273.80957 5.19467 5.19467 0 0 0-1.74219 2.32422 9.22854 9.22854 0 0 0-.61914 3.51361zm37.10451 3.80957a6.03129 6.03129 0 0 1-4.14258 6.00977 13.86653 13.86653 0 0 1-4.98144.791 12.14975 12.14975 0 0 1-4.79981-.85742 6.99576 6.99576 0 0 1-2.95215-2.14258 4.3154 4.3154 0 0 1-.95312-2.581 1.9972 1.9972 0 0 1 .61035-1.4668 2.08928 2.08928 0 0 1 1.542-.60938 1.80256 1.80256 0 0 1 1.25782.39942 4.3843 4.3843 0 0 1 .83789 1.124 5.7034 5.7034 0 0 0 1.91406 2.07617 5.77584 5.77584 0 0 0 3.03808.68555 4.39038 4.39038 0 0 0 2.5625-.69531 1.95572 1.95572 0 0 0 1-1.58985 2.16476 2.16476 0 0 0-1.03808-2 12.84943 12.84943 0 0 0-3.41895-1.20019 28.28433 28.28433 0 0 1-4.37207-1.40039 7.18935 7.18935 0 0 1-2.69531-1.93262 4.4338 4.4338 0 0 1-1.00977-2.95312 5.20905 5.20905 0 0 1 .9336-2.95215 6.40625 6.40625 0 0 1 2.75293-2.21924 10.5394 10.5394 0 0 1 4.39062-.82861 14.42365 14.42365 0 0 1 3.62793.41943 9.03825 9.03825 0 0 1 2.68555 1.12354 5.556 5.556 0 0 1 1.63867 1.562 3.0601 3.0601 0 0 1 .56152 1.67627 1.93806 1.93806 0 0 1-.5996 1.46679 2.37715 2.37715 0 0 1-1.70508.57129 2.08672 2.08672 0 0 1-1.36133-.457 8.92138 8.92138 0 0 1-1.28613-1.37207 4.70813 4.70813 0 0 0-1.39063-1.21875 4.38038 4.38038 0 0 0-2.1709-.457 4.25407 4.25407 0 0 0-2.34375.6001 1.75031 1.75031 0 0 0-.93261 1.4956 1.61933 1.61933 0 0 0 .68554 1.34278 5.70425 5.70425 0 0 0 1.84766.86621q1.16161.34277 3.20019.83789a17.14809 17.14809 0 0 1 3.95215 1.41015 6.58585 6.58585 0 0 1 2.32422 1.93262 4.29111 4.29111 0 0 1 .79003 2.5429zm13.92383-3.77144a27.74418 27.74418 0 0 1 .49512-5.38086 25.948 25.948 0 0 1 1.50488-4.93311 35.70389 35.70389 0 0 1 2.49512-4.8667 13.809 13.809 0 0 1 1.50488-2.14258 2.745 2.745 0 0 1 1.15234-.81933 5.02107 5.02107 0 0 1 1.40039-.16162q.93311 0 .9336.51416a15.46014 15.46014 0 0 1-.877 2.0664q-.876 1.89551-1.64746 3.97168a37.55676 37.55676 0 0 0-1.42871 5.18067 31.72734 31.72734 0 0 0-.65722 6.57129 31.33169 31.33169 0 0 0 .64843 6.49609 38.45642 38.45642 0 0 0 1.47559 5.31348q.82909 2.24853 1.65723 4.02929a14.95051 14.95051 0 0 1 .8291 1.93262q0 .51563-.9336.51465a4.60509 4.60509 0 0 1-1.41894-.18067 2.79017 2.79017 0 0 1-1.13379-.84765 16.93175 16.93175 0 0 1-1.50488-2.13379 38.59156 38.59156 0 0 1-2.48536-4.84766 25.77209 25.77209 0 0 1-1.49511-4.84765 27.08544 27.08544 0 0 1-.51461-5.42871zm32.7998-13.46635H558.738v6.85693h11.73339a2.79084 2.79084 0 0 1 1.93262.58106 1.97415 1.97415 0 0 1 .63867 1.5332 2.05069 2.05069 0 0 1-.6289 1.55273 2.72523 2.72523 0 0 1-1.94239.59961H558.738v7.94336h13.18066a2.88443 2.88443 0 0 1 2.00977.61914 2.12682 2.12682 0 0 1 .67578 1.64746 2.08186 2.08186 0 0 1-.67578 1.60938 2.88443 2.88443 0 0 1-2.00977.61914h-15.37113a3.622 3.622 0 0 1-2.65723-.81934 3.65851 3.65851 0 0 1-.80957-2.64746v-20.99023a4.71028 4.71028 0 0 1 .36133-1.99073 2.24891 2.24891 0 0 1 1.13379-1.124 4.77319 4.77319 0 0 1 1.97168-.35205h14.93261a2.89815 2.89815 0 0 1 2.00977.6001 2.02632 2.02632 0 0 1 .65723 1.57129 2.04875 2.04875 0 0 1-.65723 1.59033 2.90057 2.90057 0 0 1-2.00977.60008zM588.529 133.4807l-4.47656-17.79v19.2763a3.50967 3.50967 0 0 1-.71387 2.39941 2.62151 2.62151 0 0 1-3.76269.00977 3.46982 3.46982 0 0 1-.72364-2.40918v-22.09568a2.76907 2.76907 0 0 1 .95215-2.46631 4.56455 4.56455 0 0 1 2.57227-.63818h1.752a6.681 6.681 0 0 1 2.29492.28564 1.92619 1.92619 0 0 1 1.05762 1.02833 16.08231 16.08231 0 0 1 .78125 2.41943l4.05664 15.29492 4.05762-15.29492a15.993 15.993 0 0 1 .78027-2.41943 1.92622 1.92622 0 0 1 1.05762-1.02833 6.68486 6.68486 0 0 1 2.29492-.28564h1.75293a4.56328 4.56328 0 0 1 2.57129.63818 2.76907 2.76907 0 0 1 .95215 2.46631V134.967a3.50967 3.50967 0 0 1-.71387 2.39941 2.43779 2.43779 0 0 1-1.915.80078 2.3789 2.3789 0 0 1-1.84766-.80078 3.476 3.476 0 0 1-.72363-2.39941v-19.27634l-4.47558 17.79q-.43946 1.73438-.71485 2.543a3.504 3.504 0 0 1-1.01855 1.47656 2.97229 2.97229 0 0 1-2.05762.667 3.01172 3.01172 0 0 1-2.74316-1.52441 6.23615 6.23615 0 0 1-.59961-1.47559q-.21985-.81006-.44736-1.68652zm28.7236-.28516h9.9424a3.62328 3.62328 0 0 1 2.2666.60938 1.99062 1.99062 0 0 1 .78125 1.65722 2.20131 2.20131 0 0 1-.61914 1.58106 2.48286 2.48286 0 0 1-1.876.64746h-14.01952a3.0358 3.0358 0 0 1-2.22852-.79 2.5291 2.5291 0 0 1-.7998-1.85742 4.73462 4.73462 0 0 1 .51465-1.81934 6.548 6.548 0 0 1 1.12305-1.78125q2.53417-2.62793 4.57226-4.5039a29.97208 29.97208 0 0 1 2.91406-2.4668 16.80723 16.80723 0 0 0 2.59961-2.21973 8.7826 8.7826 0 0 0 1.58106-2.28564 5.42552 5.42552 0 0 0 .543-2.29492 4.13363 4.13363 0 0 0-.58106-2.18116 4.02621 4.02621 0 0 0-1.58105-1.49511 4.56055 4.56055 0 0 0-2.18067-.53321 4.45291 4.45291 0 0 0-3.92383 2.19043 9.47612 9.47612 0 0 0-.63769 1.562 6.54925 6.54925 0 0 1-1.00977 1.96192 2.007 2.007 0 0 1-1.64746.68555 2.1428 2.1428 0 0 1-1.58105-.62842 2.31807 2.31807 0 0 1-.62891-1.71436 7.17568 7.17568 0 0 1 .59082-2.74316 7.8603 7.8603 0 0 1 1.76172-2.59033 8.72457 8.72457 0 0 1 2.97168-1.876 11.38645 11.38645 0 0 1 4.21875-.71436 12.201 12.201 0 0 1 4.97168.91407 7.49727 7.49727 0 0 1 2.34277 1.67627 7.86547 7.86547 0 0 1 2.13282 5.37158 8.12566 8.12566 0 0 1-1.1709 4.29541 13.369 13.369 0 0 1-2.39063 3.02832q-1.21875 1.0957-4.08593 3.43847a30.64935 30.64935 0 0 0-3.9336 3.6377 10.82169 10.82169 0 0 0-.93265 1.23827zm25.86622-5.60054a26.21908 26.21908 0 0 1-1.11426 7.791 32.99669 32.99669 0 0 1-3.38086 7.333 9.8977 9.8977 0 0 1-2.01953 2.62891 3.39951 3.39951 0 0 1-2.01856.5332q-.95361 0-.95312-.51465a12.18928 12.18928 0 0 1 .80078-1.83789q.7998-1.667 1.666-3.97168a36.10048 36.10048 0 0 0 1.50489-5.41895 33.72717 33.72717 0 0 0-.00977-13.11425 36.87886 36.87886 0 0 0-1.50391-5.40918q-.85839-2.2859-1.65722-3.97168a13.56775 13.56775 0 0 1-.80078-1.83789q0-.51417.95312-.51416a3.567 3.567 0 0 1 2.05664.50439 9.37106 9.37106 0 0 1 1.98145 2.61914 38.8613 38.8613 0 0 1 1.96191 3.67627 29.18162 29.18162 0 0 1 1.39942 3.61914 24.65673 24.65673 0 0 1 .84765 3.771 28.5575 28.5575 0 0 1 .28615 4.11428z"/><path fill="url(#linear-gradient)" d="M203.47434 69.27806a2.89124 2.89124 0 0 0-1.155-1.12976l-1.40564-.74768-2.772-1.47449-2.77191-1.47442-2.77191-1.47443-2.772-1.47449-2.77188-1.47442-2.772-1.47443-2.77191-1.47449-2.77189-1.47445-2.772-1.47443-2.77191-1.47449-2.77192-1.47442-2.772-1.47443-2.77191-1.47449-2.77191-1.47442-2.772-1.47443-2.77192-1.47449-2.772-1.47442-2.19714-1.1687 3.47839-1.27558 4.38843-1.60925 4.38843-1.60925 2.5534-.93634a2.9134 2.9134 0 0 0-2.00494-5.47095l-.90949.33349-4.38842 1.60926-4.38829 1.60928-4.38843 1.60925-4.38837 1.60926-1.24688.45727-1.98432-1.05554-2.772-1.47443-2.77191-1.47442-2.77191-1.47449-2.772-1.47443-2.772-1.47442-2.77185-1.47449-2.772-1.47443-2.48962-1.32428a2.86229 2.86229 0 0 0-.29719-.12176 2.89649 2.89649 0 0 0-2.67639 5.10571 2.85111 2.85111 0 0 0 .2381.15924l2.52045 1.3407 2.772 1.47443 2.77191 1.47442 2.772 1.47449 2.77191 1.47443 2.77191 1.47442 2.772 1.47449.11829.06293-.18726.06866-4.38843 1.60919-4.38836 1.60926-4.38837 1.60925-4.38843 1.60925-4.38836 1.60926-1.78144.65325a2.91338 2.91338 0 1 0 2.005 5.471l.13745-.05041 4.38843-1.60926 4.38836-1.60925 4.38843-1.60925 4.38837-1.60919 4.38836-1.60926 4.38837-1.60925 2.34418-.85962 1.29126.68683 2.77191 1.47443 2.772 1.47442 2.77191 1.47449 2.772 1.47443 2.77191 1.47442 2.77191 1.47449 2.772 1.47443 2.77191 1.47442 2.77191 1.47449 2.772 1.47443 2.77191 1.47442 2.772 1.47449 2.77191 1.47443 2.77191 1.47442 2.772 1.47449 2.77191 1.47443 2.77191 1.47442 2.772 1.47449 2.77192 1.47443 1.37487.73132a2.89582 2.89582 0 0 0 1.36542.34247c.0882 0 .17261-.027.26-.03492a2.88128 2.88128 0 0 0 2.265-4.321z"/><path fill="url(#linear-gradient-2)" d="M142.84117 69.986l-2.92633-1.18-2.92633-1.18-2.92627-1.17993-2.92634-1.18-2.92626-1.17993-2.92634-1.17994-2.9263-1.1799-.5254-.21185a2.96234 2.96234 0 0 0-3.79028 1.61237c-.02087.05169-.028.10492-.04571.157a2.90253 2.90253 0 0 0 1.64416 3.62591l.01392.00733 2.91168 1.17407 2.92633 1.17993 2.9263 1.17994 2.92633 1.17994 2.92627 1.18 2.92633 1.17993 2.92633 1.17993 2.92633 1.18 2.92627 1.17994 1.71826.69281.056 2.68493.1355 6.504.13544 6.504.13549 6.504.02381 1.1416a2.9494 2.9494 0 0 0 2.91064 2.8526c.02051 0 .041 0 .06147-.0011a2.9114 2.9114 0 0 0 2.8515-2.97217l-.10846-5.20654-.1355-6.504-.1355-6.504-.05487-2.63421 1.18518.4779 2.92633 1.17993 2.92627 1.17994 2.92633 1.17993 2.92633 1.18 2.92627 1.17993 2.92633 1.17993 1.10236.44452a2.91255 2.91255 0 0 0 2.17786-5.40265l-.56232-.22674-2.92633-1.17993-2.92625-1.17991-2.92633-1.18-2.92633-1.17993-2.92634-1.17992-2.92633-1.18-2.92633-1.17994-1.10871-.44708-.08413-4.03964-.1355-6.504-.08112-3.89483a2.91243 2.91243 0 0 0-5.82361.1206l.03034 1.45581.1355 6.504.08306 3.989-1.79467-.72369z"/><path fill="url(#linear-gradient-3)" d="M68.79637 30.69505l1.60852 1.65338 2.30365 2.3678 2.30359 2.36786 2.30358 2.36786 2.30365 2.3678 2.30364 2.36786 2.30359 2.36786 2.30365 2.36785 2.30365 2.3678 2.3036 2.36788 2.30365 2.36786.01819.01868-5.05176 16.34617-4.1748 13.5086a2.94426 2.94426 0 0 0 2.78442 3.7743 2.91507 2.91507 0 0 0 2.78211-2.05384l3.28234-10.62091 5.00574-16.1972 2.26459 2.3277 2.30365 2.36785 2.30359 2.3678 2.30365 2.36786 2.30365 2.36786 2.30359 2.3678 2.30365 2.36786 2.30365 2.36786 2.3036 2.36775.63153.64917a2.90355 2.90355 0 0 0 2.088.88184l.02392-.00226a2.92811 2.92811 0 0 0 2.06409-4.94175l-1.96154-2.01628-2.30359-2.3678-2.30364-2.36785-2.30365-2.36786-2.30359-2.3678-2.30365-2.36786-2.30365-2.36786-2.30359-2.3678L103.198 57.701l-2.30359-2.36785-.84747-.871 3.21881-10.41522 5.092-16.4765 3.1192-10.0929a2.9132 2.9132 0 0 0-5.56653-1.72052l-2.22681 7.20526-5.092 16.47657-3.17275 10.26622-1.43536-1.4754-2.30365-2.3678-2.30359-2.36786-2.30365-2.36779-2.30361-2.36786-2.30365-2.36786-2.30365-2.36786-2.30359-2.3678-2.30363-2.36783-2.30365-2.3678-.2785-.28631a2.91294 2.91294 0 0 0-4.176 4.06219z"/><path fill="url(#linear-gradient-4)" d="M48.87327 42.422l1.35573 1.36589 2.31977 2.337 2.31976 2.337 2.31983 2.337 2.3197 2.337 2.31982 2.337 2.31976 2.337 2.31977 2.337 2.31976 2.337 2.31983 2.337 2.3197 2.337 2.31982 2.337 2.31976 2.337 1.23155 1.24111a2.87973 2.87973 0 0 0 1.27594.73828 2.9035 2.9035 0 0 0 2.85907-4.84143l-.2102-.21173-2.31977-2.337-2.31976-2.337-2.31976-2.3371L73.94358 59.41l-2.31982-2.3371-2.31976-2.337-2.31977-2.337-2.31976-2.3371-2.31976-2.337-2.31977-2.337-2.31976-2.3371-2.31982-2.337-2.31977-2.337-.05731-.05774a2.91273 2.91273 0 0 0-4.135 4.10321z"/><path fill="url(#linear-gradient-5)" d="M18.254 111.54887l3.81036-.50647 3.48865-.46374-.01666.60272-.19751 7.13922-.19751 7.13922-.09064 3.277a2.92092 2.92092 0 0 0 2.831 2.99262h.082a2.91692 2.91692 0 0 0 2.91065-2.83332l.02478-.89544.19751-7.13923.19751-7.13922.10846-3.92108 2.09271-.27814 3.81036-.50646 3.81031-.50647 3.81036-.50654 1.43573-.19079-1.97711 7.986-3.17267 12.81494-3.17267 12.81494-2.49994 10.09754a2.9489 2.9489 0 0 0 2.12781 3.52746 2.72241 2.72241 0 0 0 .30023.037 2.96853 2.96853 0 0 0 .40186.04944 2.91569 2.91569 0 0 0 2.82531-2.212l1.87372-7.56843 3.17249-12.81451 3.17248-12.81464 3.15473-12.74273 3.78894-.50366 3.81036-.50647 3.81024-.50647 3.81037-.50647 3.8103-.50647 3.81036-.50647 3.229-.4292a2.937 2.937 0 0 0 2.50445-3.27136 2.96315 2.96315 0 0 0-3.27142-2.50446l-2.96057.39349-3.81034.50649-3.81037.50653-3.81024.50647-3.81036.50647-3.81031.50647-1.78572.23735 1.68561-6.80878 3.17254-12.81463L62.10362 68.472l1.20245-4.857a2.913 2.913 0 0 0-5.65521-1.39959l-.57526 2.32367-3.17273 12.815-3.1726 12.81488-2.86353 11.566-3.439.45709-3.81031.50647-3.81036.50647-3.81024.50647-1.43109.19025.12335-4.458.19751-7.13922.19751-7.13922.19751-7.13928.19751-7.13923.30224-10.92547a2.913 2.913 0 1 0-5.82367-.16162l-.63137 22.82483-.19751 7.13922-.1975 7.13922-.19745 7.13922-.01764.63708-.34.04517-3.81036.50647-3.81031.50647-3.8103.50647-4.57562.60822a2.91311 2.91311 0 0 0 .38006 5.8009 2.9657 2.9657 0 0 0 .38685-.02509l.49688-.066 3.81031-.50647z"/><path fill="url(#linear-gradient-6)" d="M146.95109 150.05717a2.89826 2.89826 0 0 0-.80188.3061l-4.19385 2.462-5.1206 3.00592-5.12049 3.00592-5.12054 3.006-5.12048 3.00586-5.12055 3.006-5.12054 3.00592-5.12049 3.00592-5.12054 3.00593-5.12054 3.006-1.15339.67706a2.90433 2.90433 0 0 0-1.15619 3.72882c.0398.08612.06946.17474.11841.2583a2.91208 2.91208 0 0 0 2.51471 1.43829c.00806 0 .016-.00311.02405-.00317a2.90587 2.90587 0 0 0 1.44836-.3974l3.32935-1.95441 5.12048-3.00592 5.12055-3.00592 5.12054-3.006 5.12049-3.00586 5.12054-3.006 5.12048-3.00586 5.12055-3.006 5.12048-3.00586 5.12055-3.006 2.018-1.18463a2.91436 2.91436 0 0 0 1.03778-3.98712 2.86076 2.86076 0 0 0-.2008-.27466 2.89852 2.89852 0 0 0-2.98444-1.06923z"/><path fill="url(#linear-gradient-7)" d="M179.16923 195.80778l-5.754-1.5617-3.10327-.84229-3.10333-.84228-3.10327-.84229-3.10334-.84228-3.10333-.84229-3.10327-.84228-3.10333-.84229-3.10334-.84228-3.10327-.84223-1.0852-.29455 2.43371-2.278 6.95954-6.51434 5.35821-5.01538a2.91181 2.91181 0 0 0-3.98028-4.2511l-.12818.11993-6.95965 6.51447-6.95954 6.51428-3.3302 3.11713-1.6184-.43927-3.10328-.84229-3.10333-.84228-3.10327-.84229-3.10333-.84228-3.10333-.84229-2.18744-.59369a2.87676 2.87676 0 0 0-1.00263-.08313 2.90766 2.90766 0 0 0-.52441 5.70429l.9447.25641 3.10333.84228 3.10333.84229 3.10328.84228 3.10333.84229 2.49274.67657-5.5904 5.23273-6.95959 6.51434-.62354.58368-2.80969-.79657-3.08618-.87488-3.08624-.87494-3.08625-.87493-3.08618-.87488-3.08618-.87494-3.08624-.87494-3.08618-.87488-3.08625-.87494-3.08618-.87494-3.08618-.87487-3.08624-.87494-.912-.25855-.25464-4.27826-.36145-6.07287-.36145-6.07288-.13379-2.24762L82.723 171.148l5.08686-2.94177 5.087-2.94183 5.08685-2.94183 1.33051-.76941a2.90724 2.90724 0 0 0 1.10742-3.88141c-.01715-.03241-.02612-.06684-.04462-.09888a2.94756 2.94756 0 0 0-3.98028-1.06274l-3.52417 2.03808-5.08688 2.94179-5.087 2.94178-2.24567 1.2987-.2019-3.39184-.36145-6.07288-.36145-6.07294-.36145-6.07293-.17277-2.90289a2.85094 2.85094 0 0 0-.86426-1.88117 2.995 2.995 0 0 0-2.216-.85431 2.94074 2.94074 0 0 0-2.73432 3.08142l.0243.40772.36145 6.07287.36145 6.07294.36145 6.07288.36145 6.07293.16253 2.73041-2.28711 1.32263-5.08685 2.94178-5.087 2.94183-5.08685 2.94177-5.087 2.94184-.09345.05407-2.04815-2.73089-2.08649-2.782-2.08655-2.782-2.08655-2.782-2.08648-2.782-1.34644-1.79522L51.638 149.2993l17.50315-26.6283 3.7436-5.69532a2.91265 2.91265 0 0 0-4.86786-3.1997l-6.43219 9.78558-17.50348 26.62885-7.45307 11.33859-1.19815-1.59737-2.08648-2.782-2.08655-2.782-2.08649-2.782-2.08648-2.782-2.08655-2.782-2.08655-2.782-2.08649-2.782-2.08648-2.782-2.08655-2.782-.6662-.88831a2.913 2.913 0 0 0-4.66077 3.49555l.24451.32605 2.08655 2.782 2.08648 2.782 2.08655 2.782 2.08649 2.782 2.08655 2.782 2.08648 2.782 2.08649 2.782 2.08655 2.782 2.08655 2.782 2.08648 2.782.79261 1.05682-6.64911 10.1156-.09546.1452a2.91263 2.91263 0 1 0 4.8678 3.19971l2.78457-4.23625 2.80731-4.27087 1.7519 2.33588 2.08648 2.782 2.08649 2.782 2.08655 2.782 2.05127 2.735-5.001 2.89209-2.49384 1.4422a2.89677 2.89677 0 0 0 2.56214 5.18994 2.81052 2.81052 0 0 0 .35534-.14685l4.68744-2.71081 3.41059-1.97235.68756.9168 2.08655 2.782 2.08648 2.782 2.08655 2.782 2.08649 2.782 2.08655 2.782 2.08648 2.782 2.08649 2.782.13446.17926a2.91326 2.91326 0 0 0 4.66077-3.49555l-1.79926-2.399-2.08649-2.782-2.08654-2.782-2.08655-2.782-2.08649-2.782-2.08649-2.782-2.08654-2.782-.69068-.921 1.6839-.97382 5.08692-2.94183 5.08691-2.94178 5.08691-2.94183 2.65015-1.53259.17316 2.90906.36145 6.07293.28241 4.74481-2.41132-.68359-3.08618-.87494-.31268-.08862a2.91217 2.91217 0 0 0-1.58844 5.6029l2.22479.63074 3.08618.87488 2.4541.69574.074 1.24383.36145 6.07288.36151 6.07294.335 5.62811a2.93815 2.93815 0 0 0 2.905 2.74c.058 0 .116-.00232.17523-.00458a2.91288 2.91288 0 0 0 2.73432-3.08136l-.18647-3.133-.36145-6.07288-.36151-6.07294-.10181-1.71038.86921.2464 3.08624.87493 3.08618.87494 3.08624.87488 3.08619.87494 3.08624.87494 3.08618.87488 3.08618.87494 3.08624.87494 3.08619.87487 3.08618.87494.60864.17255-1.3725 1.28467-6.95959 6.51434-5.34815 5.006a2.91181 2.91181 0 1 0 3.98029 4.2511l.1181-.11054 6.95966-6.5144 6.95959-6.51434 2.20349-2.0625 2.10907.5979 3.08625.87494 3.08618.87487 3.08618.87494 3.08624.87494 3.08618.87488 3.08625.87494 3.08618.87494 3.08624.87494 1.8667.52917a2.83122 2.83122 0 0 0 .79541.11151 2.9148 2.9148 0 0 0 .79309-5.71441l-.69269-.19635-3.08618-.87494-3.08624-.87494-3.08618-.87488-3.08625-.87494-3.08618-.87494-3.08618-.87487-3.08624-.87494-2.9942-.84882 6.75219-6.32025 6.48682-6.07178.21082.05719 3.10333.84229 3.10327.84228 3.10333.84229 3.10333.84228 3.10328.84229 3.10333.84228 3.10333.84229 3.10327.84228 3.10333.84229 3.10334.84228 6.9967 1.899a2.87869 2.87869 0 0 0 .76581.10236 2.91261 2.91261 0 0 0 .76123-5.72352z"/><path fill="url(#linear-gradient-8)" d="M620.98173 61.48375a2.91287 2.91287 0 0 0-4.16461-4.07361l-3.414 3.48914-7.09693 7.25311-7.09686 7.25305-7.09692 7.25305-7.09693 7.25312-7.09692 7.25305-.554.56616a2.9016 2.9016 0 0 0 1.9292 4.9353c.05121.00269.10187.01447.15314.01447a2.90453 2.90453 0 0 0 2.08234-.87622l3.68274-3.7638 7.09692-7.25311 7.09686-7.253 7.09693-7.25311 7.09686-7.253 7.09692-7.25312z"/><path fill="url(#linear-gradient-9)" d="M556.56858 67.65343l3.83661.01458 3.83667.01459 3.83667.01459 2.86279.01092-9.3894 14.538L559.657 85.18a2.91053 2.91053 0 0 0 2.40729 4.4909c.01227.00019.0246.00257.03687.00257a2.9098 2.9098 0 0 0 2.44867-1.33246l6.39855-9.90717 6.91034-10.69946 1.72968.00653 3.83667.01459 3.83667.01465 3.83661.01458 3.83661.01459 3.79217.01441h.01136c.0119 0 .02288-.00336.03479-.00348a2.9115 2.9115 0 0 0-.02344-5.82245l-1.20581-.00458-3.83661-.01459-3.83661-.01458-3.83667-.01459-3.83667-.01459-.58527-.00226 1.91962-2.97216 6.69592-10.36762 1.76654.07031 3.77582.15027 3.77576.15027 3.77582.15027 3.77575.15027 3.77576.15027 3.77582.15033 3.77575.15026 3.77582.15027 3.7757.15027 3.581.14252.079.26587 1.53144 5.1532 1.53143 5.15319 1.53149 5.15326.22406.754-.99707.96918-6.81457 6.62366-6.7378 6.54907c-.03521.03424-.05963.07483-.09277.11041a2.8934 2.8934 0 0 0 1.66858 4.84741 2.93685 2.93685 0 0 0 .45416.04425 2.90478 2.90478 0 0 0 2.03-.82379l3.02991-2.94507 6.81463-6.62371 2.51831-2.44782.96552 3.24884 1.53143 5.1532 1.5315 5.1532 1.53143 5.15326.4494 1.51214a2.92649 2.92649 0 0 0 2.7901 2.0846 2.91558 2.91558 0 0 0 2.79464-3.74349l-.8468-2.84943-1.5315-5.1532-1.53143-5.15326-1.53143-5.1532-1.43726-4.83606 6.39514-6.21594 6.81458-6.62372 6.81457-6.62371.11713-.11384 2.74091 2.30994 2.78881 2.35034 2.78882 2.35034 2.78882 2.35041 2.78882 2.35034 1.02661.86517-6.601 20.12805-10.44641 31.854-1.99445 6.08154a2.91247 2.91247 0 1 0 5.53461 1.816l8.80639-26.85315 9.50354-28.97882 2.53711 2.13818 2.78888 2.35041 2.78882 2.35034 2.78882 2.35034 2.78882 2.35034 2.78882 2.35034 2.78881 2.35035 2.78882 2.35034 2.78882 2.3504.5755.485a2.82582 2.82582 0 0 0 2.82074.51123 2.87189 2.87189 0 0 0 1.28473-.8617 2.953 2.953 0 0 0-.35046-4.10547l-1.8498-1.559-2.78888-2.3504-2.78881-2.35034-2.78882-2.35034-2.78882-2.35034-2.78882-2.35035-2.78882-2.35034-2.78882-2.35034-2.78881-2.35034-2.78882-2.3504-.271-.22834 2.96521-9.04181a2.91247 2.91247 0 0 0-5.5346-1.816l-.346 1.05487-1.88745 5.75531-.50385-.42468-2.78882-2.35034-2.78882-2.35034-2.78881-2.35034-2.78882-2.35035-1.0224-.86163 2.49817-2.42822 2.47168-2.40247a2.913 2.913 0 0 0-4.05994-4.17828l-5.38684 5.236-.07829-.06609-2.78882-2.35034-2.78882-2.35034-2.78881-2.35035-2.78882-2.35034-2.78882-2.35034-2.78882-2.35034-2.78888-2.35034-.15326-.12921a2.90993 2.90993 0 0 0-3.57348-.13037 2.83554 2.83554 0 0 0-1.1952 2.66424 2.90284 2.90284 0 0 0 1.01374 1.92206l1.42755 1.20312 2.78882 2.35035 2.78882 2.35034 2.78881 2.35034 2.78882 2.35034 2.78882 2.35034 2.78882 2.35034 1.14874.96814-2.80688 2.72828-6.81464 6.62371-6.81445 6.6236-1.10193 1.071-1.28381-4.31995-1.5315-5.15328-.64728-2.1781 1.596.06354 3.7757.15027 1.11688.04443c.0387.0011.07965.00226.11835.00226a2.913 2.913 0 0 0 .11383-5.82367l-2.55506-.10169-3.77582-.15027-2.14337-.08532-.66205-2.22791-1.53149-5.1532-1.53143-5.15319-1.5315-5.1532-1.36895-4.60645a2.93676 2.93676 0 0 0-3.34717-2.01477c-.092.01776-.18408.025-.27582.05194a2.91438 2.91438 0 0 0-1.96167 3.62189l.23486.79034 1.5315 5.1532 1.53143 5.15326 1.53149 5.1532 1.23035 4.14014-3.03348-.1207-3.77581-.15027-3.77576-.15027-3.77576-.15027-3.77575-.15027-3.77582-.15026-3.77576-.15027-3.77576-.15027-3.77581-.15027-.66492-.02649 2.21606-3.43121 8.75647-13.558a2.91131 2.91131 0 0 0-.86706-4.027l-.00067-.00037a2.91215 2.91215 0 0 0-4.02515.86633l-.6767 1.04779-12.16357 18.83342-.126-.005-3.77573-.15032-3.77582-.15032-3.77576-.15027-3.77582-.15027-3.77569-.15027-3.77582-.15027-9.07489-.3611a2.95859 2.95859 0 0 0-3.02673 2.79467 2.9134 2.9134 0 0 0 2.79461 3.02674l6.73725.26812 3.77581.15027 3.77576.15027 3.77576.15027 3.77576.15027 3.77581.15027 2.80011.11145-8.77228 13.58252-.17059-.00067-3.83667-.01459-3.83667-.01459-3.83661-.01459-3.83661-.01458-3.83667-.01459-22.70861-.08637h-.01136a2.913 2.913 0 0 0-.01141 5.82593l20.12231.07654z"/><path fill="url(#linear-gradient-10)" d="M721.87492 110.379a2.87392 2.87392 0 0 0-.10236-.37842 2.949 2.949 0 0 0-3.76184-1.68066l-3.49841 1.33752-4.6388 1.7735-4.63879 1.7735-.715.27338-.95532-5.11707-1.12939-6.0495-.89844-4.81256a2.94622 2.94622 0 0 0-3.39771-2.32922c-.07495.014-.14221.04358-.21466.063a2.90354 2.90354 0 0 0-2.1134 3.33587l.18128.97113 1.12939 6.0495 1.12939 6.0495.73816 3.95386-3.0318 1.15906-4.63879 1.7735-4.63879 1.77349-1.71955.65748.1369-5.69654.21759-9.05218.2176-9.05207.21752-9.05212.20252-8.4245a2.95009 2.95009 0 0 0-2.77551-2.974c-.02283-.0011-.04395-.00781-.0669-.00836a2.93943 2.93943 0 0 0-2.98352 2.84125l-.10077 4.19159-.21753 9.05206-.21759 9.05212-.21759 9.05213-.21759 9.05206-.07849 3.26788-1.67456.6402-4.63879 1.7735-4.6388 1.7735-4.63879 1.7735-4.4375 1.69653c-.07672.02942-.14264.07343-.21539.10846a2.89795 2.89795 0 0 0-1.53132 3.41351c.02295.08.03467.16077.06488.23987a2.91432 2.91432 0 0 0 2.72181 1.87293c.03753 0 .07562-.00873.11328-.0102a2.91252 2.91252 0 0 0 .92676-.181l3.61822-1.38348 4.63892-1.77368 4.63885-1.77374 4.6388-1.77369.26226-.10022-.20526 8.54035-.21759 9.05212-.21753 9.05213-.21759 9.05206-.08258 3.43524a2.92677 2.92677 0 0 0 2.84241 2.98352H680.9a2.91417 2.91417 0 0 0 2.91071-2.84241l.19842-8.25433.21753-9.05218.21759-9.05207.21759-9.05212.14692-6.11188 3.13208-1.19757 4.63891-1.77374 4.6388-1.77368 2.85736-1.09253.43371 2.32336 1.1294 6.0495 1.12939 6.0495 1.1294 6.0495 1.12939 6.04956 1.1294 6.04944 1.12939 6.0495.66589 3.56695a2.90525 2.90525 0 0 0 5.75348-.74261 2.85813 2.85813 0 0 0-.02765-.327l-1.07818-5.77508-1.1294-6.0495-1.12939-6.0495-1.1294-6.04944-1.12939-6.04956-1.12939-6.04944-1.1294-6.0495-.21661-1.16034.88977-.34021 4.63891-1.77368 4.6388-1.77368 4.31677-1.65057a3.02855 3.02855 0 0 0 1.78412-3.38227z"/><path fill="url(#linear-gradient-11)" d="M700.15745 185.70573l-.43024-.25445-3.03741-1.79628-3.03735-1.79632-3.03736-1.79633-3.03729-1.79635-3.03742-1.79633-3.03735-1.79633-3.03735-1.79626-3.03736-1.79633-3.03735-1.79638-3.03735-1.79633-3.03736-1.79626-3.03735-1.79633-3.03735-1.79632-.40363-.23871a2.914 2.914 0 0 0-2.96759 5.01574l.9707.5741 3.03736 1.79633 3.03735 1.79632 3.03735 1.79627 3.03736 1.79632 3.03735 1.79633 3.03736 1.79632 3.03735 1.79633 3.03735 1.79633 3.03742 1.79632 3.03735 1.79633 3.03735 1.79632 3.0373 1.79633 2.90057 1.71539c.04675.02759.098.03662.14563.06134a2.90515 2.90515 0 0 0 2.822-5.07709z"/><path fill="url(#linear-gradient-12)" d="M598.15116 180.56938l3.68409.3548 3.684.3548 3.684.35479 3.684.3548 3.684.3548 3.68408.35486 1.8324.17645a2.97967 2.97967 0 0 0 .28448.01367 2.93122 2.93122 0 0 0 2.89472-2.63306c.00525-.05438-.00287-.10632-.00067-.16021a2.89956 2.89956 0 0 0-2.49958-2.99524c-.04065-.00568-.07794-.01978-.11914-.02374l-3.55957-.34284-3.684-.3548-3.684-.35479-3.684-.35486-3.684-.3548-3.684-.3548-3.684-.35479-3.684-.3548-2.2052-.2124-.6023-2.09632-1.50049-5.22229-1.50049-5.22229-1.50048-5.22229-.92737-3.22766a2.91249 2.91249 0 0 0-5.59839 1.60669l1.33124 4.6333 1.50048 5.22229 1.50049 5.22229 1.06488 3.706-2.61444-.25177-3.684-.3548-3.684-.35486-3.684-.3548-3.68408-.3548-3.39423-.3269a2.83827 2.83827 0 0 0-.30328.0022 2.90542 2.90542 0 0 0-.25653 5.79645l1.43738.13842 3.684.3548 3.684.3548 3.684.35486 3.684.35479 3.684.3548 3.17657.30591.20667.71942 1.50049 5.22223 1.50041 5.22231.2868.99817a2.91216 2.91216 0 1 0 5.59833-1.60669l-.69068-2.40375-1.50048-5.22229-.66919-2.3291 1.64306.1582z"/><path fill="url(#linear-gradient-13)" d="M680.0557 201.84538l-2.387-1.49054-3.0022-1.87463-3.00219-1.8747-3.0022-1.87469-3.00226-1.8747-3.0022-1.87469-3.00219-1.87469-3.00226-1.8747-3.0022-1.87463-3.0022-1.8747-.97039-.606.29834-6.46289.44073-9.54968.4408-9.54968.32495-7.04a2.94823 2.94823 0 0 0-2.77643-3.04492 2.75129 2.75129 0 0 0-.74188.06915 2.93176 2.93176 0 0 0-2.3031 2.70722l-.12488 2.7052-.44074 9.54968-.44079 9.54968-.34735 7.52545-2.36585-1.47729-3.00219-1.8747-3.00226-1.87469-3.0022-1.8747-3.0022-1.87469-3.00219-1.8747-3.0022-1.87463-3.0022-1.87469-1.05151-.65662a2.91359 2.91359 0 0 0-3.08594 4.94293l1.73 1.08026 3.00226 1.8747 3.00213 1.87469 3.00226 1.87464 3.0022 1.87469 3.0022 1.8747 3.00219 1.87469 3.00226 1.8747L642.237 185.1l1.46283.91345-.226 4.89649-.44074 9.54962-.44079 9.54968-.3733 8.08734a2.95293 2.95293 0 0 0 2.77643 3.04492c.04554.00232.09107.00232.13654.00232.0542 0 .10516-.01257.15869-.0155a2.90691 2.90691 0 0 0 2.74976-2.76318l.17321-3.75257.4408-9.54968.44073-9.54962.27509-5.959 1.87335 1.1698 3.0022 1.8747 3.0022 1.87463 3.00219 1.8747 3.00226 1.87469 3.0022 1.8747 3.0022 1.87469 3.00219 1.8747 3.0022 1.87463 1.70856 1.06689a2.90688 2.90688 0 0 0 1.46045.436c.02673.00073.05346.00549.0802.00549a2.92637 2.92637 0 0 0 1.54522-5.3844z"/><path fill="url(#linear-gradient-14)" d="M632.92277 188.72862a2.90574 2.90574 0 0 0-3.13159.14038l-1.1344.80219-5.62872 3.98028-5.62873 3.98035-5.62878 3.98041-5.62879 3.98035-1.30926.92584-2.6709-.62055-3.48041-.80865-3.4804-.80866-3.48047-.80859-3.48047-.80866-3.48041-.80865-3.48044-.80866-3.48047-.8086-3.4804-.80865-3.48047-.80866-3.48041-.80859-3.48041-.80866-3.48047-.80865-3.4804-.8086-3.48047-.80865-3.48047-.80865-3.48041-.8086-2.78662-.64746a2.96158 2.96158 0 0 0-.73926-.05987 2.9081 2.9081 0 0 0-.58069 5.73559l1.67621.38947 3.48041.80859 3.48047.80865 3.48041.80866 3.48046.80859 3.48041.80866 3.48041.80865 3.48047.8086 3.48041.80865 3.48046.80866 3.48041.80859 3.48047.80865 3.48041.80866 3.48047.80865 3.48041.8086 3.48046.80865 2.21393.51435-3.5805 2.53192-5.62879 3.98034-5.62878 3.98041-.18128.12818a2.90552 2.90552 0 0 0 1.5979 5.281c.029.00086.05713.01013.08619.01013a2.89081 2.89081 0 0 0 1.6795-.53479l3.38751-2.39544 5.62873-3.98035 5.62872-3.98035 4.60522-3.25653.63294.147 3.48041.80865 3.4804.80859 3.48047.80866 3.48047.80865 3.48041.8086 3.48041.80865.63708.148a3.01739 3.01739 0 0 0 .66223.07514 2.92 2.92 0 0 0 .65772-5.75086l-3.00708-.69867-3.48041-.80859-3.48041-.80866-3.48047-.80865-3.4804-.80859-.176-.0409.28455-.20123 5.62878-3.98035 5.62875-3.98024 5.62879-3.98035 3.55688-2.51526a2.91334 2.91334 0 0 0 .69641-4.05994 2.88289 2.88289 0 0 0-.92831-.83683z"/></svg>