<svg xmlns="http://www.w3.org/2000/svg" role="img" viewBox="-0.97 -0.91 47.38 10.51"><title>EPANET logo</title><g transform="translate(-1.172 8.725)"><path d="M6.91992 0H1.17187v-8.7246h5.74805v1.03124H2.33203v2.39063h4.5879v1.03125h-4.5879v3.24023h4.5879z"/><path d="M14.4668-6.0879q0 .58009-.20508 1.07813-.19922.4922-.5625.85547-.45117.45118-1.0664.6797-.61524.22265-1.55274.22265H9.91992V0H8.75977v-8.7246h2.36718q.78516 0 1.33008.13476.54492.1289.9668.41015.49804.33399.76758.83203.27539.49805.27539 1.25977zm-1.20703.0293q0-.45117-.1582-.78515-.15821-.33398-.48048-.54492-.28125-.18164-.64453-.25781-.35742-.08204-.9082-.08204H9.91992v3.48633h.97852q.70312 0 1.14258-.12304.43945-.12891.71484-.4043.27539-.28125.38672-.5918.11719-.31054.11719-.69726z"/><path d="M22.58203 0H21.3457l-.85547-2.43164H16.7168L15.86133 0h-1.17774l3.17578-8.7246h1.54688zm-2.44922-3.42773l-1.5293-4.2832-1.53515 4.2832z"/><path d="M30.5625 0h-1.43555l-4.13672-7.80469V0h-1.08398v-8.7246h1.79883l3.77344 7.125v-7.125h1.08398z"/><path d="M38.63086 0H32.8828v-8.7246h5.74805v1.03124h-4.5879v2.39063h4.5879v1.03125h-4.5879v3.24023h4.5879z"/><path d="M46.69336-7.69336h-3.11719V0h-1.16015v-7.69336h-3.1172V-8.7246h7.39454z"/></g></svg>