<svg xmlns="http://www.w3.org/2000/svg" role="img" viewBox="-24.41 -39.16 424.58 308.08"><title>EuroCrops logo</title><path fill="#3070b3" stroke-width="5.591" d="M140.54052-31v173.32822h44.72985V-31H392.146v212.46685h-39.13862V8.13863H308.2775v173.32822h-39.13863V8.13863h-44.72985v173.32822H101.4019V8.13863H62.26327v173.32822H23.12462V8.13863H-16.014V-31z"/><g transform="translate(-48.543 -91.011) scale(1.52913)"><path d="M73.1724 222.07999H54.01226v-29.08203h19.16016v3.4375H57.87944v7.96875h15.29297v3.4375H57.87944v10.80078h15.29297z"/><path d="M97.09819 222.07999h-3.67188v-2.42188q-1.85546 1.46485-3.55468 2.2461-1.69922.78125-3.75.78125-3.4375 0-5.35156-2.08985-1.91407-2.10937-1.91407-6.17187v-14.16016h3.67188v12.42188q0 1.66015.15625 2.85156.15625 1.17187.66406 2.01172.52734.85937 1.36719 1.25.83984.39062 2.4414.39062 1.42579 0 3.10547-.74219 1.69922-.74218 3.16407-1.89453v-16.28906h3.67187z"/><path d="M117.93803 204.26749h-.19531q-.82031-.19532-1.60156-.27344-.76172-.0977-1.81641-.0977-1.69922 0-3.28125.76172-1.58203.74219-3.04687 1.9336v15.48828h-3.67188v-21.81641h3.67188v3.22266q2.1875-1.75782 3.84765-2.48047 1.67969-.74219 3.41797-.74219.95703 0 1.38672.0586.42969.0391 1.28906.17579z"/><path d="M139.98882 211.18155q0 5.33203-2.73438 8.41797-2.73437 3.08594-7.32422 3.08594-4.6289 0-7.36328-3.08594-2.71484-3.08594-2.71484-8.41797 0-5.33203 2.71484-8.41797 2.73438-3.10547 7.36328-3.10547 4.58985 0 7.32422 3.10547 2.73438 3.08594 2.73438 8.41797zm-3.78907 0q0-4.23828-1.66015-6.28906-1.66016-2.07032-4.60938-2.07032-2.98828 0-4.64844 2.07032-1.64062 2.05078-1.64062 6.28906 0 4.10156 1.66016 6.23047 1.66015 2.10937 4.6289 2.10937 2.92969 0 4.58985-2.08984 1.67968-2.10938 1.67968-6.25z"/><path d="M168.42632 219.97061q-1.07422.46875-1.95313.87891-.85937.41015-2.26562.85937-1.19141.3711-2.59766.625-1.38672.27344-3.06641.27344-3.16406 0-5.76172-.87891-2.57812-.89843-4.49218-2.79296-1.875-1.85547-2.92969-4.70704-1.05469-2.87109-1.05469-6.66015 0-3.59375 1.01563-6.42578 1.01562-2.83203 2.92968-4.78516 1.85547-1.89453 4.47266-2.89062 2.63672-.9961 5.83984-.9961 2.34375 0 4.66797.56641 2.34375.5664 5.19532 1.99219v4.58984h-.29297q-2.40235-2.01172-4.76563-2.92969-2.36328-.91797-5.05859-.91797-2.20703 0-3.98438.72266-1.75781.70312-3.14453 2.20703-1.34765 1.46484-2.10937 3.71094-.74219 2.22656-.74219 5.15625 0 3.0664.82031 5.27344.83985 2.20703 2.14844 3.59375 1.36719 1.44531 3.18359 2.14843 1.83594.6836 3.86719.6836 2.79297 0 5.23438-.95703 2.4414-.95704 4.57031-2.8711h.27344z"/><path d="M187.21538 204.26749h-.19531q-.82032-.19532-1.60157-.27344-.76172-.0977-1.8164-.0977-1.69922 0-3.28125.76172-1.58203.74219-3.04688 1.9336v15.48828h-3.67187v-21.81641h3.67187v3.22266q2.1875-1.75782 3.84766-2.48047 1.67969-.74219 3.41797-.74219.95703 0 1.38672.0586.42968.0391 1.28906.17579z"/><path d="M209.26616 211.18155q0 5.33203-2.73438 8.41797-2.73437 3.08594-7.32421 3.08594-4.62891 0-7.36329-3.08594-2.71484-3.08594-2.71484-8.41797 0-5.33203 2.71484-8.41797 2.73438-3.10547 7.36329-3.10547 4.58984 0 7.32421 3.10547 2.73438 3.08594 2.73438 8.41797zm-3.78906 0q0-4.23828-1.66016-6.28906-1.66016-2.07032-4.60937-2.07032-2.98829 0-4.64844 2.07032-1.64063 2.05078-1.64063 6.28906 0 4.10156 1.66016 6.23047 1.66016 2.10937 4.62891 2.10937 2.92968 0 4.58984-2.08984 1.67969-2.10938 1.67969-6.25z"/><path d="M234.14897 210.90811q0 2.65625-.76172 4.86328-.76172 2.1875-2.14843 3.71094-1.28907 1.44531-3.04688 2.24609-1.73828.78125-3.69141.78125-1.69921 0-3.08593-.37109-1.36719-.37109-2.79297-1.15234v9.14062h-3.67188v-29.86328h3.67188v2.28516q1.46484-1.23047 3.28125-2.05078 1.83594-.83985 3.90625-.83985 3.94531 0 6.13281 2.98828 2.20703 2.96875 2.20703 8.26172zm-3.78906.0977q0-3.94531-1.34766-5.89844-1.34765-1.95312-4.14062-1.95312-1.58203 0-3.1836.68359-1.60156.68359-3.0664 1.79687V217.998q1.5625.70312 2.67578.95703 1.13281.2539 2.55859.2539 3.06641 0 4.78516-2.07031 1.71875-2.07031 1.71875-6.13281z"/><path d="M255.45757 215.79092q0 2.98829-2.48047 4.90235-2.46094 1.91406-6.73828 1.91406-2.42188 0-4.45313-.56641-2.01172-.58593-3.37891-1.26953v-4.12109h.19532q1.73828 1.30859 3.86718 2.08984 2.12891.76172 4.08204.76172 2.42187 0 3.78906-.78125t1.36719-2.46094q0-1.28906-.74219-1.95312-.74219-.66406-2.85156-1.13281-.78125-.17578-2.05079-.41016-1.25-.23437-2.28515-.50781-2.8711-.76172-4.08203-2.22656-1.19141-1.48438-1.19141-3.63282 0-1.34765.54688-2.53906.5664-1.19141 1.69921-2.12891 1.09375-.91796 2.77344-1.44531 1.69922-.54687 3.78906-.54687 1.95313 0 3.94532.48828 2.01172.46875 3.33984 1.15234v3.92578h-.19531q-1.40625-1.03515-3.41797-1.73828-2.01172-.72265-3.94531-.72265-2.01172 0-3.39844.78125-1.38672.76171-1.38672 2.28515 0 1.34766.83984 2.03125.82032.6836 2.65625 1.11328 1.01563.23438 2.26563.46875 1.26953.23438 2.10937.42969 2.5586.58594 3.94532 2.01172 1.38672 1.44531 1.38672 3.82812z"/></g></svg>