<svg xmlns="http://www.w3.org/2000/svg" role="img" viewBox="-4.01 -4.01 195.26 79.76"><title>FAIR logo</title><path d="M187.4 67.801l-8.9 4.2-8.7-19a30.586 30.586 0 0 0-2.591-4.574q-2.506-3.604-5.709-5.526-4.355-2.614-10.836-2.951a37.847 37.847 0 0 0-1.964-.049h-1.5v30.9h-9.5v-69.8q5.3-.5 10.15-.75a187.94 187.94 0 0 1 6.316-.215A226.267 226.267 0 0 1 158.2.001q12.8 0 19.25 5.2a17.414 17.414 0 0 1 4.63 5.534q1.82 3.509 1.82 7.866a19.88 19.88 0 0 1-.651 5.22 14.672 14.672 0 0 1-3.699 6.53q-4.35 4.45-12.55 6.65a23.656 23.656 0 0 1 3.429 1.862 20.427 20.427 0 0 1 1.371.988q1.969 1.546 3.805 4.06a29.29 29.29 0 0 1 .245.34q1.95 2.75 3.95 7.15l7.6 16.4zm-177.9 3H0v-70h41.5v8.2h-32v21.4h26.7v7.8H9.5v32.6zm73.6-47.8v-4.2h8.2v39.4a12.15 12.15 0 0 0 .102 1.635q.332 2.434 1.748 3.315 1.85 1.15 4.05 1.15l-1.9 7a17.722 17.722 0 0 1-4.265-.473q-5.637-1.4-7.232-6.947a13.59 13.59 0 0 1-.103-.38 21.307 21.307 0 0 1-3.11 3.426 28.498 28.498 0 0 1-3.14 2.424q-3.95 2.65-10.05 2.65-6.5 0-11.8-3.3a22.947 22.947 0 0 1-7.413-7.527 27.923 27.923 0 0 1-1.037-1.823 27.228 27.228 0 0 1-2.63-7.943 36.644 36.644 0 0 1-.52-6.307 33.142 33.142 0 0 1 .997-8.269 27.968 27.968 0 0 1 2.153-5.731q3.15-6.2 8.7-9.85a22.297 22.297 0 0 1 11.195-3.607 27.388 27.388 0 0 1 1.555-.043 22.584 22.584 0 0 1 4.794.49 18.703 18.703 0 0 1 3.356 1.06 26.002 26.002 0 0 1 4.287 2.293 22.103 22.103 0 0 1 2.063 1.557zm36.6 47.8h-9.5v-70h9.5v70zm-37.4-13.3v-27.9q-2.7-1.9-5.95-3.05t-6.85-1.15a15.924 15.924 0 0 0-4.971.753 14.024 14.024 0 0 0-3.479 1.697 16.301 16.301 0 0 0-5.019 5.423 19.962 19.962 0 0 0-.731 1.377 20.663 20.663 0 0 0-1.753 5.676 27.678 27.678 0 0 0-.347 4.474q0 5.6 2.1 9.95a17.602 17.602 0 0 0 3.106 4.546 15.697 15.697 0 0 0 2.694 2.254q3.7 2.45 8.3 2.45 3.8 0 7.2-1.85 3.4-1.85 5.7-4.65zm64.9-49.1v23.5h11a26.489 26.489 0 0 0 4.923-.432q3.929-.743 6.777-2.768 4.5-3.2 4.5-9.2a9.811 9.811 0 0 0-3.273-7.465 13.272 13.272 0 0 0-.927-.785 13.923 13.923 0 0 0-4.364-2.222q-1.929-.611-4.259-.859a31.944 31.944 0 0 0-3.377-.169q-3.174 0-5.738.087a118.974 118.974 0 0 0-.362.013q-2.7.1-4.9.3z" vector-effect="non-scaling-stroke" fill="#000" fill-rule="evenodd" stroke="#000" stroke-linecap="round" stroke-width=".25mm"/></svg>