<svg xmlns="http://www.w3.org/2000/svg" role="img" viewBox="-0.77 -0.70 36.53 10.40"><title>FATES logo</title><g transform="translate(-1.172 8.883)"><path d="M6.74414-7.69336h-4.4121v2.46094h3.791v1.03125h-3.791V0H1.17186v-8.7246h5.57227z"/><path d="M14.36133 0H13.125l-.85547-2.43164H8.4961L7.64062 0H6.4629l3.17578-8.7246h1.54688zM11.9121-3.42773l-1.5293-4.2832-1.53515 4.2832z"/><path d="M21.20508-7.69336h-3.11719V0h-1.16016v-7.69336h-3.11718V-8.7246h7.39453z"/><path d="M28.125 0h-5.74805v-8.7246H28.125v1.03124h-4.5879v2.39063h4.5879v1.03125h-4.5879v3.24023h4.5879z"/><path d="M36.30469-2.49023q0 .50976-.24024 1.0078-.23437.49806-.6621.84376-.46876.375-1.0957.58594-.6211.21093-1.5.21093-.94337 0-1.69923-.17578-.75-.17578-1.5293-.52148V-1.9922h.08204q.6621.55078 1.5293.84961.86718.29883 1.6289.29883 1.07812 0 1.67578-.4043.60351-.4043.60351-1.07812 0-.58008-.2871-.85547-.28125-.2754-.86133-.42774-.43945-.11718-.95508-.19335-.50977-.07618-1.08399-.19336Q30.75-4.2422 30.1875-4.834q-.55664-.59765-.55664-1.55273 0-1.0957.92578-1.79297.92578-.70312 2.34961-.70312.91992 0 1.6875.17578t1.35938.4336v1.37109h-.08204q-.49804-.42188-1.3125-.69727-.80859-.28125-1.6582-.28125-.93164 0-1.5.38672-.5625.38672-.5625.9961 0 .54491.28125.85546t.99024.47461q.375.08203 1.0664.19922t1.17188.24023q.97265.25782 1.46484.7793.49219.52149.49219 1.45899z"/></g></svg>