<svg xmlns="http://www.w3.org/2000/svg" role="img" viewBox="-1.98 -1.98 77.70 96.20"><title>Ferret logo</title><defs><style>.cls-2{fill:#fff}</style></defs><g id="Digital_Logo" data-name="Digital Logo"><g id="For_Print" data-name="For Print"><path id="Water" fill="#0085ca" d="M70.17 20.61c-5.27 7.93-14 19-24.19 22.69l-1.26.53a2.86 2.86 0 0 0 .77.23h1.2c2.58-.1 6.3-1.19 7.06 1.43A30.55 30.55 0 0 0 39 49.41c-4.61 2.53-10.45 4.81-14.27 1.26 3.06-.41 8.71-2.26 10.7-4.07C19.25 46.38 12.06 36.3 7 30.79c-1.82-2.11-3.69-3.88-5.6-4.06a37 37 0 1 0 68.74-6.12z"/><path id="Bird" d="M7 30.77c5 5.51 12.22 15.58 28.42 15.81-2 1.8-7.64 3.65-10.7 4.07C28.53 54.22 34.41 52 39 49.39a30.46 30.46 0 0 1 14.69-3.87C53 42.9 49.23 44 46.65 44.08h-1.2a2.63 2.63 0 0 1-.77-.23l1.26-.52c10.16-3.79 18.91-14.79 24.19-22.78a35.57 35.57 0 0 0-3.78-6c-9.52 1.74-12.6 15.68-18 22.59-7.16 10.08-14 7.85-21.27 1.13S14.44 19.61 6.77 15.54a37.06 37.06 0 0 0-5.39 11.18c1.96.19 3.83 1.96 5.62 4.05z" class="cls-2"/><path id="Sky" fill="#003087" d="M27.1 38.26c7.22 6.72 14.11 8.92 21.28-1.14 5.45-6.91 8.5-20.85 18-22.59a37 37 0 0 0-59.58 1c7.69 4.08 13.08 16.12 20.3 22.73z"/><path id="Wordmark" d="M26.45 24h1.94v-7.75a2.06 2.06 0 0 0-2.25-1.87h-4V24h1.95v-7.75h1.78c.38 0 .59.26.59.7zm11.25 0v-7.75a2.07 2.07 0 0 1 1.94-1.87h2.41A1.87 1.87 0 0 1 44 16.17V24h-1.95v-3.62h-2.41V24zm4.35-7a.69.69 0 0 0-.68-.7h-1a.72.72 0 0 0-.66.7v1.58h2.39zm3.43 7v-7.75a2.08 2.08 0 0 1 2-1.87h2.32a1.87 1.87 0 0 1 1.94 1.79V24H49.8v-3.62h-2.37V24zm4.32-7a.69.69 0 0 0-.68-.7h-1a.71.71 0 0 0-.64.7v1.58h2.32zm-15.58-2.62h-2.38a1.93 1.93 0 0 0-1.95 1.85v6A2.19 2.19 0 0 0 31.84 24h2.38a2.24 2.24 0 0 0 1.94-1.8v-6a1.89 1.89 0 0 0-1.93-1.85zm0 7.2a.63.63 0 0 1-.63.63h-1.11a.62.62 0 0 1-.64-.62v-4.76a.63.63 0 0 1 .63-.63h1.11a.63.63 0 0 1 .64.61v4.77z" class="cls-2"/></g></g><path d="M7.7492 76.4732v15.61194h3.24608v-6.5555h6.86322V82.8145h-6.86322v-3.593h7.83765v-2.7483zm15.95888 6.89339c.38313-.43744.92616-.65767 1.62605-.65767.6456 0 1.18259.20816 1.617.62147.43744.4133.67879 1.01967.72706 1.81913h-4.69716c.09955-.75119.3409-1.34248.72705-1.78293zm4.22654-2.60953c-.7723-.359-1.63813-.54001-2.60049-.54001-1.617 0-2.93534.53397-3.94899 1.60192-1.01666 1.06795-1.52348 2.6035-1.52348 4.60364 0 2.13589.56414 3.67747 1.68639 4.62475 1.12527.94728 2.42249 1.42091 3.89469 1.42091 1.77991 0 3.16764-.56414 4.15715-1.68639.63654-.70895.99253-1.40583 1.07096-2.09064h-3.08618c-.16291.3409-.34995.60638-.56415.79643-.38916.35297-.89297.53096-1.51443.53096-.58827 0-1.08906-.1448-1.5084-.43743-.68481-.4646-1.04985-1.27913-1.09208-2.43758h7.91307c.01508-.99856-.0181-1.76181-.09654-2.29277-.13274-.90504-.42839-1.69846-.8809-2.38629-.5008-.77531-1.13734-1.34549-1.90662-1.7075zm-2.3863-.54001zm13.72946.0362c-.03922-.00302-.08748-.00302-.1448-.00302-.90504 0-1.64114.23531-2.20528.70895-.34694.28358-.7542.81152-1.2188 1.5808v-2.01522h-2.88707v11.56038h3.04395v-5.52376c0-.92918.11766-1.61399.34995-2.06048.41934-.7904 1.23387-1.1856 2.44964-1.1856.09352 0 .2142.00302.36202.00905.14782.00905.31676.02112.50984.04224v-3.09524c-.13576-.00905-.22023-.01207-.25945-.0181zm8.45308 0c-.03922-.00302-.08749-.00302-.14481-.00302-.90504 0-1.64114.23531-2.20528.70895-.34693.28358-.7542.81152-1.21879 1.5808v-2.01522H41.2749v11.56038h3.04396v-5.52376c0-.92918.11765-1.61399.34994-2.06048.41934-.7904 1.23388-1.1856 2.44965-1.1856.09352 0 .21419.00302.36201.00905.14783.00905.31677.02112.50984.04224v-3.09524c-.13575-.00905-.22324-.01207-.25944-.0181zm4.96263 3.11334c.38615-.43744.92918-.65767 1.62907-.65767.64258 0 1.18259.20816 1.61701.62147.43442.4133.67576 1.01967.72705 1.81913h-4.70018c.09956-.75119.3409-1.34248.72705-1.78293zm4.22654-2.60953c-.7723-.359-1.63812-.54001-2.59747-.54001-1.62002 0-2.93836.53397-3.952 1.60192-1.01365 1.06795-1.52349 2.6035-1.52349 4.60364 0 2.13589.56414 3.67747 1.6864 4.62475 1.12526.94728 2.42248 1.42091 3.89468 1.42091 1.77991 0 3.16764-.56414 4.15715-1.68639.63655-.70895.99253-1.40583 1.07097-2.09064h-3.08619c-.1629.3409-.34995.60638-.56112.79643-.38917.35297-.896.53096-1.51745.53096-.58828 0-1.08907-.1448-1.50539-.43743-.68783-.4646-1.04984-1.27913-1.0951-2.43758h7.91307c.01508-.99856-.0181-1.76181-.09654-2.29277-.13274-.90504-.42537-1.69846-.87789-2.38629-.5038-.77531-1.14035-1.34549-1.90963-1.7075zm-2.38629-.54001zm6.11807 2.5673h1.61399v7.11663c0 .72101.16894 1.25498.50984 1.60192.5219.54302 1.49633.7904 2.9263.74213l1.42996-.0543v-2.25959c-.09654.00905-.19911.01509-.30168.0181-.10257.00302-.19911.00604-.28962.00604-.61542 0-.98347-.06034-1.10414-.178-.12068-.11463-.18101-.41028-.18101-.88392v-6.10902h1.87645v-2.15399h-1.87645v-3.22194H62.2658v3.22194h-1.614z"/></svg>