<svg xmlns="http://www.w3.org/2000/svg" role="img" viewBox="-13.18 -13.18 685.36 188.86"><title>Fluence Energy (LFESS) logo</title><style>svg {enable-background:new 0 0 659.4 163}</style><style>.st1{fill:#0050b5}</style><path fill="#706f6e" d="M214.4 145.9l-2.4-9.8v-.4h-.7v.4l-2.4 9.8h5.5zm7.1 10c.1.1.1.3 0 .4h-4.3c-.1-.1-.2-.3-.2-.4l-1.5-6.2h-7.7l-1.4 6.2c0 .2-.1.3-.2.4H202c-.1-.1-.1-.3 0-.4l5.4-20.6c1.4-4.5 7.7-4.5 9.1 0l5.4 20.6m25.7-6.1c0 1.8-.7 3.6-2 4.9-1.8 1.5-4.2 2.2-6.6 2-2 0-3.9-.2-5.8-.6-.4 0-.6-.3-.6-.6v-2.9c.1-.1.3-.1.4 0h2l2.3.2h1.7c1 .1 2.1-.2 2.9-.8.6-.6.9-1.4.8-2.2 0-.6-.2-1.1-.5-1.6-.7-.6-1.4-1.2-2.2-1.6l-4.3-2.5c-.9-.5-1.7-1.1-2.3-1.8-.5-.6-.9-1.2-1.2-1.9-.2-.7-.3-1.5-.3-2.3 0-1.1.3-2.3.8-3.3.6-1 1.5-1.8 2.7-2.1 1.5-.6 3.1-.9 4.7-.8 1 0 2.3 0 3.5.2.9.1 1.9.2 2.8.4.3 0 .6.3.6.6v2.8h-.4c-2.4-.2-4.5-.3-6.5-.3s-3.4.8-3.4 2.3c0 .5.2 1 .5 1.4.6.6 1.4 1.1 2.1 1.5l3.9 2.2c1.4.7 2.7 1.7 3.6 3 .6 1.2.9 2.5.8 3.8m8 6c.1.1.1.3 0 .5-.1.1-.3.2-.5.2h-3c-.2 0-.3-.1-.5-.2v-17.7c0-.3.3-.6.6-.6h3.1c.3 0 .6.3.6.6l-.3 17.2zm0-21c0 .2-.1.4-.2.5-.1.1-.3.2-.4.2h-3.7c-.1-.1-.2-.3-.2-.5v-2.9c0-.2.1-.4.2-.5.1-.1.3-.2.5-.2h3.2c.3.1.6.3.6.7v2.7zm15.2 10.8c0-.7-.1-1.5-.4-2.2-.6-1.2-1.7-1.9-3.1-1.9-1 0-1.9.4-2.5 1.1-.7.8-1 1.9-1 3h7zm4.3 2.2c0 .5-.2.8-.7.8h-10.7c0 1.1.3 2.1.9 3 .8.9 1.9 1.3 3 1.2 2 0 3.9 0 6.1-.3.4 0 .6 0 .6.5v2.2c.1.4-.1.8-.5.8-1 .2-2 .4-3 .4h-3.4c-.9 0-1.8-.1-2.7-.4-.9-.3-1.8-.8-2.6-1.3-.8-.7-1.5-1.6-1.9-2.6-.5-1.2-.8-2.5-.8-3.9v-2.4c-.1-2.2.6-4.4 2.1-6.1 1.5-1.5 3.7-2.3 5.8-2.2 1.5 0 2.9.4 4.2 1.1 1.2.7 2.1 1.7 2.7 2.9.6 1.4.9 2.8.9 4.3v2zm27.3 8c0 .2-.1.3-.2.5-.1.1-.3.2-.5.2h-2.9c-.2 0-.4-.1-.5-.2v-11.7c0-.7 0-1.3-.2-1.9-.1-.4-.3-.8-.7-1-.4-.2-.9-.3-1.4-.3-1.1 0-2.1.3-3.1.8.1.8.1 1.6 0 2.3v11.2c0 .2-.1.3-.2.5-.1.1-.3.2-.5.2h-3c-.2 0-.3-.1-.5-.2v-11.7c.1-.7.1-1.3 0-2-.1-.4-.3-.7-.6-.9-.4-.2-.9-.3-1.4-.3-1.1.1-2.1.5-3 1.1v13.3c.1.2.1.3 0 .5-.2.1-.3.1-.5 0h-3.6c-.2 0-.4-.1-.5-.2-.1-.1-.2-.3-.2-.5v-17c0-.4.3-.6.7-.6h2.9c.3 0 .6.2.6.6v.8c.7-.5 1.5-.8 2.2-1.2.8-.3 1.6-.4 2.4-.4 1.4-.1 2.9.4 3.9 1.5l1.7-.8c.5-.2 1.1-.4 1.7-.5.7-.1 1.3-.2 2-.2 1.6-.2 3.3.5 4.3 1.8.9 1.6 1.3 3.3 1.2 5.1l-.1 11.2zm15.1-10.2c0-.7-.1-1.5-.4-2.2-.3-.6-.7-1-1.2-1.4-1.4-.8-3.2-.6-4.3.6-.7.8-1 1.9-1 3h6.9zm4.3 2.2c0 .5 0 .8-.7.8h-10.7c0 1.1.3 2.1.9 3 .7.8 1.8 1.3 3 1.2 2 0 3.9 0 6-.3.4 0 .6 0 .6.5v2.2c.1.4-.2.8-.5.8-1 .2-2 .3-3 .4H314c-.9 0-1.8-.1-2.7-.4-.9-.3-1.8-.8-2.6-1.3-.8-.7-1.5-1.6-1.9-2.6-.5-1.2-.8-2.5-.7-3.9v-2.4c-.1-2.2.6-4.4 2.1-6.1 1.5-1.5 3.6-2.3 5.8-2.2 1.5 0 2.9.3 4.2 1.1 1.2.7 2.1 1.7 2.7 2.9.7 1.4 1.1 2.9 1.1 4.5l-.2 1.8zm18.9 8c0 .2-.1.4-.2.5-.2.1-.3.1-.5 0h-3c-.2 0-.3-.1-.5-.2-.1-.1-.1-.3 0-.5v-10.4c.1-.8.1-1.5 0-2.3-.1-.4-.4-.8-.8-1.1-.7-.4-1.5-.6-2.3-.5-1.4.1-2.7.5-3.9 1.1v13.7c-.2.1-.3.1-.5 0h-3c-.2 0-.4-.1-.5-.2-.1-.1-.1-.3 0-.5v-16.9c0-.4.3-.6.6-.6h2.9c.3 0 .6.2.7.6v.8c.8-.5 1.7-1 2.6-1.2.9-.2 1.8-.3 2.7-.3 1.7-.2 3.5.5 4.5 1.9.9 1.7 1.2 3.6 1 5.5v10.6zm16.7-4.2c0 .9-.3 1.8-.7 2.6-.5.8-1.3 1.4-2.1 1.8-1.1.5-2.3.7-3.5.7h-2.8c-1-.1-2.1-.3-3.1-.5-.4-.1-.6-.4-.6-.8v-2c-.1-.1-.1-.2 0-.3h.4c1.8.2 3.7.3 5.5.3.7.1 1.3-.1 1.9-.4.3-.3.5-.7.5-1.1 0-.3-.1-.6-.3-.9-.3-.3-.7-.6-1.1-.8l-4.5-2.7c-.8-.6-1.4-1.4-1.7-2.3-.5-.8-.8-1.7-.8-2.6 0-3.3 2.1-4.9 6.2-4.9 1.1-.1 2.1-.1 3.2 0 .9.1 1.8.3 2.7.5.4 0 .6.4.6.7v1.9c0 .4 0 .6-.5.6-1.8-.3-3.6-.4-5.4-.4-.6 0-1.2.1-1.7.3-.4.2-.6.6-.5 1.1 0 .2.1.4.2.6.3.3.7.5 1.1.8l4.3 2.6c.7.4 1.4 1 2 1.6.4.5.7 1 .9 1.6.1.6.1 1.1 0 1.7m21.1 1v-3.9h-2.1c-.8 0-1.5.1-2.2.3-.5.2-.9.5-1.1.9-.2.5-.3 1-.3 1.6-.1.6.1 1.2.5 1.6.5.3 1.2.5 1.8.4 1.1.1 2.3-.2 3.4-.9m4.3 3.6c.1.2.1.3 0 .5-.2.1-.3.1-.5 0h-2.8c-.4 0-.7-.3-.7-.6v-.5c-1.4.9-3 1.4-4.7 1.4-1.4 0-2.7-.4-3.9-1.2-1.2-1.1-1.8-2.6-1.6-4.2 0-1.1.2-2.2.8-3.1.6-.9 1.5-1.6 2.6-1.9 1.5-.5 3-.7 4.6-.7h2.1V144c.1-.8-.2-1.5-.7-2.1-.7-.5-1.6-.7-2.4-.6-1.8 0-3.6 0-5.4.2-.4 0-.6 0-.6-.5v-2.1c0-.4.2-.6.6-.7 1.8-.3 3.6-.4 5.4-.4 1.3 0 2.6.2 3.9.7 1 .4 1.9 1.2 2.4 2.1.6 1.1.9 2.3.8 3.5l.1 11.8zm19.4-.1c.1.2.1.3 0 .5-.2.1-.3.1-.5 0h-3c-.2 0-.4-.1-.5-.2-.1-.1-.1-.3 0-.5v-10.4c0-.8-.1-1.5-.2-2.3-.1-.4-.3-.8-.7-1.1-.7-.4-1.5-.6-2.3-.5-1.4.1-2.7.5-3.9 1.1v13.2c0 .4-.3.7-.7.7h-3c-.2 0-.3-.1-.5-.2-.1-.2-.1-.3 0-.5v-17.1c0-.3.3-.6.7-.6h2.9c.2-.1.3-.1.5 0 .1.1.1.3 0 .5v.7c1.5-1.1 3.4-1.7 5.3-1.6 1.7-.2 3.4.5 4.5 1.9.9 1.6 1.3 3.5 1.2 5.4l.2 11zm14.6-3v-11.6c-1-.2-2.1-.2-3.1-.2-1.1-.1-2.1.4-2.8 1.2-.5 1.1-.8 2.3-.7 3.5v2.5c-.1 1.2.2 2.4.7 3.5.7.8 1.7 1.3 2.8 1.2 1 .1 2.1 0 3.1-.1m4.3 2c.1.2.1.4 0 .5-.2.2-.5.3-.8.3-1.1.3-2.2.5-3.3.7-1.1.1-2.2.1-3.3 0-2.2.1-4.3-.7-5.8-2.2-1.4-1.7-2.1-3.9-2-6v-2.5c0-1.5.3-3 .9-4.4.5-1.2 1.5-2.2 2.6-2.8 1.3-.7 2.8-1 4.3-1 1 0 2.1 0 3.2.2v-5.4c0-.3.3-.6.7-.7h3c.4 0 .6.3.7.7l-.2 22.6zm24-8.9l-2.4-9.8c0-.1-.1-.3-.2-.4h-.7v.4l-2.4 9.8h5.7zm7.1 10c0 .3-.3.6-.6.6h-3.9c-.1-.1-.2-.3-.2-.4l-1.5-6.2h-7.7L437 156c0 .2-.1.3-.2.4h-3.9c-.1.1-.3.1-.4 0v-.4l5.4-20.6c1.4-4.5 7.7-4.5 9.1 0l5.4 20.6m16.8-.4c0 .3-.2.7-.6.7h-2.5l-1.6.4h-2.1c-1.3 0-2.6-.2-3.9-.6-1.1-.3-2-1-2.6-2-.7-1.3-1-2.7-1-4.1v-11.6c-.1-1.5.3-2.9 1-4.2.6-1 1.5-1.7 2.6-2 1.2-.4 2.5-.6 3.9-.5h3.9c.8 0 1.6 0 2.4.3.2 0 .4.1.5.2.1.2.1.3 0 .5v2.5c-.1.2-.3.2-.5.2h-6.9c-.7-.1-1.4.1-2 .6-.5.6-.7 1.4-.6 2.2v3.6h8.9c.2-.1.3-.1.5 0 .1.1.1.3 0 .5v2.8c.1.2.1.3 0 .5h-9.4v4.3c-.1.8.1 1.5.6 2.2.6.5 1.3.7 2 .6h6.5c.4 0 .6.3.6.7l.3 2.2zm19.2-5.8c0 1.8-.7 3.6-2 4.9-1.8 1.4-4.1 2.1-6.4 2-2 0-3.9-.2-5.8-.6-.4 0-.7-.3-.7-.6v-3c.1-.1.3-.1.5 0h5.8c1 .1 2.1-.2 3-.8.6-.6.9-1.4.8-2.3 0-.6-.2-1.1-.6-1.6-.6-.7-1.4-1.2-2.2-1.7l-4.4-2.5c-.9-.5-1.6-1.1-2.3-1.8-.6-.5-1-1.2-1.2-2-.3-.7-.4-1.5-.3-2.2 0-1.2.2-2.3.8-3.3.6-1 1.5-1.7 2.6-2.2 1.5-.6 3.2-.8 4.8-.8h3.5c.9.1 1.8.2 2.8.4.3 0 .6.3.6.7v2.4c.1.1.1.3 0 .5h-.4c-2.4-.2-4.5-.3-6.4-.3-1.9 0-3.5.8-3.5 2.3 0 .5.2 1 .6 1.4.6.6 1.3 1.1 2.1 1.5l3.9 2.2c1.4.7 2.6 1.7 3.6 3 .7 1.2 1.1 2.5 1 3.9m26.5 6.1c0 .3-.2.6-.7.7-.7.1-1.4.3-2 .3-1 .1-2.1.1-3.2 0-1.1 0-2.2-.1-3.2-.4-1.1-.3-2.1-.9-3-1.6-1-.8-1.8-1.9-2.3-3.1-.6-1.6-.9-3.2-.8-4.9v-4.7c0-1.7.3-3.4.8-4.9.5-1.2 1.2-2.3 2.2-3.1.9-.7 1.9-1.2 3-1.5 1-.3 2.1-.5 3.2-.5h2.3c.7 0 1.4 0 2 .2h1c.5 0 .8.4.8.7v2.2c0 .5-.2.7-.6.7-2 0-3.9-.3-5.1-.3-1.3-.1-2.6.5-3.5 1.4-1 1.4-1.4 3.1-1.3 4.7v5.1c0 4.1 1.6 6.1 4.8 6.1 1.2 0 3 0 5.1-.3.4 0 .6.2.6.7l-.1 2.5zm14.5-6.9v-2.7c0-1.1-.3-2.3-.9-3.2-1.4-1.6-3.8-1.6-5.2 0-.6.9-1 2.1-.9 3.2v2.7c0 1.1.3 2.3.9 3.2.7.8 1.7 1.2 2.8 1 1 0 2-.4 2.6-1.2.6-.9 1-2.1.9-3.2m4.2.1c0 1.4-.3 2.9-.9 4.2-.6 1.2-1.5 2.3-2.7 2.9-2.7 1.4-5.9 1.4-8.5 0-1.2-.7-2.1-1.7-2.7-2.9-.6-1.3-.9-2.7-.9-4.2v-2.5c0-1.5.3-2.9.9-4.2.6-1.2 1.5-2.2 2.7-2.9 2.7-1.4 5.9-1.4 8.6 0 1.2.7 2.1 1.7 2.7 2.9.6 1.3.9 2.8.9 4.2v2.5zm27.2 7.4c0 .2-.1.3-.2.5-.1.1-.3.2-.5.2h-3c-.2 0-.3-.1-.5-.2v-11.7c0-.7 0-1.3-.2-1.9-.1-.4-.4-.8-.7-1-.4-.2-.9-.3-1.4-.3-1.1 0-2.1.3-3.1.8.1.8.1 1.6 0 2.3v11.2c0 .2-.1.3-.2.5-.1.1-.3.2-.5.2h-3c-.2 0-.3-.1-.5-.2v-11.7c0-.7 0-1.3-.2-2-.1-.4-.3-.7-.7-.9-.4-.2-.9-.3-1.4-.3-1.1.1-2.1.5-3 1.1v13.3c0 .2-.1.4-.2.5h-3.5c-.2 0-.3-.1-.5-.2-.1-.1-.2-.3-.2-.5v-17c0-.4.3-.6.7-.6h2.9c.2-.1.3-.1.5 0 .1.1.1.3 0 .5v.7c.7-.5 1.5-.8 2.3-1.1.8-.3 1.6-.4 2.4-.4 1.4-.1 2.9.4 3.9 1.5.6-.3 1.1-.6 1.7-.8.5-.2 1.1-.4 1.6-.5.7-.1 1.3-.2 2-.2 1.6-.2 3.3.5 4.3 1.8.8 1.5 1.2 3.3 1.2 5.1v11.3zm15.1-7.3V146c.1-1.2-.2-2.4-.8-3.5-.6-.9-1.7-1.3-2.7-1.2h-3.2v11.6c1 .1 2.1.2 3.2.2 1.1.1 2.1-.4 2.7-1.2.6-1.1.8-2.3.8-3.5m4.3-.1c0 1.5-.3 3-.9 4.4-.5 1.2-1.4 2.2-2.6 2.8-1.3.7-2.9 1-4.4 1-1.1.1-2.1.1-3.2 0v5.8c0 .4-.3.6-.6.7h-3c-.3 0-.6-.3-.7-.7v-23.4c.2-.2.5-.3.7-.3 2.1-.6 4.4-.9 6.6-.9 1.5 0 3 .3 4.4 1 1.2.6 2.1 1.6 2.6 2.9.6 1.4.9 2.9.8 4.4l.3 2.3zm13.2 4v-3.9h-2.1c-.8 0-1.5.1-2.3.3-.5.2-.9.5-1.1.9-.2.5-.3 1-.3 1.6-.1.6.1 1.2.6 1.6.5.3 1.2.5 1.8.4 1.2.1 2.4-.2 3.4-.9m4.3 3.6c0 .4-.3.7-.6.7h-2.8c-.1.1-.3.1-.5 0-.1-.1-.2-.3-.2-.5v-.5c-1.4.9-3 1.4-4.7 1.4-1.4 0-2.7-.4-3.9-1.2-1.2-1.1-1.8-2.6-1.6-4.3-.1-1.1.2-2.2.8-3.1.6-.9 1.5-1.6 2.6-1.9 1.5-.5 3-.7 4.6-.7h2.1v-1.4c.1-.8-.2-1.5-.7-2.1-.6-.4-1.4-.6-2.2-.5-1.8 0-3.6 0-5.4.2-.4 0-.6 0-.6-.5v-2.1c0-.3.2-.6.7-.7 1.8-.3 3.6-.5 5.5-.5 1.3 0 2.6.2 3.9.7 1 .4 1.9 1.1 2.4 2.1.6 1.1.9 2.3.9 3.5l-.3 11.4zm19.5-.1c0 .2-.1.4-.2.5h-3.5c-.2 0-.4-.1-.5-.2-.1-.1-.1-.3 0-.5v-10.4c0-.8 0-1.5-.2-2.3-.1-.4-.3-.8-.7-1.1-.6-.2-1.2-.3-1.8-.3-1.3.1-2.7.5-3.9 1.2v13.2c0 .4-.3.7-.6.7h-3c-.2 0-.4-.1-.5-.2v-17.8c0-.4.3-.6.6-.6h2.9c.3-.1.6.2.6.5v.7c.8-.5 1.7-.9 2.6-1.2.9-.2 1.8-.4 2.8-.4 1.7-.2 3.4.5 4.5 1.9.9 1.7 1.3 3.6 1.2 5.4l-.3 10.9zm18.8-17.3l-5.5 19.3c-.3 1.1-.7 2.1-1.3 3-.5.7-1.2 1.3-2 1.6-1.1.4-2.3.6-3.5.5-.6.1-1.2.1-1.8 0-.5-.1-1.1-.1-1.6-.3-.5 0-.7-.3-.7-.6v-2.1c0-.2.1-.3.2-.4.1-.1.3-.2.5-.2h3.7c.4.1.8.1 1.2 0 .3-.1.6-.4.8-.7.3-.4.5-.8.6-1.3l.3-1h-.5c-.6 0-1.2-.2-1.7-.5-.6-.6-1-1.3-1.2-2.2l-4.3-15v-.2c0-.3.2-.5.6-.5h3.4c.1-.1.3-.1.4 0 .1.1.2.3.2.4l3.3 13.3c0 .5.3.8.5.8h.3l3.5-14.1c0-.4.3-.6.7-.6h3.7v.4"/><path d="M355.2 2.5c.1-1.4 1.2-2.5 2.6-2.5h.7c3.9 0 3.9 0 5.2 1.4.7.8 58.5 70.1 58.5 70.1V4.1c.1-1.5 1.4-2.7 2.9-2.7h9c1.5 0 2.6 1.2 2.7 2.7v94.8c-.1 1.4-1.2 2.5-2.7 2.5H431c-.4-.1-.8-.3-1-.6l-60.1-72.1v68.5c0 1.5-1.1 2.7-2.6 2.7h-9.4c-1.5 0-2.6-1.2-2.6-2.7V2.5zM88.5 4.1c0-1.5 1.2-2.7 2.7-2.7h9.3c1.5 0 2.6 1.2 2.7 2.7v82.6h38.1c1.5 0 2.7 1.2 2.7 2.7v7.7c0 1.5-1.2 2.7-2.7 2.7H91.1c-1.5 0-2.7-1.2-2.7-2.7l.1-93zm75 0c0-1.4 1.2-2.6 2.7-2.7h9.4c1.5 0 2.7 1.2 2.7 2.7v58c0 14 9 25 23.1 25 14.1 0 23.6-10.8 23.6-24.7V4.1c0-1.5 1.2-2.7 2.7-2.7h9.6c1.4 0 2.6 1.2 2.7 2.7v59c-.7 20.6-17.6 37-38.2 37s-37.6-16.4-38.2-37l-.1-59zM513.8 0c12.6-.2 24.8 4.5 34 13.1 1.2.9 1.4 2.7.4 3.9l-.2.2-6.3 6.2c-1 1.3-2.3 1.3-3.5 0-6.7-5.8-15.2-9.1-24.1-9.3-9.5.1-18.6 4.1-25.2 10.9-6.6 6.8-10.3 16.1-10.1 25.6-.1 9.5 3.5 18.7 10.2 25.5 6.6 6.8 15.7 10.7 25.3 10.8 8.9-.1 17.4-3.4 24.1-9.2 1-.8 2.4-.8 3.4 0l6.5 6.3c1.1 1.1 1.1 2.8 0 3.9-9.1 8.9-21.4 13.8-34.1 13.7-27.4-.8-49.2-23.2-49.2-50.6 0-27.4 21.8-49.8 49.2-50.6M59 1.5H2.8C1.3 1.5.1 2.7.1 4.2v7.7c0 1.5 1.2 2.7 2.7 2.7H59c1.5 0 2.7-1.2 2.7-2.7V4.1c0-1.4-1.2-2.6-2.7-2.6" class="st1"/><path d="M59 1.5H2.8C1.3 1.5.1 2.7.1 4.2v7.7c0 1.5 1.2 2.7 2.7 2.7H59c1.5 0 2.7-1.2 2.7-2.7V4.1c0-1.4-1.2-2.6-2.7-2.6M14.2 80.3v17c0 1.5-1.2 2.7-2.7 2.7H2.7c-1.5 0-2.6-1.2-2.7-2.7V66c0-12.8 10.4-23.1 23.1-23.1h35.8c1.5 0 2.7 1.2 2.7 2.7v7.7c0 1.5-1.2 2.7-2.7 2.7H25.3c-6 0-10.8 4.6-11.3 10.5V80l.2.3zM325.4 1.6h-56.2c-1.5 0-2.7 1.2-2.7 2.6v7.9c0 1.5 1.2 2.7 2.7 2.7h56.2c1.5 0 2.7-1.2 2.7-2.7V4.2c-.1-1.4-1.3-2.6-2.7-2.6m0 54.6c1.5 0 2.7-1.2 2.7-2.6v-7.7c0-1.5-1.2-2.7-2.7-2.7h-56.3c-1.5 0-2.6 1.2-2.7 2.7v31.3c.1 12.7 10.4 22.9 23.1 22.9h35.7c1.5 0 2.7-1.2 2.7-2.7v-7.7c0-1.5-1.2-2.7-2.7-2.7h-33.4c-5.9-.1-10.8-4.7-11.3-10.6V56.3l44.9-.1zM633.7 1.6h-56.2c-1.5 0-2.7 1.2-2.7 2.6v7.9c0 1.5 1.2 2.7 2.7 2.7h56.2c1.5 0 2.7-1.2 2.7-2.7V4.2c0-1.5-1.2-2.6-2.7-2.6m0 54.6c1.5 0 2.7-1.2 2.7-2.6v-7.7c0-1.5-1.2-2.7-2.7-2.7h-56.2c-1.5 0-2.6 1.2-2.7 2.7v31.3c.1 12.7 10.5 22.9 23.1 22.9h35.8c1.5 0 2.7-1.2 2.7-2.7v-7.7c0-1.5-1.2-2.7-2.7-2.7h-33.4c-5.9-.1-10.8-4.7-11.3-10.6V56.3l44.7-.1zm19-54.6c-5.9 0-8.9 7.1-4.7 11.3 4.2 4.2 11.3 1.2 11.3-4.7.1-3.6-2.9-6.6-6.6-6.6zm0 12.1c-5 0-7.4-6-3.9-9.5 3.5-3.5 9.5-1 9.5 4 .1 3.1-2.5 5.6-5.6 5.5zm0 0" class="st1"/><path d="M655.1 11.5h-.8l-1.7-2.6h-1.1v2.5c0 .2-.1.3-.3.3h-.5c-.2 0-.3-.2-.3-.3V5c0-.3 0-.4.3-.4h1.6c1.7 0 2.7.5 2.7 2.1.1.9-.5 1.7-1.4 1.8l1.6 2.6c0 .1-.1.2-.2.2v.2zM654 6.4c0-.8-.5-1.1-1.6-1.1h-1v2.3h1c1.2 0 1.6-.3 1.6-1.2zm0 0" class="st1"/></svg>