<svg xmlns="http://www.w3.org/2000/svg" role="img" viewBox="-1.34 -1.28 66.43 14.12"><title>FluxEngine logo</title><g transform="translate(-1.172 9.117)"><path d="M6.74414-7.69336h-4.4121v2.46094h3.791v1.03125h-3.791V0H1.17186v-8.7246h5.57227z"/><path d="M9.09375 0H7.99219v-9.11719h1.10156z"/><path d="M16.69922 0h-1.10156v-.72656q-.55664.43945-1.06641.67383-.50977.23437-1.125.23437-1.03125 0-1.60547-.62695-.57422-.63282-.57422-1.85157v-4.24804h1.10156v3.72656q0 .49805.04687.85547.04687.35156.19922.60351.1582.25782.41016.375.25195.1172.73242.1172.42774 0 .93164-.22266.50977-.22266.94922-.56836v-4.88672h1.10156z"/><path d="M24.5332 0h-1.38867l-1.85742-2.51367L19.41797 0h-1.2832l2.55468-3.26367-2.53125-3.28125h1.38867l1.8457 2.47265 1.85157-2.47265h1.28906l-2.57226 3.22265z"/><path d="M31.80469 0h-5.74805v-8.7246h5.74805v1.03124h-4.5879v2.39063h4.5879v1.03125h-4.5879v3.24023h4.5879z"/><path d="M39.0293 0h-1.10157v-3.72656q0-.45117-.05273-.84375-.05273-.39844-.19335-.6211-.14649-.24609-.42188-.36328-.2754-.12304-.71484-.12304-.45118 0-.94336.22265-.4922.22266-.94336.56836V0h-1.10156v-6.54492h1.10156v.72656q.51562-.42773 1.0664-.66797.55079-.24023 1.13086-.24023 1.06055 0 1.61719.63867.55664.63867.55664 1.83984z"/><path d="M46.45898-.74414q0 1.66406-.75585 2.44336-.75586.7793-2.32618.7793-.52148 0-1.01953-.07618-.49219-.0703-.97265-.20507v-1.125h.05859q.26953.10546.85547.2578.58593.15821 1.17187.15821.5625 0 .93164-.13476.36914-.13477.57422-.375.20508-.22852.29297-.55079.0879-.32226.0879-.7207v-.59766q-.49806.39844-.95509.59766-.45117.19336-1.1543.19336-1.17187 0-1.86328-.84375-.68554-.8496-.68554-2.39062 0-.84375.23437-1.45313.24024-.61523.6504-1.06055.38085-.41601.92578-.64453.54492-.23437 1.08398-.23437.56836 0 .94922.11719.38672.11132.81445.3457l.07031-.28125h1.03125zm-1.10156-1.05469v-3.56836q-.43945-.19922-.82031-.28125-.375-.08789-.75-.08789-.9082 0-1.42969.60938-.52148.60937-.52148 1.76953 0 1.10156.38672 1.66992t1.2832.56836q.48047 0 .96094-.18164.48633-.1875.89062-.49805z"/><path d="M49.81055-7.64063h-1.2422V-8.7832h1.2422zM49.74023 0h-1.10156v-6.54492h1.10156z"/><path d="M57.39258 0h-1.10156v-3.72656q0-.45117-.05273-.84375-.05273-.39844-.19336-.6211-.14649-.24609-.42188-.36328-.27539-.12304-.71484-.12304-.45117 0-.94336.22265-.49219.22266-.94336.56836V0h-1.10156v-6.54492h1.10156v.72656q.51562-.42773 1.0664-.66797.55079-.24023 1.13086-.24023 1.06055 0 1.6172.63867.55663.63867.55663 1.83984z"/><path d="M64.99219-3.1582h-4.82227q0 .60351.18164 1.05468.18164.44532.49805.73243.30469.28125.7207.42187.42188.14063.92578.14063.66797 0 1.3418-.26368.67969-.26953.9668-.52734h.05859v1.20117q-.55664.23438-1.13672.39258-.58008.1582-1.21875.1582-1.6289 0-2.54297-.8789-.91406-.88477-.91406-2.50782 0-1.60546.87304-2.54882.87891-.94336 2.3086-.94336 1.32422 0 2.03906.77344.7207.77343.7207 2.19726zm-1.07227-.84375q-.0059-.8672-.43945-1.3418-.42774-.4746-1.30664-.4746-.88477 0-1.41211.52147-.52149.52149-.5918 1.29493z"/></g></svg>