<svg xmlns="http://www.w3.org/2000/svg" role="img" viewBox="-5.91 -5.91 307.06 89.56"><title>Food and Agriculture Organization Corporate Statistical Database logo</title><defs id="defs789"><style id="style787">.cls-1{fill:#fff}</style></defs><path id="path793" fill="#000" d="M67.55998 18.9h5.65v1.63h-3.6v3h3.44v1.67h-3.44v4.86h-2z" class="cls-1"/><path id="path795" fill="#000" d="M77.67998 21.7c1.68 0 3.61.88 3.61 4.23 0 3.35-1.93 4.26-3.61 4.26s-3.63-.8-3.63-4.26 2-4.23 3.63-4.23zm0 7.08c1.28 0 1.57-1.47 1.57-2.85 0-1.38-.29-2.83-1.57-2.83s-1.58 1.46-1.58 2.83.3 2.85 1.58 2.85z" class="cls-1"/><path id="path797" fill="#000" d="M86.25998 21.7c1.68 0 3.62.88 3.62 4.23 0 3.35-1.94 4.26-3.62 4.26-1.68 0-3.63-.8-3.63-4.26s1.95-4.23 3.63-4.23zm0 7.08c1.28 0 1.57-1.47 1.57-2.85 0-1.38-.29-2.83-1.57-2.83s-1.58 1.46-1.58 2.83.31 2.85 1.58 2.85z" class="cls-1"/><path id="path799" fill="#000" d="M98.19998 18.07V28.7a10.1 10.1 0 0 0 .07 1.41h-1.86a11.76 11.76 0 0 1-.06-1.28 2.22 2.22 0 0 1-2.19 1.41c-2 0-2.89-2-2.89-4.24 0-2.69 1.07-4.25 2.84-4.25a2.21 2.21 0 0 1 2.13 1.31v-4.99zm-3.55 10.63c1.17 0 1.57-1.26 1.57-2.81s-.45-2.77-1.53-2.77-1.49 1.07-1.49 2.72c0 1.93.3 2.86 1.45 2.86z" class="cls-1"/><path id="path801" fill="#000" d="M104.57998 22.3a5.83 5.83 0 0 1 2.61-.6c2.56 0 3.15 1.24 3.15 3.31v3.6a9.85 9.85 0 0 0 .11 1.45h-1.79a3.94 3.94 0 0 1-.11-1.12 2.65 2.65 0 0 1-2.3 1.25 2.36 2.36 0 0 1-2.46-2.42c0-2.23 1.82-2.8 4.33-2.8h.4v-.27a1.42 1.42 0 0 0-1.53-1.57 3.81 3.81 0 0 0-2.26.8zm3.9 3.73h-.17c-1.7 0-2.71.35-2.71 1.55a1.19 1.19 0 0 0 1.27 1.26c1.18 0 1.61-.87 1.61-2.35z" class="cls-1"/><path id="path803" fill="#000" d="M112.16998 23.18a11 11 0 0 0-.06-1.36h1.85c0 .42.07.85.07 1.27a2.4 2.4 0 0 1 2.22-1.39c1.87 0 2.43 1.39 2.43 3v5.31h-2v-4.89c0-1.26-.32-1.79-1.14-1.79-1 0-1.41.88-1.41 1.93v4.8h-2z" class="cls-1"/><path id="path805" fill="#000" d="M127.22998 18.07V28.7a10.1 10.1 0 0 0 .07 1.41h-1.86a11.76 11.76 0 0 1-.06-1.28h-.05a2.22 2.22 0 0 1-2.19 1.41c-2.05 0-2.9-2-2.9-4.24 0-2.69 1.07-4.25 2.85-4.25a2.22 2.22 0 0 1 2.13 1.31v-4.99zm-3.55 10.63c1.17 0 1.57-1.26 1.57-2.81s-.45-2.77-1.54-2.77-1.48 1.07-1.48 2.72c0 1.93.3 2.86 1.45 2.86z" class="cls-1"/><path id="path807" fill="#000" d="M138.20998 27.37h-3.84l-.8 2.69h-2l3.74-11.16h2.24l3.6 11.16h-2.1zm-.43-1.56l-1.41-5.22-1.53 5.22z" class="cls-1"/><path id="path809" fill="#000" d="M142.34998 31.34a5.17 5.17 0 0 0 2.43.7c1.87 0 2.17-1.29 2.17-2.59v-.75a2.25 2.25 0 0 1-2.17 1.39c-1.15 0-2.88-.77-2.88-4.09 0-2.27.82-4.27 3-4.27a2.36 2.36 0 0 1 2.15 1.37c0-.43.05-.84.07-1.28h1.79c0 .44-.07.87-.07 1.3v6.08c0 2.57-.78 4.41-3.8 4.41a8.46 8.46 0 0 1-2.83-.51zm2.86-2.73c1.25 0 1.74-.9 1.74-2.77s-.65-2.66-1.6-2.64c-.95.02-1.43 1-1.43 2.65 0 1.94.62 2.76 1.29 2.76z" class="cls-1"/><path id="path811" fill="#000" d="M150.73998 23.18a13.32 13.32 0 0 0-.06-1.36h1.79c0 .5.06 1 .06 1.51a2.3 2.3 0 0 1 2.1-1.63 3 3 0 0 1 .33 0v1.9a1.94 1.94 0 0 0-.56-.08c-.81 0-1.71.5-1.71 2v4.51h-2z" class="cls-1"/><path id="path813" fill="#000" d="M156.45998 18.32h2.05v1.95h-2.05zm0 3.5h2v8.24h-2z" class="cls-1"/><path id="path815" fill="#000" d="M166.04998 29.85a5.51 5.51 0 0 1-1.95.34c-2.71 0-3.87-1.9-3.87-4.24 0-2.34 1.22-4.25 4-4.25a5.48 5.48 0 0 1 1.73.33l-.11 1.57a3.12 3.12 0 0 0-1.39-.4c-1.5 0-2.16 1-2.16 2.77 0 1.53.74 2.72 2.26 2.72a3.26 3.26 0 0 0 1.4-.4z" class="cls-1"/><path id="path817" fill="#000" d="M173.77998 28.7a11 11 0 0 0 .06 1.36h-1.86c0-.42-.06-.85-.06-1.26h-.05a2.41 2.41 0 0 1-2.19 1.39c-1.87 0-2.43-1.39-2.43-3.06v-5.31h2v4.95c0 1.26.35 1.79 1.18 1.79 1.06 0 1.36-1 1.36-2v-4.74h2z" class="cls-1"/><path id="path819" fill="#000" d="M175.75998 18.07h2v12h-2z" class="cls-1"/><path id="path821" fill="#000" d="M180.44998 20.13l2-.61v2.3h1.6v1.46h-1.64v4.27c0 .88.32 1.14.89 1.14a1.54 1.54 0 0 0 .75-.18v1.41a3.07 3.07 0 0 1-1.32.27c-1.47 0-2.31-.67-2.31-2.4v-4.51h-1.31v-1.46h1.31z" class="cls-1"/><path id="path823" fill="#000" d="M191.84998 28.7a10.77 10.77 0 0 0 .07 1.36h-1.87c0-.42-.06-.85-.06-1.26a2.43 2.43 0 0 1-2.2 1.39c-1.87 0-2.42-1.39-2.42-3.06v-5.31h2v4.95c0 1.26.35 1.79 1.18 1.79 1.06 0 1.36-1 1.36-2v-4.74h2z" class="cls-1"/><path id="path825" fill="#000" d="M193.69998 23.18a11 11 0 0 0-.06-1.36h1.79c0 .5.07 1 .07 1.51a2.29 2.29 0 0 1 2.12-1.63 3.18 3.18 0 0 1 .34 0v1.9a2 2 0 0 0-.56-.08c-.82 0-1.71.5-1.71 2v4.51h-2z" class="cls-1"/><path id="path827" fill="#000" d="M205.14998 29.7a6 6 0 0 1-2.46.53c-2.66 0-3.81-1.9-3.81-4.13 0-2.46 1.3-4.36 3.39-4.36 1.78 0 3.3 1 3.3 4.39v.39h-4.77c0 1.41.56 2.25 2.1 2.25a3.25 3.25 0 0 0 2.15-.64zm-1.5-4.43c0-1.45-.48-2.19-1.38-2.19-.9 0-1.47 1.1-1.47 2.19z" class="cls-1"/><path id="path829" fill="#000" d="M215.53998 18.7c2.32 0 4.44 1.73 4.44 5.74s-2.12 5.74-4.44 5.74c-2.32 0-4.49-1.69-4.49-5.7s2.17-5.78 4.49-5.78zm0 9.91c1.29 0 2.33-1.1 2.33-4.17s-1-4.17-2.33-4.17-2.34 1.1-2.34 4.17 1.04 4.26 2.34 4.26z" class="cls-1"/><path id="path831" fill="#000" d="M221.66998 23.18a11 11 0 0 0-.06-1.36h1.79c0 .5.07 1 .07 1.51a2.29 2.29 0 0 1 2.12-1.63 3.18 3.18 0 0 1 .34 0v1.9a2 2 0 0 0-.56-.08c-.82 0-1.71.5-1.71 2v4.51h-2z" class="cls-1"/><path id="path833" fill="#000" d="M227.32998 31.34a5.24 5.24 0 0 0 2.43.7c1.87 0 2.18-1.29 2.18-2.59v-.75a2.26 2.26 0 0 1-2.18 1.39c-1.15 0-2.88-.77-2.88-4.09 0-2.27.82-4.27 3-4.27a2.33 2.33 0 0 1 2.17 1.37c0-.43 0-.84.06-1.28h1.79c0 .44-.06.87-.06 1.3v6.08c0 2.57-.79 4.41-3.81 4.41a8.46 8.46 0 0 1-2.83-.51zm2.87-2.73c1.24 0 1.74-.9 1.74-2.77s-.66-2.66-1.6-2.64c-.94.02-1.44 1-1.44 2.65 0 1.94.62 2.76 1.3 2.76z" class="cls-1"/><path id="path835" fill="#000" d="M236.04998 22.3a5.83 5.83 0 0 1 2.61-.6c2.56 0 3.15 1.24 3.15 3.31v3.6a9.85 9.85 0 0 0 .11 1.45h-1.79a3.94 3.94 0 0 1-.11-1.12 2.63 2.63 0 0 1-2.3 1.25 2.36 2.36 0 0 1-2.46-2.42c0-2.23 1.82-2.8 4.33-2.8h.4v-.27a1.42 1.42 0 0 0-1.53-1.57 3.84 3.84 0 0 0-2.26.8zm3.9 3.73h-.17c-1.7 0-2.71.35-2.71 1.55a1.19 1.19 0 0 0 1.27 1.26c1.18 0 1.61-.87 1.61-2.35z" class="cls-1"/><path id="path837" fill="#000" d="M243.64998 23.18a11 11 0 0 0-.06-1.36h1.85c0 .42.07.85.07 1.27a2.4 2.4 0 0 1 2.22-1.39c1.87 0 2.43 1.39 2.43 3v5.31h-2v-4.89c0-1.26-.32-1.79-1.14-1.79-1 0-1.4.88-1.4 1.93v4.8h-2z" class="cls-1"/><path id="path839" fill="#000" d="M252.10998 18.32h2.05v1.95h-2.05zm0 3.5h2v8.24h-2z" class="cls-1"/><path id="path841" fill="#000" d="M255.65998 28.35l3.51-5h-3.4v-1.53h5.39v1.7l-3.46 5h3.57v1.5h-5.61z" class="cls-1"/><path id="path843" fill="#000" d="M263.04998 22.3a5.83 5.83 0 0 1 2.61-.6c2.55 0 3.15 1.24 3.15 3.31v3.6a9.85 9.85 0 0 0 .11 1.45h-1.87a3.94 3.94 0 0 1-.11-1.12 2.65 2.65 0 0 1-2.3 1.25 2.36 2.36 0 0 1-2.46-2.42c0-2.23 1.82-2.8 4.33-2.8h.4v-.27a1.42 1.42 0 0 0-1.53-1.57 3.81 3.81 0 0 0-2.26.8zm3.9 3.73h-.17c-1.7 0-2.71.35-2.71 1.55a1.19 1.19 0 0 0 1.27 1.26c1.18 0 1.61-.87 1.61-2.35z" class="cls-1"/><path id="path845" fill="#000" d="M271.33998 20.13l2-.61v2.3h1.65v1.46h-1.65v4.27c0 .88.32 1.14.89 1.14a1.58 1.58 0 0 0 .76-.18v1.41a3.16 3.16 0 0 1-1.33.27c-1.47 0-2.3-.67-2.3-2.4v-4.51h-1.31v-1.46h1.31z" class="cls-1"/><path id="path847" fill="#000" d="M276.38998 18.32h2v1.95h-2zm0 3.5h2v8.24h-2z" class="cls-1"/><path id="path849" fill="#000" d="M283.78998 21.7c1.68 0 3.61.88 3.61 4.23 0 3.35-1.93 4.26-3.61 4.26s-3.63-.8-3.63-4.26 1.95-4.23 3.63-4.23zm0 7.08c1.28 0 1.57-1.47 1.57-2.85 0-1.38-.29-2.83-1.57-2.83s-1.58 1.46-1.58 2.83.3 2.85 1.58 2.85z" class="cls-1"/><path id="path851" fill="#000" d="M288.96998 23.18a10.77 10.77 0 0 0-.07-1.36h1.86c0 .42.06.85.06 1.27a2.4 2.4 0 0 1 2.23-1.39c1.87 0 2.44 1.39 2.44 3v5.31h-2v-4.89c0-1.26-.32-1.79-1.13-1.79-1 0-1.41.88-1.41 1.93v4.8h-2z" class="cls-1"/><path id="path853" fill="#000" d="M70.67998 39.77c1.68 0 3.61.87 3.61 4.23 0 3.36-1.93 4.26-3.61 4.26s-3.63-.8-3.63-4.26 2-4.23 3.63-4.23zm0 7.08c1.28 0 1.57-1.47 1.57-2.85 0-1.38-.29-2.83-1.57-2.83s-1.58 1.46-1.58 2.83.3 2.85 1.58 2.85z" class="cls-1"/><path id="path855" fill="#000" d="M76.49998 41.35h-1.38v-1.46h1.38v-1.68a2.08 2.08 0 0 1 2.36-2.27 6.4 6.4 0 0 1 1.43.2l-.08 1.43a3.19 3.19 0 0 0-.79-.12.92.92 0 0 0-.94 1v1.42h1.5v1.46h-1.5v6.78h-2z" class="cls-1"/><path id="path857" fill="#000" d="M86.04998 38.2l2-.61v2.3h1.65v1.46h-1.65v4.27c0 .88.32 1.13.9 1.13a1.56 1.56 0 0 0 .75-.17v1.4a3 3 0 0 1-1.33.28c-1.47 0-2.3-.68-2.3-2.4v-4.51h-1.31v-1.46h1.29z" class="cls-1"/><path id="path859" fill="#000" d="M90.95998 36.14h2v4.81a2.24 2.24 0 0 1 2-1.18c1.87 0 2.43 1.39 2.43 3v5.31h-2v-4.89c0-1.27-.32-1.79-1.14-1.79-1 0-1.41.88-1.41 1.93v4.8h-2z" class="cls-1"/><path id="path861" fill="#000" d="M105.29998 47.7a6.2 6.2 0 0 1-2.46.53c-2.66 0-3.81-1.91-3.81-4.13 0-2.46 1.3-4.36 3.39-4.36 1.78 0 3.3 1 3.3 4.39v.39h-4.77c0 1.4.56 2.25 2.1 2.25a3.25 3.25 0 0 0 2.15-.64zm-1.5-4.43c0-1.46-.48-2.19-1.38-2.19-.9 0-1.47 1.1-1.47 2.19z" class="cls-1"/><path id="path863" fill="#000" d="M113.63998 36.97v7.22c0 1.86.56 2.47 1.76 2.47s1.74-.61 1.74-2.47v-7.22h2v7.22c0 2.95-1.69 4.1-3.79 4.1s-3.8-1.15-3.8-4.1v-7.22z" class="cls-1"/><path id="path865" fill="#000" d="M121.16998 41.25a13.32 13.32 0 0 0-.06-1.36h1.85c0 .42.06.85.06 1.27a2.38 2.38 0 0 1 2.19-1.39c1.87 0 2.43 1.39 2.43 3v5.31h-2v-4.89c0-1.27-.33-1.79-1.14-1.79-1 0-1.41.88-1.41 1.93v4.8h-2z" class="cls-1"/><path id="path867" fill="#000" d="M129.62998 36.39h2v2h-2zm0 3.5h2v8.24h-2z" class="cls-1"/><path id="path869" fill="#000" d="M134.35998 38.2l2-.61v2.3h1.65v1.46h-1.65v4.27c0 .88.32 1.13.89 1.13a1.6 1.6 0 0 0 .76-.17v1.4a3 3 0 0 1-1.33.28c-1.47 0-2.3-.68-2.3-2.4v-4.51h-1.33v-1.46h1.31z" class="cls-1"/><path id="path871" fill="#000" d="M145.28998 47.7a6.2 6.2 0 0 1-2.46.53c-2.66 0-3.81-1.91-3.81-4.13 0-2.46 1.3-4.36 3.39-4.36 1.78 0 3.3 1 3.3 4.39v.39h-4.77c0 1.4.56 2.25 2.1 2.25a3.25 3.25 0 0 0 2.15-.64zm-1.5-4.43c0-1.46-.48-2.19-1.38-2.19-.9 0-1.47 1.1-1.47 2.19z" class="cls-1"/><path id="path873" fill="#000" d="M154.04998 36.14V46.7a10.2 10.2 0 0 0 .07 1.41h-1.86a11.76 11.76 0 0 1-.06-1.28 2.22 2.22 0 0 1-2.19 1.41c-2.05 0-2.9-2-2.9-4.24 0-2.69 1.08-4.25 2.85-4.25a2.22 2.22 0 0 1 2.13 1.31v-4.92zm-3.6 10.66c1.17 0 1.57-1.26 1.57-2.81s-.45-2.77-1.54-2.77-1.43 1.07-1.43 2.72c0 1.9.25 2.86 1.4 2.86z" class="cls-1"/><path id="path875" fill="#000" d="M160.24998 36.97h2.43l3.71 8.73v-8.73h1.86v11.16h-2.45l-3.69-8.7v8.7h-1.86z" class="cls-1"/><path id="path877" fill="#000" d="M170.72998 40.37a5.87 5.87 0 0 1 2.61-.6c2.56 0 3.15 1.24 3.15 3.3v3.63a11.67 11.67 0 0 0 .11 1.46h-1.79a4.34 4.34 0 0 1-.11-1.12 2.66 2.66 0 0 1-2.3 1.25 2.37 2.37 0 0 1-2.47-2.42c0-2.24 1.83-2.8 4.34-2.8h.4v-.37a1.42 1.42 0 0 0-1.54-1.57 3.78 3.78 0 0 0-2.25.8zm3.91 3.73h-.18c-1.69 0-2.7.35-2.7 1.55a1.19 1.19 0 0 0 1.29 1.26c1.18 0 1.62-.88 1.62-2.35z" class="cls-1"/><path id="path879" fill="#000" d="M179.04998 38.2l2-.61v2.3h1.64v1.46h-1.64v4.27c0 .88.31 1.13.89 1.13a1.56 1.56 0 0 0 .75-.17v1.4a2.93 2.93 0 0 1-1.33.28c-1.47 0-2.3-.68-2.3-2.4v-4.51h-1.31v-1.46h1.3z" class="cls-1"/><path id="path881" fill="#000" d="M184.10998 36.39h2.05v2h-2.05zm0 3.5h2v8.24h-2z" class="cls-1"/><path id="path883" fill="#000" d="M191.50998 39.77c1.68 0 3.62.87 3.62 4.23 0 3.36-1.94 4.26-3.62 4.26-1.68 0-3.63-.8-3.63-4.26s1.96-4.23 3.63-4.23zm0 7.08c1.28 0 1.57-1.47 1.57-2.85 0-1.38-.29-2.83-1.57-2.83s-1.58 1.46-1.58 2.83.31 2.85 1.58 2.85z" class="cls-1"/><path id="path885" fill="#000" d="M196.68998 41.25a11 11 0 0 0-.06-1.36h1.85c0 .42.07.85.07 1.27a2.4 2.4 0 0 1 2.19-1.39c1.87 0 2.43 1.39 2.43 3v5.31h-2v-4.89c0-1.27-.32-1.79-1.14-1.79-1 0-1.41.88-1.41 1.93v4.8h-2z" class="cls-1"/><path id="path887" fill="#000" d="M204.75998 46.21a5.3 5.3 0 0 0 2.07.54c.72 0 1.28-.17 1.28-.81 0-.32-.16-.63-.88-1l-.82-.48c-.83-.5-1.74-1-1.74-2.32a2.61 2.61 0 0 1 2.84-2.33 6.82 6.82 0 0 1 2.07.33l-.12 1.54a4.35 4.35 0 0 0-1.74-.37c-.8 0-1.13.3-1.13.8s.35.68.92 1.05l1 .63c1 .65 1.53 1.12 1.53 2.07 0 1.52-1.28 2.44-3.07 2.44a6.61 6.61 0 0 1-2.28-.4z" class="cls-1"/><path id="path889" fill="#000" d="M28.34998 56.7a28.35 28.35 0 1 1 28.35-28.32 28.38 28.38 0 0 1-28.35 28.32zm-.11-39.5s2.31 2.43 2.31 4.37a2.39 2.39 0 0 1-2.2 2.61h-.21a2.4 2.4 0 0 1-2.2-2.61c0-1.94 2.26-4.37 2.3-4.37zm-21.34 12.76h2.59v-4.78h4.34v-2h-4.34v-2.65h4.48v-2h-7.07zm23.69-12.41h2.73l-3.17-11.43h-3.49l-3.28 11.43h2.52l.73-2.56h3.3zm-1.14-4.49h-2.4l1.1-5h.19zm12 11.19c0 3.35 1.56 5.91 4.84 5.91s4.87-2.56 4.87-5.91-1.57-5.91-4.87-5.91-4.86 2.55-4.86 5.91zm2.75 0c0-2.2.54-4 2.09-4 1.55 0 2.12 1.78 2.12 4 0 2.22-.56 4-2.12 4s-2.11-1.81-2.11-4zm-17 29.32a37 37 0 0 0 .3-5v-.35c0-2.93-.1-3.92-2.06-4.57-3-1-4.25-4.36-3.59-8.56l-10.15-25.62a25.2 25.2 0 0 0 15.44 44.1zm1.2-16.37c-4-.94-5.5-4.6-5.5-7.85l-8.85-21.65c-.58.4-1.14.83-1.68 1.27l10.68 25.3c1.54 3.72 4.35 2.49 5 5.56a6.79 6.79 0 0 1 .17 1.07h.3a6.36 6.36 0 0 1 .18-1.07c.68-3.07 3.48-1.84 5-5.56 0 0 8.74-20.73 10.68-25.34-.54-.44-1.1-.87-1.68-1.27l-8.83 21.69c0 3.25-1.5 6.91-5.51 7.85zm0-6.55a5.51 5.51 0 0 1-4.1-4.25 9.73 9.73 0 0 1-.06-2.7l-7.81-17.53c-.62.34-1.23.7-1.82 1.09l9.44 21.12c1.12 2.36 3.08 2.4 3.76 3.81a4.37 4.37 0 0 1 .45 1.64h.26a4.86 4.86 0 0 1 .45-1.64c.68-1.41 2.65-1.45 3.76-3.81l9.32-21.12c-.58-.39-1.2-.75-1.82-1.09l-7.7 17.53a9.73 9.73 0 0 1-.06 2.7 5.54 5.54 0 0 1-4.1 4.3zm.1-3l.12-.95c.49-2.22 2.1-1.94 3.22-4.12 0-.08 5.51-11.83 7.8-16.74a25.18 25.18 0 0 0-22.49 0c2.28 4.91 7.76 16.66 7.8 16.74 1.1 2.2 2.7 1.92 3.19 4.12l.12.95zm25.13.71a25.17 25.17 0 0 0-8.58-18.89l-10.15 25.66c.68 4.2-.57 7.56-3.58 8.56-2 .65-2.06 1.64-2.06 4.57v.35a38.73 38.73 0 0 0 .3 5 25.25 25.25 0 0 0 24.01-25.23zm-42.52 7.47s.37.79.67 1.35c.3.56.71 1.24.71 1.24l-.66.39s-.51-.84-1-1.81c-.13.06-.92.48-1.06.54l.9 1.72-.62.44s-.82-1.61-.9-1.75l-1.86 1-.41-.82 4.17-2.28zm2.66 4.31l.58.71-3.68 3.08-.6-.71 3.65-3.05zm3.41 3.23l.73.52-.95 5.08-.83-.48.23-1.14s-.53-.32-1-.65-.95-.73-1-.76l-1 .6-.72-.61 4.49-2.53zm-2.13 2.16c.09.07.4.32.72.55.32.23.66.45.75.49.05-.21.39-1.88.46-2.19zm5.16-.29a15.94 15.94 0 0 0 1.89.76 16.5 16.5 0 0 0 2 .61l-.22.73a15.17 15.17 0 0 1-1.57-.41c-.04.16-1.26 3.77-1.26 3.77l-.86-.3s1.26-3.62 1.31-3.78a13.6 13.6 0 0 1-1.54-.68zm15.16 1a1.32 1.32 0 0 1 .67.87 1.57 1.57 0 0 1 .09.51c0 .67-.47 1.2-1.32 1.46l-.55.17c0 .15.55 1.78.55 1.78l-.84.22-1.43-4.63 1.28-.39a2 2 0 0 1 1.55-.02zm-1.78.87c0 .14.4 1.27.44 1.41l.56-.18a1 1 0 0 0 .57-.43.59.59 0 0 0 .07-.29 1.18 1.18 0 0 0 0-.25.64.64 0 0 0-.31-.37 1.17 1.17 0 0 0-.82 0zm4.65-2.89l4.16 3-.74.52-.92-.7s-.48.33-.94.61c-.46.28-.91.5-1 .52l.25 1.15-.8.38-.7-5.1zm.47 3.23a8.42 8.42 0 0 0 .77-.43 4.6 4.6 0 0 0 .63-.41l-1.74-1.32c.06.31.31 1.92.34 2.13zm4.28-7.43l3.63 3.24-.65.76-3.92-1.16c.38.37 2.49 2.59 2.49 2.59l-.63.58-3.42-3.48.8-.71s3.28 1 3.8 1.11c-.38-.36-2.65-2.31-2.65-2.31zm1.66-2.42l4.2 2.44-.42.74-4.23-2.48zm1.82-4l.72.37-.07.09a2.09 2.09 0 0 0-.45.75.88.88 0 0 0 0 .64.43.43 0 0 0 .29.23c.32.11.59-.17.91-.49a1.72 1.72 0 0 1 1.88-.71c.91.31 1.21 1.11.84 2.21a3.49 3.49 0 0 1-.51.88l-.05.06-.74-.35.07-.09a2.77 2.77 0 0 0 .52-.83.77.77 0 0 0-.38-1c-.4-.14-.7.17-1 .53-.3.36-.92 1-1.72.68a1.28 1.28 0 0 1-.77-.64 1.71 1.71 0 0 1 0-1.32 3.09 3.09 0 0 1 .5-.93z" class="cls-1"/><g id="text5438" transform="translate(-3.148 62.206) scale(.22283)"><path id="path5440" d="M43.61925 37.0301H28.91222v8.20313h12.63672v3.4375H28.91222v14.00391h-3.86719V33.59261h18.57422z"/><path id="path5442" d="M65.35753 51.7762q0 5.33203-2.73437 8.41797-2.73438 3.08594-7.32422 3.08594-4.6289 0-7.36328-3.08594-2.71484-3.08594-2.71484-8.41797 0-5.33203 2.71484-8.41797 2.73437-3.10546 7.36328-3.10546 4.58984 0 7.32422 3.10546 2.73437 3.08594 2.73437 8.41797zm-3.78906 0q0-4.23828-1.66015-6.28906-1.66016-2.07031-4.60938-2.07031-2.98828 0-4.64844 2.07031-1.64062 2.05078-1.64062 6.28906 0 4.10157 1.66015 6.23047 1.66016 2.10938 4.62891 2.10938 2.92969 0 4.58984-2.08985 1.6797-2.10937 1.6797-6.25z"/><path id="path5444" d="M89.63488 51.7762q0 5.33203-2.73438 8.41797-2.73437 3.08594-7.32422 3.08594-4.6289 0-7.36328-3.08594-2.71484-3.08594-2.71484-8.41797 0-5.33203 2.71484-8.41797 2.73438-3.10546 7.36328-3.10546 4.58985 0 7.32422 3.10546 2.73438 3.08594 2.73438 8.41797zm-3.78906 0q0-4.23828-1.66016-6.28906-1.66016-2.07031-4.60938-2.07031-2.98828 0-4.64843 2.07031-1.64063 2.05078-1.64063 6.28906 0 4.10157 1.66016 6.23047 1.66015 2.10938 4.6289 2.10938 2.9297 0 4.58985-2.08985 1.67969-2.10937 1.67969-6.25z"/><path id="path5446" d="M113.01378 62.67464h-3.67187v-2.28516q-1.58203 1.3672-3.30078 2.12891-1.71875.76172-3.73047.76172-3.90625 0-6.21094-3.00781-2.28515-3.00782-2.28515-8.33985 0-2.77343.78125-4.9414.80078-2.16797 2.14843-3.6914 1.32813-1.48438 3.08594-2.26563 1.77734-.78125 3.67188-.78125 1.71875 0 3.04687.37109 1.32813.35156 2.79297 1.11328v-9.45312h3.67187zm-3.67187-5.3711V44.78403q-1.48438-.66407-2.65625-.91797-1.17188-.2539-2.55859-.2539-3.08594 0-4.8047 2.14843-1.71874 2.14844-1.71874 6.09375 0 3.88672 1.32812 5.91797 1.32813 2.01172 4.25782 2.01172 1.5625 0 3.16406-.6836 1.60156-.70312 2.98828-1.79687z"/><path id="path5448" d="M151.25597 62.67464h-3.65234v-2.32422q-.48828.33203-1.32813.9375-.82031.58594-1.60156.9375-.91797.44922-2.10937.74219-1.19141.3125-2.79297.3125-2.94922 0-5-1.95313-2.05078-1.95312-2.05078-4.98046 0-2.48047 1.05468-4.00391 1.07422-1.54297 3.04688-2.42188 1.99219-.8789 4.78515-1.1914 2.79297-.3125 5.9961-.46875v-.5664q0-1.25-.44922-2.07032-.42969-.82031-1.25-1.28906-.78125-.44922-1.875-.60547-1.09375-.15625-2.28516-.15625-1.44531 0-3.22265.39062-1.77735.3711-3.67188 1.09375h-.19531v-3.73047q1.07422-.29296 3.10547-.64453 2.03125-.35156 4.0039-.35156 2.30469 0 4.00391.39063 1.71875.37109 2.96875 1.28906 1.23047.89844 1.875 2.32422t.64453 3.53515zm-3.65234-5.3711v-6.07421q-1.67969.09766-3.96485.29297-2.26562.1953-3.59375.5664-1.58203.44922-2.55859 1.40625-.97656.9375-.97656 2.59766 0 1.875 1.13281 2.83203 1.13281.9375 3.45703.9375 1.9336 0 3.53516-.74219 1.60156-.76172 2.96875-1.8164z"/><path id="path5450" d="M176.56847 62.67464h-3.67187V50.25277q0-1.50391-.17578-2.8125-.17579-1.32813-.64454-2.07032-.48828-.8203-1.40625-1.21093-.91796-.41016-2.38281-.41016-1.5039 0-3.14453.74219-1.64062.74218-3.14453 1.89453v16.28906h-3.67188v-21.8164h3.67188v2.42187q1.71875-1.42578 3.55469-2.22656 1.83593-.80078 3.76953-.80078 3.53515 0 5.39062 2.1289 1.85547 2.1289 1.85547 6.13281z"/><path id="path5452" d="M201.3341 62.67464h-3.67188v-2.28516q-1.58203 1.3672-3.30078 2.12891-1.71875.76172-3.73047.76172-3.90625 0-6.21094-3.00781-2.28515-3.00782-2.28515-8.33985 0-2.77343.78125-4.9414.80078-2.16797 2.14844-3.6914 1.32812-1.48438 3.08593-2.26563 1.77735-.78125 3.67188-.78125 1.71875 0 3.04687.37109 1.32813.35156 2.79297 1.11328v-9.45312h3.67188zm-3.67188-5.3711V44.78403q-1.48437-.66407-2.65625-.91797-1.17187-.2539-2.55859-.2539-3.08594 0-4.80469 2.14843-1.71875 2.14844-1.71875 6.09375 0 3.88672 1.32813 5.91797 1.32812 2.01172 4.25781 2.01172 1.5625 0 3.16406-.6836 1.60156-.70312 2.98828-1.79687z"/><path id="path5454" d="M245.84582 62.67464h-4.1211l-2.85156-8.10547h-12.57813l-2.85156 8.10547h-3.92578l10.58594-29.08203h5.15625zm-8.16407-11.42578l-5.09765-14.27734-5.11719 14.27734z"/><path id="path5456" d="M267.66222 60.19417q0 5.54688-2.51953 8.14453-2.51953 2.59766-7.75391 2.59766-1.73828 0-3.39843-.2539-1.64063-.23438-3.24219-.6836v-3.75h.19531q.89844.35156 2.85156.85937 1.95313.52735 3.90625.52735 1.875 0 3.10547-.44922t1.91407-1.25q.68359-.76172.97656-1.83594.29297-1.07422.29297-2.40234v-1.99219q-1.66016 1.32813-3.1836 1.99219-1.5039.64453-3.84765.64453-3.90625 0-6.21094-2.8125-2.28516-2.83203-2.28516-7.96875 0-2.8125.78125-4.84375.80078-2.05078 2.16797-3.53516 1.26953-1.38672 3.08594-2.14843 1.81641-.78125 3.61328-.78125 1.89453 0 3.16406.39062 1.28907.3711 2.71485 1.15234l.23437-.9375h3.4375zm-3.67187-3.51562V44.78402q-1.46485-.66407-2.73438-.9375-1.25-.29297-2.5-.29297-3.02734 0-4.76562 2.03125t-1.73828 5.89843q0 3.67188 1.28906 5.56641 1.28906 1.89453 4.27734 1.89453 1.60156 0 3.20313-.60547 1.62109-.625 2.96875-1.66015z"/><path id="path5458" d="M288.50207 44.86214h-.19532q-.82031-.19531-1.60156-.27344-.76172-.09766-1.81641-.09766-1.69921 0-3.28125.76172-1.58203.74219-3.04687 1.9336v15.48828h-3.67188v-21.8164h3.67188v3.22265q2.1875-1.75781 3.84766-2.48047 1.67968-.74219 3.41796-.74219.95704 0 1.38672.0586.42969.03905 1.28907.17578z"/><path id="path5460" d="M295.90441 37.2059h-4.14063v-3.8086h4.14063zm-.23438 25.46874h-3.67187v-21.8164h3.67187z"/><path id="path5462" d="M319.06847 61.30745q-1.83594.8789-3.49609 1.3672-1.64063.48827-3.4961.48827-2.36328 0-4.33593-.6836-1.97266-.70312-3.37891-2.10937-1.42578-1.40625-2.20703-3.55468-.78125-2.14844-.78125-5.01954 0-5.35156 2.92969-8.39843 2.94922-3.04688 7.77343-3.04688 1.875 0 3.67188.52735 1.81641.52734 3.32031 1.28906v4.08203h-.19531q-1.67969-1.3086-3.47656-2.01172-1.77735-.70312-3.47657-.70312-3.125 0-4.9414 2.10937-1.79688 2.08984-1.79688 6.15234 0 3.94532 1.75782 6.07422 1.77734 2.10938 4.98046 2.10938 1.11329 0 2.26563-.29297t2.07031-.76172q.80078-.41016 1.50391-.85937.70312-.46875 1.11328-.80079h.19531z"/><path id="path5464" d="M341.86144 62.67464h-3.67187v-2.42187q-1.85547 1.46484-3.55469 2.24609-1.69922.78125-3.75.78125-3.4375 0-5.35156-2.08984-1.91407-2.10938-1.91407-6.17188V40.85823h3.67188v12.42188q0 1.66016.15625 2.85156.15625 1.17188.66406 2.01172.52734.85938 1.36719 1.25.83984.39063 2.4414.39063 1.42579 0 3.10547-.7422 1.69922-.74218 3.16407-1.89452V40.85823h3.67187z"/><path id="path5466" d="M352.79894 62.67464h-3.67187V32.28402h3.67187z"/><path id="path5468" d="M371.39269 62.47933q-1.03516.27344-2.26562.44922-1.21094.17578-2.16797.17578-3.33985 0-5.07813-1.79688-1.73828-1.79687-1.73828-5.76172V43.94417h-2.48047v-3.08594h2.48047V34.5887h3.67188v6.26953h7.57812v3.08594h-7.57812v9.9414q0 1.71876.0781 2.69532.0781.95703.54688 1.79688.42968.78125 1.17187 1.15234.76172.35156 2.30469.35156.89844 0 1.875-.2539.97656-.27344 1.40625-.44922h.19531z"/><path id="path5470" d="M393.91222 62.67464h-3.67187v-2.42187q-1.85547 1.46484-3.55469 2.24609-1.69922.78125-3.75.78125-3.4375 0-5.35156-2.08984-1.91407-2.10938-1.91407-6.17188V40.85823h3.67188v12.42188q0 1.66016.15625 2.85156.15625 1.17188.66406 2.01172.52735.85938 1.36719 1.25.83984.39063 2.44141.39063 1.42578 0 3.10546-.7422 1.69922-.74218 3.16407-1.89452V40.85823h3.67187z"/><path id="path5472" d="M414.75207 44.86214h-.19532q-.82031-.19531-1.60156-.27344-.76172-.09766-1.81641-.09766-1.69921 0-3.28125.76172-1.58203.74219-3.04687 1.9336v15.48828h-3.67188v-21.8164h3.67188v3.22265q2.1875-1.75781 3.84766-2.48047 1.67968-.74219 3.41796-.74219.95704 0 1.38672.0586.42969.03905 1.28907.17578z"/><path id="path5474" d="M436.47082 52.1473H420.3966q0 2.01172.60547 3.51562.60546 1.48438 1.66015 2.4414 1.01563.9375 2.40235 1.40626 1.40625.46875 3.08593.46875 2.22657 0 4.47266-.8789 2.26562-.89845 3.22266-1.75782h.19531v4.0039q-1.85547.78126-3.78906 1.3086-1.9336.52734-4.0625.52734-5.42969 0-8.47657-2.92968-3.04687-2.94922-3.04687-8.35938 0-5.35156 2.91015-8.4961 2.92969-3.14452 7.69532-3.14452 4.41406 0 6.79687 2.57812 2.40235 2.57813 2.40235 7.32422zm-3.57422-2.8125q-.0195-2.89063-1.46485-4.47266-1.42578-1.58203-4.35547-1.58203-2.94921 0-4.70703 1.73828-1.73828 1.73828-1.97265 4.3164z"/><path id="path5476" d="M478.07238 36.93245q1.77734 1.95313 2.71484 4.78516.95703 2.83203.95703 6.42578 0 3.59375-.97656 6.44531-.95703 2.83203-2.69531 4.72657-1.79688 1.97265-4.25781 2.96875-2.44141.99609-5.58594.99609-3.06641 0-5.58594-1.01563-2.5-1.01562-4.25781-2.94921-1.75781-1.9336-2.71485-4.7461-.9375-2.8125-.9375-6.42578 0-3.55469.9375-6.36719.9375-2.83203 2.73438-4.84375 1.71875-1.91406 4.25781-2.92968 2.5586-1.01563 5.56641-1.01563 3.125 0 5.60547 1.03516 2.5 1.01562 4.23828 2.91015zm-.35156 11.21094q0-5.66406-2.53907-8.73047-2.53906-3.08594-6.93359-3.08594-4.43359 0-6.97266 3.08594-2.51953 3.0664-2.51953 8.73047 0 5.72266 2.57813 8.76953 2.57812 3.02735 6.91406 3.02735t6.89453-3.02735q2.57813-3.04687 2.57813-8.76953z"/><path id="path5478" d="M501.19738 44.86214h-.19531q-.82032-.19531-1.60157-.27344-.76172-.09766-1.8164-.09766-1.69922 0-3.28125.76172-1.58203.74219-3.04688 1.9336v15.48828h-3.67187v-21.8164h3.67187v3.22265q2.1875-1.75781 3.84766-2.48047 1.67969-.74219 3.41797-.74219.95703 0 1.38672.0586.42968.03905 1.28906.17578z"/><path id="path5480" d="M522.34972 60.19417q0 5.54688-2.51953 8.14453-2.51953 2.59766-7.75391 2.59766-1.73828 0-3.39843-.2539-1.64063-.23438-3.24219-.6836v-3.75h.19531q.89844.35156 2.85156.85937 1.95313.52735 3.90625.52735 1.875 0 3.10547-.44922t1.91407-1.25q.68359-.76172.97656-1.83594.29297-1.07422.29297-2.40234v-1.99219q-1.66016 1.32813-3.1836 1.99219-1.5039.64453-3.84765.64453-3.90625 0-6.21094-2.8125-2.28516-2.83203-2.28516-7.96875 0-2.8125.78125-4.84375.80078-2.05078 2.16797-3.53516 1.26953-1.38672 3.08594-2.14843 1.81641-.78125 3.61328-.78125 1.89453 0 3.16406.39062 1.28907.3711 2.71485 1.15234l.23437-.9375h3.4375zm-3.67187-3.51562V44.78402q-1.46485-.66407-2.73438-.9375-1.25-.29297-2.5-.29297-3.02734 0-4.76562 2.03125t-1.73828 5.89843q0 3.67188 1.28906 5.56641 1.28906 1.89453 4.27734 1.89453 1.60156 0 3.20313-.60547 1.62109-.625 2.96875-1.66015z"/><path id="path5482" d="M546.52941 62.67464h-3.65234v-2.32422q-.48829.33203-1.32813.9375-.82031.58594-1.60156.9375-.91797.44922-2.10938.74219-1.1914.3125-2.79297.3125-2.94921 0-5-1.95313-2.05078-1.95312-2.05078-4.98046 0-2.48047 1.05469-4.00391 1.07422-1.54297 3.04688-2.42188 1.99218-.8789 4.78515-1.1914 2.79297-.3125 5.9961-.46875v-.5664q0-1.25-.44922-2.07032-.42969-.82031-1.25-1.28906-.78125-.44922-1.875-.60547-1.09375-.15625-2.28516-.15625-1.44531 0-3.22266.39062-1.77734.3711-3.67187 1.09375h-.19531v-3.73047q1.07422-.29296 3.10547-.64453 2.03125-.35156 4.0039-.35156 2.30469 0 4.00391.39063 1.71875.37109 2.96875 1.28906 1.23047.89844 1.875 2.32422t.64453 3.53515zm-3.65234-5.3711v-6.07421q-1.67969.09766-3.96485.29297-2.26562.1953-3.59375.5664-1.58203.44922-2.55859 1.40625-.97656.9375-.97656 2.59766 0 1.875 1.13281 2.83203 1.13281.9375 3.45703.9375 1.93359 0 3.53516-.74219 1.60156-.76172 2.96875-1.8164z"/><path id="path5484" d="M571.84191 62.67464h-3.67188V50.25277q0-1.50391-.17578-2.8125-.17578-1.32813-.64453-2.07032-.48828-.8203-1.40625-1.21093-.91797-.41016-2.38281-.41016-1.50391 0-3.14453.74219-1.64063.74218-3.14453 1.89453v16.28906h-3.67188v-21.8164h3.67188v2.42187q1.71875-1.42578 3.55468-2.22656 1.83594-.80078 3.76954-.80078 3.53515 0 5.39062 2.1289 1.85547 2.1289 1.85547 6.13281z"/><path id="path5486" d="M582.85753 37.2059h-4.14062v-3.8086h4.14062zm-.23437 25.46874h-3.67188v-21.8164h3.67188z"/><path id="path5488" d="M605.7091 62.67464h-17.61719V59.9598l12.71484-16.03516h-12.4414v-3.0664h17.01172v2.61718l-12.77344 16.09375h13.10547z"/><path id="path5490" d="M627.85753 62.67464h-3.65234v-2.32422q-.48828.33203-1.32812.9375-.82032.58594-1.60157.9375-.91797.44922-2.10937.74219-1.19141.3125-2.79297.3125-2.94922 0-5-1.95313-2.05078-1.95312-2.05078-4.98046 0-2.48047 1.05469-4.00391 1.07421-1.54297 3.04687-2.42188 1.99219-.8789 4.78516-1.1914 2.79297-.3125 5.99609-.46875v-.5664q0-1.25-.44922-2.07032-.42969-.82031-1.25-1.28906-.78125-.44922-1.875-.60547-1.09375-.15625-2.28515-.15625-1.44532 0-3.22266.39062-1.77734.3711-3.67188 1.09375h-.19531v-3.73047q1.07422-.29296 3.10547-.64453 2.03125-.35156 4.00391-.35156 2.30468 0 4.0039.39063 1.71875.37109 2.96875 1.28906 1.23047.89844 1.875 2.32422t.64453 3.53515zm-3.65234-5.3711v-6.07421q-1.67969.09766-3.96484.29297-2.26563.1953-3.59375.5664-1.58203.44922-2.5586 1.40625-.97656.9375-.97656 2.59766 0 1.875 1.13281 2.83203 1.13282.9375 3.45703.9375 1.9336 0 3.53516-.74219 1.60156-.76172 2.96875-1.8164z"/><path id="path5492" d="M646.25597 62.47933q-1.03515.27344-2.26562.44922-1.21094.17578-2.16797.17578-3.33985 0-5.07813-1.79688-1.73828-1.79687-1.73828-5.76172V43.94417h-2.48047v-3.08594h2.48047V34.5887h3.67188v6.26953h7.57812v3.08594h-7.57812v9.9414q0 1.71876.0781 2.69532.0781.95703.54688 1.79688.42968.78125 1.17187 1.15234.76172.35156 2.30469.35156.89844 0 1.875-.2539.97656-.27344 1.40625-.44922h.19531z"/><path id="path5494" d="M654.63488 37.2059h-4.14063v-3.8086h4.14063zm-.23438 25.46874h-3.67187v-21.8164h3.67187z"/><path id="path5496" d="M680.25988 51.7762q0 5.33203-2.73438 8.41797-2.73437 3.08594-7.32422 3.08594-4.6289 0-7.36328-3.08594-2.71484-3.08594-2.71484-8.41797 0-5.33203 2.71484-8.41797 2.73438-3.10546 7.36328-3.10546 4.58985 0 7.32422 3.10546 2.73438 3.08594 2.73438 8.41797zm-3.78906 0q0-4.23828-1.66016-6.28906-1.66016-2.07031-4.60938-2.07031-2.98828 0-4.64843 2.07031-1.64063 2.05078-1.64063 6.28906 0 4.10157 1.66016 6.23047 1.66015 2.10938 4.6289 2.10938 2.92969 0 4.58985-2.08985 1.67969-2.10937 1.67969-6.25z"/><path id="path5498" d="M704.18566 62.67464h-3.67188V50.25277q0-1.50391-.17578-2.8125-.17578-1.32813-.64453-2.07032-.48828-.8203-1.40625-1.21093-.91797-.41016-2.38281-.41016-1.50391 0-3.14453.74219-1.64063.74218-3.14453 1.89453v16.28906h-3.67188v-21.8164h3.67188v2.42187q1.71875-1.42578 3.55468-2.22656 1.83594-.80078 3.76954-.80078 3.53515 0 5.39062 2.1289 1.85547 2.1289 1.85547 6.13281z"/><path id="path5500" d="M748.07238 60.56527q-1.07422.46875-1.95313.8789-.85937.41016-2.26562.85938-1.19141.3711-2.59766.625-1.38672.27343-3.0664.27343-3.16407 0-5.76172-.8789-2.57813-.89844-4.49219-2.79297-1.875-1.85547-2.92969-4.70703-1.05469-2.8711-1.05469-6.66016 0-3.59375 1.01563-6.42578 1.01562-2.83203 2.92969-4.78516 1.85547-1.89453 4.47265-2.89062 2.63672-.9961 5.83985-.9961 2.34375 0 4.66797.56641 2.34375.5664 5.19531 1.99219v4.58984h-.29297q-2.40234-2.01172-4.76563-2.92968-2.36328-.91797-5.05859-.91797-2.20703 0-3.98437.72265-1.75782.70313-3.14454 2.20703-1.34765 1.46485-2.10937 3.71094-.74219 2.22656-.74219 5.15625 0 3.0664.82031 5.27344.83985 2.20703 2.14844 3.59375 1.36719 1.44531 3.1836 2.14844 1.83593.6836 3.86718.6836 2.79297 0 5.23438-.95704 2.4414-.95703 4.57031-2.8711h.27344z"/><path id="path5502" d="M771.84191 51.7762q0 5.33203-2.73438 8.41797-2.73437 3.08594-7.32421 3.08594-4.62891 0-7.36329-3.08594-2.71484-3.08594-2.71484-8.41797 0-5.33203 2.71484-8.41797 2.73438-3.10546 7.36329-3.10546 4.58984 0 7.32421 3.10546 2.73438 3.08594 2.73438 8.41797zm-3.78906 0q0-4.23828-1.66016-6.28906-1.66016-2.07031-4.60937-2.07031-2.98829 0-4.64844 2.07031-1.64063 2.05078-1.64063 6.28906 0 4.10157 1.66016 6.23047 1.66016 2.10938 4.62891 2.10938 2.92968 0 4.58984-2.08985 1.67969-2.10937 1.67969-6.25z"/><path id="path5504" d="M791.13878 44.86214h-.19531q-.82031-.19531-1.60156-.27344-.76172-.09766-1.81641-.09766-1.69922 0-3.28125.76172-1.58203.74219-3.04687 1.9336v15.48828h-3.67188v-21.8164h3.67188v3.22265q2.1875-1.75781 3.84765-2.48047 1.67969-.74219 3.41797-.74219.95703 0 1.38672.0586.42969.03905 1.28906.17578z"/><path id="path5506" d="M813.79503 51.50277q0 2.65625-.76171 4.86328-.76172 2.1875-2.14844 3.71093-1.28906 1.44532-3.04688 2.2461-1.73828.78125-3.6914.78125-1.69922 0-3.08594-.3711-1.36719-.37109-2.79297-1.15234v9.14063h-3.67187V40.85823h3.67187v2.28516q1.46484-1.23047 3.28125-2.05078 1.83594-.83984 3.90625-.83984 3.94531 0 6.13281 2.98828 2.20703 2.96875 2.20703 8.26172zm-3.78906.09766q0-3.94532-1.34765-5.89844-1.34766-1.95313-4.14063-1.95313-1.58203 0-3.18359.6836-1.60157.6836-3.06641 1.79687v12.36328q1.5625.70313 2.67578.95703 1.13281.25391 2.5586.25391 3.0664 0 4.78515-2.07031t1.71875-6.13281z"/><path id="path5508" d="M838.11144 51.7762q0 5.33203-2.73437 8.41797-2.73438 3.08594-7.32422 3.08594-4.62891 0-7.36328-3.08594-2.71485-3.08594-2.71485-8.41797 0-5.33203 2.71485-8.41797 2.73437-3.10546 7.36328-3.10546 4.58984 0 7.32422 3.10546 2.73437 3.08594 2.73437 8.41797zm-3.78906 0q0-4.23828-1.66016-6.28906-1.66015-2.07031-4.60937-2.07031-2.98828 0-4.64844 2.07031-1.64063 2.05078-1.64063 6.28906 0 4.10157 1.66016 6.23047 1.66016 2.10938 4.62891 2.10938 2.92968 0 4.58984-2.08985 1.67969-2.10937 1.67969-6.25z"/><path id="path5510" d="M857.40832 44.86214h-.19532q-.82031-.19531-1.60156-.27344-.76172-.09766-1.81641-.09766-1.69921 0-3.28125.76172-1.58203.74219-3.04687 1.9336v15.48828h-3.67188v-21.8164h3.67188v3.22265q2.1875-1.75781 3.84766-2.48047 1.67968-.74219 3.41796-.74219.95704 0 1.38672.0586.42969.03905 1.28907.17578z"/><path id="path5512" d="M877.11535 62.67464H873.463v-2.32422q-.48828.33203-1.32812.9375-.82031.58594-1.60156.9375-.91797.44922-2.10938.74219-1.19141.3125-2.79297.3125-2.94922 0-5-1.95313-2.05078-1.95312-2.05078-4.98046 0-2.48047 1.05469-4.00391 1.07422-1.54297 3.04687-2.42188 1.99219-.8789 4.78516-1.1914 2.79297-.3125 5.99609-.46875v-.5664q0-1.25-.44922-2.07032-.42968-.82031-1.25-1.28906-.78125-.44922-1.875-.60547-1.09375-.15625-2.28515-.15625-1.44531 0-3.22266.39062-1.77734.3711-3.67187 1.09375h-.19532v-3.73047q1.07422-.29296 3.10547-.64453 2.03125-.35156 4.00391-.35156 2.30469 0 4.00391.39063 1.71875.37109 2.96875 1.28906 1.23046.89844 1.875 2.32422.64453 1.42578.64453 3.53515zm-3.65235-5.3711v-6.07421q-1.67968.09766-3.96484.29297-2.26563.1953-3.59375.5664-1.58203.44922-2.55859 1.40625-.97657.9375-.97657 2.59766 0 1.875 1.13282 2.83203 1.13281.9375 3.45703.9375 1.93359 0 3.53515-.74219 1.60157-.76172 2.96875-1.8164z"/><path id="path5514" d="M895.51378 62.47933q-1.03515.27344-2.26562.44922-1.21094.17578-2.16797.17578-3.33984 0-5.07812-1.79688-1.73829-1.79687-1.73829-5.76172V43.94417h-2.48046v-3.08594h2.48046V34.5887h3.67188v6.26953h7.57812v3.08594h-7.57812v9.9414q0 1.71876.0781 2.69532.0781.95703.54688 1.79688.42969.78125 1.17187 1.15234.76172.35156 2.30469.35156.89844 0 1.875-.2539.97656-.27344 1.40625-.44922h.19531z"/><path id="path5516" d="M918.2091 52.1473h-16.07422q0 2.01172.60547 3.51562.60547 1.48438 1.66015 2.4414 1.01563.9375 2.40235 1.40626 1.40625.46875 3.08593.46875 2.22657 0 4.47266-.8789 2.26563-.89845 3.22266-1.75782h.19531v4.0039q-1.85547.78126-3.78906 1.3086-1.9336.52734-4.0625.52734-5.42969 0-8.47657-2.92968-3.04687-2.94922-3.04687-8.35938 0-5.35156 2.91016-8.4961 2.92968-3.14452 7.69531-3.14452 4.41406 0 6.79687 2.57812 2.40235 2.57813 2.40235 7.32422zm-3.57422-2.8125q-.0195-2.89063-1.46485-4.47266-1.42578-1.58203-4.35546-1.58203-2.94922 0-4.70704 1.73828-1.73828 1.73828-1.97265 4.3164z"/><path id="path5518" d="M959.26378 54.37386q0 1.69922-.80078 3.35937-.78125 1.66016-2.20703 2.8125-1.5625 1.25-3.65234 1.95313-2.07031.70312-5 .70312-3.14453 0-5.66406-.58593-2.5-.58594-5.09766-1.73828v-4.84375h.27344q2.20703 1.83593 5.09765 2.83203 2.89063.9961 5.42969.9961 3.59375 0 5.58594-1.34767 2.01172-1.34765 2.01172-3.59375 0-1.93359-.95703-2.85156-.9375-.91797-2.8711-1.42578-1.46484-.39062-3.18359-.64453-1.69922-.2539-3.61328-.64453-3.86719-.82031-5.74219-2.79297-1.85547-1.99219-1.85547-5.17578 0-3.65235 3.08594-5.97656 3.08594-2.34375 7.83203-2.34375 3.06641 0 5.625.58593 2.55859.58594 4.53125 1.44532v4.5703h-.27344q-1.66015-1.40624-4.375-2.32421-2.69531-.9375-5.52734-.9375-3.10547 0-5 1.28906-1.875 1.28906-1.875 3.32031 0 1.81641.9375 2.85157.9375 1.03515 3.30078 1.58203 1.25.27344 3.55469.66406 2.30468.39063 3.90625.80078 3.24218.85938 4.88281 2.59766 1.64062 1.73828 1.64062 4.86328z"/><path id="path5520" d="M976.50988 62.47933q-1.03516.27344-2.26563.44922-1.21093.17578-2.16797.17578-3.33984 0-5.07812-1.79688-1.73828-1.79687-1.73828-5.76172V43.94417h-2.48047v-3.08594h2.48047V34.5887h3.67187v6.26953h7.57813v3.08594h-7.57813v9.9414q0 1.71876.0781 2.69532.0781.95703.54687 1.79688.42969.78125 1.17188 1.15234.76172.35156 2.30469.35156.89843 0 1.875-.2539.97656-.27344 1.40625-.44922h.19531z"/><path id="path5522" d="M997.8966 62.67464h-3.65235v-2.32422q-.48828.33203-1.32812.9375-.82031.58594-1.60156.9375-.91797.44922-2.10938.74219-1.19141.3125-2.79297.3125-2.94922 0-5-1.95313-2.05078-1.95312-2.05078-4.98046 0-2.48047 1.05469-4.00391 1.07422-1.54297 3.04687-2.42188 1.99219-.8789 4.78516-1.1914 2.79297-.3125 5.99609-.46875v-.5664q0-1.25-.44922-2.07032-.42968-.82031-1.25-1.28906-.78125-.44922-1.875-.60547-1.09375-.15625-2.28515-.15625-1.44531 0-3.22266.39062-1.77734.3711-3.67187 1.09375h-.19532v-3.73047q1.07422-.29296 3.10547-.64453 2.03125-.35156 4.00391-.35156 2.30469 0 4.00391.39063 1.71875.37109 2.96875 1.28906 1.23046.89844 1.875 2.32422.64453 1.42578.64453 3.53515zm-3.65235-5.3711v-6.07421q-1.67968.09766-3.96484.29297-2.26563.1953-3.59375.5664-1.58203.44922-2.55859 1.40625-.97657.9375-.97657 2.59766 0 1.875 1.13282 2.83203 1.13281.9375 3.45703.9375 1.93359 0 3.53515-.74219 1.60157-.76172 2.96875-1.8164z"/><path id="path5524" d="M1016.295 62.47933q-1.0351.27344-2.2656.44922-1.2109.17578-2.168.17578-3.3398 0-5.0781-1.79688-1.7383-1.79687-1.7383-5.76172V43.94417h-2.4804v-3.08594h2.4804V34.5887h3.6719v6.26953h7.5781v3.08594h-7.5781v9.9414q0 1.71876.078 2.69532.078.95703.5469 1.79688.4297.78125 1.1719 1.15234.7617.35156 2.3047.35156.8984 0 1.875-.2539.9765-.27344 1.4062-.44922h.1953z"/><path id="path5526" d="M1024.6739 37.2059h-4.1406v-3.8086h4.1406zm-.2343 25.46874h-3.6719v-21.8164h3.6719z"/><path id="path5528" d="M1047.2911 56.38558q0 2.98828-2.4804 4.90234-2.461 1.91406-6.7383 1.91406-2.4219 0-4.4531-.5664-2.0118-.58594-3.379-1.26953v-4.1211h.1954q1.7382 1.3086 3.8671 2.08985 2.129.76172 4.0821.76172 2.4219 0 3.789-.78125 1.3672-.78125 1.3672-2.46094 0-1.28906-.7422-1.95313-.7421-.66406-2.8515-1.1328-.7813-.1758-2.0508-.41017-1.25-.23437-2.2852-.5078-2.8711-.76173-4.082-2.22657-1.1914-1.48438-1.1914-3.63281 0-1.34766.5469-2.53907.5664-1.1914 1.6992-2.1289 1.0937-.91797 2.7734-1.44531 1.6993-.54688 3.7891-.54688 1.9531 0 3.9453.48828 2.0117.46875 3.3399 1.15235v3.92578h-.1954q-1.4062-1.03516-3.4179-1.73828-2.0117-.72266-3.9453-.72266-2.0118 0-3.3985.78125-1.3867.76172-1.3867 2.28516 0 1.34765.8398 2.03125.8204.68359 2.6563 1.11328 1.0156.23437 2.2656.46875 1.2696.23437 2.1094.42968 2.5586.58594 3.9453 2.01172 1.3867 1.44532 1.3867 3.82813z"/><path id="path5530" d="M1063.8732 62.47933q-1.0352.27344-2.2657.44922-1.2109.17578-2.1679.17578-3.3399 0-5.0782-1.79688-1.7382-1.79687-1.7382-5.76172V43.94417h-2.4805v-3.08594h2.4805V34.5887h3.6718v6.26953h7.5782v3.08594h-7.5782v9.9414q0 1.71876.078 2.69532.078.95703.5468 1.79688.4297.78125 1.1719 1.15234.7617.35156 2.3047.35156.8984 0 1.875-.2539.9766-.27344 1.4062-.44922h.1954z"/><path id="path5532" d="M1072.2521 37.2059h-4.1407v-3.8086h4.1407zm-.2344 25.46874h-3.6719v-21.8164h3.6719z"/><path id="path5534" d="M1095.4161 61.30745q-1.8359.8789-3.4961 1.3672-1.6406.48827-3.4961.48827-2.3632 0-4.3359-.6836-1.9727-.70312-3.3789-2.10937-1.4258-1.40625-2.207-3.55468-.7813-2.14844-.7813-5.01954 0-5.35156 2.9297-8.39843 2.9492-3.04688 7.7734-3.04688 1.875 0 3.6719.52735 1.8164.52734 3.3203 1.28906v4.08203h-.1953q-1.6797-1.3086-3.4765-2.01172-1.7774-.70312-3.4766-.70312-3.125 0-4.9414 2.10937-1.7969 2.08984-1.7969 6.15234 0 3.94532 1.7578 6.07422 1.7774 2.10938 4.9805 2.10938 1.1133 0 2.2656-.29297 1.1524-.29297 2.0703-.76172.8008-.41016 1.5039-.85937.7032-.46875 1.1133-.80079h.1953z"/><path id="path5536" d="M1117.0763 62.67464h-3.6524v-2.32422q-.4882.33203-1.3281.9375-.8203.58594-1.6015.9375-.918.44922-2.1094.74219-1.1914.3125-2.793.3125-2.9492 0-5-1.95313-2.0508-1.95312-2.0508-4.98046 0-2.48047 1.0547-4.00391 1.0742-1.54297 3.0469-2.42188 1.9922-.8789 4.7851-1.1914 2.793-.3125 5.9961-.46875v-.5664q0-1.25-.4492-2.07032-.4297-.82031-1.25-1.28906-.7812-.44922-1.875-.60547-1.0937-.15625-2.2851-.15625-1.4453 0-3.2227.39062-1.7773.3711-3.6719 1.09375h-.1953v-3.73047q1.0742-.29296 3.1055-.64453 2.0312-.35156 4.0039-.35156 2.3047 0 4.0039.39063 1.7188.37109 2.9688 1.28906 1.2304.89844 1.875 2.32422.6445 1.42578.6445 3.53515zm-3.6524-5.3711v-6.07421q-1.6796.09766-3.9648.29297-2.2656.1953-3.5938.5664-1.582.44922-2.5585 1.40625-.9766.9375-.9766 2.59766 0 1.875 1.1328 2.83203 1.1328.9375 3.457.9375 1.9336 0 3.5352-.74219 1.6016-.76172 2.9687-1.8164z"/><path id="path5538" d="M1127.8575 62.67464h-3.6718V32.28402h3.6718z"/><path id="path5540" d="M1174.0489 48.16292q0 3.96485-1.7382 7.1875-1.7188 3.22266-4.5899 5-1.9922 1.23047-4.4531 1.77735-2.4414.54687-6.4453.54687h-7.3438V33.59261h7.2657q4.2578 0 6.7578.625 2.5195.60547 4.2578 1.67969 2.9687 1.85547 4.6289 4.9414 1.6601 3.08594 1.6601 7.32422zm-4.0429-.05859q0-3.41797-1.1914-5.76172-1.1914-2.34375-3.5547-3.6914-1.7188-.97656-3.6524-1.34766-1.9336-.39062-4.6289-.39062h-3.6328v22.4414h3.6328q2.793 0 4.8633-.41015 2.0899-.41016 3.8281-1.52344 2.168-1.38672 3.2422-3.65235 1.0938-2.26562 1.0938-5.66406z"/><path id="path5542" d="M1196.9591 62.67464h-3.6523v-2.32422q-.4883.33203-1.3282.9375-.8203.58594-1.6015.9375-.918.44922-2.1094.74219-1.1914.3125-2.793.3125-2.9492 0-5-1.95313-2.0508-1.95312-2.0508-4.98046 0-2.48047 1.0547-4.00391 1.0742-1.54297 3.0469-2.42188 1.9922-.8789 4.7852-1.1914 2.7929-.3125 5.9961-.46875v-.5664q0-1.25-.4493-2.07032-.4297-.82031-1.25-1.28906-.7812-.44922-1.875-.60547-1.0937-.15625-2.2851-.15625-1.4453 0-3.2227.39062-1.7773.3711-3.6719 1.09375h-.1953v-3.73047q1.0743-.29296 3.1055-.64453 2.0313-.35156 4.0039-.35156 2.3047 0 4.0039.39063 1.7188.37109 2.9688 1.28906 1.2304.89844 1.875 2.32422.6445 1.42578.6445 3.53515zm-3.6523-5.3711v-6.07421q-1.6797.09766-3.9649.29297-2.2656.1953-3.5937.5664-1.5821.44922-2.5586 1.40625-.9766.9375-.9766 2.59766 0 1.875 1.1328 2.83203 1.1328.9375 3.457.9375 1.9336 0 3.5352-.74219 1.6016-.76172 2.9688-1.8164z"/><path id="path5544" d="M1215.3575 62.47933q-1.0351.27344-2.2656.44922-1.2109.17578-2.168.17578-3.3398 0-5.0781-1.79688-1.7383-1.79687-1.7383-5.76172V43.94417h-2.4804v-3.08594h2.4804V34.5887h3.6719v6.26953h7.5781v3.08594h-7.5781v9.9414q0 1.71876.078 2.69532.078.95703.5469 1.79688.4297.78125 1.1719 1.15234.7617.35156 2.3047.35156.8984 0 1.875-.2539.9765-.27344 1.4062-.44922h.1953z"/><path id="path5546" d="M1236.7443 62.67464h-3.6524v-2.32422q-.4883.33203-1.3281.9375-.8203.58594-1.6016.9375-.9179.44922-2.1094.74219-1.1914.3125-2.7929.3125-2.9492 0-5-1.95313-2.0508-1.95312-2.0508-4.98046 0-2.48047 1.0547-4.00391 1.0742-1.54297 3.0469-2.42188 1.9921-.8789 4.7851-1.1914t5.9961-.46875v-.5664q0-1.25-.4492-2.07032-.4297-.82031-1.25-1.28906-.7813-.44922-1.875-.60547-1.0938-.15625-2.2852-.15625-1.4453 0-3.2226.39062-1.7774.3711-3.6719 1.09375h-.1953v-3.73047q1.0742-.29296 3.1055-.64453 2.0312-.35156 4.0039-.35156 2.3047 0 4.0039.39063 1.7187.37109 2.9687 1.28906 1.2305.89844 1.875 2.32422.6446 1.42578.6446 3.53515zm-3.6524-5.3711v-6.07421q-1.6797.09766-3.9648.29297-2.2657.1953-3.5938.5664-1.582.44922-2.5586 1.40625-.9765.9375-.9765 2.59766 0 1.875 1.1328 2.83203 1.1328.9375 3.457.9375 1.9336 0 3.5352-.74219 1.6015-.76172 2.9687-1.8164z"/><path id="path5548" d="M1263.0138 51.60042q0 2.73438-.7813 4.92188-.7617 2.1875-2.0703 3.67187-1.3867 1.54297-3.0469 2.32422-1.6601.76172-3.6523.76172-1.8555 0-3.2422-.44922-1.3867-.42969-2.7344-1.17187l-.2343 1.01562h-3.4375V32.28402h3.6718v10.85937q1.543-1.26953 3.2813-2.07031 1.7383-.82031 3.9062-.82031 3.8672 0 6.0938 2.96875 2.2461 2.96875 2.2461 8.3789zm-3.7891.09766q0-3.90625-1.289-5.91797-1.2891-2.03125-4.1602-2.03125-1.6016 0-3.2422.70313-1.6406.6836-3.0469 1.77734v12.5q1.5625.70313 2.6758.97657 1.1328.27343 2.5586.27343 3.0469 0 4.7656-1.99218 1.7383-2.01172 1.7383-6.28907z"/><path id="path5550" d="M1285.6896 62.67464h-3.6524v-2.32422q-.4883.33203-1.3281.9375-.8203.58594-1.6016.9375-.9179.44922-2.1093.74219-1.1914.3125-2.793.3125-2.9492 0-5-1.95313-2.0508-1.95312-2.0508-4.98046 0-2.48047 1.0547-4.00391 1.0742-1.54297 3.0469-2.42188 1.9922-.8789 4.7851-1.1914 2.793-.3125 5.9961-.46875v-.5664q0-1.25-.4492-2.07032-.4297-.82031-1.25-1.28906-.7812-.44922-1.875-.60547-1.0937-.15625-2.2852-.15625-1.4453 0-3.2226.39062-1.7774.3711-3.6719 1.09375h-.1953v-3.73047q1.0742-.29296 3.1055-.64453 2.0312-.35156 4.0039-.35156 2.3047 0 4.0039.39063 1.7187.37109 2.9687 1.28906 1.2305.89844 1.875 2.32422.6446 1.42578.6446 3.53515zm-3.6524-5.3711v-6.07421q-1.6797.09766-3.9648.29297-2.2656.1953-3.5938.5664-1.582.44922-2.5586 1.40625-.9765.9375-.9765 2.59766 0 1.875 1.1328 2.83203 1.1328.9375 3.457.9375 1.9336 0 3.5352-.74219 1.6015-.76172 2.9687-1.8164z"/><path id="path5552" d="M1308.3458 56.38558q0 2.98828-2.4805 4.90234-2.4609 1.91406-6.7382 1.91406-2.4219 0-4.4532-.5664-2.0117-.58594-3.3789-1.26953v-4.1211h.1953q1.7383 1.3086 3.8672 2.08985 2.1289.76172 4.0821.76172 2.4218 0 3.789-.78125t1.3672-2.46094q0-1.28906-.7422-1.95313-.7422-.66406-2.8515-1.1328-.7813-.1758-2.0508-.41017-1.25-.23437-2.2852-.5078-2.8711-.76173-4.082-2.22657-1.1914-1.48438-1.1914-3.63281 0-1.34766.5469-2.53907.5664-1.1914 1.6992-2.1289 1.0937-.91797 2.7734-1.44531 1.6992-.54688 3.7891-.54688 1.9531 0 3.9453.48828 2.0117.46875 3.3398 1.15235v3.92578h-.1953q-1.4062-1.03516-3.4179-1.73828-2.0118-.72266-3.9454-.72266-2.0117 0-3.3984.78125-1.3867.76172-1.3867 2.28516 0 1.34765.8398 2.03125.8203.68359 2.6563 1.11328 1.0156.23437 2.2656.46875 1.2695.23437 2.1094.42968 2.5586.58594 3.9453 2.01172 1.3867 1.44532 1.3867 3.82813z"/><path id="path5554" d="M1331.8614 52.1473h-16.0742q0 2.01172.6055 3.51562.6055 1.48438 1.6601 2.4414 1.0157.9375 2.4024 1.40626 1.4062.46875 3.0859.46875 2.2266 0 4.4727-.8789 2.2656-.89845 3.2226-1.75782h.1954v4.0039q-1.8555.78126-3.7891 1.3086t-4.0625.52734q-5.4297 0-8.4766-2.92968-3.0468-2.94922-3.0468-8.35938 0-5.35156 2.9101-8.4961 2.9297-3.14452 7.6953-3.14452 4.4141 0 6.7969 2.57812 2.4023 2.57813 2.4023 7.32422zm-3.5742-2.8125q-.019-2.89063-1.4648-4.47266-1.4258-1.58203-4.3555-1.58203-2.9492 0-4.707 1.73828-1.7383 1.73828-1.9727 4.3164z"/></g></svg>