<svg xmlns="http://www.w3.org/2000/svg" role="img" viewBox="-5.91 -5.91 307.06 68.31"><title>Food and Agriculture Organization Map Catalog logo</title><defs id="defs789"><style id="style787">.cls-1{fill:#fff}</style></defs><path id="path793" fill="#000" d="M77.51 27.2h5.65v1.63h-3.6v3H83v1.67h-3.44v4.86h-2z" class="cls-1" transform="translate(-9.96 -8.33)"/><path id="path795" fill="#000" d="M87.63 30c1.68 0 3.61.88 3.61 4.23s-1.93 4.26-3.61 4.26-3.63-.8-3.63-4.26S86 30 87.63 30zm0 7.08c1.28 0 1.57-1.47 1.57-2.85s-.29-2.83-1.57-2.83-1.58 1.46-1.58 2.83.3 2.85 1.58 2.85z" class="cls-1" transform="translate(-9.96 -8.33)"/><path id="path797" fill="#000" d="M96.21 30c1.68 0 3.62.88 3.62 4.23s-1.94 4.26-3.62 4.26-3.63-.8-3.63-4.26S94.53 30 96.21 30zm0 7.08c1.28 0 1.57-1.47 1.57-2.85s-.29-2.83-1.57-2.83-1.58 1.46-1.58 2.83.31 2.85 1.58 2.85z" class="cls-1" transform="translate(-9.96 -8.33)"/><path id="path799" fill="#000" d="M108.15 26.37V37a10.1 10.1 0 0 0 .07 1.41h-1.86a11.76 11.76 0 0 1-.06-1.28 2.22 2.22 0 0 1-2.19 1.41c-2 0-2.89-2-2.89-4.24 0-2.69 1.07-4.25 2.84-4.25a2.21 2.21 0 0 1 2.13 1.31v-4.99zM104.6 37c1.17 0 1.57-1.26 1.57-2.81s-.45-2.77-1.53-2.77-1.49 1.07-1.49 2.72c0 1.93.3 2.86 1.45 2.86z" class="cls-1" transform="translate(-9.96 -8.33)"/><path id="path801" fill="#000" d="M114.53 30.6a5.83 5.83 0 0 1 2.61-.6c2.56 0 3.15 1.24 3.15 3.31v3.6a9.85 9.85 0 0 0 .11 1.45h-1.79a3.94 3.94 0 0 1-.11-1.12 2.65 2.65 0 0 1-2.3 1.25 2.36 2.36 0 0 1-2.46-2.42c0-2.23 1.82-2.8 4.33-2.8h.4V33a1.42 1.42 0 0 0-1.53-1.57 3.81 3.81 0 0 0-2.26.8zm3.9 3.73h-.17c-1.7 0-2.71.35-2.71 1.55a1.19 1.19 0 0 0 1.27 1.26c1.18 0 1.61-.87 1.61-2.35z" class="cls-1" transform="translate(-9.96 -8.33)"/><path id="path803" fill="#000" d="M122.12 31.48a11 11 0 0 0-.06-1.36h1.85c0 .42.07.85.07 1.27A2.4 2.4 0 0 1 126.2 30c1.87 0 2.43 1.39 2.43 3v5.31h-2v-4.89c0-1.26-.32-1.79-1.14-1.79-1 0-1.41.88-1.41 1.93v4.8h-2z" class="cls-1" transform="translate(-9.96 -8.33)"/><path id="path805" fill="#000" d="M137.18 26.37V37a10.1 10.1 0 0 0 .07 1.41h-1.86a11.76 11.76 0 0 1-.06-1.28h-.05a2.22 2.22 0 0 1-2.19 1.41c-2.05 0-2.9-2-2.9-4.24 0-2.69 1.07-4.25 2.85-4.25a2.22 2.22 0 0 1 2.13 1.31v-4.99zM133.63 37c1.17 0 1.57-1.26 1.57-2.81s-.45-2.77-1.54-2.77-1.48 1.07-1.48 2.72c0 1.93.3 2.86 1.45 2.86z" class="cls-1" transform="translate(-9.96 -8.33)"/><path id="path807" fill="#000" d="M148.16 35.67h-3.84l-.8 2.69h-2l3.74-11.16h2.24l3.6 11.16H149zm-.43-1.56l-1.41-5.22-1.53 5.22z" class="cls-1" transform="translate(-9.96 -8.33)"/><path id="path809" fill="#000" d="M152.3 39.64a5.17 5.17 0 0 0 2.43.7c1.87 0 2.17-1.29 2.17-2.59V37a2.25 2.25 0 0 1-2.17 1.39c-1.15 0-2.88-.77-2.88-4.09 0-2.27.82-4.27 3-4.27A2.36 2.36 0 0 1 157 31.4c0-.43.05-.84.07-1.28h1.79c0 .44-.07.87-.07 1.3v6.08c0 2.57-.78 4.41-3.8 4.41a8.46 8.46 0 0 1-2.83-.51zm2.86-2.73c1.25 0 1.74-.9 1.74-2.77s-.65-2.66-1.6-2.64-1.43 1-1.43 2.65c0 1.94.62 2.76 1.29 2.76z" class="cls-1" transform="translate(-9.96 -8.33)"/><path id="path811" fill="#000" d="M160.69 31.48a13.32 13.32 0 0 0-.06-1.36h1.79c0 .5.06 1 .06 1.51a2.3 2.3 0 0 1 2.1-1.63 3 3 0 0 1 .33 0v1.9a1.94 1.94 0 0 0-.56-.08c-.81 0-1.71.5-1.71 2v4.51h-2z" class="cls-1" transform="translate(-9.96 -8.33)"/><path id="path813" fill="#000" d="M166.41 26.62h2.05v1.95h-2.05zm0 3.5h2v8.24h-2z" class="cls-1" transform="translate(-9.96 -8.33)"/><path id="path815" fill="#000" d="M176 38.15a5.51 5.51 0 0 1-1.95.34c-2.71 0-3.87-1.9-3.87-4.24s1.22-4.25 4-4.25a5.48 5.48 0 0 1 1.73.33l-.11 1.57a3.12 3.12 0 0 0-1.39-.4c-1.5 0-2.16 1-2.16 2.77 0 1.53.74 2.72 2.26 2.72a3.26 3.26 0 0 0 1.4-.4z" class="cls-1" transform="translate(-9.96 -8.33)"/><path id="path817" fill="#000" d="M183.73 37a11 11 0 0 0 .06 1.36h-1.86c0-.42-.06-.85-.06-1.26h-.05a2.41 2.41 0 0 1-2.19 1.39c-1.87 0-2.43-1.39-2.43-3.06v-5.31h2v4.95c0 1.26.35 1.79 1.18 1.79 1.06 0 1.36-1 1.36-2v-4.74h2z" class="cls-1" transform="translate(-9.96 -8.33)"/><path id="path819" fill="#000" d="M185.71 26.37h2v12h-2z" class="cls-1" transform="translate(-9.96 -8.33)"/><path id="path821" fill="#000" d="M190.4 28.43l2-.61v2.3h1.6v1.46h-1.64v4.27c0 .88.32 1.14.89 1.14a1.54 1.54 0 0 0 .75-.18v1.41a3.07 3.07 0 0 1-1.32.27c-1.47 0-2.31-.67-2.31-2.4v-4.51h-1.31v-1.46h1.31z" class="cls-1" transform="translate(-9.96 -8.33)"/><path id="path823" fill="#000" d="M201.8 37a10.77 10.77 0 0 0 .07 1.36H200c0-.42-.06-.85-.06-1.26a2.43 2.43 0 0 1-2.2 1.39c-1.87 0-2.42-1.39-2.42-3.06v-5.31h2v4.95c0 1.26.35 1.79 1.18 1.79 1.06 0 1.36-1 1.36-2v-4.74h2z" class="cls-1" transform="translate(-9.96 -8.33)"/><path id="path825" fill="#000" d="M203.65 31.48a11 11 0 0 0-.06-1.36h1.79c0 .5.07 1 .07 1.51a2.29 2.29 0 0 1 2.12-1.63 3.18 3.18 0 0 1 .34 0v1.9a2 2 0 0 0-.56-.08c-.82 0-1.71.5-1.71 2v4.51h-2z" class="cls-1" transform="translate(-9.96 -8.33)"/><path id="path827" fill="#000" d="M215.1 38a6 6 0 0 1-2.46.53c-2.66 0-3.81-1.9-3.81-4.13 0-2.46 1.3-4.36 3.39-4.36 1.78 0 3.3 1 3.3 4.39v.39h-4.77c0 1.41.56 2.25 2.1 2.25a3.25 3.25 0 0 0 2.15-.64zm-1.5-4.43c0-1.45-.48-2.19-1.38-2.19s-1.47 1.1-1.47 2.19z" class="cls-1" transform="translate(-9.96 -8.33)"/><path id="path829" fill="#000" d="M225.49 27c2.32 0 4.44 1.73 4.44 5.74s-2.12 5.74-4.44 5.74-4.49-1.69-4.49-5.7 2.17-5.78 4.49-5.78zm0 9.91c1.29 0 2.33-1.1 2.33-4.17s-1-4.17-2.33-4.17-2.34 1.1-2.34 4.17 1.04 4.26 2.34 4.26z" class="cls-1" transform="translate(-9.96 -8.33)"/><path id="path831" fill="#000" d="M231.62 31.48a11 11 0 0 0-.06-1.36h1.79c0 .5.07 1 .07 1.51a2.29 2.29 0 0 1 2.12-1.63 3.18 3.18 0 0 1 .34 0v1.9a2 2 0 0 0-.56-.08c-.82 0-1.71.5-1.71 2v4.51h-2z" class="cls-1" transform="translate(-9.96 -8.33)"/><path id="path833" fill="#000" d="M237.28 39.64a5.24 5.24 0 0 0 2.43.7c1.87 0 2.18-1.29 2.18-2.59V37a2.26 2.26 0 0 1-2.18 1.39c-1.15 0-2.88-.77-2.88-4.09 0-2.27.82-4.27 3-4.27A2.33 2.33 0 0 1 242 31.4c0-.43 0-.84.06-1.28h1.79c0 .44-.06.87-.06 1.3v6.08c0 2.57-.79 4.41-3.81 4.41a8.46 8.46 0 0 1-2.83-.51zm2.87-2.73c1.24 0 1.74-.9 1.74-2.77s-.66-2.66-1.6-2.64-1.44 1-1.44 2.65c0 1.94.62 2.76 1.3 2.76z" class="cls-1" transform="translate(-9.96 -8.33)"/><path id="path835" fill="#000" d="M246 30.6a5.83 5.83 0 0 1 2.61-.6c2.56 0 3.15 1.24 3.15 3.31v3.6a9.85 9.85 0 0 0 .11 1.45h-1.79a3.94 3.94 0 0 1-.11-1.12 2.63 2.63 0 0 1-2.3 1.25 2.36 2.36 0 0 1-2.46-2.42c0-2.23 1.82-2.8 4.33-2.8h.4V33a1.42 1.42 0 0 0-1.53-1.57 3.84 3.84 0 0 0-2.26.8zm3.9 3.73h-.17c-1.7 0-2.71.35-2.71 1.55a1.19 1.19 0 0 0 1.27 1.26c1.18 0 1.61-.87 1.61-2.35z" class="cls-1" transform="translate(-9.96 -8.33)"/><path id="path837" fill="#000" d="M253.6 31.48a11 11 0 0 0-.06-1.36h1.85c0 .42.07.85.07 1.27a2.4 2.4 0 0 1 2.22-1.39c1.87 0 2.43 1.39 2.43 3v5.31h-2v-4.89c0-1.26-.32-1.79-1.14-1.79-1 0-1.4.88-1.4 1.93v4.8h-2z" class="cls-1" transform="translate(-9.96 -8.33)"/><path id="path839" fill="#000" d="M262.06 26.62h2.05v1.95h-2.05zm0 3.5h2v8.24h-2z" class="cls-1" transform="translate(-9.96 -8.33)"/><path id="path841" fill="#000" d="M265.61 36.65l3.51-5h-3.4v-1.53h5.39v1.7l-3.46 5h3.57v1.5h-5.61z" class="cls-1" transform="translate(-9.96 -8.33)"/><path id="path843" fill="#000" d="M273 30.6a5.83 5.83 0 0 1 2.61-.6c2.55 0 3.15 1.24 3.15 3.31v3.6a9.85 9.85 0 0 0 .11 1.45H277a3.94 3.94 0 0 1-.11-1.12 2.65 2.65 0 0 1-2.3 1.25 2.36 2.36 0 0 1-2.46-2.42c0-2.23 1.82-2.8 4.33-2.8h.4V33a1.42 1.42 0 0 0-1.53-1.57 3.81 3.81 0 0 0-2.26.8zm3.9 3.73h-.17c-1.7 0-2.71.35-2.71 1.55a1.19 1.19 0 0 0 1.27 1.26c1.18 0 1.61-.87 1.61-2.35z" class="cls-1" transform="translate(-9.96 -8.33)"/><path id="path845" fill="#000" d="M281.29 28.43l2-.61v2.3h1.65v1.46h-1.65v4.27c0 .88.32 1.14.89 1.14a1.58 1.58 0 0 0 .76-.18v1.41a3.16 3.16 0 0 1-1.33.27c-1.47 0-2.3-.67-2.3-2.4v-4.51H280v-1.46h1.31z" class="cls-1" transform="translate(-9.96 -8.33)"/><path id="path847" fill="#000" d="M286.34 26.62h2v1.95h-2zm0 3.5h2v8.24h-2z" class="cls-1" transform="translate(-9.96 -8.33)"/><path id="path849" fill="#000" d="M293.74 30c1.68 0 3.61.88 3.61 4.23s-1.93 4.26-3.61 4.26-3.63-.8-3.63-4.26 1.95-4.23 3.63-4.23zm0 7.08c1.28 0 1.57-1.47 1.57-2.85s-.29-2.83-1.57-2.83-1.58 1.46-1.58 2.83.3 2.85 1.58 2.85z" class="cls-1" transform="translate(-9.96 -8.33)"/><path id="path851" fill="#000" d="M298.92 31.48a10.77 10.77 0 0 0-.07-1.36h1.86c0 .42.06.85.06 1.27A2.4 2.4 0 0 1 303 30c1.87 0 2.44 1.39 2.44 3v5.31h-2v-4.89c0-1.26-.32-1.79-1.13-1.79-1 0-1.41.88-1.41 1.93v4.8h-2z" class="cls-1" transform="translate(-9.96 -8.33)"/><path id="path853" fill="#000" d="M80.63 48.07c1.68 0 3.61.87 3.61 4.23s-1.93 4.26-3.61 4.26S77 55.76 77 52.3s2-4.23 3.63-4.23zm0 7.08c1.28 0 1.57-1.47 1.57-2.85s-.29-2.83-1.57-2.83-1.58 1.46-1.58 2.83.3 2.85 1.58 2.85z" class="cls-1" transform="translate(-9.96 -8.33)"/><path id="path855" fill="#000" d="M86.45 49.65h-1.38v-1.46h1.38v-1.68a2.08 2.08 0 0 1 2.36-2.27 6.4 6.4 0 0 1 1.43.2l-.08 1.43a3.19 3.19 0 0 0-.79-.12.92.92 0 0 0-.94 1v1.42h1.5v1.46h-1.5v6.78h-2z" class="cls-1" transform="translate(-9.96 -8.33)"/><path id="path857" fill="#000" d="M96 46.5l2-.61v2.3h1.65v1.46H98v4.27c0 .88.32 1.13.9 1.13a1.56 1.56 0 0 0 .75-.17v1.4a3 3 0 0 1-1.33.28c-1.47 0-2.3-.68-2.3-2.4v-4.51h-1.31v-1.46H96z" class="cls-1" transform="translate(-9.96 -8.33)"/><path id="path859" fill="#000" d="M100.91 44.44h2v4.81a2.24 2.24 0 0 1 2-1.18c1.87 0 2.43 1.39 2.43 3v5.31h-2v-4.89c0-1.27-.32-1.79-1.14-1.79-1 0-1.41.88-1.41 1.93v4.8h-2z" class="cls-1" transform="translate(-9.96 -8.33)"/><path id="path861" fill="#000" d="M115.25 56a6.2 6.2 0 0 1-2.46.53c-2.66 0-3.81-1.91-3.81-4.13 0-2.46 1.3-4.36 3.39-4.36 1.78 0 3.3 1 3.3 4.39v.39h-4.77c0 1.4.56 2.25 2.1 2.25a3.25 3.25 0 0 0 2.15-.64zm-1.5-4.43c0-1.46-.48-2.19-1.38-2.19s-1.47 1.1-1.47 2.19z" class="cls-1" transform="translate(-9.96 -8.33)"/><path id="path863" fill="#000" d="M123.59 45.27v7.22c0 1.86.56 2.47 1.76 2.47s1.74-.61 1.74-2.47v-7.22h2v7.22c0 2.95-1.69 4.1-3.79 4.1s-3.8-1.15-3.8-4.1v-7.22z" class="cls-1" transform="translate(-9.96 -8.33)"/><path id="path865" fill="#000" d="M131.12 49.55a13.32 13.32 0 0 0-.06-1.36h1.85c0 .42.06.85.06 1.27a2.38 2.38 0 0 1 2.19-1.39c1.87 0 2.43 1.39 2.43 3v5.31h-2v-4.89c0-1.27-.33-1.79-1.14-1.79-1 0-1.41.88-1.41 1.93v4.8h-2z" class="cls-1" transform="translate(-9.96 -8.33)"/><path id="path867" fill="#000" d="M139.58 44.69h2v2h-2zm0 3.5h2v8.24h-2z" class="cls-1" transform="translate(-9.96 -8.33)"/><path id="path869" fill="#000" d="M144.31 46.5l2-.61v2.3h1.65v1.46h-1.65v4.27c0 .88.32 1.13.89 1.13a1.6 1.6 0 0 0 .76-.17v1.4a3 3 0 0 1-1.33.28c-1.47 0-2.3-.68-2.3-2.4v-4.51H143v-1.46h1.31z" class="cls-1" transform="translate(-9.96 -8.33)"/><path id="path871" fill="#000" d="M155.24 56a6.2 6.2 0 0 1-2.46.53c-2.66 0-3.81-1.91-3.81-4.13 0-2.46 1.3-4.36 3.39-4.36 1.78 0 3.3 1 3.3 4.39v.39h-4.77c0 1.4.56 2.25 2.1 2.25a3.25 3.25 0 0 0 2.15-.64zm-1.5-4.43c0-1.46-.48-2.19-1.38-2.19s-1.47 1.1-1.47 2.19z" class="cls-1" transform="translate(-9.96 -8.33)"/><path id="path873" fill="#000" d="M164 44.44V55a10.2 10.2 0 0 0 .07 1.41h-1.86a11.76 11.76 0 0 1-.06-1.28 2.22 2.22 0 0 1-2.19 1.41c-2.05 0-2.9-2-2.9-4.24 0-2.69 1.08-4.25 2.85-4.25a2.22 2.22 0 0 1 2.13 1.31v-4.92zm-3.6 10.66c1.17 0 1.57-1.26 1.57-2.81s-.45-2.77-1.54-2.77-1.43 1.07-1.43 2.72c0 1.9.25 2.86 1.4 2.86z" class="cls-1" transform="translate(-9.96 -8.33)"/><path id="path875" fill="#000" d="M170.2 45.27h2.43l3.71 8.73v-8.73h1.86v11.16h-2.45l-3.69-8.7v8.7h-1.86z" class="cls-1" transform="translate(-9.96 -8.33)"/><path id="path877" fill="#000" d="M180.68 48.67a5.87 5.87 0 0 1 2.61-.6c2.56 0 3.15 1.24 3.15 3.3V55a11.67 11.67 0 0 0 .11 1.46h-1.79a4.34 4.34 0 0 1-.11-1.12 2.66 2.66 0 0 1-2.3 1.25 2.37 2.37 0 0 1-2.47-2.42c0-2.24 1.83-2.8 4.34-2.8h.4V51a1.42 1.42 0 0 0-1.54-1.57 3.78 3.78 0 0 0-2.25.8zm3.91 3.73h-.18c-1.69 0-2.7.35-2.7 1.55a1.19 1.19 0 0 0 1.29 1.26c1.18 0 1.62-.88 1.62-2.35z" class="cls-1" transform="translate(-9.96 -8.33)"/><path id="path879" fill="#000" d="M189 46.5l2-.61v2.3h1.64v1.46H191v4.27c0 .88.31 1.13.89 1.13a1.56 1.56 0 0 0 .75-.17v1.4a2.93 2.93 0 0 1-1.33.28c-1.47 0-2.3-.68-2.3-2.4v-4.51h-1.31v-1.46h1.3z" class="cls-1" transform="translate(-9.96 -8.33)"/><path id="path881" fill="#000" d="M194.06 44.69h2.05v2h-2.05zm0 3.5h2v8.24h-2z" class="cls-1" transform="translate(-9.96 -8.33)"/><path id="path883" fill="#000" d="M201.46 48.07c1.68 0 3.62.87 3.62 4.23s-1.94 4.26-3.62 4.26-3.63-.8-3.63-4.26 1.96-4.23 3.63-4.23zm0 7.08c1.28 0 1.57-1.47 1.57-2.85s-.29-2.83-1.57-2.83-1.58 1.46-1.58 2.83.31 2.85 1.58 2.85z" class="cls-1" transform="translate(-9.96 -8.33)"/><path id="path885" fill="#000" d="M206.64 49.55a11 11 0 0 0-.06-1.36h1.85c0 .42.07.85.07 1.27a2.4 2.4 0 0 1 2.19-1.39c1.87 0 2.43 1.39 2.43 3v5.31h-2v-4.89c0-1.27-.32-1.79-1.14-1.79-1 0-1.41.88-1.41 1.93v4.8h-2z" class="cls-1" transform="translate(-9.96 -8.33)"/><path id="path887" fill="#000" d="M214.71 54.51a5.3 5.3 0 0 0 2.07.54c.72 0 1.28-.17 1.28-.81 0-.32-.16-.63-.88-1l-.82-.48c-.83-.5-1.74-1-1.74-2.32a2.61 2.61 0 0 1 2.84-2.33 6.82 6.82 0 0 1 2.07.33l-.12 1.54a4.35 4.35 0 0 0-1.74-.37c-.8 0-1.13.3-1.13.8s.35.68.92 1.05l1 .63c1 .65 1.53 1.12 1.53 2.07 0 1.52-1.28 2.44-3.07 2.44a6.61 6.61 0 0 1-2.28-.4z" class="cls-1" transform="translate(-9.96 -8.33)"/><path id="path889" fill="#000" d="M38.3 65a28.35 28.35 0 1 1 28.35-28.32A28.38 28.38 0 0 1 38.3 65zm-.11-39.5s2.31 2.43 2.31 4.37a2.39 2.39 0 0 1-2.2 2.61h-.21a2.4 2.4 0 0 1-2.2-2.61c0-1.94 2.26-4.37 2.3-4.37zM16.85 38.26h2.59v-4.78h4.34v-2h-4.34v-2.65h4.48v-2h-7.07zm23.69-12.41h2.73L40.1 14.42h-3.49l-3.28 11.43h2.52l.73-2.56h3.3zm-1.14-4.49H37l1.1-5h.19zm12 11.19c0 3.35 1.56 5.91 4.84 5.91s4.87-2.56 4.87-5.91-1.57-5.91-4.87-5.91-4.86 2.55-4.86 5.91zm2.75 0c0-2.2.54-4 2.09-4s2.12 1.78 2.12 4-.56 4-2.12 4-2.11-1.81-2.11-4zm-17 29.32a37 37 0 0 0 .3-5v-.35c0-2.93-.1-3.92-2.06-4.57-3-1-4.25-4.36-3.59-8.56L21.65 17.77a25.2 25.2 0 0 0 15.44 44.1zm1.2-16.37c-4-.94-5.5-4.6-5.5-7.85L24 16c-.58.4-1.14.83-1.68 1.27L33 42.57c1.54 3.72 4.35 2.49 5 5.56a6.79 6.79 0 0 1 .17 1.07h.3a6.36 6.36 0 0 1 .18-1.07c.68-3.07 3.48-1.84 5-5.56 0 0 8.74-20.73 10.68-25.34-.54-.44-1.1-.87-1.68-1.27l-8.83 21.69c0 3.25-1.5 6.91-5.51 7.85zm0-6.55a5.51 5.51 0 0 1-4.1-4.25 9.73 9.73 0 0 1-.06-2.7l-7.81-17.53c-.62.34-1.23.7-1.82 1.09L34 36.68c1.12 2.36 3.08 2.4 3.76 3.81a4.37 4.37 0 0 1 .45 1.64h.26a4.86 4.86 0 0 1 .45-1.64c.68-1.41 2.65-1.45 3.76-3.81L52 15.56c-.58-.39-1.2-.75-1.82-1.09L42.48 32a9.73 9.73 0 0 1-.06 2.7 5.54 5.54 0 0 1-4.1 4.3zm.1-3l.12-.95c.49-2.22 2.1-1.94 3.22-4.12 0-.08 5.51-11.83 7.8-16.74a25.18 25.18 0 0 0-22.49 0c2.28 4.91 7.76 16.66 7.8 16.74 1.1 2.2 2.7 1.92 3.19 4.12l.12.95zm25.13.71A25.17 25.17 0 0 0 55 17.77L44.85 43.43c.68 4.2-.57 7.56-3.58 8.56-2 .65-2.06 1.64-2.06 4.57v.35a38.73 38.73 0 0 0 .3 5 25.25 25.25 0 0 0 24.01-25.23zm-42.52 7.47s.37.79.67 1.35.71 1.24.71 1.24l-.66.39s-.51-.84-1-1.81c-.13.06-.92.48-1.06.54l.9 1.72L20 48s-.82-1.61-.9-1.75l-1.86 1-.41-.82L21 44.15zm2.66 4.31l.58.71-3.68 3.08-.6-.71 3.65-3.05zm3.41 3.23l.73.52-.95 5.08-.83-.48.23-1.14s-.53-.32-1-.65-.95-.73-1-.76l-1 .6-.72-.61 4.49-2.53zM25 53.83c.09.07.4.32.72.55s.66.45.75.49c.05-.21.39-1.88.46-2.19zm5.16-.29a15.94 15.94 0 0 0 1.89.76 16.5 16.5 0 0 0 2 .61l-.22.73a15.17 15.17 0 0 1-1.57-.41C32.22 55.39 31 59 31 59l-.86-.3s1.26-3.62 1.31-3.78a13.6 13.6 0 0 1-1.54-.68zm15.16 1a1.32 1.32 0 0 1 .67.87 1.57 1.57 0 0 1 .09.51c0 .67-.47 1.2-1.32 1.46l-.55.17c0 .15.55 1.78.55 1.78l-.84.22-1.43-4.63 1.28-.39a2 2 0 0 1 1.55-.02zm-1.78.87c0 .14.4 1.27.44 1.41l.56-.18a1 1 0 0 0 .57-.43.59.59 0 0 0 .07-.29 1.18 1.18 0 0 0 0-.25.64.64 0 0 0-.31-.37 1.17 1.17 0 0 0-.82 0zm4.65-2.89l4.16 3-.74.52-.92-.7s-.48.33-.94.61-.91.5-1 .52l.25 1.15-.8.38-.7-5.1zm.47 3.23a8.42 8.42 0 0 0 .77-.43 4.6 4.6 0 0 0 .63-.41l-1.74-1.32c.06.31.31 1.92.34 2.13zm4.28-7.43l3.63 3.24-.65.76L52 51.16c.38.37 2.49 2.59 2.49 2.59l-.63.58-3.42-3.48.8-.71s3.28 1 3.8 1.11c-.38-.36-2.65-2.31-2.65-2.31zm1.66-2.42l4.2 2.44-.42.74-4.23-2.48zm1.82-4l.72.37-.07.09a2.09 2.09 0 0 0-.45.75.88.88 0 0 0 0 .64.43.43 0 0 0 .29.23c.32.11.59-.17.91-.49a1.72 1.72 0 0 1 1.88-.71c.91.31 1.21 1.11.84 2.21a3.49 3.49 0 0 1-.51.88l-.05.06-.74-.35.07-.09a2.77 2.77 0 0 0 .52-.83.77.77 0 0 0-.38-1c-.4-.14-.7.17-1 .53s-.92 1-1.72.68a1.28 1.28 0 0 1-.77-.64 1.71 1.71 0 0 1 0-1.32 3.09 3.09 0 0 1 .5-.93z" class="cls-1" transform="translate(-9.96 -8.33)"/></svg>