<svg xmlns="http://www.w3.org/2000/svg" role="img" viewBox="-1.58 -0.58 153.40 51.52"><title>forest-risks logo</title><path d="M9.7 20.1c-1.3-1.4-2-3.1-2-5.2s.7-3.9 2-5.2c1.3-1.4 3-2 5.1-2 1.7 0 3.1.4 4.3 1.3 1.1.9 1.8 2.1 2.1 3.5v.3c0 .1-.1.2-.2.2h-2.3c-.2 0-.3-.1-.4-.2-.3-.8-.7-1.4-1.3-1.8-.6-.4-1.4-.6-2.2-.6-1.3 0-2.3.4-3 1.2-.8.8-1.1 1.9-1.1 3.4s.4 2.6 1.1 3.4c.8.8 1.8 1.2 3 1.2.8 0 1.6-.2 2.2-.6.6-.4 1.1-1 1.3-1.8.1-.2.2-.2.4-.3H21c.1 0 .2.1.2.2v.3c-.3 1.4-1 2.6-2.1 3.5-1.1.9-2.5 1.3-4.3 1.3-2.1-.1-3.8-.8-5.1-2.1zm12.8-2.5c0-1.5.5-2.6 1.6-3.5 1.1-.8 2.4-1.2 4.1-1.2 1.1 0 2.4.2 3.7.6V13c0-.9-.3-1.6-.8-2.1s-1.2-.8-2.2-.8c-1.4 0-2.4.6-2.9 1.8-.1.2-.2.2-.4.2h-2.3c-.1 0-.2-.1-.2-.2v-.3c.3-1.2.9-2.2 1.9-2.9 1-.8 2.3-1.1 3.8-1.1 1.8 0 3.2.5 4.2 1.4 1 .9 1.5 2.2 1.5 3.8V19c0 1.1.2 1.9.5 2.6 0 .1.1.1.1.1 0 .1-.1.1-.3.1H32c-.2 0-.3-.1-.3-.3v-1c-1.1 1.1-2.5 1.6-4.3 1.6-1.4 0-2.6-.4-3.6-1.2-.8-.8-1.3-1.9-1.3-3.3zm2.9-.1c0 .6.2 1.1.7 1.5.4.4 1.1.5 1.9.5 1.1 0 2-.3 2.8-.9.8-.6 1.1-1.5 1.1-2.6-1.3-.4-2.5-.6-3.6-.6-.8 0-1.5.2-2.1.5-.5.4-.8.9-.8 1.6zM37 21.6V8.2c0-.2.1-.3.3-.3h2.2c.2 0 .3.1.3.3v1.1c1-1.1 2.3-1.6 3.7-1.6.8 0 1.7.1 2.5.4.2.1.3.3.3.5v2.2c0 .2-.1.3-.2.3 0 0-.1 0-.2-.1-1.1-.5-2-.8-2.9-.8-.9 0-1.7.4-2.3 1.1-.6.7-.9 1.7-.9 3v7.3c0 .2-.1.3-.3.3h-2.2c-.2-.1-.3-.2-.3-.3zm10.6 0V2.7c0-.2.1-.3.3-.3H50c.2 0 .3.1.3.3v6.5c1.3-1.1 2.7-1.6 4.3-1.6 1.9 0 3.4.7 4.6 2 1.1 1.3 1.7 3.1 1.7 5.3 0 2.2-.6 4-1.7 5.3-1.1 1.3-2.7 2-4.6 2-1.8 0-3.2-.5-4.3-1.6v1c0 .2-.1.3-.3.3h-2.2c-.1-.1-.2-.2-.2-.3zm3.6-10.1c-.7.9-1.1 2-1.1 3.3 0 1.4.4 2.5 1.1 3.3s1.7 1.3 2.9 1.3 2.2-.4 2.9-1.3c.7-.9 1.1-2 1.1-3.3 0-1.4-.4-2.5-1.1-3.3-.7-.9-1.7-1.3-2.9-1.3s-2.2.5-2.9 1.3zm13.1 8.6c-1.4-1.4-2.1-3.1-2.1-5.2s.7-3.9 2.1-5.2c1.4-1.4 3.1-2 5.2-2s3.8.7 5.2 2c1.4 1.4 2.1 3.1 2.1 5.2s-.7 3.9-2.1 5.2c-1.4 1.4-3.1 2-5.2 2s-3.8-.7-5.2-2zm2.1-8.6c-.8.8-1.2 2-1.2 3.4s.4 2.5 1.2 3.4 1.9 1.3 3.1 1.3c1.3 0 2.3-.4 3.1-1.3.8-.8 1.2-2 1.2-3.4s-.4-2.5-1.2-3.4c-.8-.8-1.9-1.3-3.1-1.3-1.3 0-2.3.5-3.1 1.3zm12.3 10.1V8.2c0-.2.1-.3.3-.3h2.2c.2 0 .3.1.3.3v1.3c1.3-1.2 2.7-1.8 4.4-1.8 1.5 0 2.7.4 3.5 1.3.8.9 1.3 2 1.3 3.6v9.1c0 .2-.1.3-.3.3h-2.2c-.2 0-.3-.1-.3-.3v-8.3c0-2-.9-3.1-2.8-3.1-1.1 0-1.9.4-2.7 1.2-.7.8-1.1 2-1.1 3.5v6.6c0 .2-.1.3-.3.3h-2.2c-.1-.1-.1-.2-.1-.3zm23 5.5V8.2c0-.2.1-.3.3-.3h2.2c.2 0 .3.1.3.3v1c1.1-1.1 2.5-1.6 4.3-1.6 1.9 0 3.4.7 4.6 2s1.7 3.1 1.7 5.3c0 2.2-.6 4-1.7 5.3-1.1 1.3-2.7 2-4.6 2-1.5 0-3-.5-4.3-1.6v6.6c0 .2-.1.3-.3.3H102c-.2-.2-.3-.3-.3-.4zm3.6-15.6c-.7.9-1.1 2-1.1 3.3 0 1.4.4 2.5 1.1 3.3s1.7 1.3 2.9 1.3 2.2-.4 2.9-1.3c.7-.9 1.1-2 1.1-3.3 0-1.4-.4-2.5-1.1-3.3-.7-.9-1.7-1.3-2.9-1.3s-2.2.5-2.9 1.3zm11.9 10.1V2.7c0-.2.1-.3.3-.3h2.2c.2 0 .3.1.3.3v18.9c0 .2-.1.3-.3.3h-2.2c-.2-.1-.3-.2-.3-.3zm4.8-4c0-1.5.5-2.6 1.6-3.5 1.1-.8 2.4-1.2 4.1-1.2 1.1 0 2.4.2 3.7.6V13c0-.9-.3-1.6-.8-2.1s-1.2-.8-2.2-.8c-1.4 0-2.4.6-2.9 1.8-.1.2-.2.2-.4.2h-2.3c-.1 0-.2-.1-.2-.2v-.3c.3-1.2.9-2.2 1.9-2.9 1-.8 2.3-1.1 3.8-1.1 1.7 0 3.1.5 4.2 1.4s1.5 2.2 1.5 3.8V19c0 1.1.2 1.9.5 2.6 0 .1.1.1.1.1 0 .1-.1.1-.3.1h-2.8c-.2 0-.3-.1-.3-.3v-1c-1.1 1.1-2.5 1.6-4.3 1.6-1.4 0-2.6-.4-3.6-1.2-.8-.8-1.3-1.9-1.3-3.3zm2.9-.1c0 .6.2 1.1.7 1.5.4.4 1.1.5 1.9.5 1.1 0 2-.3 2.8-.9.8-.6 1.1-1.5 1.1-2.6-1.3-.4-2.5-.6-3.6-.6-.8 0-1.5.2-2.1.5-.5.4-.8.9-.8 1.6zm12 4.1V8.2c0-.2.1-.3.3-.3h2.2c.2 0 .3.1.3.3v1.3c1.3-1.2 2.7-1.8 4.4-1.8 1.5 0 2.7.4 3.5 1.3.8.9 1.3 2 1.3 3.6v9.1c0 .2-.1.3-.3.3h-2.2c-.2 0-.3-.1-.3-.3v-8.3c0-2-.9-3.1-2.8-3.1-1.1 0-1.9.4-2.7 1.2-.7.8-1.1 2-1.1 3.5v6.6c0 .2-.1.3-.3.3H137c0-.1-.1-.2-.1-.3zm-39.3-6.7c0 4.2-.6 8.3-1.6 12.3 0 .1-.1.2-.2.2h-2.4c-.1 0-.2-.1-.2-.3 1.1-3.9 1.7-8 1.7-12.2s-.6-8.3-1.7-12.2c0-.1.1-.3.2-.3h2.4c.1 0 .2.1.2.2 1.1 3.9 1.6 8 1.6 12.3zm-96.2 0c0-4.3.6-8.4 1.6-12.3 0-.1.1-.2.2-.2h2.4c.1 0 .2.1.2.3-1.1 3.9-1.7 8-1.7 12.2s.6 8.3 1.7 12.2c0 .1-.1.3-.2.3H3.3c-.1 0-.2-.1-.2-.2-1.1-4-1.7-8.1-1.7-12.3zm18.78445 16.40573c-.1596-.01252-.3411-.01878-.53824-.01878-1.73989 0-2.83514.35987-3.2889 1.07961-.43496.48504-.65089 1.3675-.65089 2.65052v.7698h-1.71485v2.21242h1.74928v9.66954h3.12304V37.9993h2.05908v-2.2124h-2.05908v-1.01077c0-.2347.07823-.45062.23783-.64463.15646-.19402.44436-.28477.85742-.27538.41307.01252.71035.02816.8856.05007v-2.55351c-.27851-.0219-.49756-.03755-.66029-.04694zM30.217 44.48008c-.4913.6509-1.1954.97947-2.11228.97947-.91688 0-1.62098-.32857-2.1154-.97947-.49756-.65402-.74478-1.5803-.74478-2.78507 0-1.20166.24722-2.12793.74477-2.77882.49443-.64777 1.19853-.97322 2.11541-.97322.91689 0 1.62098.32545 2.11228.97322.4913.6509.73851 1.57716.73851 2.77882 0 1.20478-.24721 2.13105-.73851 2.78507zm2.5097 1.7305c1.01076-1.24859 1.5177-2.75378 1.5177-4.51557 0-1.7305-.50694-3.22944-1.5177-4.49994-1.01077-1.26736-2.55038-1.90261-4.60946-1.90261-2.06221 0-3.5987.63525-4.60946 1.90261-1.0139 1.2705-1.51771 2.76943-1.51771 4.49994 0 1.7618.50382 3.26698 1.51771 4.51558 1.01076 1.25172 2.54725 1.87758 4.60946 1.87758 2.05908 0 3.5987-.62586 4.60946-1.87758zm-4.60946-10.8524zm15.03316.03754c-.04069-.00312-.09075-.00312-.14708-.00312-.9388 0-1.70234.24408-2.29065.73538-.35987.29416-.7792.84178-1.26424 1.63975v-2.09037h-2.9916v11.99148h3.15746v-5.72975c0-.96382.11891-1.67417.363-2.13731.43184-.81988 1.27988-1.22982 2.54099-1.22982.09388 0 .21905.00313.37238.0094.15647.00938.33171.0219.52886.0438V35.4145c-.1377-.00939-.22844-.01252-.26912-.01878zm5.1477 3.22944c.40054-.45375.96382-.68219 1.68982-.68219.66654 0 1.22668.21593 1.6773.64464s.70096 1.0577.75416 1.88697h-4.87545c.10327-.7792.35674-1.39254.75416-1.84942zm4.38414-2.70684c-.79797-.37239-1.69608-.56015-2.69432-.56015-1.68044 0-3.04481.55389-4.09939 1.66166-1.05144 1.10777-1.57716 2.70059-1.57716 4.77531 0 2.21555.58205 3.81462 1.74927 4.79722 1.16723.9826 2.51283 1.4739 4.0368 1.4739 1.84942 0 3.28577-.58518 4.31218-1.74928.66028-.73538 1.03267-1.45825 1.1109-2.1686h-3.20128c-.16898.3536-.363.62899-.58205.82613-.40367.36613-.9294.55076-1.57403.55076-.60709 0-1.12968-.1502-1.56152-.45375-.71035-.48191-1.089-1.32682-1.13281-2.52847h8.20815c.01252-1.0358-.01877-1.82752-.10013-2.37827-.14082-.9388-.44436-1.7618-.91376-2.47528-.51946-.80423-1.17975-1.39567-1.98085-1.77118zm-2.47527-.56015zm10.02314 8.48354h-3.17936c0 1.22981.45062 2.2437 1.34872 3.04167.89811.79485 2.28752 1.19227 4.1745 1.19227 1.84628 0 3.21378-.37552 4.09624-1.12655.8856-.75103 1.32683-1.72111 1.32683-2.91025 0-.90124-.30667-1.6554-.92315-2.25622-.62586-.59457-1.55839-1.0358-2.80698-1.32996-1.86819-.40993-2.95719-.70096-3.26699-.86994-.30667-.1596-.46313-.42246-.46313-.7792 0-.2879.14707-.53824.43497-.75103.29102-.20966.77607-.31606 1.45825-.31606.82927 0 1.41445.20966 1.7618.63525.1815.2347.29728.55389.3411.95756h3.13555c-.14082-1.4645-.68219-2.49718-1.6241-3.09487-.94192-.5977-2.16235-.89811-3.65816-.89811-1.57716 0-2.80072.39742-3.66754 1.1954-.86994.79483-1.30491 1.74614-1.30491 2.85391 0 .9388.2785 1.65853.83552 2.15609.55701.50695 1.51458.92627 2.8727 1.26424 1.88383.44749 2.97283.76355 3.26698.94817.29416.1815.44124.45062.44124.8011 0 .36613-.1815.64151-.5445.82614-.36613.1815-.8543.27538-1.47077.27538-1.04832 0-1.76806-.20966-2.1561-.62899-.21904-.2347-.36299-.62899-.4287-1.186zm2.39705-8.48354zm6.45887 2.66304h1.67105v7.38202c0 .7479.17837 1.30178.52885 1.66165.5445.56328 1.55526.81988 3.03855.76981l1.48329-.05633v-2.34384a5.09195 5.09195 0 0 1-.31293.01877c-.1064.00313-.20653.00626-.30354.00626-.63838 0-1.02015-.06258-1.1422-.18463-.12517-.1189-.18775-.42558-.18775-.91688v-6.33683h1.94642v-2.23432h-1.94642v-3.3421h-3.10427v3.3421h-1.67105zm7.78883 1.8807v2.96971h6.31493v-2.9697zm15.1114-4.50619c-.04069-.00312-.09076-.00312-.15022-.00312-.93879 0-1.6992.24408-2.28751.73538-.35987.29415-.7792.84178-1.26424 1.63975v-2.09037h-2.99161v11.99148h3.15746v-5.72975c0-.96382.11892-1.67417.363-2.13731.43184-.81988 1.27988-1.22982 2.541-1.22982.09387 0 .21904.00313.37238.0094.15334.00938.3317.0219.52885.0438V35.4145c-.14082-.00939-.22844-.01252-.26912-.01878zm5.32919-1.14845v-2.8946h-3.17937v2.8946zm-3.17937 1.4301v11.99147h3.17937V35.67736zm8.65877 8.16434h-3.17937c0 1.22981.4475 2.2437 1.34873 3.04167.89811.79485 2.28752 1.19227 4.17449 1.19227 1.84629 0 3.21379-.37552 4.09625-1.12655.8856-.75103 1.32683-1.72111 1.32683-2.91025 0-.90124-.30668-1.6554-.92315-2.25622-.62586-.59457-1.55839-1.0358-2.80698-1.32996-1.8682-.40993-2.96032-.70096-3.26699-.86994-.30667-.1596-.46314-.42246-.46314-.7792 0-.2879.14708-.53824.43498-.75103.29102-.20966.77606-.31606 1.45825-.31606.82927 0 1.41445.20966 1.7618.63525.1815.2347.29728.55389.3411.95756h3.13555c-.14082-1.4645-.68219-2.49718-1.6241-3.09487-.94193-.5977-2.16235-.89811-3.65816-.89811-1.57717 0-2.80072.39742-3.66754 1.1954-.86994.79483-1.30492 1.74614-1.30492 2.85391 0 .9388.27851 1.65853.83553 2.15609.55701.50695 1.51458.92627 2.8727 1.26424 1.88383.44749 2.97283.76355 3.26698.94817.29416.1815.4381.45062.4381.8011 0 .36613-.1815.64151-.5445.82614-.363.1815-.85116.27538-1.46763.27538-1.04832 0-1.76806-.20966-2.1561-.62899-.21904-.2347-.363-.62899-.4287-1.186zm2.39705-8.48354zm7.6574-3.84904v16.1597h3.08235V43.8949l1.29554-1.35185 2.8727 5.12579h3.78332l-4.35599-7.3476 4.19326-4.58755h-3.88346l-3.90537 4.50932v-8.73388zm15.00812 12.33258h-3.17937c0 1.22981.44749 2.2437 1.3456 3.04167.8981.79485 2.29065 1.19227 4.17448 1.19227 1.84942 0 3.21692-.37552 4.09939-1.12655.88246-.75103 1.32682-1.72111 1.32682-2.91025 0-.90124-.3098-1.6554-.92627-2.25622-.62273-.59457-1.5584-1.0358-2.80386-1.32996-1.87132-.40993-2.96031-.70096-3.26698-.86994-.3098-.1596-.46314-.42246-.46314-.7792 0-.2879.14395-.53824.43497-.75103.2879-.20966.77607-.31606 1.45826-.31606.82926 0 1.41444.20966 1.75866.63525.18463.2347.29729.55389.3411.95756h3.13555c-.13769-1.4645-.67905-2.49718-1.62097-3.09487-.94505-.5977-2.16235-.89811-3.65816-.89811-1.57716 0-2.80072.39742-3.67066 1.1954-.86995.79483-1.3018 1.74614-1.3018 2.85391 0 .9388.27851 1.65853.83553 2.15609.55702.50695 1.51458.92627 2.86957 1.26424 1.88697.44749 2.97596.76355 3.26699.94817.29415.1815.44123.45062.44123.8011 0 .36613-.1815.64151-.5445.82614-.363.1815-.85117.27538-1.46764.27538-1.04832 0-1.76806-.20966-2.15609-.62899-.22218-.2347-.363-.62899-.42871-1.186zm2.39704-8.48354z"/></svg>