<svg xmlns="http://www.w3.org/2000/svg" role="img" viewBox="-0.10 -0.10 733.20 220.20"><title>Fraunhofer Gesellschaft IIS logo</title><defs><style>.cls-1{fill:#179c7d}</style></defs><path d="M647.7 168.1h7.5v38.2h-7.5zm40.2 0h-22.5v38.2h22.5v-6.1h-14.8v-10.6h13.6v-6.2h-13.5v-9h14.7zm31.2 0h-22.6v38.2h22.6v-6.1h-14.8v-10.6h13.6v-6.2h-13.6v-9h14.8z"/><path d="M14.1 129c27.2-14 67-36.6 114.3-69.7V48.2C86.8 75.4 44.5 97.3 14.1 111.7zm0-33.2c30.3-12.3 72.6-31.4 114.3-56.2v-5.5C89.2 53.6 48.5 65.8 14.1 73.4zm114.3 33.3V73.2c-26 21.9-51.8 40.9-73.4 55.9zm-88.1 0a802.07464 802.07464 0 0 0 70.4-46.7c5.8-4.3 11.7-8.8 17.7-13.4v-6.9c-36.8 27.6-74.3 50.6-103.7 67.1h15.6zM14.1 65.2c33.4-5.9 74.3-16.5 114.3-35.5v-6.1C88.1 41.6 47.8 49.3 14.1 52v13.2z" class="cls-1"/><path d="M14.1 14.2v32c2.5-.2 5-.3 7.6-.5 27.8-2.1 65.7-7.1 106.7-24.7v-6.7H14.1z" class="cls-1"/><path fill="#fff" d="M14.1 46.2v5.9c33.7-2.7 74-10.4 114.3-28.5v-2.7C87.5 38.6 49.5 43.5 21.7 45.6c-2.6.2-5.1.4-7.6.6zm0 27.2c34.4-7.6 75.1-19.8 114.3-39.2v-4.4c-40 19-80.9 29.6-114.3 35.5v8.1zm0 38.3c30.4-14.5 72.7-36.3 114.3-63.5v-8.6c-41.7 24.8-84 43.9-114.3 56.2v15.9zm26.2 17.4h14.6c21.6-14.9 47.4-33.9 73.4-55.9v-4.3c-6 4.6-11.9 9.1-17.7 13.4a775.71332 775.71332 0 0 1-70.3 46.8zm-26.2 0h10.7C54.1 112.5 91.7 89.6 128.5 62v-2.7C81.1 92.4 41.3 115 14.1 129.1z"/><path d="M685.9 129h14.7v-20.7c0-8.1 0-23 12-23 2.6 0 5.3.4 6.6 1.2V71.6a17.52813 17.52813 0 0 0-4.5-.4c-8.8 0-14.8 8.9-15.5 14.1h-.2V72.5h-13l-.1 56.5zm-14.8-15.1c-5.5 3.1-11.6 5.7-18.8 5.7-9.1 0-15.5-5.2-16.1-14.3h39.1c0-19.8-5.9-34.1-26.9-34.1-17.5 0-26.2 13.5-26.2 29.8 0 18.6 10.9 29.3 29.5 29.3 7.9 0 14-1.5 19.4-4.5v-11.9zm-34.9-18.7c.7-7.6 4.8-13.3 13.1-13.3 8.2 0 11.5 6.1 12 13.3zM589.3 129H604V83.2h12.8V72.5H604v-7c0-4.4 1.5-8.7 6.5-8.7a10.8109 10.8109 0 0 1 6.3 2l1.2-12.2a48.78152 48.78152 0 0 0-10.8-1.2c-11.6 0-18 7.9-18 19.2v7.9h-10.9v10.7h10.9zm-58.5-29.6c0-8.4 4.6-16.8 14.2-16.8 9.7 0 14.3 8.1 14.3 16.8 0 9.4-3 19.5-14.3 19.5-11.2 0-14.2-10.2-14.2-19.5m-15.4 1.7c0 16.2 10.9 29.2 29.5 29.2 18.8 0 29.6-13 29.6-29.2 0-18.7-12.8-30-29.6-30-16.6.1-29.5 11.4-29.5 30M454.2 129h14.7v-27.7c0-7.2 2.3-18.8 13-18.8 9.4 0 9.5 9.3 9.5 16.2v30.2h14.7V93.2c0-12.7-5.8-22.2-19.2-22.2a21.11341 21.11341 0 0 0-17.8 9h-.2V46.5h-14.7V129zm-67 0h14.7v-27.7c0-7.2 2.3-18.8 13-18.8 9.4 0 9.5 9.3 9.5 16.2v30.2h14.7V93.2c0-12.7-5.8-22.2-19.2-22.2-7.7 0-13.9 2.5-18.5 9h-.3v-7.7h-13.9V129zM372 72.5h-14.7v27.7c0 7.2-2.3 18.8-12.9 18.8-9.4 0-9.5-9.3-9.5-16.2V72.6h-14.8v35.7c0 12.7 5.8 22.2 19.2 22.2a23.41686 23.41686 0 0 0 18.5-9h.2v7.7h13.9l.1-56.7zm-100.3 40.2c0-8.7 9.8-9.8 16.4-9.8h6.4c0 4.4-.7 8.4-3.1 11.6a12.4169 12.4169 0 0 1-10.3 5.1c-5.3 0-9.4-2.1-9.4-6.9m-7.4-24.6a29.63155 29.63155 0 0 1 17.4-6.1c8.7 0 12.7 3.1 12.7 12.2h-8.1c-6.1 0-13.4.5-19 3.3-5.6 2.7-9.7 7.7-9.7 16.1 0 10.7 9.8 16.8 19.7 16.8 6.7 0 14.1-3.5 17.4-9.8h.2a58.7687 58.7687 0 0 0 .7 8.4h12.9c-.3-4.4-.5-8.4-.7-12.6-.1-4.2-.2-8.4-.2-14.2V95c0-16.7-7.1-23.8-24.4-23.8a50.803 50.803 0 0 0-19.6 4.3zM220 129h14.7v-20.7c0-8.1 0-23 12-23 2.6 0 5.3.4 6.6 1.2V71.6a17.52828 17.52828 0 0 0-4.5-.4c-8.8 0-14.8 8.9-15.5 14.1h-.2V72.5H220V129zm-53.1 0h15.4V95.4h25.9V83.3h-25.9V64.4h27.2V52.3h-42.6V129z"/></svg>