<svg xmlns="http://www.w3.org/2000/svg" role="img" viewBox="-2.97 -2.85 148.07 17.20"><title>Frictionless Energy data logo</title><g transform="translate(-1.172 9.117)"><path d="M6.74414-7.69336h-4.4121v2.46094h3.791v1.03125h-3.791V0H1.17186v-8.7246h5.57227z"/><path d="M12.06445-5.34375h-.05859q-.24609-.0586-.48047-.08203-.22851-.0293-.54492-.0293-.50976 0-.98437.22852-.47461.22265-.91406.58008V0H7.98047v-6.54492h1.10156v.9668q.65625-.52735 1.1543-.74415.5039-.22265 1.02539-.22265.2871 0 .41601.01758.12891.01172.38672.05273z"/><path d="M14.28516-7.64063h-1.2422V-8.7832h1.2422zM14.21484 0h-1.10156v-6.54492h1.10156z"/><path d="M21.23438-.41016Q20.68359-.14648 20.18555 0q-.4922.14648-1.04883.14648-.70899 0-1.30078-.20507-.5918-.21094-1.01367-.63282-.42774-.42187-.66211-1.0664-.23438-.64453-.23438-1.50586 0-1.60547.8789-2.51953.88477-.91407 2.33204-.91407.5625 0 1.10156.1582.54492.15821.9961.38673v1.2246h-.0586q-.5039-.39257-1.04296-.60351-.5332-.21094-1.04297-.21094-.9375 0-1.48242.63281-.53907.62696-.53907 1.8457 0 1.1836.52735 1.82227.5332.63282 1.49414.63282.33398 0 .67969-.0879.3457-.08788.62109-.22851.24023-.12305.45117-.25781.21094-.14063.33399-.24024h.05859z"/><path d="M26.04492-.0586q-.31055.08204-.67969.13477-.36328.05274-.65039.05274-1.00195 0-1.52343-.53907-.52149-.53906-.52149-1.72851v-3.48047h-.74414v-.92578h.74414v-1.88086h1.10156v1.88086h2.27344v.92578h-2.27344v2.98242q0 .51563.02344.8086.02344.2871.16407.53906.1289.23437.35156.3457.22851.10547.6914.10547.26954 0 .5625-.07617.29297-.08203.42188-.13477h.05859z"/><path d="M28.5586-7.64063h-1.2422V-8.7832h1.2422zM28.48827 0h-1.10156v-6.54492h1.10156z"/><path d="M36.2461-3.26953q0 1.5996-.82032 2.52539-.82031.92578-2.19726.92578-1.38868 0-2.20899-.92578-.81445-.92578-.81445-2.5254 0-1.5996.81445-2.52538.82031-.93164 2.20899-.93164 1.37695 0 2.19726.93164.82031.92578.82031 2.52539zm-1.13672 0q0-1.27149-.49805-1.88672-.49805-.6211-1.38281-.6211-.89649 0-1.39454.6211-.49218.61523-.49218 1.88672 0 1.23047.49804 1.86914.49805.63281 1.38868.63281.8789 0 1.37695-.62695.5039-.63281.5039-1.875z"/><path d="M43.42383 0h-1.10156v-3.72656q0-.45117-.05273-.84375-.05273-.39844-.19336-.6211-.14649-.24609-.42188-.36328-.27539-.12304-.71484-.12304-.45117 0-.94336.22265-.49219.22266-.94336.56836V0h-1.10156v-6.54492h1.10156v.72656q.51562-.42773 1.0664-.66797.55079-.24023 1.13086-.24023 1.06055 0 1.6172.63867.55663.63867.55663 1.83984z"/><path d="M46.6582 0h-1.10156v-9.11719h1.10156z"/><path d="M54.3164-3.1582h-4.82226q0 .60351.18164 1.05468.18164.44532.49805.73243.30469.28125.7207.42187.42188.14063.92578.14063.66797 0 1.3418-.26368.67969-.26953.9668-.52734h.05859v1.20117q-.55664.23438-1.13672.39258-.58008.1582-1.21875.1582-1.6289 0-2.54297-.8789-.91406-.88477-.91406-2.50782 0-1.60546.87305-2.54882.8789-.94336 2.3086-.94336 1.3242 0 2.03905.77344.7207.77343.7207 2.19726zm-1.07226-.84375q-.0059-.8672-.43945-1.3418-.42774-.4746-1.30664-.4746-.88477 0-1.41211.52147-.52149.52149-.5918 1.29493z"/><path d="M60.6621-1.88672q0 .89649-.74413 1.4707-.73828.57422-2.02149.57422-.72656 0-1.33593-.16992-.60352-.17578-1.01367-.38086V-1.6289h.05858q.52149.39258 1.16016.62696.63867.22851 1.22461.22851.72656 0 1.13672-.23437.41016-.23438.41016-.73828 0-.38672-.22266-.58594t-.85547-.33984q-.23437-.05274-.61523-.12305-.375-.07031-.68555-.15235-.86133-.22851-1.22461-.66796-.35742-.44532-.35742-1.08985 0-.4043.16406-.76172.16992-.35742.50977-.63867.32812-.27539.83203-.4336.50976-.16405 1.13672-.16405.58593 0 1.18359.14648.60352.14062 1.00195.3457v1.17774h-.05859q-.42187-.31055-1.02539-.52149-.60351-.2168-1.1836-.2168-.6035 0-1.01952.23438-.41602.22852-.41602.68555 0 .4043.25196.60937.24609.20508.79687.33399.30469.0703.67969.14062.38086.07031.63281.1289.76758.17579 1.1836.60352.416.4336.416 1.14844z"/><path d="M66.91406-1.88672q0 .89649-.74414 1.4707-.73828.57422-2.02148.57422-.72656 0-1.33594-.16992-.60352-.17578-1.01367-.38086V-1.6289h.05859q.52148.39258 1.16015.62696.63868.22851 1.22461.22851.72657 0 1.13672-.23437.41016-.23438.41016-.73828 0-.38672-.22266-.58594-.22265-.19922-.85547-.33984-.23437-.05274-.61523-.12305-.375-.07031-.68555-.15235-.86133-.22851-1.2246-.66796-.35743-.44532-.35743-1.08985 0-.4043.16406-.76172.16992-.35742.50977-.63867.32812-.27539.83203-.4336.50977-.16405 1.13672-.16405.58594 0 1.1836.14648.6035.14062 1.00195.3457v1.17774h-.0586q-.42187-.31055-1.02538-.52149-.60352-.2168-1.1836-.2168-.60351 0-1.01953.23438-.41602.22852-.41602.68555 0 .4043.25196.60937.2461.20508.79687.33399.3047.0703.6797.14062.38085.07031.6328.1289.76758.17579 1.1836.60352.41601.4336.41601 1.14844z"/><path d="M78.54492 0h-5.74805v-8.7246h5.74805v1.03124h-4.58789v2.39063h4.5879v1.03125h-4.5879v3.24023h4.5879z"/><path d="M85.76953 0h-1.10156v-3.72656q0-.45117-.05273-.84375-.05274-.39844-.19337-.6211Q84.2754-5.4375 84-5.55469q-.2754-.12304-.71484-.12304-.45118 0-.94336.22265-.4922.22266-.94336.56836V0h-1.10156v-6.54492h1.10156v.72656q.51562-.42773 1.0664-.66797.55079-.24023 1.13086-.24023 1.06055 0 1.6172.63867.55663.63867.55663 1.83984z"/><path d="M93.36914-3.1582h-4.82227q0 .60351.18165 1.05468.18164.44532.49804.73243.30469.28125.7207.42187.42188.14063.92579.14063.66797 0 1.3418-.26368.67968-.26953.9668-.52734h.05858v1.20117q-.55664.23438-1.13672.39258-.58008.1582-1.21875.1582-1.6289 0-2.54297-.8789-.91406-.88477-.91406-2.50782 0-1.60546.87305-2.54882.8789-.94336 2.3086-.94336 1.32421 0 2.03905.77344.7207.77343.7207 2.19726zm-1.07227-.84375q-.0059-.8672-.43945-1.3418-.42773-.4746-1.30664-.4746-.88476 0-1.4121.52147-.5215.52149-.5918 1.29493z"/><path d="M99.12305-5.34375h-.0586q-.24609-.0586-.48046-.08203-.22852-.0293-.54492-.0293-.50977 0-.98438.22852-.4746.22265-.91406.58008V0h-1.10156v-6.54492h1.10156v.9668q.65625-.52735 1.1543-.74415.5039-.22265 1.02539-.22265.2871 0 .41601.01758.1289.01172.38672.05273z"/><path d="M105.46875-.74414q0 1.66406-.75586 2.44336-.75586.7793-2.32617.7793-.52149 0-1.01953-.07618-.49219-.0703-.97266-.20507v-1.125h.0586q.26953.10546.85546.2578.58594.15821 1.17188.15821.5625 0 .93164-.13476.36914-.13477.57422-.375.20508-.22852.29297-.55079.0879-.32226.0879-.7207v-.59766q-.49805.39844-.95508.59766-.45117.19336-1.1543.19336-1.17187 0-1.86328-.84375-.68555-.8496-.68555-2.39062 0-.84375.23438-1.45313.24023-.61523.65039-1.06055.38086-.41601.92578-.64453.54492-.23437 1.08399-.23437.56836 0 .94921.11719.38672.11132.81446.3457l.0703-.28125h1.03125zm-1.10156-1.05469v-3.56836q-.43946-.19922-.82031-.28125-.375-.08789-.75-.08789-.90821 0-1.42969.60938-.52149.60937-.52149 1.76953 0 1.10156.38672 1.66992t1.28321.56836q.48046 0 .96093-.18164.48633-.1875.89063-.49805z"/><path d="M113.29688-6.54492l-3.82032 8.95898h-1.17773l1.21875-2.73047-2.60742-6.22851h1.19531l2.00976 4.85156 2.02735-4.85156z"/><path d="M124.26563 0h-1.10157v-.68555q-.47461.41016-.99023.63867-.51563.22852-1.11914.22852-1.17188 0-1.86328-.90234-.68555-.90235-.68555-2.50196 0-.83203.23437-1.48242.24024-.65039.64454-1.10742.39843-.44531.92578-.67969.5332-.23437 1.10156-.23437.51562 0 .91406.11133.39844.10546.83789.33398v-2.83594h1.10157zm-1.10157-1.61133v-3.75586q-.44531-.19922-.79687-.27539-.35156-.07617-.76758-.07617-.92578 0-1.44141.64453-.51562.64453-.51562 1.82813 0 1.16601.39844 1.77539.39843.60351 1.27734.60351.46875 0 .94922-.20508.48047-.21093.89648-.53906z"/><path d="M131.51953 0h-1.0957v-.69727q-.14649.09961-.39844.28125-.24609.17579-.48047.28125-.27539.13477-.63281.22266-.35742.09375-.83789.09375-.88477 0-1.5-.58594-.61524-.58593-.61524-1.49414 0-.74414.31641-1.20117.32227-.46289.91406-.72656.59766-.26367 1.43555-.35742.83789-.09375 1.79883-.14063v-.16992q0-.375-.13477-.6211-.1289-.24609-.375-.38671-.23437-.13477-.5625-.18164-.32812-.04688-.68554-.04688-.4336 0-.9668.11719-.5332.11133-1.10156.32812h-.0586V-6.4043q.32227-.08789.93164-.19336.60938-.10547 1.20117-.10547.69141 0 1.20118.1172.51562.11132.89062.38671.36914.26953.5625.69727.19336.42773.19336 1.06054zm-1.0957-1.61133v-1.82226q-.50391.0293-1.18946.08789-.67968.0586-1.07812.16992-.47461.13476-.76758.42187-.29297.28125-.29297.7793 0 .5625.33985.84961.33984.28125 1.03711.28125.58007 0 1.06054-.22266.48047-.22851.89063-.54492z"/><path d="M137.03906-.0586q-.31054.08204-.67969.13477-.36328.05274-.65039.05274-1.00195 0-1.52343-.53907-.52149-.53906-.52149-1.72851v-3.48047h-.74414v-.92578h.74414v-1.88086h1.10156v1.88086h2.27344v.92578h-2.27344v2.98242q0 .51563.0234.8086.0234.2871.16406.53906.12891.23437.35157.3457.22851.10547.6914.10547.26953 0 .5625-.07617.29297-.08203.42188-.13477h.0586z"/><path d="M143.45508 0h-1.09571v-.69727q-.14648.09961-.39843.28125-.2461.17579-.48047.28125-.27539.13477-.63281.22266-.35743.09375-.83789.09375-.88477 0-1.5-.58594-.61524-.58593-.61524-1.49414 0-.74414.31641-1.20117.32226-.46289.91406-.72656.59766-.26367 1.43555-.35742.83789-.09375 1.79882-.14063v-.16992q0-.375-.13476-.6211-.12891-.24609-.375-.38671-.23438-.13477-.5625-.18164-.32813-.04688-.68555-.04688-.43359 0-.96679.11719-.53321.11133-1.10157.32812h-.0586V-6.4043q.32226-.08789.93164-.19336.60937-.10547 1.20117-.10547.69141 0 1.20117.1172.51563.11132.89063.38671.36914.26953.5625.69727.19336.42773.19336 1.06054zm-1.09571-1.61133v-1.82226q-.5039.0293-1.18945.08789-.67969.0586-1.07812.16992-.47461.13476-.76758.42187-.29297.28125-.29297.7793 0 .5625.33984.84961.33985.28125 1.03711.28125.58008 0 1.06055-.22266.48047-.22851.89062-.54492z"/></g></svg>