<svg xmlns="http://www.w3.org/2000/svg" role="img" viewBox="-2.23 9.52 245.96 55.71"><title>Friedrich-Alexander-University (FAU) logo</title><path fill="#036" d="M232.89641 60.4035c-.3163.14203-.63259.20758-.95979.20758-.51261 0-.9816-.0874-1.38515-.27313-.41445-.1748-.75256-.41515-1.03614-.73197-.28357-.31683-.5017-.68828-.6435-1.10343-.15268-.42608-.22903-.88493-.22903-1.36563 0-.50254.07635-.97232.22904-1.3984.14179-.42607.35992-.79752.6435-1.12527.28357-.31682.62168-.5681 1.03613-.75383.40355-.1748.87254-.2622 1.38515-.2622.33811 0 .67622.0437.99251.15296.3272.09832.62168.25127.87254.44792.26176.20758.4799.44793.6435.7429.1745.29498.27266.63365.31629 1.01603h-1.40697c-.08725-.37146-.26176-.6555-.51261-.84123-.25086-.18572-.55624-.28405-.90526-.28405-.3381 0-.61077.06555-.85072.19665-.22904.12018-.41445.29498-.55624.51348-.14179.2185-.25086.45884-.3163.73197-.06544.28405-.09816.5681-.09816.86307 0 .28406.03272.55718.09816.81938s.17451.50255.3163.72105c.14179.20757.3272.38238.55624.51347.23995.12018.51261.18573.85072.18573.4908 0 .86163-.12017 1.1234-.37145.27266-.24035.42535-.60087.46898-1.07065h-1.48331v-1.10342h2.81393v3.6271h-.93798l-.1527-.75383c-.26175.32775-.54533.5681-.87253.6992zm-7.3184-6.65332c.3054 0 .57806.05462.818.14202.23996.09833.44718.22942.61078.40423.17451.16387.3054.36052.40355.58994.08726.2185.13088.45886.13088.72105 0 .3933-.08725.73198-.25085 1.01603-.1636.29498-.43627.51348-.8071.66643v.01092c.1745.05463.3272.1311.44718.22943.11997.10924.21813.22942.29448.37145.07634.14202.13088.29497.1636.45885.03272.1748.05453.33867.06544.51347.0109.09833.0109.22943.02181.37145 0 .14203.02182.29498.03272.44793.0109.14202.04363.28405.07635.42607.03272.1311.08725.24035.1527.33868h-1.47241c-.07635-.20758-.13088-.46978-.1527-.76475-.0218-.29498-.04362-.5681-.08725-.84123-.04363-.3496-.1527-.6118-.3163-.77568-.1636-.15294-.42535-.24034-.79618-.24034h-1.4724v2.622h-1.47241v-6.70795h3.61012zm-.52352 3.03715c.33811 0 .58897-.07648.76347-.22943.1636-.14202.25086-.3933.25086-.73197 0-.32775-.08726-.55718-.25086-.71013-.1745-.14202-.42536-.2185-.76347-.2185h-1.61419v1.89003h1.6142zm-4.62444-3.03715v1.24545h-3.53377v1.43117h3.2502v1.14713h-3.2502v1.64967h3.61012v1.23453h-5.08252v-6.70795h5.00617zm-8.7908 5.56082c.1418 0 .28358-.01092.41446-.0437.13088-.02185.23995-.07648.3381-.14202.10907-.06555.18542-.15295.23995-.2622.06544-.10925.09816-.2622.09816-.437 0-.33868-.09816-.58996-.29448-.73198-.19632-.15295-.44717-.2185-.77437-.2185h-1.60329v1.8354h1.58147zm.09816-5.56082c.3272 0 .61078.03277.87254.0874.26176.05462.4908.15294.67622.27312.1854.1311.3381.3059.43626.51347.10907.2185.1527.4807.1527.7866 0 .33868-.07635.62273-.22904.85216-.1527.2185-.38174.40422-.67622.55717.41446.10925.71984.31682.92707.62273.19632.29497.30539.6555.30539 1.07065 0 .33867-.06544.63365-.19632.88492-.14179.24035-.3163.44793-.53443.60088-.21813.16387-.4799.27312-.76347.3496-.28357.07647-.57805.10925-.87254.10925h-3.2502v-6.70795h3.15204zm-.18541 2.72032c.26176 0 .4799-.06555.6435-.18573.1745-.1311.26176-.33867.26176-.6118 0-.16387-.03272-.28404-.08726-.3933-.05453-.09832-.13088-.1748-.22904-.22942-.08725-.05462-.19632-.09832-.3163-.12017-.13087-.02185-.25085-.03278-.38173-.03278h-1.38515v1.5732h1.49422zm-8.84533-2.72032l2.79211 4.5011h.02181v-4.5011h1.37425v6.70795h-1.4724l-2.78121-4.49018h-.02182v4.49018h-1.37424v-6.70795h1.4615zm-4.94074 0c.29448 0 .56715.05462.8071.14202.23994.09833.44717.22942.62168.40423.1745.16387.30539.36052.39264.58994.08725.2185.13088.45886.13088.72105 0 .3933-.07635.73198-.23995 1.01603-.1745.29498-.43627.51348-.818.66643v.01092c.18541.05463.3381.1311.45808.22943.10907.10924.20723.22942.28358.37145.07634.14202.13088.29497.1636.45885.03272.1748.06544.33867.07634.51347 0 .09833.01091.22943.01091.37145.0109.14203.02181.29498.03272.44793.02181.14202.04363.28405.07635.42607.03272.1311.08725.24035.1636.33868h-1.48331c-.07635-.20758-.13088-.46978-.1418-.76475-.0218-.29498-.05452-.5681-.08724-.84123-.05454-.3496-.1527-.6118-.3163-.77568-.1636-.15294-.43627-.24034-.79619-.24034h-1.4724v2.622h-1.48331v-6.70795h3.62102zm-.52352 3.03715c.3381 0 .58896-.07648.75256-.22943.1745-.14202.26176-.3933.26176-.73197 0-.32775-.08725-.55718-.26176-.71013-.1636-.14202-.41445-.2185-.75256-.2185h-1.6142v1.89003h1.6142zm-5.3661 3.15732c-.5017.44793-1.19973.66643-2.09408.66643-.90526 0-1.6142-.2185-2.105-.6555-.5017-.437-.75256-1.11435-.75256-2.03206v-4.17334h1.4724v4.17334c0 .18573.02182.36053.05454.53533.02181.1748.09816.32775.19632.46978.09816.1311.23995.24034.41445.32774.17451.07648.41446.12018.71985.12018.52352 0 .88344-.10925 1.09067-.3496.19632-.22943.29448-.60088.29448-1.10343v-4.17335h1.4724v4.17335c0 .90678-.25085 1.58413-.76347 2.02113zm-.4908-6.9483h-1.26518v-1.0925h1.26518v1.0925zm-1.93048 0h-1.26518v-1.0925h1.26518v1.0925zm-8.33272.75383l2.79211 4.5011h.02182v-4.5011h1.38515v6.70795h-1.48331l-2.78121-4.49018h-.02182v4.49018h-1.37424v-6.70795h1.4615zm-3.15204 4.7196h-2.82483v-1.14713h2.82483v1.14712zm-8.69264-4.7196l2.80302 4.5011h.0109v-4.5011h1.38516v6.70795h-1.4724l-2.79212-4.49018h-.0109v4.49018h-1.38516v-6.70795h1.4615zm-2.99934 0v1.24545h-3.53377v1.43117h3.2502v1.14713h-3.2502v1.64967h3.61012v1.23453h-5.08253v-6.70795h5.00618zm-8.40907 6.65332c-.3163.14203-.6435.20758-.9707.20758-.5126 0-.97069-.0874-1.38514-.27313-.40355-.1748-.75257-.41515-1.03614-.73197-.28358-.31683-.4908-.68828-.6435-1.10343-.15269-.42608-.22904-.88493-.22904-1.36563 0-.50254.07635-.97232.22904-1.3984.1527-.42607.35992-.79752.6435-1.12527.28357-.31682.63259-.5681 1.03614-.75383.41445-.1748.87253-.2622 1.38515-.2622.34901 0 .67621.0437 1.00341.15296.3163.09832.61078.25127.87254.44792.26176.20758.46899.44793.6435.7429.1636.29498.27266.63365.30538 1.01603h-1.40696c-.08726-.37146-.25086-.6555-.50171-.84123-.25086-.18572-.55624-.28405-.91616-.28405-.3272 0-.61078.06555-.83982.19665-.22904.12018-.42536.29498-.56715.51348-.14179.2185-.25085.45884-.3163.73197-.06543.28405-.09815.5681-.09815.86307 0 .28406.03272.55718.09816.81938.07634.2622.1745.50255.3163.72105.14178.20757.3381.38238.56714.51347.22904.12018.51262.18573.83982.18573.4908 0 .87253-.12017 1.1343-.37145.26175-.24035.41445-.60087.45807-1.07065h-1.4724v-1.10342h2.81393v3.6271h-.93798l-.1527-.75383c-.26175.32775-.55623.5681-.87253.6992zm-9.68515-6.65332l2.80302 4.5011h.01091v-4.5011h1.38515v6.70795h-1.4724l-2.79212-4.49018h-.0109v4.49018h-1.38515v-6.70795h1.4615zm-4.79895 0l2.50855 6.70795h-1.52694l-.51262-1.49673h-2.50854l-.52352 1.49673h-1.48331l2.54126-6.70795h1.50512zm.08726 4.11872l-.85072-2.46905h-.01091l-.87254 2.46905h1.73417zm-8.00552-4.11872v5.47342h3.2611v1.23453h-4.7335v-6.70795h1.4724zm-4.76623 0c.30539 0 .57806.05462.818.14202.23995.09833.44718.22942.62169.40423.1636.16387.29448.36052.39264.58994.08725.2185.13088.45886.13088.72105 0 .3933-.08725.73198-.25086 1.01603-.1636.29498-.43626.51348-.8071.66643v.01092c.18542.05463.32721.1311.44718.22943.11998.10924.21814.22942.29448.37145.07635.14202.13088.29497.1636.45885.03273.1748.05454.33867.06545.51347.0109.09833.0109.22943.0218.37145.01092.14203.02182.29498.03273.44793.0109.14202.04363.28405.07635.42607.03272.1311.08725.24035.15269.33868h-1.4724c-.07635-.20758-.13089-.46978-.1527-.76475-.02181-.29498-.04363-.5681-.07635-.84123-.05453-.3496-.1636-.6118-.3272-.77568-.1636-.15294-.42536-.24034-.79619-.24034h-1.4724v2.622h-1.4724v-6.70795h3.61011zm-.52352 3.03715c.3381 0 .58896-.07648.76347-.22943.1636-.14202.25085-.3933.25085-.73197 0-.32775-.08725-.55718-.25085-.71013-.1745-.14202-.42536-.2185-.76347-.2185h-1.61419v1.89003h1.6142zm-4.52628-3.03715v1.24545h-3.53377v1.43117h3.23929v1.14713h-3.23929v1.64967h3.61012v1.23453h-5.08252v-6.70795h5.00617z"/><path fill="#036" d="M179.44268 44.8463v-1.24545h5.48607v1.24545h-2.00684v5.4625h-1.4724v-5.4625h-2.00683zm-2.36676-1.24545l2.50854 6.70795h-1.52694l-.5017-1.4858h-2.50855l-.52352 1.4858h-1.4833l2.53035-6.70795h1.50512zm.08725 4.11873l-.83981-2.45813h-.02181l-.87254 2.45812h1.73416zm.74166-4.86163h-1.26518v-1.10342h1.26518v1.10342zm-1.93049 0h-1.26517v-1.10342h1.26517v1.10342zm-8.3218 1.98835v-1.24545h5.48606v1.24545h-2.00683v5.4625h-1.4724v-5.4625h-2.00684zm-1.17793 5.4625h-1.4724v-6.70795h1.4724v6.70795zm-6.8494-1.64967c.07634.15295.1854.28405.3272.38237.13087.09833.29447.16388.46898.2185.18541.0437.37083.06555.56715.06555.13088 0 .27267-.01092.42536-.03277.14179-.02185.28357-.06555.41445-.1311.13089-.05463.23995-.14203.3272-.25128.08726-.10925.13089-.25127.13089-.41515 0-.18572-.05454-.33867-.1636-.44792-.11998-.10926-.27267-.20758-.45809-.28405-.18541-.07648-.40354-.14203-.6435-.19666-.22903-.05462-.46898-.12017-.71983-.18572-.25086-.06555-.4908-.14203-.73075-.22943s-.44718-.20757-.6326-.3496c-.19631-.14202-.349-.32775-.45807-.54625-.11998-.20757-.17451-.46977-.17451-.77567 0-.3496.07635-.64458.21813-.90678.1527-.25127.33811-.45885.57806-.63364.23995-.16388.5017-.29498.8071-.37145.29448-.0874.59986-.12018.89434-.12018.35993 0 .68713.03278 1.01433.10925.3163.0874.61077.20758.86163.38238.25085.1748.44717.40422.58896.67735.1527.27312.21813.60087.21813.98325h-1.41787c-.02181-.19665-.05453-.36053-.13088-.49163-.06544-.1311-.1636-.24035-.28357-.3059-.11998-.07647-.25086-.1311-.41446-.16387-.1527-.03278-.3163-.0437-.5017-.0437-.10907 0-.22905.01092-.34902.03277s-.22904.06555-.3272.1311-.1745.14203-.23995.24035c-.06544.0874-.08725.20758-.08725.3496 0 .1311.02181.24035.06544.32775.05453.07648.1527.15295.29448.2185.1527.07648.34901.14203.61077.20758.26177.06555.59987.16387 1.02523.2622.11998.03277.29449.07647.51262.14202.22904.06555.44717.16388.6653.31683.21814.14202.40356.32775.56716.5681.1636.25127.23994.55717.23994.92862 0 .3059-.05453.58995-.1745.85215-.11998.27313-.29448.49163-.53443.68828-.22904.18572-.52352.33867-.87254.44792-.34901.09833-.75256.15295-1.19973.15295-.37083 0-.73075-.0437-1.07977-.1311-.3381-.09832-.6544-.24035-.91616-.42607-.26176-.19665-.4799-.44793-.63259-.7429-.1527-.3059-.22904-.66643-.22904-1.07065h1.42878c0 .2185.04362.41515.11997.5681zm-4.559-5.05828c.30538 0 .56714.05463.818.15295.23994.09833.43626.22943.61077.3933.1745.1748.30539.37145.39264.58995.09816.2185.14179.45885.14179.72105 0 .3933-.08726.73198-.25086 1.01603-.1636.29497-.43627.51347-.8071.66642v.01093c.17451.05462.3272.1311.44718.22942.11998.10925.21814.22943.29448.37145.06544.14203.11998.29498.1636.46978.03272.16387.05454.33867.06544.50254.01091.10925.01091.22943.02182.37145 0 .15296.0109.29498.03272.44793.0109.15295.03272.29498.07634.42608.03272.1311.07635.25127.1527.33867h-1.4724c-.08726-.20757-.13089-.45885-.1527-.75382-.02181-.29498-.04363-.57903-.08725-.85216-.04363-.3496-.1527-.60087-.3163-.76475-.1636-.16387-.42536-.25127-.79619-.25127h-1.4724v2.622h-1.4724v-6.70795h3.61011zm-.52353 3.03715c.3381 0 .58896-.07647.76347-.22942.1636-.14203.25085-.3933.25085-.73198 0-.31682-.08725-.55717-.25085-.6992-.1745-.15295-.42536-.22942-.76347-.22942h-1.6142V46.638h1.6142zm-4.52628-3.03715v1.24545h-3.53377v1.43118h3.23929v1.14712h-3.2393v1.64967h3.61013v1.23453h-5.08253v-6.70795h5.00618zm-9.97963 6.70795l-2.17044-6.70795h1.51604l1.4833 4.7196h.02182l1.50513-4.7196h1.52693l-2.22496 6.70795h-1.65782zm-3.22839 0h-1.4724v-6.70795h1.4724v6.70795zm-7.30748-6.70795l2.79211 4.5011h.02181v-4.5011h1.37425v6.70795h-1.4724l-2.78121-4.49017h-.02182v4.49017h-1.38515v-6.70795h1.4724zm-3.88279 6.2054c-.51261.437-1.21064.6555-2.105.6555-.90525 0-1.61418-.2185-2.10499-.6555-.5017-.437-.75256-1.11435-.75256-2.03205v-4.17335h1.48331v4.17335c0 .18573.01091.36052.04363.53533.03272.1748.09816.32774.19632.46977.09816.1311.23995.24035.41446.32775.1854.0874.42536.12017.71984.12017.52352 0 .88344-.10925 1.09067-.3496.19632-.22942.29448-.60087.29448-1.10342v-4.17335h1.4724v4.17335c0 .90677-.25085 1.58412-.75256 2.03205z"/><path fill="#036" d="M236.89917 33.33135c.30539 0 .56715.0437.8071.14203.25085.09832.44717.22942.62168.40422.1745.16387.30539.36052.39264.58995.09816.2185.14179.45885.14179.72105 0 .3933-.08726.73198-.25086 1.01603-.1636.29497-.43627.51347-.8071.66642v.01093c.17451.05462.3272.1311.44718.22942.11998.10925.21814.22943.29448.37145.06544.14203.11998.29498.1527.45885.04362.1748.06544.33868.07634.51348.01091.10925.01091.22942.02182.37145 0 .14202.0109.29497.03272.44792.0109.15295.03272.29498.07634.42608.03272.1311.07635.25127.1527.33867h-1.4724c-.08726-.20757-.13089-.45885-.1527-.75382-.02181-.29498-.04363-.57903-.08725-.85215-.04363-.3496-.1527-.60088-.3163-.76475-.1636-.16388-.42536-.25128-.79619-.25128h-1.4724v2.622h-1.4724v-6.70795h3.61011zm-.52352 3.03715c.3381 0 .58896-.07647.76347-.22942.1636-.15295.25085-.3933.25085-.73198 0-.32775-.08725-.55717-.25085-.71012-.1745-.14203-.42536-.2185-.76347-.2185h-1.6142v1.89002h1.6142zm-4.48265-3.03715v1.24545h-3.53378v1.43118h3.2393v1.14712h-3.2393v1.64967h3.61012v1.23453h-5.08252v-6.70795h5.00618zm-9.2598 0c.43628 0 .83982.06555 1.21065.20757.37083.14203.68712.33868.95979.62273.27267.27313.4908.6118.6435 1.02695.15269.41515.22904.90678.22904 1.46395 0 .4807-.06544.93955-.18542 1.34378-.13088.41515-.3163.77567-.56715 1.08157-.26176.29498-.57805.53533-.94888.6992-.38173.1748-.8289.2622-1.34152.2622h-2.89028v-6.70795h2.89028zm-.09815 5.47342c.20722 0 .41445-.0437.61077-.10924.20723-.06555.38174-.18573.53443-.33868.1636-.16387.28357-.37145.38173-.62273.08726-.2622.1418-.57902.1418-.93954 0-.33868-.03273-.64458-.09817-.9177-.06544-.27313-.1745-.51348-.3272-.6992-.1527-.19666-.34901-.3496-.59987-.44793-.23995-.10925-.54533-.15295-.90525-.15295h-1.05795v4.22797h1.3197zm-8.56176-5.47342l2.80302 4.5011h.0109v-4.5011h1.38516v6.70795h-1.4724l-2.79212-4.49017h-.01091v4.49017h-1.38515v-6.70795h1.4615zm-4.84258 0l2.50854 6.70795h-1.52693l-.51262-1.49672h-2.49763l-.52353 1.49672h-1.4833l2.53035-6.70795h1.50512zm.08726 4.11873l-.83982-2.46905h-.02181l-.87254 2.46905h1.73417zm-10.85217-4.11873h1.71235l1.3088 2.1413 1.36334-2.1413h1.6142l-2.14863 3.20102 2.33404 3.50693h-1.75598l-1.4615-2.3161-1.49422 2.3161h-1.6469l2.33403-3.50692-2.15953-3.20103zm-1.1343 0v1.24545h-3.53377v1.43118h3.2393v1.14712h-3.2393v1.64967h3.61012v1.23453h-5.08252v-6.70795h5.00617zm-9.4452 0v5.47342h3.2611v1.23453h-4.7335v-6.70795h1.4724zm-4.99527 0l2.49764 6.70795h-1.52694l-.50171-1.49672h-2.50854l-.52352 1.49672h-1.48331l2.53035-6.70795h1.51603zm.08726 4.11873l-.85073-2.46905h-.02181l-.87254 2.46905h1.74508zm-4.84258.60087h-2.82483v-1.14712h2.82483v1.14712zm-8.67083-4.7196v2.5783h2.70487v-2.5783h1.4724v6.70795h-1.4724v-2.89512h-2.70487v2.89512h-1.4724v-6.70795h1.4724zm-4.47174 1.7917c-.08726-.14203-.20723-.2622-.33811-.37145-.13088-.10925-.27267-.18573-.43627-.25128-.1636-.05462-.3381-.0874-.52352-.0874-.3381 0-.61078.06555-.83982.19666-.23994.12017-.42536.29497-.56714.51347-.1418.2185-.25086.45885-.3163.73198-.06544.28404-.09816.5681-.09816.86307 0 .27313.03272.55717.09816.81937s.1745.50256.3163.72105c.14178.20758.3272.38238.56714.51348.22904.12017.51262.18573.83982.18573.44717 0 .79619-.1311 1.05795-.41515.25085-.27313.40355-.63366.45808-1.08158h1.42878c-.03272.41515-.13088.79753-.29448 1.1362-.1527.33868-.35992.62273-.61078.86308-.26176.24035-.56715.41515-.90525.54625-.33811.12017-.71985.18572-1.1343.18572-.51261 0-.9707-.0874-1.38515-.27312-.40355-.1748-.75256-.41515-1.03614-.73198-.28357-.31682-.5017-.67735-.6435-1.10342-.15269-.42608-.22903-.88493-.22903-1.36563 0-.50255.07634-.97232.22904-1.3984.14178-.42607.35992-.79752.6435-1.12527.28357-.31683.63258-.5681 1.03613-.75383.41445-.1748.87254-.27312 1.38515-.27312.37083 0 .71984.05462 1.04704.16387.3272.10925.62169.2622.88345.46978.26176.19665.46898.44792.6435.75382.1636.29498.27266.64458.31629 1.02695h-1.42878c-.02182-.16387-.07635-.31682-.1636-.45885zm-5.87871 4.91625h-1.48332v-6.70795h1.48332v6.70795zm-4.91893-6.70795c.29449 0 .56715.0437.8071.14202.23995.09833.44717.22943.62168.40423.1636.16387.29448.36052.39264.58995.08726.2185.13088.45885.13088.72105 0 .3933-.07634.73197-.25085 1.01602-.1636.29498-.43627.51348-.8071.66643v.01092c.18542.05463.3272.1311.44718.22943.11997.10925.21813.22942.29448.37145.07635.14202.13088.29497.1636.45885.03272.1748.05453.33868.06544.51347.0109.10925.02181.22943.02181.37145.01091.14203.02182.29498.03272.44793.02182.15295.04363.29498.07635.42608s.08725.25127.1527.33867h-1.47241c-.07635-.20757-.13088-.45885-.1527-.75382-.0109-.29498-.04362-.57903-.07634-.85216-.05453-.3496-.1636-.60087-.3272-.76475-.1527-.16387-.42536-.25127-.7962-.25127h-1.4724v2.622h-1.4724v-6.70795h3.62102zm-.53442 3.03715c.3381 0 .59986-.07648.76347-.22943.1745-.15294.25085-.3933.25085-.73197 0-.32775-.07635-.55717-.25085-.71012-.1636-.14203-.42537-.2185-.76347-.2185h-1.60329v1.89002h1.60329zm-7.3184-3.03715c.43627 0 .83982.06555 1.21064.20757.37083.14203.68713.33868.9598.62273.27266.27312.4908.6118.64349 1.02695.1527.41515.22904.90677.22904 1.46395 0 .4807-.06544.93955-.18541 1.34378-.13088.41514-.3163.77567-.56715 1.08157-.26176.29497-.56715.53532-.94889.6992-.38173.1748-.8289.2622-1.34152.2622h-2.89028v-6.70795h2.89028zm-.09816 5.47342c.20723 0 .41445-.0437.62168-.10925.19632-.06555.37083-.18572.53443-.33867.1527-.16388.27267-.37145.37083-.62273.09816-.2622.14179-.57902.14179-.93955 0-.33867-.03272-.64457-.09817-.9177-.06544-.27312-.1745-.51347-.3272-.6992-.15269-.19665-.34901-.3496-.58896-.44792-.25085-.10925-.55624-.15295-.91616-.15295h-1.05795v4.22797h1.31971zm-4.2318-5.47342v1.24545h-3.53377v1.43117h3.2502v1.14713h-3.2502v1.64967h3.61012v1.23453h-5.08252v-6.70795h5.00617zm-6.69671 6.70795h-1.4724v-6.70795h1.4724v6.70795zm-5.06071-6.70795c.30539 0 .57805.0437.818.14202.23995.09833.44718.22943.61078.40423.1745.16387.30538.36052.40354.58995.08726.2185.13088.45885.13088.72105 0 .3933-.08725.73197-.25085 1.01602-.1636.29498-.43627.51348-.8071.66643v.01092c.17451.05463.3272.1311.44718.22943.11997.10925.21813.22942.29448.37145.07635.14202.13088.29497.1636.45885.03272.1748.05453.33868.06544.51347.0109.10925.0109.22943.02181.37145.01091.14203.02182.29498.03272.44793.01091.15295.04363.29498.07635.42608s.08725.25127.1527.33867h-1.47241c-.07635-.20757-.13088-.45885-.1527-.75382-.0218-.29498-.04362-.57903-.08725-.85216-.04362-.3496-.1527-.60087-.3163-.76475-.1636-.16387-.42535-.25127-.79618-.25127h-1.4724v2.622h-1.47241v-6.70795h3.61012zm-.52352 3.03715c.3381 0 .58896-.07648.76347-.22943.1636-.15294.25085-.3933.25085-.73197 0-.32775-.08725-.55717-.25085-.71012-.17451-.14203-.42537-.2185-.76347-.2185h-1.6142v1.89002h1.6142zm-4.27543-3.03715v1.24545h-3.23929v1.54042h2.80302v1.14713h-2.80302v2.77495h-1.4724v-6.70795h4.71169z"/><path fill="#036" d="M105.96424 57.27895H78.04309c1.71235 1.3984 3.69737 2.45812 5.80236 3.1901h16.30552c2.10499-.73198 4.10092-1.7917 5.81327-3.1901z"/><path fill="#036" d="M29.0829 55.6839h12.10645l.0218-.05463h-.03271l1.00342-3.13547h-11.8883"/><path fill="#036" d="M28.53757 57.27895l-1.21064 3.1901h12.33548l1.04704-3.1901"/><path fill="#036" d="M2.6996 57.27895h11.5611v3.1901H2.6996z"/><path fill="#036" d="M2.6996 52.4938h11.5611v3.1901H2.6996z"/><path fill="#036" d="M2.6996 47.71958h11.5611v3.1901H2.6996z"/><path fill="#036" d="M2.6996 42.93443h11.5611v3.1901H2.6996z"/><path fill="#036" d="M2.6996 28.5899h11.5611V31.78H2.6996z"/><path fill="#036" d="M2.6996 23.80475h11.5611v3.1901H2.6996z"/><path fill="#036" d="M2.6996 14.24538h35.3159v3.1901H2.6996z"/><path fill="#036" d="M2.6996 19.0196h35.3159v3.1901H2.6996z"/><path fill="#036" d="M49.51116 28.5899h-10.4159L37.88462 31.78h10.65584"/><path fill="#036" d="M43.16346 17.42455H57.5494l-1.23246-3.17918H44.3741"/><path fill="#036" d="M41.40748 22.2097H59.349l-1.23246-3.1901H42.61812"/><path fill="#036" d="M50.99447 26.99485H61.1595l-1.24336-3.1901H40.85124l-1.19974 3.1901h10.31774l.44717-1.46395h.11998"/><path fill="#036" d="M52.41234 31.78h10.54678l-1.24336-3.1901H51.44164"/><path fill="#036" d="M53.84112 36.55423h10.9176l-1.24336-3.1901H52.87042"/><path fill="#036" d="M55.2699 41.32845h11.28843l-1.23246-3.1901H54.2883"/><path fill="#036" d="M32.60577 46.12453h35.75217l-1.23246-3.1901H33.81642"/><path fill="#036" d="M30.8498 50.89875h39.30774l-1.23246-3.17918H32.04953"/><path fill="#036" d="M59.86162 55.6839h12.09553l-1.23246-3.1901H58.79276"/><path fill="#036" d="M60.3088 57.27895l1.04703 3.1901h12.40092l-1.23245-3.1901"/><path fill="#036" d="M72.43704 14.24538h11.5611v3.1901h-11.5611z"/><path fill="#036" d="M72.43704 19.0196h11.5611v3.1901h-11.5611z"/><path fill="#036" d="M72.43704 23.80475h11.5611v3.1901h-11.5611z"/><path fill="#036" d="M72.43704 28.5899h11.5611V31.78h-11.5611z"/><path fill="#036" d="M72.43704 33.36413h11.5611v3.1901h-11.5611z"/><path fill="#036" d="M72.43704 38.13835h11.5611v3.1901h-11.5611z"/><path fill="#036" d="M72.5243 46.12453h11.68107c-.14179-.8303-.21813-1.7043-.21813-2.63293v-.55717h-11.5502v1.50765c0 .57902.04363 1.1362.08726 1.68245z"/><path fill="#036" d="M73.56043 50.89875h13.1753c-1.02523-.79753-1.72326-1.89003-2.15953-3.17918H72.7097c.19633 1.1362.469 2.20685.85073 3.17918z"/><path fill="#036" d="M109.8034 52.4938H74.21483c.62169 1.19082 1.38515 2.25055 2.25769 3.1901h31.07319c.87253-.93955 1.636-1.99928 2.25769-3.1901z"/><path fill="#036" d="M111.30852 47.71958H99.44203c-.44717 1.28915-1.1452 2.38165-2.18134 3.17917h13.1971c.38174-.97233.65441-2.04297.85073-3.17917z"/><path fill="#036" d="M100.031 14.24538h11.5611v3.1901H100.031z"/><path fill="#036" d="M100.031 19.0196h11.5611v3.1901H100.031z"/><path fill="#036" d="M100.031 23.80475h11.5611v3.1901H100.031z"/><path fill="#036" d="M100.031 28.5899h11.5611V31.78H100.031z"/><path fill="#036" d="M100.031 33.36413h11.5611v3.1901H100.031z"/><path fill="#036" d="M100.031 38.13835h11.5611v3.1901H100.031z"/><path fill="#036" d="M111.58119 44.44208v-1.50765h-11.5502v.55717c0 .92863-.07634 1.80263-.21813 2.63293h11.68107c.04363-.54625.08726-1.10343.08726-1.68245z"/><path fill="#036" d="M2.6996 38.13835v3.1901h42.9833l.9816-3.1901"/><path fill="#036" d="M2.6996 33.36413v3.1901h44.41208l.9816-3.1901"/></svg>