<svg xmlns="http://www.w3.org/2000/svg" role="img" viewBox="3.77 1.15 128.96 61.84"><title>getCRUCLdata logo</title><path fill="#484F5E" d="M72.6332 27.8422c-.052-.2776-.1214-.5725-.1908-.85-.0867-.3296-.2082-.6419-.347-.9541-.0173-.0347-.0347-.0868-.052-.1214-1.2143-2.6542-3.8684-4.545-6.9389-4.5971-2.6541-.052-5.0134 1.249-6.4532 3.244-.3122.4163-.5725.8847-.798 1.3704-.0173.0347-.0347.0694-.052.1214-.1388.3123-.2429.6245-.347.9541-.0867.2776-.1387.5551-.1908.8501-.052.2602-.0867.5377-.1041.8153-.0173.2255-.0173.4337-.0173.6592 0 .3643.0347.7286.1041 1.0755.052.3296.1214.6419.2081.9541.9368 3.2093 3.8685 5.6032 7.3553 5.6726 2.6541.052 5.0133-1.249 6.4532-3.244l-4.0246-1.4745c-.5725.5378-1.3184.85-2.099.8847-1.3531.0694-2.498-.6071-3.1052-1.8561-.1388-.2949-.2602-.6072-.3296-.9541h10.9808c.0347-.2256.0694-.4684.0868-.7113.0173-.2255.0173-.4337.0173-.6592-.052-.399-.0867-.798-.1561-1.1796zm-10.9808 0c.0867-.2949.1908-.5898.3296-.85.1908-.3643.4163-.6766.6939-.9541h.0173-.0173c.0347-.0347.0867-.0694.1214-.1041.5551-.4857 1.2317-.798 1.9602-.8327.9021-.052 1.7001.2602 2.3246.8327.0347.0347.0867.0694.1214.1214.2602.2602.4857.5898.6592.9541.1214.2602.2255.5378.3123.8501h-6.5226v-.0174zM21.979 10.8419c0-2.96635-1.8041-5.5164-4.3715-6.60928-.8673-.3643-1.8041-.57246-2.7929-.57246H6.34912l.01735 19.98414h4.35413v-5.6379h3.2266l2.7583 5.6379h4.7531l-3.2613-6.4879c2.2552-1.2143 3.7817-3.5909 3.7817-6.3145zm-4.3541 0c0 1.5613-1.2664 2.8277-2.8276 2.8277h-4.0767V8.01433h4.0767c1.5612 0 2.8276 1.26636 2.8276 2.82757z"/><path fill="#484F5E" d="M27.3915 17.2431v-1.5439l-3.695 3.3827 3.695 3.5389v-1.5439c3.5215 0 5.6205 3.0531 5.6205 6.1583 0 3.1051-2.1684 6.2624-5.6205 6.2624-3.7471 0-5.6206-3.1573-5.6206-6.2624h-4.3715c0 5.5164 4.4756 9.992 9.9921 9.992 5.5164 0 9.992-4.4756 9.992-9.992.0174-5.5338-4.4582-9.9921-9.992-9.9921zm92.0965 13.6002c-.485 1.4572-1.682 2.2898-3.018 2.3592-1.527.0694-2.776-.7979-3.331-2.3766-.121-.3469-.208-.7285-.243-1.1449-.017-.2255-.034-.451-.034-.6939 0-.104 0-.2255.017-.3296.035-.4163.104-.7979.243-1.1622.503-1.4052 1.683-2.3419 3.001-2.4113 1.526-.0694 2.775.8327 3.313 2.4286l4.285-.7633c-1.006-3.0878-3.886-5.3776-7.268-5.4297-3.539-.0694-6.54 2.2552-7.581 5.4297-.226.6766-.347 1.4052-.382 2.1511v.5378c.017.7459.156 1.4571.382 2.151 1.006 3.0879 3.886 5.3777 7.268 5.4297 3.539.0694 6.54-2.2551 7.581-5.4297l-4.233-.7459zm10.721-9.0552h-4.354v14.9013h4.354V21.7881zm-.312-2.9144h-3.661c-.19 0-.364-.1561-.364-.3643v-3.6429c0-.1908.156-.3643.364-.3643h3.661c.19 0 .364.1561.364.3643v3.6603c0 .1908-.174.3469-.364.3469zm-24.148 8.3268c-1.336-1.7001-4.649-2.8797-6.2622-3.4695-1.4398-.5204-1.9602-.9367-1.9429-1.648.0521-1.3531 1.3704-1.648 2.2552-1.648 1.9599 0 2.2549 2.0644 2.2549 2.0644l3.851-.9542s-.746-4.8745-6.7478-4.8745c-1.9429 0-4.0593 1.1449-5.1695 2.6021-.9888 1.301-1.1102 2.897-.4684 4.4929.8501 2.1337 2.6021 2.7756 4.3716 3.4174 1.3184.4857 3.0881.9715 4.1981 2.0817.538.5378.642 1.4572.26 2.2378-.399.85-1.526 1.4398-2.6193 1.4398-2.394 0-3.3654-2.151-3.4001-2.2378l-.1214-.2949-4.3369.8674.1041.3643c.0174.052.399 1.3531 1.5613 2.6715 1.0755 1.2143 3.0358 2.6715 6.3144 2.6715 2.7929 0 5.0129-1.197 6.2099-3.3654 1.128-2.0123 1.18-4.5277-.312-6.4185zm-57.5234-5.8634c-1.5786-.0347-3.2093.4163-4.0593 1.2143v-.7286h-4.3542v21.8403h4.3542v-7.8063c.7633.7286 2.3072 1.1622 3.7644 1.1969 4.4235.0868 7.546-3.5735 7.4767-7.9971-.0868-4.1807-3.0185-7.6328-7.1818-7.7195zm-.4511 11.9002c-2.0296.1041-3.5908-1.4745-3.6082-4.1633v-.1041c.0174-2.1858 1.5092-3.7817 3.2439-3.8685 2.0297-.104 3.6083 1.5786 3.6083 4.2675 0 2.3766-1.5092 3.7643-3.244 3.8684zm34.9721-11.8481c-2.602 0-3.8164 1.7173-3.8164 1.7173v-1.3184H74.871v14.9014h4.0592v-7.0083c0-2.446 1.1276-4.3889 3.1226-4.3889 1.9949 0 3.0704 1.7347 3.0704 4.3889v7.0083h4.1113v-8.3094c0-1.5959-.3816-6.9909-6.4879-6.9909z"/><path d="M22.16338 55.15924c-.329.35946-.7311.53817-1.2063.53817-.71484 0-1.20833-.32696-1.48451-.98494-.15231-.35133-.22948-.75343-.22948-1.2063 0-.52394.07107-.9626.21526-1.32002.2701-.6722.76358-1.00727 1.4764-1.00727.52394 0 .94228.19292 1.253.57877.31274.38586.46911.94636.46911 1.68557 0 .78389-.1645 1.35657-.49348 1.71602zm-.6925-5.5786c-.29041-.11982-.63159-.17871-1.0215-.17871-1.05602 0-1.8724.39397-2.44914 1.18192-.57472.78592-.8631 1.75868-.8631 2.91623 0 1.19817.29853 2.14859.89559 2.85124.59705.70266 1.39719 1.05399 2.39634 1.05399.6458 0 1.17177-.15434 1.57793-.46505.2234-.16653.43256-.41632.62752-.74937v.49958c0 .74327-.08123 1.27128-.24166 1.58605-.24776.48943-.73922.73515-1.47233.73515-.51786 0-.88746-.09341-1.10679-.27822-.12794-.1056-.22136-.27619-.27822-.51379h-2.21357c.06701.77577.41428 1.3586 1.04383 1.74852.62752.38991 1.43984.58487 2.43493.58487 1.64495 0 2.75986-.43865 3.34066-1.31393.33712-.50973.50567-1.26519.50567-2.27043v-7.38196h-1.97596v1.121c-.30462-.54628-.7047-.92401-1.2002-1.1271zm-.37164-.20105zm7.42257 2.12015c.25791-.29446.62346-.44271 1.0946-.44271.4346 0 .79608.14012 1.08851.41834.29447.27822.45693.68641.48942 1.22458H28.0324c.06701-.50567.22948-.90371.48942-1.2002zm2.84515-1.75664c-.51988-.24166-1.10272-.36351-1.75055-.36351-1.0885 0-1.97597.35945-2.65832 1.07835-.68438.7189-1.02555 1.75258-1.02555 3.099 0 1.43781.37976 2.47555 1.13522 3.11322.75749.63767 1.63073.9565 2.62176.9565 1.19817 0 2.13234-.37975 2.79844-1.13521.4285-.47724.66814-.94635.72094-1.40734h-2.07751c-.10966.22948-.23557.40819-.37976.53613-.26197.2376-.60112.35742-1.01946.35742-.396 0-.73312-.09748-1.0154-.29447-.461-.31274-.70672-.86106-.73515-1.64089h5.32679c.01015-.67219-.01219-1.18598-.06499-1.5434-.08935-.60924-.28837-1.14334-.593-1.60637-.3371-.52191-.7656-.90573-1.28346-1.14943zm-1.60636-.36351zm4.11846 1.7282h1.08648v4.79067c0 .48536.11372.8448.34117 1.07835.35336.36554 1.00931.53207 1.97191.49958l.9626-.03656v-1.52107a3.30449 3.30449 0 0 1-.20308.01219c-.06905.00203-.13403.00406-.19699.00406-.41428 0-.66-.04062-.74124-.11982-.08123-.07717-.12185-.27619-.12185-.59502V51.1078h1.26316v-1.45h-1.26316v-2.16889h-2.01252v2.1689h-1.08648zm6.85395-3.16195c-.98494.99306-1.47842 2.41056-1.47842 4.2464 0 1.69979.43459 3.03808 1.29971 4.01287.86715.97072 2.0572 1.45608 3.57015 1.45608 1.22254 0 2.22575-.35945 3.00964-1.07835.78186-.71688 1.26925-1.65104 1.46015-2.79845h-2.17702c-.14825.54223-.33305.95042-.55847 1.22051-.40413.50567-.99103.7575-1.76273.7575-.7514 0-1.37283-.29447-1.86022-.88137-.48739-.58894-.73109-1.47233-.73109-2.65223s.23152-2.09375.6925-2.73752c.461-.6458 1.09258-.96869 1.89271-.96869.7839 0 1.37689.22948 1.77695.68641.2234.25588.40616.63767.55035 1.14131h2.19733c-.0325-.65595-.2762-1.30987-.72703-1.96378-.81841-1.15959-2.11406-1.7404-3.88492-1.7404-1.32205 0-2.4126.43256-3.26959 1.29971zm3.20663-1.42156zm8.5314 2.14859h2.55474c.47724 0 .83466.06295 1.07226.18683.42241.2173.63564.6458.63564 1.28347 0 .59096-.21932.98494-.65798 1.18599-.24775.11372-.61736.17058-1.11287.17058h-2.4918zm4.71551-1.5556c-.39803-.16652-.96463-.2579-1.70384-.27212h-5.16026v10.5236h2.14858v-4.12658h2.27044c.64782 0 1.0885.1117 1.32408.33508.23557.22339.35742.6722.36758 1.34236l.01421.97885c.00406.30868.03656.61127.09342.90573.02843.14419.07514.33102.14215.56457h2.42072v-.264c-.20917-.12795-.3432-.329-.40007-.5991-.03859-.17261-.05686-.49754-.05686-.97884v-.70672c0-.73718-.10154-1.2855-.30462-1.64495-.20105-.35945-.54426-.63767-1.03165-.83262.58081-.19902.99712-.5402 1.25097-1.02353.25182-.48333.37773-.97478.37773-1.47436 0-.41428-.06701-.78389-.19902-1.10678-.13403-.32493-.31477-.6194-.54425-.88543-.27619-.32493-.61127-.56863-1.0093-.73515zm3.64529-.27212v6.4681c0 1.11897.17262 1.99018.51988 2.61364.65189 1.1413 1.89068 1.714 3.7123 1.714 1.82366 0 3.05839-.5727 3.70622-1.714.34726-.62346.52191-1.49467.52191-2.61364v-6.4681h-2.23591v6.4681c0 .725-.0853 1.253-.25588 1.58605-.26807.58893-.84481.88543-1.73633.88543-.89356 0-1.47437-.2965-1.7404-.88543-.17262-.33305-.25791-.86106-.25791-1.58605v-6.4681zm4.23219 0zm7.34743 1.1007c-.98494.99305-1.47842 2.41055-1.47842 4.2464 0 1.69978.43459 3.03807 1.29971 4.01286.86715.97072 2.0572 1.45608 3.57015 1.45608 1.22254 0 2.22575-.35945 3.00964-1.07835.78186-.71688 1.26925-1.65104 1.46015-2.79845h-2.17905c-.14622.54223-.33305.95042-.55644 1.22051-.40413.50567-.99103.7575-1.76274.7575-.7514 0-1.37282-.29447-1.8602-.88137-.4874-.58894-.7311-1.47233-.7311-2.65223s.22948-2.09375.6925-2.73752c.461-.6458 1.09258-.96869 1.89068-.96869.78592 0 1.37891.22948 1.77898.68641.22339.25588.40616.63767.54832 1.14131h2.19935c-.03249-.65595-.27618-1.30987-.72702-1.96378-.81841-1.15959-2.11406-1.7404-3.88492-1.7404-1.32205 0-2.4126.43256-3.26959 1.29971zm3.20663-1.42157zm6.33204.32087v10.5236h7.41039v-1.89067h-5.21104v-8.63293zm12.89355 2.86749c-.36555-.20714-.78592-.31071-1.25707-.31071-1.02352 0-1.8399.37976-2.45117 1.1413-.61127.76156-.91793 1.80742-.91793 3.13556 0 1.15147.31072 2.09376.93214 2.83094.62143.73515 1.385 1.10272 2.2948 1.10272.55238 0 1.01337-.1056 1.38501-.31477.37164-.20918.70266-.54426.99306-1.00728v1.07836h1.978v-10.5094h-2.0633v3.7123c-.22947-.36554-.52597-.65188-.89354-.85902zm.49957 5.54408c-.29852.42647-.73718.64174-1.31392.64174-.57472 0-1.00525-.21527-1.28753-.6458-.28431-.43053-.42444-1.00524-.42444-1.72415 0-.6661.1381-1.22457.41632-1.6754.27822-.44881.71484-.67423 1.30986-.67423.39195 0 .73312.12388 1.02962.37163.47927.4082.72093 1.09054.72093 2.04096 0 .68235-.15028 1.23675-.45084 1.66525zm8.59638-1.67135v.7575c-.01422.68031-.20511 1.14943-.57472 1.4053-.3696.25792-.7717.38586-1.21035.38586-.2762 0-.50973-.07717-.70266-.23151-.19293-.15434-.2904-.40616-.2904-.75343 0-.38991.1584-.67829.47114-.86512.18683-.10966.49349-.20105.92198-.27822l.45693-.0853c.22745-.04264.4082-.08935.53817-.13809.132-.05077.26197-.11575.38991-.19699zm-1.23473-.95041l-.6925.0853c-.78592.10153-1.38094.26806-1.78507.5016-.73718.4285-1.10679 1.121-1.10679 2.07751 0 .73718.22948 1.30784.68844 1.70993.45896.4021 1.0418.60315 1.7465.60315.55237 0 1.04585-.1259 1.4845-.37976.36555-.21323.69048-.47317.97073-.7778a5.89847 5.89847 0 0 0 .05686.47115c.02437.1381.06702.28634.12997.44272h2.21154v-.30056c-.132-.06093-.2315-.14013-.29852-.23558-.06702-.09341-.10764-.27415-.12185-.54222-.01016-.35133-.01422-.65189-.01422-.89964v-3.56812c0-.93823-.33102-1.5759-.99306-1.91504-.66204-.33712-1.4175-.50567-2.27043-.50567-1.30784 0-2.23185.34117-2.77002 1.02758-.3371.43865-.528.99712-.57065 1.67744h1.96378c.04671-.30056.14216-.53816.28432-.7128.20104-.23964.54019-.35743 1.02149-.35743.4285 0 .75342.06092.97478.18074.22136.12185.33305.3432.33305.66204 0 .26198-.14621.45287-.43662.57675-.16246.0731-.43053.132-.80623.17871zm.10764-3.25537zm4.16923 1.7282h1.08445v4.79067c0 .48536.11372.8448.3432 1.07835.35133.36554 1.0093.53207 1.96988.49958l.96463-.03656v-1.52107a3.40372 3.40372 0 0 1-.20308.01219c-.06905.00203-.13607.00406-.197.00406-.41427 0-.66203-.04062-.74326-.11982-.08124-.07717-.12185-.27619-.12185-.59502V51.1078h1.26519v-1.45h-1.2652v-2.16889h-2.01251v2.1689h-1.08445zm9.95904 2.47758v.7575c-.01421.68031-.2051 1.14943-.57471 1.4053-.36961.25792-.7717.38586-1.21036.38586-.27619 0-.50973-.07717-.70266-.23151-.19292-.15434-.2904-.40616-.2904-.75343 0-.38991.1584-.67829.47114-.86512.18684-.10966.49349-.20105.92199-.27822l.45693-.0853c.22745-.04264.40819-.08935.53816-.13809.132-.05077.26197-.11575.38991-.19699zm-1.23472-.95041l-.6925.0853c-.78593.10153-1.38095.26806-1.78508.5016-.73718.4285-1.10679 1.121-1.10679 2.07751 0 .73718.22948 1.30784.68844 1.70993.45897.4021 1.0418.60315 1.7465.60315.55237 0 1.04585-.1259 1.4845-.37976.36555-.21323.69048-.47317.97073-.7778a5.89847 5.89847 0 0 0 .05686.47115c.02437.1381.06702.28634.12997.44272h2.21154v-.30056c-.132-.06093-.2315-.14013-.29852-.23558-.06702-.09341-.10764-.27415-.12185-.54222-.01016-.35133-.01422-.65189-.01422-.89964v-3.56812c0-.93823-.33102-1.5759-.99306-1.91504-.66204-.33712-1.4175-.50567-2.27043-.50567-1.30784 0-2.23185.34117-2.77001 1.02758-.33712.43865-.52801.99712-.57066 1.67744h1.96379c.0467-.30056.14215-.53816.2843-.7128.20106-.23964.5402-.35743 1.0215-.35743.4285 0 .75343.06092.97478.18074.22136.12185.33102.3432.33102.66204 0 .26198-.14418.45287-.43459.57675-.16246.0731-.43053.132-.80622.17871zm.1056-3.25537z"/></svg>