<svg xmlns="http://www.w3.org/2000/svg" role="img" viewBox="-5.36 -5.36 253.47 278.72"><title>Global Plastic Navigator logo</title><g transform="translate(-76.546 171.802)"><path fill="inherit" stroke="inherit" stroke-width="3.463" d="M175.37552 9.33266a2.97824 2.97824 0 0 1-.34629 1.31597l-12.95189 33.0723a3.11676 3.11676 0 0 1-3.08212 2.38951 3.01287 3.01287 0 0 1-2.97822-2.32026l-6.37206-19.35854-.45019-1.6969-.55411 1.73153-7.688 19.35854a3.0475 3.0475 0 0 1-5.88721 0l-10.97792-32.6221a6.02574 6.02574 0 0 1-.34631-1.593 3.08213 3.08213 0 0 1 2.9436-3.08213h7.30708a3.08213 3.08213 0 0 1 2.90896 2.0432v0s0 0 0 0l4.50201 14.47563.45019 1.66227.58872-1.66227 3.46305-9.00398-.76186-3.01287a7.82653 7.82653 0 0 1-.34631-1.593 3.0475 3.0475 0 0 1 2.94361-3.08214h7.30707a3.11676 3.11676 0 0 1 2.90899 2.04321v0s0 0 0 0l4.50198 14.61415.48483 1.6969.51947-1.66227 5.92185-14.85656a3.0475 3.0475 0 0 1 2.87432-1.97395 3.11676 3.11676 0 0 1 3.11676 3.11676zm51.46119-3.11676a3.1514 3.1514 0 0 0-2.90896 1.97395L218.1098 23.0464l-.55409 1.66227-.41557-1.6969-4.57124-14.441s0 0 0 0v0a3.08213 3.08213 0 0 0-2.90899-2.0432h-7.37633a3.0475 3.0475 0 0 0-2.90899 3.08213 6.02574 6.02574 0 0 0 .34631 1.593l.96966 3.01287-3.46307 9.00398-.58873 1.66228-.45019-1.66228-4.50198-14.47562s0 0 0 0v0a3.01287 3.01287 0 0 0-2.87435-2.04321h-7.54949a3.0475 3.0475 0 0 0-2.9436 3.08213 6.02574 6.02574 0 0 0 .34629 1.59301l10.97794 32.6221a3.01287 3.01287 0 0 0 2.97822 2.32025 3.11676 3.11676 0 0 0 2.94363-2.1471l7.65336-19.35855.55409-1.73153.48485 1.6969 6.40668 19.22003a3.11676 3.11676 0 0 0 5.99108 0l12.98651-33.0723a3.46307 3.46307 0 0 0 .31167-1.31596 3.11676 3.11676 0 0 0-3.11676-3.39381zm35.46182 0h-25.59207a2.63193 2.63193 0 0 0-2.66655 2.66656v34.00732a2.90898 2.90898 0 0 0 2.87435 2.77046h7.23779a2.87435 2.87435 0 0 0 2.83973-2.87435V26.99431H257.381a2.77045 2.77045 0 0 0 2.77042-2.80509 2.83972 2.83972 0 0 0-2.8397-2.80508h-10.3892v-9.10787h15.44529a3.01287 3.01287 0 0 0 0-5.9911zm-22.85624-93.77988c6.92615-3.70548 6.92615-19.35855-2.42416-25.00335-7.5841-4.50198-11.7398 1.55838-14.51025 8.96935a1.45449 1.45449 0 0 0 0 1.48912c4.7444 5.26386 5.26387 20.7784 16.93441 14.61415zm-47.68644-30.33647c-12.5363 6.64909-11.8437 21.05545-4.57127 24.76093 9.00399 3.77475 12.36317-7.3417 17.31536-11.39349a1.8008 1.8008 0 0 0 .51945-.96966c-.10381-8.44988-4.46735-16.41494-13.26354-12.39778zm10.38919 39.79065a9.83511 9.83511 0 0 1 6.12965 3.844c1.93931 3.74012 1.07355-1.1428 8.3806-1.90468 4.81368-.48483 3.74013-4.98682 0-6.095a44.43116 44.43116 0 0 0-11.73978-1.55838c-6.3028.13853-6.12964 4.88292-2.90898 5.71406zm38.16301-66.80258a28.70883 28.70883 0 0 1 9.55808 7.86116c5.05607 6.92614 12.84797-.20777 15.86083-6.19889 2.25101-4.43272 1.31599-10.77014-4.50196-16.24179a13.85227 13.85227 0 0 0-21.92122 3.11677c-3.70549 6.19889-2.97825 9.80048 1.00427 11.46275zm23.13329 33.10693c8.86548 29.19366-6.44129 82.2825-18.66592 90.3168-12.22463 8.03432-28.74347 10.00827-23.41035-11.80905 8.06896-38.09375-20.46674-28.84736-8.6923 10.18142.96966 4.50198 9.83511 12.46704-6.16426 14.54488-27.70453 2.00858-35.04625-19.46244-45.53934-43.0113-.55409-1.59301-1.48912-1.2467-1.48912-.4502-.6926 13.22892 12.25927 23.75665-6.92615 23.75665-10.38919-.76188-17.90404-2.87435-26.63098-29.6785-3.77474-12.84798 0-14.64877-2.56267-24.44926-4.84827-20.18968-2.14711-50.17985 27.11583-65.79828 2.77045-1.62764 3.08212-.76188 2.32026 0-33.79953 23.3757-22.05976 65.79828-.38095 79.65056.76188.48483 1.76617.51946 1.31596-.9004-5.09071-16.24179-1.00427-14.8912-1.48912-30.85594-.4848-14.96045 3.08214-32.24116 23.89517-46.26658-7.44559-9.0386-3.46307-16.72662 2.38952-21.50566 5.19461-3.98252 16.38033-7.44559 22.02512 4.57125 4.25957 9.41955 1.593 11.49739-3.46307 13.40208a30.1287 30.1287 0 0 0-8.10357 5.12534c-4.32883 3.98253-5.81795 3.46307-9.86975 1.17744-20.50136 25.83449-13.19429 57.7986 10.14678 63.58193a7.30707 7.30707 0 0 1 5.47166 5.12534c5.6448 11.2896 10.18142.7965 18.0772 6.12963 10.97794 4.8483 9.17715-4.77903 15.20287-4.81366 23.54886 0 34.63068-19.84339 34.04198-38.09375-.0345-1.62764.83112-1.73154 1.3852.0693zm-46.54361 46.1627c0-.34631-.24244-.24242-.38095-.24242a73.55556 73.55556 0 0 1-15.96474-2.11247s-.51946 0-.51946.17316c.51946 6.78761 14.37173 9.17713 16.86515 2.18173zm-72.5513 47.3055a6.12963 6.12963 0 1 1 6.16429 6.16426 6.16426 6.16426 0 0 1-6.16429-6.16426zm1.03894 0a5.12534 5.12534 0 1 0 5.12535-5.09071 5.12534 5.12534 0 0 0-5.12535 5.0907zm5.26386 3.08213a2.45878 2.45878 0 0 0 2.4934-2.11247h-.9004a1.52375 1.52375 0 0 1-1.593 1.2467 2.04321 2.04321 0 0 1-1.93933-2.21636 1.93932 1.93932 0 0 1 1.93933-2.18173 1.55838 1.55838 0 0 1 1.593 1.21207h.86578a2.35489 2.35489 0 0 0-2.49342-2.11247 2.80509 2.80509 0 0 0-2.87434 3.08213 2.87435 2.87435 0 0 0 2.90898 3.08213zM258.21211 2.40653a6.12963 6.12963 0 1 1 6.09501-6.12964 6.06037 6.06037 0 0 1-6.09501 6.12964zm0-1.0043a5.12534 5.12534 0 1 0-5.15996-5.12534 5.09071 5.09071 0 0 0 5.15996 5.12535zm1.45451-2.21636l-1.52376-2.45877h-1.0043v2.45877h-.9004v-5.7487h2.21637c1.38522 0 2.04323.48484 2.04323 1.62765a1.52375 1.52375 0 0 1-1.52377 1.59301l1.66226 2.52804zM258.1775-4.0694c.76188 0 1.41984 0 1.41984-.93503s-.65796-.86577-1.28133-.86577h-1.17745v1.8008z"/><path stroke-width=".369" d="M224.03846 89.90645h-3.13695v-26.5924h3.91232l4.90369 17.88457V63.31404h3.13695v26.5924h-3.84032l-4.97569-18.17294zm-147.4922-8.31128V70.92232a29.87815 29.87815 0 0 1 .0177-1.05562q.0204-.57415.0639-1.07851a15.9801 15.9801 0 0 1 .0447-.44418 10.37969 10.37969 0 0 1 .50474-2.19948q.3718-1.08036 1.00504-1.76047a3.7122 3.7122 0 0 1 .0225-.02437 3.94777 3.94777 0 0 1 .76872-.62178q.44382-.2795 1.00726-.49587a6.19525 6.19525 0 0 1 1.22805-.32455q.5819-.09452 1.24095-.10633a10.58904 10.58904 0 0 1 .19017-.0019q1.9831 0 3.15504.61291 1.17192.61328 2.037 1.78484l-2.39774 2.36194q-1.04565-1.2982-2.54177-1.2982a3.22851 3.22851 0 0 0-.71555.07384q-.79825.18166-1.19554.80971-.46745.73845-.54388 2.33351a13.75663 13.75663 0 0 0-.0151.65907v11.75468a57.62808 57.62808 0 0 0 .003.52283q.006.63913.0265 1.09845a16.61555 16.61555 0 0 0 .008.14547 10.3616 10.3616 0 0 0 .16208 1.34325 4.39711 4.39711 0 0 0 .0905.391q.11189.39508.27914.63655.24333.3515.6672.5771a1.80958 1.80958 0 0 0 .46707.16726q.20862.04542.44972.0554a3.34593 3.34593 0 0 0 .13772.0026 5.6558 5.6558 0 0 0 .8001-.05318q.43274-.06203.79089-.19606a2.81018 2.81018 0 0 0 .4283-.2016v-8.329h-2.54212v-3.73217h6.02172v14.51317a7.31548 7.31548 0 0 1-.71298.37661q-.75802.35261-1.81106.6779a11.29389 11.29389 0 0 1-3.3533.49587 9.79815 9.79815 0 0 1-1.00577-.0491 7.2372 7.2372 0 0 1-.90535-.14916 4.35022 4.35022 0 0 1-.77058-.25403 3.34334 3.34334 0 0 1-.66276-.38584 10.84971 10.84971 0 0 1-.61328-.49698 8.5162 8.5162 0 0 1-.41427-.38658q-.40024-.40024-.64505-1.06706a4.43071 4.43071 0 0 1-.0491-.14068 53.34911 53.34911 0 0 1-.17648-.54572q-.13662-.43014-.23816-.77943-.16208-.55901-.22523-1.51457-.0484-.73143-.065-1.20958a15.4654 15.4654 0 0 1-.008-.2688 43.88474 43.88474 0 0 1-.003-.29058q-.003-.33009-.004-.7846a183.69406 183.69406 0 0 1-.00037-.43902zm189.2646 2.63221v-7.21136q0-3.11885.94632-4.55218a3.08008 3.08008 0 0 1 2.09942-1.3547 4.90702 4.90702 0 0 1 .90239-.07865 5.4819 5.4819 0 0 1 .97328.08196q.58965.10634 1.07297.35077a3.06052 3.06052 0 0 1 .71704.51396q.45193.42683.8603 1.09033l.30682-1.5862h2.50594v17.8303q0 1.65856-.1355 2.73117a7.5636 7.5636 0 0 1-.28616 1.33032 6.48989 6.48989 0 0 1-.23667.6347 3.44562 3.44562 0 0 1-.46633.78608 2.82236 2.82236 0 0 1-.63323.58412 4.30407 4.30407 0 0 1-.74066.39248q-.36185.15138-.78867.26547a7.91362 7.91362 0 0 1-.29169.07236 8.86327 8.86327 0 0 1-.90867.1536q-.8219.09857-1.85867.09857-1.60467 0-3.06496-.39654v-2.99257q1.74201.27987 2.50446.31827a4.37053 4.37053 0 0 0 .21785.006q1.94729 0 2.56021-.7392a1.79887 1.79887 0 0 0 .28246-.5099q.31568-.8278.32972-2.47196a18.12753 18.12753 0 0 0 .00058-.15508v-.99145q-1.26201 1.4422-3.10076 1.4422-2.03739 0-2.90285-1.33401a4.20364 4.20364 0 0 1-.46561-1.02313q-.39949-1.26386-.39949-3.28574zm-15.30628 5.67907l-3.76795-18.42513h3.69559l2.28957 13.28698 2.21757-13.28698h3.49768l-3.74986 18.42513zm-138.69426 0h-2.61412v-26.5924h3.49731v9.23064a4.17189 4.17189 0 0 1 1.135-1.00798 3.72217 3.72217 0 0 1 1.92995-.50621q.93747 0 1.59542.23446a2.73744 2.73744 0 0 1 .91126.54904 3.405 3.405 0 0 1 .2699.271 2.84341 2.84341 0 0 1 .40577.60259q.15287.2987.26696.6646a5.7171 5.7171 0 0 1 .10227.37366 8.06833 8.06833 0 0 1 .15397.86325q.0583.46264.0823.99654a17.16754 17.16754 0 0 1 .0163.7632v8.0949q0 1.06375-.0901 1.84798-.0901.78424-.34265 1.5323-.25254.74841-.6849 1.21696-.43274.46892-1.15384.75728a3.8333 3.8333 0 0 1-.78903.21637q-.37402.06314-.80011.07089a6.64386 6.64386 0 0 1-.1237.0011q-1.98311 0-3.38949-1.83875zm37.64372 0h-3.65977v-26.5924h4.7955q1.11765 0 1.9473.06313.82928.06314 1.63161.23446a6.43598 6.43598 0 0 1 .63175.1669q.40246.12996.72036.30202a4.50345 4.50345 0 0 1 .8507.60147 5.2083 5.2083 0 0 1 .18572.17353 3.39171 3.39171 0 0 1 .71223 1.02904 3.92561 3.92561 0 0 1 .054.1248 6.06085 6.06085 0 0 1 .23445.6875q.10044.36073.17465.77205a10.28886 10.28886 0 0 1 .0236.13587q.15322.91974.15322 2.10939v3.49768a18.61195 18.61195 0 0 1-.0476 1.38017q-.0487.65168-.14658 1.20626a7.84938 7.84938 0 0 1-.2112.90202 4.76043 4.76043 0 0 1-.45452 1.05377 3.60402 3.60402 0 0 1-.88873 1.0198q-.93746.72996-2.15443.98251a10.19175 10.19175 0 0 1-.92307.14363q-.96331.10855-2.24083.10855h-1.38829zm-27.98033-4.54333v-1.55038a12.2945 12.2945 0 0 1 .0812-1.46583q.19089-1.58435.82965-2.52772a3.4471 3.4471 0 0 1 .11668-.1621q.8411-1.09918 2.6359-1.29893a7.6404 7.6404 0 0 1 .84369-.0443 8.80789 8.80789 0 0 1 .7883.03433 7.55104 7.55104 0 0 1 .33857.03803 11.63062 11.63062 0 0 1 .24702.03582q.23077.03656.38547.07274a2.0481 2.0481 0 0 1 .13366.03545l.25218.07237V76.7635a8.6986 8.6986 0 0 0-.0192-.60443q-.0694-.99063-.38621-1.3425a1.00245 1.00245 0 0 0-.34153-.23668q-.47852-.21415-1.39826-.21415a5.22012 5.22012 0 0 0-.97328.0997q-.47889.0912-1.01906.26583a12.86975 12.86975 0 0 0-1.00061.37366l-1.20773-2.77658a8.04876 8.04876 0 0 1 3.00734-1.1446 10.84159 10.84159 0 0 1 1.86016-.15323 15.45987 15.45987 0 0 1 .67605.01403q.52985.02326.9467.08492a4.33102 4.33102 0 0 1 .96368.26363 5.18837 5.18837 0 0 1 .37956.1691 2.95122 2.95122 0 0 1 .88172.65353 2.80316 2.80316 0 0 1 .20898.25698q.312.43421.53205 1.11322a7.1951 7.1951 0 0 1 .13477.47335 7.75966 7.75966 0 0 1 .17058.94079q.0587.48368.0753 1.0342a14.63354 14.63354 0 0 1 .007.44086v13.43134h-2.61413l-.36073-1.65857a6.33814 6.33814 0 0 1-1.00172 1.04565q-.80897.65907-1.72317.85476a3.76758 3.76758 0 0 1-.79052.0827 5.51882 5.51882 0 0 1-1.02644-.08898q-1.15272-.21858-1.76823-.97476a2.93424 2.93424 0 0 1-.45599-.82854q-.40911-1.09143-.40911-2.9756zm44.11588 0v-1.55038a12.2945 12.2945 0 0 1 .0812-1.46583q.19089-1.58435.83002-2.52772a3.4471 3.4471 0 0 1 .1163-.1621q.84111-1.09918 2.63591-1.29893a7.6404 7.6404 0 0 1 .84369-.0443 8.80789 8.80789 0 0 1 .78829.03433 7.55104 7.55104 0 0 1 .33859.03803 11.63062 11.63062 0 0 1 .24738.03582q.23039.03656.38546.07274a2.0481 2.0481 0 0 1 .1333.03545l.25254.07237V76.7635a8.6986 8.6986 0 0 0-.0196-.60442q-.0694-.99064-.38621-1.34251a1.00245 1.00245 0 0 0-.34154-.23667q-.47851-.21416-1.39826-.21416a5.22012 5.22012 0 0 0-.97327.0997q-.47889.0912-1.0187.26584a12.86975 12.86975 0 0 0-1.0006.37365l-1.20811-2.77658a8.04876 8.04876 0 0 1 3.00735-1.1446 10.84159 10.84159 0 0 1 1.86053-.15323 15.45987 15.45987 0 0 1 .67605.01403q.52948.02326.94633.08492a4.33102 4.33102 0 0 1 .96368.26363 5.18837 5.18837 0 0 1 .37956.1691 2.95122 2.95122 0 0 1 .88208.65354 2.80316 2.80316 0 0 1 .20862.25698q.31199.4342.53205 1.11322a7.1951 7.1951 0 0 1 .13514.47334 7.75966 7.75966 0 0 1 .17022.9408q.059.48368.0757 1.0342a14.63354 14.63354 0 0 1 .006.44085v13.43134h-2.61412l-.36037-1.65856a6.33814 6.33814 0 0 1-1.0017 1.04564q-.80898.65907-1.72319.85476a3.76758 3.76758 0 0 1-.79088.0827 5.51882 5.51882 0 0 1-1.02645-.08898q-1.15272-.21858-1.76785-.97475a2.93424 2.93424 0 0 1-.45637-.82855q-.4091-1.09143-.4091-2.9756zm69.55445 0v-1.55038a12.2945 12.2945 0 0 1 .0812-1.46583q.19089-1.58435.82966-2.52772a3.4471 3.4471 0 0 1 .11667-.1621q.84109-1.09918 2.63591-1.29893a7.6404 7.6404 0 0 1 .84368-.0443 8.80789 8.80789 0 0 1 .78829.03433 7.55104 7.55104 0 0 1 .33858.03803 11.63062 11.63062 0 0 1 .24738.03582q.2304.03656.38548.07274a2.0481 2.0481 0 0 1 .13329.03545l.25255.07237V76.7635a8.6986 8.6986 0 0 0-.0196-.60443q-.0694-.99063-.38621-1.3425a1.00245 1.00245 0 0 0-.34154-.23668q-.47851-.21415-1.39825-.21415a5.22012 5.22012 0 0 0-.97328.0997q-.47889.0912-1.0187.26583a12.86975 12.86975 0 0 0-1.0006.37366l-1.20811-2.77658a8.04876 8.04876 0 0 1 3.00735-1.1446 10.84159 10.84159 0 0 1 1.86053-.15323 15.45987 15.45987 0 0 1 .67605.01403q.52947.02326.94632.08492a4.33102 4.33102 0 0 1 .96369.26363 5.18837 5.18837 0 0 1 .37956.1691 2.95122 2.95122 0 0 1 .88208.65353 2.80316 2.80316 0 0 1 .20862.25698q.31199.43421.53205 1.11322a7.1951 7.1951 0 0 1 .13513.47335 7.75966 7.75966 0 0 1 .17022.94079q.059.48368.0757 1.0342a14.63354 14.63354 0 0 1 .006.44086v13.43134h-2.61413l-.36036-1.65857a6.33814 6.33814 0 0 1-1.00209 1.04565q-.8086.65907-1.7228.85476a3.76758 3.76758 0 0 1-.79088.0827 5.51882 5.51882 0 0 1-1.02645-.08898q-1.15273-.21858-1.76786-.97476a2.93424 2.93424 0 0 1-.45633-.82854q-.4091-1.09143-.4091-2.9756zm43.2146 0v-1.55038a12.2945 12.2945 0 0 1 .0812-1.46583q.19088-1.58435.83001-2.52772a3.4471 3.4471 0 0 1 .11631-.1621q.8411-1.09918 2.63591-1.29893a7.6404 7.6404 0 0 1 .84368-.0443 8.80789 8.80789 0 0 1 .7883.03433 7.55104 7.55104 0 0 1 .33858.03803 11.63062 11.63062 0 0 1 .24739.03582q.23039.03656.38546.07274a2.0481 2.0481 0 0 1 .13329.03545l.25255.07237V76.7635a8.6986 8.6986 0 0 0-.0196-.60443q-.0694-.99063-.38622-1.3425a1.00245 1.00245 0 0 0-.34153-.23668q-.47851-.21415-1.39826-.21415a5.22012 5.22012 0 0 0-.97328.0997q-.47889.0912-1.01869.26583a12.86975 12.86975 0 0 0-1.00061.37366l-1.2081-2.77658a8.04876 8.04876 0 0 1 3.00735-1.1446 10.84159 10.84159 0 0 1 1.86052-.15323 15.45987 15.45987 0 0 1 .67606.01403q.52947.02326.94633.08492a4.33102 4.33102 0 0 1 .96368.26363 5.18837 5.18837 0 0 1 .37956.1691 2.95122 2.95122 0 0 1 .88208.65353 2.80316 2.80316 0 0 1 .20861.25698q.31199.43421.53206 1.11322a7.1951 7.1951 0 0 1 .13514.47335 7.75966 7.75966 0 0 1 .17021.94079q.059.48368.0757 1.0342a14.63354 14.63354 0 0 1 .006.44086v13.43134h-2.61412l-.36037-1.65857a6.33814 6.33814 0 0 1-1.00208 1.04565q-.8086.65907-1.72281.85476a3.76758 3.76758 0 0 1-.79088.0827 5.51882 5.51882 0 0 1-1.02645-.08898q-1.15272-.21858-1.76786-.97476a2.93424 2.93424 0 0 1-.45635-.82854q-.4091-1.09143-.4091-2.9756zm-88.4485-10.60085h-2.03702v-2.64994l2.07321-.487.36036-4.16451 3.10113-.73919v4.7597h2.8124v3.28094h-2.8124v10.74522q0 .97365.28837 1.2801a.72405.72405 0 0 0 .24036.16136q.23963.10523.63249.13403a4.35355 4.35355 0 0 0 .31717.01107q.52873 0 1.36798-.10338a22.34446 22.34446 0 0 0 .0381-.0048v2.95677a10.54584 10.54584 0 0 1-1.5057.3515 8.23965 8.23965 0 0 1-1.25241.09895 6.40792 6.40792 0 0 1-.99175-.07126q-.51654-.08123-.92528-.25477a2.50446 2.50446 0 0 1-.85032-.57525 2.41695 2.41695 0 0 1-.47003-.7547q-.30055-.73033-.36738-1.87382a11.8108 11.8108 0 0 1-.0192-.68898zm102.07811 0h-2.03702v-2.64994l2.07321-.487.36035-4.16451 3.10114-.73919v4.7597h2.81239v3.28094h-2.81239v10.74522q0 .97365.28837 1.2801a.72405.72405 0 0 0 .23999.16136q.24.10523.63248.13403a4.35355 4.35355 0 0 0 .31754.01107q.52873 0 1.36798-.10338a22.34446 22.34446 0 0 0 .0381-.0048v2.95677a10.54584 10.54584 0 0 1-1.5057.3515 8.23965 8.23965 0 0 1-1.25242.09895 6.40792 6.40792 0 0 1-.99175-.07126q-.51654-.08123-.92527-.25477a2.50446 2.50446 0 0 1-.8507-.57525 2.41695 2.41695 0 0 1-.46965-.7547q-.30055-.73033-.36738-1.87382a11.8108 11.8108 0 0 1-.0192-.68898zm-114.5358 13.6658l1.91112-2.39776.144.12628a17.46698 17.46698 0 0 1 .0505.04394q.0967.08566.12776.11593a.46707.46707 0 0 1 .003.0022.31384.31384 0 0 0 .0177.01625q.045.03877.16246.12148a7.87006 7.87006 0 0 0 .009.0066 22.46852 22.46852 0 0 0 .0724.05058q.10117.07089.16209.1115a1.74016 1.74016 0 0 0 .0458.02955q.0521.03249.1259.07458a7.35388 7.35388 0 0 0 .0716.04025 1.93105 1.93105 0 0 0 .15656.07828 1.41672 1.41672 0 0 0 .1499.05686q.14437.04505.32455.09932a1.9148 1.9148 0 0 0 .3696.072 3.98801 3.98801 0 0 0 .24738.0155 4.83723 4.83723 0 0 0 .15839.0026q.99175 0 1.47839-.51396a1.53007 1.53007 0 0 0 .31495-.52024q.16911-.44824.17169-1.10915a5.2659 5.2659 0 0 0 0-.02031q0-.75691-.42351-1.3702-.42386-.61291-1.04564-1.00946a25.27427 25.27427 0 0 1-.65131-.43052 34.64412 34.64412 0 0 1-.71003-.49809 16.64656 16.64656 0 0 1-1.0427-.81266 14.65606 14.65606 0 0 1-.31826-.27803 3.61768 3.61768 0 0 1-.57268-.6646q-.22042-.3253-.40577-.7259a6.32669 6.32669 0 0 1-.0672-.15102q-.42387-.98251-.42387-2.22643a8.15694 8.15694 0 0 1 .18277-1.7734q.30424-1.36687 1.11544-2.36415a4.21915 4.21915 0 0 1 2.6994-1.519 6.23697 6.23697 0 0 1 .99654-.07643q.9552 0 1.70362.17132a4.43958 4.43958 0 0 1 .5963.1787q.36479.13958.64762.3349a12.51492 12.51492 0 0 1 .2304.16282q.31937.2315.48183.38732a4.92437 4.92437 0 0 1 .14585.14622q.16024.16726.36553.4054a16.50625 16.50625 0 0 1 .0296.03398l-1.94731 2.28994-.19827-.19828a22.22704 22.22704 0 0 0-.0757-.06314q-.14695-.1211-.19976-.1595a.64688.64688 0 0 0-.004-.0029 2.16514 2.16514 0 0 0-.0344-.024q-.0569-.03877-.16505-.10966a30.65795 30.65795 0 0 0-.0709-.04652q-.14363-.09378-.26142-.14843a1.1217 1.1217 0 0 0-.0993-.04098q-.10301-.03618-.24664-.07273a5.3128 5.3128 0 0 0-.1499-.03545 2.2785 2.2785 0 0 0-.49587-.05391 2.12563 2.12563 0 0 0-.77797.13107q-.92675.36295-1.01537 1.7313a4.65668 4.65668 0 0 0-.01.30092 2.6876 2.6876 0 0 0 .1115.78424 2.36674 2.36674 0 0 0 .20418.47778q.31532.559.82043.95556a12.23025 12.23025 0 0 0 .77684.56085 14.31194 14.31194 0 0 0 .33157.21452 17.43117 17.43117 0 0 1 1.04491.71039 19.43459 19.43459 0 0 1 .17207.12775 7.84236 7.84236 0 0 1 1.118 1.0187 3.69005 3.69005 0 0 1 .48296.6827q.1835.33009.32787.72516a6.02983 6.02983 0 0 1 .009.02548q.31569.87433.31569 1.99197 0 1.8705-.59889 3.1196a4.15158 4.15158 0 0 1-.82558 1.17118q-1.40787 1.3905-3.87319 1.40601a8.86733 8.86733 0 0 1-.0569.00037 7.3177 7.3177 0 0 1-1.74052-.19421 4.6685 4.6685 0 0 1-2.67653-1.69881zm26.24977-4.54333v-6.16571q0-.96626.0687-1.73167a12.15493 12.15493 0 0 1 .0484-.44972q.11741-.91937.45969-1.81179a4.37607 4.37607 0 0 1 .40578-.80934 3.4279 3.4279 0 0 1 .53168-.64209 3.58002 3.58002 0 0 1 .68418-.49771q.32787-.18683.72479-.33637a6.3806 6.3806 0 0 1 .18683-.0672 5.94528 5.94528 0 0 1 1.01389-.24443q.49366-.0768 1.05489-.0934a10.71236 10.71236 0 0 1 .31974-.0048 6.51869 6.51869 0 0 1 1.77561.2267 4.41742 4.41742 0 0 1 2.73153 2.15295l-2.54174 2.0913a3.22556 3.22556 0 0 0-.47225-.60885 1.93031 1.93031 0 0 0-1.40268-.59889 2.3996 2.3996 0 0 0-.39803.03101q-.22043.0373-.4032.11852a1.399 1.399 0 0 0-.0823.0395 1.70176 1.70176 0 0 0-.35297.24332 1.43149 1.43149 0 0 0-.2149.2437 1.65266 1.65266 0 0 0-.15101.27137q-.10301.23077-.17354.53981a6.73653 6.73653 0 0 0-.15323 1.02756 12.65006 12.65006 0 0 0-.0214.4032q-.008.19458-.0111.41611a28.20039 28.20039 0 0 0-.003.46966v4.41705q0 1.60429.14363 2.54138a5.9977 5.9977 0 0 0 .0639.35224 4.1261 4.1261 0 0 0 .1355.49181q.20013.57341.53132.83335.33009.25883.89722.33193a3.78494 3.78494 0 0 0 .48221.02881q1.03863 0 1.87493-1.01205a4.55736 4.55736 0 0 0 .12628-.15987l2.19948 2.21757a4.93175 4.93175 0 0 1-3.53201 2.17437 7.58649 7.58649 0 0 1-1.1195.07902q-1.7889 0-2.95233-.58522a3.6402 3.6402 0 0 1-1.2214-.97402q-1.17378-1.4614-1.24799-4.52893a17.41972 17.41972 0 0 1-.004-.42018zm-109.48774 6.0217h-3.49767v-26.5924h3.49767zm43.43097 0h-3.49768v-26.5924h3.49768zm25.78084 0h-3.49768v-26.5924h3.49768zm152.39587 0h-3.49767V71.48133h2.47012l.43273 2.57794a7.62489 7.62489 0 0 1 .41686-.93156q.53168-.98915 1.2417-1.43924.9179-.5819 2.28293-.67938a7.60975 7.60975 0 0 1 .27692-.01477v3.87614q-1.24392.01809-2.07321.47778a3.83958 3.83958 0 0 0-.75358.55568q-.41354.38585-.7968.93156zm-219.37239-6.0217v-6.3459q0-3.3714 1.23506-4.93987a3.81152 3.81152 0 0 1 1.8118-1.2465q.94153-.32197 2.19948-.32197 1.80995 0 2.96784.66756a3.64943 3.64943 0 0 1 1.03457.88282q1.24393 1.55038 1.24393 4.95797v6.34589q0 3.40759-1.24393 4.95797a3.84401 3.84401 0 0 1-1.81364 1.2321q-.93894.31828-2.18877.31828-2.77622 0-4.01128-1.56848-1.183-1.50238-1.23285-4.65926a17.79485 17.79485 0 0 1-.003-.28061zm203.12866 0v-6.3459q0-3.3714 1.23469-4.93987a3.81152 3.81152 0 0 1 1.81179-1.2465q.94153-.32197 2.19985-.32197 1.80995 0 2.96785.66756a3.64943 3.64943 0 0 1 1.03456.88282q1.24393 1.55038 1.24393 4.95797v6.34589q0 3.40759-1.24393 4.95797a3.84401 3.84401 0 0 1-1.81364 1.2321q-.93894.31828-2.18877.31828-2.77658 0-4.01164-1.56848-1.183-1.50238-1.23247-4.65926a17.79485 17.79485 0 0 1-.003-.28061zm-98.23815 6.0217h-3.49731V71.48133h3.49731zm62.10863 0h-3.49731V71.48133h3.49731zM100.07373 77.12422v7.10317a11.5302 11.5302 0 0 0 .0233.76467q.0654.97512.31014 1.49795a1.16417 1.16417 0 0 0 .83778.6646 2.00711 2.00711 0 0 0 .45119.04762 2.3265 2.3265 0 0 0 .31644-.0203q.16134-.02216.29685-.06869a1.20257 1.20257 0 0 0 .13513-.05539 1.60872 1.60872 0 0 0 .26807-.16209 1.25648 1.25648 0 0 0 .20972-.19864q.12923-.15507.20751-.41649a2.26816 2.26816 0 0 0 .0539-.22338 7.2036 7.2036 0 0 0 .0857-.56565 6.15943 6.15943 0 0 0 .0225-.24554q.0262-.3792.027-.991a29.03262 29.03262 0 0 0 0-.0277V77.1242q0-.631-.027-1.0187a6.56226 6.56226 0 0 0-.0669-.57599 7.68101 7.68101 0 0 0-.0413-.2352 2.22459 2.22459 0 0 0-.0606-.2448q-.0384-.12331-.0886-.22226a.92196.92196 0 0 0-.11225-.17317 1.28934 1.28934 0 0 0-.27138-.24221 1.67001 1.67001 0 0 0-.2064-.11816q-.24664-.11963-.59889-.13993a2.58163 2.58163 0 0 0-.14953-.0044 1.97204 1.97204 0 0 0-.48222.05465 1.159 1.159 0 0 0-.80675.65759 2.6647 2.6647 0 0 0-.16874.4966q-.16468.67569-.16468 1.76602zm203.12829 0v7.10317a11.5302 11.5302 0 0 0 .0236.76467q.065.97512.31015 1.49795a1.16417 1.16417 0 0 0 .8374.6646 2.00711 2.00711 0 0 0 .45157.04762 2.3265 2.3265 0 0 0 .31643-.0203q.16135-.02216.29685-.06869a1.20257 1.20257 0 0 0 .13477-.05539 1.60872 1.60872 0 0 0 .26806-.16209 1.25648 1.25648 0 0 0 .20972-.19864q.12923-.15507.20751-.41649a2.26816 2.26816 0 0 0 .054-.22338 7.2036 7.2036 0 0 0 .086-.56565 6.15943 6.15943 0 0 0 .0222-.24554q.0265-.3792.0269-.991a29.03262 29.03262 0 0 0 0-.0277V77.1242q0-.631-.0269-1.0187a6.56226 6.56226 0 0 0-.0669-.57599 7.68101 7.68101 0 0 0-.0413-.2352 2.22459 2.22459 0 0 0-.0602-.2448q-.0388-.12331-.089-.22226a.92196.92196 0 0 0-.11223-.17317 1.28934 1.28934 0 0 0-.27102-.24221 1.67001 1.67001 0 0 0-.20677-.11816q-.24664-.11963-.59851-.13993a2.58163 2.58163 0 0 0-.14954-.0044 1.97204 1.97204 0 0 0-.48221.05465 1.159 1.159 0 0 0-.80676.65759 2.6647 2.6647 0 0 0-.16873.4966q-.16505.67569-.16505 1.76602zm-190.50851-1.83912v10.3664a3.0092 3.0092 0 0 0 .5771.60663 2.69757 2.69757 0 0 0 .31532.21379 2.58163 2.58163 0 0 0 .37662.18129q.30645.1163.58817.1163.77501 0 1.08147-.42387.30535-.42203.30646-1.67629a10.28258 10.28258 0 0 0 0-.0092v-8.31128q0-2.0444-1.44701-2.09019a2.12083 2.12083 0 0 0-.0672-.0011 1.82508 1.82508 0 0 0-1.13241.40135q-.25551.19569-.4907.487a3.92524 3.92524 0 0 0-.10782.1392zm156.74093 1.06374v8.1311q0 1.24392.31568 1.67666a.96257.96257 0 0 0 .46043.336q.16505.06017.36997.08306a2.37228 2.37228 0 0 0 .2603.01366 1.8694 1.8694 0 0 0 1.09291-.36369q.27987-.1968.54276-.5003a4.3122 4.3122 0 0 0 .20307-.25402V75.2851a3.27614 3.27614 0 0 0-.46854-.51951q-.57747-.50806-1.26201-.50806-1.29119 0-1.48171 1.51974a4.61016 4.61016 0 0 0-.0328.57156zM149.45404 66.866v9.6453h1.49647a6.85468 6.85468 0 0 0 .83998-.048q1.06412-.13182 1.59359-.62806.67642-.63433.71852-2.18028a7.68692 7.68692 0 0 0 .003-.20861v-3.10113a12.10102 12.10102 0 0 0-.0169-.65612q-.0365-.67568-.15435-1.14645a2.55283 2.55283 0 0 0-.17242-.48738q-.14659-.30498-.36738-.51691a1.57253 1.57253 0 0 0-.0554-.05058q-.4235-.3696-.9825-.49587-.37551-.08455-.91384-.11262a10.9734 10.9734 0 0 0-.56455-.01329zm-24.57311 17.3252v.6491q0 1.25093.30129 1.67813a.7488.7488 0 0 0 .005.0077q.30645.4235 1.08183.4235a1.62533 1.62533 0 0 0 .46633-.072q.19422-.05797.3984-.16283a2.99775 2.99775 0 0 0 .0997-.05354 2.70606 2.70606 0 0 0 .74584-.62362 3.22187 3.22187 0 0 0 .14657-.18757v-4.50714a2.23973 2.23973 0 0 0-1.15382-.30683 2.96526 2.96526 0 0 0-.59519.05576q-.3408.06979-.59446.22818a1.38977 1.38977 0 0 0-.44197.43753 2.21683 2.21683 0 0 0-.23741.53132q-.17206.55089-.21082 1.3894a11.10448 11.10448 0 0 0-.0115.51285zm44.11625 0v.6491q0 1.25093.30091 1.67813a.7488.7488 0 0 0 .006.0077q.30646.4235 1.08146.4235a1.62533 1.62533 0 0 0 .46671-.072q.19384-.05797.39839-.16283a2.99775 2.99775 0 0 0 .0997-.05354 2.70606 2.70606 0 0 0 .74546-.62362 3.22187 3.22187 0 0 0 .14695-.18757v-4.50714a2.23973 2.23973 0 0 0-1.15383-.30683 2.96526 2.96526 0 0 0-.5952.05576q-.34116.06979-.59482.22818a1.38977 1.38977 0 0 0-.44159.43753 2.21683 2.21683 0 0 0-.23741.53132q-.17243.55089-.2112 1.3894a11.10448 11.10448 0 0 0-.0111.51285zm69.55444 0v.6491q0 1.25093.30093 1.67813a.7488.7488 0 0 0 .006.0077q.30646.4235 1.08147.4235a1.62533 1.62533 0 0 0 .4667-.072q.19384-.05797.39802-.16283a2.99775 2.99775 0 0 0 .10006-.05354 2.70606 2.70606 0 0 0 .74547-.62362 3.22187 3.22187 0 0 0 .14696-.18757v-4.50714a2.23973 2.23973 0 0 0-1.15384-.30683 2.96526 2.96526 0 0 0-.59556.05576q-.3408.06979-.59445.22818a1.38977 1.38977 0 0 0-.4416.43753 2.21683 2.21683 0 0 0-.23741.53132q-.17243.55089-.2112 1.3894a11.10448 11.10448 0 0 0-.0111.51285zm43.2146 0v.6491q0 1.25093.30092 1.67813a.7488.7488 0 0 0 .006.0077q.30645.4235 1.08146.4235a1.62533 1.62533 0 0 0 .4667-.072q.19385-.05797.39803-.16283a2.99775 2.99775 0 0 0 .10006-.05354 2.70606 2.70606 0 0 0 .74547-.62362 3.22187 3.22187 0 0 0 .14695-.18757v-4.50714a2.23973 2.23973 0 0 0-1.15383-.30683 2.96526 2.96526 0 0 0-.5952.05576q-.34116.06979-.59482.22818a1.38977 1.38977 0 0 0-.44159.43753 2.21683 2.21683 0 0 0-.23742.53132q-.17242.55089-.21119 1.3894a11.10448 11.10448 0 0 0-.0111.51285zm-84.12743-17.7967a2.4465 2.4465 0 0 0-.10228.72368 2.46938 2.46938 0 0 0 .004.1595 1.83432 1.83432 0 0 0 .57194 1.25574 1.9137 1.9137 0 0 0 .81193.4608 2.50557 2.50557 0 0 0 .68454.08898 2.53585 2.53585 0 0 0 .0269 0 1.9665 1.9665 0 0 0 1.42411-.58596 1.93142 1.93142 0 0 0 .47002-.74695 2.2689 2.2689 0 0 0 .11594-.7403 2.02188 2.02188 0 0 0-.0942-.62362 1.98644 1.98644 0 0 0-.50067-.80048 2.34828 2.34828 0 0 0-.0185-.01846 1.96207 1.96207 0 0 0-1.42373-.57673 2.62409 2.62409 0 0 0-.13884.0037 1.9702 1.9702 0 0 0-1.34879.5915 1.95911 1.95911 0 0 0-.48331.8086zm62.10863 0a2.4465 2.4465 0 0 0-.10265.72368 2.46938 2.46938 0 0 0 .005.1595 1.83432 1.83432 0 0 0 .57193 1.25574 1.9137 1.9137 0 0 0 .81194.4608 2.50557 2.50557 0 0 0 .68453.08898 2.53585 2.53585 0 0 0 .0269 0 1.9665 1.9665 0 0 0 1.4241-.58596 1.93142 1.93142 0 0 0 .47003-.74695 2.2689 2.2689 0 0 0 .11594-.7403 2.02188 2.02188 0 0 0-.0945-.62362 1.98644 1.98644 0 0 0-.50029-.80048 2.34828 2.34828 0 0 0-.0188-.01846 1.96207 1.96207 0 0 0-1.42337-.57673 2.62409 2.62409 0 0 0-.1392.0037 1.9702 1.9702 0 0 0-1.34841.5915 1.95911 1.95911 0 0 0-.48332.8086z" vector-effect="non-scaling-stroke"/></g></svg>