<svg xmlns="http://www.w3.org/2000/svg" role="img" viewBox="-21.34 -21.34 1057.68 114.68"><title>Global Solar Atlas logo</title><path d="M54.786 36.671v26.074a21.051 21.051 0 0 1-8.037 6.828 26.271 26.271 0 0 1-2.046.911 35.134 35.134 0 0 1-7.473 2q-3.451.546-7.339.563a57.314 57.314 0 0 1-.251.001q-8.692 0-15.43-4.077a26.997 26.997 0 0 1-10.072-10.9 32.488 32.488 0 0 1-.353-.697Q.099 49.854.001 39.942v-6.201q0-16.064 7.495-24.902Q14.991.001 28.566.001a35.462 35.462 0 0 1 7.589.767q5.187 1.136 9.088 3.954a21.876 21.876 0 0 1 1.242.967q6.788 5.689 8.301 16.138h-9.375Q43.112 9.521 32.049 7.947a24.387 24.387 0 0 0-3.435-.231 21.301 21.301 0 0 0-5.939.782 15.402 15.402 0 0 0-8.343 5.834 22.067 22.067 0 0 0-3.154 6.355q-.968 3.009-1.402 6.678a54.12 54.12 0 0 0-.351 6.132v5.811a42.518 42.518 0 0 0 .646 7.644q1.234 6.744 4.823 11.374a17.438 17.438 0 0 0 12.662 6.959 22.986 22.986 0 0 0 2.133.097q4.81 0 8.523-.975a23.408 23.408 0 0 0 .705-.197 15.076 15.076 0 0 0 4.313-2.027 13.522 13.522 0 0 0 2.23-1.928V44.288H29.005v-7.617h25.781zm388.233-15.137h-9.424a16.286 16.286 0 0 0-.553-4.361 11.848 11.848 0 0 0-3.549-5.771 13.451 13.451 0 0 0-5.217-2.849q-2.052-.615-4.518-.778a27.804 27.804 0 0 0-1.837-.059q-6.934 0-10.815 3.051a9.916 9.916 0 0 0-3.832 7.275 14.08 14.08 0 0 0-.05 1.197 8.951 8.951 0 0 0 2.975 6.725 12.603 12.603 0 0 0 .711.624q3.11 2.533 9.901 4.701a78.891 78.891 0 0 0 2.648.792q5.792 1.627 9.937 3.474a36.633 36.633 0 0 1 3.93 2.019 26.017 26.017 0 0 1 3.763 2.712q2.112 1.849 3.47 3.989a16.107 16.107 0 0 1 .189.306 16.649 16.649 0 0 1 2.181 6.175 21.644 21.644 0 0 1 .236 3.249q0 8.642-6.738 13.843-6.738 5.2-18.018 5.2-7.324 0-13.672-2.808a26.476 26.476 0 0 1-5.312-3.088 20.817 20.817 0 0 1-4.478-4.602 18.768 18.768 0 0 1-3.442-11.084h9.424a14.01 14.01 0 0 0 .77 4.747 11.929 11.929 0 0 0 3.991 5.433 16.542 16.542 0 0 0 5.96 2.915q3.028.821 6.759.821a29.197 29.197 0 0 0 4.3-.296q4.358-.65 7.077-2.732a9.653 9.653 0 0 0 3.894-6.98 12.794 12.794 0 0 0 .061-1.272 11.931 11.931 0 0 0-.473-3.449 9.062 9.062 0 0 0-3.189-4.632 17.328 17.328 0 0 0-2.489-1.578q-2.784-1.486-7.202-2.952a97.523 97.523 0 0 0-3.59-1.109 76.133 76.133 0 0 1-6.582-2.199q-7.109-2.768-10.972-6.322a16.667 16.667 0 0 1-4.479-6.534 17.047 17.047 0 0 1-1.014-5.941q0-8.399 6.714-13.892A23.562 23.562 0 0 1 410.359.79a34.301 34.301 0 0 1 7.562-.789 32.365 32.365 0 0 1 7.334.799 26.353 26.353 0 0 1 5.728 2.033 22.784 22.784 0 0 1 5.9 4.12 20.38 20.38 0 0 1 2.986 3.692 19.977 19.977 0 0 1 3.15 10.889zm572.949 0h-9.424a16.286 16.286 0 0 0-.553-4.361 11.848 11.848 0 0 0-3.549-5.771 13.451 13.451 0 0 0-5.216-2.849q-2.053-.615-4.518-.778a27.804 27.804 0 0 0-1.838-.059q-6.933 0-10.815 3.051a9.916 9.916 0 0 0-3.832 7.275 14.08 14.08 0 0 0-.05 1.197 8.951 8.951 0 0 0 2.976 6.725 12.603 12.603 0 0 0 .71.624q3.11 2.533 9.901 4.701a78.891 78.891 0 0 0 2.648.792q5.792 1.627 9.937 3.474a36.633 36.633 0 0 1 3.93 2.019 26.017 26.017 0 0 1 3.763 2.712q2.112 1.849 3.47 3.989a16.107 16.107 0 0 1 .189.306 16.649 16.649 0 0 1 2.181 6.175 21.644 21.644 0 0 1 .236 3.249q0 8.642-6.738 13.843-6.738 5.2-18.018 5.2-7.324 0-13.671-2.808a26.476 26.476 0 0 1-5.313-3.088 20.817 20.817 0 0 1-4.477-4.602 18.768 18.768 0 0 1-3.443-11.084h9.424a14.01 14.01 0 0 0 .771 4.747 11.929 11.929 0 0 0 3.99 5.433 16.542 16.542 0 0 0 5.961 2.915q3.028.821 6.758.821a29.197 29.197 0 0 0 4.301-.296q4.357-.65 7.076-2.732a9.653 9.653 0 0 0 3.894-6.98 12.794 12.794 0 0 0 .062-1.272 11.931 11.931 0 0 0-.473-3.449 9.062 9.062 0 0 0-3.19-4.632 17.328 17.328 0 0 0-2.489-1.578q-2.784-1.486-7.202-2.952a97.523 97.523 0 0 0-3.59-1.109 76.133 76.133 0 0 1-6.582-2.199q-7.109-2.768-10.972-6.322a16.667 16.667 0 0 1-4.479-6.534 17.047 17.047 0 0 1-1.014-5.941q0-8.399 6.714-13.892A23.562 23.562 0 0 1 983.308.79a34.301 34.301 0 0 1 7.562-.789 32.365 32.365 0 0 1 7.334.799 26.353 26.353 0 0 1 5.728 2.033 22.784 22.784 0 0 1 5.9 4.12 20.38 20.38 0 0 1 2.986 3.692 19.977 19.977 0 0 1 3.15 10.889zM685.401 72.071l-15.429-28.76h-16.699v28.76h-9.424V.977h23.535a42.321 42.321 0 0 1 7.126.562q3.805.651 6.845 2.057a19.874 19.874 0 0 1 4.51 2.85 17.646 17.646 0 0 1 5.838 9.874 27.252 27.252 0 0 1 .632 6.044 20.706 20.706 0 0 1-1.013 6.574 18.222 18.222 0 0 1-2.576 4.998 20.539 20.539 0 0 1-7.321 6.186 26.027 26.027 0 0 1-2.664 1.187l16.699 30.176v.586h-10.059zM838.282.977v7.715h-22.851v63.379h-9.326V8.692h-22.803V.977h54.98zM298.097 72.071l-6.787-18.554h-29.785l-6.69 18.554h-9.668L272.316.977h8.203l27.197 71.094h-9.619zm326.611 0l-6.787-18.554h-29.785l-6.69 18.554h-9.668L598.927.977h8.203l27.197 71.094h-9.619zm151.563 0l-6.788-18.554h-29.785l-6.689 18.554h-9.668L750.489.977h8.203l27.198 71.094h-9.619zm173.339 0l-6.787-18.554h-29.785l-6.689 18.554h-9.668L923.829.977h8.203l27.198 71.094h-9.62zm-735.156 0h-24.658V.977h23.242q11.572 0 17.407 4.786a15.372 15.372 0 0 1 5.237 8.625 24.045 24.045 0 0 1 .598 5.535 14.44 14.44 0 0 1-2.832 8.813 17.653 17.653 0 0 1-5.676 4.931 21.915 21.915 0 0 1-2.039 1.002 17.455 17.455 0 0 1 5.718 2.732 16.069 16.069 0 0 1 3.389 3.396 17.015 17.015 0 0 1 3.244 8.646 21.793 21.793 0 0 1 .101 2.12 23.767 23.767 0 0 1-.836 6.476 17.527 17.527 0 0 1-5.366 8.563 20.359 20.359 0 0 1-7.689 4.165q-2.962.897-6.502 1.177a42.332 42.332 0 0 1-3.338.127zM79.835.977v63.428h33.691v7.666H70.411V.977h9.424zm246.875 0v63.428h33.691v7.666h-43.115V.977h9.424zm206.641 0v63.428h33.691v7.666h-43.115V.977h9.424zm324.902 0v63.428h33.691v7.666h-43.115V.977h9.424zm-682.52 33.35v4.492a52.539 52.539 0 0 1-.721 8.923 38.392 38.392 0 0 1-2.794 9.315 29.42 29.42 0 0 1-4.405 7.051 24.73 24.73 0 0 1-5.556 4.838 26.243 26.243 0 0 1-11.319 3.898 33.257 33.257 0 0 1-3.72.204 29.087 29.087 0 0 1-8.96-1.342 25.698 25.698 0 0 1-5.933-2.784 26.573 26.573 0 0 1-8.89-9.466 32.814 32.814 0 0 1-1.193-2.302 38.071 38.071 0 0 1-3.077-10.211 50.383 50.383 0 0 1-.609-7.489v-5.127a50.218 50.218 0 0 1 .836-9.372 38.458 38.458 0 0 1 2.728-8.743 29.878 29.878 0 0 1 4.541-7.22 25.278 25.278 0 0 1 5.542-4.816A26.547 26.547 0 0 1 145.05.066a32.447 32.447 0 0 1 2.07-.065q8.545 0 15.064 4.126a25.667 25.667 0 0 1 8.594 9.126 32.361 32.361 0 0 1 1.44 2.837 39.162 39.162 0 0 1 2.89 9.918 52.924 52.924 0 0 1 .625 8.319zm334.131 0v4.492a52.539 52.539 0 0 1-.721 8.923 38.392 38.392 0 0 1-2.794 9.315 29.42 29.42 0 0 1-4.405 7.051 24.73 24.73 0 0 1-5.556 4.838 26.243 26.243 0 0 1-11.319 3.898 33.257 33.257 0 0 1-3.72.204 29.087 29.087 0 0 1-8.96-1.342 25.698 25.698 0 0 1-5.933-2.784 26.573 26.573 0 0 1-8.89-9.466 32.814 32.814 0 0 1-1.193-2.302 38.071 38.071 0 0 1-3.077-10.211 50.383 50.383 0 0 1-.609-7.489v-5.127a50.218 50.218 0 0 1 .836-9.372 38.458 38.458 0 0 1 2.728-8.743 29.878 29.878 0 0 1 4.541-7.22 25.278 25.278 0 0 1 5.542-4.816 26.547 26.547 0 0 1 12.847-4.11 32.447 32.447 0 0 1 2.07-.065q8.545 0 15.064 4.126a25.667 25.667 0 0 1 8.594 9.126 32.361 32.361 0 0 1 1.44 2.837 39.162 39.162 0 0 1 2.89 9.918 52.924 52.924 0 0 1 .625 8.319zm-343.457 5.176v-5.274a50.57 50.57 0 0 0-.496-7.329q-.545-3.715-1.691-6.735a21.595 21.595 0 0 0-2.891-5.345q-5.078-6.762-14.209-6.762a18.706 18.706 0 0 0-6.596 1.116 16.332 16.332 0 0 0-7.393 5.646 23.472 23.472 0 0 0-3.607 7.207q-1.562 4.999-1.642 11.568v5.224q0 12.256 5.151 19.263a16.351 16.351 0 0 0 11.854 6.883 21.456 21.456 0 0 0 2.331.124 19.886 19.886 0 0 0 6.205-.921 15.809 15.809 0 0 0 7.857-5.695q4.981-6.617 5.127-18.97zm334.131 0v-5.274a50.57 50.57 0 0 0-.496-7.329q-.545-3.715-1.691-6.735a21.595 21.595 0 0 0-2.891-5.345q-5.078-6.762-14.209-6.762a18.706 18.706 0 0 0-6.596 1.116 16.332 16.332 0 0 0-7.393 5.646 23.472 23.472 0 0 0-3.607 7.207q-1.562 4.999-1.642 11.568v5.224q0 12.256 5.151 19.263a16.351 16.351 0 0 0 11.854 6.883 21.456 21.456 0 0 0 2.331.124 19.886 19.886 0 0 0 6.205-.921 15.809 15.809 0 0 0 7.857-5.695q4.981-6.617 5.127-18.97zM653.273 8.692v26.953h14.404a21.848 21.848 0 0 0 4.626-.461q2.993-.649 5.266-2.207a13.041 13.041 0 0 0 1.216-.945 11.876 11.876 0 0 0 4.062-8.192 16.513 16.513 0 0 0 .064-1.476q0-6.027-3.286-9.483a11.111 11.111 0 0 0-.644-.624 12.799 12.799 0 0 0-4.627-2.593q-1.903-.621-4.205-.845a27.89 27.89 0 0 0-2.521-.127h-14.355zM214.796 38.819h-15.625v25.586h15.479q6.542 0 10.327-3.393a11.146 11.146 0 0 0 3.572-6.679 16.207 16.207 0 0 0 .212-2.672 16.863 16.863 0 0 0-.755-5.276q-2.491-7.566-13.21-7.566zm61.621-26.269l-12.06 33.252h24.169L276.417 12.55zm326.611 0l-12.06 33.252h24.17l-12.11-33.252zm151.563 0L742.53 45.802h24.17L754.591 12.55zm173.34 0L915.87 45.802h24.17L927.931 12.55zm-728.76-3.858V31.3h14.16q5.26 0 8.717-2.248a11.729 11.729 0 0 0 1.122-.828 10.056 10.056 0 0 0 3.642-7.223 14.115 14.115 0 0 0 .045-1.127 15.816 15.816 0 0 0-.302-3.197q-.713-3.452-3.116-5.324-3.403-2.648-10.336-2.661a36.595 36.595 0 0 0-.065 0h-13.867z" vector-effect="non-scaling-stroke" fill="#000" fill-rule="evenodd" stroke="#000" stroke-linecap="round" stroke-width=".25mm"/></svg>