<svg xmlns="http://www.w3.org/2000/svg" role="img" viewBox="-4.53 -4.53 235.82 60.32"><title>gopem logo</title><g stroke-width=".5" transform="translate(-3.53 -72.504)"><path fill="#e9a85b" d="M21.17394 123.31983c-8.88253-2.2571-15.27699-8.87491-17.1214-17.71944-.77862-3.73371-.67347-10.77467.21735-14.55385 2.65515-11.26415 12.1863-18.56272 24.21016-18.53915 6.44726.01265 13.85565 2.41129 15.73514 5.09465 1.01662 1.45142 1.0055 4.10585-.0215 5.13285-.74176.74176-.90845.7394-2.08184-.02945-5.22094-3.42089-8.41974-4.34689-14.25892-4.12771-3.62015.13589-5.12848.43138-7.06438 1.38397-3.40962 1.67775-6.10604 4.54339-7.96292 8.46266C11.30947 91.62448 11.25 91.99534 11.25 98.25c0 6.24307.06146 6.62847 1.55483 9.75 1.9364 4.0476 4.55798 6.7571 8.16188 8.43562 2.39066 1.11344 3.45336 1.29443 7.53329 1.28296 2.88165-.008 5.53667-.30017 6.75-.74253l2-.72919.13837-7.37343.13836-7.37343h-6.20987c-6.6689 0-6.81686-.05969-6.81686-2.75 0-2.78539-.1258-2.75 9.77514-2.75 8.9073 0 9.1903.0316 9.9465 1.11126.64194.91648.77836 2.87647.77836 11.18256 0 12.1968.09383 11.98309-6.15052 14.00851-4.92765 1.59834-13.45738 2.08935-17.67554 1.0175zM67 122.43282C56.13078 120.65312 50.26488 110.86436 51.16018 96c.91352-15.16701 9.3024-23.21469 23.31767-22.36927 9.83496.59325 16.07874 5.6948 18.25151 14.91258.9889 4.19536.9893 13.71633.0005 17.91015-2.11155 8.95799-8.02234 14.61667-16.73011 16.01652-3.71998.59802-5.15698.59208-9-.0372zm11.75-6.80419c2.74128-1.42141 4.44123-3.33938 6.09673-6.87863 1.34199-2.86899 1.40327-3.32751 1.40327-10.5 0-8.70151-.71757-11.60042-3.68779-14.89817-2.57687-2.86102-5.40785-3.98412-10.03304-3.98026-7.69379.0064-12.06208 3.82067-13.8077 12.05644-1.24057 5.853-.69052 13.98707 1.24114 18.35391 1.23853 2.79991 4.25926 5.59339 6.99973 6.47315 3.21943 1.03351 9.19921.71572 11.78766-.62644zm-15.90575-3.45105c-.18934-.18933-.34425-6.35767-.34425-13.70742C62.5 83.53292 62.24162 84.5 66.23258 84.5c1.73029 0 2.20192-.19551 2.4123-1 .22595-.86408.682-1 3.35512-1s3.12916.13592 3.35513 1c.2153.82335.682 1 2.64196 1 1.40794 0 2.6132.28042 2.95012.68639.40217.48459.53041 4.56362.43621 13.875L81.25 112.25l-9.03075.13591c-4.96692.0748-9.18567-.019-9.375-.20833zM79.5 110c0-.31111-2.83333-.5-7.5-.5s-7.5.18889-7.5.5 2.83333.5 7.5.5 7.5-.18889 7.5-.5zm-4.31988-5.5c2.37594 0 4.3204-.16875 4.32104-.375.0005-.20625-1.68685-.30097-3.75-.2105-4.40968.19338-4.56413-.0694-1.9302-3.28375 1.66777-2.03529 1.98326-2.20677 3.75-2.03829 1.06097.10118 1.92904.00925 1.92904-.20425 0-.21352-1.8-.38821-4-.38821s-4-.12147-4-.26992c0-.14846.45458-1.16095 1.01016-2.25 1.00676-1.9734 1.02026-1.98008 4-1.98008 1.6599 0 2.98984-.22241 2.98984-.5 0-.275-1.125-.5-2.5-.5s-2.5-.225-2.5-.5-.66172-.5-1.47049-.5c-.80877 0-1.60955.225-1.77951.5-.16996.275-1.75824.5-3.52951.5-1.81366 0-3.22049.21842-3.22049.5 0 .27778 1.33333.5 3 .5 1.65 0 3 .12147 3 .26992 0 .14846-.45458 1.16095-1.01016 2.25-.92099 1.80529-1.19685 1.9875-3.125 2.06413L64.25 98.1681l1.875.19613c1.03125.10787 1.875.40755 1.875.66595s.81562.46982 1.8125.46982c1.76697 0 1.80458.0396 1.49703 1.57734-.51272 2.56365-1.18629 3.02374-4.15526 2.83842-1.4606-.0912-2.65533.003-2.65495.20924.00038.20625 1.26225.375 2.80417.375 2.45275 0 2.76538.10947 2.49878.875-.29022.83334-.27228.83334.37662 0 .5554-.71324 1.47996-.875 5.00123-.875zm.69488-16.87166c-2.13125-.09371-5.61875-.09371-7.75 0-2.13125.09374-.3875.17042 3.875.17042s6.00625-.07669 3.875-.17042zm28.5 34.52699c-.81748-.21362-.875-1.75395-.875-23.43047v-23.2018l1.25482-.8222c1.07399-.7037 2.35297-.78493 8.875-.56363 8.48902.28805 10.22241.66785 13.69759 3.00124 3.57019 2.39719 5.35878 6.16172 5.35069 11.26186-.007 4.67258-1.25035 7.85303-4.27761 10.94562-3.16254 3.23079-6.10606 4.27932-12.77549 4.55087l-5.625.22902v8.66949c0 8.05954-.068 8.7059-.96713 9.18708-.97297.52072-3.03418.59724-4.65787.17292zm15.25945-24.18423c5.55151-1.54169 8.13091-9.46166 4.72668-14.51319-1.8479-2.7421-3.74689-3.51844-9.36334-3.82793L110 79.35458V98.5l3.875-.003c2.13125-.0015 4.723-.23828 5.75945-.52611zm60.24055 24.18423c-.81748-.21362-.875-1.75395-.875-23.43047v-23.2018l1.25103-.81972c1.56808-1.02744 7.02076-.79548 8.80659.37463.93391.61192 2.8314 4.9312 8.41762 19.16112 5.05998 12.88942 7.31728 18.09358 7.56502 17.44101 3.54741-9.34421 14.7229-35.66549 15.45274-36.39533 1.37646-1.37645 6.9752-1.74823 8.75596-.58143l1.25104.81971v46.43163l-1.8258.34253c-1.00419.18838-2.41044.137-3.125-.11419l-1.2992-.4567-.25-20.43654-.25-20.43653-7.93482 19.94837c-4.48729 11.28119-8.36738 20.32855-8.93039 20.82338-1.07483.94466-3.43317 1.15188-4.79777.42157-.52374-.2803-3.80432-8.19524-8.59212-20.72994L185.75 81.04011l-.12692 20.10495c-.11484 18.19223-.20718 20.1644-.97056 20.72994-.82345.61003-3.02219.73905-4.77752.28033zM143 121.51085c-.64508-.40756-.76956-3.62212-.88979-22.97756-.13693-22.04176-.11897-22.52453.875-23.5185C143.94705 74.05295 144.60987 74 155.68878 74c13.03741 0 12.99444-.0113 12.71848 3.3401L168.25 79.25l-9.625.1358-9.625.1358V94.5h8.1965c8.918 0 8.8035-.03825 8.8035 2.9409 0 2.392-.5942 2.5591-9.1 2.5591H149v16.4784l9.61336.1358 9.61336.1358.45847 1.30478c.25215.71763.30936 1.89889.12711 2.625L168.48095 122l-12.36548-.008c-6.91288-.005-12.69619-.2166-13.11547-.4815z"/><path fill="#5ba5e4" d="M21.13227 123.25915C12.79715 120.91906 7.132 115.40326 4.68968 107.25c-1.23411-4.11987-1.23401-12.88068.0002-17C8.01937 79.1373 16.9176 72.50883 28.5 72.51332c6.41473.0025 13.8358 2.4055 15.7152 5.08872.99413 1.41933 1.01276 4.09857.03528 5.07605-.66603.66603-1.06307.56071-3.56434-.94547-4.51059-2.71613-7.03637-3.34939-12.57949-3.1539-3.89669.13742-5.34317.41073-7.3181 1.38273-3.4098 1.67821-6.10612 4.54382-7.96292 8.46292C11.30947 91.62447 11.25 91.99534 11.25 98.25c0 6.24307.06146 6.62847 1.55483 9.75 1.9364 4.0476 4.55798 6.7571 8.16188 8.43562 2.37386 1.10562 3.48203 1.29764 7.53329 1.30535 3.42583.007 5.41209-.24642 7.125-.90732l2.375-.91636v-14.38741l-6.375-.13994-6.375-.13994v-5l9-.14078c8.67992-.13576 9.03112-.10267 9.875.9304.76928.94173.875 2.2948.875 11.19835 0 12.26063.09746 12.03776-6.15052 14.06436-5.12057 1.66092-13.5817 2.11786-17.7172.95682zM67 122.43282C56.13078 120.65312 50.26488 110.86436 51.16018 96c.91352-15.16701 9.3024-23.21469 23.31767-22.36927 9.83496.59325 16.07874 5.6948 18.25151 14.91258.9889 4.19536.9893 13.71633.0005 17.91015-2.11155 8.95799-8.02234 14.61667-16.73011 16.01652-3.71998.59802-5.15698.59208-9-.0372zm11.75-6.80419c2.74128-1.42141 4.44123-3.33938 6.09673-6.87863 1.34199-2.86899 1.40327-3.32751 1.40327-10.5 0-8.70151-.71757-11.60042-3.68779-14.89817-2.57687-2.86102-5.40785-3.98412-10.03304-3.98026-7.69379.0064-12.06208 3.82067-13.8077 12.05644-1.24057 5.853-.69052 13.98707 1.24114 18.35391 1.23853 2.79991 4.25926 5.59339 6.99973 6.47315 3.21943 1.03351 9.19921.71572 11.78766-.62644zm-15.90575-3.45105c-.18934-.18933-.34425-6.35767-.34425-13.70742C62.5 83.53292 62.24162 84.5 66.23258 84.5c1.73029 0 2.20192-.19551 2.4123-1 .22595-.86408.682-1 3.35512-1s3.12916.13592 3.35513 1c.2153.82335.682 1 2.64196 1 1.40794 0 2.6132.28042 2.95012.68639.40217.48459.53041 4.56362.43621 13.875L81.25 112.25l-9.03075.13591c-4.96692.0748-9.18567-.019-9.375-.20833zM79.5 110c0-.31111-2.83333-.5-7.5-.5s-7.5.18889-7.5.5 2.83333.5 7.5.5 7.5-.18889 7.5-.5zm-4.31988-5.5c2.37594 0 4.3204-.16875 4.32104-.375.0005-.20625-1.68685-.30097-3.75-.2105-4.40968.19338-4.56413-.0694-1.9302-3.28375 1.66777-2.03529 1.98326-2.20677 3.75-2.03829 1.06097.10118 1.92904.00925 1.92904-.20425 0-.21352-1.8-.38821-4-.38821s-4-.12147-4-.26992c0-.14846.45458-1.16095 1.01016-2.25 1.00676-1.9734 1.02026-1.98008 4-1.98008 1.6599 0 2.98984-.22241 2.98984-.5 0-.275-1.125-.5-2.5-.5s-2.5-.225-2.5-.5-.66172-.5-1.47049-.5c-.80877 0-1.60955.225-1.77951.5-.16996.275-1.75824.5-3.52951.5-1.81366 0-3.22049.21842-3.22049.5 0 .27778 1.33333.5 3 .5 1.65 0 3 .12147 3 .26992 0 .14846-.45458 1.16095-1.01016 2.25-.92099 1.80529-1.19685 1.9875-3.125 2.06413L64.25 98.1681l1.875.19613c1.03125.10787 1.875.40755 1.875.66595s.81562.46982 1.8125.46982c1.76697 0 1.80458.0396 1.49703 1.57734-.51272 2.56365-1.18629 3.02374-4.15526 2.83842-1.4606-.0912-2.65533.003-2.65495.20924.00038.20625 1.26225.375 2.80417.375 2.45275 0 2.76538.10947 2.49878.875-.29022.83334-.27228.83334.37662 0 .5554-.71324 1.47996-.875 5.00123-.875zm.69488-16.87166c-2.13125-.09371-5.61875-.09371-7.75 0-2.13125.09374-.3875.17042 3.875.17042s6.00625-.07669 3.875-.17042zm28.5 34.52699c-.81748-.21362-.875-1.75395-.875-23.43047v-23.2018l1.25482-.8222c1.07399-.7037 2.35297-.78493 8.875-.56363 8.48902.28805 10.22241.66785 13.69759 3.00124 3.57019 2.39719 5.35878 6.16172 5.35069 11.26186-.007 4.67258-1.25035 7.85303-4.27761 10.94562-3.16254 3.23079-6.10606 4.27932-12.77549 4.55087l-5.625.22902v8.66949c0 8.05954-.068 8.7059-.96713 9.18708-.97297.52072-3.03418.59724-4.65787.17292zm15.25945-24.18423c5.55151-1.54169 8.13091-9.46166 4.72668-14.51319-1.8479-2.7421-3.74689-3.51844-9.36334-3.82793L110 79.35458V98.5l3.875-.003c2.13125-.0015 4.723-.23828 5.75945-.52611zm60.24055 24.18423c-.81748-.21362-.875-1.75395-.875-23.43047v-23.2018l1.25103-.81972c1.56808-1.02744 7.02076-.79548 8.80659.37463.93391.61192 2.8314 4.9312 8.41762 19.16112 5.05998 12.88942 7.31728 18.09358 7.56502 17.44101 3.54741-9.34421 14.7229-35.66549 15.45274-36.39533 1.37646-1.37645 6.9752-1.74823 8.75596-.58143l1.25104.81971v46.43163l-1.8258.34253c-1.00419.18838-2.41044.137-3.125-.11419l-1.2992-.4567-.25-20.43654-.25-20.43653-7.93482 19.94837c-4.48729 11.28119-8.36738 20.32855-8.93039 20.82338-1.07483.94466-3.43317 1.15188-4.79777.42157-.52374-.2803-3.80432-8.19524-8.59212-20.72994L185.75 81.04011l-.12692 20.10495c-.11484 18.19223-.20718 20.1644-.97056 20.72994-.82345.61003-3.02219.73905-4.77752.28033zM143 121.51085c-.64508-.40756-.76956-3.62212-.88979-22.97756-.13693-22.04176-.11897-22.52453.875-23.5185C143.94705 74.05295 144.60987 74 155.68878 74c13.03741 0 12.99444-.0113 12.71848 3.3401L168.25 79.25l-9.625.1358-9.625.1358V94.5h8.1965c8.918 0 8.8035-.03825 8.8035 2.9409 0 2.392-.5942 2.5591-9.1 2.5591H149v16.4784l9.61336.1358 9.61336.1358.45847 1.30478c.25215.71763.30936 1.89889.12711 2.625L168.48095 122l-12.36548-.008c-6.91288-.005-12.69619-.2166-13.11547-.4815z"/><path fill="#9e9e9e" d="M21.13227 123.25915C12.79715 120.91906 7.132 115.40326 4.68968 107.25c-1.23411-4.11988-1.23401-12.88068.0002-17 2.66368-8.8904 8.574-14.68099 17.37561-17.02362 5.31076-1.41351 12.6894-.70865 18.2278 1.74125C43.48042 76.37745 44.5 77.63352 44.5 80.15c0 3.24797-.62714 3.50156-3.854 1.55846-4.55006-2.73991-7.03557-3.34554-12.81577-3.12277-4.4592.17186-5.4044.37345-7.732 1.64909-6.89451 3.7785-10.58083 12.32694-9.26235 21.47898.9979 6.92678 4.39353 12.11036 9.58344 14.62959 2.49924 1.21315 3.41612 1.37594 7.83068 1.39034 3.68177.012 5.62616-.22528 7.375-.90004l2.375-.91636v-14.38741l-6.375-.13994-6.375-.13994v-5l8.82794-.13634c7.53449-.11638 8.94472-.01956 9.625.66071.68098.68098.79706 2.39489.79706 11.7687v10.97163l-1.625 1.00097c-4.78313 2.94633-15.98546 4.35983-21.74273 2.74348zM67 122.43282C56.13078 120.65312 50.26488 110.86436 51.16018 96c.91352-15.16701 9.3024-23.21469 23.31767-22.36927 9.83496.59325 16.07874 5.6948 18.25151 14.91258.9889 4.19536.9893 13.71633.0005 17.91015-2.11155 8.95799-8.02234 14.61667-16.73011 16.01652-3.71998.59802-5.15698.59208-9-.0372zm11.75-6.80419c2.74128-1.42141 4.44123-3.33938 6.09673-6.87863 1.34199-2.86899 1.40327-3.32751 1.40327-10.5 0-8.70151-.71757-11.60042-3.68779-14.89817-2.57687-2.86102-5.40785-3.98412-10.03304-3.98026-7.69379.0064-12.06208 3.82067-13.8077 12.05644-1.24057 5.853-.69052 13.98707 1.24114 18.35391 1.23853 2.79991 4.25926 5.59339 6.99973 6.47315 3.21943 1.03351 9.19921.71572 11.78766-.62644zm-15.90575-3.45105c-.18934-.18933-.34425-6.35767-.34425-13.70742C62.5 83.53292 62.24162 84.5 66.23258 84.5c1.73029 0 2.20192-.19551 2.4123-1 .22595-.86408.682-1 3.35512-1s3.12916.13592 3.35513 1c.2153.82335.682 1 2.64196 1 1.40794 0 2.6132.28042 2.95012.68639.40217.48459.53041 4.56362.43621 13.875L81.25 112.25l-9.03075.13591c-4.96692.0748-9.18567-.019-9.375-.20833zM79.5 110c0-.31111-2.83333-.5-7.5-.5s-7.5.18889-7.5.5 2.83333.5 7.5.5 7.5-.18889 7.5-.5zm-4.31988-5.5c2.37594 0 4.3204-.16875 4.32104-.375.0005-.20625-1.68685-.30097-3.75-.2105-4.40968.19338-4.56413-.0694-1.9302-3.28375 1.66777-2.03529 1.98326-2.20677 3.75-2.03829 1.06097.10118 1.92904.00925 1.92904-.20425 0-.21352-1.8-.38821-4-.38821s-4-.12147-4-.26992c0-.14846.45458-1.16095 1.01016-2.25 1.00676-1.9734 1.02026-1.98008 4-1.98008 1.6599 0 2.98984-.22241 2.98984-.5 0-.275-1.125-.5-2.5-.5s-2.5-.225-2.5-.5-.66172-.5-1.47049-.5c-.80877 0-1.60955.225-1.77951.5-.16996.275-1.75824.5-3.52951.5-1.81366 0-3.22049.21842-3.22049.5 0 .27778 1.33333.5 3 .5 1.65 0 3 .12147 3 .26992 0 .14846-.45458 1.16095-1.01016 2.25-.92099 1.80529-1.19685 1.9875-3.125 2.06413L64.25 98.1681l1.875.19613c1.03125.10787 1.875.40755 1.875.66595s.81562.46982 1.8125.46982c1.76697 0 1.80458.0396 1.49703 1.57734-.51272 2.56365-1.18629 3.02374-4.15526 2.83842-1.4606-.0912-2.65533.003-2.65495.20924.00038.20625 1.26225.375 2.80417.375 2.45275 0 2.76538.10947 2.49878.875-.29022.83334-.27228.83334.37662 0 .5554-.71324 1.47996-.875 5.00123-.875zm.69488-16.87166c-2.13125-.09371-5.61875-.09371-7.75 0-2.13125.09374-.3875.17042 3.875.17042s6.00625-.07669 3.875-.17042zm28.5 34.52699c-.81748-.21362-.875-1.75395-.875-23.43047v-23.2018l1.25482-.8222c1.07399-.7037 2.35297-.78493 8.875-.56363 8.48902.28805 10.22241.66785 13.69759 3.00124 3.57019 2.39719 5.35878 6.16172 5.35069 11.26186-.007 4.67258-1.25035 7.85303-4.27761 10.94562-3.16254 3.23079-6.10606 4.27932-12.77549 4.55087l-5.625.22902v8.66949c0 8.05954-.068 8.7059-.96713 9.18708-.97297.52072-3.03418.59724-4.65787.17292zm15.25945-24.18423c5.55151-1.54169 8.13091-9.46166 4.72668-14.51319-1.8479-2.7421-3.74689-3.51844-9.36334-3.82793L110 79.35458V98.5l3.875-.003c2.13125-.0015 4.723-.23828 5.75945-.52611zm60.24055 24.18423c-.81748-.21362-.875-1.75395-.875-23.43047v-23.2018l1.25103-.81972c1.56808-1.02744 7.02076-.79548 8.80659.37463.93391.61192 2.8314 4.9312 8.41762 19.16112 5.05998 12.88942 7.31728 18.09358 7.56502 17.44101 3.54741-9.34421 14.7229-35.66549 15.45274-36.39533 1.37646-1.37645 6.9752-1.74823 8.75596-.58143l1.25104.81971v46.43163l-1.8258.34253c-1.00419.18838-2.41044.137-3.125-.11419l-1.2992-.4567-.25-20.43654-.25-20.43653-7.93482 19.94837c-4.48729 11.28119-8.36738 20.32855-8.93039 20.82338-1.07483.94466-3.43317 1.15188-4.79777.42157-.52374-.2803-3.80432-8.19524-8.59212-20.72994L185.75 81.04011l-.12692 20.10495c-.11484 18.19223-.20718 20.1644-.97056 20.72994-.82345.61003-3.02219.73905-4.77752.28033zM143 121.51085c-.64508-.40756-.76956-3.62212-.88979-22.97756-.13693-22.04176-.11897-22.52453.875-23.5185C143.94705 74.05295 144.60987 74 155.68878 74c13.03741 0 12.99444-.0113 12.71848 3.3401L168.25 79.25l-9.625.1358-9.625.1358V94.5h8.1965c8.918 0 8.8035-.03825 8.8035 2.9409 0 2.392-.5942 2.5591-9.1 2.5591H149v16.4784l9.61336.1358 9.61336.1358.45847 1.30478c.25215.71763.30936 1.89889.12711 2.625L168.48095 122l-12.36548-.008c-6.91288-.005-12.69619-.2166-13.11547-.4815z"/><path fill="#5e5e5e" d="M21.7009 123.25714c-4.13013-.89856-7.85173-2.8703-10.95215-5.80255-4.89908-4.63334-6.95773-10.16765-6.95773-18.70459 0-5.9165.76494-9.42027 3.03436-13.89875 5.41408-10.68417 19.49302-15.14664 32.46945-10.29153C43.15514 76.00404 44.5 77.46044 44.5 80.19661c0 1.2344-.23839 2.3917-.52975 2.57177-.29137.18007-2.37262-.60183-4.625-1.73755-13.58645-6.85073-26.26872-.82407-28.492 13.53951-1.44154 9.31318 2.5208 18.33638 9.56607 21.78426 2.51552 1.23108 3.38736 1.38587 7.83068 1.39035 3.66028.003 5.63636-.24049 7.375-.91132l2.375-.91635v-14.38741l-6.375-.13994-6.375-.13994v-5l8.82794-.13634c7.57641-.11702 8.94228-.022 9.63444.67015.702.702.78909 2.24021.67206 11.87081l-.13444 11.0643-2 1.12524c-4.79075 2.69535-14.18228 3.79815-20.5491 2.41298zm43.26377-1.44082c-9.14836-2.46666-13.59393-9.98656-13.63622-23.06632-.0295-9.12218 1.92489-15.02965 6.4789-19.58366 7.05935-7.05936 21.68591-7.40977 29.325-.70257 2.48226 2.17946 5.12263 7.61926 5.88123 12.11679.87336 5.1778.39921 13.7988-.98555 17.91944-3.18504 9.47777-9.78997 14.04313-20.2057 13.96626-2.51478-.0186-5.60072-.31104-6.85766-.64994zm13.85727-5.95755c2.39903-1.26606 4.72055-3.83072 6.00279-6.63151 2.41528-5.27568 2.66837-14.40664.58617-21.14803-1.92653-6.23736-7.24339-9.56631-14.23602-8.91333-5.58447.52148-9.75729 3.64166-11.73368 8.7737-1.36125 3.53473-1.865 12.56756-.95799 17.17782.69708 3.54321 2.37978 7.13144 4.0923 8.72654 2.56038 2.38485 5.32963 3.20647 10.17449 3.01874 2.9315-.11359 5.04791-.46351 6.07194-1.00393zm-16.09211-4.48105c-.13613-.35471-.18727-6.37856-.11366-13.38632L62.75 85.25l2.875-.14995c2.40585-.12548 2.875-.30033 2.875-1.07151 0-1.11352.9503-1.52854 3.5-1.52854s3.5.41502 3.5 1.52854c0 .77118.46915.94603 2.875 1.07151l2.875.14995v26.5l-9.13635.13633c-7.09798.1059-9.19156-.008-9.38383-.50861zM79.8842 98.875L79.75 87.25h-15.5l-.13421 11.625-.13422 11.625h16.03686zm-15.2866 8.25l.15239-2.375 2.44118-.1551c2.29194-.14562 2.42381-.0886 2.15685.93224l-.28435 1.08735 1.12539-1.05725c.94416-.887 1.74417-1.05724 4.96815-1.05724H79v5H64.44521zM64.5 101.25c0-2.2381.0092-2.25 1.75-2.25.9625 0 1.75.225 1.75.5s.7875.5 1.75.5 1.75.0789 1.75.17539c0 .0965-.24701.88396-.54892 1.75-.53206 1.52629-.63946 1.57461-3.5 1.57461H64.5zm9.05369 0c1.43187-1.99385 1.83387-2.25 3.53107-2.25H79v4.5h-7.06213zM64.5 95.5v-2H70.41955l-.78562 2c-.7488 1.90625-.88753 2-2.95978 2H64.5zm8.11007.004c1.1015-1.92886 1.22841-1.99628 3.76493-2L79 93.5v4h-7.52986l1.13993-1.99615zm-7.91305-3.71162c-.14937-.38926-.19856-1.34551-.1093-2.125L64.75 88.25l7.125-.13873L79 87.97254V92.5h-2.25c-1.2375 0-2.25-.225-2.25-.5s-.7875-.5-1.75-.5-1.75.225-1.75.5c0 .8221-5.98347.62486-6.30298-.20777zm39.15813 29.89625c-.58416-.58416-.42765-45.11875.16244-46.22135.4792-.89538 1.12156-.96713 8.65925-.96713 9.48565 0 12.04257.55794 15.28804 3.33593 3.0586 2.61806 4.52408 5.99852 4.53023 10.45C132.50929 98.55151 125.89534 104 113.4197 104h-3.39663l-.13654 8.875-.13653 8.875-2.76985.14682c-1.52342.0807-2.92967-.013-3.125-.20834zm17.03977-24.13527c2.29137-1.16947 3.34361-2.3053 4.33601-4.68045 1.78018-4.26056.31852-9.83358-3.13962-11.97083-1.52262-.94104-2.71681-1.16833-6.96452-1.32557L110 79.38658V98.5h4.51992c3.44881 0 4.95952-.22437 6.375-.9468zm22.16834 23.77301c-.41715-.50262-.53798-6.94411-.44335-23.63358L142.75 74.75l12.61332-.13356 12.61333-.13356.31588 1.25856c.17373.69221.1747 1.82106.002 2.50856l-.31373 1.25h-19.48095v15h8.23241c7.79886 0 8.26141.05421 8.78328 1.02933.30299.56612.40552 1.69112.22787 2.5L165.42054 99.5H148.5v17l9.375.008c5.15625.004 9.67084.19526 10.03243.42455.42485.26941.60174 1.19538.5 2.61735L168.25 121.75l-12.30665.13358c-9.98415.10838-12.41487.003-12.88009-.55736zm36.27007.34045C179.15 121.48333 179 111.06584 179 98.51667c0-17.07964.15086-22.96754.6-23.41667.3623-.3623 2.11835-.6 4.43257-.6 3.03243 0 4.08933.20197 5.06243.9674.90972.7156 3.02898 5.56367 8.14161 18.625 3.80146 9.71168 7.06809 17.83608 7.25918 18.05421.19108.21814 3.44699-7.20686 7.23534-16.5 7.70969-18.9125 8.38763-20.39332 9.53846-20.83494.44671-.17142 2.47338-.31167 4.50371-.31167 3.1504 0 3.76813.14316 4.21422.97668.34721.64876.47902 8.58085.39259 23.625L230.25 121.75h-6l-.25-20.6978-.25-20.6978-8.27176 20.6978-8.27176 20.6978-2.79261.14815-2.79262.14813-1.79685-4.64813c-.98826-2.55648-4.60642-11.96065-8.04034-20.89815l-6.24349-16.25-.0203 20.0841c-.0112 11.04626-.15686 20.44001-.32378 20.875-.22318.5816-.99504.7909-2.91667.7909-1.43724 0-2.76317-.15-2.9465-.33334z"/><path fill="#1957a1" d="M23.5 123.49576c-5.79205-.92598-10.03154-3.07216-13.59581-6.88265-4.39993-4.70388-6.11317-9.71008-6.11317-17.86311 0-12.42238 5.60678-21.2055 15.74934-24.67161 6.90094-2.35833 17.2278-1.46628 22.78503 1.96822 1.84008 1.13721 2.17461 1.831 2.17461 4.50997 0 2.65629-.9153 2.88897-3.97018 1.00928-3.89908-2.39913-7.22888-3.3162-12.02982-3.31319-3.54008.002-4.71938.22231-7.06 1.31758-5.85321 2.73895-9.48028 7.85174-10.57153 14.90183-1.13786 7.35118 1.30369 15.39389 5.90188 19.44138 5.1552 4.53779 13.71637 5.5884 20.10465 2.46721 1.0886-.53186 1.125-.781 1.125-7.70022v-7.15057l-6.375-.13994-6.375-.13994v-5l8.82794-.13634c7.57641-.11702 8.94228-.022 9.63444.67015.702.702.78909 2.24021.67206 11.87081l-.13444 11.0643-2 1.12561c-3.91174 2.20154-13.2784 3.52598-18.75 2.65123zm42.70354-1.48031c-7.245-1.54529-12.05361-6.58869-13.94972-14.63087-1.60323-6.79998-.60222-18.35984 2.03075-23.45144 1.54481-2.98732 5.5774-6.73355 8.85424-8.22548 2.64647-1.20493 3.91112-1.44642 8.46663-1.61673 7.29753-.27282 11.1727.86601 15.07136 4.42916 4.29873 3.9288 6.08954 8.52951 6.60936 16.97991.76719 12.47177-4.08319 22.24964-12.66283 25.52698-3.20499 1.22428-10.85542 1.74871-14.41979.98847zm12.7964-6.40018c5.72703-2.84331 7.77181-7.64734 7.71058-18.11527-.03376-5.77232-.20415-7.17235-1.17627-9.66598-2.20712-5.66159-5.8173-8.33255-11.78425-8.71847-1.925-.1245-4.44679.0297-5.60398.34265-8.33653 2.25462-12.39165 13.62938-9.55131 26.7918 1.656 7.67408 7.02979 11.62633 14.90529 10.96238 1.57949-.13315 3.92049-.81295 5.49995-1.59711zM62.8035 111.2091c-.39597-1.03185-.39597-24.38635 0-25.4182.22368-.58292.99724-.7909 2.94168-.7909 2.21768 0 2.67987-.15939 2.8997-1 .22595-.86408.682-1 3.35512-1s3.12916.13592 3.35513 1c.22065.84378.682 1 2.95318 1H81v27h-8.9465c-7.6968 0-8.9889-.11048-9.25-.7909zM79.88405 98.875L80.0181 87H64v11.66667c0 6.41666.15563 11.82229.34584 12.01251.19021.1902 3.73396.28395 7.875.20833L79.75 110.75zM65 107.25V105h2.20319c2.01907 0 2.18412.094 1.975 1.125L68.95 107.25l.83598-1.125c.751-1.01063 1.26188-1.125 5.025-1.125H79v4.5H65zm0-6c0-2.17632.05009-2.25 1.52951-2.25.84123 0 1.3986.21181 1.2386.4707-.16.25888.59655.54013 1.68122.625l1.97211.1543-.68658 1.625c-.64563 1.52807-.83715 1.625-3.21072 1.625H65zm8.6203.125c1.38218-1.67856 2.1311-2.1576 3.56475-2.28018L79 98.93962V103.5H71.87051zM65 95.5v-2h2.5c2.71565 0 2.90243.27146 1.73716 2.52483-.62268 1.20412-1.08203 1.47517-2.5 1.47517C65.04381 97.5 65 97.44957 65 95.5zm7.00187 1.625c.001-.20625.44772-1.10625.99265-2 .90578-1.48559 1.2059-1.625 3.49813-1.625H79v4h-3.5c-1.925 0-3.49916-.16875-3.49813-.375zM65 90v-2h14v4h-2c-1.1 0-2-.225-2-.5s-.77422-.5-1.72049-.5c-.94627 0-1.85955.225-2.02951.5-.16996.275-1.64574.5-3.27951.5H65zm38.72939 31.37658c-.14269-.37185-.19643-10.85452-.11941-23.29483.12036-19.44291.24533-22.68912.89002-23.11994.45026-.30089 4.14709-.44337 9.25-.3565 8.16295.13895 8.6136.20047 11.3648 1.55147 1.57564.77373 3.55211 2.23623 4.39217 3.25 4.57788 5.52452 3.5464 16.19487-1.98935 20.57926-3.25901 2.58118-5.2571 3.17209-11.76762 3.4801l-6 .28386-.25 9-.25 9-2.63059.15133c-1.86018.107-2.70657-.0466-2.89002-.52475zm17.98672-24.08028c3.12894-1.83369 4.45642-4.74 4.20417-9.20436-.35856-6.34565-3.3412-8.56248-11.54528-8.58096L109.5 79.5v9.41667c0 5.17916.16875 9.5927.375 9.80787.20625.21516 2.46261.27031 5.01413.12256 3.76866-.21824 5.04965-.50922 6.82698-1.5508zm21.65889 24.16853c-.81286-.47798-.875-2.12125-.875-23.13968 0-16.93067.15101-22.77616.6-23.22515.43358-.43358 3.95371-.6 12.69171-.6h12.09171l.25801 1.3497c.14191.74233.0612 1.86733-.17934 2.5-.43524 1.14477-.48309 1.1503-9.94972 1.1503H148.5v14.97582l8.375.13709 8.375.13709v4.5l-8.375.13709-8.375.13709v17.45468l9.875.13557 9.875.13557v4.5l-12 .11468c-7.53749.072-12.32539-.0767-12.875-.39985zm35.98079.22429C179.1601 121.49344 179 111.14941 179 98.70238c0-19.90693.0946-22.72553.78571-23.41666.92012-.92013 7.16971-1.11235 8.74553-.269 1.35378.72452 1.98911 2.15285 9.22229 20.73328 3.53281 9.075 6.56353 16.66878 6.73494 16.87507.17142.20628 3.63307-7.78122 7.69257-17.75 5.04378-12.38586 7.77573-18.4813 8.62781-19.25007 1.03987-.9382 1.82153-1.125 4.70751-1.125 5.34858 0 5.01741-1.68826 4.86385 24.79518L230.25 121.75h-5.5l-.25-21.25c-.19373-16.46683-.37834-20.96863-.82014-20-.31358.6875-4.12184 10.1375-8.46281 21-4.34098 10.8625-8.13442 19.91531-8.42987 20.11735-.88627.60606-4.62981.4293-5.13266-.24235-.25735-.34375-2.90741-7.0375-5.889-14.875-2.9816-7.8375-6.56733-17.175-7.9683-20.75l-2.54722-6.5-.25 21.25-.25 21.25-2.51921.14746c-1.38556.0811-2.67931-.0126-2.875-.20834z"/><path fill="#9d4f09" d="M23.5 123.46708c-5.70693-.85286-10.01301-3.02366-13.59581-6.85397-4.39993-4.70388-6.11317-9.71008-6.11317-17.86311 0-10.2135 3.58093-17.67594 10.66262-22.22025 6.61474-4.24467 16.20452-5.01436 24.37724-1.95654C42.79946 76.05804 44.5 77.82904 44.5 80.47723c0 2.74156-.88807 2.98507-3.97018 1.08862-3.93359-2.42035-7.22455-3.3196-12.02982-3.28712-9.02244.06099-15.0066 4.8135-17.29275 13.7336-1.11187 4.33826-.75399 11.11223.80317 15.20259 1.57638 4.14086 5.69654 8.27448 9.73958 9.77143 4.75869 1.76191 10.77202 1.5211 15.125-.60568 1.0886-.53186 1.125-.781 1.125-7.70022v-7.15057l-6.375-.13994-6.375-.13994v-5l8.69724-.13711c7.56641-.1193 8.81787-.02795 9.625.70249.84838.76777.92776 1.7511.92776 11.49263 0 12.30816.21594 11.73449-5.117 13.5936-5.31563 1.85307-10.5237 2.3664-15.883 1.56547zm42.70354-1.45163c-7.245-1.54529-12.05361-6.58869-13.94972-14.63087-1.60323-6.79998-.60222-18.35984 2.03075-23.45144 1.54481-2.98732 5.5774-6.73355 8.85424-8.22548 2.64647-1.20493 3.91112-1.44642 8.46663-1.61673 7.29753-.27282 11.1727.86601 15.07136 4.42916 4.29873 3.9288 6.08954 8.52951 6.60936 16.97991.76719 12.47177-4.08319 22.24964-12.66283 25.52698-3.20499 1.22428-10.85542 1.74871-14.41979.98847zm12.7964-6.40018c5.72703-2.84331 7.77181-7.64734 7.71058-18.11527-.03376-5.77232-.20415-7.17235-1.17627-9.66598-2.20712-5.66159-5.8173-8.33255-11.78425-8.71847-1.925-.1245-4.44679.0297-5.60398.34265-8.33653 2.25462-12.39165 13.62938-9.55131 26.7918 1.656 7.67408 7.02979 11.62633 14.90529 10.96238 1.57949-.13315 3.92049-.81295 5.49995-1.59711zM62.8035 111.2091c-.39597-1.03185-.39597-24.38635 0-25.4182.22368-.58292.99724-.7909 2.94168-.7909 2.21768 0 2.67987-.15939 2.8997-1 .22595-.86408.682-1 3.35512-1s3.12916.13592 3.35513 1c.22065.84378.682 1 2.95318 1H81v27h-8.9465c-7.6968 0-8.9889-.11048-9.25-.7909zM79.88405 98.875L80.0181 87H64v11.66667c0 6.41666.15563 11.82229.34584 12.01251.19021.1902 3.73396.28395 7.875.20833L79.75 110.75zM65 107.25V105h2.20319c2.01907 0 2.18412.094 1.975 1.125L68.95 107.25l.83598-1.125c.751-1.01063 1.26188-1.125 5.025-1.125H79v4.5H65zm0-6c0-2.17632.05009-2.25 1.52951-2.25.84123 0 1.3986.21181 1.2386.4707-.16.25888.59655.54013 1.68122.625l1.97211.1543-.68658 1.625c-.64563 1.52807-.83715 1.625-3.21072 1.625H65zm8.6203.125c1.38218-1.67856 2.1311-2.1576 3.56475-2.28018L79 98.93962V103.5H71.87051zM65 95.5v-2h2.5c2.71565 0 2.90243.27146 1.73716 2.52483-.62268 1.20412-1.08203 1.47517-2.5 1.47517C65.04381 97.5 65 97.44957 65 95.5zm7.00187 1.625c.001-.20625.44772-1.10625.99265-2 .90578-1.48559 1.2059-1.625 3.49813-1.625H79v4h-3.5c-1.925 0-3.49916-.16875-3.49813-.375zM65 90v-2h14v4h-2c-1.1 0-2-.225-2-.5s-.77422-.5-1.72049-.5c-.94627 0-1.85955.225-2.02951.5-.16996.275-1.64574.5-3.27951.5H65zm38.72939 31.37658c-.14269-.37185-.19643-10.85452-.11941-23.29483.12036-19.44291.24533-22.68912.89002-23.11994.45026-.30089 4.14709-.44337 9.25-.3565 8.16295.13895 8.6136.20047 11.3648 1.55147 1.57564.77373 3.55211 2.23623 4.39217 3.25 4.57788 5.52452 3.5464 16.19487-1.98935 20.57926-3.25901 2.58118-5.2571 3.17209-11.76762 3.4801l-6 .28386-.25 9-.25 9-2.63059.15133c-1.86018.107-2.70657-.0466-2.89002-.52475zm17.98672-24.08028c3.12894-1.83369 4.45642-4.74 4.20417-9.20436-.35856-6.34565-3.3412-8.56248-11.54528-8.58096L109.5 79.5v9.41667c0 5.17916.16875 9.5927.375 9.80787.20625.21516 2.46261.27031 5.01413.12256 3.76866-.21824 5.04965-.50922 6.82698-1.5508zm21.65889 24.16853c-.81286-.47798-.875-2.12125-.875-23.13968 0-16.93067.15101-22.77616.6-23.22515.43358-.43358 3.95371-.6 12.69171-.6h12.09171l.25801 1.3497c.14191.74233.0612 1.86733-.17934 2.5-.43524 1.14477-.48309 1.1503-9.94972 1.1503H148.5v14.97582l8.375.13709 8.375.13709v4.5l-8.375.13709-8.375.13709v17.45468l9.875.13557 9.875.13557v4.5l-12 .11468c-7.53749.072-12.32539-.0767-12.875-.39985zm35.98079.22429C179.1601 121.49344 179 111.14941 179 98.70238c0-19.90693.0946-22.72553.78571-23.41666.92012-.92013 7.16971-1.11235 8.74553-.269 1.35378.72452 1.98911 2.15285 9.22229 20.73328 3.53281 9.075 6.56353 16.66878 6.73494 16.87507.17142.20628 3.63307-7.78122 7.69257-17.75 5.04378-12.38586 7.77573-18.4813 8.62781-19.25007 1.03987-.9382 1.82153-1.125 4.70751-1.125 5.34858 0 5.01741-1.68826 4.86385 24.79518L230.25 121.75h-5.5l-.25-21.25c-.19373-16.46683-.37834-20.96863-.82014-20-.31358.6875-4.12184 10.1375-8.46281 21-4.34098 10.8625-8.13442 19.91531-8.42987 20.11735-.88627.60606-4.62981.4293-5.13266-.24235-.25735-.34375-2.90741-7.0375-5.889-14.875-2.9816-7.8375-6.56733-17.175-7.9683-20.75l-2.54722-6.5-.25 21.25-.25 21.25-2.51921.14746c-1.38556.0811-2.67931-.0126-2.875-.20834z"/><path fill="#010101" d="M23.4753 123.46954c-6.52362-.96047-11.84647-4.1846-15.23517-9.22816-2.86655-4.26643-3.82148-7.52437-4.10095-13.99138-.28227-6.53172.55556-10.84919 2.99266-15.42167 5.63295-10.56848 19.15703-14.9477 31.68575-10.2601C42.77238 76.04791 44.5 77.83067 44.5 80.43203c0 1.10492-.20313 2.1345-.4514 2.28794-.24828.15344-2.1925-.61141-4.32048-1.69968-4.6115-2.35834-8.3796-3.22999-12.46778-2.88409-10.87756.92035-17.32098 9.2944-16.63076 21.6138.3474 6.20072 1.7191 9.62744 5.31499 13.27772 2.05239 2.08344 3.6107 3.14753 5.80543 3.96423 3.87008 1.44014 9.3764 1.5225 13.25.19821l2.75-.94016.13837-7.375.13836-7.375h-5.91336C25.6223 101.5 25 101.25942 25 98.75c0-2.61938.45228-2.75 9.5225-2.75 7.42772 0 8.41148.09831 9.15.91437.71505.79011.8275 2.35027.8275 11.48053 0 12.20918.21227 11.64889-5.117 13.50671-5.31521 1.85292-10.5006 2.36402-15.9077 1.56793zm42.72825-1.45409c-7.24502-1.54529-12.05362-6.58869-13.94973-14.63087-1.60323-6.79998-.60222-18.35984 2.03075-23.45144 1.54481-2.98732 5.5774-6.73355 8.85424-8.22548 2.64647-1.20493 3.91112-1.44642 8.46663-1.61673 7.29753-.27282 11.1727.86601 15.07136 4.42916 4.29873 3.9288 6.08954 8.52951 6.60936 16.97991.76719 12.47177-4.08319 22.24964-12.66283 25.52698-3.20499 1.22428-10.85542 1.74871-14.41979.98847zm12.7964-6.40018c5.72701-2.84331 7.7718-7.64734 7.71056-18.11527-.03374-5.77232-.20413-7.17235-1.17625-9.66598-2.20713-5.66159-5.81732-8.33255-11.78426-8.71847-1.925-.1245-4.44679.0297-5.60398.34265-8.33653 2.25462-12.39165 13.62938-9.55131 26.7918 1.656 7.67408 7.02979 11.62633 14.90529 10.96238 1.57949-.13315 3.92049-.81295 5.49995-1.59711zm-16.19646-4.40617c-.39595-1.03185-.39595-24.38635 0-25.4182.22369-.58292.99725-.7909 2.94169-.7909 2.21768 0 2.67987-.15939 2.8997-1 .22595-.86408.682-1 3.35512-1s3.12916.13592 3.35513 1c.22065.84378.682 1 2.95318 1H81v27h-8.9465c-7.6968 0-8.9889-.11048-9.25-.7909zM79.88405 98.875L80.0181 87H64v11.66667c0 6.41666.15563 11.82229.34584 12.01251.19021.1902 3.73396.28395 7.875.20833L79.75 110.75zM65 107.25V105h2.20319c2.01907 0 2.18412.094 1.975 1.125L68.95 107.25l.83598-1.125c.751-1.01063 1.26188-1.125 5.025-1.125H79v4.5H65zm0-6c0-2.17632.05009-2.25 1.52951-2.25.84123 0 1.3986.21181 1.2386.4707-.16.25888.59655.54013 1.68122.625l1.97211.1543-.68658 1.625c-.64563 1.52807-.83715 1.625-3.21072 1.625H65zm8.6203.125c1.38218-1.67856 2.1311-2.1576 3.56475-2.28018L79 98.93962V103.5H71.87051zM65 95.5v-2h2.5c2.71565 0 2.90243.27146 1.73716 2.52483-.62268 1.20412-1.08203 1.47517-2.5 1.47517C65.04381 97.5 65 97.44957 65 95.5zm7.00187 1.625c.001-.20625.44772-1.10625.99265-2 .90578-1.48559 1.2059-1.625 3.49813-1.625H79v4h-3.5c-1.925 0-3.49916-.16875-3.49813-.375zM65 90v-2h14v4h-2c-1.1 0-2-.225-2-.5s-.77422-.5-1.72049-.5c-.94627 0-1.85955.225-2.02951.5-.16996.275-1.64574.5-3.27951.5H65zm38.72939 31.37658c-.14269-.37185-.19643-10.85452-.11941-23.29483.12036-19.44291.24533-22.68912.89002-23.11994.45026-.30089 4.14709-.44337 9.25-.3565 8.16295.13895 8.6136.20047 11.3648 1.55147 1.57564.77373 3.55211 2.23623 4.39217 3.25 4.57788 5.52452 3.5464 16.19487-1.98935 20.57926-3.25901 2.58118-5.2571 3.17209-11.76762 3.4801l-6 .28386-.25 9-.25 9-2.63059.15133c-1.86018.107-2.70657-.0466-2.89002-.52475zm17.98672-24.08028c3.12894-1.83369 4.45642-4.74 4.20417-9.20436-.35856-6.34565-3.3412-8.56248-11.54528-8.58096L109.5 79.5v9.41667c0 5.17916.16875 9.5927.375 9.80787.20625.21516 2.46261.27031 5.01413.12256 3.76866-.21824 5.04965-.50922 6.82698-1.5508zm21.65889 24.16853c-.81286-.47798-.875-2.12125-.875-23.13968 0-16.93067.15101-22.77616.6-23.22515.43358-.43358 3.95371-.6 12.69171-.6h12.09171l.25801 1.3497c.14191.74233.0612 1.86733-.17934 2.5-.43524 1.14477-.48309 1.1503-9.94972 1.1503H148.5v14.97582l8.375.13709 8.375.13709v4.5l-8.375.13709-8.375.13709v17.45468l9.875.13557 9.875.13557v4.5l-12 .11468c-7.53749.072-12.32539-.0767-12.875-.39985zm35.98079.22429C179.1601 121.49344 179 111.14941 179 98.70238c0-19.90693.0946-22.72553.78571-23.41666.92012-.92013 7.16971-1.11235 8.74553-.269 1.35378.72452 1.98911 2.15285 9.22229 20.73328 3.53281 9.075 6.56353 16.66878 6.73494 16.87507.17142.20628 3.63307-7.78122 7.69257-17.75 5.04378-12.38586 7.77573-18.4813 8.62781-19.25007 1.03987-.9382 1.82153-1.125 4.70751-1.125 5.34858 0 5.01741-1.68826 4.86385 24.79518L230.25 121.75h-5.5l-.25-21.25c-.19373-16.46683-.37834-20.96863-.82014-20-.31358.6875-4.12184 10.1375-8.46281 21-4.34098 10.8625-8.13442 19.91531-8.42987 20.11735-.88627.60606-4.62981.4293-5.13266-.24235-.25735-.34375-2.90741-7.0375-5.889-14.875-2.9816-7.8375-6.56733-17.175-7.9683-20.75l-2.54722-6.5-.25 21.25-.25 21.25-2.51921.14746c-1.38556.0811-2.67931-.0126-2.875-.20834z"/></g></svg>