<svg xmlns="http://www.w3.org/2000/svg" role="img" viewBox="-5.09 -5.09 251.68 82.43"><title>GRAL logo</title><path d="M53.201 5.7l-3.5 7.9q-4.2-2.3-8.55-3.8a27.36 27.36 0 0 0-6.1-1.32 34.225 34.225 0 0 0-3.55-.18 20.13 20.13 0 0 0-7.487 1.371 18.919 18.919 0 0 0-3.713 1.979 20.295 20.295 0 0 0-5.325 5.418 27.457 27.457 0 0 0-2.425 4.432 31.614 31.614 0 0 0-2.046 6.731q-.603 3.132-.754 6.724a58.311 58.311 0 0 0-.05 2.445q0 7.309 1.968 12.763a26.036 26.036 0 0 0 .632 1.587 24.18 24.18 0 0 0 2.932 5.047 19.102 19.102 0 0 0 4.268 4.103 17.93 17.93 0 0 0 9.809 3.186 21.993 21.993 0 0 0 .791.014 22.762 22.762 0 0 0 5.597-.663 18.835 18.835 0 0 0 4.353-1.687 40.361 40.361 0 0 0 3.002-1.783q2.285-1.504 3.848-3.067V41.6h-14.5v-7.5h23.5v37.1h-8.4v-7a35.883 35.883 0 0 1-4.379 3.292 47.354 47.354 0 0 1-4.121 2.358 23.594 23.594 0 0 1-9.407 2.5 28.131 28.131 0 0 1-1.693.05 26.572 26.572 0 0 1-9.313-1.6 24.511 24.511 0 0 1-5.087-2.6q-6.3-4.2-9.9-11.95a37.529 37.529 0 0 1-2.908-9.57A51.837 51.837 0 0 1 .001 38a56.301 56.301 0 0 1 .835-9.917 42.572 42.572 0 0 1 2.965-9.833 32.73 32.73 0 0 1 5.784-8.948 29.455 29.455 0 0 1 5.166-4.452Q21.901 0 32.001 0q6.5 0 11.6 1.6t9.6 4.1zm67.9 62.5l-8.9 4.2-8.7-19a30.586 30.586 0 0 0-2.592-4.573q-2.505-3.605-5.708-5.527-4.356-2.613-10.836-2.95a37.847 37.847 0 0 0-1.964-.05h-1.5v30.9h-9.5V1.4q5.3-.5 10.15-.75a187.94 187.94 0 0 1 6.316-.215A226.267 226.267 0 0 1 91.901.4q12.8 0 19.25 5.2a17.414 17.414 0 0 1 4.629 5.534q1.821 3.51 1.821 7.866a19.88 19.88 0 0 1-.651 5.22 14.672 14.672 0 0 1-3.699 6.53q-4.35 4.45-12.55 6.65a23.656 23.656 0 0 1 3.428 1.863 20.427 20.427 0 0 1 1.372.987q1.968 1.547 3.805 4.06a29.29 29.29 0 0 1 .245.34q1.95 2.75 3.95 7.15l7.6 16.4zm68.8.5l-8.7 3.5-7.8-20h-32.4l-7.8 19.8-8.1-3.3 27.4-67.5h10.4l27 67.5zm51.6 2.5h-41.6v-70h9.5v61.5h32.1v8.5zm-84.3-60.6l-13.2 33.6h26.3l-13.1-33.6zm-76.3-1.8v23.5h11a26.489 26.489 0 0 0 4.923-.431q3.929-.744 6.777-2.769 4.5-3.2 4.5-9.2a9.811 9.811 0 0 0-3.274-7.464 13.272 13.272 0 0 0-.926-.786 13.923 13.923 0 0 0-4.364-2.221q-1.929-.611-4.26-.859a31.944 31.944 0 0 0-3.376-.17q-3.175 0-5.739.087a118.974 118.974 0 0 0-.361.013q-2.7.1-4.9.3z" vector-effect="non-scaling-stroke" fill="#000" fill-rule="evenodd" stroke="#000" stroke-linecap="round" stroke-width=".25mm"/></svg>