<svg xmlns="http://www.w3.org/2000/svg" role="img" viewBox="-0.97 -0.97 50.31 13.44"><title>Grid2Op logo</title><g transform="translate(-.674 9.117)"><path d="M8.44922-.64453q-.71485.32812-1.56445.57422Q6.04102.16992 5.25.16992q-1.01953 0-1.86914-.28125T1.93359-.95508q-.60351-.56836-.93164-1.41797-.32812-.85547-.32812-1.99804 0-2.0918 1.21875-3.29883 1.2246-1.2129 3.35742-1.2129.74414 0 1.51758.18165.7793.17578 1.67578.60351v1.37696h-.10547q-.18164-.14063-.52734-.36914-.3457-.22852-.6797-.38086-.40429-.18164-.91991-.29883-.50977-.12305-1.16016-.12305-1.46484 0-2.32031.94336-.84961.9375-.84961 2.54297 0 1.69336.89062 2.63672.89063.9375 2.42579.9375.5625 0 1.11914-.11133.5625-.11133.98437-.2871v-2.13868H4.9629v-1.01953h3.48633z"/><path d="M14.47266-5.34375h-.0586q-.24609-.0586-.48046-.08203-.22852-.0293-.54492-.0293-.50977 0-.98438.22852-.4746.22265-.91406.58008V0h-1.10156v-6.54492h1.10156v.9668q.65625-.52735 1.1543-.74415.5039-.22265 1.02539-.22265.2871 0 .41601.01758.1289.01172.38672.05273z"/><path d="M16.69336-7.64063h-1.24219V-8.7832h1.24219zM16.62305 0h-1.10157v-6.54492h1.10157z"/><path d="M24.11133 0h-1.10156v-.68555q-.47461.41016-.99024.63867-.51562.22852-1.11914.22852-1.17187 0-1.86328-.90234-.68555-.90235-.68555-2.50196 0-.83203.23438-1.48242.24023-.65039.64453-1.10742.39844-.44531.92578-.67969.5332-.23437 1.10156-.23437.51563 0 .91407.11133.39843.10546.83789.33398v-2.83594h1.10156zm-1.10156-1.61133v-3.75586q-.44532-.19922-.79688-.27539-.35156-.07617-.76758-.07617-.92578 0-1.4414.64453-.51563.64453-.51563 1.82813 0 1.16601.39844 1.77539.39844.60351 1.27734.60351.46875 0 .94922-.20508.48047-.21093.89649-.53906z"/><path d="M32.04492 0h-5.90625v-1.2246l1.23047-1.0547q.6211-.52734 1.1543-1.04883 1.125-1.08984 1.54101-1.72851.41602-.64453.41602-1.38867 0-.67969-.45117-1.06055-.44532-.38672-1.24805-.38672-.5332 0-1.1543.1875-.6211.1875-1.21289.57422h-.05859v-1.23047q.41602-.20508 1.10742-.375.69727-.16992 1.34766-.16992 1.3418 0 2.10351.6504.76172.64452.76172 1.75194 0 .49805-.1289.93164-.12305.42774-.36914.81446-.22852.36328-.53906.71484-.3047.35156-.74415.7793-.62695.61523-1.29492 1.19531-.66797.57422-1.24804 1.0664h4.69336z"/><path d="M40.5-7.72266q.5332.58594.81445 1.43555.28711.84961.28711 1.92773 0 1.07813-.29297 1.9336-.2871.8496-.80859 1.41797-.53906.5918-1.27734.89062-.73243.29883-1.67578.29883-.91993 0-1.67579-.30469-.75-.30468-1.27734-.88476-.52734-.58008-.81445-1.42383-.28125-.84375-.28125-1.92773 0-1.06641.28125-1.91016.28125-.84961.8203-1.45313.51563-.57422 1.27735-.8789.76758-.30469 1.66992-.30469.9375 0 1.68165.31055.75.30468 1.27148.87304zm-.10547 3.36328q0-1.69921-.76172-2.61914-.76172-.92578-2.08008-.92578-1.33007 0-2.0918.92578-.75585.91993-.75585 2.61915 0 1.7168.77344 2.63085.77343.9082 2.07421.9082 1.30079 0 2.06836-.9082.77344-.91406.77344-2.63085z"/><path d="M49.11328-3.35156q0 .79687-.22851 1.45898-.22852.65625-.64454 1.11328-.38671.4336-.91406.67383-.52148.23438-1.10742.23438-.50977 0-.92578-.11133-.41016-.11133-.8379-.3457v2.74218h-1.10155v-8.95898h1.10156v.68554q.43945-.36914.98437-.61523.55078-.25195 1.17188-.25195 1.1836 0 1.83984.89648.66211.89063.66211 2.47852zm-1.13672.0293q0-1.1836-.4043-1.76954-.4043-.58593-1.24218-.58593-.47461 0-.95508.20507-.48047.20508-.91992.53907v3.70898q.46875.21094.80273.28711.33985.07617.76758.07617.91992 0 1.43555-.6211.51562-.62109.51562-1.83984z"/></g></svg>