<svg xmlns="http://www.w3.org/2000/svg" role="img" viewBox="-5.16 -4.91 268.32 89.57"><title>GridOS TE logo</title><path fill="#474747" d="M42.32373 28.3164l-.00977-.01367.00928-.0083c.10205-.08936.20215-.15967.31543-.22168-.11523.06835-.2124.14355-.31494.24365m-.70459 1.43261c.06885-.69043.39307-1.10547.5-1.24219a.56859.56859 0 0 0 .01514.02197c-1.09473 1.58057-.08936 3.56592 1.31201 3.41846-1.22119.15821-1.94287-1.03125-1.82715-2.19824"/><path fill="#474747" d="M28.14258 55.90722c-.43799-.65332-.32568-.95996-.12158-.90137.12598.03516.26367.19922.36914.43848.04248.09668.07275.18848.08691.2334.05957.19141.08203.39062.13916.58105.0498.16699.16406.37402.19727.5459l-.18018-.46289c.03564.16992.03564.16992.03809.20215-.00244.00098-.00635.00391-.00879.00684-.07178-.05665-.36865-.417-.52002-.64356m-1.51026-4.80567c-.06836-.22559-.15723-.66211.01465-1.06055.43066-.77734 1.27686-.41016 1.54736.43555.17334.54102.05762.97852-.00439 1.21484.81152 1.21191.84326 1.25977 1.11182 1.88672.20459-.27148.23682-.27148.54102-.27734l.00635.00293c.17334.13965.22607.18262.22998.57715.92432-.51953.96045-.53906 1.604-.83594.53027-1.43359 1.58057-1.83301 1.77979-1.33594.23438.58789-1.75 3.32422-1.77051 3.34961.22998-.12305.46777-.25.58936-.17383l.00146.00293c-.06641.17871-.06641.17871-.32861.39746.57373-.13867 1.14307-.29492 1.71484-.44141 2.13574-1.40039 2.13574-1.40039 2.73584-2.76953-.57373.31055-.67432.27539-.91797.19141-.19141-1.12891 1.92139-2.69727 2.43213-2.38867.26367.1582.11865.58691-.08594.90625l-2.49951 3.125c.32031-.13477.63379-.24219.75537-.13379l.00244.00391.00537.02051-.00098.00098-.00049.00293c-.10889.21582-.11768.2334-.52393.52832l-.02832.02148c1.34473-.26855 1.37061-.27441 2.14307-.4043 2.45996-1.48633 2.45996-1.48633 3.38965-3.09082-.55908.2627-.66357.2373-.91504.17578-.2915-.68945 1.29883-2.02344 1.52393-2.17871.43262-.29785.52734-2.91211.52734-2.93848-1.06299.67285-1.57861.17773-1.44727-.66602.00049-.00488.00293-.01074.00391-.01562l-.00049-.01758c.11768-.68359.46582-1.30078 1.03369-1.83301-.5-1.97852-.51953-2.05566-.99512-3.24121-1.25977.9707-2.30664.09375-2.16797-1.26953.16846-1.6582 1.86084-2.67676 2.74414-1.65137.38818.4502.63037 1.59082-.37256 2.73145.73828 2.05371.76709 2.13379 1.00098 3.26562.66553-.44336.99609-.31348 1.2373-.21875l.01123.00879c.27979.23535.40088.4668.28662 1.0752 1.95508-.47363 1.95508-.47363 3.02588-.70996.32227-.82812.75391-1.29004 1.09424-1.59961-.18506-2.15234-.19238-2.23633-.49316-3.51855-1.29053.95508-2.06934-.21973-1.87451-1.46484.13574-.86914.55273-1.34375.73096-1.5459-1.01758-2.31543-1.03711-2.35938-1.76758-3.66504.06152-.05664.14014-.13477.19678-.19629 1.21289 2.31738 1.26025 2.4082 1.76953 3.67871.6543-.49219 1.03369-.33398 1.33789-.20703l.01416.00977c.31348.24316.55566.49121.59082 1.2666.67285-.16016 1.56934-.37402 2.24268-.52832l.06006.26953c-.69629.16211-1.62451.37793-2.31982.54395-.1001.67871-.32617 1.15918-.78076 1.6582.43164 2.22266.44824 2.30957.5 3.54004.4873-.30957.80127-.34277 1.08398-.11328l.00781.00879c.1084.14551.28906.38965.10742 1.10156.50146-.06543 1.1709-.15137 1.66748-.24902l-.04102.24805c-.52393.10059-1.22217.23633-1.74658.33789-.2583.56543-.85205.875-1.10254 1.44629-.43848 1-.47119 2.11719-.89941 3.12012.31738-.16406.46582-.21289.66455-.16406.04346.02734.10693.06445.13086.10938l.00146.00879c-.03613.44043-.22559.69824-.44531.99707.34717-.06445.81006-.15039 1.15625-.2168l-.13477.2041c-.36035.06738-.84033.1582-1.20117.22461l-3.58643 3.57715c.35645-.13867.39795-.13477.5542-.12109.00244.0293.00537.06641.00781.0957l-.00391.00586c-.15283.20605-.24463.33008-.8457.73438.24707-.03613.57617-.08398.82275-.12109l-.2002.14746c-.2583.03711-.60205.08691-.86084.12402-.625.37305-2.04297 1.09375-2.43213.93457.10156-.14062.15234-.21094.81543-.63379-1.14551.16016-1.29297.18164-1.95801.28027-.66748.38379-3.78369 1.84082-3.81006 1.85254l-.22314.05078c.65283-.2998 1.51807-.7168 2.14209-1.07227-.37744.11328-.45996.12012-.65918.13965-.00537-.04492-.01221-.10449-.01758-.14941a.04738.04738 0 0 1 .01025-.00977l.00146-.00195c.12012-.10645.13574-.11914.23584-.19043l.01855-.01367c.13867-.0957.15967-.11035.34229-.22852-1.3374.23535-1.38965.24414-2.13379.39941-.05908.0332-.13818.07812-.19727.11328l-.04443.02344-.0166.00781c-.4834.2627-.97021.45215-1.23193.55371-1.46045.77832-1.51758.80957-2.50928 1.11719.37891-.08105.41406-.08398.5835-.09863a.36728.36728 0 0 1 .00684.02344l-.00293.00195c-.40576.16699-.52832.21777-3.11719.58398l.05078-.00781c1.3335-.21289 2.99219-.47656 4.77344-1.54395-.44043.14062-.47363.14551-.65918.17188.06982-.16504.08398-.19824.5-.46191-1.15771.30859-1.20312.32031-1.78564.50488-.94678.59277-1.81543.86621-1.82422.86816.10889-.10352.10889-.10352.37207-.28906-.646.25098-.646.25098-1.00439.46094-.15479.11719-.26416.19141-.42285.29688l.05615-.05859c.51318-.55078.771-.9707.75244-1.73633-.16064.19922-.16064.19922-.34912.25879-.34961-.44238-.14258-1.27441-.13965-1.28223.1626-.50879-.72607-1.77344-1.00195-2.14844-.52879.95994-1.29051-.08205-1.49901-.73635m2.72217 5.13281c.2417-.22656.28418-.19141.30029-.17773h.00049c-.00488.0332-.01807.11914-.31006.36426.62061-.32715.64453-.33984 1.11572-.53027.625-.45117.80078-.57031 1.08057-.74414.66406-.98438.66406-.98438.82764-1.62891-.59766.44238-.71143.24316-.75391.16797l-.00293-.00781c-.03906-.12207-.0332-.24219.02344-.47852-1.04834.51172-1.08936.53223-1.57568.82617-.07178.37695-.2334.66895-.36621.87988-.08106.90332-.08203.91992-.33936 1.3291m12.70069-7.61621c.69775-.38574.91406-.19824.98535-.1377l.00293.00488c.22363.25879-.09717.74121-.21826.92285 1.35498-.26172 1.35498-.26172 2.48096-.46289.06787-.07812.13916-.1543.20996-.23047l.01953-.02344c.64111-.67188 1.02393-.92578 1.20801-1.04883.69043-1.89258.70361-1.92871.89893-3.0957-.59033.375-.98633.35547-1.17676-.05469l-.00635-.01758c-.03906-.125-.0498-.21289-.0459-.37402l.00098-.0127c.00977-.14453.02002-.23438.07129-.44043l.00635-.02441c-1.86914.42188-1.94238.43848-3.01855.70508-.29004.7832-1.01562 1.40234-1.04639 1.42773-.10792 1.81838-.11232 1.88967-.37208 2.86232m-2.45997 4.34278c.62695-.23535.73193-.15332.75684-.07031l-.00049.00195c-.00586.20117-.43408.50586-.68945.66992 1.21826-.17969 1.21826-.17969 1.96436-.28516.33594-.20605 1.00342-.60254 1.70264-.93164 1.45703-1.42383 1.51416-1.47852 2.18408-2.39648-.57373.28906-.83643.26172-.78027-.08203l.00488-.01465c.02002-.06152.02002-.06152.09375-.20801.09961-.19434.16895-.30566.30957-.49414-2.16357.38477-2.44775.44727-2.46924.45703-.00879.00293-.01416.0166-.02051.02344-.51807.60938-1.12305.96973-1.35107 1.10547-.94874 1.44922-.98585 1.50586-1.70509 2.22461m4.77344-.04102l-.49463.07617.41357-.17969.31396-.05078c.65283-.42578 1.35791-.76172 2.02832-1.15723-.01074.01465-.02979.04297-.07275.08691l-.00586.00586c-.17285.17969-.50537.44531-.98779.79199.11768-.03809.27539-.09082.3833-.15039l-.22119.16113c-.11377.05469-.27295.11426-.39404.15039-.9624.65039-1.78516 1.05664-1.94971 1.02734-.01171-.06346.13282-.19334.98682-.7617m-14.20996 4.94727c.17627.03906.17627.03906.34814.0332l-.13916.00781-.04785.00293c-.12549.00684-.29297.0127-.41895.01855l-.38184.00977-.05029.00195c-.13379-.00195-.13379-.00195-.39551.00586h-.00049l.11035-.00586.14551-.00781c-.0127-.00195-.0249-.00391-.03711-.00781.06836-.04785.17041-.12109.19092-.20117.03663.00195.03663.00195.67628.14258m-1.34521-1.0625l.12012.0332c1.06543.28613 1.06543.28613 1.07275.29102-.01709.01269-.39697-.03125-1.19287-.32422m1.46826.5957c.22803.06738.46045.12109.68457.20117.05859.02148.06494.02637.08838.04492l-.00488.01953c-.44336.19141-1.68555-.38965-2.23096-.85645l-.00537-.00488c.19238.125.43848.31055.646.40918-.15479-.10449-.17822-.13086-.18555-.13965.02783-.00195.02783-.00195.17041.0498.19775.07325.44189.16115.8374.27638m-11.3291-1.24805l-.12305-.03516c-.46484-.19043-1.08496-.44531-1.54248-.65234.08643.03516.17285.06836.26025.10156.42041.17969.9795.4209 1.40528.58594m31.52197-20.27929l-.06006-.26953.82715-.18848c.08105-.70117.32129-1.30664.71436-1.7998l.01318.05273c-1.06689 1.46484-.7915 3.59766.17725 3.43945.06885-.01172.15625-.04688.2207-.07227-.56982.30664-.84082-.13281-.95654-.32031l-.00293-.00781c-.14062-.30273-.1875-.55566-.18604-1.00293-.22412.05078-.52295.11816-.74707.16895m2.06103 4.72851c.00342-.00781.26709-1.53223.09229-3.74023.07959-.07129.07959-.07129.15137-.14648.09717 2.40332.09717 2.40332-.0791 3.73535.55371-.44238.68994-.11426.71191-.04395l.00391.01074c.05615.2627.07666.52051-.20117 1.24902.9248-.24707.98047-.26172 1.33301-.39648.17773-.39062.78369-1.68945 1.10938-1.98633.01611.01074.03711.02539.05322.03516-.07373.87109-1.76855 4.29004-3.3999 6.5957.02539-.03516.05859-.08008.0835-.11426-.29346.3877-.68457.90527-.97803 1.29395-.43359.50293-.99512 1.1875-1.44727 1.67383h-.00098c1.69873-1.95898 2.92627-3.375 4.26367-6.10156-.10986.1543-.13086.1709-.2002.22559-.01514-.00977-.03564-.02344-.05127-.0332.00146-.14551.03711-.36621.44873-1.32129-.73242.24414-.73242.24414-1.3291.39258-.68652 1.41602-1.67139 2.16992-1.87744 1.67773-.12793-.30469.09424-.92969.16699-1.13477-.20654.04102-.48242.09668-.68945.13867l.04102-.24805.75342-.15234.00391-.00781c.26024-.58887.77587-1.01368 1.03758-1.60157m-4.21142 7.85254l.13477-.2041.62793-.125c.40332-.45996.99658-1.08887 1.5293-1.47266.30566-.19922.41846-.20117.37842-.00293-.09229.45312-.81104 1.25684-1.0293 1.49219-.08154.08789-.19238.20312-.27832.28711l-3.36426 3.26562c.21094-.11426.25-.12207.30322-.13184.00146.01367.00244.03223.00391.0459-.44385.24707-1.03369.58105-1.4873.80957a11.6109 11.6109 0 0 0 .14258-.08984c.37354-.2373.37354-.2373.87598-.54297 1.68262-1.52539 1.74854-1.58398 2.57617-2.55469-.32812.21191-.38184.18457-.45605.14746-.03906-.11914.05225-.34082.62451-1.04004-.17433.03517-.40724.08204-.58156.11622m-4.45264 4.54297l.2002-.14746.21582-.0332-.41357.17969-.00245.00097m-15.0581 3.80762c.68896-.10254 1.60791-.23828 2.29541-.35156-.03662.00781-.08545.01855-.12207.02637 1.14355-.13184 1.16504-.13379 1.84375-.19727.17188-.03613.34375-.0752.51514-.11426l.06055-.01367c1.33691-.30273 1.33691-.30273 1.99658-.54883l.22314-.05078-.65137.24805c.25391-.0498.2959-.05371.2959-.05371.05713-.00781.12793-.01855.29102-.02441.00293.01465.00635.0332.00928.04688l-.00391.00195-.00488.00391-.00293.00586c-.28418.15527-.9292.31445-.95654.32129l-.03955.01074c1.10693-.0752 1.10693-.0752 1.71533-.1084 2.08301-.55176 2.30078-.61035 2.54492-.60352-.00146.01562-.00391.03613-.00537.05176-.6582.45312-3.3374 1.02734-3.85059.94629.07031-.06152.0791-.06934 1.04102-.32324-1.00098.05469-1.10547.06055-1.72266.10352-.08643.01953-.17334.03711-.26074.05664l-.05566.01074c-.78564.16309-2.83594.54199-4.8999.55566.19873.00098.39746-.00195.5957.00488a.27431.27431 0 0 0-.02881.00488h-.00684c-.10499.00195-.32325.0078-.81592-.00977m0 0c.43848.02246 1.02344.05566 1.46143.08301.80908.02051 1.61768-.04785 2.42627.00098.17676.00684.18408.00977.21436.02344-.03662.01562-.11279.04688-.75391.0752-1.12696.04393-2.0586-.05177-3.34815-.18263m0 0h.0127c2.16504-.0791 2.20654-.08008 3.3833-.2832-.11621.01367-.23291.02441-.34961.03516-.22656.01367-.22656.01367-.30078.01367.0083-.00977.0249-.01855.0376-.02246l.00391-.00293c.03662-.00781.07275-.0166.10889-.02539l.01514-.00293c.25977-.05371.51953-.1084.7793-.16406l.0415-.00879.01221-.00195c-1.21631.11523-2.42236.31055-3.63574.4502l-.10842.01268m0 0c.23291.02344.54346.05664.77637.08008-.1084-.00977-.2168-.02148-.32422-.0332-.1001-.01074-.19971-.01953-.29883-.03125.34326.01367.68604.0459 1.02979.05859-.35499-.02344-.82813-.05469-1.18311-.07422"/><path fill="#474747" d="M29.45459 57.72362c-.03174.07227-.09619.1709-.16943.2002-.01465-.0127-.03418-.0293-.04883-.04102.00293-.01758.00781-.04102.01123-.05859-.45361-.24023-.47119-.25-.52148-.49707-.08154.12012-.12598.11426-.1875.10645h-.00195c-.03223-.05371-.04541-.07617.0332-.22852-.396.21875-.41162.22852-.76855.30957l-.00195.00098c-.23438.13672-.5415.11816-.73438.34375.0166.01074.03906.02441.05615.03516-.31152-.02246-.72656-.05371-1.0376-.08203-.92871-.10156-.94678-.10254-1.43018-.17383-.30078-.04883-.70215-.11133-1.00195-.16602l.12549.01953c-.44531-.07422-.74561-.1416-.7583-.14453h-.00293c.06152-.00293.06152-.00293.29102.02148-1.30225-.2666-1.38037-.28223-2.16016-.49609-.74902-.16992-1.21777-.33789-2.47119-.78418l-.00977-.00293-.0332-.01367h-.00195c.13672.03809.27197.08301.4082.125a22.64074 22.64074 0 0 1-.20947-.08008l.12354.03516.29004.10742c1.521.45605 1.75488.52637 3.71143.62305.83691.09375 1.73633.14453 2.65088.14258l-.10107.00391c-1.67676.0498-4.53125-.29883-4.55615-.30273.68457.1748.69775.18066.80469.22656-.00635.00391-.01416.00977-.02051.01367h-.00049c-.07422-.00195-.07422-.00195-.15381-.01367l-.01318-.00098c-.10352-.0166-.125-.01953-.25244-.04395 1.37256.33887 1.39893.3457 2.14404.47656.67627.06445 1.3584.03613 2.03174.13379-.0498.06348-.0498.06348-.28369.08105 1.06201.05469 1.08203.05664 1.59082.03223.43213-.11328.83057-.34668 1.29053-.3584-.05078.07422-.05078.07422-.17041.16602.47705-.1377.50586-.14648.69287-.30078.17236-.28027.17236-.28027.20459-.32227-.03857.53125-.05762.79883.45117.98438.04489-.04103.08444-.07618.19089-.07716m-.604.22363l.33203-.00586-.10986.00586h-.22217m-1.02832-.01953c.00488.00098.01123.00098.01611.00195-.11816-.00586-.27588-.01172-.39453-.01758l.05664.00293c.10742.00489.21484.00977.32178.0127m-.76563-.16894c-.19629.02148-.39941.02051-.51709-.00098h-.00244c-.01074-.00293-.02441-.00879-.03418-.01367.00049-.00488.00146-.0127.00146-.01855.03369-.02051.06592-.03223.19141-.06738-.93066.00195-.98633.00195-1.61523-.05273-.18311.00391-.28564-.00195-.40479-.00879-.17236-.01074-.37793-.02637-.7124-.0752l-.01367-.00293-.1626-.02051c.25977.04199.60547.10156.86621.14062.95264.12793.95264.12793 1.43018.17383.27539.02344.64258.05566.91846.07422-.00928-.01367-.02197-.03223-.03174-.04688.02636-.02343.06054-.05664.08642-.08105"/><path fill="#474747" d="M1.32275 37.74706l-.04248-.13184-.01172-.03906-.23584-.89453c-.14844-.50684-.14844-.50684-.54053-2.25781C.06787 31.51268.02344 31.20897 0 29.04003c.13135-3.11621.13379-3.17578.41846-4.86719.63281-2.96826.64551-3.0249 1.19775-4.62207 1.07227-2.71533 1.11377-2.82129 1.9209-4.30957l.07129-.12842.00391-.00684-.00635.0166-.00049.00146-.07568.16602-.00732.01562c-.04102.08789-.09473.20557-.13574.29346 1.04053-1.5542 1.06055-1.5835 1.80615-2.42822.33203-.63623 1.93848-3.06787 1.94727-3.07812l.8623-.94189-.01417.01513c-.9834 1.0376-1.37109 1.58008-1.66162 2.32227.51709-.60303.62207-.66162.90332-.81787.07129.25488.07129.25488-.00781.42041l-.00293.01172c-1.09473 2.48438-1.09473 2.48438-.67285 3.61426 1.1748-1.42383 1.52441-.73389 1.63916-.50732 1.1333-.66162 2.23779-1.37061 3.36523-2.04199.16602-1.40137 1.72412-2.41455 2.44873-2.33984 1.0542.17578.84326 1.2959.04346 2.23291 1.37646 1.35254 1.37646 1.35254 2.35303 2.20801.69678-.62988 1.42578-.84424 2.16699-.63721l.00977.00146c.21289.08496.27002.10742.46338.25l.02295.01953c.18652.18457.23047.22803.29736.36084 2.7373-1.16748 2.7373-1.16748 4.29785-1.76807-.41602-1.6543 1.81299-2.74268 3.08643-1.92139.16455.10596.33984.30615.46387.45752a1611.36327 1611.36327 0 0 1 1.64209-.54785l.22168.17627-1.74951.5835c.10547.31836.10547.31836.06738.66309-.04541.29297-.07812.50439-.40674.94336l1.09326.91406-.20117.19043-1.08643-.9126c-.73145.55957-1.38721.55469-1.71289.50244l-.02198-.00294c-.6665-.13623-.8252-.25-1.21338-.67773-2.38525.74414-2.38525.74414-4.38086 1.62305.16797.62939.04834 1.1416-.41455 1.76855 1.81006 1.55762 2.18701 1.88184 3.21436 2.78955.35791-.35254.59863-.49463 1.07324-.6333-.49023.56201-1.14062 1.31445-1.63623 1.87207.07715-.46436.12158-.58545.36865-.99512-1.92041-1.68506-1.92041-1.68506-3.22607-2.80713-.75195.67188-1.40576.72119-1.72803.69092l-.02344-.00293c-.59131-.07568-.86475-.22705-1.1709-.64795-2.39209 1.06787-2.39209 1.06787-4.06494 2.11475l.00098.0083c.13428.65967.03076 1.21777-.35693 1.92627 1.66455 1.59961 1.87891 1.80566 2.91357 2.72461.73438-.86816 1.41211-.84766 1.77637-.83643l.01416.00146.06055.021c.0918.01562.21484.0376.3042.06396l.01074.00537c.52783.29004.66357.40234.9082.75098.86328-.44824 2.01465-1.04639 2.88574-1.47852l-.47314.56689c-.68457.35156-1.60059.81396-2.27979 1.17578.37793 1.07764.04492 1.55957-.55859 2.43506-.61377.56396-.94336.58936-1.47314.58496l-.01367-.00098-.01465.00049-.05664.00293-.05664-.01367-.02148-.00195-.02783-.00977c-.24414-.05469-.71826-.22412-1.14453-.73975-2.17676 1.25342-2.17676 1.25342-3.56396 2.34375.27686.68164.29932 1.28223.07568 2.0083.73145.60449 1.70898 1.40918 2.44922 2.00391l-.12061.24707c-.73535-.5918-1.71387-1.38477-2.43994-1.98828-.43896.77441-.86328.82129-1.17285.85547h-.01955c-.31006-.03125-.69629-.07227-1.15723-.75781-1.55762 1.63867-1.55762 1.63867-2.25684 2.59766l.00488.00684c.31055.65918.42627 1.21875.39893 1.93066 1.78711 1.48633 1.78711 1.48633 2.93896 2.36523.27441-1.16113 1.19629-.8418 1.23535-.82715l.00781.00098c.32861.13281.4165.18945.72119.46875-.19824.92383-.43164 2.16406-.5542 3.10156-.5415-.29492-.94922-.76172-1.2124-1.38477-.5-1.18555-.5-1.18555-3.16943-3.4668-.10107.47949-.25391.81445-.66748.89355l-.01221.00098c-.33545-.02148-.58838-.13477-.96094-.67285-.68896 1.62793-.71631 1.69238-.92383 2.62207.35693.55957.3042 1.29004.75488 1.81055.00391.00391.86182.79102 2.59326 2.05664-.15088-1.19336.69678-.89062 1.10645-.57031 1.0874.85254 1.854 2.82031 1.20654 3.09766-.38474.16408-1.2114-.43163-1.76853-1.27538-.59717-.90234-.59717-.90234-3.08789-3.0625.0791.57617.04004.67969-.16113.87305l-.00684.00391-.03662.00586h-.00098l-.00391-.00098c-.3125-.11426-.33789-.12402-.68652-.55176l-.02539-.03027.05713.90332-.13721-.13867-.06494-.97852-.125-.21094-.02441-.04883-.0083-.01465c-.31152-.56055-.45996-1.0791-.54883-1.38965-1.05811-1.28418-1.12158-1.36133-1.55371-2.1123.07812.4541.13037.79004.08057.96777l-.00195.00098c-.14697-.16504-.14697-.16504-.29883-.59863.06542.25196.15283.58692.21874.83887m-.98046-13.1084c.07666-.48682.13135-.73877.16748-.76904l.01904.03076.00146.00439c.0166.23779.00684.43213.00049.57422.646-1.80078.6582-1.83545 1.21338-2.83301.0835-.81201.34521-1.49316.45752-1.78418-.01807-1.30029-.01855-1.35107.1709-2.06885-.36865.79541-.41943.88428-.44336.92725l-.00146.00293.00488-.03125-.31641.85889C.74805 22.38378.71387 22.49462.41846 24.17284l-.0791.48438c.00097-.00538.00195-.01319.00293-.01856m1.97216-5.04199c.42871-.92285.81738-1.24072.96729-.79248.0835.25.10107 1.09277-.42969 2.4917.65771 1.46289.65771 1.46289 1.19189 2.29395.32227-.68848.62305-.97607 1.03809-.99219l.00781-.00049.02393.01172c.22314.04834.50439.16699.70557.66113 1.7876-1.67969 1.82178-1.71143 2.98633-2.61377-.30322-1.86328 1.59082-3.51318 2.604-2.73145.19531.15039.27441.30811.35742.47461 2.43604-1.45557 2.48242-1.4834 3.98486-2.25-.18701-.80078.26807-1.41992.43945-1.65283-1.55957-1.41357-1.65283-1.49805-2.35547-2.22461-.65088.57861-1.12939.68115-1.47363.70605h-.00977c-.65723.00635-.75635-.44141-.79346-.60986-2.15625 1.34473-2.24023 1.39746-3.34912 2.21533-.0083.5835-.25244 1.21436-.74707 1.92822-.88867 1.16895-1.58105 1.11279-1.71338.39062l-.00732-.02002c-.01318-.3286-.03515-.8784.63428-1.92723-.35938-1.20898-.37354-1.25635-.38135-1.896-.51025.62793-.7417.76855-.87158.81982l-.00342.00098a88.90745 88.90745 0 0 0-.08594.00488c-.05517-.08105-.08837-.13037.06837-.5205-1.56592 1.91113-1.56592 1.91113-2.61377 4.1792-.23096 1.25244-.24023 1.30127-.17432 2.05322M.54102 34.59374c-.13623-.79199-.11523-.94531-.10107-1.0459.31006.19238.75 2.30371.83496 2.72559.85986 1.33398.87646 1.35938 1.54785 2.11719-.08691-.66309-.09424-1.2832.50684-.85645.15918.11328.28662.2832.37109.39551l.00635.00977c.45996-1.62891.47803-1.69336.92578-2.625-.8335-1.6582-.30029-3.40234.63086-3.02441.30957.12598.51611.4248.63965.60254 1.28564-1.63184 1.33594-1.69531 2.25732-2.61719-.37354-.87012-.18262-1.60645-.11084-1.88379-1.59619-1.57568-1.69189-1.66992-2.41943-2.51855-.70459 1.55762-1.53223.83057-1.75879.26465-.01123-.02832-.02393-.06689-.03418-.0957-1.7627 2.54736-1.75049 2.64404-1.67139 3.27295l.00879.04541c.02002.25635.0542.51123.06494.76758.01709.51855-.0166.81543-.03662.99219-.12402.89355-.42627 1.25293-.73486.87305-.23682-.29199-.32422-.7041-.38818-1.00391-.08154-.5332-.12842-.90527-.09082-1.56543l.00146-.06348c-.58008-1.48877-.59131-1.51758-.71436-2.3457-.11719.85059-.14941.9375-.20117 1.02783-.02734-.0708-.05127-.13232-.02295-.69189l-.00684.11621L0 29.04003c.11865 3.0918.12354 3.21191.43018 5.04004.0332.15429.07763.35937.11084.51367m.47851-5.51904c.23145-1.5166.66602-1.02686.71533-.96631.10645.13281.26514.4873.2666.49023l.00439.01953.00244.00391c.97559-1.7627 1.01367-1.83154 1.76367-2.83545-.16748-.88037.0708-1.63818.16016-1.92383-.88574-1.51221-.90234-1.54102-1.19287-2.29932-.37646.83301-.62988.93066-.71338.96289l-.00487.00294c-.25439.04395-.29053-.30273-.2915-.64746-.84521 1.69434-.93359 1.87109-1.21338 2.8335-.19336.66357-.11768 1.354-.20117 2.02881.32665 1.48925.33251 1.51757.70458 2.33056m7.13086-.95899c.23828-.52246.70312-1.10205 1.56689-.89453l.02588.00732c.16602.06299.26367.1123.4375.25488l.0127.01172c.12207.10596.21191.2002.34082.39307l.01465.02588c2.06982-1.54932 2.15088-1.60986 3.50391-2.4668-.28516-.79785-.05371-1.42969.18018-1.8916-1.94336-1.76855-1.94336-1.76855-2.91455-2.72656-.61914.7959-1.19141.8335-1.40674.84766h-.01075c-.69531.01611-.94434-.57617-1.02588-.77148-1.96191 1.60303-2.03857 1.66553-2.99756 2.62402.0835.35889.22217.95947-.13477 2.07227 1.45704 1.60985 1.45704 1.60985 2.40772 2.51415m4.05078-22.57373l.32324-.23877.21777-.14844-.32958.23877c.12109-.08398.73584-.50684.91162-.57373a.15232.15232 0 0 0 .01562.00732c-.09473.14648-2.6377 2.23535-2.90234 2.23047.00049-.03906.08838-.29638 1.76367-1.51562m4.71973-2.5874c.29199-.17188.67236-.42041.979-.56445l.0127-.00537.15186-.06152c-.28613.14209-.66602.34033-.92676.5249.57422-.27295 1.02051-.43652 1.08496-.39795h.00195a.30426.30426 0 0 0 .01074.02197c-.02783.05127-.03516.06494-.15527.16748.46143-.16943 1.0752-.3999 1.54004-.55957l-.02051.04883c-.48828.17627-1.14062.40723-1.625.59375-.82422.62598-2.38965 1.50244-2.60107 1.33008-.01416-.18067.01513-.19825 1.54736-1.09815m6.02783 53.20557l-.6582-.10156-.21777-.06445.64355.10547c-.45117-.12891-.51562-.17383-.59668-.23047.10303-.02148.10303-.02148.20117-.01367l.00732.00195c.20947.02539.39404.05859.85889.1543-.9248-.42871-.97998-.4541-1.43457-.75977-1.60156-.52051-3.17188-1.12891-4.76416-1.6748l-.17773-.12402c2.00439.67578 2.00439.67578 3.07959 1.00684-.27686-.16992-.33301-.22754-.40381-.32715.01367-.02148.03223-.05078.04639-.07129.35938-.01074 1.33691.35645 2.90479 1.09277.32275.15137 3.29297.91406 3.32275.92188-.3335-.125-.38525-.16602-.43994-.20996.12598-.01758.17285-.02441 1.2124.30664.82617.2627 1.5166.47559 2.25488.62598-1.38672-.24805-1.75928-.31445-6.01904-1.4873.29736.14551.3291.1709.40674.23242-.0166.0127-.03613.03516-.05615.04004l-.00587-.001c-.1748-.01465-.40234-.04688-1.09082-.24707.85938.49805.87549.50781 1.44141.73242.90039.18945 1.80859.34082 2.70801.53613-.17725.05371-.88038.02051-3.22315-.44433M14.2417 50.8535l.18994.51758-.32812-.36523-.1001-.30273c-.30713-.20605-.57227-.38281-1.53809-2.03125.42041-.0918 1.09131.40332 1.11963.42383l.01953.01172c.89795.61328 1.49023 1.33398 1.49609 1.34082.03027.03711.05957.09863.09961.12305.03271.01953 1.34863.64648 3.25488 1.5127-.26172-.34961-.22559-.54199.09668-.51367.73926.06445 2.84863 1.64746 2.82129 2.11719-.25391.1543-1.14014-.30469-1.40576-.44922-.50537-.27344-.87695-.73242-1.3833-1.00488-1.05566-.56934-2.17969-.9873-3.26172-1.49707.31885.47656.15234.54688.0249.54688h-.00879c-.34081.00778-.87011-.29886-1.09667-.42972m17.57178-40.40283c.62012-.64111 1.46338-1.48047 2.11865-2.08545.08105.06836.18506.16406.25977.23926 1.48242-.30371 1.48242-.30371 3.3916-.77979-.28711-.45947-.30176-.68604-.22607-1.05127-.29297-.23926-.68359-.55908-.97705-.79883l.10547-.1123 1.00439.68799c.52539-.44727 1.19287-.22754 1.54443-.05713l.0083.00293c.21289.10449.25732.12598.47461.26855l.02588.02002c.16602.12354.21094.15723.38477.32275 1.50146-.34277 1.50146-.34277 2.35889-.53027l-.13867-.16211-.021-.03223-.01074-.0127c-.30908-.39648-.3457-.604-.37744-.7876-2.09229-1.33252-2.09229-1.33252-3.25098-1.97949-.08691.06543-.22412.12793-.33154.14648.06006-.17432.14893-.40381.19922-.58154.10498.15137.10498.15137 3.39844 2.31104.50049-.58838 1.92578.61963 1.93896.63281.83887-.18604.92676-.20557 1.22656-.28076-.89648-.75977-.98682-.94336-1.05908-1.09082.17773.02295.39893.05176 1.45947.81348a17.06216 17.06216 0 0 0 .08887-.10889c.93555.70361 2.15332 1.68213 3.03955 2.44678.79443.78857 1.83154 1.86328 2.57324 2.70117l.03125.0708c.90186 1.10059 1.04785 1.44189 1.11768 1.60596-.55225-.1582-2.11572-2.35303-2.13037-2.375-.26807-.39404-1.50635-1.63574-3.31299-3.0498-.04395.03369-.10254.07861-.14697.1123-.07324-.03369-.17334-.07373-.24414-.11328l-.01172-.00586c-.36426-.21143-.63574-.39014-1.19531-.83496-.65283.15479-.65283.15479-1.24707.28467 1.36963 1.26416 2.64209 2.62891 4.01025 3.89453.02686-.04785.06299-.11182.08984-.16016 1.62988-.27344 2.50098 2.95898 2.45508 3.00098-.60889.55518-2.41064-1.58984-2.52734-2.48975-.0625-.48193-3.17871-2.89551-3.31104-2.99805-.14062.15576-.24268.26855-.84229.0752l-.01611-.00537-.08496-.0332-.00196-.00146-.00586-.00244c-.59766-.33301-.82129-.45752-1.14307-.77734l-.03808-.03028c-1.08691.23975-1.53662.33887-2.37109.53174.37891.50391.41455.75195.35303 1.15234 1.09277.97607 2.2124 1.92188 3.3042 2.89941.99365-1.03125 2.97119.96924 2.95166 2.19775-.00146.08545-.02637.19873-.0376.28369.99219 1.20166 2.01562 2.37695 2.97705 3.604.74512-.90479 1.81982.46289 2.05957 1.021l.01465.02344c.0459.09668.10645.22656.14551.32617.20557.52686-.03906 1.09912.16455 1.62598.56445 1.4585 1.45605 2.75488 2.0835 4.18213.66992-.89893 1.3584.34375 1.51904 1.55957.21631 1.63525-.36963 2.65332-.98145 2.24902-.74951-.49463-1.00732-2.45557-.73193-3.31299.22119-.6875-2.01123-4.32812-2.03369-4.36475-.2168.24463-.46094.43896-1.06006.12744l-.0166-.01172c-.36816-.25781-.6792-.51855-1.05469-1.30859-1.84473.4873-1.99561.52734-3.0791.82617.29492.94531.0918 1.49268-.14502 1.90283 1.60938 2.39746 1.70557 2.54102 2.48926 3.93555 1.19873-1.12744 2.31396.48584 2.23193 1.99463-.03857.71338-.33154 1.14453-.44189 1.30664.94043 2.48047.97754 2.57715 1.3252 3.97461.93604-.80664 1.54297.08789 1.42139 1.36621-.14844 1.56348-1.32471 2.78223-1.9668 2.03711-.42383-.49219-.4873-2.02832.38184-3.22168-.71484-2.49219-.72852-2.53906-1.32324-3.97363-.59229.50684-1.0708.28857-1.24902.17041l-.01611-.01123c-.34473-.25439-.625-.51416-.83398-1.33252-.75439.20166-1.76025.47119-2.51416.67627l-.15625-.27148c.78613-.21387 1.83447-.49854 2.62109-.7085-.05225-.62695-.01074-1.17383.36475-1.80469-1.4541-2.44922-1.51074-2.54492-2.49268-3.94287-.55713.51221-1.00244.38525-1.43262.26221l-.01953-.0083c-.43311-.22021-.77051-.43506-1.16309-1.19824-.78271.19824-1.82715.46191-2.59863.70215l-.21631-.26318c.7998-.24707 1.86621-.57568 2.66846-.81543-.19141-.71875-.15039-1.23193.1416-1.771-1.99854-2.26025-1.99854-2.26025-3.21533-3.47949-.14453.12109-.48291.40479-1.01709.35938-.28467-.00879-.34961-.021-.51367-.05811l-.02344-.0083c-.21582-.07812-.77441-.32715-1.29004-.95166-.76367.17627-1.78809.39697-2.53564.63232l-.24023-.22363c.76953-.23828 1.79492-.55713 2.56689-.78809-.22998-.62744-.11572-.98877.04248-1.48877-1.82764-1.70361-1.82764-1.70361-3.32031-2.90527-.58594.44336-1.11426.38232-1.53906.33398l-.02295-.00586c-.27738-.06835-.49662-.12255-.82767-.34374m6.75879-8.19043c-.39307-.22461-.39307-.22461-.69385-.48047.13037-.0459 1.22705.40527 1.36963.47021l.00684.00293c.03613-.00879.08398-.02051.12012-.0293.00244-.00391.00537-.00928.00781-.01318l.01172.00488.21924.08691c-.03467.02832-.09717.03857-.14062.04883.15479.07227.15479.07227.37256.18115l.03711.02051c.18652.09766.29736.16113.44043.25146.41748.27246.36426.33057.29541.34082-.28369.04248-1.56982-.60107-1.95166-.8335-.03127-.01707-.06349-.03367-.09474-.05125m-.86524 10.86377c.32617-.32227.92432-.61279 1.91992-.16504l.03027.01709c.11133.05908.14648.08545.34033.23291.27344.21338.40723.34814.57275.57764 2.13281-.56982 2.13281-.56982 3.3042-.86523-.36816-.71729-.31152-1.12158-.20801-1.42236-2.12207-1.84814-2.12207-1.84814-3.3584-2.81543-.34912.35059-.8667.27783-1.2251.19238l-.01219-.00342c-.69434-.18945-1.1377-.6167-1.33984-.85449-1.96973.50391-2.13086.54541-3.32666.87451.42871.74023.07275 1.24609-.04395 1.4126 2.02832 1.66064 2.19385 1.79589 3.34668 2.81884m6.18994 6.05322c.33252-.35059.91846-.65039 1.82373-.08691l.02881.02002c.18896.13916.29395.2373.45117.42188l.01074.01367c.13037.16553.20557.26953.32861.50879l.01465.02832c1.97266-.53564 1.97266-.53564 3.08496-.82568-.14697-.43457-.22998-1.11426-.08447-1.6543-1.83301-2.23828-1.86816-2.28125-3.02539-3.49658-.34033.40186-.83887.28809-1.18457.16699l-.01221-.00342c-.53516-.22949-.91455-.54932-1.31055-1.10449-1.88281.48438-2.12451.54639-3.30713.86914.04199.09326.0459.10303.104.28418l.01562.03027c.07275.28857.20752.82568-.14844 1.36572 2.01955 2.08448 2.14016 2.20899 3.21047 3.4624m5.86475-9.71289c-.06445-.11816-.06494-.13037-.06689-.1709.06152.00342.09521.00488.43652.3418l.01611.01562c.24463.25.42578.44922.71875.78955l-.03125-.06885c-.69922-.76025-1.64355-1.7627-2.38623-2.47998-.82471-.70947-1.94678-1.63086-2.81445-2.2876-.00098.02002-.00146.04639-.00244.06641-.02686.01465-.0625.03418-.08936.04883.77832.59326 1.03955.92334 1.12549 1.03174 1.95166 1.59961 2.06885 1.69532 3.09375 2.71338M23.96387 56.97167c-3.39404-.23145-6.55273-1.20312-9.33643-2.78418-1.97168-1.20898-2.38184-1.45996-4.11328-2.83008-1.97852-1.75293-2.18506-1.93652-3.43506-3.3418l-.92773-1.12109c-.38916-.54492-.89209-1.28516-1.23291-1.86328-.58984-.79883-1.59375-2.48438-1.6001-2.49707l-.15088-.29004c.19092.3125.43408.73828.64941 1.03418-.31006-.59863-.33594-.74316-.36328-.89648.02441-.00684.05762-.01465.08252-.02148l.00146.00098c.11914.09863.11914.09863.17773.16406l.0132.01561c.08936.10449.11377.13281.23779.29492-.10352-.46094-.25146-1.07617-.31689-1.54297l.13721.13867c.08545.48047.19482 1.12402.32129 1.5957 1.5625 2.20117 1.5625 2.20117 3.24316 3.36621-.2876-.53027-.25146-.6084-.16357-.7998.84961-.00586 2.25293 1.94141 2.26611 1.96094.13184.19336 1.16943.79004 3.08447 1.77344-.22607-.37109-.19873-.4502-.14404-.6084.37207.52051.86768 1.21582 1.25146 1.72754-1.19482-.94531-1.19482-.94531-3.96973-2.55078.21973.38477.21729.46875.21289.60742-.02686.02539-.05518.07812-.0918.08203l-.00635.00195c-.2002-.00098-.40283-.07422-.90186-.45312.57227 1.25.5835 1.27344 1.05127 1.94434.08887.06738.17627.13477.26514.20215l.02393.01855c1.78857 1.34277 1.78857 1.34277 3.9375 2.21289-.29541-.24707-.33545-.31152-.43164-.46582.01709-.03027.03955-.07031.05664-.10059.05078.00293.11914.00293.16846.01367l.00195-.00098c.13428.03711.16211.04395.34912.11719l.02539.01172c.16016.06836.20801.08887.41992.19238-.21436-.37207-.48438-.87988-.65283-1.27441l.32812.36523c.16113.31543.37744.73633.56836 1.03516.61572.32715 1.14111.81152 1.81055 1.04688l.17773.12402-.14355-.0498c.37598.27344.37939.29688.39648.42578-.01025.00391-.02393.00781-.03418.01172h-.00586c-.18896-.0127-.32617-.02148-.9165-.25391.78027.72266.78027.72266 1.44678 1.15039l.0083.00293c2.17725.75098 2.17725.75098 4.33301 1.12988l.21777.06445c-.75146-.12988-1.75293-.30859-2.50146-.45508.45215.17383.48486.19727.59229.27148-.00488.00586-.01221.01562-.01758.02148l-.00342.00195c-.16895 0-.29102 0-.91504-.15039 1.21143.51074 1.23438.52051 1.95752.74902.87256.14551 1.75195.24316 2.61914.41895-.02392-.00095-.04052.03909-.0581.05569M1.32275 37.74706l.06348.2041-.10596-.33594.04248.13184M20.7998 56.52929c-.11426-.03516-.18311-.05664-.27344-.09766-.01611-.00684-.0376-.0166-.05371-.02344.08105-.04883.08105-.04883.69482.0498-3.84863-1.36426-4.35547-1.62598-4.53564-1.86426.09668-.03516.13672-.05078.84912.18262-.66211-.4707-1.24707-1.04883-1.97852-1.42285-.59619-.30664-.97998-.57812-1.14404-.69434-1.74902-.72754-1.854-.77148-2.73438-1.20801.25049.22949.37842.35254.46484.49316.0127.02539.02734.06152.02637.09082l-.00049.00195c-.20898-.00977-.5874-.24414-.72998-.33203 1.53955 1.40039 1.53955 1.40039 3.65674 2.57422.70654.39258.7334.41797.79785.47852-.14404.00488-.93506-.38184-2.11816-1.10742l-.01172-.00684.91797.54395c1.89796 1.07813 3.96974 1.87306 6.17237 2.34181M13.5 53.51268c-.30762-.19434-.55811-.3584-.74463-.4873-.03906-.02734-.07812-.05469-.11621-.08398.0542.00977.0542.00977.46436.24512-1.23779-.95508-1.31201-1.0127-1.92383-1.61621-.44727-.30469-.95557-.70898-1.39551-1.1123-1.16797-.8291-1.2373-.87793-1.7334-1.38184.07471.07812.1499.15625.22559.23242.66113.625 1.54443 1.45898 2.23779 2.04883.87305.66992 2.06006 1.5332 2.97363 2.14746-.00341-.00294.00879.00487.01221.0078m-3.90332-3.23339c-.39111-.38477-.5752-.625-.5459-.71191.02295-.00684.05664-.00293.07959.00098l.00977.00293c.04834.02051.0498.02148.16016.08301.15625.08594.27881.16602.43701.27734-.74414-1.19727-.77295-1.24414-1.05225-1.96484-.69092-.60547-1.0498-1.13477-1.20312-1.35938-1.44434-1.04688-1.53076-1.10938-2.2085-1.72168.32568.60449.34326.74902.31738.80957h-.00146c-.03955.01074-.12256.03125-.52783-.47754.37695.61621.91211 1.41797 1.34424 1.99609l.63184.75488c.36719.42188.646.71875.83057.91602.97508.89062.99364.9082 1.7285 1.39453"/><path fill="#474747" d="M19.59955 2.12938l.02002-.04932 1.18701-.38184c.35352-.22949 1.39551-.68652 1.40332-.68945 1.23633-.27197 1.49365-.32812 2.80518-.5249.3501-.04248.81689-.09766 1.16797-.1333l.01855.01172c.08154-.01074.16309-.02148.24512-.0293.37305-.03662.45068-.04395 2.13721-.10596l.50293-.00049c.19189.00343.44824.00636.64014.01222h-.00098c.82715.11523.93311.12988 1.59619.30518.09033-.03271.2417-.08789.76367.00537l.00488.00098c.12207.02393.15479.03027.29639.06445l.01709.00488c.10596.02881.14551.04004.26855.08105.6836-.05127.6836-.05127.93311-.05127-.29053-.06934-.37793-.08545-.53662-.11523.00244 0 .00488.00049.00732.00049.39697.06396.92578.15234 1.32129.22607l.08301.0166c.01416.00293 2.59814.74805 3.43359 1.06641l.21191.14697c-.04443-.02979-.104-.06885-.14844-.09863-1.90381-.68701-1.94043-.7002-2.94189-.96191-.13037.02246-.13037.02246-.32275-.01514l-.01025-.00195C33.58246.6748 33.58246.6748 32.80366.74999c.3916.17041.40674.24414.43359.37793 1.56934.61719 1.66309.65381 2.66064 1.11963.37207-.38281 1.82764.27979 2.39893.854-.05322.19531-.0874.47021-.18115.64941-.14941-.00537-.14941-.00537-.44824-.06348l-.01563-.00439c-.36426-.11084-.68115-.22314-1.16602-.56641-1.23828.24951-1.42871.2876-2.26807.47217.06006.08252.12793.15918.18066.24756l.00781.02832c.07666.18945.14307.35254-.02148.63818.63232.4043 1.47559.94434 2.10107 1.35938l-.10547.1123c-.62695-.4126-1.46289-.96338-2.09668-1.36523-.12891.09229-.12891.09229-.2207.13037-.3457.11035-.3457.11035-.96436.06787l-.01756-.00341-.02246-.00391-.05127-.00635c-.65723-.16553-.97803-.49463-1.03564-.55859l-.02881-.02148c-1.86523.4707-2.01758.50879-3.15918.8252.47998 1.05176-1.00244 1.88623-2.18604 1.52197-1.10156-.33838-1.15088-1.42236-.08936-1.96533.53271-.27246 1.55273-.41797 2.1792.29688 2.04492-.55078 2.04492-.55078 3.14453-.81982-.02051-.03906-.04834-.09229-.07422-.12842l-.00488-.02637c-.12988-.28271-.0127-.50342.03711-.59814-1.27002-.82227-1.27002-.82227-2.33447-1.38867-.40234.20557-.79102.21191-1.04639.18164l-.01465-.00195c-.41162-.06201-.51318-.1123-.7373-.2832-1.54395.28857-1.54395.28857-2.87891.65137.0166.53174-.78223.99463-1.03857 1.06885-.80078.23145-1.16699.29199-1.57129-.05225-.13818-.13721-.25-.44775.55371-.99121-.58984-.56104-.6377-.60693-.76807-.83594-.46289.17871-.77344.26318-1.07227.2915h-.00879c-.07031-.00098-.16406-.02197-.22754-.05078.00977-.03027.02295-.0708.0332-.10059-.3242.09617-.75584.22459-1.07909.32078m2.41065-.95459c.95068-.29248 1.08154-.22168 1.125-.19824-.06396.18506-.71729.49121-.99512.61426.35547.4624.35547.4624.75977.81494.15381-.07422.19482-.09131.33594-.14453.33301-.10303 1.21777-.37695 1.51367.12012 1.83643-.47754 1.83643-.47754 2.80762-.69727-.20459-.62109 1.19922-.92627 1.88037-.56055.04102.02197.0918.05664.12939.0835 1.30957-.23096 1.30957-.23096 1.94482-.32178-.26367-.17725-.23584-.26514-.22119-.31299-1.18701-.29053-1.18701-.29053-2.14453-.31787h-.00488c-.08398-.00342-.08398-.00342-.43555-.02783-1.09082.04395-1.09082.04395-2.08252.34277-.10352.0293-.13867.03809-.2334.06006-.46436.08105-.78076.12549-.93896.00928-.00391-.01465-.0083-.03418-.01221-.04834.04395-.03809.14648-.12646.63428-.2085l-.01855-.01904c-.31201.03467-.72803.08057-1.03906.12109-1.10449.16895-1.40137.21436-2.64697.48779-.11036.05518-.27003.11622-.35792.20313m9.91016 1.97412c.06689-.04932.10742-.0791.229-.12988.19434-.05322.19434-.05322.49316-.08838.17871.00879.23291.01172.39844.04297l.0459.00537c.07275.021.14551.03955.21826.06006l.02197.00732c.17725.06641.39795.14893.7251.38574l.01904.01904.0083.00586c1.48291-.31348 1.48291-.31348 2.25146-.46289-.45264-.38867-.45312-.59814-.45361-.67725-1.77393-.8042-1.77393-.8042-2.6709-1.14404-.11865.09229-.34082.11279-.69873.06445l-.00684-.00049c-.12598-.021-.50879-.08496-.88574-.29053-1.10205.17334-1.21729.19141-1.97119.3335.21143.25977.06934.44482-.07764.57666 1.31349.70265 1.48194.79298 2.35402 1.29249m-2.85206 7.51075l-.22168-.17627c.70557-.22363 1.64551-.52344 2.35303-.73975-.53369-1.19141.75049-2.20801 2.14697-1.69971.29053.10596.46826.23535.58545.32129-.66016.6084-1.5415 1.41797-2.20459 2.02295-.18555-.14795-.28564-.25342-.41162-.43457-.67431.21045-1.5747.48877-2.24756.70606M10.8144 40.18944c.12109-.93945.32422-2.1875.53271-3.11133.03369.03516.07861.08398.11182.12109 1.3501-1.19922 1.85547-1.64844 2.68262-2.28711-.32764-.64062-.38818-1.16797-.20898-1.81836-.25391-.20117-.59277-.4668-.84668-.66699l.12061-.24805.83301.6582c.83936-1.52441 2.77832-.81543 3.18359.75879.1748.67871-.00732 1.18359-.08545 1.39941 2.13525 1.64941 2.35889 1.82129 3.5083 2.75293.90234-1.38184 2.72998-.58008 3.0249.93457.28076 1.44238-.89404 2.68945-2.24219 1.81738-.57031-.36914-1.27979-1.34375-.89648-2.51562-1.95703-1.55273-1.95703-1.55273-3.51562-2.74414-.35352.54199-.46436.56445-1.3252.73828l-.02148-.00293c-.7627-.05566-1.18652-.58496-1.36768-.80957-1.77832 1.44922-1.8125 1.47656-2.63379 2.31055.89453 1.40234.56055 3.05664-.56738 2.81055-.03321-.0078-.15138-.03515-.28663-.09765m6.26025-14.20996l.45264-.61182c-.04932.09863-.0625.12305-.11865.21777 1.97803 1.66602 2.44824 2.06201 3.47412 2.94189 1.18066-1.4541 3.20312-.56885 3.38867 1.04785.20459 1.78613-1.70166 2.94336-3.04443 1.84766-.13184-.1084-1.26758-1.09668-.51123-2.63965-1.96875-1.67188-1.96875-1.67188-3.50439-2.95801-.04151.04933-.07716.09132-.13673.15431m4.83692-4.56592l-2.01953.97559.47412-.56689 1.42822-.68506c-.23535-.76318-.23535-.76318 1.63037-2.74707 1.85303-.25342 2.93408 1.54297 1.89648 3.15088 2.05176 1.92676 2.31543 2.17432 3.43115 3.26367.33301-.33301.33301-.33301 1.30762-.61914.83594-.03662 1.45703.31494 1.89844 1.07471 2.72754-.99854 2.72754-.99854 4.29297-1.53369-.48584-1.96631 1.31152-3.16748 2.6709-2.29248.46631.30029.67041.6875.79248.91895.36719-.1167.85693-.27197 1.22461-.38867l.21631.26318-1.32471.41893.00342.01074c.30664 1.06836-.12109 1.69287-.30371 1.95947 1.78662 2.26514 1.89355 2.40088 2.79248 3.69971.83496-.73828 1.51758-.42578 1.9585-.12598l.0083.0083c.32959.28271.49121.53271.64062.99072.28369-.0791.66211-.18457.9458-.26367l.15625.27197-1.03857.2876c.24316 1.93652-1.49756 3.05859-2.60107 2.13672-.74756-.62402-1.04883-1.95215-.25879-3.09326-1.67334-2.31787-1.70508-2.3623-2.79639-3.7002-.69238.58691-1.3335.49268-1.6543.38428l-.0249-.00684c-.74902-.25342-1.06738-.7207-1.30029-1.1875-2.58057.89795-2.7915.97119-4.2793 1.52686.59229 1.91602-1.27197 3.28418-2.75146 2.53857-.80371-.40527-1.60254-1.65039-.76465-3.03809-2.09424-2.01514-2.09424-2.01514-3.44043-3.26758-.68066.64453-1.26807.6626-1.76562.62842l-.0249-.00488c-.91896-.14598-1.27052-.73631-1.42042-.98827m8.17871-5.53369c-.66406-.58008-1.54834-1.35352-2.21826-1.92578l.20068-.19043c.6626.56934 1.54639 1.32715 2.20166 1.9043.30322-.28076.30322-.28076 1.26953-.52393.79102-.03369 1.4292.29639 1.896.98193.44189-.14307 1.03174-.33398 1.47363-.47754l.24023.22363-1.58057.51074c.7085 1.79639-1.15723 3.05566-2.68994 2.31543-.81542-.39403-1.63134-1.562-.79296-2.81835"/><path fill="#474747" d="M44.36768 19.58545c-.50537-1.65723-2.26465-2.29834-2.85205-1.04004-.05811.12451-.53564 1.24951.52979 2.49072-1.23486 2.2168-1.23486 2.2168-2.15771 3.54688-.771-.59668-1.45508-.4165-1.64648-.34717l-.02344.00732c-.77539.25781-1.02783.88818-1.13574 1.15723-2.59912-.86475-2.7002-.89844-4.1333-1.43115.23291-.88379-.09961-1.50049-.36914-1.88721 1.61475-1.98291 1.71143-2.10156 2.49756-3.21826 1.23633 1.0874 2.63574.18311 2.50146-1.19482-.07227-.73926-.48145-1.19775-.65625-1.39355.94775-1.88135 1.0249-2.03516 1.36523-3.04932 1.06641.78271 1.89111.23291 1.70557-.73438-.11963-.62256-.60449-1.30615-1.23584-1.74219-1.12695-.72656-1.70703-.07568-1.45361.96973.17188.70947.63135 1.18018.78223 1.33447-.73096 1.86816-.74463 1.90381-1.36377 3.03809-.63623-.49902-1.07568-.41064-1.39697-.34619l-.01611.00537c-.54736.20312-.73828.62354-.85352 1.0083-2.1792-.8208-2.26416-.85254-3.42822-1.35107.2998-1.50635-.99316-2.7998-2.06494-2.06543-.5166.354-1.02734 1.38672-.48193 2.479-.53369.57178-1.24512 1.33545-1.79199 1.89453l.146.20459c.53809-.56348 1.25732-1.31445 1.78174-1.8916.45996.56104 1.07764.69873 1.69482.37793l.00635-.00439c.31494-.19678.47559-.38672.63574-.75293 2.08936.86279 2.1709.896 3.45801 1.36377-.06494.7876.20508 1.27344.47803 1.64453-1.47852 2-1.50684 2.03857-2.50049 3.21338-.62109-.58008-1.13477-.52002-1.54736-.47217l-.02002.00537c-.33691.0874-.56006.21484-.82324.4707.7627.84814 1.78955 1.97021 2.57129 2.80127.13184-.16211.18164-.23438.2793-.43457 2.54395.91797 2.64307.95361 4.15576 1.44238-.13867.82666.23096 1.46387.40918 1.76953-.27197.34863-.63428.8125-.90576 1.16064l.21387.20703.92285-1.10693c1.28662 1.13525 2.69336.10059 2.8916-.69238L40.5498 27c.27246-.7959.12158-1.5415-.44775-2.21631 1.4585-2.2207 1.51562-2.30762 2.15234-3.55176 1.25293.979 2.37988.0874 2.19922-1.25537-.01611-.11914-.05078-.27636-.08593-.39111m2.86767 31.68506c.54834-.49902 1.31299-1.12891 1.85254-1.6377l.08789-.10156c-.54932.49805-1.27783 1.16797-1.84717 1.64355.02637-.04199.06152-.09668.08789-.13965-.08301.03711-.19385.08496-.27002.13281l-.01172.00879c-.26611.17871-.49658.3457-1.08496.80762-.25781-.07324-.51221-.15723-.771-.22656l.00586-.00586c.31006-.28711 3.96924-3.86133 4.00098-3.89258.01807.05078.04199.11816.06006.16992.19043.03125.19043.03125.4668-.14648l.00684-.00488.04004-.03418c.05176-.04004.12061-.0918.17041-.13477l.00732-.00684c.23389-.22266.40234-.38379.38574-1.86035-.06982.08203-.16211.19238-.22949.27637-.74414-.10449-.74414-.10449-1.81689-.37598.51074-.82227.45752-1.21484.41553-1.5293.25977-.29492.60596-.68945.86621-.98633l-.0708-.14648-.86084.98242c-.28271-.33008-.55762-.30176-1.03174-.11914l-.01953.00879c-.33398.17969-.68018.36621-1.2041 1.05176-1.44482-.26465-1.44482-.26465-3.10205-.66211l.00586-.00781c.43506-.8623.23926-1.27637.06641-1.6416 2.04102-2.11719 2.16357-2.24316 3.22314-3.53223.16455.16699.21729.21484.45264.31738-.22949-.30371-.53564-.70996-.76514-1.0127.0293.11914.07764.27539.12109.39062-1.71387 2.20898-1.71387 2.20898-3.17725 3.66602-.54102-.45801-1.06006-.3418-1.51807-.24023l-.02197.00781c-.51855.20312-.95312.41309-1.43311 1.10742-2.44531-.64844-2.5918-.6875-4.04688-1.11914.20264-.39648.40918-1.0127-.1377-1.80273 2.11523-2.06836 2.28809-2.23633 3.44678-3.49023 1.40137 1.26074 3.36475-.1582 3.30225-1.88672-.01367-.37793-.01367-.37793-1.4082-1.73828-1.83398-.20117-3.07715 1.83789-2.07812 3.40918-2.15576 2.2666-2.15576 2.2666-3.45166 3.50293-.18799-.15039-.76123-.60938-1.7334-.41016l-.02686.00586-.12158.03125-.00195.00098-.00879.00195c-.84766.41309-.84766.41309-1.26514.9873l-.03613.04297-1.54541-.53613-.24414.22363 1.6626.57812c-.01904.07422-.04395.17383-.07373.24414l-.00098.05078-.00439.01758c-.09766.4209-.09766.4209.28223 1.33008-2.12744 1.83203-2.12744 1.83203-3.39111 2.86914-.69141-.53418-1.34473-.51367-1.67188-.45312l-.02393.00195c-.51172.11816-.93359.25586-1.3125.83984-.37744-.14062-.87988-.32812-1.25732-.46875l-.21436.17969 1.36816.50879c-.13574.46387-.13916.88574.28418 1.44141-.92725.73828-1.85547 1.47559-2.7793 2.21777-.6582-.46191-1.12207-.4668-1.53223-.4707l-.01953.00195c-.51465.0791-.73193.19922-.96973.53711-.2998-.08887-.7002-.20703-1-.29688l-.15234.13672 1.05762.4209c-.04785.48926.13086.78516.50049 1.19043-1.17236 1.03516-1.24268 1.09766-1.72217 1.58594-.67871-.4043-.85791-.41602-1.45215-.45215.73975.5498 1.74609 1.25781 2.52539 1.75098 1.98633.66797 1.98633.66797 2.98877.96582.12695.75391 1.6084 1.37012 2.40234.80371.42188.08105.42188.08105 2.61475.53809-.04102.11035-.03809.2832.00342.39355-.36035.21289-.86133.4668-1.25342.61426l.09668.0293c.40381-.14453.93701-.34961 1.33496-.50879.14795.05762.49365.19336 1.07275.0752l.00342-.00098c.08984-.02246.2085-.05469.29639-.08496l.01758-.00684c.07129-.03125.16602-.07422.23389-.11133 1.1792.17969 1.1792.17969 1.73193.24023-.80029.41992-1.6626.54688-2.24463.58008l.13867-.00781c.51855-.05859 1.20605-.16602 1.71826-.26562.43359.04883.95654-.07031 1.31885-.17773l.01514-.00391c.61768-.1875 3.68262-1.52344 3.71191-1.53711.91992.75781 1.64404-.46582 2.5127-.27637-.42236.20996-.84814.41113-1.26562.63184.08984-.02539.20801-.06348.29541-.09473 2.49072-.91895 5.05469-2.52637 5.78125-2.99609-.03662.03613-.08447.08594-.12109.12305.2417-.11816.2417-.11816.45264-.25488l.00488-.00391c.13037-.08594.25977-.17383.38818-.26172l.0249-.01758c.13867-.09668.27686-.19531.41406-.29297l-.03223.03125.22119-.16113.03369-.03516c.62989-.47363.76222-.59277 1.25489-1.0371m-17.33447 6.6582l.4082-.0166h-.00439c-.13867.00391-.27734.00586-.41553.01172l-.0083.00098c-.12012.00488-.23975.01074-.35986.01465.11377-.00294.26611-.00587.37988-.01075m16.26367-7.40137c-.03613-.20996-.23193-.22559-.65381-.05273l-.00928.00488c-.36768.15918-.79248.45215-1.26172.87109-1.07959-.2334-1.07959-.2334-2.0293-.43164.22266-.24902.6377-.71191.46875-1.25488 2.13818-1.7168 2.22168-1.78516 3.32324-2.79785.23779.36426.68408.34961 1.32666-.04492l.0249-.01562c.16699-.11719.26562-.19336.44336-.3623l.01367-.01367c.1333-.13086.229-.23242.38037-.42383l.01855-.02539c1.18896.30859 1.26074.32617 1.73975.47168-.44971.6582-.58252 1.03027-.64795 1.28223-1.93113 1.8203-1.96776 1.85545-3.13719 2.79295m-3.56543-.98535c-.58447-.64551-2.02344.17285-2.63135.79102-1.9209-.41699-2.07764-.45117-3.25977-.74023.05713-.11328.13477-.21582.17041-.33887l.01758-.03418c.06055-.29199.06543-.31543.04834-.53027-.2876-1.50781-2.54297-1.08496-3.25098.02148-.06641.10352-.11572.21582-.17627.32227-.18213.54297.03125.87891.12256 1.02246l.01562.03613c-1.95996 1.38867-1.95996 1.38867-3.06494 2.13867-1.44531-.90332-2.56738.31836-2.57764.33203-2.17578-.66797-2.30566-.70801-3.57422-1.14062.12061-.46582.00049-.83594-.41553-1.28125.92334-.73438 1.84863-1.46582 2.77246-2.19922 1.39355 1.15527 3.36377.11914 3.18604-1.27539-.04785-.375-.24609-.63379-.35205-.77344 2.01855-1.66992 2.22949-1.8457 3.38281-2.85156 1.74561 1.27246 2.99951-.30469 3.13672-.48926l.00635-.01172c2.56934.7373 2.61865.75098 4.0249 1.11035-.2998.68945-.25293 1.23633.14258 1.67383.78125.68164 2.05029.35938 2.89014-.7334 1.01807.24219 2.03613.4834 3.0542.72559-.39941.71191-.38867 1.10742-.32568 1.40039-2.12695 1.88281-2.12695 1.88281-3.34228 2.82519m-1.17236 5.43653c.01807-.01562.0415-.03516.05957-.05078-.10596-.01953-.10596-.01953-.30127.05566l-.00684.00293c-.2832.11328-.58057.25195-1.18018.54688-.40674-.08203-.40674-.08203-.83398-.1543.93457-.55859.95166-.87695.74268-.94727-.1792-.05957-.74316-.00488-1.71924.57812l-.02588.01367c-.50586.33008-.76758.53809-.88721.8291-1.92334.81543-1.92334.81543-2.92432 1.15723-.07129-.04883-.16016-.10938-.63379-.03418l-.0083.00098c-.41504.07422-.72314.18945-.96924.29297-.99414-.12695-1.0752-.13672-1.7583-.25098.28809-.24512.20996-.41016.0957-.53906 1.46387-.70605 1.6167-.78027 2.58398-1.29102.83691.64551 2.83984-.44727 2.72949-1.22949-.00684-.05078-.03564-.11523-.05811-.16113 1.95801-1.17871 2.20947-1.3291 3.28711-2.04688.26758.26465.59619.2959 1.17188.1123l.01123-.00391.03809-.01758c.24707-.09375.73145-.3125 1.19971-.73438 1.25977.2627 1.48633.31055 2.01025.42578-.3125.31836-.69092.76562-.72021 1.08496.07129.41113.93164-.03418 1.74463-.68652.21436.06445.49854.15625.70605.24023-.29883.38086-.72461.61328-1.08643.92188-2.04002 1.26174-2.07908 1.28518-3.26707 1.88479m-5.1792-1.2793c-.31299-.26465-.7959-.2168-1.13135-.1582l-.01221.00195c-.71094.15234-1.07568.4707-1.23145.60742-1.75928-.4043-1.90283-.4375-3.00098-.7207.23389-.39258.19824-.72656-.11621-1.08008 1.77246-1.21094 2.00049-1.36621 3.0376-2.10742 1.19873.86914 2.40381-.10938 2.74463-.42969l.00977-.01562.00537-.00391c2.0293.47656 2.0293.47656 3.25293.73438-.46777.62109-.32617.97754-.27295 1.11133-2.14257 1.38573-2.14257 1.38573-3.28515 2.06054m-5.25928 2.71289c-.32178-.18359-.70605-.17188-.96777-.14746l-.00928.00098c-.37988.04785-.6626.16016-.86475.34082-1.51758-.33496-1.6416-.3623-2.59424-.60449.11377-.37012-.22314-.64258-.3667-.75879.71582-.47559 1.43262-.94922 2.1499-1.42285.30566.2002.70801.38867 1.37646.27734.09619-.02344.19385-.04492.28955-.07227l.02393-.00684c.13721-.04883.48291-.19043.73242-.44238 1.91748.47754 1.9541.48633 2.98389.71289-.32275.40039-.25586.64453-.16162.81055-1.71923.89648-1.71923.89648-2.59179 1.3125m-4.95557-1.26953c-.49658-.2793-.92725-.30078-1.20752-.29199l-.00879.00098c-.58105.04004-.69629.29199-.73975.38672-1.87549-.58398-2.02832-.63184-3.14795-1.02637-.06592-.47461-.54834-.85645-.72998-1.00098.98486-.94238.98486-.94238 1.70605-1.55859.38818.28613 1.01465.58789 1.79785.40625l.02393-.00684c.14844-.0498.23242-.08594.36963-.18262l.01172-.00684c.10693-.08594.16455-.1416.24512-.2627l.00732-.01465c2.30078.75977 2.30078.75977 3.56641 1.13379-.13574.36719-.05859.66211.25684.98535-1.10254.73341-1.65625 1.10255-2.15088 1.43849m-15.87402-9.63867c-.69434-.78906-1.6123-1.85059-2.27637-2.66602.03907 1.28516 1.44483 2.75977 2.27637 2.66602m7.17188 7.38086l.06592-.0957c-.79883-.35547-1.86084-.83496-2.6499-1.21094-.37598-1.125-2.42627-2.52148-2.77637-1.89258-.37598.67578 1.88574 2.70508 2.65918 2.38672.17334-.07129.15918-.24609.15088-.35156.76122.35741 1.77929.82812 2.55029 1.16406m-.43067 2.02636l-.02979-.06348c-.71875-.32324-1.67236-.76758-2.37939-1.11719-.81396-.72461-2.33398-1.80859-2.6001-1.72266-.11621.29688 2.30908 1.92871 2.33398 1.94531.10156.06055.20361.12012.30615.17871-.24609-.16797-.58057-.38477-.80566-.58008.27637.1709.93262.56738 1.06982.53516v-.00098c.00391-.03711.00635-.05957-.18799-.24805.68312.33205 1.59865.76565 2.29298 1.07326m34.51612-7.81738l.97803-1.29492.00391-.00488c.01172-.01855.02783-.04199.03955-.06152-.0542.05469-.0542.05469-.1499.16699l-.0083.01074c-.16846.20312-.3042.37402-.87549 1.09082-.16113-.20117-.16406-.20508-.43457-.33105.10107-.1377.16553-.23047.25391-.36523.2168-.33008.29053-.72949.50635-1.06055.76514-1.17188 1.69434-2.22852 2.42383-3.42676-.00732.13867-.00732.13867.04688.24902.50732-.08398 1.83643-3.27148 1.5459-3.70703-.45703.0459-1.3877 2.38379-1.5459 3.17773-.08203.41016-1.67139 2.60352-2.46777 3.58984-.0127-.26172-.0127-.26172-.52539-.03906l-.00635.00391-.00879.00586-.0293.01758-.03467.0293-.01221.00879-.01855.0166c-.31592.25684-.67383.66992-.67432.67188-.16162.45898-.04639 1.13672-.13281 1.61621.20508-.20801.32227-.33887.50146-.55859.37793.21094.39258.21973.43115.3291-.92773 1.16016-.92773 1.16016-2.04688 2.30273l-.08789.10156 1.0332-1.04883c-.05078.06055-.10156.12207-.15234.18262.43505-.50099 1.03954-1.14942 1.44726-1.67286m5.23144-15.70703c.0083-.34961-.00732-1.00293-.20215-1.45068-.25537-.51318-.60254-.3208-.86377.479-.31934.97754-.31006 2.24707-.18066 2.78809.10791.4502-1.47559 3.65234-1.75879 4.17969-.25684-.4375-.56201-.26172-.83154-.10645l-.01367.01172c-.51318.3877-.80615 1.04102-.93164 1.32031-1.46436-.41309-1.46436-.41309-2.61914-.72656.51611-1.56348-.37158-2.83789-1.55762-2.23633-.58154.2959-1.22656 1.06836-1.35693 2.12988-.07129.57812-.07129.57812.88379 1.72949.15479.02344.62646.09668 1.15283-.34082l.0083-.00586c.34326-.29102.53369-.53906.75391-.98633 1.66748.45508 1.88184.51367 2.62256.72461-.22803.69922-.28027 1.15625-.1875 1.63477-.58203.77344-1.36279 1.80273-1.97803 2.54883l.0708.14648c.60059-.74902 1.39844-1.75098 1.96533-2.52539.42383.83594 1.50684-.25 1.94971-1.64355.15625-.49121-.04004-1.0127.13086-1.50293.48438-1.38965 1.2998-2.63281 1.79346-4.01855.32422.71973.70068.06348.87207-.43652.06005-.17579.2578-.81837.27782-1.7129M41.479 33.35938l1.3501 1.31738c-.1001-.38184-.26514-.66504-.53613-.91992-.25-.21778-.48535-.33301-.81397-.39746m-6.90869-2.11915c.65039-.72168 1.5166-1.68359 2.15137-2.41846l-.21387-.20703c-.63818.72559-1.48926 1.69189-2.1416 2.40479-.77783-.64746-1.47803-.54492-1.74365-.4707l-.02588.00488c-.52393.16797-.95752.35645-1.37012 1.11133-2.69922-1.06641-2.80469-1.1084-4.27979-1.75244.02979-.10693.06689-.25.0918-.35791l.00537-.03271c.12695-.73633-.14502-1.27002-.27588-1.52686 1.0459-1.10059 2.11377-2.18018 3.16113-3.2793.8833.88184 1.76904.56689 2.10938.39062l.00635-.00342c.22705-.13916.27393-.16846.47412-.36963l.02539-.02881c-.76611-.84717-1.78516-1.97803-2.54639-2.8291-.1748.20166-.20605.23779-.35449.50244-2.22656-.9082-2.22656-.9082-3.71484-1.64893l.00244-.0083c.24463-.67236.22266-1.20166-.07715-1.82568.29443-.29248.68604-.68164.98047-.97412l-.146-.20459-.97266.96289c-.51611-.61084-1.04199-.61279-1.31006-.55908l-.021.00293c-.50537.12988-.83496.30322-1.23242.89258-1.89111-1.15039-1.96484-1.19531-2.91553-1.86816.87354-1.5918.05518-2.89404-1.12354-2.45752-.01416.00537-1.42432.54785-1.48047 2.33447-1.57568 1.36426-1.57568 1.36426-3.33398 2.67725-.1875-.44434-.41699-.7251-.98291-.75195l-.01807.00195c-.45654.05859-.79492.19238-1.27344.73389-1.24658-1.43359-1.29541-1.48926-1.83936-2.31299.98779-1.3042 1.05127-2.79834.11475-2.71045-.79004.07471-1.71582 1.18604-1.95508 2.05664-.0376.13672-.08496.30762-1.9751 1.6792-.58838 1.17871-1.10889 2.39502-1.55469 3.64209.36572.65186.87256 1.51172 1.28857 2.13281-.30371.61816-.39746 1.15088-.32422 1.83887-1.52637 1.43994-1.65088 1.55762-2.37842 2.37061-.01807-.05859-.04199-.13721-.06006-.19629-.21191.99463-.31982 2.12451-.36426 3.26221l.03613-.02832c.68018-.83984.54199-2.20801.45117-2.75684 1.40771-1.49609 1.40771-1.49609 2.37061-2.375.31836.97412.86768 1.05176 1.27246.94531l.00732-.00098c.26123-.11768.26123-.11768.40967-.23926l.02295-.02002c.20361-.20068.20361-.20068.32861-.37646 1.64111 1.62744 1.67236 1.65869 2.76172 2.56055-.7168 1.94238.80225 3.45801 1.9585 3.00098.12793-.05078.45996-.21973.77441-.69727 2.25 1.49023 2.29297 1.51953 3.69482 2.33887-.59473 1.99023 1.30273 3.54004 2.69141 2.73047.36084-.20996.55029-.51074.65234-.67285 2.56396 1.27246 2.71729 1.34863 4.23535 2.02539-.20361.67773-.12988 1.20508.25488 1.81738-1.83105 1.64258-1.83105 1.64258-3.19678 2.84961-.12305-.1084-.30908-.27148-.3667-.28613-.52832-.26953-.52832-.26953-1.3042-.34082l-.02295.00391-.02637.00293-.06543-.00098c-.68896.14746-.94971.49609-1.09961.7832l-.02686.03418c-2.48486-1.23828-2.63379-1.3125-3.99463-2.08008.38086-1.85645-1.42578-3.44531-2.60254-2.75977-1.26123.7334-.59033 3.15039 1.01123 3.64062.83008.25488 1.25049-.27539 1.42969-.50195.70361.31641.70361.31641 4.07227 1.93555l-.04004.22363.00586.04883c-.01709.45215.00732.49902.41699 1.29004-1.02393.97168-2.22412 2.11133-2.41455 2.29785-.7251-.59277-1.25635-.65723-1.50879-.6416l-.01807.00195c-.53223.05664-.62744.17383-.82373.5-2.09229-.97363-2.09229-.97363-3.625-1.9375-.07373-1.77344-1.90283-3.15234-2.57617-2.58789-.12549.10449-.18994.33496-.23242.49219.65479.87305 1.5459 2.02539 2.27588 2.83496.31494-.09277.3877-.14551.51318-.53809 2.2002 1.32812 2.24219 1.35352 3.58203 2.05957.10645 1.68066 2.30273 2.67871 2.99121 1.9834.04785-.04883.09375-.13086.13379-.18555.83643.30664 1.9502.72168 2.77344 1.0625l.15234-.13672c-.854-.35938-1.99072-.8418-2.83691-1.21875l-.00049-.00684c.02539-.54395-.13672-.94629-.59814-1.48145 1.41113-1.3457 1.41113-1.3457 2.42334-2.25684.22266.20215.26953.23145.44482.33789.37207.18652.41553.19922.76953.28613.25781.02734.25781.02734.5708.01074l.01221-.00098a15.78088 15.78088 0 0 1 .28809-.07812l.00977-.00195c.43555-.24023.43555-.24023.76904-.63281l.00879-.01172c.83496.33887 1.94727.79102 2.7876 1.11523l.21436-.17969c-.87207-.34277-2.03516-.80176-2.90186-1.16016.02734-.14648.05811-.29199.08105-.43945l-.01074-.05469c-.02295-.3457-.03906-.5957-.39941-1.15039 1.13623-1.07812 1.13623-1.07812 3.146-2.89062.88574.8623 1.79395.67383 2.25684.48438l.00879-.00586c.24902-.12109.30078-.14648.53223-.33105l.02734-.02441c.1665-.16699.21094-.21289.36279-.44238.80518.30371 1.87842.71289 2.68799 1.00488l.24414-.22363c-.84131-.30957-1.96387-.72168-2.80029-1.04395.31299-.8916.04199-1.48633-.26416-1.95117 2.0918-2.01562 2.31055-2.22656 3.42529-3.34375 1.45703 1.38281 3.53369.09375 3.44238-1.63965-.03168-.59667-.28901-.95995-.44282-1.17675m-8.02588-3.54687c-.34131-.35547-.56592-.47412-1.09229-.57764-.2793-.03711-.32031-.03711-.51514-.021l-.01514.00049c-.00879.00146-.8916.17773-1.39697.99414-2.41699-1.24463-2.51123-1.29297-3.78174-2.03076.7832-1.79053-.56201-3.30273-1.93457-2.76855-.75244.29297-1.64404 1.39355-1.16699 2.82617-1.7959 1.50488-2.33789 1.95947-3.30371 2.78662-.35986-.55371-.74902-.79736-1.30029-.81494l-.0127-.00098c-.74707.03467-1.10693.57959-1.26074.8125-1.80811-1.57178-1.87891-1.6333-2.74707-2.54492.45312-.91064.34229-1.6748.30078-1.9624 1.89502-1.51514 1.89502-1.51514 3.14258-2.46729.4458 1.34912 1.93652.98438 2.61035-.28027.28271-.53125.38135-1.10449.29248-1.70508 1.64893-1.23779 2.40088-1.80322 3.34619-2.52344.17969.43945.38525.57471.70117.67041.39502.11963 1.00439.09375 1.66699-.70605 1.73926 1.17676 1.80713 1.22266 2.94189 1.88574-.37842.90332-.16602 1.55225.07861 1.93701.72266.98926 1.98535.88818 2.70312-.21582 2.24072 1.07715 2.32812 1.11914 3.71338 1.71094-.26416.93262.08789 1.53076.23828 1.78662-1.97263 2.01953-1.97263 2.01953-3.20847 3.2085m1.40381 9.47266c-.71729-.69727-1.45996-.61523-1.73975-.58398l-.01416.00195c-.8374.12891-1.25488.69727-1.4292 1.02441-2.65674-1.22363-2.76074-1.27246-4.23047-2.02246.25-.64844.18262-1.32812-.20068-2.01953 1.40479-1.27637 2.51465-2.28516 3.37988-3.08008.31445.38086 1.01172.95898 2.14746.55664l.03369-.01562c.12549-.0625.14307-.07422.35254-.22949.30566-.22656.43604-.38867.56982-.6084 2.66699 1.13281 2.71826 1.1543 4.29443 1.76074-.25098.87012-.00586 1.43359.26709 1.87012-2.08739 2.06054-2.08739 2.06054-3.43065 3.3457m-7.79297-3.84766c-.63037-.75-1.35547-.72266-1.59375-.71484h-.01465c-.76904.0957-1.12061.52148-1.36328.9248-2.36475-1.42773-2.45654-1.4834-3.68115-2.3252.15234-.36816.15332-.4834.15625-.79102.0127-.25.03369-.6709-.18262-1.22852l-.00732-.02197c1.83838-1.56689 1.83838-1.56689 3.29443-2.78906.25.40918.52588.61621.98389.73926.31445.09619 1.12402.21094 1.84863-.79395 2.32715 1.30859 2.37158 1.3335 3.80078 2.04785-.15918.43506-.17529 1.18311.14551 1.87256-1.45361 1.32618-1.45361 1.32618-3.38672 3.08009m-11.8999-9.18701c-.24902-.7998-.72803-.86426-.88525-.88525l-.00977-.00244c-.41406-.01025-.77783.21582-1.1123.69092-.41943-.64551-.95898-1.52051-1.32275-2.19873.37305-1.01074.79492-2.00146 1.26221-2.96729.61279-.44238 1.43066-1.03174 2.05127-1.46289-.00928.38672.09229 1.01318.88086.85791l.02393-.00635c.32617-.10986.5332-.24854.85254-.56934 1.04297 1.44727 1.0835 1.50342 1.85547 2.33447-.53027.81885-.46826 1.49316-.44482 1.74756-1.90481 1.46192-2.14992 1.64942-3.15139 2.46143"/><path fill="#474747" d="M28.85059 57.94727h.22217-.00049c-.29248-.00781-.68262-.01953-.9751-.03711l.00293-.01855-.00049-.00195c-.02637-.03418-.05322-.06934-.25146-.13965a2.13697 2.13697 0 0 1 .07324-.02441l-.09668-.0293-.07129.02441c-.26709-.07227-.47266-.08496-.52881-.08789-.10596-.00684-.10596-.00684-.22852-.00977l-.00928.00098c-.12402.00293-.229.09277-.35645.0791-.72705-.08203-1.07324-.13672-2.12354-.35938-.47559-.44141-2.00391-.94141-2.16357-.63086.10498.2832 1.29639.75586 1.30811.75977.30029.05078.70068.12109 1.00195.16602.95264.12793.95264.12793 1.43018.17383.31104.02734.72607.06055 1.0376.08203l.04297-.00098c.1499.0127.1499.0127.67432.03613h.04345l.00195.00098h.07715c.29688-.00684.59327.0166.88966.0166m-7.92579-3.61719l.14404.05078c-.79785-.50879-1.85352-1.19922-2.63574-1.73047-.35107.10547-.3457.36328-.34521.36621-.00537.01465-.01367.03223-.02051.04492-.20117-.08203-.46973-.19043-.6709-.27246l-.06592.09668.75977.31738c.11914.38184.49219.68945.8042.91504-.39014.69922-.40527.72656-.43311 1.04785-.63232-.32031-.88818-.36621-1.09375-.40332l-.0083-.00098c-.28613-.02637-.18262.13281-.125.20312.01514.01953.03809.04199.05469.05957-.12549-.05273-.29297-.12402-.41846-.17676l.0293.06348.49463.20801c.12988.10547.25732.19141.47021.32031.21729.13086.4541.22461.67383.35254.12305.07129.25146.2168.35938.30957.14941.12891.40918.21289.59375.28125-.40674-.14062-.7998-.28711-.81641-.29395.31006.11035.72363.25781 1.03369.36816l-.00439-.00098c-.71533-.31543-.74365-.32812-.95703-.56934.23291.10156 1.00391.42285 1.15186.32617.00146-.19531-.77588-.68262-1.23486-.93945.1499-.60547.15283-.61719.42676-1.02734.72607.42188 1.14404.44922 1.32812.42773a.36255.36255 0 0 1 .04443-.00977c.14111-.02633.40429-.07614.46093-.33395m6.07715 3.55664c-.27588-.02148-.64307-.04883-.91846-.07422-.92871-.10156-.94678-.10254-1.43018-.17383-.25977-.04199-.60693-.0957-.86621-.14062-.10693-.04102-.25977-.10547-.32568-.19727.32227.08984.52197.12695.68896.1543.17676.03125.46191.06641.39062-.06934.69336.13379 1.39307.23145 2.08594.36816.06445.01367.11279.06152.17432.08008.08008.02539.26074.04883.26221.04883l-.06152.00391"/><g transform="translate(0 .627)"><defs><filter id="a" width="54.3" height="53.364" x="0" y=".197" filterUnits="userSpaceOnUse"><feColorMatrix values="1 0 0 0 0 0 1 0 0 0 0 0 1 0 0 0 0 0 1 0"/></filter></defs><mask id="b" width="54.3" height="53.364" x="0" y=".197" maskUnits="userSpaceOnUse"><g filter="url(#a)"><path fill="#FFF" d="M0 .197V53.56h54.3V.197z"/></g></mask><g mask="url(#b)"><path fill="#474747" d="M25.5376.50079l.19873.0083.60693-.02686c.79395.04443 1.36914.09375 1.98389.1709.2168.02832.29834.04102.46143.06592-.01562-.00293-.03613-.00732-.05176-.01025-2-.38037-3.87402-.46777-4.81299-.48633.08691-.00879.17285-.01709.25977-.02588-.1709.01709-.39844.04004-.56934.05713.24219-.02539 1.11084.00391 2.24268.10693-.33301-.00293-.53516.00977-.60205.0376.00244.00195.00586.00488.0083.00684l.00049.00098c.1123.0249.19922.03027.83398.06348-.16797.00927-.39209.02197-.56006.03124M2.45801 28.46124l-.27881-1.58398c-.02002 1.18555-.86084 2.02832-1.27295 3.05029-.15576-.8584-.27197-.9834-.38379-1.10352-.02832.00537-.06543.01318-.09326.01904l-.00195.00244c-.05518.09229-.05518.09229-.09766.21094l-.00439.021c-.01465.06738-.04541.20752-.05859.36475-.25195-1.84082-.26172-1.9126-.19873-2.9668.09277-1.29395.18848-2.63184.91357-4.07373-.06885.59912-.04395.89648.0835.99414l.00537.00293c.15234-.03271.23633-.05078.50586-.62646.10254.46533.2207 1.09131.35742 1.54834l-.01514-.62744-.24512-1.15528c.29883-.76758.29883-.76758.5708-2.74268-.02051-.2041-.02051-.2041-.10449-.32422-.14893.02002-.22412.03027-.47998.53613.25928-1.71289.26416-1.74561.60205-2.69385.87207-1.91504.87207-1.91504 1.75684-2.95752l.11182-.22852c-.30518.37988-.71191.8877-.98145 1.29395.25439-.52686.35352-.7251.44141-.90088-.01611.02832-.03711.06592-.05322.09375-1.2998 2.60498-1.35059 2.70654-1.9209 4.30957C.74757 21.75664.71388 21.86748.41847 23.5457.0249 26.55548.00928 26.67267 0 28.4129c.1167 3.03223.12598 3.2793.4917 5.38379-.05322-.5332-.09766-1.24902-.07422-1.78516.14844.76855.27637.95117.37109 1.02441l.00488.00098c.14111-.06641.1792-.08398.24414-.5791.10693.2002.25.46582.35693.66504l.05811-.16211-.39257-.81835c.02295-.64453-.29443-1.26953-.10742-1.92285.00195-.00879.32324-.96045 1.31982-2.3208.04785.1914.09277.37255.18555.56249m4.24756-18.3872c.42285-.41016.90088-1.03809 1.28516-1.48535.29395-.3418.73682-.75049 1.05273-1.07227-.50977.42578-.90479.8584-1.95948 2.01367l-.00634.00684c-.42236.48633-.54346.65479-.54834.67822l-.00098.00244c.02051.00147.02734.00244.17725-.14355M.29834 24.30743c.01221-.08301.02832-.19434.04102-.27734l.0791-.48438c.6333-2.96826.64551-3.0249 1.19775-4.62207l.31641-.85889c.02051-.05127.0752-.1875.23242-.53662-.49463 1.66553-.51367 1.73047-.60352 2.69873-.34863.84277-.48779 1.61377-.54004 1.9043-.57519 1.34961-.59716 1.40186-.72314 2.17627m.13184 9.14551C.03271 30.47247.00879 30.29474 0 28.4129l.04541-1.57324c0 .02783.15283 3.69531.32373 4.89062-.0083.51661-.00146 1.20899.06104 1.72266M12.52441 4.67609l.21631-.14453.20605-.1377-.20459.13379-.21777.14844m5.0293-2.75879a1.12987 1.12987 0 0 0-.03516.01611c.54639-.21094 1.27051-.50391 1.82422-.69287-.41016.13184-.45898.1499-1.27832.45557l-.15185.06152-.0127.00537.31104-.11865c-.34278.13476-.55908.229-.65723.27295M21.39844.63116l-.65479.18457.48926-.12549.28564-.07715-.12011.01807m17.99609.95704l-.01172-.00488-.02295-.00439c-.70264-.26562-1.23584-.4292-1.62988-.50049.02979.03125.0708.07617.11084.09131 4.12109 1.51953 4.12109 1.51953 6.04395 2.70361-.14893-.07422-.14893-.07422-.26904-.11035.10449.11328.10449.11328.29688.25391l.00537.00342c.11963.0835.23975.16553.36084.24609l.02344.01611c.13867.09229.27734.18408.41602.27637-.57228-.09669-.57228-.09669-1.07424-.16944-.90869-.54492-1.90479-.96826-2.26807-.96484.00195.03613 0 .09131.0249.11816.55273.48975 2.32471 1.43994 2.58252 1.56494.48438.23535 1.84229 1.63818 2.52148 2.46875-.3667-.19043-.48926-.18701-.59717-.18359-.41602.83984 2.74951 2.78125 2.80029 2.76318.20264-.07227.10352-.50342-.59326-1.28125l-3.78467-3.60449c.25635.10596.31006.11426.4292.13232a2.92366 2.92366 0 0 1 .05664-.07373.93054.93054 0 0 0-.02344-.04395l-.00244-.00586c-.15576-.19287-.34668-.36865-.90771-.74023.7251.11133.80078.12305 1.06934.17432 1.48047.979 2.4585 1.62598 4.20166 3.54248-.13867-.09912-.13867-.09912-.29248-.17383-.01514.0293-.03564.06836-.05078.09766.30859.60254 1.70898 2.06689 2.09717 2.42139.37451.34229 1.34717 2.16162 1.85107 3.35596-.35156-.30811-.5376-.31543-.55371-.02246-.05371.95361 1.63818 3.66016 2.03369 3.25439.15674-.16064.00488-.84033-.35303-1.58057l-2.72314-4.78125c.13184.104.13184.104.26611.1748.01318-.03076.03076-.07178.04443-.10254-.00732-.01807-.01709-.04199-.02441-.06006l-.00537-.01025c-.12061-.22461-.26074-.45898-.75684-1.05762.10449.05127.24805.11768.33594.19434-.7495-.83106-1.77196-1.91944-2.57323-2.70117-.8877-.76318-2.10303-1.74463-3.03955-2.44678l-.04785-.02881c-.45752-.31445-3.0332-1.87695-4.60107-2.58984.05078.01855.11865.04297.16992.06006-.05176-.02979-.12158-.06885-.17529-.09424l-.00928-.00439c-.36035-.16357-.6499-.29004-1.14844-.48926a.21186.21186 0 0 1 .0166.00439l-.21924-.0874m9.0542 5.67627c.73242.72754 1.69775 1.71045 2.38623 2.47949-.09619-.06641-.23096-.146-.33789-.19238-.6167-.69629-1.02295-1.03662-1.19678-1.18164-1.64893-1.70166-1.68018-1.73438-2.73535-2.59766.10645.06641.16016.09912.2168.12305-.03174-.05616-.03174-.05616-.12256-.13428l-.00342-.00293c-.18457-.15674-.56152-.45117-1.06641-.80957l.04492.02783c.86329.6626 2.01759 1.54687 2.81446 2.28809M21.48535 2.89679c.96338-.43701 1.94971-.81885 2.95605-1.1416l-.0498.01123c-.25342.05957-.32178.07812-.59326.1543.80566-.44287.82129-.45117 1.37256-.64209 1.75244-.34131 1.75244-.34131 3.74561-.53662-.50732.05127-1.18457.11523-1.69092.17188.19727-.0293.39551-.05664.59277-.08496-.05029 0-.11768-.00195-.16797.00098l-.00586.00049c-.12402.0083-.24854.01709-.37305.02734l-.02686.00195c-.15967.01318-.31934.02783-.479.04297 1.09375-.1416 1.13672-.14697 1.78857-.16016.10743-.0005.25001-.0005.35694-.0005h.00537l-.1626-.00635c-.07715-.00244-1.91797-.05859-4.03857.01416.5752-.06738.5752-.06738.68066-.08594-.11182-.021-.22803-.04248-.88965-.01904h-.00586c.37012-.04492.86377-.10596 1.23584-.13574l-.19873-.0083c-.3877.04199-.90527.09814-1.29102.15625-.16162.01074-.32324.02148-.48438.03467l-.06299.00586c-.2627.02539-.41895.0415-.71582.08203-.63818.09326-.99561.16699-1.36572.28174.12988.06934.12988.06934 1.3877-.09961 1.20068-.1543 1.20068-.1543 1.47119-.18457 2.00049-.06152 2.03906-.0625 3.24463-.05469-.37549.00781-.45312.01514-.59424.02881.00781.00244.01807.00537.02539.0083h.00293c.36865.00293.7373-.00879 1.10596-.01416-1.12451.07471-1.16846.07715-1.77832.18701-1.39014.15625-5.24219.85449-5.27734.86084.42285-.14795.42627-.1499.60693-.25049-.79102-.12207-5.01221 1.25244-5.8501 1.5293.43799-.23828.46436-.25244.6333-.35889-.17822-.05322-.17822-.05322-.57959.10254 1.3125-.70361 1.3374-.7168 2.12646-1.05811.83936-.27832 1.70068-.48584 2.52734-.8042-.14062-.02393-.14062-.02393-.5.05518.31885-.0957.7417-.23047 1.06299-.31836l-.48926.12549-.76221.23975-.00537.00146c-.98438.26318-2.39795.85107-2.45752.87646-.03711.01758-.0874.03955-.12305.06055l-.00146.00098c.13916-.03223.13916-.03223.5459-.16895-1.34131.62695-1.42139.66455-2.14453 1.08301-1.01953.43604-2.8335 1.47559-2.84863 1.48486l-.20605.1377c.35889-.2041.83643-.47754 1.20752-.65869-.52539.32959-.58643.39941-.67969.50488l.00049.00195.00488.00586.00098-.00049v.00098c.18213-.0498.18896-.05127.66016-.27588l.03271-.01465c-1.08301.89746-1.14795.95117-1.66553 1.5166-.58104.35255-3.69774 2.50392-3.71629 2.51759.44726-.47461.4834-.52246.61816-.69922-.21094.11328-.80713.65576-2.44873 2.59473.06445-.06446.15088-.15088.21533-.21582-.79639 1.25879-.87988 1.39014-1.20898 2.17188-.0708.0835-.13818.16943-.20996.25195l-.01856.02343c-.48926.60742-.87354 1.29346-1.40283 1.87061l-.11182.22852.52441-.55029c-.17041.36914-.2251.54492-.22461.72363.00977.0415.00977.11035.04395.13477l.00537.00098c.22754-.06543.35596-.16699.62695-.43848-.02002 1.15576-.0293 1.68311.06836 2.38965-.97705 1.37451-1.14014 3.00732-.2959 2.96191.54688-.0293 1.40186-1.24561 1.63428-2.32422.04492-.20898.32764-.38184.50146-.50586.97412-1.79297 2.1084-3.48926 3.37891-5.06104l-.11182-.92041c.38525-.35352 1.74365-1.77148 1.35059-2.24902-.22852-.01953-.39355-.03418-1.02979.39404.39648-1.20557.40381-1.229.78516-1.87793 2.11816-1.44971 2.11816-1.44971 4.43896-2.31689-.08545.07471-.20264.17773-.20508.19287-.04492.06494-.09863.15576-.13232.22754.02686.02637.06299.06104.08984.0874l.00684.00098h.00928l.01367.00684c.43164-.05078.96436-.32178 1.02393-.35205l.04053-.01758c-.15869.35449-.34961.83838-.45166 1.21289.08447-.0625.16846-.12451.25293-.18604.11475-.35254.28467-.81982.4502-1.15234.06885-.03711.16162-.08594.23096-.12207l.04736-.02734c1.82861-.9668 1.82861-.9668 4.54395-1.79199-.03223.021-.07568.0498-.10791.0708.01415-.00636-.0293.02098-.042.03026m-18.375 26.02002c.13086-1.29297.34277-2.5708.62988-3.82666l-.02344-.0376c-.26758-.34375-.45215-.28857-.4541-.28809-.01514.00488-.03516.01025-.05078.0127-.22852.06934-.44434.13525-.69141.60547-.18848-.50391-.45312-1.17236-.60205-1.68945l.01514.62744.48535 1.29541c-.31396.86865-.31396.86865.07324 2.91162.24659.43164.55811.39941.61817.38916M18.51367 3.7215c.13428-.09521.17725-.13037.24854-.18896.06104-.05957.15283-.1499.16504-.20215-.03174-.0332-.03613-.0376-.10107-.04297l-.01123-.00488c-.04297.00684-.08643.0083-.12988.01367l-.01611.00342c-.20459.04492-.33936.07471-.79346.23438l-.03955.0166-.01173.00389c.81396-.72656.82959-.74023 1.39453-1.10156.62598-.19873 1.57422-.51904 1.7583-.58105 2.03955-.37793 2.07861-.38477 3.29248-.56787-.37256.09521-.46582.14502-.50537.16602a2.3755 2.3755 0 0 0 .02441.03662l.00195.00049c.1665-.00195.41357-.04102 1.10205-.17432-.8877.37109-.94092.39258-1.35645.6665-.99951.3125-1.50635.5791-1.72266.69287-2.01366.61133-2.17772.66113-3.29979 1.0293m-5.60986 2.05078c.48096-.43506.46973-.51904.46289-.56934-.03564-.02734-.05176-.02881-.14502-.0166l-.01221.00244c-.08203.02002-.14258.03906-.28564.09912l-.00977.00391c-.12939.05811-.20947.09668-.37305.18457l-.021.01123c.98438-.97656 1.00342-.99512 1.66797-1.50146l.15088-.07764.05957-.02881.04639-.02441c.00586-.00293.61572-.31299 1.25-.64355l.04736-.02344c1.64551-.51855 1.67676-.52832 2.74561-.79443-.53955.24414-.54736.31982-.55078.35645a.42203.42203 0 0 1 .021.01025h.00293c.12549.00439.22461.00781.99414-.22559-.60205.43213-1.12061.979-1.79785 1.30762l-.06787.03076c-.56836.29687-.80372.41991-1.19776.70507-1.89599.72217-2.00928.76563-2.98779 1.19385M7.10205 16.38654c-.1875.1333-.43799.31055-.62549.44336.04639-.51562-.05713-.6875-.15723-.80762-.09473-.13379-.39062-.3623-1.08936.38965-.11621-1.5708-.11816-1.60059.01221-2.47363.41504-.51562.83691-1.19336 1.02051-1.5127 1.56543-1.10498 1.56543-1.10498 2.59424-1.72412-.20801.42578-.1958.67822.03564.75049l.00488.00244c.31348.03662.71094-.23486 1.05859-.50488l.12695.98633c-1.10594 1.39452-2.10496 2.88476-2.98094 4.45068m-.72021-4.1836c.30957-.60791.34424-.88965.10352-.83691l-.00977.00293c-.05029.02441-.05713.02783-.16064.09863-.15137.10449-.25293.19775-.38721.33398.68408-1.40576.69726-1.43261 1.24267-2.19677.1958-.20215.6543-.67529 1.23486-1.28467 1.26709-.88672 1.29102-.90332 2.17285-1.38965-.35059.35645-.48291.57227-.39307.6416l.00293.00049c.04297.01318.17334.05273.86621-.39258-.58496 1.15674-.60791 1.20215-.78223 1.89404-.35448.27247-.86815.74073-1.30223 1.42237-1.6709 1.04004-1.771 1.10254-2.58789 1.70654m-4.1377 7.59229l-.22852 1.65869c.09033-.36279.1499-.66943.19385-.99463.01563-.12109.05127-.4043.03467-.66406m1.32471 18.1499c-.23926-1.12109-.41162-2.27832-.51172-3.46777l-.06494.04297c-.13037.1377-.17969.24512-.2373.51953-.40723-.61328-.94482-1.43457-1.30225-2.0791l-.05811.16211c.38184.65723.90381 1.52637 1.33643 2.15039v.00781c-.01562.34082.02832.71777.13086 1.12109.07031.27734.30127.49902.28027.80859-.04834.71777-.44678 1.35547-.4751 2.07812-.16309-.32129-.23633-.43945-.2373-.44043-.23145-.3877-.29688-.4541-.29736-.45508-.06494-.07422-.07227-.0791-.14209-.12793l-.00244-.00098-.03906.02441h-.00147c-.00977.15625-.01318.20898.06787.50977l.00195.00781c-.23535-.54492-.55176-1.27148-.74121-1.83398l.00439.01562.10596.33594c.19971.5127.45947 1.2002.69678 1.69629.06641.19629.06641.19629.15234.43066l.02295.05762c.27734.71387.61377 1.40332.90967 2.1084l.15039.29004-.37451-.87988c.12939.24512.17773.32617.18604.33984.23535.39941.28369.44434.41211.56445l.00391.00195.00439.00195.01562.01367c.01367-.00879.03223-.02051.0459-.0293.00342-.10938.00732-.24414-.07617-.49219l-.00537-.02734c.55859.67578 1.33203 1.55371 1.94092 2.18457-.04199-.08887-.0835-.17676-.12402-.26562-.58398-.62012-1.34424-1.46484-1.88037-2.12695-.02393-.06836-.04785-.13672-.07031-.20605l-.01904-.04688c-.16162-.47754-.56641-.85254-.58252-1.38965-.00244-.08691-.01172-.87988.47803-2.07129.12644.23635.20506.3428.29588.46682m11.05859 15.61523c-1.86914-1.0625-3.56934-2.39844-5.05811-3.9707-.35791-.29199-.84521-.66992-1.19238-.97559-.55469-.66113-1.80615-2.10352-2.1333-2.33496-.01074.05469-.01318.06641.25098.4082-.10303-.125-.24023-.29395-.34326-.41992l.92773 1.12109c1.8916 2.01758 2.00488 2.13867 3.43506 3.34082 2.15186 1.65333 2.23584 1.71778 4.11328 2.83106m0 0l-.91797-.54492-.3252-.21875a21.12886 21.12886 0 0 0 1.24317.76367m-1.5376-.96093l.39795.27832c-.91064-.61816-2.10352-1.47363-2.97363-2.14844-.68115-.60254-1.58887-1.40918-2.23779-2.04785.37305.37793.46191.44531.49951.47461l.00293.00195c.0083.00293.01953.00781.02734.01074-.02832-.05859-.04004-.08301-.29736-.39648.37549.30664.86768.72559 1.25391 1.01855 1.01757 1.04883 2.13085 1.98828 3.32714 2.8086m-6.45703-5.73828c.14795.18164.30908.36914.40479.48047l-.63184-.75488.22314.26855c.00098.00195.00294.0039.00391.00586"/></g></g><g transform="translate(21.3 .174)"><defs><filter id="c" width="13" height="1.032" x=".098" y=".053" filterUnits="userSpaceOnUse"><feColorMatrix values="1 0 0 0 0 0 1 0 0 0 0 0 1 0 0 0 0 0 1 0"/></filter></defs><mask id="d" width="13" height="1.032" x=".098" y=".053" maskUnits="userSpaceOnUse"><g filter="url(#c)"><path fill="#FFF" d="M13.098.053h-13v1.031h13z"/></g></mask><g mask="url(#d)"><path fill="#474747" d="M.09836 1.08429l.12012-.01807.83593-.20312C1.72677.76593 2.08908.72931 2.88351.64972c.33545-.03418.37989-.04639.43165-.06055-.00244-.0083-.00488-.02002-.00732-.02832h-.00196c-.0459-.00928-.06152-.01221-.14502-.01758L3.15012.5423C3.09836.54034 3.02658.53693 2.91965.53888 4.11057.40948 4.13303.40704 4.73459.3924c.49902.06592.75977.10693 1.21436.18994.35107.06396.35595.06201.39941.04297-.00049-.00147-.00147-.00342-.00147-.00489-.40136-.4331-.97754-.29004-1.46386-.44385-.35059.03711-.81836.08887-1.16797.1333C2.6218.47687 2.29221.52716.90988.83478l.37793-.08594C.93625.82257.61691.90118.49435.93732L.49094.93829C.52317.94366.52317.94366.86985.89093.6384.94904.3298 1.02618.09836 1.08429M7.78683.05255l-.50292.00049.09619-.00049c-.00391 0-.0083.00146-.01172.00244.01806.04541.34912.16895.53418.13135.08203-.01025.08203-.01025.52197-.11963-.19141-.00439-.44629-.01318-.6377-.01416m3.98975.30811l-.08496-.01221-.04004-.00586c-.07666-.00879-.1333-.01465-.16602-.00879.01514.01172.02979.02295.25537.05225 1.02686.13623 1.02686.13623 1.35742.2002-.39599-.07081-.92431-.16553-1.32177-.22559M1.06808.79767C2.31027.53156 2.53439.4837 3.71506.30988c.31152-.03809.72705-.08887 1.03906-.12109.07275.02001.16846.04931.23975.07372-.24903-.0039-.4917.01074-.61817.03809l-.00146.00049c-.01172.00342-.02588.01221-.03369.021.05322.02148.06005.02392.26953.0537-.20606.0127-2.04688.13037-3.1294.33448l-.4126.0874"/></g></g><path fill="#474747" d="M64.49219 27.80859c0-12.69385 9.62695-20.75537 21.41992-20.75537 8.30371 0 13.53809 4.21143 16.54639 8.96387l-7.03955 3.85059c-1.86523-2.82764-5.29492-5.23389-9.50684-5.23389-7.34033 0-12.63525 5.59473-12.63525 13.1748s5.29492 13.1748 12.63525 13.1748c3.5498 0 6.85938-1.56348 8.48389-3.06836v-4.8125H83.80615v-7.45996h19.13379v15.40039c-4.0918 4.57227-9.80762 7.52051-17.02783 7.52051-11.79297.00001-21.41992-8.12206-21.41992-20.75488"/><path fill="#474747" d="M108.35498 47.8418V18.78467h7.64111v3.91016c2.10645-2.52686 5.65625-4.63232 9.26611-4.63232v7.45996c-.54102-.12012-1.20312-.18066-2.10596-.18066-2.52686 0-5.89648 1.44434-7.16016 3.30908V47.8418h-7.6411z"/><defs><filter id="e" width="9.086" height="41.27" x="128.09" y="6.572" filterUnits="userSpaceOnUse"><feColorMatrix values="1 0 0 0 0 0 1 0 0 0 0 0 1 0 0 0 0 0 1 0"/></filter></defs><mask id="f" width="9.086" height="41.27" x="128.09" y="6.572" maskUnits="userSpaceOnUse"><g filter="url(#e)"><path fill="#FFF" d="M0 57.947h258.988V.227H0z"/></g></mask><g mask="url(#f)"><path fill="#474747" d="M128.81201 47.8418h7.64111V18.78467h-7.64111V47.8418zm-.72217-36.75782c0-2.52686 2.0459-4.51172 4.5127-4.51172 2.52637 0 4.57324 1.98486 4.57324 4.51172s-2.04688 4.57227-4.57324 4.57227c-2.4668 0-4.5127-2.04541-4.5127-4.57227z"/></g><g><defs><filter id="g" width="29.543" height="40.848" x="140.965" y="7.715" filterUnits="userSpaceOnUse"><feColorMatrix values="1 0 0 0 0 0 1 0 0 0 0 0 1 0 0 0 0 0 1 0"/></filter></defs><mask id="h" width="29.543" height="40.848" x="140.965" y="7.715" maskUnits="userSpaceOnUse"><g filter="url(#g)"><path fill="#FFF" d="M0 57.947h258.988V.227H0z"/></g></mask><g mask="url(#h)"><path fill="#474747" d="M162.80664 38.45703v-10.2876c-1.26367-1.92529-4.03125-3.30859-6.55859-3.30859-4.39258 0-7.40039 3.4292-7.40039 8.42236 0 5.05273 3.00781 8.48242 7.40039 8.48242 2.52734 0 5.29492-1.38378 6.55859-3.30859zm0 9.38477v-3.73047c-2.28613 2.88867-5.41504 4.45215-8.96484 4.45215-7.28125 0-12.87695-5.53418-12.87695-15.28027 0-9.44531 5.47559-15.2207 12.87695-15.2207 3.42969 0 6.67871 1.44385 8.96484 4.45215V7.71533h7.70117V47.8418h-7.70117z"/></g></g><g><defs><filter id="i" width="41.938" height="41.51" x="175.143" y="7.053" filterUnits="userSpaceOnUse"><feColorMatrix values="1 0 0 0 0 0 1 0 0 0 0 0 1 0 0 0 0 0 1 0"/></filter></defs><mask id="j" width="41.938" height="41.51" x="175.143" y="7.053" maskUnits="userSpaceOnUse"><g filter="url(#i)"><path fill="#FFF" d="M0 57.947h258.988V.227H0z"/></g></mask><g mask="url(#j)"><path fill="#B4001B" d="M208.29492 27.80859c0-7.52002-4.75391-13.1748-12.1543-13.1748-7.46094 0-12.21387 5.65479-12.21387 13.1748 0 7.45996 4.75293 13.1748 12.21387 13.1748 7.4004.00001 12.1543-5.71484 12.1543-13.1748m-33.15234 0c0-12.09229 8.84375-20.75537 20.99805-20.75537 12.09375 0 20.93945 8.66309 20.93945 20.75537 0 12.0918-8.8457 20.75488-20.93945 20.75488-12.1543.00001-20.99805-8.66308-20.99805-20.75488"/></g></g><g><defs><filter id="k" width="33.153" height="41.45" x="217.923" y="7.113" filterUnits="userSpaceOnUse"><feColorMatrix values="1 0 0 0 0 0 1 0 0 0 0 0 1 0 0 0 0 0 1 0"/></filter></defs><mask id="l" width="33.153" height="41.45" x="217.923" y="7.113" maskUnits="userSpaceOnUse"><g filter="url(#k)"><path fill="#FFF" d="M0 57.947h258.988V.227H0z"/></g></mask><g mask="url(#l)"><path fill="#B4001B" d="M217.92285 42.18652l4.69336-6.67773c2.82715 2.94824 7.21973 5.47461 12.75488 5.47461 4.75391 0 6.98047-2.10547 6.98047-4.45215 0-6.97803-23.10547-2.10547-23.10547-17.20508 0-6.67773 5.77637-12.21289 15.22266-12.21289 6.37891 0 11.67383 1.92529 15.64453 5.59521l-4.75391 6.37695c-3.24902-3.0083-7.58105-4.39209-11.67188-4.39209-3.61035 0-5.65625 1.56445-5.65625 3.9707 0 6.31689 23.04492 2.0459 23.04492 17.02539 0 7.33984-5.29492 12.87402-16.06543 12.87402-7.76171.00002-13.29784-2.5869-17.08788-6.37694"/></g></g><g><defs><filter id="m" width="6.082" height="6.078" x="252.23" y="8.562" filterUnits="userSpaceOnUse"><feColorMatrix values="1 0 0 0 0 0 1 0 0 0 0 0 1 0 0 0 0 0 1 0"/></filter></defs><mask id="n" width="6.082" height="6.078" x="252.23" y="8.562" maskUnits="userSpaceOnUse"><g filter="url(#m)"><path fill="#FFF" d="M0 57.947h258.988V.227H0z"/></g></mask><g mask="url(#n)"><path fill="#333" d="M258.3125 11.60059c0 .54443-.13672 1.05176-.4082 1.52148-.27246.46973-.64355.84033-1.11328 1.11133-.4707.27051-.97754.40625-1.52148.40625-.54199 0-1.04785-.13574-1.51758-.40625-.4707-.271-.8418-.6416-1.11328-1.11133-.27246-.46973-.4082-.97705-.4082-1.52148 0-.5415.13574-1.04785.4082-1.51904.27148-.47119.64258-.84229 1.11328-1.11328.46973-.271.97559-.40625 1.51758-.40625.54395 0 1.05078.13525 1.52148.40625.46973.271.84082.64209 1.11328 1.11328.27148.47118.4082.97753.4082 1.51904zm-.58984 0c0-.67676-.24023-1.25488-.71875-1.73438-.47949-.479-1.05762-.71875-1.73438-.71875-.67773 0-1.25586.23975-1.73438.71875-.48047.47949-.71973 1.05762-.71973 1.73438 0 .67725.23926 1.25537.71973 1.73438.47852.47949 1.05664.71875 1.73438.71875.67676 0 1.25488-.23926 1.73438-.71875.47851-.47901.71875-1.05714.71875-1.73438zm-3.83204-1.625h1.4541c.41113 0 .70996.08301.89453.24902s.27637.38867.27637.66699c0 .21777-.07031.40625-.21094.56592-.14062.15918-.3623.27441-.66504.34619.12402.04785.21582.09814.27441.15137.08203.07422.16895.18457.25977.33057.00488.01074.17969.32373.52539.93994h-.95605c-.31055-.61865-.51855-.98828-.62598-1.10938-.10547-.12061-.21191-.18115-.31836-.18115-.02344 0-.05664.00439-.09961.01221v1.27832h-.80859v-3.25zm.8086 1.37793h.35059c.2334 0 .39844-.0376.49414-.11328s.14355-.17334.14355-.29248c0-.11963-.0459-.21729-.1377-.29297-.09082-.07568-.24707-.11328-.46777-.11328h-.38281v.81201z"/></g></g><g><path d="M106.71973 73.3916c-.13672-.58984-.4707-1.00195-1.00195-1.23633-.29688-.12891-.62695-.19336-.99023-.19336-.69531 0-1.2666.26172-1.71387.78711-.44727.52344-.6709 1.3125-.6709 2.36523 0 1.06055.24219 1.81055.72656 2.25098s1.03516.66113 1.65234.66113c.60547 0 1.10156-.17383 1.48828-.52148.38672-.34668.625-.80273.71484-1.36523h-1.99805v-1.44141h3.59766v4.63477h-1.19531l-.18164-1.07812c-.34766.4082-.66016.69629-.9375.86328-.47656.29199-1.0625.4375-1.75781.4375-1.14453 0-2.08203-.39648-2.8125-1.18848-.76172-.79688-1.14258-1.88574-1.14258-3.26758 0-1.39746.38477-2.51758 1.1543-3.36133.76953-.84277 1.78711-1.26465 3.05273-1.26465 1.09766 0 1.97949.27832 2.64551.83496s1.04785 1.25098 1.14551 2.08301h-1.77539zm6.94043-.59472c.02148.00195.06934.00488.14355.00879v1.71094c-.10547-.01172-.19922-.01953-.28125-.02344s-.14844-.00586-.19922-.00586c-.67188 0-1.12305.21875-1.35352.65625-.12891.24609-.19336.625-.19336 1.13672v3.05273h-1.68164v-6.38672h1.59375v1.11328c.25781-.42578.48242-.7168.67383-.87305.3125-.26172.71875-.39258 1.21875-.39258.03125.00001.05762.00098.07911.00294zm2.83886-.61231h-1.69336v-1.54102h1.69336v1.54102zm-1.69336.76172h1.69336v6.38672h-1.69336v-6.38672zm6.69727.10254c.30078.16992.54492.40527.73242.70605V70.708h1.69336v8.625h-1.62305v-.88477c-.23828.37891-.50977.6543-.81445.82617s-.68359.25781-1.13672.25781c-.74609 0-1.37402-.30176-1.88379-.90527s-.76465-1.37793-.76465-2.32324c0-1.08984.25098-1.94727.75293-2.57227s1.17285-.9375 2.0127-.9375c.38672.00002.73047.08498 1.03125.2549zm.41016 4.5498c.24609-.35156.36914-.80664.36914-1.36523 0-.78125-.19727-1.33984-.5918-1.67578-.24219-.20312-.52344-.30469-.84375-.30469-.48828 0-.84668.18457-1.0752.55371s-.34277.82715-.34277 1.37402c0 .58984.11621 1.06152.34863 1.41504s.58496.53027 1.05762.53027.83203-.17577 1.07813-.52734zm10.31836.9668c-.65234.67188-1.5957 1.00781-2.83008 1.00781s-2.17773-.33594-2.83008-1.00781c-.875-.82422-1.3125-2.01172-1.3125-3.5625 0-1.58203.4375-2.76953 1.3125-3.5625.65234-.67188 1.5957-1.00781 2.83008-1.00781s2.17773.33594 2.83008 1.00781c.87109.79297 1.30664 1.98047 1.30664 3.5625 0 1.55078-.43555 2.73828-1.30664 3.5625zm-1.12793-1.3125c.41992-.52734.62988-1.27734.62988-2.25 0-.96875-.20996-1.71777-.62988-2.24707s-.9873-.79395-1.70215-.79395-1.28516.26367-1.71094.79102-.63867 1.27734-.63867 2.25.21289 1.72266.63867 2.25.99609.79102 1.71094.79102 1.28222-.26368 1.70215-.79102zm5.1123-.58594c.05566.39453.16504.68945.3291.88477.29883.35547.81152.5332 1.53711.5332.43555 0 .78809-.04688 1.05859-.14062.51562-.17969.77246-.51367.77246-1.00195 0-.28516-.12598-.50586-.37793-.66211-.25195-.15234-.65234-.28711-1.19922-.4043l-.93555-.20508c-.91797-.20312-1.5498-.42383-1.89355-.66211-.58203-.39844-.87305-1.02148-.87305-1.86914 0-.77344.28418-1.41602.85449-1.92773.56836-.51172 1.40527-.76758 2.50879-.76758.9209 0 1.70703.24121 2.35742.72363.65137.48242.99121 1.18262 1.02344 2.10059h-1.73438c-.03223-.51953-.26465-.88867-.69629-1.10742-.28906-.14453-.64746-.2168-1.07617-.2168-.47656 0-.85645.09375-1.14062.28125-.28516.1875-.42676.44922-.42676.78516 0 .30859.13965.53906.4209.69141.17969.10156.5625.2207 1.14648.35742l1.51562.35742c.66504.15625 1.16211.36523 1.49414.62695.51562.40625.77246.99414.77246 1.76367 0 .78906-.30566 1.44434-.91504 1.96582s-1.47168.78223-2.58496.78223c-1.1377 0-2.03223-.25684-2.68262-.77051-.65234-.51367-.97754-1.21973-.97754-2.11816h1.72268zm16.31152-5.9707v1.5293h-2.58301v7.10742h-1.81641v-7.10742h-2.5957v-1.5293h6.99512zm7.44141 1.5293h-4.57031v1.83398h4.19531v1.5h-4.19531v2.2207h4.78125V79.333h-6.54492v-8.63672h6.33398v1.52931z"/></g></svg>