<svg xmlns="http://www.w3.org/2000/svg" role="img" viewBox="-6.95 -5.70 413.66 141.16"><title>Grid eXchange Fabric logo</title><style>svg {enable-background:new 0 0 400 130}</style><style>.st1{fill:#008421}.st3{fill:#009ade}.st4{fill:#003764}.st5{fill:#99db26}</style><path d="M189.6 117.9h-.2c-3.1 6.6-7.2 9.7-15.6 9.7-15.6 0-21.2-11.6-21.2-37s7.2-37 23.7-37c17.9 0 20.9 14.1 20.9 20.6v1.3h-10.8v-1.7c0-5.3-2.2-11.6-10-11.6-8.1 0-12.4 5.4-12.4 28.1 0 23 3.8 28.7 11.5 28.7 8.7.1 11.9-6.2 11.9-21.8h-12v-8.6h22.8v37.5h-8.6v-8.2z" class="st1"/><path fill="#99db25" d="M222.8 90l-17.2-35h12.6l11.4 23.7L240.8 55H253l-17.3 35 18.2 36.2h-12.6L229 100.5l-12.7 25.7H204L222.8 90z"/><path d="M261.8 54.9h38v9.6h-26.6v19.8h25.1v9.6h-25.1v32.3h-11.4V54.9z" class="st1"/><g><path d="M161.8 27.8v-12h-6v17.9h17.9v-5.9z" class="st3"/><path d="M185.6 3.9h-29.8v8.9h5.9V9.9h18v17.9h-3v5.9h8.9z" class="st4"/><path d="M193.5 4.2h9.1v21.9h13v7.5h-22.1V4.2zm26 0h22.8v7.5h-13.7v3.7h11.8v7h-11.8v11.2h-9.1V4.2z" class="st4"/><path d="M265.6 33.8h-16.5V4.2h16.5v1.9h-14.3v11.2h13.5v1.9h-13.5V32h14.3v1.8zm28.7 0h-2.2L274.3 7.5h-.1c.2 3.2.2 5.5.2 7.1v19.2h-2V4.2h2.1l17.8 26.3h.2c-.2-2.5-.2-4.8-.2-6.9V4.2h2.1l-.1 29.6zm25 0h-16.5V4.2h16.5v1.9H305v11.2h13.5v1.9H305V32h14.3v1.8zm8.9-12.9v12.9h-2.1V4.2h7.2c3.7 0 6.5.7 8.3 2.1 1.8 1.4 2.7 3.4 2.7 6.2 0 2-.5 3.7-1.6 5.1-1.1 1.4-2.7 2.4-4.8 2.9L346 34h-2.5l-7.8-13-7.5-.1zm0-1.8h5.7c2.5 0 4.5-.5 5.9-1.7 1.4-1.2 2.1-2.8 2.1-4.9 0-2.2-.7-3.9-2.1-4.9-1.4-1.1-3.6-1.5-6.8-1.5h-4.9l.1 13zm34.4-.6h10.8v13.2c-2.8 1.2-6.1 1.8-9.6 1.8-4.6 0-8.2-1.3-10.7-3.9-2.5-2.6-3.7-6.2-3.7-11 0-3 .6-5.5 1.8-7.8 1.2-2.3 3-4.1 5.3-5.3 2.3-1.2 4.9-1.8 7.9-1.8 3.2 0 6.1.6 8.7 1.8l-.8 1.8c-2.5-1.2-5.2-1.8-7.9-1.8-3.9 0-7 1.2-9.2 3.5-2.2 2.4-3.4 5.5-3.4 9.5 0 4.4 1.1 7.6 3.2 9.8s5.3 3.3 9.5 3.3c2.7 0 5-.4 6.9-1.2v-9.9h-8.8v-2zm25.3 1.8l8.8-16.1h2.2l-10 18.1v11.4h-2.2V22.5l-10-18.3h2.4l8.8 16.1z" class="st3"/></g><g><path d="M1.1685 104.08646l.01105-8.8 8.8.01106-.01106 8.8z" class="st3"/><path d="M1.14251 115.68244l.01106-8.8 8.8.01107-.01106 8.8z" class="st3"/><path d="M36.03547 115.76351l.01106-8.79999 8.79999.01106-.01106 8.8z" class="st3"/><path d="M24.33748 115.7374l.01106-8.79999 8.8.01106-.01106 8.8z" class="st3"/><path d="M12.7395 115.70942l.01106-8.79999 8.8.01106-.01107 8.8z" class="st3"/><path d="M1.14251 115.68244l.01106-8.8 8.8.01107-.01106 8.8z" class="st3"/><path d="M1.0954 127.1014l.01106-8.8 8.8.01107-.01106 8.79999z" class="st3"/><path d="M24.3905 127.05449l.01106-8.8 8.8.01107-.01107 8.79999z" class="st3"/><path d="M12.79252 127.0285l.01106-8.79999 8.79999.01106-.01106 8.8z" class="st3"/><path d="M1.0954 127.1014l.01106-8.8 8.8.01107-.01106 8.79999z" class="st3"/><path d="M47.65844 104.1925l.01105-8.79998 8.8.01105-.01106 8.8z" class="st3"/><path d="M35.96245 104.1664l.01106-8.8 8.8.01107-.01107 8.79999z" class="st3"/><path d="M24.36347 104.13942l.01105-8.8 8.8.01106-.01106 8.8z" class="st3"/><path d="M12.76648 104.11244l.01106-8.8 8.8.01106-.01107 8.8z" class="st3"/><path d="M1.1685 104.08646l.01105-8.8 8.8.01106-.01106 8.8z" class="st3"/><path d="M47.58542 92.5954l.01105-8.8 8.8.01106-.01106 8.8z" class="st3"/><path d="M35.98843 92.56842l.01106-8.8 8.8.01106-.01107 8.8z" class="st3"/><path d="M24.39045 92.54243l.01106-8.79999 8.79999.01106-.01106 8.8z" class="st3"/><path d="M12.79346 92.51545l.01106-8.79999 8.8.01106-.01107 8.8z" class="st3"/><path d="M36.01441 80.97043l.01106-8.8 8.8.01107-.01106 8.8z" class="st3"/><path d="M24.41643 80.94445l.01106-8.8 8.79999.01107-.01106 8.79999z" class="st3"/><g><path d="M105.67347 92.62743l.01106-8.79999 8.79999.01106-.01106 8.8z" class="st5"/><path d="M105.64648 104.22642l.01106-8.8 8.8.01106-.01106 8.8z" class="st5"/><path d="M105.6195 115.8234l.01106-8.8 8.8.01107-.01106 8.79999z" class="st5"/><path d="M105.6195 115.8234l.01106-8.8 8.8.01107-.01106 8.79999z" class="st5"/><path d="M94.02252 115.79642l.01106-8.8 8.79999.01107-.01106 8.79999z" class="st5"/><path d="M82.4254 115.86944l.01107-8.8 8.79999.01106-.01106 8.8z" class="st5"/><path d="M105.67352 127.14149l.01106-8.8 8.8.01106-.01107 8.8z" class="st5"/><path d="M105.67352 127.14149l.01106-8.8 8.8.01106-.01107 8.8z" class="st5"/><path d="M94.07441 127.2145l.01106-8.79999 8.8.01106-.01107 8.8z" class="st5"/><path d="M105.64648 104.22642l.01106-8.8 8.8.01106-.01106 8.8z" class="st5"/><path d="M94.0495 104.19944l.01106-8.8 8.8.01106-.01107 8.8z" class="st5"/><path d="M82.45251 104.17245l.01106-8.79999 8.8.01106-.01106 8.8z" class="st5"/><path d="M70.8534 104.24547l.01106-8.8 8.8.01107-.01106 8.8z" class="st5"/><path d="M105.67347 92.62743l.01106-8.79999 8.79999.01106-.01106 8.8z" class="st5"/><path d="M94.07548 92.60145l.01106-8.8 8.8.01107-.01107 8.79999z" class="st5"/><path d="M82.4785 92.57447l.01106-8.8 8.79999.01107-.01106 8.79999z" class="st5"/><path d="M70.88051 92.54849l.01106-8.8 8.8.01106-.01106 8.8z" class="st5"/><path d="M94.10346 81.00347l.01106-8.8 8.8.01106-.01106 8.8z" class="st5"/><path d="M82.50548 80.97748l.01106-8.79999 8.79999.01106-.01106 8.8z" class="st5"/><path d="M116.96444 104.2724l.01106-8.8 8.8.01106-.01106 8.8z" class="st5"/><path d="M117.03846 115.87051l.01106-8.8 8.8.01107-.01107 8.79999z" class="st5"/><path d="M117.03846 115.87051l.01106-8.8 8.8.01107-.01107 8.79999z" class="st5"/><path d="M116.99148 127.18747l.01106-8.8 8.8.01107-.01107 8.79999z" class="st5"/><path d="M116.99148 127.18747l.01106-8.8 8.8.01107-.01107 8.79999z" class="st5"/><path d="M116.96444 104.2724l.01106-8.8 8.8.01106-.01106 8.8z" class="st5"/></g><g><path d="M105.75946 11.34541l.01106-8.79999 8.8.01106-.01106 8.8z" class="st3"/><path d="M105.73248 22.9424l.01106-8.8 8.8.01106-.01106 8.8z" class="st3"/><path d="M105.8065 34.5405l.01106-8.79998 8.8.01105-.01107 8.8z" class="st3"/><path d="M105.77852 46.1385l.01106-8.8 8.8.01106-.01107 8.8z" class="st3"/><path d="M94.15543 57.8095l.01105-8.8 8.8.01106-.01106 8.8z" class="st3"/><path d="M82.55844 57.78252l.01106-8.8 8.8.01106-.01107 8.8z" class="st3"/><path d="M105.77852 46.1385l.01106-8.8 8.8.01106-.01107 8.8z" class="st3"/><path d="M94.1814 46.21151l.01107-8.8 8.79999.01107-.01106 8.79999z" class="st3"/><path d="M82.48442 46.1844l.01106-8.79999 8.8.01106-.01106 8.8z" class="st3"/><path d="M70.88644 46.15842l.01106-8.8 8.8.01107-.01107 8.79999z" class="st3"/><path d="M105.8065 34.5405l.01106-8.79998 8.8.01105-.01107 8.8z" class="st3"/><path d="M94.10952 34.5134l.01105-8.8 8.8.01107-.01106 8.79999z" class="st3"/><path d="M82.5114 34.58742l.01106-8.8 8.8.01106-.01106 8.8z" class="st3"/><path d="M70.91442 34.56044l.01106-8.8 8.8.01106-.01107 8.8z" class="st3"/><path d="M105.73248 22.9424l.01106-8.8 8.8.01106-.01106 8.8z" class="st3"/><path d="M94.1355 22.91542l.01106-8.8 8.79999.01106-.01106 8.8z" class="st3"/><path d="M82.53851 22.89043l.01106-8.79999 8.8.01106-.01106 8.8z" class="st3"/><path d="M105.75946 11.34541l.01106-8.79999 8.8.01106-.01106 8.8z" class="st3"/><path d="M117.17742 11.39152l.01106-8.8 8.8.01107-.01106 8.79999z" class="st3"/><path d="M117.15144 22.9895l.01106-8.79999 8.8.01106-.01107 8.8z" class="st3"/><path d="M117.12446 34.5865l.01106-8.8 8.8.01106-.01107 8.79999z" class="st3"/><path d="M117.12446 34.5865l.01106-8.8 8.8.01106-.01107 8.79999z" class="st3"/><path d="M117.15144 22.9895l.01106-8.79999 8.8.01106-.01107 8.8z" class="st3"/><path d="M117.17742 11.39152l.01106-8.8 8.8.01107-.01106 8.79999z" class="st3"/><path d="M94.16248 11.31843l.01106-8.8 8.8.01107-.01107 8.8z" class="st3"/></g><g><path d="M1.28247 11.20645l.01106-8.8 8.8.01107-.01106 8.8z" class="st5"/><path d="M1.2555 22.80344l.01105-8.8 8.8.01106-.01106 8.8z" class="st5"/><path d="M1.22851 34.40042l.01106-8.8 8.8.01107-.01106 8.8z" class="st5"/><path d="M36.0675 57.67546l.01106-8.8 8.8.01107-.01106 8.8z" class="st5"/><path d="M24.46952 57.64948l.01106-8.8 8.79999.01107-.01106 8.79999z" class="st5"/><path d="M47.69147 46.10546l.01106-8.8 8.8.01106-.01107 8.8z" class="st5"/><path d="M36.09448 46.07848l.01106-8.8 8.8.01106-.01106 8.8z" class="st5"/><path d="M24.4975 46.0515l.01106-8.8 8.8.01106-.01107 8.8z" class="st5"/><path d="M12.89951 46.02551l.01106-8.79999 8.8.01106-.01106 8.8z" class="st5"/><path d="M47.71845 34.50647l.01106-8.79999 8.8.01106-.01107 8.8z" class="st5"/><path d="M36.12047 34.4805l.01106-8.8 8.79999.01106-.01106 8.8z" class="st5"/><path d="M24.52348 34.45351l.01106-8.8 8.8.01107-.01107 8.79999z" class="st5"/><path d="M12.8265 34.4264l.01106-8.79999 8.79999.01106-.01106 8.8z" class="st5"/><path d="M1.22851 34.40042l.01106-8.8 8.8.01107-.01106 8.8z" class="st5"/><path d="M36.14645 22.8825l.01106-8.79999 8.8.01106-.01107 8.8z" class="st5"/><path d="M24.45046 22.8564l.01106-8.8 8.8.01107-.01106 8.79999z" class="st5"/><path d="M12.85248 22.83042l.01106-8.8 8.79999.01106-.01106 8.8z" class="st5"/><path d="M1.2555 22.80344l.01105-8.8 8.8.01106-.01106 8.8z" class="st5"/><path d="M24.47645 11.25842l.01105-8.8 8.8.01106-.01106 8.8z" class="st5"/><path d="M12.87846 11.23243l.01106-8.79999 8.8.01106-.01107 8.8z" class="st5"/><path d="M1.28247 11.20645l.01106-8.8 8.8.01107-.01106 8.8z" class="st5"/></g><g><path d="M59.28253 92.5225l.01106-8.79999 8.79999.01106-.01106 8.8z" class="st3"/><path d="M59.3095 80.92352l.01107-8.8 8.8.01107-.01107 8.79999z" class="st3"/><path d="M47.61152 80.89741l.01106-8.79999 8.8.01106-.01106 8.8z" class="st3"/><path d="M82.53146 69.3795l.01106-8.8 8.8.01107-.01107 8.79999z" class="st3"/><path d="M70.93348 69.35352l.01105-8.8 8.8.01106-.01106 8.8z" class="st3"/><path d="M59.2365 69.32641l.01105-8.8 8.8.01107-.01107 8.79999z" class="st3"/><path d="M47.6395 69.29943l.01106-8.8 8.8.01106-.01106 8.8z" class="st3"/><path d="M36.04152 69.27345l.01106-8.8 8.8.01106-.01107 8.8z" class="st3"/><path d="M70.86046 57.7564l.01106-8.79999 8.79999.01106-.01106 8.8z" class="st3"/><path d="M59.26247 57.72843l.01106-8.8 8.8.01106-.01106 8.8z" class="st3"/><path d="M47.66549 57.70344l.01106-8.79999 8.79999.01106-.01106 8.8z" class="st3"/><path d="M70.9065 80.9505l.01105-8.8 8.8.01107-.01106 8.8z" class="st3"/><path d="M59.28945 46.13144l.01106-8.8 8.8.01107-.01106 8.79999z" class="st3"/></g><g><path d="M59.28253 92.5225l.01106-8.79999 8.79999.01106-.01106 8.8z" class="st5"/><path d="M59.3095 80.92352l.01107-8.8 8.8.01107-.01107 8.79999z" class="st5"/><path d="M47.61152 80.89741l.01106-8.79999 8.8.01106-.01106 8.8z" class="st5"/><path d="M82.53146 69.3795l.01106-8.8 8.8.01107-.01107 8.79999z" class="st5"/><path d="M70.93348 69.35352l.01105-8.8 8.8.01106-.01106 8.8z" class="st5"/><path d="M59.2365 69.32641l.01105-8.8 8.8.01107-.01107 8.79999z" class="st5"/><path d="M47.6395 69.29943l.01106-8.8 8.8.01106-.01106 8.8z" class="st5"/><path d="M36.04152 69.27345l.01106-8.8 8.8.01106-.01107 8.8z" class="st5"/><path d="M70.86046 57.7564l.01106-8.79999 8.79999.01106-.01106 8.8z" class="st5"/><path d="M59.26247 57.72843l.01106-8.8 8.8.01106-.01106 8.8z" class="st5"/><path d="M47.66549 57.70344l.01106-8.79999 8.79999.01106-.01106 8.8z" class="st5"/><path d="M70.9065 80.9505l.01105-8.8 8.8.01107-.01106 8.8z" class="st5"/><path d="M59.28945 46.13144l.01106-8.8 8.8.01107-.01106 8.79999z" class="st5"/></g></g></svg>