<svg xmlns="http://www.w3.org/2000/svg" role="img" viewBox="-18.20 -17.70 714.90 920.40"><title>GridPath logo</title><g id="g389" transform="translate(-1.322 -.99)"><g id="text688" transform="translate(-328.895 -1671.165) scale(3.21905)"><path id="path740" d="m 149.41399,791.74988 q -2.38282,1.09375 -5.21485,1.91406 -2.8125,0.80078 -5.44922,0.80078 -3.39843,0 -6.23047,-0.9375 -2.83203,-0.9375 -4.82421,-2.8125 -2.01172,-1.89453 -3.10547,-4.72656 -1.09375,-2.85156 -1.09375,-6.66016 0,-6.97265 4.0625,-10.99609 4.08203,-4.04297 11.1914,-4.04297 2.48047,0 5.0586,0.60547 2.59765,0.58594 5.58593,2.01172 v 4.58984 h -0.35156 q -0.60547,-0.46875 -1.75781,-1.23047 -1.15234,-0.76172 -2.26563,-1.26953 -1.34765,-0.60547 -3.0664,-0.99609 -1.69922,-0.41016 -3.86719,-0.41016 -4.88281,0 -7.73437,3.14453 -2.83204,3.125 -2.83204,8.47657 0,5.64453 2.96875,8.78906 2.96875,3.125 8.08594,3.125 1.875,0 3.73047,-0.3711 1.875,-0.37109 3.28125,-0.95703 v -7.1289 h -7.79297 v -3.39844 h 11.6211 z"/><path id="path742" d="m 169.49211,776.08582 h -0.19531 q -0.82031,-0.19532 -1.60156,-0.27344 -0.76172,-0.0977 -1.81641,-0.0977 -1.69922,0 -3.28125,0.76172 -1.58203,0.74219 -3.04688,1.93359 v 15.48829 h -3.67187 v -21.81641 h 3.67187 v 3.22266 q 2.1875,-1.75782 3.84766,-2.48047 1.67969,-0.74219 3.41797,-0.74219 0.95703,0 1.38672,0.0586 0.42969,0.0391 1.28906,0.17578 z"/><path id="path744" d="m 176.89445,768.42957 h -4.14062 v -3.8086 h 4.14062 z m -0.23437,25.46875 h -3.67188 v -21.81641 h 3.67188 z"/><path id="path746" d="m 201.62102,793.89832 h -3.67188 v -2.28516 q -1.58203,1.36719 -3.30078,2.12891 -1.71875,0.76171 -3.73047,0.76171 -3.90625,0 -6.21094,-3.00781 -2.28515,-3.00781 -2.28515,-8.33984 0,-2.77344 0.78125,-4.94141 0.80078,-2.16797 2.14844,-3.6914 1.32812,-1.48438 3.08593,-2.26563 1.77735,-0.78125 3.67188,-0.78125 1.71875,0 3.04687,0.37109 1.32813,0.35157 2.79297,1.11329 v -9.45313 h 3.67188 z m -3.67188,-5.3711 v -12.51953 q -1.48437,-0.66406 -2.65625,-0.91797 -1.17187,-0.2539 -2.55859,-0.2539 -3.08594,0 -4.80469,2.14843 -1.71875,2.14844 -1.71875,6.09375 0,3.88672 1.32813,5.91797 1.32812,2.01172 4.25781,2.01172 1.5625,0 3.16406,-0.68359 1.60156,-0.70313 2.98828,-1.79688 z"/><path id="path748" d="m 228.16399,773.60535 q 0,1.93359 -0.6836,3.59375 -0.66406,1.64062 -1.875,2.85156 -1.5039,1.50391 -3.55469,2.26562 -2.05078,0.74219 -5.17578,0.74219 h -3.86718 v 10.83985 h -3.86719 v -29.08204 h 7.89062 q 2.61719,0 4.4336,0.44922 1.8164,0.42969 3.22265,1.36719 1.66016,1.11328 2.5586,2.77344 0.91797,1.66015 0.91797,4.19922 z m -4.02344,0.0976 q 0,-1.5039 -0.52735,-2.61718 -0.52734,-1.11329 -1.60156,-1.81641 -0.9375,-0.60547 -2.14844,-0.85938 -1.1914,-0.27343 -3.02734,-0.27343 h -3.82812 v 11.62109 h 3.26171 q 2.34375,0 3.8086,-0.41016 1.46484,-0.42968 2.38281,-1.34765 0.91797,-0.9375 1.28906,-1.97266 0.39063,-1.03515 0.39063,-2.32422 z"/><path id="path750" d="m 248.94524,793.89832 h -3.65235 v -2.32422 q -0.48828,0.33203 -1.32812,0.9375 -0.82032,0.58593 -1.60157,0.9375 -0.91796,0.44922 -2.10937,0.74218 -1.19141,0.3125 -2.79297,0.3125 -2.94922,0 -5,-1.95312 -2.05078,-1.95313 -2.05078,-4.98047 0,-2.48047 1.05469,-4.00391 1.07422,-1.54296 3.04687,-2.42187 1.99219,-0.87891 4.78516,-1.19141 2.79297,-0.3125 5.99609,-0.46875 v -0.5664 q 0,-1.25 -0.44922,-2.07032 -0.42968,-0.82031 -1.25,-1.28906 -0.78125,-0.44922 -1.875,-0.60547 -1.09375,-0.15625 -2.28515,-0.15625 -1.44532,0 -3.22266,0.39063 -1.77734,0.37109 -3.67187,1.09375 h -0.19532 v -3.73047 q 1.07422,-0.29297 3.10547,-0.64453 2.03125,-0.35156 4.00391,-0.35156 2.30469,0 4.0039,0.39062 1.71875,0.37109 2.96875,1.28906 1.23047,0.89844 1.875,2.32422 0.64454,1.42578 0.64454,3.53516 z m -3.65235,-5.3711 V 782.453 q -1.67969,0.0977 -3.96484,0.29297 -2.26563,0.19531 -3.59375,0.56641 -1.58203,0.44922 -2.5586,1.40625 -0.97656,0.9375 -0.97656,2.59765 0,1.875 1.13281,2.83204 1.13282,0.9375 3.45704,0.9375 1.93359,0 3.53515,-0.74219 1.60156,-0.76172 2.96875,-1.81641 z"/><path id="path752" d="m 267.34367,793.703 q -1.03515,0.27344 -2.26562,0.44922 -1.21094,0.17578 -2.16797,0.17578 -3.33984,0 -5.07813,-1.79687 -1.73828,-1.79688 -1.73828,-5.76172 v -11.60156 h -2.48047 v -3.08594 h 2.48047 v -6.26953 h 3.67188 v 6.26953 h 7.57812 v 3.08594 h -7.57812 v 9.9414 q 0,1.71875 0.0781,2.69532 0.0781,0.95703 0.54688,1.79687 0.42969,0.78125 1.17187,1.15234 0.76172,0.35157 2.30469,0.35157 0.89844,0 1.875,-0.25391 0.97656,-0.27344 1.40625,-0.44922 h 0.19531 z"/><path id="path754" d="m 290.01945,793.89832 h -3.67187 v -12.42188 q 0,-1.50391 -0.17578,-2.8125 -0.17578,-1.32812 -0.64453,-2.07031 -0.48828,-0.82031 -1.40625,-1.21094 -0.91797,-0.41016 -2.38282,-0.41016 -1.5039,0 -3.14453,0.74219 -1.64062,0.74219 -3.14453,1.89453 v 16.28907 h -3.67187 v -30.39063 h 3.67187 v 10.99609 q 1.71875,-1.42578 3.55469,-2.22656 1.83594,-0.80078 3.76953,-0.80078 3.53516,0 5.39063,2.12891 1.85546,2.1289 1.85546,6.13281 z"/></g><g id="g618" stroke-width=".291"><path id="path632" fill="#dceaed" d="M 331.4909,680.84415 C 282.66863,679.20971 238.73781,668.74326 195.49091,648.44238 170.14596,636.54501 143.5291,619.38899 121.74545,600.9094 56.229544,545.33067 14.322425,468.14853 3.8135388,383.70908 1.7996986,367.52776 1.3127144,359.09684 1.3266388,340.65454 1.3388653,324.46094 1.5763949,319.32186 2.9334138,305.8909 8.3139984,252.63718 26.463758,201.14607 55.850681,155.7639 73.707408,128.1878 96.246937,102.60803 121.74545,80.980924 174.82895,35.957038 241.56476,8.0902693 310.4,2.204737 c 12.12706,-1.0368861 15.65021,-1.174333 30.25454,-1.1803088 15.23238,-0.00623 20.01967,0.1906406 32.14545,1.3219578 69.79718,6.51196 135.41525,34.30276 188.8,79.96124 12.90196,11.0347 27.43817,25.633464 38.28399,38.448794 11.93431,14.10146 23.03333,29.57783 32.31653,45.06176 9.45144,15.76459 18.52795,34.22552 25.14485,51.14267 20.70531,52.93638 27.73725,110.65424 20.45716,167.91187 -10.22289,80.40285 -49.59552,155.01245 -110.67526,209.72523 -56.9076,50.9756 -128.67214,80.92882 -205.29125,85.68486 -6.7847,0.42115 -24.65708,0.75177 -30.34511,0.56134 z"/><path id="path630" fill="#cadde1" d="m 332.07272,680.84383 c -1.6,-0.0534 -5.65818,-0.23721 -9.01818,-0.40847 C 225.91228,675.48333 135.91303,629.09366 75.00975,552.58181 35.605949,503.07944 10.946292,443.87953 3.5148189,380.94545 1.8320295,366.6946 1.3186458,357.29652 1.3218138,340.79999 1.3245376,326.61605 1.4953974,322.24869 2.4997467,310.6909 8.8010707,238.17685 38.400331,169.67447 87.220999,114.61818 93.985182,106.99004 107.70005,93.275565 115.2,86.639975 166.31735,41.413829 228.3728,12.89291 295.12727,3.9447159 c 16.47508,-2.2084252 27.29024,-2.8938925 45.67272,-2.8947462 15.7541,-7.302e-4 22.07029,0.285819 34.76364,1.577148 52.04189,5.2943594 101.32646,22.2104643 145.6,49.9747723 45.67377,28.642397 84.38292,68.35538 112.07598,114.98237 9.33266,15.71344 18.43808,34.51189 24.86028,51.32483 12.88957,33.7441 20.06635,67.82345 22.05457,104.72727 0.67026,12.44113 0.34671,32.14155 -0.74537,45.38182 -7.79197,94.47115 -54.39389,181.02318 -129.0091,239.60386 -18.17882,14.27226 -36.71342,25.98287 -57.89091,36.57682 -41.91557,20.96808 -85.94042,32.60823 -133.23636,35.22757 -5.59412,0.30982 -22.60122,0.5708 -27.2,0.4174 z m -86.98181,-204.63121 100.94545,-131.47267 163.27272,-0.006 163.27273,-0.006 v -3.78156 -3.78155 l -160.2921,-0.073 -160.2921,-0.073 29.60602,-38.54545 29.60602,-38.54546 125.59517,-0.0731 c 100.18452,-0.0583 125.59427,-0.14657 125.59066,-0.43636 -0.003,-0.19982 -0.3104,-1.47603 -0.68425,-2.83603 l -0.67971,-2.47273 -122.51578,-0.0731 c -67.38365,-0.0401 -122.51575,-0.13523 -122.51575,-0.21136 0,-0.0761 6.91707,-9.14142 15.37126,-20.14511 l 15.37126,-20.00671 8.70147,-0.19427 c 4.7858,-0.10685 49.67601,-0.5533 99.75601,-0.99211 50.08,-0.43882 91.08983,-0.82304 91.13295,-0.85383 0.0431,-0.0308 -0.286,-0.87208 -0.73141,-1.86952 l -0.8098,-1.81353 -8.57769,0.0291 c -10.93661,0.0371 -163.96142,1.40293 -176.66472,1.57678 -5.27782,0.0722 -9.50272,0.0186 -9.45455,-0.12004 0.0479,-0.13785 4.70438,-6.2627 10.34778,-13.6108 l 10.26074,-13.36017 6.46654,-0.16883 c 6.25588,-0.16333 122.29279,-0.7874 144.02236,-0.77458 l 10.71948,0.006 -0.59866,-0.94546 -0.59869,-0.94545 -12.30261,0.0769 c -51.034,0.31913 -134.72744,0.67857 -139.786,0.60036 l -6.17428,-0.0955 4.95246,-6.47273 4.95244,-6.47273 h 70.53093 c 38.792,0 70.53091,-0.10472 70.53091,-0.23272 0,-0.92838 -0.19121,-0.93091 -70.31272,-0.93091 -38.288,0 -69.61455,-0.0651 -69.61455,-0.14475 0,-0.0796 14.35014,-18.82648 31.88916,-41.65971 l 31.8892,-41.514963 -1.34374,-1.134199 c -0.73903,-0.623811 -1.34371,-1.371689 -1.34371,-1.661952 0,-0.905795 -0.33204,-1.448064 -0.88669,-1.448064 -0.29344,0 -0.61836,-0.137266 -0.72204,-0.305036 -0.12887,-0.208524 -0.3184,-0.197254 -0.59898,0.03562 -0.31479,0.261245 -0.5122,0.256235 -0.84684,-0.0215 -0.24,-0.199183 -0.43636,-0.246601 -0.43636,-0.105376 0,0.141227 -0.32745,0.609914 -0.72768,1.04153 -0.58423,0.63008 -2.49073,1.360966 -9.67273,3.708195 -7.84343,2.563406 -27.73332,7.867261 -161.50405,43.066825 L 216.6274,166.10909 h -78.63074 c -78.333004,0 -78.631916,0.002 -78.942115,0.58182 -0.311,0.5811 -0.218197,0.58184 75.989765,0.6015 45.96138,0.0119 76.06979,0.12472 75.71932,0.28383 -0.32,0.14527 -12.82181,3.4997 -27.78181,7.45429 l -27.2,7.19017 -49.6,0.23891 c -27.280003,0.1314 -51.188227,0.31494 -53.12939,0.40788 -3.423078,0.16387 -3.539509,0.19117 -3.865437,0.90651 -0.184827,0.40565 -0.298421,0.77226 -0.252431,0.81468 0.04599,0.0424 19.719982,-0.0442 43.719982,-0.19255 23.999996,-0.14832 46.167956,-0.23268 49.262126,-0.18746 l 5.62577,0.0822 -55.520687,14.61818 c -30.536378,8.04 -55.846821,14.61818 -56.245428,14.61818 -0.617469,0 -0.825946,0.26099 -1.408468,1.76328 -0.37605,0.9698 -0.623154,1.82385 -0.54912,1.89788 0.07403,0.074 20.476922,-0.0644 45.339752,-0.30769 24.862831,-0.24327 46.514241,-0.43244 48.114241,-0.42038 l 2.90909,0.0219 -54.254548,18.10967 -54.254545,18.10967 -0.756306,2.74009 c -0.415968,1.50705 -0.843917,3.10009 -0.950997,3.54009 l -0.194691,0.8 55.205542,0.0171 c 40.709475,0.0126 55.080415,0.10231 54.729005,0.34161 -0.26209,0.17847 -27.033,11.78896 -59.490904,25.80108 L 11.2,311.41821 l -0.175985,1.45451 c -0.09679,0.8 -0.155099,1.48352 -0.129571,1.51893 0.02553,0.0354 28.381084,-12.2046 63.012348,-27.20001 l 62.965938,-27.26437 61.96363,-0.0582 c 61.41407,-0.0577 61.95719,-0.0532 61.23636,0.50722 -0.4,0.31098 -27.30181,17.71363 -59.78181,38.67257 L 141.23636,337.156 75.563635,337.16 9.8909089,337.164 v 3.78112 3.78112 l 59.6837691,0.0734 59.683772,0.0734 -55.416831,35.75831 -55.416831,35.75835 0.493627,2.12346 c 0.271494,1.16791 0.716748,2.464 0.989453,2.88017 0.488695,0.74586 0.507046,0.74933 1.275797,0.24096 0.428984,-0.28369 27.416154,-17.70374 59.97149,-38.71124 l 59.191515,-38.19546 h 97.98929 c 78.31608,0 97.94465,0.073 97.76693,0.36363 -0.12227,0.2 -44.65731,58.21478 -98.96674,128.92172 -54.30942,70.70696 -98.75891,128.73736 -98.77664,128.95645 -0.0271,0.33544 5.20637,4.7099 5.64049,4.71464 0.08,0 45.57091,-59.16113 101.09091,-131.47109 z M 152.59636,336.89637 c 0.3023,-0.2923 115.35094,-74.56005 117.94909,-76.14005 l 1.6,-0.97301 64.67878,-8.7e-4 c 37.62408,-2.9e-4 64.63822,0.10745 64.58181,0.25792 -0.0533,0.14227 -13.38423,17.5531 -29.62423,38.69074 l -29.52727,38.43206 -94.96727,1.7e-4 c -57.71305,1.2e-4 -94.85886,-0.10467 -94.69091,-0.26708 z M 24.436363,253.74899 c 0.24,-0.0928 25.44,-8.53755 55.999999,-18.76613 L 136,216.38544 l 39.70909,-0.39917 c 21.84,-0.21954 43.70182,-0.40168 48.58182,-0.40475 l 8.87272,-0.006 -44.44328,19.19385 -44.44328,19.19385 -60.138538,-0.023 c -33.076191,-0.0126 -59.942169,-0.0989 -59.702169,-0.19168 z M 152,253.55866 c 0.48,-0.21021 20.50909,-8.87602 44.50909,-19.25736 l 43.63636,-18.87516 17.89091,-0.18418 c 39.34051,-0.405 72.86432,-0.61418 72.71505,-0.45372 -0.0867,0.0932 -13.75575,8.94583 -30.37565,19.67245 l -30.21798,19.50294 -59.51526,-0.0114 c -49.40985,-0.009 -59.36706,-0.0763 -58.64252,-0.39359 z m 129.46909,0.15035 C 281.62109,253.56897 295.36,244.68053 312,233.95693 l 30.25454,-19.49747 36.94545,-0.31719 c 20.32,-0.17445 41.64105,-0.39826 47.3801,-0.49735 7.19043,-0.12415 10.40128,-0.0859 10.32728,0.12318 -0.0591,0.16684 -6.9801,9.27189 -15.3801,20.23344 l -15.27273,19.9301 -62.53091,0.016 c -35.76166,0.009 -62.4126,-0.093 -62.25454,-0.23863 z M 42.856348,213.19623 c 0.189007,-0.10208 25.085469,-6.69523 55.325469,-14.65145 l 54.981813,-14.46586 37.52728,-0.22919 c 20.64,-0.12606 37.55328,-0.20508 37.58508,-0.17559 0.0318,0.0295 -19.26972,6.52301 -42.89226,14.43007 l -42.95008,14.37647 -39.58046,0.36203 c -60.248141,0.55108 -60.363925,0.55176 -59.996842,0.35352 z m 148.707282,-15.23956 43.05455,-14.36012 36.65454,-0.17306 c 31.43948,-0.14843 36.53039,-0.11546 35.78182,0.23171 -0.48,0.22262 -15.19153,6.58712 -32.69232,14.14334 l -31.81959,13.73858 -40.90768,0.40404 c -22.49922,0.22222 -43.65677,0.39765 -47.01677,0.38984 l -6.10909,-0.0142 43.05454,-14.36012 z m 58.61818,13.26224 c 0.24,-0.13986 14.90182,-6.50787 32.58182,-14.15112 l 32.14546,-13.89683 32.58181,-0.19057 c 17.92,-0.10482 32.61653,-0.16722 32.65894,-0.13867 0.0424,0.0285 -0.61213,0.50819 -1.45454,1.06588 -1.82674,1.20933 -40.63852,26.22293 -41.17915,26.53933 -0.2061,0.12063 -18.72974,0.40058 -41.16363,0.62211 -48.53659,0.47928 -46.72586,0.4734 -46.17071,0.14987 z m 98.8864,-1.10871 c 0.38752,-0.28061 10.05903,-6.54884 21.49222,-13.9294 l 20.78761,-13.41921 33.78054,-0.20962 c 18.57928,-0.1153 34.25567,-0.16394 34.83647,-0.10808 l 1.05595,0.10156 -10.16413,13.23637 c -5.59029,7.27999 -10.32003,13.39192 -10.51052,13.58205 -0.25984,0.25933 -8.63098,0.42101 -33.50999,0.6472 -18.24,0.16584 -38.85818,0.37078 -45.81818,0.45543 -12.11494,0.14734 -12.6245,0.13215 -11.94997,-0.3563 z M 161.30909,181.97967 c 0.16,-0.074 12.53091,-3.38059 27.49091,-7.34801 l 27.2,-7.21348 24.58181,-0.0798 c 13.52,-0.0439 27.26546,-0.0439 30.54546,0 l 5.96363,0.0798 -21.52727,7.19952 -21.52727,7.19953 -36.50909,0.14848 c -20.08,0.0817 -36.37818,0.0879 -36.21818,0.014 z m 79.34394,-0.32968 c 0.0796,-0.0796 9.5543,-3.31309 21.05493,-7.18558 l 20.91022,-7.04089 30.9737,-0.0818 c 17.56486,-0.0464 30.85129,0.0277 30.69091,0.1711 -0.32114,0.28722 -30.44666,13.2937 -31.73542,13.70153 -0.85577,0.27081 -72.16158,0.70293 -71.89434,0.43568 z m 79.49242,-0.69363 c 0.32,-0.13372 7.45454,-3.23451 15.85454,-6.89065 l 15.27273,-6.64753 26.4642,-0.0788 c 18.33435,-0.0546 26.3712,0.0143 26.16143,0.22403 -0.16652,0.16652 -4.83264,3.22411 -10.36916,6.79463 l -10.06636,6.49185 -13.16099,0.19321 c -18.13175,0.26618 -50.86554,0.20954 -50.15639,-0.0868 z m 74.47273,-0.22792 c 0.16,-0.16025 4.80727,-3.22061 10.32727,-6.80081 l 10.03636,-6.50945 28.7529,-0.0769 c 19.64442,-0.0525 28.72125,0.0181 28.65298,0.22294 -0.055,0.16492 -2.31081,3.17772 -5.01292,6.69509 l -4.91296,6.39524 h -16.05568 c -8.83063,0 -24.1609,0.0822 -34.06729,0.18263 -12.02624,0.12194 -17.9149,0.0858 -17.72066,-0.10873 z M 222.10909,165.94985 c 0.59271,-0.23086 280.02664,-73.730817 280.22763,-73.708726 0.11479,0.01263 -49.60207,16.638076 -110.48189,36.945456 l -110.69063,36.92251 -29.67301,-0.023 c -16.32016,-0.0126 -29.5421,-0.0739 -29.3821,-0.13627 z m 65.6,-0.0502 c 2.59994,-0.97394 245.30053,-81.85977 245.38111,-81.779182 0.0602,0.06024 -1.79502,1.340145 -4.12279,2.844224 l -4.23232,2.734691 -88.47662,38.202867 -88.47666,38.20286 -30.25454,-0.021 c -16.64,-0.0115 -30.05818,-0.0946 -29.81818,-0.18446 z m 67.22423,0.0917 c 0.25585,-0.24842 154.55514,-66.781735 154.6516,-66.685246 0.056,0.05602 -23.1607,15.109596 -51.59272,33.452396 l -51.69461,33.35054 h -25.74275 c -14.15848,0 -25.68817,-0.053 -25.62152,-0.11769 z m 62.59863,-0.0567 c 0.419,-0.41898 110.9147,-71.619513 111.00585,-71.529247 0.0558,0.05525 -12.24966,16.202937 -27.34546,35.883747 l -27.44689,35.78328 -28.19395,0.0183 c -15.50665,0.0101 -28.11546,-0.0602 -28.01955,-0.15609 z m 92.43168,-66.880156 c 0,-0.08 0.0654,-0.145455 0.14545,-0.145455 0.08,0 0.14546,0.06546 0.14546,0.145455 0,0.08 -0.0655,0.145454 -0.14546,0.145454 -0.08,0 -0.14545,-0.06545 -0.14545,-0.145454 z"/><path id="path628" fill="#abc6cb" d="M 333.67272,680.8344 C 271.82778,679.39853 213.14274,661.95234 161.32971,629.59941 126.12814,607.61896 94.726218,578.85573 69.624284,545.59999 45.655735,513.84578 27.040958,477.22876 15.719218,439.56363 9.3363559,418.32913 5.1518606,397.30897 2.9207909,375.27272 1.661856,362.83822 1.3442662,355.92302 1.3442662,340.94545 c 0,-14.97757 0.3175898,-21.89277 1.5765247,-34.32727 C 8.3672924,252.82312 26.139475,201.9687 55.306434,156.71866 78.813378,120.24966 110.19396,87.556272 145.6,62.647694 166.09019,48.232596 188.69214,35.831982 212.07869,26.173998 236.9478,15.903764 264.26431,8.417921 291.07485,4.5258103 c 9.46286,-1.3737301 18.37946,-2.2957019 30.23424,-3.1262021 6.90804,-0.48395091 32.33361,-0.48540007 39.27272,-0.00224 16.59543,1.1555192 30.48175,2.8993426 44.50909,5.5893961 C 472.00555,19.819118 533.43452,52.52478 581.52726,100.924 c 51.79814,52.12823 85.10825,118.82191 95.5417,191.29418 0.59718,4.14807 1.28166,9.94129 2.06229,17.45454 1.11206,10.70333 1.64203,34.71186 1.04035,47.12728 -3.03227,62.56587 -22.2494,121.09681 -56.73443,172.79999 -12.69978,19.0407 -25.95264,35.14988 -42.61426,51.79872 -26.76698,26.74647 -55.15016,47.22962 -88.60474,63.94284 -38.54315,19.25539 -79.17018,30.62423 -122.76363,34.35351 -9.96646,0.8526 -26.06063,1.36506 -35.78182,1.13934 z M 244.36363,477.17125 c 55.12,-71.78606 100.59174,-130.95299 101.04832,-131.48206 l 0.83014,-0.96192 h 163.16986 163.16986 v -3.78156 -3.78156 l -160.28527,-0.073 -160.28529,-0.073 29.55247,-38.47273 29.55246,-38.47273 h 125.8185 c 100.53068,0 125.79215,-0.0731 125.68753,-0.36363 -0.072,-0.2 -0.44325,-1.57455 -0.82498,-3.05455 L 661.1032,253.9636 H 538.52735 c -67.41672,0 -122.53221,-0.10598 -122.47886,-0.23553 0.0533,-0.12954 6.99491,-9.2076 15.42574,-20.17348 l 15.32876,-19.93796 13.6167,-0.18787 c 7.48916,-0.10334 52.36576,-0.53365 99.72576,-0.95626 47.35999,-0.42261 86.15866,-0.81138 86.21925,-0.86395 0.0606,-0.0526 -0.24291,-0.92631 -0.67444,-1.94167 l -0.78461,-1.8461 -13.14374,0.1218 c -7.22906,0.067 -51.04192,0.47366 -97.36192,0.90371 -46.32,0.43005 -84.26534,0.75022 -84.32296,0.71149 -0.0576,-0.0387 4.56296,-6.1497 10.26801,-13.57995 l 10.3728,-13.50954 13.15017,-0.17977 c 7.23258,-0.0989 43.45562,-0.32761 80.49562,-0.50829 37.04,-0.18069 67.38228,-0.35925 67.42725,-0.39681 0.045,-0.0376 -0.15136,-0.48697 -0.43636,-0.99869 l -0.51817,-0.93041 -11.2,0.16546 c -15.68904,0.23177 -146.88962,0.86025 -147.04549,0.70437 -0.0703,-0.0703 2.0544,-2.97019 4.7216,-6.44419 l 4.84942,-6.31636 h 70.77362 c 38.92547,0 70.76942,-0.0982 70.76433,-0.21818 -0.005,-0.12 -0.18316,-0.44727 -0.39569,-0.72727 -0.36617,-0.48236 -4.04731,-0.50909 -70.09984,-0.50909 -38.34237,0 -69.7134,-0.0603 -69.7134,-0.13395 0,-0.0737 14.33455,-18.79497 31.85455,-41.60289 17.52,-22.80791 31.85454,-41.577636 31.85454,-41.710494 0,-0.132858 -0.488,-0.588786 -1.08445,-1.01317 -0.72332,-0.514644 -1.18639,-1.134842 -1.39052,-1.862327 -0.19959,-0.711424 -0.50531,-1.128521 -0.87915,-1.199418 -0.31523,-0.05978 -0.66136,-0.248768 -0.76917,-0.419971 -0.13795,-0.219069 -0.31319,-0.214028 -0.59156,0.01702 -0.22371,0.185655 -0.56236,0.22521 -0.77946,0.09103 -0.25472,-0.157434 -0.69187,0.085 -1.29932,0.720632 -0.80445,0.841722 -1.99147,1.311624 -9.78819,3.874798 -7.86368,2.585187 -26.2249,7.484183 -161.45454,43.07801 l -152.58182,40.1611 -78.58472,-1.9e-4 -78.584721,-1.8e-4 -0.476527,0.72727 -0.476529,0.72727 76.152157,0.0192 76.15216,0.0192 -27.49091,7.29018 -27.4909,7.29018 -33.16364,0.22728 c -18.24,0.12501 -42.094818,0.2394 -53.010711,0.25422 l -19.847074,0.027 -0.465286,0.89976 c -0.255907,0.49487 -0.416384,0.94866 -0.356617,1.00843 0.05977,0.0598 21.987983,-0.0281 48.729367,-0.19526 26.741381,-0.16716 48.904391,-0.26095 49.251131,-0.20843 0.66333,0.10048 -108.664803,28.9697 -110.737935,29.24149 -1.165669,0.15282 -1.222301,0.21171 -1.93769,2.01481 l -0.736928,1.85738 3.246781,-0.002 c 1.785731,-8.7e-4 23.39394,-0.19924 48.018242,-0.44066 24.62431,-0.24141 44.81441,-0.39598 44.86691,-0.34348 0.0525,0.0525 -24.15284,8.19098 -53.789644,18.08551 -29.636799,9.89453 -53.987889,18.07922 -54.113532,18.1882 -0.236363,0.205 -1.948631,6.26864 -1.951664,6.91141 -0.0014,0.28837 11.283911,0.37797 54.961484,0.43636 l 54.963196,0.0735 -59.294565,25.59697 -59.294567,25.59698 -0.1706,1.44043 c -0.09383,0.79227 -0.127978,1.48309 -0.07588,1.53519 0.05209,0.0521 28.450099,-12.14778 63.106675,-27.11083 l 63.011957,-27.20554 61.71245,0.0734 61.71245,0.0734 -59.44443,38.4 -59.44443,38.4 -65.818176,0.0746 -65.8181811,0.0746 v 3.77925 3.77923 l 59.6661171,0.0734 59.66611,0.0734 -55.40968,35.75055 -55.409688,35.75054 0.42762,1.92219 c 0.453755,2.03965 1.25819,3.70658 1.741391,3.60843 0.160294,-0.0325 27.17881,-17.4096 60.041148,-38.61565 l 59.749699,-38.55643 97.96364,-0.003 c 53.88,0 97.96363,0.0373 97.96363,0.086 0,0.0487 -44.62973,58.19226 -99.17719,129.20797 l -99.1772,129.11945 2.95902,2.27805 c 1.62746,1.25291 3.02447,2.27625 3.10447,2.27409 0.08,-0.003 45.24363,-58.738 100.36363,-130.52407 z M 152.59636,336.90414 c 0.152,-0.14272 26.98182,-17.48742 59.62182,-38.54377 l 59.34545,-38.28428 64.9705,-0.002 64.9705,-0.002 -1.43412,1.81818 c -0.78877,1 -14.04445,18.24727 -29.45711,38.32727 -15.41262,20.08 -28.16401,36.60527 -28.33637,36.72282 -0.45859,0.31276 -190.01378,0.27593 -189.68067,-0.0369 z m -72.450907,-101.73338 56.145457,-18.74703 44.94545,-0.4414 c 24.72,-0.24277 46.43522,-0.40356 48.25604,-0.35732 l 3.31059,0.0841 -44.32877,19.13037 -44.32877,19.13038 -60.072724,-0.026 L 24,253.91779 Z m 71.448367,18.66572 c 0.0699,-0.0699 20.02266,-8.73064 44.33939,-19.24601 l 44.21224,-19.11886 38.54545,-0.38653 c 21.2,-0.21259 41.58767,-0.35552 45.30595,-0.31762 l 6.76047,0.0689 -30.3241,19.56331 -30.32413,19.56331 -59.32122,2.9e-4 c -32.62666,1.8e-4 -59.26399,-0.0569 -59.19405,-0.12682 z m 129.8746,-0.1169 c 0.85307,-0.75563 60.20837,-38.8378 60.86702,-39.05209 0.70281,-0.22865 94.30944,-1.18977 94.5689,-0.971 0.0574,0.0484 -6.81707,9.09557 -15.27662,20.10484 l -15.38104,20.01685 -62.52765,0.0734 c -34.39019,0.0404 -62.40298,-0.037 -62.25061,-0.17199 z M 97.454544,198.77887 152,184.35665 l 12.94545,-0.236 c 16.45977,-0.30007 62.87344,-0.4704 62.60375,-0.22974 -0.11206,0.1 -19.36526,6.56353 -42.78489,14.36341 l -42.58115,14.18159 -39.45522,0.38774 c -21.700366,0.21326 -44.037032,0.38543 -49.637032,0.38259 l -10.181818,-0.005 54.545454,-14.42221 z m 94.276616,-0.79578 42.93118,-14.3338 36.29039,-0.2152 c 19.95973,-0.11836 36.34443,-0.16116 36.41049,-0.0951 0.066,0.0661 -14.49114,6.42822 -32.34931,14.13816 l -32.46938,14.01808 -43.81772,0.43102 c -24.09975,0.23707 -45.19227,0.42194 -46.87227,0.41085 L 148.8,212.3169 Z m 58.59611,13.27283 c 0.16,-0.15065 14.75636,-6.52155 32.43636,-14.15756 l 32.14546,-13.88366 30.6909,-0.12255 c 16.88,-0.0674 31.50909,-0.15873 32.50909,-0.20295 1,-0.0442 1.81653,-0.009 1.81452,0.0788 -0.003,0.0876 -5.07476,3.4267 -11.27273,7.42027 -6.19799,3.99356 -15.79141,10.1774 -21.31877,13.74186 l -10.04972,6.48084 -30.09574,0.28261 c -16.55265,0.15545 -36.18301,0.36218 -43.62301,0.45941 -8.46237,0.1106 -13.41835,0.0742 -13.23636,-0.0971 z m 98.34039,-0.88773 c 0.45277,-0.41213 41.5207,-26.86565 42.31415,-27.25627 0.99029,-0.48752 69.93722,-0.92358 69.77647,-0.4413 -0.0581,0.17417 -4.72742,6.33726 -10.37632,13.69575 l -10.27078,13.37908 -4.41923,-1.9e-4 c -6.44771,-2.9e-4 -63.03084,0.53347 -76.1152,0.71801 -6.34298,0.0895 -11.06662,0.0483 -10.90909,-0.0951 z M 161.6,181.96847 c 0.16,-0.0779 12.48969,-3.35082 27.39931,-7.27321 l 27.10841,-7.13163 30.20068,0.0228 30.20069,0.0228 -21.16519,7.08119 -21.16519,7.0812 -36.43481,0.16917 c -20.03915,0.0931 -36.3039,0.10548 -36.1439,0.0276 z m 79.27272,-0.37553 c 0.24,-0.0883 9.7101,-3.28156 21.04466,-7.09622 l 20.6083,-6.93574 30.72188,0.0741 30.72189,0.074 -15.71616,6.78179 -15.71616,6.78179 -8.99584,0.12592 c -15.38087,0.2153 -63.12819,0.36337 -62.66857,0.19435 z m 79.15151,-0.47652 c 0.0667,-0.066 7.11892,-3.14301 15.67168,-6.83789 l 15.55048,-6.71795 26.26985,0.0743 26.26982,0.0743 -10.11122,6.54545 -10.11121,6.54546 -13.67273,0.18034 c -16.25524,0.2144 -50.03898,0.3066 -49.86667,0.13608 z m 74.52695,-0.3464 c 0.07,-0.07 4.69041,-3.07005 10.26761,-6.66681 l 10.14036,-6.53958 h 28.77422 c 22.98063,0 28.71564,0.0732 28.48323,0.36364 -0.16005,0.2 -2.34656,3.04727 -4.85891,6.32727 -2.51234,3.28 -4.72104,6.04494 -4.90824,6.1443 -0.38005,0.20172 -68.099,0.57192 -67.89827,0.37118 z M 222.4,165.94465 c 0.82318,-0.33532 277.77649,-73.137867 277.87065,-73.043689 0.0609,0.0609 -49.21326,16.558889 -109.49815,36.662189 l -109.60887,36.55147 -29.52727,-0.0257 c -16.24,-0.0142 -29.39636,-0.0791 -29.23636,-0.14424 z m 65.30909,0.0429 c 0,-0.19767 244.67927,-81.696151 244.82754,-81.547872 0.0746,0.07458 -1.65193,1.279948 -3.83668,2.678598 -3.89571,2.493972 -5.67925,3.28 -92.50354,40.766924 l -88.53125,38.22391 h -29.97804 c -16.48791,0 -29.97803,-0.0547 -29.97803,-0.12156 z m 67.92727,-0.31032 c 4.87037,-2.14527 152.91296,-66.022233 153.45454,-66.212083 0.68978,-0.241798 0.69725,-0.23344 0.14546,0.162048 -0.32,0.229347 -23.61865,15.281595 -51.77475,33.449455 l -51.19293,33.03246 -25.75253,-0.0237 c -21.60544,-0.0199 -25.61198,-0.0856 -24.87979,-0.40815 z m 61.86205,0.29105 c 0.37149,-0.3715 110.95013,-71.634382 111.03575,-71.557478 0.0538,0.04832 -12.25446,16.167468 -27.35165,35.820348 l -27.44943,35.7325 -28.1892,0.0742 c -15.50406,0.0408 -28.12454,0.009 -28.04547,-0.0696 z M 500.7515,92.606058 c 0.10667,-0.106665 0.28122,-0.106665 0.3879,0 0.10664,0.106668 0.0194,0.193941 -0.19395,0.193941 -0.21333,0 -0.3006,-0.08727 -0.19395,-0.193941 z"/><path id="path626" fill="#90b0b6" d="m 334.25454,680.83097 c -44.55811,-0.99246 -86.37707,-9.9945 -127.12727,-27.36564 -7.47362,-3.18589 -22.3063,-10.38921 -29.23636,-14.19831 C 133.7137,614.98507 95.631335,581.41672 66.017779,540.65454 33.741198,496.22678 12.700408,444.48564 4.7977308,390.10908 2.3473262,373.2484 1.3418534,358.90213 1.3418534,340.79999 c 0,-12.1956 0.2602075,-18.84706 1.1437383,-29.23636 C 8.1715143,244.70383 33.3898,181.51253 75.437724,128.76216 83.523431,118.6184 91.170689,110.10263 101.07478,100.21347 117.54534,83.767737 133.12257,70.97702 152.43636,58.039653 196.38874,28.598096 246.44969,9.9536528 298.84125,3.5133771 314.4203,1.5983089 324.1588,1.0317237 341.23636,1.046835 c 14.63534,0.01295 21.48171,0.3334276 33.74545,1.5796213 61.42185,6.2414458 118.97647,28.5230357 168.14545,65.0955527 64.29644,47.824491 109.5941,116.404241 128.1065,193.950711 3.44256,14.42061 6.1013,30.25891 7.59366,45.23637 1.88658,18.93384 2.10889,42.25268 0.58485,61.34833 -4.34904,54.49187 -21.63093,106.71563 -50.68917,153.17649 -8.12198,12.98615 -18.14065,26.72655 -28.12008,38.56608 -11.47442,13.61318 -26.27427,28.46685 -40.16827,40.31433 -30.9081,26.35546 -67.68343,47.55069 -106.03476,61.11246 -27.71979,9.80224 -55.5872,15.78441 -85.09091,18.2661 -9.86333,0.82964 -25.7485,1.34539 -35.05454,1.13809 z m -89.05549,-204.61664 100.8851,-131.34161 163.24882,-0.073 163.24884,-0.073 v -3.78155 c 0,-2.07986 -0.0327,-3.814 -0.0727,-3.85362 -0.04,-0.0396 -72.09478,-0.13783 -160.12174,-0.21818 l -160.04899,-0.14612 29.43081,-38.32454 29.43083,-38.32456 125.77658,-0.003 c 100.49519,-0.002 125.75063,-0.0758 125.64759,-0.36636 -0.0709,-0.2 -0.43674,-1.57439 -0.81285,-3.0542 l -0.68387,-2.69057 -122.5522,-0.0731 -122.55221,-0.0731 15.41528,-20.07272 15.41524,-20.07273 2.68233,-0.0688 c 1.47525,-0.0378 46.33623,-0.46996 99.69105,-0.96028 53.35482,-0.49032 97.06257,-0.94531 97.12835,-1.01107 0.0658,-0.0658 -0.25117,-0.99188 -0.70429,-2.05803 l -0.82386,-1.93846 -11.94083,0.18606 c -22.90045,0.35683 -182.2857,1.7118 -182.44648,1.55101 -0.11436,-0.11437 18.15383,-24.26434 20.23107,-26.7448 0.0958,-0.11439 36.3682,-0.41945 80.60532,-0.67791 44.23712,-0.25846 80.46833,-0.50713 80.5138,-0.55261 0.0455,-0.0455 -0.15049,-0.50494 -0.43549,-1.02103 l -0.51817,-0.93835 -23.12727,0.17785 c -41.19968,0.31682 -135.0226,0.80395 -135.10906,0.70148 -0.0462,-0.0548 2.09077,-2.939 4.74886,-6.40936 l 4.83293,-6.30974 70.76364,-0.0175 c 38.92,-0.01 70.75947,-0.11572 70.75438,-0.23572 -0.005,-0.12 -0.18295,-0.447 -0.39526,-0.72667 -0.36532,-0.4812 -4.12739,-0.51243 -70.09422,-0.58182 l -69.70819,-0.0734 30.28497,-39.41818 c 16.65676,-21.68 31.05594,-40.42727 31.99823,-41.660605 l 1.71325,-2.242426 -1.30162,-0.957574 c -0.71586,-0.526664 -1.30667,-1.175959 -1.31293,-1.442871 -0.0308,-1.315875 -0.96805,-2.035252 -2.77498,-2.129795 -0.64619,-0.03381 -1.09926,0.19989 -1.74545,0.900294 -0.76774,0.832166 -1.88917,1.279276 -9.32247,3.716925 -7.26014,2.380846 -30.00623,8.445376 -161.56175,43.075332 L 216.36742,166.10909 H 137.87293 59.378446 l -0.458467,0.65454 -0.458467,0.65455 75.924608,0.14545 75.92461,0.14546 -27.40991,7.21196 -27.40991,7.21197 -49.16364,0.2875 c -27.039999,0.15812 -50.858343,0.31638 -52.929656,0.35167 l -3.766019,0.0642 -0.570325,0.9774 -0.570321,0.9774 32.40907,-0.17815 c 17.824989,-0.098 40.067251,-0.24043 49.427251,-0.31654 10.5773,-0.086 16.74293,-0.0367 16.29091,0.13042 -1.89109,0.699 -108.56264,28.61164 -109.955068,28.77184 l -1.591435,0.18308 -0.788585,1.89091 -0.788585,1.89091 6.452748,0.0756 c 3.549009,0.0416 25.107289,-0.10602 47.907289,-0.32797 22.799996,-0.22194 41.495556,-0.36767 41.545676,-0.32384 0.0501,0.0438 -24.18777,8.17227 -53.861975,18.06319 l -53.953103,17.98349 -0.901662,3.39113 c -0.495914,1.86512 -0.901662,3.53881 -0.901662,3.71932 0,0.24248 14.378571,0.32946 55.054544,0.33303 l 55.054548,0.005 -59.387353,25.64527 -59.387348,25.64526 -0.190811,1.43843 c -0.104946,0.7911 -0.125024,1.50417 -0.04462,1.58458 0.08041,0.0804 28.530415,-12.10973 63.22224,-27.08918 l 63.076052,-27.23537 61.55927,0.0734 61.55926,0.0734 -59.38516,38.32195 -59.38517,38.32194 -65.776409,0.005 -65.7764063,0.005 -0.1921475,2.06743 c -0.1056811,1.13708 -0.1064017,2.90435 -0.0016,3.92727 l 0.1905464,1.85984 H 69.484329 c 50.379761,0 59.447701,0.0611 59.087101,0.3982 -0.23429,0.21902 -25.13507,16.33286 -55.335066,35.80852 -30.2,19.47567 -54.906847,35.49647 -54.904105,35.60178 0.0027,0.10533 0.243142,1.10807 0.534222,2.22833 0.518679,1.99619 1.14405,3.34499 1.550909,3.34499 0.112589,0 26.954838,-17.26036 59.649444,-38.35636 32.694606,-21.096 59.726386,-38.50712 60.070626,-38.69135 0.46936,-0.2512 25.06394,-0.31668 98.34192,-0.26182 l 97.71605,0.0732 -99.17677,129.11906 c -91.2902,118.85149 -99.13434,129.14979 -98.64317,129.50502 0.29348,0.21228 1.64633,1.24541 3.00633,2.29588 1.36,1.05048 2.57609,1.87695 2.70243,1.8366 0.12634,-0.0403 45.628,-59.17708 101.1148,-131.41495 z M 153.17818,336.61835 c 0.152,-0.13993 26.89295,-17.42022 59.42433,-38.40064 l 59.14796,-38.14627 64.73488,0.0734 64.73486,0.0734 -29.44102,38.32727 -29.44104,38.32727 h -94.71817 c -54.09412,0 -94.59963,-0.10909 -94.4418,-0.25437 z m -72.813018,-101.41773 56.074258,-18.71717 48.04232,-0.46454 c 26.42327,-0.2555 48.07798,-0.42889 48.12156,-0.3853 0.0436,0.0436 -19.85549,8.68567 -44.22017,19.20463 l -44.29942,19.12539 -59.896401,-0.0229 -59.8964,-0.0229 z m 71.925748,18.35847 c 0.48,-0.20997 20.49066,-8.85416 44.46813,-19.20931 l 43.59541,-18.82756 41.20459,-0.40709 c 22.66251,-0.2239 43.02437,-0.41094 45.24855,-0.41566 l 4.04395,-0.009 -30.43738,19.63636 -30.43737,19.63636 -59.27931,-0.0114 c -49.18146,-0.009 -59.13064,-0.0764 -58.40657,-0.39316 z m 130.79126,-0.80067 c 1.0248,-0.66286 14.75783,-9.52991 30.51782,-19.70454 l 28.65455,-18.49934 47.05626,-0.41496 c 25.88093,-0.22823 47.12794,-0.34325 47.21562,-0.25559 0.0877,0.0876 -6.7394,9.14143 -15.17123,20.11951 L 406.0246,253.96363 H 343.62175 281.21888 Z M 44.218181,212.89445 c 0.56,-0.15919 25.3208,-6.68426 55.024002,-14.50016 l 54.005817,-14.21072 37.19418,-0.16584 37.19418,-0.16585 -42.59117,14.24712 -42.59118,14.24712 -45.554276,0.44475 c -52.257565,0.51019 -54.124831,0.51386 -52.681553,0.10358 z m 105.018179,-0.6234 c 0.08,-0.0817 19.19273,-6.53134 42.47273,-14.33259 l 42.32727,-14.18409 36.64578,-0.22534 c 20.15518,-0.12394 36.67439,-0.19675 36.70933,-0.1618 0.0571,0.0571 -31.52726,13.73567 -55.60966,24.0834 l -9.30909,3.99994 -35.92727,0.30656 c -19.76,0.16861 -40.77091,0.38663 -46.69091,0.48449 -5.92,0.0979 -10.69818,0.1111 -10.61818,0.0294 z m 101.23636,-1.05982 c 0.24,-0.13564 14.85661,-6.47089 32.48136,-14.07833 l 32.04498,-13.8317 32.39139,-0.19601 c 22.21845,-0.13444 32.29999,-0.10191 32.10045,0.1036 -0.16,0.16477 -9.72753,6.3863 -21.2612,13.8256 l -20.97033,13.52602 -37.5024,0.3177 c -20.62634,0.17473 -40.25152,0.37666 -43.61152,0.44872 -3.41406,0.0732 -5.91659,0.0222 -5.67273,-0.1156 z m 98.76364,-1.0886 c 0.16,-0.15335 9.71636,-6.35549 21.23636,-13.78254 l 20.94546,-13.50373 34.61818,-0.19114 c 19.04,-0.10513 34.65739,-0.15319 34.70531,-0.10681 0.10304,0.0997 -20.28859,26.69197 -20.65926,26.94127 -0.13949,0.0938 -9.96786,0.25712 -21.84076,0.36288 -55.36221,0.49317 -69.2866,0.54968 -69.00529,0.28007 z m -187.483,-28.10996 c 0.0757,-0.071 12.39126,-3.35107 27.36801,-7.28906 l 27.23047,-7.15998 30.07862,0.0239 30.07863,0.0239 -21.23637,7.07695 -21.23636,7.07694 -36.21027,0.18825 c -19.91565,0.10353 -36.14838,0.13016 -36.07273,0.0592 z m 79.11936,-0.34317 c 0,-0.0516 9.46001,-3.24709 21.02225,-7.10116 l 21.02224,-7.00741 30.47394,0.0741 30.47392,0.0741 -15.71916,6.78245 -15.71912,6.78245 -32.94067,0.13106 c -18.11737,0.0721 -34.21703,0.18217 -35.77703,0.24464 -1.56,0.0625 -2.83637,0.0714 -2.83637,0.0198 z m 79.56364,-0.70096 c 0.32,-0.14037 7.42723,-3.21459 15.79386,-6.83161 l 15.21201,-6.57639 26.10968,0.0743 26.10964,0.0743 -10.19441,6.57376 -10.19442,6.57377 -31.70909,0.18357 c -18.25396,0.10568 -31.4622,0.0753 -31.12727,-0.0717 z m 74.55985,-0.36488 c 0.11209,-0.10799 4.68361,-3.08617 10.15893,-6.61818 l 9.95517,-6.42185 h 28.51755 c 15.68469,0 28.51095,0.0982 28.50287,0.21819 -0.008,0.12 -2.14595,2.96727 -4.75081,6.32727 l -4.73612,6.10909 -7.97643,0.20151 c -10.92701,0.27605 -59.92349,0.42711 -59.67116,0.18397 z M 223.70909,165.6565 c 2.08673,-0.62488 275.53896,-72.56776 275.74309,-72.545584 0.1013,0.011 -49.01975,16.440094 -109.1579,36.509094 l -109.34205,36.48908 -29.27612,-0.0303 c -25.03824,-0.0259 -29.08662,-0.087 -27.96702,-0.4223 z m 185.8909,-40.29942 c 67.12,-22.38837 122.29818,-40.779787 122.61818,-40.869829 1.08978,-0.306641 -6.68151,4.618252 -9.01818,5.715081 -1.28,0.600832 -41.3204,17.925648 -88.9787,38.499588 l -86.65143,37.40717 -30.00312,-0.023 -30.00311,-0.0229 z m -54.37576,40.63424 c 0.0963,-0.0935 149.17631,-64.50713 152.99394,-66.104683 0.56,-0.234342 0.88728,-0.305967 0.72728,-0.159165 -0.16,0.146801 -23.35573,15.142718 -51.54607,33.324268 l -51.25518,33.05735 h -25.52058 c -14.03634,0 -25.46604,-0.053 -25.39939,-0.11777 z m 116.51645,-34.95665 c 29.90263,-19.29092 54.87432,-35.404533 55.49268,-35.808021 0.61836,-0.403488 1.02004,-0.558182 0.89262,-0.343768 -0.12741,0.214415 -12.46906,16.328029 -27.42589,35.808029 l -27.19421,35.41818 h -28.06682 -28.06679 z m 28.04113,-38.089217 c 0,-0.08 0.0654,-0.145454 0.14545,-0.145454 0.08,0 0.14546,0.06545 0.14546,0.145454 0,0.08 -0.0655,0.145455 -0.14546,0.145455 -0.08,0 -0.14545,-0.06546 -0.14545,-0.145455 z"/><path id="path624" fill="#66949c" d="M 335.99999,680.8111 C 292.98964,680.22338 249.65114,671.24875 210.18181,654.75644 193.74156,647.88686 176.55114,639.01291 161.49696,629.6246 117.67147,602.29352 80.275533,564.93518 52.829884,521.06678 24.26783,475.41399 6.8868171,423.12412 2.4827025,369.59999 0.95158663,350.99202 0.95179777,330.19179 2.4832857,312.14545 10.37783,219.11978 55.526725,134.32999 128.43636,75.605104 180.60258,33.587953 244.74915,7.9128362 311.85454,2.1906907 c 18.78528,-1.60183965 39.2208,-1.60135835 58.18182,0.00137 66.78615,5.645268 129.94952,30.8607973 182.55394,72.8776023 10.77688,8.607831 17.13763,14.338842 28.21952,25.425617 10.72207,10.72683 16.6208,17.25209 24.8176,27.45361 41.78808,52.0083 67.1497,114.5523 73.33527,180.8511 1.13062,12.11846 1.32827,16.91791 1.32379,32.14546 -0.004,14.64634 -0.17894,19.14839 -1.17888,30.4 -8.36338,94.10612 -55.45464,180.25152 -130.30761,238.37547 -49.08986,38.11866 -107.27709,61.83217 -169.16363,68.9406 -4.82479,0.55418 -12.45146,1.20933 -19.2,1.64933 -4.19116,0.27326 -18.94496,0.57528 -24.43637,0.50025 z M 245.1178,476.36363 346.00477,345.01818 h 162.82836 c 89.5556,0 163.03543,-0.0794 163.28852,-0.17659 0.3879,-0.14885 0.46016,-0.78827 0.46016,-4.07246 v -3.89588 l -160.10636,-0.073 -160.10632,-0.073 29.41542,-38.31831 29.41544,-38.31829 125.77699,-0.009 125.77699,-0.009 -0.1916,-0.8 c -0.10539,-0.44 -0.46114,-1.81439 -0.7906,-3.05421 l -0.59898,-2.2542 -122.56203,-0.0731 -122.56204,-0.0731 14.97315,-19.49091 c 8.23523,-10.72 15.20183,-19.75646 15.48134,-20.08103 0.50577,-0.58733 0.93763,-0.59391 91.11156,-1.38678 49.83188,-0.43816 94.7463,-0.8785 99.80983,-0.97854 l 9.20643,-0.18188 -0.81879,-1.92225 -0.8188,-1.92224 -1.71572,-0.0852 c -0.94365,-0.0469 -44.69673,0.31631 -97.22906,0.80706 -52.53233,0.49075 -95.5664,0.83921 -95.63124,0.77437 -0.0648,-0.0648 4.50289,-6.14933 10.15051,-13.52107 l 10.26843,-13.40317 10.61818,-0.0198 c 25.32247,-0.0473 150.19205,-0.86539 150.31138,-0.98472 0.0723,-0.0723 -0.0779,-0.53641 -0.33376,-1.03128 l -0.4653,-0.89979 -9.66526,0.007 c -5.31589,0.004 -40.88244,0.1939 -79.03677,0.42242 -38.15432,0.22851 -69.42184,0.36515 -69.48337,0.30363 -0.0615,-0.0615 2.03154,-2.90251 4.6512,-6.31333 l 4.76306,-6.20148 70.90845,-0.0733 70.90847,-0.0733 -0.47575,-0.72609 -0.47575,-0.72609 -69.76166,-0.0733 -69.76163,-0.0733 31.96745,-41.6 c 17.58211,-22.88 31.96751,-41.665458 31.96753,-41.745458 3e-5,-0.08 -0.56113,-0.567913 -1.24709,-1.08425 -0.89132,-0.670935 -1.32451,-1.251956 -1.51826,-2.036364 -0.15444,-0.625184 -0.45894,-1.114426 -0.70749,-1.136739 -0.24,-0.02156 -0.50182,-0.06793 -0.58182,-0.10308 -0.08,-0.03515 -0.6423,-0.09484 -1.24957,-0.13264 -0.91485,-0.05695 -1.20218,0.06897 -1.6761,0.734531 -0.49367,0.693323 -1.77591,1.202339 -9.36861,3.719118 -7.92751,2.627762 -23.93158,6.898313 -161.98039,43.223092 l -153.18378,40.30723 h -78.4059 -78.405885 l -0.331116,0.72672 -0.331118,0.72672 75.702599,0.0733 75.70261,0.0733 -27.34546,7.18015 -27.34545,7.18015 -30.10909,0.16587 c -16.56,0.0912 -40.336162,0.24717 -52.835915,0.34654 l -22.726818,0.18068 -0.48343,1.01376 -0.483427,1.01375 46.482975,-0.18249 c 25.565635,-0.10037 47.726615,-0.24273 49.246615,-0.31635 1.52,-0.0736 2.63272,-0.0747 2.47272,-0.003 -0.93436,0.422 -109.988503,28.94783 -110.667005,28.94783 -0.453961,0 -0.950921,0.16364 -1.104352,0.36364 -0.373487,0.48684 -1.643314,3.70796 -1.503031,3.81267 0.06092,0.0455 16.539848,-0.0804 36.619848,-0.27974 20.079999,-0.19932 41.48364,-0.36182 47.56364,-0.36111 l 11.05454,0.001 -53.491204,17.85617 c -29.420163,9.82089 -53.555434,17.92039 -53.633937,17.9989 -0.0785,0.0785 -0.576074,1.7853 -1.105714,3.79289 l -0.962981,3.65015 54.943388,0.0735 54.943388,0.0736 -58.926887,25.43756 c -32.409792,13.99066 -59.10752,25.6182 -59.328289,25.83898 -0.231825,0.23179 -0.401398,1.00241 -0.401398,1.82411 v 1.42272 l 2.254546,-0.97105 c 1.24,-0.53408 29.728278,-12.83488 63.307286,-27.3351 l 61.052742,-26.36403 61.41461,0.0734 61.41462,0.0734 -59.39517,38.32663 -59.39518,38.32663 -65.835817,0.0734 -65.8358186,0.0734 v 3.92727 3.92727 l 59.4090436,0.14546 59.409042,0.14545 -54.998063,35.48704 C 43.31654,400.1681 18.510109,416.23 18.44007,416.34331 c -0.174903,0.283 0.753777,3.98179 1.246681,4.96535 0.220504,0.44 0.539387,0.8 0.708628,0.8 0.169241,0 27.189214,-17.34565 60.044384,-38.54589 l 59.736677,-38.54586 97.88006,0.0731 97.88008,0.0732 -99.00771,128.87273 c -54.45422,70.87999 -98.98177,128.96872 -98.9501,129.08604 0.0755,0.27951 5.73583,4.58668 6.02769,4.58668 0.12341,0 45.62351,-59.10545 101.11134,-131.34545 z M 153.04242,336.75464 c 0.0667,-0.0649 26.8192,-17.34493 59.45007,-38.4 l 59.32886,-38.28192 h 64.68558 c 53.76812,0 64.64634,0.0654 64.45298,0.38717 -0.12795,0.21295 -13.3772,17.49295 -29.44274,38.4 l -29.21012,38.01283 h -94.69291 c -52.08111,0 -94.63838,-0.0531 -94.57172,-0.11808 z M 25.018181,253.74899 c 0.24,-0.0928 25.374545,-8.5082 55.854545,-18.7009 l 55.418184,-18.5322 48,-0.43746 c 26.4,-0.24061 48.02991,-0.41404 48.06647,-0.38542 0.0366,0.0286 -19.86162,8.65277 -44.21818,19.16475 l -44.28466,19.1127 -59.63636,-0.0264 c -32.799999,-0.0145 -59.439999,-0.10229 -59.199999,-0.19508 z m 126.860599,0.10416 c 0.0667,-0.0608 20.0194,-8.69552 44.3394,-19.18835 l 44.21818,-19.07786 44.93996,-0.42927 c 24.71697,-0.2361 44.97457,-0.39467 45.01684,-0.35238 0.0423,0.0423 -13.54842,8.87021 -30.20157,19.61761 l -30.27846,19.54073 h -59.07778 c -32.49278,0 -59.02323,-0.0497 -58.95657,-0.11048 z M 281.76,253.70944 c 0.152,-0.1398 13.81291,-8.98342 30.35758,-19.65249 l 30.08119,-19.3983 44.30572,-0.43056 c 24.36814,-0.2368 45.63395,-0.39318 47.25734,-0.34751 l 2.95162,0.083 -15.36061,20 -15.36064,20 h -62.25429 c -35.52442,0 -62.13562,-0.10914 -61.97791,-0.25419 z M 43.781817,213.09613 c 0.16,-0.0739 24.901818,-6.60264 54.981818,-14.50836 l 54.690905,-14.37405 36.94546,-0.16813 36.94545,-0.16813 -42.49902,14.20361 -42.49901,14.20361 -37.21007,0.32798 c -20.465546,0.18039 -42.70826,0.39318 -49.42826,0.47288 -6.72,0.0797 -12.087273,0.0845 -11.927273,0.0106 z m 105.745453,-0.85742 c 0,-0.0646 19.11519,-6.48923 42.4782,-14.2769 l 42.4782,-14.1594 36.28543,-0.21801 c 19.957,-0.11991 36.31689,-0.19674 36.35532,-0.17074 0.0384,0.026 -14.49333,6.33404 -32.29276,14.01786 l -32.3626,13.97059 -44.36181,0.33986 c -24.39899,0.18693 -45.31089,0.40161 -46.47089,0.47706 -1.16,0.0754 -2.10909,0.0843 -2.10909,0.0197 z m 133.38182,-14.95197 32.2909,-13.95228 32.29091,-0.17298 c 28.08911,-0.15047 32.21522,-0.11868 31.70909,0.24423 -0.32,0.22946 -9.89544,6.42468 -21.2788,13.76715 l -20.69699,13.34993 -22.50301,0.19385 c -12.37664,0.10661 -31.86301,0.26776 -43.30301,0.35811 l -20.8,0.16427 z m 66.20605,12.92977 c 0.0667,-0.0609 9.60933,-6.22898 21.20593,-13.7068 l 21.08468,-13.59602 34.62441,-0.1958 c 19.0434,-0.10768 34.65809,-0.17864 34.69929,-0.15768 0.10449,0.0531 -19.62525,25.74794 -20.29871,26.43573 -0.53134,0.54268 -1.69283,0.57072 -38.45294,0.92827 -40.94685,0.39827 -53.05187,0.4652 -52.86266,0.2923 z M 162.07567,181.982 c 0.0584,-0.0533 12.35533,-3.31927 27.32656,-7.25766 l 27.22041,-7.16071 29.79777,0.0228 29.79777,0.0228 -20.8,6.9686 -20.8,6.9686 -10.18182,0.13456 c -14.07925,0.18606 -62.49069,0.41966 -62.36069,0.30091 z M 262.4,174.54466 l 20.8,-6.98292 30.23927,0.0737 30.23927,0.0737 -15.69382,6.75359 -15.69382,6.75358 -35.34545,0.15566 -35.34545,0.15565 z m 57.9577,6.54077 c 0.0433,-0.0362 7.09995,-3.0941 15.68157,-6.79536 l 15.60291,-6.72958 25.9746,0.0743 25.9746,0.0743 -8.99569,5.8023 c -4.94764,3.19127 -9.58479,6.15817 -10.30479,6.59311 l -1.30909,0.7908 -31.35139,0.12797 c -17.24323,0.0704 -31.31595,0.0984 -31.27272,0.0622 z m 74.72107,-0.5356 c 0.0667,-0.0576 4.61877,-3.00305 10.11575,-6.54545 l 9.99451,-6.44075 h 28.47822 c 15.66301,0 28.4782,0.063 28.4782,0.1399 0,0.0769 -2.14901,2.93535 -4.77554,6.35201 l -4.77556,6.21212 -18.56989,0.19319 c -19.94231,0.20747 -49.14429,0.26056 -48.94569,0.089 z m -35.80605,-50.52751 c 75.28,-19.82859 137.00364,-36.04457 137.16364,-36.035503 0.16,0.0091 -48.3228,16.240293 -107.73952,36.069383 L 280.66638,166.10909 251.53319,166.0917 222.4,166.07431 Z m 50.46479,-4.65585 c 67.03563,-22.39156 122.01745,-40.709165 122.18181,-40.705794 0.16437,0.0034 -1.33751,1.078351 -3.33751,2.388835 -3.54682,2.324021 -5.82292,3.32688 -92.42115,40.721139 l -88.78478,38.33844 -29.76067,-0.0154 -29.76067,-0.0153 z m 11.35339,12.21326 c 36.32,-15.68504 70.87476,-30.60749 76.78836,-33.16099 5.91358,-2.5535 10.6263,-4.523472 10.47273,-4.37772 -0.1536,0.14575 -23.23246,15.07069 -51.28637,33.16654 l -51.0071,32.90153 -25.50199,-0.006 -25.50199,-0.006 66.03636,-28.51826 z m -3.18545,28.27565 c 0.7337,-0.67355 110.3627,-71.220408 110.17053,-70.895341 -0.12178,0.206034 -12.4574,16.298861 -27.41242,35.761831 l -27.19101,35.38722 h -27.92172 c -15.90211,0 -27.80276,-0.10921 -27.64538,-0.25371 z m 79.06423,-72.085686 c 0.10668,-0.106664 0.28122,-0.106664 0.3879,0 0.10664,0.106668 0.0194,0.193941 -0.19395,0.193941 -0.21333,0 -0.3006,-0.08727 -0.19395,-0.193941 z m 0.87273,-0.290909 c 0.10667,-0.106664 0.28122,-0.106664 0.38789,0 0.10665,0.106668 0.0194,0.193941 -0.19394,0.193941 -0.21333,0 -0.3006,-0.08727 -0.19395,-0.193941 z m 1.06667,-0.242423 c 0,-0.08 0.0655,-0.145454 0.14546,-0.145454 0.08,0 0.14545,0.06545 0.14545,0.145454 0,0.08 -0.0654,0.145455 -0.14545,0.145455 -0.08,0 -0.14546,-0.06546 -0.14546,-0.145455 z m 33.45455,-8.727272 c 0,-0.08 0.0655,-0.145455 0.14545,-0.145455 0.08,0 0.14546,0.06546 0.14546,0.145455 0,0.08 -0.0655,0.145454 -0.14546,0.145454 -0.08,0 -0.14545,-0.06545 -0.14545,-0.145454 z"/><path id="path622" fill="#407a83" d="m 326.98181,680.55097 c -21.15819,-1.12954 -36.00916,-2.92835 -53.84078,-6.52131 C 233.51474,666.04517 195.85178,651.02117 161.0388,629.31132 143.04212,618.08834 123.98124,603.364 108.36577,588.62195 73.832921,556.02059 47.076168,517.76674 28.523769,474.47272 12.841857,437.87729 3.8854545,398.9698 1.7371587,358.10909 1.3352927,350.46557 1.3325247,331.44543 1.7321841,323.92727 3.4385311,291.82845 9.0182035,262.22732 18.950373,232.58181 41.05494,166.60418 83.095908,108.80191 139.05454,67.450189 189.81245,29.941646 249.86759,7.3206483 312.2909,2.1971739 c 18.20998,-1.49460824 37.92861,-1.54672652 55.70909,-0.1472448 34.23136,2.6943108 69.54575,11.0838849 101.23637,24.0505499 16.61457,6.798086 36.10129,16.722133 50.03636,25.482118 18.76791,11.798054 32.09865,21.804195 48.87273,36.684162 5.24672,4.654264 20.46565,19.892861 25.30053,25.333241 29.39741,33.07888 51.38982,69.60169 66.12759,109.81818 9.9308,27.09918 16.19954,54.29841 19.10846,82.90909 1.31293,12.91334 1.57789,18.72619 1.57789,34.61818 0,15.89297 -0.26514,21.70935 -1.5781,34.61818 -6.75747,66.43939 -32.83424,129.20372 -75.12198,180.81152 -7.38894,9.01742 -14.06874,16.35607 -23.03095,25.30254 -22.52614,22.48658 -46.76599,40.81106 -74.63799,56.42374 -5.74851,3.22007 -21.47668,11.07089 -27.34545,13.64969 -36.61615,16.08945 -73.26519,25.17588 -114.03636,28.27313 -5.55756,0.4222 -32.42232,0.79927 -37.52728,0.52672 z m -81.45454,-204.60625 100.50909,-130.89574 163.27272,-0.0154 163.27273,-0.0154 v -4.07273 -4.07273 h -160 c -88,0 -160,-0.0588 -160,-0.13076 0,-0.0719 13.20306,-17.31922 29.34013,-38.32727 l 29.3401,-38.19648 125.71445,-0.0731 c 69.14292,-0.0402 125.71409,-0.1711 125.71368,-0.29091 0,-0.41691 -1.475,-5.71781 -1.63354,-5.87638 -0.0878,-0.0878 -55.17155,-0.22511 -122.40829,-0.30511 l -122.24864,-0.14545 15.22519,-19.82163 15.22517,-19.82163 7.92043,-0.17793 c 4.35622,-0.0978 48.17496,-0.51067 97.37496,-0.91735 49.19999,-0.40669 90.59313,-0.83235 91.98472,-0.9459 l 2.53018,-0.20647 -0.83941,-1.89091 -0.83942,-1.89091 -7.50895,-0.0722 c -4.12992,-0.0397 -47.8944,0.3073 -97.2544,0.77119 -49.36,0.46389 -89.7682,0.82274 -89.79601,0.79746 -0.0276,-0.0253 4.57841,-6.07655 10.23601,-13.44724 l 10.28658,-13.40126 75.29126,-0.34657 c 41.41018,-0.19062 77.66783,-0.42373 80.57256,-0.51803 l 5.28134,-0.17146 -0.58278,-0.98774 -0.58281,-0.98773 -19.24398,0.023 c -10.58418,0.0127 -46.1458,0.18416 -79.0258,0.38114 -32.88,0.19698 -59.81242,0.34148 -59.84983,0.32112 -0.0374,-0.0204 2.0884,-2.84278 4.72401,-6.27205 l 4.792,-6.23502 70.82304,-0.14546 70.82301,-0.14545 -0.54857,-0.72728 -0.5486,-0.72727 -69.49585,-0.14545 -69.49588,-0.14546 31.80651,-41.40814 c 17.49359,-22.77447 31.80652,-41.502861 31.80652,-41.618646 0,-0.115787 -0.58409,-0.648162 -1.29798,-1.18306 -0.71389,-0.534897 -1.24925,-1.051433 -1.18964,-1.147857 0.21341,-0.345301 -0.70412,-2.088373 -1.0681,-2.029152 -0.20437,0.03325 -0.60629,-0.04182 -0.89318,-0.166822 -0.2869,-0.125001 -0.59866,-0.150255 -0.6928,-0.05612 -0.0941,0.09413 -0.38304,0.05794 -0.64201,-0.08043 -0.35287,-0.188567 -0.64919,-0.01638 -1.18278,0.687398 -0.65134,0.859022 -1.46894,1.189841 -9.6,3.884349 -8.03973,2.664238 -23.45341,6.778327 -161.49413,43.10465 l -152.60606,40.1593 h -78.5826 -78.582593 l -0.593149,0.63667 c -0.326234,0.35017 -0.593152,0.7429 -0.593152,0.87273 0,0.12983 34.069091,0.24417 75.709094,0.25408 l 75.70909,0.018 -27.34546,7.21893 -27.34545,7.21893 -42.90909,0.18281 c -23.600002,0.10055 -47.376005,0.26332 -52.835563,0.36173 l -9.926472,0.17892 -0.485996,1.01914 c -0.267299,0.56054 -0.447659,1.04437 -0.400803,1.07519 0.04686,0.0308 17.823377,-0.0516 39.503377,-0.18326 21.679997,-0.13161 43.472157,-0.20577 48.427017,-0.16478 l 9.00883,0.0745 L 91.045194,198.92 c -29.994856,7.88599 -54.884534,14.33326 -55.310396,14.32727 -0.691604,-0.01 -0.859689,0.20676 -1.573943,2.02728 -0.439808,1.12099 -0.740405,2.09742 -0.667992,2.16984 0.07242,0.0724 19.173417,-0.0564 42.446673,-0.2863 23.273254,-0.22987 44.605914,-0.41051 47.405914,-0.40141 l 5.09091,0.0165 -53.334243,17.8036 c -32.266522,10.77096 -53.431728,17.9778 -53.581027,18.24458 -0.135728,0.24254 -0.635365,1.94058 -1.110304,3.77344 l -0.863525,3.33246 54.837549,0.14545 54.83755,0.14546 -58.966411,25.45454 c -37.176991,16.04853 -59.069313,25.64632 -59.244894,25.97353 -0.153169,0.28547 -0.238771,1.09402 -0.190226,1.79683 l 0.08826,1.27785 63.272726,-27.3237 63.272725,-27.32367 61.29678,0.0723 61.29677,0.0723 -59.40127,38.32727 -59.40126,38.32727 H 75.42278 9.5999998 v 4.07203 4.07203 l 59.3990452,0.0734 59.399045,0.0734 -55.028075,35.49091 c -30.543156,19.69911 -55.031339,35.67625 -55.035409,35.90746 -0.0129,0.73303 1.196581,4.90915 1.569482,5.41911 0.321316,0.43942 6.7673,-3.64259 60.378264,-38.23549 L 140.30089,345.0181 h 97.7041 c 53.73726,0 97.7041,0.0697 97.7041,0.15493 0,0.0852 -44.45449,58.03005 -98.78775,128.76632 -54.33325,70.73623 -98.84801,128.7684 -98.92168,128.9604 -0.0737,0.19197 1.27289,1.4254 2.99235,2.74095 3.06046,2.34155 3.13575,2.37934 3.57622,1.79578 0.24747,-0.32786 45.67904,-59.4992 100.95904,-131.49184 z M 154.6458,335.76279 c 0.94481,-0.61045 27.72586,-17.89074 59.51345,-38.40064 l 57.79562,-37.29072 64.56527,0.0734 64.56526,0.0734 -29.41541,38.31831 -29.41545,38.31828 -94.66328,0.009 -94.66328,0.009 1.71782,-1.10994 z M 80.727271,235.14495 136,216.66301 175.56363,216.2603 c 21.76,-0.22149 43.27729,-0.37067 47.81619,-0.33151 l 8.25256,0.0712 -43.62798,18.83636 -43.62799,18.83636 -59.460932,-0.0229 -59.460933,-0.0229 z m 72.290909,18.26243 c 0.24,-0.13621 20.00727,-8.69295 43.92727,-19.01499 l 43.49091,-18.76734 44.94545,-0.40838 c 24.72,-0.2246 44.96346,-0.40206 44.98546,-0.39434 0.0221,0.008 -13.51002,8.75221 -30.07119,19.43221 l -30.11118,19.41818 -58.80154,-0.009 c -32.50675,-0.005 -58.60641,-0.11959 -58.36518,-0.2565 z m 129.32296,0.009 c 0.80454,-0.74944 59.71256,-38.54737 60.20431,-38.62967 0.68535,-0.11471 93.88107,-1.00222 93.98824,-0.89506 0.0401,0.0401 -6.76343,8.97464 -15.11903,19.85448 l -15.19198,19.78153 -62.0793,0.0734 c -36.12884,0.0427 -61.96347,-0.0345 -61.80224,-0.18467 z M 44.072727,213.08993 c 0.16,-0.0735 24.68797,-6.55642 54.506599,-14.40649 l 54.215694,-14.27286 7.74794,-0.1309 c 4.26137,-0.072 20.96976,-0.18432 37.12976,-0.24962 l 29.38182,-0.11873 -42.47272,14.17626 -42.47273,14.17626 -44.509092,0.34338 c -24.479999,0.18886 -46.603635,0.4048 -49.163635,0.47986 -2.56,0.0751 -4.523636,0.0763 -4.363636,0.003 z m 148.329303,-15.13801 42.14748,-14.07499 35.96161,-0.1965 c 19.77888,-0.10808 35.89507,-0.12295 35.81376,-0.0331 -0.0813,0.0899 -14.41585,6.33802 -31.85455,13.8847 l -31.7067,13.72123 -38.10909,0.39363 c -20.96,0.2165 -41.77454,0.39055 -46.25454,0.3868 l -8.14546,-0.007 42.14749,-14.07498 z m 58.65251,13.16856 c 0.08,-0.0862 14.54546,-6.36999 32.14546,-13.96393 l 31.99999,-13.80717 32.24448,-0.14262 32.24451,-0.14263 -0.97178,0.60982 c -0.53446,0.33539 -10.03409,6.4554 -21.11031,13.60001 l -20.13856,12.99019 -5.02508,0.1703 c -2.76378,0.0937 -15.23598,0.23929 -27.71598,0.32361 -12.48,0.0843 -29.69455,0.23564 -38.25455,0.33625 -8.56,0.10061 -15.49818,0.11239 -15.41818,0.0262 z m 98.48727,-1.05321 c 0.152,-0.143 9.61341,-6.27988 21.02537,-13.6375 l 20.74897,-13.37751 27.10557,-0.201 c 14.90805,-0.11055 30.47794,-0.15913 34.59977,-0.10795 l 7.4942,0.0931 -10.05368,13.09039 c -5.52954,7.19971 -10.15266,13.18935 -10.27362,13.31032 -0.15867,0.15864 -73.70662,1.05208 -89.48294,1.08701 -0.85795,0.002 -1.32829,-0.1019 -1.16364,-0.25681 z M 162.18182,181.94223 c 0.16,-0.0547 12.51631,-3.31228 27.45846,-7.23904 l 27.16757,-7.13956 29.55971,0.0228 29.55971,0.0228 -20.8,6.96852 -20.8,6.96852 -32.87273,0.13975 c -18.08,0.0769 -34.37818,0.18831 -36.21818,0.24767 -1.84,0.0594 -3.21454,0.0632 -3.05454,0.008 z m 79.99999,-0.57794 c 0.16,-0.0708 9.4337,-3.20547 20.60823,-6.96601 l 20.31731,-6.83733 30.186,0.0741 30.18598,0.0741 -15.59422,6.72194 -15.59421,6.72195 -35.2,0.16999 c -19.36,0.0935 -35.06909,0.11209 -34.90909,0.0413 z m 78.10909,-0.27338 c 0,-0.08 0.0655,-0.14546 0.14546,-0.14546 0.08,0 0.14545,0.0655 0.14545,0.14546 0,0.08 -0.0654,0.14545 -0.14545,0.14545 -0.08,0 -0.14546,-0.0654 -0.14546,-0.14545 z m 0.87631,-0.23718 c 0.082,-0.0868 6.99287,-3.11333 15.35753,-6.72555 l 15.20849,-6.56767 25.84294,0.0743 25.84297,0.0743 -10.07323,6.51703 -10.07319,6.51704 -31.12727,0.13422 c -17.12,0.0738 -31.06019,0.0632 -30.97824,-0.0236 z m 74.26091,-0.36267 c 0.12547,-0.13436 4.64184,-3.09546 10.03637,-6.58021 l 9.80823,-6.33593 28.46153,-0.006 28.46152,-0.006 -0.82516,1.11619 c -0.45385,0.61391 -2.65405,3.49391 -4.88934,6.4 l -4.06417,5.2838 -11.49946,2.2e-4 c -6.32472,1.1e-4 -21.44856,0.0837 -33.60856,0.18585 -12.16,0.10211 -22.00642,0.0757 -21.88096,-0.0586 z M 226.32727,165.08662 c 6.27438,-1.74895 268.00125,-70.563974 268.07883,-70.485123 0.0484,0.04918 -47.84596,16.095733 -106.43182,35.659033 l -106.51974,35.56961 -28.8,-0.0271 -28.8,-0.0271 2.47273,-0.68926 z m 62.83636,0.51472 c 2.08183,-0.81538 242.65536,-80.871968 242.45111,-80.6814 -0.1481,0.138182 -1.77475,1.22229 -3.61475,2.409129 -3.10205,2.000887 -9.77707,4.934717 -91.74368,40.323501 l -88.39819,38.16561 -29.56544,-0.023 c -16.26098,-0.0126 -29.36905,-0.0999 -29.12905,-0.19387 z m 67.63636,-0.21537 c 0.48,-0.21161 34.57563,-14.93688 75.76806,-32.72281 41.19241,-17.78593 75.03241,-32.41405 75.2,-32.50693 2.19313,-1.215507 -7.95767,5.38115 -50.84855,33.04467 l -50.5714,32.61728 -25.21042,-0.0237 c -21.16675,-0.0199 -25.07043,-0.0854 -24.33769,-0.40848 z m 61.68579,0.17969 c 0.15282,-0.14051 23.51421,-15.24191 51.91421,-33.55867 28.4,-18.31676 52.97818,-34.171312 54.61818,-35.232336 1.64,-1.061021 2.98176,-1.898464 2.98171,-1.860983 -6e-5,0.03748 -12.21787,15.973599 -27.15064,35.413599 l -27.15054,35.34545 -27.74537,0.0742 c -15.9433,0.0426 -27.6272,-0.0345 -27.46755,-0.18127 z m 76.44754,-71.214147 c 0.10667,-0.106665 0.28122,-0.106665 0.38789,0 0.10665,0.106667 0.0194,0.19394 -0.19395,0.19394 -0.21332,0 -0.30059,-0.08727 -0.19394,-0.19394 z m 0.87272,-0.290909 c 0.10668,-0.106665 0.28122,-0.106665 0.3879,0 0.10665,0.106667 0.0194,0.19394 -0.19395,0.19394 -0.21332,0 -0.30059,-0.08727 -0.19395,-0.19394 z m 1.06668,-0.242424 c 0,-0.08 0.0654,-0.145454 0.14545,-0.145454 0.08,0 0.14546,0.06545 0.14546,0.145454 0,0.08 -0.0655,0.145455 -0.14546,0.145455 -0.08,0 -0.14545,-0.06546 -0.14545,-0.145455 z"/><path id="path620" fill="#2a5158" d="m 327.70909,680.55179 c -25.75407,-1.2766 -47.0238,-4.33502 -69.76284,-10.03131 C 218.54463,660.65005 180.31502,643.22254 147.05454,619.96889 130.10613,608.11961 115.6859,596.01582 100.93071,581.2543 77.977503,558.29122 59.625256,533.95682 43.655199,505.30908 40.262638,499.22335 33.011741,484.60136 30.094874,477.96363 14.857129,443.28802 5.5003007,406.11778 2.4786391,368.25742 1.0077629,349.82786 1.1845576,325.749 2.9183985,308.36363 7.9448639,257.96283 22.822842,211.97481 48.093349,168.72727 66.109931,137.89399 90.184103,108.8316 117.53494,84.897252 146.16142,59.846608 179.03311,39.646978 214.30996,25.429067 248.83798,11.512965 285.63872,3.4566449 323.78181,1.4637823 c 7.30668,-0.3817514 26.43349,-0.384637 34.06645,-0.00514 38.24011,1.9012344 75.68962,10.1488217 110.51537,24.3390457 19.93242,8.121744 42.09044,19.838816 59.78182,31.612394 50.21402,33.417343 90.40863,79.025938 116.94696,132.699008 17.80719,36.01454 28.56916,72.62042 33.14132,112.72727 2.42153,21.24142 2.73886,45.90141 0.86851,67.49091 -2.9652,34.22723 -10.78731,66.8939 -23.57952,98.47272 -6.95313,17.16451 -16.34638,35.57658 -26.43019,51.80681 -33.2425,53.50493 -81.26531,97.05818 -137.89254,125.05867 -40.33998,19.94694 -81.40765,31.00754 -127.56363,34.35622 -5.82723,0.42278 -30.69132,0.78964 -35.92727,0.5301 z m 35.4909,-8.39838 c 51.13158,-3.66699 98.24387,-17.89355 141.67273,-42.78114 32.8656,-18.83413 62.70385,-43.55887 87.51985,-72.52117 40.51497,-47.2843 67.12806,-105.71278 76.08038,-167.03292 2.0318,-13.91715 3.52489,-31.73208 3.5266,-42.07797 0,-2.09562 0.093,-2.6953 0.4368,-2.82723 0.60829,-0.23342 0.65016,-7.68555 0.0445,-7.91799 -0.30365,-0.11651 -0.43703,-1.60448 -0.59249,-6.60905 -0.66947,-21.55313 -3.30138,-42.26528 -8.04759,-63.3314 -0.63084,-2.8 -1.26735,-5.50919 -1.41443,-6.02041 -0.18918,-0.65742 -0.16832,-0.96304 0.0713,-1.04408 0.45929,-0.15533 -0.86546,-5.43267 -1.51276,-6.02642 -0.26167,-0.24 -1.11124,-2.66182 -1.88797,-5.38182 -2.80105,-9.80888 -8.05899,-24.91322 -11.79627,-33.88678 -0.67965,-1.63186 -1.03232,-2.8318 -0.86307,-2.93641 0.37143,-0.22955 -1.04178,-3.46625 -1.76809,-4.04953 -0.29885,-0.24 -1.29737,-2.13818 -2.21894,-4.21818 -0.92154,-2.08 -3.73841,-7.87273 -6.25972,-12.87273 -2.52128,-5 -4.46505,-9.09091 -4.31945,-9.09091 0.44873,0 -0.65364,-1.9829 -1.1787,-2.12021 -0.27168,-0.071 -1.09784,-1.22669 -1.8359,-2.56812 -0.73807,-1.34142 -2.25327,-3.9444 -3.3671,-5.7844 -1.11383,-1.84 -1.91142,-3.38684 -1.77239,-3.43742 0.39351,-0.14318 -0.32699,-1.47769 -0.89516,-1.65802 -0.27927,-0.0886 -1.57804,-1.85557 -2.88617,-3.92652 -6.99351,-11.07189 -17.10618,-24.78343 -26.17227,-35.48639 -6.64547,-7.84529 -10.18432,-11.65734 -19.05475,-20.52582 -10.57254,-10.570207 -16.22639,-15.681343 -27.14525,-24.539635 -1.64,-1.330505 -2.98182,-2.538479 -2.98182,-2.68439 0,-0.145911 -0.30438,-0.381015 -0.67639,-0.522452 -0.37199,-0.141438 -2.49926,-1.617304 -4.72728,-3.279698 C 522.59493,62.620755 507.78623,53.453724 489.45454,44.213762 462.34623,30.550007 436.25902,21.485211 406.6909,15.454994 386.16011,11.267881 367.99906,9.389866 345.30909,9.1075626 324.92776,8.8539827 310.72453,9.765231 291.78181,12.541753 199.7888,26.0256 116.64953,79.161459 64.699536,157.67428 c -3.929303,5.93842 -5.019208,7.63846 -6.899615,10.76208 -21.977635,36.50789 -36.35296,75.00407 -43.398438,116.21818 -1.523639,8.91287 -3.308762,23.17382 -3.768922,30.10909 -0.7167878,10.80303 -0.8495892,14.87284 -0.8495892,26.03636 0,19.31599 1.1010252,33.62828 4.0282672,52.36364 1.320516,8.45175 4.57258,24.82095 5.519411,27.78182 0.230242,0.72 0.963422,3.40363 1.629288,5.96363 1.496774,5.75453 3.826647,13.47448 6.145714,20.36364 20.115604,59.75654 57.23965,112.89899 106.647578,152.66417 2.12427,1.70967 4.21611,3.43657 4.64854,3.83753 1.47385,1.36666 12.66019,9.29143 19.70732,13.96137 27.24565,18.05489 56.31867,31.75781 87.12727,41.06548 26.84419,8.10996 53.35433,12.5383 83.2,13.89795 5.45367,0.24846 28.79974,-0.11808 34.76363,-0.54581 z"/></g></g></svg>