<svg xmlns="http://www.w3.org/2000/svg" role="img" viewBox="-13.52 -13.02 675.54 677.04"><title>gtfs-router logo</title><g><path fill="none" stroke="#bbb" stroke-linecap="round" stroke-linejoin="round" stroke-miterlimit="10" stroke-width="37.5" d="M3745.66 1261.09c0-51.75 41.96-93.75 93.75-93.75 51.76 0 93.75 42 93.75 93.75M4120.66 1261.09c0-51.75 41.96-93.75 93.75-93.75 51.76 0 93.75 42 93.75 93.75M3933.16 1223.59h178.13M3558.16 1279.84h978.75M3558.16 1279.84v543.75M4542.54 1279.84v543.75M3520.66 1823.59h1059.38M3501.91 1336.09h37.5M4542.54 1336.09h56.25M3689.41 1298.59v412.5m0 0h131.25m0 0v-412.5zM4251.91 1298.59v412.5m0 0h131.25m0 0v-412.5zM3558.16 1504.84h112.5M3558.16 1711.09h69.38m0 0v-187.5zM4383.16 1504.84h150M4533.16 1711.09h-65.62m0 0v-187.5zM3839.41 1504.84h393.75M3895.66 1523.59v187.5m0 0h112.5m0 0v-187.5zM4073.79 1523.59v187.5m0 0h112.5m0 0v-187.5zM4176.91 1823.59l-112.5 187.5M4495.66 1898.59v-56.25" transform="matrix(.13333 0 0 -.13333 0 652)"/><path fill="none" stroke="#bbb" stroke-linecap="round" stroke-linejoin="round" stroke-miterlimit="10" stroke-width="42.857" d="M3557.27 2155.74v57.15m0 0c0 236.68 191.87 428.56 428.55 428.56m0 0h542.85m0 0c78.91 0 142.85-63.95 142.85-142.86m0 0v-342.85M3900.12 2155.74c0-55.23-44.77-100-100-100-55.24 0-100 44.77-100 100 0 55.24 44.76 100 100 100 55.23 0 100-44.76 100-100z" transform="matrix(.13333 0 0 -.13333 0 652)"/><path fill="none" stroke="#bbb" stroke-linecap="round" stroke-linejoin="round" stroke-miterlimit="10" stroke-width="42.857" d="M3842.97 2155.74c0-23.67-19.18-42.85-42.85-42.85s-42.85 19.18-42.85 42.85 19.18 42.85 42.85 42.85 42.85-19.18 42.85-42.85zM4542.97 2155.74c0-55.23-44.77-100-100-100-55.24 0-100 44.77-100 100 0 55.24 44.76 100 100 100 55.23 0 100-44.76 100-100z" transform="matrix(.13333 0 0 -.13333 0 652)"/><path fill="none" stroke="#bbb" stroke-linecap="round" stroke-linejoin="round" stroke-miterlimit="10" stroke-width="42.857" d="M4485.82 2155.74c0-23.67-19.18-42.85-42.85-42.85s-42.85 19.18-42.85 42.85 19.18 42.85 42.85 42.85 42.85-19.18 42.85-42.85zM3564.41 2155.74h121.41M3914.41 2155.74h414.26M4557.27 2155.74h114.25M4657.27 2555.74h-71.45m0 0c-23.67 0-42.85-19.18-42.85-42.85m0 0v-85.7m0 0c0-47.35 38.36-85.74 85.7-85.74m0 0h42.85M3771.52 2412.89c0 78.91 63.99 142.85 142.89 142.85m0 0h428.56m0 0c15.78 0 28.55-12.77 28.55-28.55m0 0v-100m0 0c0-15.78-12.77-28.6-28.55-28.6m0 0h-571.45M4242.97 2412.89v128.56M4128.67 2412.89v128.56M4014.41 2412.89v128.56M3900.12 2412.89v128.56M3535.82 2212.89h64.3M4614.41 2212.89h78.56M4628.67 2270.04h28.6" transform="matrix(.13333 0 0 -.13333 0 652)"/><path fill="none" stroke="#bbb" stroke-linecap="round" stroke-linejoin="round" stroke-miterlimit="10" stroke-width="48.649" d="M3563.05 3672.93h632.42m0 0c268.71 0 486.48-217.81 486.48-486.48m0 0v-113.52m0 0c0-44.77-36.29-81.09-81.05-81.09m0 0h-162.19m0 0l-145.94 129.72m0 0h-648.63M4390.08 3121.56h162.15M4633.32 3121.56h48.63M3595.47 3251.29h956.76M3563.05 3381.02h113.51M3595.47 3510.78h81.09M3627.93 3040.51c0-44.81 36.29-81.1 81.05-81.1 44.81 0 81.1 36.29 81.1 81.1M3854.92 3040.51c0-44.81 36.33-81.1 81.1-81.1 44.8 0 81.09 36.29 81.09 81.1M4081.95 3040.51c0-44.81 36.33-81.1 81.1-81.1 44.76 0 81.09 36.29 81.09 81.1M4617.11 3397.27h-340.55m0 0v178.35m0 0h81.1M4487.38 3413.48v32.42M3806.29 3397.27v162.14m0 0h97.3m0 0v-162.14m0 0h-97.3M4033.32 3397.27v162.14m0 0h97.3m0 0v-162.14m0 0h-97.3" transform="matrix(.13333 0 0 -.13333 0 652)"/><path fill="none" stroke="#bbb" stroke-linecap="round" stroke-linejoin="round" stroke-miterlimit="10" stroke-width="64.286" d="M1578.67 759.301v85.738m0 0c0 355.041 287.81 642.851 642.85 642.851m0 0h814.3m0 0c118.36 0 214.3-95.94 214.3-214.3m0 0V759.301M2092.97 759.301c0-82.821-67.15-150-150-150s-150 67.179-150 150c0 82.847 67.15 150 150 150s150-67.153 150-150z" transform="matrix(.13333 0 0 -.13333 0 652)"/><path fill="none" stroke="#bbb" stroke-linecap="round" stroke-linejoin="round" stroke-miterlimit="10" stroke-width="64.286" d="M2007.27 759.301c0-35.469-28.79-64.262-64.3-64.262s-64.3 28.793-64.3 64.262c0 35.5 28.79 64.289 64.3 64.289s64.3-28.789 64.3-64.289zM3057.27 759.301c0-82.821-67.15-150-150-150-82.86 0-150 67.179-150 150 0 82.847 67.14 150 150 150 82.85 0 150-67.153 150-150z" transform="matrix(.13333 0 0 -.13333 0 652)"/><path fill="none" stroke="#bbb" stroke-linecap="round" stroke-linejoin="round" stroke-miterlimit="10" stroke-width="64.286" d="M2971.52 759.301c0-35.469-28.75-64.262-64.25-64.262-35.51 0-64.3 28.793-64.3 64.262 0 35.5 28.79 64.289 64.3 64.289 35.5 0 64.25-28.789 64.25-64.289zM1589.41 759.301h182.11M2114.41 759.301h621.41M3078.67 759.301h171.45M3228.67 1359.3h-107.15m0 0c-35.47 0-64.25-28.75-64.25-64.26m0 0v-128.59m0 0c0-70.98 57.53-128.56 128.55-128.56m0 0h64.3M1900.12 1145.04c0 118.32 95.93 214.26 214.29 214.26m0 0h642.86m0 0c23.67 0 42.85-19.18 42.85-42.85m0 0v-150m0 0c0-23.68-19.18-42.86-42.85-42.86m0 0h-857.15M2607.27 1145.04v192.85M2435.82 1145.04v192.85M2264.41 1145.04v192.85M2092.97 1145.04v192.85M1546.52 845.039h96.45M3164.41 845.039h117.86M3185.82 930.738h42.85" transform="matrix(.13333 0 0 -.13333 0 652)"/><path fill="none" stroke="#bbb" stroke-linecap="round" stroke-linejoin="round" stroke-miterlimit="10" stroke-width="72.973" d="M1587.38 2935.08h948.64m0 0c403 0 729.72-326.72 729.72-729.73m0 0v-170.27m0 0c0-67.15-54.45-121.6-121.6-121.6m0 0H2900.9m0 0l-218.95 194.57m0 0h-972.97M2827.93 2108.05h243.24M3192.77 2108.05h72.97M1636.02 2302.66h1435.15M1587.38 2497.27h170.28M1636.02 2691.84h121.64M1684.69 1986.45c0-67.19 54.45-121.65 121.6-121.65 67.19 0 121.64 54.46 121.64 121.65M2025.2 1986.45c0-67.19 54.45-121.65 121.64-121.65 67.14 0 121.6 54.46 121.6 121.65M2365.74 1986.45c0-67.19 54.46-121.65 121.64-121.65 67.15 0 121.6 54.46 121.6 121.65M3168.44 2521.56h-510.78m0 0v267.58m0 0h121.6M2973.87 2545.9v48.63M1952.23 2521.56v243.24m0 0h145.97m0 0v-243.24m0 0h-145.97M2292.77 2521.56v243.24m0 0h145.94m0 0v-243.24m0 0h-145.94" transform="matrix(.13333 0 0 -.13333 0 652)"/><path fill="none" stroke="#bbb" stroke-linecap="round" stroke-linejoin="round" stroke-miterlimit="10" stroke-width="53.125" d="M1912.85 3470.47c0-73.36 59.45-132.81 132.81-132.81 73.32 0 132.82 59.45 132.82 132.81M2444.1 3470.47c0-73.36 59.45-132.81 132.81-132.81 73.32 0 132.82 59.45 132.82 132.81M2178.48 3417.34h252.34M1647.23 3497.03h1386.56M1647.23 3497.03v770.31M3041.76 3497.03v770.31M1594.1 4267.34h1500.78M1567.54 3576.72h53.12M3041.76 3576.72h79.69M1833.16 3523.59v584.38m0 0h185.94m0 0v-584.38zM2630.04 3523.59v584.38m0 0h185.94m0 0v-584.38zM1647.23 3815.78h159.37M1647.23 4107.97h98.28m0 0v-265.63zM2815.98 3815.78h212.5M3028.48 4107.97h-92.97m0 0v-265.63zM2045.66 3815.78h557.82M2125.35 3842.34v265.63m0 0h159.38m0 0v-265.63zM2377.7 3842.34v265.63m0 0h159.37m0 0v-265.63zM2523.79 4267.34l-159.38 265.63M2975.35 4373.59v-79.68" transform="matrix(.13333 0 0 -.13333 0 652)"/><path fill="none" stroke="#bbb" stroke-linecap="round" stroke-linejoin="round" stroke-miterlimit="10" stroke-width="48.649" d="M263.051 1872.93h632.418m0 0c268.711 0 486.481-217.81 486.481-486.48m0 0v-113.52m0 0c0-44.77-36.29-81.09-81.05-81.09m0 0h-162.19m0 0l-145.94 129.72m0 0H344.141M1090.08 1321.56h162.15M1333.32 1321.56h48.63M295.469 1451.29h956.761M263.051 1581.02h113.508M295.469 1710.78h81.09M327.93 1240.51c0-44.81 36.289-81.1 81.05-81.1 44.809 0 81.098 36.29 81.098 81.1M554.922 1240.51c0-44.81 36.328-81.1 81.098-81.1 44.8 0 81.089 36.29 81.089 81.1M781.949 1240.51c0-44.81 36.332-81.1 81.102-81.1 44.758 0 81.09 36.29 81.09 81.1M1317.11 1597.27H976.559m0 0v178.35m0 0h81.101M1187.38 1613.48v32.42M506.289 1597.27v162.14m0 0h97.301m0 0v-162.14m0 0h-97.301M733.32 1597.27v162.14m0 0h97.301m0 0v-162.14m0 0H733.32" transform="matrix(.13333 0 0 -.13333 0 652)"/><path fill="none" stroke="#bbb" stroke-linecap="round" stroke-linejoin="round" stroke-miterlimit="10" stroke-width="43.75" d="M442.539 2154.84c0-60.39 48.941-109.37 109.371-109.37 60.391 0 109.379 48.98 109.379 109.37M880.039 2154.84c0-60.39 48.941-109.37 109.371-109.37 60.39 0 109.38 48.98 109.38 109.37M661.289 2111.09h207.813M223.789 2176.72H1365.66M223.789 2176.72v634.37M1372.23 2176.72v634.37M180.039 2811.09H1415.98M158.16 2242.34h43.75M1372.23 2242.34h65.62M376.91 2198.59v481.25m0 0h153.129m0 0v-481.25zM1033.16 2198.59v481.25m0 0h153.13m0 0v-481.25zM223.789 2439.22h131.25M223.789 2679.84h80.941m0 0v-218.75zM1186.29 2439.22h175M1361.29 2679.84h-76.56m0 0v-218.75zM551.91 2439.22h459.38M617.539 2461.09v218.75m0 0h131.25m0 0v-218.75zM825.352 2461.09v218.75m0 0h131.25m0 0v-218.75zM945.66 2811.09l-131.25 218.75M1317.54 2898.59v-65.62" transform="matrix(.13333 0 0 -.13333 0 652)"/><path fill="none" stroke="#bbb" stroke-linecap="round" stroke-linejoin="round" stroke-miterlimit="10" stroke-width="50" d="M164.41 3123.59v66.68m0 0c0 276.14 223.828 500 500 500m0 0h633.32m0 0c92.04 0 166.68-74.61 166.68-166.68m0 0v-400M564.41 3123.59c0-64.41-52.262-116.64-116.68-116.64-64.449 0-116.679 52.23-116.679 116.64 0 64.46 52.23 116.68 116.679 116.68 64.418 0 116.68-52.22 116.68-116.68z" transform="matrix(.13333 0 0 -.13333 0 652)"/><path fill="none" stroke="#bbb" stroke-linecap="round" stroke-linejoin="round" stroke-miterlimit="10" stroke-width="50" d="M497.73 3123.59c0-27.61-22.378-50-50-50-27.609 0-50 22.39-50 50 0 27.62 22.391 50 50 50 27.622 0 50-22.38 50-50zM1314.41 3123.59c0-64.41-52.26-116.64-116.68-116.64-64.45 0-116.68 52.23-116.68 116.64 0 64.46 52.23 116.68 116.68 116.68 64.42 0 116.68-52.22 116.68-116.68z" transform="matrix(.13333 0 0 -.13333 0 652)"/><path fill="none" stroke="#bbb" stroke-linecap="round" stroke-linejoin="round" stroke-miterlimit="10" stroke-width="50" d="M1247.73 3123.59c0-27.61-22.38-50-50-50-27.61 0-50 22.39-50 50 0 27.62 22.39 50 50 50 27.62 0 50-22.38 50-50zM172.73 3123.59h141.68M581.051 3123.59h483.359M1331.05 3123.59h133.36M1447.73 3590.27h-83.32m0 0c-27.61 0-50-22.38-50-50m0 0v-100m0 0c0-55.23 44.77-100 100-100m0 0h50M414.41 3423.59c0 92.07 74.61 166.68 166.641 166.68m0 0h499.999m0 0c18.44 0 33.36-14.92 33.36-33.32m0 0v-116.68m0 0c0-18.39-14.92-33.32-33.36-33.32m0 0H414.41M964.41 3423.59v150M831.051 3423.59v150M697.73 3423.59v150M564.41 3423.59v150M139.41 3190.27h75M1397.73 3190.27h91.68M1414.41 3256.95h33.32" transform="matrix(.13333 0 0 -.13333 0 652)"/><path fill="none" stroke="#5b5" stroke-linejoin="round" stroke-miterlimit="10" stroke-width="128" d="M63.9805 3637.3V1259.88L2434.41 71.2109 4804.8 1259.88V3637.3L2434.41 4826.02z" transform="matrix(.13333 0 0 -.13333 0 652)"/><path fill="#555" d="M1220.94 3414.3c17.07 56.01 48.47 83.98 94.22 83.98h512.11v-83.98zm-8.21-112v55.98c0 6.56.36 11.21 1.02 14.02v5.59c.7 2.81 1.05 5.63 1.05 8.4h612.47v-83.99zm0-28h153.641v-83.9922H1212.73zm256.06-112h358.48v-84.0195h-358.48zm-256.06 0h153.641v-84.0195H1212.73zm256.06-111.99h358.48v-84.0195h-358.48zm-256.06 0h153.641v-84.0195H1212.73zm460.9-112.03h153.641v-83.9805H1673.63zm-460.9 0h153.641v-83.9805H1212.73zm460.9-111.99h153.641v-83.9883H1673.63zm-460.9 0h153.641v-83.9883H1212.73zm2.07-195.98c0 2.78-.35 5.12-1.05 6.99v7c-.66 2.81-1.02 7.46-1.02 13.98v56.02h614.54v-83.99zm100.36-112.03c-45.75 0-77.15 28.01-94.22 84.02h606.33v-84.02zM1878.48 3498.28h614.531v-83.9805H1878.48zm0-111.99h614.531v-83.9883H1878.48zm240.7-111.99h153.59v-83.9922h-153.59zm0-112h153.59v-84.0195h-153.59zm0-111.99h153.59v-84.0195h-153.59zm0-112.03h153.59v-83.9805h-153.59zm0-111.99h153.59v-83.9883h-153.59zm0-111.99h153.59v-83.9922h-153.59zm0-112h153.59v-84.0195h-153.59zM2555.47 3414.3c17.07 56.01 48.48 83.98 94.22 83.98h460.9v-83.98zm-8.2-112v55.98c0 6.56.35 11.21 1.05 14.02v5.59c.66 2.81 1.02 5.63 1.02 8.4h561.25v-83.99zm0-28h153.629v-83.9922H2547.27zm0-112h563.32v-84.0195h-563.32zm0-111.99h563.32v-84.0195h-563.32zm0-112.03h153.629v-83.9805H2547.27zm0-111.99h153.629v-83.9883H2547.27zm0-111.99h153.629v-83.9922H2547.27zm0-112h153.629v-84.0195H2547.27zM3160.78 3414.3c17.07 56.01 48.48 83.98 94.22 83.98h512.11v-83.98zm-8.2-112v55.98c0 6.56.35 11.21 1.01 14.02v5.59c.71 2.81 1.06 5.63 1.06 8.4h612.46v-83.99zm0-28h153.629v-83.9922H3152.58zm2.07-196.02c0 2.81-.35 5.16-1.06 7.03v6.99c-.66 2.82-1.01 7.47-1.01 13.99v56.01h512.11c45.08 0 76.48-28 94.22-84.02zM3255 2966.29c-45.74 0-77.15 28.01-94.22 84.02h604.26v-8.4c.7-1.87 1.05-3.75 1.05-5.62.67-2.77 1.02-7.46 1.02-13.99v-56.01zm358.48-28.01h153.629v-83.9805H3613.48zm0-111.99h153.629v-83.9883H3613.48zm153.63-168.01c0-6.52-.35-11.17-1.02-13.98 0-1.88-.35-4.18-1.05-7v-6.99h-612.46v83.99h614.53zm-8.2-55.98c-17.74-56.01-49.14-84.02-94.22-84.02h-512.11v84.02z" transform="matrix(.13333 0 0 -.13333 0 652)"/><path fill="#5b5" d="M1166.13 3461.8c17.07 56.01 48.48 83.98 94.22 83.98h512.11v-83.98zm-8.2-112v55.98c0 6.56.35 11.21 1.05 14.02v5.59c.67 2.81 1.02 5.63 1.02 8.4h612.46v-83.99zm0-28h153.629v-83.9922H1157.93zm256.05-112h358.48v-84.0195h-358.48zm-256.05 0h153.629v-84.0195H1157.93zm256.05-111.99h358.48v-84.0195h-358.48zm-256.05 0h153.629v-84.0195H1157.93zm460.9-112.03h153.633v-83.9805H1618.83zm-460.9 0h153.629v-83.9805H1157.93zm460.9-111.99h153.633v-83.9883H1618.83zm-460.9 0h153.629v-83.9883H1157.93zm2.07-195.98c0 2.78-.35 5.12-1.02 6.99v7c-.7 2.81-1.05 7.46-1.05 13.98v56.02h614.53v-83.99zm100.35-112.03c-45.74 0-77.15 28.01-94.22 84.02h606.33v-84.02zM1823.67 3545.78h614.527v-83.9805H1823.67zm0-111.99h614.527v-83.9883H1823.67zm240.71-111.99h153.633v-83.9922H2064.38zm0-112h153.633v-84.0195H2064.38zm0-111.99h153.633v-84.0195H2064.38zm0-112.03h153.633v-83.9805H2064.38zm0-111.99h153.633v-83.9883H2064.38zm0-111.99h153.633v-83.9922H2064.38zm0-112h153.633v-84.0195H2064.38zM2500.66 3461.8c17.07 56.01 48.48 83.98 94.22 83.98h460.9v-83.98zm-8.2-112v55.98c0 6.56.35 11.21 1.06 14.02v5.59c.66 2.81 1.01 5.63 1.01 8.4h561.25v-83.99zm0-28h153.629v-83.9922H2492.46zm0-112h563.32v-84.0195h-563.32zm0-111.99h563.32v-84.0195h-563.32zm0-112.03h153.629v-83.9805H2492.46zm0-111.99h153.629v-83.9883H2492.46zm0-111.99h153.629v-83.9922H2492.46zm0-112h153.629v-84.0195H2492.46zM3105.98 3461.8c17.07 56.01 48.47 83.98 94.22 83.98h512.1v-83.98zm-8.21-112v55.98c0 6.56.35 11.21 1.02 14.02v5.59c.7 2.81 1.05 5.63 1.05 8.4h612.46v-83.99zm0-28h153.641v-83.9922H3097.77zm2.07-196.02c0 2.81-.35 5.16-1.05 7.03v6.99c-.67 2.82-1.02 7.47-1.02 13.99v56.01h512.11c45.08 0 76.49-28 94.22-84.02zm100.36-111.99c-45.75 0-77.15 28.01-94.22 84.02h604.29v-8.4c.67-1.87 1.02-3.75 1.02-5.62.66-2.77 1.01-7.46 1.01-13.99v-56.01zm358.47-28.01h153.629v-83.9805H3558.67zm0-111.99h153.629v-83.9883H3558.67zm153.63-168.01c0-6.52-.35-11.17-1.01-13.98 0-1.88-.35-4.18-1.02-7v-6.99h-612.5v83.99h614.53zm-8.2-55.98c-17.73-56.01-49.14-84.02-94.22-84.02h-512.11v84.02z" transform="matrix(.13333 0 0 -.13333 0 652)"/><path fill="#555" d="M721.289 2275.12v71.99h455.191c40.08 0 68.01-24.02 83.79-71.99zm0-96.02v71.99H1265.7v-7.18c.63-1.61.94-3.21.94-4.81.59-2.38.9-6.4.9-11.99v-48.01zm546.251-71.99c0-5.63-.31-9.61-.9-11.99 0-1.6-.31-3.64-.9-6.02v-6.01h-134.76v72.03h136.56zm-546.251 48.01h136.563v-72.0313H721.289zm538.981-96.02c-15.78-48.01-43.71-71.99-83.79-71.99H721.289v71.99zm-538.981-168.01v72h455.191c40.08 0 68.01-23.99 83.79-72zm409.691-95.97v71.99h134.72v-7.23c.63-1.56.94-3.16.94-4.76.59-2.42.9-6.41.9-12.03v-47.97zm-409.691 71.99h136.563v-71.9883H721.289zm409.691-96.02h136.559v-71.9883H1130.98zm-409.691 0h136.563v-71.9883H721.289zm409.691-95.97h136.559v-72.0313H1130.98zm-409.691 0h136.563v-72.0313H721.289zm409.691-96.02h136.559v-71.9922H1130.98zm-409.691 0h136.563v-71.9922H721.289zM1345.86 2275.12c15.16 47.97 43.09 71.99 83.75 71.99h364.18c40.04 0 67.97-24.02 83.75-71.99zm-7.31-96.02v48.01c0 5.59.32 9.61.9 11.99v4.81c.63 2.38.94 4.8.94 7.18h542.62v-7.18c.58-1.61.9-3.21.9-4.81.62-2.38.89-6.4.89-11.99v-48.01zm409.69-23.98h136.563v-72.0313H1748.24zm-409.69 0h136.57v-72.0313h-136.57zm409.69-96.02h136.563v-71.9922H1748.24zm-409.69 0h136.57v-71.9922h-136.57zm409.69-96.01h136.563v-72H1748.24zm-409.69 0h136.57v-72h-136.57zm409.69-95.98h136.563v-71.9883H1748.24zm-409.69 0h136.57v-71.9883h-136.57zm409.69-96.02h136.563v-71.9883H1748.24zm-409.69 0h136.57v-71.9883h-136.57zm546.25-143.98c0-5.63-.27-9.61-.89-11.99 0-1.6-.32-3.64-.9-6.02v-6.01h-542.62c0 2.42-.31 4.41-.94 6.01v6.02c-.58 2.38-.9 6.36-.9 11.99v48.01h546.29zm-7.26-48.01c-15.78-48.01-43.71-71.99-83.75-71.99h-364.18c-40.66 0-68.59 23.98-83.75 71.99zM2366.45 2347.11h136.563v-71.9883H2366.45zm-409.69 0h136.559v-71.9883H1956.76zm409.69-96.02h136.563v-71.9883H2366.45zm-409.69 0h136.559v-71.9883H1956.76zm409.69-95.97h136.563v-72.0313H2366.45zm-409.69 0h136.559v-72.0313H1956.76zm409.69-96.02h136.563v-71.9922H2366.45zm-409.69 0h136.559v-71.9922H1956.76zm409.69-96.01h136.563v-72H2366.45zm-409.69 0h136.559v-72H1956.76zm409.69-95.98h136.563v-71.9883H2366.45zm-409.69 0h136.559v-71.9883H1956.76zm409.69-96.02h136.563v-71.9883H2366.45zm-409.69 0h136.559v-71.9883H1956.76zm546.25-143.98c0-5.63-.31-9.61-.9-11.99 0-1.6-.31-3.64-.9-6.02v-6.01h-542.66c0 2.42-.27 4.41-.89 6.01v6.02c-.59 2.38-.9 6.36-.9 11.99v48.01h546.25zm-7.27-48.01c-15.78-48.01-43.71-71.99-83.79-71.99h-364.18c-40.66 0-68.55 23.98-83.75 71.99zM2549.45 2347.11h546.25v-71.9883h-546.25zm0-96.02h546.25v-71.9883h-546.25zm213.95-95.97h136.563v-72.0313H2763.4zm0-96.02h136.563v-71.9922H2763.4zm0-96.01h136.563v-72H2763.4zm0-95.98h136.563v-71.9883H2763.4zm0-96.02h136.563v-71.9883H2763.4zm0-95.97h136.563v-72.0313H2763.4zm0-96.02h136.563v-71.9922H2763.4zM3149.41 2275.12c15.2 47.97 43.13 71.99 83.79 71.99h409.69v-71.99zm-7.26-96.02v48.01c0 5.59.31 9.61.9 11.99v4.81c.62 2.38.9 4.8.9 7.18h498.94v-71.99zm0-23.98h136.563v-72.0313H3142.15zm0-96.02h500.742v-71.9922H3142.15zm0-96.01h500.742v-72H3142.15zm0-95.98h136.563v-71.9883H3142.15zm0-96.02h136.563v-71.9883H3142.15zm1.8-168c0 2.42-.28 4.41-.9 6.01v6.02c-.59 2.38-.9 6.36-.9 11.99v48.01h500.74v-72.03zm89.25-95.98c-40.66 0-68.59 23.98-83.79 71.99h493.48v-71.99zM3712.07 2275.12v71.99h455.23c40.04 0 67.97-24.02 83.75-71.99zm0-96.02v71.99h544.45v-7.18c.59-1.61.9-3.21.9-4.81.63-2.38.94-6.4.94-11.99v-48.01zm546.29-71.99c0-5.63-.31-9.61-.94-11.99 0-1.6-.27-3.64-.9-6.02v-6.01h-134.76v72.03h136.6zm-546.29 48.01h136.559v-72.0313H3712.07zm538.98-96.02c-15.78-48.01-43.71-71.99-83.75-71.99h-455.23v71.99zm-538.98-168.01v72h455.23c40.04 0 67.97-23.99 83.75-72zm409.69-95.97v71.99h134.76v-7.23c.59-1.56.9-3.16.9-4.76.63-2.42.94-6.41.94-12.03v-47.97zm-409.69 71.99h136.559v-71.9883H3712.07zm409.69-96.02h136.598v-71.9883H4121.76zm-409.69 0h136.559v-71.9883H3712.07zm409.69-95.97h136.598v-72.0313H4121.76zm-409.69 0h136.559v-72.0313H3712.07zm409.69-96.02h136.598v-71.9922H4121.76zm-409.69 0h136.559v-71.9922H3712.07z" transform="matrix(.13333 0 0 -.13333 0 652)"/><path fill="#5b5" d="M666.48 2322.7v71.99h455.2c40.08 0 68.01-23.99 83.79-71.99zm0-95.98v71.99h544.46v-7.23c.58-1.6.9-3.2.9-4.76.58-2.42.89-6.41.89-12.03v-47.97zm546.25-72.03c0-5.59-.31-9.57-.89-11.99 0-1.61-.32-3.6-.9-5.98v-6.02h-134.77v72h136.56zm-546.25 48.01h136.57v-72H666.48zm538.99-95.98c-15.78-48.01-43.71-72.03-83.79-72.03h-455.2v72.03zm-538.99-168.01v71.99h455.2c40.08 0 68.01-23.98 83.79-71.99zm409.69-96.01v71.99h134.77v-7.19c.58-1.6.9-3.2.9-4.8.58-2.39.89-6.41.89-12v-48zm-409.69 71.99h136.57v-71.9922H666.48zm409.69-95.98h136.559v-71.9922H1076.17zm-409.69 0h136.57v-71.9922H666.48zm409.69-96.01h136.559v-72H1076.17zm-409.69 0h136.57v-72H666.48zm409.69-95.98h136.559v-72.0273H1076.17zm-409.69 0h136.57v-72.0273H666.48zM1291.05 2322.7c15.16 48 43.09 71.99 83.75 71.99h364.18c40.04 0 67.97-23.99 83.75-71.99zm-7.3-95.98v47.97c0 5.62.31 9.61.94 12.03v4.76c.58 2.43.9 4.81.9 7.23h542.61v-7.23c.59-1.6.9-3.2.9-4.76.63-2.42.94-6.41.94-12.03v-47.97zm409.69-24.02h136.598v-72H1693.44zm-409.69 0h136.559v-72H1283.75zm409.69-95.98h136.598v-72.0273H1693.44zm-409.69 0h136.559v-72.0273H1283.75zm409.69-96.02h136.598v-71.9883H1693.44zm-409.69 0h136.559v-71.9883H1283.75zm409.69-96.01h136.598v-71.9922H1693.44zm-409.69 0h136.559v-71.9922H1283.75zm409.69-95.98h136.598v-71.9922H1693.44zm-409.69 0h136.559v-71.9922H1283.75zm546.29-144.02c0-5.59-.31-9.57-.94-11.99 0-1.61-.27-3.6-.9-5.98v-6.02h-542.61c0 2.39-.32 4.42-.9 6.02v5.98c-.63 2.42-.94 6.4-.94 11.99v48.01h546.29zm-7.31-47.97c-15.78-48.01-43.71-72.03-83.75-72.03H1374.8c-40.66 0-68.59 24.02-83.75 72.03zM2311.64 2394.69h136.559v-71.9922H2311.64zm-409.69 0h136.57v-71.9922h-136.57zm409.69-95.98h136.559v-71.9922H2311.64zm-409.69 0h136.57v-71.9922h-136.57zm409.69-96.01h136.559v-72H2311.64zm-409.69 0h136.57v-72h-136.57zm409.69-95.98h136.559v-72.0273H2311.64zm-409.69 0h136.57v-72.0273h-136.57zm409.69-96.02h136.559v-71.9883H2311.64zm-409.69 0h136.57v-71.9883h-136.57zm409.69-96.01h136.559v-71.9922H2311.64zm-409.69 0h136.57v-71.9922h-136.57zm409.69-95.98h136.559v-71.9922H2311.64zm-409.69 0h136.57v-71.9922h-136.57zm546.25-144.02c0-5.59-.31-9.57-.9-11.99 0-1.61-.31-3.6-.89-5.98v-6.02h-542.66c0 2.39-.27 4.42-.9 6.02v5.98c-.58 2.42-.9 6.4-.9 11.99v48.01h546.25zm-7.26-47.97c-15.78-48.01-43.71-72.03-83.79-72.03h-364.14c-40.67 0-68.6 24.02-83.79 72.03zM2494.65 2394.69h546.25v-71.9922h-546.25zm0-95.98h546.25v-71.9922h-546.25zm213.94-96.01h136.57v-72h-136.57zm0-95.98h136.57v-72.0273h-136.57zm0-96.02h136.57v-71.9883h-136.57zm0-96.01h136.57v-71.9922h-136.57zm0-95.98h136.57v-71.9922h-136.57zm0-96.01h136.57v-72h-136.57zm0-95.98h136.57v-72.0273h-136.57zM3094.61 2322.7c15.19 48 43.12 71.99 83.79 71.99h409.69v-71.99zm-7.27-95.98v47.97c0 5.62.32 9.61.9 12.03v4.76c.63 2.43.94 4.81.94 7.23h498.91v-71.99zm0-24.02h136.57v-72h-136.57zm0-95.98h500.75v-72.0273h-500.75zm0-96.02h500.75v-71.9883h-500.75zm0-96.01h136.57v-71.9922h-136.57zm0-95.98h136.57v-71.9922h-136.57zm1.84-168.01c0 2.39-.31 4.42-.94 6.02v5.98c-.58 2.42-.9 6.4-.9 11.99v48.01h500.75v-72zm89.22-96.01c-40.67 0-68.6 24.02-83.79 72.03h493.48v-72.03zM3657.27 2322.7v71.99h455.23c40.04 0 67.97-23.99 83.75-71.99zm0-95.98v71.99h544.45v-7.23c.62-1.6.9-3.2.9-4.76.62-2.42.93-6.41.93-12.03v-47.97zm546.28-72.03c0-5.59-.31-9.57-.93-11.99 0-1.61-.28-3.6-.9-5.98v-6.02h-134.73v72h136.56zm-546.28 48.01h136.563v-72H3657.27zm538.98-95.98c-15.78-48.01-43.71-72.03-83.75-72.03h-455.23v72.03zm-538.98-168.01v71.99h455.23c40.04 0 67.97-23.98 83.75-71.99zm409.72-96.01v71.99h134.73v-7.19c.62-1.6.9-3.2.9-4.8.62-2.39.93-6.41.93-12v-48zm-409.72 71.99h136.563v-71.9922H3657.27zm409.72-95.98h136.563v-71.9922H4066.99zm-409.72 0h136.563v-71.9922H3657.27zm409.72-96.01h136.563v-72H4066.99zm-409.72 0h136.563v-72H3657.27zm409.72-95.98h136.563v-72.0273H4066.99zm-409.72 0h136.563v-72.0273H3657.27z" transform="matrix(.13333 0 0 -.13333 0 652)"/></g></svg>