<svg xmlns="http://www.w3.org/2000/svg" role="img" viewBox="-5.55 -5.55 275.34 83.34"><title>HAMS logo</title><path d="M147.3 71.2h-9v-70h13.3L171 45.5l19.1-44.3h13.6v70h-9.5V13.3l-18.7 42.1h-9.4l-18.8-42.1v57.9zm-137.8 0H0v-70h9.5v29.9H44V1.2h9.5v70H44V39.3H9.5v31.9zm206.2-5.9l4.8-8q3.6 3 8.1 4.9a23.348 23.348 0 0 0 5.37 1.51 32.118 32.118 0 0 0 5.13.39 27.981 27.981 0 0 0 4.547-.346q2.423-.4 4.384-1.26A13.701 13.701 0 0 0 250.5 61.1q4.048-2.891 4.195-7.734A12.116 12.116 0 0 0 254.7 53a11.94 11.94 0 0 0-.337-2.893 9.816 9.816 0 0 0-.863-2.257 8.097 8.097 0 0 0-1.2-1.656q-1.27-1.381-3.416-2.723a25.81 25.81 0 0 0-.034-.021q-3.116-1.942-8.885-4.17a118.584 118.584 0 0 0-1.265-.48q-7.2-2.8-11.5-5.65a21.931 21.931 0 0 1-3.089-2.447q-1.717-1.65-2.773-3.515a13.303 13.303 0 0 1-.288-.538Q219.2 23 219.2 18t2.75-9.05q2.75-4.05 8.1-6.5a25.558 25.558 0 0 1 5.9-1.835Q239.193 0 243 0q6.2 0 11.15 1.25t9.65 3.55l-3.5 8.1a31.496 31.496 0 0 0-4.126-2.019 41.686 41.686 0 0 0-3.824-1.331Q247.8 8.2 242.8 8.2a27.187 27.187 0 0 0-4.03.28q-2.132.32-3.87 1.007a12.616 12.616 0 0 0-2.5 1.313 9.902 9.902 0 0 0-2.163 1.965A7.359 7.359 0 0 0 228.6 17.5a10.464 10.464 0 0 0 .292 2.522 8.562 8.562 0 0 0 .808 2.078q1.056 1.919 4.091 3.747a23.503 23.503 0 0 0 .259.153 33.003 33.003 0 0 0 2.216 1.172q2.269 1.103 5.48 2.351a130.016 130.016 0 0 0 2.054.777 81.228 81.228 0 0 1 4.978 2.029q4.386 1.971 7.372 4.071a26.044 26.044 0 0 1 3.04 2.478q2.223 2.128 3.41 4.472a17.579 17.579 0 0 1 1.741 5.863 22.155 22.155 0 0 1 .159 2.687 21.71 21.71 0 0 1-.667 5.501A17.105 17.105 0 0 1 261.25 63q-3.25 4.6-9 7a30.521 30.521 0 0 1-7.41 2.004 40.027 40.027 0 0 1-5.74.396q-7.3 0-13.3-1.95a38.206 38.206 0 0 1-5.367-2.182A28.433 28.433 0 0 1 215.7 65.3zm-87.4 3.4l-8.7 3.5-7.8-20H79.4L71.6 72l-8.1-3.3L90.9 1.2h10.4l27 67.5zM95.6 10.6L82.4 44.2h26.3L95.6 10.6z" vector-effect="non-scaling-stroke" fill="#000" fill-rule="evenodd" stroke="#000" stroke-linecap="round" stroke-width=".25mm"/></svg>