<svg xmlns="http://www.w3.org/2000/svg" role="img" viewBox="75.08 110.33 138.71 23.59"><title>HOMER Pro logo</title><style>svg {enable-background:new 0 0 288 252.48}</style><path d="M77.8 130.79v-17.27h3.59v6.59h6.71v-6.59h3.59v17.27H88.1v-7.71h-6.71v7.71H77.8zm30.66-1.54c-1.3 1.34-3.19 2.02-5.66 2.02s-4.36-.67-5.66-2.02c-1.75-1.65-2.62-4.02-2.62-7.12 0-3.16.88-5.54 2.62-7.12 1.3-1.34 3.19-2.02 5.66-2.02s4.36.67 5.66 2.02c1.74 1.59 2.61 3.96 2.61 7.12 0 3.1-.87 5.48-2.61 7.12zm-2.26-2.62c.84-1.05 1.26-2.55 1.26-4.5 0-1.94-.42-3.44-1.26-4.49s-1.97-1.59-3.4-1.59-2.57.53-3.42 1.58-1.28 2.55-1.28 4.5.43 3.45 1.28 4.5 1.99 1.58 3.42 1.58 2.56-.53 3.4-1.58zm19.08-13.11h5.19v17.27h-3.36v-11.68c0-.34 0-.81.01-1.41s.01-1.07.01-1.4l-3.27 14.5h-3.51l-3.25-14.5c0 .33 0 .79.01 1.4s.01 1.08.01 1.41v11.68h-3.36v-17.27h5.25l3.14 13.58 3.13-13.58zm21.31 3.05h-9.14v3.67h8.39v3h-8.39v4.44h9.56v3.11h-13.09v-17.27h12.67v3.05zm14.3-2.61c.64.27 1.17.68 1.62 1.21.37.44.66.92.87 1.45s.32 1.14.32 1.82c0 .82-.21 1.63-.62 2.42s-1.1 1.35-2.05 1.68c.8.32 1.36.78 1.69 1.37s.5 1.49.5 2.7v1.16c0 .79.03 1.32.1 1.61.09.45.32.77.67.98v.43H160c-.11-.38-.19-.69-.23-.93-.09-.48-.14-.98-.15-1.49l-.02-1.61c-.01-1.1-.21-1.84-.57-2.2-.37-.37-1.05-.55-2.06-.55h-3.53v6.77h-3.53v-17.27h8.26c1.18.03 2.09.18 2.72.45zm-7.46 2.56v4.64h3.88c.77 0 1.35-.09 1.74-.28.68-.33 1.02-.98 1.02-1.95 0-1.05-.33-1.75-.99-2.11-.37-.2-.93-.3-1.67-.3h-3.98zm31.99 6.79c-1.01.84-2.46 1.27-4.33 1.27h-3.6v6.21h-3.59v-17.27h7.42c1.71 0 3.07.45 4.09 1.34 1.02.89 1.53 2.27 1.53 4.14 0 2.03-.51 3.47-1.52 4.31zm-2.75-6.22c-.46-.38-1.1-.57-1.92-.57h-3.25v5.09h3.25c.82 0 1.46-.21 1.92-.62s.69-1.07.69-1.97-.24-1.55-.69-1.93zm13.99.63c.04 0 .14.01.29.02v3.42c-.21-.02-.4-.04-.56-.05s-.3-.01-.4-.01c-1.34 0-2.25.44-2.71 1.31-.26.49-.39 1.25-.39 2.27v6.11h-3.36v-12.77h3.19v2.23c.52-.85.96-1.43 1.35-1.75.62-.52 1.44-.79 2.44-.79.05 0 .11 0 .15.01zm12.89 11.51c-1.08 1.33-2.71 2-4.91 2s-3.83-.67-4.91-2-1.62-2.93-1.62-4.81c0-1.84.54-3.44 1.62-4.79s2.71-2.03 4.91-2.03 3.83.68 4.91 2.03c1.08 1.35 1.62 2.95 1.62 4.79 0 1.87-.54 3.48-1.62 4.81zm-2.67-1.85c.52-.69.79-1.68.79-2.96s-.26-2.26-.79-2.95-1.27-1.04-2.25-1.04-1.73.35-2.26 1.04-.79 1.68-.79 2.95.26 2.27.79 2.96 1.28 1.04 2.26 1.04 1.73-.35 2.25-1.04z"/></svg>