<svg xmlns="http://www.w3.org/2000/svg" role="img" viewBox="-6.15 -6.15 235.55 319.80"><title>honeybee logo</title><g transform="translate(-24 -26.667)"><g stroke-width="1.333"><path fill="#f3b14b" d="M63.21414 247.50937c-14.5458-6.5936-28.0853-36.4536-29.50776-65.07643-.63835-12.84484-.41684-14.83389 2.27017-20.3845 2.3518-4.85816 2.79007-7.401 2.08547-12.09962L37.16994 144H24v-14.66667h6.64126c5.8249 0 6.71323-.36877 7.22669-3 2.59323-13.28903 5.42494-22.69373 9.12618-30.30986l4.3392-8.9289L47 83.06903c-6.96547-6.47075-5.82858-16.84833 2.30664-21.05522 5.4364-2.81127 8.22383-2.53231 14.02343 1.4034 6.13878 4.1659 8.53186 2.76177 5.45006-3.19778-2.6193-5.06516-2.64787-7.31842-.15398-12.14108 2.7431-5.30457 8.90318-7.256 14.94119-4.73316 2.57014 1.07387 4.9889 3.16052 5.375 4.637.87272 3.3373 1.25603 3.33148 9.1-.13828 3.50973-1.55252 11.536-3.86367 17.83615-5.1359l11.45484-2.31315.40301-6.8641.40302-6.86408h14.5273v14.31555l5.43994.72964c3.60005.48287 7.09497-.02145 10.33333-1.4911 7.28907-3.30798 49.32764-3.12638 61.56006.26593 11.23011 3.11435 20.8062 8.36136 24.35454 13.34454 7.68362 10.79065-.47222 29.39655-16.09298 36.71292l-6.61568 3.09862 3.05963 7.52977c1.68279 4.14137 3.78843 11.42174 4.67919 16.17861.89077 4.75686 1.82478 9.39885 2.0756 10.31551.28785 1.05208 2.92981 1.66667 7.16453 1.66667h6.70851V144h-6.60626c-6.60361 0-6.60656.001-7.40153 5-1.92267 12.08789-5.14373 22.82542-9.57063 31.90398-4.66017 9.55695-4.74414 10.01227-3.81376 20.67808.52324 5.99828 2.05178 14.44163 3.39674 18.76301 2.2404 7.19842 2.25886 7.78503.22041 6.99783-4.4834-1.7314-18.4536-4.50696-26.89164-5.34276-7.9953-.79196-9.4413-.50169-18.66666 3.74709-9.88975 4.55476-24.77486 8.91943-30.41852 8.91943-2.56571 0-2.91482.71863-2.91482 6v6H128v-6c0-5.86457-.0978-6.00173-4.33334-6.07687-2.38333-.0423-8.53333-1.17776-13.66666-2.5233-5.13334-1.34556-9.52037-1.94987-9.74897-1.34292-.22859.60694-2.12467 3.46281-4.21352 6.34637-6.81018 9.40119-23.44339 14.69136-32.82337 10.43943zm18.70862-8.77947c4.54434-2.99561 10.08704-11.51933 10.01188-15.39657-.02965-1.52962-.84617-.43684-1.91493 2.56278-2.7011 7.58102-8.72945 13.0527-15.61258 14.17088-5.55405.90227-5.58892.9377-1.0738 1.09066 2.6202.0888 6.38691-.97587 8.58942-2.42775zm-16.9118-2.39657c-1.91838-2.01667-5.0234-6.36667-6.90007-9.66667-1.87666-3.3-3.41709-5.4-3.42318-4.66667-.02555 3.07456 10.87378 18 13.14453 18 .36667 0-.90291-1.65-2.82129-3.66666zm-14.3969-29.39191c-2.17107-6.75118-4.017-13.32486-4.10206-14.60816-.12963-1.95542-.24716-1.98789-.7258-.20049-.57902 2.16215 7.31873 28.54008 8.26252 27.59628.282-.282-1.2636-6.03643-3.43466-12.78763zm42.32895 6.07412c-.31892-1.65855-.59197-.61555-.60677 2.31779-.0148 2.93333.24614 4.29033.57986 3.01554.33373-1.27478.34584-3.67478.02691-5.33333zm43.79677 5.76943c-.41301-.66827 16.80158-18.35873 38.25464-39.31215l39.00557-38.09712.82448 4.31215c.74295 3.88573.84184 3.70469 1-1.83071l.17552-6.14286-6.37605 6.14286c-38.15688 36.76138-76.7665 76.14285-74.65049 76.14285 1.38449 0 2.17935-.54676 1.76633-1.21502zm11.61892-.9929c-.9027-.36522-2.7027-.38745-4-.0495-1.29729.33805-.5587.63688 1.6413.66405 2.2.0272 3.26141-.24941 2.3587-.61465zM158 215.99999c3.39762-1.46001-.10774-1.46001-4.66667 0-2.67964.85818-2.81039 1.0752-.66667 1.10671 1.46667.0216 3.86667-.47645 5.33334-1.10671zm14.03438-5.379c8.43368-4.25209 20.82814-14.42959 26.30494-21.59989 5.11197-6.69265 12.40115-19.75706 12.26177-21.97678-.0361-.57438-2.21742 3.15568-4.84743 8.28901-6.70868 13.09416-21.83646 27.98826-35.087 34.54501-5.5 2.72156-8.5 4.53532-6.66666 4.03056 1.83333-.50476 5.4488-1.98431 8.03438-3.28791zm-54.78391-9.61514c7.01224-6.78011 30.9721-30.24412 53.24414-52.14225l40.49462-39.81479-3.05586-6.52441c-2.83694-6.05697-3.39776-6.5194-7.82796-6.45448-4.45132.06523-8.02576 3.2703-53.17929 47.68414-45.89274 45.14094-48.33576 47.78646-47.03158 50.93007L101.27017 198l-.30175-3.345c-.25117-2.7843 7.65953-11.22154 47.19222-50.33334 41.95016-41.50354 47.97788-46.98833 51.63957-46.98833 3.53424 0 4.57244.83566 7.04005 5.66667l2.89448 5.66666-52.53404 51.62778c-52.51173 51.60583-52.53439 51.62593-53.35851 47.33333l-.82448-4.29444-.17552 5c-.0965 2.75.23718 5 .74161 5 .50443 0 6.65443-5.54736 13.66667-12.32748zm-27.26205-2.37405c-2.95047-8.88303-11.57837-21.58351-18.43375-27.13494-6.0764-4.92062-13.10514-8.8376-15.8218-8.81717-.95308.007 1.43038 1.48569 5.29658 3.28564 12.93326 6.02117 26.8749 24.42553 29.2666 38.63481.49989 2.96992 1.13332 4.3418 1.40763 3.04863.2743-1.29318-.49756-5.35081-1.71526-9.01697zm12.25573 1.1182c-.42564-1.06364-.74158-.74771-.80556.80556-.0579 1.40554.25724 2.19305.7003 1.75.44305-.44307.49042-1.59307.10526-2.55556zm-57.32016-15.3913c-.33806-1.29729-.63689-.5587-.66406 1.6413-.02717 2.2.24942 3.26141.61465 2.3587.36523-.9027.38746-2.7027.0494-4zm-1.31431-11.34316c-.31892-1.65854-.59197-.61554-.60677 2.31779-.0148 2.93333.24614 4.29033.57986 3.01555.33373-1.27479.34583-3.67479.02691-5.33334zm121.98797-88.662c-2.71204-1.81514-6.19412-4.46023-7.73796-5.87798l-2.80697-2.57773-41.57369 40.9028-41.57368 40.90279 7.0259 6.29284 7.02592 6.29284 42.28573-41.31765 42.28572-41.31766zM78.98781 162.7733l-5.67885-5.15725 40.98637-40.00948 40.98637-40.00948 4.279 3.75702c2.35344 2.06635 5.3137 4.33605 6.57834 5.04378 1.93814 1.08464-4.04122 7.5424-38.06553 41.11111-22.20068 21.90338-41.0493 39.9587-41.88585 40.12294-.83655.16424-4.07648-2.02216-7.19985-4.85864zm-34.077 3.64336c-.42563-1.06364-.74157-.7477-.80555.80556-.05789 1.40555.25724 2.19306.7003 1.75.44305-.44306.49042-1.59306.10526-2.55556zm8.42252-4.568c0-.28342-1.8-.51533-4-.51533s-4 .49608-4 1.10241c0 .60632 1.8.83823 4 .51534 2.2-.3229 4-.81898 4-1.10242zm159.57748-3.432c-.42563-1.06364-.74158-.7477-.80555.80556-.0579 1.40555.25723 2.19306.70029 1.75.44306-.44306.49042-1.59306.1052-2.55556zm1.30556-6.75c-.36988-.91666-.67252-.16666-.67252 1.66667 0 1.83333.30264 2.58333.67252 1.66667.36988-.91667.36988-2.41667 0-3.33334zM101.59637 95l39.50401-39-6.21685.17552c-5.81645.16422-5.92286.22862-1.65204 1L137.79632 58l-41.2315 40.42278-41.23149 40.42278-.79053-6.42278L53.75227 126l-.20947 8.2-.20947 8.2 4.3795-4.2c2.40874-2.31 22.15632-21.75 43.88354-43.2zm-45.13804 24.33333c.566-3.71706.44596-4.5252-.39607-2.66667-1.15966 2.55962-1.91576 9.70113-.9058 8.55556.26937-.30556.85522-2.95556 1.30187-5.88889zm4.82776-15.15308c-.09679-1.73474-3.85807 5.89825-3.85332 7.81975.0027 1.1.88146-.0189 1.95275-2.48642 1.0713-2.46752 1.92655-4.86752 1.90057-5.33333zm5.83457-9.93765c4.57964-7.81455 19.84689-21.93246 29.57377-27.3474 4.38473-2.44097 6.77223-4.06185 5.30557-3.60195-10.68502 3.35048-30.47187 20.23722-36.41865 31.08084-4.0513 7.38735-2.8046 7.28085 1.53931-.13149zm159.03476-8.32499c6.51467-4.86688 8.96971-9.39168 9.56561-17.63012.50058-6.92034.17226-8.2097-3.07244-12.0658-3.54292-4.21053-10.97745-9.00394-12.1486-7.8328-.32202.32202 1.24588 1.34409 3.48424 2.27125 2.23838.92716 5.5576 3.45396 7.3761 5.6151 6.16236 7.32356 3.52156 21.95438-5.10474 28.28169-2.84434 2.0863-6.69038 2.95603-16 3.6182L198 89.04684l12.23781-.19008c10.0904-.15674 12.88352-.67248 15.91761-2.93915zm-29.1832 1.27683c-.44306-.44305-1.59306-.49042-2.55556-.10526-1.06364.42563-.7477.74157.80556.80555 1.40555.0579 2.19306-.25724 1.75-.7003zM190 85.33334c-3.66546-1.5751-5.77063-1.5751-3.33334 0 1.1.71087 2.9 1.2595 4 1.2192 1.31875-.04834 1.09166-.46363-.66666-1.2192zm-12.06314-5.2185c-11.2029-6.42587-20.60353-18.72713-20.60353-26.9609 0-1.61245-.37203-2.5597-.82672-2.105-1.63213 1.63214.95203 10.0164 4.94545 16.04536 3.79431 5.72836 18.17334 16.92232 21.69987 16.89319.83311-.0069-1.51368-1.74958-5.21507-3.87266zM110 61.33333c1.75832-.75558 1.9854-1.17088.66666-1.21921-1.1-.04031-2.9.50833-4 1.2192-2.43728 1.5751-.33211 1.5751 3.33334 0zm6.97222-2.1389c-.44306-.44305-1.59306-.49042-2.55556-.10526-1.06364.42563-.7477.74157.80556.80555 1.40555.0579 2.19305-.25723 1.75-.7003zM125 57.74756c-1.28334-.33537-3.38334-.33537-4.66667 0-1.28333.33537-.23333.60977 2.33333.60977 2.56667 0 3.61667-.2744 2.33334-.60977zM179.7746 42.567l15.55873-.76634-14-.20438c-11.28933-.1648-15.09717.29365-19.66667 2.36782C158.55 45.3788 156 47.1836 156 47.97473c0 .79114 1.84857.07047 4.10793-1.60148 3.53585-2.61656 6.27473-3.14664 19.66667-3.80626zm34.53095 3.29412c-.44306-.44305-1.59306-.49042-2.55556-.10527-1.06364.42564-.7477.74158.80556.80556 1.40555.05789 2.19306-.25724 1.75-.7003zm-5.97222-1.41082c-.91667-.36988-2.41667-.36988-3.33334 0-.91666.36988-.16666.67252 1.66667.67252 1.83333 0 2.58333-.30264 1.66667-.67252zm-6.64129-1.32487c-.90271-.36523-2.70271-.38747-4-.0494-1.2973.33805-.55871.63688 1.64129.66405 2.2.02717 3.26141-.24942 2.35871-.61465z"/><path fill="#92713c" d="M63.21414 247.50937c-14.5458-6.5936-28.0853-36.4536-29.50776-65.07643-.63835-12.84484-.41684-14.83389 2.27017-20.3845 2.3518-4.85816 2.79007-7.401 2.08547-12.09962L37.16994 144H24v-14.66667h6.64126c5.8249 0 6.71323-.36877 7.22669-3 2.59323-13.28903 5.42494-22.69373 9.12618-30.30986l4.3392-8.9289L47 83.06903c-6.96547-6.47075-5.82858-16.84833 2.30664-21.05522 5.4364-2.81127 8.22383-2.53231 14.02343 1.4034 6.13878 4.1659 8.53186 2.76177 5.45006-3.19778-2.6193-5.06516-2.64787-7.31842-.15398-12.14108 2.7431-5.30457 8.90318-7.256 14.94119-4.73316 2.57014 1.07387 4.9889 3.16052 5.375 4.637.87272 3.3373 1.25603 3.33148 9.1-.13828 3.50973-1.55252 11.536-3.86367 17.83615-5.1359l11.45484-2.31315.40301-6.8641.40302-6.86408h14.5273v14.31555l5.43994.72964c3.60005.48287 7.09497-.02145 10.33333-1.4911 7.28907-3.30798 49.32764-3.12638 61.56006.26593 11.23011 3.11435 20.8062 8.36136 24.35454 13.34454 7.68362 10.79065-.47222 29.39655-16.09298 36.71292l-6.61568 3.09862 3.05963 7.52977c1.68279 4.14137 3.78843 11.42174 4.67919 16.17861.89077 4.75686 1.82478 9.39885 2.0756 10.31551.28785 1.05208 2.92981 1.66667 7.16453 1.66667h6.70851V144h-6.60626c-6.60361 0-6.60656.001-7.40153 5-1.92267 12.08789-5.14373 22.82542-9.57063 31.90398-4.66017 9.55695-4.74414 10.01227-3.81376 20.67808.52324 5.99828 2.05178 14.44163 3.39674 18.76301 2.2404 7.19842 2.25886 7.78503.22041 6.99783-4.4834-1.7314-18.4536-4.50696-26.89164-5.34276-7.9953-.79196-9.4413-.50169-18.66666 3.74709-9.88975 4.55476-24.77486 8.91943-30.41852 8.91943-2.56571 0-2.91482.71863-2.91482 6v6H128v-6c0-5.86457-.0978-6.00173-4.33334-6.07687-2.38333-.0423-8.53333-1.17776-13.66666-2.5233-5.13334-1.34556-9.52037-1.94987-9.74897-1.34292-.22859.60694-2.12467 3.46281-4.21352 6.34637-6.81018 9.40119-23.44339 14.69136-32.82337 10.43943zm19.61053-8.95522c7.29151-5.19201 9.842-11.38229 9.842-23.88749 0-10.32311-.44071-12.25626-4.94413-21.6874-8.51668-17.83576-24.75685-31.64593-37.21426-31.64593-4.5387 0-5.10762.42263-6.58172 4.88917-4.28792 12.99254 5.6899 51.98933 17.57149 68.67548 5.51984 7.75191 13.62362 9.14119 21.32662 3.65617zm68.50866-20.55329c28.11819-5.88323 52.49482-27.72649 61.25138-54.88576 2.37903-7.37878 4.83512-26.07309 3.34702-25.47557-.49374.19825-19.69307 18.81047-42.66517 41.36047l-41.76746 40.99999 5.25044-.0232c2.88775-.0133 9.45046-.90193 14.58379-1.97598zm7.34205-56.90896l53.12485-52.24142-3.17876-6.27298c-2.73286-5.39306-3.83257-6.34931-7.83981-6.81713-4.54444-.53054-5.883.65811-53.5065 47.5144l-48.84547 48.05856 2.11849 7.9468c1.16517 4.37073 2.11848 9.32073 2.11848 11 0 1.67925.64887 3.0532 1.44194 3.0532.79306 0 25.34811-23.50864 54.56678-52.24143zm-8.16585-53.52602c20.10047-20.20558 20.4462-20.65005 17.33333-22.28426-1.7469-.91711-5.43277-3.43628-8.19081-5.59816l-5.0146-3.93068-41.89638 41.12361C71.90745 156.95685 70.91853 158.05073 73.75501 160c1.60067 1.1 4.99603 3.89053 7.54524 6.20118l4.63494 4.20119 22.0324-21.10985c12.11783-11.61042 31.2617-30.3874 42.54194-41.72664zm-52.36482-8.56274L142 56.0063l-7.73679-.0032c-8.83923-.0036-24.17125 3.1949-32.56805 6.79419-14.0357 6.0164-29.61116 19.759-37.3384 32.94452-5.91094 10.08625-9.84401 22.88449-10.83986 35.27294-.51646 6.4248-.55392 11.5248-.08325 11.33333.47067-.19148 20.59065-19.69671 44.71106-43.34498zM225.39427 86.4722c10.21284-5.73993 14.49264-21.2909 8.26308-30.02443-5.3809-7.54377-19.59825-12.55822-42.69757-15.0594-14.91806-1.61532-27.0567-.19203-32.28594 3.78564-2.64138 2.00918-3.27664 3.56867-3.03532 7.45133.38954 6.26778 6.26348 17.0937 12.0144 22.14307 15.36024 13.48647 44.17694 19.32742 57.74135 11.70379z"/><path fill="#664f2d" d="M64.78099 248.0105c-10.7672-3.40933-21.78178-21.59456-28.22218-46.59516-4.15424-16.12608-4.2244-34.32396-.15626-40.53272 2.32437-3.54742 2.84168-8.5916 1.42373-13.88262-.6787-2.53256-1.7146-3-6.64845-3h-5.8445v-14.52056l6.32303-.40639 6.32302-.40639.88436-6.22552c1.28317-9.03305 4.5843-19.39061 8.85217-27.77448l3.7331-7.33333-4.39117-4.15743c-11.02255-10.43584-.43297-27.12887 13.51323-21.30177 2.63986 1.103 5.16545 2.95845 5.61241 4.12323.73538 1.91636 1.04694 1.90574 3.27617-.11167 2.39335-2.16595 2.38865-2.32459-.16474-5.5707-3.13274-3.98265-3.30748-7.13393-.67756-12.21963 2.2395-4.3307 4.42893-5.4287 10.82503-5.4287 4.50934 0 9.89095 3.71192 9.89095 6.82218 0 1.63186.39676 1.53994 14.08621-3.26341 5.18075-1.81782 12.83075-3.73133 17-4.25224L128 41.02607v-14.3594h14.66666V40.9925l5.18726.82947c3.47508.5557 7.10586.07401 11-1.45933 8.43513-3.32138 47.46586-3.29992 59.81274.03289 20.14247 5.43708 27.98533 12.02537 27.99501 23.51682.009 11.38125-7.45152 21.60181-19.76316 27.07247-4.45613 1.98007-5.55464 3.0694-4.82949 4.78911 4.30631 10.21241 6.42933 16.80268 7.80433 24.22605l1.6053 8.66667 6.92733.40301 6.92735.40301v14.52731h-6.60626c-6.59598 0-6.60754.008-7.44441 5-1.94339 11.59315-4.96975 21.59784-9.31836 30.80505-3.28417 6.95352-4.63097 11.66954-4.63097 16.21605 0 7.73816 3.24889 25.41742 5.41456 29.46401 1.38821 2.59389 1.28498 2.8118-.92612 1.95517-5.85492-2.26832-17.05578-4.66804-25.81865-5.53152-8.7544-.86264-10.07079-.63172-18.47058 3.24-8.76497 4.04003-27.41945 9.51791-32.41249 9.51791-2.01883 0-2.45339 1.06276-2.45339 6v6H128l-.004-5.66667-.004-5.66666-10.99562-2.2497c-6.0476-1.23734-12.26063-2.63509-13.80674-3.10612-2.29947-.70053-3.43403.20651-6.23352 4.98347-5.79016 9.88016-21.74592 16.35161-32.17438 13.04952zm15.1264-7.29595c5.04379-2.60825 10.16695-8.87974 12.14166-14.86318 2.80216-8.49063 1.02179-23.08356-4.08437-33.47784-8.08973-16.46775-24.0631-30.10423-36.58476-31.23243-4.51526-.40682-5.50847.00056-6.96978 2.8589-5.91038 11.56066 4.83815 56.25051 17.10967 71.13799 6.19966 7.52128 11.5116 9.13227 18.38758 5.57656zm75.29793-23.34848c14.82864-3.79253 25.25118-9.8329 36.86626-21.36577 14.72393-14.61973 22.44449-30.74156 24.65635-51.48654l.97882-9.18043-38.52005 37.54605c-21.18602 20.65034-40.58774 39.70033-43.11493 42.33333l-4.59489 4.78728h6.71494c3.69322 0 11.3493-1.18526 17.0135-2.63392zm3.28674-55.77239c52.40205-51.44212 53.35592-52.47245 51.84443-56.00001-3.31798-7.7436-6.38562-10.927-10.52967-10.927-3.48254 0-10.28441 6.18615-51.57588 46.90717-26.16035 25.79894-48.08685 47.35152-48.72554 47.8946-1.32407 1.12585 3.23575 25.4159 4.67052 24.87977.51254-.19152 24.9548-23.93105 54.31614-52.75453zm-29.08234-32.87878c41.39469-41.10206 41.56508-41.29418 38.42996-43.33333-1.73199-1.12653-5.25446-3.92903-7.82771-6.22777l-4.67864-4.17952-42.39585 41.51286L70.54163 158l7.72919 6.2436c4.25105 3.43398 8.14108 6.13398 8.64452 6 .50345-.13398 19.62591-18.8219 42.49438-41.5287zm4.54854-64.61042L141.91652 56h-9.3448c-25.36458 0-51.97099 14.75768-66.75083 37.02445-6.83053 10.29063-12.1742 26.47905-13.30565 40.30888l-.9272 11.33333 37.20598-36.22885c20.46329-19.92587 40.78719-39.87587 45.16424-44.33333zm87.79667 24.63044c6.64414-2.3696 10.06934-5.5321 13.07076-12.06826C243.71978 57.29806 229.5719 45.54784 192 41.0987c-15.33334-1.81571-26.31143-.6527-32.26606 3.41823-3.91862 2.679-4.37194 3.62897-4.13884 8.67322.32262 6.98113 5.06546 15.35381 12.50443 22.07448 13.32764 12.04072 39.34761 18.57308 53.6554 13.47029z"/><path fill="#010101" d="M64.83302 247.37451c-11.06904-3.94554-19.67573-17.16316-26.94113-41.37452-4.821-16.06558-5.37904-37.45463-1.16535-44.66666 2.014-3.44712 2.5887-6.32177 2.19907-11L38.39815 144H25.33333v-14.66667l6.33334-.004 6.33333-.004 2.20546-11.37141c1.22392-6.31053 4.37486-15.93953 7.07993-21.63564 3.4402-7.2441 4.38284-10.42811 3.20363-10.82119-.91896-.30632-3.05493-1.94103-4.7466-3.6327-4.25674-4.25674-4.09988-11.1086.3761-16.428 4.54264-5.39861 12.6303-5.78906 17.80852-.85974 3.037 2.89102 3.68374 3.03787 5.96547 1.35454 2.45082-1.80809 2.45944-1.99822.20377-4.4907-1.29546-1.43148-2.41818-4.81784-2.49493-7.52525-.10829-3.82048.68364-5.63062 3.53724-8.08519 5.37168-4.62052 10.95834-4.17627 16.0498 1.27626l4.14494 4.43893 6.92543-3.16916c3.80899-1.74383 12.05899-4.1596 18.33333-5.36917L128 40.80771V26.66666h14.66666V41.09894l5.20683.87969c3.47983.5879 7.34941.13102 11.66667-1.37753 12.86908-4.49673 46.35778-3.78166 63.42313 1.35425 9.14232 2.75143 16.32248 6.81089 20.20232 11.42181 8.74222 10.38956.1052 30.27379-16.03186 36.90871-3.18473 1.30944-5.79268 2.72735-5.79542 3.15092-.003.42356 1.49476 4.46107 3.32781 8.97223 1.83305 4.51115 4.05517 12.4146 4.93807 17.56321l1.60525 9.3611h14.12387V144h-14.66667l-.0197 4.33333c-.034 7.4682-3.90571 21.23177-8.88434 31.58277-4.6855 9.74156-4.77268 10.21706-4.03698 22.02023.41357 6.63501 1.70089 14.70726 2.86072 17.93832 1.15982 3.23105 1.86156 6.12188 1.55938 6.42404-.30216.30216-3.75857-.40623-7.6809-1.5742-3.92232-1.16798-12.24348-2.48884-18.49145-2.93527-10.40027-.74309-11.92375-.52597-18.03364 2.57015-6.9533 3.5235-21.66786 8.19293-30.27308 9.60668-4.90658.80609-5 .93244-5 6.76102v5.93959H128v-11.58328l-11-2.20307c-6.05-1.21168-12.30455-2.56353-13.899-3.00412-2.27033-.62734-3.33985.0515-4.93189 3.13011-3.15008 6.09159-10.77556 12.00785-18.39232 14.26979-8.24189 2.44758-8.3513 2.4483-14.94377.0984zm16.86084-7.16113c9.78362-6.45125 14.32227-19.11771 11.67384-32.5794-4.5509-23.13174-23.6351-44.65216-41.806-47.14276-5.43714-.74524-5.86615-.56573-7.22922 3.02492-3.78388 9.9677-2.8798 21.89439 3.16739 41.78411 9.15294 30.10481 21.84034 43.05904 34.194 34.91313zm73.54315-22.36396c22.43496-5.43779 42.41352-21.72169 53.38361-43.51132 5.11233-10.1545 9.10697-26.07788 8.47113-33.76756l-.42509-5.14105-42.82322 42.23981c-23.55278 23.2319-42.55142 42.5116-42.21922 42.8438.98885.98885 15.12026-.60525 23.61279-2.66368zm-37.31632-16.17645c7.37695-7.14652 31.64477-30.93389 53.92851-52.86083l40.51586-39.86714-3.50139-7.13917c-3.32284-6.77515-3.75705-7.13558-8.51585-7.06884-4.7738.06695-7.36637 2.38694-54.01236 48.33334l-48.99786 48.263 1.99787 6.54524c1.09882 3.59988 1.99786 8.44988 1.99786 10.77777 0 3.96283.84357 6.01032 2.47625 6.01032.38416 0 6.73416-5.84716 14.11111-12.99369zM172 87.13627c0-.22062-1.79191-1.32775-3.982-2.4603-2.19011-1.13254-6.0266-3.85435-8.52555-6.04845l-4.54353-3.98928-42.47446 41.99769c-38.9692 38.53177-42.2566 42.12872-39.83452 43.58539 1.45197.87322 5.02577 3.81317 7.94179 6.5332l5.30185 4.94552 43.05821-42.08133C152.6238 106.47398 172 87.35689 172 87.13627zm-78.24128 17.01842c22.1327-21.91492 42.19289-41.4696 44.57818-43.45486 6.31024-5.25194 4.44518-6.50387-8.06357-5.41272-18.47559 1.61165-31.62684 6.58192-45.99582 17.38327-14.45632 10.86702-24.90728 26.93886-29.6981 45.67075C52.18336 127.70966 51.02743 144 52.75872 144c.4173 0 18.8673-17.93039 41-39.84531zm128.56863-15.53888c9.46658-3.95538 15.00598-12.2829 15.00598-22.55885 0-8.07315-6.42324-15.44323-16.86364-19.34948-11.41954-4.2726-30.25536-7.04732-43.86063-6.46117-20.7279.89303-25.77029 6.62502-18.86524 21.44527 5.73975 12.31917 15.9328 20.54876 31.82422 25.69402 11.58172 3.74987 25.47981 4.27179 32.75931 1.23021z"/></g><path d="M30.54157 305.18576v28.56h3.8v-13.08h15.04v13.08h3.8v-28.56h-3.8v12.28h-15.04v-12.28z"/><path d="M61.6215 319.46576q0-2.16.56-4.24.56-2.12 1.76-3.8 1.2-1.68 3.08-2.68 1.88-1.04 4.48-1.04 2.6 0 4.48 1.04 1.88 1 3.08 2.68 1.2 1.68 1.76 3.8.56 2.08.56 4.24t-.56 4.28q-.56 2.08-1.76 3.76-1.2 1.68-3.08 2.72-1.88 1-4.48 1-2.6 0-4.48-1-1.88-1.04-3.08-2.72-1.2-1.68-1.76-3.76-.56-2.12-.56-4.28zm-3.8 0q0 2.92.84 5.64.88 2.68 2.6 4.76 1.72 2.08 4.28 3.32 2.56 1.2 5.96 1.2t5.96-1.2q2.56-1.24 4.28-3.32 1.72-2.08 2.56-4.76.88-2.72.88-5.64 0-2.92-.88-5.6-.84-2.72-2.56-4.8-1.72-2.08-4.28-3.32-2.56-1.24-5.96-1.24t-5.96 1.24q-2.56 1.24-4.28 3.32-1.72 2.08-2.6 4.8-.84 2.68-.84 5.6z"/><path d="M89.78143 305.18576v28.56h3.6v-22.92h.08l14.92 22.92h4.16v-28.56h-3.6v23.16h-.08l-15.04-23.16z"/><path d="M118.70136 305.18576v28.56h19.84v-3.2h-16.04v-9.88h14.84v-3.2h-14.84v-9.08h15.92v-3.2z"/><path d="M154.94128 322.06576l10.92-16.88h-4.32l-8.36 13.6-8.56-13.6h-4.52l11.04 16.88v11.68h3.8z"/><path d="M172.86124 317.46576v-9.08h7.6q1.24 0 2.32.16 1.12.12 1.96.6.84.48 1.32 1.36.48.88.48 2.4 0 2.28-1.44 3.44-1.4 1.12-4.64 1.12zm-3.8-12.28v28.56h13.8q2.12 0 3.72-.68 1.64-.72 2.72-1.84 1.12-1.16 1.68-2.64.56-1.48.56-3.04 0-2.64-1.4-4.48-1.4-1.84-4.04-2.4v-.08q2.04-.8 3.12-2.44 1.12-1.68 1.12-3.96 0-2.16-1-3.64-.96-1.48-2.36-2.32-.64-.4-1.56-.6-.88-.2-1.92-.28-1.04-.12-2.12-.12-1.04-.04-1.96-.04zm3.8 25.36v-9.88h8.68q1.2 0 2.32.24 1.12.2 1.96.76.88.52 1.4 1.44.52.92.52 2.32 0 2.4-1.44 3.76-1.4 1.36-3.92 1.36z"/><path d="M196.46122 305.18576v28.56h19.84v-3.2h-16.04v-9.88h14.84v-3.2h-14.84v-9.08h15.92v-3.2z"/><path d="M220.90114 305.18576v28.56h19.84v-3.2h-16.04v-9.88h14.84v-3.2h-14.84v-9.08h15.92v-3.2z"/></g></svg>