<svg xmlns="http://www.w3.org/2000/svg" role="img" viewBox="3.77 1.15 128.96 64.21"><title>hydroscoper logo</title><path fill="#484F5E" d="M72.6332 27.8422c-.052-.2776-.1214-.5725-.1908-.85-.0867-.3296-.2082-.6419-.347-.9541-.0173-.0347-.0347-.0868-.052-.1214-1.2143-2.6542-3.8684-4.545-6.9389-4.5971-2.6541-.052-5.0134 1.249-6.4532 3.244-.3122.4163-.5725.8847-.798 1.3704-.0173.0347-.0347.0694-.052.1214-.1388.3123-.2429.6245-.347.9541-.0867.2776-.1387.5551-.1908.8501-.052.2602-.0867.5377-.1041.8153-.0173.2255-.0173.4337-.0173.6592 0 .3643.0347.7286.1041 1.0755.052.3296.1214.6419.2081.9541.9368 3.2093 3.8685 5.6032 7.3553 5.6726 2.6541.052 5.0133-1.249 6.4532-3.244l-4.0246-1.4745c-.5725.5378-1.3184.85-2.099.8847-1.3531.0694-2.498-.6071-3.1052-1.8561-.1388-.2949-.2602-.6072-.3296-.9541h10.9808c.0347-.2256.0694-.4684.0868-.7113.0173-.2255.0173-.4337.0173-.6592-.052-.399-.0867-.798-.1561-1.1796zm-10.9808 0c.0867-.2949.1908-.5898.3296-.85.1908-.3643.4163-.6766.6939-.9541h.0173-.0173c.0347-.0347.0867-.0694.1214-.1041.5551-.4857 1.2317-.798 1.9602-.8327.9021-.052 1.7001.2602 2.3246.8327.0347.0347.0867.0694.1214.1214.2602.2602.4857.5898.6592.9541.1214.2602.2255.5378.3123.8501h-6.5226v-.0174zM21.979 10.8419c0-2.96635-1.8041-5.5164-4.3715-6.60928-.8673-.3643-1.8041-.57246-2.7929-.57246H6.34912l.01735 19.98414h4.35413v-5.6379h3.2266l2.7583 5.6379h4.7531l-3.2613-6.4879c2.2552-1.2143 3.7817-3.5909 3.7817-6.3145zm-4.3541 0c0 1.5613-1.2664 2.8277-2.8276 2.8277h-4.0767V8.01433h4.0767c1.5612 0 2.8276 1.26636 2.8276 2.82757z"/><path fill="#484F5E" d="M27.3915 17.2431v-1.5439l-3.695 3.3827 3.695 3.5389v-1.5439c3.5215 0 5.6205 3.0531 5.6205 6.1583 0 3.1051-2.1684 6.2624-5.6205 6.2624-3.7471 0-5.6206-3.1573-5.6206-6.2624h-4.3715c0 5.5164 4.4756 9.992 9.9921 9.992 5.5164 0 9.992-4.4756 9.992-9.992.0174-5.5338-4.4582-9.9921-9.992-9.9921zm92.0965 13.6002c-.485 1.4572-1.682 2.2898-3.018 2.3592-1.527.0694-2.776-.7979-3.331-2.3766-.121-.3469-.208-.7285-.243-1.1449-.017-.2255-.034-.451-.034-.6939 0-.104 0-.2255.017-.3296.035-.4163.104-.7979.243-1.1622.503-1.4052 1.683-2.3419 3.001-2.4113 1.526-.0694 2.775.8327 3.313 2.4286l4.285-.7633c-1.006-3.0878-3.886-5.3776-7.268-5.4297-3.539-.0694-6.54 2.2552-7.581 5.4297-.226.6766-.347 1.4052-.382 2.1511v.5378c.017.7459.156 1.4571.382 2.151 1.006 3.0879 3.886 5.3777 7.268 5.4297 3.539.0694 6.54-2.2551 7.581-5.4297l-4.233-.7459zm10.721-9.0552h-4.354v14.9013h4.354V21.7881zm-.312-2.9144h-3.661c-.19 0-.364-.1561-.364-.3643v-3.6429c0-.1908.156-.3643.364-.3643h3.661c.19 0 .364.1561.364.3643v3.6603c0 .1908-.174.3469-.364.3469zm-24.148 8.3268c-1.336-1.7001-4.649-2.8797-6.2622-3.4695-1.4398-.5204-1.9602-.9367-1.9429-1.648.0521-1.3531 1.3704-1.648 2.2552-1.648 1.9599 0 2.2549 2.0644 2.2549 2.0644l3.851-.9542s-.746-4.8745-6.7478-4.8745c-1.9429 0-4.0593 1.1449-5.1695 2.6021-.9888 1.301-1.1102 2.897-.4684 4.4929.8501 2.1337 2.6021 2.7756 4.3716 3.4174 1.3184.4857 3.0881.9715 4.1981 2.0817.538.5378.642 1.4572.26 2.2378-.399.85-1.526 1.4398-2.6193 1.4398-2.394 0-3.3654-2.151-3.4001-2.2378l-.1214-.2949-4.3369.8674.1041.3643c.0174.052.399 1.3531 1.5613 2.6715 1.0755 1.2143 3.0358 2.6715 6.3144 2.6715 2.7929 0 5.0129-1.197 6.2099-3.3654 1.128-2.0123 1.18-4.5277-.312-6.4185zm-57.5234-5.8634c-1.5786-.0347-3.2093.4163-4.0593 1.2143v-.7286h-4.3542v21.8403h4.3542v-7.8063c.7633.7286 2.3072 1.1622 3.7644 1.1969 4.4235.0868 7.546-3.5735 7.4767-7.9971-.0868-4.1807-3.0185-7.6328-7.1818-7.7195zm-.4511 11.9002c-2.0296.1041-3.5908-1.4745-3.6082-4.1633v-.1041c.0174-2.1858 1.5092-3.7817 3.2439-3.8685 2.0297-.104 3.6083 1.5786 3.6083 4.2675 0 2.3766-1.5092 3.7643-3.244 3.8684zm34.9721-11.8481c-2.602 0-3.8164 1.7173-3.8164 1.7173v-1.3184H74.871v14.9014h4.0592v-7.0083c0-2.446 1.1276-4.3889 3.1226-4.3889 1.9949 0 3.0704 1.7347 3.0704 4.3889v7.0083h4.1113v-8.3094c0-1.5959-.3816-6.9909-6.4879-6.9909z"/><path d="M24.29743 50.21905c-.45893-.19398-.96753-.29097-1.52818-.29097-.49678 0-.97226.10408-1.4241.31226-.45182.2058-.8516.57484-1.19462 1.1v-4.33141h-2.36087v12.21596h2.36087v-4.90626c0-.77591.16323-1.37441.48731-1.79312.32409-.41871.79958-.62689 1.42646-.62689.60323 0 1.01484.21054 1.23011.63162.1656.30043.24839.69312.24839 1.18043v5.51422h2.42v-5.3226c0-.80904-.02601-1.39334-.08279-1.75055-.0544-.3572-.20817-.70495-.45656-1.04323-.29333-.39978-.66946-.69548-1.12602-.88946zM28.5413 60.9636v1.89485c.25549.01892.4471.02839.57484.03075a26.8059 26.8059 0 0 0 .50624.00473c1.04796 0 1.74818-.20817 2.09592-.61979.35011-.41398.82323-1.48086 1.42173-3.19829l3.11076-8.91594h-2.51936l-1.8712 6.68755-1.98-6.68755h-2.63528l3.32604 9.46476c.02365.06624-.02602.2484-.1443.54882-.12065.29807-.2484.49678-.38796.5914-.1443.09936-.32172.16323-.53226.18925-.21054.02839-.4329.03785-.66474.02602zm3.21012-11.04498zm10.70434.38795c-.42817-.24129-.91549-.36193-1.4643-.36193-1.19227 0-2.14324.44236-2.85528 1.32946-.71442.8871-1.06926 2.10539-1.06926 3.6525 0 1.34129.36194 2.43892 1.08581 3.29764.72151.85634 1.61334 1.28452 2.67313 1.28452.64345 0 1.18044-.12301 1.61334-.36667.4329-.24366.8185-.63398 1.15678-1.17334v1.25614h2.30173V46.9829h-2.40345v4.32431c-.26495-.4258-.6127-.75935-1.0385-1.00065zm.58194 6.4581c-.35011.49677-.85871.74752-1.53054.74752-.66947 0-1.17098-.25075-1.4998-.75226-.33118-.5015-.49677-1.17097-.49677-2.0084 0-.77591.16323-1.42645.48731-1.95161.32409-.5228.8327-.78538 1.52581-.78538.4542 0 .85399.1443 1.197.4329.56065.47549.84215 1.27033.84215 2.37743 0 .79484-.17505 1.44065-.52516 1.9398zM53.08914 49.947c-.03075-.00236-.0686-.00236-.11355-.00236-.70968 0-1.28688.18451-1.72925.55591-.27204.22237-.5914.63635-.9557 1.23958V50.1599h-2.26388v9.06498h2.38689v-4.33142c0-.7286.09226-1.2656.2744-1.6157.32883-.61979.96754-.92968 1.92324-.92968.07097 0 .1656.00236.2815.0071.11592.0071.25076.01655.3998.03311v-2.4271c-.10646-.0071-.1727-.00947-.20345-.0142zm7.2553 6.86734c-.3714.49204-.90366.74043-1.59678.74043-.69312 0-1.22538-.24839-1.60151-.74043-.37377-.49441-.56065-1.19463-.56065-2.10538 0-.9084.18688-1.60861.56065-2.10066.37613-.48968.90839-.7357 1.6015-.7357.69313 0 1.22539.24602 1.59679.7357.3714.49205.55828 1.19227.55828 2.10066 0 .91075-.18688 1.61097-.55828 2.10538zm1.89721 1.30818c.76409-.94388 1.14732-2.08173 1.14732-3.41356 0-1.30818-.38323-2.4413-1.14732-3.40174-.76645-.95806-1.92796-1.43828-3.48453-1.43828-1.55893 0-2.72044.48022-3.48453 1.43828-.76645.96044-1.14968 2.09356-1.14968 3.40174 0 1.33183.38323 2.46968 1.14968 3.41356.7641.94624 1.9256 1.41936 3.48453 1.41936 1.55657 0 2.71808-.47312 3.48453-1.41936zm-3.48453-8.2039zm8.17315 6.41314h-2.40345c0 .92968.34065 1.69613 1.01957 2.29936.67893.60086 1.73162.9013 3.15571.9013 1.39807 0 2.42947-.28388 3.09894-.85162.6671-.56775 1.00065-1.30108 1.00065-2.20001 0-.6813-.23183-1.2514-.69785-1.7056-.47076-.44946-1.17807-.78301-2.11958-1.00538-1.41463-.3099-2.23786-.5299-2.46969-.65763-.2342-.12065-.3501-.31936-.3501-.58904 0-.21763.10881-.40688.32881-.56774.21764-.1585.58667-.23893 1.10237-.23893.62452 0 1.06925.1585 1.32947.48022.13957.17742.22473.41871.25785.72387h2.37033c-.10645-1.1071-.51334-1.88775-1.22775-2.33958-.71204-.45183-1.63226-.67892-2.76302-.67892-1.19226 0-2.1172.30043-2.77485.90366-.65763.60086-.98645 1.32-.98645 2.15742 0 .70968.21054 1.25377.63398 1.6299.42108.38323 1.14495.70022 2.16925.9557 1.42646.33828 2.24969.57721 2.4697.71678.22236.1372.33354.34065.33354.6056 0 .27677-.1372.48494-.41161.62451-.27441.1372-.64581.20818-1.10947.20818-.79484 0-1.33656-.1585-1.6299-.47549-.16796-.17742-.2744-.47549-.32645-.89656zm1.81441-6.41314zm11.22714 3.49399h2.42947c-.13484-1.29162-.56301-2.19291-1.28688-2.70388-.72388-.5086-1.65356-.7641-2.78905-.7641-1.33656 0-2.38452.43291-3.14388 1.29636-.75936.8658-1.14022 2.077-1.14022 3.63356 0 1.3815.34538 2.50517 1.0314 3.36861.6884.86581 1.76001 1.29872 3.21959 1.29872 1.4572 0 2.5572-.51807 3.3-1.55657.46603-.64344.72861-1.32473.78302-2.04624h-2.42c-.04969.47785-.19162.8658-.42345 1.16624-.2342.29806-.62688.44946-1.1828.44946-.78065 0-1.3129-.3785-1.59678-1.13312-.15376-.40452-.23183-.93914-.23183-1.60388 0-.69785.07807-1.2585.23183-1.67957.2957-.79248.83979-1.1899 1.63936-1.1899.56065 0 .97226.18215 1.23958.54882.18215.27204.2957.5772.34064.91549zm-1.60624-3.494zm11.32886 6.89573c-.3714.49204-.90366.74043-1.59678.74043-.69312 0-1.22775-.24839-1.60151-.74043-.37377-.49441-.56065-1.19463-.56065-2.10538 0-.9084.18688-1.60861.56065-2.10066.37376-.48968.90839-.7357 1.6015-.7357.69313 0 1.22539.24602 1.59679.7357.3714.49205.55591 1.19227.55591 2.10066 0 .91075-.18451 1.61097-.55591 2.10538zm1.89484 1.30818c.76646-.94388 1.14732-2.08173 1.14732-3.41356 0-1.30818-.38086-2.4413-1.14732-3.40174-.76409-.95806-1.9256-1.43828-3.48453-1.43828-1.55656 0-2.71807.48022-3.48452 1.43828-.7641.96044-1.14732 2.09356-1.14732 3.40174 0 1.33183.38323 2.46968 1.14732 3.41356.76645.94624 1.92796 1.41936 3.48452 1.41936 1.55893 0 2.72044-.47312 3.48453-1.41936zm-3.48453-8.2039zm12.09768 2.91915c.317.53699.47785 1.15677.47785 1.85463 0 .84925-.17268 1.52817-.52043 2.03678-.34538.51097-.84925.76645-1.50925.76645-.4542 0-.84925-.12537-1.18044-.37376-.56064-.42818-.83978-1.1686-.83978-2.2213 0-.66473.0828-1.21355.24838-1.64646.32173-.81613.91313-1.22301 1.77184-1.22301.71441 0 1.23248.26968 1.55183.80667zm1.82151-1.7056c-.7357-.78065-1.63226-1.17097-2.69205-1.17097-.72624 0-1.35312.20107-1.87828.60559-.2886.2271-.56065.53936-.81614.93205V50.1599H94.3665v12.6323h2.34667v-4.7241c.2484.38323.50388.6742.7641.87527.47784.35957 1.07634.53936 1.79785.53936 1.13075 0 2.0557-.41871 2.77248-1.25614.71914-.83742 1.07635-2.05334 1.07635-3.65012 0-1.51398-.36667-2.6613-1.1-3.44431zm5.11443 1.25613c.30043-.34301.72624-.5157 1.27506-.5157.50624 0 .92732.16323 1.27033.48732.34064.32408.5299.79957.56774 1.42645h-3.68324c.07807-.58903.26732-1.05269.57011-1.39807zm3.3142-2.04624c-.60559-.2815-1.28451-.42344-2.03914-.42344-1.26796 0-2.30173.4187-3.09657 1.25613-.7972.83742-1.19463 2.04151-1.19463 3.6099 0 1.67485.44237 2.88367 1.32237 3.62647.88237.7428 1.89958 1.1142 3.054 1.1142 1.3957 0 2.48387-.44237 3.25979-1.32237.49914-.55592.77828-1.10237.83979-1.63936h-2.42001c-.12774.2673-.27441.47548-.44237.62451-.30516.27678-.70022.41635-1.18753.41635-.4613 0-.85398-.11355-1.1828-.34301-.537-.3643-.82323-1.00302-.85635-1.9114h6.20497c.01183-.78302-.0142-1.38152-.0757-1.79786-.10408-.70968-.33355-1.33184-.68839-1.8712-.39505-.60795-.8942-1.05505-1.49742-1.33892zm-1.87118-.42344zm10.76584.02838c-.03075-.00236-.0686-.00236-.11355-.00236-.70968 0-1.28688.18451-1.72925.55591-.27204.22237-.5914.63635-.9557 1.23958V50.1599h-2.26388v9.06498h2.38689v-4.33142c0-.7286.09226-1.2656.27441-1.6157.32882-.61979.96753-.92968 1.92323-.92968.07097 0 .1656.00236.2815.0071.11592.0071.25076.01655.3998.03311v-2.4271c-.10646-.0071-.1727-.00947-.20345-.0142z"/></svg>