<svg xmlns="http://www.w3.org/2000/svg" role="img" viewBox="3.78 20.28 141.57 52.95"><title>HydroPowerSimulations.jl logo</title><path fill="#0079C1" fill-rule="evenodd" d="M28.5 49.5c-.7.5-1.6.9-2.5 1.3h8.3v-8.2c-.3.7-.8 1.8-1.3 2.5l-1.6-1.6c-.5.9-1.2 1.7-1.9 2.5-.8.8-1.6 1.4-2.5 1.9l1.5 1.6zm.1-8.7c-.4.9-1 1.8-1.8 2.6s-1.7 1.4-2.6 1.8l2.2 2.2c.9-.5 1.8-1.2 2.5-1.9.8-.8 1.4-1.6 1.9-2.5l-2.2-2.2zm5.2-.7c.5-2 .5-4.2 0-6.3h-1.1c.5 2.1.5 4.3 0 6.3h1.1zm-1.7 0c.5-1.9.6-4.2 0-6.3h-3.2c.7 2 .7 4.3 0 6.3h3.2zm.8-11.3c.4.6.9 1.6 1.3 2.5v-8.2h-8.3c.8.3 1.6.7 2.5 1.3L26.8 26c.9.5 1.7 1.1 2.5 1.9.8.8 1.4 1.6 1.9 2.5l1.7-1.6zm-8.7-.1c.9.4 1.8 1 2.6 1.8s1.3 1.6 1.8 2.6l2.2-2.2c-.5-.9-1.2-1.8-1.9-2.5-.8-.8-1.6-1.4-2.5-1.9l-2.2 2.2zm-.7-5.2c-2.1-.5-4.2-.5-6.3 0v1.1c2.1-.5 4.2-.5 6.3 0v-1.1zm0 1.7c-2.1-.6-4.2-.5-6.3 0v3.2c2-.7 4.3-.8 6.3 0v-3.2zM9.4 30.5c.5-.9 1.2-1.7 1.9-2.5.8-.8 1.6-1.4 2.5-1.9l-1.6-1.6c.8-.5 1.6-.9 2.5-1.3H6.5v8.3c.4-.9.8-1.7 1.3-2.5l1.6 1.5zm4.9-4.1c-.9.5-1.8 1.2-2.5 1.9-.8.8-1.4 1.6-1.9 2.5l2.2 2.2c.4-1 1-1.8 1.8-2.6s1.7-1.4 2.6-1.8l-2.2-2.2zm-5.7 7.4c-.5 2.1-.6 4.2 0 6.3h3.2c-.7-2-.7-4.3 0-6.3H8.6zm-1.7 0c-.5 2.1-.5 4.2 0 6.3H8c-.5-2-.5-4.2 0-6.3H6.9zm.9 11.3c-.5-.8-.9-1.6-1.3-2.5v8.3h8.2c-.9-.4-1.7-.8-2.5-1.3l1.7-1.6c-.9-.5-1.7-1.2-2.5-1.9-.8-.8-1.4-1.6-1.9-2.5l-1.7 1.5zm2-2.1c.5.9 1.2 1.8 1.9 2.5.8.8 1.6 1.4 2.5 1.9l2.2-2.2c-1-.4-1.8-1-2.6-1.8s-1.4-1.7-1.8-2.6L9.8 43zm7.4 2.5c2 .7 4.3.7 6.3 0v3.2c-2.1.6-4.2.5-6.3 0v-3.2zm0 3.8c2.1.5 4.2.5 6.3 0v1.1c-2.1.5-4.2.5-6.3 0v-1.1z" clip-rule="evenodd"/><path fill="#0079C1" d="M40.7 23h4.2l13.9 19.3V23h4.5v28h-3.8L45.2 31v19.9h-4.5V23zm35.7 13.8h3.9c3.4 0 5.5-1.8 5.5-4.7V32c0-3-2.1-4.6-5.6-4.6h-6.9v23.5h-4.7V23h12c3.4 0 6 1 7.8 2.8 1.4 1.5 2.2 3.6 2.2 6v.1c0 4.6-2.7 7.4-6.4 8.5L91.5 51h-5.6l-9.5-14.2zM95.6 23h21.3v4.4h-16v7.3h13V39h-13v7.5h16.2v4.4H95.6V23zm27 0h5.3v23.5h14.8V51h-20.1V23z"/><path fill="#5C6670" d="M9.9 58.9h-.4l-2.4-3v3h-.6v-4H7l2.4 3v-3h.6v4h-.1zm4.8 0h-.6l-.5-1h-2l-.5 1h-.6l1.8-4h.5l1.9 4zm-2.9-1.5h1.6l-.8-1.7-.8 1.7zm4.6 1.5h-.6v-3.4h-1.3V55h3.2v.5h-1.3v3.4zm2.6 0h-.6v-4h.6v4zm2.9.1c-1.2 0-2-.9-2-2 0-1.2.9-2.1 2-2.1 1.2 0 2 .9 2 2 0 1.2-.9 2.1-2 2.1zm0-3.6c-.8 0-1.5.6-1.5 1.5s.6 1.5 1.5 1.5c.8 0 1.5-.7 1.5-1.5-.1-.8-.7-1.5-1.5-1.5zm6.2 3.5h-.4l-2.4-3v3h-.6v-4h.5l2.4 3v-3h.6v4h-.1zm4.8 0h-.6l-.5-1h-2l-.5 1h-.6l1.8-4h.5l1.9 4zM30 57.4h1.6l-.8-1.7-.8 1.7zm6.2 1.5h-2.8v-4h.6v3.4h2.2v.6zm2.9 0h-.6v-4h1.7c.5 0 .9.1 1.1.4.2.2.3.5.3.8 0 .6-.4 1-1 1.2l1.2 1.6h-.7l-1.5-2h.5c.6 0 .9-.3.9-.7 0-.5-.3-.7-.9-.7H39v3.4zm50.5 0H89v-4h1.7c.5 0 .9.1 1.1.4.2.2.3.5.3.8 0 .6-.4 1-1 1.2l1.2 1.6h-.7l-1.5-2h.5c.6 0 .9-.3.9-.7 0-.5-.3-.7-.9-.7h-1.1v3.4zm30.4 0h-.6v-4h1.7c.5 0 .9.1 1.1.4.2.2.3.5.3.8 0 .6-.4 1-1 1.2l1.2 1.6h-.7l-1.5-2h.5c.6 0 .9-.3.9-.7 0-.5-.3-.7-.9-.7h-1v3.4zm15.9 0h-.6v-4h1.7c.5 0 .9.1 1.1.4.2.2.3.5.3.8 0 .6-.4 1-1 1.2l1.2 1.6h-.6l-1.5-2h.5c.6 0 .9-.3.9-.7 0-.5-.3-.7-.9-.7h-1.1v3.4zm-90.4 0h-3v-4h2.9v.5H43v1.2h2.1v.5H43v1.2h2.4v.6h.1zm4.2 0h-.4l-2.4-3v3h-.6v-4h.5l2.4 3v-3h.6v4h-.1zm3.9 0h-3v-4h2.9v.5h-2.4v1.2h2v.5h-2v1.2h2.4v.6h.1zm4.9.1H58l-1-3-1 3h-.5l-1.4-4h.6l1.1 3.1 1-3.1h.5l1 3.1 1.1-3.1h.6l-1.5 4zm5.3-.1h-.6l-.5-1h-2l-.5 1h-.6l1.8-4h.6l1.8 4zm-2.9-1.5h1.6l-.8-1.7-.8 1.7zm5.3 1.5h-1.8v-4h1.7c.4 0 .8.1 1.1.4.2.2.3.4.3.7 0 .5-.3.7-.5.9.5.2.7.5.7.9 0 .7-.6 1.1-1.5 1.1zm-1.2-.5h1.2c.6 0 .9-.2.9-.6 0-.5-.6-.6-1-.6H65v1.2zm0-1.7h1.1c.5 0 .8-.2.8-.6 0-.4-.3-.6-.8-.6H65v1.2zm6.2 2.2h-2.8v-4h.6v3.4h2.2v.6zm3.6 0h-3v-4h2.9v.5h-2.4v1.2h2v.5h-2v1.2h2.4v.6h.1zm5.4 0h-3v-4h2.9v.5h-2.4v1.2h2v.5h-2v1.2h2.4v.6h.1zm4.2 0H84l-2.4-3v3H81v-4h.5l2.3 2.9v-3h.6v4.1zm3.9 0h-3v-4h2.9v.5h-2.4v1.2h2v.5h-2v1.2h2.4v.6h.1zm6.6.1c-1.2 0-2-.8-2-2s.9-2.1 2-2.1c.6 0 1 .2 1.5.5l-.4.4c-.3-.2-.6-.4-1.1-.4-.8 0-1.4.7-1.4 1.5 0 .9.6 1.5 1.5 1.5.4 0 .8-.1 1.1-.4v-.9h-1.2v-.5h1.7v1.6c-.3.4-.9.8-1.7.8zm4.1-.1h-.6v-1.6L96.8 55h.7l1.3 1.9L100 55h.7L99 57.4v1.5zm6.6 0h-2.8v-4h.6v3.4h2.2v.6zm4.5 0h-.6l-.5-1h-2l-.5 1h-.6l1.8-4h.5l1.9 4zm-2.9-1.5h1.6l-.8-1.7-.8 1.7zm5.3 1.5h-1.8v-4h1.7c.5 0 .8.1 1.1.4.2.2.3.4.3.7 0 .5-.3.7-.5.9.5.2.7.5.7.9-.1.7-.6 1.1-1.5 1.1zm-1.3-.5h1.2c.6 0 .9-.2.9-.6 0-.5-.6-.6-1-.6h-1.2v1.2h.1zm0-1.7h1.1c.5 0 .8-.2.8-.6 0-.4-.3-.6-.8-.6h-1.1v1.2zm5.3 2.3c-1.2 0-2-.9-2-2 0-1.2.9-2.1 2-2.1 1.2 0 2 .9 2 2 .1 1.2-.8 2.1-2 2.1zm0-3.6c-.8 0-1.5.6-1.5 1.5s.6 1.5 1.5 1.5c.8 0 1.5-.7 1.5-1.5s-.6-1.5-1.5-1.5zm10.7 3.5h-.6l-.5-1h-2l-.5 1h-.6l1.8-4h.5l1.9 4zm-2.9-1.5h1.6l-.8-1.7-.8 1.7zm4.6 1.5h-.6v-3.4H127V55h3.2v.5h-1.3v3.4zm3.6.1c-1.2 0-2-.9-2-2 0-1.2.9-2.1 2-2.1 1.2 0 2 .9 2 2 0 1.2-.9 2.1-2 2.1zm0-3.6c-.8 0-1.5.6-1.5 1.5s.6 1.5 1.5 1.5c.8 0 1.5-.7 1.5-1.5-.1-.8-.7-1.5-1.5-1.5zm8.5 3.5h-.6v-1.6l-1.7-2.4h.7l1.3 1.9L142 55h.7l-1.7 2.4v1.5z"/><path d="M18.6238 68.6381h1.36217v-2.93635h2.57074v2.93636h1.36471v-6.57855h-1.36471v2.50853h-2.57074v-2.50853H18.6238zm6.70423.9331v1.01686c.1371.01016.23993.01523.30722.0165.06855.00127.15996.00254.27294.00254.56239 0 .9369-.11171 1.12478-.3326.18788-.22217.44178-.79471.76297-1.71637l1.66939-4.78475h-1.35202l-1.00417 3.58888-1.06257-3.58888h-1.4155l1.78619 5.07927c.01143.03555-.01396.1333-.0787.29453-.06348.15995-.1333.2666-.20694.31737-.07744.05332-.17265.0876-.28563.10156-.11299.01524-.23232.02031-.358.01397zm1.72271-5.9273zm5.74449.2082c-.22978-.1295-.4913-.19424-.78582-.19424-.63983 0-1.15144.2374-1.53356.71346s-.57381 1.12985-.57381 1.9601c0 .71981.19423 1.30886.5827 1.76969.38847.45956.86707.68934 1.43453.68934.3453 0 .63475-.06602.8658-.19677.23232-.13076.43925-.34023.62079-.62968v.6741h1.2365v-6.56965h-1.28982v2.32064c-.14345-.2285-.3288-.4075-.55731-.537zm.3123 3.46573c-.1879.2666-.4621.40116-.82137.40116-.36054 0-.6284-.13457-.80613-.4037-.17646-.26913-.26533-.6284-.26533-1.0778 0-.4164.0876-.76551.26152-1.04734.17392-.28056.44686-.42148.81882-.42148.24375 0 .4583.07744.64237.23232.30087.25517.45067.68172.45067 1.27585 0 .42655-.09394.77312-.28055 1.04099zm5.39283-3.6587c-.0165-.00127-.03555-.00127-.05967-.00127-.38085 0-.6906.09902-.928.29833-.146.11934-.31738.3415-.51415.66522v-.84803H35.7849v4.86473h1.28093v-2.32446c0-.391.0495-.67918.14726-.86706.17519-.33261.51922-.49892 1.03083-.49892.03936 0 .08887.00127.15234.00381.0622.0038.1333.00889.21328.01777v-1.3025c-.05586-.00381-.09268-.00508-.10918-.00762zm3.89483 3.68536c-.19931.26405-.48495.39735-.85692.39735-.37196 0-.65887-.1333-.85945-.39735-.20058-.26533-.30087-.6411-.30087-1.12986 0-.48749.1003-.86326.30087-1.12731.20058-.26279.4875-.39482.85945-.39482.37197 0 .6576.13203.85692.39482.1993.26405.29833.63982.29833 1.12731 0 .48876-.09902.86453-.29833 1.12986zm1.01687.70203c.41131-.50653.6157-1.11716.6157-1.83189 0-.70203-.20439-1.31012-.6157-1.82554-.41005-.51415-1.03338-.77185-1.86998-.77185-.83533 0-1.45865.2577-1.86997.77185-.41005.51542-.6157 1.1235-.6157 1.82554 0 .71473.20565 1.32536.6157 1.8319.41132.5078 1.03464.7617 1.86997.7617.8366 0 1.45993-.2539 1.86998-.7617zm-1.86998-4.40262zm6.93401-.22344c.179.146.26914.38974.26914.7325 0 .3415-.09014.5916-.26914.75028-.18027.15742-.4329.23613-.75662.23613h-1.28093V63.2021h1.28093c.32372 0 .57635.07363.75662.21835zm1.04226 2.37016c.39228-.32118.58905-.8696.58905-1.64654 0-.71092-.19677-1.2365-.58905-1.57545-.39354-.33896-.92039-.50907-1.58053-.50907h-2.86526v6.57855h1.36598v-2.36508H47.835c.7287 0 1.28982-.16123 1.68336-.48241zm4.55624 1.55387c-.19931.26405-.48495.39735-.85692.39735-.37196 0-.65887-.1333-.85945-.39735-.20058-.26533-.30087-.6411-.30087-1.12986 0-.48749.1003-.86326.30087-1.12731.20058-.26279.4875-.39482.85945-.39482.37197 0 .6576.13203.85692.39482.1993.26405.2996.63982.2996 1.12731 0 .48876-.1003.86453-.2996 1.12986zm1.01814.70203c.41004-.50653.6157-1.11716.6157-1.83189 0-.70203-.20566-1.31012-.6157-1.82554-.41132-.51415-1.03465-.77185-1.86998-.77185-.8366 0-1.45992.2577-1.87124.77185-.41005.51542-.6157 1.1235-.6157 1.82554 0 .71473.20565 1.32536.6157 1.8319.41132.5078 1.03464.7617 1.87124.7617.83533 0 1.45866-.2539 1.86998-.7617zm-1.86998-4.40263zm5.6899.1295l-.70076 3.48985-.75916-3.48986H56.088l1.36472 4.86473h1.32155l.77185-3.54318.76297 3.54318h1.30759l1.41041-4.86473h-1.32536l-.75789 3.50382-.74139-3.50382zm6.04917 1.19586c.1625-.18407.391-.27675.68553-.27675.2704 0 .49764.0876.68045.26152.1828.17392.28564.42909.30595.7655h-1.97661c.04062-.3161.14345-.56492.30468-.75027zm1.77857-1.09811c-.32372-.15108-.68807-.22725-1.09304-.22725-.68172 0-1.23522.2247-1.66305.6741-.42655.44941-.63982 1.09559-.63982 1.93727 0 .8988.23612 1.54752.70965 1.94614.47352.39862 1.0194.59793 1.63765.59793.75028 0 1.33298-.2374 1.74937-.70965.26787-.29833.41894-.59158.45068-.87976h-1.2987c-.06856.14345-.14727.25517-.23613.33515-.16377.14853-.37577.22343-.63856.22343-.24628 0-.45829-.06094-.63348-.18408-.28818-.1955-.44179-.53826-.45956-1.02575h3.3299c.00508-.4202-.00762-.7414-.04062-.96482-.05713-.38085-.18027-.71473-.3707-1.00418-.21073-.32626-.4786-.5662-.8036-.71853zm-1.00418-.22725zm5.7775.01524c-.0165-.00127-.03555-.00127-.05967-.00127-.38085 0-.6906.09902-.928.29833-.146.11933-.31738.3415-.51415.66522v-.84803h-1.21364v4.86473h1.28092v-2.32446c0-.391.04951-.67918.14727-.86706.17519-.33261.51922-.49892 1.03083-.49892.03935 0 .08886.00127.15234.00381.0622.0038.1333.00889.21328.01777v-1.3025c-.05586-.00381-.09268-.00508-.10918-.00762zm1.95249 2.94905h-1.3114c0 .68426.24502 1.22126.73632 1.61226.4913.39228 1.16413.58778 2.02104.58778.83914 0 1.48912-.19931 1.94868-.59666.45956-.39609.68934-.89627.68934-1.49674 0-.58651-.1955-1.03465-.58905-1.34314-.25263-.1993-.62713-.35926-1.12477-.47733l-1.13367-.27294c-.4367-.1041-.72234-.19423-.85691-.27167-.2082-.1168-.3123-.29199-.3123-.52685 0-.25643.10537-.45575.31738-.59793.21073-.14345.49383-.21455.84802-.21455.31738 0 .58397.0546.79852.16504.32118.1663.49383.44813.51796.84295h1.32028c-.02286-.69823-.2793-1.23142-.76932-1.59957-.49003-.36689-1.08035-.55097-1.7735-.55097-.83025 0-1.45992.19424-1.889.58397-.42783.39101-.64238.87977-.64238 1.46882 0 .64617.22217 1.12096.66522 1.42437.26152.18154.73504.34912 1.4193.504l.69569.15614c.40878.08887.70711.1917.89754.3085.19042.11806.28563.2869.28563.50398 0 .37197-.1917.62587-.57508.76297-.20312.0711-.4659.10664-.7909.10664-.5408 0-.92293-.13456-1.14636-.40624-.12187-.14853-.20439-.37323-.24628-.67283zm1.33551-4.7492zm4.97137 1.33424v-1.17429h-1.28982v1.1743zm-1.28982.58016v4.86473h1.28982v-4.86473zm8.59198.01778c-.20947-.08252-.4202-.12441-.63475-.12441-.32118 0-.6119.06601-.87469.20058-.24628.1333-.4532.34403-.61951.62967-.09521-.23867-.23613-.4329-.4202-.58524-.22852-.16377-.52939-.24501-.90135-.24501-.39228 0-.7122.0952-.95974.28563-.13965.10664-.28818.28691-.4456.53954v-.70965h-1.2365v4.85584h1.28982v-2.92747c0-.26532.03428-.46464.10283-.59793.12441-.23486.36816-.35292.73123-.35292.3123 0 .52177.11806.62967.35292.05967.13075.08887.34022.08887.62967v2.89573h1.28093v-2.89573c0-.21836.03427-.4037.10282-.55858.1333-.29199.37578-.43671.72743-.43671.3034 0 .5116.11299.6246.33896.05966.11806.09013.2704.09013.45448v3.09758h1.3025l.00889-3.06584c0-.31611-.01523-.55478-.04443-.71854-.04824-.24755-.13965-.45575-.27675-.6246-.17012-.2082-.358-.35419-.5662-.43797zm3.32482-.01778h-1.30378v2.93255c0 .55604.06983.97751.20947 1.26315.2501.51796.73504.77694 1.45485.77694.25009 0 .46844-.03301.6538-.09903.1866-.06474.37957-.18661.57888-.36561.06475-.05713.12187-.12187.16885-.19677.04824-.07363.07744-.11934.09013-.1333v.6868h1.2365v-4.86473h-1.29109v2.64691c0 .3123-.04062.56366-.1244.75408-.16124.35166-.4583.52685-.89247.52685-.33895 0-.56746-.12314-.68299-.3707-.06601-.13964-.09775-.34784-.09775-.6246zm.89246-.12949zm4.72127 4.99422v-6.57855h-1.27204v6.57855zm3.92402-2.36508v.47352c-.00888.42529-.12949.71854-.35926.8785-.23105.16122-.48368.2412-.75663.2412-.17265 0-.31991-.04824-.44051-.14472-.1206-.09648-.18027-.2539-.18027-.47099 0-.24374.09775-.424.29452-.5408.11553-.06856.30849-.12568.57635-.17392l.28564-.05332c.14219-.02666.25517-.05586.33642-.08633.08125-.03174.1625-.07236.24374-.12314zm-.77312-.59413l-.4329.05332c-.49003.06348-.862.16758-1.1159.31357-.46082.26786-.6906.70076-.6906 1.2987 0 .46083.14345.81756.43036 1.06892.2869.25136.64998.37704 1.0905.37704.3453 0 .65506-.07871.92928-.2374.2285-.1333.43036-.2958.60682-.48622.00888.11045.0203.2082.03554.29453.01524.08632.0419.179.07998.27675h1.38376v-.18789c-.0838-.03808-.146-.0876-.18789-.14726-.04062-.0584-.06601-.17138-.0749-.33896-.00635-.21962-.00889-.4075-.00889-.56239v-2.2305c0-.58652-.20693-.98514-.62078-1.19715-.41386-.21073-.88738-.3161-1.4193-.3161-.81883 0-1.39518.21328-1.7316.64237-.212.2742-.33007.62332-.35673 1.0486h1.22634c.03046-.18788.09013-.33641.179-.4456.1244-.1498.33768-.22342.63855-.22342.26787 0 .47099.03808.60936.11298.13838.07617.20693.21455.20693.41386 0 .16376-.09013.2831-.27167.36054-.10156.0457-.26913.08251-.50526.11171zm.06728-2.035zm2.60629 1.08034h.67918v2.99475c0 .30341.07109.52811.21327.6741.2209.22851.63095.33261 1.23269.3123l.60174-.02285v-.95086a2.06571 2.06571 0 0 1-.12695.00762c-.04316.00127-.08379.00254-.12314.00254-.2577 0-.41259-.02539-.46337-.0749-.05078-.04824-.07617-.17265-.07617-.37196v-2.57074h.78963v-.90642h-.78963v-1.35583h-1.25807v1.35583h-.67918zm4.85202-1.53102v-1.17429h-1.2898v1.1743zm-1.2898.58016v4.86473h1.2898v-4.86473zm5.5604 3.5711c-.1993.26406-.48495.39736-.85691.39736-.37196 0-.6576-.1333-.85945-.39735-.20058-.26533-.30087-.6411-.30087-1.12986 0-.48749.10029-.86326.30087-1.12731.20185-.26279.48749-.39482.85945-.39482.37196 0 .6576.13203.85691.39482.19931.26405.2996.63982.2996 1.12731 0 .48876-.10029.86453-.2996 1.12986zm1.01814.70204c.41005-.50653.6157-1.11716.6157-1.83189 0-.70203-.20565-1.31012-.6157-1.82554-.41132-.51415-1.03464-.77185-1.86997-.77185-.8366 0-1.45993.2577-1.86998.77185-.41131.51542-.61697 1.1235-.61697 1.82554 0 .71473.20566 1.32536.61697 1.8319.41005.5078 1.03338.7617 1.86998.7617.83533 0 1.45865-.2539 1.86997-.7617zm-1.86997-4.40263zm7.32628.40878c-.31991-.26405-.73123-.39481-1.23395-.39481-.40243 0-.73377.09775-.99529.29452-.146.10918-.30087.28945-.46464.53954v-.70965h-1.2276v4.85584h1.26823v-2.63295c0-.30087.04062-.54715.1244-.74138.16123-.36562.45703-.54843.88866-.54843.35038 0 .58905.12441.71346.3745.06855.13711.10283.33388.10283.58905v2.9592h1.30377v-3.2753c0-.61063-.15995-1.04734-.47987-1.31013zm-1.70367-.40878zm4.34804 3.44162h-1.28981c0 .49891.18154.91023.54588 1.23395.36435.32246.92928.48368 1.69352.48368.75027 0 1.30504-.15234 1.66304-.45702.358-.30468.53827-.69822.53827-1.18063 0-.36562-.12568-.67157-.37577-.91531-.25263-.2412-.63221-.4202-1.13747-.53954-.75917-.1663-1.20095-.28437-1.32536-.35292-.12568-.06474-.18789-.17138-.18789-.3161 0-.1168.0584-.21836.17646-.30469.1168-.08505.31484-.12822.59159-.12822.33642 0 .57381.08506.71346.25771.0749.09522.1206.2247.13837.38847h1.27204c-.05586-.59413-.27548-1.01306-.6576-1.25554-.38339-.24247-.87722-.36434-1.48404-.36434-.63983 0-1.1362.16122-1.48913.48495-.35292.32245-.5281.70838-.5281 1.15778 0 .38085.11298.67284.33895.87469.22597.20566.61444.37577 1.16413.51287.7655.18154 1.2073.30976 1.32663.38466.11806.07363.17773.18281.17773.325 0 .14853-.07363.26024-.2209.33514-.14726.07363-.3453.11172-.5954.11172-.42527 0-.71726-.08506-.87468-.25517-.09013-.09521-.14726-.25517-.17392-.48114zm.97244-3.44162zm3.09758 3.66378v1.33044h1.35202v-1.33044zm3.89102-4.11445v-1.17429h-1.27077v1.1743zm-1.88267 6.37797v1.01687c.11298.0038.20693.00635.2831.01016.07617.00253.1333.0038.17138.0038.5662 0 .94578-.11806 1.13874-.35292.19296-.23485.28945-.59793.28945-1.08923v-5.36364h-1.27077v5.34206c0 .1752-.03301.29326-.09649.3542-.06347.06093-.15868.0914-.2831.0914-.02412 0-.05077 0-.08124-.00127-.0292-.00127-.07998-.00508-.15107-.01143zm4.3912-.93308v-6.57855h-1.27204v6.57855z"/></svg>