<svg xmlns="http://www.w3.org/2000/svg" role="img" viewBox="-8.29 -8.04 418.08 243.33"><title>iMOD logo</title><g transform="translate(.007 -.5)"><path fill="#e4e4e4" d="M8.45738 226.13708c-1.67344-1.0205-4.26094-3.30334-5.75-5.07299L0 217.84655V114.87361C0 .76336-.4778 8.75443 6.6711 3.30169L10.34433.5h207.20457l2.88061 2.26589c1.58434 1.24624 3.93584 3.69616 5.22556 5.44428L228 11.38856v102.37146c0 74.44852-.30975 102.96724-1.13561 104.55572-1.33799 2.57352-4.21647 5.50144-7.79382 7.92767-2.40302 1.62978-9.2515 1.7436-105.07057 1.74626-98.08107.003-102.63117-.0771-105.54262-1.85259zM181.30623 202.25c1.96416-4.25284 2.19114-6.37231 2.16863-20.25-.0282-17.4042-1.40583-25.66067-7.17459-43-6.9783-20.97486-16.26917-36-22.26078-36-5.58737 0-12.0697 11.79826-17.58179 32-7.62746 27.95454-8.86536 31.48686-11.14844 31.81178-1.9001.27043-2.45644-.54846-4.19354-6.17254-1.10154-3.56638-2.72098-10.00668-3.59874-14.31178-3.54768-17.39993-8.72126-31.84352-13.20232-36.85822-2.4668-2.76055-6.47254-5.46924-8.0882-5.46924-2.04577 0-3.77704 5.33976-6.1602 19-4.91222 28.15677-7.58203 36.13761-14.7392 44.05974-3.769 4.17183-3.28842 4.80336 1.95506 2.56914 6.2142-2.64784 11.10975-10.63485 14.7895-24.12888 5.32667-19.53337 6.00643-21.5 7.43148-21.5 2.21979 0 3.94981 4.25826 7.92234 19.5 4.18679 16.06378 8.32043 27.55308 12.02373 33.41949 2.87449 4.55348 3.22258 4.69915 6.21694 2.60182 5.85769-4.10288 12.3637-18.05665 17.34582-37.20242 4.21574-16.20064 5.8059-20.32552 7.82078-20.28709 3.56698.068 8.04536 5.64543 14.02614 17.4682 9.75779 19.28916 15.1593 42.73945 13.74654 59.67967-.3587 4.30118-.39135 7.82033-.0726 7.82033.3188 0 1.56683-2.1375 2.7734-4.75zm-125.72449-38.5c-2.52805-12.29486-1.44142-25.45115 3.1592-38.25 1.38392-3.85 6.46622-14.875 11.29402-24.5C79.76889 81.5938 83 73.10366 83 66.93268c0-7.16387-3.54219-12.3929-9.71792-14.34575-2.10194-.66467-2.16151-.53952-1.13925 2.39294.59327 1.70186.89454 6.1151.66949 9.80721-.44141 7.2417-2.55094 12.2011-14.76542 34.71292-3.28261 6.05-7.62837 15.95-9.65724 22-3.16909 9.45009-3.70067 12.33856-3.77269 20.5-.0673 7.62597.32555 10.3877 1.99144 14 2.30223 4.99216 7.00227 11 8.60548 11 .63936 0 .78021-1.24451.36785-3.25zM87.70145 44.04048C99.30047 36.96815 94.06658 18 80.51608 18c-13.43088 0-19.1423 15.97492-8.92023 24.95002 2.82408 2.47957 4.35558 3.04928 8.18895 3.04624 2.91088-.0023 5.94027-.7507 7.91665-1.95578zm236.72781 87.06671c-7.89595-3.58627-12.43458-11.70486-12.42368-22.22321.008-7.46434 1.55695-12.31613 5.29039-16.5683 4.2173-4.80323 9.88777-7.27176 16.70403-7.27176 13.45257 0 22.26728 9.48324 22.26728 23.95608 0 10.59972-4.41003 18.23486-12.76728 22.10414-5.20434 2.40953-13.76933 2.41089-19.07074.003zm17.50895-5.97094C347.39993 121.19415 348.5 118.48893 348.5 109c0-7.38219-.34261-9.31222-2.06179-11.61488-3.7013-4.95748-7.03099-6.76973-12.43821-6.76973-8.51267 0-13.83514 5.47496-14.71084 15.13234-.75047 8.2763.26141 12.6708 3.86177 16.77139 4.88518 5.56391 13.116 6.71049 18.78728 2.61713zM246 115V98h7v34h-7zm14-6V86h10.58212l6.09899 18.58058 6.09898 18.58058 6.19305-18.58058L295.16619 86H305v46h-7l-.079-17.75-.0789-17.75-6.00439 17.75-6.00439 17.75h-6.75345l-5.94322-18.25-5.94323-18.25-.0967 18.25L267 132h-7zm103 0V86h12.18428c10.32656 0 12.84443.31958 16.51413 2.09605 6.18602 2.9946 9.47899 8.96602 10.06938 18.25966.5655 8.90174-.9281 14.61835-5.04425 19.30638C391.97552 131.06978 388.79187 132 375.03212 132H363zm25.08473 16.04753c3.78191-1.78208 6.09863-6.45385 6.65117-13.41236.61959-7.803-.91979-13.4791-4.61593-17.02023-2.55443-2.4473-3.90686-2.858-11.01595-3.34526L371 90.7142v36.5488l7.25-.49876c3.9875-.27432 8.41313-1.04684 9.83473-1.71672zM246 89c0-2.7619.27778-3 3.5-3s3.5.2381 3.5 3-.27778 3-3.5 3-3.5-.2381-3.5-3z"/><path fill="#b4e0f1" d="M16.01993 219.24845c-1.91403-.96165-4.50153-3.2775-5.75-5.14633L8 210.70423v-96.40177C8 9.26047 7.70493 14.73706 13.61488 10.0883c2.65179-2.0859 2.7682-2.08828 101.26998-2.07356 76.27653.0114 99.15961.29456 101.01874 1.25 1.32198.6794 3.34698 2.50576 4.5 4.05859C222.49862 16.1448 222.5 16.2113 222.5 114c0 97.39739-.01 97.86649-2.07108 100.67667-1.1391 1.55283-3.6141 3.61013-5.5 4.57178-3.19397 1.62864-10.00693 1.74844-99.42892 1.74844-89.40248 0-96.23917-.12016-99.48007-1.74844zm166.41378-19.46493c4.90408-16.07839 1.06585-44.84641-9.49675-71.17942-11.83728-29.51083-21.99061-33.50411-30.84766-12.13233-1.60198 3.86553-5.44297 16.22585-8.53554 27.46739C128.14924 163.5847 126.85674 167 124.82653 167c-1.57279 0-3.94566-6.9594-6.4758-18.99288-4.92939-23.44451-9.62513-35.40683-16.14634-41.13252-4.0706-3.57404-7.17024-3.45337-8.98736.34988-.71594 1.49847-2.6463 10.27347-4.2897 19.5-4.37966 24.58867-7.79778 34.13987-14.57234 40.71923L70.6932 171l2.9034-.004c8.86225-.0114 15.94554-11.52006 21.40638-34.78024 1.16066-4.94375 2.69831-9.79282 3.417-10.7757 1.22603-1.67668 1.41077-1.62828 2.99109.78359.92639 1.41386 3.48365 9.40745 5.6828 17.76354 5.9247 22.512 12.1584 36.96981 15.95319 37.00017 2.45292.0196 8.47142-6.9297 11.82107-13.64933 2.99811-6.01443 8.6132-23.32412 11.13899-34.33829 1.70046-7.41516 3.71898-11.1994 5.76374-10.80561 4.26049.82049 14.75387 19.26677 20.1221 35.37257 4.74485 14.23554 6.38688 25.12017 5.91965 39.24008-.39682 11.99184-.36128 12.24795 1.38765 10 .98719-1.26887 2.44225-4.42946 3.23346-7.02352zM55.27932 154.75c-.7753-18.57113.76157-24.07946 14.70827-52.71593 14.42573-29.62005 16.34857-37.5231 10.83496-44.53253-1.96252-2.49494-9.60339-7.05404-10.43258-6.22484-.22892.22892.26468 2.04586 1.0969 4.03764 3.2131 7.69003.66235 17.69349-8.79109 34.47668-8.11864 14.41343-11.0922 20.68639-14.794 31.20898-3.03268 8.62062-3.3448 10.56451-3.3719 21-.03344 12.8684.83406 15.51856 7.28325 22.25 1.97602 2.0625 3.68875 3.75 3.80606 3.75.11732 0-.03563-5.9625-.33987-13.25zm32.6589-110.61375C92.5233 40.82687 94.38461 37.3227 94.38461 32c0-8.41461-5.80818-14.23077-14.21124-14.23077C71.68903 17.76923 66 23.4813 66 32c0 6.6989 4.38891 12.6751 10.5 14.29742 3.1359.8325 8.7638-.23086 11.43821-2.16117zm236.20357 86.70492c-8.24529-4.0813-12.76176-13.34155-11.88618-24.37058 1.06723-13.44303 9.31837-21.5012 21.96227-21.44863 13.24931.0551 22.0494 9.62491 22.0494 23.97804 0 10.59972-4.41003 18.23486-12.76728 22.10414-5.55829 2.5734-13.85572 2.46069-19.35821-.26297zm16.83838-5.09117c5.94435-3.037 8.43159-7.9781 8.43159-16.75 0-8.76763-2.48266-13.69572-8.4697-16.8124-10.31458-5.36947-20.51571 1.01899-21.6529 13.56013-.72681 8.01542.22363 12.5198 3.45105 16.35538 5.07902 6.03607 11.17714 7.25532 18.23996 3.64689zM246 115V98h7v34h-7zm15-6V86h9.59344l5.95328 18.47243c3.2743 10.15984 6.17828 18.47243 6.45328 18.47243.275 0 3.17898-8.31259 6.45328-18.47243L295.40656 86H305v46h-7l-.079-17.75-.0789-17.75-6.00439 17.75-6.00439 17.75h-6.43736l-6.09166-18.75-6.09167-18.75-.10632 18.75L267 132h-6zm103 0V86h11.68428c9.81893 0 12.37551.33463 16.01413 2.09605 6.18602 2.9946 9.47899 8.96602 10.06938 18.25966.5655 8.90174-.9281 14.61835-5.04425 19.30638C392.01511 131.0247 388.75409 132 375.53212 132H364zm23 16.69356c5.12231-1.74679 8-7.92342 8-17.17105 0-12.70584-4.73781-17.51807-17.25-17.52096L371 91v36l6.25-.0564c3.4375-.0311 7.825-.59355 9.75-1.25zM246 89c0-2.7619.27778-3 3.5-3s3.5.2381 3.5 3-.27778 3-3.5 3-3.5-.2381-3.5-3z"/><path fill="#c8ccd8" d="M16.01993 219.24845c-1.91403-.96165-4.50153-3.2775-5.75-5.14633L8 210.70423v-96.40177C8 9.26047 7.70493 14.73706 13.61488 10.0883c2.65179-2.0859 2.7682-2.08828 101.26998-2.07356 76.27653.0114 99.15961.29456 101.01874 1.25 1.32198.6794 3.34698 2.50576 4.5 4.05859C222.49862 16.1448 222.5 16.2113 222.5 114c0 97.39739-.01 97.86649-2.07108 100.67667-1.1391 1.55283-3.6141 3.61013-5.5 4.57178-3.19397 1.62864-10.00693 1.74844-99.42892 1.74844-89.40248 0-96.23917-.12016-99.48007-1.74844zm166.41378-19.46493c4.90408-16.07839 1.06585-44.84641-9.49675-71.17942-11.83728-29.51083-21.99061-33.50411-30.84766-12.13233-1.60198 3.86553-5.44297 16.22585-8.53554 27.46739C128.14924 163.5847 126.85674 167 124.82653 167c-1.57279 0-3.94566-6.9594-6.4758-18.99288-4.92939-23.44451-9.62513-35.40683-16.14634-41.13252-4.0706-3.57404-7.17024-3.45337-8.98736.34988-.71594 1.49847-2.6463 10.27347-4.2897 19.5-4.37966 24.58867-7.79778 34.13987-14.57234 40.71923L70.6932 171l2.9034-.004c8.86225-.0114 15.94554-11.52006 21.40638-34.78024 1.16066-4.94375 2.69831-9.79282 3.417-10.7757 1.22603-1.67668 1.41077-1.62828 2.99109.78359.92639 1.41386 3.48365 9.40745 5.6828 17.76354 5.9247 22.512 12.1584 36.96981 15.95319 37.00017 2.45292.0196 8.47142-6.9297 11.82107-13.64933 2.99811-6.01443 8.6132-23.32412 11.13899-34.33829 1.70046-7.41516 3.71898-11.1994 5.76374-10.80561 4.26049.82049 14.75387 19.26677 20.1221 35.37257 4.74485 14.23554 6.38688 25.12017 5.91965 39.24008-.39682 11.99184-.36128 12.24795 1.38765 10 .98719-1.26887 2.44225-4.42946 3.23346-7.02352zM55.27932 154.75c-.7753-18.57113.76157-24.07946 14.70827-52.71593 14.42573-29.62005 16.34857-37.5231 10.83496-44.53253-1.96252-2.49494-9.60339-7.05404-10.43258-6.22484-.22892.22892.26468 2.04586 1.0969 4.03764 3.2131 7.69003.66235 17.69349-8.79109 34.47668-8.11864 14.41343-11.0922 20.68639-14.794 31.20898-3.03268 8.62062-3.3448 10.56451-3.3719 21-.03344 12.8684.83406 15.51856 7.28325 22.25 1.97602 2.0625 3.68875 3.75 3.80606 3.75.11732 0-.03563-5.9625-.33987-13.25zm32.6589-110.61375C92.5233 40.82687 94.38461 37.3227 94.38461 32c0-8.41461-5.80818-14.23077-14.21124-14.23077C71.68903 17.76923 66 23.4813 66 32c0 6.6989 4.38891 12.6751 10.5 14.29742 3.1359.8325 8.7638-.23086 11.43821-2.16117zm236.20357 86.70492c-8.24529-4.0813-12.76176-13.34155-11.88618-24.37058 1.14062-14.36754 10.28855-22.42444 24.04477-21.17707 7.41497.67237 13.09716 4.33045 16.69962 10.75088 3.46544 6.17624 3.60209 19.33831.2659 25.61107-5.43973 10.22789-18.6202 14.38499-29.12411 9.1857zm15.85087-4.45491c4.96814-1.98785 7.64582-5.60212 9.06988-12.24228 2.325-10.84107-2.21857-20.6124-10.77682-23.17652-9.30971-2.78926-17.16099 2.29775-19.27686 12.48989-3.45053 16.62108 7.32408 28.39445 20.9838 22.92891zM246 115V98h6v34h-6zm15-6.05479v-23.0548l4.70456.3048 4.70456.30479 6.15548 19c3.38551 10.45 6.4103 18.325 6.72175 17.5.31145-.825 3.17731-9.4875 6.36857-19.25L295.45721 86H304v46h-6l-.0788-18.75-.0788-18.75-6.24841 18.5c-6.1257 18.13669-6.30654 18.50584-9.20806 18.79746l-2.95964.29747-6.10679-18.79747L267.21264 94.5l-.10632 18.75L267 132h-6zM364 109V86h11.53212c12.41432 0 16.37082 1.00722 20.17015 5.13477 4.92097 5.34608 7.14924 15.44658 5.33529 24.18428-1.51568 7.30103-4.54717 11.67247-10.00752 14.43095-3.83506 1.93741-6.02206 2.25-15.74193 2.25H364zm23 16.69356c5.12231-1.74679 8-7.92342 8-17.17105 0-12.88526-4.69346-17.51816-17.75-17.52096L370 91v36l6.75-.0564c3.7125-.0311 8.325-.59355 10.25-1.25zM246 89c0-2.66667.33333-3 3-3s3 .33333 3 3-.33333 3-3 3-3-.33333-3-3z"/><path fill="#9ba9ce" d="M14.76257 218.43461C8.72018 215.15605 9 220.24974 9 113.53497V15.97063l3.42298-3.73531L15.84595 8.5l97.82703-.2661c71.77908-.19524 98.56464.039 100.59727.87971 1.52363.6302 3.88613 2.47196 5.25 4.09282L222 16.15345V212.2353l-3.88235 3.88236L214.23529 220l-98.36764-.04c-85.05773-.03466-98.73805-.24105-101.10508-1.52539zm166.15705-14.27706c8.47912-16.62044 2.61355-56.85806-12.5891-86.36087C163.59565 108.60803 157.53497 102 153.84228 102c-3.6067 0-9.36545 7.14051-12.67041 15.71055-1.6599 4.30427-5.10711 15.66525-7.66046 25.24663-8.39941 31.51856-8.6587 31.55272-15.50413 2.04282-5.85371-25.23472-10.43251-35.62755-17.66619-40.09821-6.44756-3.98481-7.19608-2.57394-11.86449 22.36304-4.77394 25.50073-8.12157 34.58223-14.96147 40.58774-4.1964 3.68449-2.91294 5.09388 2.89364 3.17754C83.46537 168.70122 88.86491 159.8587 93.5249 143c4.53083-16.39148 4.93571-17.5 6.39178-17.5 1.60849 0 3.26532 4.75497 8.53683 24.5 3.66797 13.7388 9.41523 27.66624 12.60962 30.55712 1.62129 1.46725 1.97676 1.46285 4.29041-.0531 7.30816-4.78849 12.50946-15.86529 19.25206-40.99961 1.91743-7.14757 4.21051-14.10097 5.09573-15.452l1.6095-2.45641 4.1576 4.59221c2.28668 2.52572 6.45432 9.25412 9.26142 14.95201 9.57099 19.42728 13.86925 38.40126 12.9411 57.12639-.56374 11.37331-.0362 12.32989 3.24868 5.89095zM55.98403 162.43843c-3.03884-18.55724-.28326-30.43541 13.55193-58.41671 14.48952-29.30465 16.59532-36.92375 12.45058-45.0481C80.03948 55.15707 74.10264 51 70.59914 51c-1.29641 0-1.30204.342-.04524 2.75 3.94532 7.55918 2.19253 16.50208-6.31923 32.24134-13.63106 25.20546-18.38359 36.95688-20.2401 50.04704-1.79972 12.68959 1.61813 24.09216 9.11139 30.39732 1.72985 1.45557 3.30388 2.48779 3.49785 2.29382.19397-.19397-.08493-3.02496-.61977-6.29109zm32.80135-118.2856c8.69123-6.18871 7.94612-19.5342-1.38948-24.88638-6.16944-3.53699-12.2203-2.69161-17.62278 2.46211-7.47106 7.12706-5.0499 19.50863 4.6773 23.91933 4.0245 1.82487 10.64176 1.13472 14.33496-1.49506zm237.42419 87.58883c-1.80973-.57979-5.05452-2.76616-7.21063-4.8586-10.21882-9.91703-8.68762-30.23555 2.89184-38.37391C325.76743 85.78455 326.91247 85.5 334 85.5c7.10664 0 8.22716.28045 12.16386 3.0444 2.38488 1.67443 5.46114 5.04943 6.83614 7.5 3.4757 6.19453 3.60239 19.337.24723 25.64767-4.92224 9.25818-16.3036 13.4885-27.03766 10.04959zm16.61492-6.45656c5.93504-4.42362 8.58452-14.38569 6.18633-23.26066-3.13554-11.60367-16.82792-15.77824-25.3597-7.73173-6.29857 5.94031-7.14942 19.98564-1.67633 27.67188 4.33603 6.0894 14.88149 7.76886 20.8497 3.32051zM246 115V98h6v34h-6zm15-6.05479v-23.0548l4.70456.3048 4.70456.30479 6.15793 19c5.40266 16.66964 6.28194 18.69337 7.16899 16.5.55609-1.375 3.43047-10.02581 6.38751-19.22402L295.5 86.05197l4.25-.02599L304 86v46h-5v-19.16667c0-10.54166-.3375-18.83536-.75-18.43044-.4125.40493-3.48761 8.91743-6.83357 18.91667C285.43882 131.18335 285.28352 131.5 282.5 131.5c-2.783 0-2.94295-.32562-9.0876-18.5l-6.25473-18.5-.0788 18.75L267 132h-6zM364 109V86h11.53212c12.41432 0 16.37082 1.00722 20.17015 5.13477 4.92097 5.34608 7.14924 15.44658 5.33529 24.18428-1.51568 7.30103-4.54717 11.67247-10.00752 14.43095-3.83506 1.93741-6.02206 2.25-15.74193 2.25H364zm24 16.24845c5.00526-2.50041 6.99689-7.12545 6.99689-16.24845 0-13.52158-4.41147-17.99559-17.74689-17.99845L370 91v36l7.25-.002c4.89848-.001 8.38521-.56866 10.75-1.75zM246 89c0-2.66667.33333-3 3-3s3 .33333 3 3-.33333 3-3 3-3-.33333-3-3z"/><path fill="#698ec6" d="M15.29855 218.04048c-6.66778-4.06558-6.29871 2.01476-6.297-103.74082C9.0033 7.19583 8.58423 13.45615 16 9.75156c3.25913-1.62813 10.10771-1.74856 99.5156-1.75 91.20306-.00149 96.19025.0904 99.5 1.83325 7.41091 3.90241 6.98111-2.49557 6.98285 103.94731.002 104.93292.27992 100.2487-6.18827 104.19225-3.26004 1.98759-4.77939 2.01815-100.31018 2.01815-94.44555 0-97.0843-.0514-100.20145-1.95204zM181.5 203.48843c2.9553-5.76522 2.99991-6.08436 2.99392-21.42042-.007-17.39228-1.3111-25.32624-7.12061-43.3135C170.37603 117.08967 160.82495 102 154.10938 102c-7.83988 0-13.71728 12.35773-23.17411 48.72557-3.34449 12.86177-5.04302 16.5195-6.8472 14.74518-1.01456-.99777-1.83589-4.09054-7.56078-28.47075-3.32271-14.15017-8.81271-26.30813-13.88536-30.75-7.53772-6.60041-10.315-3.33164-13.62824 16.04006-4.7247 27.62408-8.7802 38.98529-16.40368 45.95384L68.50089 172h3.34843c10.26545 0 17.15008-9.35347 22.69755-30.83693C97.88585 128.23232 98.98613 125 100.04877 125c.90687 0 1.94162 3.259 8.41387 26.5 5.08252 18.25066 10.96078 30.47759 14.66 30.49317 2.25744.01 9.26317-7.8399 12.1855-13.65296 3.22071-6.40659 6.96532-17.51378 10.12498-30.03247 4.45429-17.6481 5.16337-18.32137 11.11923-10.55774 7.46923 9.73635 15.9558 30.45832 19.55575 47.75 1.39616 6.70619 1.77316 27.45334.57872 31.84787-1.32072 4.85915 1.50572 2.59278 4.81318-3.85944zM56.29966 162.75c-1.22226-9.553-.72958-22.53246 1.12927-29.75.92073-3.575 6.57048-16.625 12.555-29s11.58635-24.65323 12.44851-27.28495c2.32654-7.1017 2.05075-14.69006-.68389-18.81717-2.05615-3.10316-11.18186-8.7979-12.30255-7.67721-.25974.25974.2613 2.2279 1.15788 4.37371 1.16844 2.79646 1.48683 5.68684 1.12414 10.20512-.52859 6.58512-1.95422 9.87437-15.60638 36.00751-3.24878 6.21886-7.38689 15.66886-9.19578 21-2.889 8.51438-3.29024 10.96973-3.29987 20.19299-.0082 7.84742.42712 11.4644 1.72315 14.3175C47.16146 160.30717 54.58309 169 56.17702 169c.54998 0 .59948-2.52302.12264-6.25zM87.75914 45.0054c12.63787-7.7054 7.48941-27.98749-7.10801-28.00166-8.38372-.0081-14.66132 5.66008-15.36558 13.87402-1.04118 12.14352 12.13876 20.42886 22.47359 14.12764zm238.87812 86.52979c-4.7578-1.69611-9.14832-5.75857-11.92632-11.03519-1.58944-3.01903-2.11145-5.83932-2.12855-11.5-.0194-6.42994.39392-8.25973 2.89715-12.82486 5.31858-9.6995 17.0186-13.70246 27.06326-9.25923 2.68627 1.18826 5.73595 2.9308 6.77707 3.87229 3.27853 2.96479 5.9284 9.43319 6.42452 15.68239.91071 11.4716-2.96582 19.36741-11.67474 23.77941-6.05241 3.06619-11.34244 3.45619-17.43239 1.28519zm15.46486-5.79326c1.86883-1.24194 4.44314-4.27944 5.72068-6.75 1.93817-3.74813 2.25101-5.59624 1.88931-11.16101-.50111-7.70936-2.73941-12.2588-7.66406-15.57752-5.86017-3.94917-15.41763-2.4129-19.82187 3.18618-4.91157 6.24406-5.04005 19.79996-.25139 26.52501 4.3053 6.04624 13.98076 7.86205 20.12733 3.77734zM247 115V98h5v34h-5zm14-6.05479v-23.0548l4.71604.3048 4.71605.30479 5.96799 18.75c3.2824 10.3125 6.22268 18.73615 6.53396 18.71923.31128-.0169 3.28958-8.45442 6.61845-18.75L295.60498 86.5l4.19751-.3075L304 85.885V132h-4.95772l-.27114-19.75L298.5 92.5l-6.58333 19.5c-6.50446 19.26637-6.61768 19.5-9.4495 19.5-2.83679 0-2.92969-.19471-9.06563-19l-6.19947-19-.10104 19.25L267 132h-6zM364 109V86h11.28811c9.71987 0 11.90687.31259 15.74193 2.25 5.46035 2.75848 8.49184 7.12992 10.00752 14.43095 1.3124 6.32179.61416 12.97497-1.97502 18.81905-3.60069 8.12716-8.86935 10.39305-24.31254 10.45611L364 132zm26.99464 14.33281c5.41577-6.0628 6.24138-19.71902 1.60783-26.59474-3.0762-4.56477-6.03923-5.70656-14.85247-5.72333L370 91v36.199l9.08273-.3495c8.74712-.33659 9.18727-.46653 11.91191-3.51669zM247 89c0-2.53333.38889-3 2.5-3s2.5.46667 2.5 3-.38889 3-2.5 3-2.5-.46667-2.5-3z"/><path fill="#5266a8" d="M16.07727 218.18452c-1.8825-1.01148-4.245-3.37226-5.25-5.24618-1.733-3.23136-1.82719-8.30919-1.82572-98.42274.00145-88.48298.12177-95.25135 1.75-98.44452.96165-1.8859 3.01882-4.3609 4.57149-5.5 2.80166-2.0554 3.54371-2.07333 98-2.36882 65.25419-.20414 96.33276.03733 98.85326.76806 2.02197.5862 4.83447 2.4422 6.25 4.12447L221 16.15345v97.37622c0 66.9721-.33358 98.09344-1.06837 99.67328-.58761 1.26338-2.27511 3.19705-3.75 4.29705-2.63266 1.96348-4.45285 2.00478-99.68163 2.26179-92.54257.24975-97.15728.17727-100.42273-1.57727zm164.334-11.93452c3.76491-5.78708 4.91519-11.67028 4.8391-24.75-.11385-19.57176-5.76238-42.41111-15.3745-62.16547-9.93471-20.41731-19.08928-22.93077-26.88918-7.38263-3.14754 6.27424-5.46447 13.31509-10.05247 30.5481-4.575 17.18423-6.7221 23.5-7.98899 23.5-1.07859 0-3.0056-6.64343-6.44259-22.21112-4.59685-20.8212-8.74131-31.01084-15.14118-37.22631-4.71797-4.58203-8.65691-4.8257-10.80668-.66851-.82312 1.59174-2.89203 10.70424-4.59758 20.25-4.6187 25.85024-8.72494 36.66702-15.94619 42.00592C70.35495 169.37436 69 170.74149 69 171.18806c0 1.568 7.53353.78402 10.63417-1.10666 6.82076-4.15909 10.73568-11.858 15.76723-31.00713 1.80163-6.85665 3.75457-12.62626 4.33987-12.82136 1.19786-.39929 2.86315 4.44642 6.78633 19.74709 3.54656 13.83181 7.89683 25.70086 11.50564 31.39136 4.22072 6.65539 7.2255 6.11094 13.50804-2.44759 4.74949-6.47011 8.73384-16.26919 12.56369-30.89908C148.13147 128.66359 149.98774 123 151.00244 123c1.78897 0 8.15587 8.69856 12.44403 17.00122 9.65762 18.69893 13.99586 37.26689 13.37566 57.24878-.21765 7.0125-.048 12.75.37688 12.75.42494 0 1.87045-1.6875 3.21226-3.75zm-123.11596-40c-.43742-2.0625-.7711-9.825-.74153-17.25.06616-16.60824.7296-18.74608 14.43057-46.5C82.36785 79.44053 84.20133 74.56817 84.34301 67c.15894-8.4896-4.96774-14.97495-13.12784-16.60697l-3.21311-.64262 2.12126 4.79546c3.8739 8.75762 1.84984 16.2166-10.5706 38.95413-12.60458 23.07467-17.05873 37.06695-16.36849 51.42009.34208 7.11322.91142 9.49541 3.33057 13.93546C49.16243 163.71495 55.22974 170 57.27316 170c.4496 0 .45958-1.6875.02216-3.75zM88.86808 44.7615c3.58957-2.20674 7.07311-8.5047 7.10996-12.85422.03512-4.14658-4.1578-10.99813-7.98736-13.05194-7.32036-3.92595-16.71858-1.52204-21.05496 5.38552-1.60503 2.5567-1.96631 4.50082-1.67625 9.02026.31382 4.88948.86343 6.27047 3.63264 9.12757 5.66236 5.84207 12.92874 6.7052 19.97597 2.37281zm237.76918 86.83337c-5.12943-1.90785-9.44809-6.09805-11.90534-11.55124-2.65964-5.90232-2.65731-16.16322.005-22.18182 7.10085-16.05244 29.36137-17.04616 37.78351-1.68667 2.52211 4.59958 2.9106 6.34641 2.85217 12.82486-.0974 10.80067-3.63467 17.49855-11.34775 21.48714-4.51661 2.33562-12.68687 2.85614-17.38762 1.10773zm15.37291-5.84487c5.39026-3.66858 7.14811-6.85274 7.72063-13.98512C350.79418 98.51744 344.63811 90 334 90c-9.94566 0-15.97909 7.55879-15.99442 20.03811-.007 5.84322 3.47224 12.76646 7.8923 15.70382 4.60333 3.05915 11.62415 3.06267 16.11229.008zM247 115V98h5v34h-5zm14-6V86h8.92933l6.22589 19.50944c3.42424 10.7302 6.53396 19.1677 6.91049 18.75.37653-.41769 3.47818-9.19694 6.89254-19.50944L296.16619 86H304v46h-5v-19.7c0-11.31683-.37242-19.29574-.87516-18.75-.48133.5225-3.66873 9.3875-7.08309 19.7C285.34569 130.45394 284.64137 132 282.5 132s-2.84569-1.54606-8.54175-18.75c-3.41436-10.3125-6.60176-19.1775-7.08309-19.7-.50274-.54574-.87516 7.43317-.87516 18.75V132h-5zm103 .12072V86l10.25.0056c12.51189.0068 17.2983 1.23572 21.28759 5.4656 6.11295 6.48162 7.50283 21.04154 2.89188 30.2945-4.04008 8.10741-7.25952 9.57123-22.13985 10.06662L364 132.24144zm23.96998 16.59997c8.87006-4.4883 10.7091-23.50151 3.01741-31.1959-2.8443-2.8453-3.55671-3.04553-12.00556-3.37429L370 90.801V127l7.75-.0147c4.2625-.008 8.86149-.57717 10.21998-1.26457zM247 89c0-2.53333.38889-3 2.5-3s2.5.46667 2.5 3-.38889 3-2.5 3-2.5-.46667-2.5-3z"/><path fill="#2e4c9b" d="M15.2168 217.4393C9.78383 213.6339 10 217.92007 10 114 10 8.4978 9.69658 13.75962 15.96727 10.51693c2.56302-1.3254 15.15596-1.5161 99.73307-1.51034 94.00026.0064 96.88447.0625 99.73223 1.93976 5.7702 3.80374 5.49366-1.33799 5.53199 102.85331.0307 83.52799-.16274 96.6829-1.45885 99.1893C216.18488 219.41074 223.29168 219 115.5 219c-87.23659 0-98.30083-.17219-100.2832-1.5607zm165.76025-11.06416c4.26735-6.72892 5.38883-13.6447 4.68243-28.87514-1.21702-26.24006-12.42345-59.91294-23.93886-71.93109-10.89415-11.36976-19.37364-1.34281-28.69451 33.93109-5.02498 19.01653-7.04818 25.5-7.95741 25.5-.89888 0-2.18493-4.63515-7.07511-25.5-4.17258-17.80304-7.44618-25.7917-12.97142-31.65449-2.48719-2.63913-5.69498-5.06657-7.12841-5.3943-5.23444-1.19675-6.72263 2.45778-11.42197 28.04879-4.17094 22.71351-8.80757 33.88661-15.77567 38.01537-6.24092 3.69788 1.30643 6.05446 8.17235 2.55173 4.05442-2.06841 7.61407-6.02968 10.43094-11.60784 1.98211-3.9251 6.2232-17.36237 7.77328-24.62846 1.28813-6.03821 2.44627-8.64517 3.41172-7.67973.32623.32624 2.16482 6.61321 4.08575 13.97104 5.54621 21.24395 9.52335 31.88188 14.62852 39.12789 2.55 3.61933 3.99563 3.47269 8.83104-.89582 7.25019-6.5501 11.6708-16.5858 18.4363-41.85418 1.4726-5.5 2.9005-10.7875 3.1731-11.75 2.65005-9.35654 20.00592 23.53796 24.93016 47.25 1.85568 8.93583 2.46473 26.52088 1.1689 33.75-1.05712 5.89746 1.37127 5.7237 5.23887-.37486zM57.5886 165.25c-2.27764-15.83432-1.65933-25.16621 2.48195-37.45943 1.05964-3.14549 6.55045-15.07893 12.2018-26.51875 14.76822-29.8948 16.21303-38.89365 7.5442-46.98802-2.46602-2.3026-10.73675-5.69693-11.65176-4.78192-.28778.28778.23241 2.10785 1.15599 4.0446 4.07807 8.5518 1.56765 18.48845-9.80614 38.81437-12.0668 21.56439-16.90391 35.88532-16.93525 50.13915-.02358 10.7312 2.1664 16.59947 8.67666 23.25 5.64548 5.76711 7.21618 5.64309 6.33255-.5zM86.79966 46.58928c1.48519-.7759 4.0216-2.80044 5.63646-4.49899 2.39101-2.5149 3.01082-4.15596 3.3385-8.83927.33646-4.80893.01446-6.32187-1.9657-9.2358-2.8454-4.1872-9.18083-7.9844-13.30892-7.9768-3.6654.0067-10.43222 3.00177-12.5853 5.57035-4.42918 5.2839-4.95603 14.15896-1.14599 19.30466 4.83449 6.52927 13.62795 9.02093 20.03095 5.67585zM329.5 132.06493c-4.02728-.98044-8.62997-3.44607-10.69738-5.73053-5.15068-5.69145-7.3799-18.32503-4.66452-26.43518 4.77494-14.26152 22.25983-19.09817 33.68566-9.31808 5.08406 4.35177 7.41932 10.14917 7.41932 18.41886 0 3.87071-.70354 8.22839-1.73926 10.77284-2.34619 5.76388-8.46081 10.83775-14.66404 12.1681-5.42386 1.16321-5.08928 1.15877-9.33978.12399zm13.20966-6.02944C347.58728 123.06145 350 117.4236 350 109c0-13.1054-5.90366-19.60902-17.06708-18.80153-5.11979.37033-6.44595.90644-9.45382 3.82179-1.92426 1.86506-3.94174 4.98599-4.4833 6.93538-1.29807 4.67257-1.26348 13.20569.0678 16.72926 1.26323 3.34342 5.63168 8.18786 8.43638 9.35561 3.79642 1.58067 11.84075 1.04911 15.20966-1.00502zM247 115V98h5v34h-5zm15-6V86h7.59852l6.37596 19.5c3.50678 10.725 6.64757 19.5 6.97953 19.5.33196 0 3.50265-8.775 7.04599-19.5l6.44243-19.5H304v46h-4.95859l-.2707-20.25L298.5 91.5l-6.83313 20.25c-9.14345 27.09665-8.95181 27.08573-17.5551 1-3.49185-10.5875-6.74548-19.6775-7.23029-20.2-.5109-.55061-.88148 7.54224-.88148 19.25 0 19.53333-.066 20.2-2 20.2-1.94203 0-2-.66667-2-23zm103 .002V85.72525l11.8934.48983c9.7721.40246 12.49888.86403 15.28809 2.58786 5.10078 3.15245 8.05677 9.2154 8.59063 17.62.53483 8.4198-.87892 14.36189-4.41754 18.5673-4.28681 5.09459-7.68537 6.244-20.07934 6.79094L365 132.27897v-23.27676zm24.12824 16.43147c9.1806-4.74747 9.1806-28.1199 0-32.86736C387.11482 91.52514 383.40053 91 378.04966 91H370v36h8.04966c5.35087 0 9.06516-.52514 11.07858-1.56632zM247 89c0-2.53333.38889-3 2.5-3s2.5.46667 2.5 3-.38889 3-2.5 3-2.5-.46667-2.5-3z"/></g></svg>