<svg xmlns="http://www.w3.org/2000/svg" role="img" viewBox="-1.46 -1.46 127.79 36.79"><title>Indra logo</title><g fill="#004254"><path d="M65 1h6v31h-6zm6 0h1v31h-1zm1 0h1v31h-1zM1 8h6v1H1zm6 0h1v1H7zm1 0h1v1H8zm6 0h1v1h-1zm1 0h16v1H15zm16 0h1v1h-1zm1 0h1v1h-1zm1 0h1v1h-1zm23 0h1v1h-1zm1 0h1v1h-1zm1 0h6v1h-6zm6 0h1v1h-1zm21 0h1v1h-1zm1 0h1v1h-1zm1 0h4v1h-4zm4 0h1v1h-1zm1 0h1v1h-1zm15 0h1v1h-1zm1 0h1v1h-1zm1 0h14v1h-14zm14 0h1v1h-1zM1 9h6v23H1zm6 0h1v23H7zm1 0h1v23H8zm6 0h1v23h-1zm1 0h17v5H15zm17 0h1v6h-1zm1 0h1v1h-1zm1 0h1v1h-1zm1 0h1v1h-1zm1 0h1v1h-1zm1 0h1v1h-1zm13 0h1v1h-1zm1 0h1v1h-1zm1 0h1v1h-1zm1 0h1v1h-1zm1 0h1v1h-1z"/><path d="M55 9h16v5H55zm27 0h1v1h-1zm1 0h1v1h-1zm1 0h1v1h-1zm1 0h1v1h-1zm1 0h5v5h-5zm5 0h1v5h-1zm1 0h1v5h-1zm9 0h1v1h-1zm1 0h1v1h-1zm1 0h1v1h-1zm1 0h1v1h-1zm1 0h1v1h-1zm1 0h17v5h-17zm17 0h1v23h-1zm-90 1h3v22h-3zm3 0h1v22h-1zm1 0h1v1h-1zm1 0h1v1h-1zm11 0h1v1h-1zm1 0h1v1h-1z"/><path d="M51 10h20v4H51zm29 0h1v1h-1zm1 0h1v1h-1zm1 0h9v4h-9zm18 0h1v1h-1zm1 0h1v1h-1zm1 0h21v4h-21zm-65 1h1v21h-1zm1 0h1v1h-1zm1 0h1v1h-1zm9 0h1v1h-1zm1 0h1v1h-1z"/><path d="M50 11h21v3H50zm29 0h1v1h-1zm1 0h1v1h-1zm1 0h10v3H81zm18 0h1v1h-1zm1 0h1v1h-1zm1 0h22v3h-22zm-63 1h1v20h-1zm1 0h1v1h-1zm1 0h1v1h-1zm7 0h1v1h-1zm1 0h1v1h-1z"/><path d="M49 12h22v2H49zm30 0h1v1h-1zm1 0h11v2H80zm18 0h1v1h-1zm1 0h1v1h-1zm1 0h23v2h-23zm-61 1h1v19h-1zm1 0h1v1h-1zm7 0h1v1h-1z"/><path d="M48 13h23v1H48zm30 0h1v1h-1zm1 0h1v1h-1zm19 0h1v1h-1zm1 0h24v1H99zm-84 1h24v1H15zm25 0h1v1h-1zm6 0h1v1h-1zm1 0h24v1H47zm31 0h1v1h-1zm1 0h12v1H79zm12 0h1v1h-1zm1 0h1v1h-1zm5 0h1v1h-1zm1 0h25v1H98zm-83 1h6v17h-6zm6 0h1v17h-1zm1 0h1v1h-1zm1 0h5v1h-5zm5 0h1v1h-1zm1 0h1v1h-1zm1 0h1v1h-1zm1 0h1v1h-1zm1 0h7v1h-7zm8 0h1v1h-1zm6 0h1v1h-1zm1 0h7v12h-7zm7 0h1v1h-1zm1 0h1v1h-1zm1 0h1v1h-1zm1 0h1v1h-1zm1 0h1v1h-1zm1 0h5v1h-5zm5 0h1v1h-1zm14 0h1v1h-1zm1 0h7v17h-7zm7 0h1v1h-1zm1 0h1v1h-1zm1 0h1v1h-1zm1 0h1v1h-1zm1 0h1v1h-1zm1 0h1v1h-1zm1 0h1v1h-1zm5 0h1v1h-1zm1 0h7v12h-7zm7 0h1v1h-1zm1 0h1v1h-1zm1 0h1v1h-1zm1 0h1v1h-1zm1 0h1v1h-1zm1 0h5v1h-5zm5 0h1v1h-1zm1 0h1v1h-1zm1 0h6v17h-6zm-95 1h1v16h-1zm10 0h1v1h-1zm8 0h1v1h-1zm6 0h1v1h-1zm8 0h1v1h-1zm1 0h1v1h-1zm23 0h1v1h-1zm8 0h1v1h-1zm1 0h1v1h-1zm10 0h1v1h-1zm8 0h1v1h-1zm1 0h1v1h-1zm10 0h1v9h-1zm-84 1h1v1h-1zm8 0h1v1h-1zm6 0h1v1h-1zm8 0h1v1h-1zm24 0h1v1h-1zm8 0h1v1h-1zm11 0h1v1h-1zm8 0h1v1h-1zm-73 1h1v1h-1zm8 0h1v1h-1zm6 0h1v1h-1zm8 0h1v1h-1zm24 0h1v1h-1zm8 0h1v1h-1zm11 0h1v1h-1zm8 0h1v1h-1zm-73 1h1v1h-1zm8 0h1v1h-1zm6 0h1v1h-1zm8 0h1v3h-1zm24 0h1v13h-1zm8 0h1v1h-1zm11 0h1v1h-1zm8 0h1v1h-1zm-73 1h1v12h-1zm8 0h1v12h-1zm6 0h1v1h-1zm40 0h1v12h-1zm11 0h1v1h-1zm8 0h1v1h-1zm-59 1h1v1h-1zm51 0h1v1h-1zm8 0h1v1h-1zm-59 1h1v1h-1zm8 0h1v1h-1zm43 0h1v1h-1zm8 0h1v1h-1zm-59 1h1v1h-1zm8 0h1v1h-1zm43 0h1v1h-1zm8 0h1v1h-1zm-59 1h1v1h-1zm8 0h1v1h-1zm43 0h1v1h-1zm8 0h1v1h-1zm-59 1h1v1h-1zm8 0h1v1h-1zm1 0h1v1h-1zm42 0h1v1h-1zm8 0h1v1h-1zm1 0h1v1h-1zm10 0h1v1h-1zm-70 1h1v1h-1zm8 0h1v5h-1zm1 0h1v1h-1zm1 0h1v1h-1zm1 0h1v1h-1zm1 0h6v1h-6zm6 0h1v1h-1zm33 0h1v1h-1zm8 0h1v5h-1zm1 0h1v1h-1zm1 0h1v1h-1zm1 0h1v1h-1zm1 0h6v1h-6zm6 0h1v1h-1zm1 0h1v1h-1zm-70 1h1v1h-1z"/><path d="M47 27h24v1H47zm50 0h1v1h-1zm1 0h25v1H98zm-51 1h1v1h-1zm1 0h23v1H48zm50 0h1v1h-1zm1 0h24v1H99zm-52 1h1v1h-1zm1 0h1v1h-1zm1 0h22v1H49zm49 0h1v1h-1zm1 0h1v1h-1zm1 0h23v1h-23zm-52 1h1v1h-1zm1 0h1v1h-1zm1 0h21v1H50zm49 0h1v1h-1zm1 0h1v1h-1zm1 0h22v1h-22zm-52 1h1v1h-1zm1 0h1v1h-1zm1 0h1v1h-1zm1 0h19v1H52zm48 0h1v1h-1zm1 0h1v1h-1zm1 0h1v1h-1zm1 0h20v1h-20zM1 32h6v1H1zm6 0h1v1H7zm1 0h1v1H8zm6 0h1v1h-1zm1 0h6v1h-6zm6 0h1v1h-1zm1 0h1v1h-1zm10 0h1v1h-1zm1 0h6v1h-6zm6 0h1v1h-1zm1 0h1v1h-1zm11 0h1v1h-1zm1 0h1v1h-1zm1 0h1v1h-1zm1 0h1v1h-1zm1 0h1v1h-1zm1 0h1v1h-1zm1 0h14v1H57zm14 0h1v1h-1zm1 0h1v1h-1zm6 0h1v1h-1zm1 0h6v1h-6zm6 0h1v1h-1zm1 0h1v1h-1zm16 0h1v1h-1zm1 0h1v1h-1zm1 0h1v1h-1zm1 0h1v1h-1zm1 0h1v1h-1zm1 0h1v1h-1zm1 0h15v1h-15zm15 0h1v1h-1z"/></g></svg>