<svg xmlns="http://www.w3.org/2000/svg" role="img" viewBox="-3.89 -3.76 195.52 19.02"><title>Intro to Physical Oceanography logo</title><g transform="translate(-.803 9.117)"><path d="M4.24805 0H.80273v-.89063h1.14258v-6.94335H.80273v-.89063h3.44532v.89063H3.10547v6.94336h1.14258z"/><path d="M11.60742 0h-1.10156v-3.72656q0-.45117-.05273-.84375-.05274-.39844-.19336-.6211-.14649-.24609-.42188-.36328-.27539-.12304-.71484-.12304-.45117 0-.94336.22265-.49219.22266-.94336.56836V0H6.13477v-6.54492h1.10156v.72656q.51562-.42773 1.0664-.66797.55079-.24023 1.13086-.24023 1.06055 0 1.6172.63867.55663.63867.55663 1.83984z"/><path d="M17.12695-.0586q-.31054.08204-.67968.13477-.36329.05274-.6504.05274-1.00195 0-1.52343-.53907-.52149-.53906-.52149-1.72851v-3.48047h-.74414v-.92578h.74414v-1.88086h1.10157v1.88086h2.27343v.92578h-2.27343v2.98242q0 .51563.02344.8086.02344.2871.16406.53906.1289.23437.35156.3457.22852.10547.6914.10547.26954 0 .5625-.07617.29298-.08203.42188-.13477h.0586z"/><path d="M22.54102-5.34375h-.0586q-.24609-.0586-.48046-.08203-.22852-.0293-.54492-.0293-.50977 0-.98438.22852-.4746.22265-.91406.58008V0h-1.10156v-6.54492h1.10156v.9668q.65625-.52735 1.1543-.74415.5039-.22265 1.02538-.22265.28712 0 .41602.01758.1289.01172.38672.05273z"/><path d="M29.15625-3.26953q0 1.5996-.82031 2.52539-.82031.92578-2.19727.92578-1.38867 0-2.20898-.92578-.81446-.92578-.81446-2.5254 0-1.5996.81446-2.52538.82031-.93164 2.20898-.93164 1.37695 0 2.19727.93164.82031.92578.82031 2.52539zm-1.13672 0q0-1.27149-.49805-1.88672-.49804-.6211-1.3828-.6211-.8965 0-1.39454.6211-.49219.61523-.49219 1.88672 0 1.23047.49805 1.86914.49805.63281 1.38867.63281.8789 0 1.37695-.62695.50391-.63281.50391-1.875z"/><path d="M38.47852-.0586q-.31055.08204-.6797.13477-.36327.05274-.65038.05274-1.00196 0-1.52344-.53907-.52148-.53906-.52148-1.72851v-3.48047h-.74415v-.92578h.74415v-1.88086h1.10156v1.88086h2.27344v.92578h-2.27344v2.98242q0 .51563.02344.8086.02344.2871.16406.53906.1289.23437.35156.3457.22852.10547.6914.10547.26954 0 .5625-.07617.29298-.08203.42188-.13477h.0586z"/><path d="M45.38672-3.26953q0 1.5996-.82031 2.52539-.82032.92578-2.19727.92578-1.38867 0-2.20898-.92578-.81446-.92578-.81446-2.5254 0-1.5996.81446-2.52538.8203-.93164 2.20898-.93164 1.37695 0 2.19727.93164.8203.92578.8203 2.52539zm-1.13672 0q0-1.27149-.49805-1.88672-.49804-.6211-1.3828-.6211-.8965 0-1.39454.6211-.49219.61523-.49219 1.88672 0 1.23047.49805 1.86914.49805.63281 1.38867.63281.8789 0 1.37695-.62695.50391-.63281.50391-1.875z"/><path d="M57.10547-6.0879q0 .58009-.20508 1.07813-.19922.4922-.5625.85547-.45117.45118-1.0664.6797-.61524.22265-1.55274.22265h-1.16016V0h-1.16015v-8.7246h2.36719q.78515 0 1.33007.13476.54492.1289.9668.41015.49805.33399.76758.83203.27539.49805.27539 1.25977zm-1.20703.0293q0-.45117-.1582-.78515t-.48047-.54492q-.28125-.18164-.64454-.25781-.35742-.08204-.9082-.08204H52.5586v3.48633h.97852q.70312 0 1.14258-.12304.43945-.12891.71484-.4043.2754-.28125.38672-.5918.11719-.31054.11719-.69726z"/><path d="M64.01953 0h-1.10156v-3.72656q0-.45117-.05273-.84375-.05274-.39844-.19337-.6211-.14648-.24609-.42187-.36328-.2754-.12304-.71484-.12304-.45118 0-.94336.22265-.4922.22266-.94336.56836V0h-1.10156v-9.11719h1.10156v3.29883q.51562-.42773 1.0664-.66797.55078-.24023 1.13086-.24023 1.06055 0 1.6172.63867.55663.63867.55663 1.83984z"/><path d="M71.6836-6.54492l-3.82032 8.95898h-1.17773L67.9043-.3164l-2.60743-6.22851h1.19532l2.00976 4.85156 2.02735-4.85156z"/><path d="M77.80078-1.88672q0 .89649-.74414 1.4707-.73828.57422-2.02148.57422-.72657 0-1.33594-.16992-.60352-.17578-1.01367-.38086V-1.6289h.05859q.52148.39258 1.16015.62696.63867.22851 1.22461.22851.72656 0 1.13672-.23437.41016-.23438.41016-.73828 0-.38672-.22266-.58594t-.85547-.33984q-.23437-.05274-.61523-.12305-.375-.07031-.68555-.15235-.86133-.22851-1.2246-.66796-.35743-.44532-.35743-1.08985 0-.4043.16406-.76172.16992-.35742.50977-.63867.32812-.27539.83203-.4336.50977-.16405 1.13672-.16405.58593 0 1.1836.14648.6035.14062 1.00194.3457v1.17774h-.05858q-.42188-.31055-1.0254-.52149-.60351-.2168-1.18359-.2168-.60352 0-1.01953.23438-.41602.22852-.41602.68555 0 .4043.25196.60937.2461.20508.79687.33399.30469.0703.67969.14062.38086.07031.63281.1289.76758.17579 1.1836.60352.41601.4336.41601 1.14844z"/><path d="M80.56055-7.64063h-1.2422V-8.7832h1.2422zM80.49023 0h-1.10156v-6.54492h1.10156z"/><path d="M87.50977-.41016Q86.95898-.14648 86.46094 0q-.49219.14648-1.04883.14648-.70898 0-1.30078-.20507-.5918-.21094-1.01367-.63282-.42774-.42187-.66211-1.0664-.23438-.64453-.23438-1.50586 0-1.60547.8789-2.51953.88477-.91407 2.33204-.91407.5625 0 1.10156.1582.54492.15821.9961.38673v1.2246h-.0586q-.5039-.39257-1.04297-.60351-.5332-.21094-1.04297-.21094-.9375 0-1.48242.63281-.53906.62696-.53906 1.8457 0 1.1836.52734 1.82227.5332.63282 1.49414.63282.33399 0 .6797-.0879.3457-.08788.62109-.22851.24023-.12305.45117-.25781.21094-.14063.33398-.24024h.0586z"/><path d="M94.00781 0h-1.0957v-.69727q-.14648.09961-.39844.28125-.2461.17579-.48047.28125Q91.75781 0 91.4004.0879q-.35743.09375-.8379.09375-.88477 0-1.5-.58594-.61523-.58593-.61523-1.49414 0-.74414.3164-1.20117.32227-.46289.91406-.72656.59766-.26367 1.43555-.35742.8379-.09375 1.79883-.14063v-.16992q0-.375-.13477-.6211-.1289-.24609-.375-.38671-.23437-.13477-.5625-.18164-.32812-.04688-.68554-.04688-.4336 0-.9668.11719-.5332.11133-1.10156.32812h-.0586V-6.4043q.32227-.08789.93165-.19336.60937-.10547 1.20117-.10547.6914 0 1.20117.1172.51563.11132.89063.38671.36914.26953.5625.69727.19336.42773.19336 1.06054zm-1.0957-1.61133v-1.82226q-.5039.0293-1.18945.08789-.6797.0586-1.07813.16992-.4746.13476-.76758.42187-.29297.28125-.29297.7793 0 .5625.33985.84961.33984.28125 1.0371.28125.58009 0 1.06055-.22266.48047-.22851.89063-.54492z"/><path d="M97.24219 0h-1.10156v-9.11719h1.10156z"/><path d="M110.23242-7.72266q.53321.58594.81446 1.43555.2871.84961.2871 1.92773 0 1.07813-.29296 1.9336-.28711.8496-.8086 1.41797-.53906.5918-1.27734.89062-.73242.29883-1.67578.29883-.91992 0-1.67578-.30469-.75-.30468-1.27735-.88476-.52734-.58008-.81445-1.42383-.28125-.84375-.28125-1.92773 0-1.06641.28125-1.91016.28125-.84961.82031-1.45313.51563-.57422 1.27735-.8789.76757-.30469 1.66992-.30469.9375 0 1.68164.31055.75.30468 1.27148.87304zm-.10547 3.36328q0-1.69921-.76172-2.61914-.76171-.92578-2.08007-.92578-1.33008 0-2.0918.92578-.75586.91993-.75586 2.61915 0 1.7168.77344 2.63085.77344.9082 2.07422.9082t2.06836-.9082q.77343-.91406.77343-2.63085z"/><path d="M117.92578-.41016Q117.375-.14648 116.87695 0q-.49218.14648-1.04882.14648-.70899 0-1.30079-.20507-.59179-.21094-1.01367-.63282-.42773-.42187-.66211-1.0664-.23437-.64453-.23437-1.50586 0-1.60547.8789-2.51953.88477-.91407 2.33204-.91407.5625 0 1.10156.1582.54492.15821.99609.38673v1.2246h-.0586q-.50391-.39257-1.04297-.60351-.5332-.21094-1.04297-.21094-.9375 0-1.48242.63281-.53906.62696-.53906 1.8457 0 1.1836.52734 1.82227.5332.63282 1.49414.63282.33398 0 .67969-.0879.3457-.08788.62109-.22851.24024-.12305.45117-.25781.21094-.14063.33399-.24024h.0586z"/><path d="M124.81641-3.1582h-4.82227q0 .60351.18164 1.05468.18164.44532.49805.73243.30469.28125.7207.42187.42188.14063.92578.14063.66797 0 1.3418-.26368.67969-.26953.9668-.52734h.0586v1.20117q-.55664.23438-1.13672.39258-.58008.1582-1.21875.1582-1.6289 0-2.54297-.8789-.91406-.88477-.91406-2.50782 0-1.60546.87305-2.54882.8789-.94336 2.30859-.94336 1.32422 0 2.03906.77344.72071.77343.72071 2.19726zm-1.07227-.84375q-.006-.8672-.43945-1.3418-.42774-.4746-1.30664-.4746-.88477 0-1.41211.52147-.52149.52149-.5918 1.29493z"/><path d="M131.57227 0h-1.09571v-.69727q-.14648.09961-.39844.28125-.24609.17579-.48046.28125-.27539.13477-.63282.22266-.35742.09375-.83789.09375-.88476 0-1.5-.58594-.61523-.58593-.61523-1.49414 0-.74414.31641-1.20117.32226-.46289.91406-.72656.59765-.26367 1.43554-.35742t1.79883-.14063v-.16992q0-.375-.13476-.6211-.12891-.24609-.375-.38671-.23438-.13477-.5625-.18164-.32813-.04688-.68555-.04688-.43359 0-.9668.11719-.5332.11133-1.10156.32812h-.0586V-6.4043q.32226-.08789.93164-.19336.60937-.10547 1.20117-.10547.69141 0 1.20117.1172.51563.11132.89063.38671.36914.26953.5625.69727.19336.42773.19336 1.06054zm-1.09571-1.61133v-1.82226q-.5039.0293-1.18945.08789-.67969.0586-1.07813.16992-.4746.13476-.76757.42187-.29297.28125-.29297.7793 0 .5625.33984.84961.33985.28125 1.03711.28125.58008 0 1.06055-.22266.48047-.22851.89062-.54492z"/><path d="M139.16602 0h-1.10157v-3.72656q0-.45117-.0527-.84375-.0527-.39844-.19336-.6211-.14649-.24609-.42188-.36328-.27539-.12304-.71484-.12304-.45117 0-.94336.22265-.49219.22266-.94336.56836V0h-1.10156v-6.54492h1.10156v.72656q.51563-.42773 1.06641-.66797.55078-.24023 1.13086-.24023 1.06054 0 1.61718.63867.55665.63867.55665 1.83984z"/><path d="M146.86523-3.26953q0 1.5996-.82031 2.52539-.82031.92578-2.19726.92578-1.38868 0-2.20899-.92578-.81445-.92578-.81445-2.5254 0-1.5996.81445-2.52538.82031-.93164 2.20899-.93164 1.37695 0 2.19726.93164.82031.92578.82031 2.52539zm-1.13671 0q0-1.27149-.49805-1.88672-.49805-.6211-1.38281-.6211-.89649 0-1.39454.6211-.49218.61523-.49218 1.88672 0 1.23047.49804 1.86914.49805.63281 1.38868.63281.8789 0 1.37695-.62695.50391-.63281.50391-1.875z"/><path d="M153.87891-.74414q0 1.66406-.75586 2.44336-.75586.7793-2.32618.7793-.52148 0-1.01953-.07618-.49218-.0703-.97265-.20507v-1.125h.0586q.26953.10546.85547.2578.58594.15821 1.17187.15821.5625 0 .93165-.13476.36914-.13477.57421-.375.20508-.22852.29297-.55079.0879-.32226.0879-.7207v-.59766q-.49804.39844-.95507.59766-.45118.19336-1.1543.19336-1.17188 0-1.86328-.84375-.68555-.8496-.68555-2.39062 0-.84375.23438-1.45313.24023-.61523.65039-1.06055.38086-.41601.92578-.64453.54492-.23437 1.08398-.23437.56836 0 .94922.11719.38672.11132.81445.3457l.0703-.28125h1.03125zm-1.10157-1.05469v-3.56836q-.43945-.19922-.82031-.28125-.375-.08789-.75-.08789-.9082 0-1.42969.60938-.52148.60937-.52148 1.76953 0 1.10156.38672 1.66992t1.2832.56836q.48047 0 .96094-.18164.48633-.1875.89062-.49805z"/><path d="M160.13086-5.34375h-.0586q-.2461-.0586-.48047-.08203-.22852-.0293-.54493-.0293-.50976 0-.98437.22852-.47461.22265-.91406.58008V0h-1.10157v-6.54492h1.10157v.9668q.65625-.52735 1.15429-.74415.50391-.22265 1.02539-.22265.28711 0 .41602.01758.12891.01172.38672.05273z"/><path d="M166.04297 0h-1.0957v-.69727q-.14649.09961-.39844.28125-.2461.17579-.48047.28125-.27539.13477-.63281.22266-.35743.09375-.83789.09375-.88477 0-1.5-.58594-.61524-.58593-.61524-1.49414 0-.74414.31641-1.20117.32226-.46289.91406-.72656.59766-.26367 1.43555-.35742.83789-.09375 1.79883-.14063v-.16992q0-.375-.13477-.6211-.12891-.24609-.375-.38671-.23438-.13477-.5625-.18164-.32813-.04688-.68555-.04688-.43359 0-.96679.11719-.53321.11133-1.10157.32812h-.0586V-6.4043q.32227-.08789.93164-.19336.60938-.10547 1.20117-.10547.69141 0 1.20117.1172.51563.11132.89063.38671.36914.26953.5625.69727.19336.42773.19336 1.06054zm-1.0957-1.61133v-1.82226q-.50391.0293-1.18946.08789-.67969.0586-1.07812.16992-.47461.13476-.76758.42187-.29297.28125-.29297.7793 0 .5625.33984.84961.33985.28125 1.03711.28125.58008 0 1.06055-.22266.48047-.22851.89063-.54492z"/><path d="M173.92383-3.35156q0 .79687-.22852 1.45898-.22851.65625-.64453 1.11328-.38672.4336-.91406.67383-.52149.23438-1.10742.23438-.50977 0-.92578-.11133-.41016-.11133-.8379-.3457v2.74218h-1.10156v-8.95898h1.10156v.68554q.43946-.36914.98438-.61523.55078-.25195 1.17187-.25195 1.1836 0 1.83985.89648.66211.89063.66211 2.47852zm-1.13672.0293q0-1.1836-.4043-1.76954-.40429-.58593-1.24219-.58593-.4746 0-.95507.20507-.48047.20508-.91993.53907v3.70898q.46875.21094.80274.28711.33984.07617.76758.07617.91992 0 1.43554-.6211.51563-.62109.51563-1.83984z"/><path d="M181.11328 0h-1.10156v-3.72656q0-.45117-.0527-.84375-.0527-.39844-.19336-.6211-.14648-.24609-.42187-.36328-.27539-.12304-.71484-.12304-.45118 0-.94336.22265-.49219.22266-.94336.56836V0h-1.10157v-9.11719h1.10157v3.29883q.51562-.42773 1.0664-.66797.55078-.24023 1.13086-.24023 1.06055 0 1.61719.63867.55664.63867.55664 1.83984z"/><path d="M188.77734-6.54492l-3.82031 8.95898h-1.17773l1.21875-2.73047-2.60743-6.22851h1.19532l2.00976 4.85156 2.02735-4.85156z"/></g></svg>