<svg xmlns="http://www.w3.org/2000/svg" role="img" viewBox="-7.66 -7.66 398.06 132.56"><title>IRENA FlexTool logo</title><g transform="translate(-17.247 -19.2)"><path fill="#d0eef8" d="M286.40001 135.71521c-4.84749-1.80503-5.30697-2.25248-4.56104-4.44165.6162-1.80844.3875-4.61833-.52078-6.39871-.82714-1.62132-2.57345-3.35525-4.14076-4.11139-1.64973-.7959-4.79208-.95491-6.61257-.33461-.80891.27562-1.68799.41777-1.95352.31587-.93814-.35999-3.91477-7.27664-3.54559-8.23871.10069-.2624.73009-.75898 1.39867-1.10351 2.8198-1.45309 4.64975-4.4658 4.68632-7.71525.0404-3.5855-1.64037-6.35956-4.91073-8.10526-1.29163-.68947-1.43621-.88063-1.40323-1.85533.0438-1.29556 1.83469-6.03822 2.66922-7.06882.55518-.68562.67508-.70494 2.06629-.33285 4.57415 1.2234 8.75797-.50476 10.76998-4.44862.96202-1.88572 1.1589-4.62543.48127-6.69717-.29813-.91148-.46798-1.85028-.37744-2.08622.34135-.88954 7.42964-3.89193 8.3524-3.53783.27011.10365.63727.57287.8159 1.04272.56894 1.49642 2.12806 3.16733 3.80921 4.08232 4.3757 2.38156 9.80884.71622 12.0422-3.69111.44012-.86853 1.01479-1.66148 1.27703-1.76212.89381-.34299 8.45717 2.69105 8.45717 3.39259 0 .15882-.22629 1.17206-.50286 2.25164-.4002 1.5621-.43286 2.28933-.15995 3.56183.49138 2.29125.95227 3.00437 3.89205 6.02204 2.97021 3.0489 5.90668 7.37363 7.33297 10.79974.53047 1.27424 1.32799 3.87119 1.77227 5.771 1.2169 5.20369 3.14374 8.8703 6.37369 12.12862 1.41451 1.42693 3.36383 3.1097 4.33183 3.73948 7.71776 5.02117 18.05627 2.76984 23.10237-5.03081 1.77432-2.74289 2.5569-5.49231 2.5569-8.98309 0-14.83515-17.72304-22.20546-28.37927-11.8018-2.56727 2.50641-4.42182 6.313-4.84981 9.95455-.20171 1.71622-.56649 2.31895-1.0879 1.79754-.15508-.15507-.65365-1.71932-1.10796-3.47612-.89155-3.44766-2.53442-7.12767-4.60938-10.32496-1.86082-2.86734-1.85151-2.89318 1.22833-3.41078 3.6758-.61775 6.07195-6.06625 4.65249-10.57909l-.57655-1.83302.77539-.59166c1.0811-.82493 6.95264-3.23367 7.58538-3.11181.28622.05512.81507.67022 1.17521 1.36688 1.44025 2.78607 4.87183 4.97027 7.80872 4.97027 3.25421 0 6.44513-1.9564 7.91189-4.85092.44011-.86853 1.01478-1.66148 1.27703-1.76212.54213-.20803 4.64389 1.17646 6.9725 2.35348 1.48395.75008 1.54487.83283 1.32713 1.80286-.65524 2.91907-.72696 3.70279-.4659 5.09115.82444 4.3846 4.20079 7.26324 8.53696 7.27853 1.10422.0039 2.56902-.22324 3.2836-.50916 1.09491-.4381 1.37052-.4502 1.82172-.08.80826.66316 3.05495 5.67341 3.22648 7.19528.14252 1.26438.0871 1.37789-.92688 1.90023-2.06118 1.06175-3.14462 2.13296-4.10876 4.06238-2.17433 4.35122-.4869 9.55582 3.80869 11.74727 2.01834 1.02968 2.0804 1.24478 1.15466 4.00249-.45144 1.34482-1.18888 3.1715-1.63876 4.05929-.80207 1.58281-.84084 1.61032-1.99612 1.41623-2.83581-.47643-4.79586-.54843-6.01236-.22086-2.95074.79455-5.53525 3.68384-6.21222 6.94481-.28742 1.38451-.25964 2.08406.14561 3.66589.78159 3.05086.86015 2.91759-2.7096 4.5967-1.76572.83055-3.68936 1.58781-4.27474 1.68281-1.00567.1632-1.10358.0916-1.77639-1.2982-1.35779-2.80482-4.80629-4.99813-7.85846-4.99813-3.1516 0-6.5015 2.16285-8.03403 5.18715-.52348 1.03304-.97822 1.53285-1.39463 1.53285-.85711 0-5.69987-1.78307-7.01088-2.58135-1.03792-.63199-1.06957-.70903-.82111-1.998.14214-.73736.26047-2.34865.26297-3.58065.006-2.96672-.72052-4.31703-4.01354-7.45957-5.13994-4.90506-8.03128-10.30418-9.38398-17.52311-.28307-1.51065-.87578-3.56353-1.31714-4.56198-1.57758-3.5688-5.42831-7.83717-9.27794-10.28416-5.02762-3.19578-12.47741-3.174-17.46719.05105-3.80725 2.46074-6.35095 5.98285-7.4568 10.325-1.38714 5.44661.37952 11.64628 4.46618 15.67303 2.41445 2.37906 5.22349 3.85529 8.70599 4.57526 2.2492.465 2.99282.48714 5.28.15717 7.40669-1.06856 13.49955-7.13932 14.23589-14.18428.32429-3.10262 1.31024-3.17112 1.84833-.12842.58709 3.31974 2.45325 7.71701 4.85926 11.44998 1.94191 3.0129 1.92008 3.09705-.92822 3.57787-2.24029.37818-4.22706 2.75827-5.0584 6.05981-.31263 1.24157-.2838 1.87346.1708 3.74386.3008 1.2376.4697 2.45141.37532 2.69734-.36983.96377-7.1468 3.8457-8.23279 3.50102-.30503-.0968-.69531-.57968-.8673-1.07304-.48605-1.39427-2.24201-3.1935-4.03198-4.13131-2.14513-1.1239-5.72846-1.19588-7.70881-.15487-1.74611.91789-3.26243 2.47808-4.19284 4.31415-.93019 1.83564-1.2153 1.87341-4.60716.6104zm-163.60518.0981c-5.28548-.95557-9.95491-3.40432-13.71552-7.1927-2.60782-2.62708-4.39922-5.59616-5.78044-9.58057-1.04563-3.01635-1.05378-3.08607-1.0473-8.96001.006-5.80362.0266-5.97976 1.02971-8.96 2.29818-6.82819 6.7117-11.99123 12.71872-14.8787 4.01521-1.93003 6.53693-2.4846 11.2-2.46306 13.63334.06296 22.58433 8.81515 24.18172 23.64462.44038 4.08841.21845 7.11777-.5639 7.69715-.41562.30778-4.32531.4-16.95898.4-18.43926 0-17.03217-.22393-15.65071 2.49063 1.82849 3.59298 4.95052 5.49638 9.43358 5.75134 4.37828.249 7.62847-.82476 11.14339-3.68144.7398-.60126 1.56194-1.04535 1.82698-.98687.96036.21191 8.18076 6.80699 8.1844 7.47558.005.85645-3.44233 4.21749-6.00281 5.85315-5.28689 3.37731-12.91753 4.67112-19.99884 3.39088zm12.50318-30.40048c1.24043-.19835 1.32056-.2722 1.14268-1.05305-.72265-3.17212-3.06343-6.30008-5.48336-7.32734-5.62307-2.38699-11.06274.11477-13.36664 6.14745-.93308 2.44323-1.22709 2.35587 8.08997 2.40372 4.55586.0234 8.88367-.0535 9.61735-.17078zm-117.298 29.73525c-.31633-.12764-.4-6.97664-.4-32.74051 0-29.41268.0492-32.59797.50616-32.77333.2784-.10683 11.43333-.19424 24.78874-.19424 23.67996 0 24.2908.01536 24.61383.61897.49781.93016.43766 12.23492-.06874 12.91928-.36547.49391-1.87769.54752-17.52.62116l-17.12.0806-.08675 6.1151-.08675 6.11513 2.11558.21674c1.16357.11922 8.0268.19957 15.2516.17857 10.62455-.03088 13.1877.04332 13.40628.38813.34142.5386.35814 12.44794.01823 12.98315-.19352.3047-3.7768.41614-15.4351.48l-15.18308.0832-.08386 12.30351c-.06376 9.3543-.17882 12.36381-.48 12.5551-.42702.27121-13.57339.31689-14.23614.0495zm59.6585-.18807c-.5065-.37254-.53815-2.61871-.46117-32.72001L77.28 69.92H92l.08153 32.46017c.0647 25.75667-.0014 32.51282-.32 32.7151-.69821.4433-13.48315.32068-14.10303-.13526zm76.98149.18807c-1.01197-.40834-1.21472-.0861 12.35043-19.62807 2.01582-2.90401 3.72621-5.50823 3.80086-5.78717.0747-.27926-1.14143-2.36432-2.70639-4.64C157.77088 90.09478 154.88 85.77221 154.88 85.34831c0-.2639.22778-.56724.50618-.67407.27839-.10683 3.72344-.19424 7.65566-.19424h7.14949l.69717.88c.6366.80353 4.75131 7.16359 7.25829 11.21902.56473.91354 1.14073 1.65475 1.28 1.64712.13927-.0076.77531-.83562 1.41343-1.84.63812-1.00437 2.48612-3.91414 4.10667-6.46614 1.62055-2.552 3.17798-4.82 3.46095-5.04.37625-.29252 2.42215-.4 7.61415-.4 8.56801 0 8.57601.0034 6.62772 2.8047-3.61255 5.1942-13.5395 19.60991-14.30978 20.78036l-.8852 1.34506 8.54945 12.40083c6.63844 9.62895 8.47966 12.51127 8.23725 12.89494-.26707.42271-1.40343.49412-7.86337.49412-7.18182 0-7.57408-.0313-8.01926-.64-.25744-.352-2.38749-3.62737-4.73343-7.27859-2.34595-3.65123-4.36023-6.63923-4.47618-6.64-.11595-.00078-2.18217 3.05859-4.5916 6.79859-2.40943 3.74-4.67051 7.052-5.02463 7.36-.57265.49806-1.40969.5572-7.56841.53473-3.8085-.0139-7.10455-.0979-7.32455-.18666zm74.40001-.13371c-.5259-.3063-.56-1.87378-.56-25.7368V83.86693l-9.57379-.09346c-5.26558-.0514-9.69358-.21312-9.84-.35938-.4209-.42041-.52458-12.55236-.11383-13.31984.34835-.65091.48523-.65424 26.8727-.65424 14.58742 0 26.75035.0874 27.02875.19423.43924.16855.50617 1.07936.50617 6.88792v6.69369l-.82083.31208c-.46222.17573-4.72625.31208-9.76.31208h-8.93917v25.42874c0 24.81314-.015 25.43676-.61896 25.76-.81741.43746-13.42723.42468-14.18104-.0144zm156.48 0c-.52742-.30719-.56-2.18556-.56-32.28409 0-17.57687.0874-32.18571.19424-32.4641.1691-.44068 1.11996-.50618 7.34874-.50618 6.77954 0 7.17211.0329 7.49034.62751.22964.4291.30909 10.70295.25126 32.49172-.0741 27.91353-.14409 31.90182-.56458 32.16759-.65401.41337-13.44489.38407-14.16-.0324zm-90.0886-27.21231c-1.78853-.88531-2.9514-2.81044-2.9514-4.88606 0-1.82242.55291-2.97226 2.06952-4.30387 1.36993-1.20281 2.25383-1.45935 4.33812-1.25908 2.97914.28626 5.11236 2.59892 5.11236 5.54241 0 4.27016-4.56888 6.88642-8.5686 4.9066zm48.83436.0294c-1.96174-1.03628-2.66576-2.34393-2.66576-4.95143 0-1.83447.13523-2.42959.74695-3.28724 1.95448-2.74024 6.3004-3.12115 8.81246-.7724 2.95353 2.76152 2.0939 7.62608-1.62913 9.21906-1.45539.62271-3.87274.52721-5.26452-.20799zM17.67536 53.06736c-.56391-.56391-.5749-32.91983-.01136-33.48336.43304-.43304 4.9726-.52872 5.61888-.11843.31722.20138.38527 3.8237.32 17.0351L23.52 53.28l-2.72465.09136c-1.84522.06187-2.85224-.03625-3.12-.304zM30.144 53.056c-.28866-.28866-.384-4.44996-.384-16.76082 0-14.08593.06641-16.43193.47473-16.7708.35665-.296 2.24695-.35773 7.6-.2482 6.18913.12665 7.40595.23706 9.26161.84037 4.14928 1.34899 6.7083 4.98806 6.92864 9.85292.25568 5.64512-1.75578 8.80852-6.90705 10.8626-.69813.27839-.6041.47604 2.83659 5.9618 2.14964 3.42736 3.4848 5.86635 3.37211 6.16-.29156.75982-5.68454.6971-6.3529-.07387-1.09417-1.26216-8.9219-14.58501-8.7826-14.94804.09425-.2456 1.18034-.46546 2.8984-.5867 3.38795-.2391 4.77164-.85786 5.78485-2.5869 1.48603-2.5359 1.34298-5.53034-.36091-7.5553-1.4423-1.71408-2.43694-2.0282-6.51347-2.05703L36.32 25.12l-.08347 13.7314c-.05768 9.48815-.1934 13.86384-.43918 14.16-.46261.55742-5.10391.59403-5.65334.0446zm28.16 0c-.5536-.5536-.5536-32.9184 0-33.472.2809-.2809 2.86043-.384 9.60792-.384h9.22392l.31208.82083c.39928 1.05019.40055 3.06482.0026 4.11154l-.3095.81403-6.3305.0868-6.3305.0868v8l6.05597.08727c3.80605.05485 6.2135.21801 6.48.43918.5795.48095.5795 4.54616 0 5.0271-.2665.22118-2.67395.38434-6.48.43919L64.48002 39.2v8.32l6.3305.0868 6.3305.0868.3095.81403c.39796 1.04672.3967 3.06135-.0026 4.11154l-.31208.82083h-9.22392c-6.7475 0-9.32701-.1031-9.60792-.384zm24.97172.01172c-.51637-.51637-.57797-32.28925-.06446-33.24875.2841-.53084.68708-.61897 2.8304-.61897 1.98032 0 2.60078.11626 2.98868.56.26924.308 3.765 5.384 7.76835 11.28 4.00336 5.896 7.47738 10.93086 7.72007 11.18857.3755.39877.44124-1.22458.44124-10.896 0-8.41244.0998-11.46432.384-11.74857.43186-.43185 4.65645-.52627 5.29889-.11843.31721.20138.38526 3.8237.32 17.0351l-.0829 16.77933-2.57957.09197c-2.18314.07783-2.66247.00037-3.11894-.50402-.29665-.3278-3.92888-5.55318-8.07163-11.61197-4.14274-6.05878-7.66941-11.06337-7.83704-11.1213-.18838-.0651-.33687 4.33447-.3888 11.52L88.8 53.28001l-2.56428.09172c-1.72017.06153-2.69455-.03854-2.96-.304zm31.81762.15895c-.11734-.11733-.21334-.46747-.21334-.77808 0-.70583 12.84904-32.05652 13.42056-32.74516.30934-.37273 1.00995-.50216 2.69863-.49853 1.25445.0027 2.44509.1107 2.64588.24.57128.3679 13.64689 32.9739 13.43968 33.51388-.14516.3783-.78572.48017-2.9947.47632-1.54553-.0027-2.99119-.1199-3.21259-.26045-.22139-.14056-1.03557-1.83035-1.80927-3.7551L137.66145 45.92l-6.724-.08629-6.724-.08629-1.34195 3.44629c-.73808 1.89546-1.48774 3.62629-1.66591 3.84629-.34347.4241-5.7109.58802-6.11225.18666zM135.45465 40.08c.1097-.19883-3.08197-8.83582-4.28661-11.6-.316-.7251-.55551-.24882-2.55834 5.08757-1.21533 3.23816-2.2097 6.08216-2.2097 6.32 0 .34257.92711.43243 4.46112.43243 2.45361 0 4.5207-.108 4.59353-.24z"/><path fill="#a2dff5" d="M288.32001 136.10034c-4.41764-1.66562-5.60738-2.18771-6.09379-2.67412-.53663-.53663-.5437-.68874-.0986-2.12214 1.07718-3.46895-.24893-7.4691-3.22982-9.74259-2.50016-1.90685-5.63044-2.41495-8.53756-1.38578-1.37374.48633-1.41303.48089-2.07676-.2873-.73517-.85089-2.58208-5.06146-2.88542-6.57816-.16885-.84425-.0608-1.00707 1.04683-1.57759 4.27033-2.19954 6.18321-7.46193 4.29123-11.80531-.81215-1.86445-2.96083-4.03963-4.71399-4.77215-1.0375-.4335-1.12435-.56775-.97252-1.50335.20988-1.29337 1.99936-5.96296 2.59979-6.7841.41103-.56211.58083-.5817 1.92529-.22212 1.99858.53454 4.25332.4959 6.01101-.103 4.40395-1.50057 7.0254-6.85338 5.54261-11.31764-.51741-1.55776-.51839-1.70134-.0155-2.25702.5339-.58996 4.99097-2.644 6.61962-3.05066.76769-.19168.96366-.03891 1.97189 1.5372 4.07662 6.37278 12.75024 6.1085 16.09415-.49038.74124-1.46278.8839-1.57966 1.7232-1.4118 1.49307.29862 5.99728 2.11944 6.74932 2.7284.64718.52406.66721.65338.28198 1.82063-1.07481 3.25673.0255 7.40566 2.47932 9.34916.70754.56038 2.08325 1.99327 3.05713 3.18418 3.81226 4.66185 6.10535 9.35256 7.29616 14.92489.38143 1.7849 1.18833 4.07743 2.09483 5.95178 1.29646 2.68065 1.86582 3.43582 4.71702 6.25635 3.73424 3.69408 6.05272 5.02709 10.1462 5.83355 8.28753 1.63273 16.8563-3.71973 19.30587-12.05935.65071-2.21535.66047-6.67177.02-9.13073-.69868-2.68243-1.93301-4.7968-4.22284-7.23362-3.33862-3.55294-7.32245-5.21352-12.42724-5.18003-8.18078.05367-14.68037 5.5458-16.39895 13.85707-.28998 1.40239-.66329 2.50445-.82956 2.44902-.16628-.0554-.64098-1.44715-1.05489-3.09273-.86405-3.43519-2.61687-7.36597-4.56174-10.22992-1.48937-2.19319-1.49279-2.90098-.014-2.90098 4.26748 0 7.5377-6.02618 5.93284-10.93274l-.5525-1.68918.79006-.67959c.72641-.62483 6.2312-3.01849 6.94174-3.01849.16937 0 .81197.7879 1.42799 1.7509 1.77326 2.77205 5.01115 4.6491 8.01963 4.6491 3.08223 0 6.52944-2.21798 8.02054-5.16052.43463-.85772.96733-1.55948 1.18376-1.55948.74086 0 5.19449 1.61008 6.4757 2.3411 1.09091.62244 1.26722.86982 1.19346 1.67462-.46292 5.05132-.45898 5.32038.0993 6.78231.75375 1.97366 2.8162 4.16541 4.78721 5.08734 1.91008.89342 5.00032 1.01379 6.79336.2646.64505-.26951 1.36923-.41465 1.6093-.32253.48847.18745 2.7199 4.79663 3.2225 6.6563.29792 1.10236.25821 1.2506-.47145 1.76-2.8783 2.0095-3.56197 2.66263-4.3861 4.19022-2.38035 4.41219-.91597 9.57514 3.47239 12.24254 1.70501 1.03637 1.90845 1.26878 1.81687 2.07559-.1445 1.27293-1.89605 5.71721-2.59191 6.57656-.55652.68727-.64603.69811-2.36322.28617-4.67544-1.12163-9.28583 1.20472-10.93247 5.51638-.5603 1.46712-.55624 4.438.01 7.1917l.21438 1.04289-3.03159 1.43608c-1.66738.78984-3.46223 1.5222-3.98855 1.62747-.86992.17398-1.03248.0625-1.78744-1.22574-.98341-1.67806-3.0849-3.65377-4.52754-4.25654-4.22317-1.76455-9.1986-.0587-11.44663 3.92461-.5413.95915-1.17403 1.81675-1.40606 1.90579-.51311.19689-3.08947-.62238-5.84794-1.85963l-2.04225-.91601.26114-1.36091c.14363-.7485.26646-2.3689.27294-3.6009.0154-2.93104-1.01527-4.87199-3.99206-7.51761-4.68477-4.16357-8.16598-10.45915-9.26419-16.75377-1.12909-6.47165-4.77918-11.80885-10.69024-15.63138-5.51553-3.56676-12.97968-3.48256-18.54147.20914-3.43179 2.2779-5.98547 5.97443-7.07469 10.24085-1.70405 6.67468 1.37609 14.30366 7.33 18.15513 5.10658 3.30335 11.72054 3.56225 17.22037.67408 4.07776-2.14139 7.6863-6.90713 8.57666-11.3271.67526-3.35209.93398-3.29012 1.89132.45306.75835 2.96513 2.71265 7.24441 4.51288 9.88174 1.40487 2.05814 1.44298 2.81586.14162 2.81586-2.10604 0-4.42339 1.89988-5.61905 4.60679-.76271 1.72672-.91968 4.81255-.32423 6.37404.66189 1.73575.47549 2.06517-1.81649 3.21038-3.24769 1.62273-5.4353 2.27745-6.01159 1.79917-.25762-.21381-.46841-.56684-.46841-.78451 0-.76502-2.65884-3.40544-4.28053-4.25087-1.31166-.68381-2.08736-.85674-3.87947-.86486-3.72287-.0169-6.34655 1.6124-8.33629 5.1767-.65705 1.177-1.38591 1.5297-2.38371 1.15349zm-165.42295-.58931c-13.49882-2.44272-21.98134-14.18188-20.50695-28.38006.68708-6.61647 3.10262-11.73625 7.69077-16.30073 2.31728-2.30532 3.28844-3.01447 5.79163-4.22916 4.05674-1.96856 6.58322-2.52706 11.32749-2.50403 11.87368.05763 19.9761 6.55017 23.07255 18.48821.66915 2.57983.8332 4.00099.87545 7.58402.0426 3.61025-.035 4.46469-.428 4.7151-.28901.18414-7.06881.30777-17.04.31072l-16.56.005v.6752c0 1.06463 1.9082 4.36813 3.15599 5.46371.62415.548 1.93338 1.37093 2.90941 1.82873 1.602.7514 2.13253.83014 5.4546.80957 4.41817-.0273 6.2859-.62988 9.50478-3.06625 1.15042-.87074 2.27747-1.53992 2.50457-1.48707.83724.19487 7.83065 6.70404 7.83065 7.28844 0 .74925-3.71492 4.17096-6.10408 5.62229-5.27139 3.20221-12.6695 4.40861-19.47886 3.1764zM136.79628 104.56c-.37949-1.83931-1.75686-4.5256-2.973-5.79825-1.86136-1.94783-3.8965-2.7555-6.94328-2.7555-3.13258 0-5.16135.8293-6.98943 2.85704-1.35101 1.49857-3.08992 4.88415-3.09031 6.01671l-.00026.72h20.21086zM18.31846 134.77527c-.3186-.20228-.3847-6.92644-.32-32.5551L18.08 69.92l24.28478-.08202c17.67464-.0597 24.40324.0163 24.72.27919.33794.28047.43522 1.6698.43522 6.21585 0 3.22005-.0874 6.08242-.19423 6.36081-.1738.45289-2.0063.50618-17.40577.50618-15.39946 0-17.23198.05329-17.40576.50617-.2532.65983-.2532 11.44783 0 12.10766.17328.45157 1.80845.50617 15.16082.50617 12.32953 0 15.0311.07775 15.3328.44127.25414.30622.3396 2.33851.27919 6.64L63.2 109.6l-15.01107.0832c-10.43476.0578-15.14183.19173-15.44.43918-.34473.2861-.42893 2.72883-.42893 12.44257 0 10.72619-.05697 12.10845-.50618 12.28082-.75433.28947-13.0294.22534-13.49536-.0705zm59.52-.00001c-.3186-.20227-.3847-6.89444-.32-32.3951L77.6 70.24l7.0811-.08602 7.0811-.08602.19453.72602c.3549 1.32455.23092 62.95644-.128 63.62706-.31127.58163-.73113.61867-6.96.61407-3.6458-.003-6.80943-.11963-7.03028-.25985zm76.84072-.20626c-.11037-.28762 3.02548-5.10504 8.05372-12.37247 4.52895-6.54581 8.29886-12.14773 8.37757-12.44872.0895-.34229-2.87293-4.94442-7.91001-12.28812-4.83407-7.04771-7.98175-11.92687-7.87456-12.2062.15047-.39212 1.34977-.4518 7.62383-.3794l7.44527.08592 4.43922 6.9562c2.44156 3.8259 4.55434 6.88504 4.69505 6.79807.14071-.08696 1.84459-2.64515 3.78639-5.68486 1.94181-3.0397 3.97305-6.13759 4.51388-6.88418l.98333-1.35744 7.11357.0861c6.88727.08337 7.11302.10654 7.09649.72857-.009.35336-3.58229 5.80633-7.93977 12.1177-4.35749 6.31137-7.8574 11.63826-7.77759 11.83753.0798.19927 3.12734 4.68231 6.77229 9.96231 10.3376 14.97486 10.27725 14.88063 9.745 15.21736-.61655.39007-13.94644.38745-14.67578-.003-.31398-.16803-2.6176-3.47715-5.11917-7.3536-2.50157-3.87645-4.66294-7.11893-4.80304-7.20552-.14011-.0866-2.25502 2.94444-4.6998 6.73561-2.44479 3.79117-4.70267 7.17114-5.01753 7.51103-.53224.57457-1.06695.618-7.61004.618-5.90072 0-7.06678-.0761-7.21832-.47101zm74.52277.20842c-.31081-.19738-.41602-5.82484-.48-25.6751l-.0819-25.42232-9.53202-.16c-8.00389-.13435-9.58061-.23695-9.8351-.64-.1667-.264-.30529-3.16236-.30798-6.44081-.004-4.6389.0916-6.04089.43012-6.32186.31705-.26313 7.62895-.33884 26.96001-.27919l26.52497.08186.0868 6.53691c.0666 5.01584-.008 6.59699-.32 6.7951-.22375.142-4.61881.2604-9.76681.2631l-9.36.0049V108.896c0 19.31023-.0918 25.4678-.384 25.76001-.44088.44087-13.25518.55253-13.93406.12141zm156.43569-.17207c-.26355-.31756-.33876-9.04634-.27918-32.4l.0815-31.96535 7.01716-.0864c5.4002-.06649 7.0766.0072 7.2751.32.39806.62717.33591 63.20111-.0635 63.94744-.31124.58156-.73432.61897-7.00081.61897-5.2289 0-6.74748-.0939-7.0303-.43466zm-90.30269-27.17296c-1.71747-1.1574-2.53494-2.62547-2.53494-4.55239 0-3.09 2.25637-5.28 5.44-5.28 3.18363 0 5.44 2.19 5.44 5.28 0 3.09-2.25637 5.28-5.44 5.28-1.36872 0-2.09546-.18202-2.90506-.72761zm49.14506.12899c-2.29127-1.42305-3.28164-3.61106-2.68818-5.93896.65117-2.55426 2.63348-4.01935 5.44086-4.02122 1.33368-.00089 2.06354.18315 2.85058.7188 1.86001 1.26592 2.39674 2.28709 2.39674 4.56 0 2.27292-.53673 3.29409-2.39674 4.56-1.37346.93477-4.19519.9959-5.60326.12138zM17.82522 52.91856c-.12387-.12387-.22522-7.5276-.22522-16.4527 0-13.56007.07404-16.28894.4504-16.6013.27925-.23175 1.34322-.33784 2.8-.27918L23.2 19.68v33.28l-2.57478.0919c-1.41613.05053-2.67613-.0095-2.8-.13334zm12.4065-.18553C30.1447 52.50585 30.11098 44.976 30.15677 36L30.24 19.68l5.92-.08985c9.06967-.13766 12.16054.57564 14.82153 3.42046 1.8756 2.00515 2.77847 4.45863 2.77847 7.55021 0 4.94603-2.35296 8.58457-6.32 9.77305-.748.2241-1.36.51973-1.36.65697 0 .13724 1.59552 2.77355 3.54561 5.85846 1.95009 3.08491 3.4536 5.75783 3.34112 5.93982-.11447.1852-1.38372.33089-2.88289.33089h-2.67838L45.9705 50.8c-4.4281-7.15913-7.54616-12.50047-7.41816-12.70758.08018-.12973 1.29515-.32451 2.69993-.43284 3.1392-.24208 4.49048-.7801 5.59446-2.2275 2.4096-3.15914 1.49782-8.17688-1.79416-9.87377-1.18094-.60872-1.90863-.71104-5.21255-.7329L36 24.8l-.16 14.08-.16 14.08-2.64505.09302c-1.93496.06805-2.68751-.01786-2.80324-.32zm28.39228.003c-.55346-.55347-.55346-32.27854 0-32.832.54763-.54763 17.88438-.54763 18.432 0 .39828.39828.53036 3.34225.18977 4.22982-.16782.43733-1.0329.50617-6.36082.50617-4.87543 0-6.24391.09317-6.5359.445-.24676.29733-.3394 1.75735-.27918 4.4l.09013 3.955 6.4.16 6.4.16v4.8l-6.4.16-6.4.16v8.96l6.21577.08711c3.92456.055 6.37215.2169 6.64.43919.53846.44687.5697 3.84025.04023 4.36971-.54762.54762-17.88437.54762-18.432 0zm24.77024-.1222c-.10683-.2784-.19424-7.6656-.19424-16.416 0-11.94765.09563-16.00546.384-16.29383.57448-.57448 4.57317-.50112 5.16913.09484.26336.26336 3.5361 4.97936 7.27277 10.48 3.73667 5.50064 7.31148 10.71767 7.94402 11.5934l1.15008 1.59223.16-11.99223.16-11.99224h5.12v33.28H105.50551l-8.08-11.78246c-4.444-6.48036-8.20273-11.77194-8.35275-11.75907-.15002.01287-.2207 5.04244-.15707 11.17682.08273 7.9759.01115 11.34875-.25126 11.83906-.32405.6055-.6422.68565-2.72145.68565-1.8518 0-2.39598-.10807-2.54874-.50617zM115.2 52.49938c0-.54649 12.19063-30.60282 13.10601-32.31323.31148-.58201.65327-.66615 2.70607-.66615 1.50341 0 2.45956.14405 2.65501.4.66711.87361 13.25817 32.5479 13.06352 32.86284-.11929.19301-1.36006.33716-2.90211.33716-3.16616 0-2.94468.2105-4.80429-4.56608l-1.21704-3.12609-6.90359.08608L124 45.6l-1.3367 3.36c-.73519 1.848-1.49686 3.54-1.69262 3.76-.23173.26044-1.30054.4-3.06329.4-2.46587 0-2.70739-.05536-2.70739-.62061zm20.60939-12.12984c.18213-.2947-4.38111-12.42927-4.85063-12.89878-.30492-.30492-5.24483 12.5034-4.98655 12.92924.2018.33273 9.63076.30353 9.83718-.03046z"/><path fill="#5fcaf1" d="M286.71125 135.22124c-2.33065-.81579-4.21419-1.72074-4.50016-2.16211-.1039-.16037.0117-1.04028.25698-1.95535 1.85237-6.91194-4.99838-13.50182-11.74295-11.29578-.89723.29347-1.78818.43663-1.97989.31815-.50762-.31373-2.84095-5.4151-3.04117-6.64894-.15168-.93468-.0647-1.09587.78033-1.44588 1.46478-.60673 3.58626-2.82847 4.42895-4.63823 1.05232-2.25999 1.05734-5.47829.012-7.7131-.83784-1.79125-3.25107-4.18795-4.73915-4.7067-.89676-.3126-.96566-.43837-.82297-1.50214.14343-1.06939 1.7827-5.35219 2.45012-6.40128.24252-.3812.58535-.38667 2.23906-.03573 4.58496.973 8.83397-.9682 10.71672-4.89603 1.121-2.33866 1.31523-4.20097.6919-6.63407-.43509-1.69829-.44904-2.0932-.0868-2.45547.52728-.52728 6.12419-2.96858 6.80575-2.96858.26936 0 .73504.4558 1.03485 1.01287 3.11706 5.7917 10.37099 6.98096 14.99183 2.45787.7297-.71426 1.58452-1.87037 1.89962-2.56912.54804-1.21534.62239-1.2613 1.71329-1.0591 1.308.24245 5.40285 1.89087 6.2673 2.52297.52804.38611.54305.56167.16387 1.91596-.52292 1.86768-.28938 5.1316.4726 6.6051.31218.6037 1.61874 2.13859 2.90346 3.41086 5.03077 4.98203 7.72669 9.87935 9.54108 17.33196 1.22225 5.02043 2.85641 8.09481 6.1328 11.53773 4.7404 4.98135 8.40728 6.75291 13.97761 6.75291 4.74513 0 8.51234-1.44035 11.68709-4.46843 3.4985-3.33686 5.20658-7.01185 5.44077-11.706.26658-5.3433-1.22184-9.18306-5.02066-12.9521-3.80774-3.77787-6.99927-5.11348-12.21906-5.11348-4.31352 0-8.0534 1.41646-11.41844 4.32465-2.39896 2.07327-4.82436 6.26927-5.36142 9.27535-.38485 2.15413-.68559 2.37026-1.09409.78629-1.09769-4.25634-2.53625-7.6288-4.64394-10.88696-.79673-1.2316-1.44859-2.3788-1.44859-2.5493 0-.17052.396-.31319.88-.31705 1.33868-.0107 3.3604-1.05638 4.38385-2.26744 2.12026-2.50891 2.83317-5.72725 1.94526-8.78156-.53835-1.85184-.53639-1.8918.11882-2.42236.7134-.57767 4.74092-2.3286 6.18768-2.69004.76007-.18989.95008-.08067 1.44.8277 1.52352 2.8248 4.38088 4.83599 7.49347 5.27438 2.97412.4189 7.07385-1.4956 8.59306-4.01282.43882-.7271 1.03347-1.6322 1.32143-2.01134l.52357-.68934 1.87643.58878c1.03204.32384 2.71938 1.01292 3.74965 1.5313 1.72714.86901 1.85735 1.00947 1.66972 1.80114-.11193.47224-.28515 1.79462-.38495 2.93862-.565 6.47685 6.10085 11.6288 12.20201 9.43078.704-.25363 1.38593-.4633 1.5154-.46596.43689-.0089 3.4446 6.5882 3.4446 7.55545 0 .05504-.77502.59584-1.72228 1.2018-2.80221 1.79255-4.2775 4.1614-4.56313 7.32696-.326 3.61298 1.54989 7.03891 4.88476 8.92099.94636.53409 1.72065 1.07611 1.72065 1.20448 0 .51316-1.55501 4.76282-2.2191 6.06454-.65714 1.28811-.77981 1.37347-1.72419 1.19982-3.03924-.55886-4.33663-.57592-6.04425-.0795-2.10769.61272-4.73272 2.80274-5.75898 4.80462-.89332 1.74256-1.12983 5.30044-.47683 7.17299.45204 1.29627.44317 1.41144-.15138 1.96535-.6958.64824-4.90549 2.49773-6.33668 2.78397-.79645.15929-.97166.044-1.44329-.94992-1.99294-4.1998-7.82533-6.36157-12.05303-4.46744-1.77627.79581-3.83504 2.77316-4.7455 4.5578-.36288.7113-.87228 1.29328-1.132 1.29328-1.22165 0-6.79854-2.2785-7.23369-2.95541-.10941-.17019.009-.97885.26317-1.79702 1.09226-3.51622-.24603-7.18617-3.75494-10.29705-4.90845-4.35168-8.35964-10.73905-9.55915-17.69187-.75549-4.37913-2.97589-8.31004-6.61895-11.71794-4.4117-4.12693-7.38951-5.48823-12.48975-5.70964-5.28055-.22924-9.30711 1.33247-12.92146 5.01163-3.1168 3.17268-5.10889 7.86634-5.10889 12.03729 0 5.37991 3.2246 11.32984 7.77841 14.35249 5.18429 3.44114 12.55546 3.72765 17.97198.69856 4.20047-2.34904 7.47148-6.95077 8.62747-12.13733.27832-1.24872.5953-.79916 1.44281 2.04628.94279 3.16533 2.1787 5.8458 3.97745 8.62639 1.61805 2.50125 1.7412 2.89275.91077 2.8954-2.2173.007-4.56846 1.71631-5.93994 4.31822-.73718 1.39854-.94838 5.19771-.428 7.69911l.27026 1.29911-2.8972 1.34609c-1.59346.74036-3.32449 1.43156-3.84674 1.53601-.85397.17079-1.01369.0656-1.58685-1.04521-1.56843-3.03967-4.88373-5.03274-8.37153-5.03274-3.50151 0-6.2778 1.65677-8.05591 4.80741-.58146 1.03029-1.17568 1.70075-1.49464 1.6864-.2912-.0131-1.46939-.35283-2.61821-.75495zm-163.67125.092c-9.79329-1.80688-17.25278-8.62813-19.7205-18.03322-.81103-3.09102-.97719-10.07538-.31213-13.12001 2.0772-9.5094 8.96412-16.9005 17.95263-19.26692 2.83505-.74639 9.26129-.73643 12.32.0191 4.04671.99956 7.32437 2.84572 10.23871 5.76699 2.17745 2.18263 2.86107 3.14111 4.25146 5.96083.91293 1.85143 1.95302 4.58123 2.31656 6.08.83331 3.43555 1.246 10.94172.6416 11.66997-.35573.42863-2.50687.49004-17.16751.49004H116.8l.003.72c.006 1.289 1.53331 4.04691 3.12151 5.63511 4.38339 4.38339 12.87631 4.247 18.6276-.29914.87392-.69078 1.75369-1.25597 1.95505-1.25597.65338 0 7.65271 6.43935 7.65271 7.04045 0 .31643-.828 1.33439-1.84 2.26214-5.12183 4.69542-10.65335 6.73504-18.06651 6.66162-1.98742-.0197-4.33349-.16863-5.21349-.33099zm14.06154-29.68335c.30231-.48915-.97608-4.09833-2.03758-5.75254-1.76603-2.75213-4.47309-4.15942-8.04695-4.18329-2.78713-.01862-4.75092.69702-6.68537 2.43626-1.70127 1.52959-3.40776 4.53838-3.74192 6.59755l-.19346 1.19214h10.26299c5.79236 0 10.34109-.12638 10.44229-.29012zM18.304 134.33601c-.29354-.29354-.38284-7.81316-.3791-31.92001.0027-17.3448.11976-31.7169.26014-31.93802.20196-.31812 5.3269-.38491 24.5551-.32L67.04 70.24v12.48l-17.28.16-17.28.16v13.44l15.2.16 15.2.16.08711 6.21672c.0667 4.75957-.0083 6.27728-.32 6.4751-.2239.1421-7.1391.26058-15.3671.26327l-14.96.005v11.97383c0 6.58561-.08742 12.20161-.19424 12.48-.16846.439-1.07302.50618-6.816.50618-4.7236 0-6.73184-.11008-7.00577-.384zm59.66934.17066c-.11734-.11733-.21334-14.57393-.21334-32.12576 0-28.80477.0493-31.93135.50617-32.10667 1.0039-.38523 12.78433-.21574 13.18983.18976.29346.29346.384 7.79508.384 31.81383 0 17.28641-.0874 31.65761-.19423 31.936-.16848.43904-1.07396.50618-6.82667.50618-3.64784 0-6.72843-.096-6.84576-.21334zm77.06833-.10397c-.10786-.17453.27243-1.00253.8451-1.84.57267-.83748 4.27401-6.19772 8.22521-11.91163 3.9512-5.71391 7.24623-10.62692 7.32229-10.91778.0833-.31843-3.05097-5.16118-7.87716-12.17107-4.4085-6.40322-8.02032-11.82487-8.02628-12.04811-.008-.31889 1.57614-.38749 7.39208-.32l7.4029.0859 4.36 6.84908c2.39799 3.767 4.50269 6.863 4.67709 6.88.17441.017 1.18111-1.3003 2.23711-2.92733 1.056-1.62703 3.072-4.72303 4.48-6.88l2.56-3.92175 7.12-.08612c5.86531-.07095 7.12-.0087 7.12.35332 0 .2417-2.67752 4.31245-5.95003 9.04612-3.27252 4.73367-6.88867 10.00195-8.03589 11.70728l-2.08586 3.1006 3.03182 4.4194c1.6675 2.43067 5.49684 8.00171 8.50963 12.38009s5.40012 8.08638 5.30518 8.24c-.0949.15362-3.4084.27931-7.36324.27931H189.101l-2.94778-4.56c-4.89006-7.56459-6.77883-10.32-7.07408-10.32-.15447 0-2.27026 3.07558-4.70175 6.83463-2.43148 3.75905-4.66741 7.10705-4.96873 7.44-.50471.5577-1.08415.60537-7.35937.60537-4.15734 0-6.88793-.12365-7.00762-.31731zm74.09298-.29534c-.22471-.41987-.33464-8.88423-.33464-25.76632V83.2l-9.36-.0049c-5.148-.0027-9.5432-.12117-9.76711-.26327-.31169-.19782-.38669-1.71553-.32-6.4751L209.44 70.24l26.53996-.08186c21.02036-.06484 26.59303.0017 26.7951.32.14033.22103.25734 3.01223.26004 6.20268.004 4.44972-.0945 5.88333-.42196 6.15508-.28537.23684-3.54717.38242-9.84.43919L243.36 83.36 243.2 108.96l-.16 25.60001-6.78536.0863c-6.45174.0821-6.80181.0556-7.12-.53897zm156.68489.4055c-.12074-.12073-.21953-14.58012-.21953-32.13195 0-28.80477.0493-31.93135.50617-32.10667 1.02718-.39417 12.46516-.21362 13.03535.20576.50643.3725.53815 2.59.46116 32.24l-.0827 31.84001-6.74047.0862c-3.70727.0474-6.83927-.0126-6.96-.13334zm-89.28987-26.81962c-1.64159-.58531-2.64226-1.57824-3.28399-3.2586-.70873-1.85577-.18611-3.8743 1.35296-5.22563 2.94992-2.59007 7.23239-1.55817 8.62076 2.07724.47071 1.23252.4899 1.62622.14016 2.87537-.47691 1.70333-1.97669 3.16647-3.7508 3.65914-1.49425.41496-1.56594.41199-3.07909-.12752zm49.00117.0845c-1.5117-.4019-3.34172-2.3907-3.63415-3.94947-.67549-3.60068 2.96645-6.88215 6.56325-5.91363 2.43821.65654 3.9134 2.5283 3.9134 4.9654 0 2.32613-1.21487 4.01134-3.47215 4.81638-1.41089.50319-1.75255.51144-3.37035.0813zM17.82522 52.91856c-.12387-.12387-.22522-7.5276-.22522-16.4527 0-13.56007.07404-16.28894.4504-16.6013.27925-.23175 1.34322-.33784 2.8-.27918L23.2 19.68v33.28l-2.57478.0919c-1.41613.05053-2.67613-.0095-2.8-.13334zm12.4065-.18553C30.1447 52.50585 30.11098 44.976 30.15677 36L30.24 19.68l5.92-.08985c9.06967-.13766 12.16054.57564 14.82153 3.42046 1.8756 2.00515 2.77847 4.45863 2.77847 7.55021 0 4.94603-2.35296 8.58457-6.32 9.77305-.748.2241-1.36.51973-1.36.65697 0 .13724 1.59552 2.77355 3.54561 5.85846 1.95009 3.08491 3.4536 5.75783 3.34112 5.93982-.11447.1852-1.38372.33089-2.88289.33089h-2.67838L45.9705 50.8c-4.4281-7.15913-7.54616-12.50047-7.41816-12.70758.08018-.12973 1.29515-.32451 2.69993-.43284 3.1392-.24208 4.49048-.7801 5.59446-2.2275 2.4096-3.15914 1.49782-8.17688-1.79416-9.87377-1.18094-.60872-1.90863-.71104-5.21255-.7329L36 24.8l-.16 14.08-.16 14.08-2.64505.09302c-1.93496.06805-2.68751-.01786-2.80324-.32zm28.39228.003c-.55346-.55347-.55346-32.27854 0-32.832.54763-.54763 17.88438-.54763 18.432 0 .39828.39828.53036 3.34225.18977 4.22982-.16782.43733-1.0329.50617-6.36082.50617-4.87543 0-6.24391.09317-6.5359.445-.24676.29733-.3394 1.75735-.27918 4.4l.09013 3.955 6.4.16 6.4.16v4.8l-6.4.16-6.4.16v8.96l6.21577.08711c3.92456.055 6.37215.2169 6.64.43919.53846.44687.5697 3.84025.04023 4.36971-.54762.54762-17.88437.54762-18.432 0zm24.77024-.1222c-.10683-.2784-.19424-7.6656-.19424-16.416 0-11.94765.09563-16.00546.384-16.29383.57448-.57448 4.57317-.50112 5.16913.09484.26336.26336 3.5361 4.97936 7.27277 10.48 3.73667 5.50064 7.31148 10.71767 7.94402 11.5934l1.15008 1.59223.16-11.99223.16-11.99224h5.12v33.28H105.50551l-8.08-11.78246c-4.444-6.48036-8.20273-11.77194-8.35275-11.75907-.15002.01287-.2207 5.04244-.15707 11.17682.08273 7.9759.01115 11.34875-.25126 11.83906-.32405.6055-.6422.68565-2.72145.68565-1.8518 0-2.39598-.10807-2.54874-.50617zM115.2 52.49938c0-.54649 12.19063-30.60282 13.10601-32.31323.31148-.58201.65327-.66615 2.70607-.66615 1.50341 0 2.45956.14405 2.65501.4.66711.87361 13.25817 32.5479 13.06352 32.86284-.11929.19301-1.36006.33716-2.90211.33716-3.16616 0-2.94468.2105-4.80429-4.56608l-1.21704-3.12609-6.90359.08608L124 45.6l-1.3367 3.36c-.73519 1.848-1.49686 3.54-1.69262 3.76-.23173.26044-1.30054.4-3.06329.4-2.46587 0-2.70739-.05536-2.70739-.62061zm20.60939-12.12984c.18213-.2947-4.38111-12.42927-4.85063-12.89878-.30492-.30492-5.24483 12.5034-4.98655 12.92924.2018.33273 9.63076.30353 9.83718-.03046z"/><path fill="#a2a2a2" d="M286.56001 134.7566c-4.17868-1.68151-4.08329-1.60843-3.78393-2.89886.14516-.62576.25618-2.14573.24672-3.37773-.0206-2.68523-.92376-4.69668-3.05363-6.80103-2.39538-2.36667-6.39113-3.28025-9.51949-2.1765-1.2743.4496-1.32851.43995-1.94725-.34665-.60685-.77148-2.58242-5.49847-2.58242-6.179 0-.1781.54982-.60432 1.22183-.94715 4.33404-2.21106 6.25677-8.0893 4.10872-12.56131-.93598-1.9486-2.75154-3.80446-4.57034-4.67178-1.35264-.64504-1.33251-.98228.29776-4.98893 1.01236-2.48802 1.10418-2.60369 2.00153-2.52112 4.97253.45754 5.09384.4534 6.93121-.23734 4.68934-1.76289 7.39255-7.2237 5.87404-11.86627-.29746-.90943-.4938-1.70055-.43631-1.75804.24806-.24805 4.06613-2.0263 5.50967-2.5661 1.07618-.40243 1.61588-.4768 1.69687-.23385.36527 1.09581 2.25652 3.43493 3.40172 4.20728 2.07289 1.39801 3.38832 1.80778 5.8033 1.80778 1.80764 0 2.59356-.17362 4.07176-.8995 1.89393-.93003 3.77422-2.79781 4.66926-4.6382.59502-1.22346.65883-1.21936 4.58458.29457 2.95998 1.14148 3.29826 1.46915 2.8125 2.72421-.53237 1.37546-.46858 4.24216.13445 6.04312.4111 1.22775 1.20441 2.28612 3.43964 4.5889 4.92631 5.07516 7.92229 10.4842 9.25107 16.70216 1.17491 5.49792 3.5426 9.67678 7.61433 13.4389 4.32185 3.99323 8.00475 5.55779 13.02241 5.53215 4.98255-.0255 8.59795-1.52703 12.19841-5.0663 3.58521-3.52428 5.24159-7.4146 5.24159-12.31085 0-5.17346-1.59147-8.99468-5.26813-12.64916-3.96082-3.9369-8.95618-5.65171-14.43888-4.95657-6.82657.86552-12.15182 5.30796-14.56919 12.15392L329.67542 100l-.66841-2.24c-.77248-2.58876-2.81075-6.93062-4.20462-8.95654-.52931-.76932-.96238-1.53398-.96238-1.69924 0-.16526.50991-.38322 1.13312-.48436 4.34971-.70586 7.41887-6.87517 5.75031-11.5587-.24666-.69236-.36425-1.39512-.26131-1.56168.22747-.36804 5.04913-2.64917 6.2097-2.9378.71286-.17729.89016-.066 1.23985.7782.6314 1.52434 2.76286 3.51647 4.75861 4.44754 4.58818 2.14052 10.18823.23532 12.56226-4.27382.88148-1.67425.79503-1.67193 4.7623-.12756 3.38692 1.31844 3.32274 1.25833 2.91421 2.7297-1.74741 6.29342 2.81583 12.59106 9.13072 12.60114 1.07787.0017 2.54382-.20294 3.25766-.4548 1.23967-.43738 1.31886-.42592 1.76527.25539.71665 1.09373 2.4573 5.31747 2.4573 5.96268 0 .33818-.66149.99762-1.61357 1.60856-6.05116 3.88302-5.849 12.68107.37972 16.52566l1.82187 1.12452-.48252 1.6248c-.26538.89365-.86568 2.4284-1.334 3.41056-.73724 1.54614-.95884 1.77141-1.6515 1.67881-.44-.0588-2.024-.12909-3.52-.15616-3.04254-.055-4.41357.45746-6.66495 2.49144-2.0143 1.8198-2.77615 3.71632-2.76846 6.89167.004 1.496.12753 3.17751.27534 3.7367.26057.98573.21914 1.04184-1.3598 1.84195-.89571.45389-2.45314 1.13376-3.46095 1.51084-1.73325.64849-1.85047.65513-2.16678.1227-3.19518-5.3783-8.41644-7.28404-13.24828-4.83557-1.63587.82896-3.83305 3.01372-4.68213 4.65566-.61751 1.19412-.86425 1.17536-4.48399-.34094-3.32822-1.39419-3.1861-1.22841-2.71966-3.17276.5054-2.10676.24796-4.72359-.64646-6.57124-.38889-.80332-2.17693-2.92446-4.10165-4.86575-4.80008-4.84139-7.05327-9.04115-8.41984-15.69385-1.17063-5.69887-2.82703-8.7431-6.90091-12.68298-4.37408-4.2302-8.29406-5.99338-13.37948-6.01804-1.81215-.0088-3.60028.19054-4.80001.53505-8.78502 2.5227-14.40851 11.6262-12.60316 20.40247.19185.93267.92362 2.89956 1.62615 4.37088 4.16702 8.72712 14.81958 12.31923 23.52794 7.93376 4.1368-2.08325 7.61312-6.10516 8.96234-10.36889.29239-.924.61945-1.68.72681-1.68.10735 0 .37758.684.6005 1.52.51938 1.94776 2.89372 6.97059 4.17625 8.83469.54515.79234.99118 1.56482.99118 1.7166 0 .15179-.68295.45864-1.51767.68189-1.95445.52274-4.25006 2.82693-4.99524 5.01392-.61902 1.81671-.68484 4.83213-.14482 6.63454.46117 1.53926.33127 1.66838-3.12651 3.10786-3.33437 1.3881-3.41267 1.38039-4.65887-.45885-2.89869-4.27811-8.04748-5.75493-12.39077-3.55402-1.62475.82333-3.83176 3.01122-4.6672 4.62678-.28344.54813-.69166.99164-.90714.98558-.21548-.006-1.39978-.41663-2.63178-.91239zm-163.77503.095c-9.82446-1.77572-16.96633-8.65313-19.29291-18.57851-.76675-3.27102-.48694-11.27946.5015-14.3531 3.81169-11.8528 13.68958-18.3692 25.926-17.10323 10.30049 1.06568 17.21732 7.44708 19.85358 18.31672.86792 3.57856 1.22053 10.48102.56328 11.02649-.36014.29889-4.53203.41431-17.24574.47714l-16.77069.0829.0672.93051c.0369.51178.42604 1.66378.86466 2.56 3.60568 7.36729 14.01134 8.8224 21.54218 3.0124 1.52033-1.17293 1.75689-1.26211 2.25238-.84916 2.14078 1.78422 6.65478 5.87305 6.75099 6.11513.20744.52195-3.24691 3.74833-5.55737 5.19061-5.20914 3.25177-12.46701 4.43516-19.45502 3.17211zm14.52255-28.83083c.96496-.96573-1.32808-6.20454-3.6162-8.26175-1.9398-1.74405-3.84471-2.39903-6.97722-2.39903-4.25875 0-7.34993 2.06945-9.42679 6.31096-1.17826 2.40632-1.44334 4.4464-.60546 4.65968.32898.0837 5.01908.1336 10.42245.11081 7.09724-.0299 9.92948-.14671 10.20322-.42067zm-118.5342 28.1659c-.11733-.11733-.21333-14.51733-.21333-32V70.4h48.32v12.16H32.30416l-.31208.82084c-.4783 1.25804-.40335 12.37356.08792 13.03713.364.49167 1.75372.54758 15.44.62117l15.04.08087.08706 5.99999.08706 6-14.96706.005c-8.86536.003-15.16274.12852-15.44706.30812-.41048.25929-.49316 2.08936-.57088 12.6351l-.09088 12.33189h-6.33579c-3.48468 0-6.43179-.096-6.54912-.21334zm59.52644.006c-.12087-.12087-.21977-14.45469-.21977-31.85293V70.70702l6.64.08649 6.64.08649V134.24l-6.42023.0864c-3.53113.0475-6.51913-.0125-6.64-.13333zm77.22023-.14864c0-.19579 3.67201-5.65998 8.16001-12.14265 4.488-6.48267 8.16-12.0586 8.16-12.39097 0-.33237-.54486-1.38418-1.2108-2.33735-1.231-1.76196-2.18368-3.1461-10.03868-14.58508-2.43679-3.54861-4.43052-6.61142-4.43052-6.80624 0-.25074 2.03222-.32902 6.95642-.26798l6.95642.08624 4.39389 6.88c2.99688 4.69255 4.57308 6.88 4.95748 6.88.38322 0 1.87053-2.0483 4.64718-6.4 2.24597-3.52 4.2993-6.652 4.56296-6.96.4274-.49927 1.18533-.56 6.98918-.56 3.58039 0 6.60094.09114 6.71233.20253.20471.2047-.29528.954-10.09099 15.12281-2.99432 4.33106-5.51419 8.05578-5.59973 8.27714-.19365.50116-.54641-.0421 8.59603 13.23738 4.19546 6.09393 7.71792 11.31393 7.8277 11.6.18048.47031-.46347.52015-6.72123.52015h-6.92083l-.95085-1.36c-.52297-.748-2.71989-4.09478-4.88204-7.43728-2.16216-3.34251-4.1521-6.11983-4.42211-6.17183-.33213-.064-1.97358 2.21205-5.07523 7.03728-2.52137 3.92251-4.8081 7.31183-5.08161 7.53183-.66731.53674-13.49498.57859-13.49498.044zm74.13978.14908c-.12088-.12087-.21977-11.48799-.21977-25.26027 0-13.77227-.0874-25.26827-.19424-25.54666-.17091-.44539-1.31424-.50676-9.52-.51108-5.12917-.0027-9.50911-.12126-9.7332-.26348-.31117-.19748-.38678-1.65181-.32-6.1551l.0874-5.89652 26.32691-.08186 26.32692-.08186-.0869 6.16186-.0869 6.16187-9.6.16-9.6.16-.16 25.59999-.16 25.60001-6.42023.0864c-3.53113.0475-6.51913-.0125-6.64-.13333zm156.48 0c-.12087-.12087-.21977-14.45469-.21977-31.85293V70.70702l6.64.08649 6.64.08649V134.24l-6.42023.0864c-3.53113.0475-6.51913-.0125-6.64-.13333zm-89.5828-26.81049c-1.64125-.58566-2.1574-1.06898-2.87844-2.69538-1.95402-4.40753 3.13687-8.37824 7.41005-5.77956 1.30855.79577 2.40879 3.14289 2.13996 4.56509-.3156 1.66955-1.38582 3.08089-2.83515 3.73881-1.59047.72199-2.2145.74981-3.83642.17104zm49.07657.12473c-.42155-.1766-.83468-.25287-.91806-.1695-.22943.22944-2.31548-2.3725-2.31548-2.88812 0-.24735-.1242-.44973-.27599-.44973-.33922 0-.22402-1.20495.25353-2.65195 1.06988-3.24177 5.27056-4.30592 8.19089-2.07499 1.1048.844 1.19999 1.08753 1.34739 3.44694.17777 2.84552-1.29813 4.54987-4.28223 4.94507-.67847.0899-1.5785.0189-2.00005-.15772zM17.82522 52.91855c-.12387-.12387-.22522-7.52758-.22522-16.4527 0-13.56006.07404-16.28893.4504-16.60128.27925-.23176 1.34322-.33785 2.8-.27919L23.2 19.68v33.28l-2.57478.0919c-1.41613.05053-2.67613-.0095-2.8-.13334zm12.4065-.18553C30.1447 52.50587 30.11098 44.976 30.15677 36L30.24 19.68l5.92-.08985c9.06967-.13766 12.16054.57564 14.82153 3.42046 1.8756 2.00515 2.77847 4.45863 2.77847 7.55021 0 4.94603-2.35296 8.58457-6.32 9.77305-.748.2241-1.36.51973-1.36.65697 0 .13724 1.59552 2.77355 3.54561 5.85846 1.95009 3.08491 3.4536 5.75783 3.34112 5.93982-.11447.1852-1.38372.33089-2.88289.33089h-2.67838L45.9705 50.8c-4.4281-7.15913-7.54616-12.50047-7.41816-12.70758.08018-.12973 1.29515-.32451 2.69993-.43284 3.1392-.24208 4.49048-.7801 5.59446-2.2275 2.4096-3.15914 1.49782-8.17688-1.79416-9.87377-1.18094-.60872-1.90863-.71104-5.21255-.7329L36 24.8l-.16 14.08-.16 14.08-2.64505.09302c-1.93496.06805-2.68751-.01786-2.80324-.32zm28.39228.003c-.55346-.55346-.55346-32.27853 0-32.832.54763-.54762 17.88438-.54762 18.432 0 .39828.39829.53036 3.34226.18977 4.22983-.16782.43733-1.0329.50617-6.36082.50617-4.87543 0-6.24391.09317-6.5359.445-.24676.29733-.3394 1.75735-.27918 4.4l.09013 3.955 6.4.16 6.4.16v4.8l-6.4.16-6.4.16v8.96l6.21577.08711c3.92456.055 6.37215.2169 6.64.43919.53846.44687.5697 3.84025.04023 4.36971-.54762.54762-17.88437.54762-18.432 0zm24.77024-.12219c-.10683-.2784-.19424-7.6656-.19424-16.416 0-11.94765.09563-16.00546.384-16.29383.57448-.57448 4.57317-.50112 5.16913.09484.26336.26336 3.5361 4.97936 7.27277 10.48 3.73667 5.50064 7.31148 10.71767 7.94402 11.5934l1.15008 1.59223.16-11.99223.16-11.99224h5.12v33.28H105.50551l-8.08-11.78246c-4.444-6.48036-8.20273-11.77194-8.35275-11.75907-.15002.01287-.2207 5.04244-.15707 11.17682.08273 7.9759.01115 11.34875-.25126 11.83906-.32405.6055-.6422.68565-2.72145.68565-1.8518 0-2.39598-.10807-2.54874-.50617zM115.2 52.49938c0-.54649 12.19063-30.60282 13.10601-32.31323.31148-.58201.65327-.66615 2.70607-.66615 1.50341 0 2.45956.14405 2.65501.4.66711.87361 13.25817 32.5479 13.06352 32.86284-.11929.19301-1.36006.33716-2.90211.33716-3.16616 0-2.94468.2105-4.80429-4.56608l-1.21704-3.12609-6.90359.08608L124 45.6l-1.3367 3.36c-.73519 1.848-1.49686 3.54-1.69262 3.76-.23173.26044-1.30054.4-3.06329.4-2.46587 0-2.70739-.05536-2.70739-.62061zm20.60939-12.12984c.18213-.2947-4.38111-12.42927-4.85063-12.89878-.30492-.30492-5.24483 12.5034-4.98655 12.92924.2018.33273 9.63076.30353 9.83718-.03046z"/><path fill="#02aeec" d="M286.56001 134.7566c-4.17868-1.68151-4.08329-1.60843-3.78393-2.89886.14516-.62576.25618-2.14573.24672-3.37773-.0206-2.68523-.92376-4.69668-3.05363-6.80103-2.39538-2.36667-6.39113-3.28025-9.51949-2.1765-1.2743.4496-1.32851.43995-1.94725-.34665-.60685-.77148-2.58242-5.49847-2.58242-6.179 0-.1781.54982-.60432 1.22183-.94715 4.33404-2.21106 6.25677-8.0893 4.10872-12.56131-.93598-1.9486-2.75154-3.80446-4.57034-4.67178-1.35264-.64504-1.33251-.98228.29776-4.98893 1.01236-2.48802 1.10418-2.60369 2.00153-2.52112 4.97253.45754 5.09384.4534 6.93121-.23734 4.68934-1.76289 7.39255-7.2237 5.87404-11.86627-.29746-.90943-.4938-1.70055-.43631-1.75804.24806-.24805 4.06613-2.0263 5.50967-2.5661 1.07618-.40243 1.61588-.4768 1.69687-.23385.36527 1.09581 2.25652 3.43493 3.40172 4.20728 2.07289 1.39801 3.38832 1.80778 5.8033 1.80778 1.80764 0 2.59356-.17362 4.07176-.8995 1.89393-.93003 3.77422-2.79781 4.66926-4.6382.59502-1.22346.65883-1.21936 4.58458.29457 2.95998 1.14148 3.29826 1.46915 2.8125 2.72421-.53237 1.37546-.46858 4.24216.13445 6.04312.4111 1.22775 1.20441 2.28612 3.43964 4.5889 4.92631 5.07516 7.92229 10.4842 9.25107 16.70216 1.17491 5.49792 3.5426 9.67678 7.61433 13.4389 4.32185 3.99323 8.00475 5.55779 13.02241 5.53215 4.98255-.0255 8.59795-1.52703 12.19841-5.0663 3.58521-3.52428 5.24159-7.4146 5.24159-12.31085 0-5.17346-1.59147-8.99468-5.26813-12.64916-3.96082-3.9369-8.95618-5.65171-14.43888-4.95657-6.82657.86552-12.15182 5.30796-14.56919 12.15392L329.67542 100l-.66841-2.24c-.77248-2.58876-2.81075-6.93062-4.20462-8.95654-.52931-.76932-.96238-1.53398-.96238-1.69924 0-.16526.50991-.38322 1.13312-.48436 4.34971-.70586 7.41887-6.87517 5.75031-11.5587-.24666-.69236-.36425-1.39512-.26131-1.56168.22747-.36804 5.04913-2.64917 6.2097-2.9378.71286-.17729.89016-.066 1.23985.7782.6314 1.52434 2.76286 3.51647 4.75861 4.44754 4.58818 2.14052 10.18823.23532 12.56226-4.27382.88148-1.67425.79503-1.67193 4.7623-.12756 3.38692 1.31844 3.32274 1.25833 2.91421 2.7297-1.74741 6.29342 2.81583 12.59106 9.13072 12.60114 1.07787.0017 2.54382-.20294 3.25766-.4548 1.23967-.43738 1.31886-.42592 1.76527.25539.71665 1.09373 2.4573 5.31747 2.4573 5.96268 0 .33818-.66149.99762-1.61357 1.60856-6.05116 3.88302-5.849 12.68107.37972 16.52566l1.82187 1.12452-.48252 1.6248c-.26538.89365-.86568 2.4284-1.334 3.41056-.73724 1.54614-.95884 1.77141-1.6515 1.67881-.44-.0588-2.024-.12909-3.52-.15616-3.04254-.055-4.41357.45746-6.66495 2.49144-2.0143 1.8198-2.77615 3.71632-2.76846 6.89167.004 1.496.12753 3.17751.27534 3.7367.26057.98573.21914 1.04184-1.3598 1.84195-.89571.45389-2.45314 1.13376-3.46095 1.51084-1.73325.64849-1.85047.65513-2.16678.1227-3.19518-5.3783-8.41644-7.28404-13.24828-4.83557-1.63587.82896-3.83305 3.01372-4.68213 4.65566-.61751 1.19412-.86425 1.17536-4.48399-.34094-3.32822-1.39419-3.1861-1.22841-2.71966-3.17276.5054-2.10676.24796-4.72359-.64646-6.57124-.38889-.80332-2.17693-2.92446-4.10165-4.86575-4.80008-4.84139-7.05327-9.04115-8.41984-15.69385-1.17063-5.69887-2.82703-8.7431-6.90091-12.68298-4.37408-4.2302-8.29406-5.99338-13.37948-6.01804-1.81215-.0088-3.60028.19054-4.80001.53505-8.78502 2.5227-14.40851 11.6262-12.60316 20.40247.19185.93267.92362 2.89956 1.62615 4.37088 4.16702 8.72712 14.81958 12.31923 23.52794 7.93376 4.1368-2.08325 7.61312-6.10516 8.96234-10.36889.29239-.924.61945-1.68.72681-1.68.10735 0 .37758.684.6005 1.52.51938 1.94776 2.89372 6.97059 4.17625 8.83469.54515.79234.99118 1.56482.99118 1.7166 0 .15179-.68295.45864-1.51767.68189-1.95445.52274-4.25006 2.82693-4.99524 5.01392-.61902 1.81671-.68484 4.83213-.14482 6.63454.46117 1.53926.33127 1.66838-3.12651 3.10786-3.33437 1.3881-3.41267 1.38039-4.65887-.45885-2.89869-4.27811-8.04748-5.75493-12.39077-3.55402-1.62475.82333-3.83176 3.01122-4.6672 4.62678-.28344.54813-.69166.99164-.90714.98558-.21548-.006-1.39978-.41663-2.63178-.91239zm-163.77503.095c-9.82446-1.77572-16.96633-8.65313-19.29291-18.57851-.76675-3.27102-.48694-11.27946.5015-14.3531 3.81169-11.8528 13.68958-18.3692 25.926-17.10323 10.30049 1.06568 17.21732 7.44708 19.85358 18.31672.86792 3.57856 1.22053 10.48102.56328 11.02649-.36014.29889-4.53203.41431-17.24574.47714l-16.77069.0829.0672.93051c.0369.51178.42604 1.66378.86466 2.56 3.60568 7.36729 14.01134 8.8224 21.54218 3.0124 1.52033-1.17293 1.75689-1.26211 2.25238-.84916 2.14078 1.78422 6.65478 5.87305 6.75099 6.11513.20744.52195-3.24691 3.74833-5.55737 5.19061-5.20914 3.25177-12.46701 4.43516-19.45502 3.17211zm14.52255-28.83083c.96496-.96573-1.32808-6.20454-3.6162-8.26175-1.9398-1.74405-3.84471-2.39903-6.97722-2.39903-4.25875 0-7.34993 2.06945-9.42679 6.31096-1.17826 2.40632-1.44334 4.4464-.60546 4.65968.32898.0837 5.01908.1336 10.42245.11081 7.09724-.0299 9.92948-.14671 10.20322-.42067zm-118.5342 28.1659c-.11733-.11733-.21333-14.51733-.21333-32V70.4h48.32v12.16H32.30416l-.31208.82084c-.4783 1.25804-.40335 12.37356.08792 13.03713.364.49167 1.75372.54758 15.44.62117l15.04.08087.08706 5.99999.08706 6-14.96706.005c-8.86536.003-15.16274.12852-15.44706.30812-.41048.25929-.49316 2.08936-.57088 12.6351l-.09088 12.33189h-6.33579c-3.48468 0-6.43179-.096-6.54912-.21334zm59.52644.006c-.12087-.12087-.21977-14.45469-.21977-31.85293V70.70702l6.64.08649 6.64.08649V134.24l-6.42023.0864c-3.53113.0475-6.51913-.0125-6.64-.13333zm77.22023-.14864c0-.19579 3.67201-5.65998 8.16001-12.14265 4.488-6.48267 8.16-12.0586 8.16-12.39097 0-.33237-.54486-1.38418-1.2108-2.33735-1.231-1.76196-2.18368-3.1461-10.03868-14.58508-2.43679-3.54861-4.43052-6.61142-4.43052-6.80624 0-.25074 2.03222-.32902 6.95642-.26798l6.95642.08624 4.39389 6.88c2.99688 4.69255 4.57308 6.88 4.95748 6.88.38322 0 1.87053-2.0483 4.64718-6.4 2.24597-3.52 4.2993-6.652 4.56296-6.96.4274-.49927 1.18533-.56 6.98918-.56 3.58039 0 6.60094.09114 6.71233.20253.20471.2047-.29528.954-10.09099 15.12281-2.99432 4.33106-5.51419 8.05578-5.59973 8.27714-.19365.50116-.54641-.0421 8.59603 13.23738 4.19546 6.09393 7.71792 11.31393 7.8277 11.6.18048.47031-.46347.52015-6.72123.52015h-6.92083l-.95085-1.36c-.52297-.748-2.71989-4.09478-4.88204-7.43728-2.16216-3.34251-4.1521-6.11983-4.42211-6.17183-.33213-.064-1.97358 2.21205-5.07523 7.03728-2.52137 3.92251-4.8081 7.31183-5.08161 7.53183-.66731.53674-13.49498.57859-13.49498.044zm74.13978.14908c-.12088-.12087-.21977-11.48799-.21977-25.26027 0-13.77227-.0874-25.26827-.19424-25.54666-.17091-.44539-1.31424-.50676-9.52-.51108-5.12917-.0027-9.50911-.12126-9.7332-.26348-.31117-.19748-.38678-1.65181-.32-6.1551l.0874-5.89652 26.32691-.08186 26.32692-.08186-.0869 6.16186-.0869 6.16187-9.6.16-9.6.16-.16 25.59999-.16 25.60001-6.42023.0864c-3.53113.0475-6.51913-.0125-6.64-.13333zm156.48 0c-.12087-.12087-.21977-14.45469-.21977-31.85293V70.70702l6.64.08649 6.64.08649V134.24l-6.42023.0864c-3.53113.0475-6.51913-.0125-6.64-.13333zm-89.5828-26.81049c-1.64125-.58566-2.1574-1.06898-2.87844-2.69538-1.95402-4.40753 3.13687-8.37824 7.41005-5.77956 1.30855.79577 2.40879 3.14289 2.13996 4.56509-.3156 1.66955-1.38582 3.08089-2.83515 3.73881-1.59047.72199-2.2145.74981-3.83642.17104zm48.79301.0695c-1.3758-.45924-2.86318-2.18408-3.1356-3.63619-.78848-4.20296 3.57933-7.08188 7.63977-5.03553 2.89365 1.45831 2.86394 6.72987-.0464 8.23487-1.294.66915-3.20176.85611-4.45776.43685zM18.37297 52.50667c-.07313-.07333-.13297-7.38764-.13297-16.25402V20.13196l2.32.09402 2.32.09402v32l-2.18703.16c-1.20287.088-2.24687.1-2.32.02667zm12.63368-.0493c-.22675-.1386-.39523-18.68006-.28984-31.89737.0024-.30686 1.52708-.4 6.54744-.4 8.8754 0 10.98053.50237 13.41997 3.20253 1.927 2.13296 2.54267 3.8564 2.5712 7.19747.0285 3.3379-.66147 5.27369-2.58245 7.24549-1.00995 1.03666-1.8433 1.50555-4.54435 2.55692-.46415.18066-.68424.46743-.57575.75017.0966.25173 1.69923 2.85987 3.5614 5.79587 1.86218 2.936 3.3232 5.40074 3.24674 5.47721-.17369.17369-4.65724.22817-4.81424.05851-.36356-.39287-8.20619-13.48936-8.26986-13.80991-.05268-.26521.7461-.44954 2.53535-.58507 3.08095-.23337 4.31932-.84292 5.69811-2.8047.80802-1.14968.97648-1.72735 1.06867-3.66465.09258-1.94563-.009-2.52162-.65937-3.73984-.42284-.792-1.38175-1.872-2.13091-2.4-1.35274-.9534-1.39221-.96-5.73544-.96H35.68l-.08349 13.74749c-.05452 8.97731-.19892 13.86286-.41616 14.08-.34788.3477-3.65577.4665-4.1737.1499zm28.19445.07597c-.20914-.06948-.3211-5.73176-.3211-16.24V20.16h17.95054l-.09527 2-.09527 2-6.4.16-6.4.16-.08939 4.45462c-.0576 2.87057.03311 4.57743.25509 4.8.21064.2112 2.73179.40754 6.48938.50538l6.14492.16v3.52l-6.14492.16c-3.75452.09776-6.2788.29425-6.48912.50512-.22244.22303-.31268 1.97766-.25508 4.96L63.84 48.16l6.4.16 6.4.16.09527 2c.07007 1.471-.01457 2.0027-.32 2.0102-3.5978.0884-16.97703.12191-17.21417.04313zm24.9532 0c-.20016-.06794-.3143-5.96529-.3143-16.24V20.16l2.32.0032 2.32.0032 8.2661 12.15678c4.54635 6.68623 8.38865 12.15678 8.53844 12.15678.61406 0 .70113-1.88082.5909-12.7637L105.76 20.32l2.32-.09402 2.32-.09402v16.13978c0 13.2344-.0776 16.16955-.43092 16.30515-.59778.22939-4.12752-.0408-4.38674-.33579-.11652-.1326-3.7049-5.3531-7.97417-11.6011-7.993-11.69761-8.55833-12.48-9.01776-12.48-.14873 0-.2704 5.4592-.2704 12.13158v12.13157l-1.9257.10843c-1.05914.05963-2.06714.06042-2.24.0018zm33.38202-.02857l-1.98368-.18477 6.58795-16.08 6.58795-16.08h2.32149c1.56088 0 2.37249.13106 2.47711.4.0856.22 2.99816 7.42683 6.47239 16.01518 3.47423 8.58835 6.23327 15.6987 6.13121 15.80075-.26514.26514-4.79274.13655-5.03326-.14294-.11028-.12815-.80973-1.76996-1.55434-3.64848-.74461-1.87852-1.57021-3.49852-1.83466-3.6-.70784-.27162-13.32467-.21531-13.75957.0614-.20411.12988-.96874 1.74767-1.6992 3.5951-1.17661 2.97587-1.98612 4.27817-2.55087 4.10375-.0984-.03037-1.07149-.13837-2.16252-.24zM136.30801 40.24c-.021-1.25948-4.90729-13.50515-5.42857-13.60463-.35559-.06786-1.12645 1.63732-2.96399 6.55646-1.36588 3.6565-2.48162 6.90017-2.47943 7.20817.004.51122.47788.56 5.44398.56 5.43171 0 5.43999-.0011 5.42801-.72z"/><path fill="#0272a1" d="M296.55698 107.38262c-1.64125-.58566-2.1574-1.06898-2.87844-2.69538-1.95402-4.40753 3.13687-8.37824 7.41005-5.77956 1.30855.79577 2.40879 3.14289 2.13996 4.56509-.3156 1.66955-1.38582 3.08089-2.83515 3.73881-1.59047.72199-2.2145.74981-3.83642.17104zm48.79301.0695c-1.3758-.45924-2.86318-2.18408-3.1356-3.63619-.78848-4.20296 3.57933-7.08188 7.63977-5.03553 2.89365 1.45831 2.86394 6.72987-.0464 8.23487-1.294.66915-3.20176.85611-4.45776.43685zM18.37297 52.50667c-.07313-.07333-.13297-7.38764-.13297-16.25402V20.13196l2.32.09402 2.32.09402v32l-2.18703.16c-1.20287.088-2.24687.1-2.32.02667zm12.63368-.0493c-.22675-.1386-.39523-18.68006-.28984-31.89737.0024-.30686 1.52708-.4 6.54744-.4 8.8754 0 10.98053.50237 13.41997 3.20253 1.927 2.13296 2.54267 3.8564 2.5712 7.19747.0285 3.3379-.66147 5.27369-2.58245 7.24549-1.00995 1.03666-1.8433 1.50555-4.54435 2.55692-.46415.18066-.68424.46743-.57575.75017.0966.25173 1.69923 2.85987 3.5614 5.79587 1.86218 2.936 3.3232 5.40074 3.24674 5.47721-.17369.17369-4.65724.22817-4.81424.05851-.36356-.39287-8.20619-13.48936-8.26986-13.80991-.05268-.26521.7461-.44954 2.53535-.58507 3.08095-.23337 4.31932-.84292 5.69811-2.8047.80802-1.14968.97648-1.72735 1.06867-3.66465.09258-1.94563-.009-2.52162-.65937-3.73984-.42284-.792-1.38175-1.872-2.13091-2.4-1.35274-.9534-1.39221-.96-5.73544-.96H35.68l-.08349 13.74749c-.05452 8.97731-.19892 13.86286-.41616 14.08-.34788.3477-3.65577.4665-4.1737.1499zm28.19445.07597c-.20914-.06948-.3211-5.73176-.3211-16.24V20.16h17.95054l-.09527 2-.09527 2-6.4.16-6.4.16-.08939 4.45462c-.0576 2.87057.03311 4.57743.25509 4.8.21064.2112 2.73179.40754 6.48938.50538l6.14492.16v3.52l-6.14492.16c-3.75452.09776-6.2788.29425-6.48912.50512-.22244.22303-.31268 1.97766-.25508 4.96L63.84 48.16l6.4.16 6.4.16.09527 2c.07007 1.471-.01457 2.0027-.32 2.0102-3.5978.0884-16.97703.12191-17.21417.04313zm24.9532 0c-.20016-.06794-.3143-5.96529-.3143-16.24V20.16l2.32.0032 2.32.0032 8.2661 12.15678c4.54635 6.68623 8.38865 12.15678 8.53844 12.15678.61406 0 .70113-1.88082.5909-12.7637L105.76 20.32l2.32-.09402 2.32-.09402v16.13978c0 13.2344-.0776 16.16955-.43092 16.30515-.59778.22939-4.12752-.0408-4.38674-.33579-.11652-.1326-3.7049-5.3531-7.97417-11.6011-7.993-11.69761-8.55833-12.48-9.01776-12.48-.14873 0-.2704 5.4592-.2704 12.13158v12.13157l-1.9257.10843c-1.05914.05963-2.06714.06042-2.24.0018zm33.38202-.02857l-1.98368-.18477 6.58795-16.08 6.58795-16.08h2.32149c1.56088 0 2.37249.13106 2.47711.4.0856.22 2.99816 7.42683 6.47239 16.01518 3.47423 8.58835 6.23327 15.6987 6.13121 15.80075-.26514.26514-4.79274.13655-5.03326-.14294-.11028-.12815-.80973-1.76996-1.55434-3.64848-.74461-1.87852-1.57021-3.49852-1.83466-3.6-.70784-.27162-13.32467-.21531-13.75957.0614-.20411.12988-.96874 1.74767-1.6992 3.5951-1.17661 2.97587-1.98612 4.27817-2.55087 4.10375-.0984-.03037-1.07149-.13837-2.16252-.24zM136.30801 40.24c-.021-1.25948-4.90729-13.50515-5.42857-13.60463-.35559-.06786-1.12645 1.63732-2.96399 6.55646-1.36588 3.6565-2.48162 6.90017-2.47943 7.20817.004.51122.47788.56 5.44398.56 5.43171 0 5.43999-.0011 5.42801-.72z"/><path fill="#4b4b4b" d="M18.37297 52.50667c-.07313-.07333-.13297-7.38764-.13297-16.25402V20.13196l2.32.09402 2.32.09402v32l-2.18703.16c-1.20287.088-2.24687.1-2.32.02667zm12.63368-.0493c-.22675-.1386-.39523-18.68006-.28984-31.89737.0024-.30686 1.52708-.4 6.54744-.4 8.8754 0 10.98053.50237 13.41997 3.20253 1.927 2.13296 2.54267 3.8564 2.5712 7.19747.0285 3.3379-.66147 5.27369-2.58246 7.24549-1.00994 1.03666-1.84328 1.50555-4.54434 2.55692-.46415.18066-.68424.46743-.57575.75017.0966.25173 1.69923 2.85987 3.5614 5.79587 1.86218 2.936 3.3232 5.40074 3.24674 5.47721-.17369.17369-4.65724.22817-4.81424.05851-.36356-.39287-8.20619-13.48936-8.26986-13.80991-.05268-.26521.7461-.44954 2.53535-.58507 3.08095-.23337 4.31932-.84292 5.69811-2.8047.80802-1.14968.97648-1.72735 1.06867-3.66465.09258-1.94563-.009-2.52162-.65937-3.73984-.42284-.792-1.38175-1.872-2.13091-2.4-1.35274-.9534-1.39221-.96-5.73544-.96H35.68l-.08349 13.74749c-.05452 8.97731-.19892 13.86286-.41616 14.08-.34788.3477-3.65577.4665-4.1737.1499zm28.19445.07597c-.20914-.06948-.3211-5.73176-.3211-16.24V20.16h17.95054l-.09527 2-.09527 2-6.4.16-6.4.16-.08939 4.45462c-.0576 2.87057.03311 4.57743.25509 4.8.21064.2112 2.73179.40754 6.48938.50538l6.14492.16v3.52l-6.14492.16c-3.75452.09776-6.2788.29425-6.48912.50512-.22244.22303-.31268 1.97766-.25508 4.96L63.84 48.16l6.4.16 6.4.16.09527 2c.07007 1.471-.01457 2.0027-.32 2.0102-3.5978.0884-16.97703.12191-17.21417.04313zm24.9532 0c-.20016-.06794-.3143-5.96529-.3143-16.24V20.16l2.32.0032 2.32.0032 8.2661 12.15678c4.54635 6.68623 8.38865 12.15678 8.53844 12.15678.61406 0 .70113-1.88082.5909-12.7637L105.76 20.32l2.32-.09402 2.32-.09402v16.13978c0 13.2344-.0776 16.16955-.43092 16.30515-.59778.22939-4.12752-.0408-4.38674-.33579-.11652-.1326-3.7049-5.3531-7.97417-11.6011-7.993-11.69761-8.55833-12.48-9.01776-12.48-.14873 0-.2704 5.4592-.2704 12.13158v12.13157l-1.9257.10843c-1.05914.05963-2.06714.06042-2.24.0018zm33.38202-.02857l-1.98368-.18477 6.58795-16.08 6.58795-16.08h2.32149c1.56088 0 2.37249.13106 2.47711.4.0856.22 2.99816 7.42683 6.47239 16.01518 3.47423 8.58835 6.23327 15.6987 6.13121 15.80075-.26514.26514-4.79274.13655-5.03326-.14294-.11028-.12815-.80973-1.76996-1.55434-3.64848-.74461-1.87852-1.57021-3.49852-1.83466-3.6-.70784-.27162-13.32467-.21531-13.75957.0614-.20411.12988-.96874 1.74767-1.6992 3.5951-1.17661 2.97587-1.98612 4.27817-2.55087 4.10375-.0984-.03037-1.07149-.13837-2.16252-.24zM136.30801 40.24c-.021-1.25948-4.90729-13.50515-5.42857-13.60463-.35559-.06786-1.12645 1.63732-2.96399 6.55646-1.36588 3.6565-2.48162 6.90017-2.47943 7.20817.004.51122.47788.56 5.44398.56 5.43171 0 5.43999-.0011 5.42801-.72z"/></g></svg>