<svg xmlns="http://www.w3.org/2000/svg" role="img" viewBox="-27.25 -39.75 2327.00 1067.00"><title>Iris logo</title><defs><radialGradient id="c" gradientTransform="matrix(1.15 0 0 1.35 -.075 -.425)"><stop offset="0" stop-color="#0aaea7" stop-opacity=".859"/><stop offset=".673" stop-color="#18685d" stop-opacity=".741"/><stop offset="1" stop-color="#b6df34"/></radialGradient><radialGradient id="e"><stop offset="0" stop-color="#20b0ea"/><stop offset="1" stop-color="#156475"/></radialGradient><radialGradient id="f"><stop offset="0" stop-color="#d5e488"/><stop offset="1" stop-color="#aec928"/></radialGradient><clipPath id="a"><path d="M66.58203 73.61328c-4.38582.2069-15.42134 8.49236-33.14844 6.88282-14.72183-1.33671-22.76363-7.10319-24.99609-5.87696-1.3147.8894-1.6792 1.81777-1.73438 3.83203-.05444 2.01438-1.10456 15.64044 5.83204 28.73242 8.74526 16.50554 21.06813 20.14551 26.15234 20.24414 12.67135.24601 24.68174-21.45054 27.3457-30.62304 3.14376-10.82453 4.45701-22.6543 1.33594-23.11914-.2333-.06335-.49472-.08606-.7871-.07227zm7.11914-5.85742c-.85969.02602-1.45845.28036-1.72265.80664-2.12337 3.21574 3.51502 16.8438-3.9707 34.18945-5.82824 13.50478-13.8309 19.32496-13.34766 21.81446.44472 1.5177 1.2206 2.14788 3.13086 2.82226 1.91047.67381 14.6235 5.87722 29.29296 3.36524 18.49417-3.16726 25.7837-13.69084 27.44922-18.4668 4.15115-11.90325-12.89697-29.9635-20.8496-35.3164-7.62529-5.13271-16.25712-9.3276-19.98243-9.21485zm40.32422-34.53125c-10.96015.0308-25.06378 7.0569-30.74805 11.45508-8.94398 6.92028-17.002 15.72227-14.75195 17.92187 2.42046 3.0011 17.20195 1.87942 31.48438 14.31641 11.11971 9.68315 14.21486 19.04914 16.74609 19.36133 1.58953.0486 2.43239-.48845 3.66797-2.08594 1.23506-1.5979 10.14187-12.00972 12.27148-26.6543 2.68478-18.46287-5.13068-28.60763-9.18554-31.6582-2.52647-1.90065-5.831-2.66651-9.48438-2.65625zm-74.4043-18.58203c-.52688.02242-1.12452.14721-1.85351.36133-1.9441.57096-15.3071 3.78913-25.68946 14.39258C-1.0114 42.76459-.68567 55.54003.79102 60.37696c3.6803 12.0554 28.15274 16.70464 37.75195 16.38867 11.32791-.37285 23.05092-2.78668 22.53125-5.88086-.18374-3.84216-12.8034-11.57192-17.0039-29.97852-3.27046-14.33089-.23651-23.71567-2.09962-25.44726-.78577-.605-1.47147-.85378-2.3496-.81641zM67.22852.08985c-6.8011.02209-11.66333 2.0791-14.00977 3.70507-10.39683 7.20463-7.2842 31.77663-4.01563 40.75391 3.85728 10.59405 9.79004 20.9319 12.58985 19.48438 3.6193-1.36086 7.11307-15.68074 23.42578-25.33985 12.7007-7.5203 22.61812-7.5532 23.69922-9.8496.53758-1.48767.28371-2.45186-.86328-4.11329-1.1471-1.66142-8.35567-13.29917-21.70899-19.83789C78.9804 1.28601 72.51825.07266 67.22852.08985z" transform="scale(7.67996)"/></clipPath><clipPath id="g"><path stroke-linejoin="round" d="M863.04122 702.91103l-2.4559 3.53973 6.41996-14.50952 15.01929-36.96357 8.19477-18.05579 6.0485-19.5175-1.2483 7.09232-3.36864 12.29873-2.06544 6.20237-13.88353 35.06519-6.33035 12.42402z"/><path stroke-linejoin="round" d="M309.5647 578.75479l-4.97151-.42099-.99311-.8603 5.47596-4.2159z"/><path stroke-linejoin="round" d="M290.88169 516.96291l-8.87298-.52871.2553-2.99435 5.2788.5281z"/><path stroke-linejoin="round" d="M234.00854 500.15785l-1.63672.54268-4.21284-5.67125 9.09031 6.32321z"/><path stroke-linejoin="round" d="M257.46653 494.53746l12.63406 5.93947 6.85795 9.65353-17.10663 1.75265-13.77514-10.3887 10.7088 1.56611-3.70658-8.41988z"/><path stroke-linejoin="round" d="M230.7806 462.2848l5.116 4.19727 14.63265 22.47907-17.04178-3.6914 3.96023-2.46246-4.94232-10.96225-10.61481-12.81833-13.82442-1.55143 13.1346-3.00866z"/><path stroke-linejoin="round" d="M241.93258 459.71946l-1.99397-7.00339 2.30922-3.78478 1.1818.81567z"/><path stroke-linejoin="round" d="M246.90976 440.59352l-4.897-.93085.58535-2.55142 4.7908 1.72152z"/><path stroke-linejoin="round" d="M250.39732 441.99438l-2.34231 4.37376.05342-8.73962z"/><path stroke-linejoin="round" d="M805.48366 351.4107l-.06611 9.72652-3.78746-1.75227.79722-3.05308z"/><path stroke-linejoin="round" d="M773.77855 371.77868l2.93252 1.0991 6.85568-3.3036-3.80392 5.20185z"/><path stroke-linejoin="round" d="M736.1897 369.63995l3.22062 10.7437-13.62168-2.26857-.91798-3.4406z"/><path stroke-linejoin="round" d="M702.23291 359.96942l7.7097 12.13116-2.86943 2.8625-8.40809-12.02713z"/><path stroke-linejoin="round" d="M700.86698 353.67597l.95087 5.21035-5.33767-4.56548 1.13706-5.70585z"/><path stroke-linejoin="round" d="M359.509 333.58729l2.54082 1.55968 3.83799.76604-4.79977 2.03028-3.96743-6.19005z"/><path stroke-linejoin="round" d="M373.98041 320.06224l-5.99236-3.46075-2.07619-3.69346 5.73555 2.59508z"/><path stroke-linejoin="round" d="M247.49878 229.67063l2.43582-5.12244 11.77944-12.28814-3.96252 6.28284z"/><path stroke-linejoin="round" d="M400.37322 315.44203l-4.73718 4.72015 12.34418 5.88959-3.56282 16.26938-2.83442-7.66188-6.85234 4.45615-14.58068-7.68094 25.22129-20.80722z"/><path stroke-linejoin="round" d="M282.8653 193.63415l-.39091 1.23073-11.0938 7.55384 8.35348-7.23982z"/><path stroke-linejoin="round" d="M608.49394 308.16783l-11.83532 4.5768-2.81175-12.35545 8.38888-9.20085 5.36488 2.86864z"/><path stroke-linejoin="round" d="M665.18867 272.54834l1.36516 4.9341-7.2574-4.0119 3.01238-3.23387z"/><path stroke-linejoin="round" d="M333.68822 154.53914l-3.21707 1.99417-.59982-.00499.03145-.0604 1.89272-.9644z"/><path stroke-linejoin="round" d="M606.5034 269.55595l-.67333 6.59509 6.69249-2.11902.68017 10.26715 25.98865 14.62667 3.3287 8.58765-22.76545 13.31375 3.86423-10.11352-8.56448-1.98943 3.31976-2.5677-4.2299-6.70978 4.83594-3.9878-18.38235-13.75327-.6302-10.88023z"/><path stroke-linejoin="round" d="M370.44435 233.61133l-3.29707 2.02998.31504-2.44678 2.65286-1.25459z"/><path stroke-linejoin="round" d="M367.68378 228.56779l-5.00997 1.2835-.3247-2.23646 3.71585-1.2758z"/><path stroke-linejoin="round" d="M393.97103 130.08282l-.62788.19961.13469-.06746.2466-.06608z"/><path stroke-linejoin="round" d="M376.6732 212.93287l-1.98094 1.9696 1.4608 10.88164-13.99857-6.12025z"/><path stroke-linejoin="round" d="M554.67693 234.11372l4.79879 6.39691-12.36498 9.83933-12.98964-1.63748 2.59265-2.46536-6.8389-2.22328 4.6631-2.7482-6.2082-.9145z"/><path stroke-linejoin="round" d="M400.51292 214.53193l-2.3306-.64585 1.85327-2.23856 5.84459-.19013z"/><path stroke-linejoin="round" d="M427.80193 121.01786l12.40527-1.32477-19.3511 3.49673-13.74703 3.77915 3.24196-1.27516 13.27762-3.55773 4.1856-.89913-.3528-.12786z"/><path stroke-linejoin="round" d="M382.0452 190.63688l-2.72195.6182.59745-5.25994 5.91234-.94741z"/><path stroke-linejoin="round" d="M446.33217 119.69122l2.02603-.48765 1.36609-.02863-1.13383.61983z"/><path stroke-linejoin="round" d="M443.96487 120.29036l2.3673-.59914 2.25829.10355-5.45823 1.05106z"/><path stroke-linejoin="round" d="M381.41877 134.25463l1.84492-.33255-5.16818 2.62174 4.88072-1.22438 6.93648-3.19762 12.05252-3.61264-10.92918 4.66148 19.91405-5.49572-1.62665 5.5282-35.40312 19.10936 5.79527 5.01861-18.66613 26.07716 8.443-2.9902 2.06256 1.51501-3.78194 8.10535 9.09183.5373-6.0591 5.82288 12.50469-4.38888 3.79528-5.30244 12.19838-4.73757-9.29728 11.69852-5.80844 3.62948 6.10146-1.68102-8.82068 9.24344 17.10544-8.54928 2.92003 3.03738-.52284 2.90967-7.88849 6.19682-12.65724.31147-35.85568 10.78208-19.08956 11.10403-5.92376 11.32946 11.63821 22.05992-8.00305 9.74982-2.92626 13.7995 9.31925-5.59567 5.6393-12.53813 16.6547-5.80957 4.89791-13.44303 7.48734-3.86496 9.40507-12.3647 10.14732 3.28487 4.82467 10.30977-7.2672 10.84843 1.90531 5.29334 16.3418-8.47404-4.45855 23.38907 10.50123 12.96499-.0552 15.54165-21.65495 7.77396-23.81123-5.97416-28.09983 14.61747 29.9208-7.42475-6.56802 18.50325 11.01955 5.19355 7.06324-5.90982.2091 7.34097-29.50326 8.89608-.64273-6.57413 9.36351-3.1317-11.2667-2.09204-20.28406 8.47918-1.3861 9.5073-28.23595 5.43069-1.61318 7.49573-7.03922 6.06537 4.45806-12.65197-8.57469 23.48274-33.45092 16.60232-12.30666 42.11452-1.57004-38.64811-31.49052-17.28893-11.34585 2.7634-19.28377 33.80501-3.1461 23.63813 2.74775 11.95538 8.22824 1.85961 10.33514-10.96834 12.09088 3.43965-17.31457 32.9565 19.69979 16.06388-6.9482 26.77527 7.67002 20.37175 8.8885-1.60665 11.76774 11.92955 11.33626-12.57274 16.99363-3.31827-2.61806 22.63437 11.69407-17.64216 7.90069 13.73926 35.56836 8.5886-3.46302 4.45025 29.5199 33.60471 36.50156 18.19513 5.6691 28.80122 36.49788 13.93231 2.26149 7.4368 31.36784 3.79956 30.36492 15.7834 6.14683 13.58873-26.05113 32.1983-11.68147 46.27198-39.56865 10.19421-3.59634 16.4049-19.61703 19.6534-24.80277-6.49805 13.86739 13.19078-8.2421 4.10435-14.27233-2.98242 3.4549 7.1598-10.27125-2.59286 11.06519 6.83468-7.28882 4.87796 12.85767 8.7012-2.9455 3.22505 8.87346 4.82514-3.95469.27748-18.06522-7.96409-15.79488-10.21037-1.40597-3.11123-6.18706-2.867-4.09828-9.7814-3.24525.6294-16.1181-21.07532-3.66915-16.36687-19.33865-59.5437-9.97297-15.206-25.64541-23.51344-31.74104-61.52219 5.11052-18.75415-5.45791-12.6268 18.02647-23.95587-2.48251-31.54557-5.76256-6.84663-7.16535 8.57237-17.4361-28.17943-2.93952-26.26223-35.87661-70.34147.13364-15.37333 6.10998-18.93018 19.3594-74.14133-22.912 63.28925 1.54413-16.13337 7.14831-24.56654 3.28152-2.75424 14.56587-32.49087 5.71736-15.89362 25.0924-36.81887 38.30786-35.61094-6.22892 8.4131 9.93-8.4617 11.57962-15.24337L307.10404 179.1l31.65664-23.53545-1.21748-1.8804 9.06998-2.93715-7.25928.90533h-.00001l5.11311-2.60526 2.70324-1.0308 5.17442-2.60114z"/><path stroke-linejoin="round" d="M396.46254 163.98805l.1372 3.69035-7.85711 4.60869 9.28333-3.72545.73836 1.47878-18.76489 14.22351-13.37482-8.55377 8.45128-7.40264 3.69672 3.54014 6.69912-8.8894z"/><path stroke-linejoin="round" d="M402.00864 170.7122l-4.72123 1.00886 3.78308-2.93862 1.96764.81406z"/><path stroke-linejoin="round" d="M427.88882 190.66384l-6.10755-.5545 1.2182-2.93813 5.24528.52761z"/><path stroke-linejoin="round" d="M415.28474 184.17903l8.13788.68675-6.82397 6.9 7.4926-.67814 2.836 7.81454-.40487 12.85607-5.49692.90813 8.02666 12.4476-11.38824 7.52525-4.8303-8.58043-2.7411 15.81953-8.92602-4.67111-.2368 10.78237-9.5492-19.85843-8.02896-.42598 4.67693-4.9024 8.62668 2.5609 12.09027-9.15046.8964-14.1588-9.02403-11.78425 11.42513-5.92046 7.6495.18314z"/><path stroke-linejoin="round" d="M407.17435 172.6341l1.5651 2.33306-5.2731 1.69088-7.08245 4.93727.96317-6.9714 2.60437 1.0493 3.39835-2.60693z"/><path stroke-linejoin="round" d="M524.87037 114.54991l3.03985.14314 4.23801.3909-4.7899.10557z"/><path stroke-linejoin="round" d="M406.25776 180.8425l-6.28183.54003 7.84131-4.53778 7.37491 2.51099z"/><path stroke-linejoin="round" d="M384.41911 162.36975l-3.1062-1.31312 6.87333-4.2414 11.6776-1.45143 4.24481-1.69409-5.53295 8.53702z"/><path stroke-linejoin="round" d="M510.68521 115.8766l2.09657-.37588 6.14617.55065-.5655.3112z"/><path stroke-linejoin="round" d="M419.1371 174.03868l-2.78368.7532.02624-2.66204 5.86242-.70912z"/><path stroke-linejoin="round" d="M520.54239 116.49384l11.7923-.30027 2.60132.8728-4.371.60092z"/><path stroke-linejoin="round" d="M426.50865 166.4797l-10.60667 4.58487.99063-4.24077 4.96021-1.8577z"/><path stroke-linejoin="round" d="M418.60928 161.74034l-3.79546 3.18777-9.28045-2.20346 1.65546-1.79786 3.42747.57091-.56432-4.20103 8.72612-.6462z"/><path stroke-linejoin="round" d="M643.9501 166.3965l-9.81165 2.27116-19.45802-9.67308-10.71424-10.93192 16.176 10.30977 12.61123 6.21845z"/><path stroke-linejoin="round" d="M431.26213 167.68658l-4.63832 7.21012 5.86578 7.42374-12.75393-4.49841 7.80252-10.62357z"/><path stroke-linejoin="round" d="M426.60213 154.26345l-7.6585 1.22525-2.80457-3.06197 9.3781.33916z"/><path stroke-linejoin="round" d="M877.51294 349.5522l-6.48341-11.35602.91221 20.14555-4.65781-5.97307 1.23143 8.16097-6.75887-.46716-8.9952-10.01836-1.86746 5.94283 22.73107 26.31414 1.45549-6.06106-5.50127-19.208 6.60041 11.4864 5.87816 4.08488 10.7006 42.50765-6.54994 59.45591-8.65166-24.47108-46.60233-52.57029-3.62985-9.56215 2.92975 13.65607-10.73633-10.53206 33.53693 39.57678 9.1233 20.21302 24.0663 25.7008-.28738 5.75334 5.32398 3.49636 7.24751-27.07127 1.8053 9.01396 1.48952 50.0783-17.12874 79.27755-7.34563 57.90203-24.8154 44.08487-6.9755 19.89132-13.70554 17.53236-9.63226 16.34631-35.82925 37.4864-26.89296 13.98117 5.94378-67.74173 18.01407-45.41093-5.2741-31.46212-15.59533-19.30394 2.7932-32.4183-5.23291-5.27716-14.2538 7.61377-9.68178-10.82282-36.83834 19.13542-44.56518 7.0963-52.28266-43.42588-7.61778-16.98375 8.12714-24.2409-7.36898-25.74465 48.72014-103.37577 20.26902.29661 49.649-28.37207 7.97584.64245 4.92278 21.14218 45.87644 8.62521 2.08665-20.8341 30.86424-1.57001 13.64837-10.53882-14.1384-38.86533-22.48352 16.31566-14.52355-14.13137 9.44745-27.77693 14.82401-3.0385 1.59227-11.9318-23.7772-8.22362-4.98963-14.7229-3.12094 12.24964 8.0388 3.76835-1.76783 8.33128-7.43422-2.78535-1.47258-5.47615-8.00566 1.52939 9.03006 27.35787 9.12893 6.80194-15.43265 15.20853 13.73987 13.26671-.97151 10.30345-23.54098-18.3474-4.65444-9.042-36.25767-14.78367 3.51485 10.52824 34.43395 15.24319-6.68644.80229 4.99995 16.31642-9.09417-11.72614-38.54953-17.59623-19.9618 14.6345-9.67312 46.70842-14.97113 7.94347-19.71322-3.15035-12.28926-40.0119 34.83645-12.89869-3.90167-12.58901-20.54517-13.52521 12.32959-2.17475-4.10315-6.54142 11.83669-4.9188 3.39955-20.22322 10.01563-5.72968-11.43937-19.78705 3.57931-5.13835 5.75367 12.81578 9.35042 6.59001 23.3417-12.05174.75442-5.85453-9.32977-11.42564 7.60125-1.09876-12.0329-9.3903 7.13541-10.42728-18.77626 5.46067-11.4588-11.37163-2.69949-11.85736-8.65023.39938 5.86856 16.90577 4.79021 7.2123 9.50889 4.31434 10.05818 22.79908-5.24928 7.02205-23.31256-18.73525-10.02577 8.57249-13.76101-16.77095-1.41754-34.11083-.457-19.66922 3.67963-3.19277 35.44958 1.35576 6.20839 7.65912-9.6646 2.89115 20.70097 6.4334-7.31611-4.99149 6.2992-.33025-9.35682-9.46044 4.01202-.59165-15.84199-7.4636 3.88712-1.72783 9.97548 4.74122-10.54085-13.73476 4.62895-4.72425-4.32977-2.6641-5.92375-1.52086 9.81656-4.025-3.62095-1.70053-4.62678.53346-10.20515-2.73062-12.6721-5.05697-.88204-2.57853 9.21224 2.55918 18.22376 3.28338 14.5171 6.47405.26163-.9175-11.61147-5.76682-22.2381-4.18827-9.735-3.13323 9.76172.80334-4.30655-.57703-3.53673-1.82604.4054-2.52123-11.07473-1.11973-6.70332-4.59706-2.45805.23076-4.90527-1.07534-30.46521-8.8309.57754-1.441-4.22015-3.49371 13.66433 1.39599-26.7034-7.213-2.03346-2.51667-4.22017.13966-15.6698-1.73198.41334.61874-3.21832.08436-68.23465.77842-2.21017.43774 3.32698.02557-12.14478 1.88915-12.06279 1.92024-12.40555 1.32478.48907-.13105.89085-.20073 41.00677-6.49484L512 112l41.81138 2.19124 41.3533 6.54972 40.44212 10.83643 39.08786 15.00443L712 165.58984l35.1141 22.80336 32.53814 26.34887 29.60569 29.60569 26.34887 32.53814L858.41016 312l19.00802 37.30534zm-70.33551-58.56533l5.80788 2.72313 4.80905 10.76185 5.58245 5.90433 6.37342-6.57688-13.96713-13.66289-2.94615-8.85865-5.93208-3.80116 3.99464 6.78613-18.20125-12.37684-1.20896-8.33987-7.95224-7.49477-.65938 9.40508 6.2317 13.2986z"/><path stroke-linejoin="round" d="M434.414 167.05817l-1.26604-1.32584 1.58638-.82264 1.14182 1.08499z"/><path stroke-linejoin="round" d="M428.01367 157.63712l-2.37119-.56168 1.90482-1.41485 2.5629 1.62081z"/><path stroke-linejoin="round" d="M580.70928 170.68442l.26545 2.251-2.88775.10525-2.2487-3.2655z"/><path stroke-linejoin="round" d="M434.23277 156.30876l-1.60153-.3123-.32921-.89877 3.1955-.17125z"/><path stroke-linejoin="round" d="M436.47984 164.68655l-1.1318-1.24695 4.75702-2.04373-1.21548 2.55812z"/><path stroke-linejoin="round" d="M435.90614 161.88776l-1.7911-2.79315 2.31442-.08554 3.68183-1.84354z"/><path stroke-linejoin="round" d="M569.24862 128.83353l7.39759 2.1558-9.76603-.40233z"/><path stroke-linejoin="round" d="M565.35177 167.98637l6.65215.90318 5.74949 9.19503-19.14439-7.29254z"/><path stroke-linejoin="round" d="M566.89977 163.38546l3.29508.1498-8.70568 2.96235 2.31703-2.85193z"/><path stroke-linejoin="round" d="M576.90957 152.46448l2.85807 2.44884-4.64035.21977.81053-3.05915z"/><path stroke-linejoin="round" d="M571.14487 131.1686l3.14603 2.11376-4.87498 1.94226-8.15263-1.31162 4.95482-2.36504z"/><path stroke-linejoin="round" d="M451.77288 164.71401l-.99904 1.3534-10.08978.72809 8.5126-7.33028 8.91824-.70456z"/><path stroke-linejoin="round" d="M482.1122 160.80702l2.80598 2.72376-27.0366 6.07175-2.5321 3.02725-17.15293 5.18469-6.80845-5.5857 5.52412-1.09573 3.77952-2.26037.62547 2.60575 2.33754-3.75085 7.69406-1.38549 3.89157-3.11866 4.65059 1.31873 2.50247-6.89596z"/><path stroke-linejoin="round" d="M514.28368 163.42114l5.77334 2.52079-9.8569 2.1021 20.3052 2.16567-6.70944 4.86938 2.77656-.02866-.62752 5.42413 4.05576 6.85732-4.6134 1.7992 3.57524 1.9941-.34564 4.0431 3.35017 3.5169-7.09126 4.79534 3.5231 4.9057-5.38-.4299 7.97803 7.35634-9.099-3.19088-1.31316 5.67814 9.5167.09452-46.41544 22.62019-12.4165 13.75324-5.40944 13.79706-14.90292-5.92125-4.46418-15.99825 2.50724-18.66317 14.09319-11.6702-9.2925.07289 4.00008-5.3299 5.66809 2.165-6.33335-6.37578 4.80725-3.62057 2.19322-13.3108-12.12354-5.69976.51715-4.51306 7.14637.48208-4.50248-4.6992 13.85484-1.9053.68216-3.0426 11.3981-3.95946 16.34297 3.19616-.25532-3.58063z"/></clipPath><linearGradient id="b" y1="0%" y2="100%"><stop offset="0" stop-color="#13385d"/><stop offset=".43" stop-color="#0b3849"/><stop offset="1" stop-color="#272b2c"/></linearGradient><filter id="d" width="1.083" height="1.083" x="-.042" y="-.042"><feGaussianBlur stdDeviation="14"/></filter></defs><g clip-path="url(#a)" transform="translate(18.781 4.934) scale(.97109)"><rect width="100%" height="100%" x="0" y="0" fill="url(#b)" display="inline"/><circle cx="50%" cy="50%" r="40.625%" fill="url(#c)" stroke="#fff" stroke-opacity=".797" stroke-width="2" filter="url(#d)"/><circle cx="50%" cy="50%" r="39.453%" fill="url(#e)"/><circle cx="50%" cy="50%" r="39.063%" fill="url(#f)" clip-path="url(#g)" transform="rotate(-4.99 512 512)"/></g><g fill="#156475" text-anchor="end" transform="scale(4)"><path d="M331.6 199.67999h-63.9v-7.1q2.7-.2 7.8-.6 5.1-.4 7.2-1.2 3.3-1.3 4.8-3.5 1.5-2.3 1.5-6.3v-102.8q0-3.5-1.1-5.8-1.1-2.4-5.2-4-3-1.2-7.6-2.2-4.5-1.1-7.4-1.3v-7.1h63.9v7.1q-3.1.1-7.4.8-4.3.6-7.5 1.6-3.8 1.2-5.1 3.9-1.3 2.7-1.3 6v102.7q0 3.3 1.4 5.9 1.5 2.5 5 4 2.1.8 6.8 1.8 4.8.9 8.1 1z"/><path d="M422.3 113.77999q0 5.1-2.5 9.1-2.5 3.9-7.7 3.9-5.6 0-8.6-2.9-2.9-2.9-2.9-6.4 0-2.2.3-4 .4-1.8.7-3.6-4.7 0-11 3.8t-10.7 10.8v57.4q0 3.5 1.3 5.7 1.4 2.2 4.3 3.3 2.5 1 6.4 1.5 4 .5 6.9.7v6.6h-52v-6.6q2.3-.2 4.7-.4 2.5-.2 4.3-.8 2.8-.9 4.1-3.1 1.4-2.3 1.4-5.9v-60.9q0-3.1-1.5-6.1-1.4-3-4-4.8-1.9-1.2-4.5-1.7-2.6-.6-5.6-.8v-6.5l32.8-2.2 1.4 1.4v13.9h.5q6.2-8.1 13.8-12.3 7.6-4.2 13.9-4.2 6.3 0 10.2 4.1 4 4.1 4 11z"/><path d="M478.60001 199.67999h-47.7v-6.6q2.3-.2 4.7-.4 2.5-.2 4.3-.8 2.8-.9 4.1-3.1 1.4-2.3 1.4-5.9v-60.9q0-3.2-1.5-5.8-1.4-2.7-4-4.5-1.9-1.2-5.5-2-3.6-.9-6.6-1.1v-6.5l34.8-2.2 1.4 1.4v80.4q0 3.5 1.3 5.8 1.4 2.3 4.3 3.4 2.2.9 4.3 1.5 2.1.5 4.7.7zm-12.6-138.7q0 5.7-3.8 10-3.7 4.2-9.2 4.2-5.1 0-8.9-4-3.7-4.1-3.7-9.3 0-5.5 3.7-9.6 3.8-4.1 8.9-4.1 5.7 0 9.3 3.9 3.7 3.8 3.7 8.9z"/><path d="M555.80001 151.37999q4.1 3.6 6.3 8.3 2.2 4.7 2.2 11.5 0 13.7-10.3 22.4-10.2 8.7-26.5 8.7-8.6 0-15.9-3.1-7.2-3.1-10.3-5.7l-2 6.5h-7.5l-1-34.3h6.9q.8 3.9 3.4 9.1 2.6 5.2 6.3 9.4 3.9 4.4 9.3 7.4 5.5 3 12.3 3 9.6 0 14.8-4.3 5.2-4.4 5.2-12.5 0-4.2-1.7-7.2-1.6-3.1-4.8-5.4-3.3-2.3-8.1-4.1-4.8-1.9-10.7-3.7-4.7-1.4-10.5-3.8-5.7-2.5-9.8-5.8-4.4-3.5-7.2-8.6t-2.8-12q0-12.1 9-20.5t24.1-8.4q5.8 0 11.8 1.5 6.1 1.5 9.9 3.6l2.3-5.2h7.2l1.5 31.7h-6.9q-2.1-10.6-9.1-17.2-6.9-6.7-16.9-6.7-8.2 0-12.9 4.1-4.7 4.1-4.7 9.9 0 4.5 1.5 7.5 1.6 3 4.7 5.1 3 2 7.5 3.8 4.6 1.7 11.3 3.9 6.6 2.1 12.4 4.9 5.9 2.8 9.7 6.2z"/></g></svg>