<svg xmlns="http://www.w3.org/2000/svg" role="img" viewBox="-2.99 -2.49 605.48 649.48"><title>JuliaClimate Notebooks logo</title><path fill="#a2a0de" d="M277.5 589.3506c-1.65-.19235-7.275-.82824-12.5-1.41308-25.80657-2.88859-58.58772-11.9213-83.11938-22.90323C169.65924 559.56323 152 550.10007 152 549.02198c0-2.83769 43.5086-5.06556 59.81804-3.06299 18.75136 2.30239 39.61507 7.88683 60.68196 16.24229 10.78322 4.2768 41.23711 18.09297 51 23.13743l6 3.10019-5.5.68165c-5.59205.69306-41.0246.86836-46.5.23005zm59-8.75685c-7.7-2.36756-19.625-6.36673-26.5-8.88706-6.875-2.52034-22.175-8.13916-34-12.48629-22.65469-8.32834-41.53897-13.99171-56.5-16.94426-7.06898-1.39506-13.61299-1.75333-30.5-1.66983-18.74563.0927-22.93112.41639-32.67098 2.52674l-11.17098 2.42042-9.32902-6.37394c-16.34776-11.16942-42.72488-33.74027-41.14279-35.20581.44757-.4146 6.41523-2.60537 13.26145-4.86839 35.22044-11.64209 67.52853-16.41603 95.97254-14.18118C236.04507 487.4482 258.15397 493.24692 311 513.009c55.03314 20.57996 73.20675 24.69908 104.5 23.68534 20.1922-.65412 33.54033-3.15438 56.39511-10.56345C480.2028 523.4377 487 521.38733 487 521.5745c0 .18717-3.0375 2.75428-6.75 5.70468-26.10191 20.74371-56.56909 37.23672-88.4693 47.89168-14.94781 4.9927-34.21202 9.84557-38.7807 9.76927-1.375-.023-8.8-1.97883-16.5-4.34638zm54.5-61.1782c-1.925-.22354-7.775-.8868-13-1.47391-21.39934-2.40456-40.88912-6.96028-85.5-19.98554-53.49325-15.61869-72.61014-19.19952-102.5-19.19952-27.29426 0-51.91148 4.26292-90.28344 15.63422l-11.78345 3.49195-4.21655-4.57261c-9.75806-10.58206-27.8016-34.74085-26.62124-35.64362.8904-.681 47.17588-13.82906 58.40468-16.59069 30.43922-7.48626 46.72182-9.55126 75-9.51165 37.06247.0519 55.00908 3.34531 117 21.47079 53.38149 15.60817 72.59328 19.20845 102.5 19.20845 29.38328 0 49.55966-3.71209 99-18.21418C538.48452 445.38069 550.57691 442 552.0274 442c1.3327 0-.53766 3.26655-10.81977 18.8965-7.71157 11.72245-18.72327 25.79544-28.91142 36.94888-5.60978 6.14129-6.08568 6.42366-14.79621 8.77919-32.77487 8.8631-55.27355 12.36463-82.5 12.83971-11.275.19674-22.075.17482-24-.0487zm-3.5-64.01335c-18.90303-1.8985-26.00843-2.79784-39.5-4.99954-8.525-1.39121-30.575-5.85871-49-9.92779-59.55911-13.15335-76.94709-15.64986-109-15.64986-31.81171 0-49.56595 2.52956-106.8633 15.22551C65.8869 443.87273 51.18805 447 50.4726 447 49.06925 447 32 413.73353 32 410.9985c0-1.25354 1.63054-1.94697 6.75-2.87061 3.7125-.66979 19.8-4.09734 35.75-7.61677 62.41433-13.77198 77.57557-15.88508 114.5-15.95846 36.71747-.073 54.84874 2.35087 112 14.97247 59.55911 13.15335 76.94709 15.64986 109 15.64986 31.74836 0 49.55569-2.53148 106.5-15.14 17.05-3.77518 36.4-7.81296 43-8.97284 6.6-1.15987 13.06686-2.34557 14.3708-2.63488 2.16667-.48072 2.31049-.28498 1.67038 2.27336-1.36489 5.4551-7.83932 21.93944-12.58778 32.04937-3.51107 7.47541-5.3068 10.25073-6.63383 10.25268-1.00076.001-13.74457 2.66823-28.31957 5.92613-59.41193 13.28014-78.00195 16.01002-112.5 16.5202-13.2.19521-25.8.17414-28-.0468zm-7-56.54144c-18.34611-1.20232-46.53355-4.89069-86-11.25324-55.04821-8.87455-71.95017-10.58689-104.5-10.58689-32.03345 0-49.91096 1.77394-101 10.02198C52.65732 392.90992 31.77747 396 28.4743 396c-2.20524 0-2.7333-1.00743-6.05287-11.54745-2.00027-6.3511-3.70088-12.9528-3.77914-14.67046L18.5 366.65908l13.5-1.7401c7.425-.95705 29.025-4.24491 48-7.30634 95.87201-15.46801 125.31938-15.36602 225.5.78102 55.05784 8.87419 71.95359 10.58571 104.5 10.58571 32.42665 0 49.40917-1.71214 104-10.48503 42.17-6.77682 70.919-10.74666 71.85999-9.92285.47731.41787-3.56616 20.07609-5.39871 26.24692l-1.44288 4.85873-9.7592 1.19861c-5.36756.65924-26.4092 3.8716-46.7592 7.13857-70.24392 11.2769-100.3464 13.57623-142 10.84644zm6.5-44.93949c-23.61667-.81499-41.99347-2.44305-89.5-7.92907-47.64306-5.50179-65.32347-6.94037-94-7.64836-36.66036-.90511-59.09861.55894-125 8.15596-35.8335 4.13084-62.4642 6.64036-63.52291 5.98604-.98009-.60573-3.34792-17.07708-2.69828-18.77001.3338-.86989 5.19542-1.64611 15.42896-2.46343 8.21786-.65633 30.43297-2.98742 49.3669-5.18019 49.28249-5.70749 65.51206-7.11906 90.92533-7.90821 41.91901-1.3017 68.86808.2703 134.5 7.84573 47.66232 5.50132 65.33188 6.93865 94 7.64643 36.66036.90511 59.09861-.55894 125-8.15596 29.82507-3.43819 60.62832-6.48838 65.60321-6.49614 2.5314-.004 2.59076.14076 2.15197 5.24594-.24818 2.8875-.74991 7.49363-1.11495 10.23585l-.6637 4.98584-14.98827 1.23672c-8.24354.68019-30.73826 3.05108-49.98826 5.26865-47.16425 5.43325-63.98444 6.95504-83.5 7.55462-9.075.27881-19.875.6397-24 .80198-4.125.16228-16.725-.0233-28-.41239zm-20-35.04428c-9.625-.45268-38.2-2.40785-63.5-4.34484-65.25507-4.99596-75.89596-5.5128-113.5-5.5128-37.22534 0-47.40503.48839-113 5.42138-25.025 1.88197-50.35812 3.72241-56.29581 4.08987l-10.79582.66811.29582-7.34936L10.5 304.5l13.5-.73572c7.425-.40465 34.2-2.31693 59.5-4.24951 95.02051-7.25828 118.21178-7.26067 213-.0219 64.24112 4.90594 76.7173 5.50832 113.86093 5.49748 36.87036-.0108 47.16422-.5071 112.63907-5.43106 25.025-1.88197 50.35812-3.72241 56.29581-4.08987l10.79582-.66811-.29582 7.34936L589.5 309.5l-13.5.73572c-7.425.40465-34.2 2.31693-59.5 4.24951-72.54099 5.54115-104.86868 6.49082-149.5 4.39176zm12-24.47358c-22.61862-1.26283-44.56714-2.97491-82-6.39636-57.77068-5.28038-72.60197-6.1228-107.5-6.10604-34.76054.0167-47.32175.73667-106.5 6.10431-36.06932 3.27159-68.65718 5.97198-72.29381 5.99061-.4366.002-.6616-3.25843-.5-7.24593L10.5 279.5l10.5-.69842c13.08476-.87036 26.97853-2.07121 67-5.79091 52.98298-4.92437 62.92627-5.45095 102.5-5.42817 40.41429.0233 44.90047.27903 112.5 6.4137 59.32578 5.38382 71.73493 6.09011 107 6.09011 34.82333 0 48.32181-.75136 102-5.67758 51.08967-4.68866 75.33997-6.47694 76.15529-5.61587.36827.38893.82148 3.63214 1.00714 7.20714l.33757 6.5-10.5.70133c-13.9212.92985-31.09737 2.41377-62 5.35644-46.40355 4.41872-64.16051 5.4778-98 5.84501-18.425.19994-36.425.20022-40 .00063zm7.5-23.48006c-22.53565-.88439-38.30801-2.45175-84.5-8.39713-66.20431-8.52115-86.38018-10.03369-123-9.22099-26.56772.58962-45.42804 2.10939-77.5 6.24498-59.64077 7.6905-89.24695 11.07119-89.98381 10.27512-.33228-.35898 2.31003-20.04442 2.72492-20.30098.1424-.08804 11.28389-1.37943 24.75889-2.86975 13.475-1.49032 36.2-4.23903 50.5-6.10824 53.70218-7.01965 84.21158-8.88531 121.95743-7.45772 24.21551.91585 41.29117 2.52749 79.54257 7.50742 69.63471 9.06571 93.94588 10.94808 130.5 10.10437 26.2475-.60582 45.14884-2.14555 77.5-6.31324 54.81732-7.06193 66.04048-8.41996 74.49813-9.01447l9.19553-.64639 1.12419 4.46455c.6183 2.4555 1.4134 6.92536 1.76689 9.93303l.64272 5.46849-17.36373 1.76856c-9.55005.9727-27.03873 3.06114-38.86373 4.64097-69.85088 9.33211-101.95548 11.55178-143.5 9.92142zm-4.6132-28.92438c-16.7732-1.24722-42.34289-4.63417-64.82402-8.58657-76.17925-13.39303-84.36348-14.43983-118.35717-15.13831-38.11692-.7832-55.20137.94337-116.22142 11.74548-34.36337 6.0832-65.11103 10.68692-65.92698 9.87098-.621-.621.95854-7.53901 4.60184-20.15509 2.5648-8.88138 3.47882-10.83607 5.22478-11.17345 1.1639-.22491 13.14117-2.24189 26.61617-4.48219s34.85-5.8532 47.5-8.02867c40.13399-6.90199 55.95049-8.38354 89.5-8.38354 33.44923 0 49.3642 1.48329 89 8.29486 12.375 2.12669 33.075 5.68101 46 7.89848 39.98035 6.85921 48.51831 7.62512 85 7.62512 36.50983 0 45.11162-.77272 85-7.63583 12.925-2.22384 33.625-5.79047 46-7.92584 12.375-2.13536 23.8983-3.89191 25.60734-3.90344 3.10614-.0209 3.10921-.0155 7.87243 14.02328 2.62079 7.72434 4.59749 14.20226 4.39265 14.39538-.20483.19312-6.89742 1.33103-14.87242 2.52869-7.975 1.19766-24.3648 3.9598-36.42177 6.13808C471.29592 239.27471 449.57305 241.89763 417 242.45812c-12.925.22241-28.72594.0158-35.1132-.45915zm.6132-38.04794c-24.37364-2.46013-46.07189-6.509-85.5-15.95422-55.3356-13.25594-75.18589-16.27819-107-16.29096-31.51071-.0127-48.63727 2.5489-103 15.40526-32.14266 7.60149-58.14084 13.08138-58.82342 12.3988-.77786-.77786 6.05801-16.71886 13.2645-30.9323L48.5 154.65521l9.5-2.1889c5.225-1.2039 19.175-4.47939 31-7.27886 40.46038-9.57868 63.3034-13.00845 92.5-13.88844 35.6156-1.07346 63.01218 2.6931 121.5 16.70418 55.3356 13.25594 75.18589 16.27819 107 16.29096 31.47166.0126 48.58217-2.54296 102.85004-15.36144C528.99256 145.11972 542.51801 142 542.90659 142c1.60437 0 21.07186 35.35488 20.03721 36.38953-.24498.24499-8.32006 2.26029-17.94461 4.47845-9.62456 2.21816-26.071 6.061-36.54767 8.53965-22.16408 5.24373-41.44521 8.91225-58.69189 11.16697-14.40998 1.88388-54.17065 2.69756-67.25963 1.37643zm8-46.62693c-27.08703-2.30032-51.26631-7.85073-99.60023-22.86346-55.92781-17.37143-83.68628-22.10674-114.75918-19.57674-25.82958 2.10308-42.1522 5.81609-89.37928 20.33166-16.35628 5.02722-30.00718 8.8719-30.33535 8.54374-.82757-.82758 8.06851-13.80827 17.84384-26.03677 9.13458-11.42696 34.2228-36.90304 38.47455-39.06937 3.28587-1.6742 16.51794-4.80877 31.94355-7.56719 17.72939-3.17038 36.04752-4.4339 54.3121-3.74628 32.18121 1.21156 55.19267 6.09803 112 23.78312 77.69652 24.18824 111.37594 25.48058 175.4837 6.73357 7.70896-2.25433 14.75171-4.3081 15.65054-4.56394 2.93714-.836 35.15424 36.85018 33.16161 38.79103-.99475.9689-40.32608 12.87659-53.79585 16.28688-14.45063 3.65861-35.24909 7.32796-48.5 8.55656-10.63671.98621-33.09281 1.19608-42.5.39719zm5.5-52.95118c-32.58181-3.05727-54.21153-9.02246-107.5-29.6471-55.49415-21.47833-73.01138-25.55869-104.85627-24.4246-14.6449.52156-19.48124 1.19357-37.14373 5.16114-2.88971.64912-2.92647.61454-1-.94056 3.86642-3.12108 23.74967-13.83065 35.80985-19.288C206.23829 23.95347 239.03271 14.9262 266 11.9213l10.5-1.17 25 9.74023c46.36239 18.0632 65.03066 23.97917 85.31786 27.03722 11.73303 1.76862 34.63175 1.82129 46.03065.10588l8.34852-1.25636 9.29744 5.66867C463.04751 59.70055 474.77355 68.04161 485 76.5917c14.14262 11.8243 14.06514 10.64052.97345 14.87278-15.35015 4.96238-33.12413 9.19854-46.3752 11.05285-11.33653 1.58639-35.50488 2.61503-43.59825 1.8556zm-12.5-61.94264c-24.4619-3.73999-56.93238-14.84942-84-28.73972l-7-3.5922 11.64405-.04917c39.89135-.1685 90.35948 11.9866 125.11429 30.1334L433.5 42.39734l-3 .68302c-5.36825 1.22221-37.67688.77534-47-.65007z"/><path fill="#728ce1" d="M278 589.30063c-24.88066-1.93493-55.52506-8.60862-77.89294-16.96339-19.89344-7.43053-48.99188-21.85242-47.36771-23.47659C154.21672 547.38328 177.21868 545 190 545c37.15852 0 69.15758 9.43978 127.5 37.61271l12 5.79467-6.5.67943c-6.66544.69671-36.94079.84057-45 .21382zm60-8.30018c-13.45482-4.14016-21.72551-7.06501-57.77044-20.42992-24.64994-9.13983-40.84867-14.14374-57.52815-17.77087-8.75871-1.90467-13.31269-2.22415-32.20141-2.25903-19.46638-.0359-23.35499.23812-33.76564 2.37983l-11.76564 2.42047-8.53363-5.8564c-16.45688-11.29392-43.24134-34.13227-41.70486-35.56056 1.28223-1.19195 24.96129-8.57447 38.26977-11.93153 38.17567-9.62979 76.20384-9.62293 114.5.0206 13.78504 3.47129 38.85648 11.92744 72.27044 24.37552 24.52141 9.13523 40.92997 14.21975 57.00923 17.66544 12.60712 2.70163 40.01866 3.71517 53.88547 1.99242 10.51656-1.30654 35.07261-7.27207 47.25368-11.47959 4.08035-1.40942 7.59574-2.38565 7.81198-2.16941.64857.64856-21.49944 16.90857-32.21955 23.65405C433.94516 558.36322 406.4616 570.93449 385 577.38929c-11.27048 3.38971-29.41631 7.62995-32.24177 7.53411-1.24203-.04213-7.88323-1.80745-14.75823-3.92295zm49.5-62.14932c-25.20497-2.20278-47.55996-7.13325-94.2713-20.79187-34.51537-10.09245-46.73376-13.20769-62.85984-16.02697-40.18552-7.02552-72.17318-4.36483-123.76769 10.29483l-18.74677 5.32656-5.5302-6.07684c-5.19436-5.7078-19.89517-24.75612-23.7832-30.81665-1.4166-2.20816-1.49409-2.83678-.39933-3.23953 5.65649-2.08094 45.41359-13.34275 58.35833-16.53088 33.10609-8.15364 62.55194-11.16634 89.75-9.18261 30.24425 2.2059 49.98104 6.35536 100.5213 21.13357 34.51537 10.09245 46.73376 13.20769 62.85984 16.02697 31.91725 5.58 58.42138 4.89035 92.97202-2.41918 11.34769-2.40072 20.73139-4.97383 69.30467-19.00408 10.6743-3.08325 19.77604-5.47957 20.22607-5.32517 1.19348.40945-11.04124 19.53291-20.65241 32.28072-8.15205 10.8125-23.37954 28.31953-25.76578 29.6229-.66864.36521-9.54071 2.73023-19.71571 5.25561-37.44133 9.2927-67.49157 12.1826-98.5 9.47262zm-4.5-63.96938c-22.61654-1.80924-43.99999-5.56762-90.5-15.90638-51.65534-11.485-71.55064-14.27348-102-14.29609-31.34154-.0233-50.21075 2.6608-107.34522 15.26947-24.85405 5.4849-32.66466 6.87298-33.72448 5.9934C47.66226 444.47481 32 412.94132 32 410.84899c0-1.11518 1.34114-1.76097 4.57863-2.20471 2.51825-.34517 18.60575-3.75017 35.75-7.56669C131.49913 387.90555 158.40991 384 190 384c31.71377 0 58.16996 3.83325 117.5 17.02463 51.65534 11.485 71.55064 14.27348 102 14.29609 31.27496.0232 50.16073-2.65682 107-15.18419 33.49076-7.38137 58.67122-12.29864 59.37503-11.59483.70288.70288-5.85913 18.3181-11.62977 31.21924-4.1347 9.24377-6.00854 12.3816-7.61477 12.75125C462.64483 454.1417 428.5917 458.52891 383 454.88175zm.5-55.95568c-21.74889-1.29975-45.20997-4.26754-82.5-10.43609C245.31272 379.27814 223.29925 377 189.97323 377 157.11384 377 132.93619 379.50373 79 388.49189 56.5593 392.23151 30.97836 396 28.03409 396c-1.91868 0-4.42854-6.35295-8.62966-21.84335-1.92038-7.08084-1.42924-8.11213 3.87727-8.14134 3.39486-.0187 31.00261-4.07341 54.7183-8.03643 93.2376-15.58049 130.7624-15.58049 224 0C353.47442 366.58053 377.18961 369 410.02677 369c33.27585 0 51.11995-1.82405 107.97323-11.03718 48.81833-7.91106 68.01531-10.22992 67.99094-8.21282-.0121.99856-4.4875 20.67937-5.85982 25.76869l-1.08364 4.01869-13.77374 1.82498c-7.57556 1.00373-25.69874 3.77523-40.27374 6.15888-70.26867 11.49202-99.97576 13.8864-141.5 11.40483zm-10-45.51613c-2.2-.20632-10.3-.85664-18-1.44517-7.7-.58852-27.725-2.6344-44.5-4.5464-75.47366-8.60242-94.65425-9.91504-133-9.10179-31.43598.66671-36.69594 1.08304-92 7.28192-45.41084 5.08998-70.07261 7.47466-71.05056 6.87025-.36125-.22326-1.21996-4.52678-1.90824-9.56336-1.44207-10.55254-1.2753-10.85769 5.9588-10.90287 5.06618-.0317 27.13386-2.30396 72-7.41385 50.82086-5.78808 55.70831-6.08867 99-6.08867 43.28487 0 48.15724.29955 99 6.08648 75.62114 8.60721 94.66708 9.90992 133 9.09694 31.6038-.67027 35.91547-1.0152 96-7.68006 42.08242-4.66798 65.12527-6.99225 69.3976-6.99994 1.78022-.003 1.85537.59738 1.21486 9.70928-.41034 5.83768-1.16742 10.02069-1.8976 10.48468-.66817.4246-3.14016.77889-5.4933.78731-5.19981.0186-23.96861 1.94025-63.72156 6.52411-54.12669 6.24129-59.70304 6.62557-101 6.96023-21.45.17382-40.8.14723-43-.0591zm-4-34.535c-10.45-.45252-39.7-2.40449-65-4.33771-67.0337-5.12215-75.40631-5.52746-114.28865-5.53258-38.6196-.005-48.13758.44909-114.71135 5.47377-24.75 1.86801-49.5 3.53706-55 3.70899l-10 .31259-.295-6.71965c-.35037-7.981-1.56099-7.38839 16.795-8.22124 6.875-.31193 32.63819-2.13165 57.25153-4.04383 88.78134-6.89728 122.15782-6.90313 211.48987-.03708C361.21042 304.51014 371.34668 305 410 305c38.33142 0 47.74968-.44914 114.5-5.46035 24.75-1.85808 49.6125-3.66023 55.25-4.00478l10.25-.62644v7.02673c0 8.31439 1.27437 7.67466-16.9377 8.50267-6.84073.31101-32.71573 2.12683-57.5 4.03516-70.25108 5.40917-101.23728 6.34302-146.0623 4.40195zm20-24.49914c-19.79867-.62131-46.74226-2.56443-88.5-6.38246-65.13286-5.95528-72.88304-6.4023-111-6.4023-38.33469 0-46.53693.47594-111.08739 6.44592-23.42306 2.16629-48.58229 4.24213-55.9094 4.61296l-13.322.67425.66172-6.33108c.36395-3.4821.85557-6.52493 1.0925-6.76184.2369-.23692 8.44836-1.0322 18.24766-1.76729S64.825 275.53879 86 273.59713c56.52916-5.18351 68.15265-5.83573 104-5.83573 36.25166 0 46.61745.5946 109 6.25244 66.79982 6.05847 71.98231 6.35773 110.5 6.3809 38.73772.0233 46.64994-.43175 111.5-6.41255 23.375-2.15576 47.94338-4.22227 54.5964-4.59224l12.0964-.67267.63995 2.39136c.35197 1.31525.64609 4.27629.6536 6.58009.0136 4.18174.007 4.1896-4.23635 4.71285-2.3375.28826-8.525.79392-13.75 1.12367s-28.85 2.35621-52.5 4.50325c-61.50466 5.58363-97.26513 7.34318-129 6.3473zm-19-24.47679c-15.33729-1.20645-47.74748-4.90682-81.5-9.30511-52.37886-6.82549-56.13672-7.09449-99-7.08692-43.65266.008-45.99739.18415-106 7.97577-28.05022 3.64245-52.66076 6.44726-68.75 7.83527-3.78168.32625-3.73006.59919-2.09698-11.08769.99633-7.13014 1.44435-8.3248 3.25127-8.66968 1.15264-.22001 9.29571-1.12824 18.09571-2.01829s29.5-3.38641 46-5.54746c54.93081-7.19446 76.70407-8.97213 110-8.98094 32.64634-.009 52.70113 1.6701 113 9.45899 61.03862 7.88444 62.9218 8.02705 106 8.02705 41.72962 0 45.28737-.2377 91.5-6.11316 38.3521-4.87608 65.16276-8.09835 74.12664-8.90899l7.62665-.68971 1.69153 9.20442c.93035 5.06242 1.43212 9.46383 1.11505 9.7809-.31707.31708-6.53525 1.17675-13.81818 1.9104-7.28293.73364-20.44169 2.259-29.24169 3.38969-8.8 1.13068-26.125 3.35379-38.5 4.94023-40.39794 5.1789-53.81972 6.16553-88.5 6.50558-18.15.17797-38.4-.10119-45-.62035zm20-27.9373c-21.00295-.98989-39.88158-3.21483-68-8.01412-12.65-2.15912-33.35-5.69937-46-7.86722-53.98384-9.2513-85.93821-10.90313-127.5-6.59088-17.19119 1.78367-31.94108 4.05824-70.5 10.87176-26.94296 4.76092-40.7932 6.95099-58.17908 9.19954l-4.17909.54049 3.33732-12.80064c4.60772-17.67347 4.80337-18.09317 8.72565-18.71794 8.0554-1.28312 53.12459-8.89057 71.48602-12.06648 67.55045-11.68395 111.40167-11.79833 177.80918-.46381 12.65 2.15912 33.35 5.69856 46 7.86542 68.21712 11.68514 104.09814 11.79337 170 .51278 11-1.88289 32.05619-5.49103 46.79153-8.01808 14.73534-2.52705 27.36554-4.37436 28.06712-4.10514.70159.26922 3.2304 6.27269 5.6196 13.34105 2.38919 7.06836 4.51391 13.334 4.72159 13.92364.23382.6639-3.34941 1.55634-9.41112 2.34395-5.3838.69952-18.56372 2.80908-29.28872 4.68792-75.20842 13.17522-84.42067 14.34683-124 15.77021-5.225.18791-16.7.002-25.5-.41245zm6-37.57796c-13.69818-.80717-29.89278-2.63813-44-4.97465-14.64541-2.42565-24.21753-4.51294-72.63471-15.83864-43.36355-10.14356-67.52929-13.18447-97.72745-12.29758-28.24563.82954-45.42429 3.63183-96.73863 15.78063-34.33367 8.12858-55.2453 12.43373-56.12448 11.55455-1.74678-1.74677 17.82813-42.29555 21.04615-43.59643 2.90218-1.1732 46.5029-11.40606 64.42878-15.1211 48.2549-10.00055 86.44277-10.94826 132.75034-3.29447 14.64346 2.42029 24.18898 4.5011 72.63471 15.83348 43.72975 10.22922 67.65199 13.21332 98.27512 12.25901 27.90794-.8697 46.29968-3.86499 96.09017-15.64931 13.75-3.25432 25.8621-6.05697 26.91578-6.2281 1.45785-.23677 3.07489 1.60114 6.7649 7.68886 8.53395 14.07921 15.05975 27.47713 13.61947 27.96174-.71508.24061-11.20015 2.73055-23.30015 5.53321-61.63169 14.27543-69.11232 15.76187-92.5 18.38015-14.18251 1.58776-39.32704 2.60809-49.5 2.00865zm2-46.98902c-33.30776-2.38914-53.53837-6.75951-106-22.89889-55.85187-17.18237-69.99898-19.93362-102.5-19.93362-32.47906 0-46.89404 2.82532-103.92512 20.36916-16.18381 4.97844-29.57904 8.89779-29.76718 8.70966-.60562-.60563 14.21554-20.843 22.46543-30.67515 4.3999-5.24375 13.84594-15.16628 20.9912-22.05005C114.20388 77.0047 111.35616 78.4327 134.5 73.49758c18.9038-4.03099 35.59179-5.7602 55.5-5.75093 35.29838.01644 57.79938 4.37366 117.48765 22.75097 49.65437 15.28799 68.30172 19.25255 95.05993 20.21044 26.2864.941 47.45532-2.12578 82.3414-11.92895l18.38897-5.1674 7.7235 8.0192c7.91887 8.22204 25.25746 29.44351 24.59638 30.10459-1.76241 1.76241-55.33461 16.84502-71.59783 20.15752-19.31031 3.93312-50.65882 6.56626-65.5 5.50171zm-16.34199-55.00491C360.60448 99.46279 338.66096 93.4024 310 82.46113c-46.9098-17.90773-56.96398-21.63415-64.91279-24.0589-25.0996-7.65653-47.53757-10.48773-67.83721-8.55964-7.0125.66607-16.76514 2.09632-21.67253 3.17836-4.90739 1.08203-9.06279 1.82706-9.23423 1.65562-.39557-.39557 17.22447-10.52268 25.15676-14.45885 29.13649-14.4581 63.62625-24.51982 96.32422-28.1007l8.32423-.91162 15.17577 5.79287C299.6709 20.18435 313.7 25.57172 322.5 28.9702c49.94705 19.28913 78.32098 24.10975 111.55664 18.95306l7.06622-1.09636 9.18857 5.50307c5.05371 3.0267 12.85199 8.12814 17.32951 11.33655C477.99532 71.08606 496 85.94612 496 87.07251c0 2.3803-41.0651 13.04638-59.30122 15.40266-14.47006 1.86967-40.44404 1.82903-54.54077-.0854zM389.5 42.83455c-24.76156-2.7976-60.40253-14.46861-89-29.144l-7-3.59218 6-.04512c10.28194-.07732 33.42359 1.92948 47 4.07574 27.50594 4.34834 59.3991 14.4719 81 25.71107l5 2.60156-5.5.68029c-7.66837.9485-27.93609.79319-37.5-.28736z"/><path fill="#94b47a" d="M278 589.30063c-24.88066-1.93493-55.52506-8.60862-77.89294-16.96339-19.89344-7.43053-48.99188-21.85242-47.36771-23.47659C154.21672 547.38328 177.21868 545 190 545c37.15852 0 69.15758 9.43978 127.5 37.61271l12 5.79467-6.5.67943c-6.66544.69671-36.94079.84057-45 .21382zm60-8.30018c-13.45482-4.14016-21.72551-7.06501-57.77044-20.42992-24.64994-9.13983-40.84867-14.14374-57.52815-17.77087-8.75871-1.90467-13.31269-2.22415-32.20141-2.25903-19.46638-.0359-23.35499.23812-33.76564 2.37983l-11.76564 2.42047-8.53363-5.8564c-16.45688-11.29392-43.24134-34.13227-41.70486-35.56056 1.28223-1.19195 24.96129-8.57447 38.26977-11.93153 38.17567-9.62979 76.20384-9.62293 114.5.0206 13.78504 3.47129 38.85648 11.92744 72.27044 24.37552 24.52141 9.13523 40.92997 14.21975 57.00923 17.66544 12.60712 2.70163 40.01866 3.71517 53.88547 1.99242 10.51656-1.30654 35.07261-7.27207 47.25368-11.47959 4.08035-1.40942 7.59574-2.38565 7.81198-2.16941.64857.64856-21.49944 16.90857-32.21955 23.65405C433.94516 558.36322 406.4616 570.93449 385 577.38929c-11.27048 3.38971-29.41631 7.62995-32.24177 7.53411-1.24203-.04213-7.88323-1.80745-14.75823-3.92295zm49.5-62.14932c-25.20497-2.20278-47.55996-7.13325-94.2713-20.79187-34.51537-10.09245-46.73376-13.20769-62.85984-16.02697-40.18552-7.02552-72.17318-4.36483-123.76769 10.29483l-18.74677 5.32656-5.5302-6.07684c-5.19436-5.7078-19.89517-24.75612-23.7832-30.81665-1.4166-2.20816-1.49409-2.83678-.39933-3.23953 5.65649-2.08094 45.41359-13.34275 58.35833-16.53088 33.10609-8.15364 62.55194-11.16634 89.75-9.18261 30.24425 2.2059 49.98104 6.35536 100.5213 21.13357 34.51537 10.09245 46.73376 13.20769 62.85984 16.02697 31.91725 5.58 58.42138 4.89035 92.97202-2.41918 11.34769-2.40072 20.73139-4.97383 69.30467-19.00408 10.6743-3.08325 19.77604-5.47957 20.22607-5.32517 1.19348.40945-11.04124 19.53291-20.65241 32.28072-8.15205 10.8125-23.37954 28.31953-25.76578 29.6229-.66864.36521-9.54071 2.73023-19.71571 5.25561-37.44133 9.2927-67.49157 12.1826-98.5 9.47262zm-4.5-63.96938c-22.61654-1.80924-43.99999-5.56762-90.5-15.90638-51.65534-11.485-71.55064-14.27348-102-14.29609-31.34154-.0233-50.21075 2.6608-107.34522 15.26947-24.85405 5.4849-32.66466 6.87298-33.72448 5.9934C47.66226 444.47481 32 412.94132 32 410.84899c0-1.11518 1.34114-1.76097 4.57863-2.20471 2.51825-.34517 18.60575-3.75017 35.75-7.56669C131.49913 387.90555 158.40991 384 190 384c31.71377 0 58.16996 3.83325 117.5 17.02463 51.65534 11.485 71.55064 14.27348 102 14.29609 31.27496.0232 50.16073-2.65682 107-15.18419 33.49076-7.38137 58.67122-12.29864 59.37503-11.59483.70288.70288-5.85913 18.3181-11.62977 31.21924-4.1347 9.24377-6.00854 12.3816-7.61477 12.75125C462.64483 454.1417 428.5917 458.52891 383 454.88175zm.5-55.95568c-21.74889-1.29975-45.20997-4.26754-82.5-10.43609C245.31272 379.27814 223.29925 377 189.97323 377 157.11384 377 132.93619 379.50373 79 388.49189 56.5593 392.23151 30.97836 396 28.03409 396c-1.91868 0-4.42854-6.35295-8.62966-21.84335-1.92038-7.08084-1.42924-8.11213 3.87727-8.14134 3.39486-.0187 31.00261-4.07341 54.7183-8.03643 93.2376-15.58049 130.7624-15.58049 224 0C353.47442 366.58053 377.18961 369 410.02677 369c33.27585 0 51.11995-1.82405 107.97323-11.03718 48.81833-7.91106 68.01531-10.22992 67.99094-8.21282-.0121.99856-4.4875 20.67937-5.85982 25.76869l-1.08364 4.01869-13.77374 1.82498c-7.57556 1.00373-25.69874 3.77523-40.27374 6.15888-70.26867 11.49202-99.97576 13.8864-141.5 11.40483zm-10-45.51613c-2.2-.20632-10.3-.85664-18-1.44517-7.7-.58852-27.725-2.6344-44.5-4.5464-75.47366-8.60242-94.65425-9.91504-133-9.10179-31.43598.66671-36.69594 1.08304-92 7.28192-45.41084 5.08998-70.07261 7.47466-71.05056 6.87025-.36125-.22326-1.21996-4.52678-1.90824-9.56336-1.44207-10.55254-1.2753-10.85769 5.9588-10.90287 5.06618-.0317 27.13386-2.30396 72-7.41385 50.82086-5.78808 55.70831-6.08867 99-6.08867 43.28487 0 48.15724.29955 99 6.08648 75.62114 8.60721 94.66708 9.90992 133 9.09694 31.6038-.67027 35.91547-1.0152 96-7.68006 42.08242-4.66798 65.12527-6.99225 69.3976-6.99994 1.78022-.003 1.85537.59738 1.21486 9.70928-.41034 5.83768-1.16742 10.02069-1.8976 10.48468-.66817.4246-3.14016.77889-5.4933.78731-5.19981.0186-23.96861 1.94025-63.72156 6.52411-54.12669 6.24129-59.70304 6.62557-101 6.96023-21.45.17382-40.8.14723-43-.0591zm-4-34.535c-10.45-.45252-39.7-2.40449-65-4.33771-67.0337-5.12215-75.40631-5.52746-114.28865-5.53258-38.6196-.005-48.13758.44909-114.71135 5.47377-24.75 1.86801-49.5 3.53706-55 3.70899l-10 .31259-.295-6.71965c-.35037-7.981-1.56099-7.38839 16.795-8.22124 6.875-.31193 32.63819-2.13165 57.25153-4.04383 88.78134-6.89728 122.15782-6.90313 211.48987-.03708C361.21042 304.51014 371.34668 305 410 305c38.33142 0 47.74968-.44914 114.5-5.46035 24.75-1.85808 49.6125-3.66023 55.25-4.00478l10.25-.62644v7.02673c0 8.31439 1.27437 7.67466-16.9377 8.50267-6.84073.31101-32.71573 2.12683-57.5 4.03516-70.25108 5.40917-101.23728 6.34302-146.0623 4.40195zm0-25.49274c-35.05041-2.61607-50.71566-3.9141-77-6.38026-54.19901-5.08528-61.56159-5.47882-102.5-5.47882-40.93611 0-47.93123.37404-103 5.50767C46.16392 290.83761 19.94592 293 14.62591 293h-4.25353l.4337-6.25c.23855-3.4375.50004-6.33278.5811-6.43396.08108-.10117 6.88962-.68736 15.13011-1.30262 8.24049-.61527 28.93271-2.42385 45.98271-4.01906 68.64119-6.42212 69.37888-6.46269 117.5-6.46269 48.13515 0 49.02683.0491 117.5 6.46865 54.23357 5.08456 61.5703 5.47656 102.5 5.47656 40.95074 0 48.3497-.39572 102.5-5.48203 41.6338-3.91064 74.36813-6.46005 74.98798-5.8402.27905.27904.79751 3.2834 1.15214 6.67635.5136 4.91379.36147 6.16904-.74766 6.1692-3.51617.0005-42.91115 3.27172-66.39246 5.51298-55.55278 5.30246-62.22814 5.68165-105 5.96448-23.1.15275-44.25.10979-47-.0955zm6-23.40071c-19.91142-1.45038-42.24941-3.90016-77.5-8.49933-43.24826-5.64264-58.82114-7.21827-84.5-8.5495-30.93336-1.60363-67.1937.28158-109 5.66702-68.14263 8.77805-90.918 11.31565-91.98487 10.24879-.70391-.70392 1.50566-17.1474 2.43863-18.14811.41004-.4398 7.00068-1.45337 14.64588-2.25237 7.6452-.799 29.42536-3.46283 48.40036-5.91963 98.59971-12.76626 125.6408-12.76715 224-.007 93.57682 12.13933 122.98434 12.19887 212.62367.43051 42.02292-5.51701 66.58567-8.14943 67.45801-7.22956.78569.82849 4.09009 17.43969 3.57223 17.95755-.16855.16854-6.79713.98671-14.73018 1.81814-7.93305.83143-23.19873 2.65617-33.92373 4.05498-40.3759 5.26605-57.99643 7.38117-74.5 8.94277-19.94044 1.8868-69.80572 2.73862-87 1.48617zm.5-29.01629c-16.7229-1.55099-34.96959-4.04177-55.5-7.57609-90.25349-15.53718-92.56428-15.81706-130.5-15.80586-37.74511.0111-41.54823.47263-130.5 15.83588-24.10743 4.1637-41.88874 6.461-42.30758 5.46603-.29977-.7121 3.38876-15.869 6.05598-24.88516l1.33121-4.5 10.9602-1.74779c6.0281-.96129 25.13519-4.22192 42.46019-7.24586 58.62212-10.232 69.15072-11.47986 103-12.20761 34.45911-.74087 56.60065 1.12537 98.5 8.30223 92.5317 15.84959 92.34563 15.82704 130.5 15.81578 37.88706-.0112 38.14836-.0428 130.5-15.79238 11-1.87593 21.87346-3.68292 24.16325-4.01552l4.16325-.60474 3.07377 8.0494c4.34581 11.38051 6.44086 19.02418 5.44975 19.88304-.46751.40513-6.25002 1.5114-12.85002 2.45837-6.6.94698-25.725 4.13606-42.5 7.08684-60.19569 10.58864-69.32107 11.61507-107 12.03542-16.225.18101-33.775-.0674-39-.55198zm20.5-36.58145c-13.69818-.80717-29.89278-2.63813-44-4.97465-14.64541-2.42565-24.21753-4.51294-72.63471-15.83864-43.36355-10.14356-67.52929-13.18447-97.72745-12.29758-28.24563.82954-45.42429 3.63183-96.73863 15.78063-34.33367 8.12858-55.2453 12.43373-56.12448 11.55455-1.74678-1.74677 17.82813-42.29555 21.04615-43.59643 2.90218-1.1732 46.5029-11.40606 64.42878-15.1211 48.2549-10.00055 86.44277-10.94826 132.75034-3.29447 14.64346 2.42029 24.18898 4.5011 72.63471 15.83348 43.72975 10.22922 67.65199 13.21332 98.27512 12.25901 27.90794-.8697 46.29968-3.86499 96.09017-15.64931 13.75-3.25432 25.8621-6.05697 26.91578-6.2281 1.45785-.23677 3.07489 1.60114 6.7649 7.68886 8.53395 14.07921 15.05975 27.47713 13.61947 27.96174-.71508.24061-11.20015 2.73055-23.30015 5.53321-61.63169 14.27543-69.11232 15.76187-92.5 18.38015-14.18251 1.58776-39.32704 2.60809-49.5 2.00865zm2-46.98902c-33.30776-2.38914-53.53837-6.75951-106-22.89889-55.85187-17.18237-69.99898-19.93362-102.5-19.93362-32.47906 0-46.89404 2.82532-103.92512 20.36916-16.18381 4.97844-29.57904 8.89779-29.76718 8.70966-.60562-.60563 14.21554-20.843 22.46543-30.67515 4.3999-5.24375 13.84594-15.16628 20.9912-22.05005C114.20388 77.0047 111.35616 78.4327 134.5 73.49758c18.9038-4.03099 35.59179-5.7602 55.5-5.75093 35.29838.01644 57.79938 4.37366 117.48765 22.75097 49.65437 15.28799 68.30172 19.25255 95.05993 20.21044 26.2864.941 47.45532-2.12578 82.3414-11.92895l18.38897-5.1674 7.7235 8.0192c7.91887 8.22204 25.25746 29.44351 24.59638 30.10459-1.76241 1.76241-55.33461 16.84502-71.59783 20.15752-19.31031 3.93312-50.65882 6.56626-65.5 5.50171zm-16.34199-55.00491C360.60448 99.46279 338.66096 93.4024 310 82.46113c-46.9098-17.90773-56.96398-21.63415-64.91279-24.0589-25.0996-7.65653-47.53757-10.48773-67.83721-8.55964-7.0125.66607-16.76514 2.09632-21.67253 3.17836-4.90739 1.08203-9.06279 1.82706-9.23423 1.65562-.39557-.39557 17.22447-10.52268 25.15676-14.45885 29.13649-14.4581 63.62625-24.51982 96.32422-28.1007l8.32423-.91162 15.17577 5.79287C299.6709 20.18435 313.7 25.57172 322.5 28.9702c49.94705 19.28913 78.32098 24.10975 111.55664 18.95306l7.06622-1.09636 9.18857 5.50307c5.05371 3.0267 12.85199 8.12814 17.32951 11.33655C477.99532 71.08606 496 85.94612 496 87.07251c0 2.3803-41.0651 13.04638-59.30122 15.40266-14.47006 1.86967-40.44404 1.82903-54.54077-.0854zM389.5 42.83455c-24.76156-2.7976-60.40253-14.46861-89-29.144l-7-3.59218 6-.04512c10.28194-.07732 33.42359 1.92948 47 4.07574 27.50594 4.34834 59.3991 14.4719 81 25.71107l5 2.60156-5.5.68029c-7.66837.9485-27.93609.79319-37.5-.28736z"/><path fill="#9457b1" d="M276.53125 588.87758c-23.33458-1.78813-51.45937-7.90993-75.06312-16.33864-15.78999-5.63849-50.34749-22.47973-48.34519-23.56053 7.18804-3.87998 49.96394-4.61012 68.87706-1.17565 15.89011 2.88551 33.7956 8.19204 51.34957 15.21814 16.10606 6.44657 54.57464 24.10718 54.62153 25.07631.0834 1.7237-32.6495 2.22027-51.43985.78037zM348 583.76066c-14.12648-4.17809-37.96857-12.32112-56.92119-19.44089-38.67179-14.52748-55.90225-19.73746-75.12176-22.71457-21.45036-3.32267-38.69059-2.88982-60.62444 1.5221l-10.1674 2.04513-7.3326-4.95796c-17.44434-11.79502-43.9476-34.59518-42.12943-36.24299 1.21732-1.10326 24.55491-8.58915 35.69684-11.4503 22.78236-5.85033 32.24774-6.97405 58.59998-6.95694 18.78208.0122 26.83385.42378 34.5 1.76359 23.24393 4.0623 46.29363 10.97732 84.14755 25.24468 52.6522 19.84491 72.61004 24.71085 101.35245 24.71085 21.51764 0 39.58005-3.24605 64.98-11.67777 5.764-1.91341 10.59852-3.3604 10.74339-3.21553.14486.14486-4.57114 3.90512-10.48 8.35614-33.5425 25.26681-70.98509 42.76343-110.74339 51.74949-12.18244 2.75344-11.61453 2.7099-16.5 1.26497zm49.5-64.38732c-29.4671-1.74377-52.50429-6.44254-100.5-20.49848-60.62119-17.7534-83.6329-21.86078-115-20.52642-23.88635 1.01613-42.40978 4.40497-75.89943 13.88571l-18.39943 5.20878-4.44706-4.97146c-5.73384-6.40999-17.42268-21.38128-22.3652-28.6458l-3.86062-5.67432 4.73587-1.53002c2.60473-.84151 13.28587-3.99895 23.73587-7.01654 47.93185-13.84101 71.36075-17.84095 104.5-17.84095 35.62063 0 59.02971 4.34934 119.5 22.20273 86.36912 25.49984 114.70705 25.49902 201-.006 29.93383-8.84727 41.5-11.91652 41.5-11.01262 0 1.54976-14.96096 24.15242-22.47769 33.95874-4.21059 5.49315-11.33813 13.869-15.83897 18.61301L505.5 504.14518l-11 2.94035c-34.27784 9.16265-71.06317 13.82249-97 12.28763zm-5.5-64.42328c-26.92059-1.46358-47.45546-4.82671-97.81064-16.0191-55.99566-12.4461-70.55116-14.44317-104.68936-14.36378-35.04878.0815-48.06733 1.92853-108 15.32256-28.48473 6.36591-31.10544 6.79343-32.29948 5.26914-1.6991-2.16904-14.55396-27.86539-15.96535-31.91412l-1.09206-3.13267 5.67845-1.14041c3.12314-.62723 20.75344-4.44673 39.17844-8.4878 50.92886-11.16998 68.60679-13.99372 96.33716-15.38817 38.82046-1.95213 67.24661 1.47543 132.47348 15.97333 55.59478 12.357 70.52181 14.41944 104.18936 14.39567 33.86868-.0239 48.8311-2.09124 104.18936-14.39567C543.53809 394.54574 571.27321 389 574.54861 389c1.08016 0 .61848 2.19122-1.94894 9.25-3.9 10.72252-12.1707 29.80902-13.90824 32.09638C557.4906 431.9272 502.4945 444.56876 478 448.89434c-31.67022 5.59278-59.05137 7.52083-86 6.05572zm-18-57.07862c-16.8052-1.36086-40.04914-4.51063-76.5-10.36645-45.69714-7.34124-61.15138-9.25505-86.25-10.68091-35.47676-2.01545-64.38961.28247-122.75 9.75587-29.59022 4.80326-61.73752 9.51587-62.1435 9.10988-.44548-.44548-8.36715-28.01316-8.11006-28.22328.13946-.11397 7.45356-1.18772 16.25356-2.3861 8.8-1.19839 29.725-4.39877 46.5-7.11197C135.15834 349.20887 157.10911 347 190 347c33.33368 0 54.18266 2.1306 112.5 11.49658 45.70934 7.34109 61.15692 9.25379 86.25 10.67934 35.89124 2.039 63.91642-.22955 125.25-10.13858 28.1734-4.55168 50.8327-7.8563 65.39071-9.53653l5.89071-.67988-.6533 4.83953c-.68693 5.08872-5.28485 24.32961-5.9801 25.02485-.22291.22291-7.9974 1.48177-17.27666 2.79745-9.27925 1.31569-29.47136 4.4374-44.87136 6.93714-32.39675 5.25866-53.49014 8.03101-72.44989 9.52223-15.4761 1.21724-54.63351 1.17772-70.05011-.0707zm7-44.53776c-18.26668-.98428-40.05224-3.02662-83.5-7.82793-61.20646-6.76379-73.29072-7.62041-107.5-7.62041-34.23101 0-46.33074.85866-107.5 7.62876-26.95 2.98277-53.11338 5.72318-58.14084 6.0898l-9.14084.66658-.58992-2.88524c-.97645-4.77578-2.59493-15.75405-2.35366-15.96513.1239-.10839 8.32526-.93916 18.22526-1.84616 9.9-.90701 29.25-2.97151 43-4.58779 64.773-7.61391 93.79733-9.54436 130-8.64648 29.10949.72195 43.12416 1.88897 103.5 8.61855 56.18152 6.26207 69.05377 7.15643 103 7.15643 33.97513 0 46.83869-.89512 103.12471-7.17604 43.97034-4.90662 75.04612-7.9317 75.71907-7.37089.42374.35313-1.46031 18.38391-1.97396 18.89121-.2034.20089-8.24482 1.10257-17.86982 2.00373s-32.8 3.39273-51.5 5.53682c-39.62665 4.54347-51.04381 5.6294-73.5 6.99086-14.94898.90632-49.09794 1.09242-63 .34333zm-24-35.44798c-7.975-.45112-26.2-1.74671-40.5-2.87907-117.55178-9.30852-135.88994-9.30906-252.68203-.007-13.57511 1.08116-30.947 2.2648-38.6042 2.63033l-13.92217.6646-.70735-6.25216c-.38904-3.43916-.56715-6.38352-.3958-6.54349.17135-.15997 8.41155-.81148 18.31155-1.44778 9.9-.63631 34.65-2.46018 55-4.05305 59.00085-4.6182 77.00868-5.31509 121-4.68264 37.18164.53456 50.40136 1.23167 98 5.16783 90.82282 7.51057 123.33758 7.30094 233.9995-1.50868 13.74972-1.09459 31.41222-2.28155 39.25-2.63768L590 295.68939v6.6553c0 6.59012-.0269 6.65545-2.75 6.66995-4.31963.023-42.72614 2.73161-77.25 5.44803-17.325 1.36317-39.825 2.94147-50 3.50733-21.20214 1.17912-81.53837 1.12974-103-.0843zm12.5-24.5035c-35.05041-2.61607-50.71566-3.9141-77-6.38026-54.19901-5.08528-61.56159-5.47882-102.5-5.47882-40.93611 0-47.93123.37404-103 5.50767C46.16392 290.83761 19.94592 293 14.62591 293h-4.25353l.4337-6.25c.23855-3.4375.50004-6.33278.5811-6.43396.08108-.10117 6.88962-.68736 15.13011-1.30262 8.24049-.61527 28.93271-2.42385 45.98271-4.01906 68.64119-6.42212 69.37888-6.46269 117.5-6.46269 48.13515 0 49.02683.0491 117.5 6.46865 54.23357 5.08456 61.5703 5.47656 102.5 5.47656 40.95074 0 48.3497-.39572 102.5-5.48203 41.6338-3.91064 74.36813-6.46005 74.98798-5.8402.27905.27904.79751 3.2834 1.15214 6.67635.5136 4.91379.36147 6.16904-.74766 6.1692-3.51617.0005-42.91115 3.27172-66.39246 5.51298-55.55278 5.30246-62.22814 5.68165-105 5.96448-23.1.15275-44.25.10979-47-.0955zm6-23.40071c-19.91142-1.45038-42.24941-3.90016-77.5-8.49933-43.24826-5.64264-58.82114-7.21827-84.5-8.5495-30.93336-1.60363-67.1937.28158-109 5.66702-68.14263 8.77805-90.918 11.31565-91.98487 10.24879-.70391-.70392 1.50566-17.1474 2.43863-18.14811.41004-.4398 7.00068-1.45337 14.64588-2.25237 7.6452-.799 29.42536-3.46283 48.40036-5.91963 98.59971-12.76626 125.6408-12.76715 224-.007 93.57682 12.13933 122.98434 12.19887 212.62367.43051 42.02292-5.51701 66.58567-8.14943 67.45801-7.22956.78569.82849 4.09009 17.43969 3.57223 17.95755-.16855.16854-6.79713.98671-14.73018 1.81814-7.93305.83143-23.19873 2.65617-33.92373 4.05498-40.3759 5.26605-57.99643 7.38117-74.5 8.94277-19.94044 1.8868-69.80572 2.73862-87 1.48617zm.5-29.01629c-16.7229-1.55099-34.96959-4.04177-55.5-7.57609-90.25349-15.53718-92.56428-15.81706-130.5-15.80586-37.74511.0111-41.54823.47263-130.5 15.83588-24.10743 4.1637-41.88874 6.461-42.30758 5.46603-.29977-.7121 3.38876-15.869 6.05598-24.88516l1.33121-4.5 10.9602-1.74779c6.0281-.96129 25.13519-4.22192 42.46019-7.24586 58.62212-10.232 69.15072-11.47986 103-12.20761 34.45911-.74087 56.60065 1.12537 98.5 8.30223 92.5317 15.84959 92.34563 15.82704 130.5 15.81578 37.88706-.0112 38.14836-.0428 130.5-15.79238 11-1.87593 21.87346-3.68292 24.16325-4.01552l4.16325-.60474 3.07377 8.0494c4.34581 11.38051 6.44086 19.02418 5.44975 19.88304-.46751.40513-6.25002 1.5114-12.85002 2.45837-6.6.94698-25.725 4.13606-42.5 7.08684-60.19569 10.58864-69.32107 11.61507-107 12.03542-16.225.18101-33.775-.0674-39-.55198zm20.5-36.58145c-13.69818-.80717-29.89278-2.63813-44-4.97465-14.64541-2.42565-24.21753-4.51294-72.63471-15.83864-43.36355-10.14356-67.52929-13.18447-97.72745-12.29758-28.24563.82954-45.42429 3.63183-96.73863 15.78063-34.33367 8.12858-55.2453 12.43373-56.12448 11.55455-1.74678-1.74677 17.82813-42.29555 21.04615-43.59643 2.90218-1.1732 46.5029-11.40606 64.42878-15.1211 48.2549-10.00055 86.44277-10.94826 132.75034-3.29447 14.64346 2.42029 24.18898 4.5011 72.63471 15.83348 43.72975 10.22922 67.65199 13.21332 98.27512 12.25901 27.90794-.8697 46.29968-3.86499 96.09017-15.64931 13.75-3.25432 25.8621-6.05697 26.91578-6.2281 1.45785-.23677 3.07489 1.60114 6.7649 7.68886 8.53395 14.07921 15.05975 27.47713 13.61947 27.96174-.71508.24061-11.20015 2.73055-23.30015 5.53321-61.63169 14.27543-69.11232 15.76187-92.5 18.38015-14.18251 1.58776-39.32704 2.60809-49.5 2.00865zm2-46.98902c-33.30776-2.38914-53.53837-6.75951-106-22.89889-55.85187-17.18237-69.99898-19.93362-102.5-19.93362-32.47906 0-46.89404 2.82532-103.92512 20.36916-16.18381 4.97844-29.57904 8.89779-29.76718 8.70966-.60562-.60563 14.21554-20.843 22.46543-30.67515 4.3999-5.24375 13.84594-15.16628 20.9912-22.05005C114.20388 77.0047 111.35616 78.4327 134.5 73.49758c18.9038-4.03099 35.59179-5.7602 55.5-5.75093 35.29838.01644 57.79938 4.37366 117.48765 22.75097 49.65437 15.28799 68.30172 19.25255 95.05993 20.21044 26.2864.941 47.45532-2.12578 82.3414-11.92895l18.38897-5.1674 7.7235 8.0192c7.91887 8.22204 25.25746 29.44351 24.59638 30.10459-1.76241 1.76241-55.33461 16.84502-71.59783 20.15752-19.31031 3.93312-50.65882 6.56626-65.5 5.50171zm-16.34199-55.00491C360.60448 99.46279 338.66096 93.4024 310 82.46113c-46.9098-17.90773-56.96398-21.63415-64.91279-24.0589-25.0996-7.65653-47.53757-10.48773-67.83721-8.55964-7.0125.66607-16.76514 2.09632-21.67253 3.17836-4.90739 1.08203-9.06279 1.82706-9.23423 1.65562-.39557-.39557 17.22447-10.52268 25.15676-14.45885 29.13649-14.4581 63.62625-24.51982 96.32422-28.1007l8.32423-.91162 15.17577 5.79287C299.6709 20.18435 313.7 25.57172 322.5 28.9702c49.94705 19.28913 78.32098 24.10975 111.55664 18.95306l7.06622-1.09636 9.18857 5.50307c5.05371 3.0267 12.85199 8.12814 17.32951 11.33655C477.99532 71.08606 496 85.94612 496 87.07251c0 2.3803-41.0651 13.04638-59.30122 15.40266-14.47006 1.86967-40.44404 1.82903-54.54077-.0854zM389.5 42.83455c-24.76156-2.7976-60.40253-14.46861-89-29.144l-7-3.59218 6-.04512c10.28194-.07732 33.42359 1.92948 47 4.07574 27.50594 4.34834 59.3991 14.4719 81 25.71107l5 2.60156-5.5.68029c-7.66837.9485-27.93609.79319-37.5-.28736z"/><path fill="#3f62d7" d="M276.53125 588.87758c-23.33458-1.78813-51.45937-7.90993-75.06312-16.33864-15.78999-5.63849-50.34749-22.47973-48.34519-23.56053 7.18804-3.87998 49.96394-4.61012 68.87706-1.17565 15.89011 2.88551 33.7956 8.19204 51.34957 15.21814 16.10606 6.44657 54.57464 24.10718 54.62153 25.07631.0834 1.7237-32.6495 2.22027-51.43985.78037zM348 583.76066c-14.12648-4.17809-37.96857-12.32112-56.92119-19.44089-38.67179-14.52748-55.90225-19.73746-75.12176-22.71457-21.45036-3.32267-38.69059-2.88982-60.62444 1.5221l-10.1674 2.04513-7.3326-4.95796c-17.44434-11.79502-43.9476-34.59518-42.12943-36.24299 1.21732-1.10326 24.55491-8.58915 35.69684-11.4503 22.78236-5.85033 32.24774-6.97405 58.59998-6.95694 18.78208.0122 26.83385.42378 34.5 1.76359 23.24393 4.0623 46.29363 10.97732 84.14755 25.24468 52.6522 19.84491 72.61004 24.71085 101.35245 24.71085 21.51764 0 39.58005-3.24605 64.98-11.67777 5.764-1.91341 10.59852-3.3604 10.74339-3.21553.14486.14486-4.57114 3.90512-10.48 8.35614-33.5425 25.26681-70.98509 42.76343-110.74339 51.74949-12.18244 2.75344-11.61453 2.7099-16.5 1.26497zm49.5-64.38732c-29.4671-1.74377-52.50429-6.44254-100.5-20.49848-60.62119-17.7534-83.6329-21.86078-115-20.52642-23.88635 1.01613-42.40978 4.40497-75.89943 13.88571l-18.39943 5.20878-4.44706-4.97146c-5.73384-6.40999-17.42268-21.38128-22.3652-28.6458l-3.86062-5.67432 4.73587-1.53002c2.60473-.84151 13.28587-3.99895 23.73587-7.01654 47.93185-13.84101 71.36075-17.84095 104.5-17.84095 35.62063 0 59.02971 4.34934 119.5 22.20273 86.36912 25.49984 114.70705 25.49902 201-.006 29.93383-8.84727 41.5-11.91652 41.5-11.01262 0 1.54976-14.96096 24.15242-22.47769 33.95874-4.21059 5.49315-11.33813 13.869-15.83897 18.61301L505.5 504.14518l-11 2.94035c-34.27784 9.16265-71.06317 13.82249-97 12.28763zm-5.5-64.42328c-26.92059-1.46358-47.45546-4.82671-97.81064-16.0191-55.99566-12.4461-70.55116-14.44317-104.68936-14.36378-35.04878.0815-48.06733 1.92853-108 15.32256-28.48473 6.36591-31.10544 6.79343-32.29948 5.26914-1.6991-2.16904-14.55396-27.86539-15.96535-31.91412l-1.09206-3.13267 5.67845-1.14041c3.12314-.62723 20.75344-4.44673 39.17844-8.4878 50.92886-11.16998 68.60679-13.99372 96.33716-15.38817 38.82046-1.95213 67.24661 1.47543 132.47348 15.97333 55.59478 12.357 70.52181 14.41944 104.18936 14.39567 33.86868-.0239 48.8311-2.09124 104.18936-14.39567C543.53809 394.54574 571.27321 389 574.54861 389c1.08016 0 .61848 2.19122-1.94894 9.25-3.9 10.72252-12.1707 29.80902-13.90824 32.09638C557.4906 431.9272 502.4945 444.56876 478 448.89434c-31.67022 5.59278-59.05137 7.52083-86 6.05572zm-18-57.07862c-16.8052-1.36086-40.04914-4.51063-76.5-10.36645-45.69714-7.34124-61.15138-9.25505-86.25-10.68091-35.47676-2.01545-64.38961.28247-122.75 9.75587-29.59022 4.80326-61.73752 9.51587-62.1435 9.10988-.44548-.44548-8.36715-28.01316-8.11006-28.22328.13946-.11397 7.45356-1.18772 16.25356-2.3861 8.8-1.19839 29.725-4.39877 46.5-7.11197C135.15834 349.20887 157.10911 347 190 347c33.33368 0 54.18266 2.1306 112.5 11.49658 45.70934 7.34109 61.15692 9.25379 86.25 10.67934 35.89124 2.039 63.91642-.22955 125.25-10.13858 28.1734-4.55168 50.8327-7.8563 65.39071-9.53653l5.89071-.67988-.6533 4.83953c-.68693 5.08872-5.28485 24.32961-5.9801 25.02485-.22291.22291-7.9974 1.48177-17.27666 2.79745-9.27925 1.31569-29.47136 4.4374-44.87136 6.93714-32.39675 5.25866-53.49014 8.03101-72.44989 9.52223-15.4761 1.21724-54.63351 1.17772-70.05011-.0707zm7-44.53776c-18.26668-.98428-40.05224-3.02662-83.5-7.82793-61.20646-6.76379-73.29072-7.62041-107.5-7.62041-34.23101 0-46.33074.85866-107.5 7.62876-26.95 2.98277-53.11338 5.72318-58.14084 6.0898l-9.14084.66658-.58992-2.88524c-.97645-4.77578-2.59493-15.75405-2.35366-15.96513.1239-.10839 8.32526-.93916 18.22526-1.84616 9.9-.90701 29.25-2.97151 43-4.58779 64.773-7.61391 93.79733-9.54436 130-8.64648 29.10949.72195 43.12416 1.88897 103.5 8.61855 56.18152 6.26207 69.05377 7.15643 103 7.15643 33.97513 0 46.83869-.89512 103.12471-7.17604 43.97034-4.90662 75.04612-7.9317 75.71907-7.37089.42374.35313-1.46031 18.38391-1.97396 18.89121-.2034.20089-8.24482 1.10257-17.86982 2.00373s-32.8 3.39273-51.5 5.53682c-39.62665 4.54347-51.04381 5.6294-73.5 6.99086-14.94898.90632-49.09794 1.09242-63 .34333zm-24-35.44798c-7.975-.45112-26.2-1.74671-40.5-2.87907-117.55178-9.30852-135.88994-9.30906-252.68203-.007-13.57511 1.08116-30.947 2.2648-38.6042 2.63033l-13.92217.6646-.70735-6.25216c-.38904-3.43916-.56715-6.38352-.3958-6.54349.17135-.15997 8.41155-.81148 18.31155-1.44778 9.9-.63631 34.65-2.46018 55-4.05305 59.00085-4.6182 77.00868-5.31509 121-4.68264 37.18164.53456 50.40136 1.23167 98 5.16783 90.82282 7.51057 123.33758 7.30094 233.9995-1.50868 13.74972-1.09459 31.41222-2.28155 39.25-2.63768L590 295.68939v6.6553c0 6.59012-.0269 6.65545-2.75 6.66995-4.31963.023-42.72614 2.73161-77.25 5.44803-17.325 1.36317-39.825 2.94147-50 3.50733-21.20214 1.17912-81.53837 1.12974-103-.0843zm12.5-24.5035c-35.05041-2.61607-50.71566-3.9141-77-6.38026-54.19901-5.08528-61.56159-5.47882-102.5-5.47882-40.93611 0-47.93123.37404-103 5.50767C46.16392 290.83761 19.94592 293 14.62591 293h-4.25353l.4337-6.25c.23855-3.4375.50004-6.33278.5811-6.43396.08108-.10117 6.88962-.68736 15.13011-1.30262 8.24049-.61527 28.93271-2.42385 45.98271-4.01906 68.64119-6.42212 69.37888-6.46269 117.5-6.46269 48.13515 0 49.02683.0491 117.5 6.46865 54.23357 5.08456 61.5703 5.47656 102.5 5.47656 40.95074 0 48.3497-.39572 102.5-5.48203 41.6338-3.91064 74.36813-6.46005 74.98798-5.8402.27905.27904.79751 3.2834 1.15214 6.67635.5136 4.91379.36147 6.16904-.74766 6.1692-3.51617.0005-42.91115 3.27172-66.39246 5.51298-55.55278 5.30246-62.22814 5.68165-105 5.96448-23.1.15275-44.25.10979-47-.0955zm6-23.40071c-19.91142-1.45038-42.24941-3.90016-77.5-8.49933-43.24826-5.64264-58.82114-7.21827-84.5-8.5495-30.93336-1.60363-67.1937.28158-109 5.66702-68.14263 8.77805-90.918 11.31565-91.98487 10.24879-.70391-.70392 1.50566-17.1474 2.43863-18.14811.41004-.4398 7.00068-1.45337 14.64588-2.25237 7.6452-.799 29.42536-3.46283 48.40036-5.91963 98.59971-12.76626 125.6408-12.76715 224-.007 93.57682 12.13933 122.98434 12.19887 212.62367.43051 42.02292-5.51701 66.58567-8.14943 67.45801-7.22956.78569.82849 4.09009 17.43969 3.57223 17.95755-.16855.16854-6.79713.98671-14.73018 1.81814-7.93305.83143-23.19873 2.65617-33.92373 4.05498-40.3759 5.26605-57.99643 7.38117-74.5 8.94277-19.94044 1.8868-69.80572 2.73862-87 1.48617zm.5-29.01629c-16.7229-1.55099-34.96959-4.04177-55.5-7.57609-90.25349-15.53718-92.56428-15.81706-130.5-15.80586-37.74511.0111-41.54823.47263-130.5 15.83588-24.10743 4.1637-41.88874 6.461-42.30758 5.46603-.29977-.7121 3.38876-15.869 6.05598-24.88516l1.33121-4.5 10.9602-1.74779c6.0281-.96129 25.13519-4.22192 42.46019-7.24586 58.62212-10.232 69.15072-11.47986 103-12.20761 34.45911-.74087 56.60065 1.12537 98.5 8.30223 92.5317 15.84959 92.34563 15.82704 130.5 15.81578 37.88706-.0112 38.14836-.0428 130.5-15.79238 11-1.87593 21.87346-3.68292 24.16325-4.01552l4.16325-.60474 3.07377 8.0494c4.34581 11.38051 6.44086 19.02418 5.44975 19.88304-.46751.40513-6.25002 1.5114-12.85002 2.45837-6.6.94698-25.725 4.13606-42.5 7.08684-60.19569 10.58864-69.32107 11.61507-107 12.03542-16.225.18101-33.775-.0674-39-.55198z"/><path fill="#ca3b32" d="M276.53125 588.87758c-23.33458-1.78813-51.45937-7.90993-75.06312-16.33864-15.78999-5.63849-50.34749-22.47973-48.34519-23.56053 7.18804-3.87998 49.96394-4.61012 68.87706-1.17565 15.89011 2.88551 33.7956 8.19204 51.34957 15.21814 16.10606 6.44657 54.57464 24.10718 54.62153 25.07631.0834 1.7237-32.6495 2.22027-51.43985.78037zM348 583.76066c-14.12648-4.17809-37.96857-12.32112-56.92119-19.44089-38.67179-14.52748-55.90225-19.73746-75.12176-22.71457-21.45036-3.32267-38.69059-2.88982-60.62444 1.5221l-10.1674 2.04513-7.3326-4.95796c-17.44434-11.79502-43.9476-34.59518-42.12943-36.24299 1.21732-1.10326 24.55491-8.58915 35.69684-11.4503 22.78236-5.85033 32.24774-6.97405 58.59998-6.95694 18.78208.0122 26.83385.42378 34.5 1.76359 23.24393 4.0623 46.29363 10.97732 84.14755 25.24468 52.6522 19.84491 72.61004 24.71085 101.35245 24.71085 21.51764 0 39.58005-3.24605 64.98-11.67777 5.764-1.91341 10.59852-3.3604 10.74339-3.21553.14486.14486-4.57114 3.90512-10.48 8.35614-33.5425 25.26681-70.98509 42.76343-110.74339 51.74949-12.18244 2.75344-11.61453 2.7099-16.5 1.26497zm49.5-64.38732c-29.4671-1.74377-52.50429-6.44254-100.5-20.49848-60.62119-17.7534-83.6329-21.86078-115-20.52642-23.88635 1.01613-42.40978 4.40497-75.89943 13.88571l-18.39943 5.20878-4.44706-4.97146c-5.73384-6.40999-17.42268-21.38128-22.3652-28.6458l-3.86062-5.67432 4.73587-1.53002c2.60473-.84151 13.28587-3.99895 23.73587-7.01654 47.93185-13.84101 71.36075-17.84095 104.5-17.84095 35.62063 0 59.02971 4.34934 119.5 22.20273 86.36912 25.49984 114.70705 25.49902 201-.006 29.93383-8.84727 41.5-11.91652 41.5-11.01262 0 1.54976-14.96096 24.15242-22.47769 33.95874-4.21059 5.49315-11.33813 13.869-15.83897 18.61301L505.5 504.14518l-11 2.94035c-34.27784 9.16265-71.06317 13.82249-97 12.28763zm-5.5-64.42328c-26.92059-1.46358-47.45546-4.82671-97.81064-16.0191-55.99566-12.4461-70.55116-14.44317-104.68936-14.36378-35.04878.0815-48.06733 1.92853-108 15.32256-28.48473 6.36591-31.10544 6.79343-32.29948 5.26914-1.6991-2.16904-14.55396-27.86539-15.96535-31.91412l-1.09206-3.13267 5.67845-1.14041c3.12314-.62723 20.75344-4.44673 39.17844-8.4878 50.92886-11.16998 68.60679-13.99372 96.33716-15.38817 38.82046-1.95213 67.24661 1.47543 132.47348 15.97333 55.59478 12.357 70.52181 14.41944 104.18936 14.39567 33.86868-.0239 48.8311-2.09124 104.18936-14.39567C543.53809 394.54574 571.27321 389 574.54861 389c1.08016 0 .61848 2.19122-1.94894 9.25-3.9 10.72252-12.1707 29.80902-13.90824 32.09638C557.4906 431.9272 502.4945 444.56876 478 448.89434c-31.67022 5.59278-59.05137 7.52083-86 6.05572zm-18-57.07862c-16.8052-1.36086-40.04914-4.51063-76.5-10.36645-45.69714-7.34124-61.15138-9.25505-86.25-10.68091-35.47676-2.01545-64.38961.28247-122.75 9.75587-29.59022 4.80326-61.73752 9.51587-62.1435 9.10988-.44548-.44548-8.36715-28.01316-8.11006-28.22328.13946-.11397 7.45356-1.18772 16.25356-2.3861 8.8-1.19839 29.725-4.39877 46.5-7.11197C135.15834 349.20887 157.10911 347 190 347c33.33368 0 54.18266 2.1306 112.5 11.49658 45.70934 7.34109 61.15692 9.25379 86.25 10.67934 35.89124 2.039 63.91642-.22955 125.25-10.13858 28.1734-4.55168 50.8327-7.8563 65.39071-9.53653l5.89071-.67988-.6533 4.83953c-.68693 5.08872-5.28485 24.32961-5.9801 25.02485-.22291.22291-7.9974 1.48177-17.27666 2.79745-9.27925 1.31569-29.47136 4.4374-44.87136 6.93714-32.39675 5.25866-53.49014 8.03101-72.44989 9.52223-15.4761 1.21724-54.63351 1.17772-70.05011-.0707zm7-44.53776c-18.26668-.98428-40.05224-3.02662-83.5-7.82793-61.20646-6.76379-73.29072-7.62041-107.5-7.62041-34.23101 0-46.33074.85866-107.5 7.62876-26.95 2.98277-53.11338 5.72318-58.14084 6.0898l-9.14084.66658-.58992-2.88524c-.97645-4.77578-2.59493-15.75405-2.35366-15.96513.1239-.10839 8.32526-.93916 18.22526-1.84616 9.9-.90701 29.25-2.97151 43-4.58779 64.773-7.61391 93.79733-9.54436 130-8.64648 29.10949.72195 43.12416 1.88897 103.5 8.61855 56.18152 6.26207 69.05377 7.15643 103 7.15643 33.97513 0 46.83869-.89512 103.12471-7.17604 43.97034-4.90662 75.04612-7.9317 75.71907-7.37089.42374.35313-1.46031 18.38391-1.97396 18.89121-.2034.20089-8.24482 1.10257-17.86982 2.00373s-32.8 3.39273-51.5 5.53682c-39.62665 4.54347-51.04381 5.6294-73.5 6.99086-14.94898.90632-49.09794 1.09242-63 .34333zm-24-35.44798c-7.975-.45112-26.2-1.74671-40.5-2.87907-117.55178-9.30852-135.88994-9.30906-252.68203-.007-13.57511 1.08116-30.947 2.2648-38.6042 2.63033l-13.92217.6646-.70735-6.25216c-.38904-3.43916-.56715-6.38352-.3958-6.54349.17135-.15997 8.41155-.81148 18.31155-1.44778 9.9-.63631 34.65-2.46018 55-4.05305 59.00085-4.6182 77.00868-5.31509 121-4.68264 37.18164.53456 50.40136 1.23167 98 5.16783 90.82282 7.51057 123.33758 7.30094 233.9995-1.50868 13.74972-1.09459 31.41222-2.28155 39.25-2.63768L590 295.68939v6.6553c0 6.59012-.0269 6.65545-2.75 6.66995-4.31963.023-42.72614 2.73161-77.25 5.44803-17.325 1.36317-39.825 2.94147-50 3.50733-21.20214 1.17912-81.53837 1.12974-103-.0843z"/><path fill="#389726" d="M392 454.95006c-26.92059-1.46358-47.45546-4.82671-97.81064-16.0191-55.99566-12.4461-70.55116-14.44317-104.68936-14.36378-35.04878.0815-48.06733 1.92853-108 15.32256-28.48473 6.36591-31.10544 6.79343-32.29948 5.26914-1.6991-2.16904-14.55396-27.86539-15.96535-31.91412l-1.09206-3.13267 5.67845-1.14041c3.12314-.62723 20.75344-4.44673 39.17844-8.4878 50.92886-11.16998 68.60679-13.99372 96.33716-15.38817 38.82046-1.95213 67.24661 1.47543 132.47348 15.97333 55.59478 12.357 70.52181 14.41944 104.18936 14.39567 33.86868-.0239 48.8311-2.09124 104.18936-14.39567C543.53809 394.54574 571.27321 389 574.54861 389c1.08016 0 .61848 2.19122-1.94894 9.25-3.9 10.72252-12.1707 29.80902-13.90824 32.09638C557.4906 431.9272 502.4945 444.56876 478 448.89434c-31.67022 5.59278-59.05137 7.52083-86 6.05572zm-18-57.07862c-16.8052-1.36086-40.04914-4.51063-76.5-10.36645-45.69714-7.34124-61.15138-9.25505-86.25-10.68091-35.47676-2.01545-64.38961.28247-122.75 9.75587-29.59022 4.80326-61.73752 9.51587-62.1435 9.10988-.44548-.44548-8.36715-28.01316-8.11006-28.22328.13946-.11397 7.45356-1.18772 16.25356-2.3861 8.8-1.19839 29.725-4.39877 46.5-7.11197C135.15834 349.20887 157.10911 347 190 347c33.33368 0 54.18266 2.1306 112.5 11.49658 45.70934 7.34109 61.15692 9.25379 86.25 10.67934 35.89124 2.039 63.91642-.22955 125.25-10.13858 28.1734-4.55168 50.8327-7.8563 65.39071-9.53653l5.89071-.67988-.6533 4.83953c-.68693 5.08872-5.28485 24.32961-5.9801 25.02485-.22291.22291-7.9974 1.48177-17.27666 2.79745-9.27925 1.31569-29.47136 4.4374-44.87136 6.93714-32.39675 5.25866-53.49014 8.03101-72.44989 9.52223-15.4761 1.21724-54.63351 1.17772-70.05011-.0707zm7-44.53776c-18.26668-.98428-40.05224-3.02662-83.5-7.82793-61.20646-6.76379-73.29072-7.62041-107.5-7.62041-34.23101 0-46.33074.85866-107.5 7.62876-26.95 2.98277-53.11338 5.72318-58.14084 6.0898l-9.14084.66658-.58992-2.88524c-.97645-4.77578-2.59493-15.75405-2.35366-15.96513.1239-.10839 8.32526-.93916 18.22526-1.84616 9.9-.90701 29.25-2.97151 43-4.58779 64.773-7.61391 93.79733-9.54436 130-8.64648 29.10949.72195 43.12416 1.88897 103.5 8.61855 56.18152 6.26207 69.05377 7.15643 103 7.15643 33.97513 0 46.83869-.89512 103.12471-7.17604 43.97034-4.90662 75.04612-7.9317 75.71907-7.37089.42374.35313-1.46031 18.38391-1.97396 18.89121-.2034.20089-8.24482 1.10257-17.86982 2.00373s-32.8 3.39273-51.5 5.53682c-39.62665 4.54347-51.04381 5.6294-73.5 6.99086-14.94898.90632-49.09794 1.09242-63 .34333zm-24-35.44798c-7.975-.45112-26.2-1.74671-40.5-2.87907-117.55178-9.30852-135.88994-9.30906-252.68203-.007-13.57511 1.08116-30.947 2.2648-38.6042 2.63033l-13.92217.6646-.70735-6.25216c-.38904-3.43916-.56715-6.38352-.3958-6.54349.17135-.15997 8.41155-.81148 18.31155-1.44778 9.9-.63631 34.65-2.46018 55-4.05305 59.00085-4.6182 77.00868-5.31509 121-4.68264 37.18164.53456 50.40136 1.23167 98 5.16783 90.82282 7.51057 123.33758 7.30094 233.9995-1.50868 13.74972-1.09459 31.41222-2.28155 39.25-2.63768L590 295.68939v6.6553c0 6.59012-.0269 6.65545-2.75 6.66995-4.31963.023-42.72614 2.73161-77.25 5.44803-17.325 1.36317-39.825 2.94147-50 3.50733-21.20214 1.17912-81.53837 1.12974-103-.0843z"/><path d="M65.25057 622.28873h-6.0536v.70419c0 3.60967.6805 6.45599 2.04153 8.54487 1.35511 2.08296 4.02982 3.13035 8.00638 3.13035 3.98248 0 6.73412-1.29001 8.26083-3.87004.89946-1.52672 1.34919-3.59193 1.34919-6.20154v-21.34443h-6.40274v21.45094c0 1.47938-.14793 2.53861-.43789 3.15995-.48523 1.05331-1.4853 1.57997-2.99425 1.57997-1.52672 0-2.52086-.47932-2.98834-1.44387-.46157-.96455-.72194-2.63329-.78111-5.0062zm25.38016-11.04797h-6.07136v13.66942c0 2.59187.32546 4.55648.97639 5.88792 1.16575 2.41434 3.42623 3.6215 6.78145 3.6215 1.16575 0 2.18356-.15385 3.04751-.46156.86988-.30179 1.76342-.86987 2.69247-1.70424.3077-.26628.56808-.56808.79294-.91721.21895-.34321.36097-.55624.41423-.62134v3.20137h5.76364v-22.67586h-6.01218v12.33799c0 1.4557-.19528 2.62737-.57991 3.515-.75153 1.63914-2.13622 2.45576-4.16 2.45576-1.5859 0-2.64513-.574-3.18362-1.72791-.30771-.65093-.46157-1.6214-.46157-2.91141zm4.16-.60358zm22.0131 23.27944v-30.66448h-5.92934v30.66448zm11.87642-25.38016v-5.47368h-6.01218v5.47368zm-6.01218 2.7043v22.67586h6.01218v-22.67586zm24.26175 11.65156v2.20723c-.04142 1.98236-.60359 3.3493-1.67465 4.0949-1.07699.75153-2.25457 1.12433-3.52683 1.12433-.80478 0-1.49121-.22486-2.05337-.6746-.56217-.44972-.84029-1.1835-.84029-2.19539 0-1.13616.45565-1.97644 1.37286-2.52085.5385-.31955 1.43795-.58583 2.68655-.8107l1.33143-.24853c.66276-.12427 1.18942-.26037 1.56814-.4024.37872-.14793.75744-.3373 1.13616-.574zm-3.60376-2.7694l-2.01787.24854c-2.28415.29588-4.01798.78111-5.20148 1.46163-2.14805 1.24859-3.21912 3.26646-3.21912 6.0536 0 2.14805.66868 3.81087 2.00604 4.98253 1.33735 1.17167 3.02976 1.7575 5.08313 1.7575 1.60956 0 3.05343-.36688 4.3316-1.10657 1.06516-.62134 2.00604-1.37878 2.82857-2.2664.04142.51482.09468.97047.1657 1.37286.071.40238.19527.83436.3728 1.29001h6.45007v-.87579c-.39055-.17753-.68051-.4083-.87579-.68643-.18936-.2722-.30771-.79886-.34913-1.57997-.02959-1.02373-.04142-1.89952-.04142-2.62146v-10.39704c0-2.73389-.96456-4.59198-2.89366-5.5802-1.9291-.98231-4.13633-1.47346-6.61577-1.47346-3.81678 0-6.50333.99414-8.07147 2.99425-.98822 1.27818-1.53855 2.9055-1.66282 4.88786h5.71631c.14202-.8758.42014-1.56814.83437-2.07705.57991-.69826 1.57405-1.04148 2.9765-1.04148 1.2486 0 2.1954.17753 2.8404.52666.645.35505.96455 1.00006.96455 1.9291 0 .76336-.42014 1.31961-1.26634 1.68058-.4734.21303-1.25451.38463-2.35517.52074zm.31363-9.48574zm17.93594-4.17776c-2.8759 2.89366-4.30794 7.02407-4.30794 12.3735 0 4.95294 1.26043 8.85257 3.7872 11.69297 2.52086 2.82857 5.98851 4.24285 10.40297 4.24285 3.56233 0 6.48558-1.0474 8.76382-3.1422 2.28415-2.08887 3.70435-4.81092 4.25468-8.1543h-6.34356c-.43198 1.57997-.97047 2.76938-1.6214 3.55641-1.17758 1.47346-2.89365 2.20723-5.1423 2.20723-2.18948 0-3.99432-.85804-5.41452-2.5682-1.42611-1.71607-2.13621-4.29018-2.13621-7.72825 0-3.43807.67459-6.10094 2.01786-7.9768 1.3492-1.88176 3.18362-2.82264 5.51511-2.82264 2.29008 0 4.01207.66868 5.17782 2.00012.65092.7456 1.18941 1.85809 1.60364 3.32563h6.40865c-.1006-1.91135-.80478-3.81679-2.12438-5.72222-2.38475-3.3789-6.1542-5.0713-11.31426-5.0713-3.85821 0-7.03591 1.26043-9.52718 3.7872zm9.33782-4.14225zm24.03096 31.59945v-30.66448h-5.92933v30.66448zm11.87643-25.38016v-5.47368h-6.01218v5.47368zm-6.01218 2.7043v22.67586h6.01218v-22.67586zm40.04964.08285c-.97047-.38464-1.9587-.57992-2.95875-.57992-1.49713 0-2.85224.30771-4.07716.93497-1.148.62133-2.11255 1.60364-2.88774 2.93508-.44381-1.1125-1.09474-2.01787-1.9587-2.72797-1.06514-.76336-2.46759-1.14208-4.20142-1.14208-1.8285 0-3.31971.44381-4.47363 1.33144-.65092.49707-1.34327 1.33735-2.07704 2.51494v-3.30789h-5.76365v22.63444h6.01219v-13.64575c0-1.23676.15977-2.16581.47931-2.78715.57992-1.09473 1.71608-1.64506 3.40848-1.64506 1.4557 0 2.43801.55033 2.93508 1.64506.27813.6095.41423 1.5859.41423 2.93508v13.49782h5.97076V620.4188c0-1.0178.15977-1.88176.47931-2.6037.62726-1.36102 1.7575-2.03562 3.39073-2.03562 1.41428 0 2.38475.52666 2.91141 1.57998.27812.55032.42014 1.26042.42014 2.11846v14.4387h6.07136l.04142-14.29076c0-1.47346-.0651-2.58595-.20711-3.3493-.21895-1.15392-.65093-2.12439-1.29002-2.91142-.78702-.97047-1.66873-1.65098-2.6392-2.04153zm22.09003 11.5687v2.20724c-.04143 1.98236-.59767 3.3493-1.67466 4.0949-1.07106.75153-2.24865 1.12433-3.52683 1.12433-.80478 0-1.48529-.22486-2.04745-.6746-.56216-.44972-.84029-1.1835-.84029-2.19539 0-1.13616.45565-1.97644 1.37286-2.52085.5385-.31955 1.43204-.58583 2.68063-.8107l1.33144-.24853c.66868-.12427 1.18942-.26037 1.57405-.4024.37872-.14793.75744-.3373 1.13025-.574zm-3.59784-2.76938l-2.01787.24853c-2.29007.29588-4.0239.78111-5.20148 1.46163-2.14806 1.24859-3.22504 3.26646-3.22504 6.0536 0 2.14805.66868 3.81087 2.00603 4.98253 1.34327 1.17167 3.03568 1.7575 5.08905 1.7575 1.60956 0 3.05343-.36688 4.3257-1.10657 1.07106-.62134 2.01194-1.37878 2.82856-2.2664.04142.51482.1006.97047.1716 1.37286.0651.40238.18937.83436.3728 1.29001h6.45008v-.87579c-.39055-.17753-.68051-.4083-.87579-.68643-.19527-.2722-.31362-.79886-.35505-1.57997-.02367-1.02373-.04142-1.89952-.04142-2.62146v-10.39704c0-2.73389-.96455-4.59198-2.88774-5.5802-1.9291-.98231-4.13633-1.47346-6.61576-1.47346-3.8168 0-6.50925.99414-8.0774 2.99425-.9823 1.27818-1.53854 2.9055-1.66281 4.88786h5.72222c.1361-.8758.41423-1.56814.83437-2.07705.57992-.69826 1.57406-1.04148 2.97059-1.04148 1.24859 0 2.19539.17753 2.8404.52666.645.35505.97047 1.00006.97047 1.9291 0 .76336-.42606 1.31961-1.27227 1.68058-.46748.21303-1.2545.38463-2.34925.52074zm.31362-9.48575zm12.14863 5.03579h3.15995v13.95938c0 1.41428.3373 2.46168 1.00005 3.1422 1.02373 1.06514 2.941 1.55038 5.73998 1.4557l2.81081-.10652v-4.4322a9.62886 9.62886 0 0 1-.59175.0355c-.2012.00592-.39055.01184-.574.01184-1.20717 0-1.9291-.11835-2.1658-.34914-.23078-.22486-.34913-.80478-.34913-1.73382v-11.98294h3.68068v-4.2251h-3.68068v-6.31989h-5.87016v6.3199h-3.15995zm22.26755 1.14208c.75744-.85804 1.8226-1.29002 3.19545-1.29002 1.26043 0 2.31966.4083 3.17178 1.219.85212.8107 1.33144 2.00012 1.42612 3.56826h-9.21355c.18936-1.47346.66868-2.63329 1.4202-3.49724zm8.29042-5.11864c-1.50896-.70418-3.20728-1.05923-5.09497-1.05923-3.1777 0-5.75772 1.0474-7.75192 3.14219-1.98828 2.0948-2.98242 5.1068-2.98242 9.0301 0 4.1896 1.10065 7.21344 3.30788 9.07153 2.20723 1.8581 4.75175 2.78714 7.63358 2.78714 3.49724 0 6.21337-1.10657 8.15431-3.30788 1.2486-1.39061 1.95278-2.75755 2.10071-4.10083h-6.0536c-.31954.66868-.68643 1.18942-1.10065 1.56222-.76336.69235-1.75158 1.04148-2.9765 1.04148-1.148 0-2.13622-.28404-2.95284-.85803-1.34327-.9113-2.05929-2.50902-2.14213-4.78134h15.5216c.02367-1.9587-.0355-3.45582-.18936-4.4973-.26629-1.77525-.84029-3.33156-1.72791-4.68075-.9823-1.5208-2.2309-2.6392-3.74578-3.3493zm-4.68074-1.05923zm26.5459-7.38504v30.66448h5.97076V612.1343l12.52735 21.78232h6.40273v-30.66448h-5.97075v21.40951l-12.2078-21.40951zm12.69304-.05918zm31.87166 24.69373c-.92905 1.23084-2.26049 1.85218-3.99432 1.85218-1.73382 0-3.07118-.62134-4.00614-1.85218-.93497-1.23676-1.40245-2.98834-1.40245-5.26658 0-2.27232.46748-4.0239 1.40245-5.25474.93496-1.22492 2.27232-1.84034 4.00614-1.84034 1.73383 0 3.06527.61542 3.99432 1.84034.92904 1.23084 1.3906 2.98242 1.3906 5.25474 0 2.27824-.46156 4.02982-1.3906 5.26658zm4.73991 3.27238c1.91727-2.36109 2.86999-5.2074 2.86999-8.53896 0-3.27237-.95272-6.10686-2.86999-8.50936-1.91135-2.39659-4.81684-3.59784-8.71647-3.59784-3.89372 0-6.79921 1.20125-8.71648 3.59784-1.91135 2.4025-2.86999 5.23698-2.86999 8.50936 0 3.33156.95864 6.17787 2.86999 8.53896 1.91727 2.367 4.82276 3.5505 8.71648 3.5505 3.89963 0 6.80512-1.1835 8.71647-3.5505zm-8.71647-20.5219zm13.50373 5.0358h3.15995v13.95938c0 1.41428.3373 2.46168 1.00005 3.1422 1.02373 1.06514 2.941 1.55038 5.73998 1.4557l2.81081-.10652v-4.4322a9.62886 9.62886 0 0 1-.59175.0355c-.2012.00592-.39055.01184-.574.01184-1.20717 0-1.9291-.11835-2.1658-.34914-.23078-.22486-.34913-.80478-.34913-1.73382v-11.98294h3.68068v-4.2251h-3.68068v-6.31989h-5.87016v6.3199h-3.15995zm22.26755 1.14208c.75744-.85804 1.8226-1.29002 3.19545-1.29002 1.26043 0 2.31966.4083 3.17178 1.219.85212.8107 1.33144 2.00012 1.42612 3.56826h-9.21355c.18936-1.47346.66868-2.63329 1.4202-3.49724zm8.29042-5.11864c-1.50896-.70418-3.20728-1.05923-5.09497-1.05923-3.1777 0-5.75772 1.0474-7.75192 3.14219-1.98828 2.0948-2.98242 5.1068-2.98242 9.0301 0 4.1896 1.10065 7.21344 3.30788 9.07153 2.20723 1.8581 4.75175 2.78714 7.63358 2.78714 3.49724 0 6.21337-1.10657 8.15431-3.30788 1.2486-1.39061 1.95278-2.75755 2.10071-4.10083h-6.0536c-.31954.66868-.68643 1.18942-1.10065 1.56222-.76336.69235-1.75158 1.04148-2.9765 1.04148-1.148 0-2.13622-.28404-2.95284-.85803-1.34327-.9113-2.05929-2.50902-2.14213-4.78134h15.5216c.02367-1.9587-.0355-3.45582-.18936-4.4973-.26629-1.77525-.84029-3.33156-1.72791-4.68075-.9823-1.5208-2.2309-2.6392-3.74578-3.3493zm-4.68074-1.05923zm33.58773 3.33155c-1.68057-2.15397-4.01798-3.22504-7.0004-3.22504-1.65099 0-3.0061.34322-4.07716 1.04148-.89946.55033-1.72791 1.3551-2.47352 2.40842v-10.90003h-5.91158v30.62306h5.80507v-2.84632c.79294 1.10658 1.52671 1.88177 2.20723 2.32558 1.13616.75152 2.6392 1.12433 4.51505 1.12433 2.98242 0 5.30208-1.15983 6.97081-3.47358 1.66282-2.31374 2.49127-5.23698 2.49127-8.7579 0-3.39664-.84028-6.17195-2.52677-8.32zm-4.95887 13.81144c-.8462 1.23676-2.03562 1.85218-3.55641 1.85218-1.76342 0-3.07119-.63909-3.93514-1.91727-.85804-1.27226-1.29002-2.88182-1.29002-4.82276 0-1.65098.20712-2.99426.62726-4.03574.80478-1.95869 2.27823-2.93508 4.4322-2.93508 2.11847 0 3.57418 1.00006 4.36712 2.99426.41423 1.05923.62134 2.39067.62134 3.99431 0 2.01195-.42015 3.63335-1.26635 4.8701zm25.9009.10652c-.92905 1.23084-2.26048 1.85218-3.99431 1.85218-1.73383 0-3.07118-.62134-4.00615-1.85218-.93496-1.23676-1.40245-2.98834-1.40245-5.26658 0-2.27232.46749-4.0239 1.40245-5.25474.93497-1.22492 2.27232-1.84034 4.00615-1.84034 1.73383 0 3.06526.61542 3.99431 1.84034.92905 1.23084 1.39061 2.98242 1.39061 5.25474 0 2.27824-.46156 4.02982-1.39061 5.26658zm4.73992 3.27238c1.91727-2.36109 2.8759-5.2074 2.8759-8.53896 0-3.27237-.95863-6.10686-2.8759-8.50936-1.91136-2.39659-4.81685-3.59784-8.71648-3.59784-3.89371 0-6.7992 1.20125-8.71648 3.59784-1.91135 2.4025-2.86998 5.23698-2.86998 8.50936 0 3.33156.95863 6.17787 2.86998 8.53896 1.91727 2.367 4.82277 3.5505 8.71648 3.5505 3.89963 0 6.80513-1.1835 8.71648-3.5505zm-8.71648-20.5219zm30.00173 17.24952c-.92905 1.23084-2.26049 1.85218-3.99432 1.85218-1.73382 0-3.07118-.62134-4.00614-1.85218-.93497-1.23676-1.40245-2.98834-1.40245-5.26658 0-2.27232.46748-4.0239 1.40245-5.25474.93496-1.22492 2.27232-1.84034 4.00614-1.84034 1.73383 0 3.06527.61542 3.99432 1.84034.92904 1.23084 1.3906 2.98242 1.3906 5.25474 0 2.27824-.46156 4.02982-1.3906 5.26658zm4.73991 3.27238c1.91727-2.36109 2.8759-5.2074 2.8759-8.53896 0-3.27237-.95863-6.10686-2.8759-8.50936-1.91135-2.39659-4.81684-3.59784-8.71648-3.59784-3.89371 0-6.7992 1.20125-8.71647 3.59784-1.91136 2.4025-2.86999 5.23698-2.86999 8.50936 0 3.33156.95864 6.17787 2.86999 8.53896 1.91727 2.367 4.82276 3.5505 8.71648 3.5505 3.89963 0 6.80512-1.1835 8.71647-3.5505zm-8.71648-20.5219zm15.77014-7.27852v30.55797h5.82874v-7.1365l2.44984-2.55636 5.43227 9.69286h7.15426l-8.23716-13.89429 7.92945-8.67505h-7.34362l-7.38504 8.52711v-16.51574zm28.38033 23.32087h-6.0181c0 2.32558.85213 4.24285 2.55045 5.7518 1.69832 1.50305 4.3316 2.25458 7.89394 2.25458 3.49725 0 6.07728-.7101 7.75193-2.1303 1.66873-1.4202 2.50902-3.25463 2.50902-5.50328 0-1.70424-.58583-3.13036-1.75158-4.26652-1.17758-1.12432-2.94692-1.95869-5.30208-2.51493-3.53867-.7752-5.59796-1.32552-6.17787-1.64507-.58583-.3018-.8758-.79886-.8758-1.47346 0-.5444.27221-1.0178.82254-1.4202.54441-.39647 1.46754-.59766 2.75755-.59766 1.56222 0 2.67471.39647 3.32564 1.20125.34913.44381.56216 1.0474.645 1.81075h5.92934c-.26037-2.76939-1.2841-4.72216-3.06526-5.8524-1.78709-1.13025-4.089-1.69833-6.91756-1.69833-2.98242 0-5.29616.75152-6.94123 2.26049-1.64506 1.50304-2.46168 3.30196-2.46168 5.39676 0 1.77525.52666 3.13627 1.57998 4.07715 1.05331.95864 2.86407 1.75158 5.42634 2.39067 3.56826.8462 5.62755 1.44387 6.17787 1.793.55625.34322.83437.85213.83437 1.51489 0 .69234-.34321 1.21308-1.02964 1.56222-.68643.34321-1.60956.52074-2.77531.52074-1.98236 0-3.34339-.39648-4.07716-1.18942-.42014-.44381-.68643-1.18942-.8107-2.24273zm4.5328-16.04234z"/></svg>