<svg xmlns="http://www.w3.org/2000/svg" role="img" viewBox="-6.63 -6.63 209.77 345.02"><title>Kiva logo</title><g transform="translate(-15.86 -12.01)"><g transform="translate(2.42 -139.872) scale(1.52055)"><path d="M55.53374 317.5141h-5.01953l-11.5039-12.94922-2.89063 3.08594v9.86328h-3.86719v-29.08203h3.86719v15.17578l14.1211-15.17578h4.6875l-12.98829 13.67187z"/><path d="M63.52202 292.04535H59.3814v-3.80859h4.14062zm-.23437 25.46875h-3.67188v-21.81641h3.67188z"/><path d="M89.42046 295.69769l-8.82812 21.81641h-3.69141l-8.76953-21.81641h3.98437l6.75782 17.36328 6.69922-17.36328z"/><path d="M110.39702 317.5141h-3.65234v-2.32422q-.48828.33203-1.32812.9375-.82032.58594-1.60157.9375-.91797.44922-2.10937.74219-1.19141.3125-2.79297.3125-2.94922 0-5-1.95313-2.05078-1.95312-2.05078-4.98047 0-2.48046 1.05469-4.0039 1.07421-1.54297 3.04687-2.42188 1.99219-.8789 4.78516-1.1914 2.79297-.3125 5.99609-.46875v-.56641q0-1.25-.44922-2.07031-.42969-.82031-1.25-1.28906-.78125-.44922-1.875-.60547-1.09375-.15625-2.28515-.15625-1.44532 0-3.22266.39062-1.77734.3711-3.67188 1.09375h-.1953v-3.73047q1.07421-.29297 3.10546-.64453 2.03125-.35156 4.00391-.35156 2.30468 0 4.0039.39062 1.71875.3711 2.96875 1.28907 1.23047.89843 1.875 2.32422.64453 1.42578.64453 3.53515zm-3.65234-5.37109v-6.07422q-1.67969.0977-3.96484.29297-2.26563.19531-3.59375.5664-1.58203.44922-2.5586 1.40625-.97656.9375-.97656 2.59766 0 1.875 1.13281 2.83203 1.13282.9375 3.45703.9375 1.9336 0 3.53516-.74219 1.60156-.76172 2.96875-1.8164z"/></g><g stroke-width="1.333"><path fill="#fdcb1d" d="M105.33333 247.68441c-4.76666-3.7054-16.16666-12.48226-25.33333-19.50414-26.64124-20.40781-57.44527-45.27846-57.4919-46.41798-.0236-.57672 4.78098-2.61717 10.67684-4.53435 12.53027-4.0745 13.40865-3.01708 1.19352 1.43678l-8.37012 3.0519 3.99583 1.79232c6.1932 2.77794 78.12473 29.97004 82.95499 31.35928 3.62001 1.04115 6.33555.40621 17.33333-4.0528 10.51143-4.26183 34.61452-13.80608 68.37418-27.07456 3.10497-1.22033 2.62749-1.60441-6.96976-5.60634-5.6667-2.36294-10.7667-4.792-11.33334-5.39792-.56662-.60592-.13026-.76036.96976-.3432 1.1.41716 7.25 2.3921 13.66667 4.38876 6.41667 1.99666 11.66667 4.10908 11.66667 4.69426 0 1.58988-89.86219 73.26847-91.60363 73.06765-.58467-.0674-4.96304-3.15428-9.72971-6.85966zM85 188.25894c-26.6361-9.75361-27.66667-10.26464-27.66667-13.71901 0-1.97341-.9535-8.19871-2.1189-13.83396-1.1654-5.63527-1.78081-10.58404-1.36758-10.99727.7971-.79709 9.29255 1.88827 41.36326 13.07468l19.87678 6.93311 8.12322-2.77743c4.46777-1.52758 16.609-5.76661 26.9805-9.42005l18.8573-6.64261-1.77566 7.5618c-2.55288 10.87169-5.83949 23.2559-6.25185 23.55749-1.29667.94832-45.95357 16.65729-47.0204 16.54037-.73333-.0804-13.78333-4.70506-29-10.27712zm25-23.41477c-2.2-.94496-16.06887-5.78717-30.81971-10.76047l-26.81971-9.04234-2.63254-11.52068c-1.782-7.79849-2.16333-11.63898-1.18029-11.88682.79874-.20137 15.54684 3.84863 32.77357 9C98.54803 135.78524 113.3426 140 114.19814 140c1.41713 0 44.91689-12.39554 56.80073-16.18573 2.74937-.87688 5.258-1.33518 5.57473-1.01845.48799.48798-1.39671 7.84431-5.73083 22.36859-.82113 2.75173-4.50233 4.35707-28.22685 12.30945-15.00543 5.02979-27.58259 9.13231-27.94925 9.11674-.36667-.0156-2.46667-.80147-4.66667-1.74643zm-31.33333-37.8457c-17.96667-5.613-33.1078-10.83388-33.64698-11.60196-1.54291-2.19798-5.35515-14.17216-4.71562-14.81169.31667-.31667 3.5278.29902 7.13585 1.36819 3.60804 1.06918 15.86008 4.39177 27.22675 7.38353 11.36666 2.99177 25.08785 6.60861 30.49152 8.03743l9.82487 2.59785 36.74883-10.63444c20.21186-5.84894 36.89522-10.48806 37.07412-10.30915.17891.1789-1.87926 4.5146-4.5737 9.63488l-4.89898 9.3096L150 127.00657c-16.13333 4.96862-31.43333 9.29564-34 9.6156-3.2988.41123-14.24173-2.40961-37.33333-9.6237zm10.66666-17.03668c-36.2475-10.24978-35.30287-9.68606-16.4793-9.83431 13.25057-.10436 18.51902.47833 29.03922 3.21171l12.85185 3.33919 14.29411-3.67252c12.54098-3.2221 15.92943-3.58155 27.62746-2.93075 7.33333.40798 12.92238.85798 12.42012 1-.50227.14202-12.28462 3.55822-26.183 7.59155-13.8984 4.03334-26.98745 7.28963-29.0868 7.23621-2.09934-.0534-13.11699-2.7269-24.48366-5.94108zm4-12.61135c-9.9-2.78635-28.2-7.86738-40.66666-11.29118C40.2 82.63546 26.85 78.92891 23 77.82248l-7-2.0117V41.9038l26.56257-14.94705 26.56258-14.94704 15.77075 2.73845c8.67392 1.50615 20.87077 3.54796 27.1041 4.53735 21.49744 3.41223 52.66815 8.98542 53.22223 9.5159.66926.6408 1.84336-.19917-11.8889 8.50544-14.24921 9.0323-17.37122 11.76136-10 8.74133 2.93334-1.2018 6.66223-3.05428 8.28643-4.11663C153.24396 40.8692 155.66045 40 156.98975 40c1.32929 0 3.69517-.89534 5.2575-1.98964 1.56234-1.0943 3.94583-2.2056 5.29667-2.46956 1.35085-.26395 3.94472-1.08315 5.76419-1.82043 2.4551-.99486 5.5493-.71526 12 1.08435 4.78053 1.33367 12.89189 3.55978 18.02522 4.9469 6.87895 1.8588 9.30412 3.09964 9.22223 4.71854-.0611 1.20808-.21112 8.67606-.33333 16.59552L212 75.46468l-15.66667 4.39495c-8.61666 2.41722-19.26666 5.4912-23.66666 6.83108-21.08876 6.4219-56.45271 15.96249-58.75423 15.85089-1.41851-.0688-10.67911-2.40481-20.5791-5.19116zM134 50.66666c.45323-.73333.52404-1.33333.15737-1.33333-.36666 0-1.03748.6-1.4907 1.33334C132.21344 51.4 132.14262 52 132.50929 52c.36666 0 1.03748-.6 1.49071-1.33333z"/><path fill="#9d9d9d" d="M105.33333 247.68441c-4.76666-3.7054-16.16666-12.48226-25.33333-19.50414-26.64124-20.40781-57.44527-45.27846-57.4919-46.41798-.0236-.57672 4.78098-2.61717 10.67684-4.53435 12.53027-4.0745 13.40865-3.01708 1.19352 1.43678l-8.37012 3.0519 3.99583 1.79232c6.1932 2.77794 78.12473 29.97004 82.95499 31.35928 3.62001 1.04115 6.33555.40621 17.33333-4.0528 10.51143-4.26183 34.61452-13.80608 68.37418-27.07456 3.10497-1.22033 2.62749-1.60441-6.96976-5.60634-5.6667-2.36294-10.7667-4.792-11.33334-5.39792-.56662-.60592-.13026-.76036.96976-.3432 1.1.41716 7.25 2.3921 13.66667 4.38876 6.41667 1.99666 11.66667 4.10908 11.66667 4.69426 0 1.58988-89.86219 73.26847-91.60363 73.06765-.58467-.0674-4.96304-3.15428-9.72971-6.85966zM85 188.25894c-26.6361-9.75361-27.66667-10.26464-27.66667-13.71901 0-1.97341-.9535-8.19871-2.1189-13.83396-1.1654-5.63527-1.78081-10.58404-1.36758-10.99727.7971-.79709 9.29255 1.88827 41.36326 13.07468l19.87678 6.93311 8.12322-2.77743c4.46777-1.52758 16.609-5.76661 26.9805-9.42005l18.8573-6.64261-1.77566 7.5618c-2.55288 10.87169-5.83949 23.2559-6.25185 23.55749-1.29667.94832-45.95357 16.65729-47.0204 16.54037-.73333-.0804-13.78333-4.70506-29-10.27712zm7.43009-29.42988c-11.86346-4.13845-22.01346-7.96798-22.55556-8.51009-.5421-.54211-2.23564-.98933-3.76342-.99385-1.52778-.004-4.49636-.90452-6.59685-2-2.1005-1.09548-4.6505-1.99179-5.66667-1.99179-1.01617 0-1.8935-1.05-1.9496-2.33333-.1003-2.29386-.23811-2.99118-1.91054-9.66667-.4593-1.83333-1.13395-5.21376-1.49922-7.51207l-.66411-4.17873 7.31344 1.70007c4.0224.93503 7.854 2.03415 8.5147 2.44248.6607.40834 2.65922 1.01792 4.44117 1.35464 1.78195.33672 5.9399 1.50221 9.2399 2.58998 4.94202 1.62902 9.37772 2.90483 14.66667 4.21846.36667.0911 5.16667 1.58825 10.66667 3.32708 10.64343 3.36492 10.86521 3.39398 16 2.0968 1.83333-.46314 4.77615-1.13988 6.5396-1.50387 1.76345-.36399 4.26602-1.22896 5.56128-1.92216 1.29525-.6932 4.50936-1.60275 7.14245-2.02121 2.63309-.41847 11.23051-2.87011 19.10539-5.4481 20.12864-6.5895 20.57008-6.6468 18.97957-2.46346-.70883 1.86435-1.56691 4.72406-1.90684 6.35491-1.55676 7.46842-1.99435 8.96527-3.37515 11.54531-.8104 1.51427-1.03234 2.7532-.49321 2.7532 2.51312 0-2.01205 2.59915-5.62867 3.23296-2.24157.39284-5.84157 1.593-8 2.66703-2.15844 1.07403-5.95706 2.30901-8.4414 2.74443-2.48433.43541-5.60776 1.37542-6.94094 2.08893-2.89951 1.55177-25.56382 9.33392-26.5317 9.11008-.37238-.0861-10.38351-3.54259-22.24696-7.68103zm18.90324-22.40765c-1.46666-.33141-4.62331-1.49312-7.01476-2.58156-2.39146-1.08844-5.03416-1.55497-5.87268-1.03674-.93931.58053-1.15936.35131-.57321-.5971 1.31626-2.12975 32.27172-2.12975 33.58798 0 .55103.89159.36943 1.17969-.43155.68466-.7606-.47008-4.84723.33722-9.08141 1.79398-4.23417 1.45677-7.75457 2.57908-7.8231 2.49401-.0685-.0851-1.3246-.42582-2.79127-.75725zM148 127.33333c0-.36667.3-.66667.66667-.66667.36666 0 .66666.3.66666.66667s-.3.66667-.66666.66667c-.36667 0-.66667-.3-.66667-.66667zM93.33333 97.35044c-9.9-2.78635-28.2-7.86738-40.66666-11.29118C40.2 82.63546 26.85 78.92891 23 77.82248l-7-2.0117V41.9038l26.56257-14.94705 26.56258-14.94704 15.77075 2.73845c8.67392 1.50615 20.87077 3.54796 27.1041 4.53735 21.49744 3.41223 52.66815 8.98542 53.22223 9.5159.66926.6408 1.84336-.19917-11.8889 8.50544-14.24921 9.0323-17.37122 11.76136-10 8.74133 2.93334-1.2018 6.66223-3.05428 8.28643-4.11663C153.24396 40.8692 155.66045 40 156.98975 40c1.32929 0 3.69517-.89534 5.2575-1.98964 1.56234-1.0943 3.94583-2.2056 5.29667-2.46956 1.35085-.26395 3.94472-1.08315 5.76419-1.82043 2.4551-.99486 5.5493-.71526 12 1.08435 4.78053 1.33367 12.89189 3.55978 18.02522 4.9469 6.87895 1.8588 9.30412 3.09964 9.22223 4.71854-.0611 1.20808-.21112 8.67606-.33333 16.59552L212 75.46468l-15.66667 4.39495c-8.61666 2.41722-19.26666 5.4912-23.66666 6.83108-21.08876 6.4219-56.45271 15.96249-58.75423 15.85089-1.41851-.0688-10.67911-2.40481-20.5791-5.19116zM134 50.66666c.45323-.73333.52404-1.33333.15737-1.33333-.36666 0-1.03748.6-1.4907 1.33334C132.21344 51.4 132.14262 52 132.50929 52c.36666 0 1.03748-.6 1.49071-1.33333z"/><path fill="#757575" d="M87.2264 233.10969C42.9602 199.09321 22.4218 182.3717 23.58646 181.29673c.59411-.54836 2.5802-1.38948 4.41354-1.86916l3.33333-.87215-3.14565 1.84715c-3.05593 1.79447-2.88478 1.94577 6 5.30447 5.0301 1.90152 19.64565 7.47528 32.47899 12.38613 42.79269 16.37522 47.01565 17.90682 49.37315 17.90682 1.28899 0 8.55734-2.45624 16.1519-5.4583 7.59456-3.00207 23.70828-9.3429 35.80828-14.09072 12.1-4.74783 24.54775-9.64159 27.66167-10.87503 3.11392-1.23344 5.66392-2.69089 5.66666-3.23878.003-.5479-1.945-1.84896-4.32833-2.89124-2.38333-1.04228-3.43333-1.89836-2.33333-1.90239 3.04142-.0107 11.37154 3.23383 11.04996 4.30448-.15587.51888-5.25587 4.91596-11.33334 9.77129-6.07748 4.85534-13.74996 11.02961-17.04996 13.72064-13.44189 10.96133-59.43341 47.54848-60.77359 48.34656-.79215.47173-13.99215-8.78784-29.33334-20.57681zm16.10693-39.09345c-6.6-2.33864-18.3-6.51172-26-9.27351-7.7-2.76179-15.01572-5.31973-16.25717-5.68435-2.24873-.66042-3.03148-2.9295-4.50467-13.05838-.42663-2.93334-1.29602-7.71707-1.93197-10.63052-.63595-2.91344-.92252-5.53092-.63682-5.81662.28569-.2857 3.10196.3925 6.25837 1.50708 3.15641 1.11459 16.87487 5.90638 30.48547 10.64843l24.74653 8.62189 25.76506-9.20909c14.17078-5.065 26.03655-8.93761 26.36836-8.60579 1.05443 1.05442-6.43568 28.08144-8.06504 29.1016-.8588.53771-7.56145 3.17094-14.89478 5.85162-7.33334 2.68066-16.93334 6.20725-21.33334 7.83684l-8 2.96289zm-70.88889-16.23847c.4889-.48888 1.2889-.48888 1.77778 0 .4889.48889.0889.88889-.88889.88889-.97777 0-1.37777-.4-.88889-.88889zm157.33333-1.33333c.4889-.48888 1.2889-.48888 1.77779 0 .48888.48889.0889.88889-.88889.88889-.97778 0-1.37778-.4-.8889-.88889zm-4-1.33334c.4889-.48888 1.2889-.48888 1.77779 0 .48888.4889.0889.8889-.88889.8889-.97778 0-1.37778-.4-.8889-.8889zM182.66667 174c0-.36667.3-.66667.66666-.66667.36667 0 .66667.3.66667.66667 0 .36666-.3.66666-.66667.66666-.36666 0-.66666-.3-.66666-.66666zM108 163.80678c-1.83333-.72381-14.97573-5.32645-29.20533-10.22808l-25.872-8.91204-2.48987-10.58105c-1.36943-5.81958-2.32703-10.9972-2.128-11.50582.35616-.91018 14.07483 2.79525 48.49072 13.09742l17.46219 5.22719 15.87115-4.45963c8.72913-2.45279 21.87114-6.29195 29.20447-8.53147 7.33334-2.23953 14.29708-4.34924 15.475-4.68827 1.85308-.53334 1.72098.83606-.98038 10.16262-1.71712 5.92845-3.6312 11.68881-4.25348 12.80079-1.3188 2.35656-49.82634 19.19537-54.84743 19.03962-1.86654-.0579-4.89371-.69746-6.72704-1.42128zm-1.18965-29.15185c-3.9543-1.42438-7.5043-2.90444-7.88889-3.28902-.38458-.38459 6.60076-.69925 15.52298-.69925 8.92223 0 16.22223.25178 16.22223.55951 0 .46002-4.75348 2.19309-15.33334 5.59039-.73333.23548-4.56867-.73726-8.52298-2.16163zM81.33333 92.66666c0-.36666.3-.66666.66667-.66666s.66667.3.66667.66666c0 .36667-.3.66667-.66667.66667s-.66667-.3-.66667-.66667zM68 89.30808c-4.76667-1.33476-14.36667-3.97745-21.33333-5.87263a298444.97331 298444.97331 0 0 0-21.33334-5.80258l-8.66666-2.35678-.4036-7.76285-.4036-7.76285 5.07027 2.65066C27.4504 65.80995 55.1249 79.17909 56 79.34296c2.3078.43218 24.28379 12.50961 22.66667 12.45702-1.1-.03577-5.9-1.15714-10.66667-2.4919zm57.33333-36.64142c0-.36666.3-.66666.66667-.66666s.66667.3.66667.66667c0 .36666-.3.66666-.66667.66666s-.66667-.3-.66667-.66666zm-4.26687-4.00114c-2.71345-.99728-6.91345-2.13164-9.33334-2.52079-2.41988-.38915-7.84979-1.8986-12.06645-3.35432C95.45 41.33468 92 40.37897 92 40.6666c0 .28765-3.10736-.3998-6.90523-1.52764-3.79788-1.12785-7.99858-2.2612-9.3349-2.51855-1.94945-.37543-21.58096-5.66552-30.33037-8.1731-1.25173-.35875-.2484-1.67053 2.92926-3.82982 2.6582-1.80629 5.15591-3.28417 5.55047-3.28417.39456 0 3.76158-1.87311 7.48227-4.16248 6.73472-4.14391 6.81062-4.15628 17.02003-2.7732 5.64032.7641 26.35401 4.13722 46.03041 7.49582C144.11833 25.25206 160.76833 28 161.44193 28c.6736 0 1.22474.54346 1.22474 1.20769 0 1.5813-32.45881 21.48726-34.83797 21.36503-1.00578-.05167-4.04879-.90991-6.76224-1.9072z"/><path fill="#fd5401" d="M103.80182 245.58417c-6.30138-4.90463-18.88463-14.58183-27.96277-21.5049-31.24038-23.82414-53.24471-41.87343-52.20962-42.82551.57048-.52472 2.53724-1.34651 4.37057-1.82619l3.33333-.87215L28 180.51058l-3.33333 1.95516 4 1.48674c2.2.81769 16 6.01978 30.66666 11.5602C74 201.05307 89.9 207.05067 94.66667 208.84066c4.76666 1.78997 10.63702 4.13309 13.04523 5.20692 6.64967 2.96511 10.84975 2.41717 24.4664-3.19179 6.86861-2.82932 23.28837-9.39196 36.48837-14.58363 13.2-5.1917 26.4-10.46058 29.33333-11.70862l5.33333-2.26917L198 179.81682c-5.36447-2.492-1.84412-2.18917 4.98717.42902l3.65384 1.40038-6.3205 5.07906c-6.75795 5.43057-81.3936 64.92258-83.69107 66.71007-.79658.61976-6.16867-2.66824-12.82762-7.85118zm-6.46849-53.60628c-7.7-2.83523-19.5283-7.10841-26.28513-9.49597C57.75468 177.78458 58.39083 178.50884 56.5715 166c-.42664-2.93334-1.29603-7.71707-1.93198-10.63052-.63595-2.91344-.92252-5.53092-.63682-5.81662.28569-.2857 3.10196.3925 6.25837 1.50708 3.15641 1.11459 16.87487 5.90638 30.48547 10.64843l24.74653 8.62189 25.76506-9.20909c14.17078-5.065 26.03655-8.93761 26.36836-8.60579 1.05443 1.05442-6.43568 28.08144-8.06504 29.1016-.8588.53771-7.56145 3.13215-14.89478 5.76543-7.33334 2.63328-16.26335 5.94948-19.84447 7.36935-8.75047 3.46944-11.2061 3.22164-27.48887-2.77387zM32 178c0-.36667.3-.66667.66667-.66667.36666 0 .66666.3.66666.66667 0 .36666-.3.66666-.66666.66666-.36667 0-.66667-.3-.66667-.66666zm154.66667-2.66667c0-.36667.3-.66667.66666-.66667.36667 0 .66667.3.66667.66667s-.3.66667-.66667.66667c-.36666 0-.66666-.3-.66666-.66667zM108 163.80678c-1.83333-.72381-14.97573-5.32645-29.20533-10.22808l-25.872-8.91204-2.48987-10.58105c-1.36943-5.81958-2.32703-10.9972-2.128-11.50582.35616-.91018 14.07483 2.79525 48.49072 13.09742l17.46219 5.22719 15.87115-4.45963c8.72913-2.45279 21.87114-6.29195 29.20447-8.53147 7.33334-2.23953 14.29708-4.34924 15.475-4.68827 1.85308-.53334 1.72098.83606-.98038 10.16262-1.71712 5.92845-3.6312 11.68881-4.25348 12.80079-1.3188 2.35656-49.82634 19.19537-54.84743 19.03962-1.86654-.0579-4.89371-.69746-6.72704-1.42128zm-1.18965-29.15185c-3.9543-1.42438-7.5043-2.90444-7.88889-3.28902-.38458-.38459 6.60076-.69925 15.52298-.69925 8.92223 0 16.22223.25178 16.22223.55951 0 .46002-4.75348 2.19309-15.33334 5.59039-.73333.23548-4.56867-.73726-8.52298-2.16163z"/><path fill="#e62819" d="M103.80182 245.58417c-6.30138-4.90463-18.88463-14.58183-27.96277-21.5049-31.24038-23.82414-53.24471-41.87343-52.20962-42.82551.57048-.52472 2.53724-1.34651 4.37057-1.82619l3.33333-.87215L28 180.51058l-3.33333 1.95516 4 1.48674c2.2.81769 16 6.01978 30.66666 11.5602C74 201.05307 89.9 207.05067 94.66667 208.84066c4.76666 1.78997 10.63702 4.13309 13.04523 5.20692 6.64967 2.96511 10.84975 2.41717 24.4664-3.19179 6.86861-2.82932 23.28837-9.39196 36.48837-14.58363 13.2-5.1917 26.4-10.46058 29.33333-11.70862l5.33333-2.26917L198 179.81682c-5.36447-2.492-1.84412-2.18917 4.98717.42902l3.65384 1.40038-6.3205 5.07906c-6.75795 5.43057-81.3936 64.92258-83.69107 66.71007-.79658.61976-6.16867-2.66824-12.82762-7.85118zm-6.46849-53.60628c-7.7-2.83523-19.5283-7.10841-26.28513-9.49597C57.75468 177.78458 58.39083 178.50884 56.5715 166c-.42664-2.93334-1.29603-7.71707-1.93198-10.63052-.63595-2.91344-.99845-5.455-.80555-5.6479.1929-.19289 14.17555 4.35427 31.07257 10.1048l30.72185 10.45551 25.6974-9.18491c14.13357-5.05169 25.96889-8.91342 26.3007-8.5816 1.05443 1.05442-6.43568 28.08144-8.06504 29.1016-.8588.53771-7.56145 3.13215-14.89478 5.76543-7.33334 2.63328-16.26335 5.94948-19.84447 7.36935-8.75047 3.46944-11.2061 3.22164-27.48887-2.77387zM32 178c0-.36667.3-.66667.66667-.66667.36666 0 .66666.3.66666.66667 0 .36666-.3.66666-.66666.66666-.36667 0-.66667-.3-.66667-.66666zm154.66667-2.66667c0-.36667.3-.66667.66666-.66667.36667 0 .66667.3.66667.66667s-.3.66667-.66667.66667c-.36666 0-.66666-.3-.66666-.66667zm-86-14.71764l-12-4.47304L116 156.12838l27.33333-.01426L130 160.71358c-7.33333 2.52971-14.23333 4.54899-15.33333 4.48731-1.1-.0617-7.4-2.12503-14-4.58519z"/><path fill="#a81a57" d="M103.80182 245.58417c-6.30138-4.90463-18.88463-14.58183-27.96277-21.5049-31.24038-23.82414-53.24471-41.87343-52.20962-42.82551.57048-.52472 2.53724-1.34651 4.37057-1.82619l3.33333-.87215L28 180.51058l-3.33333 1.95516 4 1.48674c2.2.81769 16 6.01978 30.66666 11.5602C74 201.05307 89.9 207.05067 94.66667 208.84066c4.76666 1.78997 10.63702 4.13309 13.04523 5.20692 6.64967 2.96511 10.84975 2.41717 24.4664-3.19179 6.86861-2.82932 23.28837-9.39196 36.48837-14.58363 13.2-5.1917 26.4-10.46058 29.33333-11.70862l5.33333-2.26917L198 179.81682c-5.36447-2.492-1.84412-2.18917 4.98717.42902l3.65384 1.40038-6.3205 5.07906c-6.75795 5.43057-81.3936 64.92258-83.69107 66.71007-.79658.61976-6.16867-2.66824-12.82762-7.85118zm-6.46849-53.54944c-7.7-2.86649-19.51328-7.15981-26.25173-9.54073-10.12372-3.57703-12.39297-4.89167-13.0649-7.5688-.44723-1.78192-.61911-3.4339-.38196-3.67106.45743-.45742 43.36807-.80524 82.55682-.66916l23.52489.0817-1.33117 5.24442c-1.48709 5.85866-.73653 5.44028-27.05195 15.07943-8.06666 2.95476-16.76666 5.57113-19.33333 5.81415-3.03552.28741-9.56009-1.37983-18.66667-4.76994zM32 178c0-.36667.3-.66667.66667-.66667.36666 0 .66666.3.66666.66667 0 .36666-.3.66666-.66666.66666-.36667 0-.66667-.3-.66667-.66666zm154.66667-2.66667c0-.36667.3-.66667.66666-.66667.36667 0 .66667.3.66667.66667s-.3.66667-.66667.66667c-.36666 0-.66666-.3-.66666-.66667zm-130.66667-8c0-.36667.3-.66667.66667-.66667.36666 0 .66666.3.66666.66667s-.3.66667-.66666.66667C56.3 168 56 167.7 56 167.33333zm38.66667-4c0-.36667.3-.66667.66666-.66667.36667 0 .66667.3.66667.66667S95.7 164 95.33333 164c-.36666 0-.66666-.3-.66666-.66667z"/><path fill="#6b1469" d="M103.80182 245.58417c-6.30138-4.90463-18.88463-14.58183-27.96277-21.5049-31.24038-23.82414-53.24471-41.87343-52.20962-42.82551.57048-.52472 2.53724-1.34651 4.37057-1.82619l3.33333-.87215L28 180.51058l-3.33333 1.95516 4 1.48674c2.2.81769 16 6.01978 30.66666 11.5602C74 201.05307 89.9 207.05067 94.66667 208.84066c4.76666 1.78997 10.63702 4.13309 13.04523 5.20692 6.64967 2.96511 10.84975 2.41717 24.4664-3.19179 6.86861-2.82932 23.28837-9.39196 36.48837-14.58363 13.2-5.1917 26.4-10.46058 29.33333-11.70862l5.33333-2.26917L198 179.81682c-5.36447-2.492-1.84412-2.18917 4.98717.42902l3.65384 1.40038-6.3205 5.07906c-6.75795 5.43057-81.3936 64.92258-83.69107 66.71007-.79658.61976-6.16867-2.66824-12.82762-7.85118zM106 194.66666l-5.33333-2.46889 14-.0429 14-.0431L124 194.66666c-5.81417 3.18312-11.12379 3.18312-18 0zM32 178c0-.36667.3-.66667.66667-.66667.36666 0 .66666.3.66666.66667 0 .36666-.3.66666-.66666.66666-.36667 0-.66667-.3-.66667-.66666zm154.66667-2.66667c0-.36667.3-.66667.66666-.66667.36667 0 .66667.3.66667.66667s-.3.66667-.66667.66667c-.36666 0-.66666-.3-.66666-.66667z"/></g></g></svg>