<svg xmlns="http://www.w3.org/2000/svg" role="img" viewBox="-1.19 -1.13 58.83 11.32"><title>LAGOSNE logo</title><g transform="translate(-1.172 8.906)"><path d="M6.6914 0H1.17189v-8.7246h1.16015v7.69335h4.35938z"/><path d="M14.73047 0h-1.23633l-.85547-2.43164H8.86523L8.00977 0H6.83203l3.17578-8.7246h1.54688zm-2.44922-3.42773l-1.5293-4.2832-1.53515 4.2832z"/><path d="M23.33203-.64453q-.71484.32812-1.56445.57422-.84375.24023-1.63477.24023-1.01953 0-1.86914-.28125-.8496-.28125-1.44726-.84375-.60352-.56836-.93164-1.41797-.32813-.85547-.32813-1.99804 0-2.0918 1.21875-3.29883Q18-8.88282 20.13281-8.88282q.74414 0 1.51758.18165.7793.17578 1.67578.60351v1.37696h-.10547q-.18164-.14063-.52734-.36914-.3457-.22852-.67969-.38086-.4043-.18164-.91992-.29883-.50977-.12305-1.16016-.12305-1.46484 0-2.3203.94336-.84962.9375-.84962 2.54297 0 1.69336.89063 2.63672.89062.9375 2.42578.9375.5625 0 1.11914-.11133.5625-.11133.98437-.2871v-2.13868H19.8457v-1.01953h3.48633z"/><path d="M31.86328-7.72266q.5332.58594.81445 1.43555.28711.84961.28711 1.92773 0 1.07813-.29297 1.9336-.2871.8496-.80859 1.41797-.53906.5918-1.27734.89062-.73242.29883-1.67578.29883-.91993 0-1.67579-.30469-.75-.30468-1.27734-.88476-.52734-.58008-.81445-1.42383-.28125-.84375-.28125-1.92773 0-1.06641.28125-1.91016.28125-.84961.82031-1.45313.51563-.57422 1.27734-.8789.76758-.30469 1.66993-.30469.9375 0 1.68164.31055.75.30468 1.27148.87304zm-.10547 3.36328q0-1.69921-.76172-2.61914-.76171-.92578-2.08007-.92578-1.33008 0-2.0918.92578-.75586.91993-.75586 2.61915 0 1.7168.77344 2.63085.77343.9082 2.07422.9082 1.30078 0 2.06836-.9082.77343-.91406.77343-2.63085z"/><path d="M41.14453-2.49023q0 .50976-.24023 1.0078-.23438.49806-.66211.84376-.46875.375-1.0957.58594-.6211.21093-1.5.21093-.94336 0-1.69922-.17578-.75-.17578-1.5293-.52148V-1.9922H34.5q.6621.55078 1.5293.84961.86718.29883 1.6289.29883 1.07813 0 1.67578-.4043.60352-.4043.60352-1.07812 0-.58008-.2871-.85547-.28126-.2754-.86134-.42773-.43945-.1172-.95508-.19336-.50976-.07618-1.08398-.19336-1.16016-.2461-1.72266-.8379-.55664-.59765-.55664-1.55273 0-1.0957.92578-1.79297.92579-.70312 2.34961-.70312.91993 0 1.6875.17578.76758.17578 1.35938.4336v1.37109h-.08203q-.49805-.42188-1.3125-.69727-.8086-.28125-1.6582-.28125-.93164 0-1.5.38672-.5625.38672-.5625.9961 0 .54491.28125.85546t.99023.47461q.375.08203 1.0664.19922.69141.11719 1.17188.24023.97266.25782 1.46485.7793.49218.52149.49218 1.45899z"/><path d="M49.66406 0h-1.43554L44.0918-7.80469V0H43.0078v-8.7246h1.79883l3.77344 7.125v-7.125h1.08398z"/><path d="M57.73242 0h-5.74804v-8.7246h5.74804v1.03124h-4.58789v2.39063h4.5879v1.03125h-4.5879v3.24023h4.5879z"/></g></svg>