<svg xmlns="http://www.w3.org/2000/svg" role="img" viewBox="-13.09 -13.09 654.68 122.68"><title>lca_algebraic logo</title><path d="M298.7 92.8L302 85a20.562 20.562 0 0 0 3.817 2.373 24.737 24.737 0 0 0 1.783.777q2.759 1.078 6.559 1.226a31.788 31.788 0 0 0 1.241.024 21.701 21.701 0 0 0 4.521-.443q2.901-.618 5.101-2.098a12.576 12.576 0 0 0 1.528-1.209 11.352 11.352 0 0 0 2.907-4.493q1.143-3.101 1.143-7.457v-6.4q-2 2.4-5.75 4.55T315.9 74q-5.9 0-11.2-3.05a22.236 22.236 0 0 1-7.292-6.838A27.437 27.437 0 0 1 296.1 62a25.181 25.181 0 0 1-2.713-7.624 35.033 35.033 0 0 1-.587-6.576 32.06 32.06 0 0 1 .917-7.808 26.682 26.682 0 0 1 2.333-6.092 25.706 25.706 0 0 1 6.064-7.622A24.448 24.448 0 0 1 304.8 24.3q5.5-3.5 12.1-3.5a22.366 22.366 0 0 1 4.82.501 18.715 18.715 0 0 1 3.18.999 25.705 25.705 0 0 1 3.828 1.968A20.998 20.998 0 0 1 331.1 26v-4h8.2v50.8q0 8.6-3 14t-8.35 7.9a25.811 25.811 0 0 1-6.604 2.021 35.243 35.243 0 0 1-5.946.479q-4.6 0-8.95-1.1a27.232 27.232 0 0 1-5.3-1.917 23.518 23.518 0 0 1-2.45-1.383zm118.9-23.1V74h-8.4V0h9v27.4q2-2.3 5.85-4.45a16.584 16.584 0 0 1 5.231-1.822 22.424 22.424 0 0 1 3.919-.328q6 0 11.25 3.15a22.329 22.329 0 0 1 7.178 6.967 27.464 27.464 0 0 1 1.272 2.133q3.2 5.95 3.2 14.45a33.315 33.315 0 0 1-.687 6.888A27.75 27.75 0 0 1 454.1 58.8a29.367 29.367 0 0 1-3.161 6.004 25.482 25.482 0 0 1-2.189 2.746 24.894 24.894 0 0 1-6.131 4.914 23.302 23.302 0 0 1-1.419.736 20.006 20.006 0 0 1-7.366 1.96 19.209 19.209 0 0 1-1.234.04q-4.5 0-8.45-1.65a30.274 30.274 0 0 1-3.302-1.608q-1.826-1.039-3.248-2.242zm-20.7-18h-36.4a24.088 24.088 0 0 0 1.139 5.025q1.336 3.813 3.961 6.375 4.2 4.1 11.1 4.1 4.5 0 8.1-.95 3.6-.95 6.9-2.45l2.1 7.7a40.77 40.77 0 0 1-4.335 1.626 51.863 51.863 0 0 1-3.765 1.024 38.914 38.914 0 0 1-5.092.819 52.025 52.025 0 0 1-5.008.231 28.318 28.318 0 0 1-7.746-1.005 21.108 21.108 0 0 1-10.004-6.145 23.521 23.521 0 0 1-5.205-9.54Q351.3 53.845 351.3 48a35.359 35.359 0 0 1 .833-7.822 28.84 28.84 0 0 1 2.117-6.128 24.642 24.642 0 0 1 5.016-7.082 22.887 22.887 0 0 1 3.234-2.618 21.048 21.048 0 0 1 10.259-3.472 26.205 26.205 0 0 1 2.041-.078q7.5 0 12.45 3.25 4.95 3.25 7.45 8.75a28.185 28.185 0 0 1 2.426 9.864 33.434 33.434 0 0 1 .074 2.236 75.204 75.204 0 0 1-.291 6.697 69.426 69.426 0 0 1-.009.103zM69.5 23.9l-2.7 7.6a30.422 30.422 0 0 0-2.904-1.276 23.42 23.42 0 0 0-2.446-.774 20.543 20.543 0 0 0-3.043-.526A26.355 26.355 0 0 0 55.8 28.8a15.889 15.889 0 0 0-7.253 1.643 16.132 16.132 0 0 0-4.497 3.407Q39.3 38.9 39.3 47.8a25.192 25.192 0 0 0 .705 6.06A21.45 21.45 0 0 0 41.3 57.6a18.564 18.564 0 0 0 2.91 4.577 16.275 16.275 0 0 0 2.64 2.423q3.55 2.6 8.35 2.6 3.165 0 5.568-.59a15.08 15.08 0 0 0 .932-.26q2.689-.847 5.776-2.438a49.095 49.095 0 0 0 .024-.012l2.8 7.6q-3.1 1.7-6.95 2.7-3.85 1-8.75 1a26.803 26.803 0 0 1-7.039-.89 22.074 22.074 0 0 1-5.911-2.56q-5.55-3.45-8.55-9.6-3-6.15-3-14.15 0-7.5 3.05-13.7 3.05-6.2 8.75-9.85a23.067 23.067 0 0 1 9.668-3.421A29.608 29.608 0 0 1 55.3 20.8q4.4 0 7.75.8 3.35.8 6.45 2.3zm558.6 0l-2.7 7.6a30.422 30.422 0 0 0-2.904-1.276 23.42 23.42 0 0 0-2.446-.774 20.543 20.543 0 0 0-3.043-.526 26.355 26.355 0 0 0-2.607-.124 15.889 15.889 0 0 0-7.253 1.643 16.132 16.132 0 0 0-4.497 3.407q-4.75 5.05-4.75 13.95a25.192 25.192 0 0 0 .705 6.06 21.45 21.45 0 0 0 1.295 3.74 18.564 18.564 0 0 0 2.91 4.577 16.275 16.275 0 0 0 2.64 2.423q3.55 2.6 8.35 2.6 3.165 0 5.568-.59a15.08 15.08 0 0 0 .932-.26q2.689-.847 5.776-2.438a49.095 49.095 0 0 0 .024-.012l2.8 7.6q-3.1 1.7-6.95 2.7-3.85 1-8.75 1a26.803 26.803 0 0 1-7.039-.89 22.074 22.074 0 0 1-5.911-2.56q-5.55-3.45-8.55-9.6-3-6.15-3-14.15 0-7.5 3.05-13.7 3.05-6.2 8.75-9.85a23.067 23.067 0 0 1 9.668-3.421 29.608 29.608 0 0 1 3.732-.229q4.4 0 7.75.8 3.35.8 6.45 2.3zm-512.7 2.3V22h8.2v39.4a12.15 12.15 0 0 0 .102 1.636q.332 2.434 1.748 3.314 1.85 1.15 4.05 1.15l-1.9 7a17.722 17.722 0 0 1-4.265-.472q-5.637-1.4-7.232-6.948a13.59 13.59 0 0 1-.103-.38 21.307 21.307 0 0 1-3.11 3.426 28.498 28.498 0 0 1-3.14 2.424Q105.8 75.2 99.7 75.2q-6.5 0-11.8-3.3a22.947 22.947 0 0 1-7.413-7.527 27.923 27.923 0 0 1-1.037-1.823 27.228 27.228 0 0 1-2.63-7.942 36.644 36.644 0 0 1-.52-6.308 33.142 33.142 0 0 1 .997-8.269A27.968 27.968 0 0 1 79.45 34.3q3.15-6.2 8.7-9.85a22.297 22.297 0 0 1 11.195-3.606 27.388 27.388 0 0 1 1.555-.044 22.584 22.584 0 0 1 4.794.49 18.703 18.703 0 0 1 3.356 1.06 26.002 26.002 0 0 1 4.287 2.294A22.103 22.103 0 0 1 115.4 26.2zm121.7 0V22h8.2v39.4a12.15 12.15 0 0 0 .102 1.636q.332 2.434 1.748 3.314 1.85 1.15 4.05 1.15l-1.9 7a17.722 17.722 0 0 1-4.265-.472q-5.637-1.4-7.232-6.948a13.59 13.59 0 0 1-.103-.38 21.307 21.307 0 0 1-3.11 3.426 28.498 28.498 0 0 1-3.14 2.424q-3.95 2.65-10.05 2.65-6.5 0-11.8-3.3a22.947 22.947 0 0 1-7.413-7.527 27.923 27.923 0 0 1-1.037-1.823 27.228 27.228 0 0 1-2.63-7.942A36.644 36.644 0 0 1 198 48.3a33.142 33.142 0 0 1 .997-8.269 27.968 27.968 0 0 1 2.153-5.731q3.15-6.2 8.7-9.85a22.297 22.297 0 0 1 11.195-3.606 27.388 27.388 0 0 1 1.555-.044 22.584 22.584 0 0 1 4.794.49 18.703 18.703 0 0 1 3.356 1.06 26.002 26.002 0 0 1 4.287 2.294A22.103 22.103 0 0 1 237.1 26.2zm304 0V22h8.2v39.4a12.15 12.15 0 0 0 .102 1.636q.332 2.434 1.748 3.314 1.85 1.15 4.05 1.15l-1.9 7a17.722 17.722 0 0 1-4.265-.472q-5.637-1.4-7.232-6.948a13.59 13.59 0 0 1-.103-.38 21.307 21.307 0 0 1-3.11 3.426 28.498 28.498 0 0 1-3.14 2.424q-3.95 2.65-10.05 2.65-6.5 0-11.8-3.3a22.947 22.947 0 0 1-7.413-7.527 27.923 27.923 0 0 1-1.037-1.823 27.228 27.228 0 0 1-2.63-7.942A36.644 36.644 0 0 1 502 48.3a33.142 33.142 0 0 1 .997-8.269 27.968 27.968 0 0 1 2.153-5.731q3.15-6.2 8.7-9.85a22.297 22.297 0 0 1 11.195-3.606 27.388 27.388 0 0 1 1.555-.044 22.584 22.584 0 0 1 4.794.49 18.703 18.703 0 0 1 3.356 1.06 26.002 26.002 0 0 1 4.287 2.294A22.103 22.103 0 0 1 541.1 26.2zM0 57.7V0h9v56.8a20.644 20.644 0 0 0 .188 2.888q.462 3.264 2.062 5.112a7.363 7.363 0 0 0 4.584 2.476 10.724 10.724 0 0 0 1.666.124q1.9 0 3.75-.45a22.192 22.192 0 0 0 1.463-.406q.935-.297 1.687-.644l2.2 7.3q-1.399.622-3.312 1.123a34.978 34.978 0 0 1-1.138.277 23.816 23.816 0 0 1-3.155.485 30.514 30.514 0 0 1-2.695.115 20.862 20.862 0 0 1-4.89-.554A17.544 17.544 0 0 1 8 73.45a12.683 12.683 0 0 1-5.325-4.765 15.856 15.856 0 0 1-.525-.885Q.416 64.654.08 60.012A32.105 32.105 0 0 1 0 57.7zm262.7 0V0h9v56.8a20.644 20.644 0 0 0 .188 2.888q.462 3.264 2.062 5.112a7.363 7.363 0 0 0 4.584 2.476 10.724 10.724 0 0 0 1.666.124q1.9 0 3.75-.45a22.192 22.192 0 0 0 1.463-.406q.935-.297 1.687-.644l2.2 7.3q-1.399.622-3.312 1.123a34.978 34.978 0 0 1-1.138.277 23.816 23.816 0 0 1-3.155.485A30.514 30.514 0 0 1 279 75.2a20.862 20.862 0 0 1-4.89-.554 17.544 17.544 0 0 1-3.41-1.196 12.683 12.683 0 0 1-5.325-4.765 15.856 15.856 0 0 1-.525-.885q-1.734-3.146-2.07-7.788a32.105 32.105 0 0 1-.08-2.312zM477.6 74h-9V22h8.7v11.3q1.3-3.3 3.5-6.15 2.2-2.85 5.5-4.6a14.817 14.817 0 0 1 4.68-1.524A19.459 19.459 0 0 1 494 20.8q1.5 0 3 .15a18.972 18.972 0 0 1 1.055.134q.5.078.927.178a8.817 8.817 0 0 1 .518.138l-2.7 9.3a9.763 9.763 0 0 0-2.145-.612q-1.096-.188-2.355-.188a12.958 12.958 0 0 0-6.63 1.846 15.609 15.609 0 0 0-.42.254q-3.328 2.086-5.472 6.442a22.927 22.927 0 0 0-.028.058q-1.763 3.607-2.08 8.828a39.09 39.09 0 0 0-.07 2.372V74zm98.6 0h-9V22h9v52zM114.6 60.7V32.8q-2.7-1.9-5.95-3.05t-6.85-1.15a15.924 15.924 0 0 0-4.971.754 14.024 14.024 0 0 0-3.479 1.696 16.301 16.301 0 0 0-5.019 5.424 19.962 19.962 0 0 0-.731 1.376 20.663 20.663 0 0 0-1.753 5.677A27.678 27.678 0 0 0 85.5 48q0 5.6 2.1 9.95a17.602 17.602 0 0 0 3.106 4.546A15.697 15.697 0 0 0 93.4 64.75q3.7 2.45 8.3 2.45 3.8 0 7.2-1.85 3.4-1.85 5.7-4.65zm121.7 0V32.8q-2.7-1.9-5.95-3.05t-6.85-1.15a15.924 15.924 0 0 0-4.971.754 14.024 14.024 0 0 0-3.479 1.696 16.301 16.301 0 0 0-5.019 5.424 19.962 19.962 0 0 0-.731 1.376 20.663 20.663 0 0 0-1.753 5.677A27.678 27.678 0 0 0 207.2 48q0 5.6 2.1 9.95a17.602 17.602 0 0 0 3.106 4.546 15.697 15.697 0 0 0 2.694 2.254q3.7 2.45 8.3 2.45 3.8 0 7.2-1.85 3.4-1.85 5.7-4.65zm304 0V32.8q-2.7-1.9-5.95-3.05t-6.85-1.15a15.924 15.924 0 0 0-4.971.754 14.024 14.024 0 0 0-3.479 1.696 16.301 16.301 0 0 0-5.019 5.424 19.962 19.962 0 0 0-.731 1.376 20.663 20.663 0 0 0-1.753 5.677A27.678 27.678 0 0 0 511.2 48q0 5.6 2.1 9.95a17.602 17.602 0 0 0 3.106 4.546 15.697 15.697 0 0 0 2.694 2.254q3.7 2.45 8.3 2.45 3.8 0 7.2-1.85 3.4-1.85 5.7-4.65zM418.2 35.4v27.8a17.99 17.99 0 0 0 3.63 2.185 21.802 21.802 0 0 0 1.77.715 19.462 19.462 0 0 0 6.164 1.096 22.039 22.039 0 0 0 .436.004q4.9 0 8.65-2.4t5.9-6.8q2.15-4.4 2.15-10.2 0-6-2.15-10.3-2.15-4.3-5.7-6.6-3.55-2.3-7.85-2.3a14.741 14.741 0 0 0-5.627 1.063 14.054 14.054 0 0 0-2.123 1.087Q420 32.9 418.2 35.4zM330.3 60V32.8q-2.166-1.575-5.203-2.859A36.018 36.018 0 0 0 325 29.9a16.249 16.249 0 0 0-3.804-1.051 22.135 22.135 0 0 0-3.396-.249q-4.1 0-7.7 2.2-3.6 2.2-5.85 6.35Q302 41.3 302 47.3a24.32 24.32 0 0 0 .478 4.936 18.311 18.311 0 0 0 1.772 4.964 18.576 18.576 0 0 0 2.911 4.075A15.802 15.802 0 0 0 310.1 63.7q3.6 2.3 7.8 2.3a15.276 15.276 0 0 0 4.578-.668A13.606 13.606 0 0 0 325.1 64.2a20.855 20.855 0 0 0 2.981-2.016A16.309 16.309 0 0 0 330.3 60zM180.5 43.8h-34v-8.2h34v8.2zm179.9.6h28.5a24.355 24.355 0 0 0-.404-4.585q-.496-2.584-1.6-4.608A12.422 12.422 0 0 0 385.1 32.7a12.488 12.488 0 0 0-6.961-3.776 18.395 18.395 0 0 0-3.539-.324 13.58 13.58 0 0 0-5.112.935A12.524 12.524 0 0 0 365 32.65q-3.8 4.05-4.6 11.75zm206.937-33.112A5.973 5.973 0 0 0 571.7 13.1a8.175 8.175 0 0 0 1.496-.131 5.647 5.647 0 0 0 3.104-1.619Q578 9.6 578 6.8a7.26 7.26 0 0 0 0-.081 6.06 6.06 0 0 0-1.85-4.369 7.395 7.395 0 0 0-.058-.057A6.059 6.059 0 0 0 571.7.5a8.264 8.264 0 0 0-1.656.158A5.661 5.661 0 0 0 567.1 2.2a5.588 5.588 0 0 0-1.471 2.632A7.987 7.987 0 0 0 565.4 6.8a5.992 5.992 0 0 0 .492 2.419 6.643 6.643 0 0 0 1.358 1.981 7.466 7.466 0 0 0 .087.088z" vector-effect="non-scaling-stroke" fill="#000" fill-rule="evenodd" stroke="#000" stroke-linecap="round" stroke-width=".25mm"/></svg>