<svg xmlns="http://www.w3.org/2000/svg" role="img" viewBox="-4.72 -4.97 245.18 124.68"><title>Let&apos;s Wait Awhile logo</title><style>.st1{fill:#c50e1f}</style><style>.st1{fill:#c50e1f}</style><style>.st1{fill:#c50e1f}</style><style>.st1{fill:#c50e1f}</style><style id="style566">.st1{fill:#c50e1f}</style><path id="XMLID_191_" d="M75.81 80.60274c6.28 0 10.79-1.86 14.29-4.21 3.27-2.19 5.8-4.78 7.74-8.12 2.51-4.32 2.78-8.33 2.99-10.66 0-.02 4.67-48.4 4.67-48.4H82.7c-.01 0-6.9 71.39-6.89 71.39z" class="st1"/><path id="XMLID_190_" d="M53.86 22.63274l-3.45 35.8c-.58 7.83 2.36 11.85 4.18 13.97 3.34 3.87 9.47 6.91 16.56 8.18l6.6-68.51c.21-3.25-.73-6.09-2.9-8.57-2.53-2.89-6.28-3.55-7.83-3.55l-56.56.01c-4.18 0-10.46 4.05-10.46 11.05 0 8.65 7.69 11.62 10.34 11.62 1.35.01 43.52 0 43.52 0z" class="st1"/><path id="XMLID_189_" d="M44.53 71.31274l4.24-44.02-22.84-.05s-3.72 38.32-4.26 44.02z" class="st1"/><g id="XMLID_127_" transform="translate(0 -.097)"><path id="XMLID_187_" d="M119.73 11.16v11.67h-2.18V11.16h-3.7V9.31h9.61v1.84h-3.73z" class="st1"/><path id="XMLID_185_" d="M126.36 22.83V9.31h7.13v1.82h-4.95v3.84h4.7v1.78h-4.7v4.2h4.95v1.86h-7.13z" class="st1"/><path id="XMLID_183_" d="M143.02 22.99c-4.52 0-6.19-2.92-6.19-6.53 0-4.2 2.12-7.27 6.67-7.27 1 0 2.04.16 2.98.38l-.24 2c-.98-.3-1.94-.46-2.92-.46-2.82 0-4.1 2.16-4.1 4.98 0 3.14 1.34 4.92 4.28 4.92.92 0 2.1-.26 2.84-.62l.26 1.94c-1.02.42-2.28.66-3.58.66z" class="st1"/><path id="XMLID_181_" d="M158.99 22.83v-6.07h-6.39v6.07h-2.18V9.31h2.18v5.59h6.39V9.31h2.16v13.51h-2.16z" class="st1"/><path id="XMLID_179_" d="M174.01 22.83l-4.62-7.69c-.6-.98-1.08-1.94-1.5-2.84.08 1.32.12 4.06.12 5.99v4.54h-2.12V9.31h2.86l4.46 7.37c.6 1 1.14 2.08 1.64 3.06-.08-1.54-.14-4.44-.14-6.43v-4h2.12v13.51h-2.82z" class="st1"/><path id="XMLID_177_" d="M181.56 22.83V9.31h2.18v13.51h-2.18z" class="st1"/><path id="XMLID_175_" d="M190.47 23.03c-.98 0-1.94-.12-2.72-.32l.12-2.06c.76.28 1.82.5 2.8.5 1.48 0 2.68-.62 2.68-2.08 0-2.84-5.91-1.64-5.91-6.01 0-2.32 1.82-3.94 4.96-3.94.8 0 1.62.1 2.44.24l-.12 1.94c-.78-.24-1.64-.38-2.44-.38-1.68 0-2.54.78-2.54 1.9 0 2.7 5.9 1.7 5.9 5.93.01 2.48-1.95 4.28-5.17 4.28z" class="st1"/><path id="XMLID_173_" d="M204.85 22.99c-4.52 0-6.19-2.92-6.19-6.53 0-4.2 2.12-7.27 6.67-7.27 1 0 2.04.16 2.98.38l-.24 2c-.98-.3-1.94-.46-2.92-.46-2.82 0-4.1 2.16-4.1 4.98 0 3.14 1.34 4.92 4.28 4.92.92 0 2.1-.26 2.84-.62l.26 1.94c-1.02.42-2.28.66-3.58.66z" class="st1"/><path id="XMLID_171_" d="M220.82 22.83v-6.07h-6.39v6.07h-2.18V9.31h2.18v5.59h6.39V9.31h2.16v13.51h-2.16z" class="st1"/><path id="XMLID_169_" d="M227.71 22.83V9.31h7.13v1.82h-4.95v3.84h4.7v1.78h-4.7v4.2h4.95v1.86h-7.13z" class="st1"/><path id="XMLID_167_" d="M120.21 47.29c-4.24 0-5.15-2.32-5.15-4.8v-8.91h2.18v8.75c0 1.8.6 3.16 3.1 3.16 2.2 0 3.2-.92 3.2-3.44v-8.47h2.14v8.31c.01 3.6-1.93 5.4-5.47 5.4z" class="st1"/><path id="XMLID_165_" d="M138.25 47.09l-4.62-7.69c-.6-.98-1.08-1.94-1.5-2.84.08 1.32.12 4.06.12 5.99v4.54h-2.12V33.58h2.86l4.46 7.37c.6 1 1.14 2.08 1.64 3.06-.08-1.54-.14-4.44-.14-6.43v-4h2.12v13.51z" class="st1"/><path id="XMLID_163_" d="M145.6 47.09V33.58h2.18v13.51z" class="st1"/><path id="XMLID_161_" d="M157.79 47.09h-2.48l-4.8-13.51h2.4l2.84 8.33c.28.78.6 1.74.86 2.74h.02c.24-.94.48-1.78.88-2.88l2.9-8.19h2.24z" class="st1"/><path id="XMLID_159_" d="M165.38 47.09V33.58h7.13v1.82h-4.95v3.84h4.7v1.78h-4.7v4.2h4.95v1.86h-7.13z" class="st1"/><path id="XMLID_156_" d="M182.84 47.09l-4.2-5.85h-.1v5.85h-2.18V33.58c.98-.06 2.1-.08 3.62-.08 2.8 0 4.72.98 4.72 3.66 0 2.16-1.62 3.54-3.82 3.78.38.48.8 1 1.14 1.44l3.56 4.7h-2.74zm-3.16-11.81c-.42 0-.82.02-1.14.04v4.28c.2.02.58.04 1.06.04 1.76 0 2.82-.9 2.82-2.24 0-1.48-.92-2.12-2.74-2.12z" class="st1"/><path id="XMLID_154_" d="M190.87 47.29c-.98 0-1.94-.12-2.72-.32l.12-2.06c.76.28 1.82.5 2.8.5 1.48 0 2.68-.62 2.68-2.08 0-2.84-5.91-1.64-5.91-6.01 0-2.32 1.82-3.94 4.96-3.94.8 0 1.62.1 2.44.24l-.12 1.94c-.78-.24-1.64-.38-2.44-.38-1.68 0-2.54.78-2.54 1.9 0 2.7 5.9 1.7 5.9 5.93.02 2.48-1.95 4.28-5.17 4.28z" class="st1"/><path id="XMLID_152_" d="M199.56 47.09V33.58h2.18v13.51z" class="st1"/><path id="XMLID_150_" d="M210.47 35.42v11.67h-2.18V35.42h-3.7v-1.84h9.61v1.84z" class="st1"/><path id="XMLID_145_" d="M223.91 47.09l-1.04-2.98h-5.47l-1.04 2.98h-2.2L219 33.58h2.42l4.9 13.51zm-5.69-14.67c-.68 0-1.2-.54-1.2-1.22 0-.66.52-1.2 1.2-1.2.68 0 1.22.54 1.22 1.2 0 .67-.54 1.22-1.22 1.22zm2.52 5.7c-.26-.7-.44-1.34-.6-2.08h-.04a15.9 15.9 0 0 1-.62 2.14l-1.52 4.18h4.32zm1.43-5.7c-.68 0-1.22-.54-1.22-1.22 0-.66.54-1.2 1.22-1.2.66 0 1.2.54 1.2 1.2 0 .67-.54 1.22-1.2 1.22z" class="st1"/><path id="XMLID_143_" d="M232.2 35.42v11.67h-2.18V35.42h-3.7v-1.84h9.61v1.84z" class="st1"/><path id="XMLID_139_" d="M118.75 71.41c-.82 0-2.18-.04-3.68-.06V57.84c1.06-.02 2.6-.06 4.24-.06 2.94 0 4.46 1.2 4.46 3.28 0 1.38-.92 2.6-2.3 3.08v.04c1.76.34 2.58 1.68 2.58 3.08 0 1.77-1.16 4.15-5.3 4.15zm.2-11.89c-.6 0-1.18.02-1.7.04v4c.36.02.7.02 1.16.02 2.02 0 3.08-.82 3.08-2.18 0-1.1-.62-1.88-2.54-1.88zm-.48 5.69c-.22 0-.92 0-1.22.02v4.3c.34.06.88.1 1.58.1 1.98 0 2.92-.96 2.92-2.32 0-1.54-1.38-2.1-3.28-2.1z" class="st1"/><path id="XMLID_137_" d="M127.72 71.35V57.84h7.13v1.82h-4.95v3.84h4.7v1.78h-4.7v4.2h4.95v1.86h-7.13z" class="st1"/><path id="XMLID_134_" d="M145.18 71.35l-4.2-5.85h-.1v5.85h-2.18V57.84c.98-.06 2.1-.08 3.62-.08 2.8 0 4.72.98 4.72 3.66 0 2.16-1.62 3.54-3.82 3.78.38.48.8 1 1.14 1.44l3.56 4.7h-2.74zm-3.17-11.81c-.42 0-.82.02-1.14.04v4.28c.2.02.58.04 1.06.04 1.76 0 2.82-.9 2.82-2.24.01-1.48-.91-2.12-2.74-2.12z" class="st1"/><path id="XMLID_132_" d="M151.06 71.35V57.84h2.18v11.61h4.65v1.9z" class="st1"/><path id="XMLID_130_" d="M160.62 71.35V57.84h2.18v13.51z" class="st1"/><path id="XMLID_128_" d="M175.45 71.35l-4.62-7.69c-.6-.98-1.08-1.94-1.5-2.84.08 1.32.12 4.06.12 5.98v4.54h-2.12v-13.5h2.86l4.46 7.37c.6 1 1.14 2.08 1.64 3.06-.08-1.54-.14-4.44-.14-6.43v-4h2.12v13.51z" class="st1"/></g><g id="text724" stroke-width="1.616" transform="translate(.82 76.085) scale(.40534)"><path id="path860" d="M52.81705 95.4683H23.0872V48.47492h6.24895v41.43874h23.4809z"/><path id="path857" d="M88.10152 78.45726H62.12736q0 3.25072.97837 5.68087.97837 2.39858 2.68263 3.94504 1.64113 1.5149 3.88192 2.27235 2.27234.75744 4.98653.75744 3.59788 0 7.22732-1.42021 3.661-1.45178 5.20746-2.84043h.3156v6.46987q-2.99823 1.26241-6.1227 2.11454-3.12448.85213-6.56455.85213-8.77378 0-13.6972-4.73405-4.92341-4.76561-4.92341-13.50783 0-8.64754 4.70249-13.72875Q65.53587 59.237 73.2366 59.237q7.13264 0 10.983 4.16597 3.88192 4.16596 3.88192 11.83513zm-5.77554-4.54469q-.03156-4.67093-2.36703-7.22732-2.3039-2.55639-7.03795-2.55639-4.76562 0-7.60605 2.80888-2.80887 2.80887-3.1876 6.97483z"/><path id="path854" d="M115.40122 95.15269q-1.6727.44184-3.661.72589-1.95674.28404-3.5032.28404-5.39682 0-8.20569-2.90355-2.80887-2.90355-2.80887-9.3103V65.20191H93.2143v-4.98654h4.00816V50.08451h5.93335v10.13087h12.24541v4.98654h-12.24541v16.06421q0 2.77731.12624 4.35533.12624 1.54646.88369 2.90355.69433 1.26242 1.89362 1.86207 1.23085.56808 3.72412.56808 1.45178 0 3.02979-.41028 1.57802-.44185 2.27235-.72589h.3156z"/><path id="path851" d="M128.90906 46.36039l-1.3571 18.27344h-4.2922l-1.3571-18.27344z"/><path id="path848" d="M165.10878 85.30586q0 4.82873-4.00817 7.92165-3.9766 3.09291-10.88832 3.09291-3.91348 0-7.19576-.91525-3.25071-.9468-5.45994-2.05142v-6.65923h.31561q2.80887 2.11454 6.24895 3.37695 3.44007 1.23086 6.59611 1.23086 3.91348 0 6.12271-1.26242 2.20922-1.26241 2.20922-3.9766 0-2.08298-1.19929-3.15604-1.19929-1.07305-4.60781-1.8305-1.26242-.28404-3.31384-.66276-2.01986-.37873-3.69256-.82057-4.63937-1.23086-6.59611-3.59788-1.92518-2.39859-1.92518-5.87023 0-2.17766.88369-4.10285.91525-1.92518 2.74575-3.44007 1.76738-1.48334 4.48157-2.33547 2.74575-.88369 6.1227-.88369 3.15604 0 6.37519.78901 3.25072.75745 5.39682 1.86206v6.34363h-.3156q-2.27234-1.6727-5.52306-2.80887-3.25072-1.16773-6.37519-1.16773-3.25072 0-5.4915 1.26241-2.24079 1.23086-2.24079 3.69256 0 2.17767 1.3571 3.28228 1.32553 1.10461 4.29221 1.79894 1.64113.37872 3.661.75745 2.05142.37872 3.40851.69433 4.13441.9468 6.37519 3.25071 2.24079 2.33547 2.24079 6.18583z"/><path id="path845" d="M251.48945 48.47493L239.27559 95.4683h-7.03795l-9.87839-39.0086-9.65747 39.0086h-6.88016l-12.43477-46.99336h6.40675l9.87839 39.07171 9.72058-39.0717h6.34363l9.81527 39.45043 9.81527-39.45044z"/><path id="path842" d="M284.47002 95.4683h-5.90179V91.7126q-.789.53653-2.1461 1.5149-1.32553.9468-2.58795 1.5149-1.48333.72588-3.40852 1.19929-1.92518.50496-4.51313.50496-4.76561 0-8.07945-3.15603-3.31383-3.15604-3.31383-8.0479 0-4.00816 1.70426-6.46986 1.73582-2.49327 4.92341-3.91349 3.21916-1.42021 7.73229-1.92518 4.51313-.50496 9.68902-.75745v-.91525q0-2.01986-.72588-3.3454-.69433-1.32553-2.01987-2.08298-1.26241-.72588-3.02979-.97837-1.76738-.25248-3.69256-.25248-2.33547 0-5.20746.6312-2.87199.59965-5.93334 1.76739h-.31561v-6.02803q1.73582-.4734 5.0181-1.0415 3.28227-.56808 6.46987-.56808 3.72412 0 6.46987.6312 2.77731.59966 4.79717 2.083 1.98831 1.45177 3.0298 3.75567 1.04149 2.3039 1.04149 5.71243zm-5.90179-8.6791v-9.81527q-2.71419.1578-6.40675.4734-3.661.3156-5.8071.91525-2.55639.72589-4.13441 2.27235-1.57801 1.5149-1.57801 4.19752 0 3.0298 1.8305 4.57626 1.8305 1.5149 5.58618 1.5149 3.12447 0 5.71242-1.1993 2.58795-1.23085 4.79717-2.93511z"/><path id="path839" d="M302.27006 54.3136h-6.6908v-6.15427h6.6908zm-.37873 41.1547h-5.93334V60.21537h5.93334z"/><path id="path836" d="M331.93678 95.15269q-1.6727.44184-3.661.72589-1.95675.28404-3.5032.28404-5.39682 0-8.20569-2.90355-2.80888-2.90355-2.80888-9.3103V65.20191h-4.00816v-4.98654h4.00816V50.08451h5.93335v10.13087h12.24542v4.98654h-12.24542v16.06421q0 2.77731.12624 4.35533.12624 1.54646.88369 2.90355.69433 1.26242 1.89362 1.86207 1.23086.56808 3.72412.56808 1.45178 0 3.0298-.41028 1.57801-.44185 2.27234-.72589h.31561z"/><path id="path833" d="M399.34969 95.4683h-6.65924l-4.60781-13.09755h-20.32486l-4.60782 13.09754h-6.34363l17.10571-46.99336h8.33194zm-13.19223-18.46281l-8.23725-23.07062-8.26881 23.07062z"/><path id="path830" d="M449.40439 60.21538l-9.18406 35.25291h-5.4915l-9.05782-27.17346-8.9947 27.17346h-5.45994l-9.27874-35.2529h6.18583l6.46987 27.2997 8.80533-27.2997h4.89186l9.02626 27.2997 6.12271-27.2997z"/><path id="path827" d="M487.43464 95.4683h-5.93335V75.3959q0-2.43015-.28404-4.5447-.28404-2.1461-1.04149-3.34539-.78901-1.32553-2.27235-1.95674-1.48333-.66277-3.85036-.66277-2.43015 0-5.08121 1.1993-2.65107 1.19929-5.08122 3.06135v26.32133h-5.93335V46.3604h5.93335v17.76847q2.77731-2.3039 5.74398-3.59787 2.96668-1.29398 6.09115-1.29398 5.71242 0 8.71066 3.44008 2.99823 3.44008 2.99823 9.90995z"/><path id="path824" d="M505.23469 54.3136h-6.6908v-6.15427h6.6908zm-.37873 41.1547h-5.93334V60.21537h5.93334z"/><path id="path821" d="M522.59287 95.4683h-5.93335V46.36038h5.93335z"/><path id="path818" d="M563.84224 78.45726h-25.97417q0 3.25072.97837 5.68087.97837 2.39858 2.68263 3.94504 1.64114 1.5149 3.88192 2.27235 2.27235.75744 4.98654.75744 3.59788 0 7.22732-1.42021 3.661-1.45178 5.20746-2.84043h.3156v6.46987q-2.99823 1.26241-6.12271 2.11454-3.12447.85213-6.56455.85213-8.77378 0-13.69719-4.73405-4.92342-4.76561-4.92342-13.50783 0-8.64754 4.7025-13.72875 4.73405-5.08122 12.43477-5.08122 7.13264 0 10.98301 4.16597 3.88192 4.16596 3.88192 11.83513zm-5.77555-4.54469q-.0316-4.67093-2.36702-7.22732-2.30391-2.55639-7.03796-2.55639-4.76561 0-7.60604 2.80888-2.80888 2.80887-3.1876 6.97483z"/></g></svg>