<svg xmlns="http://www.w3.org/2000/svg" role="img" viewBox="-1.05 -1.05 54.41 10.34"><title>libRadtran logo</title><g stroke-width=".265" transform="translate(-65.023 -98.815)"><path d="M65.02336 106.97482v-8.15968h1.52961v8.15968z"/><path d="M68.465 106.97482v-5.67405h1.52961v5.67405zm0-6.63006v-1.2764h1.52961v1.2764z"/><path d="M71.90663 106.97482v-8.15968h1.52962v3.55533q.58911-1.19889 1.85518-1.19889 1.02319 0 1.60713.7493.58911.74931.58911 2.06189 0 1.42109-.66146 2.27375-.66145.84749-1.76732.84749-.95085 0-1.62264-.70279l-.28422.5736zm1.52962-1.48311q.5581.62012 1.18856.62012.56327 0 .89916-.5426.3359-.54777.3359-1.45727 0-1.74149-1.12138-1.74149-.67695 0-1.30224.87333z"/><path d="M78.9191 106.97482v-5.67405h1.52962v1.0697q.59428-1.19889 1.80867-1.19889.1447 0 .28422.031v1.36426q-.32556-.11886-.60461-.11886-.91467 0-1.48828.92501v3.60183z"/><path d="M86.51035 106.36504q-.76481.73897-1.63814.73897-.74414 0-1.20922-.45475-.46509-.45475-.46509-1.17822 0-.9405.7493-1.44693.75448-.5116 2.1549-.5116h.40825v-.51676q0-.88366-1.00769-.88366-.894 0-1.80867.50642v-1.05419q1.0387-.39274 2.05672-.39274 2.22724 0 2.22724 1.77249v2.51147q0 .66662.42892.66662.0775 0 .20153-.0207l.03617.85783q-.48575.14469-.85782.14469-.9405 0-1.20923-.73897zm0-.82165v-1.15238h-.36173q-1.48311 0-1.48311.93017 0 .31523.21187.53227.21704.21187.53226.21187.53744 0 1.1007-.52193z"/><path d="M93.52282 106.97482v-1.0697q-.58911 1.19889-1.85518 1.19889-1.0232 0-1.60713-.7493-.58394-.74931-.58394-2.06189 0-1.42626.65628-2.27375.66146-.84749 1.7725-.84749.88883 0 1.61747.7028v-3.05924h1.53478v8.15968zm0-4.19094q-.55294-.62012-1.18339-.62012-.56327 0-.89917.5426t-.3359 1.45727q0 1.74149 1.11621 1.74149.68213 0 1.30225-.87332z"/><path d="M99.88933 106.94382q-.54777.16019-.86299.16019-1.98954 0-1.98954-1.86034v-2.98689h-.63562v-.95601h.63562v-.95601l1.52962-.1757v1.13171h1.2144v.95601h-1.2144v2.78535q0 1.04386.85266 1.04386.19637 0 .47025-.0724z"/><path d="M101.25359 106.97482v-5.67405h1.52962v1.0697q.59427-1.19889 1.80866-1.19889.1447 0 .28422.031v1.36426q-.32556-.11886-.60461-.11886-.91467 0-1.48827.92501v3.60183z"/><path d="M108.84483 106.36504q-.76481.73897-1.63814.73897-.74414 0-1.20922-.45475-.46509-.45475-.46509-1.17822 0-.9405.74931-1.44693.75447-.5116 2.1549-.5116h.40824v-.51676q0-.88366-1.00769-.88366-.894 0-1.80867.50642v-1.05419q1.0387-.39274 2.05672-.39274 2.22725 0 2.22725 1.77249v2.51147q0 .66662.42891.66662.0775 0 .20154-.0207l.0362.85783q-.48576.14469-.85783.14469-.94051 0-1.20922-.73897zm0-.82165v-1.15238h-.36173q-1.48311 0-1.48311.93017 0 .31523.21187.53227.21704.21187.53226.21187.53744 0 1.10071-.52193z"/><path d="M112.28647 106.97482v-5.67405h1.52962v1.0697q.7493-1.19889 1.93269-1.19889.75964 0 1.19889.48059.43925.48059.43925 1.31257v4.01008h-1.52962v-3.63284q0-.96634-.64079-.96634-.72863 0-1.40042 1.02835v3.57083z"/></g></svg>