<svg xmlns="http://www.w3.org/2000/svg" role="img" viewBox="-0.49 -0.43 22.23 10.11"><title>lidR logo</title><g transform="translate(-1.096 9.117)"><path d="M2.19727 0H1.0957v-9.11719h1.10157z"/><path d="M5.56055-7.64063h-1.2422V-8.7832h1.2422zM5.49023 0H4.38867v-6.54492h1.10156z"/><path d="M12.97852 0h-1.10157v-.68555q-.4746.41016-.99023.63867-.51563.22852-1.11914.22852-1.17188 0-1.86328-.90234-.68555-.90235-.68555-2.50196 0-.83203.23438-1.48242.24023-.65039.64453-1.10742.39843-.44531.92578-.67969.5332-.23437 1.10156-.23437.51563 0 .91406.11133.39844.10546.8379.33398v-2.83594h1.10156zm-1.10157-1.61133v-3.75586q-.4453-.19922-.79687-.27539-.35156-.07617-.76758-.07617-.92578 0-1.4414.64453-.51563.64453-.51563 1.82813 0 1.16601.39844 1.77539.39843.60351 1.27734.60351.46875 0 .94922-.20508.48047-.21093.89648-.53906z"/><path d="M22.45313 0h-1.50586L18.0293-3.46875h-1.63477V0h-1.16015v-8.7246h2.44335q.79102 0 1.31836.10546.52735.0996.94922.36328.47461.29883.73828.75586.26954.45117.26954 1.14844 0 .94336-.47461 1.58203-.47461.63281-1.30665.95508zm-2.7129-6.26953q0-.375-.13476-.66211-.1289-.29297-.4336-.49219-.25195-.16992-.59765-.23437-.3457-.07032-.81445-.07032h-1.36524v3.29297h1.17188q.55078 0 .96093-.09375.41016-.0996.69727-.36328.26367-.2461.38672-.5625.1289-.32226.1289-.81445z"/></g></svg>