<svg xmlns="http://www.w3.org/2000/svg" role="img" xmlns:xlink="http://www.w3.org/1999/xlink" viewBox="92.48 -3.02 214.79 248.04"><title>Liquid Prep logo</title><style>svg {enable-background:new 0 0 400 245}</style><path fill="#3f85b1" d="M102.9 208.2v19.7H114c.9 0 1.6.2 2 .6.5.4.7 1 .7 1.6 0 .7-.2 1.2-.7 1.6-.5.4-1.2.6-2.1.6h-13.2c-1.2 0-2.1-.3-2.6-.8s-.8-1.4-.8-2.6V208c0-1.1.2-1.9.7-2.5.5-.6 1.2-.8 2-.8s1.5.3 2 .8c.7.8.9 1.6.9 2.7zm19.7 1.9c-.7 0-1.3-.2-1.8-.6-.5-.4-.7-1-.7-1.8 0-.7.3-1.3.8-1.8s1.1-.7 1.8-.7 1.2.2 1.7.6c.5.4.8 1 .8 1.8s-.2 1.4-.7 1.8c-.6.5-1.2.7-1.9.7zm2.5 5.2v14.6c0 1-.2 1.8-.7 2.3-.5.5-1.1.8-1.8.8s-1.3-.3-1.8-.8-.7-1.3-.7-2.3v-14.4c0-1 .2-1.7.7-2.3s1.1-.8 1.8-.8 1.3.3 1.8.8.7 1.2.7 2.1zm19 21.7v-7.1c-1 1-2 1.7-3 2.2-1.1.5-2.2.8-3.5.8-1.6 0-3-.4-4.3-1.2-1.3-.8-2.3-2-3-3.6-.7-1.5-1.1-3.4-1.1-5.5s.4-4 1.1-5.5c.7-1.5 1.8-2.7 3.1-3.5s2.8-1.2 4.4-1.2c1.4 0 2.6.3 3.6.8 1.1.6 2 1.4 2.8 2.6v-.6c0-.9.2-1.6.7-2.1.4-.5 1-.7 1.7-.7s1.3.2 1.7.7c.4.5.7 1.2.7 2.1V237c0 2.2-.8 3.4-2.4 3.4-1 0-1.6-.3-1.9-.9-.4-.6-.6-1.4-.6-2.5zm-9.9-14.4c0 1.4.2 2.5.7 3.5.4 1 1 1.7 1.7 2.2.7.5 1.5.7 2.3.7.9 0 1.7-.2 2.5-.7.8-.5 1.4-1.2 1.8-2.2.5-1 .7-2.2.7-3.6 0-1-.1-1.9-.4-2.7-.3-.8-.6-1.5-1.1-2-.5-.5-1-.9-1.6-1.2-.6-.3-1.2-.4-1.9-.4-1.4 0-2.5.6-3.4 1.7-.8 1.1-1.3 2.7-1.3 4.7zm32.8 7.5v-.6c-.6.8-1.2 1.4-1.9 1.9s-1.4.9-2.2 1.2c-.8.3-1.7.4-2.7.4-1.2 0-2.3-.3-3.3-.8s-1.7-1.2-2.2-2.1c-.6-1.1-.9-2.6-.9-4.6v-10c0-1 .2-1.8.7-2.3.5-.5 1.1-.7 1.8-.7.8 0 1.4.3 1.8.8.5.5.7 1.3.7 2.3v8.1c0 1.2.1 2.2.3 2.9.2.8.6 1.4 1.1 1.9.5.4 1.2.7 2.1.7.8 0 1.6-.3 2.4-.8.8-.5 1.3-1.2 1.6-2 .3-.7.4-2.3.4-4.7v-6.1c0-1 .2-1.7.7-2.3.5-.5 1.1-.8 1.8-.8.8 0 1.4.2 1.8.7.5.5.7 1.3.7 2.3V230c0 1-.2 1.7-.7 2.2-.4.5-1 .7-1.7.7s-1.3-.2-1.7-.7c-.3-.5-.6-1.2-.6-2.1zm12.3-20c-.7 0-1.3-.2-1.8-.6-.5-.4-.7-1-.7-1.8 0-.7.3-1.3.8-1.8s1.1-.7 1.8-.7 1.2.2 1.7.6c.5.4.8 1 .8 1.8s-.2 1.4-.7 1.8c-.6.5-1.2.7-1.9.7zm2.5 5.2v14.6c0 1-.2 1.8-.7 2.3-.5.5-1.1.8-1.8.8s-1.3-.3-1.8-.8-.7-1.3-.7-2.3v-14.4c0-1 .2-1.7.7-2.3s1.1-.8 1.8-.8 1.3.3 1.8.8.7 1.2.7 2.1zm19 14.7v-.5c-.7.8-1.3 1.4-2 1.9s-1.4.9-2.1 1.1c-.8.3-1.6.4-2.5.4-1.2 0-2.3-.3-3.4-.8-1-.5-1.9-1.2-2.7-2.2-.8-.9-1.3-2.1-1.7-3.3-.4-1.3-.6-2.7-.6-4.2 0-3.2.8-5.6 2.3-7.4 1.5-1.8 3.6-2.6 6.1-2.6 1.5 0 2.7.2 3.7.7 1 .5 2 1.3 2.9 2.3V208c0-1 .2-1.8.6-2.3s1-.8 1.8-.8 1.4.2 1.8.7c.4.5.6 1.2.6 2.2V230c0 1-.2 1.7-.7 2.2s-1 .7-1.7.7-1.3-.2-1.7-.7c-.4-.5-.7-1.2-.7-2.2zm-9.9-7.4c0 1.4.2 2.5.6 3.5.4 1 1 1.7 1.7 2.2.7.5 1.5.7 2.4.7.9 0 1.7-.2 2.4-.7s1.3-1.2 1.8-2.1c.4-1 .7-2.1.7-3.6 0-1.3-.2-2.5-.7-3.5-.4-1-1-1.7-1.8-2.2-.7-.5-1.6-.8-2.4-.8-.9 0-1.7.3-2.5.8-.7.5-1.3 1.3-1.7 2.3-.3 1-.5 2.1-.5 3.4zm40.1-.7h-5v7.7c0 1.1-.3 1.9-.8 2.5-.5.6-1.2.8-2 .8s-1.5-.3-2-.8c-.5-.6-.8-1.4-.8-2.5v-20.9c0-1.2.3-2.1.8-2.6.6-.5 1.4-.8 2.6-.8h7c2.1 0 3.7.2 4.8.5 1.1.3 2.1.8 2.9 1.5.8.7 1.4 1.6 1.8 2.6.4 1 .6 2.2.6 3.5 0 2.8-.8 4.8-2.5 6.3-1.5 1.5-4.1 2.2-7.4 2.2zm-1.3-12.4H226v8.3h3.7c1.3 0 2.4-.1 3.2-.4.9-.3 1.5-.7 2-1.3.5-.6.7-1.4.7-2.4 0-1.2-.4-2.2-1.1-2.9-.8-.9-2.4-1.3-4.8-1.3zm20.7 16.1v4.2c0 1-.2 1.8-.7 2.3-.5.5-1.1.8-1.8.8s-1.3-.3-1.8-.8-.7-1.3-.7-2.3v-14c0-2.3.8-3.4 2.5-3.4.8 0 1.4.3 1.8.8.4.5.6 1.3.6 2.3.6-1 1.2-1.8 1.9-2.3.6-.5 1.5-.8 2.5-.8s2.1.3 3.1.8 1.5 1.2 1.5 2.1c0 .6-.2 1.1-.6 1.5-.4.4-.9.6-1.4.6-.2 0-.6-.1-1.3-.3-.7-.2-1.3-.3-1.9-.3-.7 0-1.3.2-1.8.6-.5.4-.8 1-1.1 1.7-.3.8-.4 1.7-.5 2.7-.3 1-.3 2.3-.3 3.8zm24.7-1.7h-9.9c0 1.1.2 2.2.7 3 .4.9 1 1.5 1.8 2 .7.4 1.6.7 2.5.7.6 0 1.2-.1 1.7-.2s1-.4 1.4-.7c.5-.3.9-.6 1.3-1 .4-.3.9-.8 1.5-1.4.3-.2.6-.3 1.1-.3.5 0 .9.1 1.3.4.3.3.5.7.5 1.2s-.2 1-.5 1.6c-.4.6-.9 1.2-1.6 1.8-.7.6-1.6 1-2.7 1.4-1.1.4-2.3.6-3.8.6-3.2 0-5.8-.9-7.6-2.8-1.8-1.8-2.7-4.4-2.7-7.5 0-1.5.2-2.9.7-4.1.4-1.3 1.1-2.4 1.9-3.3.8-.9 1.9-1.6 3.1-2.1 1.2-.5 2.6-.7 4.1-.7 2 0 3.7.4 5.1 1.2 1.4.8 2.5 1.9 3.2 3.2.7 1.3 1.1 2.7 1.1 4 0 1.3-.4 2.1-1.1 2.5s-1.8.5-3.1.5zm-9.9-2.9h9.1c-.1-1.7-.6-3-1.4-3.9-.8-.9-1.9-1.3-3.2-1.3-1.3 0-2.3.4-3.1 1.3-.7 1-1.2 2.2-1.4 3.9zm22.4-5.8v.6c.9-1.2 1.9-2 3-2.6 1-.5 2.2-.8 3.5-.8 1.6 0 3 .4 4.3 1.2s2.3 2 3.1 3.5c.8 1.5 1.1 3.4 1.1 5.5 0 1.6-.2 3-.7 4.3-.4 1.3-1 2.4-1.8 3.3-.8.9-1.7 1.6-2.7 2-1 .5-2.2.7-3.4.7-1.4 0-2.7-.3-3.6-.9-1-.6-1.9-1.4-2.8-2.5v7.6c0 2.2-.8 3.3-2.4 3.3-.9 0-1.6-.3-1.9-.9-.3-.6-.5-1.4-.5-2.5v-21.8c0-1 .2-1.7.6-2.2.4-.5 1-.7 1.7-.7s1.3.2 1.7.7c.6.6.8 1.3.8 2.2zm9.9 7.4c0-1.3-.2-2.5-.6-3.4-.4-1-1-1.7-1.7-2.2-.7-.5-1.5-.8-2.4-.8-1.4 0-2.6.5-3.5 1.6-1 1.1-1.4 2.7-1.4 4.8 0 2 .5 3.6 1.4 4.7.9 1.1 2.1 1.7 3.5 1.7.8 0 1.6-.2 2.3-.7.7-.5 1.3-1.2 1.7-2.2.5-1 .7-2.1.7-3.5z"/><defs><path id="SVGID_7_" d="M143.2 55.9s-18.7 17.8-18.7 50.4c0 41.3 33.5 74.7 74.7 74.7s74.7-33.5 74.7-74.7c0-32.4-19.3-50.5-19.3-50.5L204.5 7.6c-1.3-1.9-3.4-3-5.7-3-2.3 0-4.4 1.1-5.7 3l-49.9 48.3"/></defs><clipPath id="SVGID_1_"><use overflow="visible" xlink:href="#SVGID_7_"/></clipPath><path fill="#fff" d="M143.2 55.9s-18.7 17.8-18.7 50.4c0 41.3 33.5 74.7 74.7 74.7s74.7-33.5 74.7-74.7c0-32.4-19.3-50.5-19.3-50.5L204.5 7.6c-1.3-1.9-3.4-3-5.7-3-2.3 0-4.4 1.1-5.7 3l-49.9 48.3" clip-path="url(#SVGID_1_)"/><linearGradient id="SVGID_2_" x1="199.242" x2="199.242" y1="194.872" y2="64.738" gradientUnits="userSpaceOnUse"><stop offset="0" stop-color="#3c67b0"/><stop offset="1" stop-color="#49c2ca"/></linearGradient><path fill="url(#SVGID_2_)" d="M143.2 55.9s-18.7 17.8-18.7 50.4c0 41.3 33.5 74.7 74.7 74.7s74.7-33.5 74.7-74.7c0-32.4-19.3-50.5-19.3-50.5L204.5 7.6c-1.3-1.9-3.4-3-5.7-3-2.3 0-4.4 1.1-5.7 3l-49.9 48.3" clip-path="url(#SVGID_1_)"/><linearGradient id="SVGID_3_" x1="216.568" x2="216.568" y1="204.961" y2="83.477" gradientUnits="userSpaceOnUse"><stop offset="0" stop-color="#3c67b0"/><stop offset=".998" stop-color="#49c2ca"/></linearGradient><path fill="url(#SVGID_3_)" d="M160.6 73.3s-18.7 17.8-18.7 50.4c0 41.3 33.5 74.7 74.7 74.7s74.7-33.5 74.7-74.7c0-32.4-19.3-50.5-19.3-50.5l-50.2-48.3c-1.3-1.9-3.4-3-5.7-3-2.3 0-4.4 1.1-5.7 3l-49.8 48.4" clip-path="url(#SVGID_1_)"/><linearGradient id="SVGID_4_" x1="246.436" x2="246.436" y1="223.317" y2="110.612" gradientUnits="userSpaceOnUse"><stop offset="0" stop-color="#3c67b0"/><stop offset=".999" stop-color="#03bbc4"/></linearGradient><path fill="url(#SVGID_4_)" d="M190.4 101.4s-18.7 17.8-18.7 50.4c0 41.3 33.5 74.7 74.7 74.7s74.7-33.5 74.7-74.7c0-32.4-19.3-50.5-19.3-50.5L251.7 53c-1.3-1.9-3.4-3-5.7-3-2.3 0-4.4 1.1-5.7 3l-49.9 48.4" clip-path="url(#SVGID_1_)"/><linearGradient id="SVGID_5_" x1="182.829" x2="182.829" y1="-11.806" y2="164.719" gradientUnits="userSpaceOnUse"><stop offset="0" stop-color="#e6f4f8"/><stop offset="1" stop-color="#77cee0"/></linearGradient><path fill="url(#SVGID_5_)" d="M126.8 39.5s-18.7 17.8-18.7 50.4c0 41.3 33.5 74.7 74.7 74.7s74.7-33.5 74.7-74.7c0-32.4-19.3-50.5-19.3-50.5L188.1-8.9c-1.3-1.9-3.4-3-5.7-3-2.3 0-4.4 1.1-5.7 3l-49.9 48.4" clip-path="url(#SVGID_1_)" opacity=".3"/><path fill="none" stroke="#ddf1fc" stroke-miterlimit="10" stroke-width="5.441" d="M143.3 55.9s-18.7 17.8-18.7 50.4c0 41.3 33.5 74.7 74.7 74.7s74.7-33.5 74.7-74.7c0-32.4-19.3-50.5-19.3-50.5L204.6 7.6c-1.3-1.9-3.4-3-5.7-3h0c-2.3 0-4.4 1.1-5.7 3l-49.9 48.3"/><g id="IpNRW6_3_"><path fill="#fff" d="M221.2 87.3c-.1 6.7-2.3 12.2-6.8 16.6-3.8 3.9-7.7 7.7-11.5 11.5-2.7 2.7-6.6 2.8-9.1.4-2.6-2.5-2.4-6.4.4-9.2 3.9-4 7.9-7.8 11.8-11.8 3-3.1 3.6-7.7 1.9-11.5-1.8-4-5.8-6.5-10.3-6.2-4.5.3-7.6 2.6-9.2 6.8-1.6 4.2-.6 7.9 2.3 11.2 3.4 3.8 1.8 9.2-2.9 10.4-2.4.6-4.4 0-6.1-1.8-6.2-6.6-8.1-14.3-5.5-22.8 2.6-8.5 8.5-13.9 17.2-15.8 13.1-2.8 25.2 5.5 27.6 18.7.2 1.3.2 2.6.2 3.5zm-23 50.2c-3.7 0-6.7-3-6.6-6.6 0-3.6 3.1-6.6 6.7-6.6s6.7 2.9 6.7 6.5c0 3.8-3 6.7-6.8 6.7z"/></g></svg>