<svg xmlns="http://www.w3.org/2000/svg" role="img" viewBox="-12.06 -12.06 679.12 320.62"><title>Lucerne University of Applied Sciences and Arts logo</title><path fill="#6b95aa" d="M189.219 230.531v11.813h7.937v53.531h44.032v-11.812H209.53v-15h23.719V257.28H209.53v-14.937h31.657V230.53h-51.97zM1 230.656v65.313h44.031v-11.813H13.375v-53.5H1zm56.344 0v50.125c0 1.963.698 3.673 2.125 5.094l7.937 7.938c1.421 1.42 3.157 2.156 5.125 2.156H91.97c1.963 0 3.704-.736 5.125-2.156l7.937-7.938c1.421-1.42 2.125-3.131 2.125-5.094v-50.125H94.781v48.188c0 .4-.166.791-.468 1.094l-3.782 3.75c-.342.336-.643.468-1.093.468H75.03c-.45 0-.745-.132-1.093-.468l-3.75-3.75c-.303-.303-.5-.695-.5-1.094v-48.188H57.344zm67.969 0v11.782h35.843v5.937c0 .588-.398 1.09-.906 1.375-.006.006-32.344 18.531-32.344 18.531-2.539 1.455-4.13 3.676-4.187 6.563v21.125h49.812v-11.813h-37.437v-5.906c0-.593.398-1.115.906-1.406.006 0 32.344-18.438 32.344-18.438 2.556-1.455 4.124-3.644 4.187-6.531v-21.219h-48.218zm130.125 0v11.782h7.968v53.53h12.375V270.5h6.688c.565 0 1.004.262 1.312.719.012.028 19.219 24.75 19.219 24.75h13.906v-11.781h-7.968c-4.291-5.478-10.294-13.192-10.688-13.688h1.531c1.9 0 3.549-.673 4.907-2.031l6.406-6.406c1.443-1.438 2.156-3.103 2.156-5.094v-12.781c0-1.998-.713-3.656-2.156-5.094l-6.406-6.406c-1.358-1.358-3.007-2.032-4.907-2.032h-44.343zm78 0v65.313h12.093v-48.563c1.364 3.196 20.657 48.563 20.657 48.563h17.093v-65.313h-12.093v48.563l-20.657-48.563h-17.093zm-57.657 11.782h21.407c.45 0 .714.126 1.062.468l2.125 2.125c.342.343.5.643.5 1.094v8.906c0 .457-.158.757-.5 1.094l-2.125 2.125c-.348.337-.612.469-1.062.469H275.78v-16.281z"/><path fill="#415e6d" d="M1 132.656V198h12.375v-26.812h25.094V198h12.375v-65.344H38.469v26.719H13.375v-26.719H1zm84.406 0c-1.968 0-3.704.73-5.125 2.157l-7.937 7.937c-1.427 1.42-2.125 3.125-2.125 5.094v34.937c0 1.969.698 3.705 2.125 5.125l7.937 7.938c1.421 1.426 3.157 2.156 5.125 2.156h25.25c1.969 0 3.705-.73 5.125-2.156l7.938-7.938c1.42-1.42 2.125-3.156 2.125-5.125v-34.937c0-1.969-.705-3.673-2.125-5.094l-7.938-7.937c-1.42-1.427-3.162-2.157-5.125-2.157h-25.25zm72.188 0c-1.963 0-3.705.73-5.125 2.157l-7.938 7.937c-1.42 1.42-2.125 3.125-2.125 5.094v34.969c0 1.968.705 3.673 2.125 5.093l7.938 7.938c1.42 1.42 3.162 2.156 5.125 2.156h21c1.968 0 3.704-.736 5.125-2.156l8.687-8.688-8.406-8.281-6.844 6.844c-.342.342-.643.469-1.093.469h-15.97c-.444 0-.72-.127-1.062-.47l-3.781-3.78c-.302-.303-.469-.67-.469-1.063v-31.094c0-.393.167-.76.469-1.062l3.781-3.781c.343-.343.618-.47 1.063-.47h15.969c.45 0 .75.127 1.093.47L184 151.78l8.406-8.281-8.687-8.687c-1.421-1.427-3.157-2.157-5.125-2.157h-21zm49.937 0V198h12.375v-26.812H245V198h12.375v-65.344H245v26.719h-25.094v-26.719h-12.375zm82.969 0c-1.968 0-3.673.736-5.094 2.157l-7.937 7.937c-1.421 1.426-2.156 3.131-2.156 5.094v12.687c.097 3.943 3.1 7.43 7.03 7.938l33.157 4.625c.816.08 1.5.815 1.5 1.562v6.219c0 .4-.166.754-.469 1.063l-3.781 3.78c-.342.343-.643.47-1.094.47h-21.968c-.451 0-.726-.127-1.063-.47l-6.781-6.75-8.281 8.376 8.5 8.5c1.42 1.426 3.156 2.125 5.125 2.125h27c1.962 0 3.673-.699 5.093-2.125l7.938-7.938c1.426-1.426 2.099-3.156 2.156-5.125v-12.656c0-3.937-3.069-7.435-7-7.937l-33.25-4.657c-.787-.08-1.437-.78-1.437-1.562v-6.188c0-.393.166-.791.468-1.093l3.782-3.75c.342-.349.642-.47 1.093-.47h18.625c.445 0 .752.121 1.094.47l6.75 6.75 8.281-8.375-8.5-8.5c-1.42-1.421-3.125-2.157-5.093-2.157H290.5zm69.188 0c-1.969 0-3.674.73-5.094 2.157l-7.938 7.937c-1.426 1.42-2.156 3.125-2.156 5.094v34.969c0 1.968.73 3.673 2.156 5.093l7.938 7.938c1.42 1.42 3.125 2.156 5.094 2.156h21c1.962 0 3.704-.736 5.125-2.156l8.687-8.688-8.375-8.281-6.844 6.844c-.342.342-.637.469-1.093.469h-15.97c-.444 0-.745-.127-1.093-.47l-3.781-3.78c-.308-.303-.469-.67-.469-1.063v-31.094c0-.393.16-.76.469-1.062l3.781-3.781c.348-.343.649-.47 1.094-.47h15.969c.45 0 .75.127 1.093.47l6.844 6.843 8.375-8.281-8.687-8.687c-1.421-1.427-3.163-2.157-5.125-2.157h-21zm49.937 0V198H422v-26.812h25.094V198h12.375v-65.344h-12.375v26.719H422v-26.719h-12.375zm70.625 0v50.125c0 1.969.73 3.705 2.156 5.125l7.938 7.938c1.415 1.42 3.13 2.156 5.094 2.156h19.468c1.969 0 3.679-.736 5.094-2.156 0 0 7.938-7.932 7.938-7.938 1.42-1.42 2.156-3.156 2.156-5.125v-50.125h-12.375v48.219c0 .394-.167.76-.469 1.063l-3.781 3.78c-.348.343-.643.47-1.094.47h-14.406c-.451 0-.752-.127-1.094-.47l-3.781-3.78c-.297-.303-.469-.67-.469-1.063v-48.219H480.25zm70.625 0V198h44.031v-11.812H563.25v-53.532h-12.375zm51.219 0v11.813h7.937V198h44.032v-11.812h-31.657v-15h23.719v-11.813h-23.719v-14.906h31.657v-11.813h-51.97zM87.906 144.47h20.25c.445 0 .752.132 1.094.469l3.75 3.78c.302.303.469.67.469 1.063v31.094c0 .394-.167.76-.469 1.063l-3.75 3.78c-.342.343-.649.47-1.094.47h-20.25c-.45 0-.72-.127-1.062-.47l-3.781-3.78c-.303-.303-.47-.67-.47-1.063v-31.094c0-.393.167-.76.47-1.062l3.78-3.781c.343-.337.612-.47 1.063-.47zM17.861 28.04v-1.575c0-.462-.194-.616-.73-.616H7.488V3.037c0-.576-.228-.805-.765-.805H4.647c-.497 0-.73.309-.73.805v24.809c0 .616.267.844.77.844H17.21c.456 0 .65-.148.65-.65m19.816-.194V10.91c0-.536-.228-.77-.73-.77h-1.803c-.502 0-.73.234-.73.77v13.095c-1.233 1.152-3.384 2.27-5.073 2.27-3.07 0-3.686-1.922-3.686-4.65V10.911c0-.536-.268-.77-.764-.77h-1.73c-.501 0-.77.234-.77.77v11.218c0 4.102 1.615 6.95 6.032 6.95 2.225 0 4.302-.811 6.07-2.306l.035 1.187c0 .468.268.73.73.73h1.65c.541 0 .77-.262.77-.844m19.97-.383c0-.114-.04-.268-.074-.422l-.348-1.072c-.075-.274-.189-.388-.383-.388-.08 0-.194.04-.308.08-1.232.536-2.653.918-4.302.918-4.108 0-5.797-3.378-5.797-7.298 0-4.296 2.305-7.023 5.951-7.023 1.495 0 2.802.422 3.994.958a.75.75 0 0 0 .348.114c.228 0 .342-.194.422-.462l.308-1.227c.035-.114.075-.194.075-.308 0-.234-.114-.382-.383-.496-1.346-.696-3.27-1.119-4.918-1.119-5.757 0-9.18 4.074-9.18 9.717 0 5.723 2.92 9.643 8.952 9.643 1.763 0 3.532-.348 5.18-1.118.349-.148.463-.268.463-.497m19.856-8.638v-.656c0-2.5-.656-4.759-2.191-6.34-1.267-1.3-3.03-2.11-5.22-2.11-5.53 0-8.948 4.188-8.948 9.676 0 5.803 3.15 9.683 9.061 9.683 1.769 0 4.228-.348 5.877-1.118.308-.148.462-.268.462-.497 0-.04 0-.114-.04-.194l-.422-1.42c-.074-.268-.268-.343-.462-.343-.114 0-.228.04-.382.075-1.267.502-3.036.81-4.61.81-3.88 0-5.952-2.847-6.066-6.493H76.35c.999 0 1.153-.194 1.153-1.073m-3.224-1.153h-9.643c.308-2.847 2.111-5.414 5.301-5.414 2.921 0 4.342 2.259 4.342 4.872v.542zm17.471-7.183v-.194c0-.228-.074-.422-.308-.462a6.678 6.678 0 0 0-1.112-.115c-2.037 0-3.492 1.153-4.417 2.42l-.04-1.301c0-.502-.268-.696-.764-.696h-1.655c-.456 0-.73.194-.73.77v16.975c0 .542.234.804.73.804h1.809c.496 0 .73-.308.73-.804V14.79c.993-1.42 2.494-2.305 3.84-2.305.382 0 .765.04 1.113.114h.114c.234 0 .382-.114.422-.382l.268-1.73zm20.01 17.397V16.594c0-4.182-1.688-6.876-6.105-6.876a9.89 9.89 0 0 0-6.299 2.306l-.04-1.187c0-.502-.268-.696-.73-.696h-1.69c-.535 0-.73.234-.73.77v17.015c0 .502.269.764.73.764H98.7c.502 0 .73-.262.73-.804v-13.21c1.347-1.232 3.538-2.23 5.301-2.23 3.075 0 3.766 1.957 3.766 4.684v10.756c0 .542.228.804.73.804h1.803c.542 0 .73-.262.73-.804m21.814-9.061v-.656c0-2.5-.65-4.759-2.191-6.34-1.267-1.3-3.03-2.11-5.221-2.11-5.529 0-8.947 4.188-8.947 9.676 0 5.803 3.15 9.683 9.061 9.683 1.769 0 4.228-.348 5.877-1.118.308-.148.462-.268.462-.497 0-.04 0-.114-.04-.194l-.422-1.42c-.074-.268-.268-.343-.462-.343-.114 0-.228.04-.382.075-1.267.502-3.036.81-4.61.81-3.875 0-5.952-2.847-6.066-6.493h11.788c.999 0 1.153-.194 1.153-1.073m-3.224-1.153h-9.643c.308-2.847 2.117-5.414 5.3-5.414 2.922 0 4.343 2.259 4.343 4.872v.542zm40.129-.542V2.997c0-.496-.188-.765-.725-.765h-2.077c-.496 0-.764.269-.764.765V16.52c0 4.952-.77 9.563-6.916 9.563-6.373 0-7.03-4.377-7.03-9.529V2.997c0-.496-.187-.765-.73-.765h-2.11c-.497 0-.731.269-.731.765v13.905c0 7.492 2.23 12.176 10.561 12.176 7.606 0 10.522-4.918 10.522-11.948m22.355 10.756V16.594c0-4.182-1.689-6.876-6.105-6.876-2.225 0-4.536.81-6.3 2.306l-.04-1.187c0-.502-.267-.696-.73-.696h-1.688c-.537 0-.73.234-.73.77v17.015c0 .502.267.764.73.764h1.803c.502 0 .73-.262.73-.804v-13.21c1.347-1.232 3.532-2.23 5.3-2.23 3.076 0 3.767 1.957 3.767 4.684v10.756c0 .542.228.804.73.804h1.803c.536 0 .73-.262.73-.804M203.283 5.61c0-1.112-.959-1.843-1.997-1.843-1.039 0-1.963.73-1.963 1.843s.924 1.843 1.963 1.843c.998 0 1.997-.73 1.997-1.843m-.349 22.276V10.91c0-.536-.228-.77-.73-.77h-1.763c-.502 0-.77.234-.77.77v16.975c0 .542.268.804.77.804h1.763c.502 0 .73-.262.73-.804m21.163-17.357c0-.274-.194-.388-.616-.388h-1.763c-.536 0-.81.154-.964.616l-3.452 10.447a95.539 95.539 0 0 0-1.153 3.686h-.04c-.268-.884-.73-2.265-1.232-3.8l-3.452-10.413c-.114-.382-.348-.536-.925-.536h-2.11c-.383 0-.577.154-.577.422 0 .08 0 .194.04.274l6.293 17.243c.16.422.423.61.925.61h1.689c.422 0 .69-.148.884-.61l6.38-17.243c.04-.12.073-.234.073-.308m19.856 8.296v-.656c0-2.5-.65-4.759-2.19-6.34-1.267-1.3-3.03-2.11-5.221-2.11-5.535 0-8.953 4.188-8.953 9.676 0 5.803 3.15 9.683 9.067 9.683 1.769 0 4.222-.348 5.877-1.118.308-.148.462-.268.462-.497 0-.04 0-.114-.04-.194l-.422-1.42c-.074-.268-.268-.343-.462-.343-.115 0-.229.04-.383.075-1.266.502-3.035.81-4.61.81-3.88 0-5.951-2.847-6.071-6.493h11.794c.998 0 1.152-.194 1.152-1.073m-3.223-1.153h-9.643c.308-2.847 2.111-5.414 5.3-5.414 2.916 0 4.343 2.259 4.343 4.872v.542zm17.47-7.183v-.194c0-.228-.073-.422-.307-.462a6.678 6.678 0 0 0-1.113-.115c-2.037 0-3.498 1.153-4.416 2.42l-.04-1.301c0-.502-.268-.696-.765-.696h-1.654c-.463 0-.73.194-.73.77v16.975c0 .542.233.804.73.804h1.803c.502 0 .73-.308.73-.804V14.79c1.004-1.42 2.5-2.305 3.84-2.305.388 0 .77.04 1.118.114h.114c.229 0 .383-.114.423-.382l.268-1.73zm15.749 12.866c0-2.459-1.729-3.994-3.84-4.878l-2.996-1.267c-1.614-.69-2.385-1.306-2.385-2.613s1.119-2.38 3.15-2.38c1.227 0 3.035.463 4.034.92.114.04.228.08.308.08.188 0 .348-.115.422-.389l.422-1.34c.04-.115.075-.229.075-.309 0-.154-.114-.268-.343-.382-1.729-.81-3.343-1.079-4.992-1.079-3.384 0-6.454 1.73-6.454 5.107 0 2.425 1.69 3.96 3.955 4.844l2.573.999c1.769.69 2.881 1.495 2.881 2.995 0 1.803-1.495 2.876-3.726 2.876-1.306 0-3.15-.536-4.57-1.152-.074-.035-.154-.035-.228-.035-.194 0-.348.154-.422.383l-.502 1.38c-.035.08-.035.154-.035.234 0 .194.114.383.383.497 1.266.582 3.298 1.232 5.26 1.232 4.069 0 7.03-2.19 7.03-5.723m9.02-17.745c0-1.112-.958-1.843-1.996-1.843-1.033 0-1.957.73-1.957 1.843s.924 1.843 1.957 1.843c1.004 0 1.997-.73 1.997-1.843m-.343 22.276V10.91c0-.536-.228-.77-.73-.77h-1.763c-.502 0-.77.234-.77.77v16.975c0 .542.268.804.77.804h1.763c.502 0 .73-.262.73-.804m17.17-.114c0-.04-.04-.08-.04-.154l-.309-1.227c-.074-.274-.268-.388-.462-.388a.46.46 0 0 0-.228.04c-.617.188-1.535.462-2.42.462-.998 0-1.689-.308-2.11-.77-.577-.657-.657-1.65-.657-2.916V12.446h4.496c.383 0 .577-.114.577-.497v-1.306c0-.422-.194-.502-.543-.502h-4.53V5.416c0-.422-.188-.69-.576-.69h-.154l-1.883.268c-.497.08-.65.234-.65.77v4.377h-2.192c-.342 0-.496.154-.496.536v1.193c0 .502.074.576.576.576h2.111V22.51c0 2.38.08 3.914 1.193 5.146.879.96 2.533 1.421 4.182 1.421 1.313 0 2.693-.308 3.572-.696.308-.114.542-.302.542-.61m20.085-17.243c0-.234-.155-.388-.497-.388h-2.117c-.462 0-.65.154-.804.576l-4.839 14.287-4.992-14.361c-.114-.348-.348-.502-.73-.502h-2.534c-.308 0-.428.154-.428.388 0 .074 0 .188.046.268l6.87 18.201-1 2.46c-.804 1.997-2.07 2.841-4.181 2.841-.388 0-.925-.074-1.347-.114h-.154c-.348 0-.536.154-.576.536l-.194 1.461v.194c0 .268.08.496.422.576a8.895 8.895 0 0 0 1.729.154c4.148 0 6.07-1.614 7.76-6.15l7.491-20.085c.035-.114.075-.228.075-.342m30.8 8.866c0-5.563-2.688-9.677-8.645-9.677-5.717 0-8.827 4.228-8.827 9.643 0 5.49 2.648 9.717 8.599 9.717 5.729 0 8.872-4.262 8.872-9.683m-3.383.04c0 3.572-1.415 7.104-5.45 7.104-4.067 0-5.26-3.72-5.26-7.258 0-3.377 1.267-7.023 5.415-7.023 3.994 0 5.295 3.606 5.295 7.177m19.976-17.203c0-.233-.074-.422-.462-.576-.959-.388-2.345-.656-3.492-.656-3.572 0-5.609 1.997-6.065 5.34-.08.691-.16 1.69-.16 3.076v.725h-2.231c-.377 0-.53.154-.53.536v1.193c0 .502.073.576.496.576h2.265v15.44c0 .542.234.804.73.804h1.809c.536 0 .73-.308.73-.844v-15.4h4.759c.388 0 .542-.154.542-.537v-1.306c0-.382-.194-.462-.582-.462h-4.719V8.338c0-2.996.73-4.725 3.338-4.725.879 0 1.923.268 2.54.502.113.035.227.075.341.075.189 0 .303-.115.383-.383l.268-1.192c.04-.154.04-.268.04-.383M24.005 77.26c0-.114-.04-.229-.075-.383l-9.488-25.19c-.114-.309-.348-.469-.69-.469h-2.038c-.342 0-.576.234-.69.542L1.38 76.917c-.034.154-.074.269-.074.383 0 .228.114.382.422.382h2.265c.542 0 .69-.154.885-.65l2.653-7.184h9.945l2.534 7.144c.194.576.382.69 1.038.69h2.38c.422 0 .576-.154.576-.422M16.553 67.2H8.45l3.15-8.718c.501-1.42.764-2.191.958-2.807h.04c.154.536.422 1.386.884 2.727l3.07 8.798zm28.232 1.033c0-4.952-2.425-9.523-7.874-9.523-2.19 0-4.496.999-5.723 2.46v-1.347c0-.537-.308-.69-.884-.69h-1.46c-.497 0-.731.153-.731.69v25.31c0 .537.234.805.73.805h1.69c.501 0 .844-.154.844-.73v-9.29c1.152 1.422 3.19 2.152 5.072 2.152 5.569 0 8.336-4.724 8.336-9.837m-3.418.08c0 3.418-1.386 7.184-5.34 7.184-1.883 0-3.84-1.193-4.65-2.688v-9.026c.964-1.387 3.075-2.46 4.878-2.46 3.994 0 5.112 3.646 5.112 6.99m25.346-.08c0-4.952-2.42-9.523-7.874-9.523-2.191 0-4.497.999-5.723 2.46v-1.347c0-.537-.308-.69-.885-.69h-1.455c-.502 0-.73.153-.73.69v25.31c0 .537.228.805.73.805h1.69c.496 0 .844-.154.844-.73v-9.29c1.152 1.422 3.183 2.152 5.066 2.152 5.57 0 8.337-4.724 8.337-9.837m-3.418.08c0 3.418-1.387 7.184-5.34 7.184-1.878 0-3.84-1.193-4.645-2.688v-9.026c.958-1.387 3.07-2.46 4.872-2.46 4 0 5.113 3.646 5.113 6.99m11.982 8.564V51.03c0-.502-.234-.656-.576-.656h-.194l-1.917.274c-.463.074-.577.228-.577.764v25.505c0 .537.228.765.69.765h1.884c.456 0 .69-.268.69-.805m10.327-22.275c0-1.118-.958-1.843-1.997-1.843-1.038 0-1.957.725-1.957 1.843 0 1.113.919 1.843 1.957 1.843.999 0 1.997-.73 1.997-1.843m-.342 22.275V59.903c0-.537-.228-.77-.73-.77h-1.769c-.496 0-.765.233-.765.77v16.974c0 .537.269.805.765.805h1.769c.502 0 .73-.268.73-.805m22.047-9.066v-.65c0-2.5-.656-4.765-2.19-6.34-1.267-1.306-3.036-2.11-5.227-2.11-5.53 0-8.947 4.187-8.947 9.676 0 5.803 3.15 9.683 9.067 9.683 1.763 0 4.222-.348 5.87-1.118.309-.154.463-.269.463-.497 0-.04 0-.114-.04-.194l-.422-1.42c-.074-.269-.268-.349-.457-.349-.114 0-.234.04-.388.08-1.266.502-3.03.805-4.604.805-3.88 0-5.957-2.842-6.071-6.488h11.794c.998 0 1.152-.194 1.152-1.078m-3.23-1.153h-9.636c.302-2.841 2.11-5.414 5.3-5.414 2.916 0 4.337 2.265 4.337 4.878v.536zm23.891 10.22V51.03c0-.462-.194-.656-.576-.656h-.194l-1.883.274c-.497.074-.616.302-.616.804v9.37c-1.113-1.342-3.224-2.152-4.987-2.152-5.073 0-8.376 4.188-8.376 9.831 0 5.033 2.379 9.569 7.914 9.569 2.185 0 4.416-1.039 5.643-2.5l.04 1.382c0 .502.228.73.804.73h1.655c.342 0 .576-.308.576-.805m-3.27-3.954c-.958 1.381-3.03 2.534-4.838 2.534-3.338 0-5.14-3.036-5.14-7.104 0-4.228 1.99-7.07 5.448-7.07 1.883 0 3.726 1.227 4.53 2.688v8.952zm35.103-2.425c0-3.571-2.226-5.489-5.221-7.103l-4.108-2.186c-1.615-.844-2.996-1.962-2.996-3.96 0-2.573 2.494-3.571 4.645-3.571 1.54 0 3.343.462 4.878 1.118.154.074.308.114.462.114.228 0 .422-.114.537-.422l.576-1.575c.04-.12.074-.234.074-.348 0-.308-.228-.496-.61-.65-1.997-.845-3.84-1.153-6.106-1.153-4.034 0-8.142 2.38-8.142 6.796 0 2.767 1.69 4.838 4.222 6.225l4.879 2.607c1.883.999 3.378 2.231 3.378 4.377 0 3.035-2.762 4.267-5.375 4.267-1.803 0-3.726-.502-5.455-1.112-.188-.08-.348-.08-.462-.08-.268 0-.422.114-.536.462l-.502 1.729c-.035.114-.035.228-.035.342 0 .308.154.502.537.617 2.11.69 4.376 1.078 6.453 1.078 4.724 0 8.907-2.54 8.907-7.572m18.863 5.957c0-.114-.04-.268-.08-.422l-.348-1.078c-.074-.269-.188-.383-.382-.383-.08 0-.189.035-.308.074a10.502 10.502 0 0 1-4.302.925c-4.109 0-5.798-3.378-5.798-7.298 0-4.302 2.306-7.03 5.957-7.03 1.495 0 2.802.423 3.989.965a.79.79 0 0 0 .348.114c.228 0 .342-.194.422-.462l.308-1.233c.034-.114.074-.188.074-.302 0-.234-.114-.388-.382-.502-1.347-.69-3.264-1.113-4.918-1.113-5.758 0-9.175 4.074-9.175 9.717 0 5.723 2.915 9.643 8.946 9.643 1.763 0 3.532-.348 5.187-1.118.342-.154.462-.269.462-.497m8.907-21.853c0-1.118-.959-1.843-1.997-1.843-1.039 0-1.957.725-1.957 1.843 0 1.113.918 1.843 1.957 1.843.998 0 1.997-.73 1.997-1.843m-.348 22.275V59.903c0-.537-.229-.77-.73-.77h-1.764c-.502 0-.77.233-.77.77v16.974c0 .537.268.805.77.805h1.763c.502 0 .73-.268.73-.805m22.048-9.066v-.65c0-2.5-.65-4.765-2.191-6.34-1.267-1.306-3.03-2.11-5.22-2.11-5.53 0-8.948 4.187-8.948 9.676 0 5.803 3.15 9.683 9.061 9.683 1.769 0 4.228-.348 5.877-1.118.308-.154.462-.269.462-.497 0-.04 0-.114-.04-.194l-.422-1.42c-.074-.269-.268-.349-.462-.349-.114 0-.228.04-.382.08-1.267.502-3.036.805-4.61.805-3.88 0-5.952-2.842-6.066-6.488h11.788c.999 0 1.153-.194 1.153-1.078m-3.23-1.153h-9.637c.308-2.841 2.111-5.414 5.301-5.414 2.921 0 4.336 2.265 4.336 4.878v.536zm23.89 10.22V65.585c0-4.188-1.688-6.876-6.105-6.876-2.225 0-4.53.805-6.299 2.305l-.034-1.192c0-.497-.274-.69-.73-.69h-1.695c-.536 0-.73.233-.73.77v17.014c0 .497.274.765.73.765h1.809c.496 0 .73-.268.73-.805V63.663c1.341-1.227 3.532-2.225 5.295-2.225 3.075 0 3.766 1.957 3.766 4.684v10.755c0 .537.234.805.73.805h1.809c.536 0 .725-.268.725-.805m19.822-.422c0-.114-.04-.268-.08-.422l-.348-1.078c-.075-.269-.189-.383-.383-.383-.074 0-.188.035-.302.074a10.55 10.55 0 0 1-4.308.925c-4.108 0-5.797-3.378-5.797-7.298 0-4.302 2.305-7.03 5.957-7.03 1.495 0 2.801.423 3.988.965.12.074.274.114.348.114.228 0 .343-.194.422-.462l.309-1.233c.04-.114.074-.188.074-.302 0-.234-.114-.388-.383-.502-1.34-.69-3.263-1.113-4.918-1.113-5.757 0-9.175 4.074-9.175 9.717 0 5.723 2.916 9.643 8.947 9.643 1.769 0 3.532-.348 5.186-1.118.343-.154.463-.269.463-.497m19.702-8.644v-.65c0-2.5-.656-4.765-2.191-6.34-1.267-1.306-3.036-2.11-5.227-2.11-5.529 0-8.947 4.187-8.947 9.676 0 5.803 3.15 9.683 9.067 9.683 1.763 0 4.222-.348 5.871-1.118.308-.154.462-.269.462-.497 0-.04 0-.114-.04-.194l-.422-1.42c-.074-.269-.268-.349-.456-.349-.114 0-.234.04-.388.08-1.267.502-3.03.805-4.605.805-3.88 0-5.957-2.842-6.07-6.488h11.793c.999 0 1.153-.194 1.153-1.078m-3.23-1.153h-9.637c.308-2.841 2.111-5.414 5.3-5.414 2.916 0 4.337 2.265 4.337 4.878v.536zm19.628 5.683c0-2.453-1.729-3.988-3.846-4.872l-2.995-1.267c-1.61-.696-2.38-1.307-2.38-2.613 0-1.307 1.113-2.38 3.15-2.38 1.233 0 3.036.457 4.034.919.114.04.228.08.308.08.189 0 .343-.12.423-.388l.422-1.341c.034-.114.074-.234.074-.308 0-.154-.114-.268-.342-.382-1.73-.81-3.344-1.079-4.993-1.079-3.384 0-6.453 1.729-6.453 5.107 0 2.42 1.689 3.954 3.954 4.838l2.573.999c1.769.696 2.882 1.5 2.882 2.995 0 1.81-1.501 2.882-3.726 2.882-1.307 0-3.15-.536-4.57-1.153-.075-.034-.155-.034-.229-.034-.194 0-.348.148-.428.382l-.496 1.381c-.04.08-.04.154-.04.234 0 .188.114.382.388.496 1.267.577 3.304 1.233 5.26 1.233 4.069 0 7.03-2.191 7.03-5.729m32.027 4.845v-1.307c0-.422-.194-.502-.537-.502h-.268c-.308 0-.502-.074-.65-.343-.16-.233-.194-.844-.194-1.728V59.863c0-.497-.234-.73-.696-.73h-1.723c-.423 0-.73.193-.73.656l-.04 1.26c-1.153-1.534-3.225-2.339-5.147-2.339-4.377 0-8.182 3.612-8.182 10.025 0 4.839 2.345 9.335 7.645 9.335 2.345 0 4.879-1.54 5.757-3.23h.08c0 1.535.805 2.842 2.5 2.842h1.609c.382 0 .576-.114.576-.496m-4.913-5.723c-.69 1.917-2.653 3.874-5.112 3.874-2.762 0-4.719-2.608-4.719-6.836 0-4.57 2.225-7.178 5.18-7.178 1.844 0 3.727 1.039 4.651 2.762v7.378zm25.425 5.414V65.586c0-4.188-1.689-6.876-6.11-6.876a9.874 9.874 0 0 0-6.3 2.305l-.034-1.192c0-.497-.274-.69-.73-.69h-1.69c-.542 0-.73.233-.73.77v17.014c0 .497.268.765.73.765h1.804c.502 0 .73-.268.73-.805V63.663c1.34-1.227 3.532-2.225 5.3-2.225 3.07 0 3.76 1.957 3.76 4.684v10.755c0 .537.235.805.731.805h1.809c.536 0 .73-.268.73-.805m21.928 0V51.03c0-.462-.194-.656-.577-.656h-.194l-1.877.274c-.502.074-.616.302-.616.804v9.37c-1.119-1.342-3.23-2.152-4.993-2.152-5.072 0-8.376 4.188-8.376 9.831 0 5.033 2.385 9.569 7.908 9.569 2.191 0 4.422-1.039 5.65-2.5l.039 1.382c0 .502.228.73.805.73h1.654c.348 0 .577-.308.577-.805m-3.264-3.954c-.964 1.381-3.036 2.534-4.844 2.534-3.338 0-5.147-3.036-5.147-7.104 0-4.228 2.003-7.07 5.46-7.07 1.878 0 3.726 1.227 4.53 2.688v8.952zm40.169 4.337c0-.114-.035-.229-.075-.383l-9.488-25.19c-.114-.309-.343-.469-.69-.469h-2.032c-.354 0-.582.234-.696.542l-9.637 25.157c-.04.154-.08.269-.08.383 0 .228.114.382.422.382h2.271c.53 0 .685-.154.884-.65l2.642-7.184h9.951l2.54 7.144c.188.576.376.69 1.032.69h2.38c.427 0 .576-.154.576-.422m-7.452-10.06h-8.102l3.155-8.718c.49-1.42.765-2.191.958-2.807h.035c.154.536.422 1.386.884 2.727l3.07 8.798zm20.626-7.72v-.194c0-.228-.08-.422-.308-.462a6.678 6.678 0 0 0-1.112-.114c-2.037 0-3.498 1.153-4.417 2.42l-.04-1.307c0-.497-.268-.69-.764-.69h-1.655c-.462 0-.725.193-.725.77v16.974c0 .537.229.805.725.805h1.803c.502 0 .73-.308.73-.805V63.783c.999-1.421 2.5-2.306 3.84-2.306.388 0 .77.04 1.113.115h.12c.228 0 .382-.115.416-.383l.274-1.729zm14.556 17.283c0-.04-.04-.08-.04-.154l-.308-1.232c-.08-.268-.268-.382-.457-.382a.45.45 0 0 0-.228.04c-.616.188-1.54.462-2.425.462-.998 0-1.689-.308-2.111-.77-.576-.657-.65-1.655-.65-2.922V61.438h4.49c.382 0 .576-.115.576-.503v-1.3c0-.428-.194-.503-.536-.503h-4.53v-4.724c0-.422-.2-.69-.577-.69h-.154l-1.883.268c-.496.08-.656.228-.656.77v4.376h-2.191c-.342 0-.496.154-.496.537v1.192c0 .497.08.577.576.577h2.111v10.059c0 2.385.074 3.92 1.193 5.152.884.959 2.533 1.42 4.188 1.42 1.3 0 2.687-.307 3.571-.695.309-.114.537-.303.537-.61m15.668-4.423c0-2.453-1.729-3.988-3.84-4.872l-2.996-1.267c-1.609-.696-2.379-1.307-2.379-2.613 0-1.307 1.113-2.38 3.15-2.38 1.226 0 3.035.457 4.028.919.114.04.234.08.308.08.194 0 .348-.12.422-.388l.428-1.341c.04-.114.074-.234.074-.308 0-.154-.114-.268-.348-.382-1.728-.81-3.338-1.079-4.987-1.079-3.383 0-6.458 1.729-6.458 5.107 0 2.42 1.688 3.954 3.954 4.838l2.579.999c1.763.696 2.875 1.5 2.875 2.995 0 1.81-1.495 2.882-3.72 2.882-1.306 0-3.155-.536-4.57-1.153-.08-.034-.16-.034-.234-.034-.188 0-.342.148-.417.382l-.502 1.381c-.04.08-.04.154-.04.234 0 .188.114.382.383.496 1.266.577 3.303 1.233 5.26 1.233 4.074 0 7.03-2.191 7.03-5.729"/></svg>