<svg xmlns="http://www.w3.org/2000/svg" role="img" viewBox="-8.63 -7.63 448.50 107.00"><title>MAAP logo</title><path fill="#e9a06d" d="M69 84.45902c0-3.48754.45-6.6191 1-6.95902.55-.33992.9931-1.15398.98469-1.80902-.01018-.7917-.30517-.73346-.87992.17373-.6845 1.08043-1.53098.77096-4.0636-1.48561-2.47215-2.2027-3.10682-3.47844-2.79328-5.61471C63.51707 66.93033 63.20709 66 62.3268 66 61.59706 66 61 65.1 61 64c0-1.70667-.66667-2-4.54545-2-3.38205 0-5.12202-.57656-6.7981-2.25263-2.8876-2.8876-3.7046-5.06658-2.56393-6.83805.77354-1.20132 1.05089-1.18793 1.87914.09068.669 1.03279.77298.2541.33382-2.5-.60372-3.786-.53995-3.91975 1.19206-2.5 1.71335 1.40447 1.75354 1.3567.631-.75-.6594-1.2375-1.85807-2.25-2.66372-2.25S47 44.55 47 44s-.76294-1-1.69542-1c-1.1942 0-.58376-1.01824 2.06496-3.44437 3.15972-2.89419 3.593-3.75712 2.7125-5.40233-.779-1.45557-2.33537-2.04718-6.06558-2.30563-4.57096-.31672-5.01765-.15687-5.01708 1.79534.00034 1.17866.72432 2.42072 1.60884 2.76015 1.17383.45043 1.49817 1.55977 1.2008 4.10698C41.52828 42.91491 41.80556 44 42.7008 44 43.41536 44 44 44.675 44 45.5c0 .83333-.88889 1.5-2 1.5-1.1 0-2-.45-2-1s-1.8-1-4-1c-2.88889 0-4-.41667-4-1.5 0-.825-.59896-1.5-1.33102-1.5S28.73588 40.875 28 39.5c-.73588-1.375-1.93692-2.5-2.66898-2.5-.7844 0-1.33264-1.12936-1.33496-2.75l-.0039-2.75H15.1686c-8.57774 0-8.912-.08842-11.9961-3.17308C.0509 25.20475 0 25.00022 0 15.57692 0 9.85897.40295 6 1 6c.55 0 1-.675 1-1.5S2.675 3 3.5 3 5 2.55 5 2c0-.63636 8-1 22-1s22 .36364 22 1c0 .55.675 1 1.5 1s1.5.675 1.5 1.5.675 1.5 1.5 1.5C54.73333 6 55 7.77778 55 16c0 7.9829-.2871 10-1.42335 10-1.19571 0-1.16857.51075.16973 3.19342 1.14736 2.29995 1.26581 3.30252.42335 3.58333C53.52638 32.99122 53 34.02918 53 35.08333 53 36.1375 52.55 37 52 37s-1 .9725-1 2.16113c0 1.89506.385 1.71039 3.12725-1.5C57.07715 34.20763 57.59163 34 63.19868 34 68.97298 34 72 35.35115 72 37.92857 72 38.51786 72.45 39 73 39c.55699 0 1 2.6928 1 6.0784 0 5.78217-.19454 6.26531-3.99172 9.91364-4.4973 4.32101-6.40641 10.53421-3.57112 11.62222C67.29672 66.9441 68 67.87298 68 68.67842 68 71.71432 70.74552 73 77.22857 73c3.69435 0 6.88612.5147 7.59639 1.22496.96661.96661 1.63864.96661 3.18643 0C90.49816 72.67195 99 72.5946 99 74.125c0 1.46485 6.07471.30436 7.27642-1.39006.68654-.96802.98336-.9711 1.37328-.01424.39158.96094.77864.96094 1.81891 0 .72681-.67138 1.06988-1.63467.76238-2.14064-.30749-.50597.14746-.64881 1.01101-.31744.90001.34537 2.30739-.21221 3.29769-1.30648.95018-1.04994 2.12861-1.66114 2.61873-1.35823.49012.30291.82669.1798.74794-.27358C117.27826 63.70865 118.19478 45 119 45c.61111 0 1 4.66667 1 12s-.38889 12-1 12c-.55 0-1 .60526-1 1.34501 0 .73976-.9 2.1595-2 3.15499-1.67205 1.51318-2 3.07997-2 9.55499V90.8h-7v-6.9c0-3.93333-.42995-6.9-1-6.9-.56931 0-1 2.94927-1 6.84782v6.84782l-3 .0853-3 .0853v-5.93312C99 81.2621 98.57794 79 97.89301 79c-.60884 0-.89114-.5625-.62732-1.25.34221-.89178-.88024-1.25-4.26569-1.25s-4.6079.35822-4.2657 1.25c.30815.803-.45256 1.25-2.12731 1.25C84.08734 79 84 79.201 84 85v6h-6v-6c0-3.33333-.44444-6-1-6-.55367 0-1 2.63333-1 5.9v5.9h-7zM38 39c0-1.11111-.66667-2-1.5-2-1.11111 0-1.5-1.16667-1.5-4.5V28h7c5.55556 0 7-.30952 7-1.5 0-.825.45-1.5 1-1.5.5926 0 1-3.66667 1-9s-.4074-9-1-9c-.55 0-1-.675-1-1.5C49 4.21429 46 4 28 4 2.32193 4 3 3.67453 3 16c0 11.35799.77576 12 14.5 12H28v4c0 2.2.45 4 1 4s1 .675 1 1.5.675 1.5 1.5 1.5 1.5.45 1.5 1 1.125 1 2.5 1c1.83333 0 2.5-.53333 2.5-2zM8 15.55902c0-5.21026 1.40313-6.55324 3.87228-3.70628 1.74454 2.01147 1.78326 2.0126 3.16769.09182C17.2594 8.86526 18 9.62974 18 15c0 2.75-.45 5-1 5s-1-1.1801-1-2.62244c0-2.06254-.28264-2.38788-1.3238-1.5238-.96669.80229-1.64107.78137-2.5-.07756C11.2746 14.8746 11 15.23034 11 17.3c0 1.73333-.53704 2.7-1.5 2.7C8.39184 20 8 18.8399 8 15.55902zm11.66667 3.77431C17.42792 17.09458 20.47384 10 23.67375 10c2.04443 0 4.4728 3.85176 4.1512 6.58445C27.48016 19.5144 25 21.26932 25 18.58333 25 17.7125 24.325 17 23.5 17s-1.5.675-1.5 1.5c0 1.56157-1.1827 1.98397-2.33333.83333zm5.0625-5.9375c-.3323-.33229-1.1948-.36782-1.91667-.07895-.79773.31923-.56078.55619.60417.60417 1.05416.04342 1.64479-.19293 1.3125-.52522zm4.46333 2.45601c.39062-5.26938 2.77496-7.09625 5.74896-4.40481C37.43822 13.70655 37.8492 20 35.5 20c-.825 0-1.5-.675-1.5-1.5s-.675-1.5-1.5-1.5-1.5.675-1.5 1.5-.47587 1.5-1.0575 1.5c-.6228 0-.9311-1.70517-.75-4.14816zm4.53667-2.456c-.3323-.3323-1.1948-.36783-1.91667-.07896-.79773.31923-.56078.55619.60417.60417 1.05416.04342 1.64479-.19293 1.3125-.52522zM38 15c0-4.7037.15238-5 2.57143-5 1.41428 0 3.26617.69474 4.11529 1.54386 1.39182 1.39182 1.36952 1.73651-.22642 3.5C43.48665 16.11974 42.08477 17 41.34501 17 40.60526 17 40 17.675 40 18.5s-.45 1.5-1 1.5-1-2.25-1-5zm4.72917-1.60417c-.3323-.33229-1.1948-.36782-1.91667-.07895-.79773.31923-.56078.55619.60417.60417 1.05416.04342 1.64479-.19293 1.3125-.52522zM53 31.55902c0-1.50117-1.79534-3.09702-2.59007-2.30228C49.71245 29.9542 51.0933 33 52.10699 33 52.59814 33 53 32.35156 53 31.55902zM135 83c0-1.98135.66667-2 71.5-2s71.5.01865 71.5 2-.66667 2-71.5 2-71.5-.01865-71.5-2zm80.21257-14.5066C211.72941 66.98002 209 62.16433 209 57.53211 209 55.10397 209.24637 55 215 55c5.12201 0 6 .2647 6 1.80887 0 3.14105 2.41155 5.51267 4.8262 4.7463 1.66715-.52914 2.1738-1.47808 2.1738-4.07148 0-3.1729-.39629-3.57066-6.42328-6.44707-3.5328-1.68606-7.62949-4.49906-9.10376-6.25112-2.41933-2.87521-2.64121-3.80228-2.27741-9.51561.35047-5.50404.8168-6.74378 3.57368-9.50066 2.7553-2.7553 3.99794-3.2233 9.48662-3.57279 8.2147-.52307 12.81938 1.33497 15.07183 6.08166C239.24746 30.2164 240 32.74675 240 33.90113 240 35.79975 239.42755 36 234 36c-5.2029 0-6-.24943-6-1.87756 0-1.03265-.675-2.43775-1.5-3.12244-2.13809-1.77446-4.69167.54983-4.30056 3.9144.24103 2.0735 1.53598 3.18184 6.53831 5.59608 3.43077 1.65577 7.48077 4.2535 9 5.77273 2.48041 2.4804 2.76225 3.46344 2.76225 9.63453 0 7.69975-1.46782 10.28654-7.21788 12.72028-4.15855 1.76012-13.86437 1.68244-18.06955-.14463zM138 46V23h13.5105l3.49475 13.25L158.5 49.5l.27903-13.25.27902-13.25H170v46.09138l-6.71498-.29569-6.71499-.29569-3.7013-13-3.70131-13-.0837 13.25L149 69h-11zm34.41462 21.25c.30216-.9625 2.60834-10.525 5.12484-21.25 2.5165-10.725 4.80492-20.2875 5.08538-21.25.42875-1.47137 1.73822-1.75 8.2245-1.75h7.71457l5.55085 23 5.55085 23h-6.83281C196.27277 69 196 68.90346 196 66.58179 196 61.98112 195.03692 61 190.52082 61c-4.2028 0-4.27456.05852-4.90483 4l-.63963 4h-6.55557c-5.78602 0-6.49107-.20543-6.00617-1.75zm21.22582-17c-.27189-.9625-.78508-3.775-1.14044-6.25-1.21774-8.48139-1.78078-8.84322-3.11211-2-1.89434 9.7371-1.85019 10 1.6795 10 2.44297 0 2.96676-.35624 2.57305-1.75zm48.77418 17c.30216-.9625 2.60834-10.525 5.12484-21.25 2.5165-10.725 4.80492-20.2875 5.08538-21.25.42879-1.47152 1.7385-1.75 8.23043-1.75h7.72049l5.59588 22.75 5.59589 22.75.11623-22.75L280 23h17.69446l1.74927 10.25c2.80438 16.43261 2.71689 16.38618 5.18208 2.75 1.24288-6.875 2.28552-12.6125 2.31698-12.75.03147-.1375 3.88221-.25 8.55721-.25h8.5v46h-11l-.079-15.75c-.0434-8.6625-.23344-15.3-.42227-14.75-.18882.55-1.56156 7.65978-3.05052 15.7995l-2.7072 14.7995-4.62053-.2995L297.5 68.5l-2.5-14-2.5-14-.27746 14.25-.27745 14.25H266v-2.41821C266 61.98112 265.03692 61 260.52082 61c-4.2028 0-4.27456.05852-4.90483 4l-.63963 4h-6.55557c-5.78602 0-6.49107-.20543-6.00617-1.75zm21.22582-17c-.27189-.9625-.78508-3.775-1.14044-6.25-1.21774-8.48139-1.78078-8.84322-3.11211-2-1.89434 9.7371-1.85019 10 1.6795 10 2.44297 0 2.96676-.35624 2.57305-1.75zm62.77418 17c.30216-.9625 2.60834-10.525 5.12484-21.25 2.5165-10.725 4.80492-20.2875 5.08538-21.25.42889-1.47186 1.73914-1.75 8.24372-1.75h7.73379l4.87553 20.25 4.87554 20.25 3.90987-16.5c2.15043-9.075 4.33825-18.1875 4.86183-20.25l.95197-3.75h15.48682l5.55085 23 5.55085 23h-6.83281C385.27277 69 385 68.90346 385 66.58179 385 61.98112 384.03692 61 379.52082 61c-4.2028 0-4.27456.05852-4.90483 4l-.63963 4H350v-2.41821C350 61.98112 349.03692 61 344.52082 61c-4.2028 0-4.27456.05852-4.90483 4l-.63963 4h-6.55557c-5.78602 0-6.49107-.20543-6.00617-1.75zm21.22582-17c-.27189-.9625-.78508-3.775-1.14044-6.25-1.21774-8.48139-1.78078-8.84322-3.11211-2-1.89434 9.7371-1.85019 10 1.6795 10 2.44297 0 2.96676-.35624 2.57305-1.75zm35 0c-.27189-.9625-.78508-3.775-1.14044-6.25-1.21774-8.48139-1.78078-8.84322-3.11211-2-1.89434 9.7371-1.85019 10 1.6795 10 2.44297 0 2.96676-.35624 2.57305-1.75zM400 46V23h11.04966c12.16889 0 15.40462.992 18.4635 5.66043 2.42016 3.69363 2.48386 12.71787.12119 17.16835C427.58188 49.69494 422.87473 52 417.03212 52H413v17h-13zm17.42857-4.57143c3.01832-3.01832.97869-9.42857-3-9.42857C413.36364 32 413 33.4 413 37.5c0 5.87708 1.31422 7.04292 4.42857 3.92857zM77.25 46.50417c-1.68346-1.91208-1.57501-4.32202.27788-6.1749 1.29289-1.2929 1.79214-1.32036 3.24607-.17858 4.39467 3.45116 4.56272 3.81981 2.68635 5.89317-2.0683 2.28545-4.44809 2.46184-6.2103.4603zM116 44.55902c0-.85746.45-1.55902 1-1.55902s1 .42344 1 .94098c0 .51754-.45 1.2191-1 1.55902s-1-.08352-1-.94098zm-2.40344-1.40279c-.34605-.55992-.1419-1.31919.45366-1.68727 1.53748-.95022 2.52947.35135 1.24598 1.63484-.71818.71818-1.27752.73543-1.69964.05243zM110.25 39.50417C108.7177 37.76378 108.66324 37 110.07143 37 111.19585 37 114 39.44726 114 40.42857c0 1.10098-2.51196.48177-3.75-.9244zm-33.62074-6.58712C72.7714 29.013 72.73206 29 64.79593 29c-5.92457 0-7.85646-.31994-7.54792-1.25.2734-.82414 2.99187-1.3294 7.9794-1.48308l7.56473-.23308 4.01245 4.48308C80.48706 34.63132 85 36.54934 85 34c0-.55 1.54844-1 3.44098-1 1.89254 0 3.7191.45 4.05902 1 .33992.55 1.49148 1 2.55902 1S97 34.55 97 34s1.8-1 4-1 4 .45 4 1 1.15156 1 2.55902 1c1.45136 0 2.2915.43284 1.94098 1-.33992.55-1.49148 1-2.55902 1S105 36.55 105 36s-1.8-1-4-1-4 .45-4 1-1.125 1-2.5 1-2.5-.45-2.5-1-1.575-1-3.5-1-3.5.45-3.5 1c0 2.31145-4.77965.5511-8.37074-3.08295zM54.7323 29.08433c-.27552-1.05362-.12299-2.29365.33898-2.75561.46197-.46197.99332-4.66241 1.18078-9.33433L56.59291 8.5l.20354 9.25C56.9426 24.39086 56.66153 27 55.8 27c-.93333 0-.93333.26667 0 1.2 1.41118 1.41118 1.56823 2.8.31663 2.8-.48585 0-1.1088-.86205-1.38433-1.91567z"/><path fill="#9ca2a2" d="M69 84.45902c0-3.48754.45-6.6191 1-6.95902.55-.33992.9931-1.15398.98469-1.80902-.01018-.7917-.30517-.73346-.87992.17373-.6845 1.08043-1.53098.77096-4.0636-1.48561-2.47215-2.2027-3.10682-3.47844-2.79328-5.61471C63.51707 66.93033 63.20709 66 62.3268 66 61.59706 66 61 65.1 61 64c0-1.70667-.66667-2-4.54545-2-3.38205 0-5.12202-.57656-6.7981-2.25263-3.15398-3.15399-3.82805-5.43291-2.11396-7.147C48.34412 51.79874 49 50.1207 49 48.87143c0-1.79238.25835-2.01308 1.22496-1.04647s.96661 1.63864 0 3.18643C46.90873 56.32151 49.69578 60 57.03528 60c4.91836 0 5.4127-.24982 9.85307-4.97942 4.19478-4.468 4.69797-5.50897 4.89926-10.13539.27909-6.41417-1.24569-7.80932-8.58306-7.85339C56.823 36.99348 53 39.96163 53 44.95455c0 3.19838-1.38064 4.10187-2.36163 1.54545-.31658-.825-1.26472-1.5-2.10699-1.5C47.68912 45 47 44.55 47 44s-.76294-1-1.69542-1c-1.1942 0-.58376-1.01824 2.06496-3.44437 3.15972-2.89419 3.593-3.75712 2.7125-5.40233-.779-1.45557-2.33537-2.04718-6.06558-2.30563-4.57096-.31672-5.01765-.15687-5.01708 1.79534.00034 1.17866.72432 2.42072 1.60884 2.76015 1.17383.45043 1.49817 1.55977 1.2008 4.10698C41.52828 42.91491 41.80556 44 42.7008 44 43.41536 44 44 44.675 44 45.5c0 .83333-.88889 1.5-2 1.5-1.1 0-2-.45-2-1s-1.8-1-4-1c-2.88889 0-4-.41667-4-1.5 0-.825-.59896-1.5-1.33102-1.5S28.73588 40.875 28 39.5c-.73588-1.375-1.93692-2.5-2.66898-2.5-.7844 0-1.33264-1.12936-1.33496-2.75l-.0039-2.75H15.1686c-8.57774 0-8.912-.08842-11.9961-3.17308C.0509 25.20475 0 25.00022 0 15.57692 0 9.85897.40295 6 1 6c.55 0 1-.675 1-1.5S2.675 3 3.5 3 5 2.55 5 2c0-.63636 8-1 22-1s22 .36364 22 1c0 .55.675 1 1.5 1s1.5.675 1.5 1.5.675 1.5 1.5 1.5C54.73333 6 55 7.77778 55 16c0 7.9829-.2871 10-1.42335 10-1.19571 0-1.16857.51075.16973 3.19342 1.14736 2.29995 1.26581 3.30252.42335 3.58333C53.52638 32.99122 53 34.02918 53 35.08333 53 36.1375 52.55 37 52 37s-1 .9725-1 2.16113c0 1.89506.385 1.71039 3.12725-1.5C57.07715 34.20763 57.59163 34 63.19868 34 68.97298 34 72 35.35115 72 37.92857 72 38.51786 72.45 39 73 39c.55699 0 1 2.6928 1 6.0784 0 5.69782-.2348 6.31065-3.75 9.78776-2.0625 2.04014-4.2495 4.59789-4.86001 5.68387C64.17973 62.70287 65.23089 67 66.96778 67 67.5355 67 68 67.70714 68 68.57143 68 71.72698 70.67511 73 77.30613 73c4.55989 0 6.81978.44678 7.7148 1.52523 1.1345 1.36697 1.4407 1.36697 2.9512 0C89.95962 72.72655 99 72.39846 99 74.125c0 .74908 1.08599.88633 3.25.41073 1.7875-.39284 3.925-.7866 4.75-.875 1.93238-.20706 3.92192-1.94297 3.33602-2.91073-.64714-1.06893.46335-.92774 2.88135.36633 1.73707.92965 1.98686.85827 1.4937-.42688-.65809-1.71496 1.54801-4.09703 2.71427-2.93077.40773.40772.65054.29132.53957-.25868-.68626-3.40145.19235-22.5 1.03509-22.5.61111 0 1 4.66667 1 12s-.38889 12-1 12c-.55 0-1 .60526-1 1.34501 0 .73976-.9 2.1595-2 3.15499-1.67205 1.51318-2 3.07997-2 9.55499V90.8h-7v-6.9c0-3.93333-.42995-6.9-1-6.9-.56931 0-1 2.94927-1 6.84782v6.84782l-3 .0853-3 .0853v-5.93312C99 81.2621 98.57794 79 97.89301 79c-.60884 0-.89114-.5625-.62732-1.25.34221-.89178-.88024-1.25-4.26569-1.25s-4.6079.35822-4.2657 1.25c.30815.803-.45256 1.25-2.12731 1.25C84.08734 79 84 79.201 84 85v6h-6v-6c0-3.33333-.44444-6-1-6-.55367 0-1 2.63333-1 5.9v5.9h-7zm5-3.01804C74 78.99844 73.55 77 73 77s-1 2.27656-1 5.05902c0 3.11803.38367 4.8219 1 4.44098.55-.33992 1-2.61648 1-5.05902zM82 82c0-2.75-.45-5-1-5s-1 2.25-1 5 .45 5 1 5 1-2.25 1-5zm21 .94098c0-2.45136-.39607-3.81423-1-3.44098-1.69337 1.04656-1.11973 7.5.66667 7.5C102.85 87 103 85.17344 103 82.94098zM112 81c0-2.68508-.45-5.16008-1-5.5-.62504-.3863-1 1.67596-1 5.5s.37496 5.8863 1 5.5c.55-.33992 1-2.81492 1-5.5zM50 42c0-.55-.675-1-1.5-1s-1.5.45-1.5 1 .675 1 1.5 1 1.5-.45 1.5-1zm-12-3c0-1.11111-.66667-2-1.5-2-1.11111 0-1.5-1.16667-1.5-4.5V28h7c5.55556 0 7-.30952 7-1.5 0-.825.45-1.5 1-1.5.5926 0 1-3.66667 1-9s-.4074-9-1-9c-.55 0-1-.675-1-1.5C49 4.21429 46 4 28 4 2.32193 4 3 3.67453 3 16c0 11.35799.77576 12 14.5 12H28v4c0 2.2.45 4 1 4s1 .675 1 1.5.675 1.5 1.5 1.5 1.5.45 1.5 1 1.125 1 2.5 1c1.83333 0 2.5-.53333 2.5-2zM8 15.55902c0-5.21026 1.40313-6.55324 3.87228-3.70628 1.74454 2.01147 1.78326 2.0126 3.16769.09182C17.2594 8.86526 18 9.62974 18 15c0 2.75-.45 5-1 5s-1-1.1801-1-2.62244c0-2.06254-.28264-2.38788-1.3238-1.5238-.96669.80229-1.64107.78137-2.5-.07756C11.2746 14.8746 11 15.23034 11 17.3c0 1.73333-.53704 2.7-1.5 2.7C8.39184 20 8 18.8399 8 15.55902zm11.66667 3.77431C17.42792 17.09458 20.47384 10 23.67375 10c2.04443 0 4.4728 3.85176 4.1512 6.58445C27.48016 19.5144 25 21.26932 25 18.58333 25 17.7125 24.325 17 23.5 17s-1.5.675-1.5 1.5c0 1.56157-1.1827 1.98397-2.33333.83333zm5.0625-5.9375c-.3323-.33229-1.1948-.36782-1.91667-.07895-.79773.31923-.56078.55619.60417.60417 1.05416.04342 1.64479-.19293 1.3125-.52522zm4.46333 2.45601c.39062-5.26938 2.77496-7.09625 5.74896-4.40481C37.43822 13.70655 37.8492 20 35.5 20c-.825 0-1.5-.675-1.5-1.5s-.675-1.5-1.5-1.5-1.5.675-1.5 1.5-.47587 1.5-1.0575 1.5c-.6228 0-.9311-1.70517-.75-4.14816zm4.53667-2.456c-.3323-.3323-1.1948-.36783-1.91667-.07896-.79773.31923-.56078.55619.60417.60417 1.05416.04342 1.64479-.19293 1.3125-.52522zM38 15c0-4.7037.15238-5 2.57143-5 1.41428 0 3.26617.69474 4.11529 1.54386 1.39182 1.39182 1.36952 1.73651-.22642 3.5C43.48665 16.11974 42.08477 17 41.34501 17 40.60526 17 40 17.675 40 18.5s-.45 1.5-1 1.5-1-2.25-1-5zm4.72917-1.60417c-.3323-.33229-1.1948-.36782-1.91667-.07895-.79773.31923-.56078.55619.60417.60417 1.05416.04342 1.64479-.19293 1.3125-.52522zM53 31.55902c0-1.50117-1.79534-3.09702-2.59007-2.30228C49.71245 29.9542 51.0933 33 52.10699 33 52.59814 33 53 32.35156 53 31.55902zM135 83c0-1.98135.66667-2 71.5-2s71.5.01865 71.5 2-.66667 2-71.5 2-71.5-.01865-71.5-2zm80.21257-14.5066C211.72941 66.98002 209 62.16433 209 57.53211 209 55.10397 209.24637 55 215 55c5.12201 0 6 .2647 6 1.80887 0 3.14105 2.41155 5.51267 4.8262 4.7463 1.66715-.52914 2.1738-1.47808 2.1738-4.07148 0-3.1729-.39629-3.57066-6.42328-6.44707-3.5328-1.68606-7.62949-4.49906-9.10376-6.25112-2.41933-2.87521-2.64121-3.80228-2.27741-9.51561.35047-5.50404.8168-6.74378 3.57368-9.50066 2.7553-2.7553 3.99794-3.2233 9.48662-3.57279 8.2147-.52307 12.81938 1.33497 15.07183 6.08166C239.24746 30.2164 240 32.74675 240 33.90113 240 35.79975 239.42755 36 234 36c-5.2029 0-6-.24943-6-1.87756 0-1.03265-.675-2.43775-1.5-3.12244-2.13809-1.77446-4.69167.54983-4.30056 3.9144.24103 2.0735 1.53598 3.18184 6.53831 5.59608 3.43077 1.65577 7.48077 4.2535 9 5.77273 2.48041 2.4804 2.76225 3.46344 2.76225 9.63453 0 7.69975-1.46782 10.28654-7.21788 12.72028-4.15855 1.76012-13.86437 1.68244-18.06955-.14463zM138 46V23h13.5105l3.49475 13.25L158.5 49.5l.27903-13.25.27902-13.25H170v46.09138l-6.71498-.29569-6.71499-.29569-3.7013-13-3.70131-13-.0837 13.25L149 69h-11zm34.41462 21.25c.30216-.9625 2.60834-10.525 5.12484-21.25 2.5165-10.725 4.80492-20.2875 5.08538-21.25.42875-1.47137 1.73822-1.75 8.2245-1.75h7.71457l5.55085 23 5.55085 23h-6.83281C196.27277 69 196 68.90346 196 66.58179 196 61.98112 195.03692 61 190.52082 61c-4.2028 0-4.27456.05852-4.90483 4l-.63963 4h-6.55557c-5.78602 0-6.49107-.20543-6.00617-1.75zm21.22582-17c-.27189-.9625-.78508-3.775-1.14044-6.25-1.21774-8.48139-1.78078-8.84322-3.11211-2-1.89434 9.7371-1.85019 10 1.6795 10 2.44297 0 2.96676-.35624 2.57305-1.75zm48.77418 17c.30216-.9625 2.60834-10.525 5.12484-21.25 2.5165-10.725 4.80492-20.2875 5.08538-21.25.42879-1.47152 1.7385-1.75 8.23043-1.75h7.72049l5.59588 22.75 5.59589 22.75.11623-22.75L280 23h17.69446l1.74927 10.25c2.80438 16.43261 2.71689 16.38618 5.18208 2.75 1.24288-6.875 2.28552-12.6125 2.31698-12.75.03147-.1375 3.88221-.25 8.55721-.25h8.5v46h-11l-.079-15.75c-.0434-8.6625-.23344-15.3-.42227-14.75-.18882.55-1.56156 7.65978-3.05052 15.7995l-2.7072 14.7995-4.62053-.2995L297.5 68.5l-2.5-14-2.5-14-.27746 14.25-.27745 14.25H266v-2.41821C266 61.98112 265.03692 61 260.52082 61c-4.2028 0-4.27456.05852-4.90483 4l-.63963 4h-6.55557c-5.78602 0-6.49107-.20543-6.00617-1.75zm21.22582-17c-.27189-.9625-.78508-3.775-1.14044-6.25-1.21774-8.48139-1.78078-8.84322-3.11211-2-1.89434 9.7371-1.85019 10 1.6795 10 2.44297 0 2.96676-.35624 2.57305-1.75zm62.77418 17c.30216-.9625 2.60834-10.525 5.12484-21.25 2.5165-10.725 4.80492-20.2875 5.08538-21.25.42889-1.47186 1.73914-1.75 8.24372-1.75h7.73379l4.87553 20.25 4.87554 20.25 3.90987-16.5c2.15043-9.075 4.33825-18.1875 4.86183-20.25l.95197-3.75h15.48682l5.55085 23 5.55085 23h-6.83281C385.27277 69 385 68.90346 385 66.58179 385 61.98112 384.03692 61 379.52082 61c-4.2028 0-4.27456.05852-4.90483 4l-.63963 4H350v-2.41821C350 61.98112 349.03692 61 344.52082 61c-4.2028 0-4.27456.05852-4.90483 4l-.63963 4h-6.55557c-5.78602 0-6.49107-.20543-6.00617-1.75zm21.22582-17c-.27189-.9625-.78508-3.775-1.14044-6.25-1.21774-8.48139-1.78078-8.84322-3.11211-2-1.89434 9.7371-1.85019 10 1.6795 10 2.44297 0 2.96676-.35624 2.57305-1.75zm35 0c-.27189-.9625-.78508-3.775-1.14044-6.25-1.21774-8.48139-1.78078-8.84322-3.11211-2-1.89434 9.7371-1.85019 10 1.6795 10 2.44297 0 2.96676-.35624 2.57305-1.75zM400 46V23h11.04966c12.16889 0 15.40462.992 18.4635 5.66043 2.42016 3.69363 2.48386 12.71787.12119 17.16835C427.58188 49.69494 422.87473 52 417.03212 52H413v17h-13zm17.42857-4.57143c3.01832-3.01832.97869-9.42857-3-9.42857C413.36364 32 413 33.4 413 37.5c0 5.87708 1.31422 7.04292 4.42857 3.92857zM52.25 56.50417C50.32046 54.31258 50.68307 54 55.15499 54c4.09164 0 4.1274.03049 2.34501 2-2.11466 2.33668-3.51795 2.47144-5.25.50417zm25-10c-1.68346-1.91208-1.57501-4.32202.27788-6.1749 1.29289-1.2929 1.79214-1.32036 3.24607-.17858 4.39467 3.45116 4.56272 3.81981 2.68635 5.89317-2.0683 2.28545-4.44809 2.46184-6.2103.4603zm4.75-2.0756c0-1.10368-2.76875-3.32648-3.38095-2.71428C77.28373 43.04959 78.10347 45 80 45c1.1 0 2-.25714 2-.57143zM63.68333 45.35c-1.06527-1.06527-.80245-4.35.34806-4.35 1.47852 0 2.40943 2.95918 1.28473 4.08388-.5222.5222-1.25695.64195-1.63279.26612zM116 44.55902c0-.85746.45-1.55902 1-1.55902s1 .42344 1 .94098c0 .51754-.45 1.2191-1 1.55902s-1-.08352-1-.94098zM59 43c0-1.1.45-2 1-2s1 .9 1 2-.45 2-1 2-1-.9-1-2zm54.59656.15623c-.34605-.55992-.1419-1.31919.45366-1.68727 1.53748-.95022 2.52947.35135 1.24598 1.63484-.71818.71818-1.27752.73543-1.69964.05243zM110.25 39.50417C108.7177 37.76378 108.66324 37 110.07143 37 111.19585 37 114 39.44726 114 40.42857c0 1.10098-2.51196.48177-3.75-.9244zm-33.62074-6.58712C72.7714 29.013 72.73206 29 64.79593 29c-5.92457 0-7.85646-.31994-7.54792-1.25.2734-.82414 2.99187-1.3294 7.9794-1.48308l7.56473-.23308 4.01245 4.48308C80.48706 34.63132 85 36.54934 85 34c0-.55 1.54844-1 3.44098-1 1.89254 0 3.7191.45 4.05902 1 .33992.55 1.49148 1 2.55902 1S97 34.55 97 34s1.8-1 4-1 4 .45 4 1 1.15156 1 2.55902 1c1.45136 0 2.2915.43284 1.94098 1-.33992.55-1.49148 1-2.55902 1S105 36.55 105 36s-1.8-1-4-1-4 .45-4 1-1.125 1-2.5 1-2.5-.45-2.5-1-1.575-1-3.5-1-3.5.45-3.5 1c0 2.31145-4.77965.5511-8.37074-3.08295zM54.7323 29.08433c-.27552-1.05362-.12299-2.29365.33898-2.75561.46197-.46197.99332-4.66241 1.18078-9.33433L56.59291 8.5l.20354 9.25C56.9426 24.39086 56.66153 27 55.8 27c-.93333 0-.93333.26667 0 1.2 1.41118 1.41118 1.56823 2.8.31663 2.8-.48585 0-1.1088-.86205-1.38433-1.91567z"/><path fill="#6b90ad" d="M70 84.32278c0-4.70587.45443-6.92007 1.66964-8.13528 1.2142-1.2142 1.7825-1.3311 2.08334-.42857.53942 1.61826 5.90769 1.61106 6.66369-.0089.46666-1 .7-1 1.16666 0 .32084.6875 1.89584 1.25 3.5 1.25C86.6875 77 88 77.45 88 78s-.9 1-2 1c-1.77143 0-2 .66667-2 5.83333v5.83334h-6.16084l.33042-5.83516c.2841-5.01703.08506-5.8349-1.41958-5.83333-1.46348.0015-1.75012.94326-1.7507 5.75182-.00067 5.42756-.14086 5.75809-2.5 5.89421-2.4229.1398-2.4993-.05343-2.4993-6.32143zM74 82c0-2.75-.45-5-1-5s-1 2.25-1 5 .45 5 1 5 1-2.25 1-5zm8 0c0-2.75-.45-5-1-5s-1 2.25-1 5 .45 5 1 5 1-2.25 1-5zm17 2.83333C99 81.61111 98.55238 79 98 79c-.55 0-1-.45-1-1s1.35-1 3-1 3-.45 3-1 1.575-1 3.5-1c2.24139 0 3.5-.47712 3.5-1.3268 0-.91829.96587-1.18505 3.13696-.8664 2.52423.37047 2.81722.63934 1.5 1.3765-1.29481.7246-1.63711 2.52558-1.63767 8.61639-.00068 7.473-.0733 7.70449-2.45837 7.84193-2.36894.13651-2.4682-.11622-2.7493-7C107.63123 79.71373 107.05 76.5 106.5 76.5s-1.1307 3.1875-1.29045 7.08333l-.29044 7.08334h-2.95956c-2.94117 0-2.95955-.03624-2.95955-5.83334zm13-3.89235C112 77.647 111.55445 75 111 75c-.56503 0-1 2.853-1 6.55902 0 4.11803.37216 6.329 1 5.94098.55-.33992 1-3.29148 1-6.55902zM103 83c0-2.2-.45-4-1-4s-1 1.8-1 4 .45 4 1 4 1-1.8 1-4zm32 .5c0-1.31935 8.61111-1.5 71.5-1.5s71.5.18065 71.5 1.5-8.61111 1.5-71.5 1.5-71.5-.18065-71.5-1.5zM68 76c0-.55.47656-1 1.05902-1 .58246 0 .7809.45.44098 1-.33992.55-.81648 1-1.05902 1C68.19844 77 68 76.55 68 76zm22.26375-.71758c1.52006-.22986 3.77006-.22371 5 .01365s-.01375.42542-2.76375.41792c-2.75-.0075-3.75631-.20172-2.23625-.43157zM64 68.94098c0-1.68246.38965-2.8182.8659-2.52386.80556.49786.36612 5.58288-.48248 5.58288C64.17254 72 64 70.62344 64 68.94098zm52 1c0-1.13246.45-1.7809 1-1.44098s1 1.26648 1 2.05902C118 71.35156 117.55 72 117 72s-1-.92656-1-2.05902zm101.09366-1.18691c-3.93096-1.44722-6.65836-4.8596-7.59626-9.50407l-.65631-3.25h6.07945C220.10817 56 221 56.26405 221 57.8c0 4.18649 5.13121 5.69187 7.0677 2.0735 1.86881-3.49191-.24112-6.22603-7.46906-9.67862-9.86352-4.71153-12.94547-11.64236-9.18217-20.64922 1.8236-4.36448 5.12357-6.47332 11.20705-7.16186 9.10159-1.03014 15.35301 2.80913 16.87908 10.3662l.65631 3.25h-5.48163c-5.19163 0-5.53696-.15871-6.52744-3-1.24166-3.56185-4.51459-4.05548-6.18573-.93294-1.71572 3.20585 1.1204 6.49793 8.46815 9.82955 7.37367 3.34338 9.70525 6.27284 10.27537 12.91023.49573 5.77132-1.98458 11.10996-6.06123 13.04624-4.00954 1.9044-13.50354 2.39173-17.55274.90099zM138 45.9543V22.90862l6.68863.29569 6.68864.29569 3.56136 13.5L158.5 50.5l.27822-13.75.27822-13.75H170v46H157.05587l-1.4817-5.25c-.81493-2.8875-2.5965-9.075-3.95905-13.75l-2.47736-8.5-.0689 13.75L149 69h-11zm39.65256.79569c2.93688-12.2375 5.3415-22.60643 5.34361-23.04206.002-.43564 3.47454-.66064 7.71652-.5l7.7127.29206 5.24124 21.5c2.88269 11.825 5.26198 22.0625 5.28731 22.75.0318.8638-1.77464 1.25-5.84695 1.25C196.83848 69 196 68.34146 196 63.41821 196 61.1888 195.6165 61 191.0879 61h-4.9121l-.6758 4-.6758 4h-12.5114zM194 51.18366c0-1.21913-1.95979-12.31253-2.68239-15.18366-.48555-1.92928-.92203-.90198-1.91195 4.5C187.41267 51.37575 187.49921 52 191 52c1.65 0 3-.36735 3-.81634zM247.65256 46.75c2.93688-12.2375 5.3415-22.60643 5.34361-23.04206.002-.43564 3.47454-.66064 7.71652-.5l7.7127.29206 5.24124 21.5c2.88269 11.825 5.26198 22.0625 5.28731 22.75.0318.8638-1.77464 1.25-5.84695 1.25C266.83848 69 266 68.34146 266 63.41821 266 61.1888 265.6165 61 261.0879 61h-4.9121l-.6758 4-.6758 4h-12.5114zM264 51.18366c0-1.21913-1.95979-12.31253-2.68239-15.18366-.48555-1.92928-.92203-.90198-1.91195 4.5C257.41267 51.37575 257.49921 52 261 52c1.65 0 3-.36735 3-.81634zm16-5.2226V22.92214l8.73837.28894 8.73837.28893 2.1954 12.35044c1.20747 6.79274 2.39028 12.54531 2.62847 12.7835.23818.23818.72876-1.49451 1.09016-3.85044.36141-2.35592 1.36809-8.221 2.23706-13.0335l1.57995-8.75H324v46h-10.95046l-.27477-16.25L312.5 36.5l-2.93398 16.25L306.63203 69h-4.31601c-2.37381 0-4.32339-.1125-4.3324-.25-.16275-2.48334-5.95646-31.05617-6.38394-31.48365-.32982-.32982-.59968 6.67532-.59968 15.56698V69h-11zm51.65256.78894c2.93688-12.2375 5.3415-22.60643 5.34361-23.04206.002-.43564 3.47859-.66064 7.72552-.5l7.72169.29206 4.94515 20.5 4.94516 20.5 1.73746-7c.9556-3.85 3.20406-13.2051 4.99657-20.78912l3.2591-13.78913 7.54928.28913 7.54929.28912 5.24124 21.5c2.88269 11.825 5.26198 22.0625 5.28731 22.75.0318.8638-1.77464 1.25-5.84695 1.25C385.83848 69 385 68.34146 385 63.41821 385 61.1888 384.6165 61 380.0879 61h-4.9121l-.6758 4-.6758 4h-11.30511C350.36747 69 350 68.83616 350 63.41821 350 61.1888 349.6165 61 345.0879 61h-4.9121l-.6758 4-.6758 4h-12.5114zM348 51.18366c0-1.21913-1.95979-12.31253-2.68239-15.18366-.48555-1.92928-.92203-.90198-1.91195 4.5C341.41267 51.37575 341.49921 52 345 52c1.65 0 3-.36735 3-.81634zm35 0c0-1.21913-1.95979-12.31253-2.68239-15.18366-.48555-1.92928-.92203-.90198-1.91195 4.5C376.41267 51.37575 376.49921 52 380 52c1.65 0 3-.36735 3-.81634zM400 46V23h10.59887C426.82397 23 431 26.03515 431 37.82757c0 5.00152-.43347 6.53413-2.56428 9.06645-2.67026 3.17343-7.62728 5.09087-13.18572 5.1004L412 52v17h-12zm17.8-4.2c.66-.66 1.2-2.595 1.2-4.3 0-3.68408-1.55178-5.5-4.7-5.5-2.12121 0-2.3.42754-2.3 5.5s.17879 5.5 2.3 5.5c1.265 0 2.84-.54 3.5-1.2zM118 57c0-6.66667.39394-11 1-11s1 4.33333 1 11-.39394 11-1 11-1-4.33333-1-11zm-55.85017 7.25C62.01383 62.20755 61.49264 62 56.5 62c-3.025 0-5.5-.45-5.5-1s2.48464-1 5.52142-1c5.27434 0 5.74422-.22047 10.5-4.92646C71.72622 50.418 72 49.8604 72 44.93378c0-6.46707-1.5487-7.85845-8.79546-7.90198-4.31413-.0259-5.75031.42306-7.75 2.42274-1.35 1.35-2.45454 3.6-2.45454 5S52.55 47 52 47s-1-.45-1-1-.9-1-2-1-2-.45-2-1 .62074-1 1.37942-1c.75868 0 3.2342-1.8 5.50114-4 3.80238-3.69008 4.5513-4 9.66604-4C71.2536 35 74 37.70744 74 45.30513c0 5.25313-.1434 5.52738-5.4153 10.35603-3.61317 3.30938-5.56002 5.9382-5.85017 7.89942-.31949 2.15953-.47462 2.34245-.5847.68942zM49 59c0-.55.47656-1 1.05902-1 .58246 0 .7809.45.44098 1-.33992.55-.81648 1-1.05902 1C49.19844 60 49 59.55 49 59zm-2-4c0-1.82404.415-2.86155 1-2.5.55.33992 1 1.46492 1 2.5s-.45 2.16008-1 2.5c-.585.36155-1-.67595-1-2.5zm5.25 1.50417C50.32046 54.31258 50.68307 54 55.15499 54c4.09164 0 4.1274.03049 2.34501 2-2.11466 2.33668-3.51795 2.47144-5.25.50417zM49 49.44098c0-.85746.45-1.2809 1-.94098.55.33992 1 1.04148 1 1.55902C51 50.57656 50.55 51 50 51s-1-.70156-1-1.55902zM41 46c0-.55-1.8-1-4-1-2.88889 0-4-.41667-4-1.5 0-.825-.675-1.5-1.5-1.5s-1.5-.675-1.5-1.5-.675-1.5-1.5-1.5-1.5-.675-1.5-1.5-.675-1.5-1.5-1.5-1.44671-.3375-1.38158-.75C24.7527 31.23293 24.22555 31 14.5 31 6.72222 31 5 30.72807 5 29.5c0-.825-.675-1.5-1.5-1.5S2 27.325 2 26.5 1.55 25 1 25c-.59322 0-1-3.6923-1-9.07692 0-8.69906.12169-9.19861 2.92308-12L5.84615 1h42.25298L51.44 4.25c3.3139 3.22379 3.33972 3.32053 3.20043 11.99555C54.4455 28.386 52.5735 28.00371 52.2138 15.75c-.22787-7.76245-.5846-9.75-1.75-9.75C49.6587 6 49 5.325 49 4.5 49 3.21212 45.88889 3 27 3 8.86208 3 5 3.24454 5 4.39301c0 .76616-.675 1.65203-1.5 1.96862C1.29388 7.2082 1.29388 25 3.5 25c.825 0 1.5.675 1.5 1.5C5 27.74242 6.88889 28 16 28h11v3.46667c0 2.6348.84786 4.31453 3.53333 7C35.03627 42.9696 38 43.18129 38 39c0-2-.5-3-1.5-3-1.08333 0-1.5-1.11111-1.5-4v-4h7c5.55556 0 7-.30952 7-1.5 0-.825.675-1.5 1.5-1.5s1.5.675 1.5 1.5-.675 1.5-1.5 1.5-1.5.675-1.5 1.5c0 1.15152-1.27778 1.5-5.5 1.5-5.2 0-5.5.13636-5.5 2.5 0 1.55556.56667 2.5 1.5 2.5 1.11111 0 1.5 1.16667 1.5 4.5s.38889 4.5 1.5 4.5c.825 0 1.5.45 1.5 1s-.675 1-1.5 1-1.5-.45-1.5-1zm36.25-.49583c-1.64505-1.86845-1.57808-3.31894.23701-5.13404 1.31602-1.31602 1.78271-1.19132 4.05845 1.08441 2.27573 2.27574 2.40043 2.74243 1.08441 4.05845-1.8467 1.8467-3.74896 1.84357-5.37987-.0088zm4.75-1.0756C82 43.68631 79.31369 41 78.57143 41 78.25714 41 78 41.9 78 43c0 1.33333.66667 2 2 2 1.1 0 2-.25714 2-.57143zM59 43c0-1.1.45-2 1-2s1 .9 1 2-.45 2-1 2-1-.9-1-2zm4 0c0-1.1.45-2 1-2s1 .9 1 2-.45 2-1 2-1-.9-1-2zm-16-2.57143c0-1.10368 2.76876-3.32648 3.38095-2.71428C51.71627 39.04959 50.89653 41 49 41c-1.1 0-2-.25714-2-.57143zm4-5.48759c0-1.13246.45-1.7809 1-1.44098s1 1.26648 1 2.05902C53 36.35156 52.55 37 52 37s-1-.92656-1-2.05902zM80 36c0-.55.9-1 2-1s2 .45 2 1-.9 1-2 1-2-.45-2-1zm13 0c0-.55.9-1 2-1s2 .45 2 1-.9 1-2 1-2-.45-2-1zm13 0c0-.55.675-1 1.5-1s1.5.45 1.5 1-.675 1-1.5 1-1.5-.45-1.5-1zm-28-2c0-.55.47656-1 1.05902-1 .58246 0 .7809.45.44098 1-.33992.55-.81648 1-1.05902 1C78.19844 35 78 34.55 78 34zm7 0c0-.55 1.575-1 3.5-1s3.5.45 3.5 1-1.575 1-3.5 1-3.5-.45-3.5-1zm12.5 0c-.37325-.60393.98962-1 3.44098-1C103.17344 33 105 33.45 105 34s-1.54844 1-3.44098 1c-1.89254 0-3.7191-.45-4.05902-1zM76 32c0-.55.47656-1 1.05902-1 .58246 0 .7809.45.44098 1-.33992.55-.81648 1-1.05902 1C76.19844 33 76 32.55 76 32zm-15.25-4.7322c2.3375-.21054 6.1625-.21054 8.5 0 2.3375.21053.425.38279-4.25.38279s-6.5875-.17226-4.25-.3828zM9 15.5c0-4.6923.87798-5.55687 3.02094-2.97477 1.13448 1.36697 1.4407 1.36697 2.95118 0C17.55377 10.18887 18 10.62727 18 15.5c0 2.475-.45 4.5-1 4.5s-1-1.4051-1-3.12244c0-2.72923-.1985-2.95771-1.57621-1.8143-1.3063 1.08412-1.7318 1.06228-2.4847-.12756-.65378-1.03321-.91276-.52459-.92378 1.8143C11.0069 18.5375 10.55 20 10 20c-.55 0-1-2.025-1-4.5zm11 1.12244c0-4.06952 2.3718-6.50479 4.83382-4.96317C26.69815 12.82663 27.75302 20 26.06037 20 25.47716 20 25 19.1 25 18c0-1.11111-.66667-2-1.5-2s-1.5.88889-1.5 2c0 1.1-.45 2-1 2s-1-1.5199-1-3.37756zm4.72917-3.2266c-.3323-.3323-1.1948-.36783-1.91667-.07896-.79773.31923-.56078.55619.60417.60417 1.05416.04342 1.64479-.19293 1.3125-.52522zm4.46047 2.95544c.38374-4.51144 3.01047-6.57974 5.36543-4.22478 1.04749 1.04748 1.4481 2.75307 1.17041 4.98305-.37835 3.03847-.50194 3.15687-1.19046 1.14045C33.58317 15.46241 31 15.27973 31 18c0 1.1-.47716 2-1.06037 2-.61012 0-.92858-1.5493-.75-3.64872zm4.53953-2.95545c-.3323-.33229-1.1948-.36782-1.91667-.07895-.79773.31923-.56078.55619.60417.60417 1.05416.04342 1.64479-.19293 1.3125-.52522zM38 15.5c0-4.29078.13379-4.5 2.87756-4.5 1.58265 0 3.43752.67472 4.12193 1.49939 1.06433 1.28243.82883 1.44665-1.62755 1.13491-1.57957-.20046-2.08444-.16888-1.12194.07017C44.64817 14.30008 44.46304 16 42 16c-1.33333 0-2 .66667-2 2 0 1.1-.45 2-1 2s-1-2.025-1-4.5z"/><path fill="#305c9c" d="M70 84.32278c0-4.70587.45443-6.92007 1.66964-8.13528 1.2142-1.2142 1.7825-1.3311 2.08334-.42857.53942 1.61826 5.90769 1.61106 6.66369-.0089.46666-1 .7-1 1.16666 0 .32084.6875 1.89584 1.25 3.5 1.25C86.6875 77 88 77.45 88 78s-.9 1-2 1c-1.77143 0-2 .66667-2 5.83333v5.83334h-6.21627l.42194-5.83334C78.57618 79.71118 78.4065 79 76.81382 79c-1.54137 0-1.81392.86367-1.81452 5.75-.00066 5.42756-.14085 5.75809-2.5 5.89421C70.0764 90.78401 70 90.59078 70 84.32278zM74 82c0-2.75-.45-5-1-5s-1 2.25-1 5 .45 5 1 5 1-2.25 1-5zm8 0c0-2.75-.45-5-1-5s-1 2.25-1 5 .45 5 1 5 1-2.25 1-5zm18.00071 2.75C100.00032 81.5838 99.55064 79 99 79c-.55 0-1-.45-1-1s1.125-1 2.5-1 2.5-.45 2.5-1 1.575-1 3.5-1 3.5-.45 3.5-1 1.215-1 2.7-1c2.1 0 2.43333.26667 1.5 1.2-.72127.72127-1.20028 4.21202-1.20071 8.75-.00068 7.34743-.0678 7.55387-2.5 7.69421-2.45339.14157-2.49929.0084-2.49929-7.25C108 77.48825 107.69809 76 106.5 76s-1.5 1.48825-1.5 7.39421c0 7.2584-.0459 7.39157-2.49929 7.25-2.35915-.13612-2.49934-.46665-2.5-5.89421zM112 80.94098C112 77.647 111.55445 75 111 75c-.56503 0-1 2.853-1 6.55902 0 4.11803.37216 6.329 1 5.94098.55-.33992 1-3.29148 1-6.55902zM103 83c0-2.2-.45-4-1-4s-1 1.8-1 4 .45 4 1 4 1-1.8 1-4zm32 .5c0-1.31935 8.61111-1.5 71.5-1.5s71.5.18065 71.5 1.5-8.61111 1.5-71.5 1.5-71.5-.18065-71.5-1.5zm-44.25-8.20573c1.2375-.23836 3.2625-.23836 4.5 0 1.2375.23835.225.43337-2.25.43337s-3.4875-.19502-2.25-.43337zM64.232 69c0-1.925.2058-2.7125.45733-1.75.25152.9625.25152 2.5375 0 3.5-.25153.9625-.45733.175-.45733-1.75zM116 70.5c0-.825.45-1.5 1-1.5s1 .675 1 1.5-.45 1.5-1 1.5-1-.675-1-1.5zm101.31291-1.5431C213.12271 67.6665 210 63.5707 210 59.36514V56h5.43045c4.78922 0 5.46818.25362 5.75 2.14787.73399 4.93354 6.91294 4.88906 7.64631-.05504.44179-2.97834-1.46022-5.03776-6.82676-7.39173-9.96386-4.37052-12.82635-8.70494-11.51665-17.43866 1.24712-8.31636 8.41937-12.46836 18.57442-10.75268 5.56919.94091 8.95918 4.11437 9.90184 9.26937L239.73145 36h-5.14649c-4.80001 0-5.22272-.20197-6.27886-3-1.43479-3.8012-4.86255-4.06759-6.4862-.50406-1.52551 3.34812.72766 5.8085 8.83219 9.64443 3.38366 1.60151 6.86077 3.99341 7.72693 5.31534 4.14834 6.33116 2.53602 16.53521-3.13465 19.8385-3.78341 2.20391-13.30657 3.08695-17.93146 1.6627zM138 46V23h12.92291l1.12513 4.25c.61881 2.3375 2.40034 8.75 3.95895 14.25l2.83382 10 .0796-14.25L159 23h11v46h-12.76901l-4.03827-14.25-4.03827-14.25-.0772 14.25L149 69h-11zm34.99432 22.25c-.003-.4125 2.3582-10.7625 5.24739-23L183.49477 23H190.68c5.97317 0 7.27522.2952 7.71871 1.75C199.03494 26.83701 209 68.07565 209 68.62156c0 .20814-2.69468.37844-5.98818.37844h-5.98818l-.63963-4-.63963-4h-4.7652C185.92632 61 185 61.86476 185 66.58179 185 68.8707 184.67922 69 179 69c-3.3 0-6.00255-.3375-6.00568-.75zm20.95307-18c-.0824-2.74229-2.60116-16.2371-3.1291-16.76504-.26066-.26067-1.03071 3.1631-1.7112 7.60837-.68049 4.44528-1.48112 8.7178-1.77917 9.4945C186.92294 51.6432 187.69734 52 190.39301 52c2.7886 0 3.59505-.39706 3.55438-1.75zm49.04693 18c-.003-.4125 2.3582-10.7625 5.24739-23L253.49477 23H260.68c5.97317 0 7.27522.2952 7.71871 1.75C269.03494 26.83701 279 68.07565 279 68.62156c0 .20814-2.69468.37844-5.98818.37844h-5.98818l-.63963-4-.63963-4h-4.7652C255.92632 61 255 61.86476 255 66.58179 255 68.8707 254.67922 69 249 69c-3.3 0-6.00255-.3375-6.00568-.75zm20.95307-18c-.0824-2.74229-2.60116-16.2371-3.1291-16.76504-.26066-.26067-1.03071 3.1631-1.7112 7.60837-.68049 4.44528-1.48112 8.7178-1.77917 9.4945C256.92294 51.6432 257.69734 52 260.39301 52c2.7886 0 3.59505-.39706 3.55438-1.75zM281 46V23h7.98095c9.19562 0 7.90529-1.81171 10.89636 15.2992 1.03826 5.93955 2.08991 11.00135 2.337 11.24844.24708.24709 1.48431-5.62505 2.74938-13.0492L307.26383 23H324v46h-11l-.0976-17.25-.0976-17.25-3.15588 17-3.15588 17-4.11676.30116-4.11675.30115-2.70751-14.80115c-3.98662-21.7938-4.38397-22.02042-4.47307-2.55116L291 69h-10zm45.99432 22.25c-.003-.4125 2.3582-10.7625 5.24739-23L337.49477 23h14.42814l1.00019 3.75c.5501 2.0625 2.64685 10.725 4.65942 19.25 2.01258 8.525 3.99283 16.12076 4.40056 16.87946.61447 1.14341 7.10499-23.52223 9.63868-36.62946L372.25 23h7.30761c6.08973 0 7.39653.29165 7.8411 1.75C388.03494 26.83701 398 68.07565 398 68.62156c0 .20814-2.69468.37844-5.98818.37844h-5.98818l-.63963-4-.63963-4h-4.7652C374.92632 61 374 61.86476 374 66.58179 374 68.99907 373.9956 69 362.51182 69h-11.48818l-.63963-4-.63963-4h-4.7652C339.92632 61 339 61.86476 339 66.58179 339 68.8707 338.67922 69 333 69c-3.3 0-6.00255-.3375-6.00568-.75zm20.95307-18c-.0824-2.74229-2.60116-16.2371-3.1291-16.76504-.26066-.26067-1.03071 3.1631-1.7112 7.60837-.68049 4.44528-1.48112 8.7178-1.77917 9.4945C340.92294 51.6432 341.69734 52 344.39301 52c2.7886 0 3.59505-.39706 3.55438-1.75zm35 0c-.0824-2.74229-2.60116-16.2371-3.1291-16.76504-.26066-.26067-1.03071 3.1631-1.7112 7.60837-.68049 4.44528-1.48112 8.7178-1.77917 9.4945C375.92294 51.6432 376.69734 52 379.39301 52c2.7886 0 3.59505-.39706 3.55438-1.75zM401 46V23h9.53212c15.24862 0 19.65251 2.89887 20.21506 13.3066.53859 9.96432-3.19864 14.36845-13.05601 15.38582L412 52.27981V69h-11zm16.8-4.2c.66-.66 1.2-2.595 1.2-4.3 0-3.68408-1.55178-5.5-4.7-5.5-2.12121 0-2.3.42754-2.3 5.5s.17879 5.5 2.3 5.5c1.265 0 2.84-.54 3.5-1.2zM118 57c0-6.66667.39394-11 1-11s1 4.33333 1 11-.39394 11-1 11-1-4.33333-1-11zm-55.85017 7.25C62.01383 62.20755 61.49264 62 56.5 62c-3.025 0-5.5-.45-5.5-1s2.53472-1 5.6327-1c4.52719 0 6.00045-.424 7.50635-2.16032 1.0305-1.18818 2.16793-1.86604 2.52762-1.50635.35969.3597-.27926 1.46338-1.41988 2.45263-1.14063.98926-2.27035 3.12961-2.5105 4.75635-.31792 2.15357-.47736 2.34597-.58646.70769zM49 59c0-.55.47656-1 1.05902-1 .58246 0 .7809.45.44098 1-.33992.55-.81648 1-1.05902 1C49.19844 60 49 59.55 49 59zm3.25-2.49583C50.32046 54.31258 50.68307 54 55.15499 54c4.09164 0 4.1274.03049 2.34501 2-2.11466 2.33668-3.51795 2.47144-5.25.50417zM47 54.33333c0-3.0074.85156-2.70041 1.47394.53136C48.70011 56.03911 48.461 57 47.94258 57 47.42416 57 47 55.8 47 54.33333zm20.54026.73181C67.1782 54.47931 67.55053 54 68.36766 54s1.64175-.7875 1.83248-1.75c.22174-1.119.60025-1.34747 1.04974-.63365.38663.614-.14176 1.88081-1.17418 2.81515-1.23082 1.11387-2.1038 1.33204-2.53544.63364zM49 49.44098c0-.85746.45-1.2809 1-.94098.55.33992 1 1.04148 1 1.55902C51 50.57656 50.55 51 50 51s-1-.70156-1-1.55902zm23-4.35765c0-3.82857-.44115-6.07422-1.25-6.3631-.6875-.24553-.93393-.7866-.54762-1.20237.38631-.41578 1.39881-.05952 2.25.79166C74.20362 40.06076 74.67568 51 73 51c-.554 0-1-2.63889-1-5.91667zM41 46c0-.55-1.8-1-4-1-2.88889 0-4-.41667-4-1.5 0-.93333.94444-1.5 2.5-1.5 2.11111 0 2.5-.46667 2.5-3 0-2.05158-.4933-3-1.56037-3-1.1916 0-1.48701-.88625-1.25-3.75L35.5 28.5l6.29899-.29899C50.95999 27.76617 52 26.4203 52 15c0-7.33333-.27778-9-1.5-9-.825 0-1.5-.675-1.5-1.5C49 3.21212 45.88889 3 27 3S5 3.21212 5 4.5C5 5.325 4.55 6 4 6c-1.45434 0-1.22409-1.91877.42857-3.57143C5.5766 1.28054 10.01026 1 27.0055 1h21.14835l3.17307 3.17159c3.01031 3.0089 3.191 3.62446 3.52258 12C55.1492 23.74215 54.9711 25 53.5995 25 52.71977 25 52 25.675 52 26.5s-.675 1.5-1.5 1.5-1.5.675-1.5 1.5c0 1.15151-1.27778 1.5-5.5 1.5-5.13443 0-5.5.15906-5.5 2.39301 0 1.31616.675 2.65203 1.5 2.96862.9901.37993 1.5 1.94602 1.5 4.60699C41 43.18588 41.45 45 42 45s1 .45 1 1-.45 1-1 1-1-.45-1-1zm10 0c0-.55-.9-1-2-1s-2-.45-2-1 .71028-1 1.5784-1S51.88624 41.2 54 39c3.66517-3.81471 4.1275-4 9.98062-4 3.83696 0 5.90576.37482 5.51938 1-.33992.55-3.08693 1-6.10447 1-4.49178 0-5.93144.445-7.94099 2.45454-1.35 1.35-2.45454 3.6-2.45454 5S52.55 47 52 47s-1-.45-1-1zm26.25-.49583c-1.64505-1.86845-1.57808-3.31894.23701-5.13404 1.31602-1.31602 1.78271-1.19132 4.05845 1.08441 2.27573 2.27574 2.40043 2.74243 1.08441 4.05845-1.8467 1.8467-3.74896 1.84357-5.37987-.0088zm4.75-1.0756C82 43.68631 79.31369 41 78.57143 41 78.25714 41 78 41.9 78 43c0 1.33333.66667 2 2 2 1.1 0 2-.25714 2-.57143zM59 43c0-1.1.45-2 1-2s1 .9 1 2-.45 2-1 2-1-.9-1-2zm4 0c0-1.1.45-2 1-2s1 .9 1 2-.45 2-1 2-1-.9-1-2zm-33-2.5c0-.825-.675-1.5-1.5-1.5s-1.5-.675-1.5-1.5-.70156-1.5-1.55902-1.5c-.85746 0-1.306-.4094-.99675-.90976.30924-.50036.28765-1.62536-.04797-2.5C23.89836 31.29276 22.05676 31 14.393 31 6.71033 31 5 30.72687 5 29.5c0-.825-.45-1.5-1-1.5s-1-.675-1-1.5.45-1.5 1-1.5 1 .675 1 1.5C5 27.74242 6.88889 28 16 28h11v3.54775c0 2.49975.7385 4.23216 2.5 5.86467C32.06001 39.78496 32.78426 42 31 42c-.55 0-1-.675-1-1.5zm17-.07143c0-1.10368 2.76876-3.32648 3.38095-2.71428C51.71627 39.04959 50.89653 41 49 41c-1.1 0-2-.25714-2-.57143zm4-4.86955C51 34.70156 51.45 34 52 34s1 .42344 1 .94098c0 .51754-.45 1.2191-1 1.55902s-1-.08352-1-.94098zM80 36c0-.55.9-1 2-1s2 .45 2 1-.9 1-2 1-2-.45-2-1zm13 0c0-.55.9-1 2-1s2 .45 2 1-.9 1-2 1-2-.45-2-1zm13 0c0-.55.675-1 1.5-1s1.5.45 1.5 1-.675 1-1.5 1-1.5-.45-1.5-1zm-28-2c0-.55.47656-1 1.05902-1 .58246 0 .7809.45.44098 1-.33992.55-.81648 1-1.05902 1C78.19844 35 78 34.55 78 34zm7 0c0-.55 1.575-1 3.5-1s3.5.45 3.5 1-1.575 1-3.5 1-3.5-.45-3.5-1zm13 0c0-.55 1.575-1 3.5-1s3.5.45 3.5 1-1.575 1-3.5 1-3.5-.45-3.5-1zm-37.25-6.7322c2.3375-.21054 6.1625-.21054 8.5 0 2.3375.21053.425.38279-4.25.38279s-6.5875-.17226-4.25-.3828zM0 15.5C0 9.83333.4035 6 1 6s1 3.83333 1 9.5S1.5965 25 1 25s-1-3.83333-1-9.5zm9 .2c0-2.585.45-4.7 1-4.7 1.61615 0 1.54742 6.75221-.08601 8.45C9.35689 20.02904 9 18.56474 9 15.7zm7 1.3c0-1.65-.45-3-1-3s-1 .525-1 1.16667c0 .64166-.30475.86191-.67723.48944C12.6907 15.02402 16.2647 11 17.4582 11c.298 0 .54181 2.025.54181 4.5s-.45 4.5-1 4.5-1-1.35-1-3zm4-.24098C20 13.5868 20.19465 13.4 23.5 13.4s3.5.1868 3.5 3.35902c0 1.9847-.40914 3.10615-1 2.74098-.55-.33992-1-1.26648-1-2.05902C25 16.64844 24.325 16 23.5 16s-1.5.64844-1.5 1.44098c0 .79254-.45 1.7191-1 2.05902-.59086.36517-1-.75628-1-2.74098zm9-.08404c0-3.14714.1871-3.32102 3.49706-3.25 3.29848.07077 3.49722.26903 3.5 3.49169.0016 1.87917-.33456 3.07917-.74706 2.66667-.4125-.4125-.75-1.26884-.75-1.90298 0-.63413-.7875-1.30463-1.75-1.48999-1.21233-.23347-1.75.29999-1.75 1.7363C31 19.067 30.55 20 30 20s-1-1.49626-1-3.32503zM38 15.5c0-4.27055.14022-4.49409 2.75-4.384 1.6919.07137 2.07666.29196 1 .57333C39.61214 12.248 39.42259 14 41.5 14c.825 0 1.5.45 1.5 1s-.675 1-1.5 1c-.83333 0-1.5.88889-1.5 2 0 1.1-.45 2-1 2s-1-2.025-1-4.5zm-15.1875-4.18311c.72188-.28888 1.58438-.25335 1.91667.07895.33229.33229-.25834.56864-1.3125.52522-1.16495-.04798-1.4019-.28495-.60417-.60417zm9 0c.72188-.28888 1.58438-.25335 1.91667.07895.33229.33229-.25834.56864-1.3125.52522-1.16495-.04798-1.4019-.28495-.60417-.60417z"/><path fill="#0a3c90" d="M70 84.55102c0-4.91906.44269-7.13657 1.66964-8.36352 1.2142-1.2142 1.7825-1.3311 2.08334-.42857.53942 1.61826 5.90769 1.61106 6.66369-.0089.46666-1 .7-1 1.16666 0 .32084.6875 2.00834 1.25689 3.75 1.26531 2.31495.0112 2.77606.26241 1.71442.93402-.79874.50529-1.81124.69684-2.25.42567-.43876-.2712-.79775 2.5136-.79775 6.1884 0 5.63832-.22029 6.49864-1.41097 5.51046-.96456-.80051-1.61601-.83925-2.05902-.12245-1.42554 2.30658-2.03001.7583-2.03001-5.19962 0-4.8905-.32662-6.25182-1.5-6.25182-1.1282 0-1.62393 1.61111-2 6.5-.30944 4.02268-.81978 6.00509-1.33903 5.20144-.64623-1.00016-1.16325-1.02947-2.25-.12755C70.22024 91.0621 70 90.20003 70 84.55102zm4-2.61004C74 79.22344 73.55 77 73 77s-1 2.50156-1 5.55902c0 3.45136.37914 5.3247 1 4.94098.55-.33992 1-2.84148 1-5.55902zM82 82.5c0-3.025-.45-5.5-1-5.5s-1 2.475-1 5.5.45 5.5 1 5.5 1-2.475 1-5.5zm18 2.7c0-3.46667-.44086-6.2-1-6.2-.55 0-1-.45-1-1s1.09844-1 2.44098-1 2.7191-.45 3.05902-1c.33992-.55 1.94148-1 3.55902-1C108.67656 75 110 74.55 110 74s1.2375-.96447 2.75-.92105c1.5125.04342 2.1875.30592 1.5.58333-.86303.34824-1.25 3.14788-1.25 9.0435 0 6.97177-.24298 8.33745-1.32379 7.44046-.9667-.80229-1.64108-.78137-2.5.07756C108.2746 91.1254 108 89.60235 108 83.7c0-6.17778-.29654-7.7-1.5-7.7-1.20214 0-1.5 1.5136-1.5 7.62244 0 6.2112-.24509 7.41904-1.32379 6.5238-.9667-.80229-1.64108-.78137-2.5.07756C100.2746 91.1254 100 89.95254 100 85.2zm3-1.7c0-2.475-.45-4.5-1-4.5-1.10443 0-1.39528 7.27138-.33333 8.33333C102.84819 88.51486 103 88.0784 103 83.5zm9-2.55902C112 77.647 111.55445 75 111 75c-.56503 0-1 2.853-1 6.55902 0 4.11803.37216 6.329 1 5.94098.55-.33992 1-3.29148 1-6.55902zM135 83c0-.65734 24.5-1 71.5-1s71.5.34266 71.5 1-24.5 1-71.5 1-71.5-.34266-71.5-1zm-44.25-7.70573c1.2375-.23836 3.2625-.23836 4.5 0 1.2375.23835.225.43337-2.25.43337s-3.4875-.19502-2.25-.43337zM64.19495 69.5c.02038-1.65.2445-2.20394.49804-1.23097.25354.97297.23687 2.32297-.03705 3-.27393.67703-.48137-.11903-.461-1.76903zM116 70.5c0-.825.375-1.5.83333-1.5.45834 0 .83334.675.83334 1.5s-.375 1.5-.83334 1.5C116.375 72 116 71.325 116 70.5zm104.5-.93217c-.55-.21609-2.25146-.66933-3.78102-1.0072-3.27218-.7228-6.70978-5.77172-6.71524-9.86289-.004-2.75014.0931-2.79664 5.20562-2.5 4.62293.26823 5.27484.5837 5.791 2.80226C222.09293 63.69615 229 62.42911 229 57.53254c0-2.71681-1.98399-4.54198-8.5-7.81955-7.43491-3.73979-9.83928-6.75908-9.92702-12.46587-.0939-6.10836 1.98546-10.96742 5.4629-12.76567 7.5643-3.91165 17.7341-2.54668 21.00599 2.81938 1.07286 1.75954 1.95234 4.43667 1.95439 5.94917.004 2.62444-.21884 2.75-4.87126 2.75-4.61667 0-4.90679-.15897-5.475-3-.46688-2.3344-1.13305-3-3.00256-3-3.1771 0-5.02386 2.3641-4.25129 5.44225.44805 1.78519 2.60564 3.51834 7.79673 6.26298 8.98058 4.74824 11.21434 7.62006 11.11375 14.28832-.12774 8.46735-4.48577 12.84864-13.47917 13.55107-2.9301.22886-5.77746.2393-6.32746.02321zM138 46V23h12.7809l2.20386 8.25c1.21212 4.5375 3.02945 11.175 4.03852 14.75l1.83467 6.5.071-14.75L159 23h11v46h-12.70822l-3.82715-14c-2.10493-7.7-4.19558-14-4.64589-14S148 47.3 148 55v14h-10zm35.02594 22.25c.0143-.4125 2.38791-10.65 5.27475-22.75l5.2488-22 7.19536-.2932c6.79341-.27683 7.22484-.1651 7.7232 2 .29032 1.26126 2.54859 10.6182 5.01838 20.7932 2.4698 10.175 4.72929 19.5125 5.02111 20.75.50464 2.14007.24078 2.25-5.40059 2.25h-5.93115l-.68407-4.04892-.68406-4.04893-5.15383.29893L185.5 61.5l-.31037 3.75-.31036 3.75h-5.93964c-3.26679 0-5.92795-.3375-5.91369-.75zM194 50.44263c0-3.084-2.29773-15.96025-2.98694-16.7385-.38764-.43773-1.24544 2.48727-1.90622 6.5-.66078 4.01273-1.45392 8.30837-1.76254 9.54587-.50408 2.0213-.19435 2.25 3.04729 2.25C192.99148 52 194 51.56473 194 50.44263zM243.02594 68.25c.0143-.4125 2.38791-10.65 5.27475-22.75l5.2488-22 7.19536-.2932c6.79341-.27683 7.22484-.1651 7.7232 2 .29032 1.26126 2.54859 10.6182 5.01838 20.7932 2.4698 10.175 4.72929 19.5125 5.02111 20.75.50464 2.14007.24078 2.25-5.40059 2.25h-5.93115l-.68407-4.04892-.68406-4.04893-5.15383.29893L255.5 61.5l-.31037 3.75-.31036 3.75h-5.93964c-3.26679 0-5.92795-.3375-5.91369-.75zM264 50.44263c0-3.084-2.29773-15.96025-2.98694-16.7385-.38764-.43773-1.24544 2.48727-1.90622 6.5-.66078 4.01273-1.45392 8.30837-1.76254 9.54587-.50408 2.0213-.19435 2.25 3.04729 2.25C262.99148 52 264 51.56473 264 50.44263zM281 46V23h8c4.4 0 8.00243.1125 8.00539.25.0351 1.62836 4.87521 26.96393 5.21635 27.30507.25502.25503 1.52046-5.84054 2.81207-13.5457L307.3822 23H324v46H313.04723l-.27362-17.25L312.5 34.5l-2.8948 16c-1.59214 8.8-3.10278 16.5625-3.35699 17.25-.25654.69383-2.12099 1.25-4.19034 1.25h-3.72815l-2.83147-15.75c-1.55732-8.6625-3.19282-16.425-3.63446-17.25-.44163-.825-.81666 6.2625-.83338 15.75L291 69h-10zm46.02594 22.25c.0143-.4125 2.38791-10.65 5.27475-22.75l5.2488-22 7.14448-.29218c6.16352-.25206 7.21276-.0461 7.64174 1.5.27349.9857 2.6514 10.72255 5.28423 21.63744l4.78697 19.84525 3.28572-13.84525c1.80714-7.6149 4.09902-17.22026 5.09306-21.34526l1.80735-7.5 7.17358-.2932c6.77073-.27675 7.20323-.16443 7.70143 2 .29032 1.26126 2.54859 10.6182 5.01838 20.7932 2.4698 10.175 4.72929 19.5125 5.02111 20.75.50464 2.14007.24078 2.25-5.40059 2.25h-5.93115l-.68407-4.04892-.68406-4.04893-5.15383.29893L374.5 61.5l-.31037 3.75-.31036 3.75H351.1758l-.68407-4.04892-.68406-4.04893-5.15383.29893L339.5 61.5l-.31037 3.75-.31036 3.75h-5.93964c-3.26679 0-5.92795-.3375-5.91369-.75zM348 50.44263c0-3.084-2.29773-15.96025-2.98694-16.7385-.38764-.43773-1.24544 2.48727-1.90622 6.5-.66078 4.01273-1.45392 8.30837-1.76254 9.54587-.50408 2.0213-.19435 2.25 3.04729 2.25C346.99148 52 348 51.56473 348 50.44263zm35 0c0-3.084-2.29773-15.96025-2.98694-16.7385-.38764-.43773-1.24544 2.48727-1.90622 6.5-.66078 4.01273-1.45392 8.30837-1.76254 9.54587-.50408 2.0213-.19435 2.25 3.04729 2.25C381.99148 52 383 51.56473 383 50.44263zM401 46V23l9.75.0016c11.52787.0018 15.81314 1.62307 18.49845 6.99845 3.3343 6.67452 1.5674 15.92496-3.70115 19.37704-1.49905.98222-5.16045 2.03716-8.13643 2.34431L412 52.2798V69h-11zm18.03138-6c1.11336-4.56313-.31592-7.46582-3.8473-7.81336L412 31.87328v11.25344l3.2107-.31336c2.4687-.24094 3.35167-.89111 3.82068-2.81336zM118 57c0-6.66667.39394-11 1-11s1 4.33333 1 11-.39394 11-1 11-1-4.33333-1-11zm-55.85017 7.25c-.13382-2.00953-.6779-2.25-5.09081-2.25-2.71754 0-5.2191-.45-5.55902-1-.38569-.62405 1.6285-1 5.35765-1 3.87579 0 6.13256-.43926 6.42211-1.25.24554-.6875.8325-.88803 1.30437-.44563.47187.4424.34909 1.11887-.27286 1.50325-.62194.38439-1.32898 2.04742-1.5712 3.69563-.3146 2.14064-.48321 2.35397-.59024.74675zM49 59c0-.55.47656-1 1.05902-1 .58246 0 .7809.45.44098 1-.33992.55-.81648 1-1.05902 1C49.19844 60 49 59.55 49 59zm3.25-2.49583C50.32046 54.31258 50.68307 54 55.15499 54c4.09164 0 4.1274.03049 2.34501 2-2.11466 2.33668-3.51795 2.47144-5.25.50417zM65.5 57c-.33992-.55-.14148-1 .44098-1S67 56.45 67 57s-.19844 1-.44098 1c-.24254 0-.7191-.45-1.05902-1zM47 54.5c0-1.375.17254-2.5.38342-2.5.21088 0 .59848 1.125.86133 2.5.26285 1.375.09031 2.5-.38342 2.5S47 55.875 47 54.5zm2-5.05902c0-.85746.45-1.2809 1-.94098.55.33992 1 1.04148 1 1.55902C51 50.57656 50.55 51 50 51s-1-.70156-1-1.55902zm23-4.5c0-3.7847.37536-5.82703 1-5.44098.55.33992 1 3.06648 1 6.05902C74 48.55156 73.55 51 73 51c-.55664 0-1-2.68634-1-6.05902zM41 46c0-.55.45-1 1-1s1 .45 1 1-.45 1-1 1-1-.45-1-1zm10 0c0-.55-.9-1-2-1s-2-.45-2-1 .71028-1 1.5784-1S51.88624 41.2 54 39c3.58315-3.72934 4.22067-4 9.4216-4C66.48972 35 69 35.45 69 36s-2.49546 1-5.54545 1c-4.55444 0-5.9841.43865-8 2.45454-1.35 1.35-2.45455 3.6-2.45455 5S52.55 47 52 47s-1-.45-1-1zm26.25-.49583c-1.64802-1.87183-1.57771-3.31931.25-5.14703 1.33333-1.33333 1.6799-1.3201 3.11905.11905.89047.89048 1.27887 1.93512.8631 2.32143-.41578.3863-.95685.13988-1.20239-.54762C79.57481 40.27613 78 40.79421 78 43c0 2.25505 2.8671 2.7329 4.8.8.66-.66 1.2-.85286 1.2-.42857 0 1.26353-2.75576 3.63149-4.17857 3.59053-.72679-.02092-1.88393-.67692-2.57143-1.4578zm-43.09002-1.28418C32.0447 43.5149 32.9591 42 35.5 42c2 0 2.5-.5 2.5-2.5 0-1.55556.56667-2.5 1.5-2.5 1.03804 0 1.5 1.04295 1.5 3.3865 0 2.95587-.36114 3.4395-2.84002 3.80333-1.56201.22925-3.36201.24283-4 .03017zM59 43c0-1.1.45-2 1-2s1 .9 1 2-.45 2-1 2-1-.9-1-2zm4 0c0-1.1.45-2 1-2s1 .9 1 2-.45 2-1 2-1-.9-1-2zm-33-2.5c0-.825-.675-1.5-1.5-1.5s-1.5-.45-1.5-1c0-1.45434 1.91877-1.22409 3.57143.42857C32.22409 40.08123 32.45433 42 31 42c-.55 0-1-.675-1-1.5zm17-.07143c0-.31428.675-1.24643 1.5-2.07143 1.33333-1.33333 1.5-1.26984 1.5.57143C50 40.10317 49.35057 41 48.5 41c-.825 0-1.5-.25714-1.5-.57143zM81 36c0-.55.675-1 1.5-1s1.5.45 1.5 1-.675 1-1.5 1-1.5-.45-1.5-1zm12 0c0-.55.9-1 2-1s2 .45 2 1-.9 1-2 1-2-.45-2-1zm13 0c0-.55.675-1 1.5-1s1.5.45 1.5 1-.675 1-1.5 1-1.5-.45-1.5-1zm-81-2.46379c0-2.43035-.13233-2.46767-9.75-2.75-13.35046-.3919-12.64311-2.20982 1-2.57004L27 27.93234v4.03383C27 34.18477 26.55 36 26 36s-1-1.1087-1-2.46379zM36 32v-4h6.5c3.66667 0 6.5-.4359 6.5-1 0-.55.675-1 1.5-1s1.5.45 1.5 1-.675 1-1.5 1-1.5.675-1.5 1.5c0 1.15152-1.27778 1.5-5.5 1.5-5.2 0-5.5.13636-5.5 2.5 0 1.375-.45 2.5-1 2.5s-1-1.8-1-4zm50.76166 1.29274c1.24391-.2392 3.04391-.23011 4 .02018.95609.2503-.06166.446-2.26166.4349-2.2-.0111-2.98225-.21589-1.73834-.45508zm12.48834.01793c.9625-.25152 2.5375-.25152 3.5 0 .9625.25153.175.45733-1.75.45733s-2.7125-.2058-1.75-.45733zM3 27c0-.55.45-1 1-1s1 .45 1 1-.45 1-1 1-1-.45-1-1zm58.77643.2665c2.35204-.21124 5.95204-.20827 8 .0066 2.04796.21488.12357.38772-4.27643.38409-4.4-.00363-6.0756-.17944-3.72357-.39069zM0 15.5C0 9.83333.4035 6 1 6s1 3.83333 1 9.5S1.5965 25 1 25s-1-3.83333-1-9.5zm52 0c0-7.77778-.27193-9.5-1.5-9.5-.825 0-1.5-.45-1.5-1 0-1.45434 1.91877-1.22409 3.57143.42857C54.2684 7.12555 54.65982 25 53 25c-.5965 0-1-3.83333-1-9.5zm-43-.06343c0-4.06488.19918-4.51615 1.51233-3.42634 1.1428.94844 1.23763 1.58612.38813 2.60971-.61832.74503-.86852 2.02091-.55601 2.8353.31251.8144.13786 1.74668-.38812 2.07175C9.3999 19.87088 9 18.16037 9 15.43657zM16.80572 19c-1.2513-2.98926-1.54349-5.80627-.73753-7.11034 1.3521-2.18773 2.0793-.37894 1.7112 4.25626-.19018 2.39474-.62833 3.67908-.97367 2.85408zm3.25767-2.37244c-.05598-3.42023.12126-3.7192 1.51781-2.56017 1.24496 1.03322 1.98924 1.05746 3.5.11397C26.84224 13.08158 27 13.28522 27 16.6582c0 2.02133-.3375 3.33764-.75 2.92514-.4125-.4125-.75-1.26883-.75-1.90297 0-2.26383-3.49125-1.87441-4.44137.4954-.82178 2.04968-.93935 1.8668-.99524-1.5482zM29 16.55902c0-3.45523 1.36985-4.83886 2.28601-2.30902.36164.9986.88119.9969 2.58334-.0085 2.02622-1.1968 2.12398-1.07425 1.99447 2.5-.0841 2.32077-.30196 2.8978-.56955 1.5085C34.81212 15.74676 31 15.02857 31 17.44098c0 .79254-.45 1.7191-1 2.05902-.59512.3678-1-.82295-1-2.94098zM38 15c0-3.7251.189-3.99203 2.75-3.884 1.6919.07137 2.07666.29196 1 .57333C40.7875 11.94085 40 12.75566 40 13.5s.7875 1.55915 1.75 1.81067c1.66667.43555 1.66667.46285 0 .57333-.9625.0638-1.75.791-1.75 1.616 0 .825-.45 1.5-1 1.5s-1-1.8-1-4zm-15.1875-3.68311c.72188-.28888 1.58438-.25335 1.91667.07895.33229.33229-.25834.56864-1.3125.52522-1.16495-.04798-1.4019-.28495-.60417-.60417zm9 0c.72188-.28888 1.58438-.25335 1.91667.07895.33229.33229-.25834.56864-1.3125.52522-1.16495-.04798-1.4019-.28495-.60417-.60417zM3 5c0-.55.45-1 1-1s1 .45 1 1-.45 1-1 1-1-.45-1-1zm2-3c0-.63636 8-1 22-1s22 .36364 22 1-8 1-22 1S5 2.63636 5 2z"/><path fill="#00456d" d="M70 84.55102c0-4.91906.44269-7.13657 1.66964-8.36352 1.2142-1.2142 1.7825-1.3311 2.08334-.42857.53942 1.61826 5.90769 1.61106 6.66369-.0089.46666-1 .7-1 1.16666 0 .32084.6875 2.00834 1.25689 3.75 1.26531 2.31495.0112 2.77606.26241 1.71442.93402-.79874.50529-1.81124.69684-2.25.42567-.43876-.2712-.79775 2.5136-.79775 6.1884 0 5.63832-.22029 6.49864-1.41097 5.51046-.96456-.80051-1.61601-.83925-2.05902-.12245-1.42554 2.30658-2.03001.7583-2.03001-5.19962 0-4.8905-.32662-6.25182-1.5-6.25182-1.1282 0-1.62393 1.61111-2 6.5-.30944 4.02268-.81978 6.00509-1.33903 5.20144-.64623-1.00016-1.16325-1.02947-2.25-.12755C70.22024 91.0621 70 90.20003 70 84.55102zm4-2.61004C74 79.22344 73.55 77 73 77s-1 2.50156-1 5.55902c0 3.45136.37914 5.3247 1 4.94098.55-.33992 1-2.84148 1-5.55902zM82 82.5c0-3.025-.45-5.5-1-5.5s-1 2.475-1 5.5.45 5.5 1 5.5 1-2.475 1-5.5zm18 2.7c0-3.46667-.44086-6.2-1-6.2-.55 0-1-.45-1-1s1.09844-1 2.44098-1 2.7191-.45 3.05902-1c.33992-.55 1.94148-1 3.55902-1C108.67656 75 110 74.55 110 74s1.2375-.96447 2.75-.92105c1.5125.04342 2.1875.30592 1.5.58333-.86303.34824-1.25 3.14788-1.25 9.0435 0 6.97177-.24298 8.33745-1.32379 7.44046-.9667-.80229-1.64108-.78137-2.5.07756C108.2746 91.1254 108 89.60235 108 83.7c0-6.17778-.29654-7.7-1.5-7.7-1.20214 0-1.5 1.5136-1.5 7.62244 0 6.2112-.24509 7.41904-1.32379 6.5238-.9667-.80229-1.64108-.78137-2.5.07756C100.2746 91.1254 100 89.95254 100 85.2zm3-1.7c0-2.475-.45-4.5-1-4.5-1.10443 0-1.39528 7.27138-.33333 8.33333C102.84819 88.51486 103 88.0784 103 83.5zm9-2.55902C112 77.647 111.55445 75 111 75c-.56503 0-1 2.853-1 6.55902 0 4.11803.37216 6.329 1 5.94098.55-.33992 1-3.29148 1-6.55902zm-21.25-5.64671c1.2375-.23836 3.2625-.23836 4.5 0 1.2375.23835.225.43337-2.25.43337s-3.4875-.19502-2.25-.43337zM64.19495 69.5c.02038-1.65.2445-2.20394.49804-1.23097.25354.97297.23687 2.32297-.03705 3-.27393.67703-.48137-.11903-.461-1.76903zM116 70.5c0-.825.375-1.5.83333-1.5.45834 0 .83334.675.83334 1.5s-.375 1.5-.83334 1.5C116.375 72 116 71.325 116 70.5zM281 46V23h8c4.4 0 8.00243.1125 8.00539.25.0351 1.62836 4.87521 26.96393 5.21635 27.30507.25502.25503 1.52046-5.84054 2.81207-13.5457L307.3822 23H324v46H313.04723l-.27362-17.25L312.5 34.5l-2.8948 16c-1.59214 8.8-3.10278 16.5625-3.35699 17.25-.25654.69383-2.12099 1.25-4.19034 1.25h-3.72815l-2.83147-15.75c-1.55732-8.6625-3.19282-16.425-3.63446-17.25-.44163-.825-.81666 6.2625-.83338 15.75L291 69h-10zm46.02594 22.25c.0143-.4125 2.38791-10.65 5.27475-22.75l5.2488-22 7.14448-.29218c6.16352-.25206 7.21276-.0461 7.64174 1.5.27349.9857 2.6514 10.72255 5.28423 21.63744l4.78697 19.84525 3.28572-13.84525c1.80714-7.6149 4.09902-17.22026 5.09306-21.34526l1.80735-7.5 7.17358-.2932c6.77073-.27675 7.20323-.16443 7.70143 2 .29032 1.26126 2.54859 10.6182 5.01838 20.7932 2.4698 10.175 4.72929 19.5125 5.02111 20.75.50464 2.14007.24078 2.25-5.40059 2.25h-5.93115l-.68407-4.04892-.68406-4.04893-5.15383.29893L374.5 61.5l-.31037 3.75-.31036 3.75H351.1758l-.68407-4.04892-.68406-4.04893-5.15383.29893L339.5 61.5l-.31037 3.75-.31036 3.75h-5.93964c-3.26679 0-5.92795-.3375-5.91369-.75zM348 50.44263c0-3.084-2.29773-15.96025-2.98694-16.7385-.38764-.43773-1.24544 2.48727-1.90622 6.5-.66078 4.01273-1.45392 8.30837-1.76254 9.54587-.50408 2.0213-.19435 2.25 3.04729 2.25C346.99148 52 348 51.56473 348 50.44263zm35 0c0-3.084-2.29773-15.96025-2.98694-16.7385-.38764-.43773-1.24544 2.48727-1.90622 6.5-.66078 4.01273-1.45392 8.30837-1.76254 9.54587-.50408 2.0213-.19435 2.25 3.04729 2.25C381.99148 52 383 51.56473 383 50.44263zM401 46V23l9.75.0016c11.52787.0018 15.81314 1.62307 18.49845 6.99845 3.3343 6.67452 1.5674 15.92496-3.70115 19.37704-1.49905.98222-5.16045 2.03716-8.13643 2.34431L412 52.2798V69h-11zm18.03138-6c1.11336-4.56313-.31592-7.46582-3.8473-7.81336L412 31.87328v11.25344l3.2107-.31336c2.4687-.24094 3.35167-.89111 3.82068-2.81336zM118 57c0-6.66667.39394-11 1-11s1 4.33333 1 11-.39394 11-1 11-1-4.33333-1-11zm-55.85017 7.25c-.13382-2.00953-.6779-2.25-5.09081-2.25-2.71754 0-5.2191-.45-5.55902-1-.38569-.62405 1.6285-1 5.35765-1 3.87579 0 6.13256-.43926 6.42211-1.25.24554-.6875.8325-.88803 1.30437-.44563.47187.4424.34909 1.11887-.27286 1.50325-.62194.38439-1.32898 2.04742-1.5712 3.69563-.3146 2.14064-.48321 2.35397-.59024.74675zM49 59c0-.55.47656-1 1.05902-1 .58246 0 .7809.45.44098 1-.33992.55-.81648 1-1.05902 1C49.19844 60 49 59.55 49 59zm3.25-2.49583C50.32046 54.31258 50.68307 54 55.15499 54c4.09164 0 4.1274.03049 2.34501 2-2.11466 2.33668-3.51795 2.47144-5.25.50417zM65.5 57c-.33992-.55-.14148-1 .44098-1S67 56.45 67 57s-.19844 1-.44098 1c-.24254 0-.7191-.45-1.05902-1zM47 54.5c0-1.375.17254-2.5.38342-2.5.21088 0 .59848 1.125.86133 2.5.26285 1.375.09031 2.5-.38342 2.5S47 55.875 47 54.5zm2-5.05902c0-.85746.45-1.2809 1-.94098.55.33992 1 1.04148 1 1.55902C51 50.57656 50.55 51 50 51s-1-.70156-1-1.55902zm23-4.5c0-3.7847.37536-5.82703 1-5.44098.55.33992 1 3.06648 1 6.05902C74 48.55156 73.55 51 73 51c-.55664 0-1-2.68634-1-6.05902zM41 46c0-.55.45-1 1-1s1 .45 1 1-.45 1-1 1-1-.45-1-1zm10 0c0-.55-.9-1-2-1s-2-.45-2-1 .71028-1 1.5784-1S51.88624 41.2 54 39c3.58315-3.72934 4.22067-4 9.4216-4C66.48972 35 69 35.45 69 36s-2.49546 1-5.54545 1c-4.55444 0-5.9841.43865-8 2.45454-1.35 1.35-2.45455 3.6-2.45455 5S52.55 47 52 47s-1-.45-1-1zm26.25-.49583c-1.64802-1.87183-1.57771-3.31931.25-5.14703 1.33333-1.33333 1.6799-1.3201 3.11905.11905.89047.89048 1.27887 1.93512.8631 2.32143-.41578.3863-.95685.13988-1.20239-.54762C79.57481 40.27613 78 40.79421 78 43c0 2.25505 2.8671 2.7329 4.8.8.66-.66 1.2-.85286 1.2-.42857 0 1.26353-2.75576 3.63149-4.17857 3.59053-.72679-.02092-1.88393-.67692-2.57143-1.4578zm-43.09002-1.28418C32.0447 43.5149 32.9591 42 35.5 42c2 0 2.5-.5 2.5-2.5 0-1.55556.56667-2.5 1.5-2.5 1.03804 0 1.5 1.04295 1.5 3.3865 0 2.95587-.36114 3.4395-2.84002 3.80333-1.56201.22925-3.36201.24283-4 .03017zM59 43c0-1.1.45-2 1-2s1 .9 1 2-.45 2-1 2-1-.9-1-2zm4 0c0-1.1.45-2 1-2s1 .9 1 2-.45 2-1 2-1-.9-1-2zm-33-2.5c0-.825-.675-1.5-1.5-1.5s-1.5-.45-1.5-1c0-1.45434 1.91877-1.22409 3.57143.42857C32.22409 40.08123 32.45433 42 31 42c-.55 0-1-.675-1-1.5zm17-.07143c0-.31428.675-1.24643 1.5-2.07143 1.33333-1.33333 1.5-1.26984 1.5.57143C50 40.10317 49.35057 41 48.5 41c-.825 0-1.5-.25714-1.5-.57143zM81 36c0-.55.675-1 1.5-1s1.5.45 1.5 1-.675 1-1.5 1-1.5-.45-1.5-1zm12 0c0-.55.9-1 2-1s2 .45 2 1-.9 1-2 1-2-.45-2-1zm13 0c0-.55.675-1 1.5-1s1.5.45 1.5 1-.675 1-1.5 1-1.5-.45-1.5-1zm-81-2.46379c0-2.43035-.13233-2.46767-9.75-2.75-13.35046-.3919-12.64311-2.20982 1-2.57004L27 27.93234v4.03383C27 34.18477 26.55 36 26 36s-1-1.1087-1-2.46379zM36 32v-4h6.5c3.66667 0 6.5-.4359 6.5-1 0-.55.675-1 1.5-1s1.5.45 1.5 1-.675 1-1.5 1-1.5.675-1.5 1.5c0 1.15152-1.27778 1.5-5.5 1.5-5.2 0-5.5.13636-5.5 2.5 0 1.375-.45 2.5-1 2.5s-1-1.8-1-4zm50.76166 1.29274c1.24391-.2392 3.04391-.23011 4 .02018.95609.2503-.06166.446-2.26166.4349-2.2-.0111-2.98225-.21589-1.73834-.45508zm12.48834.01793c.9625-.25152 2.5375-.25152 3.5 0 .9625.25153.175.45733-1.75.45733s-2.7125-.2058-1.75-.45733zM3 27c0-.55.45-1 1-1s1 .45 1 1-.45 1-1 1-1-.45-1-1zm58.77643.2665c2.35204-.21124 5.95204-.20827 8 .0066 2.04796.21488.12357.38772-4.27643.38409-4.4-.00363-6.0756-.17944-3.72357-.39069zM0 15.5C0 9.83333.4035 6 1 6s1 3.83333 1 9.5S1.5965 25 1 25s-1-3.83333-1-9.5zm52 0c0-7.77778-.27193-9.5-1.5-9.5-.825 0-1.5-.45-1.5-1 0-1.45434 1.91877-1.22409 3.57143.42857C54.2684 7.12555 54.65982 25 53 25c-.5965 0-1-3.83333-1-9.5zm-43-.06343c0-4.06488.19918-4.51615 1.51233-3.42634 1.1428.94844 1.23763 1.58612.38813 2.60971-.61832.74503-.86852 2.02091-.55601 2.8353.31251.8144.13786 1.74668-.38812 2.07175C9.3999 19.87088 9 18.16037 9 15.43657zM16.80572 19c-1.2513-2.98926-1.54349-5.80627-.73753-7.11034 1.3521-2.18773 2.0793-.37894 1.7112 4.25626-.19018 2.39474-.62833 3.67908-.97367 2.85408zm3.25767-2.37244c-.05598-3.42023.12126-3.7192 1.51781-2.56017 1.24496 1.03322 1.98924 1.05746 3.5.11397C26.84224 13.08158 27 13.28522 27 16.6582c0 2.02133-.3375 3.33764-.75 2.92514-.4125-.4125-.75-1.26883-.75-1.90297 0-2.26383-3.49125-1.87441-4.44137.4954-.82178 2.04968-.93935 1.8668-.99524-1.5482zM29 16.55902c0-3.45523 1.36985-4.83886 2.28601-2.30902.36164.9986.88119.9969 2.58334-.0085 2.02622-1.1968 2.12398-1.07425 1.99447 2.5-.0841 2.32077-.30196 2.8978-.56955 1.5085C34.81212 15.74676 31 15.02857 31 17.44098c0 .79254-.45 1.7191-1 2.05902-.59512.3678-1-.82295-1-2.94098zM38 15c0-3.7251.189-3.99203 2.75-3.884 1.6919.07137 2.07666.29196 1 .57333C40.7875 11.94085 40 12.75566 40 13.5s.7875 1.55915 1.75 1.81067c1.66667.43555 1.66667.46285 0 .57333-.9625.0638-1.75.791-1.75 1.616 0 .825-.45 1.5-1 1.5s-1-1.8-1-4zm-15.1875-3.68311c.72188-.28888 1.58438-.25335 1.91667.07895.33229.33229-.25834.56864-1.3125.52522-1.16495-.04798-1.4019-.28495-.60417-.60417zm9 0c.72188-.28888 1.58438-.25335 1.91667.07895.33229.33229-.25834.56864-1.3125.52522-1.16495-.04798-1.4019-.28495-.60417-.60417zM3 5c0-.55.45-1 1-1s1 .45 1 1-.45 1-1 1-1-.45-1-1zm2-3c0-.63636 8-1 22-1s22 .36364 22 1-8 1-22 1S5 2.63636 5 2z"/><path fill="#141212" d="M70 84.55102c0-4.91906.44269-7.13657 1.66964-8.36352 1.2142-1.2142 1.7825-1.3311 2.08334-.42857.53942 1.61826 5.90769 1.61106 6.66369-.0089.46666-1 .7-1 1.16666 0 .32084.6875 2.00834 1.31128 3.75 1.38618 2.35323.1012 2.5887.2475.91667.56955-2.06034.39684-2.25.98574-2.25 6.98627 0 5.85223-.16853 6.41302-1.57621 5.24475-1.30476-1.08285-1.7261-1.06563-2.44651.10002-.56328.9114-.97736-.87162-1.17379-5.05426-.2449-5.21498-.6413-6.52678-2.05349-6.7958-1.5271-.2909-1.75195.53572-1.76531 6.48996-.01006 4.48262-.32696 6.33082-.92379 5.38763-.7529-1.18984-1.17839-1.21168-2.48469-.12755C70.16796 91.1055 70 90.5316 70 84.55102zm4-2.61004C74 79.22344 73.55 77 73 77s-1 2.50156-1 5.55902c0 3.45136.37914 5.3247 1 4.94098.55-.33992 1-2.84148 1-5.55902zM82 82.5c0-3.025-.45-5.5-1-5.5s-1 2.475-1 5.5.45 5.5 1 5.5 1-2.475 1-5.5zm18.01531 2.95c-.008-3.35178-.5505-6.58518-1.21531-7.25-.93333-.93333-.48889-1.2 2-1.2 1.76 0 3.2-.45 3.2-1s1.35-1 3-1 3-.45 3-1 1.2375-.96447 2.75-.92105c1.5125.04342 2.1875.30592 1.5.58333-.86303.34824-1.25 3.14788-1.25 9.0435 0 6.97177-.24298 8.33745-1.32379 7.44046-.9667-.80229-1.64108-.78137-2.5.07756C108.2746 91.1254 108 89.60235 108 83.7c0-6.17778-.29654-7.7-1.5-7.7-1.20214 0-1.5 1.5136-1.5 7.62244 0 6.82594-.16471 7.48575-1.57622 6.3143-1.30629-1.08412-1.73178-1.06228-2.48468.12756-.60347.9537-.91362-.59547-.92379-4.6143zM103 83.5c0-2.475-.45-4.5-1-4.5-1.10443 0-1.39528 7.27138-.33333 8.33333C102.84819 88.51486 103 88.0784 103 83.5zm9-2.55902C112 77.647 111.55445 75 111 75c-.56503 0-1 2.853-1 6.55902 0 4.11803.37216 6.329 1 5.94098.55-.33992 1-3.29148 1-6.55902zm-21.25-5.64671c1.2375-.23836 3.2625-.23836 4.5 0 1.2375.23835.225.43337-2.25.43337s-3.4875-.19502-2.25-.43337zM64.19495 69.5c.02038-1.65.2445-2.20394.49804-1.23097.25354.97297.23687 2.32297-.03705 3-.27393.67703-.48137-.11903-.461-1.76903zM116 70.5c0-.825.17686-1.5.39301-1.5.21616 0 .65203.675.96862 1.5.31658.825.13972 1.5-.39301 1.5-.53274 0-.96862-.675-.96862-1.5zm2.66667-3.16667C117.68788 66.35455 117.852 46 118.83868 46c.46127 0 .82967 4.95.81867 11-.011 6.05-.0884 11-.17201 11-.0836 0-.45201-.3-.81867-.66667zm-56.8289-4.02732c-.52128-1.84096-1.48341-2.25368-5.9795-2.56501L50.5 60.36997l6.16667-.18499c3.88343-.11649 6.33195-.6478 6.6131-1.43498.24553-.6875.8325-.88803 1.30436-.44563.47187.4424.35385 1.1174-.26227 1.5-.61613.3826-1.28732 1.82063-1.49155 3.19563-.35933 2.41927-.39138 2.42915-.99255.30601zM49 59c0-.55.47656-1 1.05902-1 .58246 0 .7809.45.44098 1-.33992.55-.81648 1-1.05902 1C49.19844 60 49 59.55 49 59zm3.25-2.49583C50.32046 54.31258 50.68307 54 55.15499 54c4.09164 0 4.1274.03049 2.34501 2-2.11466 2.33668-3.51795 2.47144-5.25.50417zM65.5 57c-.33992-.55-.14148-1 .44098-1S67 56.45 67 57s-.19844 1-.44098 1c-.24254 0-.7191-.45-1.05902-1zM47 54.5c0-1.375.17254-2.5.38342-2.5.21088 0 .59848 1.125.86133 2.5.26285 1.375.09031 2.5-.38342 2.5S47 55.875 47 54.5zm2-5.05902c0-.85746.45-1.2809 1-.94098.55.33992 1 1.04148 1 1.55902C51 50.57656 50.55 51 50 51s-1-.70156-1-1.55902zm23-4.60765c0-3.39166.27672-5.88994.61494-5.55172.89644.89644 1.02118 11.71986.13506 11.71907-.4125-.00038-.75-2.77568-.75-6.16735zM41 46c0-.55.45-1 1-1s1 .45 1 1-.45 1-1 1-1-.45-1-1zm9.59856-.60375c-.35137-.91567-1.25538-1.35818-2.10699-1.03139-.82036.3148-1.49157.1365-1.49157-.39625C47 43.43588 47.71028 43 48.5784 43S51.88624 41.2 54 39c3.58315-3.72934 4.22066-4 9.4216-4C66.48972 35 69 35.45 69 36s-2.49546 1-5.54545 1c-4.55444 0-5.9841.43865-8 2.45454-1.35 1.35-2.45455 3.6-2.45455 5 0 2.84174-1.4536 3.41175-2.40144.9417zm26.65144.10792c-1.57197-1.78545-1.53607-2.54242.23125-4.87616 1.32412-1.7485 1.52776-1.76185 3.08724-.20238.91828.91828 1.32943 1.98568.91365 2.37199-.41577.3863-.95684.13988-1.20238-.54762C79.55601 40.2235 78 40.82072 78 43.125c0 1.83674.41483 2.04203 3.05804 1.5134 2.706-.5412 2.8869-.44048 1.57142.875-1.8463 1.8463-3.74866 1.84304-5.37946-.0092zM59 43c0-1.1.45-2 1-2s1 .9 1 2-.45 2-1 2-1-.9-1-2zm4 0c0-1.1.45-2 1-2s1 .9 1 2-.45 2-1 2-1-.9-1-2zm-30 0c0-.55 1.125-1 2.5-1 2 0 2.5-.5 2.5-2.5 0-1.55556.56667-2.5 1.5-2.5 1.04762 0 1.5 1.05556 1.5 3.5 0 3.41667-.09524 3.5-4 3.5-2.2 0-4-.45-4-1zm-2.4573-1.9309c-.31643-.512-.11798-1.21355.44099-1.55902.55897-.34546 1.01631.07344 1.01631.9309 0 1.75653-.60006 2.01516-1.4573.62812zM47 39.94098c0-.58246.41594-.80195.92432-.48775.50837.31419 1.13117-.22175 1.384-1.19099.34981-1.34105.4874-1.22448.57568.48776.0714 1.38489-.46074 2.25-1.384 2.25-.825 0-1.5-.47656-1.5-1.05902zM27.5 38c-.33992-.55.11008-1 1-1s1.33992.45 1 1-.78992 1-1 1c-.21008 0-.66008-.45-1-1zM81 36c0-.55.675-1 1.5-1s1.5.45 1.5 1-.675 1-1.5 1-1.5-.45-1.5-1zm12.5 0c.33992-.55 1.04148-1 1.55902-1 .51754 0 .94098.45.94098 1s-.70156 1-1.55902 1c-.85746 0-1.2809-.45-.94098-1zm12.5 0c0-.55.70156-1 1.55902-1 .85746 0 1.2809.45.94098 1-.33992.55-1.04148 1-1.55902 1-.51754 0-.94098-.45-.94098-1zm-81-2.46379c0-2.43035-.13233-2.46767-9.75-2.75C2.03124 30.39817 2.8615 28.5 16.25 28.5H26.5l.31037 3.75c.17966 2.17079-.13618 3.75-.75 3.75C25.47716 36 25 34.8913 25 33.53621zM36 32v-4h6.5c3.66667 0 6.5-.4359 6.5-1 0-.55.675-1 1.5-1s1.5.45 1.5 1-.675 1-1.5 1-1.5.675-1.5 1.5c0 1.15152-1.27778 1.5-5.5 1.5-5.2 0-5.5.13636-5.5 2.5 0 1.375-.45 2.5-1 2.5s-1-1.8-1-4zm50.76166 1.29274c1.24391-.2392 3.04391-.23011 4 .02018.95609.2503-.06166.446-2.26166.4349-2.2-.0111-2.98225-.21589-1.73834-.45508zm12.48834.01793c.9625-.25152 2.5375-.25152 3.5 0 .9625.25153.175.45733-1.75.45733s-2.7125-.2058-1.75-.45733zM3 27c0-.55.45-1 1-1s1 .45 1 1-.45 1-1 1-1-.45-1-1zm58.77643.2665c2.35204-.21124 5.95204-.20827 8 .0066 2.04796.21488.12357.38772-4.27643.38409-4.4-.00363-6.0756-.17944-3.72357-.39069zM0 15.5C0 9.83333.4035 6 1 6s1 3.83333 1 9.5S1.5965 25 1 25s-1-3.83333-1-9.5zm52 .55902c0-4.91754.45-9.2191 1-9.55902.64003-.39556 1 2.82295 1 8.94098C54 21.147 53.59692 25 53 25c-.5921 0-1-3.647-1-8.94098zm-42.86382-.43147c-.11859-4.2431.05916-4.71032 1.37615-3.61732.96272.799 1.17925 1.66118.59582 2.37245C10.60407 14.9972 9.9848 16.625 9.732 18c-.26031 1.41586-.5187.38703-.59582-2.37245zm11 1c-.1204-3.42382.047-3.72041 1.44502-2.56016 1.24495 1.03322 1.98924 1.05746 3.5.11397 1.76684-1.1034 1.91378-.90066 1.85541 2.56017-.05497 3.25944-.18346 3.45973-.96777 1.50847-.50721-1.26187-1.76633-2.25-2.86707-2.25-1.24029 0-2.12217.82813-2.39604 2.25-.25872 1.34325-.48825.6894-.56955-1.62244zM35 17.93046c0-1.58125-.53088-1.98855-2.25-1.72626-1.2375.18881-2.1375.8951-2 1.56955C30.8875 18.44818 30.55 19 30 19s-1-1.35381-1-3.00847c0-2.71571.18673-2.89187 1.9188-1.81017 1.51076.94349 2.25504.91925 3.5-.11397C35.8109 12.91204 36 13.18831 36 16.37756 36 18.3699 35.775 20 35.5 20s-.5-.9313-.5-2.06955zm-19.18983-1.77047C15.32594 12.8607 15.78505 11 17.08333 11 17.5875 11 18 12.8 18 15c0 4.58196-1.56585 5.41141-2.18983 1.15998zM38 15c0-3.7251.189-3.99203 2.75-3.884 1.6919.07137 2.07666.29196 1 .57333C40.7875 11.94085 40 12.75566 40 13.5s.7875 1.55915 1.75 1.81067c1.66667.43555 1.66667.46285 0 .57333-.9625.0638-1.75.791-1.75 1.616 0 .825-.45 1.5-1 1.5s-1-1.8-1-4zm-15.1875-3.68311c.72188-.28888 1.58438-.25335 1.91667.07895.33229.33229-.25834.56864-1.3125.52522-1.16495-.04798-1.4019-.28495-.60417-.60417zm9 0c.72188-.28888 1.58438-.25335 1.91667.07895.33229.33229-.25834.56864-1.3125.52522-1.16495-.04798-1.4019-.28495-.60417-.60417zM3 5c0-.55.45-1 1-1s1 .45 1 1-.45 1-1 1-1-.45-1-1zm46 0c0-.55.70156-1 1.55902-1 .85746 0 1.2809.45.94098 1-.33992.55-1.04148 1-1.55902 1C49.42344 6 49 5.55 49 5zM5.5 2c-.40489-.65512 6.98962-1 21.44098-1C40.98033 1 49 1.36356 49 2 49 3.36039 6.34077 3.36039 5.5 2z"/></svg>