<svg xmlns="http://www.w3.org/2000/svg" role="img" viewBox="-2.35 -2.35 122.07 16.20"><title>mapme.biodiversity logo</title><g transform="translate(-1.084 9.117)"><path d="M10.63477 0H9.5332v-3.72656q0-.42188-.04101-.81446-.03516-.39257-.1582-.62695-.13477-.25195-.38672-.38086-.25196-.1289-.72657-.1289-.46289 0-.92578.23437-.46289.22852-.92578.58594.01758.13476.0293.3164.01172.17579.01172.35157V0H5.30859v-3.72656q0-.4336-.04101-.82031-.03516-.39258-.1582-.62696-.13477-.25195-.38672-.375-.25196-.1289-.72657-.1289-.45117 0-.9082.22265-.45117.22266-.90234.56836V0H1.08398v-6.54492h1.10157v.72656q.51562-.42773 1.02539-.66797.51562-.24023 1.0957-.24023.66797 0 1.13086.28125.46875.28125.69727.7793.66796-.5625 1.21875-.8086.55078-.25195 1.17773-.25195 1.07813 0 1.5879.65625.51562.65039.51562 1.82226z"/><path d="M17.8418 0h-1.0957v-.69727q-.1465.09961-.39844.28125-.2461.17579-.48047.28125-.2754.13477-.63282.22266-.35742.09375-.83789.09375-.88476 0-1.5-.58594-.61523-.58593-.61523-1.49414 0-.74414.3164-1.20117.32227-.46289.91407-.72656.59766-.26367 1.43555-.35742.83789-.09375 1.79882-.14063v-.16992q0-.375-.13476-.6211-.1289-.24609-.375-.38671-.23438-.13477-.5625-.18164-.32813-.04688-.68555-.04688-.4336 0-.9668.11719-.5332.11133-1.10156.32812h-.05859V-6.4043q.32227-.08789.93164-.19336.60938-.10547 1.20118-.10547.6914 0 1.20117.1172.51562.11132.89062.38671.36914.26953.5625.69727.19336.42773.19336 1.06054zm-1.0957-1.61133v-1.82226q-.50391.0293-1.18946.08789-.67969.0586-1.07812.16992-.47461.13476-.76758.42187-.29297.28125-.29297.7793 0 .5625.33984.84961.33985.28125 1.03711.28125.58008 0 1.06055-.22266.48047-.22851.89062-.54492z"/><path d="M25.72266-3.35156q0 .79687-.22852 1.45898-.22852.65625-.64453 1.11328-.38672.4336-.91406.67383-.52149.23438-1.10743.23438-.50976 0-.92578-.11133-.41015-.11133-.83789-.3457v2.74218H19.9629v-8.95898h1.10156v.68554q.43946-.36914.98438-.61523.55078-.25195 1.17187-.25195 1.1836 0 1.83985.89648.6621.89063.6621 2.47852zm-1.13672.0293q0-1.1836-.4043-1.76954-.4043-.58593-1.24219-.58593-.4746 0-.95507.20507-.48047.20508-.91993.53907v3.70898q.46875.21094.80274.28711.33984.07617.76758.07617.91992 0 1.43554-.6211.51563-.62109.51563-1.83984z"/><path d="M36.99023 0h-1.10156v-3.72656q0-.42188-.04102-.81446-.03516-.39257-.1582-.62695-.13477-.25195-.38672-.38086-.25195-.1289-.72656-.1289-.4629 0-.92578.23437-.4629.22852-.92579.58594.01758.13476.0293.3164.01172.17579.01172.35157V0h-1.10156v-3.72656q0-.4336-.04102-.82031-.03516-.39258-.1582-.62696-.13477-.25195-.38672-.375-.25195-.1289-.72656-.1289-.45117 0-.9082.22265-.45118.22266-.90235.56836V0h-1.10156v-6.54492H28.541v.72656q.51563-.42773 1.0254-.66797.51562-.24023 1.0957-.24023.66796 0 1.13085.28125.46875.28125.69727.7793.66797-.5625 1.21875-.8086.55078-.25195 1.17773-.25195 1.07813 0 1.5879.65625.51562.65039.51562 1.82226z"/><path d="M44.58984-3.1582h-4.82226q0 .60351.18164 1.05468.18164.44532.49805.73243.30468.28125.7207.42187.42187.14063.92578.14063.66797 0 1.3418-.26368.67968-.26953.9668-.52734h.05858v1.20117q-.55664.23438-1.13671.39258-.58008.1582-1.21875.1582-1.62891 0-2.54297-.8789-.91407-.88477-.91407-2.50782 0-1.60546.87305-2.54882.8789-.94336 2.3086-.94336 1.32421 0 2.03906.77344.7207.77343.7207 2.19726zm-1.07226-.84375q-.0059-.8672-.43946-1.3418-.42773-.4746-1.30664-.4746-.88476 0-1.4121.52147-.52149.52149-.5918 1.29493z"/><path d="M48.0586 0h-1.4004v-1.66992h1.4004z"/><path d="M56.38477-3.32227q0 .82032-.23438 1.47657-.22852.65625-.6211 1.10156-.416.46289-.91406.69726-.49804.22852-1.0957.22852-.55664 0-.97266-.13477-.41601-.1289-.8203-.35156L51.65624 0H50.625v-9.11719h1.10156v3.25782q.4629-.38086.98438-.6211.52148-.2461 1.17187-.2461 1.16016 0 1.82813.89063.67383.89063.67383 2.51367zm-1.13672.0293q0-1.17187-.38672-1.77539-.38672-.60937-1.24805-.60937-.48047 0-.97266.21093-.49218.20508-.91406.5332v3.75q.46875.21094.80274.29298.33984.08203.76758.08203.91406 0 1.42968-.59766.52149-.60352.52149-1.88672z"/><path d="M59.28516-7.64063h-1.2422V-8.7832h1.2422zM59.21484 0h-1.10156v-6.54492h1.10156z"/><path d="M66.97266-3.26953q0 1.5996-.82032 2.52539-.8203.92578-2.19726.92578-1.38867 0-2.20899-.92578-.81445-.92578-.81445-2.5254 0-1.5996.81445-2.52538.82032-.93164 2.20899-.93164 1.37695 0 2.19726.93164.82032.92578.82032 2.52539zm-1.13672 0q0-1.27149-.49805-1.88672-.49805-.6211-1.38281-.6211-.89649 0-1.39453.6211-.4922.61523-.4922 1.88672 0 1.23047.49806 1.86914.49804.63281 1.38867.63281.8789 0 1.37695-.62695.5039-.63281.5039-1.875z"/><path d="M73.98633 0h-1.10156v-.68555q-.47461.41016-.99024.63867-.51562.22852-1.11914.22852-1.17187 0-1.86328-.90234-.68555-.90235-.68555-2.50196 0-.83203.23438-1.48242.24023-.65039.64453-1.10742.39844-.44531.92578-.67969.5332-.23437 1.10156-.23437.51563 0 .91406.11133.39844.10546.8379.33398v-2.83594h1.10156zm-1.10156-1.61133v-3.75586q-.44532-.19922-.79688-.27539-.35156-.07617-.76758-.07617-.92578 0-1.4414.64453-.51563.64453-.51563 1.82813 0 1.16601.39844 1.77539.39844.60351 1.27734.60351.46875 0 .94922-.20508.48047-.21093.89649-.53906z"/><path d="M77.3379-7.64063h-1.2422V-8.7832h1.2422zM77.26757 0h-1.10156v-6.54492h1.10156z"/><path d="M85.10742-6.54492L82.45898 0h-1.10742L78.7207-6.54492h1.19532l2.02734 5.20898 2.00977-5.20898z"/><path d="M91.92188-3.1582H87.0996q0 .60351.18164 1.05468.18164.44532.49805.73243.30468.28125.7207.42187.42188.14063.92578.14063.66797 0 1.3418-.26368.67969-.26953.9668-.52734h.05858v1.20117q-.55664.23438-1.13671.39258-.58008.1582-1.21875.1582-1.62891 0-2.54297-.8789-.91407-.88477-.91407-2.50782 0-1.60546.87305-2.54882.8789-.94336 2.3086-.94336 1.32421 0 2.03906.77344.7207.77343.7207 2.19726zm-1.07227-.84375q-.0059-.8672-.43945-1.3418-.42774-.4746-1.30664-.4746-.88477 0-1.41211.52147-.52149.52149-.5918 1.29493z"/><path d="M97.67578-5.34375h-.05859q-.2461-.0586-.48047-.08203-.22851-.0293-.54492-.0293-.50977 0-.98437.22852-.47461.22265-.91407.58008V0H93.5918v-6.54492h1.10156v.9668q.65625-.52735 1.1543-.74415.5039-.22265 1.0254-.22265.2871 0 .416.01758.12891.01172.38672.05273z"/><path d="M103.38867-1.88672q0 .89649-.74414 1.4707-.73828.57422-2.02148.57422-.72657 0-1.33594-.16992-.60352-.17578-1.01367-.38086V-1.6289h.05859q.52148.39258 1.16015.62696.63868.22851 1.22462.22851.72656 0 1.13672-.23437.41015-.23438.41015-.73828 0-.38672-.22265-.58594-.22266-.19922-.85547-.33984-.23438-.05274-.61524-.12305-.375-.07031-.68555-.15235-.86133-.22851-1.2246-.66796-.35743-.44532-.35743-1.08985 0-.4043.16406-.76172.16992-.35742.50977-.63867.32812-.27539.83203-.4336.50977-.16405 1.13672-.16405.58594 0 1.1836.14648.60351.14062 1.00195.3457v1.17774h-.0586q-.42188-.31055-1.02539-.52149-.60352-.2168-1.1836-.2168-.60351 0-1.01953.23438-.41602.22852-.41602.68555 0 .4043.25195.60937.2461.20508.79688.33399.30469.0703.67969.14062.38086.07031.63281.1289.76758.17579 1.1836.60352.41601.4336.41601 1.14844z"/><path d="M106.14844-7.64063h-1.24219V-8.7832h1.24219zM106.07813 0h-1.10157v-6.54492h1.10157z"/><path d="M111.65625-.0586q-.31055.08204-.67969.13477-.36328.05274-.65039.05274-1.00195 0-1.52344-.53907-.52148-.53906-.52148-1.72851v-3.48047h-.74414v-.92578h.74414v-1.88086h1.10156v1.88086h2.27344v.92578h-2.27344v2.98242q0 .51563.0234.8086.0234.2871.16406.53906.12891.23437.35157.3457.22851.10547.6914.10547.26953 0 .5625-.07617.29297-.08203.42188-.13477h.0586z"/><path d="M118.58789-6.54492l-3.82031 8.95898h-1.17774l1.21875-2.73047-2.60742-6.22851h1.19531l2.00977 4.85156 2.02734-4.85156z"/></g></svg>