<svg xmlns="http://www.w3.org/2000/svg" role="img" viewBox="-1.02 -0.96 49.79 10.60"><title>MARIDA logo</title><g transform="translate(-1.172 8.725)"><path d="M8.9414 0H7.78126v-7.51758L5.35547-2.40234h-.6914L2.25585-7.51758V0H1.17187v-8.7246h1.58204L5.08008-3.8672l2.25-4.85742H8.9414z"/><path d="M18.16406 0h-1.23633l-.85546-2.43164h-3.77344L11.44336 0h-1.17774l3.17579-8.7246h1.54687zm-2.44922-3.42773l-1.5293-4.2832-1.53515 4.2832z"/><path d="M26.70703 0h-1.50586L22.2832-3.46875h-1.63476V0h-1.16016v-8.7246h2.44336q.79102 0 1.31836.10546.52734.0996.94922.36328.4746.29883.73828.75586.26953.45117.26953 1.14844 0 .94336-.4746 1.58203-.47462.63281-1.30665.95508zm-2.71289-6.26953q0-.375-.13477-.66211-.1289-.29297-.43359-.49219-.25195-.16992-.59765-.23437-.3457-.07032-.81446-.07032h-1.36523v3.29297h1.17187q.55078 0 .96094-.09375.41016-.0996.69727-.36328.26367-.2461.38671-.5625.12891-.32226.12891-.81445z"/><path d="M30.9082 0h-3.4453v-.89063h1.14257v-6.94335h-1.14258v-.89063h3.44531v.89063h-1.14258v6.94336h1.14258z"/><path d="M40.2539-4.35352q0 1.18946-.52148 2.15625-.51562.9668-1.37695 1.5-.59766.36914-1.33594.5332Q36.28711 0 35.08593 0h-2.20312v-8.7246h2.17969q1.27734 0 2.02734.1875.75586.18163 1.27735.5039.89062.55664 1.38867 1.48242.49805.92578.49805 2.19726zm-1.21288-.01757q0-1.0254-.35743-1.72852-.35742-.70312-1.0664-1.10742-.51563-.29297-1.0957-.4043-.58008-.11719-1.38868-.11719h-1.08984v6.73243h1.08984q.8379 0 1.45899-.12305.62695-.12305 1.14843-.45703.6504-.41602.97266-1.0957.32813-.6797.32813-1.69922z"/><path d="M49.00781 0h-1.23633l-.85546-2.43164h-3.77344L42.2871 0h-1.17773l3.17578-8.7246h1.54687zM46.5586-3.42773l-1.5293-4.2832-1.53515 4.2832z"/></g></svg>