<svg xmlns="http://www.w3.org/2000/svg" role="img" viewBox="-2.94 -2.94 230.62 100.12"><title>MESSAGEix logo</title><path fill="#00599D" d="M83.6 61.6H85v1.6h-1.4v-1.6zm29.2 1.6h1.4v-1.6h-1.4v1.6zm16.1 0h1.4v-1.6h-1.4v1.6zm-66.7-7.1l-1.4 6.1-1.4-6.1H58l-1.4 6.1-1.4-6.1h-1.3l1.9 7.3h1.4l1.4-6.2 1.5 6.2h1.4l1.9-7.3h-1.2zm10 0l-1.4 6.1-1.4-6.1H68l-1.4 6.1-1.4-6.1h-1.3l1.9 7.3h1.4l1.4-6.2 1.5 6.2h1.4l1.9-7.3h-1.2zm9.9 0l-1.4 6.1-1.4-6.1h-1.4l-1.4 6.1-1.5-6.1h-1.3l1.9 7.3H77l1.4-6.2 1.5 6.2h1.4l1.9-7.3h-1.1zm5 0h1.2v7.3h-1.2v-7.3zm0-3h1.3v1.4h-1.3v-1.4zm3.3 3h1.2v7.3h-1.2v-7.3zm0-3h1.3v1.4h-1.3v-1.4zm3.7 4.6c.4-.5 1.1-.8 1.9-.8.5 0 1 .1 1.2.5.2.3.3.6.3 1.2v.3h-.7c-2.5 0-3.4 1-3.4 2.5 0 1.4.9 2.1 2.1 2.1 1.1 0 1.7-.5 2-1.1l.1 1h1.1c0-.3-.1-.7-.1-1.1v-3.8c0-1-.3-1.5-.6-1.8-.2-.2-.9-.7-2-.7-.7 0-1.5.2-2.1.6l.2 1.1zm3.3 3c0 1-.7 1.8-1.7 1.8-.8 0-1.2-.5-1.2-1.3s.7-1.5 2.1-1.5h.8v1zm2.6 2.4c.5.3 1.2.4 2 .4 1.7 0 2.3-1 2.3-2.3 0-.9-.6-1.5-1.4-1.9l-.4-.2c-.8-.3-1.2-.6-1.2-1.2s.4-1 1.2-1c.5 0 1.1.1 1.4.3l.1-1c-.4-.2-.9-.3-1.5-.3-1.4 0-2.4.9-2.4 2.1 0 .9.4 1.4 1.4 1.9l.8.4c.7.3.9.6.9 1.1 0 .6-.5 1-1.4 1-.6 0-1.2-.2-1.7-.5l-.1 1.2zm6.3-5.4c.4-.5 1.1-.8 1.9-.8.5 0 1 .1 1.2.5.2.3.3.6.3 1.2v.3h-.7c-2.5 0-3.4 1-3.4 2.5 0 1.4.9 2.1 2.1 2.1 1.1 0 1.7-.5 2.1-1.1l.1 1h1.1c0-.3-.1-.7-.1-1.1v-3.8c0-1-.3-1.5-.6-1.8-.2-.2-.9-.7-1.9-.7-.7 0-1.5.2-2.1.6v1.1zm3.3 3c0 1-.7 1.8-1.7 1.8-.8 0-1.2-.5-1.2-1.3s.7-1.5 2.1-1.5h.8v1zm7-3c.4-.5 1.1-.8 1.9-.8.5 0 1 .1 1.2.5.2.3.3.6.3 1.2v.3h-.7c-2.5 0-3.4 1-3.4 2.5 0 1.4.9 2.1 2.1 2.1 1.1 0 1.7-.5 2.1-1.1l.1 1h1.1c0-.3-.1-.7-.1-1.1v-3.8c0-1-.3-1.5-.6-1.8-.2-.2-.9-.7-2-.7-.7 0-1.5.2-2.1.6l.1 1.1zm3.4 3c0 1-.7 1.8-1.7 1.8-.8 0-1.2-.5-1.2-1.3s.7-1.5 2.1-1.5h.8v1zm7.4-4.4c-.4-.2-.9-.3-1.4-.3-2 0-3.3 1.5-3.3 3.8 0 2.1 1.1 3.7 3.2 3.7.5 0 1.2-.2 1.5-.3l-.1-1.1c-.4.2-.9.4-1.5.4-1.2 0-2-1-2-2.7 0-2 .8-2.8 2-2.8.6 0 1 .1 1.4.3l.2-1zm5.3 1.4c.4-.5 1.1-.8 1.9-.8.5 0 1 .1 1.2.5.2.3.3.6.3 1.2v.3h-.7c-2.5 0-3.4 1-3.4 2.5 0 1.4.9 2.1 2.1 2.1 1.1 0 1.7-.5 2-1.1l.1 1h1.1c0-.3-.1-.7-.1-1.1v-3.8c0-1-.3-1.5-.6-1.8-.2-.2-.9-.7-1.9-.7-.7 0-1.5.2-2.1.6l.1 1.1zm3.4 3c0 1-.7 1.8-1.7 1.8-.8 0-1.2-.5-1.2-1.3s.7-1.5 2.1-1.5h.8v1zm6.2 1.6c-.2.1-.4.2-.7.2-.5 0-.8-.3-.8-1.1v-4.3h1.5v-1h-1.5v-1.8l-1.2.4v1.5h-1.2v1h1.2v4.7c0 1.3.6 1.7 1.7 1.7.3 0 .7-.1 1-.2v-1.1zM54.9 23.1h1.5V11h-1.5v12.1zm4 0h1.5v-5.3c0-1.6.7-2.4 1.9-2.4.9 0 1.5.6 1.5 2v5.7h1.5V17c0-1.9-1-2.8-2.6-2.8-1 0-1.8.4-2.2 1.4l-.1-1.3H59c0 .6.1 1.3.1 1.9v6.9zm12.5-1.3c-.3.1-.5.2-.9.2-.7 0-.9-.4-.9-1.4v-5.2h1.8v-1.2h-1.8V12l-1.5.4v1.8h-1.4v1.2h1.4v5.7c0 1.6.7 2.1 2 2.1.4 0 .9-.1 1.2-.2v-1.2zm7.5-2.7v-.8c0-2.6-1.1-4.2-3.1-4.2-2.2 0-3.4 1.8-3.4 4.5 0 2.8 1.2 4.5 3.6 4.5.9 0 1.8-.2 2.5-.5l-.1-1.3c-.5.4-1.3.7-2 .7-1.6 0-2.4-1-2.4-3h4.9zm-5-1.1c0-2.1.9-2.8 1.8-2.8 1.2 0 1.7.9 1.7 2.8h-3.5zm6.8 5.1h1.5v-4.7c0-1.9.8-2.9 1.9-2.9.2 0 .4 0 .6.1v-1.4c-1.3 0-2 .4-2.5 1.5l-.2-1.4h-1.4c0 .6.1 1.3.1 1.9v6.9zm5.3 0h1.5v-5.3c0-1.6.7-2.4 1.9-2.4.9 0 1.5.6 1.5 2v5.7h1.5V17c0-1.9-1-2.8-2.6-2.8-1 0-1.8.4-2.2 1.4l-.1-1.3h-1.4c0 .6.1 1.3.1 1.9v6.9zm9-6.9c.5-.6 1.4-.9 2.3-.9.6 0 1.2.2 1.5.6.3.4.3.8.3 1.4v.4h-.9c-3 0-4.2 1.3-4.2 3s1.1 2.6 2.5 2.6 2.1-.6 2.5-1.3l.1 1.2h1.3c0-.3-.1-.8-.1-1.4v-4.6c0-1.2-.4-1.8-.8-2.2-.3-.3-1.1-.8-2.4-.8-.9 0-1.8.3-2.5.7l.4 1.3zm4.1 3.7c0 1.2-.8 2.2-2.1 2.2-1 0-1.5-.6-1.5-1.5 0-1 .8-1.8 2.5-1.8h1v1.1zm7.5 1.9c-.3.1-.5.2-.9.2-.7 0-.9-.4-.9-1.4v-5.2h1.8v-1.2h-1.8V12l-1.5.4v1.8h-1.4v1.2h1.4v5.7c0 1.6.7 2.1 2 2.1.4 0 .9-.1 1.2-.2v-1.2zm3.1-11.2h-1.6v1.7h1.6v-1.7zm-1.5 12.5h1.5v-8.9h-1.5v8.9zm7-9c-2.3 0-3.6 1.8-3.6 4.5 0 2.8 1.2 4.5 3.6 4.5 2.3 0 3.6-1.8 3.6-4.5-.1-2.7-1.3-4.5-3.6-4.5m0 8c-1.4 0-2-1.1-2-3.4s.6-3.4 2-3.4 2 1.1 2 3.4-.6 3.4-2 3.4m5.4 1h1.5v-5.3c0-1.6.7-2.4 1.9-2.4.9 0 1.5.6 1.5 2v5.7h1.5V17c0-1.9-1-2.8-2.6-2.8-1 0-1.8.4-2.2 1.4l-.1-1.3h-1.4c0 .6.1 1.3.1 1.9v6.9zm9-6.9c.5-.6 1.4-.9 2.3-.9.6 0 1.2.2 1.5.6.3.4.3.8.3 1.4v.4h-.9c-3 0-4.2 1.3-4.2 3s1.1 2.6 2.5 2.6 2.1-.6 2.5-1.3l.1 1.2h1.3c0-.3-.1-.8-.1-1.4v-4.6c0-1.2-.4-1.8-.8-2.2-.3-.3-1.1-.8-2.4-.8-.9 0-1.8.3-2.5.7l.4 1.3zm4.1 3.7c0 1.2-.8 2.2-2.1 2.2-1 0-1.5-.6-1.5-1.5 0-1 .8-1.8 2.5-1.8h1v1.1zm3.8 3.2h1.5v-13h-1.5v13zm8.4 0h1.5V11h-1.5v12.1zm4.1 0h1.5v-5.3c0-1.6.7-2.4 1.9-2.4.9 0 1.5.6 1.5 2v5.7h1.5V17c0-1.9-1-2.8-2.6-2.8-1 0-1.8.4-2.2 1.4l-.1-1.3H150c0 .6.1 1.3.1 1.9v6.9zm8.1-.4c.6.3 1.5.5 2.4.5 2 0 2.8-1.2 2.8-2.7 0-1.1-.7-1.8-1.8-2.3l-.5-.2c-1-.4-1.5-.8-1.5-1.5s.5-1.2 1.5-1.2c.7 0 1.3.2 1.7.4l.1-1.2c-.5-.2-1.1-.3-1.9-.3-1.7 0-2.8 1.1-2.8 2.6 0 1.1.5 1.7 1.7 2.3l1 .4c.8.4 1.1.8 1.1 1.4 0 .7-.6 1.2-1.7 1.2-.7 0-1.4-.3-2.1-.7v1.3zm11-.9c-.3.1-.5.2-.9.2-.7 0-.9-.4-.9-1.4v-5.2h1.8v-1.2h-1.8V12l-1.5.4v1.8h-1.4v1.2h1.4v5.7c0 1.6.7 2.1 2 2.1.4 0 .9-.1 1.2-.2v-1.2zm3-11.2h-1.6v1.7h1.6v-1.7zm-1.5 12.5h1.5v-8.9h-1.5v8.9zm7.8-1.3c-.3.1-.5.2-.9.2-.7 0-.9-.4-.9-1.4v-5.2h1.8v-1.2h-1.8V12l-1.5.4v1.8h-1.4v1.2h1.4v5.7c0 1.6.7 2.1 2 2.1.4 0 .9-.1 1.2-.2v-1.2zm7.7-7.5h-1.5v5.3c0 1.6-.7 2.4-1.9 2.4-.9 0-1.5-.6-1.5-2v-5.7h-1.5v6.1c0 1.9 1 2.8 2.6 2.8 1 0 1.8-.4 2.2-1.4l.1 1.3h1.4c0-.6-.1-1.3-.1-1.9v-6.9zm6.1 7.5c-.3.1-.5.2-.9.2-.7 0-.9-.4-.9-1.4v-5.2h1.8v-1.2h-1.8V12l-1.5.4v1.8h-1.4v1.2h1.4v5.7c0 1.6.7 2.1 2 2.1.4 0 .9-.1 1.2-.2v-1.2zm7.5-2.7v-.8c0-2.6-1.1-4.2-3.1-4.2-2.2 0-3.4 1.8-3.4 4.5 0 2.8 1.2 4.5 3.6 4.5.9 0 1.8-.2 2.5-.5l-.1-1.3c-.5.4-1.3.7-2 .7-1.6 0-2.4-1-2.4-3h4.9zm-5-1.1c0-2.1.9-2.8 1.8-2.8 1.2 0 1.7.9 1.7 2.8h-3.5zm11.8 5.1h1.5v-7.7h1.6v-1.2H208v-1.9c0-.9.2-1.3 1.1-1.3.3 0 .7.1.8.2V10c-.3-.1-.7-.1-1.1-.1-1.5 0-2.2 1-2.2 2.4v2h-1.4v1.2h1.4v7.6zm7.5-9c-2.3 0-3.6 1.8-3.6 4.5 0 2.8 1.2 4.5 3.6 4.5 2.3 0 3.6-1.8 3.6-4.5-.1-2.7-1.3-4.5-3.6-4.5m0 8c-1.4 0-2-1.1-2-3.4s.6-3.4 2-3.4 2 1.1 2 3.4-.6 3.4-2 3.4m5.4 1h1.5v-4.7c0-1.9.8-2.9 1.9-2.9.2 0 .4 0 .6.1v-1.4c-1.3 0-2 .4-2.5 1.5l-.1-1.4h-1.4c0 .6.1 1.3.1 1.9v6.9zM57.9 29.7l-4.1 12.1h1.5l1-3.2H61l1 3.2h1.6l-4-12.1h-1.7zm-1.1 7.6l1.9-6 1.9 6h-3.8zm8 8.2h1.5v-5c.6.9 1.2 1.3 2.3 1.3 1.8 0 3.1-1.5 3.1-4.5 0-3.1-1.2-4.5-3.1-4.5-1.3 0-1.9.7-2.3 1.4l-.1-1.3h-1.4c0 .5.1 1.1.1 1.6v11zm3.4-4.8c-1.3 0-1.9-1.1-1.9-3.4 0-2.2.6-3.4 1.9-3.4 1.3 0 1.9 1.1 1.9 3.4s-.6 3.4-1.9 3.4m5.1 4.8h1.5v-5c.6.9 1.2 1.3 2.3 1.3 1.8 0 3.1-1.5 3.1-4.5 0-3.1-1.2-4.5-3.1-4.5-1.3 0-1.9.7-2.3 1.4l-.1-1.3h-1.4c0 .5.1 1.1.1 1.6v11zm3.4-4.8c-1.3 0-1.9-1.1-1.9-3.4 0-2.2.6-3.4 1.9-3.4 1.3 0 1.9 1.1 1.9 3.4s-.6 3.4-1.9 3.4m5.4 1.1h1.5v-13h-1.5v13zm5.5-12.5H86V31h1.6v-1.7zm-1.5 12.5h1.5v-8.9h-1.5v8.9zm10-4V37c0-2.6-1.1-4.2-3.1-4.2-2.2 0-3.4 1.8-3.4 4.5 0 2.8 1.2 4.5 3.6 4.5.9 0 1.8-.2 2.5-.5l-.1-1.3c-.5.4-1.3.7-2 .7-1.6 0-2.4-1-2.4-3h4.9zm-5-1.1c0-2.1.9-2.8 1.8-2.8 1.2 0 1.7.9 1.7 2.8h-3.5zm13.1-7.9h-1.5v5.4c-.6-.9-1.3-1.3-2.3-1.3-1.8 0-3.1 1.5-3.1 4.5 0 3.1 1.2 4.5 3.1 4.5 1.3 0 1.9-.7 2.3-1.4v1.3h1.4c0-.5-.1-1.1-.1-1.6V28.8zm-3.4 5.2c1.3 0 1.9 1.1 1.9 3.4s-.6 3.4-1.9 3.4c-1.3 0-1.9-1.1-1.9-3.4s.6-3.4 1.9-3.4m15.2-4c-.5-.2-1.4-.4-2.2-.4-1.8 0-3.4 1-3.4 3 0 1.6.5 2.3 2.7 3.6 1.6 1 1.9 1.5 1.9 2.5s-.8 1.9-2.2 1.9c-.7 0-1.6-.4-2.3-.8v1.6c.6.3 1.6.5 2.5.5 2.3 0 3.5-1.5 3.5-3.4 0-1.4-.6-2.4-2.5-3.5-1.7-1-2-1.5-2-2.3 0-1 .7-1.8 1.9-1.8.7 0 1.5.2 2.1.6V30zm8.4 2.9H123l-1.8 7.2-2-7.2h-1.5l2.8 9-.3 1.4c-.2.9-.6 1.1-1 1.1-.3 0-.6-.1-.8-.2l-.1 1.3c.3.1.6.1 1 .1 1.1 0 1.7-.5 2.2-2l2.9-10.7zm.9 8.5c.6.3 1.5.5 2.4.5 2 0 2.8-1.2 2.8-2.7 0-1.1-.7-1.8-1.8-2.3l-.5-.2c-1-.4-1.5-.8-1.5-1.5s.5-1.2 1.5-1.2c.7 0 1.3.2 1.7.4l.1-1.2c-.5-.2-1.1-.3-1.9-.3-1.7 0-2.8 1.1-2.8 2.6 0 1.1.5 1.7 1.7 2.3l1 .4c.8.4 1.1.8 1.1 1.4 0 .7-.6 1.2-1.7 1.2-.7 0-1.4-.3-2.1-.7v1.3zm11-.9c-.3.1-.5.2-.9.2-.7 0-.9-.4-.9-1.4v-5.2h1.8v-1.2h-1.8v-2.2l-1.5.4v1.8h-1.4v1.2h1.4v5.7c0 1.6.7 2.1 2 2.1.4 0 .9-.1 1.2-.2v-1.2zm7.5-2.7V37c0-2.6-1.1-4.2-3.1-4.2-2.2 0-3.4 1.8-3.4 4.5 0 2.8 1.2 4.5 3.6 4.5.9 0 1.8-.2 2.5-.5l-.1-1.3c-.5.4-1.3.7-2 .7-1.6 0-2.4-1-2.4-3h4.9zm-5-1.1c0-2.1.9-2.8 1.8-2.8 1.2 0 1.7.9 1.7 2.8h-3.5zm6.8 5.1h1.5v-5.5c0-1.6.6-2.3 1.7-2.3.9 0 1.4.5 1.4 1.6v6.1h1.5v-5.5c0-1.6.6-2.3 1.7-2.3.9 0 1.4.5 1.4 1.6v6.1h1.5v-6.1c0-1.9-1-2.8-2.6-2.8-1 0-1.7.5-2.2 1.4-.5-.9-1.1-1.4-2.1-1.4s-1.7.4-2.2 1.4l-.1-1.3h-1.4c0 .6.1 1.3.1 1.9v7.1zm12.2-.4c.6.3 1.5.5 2.4.5 2 0 2.8-1.2 2.8-2.7 0-1.1-.7-1.8-1.8-2.3l-.5-.2c-1-.4-1.5-.8-1.5-1.5s.5-1.2 1.5-1.2c.7 0 1.3.2 1.7.4l.1-1.2c-.5-.2-1.1-.3-1.9-.3-1.7 0-2.8 1.1-2.8 2.6 0 1.1.5 1.7 1.7 2.3l1 .4c.8.4 1.1.8 1.1 1.4 0 .7-.6 1.2-1.7 1.2-.7 0-1.4-.3-2.1-.7v1.3zm13.6-11.7l-4.1 12.1h1.5l1-3.2h4.6l1 3.2h1.6l-4-12.1h-1.6zm-1.1 7.6l1.9-6 1.9 6h-3.8zm8.1 4.5h1.5v-5.3c0-1.6.7-2.4 1.9-2.4.9 0 1.5.6 1.5 2v5.7h1.5v-6.1c0-1.9-1-2.8-2.6-2.8-1 0-1.8.4-2.2 1.4l-.1-1.3h-1.4c0 .6.1 1.3.1 1.9v6.9zm9-6.9c.5-.6 1.4-.9 2.3-.9.6 0 1.2.2 1.5.6.3.4.3.8.3 1.4v.4h-.9c-3 0-4.2 1.3-4.2 3s1.1 2.6 2.6 2.6c1.4 0 2.1-.6 2.5-1.3l.1 1.2h1.3c0-.3-.1-.8-.1-1.4v-4.6c0-1.2-.4-1.8-.8-2.2-.3-.3-1.1-.8-2.4-.8-.9 0-1.8.3-2.5.7l.3 1.3zm4.1 3.7c0 1.2-.8 2.2-2.1 2.2-1 0-1.5-.6-1.5-1.5 0-1 .8-1.8 2.5-1.8h1v1.1zm3.8 3.2h1.5v-13h-1.5v13zm9.7-8.9h-1.5l-1.8 7.2-2-7.2h-1.5l2.8 9-.3 1.4c-.2.9-.6 1.1-1 1.1-.3 0-.6-.1-.8-.2l-.1 1.3c.3.1.6.1 1 .1 1.1 0 1.7-.5 2.2-2l3-10.7zm.9 8.5c.6.3 1.5.5 2.4.5 2 0 2.8-1.2 2.8-2.7 0-1.1-.7-1.8-1.8-2.3l-.5-.2c-1-.4-1.5-.8-1.5-1.5s.5-1.2 1.5-1.2c.7 0 1.3.2 1.7.4l.1-1.2c-.5-.2-1.1-.3-1.9-.3-1.7 0-2.8 1.1-2.8 2.6 0 1.1.5 1.7 1.7 2.3l1 .4c.8.4 1.1.8 1.1 1.4 0 .7-.6 1.2-1.7 1.2-.7 0-1.4-.3-2.1-.7v1.3zm8.7-12.1H213V31h1.6v-1.7zm-1.5 12.5h1.5v-8.9h-1.5v8.9zm3.4-.4c.6.3 1.5.5 2.4.5 2 0 2.8-1.2 2.8-2.7 0-1.1-.7-1.8-1.8-2.3l-.5-.2c-1-.4-1.5-.8-1.5-1.5s.5-1.2 1.5-1.2c.7 0 1.3.2 1.7.4l.1-1.2c-.5-.2-1.1-.3-1.9-.3-1.7 0-2.8 1.1-2.8 2.6 0 1.1.5 1.7 1.7 2.3l1 .4c.8.4 1.1.8 1.1 1.4 0 .7-.6 1.2-1.7 1.2-.7 0-1.4-.3-2.1-.7v1.3zM26.7 8.9c6.8 0 12.6 3.8 15.6 9.4H11.1c3-5.6 8.9-9.4 15.6-9.4m17.6 17c0-1.3-.2-2.6-.5-3.8l-32.6-3.8c-1.3 2.5-2 5.3-2 8.2 0 1.5.2 3 .6 4.4l16.2 2v-7h18.3zm-33.2 8.9c2.9 5.4 8.4 9.1 14.9 9.4v-9.4H11.1zm31.2 0c1.2-2.3 1.9-4.8 2-7.5H27.4v5.8l14.9 1.7zm0 0H27.4v9.4c6.5-.3 12.1-4 14.9-9.4M2.9 2.7h41.4V1.5H1.7v43.6h1.2V2.7zM1.7 63.3H3V51.2H1.7v12.1zm10.1 0H13V51.2h-1.2v12.1zm8.2 0h1.2l.4-2.7h1.8l.3 2.7h1.2l-1.8-12.2h-1.3L20 63.3zm1.8-4.1l.7-5.1.7 5.1h-1.4zm9.1 3.8c.4.3.8.5 1.2.5 1.2 0 2-1.1 2-2.8 0-2.6-2.1-5.2-2.1-7.1 0-.8.3-1.2.9-1.2.3 0 .5.1.9.4v-1.5c-.4-.2-.7-.3-1-.3-1.2 0-2 1.1-2 2.8 0 2.5 2.1 5.2 2.1 7.1 0 .7-.4 1.2-.9 1.2-.4 0-.7-.3-1.1-.7V63zm9.2.3h1.2l.4-2.7h1.8l.3 2.7H45l-1.8-12.2h-1.3l-1.8 12.2zm1.8-4.1l.7-5.1.7 5.1h-1.4z"/><path d="M37.61334 69.51972L33.5073 87.4151l-4.1368-17.89537h-6.9166v22.75676h4.43102V76.88427c0-.44354-.0044-1.06274-.01757-1.862-.00878-.79486-.01317-1.40967-.01317-1.84443l4.27732 19.09864h4.61547l4.30806-19.09864c0 .43476-.0044 1.04957-.01757 1.84443-.00878.79926-.01317 1.41846-.01317 1.862v15.3922h4.43102V69.51973zm28.08365 4.0314v-4.0314h-16.6877v22.75676H66.2547v-4.08849H53.65549v-5.85387h11.0534l.00001-3.95235H53.6555v-4.83065zm-8.22967-4.0314zm15.93236 15.73475h-4.53642c0 2.36702.84756 4.22462 2.54707 5.5772 1.6995 1.35698 4.027 2.03327 6.99127 2.03327 2.90278 0 5.15123-.68947 6.74095-2.064 1.58972-1.37016 2.38458-3.1004 2.38458-5.17759 0-2.02887-.67629-3.57907-2.03765-4.6462-.87391-.68947-2.1694-1.2428-3.89087-1.6512l-3.92161-.94418c-1.51068-.3601-2.49876-.6719-2.96426-.93978-.72021-.40402-1.08031-1.01005-1.08031-1.82247 0-.88709.3645-1.57655 1.09787-2.0684.729-.49624 1.7083-.74216 2.93352-.74216 1.10227 0 2.0201.18883 2.76226.5709 1.11105.57528 1.7083 1.5502 1.79173 2.91595h4.56716c-.07905-2.41533-.96613-4.25976-2.66125-5.5333-1.69512-1.26914-3.73717-1.9059-6.13492-1.9059-2.87205 0-5.05023.6719-6.53456 2.02009-1.47993 1.35258-2.2221 3.0433-2.2221 5.08096 0 2.23528.76852 3.8777 2.30115 4.92726.90465.62799 2.54268 1.20767 4.9097 1.74343l2.40654.54016c1.41406.3074 2.44607.66311 3.10479 1.06713.65873.4084.98809.99248.98809 1.74342 0 1.28671-.66312 2.16501-1.98935 2.6393-.70264.24592-1.61168.36888-2.7359.36888-1.87079 0-3.19263-.4655-3.96553-1.40528-.42158-.5138-.70703-1.2911-.85195-2.3275zm4.61986-16.4286zm16.47251 16.4286h-4.5408c0 2.36702.85194 4.22462 2.54706 5.5772 1.69951 1.35698 4.0314 2.03327 6.99566 2.03327 2.90278 0 5.14684-.68947 6.73656-2.064 1.59412-1.37016 2.38898-3.1004 2.38898-5.17759 0-2.02887-.68068-3.57907-2.03766-4.6462-.8783-.68947-2.1738-1.2428-3.89087-1.6512l-3.9216-.94418c-1.51507-.3601-2.50316-.6719-2.96427-.93978-.7202-.40402-1.0803-1.01005-1.0803-1.82247 0-.88709.36449-1.57655 1.09348-2.0684.73338-.49624 1.70829-.74216 2.93352-.74216 1.10226 0 2.02448.18883 2.76225.5709 1.11544.57528 1.7083 1.5502 1.79173 2.91595h4.57155c-.08343-2.41533-.97052-4.25976-2.66564-5.5333-1.69072-1.26914-3.73716-1.9059-6.13492-1.9059-2.87204 0-5.05023.6719-6.53016 2.02009-1.48433 1.35258-2.2221 3.0433-2.2221 5.08096 0 2.23528.76412 3.8777 2.29675 4.92726.90904.62799 2.54268 1.20767 4.9097 1.74343l2.41093.54016c1.40968.3074 2.44168.66311 3.1004 1.06713.65873.4084.98809.99248.98809 1.74342 0 1.28671-.66312 2.16501-1.98935 2.6393-.69825.24592-1.61168.36888-2.73151.36888-1.87517 0-3.19701-.4655-3.96992-1.40528-.42158-.5138-.70264-1.2911-.84756-2.3275zm4.61547-16.4286zm19.25234 14.85205l2.93352-8.95427 2.8413 8.95427zm.29423-14.1582l-8.11989 22.75676h4.97118l1.57216-4.67695h8.38337l1.46676 4.67695h5.15562l-8.0584-22.75676zm2.65246 0zm28.96634 7.10106h4.67694c-.2591-2.19136-1.26475-4.02262-3.01696-5.48938-1.7566-1.46237-4.0797-2.19575-6.9737-2.19575-3.33315 0-6.01635 1.11105-8.04084 3.33315-2.02887 2.2221-3.0433 5.17758-3.0433 8.86205 0 3.64494 1.00565 6.5126 3.01256 8.61612 1.92348 2.08596 4.3915 3.13114 7.40846 3.13114 1.83126 0 3.37707-.38645 4.63304-1.15496.72899-.44354 1.55459-1.20767 2.46802-2.28797l.47867 2.8413h3.1531V80.0637h-9.48125v3.79865h5.26541c-.23714 1.49311-.86513 2.70077-1.88395 3.62299-1.01883.91782-2.3275 1.37893-3.92161 1.37893-1.62486 0-3.07844-.57968-4.35637-1.74343-1.27354-1.16374-1.9103-3.1443-1.9103-5.94609 0-2.77542.58846-4.857 1.76538-6.2447 1.17692-1.38333 2.6832-2.07719 4.51446-2.07719.95735 0 1.82687.17127 2.61294.5138 1.3965.61482 2.2792 1.69952 2.6393 3.2541zm-5.3269-7.68513zm31.44754 4.61547v-4.0314h-16.6877v22.75676h17.24542v-4.0885l-12.59922.00001v-5.85387h11.05341v-3.95235h-11.0534v-4.83065zm-8.22967-4.0314zm16.66135 3.92161V69.3792h-4.46177v4.06213zm-4.46177 2.00692v16.82823h4.46177V75.44825zm7.07032 16.82823h5.34006l2.92035-5.04584 2.90278 5.04584h5.4806l-5.74409-8.59856 5.5245-8.19893h-5.23027l-2.74908 4.87896-2.81056-4.87896h-5.38837l5.49816 8.27798z"/></svg>