<svg xmlns="http://www.w3.org/2000/svg" role="img" viewBox="7.66 0.16 615.68 204.18"><title>MetPy logo</title><path fill="#c8d1da" d="M91 191.07733c-28.69536-6.42922-52.70565-26.37647-64.16593-53.30774-13.91373-32.69677-6.18154-73.47905 18.63711-98.29869C74.99355 9.94736 119.68948 3.7113 155.628 24.10161c10.73263 6.08934 24.38194 19.34195 31.27436 30.36543C196.79564 70.29 201.73012 89.2972 200.67031 107.5c-2.26304 38.86858-27.74341 70.87158-65.37372 82.10855-12.09992 3.61321-31.80867 4.26671-44.29659 1.46878zM224.45907 151.75c-.26299-.6875-.36137-27.35-.21862-59.25l.25955-58 13.59656-.27722 13.59655-.27722 11.48056 21.52191 11.48056 21.52192 11.42289-21.2447L297.5 34.5l13.75-.27822 13.75-.27822v119.10991l-14.75-.27674L295.5 152.5 295 122l-.5-30.5-8.06534 15.5c-7.93236 15.24445-8.12344 15.50496-11.58952 15.8008l-3.52418.3008-8.41048-16.03644L254.5 91.02873l-.26425 30.98563L253.97151 153h-14.51714c-10.69203 0-14.64313-.32936-14.9953-1.25zM249 108.83333c0-20.99166.32674-37.83993.72608-37.44058.39935.39934 5.99006 10.70042 12.42381 22.89127s12.06951 22.28216 12.52392 22.42514c.4544.14297 5.86433-9.5206 12.02205-21.4746C292.85358 83.28055 298.57677 72.6 299.41405 71.5c1.3715-1.80183 1.52549 1.83951 1.55415 36.75L301 147h19V40h-19.50489l-12.49756 23.1552c-6.87365 12.73536-12.86525 23.19786-13.31465 23.25-.44941.05214-6.37565-10.2552-13.16942-22.9052l-12.35232-23-9.58058-.28621L230 39.92758V147h19zM330.45815 151.75c-.26349-.6875-.36187-22.625-.21861-48.75L330.5 55.5h57v21l-15.75.2754-15.75.27539V92h29v22h-29v17h32v22h-28.53138c-21.90294 0-28.64269-.2904-29.01047-1.25zM383 142v-5h-32v-29h29V98h-29V71h31V61h-46v86h47zm26.66667 10.33333c-.36667-.36666-.66667-17.46666-.66667-38V77h-18V54.97151l31.25.26424L453.5 55.5v21l-9.25.28753-9.25.28752V153h-12.33333c-6.78334 0-12.63334-.3-13-.66667zM430 109V71h19V61h-53V70.92495l9.25.28752 9.25.28753.26203 37.75.26202 37.75H430zm29.46937 42.77685c-.26865-.70227-.37167-27.37685-.22892-59.27685l.25955-58 17.5-.29436c27.00612-.45426 39.09868 1.90715 47.7684 9.32811 8.11951 6.95 12.28842 20.6477 10.26104 33.71447-2.77001 17.85312-12.60209 25.94242-34.1149 28.06789l-10.87864 1.07481-.26795 23.05454L489.5 152.5l-14.77108.27685c-11.26583.21116-14.887-.0262-15.25955-1zM485 123.60283v-23.39718l12.25-.37247c10.61671-.32281 12.98332-.7167 17.75-2.9542 6.3166-2.96506 10.02901-6.38865 12.65631-11.67165 2.84255-5.71586 2.65241-24.19744-.30578-29.72044-3.06083-5.71463-7.02811-9.39514-13.35053-12.38551-5.32596-2.51906-6.20408-2.61192-27.75-2.93455L464 39.83366V147h21zm0-53.10523V53.70653l7.65875.6474C505.36754 55.42822 510.2 59.97822 510.2 70.86989c0 11.14415-4.15176 14.82691-17.88613 15.86564L485 87.28868zm17.54545 8.04785C504.51261 76.5783 505 75.07377 505 70.96854c0-4.32824-.45317-5.57555-2.92308-8.04545-2.37923-2.37923-3.77463-2.92308-7.5-2.92308H490v21h5.04545c4.02357 0 5.54259-.49713 7.5-2.45454zm61.12122 73.78788C563.3 151.96667 563 141.92503 563 130.01858V108.3705l-12.94513-24.96047c-7.11982-13.72826-13.24297-25.73662-13.60699-26.68525-.60737-1.5828.49921-1.72478 13.44284-1.72478h14.10469l5.75229 12.11055L575.5 79.2211l5-11.86055 5-11.86055 12.91886-.28114c7.10538-.15462 13.22721.07037 13.60407.5.37686.42963-4.63136 12.25614-11.12939 26.28114l-11.81458 25.5-.0395 22.75L589 153h-12.33333c-6.78334 0-12.63334-.3-13-.66667zM584 126.58265V106.1653l10-21.76456c5.5-11.97052 10-22.15164 10-22.62472 0-.47308-3.46149-.72872-7.69221-.56808l-7.6922.29206-6.0578 14.73031c-3.33178 8.10168-6.32438 14.73918-6.65021 14.75-.32584.01083-3.79577-6.73031-7.71097-14.98031l-7.11854-15h-8.03904c-4.42146 0-8.03903.26424-8.03903.5872 0 .32296 5.175 10.605 11.5 22.84898l11.5 22.26178V147h16z"/><path fill="#b4b9c4" d="M93.63282 191.44748c-34.79873-6.91491-61.4144-31.70913-70.7922-65.94748-2.96906-10.84004-3.19075-33.52293-.43004-44 3.05553-11.59594 5.65023-17.83919 6.89616-16.59326C29.90804 65.50804 31.3778 66 32.57288 66c1.19509 0 4.25509.92106 6.8 2.0468C42.99772 69.65022 44 70.60676 44 72.46275 44 74.93673 50.50898 81 53.16479 81c1.65696 0 6.29187 8.13 5.68052 9.96407-.23752.71255.79203 2.51942 2.28788 4.01527 3.58647 3.58647 4.56327 9.03653 2.67686 14.9355-1.85264 5.79335-1.4905 6.83864 2.18246 6.29957 2.28065-.33473 3.62661.25087 5.9756 2.59985C74.52803 121.37418 75 122.61741 75 126.80063c0 6.1942 2.28971 8.85239 4.13559 4.80113.652-1.43097 1.63295-2.60176 2.17991-2.60176.54696 0 .24973-.82293-.66051-1.82874C76.79585 122.90696 80.71885 116 87 116c6.16593 0 10.21449 6.89554 6.47477 11.02788-1.36697 1.51048-1.36697 1.8167 0 2.95118 2.1175 1.75737 1.97416 8.30979-.22477 10.27478-.9625.86009-2.83714 1.71734-4.16586 1.90498-2.20518.31143-1.74862.99525 5.23516 7.84118 4.67026 4.57808 7.6568 8.3162 7.66586 9.59501.0217 3.06221 2.61369 4.94256 10.96649 7.95559 5.73928 2.07027 7.8412 2.43535 9.18599 1.59552 1.83958-1.14884 2.82039-.79002 9.74293 3.56444 1.85931 1.16955 3.97844 1.89704 4.70916 1.61663.76782-.29464 2.17382.88003 3.3311 2.78302 1.10138 1.81107 3.61653 4.26696 5.58922 5.45753l3.58671 2.16467-7.13034 2.64297c-14.41489 5.3431-33.74277 6.97147-48.3336 4.0721zM93 155.5c0-.275-.225-.5-.5-.5s-.5.225-.5.5.225.5.5.5.5-.225.5-.5zm-3.1262-3.75c-1.8758-3.52724-9.1319-11.82524-9.77664-11.18049-.31927.31927.20325 1.0191 1.16117 1.55518.95792.53608 1.74167 1.67507 1.74167 2.53108 0 .85601 1.125 2.44131 2.5 3.52289 1.375 1.08158 2.5 2.57134 2.5 3.31059 0 1.11031.92315 1.91634 2.78518 2.4318.15686.0434-.25327-.93355-.91138-2.17105zm-.46996-14.05603c1.0979-.80281 1.65318-2.2477 1.44113-3.75C90.55409 131.88324 89.95117 131.5 87 131.5s-3.5541.38324-3.84497 2.44397C82.8487 136.11418 85.04329 139 87 139c.33976 0 1.42149-.58771 2.40384-1.30603zm-19.85423-15.25861C68.67196 121.09591 67.28169 120 66.4601 120c-1.16583 0-.89053 1.15266 1.25394 5.25 2.60148 4.97053 2.76594 5.10017 3.0895 2.43536.18797-1.54804-.3763-3.91054-1.25394-5.25zm19.87698 2.99519c2.1152-2.1152.3166-5.68313-2.64212-5.24123-2.98908.44642-4.5099 3.23165-2.85404 5.22686 1.66648 2.00798 3.49776 2.01277 5.49616.0144zm58.7379 57.25388c-2.00674-.91626-2.28794-1.6644-1.99761-5.31477.33622-4.22739.31695-4.25426-3.89549-5.43367-2.32836-.6519-4.77698-1.84026-5.44137-2.6408-1.19082-1.43486-1.08587-1.9771 1.65396-8.54519.60441-1.44894.1927-1.75-2.39317-1.75-2.58476 0-3.4109.60337-4.7922 3.5-1.42136 2.98063-2.17068 3.5-5.04956 3.5-3.49469 0-7.19442-1.48073-8.49446-3.3997-.40998-.60517-.66885-4.63429-.57527-8.9536.18016-8.31585 1.05252-10.16482 5.2987-11.23054l2.33816-.58684-2.90809-7.0522c-1.59945-3.87871-2.90809-7.4403-2.90809-7.91466 0-.47435 1.14083-.86246 2.53518-.86246 2.25482 0 2.41253-.22918 1.42609-2.07237-.85152-1.59107-.77479-2.57589.33038-4.24036 1.25573-1.89123 1.25049-2.45642-.0411-4.42762-1.31849-2.01227-1.30125-2.53335.15748-4.75965 1.76081-2.68733 4.4564-3.23556 6.39196-1.3 1.68524 1.68524 1.49302 5.31192-.36319 6.85244-1.41758 1.17649-1.41758 1.37882 0 2.17214 1.85126 1.03601 2.06332 4.87529.36319 6.57542-.93333.93333-.48889 1.2 2 1.2 1.76 0 3.2.16311 3.2.36246 0 .19936-1.35 3.63625-3 7.63754-1.65 4.00129-3 7.39004-3 7.53055 0 1.19884 3.74549 1.21101 5.56612.0181 1.6565-1.08538 3.06065-1.25175 5.10909-.60536 1.55364.49026 4.05955 1.16147 5.56869 1.49158 1.88807.41299 3.18183 1.64831 4.14797 3.96059 1.94681 4.65938 3.60813 5.45253 3.60813 1.72259 0-1.65-.45-3.27811-1-3.61803-.55-.33992-.99999-2.27898-.99997-4.30902.00003-3.75357 2.66836-6.82218 8.74997-10.06252 1.2375-.65936 2.25-2.13423 2.25-3.27749 0-3.39345 4.18066-9.85821 6.80034-10.51571 1.45112-.3642 2.79338-1.73995 3.40256-3.48744.60965-1.74885 2.67407-3.86349 5.23943-5.36689 5.25722-3.08094 5.74734-3.08483 4.98302-.0395l-.61275 2.4414 5.08529-2.6914c2.79691-1.48027 5.08907-3.309 5.0937-4.06384.007-1.08649-.29412-1.12137-1.4436-.16739-.90068.7475-2.32456.90862-3.75.42432-1.2639-.42941-2.63549-.69158-3.04799-.58262C183.3375 102.91084 183 101.875 183 100.5s.45-2.5 1-2.5 1-.45 1-1-1.35-1-3-1c-2.95819 0-3.96923-1.28295-1.97992-2.51241.56105-.34675 3.45762-.63045 6.43684-.63045 3.47457 0 5.84185-.51221 6.60236-1.42857C194.59787 89.57468 197 89.58954 197 91.45295c0 .79912-.53691 2.63135-1.19314 4.07161-.973 2.1355-.92687 2.78715.25 3.53175 2.37176 1.5006 3.77359 1.07664 4.31937-1.3063.28343-1.2375.30195 2.56547.0412 8.45105-.78377 17.68792-5.3559 31.87739-14.91845 46.29894-5.9737 9.0091-16.06116 19.16427-24.99893 25.1667-8.78266 5.89827-9.64168 6.24769-12.33551 5.01773zm14.30919-21.64184c1.47743-2.39053-12.44563-6.04013-15.47368-4.05606-1.09716.71889-.25408.98696 3.13922.99816 3.12884.0103 5.4078.65561 7 1.98204 2.60468 2.16992 4.43069 2.53819 5.33446 1.07586zm-33.92265-27.51047c1.92309-4.60261 1.95374-4.53212-1.97058-4.53212h-3.41956l1.57125 4c.86418 2.2 1.75094 4 1.97058 4 .21963 0 1.05137-1.56055 1.84831-3.46788zM225 93.47178V34.94356l13.67351.27822 13.67351.27822 6.4278 12c3.53529 6.6 8.56672 15.97674 11.18095 20.8372l4.75316 8.83719 11.29163-21.0872L297.29218 35H325v117H296.02849l-.26424-31.25L295.5 89.5l-8.5 16.28362-8.5 16.28363-3.93197-.28363-3.93197-.28362-8.06803-15.38506L254.5 90.72988l-.26445 30.63506L253.9711 152H225zM249 109.5c0-20.625.3375-37.48958.75-37.47686.4125.01274 5.95259 9.99693 12.31131 22.1871 6.35872 12.19018 11.98372 22.29802 12.5 22.46187.51628.16385 6.32765-10.04535 12.91415-22.6871C294.06197 81.34325 299.79947 71 300.22546 71c.426 0 .77454 17.1.77454 38v38h19V40h-19.72753l-11.67925 21.8677c-6.42358 12.02722-12.25717 22.65805-12.96353 23.62405-1.12919 1.54427-2.79436-1.06622-13.78936-21.6177L249.33526 40.5l-9.66763-.28621L230 39.92758V147h19zm82-5.5V56h56v20h-31v17h29v20h-29v19h32v20h-57zm52 38.02539v-4.9746l-15.75-.2754L351.5 136.5v-28l14.25-.27746 14.25-.27745v-9.89018l-14.25-.27745L351.5 97.5v-26l15.25-.27605 15.25-.27604V61h-46v86h47zM409.76203 114.25L409.5 76.5l-9.25-.28753-9.25-.28752V56h63v20h-19v76h-24.97595zm20.47594-5L430.5 71.5l9.25-.28753 9.25-.28752V61h-53V70.92495l9.25.28752 9.25.28753.26203 37.75.26202 37.75h14.9519zM460 93.5V35h22.2899c24.9245 0 30.8059.9279 38.93156 6.14211C530.85328 47.32283 535 56.36011 535 71.17078c0 22.38477-12.38593 33.7823-36.75 33.81735L490 105v47h-30zm25 30.11824v-23.38175l12.75-.4303c11.40622-.38493 13.36345-.72475 18.57049-3.2242 10.34087-4.96378 14.23457-13.1259 13.50452-28.30868C529.29136 57.1749 525.92704 50.18655 519 45.78763 511.05792 40.74413 506.59881 40 484.3185 40H464v107h21zm0-53.26328V53.70993l6.86598.57562c12.01189 1.00703 16.58208 4.22755 18.1475 12.78817 1.03478 5.65878-.60672 12.1624-3.85532 15.27476C503.30787 85.07922 496.16631 87 488.86351 87H485zm17 8.7382c1.9679-1.41249 2.56647-2.82308 2.81229-6.62751.17177-2.65821.0528-5.86725-.26448-7.1312-.68175-2.71627-4.73888-5.02155-10.44284-5.93365L490 58.74438V82.2271l4.75-.66976c2.6125-.36836 5.875-1.47724 7.25-2.46417zm61 50.80537v-22.10147l-5.36651-10.14853c-2.95157-5.5817-9.04773-17.23603-13.547-25.89853L535.90598 56h28.07774l5.82099 11.60957 5.82098 11.60958 4.80751-11.60958L585.24071 56h13.37964C605.97916 56 612 56.34978 612 56.7773c0 .4275-5.17145 12.015-11.49211 25.75L589.01578 107.5l-.00789 22.25L589 152h-26zm21-3.2288v-20.33026l10.43278-22.66974L604.86557 61l-8.18279.01397-8.18278.01397-3.91977 9.73603C582.42436 76.11879 579.57384 82.975 578.24575 86l-2.41472 5.5-7.34219-15.25L561.14666 61h-8.07333C548.633 61 545 61.29296 545 61.65102c0 .35806 5.175 10.66882 11.5 22.9128L568 106.8256V147h16zm-429.85055-6.61153l.35055-13.4418-16.36973-5.22445-16.36972-5.22445-3.63934 3.82574c-4.41438 4.64048-9.16171 5.85233-14.38177 3.67125-9.2928-3.88278-10.2323-18.25015-1.54962-23.6974 7.9178-4.96738 18.80873.97744 18.81141 10.26822l.001 4.26469 22.24877 6.89841c12.23682 3.79413 22.78134 7.17027 23.43226 7.50253.79431.40546-.94587 4.37128-5.29198 12.06023-3.56151 6.30087-6.72682 11.69973-7.03404 11.99747-.30721.29775-.40082-5.50745-.20802-12.90044zm-46.52253-39.76461c-1.05236-1.05237-6.73391 3.01263-8.21572 5.87812-2.88905 5.58682.1865 13.56975 6.0888 15.80413 1.9148.72487 2.0121.28858 2.28399-10.24204.1562-6.04953.0855-11.19763-.15707-11.44021zm8.45 18.78333c1.6077-1.60769 2.92308-3.85769 2.92308-5C119 92.28205 118.38889 92 114.5 92H110v5c0 5.98993 1.61273 6.54111 6.07692 2.07692zM68.98634 97.75c-.0075-5.6375-.28499-11.2625-.61663-12.5-.58905-2.19805-.41558-2.25 7.51366-2.25C80.90925 83 84 83.40169 84 84.05487c0 .58018-1.77552 3.66944-3.9456 6.86503l-3.9456 5.81015 2.86434 2.74421c1.57539 1.50932 3.3509 2.4435 3.9456 2.07596.685-.42336 1.08126.4528 1.08126 2.39076C84 106.53727 83.62183 107 81.5 107c-1.39722 0-2.5-.57914-2.5-1.31291 0-.7221-1.35-2.60629-3-4.18709l-3-2.87418v4.68709C73 107.33333 72.71553 108 71 108c-1.86903 0-2.0009-.67122-2.01365-10.25zM76.3813 90l2.64708-4h-3.0142C73.1643 86 73 86.21804 73 90c0 2.2.1652 4 .36711 4 .20192 0 1.5583-1.8 3.0142-4zm122.25794 4.2253c-.26334-.4261-.14063-2.3386.27268-4.25l.75148-3.4753.44472 4.25c.40533 3.87349-.2559 5.43793-1.46888 3.4753zM149.75 86.53046c-.9625-1.32368-1.75-3.29773-1.75-4.3868C148 79.17145 146.94345 77 145.49726 77c-.70882 0-2.70693-2.21-4.44023-4.91113-1.73331-2.70112-3.84202-5.17612-4.68604-5.5-2.82254-1.08311-5.42747-.60526-6.08831 1.11685C129.29163 70.28837 126.71553 73 125.25301 73 123.71277 73 122 68.93523 122 65.27991c0-2.43235-.10969-2.49062-1.80325-.95797C117.12606 67.10088 110 67.01622 110 64.2008c0-1.48318.64445-1.72396 3.66899-1.37087 2.73509.31931 4.00779-.035 5-1.39192 1.99382-2.72672 1.62897-3.4476-1.43477-2.83485C113.32155 59.38569 109 55.84757 109 51.86168c0-6.12677 4.44964-9.78183 9.54837-7.84329C121.3362 45.07832 124 50.27562 124 54.65497v2.71921l2.98111-2.85609c1.63962-1.57085 4.17582-4.58004 5.63601-6.68709C135.91658 43.06988 139 42.66844 139 47c0 2.33333.44444 3 2 3 1.1 0 2-.45 2-1s.675-1 1.5-1c2.18688 0 1.83511-1.75886-.5-2.5-2.31891-.736-2.62524-2.32284-.59854-3.10056 1.68041-.64484 2.70948-3.66492 2.83764-8.3279.0689-2.5058-.42156-3.63062-1.82243-4.1797-2.89121-1.13326-3.40713-1.03057-2.79797.5569.30576.7968.0513 2.0343-.56549 2.75-.61678.71569-1.73238 2.18427-2.4791 3.26351-1.17878 1.70369-1.57807 1.77935-3.03018.5742-1.0902-.90478-1.4694-2.19725-1.08916-3.71225.32462-1.29339.13137-2.3242-.43572-2.3242-.56048 0-1.01905.675-1.01905 1.5s-.675 1.5-1.5 1.5c-.85569 0-1.5-.8993-1.5-2.09362 0-1.25262-.8034-2.30371-2-2.61663-1.1-.28766-2-1.18705-2-1.99865 0-1.89714-3.5352-6.42256-4.36725-5.59052C120.31549 23.01785 121.07741 25.97106 123 27c2.36597 1.26623 2.75257 6.47946.57103 7.70031-.78593.43983-1.46093 1.13719-1.5 1.54969-.03907.4125-.29603.75-.57103.75H120c-.55 0-1-.675-1-1.5s-.675-1.5-1.5-1.5-1.5.45-1.5 1c0 1.47968-8.10853 1.14578-10.99706-.45284-2.79552-1.54715-5.26215-.38623-4.33162 2.03869.30384.79179-.0321 2.1439-.74646 3.00469-1.16042 1.39822-1.4801 1.32483-2.9987-.68844-1.45452-1.9283-2.50988-2.22074-7.313-2.02642-5.50933.2229-6.66629-.42255-4.5503-2.53854 1.73625-1.73625-15.51541-3.7909-17.73214-2.11189-.74995.56804-1.50722.28178-2.11162-.79822-.64015-1.14389-1.16597-1.322-1.63973-.55545C63.1958 31.49221 62.14565 32 61.2457 32c-.89994 0-2.88212 1.1936-4.40482 2.65245-2.31221 2.21523-3.02178 2.4423-4.30472 1.37756C51.49088 35.1625 51 35.11379 51 35.87756 51 36.4949 50.24384 37 49.31964 37 46.60155 37 59.74717 27.37857 69 22.59571c4.675-2.41654 11.51594-5.31786 15.2021-6.44738 9.138-2.80009 25.46986-4.3368 34.7979-3.27423 4.125.46989 6.7125.91544 5.75.99012C123.7875 13.9389 123 14.45 123 15c0 1.3503 4.73953 1.2814 5.19183-.07548.2193-.6579 1.44491-.80281 3.15655-.37322 1.99262.50012 2.48912 1.0112 1.72484 1.77549-1.94628 1.94628-1.16354 4.68838 1.6429 5.75538 1.86483.709 2.32606 1.27373 1.47162 1.8018-2.4435 1.51017 3.23216 2.82701 11.02531 2.55804l7.71306-.2662 3.28694 3.75764c1.80782 2.0667 4.48385 5.17714 5.94672 6.9121 1.46287 1.73494 3.60037 3.15445 4.75 3.15445C170.06304 40 171 40.64593 171 41.44098c0 2.3142-1.82278 2.79656-4.22075 1.11695-3.04757-2.1346-4.03959-1.95355-3.23232.58993.62115 1.95708.40682 2.09289-2.41292 1.52894-2.43975-.48795-3.31623-.20484-4.14186 1.33786-.96489 1.80293-.83894 1.87759 1.60195.94957 2.48306-.94406 3.81222-.52223 6.41457 2.03577 2.75978 2.71276 5.92891 4.90103 7.99133 5.51797 2.49096.74513 2.49309.7401.58946-1.3912-2.76515-3.09586-1.09515-3.87676 2.54123-1.18827 2.37532 1.75615 3.29128 1.99677 3.89326 1.02275.50744-.82105-.45117-2.4416-2.69747-4.56012-2.52961-2.38574-3.39451-3.9742-3.1558-5.79585.23763-1.81334-.77825-3.70156-3.66242-6.80734-2.19519-2.36387-.92866-1.37294 2.81453 2.20206 10.50241 10.03052 18.31559 22.70357 23.17506 37.59015 2.9133 8.92466 3.05078 10.11007.97254 8.38527-1.16961-.97068-2.11105-1.00455-4-.14388-2.8682 1.30684-3.16061.58862-.8154-2.0028.92412-1.02114 1.1628-1.82874.54047-1.82874-1.82636 0-5.95752-5.0603-6.55012-8.02332-.30312-1.5156-1.59839-3.97314-2.87838-5.46122l-2.32725-2.70559-1.38883 2.59507C177.68154 70.83209 172 68.73165 172 63.42857 172 62.09286 171.58453 61 171.07673 61c-.50781 0-2.33728-1.1898-4.0655-2.644-1.72906-1.45491-4.68684-2.78261-6.57673-2.9522-3.38531-.30377-3.4345-.25158-3.4345 3.644 0 2.17371.45 3.9522 1 3.9522s1 .675 1 1.5-.47552 1.5-1.0567 1.5c-.5923 0-.37255.97677.5 2.2225 2.17484 3.10502 1.94963 5.15708-.9433 8.59513-1.87473 2.22799-2.5 4.123-2.5 7.57673 0 3.73163-.3321 4.59968-1.75 4.57421-.9625-.01728-2.5375-1.11443-3.5-2.4381zm-30.70015-32.62361c1.36535-2.55118.52206-6.47342-1.5639-7.27388-2.35006-.9018-5.73201 3.00849-4.90232 5.66817 1.27121 4.07504 4.69028 4.92407 6.46622 1.6057zM146 53.5c0-.275-.225-.5-.5-.5s-.5.225-.5.5.225.5.5.5.5-.225.5-.5zm3.5-4.5c-.33992-.55-1.15398-.9931-1.80902-.98469-.71561.0092-.59227.40223.30902.98469 1.92112 1.24152 2.2673 1.24152 1.5 0zm9.5-13c0-.55-.45-1-1-1s-1 .45-1 1 .45 1 1 1 1-.45 1-1zm-39.44782-6.91557c-.48224-.78028-1.28908-.76042-2.84056.0699-2.11431 1.13155-2.11891 1.1775-.18932 1.88917 2.24898.82947 4.03827-.32746 3.02988-1.95907zM71 81.05716C71 80.00527 74.98072 73 75.57845 73 76.01103 73 80 80.63247 80 81.46016 80 81.75707 77.975 82 75.5 82s-4.5-.42428-4.5-.94284zM55 66.84041c0-1.25208 2.31121-4.58265 5.5-7.92576 5.61464-5.88636 6.65444-8.71166 4.01299-10.90387-1.3843-1.14887-3.89478-.95271-8.00809.62571-1.33051.51057-1.61044.14668-1.3429-1.74573.25618-1.81206 1.22549-2.61005 4.0044-3.2967 4.94417-1.22168 9.37523.6523 10.72972 4.5378 1.34919 3.87028.19272 6.73157-4.99581 12.36047L60.74528 65h5.12736C70.33334 65 71 65.26004 71 67c0 1.83333-.66667 2-8 2-7.5304 0-8-.12677-8-2.15959zm22.40777.05768c-1.44541-1.59717-1.98802-3.99186-2.25961-9.9723-.34677-7.63602-.26726-7.96054 2.67029-10.89809C79.6493 44.19685 81.88278 43 83.46853 43c7.86945 0 11.50863 15.67415 5.4326 23.39855-2.65742 3.37838-8.65225 3.63893-11.49336.49954zm8.0208-2.46952C86.50761 63.34954 87 60.97887 87 56.86283c0-9.34618-3.05957-12.75394-6.59979-7.35088-2.24444 3.42545-1.51097 13.20267 1.13562 15.1379 2.265 1.65622 2.00019 1.67128 3.89274-.22128zM29 62.5c0-.275.225-.5.5-.5s.5.225.5.5-.225.5-.5.5-.5-.225-.5-.5zm1-2c0-.275.225-.5.5-.5s.5.225.5.5-.225.5-.5.5-.5-.225-.5-.5zm1-2c0-.275.225-.5.5-.5s.5.225.5.5-.225.5-.5.5-.5-.225-.5-.5zm1.5-2.5c.33992-.55.84303-1 1.11803-1 .275 0 .22189.45-.11803 1s-.84303 1-1.11803 1c-.275 0-.22189-.45.11803-1zm2-3c.33992-.55.84303-1 1.11803-1 .275 0 .22189.45-.11803 1s-.84303 1-1.11803 1c-.275 0-.22189-.45.11803-1zm2-3c.33992-.55.84303-1 1.11803-1 .275 0 .22189.45-.11803 1s-.84303 1-1.11803 1c-.275 0-.22189-.45.11803-1zm2.5-3.37756c0-.20765.7875-.99515 1.75-1.75 1.58606-1.24387 1.62143-1.2085.37756.37756C39.82118 46.91575 39 47.44548 39 46.62244zm5-6c0-.20765.7875-.99515 1.75-1.75 1.58606-1.24387 1.62143-1.2085.37756.37756C44.82118 40.91575 44 41.44548 44 40.62244zM163.87244 30.25c-1.24387-1.58606-1.2085-1.62143.37756-.37756C165.91575 31.17882 166.44548 32 165.62244 32c-.20765 0-.99515-.7875-1.75-1.75zm-3.46793-2.4045c-.44208-.7153-.27432-.88307.44098-.441 1.15275.71245 1.54767 1.5955.71353 1.5955-.24254 0-.76207-.51953-1.15451-1.1545zm-3-2c-.44208-.7153-.27432-.88307.44098-.441.63498.39245 1.15451.91198 1.15451 1.15452 0 .83414-.88305.43922-1.59549-.71353zM155 24.5c0-.275.225-.5.5-.5s.5.225.5.5-.225.5-.5.5-.5-.225-.5-.5zm-17.6954-3.98744c-.91468-1.9181-1.43061-3.71989-1.14651-4.00398.28409-.2841 2.27724.12855 4.42922.91698s3.35019 1.46522 2.66269 1.50398C142.5625 18.96829 142 20.125 142 21.5c0 3.69542-2.73676 3.11988-4.6954-.98744zM153 23.5c0-.275.225-.5.5-.5s.5.225.5.5-.225.5-.5.5-.5-.225-.5-.5zm-2-1c0-.275.225-.5.5-.5s.5.225.5.5-.225.5-.5.5-.5-.225-.5-.5zm-2-1c0-.275.225-.5.5-.5s.5.225.5.5-.225.5-.5.5-.5-.225-.5-.5zm-2-1c0-.275.225-.5.5-.5s.5.225.5.5-.225.5-.5.5-.5-.225-.5-.5zm-2-1c0-.275.225-.5.5-.5s.5.225.5.5-.225.5-.5.5-.5-.225-.5-.5z"/><path fill="#ece036" d="M97.81396 191.99147c-20.60249-3.27394-37.1616-11.59836-51.405-25.84177-11.71264-11.71264-19.73496-26.31545-24.12408-43.91239-2.2385-8.97467-2.24729-30.21-.01625-39.28745 2.7489-11.18448 5.62887-17.92642 7.37193-17.25755.84449.32406 2.28334.64635 3.19744.7162.9141.06986 3.7995.96765 6.412 1.9951 3.81148 1.499 4.75 2.338 4.75 4.24634 0 2.66236 5.50894 8.27401 8.16844 8.32074 2.08631.03665 6.29635 6.68401 6.05791 9.56501-.0987 1.19255.897 3.08036 2.24106 4.24902 3.96343 3.44616 5.0982 8.99633 3.08102 15.06947-1.86225 5.60672-1.37338 7.5948 1.67175 6.79848C70.47503 115.2785 75 120.54845 75 128.04261c0 2.62774.73115 5.07144 2 6.68452l2 2.54259v-3.01242c0-1.65682.6394-3.54307 1.4209-4.19165 1.2213-1.01358 1.18617-1.59105-.25-4.1108-1.50223-2.63564-1.51949-3.20315-.1709-5.622 2.81348-5.04633 11.18652-5.04633 14 0 1.34858 2.41885 1.33133 2.98636-.1709 5.622-1.43617 2.51975-1.4713 3.09722-.25 4.1108C97.2268 133.09296 93.80925 142 89 142c-1.1 0-2 .35774-2 .79497 0 .43724 3.39014 4.08508 7.53364 8.10632 5.37964 5.22088 7.37462 7.81241 6.97743 9.06384-.7515 2.36777.90355 3.5526 10.57542 7.5708 6.03756 2.50832 8.59601 3.14253 9.53466 2.36353 1.51007-1.25325 4.8132-.38737 8.54469 2.2399 1.46622 1.03234 3.95381 2.13457 5.52798 2.4494 1.73846.3477 3.51525 1.7104 4.52567 3.47097.91495 1.59419 3.08065 3.76033 4.81267 4.81363l3.14914 1.91511-5.77269 2.15984c-13.05594 4.88485-32.06384 7.03444-44.59465 5.04316zm-9.9078-43.66016c-2.8955-3.75722-5.73339-7.14434-6.3064-7.52694-1.83692-1.22649-2.16363.31015-.34819 1.63763.96164.70317 1.74843 2.0305 1.74843 2.94963s.69164 1.93655 1.53699 2.26094c.84534.32438 2.2069 1.88526 3.02567 3.46861C88.38146 152.70453 89.7148 154 90.52568 154S92 154.525 92 155.16667c0 .64166.2634.90325.58535.58131.32195-.32195-1.78369-3.65945-4.6792-7.41667zM89.8 137.8c3.3943-3.39429-.59738-9.04917-4.8-6.8-3.52965 1.88901-2.0019 8 2 8 .88 0 2.14-.54 2.8-1.2zm-19.77734-15.75766C69.07614 120.27375 65 119.04904 65 120.53324c0 .29329 1.2375 2.88079 2.75 5.75L70.5 131.5l.30784-3.70766c.16931-2.03922-.18402-4.62672-.78518-5.75zm20.31722 2.79148c.75469-1.20428.67975-2.10524-.27031-3.25-1.90045-2.2899-5.79789-2.01517-6.5848.46417-1.3604 4.28621 4.43816 6.64267 6.85511 2.78583zm57.20993 56.82626c-1.45171-1.06152-1.69177-2.08983-1.15536-4.94914.66253-3.53158.59062-3.63513-3.34257-4.81354-2.21082-.66238-4.73463-1.99435-5.60847-2.95994-1.44702-1.59893-1.44845-2.02703-.0161-4.79687 2.2535-4.3578 1.9875-5.14059-1.74683-5.14059-2.78502 0-3.54987.52332-4.75 3.25-1.3154 2.98857-1.78588 3.24206-5.84878 3.15126-7.31292-.16344-9.07145-3.90106-7.43901-15.811.54607-3.98402 1.13247-4.94454 3.90084-6.38957l3.25815-1.70069-2.79589-7c-1.53773-3.85-2.59155-7.3375-2.34181-7.75.24973-.4125 1.64251-.75 3.09505-.75 2.05409 0 2.37431-.26667 1.44098-1.2-1.70013-1.70013-1.48807-5.53941.36319-6.57542 1.41758-.79332 1.41758-.99565 0-2.17214-2.23882-1.85805-1.95189-5.77405.52-7.09696 1.6619-.88943 2.47082-.76408 4 .6198 2.31245 2.09275 2.43969 4.18946.39158 6.4526-1.36697 1.51048-1.36697 1.8167 0 2.95118 1.82873 1.51771 1.97688 4.16929.32523 5.82094-.93333.93333-.6 1.2 1.5 1.2 3.39419 0 3.41973 1.31554.16828 8.66764-1.39244 3.14856-2.30657 6.31139-2.03138 7.02851.62012 1.61602 2.99207 1.67741 5.45207.14112 1.44162-.90031 3.07489-.8276 7.23643.32215 4.49159 1.24094 5.64457 2.04807 7.01783 4.91274 2.08025 4.33949 4.48031 4.59373 4.03889.42784-.17483-1.65-.73733-3.4275-1.25-3.95-.51268-.5225-.93213-2.17-.93213-3.66111 0-2.84153 3.63295-6.61348 9.08547-9.43309 1.73007-.89465 2.63582-2.01853 2.31033-2.86673-1.01076-2.63402 3.50291-9.6488 7.20343-11.19498 1.91477-.80004 3.19417-1.91935 2.84312-2.48737-.8837-1.42985 2.32621-4.74623 6.80765-7.03345 3.67486-1.87557 4.91322-1.43649 2.56667.91006-2.38654 2.38654.0455 2.20431 5.29492-.39674 6.64662-3.29336 6.24991-2.91821 5.15496-4.87478-.79877-1.42732-1.07294-1.45002-2.13001-.17633-.97482 1.17458-1.79522 1.24217-4.17488.34395C183.19 101.63324 181.78611 99 184 99c.55 0 1-.675 1-1.5 0-1-1-1.5-3-1.5-3.64261 0-3.96562-1.71954-.48701-2.59261 1.51003-.379 3.18308-.08728 4.19195.73094 1.36138 1.1041 1.52683 1.1089.87467.02538-.59497-.9885-.18948-1.25966 1.55804-1.04186 1.29929.16194 3.61389-.53519 5.14356-1.54917 3.6817-2.44051 4.31458-1.51898 2.3422 3.41048l-1.62694 4.06613 3.00953.60191 3.00953.60191-.42314 10.12344c-.49306 11.79643-2.82517 20.61017-8.50077 32.12696-7.33477 14.88354-19.67204 28.51242-33.26404 36.74649-6.86606 4.15948-7.63782 4.34046-10.27777 2.41008zM162.76118 160.75c-1.05972-3.26682-12.5057-6.41481-15.38795-4.23216-1.71878 1.30159-1.54343 1.42172 2.12677 1.45695 2.26044.0217 5.30467.90244 7 2.02521 3.37187 2.2331 6.87854 2.65315 6.26118.75zm-34.2746-26.37212c2.09967-5.02523 1.97255-5.37788-1.9387-5.37788h-3.45212l1.66782 4.5c.9173 2.475 1.78972 4.5 1.9387 4.5.14898 0 .95192-1.62996 1.7843-3.62212zM225 93.5V35h26.85398l11.26731 21.09452c8.84641 16.56212 11.49414 20.77833 12.32301 19.62296.58064-.80936 5.7807-10.29668 11.5557-21.08295l10.5-19.61138 13.75-.01158L325 35v117h-28.97191l-.26404-31.57108L295.5 88.85785l-8.5 16.32107c-8.47922 16.28117-8.50895 16.32183-12.16075 16.62612l-3.66075.30505-8.56619-16.30505L254.04612 89.5l-.02306 31.25L254 152h-29zm24 16.3c0-23.70882.35472-37.83962.93507-37.25.51428.5225 6.21507 11.02097 12.66841 23.32993 10.27422 19.59684 11.89194 22.16303 13.00867 20.63581.70144-.95927 6.36315-11.55296 12.58159-23.54153L299.5 71.17681l.5 38.1616.5 38.16159 9.75.28621 9.75.28621V39h-9.37756c-6.305 0-9.70338.40956-10.372 1.25-.54695.6875-6.283 11.15-12.74679 23.25-6.46378 12.1-12.04896 22.33008-12.41151 22.73352-.36255.40344-6.43535-10.07471-13.49512-23.28477l-12.83593-24.0183-9.63055.28478L229.5 39.5l-.25994 53c-.14297 29.15-.0446 53.5625.21862 54.25.33655.8791 3.30672 1.25 10.00994 1.25H249zm82-5.8V56h56v20h-31v17h29v20h-29v19h32v20h-57zm52 38v-6h-32v-27h29V97h-29V72.05079l15.75-.2754L382.5 71.5v-11h-47l-.26105 42.5c-.14358 23.375-.0452 43.0625.21861 43.75.36493.951 6.10844 1.25 24.01106 1.25H383zm27-28V76h-19V56h62v20h-18v76h-25zm20-4V72h19V60h-53v12h18v37.33333c0 20.53334.3 37.63334.66667 38 .36666.36667 3.96666.66667 8 .66667H430zm30-16.5V35h21.7899c16.11177 0 23.28582.38964 27.5305 1.49524 11.67712 3.0415 18.17504 8.07346 22.59659 17.49867 2.3164 4.93776 2.57992 6.6931 2.55311 17.00609-.0257 9.88004-.3483 12.14817-2.29024 16.10132-2.90109 5.90569-7.40437 10.48064-13.13238 13.3414-6.22862 3.11078-9.052 3.73682-20.04748 4.44523l-9.5.61205-.26843 23.25-.26843 23.25H460zm25 31.15279v-23.34721l10.75-.62341c18.70504-1.08473 27.32718-5.2405 31.9861-15.41691 2.07406-4.53034 2.56302-7.13568 2.56757-13.68066.003-4.44653-.52623-9.97818-1.17625-12.29255-2.86383-10.1965-12.47007-17.41916-25.62742-19.26853-3.85-.54115-14.3125-.99282-23.25-1.00371L464 39v109h21zM485 70.5V55h7.04966c7.62368 0 10.96657 1.22189 14.9204 5.45368 2.01695 2.15874 2.53119 3.87303 2.80324 9.34502C510.35514 81.50122 505.42876 86 492.03212 86H485zm16.93612 9.53419c3.06419-1.63991 4.64924-8.13706 3.18082-13.03823-1.49416-4.98705-4.63683-7.11612-10.81968-7.33L489.5 59.5l-.28837 9.92882c-.1586 5.46085-.0366 10.5849.27111 11.3868.43052 1.1219 1.70049 1.32283 5.50974.87168 2.72264-.32246 5.84728-1.06636 6.94364-1.65311zM564 130.8844v-21.11559l-13.5-26.25064C543.075 69.08032 537 56.98234 537 56.63377 537 56.2852 543.1062 56 550.56934 56h13.56933l5.49051 11.64016c3.01978 6.40208 5.85935 11.23958 6.31015 10.75.4508-.48959 2.76419-5.72766 5.14087-11.64016L585.40143 56h13.29928C606.01532 56 612 56.20336 612 56.4519c0 .24855-5.175 11.7452-11.5 25.5481L589 107.09619V152h-25zm20-3.34229v-20.45787l10.5-22.99044c5.775-12.64474 10.5-23.2569 10.5-23.58257 0-.32567-3.68997-.46143-8.19993-.30168l-8.19992.29044-6.05008 14.74337c-3.32754 8.10885-6.309 14.74635-6.62548 14.75-.31647.00365-3.85283-6.74337-7.85857-14.99337l-7.28316-15h-8.39143c-4.61529 0-8.39143.25324-8.39143.56276s5.4 10.9303 12 23.60174l12 23.03898V148h16zm-429.76713-8.36971l.52026-12.82758-17.09236-5.27504c-10.34581-3.19292-17.23082-4.85963-17.44317-4.2226-.98878 2.96635-4.76577 6.22333-8.32987 7.18304-3.33413.89779-4.62118.77619-7.68318-.72589-8.6864-4.26116-10.66152-14.14244-4.16636-20.84375 3.83319-3.95484 7.65897-5.04567 12.3113-3.51026 5.13051 1.69322 7.86481 5.22455 8.40594 10.8562l.46812 4.8718 6.63823 2.08815c3.65102 1.14848 13.95072 4.39018 22.88822 7.20377 8.9375 2.8136 16.25 5.50157 16.25 5.97327C167 111.13931 154.96439 132 154.27448 132c-.30903 0-.32776-5.77241-.0416-12.82759zM108 91.5c0-6.325-.19571-11.5-.4349-11.5-2.23299 0-5.93498 2.55831-7.5609 5.22507-2.3857 3.91292-2.54856 7.82157-.49163 11.79924 1.32676 2.56567 5.5688 5.81988 7.73743 5.93565.4125.02202.75-5.13496.75-11.45996zm7.69489 8.22844c1.2072-1.08544 2.64629-3.26838 3.19798-4.85099L119.89596 92H110v5.46861c0 4.77683.22138 5.39049 1.75 4.85099.9625-.33969 2.7377-1.50571 3.94489-2.59116zm-46.13587 7.10472c-.24312-.73324-.588-6.39566-.76641-12.58316L68.46824 83h7.76588c4.27123 0 7.76445.3375 7.7627.75-.0017.4125-1.79003 3.43761-3.97395 6.72247l-3.97077 5.97247 2.66104 2.77753C80.17671 100.75011 81.965 102 82.6871 102 83.42086 102 84 103.10278 84 104.5c0 2.02736-.49287 2.5-2.60699 2.5-1.80498 0-2.44417-.42429-2.07774-1.37919.2913-.75914-.98215-2.84408-2.8326-4.63761l-3.36185-3.25843-.3104 4.80945c-.29526 4.57452-2.2869 7.20784-3.2514 4.29894zM77.46166 88.75L79.23002 86h-3.11501C73.06807 86 73 86.1032 73 90.7225c0 5.13581-.15267 5.2033 4.46166-1.9725zm121.61729 3.66667c.048-1.16495.28494-1.4019.60416-.60417.28887.72188.25335 1.58438-.0789 1.91667-.3323.33229-.56864-.25834-.52522-1.3125zm-49.03098-5.8656c-1.61194-1.71584-2.15121-3.23065-1.80146-5.06026.3764-1.96902-.0793-2.99035-1.85254-4.15224-1.29345-.8475-3.89168-3.6844-5.77384-6.30424-3.21637-4.47696-6.41505-6.26936-9.40787-5.27175-.66674.22225-1.21226 1.04159-1.21226 1.82075C130 68.3625 129.58032 69 129.06739 69c-.51294 0-1.21826.9-1.56739 2-.34913 1.1-1.23543 2-1.96956 2C124.11023 73 122 68.03636 122 64.69579c0-1.86947-.12253-1.89488-1.80325-.37385C117.12606 67.10088 110 67.01622 110 64.2008c0-1.48318.64445-1.72396 3.66899-1.37087 2.73509.31931 4.00779-.035 5-1.39192 1.99382-2.72672 1.62897-3.4476-1.43477-2.83485C113.32155 59.38569 109 55.84757 109 51.86168c0-6.12677 4.44964-9.78183 9.54837-7.84329C121.29457 45.06249 124 50.2596 124 54.49093c0 2.48105.071 2.50865 2.44747.95153 1.34611-.882 3.86802-3.81738 5.60424-6.52305C135.74513 43.16373 139 42.21448 139 46.89301c0 3.4415 2.6713 4.93878 4.45622 2.49775.99804-1.3649 1.58517-1.43898 3.45859-.43635 1.24107.6642 2.50735.95676 2.81396.65015.30662-.30662-.26005-.8712-1.25925-1.25463-.99921-.38343-2.65651-1.53692-3.6829-2.56331-1.82155-1.82155-1.81962-1.93154.081-4.60075 1.18411-1.66293 1.90494-4.22515 1.83937-6.53817-.0892-3.14555-.61684-4.06683-3.05005-5.32509-2.78025-1.43772-2.91474-1.41632-2.44275.38859.6035 2.30776-3.51366 7.8398-5.10344 6.85727-.6109-.37758-1.11075-1.78495-1.11075-3.12749 0-2.73495-1.46626-3.27427-2.38595-.8776C131.85409 34.5438 130 33.4758 130 31.05761c0-1.02043-.93856-2.06978-2.12988-2.38132-1.31407-.34364-1.92225-1.09805-1.58781-1.96958.29813-.77693-.31842-2.14937-1.37012-3.04987-2.12615-1.82046-2.42716-3.22054-.89588-4.16692.55897-.34547.7367-1.08054.39496-1.6335C123.65423 16.63153 121 21.49405 121 24.10584c0 1.03247.9 2.43928 2 3.12624 2.5111 1.56821 2.50899 4.57738-.005 7.59421-1.98557 2.382-3.995 2.18819-3.995-.3853 0-1.95112-1.91305-1.83113-2.68023.1681-.50427 1.3141-1.53855 1.4869-5.64159.94262-2.76327-.36656-5.79904-1.0812-6.74615-1.58807-2.08563-1.1162-4.26186 1.01328-3.38111 3.30847.9597 2.50094-1.5346 3.09018-3.87495.9154-1.78544-1.65914-3.0487-1.92153-7.03867-1.46202-4.5284.52153-4.81888.422-4.22544-1.44776.54923-1.7305.0469-2.1144-3.6373-2.77972-2.35101-.42455-5.96206-.80086-8.02456-.83623-2.0625-.03538-3.75-.47885-3.75-.9855 0-.50663-.675-.36096-1.5.32373-1.15034.9547-1.8289.97192-2.91097.07389-.96456-.80051-1.61601-.83925-2.05902-.12245C63.1736 31.52814 62.14565 32 61.24571 32c-.89995 0-2.82878 1.1425-4.28629 2.53887-2.34906 2.25055-2.7956 2.36344-3.93206.9941-1.61291-1.94344.75505-4.01999 12.32903-10.81174 10.10272-5.9284 23.26982-10.23386 35.45965-11.59482C111.93258 11.88528 123 12.6427 123 14.64461c0 1.5126 4.55252 1.88845 5.44198.44927.30801-.49837 1.36593-.69537 2.35095-.43778 1.3744.35941 1.70118 1.2372 1.40501 3.77412-.34171 2.92697-.06 3.39133 2.45806 4.05236 2.54699.66862 2.63679.82289.85992 1.4772-3.24815 1.1961 4.39221 3.23845 9.22432 2.46577 2.59611-.41514 4.26038-.23357 4.72319.51528.53696.86881 1.07719.85538 2.17295-.054 1.19465-.99148 2.27787-.41265 5.99117 3.20143 2.49307 2.42646 5.18332 5.64924 5.97834 7.16174.96819 1.84198 2.24298 2.75 3.86077 2.75 1.32842 0 2.69539.45318 3.03771 1.00707.90608 1.46608-2.43423 2.46307-3.77159 1.12572-1.87027-1.87028-4.61398-1.39449-4.06497.70491.4005 1.53151.002 1.76738-2.3947 1.4157-2.338-.34315-3.09795.06675-4.06703 2.19366-1.1055 2.4263-1.05227 2.541.73533 1.5843 3.26498-1.74737 5.33-1.17223 9.13641 2.54463 2.07009 2.0214 5.2818 3.94128 7.3878 4.41626l3.72567.84027-2.26996-2.41626c-2.75416-2.93166-1.74366-3.138 2.06975-.4226 2.49534 1.77683 2.86694 1.81872 3.41703.3852.39398-1.02668-.65326-3.01469-2.89545-5.49652C174.06936 44.071 172.96947 41 175.04775 41c2.92152 0 13.34512 14.9924 17.89069 25.73242 3.94517 9.32141 6.39633 17.7903 4.75475 16.42791-.79589-.66052-1.80063-.70417-2.72673-.11844-2.44572 1.54683-4.66163 1.18692-2.48618-.40381 1.76539-1.29089 1.6698-1.55467-1.83261-5.05708-2.03234-2.03233-3.4736-4.05364-3.2028-4.4918.27079-.43815-.87563-2.95372-2.54761-5.59016l-3.03996-4.79352-1.91395 3.14724c-2.90256 4.77288-5.88519 3.92349-7.31995-2.08457-.37967-1.58987-1.84971-3.35098-3.51671-4.21302-1.57538-.81466-3.10756-2.11504-3.40484-2.88974-.34846-.90808-2.17499-1.44135-5.14075-1.50088l-4.60025-.09234.40506 3.67572c.22279 2.02165.9066 3.8429 1.51958 4.04723 1.68523.56175 1.33519 3.20484-.42445 3.20484-1.23296 0-1.13355.43515.5 2.18856C159.08247 69.39227 160 70.76462 160 71.23822c0 1.8052-2.99455 6.5457-4.49975 7.12331-1.27274.4884-1.44643 1.56347-.90816 5.62118.77415 5.83583-.6946 6.66597-4.54412 2.56836zm-30.99812-32.64421c1.36535-2.55118.52206-6.47342-1.5639-7.27388-2.35006-.9018-5.73201 3.00849-4.90232 5.66817 1.27121 4.07504 4.69028 4.92407 6.46622 1.6057zM147 53.393c0-.21615-.675-.39301-1.5-.39301s-1.5.43588-1.5.96862c0 .53273.675.70959 1.5.393.825-.31658 1.5-.75245 1.5-.9686zM159 36c0-.55-.70156-1-1.55902-1-.85746 0-1.2809.45-.94098 1 .33992.55 1.04148 1 1.55902 1 .51754 0 .94098-.45.94098-1zm-39-5.94098c0-2.79948-1.19094-3.13258-3.76058-1.05181-1.54585 1.25175-1.85741 1.98093-.995 2.32865C118.06788 32.47427 120 31.95551 120 30.05902zM71 81.46016c0-.2969.95127-2.40448 2.11393-4.68348l2.11393-4.14365 2.38095 3.93348c1.30952 2.16342 2.38325 4.27099 2.38607 4.68349.00281.4125-2.01988.75-4.49488.75s-4.5-.24293-4.5-.53984zM76 78.5c0-.275-.225-.5-.5-.5s-.5.225-.5.5.225.5.5.5.5-.225.5-.5zM55 67.41033c0-.87433 2.47298-4.36183 5.4955-7.75 6.3464-7.11415 7.31479-11.16787 2.93076-12.2682-1.41556-.35528-3.68673-.13885-5.04706.48095C55.12595 49.35537 55 49.32572 55 47.07755c0-2.33113 5.84246-4.56557 9.2343-3.53164 7.29205 2.22283 7.73703 7.98554 1.20632 15.62243L60.88125 64.5l4.55937.3048c3.74545.25037 4.55938.65204 4.55938 2.25C70 68.80882 69.26292 69 62.5 69c-6.18804 0-7.5-.27808-7.5-1.58967zm23.79503.38418c-2.45143-1.86126-3.79558-6.15457-3.7913-12.10961.0084-11.66398 9.0612-16.6202 14.68377-8.03908 2.52072 3.8471 2.31467 14.53138-.34934 18.11456-2.31601 3.1151-7.74088 4.16175-10.54313 2.03413zm7.86166-5.51528c1.67305-4.00418 1.25436-11.47656-.78044-13.92834-1.6249-1.95788-4.64232-1.65651-5.84107.58337-1.59257 2.97575-1.26523 12.29228.52152 14.84323 2.26778 3.2377 4.33314 2.73041 6.1-1.49826zM49.5 36c.33992-.55.81648-1 1.05902-1 .24254 0 .44098.45.44098 1s-.47656 1-1.05902 1c-.58246 0-.7809-.45-.44098-1zm89.68028-13.28277C137.96693 21.25523 135.83844 16 136.45965 16c.22558 0 1.56445.43886 2.97525.97525 1.97316.7502 2.5651 1.67326 2.5651 4 0 3.20419-1.06179 3.86015-2.81972 1.74198zM147 20.5c0-.275.225-.5.5-.5s.5.225.5.5-.225.5-.5.5-.5-.225-.5-.5z"/><path fill="#5f7588" d="M97.81396 191.99147c-20.60249-3.27394-37.1616-11.59836-51.405-25.84177-11.71264-11.71264-19.73496-26.31545-24.12408-43.91239-2.2385-8.97467-2.24729-30.21-.01625-39.28745 2.7489-11.18448 5.62887-17.92642 7.37193-17.25755.84449.32406 2.28334.64635 3.19744.7162.9141.06986 3.7995.96765 6.412 1.9951 3.81148 1.499 4.75 2.338 4.75 4.24634 0 2.66236 5.50894 8.27401 8.16844 8.32074 2.08631.03665 6.29635 6.68401 6.05791 9.56501-.0987 1.19255.897 3.08036 2.24106 4.24902 3.96343 3.44616 5.0982 8.99633 3.08102 15.06947-1.86225 5.60672-1.37338 7.5948 1.67175 6.79848C70.47503 115.2785 75 120.54845 75 128.04261c0 2.62774.73115 5.07144 2 6.68452l2 2.54259v-3.01242c0-1.65682.6394-3.54307 1.4209-4.19165 1.2213-1.01358 1.18617-1.59105-.25-4.1108-1.50223-2.63564-1.51949-3.20315-.1709-5.622 2.81348-5.04633 11.18652-5.04633 14 0 1.34858 2.41885 1.33133 2.98636-.1709 5.622-1.43617 2.51975-1.4713 3.09722-.25 4.1108C97.2268 133.09296 93.80925 142 89 142c-1.1 0-2 .35774-2 .79497 0 .43724 3.39014 4.08508 7.53364 8.10632 5.37964 5.22088 7.37462 7.81241 6.97743 9.06384-.7515 2.36777.90355 3.5526 10.57542 7.5708 6.03756 2.50832 8.59601 3.14253 9.53466 2.36353 1.51007-1.25325 4.8132-.38737 8.54469 2.2399 1.46622 1.03234 3.95381 2.13457 5.52798 2.4494 1.73846.3477 3.51525 1.7104 4.52567 3.47097.91495 1.59419 3.08065 3.76033 4.81267 4.81363l3.14914 1.91511-5.77269 2.15984c-13.05594 4.88485-32.06384 7.03444-44.59465 5.04316zm-9.9078-43.66016c-2.8955-3.75722-5.73339-7.14434-6.3064-7.52694-1.83692-1.22649-2.16363.31015-.34819 1.63763.96164.70317 1.74843 2.0305 1.74843 2.94963s.69164 1.93655 1.53699 2.26094c.84534.32438 2.2069 1.88526 3.02567 3.46861C88.38146 152.70453 89.7148 154 90.52568 154S92 154.525 92 155.16667c0 .64166.2634.90325.58535.58131.32195-.32195-1.78369-3.65945-4.6792-7.41667zM89.8 137.8c3.3943-3.39429-.59738-9.04917-4.8-6.8-3.52965 1.88901-2.0019 8 2 8 .88 0 2.14-.54 2.8-1.2zm-19.77734-15.75766C69.07614 120.27375 65 119.04904 65 120.53324c0 .29329 1.2375 2.88079 2.75 5.75L70.5 131.5l.30784-3.70766c.16931-2.03922-.18402-4.62672-.78518-5.75zm20.31722 2.79148c.75469-1.20428.67975-2.10524-.27031-3.25-1.90045-2.2899-5.79789-2.01517-6.5848.46417-1.3604 4.28621 4.43816 6.64267 6.85511 2.78583zm57.20993 56.82626c-1.45171-1.06152-1.69177-2.08983-1.15536-4.94914.66253-3.53158.59062-3.63513-3.34257-4.81354-2.21082-.66238-4.73463-1.99435-5.60847-2.95994-1.44702-1.59893-1.44845-2.02703-.0161-4.79687 2.2535-4.3578 1.9875-5.14059-1.74683-5.14059-2.78502 0-3.54987.52332-4.75 3.25-1.3154 2.98857-1.78588 3.24206-5.84878 3.15126-7.31292-.16344-9.07145-3.90106-7.43901-15.811.54607-3.98402 1.13247-4.94454 3.90084-6.38957l3.25815-1.70069-2.79589-7c-1.53773-3.85-2.59155-7.3375-2.34181-7.75.24973-.4125 1.64251-.75 3.09505-.75 2.05409 0 2.37431-.26667 1.44098-1.2-1.70013-1.70013-1.48807-5.53941.36319-6.57542 1.41758-.79332 1.41758-.99565 0-2.17214-2.23882-1.85805-1.95189-5.77405.52-7.09696 1.6619-.88943 2.47082-.76408 4 .6198 2.31245 2.09275 2.43969 4.18946.39158 6.4526-1.36697 1.51048-1.36697 1.8167 0 2.95118 1.82873 1.51771 1.97688 4.16929.32523 5.82094-.93333.93333-.6 1.2 1.5 1.2 3.39419 0 3.41973 1.31554.16828 8.66764-1.39244 3.14856-2.30657 6.31139-2.03138 7.02851.62012 1.61602 2.99207 1.67741 5.45207.14112 1.44162-.90031 3.07489-.8276 7.23643.32215 4.49159 1.24094 5.64457 2.04807 7.01783 4.91274 2.08025 4.33949 4.48031 4.59373 4.03889.42784-.17483-1.65-.73733-3.4275-1.25-3.95-.51268-.5225-.93213-2.17-.93213-3.66111 0-2.84153 3.63295-6.61348 9.08547-9.43309 1.73007-.89465 2.63582-2.01853 2.31033-2.86673-1.01076-2.63402 3.50291-9.6488 7.20343-11.19498 1.91477-.80004 3.19417-1.91935 2.84312-2.48737-.8837-1.42985 2.32621-4.74623 6.80765-7.03345 3.67486-1.87557 4.91322-1.43649 2.56667.91006-2.38654 2.38654.0455 2.20431 5.29492-.39674 6.64662-3.29336 6.24991-2.91821 5.15496-4.87478-.79877-1.42732-1.07294-1.45002-2.13001-.17633-.97482 1.17458-1.79522 1.24217-4.17488.34395C183.19 101.63324 181.78611 99 184 99c.55 0 1-.675 1-1.5 0-1-1-1.5-3-1.5-3.64261 0-3.96562-1.71954-.48701-2.59261 1.51003-.379 3.18308-.08728 4.19195.73094 1.36138 1.1041 1.52683 1.1089.87467.02538-.59497-.9885-.18948-1.25966 1.55804-1.04186 1.29929.16194 3.61389-.53519 5.14356-1.54917 3.6817-2.44051 4.31458-1.51898 2.3422 3.41048l-1.62694 4.06613 3.00953.60191 3.00953.60191-.42314 10.12344c-.49306 11.79643-2.82517 20.61017-8.50077 32.12696-7.33477 14.88354-19.67204 28.51242-33.26404 36.74649-6.86606 4.15948-7.63782 4.34046-10.27777 2.41008zM162.76118 160.75c-1.05972-3.26682-12.5057-6.41481-15.38795-4.23216-1.71878 1.30159-1.54343 1.42172 2.12677 1.45695 2.26044.0217 5.30467.90244 7 2.02521 3.37187 2.2331 6.87854 2.65315 6.26118.75zm-34.2746-26.37212c2.09967-5.02523 1.97255-5.37788-1.9387-5.37788h-3.45212l1.66782 4.5c.9173 2.475 1.78972 4.5 1.9387 4.5.14898 0 .95192-1.62996 1.7843-3.62212zM225 93.5V35h26.85398l11.26731 21.09452c8.84641 16.56212 11.49414 20.77833 12.32301 19.62296.58064-.80936 5.7807-10.29668 11.5557-21.08295l10.5-19.61138 13.75-.01158L325 35v117h-28.97191l-.26404-31.57108L295.5 88.85785l-8.5 16.32107c-8.47922 16.28117-8.50895 16.32183-12.16075 16.62612l-3.66075.30505-8.56619-16.30505L254.04612 89.5l-.02306 31.25L254 152h-29zm24 16.3c0-23.70882.35472-37.83962.93507-37.25.51428.5225 6.21507 11.02097 12.66841 23.32993 10.27422 19.59684 11.89194 22.16303 13.00867 20.63581.70144-.95927 6.36315-11.55296 12.58159-23.54153L299.5 71.17681l.5 38.1616.5 38.16159 9.75.28621 9.75.28621V39h-9.37756c-6.305 0-9.70338.40956-10.372 1.25-.54695.6875-6.283 11.15-12.74679 23.25-6.46378 12.1-12.04896 22.33008-12.41151 22.73352-.36255.40344-6.43535-10.07471-13.49512-23.28477l-12.83593-24.0183-9.63055.28478L229.5 39.5l-.25994 53c-.14297 29.15-.0446 53.5625.21862 54.25.33655.8791 3.30672 1.25 10.00994 1.25H249zm82-5.8V56h56v20h-31v17h29v20h-29v19h32v20h-57zm52 38v-6h-32v-27h29V97h-29V72.05079l15.75-.2754L382.5 71.5v-11h-47l-.26105 42.5c-.14358 23.375-.0452 43.0625.21861 43.75.36493.951 6.10844 1.25 24.01106 1.25H383zm27-28V76h-19V56h62v20h-18v76h-25zm20-4V72h19V60h-53v12h18v37.33333c0 20.53334.3 37.63334.66667 38 .36666.36667 3.96666.66667 8 .66667H430zm30-16.5V35h21.7899c16.11177 0 23.28582.38964 27.5305 1.49524 11.67712 3.0415 18.17504 8.07346 22.59659 17.49867 2.3164 4.93776 2.57992 6.6931 2.55311 17.00609-.0257 9.88004-.3483 12.14817-2.29024 16.10132-2.90109 5.90569-7.40437 10.48064-13.13238 13.3414-6.22862 3.11078-9.052 3.73682-20.04748 4.44523l-9.5.61205-.26843 23.25-.26843 23.25H460zm25 31.15279v-23.34721l10.75-.62341c18.70504-1.08473 27.32718-5.2405 31.9861-15.41691 2.07406-4.53034 2.56302-7.13568 2.56757-13.68066.003-4.44653-.52623-9.97818-1.17625-12.29255-2.86383-10.1965-12.47007-17.41916-25.62742-19.26853-3.85-.54115-14.3125-.99282-23.25-1.00371L464 39v109h21zM485 70.5V55h7.04966c7.62368 0 10.96657 1.22189 14.9204 5.45368 2.01695 2.15874 2.53119 3.87303 2.80324 9.34502C510.35514 81.50122 505.42876 86 492.03212 86H485zm16.93612 9.53419c3.06419-1.63991 4.64924-8.13706 3.18082-13.03823-1.49416-4.98705-4.63683-7.11612-10.81968-7.33L489.5 59.5l-.28837 9.92882c-.1586 5.46085-.0366 10.5849.27111 11.3868.43052 1.1219 1.70049 1.32283 5.50974.87168 2.72264-.32246 5.84728-1.06636 6.94364-1.65311zM564 130.8844v-21.11559l-13.5-26.25064C543.075 69.08032 537 56.98234 537 56.63377 537 56.2852 543.1062 56 550.56934 56h13.56933l5.49051 11.64016c3.01978 6.40208 5.85935 11.23958 6.31015 10.75.4508-.48959 2.76419-5.72766 5.14087-11.64016L585.40143 56h13.29928C606.01532 56 612 56.20336 612 56.4519c0 .24855-5.175 11.7452-11.5 25.5481L589 107.09619V152h-25zm20-3.34229v-20.45787l10.5-22.99044c5.775-12.64474 10.5-23.2569 10.5-23.58257 0-.32567-3.68997-.46143-8.19993-.30168l-8.19992.29044-6.05008 14.74337c-3.32754 8.10885-6.309 14.74635-6.62548 14.75-.31647.00365-3.85283-6.74337-7.85857-14.99337l-7.28316-15h-8.39143c-4.61529 0-8.39143.25324-8.39143.56276s5.4 10.9303 12 23.60174l12 23.03898V148h16zm-429.76713-8.36971l.52026-12.82758-17.09236-5.27504c-10.34581-3.19292-17.23082-4.85963-17.44317-4.2226-.98878 2.96635-4.76577 6.22333-8.32987 7.18304-3.33413.89779-4.62118.77619-7.68318-.72589-8.6864-4.26116-10.66152-14.14244-4.16636-20.84375 3.83319-3.95484 7.65897-5.04567 12.3113-3.51026 5.13051 1.69322 7.86481 5.22455 8.40594 10.8562l.46812 4.8718 6.63823 2.08815c3.65102 1.14848 13.95072 4.39018 22.88822 7.20377 8.9375 2.8136 16.25 5.50157 16.25 5.97327C167 111.13931 154.96439 132 154.27448 132c-.30903 0-.32776-5.77241-.0416-12.82759zM108 91.5c0-6.325-.19571-11.5-.4349-11.5-2.23299 0-5.93498 2.55831-7.5609 5.22507-2.3857 3.91292-2.54856 7.82157-.49163 11.79924 1.32676 2.56567 5.5688 5.81988 7.73743 5.93565.4125.02202.75-5.13496.75-11.45996zm7.69489 8.22844c1.2072-1.08544 2.64629-3.26838 3.19798-4.85099L119.89596 92H110v5.46861c0 4.77683.22138 5.39049 1.75 4.85099.9625-.33969 2.7377-1.50571 3.94489-2.59116zm-46.13587 7.10472c-.24312-.73324-.588-6.39566-.76641-12.58316L68.46824 83h7.76588c4.27123 0 7.76445.3375 7.7627.75-.0017.4125-1.79003 3.43761-3.97395 6.72247l-3.97077 5.97247 2.66104 2.77753C80.17671 100.75011 81.965 102 82.6871 102 83.42086 102 84 103.10278 84 104.5c0 2.02736-.49287 2.5-2.60699 2.5-1.80498 0-2.44417-.42429-2.07774-1.37919.2913-.75914-.98215-2.84408-2.8326-4.63761l-3.36185-3.25843-.3104 4.80945c-.29526 4.57452-2.2869 7.20784-3.2514 4.29894zM77.46166 88.75L79.23002 86h-3.11501C73.06807 86 73 86.1032 73 90.7225c0 5.13581-.15267 5.2033 4.46166-1.9725zm121.61729 3.66667c.048-1.16495.28494-1.4019.60416-.60417.28887.72188.25335 1.58438-.0789 1.91667-.3323.33229-.56864-.25834-.52522-1.3125zm-49.03098-5.8656c-1.61194-1.71584-2.15121-3.23065-1.80146-5.06026.3764-1.96902-.0793-2.99035-1.85254-4.15224C143.60113 75.50863 136.56326 66 138.00166 66c.54909 0 .99834-1.125.99834-2.5 0-1.55556.56667-2.5 1.5-2.5.825 0 1.5-.675 1.5-1.5s-.675-1.5-1.5-1.5c-1.08985 0-1.5-1.123-1.5-4.10699 0-3.38235.28708-3.99683 1.62706-3.48263.95063.3648 2.12681-.0591 2.82916-1.01962.96626-1.32144 1.61512-1.42295 3.3072-.51737 2.55987 1.37 3.54804 1.43958 2.77929.1957-.31644-.51199-.11799-1.21355.44098-1.559.6563-.40563 1.01631 2.22663 1.01631 7.4309C151 62.33332 150.83455 63 149 63c-1.11111 0-2 .66667-2 1.5 0 1.10917 1.16234 1.5 4.46104 1.5 3.30141 0 4.99107.56891 6.5 2.18856C159.08247 69.39227 160 70.76462 160 71.23822c0 1.8052-2.99455 6.5457-4.49975 7.12331-1.27274.4884-1.44643 1.56347-.90816 5.62118.77415 5.83583-.6946 6.66597-4.54412 2.56836zM147 53.393c0-.21615-.675-.39301-1.5-.39301s-1.5.43588-1.5.96862c0 .53273.675.70959 1.5.393.825-.31658 1.5-.75245 1.5-.9686zm45.48028 29.24507c1.76539-1.29089 1.6698-1.55467-1.83261-5.05708-2.03234-2.03233-3.4736-4.05364-3.2028-4.4918.27079-.43815-.87563-2.95372-2.54761-5.59016l-3.03996-4.79352-1.91395 3.14724c-2.90256 4.77288-5.88519 3.92349-7.31995-2.08457-.37967-1.58987-1.84971-3.35098-3.51671-4.21302-1.57538-.81466-3.10756-2.11504-3.40484-2.88974-.34879-.90894-2.17712-1.4414-5.15462-1.50116l-4.61411-.09261.47782 3.96417c.27927 2.31693.05827 3.96417-.53185 3.96417-.59946 0-.95342-2.9456-.87122-7.25.22767-11.92086.26319-11.75-2.44277-11.75-1.3392 0-3.51426.41037-4.83347.91194-3.96867 1.50888-5.3787-.19447-2.96593-3.5829 1.27873-1.7958 2.0086-4.30778 1.94132-6.68134-.0892-3.14555-.61684-4.06683-3.05005-5.32509-2.78025-1.43772-2.91474-1.41632-2.44275.38858.6035 2.30777-3.51366 7.83981-5.10344 6.85728C135.49985 36.19089 135 34.78352 135 33.44098c0-2.73495-1.46626-3.27427-2.38595-.8776C131.85409 34.5438 130 33.4758 130 31.05761c0-1.02043-.93856-2.06978-2.12988-2.38132-1.31407-.34364-1.92225-1.09805-1.58781-1.96958.29813-.77693-.31842-2.14937-1.37012-3.04987-2.12615-1.82046-2.42716-3.22054-.89588-4.16692.55897-.34547.7367-1.08054.39496-1.6335C123.65423 16.63153 121 21.49405 121 24.10584c0 1.03247.9 2.43928 2 3.12624 2.5111 1.56821 2.50899 4.57738-.005 7.59421-1.98557 2.382-3.995 2.18819-3.995-.3853 0-1.95112-1.91305-1.83113-2.68023.1681-.50427 1.3141-1.53855 1.4869-5.64159.94262-2.76327-.36656-5.79904-1.0812-6.74615-1.58807-2.08563-1.1162-4.26186 1.01328-3.38111 3.30847.9597 2.50094-1.5346 3.09018-3.87495.9154-1.78544-1.65914-3.0487-1.92153-7.03867-1.46202-4.5284.52153-4.81888.422-4.22544-1.44776.54923-1.7305.0469-2.1144-3.6373-2.77972-2.35101-.42455-5.96206-.80086-8.02456-.83623-2.0625-.03538-3.75-.47885-3.75-.9855 0-.50663-.675-.36096-1.5.32373-1.15034.9547-1.8289.97192-2.91097.07389-.96456-.80051-1.61601-.83925-2.05902-.12245C63.1736 31.52814 62.14565 32 61.24571 32c-.89995 0-2.82878 1.1425-4.28629 2.53887-2.34906 2.25055-2.7956 2.36344-3.93206.9941-1.61291-1.94344.75505-4.01999 12.32903-10.81174 10.10272-5.9284 23.26982-10.23386 35.45965-11.59482C111.93258 11.88528 123 12.6427 123 14.64461c0 1.5126 4.55252 1.88845 5.44198.44927.30801-.49837 1.36593-.69537 2.35095-.43778 1.3744.35941 1.70118 1.2372 1.40501 3.77412-.34171 2.92697-.06 3.39133 2.45806 4.05236 2.54699.66862 2.63679.82289.85992 1.4772-3.24815 1.1961 4.39221 3.23845 9.22432 2.46577 2.59611-.41514 4.26038-.23357 4.72319.51528.53696.86881 1.07719.85538 2.17295-.054 1.19465-.99148 2.27787-.41265 5.99117 3.20143 2.49307 2.42646 5.18332 5.64924 5.97834 7.16174.96819 1.84198 2.24298 2.75 3.86077 2.75 1.32842 0 2.69539.45318 3.03771 1.00707.90608 1.46608-2.43423 2.46307-3.77159 1.12572-1.89231-1.89231-4.61346-1.3925-4.05456.74471.41165 1.57416.0562 1.7944-2.19999 1.3631-1.68342-.32181-3.01982.0049-3.56928.8725-1.49838 2.366-1.01998 2.85911 2.15731 2.22365 2.6029-.52058 3.64105-.05198 6.86998 3.10099 2.19219 2.14062 5.38218 4.07024 7.52938 4.55451l3.72567.84028-2.26996-2.41627c-2.75416-2.93166-1.74366-3.138 2.06975-.4226 2.49534 1.77683 2.86694 1.81872 3.41703.3852.39398-1.02668-.65326-3.01469-2.89545-5.49652C174.06936 44.071 172.96947 41 175.04775 41c2.92152 0 13.34512 14.9924 17.89069 25.73242 3.94517 9.32141 6.39633 17.7903 4.75475 16.42791-.79589-.66052-1.80063-.70417-2.72673-.11844-2.44572 1.54683-4.66163 1.18692-2.48618-.40381zM159 36c0-.55-.70156-1-1.55902-1-.85746 0-1.2809.45-.94098 1 .33992.55 1.04148 1 1.55902 1 .51754 0 .94098-.45.94098-1zm-39-5.94098c0-2.79948-1.19094-3.13258-3.76058-1.05181-1.54585 1.25175-1.85741 1.98093-.995 2.32865C118.06788 32.47427 120 31.95551 120 30.05902zM71 81.46016c0-.2969.95127-2.40448 2.11393-4.68348l2.11393-4.14365 2.38095 3.93348c1.30952 2.16342 2.38325 4.27099 2.38607 4.68349.00281.4125-2.01988.75-4.49488.75s-4.5-.24293-4.5-.53984zM76 78.5c0-.275-.225-.5-.5-.5s-.5.225-.5.5.225.5.5.5.5-.225.5-.5zm46.85354-9.59451c-1.53424-5.12083.36238-11.40555 4.14646-13.7399 1.81693-1.12085 2.15846-1.1629 1.25-.1539-.6875.76357-1.25 2.42331-1.25 3.68831 0 2.05926.47101 2.3 4.5 2.3 4.16277 0 4.5.19206 4.5 2.56286 0 1.84196-.49225 2.51278-1.75 2.38484-3.23132-.3287-4.25.04338-4.25 1.5523 0 .825-.41968 1.5-.93261 1.5-.51294 0-1.21826.9-1.56739 2-1.04747 3.30028-3.33973 2.26698-4.64646-2.09451zM55 67.41032c0-.87432 2.47298-4.36182 5.4955-7.75 6.3464-7.11413 7.31479-11.16786 2.93076-12.26818-1.41556-.35529-3.68673-.13886-5.04706.48094C55.12595 49.35537 55 49.32572 55 47.07755c0-2.33113 5.84246-4.56557 9.2343-3.53164 7.29205 2.22283 7.73703 7.98554 1.20632 15.62243L60.88125 64.5l4.55937.3048c3.74545.25037 4.55938.65204 4.55938 2.25C70 68.80882 69.26292 69 62.5 69c-6.18804 0-7.5-.27808-7.5-1.58967zm23.79503.38419c-2.45143-1.86126-3.79558-6.15457-3.7913-12.10961.0084-11.66398 9.0612-16.6202 14.68377-8.03908 2.52072 3.8471 2.31467 14.53138-.34934 18.11456-2.31601 3.1151-7.74088 4.16175-10.54313 2.03413zm7.86166-5.51528c1.67305-4.00418 1.25436-11.47656-.78044-13.92834-1.6249-1.95788-4.64232-1.65651-5.84107.58337-1.59257 2.97575-1.26523 12.29228.52152 14.84323 2.26778 3.2377 4.33314 2.73041 6.1-1.49826zM131.39811 55.25c.79721-1.5125 2.14445-3.65 2.99388-4.75 1.45724-1.88712 1.5462-1.73191 1.57621 2.75.031 4.62708-.0465 4.75-2.99388 4.75-2.98546 0-3.00641-.03655-1.57621-2.75zM49.5 36c.33992-.55.81648-1 1.05902-1 .24254 0 .44098.45.44098 1s-.47656 1-1.05902 1c-.58246 0-.7809-.45-.44098-1zm89.68028-13.28277C137.96693 21.25523 135.83844 16 136.45965 16c.22558 0 1.56445.43886 2.97525.97525 1.97316.7502 2.5651 1.67326 2.5651 4 0 3.20419-1.06179 3.86015-2.81972 1.74198zM147 20.5c0-.275.225-.5.5-.5s.5.225.5.5-.225.5-.5.5-.5-.225-.5-.5z"/><path fill="#ea2e2c" d="M101.46589 191.83739c-11.00715-.91896-19.34536-3.21745-29.96589-8.26033-40.46227-19.21242-60.40735-65.48336-46.68536-108.30617L27.62516 66.5l3.43742.30415c5.92982.5247 11.92944 3.4297 11.93367 5.77826C43.00012 74.73227 50.43374 82 52.6288 82c1.8132 0 5.6566 6.80066 5.08301 8.99406-.32983 1.2613.28574 2.42953 1.80456 3.4247 2.97627 1.95013 4.85974 7.72318 4.04635 12.40254-1.96333 11.29483-1.988 10.98265.8253 10.44486C70.91804 116.01787 75 120.29117 75 128.37559c0 3.56601 4.40372 13.29924 6.88738 15.22271.78.60406 1.12829 1.56734.77398 2.14061-.3543.57328.47695 1.77692 1.84723 2.67476C85.87886 149.31151 87 150.93573 87 152.02305 87 153.11037 87.64286 154 88.42857 154c.78572 0 2.10703.67845 2.93624 1.50767 1.05781 1.05781 1.71412 1.17364 2.19955.3882.38053-.61571.29416-1.40667-.19193-1.75767-.4861-.35101-2.21397-2.4382-3.83971-4.6382-1.62575-2.2-4.6607-5.70489-6.74431-7.78864-4.13861-4.13887-5.14816-9.33798-2.27608-11.72159 1.10763-.91926 1.22406-1.60247.43509-2.55313-1.80655-2.17676-1.45657-7.59117.5873-9.08568 2.5139-1.83821 8.96575-1.70764 10.89385.22047 1.91003 1.91003 2.06022 6.89312.25848 8.57619-1.07767 1.0067-.98807 1.55136.5 3.03943 2.70822 2.70822 2.32362 7.2661-.8219 9.74037-1.44918 1.13992-3.47418 2.07258-4.5 2.07258-1.02584 0-1.86503.3375-1.8649.75.00015.4125 3.41811 4.0489 7.59549 8.08089 5.3272 5.1418 7.45442 7.86929 7.12372 9.13391-1.01507 3.88161 11.60504 10.05119 21.60456 10.5618 3.53406.18046 6.5088.91711 7.56561 1.87352.95788.86687 3.10223 1.84825 4.76523 2.18085 1.90964.38193 3.67298 1.70401 4.78616 3.58847.9694 1.64107 3.10754 3.80169 4.75141 4.80139l2.98887 1.81764-5.84065 2.19906c-11.83498 4.45599-25.16822 6.07768-39.87476 4.84986zm-11.03582-55.04101c1.31522-1.87774 1.3429-2.50625.18722-4.25-1.81186-2.73383-4.3434-3.10421-6.6917-.97905-2.3364 2.11443-2.43695 3.77845-.35416 5.86124 2.21323 2.21323 5.04869 1.95187 6.85864-.63219zm-19.4359-11.32219c-.98628-4.37309-3.73757-7.13079-5.42785-5.44051-.72157.72157-.15024 2.74286 1.86121 6.58467 3.24678 6.20126 5.08995 5.60998 3.56665-1.14416zM89.8 125.8c3.15352-3.15352-.98241-7.77811-5.05-5.64665-1.7118.897-2.40603 4.85729-1.08333 6.17998 1.08654 1.08655 4.83982.76018 6.13333-.53333zm58.36163 55.32106c-.83176-.52721-1.21817-2.24345-1.02082-4.53404.3407-3.95449-1.01075-5.54448-4.73582-5.57171-1.15226-.008-2.86592-.86715-3.80814-1.90829-1.584-1.7503-1.59395-2.1782-.13204-5.67705 1.91652-4.58688.94881-5.91775-3.67258-5.05077-2.5739.48287-3.63276 1.35997-4.53846 3.75944-1.13761 3.01389-1.35364 3.11021-5.84122 2.60439-2.56295-.28888-5.06374-1.13674-5.55731-1.88413-.49357-.7474-.77542-5.07429-.62632-9.61533.23566-7.17777.52627-8.33814 2.22444-8.88193 4.59668-1.47195 4.81321-2.84484 1.62888-10.3279L119.08912 127h7.45544c4.10049 0 7.45544.16311 7.45544.36246 0 .19936-1.32374 3.57258-2.94165 7.49605-2.81299 6.82155-2.85989 7.17733-1.07244 8.13395 1.98283 1.06118 5.01409.39651 5.01409-1.09945 0-1.222 3.7335-1.13324 4.5.10699.33992.55 1.67967 1 2.97723 1 3.41858 0 5.52277 1.00667 5.52277 2.64217 0 2.16185 3.04577 6.35783 4.61501 6.35783 1.63632 0 1.97675-7.51624.38499-8.5-.55-.33992-1-1.85729-1-3.37193 0-3.01685 3.65484-6.96761 8.25-8.91798 2.0559-.87261 2.75094-1.86673 2.75374-3.93865.005-3.8442 3.45408-9.12283 6.74672-10.32604 6.02736-2.20253 5.89269-2.1065 3.96559-2.82773-1.67296-.62612-1.65561-.80543.279-2.88198 1.13463-1.21788 3.38782-2.89944 5.00709-3.7368 2.5387-1.31281 2.86678-1.32088 2.38239-.0586-1.09276 2.84768.65346 3.66882 3.49667 1.64427 1.50743-1.07339 3.95509-2.25638 5.43924-2.62888 3.18538-.79948 3.90521-1.70411 3.07582-3.86547-.68123-1.77524-3.04296-2.15013-3.57074-.5668-.4076 1.22282-6.82552.14297-6.82552-1.14841 0-.48125.675-.875 1.5-.875 2.05398 0 1.8922-2.9818-.25-4.60795-1.6226-1.23174-1.62622-1.33076-.0497-1.36025.93517-.01749 2.13892.75195 2.675 1.70987.53608.95792 1.29756 1.4188 1.69219 1.02416.39462-.39462.17766-1.36797-.48215-2.16299-.99516-1.1991-.8408-1.35165.90553-.89497 1.38406.36194 2.99201-.26447 4.69411-1.82868L196.27392 89.5l-.58917 2.5c-.32404 1.375-.88813 3.7375-1.25354 5.25-.48385 2.0028-.28551 2.75.72997 2.75 7.9306 0 5.33168 23.0352-4.93896 43.77596-6.56887 13.26533-19.41187 27.13407-32.95235 35.58418-4.38959 2.73938-6.82248 3.20973-9.10824 1.76092zM164.20423 162c1.56987 0-1.17086-2.93673-4.1314-4.42686-3.8347-1.93012-10.85036-2.76257-13.10645-1.55515-3.17184 1.69752-2.28204 2.72203 2.44656 2.81694 2.54633.0511 5.82447.95156 7.75 2.1288 1.83538 1.12213 3.93636 1.81434 4.66885 1.53825.73248-.27609 1.80008-.50198 2.37244-.50198zm-34.84802-29.25l1.54174-3.75h-3.94898c-2.17193 0-3.94897.21589-3.94897.47976 0 .26387.73562 2.31826 1.63471 4.5653 1.79119 4.47664 2.41943 4.30432 4.7215-1.29506zM225 93.5V35h26.58909l11.45545 21.41442c6.3005 11.77793 11.62937 21.24152 11.84192 21.0302.21256-.21131 5.41122-9.7353 11.55259-21.16441L297.60517 35.5l13.19742-.27902L324 34.94195V152h-27.97191l-.26404-31.75L295.5 88.5l-8.65253 16.5c-8.38931 15.99805-8.75457 16.509-12.00696 16.79588l-3.35443.29587-8.49304-16.10637L254.5 89.87901l-.26425 31.06049L253.97151 152H225zm25.23783 17.25L250.5 73.5 262 95.42525c6.325 12.05889 11.95 22.07092 12.5 22.24896.55.17805 6.4-10.00512 13-22.62926l12-22.95298.26188 37.95401L300.02377 148H321V39h-20.77197L288.0235 61.75c-6.71249 12.5125-12.54201 23.10571-12.95449 23.54048-.41248.43476-6.33773-9.69024-13.16722-22.5L249.48454 39.5l-10.24227-.28498L229 38.93003V148h20.97566zM331 104V56h56v20h-32v17h29v20h-29v19h32v20h-56zm53 38v-6h-32v-27h29V97h-29V72h31V60h-48v88h49zm26-28V76h-19V56h62v20h-19v76h-24zm21-4V72h18V60h-54v12h19v76h17zm29-16.604V34.792l23.75.4556c21.64374.41519 24.3253.66137 30.23709 2.77587 8.27827 2.96093 15.86129 10.17461 18.38027 17.48502 3.9636 11.50293 2.92175 26.4904-2.42786 34.92586-5.8271 9.18838-14.81865 13.30429-31.1895 14.2771l-9.75.57938V152h-29zm25 31.22725v-23.37674l11.75-.4773c23.35735-.9488 32.90761-8.76391 34.03853-27.85419.67376-11.37343-1.55745-18.04866-8.19213-24.50884-8.15276-7.93831-11.16457-8.68773-36.8464-9.16827L464 38.83094V148h21zm0-54.10406V54.7814l7.25.39701c12.65337.6929 17.20073 4.70768 17.23154 15.2134.0328 11.1863-3.71089 14.6333-16.73154 15.40552l-7.75.45964zm15.53848 10.02918c4.19056-1.75093 5.8204-5.35812 5.15814-11.41607-.69417-6.3499-4.03914-9.3303-11.13169-9.91847L489 58.75234V82h4.03212c2.21766 0 5.59553-.65323 7.50636-1.45163zM564 130.4767v-21.52329L550.5 83C543.075 68.72562 537 56.8111 537 56.52329 537 56.23548 542.97096 56 550.26881 56h13.26881l6.05958 12.16675 6.05957 12.16675 4.76432-11.41675c2.62038-6.27921 5.09662-11.76826 5.50275-12.19789.40614-.42962 6.4183-.65462 13.36037-.5l12.62193.28114-11.93107 26-11.93106 26-.022 21.75L588 152h-24zm21-3.59463v-21.11793l3.9144-8.63207c2.15292-4.74765 6.85264-15.04458 10.44382-22.88208L605.88764 60h-17.48146l-4.39261 10.75c-2.41594 5.9125-5.23014 12.66645-6.25377 15.00877l-1.86115 4.25878-7.4268-15.00877L561.04504 60H542.93l4.90264 9.25c2.69646 5.0875 8.33721 15.85913 12.53501 23.93696L568 107.87392V148h17zm-430.58484-7.70675l.69715-12.82467-6.06255-1.8356c-3.33441-1.00957-5.87433-2.02383-5.64426-2.25389.38907-.38907 22.68716 6.50532 23.43165 7.24487.45302.45003-11.86107 22.49396-12.56547 22.49396-.30452 0-.23996-5.7711.14348-12.82467zm-30.36948 5.37971c-.65956-.79472-1.05216-2.48222-.87244-3.75.42153-2.97353 4.65631-3.75862 6.52073-1.20888 1.67874 2.29582 1.64431 2.9227-.2654 4.83241-1.95871 1.95872-3.82585 2.00258-5.38289.12647zm0-9c-.65956-.79472-1.05216-2.48222-.87244-3.75.42153-2.97353 4.65631-3.75862 6.52073-1.20888 1.67874 2.29582 1.64431 2.9227-.2654 4.83241-1.95871 1.95872-3.82585 2.00258-5.38289.12647zM70 96.5c0-6.33333-.39683-10.5-1-10.5-.55 0-1-.45-1-1 0-.58372 3.34575-1 8.03726-1h8.03726l-4.07699 6.00364-4.077 6.00363 2.78974 3.49634c1.53435 1.92298 3.12723 3.49634 3.53973 3.49636.4125.00002.75.67503.75 1.50003 0 2.5529-1.71218 1.68638-6.42182-3.25l-4.53182-4.75-.02318 5.25C72.01043 104.6375 71.55 107 71 107c-.60318 0-1-4.16667-1-10.5zm5.95196-4.93018c1.67642-2.4366 3.04804-4.6866 3.04804-5C79 86.25642 77.425 86 75.5 86H72v5c0 2.75.20338 5 .45196 5 .24858 0 1.82358-1.99358 3.5-4.43018zm24.61924 9.0621C97.28336 97.53109 97 96.80905 97 91.53192c0-5.18532.32423-6.05615 3.4-9.13192 2.77421-2.7742 4.16377-3.4 7.54966-3.4C115.86886 79 121 83.86247 121 91.367c0 1.90649.5625 3.6933 1.25 3.97072.81639.32942.70156.53177-.33102.58333-.86956.04342-2.14233 1.12776-2.82836 2.40963C117.30099 101.67463 112.82044 104 108.16691 104c-3.19587 0-4.75981-.69348-7.59571-3.36808zM108 91.5c0-13.16602-.68872-14.01127-6.6-8.1-2.90213 2.90213-3.4 4.08824-3.4 8.1s.49787 5.19787 3.4 8.1c5.91128 5.91128 6.6 5.06602 6.6-8.1zm6.03273 9.98307C117.00158 99.94782 120 95.43272 120 92.4974c0-1.30419-.97575-1.54574-5.25-1.29966L109.5 91.5l-.2999 5.75c-.32761 6.28121.11769 6.67126 4.83263 4.23307zm26.3006-.14974c.36667-.36666.96667-.36666 1.33334 0 .36666.36667.06666.66667-.66667.66667s-1.03333-.3-.66667-.66667zM131.5 99c-2.75-1.01475-4.325-1.845-3.5-1.845.825 0 3.75.83025 6.5 1.845 2.75 1.01475 4.325 1.84499 3.5 1.84499-.825 0-3.75-.83024-6.5-1.84499zm-7.16667-2.66667c.36667-.36666.96667-.36666 1.33334 0C126.03333 96.7 125.73333 97 125 97s-1.03333-.3-.66667-.66667zM199 92.5c0-.275.225-.5.5-.5s.5.225.5.5-.225.5-.5.5-.5-.225-.5-.5zm-48.34501-6.32874C149.74474 85.16546 149 82.92583 149 81.1943c0-2.1956-.70679-3.61131-2.33582-4.6787C143.81241 74.64708 137.45901 66 138.93786 66 139.52204 66 140 64.875 140 63.5c0-1.55556.56667-2.5 1.5-2.5.825 0 1.5-.675 1.5-1.5s-.675-1.5-1.5-1.5c-1.05236 0-1.5-1.06211-1.5-3.55902 0-2.43056.36517-3.33333 1.1517-2.84722.63344.39148 1.74081-.09385 2.46082-1.07853 1.14475-1.56553 1.69073-1.63226 4.3483-.53146C150.85898 51.18423 151 51.51542 151 57.12132 151 62.72525 150.88316 63 148.5 63c-1.55556 0-2.5.56667-2.5 1.5 0 1.11111 1.16667 1.5 4.5 1.5 3.16667 0 5.09259.5926 6.5 2 2.66011 2.6601 2.5218 4.6271-.61448 8.73897-2.17275 2.84863-2.50866 4.0895-1.98818 7.3444.70551 4.41202-.85244 5.28121-3.74235 2.08789zM146.41821 54.393C148.60639 53.55333 148.40437 52 146.10699 52c-1.04116 0-2.15203.675-2.46862 1.5-.61456 1.60154.22806 1.87222 2.77984.89301zM194 82.07546c1.2807-.95046 1.09614-1.41636-1.26244-3.1868-1.5424-1.15778-4.32898-5.4556-6.30941-9.73113L182.88119 61.5l-2.88934 3.5c-2.41268 2.9226-3.18649 3.3184-4.69059 2.39914-.99069-.60548-1.94405-2.29708-2.11856-3.75913-.20653-1.73025-1.31993-3.17674-3.1893-4.14342-1.57959-.81684-3.46597-2.3332-4.19195-3.36967-.9212-1.3152-2.58532-1.90197-5.5085-1.94231l-4.18855-.05781-.40195 4.6866c-.26574 3.09849-.40195 2.24525-.40195-2.51795-.00001-7.1191.0359-7.21706 3.02474-8.25899 2.76427-.96363 3.42406-.71772 7.6619 2.85568C169.90733 54.1977 178 57.88891 178 56.37143c0-.25705-1.2375-1.55656-2.75-2.8878-3.919-3.44933-2.24957-3.05944 2.26625.52928 3.76284 2.99033 5.85618 3.3457 3.58451.6085-.91937-1.10777-.89532-1.54455.1075-1.95287.87676-.35699.28006-1.43231-1.85739-3.34725-3.21508-2.88037-5.89208-7.11341-5.03843-7.96707.67356-.67356 7.36451 6.35719 10.8506 11.40164C190.8471 60.98086 199.37493 82 197.02789 82c-.47537 0-1.68862.26745-2.6961.59433-1.53722.49876-1.59057.41532-.33179-.51887zM73.1325 77.5c1.13578-1.925 2.23405-3.5 2.4406-3.5C76.00822 74 79 79.63133 79 80.45034 79 80.75265 77.21518 81 75.03373 81h-3.96628zM76 78.5c0-.275-.225-.5-.5-.5s-.5.225-.5.5.225.5.5.5.5-.225.5-.5zm47.25454-10.02229c-.71792-2.33918-.76183-4.67827-.13075-6.96386C124.22606 57.52174 126 55.93489 126 58.94098 126 60.74514 126.6189 61 131 61c4.33333 0 5 .26667 5 2 0 1.5191-.66667 2-2.7726 2-2.14299 0-3.20061.79478-4.65747 3.5-2.39128 4.44035-3.94777 4.43383-5.31539-.02229zM55 67.41032c0-.87432 2.47298-4.36182 5.4955-7.75 6.3464-7.11413 7.31479-11.16786 2.93076-12.26818-1.41556-.35529-3.68673-.13886-5.04706.48094C55.12595 49.35537 55 49.32572 55 47.07755c0-2.33113 5.84246-4.56557 9.2343-3.53164 7.29205 2.22283 7.73703 7.98554 1.20632 15.62243L60.88125 64.5l4.55937.3048c3.74545.25037 4.55938.65204 4.55938 2.25C70 68.80882 69.26292 69 62.5 69c-6.18804 0-7.5-.27808-7.5-1.58967zm23.79503.38419c-2.45143-1.86126-3.79558-6.15457-3.7913-12.10961.0084-11.66398 9.0612-16.6202 14.68377-8.03908 2.52072 3.8471 2.31467 14.53138-.34934 18.11456-2.31601 3.1151-7.74088 4.16175-10.54313 2.03413zm7.86166-5.51528c1.67305-4.00418 1.25436-11.47656-.78044-13.92834-1.6249-1.95788-4.64232-1.65651-5.84107.58337-1.59257 2.97575-1.26523 12.29228.52152 14.84323 2.26778 3.2377 4.33314 2.73041 6.1-1.49826zM132.622 53.75c1.45591-2.3375 2.81155-4.4375 3.01255-4.66667.201-.22916.36545 1.68334.36545 4.25C136 57.85617 135.90715 58 132.98746 58h-3.01255zM127 55.5c0-.275.225-.5.5-.5s.5.225.5.5-.225.5-.5.5-.5-.225-.5-.5zm23-7c0-.275.225-.5.5-.5s.5.225.5.5-.225.5-.5.5-.5-.225-.5-.5zm5-3.51746c0-.93188-1.4363-1.1141-5.4865-.69609-3.01757.31144-5.74413.1494-6.05902-.3601-.31488-.5095.12904-.92635.9865-.92635.89235 0 1.55902-.85524 1.55902-2 0-1.1.36694-2 .81543-2s.72395-1.9125.61213-4.25c-.16708-3.49293-.71314-4.5608-3.06543-5.99474L141.5 27.01054l3.55-.0053c1.9525-.0029 4.14625.55723 4.875 1.24473 1.06 1 1.41667 1 1.78333 0 1.08042-2.94658 3.99101-.58491 12.20854 9.90603l2.08046 2.65604-2.1566-.56397c-1.83346-.47946-2.06963-.23143-1.57622 1.65537.48738 1.86376.21452 2.1714-1.70305 1.92011-1.25587-.16458-3.02097.3129-3.92243 1.06104-1.26806 1.05243-1.63903 1.0746-1.63903.09796zm3.87812-7.88605c1.30436-.82617.79416-3.114-.68714-3.08118-1.64411.03644-3.38999 1.85367-2.76008 2.87289.82089 1.32822 1.60433 1.37556 3.44722.2083zm8.45521 4.23684c.36667-.36666.96667-.36666 1.33334 0C169.03333 41.7 168.73333 42 168 42s-1.03333-.3-.66667-.66667zm-70.4183-3.62921c-1.30654-1.7118-2.52215-2.03384-6.9199-1.83317-4.71248.21502-5.1853.06312-4.05241-1.30193 1.52385-1.83613 1.04027-2.06649-6.44272-3.06899-10.67852-1.43061-12.4995-1.46285-12.5318-.22186-.0175.672-.74413.32183-1.61476-.77817-1.09667-1.3856-1.72689-1.616-2.05153-.75-.25771.6875-1.25263 1.25-2.21093 1.25-.9583 0-2.80483 1.13096-4.10342 2.51324-1.5268 1.62521-2.70412 2.1702-3.33193 1.54239-1.45115-1.45115.65363-3.48303 8.99065-8.67927C77.31103 17.23623 92.64432 13 111.06288 13h11.14719l-.5361 3.75c-.29486 2.0625-.76248 5.0784-1.03915 6.702-.36965 2.16914.01 3.31125 1.43106 4.3067 2.32327 1.62728 2.55606 5.78866.37074 6.62725-.8751.3358-1.24733 1.11131-.84549 1.7615.41642.67379.28376.89326-.31591.52264-1.3709-.84726-2.33813-4.67009-1.1816-4.67009 1.36621 0 1.08756-2.60474-.41177-3.84908-.97202-.8067-1.89108-.69267-3.5.43426-2.80742 1.9664-2.78006 3.38398.0682 3.53082 1.69317.0873 1.81691.22918.5.57333-.9625.25152-1.75.87432-1.75 1.384 0 1.48236-8.31022 1.00663-10.43014-.5971-1.70633-1.29084-2.1428-1.2677-3.76414.19959-1.05669.95629-1.59884 2.40063-1.27918 3.4078.82731 2.60664-.8004 2.99338-2.6115.6205zm38.48948-1.85863c-.4782-.77374-.25031-.89026.69098-.3533 1.09499.62465 1.14626.52166.23265-.46734-.64452-.6977-.93533-1.88493-.64624-2.63828.72466-1.88843-2.65529-3.03881-3.76751-1.28229-.72116 1.13892-.88658 1.0952-.89908-.23765-.008-.89835-.96272-1.88112-2.12067-2.18393-1.15794-.30281-1.91093-1.13382-1.67331-1.84668.23762-.71287-.44473-2.00608-1.51633-2.87381-1.53857-1.24586-1.79908-2.2574-1.23857-4.80937.57077-2.59868 1.08429-3.11282 2.62168-2.62487 1.0674.33877 1.91189.13533 1.91189-.46058 0-.58707.68357-1.06739 1.51905-1.06739 1.13309 0 1.35471.65478.87226 2.57705-.86383 3.44176 1.22599 7.09389 4.76525 8.32768 1.5784.55023 3.16856 1.80926 3.53369 2.79785.36512.98858 1.14669 2.12803 1.73681 2.5321.65903.45127.43965.7406-.56865.75-.90997.0085-1.92124 1.12952-2.26905 2.51532-.66916 2.66612-2.01679 3.23545-3.18485 1.3455zM135 23.5c0-.275.225-.5.5-.5s.5.225.5.5-.225.5-.5.5-.5-.225-.5-.5zm4.16742-1.78695c-1.7011-2.06415-1.18895-4.98666.67007-3.82363.73562.46022 1.18562 1.87263 1 3.13869-.30334 2.069-.47233 2.1383-1.67007.68494zM123 16.5c0-.275.225-.5.5-.5s.5.225.5.5-.225.5-.5.5-.5-.225-.5-.5z"/><path fill="#17a04f" d="M101.46589 191.83739c-11.00715-.91896-19.34536-3.21745-29.96589-8.26033-40.46227-19.21242-60.40735-65.48336-46.68536-108.30617L27.62516 66.5l3.43742.30415c5.92982.5247 11.92944 3.4297 11.93367 5.77826C43.00012 74.73227 50.43374 82 52.6288 82c1.8132 0 5.6566 6.80066 5.08301 8.99406-.32983 1.2613.28574 2.42953 1.80456 3.4247 2.97627 1.95013 4.85974 7.72318 4.04635 12.40254-1.96333 11.29483-1.988 10.98265.8253 10.44486C70.91804 116.01787 75 120.29117 75 128.37559c0 3.56601 4.40372 13.29924 6.88738 15.22271.78.60406 1.12829 1.56734.77398 2.14061-.3543.57328.47695 1.77692 1.84723 2.67476C85.87886 149.31151 87 150.93573 87 152.02305 87 153.11037 87.64286 154 88.42857 154c.78572 0 2.10703.67845 2.93624 1.50767 1.05781 1.05781 1.71412 1.17364 2.19955.3882.38053-.61571.29416-1.40667-.19193-1.75767-.4861-.35101-2.21397-2.4382-3.83971-4.6382-1.62575-2.2-4.6607-5.70489-6.74431-7.78864-4.13861-4.13887-5.14816-9.33798-2.27608-11.72159 1.10763-.91926 1.22406-1.60247.43509-2.55313-1.80655-2.17676-1.45657-7.59117.5873-9.08568 2.5139-1.83821 8.96575-1.70764 10.89385.22047 1.91003 1.91003 2.06022 6.89312.25848 8.57619-1.07767 1.0067-.98807 1.55136.5 3.03943 2.70822 2.70822 2.32362 7.2661-.8219 9.74037-1.44918 1.13992-3.47418 2.07258-4.5 2.07258-1.02584 0-1.86503.3375-1.8649.75.00015.4125 3.41811 4.0489 7.59549 8.08089 5.3272 5.1418 7.45442 7.86929 7.12372 9.13391-1.01507 3.88161 11.60504 10.05119 21.60456 10.5618 3.53406.18046 6.5088.91711 7.56561 1.87352.95788.86687 3.10223 1.84825 4.76523 2.18085 1.90964.38193 3.67298 1.70401 4.78616 3.58847.9694 1.64107 3.10754 3.80169 4.75141 4.80139l2.98887 1.81764-5.84065 2.19906c-11.83498 4.45599-25.16822 6.07768-39.87476 4.84986zm-11.03582-55.04101c1.31522-1.87774 1.3429-2.50625.18722-4.25-1.81186-2.73383-4.3434-3.10421-6.6917-.97905-2.3364 2.11443-2.43695 3.77845-.35416 5.86124 2.21323 2.21323 5.04869 1.95187 6.85864-.63219zm-19.4359-11.32219c-.98628-4.37309-3.73757-7.13079-5.42785-5.44051-.72157.72157-.15024 2.74286 1.86121 6.58467 3.24678 6.20126 5.08995 5.60998 3.56665-1.14416zM89.8 125.8c3.15352-3.15352-.98241-7.77811-5.05-5.64665-1.7118.897-2.40603 4.85729-1.08333 6.17998 1.08654 1.08655 4.83982.76018 6.13333-.53333zm58.36163 55.32106c-.83176-.52721-1.21817-2.24345-1.02082-4.53404.3407-3.95449-1.01075-5.54448-4.73582-5.57171-1.15226-.008-2.86592-.86715-3.80814-1.90829-1.584-1.7503-1.59395-2.1782-.13204-5.67705 1.91652-4.58688.94881-5.91775-3.67258-5.05077-2.5739.48287-3.63276 1.35997-4.53846 3.75944-1.13761 3.01389-1.35364 3.11021-5.84122 2.60439-2.56295-.28888-5.06374-1.13674-5.55731-1.88413-.49357-.7474-.77542-5.07429-.62632-9.61533.23566-7.17777.52627-8.33814 2.22444-8.88193 4.59668-1.47195 4.81321-2.84484 1.62888-10.3279L119.08912 127h7.45544c4.10049 0 7.45544.16311 7.45544.36246 0 .19936-1.32374 3.57258-2.94165 7.49605-2.81299 6.82155-2.85989 7.17733-1.07244 8.13395 1.98283 1.06118 5.01409.39651 5.01409-1.09945 0-1.222 3.7335-1.13324 4.5.10699.33992.55 1.67967 1 2.97723 1 3.41858 0 5.52277 1.00667 5.52277 2.64217 0 2.16185 3.04577 6.35783 4.61501 6.35783 1.63632 0 1.97675-7.51624.38499-8.5-.55-.33992-1-1.85729-1-3.37193 0-3.01685 3.65484-6.96761 8.25-8.91798 2.0559-.87261 2.75094-1.86673 2.75374-3.93865.005-3.8442 3.45408-9.12283 6.74672-10.32604 6.02736-2.20253 5.89269-2.1065 3.96559-2.82773-1.67296-.62612-1.65561-.80543.279-2.88198 1.13463-1.21788 3.38782-2.89944 5.00709-3.7368 2.5387-1.31281 2.86678-1.32088 2.38239-.0586-1.09276 2.84768.65346 3.66882 3.49667 1.64427 1.50743-1.07339 3.95509-2.25638 5.43924-2.62888 3.18538-.79948 3.90521-1.70411 3.07582-3.86547-.68123-1.77524-3.04296-2.15013-3.57074-.5668-.4076 1.22282-6.82552.14297-6.82552-1.14841 0-.48125.675-.875 1.5-.875 2.05398 0 1.8922-2.9818-.25-4.60795-1.6226-1.23174-1.62622-1.33076-.0497-1.36025.93517-.01749 2.13892.75195 2.675 1.70987.53608.95792 1.29756 1.4188 1.69219 1.02416.39462-.39462.17766-1.36797-.48215-2.16299-.99516-1.1991-.8408-1.35165.90553-.89497 1.38406.36194 2.99201-.26447 4.69411-1.82868L196.27392 89.5l-.58917 2.5c-.32404 1.375-.88813 3.7375-1.25354 5.25-.48385 2.0028-.28551 2.75.72997 2.75 7.9306 0 5.33168 23.0352-4.93896 43.77596-6.56887 13.26533-19.41187 27.13407-32.95235 35.58418-4.38959 2.73938-6.82248 3.20973-9.10824 1.76092zM164.20423 162c1.56987 0-1.17086-2.93673-4.1314-4.42686-3.8347-1.93012-10.85036-2.76257-13.10645-1.55515-3.17184 1.69752-2.28204 2.72203 2.44656 2.81694 2.54633.0511 5.82447.95156 7.75 2.1288 1.83538 1.12213 3.93636 1.81434 4.66885 1.53825.73248-.27609 1.80008-.50198 2.37244-.50198zm-34.84802-29.25l1.54174-3.75h-3.94898c-2.17193 0-3.94897.21589-3.94897.47976 0 .26387.73562 2.31826 1.63471 4.5653 1.79119 4.47664 2.41943 4.30432 4.7215-1.29506zM225 93.5V35h26.58909l11.45545 21.41442c6.3005 11.77793 11.62937 21.24152 11.84192 21.0302.21256-.21131 5.41122-9.7353 11.55259-21.16441L297.60517 35.5l13.19742-.27902L324 34.94195V152h-27.97191l-.26404-31.75L295.5 88.5l-8.65253 16.5c-8.38931 15.99805-8.75457 16.509-12.00696 16.79588l-3.35443.29587-8.49304-16.10637L254.5 89.87901l-.26425 31.06049L253.97151 152H225zm25.23783 17.25L250.5 73.5 262 95.42525c6.325 12.05889 11.95 22.07092 12.5 22.24896.55.17805 6.4-10.00512 13-22.62926l12-22.95298.26188 37.95401L300.02377 148H321V39h-20.77197L288.0235 61.75c-6.71249 12.5125-12.54201 23.10571-12.95449 23.54048-.41248.43476-6.33773-9.69024-13.16722-22.5L249.48454 39.5l-10.24227-.28498L229 38.93003V148h20.97566zM331 104V56h56v20h-32v17h29v20h-29v19h32v20h-56zm53 38v-6h-32v-27h29V97h-29V72h31V60h-48v88h49zm26-28V76h-19V56h62v20h-19v76h-24zm21-4V72h18V60h-54v12h19v76h17zm29-16.604V34.792l23.75.4556c21.64374.41519 24.3253.66137 30.23709 2.77587 8.27827 2.96093 15.86129 10.17461 18.38027 17.48502 3.9636 11.50293 2.92175 26.4904-2.42786 34.92586-5.8271 9.18838-14.81865 13.30429-31.1895 14.2771l-9.75.57938V152h-29zm25 31.22725v-23.37674l11.75-.4773c23.35735-.9488 32.90761-8.76391 34.03853-27.85419.67376-11.37343-1.55745-18.04866-8.19213-24.50884-8.15276-7.93831-11.16457-8.68773-36.8464-9.16827L464 38.83094V148h21zm0-54.10406V54.7814l7.25.39701c12.65337.6929 17.20073 4.70768 17.23154 15.2134.0328 11.1863-3.71089 14.6333-16.73154 15.40552l-7.75.45964zm15.53848 10.02918c4.19056-1.75093 5.8204-5.35812 5.15814-11.41607-.69417-6.3499-4.03914-9.3303-11.13169-9.91847L489 58.75234V82h4.03212c2.21766 0 5.59553-.65323 7.50636-1.45163zM564 130.4767v-21.52329L550.5 83C543.075 68.72562 537 56.8111 537 56.52329 537 56.23548 542.97096 56 550.26881 56h13.26881l6.05958 12.16675 6.05957 12.16675 4.76432-11.41675c2.62038-6.27921 5.09662-11.76826 5.50275-12.19789.40614-.42962 6.4183-.65462 13.36037-.5l12.62193.28114-11.93107 26-11.93106 26-.022 21.75L588 152h-24zm21-3.59463v-21.11793l3.9144-8.63207c2.15292-4.74765 6.85264-15.04458 10.44382-22.88208L605.88764 60h-17.48146l-4.39261 10.75c-2.41594 5.9125-5.23014 12.66645-6.25377 15.00877l-1.86115 4.25878-7.4268-15.00877L561.04504 60H542.93l4.90264 9.25c2.69646 5.0875 8.33721 15.85913 12.53501 23.93696L568 107.87392V148h17zm-430.58484-7.70675l.69715-12.82467-6.06255-1.8356c-3.33441-1.00957-5.87433-2.02383-5.64426-2.25389.38907-.38907 22.68716 6.50532 23.43165 7.24487.45302.45003-11.86107 22.49396-12.56547 22.49396-.30452 0-.23996-5.7711.14348-12.82467zm-30.36948 5.37971c-.65956-.79472-1.05216-2.48222-.87244-3.75.42153-2.97353 4.65631-3.75862 6.52073-1.20888 1.67874 2.29582 1.64431 2.9227-.2654 4.83241-1.95871 1.95872-3.82585 2.00258-5.38289.12647zm0-9c-.65956-.79472-1.05216-2.48222-.87244-3.75.42153-2.97353 4.65631-3.75862 6.52073-1.20888 1.67874 2.29582 1.64431 2.9227-.2654 4.83241-1.95871 1.95872-3.82585 2.00258-5.38289.12647zM70 96.5c0-6.33333-.39683-10.5-1-10.5-.55 0-1-.45-1-1 0-.58372 3.34575-1 8.03726-1h8.03726l-4.07699 6.00364-4.077 6.00363 2.78974 3.49634c1.53435 1.92298 3.12723 3.49634 3.53973 3.49636.4125.00002.75.67503.75 1.50003 0 2.5529-1.71218 1.68638-6.42182-3.25l-4.53182-4.75-.02318 5.25C72.01043 104.6375 71.55 107 71 107c-.60318 0-1-4.16667-1-10.5zm5.95196-4.93018c1.67642-2.4366 3.04804-4.6866 3.04804-5C79 86.25642 77.425 86 75.5 86H72v5c0 2.75.20338 5 .45196 5 .24858 0 1.82358-1.99358 3.5-4.43018zm24.61924 9.0621C97.28336 97.53109 97 96.80905 97 91.53192c0-5.18532.32423-6.05615 3.4-9.13192 2.77421-2.7742 4.16377-3.4 7.54966-3.4C115.86886 79 121 83.86247 121 91.367c0 1.90649.5625 3.6933 1.25 3.97072.81639.32942.70156.53177-.33102.58333-.86956.04342-2.14233 1.12776-2.82836 2.40963C117.30099 101.67463 112.82044 104 108.16691 104c-3.19587 0-4.75981-.69348-7.59571-3.36808zM108 91.5c0-13.16602-.68872-14.01127-6.6-8.1-2.90213 2.90213-3.4 4.08824-3.4 8.1s.49787 5.19787 3.4 8.1c5.91128 5.91128 6.6 5.06602 6.6-8.1zm6.03273 9.98307C117.00158 99.94782 120 95.43272 120 92.4974c0-1.30419-.97575-1.54574-5.25-1.29966L109.5 91.5l-.2999 5.75c-.32761 6.28121.11769 6.67126 4.83263 4.23307zm26.3006-.14974c.36667-.36666.96667-.36666 1.33334 0 .36666.36667.06666.66667-.66667.66667s-1.03333-.3-.66667-.66667zM131.5 99c-2.75-1.01475-4.325-1.845-3.5-1.845.825 0 3.75.83025 6.5 1.845 2.75 1.01475 4.325 1.84499 3.5 1.84499-.825 0-3.75-.83024-6.5-1.84499zm-7.16667-2.66667c.36667-.36666.96667-.36666 1.33334 0C126.03333 96.7 125.73333 97 125 97s-1.03333-.3-.66667-.66667zM199 92.5c0-.275.225-.5.5-.5s.5.225.5.5-.225.5-.5.5-.5-.225-.5-.5zm-48.34501-6.32874C149.74474 85.16546 149 82.92583 149 81.1943c0-2.1956-.70679-3.61131-2.33582-4.6787C143.81241 74.64708 137.45901 66 138.93786 66 139.52204 66 140 64.875 140 63.5c0-1.55556.56667-2.5 1.5-2.5.825 0 1.5-.675 1.5-1.5s-.675-1.5-1.5-1.5c-1.05236 0-1.5-1.06211-1.5-3.55902 0-2.43056.36517-3.33333 1.1517-2.84722.63344.39148 1.74081-.09385 2.46082-1.07853 1.14475-1.56553 1.69073-1.63226 4.3483-.53146C150.85898 51.18423 151 51.51542 151 57.12132 151 62.72525 150.88316 63 148.5 63c-1.55556 0-2.5.56667-2.5 1.5 0 1.11111 1.16667 1.5 4.5 1.5 3.16667 0 5.09259.5926 6.5 2 2.66011 2.6601 2.5218 4.6271-.61448 8.73897-2.17275 2.84863-2.50866 4.0895-1.98818 7.3444.70551 4.41202-.85244 5.28121-3.74235 2.08789zM146.41821 54.393C148.60639 53.55333 148.40437 52 146.10699 52c-1.04116 0-2.15203.675-2.46862 1.5-.61456 1.60154.22806 1.87222 2.77984.89301zM194 82.07546c1.2807-.95046 1.09614-1.41636-1.26244-3.1868-1.5424-1.15778-4.32898-5.4556-6.30941-9.73113L182.88119 61.5l-2.88934 3.5c-2.41268 2.9226-3.18649 3.3184-4.69059 2.39914-.99069-.60548-1.94405-2.29708-2.11856-3.75913-.20653-1.73025-1.31993-3.17674-3.1893-4.14342-1.57959-.81684-3.46597-2.3332-4.19195-3.36967-.9212-1.3152-2.58532-1.90197-5.5085-1.94231l-4.18855-.05781-.40195 4.6866c-.26574 3.09849-.40195 2.24525-.40195-2.51795-.00001-7.1191.0359-7.21706 3.02474-8.25899 2.76427-.96363 3.42406-.71772 7.6619 2.85568C169.90733 54.1977 178 57.88891 178 56.37143c0-.25705-1.2375-1.55656-2.75-2.8878-3.919-3.44933-2.24957-3.05944 2.26625.52928 3.76284 2.99033 5.85618 3.3457 3.58451.6085-.91937-1.10777-.89532-1.54455.1075-1.95287.87676-.35699.28006-1.43231-1.85739-3.34725-3.21508-2.88037-5.89208-7.11341-5.03843-7.96707.67356-.67356 7.36451 6.35719 10.8506 11.40164C190.8471 60.98086 199.37493 82 197.02789 82c-.47537 0-1.68862.26745-2.6961.59433-1.53722.49876-1.59057.41532-.33179-.51887zM73.1325 77.5c1.13578-1.925 2.23405-3.5 2.4406-3.5C76.00822 74 79 79.63133 79 80.45034 79 80.75265 77.21518 81 75.03373 81h-3.96628zM76 78.5c0-.275-.225-.5-.5-.5s-.5.225-.5.5.225.5.5.5.5-.225.5-.5zm47.25454-10.02229c-.71792-2.33918-.76183-4.67827-.13075-6.96386C124.22606 57.52174 126 55.93489 126 58.94098 126 60.74514 126.6189 61 131 61c4.33333 0 5 .26667 5 2 0 1.5191-.66667 2-2.7726 2-2.14299 0-3.20061.79478-4.65747 3.5-2.39128 4.44035-3.94777 4.43383-5.31539-.02229zM132.622 53.75c1.45591-2.3375 2.81155-4.4375 3.01255-4.66667.201-.22916.36545 1.68334.36545 4.25C136 57.85617 135.90715 58 132.98746 58h-3.01255zM127 55.5c0-.275.225-.5.5-.5s.5.225.5.5-.225.5-.5.5-.5-.225-.5-.5zm23-7c0-.275.225-.5.5-.5s.5.225.5.5-.225.5-.5.5-.5-.225-.5-.5zm5-3.51746c0-.93188-1.4363-1.1141-5.4865-.69609-3.01757.31144-5.74413.1494-6.05902-.3601-.31488-.5095.12904-.92635.9865-.92635.89235 0 1.55902-.85524 1.55902-2 0-1.1.36694-2 .81543-2s.72395-1.9125.61213-4.25c-.16708-3.49293-.71314-4.5608-3.06543-5.99474L141.5 27.01054l3.55-.0053c1.9525-.0029 4.14625.55723 4.875 1.24473 1.06 1 1.41667 1 1.78333 0 1.08042-2.94658 3.99101-.58491 12.20854 9.90603l2.08046 2.65604-2.1566-.56397c-1.83346-.47946-2.06963-.23143-1.57622 1.65537.48738 1.86376.21452 2.1714-1.70305 1.92011-1.25587-.16458-3.02097.3129-3.92243 1.06104-1.26806 1.05243-1.63903 1.0746-1.63903.09796zm3.87812-7.88605c1.30436-.82617.79416-3.114-.68714-3.08118-1.64411.03644-3.38999 1.85367-2.76008 2.87289.82089 1.32822 1.60433 1.37556 3.44722.2083zm8.45521 4.23684c.36667-.36666.96667-.36666 1.33334 0C169.03333 41.7 168.73333 42 168 42s-1.03333-.3-.66667-.66667zm-70.4183-3.62921c-1.30654-1.7118-2.52215-2.03384-6.9199-1.83317-4.71248.21502-5.1853.06312-4.05241-1.30193 1.52385-1.83613 1.04027-2.06649-6.44272-3.06899-10.67852-1.43061-12.4995-1.46285-12.5318-.22186-.0175.672-.74413.32183-1.61476-.77817-1.09667-1.3856-1.72689-1.616-2.05153-.75-.25771.6875-1.25263 1.25-2.21093 1.25-.9583 0-2.80483 1.13096-4.10342 2.51324-1.5268 1.62521-2.70412 2.1702-3.33193 1.54239-1.45115-1.45115.65363-3.48303 8.99065-8.67927C77.31103 17.23623 92.64432 13 111.06288 13h11.14719l-.5361 3.75c-.29486 2.0625-.76248 5.0784-1.03915 6.702-.36965 2.16914.01 3.31125 1.43106 4.3067 2.32327 1.62728 2.55606 5.78866.37074 6.62725-.8751.3358-1.24733 1.11131-.84549 1.7615.41642.67379.28376.89326-.31591.52264-1.3709-.84726-2.33813-4.67009-1.1816-4.67009 1.36621 0 1.08756-2.60474-.41177-3.84908-.97202-.8067-1.89108-.69267-3.5.43426-2.80742 1.9664-2.78006 3.38398.0682 3.53082 1.69317.0873 1.81691.22918.5.57333-.9625.25152-1.75.87432-1.75 1.384 0 1.48236-8.31022 1.00663-10.43014-.5971-1.70633-1.29084-2.1428-1.2677-3.76414.19959-1.05669.95629-1.59884 2.40063-1.27918 3.4078.82731 2.60664-.8004 2.99338-2.6115.6205zm38.48948-1.85863c-.4782-.77374-.25031-.89026.69098-.3533 1.09499.62465 1.14626.52166.23265-.46734-.64452-.6977-.93533-1.88493-.64624-2.63828.72466-1.88843-2.65529-3.03881-3.76751-1.28229-.72116 1.13892-.88658 1.0952-.89908-.23765-.008-.89835-.96272-1.88112-2.12067-2.18393-1.15794-.30281-1.91093-1.13382-1.67331-1.84668.23762-.71287-.44473-2.00608-1.51633-2.87381-1.53857-1.24586-1.79908-2.2574-1.23857-4.80937.57077-2.59868 1.08429-3.11282 2.62168-2.62487 1.0674.33877 1.91189.13533 1.91189-.46058 0-.58707.68357-1.06739 1.51905-1.06739 1.13309 0 1.35471.65478.87226 2.57705-.86383 3.44176 1.22599 7.09389 4.76525 8.32768 1.5784.55023 3.16856 1.80926 3.53369 2.79785.36512.98858 1.14669 2.12803 1.73681 2.5321.65903.45127.43965.7406-.56865.75-.90997.0085-1.92124 1.12952-2.26905 2.51532-.66916 2.66612-2.01679 3.23545-3.18485 1.3455zM135 23.5c0-.275.225-.5.5-.5s.5.225.5.5-.225.5-.5.5-.5-.225-.5-.5zm4.16742-1.78695c-1.7011-2.06415-1.18895-4.98666.67007-3.82363.73562.46022 1.18562 1.87263 1 3.13869-.30334 2.069-.47233 2.1383-1.67007.68494zM123 16.5c0-.275.225-.5.5-.5s.5.225.5.5-.225.5-.5.5-.5-.225-.5-.5z"/><path fill="#25485f" d="M101.46589 191.83739c-11.00715-.91896-19.34536-3.21745-29.96589-8.26033-40.46227-19.21242-60.40735-65.48336-46.68536-108.30617L27.62516 66.5l3.43742.30415c5.92982.5247 11.92944 3.4297 11.93367 5.77826C43.00012 74.73227 50.43374 82 52.6288 82c1.8132 0 5.6566 6.80066 5.08301 8.99406-.32983 1.2613.28574 2.42953 1.80456 3.4247 2.97627 1.95013 4.85974 7.72318 4.04635 12.40254-.3517 2.02328-.90427 5.46915-1.22793 7.65749-.32367 2.18833-1.26265 5.00769-2.08663 6.26524-2.09567 3.19839-2.00712 14.44869.1395 17.72485 1.86132 2.84073 5.4208 4.04699 9.1673 3.10668 1.76952-.44412 3.09748-1.91867 4.31972-4.79655l1.76476-4.1553 2.37263 4.93815c1.30495 2.71598 3.02983 5.43237 3.83306 6.03644.80324.60406 1.17055 1.56734.81624 2.14061-.3543.57328.47695 1.77692 1.84723 2.67476C85.87886 149.31151 87 150.93573 87 152.02305 87 153.11037 87.64286 154 88.42857 154c.78572 0 2.10703.67845 2.93624 1.50767 2.03972 2.03971 3.10735.0824 1.20601-2.211-4.30938-5.19799-8.43284-10.76798-8.16777-11.03306.16554-.16553 4.0043 3.36769 8.53058 7.85161 5.62508 5.57243 8.08477 8.70642 7.77196 9.90259-1.00175 3.83073 11.69362 10.002 21.61843 10.50879 3.53406.18046 6.5088.91711 7.56561 1.87352.95788.86687 3.10223 1.84825 4.76523 2.18085 1.90964.38193 3.67298 1.70401 4.78616 3.58847.9694 1.64107 3.10754 3.80169 4.75141 4.80139l2.98887 1.81764-5.84065 2.19906c-11.83498 4.45599-25.16822 6.07768-39.87476 4.84986zm46.69574-10.71633c-.83176-.52721-1.21817-2.24345-1.02082-4.53404.3407-3.95449-1.01075-5.54448-4.73582-5.57171-1.15226-.008-2.86592-.86715-3.80814-1.90829-1.584-1.7503-1.59395-2.1782-.13204-5.67705 1.91652-4.58688.94881-5.91775-3.67258-5.05077-2.5739.48287-3.63276 1.35997-4.53846 3.75944-1.13761 3.01389-1.35364 3.11021-5.84122 2.60439-2.56295-.28888-5.06374-1.13674-5.55731-1.88413-.49357-.7474-.77542-5.07429-.62632-9.61533.23566-7.17777.52627-8.33814 2.22444-8.88193 4.59668-1.47195 4.81321-2.84484 1.62888-10.3279L119.08912 127h7.45544c4.10049 0 7.45544.16311 7.45544.36246 0 .19936-1.32374 3.57258-2.94165 7.49605-2.81299 6.82155-2.85989 7.17733-1.07244 8.13395 1.98283 1.06118 5.01409.39651 5.01409-1.09945 0-1.222 3.7335-1.13324 4.5.10699.33992.55 1.67967 1 2.97723 1 3.41858 0 5.52277 1.00667 5.52277 2.64217 0 2.16185 3.04577 6.35783 4.61501 6.35783 1.63632 0 1.97675-7.51624.38499-8.5-.55-.33992-1-1.85729-1-3.37193 0-3.01685 3.65484-6.96761 8.25-8.91798 2.0559-.87261 2.75094-1.86673 2.75374-3.93865.005-3.8442 3.45408-9.12283 6.74672-10.32604 6.02736-2.20253 5.89269-2.1065 3.96559-2.82773-1.67296-.62612-1.65561-.80543.279-2.88198 1.13463-1.21788 3.38782-2.89944 5.00709-3.7368 2.5387-1.31281 2.86678-1.32088 2.38239-.0586-1.09276 2.84768.65346 3.66882 3.49667 1.64427 1.50743-1.07339 3.95509-2.25638 5.43924-2.62888 3.18538-.79948 3.90521-1.70411 3.07582-3.86547-.68123-1.77524-3.04296-2.15013-3.57074-.5668-.4076 1.22282-6.82552.14297-6.82552-1.14841 0-.48125.675-.875 1.5-.875 2.05398 0 1.8922-2.9818-.25-4.60795-1.6226-1.23174-1.62622-1.33076-.0497-1.36025.93517-.01749 2.13892.75195 2.675 1.70987.53608.95792 1.29756 1.4188 1.69219 1.02416.39462-.39462.17766-1.36797-.48215-2.16299-.99516-1.1991-.8408-1.35165.90553-.89497 1.38406.36194 2.99201-.26447 4.69411-1.82868L196.27392 89.5l-.58917 2.5c-.32404 1.375-.88813 3.7375-1.25354 5.25-.48385 2.0028-.28551 2.75.72997 2.75 7.9306 0 5.33168 23.0352-4.93896 43.77596-6.56887 13.26533-19.41187 27.13407-32.95235 35.58418-4.38959 2.73938-6.82248 3.20973-9.10824 1.76092zM164.20423 162c1.56987 0-1.17086-2.93673-4.1314-4.42686-3.8347-1.93012-10.85036-2.76257-13.10645-1.55515-3.17184 1.69752-2.28204 2.72203 2.44656 2.81694 2.54633.0511 5.82447.95156 7.75 2.1288 1.83538 1.12213 3.93636 1.81434 4.66885 1.53825.73248-.27609 1.80008-.50198 2.37244-.50198zm-34.84802-29.25l1.54174-3.75h-3.94898c-2.17193 0-3.94897.21589-3.94897.47976 0 .26387.73562 2.31826 1.63471 4.5653 1.79119 4.47664 2.41943 4.30432 4.7215-1.29506zM225 93.5V35h26.58909l11.45545 21.41442c6.3005 11.77793 11.62937 21.24152 11.84192 21.0302.21256-.21131 5.41122-9.7353 11.55259-21.16441L297.60517 35.5l13.19742-.27902L324 34.94195V152h-27.97191l-.26404-31.75L295.5 88.5l-8.65253 16.5c-8.38931 15.99805-8.75457 16.509-12.00696 16.79588l-3.35443.29587-8.49304-16.10637L254.5 89.87901l-.26425 31.06049L253.97151 152H225zm25.23783 17.25L250.5 73.5 262 95.42525c6.325 12.05889 11.95 22.07092 12.5 22.24896.55.17805 6.4-10.00512 13-22.62926l12-22.95298.26188 37.95401L300.02377 148H321V39h-20.77197L288.0235 61.75c-6.71249 12.5125-12.54201 23.10571-12.95449 23.54048-.41248.43476-6.33773-9.69024-13.16722-22.5L249.48454 39.5l-10.24227-.28498L229 38.93003V148h20.97566zM331 104V56h56v20h-32v17h29v20h-29v19h32v20h-56zm53 38v-6h-32v-27h29V97h-29V72h31V60h-48v88h49zm26-28V76h-19V56h62v20h-19v76h-24zm21-4V72h18V60h-54v12h19v76h17zm29-16.604V34.792l23.75.4556c21.64374.41519 24.3253.66137 30.23709 2.77587 8.27827 2.96093 15.86129 10.17461 18.38027 17.48502 3.9636 11.50293 2.92175 26.4904-2.42786 34.92586-5.8271 9.18838-14.81865 13.30429-31.1895 14.2771l-9.75.57938V152h-29zm25 31.22725v-23.37674l11.75-.4773c23.35735-.9488 32.90761-8.76391 34.03853-27.85419.67376-11.37343-1.55745-18.04866-8.19213-24.50884-8.15276-7.93831-11.16457-8.68773-36.8464-9.16827L464 38.83094V148h21zm0-54.10406V54.7814l7.25.39701c12.65337.6929 17.20073 4.70768 17.23154 15.2134.0328 11.1863-3.71089 14.6333-16.73154 15.40552l-7.75.45964zm15.53848 10.02918c4.19056-1.75093 5.8204-5.35812 5.15814-11.41607-.69417-6.3499-4.03914-9.3303-11.13169-9.91847L489 58.75234V82h4.03212c2.21766 0 5.59553-.65323 7.50636-1.45163zM564 130.4767v-21.52329L550.5 83C543.075 68.72562 537 56.8111 537 56.52329 537 56.23548 542.97096 56 550.26881 56h13.26881l6.05958 12.16675 6.05957 12.16675 4.76432-11.41675c2.62038-6.27921 5.09662-11.76826 5.50275-12.19789.40614-.42962 6.4183-.65462 13.36037-.5l12.62193.28114-11.93107 26-11.93106 26-.022 21.75L588 152h-24zm21-3.59463v-21.11793l3.9144-8.63207c2.15292-4.74765 6.85264-15.04458 10.44382-22.88208L605.88764 60h-17.48146l-4.39261 10.75c-2.41594 5.9125-5.23014 12.66645-6.25377 15.00877l-1.86115 4.25878-7.4268-15.00877L561.04504 60H542.93l4.90264 9.25c2.69646 5.0875 8.33721 15.85913 12.53501 23.93696L568 107.87392V148h17zM63.90557 137.38622c-1.47712-1.77982-1.8831-11.71513-.60662-14.84556.67872-1.66451 1.31822-1.02242 4.25 4.26722 3.87915 6.99896 4.12307 8.37724 1.87962 10.62069-2.00881 2.00881-3.83229 1.99483-5.523-.0423zm90.50959-18.21089l.69715-12.82467-6.06255-1.8356c-3.33441-1.00957-5.87433-2.02383-5.64426-2.25389.38907-.38907 22.68716 6.50532 23.43165 7.24487.45302.45003-11.86107 22.49396-12.56547 22.49396-.30452 0-.23996-5.7711.14348-12.82467zm-30.36948 5.37971c-.65956-.79472-1.05216-2.48222-.87244-3.75.42153-2.97353 4.65631-3.75862 6.52073-1.20888 1.67874 2.29582 1.64431 2.9227-.2654 4.83241-1.95871 1.95872-3.82585 2.00258-5.38289.12647zm0-9c-.65956-.79472-1.05216-2.48222-.87244-3.75.42153-2.97353 4.65631-3.75862 6.52073-1.20888 1.67874 2.29582 1.64431 2.9227-.2654 4.83241-1.95871 1.95872-3.82585 2.00258-5.38289.12647zM70 96.5c0-6.33333-.39683-10.5-1-10.5-.55 0-1-.45-1-1 0-.58372 3.34575-1 8.03726-1h8.03726l-4.07699 6.00364-4.077 6.00363 2.78974 3.49634c1.53435 1.92298 3.12723 3.49634 3.53973 3.49636.4125.00002.75.67503.75 1.50003 0 2.5529-1.71218 1.68638-6.42182-3.25l-4.53182-4.75-.02318 5.25C72.01043 104.6375 71.55 107 71 107c-.60318 0-1-4.16667-1-10.5zm5.95196-4.93018c1.67642-2.4366 3.04804-4.6866 3.04804-5C79 86.25642 77.425 86 75.5 86H72v5c0 2.75.20338 5 .45196 5 .24858 0 1.82358-1.99358 3.5-4.43018zm24.61924 9.0621C97.28336 97.53109 97 96.80905 97 91.53192c0-5.18532.32423-6.05615 3.4-9.13192 2.77421-2.7742 4.16377-3.4 7.54966-3.4C115.86886 79 121 83.86247 121 91.367c0 1.90649.5625 3.6933 1.25 3.97072.81639.32942.70156.53177-.33102.58333-.86956.04342-2.14233 1.12776-2.82836 2.40963C117.30099 101.67463 112.82044 104 108.16691 104c-3.19587 0-4.75981-.69348-7.59571-3.36808zM108 91.5c0-13.16602-.68872-14.01127-6.6-8.1-2.90213 2.90213-3.4 4.08824-3.4 8.1s.49787 5.19787 3.4 8.1c5.91128 5.91128 6.6 5.06602 6.6-8.1zm6.03273 9.98307C117.00158 99.94782 120 95.43272 120 92.4974c0-1.30419-.97575-1.54574-5.25-1.29966L109.5 91.5l-.2999 5.75c-.32761 6.28121.11769 6.67126 4.83263 4.23307zm26.3006-.14974c.36667-.36666.96667-.36666 1.33334 0 .36666.36667.06666.66667-.66667.66667s-1.03333-.3-.66667-.66667zM131.5 99c-2.75-1.01475-4.325-1.845-3.5-1.845.825 0 3.75.83025 6.5 1.845 2.75 1.01475 4.325 1.84499 3.5 1.84499-.825 0-3.75-.83024-6.5-1.84499zm-7.16667-2.66667c.36667-.36666.96667-.36666 1.33334 0C126.03333 96.7 125.73333 97 125 97s-1.03333-.3-.66667-.66667zM199 92.5c0-.275.225-.5.5-.5s.5.225.5.5-.225.5-.5.5-.5-.225-.5-.5zm-48.34501-6.32874C149.74474 85.16546 149 82.92583 149 81.1943c0-2.1956-.70679-3.61131-2.33582-4.6787C143.81241 74.64708 137.45901 66 138.93786 66 139.52204 66 140 64.875 140 63.5c0-1.55556.56667-2.5 1.5-2.5.825 0 1.5-.675 1.5-1.5s-.675-1.5-1.5-1.5c-1.05236 0-1.5-1.06211-1.5-3.55902 0-2.43056.36517-3.33333 1.1517-2.84722.63344.39148 1.74081-.09385 2.46082-1.07853 1.14475-1.56553 1.69073-1.63226 4.3483-.53146C150.85898 51.18423 151 51.51542 151 57.12132 151 62.72525 150.88316 63 148.5 63c-1.55556 0-2.5.56667-2.5 1.5 0 1.11111 1.16667 1.5 4.5 1.5 3.16667 0 5.09259.5926 6.5 2 2.66011 2.6601 2.5218 4.6271-.61448 8.73897-2.17275 2.84863-2.50866 4.0895-1.98818 7.3444.70551 4.41202-.85244 5.28121-3.74235 2.08789zM146.41821 54.393C148.60639 53.55333 148.40437 52 146.10699 52c-1.04116 0-2.15203.675-2.46862 1.5-.61456 1.60154.22806 1.87222 2.77984.89301zM194 82.07546c1.2807-.95046 1.09614-1.41636-1.26244-3.1868-1.5424-1.15778-4.32898-5.4556-6.30941-9.73113L182.88119 61.5l-2.88934 3.5c-2.41268 2.9226-3.18649 3.3184-4.69059 2.39914-.99069-.60548-1.94405-2.29708-2.11856-3.75913-.20653-1.73025-1.31993-3.17674-3.1893-4.14342-1.57959-.81684-3.46597-2.3332-4.19195-3.36967-.9212-1.3152-2.58532-1.90197-5.5085-1.94231l-4.18855-.05781-.40195 4.6866c-.26574 3.09849-.40195 2.24525-.40195-2.51795-.00001-7.1191.0359-7.21706 3.02474-8.25899 2.76427-.96363 3.42406-.71772 7.6619 2.85568C169.90733 54.1977 178 57.88891 178 56.37143c0-.25705-1.2375-1.55656-2.75-2.8878-3.919-3.44933-2.24957-3.05944 2.26625.52928 3.76284 2.99033 5.85618 3.3457 3.58451.6085-.91937-1.10777-.89532-1.54455.1075-1.95287.87676-.35699.28006-1.43231-1.85739-3.34725-3.21508-2.88037-5.89208-7.11341-5.03843-7.96707.67356-.67356 7.36451 6.35719 10.8506 11.40164C190.8471 60.98086 199.37493 82 197.02789 82c-.47537 0-1.68862.26745-2.6961.59433-1.53722.49876-1.59057.41532-.33179-.51887zM73.1325 77.5c1.13578-1.925 2.23405-3.5 2.4406-3.5C76.00822 74 79 79.63133 79 80.45034 79 80.75265 77.21518 81 75.03373 81h-3.96628zM76 78.5c0-.275-.225-.5-.5-.5s-.5.225-.5.5.225.5.5.5.5-.225.5-.5zm47.25454-10.02229c-.71792-2.33918-.76183-4.67827-.13075-6.96386C124.22606 57.52174 126 55.93489 126 58.94098 126 60.74514 126.6189 61 131 61c4.33333 0 5 .26667 5 2 0 1.5191-.66667 2-2.7726 2-2.14299 0-3.20061.79478-4.65747 3.5-2.39128 4.44035-3.94777 4.43383-5.31539-.02229zM132.622 53.75c1.45591-2.3375 2.81155-4.4375 3.01255-4.66667.201-.22916.36545 1.68334.36545 4.25C136 57.85617 135.90715 58 132.98746 58h-3.01255zM127 55.5c0-.275.225-.5.5-.5s.5.225.5.5-.225.5-.5.5-.5-.225-.5-.5zm23-7c0-.275.225-.5.5-.5s.5.225.5.5-.225.5-.5.5-.5-.225-.5-.5zm5-3.51746c0-.93188-1.4363-1.1141-5.4865-.69609-3.01757.31144-5.74413.1494-6.05902-.3601-.31488-.5095.12904-.92635.9865-.92635.89235 0 1.55902-.85524 1.55902-2 0-1.1.36694-2 .81543-2s.72395-1.9125.61213-4.25c-.16708-3.49293-.71314-4.5608-3.06543-5.99474L141.5 27.01054l3.55-.0053c1.9525-.0029 4.14625.55723 4.875 1.24473 1.06 1 1.41667 1 1.78333 0 1.08042-2.94658 3.99101-.58491 12.20854 9.90603l2.08046 2.65604-2.1566-.56397c-1.83346-.47946-2.06963-.23143-1.57622 1.65537.48738 1.86376.21452 2.1714-1.70305 1.92011-1.25587-.16458-3.02097.3129-3.92243 1.06104-1.26806 1.05243-1.63903 1.0746-1.63903.09796zm3.87812-7.88605c1.30436-.82617.79416-3.114-.68714-3.08118-1.64411.03644-3.38999 1.85367-2.76008 2.87289.82089 1.32822 1.60433 1.37556 3.44722.2083zm8.45521 4.23684c.36667-.36666.96667-.36666 1.33334 0C169.03333 41.7 168.73333 42 168 42s-1.03333-.3-.66667-.66667zm-70.4183-3.62921c-1.30654-1.7118-2.52215-2.03384-6.9199-1.83317-4.71248.21502-5.1853.06312-4.05241-1.30193 1.52385-1.83613 1.04027-2.06649-6.44272-3.06899-10.67852-1.43061-12.4995-1.46285-12.5318-.22186-.0175.672-.74413.32183-1.61476-.77817-1.09667-1.3856-1.72689-1.616-2.05153-.75-.25771.6875-1.25263 1.25-2.21093 1.25-.9583 0-2.80483 1.13096-4.10342 2.51324-1.5268 1.62521-2.70412 2.1702-3.33193 1.54239-1.45115-1.45115.65363-3.48303 8.99065-8.67927C77.31103 17.23623 92.64432 13 111.06288 13h11.14719l-.5361 3.75c-.29486 2.0625-.76248 5.0784-1.03915 6.702-.36965 2.16914.01 3.31125 1.43106 4.3067 2.32327 1.62728 2.55606 5.78866.37074 6.62725-.8751.3358-1.24733 1.11131-.84549 1.7615.41642.67379.28376.89326-.31591.52264-1.3709-.84726-2.33813-4.67009-1.1816-4.67009 1.36621 0 1.08756-2.60474-.41177-3.84908-.97202-.8067-1.89108-.69267-3.5.43426-2.80742 1.9664-2.78006 3.38398.0682 3.53082 1.69317.0873 1.81691.22918.5.57333-.9625.25152-1.75.87432-1.75 1.384 0 1.48236-8.31022 1.00663-10.43014-.5971-1.70633-1.29084-2.1428-1.2677-3.76414.19959-1.05669.95629-1.59884 2.40063-1.27918 3.4078.82731 2.60664-.8004 2.99338-2.6115.6205zm38.48948-1.85863c-.4782-.77374-.25031-.89026.69098-.3533 1.09499.62465 1.14626.52166.23265-.46734-.64452-.6977-.93533-1.88493-.64624-2.63828.72466-1.88843-2.65529-3.03881-3.76751-1.28229-.72116 1.13892-.88658 1.0952-.89908-.23765-.008-.89835-.96272-1.88112-2.12067-2.18393-1.15794-.30281-1.91093-1.13382-1.67331-1.84668.23762-.71287-.44473-2.00608-1.51633-2.87381-1.53857-1.24586-1.79908-2.2574-1.23857-4.80937.57077-2.59868 1.08429-3.11282 2.62168-2.62487 1.0674.33877 1.91189.13533 1.91189-.46058 0-.58707.68357-1.06739 1.51905-1.06739 1.13309 0 1.35471.65478.87226 2.57705-.86383 3.44176 1.22599 7.09389 4.76525 8.32768 1.5784.55023 3.16856 1.80926 3.53369 2.79785.36512.98858 1.14669 2.12803 1.73681 2.5321.65903.45127.43965.7406-.56865.75-.90997.0085-1.92124 1.12952-2.26905 2.51532-.66916 2.66612-2.01679 3.23545-3.18485 1.3455zM135 23.5c0-.275.225-.5.5-.5s.5.225.5.5-.225.5-.5.5-.5-.225-.5-.5zm4.16742-1.78695c-1.7011-2.06415-1.18895-4.98666.67007-3.82363.73562.46022 1.18562 1.87263 1 3.13869-.30334 2.069-.47233 2.1383-1.67007.68494zM123 16.5c0-.275.225-.5.5-.5s.5.225.5.5-.225.5-.5.5-.5-.225-.5-.5z"/></svg>