<svg xmlns="http://www.w3.org/2000/svg" role="img" viewBox="-10.12 -10.12 526.24 155.74"><title>MHKiT logo</title><g stroke-width=".667" transform="translate(-.333 -.676)"><path fill="#a8dae9" d="M426.54524 135.66812c-19.21383-3.23332-32.69025-13.92334-33.71967-26.74778-.57358-7.14554 3.02422-15.2072 10.21988-22.89996l3.02007-3.22869-2.19943-.69416c-7.23004-2.28187-16.43204-2.66508-25.61209-1.06659-10.98414 1.91264-21.38598 5.90973-39.94978 15.35141-24.9846 12.70735-38.64963 18.23237-60.63755 24.51685-47.22981 13.499-98.21768 17.64122-148.33333 12.05052-50.57838-5.64232-113.59011-22.35301-126.69433-33.5993L.33333 97.37165l2.94086 1.38168c1.61747.75993 4.09247 1.788 5.5 2.28461l2.55914.90291V5.97671l16.40578.17831 16.40577.17831L55.6377 27.22246c6.32106 11.48902 11.7147 20.93902 11.98587 21 .27116.06098 5.7918-9.40894 12.26806-21.04428L91.66667 6.02303l16.5-.01151 16.5-.01152v119.33333h4V6h30.66667V52.66667h34V6H224v117.41781l2.16667-.20891 2.16667-.2089.1703-58.5.17031-58.5h29.97544l.17531 23.07408L259 52.14815l16.31988-23.07407L291.63977 6h17.51345c9.6324 0 17.51345.18112 17.51345.4025 0 .22137-2.66129 4.04637-5.91397 8.5-3.25268 4.45362-11.34369 15.70477-17.98003 25.00255L290.7066 56.8101l1.08186 2.09495c1.24321 2.40741 20.26056 35.9723 20.58689 36.33507.1188.13206 8.88578-3.9845 19.48219-9.1479 30.14875-14.69088 41.16806-18.45965 56.19785-19.22055 6.88808-.34872 16.70636.43919 19.67676 1.57903.78598.30162.93452-2.24888.93452-16.04604V36H371.33334V6h105.33333v30H439.33334v91.9746l1.82913.45908c2.65406.66612 20.1659-.88466 27.17087-2.40614 12.26115-2.66314 24.84993-7.23758 33.25856-12.08533 2.52554-1.45602 4.70861-2.53061 4.85125-2.38796.62304.62305-8.84048 8.61899-13.24644 11.19221-18.13253 10.58997-47.1164 16.20905-66.65147 12.92166zm-238.31249-8.76595l5.10059-.43115V82.66667h-34v44.66666h11.89941c6.54468 0 14.19468-.19402 17-.43116zM92 91.53333c0-17.40809-.24285-28.87844-.6034-28.5-.33188.34834-5.60112 9.48334-11.70943 20.3-6.1083 10.81667-11.3299 19.89479-11.60354 20.17361-.27363.27882-5.7294-8.74603-12.1239-20.05522l-11.6264-20.56216-.17509 23.99124c-.0963 13.19518-.0963 24.06598 0 24.15734.63626.60361 43.51317 9.33421 47.00843 9.57186.65482.0445.83333-6.18423.83333-29.07667zm178.74417 20.85493c5.91029-1.98646 11.00627-3.87203 11.3244-4.19016.56653-.56654-13.28384-24.83186-14.18627-24.8538-.24808-.006-2.42308 2.54381-4.83334 5.66632l-4.38229 5.6773v10.65604c0 6.64993.25029 10.65604.66576 10.65604.36617 0 5.50145-1.62528 11.41174-3.61174zm58.22609-34.0551c-1.389-2.01677-2.3669-3.8254-2.1731-4.0192.35218-.35219 47.08214-12.98063 48.03315-12.98063.27667 0 .50303.88844.50303 1.9743 0 1.75948-.30831 2.05671-2.83334 2.73161-9.5102 2.54191-27.60291 9.46952-36.6223 14.0225C333.76588 81.12778 331.916 82 331.76686 82c-.14913 0-1.40761-1.65008-2.7966-3.66685zm-4.01995-9.36357c-1.71994-9.16807 2.69201-19.45394 11.02553-25.70453 2.24591-1.68456 2.2881-1.80065 1.54003-4.23808-.69664-2.26987-.64723-2.53796.52417-2.84428.71131-.18602 1.2933-.6832 1.2933-1.10487 0-.42166-1.96512-8.07156-4.36692-16.99977-2.4018-8.92822-4.25493-16.3451-4.11806-16.48198.13688-.13687 1.18758-.4366 2.33491-.66607 1.85936-.37187 2.13511-.22173 2.53753 1.38162.36124 1.4393.73406 1.71936 1.86534 1.40124 4.45196-1.25194 6.88778-1.11012 12.41386.7228 4.61714 1.53144 6.80973 1.87507 11.83834 1.85538l6.17166-.02417-2.505 2.58797c-3.91712 4.04685-7.33514 5.73848-13.06202 6.46458-5.00875.63505-9.43252 2.32642-10.98857 4.20135-.61865.74543-.40261 2.4287.99729 7.7703 1.65218 6.3042 1.89944 6.79723 3.27666 6.53396 1.26533-.24188 1.60812.1384 2.27646 2.5255l.78683 2.81028 4.11717.33049c5.05251.40556 10.04059 2.80588 14.50094 6.97802 3.22876 3.02013 7.7284 10.7107 6.76586 11.56391-.27992.24813-10.85895 3.20625-23.50895 6.57362-12.65 3.36736-23.50859 6.27338-24.1302 6.45782-.86926.25793-1.23547-.2258-1.58616-2.09509z"/><path fill="#99bacc" d="M431.62338 135.96949c-24.14043-1.94773-41.49284-16.66005-38.27377-32.45059 1.03803-5.09182 3.92057-10.40992 8.65688-15.97135 2.12795-2.49866 3.7437-4.74575 3.59057-4.99352-.71089-1.15025-10.43952-2.6896-16.93039-2.67888-14.21865.02347-26.3241 3.93915-51.02912 16.506-19.91603 10.13081-28.88618 14.0337-44.20463 19.2333-33.35092 11.32044-65.9815 17.26539-105.26198 19.17763-31.15837 1.51685-66.47728-1.67789-105.17094-9.51313-31.98731-6.47725-63.38927-16.12365-76.20622-23.40989-4.26767-2.4261-4.1778-3.0816.16713-1.21915C8.69321 101.39246 10.38567 102 10.72194 102c.36509 0 .6114-19.33725.6114-48V6h32.5244l11.87384 21.6266 11.87385 21.62661 5.50113-9.79327c3.02562-5.3863 8.4394-15.114 12.03062-21.61713l6.52949-11.82385 16.5-.00948 16.5-.00948v119.182l2 .29354 2 .29353V6h30.66667V52.66667H194V6h30v118.1555l1.5-.40198c.825-.22109 1.875-.40608 2.33334-.41109.66028-.007.83333-12.19173.83333-58.67576V6h29.98272l.17531 23.07803L259 52.15605l16.33334-23.07014 16.33333-23.07015 17.5-.00788c9.625-.00433 17.5.18941 17.5.43054 0 .24113-1.16435 1.96613-2.58745 3.83333-3.40286 4.4648-33.41255 46.47052-33.41255 46.76884 0 .89836 21.64693 38.29274 22.16697 38.29274.363 0 8.94894-4.02264 19.07985-8.93921 20.73406-10.0623 24.31601-11.63617 33.73792-14.82405 14.35893-4.85831 25.32602-5.71488 40.86065-3.19136l2.84538.46222-.17871-16.2538-.17872-16.2538-18.83334-.17704-18.83333-.17705V6h105.33333v30H439.33334v92.66666l7.16667-.0122c8.50036-.0145 18.22952-1.3045 27.4327-3.63739 9.43873-2.39259 15.2157-4.55367 24.40063-9.12787l8-3.98409-2.33333 2.43637c-1.28334 1.34001-4.82452 4.0998-7.8693 6.13285-16.166 10.79437-42.96993 17.23289-64.50733 15.49517zm-238.79004-9.05382C193.91397 126.6018 194 124.9578 194 104.62174V82.66666h-34.66666v45.51412l16.16666-.46313c8.89167-.25472 16.69167-.61561 17.33334-.80198zM92 91.22222c0-16.19444-.11182-29.31944-.24848-29.16667-.13667.15278-5.40896 9.42778-11.71621 20.61112-6.30725 11.18333-11.6726 20.54549-11.923 20.8048-.25039.25931-5.7031-8.81554-12.11712-20.16633L44.33333 62.66733l-.1751 24.12177c-.11976 16.49643.04892 24.26024.5336 24.55978 1.56357.96634 41.84008 9.10844 45.80817 9.26036l1.5.0574zm175 22.73788c8.71782-2.75826 15.66667-5.41764 15.66667-5.99578 0-.31694-3.31765-6.15376-7.37257-12.9707l-7.37257-12.39445-4.62743 5.97927-4.62743 5.97928v22.03958l1.83333-.58035a67670.09095 67670.09095 0 0 1 6.5-2.05685zM2 99c0-.18334.15-.33334.33333-.33334.18334 0 .33334.15.33334.33334 0 .18333-.15.33333-.33334.33333C2.15 99.33333 2 99.18333 2 99zm328.49798-18.8711c-1.90382-2.03588-4.13071-6.12152-3.34843-6.14332.28441-.0079 11.00719-2.8354 23.82839-6.2833 12.8212-3.4479 23.5462-6.1237 23.83334-5.94624.28713.17746.52206 1.04338.52206 1.92427 0 1.32553-.48844 1.72724-2.83334 2.33027-9.29499 2.39038-25.60984 8.5406-34.57813 13.03494l-5.74479 2.87893zm-5.2831-10.73162c-1.17342-3.0129-.29292-10.64722 1.75408-15.20855 1.81626-4.04715 8.5486-11.52206 10.37744-11.52206.55114 0 .64474-.97415.32027-3.33334-.38475-2.7975-.28765-3.33333.60411-3.33333.5844 0 1.06256-.45497 1.06256-1.01104s-1.94713-8.25895-4.32694-17.1175c-2.37982-8.85856-4.23295-16.20047-4.11806-16.31535.11489-.11489 1.1476-.39663 2.29493-.6261 1.85994-.37199 2.13505-.22194 2.53819 1.3843.4218 1.68057.61416 1.76575 2.86535 1.26887 3.82342-.8439 6.66201-.53065 12.9374 1.42774 4.88007 1.52294 6.68785 1.7747 10.83333 1.50866 2.73669-.17563 4.9758-.08988 4.9758.19055 0 .89965-6.25924 6.10083-8.47631 7.04348-1.17863.50113-4.26725 1.21243-6.86358 1.58065-4.76251.67545-9.04983 2.39214-10.58059 4.23658-.67389.812-.4897 2.27272.97288 7.7154C344.01382 33.34477 344.34078 34 345.73592 34c1.23031 0 1.68757.52566 2.23917 2.57414.68919 2.55946.71575 2.5762 4.65329 2.93324 5.12276.46452 10.5058 2.96264 14.56434 6.75893 3.27796 3.06615 7.1735 9.62664 6.65349 11.20518-.16711.5073-10.08999 3.4936-24.12061 7.25913l-23.8367 6.39728z"/><path fill="#5acde8" d="M431.62338 135.96949c-24.14043-1.94773-41.49284-16.66005-38.27377-32.45059 1.03803-5.09182 3.92057-10.40992 8.65688-15.97135 2.12795-2.49866 3.7437-4.74575 3.59057-4.99352-.71089-1.15025-10.43952-2.6896-16.93039-2.67888-14.21865.02347-26.3241 3.93915-51.02912 16.506-19.91603 10.13081-28.88618 14.0337-44.20463 19.2333-33.35092 11.32044-65.9815 17.26539-105.26198 19.17763-31.15837 1.51685-66.47728-1.67789-105.17094-9.51313-31.98731-6.47725-63.38927-16.12365-76.20622-23.40989-4.26767-2.4261-4.1778-3.0816.16713-1.21915C8.69321 101.39246 10.38567 102 10.72194 102c.36509 0 .6114-19.33725.6114-48V6H43.7771l11.91153 21.67873c9.82411 17.87965 12.03186 21.47215 12.5981 20.5.37762-.6483 5.8001-10.32873 12.04996-21.51206L91.70007 6.33333l16.4833-.17831 16.4833-.17831V125.182l2 .29354 2 .29353V6h30.66667v47.35584L176.5 53.17792 193.66667 53l.17519-23.5.1752-23.5H224v118.1555l1.5-.40198c.825-.22109 1.875-.40608 2.33334-.41109.66028-.007.83333-12.19173.83333-58.67576V6h29.98272l.17531 23.16258L259 52.32517l12.95492-18.32925c7.1252-10.0811 14.55235-20.50425 16.50476-23.16259L292.00954 6h17.32856c9.53072 0 17.32857.18183 17.32857.40406 0 .22224-.85951 1.49724-1.91003 2.83334-2.89181 3.67795-34.08997 47.42626-34.08997 47.80342 0 .98364 21.57947 38.29251 22.14841 38.29251.37321 0 8.9675-4.02265 19.09841-8.93921 20.73406-10.0623 24.31601-11.63617 33.73792-14.82405 14.35496-4.85697 25.3277-5.71475 40.8486-3.19329l2.83333.4603V36h-38V6h105.33333v30H439.33334v92.66666l7.16667-.0122c8.50036-.0145 18.22952-1.3045 27.4327-3.63739 9.43873-2.39259 15.2157-4.55367 24.40063-9.12787l8-3.98409-2.33333 2.43637c-1.28334 1.34001-4.82452 4.0998-7.8693 6.13285-16.166 10.79437-42.96993 17.23289-64.50733 15.49517zm-238.78112-9.05665c1.09714-.31889 1.16388-1.8178 1-22.4606l-.17559-22.1189L176.5 82.1554l-17.16666-.17792V128.18078l16.16666-.46313c8.89167-.25472 16.69569-.61689 17.34226-.80481zM92 91.18499c0-24.75003-.14235-29.27062-.88693-28.16666-.4878.72325-5.92808 10.25876-12.08948 21.19003l-11.20256 19.87503-8.42491-14.87503c-4.6337-8.18127-9.91844-17.53831-11.74385-20.79344l-3.31894-5.9184-.1751 24.20717c-.11978 16.55674.04886 24.34561.5336 24.64519 1.56357.96634 41.84008 9.10844 45.80817 9.26036l1.5.0574zm175 22.77511c8.97858-2.84076 15.66667-5.42484 15.66667-6.05315 0-.72555-13.13032-23.16411-14.25739-24.36462-.55988-.59637-1.84988.66385-5.24261 5.12161l-4.5 5.91261v22.02075l1.83333-.58035a67670.09095 67670.09095 0 0 1 6.5-2.05685zM2 99c0-.18334.15-.33334.33333-.33334.18334 0 .33334.15.33334.33334 0 .18333-.15.33333-.33334.33333C2.15 99.33333 2 99.18333 2 99zm328.26992-19.19696c-1.97184-2.34338-3.32622-4.96896-2.82286-5.47232.18167-.18168 10.8054-3.13787 23.6083-6.56932 16.08692-4.31165 23.42928-6.01078 23.76777-5.5002 1.36767 2.063.41877 2.81138-5.98979 4.72406-9.29904 2.77535-20.66396 7.16492-29.31476 11.32248l-7.48142 3.59556zm-5.30476-12.13637c-1.3138-8.761 3.75587-19.62868 11.34442-24.31865 2.09026-1.29186 2.20756-1.54486 1.63765-3.53204-.87079-3.03625-.77795-3.61757.63685-3.98755 1.16384-.30435.9363-1.50257-3.27456-17.24442-2.48892-9.30454-4.47676-16.9573-4.41742-17.00613.0593-.04884 1.05517-.29158 2.21294-.53944 1.93884-.41506 2.13981-.2923 2.54554 1.55498.39911 1.81711.59695 1.94614 2.10503 1.37276 2.91115-1.10681 8.2103-.68655 13.96439 1.10748 4.4867 1.39888 6.56592 1.69064 10.59759 1.48705 2.75866-.13931 5.01575-.04795 5.01575.20301 0 .79618-5.94526 5.72504-8.1911 6.79076-1.18704.5633-3.80466 1.22003-5.81692 1.45941-6.14926.73153-12.61806 3.45054-12.6555 5.31944-.007.36667.77175 3.6938 1.73132 7.39362 1.6224 6.25548 1.8507 6.70668 3.25749 6.43775 1.28824-.24626 1.60276.09117 2.11873 2.27305.59267 2.50624.68624 2.57229 4.28054 3.02157 6.43726.80464 11.21375 3.03651 15.3 7.1491 3.53698 3.55978 6.98154 9.37327 6.4675 10.9154-.22716.68147-44.8405 13.05602-47.28455 13.11546-.82971.0202-1.24414-.76165-1.57569-2.97261z"/><path fill="#37c3e3" d="M425.56105 135.05646c-14.66358-2.79228-25.95794-9.92172-30.53357-19.27396-1.62507-3.32153-1.80921-4.35468-1.59871-8.96969.20048-4.39545.62726-6.00356 2.71352-10.2246 1.42849-2.89022 4.20108-6.89187 6.55501-9.46077l4.0794-4.45194-1.88835-.73777c-2.80837-1.0972-11.41944-2.55517-15.22168-2.57721-11.79901-.06841-29.24249 5.16372-46.1925 13.85534-27.96569 14.34025-40.4544 19.62791-60.82705 25.75388-35.99423 10.82332-71.18824 15.8578-110.64712 15.828-19.5955-.0148-33.54255-.99594-54.52832-3.83595-40.04582-5.41941-83.79752-16.5622-105.97168-26.98913-7.2381-3.40356-9.07001-4.8171-3.5-2.70066l3.33333 1.26656V6H43.7771l11.91153 21.67873c9.82411 17.87965 12.03186 21.47215 12.5981 20.5.37762-.6483 5.8001-10.32873 12.04996-21.51206L91.70007 6.33333l16.4833-.17831 16.4833-.17831v59.60698c0 64.36326-.21045 60.41619 3.22119 60.41636 1.03146.00005 1.09954-4.35272.93844-60L128.6526 6h30.68074v47.35584L176.5 53.17792 193.66667 53l.17519-23.5.1752-23.5H224v59c0 46.76041.17288 58.99811.83334 58.9909.45833-.005 1.50833-.19 2.33333-.4111l1.5-.40198V6h29.98272l.17531 23.16258L259 52.32517l12.95492-18.32925c7.1252-10.0811 14.55235-20.50425 16.50476-23.16259L292.00954 6h17.32856c9.53072 0 17.32857.18183 17.32857.40406 0 .22224-.85951 1.49724-1.91003 2.83334-2.89181 3.67795-34.08997 47.42626-34.08997 47.80342 0 .2361 20.74221 37.34544 21.6925 38.80946.0655.101 9.68656-4.4374 21.38001-10.08533 23.03823-11.12745 28.69711-13.4886 38.71212-16.1526 10.27333-2.7327 27.51902-2.99272 35.71537-.5385 1.08938.32619 1.16667-.75782 1.16667-16.36226V36h-38V6h105.33333v30H439.33334v92.66666l7.83333-.004c16.98678-.009 36.34406-4.8237 51.9403-12.92031 3.05784-1.58737 5.5597-2.69235 5.5597-2.45545 0 .56028-4.84543 4.56562-8.66666 7.16404-7.78454 5.29346-21.94956 10.78252-35 13.56278-8.6133 1.83498-28.2451 2.41261-35.43896 1.04274zm-240.65771-7.49357l9.11415-.43711-.17541-22.39622-.17541-22.39623-17.14969-.17789-17.1497-.17788-.18364 23.01152L159 128.00059l8.3946-.00029c4.61702-.00017 12.49596-.197 17.50874-.43741zm-93.05737-50.5782l-.1793-15.10634L79.74449 82.982l-11.92217 21.10365-8.42556-14.87616c-4.63406-8.1819-9.91908-17.53946-11.7445-20.79458l-3.31893-5.9184-.17511 24.20996c-.09631 13.31547.05369 24.43178.33333 24.7029.65639.63638 19.28235 4.6257 34.94143 7.48378l12.23369 2.23287.1793-14.51749c.0986-7.98463.0986-21.31536 0-29.62385zm178.64776 35.95339c6.14512-2.05073 11.53269-3.92912 11.97238-4.17421.54368-.30305-1.51143-4.35387-6.42375-12.66182-3.97275-6.71892-7.4825-12.46901-7.79944-12.77799-.31838-.31037-2.58997 2.08164-5.07625 5.34537l-4.5 5.90712v11.04505c0 6.07479.14718 11.04506.32706 11.04506.17989 0 5.35489-1.67786 11.5-3.72858zM3.33333 99.66666c0-.18333.15-.33333.33334-.33333.18333 0 .33333.15.33333.33333C4 99.85 3.85 100 3.66667 100c-.18334 0-.33334-.15-.33334-.33334zm326.93659-19.86361c-1.97184-2.3434-3.32622-4.96897-2.82286-5.47233.18167-.18168 10.8054-3.13787 23.6083-6.56932 16.08692-4.31165 23.42928-6.01078 23.76777-5.5002 1.36767 2.063.41877 2.81138-5.98979 4.72406-9.29904 2.77535-20.66396 7.16492-29.31476 11.32248l-7.48142 3.59556zm-5.30476-12.13639c-1.3138-8.76099 3.75587-19.62866 11.34442-24.31864 2.09026-1.29186 2.20756-1.54486 1.63765-3.53204-.87079-3.03625-.77795-3.61757.63685-3.98755 1.16384-.30435.9363-1.50257-3.27456-17.24442-2.48892-9.30454-4.47676-16.9573-4.41742-17.00613.0593-.04884 1.05517-.29158 2.21294-.53944 1.93884-.41506 2.13981-.2923 2.54554 1.55498.39911 1.81711.59695 1.94614 2.10503 1.37276 2.91115-1.10681 8.2103-.68655 13.96439 1.10748 4.4867 1.39888 6.56592 1.69064 10.59759 1.48705 2.75866-.13931 5.01575-.04795 5.01575.20301 0 .79618-5.94526 5.72504-8.1911 6.79076-1.18704.5633-3.80466 1.22003-5.81692 1.45941-6.14926.73153-12.61806 3.45054-12.6555 5.31944-.007.36667.77175 3.6938 1.73132 7.39362 1.6224 6.25548 1.8507 6.70668 3.25749 6.43775 1.28824-.24626 1.60276.09117 2.11873 2.27305.59267 2.50624.68624 2.57229 4.28054 3.02157 6.43726.80464 11.21375 3.03651 15.3 7.1491 3.53698 3.55978 6.98154 9.37327 6.4675 10.9154-.22716.68147-44.8405 13.05602-47.28455 13.11546-.82971.0202-1.24414-.76165-1.57569-2.97261z"/><path fill="#76a3bb" d="M432.22277 127.67952c-11.15624-2.02426-18.32748-5.93882-21.39624-11.67952-3.01922-5.64804-.65181-12.7331 6.71733-20.1033 4.53524-4.53589 12.78089-10.13802 17.28948-11.74655 1.74167-.62138 3.16613-1.28436 3.16547-1.4733-.005-1.3116-15.35488-9.13978-23.03648-11.74789l-5.62899-1.91118V36h-38V6h105.33333v30H439.33334v46.33333c0 43.70546-.0661 46.32992-1.16667 46.27317-.64166-.0331-3.31642-.45024-5.9439-.92698zm-285.13499-.43392c-5.45171-.31446-11.75171-.79874-14-1.07616L129 125.66504l-.17023-59.83252L128.65954 6h30.6738v47.35584L176.5 53.17792 193.66667 53l.17519-23.5.1752-23.5H224v117.8828l-2.5.40826c-4.60596.75219-21.13116 2.36125-24.32434 2.36846l-3.15768.007-.17566-22.16666-.17565-22.16667-17.1579-.1779-17.15791-.1779-.17542 22.83561c-.15159 19.73152-.31137 22.84708-1.17544 22.91992-.55.0463-5.4605-.173-10.91222-.48746zm-36.75445-3.6195c-6.23333-.86872-12.83333-1.8177-14.66666-2.10885l-3.33333-.52937L92 91.43376l-.33333-29.55414-11.92218 21.10303-11.92217 21.10301-8.42556-14.87616c-4.63406-8.1819-9.91908-17.53944-11.7445-20.79456l-3.31893-5.9184-.17492 24.4607c-.1635 22.86338-.25057 24.4393-1.33333 24.13298-.63713-.18024-4.30841-1.11682-8.15841-2.08128-3.85-.96446-10.675-2.827-15.16667-4.13898l-8.16667-2.3854V6H43.7771l11.91153 21.67873c9.82411 17.87965 12.03186 21.47215 12.5981 20.5.37762-.6483 5.8001-10.32873 12.04996-21.51206L91.70007 6.33333l16.4833-.17831 16.4833-.17831V125.33333l-1.5-.0639c-.825-.0351-6.6-.77464-12.83334-1.64336zm118.33334-58.94673V6h29.98272l.17531 23.16258L259 52.32517l12.95492-18.32925c7.1252-10.0811 14.55235-20.50425 16.50476-23.16259L292.00954 6h17.32856c9.53072 0 17.32857.18183 17.32857.40406 0 .22224-.85951 1.49724-1.91003 2.83334-2.89181 3.67795-34.08997 47.42626-34.08997 47.80342 0 .18086 4.84129 8.88937 10.75843 19.35225 6.47589 11.45087 10.51654 19.26529 10.15077 19.63106-.74485.74485-24.74075 11.08063-26.97269 11.61797-1.48131.35664-2.15436-.55357-8.85436-11.97428-3.98814-6.79814-7.43814-12.47524-7.66666-12.61577-.22852-.14052-2.44049 2.395-4.91549 5.6345l-4.5 5.89v22.03872l-2.5.65433c-7.12106 1.86382-13.74883 3.40097-18.83333 4.36794-3.11667.59272-6.34167 1.22246-7.16667 1.39944l-1.5.32175zm101.60325 15.12367c-1.97184-2.34338-3.32622-4.96896-2.82286-5.47232.18167-.18168 10.8054-3.13787 23.6083-6.56932 16.08692-4.31165 23.42928-6.01078 23.76777-5.5002 1.36767 2.063.41877 2.81138-5.98979 4.72406-9.29904 2.77535-20.66396 7.16492-29.31476 11.32248l-7.48142 3.59556zm-5.30476-12.13637c-1.3138-8.761 3.75587-19.62868 11.34442-24.31865 2.09026-1.29186 2.20756-1.54486 1.63765-3.53204-.87079-3.03625-.77795-3.61757.63685-3.98755 1.16384-.30435.9363-1.50257-3.27456-17.24442-2.48892-9.30454-4.47676-16.9573-4.41742-17.00613.0593-.04884 1.05517-.29158 2.21294-.53944 1.93884-.41506 2.13981-.2923 2.54554 1.55498.39911 1.81711.59695 1.94614 2.10503 1.37276 2.91115-1.10681 8.2103-.68655 13.96439 1.10748 4.4867 1.39888 6.56592 1.69064 10.59759 1.48705 2.75866-.13931 5.01575-.04795 5.01575.20301 0 .79618-5.94526 5.72504-8.1911 6.79076-1.18704.5633-3.80466 1.22003-5.81692 1.45941-6.14926.73153-12.61806 3.45054-12.6555 5.31944-.007.36667.77175 3.6938 1.73132 7.39362 1.6224 6.25548 1.8507 6.70668 3.25749 6.43775 1.28824-.24626 1.60276.09117 2.11873 2.27305.59267 2.50624.68624 2.57229 4.28054 3.02157 6.43726.80464 11.21375 3.03651 15.3 7.1491 3.53698 3.55978 6.98154 9.37327 6.4675 10.9154-.22716.68147-44.8405 13.05602-47.28455 13.11546-.82971.0202-1.24414-.76165-1.57569-2.97261z"/><path fill="#407fa0" d="M432.22277 127.67952c-11.15624-2.02426-18.32748-5.93882-21.39624-11.67952-3.01922-5.64804-.65181-12.7331 6.71733-20.1033 4.53524-4.53589 12.78089-10.13802 17.28948-11.74655 1.74167-.62138 3.16613-1.28436 3.16547-1.4733-.005-1.3116-15.35488-9.13978-23.03648-11.74789l-5.62899-1.91118V36h-38V6h104.66667v30H439.33334v46.33333c0 43.70546-.0661 46.32992-1.16667 46.27317-.64166-.0331-3.31642-.45024-5.9439-.92698zm-283.5561-.35882c-4.58333-.26088-10.80833-.69599-13.83333-.9669l-5.5-.49258V6h29.31627l.1752 23.5L159 53l17.5.17773 17.5.17774V6h30v117.8828l-2.5.40826c-4.61212.7532-21.13314 2.36125-24.33333 2.36846L194 126.66666v-44.6888l-17.5.17774-17.5.17773-.17542 22.83333c-.13572 17.66587-.36202 22.81014-1 22.73085-.45352-.0564-4.57458-.31593-9.15791-.57681zm-38.33334-3.6946c-6.23333-.86872-12.83333-1.8177-14.66666-2.10885l-3.33333-.52937L92 91.32728l-.33333-29.66061-6.24088 11c-3.43248 6.05-8.50818 15.05-11.27932 20-2.77116 4.95-5.38977 9.39129-5.81915 9.86954-.61521.68523-3.1543-3.34209-11.97881-19-6.15897-10.92825-11.53196-20.29096-11.93999-20.80602-.5497-.6939-.8282 5.45344-1.07519 23.73233L43 111.13134l-8.33333-2.11836c-4.58334-1.16511-11.70834-3.10854-15.83334-4.31874l-7.5-2.20036V6L27.5 6.00398l16.16667.00398L55.39894 27.3928c6.45274 11.76167 11.94346 21.43488 12.20158 21.49602.25813.06115 5.82835-9.48882 12.37828-21.22215L91.88776 6.33333l16.05612-.17852L124 5.9763V65.6548c0 56.41657-.0638 59.67503-1.16667 59.61465-.64166-.0351-6.26666-.77464-12.5-1.64336zm118.33334-58.94673V6h29.98294l.1752 23.29221L259 52.58442l16.2663-22.95888 16.26629-22.95887h17.23371c9.47854 0 17.2337.17278 17.2337.38397 0 .21118-1.29698 2.08618-2.88217 4.16666-1.58519 2.08049-9.57661 13.17248-17.75871 24.64888-13.16544 18.46615-14.79866 21.03709-14.1995 22.35212.37238.81727 5.2349 9.54139 10.80562 19.38692 5.57071 9.84553 9.87531 18.15423 9.56576 18.46378-.8885.8885-25.38426 11.26542-27.0062 11.4404-1.23574.1333-2.58016-1.7439-8.82465-12.3217-4.05175-6.86343-7.57341-12.41343-7.82592-12.33333-.25251.0801-2.42751 2.66829-4.83333 5.75154l-4.37423 5.6059v22.40346l-2.5.65433c-7.12106 1.86382-13.74883 3.40097-18.83333 4.36794-3.11667.59272-6.34167 1.22246-7.16667 1.39944l-1.5.32175zm101.54298 15.05205c-1.82487-2.16872-3.26935-4.90219-2.81794-5.3325.15123-.14415 10.84996-3.08909 23.77496-6.5443l23.5-6.28221v1.747c0 1.64116-.43414 1.87923-7.16667 3.92992-8.90643 2.71286-21.96449 7.82282-29.70835 11.62564l-5.87502 2.88509zM325.056 67.16666c-1.07058-8.69464 3.28298-18.12508 10.73412-23.2516 1.97657-1.35991 2.8419-2.37712 2.58708-3.04116-1.2531-3.26551-1.20352-4.29031.22564-4.66404.92767-.2426 1.3247-.75818 1.12366-1.45917-1.77586-6.19206-8.39316-31.733-8.39316-32.39524 0-.72675 1.86962-1.64588 3.41666-1.67968.22917-.005.60316.92338.8311 2.06308.33076 1.65374.65048 1.97272 1.58334 1.57964 2.93998-1.23883 8.0949-1.11849 12.32028.28763 5.90136 1.96384 10.92312 2.67627 14.72317 2.08873l3.20788-.49598-2.87455 2.95404c-3.80814 3.91343-5.67824 4.80852-12.27882 5.87701-5.59364.9055-7.11124 1.453-10.3886 3.74785-1.53842 1.07723-1.70914 1.51324-1.2029 3.07215.32449.9992 1.2385 4.28937 2.03115 7.31147 1.32277 5.0433 1.56175 5.46447 2.90881 5.12638 1.24992-.31371 1.56071.0025 2.09506 2.13129.62274 2.481.6623 2.5055 5.30602 3.28398 5.84779.98035 10.89199 3.49913 14.76628 7.37342 2.83316 2.83316 6.7891 9.91178 5.98733 10.71355-.41314.41314-46.32449 12.83943-47.52207 12.86224-.41667.0079-.95011-1.55786-1.18748-3.48559z"/><path fill="#005481" d="M429.66667 127.01194c-6.54714-1.44372-11.33962-3.55598-14.62042-6.44384-3.92399-3.45404-5.04624-5.65362-5.04624-9.89049 0-5.99793 4.62033-12.87941 12.97516-19.32512 3.79476-2.92763 13.14547-8.01916 14.72738-8.01916.82187 0 .96412 3.29526.96412 22.33333V128l-2.5-.053c-1.375-.0291-4.3-.44992-6.5-.93506zm-290.33333-.46113c-4.58334-.32482-8.70834-.72222-9.16667-.88311-.65829-.23108-.83333-12.8305-.83333-59.98011V6h29.33333V53.33333H194V6h29.33334v59c0 46.75232-.17299 59.00125-.83334 59.00604-.45833.003-4.58333.4315-9.16666.9515-4.58334.51999-10.80834 1.14849-13.83334 1.39667l-5.5.45123V82H158.66667V127.33333l-5.5-.096c-3.025-.0528-9.25-.36172-13.83333-.68655zM122 124.88364c-.91667-.14746-7.36135-1.01838-14.32152-1.93538-6.96017-.91699-13.33517-1.83801-14.16666-2.0467L92 120.52212v-59.503l-6.89675 11.99044c-3.79322 6.59474-9.23143 16.14635-12.08492 21.2258l-5.18815 9.23537-2.81207-4.90203c-1.54663-2.69612-6.83342-12.023-11.74842-20.72642-4.915-8.70342-9.16136-15.82841-9.43636-15.83333-.275-.0049-.5 10.94105-.5 24.32438 0 19.43217-.17332 24.33333-.86051 24.33333-.9869 0-20.81736-5.28636-26.80615-7.14592l-4-1.24204-.17105-48.13935L11.32457 6l16.17105.02616 16.17105.02615L55.3613 27.43574C61.79337 39.19662 67.34337 48.7704 67.69465 48.7108c.35128-.0596 5.94778-9.61891 12.43668-21.24291L91.9293 6.33333l16.03535-.17852L124 5.9763V65.6548c0 32.82319-.075 59.63767-.16667 59.58773-.0917-.0499-.91666-.21144-1.83333-.3589zm106.66667-60.5503V6h29.98294l.1752 23.3306L259 52.6612l16.28737-22.99727 16.28736-22.99726h17.29395c16.86401 0 17.27122.03147 16.3793 1.266C305.05582 35.88144 290.44796 56.48192 290.45419 57c.005.36667 4.85 9.21221 10.76798 19.65677l10.75995 18.9901-2.18333 1.12013c-2.80721 1.44018-20.69359 9.11381-23.96414 10.28111l-2.49868.89181-7.71195-12.9976-7.71195-12.9976-4.6227 5.97317-4.6227 5.97316v22.51317l-7.23773 1.81578c-7.4829 1.87728-20.07131 4.44666-21.78591 4.44666-.84993 0-.97636-7.55362-.97636-58.33333zm207 16.22811c-3.83822-2.57368-17.75152-9.08708-22.02571-10.31115l-4.30762-1.23365V36h-38V6h104.66667v30h-37.33334v23c0 12.65-.225 22.97807-.5 22.95127-.275-.0268-1.4-.65222-2.5-1.38982zm-106.22032-2.17044c-1.16216-1.61827-2.11207-3.19327-2.11093-3.5.002-.46417 45.29126-12.94317 46.83125-12.9038.275.007.5.71572.5 1.57487 0 1.39134-.60113 1.7254-5.5 3.05635-7.34245 1.99483-23.44163 8.19349-30.65335 11.80241-3.201 1.60187-6.07514 2.9125-6.38698 2.9125-.31184 0-1.51783-1.32405-2.67999-2.94233zm-3.66123-8.16146c-.24848-.24847-.45178-2.79052-.45178-5.64899 0-8.74526 3.70373-16.11831 10.17088-20.24723 3.25046-2.07524 3.329-2.32351 2.07102-6.54678-.25188-.8456.0609-1.32388 1.03166-1.57775.7662-.20037 1.39007-.55432 1.38636-.78655C339.98956 35.19 338.04108 27.8 335.66332 19c-2.37776-8.8-4.32472-16.34003-4.32659-16.75562-.002-.41558.77483-.90438 1.726-1.0862 1.44661-.27654 1.84114-.01005 2.41279 1.62978.50375 1.44507.96918 1.8408 1.7706 1.50549 3.18836-1.33401 7.5234-1.08364 13.23856.7646 4.4533 1.44016 7.08853 1.88334 11.04558 1.85759l5.19692-.03382-2.51005 2.57052c-3.25517 3.3336-6.86178 4.9733-12.15278 5.52512-4.44895.464-9.20719 2.30374-10.95587 4.236-.91756 1.0139-.88939 1.59485.28076 5.7901.71535 2.5647 1.60555 5.78277 1.97821 7.15126.54403 1.9978.96633 2.45764 2.14283 2.33333 1.17874-.12454 1.58536.32152 2.07942 2.2811.59384 2.35537.73715 2.45129 4.33384 2.90066 9.78392 1.22242 18.37648 7.74958 21.25836 16.14847.72748 2.12012.7022 2.16115-1.72179 2.79507-3.87557 1.01353-43.00796 11.44115-44.17499 11.77132-.57653.1631-1.25153.09326-1.5-.15522z"/></g></svg>