<svg xmlns="http://www.w3.org/2000/svg" role="img" viewBox="-0.95 -0.89 46.34 12.97"><title>MITgcm logo</title><g transform="translate(-1.172 8.725)"><path d="M8.9414 0H7.78126v-7.51758L5.35547-2.40234h-.6914L2.25585-7.51758V0H1.17187v-8.7246h1.58204L5.08008-3.8672l2.25-4.85742H8.9414z"/><path d="M14.36133 0h-3.44531v-.89063h1.14257v-6.94335h-1.14257v-.89063h3.4453v.89063h-1.14257v6.94336h1.14258z"/><path d="M22.5586-7.69336h-3.1172V0h-1.16015v-7.69336h-3.11719V-8.7246h7.39453z"/><path d="M27.7207-.74414q0 1.66406-.75586 2.44336-.75586.7793-2.32617.7793-.52148 0-1.01953-.07618-.49219-.0703-.97266-.20507v-1.125h.0586q.26952.10546.85546.2578.58594.15821 1.17188.15821.5625 0 .93164-.13476.36914-.13477.57422-.375.20508-.22852.29297-.55079.08789-.32226.08789-.7207v-.59766q-.49805.39844-.95508.59766-.45117.19336-1.1543.19336-1.17187 0-1.86328-.84375-.68554-.8496-.68554-2.39062 0-.84375.23437-1.45313.24024-.61523.6504-1.06055.38085-.41601.92577-.64453.54492-.23437 1.08399-.23437.56836 0 .94922.11719.38671.11132.81445.3457l.07031-.28125h1.03125zm-1.10156-1.05469v-3.56836q-.43945-.19922-.82031-.28125-.375-.08789-.75-.08789-.9082 0-1.42969.60938-.52148.60937-.52148 1.76953 0 1.10156.38671 1.66992.38672.56836 1.2832.56836.48048 0 .96095-.18164.48632-.1875.89062-.49805z"/><path d="M34.72852-.41016Q34.17773-.14648 33.67969 0q-.49219.14648-1.04883.14648-.70898 0-1.30078-.20507-.5918-.21094-1.01367-.63282-.42774-.42187-.66211-1.0664-.23438-.64453-.23438-1.50586 0-1.60547.8789-2.51953.88477-.91407 2.33204-.91407.5625 0 1.10156.1582.54492.15821.9961.38673v1.2246h-.0586q-.5039-.39257-1.04297-.60351-.5332-.21094-1.04297-.21094-.9375 0-1.48242.63281-.53906.62696-.53906 1.8457 0 1.1836.52734 1.82227.5332.63282 1.49414.63282.33399 0 .6797-.0879.3457-.08788.62109-.22851.24023-.12305.45117-.25781.21094-.14063.33398-.24024h.0586z"/><path d="M45.6914 0h-1.10156v-3.72656q0-.42188-.04102-.81446-.03516-.39257-.1582-.62695-.13477-.25195-.38672-.38086-.25195-.1289-.72656-.1289-.4629 0-.92578.23437-.4629.22852-.92578.58594.01758.13476.0293.3164.01172.17579.01172.35157V0h-1.10157v-3.72656q0-.4336-.04102-.82031-.03516-.39258-.1582-.62696-.13477-.25195-.38672-.375-.25195-.1289-.72656-.1289-.45117 0-.9082.22265-.45118.22266-.90235.56836V0h-1.10156v-6.54492h1.10156v.72656q.51563-.42773 1.0254-.66797.51562-.24023 1.0957-.24023.66796 0 1.13086.28125.46875.28125.69726.7793.66797-.5625 1.21875-.8086.55078-.25195 1.17774-.25195 1.07812 0 1.58789.65625.51562.65039.51562 1.82226z"/></g></svg>