<svg xmlns="http://www.w3.org/2000/svg" role="img" viewBox="-1.20 -1.13 59.02 13.46"><title>Minpower logo</title><g transform="translate(-1.172 8.783)"><path d="M8.9414 0H7.78126v-7.51758L5.35547-2.40234h-.6914L2.25585-7.51758V0H1.17187v-8.7246h1.58204L5.08008-3.8672l2.25-4.85742H8.9414z"/><path d="M12.38086-7.64063h-1.24219V-8.7832h1.24219zM12.31055 0h-1.10157v-6.54492h1.10157z"/><path d="M19.9629 0h-1.10157v-3.72656q0-.45117-.05273-.84375-.05273-.39844-.19336-.6211-.14649-.24609-.42188-.36328-.27539-.12304-.71484-.12304-.45117 0-.94336.22265-.49219.22266-.94336.56836V0h-1.10156v-6.54492h1.10156v.72656q.51563-.42773 1.0664-.66797.55079-.24023 1.13087-.24023 1.06054 0 1.61718.63867.55665.63867.55665 1.83984z"/><path d="M27.84375-3.35156q0 .79687-.22852 1.45898-.22851.65625-.64453 1.11328-.38672.4336-.91406.67383-.52148.23438-1.10742.23438-.50977 0-.92578-.11133-.41016-.11133-.8379-.3457v2.74218h-1.10156v-8.95898h1.10157v.68554q.43945-.36914.98437-.61523.55078-.25195 1.17188-.25195 1.1836 0 1.83984.89648.66211.89063.66211 2.47852zm-1.13672.0293q0-1.1836-.4043-1.76954-.4043-.58593-1.24218-.58593-.47461 0-.95508.20507-.48047.20508-.91992.53907v3.70898q.46875.21094.80273.28711.33985.07617.76758.07617.91992 0 1.43555-.6211.51562-.62109.51562-1.83984z"/><path d="M35.13867-3.26953q0 1.5996-.82031 2.52539-.82031.92578-2.19727.92578-1.38867 0-2.20898-.92578-.81445-.92578-.81445-2.5254 0-1.5996.81445-2.52538.82031-.93164 2.20898-.93164 1.37696 0 2.19727.93164.82031.92578.82031 2.52539zm-1.13672 0q0-1.27149-.49804-1.88672-.49805-.6211-1.38282-.6211-.89648 0-1.39453.6211-.49219.61523-.49219 1.88672 0 1.23047.49805 1.86914.49805.63281 1.38867.63281.87891 0 1.37696-.62695.5039-.63281.5039-1.875z"/><path d="M45.07617-6.54492L43.3711 0h-1.01953l-1.68164-5.04492L39 0h-1.01367l-1.72266-6.54492h1.14844l1.20117 5.06836 1.63477-5.06836h.9082l1.67578 5.06836 1.13672-5.06836z"/><path d="M52.14258-3.1582H47.3203q0 .60351.18164 1.05468.18164.44532.49805.73243.30469.28125.7207.42187.42188.14063.92578.14063.66797 0 1.3418-.26368.67969-.26953.9668-.52734h.05859v1.20117q-.55664.23438-1.13672.39258-.58008.1582-1.21875.1582-1.6289 0-2.54297-.8789-.91406-.88477-.91406-2.50782 0-1.60546.87305-2.54882.8789-.94336 2.30859-.94336 1.32422 0 2.03906.77344.7207.77343.7207 2.19726zm-1.07227-.84375q-.0059-.8672-.43945-1.3418-.42773-.4746-1.30664-.4746-.88477 0-1.41211.52147-.52148.52149-.5918 1.29493z"/><path d="M57.89648-5.34375h-.05859q-.24609-.0586-.48047-.08203-.22851-.0293-.54492-.0293-.50976 0-.98437.22852-.47461.22265-.91407.58008V0H53.8125v-6.54492h1.10156v.9668q.65625-.52735 1.1543-.74415.5039-.22265 1.02539-.22265.2871 0 .41602.01758.1289.01172.38671.05273z"/></g></svg>