<svg xmlns="http://www.w3.org/2000/svg" role="img" viewBox="-1.02 -0.96 49.79 11.16"><title>MobiVoc logo</title><g transform="translate(-1.172 9.117)"><path d="M8.9414 0H7.78126v-7.51758L5.35547-2.40234h-.6914L2.25585-7.51758V0H1.17187v-8.7246h1.58204L5.08008-3.8672l2.25-4.85742H8.9414z"/><path d="M16.7754-3.26953q0 1.5996-.82032 2.52539-.82031.92578-2.19727.92578-1.38867 0-2.20898-.92578-.81446-.92578-.81446-2.5254 0-1.5996.81446-2.52538.82031-.93164 2.20898-.93164 1.37696 0 2.19727.93164.82031.92578.82031 2.52539zm-1.13673 0q0-1.27149-.49804-1.88672-.49805-.6211-1.38282-.6211-.89648 0-1.39453.6211-.49219.61523-.49219 1.88672 0 1.23047.49805 1.86914.49805.63281 1.38867.63281.8789 0 1.37696-.62695.5039-.63281.5039-1.875z"/><path d="M24.24023-3.32227q0 .82032-.23437 1.47657-.22852.65625-.6211 1.10156-.41601.46289-.91406.69727-.49804.22851-1.0957.22851-.55664 0-.97266-.13476-.41601-.12891-.8203-.35157L19.51171 0h-1.03125v-9.11719h1.10156v3.25782q.4629-.38086.98438-.6211.52148-.2461 1.17187-.2461 1.16016 0 1.82813.89063.67382.89063.67382 2.51367zm-1.13671.0293q0-1.17187-.38672-1.77539-.38672-.60937-1.24805-.60937-.48047 0-.97266.21093-.49218.20508-.91406.5332v3.75q.46875.21094.80274.29298.33984.08203.76757.08203.91407 0 1.4297-.59766.52148-.60352.52148-1.88672z"/><path d="M27.14063-7.64063h-1.2422V-8.7832h1.2422zM27.0703 0h-1.10156v-6.54492h1.10156z"/><path d="M36.2168-8.7246L33.04102 0h-1.54688l-3.17578-8.7246h1.24219l2.73633 7.67577L35.0332-8.7246z"/><path d="M42.44531-3.26953q0 1.5996-.82031 2.52539-.82031.92578-2.19727.92578-1.38867 0-2.20898-.92578-.81445-.92578-.81445-2.5254 0-1.5996.81445-2.52538.82031-.93164 2.20898-.93164 1.37696 0 2.19727.93164.82031.92578.82031 2.52539zm-1.13672 0q0-1.27149-.49804-1.88672-.49805-.6211-1.38282-.6211-.89648 0-1.39453.6211-.49218.61523-.49218 1.88672 0 1.23047.49804 1.86914.49805.63281 1.38867.63281.87891 0 1.37696-.62695.5039-.63281.5039-1.875z"/><path d="M48.99023-.41016Q48.43945-.14648 47.94141 0q-.4922.14648-1.04883.14648-.70899 0-1.30078-.20507Q45-.26953 44.57813-.69141q-.42774-.42187-.66211-1.0664-.23438-.64453-.23438-1.50586 0-1.60547.8789-2.51953.88477-.91407 2.33204-.91407.5625 0 1.10156.1582.54492.15821.9961.38673v1.2246h-.0586q-.5039-.39257-1.04297-.60351-.5332-.21094-1.04296-.21094-.9375 0-1.48243.63281-.53906.62696-.53906 1.8457 0 1.1836.52735 1.82227.5332.63282 1.49414.63282.33398 0 .67968-.0879.3457-.08788.6211-.22851.24023-.12305.45117-.25781.21094-.14063.33398-.24024h.0586z"/></g></svg>