<svg xmlns="http://www.w3.org/2000/svg" role="img" viewBox="-0.77 -0.71 36.73 10.47"><title>MOM5 logo</title><g transform="translate(-1.172 8.906)"><path d="M8.9414 0H7.78126v-7.51758L5.35547-2.40234h-.6914L2.25585-7.51758V0H1.17187v-8.7246h1.58204L5.08008-3.8672l2.25-4.85742H8.9414z"/><path d="M17.78906-7.72266q.5332.58594.81446 1.43555.2871.84961.2871 1.92773 0 1.07813-.29296 1.9336-.28711.8496-.8086 1.41797-.53906.5918-1.27734.89062-.73242.29883-1.67578.29883-.91992 0-1.67578-.30469-.75-.30468-1.27735-.88476-.52734-.58008-.81445-1.42383-.28125-.84375-.28125-1.92773 0-1.06641.28125-1.91016.28125-.84961.82031-1.45313.51563-.57422 1.27735-.8789.76757-.30469 1.66992-.30469.9375 0 1.68164.31055.75.30468 1.27148.87304zm-.10547 3.36328q0-1.69921-.76171-2.61914-.76172-.92578-2.08008-.92578-1.33008 0-2.0918.92578-.75586.91993-.75586 2.61915 0 1.7168.77344 2.63085.77344.9082 2.07422.9082t2.06836-.9082q.77343-.91406.77343-2.63085z"/><path d="M28.5 0h-1.16016v-7.51758l-2.42578 5.11524h-.6914l-2.4082-5.11524V0h-1.084v-8.7246h1.58204l2.32617 4.85741 2.25-4.85742H28.5z"/><path d="M36.45117-2.77148q0 .60937-.22265 1.16601-.22266.55664-.60938.9375-.42187.41016-1.00781.63281-.58008.2168-1.34766.2168-.71484 0-1.37695-.15234-.66211-.14649-1.11914-.35742v-1.23633h.08203q.48047.30468 1.125.52148.64453.21094 1.26562.21094.41602 0 .80274-.11719.39258-.11719.69726-.41015.25782-.25196.38672-.60352.13477-.35156.13477-.81445 0-.45118-.1582-.76172-.15235-.31055-.42774-.49805-.30469-.22266-.74414-.31055-.4336-.09375-.97266-.09375-.51562 0-.99609.07032-.47461.0703-.82031.14062V-8.7246h5.25v1.0254h-4.11914v2.3203q.25195-.02343.51562-.03515.26367-.01172.45703-.01172.70899 0 1.24219.12305.5332.11718.97852.42187.46875.32227.72656.83203.25781.50977.25781 1.27735z"/></g></svg>