<svg xmlns="http://www.w3.org/2000/svg" role="img" viewBox="-7.99 54.51 415.74 135.99"><title>Monash University logo</title><style>svg {enable-background:new 0 0 400 245}</style><path d="M67.9 73.6c0-1.4-.1-3-.8-4.7v16.2h.8V73.6zm-30.8 5.1c1 .3 2.1.5 3.2.6v-.8c-1-.1-2-.3-3-.6-1.3-.3-2.4-.6-3.6-.6-.6 0-1.2.1-1.6.3v.9c.4-.2 1-.3 1.7-.3 1-.1 2.1.2 3.3.5m0 1.9c1 .2 2.1.5 3.2.6v-.8c-1-.1-2-.3-3-.6-1.2-.3-2.4-.6-3.5-.6-.6 0-1.2.1-1.6.2v.9c.4-.2.9-.3 1.7-.3.9.1 2 .3 3.2.6m0-3.9c1 .3 2.1.5 3.2.6v-.8c-1-.1-2-.3-3-.6-1.3-.3-2.4-.6-3.5-.6-.6 0-1.2.1-1.6.3v.9c.4-.2 1-.3 1.7-.3.9-.1 2 .2 3.2.5m0 5.9c1 .3 2.1.5 3.2.6v-.8c-1-.1-2-.3-3-.6-1.3-.3-2.4-.6-3.6-.6-.6 0-1.2.1-1.6.3v.9c.4-.2 1-.3 1.7-.3 1-.1 2.1.2 3.3.5m0 2c1 .3 2.1.5 3.2.6v-.8c-1-.1-2-.3-3-.6-1.3-.3-2.4-.6-3.5-.6-.6 0-1.2.1-1.6.3v.9c.4-.2 1-.3 1.7-.3.9-.1 2 .2 3.2.5m-9.4-10.4c.7 0 1.2.1 1.7.3v-.9c-.5-.2-1-.2-1.6-.3-1.1 0-2.3.3-3.6.6-1 .3-2 .5-3 .6v.8c1.1-.1 2.1-.3 3.2-.6s2.2-.6 3.3-.5m9.4.5c1 .3 2.1.5 3.2.6v-.8c-1-.1-2-.3-3-.6-1.3-.3-2.4-.6-3.6-.6-.6 0-1.2.1-1.6.3v.9c.4-.2 1-.3 1.7-.3 1-.1 2.1.2 3.3.5m-9.4 1.4c.7 0 1.3.1 1.7.3v-.9c-.5-.2-1-.2-1.6-.3-1.1 0-2.3.3-3.5.6-1 .3-2 .5-3 .6v.8c1.1-.1 2.1-.3 3.2-.6 1-.2 2.1-.5 3.2-.5m0-3.9c.7 0 1.3.1 1.7.3v-.9c-.5-.2-1-.2-1.6-.3-1.1 0-2.3.2-3.6.6-1 .3-2 .5-3 .6v.8c1.1-.1 2.1-.3 3.2-.6s2.2-.6 3.3-.5m0 11.9c.7 0 1.2.1 1.7.3v-.9c-.5-.2-1-.2-1.6-.3-1.1 0-2.3.3-3.6.6-1 .3-2 .5-3 .6v.8c1.1-.1 2.1-.3 3.2-.6s2.2-.6 3.3-.5m0-2c.7 0 1.3.1 1.7.3v-.9c-.5-.2-1-.2-1.6-.3-1.1 0-2.3.3-3.6.6-1 .2-2 .5-3 .6v.8c1.1-.1 2.1-.3 3.2-.6s2.2-.6 3.3-.5m0-4c.7 0 1.3.1 1.7.3v-.9c-.5-.2-1-.2-1.6-.3-1.1 0-2.3.3-3.6.6-1 .3-2 .5-3 .6v.8c1.1-.1 2.1-.3 3.2-.6 1.1-.2 2.2-.5 3.3-.5m0 2c.7 0 1.3.1 1.7.3v-.9c-.5-.1-1-.2-1.6-.2-1.1 0-2.3.3-3.5.6-1 .3-2 .5-3 .6v.8c1.1-.1 2.1-.3 3.2-.6 1-.4 2.1-.6 3.2-.6m9.4-7.4c1 .3 2.1.5 3.2.6v-.8c-1-.1-2-.3-3-.6-1.3-.3-2.4-.6-3.6-.6-.6 0-1.2.1-1.6.2v.9c.4-.2 1-.3 1.7-.3 1 0 2.1.3 3.3.6"/><path d="M85.7 100.3V63H13.1v37.2c0 2-.2 17.3 9.4 33.1 8.6 14.3 21.4 20.6 26.9 22.6 5.5-2 18.4-8.3 27-22.6 9.5-15.8 9.3-31.1 9.3-33m-6.1-20.9c0 .5-.1 1-.3 1.4-.1.3-.3.5-.5.7-.3.1-.6.3-.9.5v-.4c0-.5.1-1 .4-1.5.3-.6.8-1 1.4-1.3-.1.3-.1.4-.1.6m-5.9 9.8c.6-.1 1.3 0 1.8.3-.4.5-1 .8-1.7.9-.6.1-1.3 0-1.9-.3.6-.4 1.1-.8 1.8-.9m-3.1 1v-.1c0-.6.2-1.2.5-1.7s.8-.9 1.4-1.2v.2c0 .6-.2 1.1-.5 1.6-.3.6-.8 1-1.4 1.2m2.4-3.4c.2-.4.5-.7.9-1 .1.3.2.6.2.9 0 .3-.1.6-.2 1s-.4.8-.8 1.1c-.1 0-.3.1-.4.1v-.1c.3-.6.4-1.2.3-2m1.3-1.5c.1-.4.4-.8.7-1.2.3.5.4 1 .4 1.5v.2c0 .5-.2.9-.5 1.3-.1.1-.3.2-.4.2v-.1c.2-.6.1-1.2-.2-1.9m1-1.9c0-.4.1-.9.3-1.3.5.5.8 1 .9 1.6v.4c0 .3-.1.6-.2.9l-.3.3s0-.1-.1-.1c0-.5-.2-1.1-.6-1.8m.4-2c0-.2-.1-.4-.1-.6 0-.2.1-.5.1-.7.5.4 1 .8 1.2 1.4.1.4.2.8.2 1.1v.2c-.1.1-.2.3-.2.4 0 0-.1 0-.1-.1-.1-.6-.5-1.2-1.1-1.7m.1-2c-.2-.4-.3-.9-.3-1.3.6.2 1.2.6 1.5 1.1.3.4.4.8.5 1.2-.1.1-.1.3-.1.4h-.1c-.4-.6-.9-1-1.5-1.4m1.4-1h-.1c-.5-.5-1.1-.8-1.7-1-.3-.3-.5-.7-.6-1.2.6.1 1.2.3 1.7.7.3.3.6.7.8 1.1-.1.1-.1.3-.1.4m-.8-2.2c-.6-.4-1.2-.6-1.9-.6-.4-.3-.6-.6-.9-1.1.7-.1 1.3 0 1.9.3.4.2.7.5 1 .9-.1.2-.1.3-.1.5.1 0 0 0 0 0m-1.2 12.6c-.3-.1-.7-.1-1-.1.4-.5.8-.9 1.3-1.2.6-.2 1.3-.3 1.9-.1-.4.6-.8 1-1.4 1.2-.3.1-.5.2-.8.2m1.7-2.1c-.3 0-.7 0-1 .1.2-.6.6-1.1 1.1-1.5.5-.4 1.2-.6 1.9-.6-.2.7-.6 1.2-1.1 1.6-.3.2-.6.3-.9.4m1.9-3c-.2.2-.4.4-.7.6l-.9.3c.1-.6.3-1.2.7-1.7.4-.5 1-.8 1.6-.9-.1.6-.3 1.2-.7 1.7m.4-6.4c0 .2 0 .5-.1.7-.1.3-.2.6-.4.8-.3.2-.5.4-.7.7-.1-.4-.2-.7-.2-1.1 0-.2 0-.5.1-.7.2-.6.5-1.2 1.1-1.6.1.4.2.8.2 1.2m-2.3-2c0-.6.3-1.2.6-1.8.4.6.6 1.2.6 1.8 0 .3-.1.6-.2.9-.2.3-.4.5-.5.8-.3-.5-.5-1.1-.5-1.7zm-1.3-4.1c.5.4.9 1 1 1.6 0 .2.1.4.1.7v.2c-.2.3-.3.7-.3 1-.5-.4-.8-1-.9-1.5 0-.2-.1-.5-.1-.7 0-.5.1-.9.2-1.3m-.3 2.9s-.1 0 0 0c-.7-.2-1.4-.2-2.2-.1-.4-.2-.8-.5-1.1-.8.6-.2 1.3-.3 1.9-.1.4.1.8.3 1.2.6.1.1.1.2.2.4m-2-4.6c.6.3 1.1.8 1.4 1.3.1.3.2.5.3.8-.1.3-.1.7-.1 1-.6-.3-1-.8-1.3-1.3-.2-.4-.3-.9-.3-1.4-.1-.1 0-.3 0-.4m-.7 1.2l.2.2c.1.3.1.5.3.7.1.2.3.5.5.7-.6 0-1.2-.2-1.6-.6-.5-.4-.9-.9-1.1-1.6.6.1 1.2.2 1.7.6M64 84.6c.4 0 .7.3.7.7 0 .1 0 .2-.1.3-.1.1-.1.3.2.3h1V73.6c0-1.7.1-3.7 1.1-5.6l.3-.5.3.5c.9 2 1.1 4 1.1 5.6v12.3h1c.3 0 .2-.1.2-.3 0-.1-.1-.2-.1-.3 0-.4.3-.7.7-.7.4 0 .7.4.7.8 0 .5-.4 1-1.3 1h-1.6c.2.6.4 1.4.4 2.3 0 1.2-.2 2.2-.5 2.8 1.2-.2 2.1-.5 3-.9h.1l.2.5h-.1c-.8.4-1.5.6-2.4.8 0 0-.7.1-1.1.2.1.1.2.3.2.5 0 .4-.3.7-.7.7-.4 0-.7-.3-.7-.7 0-.2.1-.4.2-.5-.5-.1-1.2-.2-1.2-.2-.9-.2-1.6-.4-2.4-.8L63 91l.2-.5h.1c.9.5 1.8.8 3 1-.4-.6-.6-1.6-.6-2.8 0-.9.1-1.7.4-2.3h-1.6c-.9 0-1.3-.5-1.3-1s.4-.8.8-.8m-2.6 4.2c0 .1 0 .1 0 0H61c-.3-.3-.6-.7-.7-1.1-.1-.3-.2-.6-.2-1 0-.3.1-.6.2-.9.3.3.6.6.9 1-.1.8 0 1.4.2 2m-1.7-13.2c-.7 0-1.4.2-2 .6h-.1c0-.2.1-.3.1-.5.3-.4.6-.7 1-.9.6-.3 1.2-.4 1.8-.3-.1.4-.4.8-.8 1.1m0 11.7s-.1.1 0 0c-.2 0-.3-.1-.4-.2-.3-.4-.4-.8-.5-1.3v-.2c0-.5.2-1 .4-1.5.3.4.6.8.7 1.2-.3.7-.4 1.3-.2 2m-2-3.5c.1-.6.4-1.1.9-1.6.2.4.4.8.4 1.3-.4.6-.7 1.3-.7 1.9l-.1.1-.3-.3c-.1-.3-.2-.6-.2-.9v-.5m-.4-.6s-.1 0 0 0c-.1-.1-.2-.2-.3-.4v-.2c0-.4.1-.8.2-1.1.2-.6.7-1 1.2-1.4 0 .2.1.5.1.7 0 .2 0 .4-.1.6-.5.5-.9 1.1-1.1 1.8m.4-6.3c.4-.4 1-.6 1.7-.7-.1.5-.3.9-.6 1.2-.7.2-1.3.5-1.8 1h-.1V78c.2-.4.5-.8.8-1.1m-.5 2.3c.4-.5.9-.8 1.5-1.1 0 .5-.1.9-.3 1.3-.6.3-1.2.8-1.5 1.4h-.1c0-.1-.1-.3-.1-.4 0-.5.2-.9.5-1.2m-.2 5.3c-.3-.1-.5-.2-.9-.3-.3-.2-.5-.4-.7-.6-.4-.5-.6-1.1-.7-1.8.7.2 1.3.5 1.7.9.3.6.5 1.2.6 1.8m.2.8c.5.4.8.9 1.1 1.5-.3-.1-.7-.1-1-.1-.3-.1-.5-.2-.8-.4-.5-.4-.9-.9-1.1-1.6.7 0 1.3.2 1.8.6m1.4 2.2c.6.2 1 .7 1.4 1.2-.3 0-.7.1-1 .1-.3 0-.6-.1-.9-.2-.6-.2-1.1-.7-1.4-1.2.7-.2 1.3-.2 1.9.1m1.9 1.7c.6.1 1.2.4 1.7.9-.6.3-1.3.4-1.9.3-.6-.1-1.2-.4-1.7-.9.7-.2 1.3-.4 1.9-.3m1.7-.2c-.3-.5-.5-1-.5-1.6v-.2c.6.3 1.1.6 1.5 1.2.3.5.5 1.1.5 1.7v.1c-.7-.2-1.2-.6-1.5-1.2m-1.1-17.4c.1-.2.2-.5.3-.7l.2-.2c.5-.4 1.2-.6 1.9-.6-.2.6-.6 1.2-1.1 1.6-.5.3-1 .5-1.6.6 0-.2.2-.5.3-.7zm-1.6-.8c.3-.6.8-1 1.3-1.3 0 .2.1.3.1.5 0 .5-.1 1-.3 1.4-.2.5-.7 1-1.3 1.3 0-.3 0-.7-.1-1l.3-.9m-.4 2.9c.4-.3.7-.5 1.2-.6.6-.1 1.2-.1 1.8.1-.3.3-.7.6-1.1.8-.7-.1-1.4-.1-2 .1h-.1c.1-.2.2-.3.2-.4m-1.6-.9c.1-.6.5-1.2 1-1.6.2.4.3.8.3 1.2 0 .2 0 .5-.1.7-.1.6-.5 1.1-1 1.5-.1-.3-.2-.7-.3-1v-.2c0-.1 0-.3.1-.6M56 75.3c0-.6.2-1.3.6-1.8.4.6.6 1.2.6 1.8 0 .6-.2 1.2-.5 1.7-.1-.3-.3-.6-.5-.8-.1-.3-.2-.6-.2-.9zm-.7.8c.5.5.9 1 1.1 1.6.1.2.1.5.1.7 0 .4-.1.7-.2 1.1-.2-.3-.4-.5-.7-.7-.2-.3-.3-.5-.4-.8-.1-.2-.1-.5-.1-.7 0-.4.1-.8.2-1.2m-.7 2.8c.6.3 1.1.8 1.4 1.3.2.4.4.9.4 1.5v.4c-.3-.2-.6-.4-.9-.5-.2-.2-.4-.5-.6-.7-.2-.4-.4-.9-.4-1.4.1-.3.1-.4.1-.6m-23.5-8.2v-.6c.5-.4 1.2-.8 2.7-.9 1 0 2.1.2 3.3.5 1.3.4 2.8.7 4.2.6V87.4c-1.4.1-2.7-.2-4-.6-1.3-.3-2.4-.6-3.6-.6-1.1 0-1.9.3-2.6.7V70.7zm-11 0v-.4c1.5.1 2.9-.3 4.2-.6 1.2-.3 2.3-.6 3.3-.5 1.4 0 2.2.4 2.7.9V87c-.7-.5-1.6-.7-2.6-.7-1.1 0-2.3.2-3.6.6-1.3.3-2.7.7-4 .6V70.7m-2.6 0H19l-.1.4v17.6h10.9c.2.3.4.4.9.4s.7-.1.9-.4h10.9V71.2v-.1l-.1-.4h1.5v19.4H32.2c-.3.5-.8.8-1.5.8s-1.2-.4-1.4-.8H17.5V70.7zM39.3 131v2.5l-2-1.5-2 1.5V131l-2.4-.6 1.9-1.6-1-2.3 2.5.5 1.2-2.2 1.1 2.2 2.5-.5-1.1 2.3 1.9 1.6-2.6.6zM53 148.7l-2.5-.9-1.1 2.4-1.1-2.4-2.5.9.9-2.5-2.4-1.1 2.4-1.1-.9-2.5 2.5.9 1.1-2.5 1.1 2.5 2.5-.9-.9 2.5 2.4 1.1-2.4 1.1.9 2.5zM45.8 115l2.5.5 1.1-2.3 1.1 2.3 2.5-.5-1 2.3 1.9 1.6-2.4.6v2.5l-2-1.5-2 1.5v-2.5l-2.4-.6 1.9-1.6-1.2-2.3zm9.9 20.4l-2-1-1.9 1 .4-2.1-1.6-1.5 2.1-.3 1-1.9 1 1.9 2.1.3-1.5 1.5.4 2.1zm7.9-7.9h-2.2l-1.1 1.9-1.1-1.9H57l1.1-1.9-1.1-1.9h2.2l1.1-1.9 1.1 1.9h2.2l-1.2 1.9 1.2 1.9zm13.4 1.4l-27.7-24.8-27.6 24.8c-1.8-3.5-3.1-6.9-4.2-10.1l31.8-28.6 31.8 28.6c-.9 3.2-2.2 6.6-4.1 10.1"/><path d="M90 117.7l-.4 1.2c-.4 1.4-.9 2.8-1.4 4.2l-3.1-2.8-.4 1.1c-1.7 4.9-3.8 9.6-6.5 13.8-6.8 10.9-16.5 18.9-27.8 23 0 0-.8.3-1.2.4-.3-.1-1.1-.4-1.1-.4-11.3-4.2-20.9-12.1-27.8-23-2.6-4.2-4.8-8.8-6.5-13.8l-.4-1.1-.9.8-2.2 2c-.5-1.3-1-2.7-1.4-4.1l-.3-1.2-.9.8-7.7 7 .1.5c1.9 6 4.9 12.1 7.2 16.2l.5.9 3.3-2.9c.1.2.2.5.4.7 8.1 12.9 19.6 22.4 33.2 27.4l4.8 1.8 4.9-1.8c13.6-5 25-14.4 33.2-27.4.1-.2.2-.5.4-.7l3.2 2.9.5-.9c2.3-4 5.3-10.1 7.2-16.2l.1-.5-9-7.9zm-88.2 8.4c.6-.5 5-4.4 6.2-5.6.4 1.3.8 2.5 1.3 3.7L5 128l1.5 9.2c-1.7-3.3-3.4-7.2-4.7-11.1m6.7 14.3l-1-6.7c.8 1.8 1.8 3.5 2.7 5.1-.6.6-1.3 1.2-1.7 1.6m81.7 0c-.4-.4-1-.9-1.7-1.5 1-1.7 1.9-3.3 2.7-5.1l-1 6.6zm-4.1-.3C78.2 152.7 67 162 53.7 166.8c0 0-3.8 1.4-4.3 1.6-.4-.2-4.3-1.6-4.3-1.6-13.3-4.9-24.4-14.1-32.4-26.8-2.3-3.6-4.2-7.6-5.8-11.6.7-.6 4.8-4.3 6-5.4 1.7 4.7 3.7 9.1 6.2 13 7 11.2 16.9 19.4 28.6 23.7l1.7.6 1.7-.6c11.7-4.3 21.5-12.5 28.5-23.7 2.5-4 4.6-8.4 6.2-13 1.2 1.1 5.3 4.8 6 5.4-1.5 4.2-3.5 8.1-5.7 11.7m6.2-2.8l1.5-9.2-4.3-3.8c.5-1.2.9-2.4 1.2-3.7 1.3 1.2 5.6 5 6.2 5.6-1.2 3.9-2.9 7.8-4.6 11.1"/><path d="M15.2 135.9l1.3-1.4-.1-.4-.7-.7c-1.3.2-3.4.6-4.3.6l-.2-.3-.2.1c.1.2.2.4.4.6.1.3.3.5.4.8l.2-.1-.1-.4 1.4-.3.7 1.3c-.2.3-.7.8-1 1l-.3-.3-.3.1.6.9c.2.3.3.6.5.9l.3-.2-.1-.4c.1-.1 1-1.1 1.5-1.8m-1.5-1.6l1.7-.4-1.2 1.3-.5-.9zm7.7 8.1l.2-.2c-.2-.2-.3-.4-.5-.6-.2-.2-.3-.4-.5-.7l-.3.2.2.4c-.6.5-2.3 1.7-2.3 1.7.4-1.1.9-2.5 1.3-3.7-.1-.2-.3-.4-.4-.6-.1-.2-.3-.4-.4-.6l-.2.2.2.4c-.3.3-.6.5-1 .8l-1.1.8c-.4.3-.7.5-1.1.7l-.3-.3-.2.2c.2.2.3.4.5.7.1.2.3.4.5.7l.2-.2-.2-.4c.6-.5 1.6-1.2 2.3-1.7-.5 1.2-.9 2.5-1.4 3.7.1.1.2.3.3.4.1.1.2.3.3.4.4-.3.8-.6 1.3-1l1.1-.8c.4-.3.7-.5 1.1-.7l.4.2zm.3 3.7c-1.1 1-.9 2.4-.1 3.3.6.6 1.2 1 2.3 1.1l.1-.5c-.6-.1-1-.3-1.3-.7-.6-.7-.7-1.7.1-2.4.8-.7 1.6-.5 2.2.1.2.3.4.7.5 1l-.2.3.2.3c.3-.2.7-.5 1-.6-.2-.6-.5-1-.9-1.4-1.3-1.3-2.8-1.6-3.9-.5m8.9 5.3c-1.3-1.1-2.7-.9-3.6.1-.9 1.2-.7 2.5.5 3.5 1.3 1.1 2.7.9 3.6-.1 1-1.1.8-2.5-.5-3.5m-.4 2.7c-.6.8-1.5 1-2.2.4-.7-.6-.6-1.5 0-2.2.7-.8 1.5-1 2.2-.4.7.5.6 1.4 0 2.2m7 2.1c-.3-.2-.6-.3-.8-.5-.3-.2-.6-.3-.8-.5-.2-.1-.5-.3-.7-.5l-.2.3.3.3c-.2.4-.4.7-.6 1.1l-.7 1.1c-.3.4-.5.7-.7 1l-.4-.2-.2.3.9.6.9.6.2-.3-.3-.3c.2-.4.3-.7.6-1.1l.2-.4.3.2c.1.7.1 1.8.2 2.7.4.2.9.4 1.3.7l.2-.2-.1-.2c-.1-.3-.3-2-.4-2.4.6.3 1.3.2 1.6-.4.3-.6.3-1.2-.8-1.9m-.3 1.2c-.3.5-.7.4-1.3.1-.1-.1-.2-.2-.3-.2l.2-.3c.2-.3.4-.6.5-.8.2.1.3.1.6.3.4.3.5.6.3.9m7.1 2.4l-.3-.3c-.3 0-.6-.1-1-.2-.9 1-2.3 2.5-3.1 3.1l-.4-.1-.1.3c.2.1.5.2.7.3.3.1.5.3.8.4l.1-.3-.3-.2.9-1.1 1.3.6c0 .4-.1 1-.2 1.4l-.4-.1-.1.3c.3.1.7.3 1 .4.3.1.6.3.9.5l.1-.3-.3-.2c0-.4.1-1.7.1-2.6l.3-1.9zm-1.4 2l-1-.5 1.2-1.3-.2 1.8zm14.5 1.6c-.2-.3-.4-.7-.5-1.1l-.5-1.2c-.2-.5-.3-.8-.5-1.2l.4-.2-.1-.3c-.3.2-.7.3-1 .4-.3.1-.7.3-1 .4l.1.3.4-.1c.2.3.4.7.6 1.1l.5 1.2c.2.4.3.8.5 1.2l-.4.2.1.3c.3-.2.7-.3 1-.4.3-.1.6-.3 1-.4l-.1-.3-.5.1zm8.3-4.5c-.2-.3-.5-.6-.7-1.1l-.6-1.1c-.3-.4-.4-.7-.6-1.1l.3-.3-.2-.3c-.3.2-.5.3-.8.5-.3.2-.6.3-.8.5.2.6.6 2.9.7 3.3-.5-.4-2.2-1.8-2.6-2.2-.3.2-.5.3-.8.5-.3.2-.6.3-.8.5l.2.2.4-.1.3.5c.3.5 1.3 2.3 1.6 2.8l-.3.3.1.2c.2-.1.5-.3.7-.4.2-.1.5-.3.7-.4l-.2-.3-.4.2c-.2-.3-.5-.6-.7-1.1l-.4-.6c-.3-.6-.5-1-.7-1.2 1.7 1.4 2.6 2.1 3 2.5l.6-.4-.8-3.9c.1.2.4.6.7 1.1l.4.6c.3.4.4.8.6 1.1l-.3.3.1.3.9-.6c.3-.2.6-.4.9-.5l-.1-.3-.4.5zm4.4-3.4c-.3-.3-.5-.6-.9-1l-.6-.7c-.3-.3-.5-.7-.8-1.1.1-.1.2-.3.4-.4.5-.4.9-.3 1.2 0 .3.4.4.8-.1 1.2-.1.1-.2.1-.3.2l.2.6c.2-.1.4-.2.6-.4 1-.8 1-1.8.5-2.4-.5-.6-1.2-.7-2.1 0-.2.2-.4.4-.7.6-.3.2-.5.5-.8.6-.2.2-.5.4-.7.6l.2.2.4-.2c.3.3.5.6.9.9l.8 1c.3.4.5.7.8 1l-.3.3.2.2c.3-.2.5-.5.8-.7.3-.2.6-.4 1-.8l-.2-.2-.5.5zm7.4-6.8c-.4-.1-1.6-.6-2.4-1l-1.7-.8-.4.2c-.2.3-.3.6-.5.9.6 1.2 1.5 3 1.9 3.9l-.2.3.2.2c.2-.2.3-.4.5-.5l.6-.6-.2-.2-.3.2-.7-1.2 1-1.1c.4.2.9.5 1.2.6l-.2.4.2.2c.3-.3.5-.5.7-.8.3-.2.5-.5.8-.7l-.2-.2-.3.2zm-3.5.9l-.8-1.6 1.6.8-.8.8zm8.6-7.2c-.3 0-2 .1-2.5.1.3-.6.3-1.3-.2-1.7-.5-.4-1.1-.4-1.9.6-.2.3-.4.5-.6.8-.2.3-.4.5-.6.8-.2.2-.3.4-.5.6l.2.2.3-.3c.3.2.7.4 1.1.7l1.1.8c.4.3.6.5.9.8l-.2.4.2.2.6-.9c.2-.3.4-.5.7-.8l-.2-.2-.3.3c-.3-.2-.7-.4-1.1-.7l-.3-.3.2-.3c.7 0 1.8 0 2.7.1.2-.4.5-.8.8-1.2l-.2-.2-.2.2zm-3.4.8l-.3.3-.3-.2c-.3-.2-.6-.4-.7-.6.1-.2.2-.3.3-.5.3-.4.7-.5 1-.3.4.3.3.7 0 1.3m6.2-8.9c-1.3-.8-2.6-.3-3.4 1.1-.9 1.4-.4 2.8.7 3.5 1.3.8 2.6.3 3.4-1.1.8-1.5.4-2.9-.7-3.5m.1 3.1c-.4.8-1.4.8-2.2.3-.9-.5-1.2-1.3-.8-2.1.5-.7 1.3-.8 2.2-.3.9.5 1.3 1.4.8 2.1m-35.8 25.4c-.5 0-1 .5-1 1 0 .6.5 1 1 1 .6 0 1-.5 1-1 0-.6-.5-1-1-1m-37.7-32.3c.6 0 1-.5 1-1 0-.6-.5-1-1-1s-1 .5-1 1c0 .6.4 1 1 1m75.6 0c.6 0 1-.5 1-1 0-.6-.5-1-1-1s-1 .5-1 1c0 .6.4 1 1 1m58-9.5v29.4c0 12.1-5 17.7-15.6 17.7-12.3 0-14.9-9.6-14.9-17.7V121h-3.6v29.4c0 13.9 6.2 20.9 18.5 20.9 12.7 0 19.2-7 19.2-20.9V121h-3.6zm26.9 12.7c-5.5 0-10.3 3-12.3 7.5v-6.6h-3.2v35.5h3.2v-19.2c0-8.7 4.8-14.3 12.3-14.3 9.6 0 9.6 8.4 9.6 11.1v22.4h3.2v-21.9c-.1-4-.1-14.5-12.8-14.5m20.6.8v35.6h3.2v-35.6h-.3zm0-10.8v4.7h3.2v-4.7h-.3zm34.8 10.8s-11.3 30.5-11.7 31.6c-.4-1.1-12.5-31.6-12.5-31.6h-3.6l14.3 35.5h3.6l13.4-35.5h-3.5zm20.9-.8c-4.1 0-7.7 1.5-10.5 4.2-3.4 3.5-5.4 9-5.3 15-.1 5.6 1.6 10.4 4.9 13.7 2.8 2.8 6.5 4.3 10.9 4.3 8.5 0 14-4.6 15.4-12.9l.1-.3h-3.2v.2c-1.2 6.4-5.8 10.2-12.2 10.2-3.4 0-6.2-1.1-8.4-3.4-2.7-2.7-4.2-6.9-4.2-11.7v-.1h28.2v-.3-1.3c0-5.4-1.6-10.1-4.6-13.2-2.8-2.9-6.5-4.4-11.1-4.4m0 2.9c7.9 0 12.2 6.8 12.4 13.5H236c.6-6.8 5.1-13.5 12.5-13.5m24.5 5v-7.1h-3.2V170h3.2v-19.4c.3-5.3 1.4-7.3 3.9-9.8 3.8-3.7 8.1-3.5 9.4-3.3h.3v-3.2h-.3c-5.8-.2-11.4 2.9-13.3 7.3m30.5 8.8l-1.1-.2c-5.3-1.1-10.3-2.2-10.3-7.2 0-4.7 5-6.4 9.8-6.4 3.7 0 9.9 1.1 10 8.6v.3h3.2v-.3c0-7.4-4.7-11.5-13.2-11.5-3 0-12.9.7-12.9 9.3 0 7.7 7.1 9.2 12.3 10.2l.9.2c5.6 1.1 10.8 2.2 10.8 7.5 0 6.4-7.5 7.1-10.8 7.1-6.5 0-10.9-3.9-11.3-9.9v-.3h-3.2v.3c.2 7.9 5.7 12.7 14.4 12.7 3.3 0 14-.7 14-10 0-7.5-5.7-9.1-12.6-10.4m19.1-15.9v35.6h3.2v-35.6h-.3zm52.8 0s-11.2 30-11.8 31.3c-.6-1.4-12.8-31.3-12.8-31.3h-11.4v-10.9H336.2v10.9h-6.5v2.8h6.5V162c0 2.7.7 4.7 2 6.1 2.1 2.1 5.6 2.1 8.4 1.9h.3v-2.8h-.3c-2.9.1-4.8-.1-5.9-1.2-.9-.9-1.3-2.3-1.3-4.5v-24.1h8.9c.2.4 13.5 32 13.5 32.2-1.6 4.4-2.5 7-3.5 8-1.6 1.7-3.3 2.2-7.1 2.2h-.3v2.8h.3c3.9 0 6.4-.1 8.3-1.6 1.5-1.2 2.6-3.7 4.2-7.3l15.1-39.1h-3.4zm-52.8-10.8v4.7h3.2v-4.7h-.3zm-130.7-10.3c-14.2-.3-26.1-11.2-25.7-26.2.4-11.8 9.9-25.3 27.2-24.7 12 .2 25.6 9.3 25.2 25.9-.5 16.6-14.6 25.4-26.7 25m.5-47.9c-10.8 0-18.3 8-18.3 21.3 0 16 9.5 23.2 18.5 23.2 10.8 0 18-8.3 18-21.5 0-14-7.3-23-18.2-23M400 63.8v-.7h-14.2v.7c2.8.2 3.6.7 3.6 4.7v17.3H364V68.5c0-4 .8-4.5 3.6-4.7v-.7h-14.2v.7c2.8.2 3.6.7 3.6 4.7v38.8c0 4-.8 4.5-3.6 4.7v.7h14.2v-.7c-2.8-.2-3.6-.7-3.6-4.7V88.8h25.4v18.5c0 4-.8 4.5-3.6 4.7v.7H400v-.7c-2.8-.2-3.6-.7-3.6-4.7V68.5c0-4 .8-4.5 3.6-4.7m-177.7-.7v.7c2.7.1 3.5.4 3.5 3.3v40.2c0 4-.8 4.5-3.6 4.7v.7h10.7v-.7c-2.8-.2-3.6-.7-3.6-4.7V71.2c0 .7 27.6 34.3 33.6 41.5h1.1V67.1c0-2.9.8-3.2 3.5-3.3v-.7H257v.7c2.7.1 3.5.4 3.5 3.3v31.5l-28.8-35.5h-9.4zm69.6 0h-1c-2.5 6-14.1 33.4-18.2 42.9-.7 1.6-1.8 4.3-2.7 5.2-.7.7-1.3.8-1.9.8v.7h9.4v-.7c-.8 0-2.4 0-2.5-1.4 0-.4.1-.9.3-1.5.3-.9 2.2-5.7 4.6-11.2h18.9c1.9 4.6 3.6 8.6 4.3 10.3.2.5.7 1.7.7 2.3 0 1.4-1.2 1.4-2.6 1.4v.7h13.2v-.6c-1.6-.1-2.1-.5-3.3-3.2l-19.2-45.7zm-10.6 31.7c3.2-7.9 8.2-20.4 8.2-20.4s4.4 11.2 8.2 20.4h-16.4zM108.4 63.1v.7c1.5.1 2.4.2 2.9.8.2.2.3.5.4.7.1.3.1.5.1.8v41.1c0 4-.8 4.5-3.6 4.7v.7h10.6v-.6c-2.8-.2-3.6-.7-3.6-4.7V72.9c0-.7-.1-1.9-.1-1.9l.7 1.9 17.1 39.7h1l17.5-40.8.6-1.8s-.1.8-.1 1.5v35.7c0 4-.8 4.5-3.6 4.7v.7h14.2v-.6c-2.8-.2-3.6-.7-3.6-4.7V67.1c0-2.9.8-3.2 3.5-3.3v-.7h-11l-15.8 37.4-16.1-37.4h-11.1zm208.7 46.3c3.3 2 8.3 4.1 13.5 4.1h.3c7.7-.1 15.9-5.8 15.9-14.9 0-9.8-6.9-12-13.8-15.6-7-3.4-9.9-5.2-9.9-9.8 0-3.1 1.9-7.7 8.1-7.7 2 0 3.7.5 5.2 1.3 5 2.8 5.3 6.7 5.9 9.2h.7l-.4-11c-3.2-1.3-5.7-1.9-7.5-2.2-1.1-.1-2.1-.2-2.9-.2-6.9 0-15.1 4.2-15.1 12.9 0 6 3.6 9.7 10.7 13.2 7 3.6 12.3 5 12.3 12 0 3.6-2 9.8-9.9 9.8-3.1 0-5.7-1.1-7.6-2.7-4.7-4.4-4.6-7.9-4.9-9.2h-.7l.1 10.8"/></svg>