<svg xmlns="http://www.w3.org/2000/svg" role="img" viewBox="-2.16 -3.16 424.06 125.06"><title>National Renewable Energy Laboratory (NREL) logo</title><path d="M108 5h1v1h-1zm124 0h1v1h-1zm40 0h1v1h-1zm64 1h1v1h-1zM67 7h1v1h-1zm-28 3h1v1h-1zm15 1h1v1h-1zm-30 6h1v1h-1zm312 0h1v1h-1zm-205 2h1v1h-1zm-85 1h2v1h-2zm2 0h1v1h-1zm30 5h1v1h-1zm-63 2h1v1h-1zm72 0h1v1h-1zm-60 2h1v1h-1zm62 0h1v1h-1zm50 1h1v1h-1zM23 35h1v1h-1zm219 2h1v1h-1zm15 1h1v1h-1zM10 40h1v1h-1zm73 0h1v1h-1zm46 0h1v1h-1zM6 41h1v1H6zm230 3h1v1h-1zM74 46h1v2h-1zm155 0h1v1h-1zM74 48h1v1h-1zm78 0h1v1h-1zM11 52h1v1h-1zm316 1h1v1h-1zM84 55h1v1h-1zm58 3h1v1h-1zm-69 1h1v1h-1zm1 1h1v1h-1zm-4 1h1v1h-1zm5 0h1v1h-1zm1 1h1v1h-1zm1 1h1v1h-1zm-11 3h1v1h-1zm15 1h1v1h-1zm1 1h1v1h-1zm1 1h1v1h-1zm-64 1h1v2h-1zm65 0h1v1h-1zm147 1h1v1h-1zM19 72h1v1h-1zm34 1h1v1h-1zm180 1h1v1h-1zM22 75h1v1h-1zm133 1h1v1h-1zm-89 2h1v1h-1zm189 3h1v1h-1zM38 82h1v1h-1zm5 1h1v1h-1zm-2 1h1v1h-1zm25 3h1v1h-1z" fill="#d7e7f4"/><path d="M44 6h1v1h-1zm80 4h1v1h-1zm-80 1h1v1h-1zm6 0h1v1h-1zm20 0h1v1h-1zm-1 1h1v1h-1zm-1 1h1v1h-1zm182 0h1v1h-1zM71 17h1v1h-1zm264 1h1v1h-1zM70 19h1v1h-1zm-51 2h1v1h-1zm3 0h1v1h-1zm34 0h1v1h-1zm-35 1h1v1h-1zm38 0h1v1h-1zm18 1h1v1h-1zm7 0h1v1h-1zm-9 1h1v1h-1zm12 2h1v1h-1zm50 2h1v1h-1zm-60 2h1v1h-1zm-1 1h1v1h-1zm47 0h1v1h-1zm-48 1h1v1h-1zm-1 1h1v1h-1zm-1 1h1v1h-1zm184 0h1v1h-1zm-14 1h1v1h-1zM7 38h1v1H7zm281 2h1v1h-1zM20 43h1v1h-1zm215 2h1v1h-1zm-85 1h1v1h-1zm-14 3h1v1h-1zm-53 1h1v1h-1zm166 1h1v1h-1zM21 55h1v1h-1zm0 1h1v1h-1zm53 0h1v1h-1zm148 1h1v1h-1zM18 68h1v1h-1zM8 69h1v1H8zm77 2h1v1h-1zM40 82h1v1h-1zm199 0h1v1h-1zm2 3h1v1h-1zM55 87h1v1h-1zM6 88h21v1H6zm21 0h1v1h-1zm41 0h19v1H68zm19 0h1v1h-1z" fill="#539ad0"/><path d="M34 101h1v11h-1zm1 0h1v1h-1zm15 0h1v1h-1zm20 0h1v11h-1zm9 0h1v2h-1zm106 0h1v1h-1zm87 0h1v1h-1zm61 0h1v1h-1zm28 0h1v1h-1zm36 0h1v1h-1zm5 0h1v1h-1zm1 0h1v1h-1zm-380 1h2v1h-2zm2 0h1v1h-1zm10 0h1v1h-1zm13 0h1v1h-1zm55 0h1v1h-1zm7 0h1v1h-1zm5 0h1v1h-1zm12 0h1v1h-1zm127 0h1v1h-1zm14 0h1v1h-1zm6 0h1v1h-1zm76 0h1v1h-1zm-271 1h1v1h-1zm200 0h1v1h-1zm-256 1h1v1h-1zm3 0h1v1h-1zm38 0h1v1h-1zm202 0h1v1h-1zm60 0h1v1h-1zm78 0h1v1h-1zm-328 1h1v2h-1zm74 0h1v1h-1zm208 0h1v1h-1zm29 0h1v1h-1zm1 0h1v1h-1zm12 0h1v1h-1zm-279 1h1v1h-1zm47 0h1v1h-1zm1 0h1v1h-1zm34 0h1v1h-1zm5 0h1v1h-1zm11 0h1v1h-1zm5 0h1v1h-1zm19 0h1v1h-1zm5 0h1v1h-1zm12 0h1v1h-1zm21 0h1v1h-1zm38 0h1v1h-1zm4 0h1v1h-1zm-311 1h1v1h-1zm64 0h1v2h-1zm33 0h1v1h-1zm6 0h1v1h-1zm209 0h1v1h-1zm-258 1h1v1h-1zm15 0h1v1h-1zm27 0h1v1h-1zm44 0h1v1h-1zm107 0h1v1h-1zm23 0h1v4h-1zm31 0h1v2h-1zm50 0h1v1h-1zm24 0h1v1h-1zm1 0h1v1h-1zm-312 1h1v1h-1zm4 0h1v1h-1zm1 0h1v1h-1zm81 0h1v1h-1zm6 0h1v1h-1zm1 0h1v1h-1zm66 0h1v1h-1zm1 0h1v1h-1zm30 0h1v1h-1zm39 0h3v1h-3zm3 0h1v1h-1zm3 0h1v1h-1zm1 0h1v1h-1zm28 0h1v1h-1zm18 0h1v1h-1zm4 0h1v1h-1zm1 0h1v1h-1zm-308 1h1v1h-1zm258 0h1v1h-1zm-299 1h1v1h-1zm34 0h1v1h-1zm67 0h1v1h-1zm145 0h1v1h-1zm73 0h1v1h-1zm19 0h1v1h-1zm-318 1h1v1h-1zm16 0h1v1h-1zm20 0h1v1h-1zm13 0h1v1h-1zm1 0h1v1h-1zm27 0h1v1h-1zm74 0h1v1h-1zm77 0h1v1h-1zm10 0h1v1h-1zm10 0h1v1h-1zm51 0h1v1h-1zm33 0h1v1h-1z" fill="#707982"/><path d="M230 5h1v1h-1zM65 6h1v1h-1zm172 0h1v1h-1zM27 7h1v1h-1zm216 1h1v1h-1zM46 9h3v1h-3zm3 0h1v1h-1zm196 0h1v1h-1zM38 10h1v1h-1zm15 1h1v1h-1zm75 4h1v1h-1zM25 18h1v1h-1zm19 2h1v1h-1zm6 0h1v1h-1zm5 1h1v1h-1zm186 4h1v1h-1zm16 1h1v1h-1zM16 28h1v1h-1zm72 1h1v1h-1zm-62 1h1v1h-1zm115 3h1v1h-1zm116 4h1v1h-1zM84 38h1v1h-1zm-11 1h1v1h-1zm10 2h1v1h-1zM6 42h1v1H6zm233 0h1v1h-1zM74 44h1v1h-1zm58 0h1v1h-1zm-47 1h1v1h-1zm168 2h1v1h-1zM85 49h1v1h-1zm-11 1h1v1h-1zm-63 1h1v1h-1zm143 0h1v1h-1zm-71 2h1v1h-1zm1 3h1v1h-1zm155 2h1v1h-1zM23 59h1v1h-1zm200 0h1v1h-1zm2 3h1v1h-1zM68 64h1v1h-1zm10 2h1v1h-1zm-17 4h1v1h-1zm-43 1h2v1h-2zm2 0h1v1h-1zm133 2h1v1h-1zm97 1h1v1h-1zM70 75h1v1h-1zm300 0h42v1h-42zm42 0h1v1h-1zM23 76h1v1h-1zm4 1h1v1h-1zm40 2h1v1h-1zm-11 3h1v1h-1zm-11 1h1v1h-1zm5 0h1v1h-1zm4 1h1v1h-1zm188 3h1v1h-1zM44 88h1v1h-1zm6 0h1v1h-1z" fill="#b7d3eb"/><path d="M43 6h1v1h-1zm310 1h1v80h-1zM51 11h1v1h-1zm-13 1h1v1h-1zm89 2h1v1h-1zm-75 6h1v1h-1zm-32 3h1v1h-1zm236 0h1v1h-1zM62 24h1v1h-1zm195 4h1v1h-1zM70 32h1v1h-1zm70 0h1v1h-1zm103 2h1v1h-1zM10 38h1v1h-1zm232 0h1v1h-1zM21 39h1v1h-1zm53 3h1v1h-1zm9 1h1v1h-1zm172 0h1v1h-1zM9 45h1v1H9zm124 0h1v1h-1zm121 0h1v1h-1zm-2 3h1v1h-1zM9 49h1v1H9zm11 1h1v1h-1zm133 0h1v1h-1zM71 60h1v1h-1zm-45 4h1v1h-1zm202 2h1v1h-1zM30 68h1v1h-1zm217 2h1v1h-1zM49 74h1v1h-1zm105 0h1v1h-1zM30 77h1v1h-1zm-4 4h1v1h-1zm-1 1h1v1h-1zm-1 1h1v1h-1zm15 1h1v1h-1zm219 2h1v1h-1zm95 1h1v1h-1z" fill="#6fa8d6"/><path d="M68 6h1v1h-1zm41 0h1v1h-1zm164 0h1v1h-1zm81 0h1v1h-1zM69 7h1v1h-1zm19 0h1v19h-1zm75 0h1v54h-1zm-41 1h1v1h-1zM39 9h1v1h-1zm16 0h1v1h-1zm70 3h1v1h-1zm123 0h1v1h-1zM56 13h1v1h-1zm12 1h1v1h-1zm1 1h1v1h-1zm58 0h1v1h-1zm125 1h1v1h-1zm83 1h1v1h-1zM73 18h1v1h-1zm156 0h1v1h-1zm1 0h1v1h-1zM74 19h1v1h-1zm56 0h1v1h-1zm-90 1h1v1h-1zm35 0h1v1h-1zm1 1h1v1h-1zm-16 1h1v1h-1zm19 3h1v1h-1zm8 0h1v1h-1zm169 0h1v1h-1zM14 26h1v1h-1zm66 0h1v1h-1zm8 0h1v1h-1zm47 0h1v1h-1zm108 2h1v1h-1zm-118 5h1v1h-1zM22 34h1v1h-1zm106 3h1v1h-1zM8 38h1v1H8zm1 0h1v1H9zm4 0h1v1h-1zm61 0h1v1h-1zm7 0h1v1h-1zm6 0h1v1h-1zm169 0h1v1h-1zM82 39h1v1h-1zm3 0h2v1h-2zm2 0h1v1h-1zm43 1h1v1h-1zm196 1h1v1h-1zm-86 1h1v1h-1zm14 2h1v1h-1zm-18 1h1v1h-1zm-19 2h11v1h-11zm11 0h1v1h-1zm24 0h1v1h-1zm-5 5h1v1h-1zm79 0h1v1h-1zM9 53h1v1H9zm65 1h1v1h-1zm11 0h1v1h-1zm0 1h1v1h-1zm71 0h1v1h-1zm83 1h1v1h-1zM72 59h1v1h-1zm-1 2h1v1h-1zm92 0h1v1h-1zm-17 1h1v1h-1zm-77 2h1v1h-1zM7 68h1v1H7zm81 0h1v19h-1zm157 0h1v1h-1zM75 69h1v1h-1zM8 70h1v1H8zm66 0h1v1h-1zm4 0h1v1h-1zm169 1h1v1h-1zM22 72h1v1h-1zm38 0h1v1h-1zm94 1h1v1h-1zm-84 1h1v1h-1zm179 0h1v1h-1zM27 76h1v1h-1zm2 1h1v1h-1zm36 0h1v1h-1zm5 1h1v1h-1zm-2 2h1v1h-1zm91 0h1v1h-1zM56 81h1v1h-1zm13 0h1v1h-1zm185 0h1v1h-1zM52 82h1v1h-1zm110 2h1v1h-1zm94 0h1v1h-1zM26 87h1v1h-1zm16 0h1v1h-1zm10 0h1v1h-1zm16 0h1v1h-1zm20 0h1v1h-1zm76 0h1v1h-1zm79 0h1v1h-1zm15 0h1v1h-1z" fill="#006ebe"/><path d="M16 101h1v11h-1zm9 0h1v1h-1zm235 0h1v2h-1zm16 0h1v1h-1zm115 0h1v11h-1zm-361 1h1v1h-1zm9 0h1v1h-1zm192 0h1v1h-1zm38 0h2v1h-2zm2 0h1v1h-1zm88 0h1v1h-1zm-248 1h1v1h-1zm58 0h1v1h-1zm91 0h1v1h-1zm85 0h1v9h-1zM8 104h1v1H8zm40 0h1v1h-1zm14 0h1v1h-1zm17 0h1v1h-1zm50 0h1v1h-1zm22 0h1v1h-1zm37 0h1v1h-1zm95 0h2v1h-2zm2 0h1v1h-1zm85 0h1v8h-1zm-108 1h1v1h-1zm4 0h1v1h-1zm60 0h1v1h-1zm13 0h1v1h-1zm-275 1h1v1h-1zm166 0h1v6h-1zm19 0h1v1h-1zm57 0h1v1h-1zm94 0h1v1h-1zm5 0h1v1h-1zm-383 1h1v1h-1zm213 0h1v1h-1zm78 0h1v1h-1zm86 0h1v1h-1zm-60 1h1v1h-1zm-327 1h1v1h-1zm139 0h2v1h-2zm2 0h1v1h-1zm-43 1h1v1h-1zm52 0h1v1h-1zm14 0h1v1h-1zm89 0h1v1h-1zm-214 1h1v1h-1zm1 0h1v1h-1zm136 0h1v1h-1zm83 0h1v1h-1zm42 0h1v1h-1zm26 0h1v1h-1zm43 0h1v1h-1zm1 0h1v1h-1zm15 0h1v1h-1zm-382 1h2v1h-2zm2 0h1v1h-1zm31 0h1v1h-1zm161 0h1v1h-1zm20 0h1v1h-1zm43 0h1v1h-1zm32 0h1v1h-1zm40 0h1v1h-1zm25 0h1v1h-1zm21 0h1v1h-1z" fill="#b3b7bb"/><path d="M114 101h1v1h-1zm154 0h1v1h-1zm69 0h1v1h-1zm13 0h1v1h-1zm-242 1h1v1h-1zm17 0h1v9h-1zm25 0h1v1h-1zm93 0h1v1h-1zm29 0h1v1h-1zm5 0h1v1h-1zm54 0h2v1h-2zm2 0h1v1h-1zm12 0h1v1h-1zm25 0h1v1h-1zM9 103h1v1H9zm26 0h1v1h-1zm45 0h1v1h-1zm23 0h1v1h-1zm181 0h1v2h-1zm78 0h1v1h-1zm-192 1h1v1h-1zm3 0h1v1h-1zm-45 1h1v1h-1zm156 0h1v1h-1zm115 0h1v1h-1zm-372 1h1v1h-1zm118 0h1v1h-1zm17 0h1v1h-1zm120 0h1v1h-1zm-79 1h1v1h-1zm16 0h1v1h-1zm100 0h1v1h-1zm38 0h1v1h-1zm49 0h1v1h-1zm-239 1h1v1h-1zm114 0h1v4h-1zm26 0h1v1h-1zm-239 1h1v1h-1zm1 0h1v1h-1zm63 1h1v1h-1zm206 0h1v1h-1zm26 0h1v1h-1zm35 0h1v1h-1zm-349 1h1v1h-1zm59 0h1v1h-1zm16 0h1v1h-1zm147 0h1v1h-1zm32 0h1v1h-1zm22 0h1v1h-1zm5 0h1v1h-1zm-296 1h1v1h-1zm68 0h1v1h-1zm165 0h1v1h-1zm13 0h1v1h-1zm43 0h1v1h-1z" fill="#808890"/><path d="M135 101h1v11h-1zm37 0h1v1h-1zm113 0h1v1h-1zm66 0h1v1h-1zm15 0h1v1h-1zm-314 1h1v1h-1zm11 0h1v1h-1zm100 0h1v1h-1zm172 0h1v1h-1zm-309 1h1v1h-1zm193 0h1v2h-1zm54 0h1v1h-1zm46 0h1v2h-1zm21 0h1v1h-1zm65 0h1v1h-1zm-359 1h1v1h-1zm232 0h1v1h-1zm75 0h1v1h-1zm-342 1h1v1h-1zm14 0h1v1h-1zm143 0h1v1h-1zm51 0h1v1h-1zm100 0h1v1h-1zm5 0h1v1h-1zm-137 1h1v1h-1zm45 0h1v1h-1zm109 0h1v1h-1zm-58 1h1v1h-1zm58 0h1v1h-1zm-211 1h1v1h-1zm89 0h1v2h-1zm100 0h1v2h-1zm29 0h1v1h-1zm60 0h1v3h-1zm-362 1h1v1h-1zm268 0h1v1h-1zm37 0h1v1h-1zm-302 1h1v1h-1zm170 0h1v1h-1zm42 0h1v1h-1zm45 0h1v1h-1zm13 0h1v1h-1zm-83 1h1v1h-1zm172 0h1v1h-1zm-273 1h1v1h-1zm17 0h1v1h-1zm23 0h1v1h-1zm176 0h1v1h-1z" fill="#c4c7cb"/><path d="M109 5h10v1h-10zm10 0h1v1h-1zm45 0h10v1h-10zm10 0h1v1h-1zm18 0h37v1h-37zm37 0h1v1h-1zm44 0h61v1h-61zm61 0h1v1h-1zm20 0h13v1h-13zm13 0h1v1h-1zM41 6h1v1h-1zm4 3h1v1h-1zm11 1h1v1h-1zm192 1h1v1h-1zM28 16h1v1h-1zm260 3h1v1h-1zm-155 3h1v1h-1zm-73 1h1v1h-1zm62 7h1v1h-1zm5 7h1v1h-1zM10 39h1v1h-1zm278 0h1v1h-1zm-142 1h1v1h-1zm110 1h1v1h-1zm71 1h1v9h-1zM11 43h1v1h-1zm316 8h1v1h-1zM21 54h1v1h-1zm267 0h1v1h-1zm-148 1h1v1h-1zm81 1h1v1h-1zM87 67h1v1h-1zm-66 5h1v1h-1zm1 1h1v1h-1zm48 4h1v1h-1zm-5 1h1v1h-1zm-19 5h3v1h-3zm3 0h1v1h-1zm-9 1h1v1h-1zm121 0h1v1h-1zm79 0h1v1h-1zM24 85h1v1h-1zm14 2h1v1h-1zm7 1h1v1h-1zm1 0h1v1h-1zm3 0h1v1h-1z" fill="#aacbe6"/><path d="M28 6h1v1h-1zm-4 1h1v1h-1zm21 0h4v1h-4zm4 0h1v1h-1zm7 0h1v1h-1zm14 0h1v1h-1zm123 0h1v81h-1zm41 0h1v1h-1zm1 0h1v1h-1zM41 8h1v1h-1zm12 0h2v1h-2zm2 0h1v1h-1zm184 0h1v1h-1zM122 9h1v1h-1zm122 1h1v1h-1zM39 12h1v7h-1zm6 0h4v1h-4zm4 0h1v1h-1zm198 0h1v1h-1zM55 13h1v6h-1zm70 0h1v1h-1zm-55 2h1v1h-1zm-47 1h1v1h-1zm104 0h1v1h-1zm-98 1h1v1h-1zm177 0h22v1h-22zm22 0h1v1h-1zm24 0h1v1h-1zm36 0h1v1h-1zM67 18h1v1h-1zm138 0h1v1h-1zm23 0h1v1h-1zm59 0h1v1h-1zM26 19h1v1h-1zm13 0h1v1h-1zm14 0h2v1h-2zm2 0h1v1h-1zm181 0h1v1h-1zm17 0h1v1h-1zm-123 1h1v1h-1zm108 0h1v1h-1zm16 1h1v1h-1zM35 22h1v1h-1zm26 0h1v1h-1zm11 0h1v1h-1zM7 23h1v1H7zm9 0h1v1h-1zm116 0h1v1h-1zM7 24h1v2H7zm72 0h1v1h-1zm8 0h1v1h-1zm155 0h1v1h-1zm13 0h1v1h-1zM29 25h1v1h-1zm35 0h1v1h-1zM7 26h1v1H7zm236 0h1v1h-1zM76 27h1v1h-1zm-51 2h1v1h-1zm97 0h1v1h-1zm122 0h1v1h-1zM69 30h1v1h-1zm187 0h1v3h-1zm-118 1h1v1h-1zM23 32h1v1h-1zm101 0h1v1h-1zm1 0h1v1h-1zm131 1h1v1h-1zm-116 1h1v1h-1zm-12 2h1v1h-1zm115 0h1v1h-1zm1 0h1v1h-1zM21 38h1v1h-1zm122 0h1v1h-1zm-62 1h1v1h-1zm174 0h1v1h-1zM86 40h1v1h-1zm-11 1h1v1h-1zm11 0h1v1h-1zm59 0h1v1h-1zM19 42h1v1h-1zm114 1h1v1h-1zm107 0h1v1h-1zM82 45h1v1h-1zm5 0h1v1h-1zm0 1h1v3h-1zm48 0h1v1h-1zm117 0h1v1h-1zm-116 1h1v1h-1zm97 0h1v1h-1zM82 48h1v1h-1zm0 1h1v1h-1zm5 0h1v1h-1zm64 0h1v1h-1zM8 51h1v1H8zm0 1h1v2H8zm11 0h1v1h-1zm134 0h1v1h-1zm67 0h1v1h-1zm26 0h1v1h-1zM86 53h1v1h-1zM8 54h1v1H8zm5 0h1v1h-1zm128 0h1v1h-1zm81 1h1v1h-1zm18 0h1v1h-1zm-84 1h1v1h-1zm-13 1h1v1h-1zm81 1h1v1h-1zm-66 1h1v1h-1zm80 0h1v1h-1zm-79 1h1v1h-1zm-13 1h1v1h-1zm79 0h1v1h-1zm1 0h1v1h-1zM23 62h1v1h-1zm48 0h1v1h-1zm3 0h1v1h-1zm166 0h1v1h-1zM75 63h1v1h-1zm-6 2h1v1h-1zm9 0h1v1h-1zm71 0h1v1h-1zM18 66h1v1h-1zm50 0h1v1h-1zm175 0h1v1h-1zM6 67h1v1H6zm224 0h1v1h-1zM66 68h1v1h-1zm-46 1h1v1h-1zm61 0h1v1h-1zm164 0h1v1h-1zM7 70h1v16H7zm14 0h1v1h-1zm10 0h1v1h-1zm31 0h1v1h-1zm20 0h1v1h-1zm5 0h1v1h-1zm145 0h1v1h-1zM22 71h1v1h-1zm56 0h1v1h-1zm5 0h1v1h-1zm1 0h1v1h-1zM9 72h1v1H9zm8 0h1v1h-1zm6 0h1v1h-1zm61 0h1v1h-1zm70 0h1v1h-1zm93 0h1v1h-1zM18 73h1v1h-1zm6 0h1v1h-1zm1 1h1v1h-1zm27 0h1v1h-1zm17 0h1v1h-1zm-48 1h1v1h-1zm23 0h1v1h-1zm11 0h1v5h-1zm101 0h1v1h-1zm93 0h1v1h-1zM21 76h1v1h-1zm7 0h1v1h-1zm-6 1h1v1h-1zm6 0h1v1h-1zm44 0h1v1h-1zm263 0h1v1h-1zM71 78h1v1h-1zm88 1h1v1h-1zM55 80h1v1h-1zm184 0h1v1h-1zM53 81h1v1h-1zm1 0h1v1h-1zm200 1h1v1h-1zm-92 1h1v1h-1zm79 0h1v1h-1zM22 85h1v1h-1zm50 0h1v1h-1zM7 86h1v1H7zm16 0h1v1h-1zm17 0h1v1h-1zm1 0h4v1h-4zm4 0h1v1h-1zm4 0h1v1h-1zm1 0h3v1h-3zm3 0h1v1h-1zm18 0h1v1h-1zm172 0h1v1h-1zm-123 1h1v1h-1zm45 0h9v1h-9zm79 0h13v1h-13zm13 0h1v1h-1zm78 0h1v1h-1zm-215 1h1v1h-1zm73 0h1v1h-1zm65 0h1v1h-1zm1 0h1v1h-1z" fill="#0077c1"/><path d="M29 6h1v1h-1zm15 3h1v1h-1zm27 0h1v1h-1zm-29 2h1v1h-1zm212 7h1v1h-1zM73 19h1v1h-1zm2 2h1v1h-1zm-56 3h1v1h-1zm-3 1h1v1h-1zm15 0h1v1h-1zm57 16h1v1h-1zm150 2h1v1h-1zM11 44h1v1h-1zm-5 6h1v1H6zm5 0h1v1h-1zm206 0h1v1h-1zM83 52h1v1h-1zm206 1h37v1h-37zm37 0h1v1h-1zM10 55h1v1h-1zm133 4h1v1h-1zM24 61h1v1h-1zm219 3h1v1h-1zM27 65h1v1h-1zm61 0h1v1h-1zm-59 2h1v1h-1zm57 2h1v1h-1zm-27 3h1v1h-1zm1 1h1v1h-1zm1 1h1v1h-1zm173 1h1v1h-1zm54 0h1v1h-1zm81 0h1v1h-1zm-213 2h1v1h-1zM29 78h1v1h-1zm207 0h1v1h-1zM67 80h1v1h-1zm187 0h1v1h-1z" fill="#96c0e1"/><path d="M26 7h1v1h-1zm166 0h1v81h-1zM25 12h1v1h-1zm101 1h1v1h-1zm-97 3h1v1h-1zm41 0h1v1h-1zm-47 1h1v1h-1zm44 0h1v1h-1zm186 0h1v1h-1zm-122 3h1v1h-1zm-59 1h1v1h-1zm1 1h1v1h-1zm-56 1h1v1h-1zm61 1h1v1h-1zm-1 3h1v1h-1zm67 11h1v1h-1zM20 52h1v1h-1zm54 1h1v1h-1zm172 0h1v1h-1zM12 54h1v1h-1zm130 3h1v1h-1zm87 10h1v1h-1zM19 69h1v1h-1zm227 0h1v1h-1zM11 70h1v1h-1zm32 4h1v1h-1zm8 0h1v1h-1zm104 1h1v1h-1zm-83 1h1v1h-1zm264 0h1v11h-1zM41 82h1v1h-1zm-18 3h1v1h-1zm28 0h1v1h-1zm206 0h1v1h-1zm79 2h1v1h-1zm-144 1h1v1h-1z" fill="#0a7ec4"/><path d="M239 7h1v1h-1zM70 8h1v1h-1zm174 1h1v1h-1zM23 10h1v1h-1zm23 1h2v1h-2zm2 0h1v1h-1zm-7 9h1v1h-1zm195 0h1v1h-1zm3 2h1v1h-1zM74 23h1v1h-1zm169 6h1v1h-1zm-104 2h1v1h-1zM9 42h1v1H9zm11 0h1v1h-1zm63 4h1v2h-1zm5 0h1v2h-1zm46 0h1v1h-1zm-51 2h1v1h-1zm5 0h1v1h-1zm64 1h1v1h-1zm-67 4h1v1h-1zM7 55h1v1H7zm233 1h1v1h-1zm-2 1h1v1h-1zM21 60h2v1h-2zm2 0h1v1h-1zm137 0h1v1h-1zM20 61h1v1h-1zm-1 1h1v1h-1zm51 0h1v1h-1zm-52 1h1v1h-1zm-1 1h1v1h-1zm130 0h1v1h-1zm97 2h1v1h-1zM13 68h1v1h-1zm-1 1h1v1h-1zm19 0h1v1h-1zm200 1h1v1h-1zM9 71h1v1H9zm1 0h1v1h-1zm66 1h1v1h-1zm-37 1h1v1h-1zm-14 2h1v1h-1zm230 7h1v1h-1zM44 85h1v1h-1zm10 2h1v1h-1zm282 1h1v1h-1z" fill="#2183c6"/><path d="M120 5h1v1h-1zm43 0h1v1h-1zm12 0h1v1h-1zm160 0h1v1h-1zm33 0h1v1h-1zM53 6h1v1h-1zM25 8h1v1h-1zm25 1h1v1h-1zm75 2h1v1h-1zM25 16h1v1h-1zm49 4h1v1h-1zm161 0h1v1h-1zm53 0h1v18h-1zM39 21h1v1h-1zm198 0h1v1h-1zM85 23h1v1h-1zm157 4h1v1h-1zm-104 2h1v1h-1zm-67 5h1v1h-1zm217 4h1v1h-1zm-48 3h1v1h-1zm87 0h1v1h-1zM6 43h1v1H6zm79 1h1v1h-1zm50 4h1v1h-1zm-50 2h1v1h-1zM6 51h1v1H6zm321 1h1v1h-1zM88 53h1v1h-1zm131 0h1v1h-1zm69 2h1v19h-1zm-129 3h1v1h-1zm82 3h1v1h-1zm-79 1h1v1h-1zM28 66h1v1h-1zm120 0h1v1h-1zM15 67h2v1h-2zm2 0h1v1h-1zm47 1h1v1h-1zm11 2h1v1h-1zm213 4h1v1h-1zM63 76h1v1h-1zm350 0h1v12h-1zM64 77h1v1h-1zm188 0h1v1h-1zM68 81h1v1h-1zm170 0h1v1h-1zM69 82h1v1h-1zm1 1h1v1h-1zm1 1h1v1h-1zm342 4h1v1h-1z" fill="#a2c7e4"/><path d="M46 6h3v1h-3zm3 0h1v1h-1zm17 0h1v1h-1zm55 0h1v1h-1zM41 9h1v1h-1zm8 2h1v1h-1zm-11 2h1v1h-1zm0 7h1v1h-1zm15 0h1v1h-1zm18 0h1v1h-1zm169 3h1v1h-1zM86 24h1v1h-1zm48 0h1v1h-1zm-69 2h1v1h-1zm177 0h1v1h-1zM68 29h1v1h-1zm-44 3h1v1h-1zm102 3h1v1h-1zm-44 3h1v1h-1zm65 4h1v1h-1zm-64 3h1v1h-1zm5 0h1v1h-1zm128 3h1v1h-1zM83 49h1v1h-1zm5 0h1v1h-1zm51 4h1v1h-1zM25 63h1v1h-1zm54 5h1v1h-1zm-19 3h1v1h-1zm173 2h1v1h-1zM73 75h1v1h-1zm-5 1h1v1h-1zm-43 2h1v1h-1zm228 1h1v1h-1zm-93 3h1v1h-1zM45 85h1v1h-1zm5 0h1v1h-1zm-25 1h1v1h-1zm15 1h1v1h-1z" fill="#308ac9"/><path d="M108 6h1v82h-1zm164 0h1v1h-1zM51 20h1v1h-1zM7 27h1v1H7zm13 18h1v1h-1zm211 1h1v1h-1zm-80 1h1v1h-1zm-78 8h1v1h-1zM35 71h1v1h-1zm19 2h1v1h-1zm8 2h1v1h-1zm46 13h1v1h-1z" fill="#9cbfe0"/><path d="M51 100h1v1h-1zm220 0h1v1h-1zm63 0h1v1h-1zm48 0h1v1h-1zm1 0h1v1h-1zm-342 1h1v11h-1zm36 0h1v1h-1zm9 0h1v11h-1zm61 0h1v1h-1zm40 0h1v1h-1zm6 0h1v8h-1zm35 0h1v11h-1zm11 0h1v11h-1zm120 0h1v1h-1zm17 0h1v1h-1zm3 0h1v1h-1zm7 0h1v1h-1zm15 0h1v1h-1zm3 0h1v1h-1zm9 0h1v1h-1zm-366 1h1v1h-1zm141 0h1v1h-1zm96 0h1v1h-1zm-230 1h1v1h-1zm223 0h1v1h-1zm47 0h1v1h-1zm53 0h1v1h-1zm11 0h1v1h-1zm5 0h1v9h-1zm-338 1h1v1h-1zm107 0h1v1h-1zm98 0h1v1h-1zm52 0h1v1h-1zm94 0h1v1h-1zm-100 1h1v1h-1zm-200 1h1v2h-1zm1 0h1v1h-1zm24 0h1v1h-1zm41 0h1v1h-1zm85 0h1v1h-1zm1 0h1v1h-1zm4 0h1v1h-1zm22 0h1v1h-1zm65 0h1v1h-1zm27 0h1v1h-1zm19 0h1v1h-1zm-381 1h1v1h-1zm66 0h1v1h-1zm42 0h1v1h-1zm39 0h1v1h-1zm14 0h1v1h-1zm177 0h1v1h-1zm10 0h1v1h-1zm14 0h1v1h-1zm-362 1h1v1h-1zm44 0h1v1h-1zm10 0h1v1h-1zm15 0h1v1h-1zm23 0h1v1h-1zm80 0h1v1h-1zm179 0h1v1h-1zm-346 1h1v1h-1zm170 0h1v1h-1zm4 0h1v1h-1zm203 0h1v1h-1zm3 0h1v1h-1zm-345 1h1v1h-1zm97 0h1v1h-1zm226 0h1v1h-1zm-347 1h1v1h-1zm17 0h1v1h-1zm28 0h1v1h-1zm72 0h1v1h-1zm18 0h1v1h-1zm192 0h1v1h-1zm-316 1h1v1h-1zm45 0h1v1h-1zm9 0h1v1h-1zm14 0h1v1h-1zm119 0h1v1h-1zm11 0h1v1h-1zm74 0h1v1h-1zm66 0h1v1h-1zm14 0h1v1h-1zm-341 1h1v1h-1zm218 0h1v1h-1zm65 0h1v1h-1zm47 0h1v1h-1zm1 0h1v1h-1z" fill="#eff0f1"/><path d="M39 101h1v1h-1zm126 0h1v1h-1zm65 0h1v1h-1zm168 0h1v1h-1zM6 102h1v9H6zm197 0h1v1h-1zm105 0h1v1h-1zm64 0h1v1h-1zm12 0h1v1h-1zm13 0h1v1h-1zm-319 1h1v1h-1zm50 0h1v1h-1zm139 0h1v1h-1zm84 0h1v1h-1zm60 0h1v1h-1zm-300 1h1v1h-1zm288 0h1v1h-1zM9 105h1v1H9zm147 0h1v1h-1zm30 0h1v1h-1zm93 0h1v1h-1zm-105 1h1v1h-1zm60 0h1v1h-1zm153 0h1v1h-1zm-271 1h4v1h-4zm4 0h1v1h-1zm20 0h5v1h-5zm5 0h1v1h-1zm36 0h3v1h-3zm3 0h1v1h-1zm20 0h3v1h-3zm3 0h1v1h-1zm13 0h3v1h-3zm3 0h1v1h-1zm21 0h3v1h-3zm3 0h1v1h-1zm73 0h3v1h-3zm3 0h1v1h-1zm64 0h1v1h-1zm-365 1h1v1h-1zm4 0h2v1h-2zm2 0h1v1h-1zm127 0h1v1h-1zm195 0h1v1h-1zm-336 1h1v1h-1zm146 0h1v1h-1zm171 0h1v1h-1zm-318 1h1v1h-1zm153 0h1v1h-1zm93 0h1v1h-1zm8 0h1v1h-1zM6 111h1v1H6zm84 0h4v1h-4zm4 0h1v1h-1zm52 0h1v1h-1zm39 0h1v1h-1zm8 0h5v1h-5zm5 0h1v1h-1zm98 0h5v1h-5zm5 0h1v1h-1zm-115 1h1v1h-1z" fill="#91989e"/><path d="M69 101h1v1h-1zm181 0h1v1h-1zm-65 1h1v1h-1zm34 0h1v1h-1zm100 0h1v1h-1zm85 0h1v1h-1zm-246 1h1v1h-1zm96 0h1v1h-1zm76 0h1v1h-1zm-173 1h1v1h-1zm-76 1h1v1h-1zm78 1h1v1h-1zm166 0h1v1h-1zm-260 1h1v1h-1zm183 0h1v1h-1zm22 0h1v1h-1zm37 0h1v1h-1zm-238 1h1v1h-1zm104 0h1v1h-1zm-64 1h1v1h-1zm247 0h1v1h-1zm-336 2h1v1h-1zm8 0h1v1h-1zm175 0h1v1h-1zm178 0h1v1h-1zm-312 1h1v1h-1zm185 0h1v1h-1zm83 0h1v1h-1zm62 0h1v1h-1z" fill="#8d949a"/><path d="M8 6h17v1H8zm17 0h1v1h-1zm44 0h18v1H69zm18 0h1v1h-1zm23 0h9v1h-9zm9 0h1v1h-1zm45 0h10v1h-10zm10 0h1v1h-1zm20 0h36v1h-36zm36 0h1v1h-1zm3 0h1v1h-1zm41 0h60v1h-60zm60 0h1v1h-1zm21 0h12v1h-12zm12 0h1v1h-1zM25 7h1v1h-1zm16 0h1v1h-1zm12 0h1v1h-1zm68 0h1v1h-1zm116 0h1v1h-1zm36 0h1v80h-1zM45 8h5v1h-5zm5 0h1v1h-1zm21 0h1v1h-1zm176 3h1v1h-1zM40 12h1v1h-1zm13 0h1v1h-1zm196 1h1v1h-1zm1 1h1v1h-1zM72 17h1v1h-1zm181 1h1v1h-1zM20 19h1v1h-1zm24 0h1v1h-1zm6 0h1v1h-1zm19 0h1v1h-1zm136 0h1v67h-1zm29 0h1v1h-1zm1 0h1v1h-1zm19 0h1v1h-1zm33 0h1v20h-1zM19 20h1v1h-1zm35 0h2v1h-2zm2 0h1v1h-1zm198 0h1v1h-1zM23 21h1v1h-1zm-1 1h1v1h-1zm12 0h1v1h-1zm-13 1h1v1h-1zm12 0h1v1h-1zm53 0h1v1h-1zm47 0h1v1h-1zM8 24h1v1H8zm23 0h1v1h-1zm103 1h1v1h-1zm122 1h1v1h-1zm-13 1h1v1h-1zM77 28h1v1h-1zm0 1h1v1h-1zm61 1h1v1h-1zM24 31h1v1h-1zm51 0h1v1h-1zm-1 1h1v1h-1zm47 0h1v55h-1zm18 0h1v1h-1zm-66 1h1v1h-1zm53 1h1v1h-1zm130 3h1v1h-1zM86 38h1v1h-1zM9 39h1v1H9zm233 0h1v1h-1zm45 0h1v1h-1zM12 41h1v2h-1zm8 0h1v1h-1zm62 0h1v1h-1zm5 0h1v1h-1zm44 0h1v1h-1zm124 0h1v1h-1zM7 42h1v1H7zm319 0h1v9h-1zM7 43h1v1H7zm5 0h1v1h-1zm63 0h1v1h-1zm72 0h1v1h-1zm-72 1h1v1h-1zm11 0h1v6h-1zm-67 2h1v2h-1zm116 1h1v1h-1zM19 48h1v1h-1zm232 0h1v1h-1zM12 50h1v1h-1zm63 0h1v1h-1zm11 0h1v1h-1zm132 0h1v1h-1zM7 51h1v2H7zm5 0h1v1h-1zm314 0h1v1h-1zm-187 1h1v1h-1zm80 0h1v1h-1zM7 53h1v1H7zm75 0h1v2h-1zm5 0h1v1h-1zm158 0h1v1h-1zM20 54h1v1h-1zm135 0h1v1h-1zm132 0h1v20h-1zM13 55h1v1h-1zm7 0h1v1h-1zm62 0h1v1h-1zm159 0h1v1h-1zm-3 3h1v1h-1zM73 60h1v1h-1zm-50 1h1v1h-1zm51 0h1v1h-1zm86 0h1v1h-1zM24 62h1v1h-1zm217 0h1v1h-1zM70 63h1v1h-1zm77 0h1v1h-1zM25 64h1v1h-1zm217 0h1v1h-1zM17 65h1v1h-1zm131 0h1v1h-1zm-60 1h1v1h-1zm-22 1h1v1h-1zm178 0h1v1h-1zM79 69h1v1h-1zm8 0h1v1h-1zm144 0h1v1h-1zM16 70h1v1h-1zm4 0h1v1h-1zm132 0h1v1h-1zm81 2h1v1h-1zM33 73h1v1h-1zm-9 1h1v1h-1zm8 0h1v1h-1zm22 0h1v1h-1zm233 0h1v1h-1zM31 75h1v1h-1zm38 0h1v1h-1zm181 0h1v1h-1zM22 76h1v1h-1zm8 0h1v1h-1zm37 0h1v1h-1zm303 0h41v1h-41zm41 0h1v1h-1zM71 77h1v1h-1zm165 0h1v1h-1zm176 0h1v11h-1zM24 78h1v1h-1zm2 1h1v1h-1zm134 2h1v1h-1zM45 82h5v1h-5zm5 0h1v1h-1zm-27 1h1v1h-1zm138 0h1v1h-1zm94 0h1v1h-1zM39 85h1v1h-1zm1 0h1v1h-1zm14 0h1v1h-1zm-15 1h1v1h-1zm17 0h1v1h-1zm149 0h1v2h-1zM44 87h6v1h-6zm6 0h1v1h-1zm19 0h1v1h-1zm52 0h1v1h-1zm152 0h1v1h-1zm-68 1h1v1h-1zm207 0h1v1h-1z" fill="#0072bf"/><path d="M50 6h1v1h-1zM38 7h1v1h-1zm30 0h1v1h-1zm178 3h1v1h-1zM26 15h1v1h-1zm1 2h1v1h-1zm37 0h1v1h-1zm65 0h1v1h-1zM22 18h1v1h-1zm41 0h1v1h-1zm-1 1h1v1h-1zm171 0h1v1h-1zM32 24h1v1h-1zm51 0h1v1h-1zm-1 1h1v1h-1zm-1 1h1v1h-1zm-15 1h1v1h-1zm1 1h1v1h-1zm11 1h1v1h-1zm179 1h1v1h-1zm-115 5h1v1h-1zM12 39h1v1h-1zm73 2h1v1h-1zm46 1h1v1h-1zM9 43h1v1H9zm74 1h1v1h-1zm5 0h1v1h-1zm149 0h1v1h-1zm14 5h1v1h-1zM88 50h1v1h-1zm-68 1h1v1h-1zm200 3h1v1h-1zm-76 6h1v1h-1zm96 0h1v1h-1zM16 69h1v1h-1zm22 4h1v7h-1zm17 0h1v1h-1zm-11 1h1v1h-1zm6 0h1v1h-1zm201 2h1v1h-1zm-94 2h1v1h-1zm80 1h1v1h-1zM38 80h1v1h-1zm16 2h1v1h-1zm-16 3h1v1h-1zm8 0h2v1h-2zm2 0h1v1h-1zm-10 1h1v1h-1zm-11 1h1v1h-1zm1 1h1v1h-1zm38 0h1v1h-1zm1 0h1v1h-1zm21 0h1v1h-1z" fill="#4691cc"/><path d="M6 45h1v1H6zm0 1h1v2H6zm0 2h1v1H6zm5 0h1v1h-1z" fill="#89b1da"/><path d="M30 101h1v1h-1zm24 0h1v1h-1zm71 0h1v1h-1zm185 0h1v1h-1zm14 0h1v1h-1zm-274 1h1v1h-1zm19 0h1v5h-1zm94 1h1v1h-1zm175 0h1v1h-1zm22 0h1v1h-1zm-106 1h1v7h-1zm-208 1h1v1h-1zm19 0h1v1h-1zm298 0h1v1h-1zm43 0h1v1h-1zm-385 1h1v1h-1zm290 0h1v1h-1zm18 0h1v1h-1zm-260 1h1v1h-1zm52 0h1v1h-1zm64 0h1v1h-1zm23 0h1v1h-1zm16 0h1v1h-1zm105 0h1v1h-1zm22 0h1v1h-1zm-338 1h1v1h-1zm33 0h1v1h-1zm188 0h1v1h-1zm162 0h1v1h-1zm-339 1h1v1h-1zm17 0h1v1h-1zm87 0h1v1h-1zm76 0h1v1h-1zm93 1h1v1h-1zm-178 1h1v1h-1zm67 0h1v1h-1zm35 0h1v1h-1zm65 0h1v1h-1zm65 0h1v1h-1zm-259 1h1v1h-1zm190 0h1v1h-1z" fill="#8a9298"/><path d="M6 5h22v1H6zm22 0h2v1h-2zm2 0h1v1h-1zm36 0h22v1H66zm22 0h1v1h-1zm33 0h1v1h-1zm55 0h1v1h-1zm193 0h1v1h-1zM55 6h1v1h-1zm183 0h1v1h-1zm-76 1h1v53h-1zM24 10h1v1h-1zm223 0h1v1h-1zM25 11h1v1h-1zm1 1h1v1h-1zm1 1h1v2h-1zm0 2h1v1h-1zm3 1h1v1h-1zm-4 1h1v1h-1zm5 0h1v1h-1zm1 1h1v1h-1zm304 0h1v1h-1zM33 19h1v1h-1zm1 1h1v1h-1zm1 1h1v1h-1zm5 0h1v1h-1zm198 1h1v1h-1zm-104 1h1v1h-1zM9 24h1v1H9zm231 0h1v1h-1zm17 1h1v1h-1zM64 26h1v1h-1zm4 4h1v1h-1zm74 4h1v1h-1zm-16 2h1v1h-1zm-42 3h1v1h-1zm4 0h1v1h-1zm153 0h1v1h-1zM6 40h1v1H6zm5 1h1v1h-1zm10 0h1v1h-1zm110 2h1v1h-1zm124 1h1v1h-1zm-100 8h1v1h-1zm63 0h1v1h-1zM11 53h1v1h-1zm62 1h1v1h-1zm66 0h1v1h-1zm81 1h1v1h-1zm19 2h1v1h-1zM71 59h1v1h-1zm91 1h1v1h-1zM25 62h1v1h-1zm217 0h1v1h-1zM89 64h1v3h-1zm-73 2h1v2h-1zm73 1h1v1h-1zm-73 1h1v1h-1zm60 3h1v1h-1zm-38 1h1v1h-1zm114 0h1v1h-1zM42 73h1v1h-1zm247 2h47v1h-47zm47 0h1v1h-1zm-83 3h1v1h-1zm-16 2h1v1h-1zM52 83h1v1h-1zm187 0h1v1h-1zM42 84h1v1h-1zm0 4h1v1h-1zm47 0h1v1h-1z" fill="#e6f2f9"/><path d="M353 5h1v1h-1zM176 6h1v82h-1zM69 8h1v1h-1zm54 0h1v1h-1zm-82 3h1v1h-1zm190 8h1v1h-1zM45 20h1v1h-1zm4 0h1v1h-1zm207 2h1v1h-1zM18 25h1v1h-1zm45 0h1v1h-1zm-33 1h1v1h-1zm106 0h1v1h-1zm-67 5h1v1h-1zm55 2h1v1h-1zM21 40h1v1h-1zm67 0h1v1h-1zm239 0h1v1h-1zm-178 4h1v1h-1zm85 1h1v1h-1zM85 46h1v2h-1zm145 0h1v1h-1zM85 48h1v1h-1zm-11 1h1v1h-1zm63 2h1v1h-1zM6 52h1v1H6zm4 2h1v1h-1zm2 2h1v1h-1zm133 6h1v1h-1zm82 3h1v1h-1zM65 67h1v1h-1zM9 70h1v1H9zm50 1h1v1h-1zm189 0h1v1h-1zM23 74h1v1h-1zm135 6h1v1h-1zM44 83h1v1h-1zm-18 3h1v1h-1zm2 1h1v1h-1zm231 0h1v1h-1zM51 88h1v1h-1zm125 0h1v1h-1z" fill="#c4dcee"/><path d="M42 7h1v1h-1zm10 0h1v1h-1zm57 0h1v79h-1zm127 0h1v1h-1zM24 8h1v1h-1zm19 0h1v1h-1zm1 0h1v1h-1zm7 0h1v1h-1zm189 0h1v1h-1zM72 9h1v1h-1zm-1 2h1v1h-1zm-29 1h1v1h-1zm1 0h1v1h-1zm9 0h1v1h-1zm18 0h1v1h-1zm-1 1h1v1h-1zm-43 1h1v1h-1zm100 0h1v1h-1zm-55 2h1v1h-1zm57 0h1v1h-1zm-63 1h1v1h-1zm1 0h1v1h-1zm-45 1h1v1h-1zm5 0h1v1h-1zm38 0h1v1h-1zm168 0h1v1h-1zM43 19h1v1h-1zm8 0h1v1h-1zm12 0h1v1h-1zm-1 1h1v1h-1zm8 0h1v1h-1zm-52 1h1v1h-1zm43 0h1v1h-1zm70 0h1v1h-1zM10 22h1v1h-1zm75 0h1v1h-1zm-7 1h1v1h-1zm5 0h1v1h-1zm-9 1h1v1h-1zm8 0h1v1h-1zm-1 1h1v1h-1zm-15 1h1v1h-1zm-48 1h1v1h-1zm49 0h1v1h-1zm189 0h1v1h-1zM68 28h1v1h-1zm-42 1h1v1h-1zm50 1h1v1h-1zm45 1h1v1h-1zm123 0h1v2h-1zM71 32h1v1h-1zm173 1h1v1h-1zm12 3h1v1h-1zm-127 2h1v1h-1zm114 0h1v1h-1zm-99 1h1v1h-1zm112 0h1v1h-1zM7 40h1v1H7zm78 0h1v1h-1zm61 1h1v1h-1zm143 0h36v1h-36zm36 0h1v1h-1zM82 42h1v1h-1zm5 0h1v1h-1zm-1 1h1v1h-1zm168 0h1v1h-1zM7 44h1v2H7zm5 0h1v5h-1zm7 0h1v1h-1zm0 1h1v1h-1zm115 0h1v1h-1zm119 0h1v1h-1zM7 46h1v4H7zm1 0h1v2H8zm245 0h1v1h-1zm-22 1h1v1h-1zM8 48h1v1H8zm4 1h1v1h-1zm7 0h1v1h-1zm231 0h1v1h-1zM7 50h1v1H7zm145 0h1v1h-1zm97 0h1v1h-1zM75 51h1v1h-1zm7 0h1v1h-1zm4 0h1v1h-1zm-4 1h1v1h-1zm5 0h1v1h-1zm67 0h1v1h-1zm135 0h36v1h-36zm36 0h1v1h-1zM12 53h1v1h-1zm-5 1h1v1H7zm133 0h1v1h-1zm103 0h1v1h-1zM8 55h1v1H8zm73 0h1v1h-1zm140 0h1v1h-1zm-79 1h1v1h-1zm-70 4h1v1h-1zm153 0h1v1h-1zm-62 2h1v1h-1zM17 66h1v1h-1zm50 0h1v1h-1zm162 0h1v1h-1zm-79 1h1v1h-1zM15 68h1v1h-1zm4 0h1v1h-1zm11 1h1v1h-1zm33 1h1v1h-1zm183 0h1v1h-1zM18 72h1v1h-1zm135 0h1v1h-1zm95 1h1v1h-1zM39 74h1v1h-1zm1 0h2v1h-2zm2 0h1v1h-1zm33 0h1v1h-1zm80 0h1v1h-1zM26 75h1v1h-1zm20 0h2v1h-2zm2 0h1v1h-1zm26 0h1v1h-1zm213 0h1v1h-1zm81 0h1v1h-1zm-79 1h46v1h-46zm46 0h1v1h-1zm34 0h1v1h-1zm-131 4h1v1h-1zM55 81h1v1h-1zm185 2h1v1h-1zM72 84h1v1h-1zm-30 1h1v1h-1zm13 0h1v1h-1zm1 0h1v1h-1zm53 1h1v2h-1zm148 0h1v1h-1zM25 87h1v1h-1zm28 0h1v1h-1zm56 1h1v1h-1zm12 0h1v1h-1zm44 0h1v1h-1zm108 0h1v1h-1z" fill="#0073c0"/><path d="M23 101h1v1h-1zm127 0h1v1h-1zm60 0h1v1h-1zm16 0h1v1h-1zm106 0h1v2h-1zm-281 1h1v1h-1zm5 0h1v1h-1zm194 0h1v1h-1zm84 0h1v1h-1zm48 0h1v1h-1zm1 0h1v1h-1zm-274 1h1v1h-1zm77 0h2v1h-2zm2 0h1v1h-1zm74 0h1v1h-1zm3 0h1v1h-1zm67 0h1v1h-1zm38 0h1v1h-1zm-294 1h1v1h-1zm282 0h1v1h-1zm3 0h1v1h-1zm-338 1h1v1h-1zm139 0h1v1h-1zm68 0h1v1h-1zm121 0h1v1h-1zm-295 1h1v1h-1zm208 0h1v1h-1zm6 0h1v1h-1zm80 0h1v1h-1zm-324 1h1v1h-1zm30 0h1v1h-1zm193 0h1v1h-1zm15 0h1v1h-1zm11 0h1v3h-1zm-114 1h1v1h-1zm105 0h1v1h-1zm39 0h1v1h-1zm-47 1h1v1h-1zm17 1h1v1h-1zm-191 1h1v1h-1zm115 0h1v1h-1zm27 0h1v1h-1zm44 0h1v1h-1zm32 0h1v1h-1zm33 0h1v1h-1zm31 0h1v1h-1zm-41 1h1v1h-1zm7 0h1v1h-1z" fill="#bfc3c6"/><path d="M60 101h1v11h-1zm150 1h1v1h-1zm16 0h1v1h-1zm140 0h1v1h-1zm12 0h1v1h-1zm9 0h1v1h-1zm13 0h1v1h-1zm-343 1h1v1h-1zm98 0h1v1h-1zm18 0h1v1h-1zm30 0h1v1h-1zm206 0h1v1h-1zm-260 1h1v1h-1zm180 0h1v1h-1zm22 0h1v1h-1zm12 0h1v1h-1zm-342 1h1v1h-1zm41 0h1v1h-1zm68 0h1v1h-1zm27 0h1v1h-1zm7 0h1v1h-1zm6 0h1v1h-1zm94 0h1v1h-1zm17 0h1v1h-1zm60 0h1v1h-1zm12 0h1v1h-1zm57 0h1v1h-1zm-352 1h2v1h-2zm50 0h1v1h-1zm46 0h1v1h-1zm112 0h1v1h-1zm9 0h1v1h-1zm-217 1h2v1h-2zm52 0h1v1h-1zm57 0h1v1h-1zm21 0h1v1h-1zm37 0h1v1h-1zm41 0h1v1h-1zm-192 1h1v1h-1zm84 0h1v1h-1zm45 0h1v2h-1zm61 0h1v1h-1zm92 0h1v1h-1zm-201 1h1v1h-1zm174 0h1v1h-1zm-155 1h1v1h-1zm29 0h1v1h-1zm182 0h1v1h-1zm12 0h1v1h-1zm-238 1h1v1h-1zm219 0h1v1h-1zm-350 1h1v1h-1zm32 0h1v1h-1zm94 0h1v1h-1zm33 0h1v1h-1z" fill="#d9dbdd"/><path d="M133 101h1v6h-1zm210 0h1v11h-1zm-32 1h1v1h-1zm-247 1h1v1h-1zm87 0h1v1h-1zm135 0h1v1h-1zm94 0h1v1h-1zm-194 1h1v1h-1zm186 0h1v8h-1zm-184 1h1v1h-1zm43 0h1v1h-1zm79 0h1v1h-1zm21 0h1v1h-1zm-319 1h1v1h-1zm99 0h1v1h-1zm41 0h1v1h-1zm156 0h1v1h-1zm56 0h1v1h-1zm33 0h1v1h-1zm-264 1h1v1h-1zm17 0h1v1h-1zm107 1h1v1h-1zm74 0h1v1h-1zm-302 1h1v1h-1zm37 0h1v1h-1zm259 0h1v1h-1zm-304 1h1v1h-1zm52 0h1v1h-1zm279 0h1v1h-1zm3 0h1v1h-1zm-93 1h1v1h-1zm88 0h1v1h-1zm37 0h1v1h-1zm-373 1h1v1h-1zm133 0h1v1h-1zm113 0h1v1h-1zm83 0h1v1h-1zm29 0h1v1h-1z" fill="#e9eaeb"/><path d="M51 6h1v1h-1zm302 0h1v1h-1zM42 9h1v1h-1zm10 0h1v1h-1zM23 20h1v1h-1zm15 1h1v1h-1zM9 23h1v1H9zm248 12h1v1h-1zM88 43h1v1h-1zm0 8h1v1h-1zm-14 1h1v1h-1zm11 0h1v1h-1zm-73 3h1v1h-1zm-4 1h1v1H8zm1 0h1v1H9zm5 0h5v1h-5zm5 0h1v1h-1zm62 0h1v1h-1zm60 0h1v1h-1zm85 7h1v1h-1zM16 65h1v1h-1zm-9 2h1v1H7zm27 6h1v1h-1zm-1 1h1v1h-1zm12 0h1v1h-1zm-13 1h1v1h-1zm-1 1h1v1h-1zm38 2h1v1h-1zm-46 6h1v1h-1zm44 3h1v1h-1zm176 1h1v1h-1z" fill="#6da3d3"/><path d="M52 100h1v1h-1zm218 0h1v1h-1zm65 0h1v1h-1zm-321 1h1v5h-1zm113 0h1v1h-1zm180 2h1v1h-1zm65 0h1v1h-1zm26 0h1v1h-1zm-165 1h1v1h-1zm-175 1h1v1h-1zm51 0h1v1h-1zm173 0h1v1h-1zm-268 1h1v1h-1zm68 0h1v1h-1zm40 0h1v1h-1zm-112 1h1v1h-1zm123 1h1v1h-1zm140 0h1v1h-1zm-218 1h1v1h-1zm218 0h1v1h-1zm-246 1h1v1h-1zm135 1h1v1h-1zm-107 1h1v1h-1zm112 0h1v1h-1z" fill="#ecedee"/><path d="M88 101h1v9h-1zm21 0h1v1h-1zm61 0h1v1h-1zm9 0h1v11h-1zm115 0h1v11h-1zm-258 1h1v1h-1zm81 0h5v1h-5zm5 0h1v1h-1zm18 0h6v1h-6zm6 0h1v1h-1zm35 0h3v1h-3zm3 0h1v1h-1zm21 0h4v1h-4zm4 0h1v1h-1zm11 0h5v1h-5zm5 0h1v1h-1zm20 0h4v1h-4zm4 0h1v1h-1zm17 0h1v1h-1zm54 0h2v1h-2zm2 0h1v1h-1zm17 0h1v1h-1zm-296 1h1v7h-1zm200 0h1v2h-1zm-233 1h1v1h-1zm220 0h1v1h-1zm50 0h1v1h-1zm108 0h1v1h-1zm-145 1h1v1h-1zm69 0h1v1h-1zm17 0h1v1h-1zm-249 1h1v1h-1zm70 0h1v1h-1zm121 0h2v1h-2zm2 0h1v1h-1zm89 0h1v1h-1zm16 0h1v1h-1zm31 0h1v1h-1zm-246 1h1v1h-1zm10 0h1v1h-1zm60 0h1v1h-1zm93 0h1v1h-1zm69 0h1v1h-1zm-220 1h1v1h-1zm62 0h1v1h-1zm6 0h1v2h-1zm82 0h1v1h-1zm4 0h1v1h-1zm-310 2h1v1h-1zm24 0h1v1h-1zm45 0h1v1h-1zm20 0h1v1h-1zm135 0h1v1h-1zm114 0h1v1h-1zm-107 1h1v1h-1zm19 0h1v1h-1zm131 0h1v1h-1zm-235 1h1v1h-1zm14 0h1v1h-1zm20 0h1v1h-1zm38 0h1v1h-1zm57 0h1v1h-1zm8 0h1v1h-1z" fill="#a8adb2"/><path d="M45 6h1v1h-1zm190 0h1v1h-1zM38 8h1v1h-1zm204 0h1v1h-1zM38 9h1v1h-1zm15 0h1v1h-1zm-8 2h1v1h-1zm11 1h1v1h-1zm-18 2h1v5h-1zm27 2h1v1h-1zm223 2h1v1h-1zM38 19h1v1h-1zm23 1h1v1h-1zm-1 1h1v1h-1zm-42 1h1v1h-1zm-3 4h1v1h-1zm73 2h1v1h-1zm169 3h1v2h-1zm0 2h1v1h-1zM74 41h1v1h-1zm176 9h1v1h-1zM9 51h1v1H9zm209 0h1v1h-1zm-63 2h1v1h-1zm87 10h1v1h-1zm-90 8h1v1h-1zm-77 2h1v1h-1zm-1 1h1v1h-1zm161 2h1v1h-1zM38 81h1v1h-1zm18 3h1v1h-1zm-7 1h1v1h-1zm22 0h1v1h-1z" fill="#398ecb"/><path fill="#6aaad8" d="M353 88h1v1h-1z"/><path d="M15 101h1v1h-1zm27 0h1v1h-1zm11 0h1v1h-1zm8 0h1v2h-1zm26 0h1v1h-1zm47 0h1v1h-1zm12 0h1v1h-1zm3 0h1v1h-1zm8 0h1v1h-1zm7 0h1v2h-1zm45 0h1v1h-1zm20 0h1v2h-1zm13 0h1v1h-1zm35 0h1v1h-1zm9 0h1v1h-1zm9 0h1v1h-1zm65 0h1v1h-1zm7 0h1v1h-1zm8 0h1v1h-1zm-313 1h1v1h-1zm16 0h1v1h-1zm31 0h1v1h-1zm48 0h1v1h-1zm23 0h1v1h-1zm6 0h1v1h-1zm6 0h1v8h-1zm10 0h1v1h-1zm16 0h1v1h-1zm12 0h1v1h-1zm48 0h1v1h-1zm7 0h1v1h-1zm25 0h1v1h-1zm8 0h1v1h-1zm26 0h1v1h-1zm16 0h1v1h-1zm1 0h1v1h-1zm18 0h1v1h-1zm1 0h1v1h-1zm5 0h1v1h-1zm7 0h1v1h-1zm7 0h1v1h-1zm-374 1h1v1h-1zm23 0h1v1h-1zm13 0h1v1h-1zm66 0h1v1h-1zm12 0h1v2h-1zm11 0h1v1h-1zm14 0h1v1h-1zm6 0h1v1h-1zm59 0h2v1h-2zm2 0h1v1h-1zm54 0h1v1h-1zm23 0h1v1h-1zm70 0h1v1h-1zm-67 1h1v1h-1zm76 0h1v1h-1zM7 105h1v6H7zm40 0h1v1h-1zm33 0h1v1h-1zm59 0h1v1h-1zm93 0h1v1h-1zm51 0h1v1h-1zm24 0h1v1h-1zm23 0h1v1h-1zm47 0h1v1h-1zm28 0h1v1h-1zm-394 1h1v1h-1zm99 0h1v1h-1zm63 0h1v1h-1zm13 0h1v1h-1zm16 0h1v1h-1zm16 0h1v1h-1zm24 0h1v1h-1zm19 0h1v1h-1zm57 0h1v1h-1zm6 0h1v1h-1zm27 0h1v1h-1zm55 0h2v1h-2zm2 0h1v1h-1zm-300 1h1v1h-1zm22 0h1v1h-1zm29 0h1v1h-1zm43 0h1v1h-1zm16 0h1v1h-1zm24 0h1v1h-1zm29 0h1v1h-1zm3 0h1v1h-1zm7 0h1v1h-1zm37 0h1v1h-1zm7 0h1v1h-1zm24 0h1v1h-1zm14 0h1v1h-1zm34 0h1v1h-1zm-382 1h1v1h-1zm32 0h1v1h-1zm28 0h1v1h-1zm7 0h1v1h-1zm57 0h1v2h-1zm119 0h1v1h-1zm72 0h1v1h-1zm19 0h1v1h-1zm8 0h1v1h-1zm20 0h1v1h-1zm20 0h1v1h-1zm-369 1h1v1h-1zm39 0h1v1h-1zm67 0h1v3h-1zm33 0h1v1h-1zm-99 1h1v1h-1zm15 0h1v1h-1zm56 0h1v1h-1zm13 0h1v1h-1zm40 0h1v1h-1zm44 0h1v1h-1zm115 0h1v1h-1zm27 0h1v1h-1zm20 0h1v1h-1zM7 111h1v1H7zm22 0h1v1h-1zm25 0h1v1h-1zm1 0h1v1h-1zm14 0h1v1h-1zm5 0h1v1h-1zm13 0h1v1h-1zm73 0h1v1h-1zm1 0h1v1h-1zm19 0h1v1h-1zm22 0h1v1h-1zm16 0h1v1h-1zm19 0h1v1h-1zm24 0h1v1h-1zm34 0h1v1h-1zm23 0h1v1h-1zm19 0h1v1h-1zm14 0h1v1h-1zm5 0h1v1h-1zm23 0h1v1h-1zm-360 1h1v1h-1zm10 0h1v1h-1zm22 0h2v1h-2zm2 0h1v1h-1zm20 0h1v1h-1zm21 0h1v1h-1zm28 0h1v1h-1zm12 0h1v1h-1zm12 0h1v1h-1zm20 0h1v1h-1zm10 0h1v1h-1zm66 0h1v1h-1zm27 0h1v1h-1zm35 0h1v1h-1zm30 0h2v1h-2zm2 0h1v1h-1zm8 0h1v1h-1zm8 0h1v1h-1zm19 0h1v1h-1zm29 0h1v1h-1z" fill="#5e6973"/><path d="M31 101h2v1h-2zm2 0h1v1h-1zm3 0h2v1h-2zm2 0h1v1h-1zm65 0h4v1h-4zm4 0h1v1h-1zm8 0h7v1h-7zm7 0h1v1h-1zm4 0h1v2h-1zm13 0h6v1h-6zm6 0h1v1h-1zm35 0h4v1h-4zm4 0h1v1h-1zm18 0h6v1h-6zm6 0h1v1h-1zm11 0h5v1h-5zm5 0h1v1h-1zm14 0h1v1h-1zm5 0h5v1h-5zm5 0h1v1h-1zm5 0h5v1h-5zm5 0h1v1h-1zm61 0h4v1h-4zm4 0h1v1h-1zm21 0h5v1h-5zm5 0h1v1h-1zm19 0h2v1h-2zm2 0h4v1h-4zm4 0h1v1h-1zm18 0h4v1h-4zm4 0h1v1h-1zm16 0h1v1h-1zM8 102h1v1H8zm141 0h1v1h-1zm7 0h1v2h-1zm31 0h1v1h-1zm137 0h1v1h-1zm13 0h1v1h-1zM7 103h1v1H7zm55 0h1v1h-1zm64 0h1v9h-1zm233 0h1v1h-1zm20 0h1v1h-1zm20 0h1v1h-1zM7 104h1v1H7zm56 0h1v1h-1zm93 0h1v1h-1zm109 0h1v1h-1zm74 0h1v1h-1zm70 0h1v1h-1zm1 0h1v1h-1zm-255 1h1v1h-1zm-133 1h1v1h-1zm4 0h1v1h-1zm20 0h1v1h-1zm69 0h1v1h-1zm14 0h1v1h-1zm10 0h1v1h-1zm24 0h1v1h-1zm117 0h1v1h-1zm-234 1h1v1h-1zm141 0h1v1h-1zm86 0h1v1h-1zm33 0h1v2h-1zm92 0h1v2h-1zm-244 1h1v2h-1zm34 0h1v1h-1zm124 0h1v1h-1zm-291 1h4v1h-4zm4 0h2v1h-2zm2 0h1v1h-1zm50 0h2v1h-2zm2 0h1v1h-1zm80 0h1v1h-1zm11 0h2v1h-2zm2 0h2v1h-2zm2 0h1v1h-1zm64 0h1v3h-1zm27 0h1v1h-1zm44 0h1v1h-1zm1 0h1v1h-1zm29 0h1v1h-1zm20 0h2v1h-2zm2 0h1v1h-1zm36 0h1v1h-1zm1 0h1v1h-1zm-329 1h1v1h-1zm84 0h1v1h-1zm1 0h1v1h-1zm83 0h1v1h-1zm150 0h1v1h-1zm-254 1h1v1h-1zm43 0h1v1h-1zm92 0h1v1h-1zm6 0h1v1h-1zm31 0h1v1h-1zm81 0h1v1h-1zm-298 1h5v1h-5zm5 0h1v1h-1zm17 0h1v1h-1zm5 0h6v1h-6zm6 0h1v1h-1zm5 0h1v1h-1zm13 0h6v1h-6zm6 0h1v1h-1zm15 0h1v1h-1zm20 0h4v1h-4zm4 0h1v1h-1zm8 0h5v1h-5zm5 0h1v1h-1zm6 0h5v1h-5zm5 0h1v1h-1zm11 0h5v1h-5zm5 0h1v1h-1zm14 0h1v1h-1zm5 0h6v1h-6zm6 0h1v1h-1zm46 0h5v1h-5zm5 0h1v1h-1zm14 0h1v1h-1zm5 0h4v1h-4zm4 0h1v1h-1zm61 0h1v1h-1z" fill="#66717a"/><path d="M42 6h1v1h-1zm10 0h1v1h-1zm188 1h1v1h-1zM52 11h1v1h-1zm200 4h1v1h-1zM69 18h1v1h-1zm61 0h1v1h-1zM24 19h1v1h-1zm208 0h1v1h-1zM43 20h1v1h-1zm212 0h1v1h-1zM10 23h1v1h-1zm-2 2h1v1H8zm68 0h1v1h-1zm181 2h1v1h-1zM6 29h1v1H6zm10 0h1v1h-1zm127 7h1v1h-1zm114 0h1v1h-1zM12 38h1v1h-1zm118 3h1v1h-1zm-47 1h1v1h-1zm2 1h1v1h-1zM6 44h1v1H6zm5 1h1v1h-1zm-5 4h1v1H6zm5 0h1v1h-1zm9 0h1v1h-1zm54 2h1v1h-1zm11 0h1v1h-1zm163 1h1v1h-1zm-92 2h1v1h-1zm89 0h1v1h-1zM10 56h1v1h-1zm72 0h1v1h-1zm-4 13h1v1h-1zm-61 1h1v1h-1zm16 0h1v1h-1zm118 0h1v1h-1zm81 2h1v1h-1zM40 73h1v1h-1zm31 1h1v1h-1zm-4 3h1v1h-1zm-40 2h1v1h-1zm12 3h1v1h-1zm16 2h1v1h-1zm1 3h1v1h-1zm108 1h1v1h-1z" fill="#8ab8dd"/><g fill="#0079c2"><path d="M6 7h17v1H6zm17 0h1v1h-1zm48 0h16v1H71zm16 0h1v16h-1zm23 0h10v79h-10zm10 0h1v79h-1zm44 0h10v79h-10zm10 0h1v79h-1zm20 0h39v9h-39zm39 0h1v10h-1zm41 0h60v9h-60zm60 0h1v9h-1zm21 0h12v79h-12zm12 0h1v79h-1zM6 8h16v1H6zm16 0h1v8h-1zm50 0h15v1H72zm49 0h1v22h-1zm113 0h4v10h-4zm4 0h1v11h-1zM6 9h15v1H6zm15 0h1v8h-1zm52 0h14v8H73zm166 0h2v11h-2zm2 0h1v13h-1z"/><path d="M6 10h16v1H6zm116 0h1v18h-1zm120 0h1v13h-1zm1 0h1v15h-1zM6 11h16v1H6zm18 0h1v4h-1zm48 0h15v5H72zm51 0h1v18h-1zm121 0h1v17h-1zm1 0h1v41h-1zM6 12h17v1H6zm17 0h1v3h-1z"/><path d="M71 12h16v3H71zm53 0h1v18h-1zm122 0h1v39h-1zM6 13h18v1H6zm20 0h1v1h-1zm14 0h14v5H40zm14 0h1v6h-1z"/><path d="M70 13h17v1H70zm177 0h1v38h-1zm1 0h1v37h-1zM6 14h19v1H6zm19 0h1v1h-1zm44 0h18v1H69zm56 0h1v17h-1zm124 0h1v35h-1zM6 15h18v1H6zm18 0h1v1h-1zm47 0h16v1H71zm55 0h1v18h-1zm124 0h1v33h-1zM6 16h16v1H6zm16 0h1v1h-1zm50 0h15v1H72z"/><path d="M194 16h57v1h-57zm57 0h1v31h-1zm23 0h60v1h-60zm60 0h1v1h-1zM6 17h15v1H6zm15 0h1v1h-1zm9 0h1v7h-1zm43 0h14v1H73zm54 0h1v17h-1zm67 0h11v69h-11zm11 0h1v1h-1zm24 0h22v1h-22zm45 0h13v69h-13zm13 0h1v1h-1zM6 18h14v1H6zm14 0h1v1h-1zm8 0h1v7h-1z"/><path d="M29 18h2v6h-2zm2 0h1v5h-1zm9 0h14v1H40zm25 0h1v6h-1zm1 0h1v7h-1zm8 0h13v1H74zm54 0h1v17h-1zm78 0h21v1h-21zm21 0h1v1h-1zm7 0h18v1h-18zm18 0h1v27h-1zM6 19h13v1H6zm13 0h1v1h-1z"/><path d="M27 19h3v5h-3zm5 0h1v3h-1zm8 0h1v1h-1zm1 0h1v1h-1zm23 0h4v5h-4zm4 0h1v8h-1zm7 0h12v1H75zm54 0h1v18h-1zm108 0h15v1h-15zM6 20h12v1H6zm12 0h1v1h-1z"/><path d="M25 20h6v4h-6zm8 0h1v2h-1zm30 0h6v3h-6zm6 0h1v8h-1zm7 0h11v1H76zm163 0h14v1h-14zm14 0h1v24h-1zM6 21h11v1H6zm11 0h1v1h-1z"/><path d="M24 21h8v2h-8zm10 0h1v1h-1zm28 0h8v1h-8zm8 0h1v9h-1zm7 0h10v1H77zm53 0h1v17h-1zm110 0h13v1h-13zm15 0h1v1h-1zM6 22h2v1H6zm2 0h1v1H8zm3 0h5v1h-5zm5 0h1v1h-1z"/><path d="M23 22h10v1H23zm10 0h1v1h-1zm29 0h9v1h-9zm9 0h1v9h-1zm7 0h5v1h-5zm5 0h1v1h-1zm3 0h1v1h-1zm45 0h1v18h-1zm110 0h13v1h-13zm13 0h1v20h-1zM6 23h1v3H6zm6 0h3v1h-3zm3 0h1v1h-1zm7 0h9v1h-9zm9 0h1v1h-1z"/><path d="M61 23h11v1H61zm11 0h1v10h-1zm7 0h3v1h-3zm3 0h1v1h-1zm5 0h1v1h-1zm155 0h12v1h-12zM13 24h2v1h-2zm2 0h1v1h-1zm6 0h9v1h-9zm9 0h1v1h-1z"/><path d="M64 24h9v1h-9zm9 0h1v8h-1zm7 0h1v1h-1zm1 0h1v1h-1zm51 0h1v17h-1zm124 0h1v1h-1zM20 25h8v1h-8zm8 0h1v2h-1z"/><path d="M66 25h8v1h-8zm8 0h1v6h-1zm6 0h1v1h-1zm53 0h1v17h-1zm110 0h12v1h-12zm12 0h1v13h-1zM6 26h1v2H6zm12 0h9v1h-9zm9 0h1v2h-1z"/><path d="M67 26h8v1h-8zm8 0h1v4h-1zm59 0h1v18h-1zM19 27h7v1h-7zm7 0h2v1h-2zm2 0h1v1h-1zm40 0h7v1h-7zm67 0h1v18h-1zm1 0h1v19h-1zM6 28h1v1H6zm12 0h7v1h-7zm7 0h2v1h-2zm2 0h1v1h-1z"/><path d="M69 28h7v1h-7zm7 0h1v1h-1zm46 0h13v1h-13zm122 0h11v1h-11zM18 29h6v1h-6zm6 0h1v1h-1zm52 0h1v1h-1zm47 0h13v1h-13zM19 30h5v1h-5zm5 0h1v1h-1zm46 0h5v1h-5zm5 0h1v1h-1zm46 0h1v1h-1zm3 0h13v1h-13zm13 0h1v18h-1zM20 31h3v1h-3zm3 0h1v1h-1zm48 0h3v1h-3zm3 0h1v1h-1zm51 0h12v1h-12zM21 32h1v1h-1zm1 0h1v1h-1zm51 0h1v1h-1zm65 0h1v18h-1zm-67 1h1v1h-1zm1 0h1v1h-1z"/><path d="M126 33h13v1h-13zm13 0h1v18h-1zm-12 1h12v1h-12z"/><path d="M128 35h12v1h-12zm12 0h1v17h-1zm1 1h1v17h-1z"/><path d="M129 37h13v1h-13zm13 0h1v18h-1zm102 0h11v5h-11zm-114 1h12v1h-12zm125 0h1v1h-1zM7 39h1v1H7zm1 0h1v3H8zm6 0h5v15h-5zm5 0h1v2h-1zm56 0h5v1h-5zm5 0h1v15h-1z"/><path d="M129 39h14v1h-14zm14 0h1v17h-1zm100 0h11v5h-11zM12 40h7v1h-7zm63 0h6v1h-6zm6 0h1v14h-1z"/><path d="M131 40h13v1h-13zm13 0h1v18h-1zM13 41h6v12h-6zm6 0h1v1h-1zm57 0h5v13h-5zm56 0h12v1h-12zm110 0h12v3h-12zm45 0h1v11h-1zM8 42h1v1H8z"/><path d="M133 42h12v1h-12zm12 0h1v17h-1zm96 0h13v2h-13zm13 0h1v1h-1zm34 0h37v9h-37zm37 0h1v9h-1zm-179 1h1v17h-1z"/><path d="M134 44h13v1h-13zm13 0h1v18h-1zm92 0h14v1h-14zm14 0h1v1h-1z"/><path d="M135 45h14v1h-14zm14 0h1v19h-1zm89 0h14v2h-14zm14 0h1v1h-1zM82 46h1v1h-1zm54 0h12v1h-12zm12 0h1v17h-1z"/><path d="M236 46h15v2h-15zM82 47h1v1h-1z"/><path d="M234 47h17v1h-17zm17 0h1v1h-1zm-114 1h13v2h-13zm13 0h1v18h-1zm68 0h32v1h-32zm32 0h1v1h-1zm-32 1h31v1h-31zm31 0h1v1h-1z"/><path d="M137 50h14v1h-14zm14 0h1v17h-1zm68 0h29v1h-29zm29 0h1v1h-1z"/><path d="M139 51h13v1h-13zm13 0h1v18h-1zm68 0h27v1h-27zm27 0h1v1h-1zm41 0h37v1h-37zm37 0h1v1h-1zM9 52h1v1H9zm131 0h12v1h-12zm81 0h24v1h-24zm24 0h1v1h-1zm42 0h1v1h-1zM13 53h6v1h-6zm6 0h1v1h-1zm56 0h6v1h-6z"/><path d="M141 53h12v1h-12zm12 0h1v17h-1zm68 0h23v1h-23zm23 0h1v1h-1zM14 54h5v1h-5zm5 0h1v1h-1zm56 0h6v1h-6zm6 0h1v1h-1zm5 0h1v1h-1zm68 0h1v17h-1zm68 0h20v1h-20zm20 0h1v1h-1z"/><path d="M142 55h13v1h-13zm13 0h1v18h-1zm68 0h16v1h-16zm16 0h1v1h-1zm-96 1h12v1h-12zm14 0h1v20h-1zm66 0h15v1h-15zm15 0h1v1h-1zm-82 1h1v17h-1zm68 0h13v1h-13zm13 0h1v20h-1z"/><path d="M144 58h13v1h-13zm81 0h12v1h-12zM22 59h1v11h-1zm123 0h12v1h-12zm80 0h12v1h-12zm-79 1h12v1h-12zm12 0h1v17h-1zm68 0h12v1h-12zm12 0h1v18h-1zM72 61h1v10h-1zm1 0h1v9h-1zm86 0h1v17h-1z"/><path d="M227 61h12v1h-12zm12 0h1v18h-1zM21 62h1v7h-1zm126 0h13v1h-13zm13 0h1v18h-1zm67 0h12v2h-12z"/><path d="M20 63h3v5h-3zm3 0h1v8h-1zm48 0h3v7h-3zm3 0h1v6h-1zm74 0h13v1h-13zm13 0h13v18h-13zm79 0h1v18h-1z"/><path d="M19 64h5v3h-5zm5 0h1v8h-1zm46 0h6v4h-6zm6 0h1v2h-1zm73 0h25v1h-25zm78 0h14v1h-14zm14 0h1v18h-1z"/><path d="M18 65h7v1h-7zm7 0h1v8h-1zm204 0h13v1h-13zm13 0h1v19h-1zM26 66h1v8h-1zm43 0h7v2h-7zm7 0h1v2h-1zm74 0h24v1h-24zm80 0h12v1h-12zM14 67h1v19h-1z"/><path d="M19 67h8v1h-8zm8 0h1v8h-1zm40 0h8v2h-8zm84 0h23v1h-23zm80 0h12v1h-12zm12 0h1v18h-1zM6 68h1v19H6z"/><path d="M20 68h8v1h-8zm8 0h1v7h-1zm47 0h1v1h-1zm1 0h1v1h-1zm11 0h1v1h-1zm63 0h24v1h-24zm81 0h13v1h-13zm13 0h1v18h-1z"/><path d="M21 69h8v1h-8zm8 0h1v7h-1zm36 0h9v1h-9zm9 0h1v1h-1zm6 0h1v17h-1zm72 0h22v1h-22zm80 0h12v1h-12zM13 70h2v16h-2zm2 0h1v16h-1z"/><path d="M22 70h8v1h-8zm8 0h1v5h-1zm34 0h9v1h-9zm9 0h1v1h-1zm6 0h2v16h-2zm2 0h1v16h-1zm72 0h21v1h-21zm80 0h12v1h-12zm12 0h1v16h-1zM8 71h1v15H8zm4 0h4v15h-4zm4 0h1v15h-1z"/><path d="M23 71h9v1h-9zm9 0h2v1h-2zm2 0h1v1h-1zm28 0h10v1H62zm10 0h1v1h-1zm10 0h1v15h-1zm5 0h1v15h-1zm67 0h20v1h-20zm79 0h13v1h-13zm13 0h1v15h-1zM10 72h6v14h-6zm14 0h9v1h-9zm9 0h1v1h-1zm29 0h9v1h-9zm9 0h1v1h-1z"/><path d="M78 72h5v14h-5zm5 0h1v14h-1zm3 0h1v14h-1zm148 0h12v1h-12zM9 73h8v13H9zm8 0h1v13h-1zm8 0h7v1h-7zm7 0h1v1h-1zm30 0h8v1h-8zm8 0h1v1h-1z"/><path d="M77 73h10v13H77zm78 0h19v1h-19zm80 0h12v1h-12zm12 0h1v13h-1zM18 74h2v12h-2zm2 0h1v12h-1zm6 0h5v1h-5zm5 0h1v1h-1zm32 0h5v1h-5zm5 0h1v1h-1z"/><path d="M76 74h11v12H76zm80 0h18v1h-18zm79 0h13v1h-13zm13 0h1v12h-1zM27 75h3v1h-3zm3 0h1v1h-1zm10 0h3v5h-3zm3 0h1v6h-1zm8 0h3v5h-3zm3 0h1v5h-1zm10 0h3v1h-3zm3 0h1v1h-1z"/><path d="M75 75h12v11H75zm161 0h12v1h-12zM29 76h1v1h-1zm15 0h10v4H44zm21 0h1v1h-1zm1 0h1v1h-1z"/><path d="M74 76h13v10H74zm83 0h17v1h-17zm92 0h1v10h-1zm38 0h1v10h-1zm81 0h1v10h-1zM21 77h1v9h-1z"/><path d="M73 77h14v9H73zm85 0h16v1h-16zm79 0h13v1h-13zm13 0h1v9h-1zm38 0h46v9h-46zm46 0h1v9h-1zm35 0h42v9h-42zm42 0h1v9h-1zM22 78h1v5h-1zm1 0h1v4h-1z"/><path d="M72 78h15v5H72zm87 0h15v1h-15zm79 0h13v1h-13zm13 0h1v8h-1zm84 0h1v8h-1zM24 79h1v2h-1z"/><path d="M68 79h19v1H68zm171 0h12v1h-12zM25 80h1v1h-1zm15 0h14v1H40zm14 0h1v1h-1zm15 0h18v1H69zm91 0h14v1h-14zm92 0h1v6h-1zM24 81h1v1h-1zm17 0h11v1H41zm11 0h1v1h-1zm18 0h17v1H70zm91 0h13v1h-13z"/><path d="M240 81h13v1h-13zm13 0h1v5h-1zM23 82h1v1h-1zm30 0h1v1h-1zm18 0h16v1H71zm91 0h12v1h-12zm79 0h12v1h-12zM22 83h1v1h-1zm50 0h15v1H72zm91 0h11v1h-11zm91 0h1v3h-1zm-91 1h11v2h-11z"/><path d="M242 84h13v1h-13zm13 0h1v2h-1zM43 85h1v1h-1zm200 0h12v1h-12zM8 86h14v1H8zm14 0h1v1h-1zm32 0h1v1h-1zm18 0h15v1H72zm15 0h1v1h-1zm23 0h10v2h-10zm10 0h1v1h-1zm43 0h11v1h-11zm11 0h1v2h-1zm20 0h10v2h-10zm10 0h1v2h-1zm40 0h12v1h-12zm12 0h1v2h-1zm18 0h61v2h-61zm61 0h1v1h-1zm20 0h56v2h-56zm56 0h1v2h-1zM6 87h1v1H6zm35 0h1v1h-1zm69 1h9v1h-9zm9 0h1v1h-1zm47 0h8v1h-8zm8 0h1v1h-1zm20 0h10v1h-10zm10 0h1v1h-1zm41 0h12v1h-12zm12 0h1v1h-1zm17 0h60v1h-60zm60 0h1v1h-1zm21 0h56v1h-56zm56 0h1v1h-1z"/></g><path d="M51 9h1v1h-1zm28 17h1v1h-1zm-61 5h1v1h-1zm7 0h1v1h-1zm-6 1h1v1h-1zm224 0h1v1h-1zM20 33h1v1h-1zm223 0h1v1h-1zM21 34h1v1h-1zm53 37h1v1h-1z" fill="#84b8de"/><path d="M6 6h1v1H6zm186 0h1v1h-1zm42 0h1v1h-1zM43 7h1v1h-1zm1 0h1v1h-1zm6 0h1v1h-1zm1 0h1v1h-1zm303 0h1v79h-1zM23 8h1v1h-1zm16 0h1v1h-1zm3 0h1v1h-1zm10 0h1v1h-1zm4 0h1v1h-1zm-2 1h1v1h-1zm69 0h1v1h-1zm119 0h1v1h-1zM72 10h1v1h-1zm51 0h1v1h-1zM23 11h1v1h-1zm223 0h1v1h-1zM44 12h1v1h-1zm6 0h1v1h-1zm1 0h1v1h-1zm4 0h1v1h-1zm-30 1h1v1h-1zm31 1h1v5h-1zm-34 3h1v1h-1zm106 0h1v1h-1zm161 0h45v1h-45zm45 0h1v1h-1zM27 18h1v1h-1zm206 0h1v1h-1zM42 19h1v1h-1zm10 0h1v1h-1zm4 0h1v1h-1zm15 2h1v1h-1zm167 0h1v1h-1zm1 0h1v1h-1zM9 22h1v1H9zm8 0h1v1h-1zm67 0h1v1h-1zm156 0h1v1h-1zM8 23h1v1H8zm24 0h1v1h-1zm41 0h1v1h-1zm168 0h1v1h-1zm14 0h1v1h-1zm-122 1h1v1h-1zm108 0h1v1h-1zM65 25h1v1h-1zm-36 1h1v1h-1zm227 2h1v1h-1zM69 29h1v1h-1zm187 0h1v1h-1zm-12 1h1v1h-1zm-120 1h1v1h-1zm17 3h1v1h-1zm103 0h1v1h-1zm12 0h1v1h-1zm-129 1h1v1h-1zm14 0h1v1h-1zm103 0h1v1h-1zm12 0h1v1h-1zM13 39h1v1h-1zm229 1h1v1h-1zm13 0h1v1h-1zm32 0h1v1h-1zm1 1h1v1h-1zM75 42h1v1h-1zm11 0h1v1h-1zm46 0h1v1h-1zm14 0h1v1h-1zM8 43h1v2H8zm11 0h1v1h-1zm63 0h1v1h-1zm5 0h1v1h-1zm45 0h1v1h-1zm-50 1h1v1h-1zm5 0h1v1h-1zM8 45h1v1H8zm229 0h1v1h-1zm-4 1h2v1h-2zm2 0h1v1h-1zm-3 1h1v1h-1zm-15 1h1v1h-1zM8 49h1v1H8zm0 1h1v1H8zm11 0h1v1h-1zm63 0h1v1h-1zm5 0h1v1h-1zm-68 1h1v1h-1zm68 0h1v1h-1zm132 0h1v1h-1zM75 52h1v1h-1zm11 0h1v1h-1zm202 0h1v1h-1zm-148 1h1v1h-1zm14 0h1v1h-1zm133 0h1v1h-1zm-66 1h1v1h-1zM14 55h5v1h-5zm5 0h1v1h-1zm56 0h5v1h-5zm5 0h1v1h-1zm6 0h1v1h-1zm137 2h1v1h-1zm0 1h1v1h-1zm16 1h1v1h-1zm-94 1h1v1h-1zm94 0h1v1h-1zM21 61h1v1h-1zm124 0h1v1h-1zM20 62h1v1h-1zm-1 1h1v1h-1zm5 0h1v1h-1zm217 0h1v1h-1zM18 64h1v1h-1zm130 0h1v1h-1zm-68 4h1v1h-1zM7 69h1v1H7zm6 0h2v1h-2zm2 0h1v1h-1zm-3 1h1v1h-1zm-1 1h1v1h-1zm66 0h1v1h-1zm9 0h1v1h-1zm67 0h1v1h-1zm-76 1h1v1h-1zm8 0h1v1h-1zm163 0h1v1h-1zM19 73h1v1h-1zm57 0h1v1h-1zm158 0h1v1h-1zM55 74h1v1h-1zm1 0h1v6h-1zm-17 1h1v5h-1zm6 0h1v1h-1zm4 0h1v1h-1zm1 0h1v1h-1zm18 0h1v1h-1zm5 1h1v1h-1zm163 0h1v1h-1zm14 0h1v1h-1zm38 0h1v1h-1zm-130 2h1v1h-1zM25 79h1v1h-1zm133 0h1v1h-1zm80 0h1v1h-1zm14 0h1v1h-1zM39 80h1v1h-1zm17 0h1v1h-1zm-16 1h1v1h-1zm121 1h1v1h-1zm79 0h1v1h-1zM22 84h1v1h-1zm30 1h1v1h-1zm190 0h1v1h-1zm14 0h1v1h-1zM46 86h2v1h-2zm2 0h1v1h-1zm7 0h1v1h-1zm187 0h1v1h-1zm112 0h1v2h-1zM7 87h17v1H7zm17 0h1v1h-1zm46 0h17v1H70zm17 0h1v1h-1zm157 1h1v1h-1zm91 0h1v1h-1zm19 0h1v1h-1z" fill="#0076c1"/><path d="M65 5h1v1h-1zm24 1h1v22h-1zm73 0h1v1h-1zm79 1h1v1h-1zm95 0h1v9h-1zM55 10h1v1h-1zm-15 1h1v1h-1zm86 1h1v1h-1zm210 4h1v1h-1zm-130 3h1v69h-1zm24 0h1v1h-1zM33 24h1v1h-1zm-4 3h1v1h-1zm-1 1h1v1h-1zm61 0h1v1h-1zm58 13h1v1h-1zm-13 6h1v1h-1zm82 2h1v1h-1zM6 53h1v1H6zm15 0h1v1h-1zm62 1h1v1h-1zm77 5h1v1h-1zm-13 6h1v1h-1zm97 0h1v1h-1zM7 66h1v1H7zm72 1h1v1h-1zM8 68h1v1H8zm81 0h1v19h-1zm-57 1h1v1h-1zm-12 4h1v1h-1zm1 1h1v1h-1zm3 1h1v1h-1zm389 0h1v1h-1zM69 76h2v1h-2zm2 0h1v1h-1zm164 1h1v1h-1zM26 78h1v1h-1zm134 5h1v1h-1zM53 84h1v1h-1zm15 2h1v1h-1zm21 1h1v1h-1zm-37 1h1v1h-1zm154 0h1v1h-1z" fill="#ddedf6"/><path d="M231 5h1v1h-1zM40 6h1v1h-1zm14 0h1v1h-1zm315 0h1v68h-1zM69 16h1v1h-1zm184 0h1v1h-1zM68 17h1v1h-1zm-51 7h1v1h-1zm69 1h1v1h-1zm-9 1h1v1h-1zm-53 7h1v1h-1zm120 4h1v1h-1zM11 42h1v1h-1zm63 3h1v1h-1zm173 8h1v1h-1zM88 54h1v1h-1zm69 1h1v1h-1zM6 64h1v1H6zm72 0h1v1h-1zm-11 1h1v1h-1zm162 3h1v1h-1zm17 0h1v1h-1zM76 69h1v1h-1zm74 0h1v1h-1zm-73 1h1v1h-1zm-36 3h1v1h-1zm328 1h1v1h-1zM51 83h1v1h-1zm206 1h1v1h-1zM70 85h1v1h-1zm93 2h1v1h-1zM43 88h1v1h-1z" fill="#ccdeef"/><path d="M148 101h1v1h-1zm53 0h1v11h-1zm66 0h1v1h-1zm58 0h1v1h-1zm13 0h1v1h-1zm-258 1h1v1h-1zm78 0h1v1h-1zm7 0h1v1h-1zm161 0h1v1h-1zm36 0h1v1h-1zm40 0h1v1h-1zm10 0h1v1h-1zm-390 1h1v1h-1zm27 0h1v1h-1zm183 0h1v1h-1zm42 0h1v1h-1zm-71 1h1v1h-1zm183 0h1v1h-1zm-359 1h1v1h-1zm36 0h1v1h-1zm96 0h1v1h-1zm44 0h1v1h-1zm-141 1h1v6h-1zm13 0h2v1h-2zm2 0h1v1h-1zm79 0h1v1h-1zm69 0h1v1h-1zm34 0h1v1h-1zm80 0h1v1h-1zm18 0h2v1h-2zm2 0h1v1h-1zm-292 1h1v1h-1zm102 0h1v1h-1zm111 0h1v1h-1zm59 0h1v1h-1zm-328 1h1v1h-1zm149 0h1v1h-1zm167 0h1v2h-1zm79 0h1v4h-1zm-299 1h1v1h-1zm272 0h1v1h-1zm7 0h1v1h-1zm-319 1h1v1h-1zm206 0h1v1h-1zm31 0h1v1h-1zm23 0h1v1h-1zm13 0h1v1h-1zm-284 1h1v1h-1zm26 0h1v1h-1zm128 0h1v1h-1zm105 0h1v1h-1zm49 0h1v1h-1zm-302 1h1v1h-1zm139 0h1v1h-1zm66 0h1v1h-1zm139 0h2v1h-2zm2 0h1v1h-1z" fill="#cfd2d5"/><g fill="#fff"><path d="M0 0h419v4H0zm419 0h1v119h-1zM0 4h419v1H0zm0 1h5v114H0zm5 0h1v114H5zm26 0h32v1H31zm32 0h1v11h-1zm26 0h18v1H89zm18 0h1v95h-1zm15 0h39v1h-39zm39 0h1v55h-1zm16 0h14v95h-14zm14 0h1v1h-1zm43 0h37v1h-37zm37 0h1v94h-1zm66 0h15v95h-15zm15 0h1v96h-1zm18 0h49v69h-49zM31 6h7v10h-7zm7 0h1v1h-1z"/><path d="M56 6h8v1h-8zm8 0h1v9h-1zm26 0h17v94H90zm32 0h39v1h-39zm117 0h32v1h-32zM28 7h9v6h-9z"/><path d="M58 7h8v8h-8zm8 0h1v8h-1zm57 0h38v1h-38zm119 0h29v1h-29zM26 8h11v3H26zm41 0h1v5h-1zm1 0h1v4h-1zm56 0h37v1h-37zm120 0h27v1h-27z"/><path d="M25 9h12v1H25zm44 0h1v2h-1zm1 0h1v1h-1zm55 0h36v1h-36zm121 0h25v1h-25zM25 10h12v1H25zm15 0h14v1H40zm14 0h1v1h-1zm16 0h1v1h-1zm55 0h36v1h-36zm123 0h23v1h-23zM26 11h13v1H26zm13 0h1v1h-1zm16 0h14v1H55zm14 0h1v1h-1zm57 0h35v1h-35zm123 0h22v1h-22zM27 12h10v1H27zm41 0h1v1h-1zm59 0h34v1h-34zm123 0h21v1h-21zM28 13h9v2h-9zm39 0h1v1h-1zm60 0h34v1h-34zm124 0h20v1h-20zm-123 1h33v1h-33zm124 0h19v1h-19zM28 15h9v1h-9zm30 0h8v1h-8zm8 0h1v1h-1zm63 0h32v1h-32zm124 0h18v1h-18zM26 16h1v1h-1zm1 0h1v1h-1zm4 0h6v1h-6zm6 0h1v84h-1zm21 0h5v1h-5zm5 0h1v1h-1zm5 0h1v1h-1zm62 0h31v1h-31zm124 0h17v1h-17zM25 17h1v1h-1zm7 0h5v1h-5zm26 0h4v1h-4zm4 0h1v1h-1zm7 0h1v1h-1zm61 0h31v1h-31zm124 0h17v1h-17zM24 18h1v1h-1zm9 0h4v1h-4zm25 0h3v1h-3zm3 0h1v1h-1zm9 0h1v1h-1zm1 0h1v1h-1zm60 0h30v1h-30zm124 0h16v1h-16zM22 19h1v1h-1zm1 0h1v1h-1zm11 0h3v1h-3zm24 0h2v1h-2zm2 0h1v1h-1zm12 0h1v1h-1zm60 0h29v1h-29zm75 0h1v81h-1zm1 0h19v26h-19zm19 0h1v27h-1zm29 0h15v2h-15zm33 0h63v20h-63zM21 20h1v1h-1zm1 0h1v1h-1zm13 0h2v1h-2zm23 0h1v84h-1zm1 0h1v1h-1zm14 0h1v1h-1zm60 0h28v1h-28zm95 0h5v25h-5zm5 0h1v25h-1zM20 21h1v1h-1zm1 0h1v1h-1zm15 0h1v49h-1zm5 0h12v51H41zm12 0h1v51h-1zm21 0h1v1h-1zm59 0h28v1h-28zm101 0h2v23h-2zm2 0h1v22h-1zm20 0h15v1h-15zM19 22h1v1h-1zm1 0h1v1h-1z"/><path d="M38 22h20v49H38zm37 0h1v1h-1zm59 0h27v1h-27zm103 0h1v21h-1zm20 0h14v2h-14zM19 23h1v1h-1zm40 0h1v47h-1zm17 0h1v1h-1zm59 0h26v1h-26zm103 0h1v19h-1zM10 24h1v12h-1zm8 0h1v1h-1z"/><path d="M34 24h26v46H34zm26 0h1v46h-1zm16 0h1v1h-1zm8 0h1v12h-1zm1 0h1v12h-1zm50 0h26v1h-26zm104 0h1v17h-1zm18 0h14v1h-14zM9 25h2v11H9zm2 0h1v15h-1zm6 0h1v1h-1z"/><path d="M32 25h30v43H32zm30 0h1v43h-1zm15 0h1v1h-1zm6 0h2v11h-2zm53 0h25v1h-25zm104 0h1v15h-1zm18 0h13v59h-13zM12 26h1v10h-1zm4 0h1v1h-1z"/><path d="M31 26h32v42H31zm32 0h1v42h-1zm15 0h1v1h-1zm4 0h4v10h-4zm4 0h1v10h-1zm51 0h24v1h-24zm104 0h1v12h-1zM8 27h5v9H8zm5 0h1v9h-1zm3 0h1v1h-1z"/><path d="M30 27h34v40H30zm34 0h1v40h-1zm14 0h1v1h-1zm1 0h7v9h-7zm59 0h23v1h-23zM14 28h1v8h-1zm1 0h1v8h-1z"/><path d="M29 28h37v38H29zm37 0h1v37h-1zm21 0h1v8h-1zm51 0h23v1h-23zM7 29h8v7H7z"/><path d="M28 29h38v36H28zm111 0h22v1h-22zm103 0h1v7h-1zM16 30h1v6h-1z"/><path d="M27 30h40v34H27zm40 0h1v34h-1zm11 0h10v6H78zm10 0h19v8H88zm52 0h21v1h-21zM6 31h11v5H6zm11 0h1v5h-1z"/><path d="M26 31h42v32H26zm42 0h1v32h-1zm9 0h30v5H77zm45 0h1v69h-1zm18 0h21v1h-21zM18 32h1v4h-1z"/><path d="M25 32h44v29H25zm44 0h1v30h-1zm7 0h31v4H76zm65 0h20v1h-20zM19 33h1v3h-1z"/><path d="M75 33h32v3H75zm48 0h1v86h-1zm19 0h19v1h-19zM20 34h1v2h-1zm4 0h46v26H24zm46 0h1v26h-1z"/><path d="M74 34h33v2H74zm50 0h1v85h-1zm19 0h18v1h-18zM21 35h1v1h-1z"/><path d="M71 35h36v1H71zm54 0h1v65h-1zm18 0h18v1h-18zM6 36h101v1H6zm138 0h17v1h-17zm98 0h1v1h-1zM6 37h1v2H6zm16 0h50v18H22zm50 0h1v20h-1zm54 0h1v63h-1zm19 0h16v1h-16zm-62 1h1v1h-1zm5 0h19v1H88zm39 0h1v62h-1zm19 0h15v1h-15zm95 0h1v1h-1zM6 39h1v1H6zm77 0h1v1h-1zm6 0h18v24H89zm57 0h15v1h-15zm111 0h14v44h-14zm32 0h63v1h-63zM11 40h1v1h-1zm73 0h1v14h-1zm44 0h1v62h-1zm19 0h14v1h-14zm93 0h1v1h-1zm88 0h24v34h-24zM10 41h1v11h-1zm63 0h1v12h-1zm56 0h1v62h-1zm19 0h13v1h-13zm91 0h1v1h-1z"/><path d="M21 42h52v9H21zm109 0h1v62h-1zm18 0h13v1h-13zm90 0h1v1h-1zm-89 1h12v1h-12zm87 0h1v1h-1zm1 0h1v1h-1zm19 0h15v39h-15zm-125 1h1v61h-1zm19 0h11v1h-11zm84 0h1v1h-1zm1 0h1v1h-1zm-103 1h1v62h-1zm19 0h10v1h-10zm57 0h25v1h-25zm25 0h1v1h-1z"/><path d="M255 45h16v35h-16zm-122 1h1v54h-1zm18 0h10v1h-10zm57 0h6v54h-6zm6 0h13v1h-13zm13 0h1v1h-1zm-75 1h9v1h-9zm62 0h1v72h-1z"/><path d="M254 47h17v32h-17zm-120 1h1v52h-1zm19 0h8v1h-8zm62 0h1v71h-1z"/><path d="M253 48h18v29h-18zm-118 1h1v51h-1zm18 0h8v1h-8z"/><path d="M252 49h19v27h-19zm-98 1h7v1h-7zm62 0h1v69h-1z"/><path d="M251 50h20v24h-20zM21 51h52v1H21zm115 0h1v68h-1zm19 0h6v1h-6zm62 0h1v49h-1z"/><path d="M250 51h21v22h-21zM10 52h1v1h-1zm127 0h1v67h-1zm19 0h5v1h-5z"/><path d="M249 52h22v19h-22zM73 53h1v1h-1zm65 0h1v47h-1zm18 0h5v1h-5zm62 0h1v47h-1z"/><path d="M248 53h23v17h-23zM11 54h1v14h-1zm73 0h1v1h-1zm73 0h4v1h-4zm62 0h1v46h-1z"/><path d="M246 54h25v13h-25zm43 0h63v20h-63zM6 55h1v8H6zm16 0h50v2H22zm61 0h1v13h-1zm56 0h1v45h-1zm19 0h3v1h-3z"/><path d="M245 55h26v11h-26zM88 56h19v7H88zm52 0h1v44h-1zm19 0h2v1h-2zm61 0h1v44h-1z"/><path d="M243 56h28v7h-28zM7 57h100v1H7zm152 0h2v1h-2zm62 0h1v43h-1z"/><path d="M240 57h31v1h-31zM7 58h14v1H7zm14 0h1v1h-1zm50 0h36v1H71zm70 0h1v42h-1zm19 0h1v1h-1zm80 0h31v1h-31zM7 59h13v1H7zm13 0h1v1h-1zm54 0h33v1H74zm68 0h1v41h-1zm80 0h1v41h-1zm19 0h30v1h-30zM7 60h12v1H7zm12 0h1v1h-1zm5 0h46v1H24zm46 0h1v1h-1zm5 0h32v1H75zm68 0h1v40h-1zm18 0h1v1h-1zm62 0h1v40h-1zm18 0h30v1h-30zM7 61h11v1H7zm11 0h1v1h-1zm7 0h44v1H25zm51 0h31v1H76zm166 0h29v1h-29zM7 62h10v1H7zm10 0h1v1h-1zm52 0h1v1h-1zm8 0h30v1H77zm67 0h1v38h-1zm80 0h1v38h-1zM6 63h10v1H6zm10 0h1v1h-1zm10 0h42v1H26zm42 0h1v1h-1zm10 0h29v1H78zm67 0h1v37h-1zm80 0h1v37h-1zm18 0h28v1h-28zM7 64h8v1H7zm8 0h1v2h-1zm12 0h40v1H27zm40 0h1v1h-1zm12 0h8v1h-8zm8 0h1v2h-1zm59 0h1v36h-1zm98 0h27v1h-27zM7 65h8v1H7zm21 0h38v1H28zm38 0h1v1h-1zm13 0h8v1h-8zm147 0h1v35h-1zM8 66h5v1H8zm5 0h2v1h-2zm2 0h1v1h-1zm14 0h36v1H29zm36 0h1v1h-1zm14 0h8v1h-8zm8 0h1v1h-1zm60 0h1v34h-1zm80 0h1v53h-1zm18 0h26v1h-26zM8 67h4v1H8zm4 0h1v1h-1zm18 0h34v1H30zm34 0h1v1h-1zm14 0h1v1h-1zm4 0h4v1h-4zm4 0h1v1h-1zm62 0h1v33h-1zm98 0h25v1h-25zM9 68h2v1H9zm2 0h1v1h-1zm6 0h1v1h-1zm14 0h32v1H31zm32 0h1v1h-1zm15 0h1v1h-1zm5 0h3v1h-3zm3 0h1v1h-1zm142 0h1v32h-1zm19 0h24v1h-24zM9 69h1v1H9zm1 0h1v1h-1zm7 0h1v1h-1zm16 0h28v1H33zm28 0h1v1h-1zm16 0h1v1h-1zm7 0h1v1h-1zm1 0h1v1h-1zm64 0h1v31h-1zm80 0h1v31h-1zm18 0h24v1h-24zM18 70h1v1h-1zm16 0h26v1H34zm26 0h1v1h-1zm16 0h1v1h-1zm74 0h1v30h-1zm80 0h1v30h-1zm18 0h23v1h-23zM38 71h20v1H38zm37 0h1v1h-1zm76 0h1v31h-1zm98 0h22v1h-22zM20 72h1v1h-1zm16 0h1v28h-1zm3 0h16v1H39zm16 0h3v1h-3zm19 0h1v1h-1zm157 0h1v29h-1zM21 73h1v1h-1z"/><path d="M35 73h2v27h-2zm8 0h8v1h-8zm8 0h1v1h-1zm8 0h1v46h-1zm14 0h1v1h-1zm1 0h1v1h-1zm78 0h1v32h-1zm80 0h1v29h-1zm18 0h21v1h-21zM22 74h1v1h-1z"/><path d="M34 74h3v26h-3zm26 0h1v26h-1zm12 0h1v1h-1zm81 0h1v34h-1zm98 0h20v1h-20zm38 0h63v1h-63zm81 0h49v1h-49zM23 75h1v1h-1z"/><path d="M33 75h4v25h-4zm28 0h1v25h-1zm10 0h1v1h-1zm162 0h1v28h-1zm181 0h5v44h-5zM24 76h1v1h-1z"/><path d="M32 76h5v24h-5zm30 0h1v24h-1zm92 0h1v29h-1zm80 0h1v29h-1zm18 0h19v1h-19zM25 77h1v1h-1zm1 0h1v1h-1z"/><path d="M31 77h6v23h-6zm32 0h1v24h-1zm5 0h1v1h-1zm1 0h1v1h-1zm86 0h1v25h-1zm98 0h18v1h-18zM27 78h1v1h-1z"/><path d="M30 78h7v9h-7zm34 0h1v9h-1zm3 0h1v1h-1zm89 0h1v22h-1zm79 0h1v28h-1z"/><path d="M28 79h9v7h-9zm37 0h1v8h-1zm1 0h1v7h-1zm170 0h1v28h-1zm18 0h17v1h-17zm-97 1h1v20h-1zm98 0h16v1h-16z"/><path d="M27 81h10v5H27zm40 0h1v5h-1zm91 0h1v19h-1zm79 0h1v19h-1z"/><path d="M26 82h11v3H26zm31 0h11v1H57zm11 0h1v3h-1zm91 0h1v21h-1zm79 0h1v18h-1zm18 0h15v1h-15z"/><path d="M25 83h16v1H25zm16 0h1v1h-1zm13 0h15v1H54zm15 0h1v2h-1zm188 0h14v1h-14zM24 84h13v1H24zm20 0h7v1h-7zm7 0h1v1h-1zm19 0h1v1h-1zm90 0h1v22h-1zm79 0h1v16h-1zm19 0h13v1h-13zM25 85h12v1H25zm43 0h1v1h-1zm1 0h1v1h-1zm92 0h1v21h-1zm79 0h1v34h-1zm19 0h12v1h-12zM27 86h10v1H27zm39 0h1v1h-1zm1 0h1v1h-1zm192 0h12v1h-12zM29 87h8v13h-8zm28 0h8v13h-8zm8 0h1v16h-1zm97 0h1v16h-1zm79 0h1v32h-1zm19 0h11v1h-11zM38 88h2v12h-2zm2 0h1v31h-1z"/><path d="M54 88h9v12h-9zm109 0h1v12h-1zm79 0h1v12h-1zm19 0h10v11h-10z"/><path d="M6 89h101v10H6zm158 0h1v11h-1zm12 0h15v11h-15zm15 0h1v11h-1zm15 0h37v11h-37zm37 0h1v11h-1z"/><path d="M108 90h311v9H108zM6 99h413v1H6zm0 1h17v1H6zm17 0h27v1H23zm27 0h1v1h-1zm3 0h117v1H53zm117 0h98v1h-98zm98 0h1v1h-1zm4 0h61v1h-61zm61 0h1v1h-1zm4 0h44v1h-44zm44 0h1v1h-1zm3 0h35v1h-35zM9 101h4v1H9zm4 0h1v6h-1zm4 0h5v3h-5zm5 0h1v1h-1zm4 0h3v1h-3zm3 0h1v7h-1zm15 0h4v1h-4zm4 0h1v1h-1zm8 0h3v1h-3zm7 0h5v1h-5zm5 0h1v6h-1zm3 0h5v4h-5zm5 0h1v2h-1zm4 0h5v1h-5zm5 0h1v18h-1zm4 0h12v9H89zm12 0h1v18h-1zm10 0h2v1h-2zm2 0h1v18h-1zm53 0h3v3h-3zm3 0h1v1h-1zm4 0h5v1h-5zm5 0h1v18h-1zm10 0h2v1h-2zm2 0h1v18h-1zm4 0h6v9h-6zm6 0h1v18h-1zm11 0h5v18h-5zm20 0h5v1h-5zm20 0h1v18h-1zm1 0h1v18h-1zm9 0h5v1h-5zm5 0h1v1h-1zm9 0h1v4h-1zm4 0h5v1h-5zm5 0h1v1h-1zm4 0h5v18h-5zm5 0h1v18h-1zm4 0h10v3h-10zm10 0h1v1h-1zm4 0h5v1h-5zm5 0h1v18h-1zm10 0h5v1h-5zm5 0h1v1h-1zm8 0h3v1h-3zm3 0h1v18h-1zm10 0h6v1h-6zm6 0h1v2h-1zm4 0h3v1h-3zm3 0h1v6h-1zm12 0h1v1h-1zm1 0h1v1h-1zm9 0h3v1h-3zm3 0h1v18h-1zm10 0h1v1h-1zm5 0h5v1h-5zm5 0h1v1h-1zm-400 1h3v1h-3zm12 0h1v1h-1zm4 0h3v1h-3zm18 0h2v17h-2zm2 0h1v1h-1zm11 0h2v1h-2zm7 0h4v1h-4zm17 0h4v1h-4zm31 0h1v9h-1zm16 0h4v1h-4zm23 0h4v1h-4zm4 0h1v1h-1zm14 0h1v1h-1zm4 0h5v1h-5zm16 0h1v6h-1zm43 0h4v1h-4zm30 0h3v1h-3zm3 0h1v1h-1zm11 0h1v17h-1zm4 0h3v1h-3zm3 0h1v1h-1z"/><path d="M287 102h6v17h-6zm20 0h1v1h-1zm5 0h4v1h-4zm15 0h3v1h-3zm3 0h1v1h-1zm10 0h2v1h-2zm13 0h5v1h-5zm10 0h2v1h-2zm14 0h1v1h-1zm11 0h2v1h-2zm13 0h1v1h-1zm4 0h4v1h-4zm4 0h1v1h-1zm4 0h6v17h-6zm-403 1h3v1h-3zm17 0h6v1h-6zm6 0h1v16h-1zm3 0h4v16h-4zm10 0h1v1h-1zm4 0h3v7h-3zm3 0h1v7h-1zm12 0h3v1h-3zm11 0h1v1h-1zm5 0h4v1h-4zm23 0h4v2h-4zm4 0h1v2h-1zm8 0h8v2h-8zm13 0h3v1h-3zm11 0h8v2h-8zm8 0h1v16h-1zm11 0h3v1h-3zm3 0h1v1h-1zm3 0h3v3h-3zm9 0h4v1h-4zm7 0h4v2h-4zm4 0h1v2h-1zm19 0h12v2h-12zm16 0h7v2h-7zm13 0h3v1h-3zm11 0h8v2h-8zm11 0h4v2h-4zm4 0h1v2h-1zm4 0h1v16h-1zm1 0h1v1h-1zm4 0h4v2h-4zm4 0h1v2h-1zm8 0h3v1h-3zm3 0h1v1h-1zm29 0h4v1h-4zm8 0h3v2h-3zm3 0h1v2h-1zm4 0h2v4h-2zm2 0h1v1h-1zm4 0h4v7h-4zm4 0h1v6h-1zm4 0h1v1h-1zm5 0h4v2h-4zm4 0h1v2h-1zm4 0h4v2h-4zm4 0h1v1h-1zm5 0h6v1h-6zm6 0h1v16h-1zm4 0h3v16h-3zm3 0h1v2h-1zm5 0h3v7h-3zm3 0h1v7h-1zm5 0h1v16h-1zm5 0h3v2h-3zm3 0h1v2h-1zm4 0h1v8h-1zm1 0h1v16h-1zm4 0h2v1h-2zm2 0h1v1h-1z"/><path d="M412 103h7v16h-7zm-401 1h2v1h-2zm6 0h4v2h-4zm4 0h1v1h-1zm3 0h1v3h-1zm3 0h6v1h-6zm22 0h5v5h-5zm5 0h1v5h-1zm4 0h1v1h-1zm8 0h2v1h-2zm16 0h3v1h-3zm27 0h1v1h-1zm21 0h2v1h-2zm38 0h1v1h-1zm3 0h1v3h-1zm3 0h4v1h-4zm90 0h1v1h-1zm3 0h10v1h-10zm10 0h1v15h-1zm4 0h1v1h-1zm1 0h1v1h-1zm4 0h7v15h-7zm11 0h9v3h-9zm9 0h1v1h-1zm7 0h3v1h-3zm11 0h1v1h-1zm8 0h6v5h-6zm6 0h1v5h-1zm3 0h1v1h-1zm23 0h5v1h-5zm16 0h5v5h-5zm5 0h1v5h-1zm13 0h1v1h-1zm5 0h1v15h-1zm4 0h1v1h-1z"/><path d="M411 104h8v15h-8zM8 105h1v14H8zm4 0h1v1h-1zm16 0h5v1h-5zm20 0h7v2h-7zm7 0h1v3h-1zm11 0h2v1h-2zm5 0h4v2h-4zm4 0h1v1h-1zm3 0h1v2h-1zm4 0h3v1h-3zm22 0h4v1h-4zm4 0h1v1h-1zm8 0h8v1h-8zm11 0h1v14h-1zm4 0h1v1h-1zm9 0h9v1h-9zm9 0h1v14h-1zm3 0h2v1h-2zm2 0h1v1h-1zm21 0h3v1h-3zm6 0h4v1h-4zm4 0h1v1h-1zm19 0h12v1h-12zm16 0h7v1h-7zm14 0h2v1h-2zm10 0h8v1h-8zm11 0h4v1h-4zm4 0h1v1h-1zm8 0h11v1h-11zm11 0h1v14h-1zm7 0h8v14h-8zm24 0h1v2h-1zm4 0h3v1h-3zm7 0h3v1h-3zm3 0h1v1h-1zm23 0h4v1h-4zm4 0h1v1h-1zm4 0h3v2h-3zm3 0h1v1h-1zm3 0h1v2h-1zm4 0h5v1h-5zm12 0h1v1h-1zm3 0h7v3h-7zm7 0h1v3h-1zm8 0h4v1h-4zm4 0h1v1h-1zm9 0h1v1h-1zM9 106h1v13H9zm8 0h3v2h-3zm3 0h1v1h-1zm3 0h2v1h-2zm2 0h1v1h-1zm3 0h5v1h-5zm35 0h1v13h-1zm4 0h1v1h-1zm12 0h1v1h-1zm4 0h2v1h-2zm21 0h1v13h-1zm1 0h1v13h-1zm41 0h3v4h-3zm11 0h1v13h-1zm3 0h1v1h-1zm1 0h1v1h-1zm3 0h3v2h-3zm3 0h1v1h-1zm3 0h1v1h-1zm5 0h3v1h-3zm13 0h2v1h-2zm22 0h6v4h-6zm16 0h1v4h-1zm5 0h1v13h-1zm4 0h1v1h-1zm15 0h2v4h-2zm5 0h1v13h-1zm12 0h2v3h-2zm2 0h1v4h-1zm41 0h1v1h-1zm4 0h2v2h-2zm12 0h2v1h-2zm5 0h7v1h-7zm15 0h1v13h-1z"/><path d="M353 106h3v3h-3zm8 0h1v1h-1zm5 0h3v3h-3zm28 0h1v13h-1zm10 0h1v13h-1zm6 0h9v13h-9zm-397 1h1v1h-1zm10 0h2v1h-2zm2 0h1v1h-1zm5 0h3v3h-3zm18 0h7v1h-7zm16 0h1v12h-1zm4 0h1v1h-1zm3 0h3v2h-3zm3 0h1v1h-1zm3 0h2v1h-2zm2 0h1v1h-1zm4 0h2v1h-2zm28 0h2v3h-2zm17 0h1v12h-1zm4 0h1v1h-1zm38 0h2v1h-2zm2 0h1v1h-1zm4 0h2v1h-2zm56 0h1v12h-1zm4 0h1v1h-1zm26 0h1v3h-1zm17 0h1v12h-1zm5 0h9v12h-9zm13 0h8v2h-8zm8 0h1v1h-1zm3 0h2v1h-2zm2 0h1v1h-1zm17 0h1v1h-1zm1 0h1v12h-1zm3 0h7v1h-7zm25 0h1v1h-1zm3 0h2v1h-2zm2 0h1v1h-1z"/><path d="M365 107h4v1h-4zm35 0h5v3h-5zm5 0h1v12h-1zm4 0h10v12h-10zm-399 1h1v11h-1zm7 0h2v2h-2zm2 0h1v1h-1zm10 0h4v1h-4zm26 0h1v1h-1zm29 0h1v2h-1zm25 0h4v1h-4zm7 0h8v2h-8zm13 0h1v11h-1zm11 0h10v2h-10zm10 0h1v11h-1zm3 0h1v1h-1zm3 0h1v11h-1zm8 0h2v2h-2zm2 0h1v1h-1zm10 0h2v1h-2zm5 0h4v2h-4zm4 0h1v2h-1zm4 0h1v1h-1zm15 0h12v2h-12zm16 0h7v2h-7zm13 0h1v11h-1zm11 0h8v2h-8zm12 0h1v11h-1zm4 0h3v1h-3zm10 0h2v2h-2zm2 0h1v2h-1zm8 0h1v11h-1zm3 0h10v11h-10zm31 0h2v1h-2zm6 0h4v2h-4zm4 0h1v2h-1zm23 0h1v11h-1zm4 0h4v1h-4zm25 0h1v11h-1zm3 0h7v1h-7zm7 0h1v1h-1zm9 0h1v11h-1z"/><path d="M399 108h6v1h-6zm-388 1h1v10h-1zm38 0h5v1h-5zm5 0h1v1h-1zm4 0h1v10h-1zm7 0h1v10h-1zm6 0h2v2h-2zm2 0h1v1h-1zm33 0h1v10h-1zm4 0h3v1h-3zm20 0h1v10h-1zm28 0h1v10h-1zm5 0h2v10h-2zm14 0h1v2h-1zm9 0h1v1h-1zm71 0h1v10h-1zm4 0h2v1h-2zm6 0h5v1h-5zm30 0h7v1h-7zm7 0h1v1h-1zm11 0h1v1h-1zm17 0h6v1h-6zm6 0h1v1h-1zm3 0h1v10h-1zm7 0h1v10h-1zm4 0h3v1h-3zm3 0h1v1h-1zm11 0h3v1h-3zm14 0h5v1h-5zm5 0h1v1h-1zm-373 1h1v9h-1zm5 0h1v9h-1zm1 0h1v1h-1zm4 0h4v9h-4zm4 0h1v9h-1zm4 0h3v1h-3zm16 0h1v9h-1zm4 0h3v1h-3zm3 0h1v1h-1zm13 0h1v9h-1zm10 0h5v9h-5zm5 0h1v9h-1zm3 0h1v1h-1zm5 0h12v1H89zm18 0h1v9h-1zm4 0h2v1h-2zm5 0h8v1h-8zm15 0h1v9h-1zm9 0h10v1h-10zm15 0h3v9h-3zm10 0h1v1h-1zm3 0h5v9h-5zm5 0h1v9h-1zm8 0h5v1h-5zm5 0h1v1h-1zm8 0h6v1h-6zm10 0h12v1h-12zm16 0h7v1h-7zm14 0h1v9h-1zm10 0h8v1h-8zm14 0h1v9h-1zm4 0h2v1h-2zm2 0h1v9h-1zm4 0h4v1h-4zm4 0h1v1h-1zm24 0h7v1h-7zm7 0h1v1h-1zm4 0h5v9h-5zm5 0h1v9h-1zm3 0h1v1h-1zm5 0h4v1h-4zm4 0h1v1h-1zm5 0h1v9h-1zm4 0h3v1h-3zm3 0h1v1h-1zm13 0h1v9h-1zm4 0h1v1h-1zm1 0h1v1h-1zm4 0h5v9h-5zm5 0h1v9h-1zm4 0h2v9h-2zm14 0h3v1h-3zm3 0h1v1h-1zm4 0h2v9h-2zm8 0h1v9h-1zm4 0h5v1h-5zm-387 1h1v8h-1z"/><path d="M21 111h6v8h-6zm6 0h1v8h-1zm4 0h2v8h-2zm26 0h2v8h-2zm10 0h1v8h-1zm4 0h1v8h-1zm1 0h1v8h-1zm24 0h5v8h-5zm12 0h1v8h-1zm4 0h1v8h-1zm39 0h1v8h-1zm23 0h1v8h-1zm3 0h1v8h-1zm12 0h1v8h-1zm46 0h1v8h-1zm24 0h1v8h-1zm6 0h1v8h-1zm38 0h1v8h-1zm3 0h6v8h-6zm21 0h3v8h-3zm3 0h1v8h-1zm10 0h2v8h-2zm13 0h1v8h-1zm1 0h1v8h-1zm23 0h1v8h-1zm20 0h1v8h-1zm4 0h4v8h-4zm-354 1h1v7h-1zm1 0h1v7h-1z"/><path d="M56 112h3v7h-3zm12 0h1v7h-1zm7 0h7v7h-7zm7 0h1v7h-1zm50 0h1v7h-1zm27 0h1v7h-1zm3 0h2v7h-2zm26 0h2v7h-2zm48 0h1v7h-1zm30 0h1v7h-1zm8 0h6v7h-6zm52 0h5v7h-5zm5 0h1v7h-1zm8 0h3v7h-3zm11 0h1v7h-1zm7 0h7v7h-7zm7 0h1v7h-1zm14 0h1v7h-1zm9 0h3v7h-3zm11 0h1v7h-1zM6 113h44v6H6zm44 0h1v6h-1z"/><path d="M53 113h216v6H53zm216 0h1v6h-1zm3 0h61v6h-61zm61 0h1v6h-1zm3 0h45v6h-45zm45 0h1v6h-1zm3 0h35v6h-35z"/><path d="M51 114h368v5H51zm-51 5h419v1H0zm419 0h1v1h-1z"/></g><path d="M191 6h1v82h-1zM57 7h1v3h-1zM24 9h1v1h-1zm100 0h1v1h-1zm-67 1h1v2h-1zm0 2h1v9h-1zm10 3h1v1h-1zm-3 1h1v1h-1zm3 0h1v1h-1zm-4 1h1v1h-1zm7 0h1v1h-1zm-8 1h1v1h-1zm-1 1h1v1h-1zm10 0h1v1h-1zm157 0h1v1h-1zm1 0h1v1h-1zM60 20h1v1h-1zm72 0h1v1h-1zm-75 1h2v1h-2zm2 0h1v1h-1zm16 2h1v1h-1zm164 0h1v1h-1zM61 24h1v1h-1zm16 0h1v1h-1zM8 26h1v1H8zm57 1h1v1h-1zM7 28h1v1H7zm60 1h1v1h-1zM7 37h1v1H7zm5 0h1v1h-1zm70 0h2v1h-2zm2 0h1v1h-1zm61 1h1v1h-1zm-17 1h1v1h-1zm128 3h1v1h-1zM21 52h1v1h-1zM6 54h1v1H6zm152 2h1v1h-1zm84 0h1v1h-1zm-101 1h1v1h-1zM23 58h1v1h-1zm203 6h1v1h-1zm2 3h1v1h-1zM77 68h1v1h-1zm-41 3h1v1h-1zm39 1h1v1h-1zm174 0h1v1h-1zM57 73h1v8h-1zm16 1h1v1h-1zm81 1h1v1h-1zM25 76h1v1h-1zm43 2h1v1h-1zm-11 3h1v1h-1zm-4 2h1v1h-1zm-10 1h1v1h-1zm14 0h1v2h-1zm201 1h1v1h-1zM57 86h1v1h-1zm105 0h1v1h-1zm29 2h1v1h-1zm-83 1h1v1h-1zm152 0h1v1h-1zm12 0h1v1h-1zm81 0h1v1h-1zm60 0h1v1h-1zm-144 11h1v1h-1zm67 0h1v1h-1zm-226 1h1v1h-1zm48 0h1v1h-1zm5 0h1v1h-1zm111 0h1v1h-1zm22 0h1v8h-1zM9 102h1v1H9zm102 0h1v1h-1zm36 0h1v1h-1zm1 0h1v1h-1zm228 0h1v1h-1zm-311 2h1v1h-1zm94 0h1v1h-1zm150 0h1v1h-1zm99 0h1v1h-1zm-329 1h1v1h-1zm282 0h1v1h-1zm-233 1h1v1h-1zm128 0h1v1h-1zm23 0h1v1h-1zm34 0h1v1h-1zm34 0h1v1h-1zm1 0h1v1h-1zm48 0h1v1h-1zm-240 1h1v1h-1zm4 0h1v1h-1zm96 0h1v1h-1zm-208 1h1v1h-1zm17 0h1v1h-1zm111 1h1v1h-1zm58 0h1v1h-1zm30 0h1v1h-1zm32 0h1v1h-1zm-107 1h1v1h-1zm4 0h1v1h-1zm144 0h1v1h-1zm29 0h1v1h-1zm-348 1h1v1h-1zm77 0h1v1h-1zm37 0h1v1h-1zm254 1h1v1h-1zm-335 1h1v1h-1zm220 0h1v1h-1zm63 0h1v1h-1z" fill="#f8fcfe"/><path d="M23 9h1v1h-1zm48 1h1v1h-1zm-4 4h1v1h-1zm184 0h1v1h-1zm38 4h45v1h-45zm45 0h1v1h-1zM21 19h1v1h-1zm-1 1h1v1h-1zm22 0h1v1h-1zm90 1h1v1h-1zM17 27h1v1h-1zm240 2h1v1h-1zm-14 1h1v1h-1zM23 34h1v1h-1zm50 4h1v1h-1zm55 0h1v1h-1zm17 1h1v1h-1zm96 1h1v1h-1zm15 0h1v1h-1zM9 44h1v1H9zm223 2h1v1h-1zM9 50h1v1H9zm279 3h1v1h-1zM13 56h1v1h-1zm7 0h1v1h-1zm55 0h3v1h-3zm3 0h2v1h-2zm2 0h1v1h-1zm5 0h2v1h-2zm2 0h1v1h-1zm71 1h1v1h-1zm66 3h1v1h-1zM6 65h1v1H6zm71 2h1v1h-1zm72 0h1v1h-1zm-86 2h1v1h-1zm-28 3h1v1h-1zm214 1h1v1h-1zM26 76h1v1h-1zm1 4h1v1h-1zm11 4h1v1h-1zm124 1h1v1h-1zm-93 1h1v1h-1zm-30 1h1v1h-1z" fill="#5e9dd1"/><path d="M6 101h1v1H6zm132 0h1v11h-1zm18 0h1v1h-1zm30 0h1v1h-1zm5 0h1v11h-1zm46 0h1v6h-1zm143 0h1v1h-1zm5 0h1v1h-1zm-354 1h2v1h-2zm2 0h1v1h-1zm4 0h1v1h-1zm1 0h1v1h-1zm15 0h1v1h-1zm51 0h3v1h-3zm3 0h1v1h-1zm148 0h3v1h-3zm3 0h1v1h-1zm65 0h1v1h-1zm23 0h3v1h-3zm3 0h1v1h-1zm3 0h1v1h-1zm15 0h2v1h-2zm2 0h1v1h-1zm4 0h2v1h-2zm2 0h1v1h-1zm6 0h1v1h-1zm12 0h3v1h-3zm3 0h1v1h-1zm14 0h1v1h-1zm-386 1h1v1h-1zm125 0h1v1h-1zm22 0h1v1h-1zm138 0h2v1h-2zm2 0h1v1h-1zm92 0h1v1h-1zm-248 1h1v1h-1zm9 0h1v1h-1zm98 0h1v1h-1zm45 0h1v1h-1zm3 0h1v1h-1zm21 0h1v1h-1zm46 0h1v1h-1zm-321 1h1v1h-1zm55 0h1v1h-1zm197 0h1v1h-1zm100 0h1v1h-1zm-134 1h1v1h-1zm124 0h1v1h-1zm-316 1h1v1h-1zm72 0h1v1h-1zm4 0h1v1h-1zm79 0h1v1h-1zm127 0h1v1h-1zm14 0h1v1h-1zm-358 1h1v1h-1zm3 0h2v1h-2zm2 0h1v1h-1zm31 0h1v1h-1zm21 0h3v1h-3zm3 0h1v1h-1zm52 0h1v1h-1zm37 0h3v1h-3zm3 0h1v1h-1zm136 0h3v1h-3zm3 0h1v1h-1zm48 0h3v1h-3zm3 0h1v1h-1zm-231 1h2v1h-2zm2 0h1v1h-1zm127 0h1v1h-1zm89 0h1v1h-1zm28 0h1v1h-1zm-348 1h1v1h-1zm130 0h1v1h-1zm-106 1h1v1h-1zm20 0h1v1h-1zm16 0h1v1h-1zm27 0h6v1h-6zm6 0h1v1h-1zm18 0h5v1h-5zm5 0h1v1h-1zm9 0h1v1h-1zm13 0h1v1h-1zm14 0h3v1h-3zm3 0h1v1h-1zm20 0h5v1h-5zm5 0h1v1h-1zm11 0h5v1h-5zm5 0h1v1h-1zm19 0h5v1h-5zm5 0h1v1h-1zm17 0h1v1h-1zm54 0h3v1h-3zm3 0h1v1h-1zm13 0h1v1h-1zm19 0h1v1h-1zM6 112h1v1H6zm48 0h1v1h-1zm20 0h1v1h-1zm64 0h1v1h-1zm53 0h1v1h-1zm35 0h1v1h-1zm130 0h1v1h-1zm24 0h1v1h-1z" fill="#9da3a8"/><path d="M64 5h1v1h-1zm98 0h1v1h-1zm71 0h1v1h-1zm103 0h1v1h-1zM30 6h1v1h-1zm9 0h1v1h-1zm90 10h1v1h-1zM23 18h1v1h-1zm232 1h1v1h-1zM72 20h1v1h-1zm162 0h1v1h-1zM54 21h1v1h-1zm19 0h1v1h-1zm1 1h1v1h-1zm-56 1h1v1h-1zm17 0h1v1h-1zm-18 3h1v1h-1zm120 1h1v1h-1zm105 1h1v1h-1zM6 30h1v1H6zm117 2h1v1h-1zm-53 1h1v1h-1zM8 37h2v1H8zm2 0h1v1h-1zm3 0h8v1h-8zm8 0h1v1h-1zm52 0h8v1h-8zm8 0h1v1h-1zm4 0h2v1h-2zm2 0h1v1h-1zm-14 3h1v1h-1zm77 5h1v1h-1zm78 1h1v1h-1zm26 0h1v1h-1zm-118 4h1v1h-1zM10 53h1v1h-1zm78 2h1v1h-1zm156 0h1v1h-1zM22 58h1v1h-1zm200 0h1v1h-1zM21 59h1v1h-1zm219 0h1v1h-1zM20 60h1v1h-1zm-1 1h1v1h-1zm125 0h1v1h-1zm18 0h1v1h-1zm62 0h1v1h-1zM18 62h1v1h-1zm-1 1h1v1h-1zm-1 1h1v1h-1zm72 0h1v1h-1zm-75 3h1v1h-1zm-1 1h1v1h-1zm137 0h1v1h-1zM11 69h1v1h-1zm7 0h1v1h-1zm44 0h1v1h-1zm-52 1h1v1h-1zm75 0h1v1h-1zm-33 3h1v1h-1zm20 2h1v1h-1zm179 0h1v1h-1zM28 78h1v1h-1zm129 1h1v1h-1zM42 83h1v1h-1zm10 1h1v1h-1zm189 2h1v1h-1zM41 88h1v1h-1zm12 0h1v1h-1zm207 0h1v1h-1zm-151 1h12v1h-12zm12 0h1v1h-1zm44 0h10v1h-10zm10 0h1v1h-1zm17 0h13v1h-13zm13 0h1v1h-1zm39 0h15v1h-15zm15 0h1v1h-1zm14 0h63v1h-63zm63 0h1v1h-1zm18 0h58v1h-58zm58 0h1v1h-1z" fill="#f3f9fc"/><path d="M7 6h1v1H7zm19 0h1v1h-1zm94 0h1v1h-1zm73 0h1v1h-1zm38 0h1v1h-1zm1 0h1v1h-1zM39 7h1v1h-1zm1 0h1v2h-1zm14 0h1v1h-1zm1 0h1v1h-1zm120 0h1v81h-1zm63 0h1v1h-1zm97 0h1v9h-1zm33 0h1v67h-1zM241 8h1v1h-1zM40 9h1v1h-1zm16 0h1v1h-1zm187 0h1v1h-1zm2 1h1v1h-1zm-121 1h1v1h-1zm-83 1h1v1h-1zm13 0h1v1h-1zm-29 3h1v1h-1zm226 0h1v1h-1zM24 16h1v1h-1zm311 0h1v1h-1zM28 17h1v1h-1zm40 1h1v1h-1zm61 0h1v1h-1zm102 0h1v1h-1zM25 19h1v1h-1zm20 0h4v1h-4zm4 0h1v1h-1zm-25 1h1v1h-1zm15 0h1v1h-1zm198 0h1v1h-1zM77 22h1v1h-1zm55 0h1v1h-1zm123 0h1v1h-1zM11 23h1v1h-1zm1 1h1v1h-1zm4 0h1v1h-1zm4 0h1v1h-1zm43 0h1v1h-1zm-50 1h2v1h-2zm2 0h1v1h-1zm4 0h1v1h-1zm11 0h1v1h-1zm45 0h1v1h-1zm167 0h1v1h-1zM76 26h1v1h-1zm-59 2h1v1h-1zm0 1h1v1h-1zm120 0h1v1h-1zM18 30h1v1h-1zm7 0h1v1h-1zm98 0h1v1h-1zM19 31h1v1h-1zm51 0h1v1h-1zm-50 1h1v1h-1zm1 1h2v1h-2zm2 0h1v1h-1zm117 0h1v1h-1zm-13 3h1v1h-1zm15 0h1v1h-1zm1 1h1v1h-1zm100 0h1v1h-1zM14 38h6v1h-6zm6 0h1v2h-1zm55 0h5v1h-5zm5 0h1v1h-1zm-6 1h1v1h-1zM9 40h1v1H9zm11 0h1v1h-1zm54 0h1v1h-1zm8 0h1v1h-1zm5 0h1v1h-1zm58 0h1v1h-1zM7 41h2v1H7zm2 0h1v1H9zm232 0h1v1h-1zm14 1h1v1h-1zm-16 1h1v1h-1zm-106 1h1v1h-1zm15 0h1v1h-1zm90 0h1v1h-1zM75 45h1v4h-1zm75 2h1v1h-1zm79 0h1v1h-1zm1 0h1v1h-1zm-94 1h1v1h-1zm15 0h1v1h-1zm-76 1h1v1h-1zm142 0h1v1h-1zm-79 2h1v1h-1zm15 0h1v1h-1zm95 0h1v1h-1zM12 52h1v1h-1zm8 1h1v1h-1zm200 0h1v1h-1zM9 54h1v1H9zm78 0h1v1h-1zm157 0h1v1h-1zM9 55h1v1H9zm65 0h1v1h-1zm67 0h1v1h-1zm101 0h1v1h-1zm-20 1h1v1h-1zm-79 2h1v1h-1zm15 0h1v1h-1zm-14 1h1v1h-1zm15 0h1v1h-1zm65 0h1v1h-1zm16 2h1v1h-1zM75 62h1v1h-1zm86 0h1v1h-1zm65 0h1v1h-1zM76 63h1v1h-1zm1 1h1v2h-1zm-51 1h1v1h-1zm42 0h1v1h-1zm160 0h1v1h-1zm15 0h1v1h-1zM6 66h1v1H6zm21 0h1v1h-1zm50 0h1v1h-1zm72 0h1v1h-1zM18 67h1v1h-1zm10 0h1v1h-1zm1 1h1v1h-1zm36 0h1v1h-1zm16 0h1v1h-1zm149 0h1v1h-1zM64 69h1v1h-1zm18 0h1v1h-1zm69 0h1v1h-1zM32 70h1v1h-1zm51 0h1v1h-1zm3 0h1v1h-1zm-69 1h1v1h-1zm4 0h1v1h-1zm40 0h1v2h-1zm12 0h1v1h-1zm159 0h1v1h-1zM34 72h1v1h-1zm38 0h1v1h-1zm-49 1h1v1h-1zm33 0h1v1h-1zm5 0h1v1h-1zm10 0h1v1h-1zm-18 1h1v1h-1zm9 0h1v1h-1zm172 0h1v1h-1zm134 0h1v1h-1zM63 75h1v1h-1zm172 0h1v1h-1zM64 76h1v1h-1zm92 0h1v1h-1zM23 77h1v1h-1zm43 0h1v1h-1zm91 0h1v1h-1zm94 0h1v1h-1zm-14 1h1v1h-1zm15 0h1v1h-1zM26 80h1v1h-1zm227 0h1v1h-1zM25 81h1v1h-1zm14 0h1v1h-1zm200 0h1v1h-1zM24 82h1v1h-1zm18 0h2v1h-2zm2 0h1v1h-1zm7 0h1v1h-1zm19 0h1v1h-1zm1 1h1v1h-1zm170 1h1v1h-1zM41 85h1v1h-1zm12 0h1v1h-1zm-29 1h1v1h-1zm46 0h1v1h-1zm-27 1h1v1h-1zm8 0h1v1h-1zm124 1h1v1h-1z" fill="#0070bf"/><path d="M272 7h1v81h-1zM74 43h1v1h-1zm-54 3h1v2h-1zm0 2h1v1h-1zM7 56h1v1H7zm234 0h1v1h-1zM47 88h1v1h-1zm1 0h1v1h-1zm224 0h1v1h-1z" fill="#a4c3e1"/><path d="M8 101h1v1H8zm47 0h1v1h-1zm162 0h1v11h-1zm91 0h1v1h-1zm9 0h1v11h-1zm82 0h1v1h-1zm-120 1h1v1h-1zm74 1h1v1h-1zm32 0h1v1h-1zm-307 1h1v1h-1zm3 0h1v1h-1zm279 0h1v1h-1zm19 0h1v1h-1zm-205 1h1v1h-1zm86 0h1v1h-1zm144 0h1v1h-1zm-195 1h1v1h-1zm-189 1h1v1h-1zm8 0h1v1h-1zm101 0h1v1h-1zm80 0h1v1h-1zm52 0h1v1h-1zm50 0h1v1h-1zm36 0h1v1h-1zm-184 1h1v1h-1zm73 0h1v1h-1zm105 0h1v1h-1zm-175 1h1v1h-1zm-109 1h1v1h-1zm178 0h1v1h-1zm145 0h1v1h-1zm-269 1h1v1h-1zm164 0h1v1h-1zm-255 1h1v1h-1zm113 0h1v1h-1zm84 0h1v1h-1zm100 0h1v1h-1zm21 0h1v1h-1z" fill="#dfe1e2"/><path d="M102 101h1v9h-1zm6 0h1v1h-1zm151 0h1v1h-1zm152 0h1v1h-1zm-297 1h1v10h-1zm58 0h1v1h-1zm87 0h2v1h-2zm2 0h1v1h-1zm25 0h1v1h-1zm-239 1h1v1h-1zm8 0h1v1h-1zm60 0h1v2h-1zm211 0h1v1h-1zm35 0h1v1h-1zm39 0h1v1h-1zm-378 1h1v1h-1zm3 0h1v1h-1zm10 0h1v7h-1zm22 0h1v1h-1zm46 0h1v7h-1zm128 0h1v1h-1zm94 0h1v1h-1zm-248 1h1v1h-1zm38 0h1v1h-1zm36 0h1v1h-1zm82 0h1v1h-1zm126 0h1v1h-1zm19 0h1v1h-1zm-368 1h1v1h-1zm37 0h1v1h-1zm62 0h1v1h-1zm7 0h4v1h-4zm4 0h1v1h-1zm20 0h4v1h-4zm4 0h1v1h-1zm37 0h3v1h-3zm3 0h1v1h-1zm20 0h3v1h-3zm3 0h1v1h-1zm13 0h3v1h-3zm3 0h1v1h-1zm21 0h3v1h-3zm3 0h1v1h-1zm73 0h2v1h-2zm2 0h1v1h-1zm30 0h1v1h-1zm-305 1h1v1h-1zm28 0h1v1h-1zm56 0h1v1h-1zm112 0h1v1h-1zm17 0h1v1h-1zm98 0h1v1h-1zm50 0h1v1h-1zm-293 1h1v2h-1zm36 0h1v1h-1zm36 0h1v2h-1zm171 0h1v1h-1zm20 0h1v1h-1zm-331 2h1v1h-1zm35 0h1v1h-1zm20 0h1v2h-1zm13 0h1v1h-1zm72 0h1v1h-1zm127 0h1v1h-1zm36 0h1v1h-1zm-315 1h1v1h-1zm53 0h1v1h-1zm15 0h1v1h-1zm72 0h1v1h-1zm68 0h1v1h-1zm81 0h1v1h-1zm-222 1h1v1h-1zm12 0h1v1h-1zm47 0h1v1h-1zm89 0h1v1h-1zm115 0h1v1h-1z" fill="#79828a"/><path d="M236 6h1v1h-1zM122 7h1v1h-1zM43 9h1v2h-1zm0 2h1v1h-1zm206 1h1v1h-1zM68 15h1v1h-1zm-2 1h1v1h-1zm6 2h1v1h-1zm4 4h1v1h-1zm-42 1h1v1h-1zm-23 1h1v1h-1zm1 1h1v1h-1zm123 0h1v1h-1zM13 26h1v1h-1zm1 1h1v1h-1zm64 1h1v1h-1zm-61 2h1v1h-1zm226 1h1v1h-1zm-118 3h1v1h-1zM22 35h1v1h-1zm267 5h37v1h-37zm37 0h1v1h-1zM85 42h1v1h-1zm3 0h1v1h-1zm60 1h1v1h-1zM20 44h1v1h-1zM9 46h2v1H9zm2 0h1v1h-1zm-2 1h2v1H9zm2 0h1v1h-1zm204 0h1v1h-1zM9 48h1v1H9zm74 3h1v1h-1zm5 1h1v1h-1zm50 0h1v1h-1zm105 3h1v1h-1zM73 56h1v1h-1zm88 5h1v1h-1zm-92 2h1v1h-1zm77 0h1v1h-1zm99 4h1v1h-1zm-15 2h1v1h-1zM73 72h1v1h-1zm-1 1h1v1h-1zm-26 1h2v1h-2zm2 0h1v1h-1zm-24 3h1v1h-1zm135 4h1v1h-1zM55 82h1v1h-1zm201 1h1v1h-1z" fill="#7bafd9"/><path d="M7 101h1v1H7zm185 0h1v1h-1zm26 0h1v1h-1zm7 0h1v1h-1zm24 0h1v1h-1zm69 0h1v1h-1zm63 0h1v1h-1zm3 0h1v1h-1zM7 102h1v1H7zm47 0h1v1h-1zm85 0h1v1h-1zm31 0h1v1h-1zm1 0h1v1h-1zm67 0h1v6h-1zm15 0h1v10h-1zm56 0h1v1h-1zm62 0h1v1h-1zm15 0h1v1h-1zm12 0h1v1h-1zM8 103h1v1H8zm55 0h1v1h-1zm14 0h1v1h-1zm80 0h1v1h-1zm121 0h1v1h-1zm47 0h1v1h-1zm61 0h1v1h-1zm1 0h1v1h-1zm-331 1h1v1h-1zm102 0h1v2h-1zm11 0h1v1h-1zm3 0h1v1h-1zm60 0h1v1h-1zm108 0h1v1h-1zm60 0h1v1h-1zm5 0h1v1h-1zm-43 1h1v1h-1zm-232 1h1v1h-1zm28 0h1v1h-1zm22 0h1v1h-1zm5 0h1v1h-1zm98 0h1v1h-1zm29 0h1v1h-1zm18 0h1v1h-1zm-319 1h1v1h-1zm128 0h1v1h-1zm16 0h1v1h-1zm25 0h1v1h-1zm6 0h1v1h-1zm71 0h2v1h-2zm2 0h1v1h-1zm13 0h1v1h-1zm10 0h1v1h-1zm48 0h1v1h-1zm20 0h1v1h-1zm57 0h1v1h-1zm-386 1h1v1h-1zm46 0h1v1h-1zm40 0h1v1h-1zm61 0h1v1h-1zm6 0h1v1h-1zm64 0h1v1h-1zm126 0h1v1h-1zm-349 1h1v3h-1zm5 0h1v1h-1zm36 0h1v1h-1zm19 0h1v1h-1zm7 0h1v1h-1zm93 0h1v1h-1zm182 0h1v1h-1zm7 0h1v1h-1zm-350 1h1v1h-1zm119 0h1v1h-1zm27 0h1v1h-1zm1 0h1v1h-1zm27 0h1v1h-1zm177 0h1v1h-1zm14 0h1v1h-1zm7 0h1v1h-1zm-367 1h1v1h-1zm120 0h1v1h-1zm14 0h1v1h-1zm33 0h1v1h-1zm6 0h1v1h-1zM7 112h1v1H7zm8 0h1v1h-1zm72 0h1v1h-1zm111 0h1v1h-1zm4 0h1v1h-1zm7 0h1v1h-1zm9 0h1v1h-1zm7 0h1v1h-1zm28 0h1v1h-1zm8 0h1v1h-1zm40 0h1v1h-1zm17 0h1v1h-1zm37 0h1v1h-1zm26 0h1v1h-1z" fill="#616c75"/><path d="M27 6h1v1h-1zm40 0h1v1h-1zm21 0h1v1h-1zm75 0h1v1h-1zm12 0h1v1h-1zm160 0h1v1h-1zm33 0h1v1h-1zM88 27h1v1h-1zm-16 7h1v1h-1zm13 4h1v1h-1zm131 9h1v1h-1zM87 55h1v1h-1zm-7 12h1v1h-1zm8 0h1v1h-1zm324 9h1v1h-1z" fill="#0068bc"/><path d="M24 101h1v1h-1zm27 0h1v1h-1zm1 0h1v1h-1zm26 0h1v1h-1zm93 0h1v1h-1zm98 0h2v1h-2zm2 0h1v1h-1zm38 0h1v1h-1zm25 0h2v1h-2zm2 0h1v1h-1zm46 0h1v1h-1zm1 0h1v1h-1zm-368 1h1v5h-1zm27 0h1v10h-1zm7 0h1v1h-1zm6 0h1v1h-1zm32 0h1v8h-1zm47 0h1v6h-1zm108 0h1v3h-1zm25 0h1v1h-1zm6 0h1v1h-1zm22 0h1v8h-1zm30 0h1v1h-1zm13 0h1v1h-1zm13 0h1v1h-1zm52 0h1v1h-1zm8 0h1v1h-1zm-388 1h1v1h-1zm33 0h1v1h-1zm54 0h1v2h-1zm62 0h1v1h-1zm8 0h1v2h-1zm22 0h1v2h-1zm16 0h1v2h-1zm43 0h1v2h-1zm5 0h1v1h-1zm52 0h1v2h-1zm13 0h1v1h-1zm8 0h1v1h-1zm5 0h1v8h-1zm8 0h1v2h-1zm19 0h1v8h-1zm21 0h1v9h-1zm12 0h1v1h-1zm6 0h1v1h-1zM9 104h1v1H9zm38 0h1v1h-1zm14 0h1v8h-1zm16 0h1v1h-1zm3 0h1v1h-1zm48 0h1v1h-1zm22 0h1v1h-1zm13 0h1v1h-1zm24 0h1v1h-1zm42 0h1v8h-1zm50 0h1v1h-1zm29 0h1v1h-1zm22 0h1v1h-1zm29 0h1v1h-1zm3 0h1v1h-1zm16 0h1v1h-1zm-368 1h1v1h-1zm12 0h1v1h-1zm4 0h1v1h-1zm31 0h1v3h-1zm7 0h1v1h-1zm46 0h1v1h-1zm19 0h1v1h-1zm34 0h1v1h-1zm6 0h1v1h-1zm4 0h1v1h-1zm7 0h1v1h-1zm7 0h1v1h-1zm15 0h1v1h-1zm16 0h1v1h-1zm24 0h1v1h-1zm19 0h1v1h-1zm4 0h1v3h-1zm15 0h1v1h-1zm31 0h1v1h-1zm7 0h1v1h-1zm7 0h1v1h-1zm15 0h1v3h-1zm12 0h1v1h-1zm57 0h1v1h-1zm-344 1h1v1h-1zm16 0h1v1h-1zm70 0h1v1h-1zm4 0h1v1h-1zm78 0h1v1h-1zm74 0h1v1h-1zm56 0h1v1h-1zm14 0h1v1h-1zm11 0h1v1h-1zm11 0h1v1h-1zm-384 1h1v1h-1zm6 0h1v1h-1zm6 0h1v1h-1zm39 0h1v1h-1zm15 0h1v1h-1zm26 0h1v1h-1zm44 0h1v1h-1zm11 0h1v1h-1zm6 0h1v1h-1zm6 0h1v1h-1zm60 0h1v1h-1zm78 0h1v1h-1zm36 0h1v1h-1zm29 0h1v1h-1zm11 0h1v1h-1zm8 0h1v1h-1zm-384 1h1v1h-1zm45 0h1v1h-1zm74 0h1v1h-1zm3 0h1v1h-1zm25 0h1v1h-1zm3 0h1v1h-1zm18 0h1v2h-1zm22 0h1v2h-1zm16 0h1v2h-1zm17 0h1v1h-1zm7 0h1v3h-1zm23 0h1v1h-1zm9 0h1v2h-1zm44 0h1v2h-1zm8 0h1v2h-1zm14 0h1v1h-1zm67 0h1v4h-1zm-394 1h1v1h-1zm34 0h1v1h-1zm61 0h1v1h-1zm80 0h1v1h-1zm71 0h1v1h-1zm71 0h1v1h-1zm20 0h1v1h-1zm28 0h1v1h-1zm9 0h1v1h-1zm-367 1h1v1h-1zm8 0h1v1h-1zm20 0h1v1h-1zm8 0h1v1h-1zm18 0h1v1h-1zm13 0h1v1h-1zm22 0h1v1h-1zm58 0h1v1h-1zm8 0h1v1h-1zm5 0h1v1h-1zm22 0h1v1h-1zm16 0h1v1h-1zm42 0h1v1h-1zm6 0h1v1h-1zm8 0h1v1h-1zm21 0h1v1h-1zm10 0h1v1h-1zm13 0h1v1h-1zm8 0h1v1h-1zm5 0h1v1h-1zm8 0h1v1h-1zm17 0h1v1h-1zm-307 1h1v1h-1zm34 0h1v1h-1zm27 0h1v1h-1zm56 0h1v1h-1zm21 0h1v1h-1zm55 0h1v1h-1zm25 0h1v1h-1zm6 0h1v1h-1zm41 0h1v1h-1zm11 0h1v1h-1zm7 0h1v1h-1zm6 0h1v1h-1zm6 0h1v1h-1zm21 0h1v1h-1zm6 0h1v1h-1zm9 0h1v1h-1zm5 0h1v1h-1zm14 0h1v1h-1zm-357 1h1v1h-1zm19 0h1v1h-1zm92 0h1v1h-1zm76 0h1v1h-1zm41 0h1v1h-1zm1 0h1v1h-1zm111 0h1v1h-1zm1 0h1v1h-1zm9 0h1v1h-1z" fill="#56626d"/><path d="M43 101h1v1h-1zm6 0h1v1h-1zm13 0h1v1h-1zm211 0h1v1h-1zm5 0h1v1h-1zm9 0h1v1h-1zm-244 1h1v1h-1zm34 0h1v1h-1zm39 0h1v1h-1zm88 0h1v1h-1zm40 0h1v1h-1zm92 0h1v1h-1zm-209 2h1v1h-1zm45 1h1v1h-1zm-106 1h1v1h-1zm86 1h1v1h-1zm-104 2h1v1h-1zm35 0h1v1h-1zm282 0h1v1h-1zm23 0h1v1h-1zm-313 1h1v1h-1zm250 0h1v1h-1zm7 0h1v1h-1zm-289 1h1v1h-1zm25 0h1v1h-1zm266 0h1v1h-1zm-304 1h1v1h-1zm13 0h1v1h-1zm342 0h1v1h-1z" fill="#acb1b5"/></svg>