<svg xmlns="http://www.w3.org/2000/svg" role="img" viewBox="-1.43 -1.43 74.23 12.11"><title>OasisPiWind logo</title><g transform="translate(-.674 9.117)"><path d="M7.67578-7.72266q.5332.58594.81445 1.43555.28711.84961.28711 1.92773 0 1.07813-.29296 1.9336-.28711.8496-.8086 1.41797-.53906.5918-1.27734.89062-.73242.29883-1.67578.29883-.91993 0-1.67579-.30469-.75-.30468-1.27734-.88476Q1.2422-1.5879.95508-2.43164.67383-3.2754.67383-4.35937q0-1.06641.28125-1.91016.28125-.84961.82031-1.45313.51563-.57421 1.27734-.8789.76758-.30469 1.66993-.30469.9375 0 1.68164.31055.75.30468 1.27148.87304zm-.10547 3.36329q0-1.69922-.76172-2.61915-.76171-.92578-2.08007-.92578-1.33008 0-2.0918.92578-.75586.91993-.75586 2.61915 0 1.7168.77344 2.63085.77343.9082 2.07422.9082 1.30078 0 2.06835-.9082.77344-.91406.77344-2.63085z"/><path d="M15.61523 0h-1.0957v-.69727q-.14648.09961-.39844.28125-.24609.17579-.48047.28125-.27539.13477-.6328.22266-.35743.09375-.8379.09375-.88476 0-1.5-.58594-.61523-.58593-.61523-1.49414 0-.74414.3164-1.20117.32227-.46289.91407-.72656.59765-.26367 1.43554-.35742.8379-.09375 1.79883-.14063v-.16992q0-.375-.13476-.6211-.12891-.24609-.375-.38671-.23438-.13477-.5625-.18164-.32813-.04688-.68555-.04688-.4336 0-.9668.11719-.5332.11133-1.10156.32812h-.0586V-6.4043q.32227-.08789.93165-.19336.60937-.10547 1.20117-.10547.6914 0 1.20117.1172.51563.11132.89063.38671.36914.26953.5625.69727.19336.42773.19336 1.06054zm-1.0957-1.61133v-1.82226q-.5039.0293-1.18945.08789-.67969.0586-1.07813.16992-.4746.13476-.76758.42187-.29296.28125-.29296.7793 0 .5625.33984.84961.33984.28125 1.0371.28125.58009 0 1.06056-.22266.48046-.22851.89062-.54492z"/><path d="M22.4121-1.88672q0 .89649-.74413 1.4707-.73828.57422-2.02149.57422-.72656 0-1.33593-.16992-.60352-.17578-1.01367-.38086V-1.6289h.05858q.52149.39258 1.16016.62696.63867.22851 1.22461.22851.72656 0 1.13672-.23437.41015-.23438.41015-.73828 0-.38672-.22265-.58594-.22266-.19922-.85547-.33984-.23438-.05274-.61523-.12305-.375-.07031-.68555-.15235-.86133-.22851-1.22461-.66796-.35742-.44532-.35742-1.08985 0-.4043.16406-.76172.16993-.35742.50977-.63867.32813-.27539.83203-.4336.50977-.16405 1.13672-.16405.58594 0 1.1836.14648.6035.14062 1.00195.3457v1.17774h-.0586q-.42187-.31055-1.02538-.52149-.60352-.2168-1.1836-.2168-.60351 0-1.01953.23438-.41601.22852-.41601.68555 0 .4043.25195.60937.2461.20508.79687.33399.3047.0703.6797.14062.38085.07031.6328.1289.76758.17579 1.1836.60352.41601.4336.41601 1.14844z"/><path d="M25.17188-7.64063h-1.2422V-8.7832h1.2422zM25.10156 0H24v-6.54492h1.10156z"/><path d="M31.95703-1.88672q0 .89649-.74414 1.4707-.73828.57422-2.02148.57422-.72657 0-1.33594-.16992-.60352-.17578-1.01367-.38086V-1.6289h.05859q.52148.39258 1.16015.62696.63867.22851 1.22461.22851.72656 0 1.13672-.23437.41016-.23438.41016-.73828 0-.38672-.22266-.58594-.22265-.19922-.85547-.33984-.23437-.05274-.61523-.12305-.375-.07031-.68555-.15235-.86133-.22851-1.2246-.66796-.35743-.44532-.35743-1.08985 0-.4043.16406-.76172.16992-.35742.50977-.63867.32812-.27539.83203-.4336.50976-.16405 1.13672-.16405.58593 0 1.1836.14648.6035.14062 1.00194.3457v1.17774h-.05859q-.42187-.31055-1.02539-.52149-.60351-.2168-1.18359-.2168-.60351 0-1.01953.23438-.41602.22852-.41602.68555 0 .4043.25196.60937.2461.20508.79687.33399.30469.0703.67969.14062.38086.07031.63281.1289.76758.17579 1.1836.60352.41601.4336.41601 1.14844z"/><path d="M39.32813-6.0879q0 .58009-.20508 1.07813-.19922.4922-.5625.85547-.45117.45118-1.0664.6797-.61524.22265-1.55274.22265h-1.16016V0h-1.16016v-8.7246h2.3672q.78515 0 1.33007.13476.54492.1289.9668.41015.49804.33399.76757.83203.2754.49805.2754 1.25977zm-1.20704.0293q0-.45117-.1582-.78515t-.48047-.54492q-.28125-.18164-.64453-.25781-.35742-.08204-.9082-.08204h-1.14844v3.48633h.97852q.70312 0 1.14257-.12304.43946-.12891.71485-.4043.27539-.28125.38672-.5918.11718-.31054.11718-.69726z"/><path d="M41.95313-7.64063h-1.2422V-8.7832h1.2422zM41.8828 0h-1.10156v-6.54492h1.10156z"/><path d="M54.30469-8.7246L52.0371 0h-1.30664l-1.83399-7.24219L47.10352 0h-1.27735l-2.3086-8.7246h1.18946l1.83399 7.2539 1.80468-7.2539h1.17774l1.82226 7.3242 1.82227-7.3242z"/><path d="M57.11133-7.64063h-1.24219V-8.7832h1.24219zM57.04102 0h-1.10157v-6.54492h1.10157z"/><path d="M64.69336 0H63.5918v-3.72656q0-.45117-.05273-.84375-.05273-.39844-.19336-.6211-.14649-.24609-.42188-.36328-.27539-.12304-.71484-.12304-.45117 0-.94336.22265-.49219.22266-.94336.56836V0h-1.10156v-6.54492h1.10156v.72656q.51563-.42773 1.0664-.66797.55079-.24023 1.13087-.24023 1.06054 0 1.61718.63867t.55664 1.83984z"/><path d="M72.12305 0h-1.10157v-.68555q-.4746.41016-.99023.63867-.51563.22852-1.11914.22852-1.17188 0-1.86328-.90234-.68555-.90235-.68555-2.50196 0-.83203.23438-1.48242.24023-.65039.64453-1.10742.39844-.44531.92578-.67969.5332-.23437 1.10156-.23437.51563 0 .91406.11133.39844.10546.8379.33398v-2.83594h1.10156zm-1.10157-1.61133v-3.75586q-.4453-.19922-.79687-.27539-.35156-.07617-.76758-.07617-.92578 0-1.4414.64453Q67.5-4.42969 67.5-3.24609q0 1.16601.39844 1.77539.39844.60351 1.27734.60351.46875 0 .94922-.20508.48047-.21093.89648-.53906z"/></g></svg>