<svg xmlns="http://www.w3.org/2000/svg" role="img" viewBox="-2.82 -2.82 126.89 146.77"><title>Oceananigans.jl logo</title><g stroke-width=".207"><path fill="#384757" d="M91.86901 95.07742c3.48374-3.57847 6.33032-7.70342 8.4604-12.25989l.5562-1.18689-7.00554-3.05222-.52948 1.11807c-1.75847 3.71205-4.10066 7.08164-6.9602 10.01242-3.39711 3.48374-7.40953 6.22912-11.92552 8.16003-4.52328 1.93578-9.27972 2.94374-14.13818 2.99555-4.88355.0607-9.65538-.84199-14.21509-2.67818-4.55647-1.837-8.64418-4.51194-12.14816-7.94954-3.48941-3.42059-6.24289-7.45567-8.18433-11.99191-1.94467-4.54271-2.96316-9.32101-3.02712-14.20213-.0672-4.89732.82175-9.69182 2.63932-14.25234 1.81514-4.55728 4.46904-8.64499 7.8872-12.14816 3.40035-3.48455 7.41277-6.23074 11.92876-8.16327 4.22939-1.80948 8.68385-2.80772 13.23951-2.96802 3.67319-.12954 7.33667.29145 10.8868 1.24679l1.0622.28579 3.07408-7.05573-1.39657-.40318c-4.0529-1.1707-8.23047-1.76252-12.43153-1.76252-.36432 0-.72864.004-1.09378.0138-5.63891.14249-11.14506 1.34719-16.36702 3.5809-5.43895 2.32762-10.27635 5.64377-14.37702 9.85535-4.11119 4.2221-7.30994 9.16071-9.50884 14.67819-2.1989 5.51909-3.27648 11.31669-3.20362 17.23169.07367 5.88989 1.29376 11.63892 3.62462 17.08839 2.3349 5.45675 5.65025 10.30954 9.85454 14.42316 4.22049 4.13061 9.15343 7.34961 14.6628 9.56794 5.37661 2.1657 11.01472 3.26353 16.75807 3.26353l.4461-.002c5.88342-.0591 11.62273-1.26784 17.056-3.59223 5.43976-2.32843 10.27635-5.64377 14.3754-9.85373"/><path fill="#384757" d="M121.19705 58.71713c-.26394-4.0869-.93753-8.1908-2.00378-12.19755-1.0614-3.98813-2.51707-7.88153-4.32655-11.57092-1.7277-3.5226-3.79544-6.89461-6.15059-10.03346l.008-.006-.33842-.44366c-2.46283-3.21819-5.28026-6.22751-8.37458-8.94212-3.08541-2.70733-6.44529-5.11591-9.98489-7.15936-3.54204-2.04426-7.31076-3.7493-11.20254-5.06814-3.89907-1.32128-7.91797-2.25638-11.94414-2.77858-4.06262-.52624-8.20619-.65173-12.30928-.37242-3.72662.2526-7.4573.842-11.08758 1.752l-.62663.15706 2.16084 5.69478.49062-.1174c3.07812-.7327 6.2623-1.2136 9.46269-1.42977 3.69586-.24774 7.42329-.13035 11.07381.3465 3.65295.47768 7.28323 1.32453 10.78883 2.51627 3.49751 1.1885 6.90515 2.73404 10.12739 4.59371 3.23033 1.86453 6.27688 4.04237 9.05384 6.47363 2.77371 2.42801 5.32236 5.14991 7.57631 8.0896 2.25961 2.95102 4.22858 6.12306 5.85103 9.42869 1.63622 3.33234 2.9494 6.83875 3.90393 10.42208.95129 3.57522 1.55526 7.27918 1.79571 11.00742.23802 3.71205.11011 7.45406-.37971 11.12239-.48657 3.65538-1.34233 7.29052-2.54378 10.80584-1.19903 3.50803-2.7551 6.93105-4.6261 10.17272-1.87424 3.24733-4.05937 6.30684-6.49467 9.09594-2.44826 2.80448-5.17097 5.3677-8.09122 7.61679-2.92674 2.25475-6.10364 4.23748-9.44408 5.89313-3.3283 1.64998-6.83551 2.97855-10.42289 3.94846-3.59465.96505-7.29375 1.58035-10.99609 1.8289-3.69828.24693-7.4241.13035-11.07543-.34651-3.65214-.47767-7.28242-1.32371-10.79045-2.51545-3.49912-1.18932-6.90676-2.73486-10.129-4.59453-3.18095-1.83214-6.16435-3.95007-8.87006-6.29631-2.713-2.35353-5.22197-4.99933-7.45649-7.86453-1.9382-2.48307-3.67967-5.15235-5.17825-7.93254-1.03468-1.91796-1.96735-3.92174-2.77533-5.95547l-.20807-.52625-5.65997 2.14627.21374.54082c.89056 2.25476 1.92362 4.4828 3.07084 6.62178 1.58278 2.95183 3.41492 5.79436 5.44542 8.45068 2.4774 3.24006 5.2916 6.24937 8.36486 8.94536 3.08704 2.70895 6.4469 5.11834 9.98732 7.1626 3.5396 2.04345 7.30914 3.74767 11.20174 5.06733 3.9015 1.32209 7.9212 2.25719 11.94576 2.77858 2.66199.3457 5.35717.51896 8.05397.51896 1.42006 0 2.84011-.0478 4.25611-.14411 4.10876-.27851 8.20942-.96425 12.18783-2.03779 3.97032-1.07192 7.85482-2.54217 11.54663-4.36783 3.67805-1.82081 7.19984-4.01808 10.46903-6.53192 3.26272-2.50735 6.28013-5.33612 8.96884-8.40858 2.70004-3.08541 5.11267-6.45905 7.1715-10.0278 2.06855-3.58413 3.78492-7.36338 5.10215-11.23007 1.32047-3.87964 2.26366-7.9042 2.80043-11.96195.53839-4.07476.67684-8.22561.41129-12.3368"/><path fill="#26a1d9" d="M89.64582 40.05729c-1.87019-3.10161-5.7053-2.98826-12.90595-.70355-1.06059.33599-2.16975.72217-3.32344 1.15612 7.19417-2.56241 12.48091-3.04979 13.81919-.83066 1.27918 2.12037-1.04763 4.95318-2.29847 6.50601-3.0417 3.77844-7.27028 6.57563-11.34827 9.12266-4.37674 2.73323-8.98422 5.073-13.64918 7.26866-1.44596.68007-2.89678 1.34637-4.35083 2.00701-4.45446 2.02402-9.05546 3.77763-13.46378 5.89476 10.26178-4.92889 32.32359-18.37648 36.9173-24.45582-5.47213-6.48496-15.82378-10.42937-25.94064-7.73499-13.8791 3.69586-22.13305 17.9409-18.4372 31.82001 3.69506 13.87829 17.9401 22.13305 31.81921 18.43719 13.8791-3.69586 22.13305-17.9409 18.43719-31.82001-.0518-.19754-.10686-.39428-.16354-.58939-2.13331 1.19822-4.59695 2.50411-7.26056 3.65942-.4639.20079-.73431.31575-1.19012.50682-.16273.0672-.65012.31332-.81123.3797-.51167.2105-1.67508.68979-2.19484.87843 2.09364-1.43624 4.05937-2.74214 5.70773-4.0529 3.0004-2.3851 6.04615-5.10538 8.17866-8.32276 2.42072-3.65538 3.64323-7.16341 2.45877-9.12671"/></g><path d="M17.18353 135.99953c-.46104.57995-1.08306.86901-1.86792.86901-.78486 0-1.41054-.28906-1.8789-.869-.46652-.57813-.7007-1.4014-.7007-2.46983 0-1.0666.23418-1.88988.7007-2.46983.46836-.57812 1.09404-.86901 1.8789-.86901.78486 0 1.40689.29089 1.86792.87267.46103.57995.69155 1.40323.69155 2.46617 0 1.06842-.23052 1.8917-.69155 2.46982zm1.23857 1.44165c.955-.9056 1.43433-2.2082 1.43433-3.91147 0-1.7362-.47933-3.04063-1.43433-3.90964-.71716-.73912-1.75266-1.10685-3.1065-1.10685-1.35565 0-2.39115.36773-3.10648 1.10685-.96049.869-1.44165 2.17344-1.44165 3.90964 0 1.70326.48116 3.00587 1.44165 3.91147.71533.73729 1.75083 1.10502 3.10649 1.10502 1.35383 0 2.38933-.36773 3.10649-1.10502zm-3.1065-8.92796zm10.09153 5.27445h1.87707c-.10245-.99891-.4336-1.69595-.99342-2.09112-.55983-.39334-1.27882-.59093-2.15698-.59093-1.03367 0-1.84414.3348-2.4314 1.00257-.58728.6696-.88182 1.6063-.88182 2.8101 0 1.06844.26527 1.93745.79766 2.60522.53238.6696 1.36115 1.0044 2.48812 1.0044 1.1288 0 1.97952-.40067 2.55398-1.20382.36041-.49762.56166-1.02452.60556-1.58252h-1.87157c-.03842.36956-.1482.6696-.32932.90195-.17929.23051-.48481.3476-.91292.3476-.60373 0-1.01537-.29272-1.2349-.87633-.12076-.31284-.1793-.72631-.1793-1.2404 0-.5397.05854-.9733.1793-1.29895.22685-.61288.64946-.92023 1.26784-.92023.43176 0 .75192.14087.95865.42444.14088.2104.2287.4464.26345.70802zm-1.24223-2.70218zm6.1581 1.91c.23417-.26527.56348-.39883.98793-.39883.38968 0 .71716.12624.98061.37688.26345.25064.41164.61837.4409 1.10319h-2.84852c.05854-.45555.20673-.81413.43908-1.08124zm2.56313-1.58251c-.46653-.21772-.9916-.32749-1.5752-.32749-.98244 0-1.7801.32383-2.39665.97147-.6147.64764-.92207 1.57886-.92207 2.79182 0 1.29528.3403 2.23016 1.0227 2.80462.6824.57446 1.46908.8617 2.36005.8617 1.08123 0 1.92098-.34212 2.52105-1.0227.38603-.42993.60374-.85254.64947-1.26784h-1.87157c-.0988.20673-.21223.36773-.3403.48299-.236.21405-.54335.32199-.92023.32199-.35492 0-.66045-.08782-.91292-.26528-.4153-.28174-.63667-.7757-.66228-1.47823h4.79878c.00732-.60557-.01098-1.06843-.05855-1.39042-.08232-.54885-.25978-1.03001-.5342-1.44714-.3037-.47018-.68973-.81595-1.15808-1.0355zm-1.44714-.32749zm8.29679 3.7889v.6824c-.01281.61289-.18478 1.0355-.51775 1.26602-.33114.23234-.69521.3476-1.08856.3476-.2488 0-.46103-.06952-.63483-.20856s-.2598-.3659-.2598-.67875c0-.35126.14088-.61105.42445-.77936.16649-.0988.44274-.18112.82877-.25064l.41163-.07684c.20674-.03842.36773-.0805.48665-.1244.11709-.04575.23418-.1043.34944-.17747zm-1.11234-.8562l-.62386.07683c-.70619.09148-1.24223.2415-1.60813.45189-.6641.38602-.99708 1.00988-.99708 1.87158 0 .6641.20674 1.1782.62203 1.54044.41347.36224.9367.54336 1.57154.54336.49763 0 .94402-.11343 1.33737-.34212.33114-.1921.62203-.42627.87633-.7007.0128.15917.02927.30004.05122.42445.02013.1244.06038.25796.11526.39883h1.99416v-.27077c-.12075-.05488-.2104-.12623-.27077-.21222-.06037-.08416-.09696-.24698-.10977-.48848-.00732-.3165-.0128-.58727-.0128-.81047v-3.21443c0-.84523-.29638-1.41969-.8928-1.72522-.59642-.3037-1.27882-.45554-2.04538-.45554-1.18003 0-2.01062.30736-2.49544.92573-.30553.39517-.47567.89828-.51592 1.51116h1.76913c.0439-.27076.1299-.48481.25796-.64215.17929-.21588.48664-.322.92023-.322.38603 0 .67875.0549.87634.16283.19941.10977.30003.30919.30003.59642 0 .236-.13172.40798-.39151.51958-.14636.06586-.38968.11891-.72814.161zm.09696-2.9327zm10.1391.5891c-.46104-.38053-1.0538-.56897-1.77828-.56897-.57812 0-1.05562.14087-1.43433.42444-.2104.15734-.43176.41713-.66777.77754v-1.02269H43.21v6.99784h1.82584v-3.79439c0-.43359.06037-.78851.18112-1.06842.23051-.5269.65862-.79035 1.27882-.79035.50677 0 .84889.1793 1.03.5397.0988.1976.1482.48116.1482.8489v4.26456h1.87706v-4.72011c0-.88-.23051-1.50934-.69155-1.88805zm-2.45337-.5891zm8.70293 3.7889v.6824c-.0128.61289-.1866 1.0355-.51774 1.26602-.33297.23234-.69521.3476-1.09039.3476-.2488 0-.4592-.06952-.633-.20856s-.26162-.3659-.26162-.67875c0-.35126.1427-.61105.42444-.77936.16832-.0988.44457-.18112.8306-.25064l.41163-.07684c.2049-.03842.36773-.0805.48482-.1244.11892-.04575.236-.1043.35126-.17747zm-1.11233-.8562l-.62386.07683c-.70802.09148-1.24406.2415-1.60813.45189-.66594.38602-.99708 1.00988-.99708 1.87158 0 .6641.20673 1.1782.6202 1.54044.41347.36224.93853.54336 1.57337.54336.4958 0 .9422-.11343 1.33737-.34212.3293-.1921.62203-.42627.8745-.7007.0128.15917.02927.30004.05122.42445.02196.1244.06038.25796.11526.39883h1.99416v-.27077c-.11892-.05488-.2104-.12623-.26894-.21222-.06037-.08416-.09696-.24698-.10977-.48848-.00915-.3165-.0128-.58727-.0128-.81047v-3.21443c0-.84523-.29822-1.41969-.89463-1.72522-.59642-.3037-1.277-.45554-2.04538-.45554-1.1782 0-2.01062.30736-2.49544.92573-.3037.39517-.47567.89828-.5141 1.51116h1.76914c.04207-.27076.12806-.48481.25613-.64215.18112-.21588.48664-.322.92023-.322.38603 0 .67875.0549.87816.16283.19942.10977.29821.30919.29821.59642 0 .236-.1299.40798-.39151.51958-.14636.06586-.38785.11891-.72631.161zm.09513-2.9327zm10.14092.5891c-.46103-.38053-1.0538-.56897-1.77827-.56897-.57996 0-1.05745.14087-1.43433.42444-.2104.15734-.4336.41713-.6696.77754v-1.02269h-1.76912v6.99784h1.82767v-3.79439c0-.43359.05854-.78851.17929-1.06842.23234-.5269.65862-.79035 1.28065-.79035.50494 0 .84888.1793 1.02818.5397.09879.1976.14819.48116.14819.8489v4.26456h1.8789v-4.72011c0-.88-.23053-1.50934-.69156-1.88805zm-2.45336-.5891zm6.71975-.64947v-1.69229H66.6404v1.6923zm-1.85877.83608v7.01065h1.85877v-7.01065zm7.73147 5.02015c-.29638.32382-.65862.48482-1.08672.48482-.64399 0-1.08856-.29455-1.33737-.8873-.13721-.31651-.20673-.67875-.20673-1.08673 0-.47201.06403-.86718.19393-1.18918.24332-.60556.68789-.90743 1.33004-.90743.47201 0 .84889.1738 1.1288.5214.28175.34761.42262.85256.42262 1.5185 0 .70618-.1482 1.2221-.44457 1.54592zm-.62386-5.02563c-.26162-.10794-.56714-.161-.92024-.161-.95134 0-1.6868.35492-2.20638 1.06477-.51774.70802-.77753 1.58435-.77753 2.62716 0 1.0794.26893 1.93561.8068 2.56862.53788.633 1.2587.9495 2.15882.9495.5836 0 1.05745-.13903 1.42152-.41895.20124-.15002.38968-.37504.56531-.67508v.45005c0 .6696-.07318 1.14527-.2177 1.42884-.2232.44091-.66594.66228-1.3264.66228-.46652 0-.79949-.08415-.99707-.25064-.11526-.09513-.19942-.24881-.25064-.46286h-1.99233c.05855.69887.37139 1.22393.93853 1.5752.56532.35126 1.29712.5269 2.19358.5269 1.48372 0 2.48629-.39518 3.00952-1.1837.3037-.4592.45738-1.13977.45738-2.04537v-6.65024h-1.78194v1.00989c-.27442-.49214-.63483-.83242-1.08123-1.01537zm-.3348-.18112zm8.77428 3.78889v.6824c-.0128.61289-.1866 1.0355-.51774 1.26602-.33297.23234-.69704.3476-1.09039.3476-.2488 0-.46103-.06952-.63483-.20856s-.2598-.3659-.2598-.67875c0-.35126.14088-.61105.42445-.77936.16649-.0988.44457-.18112.8306-.25064l.41163-.07684c.2049-.03842.36773-.0805.48482-.1244.11709-.04575.23418-.1043.35126-.17747zm-1.11416-.8562l-.62386.07683c-.70619.09148-1.24223.2415-1.60813.45189-.66411.38602-.99525 1.00988-.99525 1.87158 0 .6641.20673 1.1782.6202 1.54044.41347.36224.9367.54336 1.57154.54336.49763 0 .94402-.11343 1.3392-.34212.3293-.1921.6202-.42627.8745-.7007.0128.15917.02927.30004.05122.42445.02196.1244.06038.25796.11526.39883h1.99416v-.27077c-.12075-.05488-.2104-.12623-.27077-.21222-.05854-.08416-.09513-.24698-.10794-.48848-.00915-.3165-.0128-.58727-.0128-.81046v-3.21444c0-.84523-.29822-1.41969-.89463-1.72521-.59642-.3037-1.27882-.45555-2.04538-.45555-1.18003 0-2.01062.30736-2.49544.92573-.30553.39517-.47567.89828-.5141 1.51116h1.7673c.04391-.27076.1299-.48481.25796-.64215.1793-.21588.48665-.322.92024-.322.38603 0 .67875.0549.87816.16283.19942.10977.29821.30919.29821.59642 0 .236-.1299.40798-.39151.51958-.14636.06586-.38786.11892-.72814.161zm.09696-2.9327zm10.1391.5891c-.45921-.38053-1.05197-.56897-1.77828-.56897-.57813 0-1.05563.14087-1.43433.42444-.20856.15734-.43176.41713-.66777.77754v-1.02269h-1.76913v6.99784h1.82585v-3.79438c0-.4336.06037-.78852.18112-1.06843.23051-.5269.65862-.79035 1.28065-.79035.50494 0 .84888.1793 1.02817.5397.0988.1976.1482.48116.1482.8489v4.26456h1.87706v-4.72011c0-.88-.23052-1.50934-.69155-1.88805zm-2.45337-.5891zm6.26604 4.95978h-1.8606c0 .719.26344 1.31175.78851 1.77827.52507.4647 1.3392.69704 2.44055.69704 1.08124 0 1.8789-.21954 2.39665-.65862.51592-.43908.7757-1.00622.7757-1.70143 0-.5269-.18111-.9678-.54152-1.31907-.36407-.3476-.9111-.60557-1.63924-.77754-1.09404-.23966-1.7307-.4098-1.91-.5086-.18111-.0933-.27076-.24698-.27076-.45555 0-.16831.08416-.31467.2543-.43908.16831-.12257.45372-.18477.85255-.18477.48299 0 .82693.12257 1.02818.37138.10794.13722.1738.32383.19941.55983h1.83316c-.0805-.8562-.397-1.45994-.94768-1.80937-.5525-.34944-1.26418-.52507-2.13869-.52507-.92206 0-1.6374.23235-2.146.69887-.5086.4647-.76107 1.02086-.76107 1.6685 0 .54885.16282.96964.48848 1.26053.32565.29638.88547.54153 1.67765.73912 1.10319.26161 1.73985.4464 1.91.55433.17197.10611.25795.26345.25795.46836 0 .21405-.1061.37504-.31833.48298-.21222.10611-.49762.161-.85803.161-.61289 0-1.03367-.12258-1.26053-.36773-.1299-.13721-.21222-.36773-.25064-.69338zm1.4014-4.95977zm4.46398 5.27993v1.91732h1.94841v-1.91732zm5.60741-5.9294v-1.6923h-1.83316v1.6923zm-2.71315 9.1914v1.46543c.16283.00549.29821.00915.40798.01464.10977.00366.1921.00548.24699.00548.81595 0 1.36297-.17014 1.64106-.5086.27808-.33845.41712-.8617.41712-1.5697v-7.72965h-1.83316v7.69854c0 .25247-.04573.42262-.1372.51043-.09331.08782-.2287.13173-.40799.13173-.03476 0-.07318 0-.11709-.00183-.04207-.00183-.11525-.00732-.2177-.01647zm6.32825-1.34468v-9.48047h-1.83316v9.48047z"/></svg>