<svg xmlns="http://www.w3.org/2000/svg" role="img" viewBox="-1.28 -1.28 66.50 14.18"><title>offgridders logo</title><g transform="translate(-.621 9.176)"><path d="M6.6621-3.26953q0 1.5996-.8203 2.52539-.82032.92578-2.19727.92578-1.38867 0-2.20898-.92578-.81446-.92578-.81446-2.5254 0-1.5996.81446-2.52538.8203-.93164 2.20898-.93164 1.37695 0 2.19727.93164.8203.92578.8203 2.52539zm-1.1367 0q0-1.27149-.49806-1.88672-.49804-.6211-1.3828-.6211-.8965 0-1.39454.6211-.49219.61523-.49219 1.88672 0 1.23047.49805 1.86914.49805.63281 1.38867.63281.8789 0 1.37695-.62695.50391-.63281.50391-1.875z"/><path d="M11.88867-8.05078h-.05859q-.18164-.05274-.4746-.10547-.29298-.0586-.51563-.0586-.70899 0-1.03125.31641-.3164.31055-.3164 1.13086v.22266h1.98632v.92578H9.52734V0H8.42578v-5.61914h-.74414v-.92578h.74414v-.2168q0-1.16601.58008-1.7871.58008-.62696 1.67578-.62696.36914 0 .66211.03515.29883.03516.54492.08204z"/><path d="M16.10742-8.05078h-.05859q-.18164-.05274-.4746-.10547-.29298-.0586-.51563-.0586-.70899 0-1.03125.31641-.3164.31055-.3164 1.13086v.22266h1.98632v.92578h-1.95118V0h-1.10156v-5.61914h-.74414v-.92578h.74414v-.2168q0-1.16601.58008-1.7871.58008-.62696 1.67578-.62696.36914 0 .66211.03515.29883.03516.54492.08204z"/><path d="M22.11328-.74414q0 1.66406-.75586 2.44336-.75586.7793-2.32617.7793-.52148 0-1.01953-.07618-.49219-.0703-.97266-.20507v-1.125h.0586q.26952.10546.85546.2578.58594.15821 1.17188.15821.5625 0 .93164-.13476.36914-.13477.57422-.375.20508-.22852.29297-.55079.08789-.32226.08789-.7207v-.59766q-.49805.39844-.95508.59766-.45117.19336-1.1543.19336-1.17187 0-1.86328-.84375-.68554-.8496-.68554-2.39062 0-.84375.23437-1.45313.24023-.61523.65039-1.06055.38086-.41601.92578-.64453.54492-.23437 1.08399-.23437.56836 0 .94922.11719.38671.11132.81445.3457l.0703-.28125h1.03126zm-1.10156-1.05469v-3.56836q-.43945-.19922-.82031-.28125-.375-.08789-.75-.08789-.9082 0-1.4297.60938-.52148.60937-.52148 1.76953 0 1.10156.38672 1.66992t1.2832.56836q.48047 0 .96094-.18164.48633-.1875.89063-.49805z"/><path d="M28.36523-5.34375h-.05859q-.24609-.0586-.48046-.08203-.22852-.0293-.54493-.0293-.50976 0-.98437.22852-.47461.22265-.91406.58008V0h-1.10157v-6.54492h1.10156v.9668q.65625-.52735 1.1543-.74415.5039-.22265 1.02539-.22265.2871 0 .41602.01758.1289.01172.38671.05273z"/><path d="M30.58594-7.64063h-1.24219V-8.7832h1.24219zM30.51562 0h-1.10156v-6.54492h1.10157z"/><path d="M38.0039 0h-1.10156v-.68555q-.4746.41016-.99023.63867-.51563.22852-1.11914.22852-1.17188 0-1.86328-.90234-.68555-.90235-.68555-2.50196 0-.83203.23438-1.48242.24023-.65039.64453-1.10742.39843-.44531.92578-.67969.5332-.23437 1.10156-.23437.51563 0 .91406.11133.39844.10546.8379.33398v-2.83594h1.10156zm-1.10156-1.61133v-3.75586q-.4453-.19922-.79687-.27539-.35156-.07617-.76758-.07617-.92578 0-1.4414.64453-.51563.64453-.51563 1.82813 0 1.16601.39844 1.77539.39843.60351 1.27734.60351.46875 0 .94922-.20508.48047-.21093.89648-.53906z"/><path d="M45.48047 0H44.3789v-.68555q-.47461.41016-.99024.63867-.51562.22852-1.11914.22852-1.17187 0-1.86328-.90234-.68555-.90235-.68555-2.50196 0-.83203.23438-1.48242.24023-.65039.64453-1.10742.39844-.44531.92578-.67969.5332-.23437 1.10156-.23437.51563 0 .91407.11133.39843.10546.83789.33398v-2.83594h1.10156zM44.3789-1.61133v-3.75586q-.44532-.19922-.79688-.27539-.35156-.07617-.76758-.07617-.92578 0-1.4414.64453-.51563.64453-.51563 1.82813 0 1.16601.39844 1.77539.39844.60351 1.27734.60351.46875 0 .94922-.20508.48047-.21093.89649-.53906z"/><path d="M53.12695-3.1582H48.3047q0 .60351.18164 1.05468.18164.44532.49804.73243.3047.28125.7207.42187.42188.14063.92579.14063.66797 0 1.3418-.26368.67968-.26953.9668-.52734h.05858v1.20117q-.55664.23438-1.13672.39258-.58007.1582-1.21875.1582-1.6289 0-2.54296-.8789-.91407-.88477-.91407-2.50782 0-1.60546.87305-2.54882.8789-.94336 2.3086-.94336 1.32421 0 2.03906.77344.7207.77343.7207 2.19726zm-1.07226-.84375q-.0059-.8672-.43946-1.3418-.42773-.4746-1.30664-.4746-.88476 0-1.4121.52147-.52149.52149-.5918 1.29493z"/><path d="M58.88086-5.34375h-.0586q-.24609-.0586-.48046-.08203-.22852-.0293-.54492-.0293-.50977 0-.98438.22852-.4746.22265-.91406.58008V0h-1.10156v-6.54492h1.10156v.9668q.65625-.52735 1.1543-.74415.5039-.22265 1.02539-.22265.2871 0 .41601.01758.12891.01172.38672.05273z"/><path d="M64.59375-1.88672q0 .89649-.74414 1.4707-.73828.57422-2.02148.57422-.72657 0-1.33594-.16992-.60352-.17578-1.01367-.38086V-1.6289h.05859q.52148.39258 1.16015.62696.63867.22851 1.22461.22851.72656 0 1.13672-.23437.41016-.23438.41016-.73828 0-.38672-.22266-.58594t-.85547-.33984q-.23437-.05274-.61523-.12305-.375-.07031-.68555-.15235-.86133-.22851-1.2246-.66796-.35743-.44532-.35743-1.08985 0-.4043.16406-.76172.16992-.35742.50977-.63867.32812-.27539.83203-.4336.50976-.16405 1.13672-.16405.58593 0 1.1836.14648.6035.14062 1.00194.3457v1.17774h-.05859q-.42187-.31055-1.02539-.52149-.60351-.2168-1.1836-.2168-.6035 0-1.01952.23438-.41602.22852-.41602.68555 0 .4043.25196.60937.24609.20508.79687.33399.30469.0703.67969.14062.38086.07031.63281.1289.76758.17579 1.1836.60352.41601.4336.41601 1.14844z"/></g></svg>