<svg xmlns="http://www.w3.org/2000/svg" role="img" viewBox="-14.13 -14.13 708.76 126.26"><title>offgridsystems logo</title><g id="svgGroup" fill="#000" fill-rule="evenodd" stroke="#000" stroke-linecap="round" stroke-width=".25mm"><path d="M 563.601 75.2 L 554.601 75.2 L 554.601 23.2 L 563.301 23.2 L 563.301 31.9 Q 566.101 27.7 570.401 24.85 A 17.205 17.205 0 0 1 579.603 22.009 A 20.858 20.858 0 0 1 580.201 22 A 20.994 20.994 0 0 1 584.618 22.44 Q 587.604 23.082 589.886 24.663 A 13.128 13.128 0 0 1 590.351 25 A 15.751 15.751 0 0 1 595.798 32.69 A 19.154 19.154 0 0 1 595.901 33 Q 599.001 28.4 603.251 25.2 A 15.669 15.669 0 0 1 610.041 22.317 A 21.446 21.446 0 0 1 613.801 22 A 21.437 21.437 0 0 1 618.688 22.523 Q 622.274 23.362 624.763 25.551 A 12.994 12.994 0 0 1 626.451 27.35 A 18.992 18.992 0 0 1 629.862 34.622 Q 630.601 37.672 630.601 41.3 L 630.601 75.2 L 621.601 75.2 L 621.601 42 A 19.042 19.042 0 0 0 621.263 38.311 Q 620.828 36.105 619.829 34.361 A 10.982 10.982 0 0 0 619.101 33.25 A 7.974 7.974 0 0 0 613.287 29.954 A 10.678 10.678 0 0 0 612.201 29.9 A 11.926 11.926 0 0 0 605.441 32.027 A 15.996 15.996 0 0 0 603.851 33.25 Q 600.001 36.6 597.101 41.1 L 597.101 75.2 L 588.101 75.2 L 588.101 42 A 19.042 19.042 0 0 0 587.763 38.311 Q 587.328 36.105 586.329 34.361 A 10.982 10.982 0 0 0 585.601 33.25 A 7.974 7.974 0 0 0 579.787 29.954 A 10.678 10.678 0 0 0 578.701 29.9 A 12.02 12.02 0 0 0 572.382 31.728 A 16.244 16.244 0 0 0 570.401 33.15 Q 566.501 36.4 563.601 40.8 L 563.601 75.2 Z M 355.901 96.4 L 357.901 88.9 A 9.908 9.908 0 0 0 359.065 89.474 Q 359.888 89.819 360.901 90.1 A 13.514 13.514 0 0 0 363.179 90.518 A 17.358 17.358 0 0 0 364.901 90.6 Q 369.101 90.6 372.401 87.9 A 12.003 12.003 0 0 0 374.333 85.839 Q 376.082 83.528 377.741 79.675 A 58.58 58.58 0 0 0 378.701 77.3 L 381.001 71.3 L 376.201 71.3 L 355.901 25.6 L 363.901 22 L 383.301 65.3 L 398.401 22.4 L 406.701 25.6 L 387.601 77.8 A 71.728 71.728 0 0 1 385.548 82.887 Q 384.445 85.326 383.278 87.314 A 30.86 30.86 0 0 1 381.301 90.3 A 24.268 24.268 0 0 1 378.422 93.511 Q 376.508 95.279 374.405 96.318 A 14.737 14.737 0 0 1 373.801 96.6 Q 369.701 98.4 364.701 98.4 Q 361.701 98.4 359.451 97.8 Q 357.201 97.2 355.901 96.4 Z M 134.301 94 L 137.601 86.2 A 20.562 20.562 0 0 0 141.417 88.573 A 24.737 24.737 0 0 0 143.201 89.35 Q 145.96 90.428 149.759 90.576 A 31.788 31.788 0 0 0 151.001 90.6 A 21.701 21.701 0 0 0 155.521 90.157 Q 158.422 89.539 160.622 88.059 A 12.576 12.576 0 0 0 162.151 86.85 A 11.352 11.352 0 0 0 165.057 82.357 Q 166.201 79.256 166.201 74.9 L 166.201 68.5 Q 164.201 70.9 160.451 73.05 Q 156.701 75.2 151.501 75.2 Q 145.601 75.2 140.301 72.15 A 22.236 22.236 0 0 1 133.008 65.312 A 27.437 27.437 0 0 1 131.701 63.2 A 25.181 25.181 0 0 1 128.988 55.576 A 35.033 35.033 0 0 1 128.401 49 A 32.06 32.06 0 0 1 129.318 41.192 A 26.682 26.682 0 0 1 131.651 35.1 A 25.706 25.706 0 0 1 137.714 27.478 A 24.448 24.448 0 0 1 140.401 25.5 Q 145.901 22 152.501 22 A 22.366 22.366 0 0 1 157.321 22.501 A 18.715 18.715 0 0 1 160.501 23.5 A 25.705 25.705 0 0 1 164.329 25.468 A 20.998 20.998 0 0 1 166.701 27.2 L 166.701 23.2 L 174.901 23.2 L 174.901 74 Q 174.901 82.6 171.901 88 Q 168.901 93.4 163.551 95.9 A 25.811 25.811 0 0 1 156.946 97.922 A 35.243 35.243 0 0 1 151.001 98.4 Q 146.401 98.4 142.051 97.3 A 27.232 27.232 0 0 1 136.75 95.383 A 23.518 23.518 0 0 1 134.301 94 Z M 312.101 71 L 315.901 63.5 A 18.557 18.557 0 0 0 319.044 65.626 Q 320.599 66.47 322.451 67.15 A 24.073 24.073 0 0 0 330.062 68.587 A 27.464 27.464 0 0 0 330.901 68.6 Q 336.293 68.6 339.135 66.885 A 7.738 7.738 0 0 0 339.351 66.75 Q 342.201 64.9 342.201 62 A 7.123 7.123 0 0 0 341.886 59.853 A 6.212 6.212 0 0 0 341.151 58.3 A 6.384 6.384 0 0 0 340.222 57.206 Q 339.208 56.234 337.534 55.281 A 22.3 22.3 0 0 0 337.301 55.15 A 28.462 28.462 0 0 0 335.306 54.157 Q 333.19 53.195 330.202 52.146 A 103.602 103.602 0 0 0 329.201 51.8 A 46.616 46.616 0 0 1 324.803 50.057 Q 322.689 49.083 321.013 47.995 A 19.335 19.335 0 0 1 318.251 45.85 A 11.324 11.324 0 0 1 314.957 39.854 A 16.794 16.794 0 0 1 314.601 36.3 Q 314.601 30.3 319.851 26.15 Q 324.255 22.669 331.509 22.108 A 37.527 37.527 0 0 1 334.401 22 A 40.794 40.794 0 0 1 338.846 22.231 Q 341.154 22.484 343.171 23.016 A 25.234 25.234 0 0 1 343.301 23.05 Q 347.201 24.1 350.301 25.7 L 347.801 33.1 Q 345.101 31.5 341.651 30.5 A 25.024 25.024 0 0 0 337.167 29.653 A 31.837 31.837 0 0 0 334.001 29.5 A 20.632 20.632 0 0 0 331.064 29.695 Q 327.978 30.14 326.101 31.6 A 9.322 9.322 0 0 0 324.743 32.874 Q 324.04 33.692 323.705 34.565 A 4.529 4.529 0 0 0 323.401 36.2 A 4.921 4.921 0 0 0 324.896 39.752 A 7.082 7.082 0 0 0 325.501 40.3 Q 327.566 41.972 333.499 43.934 A 84.459 84.459 0 0 0 333.701 44 A 67.753 67.753 0 0 1 338.763 45.898 Q 344.69 48.417 347.501 51.3 Q 351.401 55.3 351.401 61.3 Q 351.401 68.048 346.149 72.055 A 16.618 16.618 0 0 1 345.751 72.35 Q 341.011 75.748 333.562 76.295 A 40.423 40.423 0 0 1 330.601 76.4 Q 324.701 76.4 319.951 74.9 A 30.883 30.883 0 0 1 316.11 73.415 Q 314.13 72.484 312.548 71.336 A 18.229 18.229 0 0 1 312.101 71 Z M 411.201 71 L 415.001 63.5 A 18.557 18.557 0 0 0 418.144 65.626 Q 419.699 66.47 421.551 67.15 A 24.073 24.073 0 0 0 429.162 68.587 A 27.464 27.464 0 0 0 430.001 68.6 Q 435.393 68.6 438.235 66.885 A 7.738 7.738 0 0 0 438.451 66.75 Q 441.301 64.9 441.301 62 A 7.123 7.123 0 0 0 440.986 59.853 A 6.212 6.212 0 0 0 440.251 58.3 A 6.384 6.384 0 0 0 439.322 57.206 Q 438.308 56.234 436.634 55.281 A 22.3 22.3 0 0 0 436.401 55.15 A 28.462 28.462 0 0 0 434.406 54.157 Q 432.29 53.195 429.302 52.146 A 103.602 103.602 0 0 0 428.301 51.8 A 46.616 46.616 0 0 1 423.903 50.057 Q 421.789 49.083 420.113 47.995 A 19.335 19.335 0 0 1 417.351 45.85 A 11.324 11.324 0 0 1 414.057 39.854 A 16.794 16.794 0 0 1 413.701 36.3 Q 413.701 30.3 418.951 26.15 Q 423.355 22.669 430.609 22.108 A 37.527 37.527 0 0 1 433.501 22 A 40.794 40.794 0 0 1 437.946 22.231 Q 440.254 22.484 442.271 23.016 A 25.234 25.234 0 0 1 442.401 23.05 Q 446.301 24.1 449.401 25.7 L 446.901 33.1 Q 444.201 31.5 440.751 30.5 A 25.024 25.024 0 0 0 436.267 29.653 A 31.837 31.837 0 0 0 433.101 29.5 A 20.632 20.632 0 0 0 430.164 29.695 Q 427.078 30.14 425.201 31.6 A 9.322 9.322 0 0 0 423.843 32.874 Q 423.14 33.692 422.805 34.565 A 4.529 4.529 0 0 0 422.501 36.2 A 4.921 4.921 0 0 0 423.996 39.752 A 7.082 7.082 0 0 0 424.601 40.3 Q 426.666 41.972 432.599 43.934 A 84.459 84.459 0 0 0 432.801 44 A 67.753 67.753 0 0 1 437.863 45.898 Q 443.79 48.417 446.601 51.3 Q 450.501 55.3 450.501 61.3 Q 450.501 68.048 445.249 72.055 A 16.618 16.618 0 0 1 444.851 72.35 Q 440.111 75.748 432.662 76.295 A 40.423 40.423 0 0 1 429.701 76.4 Q 423.801 76.4 419.051 74.9 A 30.883 30.883 0 0 1 415.21 73.415 Q 413.23 72.484 411.648 71.336 A 18.229 18.229 0 0 1 411.201 71 Z M 641.601 71 L 645.401 63.5 A 18.557 18.557 0 0 0 648.544 65.626 Q 650.099 66.47 651.951 67.15 A 24.073 24.073 0 0 0 659.562 68.587 A 27.464 27.464 0 0 0 660.401 68.6 Q 665.793 68.6 668.635 66.885 A 7.738 7.738 0 0 0 668.851 66.75 Q 671.701 64.9 671.701 62 A 7.123 7.123 0 0 0 671.386 59.853 A 6.212 6.212 0 0 0 670.651 58.3 A 6.384 6.384 0 0 0 669.722 57.206 Q 668.708 56.234 667.034 55.281 A 22.3 22.3 0 0 0 666.801 55.15 A 28.462 28.462 0 0 0 664.806 54.157 Q 662.69 53.195 659.702 52.146 A 103.602 103.602 0 0 0 658.701 51.8 A 46.616 46.616 0 0 1 654.303 50.057 Q 652.189 49.083 650.513 47.995 A 19.335 19.335 0 0 1 647.751 45.85 A 11.324 11.324 0 0 1 644.457 39.854 A 16.794 16.794 0 0 1 644.101 36.3 Q 644.101 30.3 649.351 26.15 Q 653.755 22.669 661.009 22.108 A 37.527 37.527 0 0 1 663.901 22 A 40.794 40.794 0 0 1 668.346 22.231 Q 670.654 22.484 672.671 23.016 A 25.234 25.234 0 0 1 672.801 23.05 Q 676.701 24.1 679.801 25.7 L 677.301 33.1 Q 674.601 31.5 671.151 30.5 A 25.024 25.024 0 0 0 666.667 29.653 A 31.837 31.837 0 0 0 663.501 29.5 A 20.632 20.632 0 0 0 660.564 29.695 Q 657.478 30.14 655.601 31.6 A 9.322 9.322 0 0 0 654.243 32.874 Q 653.54 33.692 653.205 34.565 A 4.529 4.529 0 0 0 652.901 36.2 A 4.921 4.921 0 0 0 654.396 39.752 A 7.082 7.082 0 0 0 655.001 40.3 Q 657.066 41.972 662.999 43.934 A 84.459 84.459 0 0 0 663.201 44 A 67.753 67.753 0 0 1 668.263 45.898 Q 674.19 48.417 677.001 51.3 Q 680.901 55.3 680.901 61.3 Q 680.901 68.048 675.649 72.055 A 16.618 16.618 0 0 1 675.251 72.35 Q 670.511 75.748 663.062 76.295 A 40.423 40.423 0 0 1 660.101 76.4 Q 654.201 76.4 649.451 74.9 A 30.883 30.883 0 0 1 645.61 73.415 Q 643.63 72.484 642.048 71.336 A 18.229 18.229 0 0 1 641.601 71 Z M 73.801 75.2 L 64.801 75.2 L 64.801 32.9 L 56.801 32.9 L 56.801 25.1 L 64.801 25.1 L 64.801 19 A 25.495 25.495 0 0 1 65.426 13.182 Q 66.534 8.452 69.603 5.203 A 16.387 16.387 0 0 1 69.701 5.1 A 16.367 16.367 0 0 1 80.105 0.125 A 22.463 22.463 0 0 1 82.501 0 A 29.982 29.982 0 0 1 86.011 0.195 Q 87.756 0.401 89.272 0.825 A 17.884 17.884 0 0 1 89.701 0.95 Q 92.801 1.9 95.601 3.3 L 92.901 10.9 Q 90.801 9.8 88.401 8.9 A 14.172 14.172 0 0 0 84.778 8.079 A 17.356 17.356 0 0 0 83.101 8 A 10.802 10.802 0 0 0 80.071 8.405 A 8.291 8.291 0 0 0 76.351 10.65 A 8.462 8.462 0 0 0 74.404 14.019 Q 73.801 15.92 73.801 18.4 L 73.801 25.1 L 89.201 25.1 L 89.201 32.9 L 73.801 32.9 L 73.801 75.2 Z M 108.601 75.2 L 99.601 75.2 L 99.601 32.9 L 91.601 32.9 L 91.601 25.1 L 99.601 25.1 L 99.601 19 A 25.495 25.495 0 0 1 100.226 13.182 Q 101.334 8.452 104.403 5.203 A 16.387 16.387 0 0 1 104.501 5.1 A 16.367 16.367 0 0 1 114.905 0.125 A 22.463 22.463 0 0 1 117.301 0 A 29.982 29.982 0 0 1 120.811 0.195 Q 122.556 0.401 124.072 0.825 A 17.884 17.884 0 0 1 124.501 0.95 Q 127.601 1.9 130.401 3.3 L 127.701 10.9 Q 125.601 9.8 123.201 8.9 A 14.172 14.172 0 0 0 119.578 8.079 A 17.356 17.356 0 0 0 117.901 8 A 10.802 10.802 0 0 0 114.871 8.405 A 8.291 8.291 0 0 0 111.151 10.65 A 8.462 8.462 0 0 0 109.204 14.019 Q 108.601 15.92 108.601 18.4 L 108.601 25.1 L 124.001 25.1 L 124.001 32.9 L 108.601 32.9 L 108.601 75.2 Z M 289.701 28.4 L 289.701 1.2 L 298.701 1.2 L 298.701 62.6 A 12.15 12.15 0 0 0 298.802 64.236 Q 299.134 66.67 300.551 67.55 Q 302.401 68.7 304.601 68.7 L 302.701 75.7 Q 293.201 75.7 291.101 68.1 Q 288.901 71.2 284.951 73.8 Q 281.001 76.4 275.001 76.4 Q 268.601 76.4 263.301 73.1 A 22.692 22.692 0 0 1 255.763 65.309 A 27.622 27.622 0 0 1 254.901 63.75 A 27.533 27.533 0 0 1 252.312 55.808 A 37.221 37.221 0 0 1 251.801 49.5 A 33.94 33.94 0 0 1 252.69 41.586 A 27.963 27.963 0 0 1 254.951 35.4 A 27.291 27.291 0 0 1 259.569 28.809 A 24.186 24.186 0 0 1 263.351 25.6 Q 268.601 22 274.901 22 A 21.642 21.642 0 0 1 279.173 22.402 A 15.942 15.942 0 0 1 283.851 24.1 A 34.343 34.343 0 0 1 286.431 25.689 Q 287.654 26.524 288.625 27.374 A 16.59 16.59 0 0 1 289.701 28.4 Z M 542.301 52.9 L 505.901 52.9 A 24.088 24.088 0 0 0 507.04 57.925 Q 508.376 61.738 511.001 64.3 Q 515.201 68.4 522.101 68.4 Q 526.601 68.4 530.201 67.45 Q 533.801 66.5 537.101 65 L 539.201 72.7 A 40.77 40.77 0 0 1 534.866 74.326 A 51.863 51.863 0 0 1 531.101 75.35 A 38.914 38.914 0 0 1 526.009 76.169 A 52.025 52.025 0 0 1 521.001 76.4 A 28.318 28.318 0 0 1 513.254 75.395 A 21.108 21.108 0 0 1 503.251 69.25 A 23.521 23.521 0 0 1 498.045 59.71 Q 496.701 55.045 496.701 49.2 A 35.359 35.359 0 0 1 497.533 41.378 A 28.84 28.84 0 0 1 499.651 35.25 A 24.642 24.642 0 0 1 504.667 28.168 A 22.887 22.887 0 0 1 507.901 25.55 A 21.048 21.048 0 0 1 518.16 22.078 A 26.205 26.205 0 0 1 520.201 22 Q 527.701 22 532.651 25.25 Q 537.601 28.5 540.101 34 A 28.185 28.185 0 0 1 542.527 43.864 A 33.434 33.434 0 0 1 542.601 46.1 A 75.204 75.204 0 0 1 542.31 52.797 A 69.426 69.426 0 0 1 542.301 52.9 Z M 464.501 57.3 L 464.501 32.9 L 455.501 32.9 L 455.501 25.1 L 464.701 25.1 L 466.601 8.7 L 473.501 8.7 L 473.501 25.1 L 487.901 25.1 L 487.901 32.9 L 473.501 32.9 L 473.501 58 A 21.559 21.559 0 0 0 473.668 60.796 Q 474.142 64.402 475.951 66.1 Q 478.401 68.4 481.801 68.4 Q 484.301 68.4 486.551 67.6 Q 488.801 66.8 490.701 65.7 L 493.201 72.9 A 18.546 18.546 0 0 1 491.582 73.756 Q 490.78 74.135 489.835 74.508 A 43.365 43.365 0 0 1 487.801 75.25 Q 484.401 76.4 480.701 76.4 Q 473.201 76.4 468.851 71.45 A 16.116 16.116 0 0 1 465.622 65.548 Q 464.86 63.117 464.616 60.181 A 34.777 34.777 0 0 1 464.501 57.3 Z M 199.401 75.2 L 190.401 75.2 L 190.401 23.2 L 199.101 23.2 L 199.101 34.5 Q 200.401 31.2 202.601 28.35 Q 204.801 25.5 208.101 23.75 A 14.817 14.817 0 0 1 212.78 22.226 A 19.459 19.459 0 0 1 215.801 22 Q 217.301 22 218.801 22.15 A 18.972 18.972 0 0 1 219.855 22.284 Q 220.355 22.362 220.782 22.463 A 8.817 8.817 0 0 1 221.301 22.6 L 218.601 31.9 A 9.763 9.763 0 0 0 216.455 31.288 Q 215.36 31.1 214.101 31.1 A 12.958 12.958 0 0 0 207.471 32.946 A 15.609 15.609 0 0 0 207.051 33.2 Q 203.723 35.286 201.579 39.642 A 22.927 22.927 0 0 0 201.551 39.7 Q 199.788 43.307 199.47 48.528 A 39.09 39.09 0 0 0 199.401 50.9 L 199.401 75.2 Z M 12.601 72.95 A 24.559 24.559 0 0 0 17.199 75.04 Q 21.254 76.4 25.901 76.4 Q 33.301 76.4 39.151 73 Q 45.001 69.6 48.401 63.45 A 26.255 26.255 0 0 0 51.053 56.309 A 34.184 34.184 0 0 0 51.801 49 A 34.542 34.542 0 0 0 51.315 43.092 A 25.795 25.795 0 0 0 48.351 34.65 Q 44.901 28.6 39.051 25.3 A 24.848 24.848 0 0 0 34.409 23.273 A 27.738 27.738 0 0 0 25.901 22 A 31.325 31.325 0 0 0 24.32 22.04 A 26.169 26.169 0 0 0 12.701 25.3 Q 6.801 28.6 3.401 34.7 A 26.023 26.023 0 0 0 0.651 42.29 A 35.006 35.006 0 0 0 0.001 49.2 A 34.82 34.82 0 0 0 0.265 53.554 A 27.451 27.451 0 0 0 3.351 63.35 Q 6.701 69.5 12.601 72.95 Z M 239.301 75.2 L 230.301 75.2 L 230.301 23.2 L 239.301 23.2 L 239.301 75.2 Z M 25.901 68.4 Q 33.801 68.4 38.201 63.05 A 18.802 18.802 0 0 0 42.02 54.96 A 27.105 27.105 0 0 0 42.601 49.2 Q 42.601 44 40.401 39.65 A 19.198 19.198 0 0 0 36.229 34.081 A 18.17 18.17 0 0 0 34.451 32.65 Q 30.701 30 25.901 30 A 19.249 19.249 0 0 0 20.674 30.672 A 14.037 14.037 0 0 0 13.601 35.2 A 17.878 17.878 0 0 0 9.927 42.574 Q 9.201 45.506 9.201 49 Q 9.201 54.2 11.401 58.65 A 19.437 19.437 0 0 0 14.93 63.69 A 17.627 17.627 0 0 0 17.351 65.75 Q 21.101 68.4 25.901 68.4 Z M 289.701 62.1 L 289.701 36.3 A 15.847 15.847 0 0 0 287.59 34.127 Q 286.469 33.164 285.07 32.266 A 28.139 28.139 0 0 0 284.401 31.85 Q 281.001 29.8 276.901 29.8 A 14.946 14.946 0 0 0 271.945 30.6 A 13.385 13.385 0 0 0 268.501 32.4 A 16.69 16.69 0 0 0 263.331 38.55 A 19.924 19.924 0 0 0 262.951 39.35 A 22.19 22.19 0 0 0 261.21 45.715 A 28.113 28.113 0 0 0 261.001 49.2 A 24.757 24.757 0 0 0 261.593 54.719 A 20.327 20.327 0 0 0 263.101 59.05 A 18.205 18.205 0 0 0 266.141 63.564 A 16.122 16.122 0 0 0 268.851 65.9 Q 272.501 68.4 277.001 68.4 Q 280.701 68.4 284.051 66.65 Q 287.401 64.9 289.701 62.1 Z M 165.901 61.2 L 165.901 34 Q 163.735 32.425 160.697 31.141 A 36.018 36.018 0 0 0 160.601 31.1 A 16.249 16.249 0 0 0 156.797 30.049 A 22.135 22.135 0 0 0 153.401 29.8 Q 149.301 29.8 145.701 32 Q 142.101 34.2 139.851 38.35 Q 137.601 42.5 137.601 48.5 A 24.32 24.32 0 0 0 138.079 53.436 A 18.311 18.311 0 0 0 139.851 58.4 A 18.576 18.576 0 0 0 142.762 62.475 A 15.802 15.802 0 0 0 145.701 64.9 Q 149.301 67.2 153.501 67.2 A 15.276 15.276 0 0 0 158.078 66.532 A 13.606 13.606 0 0 0 160.701 65.4 A 20.855 20.855 0 0 0 163.681 63.384 A 16.309 16.309 0 0 0 165.901 61.2 Z M 505.801 45.6 L 534.301 45.6 A 24.355 24.355 0 0 0 533.896 41.015 Q 533.4 38.431 532.296 36.407 A 12.422 12.422 0 0 0 530.501 33.9 A 12.488 12.488 0 0 0 523.54 30.124 A 18.395 18.395 0 0 0 520.001 29.8 A 13.58 13.58 0 0 0 514.889 30.735 A 12.524 12.524 0 0 0 510.401 33.85 Q 506.601 37.9 505.801 45.6 Z M 230.438 12.488 A 5.973 5.973 0 0 0 234.801 14.3 A 8.175 8.175 0 0 0 236.297 14.169 A 5.647 5.647 0 0 0 239.401 12.55 Q 241.101 10.8 241.101 8 A 7.26 7.26 0 0 0 241.1 7.919 A 6.06 6.06 0 0 0 239.251 3.55 A 7.395 7.395 0 0 0 239.193 3.493 A 6.059 6.059 0 0 0 234.801 1.7 A 8.264 8.264 0 0 0 233.145 1.858 A 5.661 5.661 0 0 0 230.201 3.4 A 5.588 5.588 0 0 0 228.73 6.032 A 7.987 7.987 0 0 0 228.501 8 A 5.992 5.992 0 0 0 228.992 10.419 A 6.643 6.643 0 0 0 230.351 12.4 A 7.466 7.466 0 0 0 230.438 12.488 Z" vector-effect="non-scaling-stroke"/></g></svg>