<svg xmlns="http://www.w3.org/2000/svg" role="img" viewBox="-1.83 -2.08 153.53 119.66"><title>OMEGAlpes logo</title><style>svg {enable-background:new 0 0 150 92}</style><style>.st0{fill:#2a2e46}</style><path d="M22.3 46.6C11 46.6 1.8 37.4 1.8 26V1.7h9.1V26c0 6.3 5.1 11.4 11.4 11.4S33.7 32.3 33.7 26V1.7h9.1V26c0 11.4-9.2 20.6-20.5 20.6zM123.2 20l15 25.9h10.6L123.2 1.7 97.7 45.9h10.6zM73.5 46.6c-4.3 0-8.6-1.2-12.4-3.7-10.6-6.9-13.6-21.1-6.7-31.6C61.3.7 75.4-2.3 86 4.6l-5 7.7c-6.3-4.1-14.8-2.3-18.9 4-4.1 6.3-2.3 14.8 4 18.9 6.3 4.1 14.8 2.3 18.9-4l7.7 5c-4.5 6.7-11.8 10.4-19.2 10.4z" class="st0"/><path d="M73.2 19.2h20.3v9.1H73.2z" class="st0"/><path fill="#e84e0f" d="M123.2 39.7l-10.8 18.8h21.7z"/><path d="M3.3 67.4c-1-1-1.5-2.2-1.5-3.7v-8.1h2.8v8c0 .8.2 1.4.7 1.9.5.5 1.1.7 1.8.7s1.4-.2 1.9-.7c.5-.5.7-1.1.7-1.9v-8h2.8v8.1c0 1.5-.5 2.8-1.5 3.7-1 1-2.3 1.5-3.9 1.5-1.5-.1-2.8-.5-3.8-1.5zm20.5-8c.7.8 1 1.8 1 3.1v6.1h-2.7v-5.7c0-1.5-.6-2.3-1.7-2.3-.5 0-.9.1-1.2.3-.3.2-.6.5-.8.9-.2.4-.3.9-.3 1.4v5.3h-2.7v-10h1.9l.5 1.2.6-.6c.2-.2.5-.3.8-.5l.9-.3c.3-.1.6-.1 1-.1 1.1.1 2 .5 2.7 1.2zm3.9-4.8h2.7v2.5h-2.7v-2.5zm0 3.9h2.7v10h-2.7v-10zm15.1 0l-4 10h-2.5l-4.1-10h2.9l2.5 6.7 2.4-6.7h2.8zm11.1 5.8h-7.6c.1.7.4 1.2.8 1.6.4.4 1 .5 1.6.5.5 0 .9-.1 1.2-.3.4-.2.7-.5.9-.8h2.9c-.4 1.1-1 2-1.9 2.6-.9.6-1.9 1-3.1 1-1.5 0-2.7-.5-3.7-1.5s-1.5-2.3-1.5-3.8c0-.6.1-1.2.3-1.7.2-.5.4-1 .7-1.5.3-.4.7-.8 1.1-1.1.4-.3.9-.6 1.4-.7.5-.2 1.1-.3 1.7-.3 1 0 1.9.2 2.7.7.8.5 1.4 1.1 1.8 1.9.4.8.6 1.7.6 2.6.2.3.1.5.1.8zM47.2 61c-.4.3-.7.8-.8 1.4h4.9c-.1-.4-.3-.8-.5-1-.2-.3-.5-.5-.8-.6-.3-.1-.7-.2-1.1-.2-.7-.1-1.3.1-1.7.4zm15.1-2.5V61h-1.2c-.8 0-1.3.2-1.6.5-.3.4-.5.9-.5 1.8v5.2h-2.7v-10H58l.5 1.2c.7-.9 1.6-1.3 2.9-1.3h.9zm3.2 9.9c-.6-.3-1.1-.7-1.5-1.3-.4-.5-.5-1.2-.5-1.9h2.6c0 .3.1.5.2.8.1.2.3.4.6.4.2.1.5.1.9.1.3 0 .5 0 .7-.1.2-.1.4-.2.5-.3.1-.2.2-.3.2-.5 0-.3-.2-.5-.5-.7-.3-.1-.8-.3-1.5-.4-.4-.1-.7-.1-1-.2l-.9-.3c-.4-.2-.7-.3-.9-.5-.2-.2-.4-.5-.6-.8-.2-.3-.2-.8-.2-1.2 0-.9.4-1.7 1.1-2.3.7-.6 1.7-.9 2.9-.9s2.2.3 2.9.9c.7.6 1.1 1.4 1.1 2.4H69c0-.8-.5-1.2-1.5-1.2-.4 0-.8.1-1 .3-.2.2-.4.4-.4.7 0 .1 0 .2.1.3s.1.2.2.3c.1.1.2.1.4.2s.4.1.5.1l.6.1c.2 0 .4.1.5.1.1 0 .3.1.5.1s.4.1.5.1c.1 0 .3.1.5.2s.4.2.5.2c.1.1.2.2.4.3.2.1.3.2.4.4.1.1.2.3.3.4.1.2.1.3.2.6v.7c0 1-.4 1.9-1.2 2.5-.8.6-1.8.9-3.1.9-.5-.1-1.3-.2-1.9-.5zm8.8-13.8H77v2.5h-2.7v-2.5zm0 3.9H77v10h-2.7v-10zm11.8 7.6v2.4h-1.9c-.7 0-1.4-.1-1.9-.4-.5-.3-1-.7-1.2-1.2-.3-.5-.4-1.2-.4-1.9v-4.3h-1.8v-.6l4-4.2h.5v2.6H86v2.2h-2.7v3.9c0 .5.1.9.4 1.1s.6.4 1.1.4h1.3zm11.8-1.8h-7.6c.1.7.4 1.2.8 1.6.4.4 1 .5 1.6.5.5 0 .9-.1 1.2-.3.4-.2.7-.5.9-.8h2.9c-.4 1.1-1 2-1.9 2.6-.9.6-1.9 1-3.1 1-1.5 0-2.7-.5-3.7-1.5s-1.5-2.3-1.5-3.8c0-.6.1-1.2.3-1.7.2-.5.4-1 .7-1.5.3-.4.7-.8 1.1-1.1.4-.3.9-.6 1.4-.7.5-.2 1.1-.3 1.7-.3 1 0 1.9.2 2.7.7.8.5 1.4 1.1 1.8 1.9.4.8.6 1.7.6 2.6.2.3.2.5.1.8zM91.3 61c-.4.3-.7.8-.8 1.4h4.9c-.1-.4-.3-.8-.5-1-.2-.3-.5-.5-.8-.6-.3-.1-.7-.2-1.1-.2-.8-.1-1.3.1-1.7.4zm2.3-3.6h-2l1-2.8h2.9l-1.9 2.8zm-79 23.2c0 2.1-.6 3.8-1.9 5.1-1.2 1.3-2.8 2-4.8 2-1.9 0-3.5-.6-4.8-1.9-1.3-1.3-1.9-2.9-1.9-4.8 0-2 .6-3.6 1.9-4.9 1.3-1.3 2.9-1.9 4.8-1.9 1.6 0 3 .5 4.3 1.4 1.2.9 2 2.1 2.3 3.6h-2.9c-.2-.5-.5-.9-.8-1.2-.3-.3-.8-.6-1.2-.8-.5-.2-1-.3-1.5-.3-1.2 0-2.1.4-2.8 1.2-.7.8-1.1 1.8-1.1 3 0 .8.2 1.5.5 2.1.3.6.8 1.1 1.4 1.5.6.3 1.3.5 2 .5.6 0 1.1-.1 1.6-.3.5-.2.9-.4 1.3-.8.4-.3.6-.7.8-1.2H7.6v-2.2h7zm8.3-3.3v2.6h-1.2c-.8 0-1.3.2-1.6.5-.3.4-.5.9-.5 1.8v5.2h-2.7v-10h1.7l.5 1.2c.7-.9 1.6-1.3 2.9-1.3h.9zm11.4 5.8h-7.6c.1.7.4 1.2.8 1.6.4.4 1 .5 1.6.5.5 0 .9-.1 1.2-.3.4-.2.7-.5.9-.8h2.9c-.4 1.1-1 2-1.9 2.6-.9.6-1.9 1-3.1 1-1.5 0-2.7-.5-3.7-1.5s-1.5-2.3-1.5-3.8c0-.6.1-1.2.3-1.7.2-.5.4-1 .7-1.5.3-.4.7-.8 1.1-1.1.4-.3.9-.6 1.4-.7.5-.2 1.1-.3 1.7-.3 1 0 1.9.2 2.7.7.8.5 1.4 1.1 1.8 1.9.4.8.6 1.7.6 2.6.1.3.1.5.1.8zm-6.7-3.2c-.4.3-.7.8-.8 1.4h4.9c-.1-.4-.3-.8-.5-1-.2-.3-.5-.5-.8-.6-.3-.1-.7-.2-1.1-.2-.8-.1-1.3 0-1.7.4zm17.5-1.7c.7.8 1 1.8 1 3.1v6.1h-2.7v-5.7c0-1.5-.6-2.3-1.7-2.3-.5 0-.9.1-1.2.3-.3.2-.6.5-.8.9-.2.4-.3.9-.3 1.4v5.3h-2.7v-10h1.9l.5 1.2.6-.6c.2-.2.5-.3.8-.5l.9-.3c.3-.1.6-.1 1-.1 1.1.1 2 .5 2.7 1.2zm5.8 8.8c-.8-.5-1.5-1.1-1.9-1.9-.5-.8-.7-1.7-.7-2.7 0-1.5.5-2.8 1.5-3.8s2.3-1.5 3.9-1.5 2.8.5 3.9 1.5c1 1 1.5 2.3 1.5 3.8s-.5 2.8-1.6 3.8c-1 1-2.3 1.5-3.9 1.5-.9 0-1.9-.3-2.7-.7zm4.7-2.7c.5-.5.7-1.2.7-2s-.2-1.5-.7-2c-.5-.5-1.1-.8-1.9-.8s-1.4.3-1.9.8-.7 1.2-.7 2c0 .4.1.8.2 1.1.1.3.3.6.5.9.2.2.5.4.8.6s.7.2 1.1.2c.8 0 1.4-.3 1.9-.8zm15.1-5.7c1 1 1.5 2.3 1.5 3.8s-.5 2.8-1.5 3.8-2.3 1.5-3.8 1.5c-1.2 0-2.3-.4-3.1-1.1l-.3.8h-2V73.7h2.7v4.2c.8-.5 1.7-.8 2.8-.8 1.4-.1 2.7.5 3.7 1.5zm-2.1 5.7c.5-.5.8-1.2.8-2 0-.5-.1-1-.3-1.4-.2-.4-.6-.8-1-1-.4-.2-.9-.4-1.4-.4s-1 .1-1.4.4c-.4.2-.8.6-1 1-.2.4-.4.9-.4 1.4 0 .8.3 1.4.8 2 .5.5 1.2.8 2 .8s1.4-.3 1.9-.8zm5.9-10.6h2.7v13.7h-2.7V73.7zm15.4 9.4h-7.6c.1.7.4 1.2.8 1.6.4.4 1 .5 1.6.5.5 0 .9-.1 1.2-.3.4-.2.7-.5.9-.8h2.9c-.4 1.1-1 2-1.9 2.6-.9.6-1.9 1-3.1 1-1.5 0-2.7-.5-3.7-1.5s-1.5-2.3-1.5-3.8c0-.6.1-1.2.3-1.7.2-.5.4-1 .7-1.5s.7-.8 1.1-1.1c.4-.3.9-.6 1.4-.7s1.1-.3 1.7-.3c1 0 1.9.2 2.7.7.8.5 1.4 1.1 1.8 1.9.4.8.6 1.7.6 2.6.1.3.1.5.1.8zm-6.7-3.2c-.4.3-.7.8-.8 1.4h4.9c-.1-.4-.3-.8-.5-1-.2-.3-.5-.5-.8-.6-.3-.1-.7-.2-1.1-.2-.8-.1-1.3 0-1.7.4zm21.3 5h-5.2l-.9 2.5h-3l5.1-13h2.7l5.3 13h-3.1l-.9-2.5zm-4.3-2.5h3.4l-1.7-4.7-1.7 4.7zm10.1-8.7h2.7v13.7h-2.7V73.7zm15 4.9c1 1 1.5 2.3 1.5 3.8s-.5 2.8-1.5 3.8-2.3 1.5-3.8 1.5c-1 0-2-.3-2.8-.8V91H116V77.3h1.8l.5.9c.9-.8 2-1.2 3.2-1.2 1.5 0 2.8.6 3.8 1.6zm-2.1 5.7c.5-.5.8-1.2.8-2 0-.5-.1-1-.4-1.4-.2-.4-.6-.8-1-1-.4-.2-.9-.4-1.4-.4-.5 0-1 .1-1.4.4-.4.2-.7.6-1 1-.2.4-.3.9-.3 1.4 0 .8.3 1.5.8 2s1.2.8 2 .8c.7 0 1.4-.3 1.9-.8zm15.6-1.2h-7.6c.1.7.4 1.2.8 1.6.4.4 1 .5 1.6.5.5 0 .9-.1 1.2-.3.4-.2.7-.5.9-.8h2.9c-.4 1.1-1 2-1.9 2.6-.9.6-1.9 1-3.1 1-1.5 0-2.7-.5-3.7-1.5s-1.5-2.3-1.5-3.8c0-.6.1-1.2.3-1.7.2-.5.4-1 .7-1.5.3-.4.7-.8 1.1-1.1.4-.3.9-.6 1.4-.7.5-.2 1.1-.3 1.7-.3 1 0 1.9.2 2.7.7.8.5 1.4 1.1 1.8 1.9.4.8.6 1.7.6 2.6.1.3.1.5.1.8zm-6.7-3.2c-.4.3-.7.8-.8 1.4h4.9c-.1-.4-.3-.8-.5-1-.2-.3-.5-.5-.8-.6-.3-.1-.7-.2-1.1-.2-.8-.1-1.3 0-1.7.4zm10.4 7.3c-.6-.3-1.1-.7-1.5-1.3-.4-.5-.5-1.2-.5-1.9h2.6c0 .3.1.5.2.8.1.2.3.4.6.4.2.1.5.1.9.1.3 0 .5 0 .7-.1.2-.1.4-.2.5-.3.1-.2.2-.3.2-.5 0-.3-.2-.5-.5-.7-.3-.1-.8-.3-1.5-.4-.4-.1-.7-.1-1-.2l-.9-.3c-.4-.2-.7-.3-.9-.5-.2-.2-.4-.5-.6-.8-.2-.3-.2-.8-.2-1.2 0-.9.4-1.7 1.1-2.3.7-.6 1.7-.9 2.9-.9s2.2.3 2.9.9c.7.6 1.1 1.4 1.1 2.4H146c0-.8-.5-1.2-1.5-1.2-.4 0-.8.1-1 .3-.2.2-.4.4-.4.7 0 .1 0 .2.1.3.1.1.1.2.2.3.1.1.2.1.4.2s.4.1.5.1l.6.1c.2 0 .4.1.5.1.1 0 .3.1.5.1s.4.1.5.1c.1 0 .3.1.5.2s.4.2.5.2c.1.1.2.2.4.3.2.1.3.2.4.4.1.1.2.3.3.4.1.2.1.3.2.6v.7c0 1-.4 1.9-1.2 2.5-.8.6-1.8.9-3.1.9-.5 0-1.3-.2-1.9-.5z" class="st0"/><path d="M24.92362 106.5118c-.7439.93578-1.74758 1.4022-3.01399 1.4022-1.2664 0-2.27599-.46642-3.0317-1.4022-.75276-.93284-1.13062-2.26124-1.13062-3.9852 0-1.72102.37786-3.04942 1.13062-3.9852.75571-.93284 1.7653-1.4022 3.0317-1.4022 1.26641 0 2.27009.46936 3.014 1.4081.7439.93578 1.11585 2.26418 1.11585 3.9793 0 1.72396-.37195 3.05236-1.11586 3.9852zm1.9985 2.32617c1.54095-1.46124 2.31438-3.56307 2.31438-6.31138 0-2.80145-.77343-4.90622-2.31437-6.30842-1.15719-1.19261-2.82802-1.78596-5.0125-1.78596-2.18743 0-3.85826.59335-5.0125 1.78596-1.5498 1.4022-2.32617 3.50697-2.32617 6.30842 0 2.74831.77638 4.85014 2.32618 6.31138 1.15423 1.18965 2.82506 1.783 5.0125 1.783 2.18447 0 3.8553-.59335 5.01249-1.783zM21.90964 94.4322zm19.90534.46641l-2.76307 12.0294-2.78079-12.0294h-4.6494v15.29727h2.97857V99.84913c0-.29815-.00295-.71439-.00886-1.25165-.00885-.53431-.0118-.9476-.0118-1.23984l2.87524 12.83825h3.10256l2.8959-12.83825c0 .29225-.00294.70553-.00885 1.23984-.00885.53726-.0118.9535-.0118 1.25165v10.34676h2.97856V94.89862zM60.693 97.60856v-2.70994H49.47246v15.29727h11.5925v-2.74831h-8.46929v-3.93502h7.43314v-2.6568h-7.43314v-3.2472zm-5.53205-2.70994zm18.68026 4.77339h3.14388c-.17417-1.47305-.85018-2.70403-2.02803-3.69-1.1808-.98302-2.7424-1.476-4.68777-1.476-2.24057 0-4.0413.74685-5.40512 2.24057-1.36382 1.4937-2.04573 3.4804-2.04573 5.95713 0 2.45016.676 4.37782 2.02507 5.79183 1.29298 1.4022 2.95495 2.10477 4.98002 2.10477 1.23099 0 2.2701-.25977 3.11436-.77637.49004-.29816 1.04501-.8118 1.65903-1.538l.32177 1.90995h2.11953v-8.20951h-6.37337v2.55348h3.53945c-.1594 1.00368-.58154 1.81548-1.2664 2.4354-.68487.61696-1.56457.92692-2.63614.92692-1.09224 0-2.06935-.38966-2.92543-1.17194-.85904-.78228-1.28708-2.11363-1.28708-3.997 0-1.86567.39557-3.26492 1.1867-4.19775.7941-.92988 1.80368-1.3963 3.03762-1.3963.64058 0 1.22803.11513 1.75348.34539.93874.41328 1.5321 1.14242 1.77416 2.18743zm-3.58078-5.166zm14.0102 9.90986l1.97193-6.01913 1.90994 6.01913zm.19778-9.51725l-5.45825 15.29727h3.34166l1.05682-3.14388h5.63537l.98596 3.14388h3.46565L88.0787 94.89862zm1.78596 0zm11.96445 15.29727V94.89862h-2.9579v15.29727zm10.08108-7.9704c.39852.6701.59926 1.44353.59926 2.31437 0 1.05976-.21845 1.90699-.64944 2.54167-.43395.63763-1.05977.95645-1.88338.95645-.56678 0-1.05977-.15646-1.47305-.46642-.69962-.53431-1.0509-1.45829-1.0509-2.77193 0-.82951.10626-1.51437.3129-2.05459.40148-1.01844 1.13948-1.52618 2.21105-1.52618.8915 0 1.538.33652 1.93356 1.00663zm2.27304-2.1284c-.91512-.97415-2.03393-1.46123-3.35642-1.46123-.90627 0-1.68855.25092-2.34389.7557-.36014.2834-.69962.67306-1.01844 1.1631v-1.67084h-2.83392v15.76368h2.92838v-5.89514c.30996.47822.62878.84132.9535 1.09224.5963.4487 1.34316.67306 2.24057.67306 1.414 0 2.56529-.5225 3.4627-1.56752.89445-1.045 1.34315-2.56233 1.34315-4.55493 0-1.88928-.45756-3.321-1.37563-4.29811zm6.38223 1.56752c.37785-.42804.90921-.64354 1.59408-.64354.62877 0 1.15718.20369 1.58227.60811.42509.40443.6642.99778.71143 1.78006h-4.59626c.09446-.73505.33357-1.31364.70848-1.74463zm4.13575-2.55348c-.75276-.35129-1.59999-.52841-2.54167-.52841-1.58523 0-2.8723.5225-3.86417 1.56751-.99483 1.04501-1.49076 2.54758-1.49076 4.50475 0 2.09002.54907 3.5985 1.65017 4.52542 1.1011.92693 2.37045 1.3904 3.80808 1.3904 1.74463 0 3.0996-.55203 4.06785-1.65018.62287-.69372.97416-1.37563 1.04796-2.04573h-3.0199c-.15645.33357-.34243.59335-.54907.77933-.3808.34538-.87379.51955-1.48485.51955-.57269 0-1.06567-.1417-1.47305-.42804-.6701-.45461-1.0273-1.25165-1.06862-2.38522h7.7431c.0118-.97711-.01772-1.72397-.09447-2.24352-.12989-.8856-.41919-1.66197-.86199-2.33503-.49003-.75866-1.1129-1.3166-1.86861-1.67083zm-2.33503-.52841zm9.45525 8.00287h-2.99923c0 1.16014.42509 2.11659 1.27231 2.86935.84723.7498 2.16087 1.1247 3.93797 1.1247 1.74463 0 3.0317-.35423 3.86712-1.06271.83246-.70848 1.2487-1.6236 1.2487-2.74536 0-.85018-.2893-1.56161-.87084-2.1284-.58745-.56087-1.4701-.9771-2.64795-1.2546-1.76234-.3867-2.78964-.66124-3.08189-.82065-.2893-.15055-.43394-.39852-.43394-.73505 0-.27158.1358-.50774.40738-.70848.27453-.19778.7321-.29815 1.37563-.29815.78228 0 1.33725.19778 1.66197.59926.17122.2214.28044.5225.32177.9033h2.9579c-.13283-1.38153-.64353-2.35569-1.53208-2.91952-.88855-.56383-2.03983-.84722-3.45089-.84722-1.4878 0-2.63909.3749-3.45974 1.12766-.82066.7498-1.23099 1.64722-1.23099 2.69222 0 .8856.26273 1.56456.78819 2.03393.52545.47823 1.42876.8738 2.70993 1.19261 1.7771.42214 2.8044.72029 3.08189.89446.27749.17121.41623.42508.41623.7557 0 .3454-.17121.60517-.51365.77934-.34243.17121-.8059.25977-1.38744.25977-.98892 0-1.66788-.19778-2.03392-.59335-.20664-.2214-.34244-.59335-.40443-1.1188zm2.26419-8.00287z"/></svg>