<svg xmlns="http://www.w3.org/2000/svg" role="img" viewBox="-0.77 -0.77 39.91 10.10"><title>onsset logo</title><g transform="translate(-.621 8.426)"><path d="M6.6621-3.26953q0 1.5996-.8203 2.52539-.82032.92578-2.19727.92578-1.38867 0-2.20898-.92578-.81446-.92578-.81446-2.5254 0-1.5996.81446-2.52538.8203-.93164 2.20898-.93164 1.37695 0 2.19727.93164.8203.92578.8203 2.52539zm-1.1367 0q0-1.27149-.49806-1.88672-.49804-.6211-1.3828-.6211-.8965 0-1.39454.6211-.49219.61523-.49219 1.88672 0 1.23047.49805 1.86914.49805.63281 1.38867.63281.8789 0 1.37695-.62695.50391-.63281.50391-1.875z"/><path d="M13.83984 0h-1.10156v-3.72656q0-.45117-.05273-.84375-.05273-.39844-.19336-.6211-.14648-.24609-.42187-.36328-.2754-.12304-.71485-.12304-.45117 0-.94336.22265-.49218.22266-.94336.56836V0H8.3672v-6.54492h1.10156v.72656q.51563-.42773 1.0664-.66797.55079-.24023 1.13087-.24023 1.06054 0 1.61718.63867t.55664 1.83984z"/><path d="M20.63672-1.88672q0 .89649-.74414 1.4707-.73828.57422-2.02149.57422-.72656 0-1.33593-.16992-.60352-.17578-1.01368-.38086V-1.6289h.0586q.52148.39258 1.16015.62696.63867.22851 1.22461.22851.72656 0 1.13672-.23437.41015-.23438.41015-.73828 0-.38672-.22265-.58594-.22266-.19922-.85547-.33984-.23438-.05274-.61523-.12305-.375-.07031-.68555-.15235-.86133-.22851-1.22461-.66796-.35742-.44532-.35742-1.08985 0-.4043.16406-.76172.16992-.35742.50977-.63867.32812-.27539.83203-.4336.50976-.16405 1.13672-.16405.58593 0 1.18359.14648.60351.14062 1.00195.3457v1.17774h-.05859q-.42187-.31055-1.02539-.52149-.60351-.2168-1.1836-.2168-.6035 0-1.01952.23438-.41602.22852-.41602.68555 0 .4043.25195.60937.2461.20508.79688.33399.30469.0703.67969.14062.38086.07031.6328.1289.76759.17579 1.1836.60352.41602.4336.41602 1.14844z"/><path d="M26.88867-1.88672q0 .89649-.74414 1.4707-.73828.57422-2.02148.57422-.72657 0-1.33594-.16992-.60352-.17578-1.01367-.38086V-1.6289h.05859q.52148.39258 1.16015.62696.63867.22851 1.22461.22851.72656 0 1.13672-.23437.41016-.23438.41016-.73828 0-.38672-.22266-.58594t-.85547-.33984q-.23437-.05274-.61523-.12305-.375-.07031-.68555-.15235-.86133-.22851-1.2246-.66796-.35743-.44532-.35743-1.08985 0-.4043.16406-.76172.16993-.35742.50977-.63867.32812-.27539.83203-.4336.50977-.16405 1.13672-.16405.58594 0 1.1836.14648.6035.14062 1.00195.3457v1.17774h-.0586q-.42187-.31055-1.02539-.52149-.60351-.2168-1.18359-.2168-.60352 0-1.01953.23438-.41602.22852-.41602.68555 0 .4043.25196.60937.24609.20508.79687.33399.30469.0703.67969.14062.38086.07031.63281.1289.76758.17579 1.1836.60352.41601.4336.41601 1.14844z"/><path d="M33.94336-3.1582h-4.82227q0 .60351.18164 1.05468.18165.44532.49805.73243.30469.28125.7207.42187.42188.14063.92579.14063.66796 0 1.3418-.26368.67968-.26953.96679-.52734h.05859v1.20117q-.55664.23438-1.13672.39258-.58008.1582-1.21875.1582-1.6289 0-2.54297-.8789-.91406-.88477-.91406-2.50782 0-1.60546.87305-2.54882.8789-.94336 2.30859-.94336 1.32422 0 2.03906.77344.7207.77343.7207 2.19726zm-1.07227-.84375q-.00586-.8672-.43945-1.3418-.42773-.4746-1.30664-.4746-.88477 0-1.4121.52147-.5215.52149-.5918 1.29493z"/><path d="M39.01172-.0586q-.31055.08204-.67969.13477-.36328.05274-.65039.05274-1.00195 0-1.52344-.53907-.52148-.53906-.52148-1.72851v-3.48047h-.74414v-.92578h.74414v-1.88086h1.10156v1.88086h2.27344v.92578h-2.27344v2.98242q0 .51563.02344.8086.02344.2871.16406.53906.1289.23437.35157.3457.22851.10547.6914.10547.26953 0 .5625-.07617.29297-.08203.42188-.13477h.05859z"/></g></svg>