<svg xmlns="http://www.w3.org/2000/svg" role="img" viewBox="63.65 8.15 694.20 470.70"><title>openENTRANCE logo</title><path fill="#ceced0" d="M281.47834 464.80415c-.28066-.73139-.3906-14.14903-.24432-29.81698L281.5 406.5l2.44397-.34497c1.48489-.20959 2.94423.33917 3.71875 1.39838.92413 1.26383 1.62719 1.45589 2.55602.69825.70469-.57481 3.13606-1.59553 5.40303-2.26826l4.12178-1.22314 3.70562 1.22296c2.29011.75581 4.43861 2.42506 5.62449 4.36987l1.91886 3.14691.004 12.81574c.004 13.25534-.59743 15.86155-4.3633 18.91202-2.72924 2.21077-12.41464 2.40461-15.19183.30404-1.06762-.8075-2.26341-1.4825-2.6573-1.5-.39389-.0175-.84389 4.8057-1 10.7182L287.5 465.5l-2.75569.31697c-1.61983.18632-2.96601-.23115-3.26597-1.01282zm20.96496-26.02666C303.60167 437.12369 304 433.98208 304 426.5c0-11.77962-1.1845-14.50226-6.3067-14.49626-1.75632.002-4.6558.89544-6.4433 1.9853L288 415.9706v9.82357c0 6.35656.44116 10.37654 1.25 11.39038 3.42231 4.28967 10.68983 5.16715 13.1933 1.59294zm-54.76252 4.83663C243.92229 439.85562 242 433.97605 242 426.23868c0-6.50488 2.43629-14.37861 5.23193-16.90887 7.62048-6.89708 20.34655-4.93113 24.88978 3.84503l2.23905 4.32516.0696 8.53152C274.55475 441.27224 269.97519 447 257.6653 447h-6.59863zm16.02753-4.12236c4.30435-3.01489 5.25815-16.68714 1.65525-23.72727-2.39434-4.67861-10.29362-5.12564-13.50891-.76449-3.76393 5.10529-3.61036 18.49826.26865 23.42962L254.14516 441h3.70491c2.03771 0 4.67391-.67871 5.85824-1.50824zm61.12358 5.7997c-6.59105-4.08914-9.64142-17.55508-6.45758-28.50711 1.98454-6.82657 5.77861-10.38482 12.08076-11.32988l4.44557-.66666 3.73514 1.8561c5.82331 2.89375 7.58341 6.09113 8.14168 14.79005L347.26301 429h-11.07249c-6.08987 0-11.28266.34006-11.53953.7557-.95868 1.55117.6535 6.28081 3.00628 8.8195l2.43386 2.62618 3.70444-.4658c2.03744-.25618 5.18718-1.08279 6.99942-1.83691l3.29499-1.37111.9397 1.48622c1.74195 2.75506.98841 4.60717-2.56361 6.30101-4.60334 2.19518-14.0785 2.18265-17.63418-.0233zM340 420.43426c0-2.78549-1.64568-6.49775-3.3997-7.66895-1.98948-1.32841-7.42515-.7976-9.11262.88987C325.68813 415.45472 324 419.28335 324 421.5651V423h16zm14 6.1291V406h2.89301c1.59306 0 3.14086.64588 3.44459 1.43738l.55157 1.43738 5.0824-2.14725 5.0824-2.14725 4.13242 1.45987c2.27284.80293 5.0732 2.72907 6.22302 4.28031l2.09059 2.82044V446.5l-3.18039.30817-3.18038.30816-.31962-16.14083-.31961-16.14084-2-1.4935c-2.50065-1.86735-8.89365-1.19987-11.55228 1.20615l-1.89705 1.71681-.27534 15.11794L360.5 446.5l-3.25.31336-3.25.31336zm112.6967 19.80001c-.38318-.38319-.6967-13.88813-.6967-30.01098V387.0381l2.25-.56139c1.2375-.30877 6.75-.42985 12.25-.26906l10 .29235v6l-8.75.28893-8.75.28894V413h14.78602l.57561 1.5c.31658.825.31658 2.175 0 3l-.57561 1.5H473v21l7.75.0153c8.82178.0174 10.56434.7253 10.08749 4.09778L490.5 446.5l-11.5533.28003c-6.35431.15402-11.86681-.0335-12.25-.41666zm31.78164-.55922c-.28066-.73139-.3906-14.10022-.24432-29.70851l.26598-28.3787 1.75-1.10336c3.87074-2.44045 4.65563-1.03764 16.42303 29.35235L521.5 428.43186l.5-20.96593.5-20.96593h5v60h-5.66103l-4.74603-12c-9.50438-24.03117-11.09695-28.19602-11.31285-29.5851-.12094-.7782-.45844 8.2601-.75 20.0851L504.5 446.5l-2.75569.31697c-1.61983.18632-2.96601-.23115-3.26597-1.01282zm46.58892-.67848C544.39252 443.86491 544 433.93295 544 418.12053v-25.01095l-4.75-.30479-4.75-.30479v-6l12.99026-.28167 12.99026-.28167 1.22099 1.66981c2.19283 2.99888-.12494 5.39353-5.22036 5.39353h-4.44848l-.26634 26.75L551.5 446.5l-2.68274.30993c-1.86608.21559-3.00763-.29713-3.75-1.68426zm23.41133.67913c-.28052-.73103-.39047-14.37367-.24432-30.31697L568.5 386.5l6.5-.31501c9.74191-.47213 14.67453.5524 18.31345 3.80377l3.18655 2.84718v22.32812l-3.31171 2.95901-3.31171 2.95901 4.42729 11.70896c2.43501 6.43993 4.21464 12.27146 3.95472 12.95896-.63303 1.67443-4.72883 1.59325-6.15231-.12194-.62624-.75457-2.32336-4.69207-3.77139-8.75-1.44802-4.05793-3.19628-8.95306-3.88501-10.87806l-1.25225-3.5-4.06758-.30597-4.06759-.30597-.28123 12.30597L574.5 446.5l-2.75569.31697c-1.61926.18626-2.96602-.23116-3.26572-1.01217zm19.96471-33.02731c1.03719-1.4808 1.5567-4.4843 1.5567-9V397l-2-2-2-2h-11v22h11.88659zm14.91788 32.72135c-.31683-.82564.1473-4.65064 1.03139-8.5 1.60937-7.00728 3.01714-13.52702 6.1536-28.49884 3.94767-18.84413 4.89992-21.97951 6.78292-22.33338 3.91087-.73495 6.38783.7094 6.97807 4.06901.31542 1.7954 1.46713 7.31437 2.55934 12.26437 6.96491 31.56555 9.16104 42.64643 8.62426 43.51495-.33484.54178-1.6914.98505-3.01459.98505-2.49826 0-4.47198-2.50329-4.48175-5.68426-.003-.99866-.47422-3.50324-1.047-5.56574l-1.04143-3.75H612.25562l-.6571 4.25c-.3614 2.3375-1.12882 5.7125-1.70536 7.5L608.8449 447h-2.45384c-1.3496 0-2.71305-.67552-3.02988-1.50116zm20.79907-19.99242c.27147-.27147-.62386-6.12614-1.98963-13.01038-1.36576-6.88424-2.73697-12.26303-3.04713-11.95287-.5559.55591-5.01528 21.77728-5.08673 24.20683-.0358 1.21654 8.98904 1.89086 10.12349.75642zm18.34398 19.30664c-.31104-1.27218-.43924-14.63926-.28488-29.70462l.28065-27.39157 1.75-1.10332c1.25692-.79245 2.24308-.79923 3.5-.024 1.58843.97963 6.68828 12.67671 14.75 33.83085l3 7.87206.5-20.88366.5-20.88365 1.79804-.34513c.98892-.18981 2.45142.19714 3.25.8599L673 388.24489v56.51022l-1.44496 1.19921c-.79472.65956-2.42891 1.05216-3.63151.87244l-2.18656-.32676-2.91397-7.5c-1.60268-4.125-5.256-13.575-8.11849-21L649.5 404.5l-.5 21-.5 21-2.71512.31306-2.71512.31305zM685.4 443.6l-3.4-3.4.0147-22.85c.0104-16.14672.37778-23.56734 1.25224-25.29526 1.95834-3.8696 7.12055-6.32331 13.18854-6.26878 10.1686.0914 14.54448 4.90298 14.54448 15.99272 0 6.47538-1.46603 8.84296-4.81707 7.77938l-1.91305-.60718-.53675-6.68672-.53674-6.68672-2.20898-1.78872c-2.92332-2.36719-7.50584-2.27025-9.98737.21128l-2 2v41l2 2c2.39869 2.39869 8.18606 2.67109 10.36909.48805 1.42769-1.42769 2.29944-5.51427 2.87728-13.48805l.25363-3.5h6l.31817 6.5c.40632 8.30063-1.09671 13.35009-4.74763 15.94977L703.19126 447H688.8zm35.06513 2.16973c-.27312-.71174-.37701-14.3386-.23086-30.2819L720.5 386.5l11.10153-.28136 11.10152-.28136 1.2311 1.48337c.6771.81586.93858 2.40497.58108 3.53136L743.86522 393H727v19.91238l7.25.29381 7.25.29381.31642 2.75.31642 2.75H727v21l7.75.0153c8.82178.0174 10.56434.7253 10.08749 4.09778L744.5 446.5l-11.76914.2819-11.76915.2819zm-302.03587-2.66254c-2.23891-1.01689-5.51251-3.59451-7.27468-5.72804-6.13888-7.43262-6.47776-15.5752-1.04351-25.07328 5.79818-10.13415 5.72709-12.50274-1.05388-35.11516-7.10412-23.69004-10.67405-30.66173-16.92467-33.05214-1.44789-.55371-6.56602-1.53232-11.37362-2.17468-11.93456-1.59463-20.9896-6.0094-29.23244-14.25224C341.76723 317.95242 337 306.49859 337 292.81014c0-8.90158-2.18115-14.26814-7.04767-17.34023-2.07381-1.30914-12.47395-5.826-23.11144-10.03746-43.64833-17.28073-45.06713-17.45786-57.19286-7.14039-2.45116 2.08563-7.08722 4.72075-10.30235 5.85582L233.5 266.21164l-7.5973-.43161-7.59729-.43161-6.93165-3.52145c-11.14438-5.66163-13.77743-5.65518-28.16078.069-2.90786 1.15724-5.61224 2.10407-6.00974 2.10407-.3975 0 2.15816-3.0375 5.67923-6.75 8.55304-9.01804 10.02403-12.55295 10.36256-24.90205l.27207-9.92474 3.28345-6.66963c8.01555-16.28189 25.89802-23.30408 43.57518-17.11134 5.41901 1.89841 10.30829 1.69292 15.05855-.6329 3.83818-1.87925 6.42156-3.99495 16.15592-13.23119l4.09019-3.8809 2.65981 1.21189c1.46289.66654 2.6598 1.49016 2.6598 1.83026 0 .34011-2.95925 3.53038-6.57611 7.08949-14.24619 14.01873-15.48426 17.09181-12.87801 31.96529 2.01555 11.50249 3.91723 16.37627 7.59838 19.47376 2.63024 2.2132 39.39528 17.2502 52.35574 21.41365 14.84847 4.76995 19.54009 3.87642 29.87431-5.68966 8.33043-7.71123 15.66478-11.74689 24.15142-13.2891 10.62402-1.93062 13.75793-3.03264 16.54229-5.81701 3.23615-3.23614 7.20332-15.0006 8.98648-26.64896l1.22423-7.99718-1.69371-2.96984c-.93155-1.63345-2.78686-4.76988-4.12292-6.96988-1.33606-2.2-2.45546-5.125-2.48757-6.5-.15841-6.78547-6.4734-12.6667-26.08607-24.29427-17.98981-10.66545-22.962-12.27034-29.57336-9.5455-1.54831.63813-7.83487 1.4339-13.97013 1.76838l-11.15504.60814-5.34496 3.7143c-2.93974 2.04286-7.03497 5.32778-9.10052 7.29983l-3.75555 3.58555-2.51614-1.9792-2.51614-1.97919 6.49997-6.59667c8.78027-8.91091 9.94002-11.3537 9.77125-20.58137-.0754-4.125.28132-9.075.79282-11 1.44179-5.42616 6.65802-10.96928 12.91529-13.72463 3.06023-1.34756 6.40019-3.19829 7.42214-4.11274 4.16112-3.72342 10.29605-19.56027 11.30066-29.1718l.61362-5.8708-2.63619-5.04161C334.82373 67.61216 334 64.49269 334 61.09513v-4.94168l2.61912-3.11264c8.41815-10.00441 22.82186-7.17992 26.56459 5.20919l1.13287 3.75-1.17065 3.90726c-1.19925 4.00274-5.30916 8.21623-11.04438 11.32273-3.62707 1.96462-6.89726 8.4495-10.11332 20.05503-2.73639 9.87462-2.58507 16.19246.50814 21.21498 4.51308 7.32799 6.45928 11.96635 6.50363 15.5.0715 5.69717 3.34558 11.50462 8.67113 15.38053 7.40804 5.39154 32.37711 20.22194 36.47125 21.66214l3.64238 1.28127 6.16303-1.72925c7.38041-2.07084 10.73168-1.54394 17.53139 2.75636l4.97918 3.14895 4.52082-.10215c3.95454-.0894 10.30443-1.6241 37.52082-9.06864 3.3-.90266 8.73279-2.90594 12.07286-4.45174l6.07286-2.81055 2.81938-5.28346c1.55065-2.9059 3.76786-6.33975 4.92713-7.63078C497.15798 144.07261 503.24147 141 506.57401 141c4.58522 0 9.82891-3.82698 14.15092-10.32772 5.29373-7.96229 36.71279-63.30883 40.43803-71.23399l2.84933-6.0617-2.16274-7.19394-2.16274-7.19393 1.25668-4.19445c1.60541-5.35837 6.49473-10.24607 11.85642-11.85247L577 21.68342l4.20009 1.25838c8.28735 2.48295 13.7536 11.3663 12.19782 19.82302-.96628 5.25234-7.66725 11.84682-12.93017 12.72467-7.17345 1.19651-9.49512 2.65871-13.34992 8.40784-5.27707 7.87032-37.88964 65.33785-40.7522 71.81061-2.65874 6.01189-3.00601 12.54785-.86562 16.29206 2.13209 3.72971 1.86894 12.3565-.51975 17.03872-2.74542 5.38147-8.74255 9.19409-15.31995 9.73954-5.49419.45562-8.61026-.57571-16.1603-5.34861l-4-2.52868-6.5.44483c-7.02447.48071-24.81705 4.91974-39.95297 9.96777-10.02805 3.34449-14.80509 6.86592-18.26748 13.46598-.94625 1.80375-3.18962 4.05375-4.98528 5-1.79565.94625-4.88631 3.29545-6.86813 5.22045l-3.60331 3.5-2.27146 8.47594c-1.24931 4.66177-2.47753 11.86177-2.72938 16l-.45791 7.52406 1.81796 3.45875c.99988 1.90232 4.29296 5.14353 7.31796 7.20269 18.09446 12.31717 26.55323 33.33525 21.4081 53.19422-2.83207 10.93112-6.24791 16.49979-16.09627 26.24091-5.19809 5.14149-9.494 10.28108-9.88047 11.82091-1.06401 4.23932.16615 10.5403 5.602 28.69392 7.90823 26.41046 8.97662 28.3267 18.24161 32.71779 6.96307 3.30011 10.80116 6.48355 13.04257 10.81797 4.22549 8.1712 2.82894 17.09131-3.74421 23.9152-6.18508 6.42101-15.14106 8.17971-23.14407 4.54483zM96 334.07439c-13.1753-2.69848-21.1866-15.79111-17.94099-29.32038l1.2446-5.18805 5.17178-5.17178 5.17178-5.17179 5.8203-1.30252 5.8203-1.30253 8.60612 2.21744c4.73336 1.2196 9.76479 2.20569 11.18096 2.19133 3.16554-.0321 14.93835-3.97187 20.79123-6.95779 2.38025-1.21431 4.51457-2.02101 4.74292-1.79265.22835.22835-3.83331 4.09855-9.02592 8.60044l-9.4411 8.18525-1.50418 4.21932c-.82731 2.32063-1.78409 6.65219-2.12618 9.6257-.70548 6.13207-2.5522 10.31317-6.37578 14.4352-5.14389 5.5454-14.31451 8.33473-22.13584 6.73281zm267-110.99824c-24.51724-5.69588-35.62825-11.35563-86.5-44.06161-40.00729-25.72111-58.90573-32.24006-94-32.42497-9.35-.0493-20.2625.25107-24.25.66741l-7.25.75698v-30.82731l9.5657-.71717c16.82659-1.26154 38.47778 1.47445 54.66266 6.90753 22.04051 7.39876 45.04167 22.00481 85.27164 54.14865 12.1 9.66793 26.99182 20.93272 33.09294 25.03287 16.47439 11.07132 35.02683 18.49171 50.19739 20.07734 3.41532.35698 6.20967 1.03494 6.20967 1.50659 0 1.50323-19.20426.7448-27-1.06631zm101.94458-4.96097C463.67251 215.85183 462.33787 214 461.97873 214c-.61093 0-5.33174.71166-29.73057 4.48188-16.07457 2.48392-15.23644 1.84801 7.25184-5.50212 8.8-2.87622 16.35218-5.43393 16.78262-5.6838.43045-.24988-.18338-2.01736-1.36406-3.92774-1.18068-1.91038-1.98286-3.62044-1.78263-3.80013.53745-.48232 33.25936 1.49387 33.80722 2.04172.25708.25709-4.06703 5.00188-9.60914 10.54399l-10.07657 10.07656z"/><path fill="#dfe99f" d="M282 435.96862v-29.03139l1.53725-.5899c.84548-.32444 2.37956.1724 3.40907 1.10409l1.87183 1.69398 3.04126-1.5727c3.89642-2.01491 11.05542-2.02108 13.9238-.012C309.97005 410.49329 311 414.13027 311 425.98246c0 12.07591-1.20676 16.6481-5.11687 19.38685-2.90981 2.0381-8.83537 2.09531-13.53737.13069-1.97451-.825-3.76005-1.5-3.96788-1.5-.20784 0-.37788 4.725-.37788 10.5V465h-6zm20.75 3.23928c1.81923-2.31429 1.7105-23.19587-.13391-25.71825-1.82287-2.49292-7.98794-2.34811-11.50013.27012L288.5 415.70989l-.28643 10.27606-.28643 10.27606 1.7051 1.88411c3.42585 3.78553 10.52496 4.36014 13.11776 1.06178zM252 446.29629c-2.87268-1.04529-6.96199-5.65023-8.17984-9.21124-.67434-1.97178-1.21503-6.98961-1.20154-11.15075l.0245-7.5657 2.19598-4.53628c1.36766-2.82521 3.44335-5.20804 5.50291-6.31719l3.30694-1.7809 6.13804.44398c10.16179.73504 14.16906 6.48241 14.16906 20.32179 0 13.97678-4.99466 20.57467-15.45608 20.41731-2.75-.0414-5.675-.32082-6.5-.62102zm12.68592-7.8152c4.03389-4.50945 4.39492-18.21707.6132-23.28228-4.22766-5.66247-12.2789-4.8848-14.92213 1.44134-1.88628 4.5145-1.76711 15.73547.21139 19.90485 2.73179 5.75683 9.81013 6.72894 14.09754 1.93609zM326.5 446.05464c-6.77357-2.77237-10.80395-15.4566-8.47536-26.67331l1.21595-5.85721 3.76206-3.76206L326.76471 406h5.07059c10.07113 0 14.25708 4.5504 14.51199 15.77546L346.5 428.5l-11.25.28275-11.25.28275v2.01691c0 2.49366 2.32438 7.11199 4.47969 8.90074 2.12206 1.76115 7.70682 1.48888 11.68787-.5698l3.18747-1.6483 1.32248 1.8086c2.00853 2.74682 1.67783 3.36284-2.92751 5.45328-4.36736 1.98242-11.70866 2.47716-15.25 1.02771zm13.30007-26.13202c.4272-5.09289-2.406-8.32262-7.30082-8.32262h-3.75843l-2.37041 2.75576c-2.26312 2.63103-3.16473 7.51659-1.6641 9.01722.38847.38847 3.87597.57597 7.75.41667L339.5 423.5zm348.4125 25.57077c-2.13104-.92589-3.80191-2.65964-4.75-4.92874L682 437.06424v-41.26198l1.57727-3.32386c1.96286-4.13641 6.69426-6.47958 13.07386-6.47466 5.20052.004 10.47495 2.49481 12.23097 5.77597.95496 1.78436 1.51247 8.31559 1.24086 14.53671L710 409.13284l-2.75-.31642-2.75-.31642-.5-6.83151-.5-6.8315-1.94113-1.4185c-2.78436-2.03469-8.89945-1.80462-10.90388.41025L689 395.65748v42.19966l1.57143 1.57143c.94932.94932 3.3022 1.57143 5.94329 1.57143h4.37187l1.55671-2.22251c1.03123-1.47229 1.5567-4.47415 1.5567-8.89301v-6.6705l1.5-.57561c2.64619-1.01543 4.49539.46819 4.63492 3.71862.53034 12.354-.83695 16.60599-6.23132 19.37827-3.21894 1.65427-11.6251 1.5247-15.69103-.24187zm-333.98371-19.23041l.27114-19.73701 1.9339-.37173c1.06365-.20444 2.52471.43625 3.24679 1.42376l1.31289 1.79548 3.53714-1.68674c4.58246-2.18522 11.34964-2.1442 14.10224.0855 3.89875 3.1581 4.36704 5.5346 4.36704 22.16202V446h-6v-30.09091l-2.45455-2.45454c-1.35-1.35-2.91589-2.45455-3.47976-2.45455-2.42959 0-9.20549 3.3927-10.09486 5.05451-.53396.9977-.97083 8.14359-.97083 15.87975V446h-6.04228zm112.22352 18.47352c-.26667-.69492-.36504-13.85742-.21861-29.25L466.5 387.5l11.76914-.2819 11.76915-.2819.64333 1.67651C491.79051 391.50243 488.24985 393 480.30887 393H473v19.91238l7.25.29381 7.25.29381v5l-7.25.29381-7.25.29381V441h18v5h-12.03138c-8.77117 0-12.16277-.34238-12.51624-1.2635zm32.15461-.31829c-.93598-2.43911-.68786-54.74233.26683-56.24829.46908-.73993 2.06787-1.18362 3.6034-1l2.7602.33008 8.13129 20.95347L521.5 429.40694l.5-20.95347.5-20.95347 2.75-.31642 2.75-.31642v59.25956l-3.20937-.31336-3.20937-.31336-3.84097-10c-2.11253-5.5-5.73081-14.95-8.04063-21l-4.19966-11-.55134 21c-.30323 11.55-.64073 21.1125-.75 21.25-.77525.97559-5.10166-.0548-5.59167-1.33179zM545 419.5V393h-4.37756c-4.66104 0-7.2705-1.8688-6.2657-4.48727L534.93723 387H562v2.39301c0 2.77535-1.6328 3.60699-7.08179 3.60699H551v53h-6zm23.47808 25.30347c-.2808-.73175-.39074-13.92439-.24431-29.31697L568.5 387.5l9.7301-.28597 9.7301-.28597 3.09868 1.60239C595.1842 390.66373 597 395.39173 597 404c0 7.87253-1.77546 13.27428-4.91534 14.95469-1.14656.61362-2.08466 1.6635-2.08466 2.33307 0 .66956 1.8 5.94007 4 11.71224 2.2 5.77217 4 11.05851 4 11.74743 0 .71719-1.24693 1.25257-2.91729 1.25257h-2.91729l-1.59256-4.25c-.8759-2.3375-2.8888-7.85-4.47311-12.25l-2.88056-8-4.07836-.30597-4.07837-.30597-.28123 12.30597L574.5 445.5l-2.75569.31697c-1.62042.18639-2.96601-.23114-3.26623-1.0135zm17.18647-29.86603c3.92834-1.49355 4.30287-2.45724 4.32014-11.11601.01935-9.70192-.91754-10.82143-9.05612-10.82143H575v23h3.9349c2.1642 0 5.19254-.47815 6.72965-1.06256zm17.97564 30.28939c-.42457-.68697 10.59692-53.76099 11.8446-57.03767.32013-.84073 1.82996-1.19937 4.20994-1l3.71081.31084 6.14384 28.5c3.37912 15.675 5.96132 28.8375 5.73822 29.25-.2231.4125-1.68821.75-3.2558.75h-2.85017l-1.25097-7-1.25097-7h-14.52078l-.66163 3.25c-.36389 1.7875-1.09199 4.9375-1.618 7l-.95637 3.75h-2.40244c-1.32134 0-2.61747-.34793-2.88028-.77317zM625.00073 425.25c.002-2.2803-5.37203-27.21204-5.77823-26.80583-.26669.26668-1.71359 6.57584-3.21534 14.02035L613.27669 426h5.86166c3.22391 0 5.86198-.3375 5.86238-.75zM643 416.50306v-29.62978l3.14693.31336 3.14693.31336 8.10307 20.96636L665.5 429.43272l.5-20.96636.5-20.96636 2.75-.31642 2.75-.31642v59.25956l-3.14693-.31336-3.14693-.31336-8.10307-20.96636L649.5 403.56728l-.5 20.96636-.5 20.96636-2.75.31642-2.75.31642zm77.23485.27784L720.5 387.5l11.75-.28174 11.75-.28173v2.42475C744 392.47389 742.47003 393 733.41821 393H726v20l6.75.0153c7.54142.0171 9.61578.83989 9.08755 3.60452l-.35924 1.88017-7.77255.29267-7.77256.29266.2834 10.70734.2834 10.70733 9 .5 9 .5v4l-12.26515.2809-12.26516.2809.26516-29.2809zM419.5 443.50952c-2.23066-.78223-5.65627-3.24974-7.74438-5.57838-6.71964-7.49367-7.25405-15.82088-1.64455-25.62527 5.86066-10.24337 5.81071-12.54756-.74378-34.30587-6.54927-21.74095-9.11633-27.7696-13.33676-31.32085-3.61654-3.04313-4.12035-3.19829-15.27163-4.7034-11.98726-1.61794-21.03597-6.04148-29.12082-14.23597C341.66019 317.62659 337 306.50635 337 292.81014c0-9.00754-2.17059-14.26147-7.20489-17.43948-3.84539-2.42749-34.44427-14.83114-50.29511-20.38777-15.25392-5.34737-19.86143-5.16128-27.08896 1.09411-2.53582 2.19473-6.92818 5.21059-9.76081 6.70191L237.5 265.49039l-9.5.005-9.5.005-7.02894-3.59724c-11.22669-5.74554-13.83653-5.74617-28.25808-.007-2.90786 1.15724-5.53118 2.10407-5.82959 2.10407-.29842 0 2.24073-3.0375 5.64255-6.75 8.43227-9.20237 9.87933-12.715 10.24282-24.86365l.2958-9.88635 2.6379-5.6965c2.99397-6.46542 9.74375-13.71509 15.5067-16.65512 8.38953-4.28002 20.31589-4.77304 29.60594-1.22386 7.95825 3.04037 14.64272.38699 26.4567-10.5019l8.27179-7.62408 2.5766 1.68825 2.57659 1.68825-8.95155 9.16248c-9.72709 9.95629-10.6432 11.28608-11.66179 16.92781-.63054 3.49241 1.07915 15.70876 3.48366 24.89193 1.61446 6.16585 6.07918 8.95403 28.5847 17.85088 43.46521 17.1826 45.56255 17.36775 58.71964 5.18379 8.10175-7.50252 16.03764-11.83521 24.45707-13.35261 10.26592-1.85018 13.47213-2.98611 16.23951-5.7535 3.23615-3.23614 7.20332-15.0006 8.98648-26.64896l1.22423-7.99718-1.69371-2.96984c-.93155-1.63363-2.78686-4.77006-4.12292-6.97006-1.33606-2.2-2.45546-5.125-2.48757-6.5-.15841-6.78547-6.4734-12.6667-26.08607-24.29427C349.22131 152.63871 345.45603 151.51654 337 154.5c-2.50928.88532-7.7586 1.5-12.81 1.5h-8.55855l-4.06573 1.99723c-2.23614 1.09848-6.96231 4.46712-10.50259 7.48588l-6.43687 5.48863-1.81313-1.64086c-.99722-.90247-1.81313-2.02111-1.81313-2.48587 0-.46475 2.67607-3.52108 5.94682-6.79183 8.35131-8.35131 9.40915-10.74624 9.52002-21.55318l.0923-9 2.12309-4c2.8201-5.3132 5.70385-7.8373 12.31773-10.78152 6.93715-3.08814 9.05786-5.49375 12.53455-14.21848 6.00027-15.05766 6.72478-22.65026 2.85502-29.91959l-2.61042-4.90367.44333-5.34606C335.77804 41.57268 363.5 43.2512 363.5 62.1034c0 5.45346-2.30005 9.26779-7.4752 12.3966-6.34462 3.83586-8.616 6.8712-11.97302 16-2.29241 6.2338-3.4385 11.30516-3.72889 16.5l-.41925 7.5 2.5281 4c4.47224 7.07604 6.52328 11.91616 6.56826 15.5.0648 5.16695 3.21225 11.2159 7.61596 14.637 5.01405 3.89526 25.77619 16.68952 33.16271 20.43588 6.64507 3.37029 7.22204 3.4248 14.92254 1.40958 6.9857-1.82814 10.22793-1.27381 16.77797 2.86859l4.97918 3.14895 4.52082-.10861c2.48645-.0597 10.59582-1.7449 18.02082-3.7448 34.11006-9.18745 36.3761-10.19357 40.53932-17.99951 1.50983-2.83089 3.69364-6.20337 4.85291-7.4944C497.15798 144.07261 503.24147 141 506.57401 141c4.70131 0 10.19636-4.00275 14.32724-10.43637 5.94219-9.25464 36.86098-63.83097 40.18055-70.92475l2.93049-6.2623-2.16274-7.19393-2.16274-7.19393 1.25668-4.19445c2.62447-8.7597 11.72441-14.03787 20.24611-11.74322 8.18516 2.20404 13.76006 11.1977 12.21998 19.71377-.9186 5.07953-7.93147 11.89786-13.12261 12.75858-6.97408 1.15634-9.33732 2.65906-13.16915 8.37393-5.27707 7.87032-37.88964 65.33785-40.7522 71.81061-2.65874 6.01189-3.00601 12.54785-.86562 16.29206 2.13209 3.72971 1.86894 12.3565-.51975 17.03872-2.74542 5.38147-8.74255 9.19409-15.31995 9.73954-5.49419.45562-8.61026-.57571-16.1603-5.34861l-4-2.52868-6.5.44064c-5.74753.38962-15.35451 2.64523-35.5 8.335-12.982 3.66655-18.39578 7.29479-22.72045 15.22692-.94625 1.73556-3.18962 3.92977-4.98528 4.87602-1.79565.94625-4.88631 3.29545-6.86813 5.22045l-3.60331 3.5-2.28297 8.5c-1.25564 4.675-2.48415 12.1-2.73002 16.5l-.44703 8 1.98943 3.144c1.09419 1.7292 4.50813 4.81581 7.58652 6.85913 17.42406 11.56544 26.0399 33.28136 20.96934 52.85253-2.80292 10.81861-6.2595 16.52908-15.52267 25.64434-4.75086 4.675-9.14361 9.48292-9.76168 10.68426-1.92746 3.74645-1.25924 9.35878 2.78187 23.36457 9.26778 32.12058 10.88359 35.28491 20.29535 39.7454 7.03333 3.33329 10.86935 6.50729 13.11657 10.85293 4.22549 8.1712 2.82894 17.09131-3.74421 23.9152-5.93672 6.16317-13.66581 7.89545-22.07333 4.94716zM96 334.07439c-13.1753-2.69848-21.1866-15.79111-17.94099-29.32038l1.2446-5.18805 5.17178-5.17178 5.17178-5.17179 5.8203-1.30252 5.8203-1.30253 8.60612 2.21744c4.73336 1.2196 9.80775 2.20569 11.27643 2.19133 3.15705-.0309 19.14105-5.5288 22.53062-7.74972 1.29881-.85102 2.58232-1.32647 2.85223-1.05655.26992.26991-3.57818 3.97072-8.55132 8.22401-4.97314 4.2533-9.75418 9.11031-10.62451 10.79336-.87034 1.68305-2.02183 6.23078-2.55886 10.10608-1.48664 10.72776-5.50694 16.91406-13.68836 21.06317-3.46752 1.75851-10.76179 2.56263-15.13012 1.66793zm270.55484-110.68815c-19.88712-3.59011-38.9792-12.25839-68.29701-31.00855-36.01928-23.03608-42.12941-26.75601-52.75783-32.11971-6.05-3.05317-14.375-6.73765-18.5-8.18773l-7.5-2.6365v-23.40983l2 .53089c5.27308 1.39971 24.12034 11.70859 37.31866 20.41219 13.70482 9.0376 26.8605 18.96578 53.68134 40.51161 13.58345 10.91192 29.32298 21.39719 39.04454 26.01047 7.99542 3.79415 22.29421 8.25683 29.45546 9.19309 2.475.32358 5.175.96379 6 1.42267 2.44045 1.35745-11.69772.86052-20.44516-.7186zM465 217.5c-2.63967-4.27108-2.14848-4.25998-25-.56476-9.625 1.55642-17.64072 2.70449-17.81271 2.55126-.17199-.15322 7.47801-2.86102 17-6.01733 9.52199-3.15631 17.67274-5.94357 18.11278-6.19392.44004-.25035-.42634-2.06309-1.92529-4.02831l-2.72537-3.57314 12.3323.6631c6.78276.3647 14.28664.6631 16.67529.6631s4.343.34232 4.343.76071C486 202.82859 468.98254 221 467.98248 221c-.45065 0-1.79276-1.575-2.98248-3.5z"/><path fill="#c9db5c" d="M282 435.96862v-29.03139l1.53725-.5899c.84548-.32444 2.37956.1724 3.40907 1.10409l1.87183 1.69398 3.04126-1.5727c3.89642-2.01491 11.05542-2.02108 13.9238-.012C309.97005 410.49329 311 414.13027 311 425.98246c0 12.07591-1.20676 16.6481-5.11687 19.38685-2.90981 2.0381-8.83537 2.09531-13.53737.13069-1.97451-.825-3.76005-1.5-3.96788-1.5-.20784 0-.37788 4.725-.37788 10.5V465h-6zm20.75 3.23928c1.81923-2.31429 1.7105-23.19587-.13391-25.71825-1.82287-2.49292-7.98794-2.34811-11.50013.27012L288.5 415.70989l-.28643 10.27606-.28643 10.27606 1.7051 1.88411c3.42585 3.78553 10.52496 4.36014 13.11776 1.06178zM252 446.29629c-2.87268-1.04529-6.96199-5.65023-8.17984-9.21124-.67434-1.97178-1.21503-6.98961-1.20154-11.15075l.0245-7.5657 2.19598-4.53628c1.36766-2.82521 3.44335-5.20804 5.50291-6.31719l3.30694-1.7809 6.13804.44398c10.16179.73504 14.16906 6.48241 14.16906 20.32179 0 13.97678-4.99466 20.57467-15.45608 20.41731-2.75-.0414-5.675-.32082-6.5-.62102zm12.68592-7.8152c4.03389-4.50945 4.39492-18.21707.6132-23.28228-4.22766-5.66247-12.2789-4.8848-14.92213 1.44134-1.88628 4.5145-1.76711 15.73547.21139 19.90485 2.73179 5.75683 9.81013 6.72894 14.09754 1.93609zM326.5 446.05464c-6.77357-2.77237-10.80395-15.4566-8.47536-26.67331l1.21595-5.85721 3.76206-3.76206L326.76471 406h5.07059c10.07113 0 14.25708 4.5504 14.51199 15.77546L346.5 428.5l-11.25.28275-11.25.28275v2.01691c0 2.49366 2.32438 7.11199 4.47969 8.90074 2.12206 1.76115 7.70682 1.48888 11.68787-.5698l3.18747-1.6483 1.32248 1.8086c2.00853 2.74682 1.67783 3.36284-2.92751 5.45328-4.36736 1.98242-11.70866 2.47716-15.25 1.02771zm13.30007-26.13202c.4272-5.09289-2.406-8.32262-7.30082-8.32262h-3.75843l-2.37041 2.75576c-2.26312 2.63103-3.16473 7.51659-1.6641 9.01722.38847.38847 3.87597.57597 7.75.41667L339.5 423.5zm348.4125 25.57077c-2.13104-.92589-3.80191-2.65964-4.75-4.92874L682 437.06424v-41.26198l1.57727-3.32386c1.96286-4.13641 6.69426-6.47958 13.07386-6.47466 5.20052.004 10.47495 2.49481 12.23097 5.77597.95496 1.78436 1.51247 8.31559 1.24086 14.53671L710 409.13284l-2.75-.31642-2.75-.31642-.5-6.83151-.5-6.8315-1.94113-1.4185c-2.78436-2.03469-8.89945-1.80462-10.90388.41025L689 395.65748v42.19966l1.57143 1.57143c.94932.94932 3.3022 1.57143 5.94329 1.57143h4.37187l1.55671-2.22251c1.03123-1.47229 1.5567-4.47415 1.5567-8.89301v-6.6705l1.5-.57561c2.64619-1.01543 4.49539.46819 4.63492 3.71862.53034 12.354-.83695 16.60599-6.23132 19.37827-3.21894 1.65427-11.6251 1.5247-15.69103-.24187zm-333.98371-19.23041l.27114-19.73701 1.9339-.37173c1.06365-.20444 2.52471.43625 3.24679 1.42376l1.31289 1.79548 3.53714-1.68674c4.58246-2.18522 11.34964-2.1442 14.10224.0855 3.89875 3.1581 4.36704 5.5346 4.36704 22.16202V446h-6v-30.09091l-2.45455-2.45454c-1.35-1.35-2.91589-2.45455-3.47976-2.45455-2.42959 0-9.20549 3.3927-10.09486 5.05451-.53396.9977-.97083 8.14359-.97083 15.87975V446h-6.04228zm112.22352 18.47352c-.26667-.69492-.36504-13.85742-.21861-29.25L466.5 387.5l11.76914-.2819 11.76915-.2819.64333 1.67651C491.79051 391.50243 488.24985 393 480.30887 393H473v19.91238l7.25.29381 7.25.29381v5l-7.25.29381-7.25.29381V441h18v5h-12.03138c-8.77117 0-12.16277-.34238-12.51624-1.2635zm32.15461-.31829c-.93598-2.43911-.68786-54.74233.26683-56.24829.46908-.73993 2.06787-1.18362 3.6034-1l2.7602.33008 8.13129 20.95347L521.5 429.40694l.5-20.95347.5-20.95347 2.75-.31642 2.75-.31642v59.25956l-3.20937-.31336-3.20937-.31336-3.84097-10c-2.11253-5.5-5.73081-14.95-8.04063-21l-4.19966-11-.55134 21c-.30323 11.55-.64073 21.1125-.75 21.25-.77525.97559-5.10166-.0548-5.59167-1.33179zM545 419.5V393h-4.37756c-4.66104 0-7.2705-1.8688-6.2657-4.48727L534.93723 387H562v2.39301c0 2.77535-1.6328 3.60699-7.08179 3.60699H551v53h-6zm23.47808 25.30347c-.2808-.73175-.39074-13.92439-.24431-29.31697L568.5 387.5l9.7301-.28597 9.7301-.28597 3.09868 1.60239C595.1842 390.66373 597 395.39173 597 404c0 7.87253-1.77546 13.27428-4.91534 14.95469-1.14656.61362-2.08466 1.6635-2.08466 2.33307 0 .66956 1.8 5.94007 4 11.71224 2.2 5.77217 4 11.05851 4 11.74743 0 .71719-1.24693 1.25257-2.91729 1.25257h-2.91729l-1.59256-4.25c-.8759-2.3375-2.8888-7.85-4.47311-12.25l-2.88056-8-4.07836-.30597-4.07837-.30597-.28123 12.30597L574.5 445.5l-2.75569.31697c-1.62042.18639-2.96601-.23114-3.26623-1.0135zm17.18647-29.86603c3.92834-1.49355 4.30287-2.45724 4.32014-11.11601.01935-9.70192-.91754-10.82143-9.05612-10.82143H575v23h3.9349c2.1642 0 5.19254-.47815 6.72965-1.06256zm17.97564 30.28939c-.42457-.68697 10.59692-53.76099 11.8446-57.03767.32013-.84073 1.82996-1.19937 4.20994-1l3.71081.31084 6.14384 28.5c3.37912 15.675 5.96132 28.8375 5.73822 29.25-.2231.4125-1.68821.75-3.2558.75h-2.85017l-1.25097-7-1.25097-7h-14.52078l-.66163 3.25c-.36389 1.7875-1.09199 4.9375-1.618 7l-.95637 3.75h-2.40244c-1.32134 0-2.61747-.34793-2.88028-.77317zM625.00073 425.25c.002-2.2803-5.37203-27.21204-5.77823-26.80583-.26669.26668-1.71359 6.57584-3.21534 14.02035L613.27669 426h5.86166c3.22391 0 5.86198-.3375 5.86238-.75zM643 416.50306v-29.62978l3.14693.31336 3.14693.31336 8.10307 20.96636L665.5 429.43272l.5-20.96636.5-20.96636 2.75-.31642 2.75-.31642v59.25956l-3.14693-.31336-3.14693-.31336-8.10307-20.96636L649.5 403.56728l-.5 20.96636-.5 20.96636-2.75.31642-2.75.31642zm77.23485.27784L720.5 387.5l11.75-.28174 11.75-.28173v2.42475C744 392.47389 742.47003 393 733.41821 393H726v20l6.75.0153c7.54142.0171 9.61578.83989 9.08755 3.60452l-.35924 1.88017-7.77255.29267-7.77256.29266.2834 10.70734.2834 10.70733 9 .5 9 .5v4l-12.26515.2809-12.26516.2809.26516-29.2809zm-299.34978 26.89224C411.91891 440.33812 407 433.49932 407 424.36861v-4.99994l4.07938-7.93433 4.07937-7.93434-.54149-5.5c-.71773-7.29001-9.96704-37.76896-13.71427-45.19217-3.13794-6.21623-7.11024-9.48737-12.40299-10.21371-14.02799-1.92509-17.57193-2.81975-24.25668-6.12353-16.85873-8.33204-27.1656-25.65253-27.22596-45.75271-.0218-7.25762-1.86506-11.74309-6.16125-14.99301-4.94709-3.7423-52.3355-22.33561-62.71734-24.60776-5.89787-1.29081-12.12416.6687-16.9129 5.32274-4.68794 4.55608-10.39392 7.34185-17.88021 8.72947-7.48446 1.38728-14.47538.009-23.82912-4.69679-9.63326-4.84677-11.89842-4.72328-27.50864 1.49972l-5.4921 2.18942 6.76044-7.0026c8.62719-8.93622 9.94941-12.08984 10.25222-24.45264l.23988-9.79357 3.14641-6.39125c7.70751-15.65617 24.9363-23.1107 41.67632-18.03243 6.19894 1.88051 12.50482 1.91542 16.86561.0934 1.86584-.7796 6.96389-4.8296 11.329-9 7.89865-7.54633 9.41389-8.3748 12.15032-6.64326l1.436.90865-8.50745 8.93988c-4.6791 4.91693-9.31152 10.63432-10.29426 12.70531l-1.78682 3.76543.57512 6.12072c1.72199 18.3262 3.76937 24.36458 9.5477 28.15915 1.97654 1.29798 13.49371 6.25756 25.59371 11.0213 39.51033 15.5551 43.71373 15.9066 55.22815 4.61839 9.0145-8.83742 17.39291-13.02662 30.16794-15.08398 9.00667-1.45048 12.54889-3.99478 15.11676-10.85802 3.04535-8.13943 5.97199-20.99573 5.98014-26.26984l.007-4.53372-3.49331-5.42218c-1.92133-2.9822-3.78147-7.01703-4.13365-8.96628-1.4415-7.97846-4.94-11.51022-21.87303-22.08103-20.23276-12.63075-27.08824-14.78376-36.5-11.4631-2.47117.87188-7.7309 1.5-12.56063 1.5-4.57004 0-9.57597.48018-11.12427 1.06707-1.54831.58689-6.08504 3.74875-10.08162 7.02634l-7.26653 5.95927-1.98347-1.06152c-1.09092-.58384-1.98348-1.39857-1.98348-1.8105 0-.41194 2.50083-3.20861 5.55739-6.21482 3.05657-3.00621 6.53532-7.03683 7.73056-8.95693l2.17317-3.49108.54669-10.67032.5467-10.67032 2.69184-3.8386c1.84722-2.63415 5.13327-5.11353 10.47275-7.90185l7.7809-4.06327 2.70485-4.93673c3.82841-6.98742 8.01995-20.7367 8.16883-26.7958L339.5 74.5l-2.40907-3.37776c-5.47233-7.67277-3.20214-17.66314 4.98306-21.92885L346.5 46.88677l3.89473.59158c7.72093 1.17274 12.60835 6.88256 12.60153 14.72199-.005 5.55256-2.8518 10.17515-7.83124 12.71547-2.15239 1.09807-5.07879 3.38143-6.5031 5.07413-3.57007 4.24279-8.87447 20.99247-9.03429 28.52752l-.12763 6.01747 4.16106 6.98253c2.86751 4.81189 4.38059 8.69232 4.86725 12.48254.82716 6.44214 2.45012 9.96045 6.23082 13.5074 2.81099 2.63719 25.79147 17.17198 34.74087 21.97304l5 2.68234 5.5-.70222c3.025-.38621 7.9825-.76034 11.01666-.83139l5.51665-.12917 4.90479 3.25c3.4294 2.27238 6.07768 3.25 8.80394 3.25 4.5426 0 42.96749-10.1144 49.64298-13.06729 6.07948-2.68924 7.81806-4.41217 11.19313-11.09241 3.47004-6.86819 6.76244-9.35976 14.86625-11.25025 7.19451-1.67837 9.9915-3.31239 13.38475-7.81948 2.57064-3.41445 37.46245-64.40508 42.04098-73.48733 3.04985-6.04986 3.23699-8.58595 1.02432-13.8816-2.04346-4.89071-1.46629-13.08603 1.17287-16.65367 5.14735-6.95822 14.96171-8.739 22.22108-4.03194C590.69091 28.89487 593 33.14829 593 39c0 8.68838-5.78357 15.06695-14.99733 16.54024-3.2805.52455-5.46597 1.69867-8.07734 4.33944-4.31006 4.3586-42.12117 70.40165-45.0065 78.61095l-2.03147 5.77988 2.05632 6.76998c2.51398 8.27672 2.54618 11.2844.17666 16.50088-3.45166 7.59879-11.65533 12.26832-19.38274 11.03266-2.23149-.35683-6.73923-2.30419-10.01721-4.32748l-5.95997-3.6787-5.13021.0889c-7.21556.12499-39.70447 8.8138-48.2972 12.91657l-7.16699 3.42202-2.24005 3.75234C424.28276 195.17532 419.01179 201 417.64822 201c-.52769 0-2.42546 1.11819-4.21726 2.48486-7.07774 5.39846-12.52215 33.02516-8.12794 41.24377.94943 1.77575 4.08485 4.73741 6.96759 6.58148 14.79978 9.46731 22.83324 24.14273 22.85948 41.7594.0222 14.92427-5.18571 26.23445-17.11745 37.17429-3.75289 3.44091-7.82104 7.96162-9.04031 10.04602l-2.21687 3.78982 1.1903 6.21018c1.7345 9.04947 10.77818 38.23544 13.51133 43.60409 2.97667 5.84698 5.77993 8.43218 12.04291 11.10609 2.75 1.17408 6.05629 3.11689 7.34732 4.31735 6.40875 5.95917 8.0722 16.73356 3.82504 24.77537-4.269 8.08316-15.57286 12.63583-23.78729 9.58042zM91.5 332.12907c-9.20555-4.20466-14.01633-12.67936-13.3286-23.47978l.4099-6.43762 2.9424-4.24587c3.66176-5.28392 8.53158-8.54837 14.83787-9.94647l4.86156-1.07781 6.13844 1.77308c3.50965 1.01376 9.3503 1.76131 13.63843 1.7456l7.5-.0275 8.35239-3.65047 8.3524-3.65048-9.52471 9.18412-9.52471 9.18411-1.07769 5.29922c-.59272 2.91457-1.08756 6.28957-1.09964 7.5-.0614 6.15316-7.14431 15.20896-14.19592 18.1501-4.97922 2.07677-13.3554 1.93004-18.28212-.32025zm275.05484-108.74283c-19.88712-3.59011-38.9792-12.25839-68.29701-31.00855-36.01928-23.03608-42.12941-26.75601-52.75783-32.11971-6.05-3.05317-14.375-6.73765-18.5-8.18773l-7.5-2.6365v-23.40983l2 .53089c5.27308 1.39971 24.12034 11.70859 37.31866 20.41219 13.70482 9.0376 26.8605 18.96578 53.68134 40.51161 13.58345 10.91192 29.32298 21.39719 39.04454 26.01047 7.99542 3.79415 22.29421 8.25683 29.45546 9.19309 2.475.32358 5.175.96379 6 1.42267 2.44045 1.35745-11.69772.86052-20.44516-.7186zM465 217.5c-2.63967-4.27108-2.14848-4.25998-25-.56476-9.625 1.55642-17.64072 2.70449-17.81271 2.55126-.17199-.15322 7.47801-2.86102 17-6.01733 9.52199-3.15631 17.67274-5.94357 18.11278-6.19392.44004-.25035-.42634-2.06309-1.92529-4.02831l-2.72537-3.57314 12.3323.6631c6.78276.3647 14.28664.6631 16.67529.6631s4.343.34232 4.343.76071C486 202.82859 468.98254 221 467.98248 221c-.45065 0-1.79276-1.575-2.98248-3.5z"/><path fill="#a1a0a4" d="M282 435.96862v-29.03139l1.53725-.5899c.84548-.32444 2.37956.1724 3.40907 1.10409l1.87183 1.69398 3.04126-1.5727c3.89642-2.01491 11.05542-2.02108 13.9238-.012C309.97005 410.49329 311 414.13027 311 425.98246c0 12.07591-1.20676 16.6481-5.11687 19.38685-2.90981 2.0381-8.83537 2.09531-13.53737.13069-1.97451-.825-3.76005-1.5-3.96788-1.5-.20784 0-.37788 4.725-.37788 10.5V465h-6zm20.75 3.23928c1.81923-2.31429 1.7105-23.19587-.13391-25.71825-1.82287-2.49292-7.98794-2.34811-11.50013.27012L288.5 415.70989l-.28643 10.27606-.28643 10.27606 1.7051 1.88411c3.42585 3.78553 10.52496 4.36014 13.11776 1.06178zM252 446.29629c-2.87268-1.04529-6.96199-5.65023-8.17984-9.21124-.67434-1.97178-1.21503-6.98961-1.20154-11.15075l.0245-7.5657 2.19598-4.53628c1.36766-2.82521 3.44335-5.20804 5.50291-6.31719l3.30694-1.7809 6.13804.44398c10.16179.73504 14.16906 6.48241 14.16906 20.32179 0 13.97678-4.99466 20.57467-15.45608 20.41731-2.75-.0414-5.675-.32082-6.5-.62102zm12.68592-7.8152c4.03389-4.50945 4.39492-18.21707.6132-23.28228-4.22766-5.66247-12.2789-4.8848-14.92213 1.44134-1.88628 4.5145-1.76711 15.73547.21139 19.90485 2.73179 5.75683 9.81013 6.72894 14.09754 1.93609zM326.5 446.05464c-6.77357-2.77237-10.80395-15.4566-8.47536-26.67331l1.21595-5.85721 3.76206-3.76206L326.76471 406h5.07059c10.07113 0 14.25708 4.5504 14.51199 15.77546L346.5 428.5l-11.25.28275-11.25.28275v2.01691c0 2.49366 2.32438 7.11199 4.47969 8.90074 2.12206 1.76115 7.70682 1.48888 11.68787-.5698l3.18747-1.6483 1.32248 1.8086c2.00853 2.74682 1.67783 3.36284-2.92751 5.45328-4.36736 1.98242-11.70866 2.47716-15.25 1.02771zm13.30007-26.13202c.4272-5.09289-2.406-8.32262-7.30082-8.32262h-3.75843l-2.37041 2.75576c-2.26312 2.63103-3.16473 7.51659-1.6641 9.01722.38847.38847 3.87597.57597 7.75.41667L339.5 423.5zm348.4125 25.57077c-2.13104-.92589-3.80191-2.65964-4.75-4.92874L682 437.06424v-41.26198l1.57727-3.32386c1.96286-4.13641 6.69426-6.47958 13.07386-6.47466 5.20052.004 10.47495 2.49481 12.23097 5.77597.95496 1.78436 1.51247 8.31559 1.24086 14.53671L710 409.13284l-2.75-.31642-2.75-.31642-.5-6.83151-.5-6.8315-1.94113-1.4185c-2.78436-2.03469-8.89945-1.80462-10.90388.41025L689 395.65748v42.19966l1.57143 1.57143c.94932.94932 3.3022 1.57143 5.94329 1.57143h4.37187l1.55671-2.22251c1.03123-1.47229 1.5567-4.47415 1.5567-8.89301v-6.6705l1.5-.57561c2.64619-1.01543 4.49539.46819 4.63492 3.71862.53034 12.354-.83695 16.60599-6.23132 19.37827-3.21894 1.65427-11.6251 1.5247-15.69103-.24187zm-333.98371-19.23041l.27114-19.73701 1.9339-.37173c1.06365-.20444 2.52471.43625 3.24679 1.42376l1.31289 1.79548 3.53714-1.68674c4.58246-2.18522 11.34964-2.1442 14.10224.0855 3.89875 3.1581 4.36704 5.5346 4.36704 22.16202V446h-6v-30.09091l-2.45455-2.45454c-1.35-1.35-2.91589-2.45455-3.47976-2.45455-2.42959 0-9.20549 3.3927-10.09486 5.05451-.53396.9977-.97083 8.14359-.97083 15.87975V446h-6.04228zm112.22352 18.47352c-.26667-.69492-.36504-13.85742-.21861-29.25L466.5 387.5l11.76914-.2819 11.76915-.2819.64333 1.67651C491.79051 391.50243 488.24985 393 480.30887 393H473v19.91238l7.25.29381 7.25.29381v5l-7.25.29381-7.25.29381V441h18v5h-12.03138c-8.77117 0-12.16277-.34238-12.51624-1.2635zm32.15461-.31829c-.93598-2.43911-.68786-54.74233.26683-56.24829.46908-.73993 2.06787-1.18362 3.6034-1l2.7602.33008 8.13129 20.95347L521.5 429.40694l.5-20.95347.5-20.95347 2.75-.31642 2.75-.31642v59.25956l-3.20937-.31336-3.20937-.31336-3.84097-10c-2.11253-5.5-5.73081-14.95-8.04063-21l-4.19966-11-.55134 21c-.30323 11.55-.64073 21.1125-.75 21.25-.77525.97559-5.10166-.0548-5.59167-1.33179zM545 419.5V393h-4.37756c-4.66104 0-7.2705-1.8688-6.2657-4.48727L534.93723 387H562v2.39301c0 2.77535-1.6328 3.60699-7.08179 3.60699H551v53h-6zm23.47808 25.30347c-.2808-.73175-.39074-13.92439-.24431-29.31697L568.5 387.5l9.7301-.28597 9.7301-.28597 3.09868 1.60239C595.1842 390.66373 597 395.39173 597 404c0 7.87253-1.77546 13.27428-4.91534 14.95469-1.14656.61362-2.08466 1.6635-2.08466 2.33307 0 .66956 1.8 5.94007 4 11.71224 2.2 5.77217 4 11.05851 4 11.74743 0 .71719-1.24693 1.25257-2.91729 1.25257h-2.91729l-1.59256-4.25c-.8759-2.3375-2.8888-7.85-4.47311-12.25l-2.88056-8-4.07836-.30597-4.07837-.30597-.28123 12.30597L574.5 445.5l-2.75569.31697c-1.62042.18639-2.96601-.23114-3.26623-1.0135zm17.18647-29.86603c3.92834-1.49355 4.30287-2.45724 4.32014-11.11601.01935-9.70192-.91754-10.82143-9.05612-10.82143H575v23h3.9349c2.1642 0 5.19254-.47815 6.72965-1.06256zm17.97564 30.28939c-.42457-.68697 10.59692-53.76099 11.8446-57.03767.32013-.84073 1.82996-1.19937 4.20994-1l3.71081.31084 6.14384 28.5c3.37912 15.675 5.96132 28.8375 5.73822 29.25-.2231.4125-1.68821.75-3.2558.75h-2.85017l-1.25097-7-1.25097-7h-14.52078l-.66163 3.25c-.36389 1.7875-1.09199 4.9375-1.618 7l-.95637 3.75h-2.40244c-1.32134 0-2.61747-.34793-2.88028-.77317zM625.00073 425.25c.002-2.2803-5.37203-27.21204-5.77823-26.80583-.26669.26668-1.71359 6.57584-3.21534 14.02035L613.27669 426h5.86166c3.22391 0 5.86198-.3375 5.86238-.75zM643 416.50306v-29.62978l3.14693.31336 3.14693.31336 8.10307 20.96636L665.5 429.43272l.5-20.96636.5-20.96636 2.75-.31642 2.75-.31642v59.25956l-3.14693-.31336-3.14693-.31336-8.10307-20.96636L649.5 403.56728l-.5 20.96636-.5 20.96636-2.75.31642-2.75.31642zm77.23485.27784L720.5 387.5l11.75-.28174 11.75-.28173v2.42475C744 392.47389 742.47003 393 733.41821 393H726v20l6.75.0153c7.54142.0171 9.61578.83989 9.08755 3.60452l-.35924 1.88017-7.77255.29267-7.77256.29266.2834 10.70734.2834 10.70733 9 .5 9 .5v4l-12.26515.2809-12.26516.2809.26516-29.2809zm-302.69326 24.94416c-5.70024-3.2286-9.52605-9.14952-10.196-15.77959l-.55024-5.44547 4.10232-7.71471L415 405.07057v-5.49565c0-3.72058-1.63205-10.91861-5.05287-22.28528-9.21059-30.60489-11.95188-34.30742-26.44713-35.72091-17.28194-1.68523-30.80827-10.00038-38.99658-23.97269-4.3334-7.39438-5.65252-12.20657-6.54174-23.86451l-.82139-10.76846-2.17373-3.51718c-2.72031-4.40155-6.09568-6.11176-32.97917-16.70968-28.0063-11.04054-31.41677-12.13027-38.08708-12.16974l-5.5997-.0331-3.75437 2.98334c-12.46349 9.90386-18.14347 12.06034-29.80932 11.31752l-6.55969-.41769-7.46012-3.83774-7.46013-3.83773-5.87849.45467c-3.23317.25007-8.67589 1.59993-12.09494 2.99969l-6.21644 2.54502 5.55708-6.1202c7.91306-8.71494 8.61837-10.46104 9.33905-23.12021l.62621-11 2.60664-5.65538c6.91366-14.99997 24.95202-23.27763 39.90369-18.31148 2.95569.98172 7.95023 1.76069 11.09898 1.73103 7.49842-.0706 9.94-1.56299 22.93466-14.01824l4.63341-4.44108 2.23818 1.19783 2.23818 1.19784-8.13931 8.14974c-10.73136 10.74511-12.25966 13.37364-12.23809 21.04835.009 3.35577.49348 7.67342 1.07567 9.59479.5822 1.92137 1.05854 4.97679 1.05854 6.78984 0 4.45185 3.2635 10.55322 7.28561 13.62104 1.81725 1.38608 9.1339 4.81537 16.25924 7.62065 7.12533 2.80528 17.28258 6.81411 22.57166 8.90852 5.28907 2.09441 13.48379 4.82965 18.21048 6.07831l8.59398 2.27029 4.78952-1.34013c3.47492-.9723 6.58055-3.02186 11.31488-7.46723 3.58895-3.3699 8.67831-7.3888 11.30968-8.93089 4.91383-2.8797 17.01694-6.5438 21.61519-6.5438 4.15808 0 9.96156-4.62843 12.1214-9.66714 2.91304-6.79584 5.95675-19.66534 6.20618-26.2412l.22218-5.85717-3.23859-4.51484c-1.78123-2.48316-3.71189-6.72173-4.29036-9.41904-.57847-2.69731-1.89759-6.29506-2.93139-7.995-3.06678-5.04292-34.87539-25.10051-43.49342-27.42569l-3.95375-1.06674-6.54625 1.74945c-3.68306.98428-10.55966 1.80493-15.72233 1.87629l-9.1761.12684-5.3239 3.71871c-2.92815 2.04529-7.0749 5.30528-9.21501 7.24442l-3.89109 3.52571-1.64548-1.48914-1.64547-1.48914 6.72916-7.0992c3.70104-3.90456 7.2261-8.60491 7.83346-10.44524.60736-1.84032 1.20566-7.41327 1.32956-12.38433l.22526-9.0383 2.98404-4.30463c1.96852-2.83969 4.85367-5.24659 8.47785-7.07254 8.7322-4.39951 11.0426-6.56161 13.99514-13.09686C336.39451 96.12464 340 83.50821 340 79.14525c0-1.77495-1.40572-5.92819-3.12383-9.22942l-3.12383-6.00225.57812-3.56256c.74575-4.59551 2.98014-7.94506 6.97387-10.45443L344.5 47.88866l5.27213.38978 5.27212.38978 3.0002 2.87436c7.99206 7.65688 5.64585 18.79136-5.11645 24.2813-1.80721.92186-4.10349 2.80112-5.10285 4.17612-2.86348 3.9398-7.84145 19.36874-8.49005 26.31445l-.59021 6.3204 2.13078 4.43258c1.17193 2.43791 3.04808 5.85625 4.16923 7.59631 1.12115 1.74006 2.48919 5.96261 3.0401 9.38345 1.28718 7.99262 2.89931 11.00301 8.14948 15.2178 5.56048 4.46389 33.28623 21.08823 37.64275 22.57056l3.37724 1.14912 6.58059-1.52614c7.69962-1.78567 11.02429-1.28755 17.16494 2.57172 7.42775 4.6682 8.04444 4.63847 31.05052-1.49681 32.3482-8.62664 34.68198-9.77515 39.16012-19.27169 2.94267-6.24036 7.62322-9.88348 14.47918-11.26994 6.29953-1.27392 9.80916-3.0484 12.59255-6.36683 1.77331-2.11418 12.93152-20.58787 18.19566-30.12498 1.5179-2.75 7.37421-13.1 13.01403-23 16.41046-28.8065 16.25346-28.36256 13.02255-36.82258-3.5226-9.2238.59416-18.547 9.50052-21.5158l4.3979-1.46596 4.54348 1.16614c3.06677.78712 5.59396 2.34656 7.77554 4.798 8.48946 9.53968 3.42375 23.43024-9.55884 26.21105-10.34763 2.21642-6.89853-2.64633-42.14389 59.41693-6.18055 10.88328-11.95549 22.03345-12.83322 24.77815l-1.59585 4.99037 1.33187 4.72185c3.17582 11.25921 2.9138 16.82075-1.05509 22.39454-4.73214 6.64568-16.50952 9.16873-23.08708 4.94592-1.80947-1.16169-5.27925-3.06864-7.71062-4.23767l-4.42066-2.12552-5.20816.53753c-7.39109.76283-38.79577 9.4091-45.99555 12.66339-5.89685 2.66538-8.25551 4.88793-12.78122 12.04366-1.21748 1.925-3.71525 4.25426-5.55059 5.17613-7.64099 3.83798-9.99474 7.77914-13.17636 22.06276-2.22692 9.99754-2.41761 16.9453-.58318 21.24769.72817 1.7078 4.65398 5.56466 9.16879 9.00774 9.18166 7.0021 14.36211 13.41579 18.17823 22.50568l2.72883 6.5-.0382 11.5-.0382 11.5-2.22372 5.39415c-3.3528 8.13301-8.89736 15.87087-14.56136 20.3215C411.0303 335.3606 407 341.2817 407 345.75614c0 3.31206 2.10321 12.98853 3.96536 18.24386.48721 1.375 1.85805 5.875 3.0463 10 3.16284 10.9797 6.82465 20.46126 9.34923 24.20807 1.35596 2.01241 4.60566 4.46264 8.36079 6.30391 7.54286 3.69854 10.98488 6.78055 13.38828 11.98802 6.02784 13.06058-3.61677 27.52927-18.32012 27.48355-3.61272-.0112-6.54484-.72728-9.24825-2.25849zM93.74797 332.63293c-12.75939-4.75634-19.0847-18.81372-13.8589-30.80002 4.9268-11.30052 18.58615-16.90392 29.73881-12.1996 2.2221.9373 6.64196 1.64029 10.37212 1.64971 6.13276.0155 8.16233-.5396 21.5-5.88021 1.1-.44045-1.21191 1.96625-5.13757 5.34823-8.96621 7.72444-10.88689 10.88718-12.29688 20.24896-1.40636 9.33763-4.93091 15.40382-11.20284 19.28146-5.55432 3.43397-13.56667 4.41964-19.11474 2.35147zm272.80687-109.24669c-19.88712-3.59011-38.9792-12.25839-68.29701-31.00855-36.01928-23.03608-42.12941-26.75601-52.75783-32.11971-6.05-3.05317-14.375-6.73765-18.5-8.18773l-7.5-2.6365v-23.40983l2 .53089c5.27308 1.39971 24.12034 11.70859 37.31866 20.41219 13.70482 9.0376 26.8605 18.96578 53.68134 40.51161 13.58345 10.91192 29.32298 21.39719 39.04454 26.01047 7.99542 3.79415 22.29421 8.25683 29.45546 9.19309 2.475.32358 5.175.96379 6 1.42267 2.44045 1.35745-11.69772.86052-20.44516-.7186zM465 217.5c-2.63967-4.27108-2.14848-4.25998-25-.56476-9.625 1.55642-17.64072 2.70449-17.81271 2.55126-.17199-.15322 7.47801-2.86102 17-6.01733 9.52199-3.15631 17.67274-5.94357 18.11278-6.19392.44004-.25035-.42634-2.06309-1.92529-4.02831l-2.72537-3.57314 12.3323.6631c6.78276.3647 14.28664.6631 16.67529.6631s4.343.34232 4.343.76071C486 202.82859 468.98254 221 467.98248 221c-.45065 0-1.79276-1.575-2.98248-3.5z"/><path fill="#aec908" d="M282 436v-29h2.41667c1.32916 0 2.60883.5625 2.84369 1.25l.42704 1.25 3.4063-1.45427c1.87346-.79985 5.75649-1.47485 8.62896-1.5l5.22265-.0457 2.09861 2.09904c2.7467 2.74727 3.90837 8.0679 3.90837 17.90096 0 10.038-1.23962 15.50261-4.02939 17.76268-4.14677 3.35943-7.10919 3.37274-17.1729.0771l-1.75-.57308v21.23326h-6v-29zm20.13922 4.09009l2.36078-1.9099.28179-10.3401c.31558-11.58039-.66165-14.72216-5.06047-16.26914l-2.73618-.96226-4.49257 2.18266L288 414.97401v22.97821l3.75 1.97969c4.76609 2.51611 7.42462 2.55659 10.38922.15818zM251 445.24845c-2.27786-1.13792-4.28566-3.30646-5.75-6.21034l-2.25-4.46189.022-8.03811c.0382-13.98768 4.97095-20.53063 15.47804-20.53063 6.02124 0 10.6491 2.52341 13.20145 7.1983L273.5 416.5v20l-2.40247 3.86473c-3.96628 6.38037-12.80306 8.52771-20.09753 4.88372zm11.40476-4.38701C266.05558 439.19802 268 434.23042 268 426.56675 268 415.97689 264.96273 411 258.5 411c-6.58295 0-9.82301 5.11257-9.82301 15.5 0 12.31976 5.52439 18.09915 13.72777 14.36144zm63.64974 4.38701c-2.14264-1.0873-4.31692-3.415-5.75-6.15573L318 434.68543l.022-8.09271c.0264-9.74345 2.25987-15.54599 7.1699-18.62773l3.30814-2.07633 5.2345.38666c8.3997.62046 12.11757 5.35289 12.52422 15.94189L346.5 428.5l-11.25.28275-11.25.28275v2.56296c0 3.66153 2.91091 8.092 6.21612 9.46106l2.83497 1.17428 5.54034-2.04091 5.54034-2.04091.79895 2.15901c.90605 2.44843-.35733 3.64087-5.82994 5.50262-4.79107 1.62989-9.0439 1.43587-13.04628-.59516zm14.56805-22.70721c.86235-2.24724-1.52572-8.36001-3.92158-10.03814-3.26548-2.28723-6.54728-1.81063-9.77789 1.41998-2.14117 2.14116-2.92308 3.87989-2.92308 6.5V424h16.06277zm349.70434 23.7631c-3.59402-.70006-7.17485-5.10763-7.85966-9.67429-.34585-2.3063-.47996-12.80985-.29802-23.34122l.33079-19.14794 2.08909-2.82044c4.28147-5.78035 16.42592-6.79033 22.17965-1.84455l2.73126 2.34773V408.5h-5l-.3037-6.4806c-.37468-7.99502-1.91735-10.02534-7.60129-10.00409-8.04355.03008-8.59501 1.59999-8.59501 24.46861v18.6154l1.52568 2.95034c1.51506 2.92981 3.16604 3.52029 8.47432 3.03091 4.54445-.41897 5.89139-2.68566 6.20856-10.44806L704.5 423.5l2.75-.31642 2.75-.31642v8.34391c0 9.49002-1.21764 12.14627-6.59857 14.39456-3.18689 1.33157-8.39634 1.60996-13.07454.69871zm-335.66022-.97101c-.36667-.36666-.66667-9.14166-.66667-19.5V407h2.91667c1.60416 0 3.09427.53283 3.31135 1.18406.2885.8655 1.52706.73098 4.60357-.5 6.3702-2.54885 10.57052-2.18967 14.40263 1.23158l3.26578 2.91564.31585 17.08436L383.1317 446H377v-31l-2.11257-2.11257-2.11258-2.11258-3.61397.58647c-1.98769.32256-4.74953 1.43354-6.13743 2.46886l-2.52345 1.8824-.27605 15.14371L359.94791 446h-2.30729c-1.26901 0-2.60729-.3-2.97395-.66667zM467 416.53174V387h11.39301c8.20258 0 11.52174.35004 11.85269 1.25 1.13527 3.08711-.42544 3.75-8.82903 3.75H473v22h15.1391l-.31955 2.25-.31955 2.25-7.25.29381-7.25.29381v21.83451l8.75.28894 8.75.28893v4l-11.75.28174-11.75.28173zm32-.0317v-29.5h5.79198l3.95872 10.25c2.1773 5.6375 5.93661 15.37849 8.35401 21.64665l4.39529 11.3966.5-21.39664.5-21.39665h5v58l-2.61987.30387-2.61987.30386-1.51708-3.80386c-.8344-2.09213-4.55138-11.67887-8.25997-21.30387-3.70858-9.625-7.13446-17.9275-7.61305-18.45-.49595-.54145-.87016 8.59713-.87016 21.25V446h-5v-29.5zm46.66667 28.83333C545.3 444.96667 545 432.84018 545 418.38559v-26.28107l-5.25-.30226-5.25-.30226v-4h27l.31955 2.25.31955 2.25H551v54h-2.33333c-1.28334 0-2.63334-.3-3-.66667zm22.78571-.59683c-.26667-.69492-.36504-13.85742-.21861-29.25L568.5 387.5h21.34452l2.58898 2.43487c3.3738 3.17298 4.91049 9.10138 4.29381 16.56513-.58903 7.12914-2.03911 10.61514-5.22649 12.56449L589.15363 420.5l4.42318 11.94252c2.43276 6.56839 4.42319 12.30589 4.42319 12.75 0 1.30056-4.80532.92659-5.6863-.44252-.44239-.6875-2.64126-6.2-4.88638-12.25l-4.08204-11H574.5l-.28078 12.25-.28078 12.25h-2.5006c-1.37534 0-2.71879-.56857-2.98546-1.2635zm19.68684-30.64815l2.36078-1.91164v-16.10528l-1.77704-1.77704c-1.31958-1.31958-3.37901-1.77928-8-1.78572L574.5 392.5l-.287 10.4324c-.15785 5.73781-.0595 11.02531.21862 11.75.82517 2.15037 10.85518 1.7157 13.7076-.59405zM604.02989 443.75c.0164-1.2375 2.63673-14.4 5.82287-29.25l5.79297-27 3.67713-.31037c2.02243-.1707 3.67714-.139 3.67714.0704 0 .20944 2.7 12.69241 6 27.73994s6 28.20823 6 29.24599v1.88685l-2.75-.31642-2.75-.31642-1.40018-6.75-1.40019-6.75h-7.3812c-5.01986 0-7.51222.39989-7.79076 1.25-.22526.6875-.91804 3.8375-1.53951 7l-1.12996 5.75H604l.0299-2.25zm20.97084-19c.002-3.77062-5.43394-27.71752-6.03606-26.58957-.39329.73676-1.67969 6.28957-2.85865 12.33957s-2.4126 12.0125-2.74142 13.25l-.59786 2.25h6.11663c4.22625 0 6.11686-.38632 6.11736-1.25zM643 416.5V387h5.81288l5.93892 15.25c3.2664 8.3875 7.01871 18.0625 8.33847 21.5 1.31975 3.4375 2.73934 6.25 3.15464 6.25.4153 0 .75509-9.7063.75509-21.56955V386.8609l2.25.31955 2.25.31955.2651 29.25.26511 29.25h-2.90812c-1.83569 0-3.16684-.64534-3.6097-1.75-.38588-.9625-4.07222-10.525-8.19187-21.25s-7.90208-19.9275-8.4054-20.45c-.55454-.57568-.91512 7.79728-.91512 21.25V446h-5zm77.45238 28.2365c-.26667-.69492-.36504-13.85742-.21861-29.25L720.5 387.5l11.75-.28174 11.75-.28173V392h-18.06766l.28383 10.75.28383 10.75 7.25.29381 7.25.29381V419h-15v22h18v5h-11.53138c-8.36832 0-11.66438-.34658-12.01624-1.2635zm-302.91079-3.01144c-5.70024-3.2286-9.52605-9.14952-10.196-15.77959l-.55024-5.44547 4.10232-7.71471L415 405.07057v-5.49565c0-3.72058-1.63205-10.91861-5.05287-22.28528-9.21059-30.60489-11.95188-34.30742-26.44713-35.72091-17.28194-1.68523-30.80827-10.00038-38.99658-23.97269-4.3334-7.39438-5.65252-12.20657-6.54174-23.86451l-.82139-10.76846-2.17373-3.51718c-2.72031-4.40155-6.09568-6.11176-32.97917-16.70968-28.0063-11.04054-31.41677-12.13027-38.08708-12.16974l-5.5997-.0331-3.75437 2.98334c-12.46349 9.90386-18.14347 12.06034-29.80932 11.31752l-6.55969-.41769-7.46012-3.83774-7.46013-3.83773-5.87849.45467c-3.23317.25007-8.67589 1.59993-12.09494 2.99969l-6.21644 2.54502 5.55708-6.1202c7.91306-8.71494 8.61837-10.46104 9.33905-23.12021l.62621-11 2.60664-5.65538c6.91366-14.99997 24.95202-23.27763 39.90369-18.31148 2.95569.98172 7.95023 1.76069 11.09898 1.73103 7.49842-.0706 9.94-1.56299 22.93466-14.01824l4.63341-4.44108 2.23818 1.19783 2.23818 1.19784-8.13931 8.14974c-10.73136 10.74511-12.25966 13.37364-12.23809 21.04835.009 3.35577.49348 7.67342 1.07567 9.59479.5822 1.92137 1.05854 4.97679 1.05854 6.78984 0 4.45185 3.2635 10.55322 7.28561 13.62104 1.81725 1.38608 9.1339 4.81537 16.25924 7.62065 7.12533 2.80528 17.28258 6.81411 22.57166 8.90852 5.28907 2.09441 13.48379 4.82965 18.21048 6.07831l8.59398 2.27029 4.78952-1.34013c3.47492-.9723 6.58055-3.02186 11.31488-7.46723 3.58895-3.3699 8.67831-7.3888 11.30968-8.93089 4.91383-2.8797 17.01694-6.5438 21.61519-6.5438 4.15808 0 9.96156-4.62843 12.1214-9.66714 2.91304-6.79584 5.95675-19.66534 6.20618-26.2412l.22218-5.85717-3.23859-4.51484c-1.78123-2.48316-3.71189-6.72173-4.29036-9.41904-.57847-2.69731-1.89759-6.29506-2.93139-7.995-3.06678-5.04292-34.87539-25.10051-43.49342-27.42569l-3.95375-1.06674-6.54625 1.74945c-3.68306.98428-10.55966 1.80493-15.72233 1.87629l-9.1761.12684-5.3239 3.71871c-2.92815 2.04529-7.0749 5.30528-9.21501 7.24442l-3.89109 3.52571-1.64548-1.48914-1.64547-1.48914 6.72916-7.0992c3.70104-3.90456 7.2261-8.60491 7.83346-10.44524.60736-1.84032 1.20566-7.41327 1.32956-12.38433l.22526-9.0383 2.98404-4.30463c1.96852-2.83969 4.85367-5.24659 8.47785-7.07254 8.7322-4.39951 11.0426-6.56161 13.99514-13.09686C336.39451 96.12464 340 83.50821 340 79.14525c0-1.77495-1.40572-5.92819-3.12383-9.22942l-3.12383-6.00225.57812-3.56256c.74575-4.59551 2.98014-7.94506 6.97387-10.45443L344.5 47.88866l5.27213.38978 5.27212.38978 3.0002 2.87436c7.99206 7.65688 5.64585 18.79136-5.11645 24.2813-1.80721.92186-4.10349 2.80112-5.10285 4.17612-2.86348 3.9398-7.84145 19.36874-8.49005 26.31445l-.59021 6.3204 2.13078 4.43258c1.17193 2.43791 3.04808 5.85625 4.16923 7.59631 1.12115 1.74006 2.48919 5.96261 3.0401 9.38345 1.28718 7.99262 2.89931 11.00301 8.14948 15.2178 5.56048 4.46389 33.28623 21.08823 37.64275 22.57056l3.37724 1.14912 6.58059-1.52614c7.69962-1.78567 11.02429-1.28755 17.16494 2.57172 7.42775 4.6682 8.04444 4.63847 31.05052-1.49681 32.3482-8.62664 34.68198-9.77515 39.16012-19.27169 2.94267-6.24036 7.62322-9.88348 14.47918-11.26994 6.29953-1.27392 9.80916-3.0484 12.59255-6.36683 1.77331-2.11418 12.93152-20.58787 18.19566-30.12498 1.5179-2.75 7.37421-13.1 13.01403-23 16.41046-28.8065 16.25346-28.36256 13.02255-36.82258-3.5226-9.2238.59416-18.547 9.50052-21.5158l4.3979-1.46596 4.54348 1.16614c3.06677.78712 5.59396 2.34656 7.77554 4.798 8.48946 9.53968 3.42375 23.43024-9.55884 26.21105-10.34763 2.21642-6.89853-2.64633-42.14389 59.41693-6.18055 10.88328-11.95549 22.03345-12.83322 24.77815l-1.59585 4.99037 1.33187 4.72185c3.17582 11.25921 2.9138 16.82075-1.05509 22.39454-4.73214 6.64568-16.50952 9.16873-23.08708 4.94592-1.80947-1.16169-5.27925-3.06864-7.71062-4.23767l-4.42066-2.12552-5.20816.53753c-7.39109.76283-38.79577 9.4091-45.99555 12.66339-5.89685 2.66538-8.25551 4.88793-12.78122 12.04366-1.21748 1.925-3.71525 4.25426-5.55059 5.17613-7.64099 3.83798-9.99474 7.77914-13.17636 22.06276-2.22692 9.99754-2.41761 16.9453-.58318 21.24769.72817 1.7078 4.65398 5.56466 9.16879 9.00774 9.18166 7.0021 14.36211 13.41579 18.17823 22.50568l2.72883 6.5-.0382 11.5-.0382 11.5-2.22372 5.39415c-3.3528 8.13301-8.89736 15.87087-14.56136 20.3215C411.0303 335.3606 407 341.2817 407 345.75614c0 3.31206 2.10321 12.98853 3.96536 18.24386.48721 1.375 1.85805 5.875 3.0463 10 3.16284 10.9797 6.82465 20.46126 9.34923 24.20807 1.35596 2.01241 4.60566 4.46264 8.36079 6.30391 7.54286 3.69854 10.98488 6.78055 13.38828 11.98802 6.02784 13.06058-3.61677 27.52927-18.32012 27.48355-3.61272-.0112-6.54484-.72728-9.24825-2.25849zM93.74797 332.63293c-12.75939-4.75634-19.0847-18.81372-13.8589-30.80002 4.9268-11.30052 18.58615-16.90392 29.73881-12.1996 2.2221.9373 6.64196 1.64029 10.37212 1.64971 6.13276.0155 8.16233-.5396 21.5-5.88021 1.1-.44045-1.21191 1.96625-5.13757 5.34823-8.96621 7.72444-10.88689 10.88718-12.29688 20.24896-1.40636 9.33763-4.93091 15.40382-11.20284 19.28146-5.55432 3.43397-13.56667 4.41964-19.11474 2.35147zM374.5 224.32384c-26.25978-3.29555-45.2145-11.84861-87.5-39.48314-7.975-5.21185-17.7625-11.59875-21.75-14.19313l-7.25-4.71705v-18.99147l7.75 5.20736c9.33757 6.27407 21.37529 15.39811 42.75 32.40251 30.97898 24.64496 45.875 32.87197 67.8457 37.47086 4.87438 1.02031 9.11567 2.10825 9.42507 2.41766.59286.59286-6.18596.52454-11.27077-.1136zm90.48422-7.35093l-2.48422-4.0211-2.5.48397c-1.375.26618-7.225 1.20727-13 2.09131-5.775.88404-12.89819 2.06641-15.82931 2.62749-2.93111.56108-5.50191.84753-5.71287.63657-.21097-.21097 7.02472-2.82248 16.0793-5.80337S458 207.27587 458 206.91885c0-.35702-.9-1.7933-2-3.19172-1.1-1.39842-2-2.83867-2-3.20055 0-.73255 24.52449.42103 29.11994 1.36974l2.92416.60368-9.28783 9.24701-9.28783 9.247z"/><path fill="#7d7c81" d="M282 436v-29h2.41667c1.32916 0 2.60883.5625 2.84369 1.25l.42704 1.25 3.4063-1.45427c1.87346-.79985 5.75649-1.47485 8.62896-1.5l5.22265-.0457 2.09861 2.09904c2.7467 2.74727 3.90837 8.0679 3.90837 17.90096 0 10.038-1.23962 15.50261-4.02939 17.76268-4.14677 3.35943-7.10919 3.37274-17.1729.0771l-1.75-.57308v21.23326h-6v-29zm20.13922 4.09009l2.36078-1.9099.28179-10.3401c.31558-11.58039-.66165-14.72216-5.06047-16.26914l-2.73618-.96226-4.49257 2.18266L288 414.97401v22.97821l3.75 1.97969c4.76609 2.51611 7.42462 2.55659 10.38922.15818zM251 445.24845c-2.27786-1.13792-4.28566-3.30646-5.75-6.21034l-2.25-4.46189.022-8.03811c.0382-13.98768 4.97095-20.53063 15.47804-20.53063 6.02124 0 10.6491 2.52341 13.20145 7.1983L273.5 416.5v20l-2.40247 3.86473c-3.96628 6.38037-12.80306 8.52771-20.09753 4.88372zm11.40476-4.38701C266.05558 439.19802 268 434.23042 268 426.56675 268 415.97689 264.96273 411 258.5 411c-6.58295 0-9.82301 5.11257-9.82301 15.5 0 12.31976 5.52439 18.09915 13.72777 14.36144zm63.64974 4.38701c-2.14264-1.0873-4.31692-3.415-5.75-6.15573L318 434.68543l.022-8.09271c.0264-9.74345 2.25987-15.54599 7.1699-18.62773l3.30814-2.07633 5.2345.38666c8.3997.62046 12.11757 5.35289 12.52422 15.94189L346.5 428.5l-11.25.28275-11.25.28275v2.56296c0 3.66153 2.91091 8.092 6.21612 9.46106l2.83497 1.17428 5.54034-2.04091 5.54034-2.04091.79895 2.15901c.90605 2.44843-.35733 3.64087-5.82994 5.50262-4.79107 1.62989-9.0439 1.43587-13.04628-.59516zm14.56805-22.70721c.86235-2.24724-1.52572-8.36001-3.92158-10.03814-3.26548-2.28723-6.54728-1.81063-9.77789 1.41998-2.14117 2.14116-2.92308 3.87989-2.92308 6.5V424h16.06277zm349.70434 23.7631c-3.59402-.70006-7.17485-5.10763-7.85966-9.67429-.34585-2.3063-.47996-12.80985-.29802-23.34122l.33079-19.14794 2.08909-2.82044c4.28147-5.78035 16.42592-6.79033 22.17965-1.84455l2.73126 2.34773V408.5h-5l-.3037-6.4806c-.37468-7.99502-1.91735-10.02534-7.60129-10.00409-8.04355.03008-8.59501 1.59999-8.59501 24.46861v18.6154l1.52568 2.95034c1.51506 2.92981 3.16604 3.52029 8.47432 3.03091 4.54445-.41897 5.89139-2.68566 6.20856-10.44806L704.5 423.5l2.75-.31642 2.75-.31642v8.34391c0 9.49002-1.21764 12.14627-6.59857 14.39456-3.18689 1.33157-8.39634 1.60996-13.07454.69871zm-335.66022-.97101c-.36667-.36666-.66667-9.14166-.66667-19.5V407h2.91667c1.60416 0 3.09427.53283 3.31135 1.18406.2885.8655 1.52706.73098 4.60357-.5 6.3702-2.54885 10.57052-2.18967 14.40263 1.23158l3.26578 2.91564.31585 17.08436L383.1317 446H377v-31l-2.11257-2.11257-2.11258-2.11258-3.61397.58647c-1.98769.32256-4.74953 1.43354-6.13743 2.46886l-2.52345 1.8824-.27605 15.14371L359.94791 446h-2.30729c-1.26901 0-2.60729-.3-2.97395-.66667zM467 416.53174V387h11.39301c8.20258 0 11.52174.35004 11.85269 1.25 1.13527 3.08711-.42544 3.75-8.82903 3.75H473v22h15.1391l-.31955 2.25-.31955 2.25-7.25.29381-7.25.29381v21.83451l8.75.28894 8.75.28893v4l-11.75.28174-11.75.28173zm32-.0317v-29.5h5.79198l3.95872 10.25c2.1773 5.6375 5.93661 15.37849 8.35401 21.64665l4.39529 11.3966.5-21.39664.5-21.39665h5v58l-2.61987.30387-2.61987.30386-1.51708-3.80386c-.8344-2.09213-4.55138-11.67887-8.25997-21.30387-3.70858-9.625-7.13446-17.9275-7.61305-18.45-.49595-.54145-.87016 8.59713-.87016 21.25V446h-5v-29.5zm46.66667 28.83333C545.3 444.96667 545 432.84018 545 418.38559v-26.28107l-5.25-.30226-5.25-.30226v-4h27l.31955 2.25.31955 2.25H551v54h-2.33333c-1.28334 0-2.63334-.3-3-.66667zm22.78571-.59683c-.26667-.69492-.36504-13.85742-.21861-29.25L568.5 387.5h21.34452l2.58898 2.43487c3.3738 3.17298 4.91049 9.10138 4.29381 16.56513-.58903 7.12914-2.03911 10.61514-5.22649 12.56449L589.15363 420.5l4.42318 11.94252c2.43276 6.56839 4.42319 12.30589 4.42319 12.75 0 1.30056-4.80532.92659-5.6863-.44252-.44239-.6875-2.64126-6.2-4.88638-12.25l-4.08204-11H574.5l-.28078 12.25-.28078 12.25h-2.5006c-1.37534 0-2.71879-.56857-2.98546-1.2635zm19.68684-30.64815l2.36078-1.91164v-16.10528l-1.77704-1.77704c-1.31958-1.31958-3.37901-1.77928-8-1.78572L574.5 392.5l-.287 10.4324c-.15785 5.73781-.0595 11.02531.21862 11.75.82517 2.15037 10.85518 1.7157 13.7076-.59405zM604.02989 443.75c.0164-1.2375 2.63673-14.4 5.82287-29.25l5.79297-27 3.67713-.31037c2.02243-.1707 3.67714-.139 3.67714.0704 0 .20944 2.7 12.69241 6 27.73994s6 28.20823 6 29.24599v1.88685l-2.75-.31642-2.75-.31642-1.40018-6.75-1.40019-6.75h-7.3812c-5.01986 0-7.51222.39989-7.79076 1.25-.22526.6875-.91804 3.8375-1.53951 7l-1.12996 5.75H604l.0299-2.25zm20.97084-19c.002-3.77062-5.43394-27.71752-6.03606-26.58957-.39329.73676-1.67969 6.28957-2.85865 12.33957s-2.4126 12.0125-2.74142 13.25l-.59786 2.25h6.11663c4.22625 0 6.11686-.38632 6.11736-1.25zM643 416.5V387h5.81288l5.93892 15.25c3.2664 8.3875 7.01871 18.0625 8.33847 21.5 1.31975 3.4375 2.73934 6.25 3.15464 6.25.4153 0 .75509-9.7063.75509-21.56955V386.8609l2.25.31955 2.25.31955.2651 29.25.26511 29.25h-2.90812c-1.83569 0-3.16684-.64534-3.6097-1.75-.38588-.9625-4.07222-10.525-8.19187-21.25s-7.90208-19.9275-8.4054-20.45c-.55454-.57568-.91512 7.79728-.91512 21.25V446h-5zm77.45238 28.2365c-.26667-.69492-.36504-13.85742-.21861-29.25L720.5 387.5l11.75-.28174 11.75-.28173V392h-18.06766l.28383 10.75.28383 10.75 7.25.29381 7.25.29381V419h-15v22h18v5h-11.53138c-8.36832 0-11.66438-.34658-12.01624-1.2635zM374.5 224.32384c-26.25978-3.29555-45.2145-11.84861-87.5-39.48314-7.975-5.21185-17.7625-11.59875-21.75-14.19313l-7.25-4.71705v-18.99147l7.75 5.20736c9.33757 6.27407 21.37529 15.39811 42.75 32.40251 30.97898 24.64496 45.875 32.87197 67.8457 37.47086 4.87438 1.02031 9.11567 2.10825 9.42507 2.41766.59286.59286-6.18596.52454-11.27077-.1136zm90.48422-7.35093l-2.48422-4.0211-2.5.48397c-1.375.26618-7.225 1.20727-13 2.09131-5.775.88404-12.89819 2.06641-15.82931 2.62749-2.93111.56108-5.50191.84753-5.71287.63657-.21097-.21097 7.02472-2.82248 16.0793-5.80337S458 207.27587 458 206.91885c0-.35702-.9-1.7933-2-3.19172-1.1-1.39842-2-2.83867-2-3.20055 0-.73255 24.52449.42103 29.11994 1.36974l2.92416.60368-9.28783 9.24701-9.28783 9.247z"/><path fill="#4d4b52" d="M282 436v-29h2.13976c1.17686 0 2.63968.68369 3.2507 1.5193l1.11094 1.5193 3.96074-2.0193c6.01533-3.06679 10.08812-2.66904 14.13786 1.3807l3.4 3.4v27.16845l-2.91797 3.26577-2.91797 3.26578-4.33203-.0231c-2.38262-.0127-5.84919-.79301-7.70349-1.73395-1.85431-.94094-3.76681-1.46647-4.25-1.16784-.4832.29859-.87854 5.24137-.87854 10.98391V465h-5zm20.96104 3.81144L305 437.62288v-22.24576l-2.03896-2.18856c-3.45136-3.70461-12.35311-2.06152-14.9314 2.75605-1.36214 2.54518-1.32488 18.63521.0491 21.20251 1.26911 2.37136 6.29334 4.75831 10.1323 4.81374 1.54096.0222 3.59106-.90544 4.75-2.14942zM251.5 445.11455c-2.29759-1.05777-4.8512-3.28283-6-5.22804l-2-3.38651v-20l2-3.3869c1.1-1.8628 3.575-4.25572 5.5-5.31761l3.5-1.9307 5.42962.51389 5.42962.51389 3.28851 3.30372 3.28852 3.30371 1.17373 7 1.17373 7-1.20015 5.68924c-1.40133 6.64291-4.11111 10.50649-8.71936 12.43194-4.4247 1.84876-8.05895 1.70563-12.86422-.50663zm12.13968-4.57472c3.47249-2.43224 4.59878-6.73077 4.21461-16.08535l-.35433-8.62768-2.80574-2.4134c-3.78428-3.2551-9.52325-3.28874-12.54379-.0735-5.77009 6.14199-5.46269 21.90954.51887 26.61464 3.04224 2.39303 8.01102 2.65813 10.97038.58532zm63.77551 5.08515c-6.83301-3.07786-9.87025-10.20314-9.21011-21.60665.32553-5.62339 1.04137-8.68102 2.63665-11.26224 3.98913-6.45455 12.61305-8.60523 18.96845-4.73046C344.03239 410.59985 346 415.34965 346 422.96788V429h-10.94098c-6.01754 0-11.18698.39803-11.48764.88451-1.02222 1.65399 2.08868 8.51915 4.76628 10.51827l2.66703 1.99122 5.24765-1.21332c7.88232-1.82247 8.1423-1.81979 8.5363.0882.74141 3.59032-11.9879 6.78199-17.37345 4.35611zm13.12491-22.68987c1.08498-1.75552-.5138-7.90881-2.59588-9.99089-2.33621-2.33621-7.62658-2.55543-10.64519-.44112-2.39586 1.67813-4.78393 7.7909-3.92158 10.03814L323.93723 424h7.97237c4.56007 0 8.25406-.45579 8.6305-1.06489zm349.77281 23.01355c-1.75289-.53528-4.13754-2.18155-5.29921-3.65837l-2.11213-2.68514.29922-23.77668.29921-23.77667 2.25879-2.25691 2.25879-2.25691 7.36049-.37169 7.3605-.37169 3.38071 3.01937 3.38072 3.01937V408.5h-4l-.57608-6c-.71908-7.4894-1.55941-9.41091-4.6254-10.5766-4.06283-1.54469-7.26644-1.04639-9.84397 1.53115L688 395.90909v41.18182l2.45455 2.45454c1.35 1.35 3.4875 2.44841 4.75 2.4409 7.17921-.04271 9.79545-3.51651 9.79545-13.00624v-6.11921l2.25.31955 2.25.31955.31982 6c.43564 8.17275-1.15494 13.10482-4.84098 15.01094-3.85075 1.9913-10.66544 2.65935-14.66593 1.43772zM355 426.5V407h1.95031c1.07267 0 2.32863.67602 2.79102 1.50226l.84071 1.50227 5.17583-2.18673 5.17583-2.18673 3.68733.93447c2.13806.54184 4.5679 2.11913 5.78314 3.75403l2.09583 2.81957.3173 16.43043L383.1346 446h-4.9551l-.33975-15.39704-.33975-15.39703-1.90499-2.10297c-2.4135-2.66432-6.5172-2.69346-11.63485-.0826L360 415.04065V446h-5zm112.45238 18.2365c-.26667-.69492-.36504-13.85742-.21861-29.25L467.5 387.5l11.25-.28275 11.25-.28275V392h-18.06766l.28383 10.75.28383 10.75 6.97235.30076c7.03648.30352 9.33104 1.52628 7.348 3.9157-.67808.81704-3.56486 1.28354-7.94279 1.28354H472v22h18v5h-11.03138c-7.96547 0-11.16614-.35116-11.51624-1.2635zm32.02836.0739c-.28226-.73557-.3934-13.93133-.24697-29.32391L499.5 387.5h5l3.00079 7.5c1.65043 4.125 5.47543 13.91113 8.5 21.74695 3.02456 7.83583 5.82793 14.24833 6.22971 14.25.40177.002.85177-9.78445 1-21.74695l.2695-21.75h4l.26538 28.77548.26537 28.77549-1.6513.63366c-3.58216 1.37461-4.4024-.21538-16.34531-31.68463-1.56548-4.125-3.45109-8.85-4.19024-10.5l-1.3439-3-.5 22.48733-.5 22.48733-1.75302.33658c-.96417.18511-1.98397-.26526-2.26624-1.00083zm46.28572-25.49301L545.5 392.5l-5.25-.30226-5.25-.30226V386.94195l13.25.27902 13.25.27903v4l-5.23376.3017-5.23377.30169-.26623 26.69831L550.5 445.5l-2.23354.31739-2.23354.3174zM569 416.56955V387l7.75.006c9.69694.007 14.58346 1.33159 17.20451 4.66372L596 394.27014v19.99413l-3.51487 3.31495-3.51487 3.31495 4.01487 10.68873c4.70715 12.53178 4.97519 14.69306 1.76566 14.23707l-2.24922-.31997-4.47611-12.25-4.47612-12.25h-9.48778l-.28078 12.25L573.5 445.5l-2.25.31955-2.25.31955zm19.59501-2.67454l1.90499-2.10499v-15.58004l-1.90499-2.10499L586.69002 392H574v24h12.69002zm15.89461 27.93789c.38139-2.38309 1.31138-7.0329 2.06664-10.3329.75526-3.3 3.04168-14.1 5.08094-24 2.03925-9.9 4.15411-18.58525 4.69967-19.30056.54557-.7153 2.1429-1.1653 3.54962-1l2.55768.30056 1.14948 4.5c.63222 2.475 1.86675 7.875 2.7434 12 .87665 4.125 3.19445 14.83928 5.15066 23.80952 1.95621 8.97024 3.29519 16.73274 2.9755 17.25-.98572 1.59494-4.30057 1.03874-4.82465-.80952-.27292-.9625-1.05378-4.35507-1.73525-7.53904l-1.23904-5.78904-7.5025.28904-7.5025.28904-1.59042 7-1.59042 7-2.34112.3329-2.34112.33291zm20.8381-15.5829c.46647-.78485-5.07176-29.32737-5.83949-30.0951-.24263-.24264-.65406.18575-.91429.95197C617.94399 398.96176 613 424.50391 613 425.90356c0 1.23851 11.60371 1.56461 12.32772.34644zm18.37352 19.1179c-.38568-.38568-.70124-13.46536-.70124-29.06595v-28.36472l1.63592-.62776c.89976-.34527 2.29612-.21133 3.10302.29765 1.25223.78989 7.20794 15.22961 15.52592 37.64288 1.17367 3.1625 2.48543 5.75 2.91504 5.75.4296 0 .90237-9.7875 1.0506-21.75l.2695-21.75h4l.26538 28.77548.26537 28.77549-1.6513.63366c-2.6376 1.01215-4.47969-.85068-6.63812-6.71287-3.00154-8.15201-12.777-33.10144-14.09413-35.97176l-1.1472-2.5-.5 22.48733-.5 22.48733-1.54876.29724c-.85182.16348-1.86432-.0183-2.25-.404zM721 416.5v-29.5655l11.25.28275 11.25.28275v4l-8.75.28893-8.75.28894V414h15.1391l-.31955 2.25-.31955 2.25-7.25.29381-7.25.29381V441h18.1391l-.31955 2.25-.31955 2.25-11.25.28275-11.25.28275zM364.5602 222.43408c-18.07435-3.58891-38.8646-12.9348-60.93885-27.394L291 186.77278v-7.38639c0-4.06252.22944-7.38639.50987-7.38639.28043 0 3.76793 2.62495 7.75 5.83323 13.42384 10.81532 32.19342 24.7599 39.22564 29.14211C350.35166 214.36986 364.254 219.95157 378 222.84018l4.5.94564-5.5.0131c-3.025.007-8.62291-.60697-12.4398-1.36486zM465 216.5c-1.18972-1.925-2.49379-3.5-2.89794-3.5s-7.87456 1.11789-16.60091 2.48419c-8.72636 1.36631-16.00949 2.3408-16.18475 2.16554-.17526-.17526 6.20686-2.43896 14.18247-5.03046C451.47449 210.02777 458 207.43676 458 206.86146c0-.5753-.9063-2.19818-2.014-3.60639-1.10771-1.40822-1.84688-2.72753-1.64261-2.9318.20427-.20427 6.39808.0883 13.76401.65024 7.36593.5619 14.50822 1.02273 15.87175 1.02406L486.4583 202l-8.9583 9c-4.92707 4.95-9.26848 9-9.64759 9-.37911 0-1.66269-1.575-2.85241-3.5z"/></svg>