<svg xmlns="http://www.w3.org/2000/svg" role="img" viewBox="-26.50 -26.50 1378.00 297.00"><title>OpenLandMap logo</title><g transform="translate(-.145 -.047)"><g transform="translate(-1378.507 -347.161) scale(5.4094)"><path d="M303.81747 83.58475q0-7.12 2.28-10.8 2.28-3.68 6.96-3.68 2.52 0 4.28 1.04 1.76 1 2.84 2.88 1.12 1.88 1.64 4.56.52 2.68.52 6 0 7.12-2.32 10.8-2.28 3.68-6.96 3.68-2.48 0-4.24-1-1.76-1.04-2.88-2.92-1.12-1.88-1.64-4.56-.48-2.68-.48-6zm3.16 0q0 2.36.32 4.48.36 2.12 1.08 3.72.72 1.6 1.88 2.56t2.8.96q3 0 4.56-2.88 1.56-2.88 1.56-8.84 0-2.32-.36-4.44-.32-2.12-1.04-3.72-.72-1.64-1.88-2.6-1.16-.96-2.84-.96-2.96 0-4.52 2.88-1.56 2.88-1.56 8.84z"/><path d="M326.41746 77.58475h2.04l.44 2.16h.16q1.48-2.64 4.64-2.64 3.16 0 4.72 2.36 1.6 2.36 1.6 7.72 0 2.52-.52 4.56-.52 2-1.48 3.44-.96 1.4-2.36 2.16-1.36.72-3.04.72-1.16 0-1.84-.16-.68-.12-1.48-.56v8.24h-2.88zm2.88 16.84q.56.48 1.24.76.72.28 1.88.28 2.12 0 3.36-2.16 1.24-2.16 1.24-6.16 0-1.68-.24-3.04-.2-1.36-.68-2.32-.48-1-1.24-1.52-.72-.56-1.8-.56-2.92 0-3.76 3.56z"/><path d="M355.77744 96.22475q-.96.88-2.44 1.36-1.48.48-3.12.48-1.88 0-3.28-.72-1.36-.76-2.28-2.12-.88-1.4-1.32-3.32-.4-1.92-.4-4.32 0-5.12 1.88-7.8 1.88-2.68 5.32-2.68 1.12 0 2.2.28 1.12.28 2 1.12.88.84 1.4 2.36.56 1.52.56 3.96 0 .68-.08 1.48-.04.76-.12 1.6h-10.16q0 1.72.28 3.12.28 1.4.88 2.4.6.96 1.52 1.52.96.52 2.36.52 1.08 0 2.12-.4 1.08-.4 1.64-.96zm-2.24-10.72q.08-3-.84-4.4-.92-1.4-2.52-1.4-1.84 0-2.92 1.4-1.08 1.4-1.28 4.4z"/><path d="M370.57737 97.58475v-12.2q0-3-.72-4.32-.68-1.36-2.48-1.36-1.6 0-2.64.96t-1.52 2.36v14.56h-2.88v-20h2.08l.52 2.12h.12q.76-1.08 2.04-1.84 1.32-.76 3.12-.76 1.28 0 2.24.36 1 .36 1.64 1.24.68.84 1 2.28.36 1.44.36 3.64v12.96z"/><path d="M391.57734 97.58475h-13.48v-28h3v25.24h10.48z"/><path d="M393.73722 78.78475q1.16-.72 2.8-1.12 1.68-.4 3.52-.4 1.68 0 2.68.52 1.04.48 1.6 1.36.6.84.76 1.96.2 1.08.2 2.28 0 2.4-.12 4.68-.08 2.28-.08 4.32 0 1.52.08 2.84.12 1.28.4 2.44h-2.2l-.68-2.36h-.16q-.6 1.04-1.76 1.8-1.16.76-3.12.76-2.16 0-3.56-1.48-1.36-1.52-1.36-4.16 0-1.72.56-2.88.6-1.16 1.64-1.88 1.08-.72 2.52-1 1.48-.32 3.28-.32h.8q.4 0 .84.04.12-1.24.12-2.2 0-2.28-.68-3.2-.68-.92-2.48-.92-1.12 0-2.44.36-1.32.32-2.2.84zm8.68 9.68q-.4-.04-.8-.04-.4-.04-.8-.04-.96 0-1.88.16-.92.16-1.64.56-.72.4-1.16 1.08-.4.68-.4 1.72 0 1.6.76 2.48.8.88 2.04.88 1.68 0 2.6-.8.92-.8 1.28-1.76z"/><path d="M420.17721 97.58475v-12.2q0-3-.72-4.32-.68-1.36-2.48-1.36-1.6 0-2.64.96t-1.52 2.36v14.56h-2.88v-20h2.08l.52 2.12h.12q.76-1.08 2.04-1.84 1.32-.76 3.12-.76 1.28 0 2.24.36 1 .36 1.64 1.24.68.84 1 2.28.36 1.44.36 3.64v12.96z"/><path d="M440.09718 90.70475q0 2.04.04 3.72.04 1.64.28 3.24h-1.96l-.64-2.4h-.16q-.56 1.2-1.76 2t-2.88.8q-3.24 0-4.84-2.52-1.56-2.52-1.56-7.92 0-5.12 1.92-7.76 1.96-2.64 5.36-2.64 1.16 0 1.84.16.68.12 1.48.44v-8.24h2.88zm-2.88-9.96q-.56-.48-1.28-.68-.68-.24-1.84-.24-2.12 0-3.32 1.92-1.16 1.92-1.16 5.92 0 1.76.2 3.2.24 1.4.68 2.44.48 1.04 1.2 1.6.76.56 1.84.56 2.88 0 3.68-3.4z"/><path d="M462.37712 79.18475l.36-4.24h-.16l-1.28 3.96-5.64 12.16h-1l-5.92-12.16-1.24-3.96h-.16l.56 4.24v18.4h-2.88v-28h2.52l6.76 13.76 1 3.28h.08l.96-3.32 6.4-13.72h2.64v28h-3z"/><path d="M470.09709 78.78475q1.16-.72 2.8-1.12 1.68-.4 3.52-.4 1.68 0 2.68.52 1.04.48 1.6 1.36.6.84.76 1.96.2 1.08.2 2.28 0 2.4-.12 4.68-.08 2.28-.08 4.32 0 1.52.08 2.84.12 1.28.4 2.44h-2.2l-.68-2.36h-.16q-.6 1.04-1.76 1.8-1.16.76-3.12.76-2.16 0-3.56-1.48-1.36-1.52-1.36-4.16 0-1.72.56-2.88.6-1.16 1.64-1.88 1.08-.72 2.52-1 1.48-.32 3.28-.32h.8q.4 0 .84.04.12-1.24.12-2.2 0-2.28-.68-3.2-.68-.92-2.48-.92-1.12 0-2.44.36-1.32.32-2.2.84zm8.68 9.68q-.4-.04-.8-.04-.4-.04-.8-.04-.96 0-1.88.16-.92.16-1.64.56-.72.4-1.16 1.08-.4.68-.4 1.72 0 1.6.76 2.48.8.88 2.04.88 1.68 0 2.6-.8.92-.8 1.28-1.76z"/><path d="M486.29707 77.58475h2.04l.44 2.16h.16q1.48-2.64 4.64-2.64 3.16 0 4.72 2.36 1.6 2.36 1.6 7.72 0 2.52-.52 4.56-.52 2-1.48 3.44-.96 1.4-2.36 2.16-1.36.72-3.04.72-1.16 0-1.84-.16-.68-.12-1.48-.56v8.24h-2.88zm2.88 16.84q.56.48 1.24.76.72.28 1.88.28 2.12 0 3.36-2.16 1.24-2.16 1.24-6.16 0-1.68-.24-3.04-.2-1.36-.68-2.32-.48-1-1.24-1.52-.72-.56-1.8-.56-2.92 0-3.76 3.56z"/></g><path fill="#ebdda4" d="M118.17668 243.35598c.17782-.90421 1.59333-2.59171 3.14556-3.75 2.37474-1.77205 4.23307-2.10598 11.71976-2.10598 7.86002 0 9.15692.25912 11.1222 2.22222 1.22358 1.22222 2.0133 2.43361 1.75493 2.69198-.98648.98648-13.73436 2.57102-20.74245 2.57825-6.26155.006-7.27645-.23081-7-1.63647zM99 242.9358C86.81681 240.6479 83.5323 238 92.87752 238c5.71244 0 14.40171 2.4266 16.1251 4.50316 1.06329 1.28119.7564 1.48105-2.13018 1.38727-1.85484-.06026-5.39744-.48984-7.87244-.95463zm56-5.03459c0-6.24722 17.87391-14.18924 25.41821-11.29422.86999.33384 1.58179 1.16288 1.58179 1.8423C182 230.31354 160.51019 240 156.37427 240c-.75585 0-1.37427-.94446-1.37427-2.09879zm-50.14335-1.4168c-9.0614-2.89353-13.44412-9.83281-8.84115-13.99843 2.64262-2.39155 11.64043-3.12222 17.66762-1.43471 9.80873 2.74627 14.59437 10.75513 8.72476 14.60104-3.45766 2.26555-11.82059 2.66204-17.55123.8321zm-32.47415-2.39816c-6.92959-3.14684-9.42469-8.92812-5.4181-12.55403 3.06013-2.76938 12.7383-1.7591 17.43006 1.81949 4.96343 3.78578 5.71282 7.2991 2.2012 10.31967-3.33842 2.87159-8.47323 3.02147-14.21316.41487zm66.61801-.1522c-7.65929-3.23038-9.5106-10.78685-3.92181-16.00757 3.13335-2.92698 8.41246-4.92849 12.9213-4.89894 4.62385.0303 10.55446 3.48262 12.00707 6.98953 1.20563 2.91065 1.14224 3.66243-.57619 6.83273-1.06199 1.95924-3.34995 4.3856-5.08437 5.39191-3.84671 2.23187-11.94839 3.12531-15.346 1.69234zm-86.89688-10.67622c-5.67734-3.85083-5.49578-5.89938.2103-2.37283 3.6264 2.24124 7.5355 6.13941 6.09106 6.07404-.49775-.0225-3.33336-1.68807-6.30136-3.70121zM190 222.14079c0-5.03096 17.27893-18.26186 20.12817-15.41262.68956.68956-2.11893 3.63481-8.71985 9.1445C196.05297 220.3427 191.29526 224 190.83565 224c-.45961 0-.83565-.83664-.83565-1.85921zm-20.36514-3.21337c-7.09817-5.58342.15018-16.07463 12.67742-18.34921 10.34191-1.8778 16.33061 5.93901 10.16438 13.26716-5.61513 6.67321-17.46675 9.31006-22.8418 5.08205zm-114.63435-.06019C44.29605 214.63869 41.17584 199 51.03663 199 56.21821 199 64 207.55967 64 213.25921c0 4.73617-4.34785 7.44553-8.99949 5.60802zm23.89982-.85819C73.45051 215.12859 69 209.55942 69 205.62019c0-4.88905 2.99017-7.13181 9.42705-7.07071C90.67082 198.66569 101.55743 211.44257 95 218c-2.65908 2.65908-11.07683 2.66381-16.09967.009zM114 215.46347c-7.65851-3.43337-12.31973-10.73-10.50569-16.44553 1.83183-5.77159 13.0959-7.84701 21.22657-3.91101C129.67362 197.50451 134 203.15052 134 207.21636c0 1.6088-1.17649 4.06881-2.83201 5.92166-2.39832 2.68418-3.66173 3.22508-8.25 3.53205-3.48087.23288-6.66937-.19852-8.91799-1.2066zm-79.75727-7.71856c-6.46786-6.52587-7.4803-8.11812-4.49273-7.06564 3.29683 1.16142 8.252 5.42391 9.81179 8.44021 2.83433 5.481 1.00773 5.00896-5.31906-1.37457zM148.5 206.58836c-7.53451-3.34874-10.30828-10.63902-6.31146-16.58836 5.77384-8.59448 19.42969-9.38598 25.64356-1.48632 7.98561 10.15205-6.55979 23.75137-19.3321 18.07468zM203 202c-6.14555-6.14555 3.08844-24 12.41235-24 6.634 0 8.40106 7.23535 3.90735 15.99896C214.82231 202.76975 207.40582 206.40582 203 202zm-171.87082-6.67812C23.39116 189.22492 23.02786 178 30.56855 178c3.45955 0 10.17947 6.42692 11.56892 11.0645.96836 3.2321.88616 4.2505-.51582 6.39018-2.1981 3.35472-6.12939 3.30497-10.49247-.1328zm22.77473-.57188c-8.1848-6.25666-11.2772-16.46761-6.44937-21.29545 3.038-3.03799 5.88243-3.07921 11.04546-.16009 4.63151 2.61862 10.5 11.54825 10.5 15.97704 0 3.04206-1.58312 6.75022-3.3997 7.96319-2.59792 1.73467-7.55401.68184-11.69639-2.48469zm-34.10437-4.47955c-4.02177-6.19803-4.16208-8.09888-.3113-4.21742 2.53963 2.55988 6.09536 9.9567 4.77518 9.93363-.41988-.007-2.42863-2.57963-4.46388-5.71621zM84.5 192.34115c-7.18828-3.78288-11.5-9.80766-11.5-16.06898 0-5.0213 2.17652-7.94517 6.9873-9.38651 5.67799-1.70117 12.18663.35077 17.5758 5.54101 10.28159 9.90206 7.13631 21.65341-5.76344 21.53329-2.36481-.022-5.64966-.75048-7.29966-1.61881zm99.81471-.80481c-4.24033-1.84424-6.69132-6.69184-5.99779-11.86251.67899-5.06219 3.30019-8.67068 7.99345-11.0042 4.49772-2.2363 8.51694-1.56959 12.09242 2.00588 5.8433 5.8433 3.3806 16.70569-4.60964 20.3321-5.07854 2.30492-5.35866 2.32054-9.47844.52873zm-63.16955-5.60629c-4.42277-1.77143-8.18896-5.09559-10.1678-8.97443-2.4952-4.89099-2.50041-8.58553-.0178-12.65707 6.08931-9.98681 23.36232-7.52806 29.00531 4.1288 2.41766 4.99421 2.49987 6.5247.59535 11.08287-2.62757 6.28866-12.00268 9.38866-19.41502 6.41983zm-104.88884-8.02689c-4.38612-1.63044-8.98224-12.32158-7.73611-17.99516.3533-1.60855 1.53595-3.40287 2.62813-3.98739 5.80279-3.10556 13.26358 10.96659 10.4642 19.73701-.85088 2.66581-2.4369 3.33073-5.35622 2.24554zm137.16739-1.86853c-7.5847-3.85487-10.67091-13.83666-6.42911-20.79377 8.17702-13.41138 29.24573-6.84528 27.66991 8.62338-1.08719 10.67219-11.94639 16.89422-21.2408 12.17039zM227.75 173.9199c-2.38511-1.3892-2.31218-10.08556.12966-15.46127C229.54214 154.79869 235.0633 149 236.8856 149c.40268 0 1.60565.64224 2.67327 1.4272 1.90096 1.39767 1.87052 1.63682-1.47111 11.55694-2.11798 6.28752-4.1937 10.67708-5.47251 11.57279-2.41104 1.68877-2.56879 1.70053-4.86525.36297zm-195.43992-1.99691c-4.81256-3.0827-7.654-9.76232-7.0828-16.65018.35366-4.26467 1.0064-6.04362 2.72955-7.43894C34.90838 142.20485 45 151.41754 45 163.39265c0 3.92904-.5109 5.27209-2.92308 7.68427-3.44288 3.44289-5.4424 3.6161-9.76684.84607zm175.79174-2.82117c-4.43769-4.43769-3.36855-13.55598 2.29337-19.55937 5.45078-5.77951 12.58497-4.67841 14.66478 2.26338C227.51298 159.99325 220.95966 171 213.63192 171c-2.23365 0-4.36271-.73079-5.5301-1.89818zm-146.31046-1.09023c-6.66084-2.00787-12.89964-9.44295-14.28321-17.022C46.23329 144.00608 50.73225 138 57.23822 138c4.95562 0 8.51672 1.87947 13.03313 6.87859 6.95982 7.70369 7.158 18.05962.42418 22.1655-3.4375 2.09597-4.70407 2.2336-8.90417.9675zm28.04853-8.89817c-11.28677-7.15786-11.71622-23.72284-.72348-27.90671 7-2.66421 16.30251 2.10328 20.00393 10.25192 6.57962 14.48501-6.04713 26.04711-19.28045 17.65479zm97.45866-3.07294C183.17996 153.52923 181 149.2427 181 143.65542c0-8.52907 8.60535-13.83465 16.42247-10.12519 12.58523 5.97209 10.39545 24.47837-2.89498 24.46603-2.22841-.002-5.45758-.87571-7.22894-1.95578zM3.99918 156.25c-.00045-.4125-.6279-3.9-1.39435-7.75C.17813 136.3102-.00603 134 1.44893 134c3.23705 0 6.76764 14.01667 5.15202 20.45381-.57171 2.27788-2.59972 3.67795-2.60177 1.79619zm123.68462-6.68724c-5.1475-1.85144-7.29688-3.98275-9.29629-9.21814-2.92625-7.66227.93729-15.77563 8.9738-18.8448 8.14364-3.11009 17.24649 1.61623 19.54367 10.14731 3.12207 11.59447-7.99268 21.95428-19.22118 17.91563zm-114.77145-4.65041c-5.15679-5.15679-6.71174-17.35508-2.83977-22.27749 2.67358-3.39891 5.38004-3.33609 8.92325.20712C26.23911 130.08526 25.08325 147 17.34501 147c-1.28975 0-3.28445-.93944-4.43266-2.08765zm228.83191-.50142c-.40934-.40934-.79601-3.93176-.85926-7.8276-.0909-5.59625-.26326-6.34854-.82123-3.58333-2.66853 13.22495-12.60718 14.80726-13.81857 2.20003C225.44267 126.848 229.69726 118 234.51588 118c2.85966 0 5.48412 3.42813 5.48412 7.16349 0 4.06709 1.68689 4.31907 2.42908.36284.35661-1.90089 1.14413-3.76256 1.75004-4.13703.79029-.48843.90224 1.83343.3961 8.21492-.84902 10.70454-1.82556 15.81211-2.83096 14.80671zM33.50923 137.8286c-8.54903-6.72467-8.41873-22.51978.21976-26.63919 3.22251-1.53671 3.61699-1.51752 7.0118.34114 4.57215 2.50325 7.14234 6.00309 8.3475 11.36685 2.72271 12.11793-7.13935 21.56988-15.57906 14.9312zm127.99077.17631c-10.512-5.23896-12.39401-19.44101-3.31018-24.97928 6.56417-4.00205 14.47496-1.61459 19.53638 5.89605 4.51856 6.70509 1.86979 16.67787-5.21598 19.6385-4.55797 1.90444-6.24556 1.81933-11.01022-.55527zm50.74138-2.33851c-4.10316-2.26356-5.70719-5.72096-5.72488-12.33965-.0126-4.72794.47567-6.83507 2.08565-9 4.25754-5.7251 10.14924-5.40335 13.7858.75286 1.90615 3.22685 2.32804 11.00016.80979 14.92039-1.9666 5.07791-7.15708 7.76232-10.95636 5.6664zM64.5 132.03579C59.34867 129.87884 55 122.99614 55 117c0-4.47034 2.2834-9.21923 5.89346-12.2569 4.46957-3.76089 8.90594-4.36777 14.34408-1.96222 11.3309 5.01219 12.3568 20.85858 1.81051 27.96572-3.4312 2.31229-8.78981 2.86283-12.54805 1.28919zM1.25 125.3034c-2.45504-.92322-.39607-27.8521 2.06678-27.03114 4.42305 1.47435 7.05193 13.75529 4.52078 21.11908-1.38243 4.02189-4.40366 6.73332-6.58756 5.91206zm96.99086-4.298c-7.30777-4.4556-9.50386-14.21082-4.76807-21.18016 3.05627-4.49771 9.77711-7.37614 14.95464-6.40483C115.00218 94.65384 121 101.85133 121 108.50772c0 3.9551-3.72293 10.35261-7.29034 12.52777-4.22857 2.5783-11.21299 2.56471-15.4688-.0301zm92.05769.0776c-4.62274-2.88008-6.62488-7.33508-6.0386-13.43661.40184-4.18197 1.08733-5.57657 4.09663-8.3344 3.99815-3.66402 7.13073-4.14562 11.67615-1.7951 6.95037 3.59418 8.41181 14.88889 2.71727 21.00047-4.10154 4.40192-8.16139 5.23846-12.45145 2.56564zM136.5 113.63713c-5.60056-2.60158-8.78564-7.03638-9.27282-12.9112-.38633-4.65859-.1086-5.71341 2.23889-8.50324 7.284-8.65653 22.17065-4.84266 25.58542 6.55484 1.53066 5.10888-.12723 10.44326-4.18794 13.47502-3.36608 2.51315-10.46159 3.19712-14.36355 1.38458zm101.75754-2.03685c-4.28681-5.4498-5.17147-22.10028-1.17421-22.10028 3.90861 0 7.75739 18.81226 4.68012 22.87573-1.36591 1.80365-1.50062 1.77386-3.50591-.77545zm-221.14067-.23097c-5.16514-3.61781-6.80003-15.14973-3.15947-22.28581 4.32974-8.487 13.31133-6.22666 16.0775 4.04611 1.69128 6.28093-.15685 13.95377-4.17547 17.33522-3.5079 2.9517-5.52221 3.16009-8.74256.90448zM225.7966 109.25c-5.69987-6.59104-4.56396-23.92654 1.51114-23.06198 3.34957.47668 5.68889 6.16577 5.69072 13.83947.002 9.25987-3.40088 13.61777-7.20186 9.22251zm-181.77666-6.977C34.43577 97.39014 33.1702 84.76968 41.48555 77c7.35942-6.87648 19.51751.41377 19.5129 11.70034-.0042 10.19247-9.19386 17.53873-16.97852 13.57266zm124.31298.60497C163.64924 101.55856 160 96.71924 160 91.82757c0-11.70267 12.87883-16.90195 20.75-8.37692 8.30769 8.99781-.50348 22.78344-12.41709 19.42732zm42.50151-1.25156c-6.03118-2.95096-7.3869-14.58019-2.33519-20.03108 5.34282-5.765 12.50389-.76172 12.49703 8.7314-.006 8.7459-4.70432 13.96995-10.16184 11.29968zM76.25623 94.35534c-6.84482-3.37436-9.83625-14.3959-5.49762-20.25524 8.45124-11.41342 24.2416-8.1486 26.83057 5.54752.84851 4.48881-2.59733 11.77727-6.77115 14.32197-3.99092 2.43318-10.08136 2.59452-14.5618.38575zm-70.13918-5.7143c-.8461-1.0195-.7436-2.45588.41036-5.75C8.90055 76.11661 15.22111 63 16.11238 63c1.2894 0 2.1682 6.68825 1.4125 10.75-1.05088 5.64837-4.54454 13.15036-6.88872 14.7923-2.56937 1.79965-3.0979 1.8112-4.51911.09873zm105.29425-1.53199c-6.82444-4.1615-9.52765-10.50149-7.02818-16.48356 3.12173-7.47135 13.06489-9.89714 21.1489-5.1596 6.64624 3.89496 9.03459 10.60395 5.91943 16.628-3.34947 6.47715-13.48363 9.0133-20.04015 5.01516zm79.17759-2.18577c-3.78702-4.50063-3.64168-11.02434.33419-15.0002 4.78033-4.78033 10.82275-3.16898 13.66999 3.64543 4.26224 10.20096-7.17318 19.47294-14.00418 11.35477zM227.98904 79.75c-1.08986-1.7875-2.01995-4.15-2.06688-5.25-.0635-1.48857-.44875-1.16893-1.5066 1.25-1.65918 3.79395-3.67369 4.14725-5.85886 1.0275-1.09901-1.56907-1.5522-4.5827-1.54139-10.25.0226-11.86572 2.08403-13.7499 5.47392-5.00334.91438 2.35927 1.32999 2.88262 1.02217 1.28713-.84449-4.37713 1.1086-4.12243 3.4211.44613 1.61509 3.19078 2.00889 3.56081 1.58844 1.49258-.30747-1.5125-.29628-2.75.0249-2.75.63589 0 7.81341 15.10134 8.91168 18.75 1.1677 3.87927-1.00843 2.45502-3.68472-2.4116l-2.56353-4.6616.52543 4.6616c.63172 5.60462-.84889 6.1626-3.74564 1.4116zM231 71.5c0-.275-.225-.5-.5-.5s-.5.225-.5.5.225.5.5.5.5-.225.5-.5zm-6-2c0-.275-.225-.5-.5-.5s-.5.225-.5.5.225.5.5.5.5-.225.5-.5zm5-1c0-.275-.225-.5-.5-.5s-.5.225-.5.5.225.5.5.5.5-.225.5-.5zm-82.73031 12.06508c-3.40322-1.5297-7.25964-6.79154-7.26595-9.91395-.007-3.24098 2.93359-8.1829 5.91671-9.94507 4.67308-2.76045 10.41234-2.23078 14.4745 1.33585 4.21326 3.69929 5.22693 7.53396 3.24528 12.27672-2.60056 6.224-10.07523 9.0761-16.37054 6.24645zM26.45454 72.54546c-3.50346-3.50347-3.42364-10.65054.18102-16.20976C33.88646 45.15314 46 46.81166 46 58.98697c0 11.2038-12.93044 20.1735-19.54546 13.55849zm148.73133-2.04251c-3.62985-3.05432-4.63585-6.60947-3.1469-11.12103 1.7177-5.2047 8.26316-7.89614 13.01642-5.35228C187.31849 55.24082 190 60.05308 190 62.9033 190 68.05052 185.15989 73 180.12639 73c-1.08512 0-3.30835-1.12367-4.94052-2.49705zm33.43551-1.02443c-3.04222-3.04221-1.09144-16.57661 2.48813-17.2626 1.83048-.3508 3.46253 3.14081 4.33956 9.28408.98329 6.88748-3.12176 11.68445-6.82769 7.97852zM57.27411 64.4353c-12.16488-9.58788 1.29302-28.48373 14.53607-20.40966 6.98132 4.25639 7.7923 13.57188 1.71095 19.65323-2.8536 2.8536-4.00388 3.31957-8.17113 3.31004-3.67143-.0084-5.6339-.62893-8.0759-2.55361zM93.5 61.59749c-4.30518-1.90035-6.60105-4.88223-7.13727-9.26987-.65696-5.3756 2.21577-9.61933 8.00947-11.83197 5.94838-2.2717 10.72004-1.35447 15.43571 2.96712 3.04266 2.7884 3.64664 4.01123 3.64664 7.3832 0 8.73433-11.04388 14.68478-19.95455 10.75151zm101.90418-3.1034c-1.39046-2.1221-1.44984-2.96964-.3877-5.53388 2.72842-6.58699 10.30292-9.3801 11.41747-4.21021.64471 2.99057-.6579 8.61-2.51438 10.84692-1.94012 2.3377-6.66175 1.7262-8.51539-1.10282zm-67.01606-.47416C125.19838 56.73113 122 52.09747 122 48.76514c0-2.03879 1.06221-4.02735 3.4-6.36514 2.89168-2.89168 4.09514-3.4 8.04966-3.4C141.52659 39 146 42.56438 146 49c0 4.18448-1.45661 6.66764-4.97998 8.48965-3.16679 1.6376-9.2584 1.89333-12.6319.53028zm30.24674-5.09251C152.44463 48.05818 157.88519 39 167 39c9.68229 0 13.47663 9.2998 5.72316 14.02728-4.30064 2.6222-10.68529 2.57695-14.0883-.09986zm62.11506-.57693l-1.20719-2.64951-.6189 2.3995-.6189 2.39952-1.32591-2.77838c-.93171-1.95234-1.5572-2.40413-2.10387-1.51961-.53054.85843-1.22685.19117-2.1894-2.09806-.85874-2.04235-1.68799-2.90934-2.11769-2.21407C209.49492 47.62625 208 46.1896 208 43.42193c0-2.1247-.34079-2.3745-2.5-1.83257-2.74377.68864-3.47404-1.21532-1.3-3.38936.93333-.93333.21111-1.20707-3.25-1.2318-3.99104-.02852-4.26297-.1736-2.63658-1.40662 1.68393-1.27664 1.59468-1.42285-1.25-2.04765-3.55575-.78097-4.11508-2.51218-.81342-2.51767 1.95828-.0033 1.79622-.29058-1.25-2.21616-3.24903-2.05379-3.33751-2.23792-1.23397-2.56792 1.24632-.19551 3.80462.59542 5.68512 1.75763C205.82557 31.9094 225.97698 55 223.0407 55c-.59597 0-1.62682-1.19228-2.29078-2.64951zm-199.15584.91025c-.70068-.70067 7.21235-10.68066 12.85982-16.21895 5.18873-5.0884 6.06085-3.8023 2.46235 3.63122-3.08368 6.37003-13.2159 14.69402-15.32217 12.58773zm164.06091-4.08948c-2.23997-2.47513-2.08274-5.74351.39552-8.22177 1.6431-1.6431 3.08357-1.9908 7.25-1.75 4.56412.26379 5.23948.58267 5.52678 2.60954.22914 1.61664-.76677 3.34086-3.32121 5.75-4.05722 3.82646-7.35832 4.36672-9.85109 1.61223zM46.34714 41.53059c-2.77967-1.94696-3.36302-4.58755-1.82273-8.25081 3.70946-8.82222 17.37853-14.37684 22.57976-9.17561 4.04392 4.04392.63373 11.2842-7.51677 15.95908-5.61247 3.21915-10.03885 3.7097-13.24026 1.46734zm31.57594-4.45367C75.92076 35.07461 75 33.15447 75 30.98122c0-10.797 14.65935-17.47572 22.07692-10.05814 3.47886 3.47886 3.76898 7.17727.92848 11.83606-4.58613 7.52185-14.70307 9.69703-20.08232 4.31778zM115.5 36.5389c-7.29676-2.6702-9.43559-7.69422-5.11495-12.01486 6.23674-6.23674 21.50812-4.78218 23.26452 2.21588 1.9562 7.7941-8.3794 13.3743-18.14957 9.79898zm36 .5539c-7.68394-1.90945-10.83861-5.76779-7.36322-9.0056C149.74911 22.8585 167 25.83621 167 32.03364c0 3.80098-8.88839 6.70212-15.5 5.05914zm24.75-.12396c-3.94106-1.58412-2.54936-6.06553 2.25-7.24523 1.1-.27038.11679-.5438-2.1849-.6076-5.28218-.14643-9.18249-1.60686-10.00321-3.74561-.83883-2.18596 2.18891-4.361 6.12924-4.40305 2.59857-.02773 2.23865-.31579-2.39187-1.91429-8.1655-2.8188-10.40758-7.04899-3.74024-7.0568l3.19098-.0037-3.36278-2.05015c-4.74364-2.892-3.33488-3.38526 2.78218-.97414 7.90369 3.11534 13.20679 6.01858 12.64728 6.92388-.27718.44849.60692 1.32159 1.96468 1.94022 2.80829 1.27954 3.20531 2.94775.91107 3.82813-1.25876.48303-1.11487.81842.75 1.74815 3.34782 1.66908 2.83073 3.81658-1.19243 4.95217l-3.5.98792 5.14882.7041c2.83185.38725 5.64435 1.01035 6.25 1.38466 2.50666 1.5492.88135 3.55034-4.08032 5.0238-5.79826 1.7219-8.27688 1.83065-11.5685.50758zm5.47917-15.573c-.3323-.3323-1.1948-.36783-1.91667-.07896-.79773.31923-.56078.55619.60417.60417 1.05416.04342 1.64479-.19293 1.3125-.52522zM180 15.5c0-.275-.225-.5-.5-.5s-.5.225-.5.5.225.5.5.5.5-.225.5-.5zm13.40451 8.3455c-.44208-.7153-.27432-.88307.44098-.441.63498.39245 1.15451.91198 1.15451 1.15452 0 .83414-.88305.43922-1.59549-.71353zm-53.9049-2.23141C130.39246 17.645 133.96213 12 145.57917 12c11.81522 0 18.89333 6.89663 10.19143 9.93012-4.1535 1.44792-12.59999 1.28386-16.27099-.31603zm-31.47905-3.67611c-8.78346-3.69584-7.72501-9.47976 2.19085-11.97188 8.2543-2.07452 18.57188 1.79087 17.62624 6.60352-.18571.94513-1.5691 2.63696-3.07421 3.75962-3.15376 2.35239-12.77784 3.27712-16.74288 1.60874zm-33.79273-.97734c-5.95942-2.39354-3.42298-6.91525 5.79592-10.33238C90.36883 2.7937 96 3.31636 96 8.11111c0 2.58292-5.46238 6.65175-11.22892 8.36423-5.78408 1.71769-7.301 1.78751-10.54325.4853zM138.67 8.56678C132.7649 6.97958 129.71464 4.42429 132 2.97915c5.58719-3.53306 29.35837 2.3951 24 5.98522-2.06817 1.38568-11.50057 1.16927-17.33001-.3976zM105 2.84512c-2.46068-1.12919-2.43709-1.15968 1.5-1.93855 2.2-.43522 7.80893-.81724 12.46429-.84894 7.92151-.05393 8.35672.04993 6.78696 1.6197C123.66317 3.7654 108.82509 4.60043 105 2.84513z" display="inline"/><path fill="#fbc764" d="M118.17668 243.35598c.17782-.90421 1.59333-2.59171 3.14556-3.75 2.37474-1.77205 4.23307-2.10598 11.71976-2.10598 7.86002 0 9.15692.25912 11.1222 2.22222 1.22358 1.22222 2.0133 2.43361 1.75493 2.69198-.98648.98648-13.73436 2.57102-20.74245 2.57825-6.26155.006-7.27645-.23081-7-1.63647zM99 242.9358C86.81681 240.6479 83.5323 238 92.87752 238c5.71244 0 14.40171 2.4266 16.1251 4.50316 1.06329 1.28119.7564 1.48105-2.13018 1.38727-1.85484-.06026-5.39744-.48984-7.87244-.95463zm56-5.03459c0-6.24722 17.87391-14.18924 25.41821-11.29422.86999.33384 1.58179 1.16288 1.58179 1.8423C182 230.31354 160.51019 240 156.37427 240c-.75585 0-1.37427-.94446-1.37427-2.09879zm-50.14335-1.4168c-9.0614-2.89353-13.44412-9.83281-8.84115-13.99843 2.64262-2.39155 11.64043-3.12222 17.66762-1.43471 9.80873 2.74627 14.59437 10.75513 8.72476 14.60104-3.45766 2.26555-11.82059 2.66204-17.55123.8321zm-32.47415-2.39816c-6.92959-3.14684-9.42469-8.92812-5.4181-12.55403 3.06013-2.76938 12.7383-1.7591 17.43006 1.81949 4.96343 3.78578 5.71282 7.2991 2.2012 10.31967-3.33842 2.87159-8.47323 3.02147-14.21316.41487zm66.61801-.1522c-7.65929-3.23038-9.5106-10.78685-3.92181-16.00757 3.13335-2.92698 8.41246-4.92849 12.9213-4.89894 4.62385.0303 10.55446 3.48262 12.00707 6.98953 1.20563 2.91065 1.14224 3.66243-.57619 6.83273-1.06199 1.95924-3.34995 4.3856-5.08437 5.39191-3.84671 2.23187-11.94839 3.12531-15.346 1.69234zm-86.89688-10.67622c-5.67734-3.85083-5.49578-5.89938.2103-2.37283 3.6264 2.24124 7.5355 6.13941 6.09106 6.07404-.49775-.0225-3.33336-1.68807-6.30136-3.70121zM190 222.14079c0-5.03096 17.27893-18.26186 20.12817-15.41262.68956.68956-2.11893 3.63481-8.71985 9.1445C196.05297 220.3427 191.29526 224 190.83565 224c-.45961 0-.83565-.83664-.83565-1.85921zm-20.36514-3.21337c-7.09817-5.58342.15018-16.07463 12.67742-18.34921 10.34191-1.8778 16.33061 5.93901 10.16438 13.26716-5.61513 6.67321-17.46675 9.31006-22.8418 5.08205zm-114.63435-.06019C44.29605 214.63869 41.17584 199 51.03663 199 56.21821 199 64 207.55967 64 213.25921c0 4.73617-4.34785 7.44553-8.99949 5.60802zm23.89982-.85819C73.45051 215.12859 69 209.55942 69 205.62019c0-4.88905 2.99017-7.13181 9.42705-7.07071C90.67082 198.66569 101.55743 211.44257 95 218c-2.65908 2.65908-11.07683 2.66381-16.09967.009zM114 215.46347c-7.65851-3.43337-12.31973-10.73-10.50569-16.44553 1.83183-5.77159 13.0959-7.84701 21.22657-3.91101C129.67362 197.50451 134 203.15052 134 207.21636c0 1.6088-1.17649 4.06881-2.83201 5.92166-2.39832 2.68418-3.66173 3.22508-8.25 3.53205-3.48087.23288-6.66937-.19852-8.91799-1.2066zm-79.75727-7.71856c-6.46786-6.52587-7.4803-8.11812-4.49273-7.06564 3.29683 1.16142 8.252 5.42391 9.81179 8.44021 2.83433 5.481 1.00773 5.00896-5.31906-1.37457zM148.5 206.58836c-7.53451-3.34874-10.30828-10.63902-6.31146-16.58836 5.77384-8.59448 19.42969-9.38598 25.64356-1.48632 7.98561 10.15205-6.55979 23.75137-19.3321 18.07468zM203 202c-6.14555-6.14555 3.08844-24 12.41235-24 6.634 0 8.40106 7.23535 3.90735 15.99896C214.82231 202.76975 207.40582 206.40582 203 202zm-168.55467-4.95891c-3.06691-1.24208-8.16227-7.47584-8.91613-10.90816-.96813-4.40784.85937-7.13293 4.78348-7.13293 3.95871 0 6.85785 1.92182 9.6053 6.36729 2.47151 3.99899 2.6966 8.87527.5106 11.06128-1.73412 1.73411-2.9153 1.85503-5.98325.61252zM53.9039 194.75c-8.1848-6.25666-11.2772-16.46761-6.44937-21.29545 3.038-3.03799 5.88243-3.07921 11.04546-.16009 4.63151 2.61862 10.5 11.54825 10.5 15.97704 0 3.04206-1.58312 6.75022-3.3997 7.96319-2.59792 1.73467-7.55401.68184-11.69639-2.48469zm-33.77527-4.54953c-3.43568-5.35405-3.97974-7.15171-1.55555-5.13981 1.8147 1.50606 5.78216 8.91742 5.12532 9.57427-.24262.24261-1.84901-1.75289-3.56977-4.43446zM84.5 192.34115c-7.18828-3.78288-11.5-9.80766-11.5-16.06898 0-5.0213 2.17652-7.94517 6.9873-9.38651 5.67799-1.70117 12.18663.35077 17.5758 5.54101 10.28159 9.90206 7.13631 21.65341-5.76344 21.53329-2.36481-.022-5.64966-.75048-7.29966-1.61881zm99.81471-.80481c-4.24033-1.84424-6.69132-6.69184-5.99779-11.86251.67899-5.06219 3.30019-8.67068 7.99345-11.0042 4.49772-2.2363 8.51694-1.56959 12.09242 2.00588 5.8433 5.8433 3.3806 16.70569-4.60964 20.3321-5.07854 2.30492-5.35866 2.32054-9.47844.52873zm-63.16955-5.60629c-4.42277-1.77143-8.18896-5.09559-10.1678-8.97443-2.4952-4.89099-2.50041-8.58553-.0178-12.65707 6.08931-9.98681 23.36232-7.52806 29.00531 4.1288 2.41766 4.99421 2.49987 6.5247.59535 11.08287-2.62757 6.28866-12.00268 9.38866-19.41502 6.41983zm-106.92312-10.1937C11.24785 172.57047 9 166.75752 9 162.23212c0-9.16447 7.3218-7.88618 11.45227 1.99941 3.99103 9.55188-.41731 17.69238-6.23023 11.50482zm139.20167.29828c-7.5847-3.85487-10.67091-13.83666-6.42911-20.79377 8.17702-13.41138 29.24573-6.84528 27.66991 8.62338-1.08719 10.67219-11.94639 16.89422-21.2408 12.17039zM227.75 173.9199c-2.38511-1.3892-2.31218-10.08556.12966-15.46127C229.54214 154.79869 235.0633 149 236.8856 149c.40268 0 1.60565.64224 2.67327 1.4272 1.90096 1.39767 1.87052 1.63682-1.47111 11.55694-2.11798 6.28752-4.1937 10.67708-5.47251 11.57279-2.41104 1.68877-2.56879 1.70053-4.86525.36297zm-197.2604-4.2303c-6.12831-6.12831-7.0796-16.99856-1.88263-21.51269 3.43013-2.97944 6.77612-2.29173 11.08285 2.27787 10.96864 11.63813 1.98504 30.42007-9.20022 19.23482zm177.61222-.58778c-4.43769-4.43769-3.36855-13.55598 2.29337-19.55937 5.45078-5.77951 12.58497-4.67841 14.66478 2.26338C227.51298 159.99325 220.95966 171 213.63192 171c-2.23365 0-4.36271-.73079-5.5301-1.89818zM58.5 166.1293c-9.33847-5.7999-13.5853-18.46691-8.25-24.6073 7.44028-8.56302 23.39272 1.12457 24.53506 14.89963.42064 5.07232.22299 5.72417-2.5879 8.53505-3.63326 3.63327-8.99603 4.09237-13.69716 1.17262zm31.3399-7.01588c-11.28678-7.15786-11.71623-23.72284-.7235-27.90671 7-2.66421 16.30252 2.10328 20.00394 10.25192 6.57962 14.48501-6.04713 26.04711-19.28045 17.65479zm97.45865-3.07294C183.17996 153.52923 181 149.2427 181 143.65542c0-8.52907 8.60535-13.83465 16.42247-10.12519 12.58523 5.97209 10.39545 24.47837-2.89498 24.46603-2.22841-.002-5.45758-.87571-7.22894-1.95578zM4.18088 153.40899c-1.64856-5.75279-3.18694-14.20588-3.14761-17.29548L1.06654 133.5l1.90232 2.28124c2.7133 3.25376 4.466 12.58261 3.31396 17.63883L5.35324 157.5zm123.50292-3.84623c-5.1475-1.85144-7.29688-3.98275-9.29629-9.21814-2.92625-7.66227.93729-15.77563 8.9738-18.8448 8.14364-3.11009 17.24649 1.61623 19.54367 10.14731 3.12207 11.59447-7.99268 21.95428-19.22118 17.91563zM13.01735 144.1712c-6.1048-6.1048-6.58096-20.19365-.78729-23.29433 4.64813-2.4876 11.18298 6.69129 11.1929 15.72162C23.42943 142.46656 21.02229 147 17.90003 147c-1.12963 0-3.32683-1.27296-4.88267-2.8288zm228.72691.23973c-.40934-.40934-.79601-3.93176-.85926-7.8276-.0909-5.59625-.26326-6.34854-.82123-3.58333-2.66853 13.22495-12.60718 14.80726-13.81857 2.20003C225.44267 126.848 229.69726 118 234.51588 118c2.85966 0 5.48412 3.42813 5.48412 7.16349 0 4.06709 1.68689 4.31907 2.42908.36284.35661-1.90089 1.14413-3.76256 1.75004-4.13703.79029-.48843.90224 1.83343.3961 8.21492-.84902 10.70454-1.82556 15.81211-2.83096 14.80671zm-206.851-5.90784c-3.35786-1.8251-5.5379-5.20617-6.93546-10.7564C25.8773 119.48427 30.29846 111 36.68452 111c11.63917 0 16.95233 20.53753 7.09869 27.4393-2.7272 1.9102-5.45683 1.92978-8.88994.0638zm125.3476-1.49769c-6.56382-4.00201-9.24398-13.2311-5.78491-19.92021 1.53701-2.97226 6.89677-6.08519 10.4773-6.08519 6.60628 0 13.46846 6.40633 14.62773 13.65601 1.75026 10.94552-9.66024 18.2391-19.32012 12.34939zm52.00052-1.339c-4.10316-2.26356-5.70719-5.72096-5.72488-12.33965-.0126-4.72794.47567-6.83507 2.08565-9 4.25754-5.7251 10.14924-5.40335 13.7858.75286 1.90615 3.22685 2.32804 11.00016.80979 14.92039-1.9666 5.07791-7.15708 7.76232-10.95636 5.6664zm-145.99433-3.36367c-3.67004-.721-8.9412-6.45316-10.18631-11.07717-3.5643-13.23681 10.11162-24.25718 21.04138-16.95563 13.4388 8.9777 4.8643 31.12099-10.85507 28.0328zM.31594 123.38094c-.65752-1.71347 1.26252-21.88985 2.23244-23.45922 3.24905-5.25707 7.41392 11.08924 4.914 19.28648-1.52172 4.98969-5.86075 7.5232-7.14644 4.17274zm99.09925-1.80235c-9.50581-4.13883-11.04784-17.30388-2.86804-24.48585 2.97613-2.61307 4.33129-3.09216 8.73765-3.089 9.27812.0067 15.09545 5.79714 14.958 14.88899-.1534 10.14746-11.20183 16.87693-20.82761 12.68586zm88.69975-2.6175c-7.88879-7.88879-2.9314-22.55069 7.52449-22.2543 10.26103.29086 14.16524 16.5821 5.59035 23.3271-3.89853 3.06659-9.42775 2.61429-13.11484-1.0728zM136.02043 112.75c-7.73519-3.95249-10.8078-11.18115-7.61373-17.91215C134.2145 82.59883 155 87.9048 155 101.6264c0 6.22643-2.12793 9.80752-6.98182 11.74966-5.32358 2.13007-6.74951 2.05567-11.99775-.62605zm101.25411-3.5c-1.98025-4.5743-2.41154-19.3417-.5832-19.96889.65523-.22477 1.90444.97031 2.776 2.65573 3.66261 7.0827 4.25581 21.06316.89374 21.06316-.80473 0-2.19367-1.6875-3.08654-3.75zm-221.03361.5c-4.5899-4.89977-5.46817-12.44957-2.26833-19.49895 3.57715-7.8806 10.37685-7.99052 14.27585-.23079 1.91282 3.80687 2.30358 11.39758.79148 15.37471-2.44699 6.43607-8.81865 8.60411-12.799 4.35503zm210.52518.17892c-2.56492-1.49448-5.09995-11.21707-4.30568-16.51361.6718-4.47987 2.91566-7.78995 4.8448-7.1469 4.77148 1.5905 7.4973 15.3452 4.27563 21.57523-1.77007 3.42293-2.19965 3.60898-4.81475 2.08528zm-184.36484-8.82597C39.3212 99.22475 36 92.94534 36 89c0-1.07774.72618-3.77444 1.61374-5.99266 4.2253-10.56005 16.9553-10.75718 21.56598-.33396 5.52983 12.5011-5.90435 25.06048-16.77845 18.42957zm123.3613.33166c-5.73843-3.11364-7.3499-10.78002-3.47601-16.53673 8.09148-12.02415 26.38715-1.54926 20.17165 11.54895-2.88244 6.07429-10.49939 8.34983-16.69564 4.98778zm44.46639-.1039C207.97147 100.42241 206 95.22626 206 90.18451c0-11.46943 10.61145-14.95192 14.02679-4.60334 3.10103 9.3962-2.64241 18.6285-9.79783 15.74954zM77.41519 94.63083c-13.62943-6.16507-9.33566-27.01544 5.56336-27.01544 17.71142 0 18.9289 26.02004 1.30955 27.98776-2.08345.23268-5.17627-.20487-6.87291-.97232zM6.29216 85.58707C6.95906 81.47743 14.93619 64 16.14504 64c1.25235 0 1.04351 11.1384-.28314 15.10078C14.18255 84.11656 10.2145 89 7.81827 89c-1.8085 0-2.00767-.44542-1.52611-3.41293zm105.9785 1.44911c-11.27617-5.11878-10.77064-19.70885.80304-23.1764 9.94033-2.9782 21.01295 6.00493 19.18543 15.56498-1.0002 5.23223-7.52536 9.6426-14.13413 9.55328-.89375-.01208-3.5282-.88592-5.85434-1.94186zm80.47932-.1163C190.43449 85.57125 188 80.7433 188 77.5c0-6.51302 5.94969-11.61022 11.21521-9.60828C202.95209 69.31248 205 72.81997 205 77.79942c0 7.25973-6.77913 12.30697-12.25002 9.12047zm35.42571-7.5755c-2.26224-4.43436-4.60058-15.1152-3.92944-17.94853.57016-2.407 5.35133 7.7082 6.9814 14.77004 1.56095 6.7624-.25745 8.6562-3.05196 3.1785zm7.39919 1.40562c-2.07904-3.17954-5.22166-10.70543-5.95044-14.25-.50026-2.4331-.14535-2.10998 1.87815 1.70989C234.39715 73.67409 238.18415 83 237.50846 83c-.25429 0-1.12441-1.0125-1.93358-2.25zm-89.79974-1.3088C142.2678 77.53783 141 75.08446 141 70.2006c0-10.20133 12.63572-14.71872 20.15046-7.20398 4.69515 4.69514 3.46201 13.60106-2.29549 16.57838-3.52653 1.82364-9.58708 1.76164-13.07983-.1338zm72.67383-3.90908c-2.3551-5.63656-1.67134-19.08347.92835-18.257 2.79923.88992 5.74111 15.64672 4.01569 20.1431-1.02594 2.67356-3.42058 1.76003-4.94404-1.8861zM30 74.26569c-5.28987-1.85733-7.1607-7.93792-4.54754-14.78039 3.83957-10.05377 15.19085-13.94332 19.02935-6.52047 2.0677 3.99848 1.90684 7.60088-.56764 12.71247-2.9524 6.09885-9.4979 10.139-13.91417 8.5884zm147.357-2.23574c-8.19895-3.39107-6.55106-16.94081 2.2658-18.63058 2.53814-.48644 3.75083-.03734 6.47727 2.39874 2.77376 2.47835 3.35448 3.7074 3.35448 7.09955 0 6.5498-6.49219 11.45066-12.09755 9.1323zm31.03375-3.55635c-1.80613-2.7565-1.47561-8.9985.73318-13.84625 1.60254-3.51719 2.69282-3.31019 4.4271.84053 1.93939 4.64163 1.87517 11.96306-.12246 13.9607-2.16181 2.1618-3.11388 1.98133-5.03782-.95498zM60.41844 66.03115c-1.14486-.46315-3.28236-2.26915-4.75-4.01334-7.31589-8.69444 1.58905-21.9944 12.67652-18.933 10.32552 2.851 11.86137 17.74221 2.29796 22.28035-3.73968 1.77459-6.9648 1.98466-10.22448.66599zm29.8396-7.43348c-3.12688-2.86557-3.71258-4.04934-3.71258-7.5035 0-6.13206 4.45734-10.264 11.72223-10.86646 6.48315-.53764 10.97906 1.41498 13.21538 5.73956C115.92541 54.55779 110.14715 62 99.03497 62c-4.366 0-5.57628-.46916-8.77693-3.40233zM196.75 59.9199c-3.0449-1.77349-2.24288-7.04985 1.64427-10.81742 4.69379-4.5494 7.01766-3.93345 7.40258 1.9621.47563 7.28471-4.08279 11.74662-9.04685 8.85532zm-68.53743-2.4265c-7.61995-3.31072-7.33283-13.8739.46568-17.13232 5.43833-2.27228 11.12917-1.25963 14.57175 2.59295 7.89204 8.83198-3.28981 19.64347-15.03743 14.53936zm32.18709-3.87367c-5.09127-2.29464-5.86567-6.881-1.84134-10.90532 4.85281-4.85281 13.60242-4.4511 17.03123.78192 4.27249 6.52064-6.80426 13.9028-15.18989 10.1234zm61.00485-.77424c-.44208-.7153-.27432-.88306.44098-.44098 1.15275.71244 1.54767 1.59549.71353 1.59549-.24254 0-.76207-.51953-1.15451-1.1545zM22.59905 51.75C24.001 49.30615 33.87106 37.45969 36.55456 35l2.72749-2.5-.69105 3c-.9772 4.24222-6.93077 12.58887-10.87765 15.25-3.66609 2.4718-6.24827 2.9767-5.1143 1zm193.97292-1.5c-1.11358-2.05267-1.50205-2.29128-1.53193-.94098-.0609 2.75195-1.79612 1.07802-2.57942-2.48833-.57879-2.63519-.84932-2.8775-1.6384-1.4675C209.46879 47.77164 208 46.41215 208 42.741c0-2.443-.26667-2.87432-1.2-1.94099-3.03527 3.03527-5.12434.32086-2.22161-2.88662 1.48204-1.63763 1.32944-1.7107-2.5-1.19707-2.69086.36092-4.07839.16202-4.07839-.58464 0-.62242.7875-1.17761 1.75-1.23376.9625-.05615.2875-.57124-1.5-1.14466-3.74764-1.20221-4.28773-2.72375-1-2.8172 1.95452-.05556 1.82319-.27637-1-1.68143-3.96439-1.97301-4.26613-3.54618-.5-2.6068 5.67572 1.41569 21.79452 17.82478 22.89002 23.30226.75802 3.79012-.10656 3.9155-2.06805.29992zm-30.34946-.8067c-2.78507-1.95074-2.8577-5.55849-.16104-7.99893 1.43782-1.3012 3.63113-1.87752 7.25-1.90499 4.51609-.03428 5.22722.23146 5.48708 2.0504.20022 1.4014-1.03596 3.29542-3.75288 5.75-4.52345 4.08666-5.61895 4.34784-8.82316 2.10352zM48.1935 42.2613c-2.89824-.52173-4.6634-4.25293-3.74434-7.91476 1.0222-4.07276 7.53048-9.80094 12.81761-11.28124 6.4223-1.79813 10.11096-.01474 10.53782 5.09484.61848 7.4034-10.88184 15.67259-19.6111 14.10116zM82 39.29057c-4.89763-1.80083-7.31614-6.56174-5.91364-11.64119 2.3945-8.67213 14.92647-12.63655 20.93908-6.62394 2.41302 2.41302 2.59709 7.87004.40824 12.1028C95.06135 37.71583 86.74642 41.0358 82 39.29057zm33-2.9968c-3.04148-1.11183-6-4.7083-6-7.29377 0-4.51717 4.10164-7.35002 11.28231-7.79227 5.27902-.32513 6.74608-.02403 9.71769 1.9945 2.85441 1.9389 3.5 3.00833 3.5 5.79777 0 4.82657-4.81277 8.03068-11.89788 7.92105-2.80617-.04342-5.77712-.3257-6.60212-.62728zm32-1.04532C139.43946 31.47153 143.17928 26 153.32138 26c8.67437 0 14.63223 3.35137 13.09222 7.36455-1.44882 3.77558-13.32072 4.92763-19.4136 1.8839zm28.2.55155c-3.01658-3.01658.1024-5.80375 6.48426-5.79442C186.5201 30.01265 193 31.78352 193 33.09803c0 3.0266-15.17228 5.32969-17.8 2.70197zm-5.36399-7.87514c-6.96358-2.70334-2.15427-7.6227 6.34937-6.49466 8.86242 1.17564 14.39709 4.36483 10.30205 5.93625-3.09731 1.18855-14.07954 1.55684-16.65142.55841zm-27.89441-5.87309c-7.94802-2.41175-9.32297-6.15883-3.19885-8.71765C145.70884 10.42352 159 13.5352 159 18.07672c0 3.81388-9.94915 6.1323-17.0584 3.97506zm30.90702-2.43963c-5.62506-1.51515-10.12583-4.307-9.55315-5.92588.25186-.71193 2.17596-1.11297 4.81209-1.00297l4.39244.1833-4.75-2.45247c-6.22184-3.21238-6.05852-3.9007.32822-1.38329 6.94731 2.73837 13.26356 6.22175 9.92178 5.4718-1.44956-.3253-.53305.49504 2.18123 1.95238 2.57467 1.38238 4.96373 2.97052 5.30901 3.5292.87225 1.41132-6.86625 1.18356-12.64162-.37207zm1.81805-6.2788c-.36667-.36667-.96667-.36667-1.33334 0C172.96667 13.7 173.26667 14 174 14s1.03333-.3.66667-.66667zm-65.96642 4.4522c-4.64741-1.23256-7.32431-4.75096-5.79243-7.6133 3.19322-5.96659 22.6386-5.32743 24.58595.80814.95221 3.00014-1.64699 5.56897-6.99818 6.91641-5.07618 1.2782-6.61099 1.26372-11.79534-.11125zm-36.17362-2.40177c-2.48172-2.48172.06898-5.412 7.08392-8.13808 8.10899-3.15123 12.44866-3.71383 14.84988-1.92513 1.70172 1.26764 1.80078 1.81074.7506 4.11562-2.61642 5.74243-18.67832 9.95367-22.6844 5.9476zM141.5 8.88871c-6.11967-1.39283-9.5-2.99082-9.5-4.49098 0-2.17632 4.92509-2.81767 12.13856-1.5807C151.85754 4.14069 156 5.79485 156 7.55353c0 2.52025-6.61631 3.12949-14.5 1.33518zm-34-5.53924c-4.68506-1.2734-3.17465-2.19654 4.64825-2.84095C116.74171.13014 122.075-.02657 124 .16028c3.42899.33283 3.45332.36635 1.19904 1.65217-2.46035 1.40338-14.38177 2.43866-17.69904 1.53702z" display="inline"/><path fill="#94b4d0" d="M118.17668 243.35598c.17782-.90421 1.59333-2.59171 3.14556-3.75 2.37474-1.77205 4.23307-2.10598 11.71976-2.10598 7.86002 0 9.15692.25912 11.1222 2.22222 1.22358 1.22222 2.0133 2.43361 1.75493 2.69198-.98648.98648-13.73436 2.57102-20.74245 2.57825-6.26155.006-7.27645-.23081-7-1.63647zM99 242.9358C86.81681 240.6479 83.5323 238 92.87752 238c5.71244 0 14.40171 2.4266 16.1251 4.50316 1.06329 1.28119.7564 1.48105-2.13018 1.38727-1.85484-.06026-5.39744-.48984-7.87244-.95463zm56-5.03459c0-6.24722 17.87391-14.18924 25.41821-11.29422.86999.33384 1.58179 1.16288 1.58179 1.8423C182 230.31354 160.51019 240 156.37427 240c-.75585 0-1.37427-.94446-1.37427-2.09879zm-50.14335-1.4168c-9.0614-2.89353-13.44412-9.83281-8.84115-13.99843 2.64262-2.39155 11.64043-3.12222 17.66762-1.43471 9.80873 2.74627 14.59437 10.75513 8.72476 14.60104-3.45766 2.26555-11.82059 2.66204-17.55123.8321zm-32.47415-2.39816c-6.92959-3.14684-9.42469-8.92812-5.4181-12.55403 3.06013-2.76938 12.7383-1.7591 17.43006 1.81949 4.96343 3.78578 5.71282 7.2991 2.2012 10.31967-3.33842 2.87159-8.47323 3.02147-14.21316.41487zm66.61801-.1522c-7.65929-3.23038-9.5106-10.78685-3.92181-16.00757 3.13335-2.92698 8.41246-4.92849 12.9213-4.89894 4.62385.0303 10.55446 3.48262 12.00707 6.98953 1.20563 2.91065 1.14224 3.66243-.57619 6.83273-1.06199 1.95924-3.34995 4.3856-5.08437 5.39191-3.84671 2.23187-11.94839 3.12531-15.346 1.69234zm-86.89688-10.67622c-5.67734-3.85083-5.49578-5.89938.2103-2.37283 3.6264 2.24124 7.5355 6.13941 6.09106 6.07404-.49775-.0225-3.33336-1.68807-6.30136-3.70121zM190 222.14079c0-5.03096 17.27893-18.26186 20.12817-15.41262.68956.68956-2.11893 3.63481-8.71985 9.1445C196.05297 220.3427 191.29526 224 190.83565 224c-.45961 0-.83565-.83664-.83565-1.85921zm-20.36514-3.21337c-7.09817-5.58342.15018-16.07463 12.67742-18.34921 10.34191-1.8778 16.33061 5.93901 10.16438 13.26716-5.61513 6.67321-17.46675 9.31006-22.8418 5.08205zm-114.63435-.06019C44.29605 214.63869 41.17584 199 51.03663 199 56.21821 199 64 207.55967 64 213.25921c0 4.73617-4.34785 7.44553-8.99949 5.60802zm23.89982-.85819C73.45051 215.12859 69 209.55942 69 205.62019c0-4.88905 2.99017-7.13181 9.42705-7.07071C90.67082 198.66569 101.55743 211.44257 95 218c-2.65908 2.65908-11.07683 2.66381-16.09967.009zM114 215.46347c-7.65851-3.43337-12.31973-10.73-10.50569-16.44553 1.83183-5.77159 13.0959-7.84701 21.22657-3.91101C129.67362 197.50451 134 203.15052 134 207.21636c0 1.6088-1.17649 4.06881-2.83201 5.92166-2.39832 2.68418-3.66173 3.22508-8.25 3.53205-3.48087.23288-6.66937-.19852-8.91799-1.2066zm-79.75727-7.71856c-6.46786-6.52587-7.4803-8.11812-4.49273-7.06564 3.29683 1.16142 8.252 5.42391 9.81179 8.44021 2.83433 5.481 1.00773 5.00896-5.31906-1.37457zM148.5 206.58836c-7.53451-3.34874-10.30828-10.63902-6.31146-16.58836 5.77384-8.59448 19.42969-9.38598 25.64356-1.48632 7.98561 10.15205-6.55979 23.75137-19.3321 18.07468zM203 202c-6.14555-6.14555 3.08844-24 12.41235-24 6.634 0 8.40106 7.23535 3.90735 15.99896C214.82231 202.76975 207.40582 206.40582 203 202zm-168.55467-4.95891c-3.06691-1.24208-8.16227-7.47584-8.91613-10.90816-.96813-4.40784.85937-7.13293 4.78348-7.13293 3.95871 0 6.85785 1.92182 9.6053 6.36729 2.47151 3.99899 2.6966 8.87527.5106 11.06128-1.73412 1.73411-2.9153 1.85503-5.98325.61252zM53.9039 194.75c-8.1848-6.25666-11.2772-16.46761-6.44937-21.29545 3.038-3.03799 5.88243-3.07921 11.04546-.16009 4.63151 2.61862 10.5 11.54825 10.5 15.97704 0 3.04206-1.58312 6.75022-3.3997 7.96319-2.59792 1.73467-7.55401.68184-11.69639-2.48469zm-33.77527-4.54953c-3.43568-5.35405-3.97974-7.15171-1.55555-5.13981 1.8147 1.50606 5.78216 8.91742 5.12532 9.57427-.24262.24261-1.84901-1.75289-3.56977-4.43446zM84.5 192.34115c-7.18828-3.78288-11.5-9.80766-11.5-16.06898 0-5.0213 2.17652-7.94517 6.9873-9.38651 5.67799-1.70117 12.18663.35077 17.5758 5.54101 10.28159 9.90206 7.13631 21.65341-5.76344 21.53329-2.36481-.022-5.64966-.75048-7.29966-1.61881zm99.81471-.80481c-4.24033-1.84424-6.69132-6.69184-5.99779-11.86251.67899-5.06219 3.30019-8.67068 7.99345-11.0042 4.49772-2.2363 8.51694-1.56959 12.09242 2.00588 5.8433 5.8433 3.3806 16.70569-4.60964 20.3321-5.07854 2.30492-5.35866 2.32054-9.47844.52873zm-63.16955-5.60629c-4.42277-1.77143-8.18896-5.09559-10.1678-8.97443-2.4952-4.89099-2.50041-8.58553-.0178-12.65707 6.08931-9.98681 23.36232-7.52806 29.00531 4.1288 2.41766 4.99421 2.49987 6.5247.59535 11.08287-2.62757 6.28866-12.00268 9.38866-19.41502 6.41983zm-106.92312-10.1937C11.24785 172.57047 9 166.75752 9 162.23212c0-9.16447 7.3218-7.88618 11.45227 1.99941 3.99103 9.55188-.41731 17.69238-6.23023 11.50482zm139.20167.29828c-7.5847-3.85487-10.67091-13.83666-6.42911-20.79377 8.17702-13.41138 29.24573-6.84528 27.66991 8.62338-1.08719 10.67219-11.94639 16.89422-21.2408 12.17039zM227.75 173.9199c-2.38511-1.3892-2.31218-10.08556.12966-15.46127C229.54214 154.79869 235.0633 149 236.8856 149c.40268 0 1.60565.64224 2.67327 1.4272 1.90096 1.39767 1.87052 1.63682-1.47111 11.55694-2.11798 6.28752-4.1937 10.67708-5.47251 11.57279-2.41104 1.68877-2.56879 1.70053-4.86525.36297zm-197.2604-4.2303c-6.12831-6.12831-7.0796-16.99856-1.88263-21.51269 3.43013-2.97944 6.77612-2.29173 11.08285 2.27787 10.96864 11.63813 1.98504 30.42007-9.20022 19.23482zm177.61222-.58778c-4.43769-4.43769-3.36855-13.55598 2.29337-19.55937 5.45078-5.77951 12.58497-4.67841 14.66478 2.26338C227.51298 159.99325 220.95966 171 213.63192 171c-2.23365 0-4.36271-.73079-5.5301-1.89818zM58.5 166.1293c-9.33847-5.7999-13.5853-18.46691-8.25-24.6073 7.44028-8.56302 23.39272 1.12457 24.53506 14.89963.42064 5.07232.22299 5.72417-2.5879 8.53505-3.63326 3.63327-8.99603 4.09237-13.69716 1.17262zm31.3399-7.01588c-11.28678-7.15786-11.71623-23.72284-.7235-27.90671 7-2.66421 16.30252 2.10328 20.00394 10.25192 6.57962 14.48501-6.04713 26.04711-19.28045 17.65479zm97.45865-3.07294C183.17996 153.52923 181 149.2427 181 143.65542c0-8.52907 8.60535-13.83465 16.42247-10.12519 12.58523 5.97209 10.39545 24.47837-2.89498 24.46603-2.22841-.002-5.45758-.87571-7.22894-1.95578zM4.18088 153.40899c-1.64856-5.75279-3.18694-14.20588-3.14761-17.29548L1.06654 133.5l1.90232 2.28124c2.7133 3.25376 4.466 12.58261 3.31396 17.63883L5.35324 157.5zm123.50292-3.84623c-5.1475-1.85144-7.29688-3.98275-9.29629-9.21814-2.92625-7.66227.93729-15.77563 8.9738-18.8448 8.14364-3.11009 17.24649 1.61623 19.54367 10.14731 3.12207 11.59447-7.99268 21.95428-19.22118 17.91563zM13.01735 144.1712c-6.1048-6.1048-6.58096-20.19365-.78729-23.29433 4.64813-2.4876 11.18298 6.69129 11.1929 15.72162C23.42943 142.46656 21.02229 147 17.90003 147c-1.12963 0-3.32683-1.27296-4.88267-2.8288zm228.72691.23973c-.40934-.40934-.79601-3.93176-.85926-7.8276-.0909-5.59625-.26326-6.34854-.82123-3.58333-2.66853 13.22495-12.60718 14.80726-13.81857 2.20003C225.44267 126.848 229.69726 118 234.51588 118c2.85966 0 5.48412 3.42813 5.48412 7.16349 0 4.06709 1.68689 4.31907 2.42908.36284.35661-1.90089 1.14413-3.76256 1.75004-4.13703.79029-.48843.90224 1.83343.3961 8.21492-.84902 10.70454-1.82556 15.81211-2.83096 14.80671zm-206.851-5.90784c-3.35786-1.8251-5.5379-5.20617-6.93546-10.7564C25.8773 119.48427 30.29846 111 36.68452 111c11.63917 0 16.95233 20.53753 7.09869 27.4393-2.7272 1.9102-5.45683 1.92978-8.88994.0638zm126.32492-1.11037c-5.33033-2.71785-7.71818-6.96401-7.71818-13.72475 0-5.32317.28495-6.08663 3.26578-8.75 9.69565-8.66307 25.70217 2.20305 22.23153 15.09201-2.02723 7.52855-10.55125 11.06813-17.77913 7.38274zm51.0232-1.72632c-4.10316-2.26356-5.70719-5.72096-5.72488-12.33965-.0126-4.72794.47567-6.83507 2.08565-9 4.25754-5.7251 10.14924-5.40335 13.7858.75286 1.90615 3.22685 2.32804 11.00016.80979 14.92039-1.9666 5.07791-7.15708 7.76232-10.95636 5.6664zm-145.99433-3.36367c-3.67004-.721-8.9412-6.45316-10.18631-11.07717-3.5643-13.23681 10.11162-24.25718 21.04138-16.95563 13.4388 8.9777 4.8643 31.12099-10.85507 28.0328zM.31594 123.38094c-.65752-1.71347 1.26252-21.88985 2.23244-23.45922 3.24905-5.25707 7.41392 11.08924 4.914 19.28648-1.52172 4.98969-5.86075 7.5232-7.14644 4.17274zm98.98484-2.40713c-5.42305-2.75409-8.85369-9.21302-7.82002-14.72292 1.53087-8.16028 7.61228-12.78467 15.78058-11.9998 3.98082.3825 5.6168 1.16038 8.49619 4.03978 6.40137 6.40136 5.33479 17.32641-2.17169 22.24484-4.10193 2.68769-9.52776 2.85409-14.28506.4381zM188.4 118.6c-2.15291-2.15291-3.44224-4.44536-3.51515-6.25-.40736-10.08174 3.14742-15.35 10.35746-15.35 4.23434 0 7.59616 2.36916 9.36332 6.59857C208.31903 112.48599 203.06814 122 194.44966 122c-1.68001 0-3.8939-1.24424-6.04966-3.4zm-54.57477-7.07279c-2.39242-1.62569-4.23128-4.02358-5.36791-6.99979-1.53898-4.02977-1.57277-4.93716-.30758-8.2613C133.42751 82.39921 155 87.60691 155 102.74787c0 3.72986-.55158 5.0037-3.4 7.85212-3.02213 3.02213-3.99657 3.4-8.76787 3.4-4.06221 0-6.253-.60147-9.0069-2.47279zm103.70479-2.73562c-2.03525-5.07691-3.06589-13.52038-2.11352-17.31492.64928-2.58696.75855-2.62822 2.58429-.97596 2.39131 2.1641 4.27075 10.46137 3.83285 16.92112-.42659 6.29295-2.11462 6.83022-4.30362 1.36976zm-221.2891.95841c-4.58989-4.89977-5.46816-12.44957-2.26832-19.49895 3.57715-7.8806 10.37685-7.99052 14.27585-.23079 1.91282 3.80687 2.30358 11.39758.79148 15.37471-2.44699 6.43607-8.81865 8.60411-12.799 4.35503zm209.04192-2.44109c-1.13761-1.7362-1.89009-5.20245-2.12067-9.76866-.30542-6.0481-.0523-7.4385 1.74021-9.55891L227 85.5l1.98695 2.34466c2.75921 3.25597 4.33288 9.80525 3.61482 15.04411-1.00985 7.36761-4.14648 9.26192-7.31893 4.42014zm-182.88157-6.20596C39.3212 99.22475 36 92.94534 36 89c0-1.07774.72618-3.77444 1.61374-5.99266 4.2253-10.56005 16.9553-10.75718 21.56598-.33396 5.52983 12.5011-5.90435 25.06048-16.77845 18.42957zm124.98685.96815c-1.16154-.49745-3.04292-2.08809-4.18086-3.53474C157.011 90.65909 162.09363 80 172.04605 80c9.76354 0 14.79183 11.67348 8.20395 19.04597-2.97403 3.32823-8.89983 4.72199-12.86188 3.02513zm41.6191-2.56341C203.50308 93.6488 206.23642 80 212.91387 80c3.63653 0 5.69659 1.9678 7.1546 6.83418C222.11933 93.67938 218.21483 102 212.95181 102c-.88175 0-2.65681-1.12154-3.94459-2.49231zM77.41519 94.63083c-13.62943-6.16507-9.33566-27.01544 5.56336-27.01544 17.71142 0 18.9289 26.02004 1.30955 27.98776-2.08345.23268-5.17627-.20487-6.87291-.97232zM6.29216 85.58707C6.95906 81.47743 14.93619 64 16.14504 64c1.25235 0 1.04351 11.1384-.28314 15.10078C14.18255 84.11656 10.2145 89 7.81827 89c-1.8085 0-2.00767-.44542-1.52611-3.41293zm104.7695.58567C107.02957 84.0103 104 78.85904 104 74.1656c0-4.32776 5.43696-10.11492 9.65-10.27156 11.75055-.43689 18.35 4.4745 18.35 13.6563 0 2.81726-.77546 4.42512-3.4 7.04966-3.02178 3.02178-3.99688 3.4-8.7656 3.4-3.28679 0-6.68564-.70794-8.77274-1.82726zm80.83106-.97729c-6.1569-5.50118-3.40152-16.3337 4.32361-16.99788 2.90659-.2499 3.97502.24112 6.15065 2.82672 3.01217 3.57976 3.37693 7.63647 1.08512 12.06833C202.08446 85.73736 198.62578 88 195.95068 88c-.50552 0-2.3316-1.26205-4.05796-2.80455zm37.4661-4.2784C226.95722 77.93487 222.63066 60 224.31284 60c1.41051 0 6.7716 15.466 6.49359 18.73309-.24529 2.88258-.53411 3.3183-1.44761 2.18397zm4.29164-4.10452c-2.46732-5.12457-4.55933-11.87954-3.33703-10.7751 1.06008.95789 6.83336 15.14912 6.35682 15.62565-.25408.25409-1.61299-1.92866-3.01979-4.85055zm-89.12562.91231c-3.912-3.912-4.56678-7.80928-2.11015-12.55986 5.4813-10.59967 23.40385-4.67217 21.21129 7.01518-.95335 5.08178-4.55766 8.01077-10.5685 8.58834-4.67953.44964-5.23885.25013-8.53264-3.04366zM219.1535 77.25c-2.58206-4.92827-2.43159-20.8427.1888-19.96924 1.44748.4825 4.5165 10.18705 4.59661 14.53498.10715 5.8154-2.83516 9.15665-4.78541 5.43426zM30 74.2657c-5.28987-1.85734-7.1607-7.93792-4.54754-14.7804 3.83957-10.05377 15.19085-13.94332 19.02935-6.52047 2.0677 3.99848 1.90684 7.60088-.56764 12.71247-2.9524 6.09885-9.4979 10.139-13.91417 8.5884zm144.45225-4.91172C169.01511 63.4872 172.75201 54 180.5 54c5.10062 0 8.5 3.59935 8.5 9 0 8.24732-9.10679 12.22487-14.54775 6.35398zM208.46862 68.5c-.25774-.825-.64992-2.09793-.87151-2.82873-.66419-2.19048 1.32377-11.02072 2.81736-12.5143 1.18705-1.18706 1.55812-1.0767 2.53841.755 1.77928 3.3246 2.44236 11.481 1.13236 13.92875-1.3228 2.47168-4.91856 2.89375-5.61662.65928zM60.41844 66.03115c-1.14486-.46315-3.28236-2.26915-4.75-4.01334-7.31589-8.69444 1.58905-21.9944 12.67652-18.933 10.32552 2.851 11.86137 17.74221 2.29796 22.28035-3.73968 1.77459-6.9648 1.98466-10.22448.66599zm29.8396-7.43348c-3.12688-2.86557-3.71258-4.04934-3.71258-7.5035 0-6.13206 4.45734-10.264 11.72223-10.86646 6.48315-.53764 10.97906 1.41498 13.21538 5.73956C115.92541 54.55779 110.14715 62 99.03497 62c-4.366 0-5.57628-.46916-8.77693-3.40233zm106.39695.57359c-.91025-1.0058-1.65499-2.8508-1.65499-4.1C195 52.48628 200.99268 46 203.38095 46c3.66715 0 3.15069 10.81379-.64338 13.47126-2.83888 1.98843-4.06637 1.92789-6.08258-.3zm-66.65448-1.26218c-7.55627-3.11145-9.50796-10.62141-3.97107-15.2804 4.26487-3.58865 8.98707-4.2729 13.67707-1.98181 9.54453 4.66254 7.1476 16.15427-3.70651 17.77032-1.925.2866-4.62477.05796-5.99949-.5081zm28.45404-6.36363c-3.19723-3.19722-3.09614-5.05771.46853-8.62237C161.35098 40.49518 162.6685 40 166.70057 40 173.06117 40 176 42.04913 176 46.48412 176 51.25458 172.2813 54 165.81969 54c-3.88039 0-5.42555-.51495-7.36514-2.45454zM22.59905 51.75C24.001 49.30615 33.87106 37.45969 36.55456 35l2.72749-2.5-.69105 3c-.9772 4.24222-6.93077 12.58887-10.87765 15.25-3.66609 2.4718-6.24827 2.9767-5.1143 1zm193.95544-1.84868c-.87741-2.02165-1.49208-2.66753-1.51535-1.5923-.0607 2.8063-1.70346 1.10789-2.45502-2.53821-.60219-2.92146-.78867-3.07108-1.74599-1.40083-.85858 1.49797-1.23921 1.59909-1.91335.5083-.46286-.74891-.57378-2.42857-.2465-3.73257.59107-2.35503.57718-2.3592-2.07282-.62285-3.60478 2.36194-4.51148 1.08157-1.52607-2.155L207.5 35.7436l-4.85678.70549c-3.37359.49004-4.65346.3765-4.19099-.3718.36619-.59251 1.65175-1.08418 2.85679-1.0926 1.78123-.01245 1.91046-.1966.69098-.98469-.825-.53316-2.5125-.97626-3.75-.98469C197.0125 33.0069 196 32.55 196 32c0-.55 1.0125-1.01761 2.25-1.03914 1.84418-.03208 1.61872-.33009-1.25-1.65224-2.60278-1.19958-3.05287-1.72075-1.75578-2.03307 2.41166-.58068 6.06983 2.23755 14.89589 11.47568 4.66066 4.87825 7.77811 9.03545 8.12323 10.83253.79651 4.14749.0163 4.29248-1.70885.31756zm-30.98306-1.47275c-2.09386-2.09386-1.98126-4.01874.37279-6.3728 2.3231-2.32309 8.76822-3.72693 10.9095-2.37624 2.67714 1.68869 2.4094 3.25735-1.16622 6.83297-3.80497 3.80497-7.52295 4.50919-10.11607 1.91607zM48.1935 42.2613c-2.89824-.52173-4.6634-4.25293-3.74434-7.91476 1.0222-4.07276 7.53048-9.80094 12.81761-11.28124 6.4223-1.79813 10.11096-.01474 10.53782 5.09484.61848 7.4034-10.88184 15.67259-19.6111 14.10116zM82 39.29057c-4.89763-1.80083-7.31614-6.56174-5.91364-11.64119 2.3945-8.67213 14.92647-12.63655 20.93908-6.62394 2.41302 2.41302 2.59709 7.87004.40824 12.1028C95.06135 37.71583 86.74642 41.0358 82 39.29057zm32.49961-3.67648c-4.08235-1.77918-5.70551-3.9766-5.32187-7.20472 1.01041-8.50184 20.35932-9.90905 24.07636-1.75102 3.22703 7.08255-9.31278 13.07062-18.75449 8.95574zm35.14294.3577C146.249 34.95484 143 32.21523 143 30.3707c0-2.12173 5.50817-4.37082 10.70034-4.36914 6.45963.0021 11.79966 2.70337 11.79966 5.96892 0 4.3396-7.99592 6.35721-15.85745 4.00132zm25.79858-.47246c-1.90074-1.46944-1.88922-1.54452.55409-3.60886 2.12075-1.7918 3.29961-2.01365 7.85516-1.47824 9.51702 1.11854 11.45132 3.57667 4.36349 5.54517-5.29806 1.47142-10.51912 1.28418-12.77274-.45807zm-6.91248-8.85472c-2.47152-1.80722-1.39957-4.22043 2.19397-4.93913 3.03222-.60645 9.76685.5386 14.65143 2.4911 2.68409 1.0729 2.75408 1.23656 1.05887 2.47613-2.45039 1.79177-15.44333 1.77138-17.90427-.0281zm-25.41871-4.74145c-6.85089-1.3213-10.40686-5.64685-6.35994-7.73635 7.22756-3.73173 22.25-.72521 22.25 4.453 0 2.91077-8.60393 4.6886-15.89006 3.28335zm30.42557-2.512C163.58243 16.98449 159.45246 13 166.91102 13c4.43472 0 13.35471 3.14582 17.08898 6.0268l2.5 1.92873-3.5-.06108c-1.925-.0336-6.18402-.71008-9.46449-1.5033zM106.25 16.35233c-8.97813-4.4259 1.381-12.14495 13.29839-9.90923 4.94046.92684 8.89973 4.85107 7.51148 7.44503-2.17264 4.05962-14.59057 5.53009-20.80987 2.4642zm-33.72337-.96856c-2.48172-2.48172.06898-5.412 7.08392-8.13808 8.10899-3.15123 12.44866-3.71383 14.84988-1.92513 1.70172 1.26764 1.80078 1.81074.7506 4.11562-2.61642 5.74243-18.67832 9.95367-22.6844 5.9476zM176 13.5c0-.275.225-.5.5-.5s.5.225.5.5-.225.5-.5.5-.5-.225-.5-.5zm-6.75-2.47307C166.9125 9.9659 165 8.84474 165 8.53547c0-.59 5.72603 1.62371 8.74057 3.37916 2.98679 1.73927-.007 1.14746-4.49057-.8877zm-26.09353-2.2684C137.72691 7.97716 132 5.58546 132 4.09933c0-1.54682 5.74061-2.02996 12.04879-1.01406C150.4152 4.11054 156 6.37012 156 7.92064c0 1.26725-6.78457 1.70987-12.84353.8379zM110.25 3.1925c-4.95671-.35863-5.78891-2.18913-1-2.1996 1.7875-.00392 6.4-.2867 10.25-.62841 5.73345-.50889 6.77813-.38525 5.77377.68333-1.42658 1.5178-8.91441 2.5867-15.02377 2.14468z"/><path fill="#fcb62f" d="M119 243.17674c0-3.49281 5.3156-5.63392 14.04398-5.65689 5.56349-.0146 8.25438.44562 10.25 1.7532 1.48831.97518 2.70602 2.1538 2.70602 2.61916 0 1.13186-5.46212 2.01108-17.25 2.77667-9.47368.6153-9.75.57301-9.75-1.49214zm-16.5.16883c-13.39584-2.82938-15.8596-3.66864-13.44547-4.58013 3.20501-1.2101 11.3582-.11416 16.69547 2.24418 2.3375 1.03286 4.25 2.12822 4.25 2.43415 0 .61632-4.38914.55886-7.5-.0982zm52.5-5.15848c0-5.93785 18.85636-14.47506 24.86674-11.25841 1.1733.62793 2.13326 1.50924 2.13326 1.95847C182 230.32066 159.21755 240 155.84345 240c-.4639 0-.84345-.81581-.84345-1.81291zm-48.15138-1.5311c-12.63078-3.52126-16.81339-12.53234-7.27778-15.67937 10.43833-3.44496 26.90467 4.00835 25.06337 11.34466-1.09314 4.35543-9.9598 6.51642-17.78559 4.33471zm-32.1081-2.0853c-8.7935-3.13786-12.48787-9.53297-7.51801-13.01399 5.1344-3.59627 17.34576-.22604 20.36985 5.62191 1.36847 2.64633 1.37293 3.22542.04045 5.25904-.82354 1.25689-2.93408 2.57261-4.69008 2.9238-3.97075.79416-3.68287.82191-8.2022-.79076zm62.03462-2.12949c-5.10196-2.76873-6.25783-8.28655-2.68684-12.82632 7.57305-9.62757 25.97403-7.27452 25.8799 3.30943-.0375 4.22189-1.27775 6.07526-5.98588 8.94537-4.16807 2.54088-13.03551 2.8354-17.20718.57152zm-83.53849-8.96777C50.3565 221.53382 48 219.70503 48 219.40945c0-.88948 7.92423 3.84934 9.67871 5.78803 2.35055 2.59732 1.46368 2.25311-4.44206-1.72405zM190 222.78867c0-4.59266 10.88673-14.31809 17.20279-15.36774 3.1938-.53078 3.07229-.33427-3.87439 6.26555C195.29822 221.3157 190 224.93394 190 222.78867zm-18.71515-3.21079C161.13756 214.99517 171.28154 201 184.75047 201 190.35664 201 195 203.77357 195 207.12224c0 8.61643-14.89442 16.43925-23.71515 12.45564zm-90.25497-.69047C74.66654 216.34782 69 209.8297 69 205.04966c0-7.80586 14.53635-8.24026 22.84501-.68269C94.69935 206.96328 97 211.20791 97 213.87776c0 4.82948-9.19463 7.71373-15.97012 5.00965zm-28.82386-2.03031C48.60818 214.55334 45 208.46347 45 204.69483 45 201.98326 47.8175 199 50.3784 199c5.13655 0 12.28046 7.12293 13.27199 13.23301 1.04236 6.42333-4.89066 8.82057-11.44437 4.62409zm63.03286-1.13913c-5.48502-2.07813-10.06879-6.41821-11.37179-10.76723-1.07356-3.58325-.98526-4.31718.81044-6.73607 2.64151-3.55825 5.95253-5.1818 10.60459-5.19993 10.56274-.0412 20.6535 9.76398 17.79253 17.28892-2.02322 5.32146-10.93803 8.02769-17.83577 5.41431zm-80.53181-7.75228c-3.13693-3.46642-5.4894-6.5167-5.2277-6.77839.86687-.86688 7.16342 4.07753 9.45905 7.42778 4.18786 6.11179 1.5161 5.70174-4.23135-.64939zM149.5 206.49706c-11.24274-3.97754-11.93293-16.6731-1.17204-21.55889 5.291-2.40229 9.07065-2.3942 14.41297.0308 10.94743 4.96937 8.76823 18.57366-3.52198 21.98698-4.61813 1.28258-4.82395 1.27287-9.71895-.45893zm54.05032-4.85583c-3.31076-3.31076-3.25872-6.88428.19968-13.71088 5.44638-10.7507 14.56726-13.09426 17.62485-4.52861 1.22649 3.43596-2.01074 11.83875-6.08147 15.78547-5.20528 5.04671-8.46844 5.72864-11.74306 2.45402zm-169.105-4.60014c-3.0669-1.24208-8.16226-7.47584-8.91612-10.90816-.96813-4.40784.85937-7.13293 4.78348-7.13293 3.95871 0 6.85785 1.92182 9.6053 6.36729 2.47151 3.99899 2.6966 8.87527.5106 11.06128-1.73412 1.73411-2.9153 1.85503-5.98325.61252zm21.20107-1.38408c-2.1195-1.28301-5.10513-4.19619-6.63475-6.47375-9.7629-14.53659 2.01216-24.56008 13.81269-11.75802 6.40837 6.95227 7.70698 15.68835 2.8389 19.09809-2.94686 2.06406-5.54752 1.83914-10.01684-.86632zm-35.51775-5.45654c-3.43569-5.35405-3.97974-7.15171-1.55555-5.13981 1.8147 1.50606 5.78216 8.91742 5.12532 9.57427-.24262.24261-1.84901-1.75289-3.56977-4.43446zM86.5 192.84622c-4.82095-1.76998-9.368-5.66716-11.50923-9.86431-2.8645-5.6149-2.5841-9.54242.9323-13.05883C78.42958 167.41658 79.61306 167 84.2273 167 94.2593 167 103 175.0055 103 184.19372c0 3.4315-.56117 4.98484-2.43773 6.74779-2.84124 2.6692-9.5171 3.57344-14.06227 1.90471zm95.61073-3.4065c-4.11793-3.46501-4.86391-7.94859-2.29045-13.76634 3.51658-7.94982 12.67432-10.33262 18.25664-4.7503C200.5574 173.40356 201 174.63269 201 179.04072c0 4.70077-.36906 5.56364-3.88235 9.07693-4.89992 4.89992-10.19998 5.36684-15.00692 1.32207zM120.5 185.10414c-10.82157-5.01023-14.36271-16.08758-7.37619-23.07411C122.1936 152.96024 141 161.37299 141 174.5c0 10.1771-10.11796 15.41086-20.5 10.60414zm-106.27796-9.36779C11.24785 172.57047 9 166.75752 9 162.23212c0-9.16447 7.3218-7.88618 11.45227 1.99941 3.99103 9.55188-.41731 17.69238-6.23023 11.50482zm137.67584-1.00628C139.7552 166.61823 145.51469 148 160.16673 148c8.17224 0 15.60016 8.47518 14.36888 16.39473-1.67556 10.77706-13.73491 16.2828-22.63773 10.33534zM227.2 172.8c-2.98954-2.98954-.00088-15.18423 5.03638-20.55 2.34689-2.49995 5.94105-2.94606 7.60288-.94369 1.27394 1.53501-4.78916 20.41255-7.00785 21.81905-1.89908 1.20387-4.23727 1.06878-5.63141-.32536zm-196.7104-3.1104c-6.12831-6.12831-7.0796-16.99856-1.88263-21.51269 3.43013-2.97944 6.77612-2.29173 11.08285 2.27787 10.96864 11.63813 1.98504 30.42007-9.20022 19.23482zm177.58298-1.32446c-2.48498-3.15914-2.78025-10.09598-.6085-14.29568C209.61717 149.90585 214.71886 146 218.00415 146c4.08172 0 6.99585 4.06083 6.99585 9.7487 0 11.18819-11.37943 19.66957-16.92742 12.61644zM58.5 166.1293c-9.33847-5.7999-13.5853-18.46691-8.25-24.6073 7.44028-8.56302 23.39272 1.12457 24.53506 14.89963.42064 5.07232.22299 5.72417-2.5879 8.53505-3.63326 3.63327-8.99603 4.09237-13.69716 1.17262zm34-5.54666c-5.91895-2.64197-11.5-10.96472-11.5-17.14939 0-4.03036 2.95315-9.35766 6.08519-10.9773 12.1838-6.30049 27.95331 8.9428 22.57298 21.81974-2.75277 6.5883-10.30696 9.36505-17.15817 6.30695zm97-3.54213c-4.35704-1.81408-7.76556-6.74883-8.26714-11.96892-.45124-4.69614-.25389-5.25056 3.0423-8.54675C187.2788 133.5212 188.47503 133 192.3652 133c5.72593 0 11.08219 4.23404 12.63056 9.98426 2.6501 9.8417-6.24303 17.90869-15.49576 14.05625zM4.18088 153.40899c-1.64856-5.75279-3.18694-14.20588-3.14761-17.29548L1.06654 133.5l1.90232 2.28124c2.7133 3.25376 4.466 12.58261 3.31396 17.63883L5.35324 157.5zM125.5 148.13944c-5.7649-3.56095-7-5.79539-7-12.66386 0-5.35526.37976-6.72088 2.5-8.99003 5.3659-5.74276 12.7976-7.12575 18.75914-3.49095 9.53804 5.81541 9.53804 19.19539 0 25.0108-4.09601 2.49737-10.3381 2.55605-14.25914.13404zM13.01735 144.1712c-6.1048-6.1048-6.58096-20.19365-.78729-23.29433 4.64813-2.4876 11.18298 6.69129 11.1929 15.72162C23.42943 142.46656 21.02229 147 17.90003 147c-1.12963 0-3.32683-1.27296-4.88267-2.8288zm215.51193-2.48616c-4.00691-6.11533-1.80557-19.59564 3.6996-22.65514 2.53774-1.41034 2.87818-1.36728 4.86022.61475 4.1807 4.18071 3.78369 15.97621-.71778 21.32591-3.0465 3.62056-5.77501 3.86915-7.84204.71448zm12.99668.98359c-.97022-2.21443-.062-14.18671 1.34038-17.66863.82798-2.05579 1.00498-1.34505.99615 4-.0146 8.83402-1.26075 16.124-2.33653 13.66863zm-206.6327-4.16554c-3.35786-1.8251-5.5379-5.20617-6.93546-10.7564C25.8773 119.48427 30.29846 111 36.68452 111c11.63917 0 16.95233 20.53753 7.09869 27.4393-2.7272 1.9102-5.45683 1.92978-8.88994.0638zm126.32492-1.11037c-5.33033-2.71785-7.71818-6.96401-7.71818-13.72475 0-5.32317.28495-6.08663 3.26578-8.75 9.69565-8.66307 25.70217 2.20305 22.23153 15.09201-2.02723 7.52855-10.55125 11.06813-17.77913 7.38274zm48.91453-3.75145c-6.0187-6.40662-4.42154-19.62214 2.7294-22.58416 7.83253-3.24433 14.02247 9.10335 9.72255 19.39452-2.43325 5.82359-8.51414 7.38124-12.45195 3.18964zm-143.88566-1.33854c-3.67004-.721-8.9412-6.45316-10.18631-11.07717-3.5643-13.23681 10.11162-24.25718 21.04138-16.95563 13.4388 8.9777 4.8643 31.12099-10.85507 28.0328zM.31594 123.38094c-.65752-1.71347 1.26252-21.88985 2.23244-23.45922 3.24905-5.25707 7.41392 11.08924 4.914 19.28648-1.52172 4.98969-5.86075 7.5232-7.14644 4.17274zm98.98484-2.40713c-5.42305-2.75409-8.85369-9.21302-7.82002-14.72292 1.53087-8.16028 7.61228-12.78467 15.78058-11.9998 3.98082.3825 5.6168 1.16038 8.49619 4.03978 6.40137 6.40136 5.33479 17.32641-2.17169 22.24484-4.10193 2.68769-9.52776 2.85409-14.28506.4381zM188.4 118.6c-2.15291-2.15291-3.44224-4.44536-3.51515-6.25-.40736-10.08174 3.14742-15.35 10.35746-15.35 4.23434 0 7.59616 2.36916 9.36332 6.59857C208.31903 112.48599 203.06814 122 194.44966 122c-1.68001 0-3.8939-1.24424-6.04966-3.4zm-54.57477-7.07279c-2.39242-1.62569-4.23128-4.02358-5.36791-6.99979-1.53898-4.02977-1.57277-4.93716-.30758-8.2613C133.42751 82.39921 155 87.60691 155 102.74787c0 3.72986-.55158 5.0037-3.4 7.85212-3.02213 3.02213-3.99657 3.4-8.76787 3.4-4.06221 0-6.253-.60147-9.0069-2.47279zm103.70479-2.73562c-2.03525-5.07691-3.06589-13.52038-2.11352-17.31492.64928-2.58696.75855-2.62822 2.58429-.97596 2.39131 2.1641 4.27075 10.46137 3.83285 16.92112-.42659 6.29295-2.11462 6.83022-4.30362 1.36976zm-221.2891.95841c-4.58989-4.89977-5.46816-12.44957-2.26832-19.49895 3.57715-7.8806 10.37685-7.99052 14.27585-.23079 1.91282 3.80687 2.30358 11.39758.79148 15.37471-2.44699 6.43607-8.81865 8.60411-12.799 4.35503zm209.04192-2.44109c-1.13761-1.7362-1.89009-5.20245-2.12067-9.76866-.30542-6.0481-.0523-7.4385 1.74021-9.55891L227 85.5l1.98695 2.34466c2.75921 3.25597 4.33288 9.80525 3.61482 15.04411-1.00985 7.36761-4.14648 9.26192-7.31893 4.42014zm-182.88157-6.20596C39.3212 99.22475 36 92.94534 36 89c0-1.07774.72618-3.77444 1.61374-5.99266 4.2253-10.56005 16.9553-10.75718 21.56598-.33396 5.52983 12.5011-5.90435 25.06048-16.77845 18.42957zm124.98685.96815c-1.16154-.49745-3.04292-2.08809-4.18086-3.53474C157.011 90.65909 162.09363 80 172.04605 80c9.76354 0 14.79183 11.67348 8.20395 19.04597-2.97403 3.32823-8.89983 4.72199-12.86188 3.02513zm41.6191-2.56341C203.50308 93.6488 206.23642 80 212.91387 80c3.63653 0 5.69659 1.9678 7.1546 6.83418C222.11933 93.67938 218.21483 102 212.95181 102c-.88175 0-2.65681-1.12154-3.94459-2.49231zM77.41519 94.63083c-13.62943-6.16507-9.33566-27.01544 5.56336-27.01544 17.71142 0 18.9289 26.02004 1.30955 27.98776-2.08345.23268-5.17627-.20487-6.87291-.97232zM6.29216 85.58707C6.95906 81.47743 14.93619 64 16.14504 64c1.25235 0 1.04351 11.1384-.28314 15.10078C14.18255 84.11656 10.2145 89 7.81827 89c-1.8085 0-2.00767-.44542-1.52611-3.41293zm104.7695.58567C107.02957 84.0103 104 78.85904 104 74.1656c0-4.32776 5.43696-10.11492 9.65-10.27156 11.75055-.43689 18.35 4.4745 18.35 13.6563 0 2.81726-.77546 4.42512-3.4 7.04966-3.02178 3.02178-3.99688 3.4-8.7656 3.4-3.28679 0-6.68564-.70794-8.77274-1.82726zm80.83106-.97729c-6.1569-5.50118-3.40152-16.3337 4.32361-16.99788 2.90659-.2499 3.97502.24112 6.15065 2.82672 3.01217 3.57976 3.37693 7.63647 1.08512 12.06833C202.08446 85.73736 198.62578 88 195.95068 88c-.50552 0-2.3316-1.26205-4.05796-2.80455zm37.4661-4.2784C226.95722 77.93487 222.63066 60 224.31284 60c1.41051 0 6.7716 15.466 6.49359 18.73309-.24529 2.88258-.53411 3.3183-1.44761 2.18397zm4.29164-4.10452c-2.46732-5.12457-4.55933-11.87954-3.33703-10.7751 1.06008.95789 6.83336 15.14912 6.35682 15.62565-.25408.25409-1.61299-1.92866-3.01979-4.85055zm-89.12562.91231c-3.912-3.912-4.56678-7.80928-2.11015-12.55986 5.4813-10.59967 23.40385-4.67217 21.21129 7.01518-.95335 5.08178-4.55766 8.01077-10.5685 8.58834-4.67953.44964-5.23885.25013-8.53264-3.04366zM219.1535 77.25c-2.58206-4.92827-2.43159-20.8427.1888-19.96924 1.44748.4825 4.5165 10.18705 4.59661 14.53498.10715 5.8154-2.83516 9.15665-4.78541 5.43426zM30 74.2657c-5.28987-1.85734-7.1607-7.93792-4.54754-14.7804 3.83957-10.05377 15.19085-13.94332 19.02935-6.52047 2.0677 3.99848 1.90684 7.60088-.56764 12.71247-2.9524 6.09885-9.4979 10.139-13.91417 8.5884zm144.45225-4.91172C169.01511 63.4872 172.75201 54 180.5 54c5.10062 0 8.5 3.59935 8.5 9 0 8.24732-9.10679 12.22487-14.54775 6.35398zM208.46862 68.5c-.25774-.825-.64992-2.09793-.87151-2.82873-.66419-2.19048 1.32377-11.02072 2.81736-12.5143 1.18705-1.18706 1.55812-1.0767 2.53841.755 1.77928 3.3246 2.44236 11.481 1.13236 13.92875-1.3228 2.47168-4.91856 2.89375-5.61662.65928zM60.41844 66.03115c-1.14486-.46315-3.28236-2.26915-4.75-4.01334-7.31589-8.69444 1.58905-21.9944 12.67652-18.933 10.32552 2.851 11.86137 17.74221 2.29796 22.28035-3.73968 1.77459-6.9648 1.98466-10.22448.66599zm29.8396-7.43348c-3.12688-2.86557-3.71258-4.04934-3.71258-7.5035 0-6.13206 4.45734-10.264 11.72223-10.86646 6.48315-.53764 10.97906 1.41498 13.21538 5.73956C115.92541 54.55779 110.14715 62 99.03497 62c-4.366 0-5.57628-.46916-8.77693-3.40233zm106.39695.57359c-.91025-1.0058-1.65499-2.8508-1.65499-4.1C195 52.48628 200.99268 46 203.38095 46c3.66715 0 3.15069 10.81379-.64338 13.47126-2.83888 1.98843-4.06637 1.92789-6.08258-.3zm-66.65448-1.26218c-7.55627-3.11145-9.50796-10.62141-3.97107-15.2804 4.26487-3.58865 8.98707-4.2729 13.67707-1.98181 9.54453 4.66254 7.1476 16.15427-3.70651 17.77032-1.925.2866-4.62477.05796-5.99949-.5081zm28.45404-6.36363c-3.19723-3.19722-3.09614-5.05771.46853-8.62237C161.35098 40.49518 162.6685 40 166.70057 40 173.06117 40 176 42.04913 176 46.48412 176 51.25458 172.2813 54 165.81969 54c-3.88039 0-5.42555-.51495-7.36514-2.45454zM22.59905 51.75C24.001 49.30615 33.87106 37.45969 36.55456 35l2.72749-2.5-.69105 3c-.9772 4.24222-6.93077 12.58887-10.87765 15.25-3.66609 2.4718-6.24827 2.9767-5.1143 1zm193.95544-1.84868c-.87741-2.02165-1.49208-2.66753-1.51535-1.5923-.0607 2.8063-1.70346 1.10789-2.45502-2.53821-.60219-2.92146-.78867-3.07108-1.74599-1.40083-.85858 1.49797-1.23921 1.59909-1.91335.5083-.46286-.74891-.57378-2.42857-.2465-3.73257.59107-2.35503.57718-2.3592-2.07282-.62285-3.60478 2.36194-4.51148 1.08157-1.52607-2.155L207.5 35.7436l-4.85678.70549c-3.37359.49004-4.65346.3765-4.19099-.3718.36619-.59251 1.65175-1.08418 2.85679-1.0926 1.78123-.01245 1.91046-.1966.69098-.98469-.825-.53316-2.5125-.97626-3.75-.98469C197.0125 33.0069 196 32.55 196 32c0-.55 1.0125-1.01761 2.25-1.03914 1.84418-.03208 1.61872-.33009-1.25-1.65224-2.60278-1.19958-3.05287-1.72075-1.75578-2.03307 2.41166-.58068 6.06983 2.23755 14.89589 11.47568 4.66066 4.87825 7.77811 9.03545 8.12323 10.83253.79651 4.14749.0163 4.29248-1.70885.31756zm-30.98306-1.47275c-2.09386-2.09386-1.98126-4.01874.37279-6.3728 2.3231-2.32309 8.76822-3.72693 10.9095-2.37624 2.67714 1.68869 2.4094 3.25735-1.16622 6.83297-3.80497 3.80497-7.52295 4.50919-10.11607 1.91607zM48.1935 42.2613c-2.89824-.52173-4.6634-4.25293-3.74434-7.91476 1.0222-4.07276 7.53048-9.80094 12.81761-11.28124 6.4223-1.79813 10.11096-.01474 10.53782 5.09484.61848 7.4034-10.88184 15.67259-19.6111 14.10116zM82 39.29057c-4.89763-1.80083-7.31614-6.56174-5.91364-11.64119 2.3945-8.67213 14.92647-12.63655 20.93908-6.62394 2.41302 2.41302 2.59709 7.87004.40824 12.1028C95.06135 37.71583 86.74642 41.0358 82 39.29057zm32.49961-3.67648c-4.08235-1.77918-5.70551-3.9766-5.32187-7.20472 1.01041-8.50184 20.35932-9.90905 24.07636-1.75102 3.22703 7.08255-9.31278 13.07062-18.75449 8.95574zm35.14294.3577C146.249 34.95484 143 32.21523 143 30.3707c0-2.12173 5.50817-4.37082 10.70034-4.36914 6.45963.0021 11.79966 2.70337 11.79966 5.96892 0 4.3396-7.99592 6.35721-15.85745 4.00132zm25.79858-.47246c-1.90074-1.46944-1.88922-1.54452.55409-3.60886 2.12075-1.7918 3.29961-2.01365 7.85516-1.47824 9.51702 1.11854 11.45132 3.57667 4.36349 5.54517-5.29806 1.47142-10.51912 1.28418-12.77274-.45807zm-6.91248-8.85472c-2.47152-1.80722-1.39957-4.22043 2.19397-4.93913 3.03222-.60645 9.76685.5386 14.65143 2.4911 2.68409 1.0729 2.75408 1.23656 1.05887 2.47613-2.45039 1.79177-15.44333 1.77138-17.90427-.0281zm-25.41871-4.74145c-6.85089-1.3213-10.40686-5.64685-6.35994-7.73635 7.22756-3.73173 22.25-.72521 22.25 4.453 0 2.91077-8.60393 4.6886-15.89006 3.28335zm30.42557-2.512C163.58243 16.98449 159.45246 13 166.91102 13c4.43472 0 13.35471 3.14582 17.08898 6.0268l2.5 1.92873-3.5-.06108c-1.925-.0336-6.18402-.71008-9.46449-1.5033zM106.25 16.35233c-8.97813-4.4259 1.381-12.14495 13.29839-9.90923 4.94046.92684 8.89973 4.85107 7.51148 7.44503-2.17264 4.05962-14.59057 5.53009-20.80987 2.4642zm-33.72337-.96856c-2.48172-2.48172.06898-5.412 7.08392-8.13808 8.10899-3.15123 12.44866-3.71383 14.84988-1.92513 1.70172 1.26764 1.80078 1.81074.7506 4.11562-2.61642 5.74243-18.67832 9.95367-22.6844 5.9476zM176 13.5c0-.275.225-.5.5-.5s.5.225.5.5-.225.5-.5.5-.5-.225-.5-.5zm-6.75-2.47307C166.9125 9.9659 165 8.84474 165 8.53547c0-.59 5.72603 1.62371 8.74057 3.37916 2.98679 1.73927-.007 1.14746-4.49057-.8877zm-26.09353-2.2684C137.72691 7.97716 132 5.58546 132 4.09933c0-1.54682 5.74061-2.02996 12.04879-1.01406C150.4152 4.11054 156 6.37012 156 7.92064c0 1.26725-6.78457 1.70987-12.84353.8379zM110.25 3.1925c-4.95671-.35863-5.78891-2.18913-1-2.1996 1.7875-.00392 6.4-.2867 10.25-.62841 5.73345-.50889 6.77813-.38525 5.77377.68333-1.42658 1.5178-8.91441 2.5867-15.02377 2.14468z"/><path fill="#6191bc" d="M119 243.17674c0-3.49281 5.3156-5.63392 14.04398-5.65689 5.56349-.0146 8.25438.44562 10.25 1.7532 1.48831.97518 2.70602 2.1538 2.70602 2.61916 0 1.13186-5.46212 2.01108-17.25 2.77667-9.47368.6153-9.75.57301-9.75-1.49214zm-16.5.16883c-13.39584-2.82938-15.8596-3.66864-13.44547-4.58013 3.20501-1.2101 11.3582-.11416 16.69547 2.24418 2.3375 1.03286 4.25 2.12822 4.25 2.43415 0 .61632-4.38914.55886-7.5-.0982zm52.5-5.15848c0-5.93785 18.85636-14.47506 24.86674-11.25841 1.1733.62793 2.13326 1.50924 2.13326 1.95847C182 230.32066 159.21755 240 155.84345 240c-.4639 0-.84345-.81581-.84345-1.81291zm-48.15138-1.5311c-12.63078-3.52126-16.81339-12.53234-7.27778-15.67937 10.43833-3.44496 26.90467 4.00835 25.06337 11.34466-1.09314 4.35543-9.9598 6.51642-17.78559 4.33471zm-32.1081-2.0853c-8.7935-3.13786-12.48787-9.53297-7.51801-13.01399 5.1344-3.59627 17.34576-.22604 20.36985 5.62191 1.36847 2.64633 1.37293 3.22542.04045 5.25904-.82354 1.25689-2.93408 2.57261-4.69008 2.9238-3.97075.79416-3.68287.82191-8.2022-.79076zm62.03462-2.12949c-5.10196-2.76873-6.25783-8.28655-2.68684-12.82632 7.57305-9.62757 25.97403-7.27452 25.8799 3.30943-.0375 4.22189-1.27775 6.07526-5.98588 8.94537-4.16807 2.54088-13.03551 2.8354-17.20718.57152zm-83.53849-8.96777C50.3565 221.53382 48 219.70503 48 219.40945c0-.88948 7.92423 3.84934 9.67871 5.78803 2.35055 2.59732 1.46368 2.25311-4.44206-1.72405zM190 222.78867c0-4.59266 10.88673-14.31809 17.20279-15.36774 3.1938-.53078 3.07229-.33427-3.87439 6.26555C195.29822 221.3157 190 224.93394 190 222.78867zm-18.71515-3.21079C161.13756 214.99517 171.28154 201 184.75047 201 190.35664 201 195 203.77357 195 207.12224c0 8.61643-14.89442 16.43925-23.71515 12.45564zm-90.25497-.69047C74.66654 216.34782 69 209.8297 69 205.04966c0-7.80586 14.53635-8.24026 22.84501-.68269C94.69935 206.96328 97 211.20791 97 213.87776c0 4.82948-9.19463 7.71373-15.97012 5.00965zm-28.82386-2.03031C48.60818 214.55334 45 208.46347 45 204.69483 45 201.98326 47.8175 199 50.3784 199c5.13655 0 12.28046 7.12293 13.27199 13.23301 1.04236 6.42333-4.89066 8.82057-11.44437 4.62409zm63.03286-1.13913c-5.48502-2.07813-10.06879-6.41821-11.37179-10.76723-1.07356-3.58325-.98526-4.31718.81044-6.73607 2.64151-3.55825 5.95253-5.1818 10.60459-5.19993 10.56274-.0412 20.6535 9.76398 17.79253 17.28892-2.02322 5.32146-10.93803 8.02769-17.83577 5.41431zm-80.53181-7.75228c-3.13693-3.46642-5.4894-6.5167-5.2277-6.77839.86687-.86688 7.16342 4.07753 9.45905 7.42778 4.18786 6.11179 1.5161 5.70174-4.23135-.64939zM149.5 206.49706c-11.24274-3.97754-11.93293-16.6731-1.17204-21.55889 5.291-2.40229 9.07065-2.3942 14.41297.0308 10.94743 4.96937 8.76823 18.57366-3.52198 21.98698-4.61813 1.28258-4.82395 1.27287-9.71895-.45893zm54.05032-4.85583c-3.31076-3.31076-3.25872-6.88428.19968-13.71088 5.44638-10.7507 14.56726-13.09426 17.62485-4.52861 1.22649 3.43596-2.01074 11.83875-6.08147 15.78547-5.20528 5.04671-8.46844 5.72864-11.74306 2.45402zm-169.105-4.60014c-3.0669-1.24208-8.16226-7.47584-8.91612-10.90816-.96813-4.40784.85937-7.13293 4.78348-7.13293 3.95871 0 6.85785 1.92182 9.6053 6.36729 2.47151 3.99899 2.6966 8.87527.5106 11.06128-1.73412 1.73411-2.9153 1.85503-5.98325.61252zm21.20107-1.38408c-2.1195-1.28301-5.10513-4.19619-6.63475-6.47375-9.7629-14.53659 2.01216-24.56008 13.81269-11.75802 6.40837 6.95227 7.70698 15.68835 2.8389 19.09809-2.94686 2.06406-5.54752 1.83914-10.01684-.86632zm-35.51775-5.45654c-3.43569-5.35405-3.97974-7.15171-1.55555-5.13981 1.8147 1.50606 5.78216 8.91742 5.12532 9.57427-.24262.24261-1.84901-1.75289-3.56977-4.43446zM86.5 192.84622c-4.82095-1.76998-9.368-5.66716-11.50923-9.86431-2.8645-5.6149-2.5841-9.54242.9323-13.05883C78.42958 167.41658 79.61306 167 84.2273 167 94.2593 167 103 175.0055 103 184.19372c0 3.4315-.56117 4.98484-2.43773 6.74779-2.84124 2.6692-9.5171 3.57344-14.06227 1.90471zm95.61073-3.4065c-4.11793-3.46501-4.86391-7.94859-2.29045-13.76634 3.51658-7.94982 12.67432-10.33262 18.25664-4.7503C200.5574 173.40356 201 174.63269 201 179.04072c0 4.70077-.36906 5.56364-3.88235 9.07693-4.89992 4.89992-10.19998 5.36684-15.00692 1.32207zM120.5 185.10414c-10.82157-5.01023-14.36271-16.08758-7.37619-23.07411C122.1936 152.96024 141 161.37299 141 174.5c0 10.1771-10.11796 15.41086-20.5 10.60414zm-106.27796-9.36779C11.24785 172.57047 9 166.75752 9 162.23212c0-9.16447 7.3218-7.88618 11.45227 1.99941 3.99103 9.55188-.41731 17.69238-6.23023 11.50482zm137.67584-1.00628C139.7552 166.61823 145.51469 148 160.16673 148c8.17224 0 15.60016 8.47518 14.36888 16.39473-1.67556 10.77706-13.73491 16.2828-22.63773 10.33534zM227.2 172.8c-2.98954-2.98954-.00088-15.18423 5.03638-20.55 2.34689-2.49995 5.94105-2.94606 7.60288-.94369 1.27394 1.53501-4.78916 20.41255-7.00785 21.81905-1.89908 1.20387-4.23727 1.06878-5.63141-.32536zm-196.7104-3.1104c-6.12831-6.12831-7.0796-16.99856-1.88263-21.51269 3.43013-2.97944 6.77612-2.29173 11.08285 2.27787 10.96864 11.63813 1.98504 30.42007-9.20022 19.23482zm177.58298-1.32446c-2.48498-3.15914-2.78025-10.09598-.6085-14.29568C209.61717 149.90585 214.71886 146 218.00415 146c4.08172 0 6.99585 4.06083 6.99585 9.7487 0 11.18819-11.37943 19.66957-16.92742 12.61644zM58.5 166.1293c-9.33847-5.7999-13.5853-18.46691-8.25-24.6073 7.44028-8.56302 23.39272 1.12457 24.53506 14.89963.42064 5.07232.22299 5.72417-2.5879 8.53505-3.63326 3.63327-8.99603 4.09237-13.69716 1.17262zm34-5.54666c-5.91895-2.64197-11.5-10.96472-11.5-17.14939 0-4.03036 2.95315-9.35766 6.08519-10.9773 12.1838-6.30049 27.95331 8.9428 22.57298 21.81974-2.75277 6.5883-10.30696 9.36505-17.15817 6.30695zm97-3.54213c-4.35704-1.81408-7.76556-6.74883-8.26714-11.96892-.45124-4.69614-.25389-5.25056 3.0423-8.54675C187.2788 133.5212 188.47503 133 192.3652 133c5.72593 0 11.08219 4.23404 12.63056 9.98426 2.6501 9.8417-6.24303 17.90869-15.49576 14.05625zM4.18088 153.40899c-1.64856-5.75279-3.18694-14.20588-3.14761-17.29548L1.06654 133.5l1.90232 2.28124c2.7133 3.25376 4.466 12.58261 3.31396 17.63883L5.35324 157.5zM125.5 148.13944c-5.7649-3.56095-7-5.79539-7-12.66386 0-5.35526.37976-6.72088 2.5-8.99003 5.3659-5.74276 12.7976-7.12575 18.75914-3.49095 9.53804 5.81541 9.53804 19.19539 0 25.0108-4.09601 2.49737-10.3381 2.55605-14.25914.13404zM13.01735 144.1712c-6.1048-6.1048-6.58096-20.19365-.78729-23.29433 4.64813-2.4876 11.18298 6.69129 11.1929 15.72162C23.42943 142.46656 21.02229 147 17.90003 147c-1.12963 0-3.32683-1.27296-4.88267-2.8288zm215.51193-2.48616c-4.00691-6.11533-1.80557-19.59564 3.6996-22.65514 2.53774-1.41034 2.87818-1.36728 4.86022.61475 4.1807 4.18071 3.78369 15.97621-.71778 21.32591-3.0465 3.62056-5.77501 3.86915-7.84204.71448zm12.99668.98359c-.97022-2.21443-.062-14.18671 1.34038-17.66863.82798-2.05579 1.00498-1.34505.99615 4-.0146 8.83402-1.26075 16.124-2.33653 13.66863zm-206.6327-4.16554c-3.35786-1.8251-5.5379-5.20617-6.93546-10.7564C25.8773 119.48427 30.29846 111 36.68452 111c11.63917 0 16.95233 20.53753 7.09869 27.4393-2.7272 1.9102-5.45683 1.92978-8.88994.0638zm175.23945-4.86182c-6.0187-6.40662-4.42154-19.62214 2.7294-22.58416 7.83253-3.24433 14.02247 9.10335 9.72255 19.39452-2.43325 5.82359-8.51414 7.38124-12.45195 3.18964zm-143.88566-1.33854c-3.67004-.721-8.9412-6.45316-10.18631-11.07717-3.5643-13.23681 10.11161-24.25718 21.04138-16.95563 13.4388 8.9777 4.8643 31.12099-10.85507 28.0328zM.31594 123.38094c-.65752-1.71347 1.26252-21.88985 2.23244-23.45922 3.24905-5.25707 7.41392 11.08924 4.914 19.28648-1.52172 4.98969-5.86075 7.5232-7.14644 4.17274zM16.24093 109.75c-4.5899-4.89977-5.46817-12.44957-2.26833-19.49895 3.57715-7.8806 10.37685-7.99052 14.27585-.23079 1.91282 3.80687 2.30358 11.39758.79148 15.37471-2.44699 6.43607-8.81865 8.60411-12.799 4.35503zm26.16034-8.64705C39.3212 99.22475 36 92.94534 36 89c0-1.07774.72618-3.77444 1.61374-5.99266 4.2253-10.56005 16.9553-10.75718 21.56598-.33396 5.52983 12.5011-5.90435 25.06048-16.77845 18.42957zm35.01392-6.47212c-13.62943-6.16507-9.33566-27.01544 5.56336-27.01544 17.71142 0 18.9289 26.02004 1.30955 27.98776-2.08345.23268-5.17627-.20487-6.87291-.97232zM6.29216 85.58707C6.95906 81.47743 14.93619 64 16.14504 64c1.25235 0 1.04351 11.1384-.28314 15.10078C14.18255 84.11656 10.2145 89 7.81827 89c-1.8085 0-2.00767-.44542-1.52611-3.41293zM30 74.2657c-5.28987-1.85733-7.1607-7.93792-4.54754-14.78039 3.83957-10.05377 15.19085-13.94332 19.02935-6.52047 2.0677 3.99848 1.90684 7.60088-.56764 12.71247-2.9524 6.09885-9.4979 10.139-13.91417 8.5884zm30.41844-8.23454c-1.14486-.46315-3.28236-2.26915-4.75-4.01334-7.31589-8.69444 1.58905-21.9944 12.67652-18.933 10.32552 2.851 11.86137 17.74221 2.29796 22.28035-3.73968 1.77459-6.9648 1.98466-10.22448.66599zm29.8396-7.43348c-3.12688-2.86557-3.71259-4.04934-3.71259-7.5035 0-6.13206 4.45735-10.264 11.72224-10.86646 6.48315-.53764 10.97906 1.41498 13.21538 5.73956C115.92541 54.55779 110.14715 62 99.03497 62c-4.366 0-5.57628-.46916-8.77693-3.40233zM22.59904 51.75C24.00102 49.30615 33.87107 37.45969 36.55457 35l2.72749-2.5-.69105 3c-.9772 4.24222-6.93077 12.58887-10.87765 15.25-3.66609 2.4718-6.24827 2.9767-5.1143 1zm25.59446-9.4887c-2.89824-.52173-4.6634-4.25293-3.74434-7.91476 1.0222-4.07276 7.53048-9.80094 12.81761-11.28124 6.4223-1.79813 10.11096-.01474 10.53782 5.09484.61848 7.4034-10.88184 15.67259-19.6111 14.10116zM82 39.29057c-4.89763-1.80083-7.31614-6.56174-5.91364-11.64119 2.3945-8.67213 14.92647-12.63655 20.93908-6.62394 2.41302 2.41302 2.59709 7.87004.40824 12.1028C95.06135 37.71583 86.74642 41.0358 82 39.29057zm-9.47337-23.9068c-2.48172-2.48172.06898-5.412 7.08392-8.13808 8.10899-3.15123 12.44866-3.71383 14.84988-1.92513 1.70172 1.26764 1.80078 1.81074.7506 4.11562-2.61642 5.74243-18.67832 9.95367-22.6844 5.9476z"/><path fill="#8fc44d" d="M119 243.79876c0-2.42829 3.2033-4.61161 8.51615-5.80446C134.4635 236.43447 145 238.54262 145 241.49249c0 1.32676-3.88165 2.01117-17.75 3.12968-6.93701.55949-8.25.42844-8.25-.82341zm-21.35251-1.80497c-4.86889-1.02602-9.10639-2.11935-9.41667-2.42964-1.04928-1.04928 11.44506-.5727 14.86996.5672 3.98031 1.32475 7.29729 3.91524 4.86351 3.79829-.80536-.0387-5.44792-.90983-10.3168-1.93585zM155 238.36808c0-2.57758 6.45897-7.99573 11.63357-9.75889 5.21571-1.77717 13.91184-2.15375 14.84561-.64287.74298 1.20216-9.67539 6.53492-18.90433 9.6764-8.23479 2.80307-7.57485 2.73988-7.57485.72536zm-50.5-2.57463c-4.24239-1.48294-9.14936-5.34461-9.7604-7.6812-1.40548-5.37458 6.64368-9.00487 15.76657-7.11097 6.2912 1.30605 11.32742 4.4208 13.46812 8.32962 1.46079 2.66734 1.40632 2.88978-1.28005 5.22749-2.35598 2.0502-3.79874 2.42895-9 2.36266-3.40683-.0434-7.54424-.55084-9.19424-1.1276zm-32.42892-2.545c-1.8859-.96165-4.32655-2.97295-5.42367-4.46956-4.26689-5.82055 2.55247-10.53362 11.40398-7.88164 8.33609 2.49755 13.13721 10.32589 8.01435 13.06757-2.9792 1.59441-10.18644 1.22548-13.99466-.71637zm66.31704-.22852c-1.16154-.46931-3.10921-2.12119-4.32816-3.67083-2.51204-3.19354-2.23749-7.36764.70192-10.6715 5.60545-6.30048 20.78326-6.13307 24.20848.26701 2.60075 4.85955-.40698 11.08639-6.60614 13.67657-3.64398 1.52255-10.69672 1.72377-13.9761.39875zM54.25 223.88495c-3.40851-2.18287-4.51156-3.64875-1.5-1.99341 2.29443 1.26116 5.88883 4.0407 5.25 4.05981-.275.008-1.9625-.92165-3.75-2.0664zm135.75-.37247c0-4.86951 13.3235-16.60209 18.70034-16.4674 1.26631.0317.129 1.58761-3.83762 5.25C198.84823 217.84827 190 224.52633 190 223.51248zM49 220.5c0-.275.225-.5.5-.5s.5.225.5.5-.225.5-.5.5-.5-.225-.5-.5zm124.76788-.46013c-1.50267-.29693-3.68895-1.36473-4.8584-2.37289-4.41126-3.80287.31648-12.06024 8.74887-15.2806 8.95273-3.41908 18.39042.25436 16.82905 6.55039-1.69901 6.85106-12.62027 12.7035-20.71952 11.1031zm-91.8828-1.36853c-7.92938-2.94542-13.86433-10.01062-12.36842-14.72383 2.50428-7.89029 19.15352-5.48529 25.12572 3.62944 2.10513 3.21283 2.18268 8.02656.16187 10.04737-2.1258 2.12581-8.602 2.65066-12.91918 1.04702zm-28.47378-1.56229C44.45371 211.64677 42.18927 200 50.08484 200c6.47898 0 12.94578 6.37222 13.13253 12.94047.16765 5.89631-4.03972 7.68487-9.80607 4.16858zm63.94689-1.0878c-4.25216-.98041-9.80168-4.52296-11.75472-7.50368-.88191-1.34596-1.60347-4.23037-1.60347-6.40981 0-10.1672 15.67099-12.09702 25.13393-3.09514C132.2703 201.99618 133 203.39256 133 206.41091c0 2.04631-.4328 4.52927-.96178 5.51768-1.67445 3.12873-9.45399 5.2976-14.68003 4.09266zm-82.8895-9.13681c-5.56155-5.69841-4.51403-6.84728 1.37632-1.50948C37.88534 207.2239 41.5967 213 40.74438 213c-.16884 0-2.9929-2.752-6.27568-6.11556zm112.7294-1.55725c-6.61984-3.26245-8.11951-11.06922-3.20222-16.66971 9.93826-11.31905 31.00646-1.5559 24.29336 11.25771-3.38584 6.46272-13.62691 9.09058-21.09114 5.412zM203.2 201.8c-1.61003-1.61003-1.52292-9.09579.15223-13.08212 1.70976-4.06869 7.09634-9.36266 10.35988-10.18176 1.53988-.38649 3.41893-.0251 4.89378.9413 4.76092 3.11948 2.12439 15.20597-4.54032 20.81395-3.44389 2.89785-8.74089 3.63331-10.86557 1.50863zm-168.75467-4.75891c-3.06691-1.24208-8.16227-7.47584-8.91613-10.90816-.96813-4.40784.85937-7.13293 4.78348-7.13293 3.95871 0 6.85785 1.92182 9.6053 6.36729 2.47151 3.99899 2.6966 8.87527.5106 11.06128-1.73412 1.73411-2.9153 1.85503-5.98325.61252zm24.159-.0897C52.27874 195.08071 46 186.19377 46 179.11127 46 174.35934 48.03083 172 52.12109 172 59.95737 172 68 180.99499 68 189.75921c0 6.2735-3.48405 8.94047-9.39568 7.19219zm-38.47569-6.75093c-3.43569-5.35405-3.97974-7.15171-1.55555-5.13981 1.8147 1.50606 5.78216 8.91742 5.12532 9.57427-.24262.24261-1.84901-1.75289-3.56977-4.43446zm67.51982 2.77291C79.7959 190.61965 73.5 183.22292 73.5 176.35105c0-5.79641 2.7214-8.47373 9.25095-9.10114 12.18522-1.17085 24.18102 12.53461 19.16856 21.90049-1.15699 2.16185-6.70669 4.905-9.6374 4.76365-.98016-.0473-3.0653-.47058-4.63365-.94067zm96.70854-1.96495c-3.47842-1.40372-5.357-5.03273-5.357-10.34857 0-4.35294.43002-5.32516 3.88235-8.7775 3.23541-3.2354 4.55922-3.88235 7.94424-3.88235 5.75608 0 9.21519 3.19105 9.88316 9.11728 1.11414 9.88463-7.70877 17.37942-16.35275 13.89114zm-61.857-5.21497c-7.74962-2.7089-12.5-8.73002-12.5-15.84379 0-12.66379 19.8586-15.3832 28.07485-3.84454 1.25581 1.76361 2.44072 5.20509 2.69179 7.81807.3814 3.96929.0487 5.14277-2.22334 7.84299-2.45194 2.91396-7.86615 5.32916-11.5433 5.1493-.825-.0404-2.85-.54527-4.5-1.12203zm-108.27796-10.0571C11.24785 172.57047 9 166.75752 9 162.23212c0-9.16447 7.3218-7.88618 11.45227 1.99941 3.99103 9.55188-.41731 17.69238-6.23023 11.50482zm139.10344-.19548c-8.83235-3.84188-10.39621-16.75954-2.83291-23.4002 6.2107-5.45307 14.29271-5.10556 20.00838.86032 3.93509 4.10735 4.69496 12.32792 1.60212 17.33224-3.72579 6.02846-11.76496 8.25798-18.77759 5.20764zm73.7097-3.47513c-1.45269-2.71439-1.2914-5.9575.56765-11.41351 2.69552-7.91092 10.32832-13.60119 12.08917-9.01249.72444 1.88786-3.88214 16.75929-6.22937 20.11026-1.93431 2.76148-5.03696 2.91389-6.42745.31574zM30.4896 169.6896c-6.12831-6.12831-7.0796-16.99856-1.88263-21.51269 3.43013-2.97944 6.77612-2.29173 11.08285 2.27787 10.96864 11.63813 1.98504 30.42007-9.20022 19.23482zm178.80032-.16625c-4.67913-3.34691-4.17639-13.05642.97803-18.88886 4.37386-4.9492 8.69439-5.76306 12.16576-2.29169 8.09758 8.09759-4.05533 27.68138-13.14379 21.18055zM58.5 166.1293c-9.33847-5.7999-13.5853-18.46691-8.25-24.6073 7.44028-8.56302 23.39272 1.12457 24.53506 14.89963.42064 5.07232.22299 5.72417-2.5879 8.53505-3.63326 3.63327-8.99603 4.09237-13.69716 1.17262zm35-5.6215c-5.24417-1.84126-10.12792-7.52264-11.33614-13.18761-3.07666-14.4255 11.23923-21.85385 22.17542-11.50657C108.40187 139.65744 110 143.23905 110 148.5c0 6.03177-2.31832 10.31723-6.5343 12.07878-4.12209 1.72232-4.87334 1.71697-9.9657-.071zm95.91519-3.88154c-6.34821-2.86211-9.84746-10.75424-7.39425-16.67682 5.1119-12.34121 22.96309-7.06962 22.97532 6.78478.007 8.10828-8.10883 13.26092-15.58107 9.89204zm-185.2343-3.21727c-1.64857-5.75279-3.18695-14.20588-3.14762-17.29548L1.06654 133.5l1.90232 2.28124c2.7133 3.25376 4.466 12.58261 3.31396 17.63883L5.35324 157.5zm121.89019-5.10444c-9.56332-5.03294-10.60288-18.24329-1.93532-24.59343 3.78348-2.7719 10.57061-3.23789 14.79316-1.01567 9.56332 5.03294 10.60288 18.24329 1.93532 24.59343-3.78348 2.7719-10.57061 3.23789-14.79316 1.01567zM13.01735 144.1712c-6.1048-6.1048-6.58096-20.19365-.78729-23.29433 4.64813-2.4876 11.18298 6.69129 11.1929 15.72162C23.42943 142.46656 21.02229 147 17.90003 147c-1.12963 0-3.32683-1.27296-4.88267-2.8288zm217.38235-.93651c-2.15392-1.43822-3.3997-5.17626-3.3997-10.20107 0-12.36182 8.55501-19.48608 11.89482-9.90551 2.13791 6.13283.58989 14.47809-3.43164 18.49962-2.52466 2.52466-3.31395 2.77515-5.06348 1.60696zm11.14928-1.52932c-.88509-1.99247.0732-12.61891 1.44497-16.02326.67669-1.67933.8737-1.03007.85506 2.81789-.038 7.85034-1.34514 15.35497-2.30003 13.20537zm-206.65571-3.20228c-3.35787-1.8251-5.5379-5.20617-6.93547-10.7564C25.8773 119.48427 30.29846 111 36.68452 111c11.63917 0 16.95233 20.53753 7.09869 27.4393-2.7272 1.9102-5.45683 1.92978-8.88994.0638zm176.46705-3.96326c-3.18455-2.23055-4.66278-6.87897-4.15082-13.05257.54517-6.57399 3.53416-10.48726 8.01027-10.48726 8.38603 0 11.71001 14.17627 5.15155 21.97056-2.78813 3.31351-5.77749 3.8341-9.011 1.56927zm-145.11327-2.2371c-3.67004-.721-8.9412-6.45316-10.18631-11.07717-3.5643-13.23681 10.11162-24.25718 21.04138-16.95563 13.4388 8.9777 4.8643 31.12099-10.85507 28.0328zM.31594 123.38094c-.65752-1.71347 1.26252-21.88985 2.23244-23.45922 3.24905-5.25707 7.41392 11.08924 4.914 19.28648-1.52172 4.98969-5.86075 7.5232-7.14644 4.17274zM16.24093 109.75c-4.5899-4.89977-5.46817-12.44957-2.26833-19.49895 3.57715-7.8806 10.37685-7.99052 14.27585-.23079 1.91282 3.80687 2.30358 11.39758.79148 15.37471-2.44699 6.43607-8.81865 8.60411-12.799 4.35503zm26.16034-8.64705C39.3212 99.22475 36 92.94534 36 89c0-1.07774.72618-3.77444 1.61374-5.99266 4.2253-10.56005 16.9553-10.75718 21.56598-.33396 5.52983 12.5011-5.90435 25.06048-16.77845 18.42957zm35.01392-6.47212c-13.62943-6.16507-9.33566-27.01544 5.56336-27.01544 17.71142 0 18.9289 26.02004 1.30955 27.98776-2.08345.23268-5.17627-.20487-6.87291-.97232zM6.29216 85.58707C6.95906 81.47743 14.93619 64 16.14504 64c1.25235 0 1.04351 11.1384-.28314 15.10078C14.18255 84.11656 10.2145 89 7.81827 89c-1.8085 0-2.00767-.44542-1.52611-3.41293zM30 74.2657c-5.28987-1.85733-7.1607-7.93792-4.54754-14.78039 3.83957-10.05377 15.19085-13.94332 19.02935-6.52047 2.0677 3.99848 1.90684 7.60088-.56764 12.71247-2.9524 6.09885-9.4979 10.139-13.91417 8.5884zm30.41844-8.23454c-1.14486-.46315-3.28236-2.26915-4.75-4.01334-7.31589-8.69444 1.58905-21.9944 12.67652-18.933 10.32552 2.851 11.86137 17.74221 2.29796 22.28035-3.73968 1.77459-6.9648 1.98466-10.22448.66599zm29.8396-7.43348c-3.12688-2.86557-3.71259-4.04934-3.71259-7.5035 0-6.13206 4.45735-10.264 11.72224-10.86646 6.48315-.53764 10.97906 1.41498 13.21538 5.73956C115.92541 54.55779 110.14715 62 99.03497 62c-4.366 0-5.57628-.46916-8.77693-3.40233zM22.59904 51.75C24.00102 49.30615 33.87107 37.45969 36.55457 35l2.72749-2.5-.69105 3c-.9772 4.24222-6.93077 12.58887-10.87765 15.25-3.66609 2.4718-6.24827 2.9767-5.1143 1zm25.59446-9.4887c-2.89824-.52173-4.6634-4.25293-3.74434-7.91476 1.0222-4.07276 7.53048-9.80094 12.81761-11.28124 6.4223-1.79813 10.11096-.01474 10.53782 5.09484.61848 7.4034-10.88184 15.67259-19.6111 14.10116zM82 39.29057c-4.89763-1.80083-7.31614-6.56174-5.91364-11.64119 2.3945-8.67213 14.92647-12.63655 20.93908-6.62394 2.41302 2.41302 2.59709 7.87004.40824 12.1028C95.06135 37.71583 86.74642 41.0358 82 39.29057zm-9.47337-23.9068c-2.48172-2.48172.06898-5.412 7.08392-8.13808 8.10899-3.15123 12.44866-3.71383 14.84988-1.92513 1.70172 1.26764 1.80078 1.81074.7506 4.11562-2.61642 5.74243-18.67832 9.95367-22.6844 5.9476z"/><path fill="#155d9d" d="M119 243.79876c0-2.42829 3.2033-4.61161 8.51615-5.80446C134.4635 236.43447 145 238.54262 145 241.49249c0 1.32676-3.88165 2.01117-17.75 3.12968-6.93701.55949-8.25.42844-8.25-.82341zm-21.35251-1.80497c-4.86889-1.02602-9.10639-2.11935-9.41667-2.42964-1.04928-1.04928 11.44506-.5727 14.86996.5672 3.98031 1.32475 7.29729 3.91524 4.86351 3.79829-.80536-.0387-5.44792-.90983-10.3168-1.93585zM155 238.36808c0-2.57758 6.45897-7.99573 11.63357-9.75889 5.21571-1.77717 13.91184-2.15375 14.84561-.64287.74298 1.20216-9.67539 6.53492-18.90433 9.6764-8.23479 2.80307-7.57485 2.73988-7.57485.72536zm-50.5-2.57463c-4.24239-1.48294-9.14936-5.34461-9.7604-7.6812-1.40548-5.37458 6.64368-9.00487 15.76657-7.11097 6.2912 1.30605 11.32742 4.4208 13.46812 8.32962 1.46079 2.66734 1.40632 2.88978-1.28005 5.22749-2.35598 2.0502-3.79874 2.42895-9 2.36266-3.40683-.0434-7.54424-.55084-9.19424-1.1276zm-32.42892-2.545c-1.8859-.96165-4.32655-2.97295-5.42367-4.46956-4.26689-5.82055 2.55247-10.53362 11.40398-7.88164 8.33609 2.49755 13.13721 10.32589 8.01435 13.06757-2.9792 1.59441-10.18644 1.22548-13.99466-.71637zm66.31704-.22852c-1.16154-.46931-3.10921-2.12119-4.32816-3.67083-2.51204-3.19354-2.23749-7.36764.70192-10.6715 5.60545-6.30048 20.78326-6.13307 24.20848.26701 2.60075 4.85955-.40698 11.08639-6.60614 13.67657-3.64398 1.52255-10.69672 1.72377-13.9761.39875zM54.25 223.88495c-3.40851-2.18287-4.51156-3.64875-1.5-1.99341 2.29443 1.26116 5.88883 4.0407 5.25 4.05981-.275.008-1.9625-.92165-3.75-2.0664zm135.75-.37247c0-4.86951 13.3235-16.60209 18.70034-16.4674 1.26631.0317.129 1.58761-3.83762 5.25C198.84823 217.84827 190 224.52633 190 223.51248zM49 220.5c0-.275.225-.5.5-.5s.5.225.5.5-.225.5-.5.5-.5-.225-.5-.5zm124.76788-.46013c-1.50267-.29693-3.68895-1.36473-4.8584-2.37289-4.41126-3.80287.31648-12.06024 8.74887-15.2806 8.95273-3.41908 18.39042.25436 16.82905 6.55039-1.69901 6.85106-12.62027 12.7035-20.71952 11.1031zm-91.8828-1.36853c-7.92938-2.94542-13.86433-10.01062-12.36842-14.72383 2.50428-7.89029 19.15352-5.48529 25.12572 3.62944 2.10513 3.21283 2.18268 8.02656.16187 10.04737-2.1258 2.12581-8.602 2.65066-12.91918 1.04702zm-28.47378-1.56229C44.45371 211.64677 42.18927 200 50.08484 200c6.47898 0 12.94578 6.37222 13.13253 12.94047.16765 5.89631-4.03972 7.68487-9.80607 4.16858zm63.94689-1.0878c-4.25216-.98041-9.80168-4.52296-11.75472-7.50368-.88191-1.34596-1.60347-4.23037-1.60347-6.40981 0-10.1672 15.67099-12.09702 25.13393-3.09514C132.2703 201.99618 133 203.39256 133 206.41091c0 2.04631-.4328 4.52927-.96178 5.51768-1.67445 3.12873-9.45399 5.2976-14.68003 4.09266zm-82.8895-9.13681c-5.56155-5.69841-4.51403-6.84728 1.37632-1.50948C37.88534 207.2239 41.5967 213 40.74438 213c-.16884 0-2.9929-2.752-6.27568-6.11556zm112.7294-1.55725c-6.61984-3.26245-8.11951-11.06922-3.20222-16.66971 9.93826-11.31905 31.00646-1.5559 24.29336 11.25771-3.38584 6.46272-13.62691 9.09058-21.09114 5.412zM203.2 201.8c-1.61003-1.61003-1.52292-9.09579.15223-13.08212 1.70976-4.06869 7.09634-9.36266 10.35988-10.18176 1.53988-.38649 3.41893-.0251 4.89378.9413 4.76092 3.11948 2.12439 15.20597-4.54032 20.81395-3.44389 2.89785-8.74089 3.63331-10.86557 1.50863zm-144.59568-4.8486C52.27875 195.08071 46 186.19377 46 179.11127 46 174.35934 48.03083 172 52.12109 172 59.95737 172 68 180.99499 68 189.75921c0 6.2735-3.48405 8.94047-9.39568 7.19219zm29.04414-3.97802C79.7959 190.61965 73.5 183.22292 73.5 176.35105c0-5.79641 2.7214-8.47373 9.25095-9.10114 12.18522-1.17085 24.18102 12.53461 19.16856 21.90049-1.15699 2.16185-6.70669 4.905-9.6374 4.76365-.98016-.0473-3.0653-.47058-4.63365-.94067zm96.70854-1.96496c-3.47842-1.40372-5.357-5.03273-5.357-10.34857 0-4.35294.43002-5.32516 3.88235-8.7775 3.23541-3.2354 4.55922-3.88235 7.94424-3.88235 5.75608 0 9.21519 3.19105 9.88316 9.11728 1.11414 9.88463-7.70877 17.37942-16.35275 13.89114zm-61.857-5.21497c-7.74962-2.7089-12.5-8.73002-12.5-15.84379 0-12.66379 19.8586-15.3832 28.07485-3.84454 1.25581 1.76361 2.44072 5.20509 2.69179 7.81807.3814 3.96929.0487 5.14277-2.22334 7.84299-2.45194 2.91396-7.86615 5.32916-11.5433 5.1493-.825-.0404-2.85-.54527-4.5-1.12203zm30.82548-10.25258c-8.83235-3.84188-10.39621-16.75954-2.83291-23.4002 6.2107-5.45307 14.29271-5.10556 20.00838.86032 3.93509 4.10735 4.69496 12.32792 1.60212 17.33224-3.72579 6.02846-11.76496 8.25798-18.77759 5.20764zm73.7097-3.47513c-1.45269-2.71439-1.2914-5.9575.56765-11.41351 2.69552-7.91092 10.32832-13.60119 12.08917-9.01249.72444 1.88786-3.88214 16.75929-6.22937 20.11026-1.93431 2.76148-5.03696 2.91389-6.42745.31574zm-17.74526-2.54239c-4.67913-3.34691-4.17639-13.05642.97803-18.88886 4.37386-4.9492 8.69439-5.76306 12.16576-2.29169 8.09758 8.09759-4.05533 27.68138-13.14379 21.18055zM93.5 160.5078c-5.24417-1.84126-10.12792-7.52264-11.33614-13.18761-3.07666-14.4255 11.23923-21.85385 22.17542-11.50657C108.40187 139.65744 110 143.23905 110 148.5c0 6.03177-2.31832 10.31723-6.5343 12.07878-4.12209 1.72232-4.87334 1.71697-9.9657-.071zm95.91519-3.88154c-6.34821-2.86211-9.84746-10.75424-7.39425-16.67682 5.1119-12.34121 22.96309-7.06962 22.97532 6.78478.007 8.10828-8.10883 13.26092-15.58107 9.89204zm-63.34411-8.32171c-9.56332-5.03294-10.60288-18.24329-1.93532-24.59343 3.78348-2.7719 10.57061-3.23789 14.79316-1.01567 9.56332 5.03294 10.60288 18.24329 1.93532 24.59343-3.78348 2.7719-10.57061 3.23789-14.79316 1.01567zm104.32862-5.06986c-2.15392-1.43822-3.3997-5.17626-3.3997-10.20107 0-12.36182 8.55501-19.48608 11.89482-9.90551 2.13791 6.13283.58989 14.47809-3.43164 18.49962-2.52466 2.52466-3.31395 2.77515-5.06348 1.60696zm11.14928-1.52932c-.88509-1.99247.0732-12.61891 1.44497-16.02326.67669-1.67933.8737-1.03007.85506 2.81789-.038 7.85034-1.34514 15.35497-2.30003 13.20537zm-30.18866-7.16554c-3.18455-2.23055-4.66278-6.87897-4.15082-13.05257.54517-6.57399 3.53416-10.48726 8.01027-10.48726 8.38603 0 11.71001 14.17627 5.15155 21.97056-2.78813 3.31351-5.77749 3.8341-9.011 1.56927z"/></g></svg>