<svg xmlns="http://www.w3.org/2000/svg" role="img" viewBox="7.37 8.37 630.76 110.26"><title>OpenEEmeter logo</title><defs><style>.cls-1{fill:#009ade}</style></defs><path d="M127.234 37.937v-8.579h-4.298v12.87h12.876v-4.291h-8.578z" class="cls-1"/><path fill="#003764" d="M144.389 20.771h-21.451v6.437h4.29V25.08H140.1v12.857h-2.143v4.291h6.432V20.771zm5.66734.25021h6.53511v15.77191h9.38613v5.43529h-15.92124zm18.71288 0h16.39627v5.43485h-9.86116v2.64364h8.46534v5.04978h-8.46534v8.07893h-6.53511z"/><path d="M202.02937 42.33961h-11.84386V20.972h11.84386v1.37394h-10.33176V30.428h9.75358v1.374h-9.75358v9.16369h10.33176zm20.66326 0h-1.52678L208.32906 23.369h-.11858q.17787 3.3908.17787 5.1153v13.85531h-1.45281V20.972h1.51209l12.82211 18.94148h.08893q-.13339-2.6308-.13353-4.99836V20.972h1.46749zm17.98065 0h-11.84387V20.972h11.84387v1.37394h-10.33177V30.428h9.75358v1.374h-9.75358v9.16369h10.33177zm6.41825-9.31001v9.31h-1.51209V20.972h5.15856q4.03167 0 5.95891 1.46886a5.20907 5.20907 0 0 1 1.92711 4.42125 5.72379 5.72379 0 0 1-1.14876 3.62442 6.39892 6.39892 0 0 1-3.49088 2.11938l5.88468 9.73373h-1.80856l-5.58824-9.31zm0-1.2861h4.1357a6.66621 6.66621 0 0 0 4.25427-1.20588 4.27882 4.27882 0 0 0 1.51183-3.55859 4.14866 4.14866 0 0 0-1.48218-3.55153q-1.48246-1.11082-4.83246-1.111h-3.58716zm24.83281-.42192h7.8095v9.52861a17.74339 17.74339 0 0 1-6.91126 1.28581q-5.01339 0-7.68642-2.79279t-2.67316-7.90732a11.74086 11.74086 0 0 1 1.32569-5.64991 9.21868 9.21868 0 0 1 3.79629-3.80719 11.68733 11.68733 0 0 1 5.67223-1.343 14.80483 14.80483 0 0 1 6.21586 1.2571l-.59413 1.31425a13.59935 13.59935 0 0 0-5.70865-1.2571 8.79219 8.79219 0 0 0-6.643 2.55009 9.49824 9.49824 0 0 0-2.456 6.87857q0 4.71432 2.33264 7.09282 2.33265 2.3789 6.85331 2.37863a13.44484 13.44484 0 0 0 4.96966-.81423V32.693h-6.30252zm18.1291 1.26602l6.30675-11.62321h1.621L290.805 33.99694v8.20868h-1.5472v-8.09269l-7.20568-13.14854h1.724z" class="cls-1"/><path fill="#004987" d="M381.842 83.125h-23.237v18.115h26.79v5.4h-33.653V55.917h33.27v5.4h-26.407v16.408h23.237v5.4zm-42.728 0h-23.236v18.115h26.789v5.4h-33.652V55.917h33.269v5.4h-26.406v16.408h23.236v5.4zm64.2949-27.20814l16.16468 41.21238h.209l16.16408-41.21238h8.77943v50.72293H437.863V86.57321l.69679-20.62306-.174-.03493-16.44352 40.72457H417.379L401.00536 66.02l-.174.03493.66186 20.51827v20.06658h-6.86311V55.91686zm80.6518 27.20793h-23.23617v18.11533h26.78938v5.39967h-33.65249V55.91686h33.26947v5.40027h-26.40636v16.408h23.23617zm52.39775-21.80766h-16.3038v45.32266h-6.86251V61.31713h-16.26887v-5.40027h39.43518zm39.4303 21.80766h-23.23617v18.11533H579.442v5.39967h-33.65253V55.91686h33.26946v5.40027h-26.40635v16.408h23.23617zm19.69091 1.51815v21.99685h-6.86784V55.91686h18.3719q8.332 0 12.72442 3.69547t4.39214 10.73687a11.49467 11.49467 0 0 1-2.03938 6.79793 13.80717 13.80717 0 0 1-5.94337 4.60187 10.40551 10.40551 0 0 1 6.01328 4.41022 14.43464 14.43464 0 0 1 1.83026 7.54763v4.77542a15.893 15.893 0 0 0 .5231 4.25353 6.3664 6.3664 0 0 0 1.81278 3.06751v.83648H619.32a5.6791 5.6791 0 0 1-1.74287-3.48575 28.75206 28.75206 0 0 1-.38389-4.74167v-4.63682a9.17143 9.17143 0 0 0-2.40519-6.62316 8.51671 8.51671 0 0 0-6.4496-2.50945zm0-5.40339h10.80679q5.82162 0 8.38411-2.20933 2.56188-2.20934 2.56248-6.73285a8.66865 8.66865 0 0 0-2.49257-6.628q-2.49318-2.34853-7.75675-2.34914h-11.50406zM19.565 86.069h39.652v20.15H19.565zm46.478 0h39.652v20.15H66.043z"/><path fill="#0082ca" d="M66.043 53.353h39.652v20.15H66.043zm-46.478 0h39.652v20.15H19.565z"/><path fill="#3a8dde" d="M162.64029 85.68026a21.0382 21.0382 0 0 1-5.60369 15.00053q-5.60457 5.96017-14.54336 5.959a18.05886 18.05886 0 0 1-14.03527-5.959q-5.40172-5.96017-5.40056-15.00053v-8.76992a21.56747 21.56747 0 0 1 5.40059-15.00053 18.01406 18.01406 0 0 1 14.03527-5.993 19.03181 19.03181 0 0 1 14.54336 5.976 21.098 21.098 0 0 1 5.60369 15.01751zm-6.67022-8.83782a16.63351 16.63351 0 0 0-3.65735-11.10669 12.19093 12.19093 0 0 0-9.81948-4.33345 11.29816 11.29816 0 0 0-9.295 4.33345 17.21684 17.21684 0 0 0-3.47062 11.10669v8.83782q0 6.84 3.47062 11.17459a11.297 11.297 0 0 0 9.295 4.334 12.1973 12.1973 0 0 0 9.83645-4.31765q3.6395-4.31646 3.64038-11.191zm22.76868 9.45256v20.34482h-6.86311V55.91686h19.40412q8.11668 0 12.61148 4.18074a14.33232 14.33232 0 0 1 4.4939 11.00892q0 6.93235-4.4939 11.06071-4.49424 4.12835-12.61148 4.12777zm0-5.39967h12.541q5.15547 0 7.699-2.76427a9.90465 9.90465 0 0 0 2.54325-6.97272 10.0492 10.0492 0 0 0-2.56071-7.02451q-2.56012-2.81667-7.68156-2.81667h-12.541zm68.92738 2.22946H224.43v18.11533h26.78937v5.39967h-33.65252V55.91686h33.26946v5.40027H224.43v16.408h23.23617zm51.11331 23.515h-6.86311l-24.42077-39.2262-.209.06986v39.15634h-6.86311V55.91686h6.86311l24.42079 39.15754.209-.06986V55.91686h6.86311zM19.565 20.636h39.652v20.15H19.565zm46.478 0h39.652v20.15H66.043z"/></svg>