<svg xmlns="http://www.w3.org/2000/svg" role="img" viewBox="18.84 12.84 216.32 215.07"><title>Open Climate Fix (member) logo</title><style>svg {enable-background:new 0 0 252 252}</style><path fill="none" stroke="#000" stroke-linecap="round" stroke-linejoin="round" stroke-miterlimit="10" stroke-width="7" d="M57.3 83.2L26.5 52.3l31.6-31.6m101.2 62.5l-30.8-30.9 31.6-31.6M180 52.3l31.6-31.6m-2.2 34.2l18.2-18.2m-16.7 46.5L180 52.3M77.6 83.2l30.8-30.9-31.6-31.6"/><path d="M29.5 122.4c2.4-2.3 5.2-3.4 8.7-3.4s6.3 1.1 8.7 3.4c2.4 2.3 3.5 5 3.5 8.3 0 3.2-1.2 6-3.5 8.3-2.4 2.3-5.2 3.4-8.7 3.4s-6.3-1.1-8.7-3.4c-2.4-2.3-3.5-5-3.5-8.3 0-3.2 1.2-6 3.5-8.3zm3.6 13.5c1.4 1.4 3.1 2.1 5.1 2.1s3.7-.7 5.1-2.1c1.4-1.4 2.1-3.2 2.1-5.2 0-2.1-.7-3.8-2.1-5.2-1.4-1.4-3.1-2.1-5.1-2.1s-3.7.7-5.1 2.1c-1.4 1.4-2.1 3.2-2.1 5.2 0 2.1.7 3.8 2.1 5.2zm36.3-16.4c2.3 0 4.2.7 5.7 2.2 1.5 1.4 2.3 3.2 2.3 5.4 0 2.1-.8 3.9-2.3 5.4-1.5 1.4-3.4 2.2-5.7 2.2h-4.6v7.4H60v-22.4h9.4zm-4.6 4.3v6.4h4.5c1 0 1.8-.3 2.4-.9.6-.6 1-1.4 1-2.3 0-.9-.3-1.7-1-2.3-.6-.6-1.4-.9-2.4-.9h-4.5zm38.9 13.8v4.3H86.9v-22.4h16.5v4.3H91.7v4.5h9.1v4.3h-9.1v5h12zm29.7-18.1v22.4h-4.2l-11.1-14.3v14.3h-4.8v-22.4h4.2l11.1 14.3v-14.3h4.8zm-91.9 40.9c1.1.3 1.9.7 2.6 1.1.7.4 1.3.9 1.8 1.3s.9.8 1.1 1.1l.4.5-3.1 3.1c-.1-.1-.1-.2-.3-.4-.1-.2-.4-.4-.7-.8s-.8-.7-1.2-1-1-.5-1.8-.8c-.7-.2-1.5-.4-2.2-.4-2.1 0-3.9.7-5.3 2.1s-2.1 3.2-2.1 5.3c0 2.1.7 3.9 2.1 5.3s3.2 2.1 5.3 2.1c.8 0 1.6-.1 2.3-.3.7-.2 1.4-.5 1.9-.8.5-.3.9-.6 1.3-.9.4-.3.6-.6.8-.8l.3-.3 2.9 3.1c-.1.1-.2.3-.4.5l-1.1 1.1c-.6.5-1.2 1-1.9 1.4s-1.6.7-2.6 1.1c-1.1.3-2.2.5-3.4.5-3.4 0-6.3-1.1-8.7-3.4-2.4-2.3-3.5-5-3.5-8.3 0-3.2 1.2-6 3.5-8.3 2.4-2.3 5.2-3.4 8.7-3.4 1.2-.1 2.3 0 3.3.3zm15.1 22.5v-22.5h4.8v18.1h10.4v4.3H56.6zm24-22.4h4.8V183h-4.8v-22.5zm35.5 0h4.3V183h-4.8v-15l-7.2 9.2-7.2-9.1V183h-4.8v-22.5h4.3l7.7 9.8 7.7-9.8zm19.7 17.1l-1.9 5.3h-5.1l8.8-22.5h5.1l8.8 22.5h-5.1l-1.9-5.3h-8.7zm4.3-11.5l-2.7 7.4h5.5l-2.8-7.4zm33.2-5.6v4.3h-6.4v18.1h-4.8v-18.1h-6.4v-4.3h17.6zm25.5 18.1v4.3H182v-22.5h16.5v4.3h-11.7v4.5h9.1v4.3h-9.1v5h12zm-155 22.8v4.3H32.1v5h9.1v4.3h-9.1v8.8h-4.8v-22.5h16.5zm9.3 0h4.8v22.5h-4.8v-22.5zm18.6 22.5h-5.5l7.9-11.7-7.2-10.7h5.5l4.8 7.2 4.8-7.2h5.4l-7.2 10.7 7.9 11.7h-5.4l-5.4-8.2-5.6 8.2z"/></svg>