<svg xmlns="http://www.w3.org/2000/svg" role="img" viewBox="-16.57 -16.57 861.64 359.14"><title>OpenHPL logo</title><path d="M286.5 2.5h-11v133l-49-63.25C186.25 20.25 158.75 0 118.25 0c-32 0-60.75 17.75-60.75 51s25.5 44 49 54.75c20 9 38.75 17.25 38.75 38 0 22.5-21 37.25-52.75 37.25-38.75 0-61.5-24.75-61.5-66V2.5H0v107C0 169.75 46.75 191 92.5 191c51.25 0 80-27.75 80-64.25V51L278 188.5h8.5zM161.5 109c-8.25-13.25-24.5-21.25-40-29-20-9.75-39-19-39-38.75 0-21.75 15-31.75 37-31.25s42 13.75 42 48z"/><path d="M348.05 19.74h8.68v34.27c0 6.4 3.38 10.3 10.3 10.3 6.92 0 10.44-3.97 10.44-10.15V19.74h8.61v34.71c0 11.18-7.65 17.87-19.05 17.87s-18.97-6.69-18.97-17.87V19.74z"/><path d="M396.74 32.24h8.09v3.75h.15c2.06-2.65 6.1-4.85 10.52-4.85 8.53 0 13.9 5.37 13.9 14.56v25.52h-8.31V47.91c0-5.74-2.06-9.05-7.57-9.05-5.15 0-8.38 3.16-8.38 8.16v24.19h-8.38V32.24z"/><path d="M440.06 17.54h8.68v8.31h-8.68zm.15 14.71h8.38v38.98h-8.38V32.24z"/><path d="M454.77 32.24h8.68l10.44 26.92h.15l10.44-26.92h8.6l-15.66 38.98h-6.99z"/><path d="M530.52 63.21c-3.01 4.85-7.94 9.12-16.18 9.12-10.59 0-18.31-7.94-18.31-20.59 0-12.65 7.72-20.59 17.94-20.59 10.22 0 17.73 7.79 17.73 20.59v2.5h-27.21c.22 6.32 3.53 10.66 9.71 10.66 6.18 0 8.6-3.97 10.3-6.62l6.03 4.93zm-6.99-15.3c-.29-5.22-3.31-9.34-9.56-9.34s-9.12 4.85-9.41 9.34z"/><path d="M540.15 32.24h7.94v4.12h.15c1.54-3.01 4.78-4.85 8.09-4.85 1.4 0 2.57.37 3.46.74l-1.32 8.16c-.81-.22-1.76-.59-3.09-.59-4.41 0-6.84 2.94-6.84 9.71v21.69h-8.38V32.24z"/><path d="M571.26 56.37c.66 5.74 3.9 8.9 9.41 8.9s8.23-1.98 8.23-5-2.43-3.82-10.74-6.18c-8.83-2.5-13.09-5.52-13.09-11.4 0-5.88 5-11.55 14.34-11.55s14.19 4.85 15.96 11.4l-7.06 2.06c-1.25-3.68-3.53-6.47-8.9-6.47-4.41 0-6.69 2.06-6.69 4.19 0 2.57 1.62 3.24 11.47 6.03 9.86 2.79 12.28 6.4 12.28 12.06s-4.49 11.91-15.52 11.91-16.4-7.06-17.36-14.12l7.65-1.84h.02z"/><path d="M604.58 17.54h8.68v8.31h-8.68zm.15 14.71h8.38v38.98h-8.38V32.24z"/><path d="M626.5 39.45h-5.89v-7.21h6.1v-9.56h7.94v9.56h9.78v7.21h-9.71v17.87c0 4.05.81 5.81 5.08 5.81h3.09v8.09h-3.75c-9.78 0-12.65-4.41-12.65-13.02V39.45z"/><path d="M683.72 63.21c-3.01 4.85-7.94 9.12-16.18 9.12-10.59 0-18.31-7.94-18.31-20.59 0-12.65 7.72-20.59 17.94-20.59 10.22 0 17.73 7.79 17.73 20.59v2.5h-27.21c.22 6.32 3.53 10.66 9.71 10.66 6.18 0 8.6-3.97 10.3-6.62l6.03 4.93zm-6.99-15.3c-.29-5.22-3.31-9.34-9.56-9.34s-9.12 4.85-9.41 9.34z"/><path d="M695.19 39.45h-5.89v-7.21h6.1v-9.56h7.94v9.56h9.78v7.21h-9.71v17.87c0 4.05.81 5.81 5.08 5.81h3.09v8.09h-3.75c-9.78 0-12.65-4.41-12.65-13.02V39.45z"/><path d="M752.41 63.21c-3.01 4.85-7.94 9.12-16.18 9.12-10.59 0-18.31-7.94-18.31-20.59 0-12.65 7.72-20.59 17.94-20.59 10.22 0 17.73 7.79 17.73 20.59v2.5h-27.21c.22 6.32 3.53 10.66 9.71 10.66 6.18 0 8.6-3.97 10.3-6.62l6.03 4.93zm-6.99-15.3c-.29-5.22-3.31-9.34-9.56-9.34s-9.12 4.85-9.41 9.34z"/><path d="M763.89 39.45H758v-7.21h6.1v-9.56h7.94v9.56h9.78v7.21h-9.71v17.87c0 4.05.81 5.81 5.08 5.81h3.09v8.09h-3.75c-9.78 0-12.65-4.41-12.65-13.02V39.45z"/><path d="M349 102.12h8.68v8.31H349zm.15 14.71h8.38v38.98h-8.38z"/><path d="M387.03 136.47c1.25 8.23 3.75 12.43 11.62 12.43 6.32 0 10-2.72 10-6.99s-1.76-5.88-13.6-9.56c-11.03-3.46-15.08-8.16-15.08-14.85 0-7.43 6.03-14.27 16.92-14.27 9.12 0 17.06 4.34 18.75 14.12l-8.46 2.06c-1.25-4.56-3.75-8.09-10.3-8.09-5.81 0-8.38 2.72-8.38 6.1 0 3.38 1.69 4.49 13.02 8.31 12.43 4.19 15.66 8.09 15.66 15.66 0 8.68-6.91 15.52-18.6 15.52-11.69 0-19.12-6.18-20.67-18.46l9.12-1.99z"/><path d="M427.63 150.81c-2.87-3.46-4.56-8.31-4.56-14.49 0-13.31 8.46-20.59 18.09-20.59 3.97 0 7.72 1.33 10.81 3.75l2.8-3.68 2.79 2.35-3.01 3.82c2.8 3.46 4.56 8.31 4.56 14.34 0 13.31-7.87 20.59-17.94 20.59-4.19 0-8.02-1.25-11.03-3.6l-2.72 3.53-2.8-2.28 3.02-3.75zm19.49-25.14c-1.62-1.54-3.68-2.35-5.96-2.35-5.51 0-9.78 4.41-9.78 13.02 0 3.16.52 5.74 1.47 7.72zm-12.13 21.4c1.62 1.54 3.75 2.28 6.18 2.28 5.66 0 9.71-4.56 9.71-13.02 0-3.09-.59-5.59-1.62-7.57z"/><path d="M467.93 116.83h7.94v4.12h.15c1.54-3.01 4.78-4.85 8.09-4.85 1.4 0 2.57.37 3.46.74l-1.32 8.16c-.81-.22-1.76-.59-3.09-.59-4.41 0-6.84 2.94-6.84 9.71v21.69h-8.38v-38.98z"/><path d="M495.07 150.81c-2.87-3.46-4.56-8.31-4.56-14.49 0-13.31 8.46-20.59 18.09-20.59 3.97 0 7.72 1.33 10.81 3.75l2.8-3.68 2.79 2.35-3.01 3.82c2.8 3.46 4.56 8.31 4.56 14.34 0 13.31-7.87 20.59-17.94 20.59-4.19 0-8.02-1.25-11.03-3.6l-2.72 3.53-2.8-2.28 3.02-3.75zm19.49-25.14c-1.62-1.54-3.68-2.35-5.96-2.35-5.51 0-9.78 4.41-9.78 13.02 0 3.16.51 5.74 1.47 7.72zm-12.13 21.4c1.62 1.54 3.75 2.28 6.18 2.28 5.66 0 9.71-4.56 9.71-13.02 0-3.09-.59-5.59-1.62-7.57z"/><path d="M539.93 140.95c.66 5.74 3.9 8.9 9.41 8.9s8.23-1.98 8.23-5-2.43-3.82-10.74-6.18c-8.83-2.5-13.09-5.52-13.09-11.4 0-5.88 5-11.55 14.34-11.55s14.19 4.85 15.96 11.4l-7.06 2.06c-1.25-3.68-3.53-6.47-8.9-6.47-4.41 0-6.69 2.06-6.69 4.19 0 2.57 1.62 3.23 11.47 6.03 9.86 2.79 12.28 6.4 12.28 12.06s-4.49 11.91-15.52 11.91-16.4-7.06-17.36-14.12l7.65-1.84h.02z"/><path d="M574.72 124.04h-5.89v-7.21h6.1v-9.56h7.94v9.56h9.78v7.21h-9.71v17.87c0 4.04.81 5.81 5.08 5.81h3.09v8.09h-3.75c-9.78 0-12.65-4.41-12.65-13.02v-18.75z"/><path d="M601.16 128.01h21.78v6.69h-21.78z"/><path d="M634.82 104.33h9.04l20.45 36.41h.15v-36.41h8.68v51.48h-8.82l-20.67-36.4h-.15v36.4h-8.68z"/><path d="M682.33 136.32c0-13.31 8.46-20.59 18.09-20.59 9.63 0 17.94 7.28 17.94 20.59 0 13.31-7.87 20.59-17.94 20.59s-18.09-7.28-18.09-20.59zm27.8 0c0-8.46-4.05-13.02-9.71-13.02-5.66 0-9.78 4.41-9.78 13.02s4.04 13.02 9.78 13.02c5.74 0 9.71-4.56 9.71-13.02z"/><path d="M726.83 116.83h7.94v4.12h.15c1.54-3.01 4.78-4.85 8.09-4.85 1.4 0 2.57.37 3.46.74l-1.32 8.16c-.81-.22-1.76-.59-3.09-.59-4.41 0-6.84 2.94-6.84 9.71v21.69h-8.38v-38.98z"/><path d="M758.38 159.34c1.91 4.12 4.41 6.76 9.64 6.76s8.75-2.72 8.75-8.9v-5h-.15c-1.54 2.28-5.15 4.71-10.08 4.71-9.78 0-17.5-7.5-17.5-20.59s8.31-20.59 17.35-20.59c5.22 0 8.61 2.35 10.52 4.85h.15v-3.75h8.09v39.2c0 11.62-7.28 17.43-17.13 17.43-8.46 0-13.83-4.34-16.11-10zm18.39-27.58c0-4.34-3.31-8.46-8.97-8.46-6.1 0-10.37 4.49-10.37 13.02s4.19 13.02 10.37 13.02c5.44 0 8.97-3.75 8.97-8.16v-9.41z"/><path d="M827.73 147.79c-3.01 4.85-7.94 9.12-16.18 9.12-10.59 0-18.31-7.94-18.31-20.59 0-12.65 7.72-20.59 17.94-20.59 10.22 0 17.73 7.8 17.73 20.59v2.5H801.7c.22 6.32 3.53 10.66 9.71 10.66 6.18 0 8.6-3.97 10.3-6.62l6.03 4.93zm-6.99-15.3c-.29-5.22-3.31-9.34-9.56-9.34s-9.12 4.85-9.41 9.34z"/><g transform="translate(-445.636 -396.213) scale(2.6971)"><path d="M253.00543 234.05017q1.77735 1.95313 2.71485 4.78516.95703 2.83203.95703 6.42578 0 3.59375-.97657 6.44531-.95703 2.83203-2.69531 4.72656-1.79687 1.97266-4.25781 2.96875-2.44141.9961-5.58594.9961-3.0664 0-5.58594-1.01563-2.5-1.01562-4.25781-2.94922-1.75781-1.93359-2.71484-4.74609-.9375-2.8125-.9375-6.42578 0-3.55469.9375-6.36719.9375-2.83203 2.73437-4.84375 1.71875-1.91406 4.25782-2.92969 2.55859-1.01562 5.5664-1.01562 3.125 0 5.60547 1.03515 2.5 1.01563 4.23828 2.91016zm-.35156 11.21094q0-5.66406-2.53906-8.73047-2.53907-3.08594-6.9336-3.08594-4.43359 0-6.97265 3.08594-2.51953 3.06641-2.51953 8.73047 0 5.72265 2.57812 8.76953 2.57813 3.02734 6.91406 3.02734 4.33594 0 6.89453-3.02734 2.57813-3.04688 2.57813-8.76953z"/><path d="M281.71637 248.62048q0 2.65625-.76172 4.86328-.76172 2.1875-2.14844 3.71094-1.28906 1.44531-3.04687 2.2461-1.73828.78125-3.69141.78125-1.69922 0-3.08594-.3711-1.36718-.37109-2.79296-1.15234v9.14062h-3.67188v-29.86328h3.67188v2.28516q1.46484-1.23047 3.28125-2.05078 1.83593-.83985 3.90625-.83985 3.94531 0 6.13281 2.98828 2.20703 2.96875 2.20703 8.26172zm-3.78906.0977q0-3.94531-1.34766-5.89844-1.34766-1.95312-4.14062-1.95312-1.58204 0-3.1836.68359-1.60156.68359-3.0664 1.79688v12.36328q1.5625.70312 2.67578.95703 1.13281.2539 2.55859.2539 3.06641 0 4.78516-2.07031 1.71875-2.07031 1.71875-6.13281z"/><path d="M305.70074 249.26501h-16.07421q0 2.01172.60546 3.51563.60547 1.48437 1.66016 2.44141 1.01563.9375 2.40234 1.40625 1.40625.46875 3.08594.46875 2.22656 0 4.47266-.87891 2.26562-.89844 3.22265-1.75781h.19532v4.0039q-1.85547.78125-3.78907 1.3086-1.93359.52734-4.0625.52734-5.42968 0-8.47656-2.92969-3.04687-2.94922-3.04687-8.35937 0-5.35156 2.91015-8.4961 2.92969-3.14453 7.69532-3.14453 4.41406 0 6.79687 2.57813 2.40234 2.57812 2.40234 7.32422zm-3.57421-2.8125q-.0195-2.89062-1.46485-4.47265-1.42578-1.58203-4.35547-1.58203-2.94922 0-4.70703 1.73828-1.73828 1.73828-1.97265 4.3164z"/><path d="M329.50934 259.79236h-3.67188v-12.42188q0-1.5039-.17578-2.8125-.17578-1.32812-.64453-2.07031-.48828-.82031-1.40625-1.21094-.91797-.41015-2.38281-.41015-1.50391 0-3.14453.74218-1.64063.74219-3.14453 1.89454v16.28906h-3.67188v-21.81641h3.67188v2.42188q1.71875-1.42578 3.55468-2.22657 1.83594-.80078 3.76953-.80078 3.53516 0 5.39063 2.12891t1.85547 6.13281z"/><path d="M359.11871 259.79236h-3.86718v-14.23828h-14.51172v14.23828h-3.86719v-29.08203h3.86719v11.40625h14.51172v-11.40625h3.86718z"/><path d="M385.95465 239.49939q0 1.93359-.68359 3.59375-.66407 1.64062-1.875 2.85156-1.50391 1.50391-3.55469 2.26563-2.05078.74218-5.17578.74218h-3.86719v10.83985h-3.86719v-29.08203h7.89063q2.61719 0 4.43359.44922 1.81641.42968 3.22266 1.36718 1.66015 1.11328 2.55859 2.77344.91797 1.66016.91797 4.19922zm-4.02344.0977q0-1.50391-.52734-2.61719-.52734-1.11328-1.60156-1.81641-.9375-.60547-2.14844-.85937-1.19141-.27344-3.02734-.27344h-3.82813v11.62109h3.26172q2.34375 0 3.80859-.41015 1.46485-.42969 2.38282-1.34766.91796-.9375 1.28906-1.97266.39062-1.03515.39062-2.32421z"/><path d="M409.45074 259.79236h-18.39843v-29.08203h3.86718v25.64453h14.53125z"/></g></svg>