<svg xmlns="http://www.w3.org/2000/svg" role="img" viewBox="19.94 -6.06 1199.12 661.12"><title>OpenMobility logo</title><defs><clipPath id="a" clipPathUnits="userSpaceOnUse"><path d="M0 1000h1000V0H0v1000z"/></clipPath></defs><g transform="matrix(1.25 0 0 -1.25 0 650) translate(-39.73 -178.56)"><path fill="#f7941e" fill-opacity="1" fill-rule="nonzero" stroke="none" d="M411.327 525.639l103.03504 8.25474 16.58545-102.19543 40.35282 174.5224L411.327 525.639z"/><g clip-path="url(#a)" transform="translate(-130.624 -227.795) scale(1.3327)"><path fill="#000" fill-opacity="1" fill-rule="nonzero" stroke="none" d="M454.793 555.986l-24.213-1.938c10.762-18.554 28.161-32.795 48.94-39.427l-3.967 24.444c-8.025 4.185-15.088 9.963-20.76 16.921"/><path fill="#000" fill-opacity="1" fill-rule="nonzero" stroke="none" d="M593.026 597.588c0 48.016-39.065 87.08-87.08 87.08-48.017 0-87.081-39.064-87.081-87.08 0-3.665.255-7.267.695-10.813 0 0 20.415 10.637 20.415 10.813 0 36.376 29.594 65.969 65.971 65.969 36.376 0 65.968-29.593 65.968-65.969 0-32.115-23.069-58.925-53.501-64.775l-12.467-55.071 24.903 36.42-.011.018c35.917 10.733 62.188 44.046 62.188 83.408"/><path fill="#000" fill-opacity="1" fill-rule="nonzero" stroke="none" d="M199.309 373.469c0 9.121-5.32 16.088-14.44 16.088s-14.44-6.967-14.44-16.088c0-9.119 5.32-16.086 14.44-16.086s14.44 6.967 14.44 16.086m16.466 0c0-17.605-13.3-31.539-30.906-31.539-17.606 0-30.906 13.934-30.906 31.539 0 17.607 13.3 31.414 30.906 31.414 17.606 0 30.906-13.807 30.906-31.414"/><path fill="#000" fill-opacity="1" fill-rule="nonzero" stroke="none" d="M268.97 373.469c0 9.121-5.192 16.088-14.313 16.088-9.12 0-14.439-6.967-14.439-16.088 0-9.119 5.319-16.086 14.439-16.086 9.121 0 14.313 6.967 14.313 16.086m16.847 0c0-17.605-11.78-31.539-29.386-31.539-6.46 0-12.033 2.408-16.213 6.334v-32.932h-16.847v88.664h16.847v-5.193c4.18 3.799 9.753 6.08 16.213 6.08 17.606 0 29.386-13.807 29.386-31.414"/><path fill="#000" fill-opacity="1" fill-rule="nonzero" stroke="none" d="M308.74 379.17h25.333c-1.394 6.08-5.193 10.387-12.286 10.387-7.094 0-11.526-4.307-13.047-10.387m.127-11.779c1.9-5.953 6.587-10.008 13.553-10.008 4.94 0 8.867 2.027 11.273 5.447l13.933-6.84c-5.067-8.486-14.06-14.06-25.206-14.06-17.606 0-30.906 13.933-30.906 31.539 0 17.607 12.666 31.414 30.273 31.414 17.479 0 28.246-13.807 28.246-31.414 0-2.153-.127-4.18-.507-6.078h-40.659z"/><path fill="#000" fill-opacity="1" fill-rule="nonzero" stroke="none" d="M411.844 376.129v-33.186h-16.846v33.821c0 8.865-3.674 12.412-9.753 12.412-6.08 0-10.133-4.053-10.133-13.047v-33.186h-16.846v61.053h16.846v-5.32c3.673 3.799 8.486 6.207 14.186 6.207 13.933 0 22.546-10.008 22.546-28.754"/><path fill="#f7941e" fill-opacity="1" fill-rule="nonzero" stroke="none" d="M512.16 431.607v-88.664h-16.847v55.859l-21.659-34.959h-10.006l-21.66 34.959v-55.859h-16.846v88.664h15.706l27.74-44.838 27.992 44.838h15.58z"/><path fill="#f7941e" fill-opacity="1" fill-rule="nonzero" stroke="none" d="M565.738 373.469c0 9.121-5.319 16.088-14.439 16.088-9.121 0-14.44-6.967-14.44-16.088 0-9.119 5.319-16.086 14.44-16.086 9.12 0 14.439 6.967 14.439 16.086m16.467 0c0-17.605-13.3-31.539-30.906-31.539-17.607 0-30.906 13.934-30.906 31.539 0 17.607 13.299 31.414 30.906 31.414 17.606 0 30.906-13.807 30.906-31.414"/><path fill="#f7941e" fill-opacity="1" fill-rule="nonzero" stroke="none" d="M635.401 373.469c0 9.121-5.319 16.088-14.313 16.088-9.12 0-14.439-6.967-14.439-16.088 0-9.119 5.319-16.086 14.439-16.086 8.994 0 14.313 6.967 14.313 16.086m16.847 0c0-17.605-11.781-31.539-29.386-31.539-6.46 0-12.033 2.408-16.213 6.207v-5.193h-16.847v88.664h16.847v-32.932c4.18 3.799 9.753 6.207 16.213 6.207 17.605 0 29.386-13.807 29.386-31.414"/><path fill="#f7941e" fill-opacity="1" fill-rule="nonzero" stroke="none" d="M659.594 403.996h16.846v-61.053h-16.846v61.053zm-1.014 17.859c0 5.321 4.18 9.5 9.5 9.5 5.193 0 9.373-4.179 9.373-9.5 0-5.193-4.18-9.373-9.373-9.373-5.32 0-9.5 4.18-9.5 9.373"/><path fill="#f7941e" fill-opacity="1" fill-rule="nonzero" stroke="none" d="M705.064 342.943h-16.846v94.998h16.846v-94.998z"/><path fill="#f7941e" fill-opacity="1" fill-rule="nonzero" stroke="none" d="M716.209 403.996h16.846v-61.053h-16.846v61.053zm-1.014 17.859c0 5.321 4.18 9.5 9.5 9.5 5.194 0 9.373-4.179 9.373-9.5 0-5.193-4.179-9.373-9.373-9.373-5.32 0-9.5 4.18-9.5 9.373"/><path fill="#f7941e" fill-opacity="1" fill-rule="nonzero" stroke="none" d="M784.352 348.01c-3.167-3.039-8.866-5.699-16.086-5.699-12.92 0-20.14 6.713-20.14 19.379v26.093h-8.359v16.213h8.359v13.68l16.846 3.799v-17.479h14.187v-16.213h-14.187v-20.646c0-5.447 1.394-8.74 6.714-8.74 2.279 0 5.446 1.013 7.093 2.533l5.573-12.92z"/><path fill="#f7941e" fill-opacity="1" fill-rule="nonzero" stroke="none" d="M824.251 344.21c-6.713-17.227-13.426-29.514-34.198-26.6l2.659 15.58c5.32-.886 10.134-1.267 14.82 10.766l-21.913 60.039h17.353l12.92-37.873 12.92 37.873h17.225s-17.985-50.285-21.786-59.785"/></g></g></svg>