<svg xmlns="http://www.w3.org/2000/svg" role="img" viewBox="-2.66 -2.66 138.19 16.57"><title>OpenAQ API Version 2 logo</title><g transform="translate(-.674 8.906)"><path d="M7.67578-7.72266q.5332.58594.81445 1.43555.28711.84961.28711 1.92773 0 1.07813-.29296 1.9336-.28711.8496-.8086 1.41797-.53906.5918-1.27734.89062-.73242.29883-1.67578.29883-.91993 0-1.67579-.30469-.75-.30468-1.27734-.88476Q1.2422-1.5879.95508-2.43164.67383-3.2754.67383-4.35937q0-1.06641.28125-1.91016.28125-.84961.82031-1.45313.51563-.57421 1.27734-.8789.76758-.30469 1.66993-.30469.9375 0 1.68164.31055.75.30468 1.27148.87304zm-.10547 3.36329q0-1.69922-.76172-2.61915-.76171-.92578-2.08007-.92578-1.33008 0-2.0918.92578-.75586.91993-.75586 2.61915 0 1.7168.77344 2.63085.77343.9082 2.07422.9082 1.30078 0 2.06835-.9082.77344-.91406.77344-2.63085z"/><path d="M16.28906-3.35156q0 .79687-.22851 1.45898-.22852.65625-.64453 1.11328-.38672.4336-.91407.67383-.52148.23438-1.10742.23438-.50976 0-.92578-.11133-.41016-.11133-.8379-.3457v2.74218H10.5293v-8.95898h1.10156v.68554q.43945-.36914.98437-.61523.55079-.25195 1.17188-.25195 1.1836 0 1.83984.89648.66211.89063.66211 2.47852zm-1.13672.0293q0-1.1836-.4043-1.76954-.40429-.58593-1.24218-.58593-.47461 0-.95508.20507-.48047.20508-.91992.53907v3.70898q.46875.21094.80273.28711.33985.07617.76758.07617.91992 0 1.43555-.6211.51562-.62109.51562-1.83984z"/><path d="M23.48438-3.1582H18.6621q0 .60351.18164 1.05468.18164.44532.49805.73243.30468.28125.7207.42187.42188.14063.92578.14063.66797 0 1.3418-.26368.67969-.26953.9668-.52734h.05858v1.20117q-.55663.23438-1.13671.39258-.58008.1582-1.21875.1582-1.6289 0-2.54297-.8789-.91406-.88477-.91406-2.50781 0-1.60547.87305-2.54883.8789-.94336 2.30859-.94336 1.32422 0 2.03906.77344.7207.77343.7207 2.19726zm-1.07227-.84375q-.0059-.8672-.43945-1.3418-.42774-.4746-1.30664-.4746-.88477 0-1.41211.52147-.52149.52149-.5918 1.29493z"/><path d="M30.62695 0H29.5254v-3.72656q0-.45117-.05273-.84375-.05273-.39844-.19336-.6211-.14648-.24609-.42187-.36328-.2754-.12304-.71485-.12304-.45117 0-.94336.22265-.49218.22266-.94336.56836V0H25.1543v-6.54492h1.10156v.72656q.51563-.42773 1.06641-.66797.55078-.24023 1.13086-.24023 1.06055 0 1.61719.63867.55664.63867.55664 1.83984z"/><path d="M39.71484 0h-1.23632l-.85547-2.43164H33.8496L32.99414 0h-1.17773l3.17578-8.7246h1.54687zm-2.44922-3.42773l-1.5293-4.2832-1.53515 4.2832z"/><path d="M48.82031 2.13867q-.35156.0879-.69726.12305-.33985.04101-.69727.04101-1.01953 0-1.64062-.5625-.61524-.55664-.66797-1.5996-.14063.02343-.2754.0293-.1289.01171-.25195.01171-.91992 0-1.67578-.30469-.75-.30468-1.27734-.88476-.52734-.58008-.81445-1.42383-.28125-.84375-.28125-1.92773 0-1.06641.28125-1.91016.28125-.84961.8203-1.45313.51563-.57421 1.27735-.8789.76758-.30469 1.66992-.30469.9375 0 1.68164.31055.75.30468 1.27149.87304.5332.58594.81445 1.43555.28711.84961.28711 1.92774 0 1.5996-.65625 2.6953Q47.3379-.56835 46.23633-.1289q.02344.66797.3164 1.03711.29297.36914 1.06641.36914.24023 0 .56836-.07617.33398-.07031.4746-.1289h.15821zM47.4375-4.35938q0-1.69921-.76172-2.61914-.76172-.92578-2.08008-.92578-1.33008 0-2.0918.92578-.75585.91993-.75585 2.61915 0 1.7168.77343 2.63085.77344.9082 2.07422.9082t2.06836-.9082q.77344-.91406.77344-2.63085z"/><path d="M61.58203 0H60.3457l-.85547-2.43164H55.7168L54.86133 0h-1.17774l3.17578-8.7246h1.54688zm-2.44922-3.42773l-1.5293-4.2832-1.53515 4.2832z"/><path d="M68.61328-6.0879q0 .58009-.20508 1.07813-.19922.4922-.5625.85547-.45117.45118-1.0664.6797-.61524.22265-1.55274.22265h-1.16015V0h-1.16016v-8.7246h2.36719q.78515 0 1.33008.13476.54492.1289.9668.41015.49804.33399.76757.83203.2754.49805.2754 1.25977zm-1.20703.0293q0-.45117-.1582-.78515t-.48047-.54492q-.28125-.18164-.64453-.25781-.35743-.08204-.9082-.08204H64.0664v3.48633h.97851q.70313 0 1.14258-.12304.43945-.12891.71484-.4043.2754-.28125.38672-.5918.11719-.31054.11719-.69726z"/><path d="M73.21875 0h-3.44531v-.89063h1.14258v-6.94335h-1.14258v-.89063h3.44531v.89063h-1.14258v6.94336h1.14258z"/><path d="M86.29102-8.7246L83.11523 0h-1.54687l-3.17578-8.7246h1.24219l2.73632 7.67577 2.73633-7.67578z"/><path d="M92.41992-3.1582h-4.82226q0 .60351.18164 1.05468.18164.44532.49804.73243.3047.28125.7207.42187.42188.14063.92579.14063.66797 0 1.3418-.26368.67968-.26953.9668-.52734h.05858v1.20117q-.55664.23438-1.13672.39258-.58008.1582-1.21875.1582-1.6289 0-2.54297-.8789-.91406-.88477-.91406-2.50782 0-1.60546.87305-2.54882.8789-.94336 2.3086-.94336 1.32421 0 2.03905.77344.7207.77343.7207 2.19726zm-1.07226-.84375q-.0059-.8672-.43946-1.3418-.42773-.4746-1.30664-.4746-.88476 0-1.4121.52147-.5215.52149-.5918 1.29493z"/><path d="M98.17383-5.34375h-.0586q-.24608-.0586-.48046-.08203-.22852-.0293-.54492-.0293-.50977 0-.98438.22852-.4746.22265-.91406.58008V0h-1.10156v-6.54492h1.10156v.9668q.65625-.52735 1.1543-.74415.5039-.22265 1.02539-.22265.2871 0 .41601.01758.12891.01172.38672.05273z"/><path d="M103.88672-1.88672q0 .89649-.74414 1.4707-.73828.57422-2.02149.57422-.72656 0-1.33593-.16992-.60352-.17578-1.01368-.38086V-1.6289h.0586q.52148.39258 1.16015.62696.63868.22851 1.22461.22851.72657 0 1.13672-.23437.41016-.23438.41016-.73828 0-.38672-.22266-.58594-.22265-.19922-.85547-.33984-.23437-.05274-.61523-.12305-.375-.07031-.68555-.15235-.86133-.22851-1.22461-.66796-.35742-.44532-.35742-1.08985 0-.4043.16406-.76172.16992-.35742.50977-.63867.32812-.27539.83203-.4336.50977-.16405 1.13672-.16405.58594 0 1.18359.14648.60352.14062 1.00196.3457v1.17774h-.0586q-.42187-.31055-1.02539-.52149-.60351-.2168-1.18359-.2168-.60352 0-1.01953.23438-.41602.22852-.41602.68555 0 .4043.25195.60937.2461.20508.79688.33399.30469.0703.67969.14062.38086.07031.63281.1289.76758.17579 1.18359.60352.41602.4336.41602 1.14844z"/><path d="M106.64648-7.64063h-1.24218V-8.7832h1.24218zM106.57617 0h-1.10156v-6.54492h1.10156z"/><path d="M114.33398-3.26953q0 1.5996-.82031 2.52539-.82031.92578-2.19726.92578-1.38868 0-2.20899-.92578-.81445-.92578-.81445-2.5254 0-1.5996.81445-2.52538.82031-.93164 2.20899-.93164 1.37695 0 2.19726.93164.82031.92578.82031 2.52539zm-1.13671 0q0-1.27149-.49805-1.88672-.49805-.6211-1.38281-.6211-.89649 0-1.39453.6211-.49219.61523-.49219 1.88672 0 1.23047.49804 1.86914.49805.63281 1.38868.63281.8789 0 1.37695-.62695.50391-.63281.50391-1.875z"/><path d="M121.51172 0h-1.10156v-3.72656q0-.45117-.0527-.84375-.0527-.39844-.19336-.6211-.14648-.24609-.42187-.36328-.27539-.12304-.71485-.12304-.45117 0-.94336.22265-.49218.22266-.94335.56836V0h-1.10157v-6.54492h1.10157v.72656q.51562-.42773 1.0664-.66797.55078-.24023 1.13086-.24023 1.06055 0 1.61719.63867.55664.63867.55664 1.83984z"/><path d="M133.61719 0h-5.90625v-1.2246l1.23047-1.0547q.62109-.52734 1.15429-1.04883 1.125-1.08984 1.54102-1.72851.41601-.64453.41601-1.38867 0-.67969-.45117-1.06055-.44531-.38672-1.24804-.38672-.53321 0-1.1543.1875-.6211.1875-1.21289.57422h-.0586v-1.23047q.41602-.20508 1.10743-.375.69726-.16992 1.34765-.16992 1.3418 0 2.10352.6504.76172.64452.76172 1.75194 0 .49805-.12891.93164-.12305.42774-.36914.81446-.22852.36328-.53906.71484-.30469.35156-.74414.7793-.62696.61523-1.29493 1.19531-.66796.57422-1.24804 1.0664h4.69336z"/></g></svg>