<svg xmlns="http://www.w3.org/2000/svg" role="img" viewBox="-9.42 -9.42 432.84 489.84"><title>origin logo</title><g transform="translate(-.012 -.392)"><g stroke-width=".333"><path fill="#cba8fe" d="M211.25 347.97331c-.49019-.2855-.58333-.84087-.58333-3.47814 0-3.74766.0778-3.82756 3.72809-3.83036 4.72717-.004 6.57982-1.04024 8.41501-4.70857.65463-1.30853 1.19023-2.5654 1.19023-2.79308 0-.26155-.68115-.47042-1.85025-.56737-1.01764-.0844-2.07386-.37704-2.34716-.65034-.64804-.64804-11.94403-38.76271-11.68675-39.43317.16105-.4197.88906-.51227 4.02864-.51227 3.4525 0 3.86638.0641 4.17844.6472.1905.35596 2.38153 7.96671 4.86895 16.91277 2.48741 8.94607 4.5598 16.3028 4.6053 16.34831.0455.0455 2.15048-7.37775 4.67773-16.49611 2.52725-9.11836 4.74764-16.76634 4.9342-16.99551.51913-.63769 7.37721-.57579 7.91436.0714.32678.39374-.60644 4.05042-4.82769 18.91666-2.87803 10.13571-5.74874 20.13678-6.37936 22.2246-3.37537 11.17494-7.58644 14.72047-17.44974 14.6919-1.55833-.005-3.09583-.1611-3.41667-.34796zm-42.83333-.68714c-.55576-.55953-.56959-5.9999-.0167-6.55283.29006-.29007 2.7209-.4 8.84404-.4 9.03294 0 9.87695-.12743 11.30735-1.70703 1.05112-1.1608 1.44466-3.03097 1.44675-6.8752l.002-3.41556-1.58333 1.63298c-2.09786 2.16351-3.89584 2.69814-9.07394 2.69814-7.07113 0-10.64214-1.67091-12.84668-6.01111-1.35977-2.67702-1.55413-4.78197-1.43022-15.48889.1095-9.46114.15635-10.10143.86933-11.88236 1.06255-2.65408 2.99433-4.71035 5.65748-6.02205l2.22434-1.09559 11.86823-.10228c10.04584-.0866 11.92979-.0281 12.2691.38073.30576.36842.37849 5.92876.30655 23.43562l-.0943 22.9526-.87839 1.87333c-1.23508 2.63407-2.99854 4.44217-5.5659 5.70677l-2.20587 1.08657-10.34159.10283c-7.97925.0793-10.43676.007-10.75825-.31667zm18.66124-23.02359c.84491-.47158 1.63133-1.27137 2.06085-2.09591.66163-1.27009.69458-1.83929.69458-12v-10.66666h-6.5597c-6.14821 0-6.61868.044-7.5.70151-.51717.38583-1.2403 1.21083-1.60697 1.83333-.62226 1.05643-.66667 1.73132-.66667 10.13182 0 7.68768.081 9.17849.55549 10.22408 1.06155 2.33921 3.03272 2.99038 8.38366 2.76949 2.62108-.10819 3.54444-.28688 4.63876-.89766zm-178.4348 9.94829c-3.51203-.94693-6.35484-3.46854-7.72378-6.85108-.73361-1.81271-.75266-2.16771-.75266-14.02645 0-11.92919.01499-12.20376.76791-14.06721 1.07753-2.66681 3.2325-4.94484 5.7986-6.12972l2.10015-.96974h15.33334l2 .93359c2.5982 1.21282 4.55118 3.15543 5.7243 5.69394.93653 2.02652.94305 2.08753 1.0533 9.85676.10183 7.1762.06242 7.8531-.48038 8.25-.45816.33502-3.25013.43238-12.39874.43238H8.25772l.1267 3.42265c.10927 2.95207.23586 3.57596.92069 4.53771 1.3837 1.94323 1.9764 2.03964 12.53943 2.03964 5.93363 0 9.77605.13028 10.17737.34506.56217.30086.64476.71931.64476 3.26667 0 1.82791-.14974 3.07134-.4 3.3216-.56954.56954-21.48754.52014-23.62355-.0558zM24.5 306.81766c0-4.74012-.2436-5.5308-2.07332-6.72968-1.32767-.86992-10.52391-.87109-11.85107-.002-1.58258 1.03694-2.0351 2.38471-2.18106 6.4961-.07322 2.06209-.0456 3.97731.06136 4.25606.16784.43739 1.2799.49456 8.11928.41742l7.92481-.08889zm20.49175 26.99398c-.19786-.52041-.32508-8.53485-.32508-20.4783s.12722-19.95789.32508-20.4783c.32174-.84623.3628-.85503 3.98827-.85503 4.15179 0 4.35331.12297 4.35331 2.65635v1.36684l1.05178-1.1979c1.97923-2.25423 3.16284-2.63037 8.70408-2.7661 4.2605-.10436 5.23037-.0271 7.21167.57474 4.1713 1.26699 6.93611 4.6368 7.68455 9.36607.46248 2.92232.465 31.1584.003 32.0219-.30897.5771-.72762.64476-3.9884.64476-3.2608 0-3.67944-.0677-3.98828-.64476-.2233-.41724-.34506-5.97662-.34506-15.75519 0-17.20938.0658-16.76426-2.69133-18.20353-1.35185-.70568-1.82411-.76149-5.642-.66667-4.89887.12167-6.14118.64082-7.30969 3.05463-.66632 1.37643-.69032 1.93883-.69032 16.17601 0 9.53011-.1221 14.97818-.34506 15.39475-.30901.5774-.72771.64476-4.00825.64476-3.62548 0-3.66653-.009-3.98827-.85503zm53.65137.39923c-3.51203-.94693-6.35485-3.46854-7.72378-6.85108-.73362-1.81271-.75267-2.16771-.75267-14.02645 0-11.92919.015-12.20376.76792-14.06721 1.07752-2.66681 3.2325-4.94484 5.79858-6.12972l2.10017-.96974h15.33333l2 .93359c2.59821 1.21282 4.55118 3.15543 5.72431 5.69394.93652 2.02652.94304 2.08753 1.05329 9.85676.10183 7.1762.0624 7.8531-.48038 8.25-.45815.33502-3.25012.43238-12.39874.43238H98.25772l.1267 3.42265c.10927 2.95207.23586 3.57596.9207 4.53771 1.38369 1.94323 1.97638 2.03964 12.53942 2.03964 5.93363 0 9.77605.13028 10.17738.34506.56216.30086.64475.71931.64475 3.26667 0 1.82791-.14974 3.07134-.4 3.3216-.56954.56954-21.48754.52014-23.62355-.0558zM114.5 306.81766c0-4.74012-.24359-5.5308-2.07331-6.72968-1.32767-.86992-10.52392-.87109-11.85108-.002-1.58258 1.03694-2.0351 2.38471-2.18106 6.4961-.07321 2.06209-.0456 3.97731.06136 4.25606.16784.43739 1.2799.49456 8.11929.41742l7.9248-.0892zm20.49175 26.99398c-.19785-.52041-.32508-8.53485-.32508-20.4783s.12723-19.95789.32508-20.4783c.32174-.84623.36279-.85503 3.98828-.85503 4.15238 0 4.35331.12271 4.35331 2.65879v1.36928l1.25-1.29989c1.8314-1.9045 4.32244-2.72818 8.25077-2.72818 3.74489 0 3.83256.0839 3.83256 3.66666 0 3.67097.005 3.66667-4.52243 3.66667-5.22194 0-6.90788.72102-8.18399 3.5-.56415 1.22854-.61285 2.48125-.61959 15.93858-.005 9.41618-.12992 14.83432-.35238 15.24999-.30902.5774-.72772.64476-4.00825.64476-3.62549 0-3.66654-.009-3.98828-.85503zm147.53969.10503c-.63923-.99067-10.22977-40.77963-9.98381-41.42057.27176-.70819 7.84532-.72755 8.43125-.0216.21661.261 1.75586 7.5735 3.42056 16.25s3.11834 15.87961 3.23031 16.00693c.11197.12731 1.83791-6.84769 3.83542-15.5 1.99751-8.65232 3.83847-16.06898 4.09102-16.48148.43093-.70386.68282-.75 4.09435-.75 2.6055 0 3.76251.12734 4.08472.44955.24725.24725 2.08718 7.6764 4.08873 16.50922 2.00156 8.83282 3.73981 15.86803 3.8628 15.63379.12298-.23424 1.54084-7.32589 3.15081-15.75923 1.60996-8.43333 3.13358-15.67083 3.38582-16.08333.4341-.7099.67019-.75 4.41527-.75 3.04278 0 3.99714.10548 4.13191.45669.23747.61885-9.53916 41.02948-10.08567 41.68798-.35323.42563-1.24703.522-4.84074.522-3.78463 0-4.47831-.0824-4.90837-.58334-.28801-.33543-1.89162-7.09924-3.77363-15.91666-1.80004-8.43334-3.36951-15.44744-3.48772-15.5869-.11821-.13946-1.68472 6.68554-3.48114 15.16667-1.79642 8.48112-3.47828 15.75773-3.73746 16.17023-.45067.71726-.66699.75-4.95587.75-4.28512 0-4.50616-.0334-4.96856-.75zm61.77833.2942c-3.51516-.94778-6.36176-3.47455-7.71826-6.85108-.71177-1.77172-.7525-2.38066-.86-12.85978-.11847-11.54797.0654-13.80838 1.32373-16.27494 1.08393-2.12465 3.1223-4.06205 5.36227-5.09659l2.0825-.96181h15.33333l2 .93359c2.5982 1.21282 4.55117 3.15543 5.7243 5.69394.93653 2.02652.94307 2.08753 1.0533 9.85676.10183 7.1762.0624 7.8531-.48037 8.25-.45816.33502-3.25013.43238-12.39873.43238h-11.80743l.12903 3.48615c.14493 3.91517.57287 4.8775 2.63693 5.93 1.00977.5149 2.2623.58287 10.7482.58333 5.9827.00032 9.84844.13066 10.25.34558.56217.30086.64477.71931.64477 3.26667 0 1.82791-.14973 3.07134-.4 3.3216-.56953.56954-21.48753.52014-23.62357-.0558zm15.8569-27.39321c0-4.74012-.2436-5.5308-2.0733-6.72968-1.3277-.86992-10.52393-.87109-11.8511-.002-1.58256 1.03694-2.03506 2.38471-2.18106 6.4961-.0732 2.06209-.0456 3.97731.0614 4.25606.16787.43739 1.2799.49456 8.1193.41742l7.9248-.0892zm20.51174 27.20425c-.23004-.42977-.34507-9.9947-.34507-28.68857 0-18.69387.11503-28.25879.34507-28.68858.30883-.57707.72746-.64475 3.98826-.64475 3.2608 0 3.67944.0677 3.98827.64475.21397.39977.34507 4.14046.34507 9.84493v9.20018l1.05176-1.1979c2.09477-2.38579 3.06507-2.65874 9.44824-2.65777 5.20653.00066 5.82823.0659 7.65633.80126 2.65533 1.0682 5.1393 3.55181 6.20907 6.20821.79443 1.97274.80126 2.09178.80126 13.98967 0 10.75187-.0635 12.18859-.61076 13.81313-1.28657 3.81948-3.69457 6.18814-7.4793 7.3571-1.96644.6074-3.10914.6631-13.6.6631-10.98224 0-11.46734-.0267-11.7982-.64476zm22.88143-7.5456c2.0351-1.49436 2.1058-1.9413 2.1058-13.30964 0-11.36924-.0707-11.8161-2.10673-13.30964-.85087-.62415-1.4103-.69036-5.83334-.69036-4.5869 0-4.9727.05-6.1816.80152-2.4663 1.53313-2.52833 1.91158-2.53663 15.47305l-.007 11.94124 6.80983-.1079c6.2675-.0993 6.88473-.16289 7.75-.79827zM194.5 254.5087c-25.88679-2.71676-49.07697-12.45369-69.05849-28.99579-4.5134-3.73651-12.7678-11.99513-16.24309-16.25139-15.35151-18.80133-24.8542-40.0875-28.16718-63.09485-5.64964-39.23474 6.83288-78.28366 34.12555-106.75446C136.25924 17.39883 163.6416 4.06452 194.44002.80389c6.41204-.67884 22.96292-.48544 28.89332.33764 20.71421 2.8749 38.41061 9.57425 55.16666 20.88454 20.71157 13.98024 36.63151 33.4802 46.51299 56.97264 12.45095 29.60118 12.74842 65.12666.79739 95.23828-17.2333 43.42084-55.61116 73.45379-101.97704 79.8031-6.52592.89365-22.80523 1.15372-29.33334.46861zm-10.33333-57.18612c4.99396-.90109 10.63851-3.09575 15.08333-5.86454 2.92246-1.82046 3.14304-2.63174 1.21699-4.47598-.65982-.6318-2.24587-2.45241-3.52455-4.0458-1.27869-1.59339-2.49987-2.9554-2.71374-3.02669-.21387-.0713-1.90319.64681-3.75404 1.59579-4.84713 2.48523-8.00852 3.28536-12.97466 3.28379-4.68306-.001-7.3204-.57185-11.40915-2.46742-7.95647-3.68869-15.37863-11.5205-20.3644-21.48839-5.06502-10.12635-7.61242-20.3598-8.25613-33.16667-.1244-2.475-.37448-4.6875-.55573-4.91667-.18125-.22916-.61324-.41666-.95996-.41666-.79163 0-10.28078 4.21543-10.9468 4.86297-.59503.57852-.5452 3.05294.184 9.13703 3.12019 26.03327 16.31765 48.19442 34.00178 57.09574 4.25462 2.14157 10.0362 3.86378 14.63973 4.36087 2.00233.21621 8.06444-.058 10.33333-.46737zm56.84208.33108c20.38978-2.50018 37.06772-19.57698 44.8592-45.93202 2.62544-8.88067 3.79891-17.54746 3.79832-28.05293-.001-23.21744-6.69078-42.87812-19.76332-58.08537-1.34609-1.56591-2.16743-2.25-2.70141-2.25-.64664 0-9.83652 3.943-11.1182 4.77037-.85828.55404-.34073 1.4832 2.35856 4.23438 8.64326 8.80943 14.40197 20.90087 17.14323 35.99525.82278 4.53056.87854 5.48063.89003 15.16666.0111 9.35048-.0616 10.75943-.76432 14.81311-4.13403 23.84778-16.43665 41.28215-32.28134 45.74676-3.34534.94262-9.43644 1.01827-12.9295.16057-3.06601-.75285-8.43133-3.39395-11.26359-5.54456-10.53467-7.99926-18.5296-22.96959-21.36696-40.00921-1.44239-8.66221-1.52845-18.01759-.20849-22.66667 2.07656-7.31398 6.16124-11.78559 10.21102-11.17829 3.81439.572 7.43494 5.64332 9.03223 12.65151.6433 2.82251.69633 10.86231.1068 16.19345-.81968 7.41256-2.68274 15.09744-5.16292 21.29645-.64978 1.62408-1.18142 3.24436-1.18142 3.60062 0 .88561 2.9743 5.79418 5.11186 8.43626 1.4415 1.78173 1.92781 2.16667 2.7372 2.16667.90943 0 1.10523-.24078 2.57508-3.16667 4.32523-8.60984 7.44184-19.52094 8.76771-30.69533.7463-6.28979.75372-15.31815.0157-19.096-2.9149-14.92091-11.67712-24.30846-22.70755-24.3281-5.12675-.0091-9.14454 1.631-13.20525 5.3906-8.0284 7.43307-11.25076 18.47905-9.98575 34.23027 1.70066 21.17564 9.09581 39.24529 21.191 51.77907 4.41931 4.57956 8.07973 7.39013 12.80057 9.82862 7.54247 3.89596 15.51192 5.4678 23.04151 4.54453z"/><path fill="#b786fe" d="M211.40452 347.98514c-.73095-.29343-.75823-.43923-.66666-3.56223l.0955-3.25624 3.66666-.36613c3.94373-.39383 5.58115-.9232 6.72507-2.17423.91551-1.00127 2.38182-3.91074 2.65217-5.2625l.2061-1.03047h-2.00086c-1.26432 0-2.13712-.16419-2.37104-.44605-.60687-.73124-11.72496-38.6529-11.52093-39.29572.16462-.51869.63371-.59156 3.80815-.59156 2.61551 0 3.74675.12636 4.07564.45525.35959.35959 3.99368 12.9978 9.31025 32.37808.30587 1.11497.40599 1.22415.61138.66667.13508-.36667 2.23785-7.86667 4.6728-16.66667 2.43496-8.8 4.57398-16.1875 4.75338-16.41667.49752-.63552 7.36377-.57631 7.8986.0681.63038.75956-11.43656 42.86595-13.48397 47.05095-2.70716 5.53357-5.77054 7.84597-11.22478 8.47307-3.40865.3919-6.19499.38276-7.20744-.0237zm-42.98785-.6988c-.26972-.27167-.41667-1.45003-.41667-3.34127 0-2.54736.0826-2.9658.64476-3.26666.39462-.2112 3.84527-.34507 8.89475-.34507 7.53922 0 8.3674-.0568 9.61253-.6596 2.24334-1.08597 2.65772-2.14887 2.79674-7.17373l.11988-4.33334-1.36221 1.54496c-1.87632 2.12803-3.41216 2.68614-7.92007 2.87805-8.25367.35138-12.66812-1.78989-14.85859-7.20731-.74-1.83012-.76112-2.19228-.76112-13.04903 0-11.01789.0107-11.19318.80126-13.15634 1.07104-2.65956 3.55451-5.1414 6.20907-6.20499 1.94492-.77927 2.25268-.7996 13.68295-.90377 9.90007-.0902 11.75479-.0324 12.0944.37676.30604.36876.37874 5.88429.30672 23.26916l-.0944 22.78585-.80126 1.98966c-1.07213 2.66227-3.55517 5.1426-6.20907 6.20227-1.91805.76583-2.35563.7984-12.15634.90423-7.8485.0848-10.26167.014-10.58333-.30983zm17.14043-22.33548c2.13436-.53744 3.61949-2.11295 4.10144-4.35104.25065-1.16396.34533-5.06362.2776-11.43315l-.1028-9.66666-5.66667-.0982c-3.11667-.054-6.15737-.009-6.75713.0998-1.63425.29666-3.2639 1.901-3.70323 3.64573-.47715 1.89494-.49503 16.56643-.0223 18.26878.4672 1.68228 1.54119 2.84731 3.14929 3.41624 1.62667.5755 6.6385.64357 8.72377.1185zM8.66667 334.13501c-2.53397-.6742-4.5947-2.02367-6.07605-3.97887-2.36875-3.12648-2.42397-3.51348-2.42385-16.98947.0001-11.7239.0176-12.04331.76111-13.88236 1.48741-3.6791 4.56577-6.16803 8.60126-6.95434 1.29972-.25325 4.23544-.34647 8.16667-.25933 5.3339.11823 6.38104.23197 7.9973.8687 3.52247 1.38768 5.9669 4.24518 6.8534 8.01152.5201 2.20974.62328 14.93084.12746 15.71581-.26935.42643-2.08784.51405-12.35822.59544l-12.0424.0954.11332 3.46455c.12956 3.96066.55258 4.86834 2.8015 6.01124 1.20693.61335 2.09795.6755 11.14224.7771 7.0296.079 9.90102.22143 10.07823.5.41585.65372.29913 5.71513-.14197 6.15623-.62957.62957-21.16966.51497-23.6-.13166zM24.5 306.77329c0-3.91886-.07456-4.4949-.69036-5.33333-1.35754-1.84833-2.46737-2.14161-7.7032-2.03563-5.20661.10539-6.04286.39477-7.10606 2.45899-.50731.98497-.92561 7.98208-.53762 8.99316.15897.41429 1.39788.47531 8.11243.39958l7.92481-.08939zm20.91667 27.67812c-.32708-.1363-.41667-4.68162-.41667-21.1395v-20.96587l.75-.18741c.4125-.10307 2.175-.14343 3.91667-.0897l3.16666.0977.0988 2.06619.09878 2.06619 1.56788-1.61964c2.25376-2.32817 4.05827-2.79168 10.19358-2.61834 4.30987.12177 4.88358.21312 6.79012 1.08112 2.38341 1.08511 4.4183 3.09574 5.51701 5.45125.72635 1.5572.73383 1.74819.73383 18.7399v17.16667l-3.6623.0954c-3.15467.0822-3.72068.0157-4.08334-.48037-.32454-.44383-.42115-4.05597-.42155-15.76208-.00066-16.73537.01457-16.60487-2.1059-18.16259-.81801-.60092-1.50903-.70327-5.33334-.78994-4.03635-.0915-4.51553-.0373-5.89357.66667-1.1465.58567-1.69639 1.15901-2.33334 2.43291l-.83333 1.66666L53 319.3333l-.16666 15.16667-3.5.0625c-1.925.0344-3.6875-.0157-3.91667-.1111zm53.25-.3164c-2.53397-.6742-4.5947-2.02367-6.07604-3.97887-2.36876-3.12648-2.42398-3.51348-2.42386-16.98947.0001-11.7239.0176-12.04331.76112-13.88236 1.4874-3.6791 4.56576-6.16803 8.60125-6.95434 1.29972-.25325 4.23544-.34647 8.16667-.25933 5.33391.11823 6.38104.23197 7.99731.8687 3.52246 1.38768 5.96689 4.24518 6.85338 8.01152.52012 2.20974.6233 14.93084.12747 15.71581-.26935.42643-2.08783.51405-12.35822.59544l-12.0424.0954.11333 3.46455c.12955 3.96066.55257 4.86834 2.8015 6.01124 1.20692.61335 2.09794.6755 11.14223.7771 7.0296.079 9.90102.22143 10.07823.5.41586.65372.29913 5.71513-.14197 6.15623-.62957.62957-21.16966.51497-23.6-.13166zM114.5 306.77329c0-3.91886-.0746-4.4949-.69036-5.33333-1.35753-1.84833-2.46736-2.14161-7.70319-2.03563-5.20662.10539-6.04287.39477-7.10607 2.45899-.50731.98497-.92561 7.98208-.53762 8.99316.15897.41429 1.39788.47531 8.11244.39958l7.9248-.0894zm20.91667 27.67812c-.32708-.1363-.41667-4.68162-.41667-21.1395v-20.96587l.75-.18741c.4125-.10307 2.175-.14343 3.91667-.0897l3.16667.0977L143 294.4642l.16667 2.29757.83333-1.28839c.55627-.86006 1.49013-1.62394 2.80882-2.29757 1.84721-.94361 2.21517-1.00914 5.66667-1.00914h3.69118v7l-4.5.17685c-4.72232.18559-5.29203.34515-6.70465 1.8778-1.71378 1.85941-1.75145 2.21313-1.94653 18.27869l-.18215 15-3.5.0625c-1.925.0344-3.6875-.0157-3.91667-.1111zm147.23472-.30314c-.23663-.28513-2.64869-9.68986-5.36013-20.8994-3.63941-15.04592-4.83562-20.49458-4.56976-20.81493.50474-.60817 7.71503-.61288 8.21922-.005.19562.23572 1.75149 7.66036 3.45748 16.49922s3.18334 16.07101 3.28299 16.07144c.0997.00033 1.86052-7.21938 3.91304-16.04402 2.05251-8.82464 3.90184-16.24964 4.10962-16.5.2763-.33292 1.33791-.4552 3.95197-.4552 2.99225 0 3.65519.095 4.07167.58333.27361.32083 2.10829 7.70726 4.07705 16.41428 1.96877 8.70702 3.63963 15.89099 3.71301 15.96438.24028.24028.42345-.63027 3.45218-16.40782 1.64838-8.58688 3.17669-15.82895 3.39624-16.09349.31467-.37915 1.21801-.4612 4.26661-.3875 3.84884.093 3.86789.0975 3.9635.92682.12249 1.06247-9.41055 40.54146-9.94513 41.1856-.31142.37526-1.37842.48106-4.85074.48106-4.25488 0-4.47227-.033-4.92156-.75-.25854-.4125-1.92813-7.575-3.71021-15.91666-1.78208-8.34167-3.36005-15.29521-3.5066-15.45231-.14654-.1571-.44668.5929-.66696 1.66667-2.796 13.62892-6.34277 29.5682-6.66615 29.95787-.61477.74073-9.06004.71983-9.67734-.024zm61.80978.0478c-3.6036-.87453-6.4691-3.36202-7.87516-6.83628-.73364-1.81271-.75267-2.16771-.75267-14.02645 0-11.89812.0167-12.20822.7611-14.04903 1.48767-3.67921 4.56593-6.16804 8.60137-6.95434 1.29973-.25325 4.23543-.34647 8.16666-.25933 7.42277.16453 9.05244.63412 11.82594 3.40763 2.91953 2.91951 3.26333 4.25658 3.39123 13.1884.0658 4.59731-.0207 7.69352-.22373 8-.28214.42609-2.11134.51411-12.3735.59544l-12.0424.0954.11333 3.46455c.12957 3.96066.55257 4.86834 2.8015 6.01124 1.20693.61335 2.09797.6755 11.14223.7771 7.0296.079 9.90104.22143 10.07824.5.41586.65372.29913 5.71513-.14197 6.15623-.56903.56904-21.0908.50734-23.47217-.0706zm15.7055-27.42243c0-3.91841-.0746-4.49463-.69036-5.33334-1.35724-1.84862-2.4671-2.14196-7.7032-2.03597-5.2066.10539-6.04287.39477-7.10604 2.45899-.50733.98497-.92563 7.98208-.53763 8.99316.15897.41429 1.39787.47531 8.11243.39958l7.9248-.0894zm20.6535 27.47637c-.0874-.22917-.1202-13.39167-.0729-29.25l.086-28.83334h7.66667l.0883 9.93377.0883 9.93376 1.61883-1.66199c2.32224-2.38416 4.03054-2.82475 10.16357-2.62136 5.3364.17697 6.80467.57006 9.34803 2.50267 2.07367 1.57571 3.69527 4.45717 4.17187 7.41315.45087 2.79614.45447 20.18555.005 22.95693-.80037 4.93241-3.8051 8.31043-8.47374 9.52647-2.6375.68697-24.4323.7752-24.68983.0999zm22.73977-7.78485c.51703-.38583 1.24007-1.21083 1.60673-1.83333.628-1.06616.66667-1.73132.66667-11.46516 0-9.73383-.0387-10.39899-.66667-11.46515-1.33496-2.26644-2.0287-2.52358-7.10643-2.63413-4.20847-.0916-4.67593-.0402-6.06023.66667-1.04877.53554-1.75067 1.21717-2.33334 2.26595l-.83333 1.5-.1076 11.13066c-.0592 6.12186-.0167 11.4929.0945 11.93563l.20203.80497 6.7988-.1023c6.3033-.0948 6.86737-.15343 7.7389-.80381zm-204.7266-71.67292c-28.84802-2.30548-53.91957-12.60836-74.98716-30.81516-4.40537-3.80716-12.33419-11.96938-15.69932-16.16146-13.55798-16.8897-22.401-36.13465-26.28974-57.21399-2.68557-14.55743-2.68557-31.31249 0-45.86992C88.51729 68.62955 110.13999 37.36339 141.5 18.48883c15.22444-9.16309 32.27486-15.0114 50.66667-17.3787 6.6021-.8498 23.35507-.85293 30-.00562 28.67044 3.65585 53.74002 15.69814 73.90268 35.49949 10.7083 10.5164 18.34814 20.87143 24.74743 33.5426 9.16452 18.1466 13.59736 36.89862 13.59736 57.52007 0 14.15258-1.88956 26.25015-6.13281 39.26397-8.26959 25.36236-23.79921 46.94417-45.42717 63.13101-17.29359 12.9429-38.71625 21.42999-60.85416 24.10879-4.29746.52002-19.37611.92473-23.16666.6218zm-15.27613-57.29076c5.18078-.84026 10.00997-2.57923 14.58862-5.25331 2.36065-1.3787 3.85417-2.62064 3.85417-3.20495 0-.17623-1.21552-1.72055-2.70116-3.43182-1.48564-1.71127-3.09814-3.66916-3.58333-4.35088-.4852-.68171-1.10093-1.3265-1.3683-1.43285-.26736-.10636-2.14236.64336-4.16666 1.66603-4.75855 2.40403-7.83156 3.17297-12.68055 3.17297-4.56759 0-7.76658-.74208-12-2.78369-12.13102-5.85031-21.83319-20.38351-25.95776-38.88298-.95521-4.28429-1.73868-10.52729-2.06098-16.42274-.29376-5.37352-.0697-5.30118-6.93396-2.23881-2.95935 1.32026-5.57811 2.64672-5.81947 2.94768-.49045.61155-.3749 3.05768.46418 9.82616 4.74126 38.24597 30.50887 64.90715 58.3652 60.38919zm59.11085.017c15.04036-2.26733 28.68991-13.4922 37.44717-30.79511 2.81416-5.56033 4.98839-11.38264 6.55079-17.54213 2.37935-9.38024 3.11364-15.39732 3.11364-25.51458 0-10.1196-.73418-16.13394-3.11547-25.52172-2.69551-10.62655-7.29532-20.49299-13.24204-28.40372-2.32346-3.09082-5.68965-6.74267-6.21037-6.73739-.49946.0051-10.49879 4.54275-11.08792 5.0317-.96053.79715-.4178 1.76214 2.95948 5.2621 11.21281 11.62012 17.58333 29.86906 17.58333 50.36904 0 13.63312-2.57098 25.37161-7.99429 36.5-2.7099 5.5606-5.58942 9.72412-9.59913 13.87946-5.19865 5.38747-10.16029 8.48422-15.97708 9.9719-3.13592.80204-8.94246.86758-12.09617.13655-17.00713-3.94229-30.47413-23.92528-33.68801-49.98791-.22608-1.83333-.41464-5.95833-.41903-9.16667-.007-4.98257.0984-6.22225.7215-8.5 1.46583-5.35847 4.17944-9.69352 6.86582-10.9683.61626-.29243 1.83463-.5317 2.70748-.5317 3.02259 0 5.55823 2.24439 7.64572 6.76751 2.10071 4.55178 2.33418 5.94799 2.32413 13.89916-.0142 11.23138-1.47908 19.02853-5.5604 29.59624l-1.32452 3.42957 1.41776 2.40376c2.73069 4.6298 5.82929 8.57043 6.7391 8.57043.79166 0 1.47735-1.04175 3.5209-5.34921 4.87417-10.27396 7.6319-21.55053 8.45901-34.58956.92168-14.52992-1.99635-24.40998-9.37556-31.74438-5.60466-5.57062-11.6511-7.4105-18.55255-5.64542-9.43059 2.41194-16.58493 12.22139-18.5086 25.37746-.55725 3.81104-.20126 15.18205.6507 20.78444 2.52698 16.6172 8.62507 31.03465 17.77463 42.02373 7.44813 8.94559 17.68801 15.25421 27.26859 16.79972 1.375.22181 2.725.44738 3 .50126 1.46529.28708 7.23818.11033 10.00139-.30622z"/><path fill="#a465fe" d="M211.40452 347.98514c-.73095-.29343-.75823-.43923-.66666-3.56223l.0955-3.25624 3.66666-.36613c3.94373-.39383 5.58115-.9232 6.72507-2.17423.91551-1.00127 2.38182-3.91074 2.65217-5.2625l.2061-1.03047h-2.00086c-1.26432 0-2.13712-.16419-2.37104-.44605-.60687-.73124-11.72496-38.6529-11.52093-39.29572.16462-.51869.63371-.59156 3.80815-.59156 2.61551 0 3.74675.12636 4.07564.45525.35959.35959 3.99368 12.9978 9.31025 32.37808.30587 1.11497.40599 1.22415.61138.66667.13508-.36667 2.23785-7.86667 4.6728-16.66667 2.43496-8.8 4.57398-16.1875 4.75338-16.41667.49752-.63552 7.36377-.57631 7.8986.0681.63038.75956-11.43656 42.86595-13.48397 47.05095-2.70716 5.53357-5.77054 7.84597-11.22478 8.47307-3.40865.3919-6.19499.38276-7.20744-.0237zm-42.98785-.6988c-.26972-.27167-.41667-1.45003-.41667-3.34127 0-2.54736.0826-2.9658.64476-3.26666.39462-.2112 3.84527-.34507 8.89475-.34507 7.53922 0 8.3674-.0568 9.61253-.6596 2.24334-1.08597 2.65772-2.14887 2.79674-7.17373l.11988-4.33334-1.36221 1.54496c-1.87632 2.12803-3.41216 2.68614-7.92007 2.87805-8.25367.35138-12.66812-1.78989-14.85859-7.20731-.74-1.83012-.76112-2.19228-.76112-13.04903 0-11.01789.0107-11.19318.80126-13.15634 1.07104-2.65956 3.55451-5.1414 6.20907-6.20499 1.94492-.77927 2.25268-.7996 13.68295-.90377 9.90007-.0902 11.75479-.0324 12.0944.37676.30604.36876.37874 5.88429.30672 23.26916l-.0944 22.78585-.80126 1.98966c-1.07213 2.66227-3.55517 5.1426-6.20907 6.20227-1.91805.76583-2.35563.7984-12.15634.90423-7.8485.0848-10.26167.014-10.58333-.30983zm17.14043-22.33548c2.13436-.53744 3.61949-2.11295 4.10144-4.35104.25065-1.16396.34533-5.06362.2776-11.43315l-.1028-9.66666-5.66667-.0982c-3.11667-.054-6.15737-.009-6.75713.0998-1.63425.29666-3.2639 1.901-3.70323 3.64573-.47715 1.89494-.49503 16.56643-.0223 18.26878.4672 1.68228 1.54119 2.84731 3.14929 3.41624 1.62667.5755 6.6385.64357 8.72377.1185zM8.66667 334.13501c-2.53397-.6742-4.5947-2.02367-6.07605-3.97887-2.36875-3.12648-2.42397-3.51348-2.42385-16.98947.0001-11.7239.0176-12.04331.76111-13.88236 1.48741-3.6791 4.56577-6.16803 8.60126-6.95434 1.29972-.25325 4.23544-.34647 8.16667-.25933 5.3339.11823 6.38104.23197 7.9973.8687 3.52247 1.38768 5.9669 4.24518 6.8534 8.01152.5201 2.20974.62328 14.93084.12746 15.71581-.26935.42643-2.08784.51405-12.35822.59544l-12.0424.0954.11332 3.46455c.12956 3.96066.55258 4.86834 2.8015 6.01124 1.20693.61335 2.09795.6755 11.14224.7771 7.0296.079 9.90102.22143 10.07823.5.41585.65372.29913 5.71513-.14197 6.15623-.62957.62957-21.16966.51497-23.6-.13166zM24.5 306.77329c0-3.91886-.07456-4.4949-.69036-5.33333-1.35754-1.84833-2.46737-2.14161-7.7032-2.03563-5.20661.10539-6.04286.39477-7.10606 2.45899-.50731.98497-.92561 7.98208-.53762 8.99316.15897.41429 1.39788.47531 8.11243.39958l7.92481-.08939zm20.91667 27.67812c-.32708-.1363-.41667-4.68162-.41667-21.1395v-20.96587l.75-.18741c.4125-.10307 2.175-.14343 3.91667-.0897l3.16666.0977.0988 2.06619.09878 2.06619 1.56788-1.61964c2.25376-2.32817 4.05827-2.79168 10.19358-2.61834 4.30987.12177 4.88358.21312 6.79012 1.08112 2.38341 1.08511 4.4183 3.09574 5.51701 5.45125.72635 1.5572.73383 1.74819.73383 18.7399v17.16667l-3.6623.0954c-3.15467.0822-3.72068.0157-4.08334-.48037-.32454-.44383-.42115-4.05597-.42155-15.76208-.00066-16.73537.01457-16.60487-2.1059-18.16259-.81801-.60092-1.50903-.70327-5.33334-.78994-4.03635-.0915-4.51553-.0373-5.89357.66667-1.1465.58567-1.69639 1.15901-2.33334 2.43291l-.83333 1.66666L53 319.3333l-.16666 15.16667-3.5.0625c-1.925.0344-3.6875-.0157-3.91667-.1111zm53.25-.3164c-2.53397-.6742-4.5947-2.02367-6.07604-3.97887-2.36876-3.12648-2.42398-3.51348-2.42386-16.98947.0001-11.7239.0176-12.04331.76112-13.88236 1.4874-3.6791 4.56576-6.16803 8.60125-6.95434 1.29972-.25325 4.23544-.34647 8.16667-.25933 5.33391.11823 6.38104.23197 7.99731.8687 3.52246 1.38768 5.96689 4.24518 6.85338 8.01152.52012 2.20974.6233 14.93084.12747 15.71581-.26935.42643-2.08783.51405-12.35822.59544l-12.0424.0954.11333 3.46455c.12955 3.96066.55257 4.86834 2.8015 6.01124 1.20692.61335 2.09794.6755 11.14223.7771 7.0296.079 9.90102.22143 10.07823.5.41586.65372.29913 5.71513-.14197 6.15623-.62957.62957-21.16966.51497-23.6-.13166zM114.5 306.77329c0-3.91886-.0746-4.4949-.69036-5.33333-1.35753-1.84833-2.46736-2.14161-7.70319-2.03563-5.20662.10539-6.04287.39477-7.10607 2.45899-.50731.98497-.92561 7.98208-.53762 8.99316.15897.41429 1.39788.47531 8.11244.39958l7.9248-.0894zm20.91667 27.67812c-.32708-.1363-.41667-4.68162-.41667-21.1395v-20.96587l.75-.18741c.4125-.10307 2.175-.14343 3.91667-.0897l3.16667.0977L143 294.4642l.16667 2.29757.83333-1.28839c.55627-.86006 1.49013-1.62394 2.80882-2.29757 1.84721-.94361 2.21517-1.00914 5.66667-1.00914h3.69118v7l-4.5.17685c-4.72232.18559-5.29203.34515-6.70465 1.8778-1.71378 1.85941-1.75145 2.21313-1.94653 18.27869l-.18215 15-3.5.0625c-1.925.0344-3.6875-.0157-3.91667-.1111zm147.23472-.30314c-.23663-.28513-2.64869-9.68986-5.36013-20.8994-3.63941-15.04592-4.83562-20.49458-4.56976-20.81493.50474-.60817 7.71503-.61288 8.21922-.005.19562.23572 1.75149 7.66036 3.45748 16.49922s3.18334 16.07101 3.28299 16.07144c.0997.00033 1.86052-7.21938 3.91304-16.04402 2.05251-8.82464 3.90184-16.24964 4.10962-16.5.2763-.33292 1.33791-.4552 3.95197-.4552 2.99225 0 3.65519.095 4.07167.58333.27361.32083 2.10829 7.70726 4.07705 16.41428 1.96877 8.70702 3.63963 15.89099 3.71301 15.96438.24028.24028.42345-.63027 3.45218-16.40782 1.64838-8.58688 3.17669-15.82895 3.39624-16.09349.31467-.37915 1.21801-.4612 4.26661-.3875 3.84884.093 3.86789.0975 3.9635.92682.12249 1.06247-9.41055 40.54146-9.94513 41.1856-.31142.37526-1.37842.48106-4.85074.48106-4.25488 0-4.47227-.033-4.92156-.75-.25854-.4125-1.92813-7.575-3.71021-15.91666-1.78208-8.34167-3.36005-15.29521-3.5066-15.45231-.14654-.1571-.44668.5929-.66696 1.66667-2.796 13.62892-6.34277 29.5682-6.66615 29.95787-.61477.74073-9.06004.71983-9.67734-.024zm61.80978.0478c-3.6036-.87453-6.4691-3.36202-7.87516-6.83628-.73364-1.81271-.75267-2.16771-.75267-14.02645 0-11.89812.0167-12.20822.7611-14.04903 1.48767-3.67921 4.56593-6.16804 8.60137-6.95434 1.29973-.25325 4.23543-.34647 8.16666-.25933 7.42277.16453 9.05244.63412 11.82594 3.40763 2.91953 2.91951 3.26333 4.25658 3.39123 13.1884.0658 4.59731-.0207 7.69352-.22373 8-.28214.42609-2.11134.51411-12.3735.59544l-12.0424.0954.11333 3.46455c.12957 3.96066.55257 4.86834 2.8015 6.01124 1.20693.61335 2.09797.6755 11.14223.7771 7.0296.079 9.90104.22143 10.07824.5.41586.65372.29913 5.71513-.14197 6.15623-.56903.56904-21.0908.50734-23.47217-.0706zm15.7055-27.42243c0-3.91841-.0746-4.49463-.69036-5.33334-1.35724-1.84862-2.4671-2.14196-7.7032-2.03597-5.2066.10539-6.04287.39477-7.10604 2.45899-.50733.98497-.92563 7.98208-.53763 8.99316.15897.41429 1.39787.47531 8.11243.39958l7.9248-.0894zm20.6535 27.47637c-.0874-.22917-.1202-13.39167-.0729-29.25l.086-28.83334h7.66667l.0883 9.93377.0883 9.93376 1.61883-1.66199c2.32224-2.38416 4.03054-2.82475 10.16357-2.62136 5.3364.17697 6.80467.57006 9.34803 2.50267 2.07367 1.57571 3.69527 4.45717 4.17187 7.41315.45087 2.79614.45447 20.18555.005 22.95693-.80037 4.93241-3.8051 8.31043-8.47374 9.52647-2.6375.68697-24.4323.7752-24.68983.0999zm22.73977-7.78485c.51703-.38583 1.24007-1.21083 1.60673-1.83333.628-1.06616.66667-1.73132.66667-11.46516 0-9.73383-.0387-10.39899-.66667-11.46515-1.33496-2.26644-2.0287-2.52358-7.10643-2.63413-4.20847-.0916-4.67593-.0402-6.06023.66667-1.04877.53554-1.75067 1.21717-2.33334 2.26595l-.83333 1.5-.1076 11.13066c-.0592 6.12186-.0167 11.4929.0945 11.93563l.20203.80497 6.7988-.1023c6.3033-.0948 6.86737-.15343 7.7389-.80381zm-205.39327-71.81727c-26.89989-2.06908-51.10792-11.76428-72.1358-28.89004-4.62614-3.76768-13.44015-12.61429-17.30096-17.36496C93.05576 189.10609 83.79721 167.2471 80.60869 142c-.2875-2.27651-.44202-7.34525-.44202-14.5 0-11.51037.2877-15.10609 1.8803-23.5C88.9752 67.48446 111.67584 35.63996 144 17.09215c14.86778-8.53123 30.88667-13.75448 49-15.97734 6.75526-.829 21.57808-.829 28.33334 0 30.57577 3.75225 56.94196 16.82795 77.86309 38.6144 18.80928 19.58725 30.5961 44.4146 34.31064 72.27079.7487 5.61464 1.03127 19.59224.52024 25.73561-3.34928 40.26523-24.70557 75.68704-58.7593 97.45893-5.02717 3.21407-15.63296 8.62909-21.10134 10.77376-10.81793 4.24273-22.9018 7.18502-34.33333 8.3598-4.83715.49709-17.02322.67696-21.66667.31979zm-13.96179-57.16387c4.00737-.69883 8.30938-2.18624 12.18461-4.2128C199.98011 191.3935 202 189.88738 202 189.0878c0-.29169-.87151-1.51827-1.9367-2.72574-1.06518-1.20746-2.7421-3.20789-3.72648-4.44539-.98438-1.2375-2.04969-2.25-2.36735-2.25-.31766 0-1.60325.59077-2.85685 1.31283-9.15289 5.27192-20.19024 4.84658-29.10518-1.12162-6.92985-4.63926-12.00903-10.79356-16.52641-20.02454-4.67912-9.5615-7.26246-20.07693-7.69771-31.33334-.19847-5.13279-.54743-6.5-1.65903-6.5-.58811 0-9.84035 4.08267-11.08758 4.89253-.78312.50851-.79281.57735-.57216 4.06237.99059 15.64515 6.01559 31.38769 13.77544 43.1563 8.53826 12.94916 19.83175 21.09549 32.40059 23.37154 3.46581.62761 9.96914.62822 13.5643.001zm59.33333 0c12.49164-2.17836 23.975-10.4859 32.53922-23.54021 18.52098-28.23128 18.52098-72.323 0-100.55428C272.91948 68.57591 268.17208 63 267.23167 63c-.28162 0-2.9465 1.09355-5.92197 2.4301-4.12168 1.85144-5.47744 2.6126-5.69343 3.19646-.24706.66786.0932 1.15876 2.64772 3.8199 4.90258 5.10721 7.3031 8.5798 10.58761 15.31608 3.42566 7.02573 5.71363 14.75101 7.03025 23.73746.82029 5.59877.82029 18.73457 0 24.33334-1.64979 11.26041-5.4504 22.24495-10.3799 30-12.97079 20.40552-32.57962 24.67414-48.73233 10.60847-7.27269-6.33301-14.01039-18.25755-17.09521-30.25551-2.1227-8.25596-3.20583-18.84372-2.6071-25.48491.54211-6.01314 3.35677-12.27828 6.51255-14.49624 1.76347-1.23942 4.14705-1.52419 5.87891-.70237 2.75679 1.30818 5.40802 5.38532 6.93728 10.66834.6957 2.40341.76832 3.31032.74694 9.32888-.0253 7.12708-.50208 11.46788-1.97704 18-.89462 3.96199-2.77698 9.91696-4.04337 12.79148-.43408.98531-.78924 1.99321-.78924 2.23977 0 .75392 3.21623 5.94439 5.33733 8.61357 2.93784 3.69696 3.44809 3.51801 6.11582-2.14482 5.74996-12.20555 8.87975-26.48461 8.87708-40.5-.001-7.53871-1.28354-13.42478-4.1826-19.20209-9.16438-18.26305-29.73569-18.15618-38.90143.20209-2.88656 5.78157-4.01548 11.31486-3.97846 19.5.10263 22.69083 7.92313 44.28487 21.03073 58.07024 7.55755 7.94832 15.9518 12.74272 25.20153 14.39391 3.60891.64423 10.07079.6536 13.70487.0199z"/><path fill="#97959b" d="M211.40452 347.98514c-.73095-.29343-.75823-.43923-.66666-3.56223l.0955-3.25624 3.66666-.36613c3.94373-.39383 5.58115-.9232 6.72507-2.17423.91551-1.00127 2.38182-3.91074 2.65217-5.2625l.2061-1.03047h-2.00086c-1.26432 0-2.13712-.16419-2.37104-.44605-.60687-.73124-11.72496-38.6529-11.52093-39.29572.16462-.51869.63371-.59156 3.80815-.59156 2.61551 0 3.74675.12636 4.07564.45525.35959.35959 3.99368 12.9978 9.31025 32.37808.30587 1.11497.40599 1.22415.61138.66667.13508-.36667 2.23785-7.86667 4.6728-16.66667 2.43496-8.8 4.57398-16.1875 4.75338-16.41667.49752-.63552 7.36377-.57631 7.8986.0681.63038.75956-11.43656 42.86595-13.48397 47.05095-2.70716 5.53357-5.77054 7.84597-11.22478 8.47307-3.40865.3919-6.19499.38276-7.20744-.0237zm-42.98785-.6988c-.26972-.27167-.41667-1.45003-.41667-3.34127 0-2.54736.0826-2.9658.64476-3.26666.39462-.2112 3.84527-.34507 8.89475-.34507 7.53922 0 8.3674-.0568 9.61253-.6596 2.24334-1.08597 2.65772-2.14887 2.79674-7.17373l.11988-4.33334-1.36221 1.54496c-1.87632 2.12803-3.41216 2.68614-7.92007 2.87805-8.25367.35138-12.66812-1.78989-14.85859-7.20731-.74-1.83012-.76112-2.19228-.76112-13.04903 0-11.01789.0107-11.19318.80126-13.15634 1.07104-2.65956 3.55451-5.1414 6.20907-6.20499 1.94492-.77927 2.25268-.7996 13.68295-.90377 9.90007-.0902 11.75479-.0324 12.0944.37676.30604.36876.37874 5.88429.30672 23.26916l-.0944 22.78585-.80126 1.98966c-1.07213 2.66227-3.55517 5.1426-6.20907 6.20227-1.91805.76583-2.35563.7984-12.15634.90423-7.8485.0848-10.26167.014-10.58333-.30983zm17.14043-22.33548c2.13436-.53744 3.61949-2.11295 4.10144-4.35104.25065-1.16396.34533-5.06362.2776-11.43315l-.1028-9.66666-5.66667-.0982c-3.11667-.054-6.15737-.009-6.75713.0998-1.63425.29666-3.2639 1.901-3.70323 3.64573-.47715 1.89494-.49503 16.56643-.0223 18.26878.4672 1.68228 1.54119 2.84731 3.14929 3.41624 1.62667.5755 6.6385.64357 8.72377.1185zM8.66667 334.13501c-2.53397-.6742-4.5947-2.02367-6.07605-3.97887-2.36875-3.12648-2.42397-3.51348-2.42385-16.98947.0001-11.7239.0176-12.04331.76111-13.88236 1.48741-3.6791 4.56577-6.16803 8.60126-6.95434 1.29972-.25325 4.23544-.34647 8.16667-.25933 5.3339.11823 6.38104.23197 7.9973.8687 3.52247 1.38768 5.9669 4.24518 6.8534 8.01152.5201 2.20974.62328 14.93084.12746 15.71581-.26935.42643-2.08784.51405-12.35822.59544l-12.0424.0954.11332 3.46455c.12956 3.96066.55258 4.86834 2.8015 6.01124 1.20693.61335 2.09795.6755 11.14224.7771 7.0296.079 9.90102.22143 10.07823.5.41585.65372.29913 5.71513-.14197 6.15623-.62957.62957-21.16966.51497-23.6-.13166zM24.5 306.77329c0-3.91886-.07456-4.4949-.69036-5.33333-1.35754-1.84833-2.46737-2.14161-7.7032-2.03563-5.20661.10539-6.04286.39477-7.10606 2.45899-.50731.98497-.92561 7.98208-.53762 8.99316.15897.41429 1.39788.47531 8.11243.39958l7.92481-.08939zm20.91667 27.67812c-.32708-.1363-.41667-4.68162-.41667-21.1395v-20.96587l.75-.18741c.4125-.10307 2.175-.14343 3.91667-.0897l3.16666.0977.0988 2.06619.09878 2.06619 1.56788-1.61964c2.25376-2.32817 4.05827-2.79168 10.19358-2.61834 4.30987.12177 4.88358.21312 6.79012 1.08112 2.38341 1.08511 4.4183 3.09574 5.51701 5.45125.72635 1.5572.73383 1.74819.73383 18.7399v17.16667l-3.6623.0954c-3.15467.0822-3.72068.0157-4.08334-.48037-.32454-.44383-.42115-4.05597-.42155-15.76208-.00066-16.73537.01457-16.60487-2.1059-18.16259-.81801-.60092-1.50903-.70327-5.33334-.78994-4.03635-.0915-4.51553-.0373-5.89357.66667-1.1465.58567-1.69639 1.15901-2.33334 2.43291l-.83333 1.66666L53 319.3333l-.16666 15.16667-3.5.0625c-1.925.0344-3.6875-.0157-3.91667-.1111zm53.25-.3164c-2.53397-.6742-4.5947-2.02367-6.07604-3.97887-2.36876-3.12648-2.42398-3.51348-2.42386-16.98947.0001-11.7239.0176-12.04331.76112-13.88236 1.4874-3.6791 4.56576-6.16803 8.60125-6.95434 1.29972-.25325 4.23544-.34647 8.16667-.25933 5.33391.11823 6.38104.23197 7.99731.8687 3.52246 1.38768 5.96689 4.24518 6.85338 8.01152.52012 2.20974.6233 14.93084.12747 15.71581-.26935.42643-2.08783.51405-12.35822.59544l-12.0424.0954.11333 3.46455c.12955 3.96066.55257 4.86834 2.8015 6.01124 1.20692.61335 2.09794.6755 11.14223.7771 7.0296.079 9.90102.22143 10.07823.5.41586.65372.29913 5.71513-.14197 6.15623-.62957.62957-21.16966.51497-23.6-.13166zM114.5 306.77329c0-3.91886-.0746-4.4949-.69036-5.33333-1.35753-1.84833-2.46736-2.14161-7.70319-2.03563-5.20662.10539-6.04287.39477-7.10607 2.45899-.50731.98497-.92561 7.98208-.53762 8.99316.15897.41429 1.39788.47531 8.11244.39958l7.9248-.0894zm20.91667 27.67812c-.32708-.1363-.41667-4.68162-.41667-21.1395v-20.96587l.75-.18741c.4125-.10307 2.175-.14343 3.91667-.0897l3.16667.0977L143 294.4642l.16667 2.29757.83333-1.28839c.55627-.86006 1.49013-1.62394 2.80882-2.29757 1.84721-.94361 2.21517-1.00914 5.66667-1.00914h3.69118v7l-4.5.17685c-4.72232.18559-5.29203.34515-6.70465 1.8778-1.71378 1.85941-1.75145 2.21313-1.94653 18.27869l-.18215 15-3.5.0625c-1.925.0344-3.6875-.0157-3.91667-.1111zm147.23472-.30314c-.23663-.28513-2.64869-9.68986-5.36013-20.8994-3.63941-15.04592-4.83562-20.49458-4.56976-20.81493.50474-.60817 7.71503-.61288 8.21922-.005.19562.23572 1.75149 7.66036 3.45748 16.49922s3.18334 16.07101 3.28299 16.07144c.0997.00033 1.86052-7.21938 3.91304-16.04402 2.05251-8.82464 3.90184-16.24964 4.10962-16.5.2763-.33292 1.33791-.4552 3.95197-.4552 2.99225 0 3.65519.095 4.07167.58333.27361.32083 2.10829 7.70726 4.07705 16.41428 1.96877 8.70702 3.63963 15.89099 3.71301 15.96438.24028.24028.42345-.63027 3.45218-16.40782 1.64838-8.58688 3.17669-15.82895 3.39624-16.09349.31467-.37915 1.21801-.4612 4.26661-.3875 3.84884.093 3.86789.0975 3.9635.92682.12249 1.06247-9.41055 40.54146-9.94513 41.1856-.31142.37526-1.37842.48106-4.85074.48106-4.25488 0-4.47227-.033-4.92156-.75-.25854-.4125-1.92813-7.575-3.71021-15.91666-1.78208-8.34167-3.36005-15.29521-3.5066-15.45231-.14654-.1571-.44668.5929-.66696 1.66667-2.796 13.62892-6.34277 29.5682-6.66615 29.95787-.61477.74073-9.06004.71983-9.67734-.024zm61.80978.0478c-3.6036-.87453-6.4691-3.36202-7.87516-6.83628-.73364-1.81271-.75267-2.16771-.75267-14.02645 0-11.89812.0167-12.20822.7611-14.04903 1.48767-3.67921 4.56593-6.16804 8.60137-6.95434 1.29973-.25325 4.23543-.34647 8.16666-.25933 7.42277.16453 9.05244.63412 11.82594 3.40763 2.91953 2.91951 3.26333 4.25658 3.39123 13.1884.0658 4.59731-.0207 7.69352-.22373 8-.28214.42609-2.11134.51411-12.3735.59544l-12.0424.0954.11333 3.46455c.12957 3.96066.55257 4.86834 2.8015 6.01124 1.20693.61335 2.09797.6755 11.14223.7771 7.0296.079 9.90104.22143 10.07824.5.41586.65372.29913 5.71513-.14197 6.15623-.56903.56904-21.0908.50734-23.47217-.0706zm15.7055-27.42243c0-3.91841-.0746-4.49463-.69036-5.33334-1.35724-1.84862-2.4671-2.14196-7.7032-2.03597-5.2066.10539-6.04287.39477-7.10604 2.45899-.50733.98497-.92563 7.98208-.53763 8.99316.15897.41429 1.39787.47531 8.11243.39958l7.9248-.0894zm20.6535 27.47637c-.0874-.22917-.1202-13.39167-.0729-29.25l.086-28.83334h7.66667l.0883 9.93377.0883 9.93376 1.61883-1.66199c2.32224-2.38416 4.03054-2.82475 10.16357-2.62136 5.3364.17697 6.80467.57006 9.34803 2.50267 2.07367 1.57571 3.69527 4.45717 4.17187 7.41315.45087 2.79614.45447 20.18555.005 22.95693-.80037 4.93241-3.8051 8.31043-8.47374 9.52647-2.6375.68697-24.4323.7752-24.68983.0999zm22.73977-7.78485c.51703-.38583 1.24007-1.21083 1.60673-1.83333.628-1.06616.66667-1.73132.66667-11.46516 0-9.73383-.0387-10.39899-.66667-11.46515-1.33496-2.26644-2.0287-2.52358-7.10643-2.63413-4.20847-.0916-4.67593-.0402-6.06023.66667-1.04877.53554-1.75067 1.21717-2.33334 2.26595l-.83333 1.5-.1076 11.13066c-.0592 6.12186-.0167 11.4929.0945 11.93563l.20203.80497 6.7988-.1023c6.3033-.0948 6.86737-.15343 7.7389-.80381z"/><path fill="#7e7a82" d="M210.869 347.47274c-.28515-.74307-.2428-5.56337.0528-6.00693.1347-.20214 1.69433-.45184 3.46585-.55487 5.0434-.29337 7.08139-1.54843 8.78638-5.41093 1.44853-3.28149 1.47734-3.16667-.79439-3.16667-2.04594 0-2.8139-.38294-3.17926-1.58531-4.46371-14.68973-10.87492-37.0792-10.80064-37.71836.10004-.86083.10913-.86323 3.62232-.95699 3.03975-.0811 3.59128-.0127 4.02777.5.27816.3267 2.49747 7.79399 4.9318 16.59399s4.54519 16.21858 4.69079 16.48572c.18933.34737.36751.11001.62556-.83333 4.73954-17.32578 9.08164-32.30986 9.42604-32.5282.50696-.32139 6.28696-.39364 7.08208-.0885.29.11128.52727.55826.52727.99329 0 1.08644-11.75707 42.21648-12.82063 44.85071-2.00294 4.9609-5.24781 8.3031-9.15654 9.43117-2.58995.74746-10.19984.744-10.48717-.005zm-42.52394-.45083c-.39221-.73284-.46213-5.3227-.0899-5.90514.17098-.2676 2.8606-.4185 8.91156-.5 7.96193-.10726 8.77509-.17253 10-.80273 2.2415-1.15327 2.83328-2.77573 2.83328-7.76801v-4.14605l-1.02311 1.41237c-.69747.96283-1.62581 1.69191-2.91667 2.29062-1.76449.8184-2.21161.87774-6.56022.87064-3.42022-.006-5.17268-.15965-6.56118-.57682-3.37282-1.01334-5.91543-3.53327-7.12701-7.06345-.73353-2.13728-1.09768-17.52807-.51683-21.8441.63591-4.72525 2.52052-7.70661 5.97957-9.45944 2.58676-1.31081 4.84311-1.52979 15.76286-1.52979 8.8722 0 10.31864.0703 10.77212.52381.46532.46532.52381 2.91507.52381 21.93878 0 13.98341-.12574 22.10134-.36232 23.39284-.93431 5.1004-4.33923 8.50103-9.45948 9.44757-1.10708.20463-5.87076.36366-10.89436.36366-8.48476 0-8.94415-.032-9.27212-.64476zm17.76034-22.17151c1.66104-.5924 2.51734-1.38302 3.26769-3.01706.55274-1.20368.61298-2.36244.61959-11.91667L190 299.33334h-6.42186c-7.22432 0-8.1489.23293-9.41147 2.37103-.61228 1.03687-.67518 1.83568-.77108 9.79175-.0711 5.89807.02 9.10704.28534 10.05482.44325 1.58312 1.76822 3.01164 3.18718 3.43626 1.55462.46521 7.80901.37259 9.23729-.1368zM9.33333 334.21087c-5.3116-1.15867-8.23485-4.56292-9.0371-10.52406-.57138-4.24574-.21536-21.38422.48964-23.57045 1.17059-3.63004 3.92318-6.36474 7.54289-7.49386 1.77662-.5542 11.83992-.76672 14.56225-.30754 4.50697.76019 7.91388 3.49994 9.29346 7.47355.76225 2.19547 1.15102 15.90561.47417 16.72117-.3441.41462-2.2259.49033-12.18773.49033-13.78414 0-12.69999-.35589-12.35967 4.05727.29296 3.79897 1.41223 5.5218 4.05543 6.24225.81097.22105 4.93112.36415 10.51666.36528 6.696.001 9.29168.1102 9.58334.40186.5375.53751.5375 5.6625 0 6.2-.55523.55524-20.3531.50707-22.93334-.0558zm15.33334-27.05748c0-3.48649-.10784-4.39133-.65004-5.45413-1.0283-2.01561-2.15374-2.36592-7.60104-2.36592-4.2798 0-4.74058.0603-5.78296.75664-1.9023 1.27082-2.29819 2.50389-2.29878 7.16003l-.00052 4.08333h16.33334zM45.4 334.26667c-.57791-.5779-.57791-41.28875 0-41.86666.25556-.25556 1.55556-.4 3.6-.4s3.34444.14444 3.6.4c.22.22.4 1.195.4 2.16666 0 .97167.15 1.76667.33333 1.76667.18334 0 .33334-.13849.33334-.30776 0-.67348 1.74917-2.32649 3.24792-3.06936 1.4717-.72947 1.96793-.78463 6.91874-.76906 4.68684.0147 5.55878.10576 7.19312.75081 2.643 1.04316 4.4188 2.69727 5.70955 5.31828l1.09734 2.22827.09798 16.62261c.07249 12.29864-.003 16.74448-.29082 17.09108-.2853.34376-1.24305.4671-3.59798.46336-1.76505-.003-3.3896-.1198-3.61012-.25996-.30058-.19104-.42573-4.13216-.5-15.74489-.0946-14.79391-.12903-15.54091-.76573-16.62187-1.29747-2.20275-2.08968-2.5221-6.56677-2.64709-4.96168-.13852-5.97353.042-7.43676 1.32673C53.08495 302.53916 53 303.28442 53 319.69151c0 12.9789-.0576 14.5926-.52726 14.77283-.98865.37937-6.65403.22103-7.07274-.19767zm53.93334-.0558c-5.3116-1.15867-8.23486-4.56292-9.0371-10.52406-.5714-4.24574-.21537-21.38422.48963-23.57045 1.1706-3.63004 3.92318-6.36474 7.5429-7.49386 1.77661-.5542 11.83991-.76672 14.56224-.30754 4.50697.76019 7.91388 3.49994 9.29347 7.47355.76224 2.19547 1.15102 15.90561.47416 16.72117-.3441.41462-2.22589.49033-12.18772.49033-13.78415 0-12.7-.35589-12.35967 4.05727.29295 3.79897 1.41223 5.5218 4.05542 6.24225.81096.22105 4.93112.36415 10.51667.36528 6.69599.001 9.29167.1102 9.58333.40186.24527.24527.4 1.44445.4 3.1 0 1.65556-.15473 2.85474-.4 3.1-.55523.55524-20.3531.50707-22.93333-.0558zm15.33333-27.05748c0-3.48649-.10784-4.39133-.65004-5.45413-1.02829-2.01561-2.15373-2.36592-7.60104-2.36592-4.2798 0-4.74058.0603-5.78296.75664-1.9023 1.27082-2.29819 2.50389-2.29878 7.16003l-.00051 4.08333h16.33333zM135.4 334.26667c-.57791-.5779-.57791-41.28875 0-41.86666.25556-.25556 1.55556-.4 3.6-.4 2.04445 0 3.34445.14444 3.6.4.22134.22133.4 1.2845.4 2.38026v1.98026l1.32078-1.50048c1.84541-2.0965 4.04343-2.98045 7.924-3.18672 4.05199-.21538 4.08856-.18171 4.08856 3.76516 0 2.51035-.0989 3.12816-.52727 3.29252-.28999.11128-2.20821.20233-4.2627.20233-4.76084 0-6.24577.6222-7.53435 3.15698l-.84235 1.65698-.0995 15.00002c-.0744 11.22085-.20043 15.06415-.5 15.25459-.6708.4264-6.71966.31226-7.16715-.13524zm147.50068-.0167c-.39744-.29567-1.97007-6.25991-5.4153-20.53762-2.67037-11.06653-4.8095-20.44153-4.75363-20.83334.0949-.66567.32014-.71877 3.43492-.80983 4.36895-.12772 4.73361-.0199 5.13455 1.51747.17881.68566 1.62191 7.99665 3.20689 16.24665 1.58499 8.25 2.94406 15.0625 3.02018 15.13889.0761.0764.21317.0641.30458-.0273.0914-.0914 1.83052-7.35391 3.86468-16.13889 2.4971-10.78425 3.87141-16.10803 4.23085-16.38935.72929-.5708 6.73992-.56603 7.52218.006.42657.31192 1.52949 4.60013 4.20994 16.36845 1.99756 8.77019 3.71614 16.03 3.81905 16.13291.1029.10291.24224.12461.30962.0482.0674-.0764 1.50329-7.33889 3.1909-16.13889 2.2343-11.65071 3.21502-16.11326 3.60786-16.41666.35545-.27453 1.77211-.41667 4.15289-.41667 3.04273 0 3.64658.0864 3.82337.54711.32749.85343-9.48929 41.20012-10.14676 41.70289-.36672.28043-1.86553.41667-4.58411.41667-2.70768 0-4.22561-.13737-4.60455-.41667-.41622-.3068-1.45447-4.54827-3.93696-16.08333-1.85442-8.61667-3.4287-15.72917-3.49841-15.80556-.0697-.0764-.21782-.0478-.32913.0635-.1113.1113-1.69228 7.2238-3.51327 15.80555-2.38544 11.24175-3.46476 15.71965-3.86134 16.01985-.37006.28013-1.87406.41667-4.58968.41667-2.71046 0-4.22349-.13707-4.59932-.41667zm62.09933-.0391c-4.05857-.88533-6.86487-3.28337-8.379-7.16002-.68584-1.75589-.7458-2.55778-.8809-11.77779-.17057-11.63918.0924-14.40674 1.64586-17.32134 1.17247-2.19978 2.27597-3.26692 4.59164-4.44036 2.2207-1.12532 4.8232-1.51135 10.18906-1.51135 6.86317 0 9.89554.74583 12.73024 3.13107 1.43086 1.204 3.0104 4.38621 3.41503 6.88014.50053 3.08511.46643 14.07709-.0453 14.58879-.296.29598-3.45666.4-12.15493.4-13.7544 0-12.6741-.35537-12.33383 4.05727.29296 3.79897 1.41223 5.5218 4.05543 6.24225.81097.22105 4.93113.36415 10.51667.36528 6.696.001 9.29166.1102 9.58333.40186.24527.24527.4 1.44445.4 3.1 0 1.65556-.15473 2.85474-.4 3.1-.55523.55524-20.3531.50707-22.93333-.0558zm15.326-26.96086c-.006-3.25112-.13307-4.36023-.62437-5.44196-.9622-2.11856-2.05877-2.47471-7.61937-2.47471-4.2798 0-4.7406.0603-5.78296.75664-1.9023 1.27082-2.2982 2.50389-2.29877 7.16003v4.08333h16.33333l-.007-4.08333zm20.75733 27.03713c-.32687-.32983-.41667-6.619-.41667-29.18078v-28.76032l.75-.18741c.4125-.10307 2.175-.14343 3.91667-.0897l3.16667.0977.16666 10.14298.16667 10.14298.94097-1.42254c1.44126-2.1789 3.77483-3.11464 8.22393-3.29774 8.06917-.33207 12.62537 1.67774 14.96417 6.60099l.87093 1.83333v26l-.92073 1.87485c-1.19417 2.43165-3.58927 4.65206-6.09614 5.65145-1.93173.7701-2.28553.7935-13.6498.9026-9.0679.0871-11.75946.0183-12.08333-.30843zm22.07297-7.4885c.8088-.41974 1.5609-1.17107 1.98886-1.98681.65234-1.24351.68817-1.84997.68817-11.64516 0-11.69257-.0744-12.09666-2.47413-13.4454-1.13347-.63705-1.79117-.72126-5.6329-.72126-4.69084 0-5.724.22988-7.1508 1.59107-1.72804 1.6486-1.90884 3.09635-1.90884 15.2862 0 10.20147.0467 11.11858.58334 11.45141.38116.2364 2.66673.32422 6.59446.25337 5.25377-.0948 6.17504-.19348 7.31184-.78342z"/><path fill="#55525b" d="M211.08334 347.62884c-.26441-.27213-.41667-1.42493-.41667-3.1547 0-1.78283.14414-2.83973.41667-3.0551.22916-.18107 1.76666-.4156 3.41666-.52117 5.04588-.32276 6.84897-1.3932 8.52575-5.0614 1.63966-3.58698 1.65446-3.50313-.61829-3.50313-1.45389 0-2.10907-.153-2.49799-.58333-.66471-.7355-11.6608-37.81336-11.5162-38.83165.10159-.71547.26758-.75622 3.44493-.84581 2.37215-.0669 3.51293.0336 3.942.34738.43103.31518 1.9243 5.19102 5.21859 17.03981 2.53814 9.12906 4.6908 16.6743 4.7837 16.7672.0929.0929.32563-.40765.51716-1.11234 4.80082-17.66306 8.9259-32.07605 9.31064-32.53126.40409-.47809 1.05012-.58333 3.58078-.58333 3.59173 0 4.143.14899 4.14021 1.11899-.001.39289-2.77018 10.42389-6.15345 22.29112-4.35237 15.26648-6.51691 22.32639-7.4012 24.13985-1.67217 3.42924-4.15453 6.07594-6.84928 7.3027-1.92031.8742-2.48112.9637-6.76068 1.07914-3.50228.0945-4.77063.019-5.08333-.30297zm-42.5304-.45683c-.40962-.40964-.55294-1.15724-.55294-2.8844 0-3.84494-.50312-3.62094 8.1329-3.62094 10.23208 0 11.8809-.38006 13.27118-3.05906.52374-1.00924.6024-1.83384.52287-5.48111l-.0936-4.29316-.72015 1.21845c-1.65673 2.80311-6.54587 4.07611-12.88803 3.35568-5.25916-.5974-7.98316-2.34211-9.77814-6.26288-1.10595-2.41571-1.42588-5.54267-1.43012-13.97792-.004-8.05252.2967-11.05568 1.3531-13.51134.94538-2.1976 3.63191-4.68071 6.13842-5.67365 1.93148-.76514 2.33463-.79265 13.35813-.91162 10.34224-.11161 11.41749-.0717 11.93177.44255.52224.52224.55774 2.27946.46679 23.10964l-.0984 22.54442-.79601 2c-1.08614 2.729-3.83007 5.4658-6.53732 6.5204-1.90225.741-2.48211.78544-11.86373.90847-8.85143.1161-9.92048.0726-10.41667-.42353zM186.5 324.70643c1.58594-.72827 2.29664-1.47163 2.98729-3.12458.42461-1.01624.51271-3.0332.51271-11.7378v-10.51071l-6.58333.001c-7.5762.001-8.27059.20438-9.42873 2.75564-.57677 1.27058-.64068 2.24929-.64728 9.91198-.004 4.67621.13909 9.01273.31805 9.63671.3948 1.37658 1.49585 2.62589 2.84129 3.22388 1.6066.71406 8.33356.60887 10-.15636zM9.95688 334.32751c-3.7195-.62847-7.27192-3.25943-8.61426-6.37979-.38177-.88745-.8354-2.70124-1.00808-4.03063-.40944-3.15216-.40541-18.04587.00573-21.21312.7789-6.00032 4.2026-9.48968 10.23528-10.43154 1.2672-.19784 4.59775-.28246 7.59112-.19286 4.35724.13042 5.6614.28735 7.12585.8575 3.56368 1.38742 5.36289 3.18368 6.78154 6.77042.62586 1.58233.72603 2.64321.85424 9.04739.10892 5.44047.04248 7.37869-.26567 7.75-.34925.42081-2.17468.49513-12.16263.49513-10.13827 0-11.80978.07-12.17468.50965-.57545.69338-.2102 5.76309.52717 7.31697.3035.63958 1.09835 1.50273 1.76633 1.91812 1.18113.73449 1.48943.75797 11.21451.85397 8.81565.087 10.04935.16366 10.41667.64704.63016.82929.55002 5.23995-.10714 5.89711-.45486.45487-1.8479.51864-10.58334.4846-5.53273-.0217-10.75393-.15653-11.60264-.29996zm14.70979-27.24937c0-7.00474-.77506-7.7448-8.1111-7.7448-5.5291 0-6.6295.35876-7.59053 2.47471-.4913 1.08173-.61856 2.19084-.62439 5.44196l-.00732 4.08333h16.33334zM45.4 334.26667c-.57791-.5779-.57791-41.28875 0-41.86666.5691-.56911 6.73137-.545 7.20707.0282.19546.2355.40133 1.30661.45749 2.38023l.1021 1.95205L54 295.46358c.56131-.87356 1.45786-1.60916 2.74657-2.25349 1.64653-.82323 2.4167-.98044 5.52472-1.12776 8.06467-.38225 12.748 1.78469 14.79172 6.84402.76349 1.89007.7712 2.05295.86844 18.35503.07259 12.16894-.003 16.56996-.29082 16.91666-.50687.61077-6.64038.6689-7.24063.0686-.29895-.29894-.40047-4.10953-.40186-15.08334-.002-15.57799-.09686-16.68175-1.56836-18.24244-1.38648-1.47054-2.31243-1.66979-7.20625-1.55068-3.93305.0957-4.62837.1978-5.42984.79705-1.3288.99355-2.1286 2.18036-2.47453 3.67187-.16679.71915-.30683 7.76504-.3112 15.65754-.0059 10.70758-.10949 14.45153-.40796 14.75-.25556.25556-1.55556.4-3.6.4s-3.34444-.14444-3.6-.4zm54.55688.0608c-3.7195-.62847-7.27191-3.25943-8.61426-6.37979-.38177-.88745-.8354-2.70124-1.00808-4.03063-.40943-3.15216-.40541-18.04587.0057-21.21312.7789-6.00032 4.2026-9.48968 10.23528-10.43154 1.2672-.19784 4.59775-.28246 7.59112-.19286 4.35724.13042 5.6614.28735 7.12585.8575 3.56413 1.38759 5.36422 3.18495 6.78072 6.77042.62152 1.57318.726 2.6536.8539 8.82969.10156 4.90442.0301 7.25322-.23576 7.75-.37869.70757-.46838.71283-12.16229.71283-10.16437 0-11.83883.0699-12.20377.50965-.57545.69338-.2102 5.76309.52717 7.31697.3035.63958 1.09835 1.50273 1.76633 1.91812 1.18112.73449 1.48943.75797 11.21452.85397 8.81564.087 10.04934.16366 10.41666.64704.63016.82929.55003 5.23995-.10714 5.89711-.45486.45487-1.84789.51864-10.58333.4846-5.53274-.0217-10.75394-.15653-11.60265-.29996zm14.70979-27.24937c0-7.00474-.77506-7.7448-8.11109-7.7448-5.5291 0-6.62952.35876-7.59054 2.47471-.4913 1.08173-.61856 2.19084-.62439 5.44196l-.0073 4.08333h16.33332zM135.4 334.26667c-.57791-.5779-.57791-41.28875 0-41.86666.25556-.25556 1.55556-.4 3.6-.4 2.04445 0 3.34445.14444 3.6.4.22134.22133.4 1.2845.4 2.38026v1.98026l1.32078-1.50048c1.84541-2.0965 4.04343-2.98045 7.924-3.18672 4.05199-.21538 4.08856-.18171 4.08856 3.76516 0 2.51035-.0989 3.12816-.52727 3.29252-.28999.11128-2.27749.2048-4.41666.20781-4.65867.007-6.01963.56002-7.38846 3.00459l-.83428 1.48993-.0995 14.98533c-.0667 10.04665-.21748 15.1275-.45748 15.41667-.47813.5761-6.63813.60287-7.20968.0313zm147.47898-.10196c-.27608-.2761-.57819-.7636-.67134-1.08334-.98773-3.39035-9.54229-39.74262-9.47041-40.24414.0879-.61307.38188-.67891 3.42944-.76801 3.83795-.1122 4.71849.0381 4.96916.84823.0991.32041 1.54235 7.62827 3.20714 16.2397 1.66479 8.61144 3.09367 15.72394 3.17529 15.80556.0816.0816.2322.0646.33462-.0378.14501-.14501 6.21265-25.77785 7.30142-30.845.40007-1.8619.86884-2.0799 4.47247-2.0799 2.07555 0 3.44786.15022 3.8062.41666.40239.29919 1.55173 4.78682 4.07647 15.91667 3.90931 17.2335 3.76894 16.66667 4.12735 16.66667.14219 0 .88875-3.2625 1.65902-7.25a96423.68267 96423.68267 0 0 1 3.09657-16.02042c.99213-5.13031 1.89513-8.96947 2.17566-9.25.72607-.72607 7.70558-.68973 7.98621.0416.3121.81331-9.52189 41.23174-10.15281 41.72884-.35706.2813-1.84098.41666-4.5681.41666-2.71578 0-4.2195-.13653-4.58937-.41666-.39435-.2987-1.50568-4.85268-3.92489-16.08334-1.85613-8.61666-3.4454-15.73732-3.53172-15.82368-.37235-.37252-.81018 1.4273-3.90626 16.05785-2.29993 10.86826-3.42492 15.55573-3.80383 15.84917-.83334.64536-8.53907.5739-9.19829-.0853zm62.54426.1506c-2.33577-.461-4.5016-1.59299-6.15487-3.21688-3.2183-3.16117-3.73273-6.03927-3.51926-19.68912.1643-10.50673.33073-11.57247 2.26243-14.48882 1.17117-1.76813 3.27753-3.28436 5.77197-4.15482 2.52053-.87958 14.2458-.87958 16.76633 0 3.65347 1.27492 5.75153 3.30055 7.19007 6.94182.6215 1.57318.726 2.6536.8539 8.82969.10156 4.90442.03 7.25322-.23577 7.75-.37867.70757-.46837.71283-12.16227.71283-10.1366 0-11.83953.0707-12.2015.50691-.5907.71174-.24736 5.69231.50114 7.26961.31656.66713 1.1221 1.55283 1.7901 1.96822 1.1811.73449 1.4894.75797 11.2145.85397 8.81563.087 10.04933.16366 10.41666.64704.63017.82929.55004 5.23995-.10713 5.89711-.4551.45507-1.86547.519-10.75.48727-5.6244-.02-10.86073-.16173-11.6363-.31483zm14.9101-27.23717c0-7.00474-.77507-7.7448-8.1111-7.7448-5.4159 0-6.5452.35285-7.5722 2.36592-.5422 1.0628-.65003 1.96764-.65003 5.45413v4.17995h16.33333zm20.73333 27.18853c-.5796-.5796-.5796-57.28705 0-57.86666.58187-.58187 6.73234-.54384 7.22074.0446.24663.29718.39836 3.68853.45746 10.22603l.0885 9.78139.89967-1.35987c1.44543-2.18479 3.77446-3.13322 8.21056-3.34348 6.48687-.30746 10.4244.87552 13.20387 3.96696 2.6773 2.97778 2.85257 4.04853 2.85257 17.42559 0 12.26715-.13997 13.50957-1.8219 16.17396-1.63584 2.5913-4.00314 4.13707-7.45684 4.86907-2.95513.62633-23.0407.69626-23.6546.0824zm22.1-7.46942c.73334-.38258 1.63334-1.20597 2-1.82975.62914-1.07033.66667-1.73443.66667-11.80083 0-10.50414-.0113-10.68517-.75527-11.88118-1.2647-2.03374-2.38906-2.35036-7.90653-2.22644-5.17407.11621-5.7474.29957-7.2564 2.32068-1.0854 1.4538-1.23237 3.17387-1.2405 14.52038-.007 10.18563.0385 11.0954.57537 11.42634.37686.2323 2.70686.32538 6.58333.26298 5.3215-.0857 6.15077-.17524 7.33333-.79218z"/><path fill="#1a1522" d="M211.03151 347.39221c-.50324-.9403-.46569-5.13687.0518-5.79317.31116-.39463 1.22976-.5673 3.62796-.68193 3.95441-.189 5.85475-.98584 7.23433-3.0334.94313-1.39977 2.38771-4.5431 2.38771-5.1955 0-.21046-.79283-.35487-1.94834-.35487-1.43961 0-2.08112-.15231-2.45688-.58333-.53129-.60943-11.59478-37.58251-11.59478-38.7486 0-.62988.21952-.66807 3.84048-.66807 3.66719 0 3.85468.0338 4.15537.75.17319.4125 2.27735 7.875 4.6759 16.58333 2.39856 8.70834 4.4445 16.05834 4.54655 16.33334.14918.40203.24468.36937.48736-.16667.166-.36667 2.25062-7.71667 4.63249-16.33333 2.38187-8.61667 4.47697-16.00417 4.65578-16.41667.30904-.71293.5072-.75 4.00938-.75 3.03493 0 3.71955.0919 3.8844.5215.11006.28683-2.59309 10.29933-6.00701 22.25-6.91968 24.22287-7.56673 25.96653-10.85697 29.25763-2.72369 2.72437-4.61609 3.372-10.40889 3.5621-4.32351.14187-4.57012.11517-4.91667-.53236zm-42.12659.0621c-.52703-.1544-.58421-.54293-.5-3.39763l.0951-3.2233 8.83334-.16667c8.05916-.15206 8.93253-.2251 9.96515-.83333 2.27735-1.3414 2.52245-2.01383 2.64451-7.25511l.10967-4.70891-1.53603 1.70845c-2.2365 2.48752-3.54994 2.84446-9.94221 2.70189-4.64882-.10369-5.23061-.18641-6.93659-.98635-2.04637-.95956-3.98696-2.71264-4.8506-4.38192-1.28368-2.48116-1.44588-4.1173-1.44995-14.62627-.004-9.29741.0562-10.40976.66615-12.38444.84984-2.75146 2.93389-5.1601 5.59569-6.46722l1.90085-.93349h24.33334l.0857 22.6566c.0948 25.06543.11661 24.7671-2.01484 27.56163-.59955.78607-1.72987 1.91717-2.51184 2.5136-2.5899 1.97537-3.83376 2.17337-14.39234 2.29097-5.225.0582-9.76778.0273-10.09508-.0685zm18.10841-22.88851c.99484-.52609 1.69442-1.22691 2.22357-2.22756.7673-1.45099.77152-1.52683.68425-12.31575l-.0878-10.85578H183.5c-6.97318 0-7.74271.18817-9.29849 2.27373-.66781.89521-.70622 1.38765-.7997 10.25166-.0911 8.64373-.0514 9.41707.55453 10.78687 1.03692 2.34414 2.28271 2.82169 7.4079 2.83968 3.75556.0132 4.35042-.0661 5.64909-.75285zm-176.45949 9.74845c-4.6464-.5398-8.2704-3.40407-9.5504-7.54821-.61523-1.99187-.6701-3.09197-.6701-13.43266s.05487-11.44079.6701-13.43266c.84984-2.75146 2.93389-5.1601 5.59569-6.46722L8.5 292.50005h8c7.49549 0 8.09829.0454 9.55856.72029 2.20745 1.02019 4.4405 3.20517 5.51795 5.3992l.9235 1.88051v16.33333l-11.8044.08762c-8.58236.0637-11.93602.1969-12.28664.48789-.37542.31157-.45293 1.07071-.34989 3.42675.15249 3.48649.77105 4.90005 2.61938 5.98591 1.07416.63104 1.86543.69011 11.32154.84512l10.16667.16667.0949 3.2081c.0916 3.09663.06844 3.2152-.66667 3.4121-1.08728.2913-18.31676.1772-21.04105-.13933zm13.92554-23.09124c.54324-.39723.59189-.862.46442-4.43717-.16159-4.5322-.62915-5.76976-2.62226-6.94067-1.01296-.59509-1.72832-.67846-5.82154-.67846-5.38407 0-6.52932.39493-7.62901 2.63077-.92302 1.87662-1.20087 8.49174-.3907 9.3019.5002.50021 1.44439.56733 7.97981.56733 5.64475 0 7.55719-.10581 8.01928-.4437zm21.2681 23.09904l-.75253-.3024.08586-20.7598.08586-20.7598h7.66666L53 294.64716l.16667 2.1471.81972-1.20117c1.062-1.55619 3.0714-2.84421 4.85426-3.11156.77863-.11677 3.5705-.15578 6.20418-.0867 5.80921.15237 7.39837.70446 9.89698 3.43834 2.89838 3.17129 2.86653 2.93915 2.98457 21.75287l.10301 16.41934-.86973.33067c-1.25569.4774-5.91768.41656-6.58803-.086-.50253-.37674-.56454-1.90205-.64704-15.91667-.09096-15.45021-.09368-15.5039-.8465-16.71451-1.2491-2.00866-2.58953-2.45216-7.41142-2.45216-3.77244 0-4.29699.0747-5.54404.7893-.79553.45587-1.7108 1.37113-2.16667 2.16667l-.7893 1.37737-.09143 15.16666c-.0826 13.70116-.14513 15.20694-.64705 15.58334-.64648.48483-5.52262.53736-6.6807.072zm54.80636-.008c-4.6464-.53993-8.2704-3.4042-9.5504-7.54834-.61523-1.99187-.6701-3.09197-.6701-13.43266s.05487-11.44079.6701-13.43266c.84984-2.75146 2.93389-5.1601 5.5957-6.46722l1.90086-.93345h8c7.49549 0 8.09829.0454 9.55856.72029 2.20746 1.02019 4.4405 3.20517 5.51795 5.3992l.92349 1.88051v16.33333l-11.80439.0877c-8.58237.0637-11.93602.1969-12.28664.48789-.37542.31157-.45293 1.07071-.34989 3.42675.15249 3.48649.77105 4.90005 2.61938 5.98591 1.07416.63104 1.86543.69011 11.32154.84512l10.16667.16667.0949 3.2081c.0916 3.09663.0684 3.2152-.66667 3.4121-1.08728.2913-18.31676.1772-21.04106-.13933zm13.92555-23.09124c.54324-.39723.59188-.86199.46441-4.43717-.16158-4.53219-.62915-5.76975-2.62226-6.94066-1.01296-.59523-1.72831-.6786-5.82154-.6786-5.38407 0-6.52932.39493-7.62901 2.63077-.92302 1.87662-1.20087 8.49174-.3907 9.3019.5002.50021 1.4444.56733 7.97981.56733 5.64476 0 7.55719-.10581 8.01929-.4437zm21.26809 23.09904l-.75253-.3024.0859-20.75979.0859-20.75994h7.66659l.0992 2.08333c.10584 2.22205.39695 2.58842 1.00183 1.26085.50375-1.10561 2.70734-2.65799 4.4663-3.14641.79894-.22184 2.83333-.35356 4.59929-.29779l3.16667.10002v6.33333L152 299.02888c-4.48344.21041-5.65235.52287-7.09117 1.89554C143.11341 302.6373 143 303.74378 143 319.54878c0 13.92316-.0226 14.43983-.64475 14.77283-.7844.4198-5.56336.4201-6.60777 0zm147.32757-.21293c-.60834-.50824-1.53014-3.9363-5.5687-20.70922-2.66182-11.05522-4.83968-20.31772-4.83968-20.58347 0-.39504.72605-.48318 3.98033-.48318 2.819 0 4.05857.12157 4.24852.41667.1475.22916 1.64533 7.51814 3.3285 16.19772 1.68317 8.67957 3.15449 15.87523 3.2696 15.99034.11512.11511.32454.0228.4654-.20508.14085-.22791 1.87739-7.42357 3.85896-15.99035 1.98157-8.56678 3.75154-15.76347 3.93326-15.99263.2293-.28918 1.48081-.41667 4.0903-.41667h3.75991l.31942.91667c.17568.50416 1.86104 7.74166 3.74525 16.08333 1.88422 8.34167 3.55266 15.30667 3.70765 15.47778.15498.17111.36021.23269.45606.13684.0958-.0959 1.54297-7.28585 3.21583-15.97778s3.19031-15.99101 3.3721-16.22017c.23116-.2914 1.52089-.41667 4.28973-.41667 2.94546 0 3.95902.10668 3.95855.41667-.001.78955-9.87871 41.24046-10.13247 41.495-.331.33203-6.92931.5467-8.38874.2729-1.40158-.26294-1.03696 1.00523-4.978-17.31366-1.73098-8.04601-3.22915-14.71101-3.32925-14.81112-.10011-.1001-.30862-.042-.46334.1291-.15473.17111-1.75 7.23911-3.54506 15.70666-1.79505 8.46755-3.3852 15.59255-3.53366 15.83335-.19293.3129-1.44253.46887-4.38069.54683-3.5927.0953-4.20264.0323-4.83978-.5zm63.14546.20513c-4.6464-.5398-8.2704-3.40407-9.5504-7.5482-.61524-1.99201-.6701-3.09211-.6701-13.4328s.0549-11.44079.6701-13.43266c.84983-2.75146 2.9339-5.1601 5.5957-6.46722l1.90086-.93345h8c7.4955 0 8.0983.0454 9.55857.72029 2.20743 1.02019 4.4405 3.20517 5.51793 5.3992l.9235 1.88051v16.33333l-12.07803.0875-12.078.0875-.21357.85085c-.11746.46797-.14586 2.02019-.0631 3.4494.175 3.02298.86983 4.48998 2.6112 5.51299 1.07417.63104 1.86543.69011 11.32153.84512l10.16667.16667.0949 3.2081c.0916 3.09663.0684 3.2152-.66667 3.4121-1.0873.2913-18.31676.1772-21.04106-.13933zm13.92553-23.09124c.54327-.39723.5919-.86199.46443-4.43717-.1616-4.53219-.62916-5.76975-2.62226-6.94066-1.01297-.59509-1.7283-.67846-5.82154-.67846-5.38406 0-6.5293.39492-7.629 2.63076-.92303 1.87662-1.20086 8.49174-.3907 9.3019.5002.50021 1.44437.56734 7.9798.56734 5.64477 0 7.5572-.10582 8.01927-.44371zm21.10397 23.10201c-.54824-.33654-.58334-2.07785-.58334-28.94153 0-21.78712.0951-28.67855.4-28.98344.54484-.54482 6.65517-.54482 7.2 0 .29297.29296.4 3.02155.4 10.197v9.79699l1.75-1.83361c2.20624-2.31165 3.07884-2.55613 9.13157-2.55852 7.7333-.003 10.82937 1.46581 13.18953 6.25755l1.09557 2.22431.1031 11.61002c.0672 7.56799-.0247 12.22634-.26437 13.38031-.7986 3.8467-3.8555 7.19998-7.63296 8.37298-1.58197.49127-3.6047.6012-13.0391.70874-7.58924.0865-11.35354.0127-11.75-.2308zm22.08333-7.4994c.6909-.39932 1.4725-1.27768 1.91667-2.15396.72836-1.43697.75-1.769.75-11.50508 0-9.73607-.0217-10.06811-.75-11.50507-1.2375-2.44147-2.2746-2.82826-7.58334-2.82826-4.18523 0-4.60296.0583-5.9721.83333-.9385.53129-1.72383 1.31662-2.16666 2.16667-.6604 1.26772-.69927 1.9225-.7901 13.30613-.0756 9.47316-.006 12.03257.33333 12.25907.2359.15746 3.27887.2447 6.7622.19387 5.6495-.0824 6.4593-.16521 7.5-.7667z"/></g><g transform="translate(-167.213 -315.58) scale(1.78637)"><path d="M174.23387 421.56625q0 5.33203-2.73437 8.41797-2.73438 3.08594-7.32422 3.08594-4.62891 0-7.36328-3.08594-2.71485-3.08594-2.71485-8.41797 0-5.33203 2.71485-8.41797 2.73437-3.10546 7.36328-3.10546 4.58984 0 7.32422 3.10546 2.73437 3.08594 2.73437 8.41797zm-3.78906 0q0-4.23828-1.66016-6.28906-1.66015-2.07031-4.60937-2.07031-2.98828 0-4.64844 2.07031-1.64062 2.05078-1.64062 6.28906 0 4.10157 1.66015 6.23047 1.66016 2.10938 4.62891 2.10938 2.92969 0 4.58984-2.08985 1.67969-2.10937 1.67969-6.25z"/><path d="M193.53075 414.65219h-.19532q-.82031-.19531-1.60156-.27344-.76172-.0977-1.8164-.0977-1.69922 0-3.28125.76172-1.58204.74218-3.04688 1.93359v15.48828h-3.67187v-21.81641h3.67187v3.22266q2.1875-1.75781 3.84766-2.48047 1.67968-.74219 3.41797-.74219.95703 0 1.38671.0586.42969.0391 1.28907.17578z"/><path d="M200.93309 406.99594h-4.14062v-3.80859h4.14062zm-.23437 25.46875h-3.67188v-21.81641h3.67188z"/><path d="M225.65965 429.98422q0 5.54688-2.51953 8.14453-2.51953 2.59766-7.7539 2.59766-1.73829 0-3.39844-.25391-1.64063-.23437-3.24219-.68359v-3.75h.19531q.89844.35156 2.85157.85937 1.95312.52735 3.90625.52735 1.875 0 3.10546-.44922 1.23047-.44922 1.91407-1.25.68359-.76172.97656-1.83594.29297-1.07422.29297-2.40234v-1.99219q-1.66016 1.32813-3.1836 1.99219-1.5039.64453-3.84765.64453-3.90625 0-6.21094-2.8125-2.28516-2.83203-2.28516-7.96875 0-2.8125.78125-4.84375.80079-2.05078 2.16797-3.53516 1.26953-1.38672 3.08594-2.14843 1.81641-.78125 3.61328-.78125 1.89453 0 3.16406.39062 1.28907.37109 2.71485 1.15234l.23437-.9375h3.4375zm-3.67187-3.51562v-11.89453q-1.46485-.66407-2.73438-.9375-1.25-.29297-2.5-.29297-3.02734 0-4.76562 2.03125t-1.73828 5.89843q0 3.67188 1.28906 5.56641 1.28906 1.89453 4.27734 1.89453 1.60157 0 3.20313-.60547 1.62109-.625 2.96875-1.66015z"/><path d="M236.83153 406.99594h-4.14063v-3.80859h4.14063zm-.23438 25.46875h-3.67187v-21.81641h3.67187z"/><path d="M262.10497 432.46469h-3.67188v-12.42187q0-1.50391-.17578-2.8125-.17578-1.32813-.64453-2.07032-.48828-.82031-1.40625-1.21093-.91797-.41016-2.38281-.41016-1.50391 0-3.14454.74219-1.64062.74218-3.14453 1.89453v16.28906h-3.67187v-21.81641h3.67187v2.42188q1.71875-1.42578 3.55469-2.22656t3.76953-.80078q3.53516 0 5.39063 2.1289 1.85547 2.12891 1.85547 6.13281z"/></g></g></svg>