<svg xmlns="http://www.w3.org/2000/svg" role="img" viewBox="-8.39 -8.39 436.54 321.29"><title>owid-catalog logo</title><g clip-path="url(#a)"><path fill="#fff" d="M0 0h420v240H0z"/><path fill="#002147" d="M0 0h420v214H0V0z"/><path fill="#fff" d="M82.4575 63.496c0 4.7227-.748 9.064-2.244 13.024-1.496 3.9307-3.608 7.3187-6.336 10.164s-6.0133 5.06-9.856 6.644c-3.8133 1.5547-8.0373 2.332-12.672 2.332-4.6346 0-8.8586-.7773-12.672-2.332-3.8133-1.584-7.084-3.7987-9.812-6.644-2.728-2.8453-4.84-6.2333-6.336-10.164-1.496-3.96-2.244-8.3013-2.244-13.024s.748-9.0493 2.244-12.98c1.496-3.96 3.608-7.3627 6.336-10.208 2.728-2.8747 5.9987-5.104 9.812-6.688 3.8134-1.584 8.0374-2.376 12.672-2.376 4.6347 0 8.8587.792 12.672 2.376 3.8427 1.584 7.128 3.8133 9.856 6.688 2.728 2.8453 4.84 6.248 6.336 10.208 1.496 3.9307 2.244 8.2573 2.244 12.98zm-8.756 0c0-3.872-.528-7.348-1.584-10.428-1.056-3.08-2.552-5.676-4.488-7.788-1.936-2.1413-4.2826-3.784-7.04-4.928-2.7573-1.144-5.8373-1.716-9.24-1.716-3.3733 0-6.4386.572-9.196 1.716-2.7573 1.144-5.1186 2.7867-7.084 4.928-1.936 2.112-3.432 4.708-4.488 7.788-1.056 3.08-1.584 6.556-1.584 10.428 0 3.872.528 7.348 1.584 10.428 1.056 3.0507 2.552 5.6467 4.488 7.788 1.9654 2.112 4.3267 3.74 7.084 4.884 2.7574 1.1147 5.8227 1.672 9.196 1.672 3.4027 0 6.4827-.5573 9.24-1.672 2.7574-1.144 5.104-2.772 7.04-4.884 1.936-2.1413 3.432-4.7373 4.488-7.788 1.056-3.08 1.584-6.556 1.584-10.428zm52.4455-13.068V95h-4.664c-1.115 0-1.819-.5427-2.112-1.628l-.616-4.796c-1.936 2.1413-4.107 3.872-6.512 5.192-2.406 1.2907-5.163 1.936-8.272 1.936-2.435 0-4.5909-.396-6.4682-1.188-1.848-.8213-3.4027-1.9653-4.664-3.432-1.2613-1.4667-2.2147-3.2413-2.86-5.324-.616-2.0827-.924-4.3853-.924-6.908V50.428h7.832v28.424c0 3.3733.7627 5.984 2.288 7.832 1.5542 1.848 3.9162 2.772 7.0842 2.772 2.317 0 4.473-.5427 6.468-1.628 2.024-1.1147 3.886-2.64 5.588-4.576V50.428h7.832zm17.214 8.932c1.408-3.0507 3.139-5.4267 5.192-7.128 2.053-1.7307 4.561-2.596 7.524-2.596.939 0 1.833.1027 2.684.308.88.2053 1.657.528 2.332.968l-.572 5.852c-.176.7333-.616 1.1-1.32 1.1-.411 0-1.012-.088-1.804-.264-.792-.176-1.687-.264-2.684-.264-1.408 0-2.669.2053-3.784.616-1.085.4107-2.068 1.0267-2.948 1.848-.851.792-1.628 1.7893-2.332 2.992-.675 1.1733-1.291 2.5227-1.848 4.048V95h-7.876V50.428h4.488c.851 0 1.437.1613 1.76.484.323.3227.543.88.66 1.672l.528 6.776zm122.317-27.412L246.01 95h-7.656l-15.972-48.092c-.147-.4693-.294-.968-.44-1.496-.118-.528-.25-1.0853-.396-1.672-.147.5867-.294 1.144-.44 1.672-.147.528-.294 1.0267-.44 1.496L204.606 95h-7.656l-19.668-63.052h7.084c.762 0 1.393.1907 1.892.572.528.3813.865.8653 1.012 1.452l13.024 43.824c.205.792.396 1.6427.572 2.552.205.9093.396 1.8773.572 2.904.205-1.0267.41-1.9947.616-2.904.234-.9387.484-1.7893.748-2.552l14.828-43.824c.176-.4987.513-.9533 1.012-1.364.528-.44 1.158-.66 1.892-.66h2.464c.762 0 1.378.1907 1.848.572.469.3813.821.8653 1.056 1.452l14.784 43.824c.264.7627.498 1.584.704 2.464.234.88.454 1.804.66 2.772.146-.968.308-1.892.484-2.772.176-.88.366-1.7013.572-2.464l13.068-43.824c.146-.528.469-.9973.968-1.408.528-.4107 1.158-.616 1.892-.616h6.644zm18.701 17.776c3.256 0 6.189.5427 8.8 1.628 2.611 1.0853 4.84 2.6253 6.688 4.62 1.848 1.9947 3.256 4.4147 4.224 7.26.997 2.816 1.496 5.9693 1.496 9.46 0 3.52-.499 6.688-1.496 9.504-.968 2.816-2.376 5.2213-4.224 7.216-1.848 1.9947-4.077 3.5347-6.688 4.62-2.611 1.056-5.544 1.584-8.8 1.584-3.285 0-6.248-.528-8.888-1.584-2.611-1.0853-4.84-2.6253-6.688-4.62-1.848-1.9947-3.271-4.4-4.268-7.216-.968-2.816-1.452-5.984-1.452-9.504 0-3.4907.484-6.644 1.452-9.46.997-2.8453 2.42-5.2653 4.268-7.26 1.848-1.9947 4.077-3.5347 6.688-4.62 2.64-1.0853 5.603-1.628 8.888-1.628zm0 39.776c4.4 0 7.685-1.4667 9.856-4.4 2.171-2.9627 3.256-7.084 3.256-12.364 0-5.3093-1.085-9.4453-3.256-12.408s-5.456-4.444-9.856-4.444c-2.229 0-4.18.3813-5.852 1.144-1.643.7627-3.021 1.8627-4.136 3.3-1.085 1.4373-1.907 3.212-2.464 5.324-.528 2.0827-.792 4.444-.792 7.084 0 5.28 1.085 9.4013 3.256 12.364 2.2 2.9333 5.529 4.4 9.988 4.4zm35.938-30.14c1.408-3.0507 3.138-5.4267 5.192-7.128 2.053-1.7307 4.561-2.596 7.524-2.596.938 0 1.833.1027 2.684.308.88.2053 1.657.528 2.332.968l-.572 5.852c-.176.7333-.616 1.1-1.32 1.1-.411 0-1.012-.088-1.804-.264-.792-.176-1.687-.264-2.684-.264-1.408 0-2.67.2053-3.784.616-1.086.4107-2.068 1.0267-2.948 1.848-.851.792-1.628 1.7893-2.332 2.992-.675 1.1733-1.291 2.5227-1.848 4.048V95h-7.876V50.428h4.488c.85 0 1.437.1613 1.76.484.322.3227.542.88.66 1.672l.528 6.776zm30.074-29.172V95h-7.832V30.188h7.832zm39.101 30.844c-1.466-1.9653-3.05-3.3293-4.752-4.092-1.701-.792-3.608-1.188-5.72-1.188-4.136 0-7.318 1.4813-9.548 4.444-2.229 2.9627-3.344 7.1867-3.344 12.672 0 2.904.25 5.3973.748 7.48.499 2.0533 1.232 3.7547 2.2 5.104.968 1.32 2.156 2.288 3.564 2.904 1.408.616 3.007.924 4.796.924 2.582 0 4.826-.5867 6.732-1.76 1.936-1.1733 3.711-2.8307 5.324-4.972V61.032zm7.832-30.844V95h-4.664c-1.114 0-1.818-.5427-2.112-1.628l-.704-5.412c-1.906 2.288-4.077 4.136-6.512 5.544-2.434 1.408-5.25 2.112-8.448 2.112-2.552 0-4.869-.484-6.952-1.452-2.082-.9973-3.857-2.4493-5.324-4.356-1.466-1.9067-2.596-4.2827-3.388-7.128-.792-2.8453-1.188-6.116-1.188-9.812 0-3.2853.44-6.336 1.32-9.152.88-2.8453 2.142-5.3093 3.784-7.392 1.643-2.0827 3.652-3.7107 6.028-4.884 2.406-1.2027 5.104-1.804 8.096-1.804 2.728 0 5.06.4693 6.996 1.408 1.966.9093 3.711 2.1853 5.236 3.828V30.188h7.832zM93.7277 140.428V185h-7.832v-44.572h7.832zm1.672-13.992c0 .763-.1613 1.481-.484 2.156-.2933.645-.704 1.232-1.232 1.76-.4987.499-1.1.895-1.804 1.188-.6747.293-1.3933.44-2.156.44-.7627 0-1.4813-.147-2.156-.44-.6453-.293-1.2173-.689-1.716-1.188-.4987-.528-.8947-1.115-1.188-1.76-.2933-.675-.44-1.393-.44-2.156 0-.763.1467-1.481.44-2.156.2933-.704.6893-1.305 1.188-1.804.4987-.528 1.0707-.939 1.716-1.232.6747-.293 1.3933-.44 2.156-.44.7627 0 1.4813.147 2.156.44.704.293 1.3053.704 1.804 1.232.528.499.9387 1.1 1.232 1.804.3227.675.484 1.393.484 2.156zm15.9483 20.46c.968-1.085 1.995-2.068 3.08-2.948 1.086-.88 2.23-1.628 3.432-2.244 1.232-.645 2.523-1.129 3.872-1.452 1.379-.352 2.86-.528 4.444-.528 2.435 0 4.576.411 6.424 1.232 1.878.792 3.432 1.936 4.664 3.432 1.262 1.467 2.215 3.241 2.86 5.324.646 2.083.968 4.385.968 6.908V185h-7.876v-28.38c0-3.373-.777-5.984-2.332-7.832-1.525-1.877-3.857-2.816-6.996-2.816-2.317 0-4.488.557-6.512 1.672-1.994 1.115-3.842 2.625-5.544 4.532V185h-7.876v-44.572h4.708c1.115 0 1.804.543 2.068 1.628l.616 4.84zm115.41 6.6c0 4.723-.748 9.02-2.244 12.892-1.496 3.872-3.608 7.187-6.336 9.944-2.728 2.757-6.013 4.899-9.856 6.424-3.813 1.496-8.037 2.244-12.672 2.244h-23.54v-63.052h23.54c4.635 0 8.859.763 12.672 2.288 3.843 1.496 7.128 3.637 9.856 6.424 2.728 2.757 4.84 6.072 6.336 9.944 1.496 3.872 2.244 8.169 2.244 12.892zm-8.756 0c0-3.872-.528-7.333-1.584-10.384s-2.552-5.632-4.488-7.744c-1.936-2.112-4.282-3.725-7.04-4.84-2.757-1.115-5.837-1.672-9.24-1.672h-15.004v49.236h15.004c3.403 0 6.483-.557 9.24-1.672 2.758-1.115 5.104-2.713 7.04-4.796 1.936-2.112 3.432-4.693 4.488-7.744 1.056-3.051 1.584-6.512 1.584-10.384zm39.604 11.44c-3.608.117-6.688.411-9.24.88-2.522.44-4.59 1.027-6.204 1.76-1.584.733-2.742 1.599-3.476 2.596-.704.997-1.056 2.112-1.056 3.344 0 1.173.191 2.185.572 3.036.382.851.895 1.555 1.54 2.112.675.528 1.452.924 2.332 1.188.91.235 1.878.352 2.904.352 1.379 0 2.64-.132 3.784-.396 1.144-.293 2.215-.704 3.212-1.232 1.027-.528 1.995-1.159 2.904-1.892.939-.733 1.848-1.569 2.728-2.508v-9.24zm-25.3-18.216c2.464-2.376 5.119-4.151 7.964-5.324 2.846-1.173 5.999-1.76 9.46-1.76 2.494 0 4.708.411 6.644 1.232s3.564 1.965 4.884 3.432c1.32 1.467 2.318 3.241 2.992 5.324.675 2.083 1.012 4.371 1.012 6.864V185h-3.476c-.762 0-1.349-.117-1.76-.352-.41-.264-.733-.763-.968-1.496l-.88-4.224c-1.173 1.085-2.317 2.053-3.432 2.904-1.114.821-2.288 1.525-3.52 2.112-1.232.557-2.552.983-3.96 1.276-1.378.323-2.918.484-4.62.484-1.73 0-3.358-.235-4.884-.704-1.525-.499-2.86-1.232-4.004-2.2-1.114-.968-2.009-2.185-2.684-3.652-.645-1.496-.968-3.256-.968-5.28 0-1.76.484-3.447 1.452-5.06.968-1.643 2.538-3.095 4.708-4.356 2.171-1.261 5.002-2.288 8.492-3.08 3.491-.821 7.774-1.291 12.848-1.408v-3.476c0-3.461-.748-6.072-2.244-7.832-1.496-1.789-3.681-2.684-6.556-2.684-1.936 0-3.564.249-4.884.748-1.29.469-2.42 1.012-3.388 1.628-.938.587-1.76 1.129-2.464 1.628-.674.469-1.349.704-2.024.704-.528 0-.982-.132-1.364-.396-.381-.293-.704-.645-.968-1.056l-1.408-2.508zm55.329 38.984c-3.52 0-6.233-.983-8.14-2.948-1.877-1.965-2.816-4.796-2.816-8.492v-27.28h-5.368c-.469 0-.865-.132-1.188-.396-.323-.293-.484-.733-.484-1.32v-3.124l7.304-.924 1.804-13.772c.088-.44.279-.792.572-1.056.323-.293.733-.44 1.232-.44h3.96v15.356h12.892v5.676h-12.892v26.752c0 1.877.455 3.271 1.364 4.18.909.909 2.083 1.364 3.52 1.364.821 0 1.525-.103 2.112-.308.616-.235 1.144-.484 1.584-.748.44-.264.807-.499 1.1-.704.323-.235.601-.352.836-.352.411 0 .777.249 1.1.748l2.288 3.74c-1.349 1.261-2.977 2.259-4.884 2.992-1.907.704-3.872 1.056-5.896 1.056zm39.371-20.768c-3.608.117-6.688.411-9.24.88-2.523.44-4.591 1.027-6.204 1.76-1.584.733-2.743 1.599-3.476 2.596-.704.997-1.056 2.112-1.056 3.344 0 1.173.191 2.185.572 3.036.381.851.895 1.555 1.54 2.112.675.528 1.452.924 2.332 1.188.909.235 1.877.352 2.904.352 1.379 0 2.64-.132 3.784-.396 1.144-.293 2.215-.704 3.212-1.232 1.027-.528 1.995-1.159 2.904-1.892.939-.733 1.848-1.569 2.728-2.508v-9.24zm-25.3-18.216c2.464-2.376 5.119-4.151 7.964-5.324 2.845-1.173 5.999-1.76 9.46-1.76 2.493 0 4.708.411 6.644 1.232s3.564 1.965 4.884 3.432c1.32 1.467 2.317 3.241 2.992 5.324.675 2.083 1.012 4.371 1.012 6.864V185h-3.476c-.763 0-1.349-.117-1.76-.352-.411-.264-.733-.763-.968-1.496l-.88-4.224c-1.173 1.085-2.317 2.053-3.432 2.904-1.115.821-2.288 1.525-3.52 2.112-1.232.557-2.552.983-3.96 1.276-1.379.323-2.919.484-4.62.484-1.731 0-3.359-.235-4.884-.704-1.525-.499-2.86-1.232-4.004-2.2-1.115-.968-2.009-2.185-2.684-3.652-.645-1.496-.968-3.256-.968-5.28 0-1.76.484-3.447 1.452-5.06.968-1.643 2.537-3.095 4.708-4.356 2.171-1.261 5.001-2.288 8.492-3.08 3.491-.821 7.773-1.291 12.848-1.408v-3.476c0-3.461-.748-6.072-2.244-7.832-1.496-1.789-3.681-2.684-6.556-2.684-1.936 0-3.564.249-4.884.748-1.291.469-2.42 1.012-3.388 1.628-.939.587-1.76 1.129-2.464 1.628-.675.469-1.349.704-2.024.704-.528 0-.983-.132-1.364-.396-.381-.293-.704-.645-.968-1.056l-1.408-2.508z"/><path fill="#D42B21" d="M0 213.578h420V240H0z"/></g><defs><clipPath id="a"><path fill="#fff" d="M0 0h420v240H0z"/></clipPath></defs><path d="M57.97912 284.06402c-1.24608 1.65085-3.03186 2.48422-5.35734 2.48422-2.32548 0-4.1192-.83337-5.37321-2.48422-1.25402-1.6588-1.88102-4.00808-1.88102-7.06375 0-3.04773.627-5.39703 1.88102-7.04788 1.25401-1.64292 3.04773-2.46835 5.37321-2.46835s4.11126.82543 5.35734 2.46835c1.24608 1.65085 1.86515 4.00015 1.86515 7.04788 0 3.05567-.61907 5.40496-1.86515 7.06375zm6.35738 4.38905c2.57152-3.16678 3.84935-6.98438 3.84935-11.4528 0-4.38905-1.27783-8.19078-3.84935-11.41312-2.56359-3.2144-6.46056-4.82557-11.6909-4.82557-5.22242 0-9.1194 1.61117-11.69091 4.82557-2.5636 3.22234-3.84935 7.02407-3.84935 11.41312 0 4.46842 1.28576 8.28602 3.84935 11.4528 2.57152 3.17472 6.46849 4.76208 11.6909 4.76208 5.23035 0 9.12732-1.58736 11.6909-4.76208zm-11.6909-27.52482zm35.58067.80955l-4.38112 21.81826-4.7462-21.81826h-8.54l8.54 30.41382h8.2622L92.18674 270l4.77002 22.1516h8.1749l8.81779-30.4138h-8.28602l-4.74621 21.90556-4.62715-21.90557zm38.27918-3.62712v-7.34154h-8.06379v7.34154zm-8.06379 3.62712v30.41382h8.0638V261.7378zm31.89007.49208c-1.42863-.80955-3.0636-1.21433-4.90495-1.21433-4.00014 0-7.19867 1.48418-9.58765 4.46048-2.38898 2.9763-3.58743 7.06376-3.58743 12.25442 0 4.50017 1.21433 8.18284 3.64299 11.0639 2.42866 2.87312 5.42083 4.30969 8.96858 4.30969 2.15881 0 3.9684-.41272 5.4129-1.2302 1.45243-.8175 2.74613-2.12707 3.8811-3.93666v4.21444h7.73044v-41.07294h-8.0638v14.50847c-.89685-1.42862-2.05562-2.54771-3.49218-3.35727zm1.96039 21.66747c-1.17465 1.66673-2.889 2.50803-5.13511 2.50803-2.25405 0-3.92872-.8413-5.03987-2.5239-1.10322-1.6826-1.6588-3.92872-1.6588-6.73835 0-2.60327.53971-4.78589 1.63499-6.54786 1.08734-1.75403 2.79375-2.63502 5.11923-2.63502 1.52387 0 2.86519.48415 4.01602 1.45244 1.88103 1.5953 2.81757 4.26206 2.81757 7.97648 0 2.66677-.58732 4.83351-1.75403 6.50818zm14.42116-11.44487v7.53202h16.01646v-7.53202zm39.5967.19842h8.14315c-.44446-4.3335-1.88102-7.35741-4.30968-9.07176-2.42866-1.70641-5.54782-2.56359-9.35749-2.56359-4.48429 0-8.00029 1.45244-10.548 4.34937-2.54772 2.90487-3.82554 6.96851-3.82554 12.19092 0 4.6351 1.15084 8.40508 3.46044 11.302 2.30961 2.90488 5.90498 4.35731 10.80199 4.35731 4.88907 0 8.57968-1.73816 11.07183-5.22241 1.56355-2.15881 2.4366-4.44461 2.62709-6.86534h-8.11935c-.16667 1.60324-.64288 2.90487-1.42862 3.91285-.77781 1.00003-2.09532 1.50799-3.96047 1.50799-2.61914 0-4.40492-1.26989-5.35734-3.80173-.51589-1.3572-.7778-3.1509-.7778-5.38115 0-2.34136.26191-4.22238.7778-5.63513.98417-2.65883 2.81757-3.9922 5.5002-3.9922 1.88103 0 3.26203.61113 4.15889 1.84133.61113.91273.9921 1.93658 1.1429 3.07154zm-5.38909-11.72265zm35.77116 16.43711v2.96043c-.05556 2.65883-.80162 4.49223-2.24612 5.49226-1.43656 1.00798-3.01598 1.508-4.73033 1.508-1.0794 0-1.99214-.3016-2.74613-.9048-.754-.6032-1.12703-1.58736-1.12703-2.94455 0-1.52387.61114-2.6509 1.84134-3.38108.72225-.42859 1.9207-.78574 3.59537-1.08734l1.78578-.33335c.89686-.16667 1.5953-.34922 2.11119-.5397.50795-.19842 1.0159-.4524 1.51593-.76987zm-4.82558-3.71442l-2.70645.33334c-3.07154.39684-5.39702 1.04766-6.97644 1.9604-2.88106 1.67466-4.32556 4.3811-4.32556 8.11934 0 2.88106.89686 5.1113 2.69851 6.68279 1.79372 1.57148 4.06364 2.35723 6.81771 2.35723 2.15881 0 4.0954-.49209 5.8018-1.48419 1.43657-.83336 2.69852-1.84927 3.7938-3.0398.05555.69051.13492 1.30164.23016 1.84135.0873.5397.25398 1.11909.50002 1.73022h8.65111v-1.17465c-.52383-.2381-.91273-.54764-1.17464-.92067-.26192-.36509-.42065-1.07146-.47621-2.11912-.03175-1.37307-.05556-2.54771-.05556-3.516v-13.94496c0-3.6668-1.2937-6.15896-3.87316-7.4844-2.5874-1.31751-5.54782-1.97627-8.87334-1.97627-5.11924 0-8.73048 1.33339-10.8258 4.01602-1.32544 1.71435-2.0715 3.89697-2.23817 6.5558h7.67488c.19049-1.17465.55558-2.10325 1.1191-2.78582.7778-.93654 2.11118-1.39687 3.98427-1.39687 1.67466 0 2.94455.2381 3.80966.70637.86511.47621 1.30163 1.34132 1.30163 2.5874 0 1.02385-.57145 1.7699-1.7064 2.25405-.62701.28572-1.6826.5159-3.15092.69844zm.42065-12.7227zm16.29425 6.75422h4.23825v18.72292c0 1.8969.4524 3.3017 1.34132 4.21444 1.381 1.42862 3.9446 2.07944 7.6987 1.95245l3.76998-.14286v-5.94467a12.91463 12.91463 0 0 1-.79368.04762c-.26985.00794-.52383.01588-.76987.01588-1.6191 0-2.5874-.15874-2.89693-.46827-.31747-.3016-.47621-1.0794-.47621-2.32549v-16.07202h4.93669v-5.66687h-4.93669v-8.4765h-7.8733v8.4765h-4.23826zm38.92207 9.6829v2.96043c-.05556 2.65883-.80162 4.49223-2.24611 5.49226-1.43656 1.00798-3.01599 1.508-4.73034 1.508-1.0794 0-1.99213-.3016-2.74613-.9048-.754-.6032-1.12702-1.58736-1.12702-2.94455 0-1.52387.61113-2.6509 1.84133-3.38108.72225-.42859 1.9207-.78574 3.59537-1.08734l1.78578-.33335c.89686-.16667 1.5953-.34922 2.1112-.5397.50795-.19842 1.0159-.4524 1.51592-.76987zm-4.82557-3.71442l-2.70645.33334c-3.07154.39684-5.39703 1.04766-6.97645 1.9604-2.88106 1.67466-4.32556 4.3811-4.32556 8.11934 0 2.88106.89686 5.1113 2.69058 6.68279 1.80165 1.57148 4.07158 2.35723 6.82565 2.35723 2.1588 0 4.09539-.49209 5.8018-1.48419 1.43656-.83336 2.69851-1.84927 3.79379-3.0398.05556.69051.13492 1.30164.23017 1.84135.0873.5397.25397 1.11909.50001 1.73022h8.65112v-1.17465c-.52383-.2381-.91274-.54764-1.17465-.92067-.26191-.36509-.42065-1.07146-.4762-2.11912-.03176-1.37307-.05557-2.54771-.05557-3.516v-13.94496c0-3.6668-1.2937-6.15896-3.87315-7.4844-2.5874-1.31751-5.54783-1.97627-8.87335-1.97627-5.11923 0-8.73048 1.33339-10.8258 4.01602-1.32544 1.71435-2.0715 3.89697-2.23817 6.5558h7.67489c.18254-1.17465.55557-2.10325 1.11909-2.78582.7778-.93654 2.11118-1.39687 3.98427-1.39687 1.67466 0 2.94455.2381 3.80966.70637.86511.47621 1.30164 1.34132 1.30164 2.5874 0 1.02385-.57145 1.7699-1.70641 2.25405-.62701.28572-1.6826.5159-3.15091.69844zm.42065-12.7227zm27.5407 31.22338v-41.1285h-7.95268v41.1285zm26.75495-8.0876c-1.24608 1.65085-3.03186 2.48422-5.35734 2.48422-2.32549 0-4.11127-.83337-5.37322-2.48422-1.25401-1.6588-1.88102-4.00808-1.88102-7.06375 0-3.04773.627-5.39703 1.88102-7.04788 1.26195-1.64292 3.04773-2.46835 5.37322-2.46835 2.32548 0 4.11126.82543 5.35734 2.46835 1.24607 1.65085 1.87308 4.00015 1.87308 7.04788 0 3.05567-.627 5.40496-1.87308 7.06375zm6.3653 4.38905c2.5636-3.16678 3.84936-6.98438 3.84936-11.4528 0-4.38905-1.28576-8.19078-3.84935-11.41312-2.57152-3.2144-6.4685-4.82557-11.6909-4.82557-5.23036 0-9.12733 1.61117-11.69091 4.82557-2.57153 3.22234-3.84935 7.02407-3.84935 11.41312 0 4.46842 1.27782 8.28602 3.84935 11.4528 2.56358 3.17472 6.46055 4.76208 11.6909 4.76208 5.22242 0 9.11939-1.58736 11.6909-4.76208zm-11.6909-27.52482zm39.00937 22.58813c-1.28576 1.40481-2.85724 2.10325-4.7224 2.10325-2.7858 0-4.72239-1.27782-5.8018-3.84935-.59525-1.37306-.88891-2.94455-.88891-4.71445 0-2.0477.27778-3.76205.83336-5.15892 1.06353-2.62709 2.98424-3.93666 5.778-3.93666 2.04769 0 3.67473.754 4.897 2.262 1.21433 1.50798 1.82546 3.69854 1.82546 6.58753 0 3.06361-.64288 5.30179-1.9207 6.7066zM368.3715 261.714c-1.13497-.46827-2.46835-.69844-3.99221-.69844-4.13508 0-7.31773 1.53974-9.57179 4.61922-2.25405 3.07154-3.37314 6.87327-3.37314 11.39725 0 4.6827 1.16671 8.39713 3.50013 11.14326 2.33342 2.74614 5.45259 4.1192 9.3575 4.1192 2.53183 0 4.58746-.6032 6.16688-1.81753.87305-.65081 1.69054-1.62704 2.46041-2.92867v1.95245c0 2.90487-.31747 4.96843-.95241 6.19864-.9683 1.91277-2.88106 2.87312-5.74625 2.87312-2.03182 0-3.46838-.3651-4.32555-1.08734-.50002-.41271-.86511-1.0794-1.08734-2.00801h-8.65112c.26192 3.03186 1.61911 5.30972 4.07158 6.83358 2.46041 1.52387 5.6272 2.2858 9.51623 2.2858 6.43674 0 10.7861-1.71435 13.05603-5.1351 1.32545-1.99214 1.9842-4.94463 1.9842-8.87335V261.7378h-7.73044v4.38112c-1.19052-2.135-2.75407-3.61125-4.68271-4.40493zm-1.45244-.78574z"/></svg>