<svg xmlns="http://www.w3.org/2000/svg" role="img" viewBox="-1.39 -1.33 69.22 14.16"><title>patch-node logo</title><g transform="translate(-1.084 9.117)"><path d="M6.84375-3.35156q0 .79687-.22852 1.45898-.22851.65625-.64453 1.11328-.38672.4336-.91406.67383-.52148.23438-1.10742.23438-.50977 0-.92578-.11133-.41016-.11133-.8379-.3457v2.74218H1.08399v-8.95898h1.10157v.68555q.43945-.36915.98437-.61524.55078-.25195 1.17188-.25195 1.1836 0 1.83984.89648.66211.89063.66211 2.47852zm-1.13672.0293q0-1.1836-.4043-1.76954-.4043-.58593-1.24218-.58593-.47461 0-.95508.20507-.48047.20508-.91992.53907v3.70898q.46875.21094.80273.28711.33984.07617.76758.07617.91992 0 1.43555-.6211.51562-.62109.51562-1.83984z"/><path d="M13.64648 0h-1.0957v-.69727q-.14648.09961-.39844.28125-.24609.17579-.48047.28125-.27539.13477-.6328.22266-.35743.09375-.8379.09375-.88476 0-1.5-.58594-.61523-.58593-.61523-1.49414 0-.74414.3164-1.20117.32227-.46289.91407-.72656.59765-.26367 1.43554-.35742.8379-.09375 1.79883-.14063v-.16992q0-.375-.13476-.6211-.12891-.24609-.375-.38671-.23438-.13477-.5625-.18164-.32813-.04688-.68555-.04688-.4336 0-.9668.11719-.5332.11133-1.10156.32812H8.666V-6.4043q.32227-.08789.93165-.19336.60937-.10547 1.20117-.10547.6914 0 1.20117.1172.51563.11132.89063.38671.36914.26953.5625.69727.19335.42773.19335 1.06054zm-1.0957-1.61133v-1.82226q-.5039.0293-1.18945.08789-.67969.0586-1.07813.16992-.4746.13476-.76758.42187-.29296.28125-.29296.7793 0 .5625.33984.84961.33984.28125 1.0371.28125.58009 0 1.06056-.22266.48046-.22851.89062-.54492z"/><path d="M19.16602-.0586q-.31055.08204-.6797.13477-.36327.05274-.65038.05274-1.00196 0-1.52344-.53907-.52148-.53906-.52148-1.72851v-3.48047h-.74414v-.92578h.74414v-1.88086h1.10156v1.88086h2.27344v.92578h-2.27344v2.98242q0 .51563.02344.8086.02344.2871.16406.53906.1289.23437.35156.3457.22852.10547.6914.10547.26954 0 .5625-.07617.29298-.08203.42188-.13477h.0586z"/><path d="M25.33594-.41016Q24.78516-.14648 24.2871 0q-.49219.14648-1.04883.14648-.70898 0-1.30078-.20507-.5918-.21094-1.01367-.63282-.42774-.42187-.66211-1.0664-.23438-.64453-.23438-1.50586 0-1.60547.87891-2.51953.88477-.91407 2.33203-.91407.5625 0 1.10156.1582.54493.15821.9961.38673v1.2246h-.0586q-.5039-.39257-1.04296-.60351-.5332-.21094-1.04297-.21094-.9375 0-1.48242.63281-.53906.62696-.53906 1.8457 0 1.1836.52734 1.82227.5332.63282 1.49414.63282.33398 0 .67969-.0879.3457-.08788.62109-.22851.24024-.12305.45117-.25781.21094-.14063.33399-.24024h.05859z"/><path d="M32.2207 0h-1.10156v-3.72656q0-.45117-.05273-.84375-.05273-.39844-.19336-.6211-.14648-.24609-.42187-.36328-.2754-.12304-.71485-.12304-.45117 0-.94336.22265-.49218.22266-.94336.56836V0h-1.10156v-9.11719h1.10156v3.29883q.51563-.42773 1.06641-.66797.55078-.24023 1.13086-.24023 1.06055 0 1.61719.63867.55664.63867.55664 1.83984z"/><path d="M37.81055-3.2871H34.1543v-1.06056h3.65625z"/><path d="M45.26367 0h-1.10156v-3.72656q0-.45117-.05273-.84375-.05274-.39844-.19336-.6211-.14649-.24609-.42188-.36328-.27539-.12304-.71484-.12304-.45117 0-.94336.22265-.49219.22266-.94336.56836V0h-1.10156v-6.54492h1.10156v.72656q.51562-.42773 1.0664-.66797.55079-.24023 1.13086-.24023 1.06055 0 1.6172.63867.55663.63867.55663 1.83984z"/><path d="M52.9629-3.26953q0 1.5996-.82032 2.52539-.82031.92578-2.19727.92578-1.38867 0-2.20898-.92578-.81446-.92578-.81446-2.5254 0-1.5996.81446-2.52538.82031-.93164 2.20898-.93164 1.37696 0 2.19727.93164.82031.92578.82031 2.52539zm-1.13673 0q0-1.27149-.49804-1.88672-.49805-.6211-1.38282-.6211-.89648 0-1.39453.6211-.49219.61523-.49219 1.88672 0 1.23047.49805 1.86914.49805.63281 1.38867.63281.8789 0 1.37696-.62695.5039-.63281.5039-1.875z"/><path d="M59.97656 0H58.875v-.68555q-.4746.41016-.99023.63867-.51563.22852-1.11915.22852-1.17187 0-1.86328-.90234-.68554-.90235-.68554-2.50196 0-.83203.23437-1.48242.24024-.65039.64453-1.10742.39844-.44531.92578-.67969.5332-.23437 1.10157-.23437.51562 0 .91406.11133.39844.10546.83789.33398v-2.83594h1.10156zM58.875-1.61133v-3.75586q-.44531-.19922-.79688-.27539-.35156-.07617-.76757-.07617-.92578 0-1.4414.64453-.51563.64453-.51563 1.82813 0 1.16601.39843 1.77539.39844.60351 1.27735.60351.46875 0 .94922-.20508.48046-.21093.89648-.53906z"/><path d="M67.62305-3.1582h-4.82227q0 .60351.18164 1.05468.18164.44532.49805.73243.30469.28125.7207.42187.42188.14063.92578.14063.66797 0 1.3418-.26368.67969-.26953.9668-.52734h.05859v1.20117q-.55664.23438-1.13672.39258-.58008.1582-1.21875.1582-1.6289 0-2.54297-.8789-.91406-.88477-.91406-2.50782 0-1.60546.87304-2.54882.87891-.94336 2.3086-.94336 1.32422 0 2.03906.77344.7207.77343.7207 2.19726zm-1.07227-.84375q-.0059-.8672-.43945-1.3418-.42774-.4746-1.30664-.4746-.88477 0-1.41211.52147-.52149.52149-.5918 1.29493z"/></g></svg>