<svg xmlns="http://www.w3.org/2000/svg" role="img" viewBox="-0.50 -0.44 22.75 9.88"><title>PCT logo</title><g transform="translate(-1.172 8.883)"><path d="M6.8789-6.0879q0 .58009-.20507 1.07813-.19922.4922-.5625.85547-.45117.45118-1.0664.6797-.61524.22265-1.55274.22265H2.33203V0H1.17187v-8.7246h2.3672q.78515 0 1.33007.13476.54492.1289.9668.41015.49804.33399.76758.83203.27539.49805.27539 1.25977zm-1.20702.0293q0-.45117-.1582-.78515-.15821-.33398-.48048-.54492-.28125-.18164-.64453-.25781-.35742-.08204-.9082-.08204H2.33203v3.48633h.97852q.70312 0 1.14258-.12304.43945-.12891.71484-.4043.27539-.28125.38672-.5918.11719-.31055.11719-.69726z"/><path d="M15.14648-.63281q-.32226.14062-.58593.26367-.25782.12305-.6797.25781-.35741.11133-.77929.1875-.41601.08203-.91992.08203-.94922 0-1.72851-.26367Q9.67968-.375 9.10547-.94336q-.5625-.55664-.8789-1.4121-.31641-.86134-.31641-1.99806 0-1.07812.30468-1.92773.3047-.8496.87891-1.43555.55664-.56836 1.3418-.86718.79101-.29883 1.75195-.29883.70313 0 1.4004.16992.70312.16992 1.55858.59766v1.37695h-.08789q-.7207-.60352-1.42968-.8789-.70899-.2754-1.51758-.2754-.66211 0-1.19531.2168-.52735.21094-.94336.6621-.4043.43946-.63282 1.11329-.22265.66797-.22265 1.54687 0 .91993.2461 1.58204.25194.6621.64452 1.07812.41016.4336.95508.64453.55078.20508 1.16016.20508.83789 0 1.5703-.2871.73243-.28712 1.3711-.86134h.08203z"/><path d="M23.00977-7.69336h-3.1172V0h-1.16015v-7.69336h-3.11719V-8.7246h7.39454z"/></g></svg>