<svg xmlns="http://www.w3.org/2000/svg" role="img" viewBox="-11.97 -11.97 580.44 622.44"><title>pem-dataset1 logo</title><g transform="translate(18.095 -39.968)"><path d="M.92834 567.63928q0 1.9336-.68359 3.59375-.66406 1.64063-1.875 2.85156-1.5039 1.50391-3.55469 2.26563-2.05078.74219-5.17578.74219h-3.86718v10.83984h-3.8672v-29.08203h7.89063q2.61719 0 4.4336.44922 1.8164.42969 3.22265 1.36719 1.66016 1.11328 2.5586 2.77343.91796 1.66016.91796 4.19922zm-4.02343.0977q0-1.50391-.52735-2.61719-.52734-1.11328-1.60156-1.81641-.9375-.60546-2.14844-.85937-1.1914-.27344-3.02734-.27344h-3.82813v11.6211h3.26172q2.34375 0 3.8086-.41016 1.46484-.42969 2.38281-1.34766.91797-.9375 1.28906-1.97265.39063-1.03516.39063-2.32422z"/><path d="M19.34631 570.11975h-.1953q-.82032-.19531-1.60157-.27344-.76172-.0977-1.8164-.0977-1.69923 0-3.28126.76172-1.58203.74218-3.04687 1.93359v15.48828H5.73303v-21.81641h3.67188v3.22266q2.1875-1.75781 3.84765-2.48047 1.6797-.74219 3.41797-.74219.95703 0 1.38672.0586.42969.0391 1.28906.17578z"/><path d="M41.3971 577.03381q0 5.33203-2.73438 8.41797-2.73438 3.08594-7.32422 3.08594-4.6289 0-7.36328-3.08594-2.71484-3.08594-2.71484-8.41797 0-5.33203 2.71484-8.41797 2.73438-3.10546 7.36328-3.10546 4.58985 0 7.32422 3.10546 2.73438 3.08594 2.73438 8.41797zm-3.78907 0q0-4.23828-1.66015-6.28906-1.66016-2.07031-4.60938-2.07031-2.98828 0-4.64844 2.07031-1.64062 2.05078-1.64062 6.28906 0 4.10157 1.66016 6.23047 1.66015 2.10938 4.6289 2.10938 2.92969 0 4.58985-2.08985 1.67968-2.10937 1.67968-6.25z"/><path d="M58.40881 587.73694q-1.03515.27344-2.26562.44922-1.21094.17578-2.16797.17578-3.33984 0-5.07813-1.79688-1.73828-1.79687-1.73828-5.76172v-11.60156h-2.48047v-3.08594h2.48047v-6.26953h3.67188v6.26953h7.57812v3.08594H50.8307v9.94141q0 1.71875.07813 2.69531.07813.95703.54687 1.79688.4297.78125 1.17188 1.15234.76172.35156 2.30469.35156.89843 0 1.875-.2539.97656-.27344 1.40625-.44922h.1953z"/><path d="M81.43616 577.03381q0 5.33203-2.73438 8.41797-2.73437 3.08594-7.32422 3.08594-4.6289 0-7.36328-3.08594-2.71484-3.08594-2.71484-8.41797 0-5.33203 2.71484-8.41797 2.73438-3.10546 7.36328-3.10546 4.58985 0 7.32422 3.10546 2.73438 3.08594 2.73438 8.41797zm-3.78907 0q0-4.23828-1.66015-6.28906-1.66016-2.07031-4.60938-2.07031-2.98828 0-4.64843 2.07031-1.64063 2.05078-1.64063 6.28906 0 4.10157 1.66016 6.23047 1.66015 2.10938 4.6289 2.10938 2.9297 0 4.58985-2.08985 1.67968-2.10937 1.67968-6.25z"/><path d="M105.36194 587.93225h-3.67188v-12.42187q0-1.50391-.17578-2.8125-.17578-1.32813-.64453-2.07032-.48828-.82031-1.40625-1.21093-.91797-.41016-2.38281-.41016-1.5039 0-3.14453.74219-1.64063.74218-3.14453 1.89453v16.28906h-3.67188v-21.81641h3.67188v2.42188q1.71875-1.42578 3.55468-2.22656 1.83594-.80078 3.76953-.80078 3.53516 0 5.39063 2.1289 1.85547 2.12891 1.85547 6.13281z"/><path d="M145.94788 587.93225h-19.16016v-29.08203h19.16016v3.4375h-15.29297v7.96875h15.29297v3.4375h-15.29297v10.80078h15.29297z"/><path d="M170.67444 587.93225h-4.62891l-6.1914-8.37891-6.23047 8.37891h-4.27735l8.51563-10.87891-8.4375-10.9375h4.6289l6.15235 8.24219 6.17187-8.24219h4.29688l-8.57422 10.74219z"/><path d="M191.20178 586.56506q-1.83594.87891-3.49609 1.36719-1.64063.48828-3.4961.48828-2.36328 0-4.33593-.68359-1.97266-.70313-3.37891-2.10938-1.42578-1.40625-2.20703-3.55468-.78125-2.14844-.78125-5.01954 0-5.35156 2.92969-8.39843 2.94922-3.04688 7.77343-3.04688 1.875 0 3.67188.52735 1.81641.52734 3.32031 1.28906v4.08203h-.19531q-1.67969-1.30859-3.47656-2.01172-1.77735-.70312-3.47657-.70312-3.125 0-4.9414 2.10937-1.79688 2.08984-1.79688 6.15234 0 3.94532 1.75782 6.07422 1.77734 2.10938 4.98046 2.10938 1.11329 0 2.26563-.29297t2.07031-.76172q.80078-.41016 1.50391-.85937.70312-.46875 1.11328-.80079h.19531z"/><path d="M214.151 587.93225h-3.67187v-12.42187q0-1.50391-.17579-2.8125-.17578-1.32813-.64453-2.07032-.48828-.82031-1.40625-1.21093-.91797-.41016-2.38281-.41016-1.50391 0-3.14453.74219-1.64063.74218-3.14453 1.89453v16.28906h-3.67188v-30.39062h3.67188v10.99609q1.71875-1.42578 3.55469-2.22656 1.83593-.80078 3.76953-.80078 3.53515 0 5.39062 2.1289 1.85547 2.12891 1.85547 6.13281z"/><path d="M238.17444 587.93225h-3.65235v-2.32422q-.48828.33203-1.32812.9375-.82031.58594-1.60156.9375-.91797.44922-2.10938.74219-1.1914.3125-2.79297.3125-2.94922 0-5-1.95313-2.05078-1.95312-2.05078-4.98046 0-2.48047 1.05469-4.00391 1.07422-1.54297 3.04687-2.42188 1.99219-.8789 4.78516-1.1914 2.79297-.3125 5.99609-.46875v-.56641q0-1.25-.44921-2.07031-.42969-.82031-1.25-1.28906-.78125-.44922-1.875-.60547-1.09375-.15625-2.28516-.15625-1.44531 0-3.22266.39062-1.77734.3711-3.67187 1.09375h-.19531v-3.73047q1.07421-.29296 3.10546-.64453 2.03125-.35156 4.00391-.35156 2.30469 0 4.00391.39063 1.71875.37109 2.96875 1.28906 1.23047.89844 1.875 2.32422t.64453 3.53515zm-3.65235-5.37109v-6.07422q-1.67968.0977-3.96484.29297-2.26562.19531-3.59375.5664-1.58203.44922-2.55859 1.40625-.97657.9375-.97657 2.59766 0 1.875 1.13282 2.83203 1.13281.9375 3.45703.9375 1.93359 0 3.53515-.74219 1.60157-.76172 2.96875-1.8164z"/><path d="M263.48694 587.93225h-3.67188v-12.42187q0-1.50391-.17578-2.8125-.17578-1.32813-.64453-2.07032-.48828-.82031-1.40625-1.21093-.91797-.41016-2.38281-.41016-1.50391 0-3.14453.74219-1.64063.74218-3.14453 1.89453v16.28906h-3.67188v-21.81641h3.67188v2.42188q1.71875-1.42578 3.55468-2.22656 1.83594-.80078 3.76953-.80078 3.53516 0 5.39063 2.1289 1.85547 2.12891 1.85547 6.13281z"/><path d="M288.25256 585.45178q0 5.54688-2.51953 8.14453-2.51953 2.59766-7.7539 2.59766-1.73829 0-3.39844-.25391-1.64063-.23437-3.24219-.68359v-3.75h.19531q.89844.35156 2.85157.85937 1.95312.52735 3.90625.52735 1.875 0 3.10546-.44922 1.23047-.44922 1.91407-1.25.68359-.76172.97656-1.83594.29297-1.07422.29297-2.40234v-1.99219q-1.66016 1.32813-3.1836 1.99219-1.5039.64453-3.84765.64453-3.90625 0-6.21094-2.8125-2.28516-2.83203-2.28516-7.96875 0-2.8125.78125-4.84375.80079-2.05078 2.16797-3.53516 1.26953-1.38672 3.08594-2.14843 1.81641-.78125 3.61328-.78125 1.89453 0 3.16406.39062 1.28907.37109 2.71485 1.15234l.23437-.9375h3.4375zm-3.67187-3.51562v-11.89453q-1.46485-.66407-2.73438-.9375-1.25-.29297-2.5-.29297-3.02734 0-4.76562 2.03125t-1.73828 5.89843q0 3.67188 1.28906 5.56641 1.28906 1.89453 4.27734 1.89453 1.60157 0 3.20313-.60547 1.62109-.625 2.96875-1.66015z"/><path d="M313.74084 577.40491h-16.07421q0 2.01172.60546 3.51562.60547 1.48438 1.66016 2.44141 1.01563.9375 2.40234 1.40625 1.40625.46875 3.08594.46875 2.22656 0 4.47266-.87891 2.26562-.89844 3.22265-1.75781h.19532v4.00391q-1.85547.78125-3.78907 1.30859-1.93359.52734-4.0625.52734-5.42968 0-8.47656-2.92968-3.04687-2.94922-3.04687-8.35938 0-5.35156 2.91015-8.49609 2.92969-3.14453 7.69532-3.14453 4.41406 0 6.79687 2.57812 2.40234 2.57813 2.40234 7.32422zm-3.57421-2.8125q-.0195-2.89063-1.46485-4.47266-1.42578-1.58203-4.35547-1.58203-2.94922 0-4.70703 1.73828-1.73828 1.73828-1.97265 4.31641z"/><path d="M359.56116 587.93225h-3.86719v-25.05859l-8.08594 17.05078h-2.30469l-8.02734-17.05078v25.05859h-3.61328v-29.08203h5.27344l7.7539 16.19141 7.5-16.19141h5.3711z"/><path d="M385.34241 577.40491h-16.07422q0 2.01172.60547 3.51562.60547 1.48438 1.66015 2.44141 1.01563.9375 2.40235 1.40625 1.40625.46875 3.08593.46875 2.22657 0 4.47266-.87891 2.26563-.89844 3.22266-1.75781h.19531v4.00391q-1.85547.78125-3.78906 1.30859-1.9336.52734-4.0625.52734-5.42969 0-8.47657-2.92968-3.04687-2.94922-3.04687-8.35938 0-5.35156 2.91016-8.49609 2.92968-3.14453 7.69531-3.14453 4.41406 0 6.79687 2.57812 2.40235 2.57813 2.40235 7.32422zm-3.57422-2.8125q-.0195-2.89063-1.46485-4.47266-1.42578-1.58203-4.35546-1.58203-2.94922 0-4.70704 1.73828-1.73828 1.73828-1.97265 4.31641z"/><path d="M422.74475 587.93225h-3.67187v-12.42187q0-1.40625-.13672-2.71485-.11719-1.30859-.52735-2.08984-.44922-.83985-1.28906-1.26953-.83984-.42969-2.42187-.42969-1.54297 0-3.08594.78125-1.54297.76172-3.08594 1.95312.0586.44922.0977 1.05469.0391.58594.0391 1.17188v13.96484h-3.67188v-12.42187q0-1.44532-.13671-2.73438-.11719-1.30859-.52735-2.08984-.44922-.83985-1.28906-1.25-.83984-.42969-2.42188-.42969-1.5039 0-3.02734.74219-1.50391.74218-3.00781 1.89453v16.28906h-3.67188v-21.81641h3.67188v2.42188q1.71875-1.42578 3.41797-2.22656 1.71875-.80078 3.65234-.80078 2.22656 0 3.76953.9375 1.5625.9375 2.32422 2.59765 2.22656-1.875 4.0625-2.69531 1.83594-.83984 3.92578-.83984 3.59375 0 5.29297 2.1875 1.71875 2.16796 1.71875 6.07421z"/><path d="M449.01428 576.85803q0 2.73438-.78125 4.92188-.76172 2.1875-2.07031 3.67187-1.38672 1.54297-3.04688 2.32422-1.66015.76172-3.65234.76172-1.85547 0-3.24219-.44922-1.38672-.42969-2.73437-1.17187l-.23438 1.01562h-3.4375v-30.39062h3.67188V568.401q1.54297-1.26953 3.28125-2.07031 1.73828-.82031 3.90625-.82031 3.86719 0 6.09375 2.96875 2.24609 2.96875 2.24609 8.3789zm-3.78906.0977q0-3.90625-1.28906-5.91797-1.28907-2.03125-4.16016-2.03125-1.60156 0-3.24219.70312-1.64062.6836-3.04687 1.77735v12.5q1.5625.70312 2.67578.97656 1.13281.27344 2.55859.27344 3.04688 0 4.76563-1.99219 1.73828-2.01172 1.73828-6.28906z"/><path d="M468.35022 570.11975h-.19531q-.82032-.19531-1.60157-.27344-.76171-.0977-1.8164-.0977-1.69922 0-3.28125.76172-1.58203.74218-3.04688 1.93359v15.48828h-3.67187v-21.81641h3.67187v3.22266q2.1875-1.75781 3.84766-2.48047 1.67969-.74219 3.41797-.74219.95703 0 1.38672.0586.42968.0391 1.28906.17578z"/><path d="M488.05725 587.93225h-3.65234v-2.32422q-.48828.33203-1.32813.9375-.82031.58594-1.60156.9375-.91797.44922-2.10938.74219-1.1914.3125-2.79296.3125-2.94922 0-5-1.95313-2.05079-1.95312-2.05079-4.98046 0-2.48047 1.05469-4.00391 1.07422-1.54297 3.04688-2.42188 1.99218-.8789 4.78515-1.1914 2.79297-.3125 5.9961-.46875v-.56641q0-1.25-.44922-2.07031-.42969-.82031-1.25-1.28906-.78125-.44922-1.875-.60547-1.09375-.15625-2.28516-.15625-1.44531 0-3.22265.39062-1.77735.3711-3.67188 1.09375h-.19531v-3.73047q1.07422-.29296 3.10547-.64453 2.03125-.35156 4.0039-.35156 2.30469 0 4.00391.39063 1.71875.37109 2.96875 1.28906 1.23047.89844 1.875 2.32422t.64453 3.53515zm-3.65234-5.37109v-6.07422q-1.67969.0977-3.96485.29297-2.26562.19531-3.59375.5664-1.58203.44922-2.55859 1.40625-.97656.9375-.97656 2.59766 0 1.875 1.13281 2.83203 1.13281.9375 3.45703.9375 1.93359 0 3.53516-.74219 1.60156-.76172 2.96875-1.8164z"/><path d="M513.36975 587.93225h-3.67187v-12.42187q0-1.50391-.17579-2.8125-.17578-1.32813-.64453-2.07032-.48828-.82031-1.40625-1.21093-.91797-.41016-2.38281-.41016-1.50391 0-3.14453.74219-1.64063.74218-3.14453 1.89453v16.28906h-3.67188v-21.81641h3.67188v2.42188q1.71875-1.42578 3.55469-2.22656 1.83593-.80078 3.76953-.80078 3.53515 0 5.39062 2.1289 1.85547 2.12891 1.85547 6.13281z"/><path d="M538.70178 577.40491h-16.07422q0 2.01172.60547 3.51562.60547 1.48438 1.66016 2.44141 1.01562.9375 2.40234 1.40625 1.40625.46875 3.08594.46875 2.22656 0 4.47266-.87891 2.26562-.89844 3.22265-1.75781h.19531v4.00391q-1.85546.78125-3.78906 1.30859-1.93359.52734-4.0625.52734-5.42969 0-8.47656-2.92968-3.04688-2.94922-3.04688-8.35938 0-5.35156 2.91016-8.49609 2.92969-3.14453 7.69531-3.14453 4.41407 0 6.79688 2.57812 2.40234 2.57813 2.40234 7.32422zm-3.57422-2.8125q-.0195-2.89063-1.46484-4.47266-1.42578-1.58203-4.35547-1.58203-2.94922 0-4.70703 1.73828-1.73828 1.73828-1.97266 4.31641z"/><path d="M118.8385 612.28772h-14.70703v8.20312h12.63672v3.4375h-12.63672v14.00391h-3.86719v-29.08203h18.57422z"/><path d="M141.04553 637.93225h-3.67187v-2.42187q-1.85547 1.46484-3.55469 2.24609-1.69922.78125-3.75.78125-3.4375 0-5.35156-2.08984-1.91407-2.10938-1.91407-6.17188v-14.16016h3.67188v12.42188q0 1.66016.15625 2.85156.15625 1.17188.66406 2.01172.52735.85938 1.36719 1.25.83984.39063 2.44141.39063 1.42578 0 3.10546-.74219 1.69922-.74219 3.16407-1.89453v-16.28907h3.67187z"/><path d="M166.53381 627.40491h-16.07422q0 2.01172.60547 3.51562.60547 1.48438 1.66016 2.44141 1.01562.9375 2.40234 1.40625 1.40625.46875 3.08594.46875 2.22656 0 4.47266-.87891 2.26562-.89844 3.22265-1.75781h.19532v4.00391q-1.85547.78125-3.78907 1.30859-1.93359.52734-4.0625.52734-5.42968 0-8.47656-2.92968-3.04687-2.94922-3.04687-8.35938 0-5.35156 2.91015-8.49609 2.92969-3.14453 7.69531-3.14453 4.41407 0 6.79688 2.57812 2.40234 2.57813 2.40234 7.32422zm-3.57422-2.8125q-.0195-2.89063-1.46484-4.47266-1.42578-1.58203-4.35547-1.58203-2.94922 0-4.70703 1.73828-1.73828 1.73828-1.97266 4.31641z"/><path d="M175.81116 637.93225h-3.67188v-30.39062h3.67188z"/><path d="M219.89319 635.82288q-1.07422.46875-1.95313.8789-.85937.41016-2.26562.85938-1.19141.37109-2.59766.625-1.38672.27343-3.0664.27343-3.16407 0-5.76172-.8789-2.57813-.89844-4.49219-2.79297-1.875-1.85547-2.92969-4.70703-1.05469-2.8711-1.05469-6.66016 0-3.59375 1.01563-6.42578 1.01562-2.83203 2.92969-4.78516 1.85547-1.89453 4.47265-2.89062 2.63672-.99609 5.83985-.99609 2.34375 0 4.66797.5664 2.34375.56641 5.19531 1.99219v4.58984h-.29297q-2.40234-2.01172-4.76563-2.92968-2.36328-.91797-5.05859-.91797-2.20703 0-3.98437.72265-1.75782.70313-3.14454 2.20703-1.34765 1.46485-2.10937 3.71094-.74219 2.22656-.74219 5.15625 0 3.06641.82031 5.27344.83985 2.20703 2.14844 3.59375 1.36719 1.44531 3.1836 2.14844 1.83593.68359 3.86718.68359 2.79297 0 5.23438-.95703 2.4414-.95703 4.57031-2.87109h.27344z"/><path d="M243.33069 627.40491h-16.07422q0 2.01172.60547 3.51562.60547 1.48438 1.66015 2.44141 1.01563.9375 2.40235 1.40625 1.40625.46875 3.08594.46875 2.22656 0 4.47265-.87891 2.26563-.89844 3.22266-1.75781h.19531v4.00391q-1.85547.78125-3.78906 1.30859-1.9336.52734-4.0625.52734-5.42969 0-8.47656-2.92968-3.04688-2.94922-3.04688-8.35938 0-5.35156 2.91016-8.49609 2.92968-3.14453 7.69531-3.14453 4.41406 0 6.79687 2.57812 2.40235 2.57813 2.40235 7.32422zm-3.57422-2.8125q-.0195-2.89063-1.46484-4.47266-1.42579-1.58203-4.35547-1.58203-2.94922 0-4.70703 1.73828-1.73829 1.73828-1.97266 4.31641z"/><path d="M252.60803 637.93225h-3.67187v-30.39062h3.67187z"/><path d="M263.58459 637.93225h-3.67187v-30.39062h3.67187z"/><path d="M309.776 623.42053q0 3.96485-1.73828 7.1875-1.71875 3.22266-4.58984 5-1.99219 1.23047-4.45313 1.77735-2.44141.54687-6.44531.54687h-7.34375v-29.08203h7.26562q4.25782 0 6.75782.625 2.51953.60547 4.25781 1.67969 2.96875 1.85547 4.6289 4.9414 1.66016 3.08594 1.66016 7.32422zm-4.04297-.0586q0-3.41797-1.1914-5.76172-1.19141-2.34375-3.55469-3.69141-1.71875-.97656-3.65235-1.34765-1.93359-.39063-4.6289-.39063h-3.63281v22.44141h3.63281q2.79297 0 4.86328-.41016 2.08984-.41015 3.82812-1.52344 2.16797-1.38671 3.24219-3.65234 1.09375-2.26562 1.09375-5.66406z"/><path d="M332.68616 637.93225h-3.65235v-2.32422q-.48828.33203-1.32812.9375-.82031.58594-1.60156.9375-.91797.44922-2.10938.74219-1.19141.3125-2.79297.3125-2.94922 0-5-1.95313-2.05078-1.95312-2.05078-4.98046 0-2.48047 1.05469-4.00391 1.07422-1.54297 3.04687-2.42188 1.99219-.8789 4.78516-1.1914 2.79297-.3125 5.99609-.46875v-.56641q0-1.25-.44922-2.07031-.42968-.82031-1.25-1.28906-.78125-.44922-1.875-.60547-1.09375-.15625-2.28515-.15625-1.44531 0-3.22266.39062-1.77734.3711-3.67187 1.09375h-.19532v-3.73047q1.07422-.29296 3.10547-.64453 2.03125-.35156 4.00391-.35156 2.30469 0 4.00391.39063 1.71875.37109 2.96875 1.28906 1.23046.89844 1.875 2.32422.64453 1.42578.64453 3.53515zm-3.65235-5.37109v-6.07422q-1.67968.0977-3.96484.29297-2.26563.19531-3.59375.5664-1.58203.44922-2.55859 1.40625-.97657.9375-.97657 2.59766 0 1.875 1.13282 2.83203 1.13281.9375 3.45703.9375 1.93359 0 3.53515-.74219 1.60157-.76172 2.96875-1.8164z"/><path d="M351.08459 637.73694q-1.03515.27344-2.26562.44922-1.21094.17578-2.16797.17578-3.33984 0-5.07812-1.79688-1.73829-1.79687-1.73829-5.76172v-11.60156h-2.48046v-3.08594h2.48046v-6.26953h3.67188v6.26953h7.57812v3.08594h-7.57812v9.94141q0 1.71875.0781 2.69531.0781.95703.54688 1.79688.42969.78125 1.17187 1.15234.76172.35156 2.30469.35156.89844 0 1.875-.2539.97656-.27344 1.40625-.44922h.19531z"/><path d="M372.47131 637.93225h-3.65234v-2.32422q-.48828.33203-1.32813.9375-.82031.58594-1.60156.9375-.91797.44922-2.10937.74219-1.19141.3125-2.79297.3125-2.94922 0-5-1.95313-2.05078-1.95312-2.05078-4.98046 0-2.48047 1.05468-4.00391 1.07422-1.54297 3.04688-2.42188 1.99219-.8789 4.78516-1.1914 2.79296-.3125 5.99609-.46875v-.56641q0-1.25-.44922-2.07031-.42969-.82031-1.25-1.28906-.78125-.44922-1.875-.60547-1.09375-.15625-2.28516-.15625-1.44531 0-3.22265.39062-1.77735.3711-3.67188 1.09375h-.19531v-3.73047q1.07422-.29296 3.10547-.64453 2.03125-.35156 4.00391-.35156 2.30468 0 4.0039.39063 1.71875.37109 2.96875 1.28906 1.23047.89844 1.875 2.32422t.64453 3.53515zm-3.65234-5.37109v-6.07422q-1.67969.0977-3.96484.29297-2.26563.19531-3.59375.5664-1.58204.44922-2.5586 1.40625-.97656.9375-.97656 2.59766 0 1.875 1.13281 2.83203 1.13281.9375 3.45703.9375 1.9336 0 3.53516-.74219 1.60156-.76172 2.96875-1.8164z"/><path d="M395.12756 631.64319q0 2.98828-2.48047 4.90234-2.46093 1.91406-6.73828 1.91406-2.42187 0-4.45312-.5664-2.01172-.58594-3.37891-1.26953v-4.1211h.19531q1.73829 1.3086 3.86719 2.08985 2.12891.76172 4.08203.76172 2.42188 0 3.78907-.78125 1.36718-.78125 1.36718-2.46094 0-1.28906-.74218-1.95313-.74219-.66406-2.85157-1.13281-.78125-.17578-2.05078-.41016-1.25-.23437-2.28515-.50781-2.8711-.76172-4.08204-2.22656-1.1914-1.48438-1.1914-3.63281 0-1.34766.54687-2.53907.56641-1.1914 1.69922-2.1289 1.09375-.91797 2.77344-1.44531 1.69922-.54688 3.78906-.54688 1.95313 0 3.94531.48828 2.01172.46875 3.33985 1.15235v3.92578h-.19531q-1.40625-1.03516-3.41797-1.73828-2.01172-.72266-3.94532-.72266-2.01171 0-3.39843.78125-1.38672.76172-1.38672 2.28516 0 1.34765.83984 2.03125.82031.68359 2.65625 1.11328 1.01563.23437 2.26563.46875 1.26953.23437 2.10937.42968 2.5586.58594 3.94531 2.01172 1.38672 1.44532 1.38672 3.82813z"/><path d="M418.64319 627.40491h-16.07422q0 2.01172.60547 3.51562.60547 1.48438 1.66015 2.44141 1.01563.9375 2.40235 1.40625 1.40625.46875 3.08594.46875 2.22656 0 4.47265-.87891 2.26563-.89844 3.22266-1.75781h.19531v4.00391q-1.85547.78125-3.78906 1.30859-1.9336.52734-4.0625.52734-5.42969 0-8.47656-2.92968-3.04688-2.94922-3.04688-8.35938 0-5.35156 2.91016-8.49609 2.92968-3.14453 7.69531-3.14453 4.41406 0 6.79687 2.57812 2.40235 2.57813 2.40235 7.32422zm-3.57422-2.8125q-.0195-2.89063-1.46484-4.47266-1.42579-1.58203-4.35547-1.58203-2.94922 0-4.70703 1.73828-1.73829 1.73828-1.97266 4.31641z"/><path d="M435.53772 637.73694q-1.03516.27344-2.26563.44922-1.21093.17578-2.16796.17578-3.33985 0-5.07813-1.79688-1.73828-1.79687-1.73828-5.76172v-11.60156h-2.48047v-3.08594h2.48047v-6.26953h3.67187v6.26953h7.57813v3.08594h-7.57813v9.94141q0 1.71875.0781 2.69531.0781.95703.54687 1.79688.42969.78125 1.17188 1.15234.76172.35156 2.30469.35156.89843 0 1.875-.2539.97656-.27344 1.40625-.44922h.19531z"/><g><path fill="#d2d2d2" d="M240.37267 510.02126c-37.25101-9.76634-50.05365-40.82415-34.96183-84.81364 1.83175-5.33919 4.47622-12.26642 5.87658-15.39385l2.54612-5.68623-31.16677-.31377L151.5 403.5l-5.51042-2.75014c-7.48954-3.73787-13.41204-9.75379-16.99674-17.26486C126.38943 378.03004 126 376.09854 126 368.64096c0-5.75582.54053-9.81658 1.64487-12.35703 1.95557-4.49871 5.14455-12.12979 7.43176-17.78393.44498-1.1 5.10977-12.35372 10.36621-25.00828C150.69928 300.83717 155 290.07261 155 289.57046c0-.50214.58188-1.62341 1.29306-2.49172.71118-.86831 1.88233-3.37874 2.60255-5.57874.72022-2.2 2.38834-6.33463 3.70694-9.18807 1.3186-2.85345 2.39745-5.86439 2.39745-6.69099s.37895-1.73711.84211-2.02336c.46316-.28625 2.55791-4.9253 4.65499-10.30901 2.09709-5.38372 4.19314-10.21607 4.6579-10.73857.46475-.5225.845-1.56287.845-2.31193 0-.74905 1.14876-3.92155 2.5528-7.05 3.10338-6.91489 4.77155-10.736 6.41228-14.68807.68501-1.65 1.82387-4.35 2.5308-6 1.03168-2.40799 7.19219-17.43524 18.44801-45 6.24621-15.29656 6.55611-17.94724 6.55611-56.07701v-34.077l-2.95931-3.923c-1.62762-2.15764-3.51971-4.37299-4.20465-4.92299-4.60124-3.69478-7.96696-21.36196-4.94751-25.97022L202.04611 40h110.84048l1.55671 2.2225c3.66802 5.23684.66406 19.7677-5.59902 27.08382-5.97904 6.9843-5.77062 5.42736-5.80884 43.39489-.0284 28.21308.26363 36.35238 1.47107 41 1.5831 6.09355 7.49221 21.80877 10.01314 26.62983.81419 1.55707 1.48035 3.27244 1.48035 3.81192 0 1.00459 3.92335 10.11651 6.53958 15.18808.80323 1.55707 1.46042 3.27244 1.46042 3.81192 0 .53949 1.06217 3.31552 2.36037 6.16897 1.2982 2.85344 6.05183 14.18807 10.5636 25.18807 7.92398 19.31915 8.81673 21.48507 11.54111 28 .68999 1.65 1.81499 4.35 2.5 6 .68501 1.65 1.81001 4.35 2.5 6 .68999 1.65 1.81499 4.35 2.5 6 2.23011 5.37169 3.73421 8.95278 4.83015 11.5.59159 1.375 5.41885 13.075 10.72724 26 12.80465 31.17709 13.91916 33.81116 16.17915 38.23854.88192 1.72769 1.41387 6.09803 1.44116 11.83992.039 8.20707-.26181 9.72102-3.06127 15.40754-3.73687 7.59065-9.62969 13.55002-17.07109 17.26386L363.5 403.5l-64 .5-64 .5-5.14081 10.27645c-12.25947 24.50663-15.52286 46.19302-8.96744 59.59181 7.84869 16.04215 27.3814 21.532 60.95239 17.13123 80.33813-10.53141 147.91147-69.73045 168.60327-147.70844 4.31911-16.27677 6.07008-28.19285 6.72862-45.79105 1.27273-34.01165-5.47992-65.17669-20.7843-95.92428-16.64528-33.44157-40.67061-60.40895-71.64607-80.41959l-9.25435-5.97845-7.08225-13.41891c-3.89524-7.3804-6.83843-13.66273-6.54043-13.96074 1.01885-1.01884 23.9826 11.1161 35.5649 18.79389C439.86556 148.14601 477 217.0181 477 290.82745c0 48.91088-14.90195 93.68082-44.32731 133.17255-9.70857 13.02986-31.87754 35.06467-45.05866 44.78597-37.57729 27.71391-83.38223 43.259-127.11403 43.13945-9.39034-.0257-14.97902-.5544-20.12733-1.90416zm117.43451-121.16219c2.58105-.62752 5.40325-1.75252 6.27156-2.5.86831-.74749 1.91295-1.35907 2.32143-1.35907 1.06312 0 3.59983-2.68208 3.59983-3.80613 0-.52194.63546-1.47637 1.41214-2.12095.77668-.64459 1.94236-3.38217 2.5904-6.08352 1.44953-6.04231 1.37408-6.30567-9.16476-31.9894-4.40081-10.725-8.46201-20.625-9.0249-22-.56289-1.375-1.58797-3.85-2.27796-5.5-.68999-1.65-1.81499-4.35-2.5-6-2.31012-5.56443-3.75846-8.98353-5.29501-12.5-.84114-1.925-2.08982-4.85-2.77483-6.5-.68501-1.65-1.81001-4.35-2.5-6-1.54558-3.69603-1.47594-3.5259-11.46147-28-4.48804-11-8.77145-21.125-9.5187-22.5l-1.35863-2.5-60.40153-.25768-60.40153-.25769-1.83166 3.75769c-1.00741 2.06672-2.82604 5.78268-4.04139 8.25768-1.21535 2.475-2.7671 6.3-3.44833 8.5-1.07796 3.4812-2.84424 7.83858-8.51244 21-.7106 1.65-3.63198 8.85-6.49194 16-2.85997 7.15-5.77457 14.125-6.47688 15.5-.70232 1.375-1.83216 3.85-2.51076 5.5-.6786 1.65-2.30589 5.25-3.61619 8-2.5348 5.31991-12.39664 30.35508-15.53874 39.44651-1.03531 2.99558-2.56157 6.48308-3.39169 7.75-.99528 1.51898-1.11918 2.30349-.36381 2.30349.8557 0 .85828.34608.0102 1.36797-.84883 1.02277-.82699 2.70369.0866 6.66138 1.60123 6.93691 8.45004 14.12924 14.93415 15.68322 6.40937 1.53607 195.39675 1.67335 201.6769.1465zm-158.32241-23.90706c-.83562-2.63282 1.10219-4.95201 4.13767-4.95201 2.33657 0 2.37756-.1638 2.37756-9.5V341h-2.93261c-3.343 0-5.04441-3.11783-3.02756-5.54799 1.47872-1.78175 10.04683-1.96535 11.76017-.25201.79694.79694 1.2 5.1401 1.2 12.93045 0 11.2338.0909 11.74398 2.14787 12.05 2.6262.39071 4.39098 2.97294 3.54266 5.18363-.51659 1.34621-2.21524 1.63592-9.59176 1.63592-8.15575 0-9.0226-.18466-9.614-2.04799zm34.16125-.40426C231.08184 362.17134 231 361.74176 231 350.65853c0-9.42768.30924-11.81886 1.76022-13.61074 2.19321-2.70851 8.69695-3.71208 13.59039-2.09709 4.44273 1.46623 4.9742 3.64439 4.49311 18.41436-.40424 12.41033-1.19696 13.55173-9.4477 13.60314-4.05884.0253-5.6458-.47035-7.75-2.42045zM245 350.5V341h-7v19h7zm18.48477 14.45201c-.78138-2.46192 1.0478-4.95201 3.63767-4.95201 1.70499 0 1.87756-.87318 1.87756-9.5 0-9.44721-.0138-9.5-2.48095-9.5-1.83959 0-2.65012-.67403-3.13535-2.60733-.80236-3.19689.7297-4.35626 5.78451-4.37736 6.88404-.0287 6.83179-.13269 6.83179 13.59168C276 359.98934 276.002 360 278.37756 360c3.03548 0 4.97329 2.31919 4.13767 4.95201C281.92454 366.81311 281.05621 367 273 367s-8.92454-.18689-9.51523-2.04799zm33.76523.37357c-2.1345-1.48896-2.25-2.22692-2.25-14.37612 0-10.30384.30681-13.11341 1.56993-14.37653 2.21735-2.21736 5.74269-2.9031 10.92747-2.12559 6.66969 1.00018 7.5026 2.80128 7.5026 16.22364 0 10.41704-.1704 11.40984-2.36467 13.7775-1.98756 2.14461-3.2235 2.54316-7.75 2.49907-3.19264-.0311-6.30144-.6915-7.63533-1.62197zM308 350.5V341h-7v19h7zm-107.92967-23.91526c-2.12329-2.5584-.8811-5.05312 2.68786-5.3981L206 320.87328v-19.74656l-3.24181-.31336c-3.5495-.3431-4.81374-2.83658-2.71832-5.3614 1.47868-1.7817 10.04682-1.96527 11.76013-.25196.80325.80325 1.2 5.26667 1.2 13.5V321h3.06336c2.85371 0 3.04191.22242 2.75 3.25L218.5 327.5l-8.59709.2867c-6.6543.22192-8.8763-.0497-9.83258-1.20196zm34.74631-.30253c-1.47586-.91552-2.93221-2.59105-3.23635-3.7234-.72036-2.68198-.71681-20.44872.005-23.13529 1.45126-5.40442 12.57744-7.35208 16.96054-2.96897C250.88084 298.78993 251 299.49607 251 311s-.11916 12.21007-2.45455 14.54545c-2.96269 2.9627-9.569 3.31722-13.72881.73676zM245 311v-10h-7v20h7zm20.45455 14.54545C263.11916 323.21007 263 322.50393 263 311s.11916-12.21007 2.45455-14.54545c4.3831-4.38311 15.50928-2.43545 16.96054 2.96897.72387 2.69567.72387 20.45729 0 23.15296-1.45126 5.40442-12.57744 7.35208-16.96054 2.96897zM276 311v-10h-7v20h7zm19.66667 16.33333c-.36667-.36666-.66667-1.94166-.66667-3.5 0-2.48148.37255-2.83333 3-2.83333h3v-20h-3.06336c-2.85371 0-3.04191-.22242-2.75-3.25.30127-3.12463.49959-3.26188 5.14105-3.55796 7.35036-.46889 7.67231.13398 7.67231 14.36705v12.31419l3.24181.31336c2.17184.20993 3.35428.90681 3.58258 2.1114.69002 3.64087-1.6299 4.70196-10.28017 4.70196-4.51599 0-8.51089-.3-8.87755-.66667zm-91.40787-40.03791c-4.27289-.82403-5.2588-3.836-5.2588-16.06568 0-10.96241.0848-11.4038 2.64602-13.77749 3.20556-2.97081 10.96684-3.40724 14.88916-.83724 2.406 1.57647 2.46445 1.91653 2.44951 14.25-.008 6.94924-.35508 13.16934-.77035 13.82243-1.68282 2.64653-7.81416 3.79235-13.95554 2.60798zM213 271.5V262h-7v19h7zm19.03983 15.04799c-2.01685-2.43016-.31544-5.54799 3.02756-5.54799H238v-9.5c0-9.3362-.041-9.5-2.37756-9.5-3.03548 0-4.97329-2.31919-4.13767-4.95201.54598-1.72025 1.48739-2.04799 5.88262-2.04799 2.87793 0 5.77261.54 6.43261 1.2.79774.79774 1.2 5.15556 1.2 13V281h2.48095c1.83959 0 2.65012.67403 3.13535 2.60733.90901 3.6218-.73257 4.35927-9.74386 4.37736-5.46293.011-7.96953-.39676-8.83261-1.4367zm32.07482.54403c-.91707-.58079-1.16414-1.75869-.73095-3.48469.48523-1.9333 1.29576-2.60733 3.13535-2.60733 2.46716 0 2.48095-.0528 2.48095-9.5 0-8.62682-.17257-9.5-1.87756-9.5-2.61036 0-4.41772-2.49429-3.62261-4.99946.58818-1.85318 1.32027-2.06104 6.33262-1.79798L275.5 255.5l.27988 12.75.27987 12.75h2.90274c3.31377 0 5.00476 3.12961 2.99768 5.54799-1.3626 1.64183-15.43469 2.07083-17.84552.54403zm34.38535-.22267c-3.27945-1.96508-3.46873-2.8344-3.48469-16.00434-.0149-12.33347.0435-12.67353 2.44951-14.25 3.92232-2.57 11.6836-2.13357 14.88916.83724C314.91816 259.82866 315 260.25824 315 271.34147c0 14.1058-.77994 15.51317-9 16.23999-3.35247.29643-6.28092.0184-7.5-.71211zM308 271.5V262h-7v19h7zm3.37196-59.25c-.3109-.9625-1.20897-3.20593-1.99572-4.9854-.78675-1.77947-2.07666-4.70447-2.86647-6.5-.7898-1.79553-3.51537-8.4396-6.05681-14.7646C287.2838 153.22532 287 151.64019 287 110.86094c0-26.71364.25663-32.5058 1.59902-36.0907C290.87547 68.69092 293.32688 64 294.2274 64c.42493 0 .7726-.42954.7726-.95455 0-.525 1.125-2.07954 2.5-3.45454s2.5-3.42046 2.5-4.54546C300 53.01693 299.64815 53 257.5 53s-42.5.01693-42.5 2.04545c0 1.125 1.125 3.17046 2.5 4.54546 1.375 1.375 2.5 2.92954 2.5 3.45454 0 .525.37698.95455.83774.95455.46075 0 2.14825 2.5875 3.75 5.75L227.5 75.5l.28856 33.9566c.19683 23.16258-.0799 35.55978-.87062 39-.63755 2.77387-1.50984 6.8434-1.93844 9.0434-.77353 3.97064-3.92247 13.24533-6.45085 19-.72495 1.65-1.81547 4.2375-2.42337 5.75-.6079 1.5125-1.53293 3.7625-2.05562 5-.52268 1.2375-2.51127 6.075-4.41908 10.75s-4.18619 10.1875-5.06308 12.25l-1.59434 3.75h54.48204c51.43632 0 54.45043-.0978 53.91676-1.75zM90.53384 483.24806c-1.63139-2.61143-4.91257-7.78073-7.2915-11.48733l-4.32535-6.73926-6.43399 4.06343c-3.5387 2.23488-6.88819 3.78271-7.44333 3.43962-2.21015-1.36595-9.04088-14.37287-10.49514-19.98462-3.81468-14.72024-.41743-30.49897 9.0918-42.22742l3.39517-4.18752-5.48345-9.81248c-6.21922-11.1291-14.21094-30.5299-18.00914-43.71925C37.6175 332.03104 35 313.07417 35 290.75141c0-84.60127 48.85028-162.02628 125.5-198.9106 5.5-2.64663 10.30928-4.81853 10.68728-4.82644.37801-.0079-.6225 2.87432-2.22336 6.40494-1.60086 3.53061-3.67098 9.15405-4.60027 12.49652-1.60438 5.77064-1.97147 6.23558-7.27663 9.21624C91.58425 151.93423 51.82934 222.46357 54.29262 297.5c.8238 25.09499 5.15664 45.97334 14.22728 68.55609 3.80138 9.46411 10.75106 23.45475 14.21186 28.61036.59075.88005 2.12372.81867 6.24355-.25 14.50698-3.76306 31.54253.57833 42.75611 10.89611 5.37153 4.94242 13.58301 16.77301 12.43723 17.91879-.43988.43988-4.24574 2.97576-8.45747 5.6353l-7.6577 4.83552 6.95105 10.89892c3.82307 5.9944 6.95875 11.34891 6.96818 11.89891.0251 1.466-15.16669 10.78981-15.87307 9.74192-.3298-.48925-3.25921-5.13132-6.5098-10.31573-3.25058-5.1844-6.40058-9.94522-7-10.57959-.81238-.85975-3.18234.18598-9.309 4.10755l-8.21916 5.26093 6.94694 10.89246c3.82082 5.99085 6.95694 11.35143 6.96916 11.9124.017.77835-11.65268 8.77892-14.91873 10.22812-.30748.13643-1.89382-1.88857-3.52521-4.5zm3.2534-50.37017c11.39201-7.21716 21.28854-13.65902 21.99228-14.31524 1.01512-.94657.20386-1.69625-3.92587-3.62789-7.47519-3.49644-17.3983-3.36826-24.4915.31637C77.7163 420.26175 72 429.72322 72 440.67814c0 2.92702.24175 5.32186.53723 5.32186.29548 0 9.85798-5.90495 21.25-13.12211zM176 106.5c0-.275.225-.5.5-.5s.5.225.5.5-.225.5-.5.5-.5-.225-.5-.5z"/><path fill="#9f9f9f" d="M241 509.94163c-21.63101-5.61902-36.54134-19.84551-40.53072-38.67182-1.85337-8.74625-1.83552-15.90766.0668-26.81658 1.75312-10.05315 7.02763-26.68542 10.8626-34.25337 1.4307-2.82335 2.60128-5.3444 2.60128-5.60231 0-.25792-14.0625-.61038-31.25-.78325L151.5 403.5l-6.25-3.2644c-3.4375-1.79541-6.25-3.63187-6.25-4.08102 0-.44914-1.125-1.4187-2.5-2.15458-1.375-.73588-2.5-1.93692-2.5-2.66898 0-.73206-.37844-1.33102-.84098-1.33102-.46254 0-2.26254-2.91553-4-6.47896C126.37889 377.81916 126 376.035 126 368.64547c0-6.87464.47193-9.46141 2.6036-14.27104 1.43199-3.23094 4.40523-10.37443 6.60721-15.87443 3.91566-9.78037 5.6248-13.93729 8.22309-20 .70714-1.65 1.84617-4.35 2.53118-6 .68501-1.65 1.81001-4.35 2.5-6 .68999-1.65 1.81499-4.35 2.5-6 .68501-1.65 1.8731-4.4625 2.6402-6.25l2.78944-6.5c.7671-1.7875 1.84955-4.375 2.40545-5.75.55589-1.375 4.69582-11.5 9.19983-22.5s8.64394-21.125 9.19983-22.5c.5559-1.375 1.63835-3.9625 2.40545-5.75l2.78944-6.5c.7671-1.7875 1.95519-4.6 2.6402-6.25.68501-1.65 1.81001-4.35 2.5-6 .68999-1.65 1.7519-4.2375 2.3598-5.75.6079-1.5125 1.53895-3.7625 2.069-5 2.77858-6.48714 13.60716-32.92476 15.25722-37.25 5.10397-13.37881 5.16103-13.94153 5.22171-51.5.0545-33.7213-.0416-35.65031-1.91729-38.5-1.08605-1.65-2.97153-3.9-4.18994-5C202.54156 66.07486 200 58.59364 200 50.85135 200 38.8164 193.72714 40 257.5095 40h55.43914l1.6485 3.18785c3.05739 5.91233-.42002 21.33537-5.93256 26.31215-6.10299 5.50985-6.13824 5.70041-6.4739 35-.37825 33.01692.92852 48.82616 4.7942 58 .69528 1.65 1.62937 3.9 2.07576 5 3.78843 9.3355 15.31755 37.51871 16.15856 39.5 1.19244 2.80919 2.96255 7.03623 4.81572 11.5 1.64073 3.95207 3.3089 7.77318 6.41228 14.68807 1.40404 3.12845 2.5528 6.30095 2.5528 7.05 0 .74906.37562 1.78943.83472 2.31193.45909.5225 1.65147 3.2 2.64974 5.95.99826 2.75 3.03205 7.7 4.51953 11 1.48748 3.3 4.41067 10.275 6.49598 15.5 2.08531 5.225 4.81018 11.75 6.05526 14.5 1.24508 2.75 3.03769 7.025 3.98358 9.5.94589 2.475 2.78661 6.83463 4.0905 9.68807 1.30388 2.85345 2.37069 5.86439 2.37069 6.69099s.37895 1.73711.84211 2.02336c.46316.28625 2.55791 4.9253 4.65499 10.30901 2.09709 5.38372 4.19314 10.21607 4.6579 10.73857.46475.5225.845 1.56287.845 2.31193 0 .74905 1.15319 3.92155 2.56264 7.05 1.40945 3.12844 3.20945 7.16584 4 8.972.88267 2.01664 1.43736 6.59232 1.43736 11.85703 0 7.49403-.38403 9.37777-3.05108 14.96607-1.6781 3.51613-3.4781 6.39297-4 6.39297-.52191 0-.94892.47158-.94892 1.04797 0 1.70683-5.07811 5.78288-11.5 9.23071l-6 3.22132-64.16753.5c-35.29214.275-64.37631.725-64.63148 1-1.34401 1.44844-6.90325 13.70688-10.10603 22.28437-9.66836 25.89322-8.65959 45.42761 2.86862 55.54951 8.41108 7.38502 17.97292 10.27729 33.7611 10.21204 49.02692-.2026 99.59358-21.50372 135.93-57.2603 69.72594-68.61329 80.95999-176.30556 26.79475-256.86083-15.66063-23.29069-38.35162-45.16188-61.48864-59.26711-5.89042-3.59103-6.21947-4.02779-13.35554-17.72723l-7.31632-14.04548 3.85553 1.60725c14.87774 6.20208 36.60041 19.75528 51.06927 31.86312C459.40348 173.81541 488.26255 253.97068 472.91418 333c-18.30036 94.22928-95.65392 166.1543-190.90805 177.51048-17.23631 2.05491-31.67684 1.85459-41.00613-.56885zM360.32186 388.406c2.57298-.8767 4.67814-2.0017 4.67814-2.5 0-.4983.48214-.906 1.07143-.906 1.38448 0 3.92857-2.54409 3.92857-3.92857 0-.58929.4077-1.07143.906-1.07143 1.05643 0 4.094-8.42651 4.094-11.35714 0-2.5121-1.67101-7.63632-4.67332-14.33093-1.27967-2.85345-2.32668-5.62948-2.32668-6.16897 0-.53948-.63337-2.25485-1.4075-3.81192-.77412-1.55707-1.89912-4.06854-2.5-5.58104-2.09255-5.26728-2.92465-7.27832-4.86177-11.75-1.07216-2.475-4.3232-10.35-7.22452-17.5-2.90133-7.15-5.80049-13.9-6.44259-15-.6421-1.1-1.78655-4.025-2.54322-6.5-.75667-2.475-1.87769-5.175-2.49114-6-.61346-.825-1.70465-3.3-2.42487-5.5-.72022-2.2-2.3475-6.25-3.61617-9-1.26867-2.75-4.19576-9.725-6.50465-15.5-5.33836-13.35235-6.75935-16.73559-8.71514-20.75l-1.58337-3.25H197.45481l-1.62156 3.25c-3.10504 6.22326-6.10873 13.28576-7.9744 18.75-1.03283 3.025-3.73413 9.775-6.00288 15-4.7066 10.83943-4.73099 10.89843-8.6836 21-1.61406 4.125-4.56314 10.96669-6.55351 15.20376C164.62849 305.44083 163 309.35261 163 309.8966c0 .54399-.86911 2.4773-1.93136 4.29624-1.06224 1.81894-3.09155 6.45716-4.50957 10.30716-1.41801 3.85-2.98414 7.9-3.48027 9-1.55646 3.45087-7.83886 19.88223-8.6027 22.5-.40121 1.375-1.43884 3.85-2.30585 5.5-.86701 1.65-1.73786 4.26252-1.93521 5.8056-.41046 3.20923 2.46275 12.6944 3.84533 12.6944.5058 0 .91963.48214.91963 1.07143 0 1.38448 2.54409 3.92857 3.92857 3.92857.58929 0 1.07143.43638 1.07143.96974 0 .53336 2.1375 1.62701 4.75 2.43035 4.02111 1.23648 19.79917 1.47129 102.82186 1.53026 87.24206.062 98.58846-.10637 102.75-1.52435zm-160.87702-23.5798c-.76638-2.41465 1.60524-4.8262 4.74629-4.8262 1.61822 0 1.80887-1.00126 1.80887-9.5V341h-2.93261c-3.72057 0-5.31308-3.61596-2.49881-5.6738 2.16319-1.58177 7.7937-1.73787 10.49716-.29102 1.74592.93439 1.93426 2.19341 1.93426 12.93045 0 11.4024.089 11.90851 2.14787 12.21482 2.6262.39071 4.39098 2.97294 3.54266 5.18363-.51659 1.34621-2.21524 1.63592-9.59176 1.63592-8.32464 0-9.0132-.15505-9.65393-2.1738zm34.20118-.27845C231.08184 362.17134 231 361.74176 231 350.65853c0-9.42768.30924-11.81886 1.76022-13.61074 2.19321-2.70851 8.69695-3.71208 13.59039-2.09709 4.44273 1.46623 4.9742 3.64439 4.49311 18.41436-.40424 12.41033-1.19696 13.55173-9.4477 13.60314-4.05884.0253-5.6458-.47035-7.75-2.42045zM245 350.5V341h-7v19h7zm18.48477 14.45201c-.78138-2.46192 1.0478-4.95201 3.63767-4.95201 1.70499 0 1.87756-.87318 1.87756-9.5 0-9.44721-.0138-9.5-2.48095-9.5-1.83959 0-2.65012-.67403-3.13535-2.60733-.80236-3.19689.7297-4.35626 5.78451-4.37736 6.88404-.02873 6.83179-.13269 6.83179 13.59168C276 358.89684 276.16102 360 277.80887 360c3.14105 0 5.51267 2.41155 4.74629 4.8262C281.91519 366.84258 281.22324 367 273 367c-8.05621 0-8.92454-.18689-9.51523-2.04799zm33.76523.37357c-2.1345-1.48896-2.25-2.22692-2.25-14.37612 0-10.30384.30681-13.11341 1.56993-14.37653 2.21735-2.21736 5.74269-2.9031 10.92747-2.12559 6.66969 1.00018 7.5026 2.80128 7.5026 16.22364 0 10.41704-.1704 11.40984-2.36467 13.7775-1.98756 2.14461-3.2235 2.54316-7.75 2.49907-3.19264-.0311-6.30144-.6915-7.63533-1.62197zM308 350.5V341h-7v19h7zm-107.92967-23.91526c-2.12329-2.5584-.8811-5.05312 2.68786-5.3981L206 320.87328v-19.74656l-3.24181-.31336c-3.5495-.3431-4.81374-2.83658-2.71832-5.3614 1.47868-1.7817 10.04682-1.96527 11.76013-.25196.80325.80325 1.2 5.26667 1.2 13.5V321h3.06336c2.85371 0 3.04191.22242 2.75 3.25L218.5 327.5l-8.59709.2867c-6.6543.22192-8.8763-.0497-9.83258-1.20196zm34.74631-.30253c-1.47586-.91552-2.93221-2.59105-3.23635-3.7234-.72036-2.68198-.71681-20.44872.005-23.13529 1.46754-5.46505 12.58096-7.34855 17.04135-2.88817 2.48569 2.48569 2.52887 2.78125 2.20454 15.0906-.31064 11.79005-.47468 12.67161-2.69158 14.46465-2.95096 2.38673-9.62912 2.48278-13.32258.19161zM245 311v-10h-7v20h7zm20.45455 14.54545C263.11916 323.21007 263 322.50393 263 311s.11916-12.21007 2.45455-14.54545c4.3831-4.38311 15.50928-2.43545 16.96054 2.96897.72387 2.69567.72387 20.45729 0 23.15296-1.45126 5.40442-12.57744 7.35208-16.96054 2.96897zM276 311v-10h-7v20h7zm19.66667 16.33333c-.36667-.36666-.66667-1.94166-.66667-3.5 0-2.48148.37255-2.83333 3-2.83333h3v-20h-3.06336c-2.85371 0-3.04191-.22242-2.75-3.25.30127-3.12463.49959-3.26188 5.14105-3.55796 7.35036-.46889 7.67231.13398 7.67231 14.36705v12.31419l3.24181.31336c2.17184.20993 3.35428.90681 3.58258 2.1114.69002 3.64087-1.6299 4.70196-10.28017 4.70196-4.51599 0-8.51089-.3-8.87755-.66667zM204.2588 287.3456c-4.28763-.92287-5.2588-3.89906-5.2588-16.11586 0-10.96241.0848-11.4038 2.64602-13.77749 3.52767-3.26933 11.85619-3.49631 15.16542-.41329C218.83383 258.9231 219 260.01225 219 271.38397c0 10.95111-.21574 12.5013-1.95942 14.07931-1.97771 1.7898-8.64792 2.7721-12.78178 1.88232zM213 271.5V262h-7v19h7zm19.03983 15.04799c-2.01685-2.43016-.31544-5.54799 3.02756-5.54799H238v-9.5c0-9.3362-.041-9.5-2.37756-9.5-3.03548 0-4.97329-2.31919-4.13767-4.95201.54598-1.72025 1.48739-2.04799 5.88262-2.04799 2.87793 0 5.77261.54 6.43261 1.2.79774.79774 1.2 5.15556 1.2 13V281h2.48095c1.83959 0 2.65012.67403 3.13535 2.60733.90901 3.6218-.73257 4.35927-9.74386 4.37736-5.46293.011-7.96953-.39676-8.83261-1.4367zm32.07482.54403c-.91707-.58079-1.16414-1.75869-.73095-3.48469.48523-1.9333 1.29576-2.60733 3.13535-2.60733 2.46716 0 2.48095-.0528 2.48095-9.5 0-8.62682-.17257-9.5-1.87756-9.5-2.61036 0-4.41772-2.49429-3.62261-4.99946.58818-1.85318 1.32027-2.06104 6.33262-1.79798L275.5 255.5l.27988 12.75.27987 12.75h2.90274c3.69203 0 5.26977 3.62578 2.46893 5.6738-2.05462 1.50238-15.10712 1.81761-17.31677.41822zm34.38535-.22267c-3.27945-1.96508-3.46873-2.8344-3.48469-16.00434-.0149-12.33347.0435-12.67353 2.44951-14.25 3.92232-2.57 11.6836-2.13357 14.88916.83724C314.91816 259.82866 315 260.25824 315 271.34147c0 14.1058-.77994 15.51317-9 16.23999-3.35247.29643-6.28092.0184-7.5-.71211zM308 271.5V262h-7v19h7zm3.05208-60.31839c-.44456-1.55012-1.28068-3.68762-1.85803-4.75-3.43454-6.31988-17.75062-43.09585-18.85337-48.43161C287.21323 142.86751 287 139.85999 287 110.88005c0-34.94368.40789-37.32137 8.20794-47.84599C303.27224 52.15288 306.45573 53 257.5 53c-41.26818 0-42.5.05574-42.5 1.92327 0 1.57834 3.64052 7.03184 6.05922 9.07673 1.22205 1.03318 3.91958 6.667 5.40335 11.28495C227.70937 79.16535 228 85.9096 228 110.96144c0 42.95341-.0699 43.26925-20.15919 91.03856-.57825 1.375-1.6355 3.85-2.34943 5.5-3.10718 7.18109-8.55277 6.5 51.9702 6.5h54.39881zM86.43056 476.25c-3.73256-5.9125-6.9162-10.9223-7.07474-11.13288-.15853-.21059-3.31186 1.51292-7.00739 3.83l-6.71913 4.21289-1.7856-2.33001c-3.44216-4.49162-7.79546-13.54722-9.3125-19.37155-3.54197-13.5985-.44674-28.25857 8.45741-40.05732l3.84796-5.09886-8.17779-16.40114C43.42976 359.35825 36.60115 332.76232 35.31956 299c-3.09438-81.51854 39.67637-158.42388 110.84498-199.30843C157.67936 93.0766 171 86.7925 171 87.97528c0 .46483-1.33724 3.67273-2.97164 7.12868-1.63441 3.45594-3.48613 8.5825-4.11495 11.39235-1.14001 5.09411-1.17135 5.12545-10.89281 10.8919-54.32885 32.22609-90.14785 87.2802-97.97314 150.58556-1.5079 12.19858-1.2887 36.08346.45305 49.37037 1.84537 14.07725 6.02597 30.80164 11.1361 44.54976 4.9339 13.27396 15.56912 33.65787 17.45365 33.45238.77536-.0845 4.67224-.73865 8.65974-1.45355 12.37918-2.21942 25.19974 1.05926 35.99299 9.2047 4.87686 3.68047 15.2678 16.83871 15.24845 19.3094-.005.60124-3.24412 3.11817-7.1987 5.59317-3.95457 2.475-7.59873 4.78123-8.09814 5.12497-.49941.34373 2.29 5.64339 6.19869 11.77702S142 456.27597 142 456.5472c0 .73329-13.68877 9.4528-14.83998 9.4528-.54437 0-4.03933-4.8375-7.76659-10.75-3.72725-5.9125-6.89805-10.91999-7.04622-11.12776-.21022-.29478-11.52581 6.50493-16.64581 10.00273-.50315.34373 2.2832 5.64339 6.19189 11.77702S109 477.27597 109 477.5472C109 478.27138 95.31852 487 94.18342 487c-.5315 0-4.0203-4.8375-7.75286-10.75zm9.47322-44.44225C107.47644 424.48849 116.811 418.05 116.64725 417.5c-.16376-.55-2.73889-1.99868-5.7225-3.21928-10.68338-4.3706-22.93555-1.98422-30.59841 5.95972-5.78525 5.99744-7.57401 10.10571-8.12946 18.67099-.41817 6.4485-.27622 7.33299 1.09254 6.80775.86523-.33202 11.0417-6.59216 22.61436-13.91143z"/><path fill="#febe00" d="M243.5 510.44935c-20.30071-4.44559-36.35856-17.67945-41.49947-34.20121-5.70704-18.34118-2.42963-38.29568 11.64857-70.92221.37988-.88039-7.3295-1.26184-30.82125-1.525L151.5 403.45l-5.5-2.8893c-7.19781-3.7812-13.40391-10.15402-17.05533-17.51351C126.42835 377.97551 126 375.95356 126 369.14728c0-7.22725.4486-9.06152 4.84386-19.80608 10.37513-25.36281 11.47722-28.00456 13.77926-33.02927C145.9304 313.45848 147 310.68245 147 310.14296c0-.53948.63337-2.25485 1.4075-3.81192.77412-1.55707 1.96221-4.18104 2.64019-5.83104 1.55852-3.79293 3.17855-7.5112 6.39951-14.68807 1.40404-3.12845 2.5528-6.30095 2.5528-7.05 0-.74906.38025-1.78943.845-2.31193.46476-.5225 2.56081-5.35485 4.6579-10.73857 2.09708-5.38371 4.19183-10.02276 4.65499-10.30901.46316-.28625.84211-1.19676.84211-2.02336 0-.8266 1.07885-3.83754 2.39745-6.69099 1.3186-2.85344 2.98672-6.98807 3.70694-9.18807.72022-2.2 1.89137-4.71043 2.60255-5.57874.71118-.86831 1.29329-1.99331 1.29356-2.5.0004-.7217 8.84608-22.57807 15.04391-37.17126.52557-1.2375 1.45297-3.4875 2.06087-5 .6079-1.5125 1.66981-4.1 2.3598-5.75.68999-1.65 1.81499-4.35 2.5-6 .68501-1.65 1.81646-4.35 2.51432-6 6.82759-16.14293 7.0206-17.68248 7.0206-56 0-18.7-.3539-35.2687-.78646-36.81934-.43255-1.55064-2.11865-4.12161-3.7469-5.71327-5.10625-4.99152-7.41578-10.63768-7.81095-19.09562-.20958-4.48571.11139-8.5023.77914-9.75L202.07037 40H257.5c63.77149 0 57.5-1.18355 57.5 10.85135 0 7.70232-2.20054 14.22864-6.15584 18.2569C302.23808 75.83617 302.5 74.04475 302.5 112.5c0 35.39348.26632 38.6259 3.99591 48.5 3.37515 8.9357 7.01296 17.94908 9.15694 22.68807 1.29093 2.85345 2.34715 5.62948 2.34715 6.16897 0 .53948.66316 2.25485 1.4737 3.81192 1.72111 3.30633 3.64536 7.93116 6.08029 14.6137.95847 2.63046 2.12592 5.01951 2.59434 5.30901.46842.2895.85167 1.20267.85167 2.02927s1.14876 4.06254 2.5528 7.19099c2.86444 6.38247 4.66846 10.50033 6.21575 14.18807 1.02472 2.44228 14.56259 35.53579 16.15863 39.5 1.60447 3.98514 3.31425 8.07066 4.81273 11.5 1.53655 3.51647 2.98489 6.93557 5.29501 12.5.68501 1.65 1.81001 4.35 2.5 6 .68999 1.65 1.79927 4.35 2.46508 6 1.54237 3.8223 3.41844 8.30878 4.80885 11.5.59909 1.375 4.26217 10.23458 8.1402 19.68797C388.69313 360.12788 389 361.22924 389 368.99405c0 7.00839-.40978 8.94403-2.99766 14.15995-3.67863 7.41432-9.72907 13.62474-17.00234 17.45192L363.5 403.5l-64.25827.29139-64.25828.2914-3.49373 6.93763c-11.91752 23.66502-16.48754 46.82518-11.89769 60.29564 3.49269 10.2505 14.35875 18.32173 28.68839 21.30955 5.90719 1.23168 9.59339 1.30129 21.68512.40947 96.16864-7.09285 173.10135-79.17602 186.55958-174.79959 2.07454-14.74003 1.61982-47.72725-.83747-60.75319-10.85419-57.53747-43.41851-106.49831-90.74559-136.43707l-8.55794-5.41369-6.78893-12.88557c-3.73391-7.08706-6.50792-13.16657-6.16447-13.51002.99234-.99235 22.19335 10.11977 33.1093 17.35363 46.37173 30.72998 79.63205 76.83837 92.97149 128.88531 5.31605 20.7418 6.88509 33.35332 6.90807 55.52511.0224 21.6074-1.49423 34.43016-6.40306 54.13627C446.51091 439.49776 361.12765 508.63932 264.5 511.55921c-10.21699.30874-15.8915.009-21-1.10986zM359.79761 388.6842c7.77735-2.32624 15.22251-11.89129 15.19157-19.51711-.0114-2.82023-2.16114-10.649-3.78807-13.79545-.53227-1.0294-1.51764-3.22164-2.18972-4.87164-1.24232-3.05-2.88325-6.99236-4.78665-11.5-.58061-1.375-5.40674-13.075-10.72474-26-5.318-12.925-10.14413-24.625-10.72474-26-1.30515-3.09085-3.16978-7.54873-4.81018-11.5-.68501-1.65-1.93371-4.575-2.77488-6.5-.84117-1.925-2.08071-4.85-2.75452-6.5-.67382-1.65-1.68477-4.125-2.24657-5.5-.56179-1.375-1.55033-3.85-2.19675-5.5-.64642-1.65-3.05928-7.5-5.36191-13l-4.18659-10-60.56032-.25768-60.56032-.25769-1.81347 3.75769c-.9974 2.06672-2.37289 4.88268-3.05664 6.25768-.68375 1.375-2.59146 6.325-4.23935 11-1.64789 4.675-4.57935 11.875-6.51436 16-1.93501 4.125-4.66783 10.74459-6.07294 14.71019-1.40511 3.96561-4.54692 11.61561-6.9818 17-5.96755 13.19643-11.08459 25.0419-12.65267 29.28981-.7106 1.925-1.94538 5.075-2.74396 7-.79857 1.925-1.90344 4.625-2.45527 6-.55182 1.375-1.59587 3.85-2.32009 5.5-.72423 1.65-2.26666 5.97174-3.42762 9.60386-1.16097 3.63213-2.75673 7.45713-3.54615 8.5-.78941 1.04288-1.4496 3.4561-1.4671 5.36271C139.9965 371.81739 142.78719 380 144.13586 380c.47528 0 .86414.56819.86414 1.26265 0 1.71689 4.24949 4.87915 9.31662 6.93297 3.83252 1.5534 12.44457 1.6989 102.68338 1.73482 77.44471.0308 99.41865-.23558 102.79761-1.24624zm-160.35277-23.858c-.76638-2.41465 1.60524-4.8262 4.74629-4.8262 1.61822 0 1.80887-1.00126 1.80887-9.5V341h-2.93261c-3.72057 0-5.31308-3.61596-2.49881-5.6738 2.16319-1.58177 7.7937-1.73787 10.49716-.29102 1.74592.93439 1.93426 2.19341 1.93426 12.93045 0 11.4024.089 11.90851 2.14787 12.21482 2.6262.39071 4.39098 2.97294 3.54266 5.18363-.51659 1.34621-2.21524 1.63592-9.59176 1.63592-8.32464 0-9.0132-.15505-9.65393-2.1738zm34.20118-.27845C231.08184 362.17134 231 361.74176 231 350.65853c0-9.42768.30924-11.81886 1.76022-13.61074 2.19321-2.70851 8.69695-3.71208 13.59039-2.09709 4.44273 1.46623 4.9742 3.64439 4.49311 18.41436-.40424 12.41033-1.19696 13.55173-9.4477 13.60314-4.05884.0253-5.6458-.47035-7.75-2.42045zM245 350.5V341h-7v19h7zm18.48477 14.45201c-.78138-2.46192 1.0478-4.95201 3.63767-4.95201 1.70499 0 1.87756-.87318 1.87756-9.5 0-9.44721-.0138-9.5-2.48095-9.5-1.83959 0-2.65012-.67403-3.13535-2.60733-.80236-3.19689.7297-4.35626 5.78451-4.37736 6.88404-.02873 6.83179-.13269 6.83179 13.59168C276 358.89684 276.16102 360 277.80887 360c3.14105 0 5.51267 2.41155 4.74629 4.8262C281.91519 366.84258 281.22324 367 273 367c-8.05621 0-8.92454-.18689-9.51523-2.04799zm33.76523.37357c-2.1345-1.48896-2.25-2.22692-2.25-14.37612 0-10.30384.30681-13.11341 1.56993-14.37653 2.21735-2.21736 5.74269-2.9031 10.92747-2.12559 6.66969 1.00018 7.5026 2.80128 7.5026 16.22364 0 10.41704-.1704 11.40984-2.36467 13.7775-1.98756 2.14461-3.2235 2.54316-7.75 2.49907-3.19264-.0311-6.30144-.6915-7.63533-1.62197zM308 350.5V341h-7v19h7zm-107.92967-23.91526c-2.12329-2.5584-.8811-5.05312 2.68786-5.3981L206 320.87328v-19.74656l-3.24181-.31336c-3.5495-.3431-4.81374-2.83658-2.71832-5.3614 1.47868-1.7817 10.04682-1.96527 11.76013-.25196.80325.80325 1.2 5.26667 1.2 13.5V321h3.06336c2.85371 0 3.04191.22242 2.75 3.25L218.5 327.5l-8.59709.2867c-6.6543.22192-8.8763-.0497-9.83258-1.20196zm34.74631-.30253c-1.47586-.91552-2.93221-2.59105-3.23635-3.7234-.72036-2.68198-.71681-20.44872.005-23.13529 1.34138-4.99525 11.94454-7.24463 16.55431-3.51187 2.26488 1.83399 2.36078 2.44691 2.36078 15.08835s-.0959 13.25436-2.36078 15.08835c-2.95043 2.38911-9.62713 2.48626-13.32258.19386zM245 311v-10h-7v20h7zm20.45455 14.54545C263.11916 323.21007 263 322.50393 263 311s.11916-12.21007 2.45455-14.54545c4.3831-4.38311 15.50928-2.43545 16.96054 2.96897.72387 2.69567.72387 20.45729 0 23.15296-1.45126 5.40442-12.57744 7.35208-16.96054 2.96897zM276 311v-10h-7v20h7zm19.66667 16.33333c-.36667-.36666-.66667-1.94166-.66667-3.5 0-2.48148.37255-2.83333 3-2.83333h3v-20h-3.06336c-2.85371 0-3.04191-.22242-2.75-3.25.30127-3.12463.49959-3.26188 5.14105-3.55796 7.35514-.4692 7.67231.12735 7.67231 14.4304V321h2.89301c3.3052 0 4.61979 2.17331 3.06822 5.07244-.89144 1.66568-2.15901 1.92756-9.32975 1.92756-4.56398 0-8.59815-.3-8.96481-.66667zM204.008 287.15847c-3.94164-1.17817-4.97706-4.59057-4.99326-16.45622-.0142-10.40076.0825-10.88791 2.63128-13.25 4.01096-3.71723 13.84917-3.15533 16.58867.94745.40408.60517.74158 6.54306.75 13.19531.0136 10.75289-.20212 12.29178-1.94411 13.86827-2.1577 1.95268-9.13487 2.86023-13.03258 1.69519zM213 271.5V262h-7v19h7zm19.03983 15.04799c-2.01685-2.43016-.31544-5.54799 3.02756-5.54799H238v-9.5c0-9.3362-.041-9.5-2.37756-9.5-3.03548 0-4.97329-2.31919-4.13767-4.95201.54598-1.72025 1.48739-2.04799 5.88262-2.04799 2.87793 0 5.77261.54 6.43261 1.2.79774.79774 1.2 5.15556 1.2 13V281h2.48095c1.83959 0 2.65012.67403 3.13535 2.60733.90901 3.6218-.73257 4.35927-9.74386 4.37736-5.46293.011-7.96953-.39676-8.83261-1.4367zm32.07482.54403c-.91707-.58079-1.16414-1.75869-.73095-3.48469.48523-1.9333 1.29576-2.60733 3.13535-2.60733 2.46716 0 2.48095-.0528 2.48095-9.5 0-8.62682-.17257-9.5-1.87756-9.5-2.58987 0-4.41905-2.49009-3.63767-4.95201.52387-1.65058 1.49428-2.04799 5.00083-2.04799 7.66522 0 7.5144-.2731 7.5144 13.60699V281h2.93261c3.72057 0 5.31308 3.61596 2.49881 5.6738-2.05462 1.50238-15.10712 1.81761-17.31677.41822zm34.38535-.22267c-3.27945-1.96508-3.46873-2.8344-3.48469-16.00434-.0149-12.33347.0435-12.67353 2.44951-14.25 3.92232-2.57 11.6836-2.13357 14.88916.83724C314.91816 259.82866 315 260.25824 315 271.34147c0 14.1058-.77994 15.51317-9 16.23999-3.35247.29643-6.28092.0184-7.5-.71211zM308 271.5V262h-7v19h7zm3.49873-59.75c-.34983-1.2375-1.2564-3.6-2.0146-5.25C304.6245 195.9244 303 191.94615 303 190.62094c0-.8266-.38325-1.73977-.85167-2.02927-.46842-.2895-1.62837-2.67855-2.57767-5.30901-.94929-2.63047-2.13949-5.68266-2.64488-6.78266-3.01259-6.55708-6.26534-17.35033-7.96905-26.44289-2.73124-14.57639-2.91257-65.80051-.26263-74.19227 1.88618-5.97314 5.39027-12.138 8.95292-15.7512 1.29414-1.3125 2.35298-3.45 2.35298-4.75V53h-85v2.27714c0 1.25242 1.35647 3.76228 3.01437 5.57745 3.53482 3.87014 5.72002 7.76634 8.19239 14.60702C227.78204 79.82016 228 84.09574 228 110.63811c0 39.99448-.82535 44.38443-14.63872 77.86189-3.63104 8.8-7.44775 17.82958-8.48158 20.06572-1.03384 2.23615-1.8797 4.37365-1.8797 4.75 0 .37636 24.55532.68428 54.56739.68428h54.56739zM86.4128 476.00116c-3.80204-6.04937-7.23512-10.99937-7.62906-11-.39394-.00064-3.53433 1.82025-6.97863 4.04641-7.186 4.64453-6.3736 5.01719-12.3983-5.68725-4.98485-8.85687-7.0833-19.4292-5.72618-28.84942 1.20256-8.34732 5.51111-18.38182 10.172-23.69028C65.5837 408.84906 67 406.75699 67 406.17156c0-.58542-1.63207-3.8491-3.62681-7.25262-11.99925-20.47359-21.79307-49.1723-26.0235-76.25631-2.40157-15.3753-2.40826-46.91589-.01329-62.66263 4.4414-29.20183 14.43805-57.41415 28.77793-81.21644 21.7222-36.05593 53.06741-65.48101 89.48211-84.00066 5.99696-3.04991 11.94865-5.86442 13.22597-6.25447 2.29385-.70045 2.30309-.6718.75148 2.32868-.86401 1.67081-2.88696 6.99898-4.49545 11.84037L162.15393 111.5l-9.90672 6.06577c-14.40347 8.81907-24.33159 16.52595-36.60559 28.41574C103.14012 158.09169 95.24145 167.55996 86.42834 181c-21.73405 33.14457-32.48022 69.37962-32.50769 109.61281-.02036 29.82031 4.62468 53.18589 15.75249 79.23866 4.55849 10.67247 11.83887 24.7289 13.26439 25.60992.4191.25902 4.26875-.24419 8.55478-1.11823 6.46362-1.31812 9.00506-1.39233 14.90024-.43504 9.25635 1.50308 19.91361 6.60437 25.8272 12.36267 5.31843 5.17876 12.16618 15.29575 11.30079 16.69598-.31334.50699-3.95807 3.03367-8.09941 5.61485-4.51037 2.81119-7.33503 5.20037-7.04423 5.95819.26702.69583 2.94776 5.08198 5.95721 9.747 8.78093 13.61157 8.71827 11.93551.64158 17.16029-3.87093 2.5041-7.42848 4.5529-7.90567 4.5529-.47718 0-3.9445-4.95-7.70515-11-3.76065-6.05-7.16716-11-7.57003-11-.73399 0-14.50785 8.58291-16.18898 10.08785-.50122.44869 1.96201 5.32914 5.60551 11.10629 3.5748 5.66822 6.79901 10.84051 7.16491 11.49398.4154.74188-1.98333 2.90147-6.38669 5.75C98.11101 484.94715 94.57493 487 94.13162 487c-.4433 0-3.91677-4.94948-7.71882-10.99884zm9.43141-43.9997C107.4799 424.57726 117 418.14406 117 417.70545c0-.4386-2.3625-1.89736-5.25-3.24169-13.55341-6.31002-30.7613-.24768-37.27744 13.13284-2.48965 5.11235-3.47892 20.09154-1.23931 18.76519.80034-.47399 10.97528-6.93613 22.61096-14.36033z"/><path fill="#6f6f6f" d="M243.5 510.44935c-20.30071-4.44559-36.35856-17.67945-41.49947-34.20121-5.70704-18.34118-2.42963-38.29568 11.64857-70.92221.37988-.88039-7.3295-1.26184-30.82125-1.525L151.5 403.45l-5.5-2.8893c-7.19781-3.7812-13.40391-10.15402-17.05533-17.51351C126.42835 377.97551 126 375.95356 126 369.14728c0-7.22725.4486-9.06152 4.84386-19.80608 10.37513-25.36281 11.47722-28.00456 13.77926-33.02927C145.9304 313.45848 147 310.68245 147 310.14296c0-.53948.63337-2.25485 1.4075-3.81192.77412-1.55707 1.96221-4.18104 2.64019-5.83104 1.55852-3.79293 3.17855-7.5112 6.39951-14.68807 1.40404-3.12845 2.5528-6.30095 2.5528-7.05 0-.74906.38025-1.78943.845-2.31193.46476-.5225 2.56081-5.35485 4.6579-10.73857 2.09708-5.38371 4.19183-10.02276 4.65499-10.30901.46316-.28625.84211-1.19676.84211-2.02336 0-.8266 1.07885-3.83754 2.39745-6.69099 1.3186-2.85344 2.98672-6.98807 3.70694-9.18807.72022-2.2 1.89137-4.71043 2.60255-5.57874.71118-.86831 1.29329-1.99331 1.29356-2.5.0004-.7217 8.84608-22.57807 15.04391-37.17126.52557-1.2375 1.45297-3.4875 2.06087-5 .6079-1.5125 1.66981-4.1 2.3598-5.75.68999-1.65 1.81499-4.35 2.5-6 .68501-1.65 1.81646-4.35 2.51432-6 6.82759-16.14293 7.0206-17.68248 7.0206-56 0-18.7-.3539-35.2687-.78646-36.81934-.43255-1.55064-2.11865-4.12161-3.7469-5.71327-5.10625-4.99152-7.41578-10.63768-7.81095-19.09562-.20958-4.48571.11139-8.5023.77914-9.75L202.07037 40H257.5c63.77149 0 57.5-1.18355 57.5 10.85135 0 7.70232-2.20054 14.22864-6.15584 18.2569C302.23808 75.83617 302.5 74.04475 302.5 112.5c0 35.39348.26632 38.6259 3.99591 48.5 3.37515 8.9357 7.01296 17.94908 9.15694 22.68807 1.29093 2.85345 2.34715 5.62948 2.34715 6.16897 0 .53948.66316 2.25485 1.4737 3.81192 1.72111 3.30633 3.64536 7.93116 6.08029 14.6137.95847 2.63046 2.12592 5.01951 2.59434 5.30901.46842.2895.85167 1.20267.85167 2.02927s1.14876 4.06254 2.5528 7.19099c2.86444 6.38247 4.66846 10.50033 6.21575 14.18807 1.02472 2.44228 14.56259 35.53579 16.15863 39.5 1.60447 3.98514 3.31425 8.07066 4.81273 11.5 1.53655 3.51647 2.98489 6.93557 5.29501 12.5.68501 1.65 1.81001 4.35 2.5 6 .68999 1.65 1.79927 4.35 2.46508 6 1.54237 3.8223 3.41844 8.30878 4.80885 11.5.59909 1.375 4.26217 10.23458 8.1402 19.68797C388.69313 360.12788 389 361.22924 389 368.99405c0 7.00839-.40978 8.94403-2.99766 14.15995-3.67863 7.41432-9.72907 13.62474-17.00234 17.45192L363.5 403.5l-64.25827.29139-64.25828.2914-3.49373 6.93763c-11.91752 23.66502-16.48754 46.82518-11.89769 60.29564 3.49269 10.2505 14.35875 18.32173 28.68839 21.30955 5.90719 1.23168 9.59339 1.30129 21.68512.40947 96.16864-7.09285 173.10135-79.17602 186.55958-174.79959 2.07454-14.74003 1.61982-47.72725-.83747-60.75319-10.85419-57.53747-43.41851-106.49831-90.74559-136.43707l-8.55794-5.41369-6.78893-12.88557c-3.73391-7.08706-6.50792-13.16657-6.16447-13.51002.99234-.99235 22.19335 10.11977 33.1093 17.35363 46.37173 30.72998 79.63205 76.83837 92.97149 128.88531 5.31605 20.7418 6.88509 33.35332 6.90807 55.52511.0224 21.6074-1.49423 34.43016-6.40306 54.13627C446.51091 439.49776 361.12765 508.63932 264.5 511.55921c-10.21699.30874-15.8915.009-21-1.10986zM359.79761 388.6842c7.77735-2.32624 15.22251-11.89129 15.19157-19.51711-.0114-2.82023-2.16114-10.649-3.78807-13.79545-.53227-1.0294-1.51764-3.22164-2.18972-4.87164-1.24232-3.05-2.88325-6.99236-4.78665-11.5-.58061-1.375-5.40674-13.075-10.72474-26-5.318-12.925-10.14413-24.625-10.72474-26-1.30515-3.09085-3.16978-7.54873-4.81018-11.5-.68501-1.65-1.93371-4.575-2.77488-6.5-.84117-1.925-2.08071-4.85-2.75452-6.5-.67382-1.65-1.68477-4.125-2.24657-5.5-.56179-1.375-1.55033-3.85-2.19675-5.5-.64642-1.65-3.05928-7.5-5.36191-13l-4.18659-10-60.56032-.25768-60.56032-.25769-1.81347 3.75769c-.9974 2.06672-2.37289 4.88268-3.05664 6.25768-.68375 1.375-2.59146 6.325-4.23935 11-1.64789 4.675-4.57935 11.875-6.51436 16-1.93501 4.125-4.66783 10.74459-6.07294 14.71019-1.40511 3.96561-4.54692 11.61561-6.9818 17-5.96755 13.19643-11.08459 25.0419-12.65267 29.28981-.7106 1.925-1.94538 5.075-2.74396 7-.79857 1.925-1.90344 4.625-2.45527 6-.55182 1.375-1.59587 3.85-2.32009 5.5-.72423 1.65-2.26666 5.97174-3.42762 9.60386-1.16097 3.63213-2.75673 7.45713-3.54615 8.5-.78941 1.04288-1.4496 3.4561-1.4671 5.36271C139.9965 371.81739 142.78719 380 144.13586 380c.47528 0 .86414.56819.86414 1.26265 0 1.71689 4.24949 4.87915 9.31662 6.93297 3.83252 1.5534 12.44457 1.6989 102.68338 1.73482 77.44471.0308 99.41865-.23558 102.79761-1.24624zm-160.35277-23.858c-.76638-2.41465 1.60524-4.8262 4.74629-4.8262 1.61822 0 1.80887-1.00126 1.80887-9.5V341h-2.93261c-3.72057 0-5.31308-3.61596-2.49881-5.6738 2.16319-1.58177 7.7937-1.73787 10.49716-.29102 1.74592.93439 1.93426 2.19341 1.93426 12.93045 0 11.4024.089 11.90851 2.14787 12.21482 2.6262.39071 4.39098 2.97294 3.54266 5.18363-.51659 1.34621-2.21524 1.63592-9.59176 1.63592-8.32464 0-9.0132-.15505-9.65393-2.1738zm64.03993.12581c-.78138-2.46192 1.0478-4.95201 3.63767-4.95201 1.70499 0 1.87756-.87318 1.87756-9.5 0-9.44721-.0138-9.5-2.48095-9.5-1.83959 0-2.65012-.67403-3.13535-2.60733-.80236-3.19689.7297-4.35626 5.78451-4.37736 6.88404-.02873 6.83179-.13269 6.83179 13.59168C276 358.89684 276.16102 360 277.80887 360c3.14105 0 5.51267 2.41155 4.74629 4.8262C281.91519 366.84258 281.22324 367 273 367c-8.05621 0-8.92454-.18689-9.51523-2.04799zm-28.66813-38.6698c-1.47586-.91552-2.93221-2.59105-3.23635-3.7234-.72036-2.68198-.71681-20.44872.005-23.13529 1.34138-4.99525 11.94454-7.24463 16.55431-3.51187 2.26488 1.83399 2.36078 2.44691 2.36078 15.08835s-.0959 13.25436-2.36078 15.08835c-2.95043 2.38911-9.62713 2.48626-13.32258.19386zM245 311v-10h-7v20h7zm50.66667 16.33333c-.36667-.36666-.66667-1.94166-.66667-3.5 0-2.48148.37255-2.83333 3-2.83333h3v-20h-3.06336c-2.85371 0-3.04191-.22242-2.75-3.25.30127-3.12463.49959-3.26188 5.14105-3.55796 7.35514-.4692 7.67231.12735 7.67231 14.4304V321h2.89301c3.3052 0 4.61979 2.17331 3.06822 5.07244-.89144 1.66568-2.15901 1.92756-9.32975 1.92756-4.56398 0-8.59815-.3-8.96481-.66667zM204.008 287.15847c-3.94164-1.17817-4.97706-4.59057-4.99326-16.45622-.0142-10.40076.0825-10.88791 2.63128-13.25 4.01096-3.71723 13.84917-3.15533 16.58867.94745.40408.60517.74158 6.54306.75 13.19531.0136 10.75289-.20212 12.29178-1.94411 13.86827-2.1577 1.95268-9.13487 2.86023-13.03258 1.69519zM213 271.5V262h-7v19h7zm51.11465 15.59202c-.91707-.58079-1.16414-1.75869-.73095-3.48469.48523-1.9333 1.29576-2.60733 3.13535-2.60733 2.46716 0 2.48095-.0528 2.48095-9.5 0-8.62682-.17257-9.5-1.87756-9.5-2.58987 0-4.41905-2.49009-3.63767-4.95201.52387-1.65058 1.49428-2.04799 5.00083-2.04799 7.66522 0 7.5144-.2731 7.5144 13.60699V281h2.93261c3.72057 0 5.31308 3.61596 2.49881 5.6738-2.05462 1.50238-15.10712 1.81761-17.31677.41822zM311.49873 211.75c-.34983-1.2375-1.2564-3.6-2.0146-5.25C304.6245 195.9244 303 191.94615 303 190.62094c0-.8266-.38325-1.73977-.85167-2.02927-.46842-.2895-1.62837-2.67855-2.57767-5.30901-.94929-2.63047-2.13949-5.68266-2.64488-6.78266-3.01259-6.55708-6.26534-17.35033-7.96905-26.44289-2.73124-14.57639-2.91257-65.80051-.26263-74.19227 1.88618-5.97314 5.39027-12.138 8.95292-15.7512 1.29414-1.3125 2.35298-3.45 2.35298-4.75V53h-85v2.27714c0 1.25242 1.35647 3.76228 3.01437 5.57745 3.53482 3.87014 5.72002 7.76634 8.19239 14.60702C227.78204 79.82016 228 84.09574 228 110.63811c0 39.99448-.82535 44.38443-14.63872 77.86189-3.63104 8.8-7.44775 17.82958-8.48158 20.06572-1.03384 2.23615-1.8797 4.37365-1.8797 4.75 0 .37636 24.55532.68428 54.56739.68428h54.56739zM86.4128 476.00116c-3.80204-6.04937-7.23512-10.99937-7.62906-11-.39394-.00064-3.53433 1.82025-6.97863 4.04641-7.186 4.64453-6.3736 5.01719-12.3983-5.68725-4.98485-8.85687-7.0833-19.4292-5.72618-28.84942 1.20256-8.34732 5.51111-18.38182 10.172-23.69028C65.5837 408.84906 67 406.75699 67 406.17156c0-.58542-1.63207-3.8491-3.62681-7.25262-11.99925-20.47359-21.79307-49.1723-26.0235-76.25631-2.40157-15.3753-2.40826-46.91589-.01329-62.66263 4.4414-29.20183 14.43805-57.41415 28.77793-81.21644 21.7222-36.05593 53.06741-65.48101 89.48211-84.00066 5.99696-3.04991 11.94865-5.86442 13.22597-6.25447 2.29385-.70045 2.30309-.6718.75148 2.32868-.86401 1.67081-2.88696 6.99898-4.49545 11.84037L162.15393 111.5l-9.90672 6.06577c-14.40347 8.81907-24.33159 16.52595-36.60559 28.41574C103.14012 158.09169 95.24145 167.55996 86.42834 181c-21.73405 33.14457-32.48022 69.37962-32.50769 109.61281-.02036 29.82031 4.62468 53.18589 15.75249 79.23866 4.55849 10.67247 11.83887 24.7289 13.26439 25.60992.4191.25902 4.26875-.24419 8.55478-1.11823 6.46362-1.31812 9.00506-1.39233 14.90024-.43504 9.25635 1.50308 19.91361 6.60437 25.8272 12.36267 5.31843 5.17876 12.16618 15.29575 11.30079 16.69598-.31334.50699-3.95807 3.03367-8.09941 5.61485-4.51037 2.81119-7.33503 5.20037-7.04423 5.95819.26702.69583 2.94776 5.08198 5.95721 9.747 8.78093 13.61157 8.71827 11.93551.64158 17.16029-3.87093 2.5041-7.42848 4.5529-7.90567 4.5529-.47718 0-3.9445-4.95-7.70515-11-3.76065-6.05-7.16716-11-7.57003-11-.73399 0-14.50785 8.58291-16.18898 10.08785-.50122.44869 1.96201 5.32914 5.60551 11.10629 3.5748 5.66822 6.79901 10.84051 7.16491 11.49398.4154.74188-1.98333 2.90147-6.38669 5.75C98.11101 484.94715 94.57493 487 94.13162 487c-.4433 0-3.91677-4.94948-7.71882-10.99884zm9.43141-43.9997C107.4799 424.57726 117 418.14406 117 417.70545c0-.4386-2.3625-1.89736-5.25-3.24169-13.55341-6.31002-30.7613-.24768-37.27744 13.13284-2.48965 5.11235-3.47892 20.09154-1.23931 18.76519.80034-.47399 10.97528-6.93613 22.61096-14.36033z"/><path fill="#4f4f4f" d="M245 510.57337c-40.57578-8.63459-54.43401-38.90042-39.10736-85.40895 1.61425-4.89843 3.81604-10.65183 4.89287-12.78533 1.07683-2.1335 2.25724-4.84844 2.62314-6.03321l.66526-2.15412-31.28695-.40866-31.28696-.40866-5.7945-3.22105c-3.18698-1.77158-7.02322-4.44333-8.52499-5.93722-3.48998-3.47169-8.18051-9.799-8.18051-11.03514 0-.52383-.67223-2.24135-1.49384-3.81672-2.04389-3.91899-1.99112-16.94296.0891-21.99219.87741-2.12966 2.18496-5.22212 2.90566-6.87212.72071-1.65 2.09458-5.15219 3.05305-7.78266.95847-2.63046 2.12592-5.01951 2.59434-5.30901.46842-.2895.85167-1.20267.85167-2.02927 0-1.43643 3.44254-9.70648 6.53958-15.7101.80323-1.55707 1.46042-3.27244 1.46042-3.81192 0-.53949 1.06217-3.31552 2.36037-6.16897 1.2982-2.85344 6.05183-14.18807 10.5636-25.18807 7.92398-19.31915 8.81673-21.48507 11.54111-28 .68999-1.65 1.81499-4.35 2.5-6 .68501-1.65 1.81001-4.35 2.5-6 .68999-1.65 1.81499-4.35 2.5-6 2.24402-5.40521 3.73697-8.95922 4.83085-11.5.59198-1.375 4.29062-10.375 8.2192-20 3.92858-9.625 7.62041-18.625 8.20407-20 1.67289-3.94107 3.46549-8.24284 4.79219-11.5.67208-1.65 1.6197-3.78179 2.10583-4.73731.48614-.95553 1.57981-3.65553 2.43039-6 4.59181-12.65652 4.64778-13.18099 5.15407-48.29861.50899-35.30473.0792-40.68317-3.53993-44.30233-3.62292-3.62292-6.86955-8.8122-7.99431-12.77777-1.4949-5.27053-1.49831-13.5637-.007-16.83693L202.32103 40h110.6086l1.13554 2.12177c.66775 1.2477.98872 5.26429.77914 9.75-.39517 8.45794-2.7047 14.1041-7.81095 19.09562-1.62825 1.59166-3.31435 4.16263-3.7469 5.71327C302.8539 78.2313 302.5 94.8 302.5 113.5c0 38.31752.19301 39.85707 7.0206 56 .69786 1.65 1.82931 4.35 2.51432 6 .68501 1.65 1.81001 4.35 2.5 6 .68999 1.65 1.69169 4.125 2.22601 5.5.53431 1.375 1.4617 3.625 2.06086 5 4.36763 10.02312 15.1773 36.67482 15.17771 37.42126.00027.50669.59554 1.63169 1.32281 2.5.72728.86831 1.93333 3.60374 2.68013 6.07874.7468 2.475 1.68665 4.95 2.08856 5.5.40191.55 1.50406 3.025 2.44922 5.5.94515 2.475 2.94615 7.2 4.44666 10.5 1.50052 3.3 3.50172 8.35721 4.44712 11.23824.94541 2.88103 2.13451 5.49509 2.64246 5.80901.50795.31393.92354 1.24709.92354 2.07369 0 1.32651 1.25662 4.41099 6.46917 15.87906.74997 1.65 2.14296 5.15219 3.09554 7.78266.95257 2.63046 2.1152 5.01951 2.58362 5.30901.46842.2895.85167 1.20267.85167 2.02927s1.06908 3.83754 2.37573 6.69099c2.04413 4.46393 13.77671 32.77818 17.56805 42.39699 2.16423 5.49074 1.0029 18.82266-2.18225 25.05202-3.45878 6.76451-9.81348 13.14318-16.76153 16.82476l-5.5 2.9143-64.5.5-64.5.5-4.16747 8.5c-9.47206 19.31931-14.2585 39.44389-12.29888 51.71066 1.33489 8.35605 3.66599 12.83599 9.45639 18.1734 8.97706 8.27476 21.09729 11.66889 38.16393 10.68735C340.3796 489.2738 404.97988 446.77376 437.52312 380.5c12.51314-25.4828 18.37039-47.46227 20.4963-76.91276 3.29206-45.60536-9.79751-90.66813-38.00752-130.84651-12.22954-17.41804-39.53085-42.80619-57.53639-53.50448-5.83516-3.46706-6.23788-3.98593-12.81435-16.51022-3.73442-7.11186-6.57752-13.143-6.318-13.40252.84106-.84106 22.89099 10.70179 32.65684 17.09542 53.87039 35.26856 88.65026 89.62815 98.58277 154.08107 2.29499 14.89241 2.30865 45.95495.0268 61-12.45612 82.12847-65.84854 148.20655-142.9733 176.94274C304.34294 508.61206 262.99152 514.402 245 510.57337zm114.60701-121.81323c8.17239-2.18578 15.36194-11.66685 15.36338-20.26014.00049-2.93606-2.39898-10.99399-3.86876-12.99212-.40776-.55433-1.35239-3.03288-2.09919-5.50788-.7468-2.475-1.87289-5.175-2.50244-6-.62955-.825-1.76373-3.525-2.5204-6s-1.90112-5.4-2.54322-6.5c-.6421-1.1-3.54126-7.85-6.44259-15-2.90132-7.15-6.15236-15.025-7.22452-17.5-1.93712-4.47168-2.76922-6.48272-4.86177-11.75-.60088-1.5125-1.72588-4.02397-2.5-5.58104-.77413-1.55707-1.4075-3.27244-1.4075-3.81192 0-.53949-1.14876-3.54052-2.5528-6.66897-2.96827-6.61382-4.75152-10.68999-6.20702-14.18807-.57212-1.375-3.46182-8.35-6.42155-15.5l-5.38133-13-60.75699-.25776-60.75699-.25776-2.98347 6.64957c-1.6409 3.65727-4.33823 10.48795-5.99407 15.17929-1.65584 4.69134-3.83937 10.14003-4.8523 12.10819-1.01292 1.96816-2.63954 5.37847-3.61472 7.57847-.97517 2.2-2.15682 4.78139-2.6259 5.73643-.46907.95504-.86109 2.30504-.87116 3-.0205 1.41276-4.21982 11.55197-11.91303 28.76357-2.82714 6.325-6.72723 15.55-8.66688 20.5-4.07003 10.38676-5.28271 13.31065-6.54279 15.77538-.49921.97646-2.00834 5.25967-3.35362 9.51825-1.34528 4.25858-3.12003 8.63465-3.94387 9.72462-5.23064 6.92024 2.7527 22.88062 13.03733 26.06438 5.72582 1.77251 198.42081 1.93936 205.00817.17751zM199.44484 364.8262c-.76638-2.41465 1.60524-4.8262 4.74629-4.8262 1.61822 0 1.80887-1.00126 1.80887-9.5V341h-2.93261c-3.72057 0-5.31308-3.61596-2.49881-5.6738 2.16319-1.58177 7.7937-1.73787 10.49716-.29102 1.74592.93439 1.93426 2.19341 1.93426 12.93045 0 11.4024.089 11.90851 2.14787 12.21482 2.6262.39071 4.39098 2.97294 3.54266 5.18363-.51659 1.34621-2.21524 1.63592-9.59176 1.63592-8.32464 0-9.0132-.15505-9.65393-2.1738zm64.03993.12581c-.78138-2.46192 1.0478-4.95201 3.63767-4.95201 1.70499 0 1.87756-.87318 1.87756-9.5 0-9.44721-.0138-9.5-2.48095-9.5-1.83959 0-2.65012-.67403-3.13535-2.60733-.80236-3.19689.7297-4.35626 5.78451-4.37736 6.88404-.02873 6.83179-.13269 6.83179 13.59168C276 358.89684 276.16102 360 277.80887 360c3.14105 0 5.51267 2.41155 4.74629 4.8262C281.91519 366.84258 281.22324 367 273 367c-8.05621 0-8.92454-.18689-9.51523-2.04799zm-28.66813-38.6698c-1.47586-.91552-2.93221-2.59105-3.23635-3.7234-.72036-2.68198-.71681-20.44872.005-23.13529 1.34138-4.99525 11.94454-7.24463 16.55431-3.51187 2.26488 1.83399 2.36078 2.44691 2.36078 15.08835s-.0959 13.25436-2.36078 15.08835c-2.95043 2.38911-9.62713 2.48626-13.32258.19386zM245 311v-10h-7v20h7zm50.66667 16.33333c-.36667-.36666-.66667-1.94166-.66667-3.5 0-2.48148.37255-2.83333 3-2.83333h3v-20h-3.06336c-2.85371 0-3.04191-.22242-2.75-3.25.30127-3.12463.49959-3.26188 5.14105-3.55796 7.35514-.4692 7.67231.12735 7.67231 14.4304V321h2.89301c3.3052 0 4.61979 2.17331 3.06822 5.07244-.89144 1.66568-2.15901 1.92756-9.32975 1.92756-4.56398 0-8.59815-.3-8.96481-.66667zM204.008 287.15847c-3.94164-1.17817-4.97706-4.59057-4.99326-16.45622-.0142-10.40076.0825-10.88791 2.63128-13.25 4.01096-3.71723 13.84917-3.15533 16.58867.94745.40408.60517.74158 6.54306.75 13.19531.0136 10.75289-.20212 12.29178-1.94411 13.86827-2.1577 1.95268-9.13487 2.86023-13.03258 1.69519zM213 271.5V262h-7v19h7zm51.11465 15.59202c-.91707-.58079-1.16414-1.75869-.73095-3.48469.48523-1.9333 1.29576-2.60733 3.13535-2.60733 2.46716 0 2.48095-.0528 2.48095-9.5 0-8.62682-.17257-9.5-1.87756-9.5-2.58987 0-4.41905-2.49009-3.63767-4.95201.53446-1.68393 1.4913-2.04799 5.38262-2.04799 2.60293 0 5.27261.54 5.93261 1.2.79774.79774 1.2 5.15556 1.2 13V281h2.93261c3.72057 0 5.31308 3.61596 2.49881 5.6738-2.05462 1.50238-15.10712 1.81761-17.31677.41822zM312.15561 212.25c-.47373-.9625-1.54196-3.325-2.37384-5.25-.83188-1.925-2.20071-5.075-3.04186-7-.84114-1.925-2.08982-4.85-2.77483-6.5-.68501-1.65-1.81001-4.35-2.5-6-.68999-1.65-1.70602-4.125-2.25784-5.5-.55183-1.375-1.67241-4.075-2.49019-6-.81777-1.925-2.04621-5.3-2.72985-7.5s-1.63627-5.0355-2.11694-6.30111c-.48068-1.26561-1.6561-5.76561-2.61204-10-2.3687-10.49226-2.6069-70.0642-.30868-77.19889 1.68293-5.22456 5.33621-11.4774 8.69748-14.88636 1.29414-1.3125 2.35298-3.45 2.35298-4.75V53h-85v2.36364c0 1.3 1.05884 3.4375 2.35298 4.75 3.56265 3.6132 7.06674 9.77806 8.95292 15.7512 2.39361 7.58003 2.4675 58.19386.10542 72.20894-1.53314 9.09671-6.74761 26.42466-8.53919 28.37622-.47967.5225-.8862 1.6475-.9034 2.5-.0172.8525-1.13809 3.8-2.49086 6.55s-2.4637 5.36537-2.46873 5.81193c-.005.44655-1.1579 3.37155-2.56194 6.5-1.40403 3.12844-3.25392 7.26307-4.11086 9.18807-.85694 1.925-1.962 4.2875-2.45568 5.25-.84961 1.65643 2.07078 1.75 54.61934 1.75 52.53474 0 55.47068-.094 54.65561-1.75zM86.5872 475.99884C82.78515 469.94948 79.28049 465 78.79905 465c-.48144 0-3.66796 1.77556-7.08116 3.94568l-6.20582 3.94569-3.6044-5.69569c-4.37205-6.90872-7.40796-14.91786-8.29887-21.89352-1.43838-11.2623 3.3164-26.78608 10.71141-34.97148l3.5438-3.92256-4.06898-6.95406C51.00419 377.59401 40.69306 346.40543 36.86583 318c-1.79479-13.32086-1.506-43.90264.543-57.5C47.01773 196.73418 82.79689 140.7071 136 106.1147 144.04974 100.8808 168.26519 88 170.055 88c.45889 0-.35549 2.5875-1.80974 5.75-1.45424 3.1625-3.37876 8.41686-4.27669 11.67635l-1.6326 5.92635-9.26285 5.60307c-34.9297 21.12888-61.61809 50.01236-79.04303 85.54423-23.4959 47.91142-27.03723 101.723-10.05097 152.72757 4.11138 12.34523 15.78135 37.49883 18.40946 39.67996 1.07437.89165 2.50873.89532 6.0033.0154 2.65238-.66788 8.71296-.97122 14.34987-.71824 8.24005.36982 10.80111.91943 16.46127 3.53262 7.74369 3.57514 15.39451 10.32394 20.92481 18.45784C142.25753 419.32747 144 422.124 144 422.40966c0 .28565-3.6 2.82867-8 5.65116-4.4 2.82248-8 5.45523-8 5.85057 0 .39533 2.8363 5.1895 6.3029 10.6537 3.46659 5.46421 6.6215 10.4624 7.01091 11.10709.89484 1.48147-14.19954 11.09831-15.1555 9.65577-.36207-.54635-3.58267-5.56865-7.15689-11.16065-3.57421-5.59202-6.86161-10.1673-7.30533-10.1673C110.45146 444 95 454.09796 95 454.91137c0 .39533 2.8363 5.1895 6.3029 10.6537 3.46659 5.46421 6.6215 10.4624 7.01091 11.10709.45064.74608-1.96188 2.83623-6.63683 5.75-4.03967 2.51781-7.53208 4.57732-7.76091 4.57668-.22884-.00063-3.52683-4.95063-7.32887-11zm10.19135-44.47701c11.1532-7.06779 20.1287-13.33907 19.94554-13.93618-1.24515-4.05933-17.7894-7.02418-25.38278-4.54878-12.77116 4.16333-22.03509 18.41759-19.78045 30.43587.6358 3.38913.80189 3.52229 2.80746 2.25092 1.17243-.74322 11.25703-7.13404 22.41023-14.20183z"/><path fill="#2c2c2c" d="M249.5 511.34213c-25.30579-3.97774-42.71891-17.72797-47.96709-37.87709-1.92098-7.37515-1.95882-22.79154-.0777-31.66754 1.96374-9.26592 7.08421-24.95505 10.06334-30.83408 1.3648-2.69331 2.48146-5.32284 2.48146-5.8434 0-.56714-12.32417-1.08759-30.75-1.29859l-30.75-.35212-6.49774-3.37411C140.13694 397.04949 132 389.99046 132 387.94783c0-.44273-.56333-1.39962-1.25185-2.1264-4.72469-4.98731-6.19721-21.14416-2.68353-29.44431 1.13554-2.68242 2.42533-5.77712 2.8662-6.87712.91589-2.28518 2.70722-6.63091 4.53426-11 .68999-1.65 1.81499-4.35 2.5-6 .68501-1.65 1.8731-4.4625 2.6402-6.25l2.78944-6.5c.7671-1.7875 1.93947-4.6 2.60528-6.25 1.22092-3.02567 2.8313-6.90167 4.77796-11.5.58209-1.375 4.7407-11.5 9.24135-22.5s8.7651-21.35 9.47656-23c.71147-1.65 1.85404-4.35 2.53905-6 .68501-1.65 1.81001-4.35 2.5-6 .68999-1.65 1.81499-4.35 2.5-6 .68501-1.65 1.82404-4.35 2.53118-6 2.6366-6.1521 4.32743-10.26996 8.41747-20.5 2.30889-5.775 5.23598-12.75 6.50465-15.5 1.26867-2.75 2.89595-6.8 3.61617-9 .72022-2.2 1.79825-4.675 2.39561-5.5.59736-.825 1.66164-3.3 2.36506-5.5 1.21785-3.80892 3.25951-8.68959 5.42074-12.95846 3.28544-6.48943 3.93759-13.49161 4.42266-47.48617.5092-35.68556.14373-40.20318-3.55128-43.89819-3.95661-3.95661-6.95083-8.941-8.0196-13.35-1.6082-6.63427-1.42321-13.95438.41912-16.58467L203.11341 40h109.56556l1.16051 2.54705c1.49139 3.27323 1.48798 11.5664-.007 16.83693-1.12476 3.96558-4.37139 9.15485-7.99431 12.77777-3.61916 3.61916-4.04892 8.9976-3.53993 44.30233.50629 35.11762.56226 35.64209 5.15407 48.29861.85058 2.34447 1.94425 5.04447 2.43039 6 .48613.95552 1.43375 3.08731 2.10583 4.73731 1.3267 3.25716 3.1193 7.55893 4.79219 11.5.58366 1.375 4.27549 10.375 8.20407 20s7.62722 18.625 8.2192 20c1.09388 2.54078 2.58683 6.09479 4.83085 11.5.68501 1.65 1.81001 4.35 2.5 6 .68999 1.65 1.81499 4.35 2.5 6 .68501 1.65 1.81001 4.35 2.5 6 2.72438 6.51493 3.61713 8.68085 11.54111 28 4.51177 11 9.2654 22.33463 10.5636 25.18807 1.2982 2.85345 2.36037 5.62948 2.36037 6.16897 0 .53948.65719 2.25485 1.46042 3.81192 3.09704 6.00362 6.53958 14.27367 6.53958 15.7101 0 .8266.38325 1.73977.85167 2.02927.46842.2895 1.62837 2.67855 2.57767 5.30901.94929 2.63047 2.11693 5.68266 2.59475 6.78266 4.89002 11.25751 5.13433 12.30135 4.71579 20.14818-.77055 14.44653-7.02955 24.01445-20.08176 30.69832L362.5 403.5l-64 .5-64 .5-4.70225 9.5c-5.58224 11.27786-10.34568 25.66307-11.88323 35.8864-3.5352 23.50598 8.02189 39.22719 31.81796 43.28222 9.1585 1.56068 31.59004-.13042 47.87878-3.60955C379.62477 472.0417 442.8685 405.72673 455.97964 323.5c5.26167-32.99862 2.80585-63.90154-7.58928-95.5-14.28427-43.42043-43.21217-80.83481-82.41905-106.59805l-9.52869-6.2614-6.79212-13.07027C345.91483 94.88163 343.12341 89 343.44735 89c1.35128 0 21.49126 10.56038 28.88181 15.14414 47.01191 29.15771 82.59806 77.03033 96.55815 129.89581 20.45835 77.47374-1.5974 158.22331-58.50117 214.182C376.17007 481.86974 334.06847 502.7427 287 509.3938c-11.35177 1.60409-32.6502 2.71066-37.5 1.94833zm110.69549-122.51885c2.16015-.64719 5.68935-2.88649 7.84267-4.97622 7.43807-7.2184 8.78839-15.29081 4.35441-26.03115-4.35319-10.54464-4.62907-11.21095-5.92749-14.31591-.68999-1.65-1.81499-4.35-2.5-6-.68501-1.65-1.86958-4.45593-2.63238-6.2354-1.44209-3.36412-3.23756-7.63388-5.36762-12.7646-.68501-1.65-1.81001-4.35-2.5-6-.68999-1.65-1.69169-4.125-2.22601-5.5-1.25218-3.22236-2.58724-6.41578-5.01678-12-1.0768-2.475-3.8668-9.225-6.19999-15-2.33319-5.775-5.25595-12.75-6.49502-15.5S330.70094 257.925 330 256c-.70094-1.925-2.33768-5.83463-3.63721-8.68807-1.29954-2.85345-2.36279-5.50987-2.36279-5.90316 0-.3933-1.34943-3.57116-2.99874-7.06193L318.00252 228H196.91635l-2.97998 6.64181c-1.63899 3.653-4.33475 10.48019-5.99059 15.17153-1.65584 4.69134-3.85672 10.14003-4.89084 12.10819-3.52396 6.70686-6.04856 12.69391-7.64911 18.13979-.87915 2.99127-3.49514 9.48868-5.81331 14.43868-5.06778 10.82121-8.80375 19.4481-12.76236 29.47011-1.62284 4.10856-3.29246 7.93356-3.71027 8.5-.4178.56644-1.37065 3.05489-2.11745 5.52989-.7468 2.475-1.8798 5.175-2.51778 6-.63798.825-1.94 4.47103-2.89338 8.10229-.95337 3.63126-2.60143 8.02963-3.66234 9.77417-5.05235 8.30792 1.54902 22.82263 12.11471 26.63709 4.86819 1.75754 200.33927 2.05122 206.15184.30973zM199.44484 364.8262c-.76638-2.41465 1.60524-4.8262 4.74629-4.8262 1.61822 0 1.80887-1.00126 1.80887-9.5V341h-2.93261c-3.72057 0-5.31308-3.61596-2.49881-5.6738 2.16319-1.58177 7.7937-1.73787 10.49716-.29102 1.74592.93439 1.93426 2.19341 1.93426 12.93045 0 11.4024.089 11.90851 2.14787 12.21482 2.6262.39071 4.39098 2.97294 3.54266 5.18363-.51659 1.34621-2.21524 1.63592-9.59176 1.63592-8.32464 0-9.0132-.15505-9.65393-2.1738zm64.03993.12581c-.78138-2.46192 1.0478-4.95201 3.63767-4.95201 1.70499 0 1.87756-.87318 1.87756-9.5 0-9.44721-.0138-9.5-2.48095-9.5-1.83959 0-2.65012-.67403-3.13535-2.60733-.80236-3.19689.7297-4.35626 5.78451-4.37736 6.88404-.02873 6.83179-.13269 6.83179 13.59168C276 358.89684 276.16102 360 277.80887 360c3.14105 0 5.51267 2.41155 4.74629 4.8262C281.91519 366.84258 281.22324 367 273 367c-8.05621 0-8.92454-.18689-9.51523-2.04799zm-28.64523-38.59665c-1.49505-.9609-2.9187-3.00117-3.25-4.65765-.76866-3.84333-.75889-17.60094.0153-21.47167.82722-4.13609 5.68012-6.71942 11.22548-5.97563 7.05899.94681 7.66973 2.28057 7.66973 16.74959 0 10.92651-.24889 12.89175-1.83338 14.47623-2.58509 2.5851-10.39973 3.08195-13.82708.87913zM245 311v-10h-7v20h7zm50.66667 16.33333c-.36667-.36666-.66667-1.94166-.66667-3.5 0-2.48148.37255-2.83333 3-2.83333h3v-20h-3.06336c-2.85371 0-3.04191-.22242-2.75-3.25.30127-3.12463.49959-3.26188 5.14105-3.55796 7.35514-.4692 7.67231.12735 7.67231 14.4304V321h2.89301c3.3052 0 4.61979 2.17331 3.06822 5.07244-.89144 1.66568-2.15901 1.92756-9.32975 1.92756-4.56398 0-8.59815-.3-8.96481-.66667zM204.008 287.15847c-3.94164-1.17817-4.97706-4.59057-4.99326-16.45622-.0142-10.40076.0825-10.88791 2.63128-13.25 4.01096-3.71723 13.84917-3.15533 16.58867.94745.40408.60517.74158 6.54306.75 13.19531.0136 10.75289-.20212 12.29178-1.94411 13.86827-2.1577 1.95268-9.13487 2.86023-13.03258 1.69519zM213 271.5V262h-7v19h7zm51.11465 15.59202c-.91707-.58079-1.16414-1.75869-.73095-3.48469.48523-1.9333 1.29576-2.60733 3.13535-2.60733 2.46716 0 2.48095-.0528 2.48095-9.5 0-8.62682-.17257-9.5-1.87756-9.5-2.58987 0-4.41905-2.49009-3.63767-4.95201.53446-1.68393 1.4913-2.04799 5.38262-2.04799 2.60293 0 5.27261.54 5.93261 1.2.79774.79774 1.2 5.15556 1.2 13V281h2.93261c3.72057 0 5.31308 3.61596 2.49881 5.6738-2.05462 1.50238-15.10712 1.81761-17.31677.41822zm47.27664-76.69795c-.82866-1.98326-1.86448-4.34576-2.30183-5.25-.86925-1.79721-3.1002-6.93661-5.05454-11.64407-.68501-1.65-1.82106-4.35-2.52455-6-6.09702-14.30023-10.11526-26.24585-12.61417-37.5-1.70839-7.69395-2.4617-63.13593-.95341-70.16884 1.4636-6.82453 5.26985-14.84567 8.96386-18.8901 1.59843-1.75006 3.11094-4.25273 3.36112-5.5615L300.72266 53H215v2.36364c0 1.3 1.05884 3.4375 2.35298 4.75 3.36127 3.40896 7.01455 9.6618 8.69748 14.88636 2.29822 7.13469 2.06002 66.70663-.30868 77.19889-.95594 4.23439-2.13136 8.73439-2.61204 10-.48067 1.26561-1.4333 4.10111-2.11694 6.30111s-1.91208 5.575-2.72985 7.5c-.81778 1.925-1.93836 4.625-2.49019 6-.55182 1.375-1.56785 3.85-2.25784 5.5-.68999 1.65-1.81499 4.35-2.5 6-2.78273 6.70282-6.89926 16.12649-8.19053 18.75-.81506 1.65598 2.11803 1.75 54.59611 1.75h55.45745zM91.52138 483.75c-1.05041-1.7875-4.29605-6.95624-7.21253-11.48608l-5.30268-8.23609-6.75309 4.38881-6.75308 4.3888-2.91403-4.65272c-6.24045-9.96388-7.96564-15.09023-8.4118-24.9954-.30842-6.84688.04457-11.06204 1.32136-15.77887 1.66131-6.13739 7.42773-16.45894 10.68857-19.13189 1.3373-1.09621.50254-3.29133-6.65499-17.5C43.05375 358.0407 35.73934 327.27191 35.81717 291c.04457-20.7691 1.89469-35.88797 6.67322-54.53252 15.88274-61.97021 57.37198-113.29322 115.22354-142.5338C164.17072 90.67017 169.80908 88 170.24362 88c.43454 0-.29883 2.14885-1.62972 4.77522-1.33088 2.62638-3.41204 8.04201-4.6248 12.03475-2.01077 6.62004-2.55713 7.43917-6.2023 9.29879-13.06626 6.66591-31.19832 20.31163-44.35703 33.38194-46.75412 46.44005-68.01205 111.67153-57.42707 176.21913 3.94188 24.03778 12.57172 48.16945 24.65132 68.93267l2.41002 4.14249 4.62691-1.39249c6.65262-2.00215 18.92729-1.76709 26.21809.50206 10.99175 3.42102 22.08441 12.55518 27.82229 22.91004l2.23134 4.02677-7.98134 5.11981C131.5916 430.76708 128 433.49406 128 434.01115c0 .51709 2.83692 5.33862 6.30427 10.71451 3.46735 5.37589 6.61575 10.29127 6.99643 10.92306.43118.71562-2.15648 2.9242-6.86319 5.85776-4.15543 2.58997-7.69474 4.54804-7.86512 4.35128-.17039-.19677-3.34946-5.19526-7.0646-11.10776-3.71514-5.9125-7.26172-10.74201-7.88129-10.73225C109.88758 444.04516 95 453.84517 95 454.96243c0 .54389 2.83692 5.38734 6.30427 10.76323 3.46735 5.37589 6.61575 10.29127 6.99643 10.92306.43077.71493-2.0957 2.88632-6.6903 5.75C97.55006 484.92943 94.04869 487 93.82959 487c-.2191 0-1.2578-1.4625-2.30821-3.25zm4.22252-51.37667c10.86586-6.90956 20.32728-13.10745 21.0254-13.7731 1.0119-.96483.47498-1.65669-2.64769-3.41172-12.94526-7.27565-29.53849-3.29435-37.8018 9.06997-3.71264 5.55522-5.87272 13.98072-4.90574 19.13517.82069 4.37465-1.61501 5.47791 24.32983-11.02032z"/><path fill="#000" d="M248.53573 510.87255c-13.23119-1.89486-26.4573-8.1654-34.90995-16.55091-9.24287-9.16945-13.59325-20.47784-13.61391-35.38798-.0194-13.99404 3.49304-28.79454 10.92392-46.03061l3.74957-8.6972-31.09268-.3939-31.09268-.39389-6.11806-3.15682c-12.48426-6.44168-19.5034-16.98948-20.1889-30.33829-.39745-7.73968.60317-11.11696 9.31005-31.42295.70749-1.65 1.84682-4.35 2.53183-6 1.64073-3.95207 3.3089-7.77318 6.41228-14.68807 1.40404-3.12845 2.5528-6.36439 2.5528-7.19099s.38325-1.73977.85167-2.02927c.46842-.2895 1.63587-2.67855 2.59434-5.30901.95847-2.63047 2.37522-6.24516 3.14833-8.03266l2.81132-6.5c.77311-1.7875 2.18986-5.40219 3.14833-8.03266.95847-2.63046 2.12592-5.01951 2.59434-5.30901.46842-.2895.85167-1.20267.85167-2.02927s1.14876-4.06254 2.5528-7.19099c1.40403-3.12844 3.15133-7.03807 3.88289-8.68807 1.03445-2.33319 13.97143-33.82096 18.48857-45 1.88225-4.6582 5.18363-12.57454 7.40844-17.7646.7628-1.77947 1.94737-4.5854 2.63238-6.2354.68501-1.65 1.81001-4.35 2.5-6 .68999-1.65 1.71927-4.125 2.2873-5.5.56802-1.375 2.25188-5.425 3.74191-9 5.6164-13.47531 5.70495-14.19358 6.21312-50.39633.26169-18.64297.18779-35.81686-.16422-38.1642-.43108-2.8747-1.85411-5.68323-4.3593-8.60367-3.88298-4.52663-5.29253-7.05438-7.10146-12.73502-1.59171-4.99855-1.34429-13.2819.47427-15.87827L203.11341 40h108.77318l1.55671 2.2225c1.85481 2.64812 2.01441 9.642.38148 16.71626-.80159 3.47269-2.54248 6.69312-5.47585 10.12964-2.36534 2.77107-4.80602 6.72518-5.42373 8.78691-.78094 2.60655-.97318 14.3959-.63101 38.69665.48926 34.74623 1.00281 40.15605 4.468 47.06642 1.66335 3.31709 3.98804 8.78087 5.26805 12.38162.6843 1.925 2.30744 5.83463 3.60697 8.68807 1.29954 2.85345 2.36279 5.80095 2.36279 6.55 0 .74906.40922 1.78943.90937 2.31193.50016.5225 2.34448 4.55 4.09849 8.95 1.75401 4.4 3.76176 9.125 4.46166 10.5s1.83862 4.3 2.53048 6.5c.69186 2.2 1.80656 5.125 2.47711 6.5 2.39558 4.91229 4.38204 9.5729 6.0876 14.28266.95257 2.63046 2.1152 5.01951 2.58362 5.30901.46842.2895.85167 1.20267.85167 2.02927s1.06908 3.83754 2.37573 6.69099c1.30665 2.85344 5.60065 13.06307 9.54223 22.68807 3.94159 9.625 7.5373 18.4 7.99048 19.5 2.00357 4.86323 3.39003 8.21022 4.55664 11 .68999 1.65 1.81499 4.35 2.5 6 .68501 1.65 1.8731 4.4625 2.6402 6.25l2.78944 6.5c.7671 1.7875 1.95519 4.6 2.6402 6.25.68501 1.65 1.81001 4.35 2.5 6 1.64227 3.92723 2.64917 6.40164 6.47694 15.91665 2.82004 7.01 3.14018 8.78513 2.79538 15.5-.68487 13.33786-7.6611 23.83737-20.18918 30.38556L362.5 403.5l-64.13134.30955-64.13135.30955-5.00483 10.69045c-20.3246 43.4139-14.85147 69.60232 16.22762 77.64759 16.69637 4.3221 56.78255-1.4155 83.5399-11.9572 27.49189-10.83109 50.36311-25.98447 71.20668-47.17815 16.7778-17.05961 27.83193-32.53837 37.89745-53.06661 45.36337-92.51682 13.68367-204.61229-73.48152-260.00708l-7.8774-5.0062-6.95486-13.14472-6.95485-13.14471 5.83225 2.57844c21.35219 9.43983 46.10461 26.97984 64.51277 45.71489 31.28908 31.84472 51.29261 70.60538 60.00583 116.2728 2.00915 10.53025 2.28563 15.06987 2.28273 37.4814-.004 27.68707-.74767 34.10296-6.61068 57-17.77135 69.40317-73.58729 128.92035-142.51592 151.96636-25.30137 8.45941-60.47001 13.38901-77.80675 10.90619zm112.86592-122.3959c8.45956-3.53463 15.43123-15.0879 13.63904-22.60227-.83078-3.48331-2.25933-7.52688-4.19512-11.87438-.61224-1.375-1.54458-3.625-2.07187-5s-1.59208-3.77397-2.3662-5.33104c-.77413-1.55707-1.4075-3.27244-1.4075-3.81192 0-.53949-1.14876-3.54052-2.5528-6.66897-3.10338-6.91489-4.77155-10.736-6.41228-14.68807-1.85317-4.46377-3.62328-8.69081-4.81572-11.5-.58366-1.375-4.27549-10.375-8.20407-20s-7.62722-18.625-8.2192-20c-1.09388-2.54078-2.58683-6.09479-4.83085-11.5-.68501-1.65-1.81001-4.35-2.5-6-.68999-1.65-1.81499-4.35-2.5-6-.68501-1.65-1.83205-4.35-2.54899-6-.71693-1.65-1.88869-4.4625-2.60391-6.25l-1.3004-3.25h-121.5143l-2.91613 6.25c-1.60387 3.4375-4.29681 10.20494-5.98429 15.03875-3.0084 8.61754-4.80035 12.71473-5.99676 13.71125-.73605.61307-2.40922 4.90735-6.21737 15.95726-1.60305 4.65149-4.7475 12.30149-6.98767 17-2.24017 4.69851-4.42187 9.44274-4.84822 10.54274-.42636 1.1-1.72838 4.05832-2.8934 6.57405-1.16501 2.51573-2.80915 6.53241-3.65364 8.92595-.84449 2.39354-2.48863 6.41022-3.65364 8.92595-1.16502 2.51573-2.55442 5.69905-3.08756 7.07405-.53315 1.375-1.55349 3.85-2.26742 5.5-2.04903 4.73557-2.73278 6.82497-3.06908 9.3784-.17228 1.30812-1.46278 4.72797-2.86777 7.59967-4.22589 8.63741-2.93383 16.07596 3.99606 23.00586 6.74816 6.74815-.18507 6.34471 110.57729 6.4345 87.9957.0713 101.08555-.10966 104.27377-1.44178zM200.2355 365.8355c-.67953-.67953-1.2355-1.65839-1.2355-2.17526 0-1.36839 3.2166-3.59148 5.25-3.62844 1.54075-.028 1.75-1.1598 1.75-9.46538v-9.43358l-2.64914-.31642c-3.79519-.45331-5.4417-3.49482-2.90973-5.37499 2.26334-1.68069 7.84453-1.8941 10.62461-.40625 1.7438.93326 1.93426 2.19171 1.93426 12.78077v11.74557l3.07712 1.16149c2.39745.90493 3.00487 1.67121 2.75 3.46924-.30864 2.1774-.80805 2.32388-8.84162 2.59325-5.76634.19335-8.91328-.11328-9.75-.95zm63.22133-.97153c-.7268-2.28994 1.514-4.86397 4.2343-4.86397.98664 0 1.30887-2.33878 1.30887-9.5 0-9.39649-.0265-9.5-2.43261-9.5-1.61919 0-2.66332-.72688-3.12255-2.1738-1.20894-3.80901 3.93441-5.90321 10.30516-4.19591 2.17974.58414 2.25.98966 2.25 12.98634 0 11.1149.17926 12.38663 1.75 12.41517.9625.0175 2.64006.7046 3.72792 1.5269 1.55874 1.17825 1.74827 1.86027.89433 3.2182-.86175 1.37035-2.83699 1.78201-9.64854 2.01088-8.08217.27155-8.60452.16311-9.26688-1.92381zm-28.61729-38.56786c-1.52078-.94357-2.913-2.9134-3.25-4.5984-.7632-3.816-.76107-17.59005.003-21.41195 1.11886-5.59429 9.51895-8.10493 15.4316-4.61224 3.55949 2.10264 3.94824 3.61172 3.94824 15.32648 0 5.225-.25092 10.43442-.5576 11.57648-1.28941 4.8017-10.34573 6.96446-15.57555 3.71963zM245 311v-10h-7v20h7zm50.66667 16.33333c-.36667-.36666-.66667-1.94166-.66667-3.5 0-2.48148.37255-2.83333 3-2.83333h3v-20h-3.06336c-2.85371 0-3.04191-.22242-2.75-3.25.30127-3.12463.49959-3.26188 5.14105-3.55796 7.35514-.4692 7.67231.12735 7.67231 14.4304V321h2.89301c3.3052 0 4.61979 2.17331 3.06822 5.07244-.89144 1.66568-2.15901 1.92756-9.32975 1.92756-4.56398 0-8.59815-.3-8.96481-.66667zm-91.09595-40.007c-4.39006-1.23339-5.0555-3.13875-5.4038-15.47275-.33171-11.74649-.32184-11.8055 2.39602-14.32433 4.09218-3.7925 13.90014-3.28041 16.67175.87045.40408.60517.74158 6.54306.75 13.19531.0132 10.44589-.23326 12.31997-1.80777 13.74488-1.91983 1.73743-9.3341 2.90574-12.6062 1.98644zM213 271.5V262h-7v19h7zm51.56858 15.1738c-2.57992-1.88648-1.2457-5.6738 1.99881-5.6738 2.4061 0 2.43261-.10351 2.43261-9.5 0-7.16122-.32223-9.5-1.30887-9.5-2.69509 0-4.96076-2.5751-4.24629-4.8262.58029-1.82833 1.44206-2.1738 5.42255-2.1738 2.60293 0 5.27261.54 5.93261 1.2.79697.79697 1.2 5.1408 1.2 12.93358v11.73358l2.64914.31642c3.79519.45331 5.4417 3.49482 2.90973 5.37499-2.51396 1.8668-14.48386 1.94799-16.99029.11523zM312.7323 213.75c-.61313-1.59111-9.5625-23.26806-11.25021-27.25-.69934-1.65-1.832-4.35-2.51701-6-.68501-1.65-1.81001-4.35-2.5-6-7.86186-18.80042-8.72975-25.75035-8.30435-66.5L288.5 75.5l2.93803-5.79844c1.61591-3.18914 4.13586-7.05186 5.59988-8.58381 1.46402-1.53196 2.96298-3.98516 3.33102-5.45156L301.0381 53h-86.76076l.45489 2.37957c.25018 1.30876 1.76269 3.81143 3.36112 5.5615 3.69401 4.04442 7.50026 12.06556 8.96386 18.89009 1.59571 7.44052.58204 62.18496-1.32705 71.66884-1.99833 9.92722-6.89361 23.90323-13.37588 38.18807-1.29485 2.85345-2.35428 5.62948-2.35428 6.16897 0 .53948-.65621 2.25485-1.45825 3.81192-3.38457 6.57078-6.33374 13.8586-5.89527 14.56805.25935.41964 25.24314.76299 55.51953.76299 43.6286 0 54.94805-.2593 54.56629-1.25zM93.20237 485.68011C92.6928 485.03105 89.45023 480 85.99668 474.5c-3.45355-5.5-6.39892-10.1458-6.54527-10.324-.14634-.1782-3.1689 1.5093-6.7168 3.75-3.5479 2.2407-6.70492 4.074-7.0156 4.074-1.42911 0-8.00042-12.19183-9.87056-18.31296-3.15869-10.33871-2.39218-22.80055 1.9763-32.13029 1.78807-3.81879 4.79726-8.83021 6.68708-11.13649l3.43604-4.19324-4.97705-8.86351c-12.83057-22.84964-21.85928-50.4729-25.4499-77.86376-1.7452-13.31313-2.0021-41.07691-.49526-53.52598C46.0351 191.54012 90.9273 127.65866 157.81291 94.09389 163.39582 91.29225 168.36927 89 168.86501 89c.49575 0-.39299 3.2625-1.97497 7.25s-3.3196 9.05-3.86138 11.25c-.83813 3.4034-1.77134 4.43576-6.25685 6.92164-16.12815 8.93822-35.22196 23.85483-48.11732 37.59058-28.5603 30.42156-46.00472 65.9272-53.30153 108.48778-2.71182 15.81739-2.45318 47.24012.52679 64 2.81298 15.82072 7.50628 31.62959 13.69305 46.12351 4.2471 9.94978 6.36632 14.15643 11.5779 22.98201l1.83383 3.10552 5.25774-1.42306c3.47348-.94014 8.37404-1.27894 14.44071-.99837 7.94331.36735 10.18816.90204 16.62891 3.96074 10.31325 4.89774 17.05247 11.46177 23.99148 23.36778.39055.6701-2.73232 3.22485-7.79369 6.37584-9.7289 6.0568-9.72737 3.98295-.014 18.9994l6.23903 9.64523-7.39536 4.66916-7.39536 4.66917-6.95353-10.73846c-3.82445-5.90616-7.09451-11.13644-7.2668-11.62284-.1723-.4864-4.44839 1.72217-9.50243 4.90794l-9.18916 5.7923 2.18017 3.59206c1.1991 1.97564 4.50513 7.22455 7.34676 11.66424l5.1666 8.07218-7.29838 4.60793c-5.32995 3.36515-7.54825 4.28966-8.22488 3.42783zM95.9138 432.5c12.13798-7.7 22.07291-14.3624 22.07763-14.80532.005-.44293-2.57893-2.00888-5.74143-3.47989-17.808-8.28322-38.62904 3.30309-40.93574 22.77956-.62215 5.25309.22939 10.33992 1.645 9.82669.48701-.17657 10.81656-6.62104 22.95454-14.32104z"/></g></g></svg>