<svg xmlns="http://www.w3.org/2000/svg" role="img" viewBox="-1.02 -0.96 49.98 13.48"><title>phenofit logo</title><g id="text2" transform="translate(-1.084 9.176)"><path id="path10" d="m 6.84375,-3.3515625 q 0,0.796875 -0.2285156,1.4589844 -0.2285157,0.65625 -0.6445313,1.11328123 -0.3867187,0.43359374 -0.9140625,0.67382812 -0.5214844,0.234375 -1.1074218,0.234375 -0.5097657,0 -0.9257813,-0.11132812 Q 2.6132813,-0.09375 2.1855469,-0.328125 V 2.4140625 H 1.0839844 V -6.5449219 H 2.1855469 V -5.859375 Q 2.625,-6.2285156 3.1699219,-6.4746094 q 0.5507812,-0.2519531 1.171875,-0.2519531 1.1835937,0 1.8398437,0.8964844 0.6621094,0.890625 0.6621094,2.4785156 z m -1.1367188,0.029297 q 0,-1.1835938 -0.4042968,-1.7695313 -0.4042969,-0.5859375 -1.2421875,-0.5859375 -0.4746094,0 -0.9550781,0.2050782 Q 2.625,-5.2675781 2.1855469,-4.9335937 v 3.7089843 q 0.46875,0.2109375 0.8027344,0.2871094 0.3398437,0.0761719 0.7675781,0.0761719 0.9199218,0 1.4355468,-0.6210938 0.515625,-0.6210937 0.515625,-1.8398436 z"/><path id="path12" d="m 14.033203,0 h -1.101562 v -3.7265625 q 0,-0.4511719 -0.05274,-0.84375 -0.05273,-0.3984375 -0.193359,-0.6210937 -0.146484,-0.2460938 -0.421875,-0.3632813 -0.275391,-0.1230469 -0.714844,-0.1230469 -0.451172,0 -0.943359,0.2226563 -0.492188,0.2226562 -0.9433596,0.5683594 V 0 H 8.5605469 v -9.1171875 h 1.1015625 v 3.2988281 q 0.5156246,-0.4277343 1.0664066,-0.6679687 0.550781,-0.2402344 1.130859,-0.2402344 1.060547,0 1.617188,0.6386719 0.55664,0.6386719 0.55664,1.8398437 z"/><path id="path14" d="m 21.632812,-3.1582031 h -4.822265 q 0,0.6035156 0.18164,1.0546875 0.181641,0.4453125 0.498047,0.7324219 0.304688,0.28125 0.720703,0.42187495 0.421875,0.140625 0.925782,0.140625 0.667968,0 1.341797,-0.26367185 0.679687,-0.2695313 0.966796,-0.5273438 h 0.05859 v 1.2011719 q -0.55664,0.234375 -1.136719,0.39257812 -0.580078,0.15820313 -1.21875,0.15820313 -1.628906,0 -2.542968,-0.87890625 -0.914063,-0.8847656 -0.914063,-2.5078125 0,-1.6054687 0.873047,-2.5488281 0.878906,-0.9433594 2.308594,-0.9433594 1.324219,0 2.039062,0.7734375 0.720703,0.7734375 0.720703,2.1972656 z m -1.072265,-0.84375 q -0.0059,-0.8671875 -0.439453,-1.3417969 -0.427735,-0.4746094 -1.306641,-0.4746094 -0.884766,0 -1.412109,0.5214844 -0.521485,0.5214844 -0.591797,1.2949219 z"/><path id="path16" d="m 28.775391,0 h -1.101563 v -3.7265625 q 0,-0.4511719 -0.05273,-0.84375 -0.05273,-0.3984375 -0.19336,-0.6210937 -0.146484,-0.2460938 -0.421875,-0.3632813 -0.27539,-0.1230469 -0.714843,-0.1230469 -0.451172,0 -0.94336,0.2226563 -0.492187,0.2226562 -0.943359,0.5683594 V 0 h -1.101563 v -6.5449219 h 1.101563 v 0.7265625 q 0.515625,-0.4277343 1.066406,-0.6679687 0.550781,-0.2402344 1.130859,-0.2402344 1.060547,0 1.617188,0.6386719 0.556641,0.6386719 0.556641,1.8398437 z"/><path id="path18" d="m 36.474609,-3.2695313 q 0,1.5996094 -0.820312,2.52539068 -0.820313,0.92578124 -2.197266,0.92578124 -1.388672,0 -2.208984,-0.92578124 -0.814453,-0.92578128 -0.814453,-2.52539068 0,-1.5996093 0.814453,-2.5253906 0.820312,-0.9316406 2.208984,-0.9316406 1.376953,0 2.197266,0.9316406 0.820312,0.9257813 0.820312,2.5253906 z m -1.136718,0 q 0,-1.2714843 -0.498047,-1.8867187 -0.498047,-0.6210937 -1.382813,-0.6210937 -0.896484,0 -1.394531,0.6210937 -0.492188,0.6152344 -0.492188,1.8867187 0,1.2304688 0.498047,1.8691407 0.498047,0.63281248 1.388672,0.63281248 0.878906,0 1.376953,-0.62695308 0.503907,-0.6328126 0.503907,-1.8750001 z"/><path id="path20" d="m 41.701172,-8.0507813 h -0.05859 q -0.181641,-0.052734 -0.474609,-0.1054687 -0.292969,-0.058594 -0.515625,-0.058594 -0.708985,0 -1.03125,0.3164063 -0.316407,0.3105469 -0.316407,1.1308594 v 0.2226562 h 1.986329 v 0.9257813 H 39.339844 V 0 h -1.101563 v -5.6191406 h -0.74414 v -0.9257813 h 0.74414 v -0.2167968 q 0,-1.1660157 0.580078,-1.7871094 0.580078,-0.6269532 1.675782,-0.6269532 0.36914,0 0.662109,0.035156 0.298828,0.035156 0.544922,0.082031 z"/><path id="path22" d="m 43.582031,-7.640625 h -1.242187 v -1.1425781 h 1.242187 z M 43.511719,0 h -1.101563 v -6.5449219 h 1.101563 z"/><path id="path24" d="m 49.089844,-0.05859375 q -0.310547,0.08203125 -0.679688,0.13476562 -0.363281,0.05273438 -0.65039,0.05273438 -1.001954,0 -1.523438,-0.5390625 -0.521484,-0.5390625 -0.521484,-1.72851565 v -3.4804687 h -0.744141 v -0.9257813 h 0.744141 v -1.8808594 h 1.101562 v 1.8808594 h 2.273438 v 0.9257813 h -2.273438 v 2.9824218 q 0,0.515625 0.02344,0.8085938 0.02344,0.2871094 0.164062,0.5390625 0.128906,0.234375 0.351563,0.34570312 0.228515,0.10546875 0.691406,0.10546875 0.269531,0 0.5625,-0.0761719 0.292969,-0.0820313 0.421875,-0.13476557 h 0.05859 z"/></g></svg>