<svg xmlns="http://www.w3.org/2000/svg" role="img" viewBox="-0.64 -0.58 30.16 12.66"><title>plant logo</title><g id="text2" transform="translate(-1.084 9.117)"><path id="path10" d="m 6.84375,-3.3515625 q 0,0.796875 -0.2285156,1.4589844 -0.2285157,0.65625 -0.6445313,1.11328123 -0.3867187,0.43359374 -0.9140625,0.67382812 -0.5214844,0.234375 -1.1074218,0.234375 -0.5097657,0 -0.9257813,-0.11132812 Q 2.6132813,-0.09375 2.1855469,-0.328125 V 2.4140625 H 1.0839844 V -6.5449219 H 2.1855469 V -5.859375 Q 2.625,-6.2285156 3.1699219,-6.4746094 q 0.5507812,-0.2519531 1.171875,-0.2519531 1.1835937,0 1.8398437,0.8964844 0.6621094,0.890625 0.6621094,2.4785156 z m -1.1367188,0.029297 q 0,-1.1835938 -0.4042968,-1.7695313 -0.4042969,-0.5859375 -1.2421875,-0.5859375 -0.4746094,0 -0.9550781,0.2050782 Q 2.625,-5.2675781 2.1855469,-4.9335937 v 3.7089843 q 0.46875,0.2109375 0.8027344,0.2871094 0.3398437,0.0761719 0.7675781,0.0761719 0.9199218,0 1.4355468,-0.6210938 0.515625,-0.6210937 0.515625,-1.8398436 z"/><path id="path12" d="M 9.6738281,0 H 8.5722656 v -9.1171875 h 1.1015625 z"/><path id="path14" d="M 16.939453,0 H 15.84375 v -0.69726562 q -0.146484,0.0996094 -0.398437,0.28124999 -0.246094,0.17578125 -0.480469,0.28125001 Q 14.689453,0 14.332031,0.08789062 q -0.357422,0.09375 -0.83789,0.09375 -0.884766,0 -1.5,-0.5859375 -0.615235,-0.5859375 -0.615235,-1.49414062 0,-0.7441406 0.316407,-1.2011719 0.322265,-0.4628906 0.914062,-0.7265625 0.597656,-0.2636718 1.435547,-0.3574218 0.837891,-0.09375 1.798828,-0.140625 v -0.1699219 q 0,-0.375 -0.134766,-0.6210938 -0.128906,-0.2460937 -0.375,-0.3867187 -0.234375,-0.1347656 -0.5625,-0.1816406 -0.328125,-0.046875 -0.685546,-0.046875 -0.433594,0 -0.966797,0.1171875 -0.533203,0.1113281 -1.101563,0.328125 h -0.05859 V -6.4042969 Q 12.28125,-6.4921875 12.890625,-6.5976562 13.5,-6.703125 14.091797,-6.703125 q 0.691406,0 1.201172,0.1171875 0.515625,0.1113281 0.890625,0.3867188 0.36914,0.2695312 0.5625,0.6972656 0.193359,0.4277344 0.193359,1.0605469 z M 15.84375,-1.6113281 v -1.8222657 q -0.503906,0.029297 -1.189453,0.087891 -0.679688,0.058594 -1.078125,0.1699218 -0.474609,0.1347657 -0.767578,0.421875 -0.292969,0.28125 -0.292969,0.7792969 0,0.5625 0.339844,0.8496094 0.339844,0.28125 1.037109,0.28125 0.580078,0 1.060547,-0.2226562 0.480469,-0.2285157 0.890625,-0.5449222 z"/><path id="path16" d="m 24.533203,0 h -1.101562 v -3.7265625 q 0,-0.4511719 -0.05273,-0.84375 -0.05273,-0.3984375 -0.193359,-0.6210937 -0.146485,-0.2460938 -0.421875,-0.3632813 -0.275391,-0.1230469 -0.714844,-0.1230469 -0.451172,0 -0.943359,0.2226563 -0.492188,0.2226562 -0.94336,0.5683594 V 0 h -1.101562 v -6.5449219 h 1.101562 v 0.7265625 q 0.515625,-0.4277343 1.066407,-0.6679687 0.550781,-0.2402344 1.130859,-0.2402344 1.060547,0 1.617187,0.6386719 0.556641,0.6386719 0.556641,1.8398437 z"/><path id="path18" d="m 30.052734,-0.05859375 q -0.310547,0.08203125 -0.679687,0.13476562 -0.363281,0.05273438 -0.650391,0.05273438 -1.001953,0 -1.523437,-0.5390625 -0.521485,-0.5390625 -0.521485,-1.72851565 v -3.4804687 h -0.74414 v -0.9257813 h 0.74414 v -1.8808594 h 1.101563 v 1.8808594 h 2.273437 v 0.9257813 h -2.273437 v 2.9824218 q 0,0.515625 0.02344,0.8085938 0.02344,0.2871094 0.164063,0.5390625 0.128906,0.234375 0.351562,0.34570312 0.228516,0.10546875 0.691407,0.10546875 0.269531,0 0.5625,-0.0761719 0.292968,-0.0820313 0.421875,-0.13476557 h 0.05859 z"/></g></svg>