<svg xmlns="http://www.w3.org/2000/svg" role="img" viewBox="-8.39 -8.39 436.54 113.79"><title>plantFEM logo</title><path fill="green" d="M395.05017 14.96746l-24.4922-7.25695-42.18102-4.08203L272.13559.90712l-62.13762 2.2678-48.98441.90712-51.70577 4.08203-43.99525 4.98915-40.20271 4.08204L0 20.86373l36.7383 2.2678 39.45966.45356 68.94102 4.08203 74.83729 1.36068 62.13763-.45356 62.13763-2.2678 39.91322-1.81423 13.15322-4.08204 3.17492-1.36067 19.50305-14.5139L418.63526 0l-24.03865 16.32814"/><g transform="translate(189.134 -199.113)"><path d="M-38.31828 277.01608q0 2.65625-.76172 4.86328-.76172 2.1875-2.14844 3.71094-1.28906 1.44531-3.04687 2.2461-1.73829.78125-3.69141.78125-1.69922 0-3.08594-.3711-1.36719-.37109-2.79297-1.15234v9.14062h-3.67187v-29.86328h3.67187v2.28516q1.46485-1.23047 3.28125-2.05078 1.83594-.83985 3.90625-.83985 3.94532 0 6.13282 2.98828 2.20703 2.96875 2.20703 8.26172zm-3.78907.0977q0-3.94531-1.34765-5.89844-1.34766-1.95312-4.14063-1.95312-1.58203 0-3.1836.68359-1.60155.68359-3.0664 1.79688v12.36328q1.5625.70312 2.67578.95703 1.13282.2539 2.5586.2539 3.0664 0 4.78515-2.07031t1.71875-6.13281z"/><path d="M-28.88469 288.18796h-3.67187v-30.39063h3.67187z"/><path d="M-4.66594 288.18796h-3.65234v-2.32422q-.48828.33203-1.32813.9375-.82031.58594-1.60156.9375-.91797.44922-2.10938.74219-1.1914.3125-2.79296.3125-2.94922 0-5-1.95313-2.05079-1.95312-2.05079-4.98047 0-2.48047 1.0547-4.0039 1.07421-1.54297 3.04687-2.42188 1.99218-.8789 4.78515-1.1914 2.79297-.3125 5.9961-.46875v-.56641q0-1.25-.44922-2.07031-.42969-.82032-1.25-1.28907-.78125-.44921-1.875-.60546t-2.28516-.15625q-1.44531 0-3.22265.39062-1.77735.37109-3.67188 1.09375h-.19531v-3.73047q1.07422-.29297 3.10547-.64453 2.03125-.35156 4.0039-.35156 2.3047 0 4.0039.39062 1.71876.3711 2.96876 1.28907 1.23047.89843 1.875 2.32421.64453 1.42579.64453 3.53516zm-3.65234-5.3711v-6.07421q-1.6797.0976-3.96485.29296-2.26562.19532-3.59375.56641-1.58203.44922-2.5586 1.40625-.97655.9375-.97655 2.59766 0 1.875 1.1328 2.83203 1.13282.9375 3.45704.9375 1.9336 0 3.53516-.74219 1.60156-.76172 2.96875-1.81641z"/><path d="M20.64656 288.18796H16.9747v-12.42188q0-1.5039-.17579-2.8125-.17578-1.32812-.64453-2.07031-.48828-.82031-1.40625-1.21094-.91797-.41015-2.3828-.41015-1.50392 0-3.14454.74218-1.64063.74219-3.14453 1.89454v16.28906H2.40437v-21.81641h3.67188v2.42188q1.71875-1.42578 3.55469-2.22657 1.83593-.80078 3.76953-.80078 3.53515 0 5.39062 2.12891 1.85547 2.12891 1.85547 6.13281z"/><path d="M39.045 287.99265q-1.03516.27343-2.26563.44921-1.21093.17579-2.16797.17579-3.33984 0-5.07812-1.79688-1.73828-1.79687-1.73828-5.76172v-11.60156h-2.48047v-3.08594H27.795v-6.26953h3.67187v6.26953H39.045v3.08594h-7.57813v9.94141q0 1.71875.07813 2.69531.07813.95703.54688 1.79687.42969.78125 1.17187 1.15235.76172.35156 2.3047.35156.89843 0 1.875-.25391.97655-.27343 1.40624-.44922h.19531z"/><path d="M62.34578 262.54343H47.63875v8.20312h12.63672v3.4375H47.63875v14.00391h-3.86719v-29.08203h18.57422z"/><path d="M85.92 288.18796H66.75984v-29.08203H85.92v3.4375H70.62703v7.96875H85.92v3.4375H70.62703v10.80078H85.92z"/><path d="M117.95125 288.18796h-3.86719v-25.0586l-8.08594 17.05079h-2.30468l-8.02735-17.05079v25.0586h-3.61328v-29.08203h5.27344l7.7539 16.1914 7.5-16.1914h5.3711z"/></g></svg>