<svg xmlns="http://www.w3.org/2000/svg" role="img" viewBox="-3.06 -3.06 158.99 57.99"><title>Planet Snowcover logo</title><g id="g2366" transform="matrix(1.25 0 0 -1.25 -306.926 511.573)"><path id="path2364" fill="#4b2e83" d="m 67.299,1.0273 v 2.5196 h 1.596 l 2.804,11.264 h 3.932 l 1.869,-7.0493 1.791,7.0493 h 3.934 l 2.959,-11.264 1.517,-10e-5 V 1.0272 H 82.289 V 3.5468 H 84.08 L 82.133,10.8769 79.719,1.0272 H 77.227 L 74.58,10.9549 72.672,3.5468 h 1.947 V 1.0272 h -7.32 z m 75.821,21.106 c -1.95,0 -3.04,2.031 -3.04,3.961 0,1.928 1.09,3.961 3.04,3.961 1.95,0 3.04,-2.033 3.04,-3.961 0,-1.93 -1.09,-3.961 -3.04,-3.961 z m -13.33,0.064 c -2.07,0 -3.53,1.851 -3.53,3.897 0,2.006 1.46,3.896 3.53,3.896 1.17,0 1.67,-0.283 2.08,-0.552 v -2.997 l 0.59,-0.603 h -2.03 l 0.6,0.603 v 2.444 c -0.18,0.181 -0.54,0.541 -1.24,0.541 -1.69,0 -2.54,-1.699 -2.54,-3.332 0,-1.646 1.07,-3.33 2.54,-3.33 0.38,0 0.67,0.089 0.92,0.359 l 0.84,0.822 v -1.31 c -0.45,-0.232 -0.9,-0.438 -1.76,-0.438 z m -85.669,0.065 c -1.325,0 -1.93,1.131 -1.93,1.865 0,0.579 0.295,1.234 0.977,1.734 l 1.557,1.119 c 0.424,0.297 0.541,0.734 0.541,1.108 0,0.643 -0.399,1.338 -1.26,1.338 -0.206,0 -0.387,-0.039 -0.527,-0.104 l -0.721,-0.849 -0.656,1.183 1.453,0.283 c 0,0 0.245,0.051 0.451,0.051 0.912,0 2.109,-0.771 2.109,-2.211 0,-0.747 -0.349,-1.209 -0.709,-1.455 l -1.543,-1.117 c -0.552,-0.398 -0.836,-0.914 -0.836,-1.301 0,-0.796 0.682,-1.078 1.094,-1.078 0.219,0 0.372,0.09 0.488,0.09 l 0.668,0.721 0.707,-1.055 -1.504,-0.283 c -0.102,-0.026 -0.165,-0.039 -0.359,-0.039 z m 58.069,0 c -1.33,0 -1.93,1.131 -1.93,1.865 0,0.579 0.3,1.234 0.98,1.734 l 1.55,1.119 c 0.43,0.297 0.54,0.734 0.54,1.108 0,0.643 -0.39,1.338 -1.26,1.338 -0.2,0 -0.38,-0.039 -0.53,-0.104 l -0.71,-0.849 -0.66,1.183 1.45,0.283 c 0,0 0.25,0.051 0.45,0.051 0.92,0 2.11,-0.771 2.11,-2.211 0,-0.747 -0.34,-1.209 -0.7,-1.455 l -1.55,-1.117 c -0.55,-0.398 -0.83,-0.914 -0.83,-1.301 0,-0.796 0.68,-1.078 1.09,-1.078 0.22,0 0.37,0.09 0.49,0.09 l 0.67,0.721 0.7,-1.055 -1.5,-0.283 c -0.1,-0.026 -0.17,-0.039 -0.36,-0.039 z m -24.378,0.002 c -0.619,0 -1.27,0.362 -1.718,0.896 -0.417,0.502 -0.695,1.314 -0.844,2.18 h -0.695 l -0.289,0.277 0.033,0.108 h 0.887 c -0.14,0.961 -0.268,1.794 -0.471,3.14 -0.289,1.998 -0.535,2.703 -0.738,2.873 -0.065,0.064 -0.17,0.098 -0.266,0.098 -0.129,0 -0.332,-0.096 -0.471,-0.16 -0.128,-0.064 -0.234,0.01 -0.299,0.074 -0.085,0.096 -0.181,0.245 -0.181,0.363 0,0.214 0.277,0.321 0.459,0.321 0.203,0 0.716,-0.17 1.176,-0.737 0.362,-0.448 0.855,-1.485 1.271,-3.9 0.075,-0.449 0.16,-0.897 0.342,-2.072 l 1.09,-0.108 0.234,-0.277 h -1.26 c 0.321,-1.978 0.588,-2.574 1.047,-2.574 0.321,0 0.587,0.127 0.822,0.351 0.075,0.075 0.193,0.075 0.299,-0.012 0.086,-0.074 0.215,-0.245 0.215,-0.394 0.01,-0.214 -0.279,-0.447 -0.643,-0.447 z m -76.839,0.037 0.65624,0.656 v 4.898 c 0,1.247 1.0539,2.2 2.3535,2.2 1.2349,0 2.4571,-0.913 2.4571,-2.2 v -4.898 l 0.6425,-0.656 h -1.9804 l 0.6562,0.656 v 4.898 c 0,0.875 -0.6939,1.571 -1.5683,1.571 -0.8872,0 -1.6719,-0.684 -1.6719,-1.571 v -4.898 l 0.6562,-0.656 h -2.2011 z m 7.8711,0 0.6445,0.656 v 6.275 l -0.6445,0.657 h 1.9802 l -0.654,-0.657 v -5.685 l 4.07,6.342 h 0.262 v -6.932 l 0.656,-0.656 h -1.98 l 0.656,0.656 v 4.822 l -3.42,-5.478 z m 8.3862,0 0.604,0.603 v 6.379 l -0.604,0.606 h 2.043 l -0.603,-0.606 v -6.379 l 0.603,-0.603 z m 3.743,0 0.617,0.603 2.135,6.985 h 0.384 l 2.2,-6.985 0.617,-0.603 h -1.826 l 0.591,0.592 -1.607,5.246 -1.557,-5.246 0.592,-0.592 z m 7.445,0 0.592,0.603 v 6.379 l -0.592,0.606 h 4.539 v -1.391 l -0.811,0.824 h -2.3 v -3.189 h 1.711 l 0.603,0.603 v -1.773 l -0.603,0.603 h -1.711 v -2.699 h 2.3 l 0.811,0.809 v -1.375 z m 6.521,0 0.59,0.603 v 6.379 l -0.59,0.606 h 2.032 l -0.606,-0.606 v -2.931 h 1.145 l 1.84,3.537 h 1.259 l -0.591,-0.606 -1.698,-3.113 c 0.85,-0.257 1.428,-1.053 1.428,-1.774 0,-1.285 -1.196,-2.095 -2.457,-2.095 z m 13.373,0 0.606,0.603 v 6.379 l -0.606,0.606 h 2.047 l -0.605,-0.606 v -6.379 l 0.605,-0.603 z m 3.795,0 v 1.375 l 0.823,-0.809 h 1.427 v 6.416 l -0.591,0.606 h 2.031 l -0.604,-0.606 v -6.416 h 1.442 l 0.808,0.809 v -1.375 z m 6.469,0 0.617,0.603 1.916,3.459 v 2.92 l -0.603,0.606 h 2.043 l -0.604,-0.606 v -2.92 l 1.955,-3.445 0.629,-0.617 h -1.877 l 0.592,0.592 -1.596,2.841 -1.515,-2.841 0.59,-0.592 z m 24.086,0 0.617,0.603 2.135,6.985 h 0.385 l 1.736,-5.493 1.686,5.493 h 0.384 l 2.202,-6.985 0.615,-0.603 h -1.824 l 0.59,0.592 -1.608,5.246 -1.557,-5.246 0.592,-0.592 h -2.146 l 0.603,0.603 0.155,0.502 -1.454,4.733 -1.556,-5.246 0.592,-0.592 z m 12.992,0 -2.404,6.969 -0.617,0.619 h 1.826 l -0.592,-0.592 0.553,-1.609 h 2.508 l 0.527,1.609 -0.59,0.592 h 2.147 l -0.604,-0.619 -2.367,-6.969 z m 10.526,0 0.59,0.603 v 6.379 l -0.59,0.606 h 2.03 l -0.61,-0.606 v -3.203 h 3.19 v 3.203 l -0.6,0.606 h 2.04 l -0.6,-0.606 v -6.379 l 0.6,-0.603 h -2.04 l 0.6,0.603 v 2.612 h -3.19 v -2.612 l 0.61,-0.603 z m 8.16,0 0.61,0.603 v 6.379 l -0.61,0.606 h 2.05 l -0.61,-0.606 v -6.379 l 0.61,-0.603 z m 4.12,0 0.64,0.656 v 6.275 l -0.64,0.657 h 1.98 l -0.66,-0.657 v -5.685 l 4,6.344 0.34,-0.002 v -6.932 l 0.65,-0.656 h -1.98 l 0.66,0.656 v 4.822 l -3.42,-5.478 z m 15.1,0 v 1.375 l 0.83,-0.811 h 1.42 v 6.418 l -0.59,0.606 h 2.03 l -0.6,-0.606 v -6.418 h 1.44 l 0.81,0.811 v -1.375 z m 14.09,0 0.65,0.656 v 6.275 l -0.65,0.657 h 1.98 l -0.65,-0.657 v -5.685 l 3.95,6.342 h 0.38 v -6.932 l 0.66,-0.656 h -1.98 l 0.65,0.656 v 4.822 l -3.42,-5.478 z m -4.53,0.41 c 1.53,0 2.06,1.813 2.06,3.383 0,1.568 -0.53,3.383 -2.06,3.383 -1.52,0 -2.05,-1.815 -2.05,-3.383 0,-1.57 0.53,-3.383 2.05,-3.383 z m -106.76,0.156 h 0.926 c 0.81,0 1.453,0.693 1.453,1.516 0,0.785 -0.656,1.402 -1.453,1.402 h -0.926 z m 59.328,1.117 1.043,3.139 h -2.123 z m -24.119,1.1 c -0.278,0 -0.716,0.128 -1.154,0.385 -0.737,0.438 -1.539,1.431 -1.539,2.926 0,0.748 0.351,1.582 1.346,1.582 0.469,0 1.145,-0.309 1.593,-0.715 0.705,-0.641 1.121,-1.743 1.121,-2.694 0,-0.887 -0.47,-1.484 -1.367,-1.484 z m -0.342,0.395 c 0.534,0 0.844,0.406 0.844,1.228 0.021,1.389 -0.705,2.649 -1.154,2.799 -0.087,0.032 -0.224,0.074 -0.33,0.074 -0.6,0 -0.846,-0.639 -0.846,-1.441 0,-1.581 0.801,-2.436 1.133,-2.575 0.095,-0.043 0.246,-0.085 0.353,-0.085 z" transform="matrix(.8 0 0 -.8 244.76 410.08)"/></g><g id="text2493" stroke-width="1" transform="translate(4.91 37.148) scale(.34694)"><path id="path2495" d="m 48.831893,21.749103 q 0,1.933613 -0.683601,3.593786 -0.664069,1.640641 -1.875019,2.851591 -1.503921,1.503921 -3.554723,2.265647 -2.050802,0.742195 -5.175833,0.742195 H 33.675491 V 42.042274 H 29.808265 V 12.959952 h 7.890704 q 2.617213,0 4.433638,0.449223 1.816424,0.429692 3.222688,1.367201 1.660173,1.113293 2.55862,2.773466 0.917978,1.660173 0.917978,4.199261 z m -4.023478,0.09766 q 0,-1.503922 -0.527349,-2.617214 -0.527349,-1.113292 -1.601579,-1.816424 -0.937509,-0.605475 -2.148459,-0.859384 -1.191418,-0.27344 -3.027374,-0.27344 h -3.828163 v 11.62121 h 3.261751 q 2.343774,0 3.808632,-0.41016 1.464859,-0.429692 2.382837,-1.34767 0.917978,-0.93751 1.289075,-1.972676 0.390629,-1.035167 0.390629,-2.324242 z"/><path id="path2497" d="M 57.347604,42.042274 H 53.675692 V 11.651345 h 3.671912 z"/><path id="path2499" d="m 81.566595,42.042274 h -3.65238 v -2.324242 q -0.488286,0.332035 -1.328139,0.93751 -0.82032,0.585943 -1.601578,0.937509 -0.917978,0.449223 -2.109396,0.742195 -1.191418,0.312503 -2.792997,0.312503 -2.949248,0 -5.00005,-1.953144 -2.050802,-1.953145 -2.050802,-4.980519 0,-2.480493 1.054698,-4.003946 1.07423,-1.542984 3.046906,-2.421899 1.992207,-0.878916 4.785204,-1.191419 2.792997,-0.312503 5.996154,-0.468754 v -0.566412 q 0,-1.250013 -0.449224,-2.070334 -0.429691,-0.82032 -1.250012,-1.289075 -0.781258,-0.449223 -1.875019,-0.605475 -1.093761,-0.156251 -2.285179,-0.156251 -1.445327,0 -3.222688,0.390629 -1.777362,0.371097 -3.671912,1.093761 h -0.195315 v -3.730507 q 1.07423,-0.292971 3.1055,-0.644537 2.03127,-0.351566 4.003946,-0.351566 2.304711,0 4.003947,0.390629 1.718767,0.371097 2.96878,1.289075 1.230481,0.898447 1.875018,2.324242 0.644538,1.425796 0.644538,3.535192 z m -3.65238,-5.371147 v -6.07428 q -1.679705,0.09766 -3.964884,0.292972 -2.265647,0.195315 -3.593786,0.566412 -1.582047,0.449223 -2.558619,1.406264 -0.976572,0.937509 -0.976572,2.597682 0,1.875019 1.132823,2.83206 1.132824,0.937509 3.457066,0.937509 1.933613,0 3.535192,-0.742195 1.601579,-0.761726 2.96878,-1.816424 z"/><path id="path2501" d="m 106.87935,42.042274 h -3.67191 V 29.620275 q 0,-1.503921 -0.17579,-2.812528 -0.17578,-1.328138 -0.64453,-2.070333 -0.48829,-0.820321 -1.40627,-1.21095 -0.91798,-0.41016 -2.382835,-0.41016 -1.503921,0 -3.144562,0.742195 -1.640642,0.742195 -3.144563,1.89455 V 42.042274 H 88.636978 V 20.22565 h 3.671912 v 2.421899 q 1.718767,-1.425796 3.554723,-2.226585 1.835956,-0.800789 3.769569,-0.800789 3.535188,0 5.390678,2.128928 1.85549,2.128927 1.85549,6.132873 z"/><path id="path2503" d="m 132.21164,31.514825 h -16.07438 q 0,2.011739 0.60547,3.515661 0.60548,1.484389 1.66017,2.44143 1.01564,0.93751 2.40237,1.406264 1.40627,0.468755 3.08597,0.468755 2.22658,0 4.4727,-0.878915 2.26565,-0.898447 3.22269,-1.75783 h 0.19531 v 4.003946 q -1.85548,0.781258 -3.7891,1.308607 -1.93361,0.527349 -4.06254,0.527349 -5.42974,0 -8.47665,-2.929717 -3.0469,-2.949248 -3.0469,-8.359458 0,-5.351617 2.91018,-8.496179 2.92972,-3.144563 7.69539,-3.144563 4.41411,0 6.79695,2.578151 2.40237,2.578151 2.40237,7.324292 z m -3.57426,-2.812528 q -0.0195,-2.890654 -1.46486,-4.472701 -1.42579,-1.582047 -4.35551,-1.582047 -2.94925,0 -4.70708,1.738299 -1.7383,1.738298 -1.97267,4.316449 z"/><path id="path2505" d="m 149.10633,41.84696 q -1.03516,0.27344 -2.26564,0.449223 -1.21095,0.175783 -2.16799,0.175783 -3.33988,0 -5.07818,-1.796893 -1.7383,-1.796893 -1.7383,-5.761776 V 23.311618 h -2.48049 V 20.22565 h 2.48049 v -6.269594 h 3.67191 v 6.269594 h 7.5782 v 3.085968 h -7.5782 v 9.941506 q 0,1.718767 0.0781,2.695339 0.0781,0.957041 0.54688,1.796893 0.42969,0.781258 1.17189,1.152356 0.76172,0.351566 2.30471,0.351566 0.89844,0 1.87502,-0.253909 0.97657,-0.27344 1.40626,-0.449223 h 0.19531 z"/><path id="path2507" d="m 189.02861,33.74141 q 0,1.699236 -0.80078,3.359409 -0.78126,1.660173 -2.20706,2.812528 -1.56251,1.250012 -3.65238,1.953144 -2.07033,0.703133 -5.00005,0.703133 -3.14456,0 -5.66412,-0.585944 -2.50002,-0.585943 -5.0977,-1.738299 v -4.843798 h 0.27344 q 2.20705,1.835956 5.0977,2.83206 2.89066,0.996103 5.42974,0.996103 3.59379,0 5.586,-1.347669 2.01174,-1.34767 2.01174,-3.593786 0,-1.933614 -0.95704,-2.851591 -0.93751,-0.917978 -2.87113,-1.425796 -1.46485,-0.390629 -3.18362,-0.644538 -1.69924,-0.253908 -3.61332,-0.644537 -3.86723,-0.820321 -5.74224,-2.792997 -1.85549,-1.992208 -1.85549,-5.175833 0,-3.652381 3.08597,-5.976623 3.08597,-2.343773 7.83211,-2.343773 3.06643,0 5.62505,0.585943 2.55862,0.585944 4.5313,1.445327 v 4.570359 h -0.27344 q -1.66017,-1.406264 -4.37505,-2.324242 -2.69534,-0.93751 -5.52739,-0.93751 -3.1055,0 -5.00006,1.289076 -1.87501,1.289075 -1.87501,3.320345 0,1.816425 0.93751,2.851591 0.9375,1.035167 3.30081,1.582047 1.25001,0.273441 3.55472,0.66407 2.30471,0.390629 3.90629,0.800789 3.24222,0.859383 4.88286,2.597682 1.64064,1.738299 1.64064,4.86333 z"/><path id="path2509" d="M 213.18901,42.042274 H 209.5171 V 29.620275 q 0,-1.503921 -0.17578,-2.812528 -0.17578,-1.328138 -0.64454,-2.070333 -0.48828,-0.820321 -1.40626,-1.21095 -0.91798,-0.41016 -2.38284,-0.41016 -1.50392,0 -3.14456,0.742195 -1.64064,0.742195 -3.14456,1.89455 v 16.289225 h -3.67192 V 20.22565 h 3.67192 v 2.421899 q 1.71876,-1.425796 3.55472,-2.226585 1.83595,-0.800789 3.76957,-0.800789 3.53519,0 5.39068,2.128928 1.85548,2.128927 1.85548,6.132873 z"/><path id="path2511" d="m 238.85332,31.143728 q 0,5.332084 -2.7344,8.418053 -2.7344,3.085968 -7.32429,3.085968 -4.62895,0 -7.36336,-3.085968 -2.71487,-3.085969 -2.71487,-8.418053 0,-5.332085 2.71487,-8.418053 2.73441,-3.1055 7.36336,-3.1055 4.58989,0 7.32429,3.1055 2.7344,3.085968 2.7344,8.418053 z m -3.7891,0 q 0,-4.238324 -1.66017,-6.289126 -1.66017,-2.070333 -4.60942,-2.070333 -2.98831,0 -4.64848,2.070333 -1.64065,2.050802 -1.64065,6.289126 0,4.101603 1.66018,6.230531 1.66017,2.109396 4.62895,2.109396 2.92972,0 4.58989,-2.089865 1.6797,-2.109396 1.6797,-6.250062 z"/><path id="path2513" d="m 271.97866,20.22565 -5.68365,21.816624 h -3.39848 L 257.29101,25.2257 251.72455,42.042274 h -3.37894 L 242.60336,20.22565 h 3.82817 l 4.00394,16.8947 5.44928,-16.8947 h 3.02737 l 5.58599,16.8947 3.7891,-16.8947 z"/><path id="path2515" d="m 293.40466,40.675073 q -1.83596,0.878915 -3.49613,1.367201 -1.64064,0.488287 -3.49613,0.488287 -2.3633,0 -4.33598,-0.683601 -1.97267,-0.703132 -3.37894,-2.109396 -1.42579,-1.406264 -2.20705,-3.554723 -0.78126,-2.148459 -0.78126,-5.019582 0,-5.351616 2.92972,-8.398521 2.94925,-3.046906 7.77351,-3.046906 1.87502,0 3.67191,0.527349 1.81643,0.527349 3.32035,1.289076 v 4.082072 h -0.19531 q -1.67971,-1.308607 -3.4766,-2.011739 -1.77736,-0.703132 -3.4766,-0.703132 -3.12503,0 -4.94145,2.109396 -1.7969,2.089865 -1.7969,6.152405 0,3.945352 1.75783,6.07428 1.77736,2.109396 4.98052,2.109396 1.11329,0 2.26565,-0.292972 1.15235,-0.292971 2.07033,-0.761726 0.80079,-0.41016 1.50392,-0.859384 0.70314,-0.468754 1.1133,-0.800789 h 0.19531 z"/><path id="path2517" d="m 316.70566,31.143728 q 0,5.332084 -2.7344,8.418053 -2.7344,3.085968 -7.32429,3.085968 -4.62895,0 -7.36335,-3.085968 -2.71488,-3.085969 -2.71488,-8.418053 0,-5.332085 2.71488,-8.418053 2.7344,-3.1055 7.36335,-3.1055 4.58989,0 7.32429,3.1055 2.7344,3.085968 2.7344,8.418053 z m -3.7891,0 q 0,-4.238324 -1.66017,-6.289126 -1.66017,-2.070333 -4.60942,-2.070333 -2.98831,0 -4.64848,2.070333 -1.64065,2.050802 -1.64065,6.289126 0,4.101603 1.66018,6.230531 1.66017,2.109396 4.62895,2.109396 2.92972,0 4.58989,-2.089865 1.6797,-2.109396 1.6797,-6.250062 z"/><path id="path2519" d="m 340.96372,20.22565 -8.82821,21.816624 h -3.69144 L 319.67445,20.22565 h 3.98441 l 6.75788,17.363455 6.69929,-17.363455 z"/><path id="path2521" d="m 363.67881,31.514825 h -16.07438 q 0,2.011739 0.60547,3.515661 0.60548,1.484389 1.66017,2.44143 1.01564,0.93751 2.40237,1.406264 1.40627,0.468755 3.08597,0.468755 2.22658,0 4.4727,-0.878915 2.26565,-0.898447 3.22269,-1.75783 h 0.19531 v 4.003946 q -1.85548,0.781258 -3.7891,1.308607 -1.93361,0.527349 -4.06254,0.527349 -5.42974,0 -8.47664,-2.929717 -3.04691,-2.949248 -3.04691,-8.359458 0,-5.351617 2.91019,-8.496179 2.92971,-3.144563 7.69539,-3.144563 4.4141,0 6.79694,2.578151 2.40237,2.578151 2.40237,7.324292 z m -3.57426,-2.812528 q -0.0195,-2.890654 -1.46486,-4.472701 -1.42579,-1.582047 -4.35551,-1.582047 -2.94925,0 -4.70708,1.738299 -1.7383,1.738298 -1.97267,4.316449 z"/><path id="path2523" d="m 382.85869,24.229596 h -0.19531 q -0.82032,-0.195314 -1.60158,-0.27344 -0.76173,-0.09766 -1.81643,-0.09766 -1.69923,0 -3.28128,0.761726 -1.58205,0.742195 -3.0469,1.933613 v 15.488436 h -3.67192 V 20.22565 h 3.67192 v 3.222688 q 2.18752,-1.75783 3.84769,-2.480493 1.6797,-0.742195 3.418,-0.742195 0.95704,0 1.38674,0.05859 0.42969,0.03906 1.28907,0.175783 z"/></g></svg>