<svg xmlns="http://www.w3.org/2000/svg" role="img" viewBox="-6.03 -6.03 313.82 313.82"><title>PO.DAAC logo</title><g fill="none" fill-rule="evenodd" stroke="none" stroke-width="1"><circle cx="151" cy="151" r="151" fill="#20429A"/><circle cx="151" cy="151" r="146" fill="#FFF"/><circle cx="151" cy="151" r="142" fill="#233F9B"/><g transform="translate(19 107)"><path d="M.00545 42C.27135 29.8045 10.24069 20 22.5 20 34.9264 20 45 30.0736 45 42.5S34.9264 65 22.5 65c-3.79228 0-7.36542-.9382-10.5-2.59514V84H0V42h.00545zM23 54c6.07513 0 11-4.92487 11-11s-4.92487-11-11-11-11 4.92487-11 11 4.92487 11 11 11zm44.5 11C79.9264 65 90 54.9264 90 42.5S79.9264 20 67.5 20 45 30.0736 45 42.5 55.0736 65 67.5 65zm.5-11c6.07513 0 11-4.92487 11-11s-4.92487-11-11-11-11 4.92487-11 11 4.92487 11 11 11z" fill="#FFF"/><g fill="#5FA9FE" transform="translate(90)"><path d="M79 61.84312C75.63468 63.84821 71.70185 65 67.5 65 55.0736 65 45 54.9264 45 42.5S55.0736 20 67.5 20c12.2593 0 22.22865 9.8045 22.49455 22H90v23H79v-3.15688zM68 54c6.07513 0 11-4.92487 11-11s-4.92487-11-11-11-11 4.92487-11 11 4.92487 11 11 11zm111.04686-5c-2.78882 9.25735-11.38042 16-21.54686 16-12.4264 0-22.5-10.0736-22.5-22.5S145.0736 20 157.5 20c10.88531 0 19.9652 7.72992 22.04992 18h-11.74934c-1.82071-3.56168-5.5259-6-9.80058-6-6.07513 0-11 4.92487-11 11s4.92487 11 11 11c3.86155 0 7.25837-1.9898 9.22107-5h11.82579zM124 61.84312C120.63468 63.84821 116.70185 65 112.5 65 100.0736 65 90 54.9264 90 42.5S100.0736 20 112.5 20c12.2593 0 22.22866 9.8045 22.49455 22H135v23h-11v-3.15688zM113 54c6.07513 0 11-4.92487 11-11s-4.92487-11-11-11-11 4.92487-11 11 4.92487 11 11 11z"/><path d="M44.99455 42C44.72865 54.1955 34.75931 64 22.5 64 10.0736 64 0 53.9264 0 41.5S10.0736 19 22.5 19c3.79228 0 7.36542.9382 10.5 2.59514V0h12v42h-.00545zM22 30c-6.07513 0-11 4.92487-11 11s4.92487 11 11 11 11-4.92487 11-11-4.92487-11-11-11z"/></g></g><g fill="#FFF" transform="translate(21 43)"><path d="M73 17c45-13 90-6 90-6V8h12s-5-2-10-3c-16.83276-2.80546-47-8-89 5C23.67853 26.19474 0 55 0 55s28-25 73-38z"/><path d="M191.42857 12.42857L192 17l-24 3v-9l23-2 .3714 2.97125.0036.02875H195l2-6 2-4 2-1 6-1v3l-2 1 2 3h12l3 5-14 1-1-1-1 1v3l-2-1-3 4h-5l-2-2v-4h-2l-.57143-.57143z"/><path d="M230 30c-5-3-24-12-24-12l-4 3s16.1711 6.56286 31 15 27 18 27 18-4.52261-5.7163-12-12c-5.07225-4.26252-11.93737-8.7666-18-12z"/></g><g transform="translate(26 192)"><path fill="#FFF" d="M0 14S38-3 70 1s76 38 111 38 71-26 71-26-17 16-35 25-43 9-43 9 11 3 32-1 37-17 37-17-28 25-56 26-49-12-49-12-34-19-60-17-59 19-59 19-6.89605-8.93565-10-14c-3.10395-5.06435-9-17-9-17z"/><path fill="#5FA9FE" d="M35 42s21-2 42 3c8.84944 2.107 16.31105 5.21221 24 9 7.68895 3.78779 22 11 22 11s17 9 41 7 36-14 36-14-19 5-33 2-27-8-32-11-26.3906-14.69034-48-16c-21.6094-1.30966-52 9-52 9z"/></g></g></svg>