<svg xmlns="http://www.w3.org/2000/svg" role="img" viewBox="7.10 -5.15 259.30 267.80"><title>PowerSimulations.jl logo</title><g transform="translate(91.32 -3.67)"><g stroke-width=".444"><path fill="#b1d2ed" d="M14.515 199.92c.15483-.80952 7.1523-21.619 15.55-46.243 8.3976-24.624 15.268-44.974 15.268-45.222 0-.248-.20727-.4508-.4606-.4508s-5.2592 1.5-11.124 3.3333c-5.8648 1.8333-11.018 3.3333-11.452 3.3333-.53598 0-4.1717-4.9132-11.348-15.336l-10.56-15.336 1.5226-1.8866c.83741-1.0376 14.07-19.15 29.405-40.25s27.961-38.285 28.057-38.189c.09613.09613-4.8236 14.785-10.933 32.643-6.1092 17.858-11.108 32.806-11.108 33.219 0 .90504-1.0633 1.1871 12.993-3.446 9.677-3.1896 11.07-3.5446 11.633-2.9657.65025.66884 13.062 27.752 14.534 31.715.77101 2.0753.77202 2.2377.02338 3.7778-1.2614 2.595-60.12 100.15-61.252 101.53l-1.0309 1.2496.2815-1.4719z"/><path fill="#6eb0df" d="M15.556 198.14c0-.38786 6.8-20.624 15.111-44.969 13.427-39.33 15.609-46.059 14.94-46.059-.09417 0-5.3047 1.6-11.579 3.5556s-11.565 3.5556-11.757 3.5556c-.192 0-.56201-.46616-.8216-1.0359-.2596-.56975-4.7881-7.3067-10.063-14.971-5.2752-7.6643-9.5449-13.976-9.4882-14.027.05668-.05052 7.603-2.7391 16.77-5.9747 9.1667-3.2356 16.967-6.1394 17.333-6.4529.36667-.31353 6.2605-2.4132 13.097-4.666 10.442-3.4407 12.496-3.9917 12.842-3.4444 1.439 2.2812 15.217 33.545 14.942 33.905-.18655.24444-13.881 22.944-30.432 50.444-16.551 27.5-30.273 50.19-30.493 50.422-.24632.26004-.39994.15135-.39994-.28298z"/><path fill="#3ca2d9" d="M16.222 196.44c.17434-.61111 7.0164-20.763 15.205-44.782 8.2369-24.162 14.766-43.988 14.616-44.379-.14945-.38945-.52004-.61303-.82353-.49682-2.1319.81627-22.67 7.0216-22.803 6.8894-.2335-.2335 14.281-41.665 14.753-42.113.74407-.70587 24.27-8.0786 24.605-7.711.18626.2041 3.0903 6.4711 6.4533 13.927 3.3631 7.4556 6.7166 14.836 7.4524 16.401 1.1716 2.4925 1.2642 2.9616.74619 3.7778-.32532.51252-13.781 22.832-29.901 49.599-16.12 26.767-29.605 48.967-29.965 49.333-.57968.5897-.61875.5384-.33836-.44445z"/><path fill="#018cd0" d="M16.889 195.46c0-.14865 6.7-19.907 14.889-43.908s14.884-43.869 14.878-44.152c-.0236-1.0887 14.47-42.954 14.829-42.835.20857.06952 3.5856 7.22 7.5045 15.89 3.9189 8.6699 7.2996 15.83 7.5127 15.912.21308.08149.38743.44328.38743.80401 0 .36072-.17904.5452-.39788.40996-.21883-.13524-.50559.0348-.63724.37788-.30028.7825-58.068 96.773-58.586 97.349-.20853.23222-.37915.3006-.37915.15196z"/><path fill="#0266b2" d="M19.777 186.89c11.524-33.932 27.27-79.862 27.436-80.028.46378-.46378 28.373-9.3917 28.536-9.1283.18476.29895-56.423 94.527-57.967 96.49-.58886.74886.06127-1.642 1.9941-7.3333z"/></g><path d="M-76.11693 248.20642v7.86133h-2.83066v-21.01731h6.20399q1.99466 0 3.46133.46933 1.48133.45467 2.44933 1.30533.968.85067 1.43733 2.05334.484 1.20266.484 2.68399 0 1.46667-.51333 2.684-.51333 1.21733-1.51067 2.09733-.98266.88-2.44933 1.37867-1.46666.48399-3.35866.48399zm0-2.25866h3.37333q1.21733 0 2.14133-.32267.93867-.32266 1.56933-.89466.63067-.58667.95333-1.39333.32267-.80667.32267-1.77467 0-2.00933-1.24666-3.13866-1.232-1.12933-3.74-1.12933h-3.37333z"/><path d="M-56.16433 240.97577q1.628 0 2.93333.54266 1.32.54267 2.22933 1.54.924.99733 1.408 2.42.49867 1.408.49867 3.15333 0 1.76-.49867 3.16799-.484 1.408-1.408 2.40533-.90933.99734-2.22933 1.54-1.30533.528-2.93333.528-1.628 0-2.948-.528-1.30533-.54266-2.22933-1.54-.924-.99733-1.42266-2.40533-.49867-1.40799-.49867-3.16799 0-1.74533.49867-3.15333.49867-1.42267 1.42266-2.42.924-.99733 2.22934-1.54 1.32-.54266 2.948-.54266zm0 13.25865q2.2 0 3.28533-1.46667 1.08533-1.48133 1.08533-4.12133 0-2.65466-1.08533-4.13599-1.08533-1.48133-3.28533-1.48133-1.11466 0-1.936.38133-.82133.38133-1.37866 1.1-.54267.71866-.82133 1.77466-.264 1.04134-.264 2.36133 0 1.32.264 2.36133.27866 1.04134.82133 1.76.55733.704 1.37867 1.08533.82133.38134 1.936.38134z"/><path d="M-47.78555 241.21043h2.05334q.32266 0 .528.16134.20533.16133.27866.38133l2.84533 9.56265q.11733.528.22 1.02667.10267.484.176.98267.11733-.49867.264-.98267.14667-.49867.308-1.02667l3.13866-9.62132q.07333-.22.24934-.36666.19066-.14667.46933-.14667h1.12933q.29333 0 .484.14667.19067.14666.264.36666l3.06533 9.62132q.16133.51334.27867 1.012.132.49867.24933.98267.07333-.484.19067-1.012.11733-.528.24933-.98267l2.904-9.56265q.07333-.23467.27866-.38133.20534-.16134.484-.16134h1.96533l-4.81066 14.85732h-2.068q-.38133 0-.528-.49867l-3.28533-10.07599q-.11733-.33733-.19066-.67466-.07333-.352-.14667-.68933-.07333.33733-.14667.68933-.07333.352-.19066.68933l-3.32933 10.06132q-.16133.49867-.60133.49867h-1.96534z"/><path d="M-17.50991 240.97577q1.33466 0 2.464.45466 1.12933.44 1.95066 1.29067.82133.836 1.276 2.08266.46933 1.232.46933 2.816 0 .616-.132.82133t-.49867.20533h-9.88532q.02933 1.408.38133 2.44933.352 1.04134.968 1.74534.616.68933 1.46667 1.04133.85066.33733 1.90666.33733.98267 0 1.68667-.22.71866-.23466 1.232-.49866.51333-.264.85066-.484.352-.23467.60133-.23467.32267 0 .49867.24933l.73333.95333q-.484.58667-1.15866 1.02667-.67467.42533-1.452.704-.76267.27867-1.584.41067-.82133.14666-1.628.14666-1.54 0-2.84533-.51333-1.29066-.528-2.244-1.52533-.93866-1.012-1.46666-2.49333-.528-1.48133-.528-3.40267 0-1.55466.46933-2.90399.484-1.34933 1.37867-2.332.89467-.99733 2.18533-1.55466 1.29067-.572 2.904-.572zm.05867 1.92133q-1.892 0-2.97733 1.1-1.08533 1.08533-1.34933 3.02133h8.08132q0-.90934-.24933-1.65734-.24934-.76266-.73333-1.30533-.484-.55733-1.188-.85066-.68934-.308-1.584-.308z"/><path d="M-8.03709 256.06775v-14.85732h1.496q.42533 0 .58666.16134.16134.16133.22.55733l.176 2.31733q.76267-1.55467 1.87733-2.42 1.12934-.88 2.64-.88.616 0 1.11467.14667.49866.132.924.38133l-.33734 1.95067q-.10266.36666-.45466.36666-.20534 0-.63067-.132-.42533-.14666-1.188-.14666-1.364 0-2.288.792-.90933.79199-1.52533 2.30266v9.45999z"/><path d="M14.94097 238.33577q-.132.22-.27867.33733-.14667.10267-.38133.10267-.24934 0-.58667-.24933-.32266-.24934-.836-.54267-.49866-.308-1.21733-.55733-.704-.24934-1.716-.24934-.95333 0-1.68666.264-.73333.24934-1.232.68934-.484.44-.73333 1.04133-.24934.58666-.24934 1.276 0 .88.42534 1.46666.44.572 1.144.98267.71866.41066 1.61333.71866.90933.29334 1.848.616.95333.32267 1.848.73334.90933.39599 1.61333 1.01199.71866.616 1.144 1.51067.44.89466.44 2.2 0 1.37866-.46934 2.59599-.46933 1.20267-1.37867 2.09733-.89466.89467-2.21466 1.408-1.30533.51334-2.97733.51334-2.03866 0-3.72533-.73334-1.672-.748-2.86-2.00933l.82134-1.34933q.11733-.16133.27866-.264.176-.11733.38134-.11733.308 0 .704.33733.396.32267.98266.71867.60133.396 1.43733.73333.85067.32266 2.068.32266 1.012 0 1.804-.27866.792-.27867 1.33466-.77733.55734-.51334.85067-1.21734.29333-.704.29333-1.56933 0-.95333-.44-1.55466-.42533-.616-1.12933-1.02667-.704-.41066-1.61333-.68933-.89467-.29333-1.848-.58667-.93866-.308-1.848-.704-.89466-.396-1.59866-1.02666-.704-.63067-1.144-1.56933-.42533-.95333-.42533-2.34667 0-1.11466.42533-2.15599.44-1.04134 1.26133-1.848.82133-.80667 2.024-1.29067 1.21733-.484 2.78666-.484 1.76 0 3.212.55734 1.452.55733 2.53733 1.61333z"/><path d="M22.195 241.21043v14.85732h-2.61066v-14.85732zm.58667-4.66399q0 .38133-.16134.71866-.14666.32267-.41066.58667-.24933.24933-.58667.396-.33733.14667-.71866.14667-.38134 0-.71867-.14667-.32267-.14667-.58667-.396-.24933-.264-.396-.58667-.14666-.33733-.14666-.71866 0-.38133.14666-.71867.14667-.352.396-.60133.264-.264.58667-.41067.33733-.14666.71867-.14666.38133 0 .71866.14666.33734.14667.58667.41067.264.24933.41066.60133.16134.33734.16134.71867z"/><path d="M26.7962 256.06775v-14.85732h1.55466q.55734 0 .704.54267l.19067 1.52533q.82133-1.012 1.83333-1.65733 1.02667-.64533 2.376-.64533 1.51066 0 2.43466.836.93867.83599 1.34933 2.25866.308-.80667.80667-1.39333.51333-.58667 1.144-.968.63066-.38133 1.33466-.55733.71867-.176 1.452-.176 1.17333 0 2.08267.38133.924.36667 1.55466 1.08533.64533.71867.98267 1.77467.33733 1.04133.33733 2.39066v9.45999h-2.61066v-9.45999q0-1.74533-.76267-2.64-.76267-.90933-2.21466-.90933-.64534 0-1.232.23467-.572.22-1.012.66-.44.44-.704 1.11466-.24933.66-.24933 1.54v9.45999h-2.61067v-9.45999q0-1.78933-.71866-2.66933-.71867-.88-2.09733-.88-.968 0-1.804.528-.82133.51333-1.51067 1.408v11.07332z"/><path d="M53.11734 241.21043v9.47466q0 1.68666.77733 2.61066.77734.924 2.34667.924 1.144 0 2.156-.54266 1.012-.54267 1.86266-1.51067v-10.95599h2.61066v14.85732H61.316q-.55733 0-.704-.54267l-.20533-1.59866q-.968 1.07066-2.17067 1.73066-1.20266.64534-2.75733.64534-1.21733 0-2.156-.396-.924-.41067-1.55466-1.144-.63067-.73334-.95333-1.77467-.308-1.04133-.308-2.30266v-9.47466z"/><path d="M70.09078 234.46377v21.60398h-2.61066v-21.60398z"/><path d="M85.60396 256.06775H84.4453q-.38134 0-.616-.11733-.23467-.11734-.308-.49867l-.29334-1.37867q-.58666.528-1.144.95334-.55733.41066-1.17333.704-.616.27866-1.32.42533-.68933.14667-1.54.14667-.86533 0-1.628-.23467-.74799-.24933-1.30532-.73333-.55734-.484-.89467-1.21734-.32266-.74799-.32266-1.75999 0-.88.484-1.68667.484-.82133 1.55466-1.452 1.08533-.63066 2.83066-1.02666 1.74533-.41067 4.268-.46933v-1.15867q0-1.73066-.748-2.61066-.73333-.89467-2.18533-.89467-.95333 0-1.61333.24933-.64534.23467-1.12934.54267-.46933.29333-.82133.54267-.33733.23466-.67466.23466-.264 0-.46934-.132-.19066-.14666-.308-.352l-.46933-.836q1.232-1.18799 2.65466-1.77466 1.42267-.58667 3.15333-.58667 1.24667 0 2.21467.41067t1.628 1.144q.66.73333.99733 1.77466.33733 1.04133.33733 2.288zm-6.77599-1.59867q.68933 0 1.26133-.132.572-.14666 1.07067-.396.51333-.26399.968-.63066.46933-.36667.90933-.836v-3.09466q-1.804.0587-3.06533.29333-1.26133.22-2.05333.58667-.792.36666-1.15867.86533-.352.49866-.352 1.11466 0 .58667.19067 1.012.19067.42534.51333.704.32267.264.76267.396.44.11733.95333.11733z"/><path d="M94.09046 256.30242q-1.76 0-2.71333-.98267-.93866-.98267-.93866-2.83066v-9.09333h-1.78933q-.23467 0-.396-.132-.16134-.14666-.16134-.44v-1.04133l2.43467-.308.60133-4.59066q.02933-.22.19067-.352.16133-.14667.41066-.14667h1.32v5.11867h4.25333v1.89199h-4.25333v8.91733q0 .93866.45467 1.39333.45467.45466 1.17333.45466.41067 0 .704-.10266.308-.11734.528-.24934.22-.13199.36666-.23466.16134-.11733.27867-.11733.20533 0 .36667.24933l.76266 1.24666q-.67466.63067-1.628.99734-.95333.352-1.96533.352z"/><path d="M103.43449 241.21043v14.85732h-2.61067v-14.85732zm.58666-4.66399q0 .38133-.16133.71866-.14667.32267-.41067.58667-.24933.24933-.58666.396-.33733.14667-.71867.14667-.38133 0-.71866-.14667-.32267-.14667-.58667-.396-.24933-.264-.396-.58667-.14667-.33733-.14667-.71866 0-.38133.14667-.71867.14667-.352.396-.60133.264-.264.58667-.41067.33733-.14666.71866-.14666.38134 0 .71867.14666.33733.14667.58666.41067.264.24933.41067.60133.16133.33734.16133.71867z"/><path d="M114.04902 240.97577q1.628 0 2.93333.54266 1.32.54267 2.22933 1.54.924.99733 1.408 2.42.49867 1.408.49867 3.15333 0 1.76-.49867 3.16799-.484 1.408-1.408 2.40533-.90933.99734-2.22933 1.54-1.30533.528-2.93333.528-1.628 0-2.948-.528-1.30533-.54266-2.22933-1.54-.924-.99733-1.42266-2.40533-.49867-1.40799-.49867-3.16799 0-1.74533.49867-3.15333.49866-1.42267 1.42266-2.42.924-.99733 2.22933-1.54 1.32-.54266 2.948-.54266zm0 13.25865q2.2 0 3.28533-1.46667 1.08533-1.48133 1.08533-4.12133 0-2.65466-1.08533-4.13599-1.08533-1.48133-3.28533-1.48133-1.11466 0-1.936.38133-.82133.38133-1.37866 1.1-.54267.71866-.82133 1.77466-.264 1.04134-.264 2.36133 0 1.32.264 2.36133.27866 1.04134.82133 1.76.55733.704 1.37866 1.08533.82134.38134 1.936.38134z"/><path d="M124.3638 256.06775v-14.85732h1.55467q.55733 0 .704.54267l.20533 1.61333q.968-1.07067 2.156-1.73066 1.20266-.66 2.772-.66 1.21733 0 2.14133.41066.93866.396 1.55466 1.144.63067.73333.95333 1.77467.32267 1.04133.32267 2.30266v9.45999h-2.61066v-9.45999q0-1.68666-.77734-2.61066-.76266-.93867-2.34666-.93867-1.15867 0-2.17066.55733-.99734.55734-1.848 1.51067v10.94132z"/><path d="M149.19856 243.65976q-.176.32267-.54267.32267-.22 0-.49867-.16133-.27866-.16134-.68933-.352-.396-.20534-.95333-.36667-.55733-.176-1.32-.176-.66 0-1.188.176-.528.16133-.90933.45467-.36667.29333-.572.68933-.19067.38133-.19067.836 0 .572.32267.95333.33733.38133.88.66.54266.27867 1.232.49867.68933.20533 1.408.45466.73333.23467 1.42266.528.68933.29333 1.232.73333.54267.44.86533 1.08534.33733.63066.33733 1.52533 0 1.02666-.36666 1.90666-.36667.86533-1.08533 1.51067-.71867.63066-1.76.99733-1.04133.36667-2.40533.36667-1.55467 0-2.816-.49867-1.26133-.51333-2.14133-1.30533l.616-.99733q.11733-.19067.27867-.29334.16133-.10266.42533-.10266t.55733.20533q.29333.20533.704.45467.42533.24933 1.012.45466.60133.20533 1.496.20533.76266 0 1.33466-.19066.572-.20534.95333-.54267.38134-.33733.55734-.77733.19066-.44.19066-.93867 0-.616-.33733-1.012-.32267-.41066-.86533-.68933-.54267-.29333-1.24667-.49866-.68933-.22-1.42266-.45467-.71867-.23467-1.42267-.528-.68933-.308-1.232-.76267-.54266-.45466-.87999-1.11466-.32267-.67467-.32267-1.628 0-.85066.352-1.628.352-.792 1.02666-1.37866.67467-.60133 1.65734-.95333.98266-.352 2.24399-.352 1.46667 0 2.62533.46933 1.17334.45467 2.024 1.26133z"/><path d="M152.55997 254.45442q0-.38134.132-.71867.14666-.33733.38133-.58666.24933-.24934.58667-.396.33733-.14667.71866-.14667.38134 0 .71867.14667.33733.14666.58666.396.24934.24933.38134.58666.14666.33733.14666.71867 0 .396-.14666.73333-.132.32267-.38134.572-.24933.24933-.58666.38133-.33733.14667-.71867.14667-.38133 0-.71866-.14667-.33734-.132-.58667-.38133-.23467-.24933-.38133-.572-.132-.33733-.132-.73333z"/><path d="M162.55943 241.21043v15.95732q0 .89466-.23467 1.65733-.23467.77733-.748 1.34933-.49866.572-1.30533.89467-.792.33733-1.90667.33733-.48399 0-.87999-.0733-.396-.0733-.792-.22l.11733-1.408q.0293-.19067.132-.24933.10267-.044.32267-.044h.24933q.132.0147.32267.0147 1.14399 0 1.62799-.54266.484-.528.484-1.716V241.2105zm.58666-4.66399q0 .38133-.16133.71866-.14667.32267-.41067.58667-.24933.24933-.58666.396-.33734.14667-.71867.14667-.38133 0-.71866-.14667-.32267-.14667-.58667-.396-.24933-.264-.396-.58667-.14667-.33733-.14667-.71866 0-.38133.14667-.71867.14667-.352.396-.60133.264-.264.58667-.41067.33733-.14666.71866-.14666.38133 0 .71867.14666.33733.14667.58666.41067.264.24933.41067.60133.16133.33734.16133.71867z"/><path d="M170.00733 234.46377v21.60398h-2.61066v-21.60398z"/></g></svg>