<svg xmlns="http://www.w3.org/2000/svg" role="img" viewBox="-1.98 -5.23 272.22 271.22"><title>PowerSystems.jl logo</title><g transform="translate(91.32 -3.67)"><g stroke-width=".444"><path fill="#b1d2ed" d="M14.515 199.92c.15483-.80952 7.1523-21.619 15.55-46.243 8.3976-24.624 15.268-44.974 15.268-45.222 0-.248-.20727-.4508-.4606-.4508s-5.2592 1.5-11.124 3.3333c-5.8648 1.8333-11.018 3.3333-11.452 3.3333-.53598 0-4.1717-4.9132-11.348-15.336l-10.56-15.336 1.5226-1.8866c.83741-1.0376 14.07-19.15 29.405-40.25s27.961-38.285 28.057-38.189c.09613.09613-4.8236 14.785-10.933 32.643-6.1092 17.858-11.108 32.806-11.108 33.219 0 .90504-1.0633 1.1871 12.993-3.446 9.677-3.1896 11.07-3.5446 11.633-2.9657.65025.66884 13.062 27.752 14.534 31.715.77101 2.0753.77202 2.2377.02338 3.7778-1.2614 2.595-60.12 100.15-61.252 101.53l-1.0309 1.2496.2815-1.4719z"/><path fill="#6eb0df" d="M15.556 198.14c0-.38786 6.8-20.624 15.111-44.969 13.427-39.33 15.609-46.059 14.94-46.059-.09417 0-5.3047 1.6-11.579 3.5556s-11.565 3.5556-11.757 3.5556c-.192 0-.56201-.46616-.8216-1.0359-.2596-.56975-4.7881-7.3067-10.063-14.971-5.2752-7.6643-9.5449-13.976-9.4882-14.027.05668-.05052 7.603-2.7391 16.77-5.9747 9.1667-3.2356 16.967-6.1394 17.333-6.4529.36667-.31353 6.2605-2.4132 13.097-4.666 10.442-3.4407 12.496-3.9917 12.842-3.4444 1.439 2.2812 15.217 33.545 14.942 33.905-.18655.24444-13.881 22.944-30.432 50.444-16.551 27.5-30.273 50.19-30.493 50.422-.24632.26004-.39994.15135-.39994-.28298z"/><path fill="#3ca2d9" d="M16.222 196.44c.17434-.61111 7.0164-20.763 15.205-44.782 8.2369-24.162 14.766-43.988 14.616-44.379-.14945-.38945-.52004-.61303-.82353-.49682-2.1319.81627-22.67 7.0216-22.803 6.8894-.2335-.2335 14.281-41.665 14.753-42.113.74407-.70587 24.27-8.0786 24.605-7.711.18626.2041 3.0903 6.4711 6.4533 13.927 3.3631 7.4556 6.7166 14.836 7.4524 16.401 1.1716 2.4925 1.2642 2.9616.74619 3.7778-.32532.51252-13.781 22.832-29.901 49.599-16.12 26.767-29.605 48.967-29.965 49.333-.57968.5897-.61875.5384-.33836-.44445z"/><path fill="#018cd0" d="M16.889 195.46c0-.14865 6.7-19.907 14.889-43.908s14.884-43.869 14.878-44.152c-.0236-1.0887 14.47-42.954 14.829-42.835.20857.06952 3.5856 7.22 7.5045 15.89 3.9189 8.6699 7.2996 15.83 7.5127 15.912.21308.08149.38743.44328.38743.80401 0 .36072-.17904.5452-.39788.40996-.21883-.13524-.50559.0348-.63724.37788-.30028.7825-58.068 96.773-58.586 97.349-.20853.23222-.37915.3006-.37915.15196z"/><path fill="#0266b2" d="M19.777 186.89c11.524-33.932 27.27-79.862 27.436-80.028.46378-.46378 28.373-9.3917 28.536-9.1283.18476.29895-56.423 94.527-57.967 96.49-.58886.74886.06127-1.642 1.9941-7.3333z"/></g><path d="M-84.43463 247.85619v10.00532h-3.60266V231.1122h7.896q2.53865 0 4.40532.59733 1.88533.57867 3.11733 1.66134 1.232 1.08266 1.82933 2.61333.616 1.53066.616 3.41599 0 1.86667-.65333 3.416-.65333 1.54933-1.92267 2.66933-1.25066 1.12-3.11733 1.75467-1.86666.616-4.27466.616zm0-2.87467h4.29333q1.54933 0 2.72533-.41066 1.19467-.41067 1.99733-1.13867.80267-.74667 1.21334-1.77333.41066-1.02667.41066-2.25867 0-2.55733-1.58666-3.99466-1.568-1.43733-4.76-1.43733h-4.29333z"/><path d="M-59.0404 238.65353q2.072 0 3.73333.69066 1.68.69067 2.83733 1.96 1.176 1.26933 1.792 3.08.63467 1.792.63467 4.01333 0 2.24-.63467 4.032-.616 1.79199-1.792 3.06133-1.15733 1.26933-2.83733 1.95999-1.66133.672-3.73333.672t-3.752-.672q-1.66133-.69066-2.83733-1.95999-1.176-1.26934-1.81066-3.06133-.63467-1.792-.63467-4.032 0-2.22133.63467-4.01333.63466-1.81067 1.81066-3.08t2.83733-1.96q1.68-.69066 3.752-.69066zm0 16.87465q2.8 0 4.18133-1.86667 1.38133-1.88533 1.38133-5.24532 0-3.37867-1.38133-5.264-1.38133-1.88533-4.18133-1.88533-1.41867 0-2.464.48533-1.04533.48533-1.75466 1.4-.69067.91467-1.04534 2.25867-.336 1.32533-.336 3.00533 0 1.67999.336 3.00533.35467 1.32533 1.04534 2.23999.70933.896 1.75466 1.38134 1.04534.48533 2.464.48533z"/><path d="M-48.3765 238.95219h2.61334q.41067 0 .672.20534.26133.20533.35467.48533l3.62133 12.17066q.14933.672.28 1.30666.13066.616.224 1.25067.14933-.63467.336-1.25067.18666-.63466.392-1.30666l3.99466-12.24533q.09333-.28.31733-.46666.24267-.18667.59733-.18667h1.43734q.37333 0 .616.18667.24266.18666.336.46666l3.90132 12.24533q.20534.65333.35467 1.288.168.63466.31733 1.25066.09333-.616.24267-1.288.14933-.672.31733-1.25066l3.696-12.17066q.09333-.29867.35467-.48533.26133-.20534.616-.20534h2.50133l-6.12266 18.90932h-2.632q-.48533 0-.672-.63466l-4.18133-12.82399q-.14933-.42934-.24267-.85867-.09333-.448-.18666-.87733-.09333.42933-.18667.87733-.09333.448-.24267.87733l-4.23733 12.80533q-.20533.63466-.76533.63466h-2.50133z"/><path d="M-9.84385 238.65353q1.69866 0 3.136.57866 1.43733.56 2.48266 1.64267 1.04533 1.064 1.624 2.65066.59733 1.568.59733 3.584 0 .784-.168 1.04533-.168.26134-.63467.26134h-12.58132q.03733 1.79199.48533 3.11733.448 1.32533 1.232 2.22133.784.87733 1.86667 1.32533 1.08266.42933 2.42666.42933 1.25067 0 2.14667-.28.91466-.29866 1.568-.63466.65333-.336 1.08266-.616.448-.29867.76533-.29867.41067 0 .63467.31733l.93333 1.21334q-.616.74666-1.47466 1.30666-.85867.54134-1.848.896-.97067.35467-2.016.52267-1.04533.18666-2.072.18666-1.96 0-3.62133-.65333-1.64266-.672-2.856-1.94133-1.19466-1.288-1.86666-3.17333-.672-1.88533-.672-4.33066 0-1.97867.59733-3.696.616-1.71733 1.75467-2.968 1.13866-1.26933 2.78133-1.97866 1.64266-.728 3.696-.728zm.07466 2.44533q-2.408 0-3.78933 1.4-1.38133 1.38133-1.71733 3.84533h10.28533q0-1.15733-.31734-2.10933-.31733-.97067-.93333-1.66134-.616-.70933-1.512-1.08266-.87733-.392-2.016-.392z"/><path d="M2.21247 257.86151v-18.90932h1.904q.54133 0 .74666.20534.20534.20533.28.70933l.224 2.94933q.97067-1.97866 2.38933-3.08 1.43734-1.12 3.36-1.12.784 0 1.41867.18667.63466.168 1.176.48533l-.42934 2.48267q-.13067.46666-.57866.46666-.26134 0-.80267-.168-.54133-.18666-1.512-.18666-1.736 0-2.912 1.008-1.15733 1.008-1.94133 2.93066v12.03999z"/><path d="M31.45728 235.29353q-.168.28-.35467.42933-.18667.13067-.48533.13067-.31734 0-.74667-.31733-.41067-.31734-1.064-.69067-.63466-.392-1.54933-.70933-.896-.31733-2.184-.31733-1.21333 0-2.14666.33599-.93334.31734-1.568.87734-.616.56-.93333 1.32533-.31734.74667-.31734 1.624 0 1.12.54134 1.86666.56.728 1.456 1.25067.91466.52267 2.05333.91466 1.15733.37334 2.352.784 1.21333.41067 2.352.93334 1.15732.504 2.05332 1.288.91467.78399 1.456 1.92266.56 1.13867.56 2.8 0 1.75466-.59733 3.304-.59733 1.53066-1.75467 2.66933-1.13866 1.13866-2.81866 1.79199-1.66133.65334-3.78933.65334-2.59466 0-4.74133-.93333-2.128-.952-3.64-2.55734l1.04534-1.71733q.14933-.20533.35466-.336.224-.14933.48534-.14933.392 0 .896.42933.504.41067 1.25066.91467.76533.504 1.82933.93333 1.08267.41067 2.632.41067 1.288 0 2.296-.35467 1.008-.35467 1.69866-.98933.70934-.65333 1.08267-1.54933.37333-.896.37333-1.99734 0-1.21333-.56-1.97866-.54133-.784-1.43733-1.30667-.896-.52266-2.05333-.87733-1.13867-.37333-2.352-.74666-1.19467-.392-2.352-.896-1.13866-.504-2.03466-1.30667-.896-.80267-1.456-1.99733-.54133-1.21333-.54133-2.98667 0-1.41866.54133-2.74399.56-1.32534 1.60533-2.352 1.04533-1.02667 2.576-1.64267 1.54933-.616 3.54666-.616 2.24 0 4.088.70934 1.848.70933 3.22933 2.05333z"/><path d="M42.53768 263.44284q-.168.37333-.42933.59733-.24267.224-.76533.224h-2.464l3.45333-7.50399-7.80266-17.80799h2.87466q.42934 0 .672.224.24267.20534.35467.46667l5.05866 11.90932q.168.41067.28.82134.13067.41066.224.84.13067-.42934.26133-.84.13067-.41067.29867-.84l4.90933-11.89066q.112-.29867.37333-.48533.28-.20534.59734-.20534h2.65066z"/><path d="M66.9245 242.06952q-.224.41067-.69067.41067-.28 0-.63467-.20533-.35466-.20534-.87733-.448-.504-.26133-1.21333-.46667-.70934-.224-1.68-.224-.84 0-1.512.224-.672.20534-1.15733.57867-.46667.37333-.728.87733-.24267.48533-.24267 1.064 0 .728.41067 1.21333.42933.48534 1.12.84.69066.35467 1.568.63467.87733.26133 1.792.57866.93333.29867 1.81066.672.87733.37334 1.568.93334.69066.56 1.10133 1.38133.42933.80266.42933 1.94133 0 1.30667-.46666 2.42666-.46667 1.10134-1.38134 1.92267-.91466.80267-2.24 1.26933-1.32533.46667-3.06132.46667-1.97867 0-3.584-.63467-1.60533-.65333-2.72533-1.66133l.784-1.26933q.14933-.24267.35466-.37334.20534-.13066.54134-.13066.336 0 .70933.26133t.896.57867q.54133.31733 1.288.57866.76533.26134 1.904.26134.97066 0 1.69866-.24267.728-.26133 1.21333-.69067.48534-.42933.70934-.98933.24266-.56.24266-1.19466 0-.784-.42933-1.288-.41067-.52267-1.10133-.87734-.69067-.37333-1.58667-.63466-.87733-.28-1.81066-.57867-.91467-.29866-1.81067-.672-.87733-.392-1.568-.97066-.69066-.57867-1.12-1.41867-.41066-.85866-.41066-2.072 0-1.08266.448-2.072.448-1.00799 1.30666-1.75466.85867-.76533 2.10933-1.21333 1.25067-.448 2.856-.448 1.86667 0 3.34133.59733 1.49333.57867 2.576 1.60533z"/><path d="M78.01598 258.16018q-2.24 0-3.45333-1.25067-1.19466-1.25066-1.19466-3.60266v-11.57333h-2.27734q-.29866 0-.504-.16799-.20533-.18667-.20533-.56v-1.32534l3.09867-.392.76533-5.84266q.03733-.28.24267-.448.20533-.18666.52266-.18666h1.68v6.51466h5.41333v2.40799h-5.41333v11.34933q0 1.19466.57867 1.77333.57866.57867 1.49333.57867.52267 0 .896-.13067.392-.14933.672-.31733t.46666-.29867q.20534-.14933.35467-.14933.26133 0 .46667.31733l.97066 1.58667q-.85866.80266-2.072 1.26933-1.21333.448-2.50133.448z"/><path d="M93.69773 238.65353q1.69866 0 3.136.57866 1.43733.56 2.48266 1.64267 1.04533 1.064 1.624 2.65066.59733 1.568.59733 3.584 0 .784-.168 1.04533-.168.26134-.63467.26134H88.15373q.03733 1.79199.48533 3.11733.448 1.32533 1.232 2.22133.784.87733 1.86667 1.32533 1.08266.42933 2.42666.42933 1.25067 0 2.14667-.28.91466-.29866 1.568-.63466.65333-.336 1.08266-.616.448-.29867.76533-.29867.41067 0 .63467.31733l.93333 1.21334q-.616.74666-1.47466 1.30666-.85867.54134-1.848.896-.97067.35467-2.016.52267-1.04533.18666-2.072.18666-1.96 0-3.62133-.65333-1.64266-.672-2.856-1.94133-1.19466-1.288-1.86666-3.17333-.672-1.88533-.672-4.33066 0-1.97867.59733-3.696.616-1.71733 1.75467-2.968 1.13866-1.26933 2.78133-1.97866 1.64267-.728 3.696-.728zm.07467 2.44533q-2.408 0-3.78933 1.4-1.38134 1.38133-1.71734 3.84533h10.28533q0-1.15733-.31734-2.10933-.31733-.97067-.93333-1.66134-.616-.70933-1.512-1.08266-.87733-.392-2.016-.392z"/><path d="M105.75404 257.86151v-18.90932h1.97867q.70933 0 .89599.69067l.24267 1.94133q1.04533-1.288 2.33333-2.10933 1.30667-.82133 3.024-.82133 1.92266 0 3.09866 1.064 1.19467 1.064 1.71734 2.87466.392-1.02666 1.02666-1.77333.65333-.74667 1.456-1.232.80267-.48533 1.69867-.70933.91466-.224 1.84799-.224 1.49334 0 2.65067.48533 1.176.46667 1.97866 1.38133.82134.91467 1.25067 2.25867.42933 1.32533.42933 3.04266v12.03999h-3.32266v-12.03999q0-2.22133-.97067-3.36-.97066-1.15733-2.81866-1.15733-.82133 0-1.568.29867-.728.28-1.288.84-.56.56-.896 1.41866-.31733.84-.31733 1.96v12.03999h-3.32267v-12.03999q0-2.27733-.91466-3.39733-.91467-1.12-2.66933-1.12-1.232 0-2.296.672-1.04533.65333-1.92267 1.792v14.09332z"/><path d="M147.20568 242.06952q-.224.41067-.69066.41067-.28 0-.63467-.20533-.35467-.20534-.87733-.448-.504-.26133-1.21333-.46667-.70934-.224-1.68-.224-.84 0-1.512.224-.672.20534-1.15733.57867-.46667.37333-.728.87733-.24267.48533-.24267 1.064 0 .728.41067 1.21333.42933.48534 1.12.84.69066.35467 1.56799.63467.87734.26133 1.792.57866.93334.29867 1.81067.672.87733.37334 1.568.93334.69066.56 1.10133 1.38133.42933.80266.42933 1.94133 0 1.30667-.46666 2.42666-.46667 1.10134-1.38134 1.92267-.91466.80267-2.23999 1.26933-1.32534.46667-3.06134.46667-1.97866 0-3.58399-.63467-1.60533-.65333-2.72533-1.66133l.784-1.26933q.14933-.24267.35466-.37334.20534-.13066.54134-.13066.33599 0 .70933.26133.37333.26133.896.57867.54133.31733 1.288.57866.76533.26134 1.90399.26134.97067 0 1.69867-.24267.728-.26133 1.21333-.69067.48533-.42933.70933-.98933.24267-.56.24267-1.19466 0-.784-.42933-1.288-.41067-.52267-1.10133-.87734-.69067-.37333-1.58667-.63466-.87733-.28-1.81066-.57867-.91467-.29866-1.81067-.672-.87733-.392-1.568-.97066-.69066-.57867-1.12-1.41867-.41066-.85866-.41066-2.072 0-1.08266.448-2.072.448-1.00799 1.30666-1.75466.85867-.76533 2.10933-1.21333 1.25067-.448 2.856-.448 1.86667 0 3.34133.59733 1.49333.57867 2.576 1.60533z"/><path d="M151.48384 255.80818q0-.48533.168-.91467.18667-.42933.48534-.74666.31733-.31734.74666-.504.42934-.18667.91467-.18667t.91466.18667q.42934.18666.74667.504.31733.31733.48533.74666.18667.42934.18667.91467 0 .504-.18667.93333-.168.41067-.48533.728t-.74667.48533q-.42933.18667-.91466.18667-.48533 0-.91467-.18667-.42933-.168-.74666-.48533-.29867-.31733-.48534-.728-.168-.42933-.168-.93333z"/><path d="M164.21041 238.95219v20.30932q0 1.13867-.29866 2.10933-.29867.98933-.952 1.71733-.63467.728-1.66133 1.13867-1.008.42933-2.42667.42933-.616 0-1.12-.0933-.504-.0933-1.008-.28l.14934-1.792q.0373-.24267.168-.31733.13066-.056.41066-.056h.31734q.168.0187.41066.0187 1.456 0 2.072-.69066.616-.672.616-2.184v-20.30932zm.74667-5.93599q0 .48533-.20533.91466-.18667.41067-.52267.74667-.31733.31733-.74667.504-.42933.18667-.91466.18667-.48533 0-.91467-.18667-.41066-.18667-.74666-.504-.31734-.336-.504-.74667-.18667-.42933-.18667-.91466 0-.48533.18667-.91467.18666-.448.504-.76533.336-.336.74666-.52267.42934-.18666.91467-.18666t.91466.18666q.42934.18667.74667.52267.336.31733.52267.76533.20533.42934.20533.91467z"/><path d="M173.68959 230.36553v27.49598h-3.32267v-27.49598z"/></g></svg>