<svg xmlns="http://www.w3.org/2000/svg" role="img" xmlns:xlink="http://www.w3.org/1999/xlink" viewBox="-1.62 -2.74 142.61 68.36"><title>Price Forecasting logo</title><defs><path id="a" d="M1.176 0H138.31v29.766H1.176z"/></defs><clipPath id="b"><use overflow="visible" xlink:href="#a"/></clipPath><g clip-path="url(#b)"><path fill="#D6002A" d="M16.79932 23.45142c0 .91602-.15088 1.70117-.45312 2.36035-.30176.65918-.69092 1.22754-1.16699 1.70312-.75.75-1.66113 1.28613-2.73193 1.60547s-2.20996.47949-3.41797.47949c-1.04395 0-2.07324-.15039-3.08887-.45312-1.01611-.30176-1.92725-.81836-2.73193-1.55078-.58643-.53125-1.07129-1.18555-1.45508-1.96289-.38525-.77734-.57715-1.63281-.57715-2.56641h3.625c0 .47754.09521.91992.28809 1.33105.19189.41211.43408.76562.72803 1.05762.41992.42285.92773.7002 1.52295.83887.59473.13672 1.17578.20508 1.74414.20508.67676 0 1.31787-.07715 1.92188-.2334.604-.15527 1.08887-.4248 1.45508-.81055.21973-.23633.40186-.48828.54883-.75488.14697-.26562.21924-.63574.21924-1.11133 0-.71289-.23242-1.24902-.69922-1.60645-.4668-.35547-1.00195-.58984-1.60693-.69922-.65918-.12891-1.38184-.2207-2.16895-.27441s-1.50098-.13867-2.14111-.24902c-.67822-.11035-1.31396-.30176-1.9082-.57617-.59473-.27441-1.1167-.63574-1.56592-1.08496-.44775-.44824-.80469-.98828-1.06982-1.62012-.26611-.63086-.39893-1.34863-.39893-2.1543 0-.76953.15576-1.47363.4668-2.11426.31104-.6416.72314-1.2168 1.23584-1.73047.64014-.64062 1.46436-1.14355 2.47119-1.50977s2.08691-.54883 3.24023-.54883c1.04297 0 2.04492.16016 3.00586.47949.96094.32129 1.77197.79199 2.43018 1.41406.58594.5498 1.05664 1.17188 1.41357 1.86719.35742.69629.54395 1.45508.56299 2.2793h-3.62402c-.01855-.34668-.10596-.69141-.26074-1.0293-.15625-.33887-.35303-.63574-.58984-.89258-.31201-.3291-.75098-.58496-1.31836-.76953-.56787-.18164-1.1167-.27344-1.64795-.27344-.54883 0-1.11182.07227-1.68799.21875-.57666.14648-1.06689.43066-1.46875.85156-.20215.21973-.3623.45703-.48096.71484-.11914.25586-.17822.56641-.17822.93262 0 .64062.18311 1.12988.54883 1.46875.36621.33887.84229.55371 1.42822.64551.62207.09277 1.32178.1748 2.1001.24707.77783.07324 1.48682.15527 2.12793.24707.73193.10938 1.42285.30762 2.07275.59082.65039.28418 1.21729.65918 1.70312 1.125.48389.46777.86914 1.0293 1.15332 1.68848.28171.6592.42478 1.40041.42478 2.22463"/></g><defs><path id="c" d="M1.176 0H138.31v29.766H1.176z"/></defs><clipPath id="d"><use overflow="visible" xlink:href="#c"/></clipPath><g clip-path="url(#d)"><path fill="#D6002A" d="M32.12744 29.27173l-1.37207-1.53809c-.78809.69629-1.65332 1.20801-2.59521 1.53809-.94287.3291-1.91797.49414-2.9248.49414-.85986 0-1.68408-.13672-2.47119-.41211-.78711-.27246-1.47266-.66309-2.05908-1.16699-.58496-.50293-1.05176-1.12109-1.3999-1.85254-.34766-.73242-.52197-1.55762-.52197-2.47266 0-1.20801.31592-2.24023.94824-3.10254.63086-.86035 1.46875-1.61035 2.51172-2.25098-.31201-.33008-.59473-.6543-.85107-.97559-.25684-.31934-.47559-.64551-.65869-.97559-.18408-.3291-.3252-.67676-.42627-1.04297-.1001-.36621-.15088-.77832-.15088-1.23535 0-.76855.14209-1.45508.42627-2.05957.28271-.60352.6626-1.12109 1.13867-1.55078.47607-.43066 1.03906-.75488 1.68896-.97559.64893-.21875 1.34033-.32812 2.07324-.32812.71387 0 1.39502.10449 2.04492.31543.6499.20996 1.22217.52148 1.7168.93262.49414.41211.88721.91602 1.18018 1.51074s.43994 1.27637.43994 2.0459c0 .64062-.0918 1.21191-.27588 1.71582-.18213.50293-.43896.96094-.76807 1.37305-.3291.41113-.71924.79102-1.16699 1.13867-.44922.34961-.93799.67773-1.46924.98828l3.37744 3.67969c.16455-.31055.27881-.67285.34277-1.08496s.11377-.8457.15088-1.30371c.03711-.43945.05615-.86914.05615-1.29102v-1.09473h5.02393v2.71777h-2.25098c-.03809.76855-.13818 1.52832-.30176 2.27832-.16504.75195-.45801 1.44531-.87939 2.08789l3.59619 3.89746h-4.17286zm-7.88037-8.62207c-.32861.20215-.63086.39551-.90576.57715-.27393.18359-.51807.39551-.72803.63184-.20996.23828-.375.50781-.49414.81055-.11865.30273-.17773.6543-.17773 1.05762 0 .49414.0957.93359.28809 1.31836.19287.38379.44873.7041.76855.96094.32031.25586.69043.44727 1.1123.57617.4209.12793.85986.19043 1.31787.19043.58496 0 1.1709-.08203 1.75684-.24707.58643-.16504 1.08936-.4834 1.51025-.96094l-4.44824-4.91505zm3.40527-6.3418c0-.67676-.20605-1.19922-.61816-1.56445-.41113-.36621-.92871-.5498-1.55078-.5498-.56689 0-1.07129.16895-1.51025.50879-.43896.33887-.65869.84668-.65869 1.52344 0 .31152.05859.60449.17773.87793.11914.27539.26514.53613.43994.7832.17334.24707.37012.47949.59033.7002.21875.21875.42969.42969.63184.63086.29199-.16406.58887-.33398.89209-.50781.30078-.17285.5708-.37012.80908-.59082.23779-.2207.42969-.47656.57666-.76953.14697-.29103.22021-.63869.22021-1.04201"/></g><defs><path id="e" d="M1.176 0H138.31v29.766H1.176z"/></defs><clipPath id="f"><use overflow="visible" xlink:href="#e"/></clipPath><g clip-path="url(#f)"><path fill="#D6002A" d="M53.38721 16.01001c0 .93359-.146 1.78418-.43896 2.55371s-.72803 1.42871-1.30518 1.97754c-.57568.54883-1.29395.97559-2.15479 1.27637-.85986.30273-1.84912.45312-2.96484.45312h-4.11816v6.97461h-3.51514V9.77759h7.6333c1.11572 0 2.10498.15137 2.96484.45312.86084.30273 1.5791.72363 2.15479 1.26367.57715.54004 1.01221 1.19336 1.30518 1.96289.29296.76856.43896 1.62012.43896 2.55274m-3.56787.02832c0-.93457-.2749-1.69336-.82422-2.2793-.54883-.58496-1.41895-.87793-2.60791-.87793h-3.98096v6.28711h3.98096c1.18896 0 2.05908-.28809 2.60791-.86523.54834-.57617.82422-1.33106.82422-2.26465"/></g><defs><path id="g" d="M1.176 0H138.31v29.766H1.176z"/></defs><clipPath id="h"><use overflow="visible" xlink:href="#g"/></clipPath><g clip-path="url(#h)"><path fill="#D6002A" d="M74.25537 29.24536l-.41211-2.14355c-.14648.27539-.36719.56348-.6582.86523-.29492.30176-.6543.57324-1.08594.81055-.42969.23828-.91016.43555-1.44043.5918-.53027.15332-1.09961.23145-1.70264.23145-1.13477 0-2.19287-.15527-3.1709-.4668-.97998-.31055-1.854-.87793-2.62207-1.70215-.5127-.53027-.92969-1.08887-1.24902-1.6748-.3208-.58594-.57666-1.20801-.76904-1.86719-.19287-.65918-.32471-1.34961-.39893-2.07227-.07275-.72363-.10889-1.48633-.10889-2.29395 0-.78418.03125-1.54004.09619-2.26465.06396-.72266.18799-1.4043.36963-2.04492.18311-.64062.44043-1.25391.76904-1.83984.33008-.58496.75928-1.14453 1.29102-1.6748.75-.75 1.64209-1.31836 2.67627-1.70215 1.03369-.38574 2.07373-.57715 3.1167-.57715 1.2085 0 2.30713.20215 3.29541.60352.98828.40332 1.8125.94336 2.4707 1.62012.47754.49512.87891 1.05762 1.20898 1.68945.32812.63086.52148 1.37793.57617 2.2373h-3.625c-.03711-.38477-.13672-.71387-.30176-.98828s-.34668-.53906-.54883-.7959c-.67871-.78711-1.71191-1.18164-3.10449-1.18164-.56689 0-1.14404.11523-1.729.34473-.58594.22852-1.0708.55273-1.45508.97363-.33008.34766-.59473.75098-.79688 1.20801-.20117.45801-.35693.93848-.46582 1.44238-.11035.50391-.1792 1.01074-.20605 1.52246-.02832.5127-.04102.98828-.04102 1.42676 0 .44043.01709.9209.05371 1.44238.03711.52148.11035 1.03906.22021 1.55078.10986.51465.26514 1.00195.4668 1.46973.20117.46777.46631.87402.7959 1.22266.38428.4209.86523.73047 1.44238.93262.57568.20215 1.14795.30273 1.71484.30273.64258 0 1.2041-.10059 1.68945-.30273.48438-.20117.89258-.47461 1.22266-.82227.53027-.5498.87305-1.13086 1.0293-1.74316.15527-.61328.23242-1.29492.23242-2.04492h-4.64062v-2.93848h8.07227v10.65332h-2.27733z"/></g><g><defs><path id="i" d="M1.176 0H138.31v29.766H1.176z"/></defs><clipPath id="j"><use overflow="visible" xlink:href="#i"/></clipPath><g clip-path="url(#j)"><path fill="#D6002A" d="M85.12451 29.21704c-.34863.07227-.60059.12402-.75488.15039-.15527.02734-.40723.04102-.75488.04102-1.17188 0-2.11328-.30273-2.82812-.90625-.71387-.60449-1.07031-1.58301-1.07031-2.93848V9.39282h3.45898V24.9895c0 .4209.08203.75488.24805 1.00195.16406.24609.53906.37012 1.125.37012.14648 0 .25586-.00488.33008-.01367.07227-.00879.1543-.01465.24609-.01465v2.88379z"/></g></g><g><defs><path id="k" d="M1.176 0H138.31v29.766H1.176z"/></defs><clipPath id="l"><use overflow="visible" xlink:href="#k"/></clipPath><g clip-path="url(#l)"><path fill="#D6002A" d="M99.69385 22.10571c0 1.20801-.14746 2.2207-.43848 3.03418-.29297.81445-.70508 1.56152-1.23633 2.2373-.49316.60352-1.17578 1.125-2.04492 1.56445-.87109.43848-1.85449.65918-2.95215.65918-1.09863 0-2.08203-.2207-2.9502-.65918-.87012-.43945-1.55273-.96094-2.0459-1.56445-.53125-.67676-.94238-1.42285-1.23633-2.2373-.29199-.81348-.43848-1.82617-.43848-3.03418s.14648-2.21973.43848-3.0332c.29395-.81445.70508-1.56152 1.23633-2.23828.49316-.60449 1.17578-1.125 2.0459-1.56543.86816-.43848 1.85156-.65918 2.9502-.65918 1.09766 0 2.08105.2207 2.95215.65918.86914.44043 1.55176.96094 2.04492 1.56543.53125.67773.94336 1.42383 1.23633 2.23828.29102.81348.43848 1.8252.43848 3.0332m-3.48828 0c0-.67676-.06348-1.33203-.19238-1.96289-.12891-.63281-.40137-1.17676-.82227-1.63477-.23828-.25586-.54004-.4707-.90625-.64551-.36523-.17383-.78711-.26074-1.26367-.26074s-.89648.08691-1.26367.26074c-.36719.1748-.66797.38965-.90625.64551-.41992.45801-.69434 1.00195-.82227 1.63477-.12793.63086-.19141 1.28613-.19141 1.96289 0 .67773.06348 1.33203.19141 1.96289.12793.63281.40234 1.17773.82227 1.63477.23828.25586.54102.4707.90625.64551.36621.17383.78711.26074 1.26367.26074s.89648-.08691 1.26367-.26074c.36621-.1748.66797-.38965.90625-.64551.4209-.45703.69336-1.00195.82227-1.63477.1289-.63086.19238-1.28515.19238-1.96289"/></g></g><g><defs><path id="m" d="M1.176 0H138.31v29.766H1.176z"/></defs><clipPath id="n"><use overflow="visible" xlink:href="#m"/></clipPath><g clip-path="url(#n)"><path fill="#D6002A" d="M115.53076 22.13306c0 1.35352-.21094 2.55762-.63281 3.61035s-1.06055 1.92676-1.92188 2.62305c-.43848.36426-.94629.65723-1.52246.87793-.57715.21973-1.22266.3291-1.93652.3291-.78711 0-1.54688-.15039-2.27832-.45215-.73145-.30371-1.30957-.7832-1.72949-1.44238l-.2207 1.56543h-2.96387V9.42017h3.43066v6.58984c.33008-.40234.82031-.73633 1.46875-1.00195.65039-.26465 1.40625-.39844 2.2666-.39844.73145 0 1.3877.10156 1.96387.30273.57617.2002 1.08398.48438 1.52148.85059 1.70313 1.41016 2.55469 3.5332 2.55469 6.37012m-3.48828-.05371c0-.62207-.06055-1.23633-.17871-1.8418-.11914-.60352-.36035-1.14258-.72754-1.61719-.25781-.31348-.57324-.57715-.94727-.79785-.37598-.21973-.82812-.32812-1.35938-.32812-.67676 0-1.22656.1416-1.64648.4248-.42188.28418-.75195.64844-.9873 1.09863-.2373.44824-.39941.94336-.48145 1.48242-.08203.54004-.12305 1.06543-.12305 1.5791 0 .69434.08203 1.40332.24805 2.12793.16406.72266.49414 1.3125.9873 1.77051.2373.2207.52051.39551.85254.52246.32812.12793.71289.19043 1.15137.19043.53125 0 .9834-.1084 1.35938-.33008.37402-.21875.69043-.4834.94629-.7959.36719-.47559.6084-1.01953.72852-1.63379.11816-.61327.17773-1.22851.17773-1.85155"/></g></g><g><defs><path id="o" d="M1.176 0H138.31v29.766H1.176z"/></defs><clipPath id="p"><use overflow="visible" xlink:href="#o"/></clipPath><g clip-path="url(#p)"><path fill="#D6002A" d="M130.76709 29.08032c-.29297.12891-.54492.22461-.75391.28809-.21094.06348-.52539.09668-.94629.09668-.75098 0-1.32715-.20215-1.72949-.60449-.4043-.40039-.63184-.86816-.68652-1.39844-.33008.58594-.87891 1.08887-1.64746 1.50977-.76953.4209-1.66602.63086-2.68945.63086-.86133 0-1.6123-.12305-2.25391-.37012-.64062-.24707-1.17578-.57617-1.60547-.98828-.42871-.41211-.75488-.8877-.97363-1.42773-.21973-.54004-.3291-1.10254-.3291-1.6875 0-.67773.12305-1.28125.37012-1.81348.24512-.53027.59082-.98828 1.02832-1.37305.43945-.38379.95312-.68164 1.53906-.8916.58398-.21094 1.21484-.34473 1.89453-.39941l4.19922-.30176v-.87988c0-.67676-.15918-1.22266-.47949-1.63379-.31934-.41211-.96484-.61816-1.93652-.61816-.80469 0-1.43164.1748-1.88086.52148-.44727.34863-.68945.85156-.72754 1.51074h-3.32129c.05469-.80664.24121-1.50195.5625-2.08691.31836-.58594.74609-1.06641 1.27539-1.44141.53027-.375 1.14453-.6543 1.83984-.83691s1.44531-.27539 2.25-.27539c1.22852 0 2.32227.21582 3.2832.64551.95898.43066 1.65137 1.18555 2.07129 2.26465.18262.45801.29785.93457.34473 1.42871.04492.49316.06836.97949.06836 1.4541v5.30078c0 .3291.05859.5625.17773.69922.11914.1377.3252.20605.61816.20605.14551 0 .24707-.00879.30176-.02734.05664 0 .10156-.00879.13672-.02637v2.52538zm-4.58398-6.17871l-3.625.27441c-.5293.03711-1.00586.21094-1.42773.52148-.42188.3125-.63184.76074-.63184 1.34668 0 .54883.20605.98242.61816 1.30371s.88281.47949 1.41406.47949c1.08008 0 1.95898-.27832 2.63672-.83691.67578-.55859 1.01562-1.36816 1.01562-2.43066v-.6582h.00001z"/></g></g><g><defs><path id="q" d="M1.176 0H138.31v29.766H1.176z"/></defs><clipPath id="r"><use overflow="visible" xlink:href="#q"/></clipPath><g clip-path="url(#r)"><path fill="#D6002A" d="M138.31006 29.21704c-.34766.07227-.59961.12402-.75391.15039-.15625.02734-.4082.04102-.75586.04102-1.17188 0-2.11328-.30273-2.82812-.90625-.71289-.60449-1.07031-1.58301-1.07031-2.93848V9.39282h3.45898V24.9895c0 .4209.08301.75488.24805 1.00195.16504.24609.53906.37012 1.125.37012.14648 0 .25586-.00488.33008-.01367.07227-.00879.1543-.01465.24609-.01465v2.88379z"/></g></g><g><defs><path id="s" d="M1.176 0H138.31v29.766H1.176z"/></defs><clipPath id="t"><use overflow="visible" xlink:href="#s"/></clipPath><g clip-path="url(#t)"><path d="M1.176 0H138.31v3.16H1.176z"/></g></g><g><path d="M26.10303 56.64478c-.50586.42188-1.22754.63281-2.16602.63281h-1.79834v3.10547H20.3457v-8.63672h3.7085c.85498 0 1.53662.22266 2.04443.66797.50879.44531.7627 1.13477.7627 2.06836 0 1.01953-.25293 1.74023-.7583 2.16211zm-1.37744-3.11133c-.22852-.19141-.54883-.28711-.96045-.28711h-1.62646v2.54297h1.62646c.41162 0 .73193-.10352.96045-.31055s.34277-.53516.34277-.98438-.11426-.76953-.34277-.96093zm6.99609.31347c.02148.00195.06934.00488.14355.00879v1.71094c-.10547-.01172-.19922-.01953-.28125-.02344s-.14844-.00586-.19922-.00586c-.67188 0-1.12305.21875-1.35352.65625-.12891.24609-.19336.625-.19336 1.13672v3.05273h-1.68164v-6.38672H29.75v1.11328c.25781-.42578.48242-.7168.67383-.87305.3125-.26172.71875-.39258 1.21875-.39258.03125.00001.05762.00099.0791.00294zm2.83887-.6123h-1.69336V51.6936h1.69336v1.54102zm-1.69336.76172h1.69336v6.38672h-1.69336v-6.38672zm7.13086 2.29101c-.03125-.23828-.11133-.45312-.24121-.64453-.1875-.25781-.47949-.38672-.87451-.38672-.56396 0-.94971.2793-1.15723.83789-.10986.2959-.16455.68945-.16455 1.18066 0 .46777.05469.84375.16455 1.12793.19971.53125.57568.79688 1.12744.79688.3916 0 .66992-.10547.83398-.31641.16504-.21094.26465-.48438.2998-.82031h1.70508c-.03906.50781-.22266.98828-.55176 1.44141-.52344.73047-1.2998 1.0957-2.32812 1.0957s-1.78516-.30469-2.26953-.91406c-.48535-.60938-.72754-1.39941-.72754-2.37012 0-1.0957.26758-1.94824.80371-2.55762.53564-.60938 1.27441-.91406 2.2168-.91406.80176 0 1.45801.17969 1.96777.53906.51074.35938.8125.99414.90625 1.9043h-1.71093zm7.01562-2.16211c.44531.2002.81348.51465 1.10352.94531.26172.37988.43066.81934.50879 1.32031.04492.29297.06348.71582.05469 1.26758H44.0293c.02637.64062.24902 1.08984.66797 1.34766.25488.16016.56152.24023.9209.24023.37988 0 .68945-.09766.92676-.29297.12988-.10547.24414-.25195.34375-.43945h1.70508c-.04492.37891-.25098.76367-.61914 1.1543-.57227.62109-1.37305.93164-2.40234.93164-.85059 0-1.60059-.26172-2.25-.78613-.64941-.52344-.97461-1.37598-.97461-2.55664 0-1.10645.29297-1.95508.87988-2.54492.58691-.59082 1.34766-.88574 2.28418-.88574.55565 0 1.05663.09961 1.50194.29882zm-2.49805 1.44336c-.23633.24316-.38477.57227-.44531.98828h2.87695c-.03027-.44336-.17871-.7793-.44531-1.00879-.26562-.22949-.5957-.34473-.99023-.34473-.42871.00001-.76074.12208-.9961.36524zm8.47852-3.81054h6.1582v1.51758h-4.36523v1.98633h3.82617v1.5h-3.82617v3.62109h-1.79297v-8.625zm12.52148 7.84375c-.53906.66504-1.35742.99805-2.45508.99805s-1.91602-.33301-2.45508-.99805-.80859-1.4668-.80859-2.40332c0-.9209.26953-1.71875.80859-2.39453.53906-.6748 1.35742-1.0127 2.45508-1.0127s1.91602.33789 2.45508 1.0127c.53906.67578.80859 1.47363.80859 2.39453.00001.93652-.26952 1.73828-.80859 2.40332zm-1.33593-.92285c.26172-.34766.39258-.84082.39258-1.48047s-.13086-1.13184-.39258-1.47754c-.26172-.34473-.63672-.51758-1.125-.51758s-.86426.17285-1.12793.51758c-.26367.3457-.39551.83789-.39551 1.47754s.13184 1.13281.39551 1.48047c.26367.34668.63965.52051 1.12793.52051s.86328-.17384 1.125-.52051zm6.8872-4.83204c.02148.00195.07031.00488.14453.00879v1.71094c-.10547-.01172-.19922-.01953-.28125-.02344s-.14844-.00586-.19922-.00586c-.67188 0-1.12305.21875-1.35352.65625-.12891.24609-.19336.625-.19336 1.13672v3.05273h-1.68213v-6.38672h1.59424v1.11328c.25781-.42578.48242-.7168.67383-.87305.3125-.26172.71875-.39258 1.21875-.39258.03126.00001.05665.00099.07813.00294zm5.28516.27832c.44531.2002.8125.51465 1.10352.94531.26172.37988.42969.81934.50781 1.32031.04492.29297.06445.71582.05469 1.26758h-4.65039c.02539.64062.24805 1.08984.66797 1.34766.25391.16016.56055.24023.91992.24023.38086 0 .68945-.09766.92773-.29297.12891-.10547.24414-.25195.34375-.43945h1.70508c-.04492.37891-.25195.76367-.61914 1.1543-.57227.62109-1.37305.93164-2.40234.93164-.85156 0-1.60156-.26172-2.25-.78613-.65039-.52344-.97461-1.37598-.97461-2.55664 0-1.10645.29297-1.95508.87891-2.54492.58789-.59082 1.34766-.88574 2.28516-.88574.55468 0 1.05663.09961 1.50194.29882zM73.854 55.5686c-.23633.24316-.38477.57227-.44531.98828h2.87695c-.03125-.44336-.17969-.7793-.44531-1.00879s-.5957-.34473-.99023-.34473c-.42969.00001-.76172.12208-.9961.36524zm8.83008.71875c-.03125-.23828-.11133-.45312-.24219-.64453-.1875-.25781-.47852-.38672-.875-.38672-.5625 0-.94922.2793-1.15625.83789-.10938.2959-.16406.68945-.16406 1.18066 0 .46777.05469.84375.16406 1.12793.19922.53125.57617.79688 1.12695.79688.39258 0 .66992-.10547.83398-.31641.16602-.21094.26562-.48438.30078-.82031h1.70508c-.03906.50781-.22266.98828-.55273 1.44141-.52344.73047-1.29883 1.0957-2.32812 1.0957-1.02734 0-1.78516-.30469-2.26953-.91406s-.72656-1.39941-.72656-2.37012c0-1.0957.26758-1.94824.80273-2.55762s1.27539-.91406 2.2168-.91406c.80273 0 1.45898.17969 1.96875.53906s.8125.99414.90625 1.9043h-1.71094zm5.38281.21094c.31055-.03906.5332-.08789.66602-.14648.24023-.10156.36133-.25977.36133-.47461 0-.26172-.0918-.44238-.27734-.54199-.18359-.09961-.45312-.14941-.81055-.14941-.39844 0-.68164.09766-.84961.29297-.11719.14453-.19727.33984-.23633.58594h-1.61133c.03516-.55859.19141-1.01758.4707-1.37695.44336-.5625 1.20312-.84375 2.2832-.84375.70117 0 1.32617.13867 1.87109.41602s.81836.80078.81836 1.57031v2.92969c0 .20312.00391.44922.01172.73828.01172.21875.04492.36719.09961.44531s.13672.14258.24609.19336v.24609h-1.81641c-.05078-.12891-.08594-.25-.10547-.36328s-.03516-.24219-.04688-.38672c-.23242.25-.5.46289-.80273.63867-.36133.20703-.76953.31055-1.22461.31055-.58203 0-1.0625-.16504-1.44141-.49512s-.56834-.79786-.56834-1.40333c0-.78516.30469-1.35352.91406-1.70508.33398-.19141.82617-.32812 1.47656-.41016l.57227-.07031zm1.02149.7793c-.10742.06641-.21484.12012-.32422.16113s-.25781.0791-.44922.11426l-.37891.07031c-.35742.0625-.61328.13867-.76758.22852-.26367.15234-.39453.38867-.39453.70898 0 .28516.08008.49121.24023.61816s.35547.19043.58594.19043c.36523 0 .70117-.10547 1.00977-.31641.30664-.21094.4668-.5957.47852-1.1543v-.62108zm4.41797 1.0664c.03516.29688.11133.50781.22852.63281.20898.22266.59375.33398 1.1543.33398.33008 0 .5918-.04883.78711-.14648.19336-.09766.29102-.24414.29102-.43945 0-.1875-.07812-.33008-.23438-.42773-.1582-.09766-.74023-.26562-1.74805-.50391-.72461-.17969-1.23633-.4043-1.5332-.67383-.29688-.26562-.44531-.64844-.44531-1.14844 0-.58984.23047-1.09668.69531-1.52051s1.11719-.63574 1.95898-.63574c.79883 0 1.44922.15918 1.95117.47754.50391.31836.79297.86816.86719 1.64941h-1.66992c-.02344-.21484-.08398-.38477-.18164-.50977-.18555-.22656-.49805-.33984-.94141-.33984-.36328 0-.62305.05664-.77734.16992-.15625.11328-.23242.24609-.23242.39844 0 .19141.08203.33008.24609.41602.16406.08984.74609.24414 1.74414.46289.66406.15625 1.16406.39258 1.49609.70898.32812.32031.49219.7207.49219 1.20117 0 .63281-.23633 1.14941-.70703 1.5498-.47266.40039-1.20117.60059-2.1875.60059-1.00586 0-1.75-.21191-2.22852-.63574-.48047-.42383-.71875-.96387-.71875-1.62012h1.69336zm4.72265-3.09961v-1.18945h.89062v-1.78125h1.65234v1.78125h1.03711v1.18945h-1.03711v3.375c0 .26172.0332.4248.09961.48926s.26953.09668.60938.09668c.05078 0 .10352-.00098.16016-.00293s.11328-.00488.16797-.00879v1.24805l-.79102.0293c-.78906.02734-1.32812-.10938-1.61719-.41016-.1875-.19141-.28125-.48633-.28125-.88477v-3.93164H98.229zm6.36914-2.00976h-1.69336V51.6936h1.69336v1.54102zm-1.69335.76172h1.69336v6.38672h-1.69336v-6.38672zm8.46093.36621c.41797.3457.62695.91895.62695 1.71973v4.30078h-1.71094v-3.88477c0-.33594-.04492-.59375-.13477-.77344-.16211-.32812-.47266-.49219-.92969-.49219-.5625 0-.94922.24023-1.1582.7207-.10742.25391-.16211.57812-.16211.97266v3.45703h-1.66992v-6.375h1.61719v.93164c.21289-.32812.41602-.56445.60547-.70898.34375-.25781.77734-.38672 1.30273-.38672.65626 0 1.19337.17286 1.61329.51856zm5.33789-.37207c.40625.16797.73438.47656.98438.92578v-.91992h1.62891v6.05859c0 .82422-.13867 1.44531-.41602 1.86328-.47656.71875-1.39062 1.07812-2.74219 1.07812-.81641 0-1.48242-.16016-1.99805-.48047s-.80078-.79883-.85547-1.43555h1.81641c.04688.19531.12305.33594.22852.42188.17969.15234.48242.22852.9082.22852.60156 0 1.00391-.20117 1.20703-.60352.13281-.25781.19922-.69141.19922-1.30078v-.41016c-.16016.27344-.33203.47852-.51562.61523-.33203.25391-.76367.38086-1.29492.38086-.82031 0-1.47656-.28809-1.9668-.86426s-.73438-1.35645-.73438-2.34082c0-.94922.23633-1.74707.70703-2.39355.47266-.64648 1.14258-.96973 2.00781-.96973.32032.00001.59962.04884.83594.1465zm.57032 4.5791c.26758-.29492.40234-.76465.40234-1.40918 0-.60547-.12695-1.06641-.38281-1.38281-.25391-.31641-.5957-.47461-1.02344-.47461-.58398 0-.98633.27539-1.20898.82617-.11523.29297-.17383.6543-.17383 1.08398 0 .37109.0625.70117.18555.99023.22656.53906.63086.80859 1.21484.80859.38867.00001.71679-.14745.98633-.44237z"/></g></svg>