<svg xmlns="http://www.w3.org/2000/svg" role="img" viewBox="-4.72 -4.72 245.44 236.94"><title>Principles of Green Software Engineering logo</title><g transform="translate(25.84 -3.038)"><g transform="translate(24.463 50.47) scale(.74204)"><path d="M-48.76523 214.62228q0 1.9336-.6836 3.59375-.66405 1.64063-1.875 2.85157-1.5039 1.5039-3.55468 2.26562-2.05078.74219-5.17578.74219h-3.86719v10.83984h-3.86719v-29.08203h7.89063q2.61719 0 4.4336.44922 1.8164.42969 3.22265 1.36719 1.66015 1.11328 2.5586 2.77344.91796 1.66015.91796 4.19921zm-4.02344.0977q0-1.50391-.52734-2.61719-.52734-1.11328-1.60156-1.8164-.9375-.60547-2.14844-.85938-1.1914-.27344-3.02734-.27344h-3.82813v11.6211h3.26172q2.34375 0 3.8086-.41016 1.46484-.42969 2.3828-1.34765.91797-.9375 1.28907-1.97266.39062-1.03516.39062-2.32422z"/><path d="M-30.34726 217.10275h-.19531q-.82031-.19531-1.60156-.27343-.76172-.0977-1.81641-.0977-1.69922 0-3.28125.76172-1.58203.74219-3.04688 1.93359v15.48828h-3.67187v-21.8164h3.67187v3.22265q2.1875-1.75781 3.84766-2.48047 1.67969-.74218 3.41797-.74218.95703 0 1.38672.0586.42969.0391 1.28906.17578z"/><path d="M-22.94492 209.4465h-4.14062v-3.80859h4.14062zm-.23437 25.46875h-3.67188v-21.8164h3.67188z"/><path d="M2.32852 234.91525h-3.67187v-12.42187q0-1.50391-.17578-2.8125-.17579-1.32813-.64454-2.07031-.48828-.82032-1.40625-1.21094-.91796-.41016-2.3828-.41016-1.50391 0-3.14454.74219-1.64062.74219-3.14453 1.89453v16.28906h-3.67188v-21.8164h3.67188v2.42187q1.71875-1.42578 3.55469-2.22656 1.83593-.80078 3.76953-.80078 3.53515 0 5.39062 2.1289 1.85547 2.12891 1.85547 6.13282z"/><path d="M25.53165 233.54807q-1.83594.8789-3.4961 1.36718-1.64062.48828-3.4961.48828-2.36327 0-4.33593-.68359-1.97265-.70312-3.3789-2.10937-1.42579-1.40625-2.20704-3.55469-.78125-2.14844-.78125-5.01953 0-5.35157 2.9297-8.39844 2.94921-3.04688 7.77343-3.04688 1.875 0 3.67187.52735 1.81641.52734 3.32032 1.28906v4.08203h-.19532q-1.67968-1.30859-3.47656-2.01172-1.77734-.70312-3.47656-.70312-3.125 0-4.9414 2.10937-1.79688 2.08985-1.79688 6.15235 0 3.94531 1.75781 6.07422 1.77734 2.10937 4.98047 2.10937 1.11328 0 2.26562-.29297 1.15235-.29297 2.07032-.76172.80078-.41015 1.5039-.85937.70313-.46875 1.11328-.80078h.19532z"/><path d="M34.18399 209.4465h-4.14063v-3.80859H34.184zm-.23438 25.46875h-3.67187v-21.8164h3.67188z"/><path d="M60.41446 223.74338q0 2.65625-.76172 4.86328-.76172 2.1875-2.14844 3.71094-1.28906 1.44531-3.04687 2.24609-1.73828.78125-3.6914.78125-1.69923 0-3.08595-.37109-1.36718-.3711-2.79296-1.15235v9.14063h-3.67188v-29.86328h3.67188v2.28515q1.46484-1.23047 3.28124-2.05078 1.83594-.83984 3.90626-.83984 3.9453 0 6.1328 2.98828 2.20704 2.96875 2.20704 8.26172zm-3.78906.0976q0-3.94531-1.34766-5.89843-1.34766-1.95313-4.14063-1.95313-1.58203 0-3.18359.6836-1.60156.68359-3.0664 1.79687v12.36328q1.5625.70313 2.67578.95703 1.1328.25391 2.55859.25391 3.0664 0 4.78516-2.07031 1.71875-2.07032 1.71875-6.13282z"/><path d="M69.84805 234.91525h-3.67187v-30.39062h3.67187z"/><path d="M95.3754 224.38791H79.30118q0 2.01172.60547 3.51562.60546 1.48438 1.66015 2.44141 1.01563.9375 2.40235 1.40625 1.40625.46875 3.08593.46875 2.22657 0 4.47266-.87891 2.26563-.89843 3.22266-1.75781h.1953v4.00391q-1.85546.78125-3.78905 1.30859-1.9336.52735-4.0625.52735-5.4297 0-8.47657-2.92969-3.04687-2.94922-3.04687-8.35938 0-5.35156 2.91015-8.49609 2.9297-3.14453 7.69532-3.14453 4.41406 0 6.79687 2.57812 2.40235 2.57813 2.40235 7.32422zm-3.57422-2.8125q-.01953-2.89063-1.46485-4.47266-1.42578-1.58203-4.35546-1.58203-2.94922 0-4.70704 1.73828-1.73828 1.73828-1.97265 4.31641z"/><path d="M116.52774 228.62619q0 2.98828-2.48047 4.90234-2.46094 1.91407-6.73828 1.91407-2.42187 0-4.45312-.56641-2.01172-.58594-3.37891-1.26953v-4.12109h.19531q1.73828 1.30859 3.86719 2.08984 2.12891.76172 4.08203.76172 2.42188 0 3.78906-.78125 1.36719-.78125 1.36719-2.46094 0-1.28906-.74219-1.95312-.74218-.66407-2.85156-1.13282-.78125-.17578-2.05078-.41015-1.25-.23438-2.28516-.50782-2.87109-.76171-4.08203-2.22656-1.1914-1.48437-1.1914-3.63281 0-1.34766.54687-2.53906.56641-1.19141 1.69922-2.12891 1.09375-.91797 2.77344-1.44531 1.69922-.54688 3.78906-.54688 1.95312 0 3.94531.48828 2.01172.46875 3.33985 1.15235v3.92578h-.19532q-1.40625-1.03516-3.41797-1.73828-2.01171-.72266-3.94531-.72266-2.01172 0-3.39844.78125-1.38671.76172-1.38671 2.28516 0 1.34765.83984 2.03125.82031.68359 2.65625 1.11328 1.01562.23437 2.26562.46875 1.26954.23437 2.10938.42969 2.55859.58593 3.94531 2.01172 1.38672 1.44531 1.38672 3.82812z"/><path d="M127.77774 234.91525h-4.66797v-5.5664h4.66797z"/><path d="M160.88321 232.76682q-2.38281 1.09375-5.21484 1.91406-2.8125.80078-5.44922.80078-3.39844 0-6.23047-.9375-2.83203-.9375-4.82422-2.8125-2.01172-1.89453-3.10547-4.72656-1.09375-2.85157-1.09375-6.66016 0-6.97266 4.0625-10.99609 4.08203-4.04297 11.19141-4.04297 2.48047 0 5.05859.60547 2.59766.58593 5.58594 2.01172v4.58984h-.35156q-.60547-.46875-1.75782-1.23047-1.15234-.76172-2.26562-1.26953-1.34766-.60547-3.06641-.99609-1.69922-.41016-3.86719-.41016-4.88281 0-7.73437 3.14453-2.83203 3.125-2.83203 8.47656 0 5.64453 2.96875 8.78907 2.96875 3.125 8.08594 3.125 1.875 0 3.73046-.3711 1.875-.37109 3.28125-.95703v-7.12891h-7.79296v-3.39843h11.62109z"/><path d="M180.96133 217.10275h-.19531q-.82031-.19531-1.60156-.27343-.76172-.0977-1.81641-.0977-1.69922 0-3.28125.76172-1.58203.74219-3.04687 1.93359v15.48828h-3.67188v-21.8164h3.67188v3.22265q2.1875-1.75781 3.84765-2.48047 1.67969-.74218 3.41797-.74218.95703 0 1.38672.0586.42969.0391 1.28906.17578z"/><path d="M202.68008 224.38791h-16.07421q0 2.01172.60546 3.51562.60547 1.48438 1.66016 2.44141 1.01563.9375 2.40234 1.40625 1.40625.46875 3.08594.46875 2.22656 0 4.47266-.87891 2.26562-.89843 3.22265-1.75781h.19532v4.00391q-1.85547.78125-3.78907 1.30859-1.93359.52735-4.0625.52735-5.42968 0-8.47656-2.92969-3.04687-2.94922-3.04687-8.35938 0-5.35156 2.91015-8.49609 2.92969-3.14453 7.69532-3.14453 4.41406 0 6.79687 2.57812 2.40234 2.57813 2.40234 7.32422zm-3.57421-2.8125q-.0195-2.89063-1.46485-4.47266-1.42578-1.58203-4.35547-1.58203-2.94922 0-4.70703 1.73828-1.73828 1.73828-1.97265 4.31641z"/><path d="M226.50821 224.38791h-16.07422q0 2.01172.60547 3.51562.60547 1.48438 1.66016 2.44141 1.01562.9375 2.40234 1.40625 1.40625.46875 3.08594.46875 2.22656 0 4.47265-.87891 2.26563-.89843 3.22266-1.75781h.19531v4.00391q-1.85547.78125-3.78906 1.30859-1.93359.52735-4.0625.52735-5.42969 0-8.47656-2.92969-3.04688-2.94922-3.04688-8.35938 0-5.35156 2.91016-8.49609 2.92969-3.14453 7.69531-3.14453 4.41406 0 6.79688 2.57812 2.40234 2.57813 2.40234 7.32422zm-3.57422-2.8125q-.0195-2.89063-1.46484-4.47266-1.42578-1.58203-4.35547-1.58203-2.94922 0-4.70703 1.73828-1.73828 1.73828-1.97266 4.31641z"/><path d="M250.3168 234.91525h-3.67187v-12.42187q0-1.50391-.17578-2.8125-.17578-1.32813-.64453-2.07031-.48829-.82032-1.40625-1.21094-.91797-.41016-2.38282-.41016-1.5039 0-3.14453.74219-1.64062.74219-3.14453 1.89453v16.28906h-3.67187v-21.8164h3.67187v2.42187q1.71875-1.42578 3.55469-2.22656t3.76953-.80078q3.53516 0 5.39062 2.1289 1.85547 2.12891 1.85547 6.13282z"/></g><g transform="translate(2.684)"><path fill="#d6e7cc" d="M81.7454 177.75c-1.46997-1.12256-1.67544-6.55139-2.01547-53.25-.32491-44.6232-.6132-52.81057-2.03214-57.7138-2.59168-8.95569-5.60104-14.53156-10.47144-19.40196l-4.49809-4.49808-2.61413 2.43473c-3.94058 3.67016-6.5022 4.6813-11.79839 4.65715-9.99453-.04558-19.10611-6.57833-29.37418-21.06047C12.50246 19.83583 9.01663 15.94752 3 11.13537L.5 9.13585 4.4939 7.4526C9.81697 5.20916 23.8338 3.00016 32.5 3.03894c17.07189.07639 30.85049 6.5407 33.10728 15.53246.38571 1.53682 3.09595 4.07211 7.44098 6.96068C88.9311 36.09097 97.7885 52.36612 99.65241 74.41624 100.00499 78.5873 100.50742 82 100.76892 82c.2615 0 3.34547-2.32857 6.85327-5.1746C112.19243 73.11734 114 70.98262 114 69.29326c0-3.23412 2.63936-9.27667 5.29773-12.1286 7.1228-7.64146 23.9169-10.91632 41.70227-8.13197 7.40038 1.15855 17 3.92122 17 4.89243 0 .35824-2.00875 2.33045-4.46389 4.3827-2.61162 2.18304-7.00575 7.86766-10.58967 13.6997-6.10432 9.93345-13.07049 17.36595-19.2564 20.54547-4.94581 2.54211-14.62401 3.04963-18.63195.97704l-3.3143-1.7139-5.94038 5.84193c-3.26721 3.21306-8.15956 9.14213-10.87189 13.17571L100 118.16755v29.38104c0 28.02472-.08929 29.42883-1.93426 30.41623-2.712 1.45142-14.33883 1.29838-16.32033-.21482z"/><path fill="#c5deb7" d="M82.14818 177.25c-2.04123-1.72286-2.07853-2.56423-2.40505-54.25-.31664-50.1231-.42627-52.78134-2.42139-58.7142-2.7315-8.12259-6.39447-14.26446-10.8297-18.15865l-3.58442-3.14716-4.05986 3.26c-3.67025 2.94715-4.69748 3.25958-10.70381 3.25551C42.7693 49.49187 40.64029 48.9863 37 46.84914c-5.61354-3.2956-13.7179-11.92158-21.38377-22.76008-3.23607-4.57537-7.85055-9.70517-10.2544-11.39956C2.958 10.99512 1.347 9.25301 1.78184 8.81816c.43485-.43485 4.37433-1.73319 8.7544-2.8852 12.12655-3.1894 29.55608-3.18084 39.3986.01935 8.24067 2.67937 14.3753 7.70136 15.50866 12.69587.48674 2.14497 2.40457 3.9672 7.73756 7.35182 15.11585 9.5934 24.45431 26.9319 26.37704 48.97359C99.94318 79.3881 100.46553 83 100.71887 83c.25334 0 2.98506-2.25 6.07049-5 3.08543-2.75 5.93049-5 6.32236-5 .39187 0 1.03096-1.9125 1.42022-4.25 2.1152-12.70197 10.52416-18.5806 28.96806-20.25134 7.8687-.71278 25.14898 1.49218 31.06445 3.96382l3.66072 1.52955-5.15046 4.63071c-2.86644 2.57717-7.46184 8.4538-10.36259 13.25174-8.91561 14.74672-17.5412 21.73634-28.17878 22.83423-3.75829.3879-6.22149.05857-8.83376-1.18102-3.51016-1.66569-3.71486-1.653-6.61205.40998-3.62616 2.58206-10.49362 10.61018-15.43955 18.04898L100 117.4733v29.20665c0 29.0477-.0121 29.21511-2.2225 30.76335-3.15577 2.21038-12.9246 2.08957-15.62932-.1933z"/><path fill="#b9d7a8" d="M82.14313 177.25c-2.04731-1.72379-2.08378-2.53628-2.4347-54.25-.38749-57.10204-.39034-57.13293-6.27956-67.95336C70.77417 50.16908 64.03469 43 62.1041 43c-.48957 0-1.15642.69393-1.48188 1.54207-.8301 2.16322-8.42234 5.40972-12.7125 5.43597-4.90333.03-14.49392-4.95383-19.65108-10.21183-2.33274-2.37836-7.28918-8.58296-11.0143-13.78802-3.76598-5.26212-8.86318-11.01091-11.48099-12.94862-2.58942-1.9167-4.38298-3.80924-3.9857-4.20566C3.09802 7.5064 14.39056 4.96022 22.5 4.1515 42.25679 2.1813 57.53612 6.30333 63.25 15.145 64.7625 17.48542 66 19.9423 66 20.6047c0 .6624 2.3625 2.5439 5.25 4.18108 15.89129 9.01024 26.18428 27.51788 28.36734 51.0068C99.98576 79.75668 100.5884 83 100.95651 83s1.95455-1.3415 3.5254-2.98111c1.57085-1.63962 4.58004-4.17582 6.68709-5.636 3.19806-2.21626 3.831-3.22949 3.831-6.13274 0-7.71668 6.59535-14.54595 17.10491-17.71157 10.15454-3.05868 32.10652-1.83576 43.26305 2.41014l2.86796 1.09147-4.70251 4.13931c-2.58638 2.27662-7.99418 9.13008-12.01734 15.2299-7.81244 11.84505-13.67566 17.32434-21.48756 20.08054-5.75697 2.03118-9.83926 1.90078-14.47443-.46237l-3.86881-1.97243-6.60204 6.72243c-3.63112 3.69734-8.5103 9.64368-10.84263 13.21409L100 117.48332v29.20163c0 29.04253-.01211 29.21012-2.2225 30.75835-3.15543 2.21014-12.92328 2.08938-15.63437-.1933z"/><path fill="#a7cc91" d="M83 177.76307l-2.5-1.3205-.53993-53.47128c-.52953-52.44147-.58386-53.59443-2.82108-59.86495-1.25463-3.51652-3.00381-7.56652-3.88707-9-2.2464-3.64581-9.4554-11.10987-10.71013-11.08906-.57298.0095-2.07428 1.1062-3.33622 2.4371-5.16926 5.4518-13.89643 5.67745-22.80483.58966-5.5842-3.18928-11.1164-9.08614-20.65275-22.01415-3.4364-4.65856-8.1231-9.89087-10.41491-11.62734L1.16616 9.24532l2.5604-1.1666c5.22957-2.38275 16.73238-4.07837 27.58882-4.06685 11.22897.01191 18.51782 1.29683 24.28618 4.28127 3.84048 1.987 9.167 7.93652 9.97006 11.13619.37822 1.50693 2.7457 3.71673 6.39548 5.9695 16.05012 9.9067 25.41552 27.349 27.66177 51.51783l.66902 7.19836 3.60105-3.4056c1.98058-1.87308 5.23112-4.60856 7.22341-6.07884 3.00096-2.21465 3.70916-3.44334 4.12836-7.1625.75384-6.68806 4.19195-11.01373 11.72615-14.7533 6.03145-2.9937 7.31219-3.2388 18.62337-3.56412 11.962-.34404 22.61131 1.03542 29.89977 3.87305l3 1.168-2.5 1.62633c-4.44308 2.89036-8.75597 8.00087-13.86742 16.43205-11.02606 18.18713-25.67733 26.52254-36.59434 20.81929l-3.96176-2.0697-6.73383 6.88224c-3.70361 3.78523-8.55832 9.70507-10.78824 13.1552L100 117.31007v29.22252c0 25.44547-.20475 29.39245-1.58414 30.53724-2.23762 1.85706-12.35142 2.31187-15.41586.69324z"/><path fill="#93c179" d="M84.5 178.33355c-4.6195-1.26752-4.5.14789-4.5-53.29603 0-47.45265-.12881-51.22125-2.00099-58.54139C75.70752 57.5365 72.79778 52.1006 67.42924 46.75c-4.41541-4.40066-5.32912-4.54992-8.32579-1.36012-3.6974 3.9357-9.83525 5.12071-16.4951 3.18464-7.73564-2.24881-14.78142-8.30504-22.82908-19.62284-3.6964-5.19843-9.2689-11.8025-12.38334-14.67573L1.73332 9.05189 4.61666 7.9538c12.16542-4.63306 36.87418-5.22923 47.3032-1.14131 6.36586 2.49525 11.60498 7.21773 13.12842 11.83378.7999 2.42376 2.62841 4.22746 6.94201 6.84783 15.14842 9.20218 24.28027 25.45983 27.13096 48.30186l1.23365 9.885 7.32255-6.09022C113.58058 72.68107 115 70.9578 115 68.7006c0-5.33554 4.89136-12.53347 10.5-15.45139 10.66133-5.54659 36.40133-5.61946 49.7389-.14081l2.73891 1.12505-3.91749 2.83782c-2.35788 1.70803-6.89813 7.37078-11.40436 14.22386-8.57612 13.0426-14.47234 18.74177-22.50887 21.7567-6.11257 2.29313-10.04506 2.15176-15.4279-.55465L121.5 90.87863l-7.24899 7.53968c-3.98694 4.14683-8.82444 10.00252-10.75 13.01265L100 116.90393v29.42559c0 24.30489-.24901 29.63225-1.43093 30.61316-1.59051 1.32-10.95378 2.24566-14.06907 1.39087z"/><path fill="#86ba68" d="M85.12073 178.03298c-1.8586-.45829-3.7642-1.44069-4.23468-2.18312-.47048-.74242-.86897-24.07486-.88552-51.84986-.03257-54.66557-.27985-57.69748-5.55458-68.10666-1.41258-2.78759-4.6046-7.10462-7.09339-9.59341l-4.52506-4.52507-3.16375 3.02148c-8.08328 7.71979-20.33261 5.5443-31.44777-5.58514-2.04379-2.0464-6.25627-7.34927-9.36107-11.78414C12.98273 19.03929 8.4053 13.96689 4.25297 11.24618L1.81844 9.65103 4.1984 8.40403C8.1372 6.34028 22.67771 4 31.56125 4c18.39428 0 30.00892 5.3232 33.41022 15.31248.80568 2.36621 2.65386 4.0859 7.17284 6.67413 14.98516 8.58273 23.90404 24.65698 26.90362 48.48764l1.19523 9.49567 6.10959-5.10505c3.36027-2.80778 6.68056-5.32416 7.37842-5.59195.69786-.2678 1.26883-1.9184 1.26883-3.66802 0-1.74962 1.0125-5.18588 2.25-7.63613C121.53369 53.48705 132.26013 49 148.25226 49c8.35971 0 20.79489 1.92683 26.54556 4.11323l2.61688.99494-4.61814 3.94746c-2.62619 2.2448-7.21837 8.15227-10.64654 13.69592-8.4568 13.67539-15.48886 19.93077-24.95944 22.20273-4.7571 1.14121-6.91611.78308-14.29737-2.37162-2.08316-.89033-12.47973 9.44243-18.52034 18.40666L100 116.47865v29.18925c0 25.20234-.21464 29.40388-1.57143 30.76067-.86428.86429-2.15803 1.57143-2.875 1.57143-.71696 0-2.59732.19491-4.17857.43312-1.58125.23822-4.39567.0582-6.25427-.40014z"/><path fill="#76b154" d="M81.43953 175.54806c-1.43026-2.18285-1.578-7.91704-1.34632-52.25.22369-42.80232.03709-50.67636-1.32828-56.05013-2.07626-8.17171-5.31896-14.74853-9.61786-19.5069-5.17643-5.72969-6.42847-6.13635-9.66308-3.13861C49.49643 53.85857 33.28147 48.01817 21.71899 31 15.7268 22.18039 8.6967 13.866 5.25313 11.52603L1.75627 9.14986l5.11647-1.51943c8.5764-2.54691 20.97671-3.93918 29.53175-3.31572C51.63664 5.42477 60.33444 9.63565 64.10046 17.7232c1.77618 3.81435 3.60748 5.67698 9.08899 9.24451 14.93458 9.71988 22.78792 24.50653 25.68552 48.36196.52307 4.30632 1.19563 8.07427 1.49459 8.37322.29895.29895 3.33978-1.9869 6.75741-5.07967C110.54459 75.53045 113.66305 73 114.05687 73c.39382 0 1.03655-2.1375 1.42828-4.75.39173-2.6125 1.18258-5.65 1.75743-6.75 1.84233-3.52535 6.94491-7.42328 12.67893-9.6856 9.42006-3.71665 32.8245-2.99047 44.31015 1.37484l2.73167 1.03821-4.93561 4.43754c-2.71459 2.44064-7.31633 8.3197-10.2261 13.06456-6.01438 9.80743-10.53065 14.92576-16.30162 18.47477-7.65293 4.70638-14.40245 5.24363-21.16911 1.68504-1.79327-.94308-2.71154-.7545-5.29961 1.08837-3.3677 2.39801-10.98848 11.19281-15.96017 18.41891L100 115.86035v28.84732C100 179.33533 100.40244 178 89.96635 178c-6.24194 0-7.07772-.24033-8.52682-2.45194z"/></g></g></svg>