<svg xmlns="http://www.w3.org/2000/svg" role="img" viewBox="-6.97 -6.97 349.18 85.93"><title>PV Free logo</title><g id="svgGroup" fill="#000" fill-rule="evenodd" stroke="#000" stroke-linecap="round" stroke-width=".25mm"><path d="M 101.221 0.001 L 110.01 0.001 L 84.375 71.387 L 76.025 71.387 L 50.391 0.001 L 59.082 0.001 L 75.781 47.022 A 132.151 132.151 0 0 1 77.087 50.801 A 112.696 112.696 0 0 1 77.612 52.442 A 126.468 126.468 0 0 1 78.725 56.214 A 110.27 110.27 0 0 1 79.053 57.423 A 108.504 108.504 0 0 1 79.922 60.929 A 97.038 97.038 0 0 1 80.176 62.061 A 108.835 108.835 0 0 1 80.991 58.596 A 123.276 123.276 0 0 1 81.299 57.398 A 99.679 99.679 0 0 1 82.361 53.663 A 114.399 114.399 0 0 1 82.764 52.369 A 156.073 156.073 0 0 1 83.643 49.689 A 183.896 183.896 0 0 1 84.619 46.876 L 101.221 0.001 Z M 154.053 40.772 L 154.053 71.387 L 145.752 71.387 L 145.752 0.001 L 185.498 0.001 L 185.498 7.325 L 154.053 7.325 L 154.053 33.497 L 183.594 33.497 L 183.594 40.772 L 154.053 40.772 Z M 279.395 41.114 L 279.395 46.143 L 242.432 46.143 A 31.991 31.991 0 0 0 242.952 51.594 Q 243.997 57.108 247.119 60.499 A 14.792 14.792 0 0 0 254.896 64.899 A 22.359 22.359 0 0 0 259.912 65.43 A 47.71 47.71 0 0 0 264.131 65.253 Q 266.699 65.024 268.896 64.503 A 46.047 46.047 0 0 0 273.894 63 A 56.04 56.04 0 0 0 277.002 61.768 L 277.002 68.897 A 40.904 40.904 0 0 1 270.964 71.058 A 36.059 36.059 0 0 1 268.97 71.534 Q 265.55 72.247 261.066 72.348 A 66.892 66.892 0 0 1 259.57 72.364 A 31.944 31.944 0 0 1 252.772 71.672 A 24.615 24.615 0 0 1 246.118 69.215 Q 240.381 66.065 237.207 59.962 A 26.772 26.772 0 0 1 234.778 52.94 Q 234.15 49.87 234.051 46.342 A 47.526 47.526 0 0 1 234.033 45.02 A 43.318 43.318 0 0 1 234.589 37.902 Q 235.271 33.812 236.787 30.389 A 26.978 26.978 0 0 1 236.938 30.054 A 24.246 24.246 0 0 1 240.832 24.007 A 20.949 20.949 0 0 1 245.142 20.313 A 21.344 21.344 0 0 1 254.12 17.112 A 27.439 27.439 0 0 1 257.617 16.895 A 25.903 25.903 0 0 1 263.225 17.475 A 19.5 19.5 0 0 1 269.336 19.923 Q 274.219 22.95 276.807 28.394 A 26.13 26.13 0 0 1 278.959 35.454 A 35.241 35.241 0 0 1 279.395 41.114 Z M 335.547 41.114 L 335.547 46.143 L 298.584 46.143 A 31.991 31.991 0 0 0 299.105 51.594 Q 300.15 57.108 303.271 60.499 A 14.792 14.792 0 0 0 311.049 64.899 A 22.359 22.359 0 0 0 316.064 65.43 A 47.71 47.71 0 0 0 320.284 65.253 Q 322.852 65.024 325.049 64.503 A 46.047 46.047 0 0 0 330.046 63 A 56.04 56.04 0 0 0 333.154 61.768 L 333.154 68.897 A 40.904 40.904 0 0 1 327.116 71.058 A 36.059 36.059 0 0 1 325.122 71.534 Q 321.702 72.247 317.219 72.348 A 66.892 66.892 0 0 1 315.723 72.364 A 31.944 31.944 0 0 1 308.925 71.672 A 24.615 24.615 0 0 1 302.271 69.215 Q 296.533 66.065 293.359 59.962 A 26.772 26.772 0 0 1 290.93 52.94 Q 290.302 49.87 290.204 46.342 A 47.526 47.526 0 0 1 290.186 45.02 A 43.318 43.318 0 0 1 290.742 37.902 Q 291.423 33.812 292.94 30.389 A 26.978 26.978 0 0 1 293.091 30.054 A 24.246 24.246 0 0 1 296.984 24.007 A 20.949 20.949 0 0 1 301.294 20.313 A 21.344 21.344 0 0 1 310.272 17.112 A 27.439 27.439 0 0 1 313.77 16.895 A 25.903 25.903 0 0 1 319.377 17.475 A 19.5 19.5 0 0 1 325.488 19.923 Q 330.371 22.95 332.959 28.394 A 26.13 26.13 0 0 1 335.112 35.454 A 35.241 35.241 0 0 1 335.547 41.114 Z M 0 0.001 L 18.652 0.001 A 56.146 56.146 0 0 1 25.836 0.427 Q 34.263 1.518 38.843 5.396 A 17.487 17.487 0 0 1 44.711 15.561 A 26.339 26.339 0 0 1 45.215 20.85 Q 45.215 25.391 43.726 29.468 A 18.333 18.333 0 0 1 38.916 36.646 A 19.88 19.88 0 0 1 34.803 39.568 Q 32.859 40.623 30.515 41.423 A 33.532 33.532 0 0 1 30.2 41.529 A 32.147 32.147 0 0 1 25.218 42.716 Q 21.509 43.311 16.992 43.311 L 8.301 43.311 L 8.301 71.387 L 0 71.387 L 0 0.001 Z M 226.953 17.53 L 225.928 25.049 Q 224.609 24.708 222.998 24.512 A 27.288 27.288 0 0 0 221.083 24.346 A 22.224 22.224 0 0 0 219.971 24.317 A 14.561 14.561 0 0 0 213.892 25.611 Q 211.035 26.905 208.887 29.322 Q 206.738 31.739 205.518 35.132 A 20.601 20.601 0 0 0 204.441 39.912 A 25.769 25.769 0 0 0 204.297 42.676 L 204.297 71.387 L 196.143 71.387 L 196.143 17.872 L 202.881 17.872 L 203.76 27.735 L 204.102 27.735 A 26.833 26.833 0 0 1 208.105 22.291 A 18.127 18.127 0 0 1 213.55 18.36 A 15.397 15.397 0 0 1 218.827 16.965 A 18.68 18.68 0 0 1 220.459 16.895 A 33.676 33.676 0 0 1 222.958 16.991 A 38.653 38.653 0 0 1 223.828 17.066 Q 225.586 17.237 226.953 17.53 Z M 17.871 7.081 L 8.301 7.081 L 8.301 36.182 L 16.064 36.182 A 52.78 52.78 0 0 0 20.849 35.978 Q 23.181 35.766 25.169 35.331 A 25.036 25.036 0 0 0 27.466 34.717 Q 32.031 33.253 34.326 29.957 Q 36.621 26.661 36.621 21.192 A 17.692 17.692 0 0 0 36.155 16.998 A 11.167 11.167 0 0 0 32.08 10.572 A 14.044 14.044 0 0 0 28.054 8.479 Q 24.251 7.171 18.651 7.087 A 51.833 51.833 0 0 0 17.871 7.081 Z M 242.578 39.649 L 270.898 39.649 Q 270.85 34.864 269.409 31.226 A 13.09 13.09 0 0 0 267.397 27.74 A 11.395 11.395 0 0 0 265.039 25.562 Q 262.319 23.681 258.167 23.546 A 20.005 20.005 0 0 0 257.52 23.536 A 16.032 16.032 0 0 0 252.87 24.178 A 12.413 12.413 0 0 0 247.168 27.784 Q 243.778 31.517 242.801 37.854 A 31.738 31.738 0 0 0 242.578 39.649 Z M 298.73 39.649 L 327.051 39.649 Q 327.002 34.864 325.562 31.226 A 13.09 13.09 0 0 0 323.549 27.74 A 11.395 11.395 0 0 0 321.191 25.562 Q 318.471 23.681 314.319 23.546 A 20.005 20.005 0 0 0 313.672 23.536 A 16.032 16.032 0 0 0 309.022 24.178 A 12.413 12.413 0 0 0 303.32 27.784 Q 299.93 31.517 298.954 37.854 A 31.738 31.738 0 0 0 298.73 39.649 Z" vector-effect="non-scaling-stroke"/></g></svg>