<svg xmlns="http://www.w3.org/2000/svg" role="img" viewBox="-14.00 188.00 728.00 223.00"><title>pv-system-profiler logo</title><style>svg {enable-background:new 0 0 700 520}</style><style id="style2" type="text/css">.st0{fill:#a90533}</style><g id="g92"><g id="g62"><path id="polygon4" d="M434.5 208.2h.1l14 20.7h4.3v-25.1h-3.4v20.6h-.1l-13.8-20.6h-4.5v25.1h3.4z" class="st0"/><path id="path6" d="M464.5 222.7h12l2.5 6.2h3.9l-10.7-25.1h-3.1l-11 25.1h4l2.4-6.2zm5.9-14.5l4.8 11.5h-9.5l4.7-11.5z" class="st0"/><path id="polygon8" d="M491 228.9h3.3v-22h8.2v-3.1h-19.6v3.1h8.1z" class="st0"/><path id="rect10" d="M508.9 203.8h3.4v25.1h-3.4z" class="st0"/><path id="path12" d="M545.8 216.3c0-7.5-5.4-13.2-13.1-13.2-7.7 0-13.1 5.8-13.1 13.2 0 7.4 5.4 13.2 13.1 13.2 7.6 0 13.1-5.7 13.1-13.2zm-13.1 10c-5.7 0-9.5-4.5-9.5-10s3.7-10 9.5-10 9.5 4.5 9.5 10-3.8 10-9.5 10z" class="st0"/><path id="polygon14" d="M556.3 208.2h.1l13.9 20.7h4.3v-25.1h-3.4v20.6l-13.9-20.6h-4.4v25.1h3.4z" class="st0"/><path id="path16" d="M594.3 203.8h-3.1l-11.1 25.1h4l2.5-6.2h11.9l2.5 6.2h4l-10.7-25.1zm-6.5 15.9l4.8-11.5 4.7 11.5h-9.5z" class="st0"/><path id="polygon18" d="M626 225.7h-11.5v-21.9H611v25.1h15z" class="st0"/><path id="path20" d="M452.8 272.5l-10.7-25.1H439l-11 25.1h4l2.5-6.2h12l2.5 6.2h3.8zm-17.2-9.1l4.8-11.5h.1l4.7 11.5h-9.6z" class="st0"/><path id="path22" d="M468.2 270c-5.8 0-9.3-4.5-9.3-9.8 0-5.7 3.7-10.2 9.3-10.2 2.3 0 4.7 1 6.1 2.9l2.9-2.1c-2-2.7-5.5-3.9-8.8-3.9-7.7 0-13.1 5.6-13.1 13.4 0 6.3 4.9 13 12.9 13 5.8 0 8.8-3.4 9.5-4.4l-2.9-2.2c-1.5 2-3.7 3.3-6.6 3.3z" class="st0"/><path id="path24" d="M493.5 250c2.3 0 4.6 1 6 2.9l2.8-2.1c-2-2.7-5.5-3.9-8.8-3.9-7.7 0-13.1 5.6-13.1 13.4 0 6.3 4.9 13 12.9 13 5.7 0 8.8-3.4 9.5-4.4l-2.9-2.2c-1.5 2.1-3.7 3.4-6.5 3.4-5.8 0-9.4-4.5-9.4-9.8.2-5.8 3.9-10.3 9.5-10.3z" class="st0"/><path id="polygon26" d="M525.3 250.6v-3.1H509v25h16.9v-3.2h-13.4v-8h11.9v-3.2h-11.9v-7.5z" class="st0"/><path id="polygon28" d="M534.2 247.5v25h14.9v-3.2h-11.5v-21.8z" class="st0"/><path id="polygon30" d="M572 250.6v-3.1h-16.3v25h16.9v-3.2h-13.4v-8h11.9v-3.2h-11.9v-7.5z" class="st0"/><path id="path32" d="M597.8 254.5c0-3.1-1.6-7-8-7H581v25.1h3.4v-11h3.8l6.4 11h4.3l-7.2-11.4c3.7-.5 6.1-3.5 6.1-6.7zm-9 4h-4.5v-8.1h4.5c2.7 0 5.4.6 5.4 4 0 3.5-2.7 4.1-5.4 4.1z" class="st0"/><path id="path34" d="M613.6 247.5l-11 25.1h4l2.5-6.2H621l2.5 6.2h4l-10.7-25.1h-3.2zm-3.4 15.9l4.7-11.5h.1l4.7 11.5h-9.5z" class="st0"/><path id="polygon36" d="M635.8 272.5h3.4v-21.9h8.1v-3.1h-19.6v3.1h8.1z" class="st0"/><path id="path38" d="M675.5 260c0-7.5-5.4-13.2-13.1-13.2-7.7 0-13.1 5.7-13.1 13.2 0 7.4 5.4 13.2 13.1 13.2 7.7 0 13.1-5.8 13.1-13.2zm-22.5 0c0-5.5 3.7-10 9.5-10s9.5 4.5 9.5 10-3.7 10-9.5 10-9.5-4.5-9.5-10z" class="st0"/><path id="path40" d="M692.9 261.1c3.8-.4 6.2-3.4 6.2-6.6 0-3.1-1.6-7-8-7h-8.8v25.1h3.4v-11h3.8l6.4 11h4.3l-7.3-11.5zm-7.3-2.6v-8.1h4.5c2.7 0 5.4.6 5.4 4s-2.7 4-5.4 4l-4.5.1z" class="st0"/><path id="path42" d="M490.2 303c2.5-.9 4.3-2.7 4.3-5.6 0-4.2-3.3-6.3-7.6-6.3h-8.7v25.1h8.6c4.9 0 8.8-2.5 8.8-7 0-3.3-2.4-6-5.4-6.2zm-8.6-8.9h5.4c2.7 0 3.9 1.7 3.9 3.7 0 2.7-2.1 3.8-4.7 3.8h-4.6v-7.5zm5 19.1h-5v-8.7h5c3.3 0 5.4 1.5 5.4 4.4 0 3.6-3.4 4.3-5.4 4.3z" class="st0"/><path id="path44" d="M514 290.5c-7.7 0-13.1 5.7-13.1 13.2s5.5 13.2 13.1 13.2 13.1-5.7 13.1-13.2c-.1-7.5-5.5-13.2-13.1-13.2zm0 23.2c-5.8 0-9.5-4.5-9.5-10s3.7-10 9.5-10c5.7 0 9.5 4.5 9.5 10-.1 5.4-3.8 10-9.5 10z" class="st0"/><path id="path46" d="M550.8 298.2c0-3.1-1.6-7-8-7H534v25.1h3.4v-11.1h3.8l6.4 11.1h4.2l-7.1-11.5c3.7-.4 6.1-3.5 6.1-6.6zm-13.5 4v-8.1h4.5c2.7 0 5.4.6 5.4 4s-2.7 4-5.4 4l-4.5.1z" class="st0"/><path id="path48" d="M566.6 291.1l-11.1 25.1h4l2.5-6.2h12l2.5 6.2h4l-10.7-25.1h-3.2zm-3.4 15.9l4.8-11.5h.1l4.7 11.5h-9.6z" class="st0"/><path id="polygon50" d="M580.7 294.3h8.1v21.9h3.4v-21.9h8.1v-3.2h-19.6z" class="st0"/><path id="path52" d="M615.5 290.5c-7.7 0-13.1 5.7-13.1 13.2s5.5 13.2 13.1 13.2c7.7 0 13.1-5.7 13.1-13.2-.1-7.5-5.5-13.2-13.1-13.2zm0 23.2c-5.7 0-9.5-4.5-9.5-10s3.7-10 9.5-10c5.7 0 9.5 4.5 9.5 10-.1 5.4-3.8 10-9.5 10z" class="st0"/><path id="path54" d="M652.4 298.2c0-3.1-1.6-7-8-7h-8.8v25.1h3.4v-11.1h3.8l6.4 11.1h4.2l-7.1-11.5c3.7-.4 6.1-3.5 6.1-6.6zm-13.5 4v-8.1h4.5c2.7 0 5.4.6 5.4 4s-2.7 4-5.4 4l-4.5.1z" class="st0"/><path id="polygon56" d="M668.7 302.1l-6.9-11h-4.3l9.5 14.4v10.7h3.4v-10.7l9.5-14.4h-4.1z" class="st0"/><path id="polygon58" d="M434.5 291.1h-3.4v25.1h15V313h-11.6z" class="st0"/><path id="path60" d="M459.1 291.1L448 316.2h4l2.5-6.2h12l2.5 6.2h4l-10.7-25.1h-3.2zm-3.3 15.9l4.7-11.5h.1l4.7 11.5h-9.5z" class="st0"/></g><g id="g90"><path id="rect64" d="M94.9 255.9h24.6v8.2H94.9z" class="st0"/><path id="polygon66" d="M119.5 272.3H94.9v43.5h80.2v-22.3h-55.6z" class="st0"/><path id="rect68" d="M94.9 204.2h24.6v43.5H94.9z" class="st0"/><path id="polygon70" d="M250.6 203.4H228l-18.9 44.3h60.4z" class="st0"/><path id="polygon72" d="M198.6 272.3l-18.5 43.5h25l10.3-25h47.2l10.2 25h25.7l-18.6-43.5z" class="st0"/><path id="polygon74" d="M273 255.9h-67.4l-3.5 8.2h74.3z" class="st0"/><path id="path76" d="M329.7 259.9c0 8.5 6.9 15.3 15.3 15.3 8.5 0 15.3-6.9 15.3-15.3s-6.9-15.3-15.3-15.3-15.3 6.9-15.3 15.3z" class="st0"/><path id="path78" d="M310 264.1c-.2-1.4-.3-2.7-.3-4.1 0-1.4.1-2.8.3-4.1h-22.8c-.1 1.4-.2 2.7-.2 4.1 0 1.4 0 2.7.2 4.1H310z" class="st0"/><path id="path80" d="M345 224.8c11.3 0 21.4 5.4 27.8 13.7l15-17.4c-10.6-11.7-25.9-19-42.9-19-27.7 0-50.9 19.5-56.5 45.6H312c5-13.4 17.9-22.9 33-22.9z" class="st0"/><path id="path82" d="M373.3 280.8c-6.4 8.7-16.7 14.3-28.3 14.3-15.1 0-28-9.5-33-22.9h-23.6c5.6 26.1 28.8 45.6 56.5 45.6 17.8 0 33.8-8.1 44.4-20.8l-16-16.2z" class="st0"/><path id="path84" d="M48.1 247.7c-15.2-4.1-19.2-6.7-19.2-13.6 0-5.6 5-9.9 14.4-9.9s19.2 4.1 29 11L85 216.8c-11.3-9.1-25.2-14.2-41.5-14.2-22.8 0-39.1 13.4-39.1 33.8 0 4.5.6 8.1 1.6 11.3h42.1z" class="st0"/><path id="path86" d="M47.3 272.3c13.7 4 16.7 7.1 16.7 12.8 0 6.7-6.1 10.7-16.1 10.7-12.8 0-23.3-5.3-33.3-13.5L0 299.6c13.4 12 30.5 17.9 47.4 17.9 24.1 0 41-12.5 41-34.8 0-4-.5-7.4-1.5-10.4H47.3z" class="st0"/><path id="path88" d="M10.5 255.9c2.8 3.4 6.6 6 11.1 8.2h60.8c-2.6-3.2-6.1-5.9-10.4-8.2H10.5z" class="st0"/></g></g><path d="M85.7424 357.86758c1.24235 2.10458 1.8728 4.53366 1.8728 7.2687 0 3.3284-.6768 5.98926-2.03969 7.98259-1.3536 2.0026-3.3284 3.0039-5.91509 3.0039-1.78008 0-3.3284-.49138-4.62637-1.46487-2.1973-1.6781-3.29132-4.58002-3.29132-8.70575 0-2.60523.3245-4.75618.9735-6.45282 1.26089-3.1986 3.57871-4.79327 6.9442-4.79327 2.79993 0 4.83034 1.05693 6.08197 3.16152zm7.1389-6.68461c-2.88338-3.05953-6.3972-4.5893-10.55074-4.5893-2.84629 0-5.30318.78807-7.36141 2.37346-1.1311.89004-2.1973 2.11386-3.1986 3.6529v-5.24756H62.8701v49.50874h9.19713v-18.51479c.97349 1.50195 1.97479 2.64232 2.99463 3.43038 1.8728 1.40924 4.21844 2.11386 7.04619 2.11386 4.43168 0 8.05676-1.64102 10.86596-4.92306 2.81848-3.28204 4.21844-8.04749 4.21844-14.30562 0-5.93363-1.43705-10.43021-4.31115-13.49901zm32.93166-3.8105l-7.55611 26.20996-7.40777-26.20996h-10.43021l12.74803 35.52762h9.80904l12.81294-35.52762zm12.42354 12.51625v8.79846h18.70948v-8.79846zm32.26412 11.67257h-9.41964c0 3.64362 1.33507 6.64752 3.99593 9.0117 2.66086 2.35491 6.7866 3.53237 12.36792 3.53237 5.47933 0 9.52162-1.11256 12.13613-3.33767 2.62378-2.22511 3.93103-5.09922 3.93103-8.62231 0-2.67014-.90859-4.90452-2.73503-6.6846-1.845-1.76156-4.61711-3.0688-8.31636-3.94031-5.53497-1.21454-8.76138-2.07677-9.67924-2.57742-.90859-.47284-1.37215-1.25163-1.37215-2.30856 0-.85296.43575-1.59466 1.28871-2.2251.86223-.62118 2.29928-.9364 4.32043-.9364 2.4569 0 4.1999.62117 5.21974 1.88206.53773.69535.88077 1.64103 1.01057 2.83702h9.28984c-.4172-4.33897-2.02114-7.3985-4.8118-9.16931-2.79066-1.77082-6.40647-2.66087-10.83815-2.66087-4.67274 0-8.29782 1.17746-10.86597 3.54164-2.57742 2.35491-3.86613 5.17339-3.86613 8.45543 0 2.78139.82515 4.91379 2.47544 6.38792 1.6503 1.50195 4.4873 2.7443 8.51105 3.7456 5.58133 1.3258 8.80774 2.2622 9.67924 2.80921.8715.53774 1.30725 1.33507 1.30725 2.37345 0 1.08475-.53773 1.90062-1.6132 2.44763-1.07547.53773-2.53107.81587-4.35751.81587-3.10589 0-5.23829-.62118-6.38793-1.86353-.649-.69535-1.07547-1.86353-1.27017-3.51382zm7.10182-25.1345zm24.2259 43.2877v7.42631c.99203.07417 1.74301.11126 2.24366.12053a106.17884 106.17884 0 0 0 1.99333.01854c4.10719 0 6.84222-.81587 8.21437-2.42908 1.36288-1.62247 3.22641-5.80383 5.57205-12.5348l12.19176-34.94352h-9.8832l-7.3336 26.20996-7.7508-26.20996h-10.3375l13.03544 37.09447c.09271.2596-.10199.97348-.56555 2.15094-.47284 1.16818-.97349 1.94697-1.5205 2.31782-.56554.3894-1.26089.63972-2.08604.7417-.82514.11126-1.68737.14835-2.60523.102zm12.58116-43.2877zm30.34496 25.1345h-9.41964c0 3.64362 1.3258 6.64752 3.98666 9.0117 2.66087 2.35491 6.7866 3.53237 12.36792 3.53237 5.47933 0 9.5309-1.11256 12.1454-3.33767 2.6145-2.22511 3.93103-5.09922 3.93103-8.62231 0-2.67014-.91786-4.90452-2.7443-6.6846-1.845-1.76156-4.61711-3.0688-8.30709-3.94031-5.54424-1.21454-8.77065-2.07677-9.67924-2.57742-.91785-.47284-1.37215-1.25163-1.37215-2.30856 0-.85296.42648-1.59466 1.28871-2.2251.86223-.62118 2.29928-.9364 4.32043-.9364 2.4569 0 4.19063.62117 5.21047 1.88206.547.69535.88077 1.64103 1.01057 2.83702h9.28984c-.40793-4.33897-2.01187-7.3985-4.80253-9.16931-2.79993-1.77082-6.40647-2.66087-10.83815-2.66087-4.67274 0-8.29781 1.17746-10.87524 3.54164-2.56815 2.35491-3.85686 5.17339-3.85686 8.45543 0 2.78139.82515 4.91379 2.47544 6.38792 1.6503 1.50195 4.48731 2.7443 8.50178 3.7456 5.5906 1.3258 8.81701 2.2622 9.68851 2.80921.86223.53774 1.29798 1.33507 1.29798 2.37345 0 1.08475-.53773 1.90062-1.6132 2.44763-1.07547.53773-2.5218.81587-4.34824.81587-3.10589 0-5.23829-.62118-6.38793-1.86353-.65826-.69535-1.07547-1.86353-1.27017-3.51382zm7.10182-25.1345zm19.13596 7.88988h4.95088v21.871c0 2.21584.51919 3.85686 1.56685 4.92306 1.60393 1.66883 4.60783 2.42908 8.99316 2.28074l4.40387-.16689v-6.9442a15.08611 15.08611 0 0 1-.92713.05563c-.31523.00927-.62118.01854-.89932.01854-1.89135 0-3.02244-.18543-3.3933-.547-.37085-.35232-.547-1.2609-.547-2.7165v-18.77438h5.76675v-6.6197h-5.76675v-9.90176h-9.19713v9.90175h-4.95088zm34.8879 1.78936c1.18673-1.34434 2.85557-2.02114 5.0065-2.02114 1.9748 0 3.63436.63972 4.96942 1.90988 1.33507 1.27017 2.07677 3.1337 2.23439 5.5906h-14.44469c.30595-2.30856 1.04766-4.12573 2.23439-5.47934zm12.9891-8.01967c-2.36419-1.10329-5.02505-1.65957-7.9826-1.65957-4.97868 0-9.02097 1.64102-12.1454 4.92306-3.11515 3.28204-4.67273 8.00114-4.67273 14.148 0 6.56409 1.72446 11.30172 5.18266 14.21291 3.44892 2.91119 7.43558 4.36678 11.95997 4.36678 5.47934 0 9.73487-1.73373 12.77585-5.18265 1.95625-2.17876 3.05026-4.32043 3.29132-6.42502h-9.48454c-.50065 1.04766-1.07548 1.86354-1.72447 2.44763-1.196 1.08474-2.75357 1.63175-4.66346 1.63175-1.79863 0-3.34694-.44503-4.62638-1.34434-2.10458-1.42778-3.22641-3.93103-3.35621-7.49121h24.30935c.04636-3.0688-.04636-5.41444-.28741-7.04619-.41721-2.78139-1.31653-5.21974-2.70722-7.3336-1.53904-2.38272-3.49528-4.135-5.86873-5.24755zm-7.3336-1.65957zm66.79044 1.07547c-1.52049-.60263-3.0688-.90858-4.63565-.90858-2.34564 0-4.46876.4821-6.38792 1.46486-1.79863.97349-3.30986 2.51252-4.5244 4.59857-.69534-1.743-1.71519-3.16152-3.0688-4.27407-1.66883-1.196-3.86613-1.78936-6.58262-1.78936-2.86483 0-5.2012.69534-7.0091 2.08604-1.01985.77879-2.10459 2.09531-3.25423 3.9403v-5.18266h-9.03025v35.46273h9.41965v-21.37962c0-1.9377.25032-3.3933.75097-4.36678.90859-1.7152 2.68868-2.57742 5.34027-2.57742 2.28074 0 3.81977.86223 4.59856 2.57742.43576.95494.649 2.4847.649 4.59856v21.14784h9.35474v-21.14784c0-1.59466.25032-2.94827.75097-4.07937.98276-2.1324 2.75358-3.18933 5.31246-3.18933 2.21584 0 3.73633.82515 4.56148 2.47544.43575.86223.65826 1.97479.65826 3.31913v22.62197h9.51235l.0649-22.3902c0-2.30855-.10198-4.05155-.3245-5.24755-.34303-1.8079-1.01984-3.3284-2.02114-4.56148-1.23308-1.5205-2.6145-2.58669-4.135-3.1986zm12.21958 12.38646v8.79846h18.70948v-8.79846zm47.63594-2.02114c1.25162 2.10458 1.8728 4.53366 1.8728 7.2687 0 3.3284-.6768 5.98926-2.03042 7.98259-1.36288 2.0026-3.33766 3.0039-5.92436 3.0039-1.78009 0-3.31912-.49138-4.62638-1.46487-2.18802-1.6781-3.2913-4.58002-3.2913-8.70575 0-2.60523.32449-4.75618.98275-6.45282 1.2609-3.1986 3.56945-4.79327 6.93493-4.79327 2.8092 0 4.83035 1.05693 6.08198 3.16152zm7.1389-6.68461c-2.88338-3.05953-6.3972-4.5893-10.54147-4.5893-2.84629 0-5.30318.78807-7.37068 2.37346-1.1311.89004-2.1973 2.11386-3.18933 3.6529v-5.24756h-8.90045v49.50874h9.18786v-18.51479c.98276 1.50195 1.98406 2.64232 3.0039 3.43038 1.86353 1.40924 4.20917 2.11386 7.03692 2.11386 4.43168 0 8.05676-1.64102 10.87523-4.92306 2.8092-3.28204 4.21844-8.04749 4.21844-14.30562 0-5.93363-1.43705-10.43021-4.32042-13.49901zm30.77144-4.64492c-.12053-.00927-.26887-.00927-.44502-.00927-2.7814 0-5.03432.72316-6.77732 2.17875-1.0662.8715-2.31783 2.49398-3.7456 4.85816v-6.19322h-8.86337v35.52762h9.35474v-16.97575c0-2.85556.35231-4.96015 1.07547-6.3323 1.27944-2.42908 3.79197-3.64362 7.5283-3.64362.27814 0 .64899.00927 1.10328.02781.4543.02782.98276.0649 1.56685.1298v-9.51235c-.4172-.02782-.6768-.03709-.79733-.05563zm28.43508 26.91458c-1.4556 1.92843-3.54164 2.90192-6.25813 2.90192-2.71649 0-4.80253-.97349-6.27667-2.90192-1.46486-1.9377-2.1973-4.682-2.1973-8.25145 0-3.56018.73244-6.30449 2.1973-8.23292 1.47414-1.91916 3.56018-2.88337 6.27667-2.88337 2.7165 0 4.80253.96421 6.25813 2.88337 1.4556 1.92843 2.18803 4.67274 2.18803 8.23292 0 3.56945-.73244 6.31375-2.18803 8.25145zm7.43558 5.12703c2.99463-3.69925 4.49658-8.15874 4.49658-13.37848 0-5.12703-1.50195-9.56799-4.49658-13.33213-3.0039-3.75488-7.5561-5.63695-13.65662-5.63695-6.10979 0-10.662 1.88207-13.65663 5.63695-3.0039 3.76414-4.50585 8.2051-4.50585 13.33213 0 5.21974 1.50195 9.67923 4.50585 13.37848 2.99463 3.70852 7.54684 5.56278 13.65663 5.56278 6.10051 0 10.65272-1.85426 13.65662-5.56278zm-13.65662-32.15287zm39.505-12.00633c-.4821-.03709-1.01057-.05563-1.60393-.05563-5.14557 0-8.3998 1.0662-9.74414 3.1986-1.27943 1.43705-1.91915 4.05156-1.91915 7.8528v2.28073h-5.08995v6.55481h5.18266v28.64832h9.26203v-28.64832h6.09124v-6.5548h-6.09124v-2.99464c0-.69535.23178-1.33507.69534-1.90989.47284-.57482 1.31653-.84368 2.54961-.81587 1.22381.03708 2.09532.08344 2.62378.14834v-7.56538c-.82515-.0649-1.4834-.11126-1.95624-.13907zm17.07774 8.71502v-8.57595h-9.41964v8.57595zm-9.41964 4.23699v35.52762h9.41964v-35.52762zm27.89734 35.52762V334.8562h-9.28984v48.04388zm18.07904-26.79406c1.17745-1.34434 2.84629-2.02114 4.99723-2.02114 1.98406 0 3.63435.63972 4.96941 1.90988 1.34434 1.27017 2.08605 3.1337 2.23439 5.5906h-14.43542c.30596-2.30856 1.04766-4.12573 2.23439-5.47934zm12.98909-8.01967c-2.37346-1.10329-5.03432-1.65957-7.99186-1.65957-4.96942 0-9.02098 1.64102-12.13613 4.92306-3.12443 3.28204-4.68201 8.00114-4.68201 14.148 0 6.56409 1.73373 11.30172 5.18266 14.21291 3.45819 2.91119 7.44485 4.36678 11.95997 4.36678 5.47934 0 9.73487-1.73373 12.78513-5.18265 1.94697-2.17876 3.05025-4.32043 3.2913-6.42502h-9.48453c-.50065 1.04766-1.07547 1.86354-1.73374 2.44763-1.196 1.08474-2.7443 1.63175-4.66346 1.63175-1.79863 0-3.33767-.44503-4.62638-1.34434-2.10458-1.42778-3.22641-3.93103-3.3562-7.49121h24.31861c.03709-3.0688-.05563-5.41444-.29668-7.04619-.40794-2.78139-1.31653-5.21974-2.70722-7.3336-1.53904-2.38272-3.49528-4.135-5.85946-5.24755zm-7.3336-1.65957zm42.19369.11126c-.12053-.00927-.26887-.00927-.44503-.00927-2.78139 0-5.04358.72316-6.77732 2.17875-1.0662.8715-2.31782 2.49398-3.7456 4.85816v-6.19322h-8.87264v35.52762h9.35475v-16.97575c0-2.85556.36158-4.96015 1.07547-6.3323 1.2887-2.42908 3.79196-3.64362 7.5283-3.64362.2874 0 .65825.00927 1.11255.02781.4543.02782.97348.0649 1.56685.1298v-9.51235c-.41721-.02782-.68608-.03709-.79733-.05563z"/></svg>