<svg xmlns="http://www.w3.org/2000/svg" role="img" viewBox="-13.24 -13.24 662.48 98.48"><title>PV4GER logo</title><path d="M208.3 1.5h7.6q3 8.9 5.8 16.85a1827.632 1827.632 0 0 0 4.823 13.53 1664.499 1664.499 0 0 0 .677 1.87q2.7 7.45 5.5 14.6 2.8 7.15 6 14.45 3.1-7.2 5.95-14.35 2.85-7.15 5.6-14.6 2.75-7.45 5.5-15.45 2.75-8 5.75-16.9h7.2a1999.765 1999.765 0 0 1-3.843 10.85q-1.765 4.936-3.362 9.303a1102.85 1102.85 0 0 1-1.045 2.847q-3.65 9.9-6.8 17.9-3.15 8-6 14.75T241.7 70.8h-6.3q-3.1-6.9-6-13.65t-6.05-14.75q-3.15-8-6.8-17.9-3.65-9.9-8.25-23zm-194.5 35h-1v-5.4h2.3a28.833 28.833 0 0 0 4.796-.413 32.379 32.379 0 0 0 .754-.137q2.85-.55 5.2-2.05a12.415 12.415 0 0 0 3.851-3.922 14.298 14.298 0 0 0 .049-.078q1.356-2.187 1.526-5.447a18.353 18.353 0 0 0 .024-.953 16.557 16.557 0 0 0-.196-2.615q-.23-1.441-.732-2.646a9.812 9.812 0 0 0-.172-.389 10.658 10.658 0 0 0-1.475-2.343A9.036 9.036 0 0 0 27.25 8.7a11.921 11.921 0 0 0-3.402-1.78 14.029 14.029 0 0 0-.898-.27 19.861 19.861 0 0 0-4.772-.647A22.214 22.214 0 0 0 17.8 6a31.41 31.41 0 0 0-3.141.147Q11.463 6.469 9.4 7.5a59.674 59.674 0 0 0-2.095 1.097q-.961.529-1.769 1.03A27.398 27.398 0 0 0 4.5 10.3L1.7 5.2q1-.7 2.55-1.6a21.069 21.069 0 0 1 1.659-.862Q6.834 2.306 7.9 1.9a29.277 29.277 0 0 1 2.652-.862A36.636 36.636 0 0 1 12.55.55Q15.1 0 18.1 0a35.076 35.076 0 0 1 3.986.215q2.053.235 3.819.728a19.526 19.526 0 0 1 1.145.357 19.25 19.25 0 0 1 3.607 1.663A15.424 15.424 0 0 1 33.3 4.95q2.5 2.35 3.7 5.6a19.632 19.632 0 0 1 1.154 5.587A23.099 23.099 0 0 1 38.2 17.6q0 6.1-3.25 9.95a18.055 18.055 0 0 1-7.72 5.329 21.62 21.62 0 0 1-.63.221q2.8.7 5.45 2.15 2.65 1.45 4.75 3.7a16.739 16.739 0 0 1 2.605 3.725A20.288 20.288 0 0 1 40.2 44.4a17.02 17.02 0 0 1 1.014 3.711q.286 1.774.286 3.789a21.824 21.824 0 0 1-.668 5.474A19.221 19.221 0 0 1 39.95 60q-1.55 3.7-4.6 6.45a19.074 19.074 0 0 1-4.141 2.811A25.595 25.595 0 0 1 27.6 70.75a29.267 29.267 0 0 1-5.014 1.15q-2.787.4-5.986.4a42.171 42.171 0 0 1-3.445-.134 32.699 32.699 0 0 1-2.605-.316 52.893 52.893 0 0 1-2.282-.422q-1.387-.29-2.568-.628-1.608-.459-2.835-.919a22.606 22.606 0 0 1-.715-.281q-1.184-.49-1.869-.847A8.365 8.365 0 0 1 0 68.6l1.7-5.8q.6.4 2 1a21.049 21.049 0 0 0 1.127.443q.691.25 1.482.49a38.561 38.561 0 0 0 .741.217q1.95.55 4.4.95a30.267 30.267 0 0 0 3.068.334 38.245 38.245 0 0 0 2.282.066 36.036 36.036 0 0 0 4.792-.295q5.288-.712 8.231-3.14a10.063 10.063 0 0 0 .577-.515 13.127 13.127 0 0 0 3.836-7.425A18.862 18.862 0 0 0 34.5 51.7a19.423 19.423 0 0 0-.232-3.089q-.278-1.724-.889-3.145a10.691 10.691 0 0 0-.529-1.066q-1.65-2.9-4.5-4.65a18.705 18.705 0 0 0-4.236-1.9 23.213 23.213 0 0 0-2.364-.6Q18 36.5 13.8 36.5zM517.9 2.7v16.4h20.6v5.5h-20.6v27.5a42.299 42.299 0 0 0 .089 2.83q.09 1.336.271 2.472a17.527 17.527 0 0 0 .39 1.848 13.972 13.972 0 0 0 .623 1.815q.63 1.474 1.527 2.435 1.4 1.5 3.4 2a16.586 16.586 0 0 0 2.586.424A20.922 20.922 0 0 0 528.6 66a28.932 28.932 0 0 0 2.574-.107q1.183-.106 2.189-.317a12.228 12.228 0 0 0 1.837-.526 46.913 46.913 0 0 0 1.455-.579q1.384-.58 2.315-1.097a13.071 13.071 0 0 0 .13-.074l1.6 5.4a9.169 9.169 0 0 1-.892.496q-1.438.71-4.008 1.554-3.5 1.15-7.6 1.15a30.683 30.683 0 0 1-3.382-.176q-1.73-.192-3.2-.594a15.481 15.481 0 0 1-1.468-.48 12.321 12.321 0 0 1-3.44-1.974 11.057 11.057 0 0 1-1.76-1.826 13.847 13.847 0 0 1-1.89-3.417 18.736 18.736 0 0 1-.86-2.933q-.8-3.8-.8-9V3.9l6.5-1.2zM58.7 69.6V2.8q3.5-1 8.1-1.45a94.02 94.02 0 0 1 6.541-.418A81.438 81.438 0 0 1 75.6.9a55.909 55.909 0 0 1 9.245.735A45.688 45.688 0 0 1 91 3.1a34.966 34.966 0 0 1 8.348 3.835A30.885 30.885 0 0 1 103.05 9.7a29.46 29.46 0 0 1 7.399 9.982 34.441 34.441 0 0 1 .451 1.018q2.8 6.6 2.8 15.4a47.931 47.931 0 0 1-.536 7.347q-.646 4.163-2.071 7.686a29.802 29.802 0 0 1-.193.467 30.576 30.576 0 0 1-5.326 8.507 28.372 28.372 0 0 1-2.524 2.493 32.36 32.36 0 0 1-9.494 5.698A38.389 38.389 0 0 1 91 69.2a47.702 47.702 0 0 1-9.79 1.94 59.001 59.001 0 0 1-5.61.26q-4.2 0-8.8-.45-4.115-.402-7.349-1.165a38.363 38.363 0 0 1-.751-.185zm255-4.7h32.6v5.9h-39.4V1.5h6.8v63.4zM173.3 44h-9.4v26.8h-6.8v-68q3.6-1 8.45-1.45a107.589 107.589 0 0 1 5.53-.376A86.074 86.074 0 0 1 174.6.9q14.7 0 21.9 5.6a18.214 18.214 0 0 1 7.024 12.796 26.571 26.571 0 0 1 .176 3.104 27.781 27.781 0 0 1-.347 4.505q-.506 3.081-1.753 5.545-2.1 4.15-6 6.7a23.454 23.454 0 0 1-4.638 2.314q-2.264.847-4.912 1.386Q180.4 44 173.3 44zm321.9-7v32.6q-.766.23-2.059.489a55.415 55.415 0 0 1-.841.161 152.561 152.561 0 0 1-1.777.316q-1.217.209-2.623.434-2.5.4-5.55.65t-6.25.25q-4.1 0-7.55-.9a17.779 17.779 0 0 1-3.938-1.523 15.305 15.305 0 0 1-2.062-1.327q-2.55-1.95-4-5a14.121 14.121 0 0 1-1.076-3.329q-.304-1.533-.361-3.295a25.56 25.56 0 0 1-.013-.826 18.438 18.438 0 0 1 .301-3.416A13.174 13.174 0 0 1 458.7 48.5q1.6-3 4.5-4.95a18.438 18.438 0 0 1 4.048-2.025 23.743 23.743 0 0 1 2.852-.825 36.686 36.686 0 0 1 5.273-.773 45.19 45.19 0 0 1 3.427-.127 29.182 29.182 0 0 1 1.996.071 34.23 34.23 0 0 1 .954.079 40.992 40.992 0 0 1 2.818.369 37.656 37.656 0 0 1 .182.031q1.11.192 1.986.383a28.466 28.466 0 0 1 .514.117q1.033.246 1.437.444a1.685 1.685 0 0 1 .013.006v-3.2q0-2.7-.4-5.25t-1.75-4.6a9.315 9.315 0 0 0-2.746-2.692 11.604 11.604 0 0 0-1.054-.608q-1.882-.96-4.678-1.183a22.347 22.347 0 0 0-1.772-.067 64.966 64.966 0 0 0-2.977.063q-2.688.124-4.497.49a13.453 13.453 0 0 0-1.026.247q-2.749.786-4.052 1.282a15.434 15.434 0 0 0-.048.018l-.9-5.7q1.414-.665 4.106-1.261a50.506 50.506 0 0 1 1.144-.239q3.55-.7 8.55-.7 4.237 0 7.404 1.001a16.21 16.21 0 0 1 1.246.449 16.446 16.446 0 0 1 3.391 1.851A13.501 13.501 0 0 1 491 23.35a15.485 15.485 0 0 1 2.931 5.19 18.192 18.192 0 0 1 .269.86q1 3.5 1 7.6zm-46.1-16.6l-1.7 5.6q-2-1-4.5-1.6a17.617 17.617 0 0 0-1.729-.316q-2.083-.284-4.971-.284a21.172 21.172 0 0 0-5.31.627 14.187 14.187 0 0 0-7.74 4.923q-4.45 5.55-4.45 15.75a37.011 37.011 0 0 0 .316 4.938 29.754 29.754 0 0 0 .684 3.512 18.372 18.372 0 0 0 1.601 4.134 15.583 15.583 0 0 0 1.649 2.466 14.861 14.861 0 0 0 4.722 3.787 17.773 17.773 0 0 0 1.078.513q3.079 1.344 7.323 1.523A31.59 31.59 0 0 0 437.4 66a30.901 30.901 0 0 0 2.96-.133q1.443-.14 2.68-.424a15.269 15.269 0 0 0 1.41-.393q2.262-.754 3.547-1.35a11.382 11.382 0 0 0 .603-.3L450 69a11.528 11.528 0 0 1-1.175.559q-1.307.542-3.236 1.07a51.224 51.224 0 0 1-1.239.321 33.294 33.294 0 0 1-7.526.946 36.852 36.852 0 0 1-.524.004 32.342 32.342 0 0 1-5.317-.417A24.225 24.225 0 0 1 425.7 70a20.367 20.367 0 0 1-6.135-3.876 19.22 19.22 0 0 1-1.515-1.574 23.44 23.44 0 0 1-3.82-6.256 28.227 28.227 0 0 1-.83-2.244q-1.6-4.95-1.6-10.95a39.077 39.077 0 0 1 .508-6.429A31.32 31.32 0 0 1 413.45 34q1.65-5 4.75-8.6 3.1-3.6 7.5-5.55a22.69 22.69 0 0 1 6.57-1.759 28.364 28.364 0 0 1 3.33-.191 44.677 44.677 0 0 1 5.035.274 37.219 37.219 0 0 1 2.815.426 32.116 32.116 0 0 1 2.12.477q2.083.548 3.438 1.273a9.267 9.267 0 0 1 .092.05zM65.5 7.5v57.3q.561.094 2.743.362a429.198 429.198 0 0 0 .307.038 27.899 27.899 0 0 0 1.409.131q2.391.169 6.441.169a46.547 46.547 0 0 0 6.199-.392q3.751-.505 6.901-1.658a27.262 27.262 0 0 0 6.015-3.051A23.465 23.465 0 0 0 98.9 57.6a23.788 23.788 0 0 0 5.327-8.242 27.88 27.88 0 0 0 .373-1.008 33.538 33.538 0 0 0 1.586-6.948 43.27 43.27 0 0 0 .314-5.302q0-6.8-1.9-12.2a24.641 24.641 0 0 0-4.076-7.396A23.138 23.138 0 0 0 98.9 14.7a24.53 24.53 0 0 0-7.036-4.869A29.686 29.686 0 0 0 89.5 8.85Q83.9 6.8 76.4 6.8q-5.4 0-7.85.3-2.293.281-2.965.386a9.15 9.15 0 0 0-.085.014zm334.746 44.015A36.826 36.826 0 0 0 400.8 45q0-6.1-1.75-11.1t-4.9-8.55q-3.15-3.55-7.45-5.5a21.06 21.06 0 0 0-3.352-1.188 24.105 24.105 0 0 0-6.148-.762 26.413 26.413 0 0 0-1.997.075 22.054 22.054 0 0 0-7.503 1.875q-4.3 1.95-7.45 5.5a23.119 23.119 0 0 0-2.247 2.995 27.101 27.101 0 0 0-2.653 5.555 29.807 29.807 0 0 0-1.196 4.586A36.826 36.826 0 0 0 353.6 45q0 6.1 1.75 11.1a28.723 28.723 0 0 0 1.095 2.694 23.521 23.521 0 0 0 3.805 5.806q3.15 3.5 7.45 5.45a21.06 21.06 0 0 0 3.352 1.188A24.105 24.105 0 0 0 377.2 72a26.413 26.413 0 0 0 1.997-.074 22.054 22.054 0 0 0 7.503-1.876q4.3-1.95 7.45-5.45a22.506 22.506 0 0 0 2.348-3.123 26.748 26.748 0 0 0 2.552-5.377 29.807 29.807 0 0 0 1.196-4.585zm193.8 0A36.826 36.826 0 0 0 594.6 45q0-6.1-1.75-11.1t-4.9-8.55q-3.15-3.55-7.45-5.5a21.06 21.06 0 0 0-3.352-1.188A24.105 24.105 0 0 0 571 17.9a26.413 26.413 0 0 0-1.997.075 22.054 22.054 0 0 0-7.503 1.875q-4.3 1.95-7.45 5.5a23.119 23.119 0 0 0-2.247 2.995 27.101 27.101 0 0 0-2.653 5.555 29.807 29.807 0 0 0-1.196 4.586A36.826 36.826 0 0 0 547.4 45q0 6.1 1.75 11.1a28.723 28.723 0 0 0 1.095 2.694 23.521 23.521 0 0 0 3.805 5.806q3.15 3.5 7.45 5.45a21.06 21.06 0 0 0 3.352 1.188A24.105 24.105 0 0 0 571 72a26.413 26.413 0 0 0 1.997-.074 22.054 22.054 0 0 0 7.503-1.876q4.3-1.95 7.45-5.45a22.506 22.506 0 0 0 2.348-3.123 26.748 26.748 0 0 0 2.552-5.377 29.807 29.807 0 0 0 1.196-4.585zM636.3 19.6l-1.3 5.6a3.962 3.962 0 0 0-.466-.19q-.82-.285-2.428-.593a46.3 46.3 0 0 0-.356-.067q-2.396-.44-6.274-.45a70.229 70.229 0 0 0-.176 0 48.621 48.621 0 0 0-2.464.059q-2.492.127-4.229.528a14.407 14.407 0 0 0-.057.013 52.96 52.96 0 0 0-1.032.253q-1.395.358-2.065.634a3.792 3.792 0 0 0-.253.113v45.3h-6.5V21.5a27.658 27.658 0 0 1 1.748-.692q1.986-.716 4.754-1.453a93.114 93.114 0 0 1 .398-.105 31.934 31.934 0 0 1 3.889-.744q3.07-.406 6.811-.406a36.701 36.701 0 0 1 4.235.237 31.614 31.614 0 0 1 1.815.263q2.838.498 3.941.996a4.078 4.078 0 0 1 .009.004zM393.9 45a34.042 34.042 0 0 0-.532-6.202q-1.015-5.474-3.968-9.248a14.412 14.412 0 0 0-10.525-5.679 19.283 19.283 0 0 0-1.675-.071q-7.7 0-12.2 5.75a19.931 19.931 0 0 0-3.478 7.102Q360.5 40.378 360.5 45a33.944 33.944 0 0 0 .532 6.196Q362.047 56.66 365 60.4a14.45 14.45 0 0 0 10.554 5.632 19.474 19.474 0 0 0 1.646.068 16.728 16.728 0 0 0 5.728-.941A14.39 14.39 0 0 0 389.4 60.4a19.619 19.619 0 0 0 3.444-6.941Q393.9 49.699 393.9 45zm193.8 0a34.042 34.042 0 0 0-.532-6.202q-1.015-5.474-3.968-9.248a14.412 14.412 0 0 0-10.525-5.679A19.283 19.283 0 0 0 571 23.8q-7.7 0-12.2 5.75a19.931 19.931 0 0 0-3.478 7.102Q554.3 40.378 554.3 45a33.944 33.944 0 0 0 .532 6.196q1.015 5.464 3.968 9.204a14.45 14.45 0 0 0 10.554 5.632A19.474 19.474 0 0 0 571 66.1a16.728 16.728 0 0 0 5.728-.941A14.39 14.39 0 0 0 583.2 60.4a19.619 19.619 0 0 0 3.444-6.941Q587.7 49.699 587.7 45zM163.9 7.5v30.6h8.6q5.5 0 9.95-.65 4.298-.628 7.383-2.281a16.444 16.444 0 0 0 .217-.119q3.15-1.75 4.85-4.85a12.784 12.784 0 0 0 1.217-3.264q.347-1.493.445-3.234a25.032 25.032 0 0 0 .038-1.402q0-4.6-1.85-7.6t-4.9-4.75a20.369 20.369 0 0 0-4.766-1.957A24.764 24.764 0 0 0 182.9 7.5q-3.9-.7-8-.7a96.892 96.892 0 0 0-2.688.035q-1.053.03-1.993.083a48.056 48.056 0 0 0-1.769.132q-1.822.172-3.289.32a302.984 302.984 0 0 0-1.261.13zm324.8 57.7V47a8.792 8.792 0 0 0-.722-.285q-.724-.254-1.765-.52a41.871 41.871 0 0 0-1.013-.245 17.414 17.414 0 0 0-1.676-.29q-2.037-.26-4.924-.26-2.4 0-5 .35t-4.8 1.5q-2.2 1.15-3.6 3.15a7.216 7.216 0 0 0-1.039 2.284q-.259.963-.332 2.1a14.302 14.302 0 0 0-.029.916 14.733 14.733 0 0 0 .151 2.168q.171 1.147.535 2.11a8.235 8.235 0 0 0 .264.622q.95 2 2.7 3.2a10.867 10.867 0 0 0 2.393 1.221 14.172 14.172 0 0 0 1.807.529q2.412.542 5.453.55a34.742 34.742 0 0 0 .097 0 99.994 99.994 0 0 0 2.716-.035q2.153-.059 3.934-.215a61.802 61.802 0 0 0 2.018-.208q.989-.12 1.848-.263a30.363 30.363 0 0 0 .984-.179zM122.7 45v-6.3h22.6V45h-22.6zm149.8 0v-6.3h22.6V45h-22.6z" vector-effect="non-scaling-stroke" fill="#000" fill-rule="evenodd" stroke="#000" stroke-linecap="round" stroke-width=".25mm"/></svg>