<svg xmlns="http://www.w3.org/2000/svg" role="img" viewBox="-18.96 -18.46 959.92 287.42"><title>pvfactors logo</title><g stroke-width=".32" transform="translate(-18.877 -18.88)"><path fill="#93b6da" d="M18.87919 269.52c-.00045-.044-.0012-56.4562-.0016-125.36044l-.0008-125.28045h922.56648V269.4409l-461.28163.0795c-253.70491.04381-461.282.04361-461.28245-.00039zm921.52375-17.44l.0829-16.24H19.84v16.10667c0 8.85866.09605 16.20271.21344 16.32011.1174.11739 207.2254.17739 460.24.13333L940.32 268.32zm-.0032-128.16L940.31926 20h-920.32l-.07975 103.92-.08049 103.92h920.64194l-.0805-103.92zM168.16 224.03182c-.352-.15501-1-.66917-1.44-1.14258l-.8-.86075-.0945-53.97425c-.0859-49.05576-.0477-54.06377.41941-54.95671 1.13406-2.16796-.31689-2.05753 27.03511-2.05753 27.16714 0 25.79698-.0981 26.99663 1.93275.47457.80339.52337 3.71122.52337 31.18725 0 27.47603-.0488 30.38386-.52337 31.18725-1.19278 2.01922-.10117 1.93275-24.39965 1.93275h-22.1043l-.0863 22.39396-.0864 22.39396-1.00108 1.00096c-1.0697 1.06959-3.16468 1.52405-4.43892.96294zM212.8 144.16v-25.12h-39.04v50.24h39.04zm48.28732 32.39519c-1.02417-.68272-1.78802-2.47141-13.15292-30.8-6.63608-16.54136-12.07208-30.47834-12.08-30.97108-.0534-3.31948 4.0355-5.26508 6.50614-3.09583.9825.86264 2.17758 3.65564 10.95388 25.6 5.41809 13.54745 9.93083 24.62972 10.02833 24.62728.0975-.003 4.41181-10.62245 9.58739-23.6 5.17557-12.97756 9.69917-24.22403 10.05244-24.99216 1.1273-2.45113 3.70571-3.30318 5.91668-1.9552 1.0316.62896 1.98189 2.27141 1.97961 3.42152-.00064.31366-5.44273 14.17666-12.09357 30.80668-11.32346 28.31361-12.16072 30.28241-13.16619 30.96-1.39342.93902-3.12199.93856-4.53179-.001zm47.55268.43663c-.352-.15501-1-.66914-1.44-1.14252l-.8-.8607-.0851-27.94612-.0851-27.94613-3.50951-.10817c-3.4781-.10721-3.51885-.11754-4.55485-1.15433-.92518-.92588-1.04536-1.24709-1.04536-2.79385s.12018-1.86797 1.04536-2.79385c1.0362-1.03699 1.07613-1.0471 4.56-1.15446l3.51456-.10831V88.90106c0-20.10463.0481-22.1638.53753-22.99228 1.20099-2.03311-.0169-1.95103 27.37642-1.84503l24.87392.09625 1.04608 1.04615c.92602.92611 1.04605 1.2467 1.04605 2.79385 0 1.54714-.12003 1.86774-1.04605 2.79385L359.02794 71.84l-22.39399.08635-22.39395.08635v39.0146l22.39395.0864 22.39399.0863 1.04601 1.04615c.92602.92611 1.04605 1.24671 1.04605 2.79385s-.12003 1.86774-1.04605 2.79385l-1.04601 1.04615-22.38884.0864-22.38879.0863-.0851 27.98758-.0852 27.98758-1.00108 1.00099c-1.0697 1.06963-3.16465 1.5241-4.43892.96298zm69.8793-.25061c-1.91936-1.1912-1.8793-.80687-1.8793-18.02121 0-17.27506-.0435-16.86924 1.93274-18.03663.79702-.4708 3.09094-.52337 22.83664-.52337H423.36V119.05279l-22.23395-.0864-22.23399-.0864-1.04601-1.04615c-.92602-.9261-1.04605-1.24671-1.04605-2.79384 0-1.54715.12003-1.86774 1.04605-2.79385l1.04608-1.04615 24.71392-.0963c27.21677-.10602 26.01581-.18744 27.21641 1.84505.49319.83489.53754 3.40992.53754 31.21122 0 27.47603-.0488 30.38386-.52336 31.18725-1.19978 2.03102.16144 1.9336-26.88602 1.92423-22.16656-.008-24.6735-.0599-25.43132-.53027zM423.36 158.72v-10.56h-38.72v21.12h38.72zm25.5593 18.0245c-1.98983-1.24271-1.8793.6737-1.8793-32.5845 0-27.8013.0443-30.37633.53754-31.21122 1.2006-2.03249 0-1.95107 27.21641-1.84505l24.71392.0963 1.04608 1.04615c.92602.92611 1.04605 1.2467 1.04605 2.79385 0 1.54713-.12003 1.86774-1.04605 2.79385l-1.04601 1.04615-22.23399.0864-22.23395.0864v50.21438l22.23395.0864 22.23399.0864 1.04601 1.04615c.92602.92611 1.04605 1.24672 1.04605 2.79385 0 1.54715-.12003 1.86774-1.04605 2.79385l-1.04608 1.04615-24.87392.0748c-22.58499.0679-24.95133.0265-25.71465-.45027zm70.6007.24732c-.352-.15501-1-.66914-1.44-1.14252l-.8-.8607-.0851-27.94612-.0851-27.94613-3.50951-.10817c-3.47811-.10721-3.51884-.11754-4.55488-1.15433C508.12019 116.90797 508 116.58676 508 115.04s.12019-1.86797 1.04534-2.79385c1.03597-1.03675 1.0769-1.04712 4.5537-1.15429l3.50832-.10815.0863-22.36582.0863-22.36581 1.04614-1.04604c.92612-.926 1.24672-1.04604 2.79386-1.04604s1.86774.12004 2.79386 1.04604l1.04614 1.04604.0863 22.38757.0864 22.38757 22.22762.0864 22.22762.0864 1.04601 1.04615c.92602.92611 1.04605 1.24672 1.04605 2.79385s-.12003 1.86774-1.04605 2.79385l-1.04601 1.04615-22.22884.0864-22.2288.0864-.0851 27.98753-.0851 27.98754-1.00109 1.00099c-1.06969 1.06963-3.16464 1.5241-4.43891.96298zm69.8793-.25061c-1.98957-1.23477-1.8793.6771-1.8793-32.58121 0-27.47603.0488-30.38386.52336-31.18725 1.19926-2.03019-.15373-1.93275 26.83664-1.93275s25.63738-.0974 26.83664 1.93275c.47456.80339.52336 3.71122.52336 31.18725 0 27.47603-.0488 30.38386-.52336 31.18725-1.19978 2.03102.16144 1.9336-26.88602 1.92423-22.16656-.008-24.6735-.0599-25.43132-.53027zM634.24 144.16v-25.12h-38.72v50.24h38.72zM660 176.99182c-.352-.15501-1-.66914-1.44-1.14252l-.8-.8607-.0851-27.94612-.0851-27.94613-3.50951-.10817c-3.47811-.10721-3.51884-.11754-4.55488-1.15433-.92515-.92588-1.04534-1.24709-1.04534-2.79385s.12019-1.86797 1.04534-2.79385c1.03536-1.03612 1.07885-1.04718 4.53738-1.15386l3.49203-.10771.10263-4.76703.10262-4.76703 1.04614-1.04526C659.732 99.4802 660.05328 99.36 661.6 99.36s1.868.1202 2.79386 1.04526l1.04614 1.04526.10304 4.79474.10307 4.79474h22.08759c24.44905 0 23.28358-.0982 24.42995 2.05753.44806.8425.50781 1.99608.41942 8.09698l-.10307 7.11451-1.04614 1.04549c-.92592.92534-1.24701 1.04549-2.79386 1.04549-1.54672 0-1.868-.1202-2.79386-1.04525L704.8 128.3095l-.10362-4.63475-.10358-4.63475h-38.9825l-.0851 27.99392-.0851 27.99393-1.00109 1.00099c-1.06969 1.06963-3.16464 1.5241-4.43891.96298zm70.4-.0171c-.352-.1456-1-.65207-1.44-1.1255-.64832-.69756-.8-1.18844-.8-2.58884 0-1.52497.12294-1.85102 1.04605-2.77422l1.04601-1.04615 22.23399-.0864 22.23395-.0864V148.16h-21.95062c-19.7457 0-22.03962-.0526-22.83664-.52338C727.95651 146.46924 728 146.87506 728 129.6c0-14.16651.0538-15.83228.53754-16.65122 1.2006-2.03249 0-1.95107 27.21641-1.84505l24.71392.0963 1.04608 1.04615c.92602.92611 1.04605 1.2467 1.04605 2.79385 0 1.54713-.12003 1.86774-1.04605 2.79385l-1.04601 1.04615-22.23399.0864L736 119.05279V140.16h21.95062c19.7457 0 22.03962.0526 22.83664.52337 1.97623 1.16739 1.93274.76157 1.93274 18.03663s.0435 16.86924-1.93274 18.03663c-.80019.47268-3.25212.52141-25.31664.50309-13.43683-.0112-24.71862-.13941-25.07062-.28501z"/><path fill="#fdb932" d="M18.87919 269.52c-.00045-.044-.0012-56.4562-.0016-125.36044l-.0008-125.28045h922.56648V269.4409l-461.28163.0795c-253.70491.04381-461.282.04361-461.28245-.00039zm921.52375-17.44l.0829-16.24H19.84v16.10667c0 8.85866.09605 16.20271.21344 16.32011.1174.11739 207.2254.17739 460.24.13333L940.32 268.32zm-.0032-128.16L940.31926 20h-920.32l-.07975 103.92-.08049 103.92h920.64194l-.0805-103.92zM168 223.77531c-.62742-.32228-1.36674-1.06789-1.68102-1.69531-.52902-1.0561-.5564-4.19136-.48-54.95387l.081-53.83387 1.04615-1.04613 1.04616-1.04613h50.5354l1.04616 1.04615 1.04615 1.04616v61.73538l-1.04604 1.04616-1.04604 1.04615-22.39396.0863-22.39396.0864v21.76393c0 23.52335.0134 23.33083-1.69942 24.45311-1.24435.81532-2.79315.91662-4.06058.26557zM212.8 144.16v-25.12h-39.04v50.24h39.04zm48.45439 32.51658c-.54209-.33056-1.20617-1.08602-1.47574-1.6788-.26957-.59278-5.72499-14.18178-12.12315-30.19778-8.29987-20.7764-11.62528-29.4558-11.60601-30.29196.0793-3.44327 4.67768-5.01223 6.79626-2.3189.33867.43055 5.04916 11.86812 10.46775 25.41684 5.41859 13.54871 9.93175 24.63213 10.02925 24.62982.0975-.002 4.63377-11.164 10.08062-24.80375 5.88559-14.73843 10.16976-25.04145 10.56-25.39581 1.55897-1.41564 2.78085-1.62898 4.54236-.79309 1.29276.61345 2.03427 1.87327 2.03427 3.45618 0 .74089-4.09122 11.36396-11.85889 30.79223-6.5224 16.31362-12.00599 29.93596-12.18576 30.27187-.39104.73066-2.14766 1.51704-3.38507 1.51537-.48966-.00064-1.33381-.27165-1.87589-.60222zm47.22561.0587c-2.35917-1.21184-2.23895.41086-2.2395-30.22618l-.0005-27.41087-3.33759-.10913c-3.87932-.12684-4.84238-.59829-5.59985-2.74128-.39663-1.12212-.3966-1.45405.00022-2.49664.78716-2.06821 1.76882-2.53508 5.5933-2.66016l3.33127-.10894.0863-22.36502.0863-22.36501 1.04615-1.04604 1.04616-1.04604h25.09038c24.95136 0 25.09539.0037 25.99385.66899.4969.36794 1.10932 1.25136 1.3609 1.96316.39664 1.12212.39661 1.45405-.00022 2.49664-.25172.66136-.86404 1.50593-1.36074 1.87684-.89542.66865-1.09152.6751-23.11978.76076L314.24 72.0128v39.01442l22.2167.0864c21.96848.0854 22.22679.0939 23.12.75538.4968.36794 1.10916 1.25137 1.36074 1.96316.39664 1.12212.39661 1.45405-.00022 2.49664-.25172.66136-.86404 1.50593-1.36074 1.87684-.89542.66865-1.09152.6751-23.11978.76076l-22.2167.0864v27.36388c0 29.59589.0385 28.91431-1.69942 30.05307-1.24435.81532-2.79315.91662-4.06058.26557zm70.56.24245c-.352-.14728-1-.65512-1.44-1.12855l-.8-.86077V142.41228l1.04605-1.04616 1.04601-1.04615 22.23399-.0864 22.23395-.0864v-21.09434l-22.0567-.0864c-21.80612-.0855-22.06695-.094-22.96-.75543-.4968-.36794-1.10916-1.25137-1.36074-1.96316-.39664-1.12212-.39661-1.45405.00022-2.49664.25172-.66136.86413-1.50593 1.3609-1.87684.90051-.67233.97878-.67437 25.83363-.67437h24.93037l1.04618 1.04615L431.2 113.2923V175.02769l-1.04605 1.04616-1.04608 1.04615-24.71392.0628c-13.59267.0345-25.00195-.0577-25.35395-.205zM423.36 158.72v-10.56h-38.72v21.12h38.72zm26.08 18.25777c-.352-.14728-1-.65513-1.44-1.12856l-.8-.86077v-61.69613l1.04614-1.04616 1.04618-1.04615h24.93037c24.78902 0 24.93549.004 25.83385.66899.4969.36794 1.10932 1.25137 1.3609 1.96316.39664 1.12212.39661 1.45405-.00022 2.49664-.25172.66136-.86404 1.50593-1.36074 1.87684-.89526.66852-1.0943.67512-22.95978.76081l-22.0567.0864V169.26713l22.0567.0864c21.86548.0857 22.06452.0923 22.95978.76081.4967.37091 1.10902 1.21548 1.36074 1.87684.39683 1.04259.39686 1.37452.00022 2.49664-.25158.71179-.86394 1.59522-1.36077 1.96316-.89613.66365-1.09926.66949-25.44.73177-13.49517.0345-24.82467-.0577-25.17667-.20501zm69.92-.24246c-2.35917-1.21184-2.23894.41086-2.23949-30.22618v-27.41087l-3.3376-.10913c-3.87929-.12684-4.84237-.59829-5.59984-2.74128-.39664-1.12212-.39661-1.45405.00023-2.49664.78716-2.0682 1.7688-2.53508 5.59324-2.66015l3.33124-.10895.0864-22.18775c.0854-21.93913.0939-22.19788.75536-23.09106.36794-.49681 1.25136-1.10915 1.96317-1.36074 1.12211-.39663 1.45405-.3966 2.49664.00022.66135.25171 1.50592.86405 1.87683 1.36074.66864.89542.67511 1.09164.76077 23.11335l.0864 22.21027 22.05034.0864c21.79961.0855 22.06057.094 22.9536.75542.4968.36794 1.10915 1.25137 1.36073 1.96316.39664 1.12212.39661 1.45405-.00022 2.49664-.25171.66136-.86403 1.50593-1.36074 1.87684-.89526.66852-1.0943.67512-22.95977.76081l-22.05671.0864v27.36385c0 29.59584.0385 28.91426-1.69942 30.05302-1.24435.81532-2.79315.91662-4.06058.26557zm70.56.24245c-.352-.14728-1-.65512-1.44-1.12855l-.8-.86077v-61.69613l1.04614-1.04616 1.04618-1.04615h50.21536l1.04618 1.04615 1.04614 1.04616v61.73538l-1.04605 1.04616-1.04608 1.04615-24.71392.0628c-13.59267.0345-25.00195-.0577-25.35395-.205zM634.24 144.16v-25.12h-38.72v50.24h38.72zm25.6 32.57531c-2.35917-1.21184-2.23894.41086-2.23949-30.22618v-27.41087l-3.3376-.10913c-3.87929-.12684-4.84237-.59829-5.59984-2.74128-.39664-1.12212-.39661-1.45405.00023-2.49664.7862-2.06573 1.77036-2.53512 5.57648-2.65967l3.31446-.10846.10314-4.58936c.11712-5.21186.42316-6.00175 2.65433-6.85094 1.04259-.39682 1.37453-.39685 2.49664-.00022 2.31002.8165 2.61703 1.58788 2.73565 6.8733l.10352 4.61148 22.37046.0863 22.37047.0863 1.04601 1.04615 1.04605 1.04616v7.33038c0 6.93482-.0361 7.37913-.66899 8.23384-.36794.49691-1.25136 1.10932-1.96317 1.36091-1.12211.39663-1.45405.3966-2.49664-.00022-2.21709-.84382-2.53699-1.65335-2.65539-6.7194l-.1047-4.45776H665.6v27.37028c0 29.60282.0386 28.92068-1.69942 30.05946-1.24436.81532-2.79316.91662-4.06058.26557zm70.4-.0126c-2.08413-1.04706-2.75114-3.72654-1.42973-5.74326 1.1217-1.71195.94263-1.69943 24.29946-1.69943H774.72V148.17281l-22.23395-.0864-22.23399-.0864-1.04601-1.04615-1.04605-1.04615V113.29232l1.04614-1.04615 1.04618-1.04616h24.93037c24.78902 0 24.93549.004 25.83385.66899.4969.36794 1.10932 1.25137 1.3609 1.96317.39664 1.12211.39661 1.45404-.00022 2.49664-.25172.66135-.86404 1.50593-1.36074 1.87683-.89526.66853-1.0943.67512-22.95978.76081L736 119.05289v21.09433l22.23395.0864 22.23399.0864 1.04601 1.04616 1.04605 1.04615V175.02772l-1.04605 1.04615-1.04608 1.04615-24.55392.0827c-22.88886.0771-24.62989.0445-25.67395-.48z"/><path fill="#e1b252" d="M18.87919 269.52c-.00045-.044-.0012-56.4562-.0016-125.36044l-.0008-125.28045h922.56648V269.4409l-461.28163.0795c-253.70491.04381-461.282.04361-461.28245-.00039zM940.32 144.16V20H20l-.07294 123.84c-.04012 68.112-.0086 124.02005.07 124.24011.1143.31995 92.32442.38406 460.23292.32L940.32 268.32zm-769.52271 91.45452c.3945-.0761 1.13077-.55181 1.63615-1.05719 1.59349-1.59349 1.59495-3.83971.004-5.43112-.50733-.50732-1.24519-.98465-1.63969-1.06073-.39451-.0761 9.72271-.13832 22.48271-.13832 12.76 0 22.87722.0622 22.48271.13832-.3945.0761-1.13077.55181-1.63615 1.05719-1.59349 1.59349-1.59495 3.83971-.004 5.43112.50733.50732 1.24519.98465 1.63969 1.06073.39451.0761-9.72271.13832-22.48271.13832-12.76 0-22.87722-.0622-22.48271-.13832zm70.4 0c.3945-.0761 1.13077-.55181 1.63615-1.05719 1.59349-1.59349 1.59495-3.83971.004-5.43112-.50733-.50732-1.24519-.98465-1.63969-1.06073-.39451-.0761 9.65071-.13832 22.32271-.13832s22.71722.0622 22.32271.13832c-.3945.0761-1.13077.55181-1.63615 1.05719-1.59349 1.59349-1.59495 3.83971-.004 5.43112.50733.50732 1.24519.98465 1.63969 1.06073.39451.0761-9.65071.13832-22.32271.13832s-22.71722-.0622-22.32271-.13832zm70.08 0c.3945-.0761 1.13077-.55181 1.63615-1.05719 1.59349-1.59349 1.59495-3.83971.004-5.43112-.50733-.50732-1.24519-.98465-1.63969-1.06073-.39451-.0761 9.72271-.13832 22.48271-.13832 12.76 0 22.87722.0622 22.48272.13832-.3945.0761-1.13078.55181-1.63616 1.05719-1.59347 1.59349-1.59494 3.83971-.004 5.43112.50733.50732 1.24522.98465 1.63971 1.06073.3945.0761-9.72272.13832-22.48272.13832s-22.87722-.0622-22.48271-.13832zm70.39999 0c.3945-.0761 1.13078-.55181 1.63616-1.05719 1.59347-1.59349 1.59494-3.83971.004-5.43112-.50733-.50732-1.24522-.98465-1.63971-1.06073-.3945-.0761 9.65072-.13832 22.32272-.13832s22.71721.0622 22.32272.13832c-.3945.0761-1.13079.55181-1.63616 1.05719-1.59347 1.59349-1.59495 3.83971-.004 5.43112.50733.50732 1.24521.98465 1.63971 1.06073.3945.0761-9.65072.13832-22.32272.13832s-22.71722-.0622-22.32272-.13832zm70.4 0c.3945-.0761 1.13078-.55181 1.63616-1.05719 1.59347-1.59349 1.59494-3.83971.004-5.43112-.50733-.50732-1.24522-.98465-1.63971-1.06073-.3945-.0761 9.65072-.13832 22.32272-.13832s22.71721.0622 22.32272.13832c-.3945.0761-1.13079.55181-1.63616 1.05719-1.59347 1.59349-1.59495 3.83971-.004 5.43112.50733.50732 1.24521.98465 1.63971 1.06073.3945.0761-9.65072.13832-22.32272.13832s-22.71722-.0622-22.32272-.13832zm70.08 0c.3945-.0761 1.13078-.55181 1.63616-1.05719 1.59347-1.59349 1.59494-3.83971.004-5.43112-.50733-.50732-1.24522-.98465-1.63971-1.06073-.3945-.0761 9.65072-.13832 22.32272-.13832s22.71721.0622 22.32272.13832c-.3945.0761-1.13079.55181-1.63616 1.05719-1.59347 1.59349-1.59495 3.83971-.004 5.43112.50733.50732 1.24521.98465 1.63971 1.06073.3945.0761-9.65072.13832-22.32272.13832s-22.71722-.0622-22.32272-.13832zm70.4 0c.3945-.0761 1.13078-.55181 1.63616-1.05719 1.59347-1.59349 1.59494-3.83971.004-5.43112-.50733-.50732-1.24522-.98465-1.63971-1.06073-.3945-.0761 9.65072-.13832 22.32272-.13832s22.71721.0622 22.32272.13832c-.3945.0761-1.13079.55181-1.63616 1.05719-1.59347 1.59349-1.59495 3.83971-.004 5.43112.50733.50732 1.24521.98465 1.63971 1.06073.3945.0761-9.65072.13832-22.32272.13832s-22.71722-.0622-22.32272-.13832zm70.08 0c.3945-.0761 1.13078-.55181 1.63616-1.05719 1.59347-1.59349 1.59494-3.83971.004-5.43112-.50733-.50732-1.24522-.98465-1.63971-1.06073-.3945-.0761 9.72272-.13832 22.48272-.13832s22.87721.0622 22.48272.13832c-.3945.0761-1.13079.55181-1.63616 1.05719-1.59347 1.59349-1.59495 3.83971-.004 5.43112.50733.50732 1.24521.98465 1.63971 1.06073.3945.0761-9.72272.13832-22.48272.13832s-22.87722-.0622-22.48272-.13832zm70.4 0c.3945-.0761 1.13078-.55181 1.63616-1.05719 1.59347-1.59349 1.59494-3.83971.004-5.43112-.50733-.50732-1.24522-.98465-1.63971-1.06073-.3945-.0761 9.65072-.13832 22.32272-.13832s22.71721.0622 22.32272.13832c-.3945.0761-1.13079.55181-1.63616 1.05719-1.59347 1.59349-1.59495 3.83971-.004 5.43112.50733.50732 1.24521.98465 1.63971 1.06073.3945.0761-9.65072.13832-22.32272.13832s-22.71722-.0622-22.32272-.13832zM168 223.77531c-.62742-.32228-1.36674-1.06789-1.68102-1.69531-.52902-1.0561-.5564-4.19136-.48-54.95387l.081-53.83387 1.04615-1.04613 1.04616-1.04613h50.5354l1.04616 1.04615 1.04615 1.04616v61.73538l-1.04604 1.04616-1.04604 1.04615-22.39396.0863-22.39396.0864v21.76393c0 23.52335.0134 23.33083-1.69942 24.45311-1.24435.81532-2.79315.91662-4.06058.26557zM212.8 144.16v-25.12h-39.04v50.24h39.04zm48.45439 32.51658c-.54209-.33056-1.20617-1.08602-1.47574-1.6788-.26957-.59278-5.72499-14.18178-12.12315-30.19778-8.29987-20.7764-11.62528-29.4558-11.60601-30.29196.0793-3.44327 4.67768-5.01223 6.79626-2.3189.33867.43055 5.04916 11.86812 10.46775 25.41684 5.41859 13.54871 9.93175 24.63213 10.02925 24.62982.0975-.002 4.63377-11.164 10.08062-24.80375 5.88559-14.73843 10.16976-25.04145 10.56-25.39581 1.55897-1.41564 2.78085-1.62898 4.54236-.79309 1.29276.61345 2.03427 1.87327 2.03427 3.45618 0 .74089-4.09122 11.36396-11.85889 30.79223-6.5224 16.31362-12.00599 29.93596-12.18576 30.27187-.39104.73066-2.14766 1.51704-3.38507 1.51537-.48966-.00064-1.33381-.27165-1.87589-.60222zm47.22561.0587c-2.35917-1.21184-2.23895.41086-2.2395-30.22618l-.0005-27.41087-3.33759-.10913c-3.87932-.12684-4.84238-.59829-5.59985-2.74128-.39663-1.12212-.3966-1.45405.00022-2.49664.78716-2.06821 1.76882-2.53508 5.5933-2.66016l3.33127-.10894.0863-22.36502.0863-22.36501 1.04615-1.04604 1.04616-1.04604h25.09038c24.95136 0 25.09539.0037 25.99385.66899.4969.36794 1.10932 1.25136 1.3609 1.96316.39664 1.12212.39661 1.45405-.00022 2.49664-.25172.66136-.86404 1.50593-1.36074 1.87684-.89542.66865-1.09152.6751-23.11978.76076L314.24 72.0128v39.01442l22.2167.0864c21.96848.0854 22.22679.0939 23.12.75538.4968.36794 1.10916 1.25137 1.36074 1.96316.39664 1.12212.39661 1.45405-.00022 2.49664-.25172.66136-.86404 1.50593-1.36074 1.87684-.89542.66865-1.09152.6751-23.11978.76076l-22.2167.0864v27.36388c0 29.59589.0385 28.91431-1.69942 30.05307-1.24435.81532-2.79315.91662-4.06058.26557zm70.56.24245c-.352-.14728-1-.65512-1.44-1.12855l-.8-.86077V142.41228l1.04605-1.04616 1.04601-1.04615 22.23399-.0864 22.23395-.0864v-21.09434l-22.0567-.0864c-21.80612-.0855-22.06695-.094-22.96-.75543-.4968-.36794-1.10916-1.25137-1.36074-1.96316-.39664-1.12212-.39661-1.45405.00022-2.49664.25172-.66136.86413-1.50593 1.3609-1.87684.90051-.67233.97878-.67437 25.83363-.67437h24.93037l1.04618 1.04615L431.2 113.2923V175.02769l-1.04605 1.04616-1.04608 1.04615-24.71392.0628c-13.59267.0345-25.00195-.0577-25.35395-.205zM423.36 158.72v-10.56h-38.72v21.12h38.72zm26.08 18.25777c-.352-.14728-1-.65513-1.44-1.12856l-.8-.86077v-61.69613l1.04614-1.04616 1.04618-1.04615h24.93037c24.78902 0 24.93549.004 25.83385.66899.4969.36794 1.10932 1.25137 1.3609 1.96316.39664 1.12212.39661 1.45405-.00022 2.49664-.25172.66136-.86404 1.50593-1.36074 1.87684-.89526.66852-1.0943.67512-22.95978.76081l-22.0567.0864V169.26713l22.0567.0864c21.86548.0857 22.06452.0923 22.95978.76081.4967.37091 1.10902 1.21548 1.36074 1.87684.39683 1.04259.39686 1.37452.00022 2.49664-.25158.71179-.86394 1.59522-1.36077 1.96316-.89613.66365-1.09926.66949-25.44.73177-13.49517.0345-24.82467-.0577-25.17667-.20501zm69.92-.24246c-2.35917-1.21184-2.23894.41086-2.23949-30.22618v-27.41087l-3.3376-.10913c-3.87929-.12684-4.84237-.59829-5.59984-2.74128-.39664-1.12212-.39661-1.45405.00023-2.49664.78716-2.0682 1.7688-2.53508 5.59324-2.66015l3.33124-.10895.0864-22.18775c.0854-21.93913.0939-22.19788.75536-23.09106.36794-.49681 1.25136-1.10915 1.96317-1.36074 1.12211-.39663 1.45405-.3966 2.49664.00022.66135.25171 1.50592.86405 1.87683 1.36074.66864.89542.67511 1.09164.76077 23.11335l.0864 22.21027 22.05034.0864c21.79961.0855 22.06057.094 22.9536.75542.4968.36794 1.10915 1.25137 1.36073 1.96316.39664 1.12212.39661 1.45405-.00022 2.49664-.25171.66136-.86403 1.50593-1.36074 1.87684-.89526.66852-1.0943.67512-22.95977.76081l-22.05671.0864v27.36385c0 29.59584.0385 28.91426-1.69942 30.05302-1.24435.81532-2.79315.91662-4.06058.26557zm70.56.24245c-.352-.14728-1-.65512-1.44-1.12855l-.8-.86077v-61.69613l1.04614-1.04616 1.04618-1.04615h50.21536l1.04618 1.04615 1.04614 1.04616v61.73538l-1.04605 1.04616-1.04608 1.04615-24.71392.0628c-13.59267.0345-25.00195-.0577-25.35395-.205zM634.24 144.16v-25.12h-38.72v50.24h38.72zm25.6 32.57531c-2.35917-1.21184-2.23894.41086-2.23949-30.22618v-27.41087l-3.3376-.10913c-3.87929-.12684-4.84237-.59829-5.59984-2.74128-.39664-1.12212-.39661-1.45405.00023-2.49664.7862-2.06573 1.77036-2.53512 5.57648-2.65967l3.31446-.10846.10314-4.58936c.11712-5.21186.42316-6.00175 2.65433-6.85094 1.04259-.39682 1.37453-.39685 2.49664-.00022 2.31002.8165 2.61703 1.58788 2.73565 6.8733l.10352 4.61148 22.37046.0863 22.37047.0863 1.04601 1.04615 1.04605 1.04616v7.33038c0 6.93482-.0361 7.37913-.66899 8.23384-.36794.49691-1.25136 1.10932-1.96317 1.36091-1.12211.39663-1.45405.3966-2.49664-.00022-2.21709-.84382-2.53699-1.65335-2.65539-6.7194l-.1047-4.45776H665.6v27.37028c0 29.60282.0386 28.92068-1.69942 30.05946-1.24436.81532-2.79316.91662-4.06058.26557zm70.4-.0126c-2.08413-1.04706-2.75114-3.72654-1.42973-5.74326 1.1217-1.71195.94263-1.69943 24.29946-1.69943H774.72V148.17281l-22.23395-.0864-22.23399-.0864-1.04601-1.04615-1.04605-1.04615V113.29232l1.04614-1.04615 1.04618-1.04616h24.93037c24.78902 0 24.93549.004 25.83385.66899.4969.36794 1.10932 1.25137 1.3609 1.96317.39664 1.12211.39661 1.45404-.00022 2.49664-.25172.66135-.86404 1.50593-1.36074 1.87683-.89526.66853-1.0943.67512-22.95978.76081L736 119.05289v21.09433l22.23395.0864 22.23399.0864 1.04601 1.04616 1.04605 1.04615V175.02772l-1.04605 1.04615-1.04608 1.04615-24.55392.0827c-22.88886.0771-24.62989.0445-25.67395-.48z"/><path fill="#a6a39b" d="M18.87919 269.52c-.00045-.044-.0012-56.4562-.0016-125.36044l-.0008-125.28045h922.56648V269.4409l-461.28163.0795c-253.70491.04381-461.282.04361-461.28245-.00039zM940.32 144.16V20H20l-.08187 123.84c-.04503 68.112-.01353 124.02005.07 124.24011.12144.31994 92.33716.38406 460.24185.32L940.32 268.32zm-768.96 91.37471c.352-.1456 1-.65207 1.44-1.1255.64595-.69502.8-1.18975.8-2.56921s-.15405-1.87419-.8-2.56921c-.44-.47343-1.088-.9799-1.44-1.1255-.352-.1456 9.512-.26472 21.92-.26472 12.408 0 22.272.11912 21.92.26472-.352.1456-1 .65207-1.44 1.1255-.64595.69502-.8 1.18975-.8 2.56921s.15405 1.87419.8 2.56921c.44.47343 1.088.9799 1.44 1.1255.352.1456-9.512.26472-21.92.26472-12.408 0-22.272-.11912-21.92-.26472zm70.4 0c.352-.1456 1-.65207 1.44-1.1255.64595-.69502.8-1.18975.8-2.56921s-.15405-1.87419-.8-2.56921c-.44-.47343-1.088-.9799-1.44-1.1255-.352-.1456 9.44-.26472 21.76-.26472 12.32 0 22.112.11912 21.76.26472-.352.1456-1 .65207-1.44 1.1255-.64595.69502-.8 1.18975-.8 2.56921s.15405 1.87419.8 2.56921c.44.47343 1.088.9799 1.44 1.1255.352.1456-9.44.26472-21.76.26472-12.32 0-22.112-.11912-21.76-.26472zm70.08 0c.352-.1456 1-.65207 1.44-1.1255.64595-.69502.8-1.18975.8-2.56921s-.15405-1.87419-.8-2.56921c-.44-.47343-1.088-.9799-1.44-1.1255-.352-.1456 9.512-.26472 21.92-.26472 12.408 0 22.272.11912 21.92.26472-.352.1456-1 .65207-1.44 1.1255-.64595.69502-.8 1.18975-.8 2.56921s.15405 1.87419.8 2.56921c.44.47343 1.088.9799 1.44 1.1255.352.1456-9.512.26472-21.92.26472-12.408 0-22.272-.11912-21.92-.26472zm70.4 0c.352-.1456 1-.65207 1.44-1.1255.64595-.69502.8-1.18975.8-2.56921s-.15405-1.87419-.8-2.56921c-.44-.47343-1.088-.9799-1.44-1.1255-.352-.1456 9.44-.26472 21.76-.26472 12.32 0 22.112.11912 21.76.26472-.352.1456-1 .65207-1.44 1.1255-.64595.69502-.8 1.18975-.8 2.56921s.15405 1.87419.8 2.56921c.44.47343 1.088.9799 1.44 1.1255.352.1456-9.44.26472-21.76.26472-12.32 0-22.112-.11912-21.76-.26472zm70.4 0c.352-.1456 1-.65207 1.44-1.1255.64595-.69502.8-1.18975.8-2.56921s-.15405-1.87419-.8-2.56921c-.44-.47343-1.088-.9799-1.44-1.1255-.352-.1456 9.44-.26472 21.76-.26472 12.32 0 22.112.11912 21.76.26472-.352.1456-1 .65207-1.44 1.1255-.64595.69502-.8 1.18975-.8 2.56921s.15405 1.87419.8 2.56921c.44.47343 1.088.9799 1.44 1.1255.352.1456-9.44.26472-21.76.26472-12.32 0-22.112-.11912-21.76-.26472zm70.08 0c.352-.1456 1-.65207 1.44-1.1255.64595-.69502.8-1.18975.8-2.56921s-.15405-1.87419-.8-2.56921c-.44-.47343-1.088-.9799-1.44-1.1255-.352-.1456 9.44-.26472 21.76-.26472 12.32 0 22.112.11912 21.76.26472-.352.1456-1 .65207-1.44 1.1255-.64595.69502-.8 1.18975-.8 2.56921s.15405 1.87419.8 2.56921c.44.47343 1.088.9799 1.44 1.1255.352.1456-9.44.26472-21.76.26472-12.32 0-22.112-.11912-21.76-.26472zm70.4 0c.352-.1456 1-.65207 1.44-1.1255.64595-.69502.8-1.18975.8-2.56921s-.15405-1.87419-.8-2.56921c-.44-.47343-1.088-.9799-1.44-1.1255-.352-.1456 9.44-.26472 21.76-.26472 12.32 0 22.112.11912 21.76.26472-.352.1456-1 .65207-1.44 1.1255-.64595.69502-.8 1.18975-.8 2.56921s.15405 1.87419.8 2.56921c.44.47343 1.088.9799 1.44 1.1255.352.1456-9.44.26472-21.76.26472-12.32 0-22.112-.11912-21.76-.26472zm70.08 0c.352-.1456 1-.65207 1.44-1.1255.64595-.69502.8-1.18975.8-2.56921s-.15405-1.87419-.8-2.56921c-.44-.47343-1.088-.9799-1.44-1.1255-.352-.1456 9.512-.26472 21.92-.26472 12.408 0 22.272.11912 21.92.26472-.352.1456-1 .65207-1.44 1.1255-.64595.69502-.8 1.18975-.8 2.56921s.15405 1.87419.8 2.56921c.44.47343 1.088.9799 1.44 1.1255.352.1456-9.512.26472-21.92.26472-12.408 0-22.272-.11912-21.92-.26472zm70.4 0c.352-.1456 1-.65207 1.44-1.1255.64595-.69502.8-1.18975.8-2.56921s-.15405-1.87419-.8-2.56921c-.44-.47343-1.088-.9799-1.44-1.1255-.352-.1456 9.44-.26472 21.76-.26472 12.32 0 22.112.11912 21.76.26472-.352.1456-1 .65207-1.44 1.1255-.64595.69502-.8 1.18975-.8 2.56921s.15405 1.87419.8 2.56921c.44.47343 1.088.9799 1.44 1.1255.352.1456-9.44.26472-21.76.26472-12.32 0-22.112-.11912-21.76-.26472zM168 223.77531c-.62742-.32228-1.36674-1.06789-1.68102-1.69531-.52902-1.0561-.5564-4.19136-.48-54.95387l.081-53.83387 1.04615-1.04613 1.04616-1.04613h50.5354l1.04616 1.04615 1.04615 1.04616v61.73538l-1.04604 1.04616-1.04604 1.04615-22.39396.0863-22.39396.0864v21.76393c0 23.52335.0134 23.33083-1.69942 24.45311-1.24435.81532-2.79315.91662-4.06058.26557zM212.8 144.16v-25.12h-39.04v50.24h39.04zm48.45439 32.51658c-.54209-.33056-1.20617-1.08602-1.47574-1.6788-.26957-.59278-5.72499-14.18178-12.12315-30.19778-8.29987-20.7764-11.62528-29.4558-11.60601-30.29196.0793-3.44327 4.67768-5.01223 6.79626-2.3189.33867.43055 5.04916 11.86812 10.46775 25.41684 5.41859 13.54871 9.93175 24.63213 10.02925 24.62982.0975-.002 4.63377-11.164 10.08062-24.80375 5.88559-14.73843 10.16976-25.04145 10.56-25.39581 1.55897-1.41564 2.78085-1.62898 4.54236-.79309 1.29276.61345 2.03427 1.87327 2.03427 3.45618 0 .74089-4.09122 11.36396-11.85889 30.79223-6.5224 16.31362-12.00599 29.93596-12.18576 30.27187-.39104.73066-2.14766 1.51704-3.38507 1.51537-.48966-.00064-1.33381-.27165-1.87589-.60222zm47.22561.0587c-2.35917-1.21184-2.23895.41086-2.2395-30.22618l-.0005-27.41087-3.33759-.10913c-3.87932-.12684-4.84238-.59829-5.59985-2.74128-.39663-1.12212-.3966-1.45405.00022-2.49664.78716-2.06821 1.76882-2.53508 5.5933-2.66016l3.33127-.10894.0863-22.36502.0863-22.36501 1.04615-1.04604 1.04616-1.04604h25.09038c24.95136 0 25.09539.0037 25.99385.66899.4969.36794 1.10932 1.25136 1.3609 1.96316.39664 1.12212.39661 1.45405-.00022 2.49664-.25172.66136-.86404 1.50593-1.36074 1.87684-.89542.66865-1.09152.6751-23.11978.76076L314.24 72.0128v39.01442l22.2167.0864c21.96848.0854 22.22679.0939 23.12.75538.4968.36794 1.10916 1.25137 1.36074 1.96316.39664 1.12212.39661 1.45405-.00022 2.49664-.25172.66136-.86404 1.50593-1.36074 1.87684-.89542.66865-1.09152.6751-23.11978.76076l-22.2167.0864v27.36388c0 29.59589.0385 28.91431-1.69942 30.05307-1.24435.81532-2.79315.91662-4.06058.26557zm70.56.24245c-.352-.14728-1-.65512-1.44-1.12855l-.8-.86077V142.41228l1.04605-1.04616 1.04601-1.04615 22.23399-.0864 22.23395-.0864v-21.09434l-22.0567-.0864c-21.80612-.0855-22.06695-.094-22.96-.75543-.4968-.36794-1.10916-1.25137-1.36074-1.96316-.39664-1.12212-.39661-1.45405.00022-2.49664.25172-.66136.86413-1.50593 1.3609-1.87684.90051-.67233.97878-.67437 25.83363-.67437h24.93037l1.04618 1.04615L431.2 113.2923V175.02769l-1.04605 1.04616-1.04608 1.04615-24.71392.0628c-13.59267.0345-25.00195-.0577-25.35395-.205zM423.36 158.72v-10.56h-38.72v21.12h38.72zm26.08 18.25777c-.352-.14728-1-.65513-1.44-1.12856l-.8-.86077v-61.69613l1.04614-1.04616 1.04618-1.04615h24.93037c24.78902 0 24.93549.004 25.83385.66899.4969.36794 1.10932 1.25137 1.3609 1.96316.39664 1.12212.39661 1.45405-.00022 2.49664-.25172.66136-.86404 1.50593-1.36074 1.87684-.89526.66852-1.0943.67512-22.95978.76081l-22.0567.0864V169.26713l22.0567.0864c21.86548.0857 22.06452.0923 22.95978.76081.4967.37091 1.10902 1.21548 1.36074 1.87684.39683 1.04259.39686 1.37452.00022 2.49664-.25158.71179-.86394 1.59522-1.36077 1.96316-.89613.66365-1.09926.66949-25.44.73177-13.49517.0345-24.82467-.0577-25.17667-.20501zm69.92-.24246c-2.35917-1.21184-2.23894.41086-2.23949-30.22618v-27.41087l-3.3376-.10913c-3.87929-.12684-4.84237-.59829-5.59984-2.74128-.39664-1.12212-.39661-1.45405.00023-2.49664.78716-2.0682 1.7688-2.53508 5.59324-2.66015l3.33124-.10895.0864-22.18775c.0854-21.93913.0939-22.19788.75536-23.09106.36794-.49681 1.25136-1.10915 1.96317-1.36074 1.12211-.39663 1.45405-.3966 2.49664.00022.66135.25171 1.50592.86405 1.87683 1.36074.66864.89542.67511 1.09164.76077 23.11335l.0864 22.21027 22.05034.0864c21.79961.0855 22.06057.094 22.9536.75542.4968.36794 1.10915 1.25137 1.36073 1.96316.39664 1.12212.39661 1.45405-.00022 2.49664-.25171.66136-.86403 1.50593-1.36074 1.87684-.89526.66852-1.0943.67512-22.95977.76081l-22.05671.0864v27.36385c0 29.59584.0385 28.91426-1.69942 30.05302-1.24435.81532-2.79315.91662-4.06058.26557zm70.56.24245c-.352-.14728-1-.65512-1.44-1.12855l-.8-.86077v-61.69613l1.04614-1.04616 1.04618-1.04615h50.21536l1.04618 1.04615 1.04614 1.04616v61.73538l-1.04605 1.04616-1.04608 1.04615-24.71392.0628c-13.59267.0345-25.00195-.0577-25.35395-.205zM634.24 144.16v-25.12h-38.72v50.24h38.72zm25.6 32.57531c-2.35917-1.21184-2.23894.41086-2.23949-30.22618v-27.41087l-3.3376-.10913c-3.87929-.12684-4.84237-.59829-5.59984-2.74128-.39664-1.12212-.39661-1.45405.00023-2.49664.7862-2.06573 1.77036-2.53512 5.57648-2.65967l3.31446-.10846.10314-4.58936c.11712-5.21186.42316-6.00175 2.65433-6.85094 1.04259-.39682 1.37453-.39685 2.49664-.00022 2.31002.8165 2.61703 1.58788 2.73565 6.8733l.10352 4.61148 22.37046.0863 22.37047.0863 1.04601 1.04615 1.04605 1.04616v7.33038c0 6.93482-.0361 7.37913-.66899 8.23384-.36794.49691-1.25136 1.10932-1.96317 1.36091-1.12211.39663-1.45405.3966-2.49664-.00022-2.21709-.84382-2.53699-1.65335-2.65539-6.7194l-.1047-4.45776H665.6v27.37028c0 29.60282.0386 28.92068-1.69942 30.05946-1.24436.81532-2.79316.91662-4.06058.26557zm70.4-.0126c-2.08413-1.04706-2.75114-3.72654-1.42973-5.74326 1.1217-1.71195.94263-1.69943 24.29946-1.69943H774.72V148.17281l-22.23395-.0864-22.23399-.0864-1.04601-1.04615-1.04605-1.04615V113.29232l1.04614-1.04615 1.04618-1.04616h24.93037c24.78902 0 24.93549.004 25.83385.66899.4969.36794 1.10932 1.25137 1.3609 1.96317.39664 1.12211.39661 1.45404-.00022 2.49664-.25172.66135-.86404 1.50593-1.36074 1.87683-.89526.66853-1.0943.67512-22.95978.76081L736 119.05289v21.09433l22.23395.0864 22.23399.0864 1.04601 1.04616 1.04605 1.04615V175.02772l-1.04605 1.04615-1.04608 1.04615-24.55392.0827c-22.88886.0771-24.62989.0445-25.67395-.48z"/><path fill="#6598cb" d="M18.88 144.16V18.88h922.56v250.56H18.88zm921.6 0V19.84H19.84v248.64h920.64zM168 223.77531c-.62742-.32228-1.36674-1.06789-1.68102-1.69531-.52902-1.0561-.5564-4.19136-.48-54.95387l.081-53.83387 1.04615-1.04613 1.04616-1.04613h50.5354l1.04616 1.04615 1.04615 1.04616v61.73538l-1.04604 1.04616-1.04604 1.04615-22.39396.0863-22.39396.0864v21.76393c0 23.52335.0134 23.33083-1.69942 24.45311-1.24435.81532-2.79315.91662-4.06058.26557zM212.8 144.16v-25.12h-39.04v50.24h39.04zm48.45439 32.51658c-.54209-.33056-1.20617-1.08602-1.47574-1.6788-.26957-.59278-5.72499-14.18178-12.12315-30.19778-8.29987-20.7764-11.62528-29.4558-11.60601-30.29196.0793-3.44327 4.67768-5.01223 6.79626-2.3189.33867.43055 5.04916 11.86812 10.46775 25.41684 5.41859 13.54871 9.93175 24.63213 10.02925 24.62982.0975-.002 4.63377-11.164 10.08062-24.80375 5.88559-14.73843 10.16976-25.04145 10.56-25.39581 1.55897-1.41564 2.78085-1.62898 4.54236-.79309 1.29276.61345 2.03427 1.87327 2.03427 3.45618 0 .74089-4.09122 11.36396-11.85889 30.79223-6.5224 16.31362-12.00599 29.93596-12.18576 30.27187-.39104.73066-2.14766 1.51704-3.38507 1.51537-.48966-.00064-1.33381-.27165-1.87589-.60222zm47.22561.0587c-2.35917-1.21184-2.23895.41086-2.2395-30.22618l-.0005-27.41087-3.33759-.10913c-3.87932-.12684-4.84238-.59829-5.59985-2.74128-.39663-1.12212-.3966-1.45405.00022-2.49664.78716-2.06821 1.76882-2.53508 5.5933-2.66016l3.33127-.10894.0863-22.36502.0863-22.36501 1.04615-1.04604 1.04616-1.04604h25.09038c24.95136 0 25.09539.0037 25.99385.66899.4969.36794 1.10932 1.25136 1.3609 1.96316.39664 1.12212.39661 1.45405-.00022 2.49664-.25172.66136-.86404 1.50593-1.36074 1.87684-.89542.66865-1.09152.6751-23.11978.76076L314.24 72.0128v39.01442l22.2167.0864c21.96848.0854 22.22679.0939 23.12.75538.4968.36794 1.10916 1.25137 1.36074 1.96316.39664 1.12212.39661 1.45405-.00022 2.49664-.25172.66136-.86404 1.50593-1.36074 1.87684-.89542.66865-1.09152.6751-23.11978.76076l-22.2167.0864v27.36388c0 29.59589.0385 28.91431-1.69942 30.05307-1.24435.81532-2.79315.91662-4.06058.26557zm70.56.24245c-.352-.14728-1-.65512-1.44-1.12855l-.8-.86077V142.41228l1.04605-1.04616 1.04601-1.04615 22.23399-.0864 22.23395-.0864v-21.09434l-22.0567-.0864c-21.80612-.0855-22.06695-.094-22.96-.75543-.4968-.36794-1.10916-1.25137-1.36074-1.96316-.39664-1.12212-.39661-1.45405.00022-2.49664.25172-.66136.86413-1.50593 1.3609-1.87684.90051-.67233.97878-.67437 25.83363-.67437h24.93037l1.04618 1.04615L431.2 113.2923V175.02769l-1.04605 1.04616-1.04608 1.04615-24.71392.0628c-13.59267.0345-25.00195-.0577-25.35395-.205zM423.36 158.72v-10.56h-38.72v21.12h38.72zm26.08 18.25777c-.352-.14728-1-.65513-1.44-1.12856l-.8-.86077v-61.69613l1.04614-1.04616 1.04618-1.04615h24.93037c24.78902 0 24.93549.004 25.83385.66899.4969.36794 1.10932 1.25137 1.3609 1.96316.39664 1.12212.39661 1.45405-.00022 2.49664-.25172.66136-.86404 1.50593-1.36074 1.87684-.89526.66852-1.0943.67512-22.95978.76081l-22.0567.0864V169.26713l22.0567.0864c21.86548.0857 22.06452.0923 22.95978.76081.4967.37091 1.10902 1.21548 1.36074 1.87684.39683 1.04259.39686 1.37452.00022 2.49664-.25158.71179-.86394 1.59522-1.36077 1.96316-.89613.66365-1.09926.66949-25.44.73177-13.49517.0345-24.82467-.0577-25.17667-.20501zm69.92-.24246c-2.35917-1.21184-2.23894.41086-2.23949-30.22618v-27.41087l-3.3376-.10913c-3.87929-.12684-4.84237-.59829-5.59984-2.74128-.39664-1.12212-.39661-1.45405.00023-2.49664.78716-2.0682 1.7688-2.53508 5.59324-2.66015l3.33124-.10895.0864-22.18775c.0854-21.93913.0939-22.19788.75536-23.09106.36794-.49681 1.25136-1.10915 1.96317-1.36074 1.12211-.39663 1.45405-.3966 2.49664.00022.66135.25171 1.50592.86405 1.87683 1.36074.66864.89542.67511 1.09164.76077 23.11335l.0864 22.21027 22.05034.0864c21.79961.0855 22.06057.094 22.9536.75542.4968.36794 1.10915 1.25137 1.36073 1.96316.39664 1.12212.39661 1.45405-.00022 2.49664-.25171.66136-.86403 1.50593-1.36074 1.87684-.89526.66852-1.0943.67512-22.95977.76081l-22.05671.0864v27.36385c0 29.59584.0385 28.91426-1.69942 30.05302-1.24435.81532-2.79315.91662-4.06058.26557zm70.56.24245c-.352-.14728-1-.65512-1.44-1.12855l-.8-.86077v-61.69613l1.04614-1.04616 1.04618-1.04615h50.21536l1.04618 1.04615 1.04614 1.04616v61.73538l-1.04605 1.04616-1.04608 1.04615-24.71392.0628c-13.59267.0345-25.00195-.0577-25.35395-.205zM634.24 144.16v-25.12h-38.72v50.24h38.72zm25.6 32.57531c-2.35917-1.21184-2.23894.41086-2.23949-30.22618v-27.41087l-3.3376-.10913c-3.87929-.12684-4.84237-.59829-5.59984-2.74128-.39664-1.12212-.39661-1.45405.00023-2.49664.7862-2.06573 1.77036-2.53512 5.57648-2.65967l3.31446-.10846.10314-4.58936c.11712-5.21186.42316-6.00175 2.65433-6.85094 1.04259-.39682 1.37453-.39685 2.49664-.00022 2.31002.8165 2.61703 1.58788 2.73565 6.8733l.10352 4.61148 22.37046.0863 22.37047.0863 1.04601 1.04615 1.04605 1.04616v7.33038c0 6.93482-.0361 7.37913-.66899 8.23384-.36794.49691-1.25136 1.10932-1.96317 1.36091-1.12211.39663-1.45405.3966-2.49664-.00022-2.21709-.84382-2.53699-1.65335-2.65539-6.7194l-.1047-4.45776H665.6v27.37028c0 29.60282.0386 28.92068-1.69942 30.05946-1.24436.81532-2.79316.91662-4.06058.26557zm70.4-.0126c-2.08413-1.04706-2.75114-3.72654-1.42973-5.74326 1.1217-1.71195.94263-1.69943 24.29946-1.69943H774.72V148.17281l-22.23395-.0864-22.23399-.0864-1.04601-1.04615-1.04605-1.04615V113.29232l1.04614-1.04615 1.04618-1.04616h24.93037c24.78902 0 24.93549.004 25.83385.66899.4969.36794 1.10932 1.25137 1.3609 1.96317.39664 1.12211.39661 1.45404-.00022 2.49664-.25172.66135-.86404 1.50593-1.36074 1.87683-.89526.66853-1.0943.67512-22.95978.76081L736 119.05289v21.09433l22.23395.0864 22.23399.0864 1.04601 1.04616 1.04605 1.04615V175.02772l-1.04605 1.04615-1.04608 1.04615-24.55392.0827c-22.88886.0771-24.62989.0445-25.67395-.48z"/><path fill="#000" d="M18.88 144.16V18.88h922.56v250.56H18.88zm921.6 0V19.84H19.84v248.64h920.64z"/></g></svg>