<svg xmlns="http://www.w3.org/2000/svg" role="img" viewBox="-5.69 -5.69 282.88 105.13"><title>PyBox logo</title><path d="M49.6 92.001l2-7.5a9.908 9.908 0 0 0 1.165.574q.823.344 1.835.626a13.514 13.514 0 0 0 2.279.417 17.358 17.358 0 0 0 1.721.083q4.2 0 7.5-2.7a12.003 12.003 0 0 0 1.933-2.062q1.748-2.311 3.408-6.163a58.58 58.58 0 0 0 .959-2.375l2.3-6h-4.8l-20.3-45.7 8-3.6 19.4 43.3 15.1-42.9 8.3 3.2-19.1 52.2a71.728 71.728 0 0 1-2.053 5.086q-1.102 2.439-2.269 4.428A30.86 30.86 0 0 1 75 85.901a24.268 24.268 0 0 1-2.878 3.21q-1.914 1.768-4.017 2.808a14.737 14.737 0 0 1-.605.282q-4.1 1.8-9.1 1.8-3 0-5.25-.6t-3.55-1.4zm222.1-26.1l-6.8 5.8-17.5-21.7-17.3 21.5-6.4-5.6 18.5-21.5-17.8-20.6 7-6.1 16.1 20.8 15.8-20.4 6.7 5.7-17.3 20.2 19 21.9zm-161.3 4.7v-69.6a100.907 100.907 0 0 1 1.856-.194q2.897-.277 6.72-.499a270.552 270.552 0 0 1 .124-.007 168.416 168.416 0 0 1 4.837-.205q2.471-.072 5.208-.089A285.352 285.352 0 0 1 131 .001q8.4 0 14.259 2.088a22.604 22.604 0 0 1 5.441 2.762 16.711 16.711 0 0 1 4.563 4.657q2.191 3.433 2.328 7.893a19.526 19.526 0 0 1 .009.6 17.052 17.052 0 0 1-.627 4.719 13.798 13.798 0 0 1-2.323 4.631q-2.95 3.85-8.55 6.35a30.217 30.217 0 0 1 4.636 2.06q3.477 1.933 5.664 4.59 3.5 4.25 3.5 10.45 0 9.314-7.21 14.928a22.979 22.979 0 0 1-.29.222 24.681 24.681 0 0 1-7.377 3.71q-6.044 1.94-14.423 1.94a221.836 221.836 0 0 1-8.08-.142 187.566 187.566 0 0 1-3.47-.158 227.449 227.449 0 0 1-2.584-.157q-2.807-.186-4.871-.406a65.535 65.535 0 0 1-1.195-.137zm-100.9.2H0v-69.8q4.1-.5 9.05-.75a200.806 200.806 0 0 1 8.93-.246A221.966 221.966 0 0 1 19.3.001q7.57 0 13.172 2.082a26.011 26.011 0 0 1 1.628.668 24.606 24.606 0 0 1 5.082 3.028 19.374 19.374 0 0 1 4.218 4.522q3.2 4.8 3.2 11a25.258 25.258 0 0 1-.708 6.122 19.268 19.268 0 0 1-2.992 6.578 22.312 22.312 0 0 1-7.551 6.629 28.065 28.065 0 0 1-2.749 1.321 34.774 34.774 0 0 1-8.089 2.223 47.194 47.194 0 0 1-7.211.527q-4.2 0-7.8-.3v26.4zm171.5-2.25a24.559 24.559 0 0 0 4.598 2.089q4.055 1.361 8.702 1.361 7.4 0 13.25-3.4t9.25-9.55a26.255 26.255 0 0 0 2.653-7.142 34.184 34.184 0 0 0 .747-7.308 34.542 34.542 0 0 0-.485-5.909 25.795 25.795 0 0 0-2.965-8.441q-3.45-6.05-9.3-9.35a24.848 24.848 0 0 0-4.641-2.027 27.738 27.738 0 0 0-8.509-1.273 31.325 31.325 0 0 0-1.58.039 26.169 26.169 0 0 0-11.62 3.261q-5.9 3.3-9.3 9.4a26.023 26.023 0 0 0-2.749 7.59 35.006 35.006 0 0 0-.651 6.91 34.82 34.82 0 0 0 .265 4.353 27.451 27.451 0 0 0 3.085 9.797q3.35 6.15 9.25 9.6zm13.3-4.55q7.9 0 12.3-5.35a18.802 18.802 0 0 0 3.819-8.09 27.105 27.105 0 0 0 .581-5.76q0-5.2-2.2-9.55a19.198 19.198 0 0 0-4.172-5.569 18.17 18.17 0 0 0-1.778-1.431q-3.75-2.65-8.55-2.65a19.249 19.249 0 0 0-5.226.671A14.037 14.037 0 0 0 182 30.801a17.878 17.878 0 0 0-3.674 7.373q-.726 2.933-.726 6.427 0 5.2 2.2 9.65a19.437 19.437 0 0 0 3.53 5.039 17.627 17.627 0 0 0 2.42 2.061q3.75 2.65 8.55 2.65zM9.5 8.401v27.9q1.1.137 2.531.251a96.255 96.255 0 0 0 1.369.099q2.3.15 5.1.15a31.831 31.831 0 0 0 5.38-.426q2.879-.494 5.183-1.564a15.221 15.221 0 0 0 3.237-2.01 12.896 12.896 0 0 0 4.855-9.443 17.32 17.32 0 0 0 .045-1.257 14.452 14.452 0 0 0-.761-4.794 12.136 12.136 0 0 0-3.939-5.506 15.462 15.462 0 0 0-5.081-2.664q-2.226-.71-4.919-.977a34.58 34.58 0 0 0-3.4-.159 131.125 131.125 0 0 0-3.258.039A109.939 109.939 0 0 0 14 8.101a91.274 91.274 0 0 0-2.883.164 75.041 75.041 0 0 0-1.617.136zm121.8 30h-11.4v24.7q5.3.6 11.4.6 8.9 0 13.9-3.2t5-9.3a11.728 11.728 0 0 0-.872-4.6q-1.102-2.613-3.595-4.488a14.027 14.027 0 0 0-.433-.312 16.7 16.7 0 0 0-4.674-2.202q-3.923-1.198-9.326-1.198zm-11.4-30.2v22.8h11q7.9 0 12.55-3.3t4.65-8.5a10.798 10.798 0 0 0-.674-3.9q-1.087-2.83-3.926-4.65a16.643 16.643 0 0 0-4.486-1.964q-3.489-.986-8.114-.986-3.3 0-6 .15t-5 .35z" vector-effect="non-scaling-stroke" fill="#000" fill-rule="evenodd" stroke="#000" stroke-linecap="round" stroke-width=".25mm"/></svg>