<svg xmlns="http://www.w3.org/2000/svg" role="img" viewBox="-7.73 -7.73 388.70 109.70"><title>PyCHAM logo</title><path d="M317.1 71.2h-9v-70h13.3l19.4 44.3 19.1-44.3h13.6v70H364V13.3l-18.7 42.1h-9.4l-18.8-42.1v57.9zm-137.8 0h-9.5v-70h9.5v29.9h34.5V1.2h9.5v70h-9.5V39.3h-34.5v31.9zM49.6 92.4l2-7.5a9.908 9.908 0 0 0 1.165.574q.823.345 1.835.626a13.514 13.514 0 0 0 2.279.418 17.358 17.358 0 0 0 1.721.082q4.2 0 7.5-2.7a12.003 12.003 0 0 0 1.933-2.061q1.748-2.311 3.408-6.164A58.58 58.58 0 0 0 72.4 73.3l2.3-6h-4.8L49.6 21.6l8-3.6L77 61.3l15.1-42.9 8.3 3.2-19.1 52.2a71.728 71.728 0 0 1-2.053 5.087q-1.102 2.439-2.269 4.427A30.86 30.86 0 0 1 75 86.3a24.268 24.268 0 0 1-2.878 3.211q-1.914 1.768-4.017 2.807a14.737 14.737 0 0 1-.605.282q-4.1 1.8-9.1 1.8-3 0-5.25-.6t-3.55-1.4zM155.3 3.6l-2.9 8q-3.1-1.5-6.35-2.4-2.793-.773-6.435-.882A40.705 40.705 0 0 0 138.4 8.3a21.173 21.173 0 0 0-7.905 1.455 19.981 19.981 0 0 0-3.545 1.845 21.167 21.167 0 0 0-6.366 6.581A26.978 26.978 0 0 0 119 21.1q-2.9 6.2-2.9 15 0 8.4 2.85 14.7a25.677 25.677 0 0 0 3.586 5.828 21.423 21.423 0 0 0 4.314 3.972 19.703 19.703 0 0 0 11.145 3.497 23.894 23.894 0 0 0 .405.003 33.715 33.715 0 0 0 3.971-.221q2.476-.294 4.529-.979 3.6-1.2 7-3.1l2.9 7.9a37.561 37.561 0 0 1-4.495 2.044 47.894 47.894 0 0 1-3.955 1.306 33.592 33.592 0 0 1-4.965.991q-2.482.314-5.279.354a57.414 57.414 0 0 1-.806.005 32.384 32.384 0 0 1-9.325-1.301 27.961 27.961 0 0 1-6.775-3.049 28.6 28.6 0 0 1-9.877-10.445 34.916 34.916 0 0 1-1.023-1.955 37.611 37.611 0 0 1-3.099-9.717q-.776-4.266-.8-9.119a62.816 62.816 0 0 1-.001-.314q0-10.7 3.95-18.95t11.2-12.9A29.371 29.371 0 0 1 134.23.239 37.292 37.292 0 0 1 138.5 0a45.639 45.639 0 0 1 5.058.268A35.2 35.2 0 0 1 147.6.95a38.224 38.224 0 0 1 7.475 2.545 35.605 35.605 0 0 1 .225.105zm142.8 65.1l-8.7 3.5-7.8-20h-32.4L241.4 72l-8.1-3.3 27.4-67.5h10.4l27 67.5zM9.5 71.2H0V1.4Q4.1.9 9.05.65a200.806 200.806 0 0 1 8.93-.246A221.966 221.966 0 0 1 19.3.4q7.57 0 13.172 2.082a26.011 26.011 0 0 1 1.628.668 24.606 24.606 0 0 1 5.082 3.029A19.374 19.374 0 0 1 43.4 10.7q3.2 4.8 3.2 11a25.258 25.258 0 0 1-.708 6.122A19.268 19.268 0 0 1 42.9 34.4a22.312 22.312 0 0 1-7.551 6.63 28.065 28.065 0 0 1-2.749 1.32 34.774 34.774 0 0 1-8.089 2.224 47.194 47.194 0 0 1-7.211.526q-4.2 0-7.8-.3v26.4zm0-62.4v27.9q1.1.138 2.531.252a96.255 96.255 0 0 0 1.369.098q2.3.15 5.1.15a31.831 31.831 0 0 0 5.38-.425q2.879-.495 5.183-1.564A15.221 15.221 0 0 0 32.3 33.2a12.896 12.896 0 0 0 4.855-9.442A17.32 17.32 0 0 0 37.2 22.5a14.452 14.452 0 0 0-.761-4.793A12.136 12.136 0 0 0 32.5 12.2a15.462 15.462 0 0 0-5.081-2.663q-2.226-.711-4.919-.977a34.58 34.58 0 0 0-3.4-.16 131.125 131.125 0 0 0-3.258.039A109.939 109.939 0 0 0 14 8.5a91.274 91.274 0 0 0-2.883.164A75.041 75.041 0 0 0 9.5 8.8zm255.9 1.8l-13.2 33.6h26.3l-13.1-33.6z" vector-effect="non-scaling-stroke" fill="#000" fill-rule="evenodd" stroke="#000" stroke-linecap="round" stroke-width=".25mm"/></svg>