<svg xmlns="http://www.w3.org/2000/svg" role="img" viewBox="-10.44 -9.94 516.88 383.88"><title>pyMETRIC logo</title><g transform="translate(-8.102 -146.782)"><g transform="translate(-22.888 -402.147) scale(1.9477)"><path d="M66.28708 449.65863q0 2.65625-.76172 4.86328-.76172 2.1875-2.14844 3.71094-1.28906 1.44531-3.04688 2.24609-1.73828.78125-3.6914.78125-1.69922 0-3.08594-.37109-1.36719-.37109-2.79297-1.15234v9.14062h-3.67187V439.0141h3.67187v2.28516q1.46485-1.23047 3.28125-2.05079 1.83594-.83984 3.90625-.83984 3.94531 0 6.13281 2.98828 2.20704 2.96875 2.20704 8.26172zm-3.78907.0977q0-3.94532-1.34765-5.89844-1.34766-1.95313-4.14063-1.95313-1.58203 0-3.1836.6836-1.60155.68359-3.0664 1.79687v12.36328q1.5625.70313 2.67578.95704 1.13281.2539 2.5586.2539 3.0664 0 4.78515-2.07031t1.71875-6.13281z"/><path d="M90.77926 439.0141L78.0449 468.87738H74.1191l4.0625-9.10156-8.69141-20.76172h3.98438l6.69921 16.17187 6.75782-16.17187z"/><path d="M121.77536 460.83051h-3.86719v-25.0586l-8.08594 17.05078h-2.30469l-8.02734-17.05078v25.0586h-3.61328v-29.08204h5.27344l7.7539 16.19141 7.5-16.19141h5.3711z"/><path d="M148.74801 460.83051h-19.16015v-29.08204h19.16015v3.4375h-15.29297v7.96875h15.29297v3.4375h-15.29297v10.80079h15.29297z"/><path d="M175.62301 435.18597h-10.39062v25.64454h-3.86719v-25.64454h-10.39062v-3.4375h24.64843z"/><path d="M203.59176 460.83051h-5.01953l-9.72656-11.5625h-5.44922v11.5625h-3.86719v-29.08204h8.14453q2.63672 0 4.39454.35157 1.75781.33203 3.16406 1.21093 1.58203.9961 2.46094 2.51954.89843 1.5039.89843 3.82812 0 3.14453-1.58203 5.27344-1.58203 2.10937-4.35547 3.18359zm-9.04297-20.89844q0-1.25-.44921-2.20703-.42969-.97657-1.44532-1.64063-.83984-.5664-1.99218-.78125-1.15235-.23437-2.71485-.23437h-4.55078v10.97656h3.90625q1.83594 0 3.20313-.3125 1.36718-.33203 2.32421-1.21094.87891-.82031 1.28907-1.875.42968-1.07422.42968-2.71484z"/><path d="M217.59567 460.83051h-11.48438v-2.96875h3.8086v-23.14454h-3.8086v-2.96875h11.48438v2.96875h-3.80859v23.14454h3.80859z"/><path d="M246.63864 458.72113q-1.07422.46875-1.95313.87891-.85937.41015-2.26562.85937-1.19141.3711-2.59766.625-1.38672.27344-3.0664.27344-3.16407 0-5.76172-.87891-2.57813-.89843-4.49219-2.79297-1.875-1.85546-2.92969-4.70703-1.05469-2.87109-1.05469-6.66015 0-3.59375 1.01563-6.42578 1.01562-2.83204 2.92969-4.78516 1.85547-1.89453 4.47265-2.89063 2.63672-.99609 5.83985-.99609 2.34375 0 4.66797.56641 2.34375.5664 5.19531 1.99218v4.58985h-.29297q-2.40234-2.01172-4.76563-2.92969-2.36328-.91797-5.05859-.91797-2.20703 0-3.98437.72266-1.75782.70312-3.14454 2.20703-1.34765 1.46484-2.10937 3.71094-.74219 2.22656-.74219 5.15625 0 3.0664.82031 5.27343.83985 2.20704 2.14844 3.59375 1.36719 1.44532 3.1836 2.14844 1.83593.6836 3.86718.6836 2.79297 0 5.23438-.95704 2.4414-.95703 4.57031-2.87109h.27344z"/></g><path fill="#d1d4d7" d="M256 257.47033V146.78907l23.25.48263c24.46926.50793 28.80546 1.16999 38.4136 5.865 6.50619 3.17924 14.54012 11.48712 17.82688 18.43476 7.65379 16.17879 10.8746 41.00284 10.88935 83.92854.0207 60.35934-5.63899 86.39711-22.04813 101.4331-10.66314 9.77084-13.2257 10.41626-43.0817 10.85091l-25.25.36759zm46.05984 81.99873c3.65763-1.89144 6.49225-6.75575 7.84894-13.46906 2.7744-13.72862 3.90046-70.4901 2.06524-104.10271-2.06148-37.75674-6.23637-48.50692-19.22402-49.50119l-3.75-.28708v170.14864l5.15638-.68402c2.83601-.37621 6.39257-1.32327 7.90346-2.10458zM363 257.42178V146.84356l29.75.39237c25.30646.33376 30.45119.65538 34.44453 2.15332 5.77203 2.16513 13.00662 8.39148 16.32029 14.04582 5.56645 9.49844 8.5547 30.87872 6.53981 46.79104-2.15423 17.01274-7.3027 28.1705-15.74405 34.12051l-4.28468 3.02012 3.62157 1.24504c4.32303 1.48619 10.82055 7.52678 13.32529 12.38822 4.00171 7.76689 4.35089 10.88945 4.9445 44.21636.65779 36.92991.35106 35.6087 8.47967 36.52491L465 342.2601V368h-8.3185c-19.26233 0-29.29879-7.614-34.27211-26-1.42452-5.26632-1.86746-12.38368-2.3338-37.5-.42855-23.08064-.91548-31.59642-1.90608-33.33466C416.23609 267.7727 411.04107 266 403.03212 266H396v102h-33zm47.61927-20.90797c3.68689-2.41574 5.31771-7.23429 6.6004-19.50196 1.28304-12.27099-.0316-31.23255-2.58985-37.35539C412.73473 175.12088 408.56713 173 401.54966 173H396v66.27778l6.03575-.54731c3.31966-.30101 7.18225-1.29851 8.58352-2.21666zM472 257.5V147h33v221h-33zM98.86393 363.44332c-25.27431-4.03681-48.04466-17.01544-64.77988-36.92318-9.9435-11.82852-19.98817-29.72166-18.64693-33.21687.29698-.77393.14313-1.16188-.3419-.86212-1.12056.69255-2.38635-4.16107-1.4713-5.64165.37742-.61068.2346-.8301-.31801-.48856C10.95937 287.76118 7.58274 263.7522 8.33977 251 11.38815 199.64989 47.90553 158.28241 98 149.43146c10.18911-1.80026 27.82228-1.72381 37.80563.16391 30.54724 5.77609 57.78345 24.79702 73.52018 51.34422 24.27709 40.95444 18.7317 94.06701-13.43493 128.67713-5.11253 5.50089-13.47302 13.18088-12.3406 11.33615.52234-.85092.11149-.62592-.91301.5S180.426 343.5 180 343.5c-.426 0-1.61277.92121-2.63727 2.04713-1.0245 1.12592-1.41273 1.35092-.86273.5.55-.85092-.67953-.10537-2.7323 1.65678-7.90598 6.7867-28.04796 14.32074-43.7677 16.37115-9.28271 1.21079-21.10138.971-31.13607-.63174zm71.3496-26.44178c-.27581-1.87925-.00212-3.00154.73199-3.00154.64488 0 .8944.45.55448 1-1.00599 1.62773.14174 1.13977 1.62756-.69196 1.1715-1.44423 1.16454-1.56663-.0475-.83595-1.07861.65023-1.2589.43633-.75-.88983.36847-.96021.66994-2.38403.66994-3.16405 0-.78001.47656-1.41821 1.05902-1.41821.58246 0 .78408.44485.44806.98855-.35034.56686.0511.7345.94098.39301.85357-.32755 1.55194-.79457 1.55194-1.03784 0-.97067-14.86858-7.37579-20.5-8.83103-3.3-.85277-11.24817-2.07884-17.6626-2.7246-13.94265-1.40365-24.16827-.43561-42.8374 4.05532-17.65448 4.24685-27.57088 5.47989-39.83411 4.95311-7.52883-.32341-9.63647-.19078-7.16589.45094 4.8679 1.26441 5.81742 2.48295 2.91952 3.74671-5.7216 2.49514 15.26747.044 26.81148-3.13111 10.41829-2.86548 13.26099-3.24057 24.769-3.26826 19.08088-.0459 33.33575 3.54129 52.77342 13.28027 9.35053 4.68496 11.49011 5.4163 12.80361 4.37647 1.03087-.81608 1.42447-2.28797 1.1365-4.25zm-2.78791 3.30427c.14577-.9932.59714-1.73081 1.00304-1.63914 1.51863.34295 1.57662 1.08406.1758 2.24664-1.17422.97451-1.39438.86105-1.17884-.6075zM52.25 328.33772c-.6875-.27741-1.8125-.27741-2.5 0s-.125.50439 1.25.50439 1.9375-.22698 1.25-.50439zm139.20681-4.78059c-.14748-1.34357-.62198-3.03107-1.05444-3.75-.64569-1.0734-.49967-1.07494.81664-.009 1.23553 1.00092 1.77336 1.0228 2.34647.0955.4449-.71986.32192-.94249-.30619-.5543-1.91826 1.18555-1.98997-1.79593-.11641-4.83975 1.01563-1.65 1.84896-2.53763 1.85186-1.97251.003.56513-.69526 2.02763-1.55144 3.25-.85619 1.22238-1.13579 2.22251-.62132 2.22251 1.26176 0 3.52629-5.62747 2.7621-6.86396-.33471-.54157.18444-1.17518 1.15368-1.40802 1.17513-.28231-.19983-1.32332-4.12704-3.12467-10.64986-4.88493-15.94278-5.83972-35.11072-6.33364-19.32745-.49804-17.08524-.80115-48 6.48875-5.00991 1.18136-11.69092 1.65374-23.5 1.66156-14.00282.009-17.78643-.3321-25-2.25555-10.16248-2.70976-26.45905-10.48783-33.79533-16.12992-3.52106-2.70793-4.93477-3.39876-4.21925-2.0618.7501 1.40157.76485 2.99767.0487 5.26895l-1.02735 3.2583.44087-3.5c.41767-3.31583.37949-3.36845-.72572-1-.64162 1.375-1.55303 2.77411-2.02535 3.10914-2.00173 1.41986 17.09699 11.93824 30.80343 16.9646 8.47472 3.10782 9.75872 3.29959 22 3.28591 13.39056-.015 14.02013-.1323 38-7.08172 7.55098-2.18829 26.8995-1.94842 38.5.47729 10.50139 2.19589 27.2408 8.45472 36.5 13.64728 3.3 1.85064 6.05062 3.41715 6.11249 3.48115.0619.064-.008-.98294-.15568-2.32652zm18.85983-45.34027c-.75338-.47909-1.05096-2.7254-.81897-6.18211.201-2.99505.004-4.84567-.44047-4.12731-.48893.79111-.75625-.11217-.68103-2.30118.0681-1.98191.46133-3.6041.87383-3.60486.4125-.00077.75-.6764.75-1.5014 0-.825-.5625-1.50689-1.25-1.51531-.87173-.0107-.81737-.2891.17965-.92005 1.47559-.93381 2.29955-5.06464 1.01022-5.06464-.39924 0-1.00934-.73865-1.35577-1.64144-.48622-1.26707-.33103-1.39342.68044-.55397 1.05714.87734 1.27779-.0132 1.14193-4.60856-.0926-3.13282-.2564-5.69603-.36395-5.69603-.81438 0-.63846-3.63169.20106-4.15054.65118-.40245.77027-.18088.30629.56986-.5519.89298-.17585.86691 1.37738-.0955 2.11257-1.30897 2.10533-1.33091-.64536-1.95551-1.53004-.34742-6.42241-.68492-10.87193-.75-11.81498-.17279-21.53838 2.62178-33.07513 9.506-19.68677 11.74752-26.28799 12.8588-38.41888 6.4676-16.30546-8.59059-37.60794-9.35539-68.91595-2.47421-11.55004 2.53859-32.6874 9.10673-37.614 11.68804-2.21207 1.15902-2.36768 1.48731-.96083 2.02717 1.16025.44523 1.45873.26166.96644-.59436-.41317-.71846-.33-.88862.19807-.40522 1.23135 1.12722 1.20429 3.00526-.05622 3.90136-.65906.46852-.56786.74023.25172.75 1.0212.0122 1.03893.47746.08628 2.26531-1.09257 2.05044-1.04931 2.12659.4877.85856 1.47226-1.2146 1.60656-1.18282 1.05674.25-.34643.90279-1.14424 1.67307-1.7729 1.71173-.62865.03865-.243.45702.857.92971 1.93796.83277 1.93978.86161.05887.92971-1.9215.0696-1.9215.0862 0 1.64445 1.06762.86578 1.49113 1.37209.94113 1.12513-.55-.24696-1.9-.087-3 .35556-1.16498.46866 4.26264.87524 13 .97383 8.25.0931 41.1.72922 73 1.41364 70.78394 1.51867 104.38486 1.77179 102.81664.77454zm-2.77393-4.14776c-.31644-.512-.19299-1.1672.27431-1.45601.46731-.28881.84965.13009.84965.9309 0 1.68617-.31534 1.83349-1.12396.52511zm-60.69928-54.81631c3.47507-9.00063 3.71618-8.40315-6.20182-15.36829-12.7198-8.93277-24.18874-11.81705-47.36936-11.91274-16.43386-.0678-19.5677.31611-35.88989 4.39717-5.4353 1.35899-13.47248 3.03523-17.8604 3.72497-4.38793.68974-7.42262 1.43921-6.74377 1.6655.67885.22628.97991.82299.66902 1.32601-.79 1.27825-.53148 1.23598 10.8686-1.77732 28.06188-7.41739 62.59523.27021 90.68419 20.18755 4.125 2.92496 7.80427 5.36001 8.17614 5.41123.37188.0512 2.02216-3.39311 3.66729-7.65408zm24.45913-17.19721c3.29949-8.57312 3.42962-8.29274-7.22899-15.57545-12.98373-8.87139-26.78832-11.91896-50.98044-11.25469-13.6444.37465-17.40525.87548-30.09313 4.00743-17.30278 4.27111-22.41586 5.00824-34.80322 5.01742-5.48716.004-8.83638.3569-8.04768.84782 1.13426.70602 1.13372 1.19109-.0033 3.02473-1.35186 2.18002-1.34306 2.18271 5 1.52987 3.49479-.3597 12.8792-2.28414 20.8542-4.27655 14.21806-3.55211 14.78194-3.61172 29-3.06598 14.78709.56759 22.11463 1.96998 34.49383 6.60163 8.74088 3.27038 22.212 10.43421 30.10416 16.00915 3.79611 2.68153 7.35201 4.77224 7.90201 4.64604.55-.12621 2.26115-3.50635 3.80256-7.51142z"/><path fill="#9fa7b2" d="M256.24562 257.75L256.5 147.5l22 .12559c17.23206.0984 23.40871.4958 28.5 1.8338 21.99297 5.77981 31.52006 19.87642 36.52293 54.04061 3.4696 23.69364 3.49128 80.95058.04 105.7646-4.08315 29.35746-12.94836 46.39753-27.95797 53.73884C306.85559 367.28284 301.36611 368 277.35913 368h-21.3679zm47.338 81.18718c7.25257-6.76972 8.44622-15.25555 9.13426-64.93718.72703-52.4974-1.23976-80.34872-6.51644-92.27751C303.42859 175.454 298.88904 172 293.42327 172H289v170.24038l5.9863-.43301c4.58142-.33139 6.59907-1.00498 8.59732-2.87019zM363 257.39078V146.78156l29.25.48617c17.83823.29649 30.68469.93483 32.92731 1.63615 10.28577 3.21662 18.13216 11.91275 22.08286 24.47436 1.97305 6.2735 2.23983 9.2657 2.23983 25.12176 0 19.44651-.72606 23.8148-5.56812 33.5-2.72526 5.45113-7.36734 10.92105-11.65892 13.73808-2.1899 1.43747-2.13998 1.50606 2.99313 4.11189 6.0852 3.08916 10.58573 8.57913 13.82772 16.86772 2.13806 5.46626 2.29296 7.60421 2.83393 39.11445.5405 31.48249.67998 33.41082 2.51339 34.75 1.06762.77982 2.53012 1.47411 3.25 1.54286.71988.0688 1.75887.2375 2.30887.375.55.1375 1.9.30625 3 .375 1.88771.11798 2 .83333 2 12.74131v12.6163l-9.75-.43253c-12.30041-.54569-18.48024-3.03782-24.70713-9.96362-8.31545-9.24879-10.49633-22.01841-10.5266-61.63612C419.99428 267.4117 419.23521 266 403.77749 266H395v102h-32zm49.06806-22.14092c4.55353-5.09629 5.41035-9.83129 5.38337-29.74986-.0269-19.86625-.90219-24.73455-5.34009-29.70142-2.5949-2.90419-3.27482-3.12924-9.70091-3.21083L395.5 172.5l-.26362 33.36362-.26362 33.36361 7.13077-.40292c6.51043-.36787 7.3773-.67883 9.96453-3.57445zM472 257.47523V146.95046l16.25.27477 16.25.27477.25438 110.25.25439 110.25H472zM108 364.34889c-14.57803-2.07123-18.51647-2.86069-24.9871-5.0086-9.0926-3.01828-21.74506-9.27973-28.5129-14.11046-7.143-5.09852-14.49993-11.56013-14.49365-12.72983.0033-.60585 4.63433-1.02586 11.74951-1.06562 10.05777-.0562 13.61084-.55876 24.74414-3.5 12.18661-3.2195 13.9698-3.43207 28.5-3.39747 13.75947.0328 16.62186.3461 25.49055 2.7903 11.75322 3.23919 24.34155 8.6255 35.64239 15.25073 7.53525 4.41761 7.98687 4.86408 6.24486 6.17375-6.74671 5.0723-25.32236 12.22802-36.8778 14.20609-6.48395 1.10992-23.44151 1.96774-27.5 1.39111zm74.63988-31.79471c-18.00409-16.13732-51.6291-20.85516-86.40856-12.12375-19.22728 4.82703-31.51537 6.09668-45.1121 4.66117-9.14421-.96542-20.81397-3.28111-21.5606-4.27837-4.5755-6.11142-12.41159-20.46793-14.05315-25.74677-.74843-2.40677-.71412-2.40043 3.11889.57613 9.12028 7.08243 23.45616 14.39313 36.1374 18.42856 5.249 1.67034 9.1694 2.13522 17.73824 2.10341 10.93346-.0406 17.76826-1.35633 35.5-6.83394 4.18268-1.29209 9.21246-1.6961 21-1.68678 13.60372.0107 16.67527.33356 25.10658 2.63869 11.28727 3.08595 24.56976 8.67813 34.79109 14.64771l7.30596 4.2669-3.80477 3.89643c-2.09261 2.14304-4.05093 3.87626-4.35181 3.85162-.30088-.0247-2.7341-2.0051-5.40717-4.40101zm23.39133-17.20694c-.0494-1.82301-10.88127-8.54104-17.84943-11.07035-8.9841-3.26105-21.80898-5.10963-35.18178-5.0711-11.82935.0341-18.9652 1.1619-40 6.32199-10.14108 2.48773-13.33159 2.81831-27 2.79754-12.5646-.0191-16.95572-.42008-23.18674-2.11735-17.10752-4.65991-30.19966-11.47024-41.28667-21.47667-5.81543-5.24864-10.7046-11.19541-7.65458-9.3104.58935.36424 34.04675 1.30826 74.34977 2.09782 120.03995 2.35166 132.60297 2.46 133.18277 1.14857 1.10756-2.50512-.68937 5.17251-2.65239 11.33271-3.33487 10.46526-12.62281 28.97203-12.72095 25.34724zM9.15789 270c0-1.375.22698-1.9375.5044-1.25.2774.6875.2774 1.8125 0 2.5-.27742.6875-.5044.125-.5044-1.25zm214-4c0-1.375.22698-1.9375.50439-1.25.27741.6875.27741 1.8125 0 2.5s-.50439.125-.50439-1.25zm-214.7295-4.53004C6.87657 253.19804 11.08396 228.40148 16.14357 216c3.8415-9.41581 3.96237-9.5171 13.00946-10.90205 4.48215-.68614 10.89383-2.15066 14.24817-3.2545 7.78315-2.56125 29.27247-3.61571 39.21521-1.92425 17.08387 2.9063 34.20315 9.88187 50.57046 20.60587 5.54518 3.63325 10.40801 6.23894 10.8063 5.79042.39828-.44852 1.93103-3.96549 3.4061-7.81549l2.68196-7-5.0286-4.67482c-6.34068-5.89458-16.79623-11.1614-26.79905-13.49959-5.96252-1.39376-11.91153-1.81395-25.75358-1.81901-16.48682-.006-18.92472.23038-29 2.81219-13.3459 3.4199-24.14458 5.57613-31.5 6.28974-3.025.29348-6.0625.71251-6.75.93116-2.16268.68783-1.32246-1.87338 2.18026-6.64602l3.38067-4.60634 11.34454-.56124c6.88295-.34052 14.29413-1.39155 18.84453-2.67249 13.83746-3.89524 20.44504-5.01875 29.61901-5.03622 22.60161-.043 45.7104 7.58328 67.86668 22.39722l9.5665 6.39628 1.30693-3.15543c.71881-1.73549 2.14535-5.36401 3.17009-8.06339l1.86316-4.90796-5.19964-4.78108c-6.26436-5.7601-14.91423-10.14768-25.69273-13.03245-10.68505-2.85975-39.15582-3.21051-50-.61599-26.39285 6.31459-29.50501 6.85608-42.75 7.43806-9.36537.41151-13.75.26752-13.75-.45156 0-2.72143 17.22723-16.31614 28.05971-22.14306C82.04348 151.96224 96.21155 148.54444 117 148.56832c15.83697.0182 22.96896 1.25164 37.13898 6.42306 32.27066 11.77733 57.43007 39.80443 66.43616 74.00862 1.23094 4.675 2.14829 8.59432 2.03855 8.70959-.10974.11527-2.94291-.64425-6.29592-1.68782-11.35181-3.53308-21.23104-3.56842-33.91049-.1213-2.14901.58424-9.5297 4.25811-16.40155 8.16416-13.4477 7.64385-21.99273 10.53522-27.87622 9.43244-1.99623-.37417-6.32951-2.17699-9.62951-4.00626-7.07233-3.92038-11.73284-5.26279-22.55699-6.49731-14.56126-1.66075-39.37294 1.65072-61.44301 8.20042-10.37422 3.07875-31.28885 11.25222-32.95 12.87692-1.68063 1.64376-2.44475 1.0071-3.12161-2.60088z"/><path fill="#7d8a9a" d="M257 258V148l20.75.0174c23.61274.0198 31.00262 1.13452 40.2719 6.075 14.51008 7.73379 21.35622 21.67649 25.72966 52.40045 2.51262 17.65154 2.47129 82.6344-.0639 100.50719-4.62233 32.58648-12.859 48.53902-28.91237 55.99661-8.63987 4.01365-16.14622 4.98705-38.52526 4.99584L257 368zm45.24069 82.29144c4.14273-2.41948 7.45731-9.08337 8.84936-17.79144.62726-3.92381 1.34224-25.8552 1.62698-49.90584.70134-59.23861-1.03743-80.99244-7.42202-92.85727-3.18142-5.91221-5.9717-7.70108-12.04501-7.72215L289 172v171.22645l5.0343-.54121c2.76887-.29766 6.46174-1.37487 8.20639-2.3938zM363 258V148h28.3185c23.08119 0 29.31782.29677 33.72192 1.60464C442.207 154.70257 450.03249 170.21571 449.95756 199c-.0611 23.47592-5.68819 38.38596-17.23878 45.67753l-3.94703 2.49164 4.90223 2.27124c6.90026 3.19694 12.8621 10.31777 15.33111 18.3115C450.79155 273.53578 451 277.05895 451 301.46885c0 27.15815.82745 36.78717 3.38062 39.34034.73932.73932 3.20613 1.59395 5.4818 1.89918l4.13758.55497v25.0327l-8.75-.59371c-14.98171-1.01656-23.025-5.36096-28.47939-15.38247-4.50864-8.28385-4.98752-12.12791-5.64585-45.31986-.55679-28.07288-.82983-31.91278-2.5096-35.29405-2.68822-5.41118-6.09447-6.84872-15.39578-6.49746L395.5 265.5l-.25908 51.25-.25908 51.25H363zm48.89725-21.89001c4.20877-4.5055 5.27237-9.30221 5.82623-26.27571.75143-23.0283-1.63795-33.65176-8.24597-36.66257-1.41439-.64444-5.25044-1.17171-8.52456-1.17171H395v67h7.09879c6.53808 0 7.31203-.22827 9.79846-2.89001zm60.76942 131.22334c-.36667-.36666-.66667-49.86666-.66667-110V148h32v220h-15.33333c-8.43334 0-15.63334-.3-16-.66667zM98.0283 362.9165c-18.92005-3.33283-39.78474-13.54055-53.5283-26.18787l-5-4.60118 10.05418-.0146c10.23683-.0148 19.40631-1.48926 31.94582-5.13678 20.52499-5.97036 48.73344-2.34459 72 9.25452 9.85507 4.91306 19.5 10.66887 19.5 11.63704 0 1.88872-19.28394 10.26713-30.5 13.2515-9.14933 2.43446-34.93805 3.47672-44.4717 1.79734zM183 332.2802c-7.43827-5.96122-17.49277-10.94662-27.33488-13.55366-6.94777-1.84037-10.92331-2.16555-26.66512-2.18112-16.92203-.0167-19.37181.21135-28.72106 2.67412C83.37046 323.67355 74.46667 325 61.4775 325c-11.58855 0-23.70754-1.57228-29.58896-3.83878-2.85858-1.1016-9.63777-11.08414-13.57832-19.99444-2.55795-5.78396-2.40987-7.46208.43365-4.91447 3.22195 2.88665 16.65511 10.34047 25.29812 14.03746 19.76056 8.45245 35.5924 8.45804 61.45801.0217 6.94467-2.26507 9.78088-2.61877 21.5-2.68121 14.63829-.078 24.80219 1.57206 37.5 6.08794 8.04974 2.86283 27.95299 12.91775 29.67337 14.99068.92076 1.10945.45628 2.07423-2.25701 4.68804L188.5 336.68805zm17.2889-21.86899c-11.67407-7.96629-24.11272-11.0312-45.7889-11.28248-10.59027-.12276-15.13169.31707-24.5 2.37282-6.325 1.38794-15.6387 3.42227-20.69711 4.52072-27.96917 6.07364-57.60787.63944-78.7338-14.43571C24.24238 287.0719 14 277.74785 14 276.50303c0-.37278 3.0375-.42781 6.75-.12229s25.875.81524 49.25 1.13271c23.375.31747 47.45.7637 53.5.99163 6.05.22792 30.35.70869 54 1.06838 23.65.35969 43.18654.82685 43.41454 1.03813 1.53201 1.41972-9.13777 27.97353-13.04429 32.46322-1.22666 1.40978-2.02114 1.13065-7.58135-2.6636zM9.25767 251.25c.57193-13.9396 2.29478-22.5609 6.88937-34.47506C19.70083 207.55965 21.04936 206 25.46346 206c1.82634 0 8.6567-1.40785 15.17857-3.12856 32.00437-8.44393 62.61135-2.21782 94.49836 19.22296l8.70463 5.85298 3.04548-7.97531c1.67502-4.38642 2.80323-8.53708 2.50714-9.22369-1.03413-2.39807-10.50581-9.48309-16.74339-12.52441-10.82218-5.27669-16.52273-6.36759-36.15425-6.91873l-18-.50534-17.9438 4.11409c-9.86908 2.26275-20.44408 4.35837-23.5 4.65693-3.0559.29856-7.26291.7317-9.3489.96253l-3.79269.41968 1.64965-2.79262c4.36993-7.39772 4.48278-7.46022 14.0622-7.78867 9.20631-.31566 19.21154-2.12644 30.3675-5.49602 24.71439-7.4648 58.15114-.0344 88.07577 19.5725l10.00091 6.55269 1.91385-4.46483c1.05262-2.45565 2.46721-6.31178 3.14354-8.56918l1.2297-4.10436-4.42886-3.91916c-6.11692-5.41295-18.34377-11.43616-27.64199-13.61707-6.06572-1.42271-11.76548-1.81826-25.78688-1.78953-16.22088.0332-18.9884.29885-28 2.68726-18.78367 4.97838-41.6377 7.87061-48.32094 6.11513-2.27942-.59873-2.25258-.68051 1.5-4.57089 8.48283-8.79431 21.15686-17.13486 33.75578-22.21405 53.24089-21.46379 112.50227 1.28262 137.56972 52.80365 4.43855 9.12254 9.97909 25.9917 8.89336 27.07743-.23468.23468-3.57022-.46884-7.41231-1.56338-5.40458-1.53966-9.02255-1.89314-15.98561-1.56178-12.93004.6153-18.0937 2.11113-28.64197 8.29713-14.49235 8.49899-19.65617 10.6687-26.58716 11.17127-5.71809.41463-6.91706.1156-14.61442-3.64496-4.6119-2.25316-10.8088-4.66104-13.77087-5.35085-7.72314-1.79859-31.36827-1.45485-42.88558.62343-19.86076 3.58385-42.95968 10.5498-55.35262 16.69271C13.42843 262.69454 10.3312 264 9.76465 264c-.6803 0-.85246-4.3297-.50698-12.75z"/><path fill="#6d7a8c" d="M257 258V148l20.75.0174c23.61274.0198 31.00262 1.13452 40.2719 6.075 14.51008 7.73379 21.35622 21.67649 25.72966 52.40045 2.51262 17.65154 2.47129 82.6344-.0639 100.50719-4.62233 32.58648-12.859 48.53902-28.91237 55.99661-8.63987 4.01365-16.14622 4.98705-38.52526 4.99584L257 368zm45.24069 82.29144c4.14273-2.41948 7.45731-9.08337 8.84936-17.79144.62726-3.92381 1.34224-25.8552 1.62698-49.90584.70134-59.23861-1.03743-80.99244-7.42202-92.85727-3.18142-5.91221-5.9717-7.70108-12.04501-7.72215L289 172v171.22645l5.0343-.54121c2.76887-.29766 6.46174-1.37487 8.20639-2.3938zM363 258V148h28.3185c23.08119 0 29.31782.29677 33.72192 1.60464C442.207 154.70257 450.03249 170.21571 449.95756 199c-.0611 23.47592-5.68819 38.38596-17.23878 45.67753l-3.94703 2.49164 4.90223 2.27124c6.90026 3.19694 12.8621 10.31777 15.33111 18.3115C450.79155 273.53578 451 277.05895 451 301.46885c0 27.15815.82745 36.78717 3.38062 39.34034.73932.73932 3.20613 1.59395 5.4818 1.89918l4.13758.55497v25.0327l-8.75-.59371c-14.98171-1.01656-23.025-5.36096-28.47939-15.38247-4.50864-8.28385-4.98752-12.12791-5.64585-45.31986-.55679-28.07288-.82983-31.91278-2.5096-35.29405-2.68822-5.41118-6.09447-6.84872-15.39578-6.49746L395.5 265.5l-.25908 51.25-.25908 51.25H363zm48.89725-21.89001c4.20877-4.5055 5.27237-9.30221 5.82623-26.27571.75143-23.0283-1.63795-33.65176-8.24597-36.66257-1.41439-.64444-5.25044-1.17171-8.52456-1.17171H395v67h7.09879c6.53808 0 7.31203-.22827 9.79846-2.89001zm60.76942 131.22334c-.36667-.36666-.66667-49.86666-.66667-110V148h32v220h-15.33333c-8.43334 0-15.63334-.3-16-.66667zM98.0283 362.9165c-18.7815-3.30842-39.6113-13.45651-53.37047-26.00159L39.81566 332.5l10.84217-.11255c9.11204-.0946 13.23578-.73123 25.84217-3.98965 13.76566-3.55807 16.06976-3.8735 28-3.8332 10.87883.0367 14.79484.50255 24 2.85482 6.05 1.546 14.825 4.46059 19.5 6.47687 8.53749 3.68214 25 12.9602 25 14.08968 0 1.78371-19.65777 10.24828-30.5 13.13319-9.14933 2.43446-34.93805 3.47672-44.4717 1.79734zm85.1993-30.86326c-5.14609-4.65506-18.47477-11.36604-26.7276-13.45732-18.72707-4.74548-36.05982-4.33378-61.08116 1.45082-26.01047 6.01329-44.35881 6.4269-61.34402 1.38284-4.4324-1.31628-5.32901-2.11594-9.14202-8.15341-4.20314-6.6552-9.32931-17.21299-8.67513-17.86717.18832-.18832 2.48974 1.1843 5.11427 3.05027 6.84248 4.86483 18.7193 10.82856 29.12806 14.62614 8.41016 3.0684 9.85199 3.28623 22 3.32372 12.05153.0372 13.95444-.23096 26.08184-3.67544 19.69726-5.59452 29.58665-6.37776 46.90948-3.71524 12.87677 1.97917 38.89662 12.39067 47.50868 19.00997l2.5 1.92153-3.19577 3.02502c-1.75767 1.66377-3.55767 3.00657-4 2.98402-.44232-.0226-2.72681-1.78015-5.07663-3.90575zM203 311.86141c-4.54808-3.91713-10.81102-7.0911-19.5-9.8823-5.90721-1.89759-9.8881-2.31965-25.5-2.70354-16.41483-.40363-19.57076-.21067-28 1.71193-32.07876 7.31676-44.13086 8.51766-59.86305 5.9649-10.13513-1.64456-23.94741-6.52549-33.01682-11.66736C26.63528 289.34069 10.2177 274.5338 16.25 276.46241c1.21576.3887 22.06643.85333 96.25 2.14479 19.8.34469 39.825.75767 44.5.91772 4.675.16005 20.425.33931 35 .39835 14.575.0591 27.12138.50091 27.88085.98193 1.82577 1.15637-1.21624 11.35773-6.73768 22.5948-5.86425 11.93473-5.9307 11.9895-10.14317 8.36141zM9.30353 250.74749c.64275-14.50667 2.67804-24.03803 7.71831-36.14532l3.09326-7.43032 5.19245-.70492C28.1634 206.07923 35.675 204.4753 42 202.90265c15.2272-3.78611 25.85-4.49188 38.5-2.55791 18.93523 2.89488 35.44141 9.43497 52.5079 20.8047 5.22066 3.47801 9.86292 6.32971 10.31615 6.33711.85541.014 6.66581-14.07741 6.67228-16.18161.005-1.64199-10.36444-9.95193-15.93417-12.7694-18.28303-9.24853-46.2894-10.81963-72.8629-4.08746C44.29304 198.73112 25 201.41221 25 199.47856c0-.28679 1.14074-2.24521 2.53497-4.35203l2.53496-3.8306 10.71504-.58763c6.90934-.37893 14.26676-1.55343 20.71503-3.30684 19.50169-5.30289 32.57908-6.05901 49-2.83314 16.17935 3.17841 33.97602 10.8518 48.82973 21.05391 4.30635 2.95778 8.14206 5.37777 8.52379 5.37777.84642 0 6.14648-14.02424 6.14648-16.26392 0-4.02752-16.6791-14.57139-28.26675-17.86913-7.40098-2.10626-10.25499-2.34249-28.23325-2.33691-19.88817.006-20.08387.0276-35 3.82978-13.0877 3.33611-16.9123 3.88885-30 4.3356l-15 .51203 4-4.20016c8.50596-8.93159 21.15506-17.30086 33.93484-22.45296 45.7117-18.42844 97.23654-4.31585 126.62201 34.6816 7.10254 9.42579 15.03634 25.26948 17.89894 35.74397 2.53966 9.2928 2.5759 10.46121.29421 9.4865-8.94739-3.82223-23.89731-4.62801-35.05113-1.88921-4.26288 1.04675-10.78333 4.00066-17.93098 8.12313-20.68033 11.92758-26.16384 12.81293-38.64166 6.23895-9.56267-5.03813-18.08239-6.90122-31.62623-6.91601-22.54796-.0246-51.2003 6.43525-77.59869 17.4952l-10.68475 4.47651z"/><path fill="#5b6c81" d="M257 257.42903V147.85805l20.21205.23753c22.22886.26124 29.3435 1.30734 39.01571 5.73668 12.09771 5.54009 19.08697 15.07009 23.33556 31.81852 4.76539 18.7857 5.82853 31.7089 5.82853 70.84922 0 36.97173-1.03182 51.19963-4.93294 68.02095-4.48428 19.33581-12.55777 31.46533-25.17301 37.81963C307.61034 366.20677 301.33942 367 278.45078 367H257zm46.01581 82.55971c7.21805-5.1397 8.65836-12.38447 10.03746-50.48874 1.54575-42.70836-.20802-84.96521-4.16904-100.45264-3.22634-12.6149-9.05084-18.64807-17.23565-17.85315L288.5 171.5l-.25821 84.5c-.14202 46.475-.0199 85.12446.27145 85.88769.79952 2.09471 10.71783.79602 14.50257-1.89895zM363 257.47213V147.94426l26.79111.0872c14.73512.048 28.79762.51702 31.25 1.04231 18.96822 4.06291 27.1387 16.61995 28.6195 43.98473 1.34709 24.89388-4.7043 43.8047-16.25935 50.8111-5.24077 3.17774-5.5191 4.69808-1.01476 5.5431 5.13135.96265 11.82731 7.47282 15.20081 14.77905L450.5 270.5l.5 33.04698c.59273 39.17567.31969 38.14396 10.5 39.67616 1.85178.27871 2.02095 1.17961 2.28275 12.15656l.28276 11.85555-9.78276-.46309c-11.26708-.53335-16.61308-2.48404-22.62758-8.25654-8.57619-8.23113-10.57038-18.3684-10.62586-54.01562-.0426-27.36815-.57915-31.70167-4.4881-36.24835-2.22562-2.58871-2.93342-2.77217-11.95345-3.09818L395 264.80694V367h-32zm48.42614-20.40274C416.56796 232.2389 417.5 227.39455 417.5 205.5c0-28.86315-2.16407-33.5-15.63486-33.5H395v68.22569l6.9513-.39278c5.60666-.3168 7.43945-.85138 9.47484-2.76352zM473 257.5V148h31v219h-31zM98.5 362.32628c-20.15733-3.43165-38.55384-12.35159-54.74441-26.54399L40.01118 332.5l10.7444-.11255c8.99719-.0942 13.18368-.74303 25.74442-3.98965 13.76566-3.55807 16.06976-3.8735 28-3.8332 10.87883.0367 14.79484.50255 24 2.85482 6.05 1.546 14.825 4.46059 19.5 6.47687 10.41469 4.49176 25.28654 13.22101 24.25582 14.23732-.4157.40989-4.35582 2.53111-8.75582 4.71381-19.71689 9.78092-43.15171 13.19839-65 9.47886zm84.7276-30.27304c-5.14609-4.65506-18.47477-11.36604-26.7276-13.45732-18.87684-4.78343-36.16257-4.34644-61.08188 1.54417C78.5081 324.13741 76.62795 324.37921 62 324.43786c-18.44114.0739-29.75745-1.99408-33.6-6.14027-2.42425-2.6158-12.8566-22.17433-12.18553-22.84539.21208-.21208 2.53294 1.1411 5.15747 3.00707 6.84248 4.86483 18.7193 10.82856 29.12806 14.62614 8.41016 3.0684 9.85199 3.28623 22 3.32372 12.05153.0372 13.95444-.23096 26.08184-3.67544 15.36412-4.3638 22.39498-5.4613 32.50473-5.07389 19.74139.75649 38.49071 6.62523 58.77708 18.39783l5.36365 3.11264-3.30982 3.41487c-1.8204 1.87817-3.55904 3.3964-3.86365 3.37385-.30461-.0226-2.47641-1.78015-4.82623-3.90575zM203 311.84123c-4.56689-3.90701-10.84324-7.08127-19.5-9.86212-5.90721-1.89759-9.8881-2.31965-25.5-2.70354-16.41483-.40363-19.57076-.21067-28 1.71193-32.07876 7.31676-44.13086 8.51766-59.86305 5.9649-10.13513-1.64456-23.94741-6.52549-33.01682-11.66736C26.63528 289.34069 10.2177 274.5338 16.25 276.46241c1.21576.3887 22.06643.85333 96.25 2.14479 19.8.34469 39.825.75767 44.5.91772 4.675.16005 20.425.33931 35 .39835 14.575.0591 27.07907.47477 27.78683.92382 1.01774.64574.76169 2.47227-1.22447 8.73469-2.21648 6.98864-9.52044 22.76992-11.37898 24.58597-.37586.36727-2.25838-.67967-4.18338-2.32652zM9.27997 251.24829c.6169-13.86477 2.5547-22.8699 7.75097-36.01957l3.1895-8.07136 5.13978-.69767C28.1871 206.07597 35.675 204.4753 42 202.90265c15.2272-3.78611 25.85-4.49188 38.5-2.55791 18.93523 2.89488 35.44141 9.43497 52.5079 20.8047 5.22066 3.47801 9.86292 6.32971 10.31615 6.33711.85541.014 6.66581-14.07741 6.67228-16.18161.005-1.64199-10.36444-9.95193-15.93417-12.7694-7.90126-3.99688-18.031-6.54996-30.74034-7.74773-14.7217-1.38743-25.79172-.35283-44.12443 4.12385-14.11859 3.44764-26.34876 5.39244-30.93471 4.91916L25.05722 199.5l2.65164-4.1097 2.65164-4.10969 10.56975-.57998c6.76163-.37102 14.1726-1.55966 20.56975-3.29917 19.50169-5.30289 32.57908-6.05901 49-2.83314 16.17935 3.17841 33.97602 10.8518 48.82973 21.05391 4.30635 2.95778 8.14206 5.37777 8.52379 5.37777.84642 0 6.14648-14.02424 6.14648-16.26392 0-4.02752-16.6791-14.57139-28.26675-17.86913-7.40098-2.10626-10.25499-2.34249-28.23325-2.33691-19.88817.006-20.08387.0276-35 3.82978-13.23207 3.37291-16.76793 3.87634-30 4.27129l-15 .44772 5.8687-5.50016c24.10145-22.58796 58.40989-32.63995 91.75116-26.88207 32.62081 5.63347 61.47226 26.88013 76.81835 56.57021 3.63807 7.03858 8.22562 19.75983 9.60454 26.63332.612 3.05066.49068 3.31886-1.18032 2.60941-9.11586-3.87029-23.95117-4.68553-35.16356-1.93235-4.26288 1.04675-10.78333 4.00066-17.93098 8.12313-20.68033 11.92758-26.16384 12.81293-38.64166 6.23895-9.56267-5.03813-18.08239-6.90122-31.62623-6.91601-22.5486-.0246-51.20024 6.43523-77.6006 17.496l-10.68666 4.47731z"/><path fill="#41536b" d="M257 257.3822V147.84483l18.76319.26287c29.39682.41185 39.95039 3.02937 50.09976 12.4259 5.46585 5.06041 11.28878 14.86812 12.45736 20.98224.20857 1.09129.65054 2.65916.98215 3.48416.64094 1.59458.8796 2.79039 3.14868 15.77639 4.63479 26.52504 4.37217 91.34834-.46519 114.82352-.55535 2.69505-1.21614 6.20188-1.46841 7.79295-2.768 17.4575-12.86548 32.59934-25.76444 38.6355-9.02214 4.22197-13.737 4.84226-37.0031 4.86814l-20.75.0231V257.38222zm43.32881 84.25377c4.17806-1.7457 8.3431-6.69929 9.6117-11.43144 2.94682-10.99225 4.60848-63.93427 3.12937-99.70453-1.53939-37.22823-3.57883-47.86507-10.57784-55.16965-3.84609-4.014-4.527-4.33035-9.32062-4.33035H288v172h4.53212c2.49266 0 6.00118-.61381 7.79669-1.36403zM363 257.5V148l23.75.0309c34.16603.0444 42.01011 1.42954 50.54798 8.92589 4.23774 3.72078 8.95436 13.02608 10.66628 21.04323 2.13395 9.99351 2.41948 26.6246.63523 37-2.5626 14.90149-9.46679 26.63133-17.6769 30.03206-3.30421 1.36865-3.75891 2.76196-1.17259 3.59306 8.65579 2.78148 14.07133 7.61195 18.02816 16.08049l2.70736 5.79439.28842 31c.15863 17.05.69185 32.75333 1.18492 34.89629 1.02114 4.43795 1.87583 5.18776 7.79114 6.83501l4.25 1.18351v22.24294l-5.57865.22569c-18.6219.75339-30.17739-7.25366-35.1893-24.38344-1.06806-3.65043-1.65335-13.63728-2.16842-37-.54527-24.73245-1.03005-32.61434-2.13456-34.70501-2.35335-4.45453-7.35716-6.45551-15.92907-6.3699l-7.5.0749-.25908 51.25-.25908 51.25h-15.99092L363 367zm46.70713-18.98607c6.51076-3.846 8.26535-10.74356 8.281-32.55383.0125-17.4506-1.42123-26.53913-4.78292-30.31887C410.64027 172.75732 405.6525 171 400.03212 171H395v34.33333c0 18.88334.22886 34.5622.50858 34.84192 1.16066 1.16066 11.46172-.0446 14.19855-1.66132zM473 257.54007V148h31v218.81624l-15.5.13195-15.5.13194zM107 362.92459c-20.30005-1.7913-38.44172-8.70291-55.03936-20.96888-3.59664-2.65799-7.31722-5.69224-8.26794-6.74278-1.68875-1.86605-1.47424-1.92551 9.30892-2.58044 7.59405-.46123 15.31087-1.77518 24.73512-4.21167 21.68947-5.60748 39.14074-5.1194 59.59741 1.66683 14.45241 4.7944 35.40226 15.91179 34.06423 18.07677-1.214 1.9643-17.48129 8.89639-26.60931 11.33921-8.05657 2.15608-14.41782 3.08303-26.28907 3.83081-2.2.13858-7.375-.0459-11.5-.40985zm77.29368-30.52086c-20.62242-17.14499-51.32796-21.70511-87.79368-13.03839-26.60284 6.32264-41.8253 6.84079-60.81742 2.07012-5.89899-1.48177-6.39835-1.84939-9.8457-7.2482-3.77984-5.91952-7.2151-12.42167-8.8896-16.82592-.94927-2.49679-.83271-2.46664 4.06343 1.05088 6.52103 4.6849 21.15814 12.06274 30.29773 15.27159 14.0905 4.94707 32.58693 4.13692 52.19156-2.28602 10.76453-3.52671 29.85124-4.40828 42.77488-1.97567 14.31621 2.69473 31.79526 9.61369 44.99324 17.81024l3.76812 2.34018-3.26812 3.16411-3.26812 3.16411zm15.92697-22.96479c-8.25931-5.51558-19.21286-9.02838-32.72962-10.49639-15.07942-1.63773-27.53315-.69095-45.16223 3.4334-26.9081 6.29519-40.71818 7.02095-58.39941 3.06905C46.82538 301.62211 27.64024 291.01178 17 279.49072l-2.5-2.70696 32 .61724c17.6.33948 40.55.83279 51 1.09625 10.45.26345 35.2.71585 55 1.00532 34.53901.50495 67.70935 1.45413 68.2633 1.95339 1.23174 1.11013-10.91879 29.38024-13.5861 31.6102-.37246.31138-3.50291-1.32086-6.95655-3.62722zM9 255.87648c0-6.80932 1.37585-20.05224 2.42866-23.37648.17418-.55.43166-1.45.57216-2 1.43403-5.61349 3.61503-12.00085 5.71205-16.7285 2.28826-5.1588 2.90127-5.78783 6.16404-6.32518 1.9927-.32817 9.93544-2.13785 17.65052-4.0215C53.2118 200.57207 57.41104 200 66.66735 200c23.38521 0 47.23283 8.06418 70.05663 23.68996 7.74701 5.30382 7.58398 5.38652 11.35532-5.75974l2.4207-7.15443-5.40287-4.77162C132.04763 194.47932 115.38907 189.85211 89 190.42219c-11.45122.24738-15.70054.83119-28 3.84691C46.7952 197.75198 33.8033 200 27.8796 200h-2.97568l2.94426-4.27934 2.94426-4.27934 8.35378-.2746c8.2218-.27026 21.0512-2.59878 31.85378-5.78141 7.64324-2.25183 27.2915-2.66836 37.75339-.80035 16.33451 2.9166 33.67822 10.19382 49.48177 20.76198 5.35434 3.58055 9.93208 6.19147 10.17276 5.80204.24069-.38943 1.86606-4.29476 3.61195-8.67852l3.17434-7.97046-5.22328-4.69244c-9.99424-8.97851-23.2766-14.22452-39.64977-15.66009-15.60727-1.36842-27.75522-.54792-41.87138 2.82806-19.5471 4.67484-28.65158 6.02765-40.33077 5.99264L37.5 182.93634l5.5-4.98069c23.38109-21.17346 55.04787-31.64871 84.71388-28.02303 14.13932 1.72806 22.66294 4.17362 34.97262 10.03419 12.84557 6.1157 17.78626 9.52519 27.97542 19.30538 9.19245 8.82349 16.14309 18.35273 22.20733 30.44597 3.80557 7.58902 9.68646 25.05947 8.75055 25.99538-.22266.22265-3.0407-.37748-6.26231-1.33363-7.57671-2.24869-21.70257-2.24453-30.35749.009-3.74212.97433-11.3323 4.44843-17.88916 8.18802-20.21998 11.53214-26.7128 12.53976-38.46248 5.96896-8.3836-4.68837-17.58885-6.66851-31.09359-6.68851-13.95859-.0207-24.33082 1.3675-42.05477 5.62841-15.38064 3.69758-28.1219 7.93405-39.25 13.05064L9 263.86986z"/><path fill="#364a62" d="M156.50708 339.01145c-.35034-.56686.0511-.7345.94098-.39301 1.73242.66479 2.04939 1.38156.61096 1.38156-.51754 0-1.21592-.44485-1.55194-.98855zM150 336c-1.925-1.05389-3.05-1.91617-2.5-1.91617.55 0 2.575.86228 4.5 1.91617 1.925 1.05389 3.05 1.91617 2.5 1.91617-.55 0-2.575-.86228-4.5-1.91617zm-106.1875-2.68311c.72188-.28887 1.58438-.25335 1.91667.0789.33229.33229-.25834.56864-1.3125.52522-1.16495-.048-1.4019-.28494-.60417-.60416zm6.94916-.0242c1.24391-.23919 3.04391-.23011 4 .0202.95609.25029-.06166.446-2.26166.4349-2.2-.0111-2.98225-.21589-1.73834-.45508zm9.09904-.4c-.92513-.58614-.32034-.86702 1.8893-.87743 1.7875-.008 3.25.15721 3.25.36806 0 .90929-3.89829 1.29567-5.1393.50937zm6.9518-1.57585c.72188-.28887 1.58438-.25335 1.91667.0789.33229.33229-.25834.56864-1.3125.52522-1.16495-.048-1.4019-.28494-.60417-.60416zm65.6875-1.85442c-3.96056-1.37023-3.96549-1.3782-.5-.80838 1.925.31652 4.175.96017 5 1.43032 2.20172 1.25472.0746.96074-4.5-.62194zm60.00708-.45097c-.35034-.56686.0511-.7345.94098-.39301 1.73242.66479 2.04939 1.38156.61096 1.38156-.51754 0-1.21592-.44485-1.55194-.98855zm-110.54695-1.53489c2.45306-.7643 4.61353-1.23623 4.80104-1.04872.51161.51161-5.81964 2.58219-7.6604 2.50526-.88042-.0368.40629-.69223 2.85936-1.45654zm40.53987.31076c-2.75-.5155-6.575-1.20242-8.5-1.52649-2.15975-.36359-2.81183-.74936-1.70287-1.00742C114.89938 324.64784 128 327.01465 128 328.09035c0 .50031-.1125.84769-.25.77195-.1375-.0757-2.5-.55947-5.25-1.07498zM90 326c0-.55 1.4625-.96837 3.25-.92971 2.72353.0589 2.92602.2095 1.25.92971-2.7627 1.18717-4.5 1.18717-4.5 0zm95.5-1.06783c-1.65-1.0569-2.55-1.92104-2-1.92032.55.00073 2.35.8954 4 1.98815s2.55 1.95689 2 1.92031c-.55-.0366-2.35-.93124-4-1.98814zM101.5 325c-.79212-1.28168 3.51674-1.28168 5.5 0 1.14137.73761.73709.97304-1.69098.98469-1.75504.00842-3.4691-.43469-3.80902-.98469zm-28.75-1.66228c.6875-.27741 1.8125-.27741 2.5 0s.125.50439-1.25.50439-1.9375-.22698-1.25-.50439zm6-1c.6875-.27741 1.8125-.27741 2.5 0s.125.50439-1.25.50439-1.9375-.22698-1.25-.50439zm97.46515-2.0301c-2.90667-1.41419-5.08892-2.76719-4.84944-3.00667.49615-.49614 10.63429 4.4764 10.63429 5.2159 0 .63422.27656.73984-5.78485-2.20923zM62.5 317.81874c-6.06514-1.37289-11.55357-3.0985-11.14728-3.5048.19947-.19946 2.99625.3233 6.21507 1.1617C60.81491 316.32141 67.62994 317 72.87677 317c5.2011 0 9.20413.25244 8.8956.56097-1 1-15.15686 1.18935-19.27237.25777zm21.15878-.49329c-.4347-.4347 1.82674-1.2787 5.02543-1.87556 3.19868-.59685 6.88464-1.44046 8.19102-1.87467 1.50768-.50113 2.1509-.42651 1.76105.20428-.3378.54658-2.30666 1.34205-4.37524 1.76772-3.80931.78388-4.16928.87452-7.78647 1.9605-1.11398.33445-2.38109.25243-2.81579-.18227zm67.15372-1.00856c.72187-.28887 1.58437-.25335 1.91667.0789.33229.33229-.25834.56864-1.3125.52522-1.16495-.048-1.4019-.28494-.60417-.60416zM167 316c-.825-.53316-1.05-.96937-.5-.96937s1.675.43621 2.5.96937 1.05.96937.5.96937-1.675-.43621-2.5-.96937zm-55.1875-.68311c.72187-.28887 1.58437-.25335 1.91667.0789.33229.33229-.25834.56864-1.3125.52522-1.16495-.048-1.4019-.28494-.60417-.60416zm32.45653-.01c.97297-.25354 2.32297-.23687 3 .0371.67703.27393-.11903.48137-1.76903.46099-1.65-.0204-2.20394-.2445-1.23097-.49804zm-97.03674-1.7561c-3.65054-2.01706-3.82857-2.65474-.4083-1.46242C48.5708 312.69743 50 313.60163 50 314.09783c0 .49619-.1125.85805-.25.80412-.1375-.0539-1.27047-.66189-2.51771-1.35104zm76.01771.71405c2.6125-.206 6.8875-.206 9.5 0s.475.37454-4.75.37454-7.3625-.16854-4.75-.37454zm36.25-.72885c-3.86206-1.7684-2.0657-1.79435 2.5-.0361 1.925.74131 2.825 1.36178 2 1.37882-.825.017-2.85-.58718-4.5-1.34271zM102.5 312c2.74909-1.18132 4.32797-1.18132 2.5 0-.825.53316-2.175.94464-3 .9144-.98906-.0362-.81874-.34772.5-.9144zM40 310c-.9013-.58246-1.02463-.97549-.30902-.98469.65504-.008 1.4691.43469 1.80902.98469.7673 1.24153.42112 1.24153-1.5 0zm67.8125.31689c.72187-.28887 1.58437-.25335 1.91667.0789.33229.33229-.25834.56864-1.3125.52522-1.16495-.048-1.4019-.28494-.60417-.60416zm6.6875-1.37426c2.2-.45505 5.575-.79698 7.5-.75983 3.26336.063 3.19574.12167-1 .86824-2.475.44039-5.85.78232-7.5.75984-2.58767-.0353-2.45022-.1546 1-.86825zM132 309l-6.5-.6548 7.30902-.1726c4.65886-.11002 7.08492.18999 6.69098.8274-.33992.55-.70398.92233-.80902.8274-.10504-.09493-3.11598-.46726-6.69098-.8274zm10.26903.30701c.97297-.25354 2.32297-.23687 3 .0371.67703.27393-.11903.48137-1.76903.46099-1.65-.0204-2.20394-.2445-1.23097-.49804zm-107.8279-1.86218c-1.8303-1.46637-1.7984-1.48719.55887-.36454C38.06103 308.5381 38.62834 309 37.3578 309c-.53655 0-1.84905-.69982-2.91667-1.55517zm47.80887-.1733c2.0625-.21574 5.4375-.21574 7.5 0 2.0625.21575.375.39226-3.75.39226s-5.8125-.17651-3.75-.39226zm-10.4375-.95464c.72188-.28887 1.58438-.25335 1.91667.0789.33229.33229-.25834.56864-1.3125.52522-1.16495-.048-1.4019-.28494-.60417-.60416zm26.9375.0208c.6875-.27741 1.8125-.27741 2.5 0s.125.50439-1.25.50439-1.9375-.22698-1.25-.50439zm-74.05422-4.3157C22.1131 300.38414 20 298.82772 20 298.56333c0-.2644 2.25.91796 5 2.62745C29.41003 303.93221 30.72634 305 29.69578 305c-.16732 0-2.41732-1.34009-5-2.97798zm86.11672 2.29487c.72187-.28887 1.58437-.25335 1.91667.0789.33229.33229-.25834.56864-1.3125.52522-1.16495-.048-1.4019-.28494-.60417-.60416zm65-5c.72187-.28887 1.58437-.25335 1.91667.0789.33229.33229-.25834.56864-1.3125.52522-1.16495-.048-1.4019-.28494-.60417-.60416zm-38.0625-.97914c.6875-.27741 1.8125-.27741 2.5 0s.125.50439-1.25.50439-1.9375-.22698-1.25-.50439zm30 0c.6875-.27741 1.8125-.27741 2.5 0s.125.50439-1.25.50439-1.9375-.22698-1.25-.50439zm51.0625-17.02083c.72187-.28887 1.58437-.25335 1.91667.0789.33229.33229-.25834.56864-1.3125.52522-1.16495-.048-1.4019-.28494-.60417-.60416zm-63.03607-1.05039c2.35204-.21124 5.95204-.20827 8 .007 2.04796.21487.12357.38771-4.27643.38408-4.4-.004-6.07561-.17944-3.72357-.39069zm13.03607.0504c.72187-.28887 1.58437-.25335 1.91667.0789.33229.33229-.25834.56864-1.3125.52522-1.16495-.048-1.4019-.28494-.60417-.60416zm4 0c.72187-.28887 1.58437-.25335 1.91667.0789.33229.33229-.25834.56864-1.3125.52522-1.16495-.048-1.4019-.28494-.60417-.60416zm6.9375-.0491c2.3375-.21053 6.1625-.21053 8.5 0 2.3375.21054.425.3828-4.25.3828s-6.5875-.17226-4.25-.3828zm-77-1c2.3375-.21053 6.1625-.21053 8.5 0 2.3375.21054.425.3828-4.25.3828s-6.5875-.17226-4.25-.3828zm14 .0699c.6875-.27741 1.8125-.27741 2.5 0s.125.50439-1.25.50439-1.9375-.22698-1.25-.50439zm5 0c.6875-.27741 1.8125-.27741 2.5 0s.125.50439-1.25.50439-1.9375-.22698-1.25-.50439zm6.9777-.0594c1.77523-.22091 4.92523-.22454 7-.008 2.07476.21648.6223.39722-3.2277.40166-3.85.004-5.54754-.17268-3.7723-.39359zM17 277.9348c-1.5326-.45085 1.1439-.77401 6.91667-.83512 5.17916-.0548 9.1007.21628 8.71453.60246-.96422.96421-12.55783 1.13678-15.6312.23266zm32.77643.3317c2.35204-.21124 5.95204-.20827 8 .007 2.04796.21487.12357.38771-4.27643.38408-4.4-.004-6.0756-.17944-3.72357-.39069zm13.97357.07122c.6875-.27741 1.8125-.27741 2.5 0s.125.50439-1.25.50439-1.9375-.22698-1.25-.50439zm5 0c.6875-.27741 1.8125-.27741 2.5 0s.125.50439-1.25.50439-1.9375-.22698-1.25-.50439zm6.9777-.0594c1.77523-.22091 4.92523-.22454 7-.008 2.07476.21648.6223.39722-3.2277.40166-3.85.004-5.54754-.17268-3.7723-.39359zm63.5223-25.96765c.9625-.25152 2.5375-.25152 3.5 0 .9625.25153.175.45733-1.75.45733s-2.7125-.2058-1.75-.45733zm7.5625-.99378c.72187-.28887 1.58437-.25335 1.91667.0789.33229.33229-.25834.56864-1.3125.52522-1.16495-.048-1.4019-.28494-.60417-.60416zM151 250c.825-.53316 1.95-.96937 2.5-.96937s.325.43621-.5.96937-1.95.96937-2.5.96937-.325-.43621.5-.96937zm-99.1875-2.68311c.72188-.28887 1.58438-.25335 1.91667.0789.33229.33229-.25834.56864-1.3125.52522-1.16495-.048-1.4019-.28494-.60417-.60416zm4-1c.72188-.28887 1.58438-.25335 1.91667.0789.33229.33229-.25834.56864-1.3125.52522-1.16495-.048-1.4019-.28494-.60417-.60416zm103.92083-.44098c.67834-.68342 1.48524-.99067 1.79313-.68278s-.24711.86705-1.23333 1.24258c-1.4252.54268-1.54006.42782-.5598-.5598zm-94.92083-1.55902c.72188-.28887 1.58438-.25335 1.91667.0789.33229.33229-.25834.56864-1.3125.52522-1.16495-.048-1.4019-.28494-.60417-.60416zm6-1c.72188-.28887 1.58438-.25335 1.91667.0789.33229.33229-.25834.56864-1.3125.52522-1.16495-.048-1.4019-.28494-.60417-.60416zm5.4375-1.00622c.9625-.25152 2.5375-.25152 3.5 0 .9625.25153.175.45733-1.75.45733s-2.7125-.2058-1.75-.45733zm35.5.0271c.6875-.27741 1.8125-.27741 2.5 0s.125.50439-1.25.50439-1.9375-.22698-1.25-.50439zm-25-1.04345c1.2375-.23836 3.2625-.23836 4.5 0 1.2375.23835.225.43337-2.25.43337s-3.4875-.19502-2.25-.43337zm16.01166-.002c1.24391-.23919 3.04391-.23011 4 .0202.95609.25029-.0617.446-2.26166.4349-2.2-.0111-2.98225-.21589-1.73834-.45508zM177 236c.825-.53316 1.95-.96937 2.5-.96937s.325.43621-.5.96937-1.95.96937-2.5.96937-.325-.43621.5-.96937zm8.8125-2.68311c.72187-.28887 1.58437-.25335 1.91667.0789.33229.33229-.25834.56864-1.3125.52522-1.16495-.048-1.4019-.28494-.60417-.60416zm5.45653-1.00988c.97297-.25354 2.32297-.23687 3 .0371.67703.27393-.11903.48137-1.76903.46099-1.65-.0204-2.20394-.2445-1.23097-.49804zm15.48097.0307c.6875-.27741 1.8125-.27741 2.5 0s.125.50439-1.25.50439-1.9375-.22698-1.25-.50439zm-73-9.35856c-5.04602-3.16872-6.69736-5.24257-1.93395-2.42875 3.33426 1.96959 7.89586 5.40375 7.18395 5.40835-.275.002-2.6375-1.33904-5.25-2.9796zm-23.99788-12.89132c-5.19088-2.42415-6.13779-3.66498-1.25212-1.64077 2.2.91149 4.4275 2.08378 4.95 2.60509 1.24971 1.24687.76799 1.12125-3.69788-.96432zm48.98001-3.62389c-2.05267-1.39482-3.73213-2.7512-3.73213-3.01418 0-.26298 1.8.71305 4 2.16894 3.49315 2.31165 4.67378 3.3813 3.73213 3.3813-.14732 0-1.94732-1.14122-4-2.53605zM28.5 207c2.74909-1.18132 4.32797-1.18132 2.5 0-.825.53316-2.175.94464-3 .9144-.98906-.0362-.81874-.34772.5-.9144zm117.37244-.75c-1.24387-1.58606-1.2085-1.62143.37756-.37756.9625.75485 1.75 1.54235 1.75 1.75 0 .82304-.82119.29331-2.12756-1.37244zM99.5 206c-1.31874-.56668-1.48906-.87815-.5-.9144.825-.0302 2.175.38124 3 .9144 1.82797 1.18132.24909 1.18132-2.5 0zm-63.6875-.68311c.72188-.28887 1.58438-.25335 1.91667.0789.33229.33229-.25834.56864-1.3125.52522-1.16495-.048-1.4019-.28494-.60417-.60416zM44 203c.825-.53316 1.95-.96937 2.5-.96937s.325.43621-.5.96937-1.95.96937-2.5.96937-.325-.43621.5-.96937zm46.75.33772c.6875-.27741 1.8125-.27741 2.5 0s.125.50439-1.25.50439-1.9375-.22698-1.25-.50439zM82.5 202c-2.7676-.70424-2.80634-.77135-.5-.86637 1.375-.0567 3.175.33321 4 .86637 1.70194 1.09988.82246 1.09988-3.5 0zm56.5-1.08935c-2.15377-1.76168-2.1961-1.89635-.30569-.97239 1.20687.58987 2.47092 1.52008 2.80901 2.06712.90258 1.4604.29641 1.19531-2.50332-1.09473zm-88.25.42707c.6875-.27741 1.8125-.27741 2.5 0s.125.50439-1.25.50439-1.9375-.22698-1.25-.50439zm5.5-1.02705c.9625-.25152 2.5375-.25152 3.5 0 .9625.25153.175.45733-1.75.45733s-2.7125-.2058-1.75-.45733zm18.5.0271c.6875-.27741 1.8125-.27741 2.5 0s.125.50439-1.25.50439-1.9375-.22698-1.25-.50439zm73.75708-.32627c-.35034-.56686.0511-.7345.94098-.39301 1.73242.66479 2.04939 1.38156.61096 1.38156-.51754 0-1.21592-.44485-1.55194-.98855zm-121.74542-.71876c1.24391-.23919 3.04391-.23011 4 .0202.95609.25029-.06166.446-2.26166.4349-2.2-.0111-2.98225-.21589-1.73834-.45508zM35 198.60941c0-.21483 1.54343-.57079 3.42985-.79101 1.88642-.22023 3.20987-.0445 2.94099.39059-.48392.78299-6.37084 1.153-6.37084.40042zm8.75-1.27169c.6875-.27741 1.8125-.27741 2.5 0s.125.50439-1.25.50439-1.9375-.22698-1.25-.50439zM132 197c-.90129-.58246-1.02463-.97549-.30902-.98469.65504-.008 1.4691.43469 1.80902.98469.7673 1.24153.42112 1.24153-1.5 0zm-82-1c1.375-.44035 3.4-.80064 4.5-.80064 1.58367 0 1.47958.16667-.5.80064-1.375.44035-3.4.80064-4.5.80064-1.58367 0-1.47958-.16667.5-.80064zm77-1c-.825-.53316-1.05-.96937-.5-.96937s1.675.43621 2.5.96937 1.05.96937.5.96937-1.675-.43621-2.5-.96937zm-68.5-1c1.1-.47269 2.9-.8462 4-.83003 1.60779.0236 1.50973.1864-.5.83003-3.41917 1.09501-6.04823 1.09501-3.5 0zm75-1.07193c-2.2-1.05798-2.875-1.64352-1.5-1.3012 2.83149.70493 8.02961 3.31113 6.5 3.25893-.55-.0188-2.8-.89975-5-1.95773zM120 193c-2.00973-.64363-2.10779-.8064-.5-.83003 1.1-.0162 2.9.35734 4 .83003 2.54822 1.09501-.0808 1.09501-3.5 0zm-54.1875-.68311c.72188-.28887 1.58438-.25335 1.91667.0789.33229.33229-.25834.56864-1.3125.52522-1.16495-.048-1.4019-.28494-.60417-.60416zm-22.54347-1.00988c.97297-.25354 2.32297-.23687 3 .0371.67703.27393-.11903.48137-1.76903.46099-1.65-.0204-2.20394-.2445-1.23097-.49804zm26.48097.03071c.6875-.27741 1.8125-.27741 2.5 0s.125.50439-1.25.50439-1.9375-.22698-1.25-.50439zm44 0c.6875-.27741 1.8125-.27741 2.5 0s.125.50439-1.25.50439-1.9375-.22698-1.25-.50439zm-62-1c.6875-.27741 1.8125-.27741 2.5 0s.125.50439-1.25.50439-1.9375-.22698-1.25-.50439zm23.51903-.0307c.97297-.25354 2.32297-.23687 3 .0371.67703.27393-.11903.48137-1.76903.46099-1.65-.0204-2.20394-.2445-1.23097-.49804zm31.49263-.0143c1.24391-.23919 3.04391-.23011 4 .0202.95609.25029-.0617.446-2.26166.4349-2.2-.0111-2.98225-.21589-1.73834-.45508zm19.74542-.28129c-.35034-.56686.0511-.7345.94098-.39301 1.73242.66479 2.04939 1.38156.61096 1.38156-.51754 0-1.21592-.44485-1.55194-.98855zm43.36536-.76143c-1.24387-1.58606-1.2085-1.62143.37756-.37756.9625.75485 1.75 1.54235 1.75 1.75 0 .82304-.82119.29331-2.12756-1.37244zm-113.05994.0669c.72188-.28887 1.58438-.25335 1.91667.0789.33229.33229-.25834.56864-1.3125.52522-1.16495-.048-1.4019-.28494-.60417-.60416zm29.9375-.0541c2.8875-.202 7.6125-.202 10.5 0s.525.36728-5.25.36728-8.1375-.16528-5.25-.36728zM61 188.61663c0-.21085.90062-.61888 2.00138-.90674 1.10076-.28785 1.7492-.11534 1.44098.38337-.53825.87091-3.44236 1.31244-3.44236.52337zm13.85325-3.86988c.50384-.50384 1.98048-.74864 3.28141-.544 2.00169.31488 1.86084.45573-.91608.91609-1.98722.32944-2.92011.18269-2.36533-.37209zM96.5 184l-4-.71619 3.69098-.1419c2.03004-.07805 3.9691.30809 4.30902.85809.33992.55.47898.93614.30902.85809C100.63906 184.78005 98.7 184.3939 96.5 184zm-6.6875-.68311c.72188-.28887 1.58438-.25335 1.91667.0789.33229.33229-.25834.56864-1.3125.52522-1.16495-.048-1.4019-.28494-.60417-.60416zm-45.52599-1.05697c3.18258-.19905 8.13258-.1972 11 .004 2.86742.20131.26349.36417-5.78651.36191-6.05-.002-8.39607-.16696-5.21349-.36601zm18.98252-.95291c.97297-.25354 2.32297-.23687 3 .0371.67703.27393-.11903.48137-1.76903.46099-1.65-.0204-2.20394-.2445-1.23097-.49804zm6.48097-.96929c.6875-.27741 1.8125-.27741 2.5 0s.125.50439-1.25.50439-1.9375-.22698-1.25-.50439zm5.0625-1.02083c.72188-.28887 1.58438-.25335 1.91667.0789.33229.33229-.25834.56864-1.3125.52522-1.16495-.048-1.4019-.28494-.60417-.60416zM153 179c-.825-.53316-1.05-.96937-.5-.96937s1.675.43621 2.5.96937 1.05.96937.5.96937-1.675-.43621-2.5-.96937zm-74.1875-.68311c.72188-.28887 1.58438-.25335 1.91667.0789.33229.33229-.25834.56864-1.3125.52522-1.16495-.048-1.4019-.28494-.60417-.60416zm4-1c.72188-.28887 1.58438-.25335 1.91667.0789.33229.33229-.25834.56864-1.3125.52522-1.16495-.048-1.4019-.28494-.60417-.60416zm4-1c.72188-.28887 1.58438-.25335 1.91667.0789.33229.33229-.25834.56864-1.3125.52522-1.16495-.048-1.4019-.28494-.60417-.60416zm4-1c.72188-.28887 1.58438-.25335 1.91667.0789.33229.33229-.25834.56864-1.3125.52522-1.16495-.048-1.4019-.28494-.60417-.60416zm51 0c.72187-.28887 1.58437-.25335 1.91667.0789.33229.33229-.25834.56864-1.3125.52522-1.16495-.048-1.4019-.28494-.60417-.60416zm-46.0625-.97917c.6875-.27741 1.8125-.27741 2.5 0s.125.50439-1.25.50439-1.9375-.22698-1.25-.50439zm41 0c.6875-.27741 1.8125-.27741 2.5 0s.125.50439-1.25.50439-1.9375-.22698-1.25-.50439zm-33.98834-1.04498c1.24391-.23919 3.04391-.23011 4 .0202.95609.25029-.0617.446-2.26166.4349-2.2-.0111-2.98225-.21589-1.73834-.45508zm22.98834.002c1.2375-.23836 3.2625-.23836 4.5 0 1.2375.23835.225.43337-2.25.43337s-3.4875-.19502-2.25-.43337zm-11.48625-24.01185c1.52006-.22986 3.77006-.22371 5 .0136 1.22994.23736-.0138.42542-2.76375.41792-2.75-.008-3.75631-.20172-2.23625-.43157z"/></g></svg>