<svg xmlns="http://www.w3.org/2000/svg" role="img" viewBox="-9.46 -9.46 465.92 112.92"><title>pyOSOAA logo</title><path d="M186.7 65.301l4.8-8q3.6 3 8.1 4.9a23.348 23.348 0 0 0 5.37 1.509 32.118 32.118 0 0 0 5.13.391 27.981 27.981 0 0 0 4.547-.347q2.423-.4 4.384-1.26a13.701 13.701 0 0 0 2.469-1.393q4.048-2.892 4.195-7.735a12.116 12.116 0 0 0 .005-.365 11.94 11.94 0 0 0-.337-2.893 9.816 9.816 0 0 0-.863-2.257 8.097 8.097 0 0 0-1.2-1.657q-1.27-1.38-3.416-2.722a25.81 25.81 0 0 0-.034-.021q-3.116-1.943-8.885-4.17a118.584 118.584 0 0 0-1.265-.48q-7.2-2.8-11.5-5.65a21.931 21.931 0 0 1-3.089-2.448q-1.717-1.65-2.773-3.515a13.303 13.303 0 0 1-.288-.537q-1.85-3.65-1.85-8.65t2.75-9.05q2.75-4.05 8.1-6.5a25.558 25.558 0 0 1 5.9-1.836q3.243-.614 7.05-.614 6.2 0 11.15 1.25t9.65 3.55l-3.5 8.1a31.496 31.496 0 0 0-4.126-2.019 41.686 41.686 0 0 0-3.824-1.331q-4.55-1.35-9.55-1.35a27.187 27.187 0 0 0-4.03.279q-2.132.321-3.87 1.007a12.616 12.616 0 0 0-2.5 1.314 9.902 9.902 0 0 0-2.163 1.964 7.359 7.359 0 0 0-1.637 4.736 10.464 10.464 0 0 0 .292 2.521 8.562 8.562 0 0 0 .808 2.079q1.056 1.919 4.091 3.746a23.503 23.503 0 0 0 .259.154 33.003 33.003 0 0 0 2.216 1.172q2.269 1.102 5.48 2.35a130.016 130.016 0 0 0 2.054.778 81.228 81.228 0 0 1 4.978 2.029q4.386 1.971 7.372 4.071a26.044 26.044 0 0 1 3.04 2.477q2.223 2.129 3.41 4.473a17.579 17.579 0 0 1 1.741 5.862 22.155 22.155 0 0 1 .159 2.688 21.71 21.71 0 0 1-.667 5.5 17.105 17.105 0 0 1-2.583 5.6q-3.25 4.6-9 7a30.521 30.521 0 0 1-7.41 2.003 40.027 40.027 0 0 1-5.74.397q-7.3 0-13.3-1.95a38.206 38.206 0 0 1-5.367-2.183 28.433 28.433 0 0 1-4.733-2.967zm-130.9 27.1l2-7.5a9.908 9.908 0 0 0 1.165.574q.823.344 1.835.626a13.514 13.514 0 0 0 2.279.417 17.358 17.358 0 0 0 1.721.083q4.2 0 7.5-2.7a12.003 12.003 0 0 0 1.933-2.062q1.748-2.311 3.408-6.163a58.58 58.58 0 0 0 .959-2.375l2.3-6h-4.8l-20.3-45.7 8-3.6 19.4 43.3 15.1-42.9 8.3 3.2-19.1 52.2a71.728 71.728 0 0 1-2.053 5.086q-1.102 2.439-2.269 4.428a30.86 30.86 0 0 1-1.978 2.986 24.268 24.268 0 0 1-2.878 3.21q-1.914 1.768-4.017 2.807a14.737 14.737 0 0 1-.605.283q-4.1 1.8-9.1 1.8-3 0-5.25-.6t-3.55-1.4zm324.6-23.7l-8.7 3.5-7.8-20h-32.4l-7.8 19.8-8.1-3.3 27.4-67.5h10.4l27 67.5zm66.8 0l-8.7 3.5-7.8-20h-32.4l-7.8 19.8-8.1-3.3 27.4-67.5h10.4l27 67.5zm-432.3 24.5h-9v-60.7a11.015 11.015 0 0 0-.127-1.736q-.331-2.067-1.523-3.114a5.718 5.718 0 0 0-2.79-1.323A7.991 7.991 0 0 0 0 26.201l1.9-7q5.862 0 8.922 2.963a10.15 10.15 0 0 1 2.578 4.337q.955-1.434 3.052-3.323a38.58 38.58 0 0 1 .198-.177 18.902 18.902 0 0 1 2.701-1.984 25.569 25.569 0 0 1 2.899-1.516 16.955 16.955 0 0 1 4.559-1.29 21.886 21.886 0 0 1 3.091-.21q6 0 11.25 3.15a22.329 22.329 0 0 1 7.178 6.967 27.464 27.464 0 0 1 1.272 2.133q3.2 5.95 3.2 14.45 0 8.3-3.2 14.55a27.846 27.846 0 0 1-3.934 5.831 23.029 23.029 0 0 1-4.416 3.869q-5.15 3.45-11.15 3.45-4.6 0-8.6-1.85a30.352 30.352 0 0 1-3.416-1.839q-1.793-1.127-3.184-2.411v26.9zm123.108-21.558a36.51 36.51 0 0 0 7.592.758 38.35 38.35 0 0 0 5.162-.337 30.074 30.074 0 0 0 8.738-2.513q6.1-2.85 10.4-7.8 4.3-4.95 6.55-11.55 2.25-6.6 2.25-14.1a48.215 48.215 0 0 0-.079-2.778 41.439 41.439 0 0 0-2.171-11.222q-2.25-6.5-6.55-11.5t-10.45-7.8a29.925 29.925 0 0 0-5.892-1.963A36.42 36.42 0 0 0 145.6.001a39.35 39.35 0 0 0-6.228.475A29.661 29.661 0 0 0 127.9 4.751q-7.4 4.75-11.35 12.9a37.989 37.989 0 0 0-2.835 8.113 46.182 46.182 0 0 0-1.115 10.337 48.913 48.913 0 0 0 .035 1.86 42.769 42.769 0 0 0 2.215 12.24 39.376 39.376 0 0 0 .439 1.222 34.353 34.353 0 0 0 6.061 10.328q4.25 4.95 10.35 7.8a29.142 29.142 0 0 0 6.308 2.092zm132.9 0a36.51 36.51 0 0 0 7.592.758 38.35 38.35 0 0 0 5.162-.337 30.074 30.074 0 0 0 8.738-2.513q6.1-2.85 10.4-7.8 4.3-4.95 6.55-11.55 2.25-6.6 2.25-14.1a48.215 48.215 0 0 0-.079-2.778 41.439 41.439 0 0 0-2.171-11.222q-2.25-6.5-6.55-11.5t-10.45-7.8a29.925 29.925 0 0 0-5.892-1.963A36.42 36.42 0 0 0 278.5.001a39.35 39.35 0 0 0-6.228.475A29.661 29.661 0 0 0 260.8 4.751q-7.4 4.75-11.35 12.9a37.989 37.989 0 0 0-2.835 8.113 46.182 46.182 0 0 0-1.115 10.337 48.913 48.913 0 0 0 .035 1.86 42.769 42.769 0 0 0 2.215 12.24 39.376 39.376 0 0 0 .439 1.222 34.353 34.353 0 0 0 6.061 10.328q4.25 4.95 10.35 7.8a29.142 29.142 0 0 0 6.308 2.092zM145.6 64.201a26.517 26.517 0 0 0 5.948-.635 19.316 19.316 0 0 0 6.952-3.065 22.47 22.47 0 0 0 7.325-8.871 27.252 27.252 0 0 0 .525-1.179 34.108 34.108 0 0 0 2.322-8.929 43.503 43.503 0 0 0 .328-5.421q0-5.4-1.6-10.4a29.735 29.735 0 0 0-4.14-8.327 28.121 28.121 0 0 0-.46-.623q-3-3.95-7.35-6.25a19.921 19.921 0 0 0-7.417-2.182 24.578 24.578 0 0 0-2.433-.118 24.086 24.086 0 0 0-6.492.84 19.545 19.545 0 0 0-6.058 2.86 23.148 23.148 0 0 0-7.601 9.126 27.785 27.785 0 0 0-.399.874 32.793 32.793 0 0 0-2.454 9.187 41.257 41.257 0 0 0-.296 5.013q0 5.4 1.55 10.45a29.379 29.379 0 0 0 4.181 8.545 27.923 27.923 0 0 0 .369.505q3 4 7.35 6.3a19.921 19.921 0 0 0 7.417 2.181 24.578 24.578 0 0 0 2.433.119zm132.9 0a26.517 26.517 0 0 0 5.948-.635 19.316 19.316 0 0 0 6.952-3.065 22.47 22.47 0 0 0 7.325-8.871 27.252 27.252 0 0 0 .525-1.179 34.108 34.108 0 0 0 2.322-8.929 43.503 43.503 0 0 0 .328-5.421q0-5.4-1.6-10.4a29.735 29.735 0 0 0-4.14-8.327 28.121 28.121 0 0 0-.46-.623q-3-3.95-7.35-6.25a19.921 19.921 0 0 0-7.417-2.182 24.578 24.578 0 0 0-2.433-.118 24.086 24.086 0 0 0-6.492.84 19.545 19.545 0 0 0-6.058 2.86 23.148 23.148 0 0 0-7.601 9.126 27.785 27.785 0 0 0-.399.874 32.793 32.793 0 0 0-2.454 9.187 41.257 41.257 0 0 0-.296 5.013q0 5.4 1.55 10.45a29.379 29.379 0 0 0 4.181 8.545 27.923 27.923 0 0 0 .369.505q3 4 7.35 6.3a19.921 19.921 0 0 0 7.417 2.181 24.578 24.578 0 0 0 2.433.119zm-263.6-31.6v25.6q2.6 2.7 6 4.45t7.4 1.75q6.694 0 10.917-5.185a17.38 17.38 0 0 0 .133-.165 18.792 18.792 0 0 0 3.494-7.306q.661-2.69.744-5.836a34.555 34.555 0 0 0 .012-.908q0-6-2.15-10.3-2.15-4.3-5.7-6.6-3.55-2.3-7.85-2.3a14.741 14.741 0 0 0-5.627 1.062 14.054 14.054 0 0 0-2.123 1.088q-3.45 2.15-5.25 4.65zm332.8-22l-13.2 33.6h26.3l-13.1-33.6zm66.8 0l-13.2 33.6h26.3l-13.1-33.6z" vector-effect="non-scaling-stroke" fill="#000" fill-rule="evenodd" stroke="#000" stroke-linecap="round" stroke-width=".25mm"/></svg>