<svg xmlns="http://www.w3.org/2000/svg" role="img" viewBox="-6.68 -6.68 334.36 107.61"><title>pyTSEB logo</title><path d="M258.2 71.2h-42v-70h42v8.2h-32.5v21.3h28v8h-28V63h32.5v8.2zm-104.8-5.9l4.8-8q3.6 3 8.1 4.9a23.348 23.348 0 0 0 5.37 1.51 32.118 32.118 0 0 0 5.13.39 27.981 27.981 0 0 0 4.547-.346q2.423-.4 4.384-1.26A13.701 13.701 0 0 0 188.2 61.1q4.048-2.891 4.195-7.734A12.116 12.116 0 0 0 192.4 53a11.94 11.94 0 0 0-.337-2.893 9.816 9.816 0 0 0-.863-2.257 8.097 8.097 0 0 0-1.2-1.656q-1.27-1.381-3.416-2.723a25.81 25.81 0 0 0-.034-.021q-3.116-1.942-8.885-4.17a118.584 118.584 0 0 0-1.265-.48q-7.2-2.8-11.5-5.65a21.931 21.931 0 0 1-3.089-2.447q-1.717-1.65-2.773-3.515a13.303 13.303 0 0 1-.288-.538Q156.9 23 156.9 18t2.75-9.05q2.75-4.05 8.1-6.5a25.558 25.558 0 0 1 5.9-1.835Q176.893 0 180.7 0q6.2 0 11.15 1.25t9.65 3.55l-3.5 8.1a31.496 31.496 0 0 0-4.126-2.019 41.686 41.686 0 0 0-3.824-1.331Q185.5 8.2 180.5 8.2a27.187 27.187 0 0 0-4.03.28q-2.132.32-3.87 1.007a12.616 12.616 0 0 0-2.5 1.313 9.902 9.902 0 0 0-2.163 1.965A7.359 7.359 0 0 0 166.3 17.5a10.464 10.464 0 0 0 .292 2.522 8.562 8.562 0 0 0 .808 2.078q1.056 1.919 4.091 3.747a23.503 23.503 0 0 0 .259.153 33.003 33.003 0 0 0 2.216 1.172q2.269 1.103 5.48 2.351a130.016 130.016 0 0 0 2.054.777 81.228 81.228 0 0 1 4.978 2.029q4.386 1.971 7.372 4.071a26.044 26.044 0 0 1 3.04 2.478q2.223 2.128 3.41 4.472a17.579 17.579 0 0 1 1.741 5.863 22.155 22.155 0 0 1 .159 2.687 21.71 21.71 0 0 1-.667 5.501A17.105 17.105 0 0 1 198.95 63q-3.25 4.6-9 7a30.521 30.521 0 0 1-7.41 2.004 40.027 40.027 0 0 1-5.74.396q-7.3 0-13.3-1.95a38.206 38.206 0 0 1-5.367-2.182A28.433 28.433 0 0 1 153.4 65.3zM49.6 92.4l2-7.5a9.908 9.908 0 0 0 1.165.574q.823.345 1.835.626a13.514 13.514 0 0 0 2.279.418 17.358 17.358 0 0 0 1.721.082q4.2 0 7.5-2.7a12.003 12.003 0 0 0 1.933-2.061q1.748-2.311 3.408-6.164A58.58 58.58 0 0 0 72.4 73.3l2.3-6h-4.8L49.6 21.6l8-3.6L77 61.3l15.1-42.9 8.3 3.2-19.1 52.2a71.728 71.728 0 0 1-2.053 5.087q-1.102 2.439-2.269 4.427A30.86 30.86 0 0 1 75 86.3a24.268 24.268 0 0 1-2.878 3.211q-1.914 1.768-4.017 2.807a14.737 14.737 0 0 1-.605.282q-4.1 1.8-9.1 1.8-3 0-5.25-.6t-3.55-1.4zm78.3-21.2h-9.5V9.6H96.9V1.2h52.5v8.4h-21.5v61.6zm143.8-.2V1.4a100.907 100.907 0 0 1 1.856-.194q2.897-.276 6.72-.499A270.552 270.552 0 0 1 280.4.7a168.416 168.416 0 0 1 4.837-.205q2.471-.071 5.208-.089A285.352 285.352 0 0 1 292.3.4q8.4 0 14.259 2.089A22.604 22.604 0 0 1 312 5.25a16.711 16.711 0 0 1 4.563 4.657q2.191 3.433 2.328 7.894a19.526 19.526 0 0 1 .009.599 17.052 17.052 0 0 1-.627 4.72 13.798 13.798 0 0 1-2.323 4.63Q313 31.6 307.4 34.1a30.217 30.217 0 0 1 4.636 2.06q3.477 1.934 5.664 4.59 3.5 4.25 3.5 10.45 0 9.315-7.21 14.928a22.979 22.979 0 0 1-.29.222 24.681 24.681 0 0 1-7.377 3.71Q300.279 72 291.9 72a221.836 221.836 0 0 1-8.08-.142 187.566 187.566 0 0 1-3.47-.158 227.449 227.449 0 0 1-2.584-.156q-2.807-.187-4.871-.406A65.535 65.535 0 0 1 271.7 71zm-262.2.2H0V1.4Q4.1.9 9.05.65a200.806 200.806 0 0 1 8.93-.246A221.966 221.966 0 0 1 19.3.4q7.57 0 13.172 2.082a26.011 26.011 0 0 1 1.628.668 24.606 24.606 0 0 1 5.082 3.029A19.374 19.374 0 0 1 43.4 10.7q3.2 4.8 3.2 11a25.258 25.258 0 0 1-.708 6.122A19.268 19.268 0 0 1 42.9 34.4a22.312 22.312 0 0 1-7.551 6.63 28.065 28.065 0 0 1-2.749 1.32 34.774 34.774 0 0 1-8.089 2.224 47.194 47.194 0 0 1-7.211.526q-4.2 0-7.8-.3v26.4zm0-62.4v27.9q1.1.138 2.531.252a96.255 96.255 0 0 0 1.369.098q2.3.15 5.1.15a31.831 31.831 0 0 0 5.38-.425q2.879-.495 5.183-1.564A15.221 15.221 0 0 0 32.3 33.2a12.896 12.896 0 0 0 4.855-9.442A17.32 17.32 0 0 0 37.2 22.5a14.452 14.452 0 0 0-.761-4.793A12.136 12.136 0 0 0 32.5 12.2a15.462 15.462 0 0 0-5.081-2.663q-2.226-.711-4.919-.977a34.58 34.58 0 0 0-3.4-.16 131.125 131.125 0 0 0-3.258.039A109.939 109.939 0 0 0 14 8.5a91.274 91.274 0 0 0-2.883.164A75.041 75.041 0 0 0 9.5 8.8zm283.1 30h-11.4v24.7q5.3.6 11.4.6 8.9 0 13.9-3.2t5-9.3a11.728 11.728 0 0 0-.872-4.6q-1.102-2.613-3.595-4.487a14.027 14.027 0 0 0-.433-.313 16.7 16.7 0 0 0-4.674-2.201Q298.003 38.8 292.6 38.8zM281.2 8.6v22.8h11q7.9 0 12.55-3.3t4.65-8.5a10.798 10.798 0 0 0-.674-3.899q-1.087-2.83-3.926-4.651a16.643 16.643 0 0 0-4.486-1.964Q296.825 8.1 292.2 8.1q-3.3 0-6 .15t-5 .35z" vector-effect="non-scaling-stroke" fill="#000" fill-rule="evenodd" stroke="#000" stroke-linecap="round" stroke-width=".25mm"/></svg>