<svg xmlns="http://www.w3.org/2000/svg" role="img" viewBox="-5.21 -5.21 257.92 83.67"><title>pycoal logo</title><path d="M51.172 63.38v7.226q-3.906 1.465-8.203 2.173-3.598.593-8.326.689a92.195 92.195 0 0 1-1.879.019 43.381 43.381 0 0 1-8.107-.717q-4.801-.913-8.677-2.99a26.054 26.054 0 0 1-1.404-.81q-7.3-4.516-10.938-12.768A41.171 41.171 0 0 1 .8 46.594q-.8-4.61-.8-9.875a50.292 50.292 0 0 1 .759-8.906A41.171 41.171 0 0 1 2.271 21.9q2.27-6.714 6.641-11.597 4.37-4.882 10.742-7.544A33.805 33.805 0 0 1 27.883.538a44.747 44.747 0 0 1 6.395-.44 49.898 49.898 0 0 1 10.449 1.075q5.029 1.074 9.082 3.076l-3.32 7.031a48.757 48.757 0 0 0-4.891-1.912 58.423 58.423 0 0 0-2.604-.798 30.912 30.912 0 0 0-6.202-1.057 36.924 36.924 0 0 0-2.612-.09 29.653 29.653 0 0 0-5.94.571 23.927 23.927 0 0 0-4.68 1.455 21.744 21.744 0 0 0-8.008 5.859 25.23 25.23 0 0 0-3.943 6.33 30.898 30.898 0 0 0-1.111 2.923 35.339 35.339 0 0 0-1.445 6.724 46.257 46.257 0 0 0-.312 5.483 48.53 48.53 0 0 0 .537 7.408q.637 4.122 2.029 7.607a29.735 29.735 0 0 0 .241.586 23.464 23.464 0 0 0 4.177 6.646 21.151 21.151 0 0 0 4.222 3.583 21.7 21.7 0 0 0 7.164 2.919q2.848.63 6.139.689a38.248 38.248 0 0 0 .686.006 50.55 50.55 0 0 0 6.306-.38 43.149 43.149 0 0 0 2.703-.426q4.223-.806 8.227-2.026zm146.631 9.13h-8.594l-8.789-22.656h-28.613l-8.74 22.656h-8.399L162.598.831h7.471l27.734 71.679zm-69.238-35.791q0 8.252-2.1 15.015a34.85 34.85 0 0 1-3.363 7.622 29.984 29.984 0 0 1-2.862 3.999 27.524 27.524 0 0 1-10.23 7.495 31.269 31.269 0 0 1-7.484 2.132 42.209 42.209 0 0 1-6.676.505 44.112 44.112 0 0 1-7.086-.541q-4.014-.654-7.392-2.096-6.176-2.636-10.253-7.519a31.1 31.1 0 0 1-4.963-8.396 37.547 37.547 0 0 1-1.141-3.274 48.033 48.033 0 0 1-1.729-8.936 60.825 60.825 0 0 1-.297-6.103 56.056 56.056 0 0 1 .794-9.664 41.492 41.492 0 0 1 2.819-9.526A27.963 27.963 0 0 1 77.564 4.591Q84.476.273 94.693.017a51.954 51.954 0 0 1 1.303-.016 41.123 41.123 0 0 1 8.057.749q5.485 1.095 9.79 3.792a28.542 28.542 0 0 1 10.839 12.448 34.344 34.344 0 0 1 .148.32 40.346 40.346 0 0 1 2.968 9.883q.755 4.39.767 9.368a66.772 66.772 0 0 1 0 .158zM247.657 72.51h-39.991V1.124h8.301v63.965h31.69v7.421zM73.921 51.369a31.518 31.518 0 0 0 .396 1.073 23.325 23.325 0 0 0 3.465 6.123 20.029 20.029 0 0 0 4.469 4.131 20.136 20.136 0 0 0 6.717 2.871q3.143.742 6.882.742 7.004 0 11.87-2.572a17.972 17.972 0 0 0 1.729-1.041q5.297-3.613 7.837-10.254a36.585 36.585 0 0 0 1.899-7.22q.559-3.447.629-7.364a63.338 63.338 0 0 0 .011-1.139 53.267 53.267 0 0 0-.623-8.419q-1.276-7.954-5.164-13.187-5.786-7.788-18.042-7.788-7.125 0-12.092 2.626a18.469 18.469 0 0 0-1.579.938q-5.371 3.565-7.984 10.132a34.817 34.817 0 0 0-1.918 6.964q-.564 3.271-.67 6.993a61.285 61.285 0 0 0-.024 1.741q0 8.359 2.192 14.65zm80.669-8.888h23.34l-8.35-22.51a345.04 345.04 0 0 1-.169-.509q-.258-.778-.681-2.062a2431.99 2431.99 0 0 1-.102-.309 429.634 429.634 0 0 1-1.172-3.616 474.46 474.46 0 0 1-.17-.535 460.563 460.563 0 0 0-.327-1.022q-.401-1.251-.701-2.157a137.688 137.688 0 0 0-.095-.288 109.933 109.933 0 0 1-1.05 3.98 134.267 134.267 0 0 1-.556 1.904 107.126 107.126 0 0 1-.543 1.758 324.274 324.274 0 0 1-.382 1.191q-.151.467-.287.883a160.087 160.087 0 0 1-.259.782l-8.496 22.51z" vector-effect="non-scaling-stroke" fill="#000" fill-rule="evenodd" stroke="#000" stroke-linecap="round" stroke-width=".25mm"/></svg>