<svg xmlns="http://www.w3.org/2000/svg" role="img" viewBox="-0.66 -0.59 30.81 12.00"><title>pymt logo</title><g transform="translate(-1.084 8.426)"><path d="M6.84375-3.35156q0 .79687-.22852 1.45898-.22851.65625-.64453 1.11328-.38672.4336-.91406.67383-.52148.23438-1.10742.23438-.50977 0-.92578-.11133-.41016-.11133-.8379-.3457v2.74218H1.08399v-8.95898h1.10157v.68555q.43945-.36915.98437-.61524.55078-.25195 1.17188-.25195 1.1836 0 1.83984.89648.66211.89063.66211 2.47852zm-1.13672.0293q0-1.1836-.4043-1.76954-.4043-.58593-1.24218-.58593-.47461 0-.95508.20507-.48047.20508-.91992.53907v3.70898q.46875.21094.80273.28711.33984.07617.76758.07617.91992 0 1.43555-.6211.51562-.62109.51562-1.83984z"/><path d="M14.1914-6.54492l-3.8203 8.95898H9.19335L10.4121-.3164 7.80469-6.54492H9l2.00977 4.85156 2.02734-4.85156z"/><path d="M25.1836 0h-1.10157v-3.72656q0-.42188-.04102-.81446-.03516-.39257-.1582-.62695-.13477-.25195-.38672-.38086-.25195-.1289-.72656-.1289-.4629 0-.92578.23437-.4629.22852-.92579.58594.01758.13476.0293.3164.01172.17579.01172.35157V0h-1.10156v-3.72656q0-.4336-.04102-.82031-.03516-.39258-.1582-.62696-.13477-.25195-.38672-.375-.25195-.1289-.72656-.1289-.45117 0-.9082.22265-.45118.22266-.90235.56836V0h-1.10156v-6.54492h1.10156v.72656q.51563-.42773 1.0254-.66797.51562-.24023 1.0957-.24023.66796 0 1.13085.28125.46875.28125.69727.7793.66797-.5625 1.21875-.8086.55078-.25195 1.17773-.25195 1.07813 0 1.5879.65625.51562.65039.51562 1.82226z"/><path d="M30.70313-.0586q-.31055.08204-.6797.13477-.36327.05274-.65038.05274-1.00196 0-1.52344-.53907-.52148-.53906-.52148-1.72851v-3.48047h-.74415v-.92578h.74415v-1.88086h1.10156v1.88086h2.27344v.92578h-2.27344v2.98242q0 .51563.02344.8086.02344.2871.16406.53906.1289.23437.35156.3457.22852.10547.6914.10547.26954 0 .5625-.07617.29298-.08203.42188-.13477h.0586z"/></g></svg>