<svg xmlns="http://www.w3.org/2000/svg" role="img" viewBox="-8.29 -8.29 418.08 106.08"><title>pyvortex logo</title><path d="M55.8 87.7l2-7.5a9.908 9.908 0 0 0 1.165.574q.823.345 1.835.626a13.514 13.514 0 0 0 2.279.417 17.358 17.358 0 0 0 1.721.083q4.2 0 7.5-2.7a12.003 12.003 0 0 0 1.933-2.061q1.748-2.311 3.408-6.164A58.58 58.58 0 0 0 78.6 68.6l2.3-6h-4.8L55.8 16.9l8-3.6 19.4 43.3 15.1-42.9 8.3 3.2-19.1 52.2a71.728 71.728 0 0 1-2.053 5.086q-1.102 2.44-2.269 4.428A30.86 30.86 0 0 1 81.2 81.6a24.268 24.268 0 0 1-2.878 3.211q-1.914 1.768-4.017 2.807a14.737 14.737 0 0 1-.605.282q-4.1 1.8-9.1 1.8-3 0-5.25-.6t-3.55-1.4zm345.9-26.1l-6.8 5.8-17.5-21.7-17.3 21.5-6.4-5.6 18.5-21.5-17.8-20.6 7-6.1 16.1 20.8 15.8-20.4 6.7 5.7-17.3 20.2 19 21.9zM14.9 88.5h-9V27.8a11.015 11.015 0 0 0-.127-1.736q-.331-2.066-1.523-3.114a5.718 5.718 0 0 0-2.79-1.322A7.991 7.991 0 0 0 0 21.5l1.9-7q5.862 0 8.922 2.964A10.15 10.15 0 0 1 13.4 21.8q.955-1.433 3.052-3.323a38.58 38.58 0 0 1 .198-.177 18.902 18.902 0 0 1 2.701-1.984A25.569 25.569 0 0 1 22.25 14.8a16.955 16.955 0 0 1 4.559-1.289A21.886 21.886 0 0 1 29.9 13.3q6 0 11.25 3.15a22.329 22.329 0 0 1 7.178 6.967A27.464 27.464 0 0 1 49.6 25.55Q52.8 31.5 52.8 40q0 8.3-3.2 14.55a27.846 27.846 0 0 1-3.934 5.832 23.029 23.029 0 0 1-4.416 3.868Q36.1 67.7 30.1 67.7q-4.6 0-8.6-1.85a30.352 30.352 0 0 1-3.416-1.839Q16.291 62.884 14.9 61.6v26.9zm333.5-44.3H312a24.088 24.088 0 0 0 1.139 5.025q1.336 3.813 3.961 6.375 4.2 4.1 11.1 4.1 4.5 0 8.1-.95 3.6-.95 6.9-2.45l2.1 7.7a40.77 40.77 0 0 1-4.335 1.626 51.863 51.863 0 0 1-3.765 1.024 38.914 38.914 0 0 1-5.092.819 52.025 52.025 0 0 1-5.008.231 28.318 28.318 0 0 1-7.746-1.005 21.108 21.108 0 0 1-10.004-6.145 23.521 23.521 0 0 1-5.205-9.54Q302.8 46.345 302.8 40.5a35.359 35.359 0 0 1 .833-7.822 28.84 28.84 0 0 1 2.117-6.128 24.642 24.642 0 0 1 5.016-7.082A22.887 22.887 0 0 1 314 16.85a21.048 21.048 0 0 1 10.259-3.472 26.205 26.205 0 0 1 2.041-.078q7.5 0 12.45 3.25 4.95 3.25 7.45 8.75a28.185 28.185 0 0 1 2.426 9.864 33.434 33.434 0 0 1 .074 2.236 75.204 75.204 0 0 1-.291 6.697 69.426 69.426 0 0 1-.009.103zM138.9 66.5h-9.4l-20.9-49.6 8.2-3.4 17.7 42.8 17.7-42.8 7.7 3.4-21 49.6zm131.7-17.9V24.2h-9v-7.8h9.2L272.7 0h6.9v16.4H294v7.8h-14.4v25.1a21.559 21.559 0 0 0 .168 2.796q.473 3.606 2.282 5.304 2.45 2.3 5.85 2.3 2.5 0 4.75-.8t4.15-1.9l2.5 7.2a18.546 18.546 0 0 1-1.618.856q-.802.379-1.748.752a43.365 43.365 0 0 1-2.034.742q-3.4 1.15-7.1 1.15-7.5 0-11.85-4.95a16.116 16.116 0 0 1-3.228-5.902q-.763-2.431-1.007-5.368a34.777 34.777 0 0 1-.115-2.88zm-34.9 17.9h-9v-52h8.7v11.3q1.3-3.3 3.5-6.15 2.2-2.85 5.5-4.6a14.817 14.817 0 0 1 4.68-1.524 19.459 19.459 0 0 1 3.02-.226q1.5 0 3 .15a18.972 18.972 0 0 1 1.055.134q.5.078.927.178a8.817 8.817 0 0 1 .518.138l-2.7 9.3a9.763 9.763 0 0 0-2.145-.612q-1.096-.188-2.355-.188a12.958 12.958 0 0 0-6.63 1.846 15.609 15.609 0 0 0-.42.254q-3.328 2.086-5.472 6.442a22.927 22.927 0 0 0-.028.058q-1.763 3.607-2.08 8.828a39.09 39.09 0 0 0-.07 2.372v24.3zm-60.2-2.25a24.559 24.559 0 0 0 4.598 2.09q4.055 1.36 8.702 1.36 7.4 0 13.25-3.4t9.25-9.55a26.255 26.255 0 0 0 2.653-7.141 34.184 34.184 0 0 0 .747-7.309 34.542 34.542 0 0 0-.485-5.909 25.795 25.795 0 0 0-2.965-8.441q-3.45-6.05-9.3-9.35a24.848 24.848 0 0 0-4.641-2.027A27.738 27.738 0 0 0 188.8 13.3a31.325 31.325 0 0 0-1.58.039A26.169 26.169 0 0 0 175.6 16.6q-5.9 3.3-9.3 9.4a26.023 26.023 0 0 0-2.749 7.59 35.006 35.006 0 0 0-.651 6.91 34.82 34.82 0 0 0 .265 4.354 27.451 27.451 0 0 0 3.085 9.796q3.35 6.15 9.25 9.6zm13.3-4.55q7.9 0 12.3-5.35a18.802 18.802 0 0 0 3.819-8.09 27.105 27.105 0 0 0 .581-5.76q0-5.2-2.2-9.55a19.198 19.198 0 0 0-4.172-5.569 18.17 18.17 0 0 0-1.778-1.431q-3.75-2.65-8.55-2.65a19.249 19.249 0 0 0-5.226.672A14.037 14.037 0 0 0 176.5 26.5a17.878 17.878 0 0 0-3.674 7.374q-.726 2.932-.726 6.426 0 5.2 2.2 9.65a19.437 19.437 0 0 0 3.53 5.04 17.627 17.627 0 0 0 2.42 2.06q3.75 2.65 8.55 2.65zM14.9 27.9v25.6q2.6 2.7 6 4.45t7.4 1.75q6.694 0 10.917-5.184a17.38 17.38 0 0 0 .133-.166 18.792 18.792 0 0 0 3.494-7.306q.661-2.689.744-5.836a34.555 34.555 0 0 0 .012-.908q0-6-2.15-10.3-2.15-4.3-5.7-6.6-3.55-2.3-7.85-2.3a14.741 14.741 0 0 0-5.627 1.063 14.054 14.054 0 0 0-2.123 1.087Q16.7 25.4 14.9 27.9zm297 9h28.5a24.355 24.355 0 0 0-.404-4.585q-.496-2.584-1.6-4.608A12.422 12.422 0 0 0 336.6 25.2a12.488 12.488 0 0 0-6.961-3.776 18.395 18.395 0 0 0-3.539-.324 13.58 13.58 0 0 0-5.112.935 12.524 12.524 0 0 0-4.488 3.115q-3.8 4.05-4.6 11.75z" vector-effect="non-scaling-stroke" fill="#000" fill-rule="evenodd" stroke="#000" stroke-linecap="round" stroke-width=".25mm"/></svg>