<svg xmlns="http://www.w3.org/2000/svg" role="img" viewBox="16.02 16.02 1246.96 179.96"><title>Recurve logo</title><path fill="#000615" d="M515.659 171.2H430.7c-2.174 0-4.514-.257-7.02-.77a36.08 36.08 0 0 1-7.427-2.4c-2.445-1.088-4.785-2.492-7.02-4.212-2.233-1.721-4.211-3.805-5.932-6.25-1.72-2.445-3.094-5.283-4.121-8.514-1.026-3.23-1.54-6.868-1.54-10.914V74.376c0-2.174.257-4.513.77-7.02a36.08 36.08 0 0 1 2.4-7.426c1.087-2.446 2.506-4.785 4.257-7.02 1.751-2.234 3.85-4.211 6.295-5.932 2.446-1.721 5.269-3.095 8.469-4.121 3.2-1.027 6.823-1.54 10.869-1.54h84.958V58.28a6.585 6.585 0 0 1-6.585 6.585H430.7c-3.08 0-5.435.815-7.065 2.446-1.63 1.63-2.446 4.045-2.446 7.245v63.583c0 3.02.83 5.359 2.491 7.02 1.66 1.66 4 2.49 7.02 2.49h78.373a6.585 6.585 0 0 1 6.585 6.585v16.964zm558.714-129.883l-61.499 125.263c-.966 1.932-2.4 3.487-4.302 4.665-1.902 1.177-4 1.766-6.295 1.766a11.57 11.57 0 0 1-6.204-1.766c-1.902-1.178-3.367-2.733-4.393-4.665L930.27 41.317h22.243a6.585 6.585 0 0 1 5.918 3.697l43.845 89.865 44.024-89.874a6.585 6.585 0 0 1 5.913-3.688h22.16zM698.18 171.199h-64.942c-5.011 0-10.083-.543-15.216-1.63a67.684 67.684 0 0 1-14.9-5.027c-4.8-2.264-9.313-5.147-13.54-8.65-4.227-3.502-7.925-7.653-11.095-12.453-3.17-4.8-5.661-10.296-7.473-16.485-1.811-6.19-2.717-13.088-2.717-20.696V41.317h16.965a6.585 6.585 0 0 1 6.584 6.585v58.356c0 6.642.921 12.258 2.763 16.847 1.841 4.589 4.181 8.423 7.02 11.503 2.837 3.08 5.947 5.494 9.328 7.246 3.382 1.75 6.597 3.049 9.646 3.894 3.05.846 5.737 1.374 8.061 1.585 2.325.212 3.85.317 4.574.317h41.392V47.902a6.585 6.585 0 0 1 6.585-6.585h16.965v129.882zm446.127-53.321v20.295c0 3.123.827 5.51 2.48 7.164 1.653 1.653 4.071 2.48 7.255 2.48h79.374A6.585 6.585 0 0 1 1240 154.4v17.293h-86.143c-3.306 0-6.918-.582-10.837-1.745-3.918-1.163-7.545-3.077-10.882-5.74-3.337-2.663-6.123-6.122-8.357-10.377-2.235-4.256-3.352-9.475-3.352-15.659V52.031c0-1.653.306-3.215.918-4.684a12.212 12.212 0 0 1 2.525-3.857 11.326 11.326 0 0 1 3.812-2.572c1.47-.612 3.06-.918 4.775-.918H1240v17.293a6.585 6.585 0 0 1-6.585 6.585h-89.109v29.938h84.95v24.062h-84.95zm-807.104.462H235.468c-4.385 0-7.94-3.536-7.94-7.9V94.499h117.615v15.943c0 4.363-3.555 7.9-7.941 7.9zm-.191 54.498H235.277c-4.386 0-7.941-3.537-7.941-7.9v-15.943H344.95v15.944c0 4.362-3.555 7.9-7.94 7.9zm.19-108.995H235.469c-4.385 0-7.94-3.537-7.94-7.9V40h117.615v15.943c0 4.363-3.555 7.9-7.941 7.9zM64.36 64.48v85.266c0 12.623-10.233 22.857-22.857 22.857H40V40h99.787c20.003 0 35.754 17.219 35.754 37.945 0 15.903-9.35 30.116-23.436 35.588l-.423.165-25.626 7.826 49.872 51.487H137.99l-41.728-43.962a15.882 15.882 0 0 1-3.67-6.295c-2.562-8.389 2.161-17.266 10.55-19.828l40.435-12.35c4.33-1.865 7.484-6.805 7.484-12.631 0-7.669-5.302-13.465-11.274-13.465H64.359zm718.57 0v85.266c0 12.623-10.234 22.857-22.857 22.857h-1.502V40h99.787c20.003 0 35.754 17.219 35.754 37.945 0 15.903-9.35 30.116-23.437 35.588l-.423.165-25.625 7.826 49.872 51.487H856.56l-41.728-43.962a15.882 15.882 0 0 1-3.67-6.295c-2.563-8.389 2.16-17.266 10.55-19.828l40.434-12.35c4.331-1.865 7.484-6.805 7.484-12.631 0-7.669-5.301-13.465-11.273-13.465h-75.428z"/></svg>