<svg xmlns="http://www.w3.org/2000/svg" role="img" viewBox="-3.20 -3.20 192.66 89.91"><title>Regen Ledger logo</title><g fill="#fff" clip-path="url(#clip0)"><path d="M39.8276 27.3231v.0515L34.9844 1.80445 30.9656.51562l-2.5247 3.40249L39.8276 27.3231zm2.6277-10.6715l2.061 9.8981 2.2155-10.0528-2.164-1.4434-2.1125 1.5981zm15.3024 1.7529l-2.6277.2578-3.0914 9.795 6.8011-7.6813-1.082-2.3715zm22.4643 2.0621v-4.1758l-4.0704-1.2888-19.0637 17.8888L80.222 20.4666zM33.6447 31.0348l-5.6676-8.5062.1031.2062-.1031-.2062-2.5761.4124-.4122 2.5776 8.6559 5.5162zm36.4788 8.661l-10.1501 2.0106 10.1501 2.2167 1.5457-2.1136-1.5457-2.1137zm-41.0128 2.0621L3.03979 38.4585.51514 41.861l2.52465 3.4025 26.07091-3.5056zm-9.635 5.6707l-.7728 2.4229 2.1124 1.5466 9.0167-5.0522-10.3563 1.0827zm2.9884 7.1658l-.103 2.5777 2.4731.8764 7.2133-7.5783-9.5834 4.1242zm12.9839-.6186l-7.677 6.7534.6698 2.4746 2.6277.1031 4.3795-9.3311zm9.1198 2.99l-2.061 10.0013 2.1125 1.495 2.1125-1.5466-2.164-9.9497zm35.7057 6.0833L57.0879 50.728l19.1667 17.7857 4.0189-1.2888v-4.1758zm-25.5557 1.9075l-5.2039-8.7125 1.1851 10.0013 2.4731.7733 1.5457-2.0621zm-14.8387-8.7125L28.5955 79.7007l2.5246 3.4024 4.0188-1.2888 4.7402-25.5702zm74.4519-23.044c.669-.2062 1.236-.5155 1.7-.9279 1.082-.8764 1.649-2.1652 1.649-3.8665 0-1.5466-.567-2.7838-1.649-3.7118-1.082-.9279-2.628-1.3919-4.637-1.3919h-7.935v16.6516h4.277v-6.1348h2.627l3.555 6.0832h4.792l-4.379-6.7019zm-6.595-6.7018h3.091c.824 0 1.494.1546 1.906.5155.413.3609.619.8764.619 1.5981 0 .7218-.206 1.2889-.619 1.5982-.412.3608-1.03.5155-1.906.5155h-3.091v-4.2273zm26.38 10.0528h-8.965v-3.4025h6.852v-3.1447h-6.852v-3.4025h8.604v-3.3509h-12.984V39.902h13.345v-3.3509zm9.841-2.7323h3.812v.2578c0 .4639-.103.8764-.257 1.2372-.155.3609-.412.6187-.722.8764-.309.2578-.669.4125-1.082.5156-.412.1031-.875.1546-1.339.1546-.928 0-1.649-.2062-2.267-.5671-.619-.3608-1.082-.9795-1.391-1.7528-.309-.7733-.464-1.7528-.464-2.9385 0-1.1341.155-2.0621.464-2.8354.309-.7733.773-1.3403 1.339-1.7528.567-.4124 1.288-.6186 2.113-.6186.824 0 1.494.2062 2.061.5671.566.4124.927 1.031 1.185 1.8559l4.019-1.5982c-.619-1.495-1.546-2.5776-2.68-3.2478-1.185-.6702-2.679-1.031-4.585-1.031-1.701 0-3.195.3608-4.431 1.031-1.237.6702-2.216 1.7013-2.886 2.9385-.669 1.2888-1.03 2.8354-1.03 4.6398 0 1.8559.309 3.4025.979 4.6913.618 1.2888 1.546 2.2683 2.679 2.8869 1.134.6702 2.473.9795 3.967.9795 1.443 0 2.628-.3093 3.556-.9279.566-.3609.978-.8764 1.339-1.4435l.155 2.1137h2.937v-8.9187h-7.523v2.887h.052zm24.061 2.7323h-8.965v-3.4025h6.904v-3.1447h-6.904v-3.4025h8.656v-3.3509h-12.984V39.902h13.293v-3.3509zm17.621 3.3509V23.2505h-3.864v8.4031l.103 3.0932-1.288-2.4746-5.152-9.0217h-4.844V39.902h3.865v-8.4031l-.103-3.0931 1.288 2.4745 5.152 9.0217h4.843zm-74.297 16.7546l.103 1.8559h-.051l-1.237-2.3199-4.791-7.6814h-1.752v11.5479h1.339v-8.1454l-.103-1.8559h.052l1.236 2.2683 4.792 7.733h1.752V48.5112h-1.34v8.1454zm6.08-1.8044h5.204v-1.2888h-5.204v-3.7633h6.698v-1.2889h-8.141v11.5479h8.399v-1.2889h-6.956v-3.918zm7.935-5.0521h4.019v10.259h1.442v-10.259h4.019v-1.2889h-9.48v1.2889zm21.537 9.1764l-2.731-10.4653h-1.597l-2.731 10.4653-2.782-10.4653h-1.495l3.401 11.5479h1.752l2.009-7.4752.618-2.6292.619 2.6292 2.009 7.4752h1.752l3.4-11.5479h-1.442l-2.782 10.4653zm10.819-10.6713c-3.297 0-5.358 2.3199-5.358 5.9801 0 3.6603 2.061 5.9801 5.358 5.9801 3.298 0 5.359-2.3198 5.359-5.9801 0-3.6602-2.113-5.9801-5.359-5.9801zm0 10.6199c-2.421 0-3.864-1.7528-3.864-4.6398 0-2.887 1.494-4.6397 3.864-4.6397 2.422 0 3.865 1.7527 3.865 4.6397 0 2.887-1.494 4.6398-3.865 4.6398zm16.23-7.0629c0-2.0621-1.545-3.4025-3.915-3.4025h-4.38v11.5479h1.391v-4.7945h2.783l3.143 4.7945h1.648l-3.246-4.9491c1.598-.3609 2.576-1.5466 2.576-3.1963zm-6.904 2.0621v-4.1242h2.937c1.649 0 2.473.6702 2.473 2.0621 0 1.3919-.824 2.0621-2.473 2.0621h-2.937zm14.221-.7218l4.637-4.6913h-1.855l-5.822 5.9286v-5.9286h-1.391v11.5479h1.391v-3.7118l2.061-2.1137 3.967 5.8255h1.701l-4.689-6.8566z"/></g><defs><clipPath id="clip0"><path fill="#fff" d="M0 0h185.433v82.588H0z" transform="translate(.515 .516)"/></clipPath></defs></svg>