<svg xmlns="http://www.w3.org/2000/svg" role="img" viewBox="-0.87 -0.80 41.80 10.86"><title>remind logo</title><g transform="translate(-1.084 9.117)"><path d="M5.16797-5.34375h-.0586q-.24609-.0586-.48046-.08203-.22852-.0293-.54493-.0293-.50976 0-.98437.22852-.47461.22265-.91406.58008V0H1.08398v-6.54492h1.10157v.9668q.65625-.52735 1.1543-.74415.5039-.22265 1.02538-.22265.28711 0 .41602.01758.1289.01172.38672.05273z"/><path d="M11.6836-3.1582H6.86132q0 .60351.18164 1.05468.18164.44532.49805.73243.30468.28125.7207.42187.42187.14063.92578.14063.66797 0 1.3418-.26368.67968-.26953.9668-.52734h.05858v1.20117q-.55664.23438-1.13671.39258-.58008.1582-1.21876.1582-1.6289 0-2.54296-.8789-.91407-.88477-.91407-2.50782 0-1.60546.87305-2.54882.8789-.94336 2.3086-.94336 1.32421 0 2.03906.77344.7207.77343.7207 2.19726zm-1.07227-.84375q-.0059-.8672-.43946-1.3418-.42773-.4746-1.30664-.4746-.88476 0-1.4121.52147-.52149.52149-.5918 1.29493z"/><path d="M22.9043 0h-1.10157v-3.72656q0-.42188-.04102-.81446-.03516-.39257-.1582-.62695-.13476-.25195-.38672-.38086-.25195-.1289-.72656-.1289-.4629 0-.92578.23437-.4629.22852-.92578.58594.01758.13476.0293.3164.01172.17579.01172.35157V0h-1.10156v-3.72656q0-.4336-.04103-.82031-.03515-.39258-.1582-.62696-.13476-.25195-.38672-.375-.25195-.1289-.72656-.1289-.45117 0-.9082.22265-.45117.22266-.90235.56836V0h-1.10156v-6.54492h1.10156v.72656q.51563-.42773 1.0254-.66797.51562-.24023 1.0957-.24023.66797 0 1.13086.28125.46875.28125.69726.7793.66797-.5625 1.21875-.8086.55078-.25195 1.17774-.25195 1.07812 0 1.58789.65625.51562.65039.51562 1.82226z"/><path d="M26.20898-7.64063H24.9668V-8.7832h1.24218zM26.13868 0H25.0371v-6.54492h1.10156z"/><path d="M33.79102 0h-1.10157v-3.72656q0-.45117-.05273-.84375-.05273-.39844-.19336-.6211-.14648-.24609-.42187-.36328-.2754-.12304-.71484-.12304-.45118 0-.94336.22265-.4922.22266-.94336.56836V0h-1.10157v-6.54492h1.10157v.72656q.51562-.42773 1.0664-.66797.55078-.24023 1.13086-.24023 1.06055 0 1.61719.63867.55664.63867.55664 1.83984z"/><path d="M41.2207 0h-1.10156v-.68555q-.4746.41016-.99023.63867-.51563.22852-1.11914.22852-1.17188 0-1.86329-.90234-.68554-.90235-.68554-2.50196 0-.83203.23437-1.48242.24024-.65039.64453-1.10742.39844-.44531.92578-.67969.5332-.23437 1.10157-.23437.51562 0 .91406.11133.39844.10546.8379.33398v-2.83594h1.10155zm-1.10156-1.61133v-3.75586q-.44531-.19922-.79687-.27539-.35157-.07617-.76758-.07617-.92578 0-1.4414.64453-.51563.64453-.51563 1.82813 0 1.16601.39843 1.77539.39844.60351 1.27735.60351.46875 0 .94922-.20508.48047-.21093.89648-.53906z"/></g></svg>