<svg xmlns="http://www.w3.org/2000/svg" role="img" viewBox="-1.26 -1.26 65.26 11.38"><title>Renewcast logo</title><g transform="translate(-1.172 8.725)"><path d="M8.39063 0H6.88476L3.9668-3.46875H2.33203V0H1.17187v-8.7246h2.44336q.79102 0 1.31836.10546.52735.0996.94922.36328.47461.29883.73828.75586.26953.45117.26953 1.14844 0 .94336-.4746 1.58203-.47461.63281-1.30665.95508zm-2.7129-6.26953q0-.375-.13476-.66211-.1289-.29297-.4336-.49219-.25195-.16992-.59765-.23437-.3457-.07032-.81445-.07032H2.33203v3.29297h1.17188q.55078 0 .96093-.09375.41016-.0996.69727-.36328.26367-.2461.38672-.5625.1289-.32226.1289-.81445z"/><path d="M14.61328-3.1582H9.79102q0 .60351.18164 1.05468.18164.44532.49804.73243.3047.28125.7207.42187.42188.14063.92579.14063.66797 0 1.3418-.26368.67968-.26953.9668-.52734h.05858v1.20117q-.55664.23438-1.13672.39258-.58008.1582-1.21875.1582-1.6289 0-2.54297-.8789-.91405-.88477-.91405-2.50782 0-1.60546.87304-2.54882.8789-.94336 2.3086-.94336 1.32421 0 2.03906.77344.7207.77343.7207 2.19726zm-1.07226-.84375q-.0059-.8672-.43946-1.3418-.42773-.4746-1.30664-.4746-.88476 0-1.4121.52147-.5215.52149-.5918 1.29493z"/><path d="M21.75586 0H20.6543v-3.72656q0-.45117-.05273-.84375-.05273-.39844-.19336-.6211-.14649-.24609-.42188-.36328-.27539-.12304-.71484-.12304-.45117 0-.94336.22265-.49219.22266-.94336.56836V0h-1.10156v-6.54492h1.10156v.72656q.51563-.42773 1.0664-.66797.55079-.24023 1.13087-.24023 1.06054 0 1.61718.63867t.55664 1.83984z"/><path d="M29.35547-3.1582H24.5332q0 .60351.18164 1.05468.18164.44532.49805.73243.30469.28125.7207.42187.42188.14063.92579.14063.66796 0 1.3418-.26368.67968-.26953.96679-.52734h.05859v1.20117q-.55664.23438-1.13672.39258-.58008.1582-1.21875.1582-1.6289 0-2.54297-.8789-.91406-.88477-.91406-2.50782 0-1.60546.87305-2.54882.8789-.94336 2.30859-.94336 1.32422 0 2.03906.77344.7207.77343.7207 2.19726zm-1.07227-.84375q-.0059-.8672-.43945-1.3418-.42773-.4746-1.30664-.4746-.88477 0-1.41211.52147-.52148.52149-.5918 1.29493z"/><path d="M39.25781-6.54492L37.55273 0H36.5332l-1.68164-5.04492L33.18164 0h-1.01367L30.4453-6.54492h1.14844l1.20117 5.06836 1.63477-5.06836h.9082l1.67578 5.06836 1.13672-5.06836z"/><path d="M45.68555-.41016Q45.13477-.14648 44.63672 0q-.49219.14648-1.04883.14648-.70898 0-1.30078-.20507-.5918-.21094-1.01367-.63282-.42774-.42187-.66211-1.0664-.23438-.64453-.23438-1.50586 0-1.60547.8789-2.51953.88477-.91407 2.33204-.91407.5625 0 1.10156.1582.54492.15821.9961.38673v1.2246h-.0586q-.5039-.39257-1.04296-.60351-.5332-.21094-1.04297-.21094-.9375 0-1.48242.63281-.53906.62696-.53906 1.8457 0 1.1836.52734 1.82227.5332.63282 1.49414.63282.33398 0 .67969-.0879.3457-.08788.6211-.22851.24023-.12305.45116-.25781.21094-.14063.33399-.24024h.05859z"/><path d="M52.1836 0h-1.0957v-.69727q-.1465.09961-.39845.28125-.2461.17579-.48047.28125Q49.9336 0 49.57618.0879q-.35743.09375-.8379.09375-.88476 0-1.5-.58594-.61523-.58593-.61523-1.49414 0-.74414.3164-1.20117.32227-.46289.91407-.72656.59765-.26367 1.43554-.35742.8379-.09375 1.79883-.14063v-.16992q0-.375-.13477-.6211-.1289-.24609-.375-.38671-.23437-.13477-.5625-.18164-.32812-.04688-.68554-.04688-.4336 0-.9668.11719-.5332.11133-1.10156.32812h-.0586V-6.4043q.32227-.08789.93165-.19336.60937-.10547 1.20117-.10547.6914 0 1.20117.1172.51563.11132.89063.38671.36914.26953.5625.69727.19336.42773.19336 1.06054zm-1.0957-1.61133v-1.82226q-.50392.0293-1.18946.08789-.67969.0586-1.07813.16992-.4746.13476-.76758.42187-.29296.28125-.29296.7793 0 .5625.33984.84961.33984.28125 1.0371.28125.58009 0 1.06056-.22266.48046-.22851.89062-.54492z"/><path d="M58.98047-1.88672q0 .89649-.74414 1.4707-.73828.57422-2.02149.57422-.72656 0-1.33593-.16992-.60352-.17578-1.01368-.38086V-1.6289h.0586q.52148.39258 1.16015.62696.63867.22851 1.22461.22851.72656 0 1.13672-.23437.41016-.23438.41016-.73828 0-.38672-.22266-.58594t-.85547-.33984q-.23438-.05274-.61523-.12305-.375-.07031-.68555-.15235-.86133-.22851-1.22461-.66796-.35742-.44532-.35742-1.08985 0-.4043.16406-.76172.16992-.35742.50977-.63867.32812-.27539.83203-.4336.50976-.16405 1.13672-.16405.58593 0 1.18359.14648.60352.14062 1.00195.3457v1.17774h-.05859q-.42187-.31055-1.02539-.52149-.60351-.2168-1.1836-.2168-.6035 0-1.01952.23438-.41602.22852-.41602.68555 0 .4043.25195.60937.2461.20508.79688.33399.30469.0703.67969.14062.38086.07031.6328.1289.76759.17579 1.1836.60352.41602.4336.41602 1.14844z"/><path d="M63.95508-.0586q-.31055.08204-.67969.13477-.36328.05274-.65039.05274-1.00195 0-1.52344-.53907-.52148-.53906-.52148-1.72851v-3.48047h-.74414v-.92578h.74414v-1.88086h1.10156v1.88086h2.27344v.92578h-2.27344v2.98242q0 .51563.02344.8086.02344.2871.16406.53906.12891.23437.35157.3457.22851.10547.6914.10547.26953 0 .5625-.07617.29297-.08203.42188-.13477h.05859z"/></g></svg>