<svg xmlns="http://www.w3.org/2000/svg" role="img" viewBox="-7.98 -7.98 401.70 110.20"><title>RHESSys logo</title><path d="M71.2 71.2h-9.5v-70h9.5v29.9h34.5V1.2h9.5v70h-9.5V39.3H71.2v31.9zm104 0h-42v-70h42v8.2h-32.5v21.3h28v8h-28V63h32.5v8.2zm7.5-5.9l4.8-8q3.6 3 8.1 4.9a23.348 23.348 0 0 0 5.37 1.51 32.118 32.118 0 0 0 5.13.39 27.981 27.981 0 0 0 4.547-.346q2.423-.4 4.384-1.26A13.701 13.701 0 0 0 217.5 61.1q4.048-2.891 4.195-7.734A12.116 12.116 0 0 0 221.7 53a11.94 11.94 0 0 0-.337-2.893 9.816 9.816 0 0 0-.863-2.257 8.097 8.097 0 0 0-1.2-1.656q-1.27-1.381-3.416-2.723a25.81 25.81 0 0 0-.034-.021q-3.116-1.942-8.885-4.17a118.584 118.584 0 0 0-1.265-.48q-7.2-2.8-11.5-5.65a21.931 21.931 0 0 1-3.089-2.447q-1.717-1.65-2.773-3.515a13.303 13.303 0 0 1-.288-.538Q186.2 23 186.2 18t2.75-9.05q2.75-4.05 8.1-6.5a25.558 25.558 0 0 1 5.9-1.835Q206.193 0 210 0q6.2 0 11.15 1.25t9.65 3.55l-3.5 8.1a31.496 31.496 0 0 0-4.126-2.019 41.686 41.686 0 0 0-3.824-1.331Q214.8 8.2 209.8 8.2a27.187 27.187 0 0 0-4.03.28q-2.132.32-3.87 1.007a12.616 12.616 0 0 0-2.5 1.313 9.902 9.902 0 0 0-2.163 1.965A7.359 7.359 0 0 0 195.6 17.5a10.464 10.464 0 0 0 .292 2.522 8.562 8.562 0 0 0 .808 2.078q1.056 1.919 4.091 3.747a23.503 23.503 0 0 0 .259.153 33.003 33.003 0 0 0 2.216 1.172q2.269 1.103 5.48 2.351a130.016 130.016 0 0 0 2.054.777 81.228 81.228 0 0 1 4.978 2.029q4.386 1.971 7.372 4.071a26.044 26.044 0 0 1 3.04 2.478q2.223 2.128 3.41 4.472a17.579 17.579 0 0 1 1.741 5.863 22.155 22.155 0 0 1 .159 2.687 21.71 21.71 0 0 1-.667 5.501A17.105 17.105 0 0 1 228.25 63q-3.25 4.6-9 7a30.521 30.521 0 0 1-7.41 2.004 40.027 40.027 0 0 1-5.74.396q-7.3 0-13.3-1.95a38.206 38.206 0 0 1-5.367-2.182A28.433 28.433 0 0 1 182.7 65.3zm56.8 0l4.8-8q3.6 3 8.1 4.9a23.348 23.348 0 0 0 5.37 1.51 32.118 32.118 0 0 0 5.13.39 27.981 27.981 0 0 0 4.547-.346q2.423-.4 4.384-1.26A13.701 13.701 0 0 0 274.3 61.1q4.048-2.891 4.195-7.734A12.116 12.116 0 0 0 278.5 53a11.94 11.94 0 0 0-.337-2.893 9.816 9.816 0 0 0-.863-2.257 8.097 8.097 0 0 0-1.2-1.656q-1.27-1.381-3.416-2.723a25.81 25.81 0 0 0-.034-.021q-3.116-1.942-8.885-4.17a118.584 118.584 0 0 0-1.265-.48q-7.2-2.8-11.5-5.65a21.931 21.931 0 0 1-3.089-2.447q-1.717-1.65-2.773-3.515a13.303 13.303 0 0 1-.288-.538Q243 23 243 18t2.75-9.05q2.75-4.05 8.1-6.5a25.558 25.558 0 0 1 5.9-1.835Q262.993 0 266.8 0q6.2 0 11.15 1.25t9.65 3.55l-3.5 8.1a31.496 31.496 0 0 0-4.126-2.019 41.686 41.686 0 0 0-3.824-1.331Q271.6 8.2 266.6 8.2a27.187 27.187 0 0 0-4.03.28q-2.132.32-3.87 1.007a12.616 12.616 0 0 0-2.5 1.313 9.902 9.902 0 0 0-2.163 1.965A7.359 7.359 0 0 0 252.4 17.5a10.464 10.464 0 0 0 .292 2.522 8.562 8.562 0 0 0 .808 2.078q1.056 1.919 4.091 3.747a23.503 23.503 0 0 0 .259.153 33.003 33.003 0 0 0 2.216 1.172q2.269 1.103 5.48 2.351a130.016 130.016 0 0 0 2.054.777 81.228 81.228 0 0 1 4.978 2.029q4.386 1.971 7.372 4.071a26.044 26.044 0 0 1 3.04 2.478q2.223 2.128 3.41 4.472a17.579 17.579 0 0 1 1.741 5.863 22.155 22.155 0 0 1 .159 2.687 21.71 21.71 0 0 1-.667 5.501A17.105 17.105 0 0 1 285.05 63q-3.25 4.6-9 7a30.521 30.521 0 0 1-7.41 2.004 40.027 40.027 0 0 1-5.74.396q-7.3 0-13.3-1.95a38.206 38.206 0 0 1-5.367-2.182A28.433 28.433 0 0 1 239.5 65.3zm51.8 27.1l2-7.5a9.908 9.908 0 0 0 1.165.574q.823.345 1.835.626a13.514 13.514 0 0 0 2.279.418 17.358 17.358 0 0 0 1.721.082q4.2 0 7.5-2.7a12.003 12.003 0 0 0 1.933-2.061q1.748-2.311 3.408-6.164a58.58 58.58 0 0 0 .959-2.375l2.3-6h-4.8l-20.3-45.7 8-3.6 19.4 43.3 15.1-42.9 8.3 3.2L323 73.8a71.728 71.728 0 0 1-2.053 5.087q-1.102 2.439-2.269 4.427A30.86 30.86 0 0 1 316.7 86.3a24.268 24.268 0 0 1-2.878 3.211q-1.914 1.768-4.017 2.807a14.737 14.737 0 0 1-.605.282q-4.1 1.8-9.1 1.8-3 0-5.25-.6t-3.55-1.4zM49.7 68.2l-8.9 4.2-8.7-19a30.586 30.586 0 0 0-2.591-4.573Q27.003 45.222 23.8 43.3q-4.355-2.613-10.836-2.95A37.847 37.847 0 0 0 11 40.3H9.5v30.9H0V1.4Q5.3.9 10.15.65a187.94 187.94 0 0 1 6.316-.215A226.267 226.267 0 0 1 20.5.4q12.8 0 19.25 5.2a17.414 17.414 0 0 1 4.63 5.534Q46.2 14.644 46.2 19a19.88 19.88 0 0 1-.651 5.22 14.672 14.672 0 0 1-3.699 6.53Q37.5 35.2 29.3 37.4a23.656 23.656 0 0 1 3.429 1.863 20.427 20.427 0 0 1 1.371.987q1.969 1.547 3.805 4.06a29.29 29.29 0 0 1 .245.34q1.95 2.75 3.95 7.15l7.6 16.4zM346.6 67l3.8-7.5a18.557 18.557 0 0 0 3.144 2.126q1.554.845 3.406 1.524a24.073 24.073 0 0 0 7.611 1.437 27.464 27.464 0 0 0 .839.013q5.392 0 8.235-1.715a7.738 7.738 0 0 0 .215-.135q2.85-1.85 2.85-4.75a7.123 7.123 0 0 0-.314-2.147 6.212 6.212 0 0 0-.736-1.553 6.384 6.384 0 0 0-.929-1.094q-1.014-.972-2.687-1.925a22.3 22.3 0 0 0-.234-.131 28.462 28.462 0 0 0-1.994-.993q-2.116-.962-5.105-2.011a103.602 103.602 0 0 0-1.001-.346 46.616 46.616 0 0 1-4.398-1.743q-2.114-.974-3.79-2.062a19.335 19.335 0 0 1-2.762-2.145 11.324 11.324 0 0 1-3.294-5.996 16.794 16.794 0 0 1-.356-3.554q0-6 5.25-10.15 4.404-3.481 11.658-4.042A37.527 37.527 0 0 1 368.9 18a40.794 40.794 0 0 1 4.446.231q2.308.253 4.324.785a25.234 25.234 0 0 1 .13.034q3.9 1.05 7 2.65l-2.5 7.4q-2.7-1.6-6.15-2.6a25.024 25.024 0 0 0-4.483-.847 31.837 31.837 0 0 0-3.167-.153 20.632 20.632 0 0 0-2.937.195q-3.086.445-4.963 1.905a9.322 9.322 0 0 0-1.358 1.274q-.702.818-1.037 1.691a4.529 4.529 0 0 0-.305 1.635 4.921 4.921 0 0 0 1.495 3.552 7.082 7.082 0 0 0 .605.548q2.065 1.672 7.998 3.634a84.459 84.459 0 0 0 .202.066 67.753 67.753 0 0 1 5.062 1.898q5.927 2.519 8.738 5.402 3.9 4 3.9 10 0 6.749-5.251 10.755a16.618 16.618 0 0 1-.399.295q-4.74 3.398-12.188 3.945a40.423 40.423 0 0 1-2.962.105q-5.9 0-10.65-1.5a30.883 30.883 0 0 1-3.84-1.485q-1.981-.931-3.562-2.079A18.229 18.229 0 0 1 346.6 67zM9.5 8.8v23.5h11a26.489 26.489 0 0 0 4.923-.431q3.929-.744 6.777-2.769 4.5-3.2 4.5-9.2a9.811 9.811 0 0 0-3.273-7.464 13.272 13.272 0 0 0-.927-.786 13.923 13.923 0 0 0-4.364-2.221q-1.929-.611-4.259-.859A31.944 31.944 0 0 0 20.5 8.4q-3.174 0-5.738.087a118.974 118.974 0 0 0-.362.013q-2.7.1-4.9.3z" vector-effect="non-scaling-stroke" fill="#000" fill-rule="evenodd" stroke="#000" stroke-linecap="round" stroke-width=".25mm"/></svg>