<svg xmlns="http://www.w3.org/2000/svg" role="img" viewBox="-1.12 -1.06 55.19 13.62"><title>RivGraph logo</title><g transform="translate(-1.172 9.117)"><path d="M8.39063 0H6.88476L3.9668-3.46875H2.33203V0H1.17187v-8.7246h2.44336q.79102 0 1.31836.10546.52735.0996.94922.36328.47461.29883.73828.75586.26953.45117.26953 1.14844 0 .94336-.4746 1.58203-.47461.63281-1.30665.95508zm-2.7129-6.26953q0-.375-.13476-.66211-.1289-.29297-.4336-.49219-.25195-.16992-.59765-.23437-.3457-.07032-.81445-.07032H2.33203v3.29297h1.17188q.55078 0 .96093-.09375.41016-.0996.69727-.36328.26367-.2461.38672-.5625.1289-.32226.1289-.81445z"/><path d="M10.61133-7.64063H9.36914V-8.7832h1.24219zM10.54102 0H9.43945v-6.54492h1.10157z"/><path d="M18.38086-6.54492L15.73242 0H14.625l-2.63086-6.54492h1.19531l2.02735 5.20898 2.00976-5.20898z"/><path d="M27.1875-.64453q-.71484.32812-1.56445.57422-.84375.24023-1.63477.24023-1.01953 0-1.86914-.28125-.8496-.28125-1.44727-.84375-.60351-.56836-.93164-1.41797-.32812-.85547-.32812-1.99804 0-2.0918 1.21875-3.29883 1.2246-1.2129 3.35742-1.2129.74414 0 1.51758.18165.7793.17578 1.67578.60351v1.37696h-.10547q-.18164-.14063-.52734-.36914-.3457-.22852-.67969-.38086-.4043-.18164-.91992-.29883-.50977-.12305-1.16016-.12305-1.46484 0-2.32031.94336-.8496.9375-.8496 2.54297 0 1.69336.89062 2.63672.89062.9375 2.42578.9375.5625 0 1.11914-.11133.5625-.11133.98437-.2871v-2.13868h-2.33789v-1.01953h3.48633z"/><path d="M33.21094-5.34375h-.0586q-.24609-.0586-.48046-.08203-.22852-.0293-.54492-.0293-.50977 0-.98438.22852-.4746.22265-.91406.58008V0h-1.10156v-6.54492h1.10156v.9668q.65625-.52735 1.1543-.74415.5039-.22265 1.02539-.22265.2871 0 .41601.01758.1289.01172.38672.05273z"/><path d="M39.12305 0h-1.0957v-.69727q-.1465.09961-.39844.28125-.2461.17579-.48047.28125-.2754.13477-.63282.22266-.35742.09375-.83789.09375-.88476 0-1.5-.58594-.61523-.58593-.61523-1.49414 0-.74414.3164-1.20117.32227-.46289.91407-.72656.59766-.26367 1.43555-.35742.83789-.09375 1.79882-.14063v-.16992q0-.375-.13476-.6211-.1289-.24609-.375-.38671-.23438-.13477-.5625-.18164-.32813-.04688-.68555-.04688-.4336 0-.9668.11719-.5332.11133-1.10156.32812h-.05859V-6.4043q.32227-.08789.93164-.19336.60938-.10547 1.20117-.10547.69141 0 1.20118.1172.51562.11132.89062.38671.36914.26953.5625.69727.19336.42773.19336 1.06054zm-1.0957-1.61133v-1.82226q-.50391.0293-1.18946.08789-.67969.0586-1.07812.16992-.47461.13476-.76758.42187-.29297.28125-.29297.7793 0 .5625.33984.84961.33985.28125 1.03711.28125.58008 0 1.06055-.22266.48047-.22851.89062-.54492z"/><path d="M47.0039-3.35156q0 .79687-.2285 1.45898-.22852.65625-.64454 1.11328-.38672.4336-.91406.67383-.52149.23438-1.10742.23438-.50977 0-.92579-.11133-.41015-.11133-.83789-.3457v2.74218h-1.10156v-8.95898h1.10156v.68554q.43946-.36914.98438-.61523.55078-.25195 1.17187-.25195 1.1836 0 1.83985.89648.6621.89063.6621 2.47852zm-1.13671.0293q0-1.1836-.4043-1.76954-.4043-.58593-1.24219-.58593-.4746 0-.95508.20507-.48046.20508-.91992.53907v3.70898q.46875.21094.80274.28711.33984.07617.76758.07617.91992 0 1.43554-.6211.51563-.62109.51563-1.83984z"/><path d="M54.19336 0H53.0918v-3.72656q0-.45117-.05273-.84375-.05273-.39844-.19336-.6211-.14649-.24609-.42188-.36328-.27539-.12304-.71484-.12304-.45117 0-.94336.22265-.49219.22266-.94336.56836V0h-1.10156v-9.11719h1.10156v3.29883q.51563-.42773 1.0664-.66797.55079-.24023 1.13087-.24023 1.06054 0 1.61718.63867t.55664 1.83984z"/></g></svg>