<svg xmlns="http://www.w3.org/2000/svg" role="img" viewBox="3.77 1.15 128.96 66.33"><title>rrricanes logo</title><path fill="#484F5E" d="M72.6332 27.8422c-.052-.2776-.1214-.5725-.1908-.85-.0867-.3296-.2082-.6419-.347-.9541-.0173-.0347-.0347-.0868-.052-.1214-1.2143-2.6542-3.8684-4.545-6.9389-4.5971-2.6541-.052-5.0134 1.249-6.4532 3.244-.3122.4163-.5725.8847-.798 1.3704-.0173.0347-.0347.0694-.052.1214-.1388.3123-.2429.6245-.347.9541-.0867.2776-.1387.5551-.1908.8501-.052.2602-.0867.5377-.1041.8153-.0173.2255-.0173.4337-.0173.6592 0 .3643.0347.7286.1041 1.0755.052.3296.1214.6419.2081.9541.9368 3.2093 3.8685 5.6032 7.3553 5.6726 2.6541.052 5.0133-1.249 6.4532-3.244l-4.0246-1.4745c-.5725.5378-1.3184.85-2.099.8847-1.3531.0694-2.498-.6071-3.1052-1.8561-.1388-.2949-.2602-.6072-.3296-.9541h10.9808c.0347-.2256.0694-.4684.0868-.7113.0173-.2255.0173-.4337.0173-.6592-.052-.399-.0867-.798-.1561-1.1796zm-10.9808 0c.0867-.2949.1908-.5898.3296-.85.1908-.3643.4163-.6766.6939-.9541h.0173-.0173c.0347-.0347.0867-.0694.1214-.1041.5551-.4857 1.2317-.798 1.9602-.8327.9021-.052 1.7001.2602 2.3246.8327.0347.0347.0867.0694.1214.1214.2602.2602.4857.5898.6592.9541.1214.2602.2255.5378.3123.8501h-6.5226v-.0174zM21.979 10.8419c0-2.96635-1.8041-5.5164-4.3715-6.60928-.8673-.3643-1.8041-.57246-2.7929-.57246H6.34912l.01735 19.98414h4.35413v-5.6379h3.2266l2.7583 5.6379h4.7531l-3.2613-6.4879c2.2552-1.2143 3.7817-3.5909 3.7817-6.3145zm-4.3541 0c0 1.5613-1.2664 2.8277-2.8276 2.8277h-4.0767V8.01433h4.0767c1.5612 0 2.8276 1.26636 2.8276 2.82757z"/><path fill="#484F5E" d="M27.3915 17.2431v-1.5439l-3.695 3.3827 3.695 3.5389v-1.5439c3.5215 0 5.6205 3.0531 5.6205 6.1583 0 3.1051-2.1684 6.2624-5.6205 6.2624-3.7471 0-5.6206-3.1573-5.6206-6.2624h-4.3715c0 5.5164 4.4756 9.992 9.9921 9.992 5.5164 0 9.992-4.4756 9.992-9.992.0174-5.5338-4.4582-9.9921-9.992-9.9921zm92.0965 13.6002c-.485 1.4572-1.682 2.2898-3.018 2.3592-1.527.0694-2.776-.7979-3.331-2.3766-.121-.3469-.208-.7285-.243-1.1449-.017-.2255-.034-.451-.034-.6939 0-.104 0-.2255.017-.3296.035-.4163.104-.7979.243-1.1622.503-1.4052 1.683-2.3419 3.001-2.4113 1.526-.0694 2.775.8327 3.313 2.4286l4.285-.7633c-1.006-3.0878-3.886-5.3776-7.268-5.4297-3.539-.0694-6.54 2.2552-7.581 5.4297-.226.6766-.347 1.4052-.382 2.1511v.5378c.017.7459.156 1.4571.382 2.151 1.006 3.0879 3.886 5.3777 7.268 5.4297 3.539.0694 6.54-2.2551 7.581-5.4297l-4.233-.7459zm10.721-9.0552h-4.354v14.9013h4.354V21.7881zm-.312-2.9144h-3.661c-.19 0-.364-.1561-.364-.3643v-3.6429c0-.1908.156-.3643.364-.3643h3.661c.19 0 .364.1561.364.3643v3.6603c0 .1908-.174.3469-.364.3469zm-24.148 8.3268c-1.336-1.7001-4.649-2.8797-6.2622-3.4695-1.4398-.5204-1.9602-.9367-1.9429-1.648.0521-1.3531 1.3704-1.648 2.2552-1.648 1.9599 0 2.2549 2.0644 2.2549 2.0644l3.851-.9542s-.746-4.8745-6.7478-4.8745c-1.9429 0-4.0593 1.1449-5.1695 2.6021-.9888 1.301-1.1102 2.897-.4684 4.4929.8501 2.1337 2.6021 2.7756 4.3716 3.4174 1.3184.4857 3.0881.9715 4.1981 2.0817.538.5378.642 1.4572.26 2.2378-.399.85-1.526 1.4398-2.6193 1.4398-2.394 0-3.3654-2.151-3.4001-2.2378l-.1214-.2949-4.3369.8674.1041.3643c.0174.052.399 1.3531 1.5613 2.6715 1.0755 1.2143 3.0358 2.6715 6.3144 2.6715 2.7929 0 5.0129-1.197 6.2099-3.3654 1.128-2.0123 1.18-4.5277-.312-6.4185zm-57.5234-5.8634c-1.5786-.0347-3.2093.4163-4.0593 1.2143v-.7286h-4.3542v21.8403h4.3542v-7.8063c.7633.7286 2.3072 1.1622 3.7644 1.1969 4.4235.0868 7.546-3.5735 7.4767-7.9971-.0868-4.1807-3.0185-7.6328-7.1818-7.7195zm-.4511 11.9002c-2.0296.1041-3.5908-1.4745-3.6082-4.1633v-.1041c.0174-2.1858 1.5092-3.7817 3.2439-3.8685 2.0297-.104 3.6083 1.5786 3.6083 4.2675 0 2.3766-1.5092 3.7643-3.244 3.8684zm34.9721-11.8481c-2.602 0-3.8164 1.7173-3.8164 1.7173v-1.3184H74.871v14.9014h4.0592v-7.0083c0-2.446 1.1276-4.3889 3.1226-4.3889 1.9949 0 3.0704 1.7347 3.0704 4.3889v7.0083h4.1113v-8.3094c0-1.5959-.3816-6.9909-6.4879-6.9909z"/><path d="M25.3556 51.53932c-.04352-.00335-.09373-.00335-.15733-.00335-1.0042 0-1.82093.2611-2.44688.78662-.38494.31464-.83682.90042-1.35566 1.75398v-2.236h-3.20001v12.82686h3.37742v-6.1289c0-1.03097.13055-1.79081.38829-2.28621.46193-.877 1.36904-1.31549 2.718-1.31549.10377 0 .23432.00335.40168.01004.16402.01004.35147.02343.56235.04686V51.5594c-.14728-.01004-.24435-.01338-.28787-.02008zm9.37913 0c-.04352-.00335-.09373-.00335-.15733-.00335-1.00419 0-1.82093.2611-2.44687.78662-.38494.31464-.83683.90042-1.35566 1.75398v-2.236h-3.20002v12.82686h3.37743v-6.1289c0-1.03097.13054-1.79081.38828-2.28621.46193-.877 1.36905-1.31549 2.71801-1.31549.10377 0 .23431.00335.40168.01004.16401.01004.35146.02343.56234.04686V51.5594c-.14728-.01004-.24435-.01338-.28786-.02008zm9.37913 0c-.04351-.00335-.09707-.00335-.15732-.00335-1.0042 0-1.82093.2611-2.45023.78662-.38159.31464-.83347.90042-1.3523 1.75398v-2.236h-3.20002v12.82686h3.37742v-6.1289c0-1.03097.13055-1.79081.38829-2.28621.46193-.877 1.36904-1.31549 2.718-1.31549.10377 0 .23432.00335.40168.01004.16402.01004.35147.02343.56235.04686V51.5594c-.14728-.01004-.24436-.01338-.28787-.02008zm5.7038-1.22846v-3.09625H46.4168v3.09625zm-3.40086 1.52972v12.82685h3.40086V51.84058zm14.30971 4.60254h3.43433c-.18745-1.82763-.79331-3.10295-1.81758-3.82597-1.02428-.71967-2.33977-1.08118-3.94982-1.08118-1.88788 0-3.37073.61256-4.44521 1.83432-1.07783 1.22512-1.6134 2.93893-1.6134 5.14146 0 1.95482.48536 3.54479 1.45942 4.76655.97072 1.22511 2.4904 1.83767 4.55233 1.83767 2.06528 0 3.62178-.73306 4.67283-2.20252.65942-.91047 1.02762-1.8745 1.10796-2.89542h-3.42764c-.0703.67616-.26778 1.22511-.59917 1.65022-.32803.42176-.88703.63599-1.6703.63599-1.10795 0-1.8611-.53557-2.25943-1.60336-.22092-.57239-.32803-1.32888-.32803-2.26947 0-.98745.10711-1.78076.32803-2.37658.41507-1.12135 1.1883-1.6837 2.31968-1.6837.78997 0 1.37574.25775 1.75064.77658.2611.38494.42176.81674.48536 1.2954zm-2.27282-4.94397zm15.08628 6.93226v1.24854c-.02343 1.12135-.33807 1.89458-.94728 2.31634-.60921.4251-1.27198.63598-1.995.63598-.45523 0-.84016-.1272-1.15816-.38159-.318-.2544-.47866-.66946-.47866-1.24185 0-.64268.26109-1.118.77657-1.42595.30795-.18075.8134-.33138 1.51968-.45858l.75314-.14058c.3749-.0703.6728-.14729.88703-.22762.21758-.08368.4318-.1908.64268-.32469zm-2.03515-1.56654l-1.14143.1406c-1.2954.16736-2.27617.44184-2.94228.82677-1.21507.70628-1.82428 1.84771-1.82428 3.4243 0 1.21506.37825 2.15565 1.13474 2.81842.75649.66276 1.71716.99415 2.87867.99415.91047 0 1.72386-.20754 2.44688-.62595.60586-.35146 1.13808-.77992 1.60001-1.28201.02343.29121.0569.54895.09372.77657.04017.22762.11047.47197.21423.72971h3.64521v-.4954c-.21757-.10042-.3816-.23096-.49205-.38829-.11046-.15397-.1774-.45188-.20084-.89373-.01674-.57908-.02343-1.07448-.02343-1.48285v-5.8812c0-1.54646-.54561-2.59751-1.63683-3.1565-1.08787-.55566-2.33642-.83349-3.74228-.83349-2.15566 0-3.67868.56235-4.56572 1.69374-.55565.72301-.8703 1.64352-.9406 2.76487h3.23685c.07699-.4954.2343-.88704.46862-1.1749.33138-.39499.89038-.58913 1.6837-.58913.70627 0 1.24184.10042 1.6067.29791.36485.20084.54895.5657.54895 1.09122 0 .4318-.241.74645-.71967.95063-.26778.1205-.70962.21758-1.32887.29456zm.1774-5.36572zm18.55074 1.07783c-.84352-.69623-1.92805-1.041-3.25358-1.041-1.06109 0-1.93474.25774-2.62428.77657-.38494.28786-.79331.76318-1.22511 1.4226V51.864h-3.23684v12.80342h3.34395v-6.9423c0-.7933.11046-1.44269.32804-1.95482.4251-.96402 1.20503-1.44604 2.3431-1.44604.92721 0 1.55315.32804 1.88119.98746.18075.3615.27113.88034.27113 1.55314v7.80256h3.43768V56.0314c0-1.61005-.42176-2.76153-1.26528-3.45442zm-4.48873-1.07783zm12.10384 3.49458c.4251-.48535 1.02762-.7297 1.8042-.7297.71297 0 1.31213.23096 1.79414.68954.48202.45858.75315 1.13138.8067 2.01842h-5.21174c.11046-.83348.37824-1.48955.8067-1.97826zm4.68956-2.89541c-.8569-.39833-1.81758-.59917-2.88537-.59917-1.7975 0-3.25692.59248-4.38161 1.77742-1.12804 1.18494-1.6904 2.88872-1.6904 5.10798 0 2.36989.6226 4.08036 1.87115 5.13141 1.24854 1.05105 2.68788 1.57658 4.31802 1.57658 1.97825 0 3.51466-.62595 4.61258-1.87114.70628-.78662 1.1046-1.55984 1.19164-2.31968h-3.4243c-.18075.37824-.39163.6728-.62594.88369-.4318.39163-.9908.58912-1.68369.58912-.64938 0-1.20837-.16067-1.6703-.48536-.75984-.51548-1.16486-1.41925-1.21172-2.70462h8.77996c.0134-1.10795-.02008-1.95482-.10711-2.54394-.14728-1.0042-.47532-1.88453-.97741-2.64772-.55565-.86025-1.26193-1.4929-2.1155-1.89457zm-2.64771-.59917zm10.71805 9.07453h-3.40085c0 1.3155.482 2.40002 1.44268 3.25358.96068.85021 2.45023 1.27532 4.4653 1.27532 1.97826 0 3.43768-.40168 4.38497-1.20503.94393-.80335 1.4159-1.84101 1.4159-3.11299 0-.96402-.32803-1.77072-.98745-2.4134-.66611-.63599-1.66696-1.10796-3.00253-1.4226-1.99834-.4385-3.1632-.7498-3.49458-.93055-.32804-.17071-.49205-.45189-.49205-.83348 0-.30795.15397-.57574.46527-.80335.30795-.22427.82679-.33808 1.5565-.33808.88703 0 1.51632.22427 1.88453.6795.19414.25105.31799.59247.36485 1.02428h3.354c-.15063-1.56654-.72971-2.67115-1.73725-3.31048-1.00754-.63934-2.31299-.96068-3.913-.96068-1.68703 0-2.99248.4251-3.92303 1.27867-.93055.85021-1.39583 1.8678-1.39583 3.05274 0 1.00419.29791 1.77407.89373 2.30629.59917.54226 1.6201.9908 3.07283 1.3523 2.01507.47867 3.17993.81675 3.49458 1.01424.31464.19414.47197.48201.47197.8569 0 .39164-.19415.6862-.58243.8837-.3883.19414-.91382.29456-1.57324.29456-1.12134 0-1.88787-.22427-2.30629-.67281-.2343-.25105-.38828-.6728-.45858-1.26863zm2.56738-9.07453z"/></svg>