<svg xmlns="http://www.w3.org/2000/svg" role="img" viewBox="-2.95 -2.95 127.14 153.27"><title>RRTMGP.jl logo</title><g stroke-width=".207"><path fill="#384757" d="M137.47901 178.94042c3.48374-3.57847 6.33032-7.70342 8.4604-12.25989l.5562-1.18689-7.00554-3.05222-.52948 1.11807c-1.75847 3.71205-4.10066 7.08164-6.9602 10.01242-3.39711 3.48374-7.40953 6.22912-11.92552 8.16003-4.52328 1.93578-9.27972 2.94374-14.13818 2.99555-4.88355.0607-9.65538-.84199-14.21509-2.67818-4.55647-1.837-8.64418-4.51194-12.14816-7.94954-3.48941-3.42059-6.24289-7.45567-8.18433-11.99191-1.94467-4.54271-2.96316-9.32101-3.02712-14.20213-.0672-4.89732.82175-9.69182 2.63932-14.25234 1.81514-4.55728 4.46904-8.64499 7.8872-12.14816 3.40035-3.48455 7.41277-6.23074 11.92876-8.16327 4.22939-1.80948 8.68385-2.80772 13.23951-2.96802 3.67319-.12954 7.33667.29145 10.8868 1.24679l1.0622.28579 3.07408-7.05573-1.39657-.40318c-4.0529-1.1707-8.23047-1.76252-12.43153-1.76252-.36432 0-.72864.004-1.09378.0138-5.63891.14249-11.14506 1.34719-16.36702 3.5809-5.43895 2.32762-10.27635 5.64377-14.37702 9.85535-4.11119 4.2221-7.30994 9.16071-9.50884 14.67819-2.1989 5.51909-3.27648 11.31669-3.20362 17.23169.07367 5.88989 1.29376 11.63892 3.62462 17.08839 2.3349 5.45675 5.65025 10.30954 9.85454 14.42316 4.22049 4.13061 9.15343 7.34961 14.6628 9.56794 5.37661 2.1657 11.01472 3.26353 16.75807 3.26353l.4461-.002c5.88342-.0591 11.62273-1.26784 17.056-3.59223 5.43976-2.32843 10.27635-5.64377 14.3754-9.85373" transform="translate(-45.61 -83.863)"/><path fill="#384757" d="M166.80705 142.58013c-.26394-4.0869-.93753-8.1908-2.00378-12.19755-1.0614-3.98813-2.51707-7.88153-4.32655-11.57092-1.7277-3.5226-3.79544-6.89461-6.15059-10.03346l.008-.006-.33842-.44366c-2.46283-3.21819-5.28026-6.22751-8.37458-8.94212-3.08541-2.70733-6.44529-5.11591-9.98489-7.15936-3.54204-2.04426-7.31076-3.7493-11.20254-5.06814-3.89907-1.32128-7.91797-2.25638-11.94414-2.77858-4.06262-.52624-8.20619-.65173-12.30928-.37242-3.72662.2526-7.4573.842-11.08758 1.752l-.62663.15706 2.16084 5.69478.49062-.1174c3.07812-.7327 6.2623-1.2136 9.46269-1.42977 3.69586-.24774 7.42329-.13035 11.07381.3465 3.65295.47768 7.28323 1.32453 10.78883 2.51627 3.49751 1.1885 6.90515 2.73404 10.12739 4.59371 3.23033 1.86453 6.27688 4.04237 9.05384 6.47363 2.77371 2.42801 5.32236 5.14991 7.57631 8.0896 2.25961 2.95102 4.22858 6.12306 5.85103 9.42869 1.63622 3.33234 2.9494 6.83875 3.90393 10.42208.95129 3.57522 1.55526 7.27918 1.79571 11.00742.23802 3.71205.11011 7.45406-.37971 11.12239-.48657 3.65538-1.34233 7.29052-2.54378 10.80584-1.19903 3.50803-2.7551 6.93105-4.6261 10.17272-1.87424 3.24733-4.05937 6.30684-6.49467 9.09594-2.44826 2.80448-5.17097 5.3677-8.09122 7.61679-2.92674 2.25475-6.10364 4.23748-9.44408 5.89313-3.3283 1.64998-6.83551 2.97855-10.42289 3.94846-3.59465.96505-7.29375 1.58035-10.99609 1.8289-3.69828.24693-7.4241.13035-11.07543-.34651-3.65214-.47767-7.28242-1.32371-10.79045-2.51545-3.49912-1.18932-6.90676-2.73486-10.129-4.59453-3.18095-1.83214-6.16435-3.95007-8.87006-6.29631-2.713-2.35353-5.22197-4.99933-7.45649-7.86453-1.9382-2.48307-3.67967-5.15235-5.17825-7.93254-1.03468-1.91796-1.96735-3.92174-2.77533-5.95547l-.20807-.52625-5.65997 2.14627.21374.54082c.89056 2.25476 1.92362 4.4828 3.07084 6.62178 1.58278 2.95183 3.41492 5.79436 5.44542 8.45068 2.4774 3.24006 5.2916 6.24937 8.36486 8.94536 3.08704 2.70895 6.4469 5.11834 9.98732 7.1626 3.5396 2.04345 7.30914 3.74767 11.20174 5.06733 3.9015 1.32209 7.9212 2.25719 11.94576 2.77858 2.66199.3457 5.35717.51896 8.05397.51896 1.42006 0 2.84011-.0478 4.25611-.14411 4.10876-.27851 8.20942-.96425 12.18783-2.03779 3.97032-1.07192 7.85482-2.54217 11.54663-4.36783 3.67805-1.82081 7.19984-4.01808 10.46903-6.53192 3.26272-2.50735 6.28013-5.33612 8.96884-8.40858 2.70004-3.08541 5.11267-6.45905 7.1715-10.0278 2.06855-3.58413 3.78492-7.36338 5.10215-11.23007 1.32047-3.87964 2.26366-7.9042 2.80043-11.96195.53839-4.07476.67684-8.22561.41129-12.3368" transform="translate(-45.61 -83.863)"/><path fill="#26a1d9" d="M135.25582 123.92029c-1.87019-3.10161-5.7053-2.98826-12.90595-.70355-1.06059.33599-2.16975.72217-3.32344 1.15612 7.19417-2.56241 12.48091-3.04979 13.81919-.83066 1.27918 2.12037-1.04763 4.95318-2.29847 6.50601-3.0417 3.77844-7.27028 6.57563-11.34827 9.12266-4.37674 2.73323-8.98422 5.073-13.64918 7.26866-1.44596.68007-2.89678 1.34637-4.35083 2.00701-4.45446 2.02402-9.05546 3.77763-13.46378 5.89476 10.26178-4.92889 32.32359-18.37648 36.9173-24.45582-5.47213-6.48496-15.82378-10.42937-25.94064-7.73499-13.8791 3.69586-22.13305 17.9409-18.4372 31.82001 3.69506 13.87829 17.9401 22.13305 31.81921 18.43719 13.8791-3.69586 22.13305-17.9409 18.43719-31.82001-.0518-.19754-.10686-.39428-.16354-.58939-2.13331 1.19822-4.59695 2.50411-7.26056 3.65942-.4639.20079-.73431.31575-1.19012.50682-.16273.0672-.65012.31332-.81123.3797-.51167.2105-1.67508.68979-2.19484.87843 2.09364-1.43624 4.05937-2.74214 5.70773-4.0529 3.0004-2.3851 6.04615-5.10538 8.17866-8.32276 2.42072-3.65538 3.64323-7.16341 2.45877-9.12671" transform="translate(-45.61 -83.863)"/></g><path d="M14.54747 131.56734h3.4192c.63549 0 1.11347.08419 1.43122.24985.5676.2906.85004.86363.85004 1.71639 0 .7903-.2933 1.31716-.8772 1.58603-.33133.15208-.82832.22812-1.49097.22812h-3.33229zm6.30609-2.0803c-.52958-.2227-1.29-.34491-2.27584-.36392h-6.90357v14.07328h2.87332v-5.51851h3.03626c.86634 0 1.45567.14937 1.7707.4481.31504.29874.4807.89894.49157 1.79515l.019 1.30902c.00815.4128.0489.81745.12493 1.21124.03802.19282.1032.44268.1901.755h3.23724v-.35306c-.27972-.1711-.45625-.43996-.53501-.80116-.04888-.23084-.07604-.66537-.07604-1.30902v-.9451c0-.98583-.1358-1.7191-.40466-2.1998-.27158-.48069-.73055-.85275-1.37962-1.11347.77672-.26615 1.33345-.7224 1.67021-1.36876.33676-.64636.50514-1.30359.50514-1.97167 0-.55403-.0869-1.0483-.26615-1.48011-.17924-.43453-.42094-.82832-.72511-1.1841-.36935-.43452-.82018-.76042-1.35247-.98311zm7.81607 2.0803h3.41648c.6382 0 1.11619.08419 1.43394.24985.56488.2906.85004.86363.85004 1.71639 0 .7903-.2933 1.31716-.87992 1.58603-.33132.15208-.8256.22812-1.48825.22812h-3.33229zm6.30609-2.0803c-.5323-.2227-1.29-.34491-2.27856-.36392h-6.90085v14.07328h2.87332v-5.51851h3.03626c.86634 0 1.45567.14937 1.7707.4481.31504.29874.47799.89894.49157 1.79515l.019 1.30902c.00544.4128.0489.81745.12493 1.21124.03802.19282.10049.44268.1901.755h3.23724v-.35306c-.27972-.1711-.45897-.43996-.53501-.80116-.0516-.23084-.07604-.66537-.07604-1.30902v-.9451c0-.98583-.1358-1.7191-.40737-2.1998-.26887-.48069-.72784-.85275-1.37963-1.11347.77672-.26615 1.33346-.7224 1.67293-1.36876.33676-.64636.50514-1.30359.50514-1.97167 0-.55403-.08962-1.0483-.26615-1.48011-.17924-.43453-.42094-.82832-.72783-1.1841-.36935-.43452-.81746-.76042-1.34975-.98311zm15.09985-.36392H38.67464v2.4931h4.23121v11.58018h2.96023v-11.58018h4.20949zm11.04515 0L58.58145 140.19l-2.55828-11.06688h-4.27739v14.07328h2.74024v-9.51888c0-.2743-.00271-.65723-.00814-1.1515-.00815-.49156-.01087-.87177-.01087-1.14064l2.6452 11.81102h2.8543l2.6642-11.81102c0 .26887-.00272.64908-.01086 1.14064-.00544.49427-.00815.8772-.00815 1.1515v9.51888h2.74024v-14.07328zm16.42245 4.39145h2.89504c-.16023-1.35519-.78215-2.48767-1.86847-3.39475-1.0836-.90436-2.52026-1.3579-4.30998-1.3579-2.06129 0-3.72064.6871-4.97534 2.06129-1.25198 1.3742-1.87933 3.20193-1.87933 5.48048 0 2.25412.6192 4.02754 1.86032 5.3284 1.19223 1.29 2.71851 1.93637 4.58427 1.93637 1.13249 0 2.08845-.239 2.86245-.71426.45354-.2743.9614-.74684 1.529-1.41493l.29602 1.75713h1.94723v-7.55264h-5.8607v2.34916h3.25353c-.14665.92337-.5323 1.67022-1.16508 2.24054-.63006.5676-1.43666.85276-2.4225.85276-1.00755 0-1.90377-.35849-2.69407-1.07817-.7903-.7197-1.18408-1.94452-1.18408-3.6772 0-1.71638.36391-3.00367 1.09446-3.86186.72784-.85548 1.65936-1.28458 2.79185-1.28458.59204 0 1.12977.10592 1.61318.31775.86634.38021 1.4095 1.05101 1.6322 2.0124zm-3.29427-4.75265zm16.38985 3.27254c.38565.31231.57847.83375.57847 1.56701 0 .73055-.19282 1.26557-.57847 1.60504-.38564.33676-.92337.50514-1.61861.50514H86.2799v-4.14431h2.74024c.69524 0 1.23297.15752 1.61861.46712zm2.22968 5.0704c.83918-.6871 1.26013-1.86033 1.26013-3.5224 0-1.52084-.42095-2.64519-1.26013-3.3703-.83919-.72512-1.96624-1.08904-3.38118-1.08904H83.3577v14.07328h2.9222v-5.05954H89.27c1.55887 0 2.75925-.3449 3.59844-1.032zm3.1992 3.24538v2.84616h2.89234v-2.84616zm8.32394-8.80191v-2.51212h-2.72124v2.51212zm-4.02754 13.64418v2.17535c.24171.00815.44268.01358.60563.02173.16295.00543.28516.00815.36663.00815 1.21125 0 2.02056-.25257 2.43607-.755.4128-.50242.6192-1.27914.6192-2.33015v-11.47426h-2.72123v11.42809c0 .37478-.0679.62735-.20368.7577-.1385.13037-.33948.19555-.60562.19555-.0516 0-.10864 0-.17382-.00272-.06246-.00272-.1711-.01086-.32318-.02444zm9.39396-1.99611v-14.07328h-2.72124v14.07328z"/></svg>