<svg xmlns="http://www.w3.org/2000/svg" role="img" viewBox="-1.44 -1.44 74.75 10.75"><title>RTE+RRTMGP logo</title><g stroke-width=".265" transform="translate(-56.406 -86.551)"><path d="M62.77292 94.38559h-1.32808l-2.57348-3.05924H57.4296v3.05924H56.4064v-7.6946h2.1549q.69763 0 1.16272.09302.46509.08785.83716.3204.41857.26354.65112.66662.2377.3979.2377 1.01285 0 .832-.41857 1.39526-.41858.5581-1.15238.84233zm-2.39261-5.52936q0-.33073-.11886-.58394-.11368-.25838-.3824-.43408-.2222-.14987-.5271-.2067-.30489-.06202-.7183-.06202H57.4296v2.9042h1.03353q.48576 0 .8475-.08267.36172-.08785.61494-.3204.23254-.21704.34106-.49609.11369-.28422.11369-.7183z"/><path d="M68.94307 87.6005h-2.74918v6.78509H65.1707v-6.7851h-2.74918v-.9095h6.52155z"/><path d="M75.04604 94.38559h-5.06945v-7.6946h5.06945v.9095h-4.04626v2.1084h4.04626v.9095h-4.04626v2.8577h4.04626z"/><path d="M83.21088 91.4297h-2.81635v2.81636h-.85783v-2.81635h-2.81636v-.82682h2.81636v-2.81636h.85783v2.81636h2.81635z"/><path d="M91.69613 94.38559h-1.32808l-2.57348-3.05924H86.3528v3.05924h-1.02319v-7.6946h2.1549q.69763 0 1.16272.09302.46508.08785.83715.3204.41858.26354.65112.66662.23771.3979.23771 1.01285 0 .832-.41857 1.39526-.41858.5581-1.15238.84233zm-2.39261-5.52936q0-.33073-.11886-.58394-.11369-.25838-.3824-.43408-.22221-.14987-.5271-.2067-.3049-.06202-.7183-.06202H86.3528v2.9042h1.03353q.48575 0 .84749-.08267.36173-.08785.61495-.3204.23254-.21704.34106-.49609.11369-.28422.11369-.7183z"/><path d="M99.05483 94.38559h-1.32808l-2.57348-3.05924H93.7115v3.05924h-1.02319v-7.6946h2.1549q.69763 0 1.16272.09302.46508.08785.83715.3204.41858.26354.65112.66662.23771.3979.23771 1.01285 0 .832-.41857 1.39526-.41858.5581-1.15238.84233zm-2.39261-5.52936q0-.33073-.11886-.58394-.11369-.25838-.3824-.43408-.22221-.14987-.5271-.2067-.3049-.06202-.7183-.06202H93.7115v2.9042h1.03353q.48575 0 .84749-.08267.36173-.08785.61494-.3204.23255-.21704.34107-.49609.11369-.28422.11369-.7183z"/><path d="M105.22498 87.6005h-2.74918v6.78509h-1.02319v-6.7851h-2.74918v-.9095h6.52155z"/><path d="M113.11077 94.38559h-1.02319v-6.63007l-2.13939 4.51134h-.60978l-2.1239-4.51134v6.63007h-.95601v-7.6946h1.39526l2.05155 4.28397 1.98437-4.28397h1.42109z"/><path d="M121.59602 93.81715q-.63045.28939-1.37976.50643-.74414.21187-1.44177.21187-.89916 0-1.64847-.24805-.74931-.24804-1.2764-.74413-.53227-.50126-.82166-1.25057-.28938-.75447-.28938-1.76216 0-1.84484 1.07486-2.90937 1.08004-1.0697 2.96105-1.0697.65629 0 1.33842.1602.68729.15502 1.47794.53226v1.2144h-.093q-.16019-.12403-.46508-.32557-.30489-.20154-.59945-.3359-.35657-.1602-.81132-.26354-.44958-.10852-1.02319-.10852-1.2919 0-2.04638.83198-.7493.82682-.7493 2.24275 0 1.49345.78548 2.32544.78548.82682 2.13939.82682.4961 0 .98702-.0982.49609-.09818.86816-.2532v-1.8862h-2.06188v-.89916h3.07474z"/><path d="M128.41728 89.01642q0 .5116-.18087.95085-.1757.43408-.49609.75447-.39791.3979-.94051.59945-.5426.19637-1.36942.19637h-1.02319v2.86803h-1.02319v-7.6946h2.08772q.69247 0 1.17305.11886.48059.11369.85266.36173.43925.29456.67696.7338.24288.43925.24288 1.11104zm-1.06453.02585q0-.39791-.13953-.69247-.13952-.29455-.42374-.48059-.24805-.1602-.56844-.22737-.31523-.07235-.80098-.07235h-1.01286v3.07474h.863q.62011 0 1.00768-.10852.38758-.1137.63045-.35657.24288-.24805.34107-.52193.10335-.27389.10335-.61495z"/></g></svg>