<svg xmlns="http://www.w3.org/2000/svg" role="img" viewBox="19.54 19.54 186.29 82.67"><title>RTE logo</title><defs><clipPath id="a" clipPathUnits="userSpaceOnUse"><path d="M0 91.45h169.086V0H0z"/></clipPath></defs><g clip-path="url(#a)" transform="matrix(1.33333 0 0 -1.33333 0 121.933)"><path fill="#00a6d9" d="M74.04 45.756c0-15.655-12.691-28.346-28.346-28.346-15.656 0-28.347 12.691-28.347 28.346s12.69 28.346 28.347 28.346c15.655 0 28.346-12.69 28.346-28.346"/><path fill="#fff" d="M35.062 46.93H31.48v6.224h3.582a3.112 3.112 0 0 0 0-6.223m22.69 2.917c1.77 0 3.398-1.243 3.655-2.917h-7.24c.285 1.586 1.813 2.917 3.585 2.917m4.573-9.191h-4.5c-2.086 0-3.738 1.61-3.738 3.877h8.486c.702 0 1.29.656 1.29 1.376.035 3.692-2.737 6.354-6.106 6.354-3.101 0-5.741-2.337-6.127-5.331h-4.636v4.136c0 .66-.564 1.199-1.223 1.199-.666 0-1.223-.538-1.223-1.2v-4.137l-5.067.002c.673.787 1.084 1.955 1.084 3.107a5.515 5.515 0 0 1-5.514 5.515H30.26c-.66 0-1.2-.531-1.2-1.202V39.406c0-.664.536-1.198 1.2-1.198.664 0 1.2.534 1.2 1.198v5.128h4.486l4.214-5.83a1.205 1.205 0 0 1 1.676-.268c.536.387.657 1.138.268 1.673l-3.196 4.425h5.64c-.005-.302 0-2.816 0-2.816 0-2.074 1.508-3.491 3.488-3.491h.718c.67 0 1.208.546 1.208 1.214 0 .666-.538 1.216-1.208 1.216h-.718c-.58 0-1.04.488-1.04 1.115v2.762h4.595c0-3.576 2.81-6.307 6.209-6.307h4.49c.667 0 1.24.55 1.24 1.214 0 .668-.537 1.216-1.205 1.216"/><path fill="#00a6d9" d="M85.133 56.849v7.677c0 .36.253.652.653.652.373 0 .626-.266.626-.652v-7.132h4.252c.32 0 .6-.253.6-.586a.608.608 0 0 0-.6-.613h-4.878a.637.637 0 0 0-.653.653m9.447 4.292c-.92 0-1.546-.653-1.666-1.479h3.28c-.108.799-.708 1.479-1.614 1.479m2.772-2.066c0-.213-.12-.426-.48-.426h-3.985c.067-.92.693-1.613 1.8-1.613.692 0 1.106.24 1.545.653.107.107.254.2.414.2.28 0 .52-.2.52-.52 0-.133-.067-.253-.16-.36-.507-.586-1.413-.973-2.373-.973-1.986 0-3.039 1.387-3.039 3.053 0 1.746 1.267 3.052 2.986 3.052 1.68 0 2.772-1.36 2.772-3.066m6.984 1.866c-1.053 0-1.693-.693-1.693-2.039v-2.186a.617.617 0 0 0-.626-.627c-.4 0-.626.28-.626.627v4.731c0 .374.266.64.639.64.36 0 .613-.253.613-.64v-.573c.227.76.853 1.24 1.693 1.24.36 0 .587-.253.587-.586a.575.575 0 0 0-.587-.587m3.09 2.826l.746 1.026c.107.147.227.227.427.227.28 0 .52-.187.52-.493a.546.546 0 0 0-.134-.347l-.733-1a.536.536 0 0 0-.453-.24c-.28 0-.506.24-.506.494 0 .12.067.253.133.333m.667-2.626c-.92 0-1.547-.653-1.667-1.48h3.279c-.106.8-.706 1.48-1.612 1.48m2.772-2.065c0-.214-.121-.427-.48-.427H106.4c.066-.92.693-1.613 1.799-1.613.693 0 1.106.24 1.546.653.107.107.253.2.413.2.28 0 .52-.2.52-.52a.555.555 0 0 0-.16-.36c-.506-.586-1.413-.972-2.372-.972-1.986 0-3.04 1.386-3.04 3.052 0 1.746 1.267 3.052 2.987 3.052 1.679 0 2.772-1.36 2.772-3.065m3.355-3.04c-.84 0-1.585.267-2.118.68a.665.665 0 0 0-.266.52c0 .266.212.44.479.44.213 0 .347-.08.493-.187.36-.267.867-.52 1.506-.52.72 0 1.107.267 1.107.68 0 .453-.374.626-1.307.88-1.64.44-2.24 1-2.24 1.96 0 .998.92 1.651 2.36 1.651.547 0 1.16-.133 1.653-.373.36-.173.613-.386.613-.653 0-.24-.133-.466-.48-.466-.173 0-.346.08-.546.186-.373.2-.787.307-1.266.307-.667 0-1.12-.174-1.12-.64 0-.453.4-.6 1.36-.88 1.439-.413 2.185-.799 2.185-1.879 0-.986-.826-1.706-2.412-1.706m6.184 5.105c-.92 0-1.546-.653-1.666-1.479h3.279c-.107.799-.707 1.479-1.613 1.479m2.772-2.066c0-.213-.12-.426-.48-.426h-3.985c.067-.92.693-1.613 1.8-1.613.692 0 1.106.24 1.545.653.107.107.254.2.414.2.28 0 .519-.2.519-.52a.558.558 0 0 0-.16-.36c-.506-.586-1.412-.973-2.372-.973-1.986 0-3.04 1.387-3.04 3.053 0 1.746 1.268 3.052 2.987 3.052 1.679 0 2.772-1.36 2.772-3.066m3.545-.294c-.84 0-1.386-.345-1.386-.945s.56-.946 1.359-.946c.787 0 1.453.386 1.453.946 0 .6-.72.946-1.426.946m2.066-2.692c-.373 0-.613.28-.613.626v.12c-.4-.506-1.026-.8-1.88-.8-1.292 0-2.212.734-2.212 1.8 0 1.186.973 1.813 2.266 1.813.746 0 1.372-.28 1.799-.68v.573c0 1.053-.44 1.533-1.6 1.533-.56 0-.946-.107-1.32-.24-.12-.04-.265-.107-.412-.107-.333 0-.533.227-.533.52 0 .306.253.466.586.6.467.186 1.187.293 1.787.293 1.759 0 2.745-.893 2.745-2.52v-2.905c0-.346-.2-.626-.613-.626m2.678 5.997a.61.61 0 0 0 .626-.627v-2.665c0-.933.507-1.626 1.506-1.626 1 0 1.573.733 1.573 1.64v2.651c0 .347.267.627.626.627a.61.61 0 0 0 .627-.627v-4.73c0-.4-.267-.64-.627-.64-.346 0-.626.2-.626.64v.426c-.373-.72-1.039-1.12-1.919-1.12-1.533 0-2.412 1.133-2.412 2.706v2.718c0 .334.226.627.626.627M87.599 43.747c1.08 0 1.799.946 1.799 2.013 0 1.066-.72 2.012-1.8 2.012s-1.785-.813-1.785-2.012c0-1.2.706-2.013 1.786-2.013m-.253 5.065c.893 0 1.626-.467 2.052-1.146v3.558a.61.61 0 0 0 .627.627.61.61 0 0 0 .626-.627v-7.837c0-.346-.213-.626-.6-.626-.386 0-.613.293-.613.64v.453c-.4-.693-1.2-1.146-2.092-1.146-1.533 0-2.786 1.28-2.786 3.052 0 1.84 1.253 3.052 2.786 3.052m7.516-1c-.92 0-1.546-.653-1.666-1.479h3.28c-.108.8-.708 1.48-1.614 1.48m2.772-2.067c0-.213-.12-.426-.48-.426H93.17c.067-.92.693-1.613 1.8-1.613.692 0 1.106.24 1.545.653.107.107.254.2.414.2.28 0 .52-.2.52-.52 0-.133-.067-.253-.16-.36-.507-.586-1.413-.973-2.373-.973-1.986 0-3.039 1.386-3.039 3.052 0 1.746 1.267 3.053 2.986 3.053 1.68 0 2.772-1.36 2.772-3.066m5.37-2.985a.61.61 0 0 0-.626.626v4.226h-1.013a.511.511 0 0 0-.52.52c0 .292.226.52.52.52h1.013v1.745a.61.61 0 0 0 .626.627.61.61 0 0 0 .626-.627v-1.746h1.147a.512.512 0 0 0 .519-.52.511.511 0 0 0-.52-.519h-1.146v-4.226a.61.61 0 0 0-.626-.626m5.837 4.852c-1.053 0-1.693-.693-1.693-2.04v-2.185a.617.617 0 0 0-.626-.627c-.4 0-.626.28-.626.627v4.73c0 .375.266.64.64.64.36 0 .612-.252.612-.64v-.572c.227.76.853 1.24 1.693 1.24.36 0 .587-.253.587-.586a.575.575 0 0 0-.587-.587m3.609-2.16c-.84 0-1.386-.346-1.386-.946s.56-.946 1.36-.946c.786 0 1.452.386 1.452.946 0 .6-.72.946-1.426.946m2.066-2.692c-.373 0-.613.28-.613.626v.12c-.4-.506-1.026-.799-1.879-.799-1.293 0-2.213.733-2.213 1.8 0 1.185.973 1.812 2.266 1.812.746 0 1.373-.28 1.8-.68v.573c0 1.053-.44 1.532-1.6 1.532a3.66 3.66 0 0 1-1.32-.239c-.12-.04-.266-.107-.413-.107-.333 0-.533.227-.533.52 0 .306.253.466.587.6.466.186 1.186.293 1.786.293 1.76 0 2.745-.893 2.745-2.519v-2.906c0-.346-.2-.626-.613-.626m7.077 0a.61.61 0 0 0-.626.626v2.666c0 .933-.507 1.626-1.507 1.626-.999 0-1.572-.733-1.572-1.639v-2.653a.618.618 0 0 0-.627-.626.61.61 0 0 0-.626.626v4.732c0 .4.266.64.626.64.347 0 .627-.2.627-.64v-.427c.373.72 1.04 1.12 1.92 1.12 1.532 0 2.411-1.133 2.411-2.706v-2.719c0-.333-.226-.626-.626-.626m4.345-.053c-.84 0-1.586.267-2.12.68a.665.665 0 0 0-.265.52c0 .266.212.439.479.439.213 0 .347-.08.493-.186.36-.267.867-.52 1.506-.52.72 0 1.107.267 1.107.68 0 .453-.374.626-1.307.879-1.64.44-2.24 1-2.24 1.959 0 1 .92 1.653 2.36 1.653.547 0 1.16-.133 1.653-.373.36-.173.613-.387.613-.653 0-.24-.133-.467-.48-.467-.173 0-.346.08-.546.187-.373.2-.786.307-1.266.307-.667 0-1.12-.174-1.12-.64 0-.453.4-.6 1.36-.88 1.439-.413 2.185-.8 2.185-1.88 0-.985-.826-1.705-2.412-1.705m6.623 5.064c-1.08 0-1.799-.946-1.799-2.012 0-1.067.72-2.013 1.8-2.013s1.785.813 1.785 2.013-.706 2.012-1.786 2.012m.253-5.064c-.893 0-1.626.466-2.052 1.146v-2.959a.61.61 0 0 0-.627-.626.609.609 0 0 0-.626.626v7.237c0 .347.213.626.6.626.386 0 .613-.293.613-.639v-.453c.4.693 1.2 1.146 2.092 1.146 1.533 0 2.786-1.28 2.786-3.052 0-1.84-1.253-3.052-2.786-3.052m6.691 5.038c-1.173 0-1.8-.906-1.8-1.986s.627-1.986 1.8-1.986 1.799.907 1.799 1.986c0 1.08-.626 1.986-1.8 1.986m0-5.038c-1.851 0-3.051 1.373-3.051 3.052s1.2 3.052 3.052 3.052c1.853 0 3.052-1.373 3.052-3.052 0-1.68-1.2-3.052-3.052-3.052m7.223 4.905c-1.053 0-1.693-.693-1.693-2.04v-2.185a.617.617 0 0 0-.626-.627c-.4 0-.626.28-.626.627v4.73c0 .375.266.64.639.64.36 0 .613-.252.613-.64v-.572c.227.76.853 1.24 1.693 1.24.36 0 .587-.253.587-.586a.575.575 0 0 0-.587-.587"/><path fill="#00a6d9" d="M149.447 42.761a.61.61 0 0 0-.626.626v4.226h-1.013a.511.511 0 0 0-.52.52c0 .292.226.52.52.52h1.013v1.745a.61.61 0 0 0 .626.627.61.61 0 0 0 .626-.627v-1.746h1.147c.293 0 .52-.227.52-.52a.512.512 0 0 0-.52-.519h-1.147v-4.226a.61.61 0 0 0-.626-.626M87.599 30.42c1.08 0 1.799.946 1.799 2.013 0 1.066-.72 2.012-1.8 2.012s-1.785-.813-1.785-2.012c0-1.2.706-2.013 1.786-2.013m-.253 5.065c.893 0 1.626-.467 2.052-1.147v3.56a.61.61 0 0 0 .627.626.61.61 0 0 0 .626-.627V30.06c0-.346-.213-.626-.6-.626-.386 0-.613.293-.613.64v.453c-.4-.694-1.2-1.146-2.092-1.146-1.533 0-2.786 1.28-2.786 3.052 0 1.84 1.253 3.052 2.786 3.052m5.864-.307c-.108-.2-.24-.4-.547-.4-.36 0-.547.227-.547.44 0 .147.067.267.12.387.227.52.347 1.093.347 1.64v.705c0 .334.2.587.546.587.347 0 .547-.253.547-.587v-.533c0-.693-.094-1.506-.467-2.239m3.278 1.932l.746 1.027c.107.147.227.227.427.227.28 0 .52-.187.52-.493a.546.546 0 0 0-.134-.347l-.733-1a.538.538 0 0 0-.453-.24.511.511 0 0 0-.506.494c0 .12.067.253.133.333m.667-2.626c-.92 0-1.547-.653-1.667-1.48h3.28c-.107.8-.707 1.48-1.613 1.48m2.772-2.065c0-.214-.12-.427-.48-.427h-3.985c.066-.92.693-1.613 1.8-1.613.692 0 1.105.24 1.545.653.107.107.253.2.413.2.28 0 .52-.2.52-.52 0-.133-.067-.252-.16-.36-.506-.586-1.413-.972-2.372-.972-1.986 0-3.039 1.386-3.039 3.052 0 1.746 1.266 3.052 2.986 3.052 1.68 0 2.772-1.36 2.772-3.065m1.865-2.986a.61.61 0 0 0-.626.626v7.838a.61.61 0 0 0 .626.626.61.61 0 0 0 .626-.626V30.06a.61.61 0 0 0-.626-.626m4.839 5.051c-.92 0-1.547-.653-1.667-1.48h3.28c-.108.8-.708 1.48-1.614 1.48m2.772-2.066c0-.213-.12-.427-.48-.427h-3.985c.067-.919.693-1.612 1.8-1.612.692 0 1.106.24 1.546.653.106.106.253.2.413.2.28 0 .52-.2.52-.52 0-.133-.067-.253-.16-.36-.507-.586-1.413-.973-2.373-.973-1.986 0-3.039 1.386-3.039 3.052 0 1.746 1.267 3.053 2.986 3.053 1.68 0 2.772-1.36 2.772-3.066m6.064 2.226c.107-.12.186-.24.186-.44 0-.266-.213-.506-.572-.506-.227 0-.374.186-.534.32a1.693 1.693 0 0 1-1.133.413c-1.239 0-1.879-.933-1.879-1.999 0-1.067.64-2 1.88-2 .44 0 .826.147 1.132.414.16.133.307.32.534.32.36 0 .572-.24.572-.507 0-.2-.079-.32-.186-.44-.4-.48-1.226-.839-2.066-.839-1.959 0-3.119 1.346-3.119 3.052s1.16 3.052 3.12 3.052c.84 0 1.665-.36 2.065-.84m2.785-5.211a.61.61 0 0 0-.626.626v4.226h-1.013a.511.511 0 0 0-.52.519c0 .294.226.52.52.52h1.013v1.746a.61.61 0 0 0 .626.627.61.61 0 0 0 .626-.627v-1.746h1.147c.293 0 .52-.226.52-.52a.512.512 0 0 0-.52-.52h-1.147V30.06a.61.61 0 0 0-.626-.626m5.838 4.851c-1.053 0-1.693-.693-1.693-2.039V30.06a.617.617 0 0 0-.626-.627c-.4 0-.626.28-.626.627v4.731c0 .374.266.64.639.64.36 0 .613-.253.613-.64v-.573c.227.76.853 1.24 1.693 1.24.36 0 .587-.254.587-.586a.575.575 0 0 0-.587-.587m1.972-4.851a.61.61 0 0 0-.626.626v4.745c0 .347.266.627.626.627s.626-.28.626-.627V30.06a.61.61 0 0 0-.626-.626m0 8.37a.74.74 0 0 0 .733-.733.74.74 0 0 0-.733-.733.74.74 0 0 0-.733.733c0 .4.333.733.733.733m7.05-3.159c.107-.12.186-.24.186-.44 0-.266-.212-.506-.571-.506-.227 0-.374.186-.534.32a1.693 1.693 0 0 1-1.133.413c-1.24 0-1.88-.933-1.88-1.999 0-1.067.64-2 1.88-2 .44 0 .827.147 1.133.414.16.133.307.32.534.32.359 0 .572-.24.572-.507 0-.2-.08-.32-.186-.44-.4-.48-1.226-.839-2.066-.839-1.96 0-3.12 1.346-3.12 3.052s1.16 3.052 3.12 3.052c.84 0 1.666-.36 2.066-.84m2.078-5.211a.61.61 0 0 0-.626.626v4.745c0 .347.266.627.626.627s.626-.28.626-.627V30.06a.61.61 0 0 0-.626-.626m0 8.37a.74.74 0 0 0 .733-.733.74.74 0 0 0-.733-.733.74.74 0 0 0-.733.733c0 .4.333.733.733.733m3.558-8.37a.61.61 0 0 0-.626.626v4.226h-1.013a.511.511 0 0 0-.52.519c0 .294.226.52.52.52h1.013v1.746a.61.61 0 0 0 .626.627.61.61 0 0 0 .626-.627v-1.746h1.147c.293 0 .52-.226.52-.52a.512.512 0 0 0-.52-.52h-1.147V30.06a.61.61 0 0 0-.626-.626m4.675 7.676l.746 1.027c.107.147.227.227.427.227.28 0 .52-.187.52-.493a.55.55 0 0 0-.133-.347l-.734-1a.538.538 0 0 0-.453-.24.511.511 0 0 0-.506.494c0 .12.067.253.133.333m.667-2.626c-.92 0-1.547-.653-1.666-1.48h3.278c-.106.8-.706 1.48-1.612 1.48m2.772-2.065c0-.214-.12-.427-.48-.427h-3.985c.066-.92.693-1.613 1.8-1.613.692 0 1.106.24 1.545.653.107.107.253.2.413.2.28 0 .52-.2.52-.52 0-.133-.067-.252-.16-.36-.506-.586-1.413-.972-2.372-.972-1.986 0-3.039 1.386-3.039 3.052 0 1.746 1.266 3.052 2.986 3.052 1.68 0 2.772-1.36 2.772-3.065"/></g></svg>