<svg xmlns="http://www.w3.org/2000/svg" role="img" viewBox="560.96 386.46 288.08 110.33"><title>SASensor logo</title><style>svg {enable-background:new 0 0 1405 841.89}</style><style>.st2{fill:#034687}.st3{fill:#034688}</style><g id="PQ2kwK.tif"><path fill="#024687" d="M590.05 392.14c.53.39 1.13.71 1.59 1.17 1.07 1.09 1.11 2.43.19 3.93-4.99 8.19-9.98 16.38-14.97 24.58-.76 1.25-1.52 2.5-2.41 3.98 1.72 0 3.21.05 4.7-.04.31-.02.67-.48.88-.82 2.4-3.94 4.76-7.91 7.15-11.86 2.36-3.92 8.14-3.97 10.56-.07 2.23 3.58 4.42 7.19 6.65 10.77 1.14 1.82 1.5 3.69.37 5.63-1.17 1.99-2.98 2.9-5.28 2.9-4.96-.01-9.91.01-14.87-.02-.74-.01-1.13.23-1.51.85-2.99 4.98-6.02 9.94-9.04 14.91-1.08 1.77-2.94 2.43-4.72 1.71-2.01-.8-2.72-2.83-1.61-4.69 2.33-3.89 4.69-7.77 7.04-11.65.2-.33.39-.66.63-1.07-1.43-.08-2.74-.06-4.03-.24-3.04-.43-4.9-2.65-4.81-5.67.02-.61.19-1.28.5-1.79 6.12-10.16 12.26-20.31 18.46-30.42.52-.85 1.56-1.39 2.36-2.07.73-.02 1.45-.02 2.17-.02zm2.46 25.04c-1.8 2.89-3.52 5.65-5.29 8.47h10.39c-1.73-2.86-3.38-5.6-5.1-8.47z"/><path fill="#044788" d="M843.51 413.42c-3.55 5.88-7.1 11.77-10.68 17.71.36.24.66.44 1.24.82-.62.15-.96.29-1.3.3-2.08.02-4.15.02-6.23.01-1.36-.01-1.7-.54-.99-1.83 1.43-2.61 2.95-5.18 4.44-7.77 1.19-2.07 2.39-4.13 3.57-6.2.56-.98.21-1.68-.93-1.83-1.43-.19-2.49.46-3.19 1.66-2.91 4.93-5.8 9.87-8.72 14.85.29.22.56.44 1.09.85-.58.13-.89.26-1.2.26-2.2.02-4.39.02-6.59 0-1.18-.01-1.45-.4-.98-1.49.35-.8.81-1.55 1.26-2.3 3.2-5.32 6.37-10.65 9.63-15.92.8-1.29-.16-1.32-.94-1.88.35-.11.69-.29 1.04-.3 1.6-.03 3.19-.02 4.79-.01 1.75 0 1.94.14 2.53 1.85 1.55-1.51 3.44-1.88 5.5-1.78 1.51.07 3.04-.04 4.54.13.73.08 1.4.63 2.1.96.02.63.02 1.27.02 1.91zm-110.94 17.71c.33.27.61.51 1.12.94-.63.09-.99.18-1.35.18-2 .01-3.99.01-5.99 0-1.62-.01-1.95-.54-1.13-1.97 1.89-3.27 3.82-6.52 5.74-9.78.79-1.34 1.59-2.67 2.36-4.01.54-.94.25-1.57-.8-1.85-1.34-.36-2.66.29-3.56 1.8-2.52 4.24-5.02 8.49-7.53 12.74-.38.65-.76 1.3-1.18 2 .31.25.6.48 1.13.9-.64.08-1 .16-1.37.16-1.96.01-3.91.01-5.87 0-1.75-.01-2.08-.58-1.18-2.1 2.6-4.43 5.22-8.83 7.8-13.27.27-.46.54-1.4.35-1.55-.49-.4-1.33-.8-1.88-.65-.86.24-1.89.74-2.32 1.45-3.04 4.94-5.95 9.96-8.94 15.02.3.24.55.45.87.7-.17.16-.28.35-.39.35-2.51.02-5.03.08-7.54 0-.92-.03-1.09-.75-.48-1.82 1.26-2.17 2.54-4.32 3.83-6.47 2.19-3.65 4.38-7.3 6.6-10.93.88-1.45.9-1.48-.69-2.32.38-.1.75-.29 1.13-.3 1.6-.03 3.2-.02 4.79-.01 1.75 0 2.02.19 2.62 1.84 1.52-1.45 3.36-1.91 5.39-1.84 1.48.05 2.95.02 4.43.11 1.16.07 2.25.36 2.54 1.8 1.5-1.45 3.2-1.98 5.12-1.91 1.71.06 3.44-.02 5.14.17 1.99.22 2.61 1.39 1.71 3.21-.86 1.74-1.91 3.4-2.92 5.06-2.28 3.74-4.59 7.45-6.88 11.18-.24.36-.44.75-.67 1.17z"/><path d="M655.46 410.16c1.48.13 3.02.11 4.49.41 3.36.68 4.33 3 2.6 5.91-1.69 2.84-3.5 5.61-5.04 8.53-2.05 3.88-5.38 5.87-9.46 6.83-3.26.76-6.59.68-9.88.19-2.48-.37-3.77-1.89-3.53-3.87.07-.61.33-1.23.65-1.77 2.05-3.5 4.04-7.05 6.25-10.45 2.11-3.24 5.47-4.66 9.12-5.37 1.55-.3 3.17-.28 4.8-.41zm-10.04 17.4c1.39-.13 2.76-.88 3.62-2.25 1.74-2.76 3.39-5.57 4.99-8.41.26-.46.29-1.36 0-1.73-.3-.38-1.15-.56-1.7-.48-1.62.25-2.84 1.19-3.69 2.59-1.4 2.32-2.79 4.64-4.17 6.96-.26.44-.54.89-.72 1.37-.44 1.17.14 1.94 1.67 1.95zm153.41 4.93c-1.71-.22-3.49-.26-5.15-.71-2.66-.73-3.49-2.93-2.11-5.31 2.05-3.54 4.09-7.1 6.32-10.53 1.93-2.98 5.04-4.32 8.36-5.11 3.21-.76 6.5-.67 9.76-.25 2.48.32 3.94 1.81 3.74 3.68-.07.64-.33 1.31-.66 1.88-2.02 3.47-4.02 6.95-6.15 10.35-1.89 3.02-4.93 4.47-8.24 5.28-1.89.45-3.87.49-5.87.72zm2.93-4.93c1.4-.12 2.76-.88 3.63-2.25 1.74-2.75 3.39-5.58 4.98-8.42.26-.46.3-1.37.01-1.73-.3-.38-1.15-.56-1.7-.48-1.67.25-2.9 1.25-3.76 2.69-1.45 2.42-2.91 4.84-4.35 7.27-.18.31-.36.62-.47.96-.42 1.18.13 1.95 1.66 1.96zm-105.68 3.57c.35.27.62.48 1.09.84-.45.13-.71.28-.97.28-2 .02-3.99.03-5.99 0-1.21-.02-1.51-.28-1.93-1.45-2.48 1.73-5.21 1.78-7.97 1.05-3.01-.79-3.92-2.99-2.36-5.65 1.08-1.85 2.21-3.69 3.51-5.39 1.63-2.14 3.92-3.2 6.62-3.3 2.03-.08 4.07-.13 6.1-.16 2.33-.03 2.7-.29 3.52-2.8h-8.82c-.09-.1-.19-.2-.28-.31.8-1.27 1.58-2.56 2.44-3.8.12-.18.59-.18.89-.18 3.95-.01 7.91-.03 11.86 0 2.93.02 3.75 1.52 2.22 4.13-3.02 5.14-6.09 10.25-9.15 15.38-.25.42-.48.84-.78 1.36zm-2.2-9.72c-1.02 0-1.82.08-2.59-.01-2.82-.33-4.27 1.79-5.21 4.03-.44 1.04.16 1.79 1.3 1.84.79.04 1.6.05 2.39-.01.3-.02.7-.2.85-.44 1.06-1.71 2.08-3.45 3.26-5.41z" class="st2"/><path d="M748.51 430.78c-2.99 1.91-6.08 1.98-9.18.66-1.89-.81-2.54-2.68-1.57-4.48 1.11-2.06 2.36-4.06 3.72-5.95 1.63-2.26 3.99-3.37 6.78-3.47 1.99-.07 3.99-.07 5.99-.08 2.34-.01 2.77-.33 3.67-2.86h-9.02c.52-1.66 1.38-2.92 2.33-4.1.16-.2.67-.17 1.01-.17 3.83-.01 7.67-.01 11.5 0 3.12.01 3.97 1.45 2.37 4.17-3.06 5.21-6.17 10.39-9.25 15.59-.2.34-.39.68-.63 1.1.31.24.59.47 1.04.82-.41.13-.65.25-.88.26-2.04.02-4.07.03-6.11 0-.95-.03-1.74-.32-1.77-1.49zm5.54-9.37c-1.06 0-1.89.08-2.7-.01-2.8-.32-4.42 2.16-5.15 4.14-.37 1.01.18 1.69 1.29 1.76.83.05 1.67.04 2.51.01.24-.01.58-.14.69-.32 1.1-1.78 2.16-3.57 3.36-5.58zm-128.48-15.9c.65-.56 8.18-.77 10.47-.31-.22.55-.37 1.1-.65 1.58-3.76 6.37-7.54 12.72-11.31 19.08-.26.43-.51.87-.93 1.6 3.42-.43 6.64.66 9.72-.81.05.1.18.23.15.3-.65 1.87-1.38 3.73-2.97 5.02-.32.26-.91.26-1.37.26-4.63.02-9.26.01-13.9.01-1.96 0-2.29-.56-1.3-2.3 3.88-6.8 7.78-13.59 11.67-20.38.4-.69.79-1.38 1.19-2.07.83-1.44.82-1.44-.77-1.98z" class="st3"/><path d="M769.84 414.66c-.36-.11-.64-.2-1.03-.32.73-1.22 1.38-2.4 2.12-3.52.18-.27.65-.5.98-.49 2.88.12 5.14-.87 6.57-3.48.14-.26.54-.52.83-.54.98-.07 1.98-.03 3.33-.03-.82 1.44-1.51 2.64-2.28 3.99h6.72c-.87 1.43-1.58 2.69-2.4 3.89-.16.24-.7.31-1.07.31-1.6.03-3.2-.03-4.79.04-.43.02-1.02.29-1.23.63-1.73 2.81-3.42 5.64-5.07 8.5-.41.71-.71 1.52-.92 2.31-.23.85.12 1.41 1.11 1.34 1.63-.1 3.33.4 4.95-.85.03.49.15.79.05.98-.69 1.29-1.32 2.65-2.2 3.8-.4.53-1.34.88-2.04.9-3.87.09-7.74.05-11.62.04-1.68 0-2.01-.56-1.14-2.05 2.2-3.78 4.44-7.53 6.67-11.3.82-1.34 1.62-2.71 2.46-4.15z" class="st2"/><path fill="#034788" d="M675.89 426.9c-.28.61-.54 1.23-.85 1.82-1.83 3.54-1.83 3.56-5.82 3.53-2.39-.02-4.78-.1-7.17-.18-.43-.02-.87-.14-1.28-.28-2.06-.69-2.77-2.16-2-4.21.21-.55.5-1.08.81-1.59 2.29-3.87 4.64-7.7 6.86-11.6 1.56-2.75 3.72-4.19 6.97-4.1 3.53.1 7.07.02 10.89.02-.85 1.3-1.47 2.45-2.3 3.43-.38.45-1.14.72-1.76.79-1.1.13-2.23.02-3.35.06-1.44.05-2.64.59-3.4 1.87-1.81 3.04-3.63 6.07-5.4 9.13-.63 1.09-.3 1.7.94 1.75 1.59.07 3.2.08 4.79-.01.61-.04 1.19-.45 1.78-.68.1.09.2.17.29.25z"/><path d="M786.12 431.28c.37.26.62.44.86.61-.08.14-.09.21-.11.21-2.61.05-5.22.11-7.84.09-.19 0-.56-.67-.51-.97.1-.56.4-1.11.7-1.62 3.3-5.53 6.61-11.04 9.92-16.56.9-1.5.88-1.57-.88-2.31.55-.18.87-.37 1.2-.37 2.23-.03 4.47-.03 6.7-.01 1.64.02 2 .74 1.1 2.25-2.88 4.85-5.78 9.69-8.67 14.54-.81 1.36-1.63 2.72-2.47 4.14z" class="st3"/><path fill="#0e4e8d" d="M801.3 403.48c-.13 2.09-1.49 3.45-3.22 3.45-1.68 0-3.35.01-5.03-.01-.33-.01-.66-.16-1-.25.1-.36.2-.71.31-1.07.04-.11.14-.19.19-.3.65-1.53 1.79-1.99 3.42-1.86 1.74.15 3.5.04 5.33.04z"/></g><path d="M651.75 485.56c.11.79.33 1.38.66 1.77.6.71 1.62 1.07 3.08 1.07.87 0 1.58-.09 2.12-.28 1.03-.36 1.54-1.03 1.54-2 0-.57-.25-1.01-.76-1.32-.5-.3-1.3-.57-2.4-.81l-1.87-.41c-1.84-.41-3.1-.85-3.79-1.32-1.16-.8-1.75-2.04-1.75-3.74 0-1.55.57-2.83 1.71-3.86 1.14-1.02 2.81-1.54 5.02-1.54 1.84 0 3.41.48 4.72 1.45 1.3.96 1.98 2.37 2.05 4.2h-3.47c-.06-1.04-.53-1.78-1.39-2.21-.58-.29-1.29-.43-2.15-.43-.95 0-1.71.19-2.28.56s-.85.9-.85 1.57c0 .62.28 1.08.84 1.38.36.2 1.13.44 2.29.71l3.03.71c1.33.31 2.32.73 2.99 1.25 1.03.81 1.54 1.99 1.54 3.53 0 1.58-.61 2.89-1.83 3.93-1.22 1.04-2.94 1.56-5.17 1.56-2.27 0-4.06-.51-5.37-1.54-1.3-1.03-1.95-2.44-1.95-4.24h3.44zm18.34-11.94h4.08l6.11 17.27h-3.91l-1.14-3.55h-6.36l-1.17 3.55h-3.78l6.17-17.27zm-.23 10.74h4.42l-2.18-6.8-2.24 6.8zm15.23 1.2c.11.79.33 1.38.66 1.77.6.71 1.62 1.07 3.08 1.07.87 0 1.58-.09 2.12-.28 1.03-.36 1.54-1.03 1.54-2 0-.57-.25-1.01-.76-1.32-.5-.3-1.3-.57-2.4-.81l-1.87-.41c-1.84-.41-3.1-.85-3.79-1.32-1.16-.8-1.75-2.04-1.75-3.74 0-1.55.57-2.83 1.71-3.86 1.14-1.02 2.81-1.54 5.02-1.54 1.84 0 3.41.48 4.72 1.45 1.3.96 1.98 2.37 2.05 4.2h-3.47c-.06-1.04-.53-1.78-1.39-2.21-.58-.29-1.29-.43-2.15-.43-.95 0-1.71.19-2.28.56s-.85.9-.85 1.57c0 .62.28 1.08.84 1.38.36.2 1.13.44 2.29.71l3.03.71c1.33.31 2.32.73 2.99 1.25 1.03.81 1.54 1.99 1.54 3.53 0 1.58-.61 2.89-1.83 3.93-1.22 1.04-2.94 1.56-5.17 1.56-2.27 0-4.06-.51-5.37-1.54-1.3-1.03-1.95-2.44-1.95-4.24h3.44zm21.46-7.18c.89.4 1.63 1.03 2.21 1.89.52.76.86 1.64 1.02 2.64.09.59.13 1.43.11 2.54h-9.3c.05 1.28.5 2.18 1.34 2.7.51.32 1.12.48 1.84.48.76 0 1.38-.2 1.85-.59.26-.21.49-.5.69-.88h3.41c-.09.76-.5 1.53-1.24 2.31-1.14 1.24-2.75 1.86-4.81 1.86-1.7 0-3.2-.52-4.5-1.57-1.3-1.05-1.95-2.75-1.95-5.11 0-2.21.59-3.91 1.76-5.09 1.17-1.18 2.7-1.77 4.57-1.77 1.11-.01 2.11.19 3 .59zm-5 2.88c-.47.49-.77 1.15-.89 1.98h5.75c-.06-.89-.36-1.56-.89-2.02s-1.19-.69-1.98-.69c-.85 0-1.52.24-1.99.73zm20.32-2.41c.84.69 1.25 1.84 1.25 3.44v8.6h-3.42v-7.77c0-.67-.09-1.19-.27-1.55-.33-.66-.95-.98-1.86-.98-1.12 0-1.9.48-2.31 1.44-.22.51-.33 1.16-.33 1.95v6.91h-3.34v-12.75h3.23V480c.43-.66.83-1.13 1.21-1.42.68-.52 1.55-.77 2.6-.77 1.33 0 2.41.35 3.24 1.04zm6.95 7.96c.07.59.22 1.02.46 1.27.42.45 1.19.67 2.31.67.66 0 1.18-.1 1.57-.29s.58-.49.58-.88c0-.38-.16-.66-.47-.86-.31-.2-1.48-.53-3.49-1.01-1.45-.36-2.47-.81-3.07-1.35-.59-.53-.89-1.3-.89-2.3 0-1.18.46-2.19 1.39-3.04s2.23-1.27 3.92-1.27c1.6 0 2.9.32 3.9.96s1.58 1.74 1.73 3.3h-3.34c-.05-.43-.17-.77-.36-1.02-.37-.45-1-.68-1.88-.68-.73 0-1.25.11-1.56.34s-.46.49-.46.8c0 .38.16.66.49.83.33.18 1.49.49 3.49.93 1.33.31 2.33.79 2.99 1.42.66.64.98 1.44.98 2.4 0 1.27-.47 2.3-1.42 3.1s-2.4 1.2-4.37 1.2c-2.01 0-3.5-.42-4.46-1.27s-1.44-1.93-1.44-3.24h3.4zm21.41 2.52c-1.08 1.33-2.71 2-4.91 2s-3.83-.67-4.91-2-1.62-2.93-1.62-4.81c0-1.84.54-3.44 1.62-4.79s2.71-2.03 4.91-2.03 3.83.68 4.91 2.03c1.08 1.35 1.62 2.95 1.62 4.79 0 1.87-.54 3.48-1.62 4.81zm-2.67-1.85c.52-.69.79-1.68.79-2.96s-.26-2.26-.79-2.96c-.52-.69-1.27-1.04-2.25-1.04s-1.73.35-2.26 1.04c-.53.69-.79 1.68-.79 2.96s.26 2.27.79 2.96 1.28 1.04 2.26 1.04 1.73-.34 2.25-1.04zm13.78-9.66c.04 0 .14.01.29.02v3.42c-.21-.02-.4-.04-.56-.05s-.3-.01-.4-.01c-1.34 0-2.25.44-2.71 1.31-.26.49-.39 1.25-.39 2.27v6.11h-3.36v-12.77h3.19v2.23c.52-.85.96-1.43 1.35-1.75.62-.52 1.44-.79 2.44-.79.05 0 .1 0 .15.01z"/></svg>