<svg xmlns="http://www.w3.org/2000/svg" role="img" viewBox="22.33 17.83 476.84 142.34"><title>scout logo</title><path fill="#00567d" d="M83.1 54.9c-3.1 22.5-3.9 10.6-9.8 10.6S51 64.2 60.1 54.9c5.1-5.2 6.7-9.5 12.6-9.5 5.8 0 11 4.8 10.4 9.5"/><path fill="none" stroke="#fff" stroke-miterlimit="10" stroke-width="1.554" d="M83.1 54.9c-3.1 22.5-3.9 10.6-9.8 10.6S51 64.2 60.1 54.9c5.1-5.2 6.7-9.5 12.6-9.5 5.8 0 11 4.8 10.4 9.5z"/><path fill="#00567d" d="M98.4 54.9c3.1 22.5 3.9 10.6 9.8 10.6s22.3-1.3 13.2-10.6c-5.1-5.2-6.7-9.5-12.6-9.5-5.8 0-11.1 4.8-10.4 9.5"/><path fill="none" stroke="#fff" stroke-miterlimit="10" stroke-width="1.554" d="M98.4 54.9c3.1 22.5 3.9 10.6 9.8 10.6s22.3-1.3 13.2-10.6c-5.1-5.2-6.7-9.5-12.6-9.5-5.8 0-11.1 4.8-10.4 9.5z"/><path fill="#00a8e1" d="M101.7 98.1h-22c-3.6 9.5-10.8 14.2-21.6 14.2-14 0-25.3-9.3-25.3-23.3 0 0 3.1-10.7 6.6-16.2l13.9-14.7c4.4-4.9 8.1-7.9 17.5-6.7 9.3 1.1 13.6 10.4 13.6 10.4h12.8"/><path fill="none" stroke="#fff" stroke-miterlimit="10" stroke-width="1.554" d="M101.7 98.1h-22c-3.6 9.5-10.8 14.2-21.6 14.2-14 0-25.3-9.3-25.3-23.3 0 0 3.1-10.7 6.6-16.2l13.9-14.7c4.4-4.9 8.1-7.9 17.5-6.7 9.3 1.1 13.6 10.4 13.6 10.4h12.8"/><path fill="#00a8e1" d="M79.8 98.1h22c3.6 9.5 10.8 14.2 21.6 14.2 14 0 25.3-9.3 25.3-23.3 0 0-3.1-10.7-6.6-16.2l-13.9-14.7c-4.4-4.9-8.1-7.9-17.5-6.7-9.3 1.1-13.6 10.4-13.6 10.4H84.3"/><path fill="none" stroke="#fff" stroke-miterlimit="10" stroke-width="1.554" d="M79.8 98.1h22c3.6 9.5 10.8 14.2 21.6 14.2 14 0 25.3-9.3 25.3-23.3 0 0-3.1-10.7-6.6-16.2l-13.9-14.7c-4.4-4.9-8.1-7.9-17.5-6.7-9.3 1.1-13.6 10.4-13.6 10.4H84.3"/><path fill="#00567d" d="M79.8 83.1h21.9v14.2H79.8z"/><linearGradient id="a" x1="0" x2="0" y1="0" y2="1"><stop offset="0" stop-color="#4d4d4f"/><stop offset="1" stop-color="#495965"/></linearGradient><path fill="url(#a)" d="M32.7 89.7c0 13.6 11.1 24.7 24.7 24.7s24.7-11.1 24.7-24.7S71.1 65 57.4 65c-13.6 0-24.7 11.1-24.7 24.7"/><circle cx="57.4" cy="89.7" r="24.7" fill="none" stroke="#fff" stroke-miterlimit="10" stroke-width="1.554"/><path fill="url(#a)" d="M99.4 89.7c0 13.6 11.1 24.7 24.7 24.7s24.7-11.1 24.7-24.7S137.7 65 124.1 65 99.4 76.1 99.4 89.7"/><circle cx="124" cy="89.7" r="24.7" fill="none" stroke="#fff" stroke-miterlimit="10" stroke-width="1.554"/><path fill="none" stroke="#fff" stroke-miterlimit="10" stroke-width=".777" d="M84.3 61.9l-2.9 22m15.7-22l2.8 22m-2.7-22l2.8 22m-15.6-22l-2.9 22"/><path fill="#eef5f9" d="M102.5 89.7c0-11.9 9.7-21.6 21.6-21.6s21.6 9.7 21.6 21.6-9.7 21.6-21.6 21.6c-12 0-21.6-9.6-21.6-21.6"/><path fill="#fff" d="M102.5 89.7c0-11.9 9.7-21.6 21.6-21.6s21.6 9.7 21.6 21.6-9.7 21.6-21.6 21.6c-12 0-21.6-9.6-21.6-21.6"/><path fill="#f1f2f2" d="M36.5 89.7c0-11.6 9.4-20.9 20.9-20.9s20.9 9.4 20.9 20.9-9.4 20.9-20.9 20.9-20.9-9.3-20.9-20.9m66.6 0c0-11.6 9.4-20.9 20.9-20.9 11.6 0 20.9 9.4 20.9 20.9s-9.4 20.9-20.9 20.9-20.9-9.3-20.9-20.9"/><linearGradient id="b" x1="0" x2="0" y1="0" y2="1"><stop offset="0" stop-color="#00a8e1"/><stop offset="1" stop-color="#00567d"/></linearGradient><path fill="url(#b)" d="M130.9 74.1v3.2h-.8V79H129v1.6h-1.8v24.2h-.7V89.9l-6.4-4.1v19.1h-.6v-5.7l-3.5-2.8-3.6 2.7v5.8H109s6.3 5.8 15 5.8 15-5.8 15-5.8h-3.3V80.6H134V79h-1.1v-1.7h-.9V74h-1.1v.1zm-66.6 0v3.2h-.8V79h-1.1v1.6h-1.8v24.2h-.7V89.9l-6.4-4.1v19.1h-.6v-5.7l-3.5-2.8-3.6 2.6v5.8h-3.4s6.3 5.8 15 5.8 15-5.8 15-5.8h-3.3V80.6h-1.8V79h-1.1v-1.7h-.8V74h-1.1v.1z"/><circle cx="124" cy="89.7" r="21.6" fill="none" stroke="#ffce00" stroke-miterlimit="10" stroke-width=".777"/><circle cx="124" cy="89.7" r="20.9" fill="none" stroke="#5c6670" stroke-miterlimit="10" stroke-width=".783"/><circle cx="57.4" cy="89.7" r="21.6" fill="none" stroke="#ffce00" stroke-miterlimit="10" stroke-width=".777"/><circle cx="57.4" cy="89.7" r="20.9" fill="none" stroke="#5c6670" stroke-miterlimit="10" stroke-width=".783"/><path fill="#4d565d" d="M173.3 92.4s7.9 9.8 20 9.8c6.1 0 11.3-2.7 11.3-8.5 0-11.8-35.8-10.5-35.8-31.7 0-12.6 11.1-18.5 24.4-18.5 7.8 0 21.6 2.7 21.6 12.7v6.2h-11.3v-3.2c0-3.9-6-5.6-9.9-5.6-7.4 0-12.4 2.6-12.4 7.8 0 12.5 36 9.8 36 31.7 0 11.7-10.4 19.2-24.2 19.2-17.6 0-26.3-11.6-26.3-11.6l6.6-8.3zm88-48.9c7.9 0 23.7 3.3 23.7 14.4v6.8h-11.4V61c0-4.7-7.5-6.8-12.2-6.8-12.9 0-22.6 9.6-22.6 23.5 0 15 10.9 23.4 23.3 23.4s20.4-9.1 20.4-9.1l5.3 9s-9.2 11.3-26.7 11.3c-20.7 0-35.1-14.7-35.1-34.5-.1-19.2 14.1-34.3 35.3-34.3zm68.2 0c19.6 0 35.5 14.4 35.5 34.3 0 20-15.9 34.6-35.5 34.6s-35.4-14.6-35.4-34.6c.1-19.9 15.8-34.3 35.4-34.3zm0 58c12.5 0 22.6-9.9 22.6-23.7 0-13.7-10.1-23.4-22.6-23.4-12.4 0-22.6 9.8-22.6 23.4 0 13.8 10.3 23.7 22.6 23.7zm50.2-42.8c0-2-1-2.9-2.9-2.9h-5.3V45h12.4c5.9 0 8.3 2.5 8.3 8.1v31.2c0 9.1 2 16.4 12.4 16.4 13.5 0 21.5-11.8 21.5-24.8V45h12.6v52.1c0 2 1 2.9 2.9 2.9h5.3v10.8h-12.1c-5.7 0-8.3-2.6-8.3-7.3V101c0-2.1.1-3.8.1-3.8h-.3c-2.7 6.5-11.3 15.1-24.2 15.1-14.8 0-22.4-7.8-22.4-25.2V58.7zm80.6-3.5h-8.6V45h8.8V27h12.4v18h15.9v10.1h-15.9v30.2c0 13.1 9.2 14.8 14 14.8 1.8 0 3-.3 3-.3V111s-1.8.3-4.4.3c-8.5 0-25.2-2.6-25.2-24.6V55.2z"/><path fill="none" stroke="#4d565d" stroke-width="1.389" d="M490.2 124.7H35.4"/><path fill="#808285" d="M36.4 145v-9.5H39v9.5c0 2.5 1.2 3.8 3.2 3.8 1.9 0 3.2-1.3 3.2-3.7v-9.6h2.5v9.4c0 4.1-2.3 6.2-5.7 6.2-3.5 0-5.8-2.1-5.8-6.1zm16.7 2.9h2.8v2.9h-2.8v-2.9zm7.4.9l1.5-1.9c1.1 1 2.4 1.8 4 1.8 1.5 0 2.4-.8 2.4-2 0-1-.5-1.6-2.9-2.5-2.9-1.1-4.4-2.2-4.4-4.6 0-2.5 2-4.3 4.9-4.3 1.8 0 3.4.6 4.8 1.8l-1.5 2c-1.1-.9-2.2-1.5-3.5-1.5-1.4 0-2.2.8-2.2 1.8 0 1.1.6 1.7 3.2 2.7 2.9 1.1 4.2 2.3 4.2 4.5 0 2.7-2.1 4.4-5 4.4-2 0-3.9-.6-5.5-2.2zm15.483-.892H78.8v2.927h-2.816v-2.927zM100.5 135.4h4.7c4.4 0 7.3 3.1 7.3 7.6v.2c0 4.5-2.9 7.6-7.3 7.6h-4.7v-15.4zm2.6 2.3v10.8h2.1c2.8 0 4.7-2 4.7-5.3v-.1c0-3.3-1.9-5.3-4.7-5.3h-2.1v-.1zm19.3-2.3h9.7v2.3h-7.2v4.2h6.4v2.3h-6.4v4.3h7.3v2.3h-9.8v-15.4zm19.6 0h4.9c3.4 0 5.5 1.9 5.5 5.1 0 3.4-2.5 5.2-5.7 5.2h-2.2v5H142v-15.3zm4.8 8.1c2 0 3.1-1.2 3.1-2.9 0-1.8-1.1-2.9-3.1-2.9h-2.2v5.8h2.2zm18.3-8.2h2.5l5.7 15.5h-2.7l-1.3-3.6h-6l-1.3 3.6h-2.6l5.7-15.5zm3.4 9.6l-2.2-6.2-2.2 6.2h4.4zm14-9.5h5.6c1.8 0 3.2.5 4.1 1.5.8.8 1.3 2 1.3 3.4v.1c0 2.4-1.3 3.9-3.2 4.5l3.6 6H191l-3.3-5.5H185v5.4h-2.6v-15.4h.1zm5.3 7.7c2 0 3.1-1.1 3.1-2.7 0-1.7-1.1-2.6-3-2.6H185v5.3h2.8zm18.5-5.3h-4v-2.4h10.6v2.4h-4v13h-2.6v-13zm16-2.4h2.7l4 7.1 3.9-7.1h2.7v15.4h-2.5v-10.9L229 147h-.1l-4.1-7.1v10.8h-2.5v-15.3zm23.7 0h9.7v2.3h-7.2v4.2h6.4v2.3h-6.4v4.3h7.3v2.3H246v-15.4zm19.6 0h2.4l6.8 10.3v-10.3h2.5v15.4h-2.2l-7-10.6v10.6h-2.5v-15.4zm25.1 2.4h-4v-2.4h10.6v2.4h-4v13h-2.6v-13zm28.3 5.5v-.3c0-4.6 2.8-7.9 6.8-7.9s6.8 3.3 6.8 7.8v.2c0 4.6-2.8 7.9-6.8 7.9-4 .1-6.8-3.2-6.8-7.7zm11-.1v-.2c0-3.3-1.8-5.5-4.2-5.5-2.4 0-4.2 2.2-4.2 5.5v.2c0 3.3 1.8 5.5 4.2 5.5 2.5 0 4.2-2.2 4.2-5.5zm12.6-7.8h9.7v2.4h-7.1v4.3h6.3v2.3h-6.3v6.4h-2.6v-15.4zm32 0h9.7v2.3h-7.2v4.2h6.4v2.3h-6.4v4.3h7.3v2.3h-9.8v-15.4zm19.6 0h2.4l6.8 10.3v-10.3h2.5v15.4h-2.2l-7-10.6v10.6h-2.5v-15.4zm22 0h9.7v2.3h-7.2v4.2h6.4v2.3h-6.4v4.3h7.3v2.3h-9.8v-15.4zm19.6 0h5.6c1.8 0 3.2.5 4.1 1.5.8.8 1.3 2 1.3 3.4v.1c0 2.4-1.3 3.9-3.2 4.5l3.6 6h-2.9l-3.3-5.5h-2.7v5.4h-2.6v-15.4h.1zm5.3 7.7c2 0 3.1-1.1 3.1-2.7 0-1.7-1.1-2.6-3-2.6h-2.8v5.3h2.7zm15 .1v-.2c0-4.5 2.9-7.9 7.1-7.9 2.1 0 3.5.6 4.9 1.7l-1.5 2c-.9-.8-1.8-1.4-3.4-1.4-2.5 0-4.4 2.3-4.4 5.5v.1c0 3.5 1.9 5.5 4.5 5.5 1.1 0 2-.3 2.7-.8v-3.4h-3.2v-2.2h5.7v6.9c-1.3 1-3.1 1.9-5.3 1.9-4.3.2-7.1-2.9-7.1-7.7zm25.7 1.5l-5.2-9.3h2.9l3.6 6.7 3.6-6.7h2.8l-5.2 9.2v6.2h-2.6v-6.1h.1z"/></svg>