<svg xmlns="http://www.w3.org/2000/svg" role="img" viewBox="-12.34 -12.34 534.68 641.68"><title>Senses Toolkit logo</title><defs id="defs11480"><style id="style11478">.cls-1{fill:#5263ff}</style></defs><g id="svgGroup" fill="#000" fill-rule="evenodd" stroke="#000" stroke-linecap="round" stroke-width=".25mm" transform="translate(1.017 506.788) scale(1.51827)"><g id="path11482" stroke="none" color="#000"><path id="path12340" d="M161.8 71l-42-67.1h-.3V71h-2.1V1.2h3.2l42 67.1h.3V1.2h2.1V71zm-62.4 0H61.3V1.2h38.1v2H63.5v31.4h34.7v2H63.5V69h35.9zm180 0h-38.1V1.2h38.1v2h-35.9v31.4h34.7v2h-34.7V69h35.9zM0 60.8l1.8-1.3q1.8 2.4 3.9 4.35 2.1 1.95 4.7 3.4a21.451 21.451 0 0 0 4.237 1.782 25.183 25.183 0 0 0 1.563.418 27.547 27.547 0 0 0 3.626.586 37.063 37.063 0 0 0 3.574.164 31.31 31.31 0 0 0 5.515-.454q3.018-.541 5.416-1.725A15.385 15.385 0 0 0 37.5 65.95a13.618 13.618 0 0 0 4.382-7.214q.579-2.267.616-4.973a27.117 27.117 0 0 0 .002-.363 23.66 23.66 0 0 0-.19-3.089q-.316-2.398-1.16-4.211-1.35-2.9-3.55-4.75a15.463 15.463 0 0 0-4.246-2.516 17.973 17.973 0 0 0-.904-.334q-2.95-1-6.05-1.6l-7-1.3a44.438 44.438 0 0 1-3.708-.855q-2.867-.801-4.992-1.895a20.825 20.825 0 0 1-2.891-1.783A15.485 15.485 0 0 1 5.25 28.7a14.358 14.358 0 0 1-2.228-3.489A12.955 12.955 0 0 1 2.4 23.5a21.232 21.232 0 0 1-.796-5.489A23.799 23.799 0 0 1 1.6 17.6a21.6 21.6 0 0 1 .595-5.234A13.884 13.884 0 0 1 7.4 4.35a20.413 20.413 0 0 1 6.988-3.321q2.846-.771 6.211-.964A40.214 40.214 0 0 1 22.9 0a37.699 37.699 0 0 1 5.238.343q4.341.61 7.512 2.307Q40.6 5.3 43.5 9.5l-1.8 1.3q-3-4.4-7.6-6.6a20.943 20.943 0 0 0-4.796-1.579Q26.313 2 22.7 2a33.199 33.199 0 0 0-5.421.415q-5.12.849-8.479 3.435a12.323 12.323 0 0 0-4.487 7.105q-.509 2.098-.513 4.606a25.005 25.005 0 0 0 0 .039 21.494 21.494 0 0 0 .183 2.886q.305 2.246 1.117 3.964a12.764 12.764 0 0 0 2.998 4.082A12.333 12.333 0 0 0 8.65 29a17.769 17.769 0 0 0 4.612 2.647 20.21 20.21 0 0 0 .538.203 37.384 37.384 0 0 0 4.926 1.399A42.579 42.579 0 0 0 20 33.5l7 1.3a41.604 41.604 0 0 1 3.769.87q1.816.515 3.327 1.16a19.924 19.924 0 0 1 1.704.82 21.22 21.22 0 0 1 2.869 1.858A15.536 15.536 0 0 1 41.2 41.95a14.339 14.339 0 0 1 2.263 3.815 13.211 13.211 0 0 1 .487 1.485q.75 2.85.75 5.95a24.891 24.891 0 0 1-.59 5.599q-.88 3.813-3.074 6.541a14.596 14.596 0 0 1-2.086 2.11Q33.2 72.2 23.4 72.2a39.114 39.114 0 0 1-3.916-.186q-2.101-.212-3.934-.664a29.021 29.021 0 0 1-4.46-1.476A25.161 25.161 0 0 1 9.25 69q-2.85-1.5-5.1-3.6Q1.9 63.3 0 60.8zm180 0l1.8-1.3q1.8 2.4 3.9 4.35 2.1 1.95 4.7 3.4a21.451 21.451 0 0 0 4.237 1.782 25.183 25.183 0 0 0 1.563.418 27.547 27.547 0 0 0 3.626.586 37.063 37.063 0 0 0 3.574.164 31.31 31.31 0 0 0 5.515-.454q3.018-.541 5.416-1.725a15.385 15.385 0 0 0 3.169-2.071 13.618 13.618 0 0 0 4.382-7.214q.579-2.267.616-4.973a27.117 27.117 0 0 0 .002-.363 23.66 23.66 0 0 0-.19-3.089q-.316-2.398-1.16-4.211-1.35-2.9-3.55-4.75a15.463 15.463 0 0 0-4.246-2.516 17.973 17.973 0 0 0-.904-.334q-2.95-1-6.05-1.6l-7-1.3a44.438 44.438 0 0 1-3.708-.855q-2.867-.801-4.992-1.895a20.825 20.825 0 0 1-2.891-1.783 15.485 15.485 0 0 1-2.559-2.367 14.358 14.358 0 0 1-2.228-3.489 12.955 12.955 0 0 1-.622-1.711 21.232 21.232 0 0 1-.796-5.489 23.799 23.799 0 0 1-.004-.411 21.6 21.6 0 0 1 .595-5.234A13.884 13.884 0 0 1 187.4 4.35a20.413 20.413 0 0 1 6.988-3.321q2.846-.771 6.211-.964A40.214 40.214 0 0 1 202.9 0a37.699 37.699 0 0 1 5.238.343q4.341.61 7.512 2.307 4.95 2.65 7.85 6.85l-1.8 1.3q-3-4.4-7.6-6.6a20.943 20.943 0 0 0-4.796-1.579Q206.313 2 202.7 2a33.199 33.199 0 0 0-5.421.415q-5.12.849-8.479 3.435a12.323 12.323 0 0 0-4.487 7.105q-.509 2.098-.513 4.606a25.005 25.005 0 0 0 0 .039 21.494 21.494 0 0 0 .183 2.886q.305 2.246 1.117 3.964a12.764 12.764 0 0 0 2.998 4.082 12.333 12.333 0 0 0 .552.468 17.769 17.769 0 0 0 4.612 2.647 20.21 20.21 0 0 0 .538.203 37.384 37.384 0 0 0 4.926 1.399A42.579 42.579 0 0 0 200 33.5l7 1.3a41.604 41.604 0 0 1 3.769.87q1.816.515 3.327 1.16a19.924 19.924 0 0 1 1.704.82 21.22 21.22 0 0 1 2.869 1.858 15.536 15.536 0 0 1 2.531 2.442 14.339 14.339 0 0 1 2.263 3.815 13.211 13.211 0 0 1 .487 1.485q.75 2.85.75 5.95a24.891 24.891 0 0 1-.59 5.599q-.88 3.813-3.074 6.541a14.596 14.596 0 0 1-2.086 2.11q-5.75 4.75-15.55 4.75a39.114 39.114 0 0 1-3.916-.186q-2.101-.212-3.934-.664a29.021 29.021 0 0 1-4.46-1.476 25.161 25.161 0 0 1-1.84-.874q-2.85-1.5-5.1-3.6-2.25-2.1-4.15-4.6zm110.8 0l1.8-1.3q1.8 2.4 3.9 4.35 2.1 1.95 4.7 3.4a21.451 21.451 0 0 0 4.237 1.782 25.183 25.183 0 0 0 1.563.418 27.547 27.547 0 0 0 3.626.586 37.063 37.063 0 0 0 3.574.164 31.31 31.31 0 0 0 5.515-.454q3.018-.541 5.416-1.725a15.385 15.385 0 0 0 3.169-2.071 13.618 13.618 0 0 0 4.382-7.214q.579-2.267.616-4.973a27.117 27.117 0 0 0 .002-.363 23.66 23.66 0 0 0-.19-3.089q-.316-2.398-1.16-4.211-1.35-2.9-3.55-4.75a15.463 15.463 0 0 0-4.246-2.516 17.973 17.973 0 0 0-.904-.334q-2.95-1-6.05-1.6l-7-1.3a44.438 44.438 0 0 1-3.708-.855q-2.867-.801-4.992-1.895a20.825 20.825 0 0 1-2.891-1.783 15.485 15.485 0 0 1-2.559-2.367 14.358 14.358 0 0 1-2.228-3.489 12.955 12.955 0 0 1-.622-1.711 21.232 21.232 0 0 1-.796-5.489 23.799 23.799 0 0 1-.004-.411 21.6 21.6 0 0 1 .595-5.234A13.884 13.884 0 0 1 298.2 4.35a20.413 20.413 0 0 1 6.988-3.321q2.846-.771 6.211-.964A40.214 40.214 0 0 1 313.7 0a37.699 37.699 0 0 1 5.238.343q4.341.61 7.512 2.307 4.95 2.65 7.85 6.85l-1.8 1.3q-3-4.4-7.6-6.6a20.943 20.943 0 0 0-4.796-1.579Q317.113 2 313.5 2a33.199 33.199 0 0 0-5.421.415q-5.12.849-8.479 3.435a12.323 12.323 0 0 0-4.487 7.105q-.509 2.098-.513 4.606a25.005 25.005 0 0 0 0 .039 21.494 21.494 0 0 0 .183 2.886q.305 2.246 1.117 3.964a12.764 12.764 0 0 0 2.998 4.082 12.333 12.333 0 0 0 .552.468 17.769 17.769 0 0 0 4.612 2.647 20.21 20.21 0 0 0 .538.203 37.384 37.384 0 0 0 4.926 1.399 42.579 42.579 0 0 0 1.274.251l7 1.3a41.604 41.604 0 0 1 3.769.87q1.816.515 3.327 1.16a19.924 19.924 0 0 1 1.704.82 21.22 21.22 0 0 1 2.869 1.858A15.536 15.536 0 0 1 332 41.95a14.339 14.339 0 0 1 2.263 3.815 13.211 13.211 0 0 1 .487 1.485q.75 2.85.75 5.95a24.891 24.891 0 0 1-.59 5.599q-.88 3.813-3.074 6.541a14.596 14.596 0 0 1-2.086 2.11Q324 72.2 314.2 72.2a39.114 39.114 0 0 1-3.916-.186q-2.101-.212-3.934-.664a29.021 29.021 0 0 1-4.46-1.476 25.161 25.161 0 0 1-1.84-.874q-2.85-1.5-5.1-3.6-2.25-2.1-4.15-4.6z" vector-effect="non-scaling-stroke"/><path id="path12342" d="M22.89844-.47266c-.77583-.00026-1.5516.02232-2.32617.06641-2.26958.13017-4.3711.45566-6.30274.97852-2.57805.66648-5.00555 1.81844-7.15039 3.39648v.00195l-.00195.00195c-2.7167 2.03758-4.6234 4.97299-5.38086 8.2832-.00015.00063.00015.0013 0 .002-.4195 1.74948-.62533 3.5428-.60937 5.3418.00015.13973.00134.28022.0039.41992.02489 1.89726.29922 3.78325.81446 5.60938a13.42727 13.42727 0 0 0 .64453 1.77343l.00195.002a14.83812 14.83812 0 0 0 2.30078 3.60352c.78442.90973 1.6687 1.72823 2.63672 2.43945.93423.68731 1.9235 1.29792 2.95703 1.82422 1.45137.74699 3.14314 1.38713 5.07813 1.92774l.002.002c1.23623.3414 2.48714.62889 3.74804.86328l7 1.30078c2.04456.39591 4.0395.92275 5.98438 1.58203.29627.10052.58845.20992.8789.32617h.004c1.49384.58742 2.88259 1.41127 4.11524 2.43945 1.40953 1.18558 2.55122 2.70726 3.42578 4.58594.53855 1.15687.91358 2.51428 1.11914 4.07422.1279 1.00332.18961 2.01395.18555 3.0254v.002a26.0138 26.0138 0 0 1-.002.35741c-.02436 1.7713-.22627 3.39191-.60156 4.86133v.0039l-.002.0059c-.6369 2.71071-2.1185 5.14819-4.23047 6.9629-.93647.7918-1.96704 1.46636-3.06836 2.00585h-.002c-1.55373.76715-3.3146 1.32966-5.28907 1.6836-1.79322.30884-3.6101.45881-5.42968.44726h-.004c-1.17807.0029-2.3545-.05137-3.52735-.1621h-.002c-1.19942-.1125-2.3887-.30513-3.5625-.57618a24.69549 24.69549 0 0 1-1.5332-.41016h-.002c-1.43884-.43058-2.82647-1.01511-4.14062-1.74218l-.002-.002c-1.7007-.94901-3.2363-2.05924-4.6072-3.3322-1.3785-1.28004-2.65981-2.70853-3.84375-4.28711l-.27734-.3711-2.57031 1.85547.29297.38477c1.28246 1.68745 2.6852 3.2416 4.20507 4.66015 1.53172 1.4296 3.26611 2.65342 5.20118 3.67188a25.6458 25.6458 0 0 0 1.875.89062h.002c1.46784.62168 2.98233 1.1233 4.53125 1.5 1.24606.30727 2.57962.53246 4 .67579 1.31712.12895 2.63947.19103 3.96289.1875 6.60965 0 11.91467-1.60683 15.8496-4.85743.78997-.65106 1.51232-1.38037 2.1543-2.17773 1.5107-1.8784 2.56556-4.13065 3.16602-6.73242v-.004c.41538-1.87227.61742-3.7854.60156-5.70313-.00016-2.10405-.25506-4.1282-.76562-6.06836a13.66475 13.66475 0 0 0-.5039-1.5371v-.002a14.81647 14.81647 0 0 0-2.3379-3.94141 16.00114 16.00114 0 0 0-2.60742-2.51563 21.6936 21.6936 0 0 0-2.93164-1.89844h-.002c-.56737-.3068-1.1483-.58788-1.74219-.8397-1.02843-.439-2.15543-.83161-3.38281-1.17969h-.002c-1.25566-.35206-2.52763-.64492-3.81055-.8789h-.002l-6.99805-1.30078h-.002a42.0973 42.0973 0 0 1-1.25976-.24805 36.9306 36.9306 0 0 1-4.86328-1.38086h-.002c-.1755-.0634-.34981-.13087-.52344-.19922h-.002c-1.6167-.62862-3.12988-1.49746-4.48828-2.57617h-.00195c-.1803-.1442-.35532-.29472-.52711-.44922-1.21526-1.10431-2.1966-2.4397-2.88672-3.92969l-.00195-.002v-.002c-.51687-1.09347-.87815-2.36713-1.07618-3.82412v-.002c-.12278-.93509-.18345-1.87711-.17969-2.82027v-.04106c.00276-1.63942.17092-3.1377.5-4.49414l.00195-.0059.00195-.0039c.5934-2.71276 2.11996-5.1322 4.31446-6.8339 2.16645-1.66727 4.91222-2.7858 8.26368-3.3418 1.7671-.28224 3.55427-.41817 5.34375-.4082h.002c2.3816 0 4.55088.20502 6.5078.61132h.004c1.61853.3234 3.19142.84174 4.68555 1.54297 2.99214 1.43102 5.45674 3.5687 7.41407 6.43946l.27343.40039 2.56837-1.85547-.26368-.3789c-1.97848-2.8652-4.65805-5.2005-8.01576-6.99806C33.70074 1.07184 31.1412.28788 28.20313-.125h-.002c-1.75698-.23877-3.52759-.35517-5.30074-.34766zm.002.94532h.002c1.72924-.00742 3.4564.10512 5.16992.33789 2.84991.40047 5.29978 1.15573 7.35547 2.25586 3.09157 1.65508 5.51348 3.79239 7.37304 6.35547l-1.0332.74804c-1.9977-2.7928-4.46688-4.96356-7.46298-6.39648h-.002l-.002-.00195c-1.56241-.7335-3.20772-1.27478-4.9003-1.61329h-.0039c-2.02896-.42096-4.26068-.63061-6.69337-.63086h-.0039c-1.83983-.01003-3.6773.1317-5.49414.42188h-.004c-3.47316.57593-6.3779 1.7478-8.68936 3.52734h-.00195c-2.36863 1.83673-4.01519 4.44709-4.65625 7.375-.00019.00085-.00177.0011-.00195.002-.34798 1.43785-.52073 3.00685-.52344 4.70703v.03711c-.00394.98623.05707 1.9714.18555 2.94922l.00195.002c.20848 1.53527.59163 2.90389 1.15625 4.09961.00038.00082.00158.0011.00195.002.00025.00053-.00025.0014 0 .002.74307 1.60293 1.79983 3.0403 3.10742 4.22852v.002c.18625.16754.37846.33.57422.48633 1.43297 1.13815 3.0288 2.05557 4.73437 2.71875v-.002c.18253.07186.36433.14235.54883.20898h.002a37.85411 37.85411 0 0 0 4.98633 1.41602c.42744.091.8571.17595 1.2871.2539l7 1.29883.002.002c1.25474.22878 2.49656.51505 3.72462.85938 1.19395.33859 2.2833.71767 3.26953 1.13867v.002h.002c.56689.24037 1.12056.50775 1.6621.80078h.002a20.74159 20.74159 0 0 1 2.8047 1.8164c.905.69382 1.72932 1.4876 2.45507 2.3672v.002c.91643 1.1088 1.6538 2.35166 2.1875 3.6875.18465.4676.34062.94549.46875 1.43163.48928 1.85923.73633 3.79956.73633 5.82813v.004c.01542 1.8469-.18003 3.69101-.58008 5.49414-.57303 2.4803-1.56668 4.58781-2.98046 6.3457-.60173.74737-1.27715 1.43273-2.01758 2.04297h-.002c-3.73173 3.08273-8.79105 4.64258-15.24805 4.64258h-.002c-1.29182.0035-2.58346-.05967-3.86914-.18555l.002.002c-1.38095-.13934-2.66925-.3589-3.86718-.6543h-.002c-1.4988-.36495-2.96653-.85021-4.38682-1.45164h-.002c-.61254-.26118-1.21321-.54758-1.80269-.85742-1.86493-.98154-3.52977-2.15695-4.99804-3.52734-1.36231-1.2715-2.60148-2.68427-3.76954-4.17969l1.03126-.74414c1.13508 1.47171 2.33515 2.8486 3.64453 4.06445 1.42845 1.32642 3.02625 2.4826 4.79101 3.4668l.002.002a21.91796 21.91796 0 0 0 4.32813 1.82031 25.63942 25.63942 0 0 0 1.5918.42578h.002a28.0083 28.0083 0 0 0 3.6875.5957 37.52657 37.52657 0 0 0 3.61914.16602 31.79827 31.79827 0 0 0 5.5957-.46094h.002c2.04887-.36727 3.8978-.9545 5.54101-1.76562 1.1725-.57435 2.26889-1.29148 3.26563-2.13477l.002-.002h.002c2.26303-1.9445 3.84827-4.55846 4.53125-7.46289.00017-.00066.0018-.0013.002-.002.39506-1.5502.60385-3.2419.6289-5.07422a28.0894 28.0894 0 0 0 .002-.36718c.0042-1.05333-.06007-2.10552-.19335-3.1504V50.25c-.21577-1.63739-.6144-3.08915-1.20118-4.3496-.92521-1.98751-2.15052-3.63116-3.67382-4.91212l-.002-.002a15.92812 15.92812 0 0 0-4.37305-2.5918h-.002a18.43187 18.43187 0 0 0-.92578-.3418c-1.98711-.67359-4.02404-1.21319-6.11133-1.61718h-.002l-7.00195-1.30078a43.95037 43.95037 0 0 1-3.66797-.8457c-1.88678-.52715-3.52084-1.14815-4.90235-1.85938h-.002c-.98782-.5029-1.93157-1.08728-2.82436-1.7441H8.0879c-.91071-.6691-1.7425-1.43905-2.48047-2.29491-.87709-1.01433-1.60291-2.14876-2.1543-3.3711v-.002c-.23785-.53423-.4389-1.08412-.5996-1.64644h.00195c-.49298-1.74722-.75565-3.5519-.7793-5.36718v-.002a23.2602 23.2602 0 0 1-.0039-.40235v-.004a21.12453 21.12453 0 0 1 .58202-5.11914v-.002l.00195-.0039a13.40804 13.40804 0 0 1 5.02735-7.742c2.04695-1.50533 4.36225-2.60623 6.82227-3.2422h.0039l.002-.00194C16.3727.98022 18.41077.66423 20.625.5371a39.79157 39.79157 0 0 1 2.2754-.06445zm37.92769.25586v70.74414h39.04492V68.52734h-35.9004V37.07227h34.69922v-2.94532H63.97266V3.67187h35.90039V.72852zm56.0996 0v70.74414h3.04493V5.0664l41.5664 66.40625H165.47266V.72852h-3.04493v66.40625L120.86133.72852zm-55.15625.94336h37.15625v1.05664H63.02734v32.34375h34.70118v1.05468H63.02734v33.3457h35.9004v1.0547H61.77147zm56.10157 0h2.46484l42 67.0996h1.03516V1.67188h1.15429v68.85546h-2.46484l-42-67.0996h-1.03516v67.0996h-1.15429zm65.98047 11.17187c-.00058.0024.00057.0055 0 .0078-.00019.00084-.002.0011-.002.002zm38.48828 46l-.002.0098c.0006-.0023-.0006-.0055 0-.0078.00017-.00066.002-.0013.002-.002z" vector-effect="non-scaling-stroke"/></g></g><g id="proposal1" transform="translate(24.2 -25)"><g id="Group"><path id="Oval" d="M182 418C82.2 418 1 337.48 1 238.5S82.2 59 182 59s181 80.52 181 179.5S281.8 418 182 418zm0-336.5c-87.4 0-158.5 70.43-158.5 157s71.1 157 158.5 157 158.5-70.43 158.5-157-71.1-157-158.5-157z" class="cls-1"/><path id="Oval-2" d="M340.5 265C274.06 265 220 211.17 220 145S274.06 25 340.5 25 461 78.83 461 145s-54.06 120-120.5 120zm0-217.5c-54 0-98 43.74-98 97.5s44 97.5 98 97.5 98-43.74 98-97.5-43.96-97.5-98-97.5z" class="cls-1" data-name="Oval"/><path id="Oval-3" d="M400.5 437c-33.36 0-60.5-26.92-60.5-60s27.14-60 60.5-60 60.5 26.92 60.5 60-27.14 60-60.5 60zm0-97.5c-20.95 0-38 16.82-38 37.5s17.05 37.5 38 37.5 38-16.82 38-37.5-17.05-37.5-38-37.5z" class="cls-1" data-name="Oval"/></g></g></svg>