<svg xmlns="http://www.w3.org/2000/svg" role="img" viewBox="13.22 33.22 638.56 216.06"><title>Sense Reply logo</title><g data-name="Sense Reply"><clipPath id="a"><path d="M0 283.465h841.89V0H0z" transform="matrix(1 0 0 -1 0 283.465)"/></clipPath><g clip-path="url(#a)"><path fill="#487abd" d="M172.575 45.846c-9.061 0-16.386 7.345-16.386 16.416 0 9.043 7.325 16.377 16.386 16.377 9.043 0 16.387-7.334 16.387-16.377 0-9.071-7.344-16.416-16.387-16.416m-35.941 68.966l20.475-26.953c1.046-1.378 1.133-3.259.218-4.727l-8.697-13.955c-.766-1.23-2.117-1.974-3.567-1.964l-37.535.263-20.579-.016c-1.611-.001-2.327 2.025-1.073 3.036l5.767 4.651c.811.654 1.772 1.097 2.796 1.29l35.744 6.734-44.216 47.52-58.196 8.266c-2.015.286-2.875 2.721-1.487 4.209l5.684 6.096c1.124 1.206 2.708 1.879 4.357 1.852l56.179-.923c2.081-.034 4.115-.623 5.892-1.705l13.461-8.197 28.409 22.549c1.119.888 1.852 2.175 2.044 3.59l5.408 39.819c.255 1.877 1.858 3.277 3.753 3.277h2.894c2.086 0 3.779-1.687 3.787-3.773l.165-44.189c.009-2.28-.721-4.501-2.079-6.332l-24.788-33.41z"/><path fill="#004f5a" d="M280.146 104.193c0-8.132-6.358-13.159-14.638-13.159H243.33v26.614h22.178c8.28 0 14.638-5.027 14.638-13.455m-2.07 66.979l-19.369-35.042H243.33v35.042h-20.996v-98.62h46.132c20.551 0 33.267 13.454 33.267 31.789 0 17.299-11.09 26.762-21.735 29.275l22.327 37.556zm39.324 0v-98.62h69.789v18.482h-48.793v20.7h47.758v18.482h-47.758v22.474h48.793v18.482zm144.01-66.832c0-8.28-6.358-13.307-14.638-13.307h-22.179v26.466h22.179c8.28 0 14.638-5.027 14.638-13.159m-57.812 66.831v-98.62h46.131c21.439 0 33.12 14.49 33.12 31.789 0 17.151-11.828 31.641-33.12 31.641h-25.136v35.19zm91.52.001v-98.62h21.144v80.138h41.695v18.482zm85.755 0v-40.365l-37.851-58.255h23.952l24.397 39.477 24.396-39.477h23.805l-37.704 58.255v40.365z"/><path fill="#487abd" d="M219.661 231.028l4.065-5.605c2.773 3.017 7.27 5.728 12.998 5.728 5.914 0 8.193-2.895 8.193-5.668 0-8.623-23.901-3.264-23.901-18.355 0-6.838 5.914-12.075 14.969-12.075 6.345 0 11.581 2.094 15.338 5.791l-4.065 5.359c-3.265-3.265-7.638-4.743-11.951-4.743-4.188 0-6.899 2.094-6.899 5.113 0 7.699 23.901 2.957 23.901 18.233 0 6.837-4.867 12.751-15.893 12.751-7.576 0-13.059-2.711-16.755-6.529m39.242 5.791v-41.087h28.15v6.345H266.11v10.595h20.513v6.345H266.11v11.457h20.943v6.345zm64.189 0l-21.437-29.384v29.384h-7.207v-41.087h7.392l21.006 28.459v-28.459h7.207v41.087zm13.061-5.791l4.065-5.605c2.773 3.017 7.27 5.728 12.998 5.728 5.914 0 8.193-2.895 8.193-5.668 0-8.623-23.901-3.264-23.901-18.355 0-6.838 5.914-12.075 14.969-12.075 6.345 0 11.581 2.094 15.338 5.791l-4.065 5.359c-3.265-3.265-7.639-4.743-11.951-4.743-4.188 0-6.899 2.094-6.899 5.113 0 7.699 23.901 2.957 23.901 18.233 0 6.837-4.867 12.751-15.893 12.751-7.576 0-13.059-2.711-16.755-6.529m39.241 5.791v-41.087h28.15v6.345h-20.943v10.595h20.513v6.345h-20.513v11.457h20.943v6.345z"/></g></g></svg>