<svg xmlns="http://www.w3.org/2000/svg" role="img" viewBox="-1.16 -1.16 60.45 11.57"><title>SimBench logo</title><g transform="translate(-.785 9.117)"><path d="M7.51172-2.49023q0 .50976-.24024 1.0078-.23437.49806-.6621.84376-.46875.375-1.0957.58594-.6211.21093-1.5.21093-.94337 0-1.69923-.17578-.75-.17578-1.5293-.52148V-1.9922H.8672q.6621.55078 1.5293.84961.86718.29883 1.6289.29883 1.07813 0 1.67578-.4043.60352-.4043.60352-1.07812 0-.58008-.28711-.85547-.28125-.2754-.86133-.42774-.43945-.11718-.95508-.19335-.50976-.07618-1.08398-.19336-1.16016-.2461-1.72266-.8379Q.8379-5.43163.8379-6.38671q0-1.0957.92578-1.79297.92578-.70312 2.34961-.70312.91992 0 1.6875.17578t1.35938.4336v1.37109h-.08204q-.49804-.42188-1.3125-.69727-.80859-.28125-1.6582-.28125-.93164 0-1.5.38672-.5625.38672-.5625.9961 0 .54491.28125.85546t.99024.47461q.375.08203 1.0664.19922t1.17188.24023q.97265.25782 1.46484.7793.49219.52149.49219 1.45899z"/><path d="M10.4707-7.64063H9.22852V-8.7832h1.24218zM10.4004 0H9.29882v-6.54492h1.10156z"/><path d="M22.13086 0H21.0293v-3.72656q0-.42188-.04102-.81446-.03516-.39257-.1582-.62695-.13477-.25195-.38672-.38086-.25196-.1289-.72657-.1289-.46289 0-.92578.23437-.46289.22852-.92578.58594.01758.13476.0293.3164.01172.17579.01172.35157V0h-1.10156v-3.72656q0-.4336-.04102-.82031-.03516-.39258-.1582-.62696-.13477-.25195-.38673-.375-.25195-.1289-.72656-.1289-.45117 0-.9082.22265-.45117.22266-.90234.56836V0h-1.10157v-6.54492h1.10157v.72656q.51562-.42773 1.02539-.66797.51562-.24023 1.0957-.24023.66797 0 1.13086.28125.46875.28125.69726.7793.66797-.5625 1.21875-.8086.55079-.25195 1.17774-.25195 1.07812 0 1.58789.65625.51562.65039.51562 1.82226z"/><path d="M30.91992-2.6836q0 .6504-.2461 1.14844-.24609.49805-.6621.82032-.49219.38672-1.08399.55078Q28.3418 0 27.4336 0h-3.09375v-8.7246h2.58399q.95508 0 1.42969.0703.4746.07031.9082.29297.48047.25195.69726.6504.2168.39257.2168.94335 0 .6211-.3164 1.06055-.31641.4336-.84376.69726v.04688q.88477.18164 1.39454.7793.50976.5918.50976 1.5zm-1.95117-3.93163q0-.31641-.10547-.5332-.10547-.2168-.33984-.35157-.2754-.1582-.66797-.19336-.39258-.04101-.97266-.04101H25.5v2.51953H27q.54492 0 .86719-.05274.32226-.0586.59765-.23437.2754-.17578.38672-.45117.11719-.28125.11719-.66211zm.74414 3.97851q0-.52734-.1582-.83789t-.57422-.52734q-.28125-.14649-.68555-.1875-.39844-.04688-.97265-.04688H25.5v3.2461h1.53516q.76171 0 1.24804-.07618.48633-.08203.79688-.29296.32812-.22852.48047-.52149.15234-.29297.15234-.75586z"/><path d="M37.95703-3.1582h-4.82226q0 .60351.18164 1.05468.18164.44532.49804.73243.3047.28125.7207.42187.42188.14063.92579.14063.66797 0 1.3418-.26368.67968-.26953.9668-.52734h.05858v1.20117q-.55664.23438-1.13672.39258-.58008.1582-1.21875.1582-1.6289 0-2.54297-.8789-.91406-.88477-.91406-2.50782 0-1.60546.87305-2.54882.8789-.94336 2.3086-.94336 1.32421 0 2.03905.77344.7207.77343.7207 2.19726zm-1.07226-.84375q-.0059-.8672-.43946-1.3418-.42773-.4746-1.30664-.4746-.88476 0-1.4121.52147-.5215.52149-.5918 1.29493z"/><path d="M45.0996 0h-1.10155v-3.72656q0-.45117-.05273-.84375-.05273-.39844-.19336-.6211-.14649-.24609-.42188-.36328-.27539-.12304-.71484-.12304-.45117 0-.94336.22265-.49219.22266-.94336.56836V0h-1.10156v-6.54492h1.10156v.72656q.51563-.42773 1.0664-.66797.55079-.24023 1.13087-.24023 1.06054 0 1.61718.63867t.55664 1.83984z"/><path d="M52.06055-.41016Q51.50977-.14648 51.01172 0q-.49219.14648-1.04883.14648-.70898 0-1.30078-.20507-.5918-.21094-1.01367-.63282-.42774-.42187-.66211-1.0664-.23438-.64453-.23438-1.50586 0-1.60547.8789-2.51953.88477-.91407 2.33204-.91407.5625 0 1.10156.1582.54492.15821.9961.38673v1.2246h-.0586q-.5039-.39257-1.04296-.60351-.5332-.21094-1.04297-.21094-.9375 0-1.48242.63281-.53906.62696-.53906 1.8457 0 1.1836.52734 1.82227.5332.63282 1.49414.63282.33398 0 .67969-.0879.3457-.08788.6211-.22851.24023-.12305.45116-.25781.21094-.14063.33399-.24024h.05859z"/><path d="M58.94531 0h-1.10156v-3.72656q0-.45117-.05273-.84375-.05273-.39844-.19336-.6211-.14648-.24609-.42188-.36328-.27539-.12304-.71484-.12304-.45117 0-.94336.22265-.49219.22266-.94336.56836V0h-1.10156v-9.11719h1.10156v3.29883q.51563-.42773 1.0664-.66797.55079-.24023 1.13087-.24023 1.06054 0 1.61719.63867.55664.63867.55664 1.83984z"/></g></svg>