<svg xmlns="http://www.w3.org/2000/svg" role="img" viewBox="-4.70 -4.70 244.14 214.14"><title>SimCCS logo</title><g stroke-width=".64" transform="translate(-587.464 -173.433)"><path fill="#61abaf" d="M660.00005 377.76063c8.008-.10156 21.112-.10156 29.12 0 8.008.10155 1.456.18464-14.56.18464-16.016 0-22.568-.0831-14.56-.18464zm58.83738.00032c6.92857-.10324 18.44857-.10338 25.6-.00031 7.15142.10307 1.48262.18755-12.59738.18772-14.08.00017-19.9312-.0842-13.00262-.18741zm-13.26432-21.96457c-.23239-.376-.82541-.52903-1.31783-.34009-.56601.21721-.89523-.0872-.89523-.82761 0-.90414.3648-1.10143 1.6-.86531 1.03206.1973 1.6.73373 1.6 1.51125 0 1.35214-.35712 1.54091-.98694.52176zm2.10694-1.66023c.44-.17754 1.16-.17754 1.6 0 .44.17755.08.32281-.8.32281s-1.24-.14526-.8-.32281zm10.28-.0133c.46202-.18488 1.01402-.16214 1.22669.0505.21267.21266-.16538.36393-.84.33614-.7456-.0307-.89722-.18236-.38669-.38666zm33.92 0c.46202-.18488 1.01402-.16214 1.22669.0505.21267.21266-.16537.36393-.84.33614-.7456-.0307-.89721-.18236-.38669-.38666zm10.88 0c.46202-.18488 1.01402-.16214 1.22669.0505.21267.21266-.16537.36393-.84.33614-.7456-.0307-.89721-.18236-.38669-.38666zm17.40001-4.04283c.37676-.704.82905-1.28 1.00505-1.28.176 0 .0115.576-.36505 1.28-.37677.704-.82906 1.28-1.00506 1.28-.176 0-.0115-.576.36506-1.28zm-49.28001-.24164c0-.13289.504-.63689 1.12-1.12 1.01511-.79607 1.0377-.77344.24167.24164-.8361 1.06608-1.36167 1.40511-1.36167.87836zm51.20001-2.95836c.37676-.704.82905-1.28 1.00505-1.28.176 0 .0115.576-.36505 1.28-.37677.704-.82906 1.28-1.00506 1.28-.176 0-.0115-.576.36506-1.28zm2.56-4.48c.37676-.704.82905-1.28 1.00505-1.28.176 0 .0115.576-.36505 1.28-.37677.704-.82906 1.28-1.00506 1.28-.176 0-.0115-.576.36506-1.28zm-30.20001.20281c.46202-.18487 1.01402-.16214 1.22669.0505.21267.21266-.16537.36393-.84.33614-.7456-.0307-.89721-.18236-.38669-.38666zm5.12 0c.46202-.18487 1.01402-.16214 1.22669.0505.21267.21266-.16537.36393-.84.33614-.7456-.0307-.89721-.18236-.38669-.38666zm-45.46854-.66663c1.15033-.14244 2.87833-.13951 3.84.007.96172.14604.0205.26258-2.09146.25899-2.112-.004-2.89882-.12308-1.74854-.26551zm-10.4857-4.9388c-.19469-.50743-.24122-1.44343-.10336-2.08.15654-.72269.37562-.37617.5833.92262.34854 2.17953.12198 2.7259-.47994 1.15738zm79.30605-4.19738c0-1.936.11994-2.728.26663-1.76.14662.968.14662 2.552 0 3.52-.14669.968-.26663.176-.26663-1.76zm-140.89076-8.96c0-.88.14528-1.24.32282-.8.17753.44.17753 1.16 0 1.6-.17754.44-.32282.08-.32282-.8zm56.32001 0c0-.88.14528-1.24.32281-.8.17754.44.17754 1.16 0 1.6-.17753.44-.32281.08-.32281-.8zm46.23814-6.56l-1.2192-1.44 1.44 1.21919c1.35322 1.14575 1.73133 1.66081 1.2192 1.66081-.12147 0-.76947-.648-1.44-1.44zm-102.55815-1.76c0-.88.14528-1.24.32282-.8.17753.44.17753 1.16 0 1.6-.17754.44-.32282.08-.32282-.8zm56.32001 0c0-.88.14528-1.24.32281-.8.17754.44.17754 1.16 0 1.6-.17753.44-.32281.08-.32281-.8zm5.10611-8.68844c-.08-4.74278.0448-5.29223 1.51283-6.67156l1.6-1.50312v3.31156c0 1.82136-.25306 3.31156-.56237 3.31156-.6368 0-1.80729 2.72319-2.2007 5.12-.14445.88-.30183-.7258-.34976-3.56844zm52.34439-.11156l-1.55156-1.76 1.76 1.55156c.968.85336 1.76 1.64536 1.76 1.76 0 .50194-.51827.0934-1.96844-1.55156zm-16.41722-2.72c0-1.584.1248-2.232.27731-1.44.15258.792.15258 2.088 0 2.88-.15251.792-.27731.144-.27731-1.44zm14.6704-1.6c.0128-1.056.15648-1.41052.31878-.78782.16224.6227.15162 1.4867-.0237 1.92-.17529.4333-.30803-.0762-.29504-1.13218zm-77.51425-3.25333c.0307-.74557.1824-.89722.38669-.38667.1849.462.16218 1.014-.0506 1.22667-.21267.21267-.36397-.16534-.33619-.84zm56.32001 0c.0307-.74557.1824-.89722.38669-.38667.18489.462.16217 1.014-.0506 1.22667-.21268.21267-.36397-.16534-.3362-.84zm46.22784-5.06667c.006-2.112.12307-2.89884.26547-1.74854.14247 1.15031.13952 2.87831-.006 3.84-.14598.9617-.26252.0206-.25894-2.09146zm-61.11834 2.44281c.46202-.18488 1.01402-.16214 1.22669.0505.21267.21266-.16538.36393-.84.33614-.7456-.0307-.89722-.18236-.38669-.38667zm44.12-1.26667c.44-.17754 1.16-.17754 1.6 0 .44.17754.08.32281-.8.32281s-1.24-.14527-.8-.32281zm-29.2295-2.50947c.0307-.74557.1824-.89722.38669-.38667.18489.462.16217 1.014-.0506 1.22667-.21268.21266-.36397-.16534-.3362-.84zm44.66784-4.58667c-.79603-1.01508-.77344-1.03771.24167-.24164 1.06604.83608 1.40512 1.36164.87833 1.36164-.13286 0-.63686-.504-1.12-1.12zm-68.51834-3.79719c.46202-.18488 1.01402-.16214 1.22669.0505.21267.21266-.16538.36393-.84.33614-.7456-.0307-.89722-.18237-.38669-.38667zm9.6 0c.46202-.18488 1.01402-.16214 1.22669.0505.21267.21266-.16538.36393-.84.33614-.7456-.0307-.89722-.18237-.38669-.38667zm48.64 0c.46202-.18488 1.01402-.16214 1.22669.0505.21267.21266-.16537.36393-.84.33614-.7456-.0307-.89721-.18237-.38669-.38667zm-78.08-7.68c.46201-.18488 1.01401-.16214 1.22669.0505.21267.21266-.16538.36393-.84.33614-.7456-.0307-.89722-.18237-.38669-.38667zm19.8.0133c.44-.17754 1.16-.17754 1.6 0 .44.17754.08.32281-.8.32281s-1.24-.14527-.8-.32281zm6.44-.0133c.46202-.18488 1.01402-.16214 1.22669.0505.21267.21266-.16538.36393-.84.33614-.7456-.0307-.89722-.18237-.38669-.38667zm23.64.0133c.44-.17754 1.16-.17754 1.6 0 .44.17754.08.32281-.8.32281s-1.24-.14527-.8-.32281zm6.4 0c.44-.17754 1.16-.17754 1.6 0 .44.17754.08.32281-.8.32281s-1.24-.14527-.8-.32281zm24.32 0c.44-.17754 1.16-.17754 1.6 0 .44.17754.08.32281-.8.32281s-1.24-.14527-.8-.32281zm6.40001 0c.44-.17754 1.16-.17754 1.6 0 .44.17754.08.32281-.8.32281s-1.24001-.14527-.8-.32281zm-82.76635-25.17612c.006-22.72211.0147-22.93603.1945-4.01772.17824 18.77066.26246 20.02119 1.38893 20.62405.70643.37808 1.30374 1.53777 1.45376 2.82251.24761 2.12117.21581 2.15535-1.16423 1.25111-1.35852-.89013-1.4286-.83934-1.64825 1.1952-.12621 1.16867-.22733-8.67515-.22471-21.87515zm26.10772 7.97756l-.17856-16.02244 2.09856-1.89756 2.09862-1.89756-1.76 1.95502-1.76 1.95502v11.0275c0 10.61519.0454 11.00329 1.2096 10.38014 1.0393-.5562 1.24794-.38605 1.48199 1.20853.21344 1.45432-.0403 1.99841-1.17332 2.51458-1.15878.52797-1.4846 1.26797-1.64198 3.72895-.10797 1.68864-.27667-4.13984-.37491-12.95218zm16.74528 8.02244c0-4.4.10221-6.2.2272-4 .12499 2.2.12499 5.8 0 8s-.2272.4-.2272-4zm44.19411-9.6c0-9.68.089-13.64.1977-8.8.10867 4.84.10867 12.76 0 17.6-.10874 4.84-.1977.88-.1977-8.8zm-108.24532.96086c-1.0558-.73948-1.44486-.77612-1.69913-.16-.18131.43953-.16384-.20886.039-1.44086.46086-2.80061.48077-2.82155 1.89677-1.99813.64236.37357.97209.68797.73267.69867-.23943.0107-.18752.88346.11533 1.93946.64115 2.23552.68268 2.19869-1.08455.96086zm64.03175-8.32086c0-3.168.10624-4.54469.24045-3.05931.13427 1.48538.13581 4.07738.006 5.76-.13229 1.68262-.24211.46731-.24403-2.70069zm13.96884-.30554c.14995-1.46857.79308-2.36916 2.42828-3.40028l2.22432-1.40262-1.10432 1.57662c-.60736.86715-1.10432 2.07841-1.10432 2.6917 0 .6133-.59577 1.43394-1.32396 1.82366-1.22106.65347-1.30816.55323-1.12-1.28908zm-85.28449-7.53446l-1.55155-1.76 1.76 1.55156c.968.85336 1.76 1.64536 1.76 1.76 0 .50194-.51827.0934-1.96845-1.55156zm100.27437.37333c.18132-.29333.60064-.53333.93184-.53333.33127 0 .60224.24.60224.53333 0 .29334-.41932.53334-.93184.53334-.51251 0-.78355-.24-.60224-.53334zm13.69409-8.53333c0-.55469.38112-.77359.96-.55144.528.20261.96.45076.96.55144 0 .10068-.432.34882-.96.55144-.57888.22215-.96.003-.96-.55144zm-61.26567-4.8c0-1.584.1248-2.232.27731-1.44.15257.792.15257 2.088 0 2.88-.15251.792-.27731.144-.27731-1.44zm59.67021 1.92733c-.22426-.36279.0326-.47008.60224-.25153 1.10874.42547 1.31155.8842.39098.8842-.3312 0-.77818-.28471-.99322-.63267zm-133.82535-1.44733l-1.2192-1.44 1.44 1.21919c.792.67056 1.44 1.31856 1.44 1.44 0 .51216-.51508.13405-1.6608-1.21919zm76.2208.16c.63712-.704 1.3024-1.28 1.4784-1.28.176 0-.20128.576-.8384 1.28-.63712.704-1.3024 1.28-1.4784 1.28-.176 0 .20128-.576.8384-1.28zm24.59155-1.76l-1.55155-1.76 1.76 1.55156c.968.85336 1.76 1.64536 1.76 1.76 0 .50194-.51827.0934-1.96845-1.55156zm-117.55016-1.76c.007-1.408.13817-1.90864.29125-1.11254.15308.7961.14727 1.9481-.0129 2.56-.16018.6119-.28544-.0395-.27833-1.44746zm14.68334-1.28c.0128-1.056.15648-1.41052.31879-.78782.16224.6227.15161 1.4867-.0237 1.92-.1753.4333-.30804-.0762-.29504-1.13218zm43.24672-.14383c1.15034-.14244 2.87834-.1395 3.84.007.96173.14603.0205.26257-2.09145.25898-2.112-.004-2.89882-.12307-1.74855-.26551zm25.26855.005c.968-.14664 2.552-.14664 3.52 0s.176.26662-1.76.26662-2.728-.11998-1.76-.26662zm26.6-.61879c.46202-.18488 1.01402-.16214 1.22669.0505.21267.21266-.16538.36393-.84.33614-.7456-.0307-.89722-.18236-.38669-.38667zm23.68 0c.46202-.18488 1.01402-.16214 1.22669.0505.21267.21266-.16537.36393-.84.33614-.7456-.0307-.89721-.18236-.38669-.38667zm-93.76167-7.5625c.006-2.112.12308-2.89884.26548-1.74854.14246 1.1503.13952 2.8783-.006 3.84-.14599.9617-.26253.0205-.25895-2.09146zm-16.99833 1.17614c.44-.17754 1.16-.17754 1.6 0 .44.17754.08.32281-.8.32281s-1.24-.14527-.8-.32281zm29.06105-4.05614c0-.88.14528-1.24.32282-.8.17754.44.17754 1.16 0 1.6-.17754.44-.32282.08-.32282-.8zm-13.62272-3.04c-.79603-1.01508-.77344-1.03772.24167-.24164 1.06605.83608 1.40512 1.36164.87833 1.36164-.13286 0-.63686-.504-1.12-1.12zm13.62272-.8c0-.88.14528-1.24.32282-.8.17754.44.17754 1.16 0 1.6-.17754.44-.32282.08-.32282-.8zm-23.90105-2.99719c.46201-.18488 1.01401-.16215 1.22668.0505.21268.21267-.16537.36393-.84.33614-.7456-.0307-.89721-.18236-.38668-.38666zm30.68-2.57448c.792-.15255 2.088-.15255 2.88 0 .792.15254.144.27736-1.44.27736-1.584 0-2.232-.12482-1.44-.27736z"/><path fill="#006dbb" d="M699.52005 270.7991l-5.44-3.1144-.1689-20.17136c-.13971-16.68348-.32921-20.30442-1.09606-20.94087-1.38598-1.15027-8.09991-1.57495-10.80173-.68326l-2.33331.77006v32.5646l-4.44813-2.41193c-4.19802-2.27628-4.48902-2.58068-5.17434-5.4123-1.02099-4.21831-3.83065-8.34683-7.30931-10.74021-1.63405-1.12424-6.19686-3.56934-10.13958-5.43355-3.94279-1.86421-7.99104-4.26418-8.99623-5.33325-1.70131-1.80947-1.77574-2.10085-1.07731-4.21725 1.39821-4.23647 6.85043-7.33165 11.42662-6.48678 1.29703.23947 4.17696 1.29964 6.39981 2.35593s4.43898 1.76803 4.92474 1.58164c1.1616-.44575 1.83501-4.22253 1.41587-7.94089-.41792-3.70808-1.71085-4.83014-7.64109-6.6314-5.83494-1.7723-15.81811-1.49792-20.45348.56217-6.48641 2.8827-10.80626 8.76335-11.76906 16.02133l-.44109 3.32513-3.90933-2.20309c-2.15012-1.2117-4.00211-2.48145-4.11551-2.82166-.11341-.34022 6.19186-11.73039 14.0117-25.31148l14.21789-24.6929 58.92807.16331 58.92807.16332 13.89549 24.32c7.64256 13.376 13.91142 24.64962 13.93088 25.05248.0301.62978-11.85639 7.89494-13.76083 8.4106-.37191.10069-1.59636-.82816-2.72109-2.06412-2.92212-3.21118-5.56276-4.36384-10.7714-4.70175-3.96806-.25742-5.06176-.0712-8.32 1.41665-2.06323.94217-4.82233 2.75564-6.13132 4.02993l-2.38004 2.3169-2.73997-2.89924c-3.66067-3.8734-7.44019-5.27217-13.14304-4.86413-4.74208.33929-7.38246 1.43635-11.51699 4.78523l-2.72 2.20314v-2.20448c0-1.21683-.44749-2.57586-.99878-3.03341-1.33287-1.10618-7.20052-1.53047-9.40122-.6798l-1.76.68032v23.69584c0 13.03271-.216 23.69437-.48 23.69258-.264-.002-2.928-1.40473-5.92-3.11765zm-6.18784-52.48297c.54496-.62835.94432-2.70782 1.01472-5.28385.14707-5.38362-1.29594-7.39984-5.71347-7.9831-6.74048-.88993-10.23341 1.76159-10.23341 7.76827 0 2.42843.34105 3.30208 1.89619 4.85721 1.81005 1.81004 2.1289 1.89124 7.0167 1.7869 3.82138-.0816 5.34855-.3722 6.01927-1.14543zm-1.49216.32224c0-.1329.504-.6369 1.12-1.12 1.0151-.79608 1.0377-.77344.24166.24164-.83609 1.06608-1.36166 1.40511-1.36166.87836zm28.16 37.71308c0-6.84096.24474-9.84214.90541-11.10322 1.17427-2.24143 4.56435-5.4328 7.48966-7.05062 1.91674-1.06003 2.57741-1.15123 3.84-.53006 2.77191 1.36376 3.76282 4.50706 3.76391 11.93914v6.72669l-5.6 3.27686c-3.08 1.80227-6.68 3.91571-8 4.69653l-2.4 1.41967v-9.37499zm30.73856-9.68034c1.16474-3.06338 3.29101-5.4771 6.80532-7.72516 3.42188-2.18898 3.45465-2.19556 5.34956-1.07621 1.04858.61944 1.90656 1.32612 1.90656 1.57041 0 .24429-2.088 1.60897-4.64 3.03263-2.552 1.42366-5.86278 3.3373-7.35737 4.25255l-2.71731 1.66407zm-.65856-3.07274c0-.1329.504-.6369 1.12-1.12 1.01511-.79608 1.0377-.77344.24167.24164-.8361 1.06608-1.36167 1.40511-1.36167.87836z"/><path fill="#00ab4d" d="M732.00005 377.76022l-25.44-.17489v-20.32926l2.72.63094c1.496.34703 5.456.48783 8.8.31292 10.21754-.53445 15.80231-2.99573 18.43623-8.12508 2.14662-4.18035 1.55296-7.10471-2.19175-10.79651l-2.89805-2.85714-4.57606 2.47163c-3.99853 2.15971-5.2345 2.5062-9.79315 2.74547-6.13549.32203-9.54855-.56516-10.101-2.62565-.20832-.77695-.38265-8.48676-.38745-17.1329l-.009-15.72026 1.76-1.64668c2.97414-2.78262 5.52448-3.7128 10.17977-3.7128 3.63367 0 5.1122.37018 9.26804 2.32037 5.80217 2.7228 7.72499 2.61539 8.80825-.49202 1.45722-4.18022.43188-9.15742-2.40774-11.68754-.75258-.67056-1.36832-1.01934-1.36832-.77507 0 .24427-.6169-.1306-1.37088-.83305-3.79014-3.53106-11.04819-5.43927-19.20538-5.04927l-5.66374.27079v-3.66377c0-3.89682 1.06131-5.25423 2.24761-2.87472 1.41901 2.84632 7.12928 3.85689 11.49242 2.03388 2.62848-1.09827 3.7977-4.20933 3.44903-9.17731l-.22906-3.26313 6.08-3.48629 6.08-3.48628.16691 7.1217c.1408 6.00607.35168 7.27625 1.34605 8.10821.64851.54258 1.5072 1.59951 1.90816 2.34874 1.76282 3.29386 10.66573 3.66173 13.34125.55126 1.44186-1.67627 1.47802-2.04645 1.4928-15.28219l.0154-13.56431 5.86765-3.32187c3.2272-1.82702 6.10035-3.17803 6.38483-3.00223.28448.1758.51718 7.52961.51718 16.34179 0 14.85525.0834 16.04395 1.14522 16.32162.62982.16471 1.42182.92464 1.76 1.68872 1.92186 4.34284 12.70599 3.86665 14.42752-.63707.44723-1.1699.60378-7.78327.45152-19.07096-.2135-15.82588-.34771-17.56447-1.59494-20.66044l-1.36186-3.38045 1.38624-.86807c5.69389-3.56542 11.65088-6.67846 12.02522-6.28417.41126.43317 25.61549 44.04789 27.35936 47.34409.68314 1.29115-.97798 4.43812-17.00262 32.21198l-17.75975 30.78103-.71507-4.05198c-.39328-2.2286-1.02451-4.77199-1.40269-5.65199-1.16768-2.71689-3.9993-6.07847-5.14662-6.10989-.60032-.0164-1.02874-.34882-.952-.73861.0767-.3898-.28327-1.05962-.8-1.48848-.51674-.42886-.93952-.58926-.93952-.35645 0 .23281-.648-.1935-1.44-.94736-.79201-.75386-4.80033-2.99297-8.90733-4.9758-6.84621-3.30525-7.53076-3.79713-8.229-5.91277-1.40972-4.27161 1.77549-7.63064 7.23584-7.63064 1.04973 0 4.48288.88391 7.62932 1.96424 5.28365 1.81414 5.83501 1.8894 7.21555.98486 1.87629-1.2294 2.60166-5.04713 1.63859-8.62383-.93177-3.46039-5.15827-6.70429-11.07763-8.50224-5.76378-1.75069-15.74695-1.44592-20.44595.62417-8.54663 3.7651-13.29997 12.94136-11.41274 22.03208.76288 3.67502 5.40973 11.67334 6.41939 11.04935.31104-.19223.77389-.0123 1.02861.39982.28921.46798.18566.57787-.27578.29267-.4064-.25117-.73888-.17619-.73888.1666 0 1.11332 5.91341 4.9772 13.44 8.78186 4.048 2.04624 7.5184 3.68337 7.71207 3.63807.82214-.19232.56525 4.45841-.3433 6.21533-2.72704 5.27357-11.68985 5.63071-21.61485.86127-6.55187-3.14851-7.18003-2.57315-6.93875 6.35575.0397 1.47854.55629 2.89145 1.34483 3.68.704.704 1.28 1.5424 1.28 1.86311 0 .32071.85952 1.30634 1.91002 2.19028 6.7097 5.64586 24.2393 6.56503 32.47968 1.70309 1.1497-.67832 2.09031-1.08795 2.09031-.91028 0 .17766-3.06503 5.63995-6.81114 12.13841l-6.81114 11.81539-3.26886-.15244c-1.79789-.0838-14.71687-.23115-28.70887-.32735z"/><path fill="#00853c" d="M708.80786 357.87763c-1.06535-.24931-2.00672-.93825-2.12557-1.55567-.1817-.94338.10266-1.03783 1.91213-.63507 1.16909.26022 4.86163.46151 8.20563.44732 10.90016-.0463 18.56-3.98519 18.56-9.54412 0-2.96733-.6375-4.58239-1.35929-3.44374-.35053.55298-.54458.00038-.55092-1.56885-.009-2.1515.12141-2.35231 1.16282-1.79495 3.26067 1.74503 4.06355 6.08607 1.90362 10.2923-2.72128 5.29944-8.40884 7.69531-19.07623 8.03578-3.696.11797-7.58048.0131-8.63219-.233zm42.71264-.46651c-1.84781-.49756-4.43981-1.45596-5.76-2.12978-2.35827-1.20359-5.09952-3.69735-4.58317-4.16937.14451-.1321 2.29959.73142 4.78912 1.91894 11.65658 5.56035 25.68436 4.23726 33.45274-3.15527l2.13914-2.03563-1.81914 2.99468c-2.08217 3.4277-4.79834 5.18734-10.1648 6.58511-4.63533 1.20736-13.55386 1.20307-18.05389-.009zm5.47955-2.6483c.46202-.18487 1.01402-.16214 1.22669.0505.21267.21266-.16537.36393-.84.33614-.7456-.0307-.89721-.18236-.38669-.38666zm19.96001-6.92281c.82668-.88 1.6471-1.6 1.8231-1.6.176 0-.35642.72-1.1831 1.6-.82669.88-1.64711 1.6-1.82311 1.6-.176 0 .35642-.72 1.18311-1.6zm6.73625-4.48c1.01658-3.20767 1.42298-7.97586.91264-10.70779-.62669-3.35454-3.87565-10.23667-5.9584-12.62149-1.1824-1.35388-1.06304-1.31915.86951.25301 4.41664 3.59308 6.78368 7.87031 7.43846 13.44148.34061 2.89843.13894 3.77292-1.63974 7.10986-1.11546 2.09271-1.84557 3.22893-1.62247 2.52493zm-16.66842-10.5797c-.22425-.36284-3.62528-2.27123-7.55776-4.24086-8.29798-4.15609-11.83884-6.54965-13.88582-9.38647l-1.46695-2.03297 1.61767 1.47297c.88973.81012 5.75738 3.57039 10.81696 6.13391 7.16038 3.6279 9.46157 5.11002 10.38259 6.68704.65082 1.11434 1.02976 2.02608.84218 2.02608-.18765 0-.52461-.29686-.74887-.6597zm-9.14643-24.67131c-2.92633-2.04969-1.16467-7.3547 3.19015-9.60666 1.97894-1.02337 11.40659-1.10794 11.4078-.10233.00039.264.23226.408.51527.32.28307-.088 1.58336.41181 2.8896 1.11069 1.82368.97575 2.63264 1.10917 3.48531.57482 1.29626-.81229 1.85293-5.53915.89127-7.56767-1.68327-3.5507-1.30682-4.67123.79072-2.35354 2.77401 3.06527 2.80537 10.18126.0531 11.9848-1.38055.90454-1.93191.82928-7.21556-.98486-3.14669-1.08033-6.63206-1.96424-7.7456-1.96424-5.16217 0-8.83117 3.82376-7.16909 7.47155.94925 2.08348.67968 2.35909-1.09299 1.11744zm-51.32141-3.58221c0-2.22561 3.80237-4.78503 8.51475-5.73142 3.01952-.60641 4.38701-.55624 7.80071.28617 2.27661.56181 4.96704 1.63347 5.97875 2.38147 1.13965.84258 2.53683 1.27953 3.67226 1.1485 2.795-.32254 3.35827-3.14306 1.62675-8.14644-1.67719-4.84627-1.67635-5.03139.0154-3.52425 2.83961 2.53012 3.86496 7.50732 2.40774 11.68754-1.08326 3.10741-3.00608 3.21482-8.80825.49202-4.15584-1.95019-5.63437-2.32037-9.26804-2.32037-4.65529 0-7.20563.93018-10.17977 3.7128l-1.76 1.64668v-1.6327zm5.12-24.02082c-1.28781-.47353-3.2-2.17365-3.2-2.84515 0-.82699 1.57197-.64601 3.60685.41525 2.18432 1.13921 3.82701 1.20626 6.52352.26627 2.20307-.768 3.29946-3.34889 3.30605-7.78233 0-1.70508.28153-2.4.96358-2.4.7337 0 .96.80717.96 3.4245 0 4.96608-1.03686 7.41922-3.58605 8.48434-2.11251.88267-6.72294 1.11772-8.57395.43712zm29.69581-.42467c-2.01894-.91468-3.41299-2.96129-2.01709-2.96129.41715 0 1.97971.46638 3.47226 1.0364 3.33133 1.27225 6.81472.76006 8.19066-1.20436.79526-1.13539.97836-3.69338.97836-13.66597 0-10.3155.15284-12.32779.96-12.63751.8345-.32022.96 1.38169.96 13.01584 0 13.1246-.0294 13.41813-1.50342 15.13209-1.26368 1.46911-2.10579 1.78263-5.28 1.96581-2.32346.13408-4.54003-.12795-5.76077-.68101zm31.10419.42467c-1.2878-.47353-3.2-2.17365-3.2-2.84515 0-.83981 1.52167-.64141 3.80077.49554 1.37555.68622 2.95207.91902 4.66637.68908 4.71399-.63228 4.65287-.38432 4.65287-18.86976 0-11.72683-.24826-17.42123-.86381-19.81567-.47514-1.848-1.07514-3.36-1.33338-3.36-.84473 0-.49197-1.8563.4192-2.20595 1.06823-.4099 2.50951 2.7464 3.40115 7.44827.81517 4.29831.79956 33.23377-.0192 35.38697-.37427.98433-1.55091 2.05493-2.85945 2.60167-2.18848.9144-6.78439 1.16636-8.66464.475z"/><path fill="#b90000" d="M644.6019 375.52001c-1.74304-2.87168-56.06962-97.09971-56.99892-98.8632-.67373-1.27848.68442-3.88165 13.35616-25.6 7.75838-13.29724 14.46047-24.1768 14.89353-24.1768.43306 0 3.26392 1.39514 6.29082 3.10031 4.52992 2.55189 5.69506 3.53463 6.58667 5.5555.92693 2.10093 6.78989 8.91061 6.78989 7.88628 0-.1966.83107.53221 1.84684 1.61959 1.03292 1.10576 5.19322 3.57934 9.44 5.6128 4.17626 1.99965 7.80474 3.94844 8.06336 4.33063.25863.38219.47463 1.94105.48 3.46412.0282 7.95666-11.34457 10.06066-22.84053 4.2256-5.98299-3.03681-6.58968-2.67152-6.58968 3.96777 0 4.33141.14221 4.84571 1.70372 6.16163.93703.78968 2.26674 2.0628 2.9549 2.82918 2.93274 3.26608 12.90113 5.78438 20.19911 5.10288 2.29735-.21452 6.06823-1.01865 8.37965-1.78692 3.41747-1.1359 4.94068-2.13437 8.15316-5.34437 3.20377-3.20138 4.15321-4.64481 5.02297-7.63683.58989-2.02914.94375-4.36302.78637-5.18639l-.28614-1.49704 3.2631 1.8611 3.26317 1.8611.32 6.56971c.27513 5.64869.48013 6.60027 1.46208 6.78771.62816.1199 1.83904.91497 2.69094 1.76682 1.32288 1.32293 2.15975 1.54882 5.73786 1.54882 4.84653 0 6.74912-1.26294 6.74912-4.48 0-1.056.14387-1.92.31968-1.92.17581 0 1.75565.792 3.51078 1.76l3.19111 1.76.009 4.48374.009 4.48375-3.13082 1.43629c-6.83251 3.13447-12.40627 9.89343-15.3056 18.5601-1.47341 4.4044-1.66054 5.98919-1.68083 14.23612-.0256 10.26963.74368 14.00608 4.23814 20.59304 1.84243 3.47295 8.51501 10.6223 9.60096 10.28696.285-.088.44615.15011.35815.52914-.088.37903 1.208 1.41761 2.88 2.30796l3.04 1.61882v22.26408H645.864l-1.26253-2.08zm26.29773-19.6876c4.93357-1.53406 7.91443-3.88958 8.84256-6.98748.90861-3.03258.29715-6.76067-1.29126-7.87323-.64787-.45381-1.28442-1.36722-1.4144-2.0298-.47712-2.43084-2.02823-2.56588-5.42995-.47276-6.3856 3.92909-14.31597 4.80118-19.81473 2.17899-6.06176-2.89063-8.6455-19.27591-4.71936-29.92812 3.80058-10.31136 13.9536-13.94212 24.29396-8.68756 6.40192 3.25324 8.3136 2.56519 8.3136-2.99222 0-3.53323-1.50701-7.531-2.58727-6.86337-.33702.20828-.61273-.0447-.61273-.56219 0-3.02484-8.62938-6.80275-16.64-7.28491-8.85671-.5331-16.39373 1.91165-22.31987 7.23975-4.11638 3.70097-6.87551 8.09327-8.91655 14.19438-1.47342 4.4044-1.66054 5.98919-1.68084 14.23612-.0253 10.26963.74371 14.00608 4.23816 20.59304 1.88359 3.55051 8.52494 10.6204 9.64857 10.2711.3111-.0967.4007.0911.19904.41735-.8016 1.29708 7.46893 4.9722 13.16595 5.85043 4.57651.70551 12.17587.11505 16.72512-1.29952zm3.66042-5.99404c0-.13289.504-.63689 1.12-1.12 1.0151-.79607 1.03769-.77344.24166.24164-.83609 1.06608-1.36166 1.40511-1.36166.87836zm-32.58951-28.29169c.0307-.74557.1824-.89722.38669-.38667.1849.462.16218 1.014-.0506 1.22667-.21267.21267-.36397-.16534-.33619-.84zm60.2985 9.49333c-.7287-3.43588-.50585-16.18495.31597-18.08.5353-1.23426.70317.92356.73446 9.44.0224 6.072-.0904 11.04-.25043 11.04-.16006 0-.52006-1.08-.8-2.4zm-3.97849-9.49333c.0307-.74557.1824-.89722.38668-.38667.1849.462.16218 1.014-.0506 1.22667-.21267.21267-.36396-.16534-.33619-.84z"/><path fill="#007434" d="M710.72005 356.10365c-.704-.17241-2-.50729-2.88-.74416-.9367-.25214 1.58381-.59443 6.08-.82567 10.87482-.55929 18.38925-3.5029 19.23866-7.5363.19891-.94463.50739-2.42249.6855-3.28413.46419-2.24589 1.49331-.42531 1.50605 2.66435.0224 5.5203-6.80326 9.31881-17.59021 9.78856-3.168.13796-6.336.10977-7.04-.0627zm43.84-.0658c-2.3223-.38875-7.80518-2.20599-7.5191-2.49212.13414-.13411 1.23283.0542 2.44147.41844 1.20871.36425 4.95015.66908 8.31431.67739 15.96448.0394 26.20966-9.07318 25.44544-22.63258-.26215-4.65141.43302-4.35481 1.35456.57794 1.10349 5.90662-1.20621 13.44759-5.33504 17.41848-5.23776 5.0374-15.57095 7.56089-24.70164 6.03245zm.77095-50.55579c-1.0608-1.92352-.96666-5.39781.19104-7.05069 2.01465-2.87628 9.1095-3.51858 14.41235-1.30476 2.18022.91021 2.13338.92294-2.29619.62374-6.56864-.4437-10.29056 1.80775-11.12826 6.73173-.3872 2.27565-.44729 2.32663-1.17894.99998zm-48.77095-4.53109c0-1.59012.4112-2.12027 2.36307-3.04649 3.33677-1.58341 10.06131-1.46288 13.71098.24575 2.0729.97043 2.30432 1.19555.88595.86169-5.22048-1.22879-11.58598-.077-15.52 2.80811-1.40826 1.0328-1.44 1.01363-1.44-.86906zm25.76173.66388c.75622-.83562 1.13517-2.3589 1.1705-4.70525l.0525-3.46961.97843 2.24c1.37024 3.13708.50425 6.63162-1.72109 6.94525-1.54112.2172-1.55827.18109-.48-1.01039zm45.91828-2.09486c.90566-.90565 1.28-2.13333 1.28-4.19777 0-1.78221.24908-2.76383.64-2.52223.90105.55686.79929 6.3047-.128 7.232-.4224.4224-1.2864.768-1.92.768-1.06669 0-1.05722-.0948.128-1.28zm-65.92001-21.2719c-1.44602-.64236-1.20877-.75284 2.46579-1.14807 4.59091-.49381 5.19028-1.05487 5.20442-4.87156.006-1.75964.33267-2.77544.96979-3.01991 1.16288-.44625 1.30778 2.47372.30227 6.09377-.49427 1.77955-1.13145 2.50995-2.6519 3.04-2.46215.85829-4.20493.83219-6.29037-.0942zm30.4-.11172l-1.92-.91242 3.5577-.052c5.77094-.0843 5.6807.12207 5.87418-13.4392.1246-8.73841.37504-11.85605.96812-12.05333.62125-.20665.8 2.44711.8 11.87632 0 10.63749-.13964 12.31486-1.12652 13.53365-1.42989 1.76585-5.53229 2.29262-8.15348 1.04697zm30.4.14594c-1.4654-.68231-1.25798-.78176 2.4658-1.18229 2.33433-.2511 4.31814-.8169 4.65843-1.32868.3408-.51246.51686-9.01363.41427-19.99949-.16064-17.19414-.0879-18.82885.72557-16.32.67981 2.09676.91789 7.02713.96 19.88286.0493 15.06684-.0691 17.22004-.99808 18.15118-1.31942 1.32245-6.10176 1.78546-8.22599.79642zm-22.99942-32.11021c-.0557-2.51118 3.15693-6.38688 6.72672-8.11498 3.84614-1.8619 4.29491-1.22057.64333.9194-2.96295 1.73638-5.58311 4.64757-6.69856 7.44261l-.63091 1.58088-.0403-1.82791zm-30.11821-1.07884c0-2.09758 4.71302-6.80301 7.66771-7.65041 2.57946-.73978 3.43866-.30145 1.12979.57638-2.14854.81688-6.16627 4.39014-7.62419 6.78076l-1.17088 1.92002v-1.62675zm-78.0418-20.17257c-.0647-3.12352 3.44928-6.06434 7.20109-6.02663 1.02931.0104.72282.32427-1.16166 1.18962-2.84596 1.30688-4.41735 2.83248-5.36576 5.20949-.62759 1.57296-.63348 1.56971-.67367-.37248zm50.70228-6.87303c.77945-.8098 1.53536-1.38757 1.67987-1.28393.3735.26784-1.95494 2.75628-2.57907 2.75628-.28487 0 .11981-.66256.8992-1.47235z"/><path fill="#780000" d="M654.17451 357.13193c-4.07866-.62876-8.49568-2.23059-11.72064-4.25053-3.1895-1.99769-3.60453-2.89085-.67674-1.45637 8.81703 4.31998 21.89498 4.1594 30.85069-.37882 3.80192-1.92658 4.49223-3.06026 4.49223-7.37746 0-3.58026.9408-4.05967 2.39059-1.2182 1.75501 3.43981.36966 8.40825-3.0169 10.8197-4.43846 3.16048-15.00659 4.98898-22.31923 3.86168zm46.29607-3.27181c-1.40282-.73694-3.12653-1.92366-3.83053-2.63716l-1.28-1.29726 1.6.96583c.88.5312 2.68 1.30826 4 1.72679 1.32.41852 2.4 1.17063 2.4 1.67132 0 1.14157.14106 1.16254-2.88947-.42952zm-53.15489-16.74011c-2.67718-3.16736-4.02624-6.79019-4.6695-12.53955-1.39264-12.44755 1.83603-22.11737 8.73459-26.1602 5.55546-3.25572 13.56698-2.16338 20.80884 2.8372 2.28736 1.57941 2.49344 1.61392 3.52.58917.74745-.74608 1.19123-2.54142 1.41088-5.70754l.32051-4.61908 1.11949 2.04822c1.2951 2.36941 1.51801 8.49732.35155 9.66378-1.24263 1.24261-3.42131.89626-7.5456-1.19956-10.34036-5.25456-20.49338-1.6238-24.29396 8.68756-2.76832 7.51088-2.39571 18.89191.8329 25.44.82445 1.672 1.42458 3.04 1.3337 3.04-.0909 0-.95642-.936-1.9234-2.08zm53.88442-3.79998c-3.39072-6.97324-3.37081-20.29184.041-27.28584l1.77268-3.63418.22432 3.52c.12339 1.936-.15866 5.104-.62676 7.04-1.11424 4.6084-1.0871 14.71735.0518 19.36359.49664 2.02597.74266 3.84398.54663 4.04002-.19603.19603-1.10042-1.17358-2.00967-3.04359zm-60.9513-53.26975c-4.13836-.94557-8.80804-3.04411-9.59033-4.30989-.33042-.53462-.10753-.61744.75658-.28113 7.26819 2.82881 18.73404 3.00653 25.54499.39594 6.74694-2.58607 11.80038-8.70137 13.42585-16.24703.38183-1.77244.43514-1.79516 1.64436-.70081 1.51641 1.37232 1.56256 2.84718.2295 7.33605-1.50125 5.05531-7.37798 10.77965-13.05971 12.72115-5.31335 1.81562-13.66311 2.29398-18.95124 1.08572zm43.82215-1.62898l-1.51091-1.2587 3.84-.0307c5.02355-.0402 6.98125-1.03741 7.2391-3.68744.18004-1.84961.31847-1.97188 1.44-1.27146 1.67066 1.04334 1.64871 4.53922-.039 6.22704-1.82003 1.82005-8.79366 1.8336-10.96909.0213zm-38.14752-28.11637c-9.58209-4.82507-11.32401-6.75903-2.33824-2.596 6.26605 2.90301 11.97126 6.42007 10.17485 6.27246-.352-.0289-3.87847-1.68333-7.83661-3.67646z"/></g></svg>