<svg xmlns="http://www.w3.org/2000/svg" role="img" viewBox="-9.58 -9.58 472.16 115.66"><title>simobility logo</title><path d="M85.3 74h-9V22H85v8.7q2.8-4.2 7.1-7.05a17.205 17.205 0 0 1 9.202-2.841 20.858 20.858 0 0 1 .598-.009 20.994 20.994 0 0 1 4.417.44q2.986.642 5.268 2.223a13.128 13.128 0 0 1 .465.337 15.751 15.751 0 0 1 5.448 7.689 19.154 19.154 0 0 1 .102.311q3.1-4.6 7.35-7.8a15.669 15.669 0 0 1 6.791-2.884 21.446 21.446 0 0 1 3.759-.316 21.437 21.437 0 0 1 4.888.522q3.586.84 6.075 3.029a12.994 12.994 0 0 1 1.687 1.799 18.992 18.992 0 0 1 3.411 7.272q.739 3.05.739 6.678V74h-9V40.8a19.042 19.042 0 0 0-.337-3.689q-.436-2.206-1.435-3.95a10.982 10.982 0 0 0-.728-1.111 7.974 7.974 0 0 0-5.813-3.296 10.678 10.678 0 0 0-1.087-.054 11.926 11.926 0 0 0-6.759 2.127 15.996 15.996 0 0 0-1.591 1.223q-3.85 3.35-6.75 7.85V74h-9V40.8a19.042 19.042 0 0 0-.337-3.689q-.436-2.206-1.435-3.95a10.982 10.982 0 0 0-.728-1.111 7.974 7.974 0 0 0-5.813-3.296 10.678 10.678 0 0 0-1.087-.054 12.02 12.02 0 0 0-6.319 1.828A16.244 16.244 0 0 0 92.1 31.95q-3.9 3.25-6.8 7.65V74zm317.5 21.2l2-7.5a9.908 9.908 0 0 0 1.165.574q.823.345 1.835.626a13.514 13.514 0 0 0 2.279.417 17.358 17.358 0 0 0 1.721.083q4.2 0 7.5-2.7a12.003 12.003 0 0 0 1.933-2.061q1.748-2.311 3.408-6.164a58.58 58.58 0 0 0 .959-2.375l2.3-6h-4.8l-20.3-45.7 8-3.6 19.4 43.3 15.1-42.9 8.3 3.2-19.1 52.2a71.728 71.728 0 0 1-2.053 5.086q-1.102 2.44-2.269 4.428A30.86 30.86 0 0 1 428.2 89.1a24.268 24.268 0 0 1-2.878 3.211q-1.914 1.768-4.017 2.807a14.737 14.737 0 0 1-.605.282q-4.1 1.8-9.1 1.8-3 0-5.25-.6t-3.55-1.4zM0 69.8l3.8-7.5a18.557 18.557 0 0 0 3.144 2.126q1.554.844 3.406 1.524a24.073 24.073 0 0 0 7.611 1.437 27.464 27.464 0 0 0 .839.013q5.392 0 8.235-1.715a7.738 7.738 0 0 0 .215-.135q2.85-1.85 2.85-4.75a7.123 7.123 0 0 0-.314-2.147 6.212 6.212 0 0 0-.736-1.553 6.384 6.384 0 0 0-.929-1.094q-1.014-.972-2.687-1.925a22.3 22.3 0 0 0-.234-.131 28.462 28.462 0 0 0-1.994-.993q-2.116-.962-5.105-2.011A103.602 103.602 0 0 0 17.1 50.6a46.616 46.616 0 0 1-4.398-1.743q-2.114-.974-3.79-2.062A19.335 19.335 0 0 1 6.15 44.65a11.324 11.324 0 0 1-3.294-5.996A16.794 16.794 0 0 1 2.5 35.1q0-6 5.25-10.15 4.404-3.481 11.658-4.042A37.527 37.527 0 0 1 22.3 20.8a40.794 40.794 0 0 1 4.446.231q2.308.253 4.324.784a25.234 25.234 0 0 1 .13.035q3.9 1.05 7 2.65l-2.5 7.4q-2.7-1.6-6.15-2.6a25.024 25.024 0 0 0-4.483-.847A31.837 31.837 0 0 0 21.9 28.3a20.632 20.632 0 0 0-2.937.195Q15.877 28.94 14 30.4a9.322 9.322 0 0 0-1.358 1.273q-.702.819-1.037 1.692A4.529 4.529 0 0 0 11.3 35a4.921 4.921 0 0 0 1.495 3.552 7.082 7.082 0 0 0 .605.548 9.88 9.88 0 0 0 1.3.869q2.273 1.302 6.698 2.765a84.459 84.459 0 0 0 .202.066 67.753 67.753 0 0 1 5.062 1.898q5.927 2.519 8.738 5.402 3.9 4 3.9 10 0 6.748-5.251 10.755a16.618 16.618 0 0 1-.399.295q-4.74 3.397-12.188 3.945a40.423 40.423 0 0 1-2.962.105q-5.9 0-10.65-1.5a30.883 30.883 0 0 1-3.84-1.485q-1.981-.931-3.562-2.079A18.229 18.229 0 0 1 0 69.8zm236-.1V74h-8.4V0h9v27.4q2-2.3 5.85-4.45a16.584 16.584 0 0 1 5.231-1.822 22.424 22.424 0 0 1 3.919-.328q6 0 11.25 3.15a22.329 22.329 0 0 1 7.178 6.967 27.464 27.464 0 0 1 1.272 2.133q3.2 5.95 3.2 14.45a33.315 33.315 0 0 1-.687 6.888A27.75 27.75 0 0 1 272.5 58.8a29.367 29.367 0 0 1-3.161 6.004 25.482 25.482 0 0 1-2.189 2.746 24.894 24.894 0 0 1-6.131 4.914 23.302 23.302 0 0 1-1.419.736 20.006 20.006 0 0 1-7.366 1.96 19.209 19.209 0 0 1-1.234.04q-4.5 0-8.45-1.65a30.274 30.274 0 0 1-3.303-1.608Q237.422 70.903 236 69.7zm137.6-13.6V31.7h-9v-7.8h9.2l1.9-16.4h6.9v16.4H397v7.8h-14.4v25.1a21.559 21.559 0 0 0 .168 2.796q.473 3.606 2.282 5.304 2.45 2.3 5.85 2.3 2.5 0 4.75-.8t4.15-1.9l2.5 7.2a18.546 18.546 0 0 1-1.618.856q-.802.379-1.748.752a43.365 43.365 0 0 1-2.034.742q-3.4 1.15-7.1 1.15-7.5 0-11.85-4.95a16.116 16.116 0 0 1-3.228-5.902q-.763-2.431-1.007-5.368a34.777 34.777 0 0 1-.115-2.88zm-62.1 1.6V0h9v56.8a20.644 20.644 0 0 0 .188 2.888q.462 3.264 2.062 5.112a7.363 7.363 0 0 0 4.584 2.476A10.724 10.724 0 0 0 329 67.4q1.9 0 3.75-.45a22.192 22.192 0 0 0 1.463-.406q.935-.297 1.687-.644l2.2 7.3q-1.399.622-3.312 1.123a34.978 34.978 0 0 1-1.138.277 23.816 23.816 0 0 1-3.155.485 30.514 30.514 0 0 1-2.695.115 20.862 20.862 0 0 1-4.89-.554 17.544 17.544 0 0 1-3.41-1.196 12.683 12.683 0 0 1-5.325-4.765 15.856 15.856 0 0 1-.525-.885q-1.734-3.146-2.07-7.788a32.105 32.105 0 0 1-.08-2.312zM176.4 71.75a24.559 24.559 0 0 0 4.598 2.09q4.055 1.36 8.702 1.36 7.4 0 13.25-3.4t9.25-9.55a26.255 26.255 0 0 0 2.653-7.141 34.184 34.184 0 0 0 .747-7.309 34.542 34.542 0 0 0-.485-5.909 25.795 25.795 0 0 0-2.965-8.441q-3.45-6.05-9.3-9.35a24.848 24.848 0 0 0-4.641-2.027A27.738 27.738 0 0 0 189.7 20.8a31.325 31.325 0 0 0-1.58.039A26.169 26.169 0 0 0 176.5 24.1q-5.9 3.3-9.3 9.4a26.023 26.023 0 0 0-2.749 7.59A35.006 35.006 0 0 0 163.8 48a34.82 34.82 0 0 0 .265 4.354 27.451 27.451 0 0 0 3.085 9.796q3.35 6.15 9.25 9.6zM60.3 74h-9V22h9v52zM296 74h-9V22h9v52zm59.6 0h-9V22h9v52zm-165.9-6.8q7.9 0 12.3-5.35a18.802 18.802 0 0 0 3.819-8.09A27.105 27.105 0 0 0 206.4 48q0-5.2-2.2-9.55a19.198 19.198 0 0 0-4.172-5.569 18.17 18.17 0 0 0-1.778-1.431q-3.75-2.65-8.55-2.65a19.249 19.249 0 0 0-5.226.672A14.037 14.037 0 0 0 177.4 34a17.878 17.878 0 0 0-3.674 7.374Q173 44.306 173 47.8q0 5.2 2.2 9.65a19.437 19.437 0 0 0 3.53 5.04 17.627 17.627 0 0 0 2.42 2.06q3.75 2.65 8.55 2.65zm46.9-31.8v27.8a17.99 17.99 0 0 0 3.63 2.185 21.802 21.802 0 0 0 1.77.715 19.462 19.462 0 0 0 6.164 1.096 22.039 22.039 0 0 0 .436.004q4.9 0 8.65-2.4t5.9-6.8q2.15-4.4 2.15-10.2 0-6-2.15-10.3-2.15-4.3-5.7-6.6-3.55-2.3-7.85-2.3a14.741 14.741 0 0 0-5.627 1.063 14.054 14.054 0 0 0-2.123 1.087q-3.45 2.15-5.25 4.65zM51.437 11.288A5.973 5.973 0 0 0 55.8 13.1a8.175 8.175 0 0 0 1.496-.131A5.647 5.647 0 0 0 60.4 11.35q1.7-1.75 1.7-4.55a7.26 7.26 0 0 0 0-.081 6.06 6.06 0 0 0-1.85-4.369 7.395 7.395 0 0 0-.058-.057A6.059 6.059 0 0 0 55.8.5a8.264 8.264 0 0 0-1.656.158A5.661 5.661 0 0 0 51.2 2.2a5.588 5.588 0 0 0-1.471 2.632A7.987 7.987 0 0 0 49.5 6.8a5.992 5.992 0 0 0 .492 2.419A6.643 6.643 0 0 0 51.35 11.2a7.466 7.466 0 0 0 .087.088zm235.7 0A5.973 5.973 0 0 0 291.5 13.1a8.175 8.175 0 0 0 1.496-.131 5.647 5.647 0 0 0 3.104-1.619q1.7-1.75 1.7-4.55a7.26 7.26 0 0 0 0-.081 6.06 6.06 0 0 0-1.85-4.369 7.395 7.395 0 0 0-.058-.057A6.059 6.059 0 0 0 291.5.5a8.264 8.264 0 0 0-1.656.158A5.661 5.661 0 0 0 286.9 2.2a5.588 5.588 0 0 0-1.471 2.632A7.987 7.987 0 0 0 285.2 6.8a5.992 5.992 0 0 0 .492 2.419 6.643 6.643 0 0 0 1.358 1.981 7.466 7.466 0 0 0 .087.088zm59.6 0A5.973 5.973 0 0 0 351.1 13.1a8.175 8.175 0 0 0 1.496-.131 5.647 5.647 0 0 0 3.104-1.619q1.7-1.75 1.7-4.55a7.26 7.26 0 0 0 0-.081 6.06 6.06 0 0 0-1.85-4.369 7.395 7.395 0 0 0-.058-.057A6.059 6.059 0 0 0 351.1.5a8.264 8.264 0 0 0-1.656.158A5.661 5.661 0 0 0 346.5 2.2a5.588 5.588 0 0 0-1.471 2.632A7.987 7.987 0 0 0 344.8 6.8a5.992 5.992 0 0 0 .492 2.419 6.643 6.643 0 0 0 1.358 1.981 7.466 7.466 0 0 0 .087.088z" vector-effect="non-scaling-stroke" fill="#000" fill-rule="evenodd" stroke="#000" stroke-linecap="round" stroke-width=".25mm"/></svg>