<svg xmlns="http://www.w3.org/2000/svg" role="img" viewBox="27.80 108.05 231.66 31.66"><title>Simscape Electrical logo</title><style>svg {enable-background:new 0 0 288 251.88}</style><path d="M35.7 125.15c.11.79.33 1.38.66 1.77.6.71 1.62 1.07 3.08 1.07.87 0 1.58-.09 2.12-.28 1.03-.36 1.54-1.03 1.54-2 0-.57-.25-1.01-.76-1.32-.5-.3-1.3-.57-2.4-.81l-1.87-.41c-1.84-.41-3.1-.85-3.79-1.32-1.16-.8-1.75-2.04-1.75-3.74 0-1.55.57-2.83 1.71-3.86 1.14-1.02 2.81-1.54 5.02-1.54 1.84 0 3.41.48 4.72 1.45 1.3.96 1.98 2.37 2.05 4.2h-3.47c-.06-1.04-.53-1.78-1.39-2.21-.58-.29-1.29-.43-2.15-.43-.95 0-1.71.19-2.28.56s-.85.9-.85 1.57c0 .62.28 1.08.84 1.38.36.2 1.13.44 2.29.71l3.03.71c1.33.31 2.32.73 2.99 1.25 1.03.81 1.54 1.99 1.54 3.53 0 1.58-.61 2.89-1.83 3.93-1.22 1.04-2.94 1.56-5.17 1.56-2.27 0-4.06-.51-5.37-1.54-1.3-1.03-1.95-2.44-1.95-4.24h3.44zm16.57-8.96h-3.39v-3.08h3.39v3.08zm-3.39 1.52h3.39v12.77h-3.39v-12.77zm22.56.05c.55.22 1.04.6 1.49 1.15.36.45.6.99.73 1.64.08.43.12 1.06.12 1.89l-.02 8.05h-3.42v-8.13c0-.48-.08-.88-.23-1.2-.3-.59-.84-.89-1.64-.89-.92 0-1.56.38-1.91 1.15-.18.41-.27.89-.27 1.46v7.61h-3.36v-7.61c0-.76-.08-1.31-.23-1.65-.28-.62-.83-.93-1.65-.93-.95 0-1.59.31-1.92.93-.18.35-.27.88-.27 1.57v7.69h-3.39v-12.75h3.25v1.86c.41-.66.8-1.14 1.17-1.42.65-.5 1.49-.75 2.52-.75.98 0 1.77.21 2.37.64.48.4.85.91 1.1 1.54.44-.75.98-1.3 1.63-1.65.69-.35 1.45-.53 2.3-.53.53 0 1.08.11 1.63.33zm7.99 8.65c.07.59.22 1.02.46 1.27.42.45 1.19.67 2.31.67.66 0 1.18-.1 1.57-.29.39-.2.58-.49.58-.88 0-.38-.16-.66-.47-.86s-1.48-.53-3.49-1.01c-1.45-.36-2.47-.81-3.07-1.35-.59-.53-.89-1.3-.89-2.3 0-1.18.46-2.19 1.39-3.04s2.23-1.27 3.92-1.27c1.6 0 2.9.32 3.9.96s1.58 1.74 1.73 3.3h-3.34c-.05-.43-.17-.77-.36-1.02-.37-.45-1-.68-1.88-.68-.73 0-1.25.11-1.56.34-.31.23-.46.49-.46.8 0 .38.16.66.49.83.33.18 1.49.49 3.49.93 1.33.31 2.33.79 2.99 1.42.66.64.98 1.44.98 2.4 0 1.27-.47 2.3-1.42 3.1s-2.4 1.2-4.37 1.2c-2.01 0-3.5-.42-4.46-1.27s-1.44-1.93-1.44-3.24h3.4zm18.4-4.12c-.06-.48-.22-.91-.48-1.29-.38-.52-.96-.77-1.75-.77-1.13 0-1.9.56-2.31 1.68-.22.59-.33 1.38-.33 2.36 0 .94.11 1.69.33 2.26.4 1.06 1.15 1.59 2.25 1.59.78 0 1.34-.21 1.67-.63.33-.42.53-.97.6-1.64h3.41c-.08 1.02-.45 1.98-1.1 2.88-1.05 1.46-2.6 2.19-4.66 2.19s-3.57-.61-4.54-1.83c-.97-1.22-1.46-2.8-1.46-4.74 0-2.19.54-3.9 1.61-5.11 1.07-1.22 2.55-1.83 4.43-1.83 1.6 0 2.92.36 3.94 1.08s1.62 1.99 1.81 3.81h-3.42zm10.76.43c.62-.08 1.07-.18 1.33-.29.48-.2.72-.52.72-.95 0-.52-.18-.88-.55-1.08s-.91-.3-1.62-.3c-.8 0-1.37.2-1.7.59-.24.29-.4.68-.48 1.17h-3.22c.07-1.12.38-2.04.94-2.75.89-1.12 2.41-1.69 4.57-1.69 1.4 0 2.65.28 3.74.83s1.64 1.6 1.64 3.14v5.86c0 .41.01.9.02 1.48.02.44.09.73.2.89s.27.29.49.39v.49h-3.63c-.1-.26-.17-.5-.21-.73s-.07-.48-.09-.77c-.46.5-1 .93-1.6 1.28-.72.41-1.54.62-2.45.62-1.16 0-2.12-.33-2.88-.99-.76-.66-1.14-1.6-1.14-2.81 0-1.57.61-2.71 1.83-3.41.67-.38 1.65-.66 2.95-.82l1.14-.15zm2.05 1.56c-.21.13-.43.24-.65.32s-.52.16-.9.23l-.76.14c-.71.12-1.22.28-1.54.46-.53.3-.79.78-.79 1.42 0 .57.16.98.48 1.24.32.25.71.38 1.17.38.73 0 1.4-.21 2.02-.63s.93-1.19.96-2.31v-1.25zm16.98-5.2c1.04 1.1 1.56 2.72 1.56 4.85 0 2.25-.51 3.96-1.53 5.14s-2.33 1.77-3.93 1.77c-1.02 0-1.87-.25-2.55-.76-.37-.28-.73-.69-1.08-1.23v6.66h-3.3v-17.8h3.2v1.89c.36-.55.75-.99 1.16-1.31.75-.57 1.63-.86 2.67-.86 1.49 0 2.76.55 3.8 1.65zm-2.56 2.41c-.45-.76-1.19-1.14-2.21-1.14-1.22 0-2.06.57-2.52 1.72-.24.61-.36 1.38-.36 2.32 0 1.48.4 2.53 1.19 3.13.47.35 1.03.53 1.68.53.94 0 1.66-.36 2.15-1.08s.74-1.68.74-2.87c.01-.98-.21-1.86-.67-2.61zm14.81-3.52c.89.4 1.63 1.03 2.21 1.89.52.76.86 1.64 1.02 2.64.09.59.13 1.43.11 2.54h-9.3c.05 1.28.5 2.18 1.34 2.7.51.32 1.12.48 1.84.48.76 0 1.38-.2 1.85-.59.26-.21.49-.5.69-.88h3.41c-.09.76-.5 1.53-1.24 2.31-1.14 1.24-2.75 1.86-4.81 1.86-1.7 0-3.2-.52-4.5-1.57-1.3-1.05-1.95-2.75-1.95-5.11 0-2.21.59-3.91 1.76-5.09s2.7-1.77 4.57-1.77c1.1-.01 2.11.19 3 .59zm-5 2.89c-.47.49-.77 1.15-.89 1.98h5.75c-.06-.89-.36-1.56-.89-2.02s-1.19-.69-1.98-.69c-.85 0-1.52.24-1.99.73zm29.73-4.59h-9.14v3.67h8.39v3h-8.39v4.44h9.56v3.11h-13.09v-17.27h12.67v3.05zm6.38 14.22h-3.34v-17.27h3.34v17.27zm11.58-12.52c.89.4 1.63 1.03 2.21 1.89.52.76.86 1.64 1.02 2.64.09.59.13 1.43.11 2.54h-9.3c.05 1.28.5 2.18 1.34 2.7.51.32 1.12.48 1.84.48.76 0 1.38-.2 1.85-.59.26-.21.49-.5.69-.88h3.41c-.09.76-.5 1.53-1.24 2.31-1.14 1.24-2.75 1.86-4.81 1.86-1.7 0-3.2-.52-4.5-1.57-1.3-1.05-1.95-2.75-1.95-5.11 0-2.21.59-3.91 1.76-5.09s2.7-1.77 4.57-1.77c1.11-.01 2.11.19 3 .59zm-5 2.89c-.47.49-.77 1.15-.89 1.98h5.75c-.06-.89-.36-1.56-.89-2.02s-1.19-.69-1.98-.69c-.85 0-1.52.24-1.99.73zm17.66 1.43c-.06-.48-.22-.91-.48-1.29-.38-.52-.96-.77-1.75-.77-1.13 0-1.9.56-2.31 1.68-.22.59-.33 1.38-.33 2.36 0 .94.11 1.69.33 2.26.4 1.06 1.15 1.59 2.25 1.59.78 0 1.34-.21 1.67-.63.33-.42.53-.97.6-1.64h3.41c-.08 1.02-.45 1.98-1.1 2.88-1.05 1.46-2.6 2.19-4.66 2.19s-3.57-.61-4.54-1.83c-.97-1.22-1.46-2.8-1.46-4.74 0-2.19.54-3.9 1.61-5.11 1.07-1.22 2.55-1.83 4.43-1.83 1.6 0 2.92.36 3.94 1.08s1.62 1.99 1.81 3.81h-3.42zm4.4-2.08v-2.38h1.78v-3.56h3.3v3.56h2.07v2.38h-2.07v6.75c0 .52.07.85.2.98s.54.19 1.22.19c.1 0 .21 0 .32-.01s.22-.01.33-.02v2.5l-1.58.06c-1.58.05-2.66-.22-3.23-.82-.38-.38-.56-.97-.56-1.77v-7.86h-1.78zm16.4-2.8c.04 0 .14.01.29.02v3.42c-.21-.02-.4-.04-.56-.05s-.3-.01-.4-.01c-1.34 0-2.25.44-2.71 1.31-.26.49-.39 1.25-.39 2.27v6.11h-3.36v-12.77h3.19v2.23c.52-.85.96-1.43 1.35-1.75.62-.52 1.44-.79 2.44-.79.05.01.1.01.15.01zm5.68-1.22h-3.39v-3.08h3.39v3.08zm-3.39 1.52h3.39v12.77h-3.39v-12.77zm14.26 4.58c-.06-.48-.22-.91-.48-1.29-.38-.52-.96-.77-1.75-.77-1.13 0-1.9.56-2.31 1.68-.22.59-.33 1.38-.33 2.36 0 .94.11 1.69.33 2.26.4 1.06 1.15 1.59 2.25 1.59.78 0 1.34-.21 1.67-.63.33-.42.53-.97.6-1.64h3.41c-.08 1.02-.45 1.98-1.1 2.88-1.05 1.46-2.6 2.19-4.66 2.19s-3.57-.61-4.54-1.83c-.97-1.22-1.46-2.8-1.46-4.74 0-2.19.54-3.9 1.61-5.11 1.07-1.22 2.55-1.83 4.43-1.83 1.6 0 2.92.36 3.94 1.08s1.62 1.99 1.81 3.81h-3.42zm10.77.43c.62-.08 1.07-.18 1.33-.29.48-.2.72-.52.72-.95 0-.52-.18-.88-.55-1.08s-.91-.3-1.62-.3c-.8 0-1.37.2-1.7.59-.24.29-.4.68-.48 1.17h-3.22c.07-1.12.38-2.04.94-2.75.89-1.12 2.41-1.69 4.57-1.69 1.4 0 2.65.28 3.74.83s1.64 1.6 1.64 3.14v5.86c0 .41.01.9.02 1.48.02.44.09.73.2.89s.27.29.49.39v.49h-3.63c-.1-.26-.17-.5-.21-.73s-.07-.48-.09-.77c-.46.5-1 .93-1.6 1.28-.72.41-1.54.62-2.45.62-1.16 0-2.12-.33-2.88-.99-.76-.66-1.14-1.6-1.14-2.81 0-1.57.61-2.71 1.83-3.41.67-.38 1.65-.66 2.95-.82l1.14-.15zm2.04 1.56c-.21.13-.43.24-.65.32s-.52.16-.9.23l-.76.14c-.71.12-1.22.28-1.54.46-.53.3-.79.78-.79 1.42 0 .57.16.98.48 1.24.32.25.71.38 1.17.38.73 0 1.4-.21 2.02-.63s.93-1.19.96-2.31v-1.25zm9.66 6.21h-3.34v-17.27h3.34v17.27z"/></svg>