<svg xmlns="http://www.w3.org/2000/svg" role="img" viewBox="-2.28 -2.28 118.56 13.81"><title>Smart Data Models logo</title><g transform="translate(-.785 9.117)"><path d="M7.51172-2.49023q0 .50976-.24024 1.0078-.23437.49806-.6621.84376-.46875.375-1.0957.58594-.6211.21093-1.5.21093-.94337 0-1.69923-.17578-.75-.17578-1.5293-.52148V-1.9922H.8672q.6621.55078 1.5293.84961.86718.29883 1.6289.29883 1.07813 0 1.67578-.4043.60352-.4043.60352-1.07812 0-.58008-.28711-.85547-.28125-.2754-.86133-.42774-.43945-.11718-.95508-.19335-.50976-.07618-1.08398-.19336-1.16016-.2461-1.72266-.8379Q.8379-5.43163.8379-6.38671q0-1.0957.92578-1.79297.92578-.70312 2.34961-.70312.91992 0 1.6875.17578t1.35938.4336v1.37109h-.08204q-.49804-.42188-1.3125-.69727-.80859-.28125-1.6582-.28125-.93164 0-1.5.38672-.5625.38672-.5625.9961 0 .54491.28125.85546t.99024.47461q.375.08203 1.0664.19922t1.17188.24023q.97265.25782 1.46484.7793.49219.52149.49219 1.45899z"/><path d="M18.8379 0h-1.10157v-3.72656q0-.42188-.04102-.81446-.03516-.39257-.1582-.62695-.13477-.25195-.38672-.38086-.25196-.1289-.72657-.1289-.46289 0-.92578.23437-.46289.22852-.92578.58594.01758.13476.0293.3164.01172.17579.01172.35157V0h-1.10156v-3.72656q0-.4336-.04102-.82031-.03516-.39258-.1582-.62696-.13477-.25195-.38672-.375-.25195-.1289-.72656-.1289-.45118 0-.9082.22265-.45118.22266-.90235.56836V0H9.2871v-6.54492h1.10156v.72656q.51563-.42773 1.0254-.66797.51562-.24023 1.0957-.24023.66796 0 1.13085.28125.46875.28125.69727.7793.66797-.5625 1.21875-.8086.55078-.25195 1.17774-.25195 1.07812 0 1.58789.65625.51562.65039.51562 1.82226z"/><path d="M26.04492 0h-1.0957v-.69727q-.14649.09961-.39844.28125-.2461.17579-.48047.28125Q23.79492 0 23.4375.0879q-.35742.09375-.8379.09375-.88476 0-1.5-.58594-.61522-.58593-.61522-1.49414 0-.74414.3164-1.20117.32227-.46289.91406-.72656.59766-.26367 1.43555-.35742.8379-.09375 1.79883-.14063v-.16992q0-.375-.13477-.6211-.1289-.24609-.375-.38671-.23437-.13477-.5625-.18164-.32812-.04688-.68554-.04688-.4336 0-.9668.11719-.5332.11133-1.10156.32812h-.0586V-6.4043q.32227-.08789.93165-.19336.60937-.10547 1.20117-.10547.6914 0 1.20117.1172.51563.11132.89063.38671.36914.26953.5625.69727.19336.42773.19336 1.06054zm-1.0957-1.61133v-1.82226q-.5039.0293-1.18945.08789-.6797.0586-1.07813.16992-.4746.13476-.76758.42187-.29297.28125-.29297.7793 0 .5625.33985.84961.33984.28125 1.0371.28125.58008 0 1.06055-.22266.48047-.22851.89063-.54492z"/><path d="M32.25-5.34375h-.05859q-.2461-.0586-.48047-.08203-.22851-.0293-.54492-.0293-.50977 0-.98438.22852-.4746.22265-.91406.58008V0h-1.10156v-6.54492h1.10156v.9668q.65625-.52735 1.1543-.74415.5039-.22265 1.02539-.22265.2871 0 .41602.01758.1289.01172.38671.05273z"/><path d="M36.68555-.0586q-.31055.08204-.6797.13477-.36327.05274-.65038.05274-1.00195 0-1.52344-.53907-.52148-.53906-.52148-1.72851v-3.48047h-.74414v-.92578h.74414v-1.88086h1.10156v1.88086h2.27344v.92578H34.4121v2.98242q0 .51563.02344.8086.02344.2871.16406.53906.1289.23437.35156.3457.22852.10547.69141.10547.26953 0 .5625-.07617.29297-.08203.42188-.13477h.05859z"/><path d="M49.69336-4.35352q0 1.18946-.52148 2.15625-.51563.9668-1.37696 1.5-.59765.36914-1.33594.5332Q45.72656 0 44.5254 0h-2.20312v-8.7246h2.17968q1.27735 0 2.02735.1875.75586.18163 1.27734.5039.89063.55664 1.38867 1.48242.49805.92578.49805 2.19726zm-1.2129-.01757q0-1.0254-.35741-1.72852-.35742-.70312-1.0664-1.10742-.51563-.29297-1.09571-.4043-.58008-.11719-1.38867-.11719h-1.08985v6.73243h1.08985q.83789 0 1.45898-.12305.62695-.12305 1.14844-.45703.65039-.41602.97265-1.0957.32813-.6797.32813-1.69922z"/><path d="M56.5664 0h-1.0957v-.69727q-.14648.09961-.39843.28125-.2461.17579-.48047.28125Q54.3164 0 53.95898.0879q-.35742.09375-.83789.09375-.88476 0-1.5-.58594-.61523-.58593-.61523-1.49414 0-.74414.3164-1.20117.32227-.46289.91407-.72656.59765-.26367 1.43554-.35742.8379-.09375 1.79883-.14063v-.16992q0-.375-.13476-.6211-.1289-.24609-.375-.38671-.23438-.13477-.5625-.18164-.32813-.04688-.68555-.04688-.4336 0-.9668.11719-.5332.11133-1.10156.32812h-.05859V-6.4043q.32227-.08789.93164-.19336.60938-.10547 1.20117-.10547.69141 0 1.20118.1172.51562.11132.89062.38671.36914.26953.5625.69727.19336.42773.19336 1.06054zm-1.0957-1.61133v-1.82226q-.5039.0293-1.18945.08789-.67969.0586-1.07813.16992-.4746.13476-.76757.42187-.29297.28125-.29297.7793 0 .5625.33984.84961.33985.28125 1.03711.28125.58008 0 1.06055-.22266.48047-.22851.89062-.54492z"/><path d="M62.08594-.0586q-.31055.08204-.67969.13477-.36328.05274-.6504.05274-1.00194 0-1.52343-.53907-.52148-.53906-.52148-1.72851v-3.48047h-.74414v-.92578h.74414v-1.88086h1.10156v1.88086h2.27344v.92578H59.8125v2.98242q0 .51563.02344.8086.02344.2871.16406.53906.1289.23437.35156.3457.22852.10547.69141.10547.26953 0 .5625-.07617.29297-.08203.42188-.13477h.05859z"/><path d="M68.50195 0h-1.0957v-.69727q-.14648.09961-.39844.28125-.2461.17579-.48047.28125-.27539.13477-.6328.22266-.35743.09375-.8379.09375-.88477 0-1.5-.58594-.61523-.58593-.61523-1.49414 0-.74414.3164-1.20117.32227-.46289.91407-.72656.59765-.26367 1.43554-.35742.8379-.09375 1.79883-.14063v-.16992q0-.375-.13477-.6211-.1289-.24609-.375-.38671-.23437-.13477-.5625-.18164-.32812-.04688-.68554-.04688-.4336 0-.9668.11719-.5332.11133-1.10156.32812h-.0586V-6.4043q.32227-.08789.93165-.19336.60937-.10547 1.20117-.10547.6914 0 1.20117.1172.51563.11132.89063.38671.36914.26953.5625.69727.19336.42773.19336 1.06054zm-1.0957-1.61133v-1.82226q-.5039.0293-1.18945.08789-.6797.0586-1.07813.16992-.4746.13476-.76758.42187-.29296.28125-.29296.7793 0 .5625.33984.84961.33984.28125 1.0371.28125.58009 0 1.06055-.22266.48047-.22851.89063-.54492z"/><path d="M82.69922 0h-1.16016v-7.51758l-2.42578 5.11524h-.6914l-2.4082-5.11524V0h-1.084v-8.7246h1.58204l2.32617 4.85741 2.25-4.85742h1.61133z"/><path d="M90.5332-3.26953q0 1.5996-.8203 2.52539-.82032.92578-2.19728.92578-1.38867 0-2.20898-.92578-.81445-.92578-.81445-2.5254 0-1.5996.81445-2.52538.82031-.93164 2.20898-.93164 1.37696 0 2.19727.93164.82031.92578.82031 2.52539zm-1.13672 0q0-1.27149-.49804-1.88672-.49805-.6211-1.38281-.6211-.89649 0-1.39454.6211-.49218.61523-.49218 1.88672 0 1.23047.49804 1.86914.49805.63281 1.38868.63281.8789 0 1.37695-.62695.5039-.63281.5039-1.875z"/><path d="M97.54688 0H96.4453v-.68555q-.4746.41016-.99023.63867-.51563.22852-1.11914.22852-1.17188 0-1.86328-.90234-.68555-.90235-.68555-2.50196 0-.83203.23437-1.48242.24024-.65039.64454-1.10742.39843-.44531.92578-.67969.5332-.23437 1.10156-.23437.51562 0 .91406.11133.39844.10546.8379.33398v-2.83594h1.10156zM96.4453-1.61133v-3.75586Q96-5.5664 95.64844-5.64258q-.35156-.07617-.76758-.07617-.92578 0-1.4414.64453-.51563.64453-.51563 1.82813 0 1.16601.39844 1.77539.39843.60351 1.27734.60351.46875 0 .94922-.20508.48047-.21093.89648-.53906z"/><path d="M105.19336-3.1582h-4.82227q0 .60351.18164 1.05468.18165.44532.49805.73243.30469.28125.7207.42187.42188.14063.92579.14063.66796 0 1.34179-.26368.67969-.26953.9668-.52734h.0586v1.20117q-.55664.23438-1.13672.39258-.58007.1582-1.21875.1582-1.6289 0-2.54296-.8789-.91407-.88477-.91407-2.50782 0-1.60546.87305-2.54882.87891-.94336 2.30859-.94336 1.32422 0 2.03907.77344.7207.77343.7207 2.19726zm-1.07227-.84375q-.006-.8672-.43945-1.3418-.42773-.4746-1.30664-.4746-.88477 0-1.41211.52147-.52148.52149-.5918 1.29493z"/><path d="M107.97656 0H106.875v-9.11719h1.10156z"/><path d="M114.83203-1.88672q0 .89649-.74414 1.4707-.73828.57422-2.02148.57422-.72657 0-1.33594-.16992-.60352-.17578-1.01367-.38086V-1.6289h.0586q.52149.39258 1.16016.62696.63867.22851 1.22461.22851.72656 0 1.13672-.23437.41015-.23438.41015-.73828 0-.38672-.22265-.58594-.22266-.19922-.85547-.33984-.23438-.05274-.61524-.12305-.375-.07031-.68554-.15235-.86133-.22851-1.22461-.66796-.35743-.44532-.35743-1.08985 0-.4043.16407-.76172.16992-.35742.50976-.63867.32813-.27539.83203-.4336.50977-.16405 1.13672-.16405.58594 0 1.1836.14648.60351.14062 1.00195.3457v1.17774h-.0586q-.42188-.31055-1.0254-.52149-.60351-.2168-1.18359-.2168-.60351 0-1.01953.23438-.41602.22852-.41602.68555 0 .4043.25196.60937.24609.20508.79687.33399.30469.0703.67969.14062.38086.07031.63281.1289.76758.17579 1.1836.60352.41601.4336.41601 1.14844z"/></g></svg>