<svg xmlns="http://www.w3.org/2000/svg" role="img" viewBox="-0.84 -0.84 43.88 10.75"><title>SMOKE logo</title><g transform="translate(-.785 8.906)"><path d="M7.51172-2.49023q0 .50976-.24024 1.0078-.23437.49806-.6621.84376-.46875.375-1.0957.58594-.6211.21093-1.5.21093-.94337 0-1.69923-.17578-.75-.17578-1.5293-.52148V-1.9922H.8672q.6621.55078 1.5293.84961.86718.29883 1.6289.29883 1.07813 0 1.67578-.4043.60352-.4043.60352-1.07812 0-.58008-.28711-.85547-.28125-.2754-.86133-.42774-.43945-.11718-.95508-.19335-.50976-.07618-1.08398-.19336-1.16016-.2461-1.72266-.8379Q.8379-5.43163.8379-6.38671q0-1.0957.92578-1.79297.92578-.70312 2.34961-.70312.91992 0 1.6875.17578t1.35938.4336v1.37109h-.08204q-.49804-.42188-1.3125-.69727-.80859-.28125-1.6582-.28125-.93164 0-1.5.38672-.5625.38672-.5625.9961 0 .54491.28125.85546t.99024.47461q.375.08203 1.0664.19922t1.17188.24023q.97265.25782 1.46484.7793.49219.52149.49219 1.45899z"/><path d="M17.14453 0h-1.16015v-7.51758l-2.42579 5.11524h-.6914l-2.4082-5.11524V0H9.375v-8.7246h1.58203L13.2832-3.8672l2.25-4.85742h1.61133z"/><path d="M25.99219-7.72266q.5332.58594.81445 1.43555.28711.84961.28711 1.92773 0 1.07813-.29297 1.9336-.2871.8496-.8086 1.41797-.53905.5918-1.27734.89062-.73242.29883-1.67578.29883-.91992 0-1.67578-.30469-.75-.30468-1.27734-.88476-.52735-.58008-.81446-1.42383-.28125-.84375-.28125-1.92773 0-1.06641.28125-1.91016.28125-.84961.82032-1.45313.51562-.57422 1.27734-.8789.76758-.30469 1.66992-.30469.9375 0 1.68164.31055.75.30468 1.27149.87304zm-.10547 3.36328q0-1.69921-.76172-2.61914-.76172-.92578-2.08008-.92578-1.33008 0-2.0918.92578-.75585.91993-.75585 2.61915 0 1.7168.77343 2.63085.77344.9082 2.07422.9082t2.06836-.9082q.77344-.91406.77344-2.63085z"/><path d="M35.94727 0H34.4414l-3.45118-3.88477-.86718.92579V0h-1.16016v-8.7246h1.16016v4.55273l4.23633-4.55274h1.40624l-3.89648 4.10156z"/><path d="M42.9961 0h-5.74805v-8.7246h5.74804v1.03124H38.4082v2.39063h4.5879v1.03125h-4.5879v3.24023h4.5879z"/></g></svg>