<svg xmlns="http://www.w3.org/2000/svg" role="img" viewBox="-2.66 -2.66 138.19 50.81"><title>soils-revealed logo</title><path fill="#2ba4a0" d="M130.583 23.923a2.408 2.408 0 0 1-2.417-2.427c-.01-1.323 1.077-2.404 2.417-2.404 1.296 0 2.406 1.08 2.417 2.404-.011 1.346-1.12 2.427-2.417 2.427zM115.33 30c-1.088 0-2.054-.199-2.593-.43l.923-3.1c1.736.497 2.878.354 3.636-1.521l.34-.916-6.118-17.294h4.218l3.89 12.794h.175l3.9-12.794 4.251.022-6.778 18.97C120.218 28.39 118.428 30 115.33 30zm-4.29-23.261v3.088h-3.328v8.758c0 1.61.802 1.963 1.801 1.963.495 0 .945-.1 1.165-.155l.67 3.122c-.429.143-1.209.364-2.34.397-2.988.088-5.295-1.478-5.273-4.666V9.827h-2.395V6.74h2.395V2.68h3.977v4.06zM98.066 4.335c-1.277 0-2.312-.971-2.312-2.162C95.754.97 96.79 0 98.066 0c1.266 0 2.3.97 2.3 2.173 0 1.191-1.034 2.162-2.3 2.162zM96.062 23.68V6.74h3.976v16.94zM93.486 1.092V23.68h-3.977V1.092zM79.129 21.088c2.391 0 3.905-1.599 3.905-3.485v-1.996c-.516.419-2.6.683-3.642.827-1.777.253-3.104.893-3.104 2.426 0 1.467 1.185 2.228 2.841 2.228zm-1.028 2.934c-3.22 0-5.647-1.765-5.647-5.096 0-3.816 3.13-4.797 6.405-5.15 2.977-.32 4.174-.375 4.174-1.522v-.066c0-1.666-1.01-2.614-2.856-2.614-1.945 0-3.065.992-3.46 2.15l-3.714-.53c.88-3.087 3.604-4.676 7.152-4.676 3.219 0 6.855 1.346 6.855 5.824V23.68h-3.823v-2.327h-.132c-.725 1.423-2.307 2.67-4.954 2.67zm-11.409-7.467V6.74h3.977v16.94h-3.856v-3.01h-.176c-.769 1.896-2.548 3.23-5.075 3.23-3.318 0-5.624-2.304-5.624-6.374V6.739h3.976v10.17c0 2.15 1.275 3.506 3.186 3.506 1.758 0 3.592-1.279 3.592-3.86zM39.85 23.68v-2.537l8.7-10.952v-.143h-8.414V6.739h13.281v2.724l-8.283 10.765v.143h8.569v3.31zm-15.868 0v-2.537l8.7-10.952v-.143h-8.414V6.739h13.281v2.724l-8.283 10.765v.143h8.569v3.31zM19.647 4.335c-1.274 0-2.307-.971-2.307-2.162C17.34.97 18.373 0 19.647 0c1.264 0 2.296.97 2.296 2.173 0 1.191-1.032 2.162-2.296 2.162zM17.648 23.68V6.74h3.967v16.94zM16.412 6.74l-6.009 16.94H6.01L0 6.74h4.24l3.878 12.585h.176L12.183 6.74z"/><path d="M14.03177 42.47651h-2.33873c0 .90465.33147 1.65046.99212 2.23745.66065.58468 1.685.87702 3.07073.87702 1.36043 0 2.36406-.27623 3.0132-.82868.65143-.55246.976-1.26605.976-2.14077 0-.66295-.22559-1.2177-.67906-1.65967-.45808-.43736-1.14635-.76193-2.0648-.9783-1.37424-.30156-2.1753-.51563-2.4032-.63994-.22558-.1174-.34067-.31075-.34067-.57317 0-.21177.10819-.39593.31996-.55246.21408-.15422.57087-.23249 1.07269-.23249.61 0 1.04276.15423 1.29597.46729.1335.17264.21868.40744.2509.70438h2.3065c-.10358-1.07729-.5018-1.83692-1.19468-2.27658-.69287-.43966-1.59061-.66064-2.69092-.66064-1.16016 0-2.0602.29234-2.69783.87932-.63992.58468-.95989 1.28446-.95989 2.09933 0 .69057.20487 1.22001.6146 1.58601.40975.37291 1.11413.68137 2.11315.92997 1.38575.32917 2.1868.56166 2.40319.69748.21637.1335.32456.33147.32456.58928 0 .26933-.1335.4719-.40053.6077-.26702.13351-.62842.20257-1.08189.20257-.77114 0-1.30057-.15423-1.586-.46268-.16114-.17264-.26703-.46268-.31537-.87242zm1.76326-6.24045zm11.16882 6.71004c-.3614.4788-.87933.7205-1.55379.7205-.67445 0-1.19468-.2417-1.55838-.7205-.3637-.4811-.54555-1.16246-.54555-2.0487 0-.88392.18185-1.56529.54555-2.04408.3637-.4765.88393-.7159 1.55838-.7159.67446 0 1.19239.2394 1.55379.7159.3614.4788.54324 1.16016.54324 2.04409 0 .88623-.18185 1.56759-.54324 2.04869zm1.84612 1.27295c.74351-.91846 1.11642-2.02567 1.11642-3.32164 0-1.27295-.3729-2.37556-1.11642-3.31014-.74582-.93227-1.87605-1.39955-3.3907-1.39955-1.51695 0-2.64718.46728-3.393 1.39955-.74351.93458-1.11642 2.03719-1.11642 3.31014 0 1.29597.3729 2.40318 1.11642 3.32164.74582.92076 1.87605 1.38114 3.393 1.38114 1.51465 0 2.64488-.46038 3.3907-1.38114zm-3.3907-7.983zm8.52854-.81717v-2.12925h-2.33873v2.12925zm-2.33873 1.05197v8.82088h2.33873v-8.82088zm6.92642 8.82088V33.3633H36.229v11.92844zm4.04674-2.81522H40.2435c0 .90465.33147 1.65046.99212 2.23745.66064.58468 1.68499.87702 3.07073.87702 1.36042 0 2.36405-.27623 3.01549-.82868.64913-.55246.9737-1.26605.9737-2.14077 0-.66295-.22558-1.2177-.67906-1.65967-.45808-.43736-1.14634-.76193-2.0648-.9783-1.37424-.30156-2.1753-.51563-2.40319-.63994-.22558-.1174-.33837-.31075-.33837-.57317 0-.21177.10588-.39593.31766-.55246.21407-.15422.57087-.23249 1.07268-.23249.61 0 1.04276.15423 1.29597.46729.13351.17264.21868.40744.2509.70438h2.30651c-.10358-1.07729-.50181-1.83692-1.19468-2.27658-.69287-.43966-1.59062-.66064-2.69092-.66064-1.16016 0-2.0579.29234-2.69783.87932-.63993.58468-.9599 1.28446-.9599 2.09933 0 .69057.20488 1.22001.61461 1.58601.40974.37291 1.11412.68137 2.11315.92997 1.38574.32917 2.1868.56166 2.40318.69748.21638.1335.32457.33147.32457.58928 0 .26933-.13351.4719-.40053.6077-.26702.13351-.62842.20257-1.0819.20257-.77113 0-1.30057-.15423-1.586-.46268-.16114-.17264-.26702-.46268-.31536-.87242zm1.76555-6.24045zm4.9606 3.34236v2.1845h4.64523v-2.1845zm11.11357-3.31474c-.02992-.0023-.06445-.0023-.10819-.0023-.69057 0-1.25223.17955-1.68269.54095-.26471.21638-.57547.6192-.93227 1.2062v-1.53768H55.4982v8.82088h2.32261v-4.21478c0-.70898.08978-1.23151.26703-1.5722.31766-.6031.94147-.90464 1.86914-.90464.07136 0 .16343.0023.27623.0069.11279.00691.2417.01612.38902.03223V36.2775c-.10359-.0069-.17034-.0092-.20027-.0138zm3.78893 2.37556c.29234-.33377.70668-.50181 1.24072-.50181.49261 0 .90235.15883 1.23382.47419.33378.31536.51793.77804.55476 1.38805h-3.58406c.07596-.57318.26012-1.02435.55476-1.36043zm3.22496-1.99114c-.58929-.27393-1.24993-.41204-1.98424-.41204-1.23381 0-2.23975.40744-3.01318 1.2223-.77574.81488-1.16246 1.98655-1.16246 3.5127 0 1.62975.43045 2.80602 1.28676 3.52882.8586.7228 1.84842 1.0842 2.96945 1.0842 1.36042 0 2.417-.43046 3.17432-1.28677.4857-.54094.75733-1.07268.81717-1.59521h-2.35484c-.1243.26011-.26702.46268-.43045.6077-.29695.26932-.68137.40513-1.15556.40513-.44887 0-.83098-.11049-1.15095-.33377-.52253-.3545-.80106-.976-.83329-1.85994h6.03789c.0115-.76193-.01381-1.3443-.07366-1.74944-.10129-.69057-.32687-1.29597-.67216-1.8208-.38211-.5916-.86781-1.02665-1.4548-1.30288zm-1.8208-.41204zm11.01229.2348l-1.87605 6.50746-1.83692-6.50747h-2.58963l3.1628 8.82088h2.43772l3.17892-8.82088zm6.01716 2.16838c.29465-.33377.70899-.50181 1.24303-.50181.4903 0 .90235.15883 1.23382.47419.33147.31536.51562.77804.55476 1.38805h-3.58636c.07596-.57318.26241-1.02435.55475-1.36043zm3.22497-1.99114c-.58699-.27393-1.24763-.41204-1.98194-.41204-1.23612 0-2.23975.40744-3.01549 1.2223-.77344.81488-1.16016 1.98655-1.16016 3.5127 0 1.62975.42816 2.80602 1.28677 3.52882.8586.7228 1.84842 1.0842 2.96945 1.0842 1.36042 0 2.417-.43046 3.17202-1.28677.4857-.54094.75962-1.07268.81717-1.59521h-2.35484c-.1243.26011-.26702.46268-.42816.6077-.29694.26932-.68366.40513-1.15785.40513-.44657 0-.83099-.11049-1.14865-.33377-.52253-.3545-.80106-.976-.83329-1.85994h6.03788c.00921-.76193-.0138-1.3443-.07366-1.74944-.10358-.69057-.32687-1.29597-.67215-1.8208-.38212-.5916-.86782-1.02665-1.4571-1.30288zm-1.8208-.41204zm10.43911 4.76723v.85861c-.01611.77114-.2325 1.30288-.65144 1.59292-.41664.29234-.87472.43736-1.37193.43736-.31076 0-.57778-.08747-.79646-.26242-.21868-.17494-.32687-.46038-.32687-.854 0-.44197.17725-.76884.53404-.98061.20948-.1243.55706-.2279 1.04276-.31536l.51793-.09668c.26012-.04834.46268-.10129.6123-.15653.14733-.05755.29465-.13121.43967-.22329zM93.08822 39.926l-.78494.09668c-.89084.1151-1.5653.30386-2.02337.56857-.8356.4857-1.25454 1.27065-1.25454 2.35485 0 .83559.26012 1.48242.78265 1.9382.52023.45577 1.17857.68366 1.97733.68366.62612 0 1.18778-.14272 1.68269-.43045.41664-.2417.78264-.53635 1.1026-.88163.01612.20026.03684.37751.06446.53404.02532.15653.07366.32457.14502.50181h2.50907v-.34068c-.15192-.06905-.26472-.15883-.34068-.26702-.07596-.10589-.122-.31075-.13811-.6146-.00921-.39823-.01612-.73892-.01612-1.01975v-4.04444c0-1.06347-.3752-1.78627-1.12332-2.17069-.75042-.38211-1.60903-.57317-2.57353-.57317-1.48472 0-2.53209.38672-3.13979 1.16476-.38442.49721-.6008 1.13023-.64914 1.90137h2.22594c.05525-.34068.16344-.61.32457-.80797.22559-.27162.6123-.40513 1.15786-.40513.4834 0 .8517.06906 1.1026.20487.25091.13811.37752.38902.37752.75042 0 .29694-.16574.51332-.49491.65374-.18185.08287-.488.14962-.91386.20256zm.122-3.68994zm7.9876 9.05567V33.3633h-2.3065v11.92844zm4.4864-6.65249c.29464-.33377.70899-.50181 1.24303-.50181.4903 0 .90234.15883 1.23382.47419.33147.31536.51562.77804.55475 1.38805h-3.58636c.07597-.57318.26242-1.02435.55476-1.36043zm3.22496-1.99114c-.58698-.27393-1.24763-.41204-1.98193-.41204-1.23612 0-2.23975.40744-3.0155 1.2223-.77343.81488-1.16015 1.98655-1.16015 3.5127 0 1.62975.42815 2.80602 1.28676 3.52882.85631.7228 1.84843 1.0842 2.96945 1.0842 1.36043 0 2.417-.43046 3.17202-1.28677.4857-.54094.75733-1.07268.81718-1.59521h-2.35485c-.1243.26011-.26702.46268-.42815.6077-.29695.26932-.68366.40513-1.15786.40513-.44656 0-.83098-.11049-1.14864-.33377-.52254-.3545-.80107-.976-.8333-1.85994h6.03559c.0115-.76193-.01151-1.3443-.07136-1.74944-.10358-.69057-.32687-1.29597-.67215-1.8208-.38212-.5916-.86782-1.02665-1.4571-1.30288zm-1.8208-.41204zm10.25497.37751c-.41665-.2348-.89084-.35219-1.42488-.35219-1.16016 0-2.08782.43046-2.7807 1.29367-.69287.86321-1.04046 2.04869-1.04046 3.55413 0 1.30518.3522 2.37326 1.05658 3.20885.70438.83329 1.5722 1.24993 2.60114 1.24993.62612 0 1.15095-.1197 1.5699-.3568.42125-.23709.79646-.6169 1.12563-1.14174v1.22231h2.24205V33.3794h-2.33873v4.20787c-.26012-.41434-.5962-.7389-1.01053-.9737zm.56626 6.28419c-.34068.4834-.83789.7274-1.48933.7274-.65374 0-1.13944-.244-1.4617-.732-.31997-.488-.4811-1.13945-.4811-1.95432 0-.75502.15883-1.38804.4742-1.89907.31535-.50872.81026-.76423 1.48472-.76423.44196 0 .83098.14042 1.16476.42125.54555.46268.81717 1.23612.81717 2.31341 0 .77344-.17034 1.40186-.50872 1.88756z"/></svg>