<svg xmlns="http://www.w3.org/2000/svg" role="img" viewBox="-1.27 -1.27 66.17 11.79"><title>solartherm logo</title><g transform="translate(-.645 9.117)"><path d="M5.75977-1.88672q0 .89649-.74414 1.4707Q4.27733.1582 2.99413.1582q-.72656 0-1.33594-.16992Q1.0547-.1875.64453-.39258V-1.6289h.0586q.52148.39258 1.16015.62696.63867.22851 1.22461.22851.72656 0 1.13672-.23437.41016-.23438.41016-.73828 0-.38672-.22266-.58594t-.85547-.33984q-.23437-.05274-.61523-.12305-.375-.07031-.68555-.15235-.86133-.22851-1.22461-.66796-.35742-.44532-.35742-1.08985 0-.4043.16406-.76172.16992-.35742.50977-.63867.32812-.27539.83203-.4336.50976-.16405 1.13672-.16405.58593 0 1.18359.14648.60352.14062 1.00195.3457v1.17774h-.0586q-.42187-.31055-1.02538-.52149-.60352-.2168-1.1836-.2168-.60351 0-1.01953.23438-.41601.22852-.41601.68555 0 .4043.25195.60937.2461.20508.79688.33399.30468.0703.67968.14062.38086.07031.63282.1289.76757.17579 1.18359.60352.41602.4336.41602 1.14844z"/><path d="M12.91406-3.26953q0 1.5996-.82031 2.52539-.82031.92578-2.19727.92578-1.38867 0-2.20898-.92578-.81445-.92578-.81445-2.5254 0-1.5996.81445-2.52538.82031-.93164 2.20898-.93164 1.37696 0 2.19727.93164.82031.92578.82031 2.52539zm-1.13672 0q0-1.27149-.49804-1.88672-.49805-.6211-1.38282-.6211-.89648 0-1.39453.6211-.49218.61523-.49218 1.88672 0 1.23047.49804 1.86914.49805.63281 1.38867.63281.87891 0 1.37696-.62695.5039-.63281.5039-1.875z"/><path d="M15.73242 0h-1.10156v-9.11719h1.10156z"/><path d="M22.99805 0h-1.0957v-.69727q-.1465.09961-.39844.28125-.2461.17579-.48047.28125-.2754.13477-.63282.22266-.35742.09375-.83789.09375-.88476 0-1.5-.58594-.61523-.58593-.61523-1.49414 0-.74414.3164-1.20117.32227-.46289.91407-.72656.59765-.26367 1.43555-.35742.83789-.09375 1.79882-.14063v-.16992q0-.375-.13476-.6211-.1289-.24609-.375-.38671-.23438-.13477-.5625-.18164-.32813-.04688-.68555-.04688-.4336 0-.9668.11719-.5332.11133-1.10156.32812h-.05859V-6.4043q.32227-.08789.93164-.19336.60938-.10547 1.20117-.10547.69141 0 1.20118.1172.51562.11132.89062.38671.36914.26953.5625.69727.19336.42773.19336 1.06054zm-1.0957-1.61133v-1.82226q-.50391.0293-1.18946.08789-.67969.0586-1.07812.16992-.47461.13476-.76758.42187-.29297.28125-.29297.7793 0 .5625.33984.84961.33985.28125 1.03711.28125.58008 0 1.06055-.22266.48047-.22851.89062-.54492z"/><path d="M29.20313-5.34375h-.0586q-.24609-.0586-.48046-.08203-.22852-.0293-.54492-.0293-.50977 0-.98438.22852-.47461.22265-.91406.58008V0h-1.10156v-6.54492h1.10156v.9668q.65625-.52735 1.1543-.74415.5039-.22265 1.02539-.22265.2871 0 .41601.01758.1289.01172.38672.05273z"/><path d="M33.63867-.0586q-.31054.08204-.67969.13477-.36328.05274-.65039.05274-1.00195 0-1.52343-.53907-.52149-.53906-.52149-1.72851v-3.48047h-.74414v-.92578h.74414v-1.88086h1.10156v1.88086h2.27344v.92578h-2.27344v2.98242q0 .51563.02344.8086.02344.2871.16407.53906.1289.23437.35156.3457.22851.10547.6914.10547.26954 0 .5625-.07617.29297-.08203.42188-.13477h.05859z"/><path d="M40.4414 0h-1.10156v-3.72656q0-.45117-.05273-.84375-.05273-.39844-.19336-.6211-.14648-.24609-.42188-.36328-.27539-.12304-.71484-.12304-.45117 0-.94336.22265-.49219.22266-.94336.56836V0h-1.10156v-9.11719h1.10156v3.29883q.51563-.42773 1.0664-.66797.55079-.24023 1.13087-.24023 1.06054 0 1.61719.63867.55664.63867.55664 1.83984z"/><path d="M48.04102-3.1582h-4.82227q0 .60351.18164 1.05468.18164.44532.49805.73243.30469.28125.7207.42187.42188.14063.92578.14063.66797 0 1.3418-.26368.67969-.26953.9668-.52734h.05859v1.20117q-.55664.23438-1.13672.39258-.58008.1582-1.21875.1582-1.6289 0-2.54297-.8789-.91406-.88477-.91406-2.50782 0-1.60546.87304-2.54882.8789-.94336 2.3086-.94336 1.32422 0 2.03906.77344.7207.77343.7207 2.19726zm-1.07227-.84375q-.0059-.8672-.43945-1.3418-.42774-.4746-1.30664-.4746-.88477 0-1.41211.52147-.52149.52149-.5918 1.29493z"/><path d="M53.79492-5.34375h-.05859q-.2461-.0586-.48047-.08203-.22851-.0293-.54492-.0293-.50976 0-.98437.22852-.47461.22265-.91407.58008V0h-1.10156v-6.54492h1.10156v.9668q.65625-.52735 1.1543-.74415.5039-.22265 1.02539-.22265.2871 0 .41601.01758.1289.01172.38672.05273z"/><path d="M64.38281 0h-1.10156v-3.72656q0-.42188-.04102-.81446-.03516-.39257-.1582-.62695-.13477-.25195-.38672-.38086-.25196-.1289-.72656-.1289-.4629 0-.92579.23437-.46289.22852-.92578.58594.01758.13476.0293.3164.01172.17579.01172.35157V0h-1.10156v-3.72656q0-.4336-.04102-.82031-.03516-.39258-.1582-.62696-.13477-.25195-.38672-.375-.25195-.1289-.72656-.1289-.45118 0-.9082.22265-.45118.22266-.90235.56836V0h-1.10156v-6.54492h1.10156v.72656q.51562-.42773 1.02539-.66797.51562-.24023 1.0957-.24023.66797 0 1.13086.28125.46875.28125.69727.7793.66797-.5625 1.21875-.8086.55078-.25195 1.17773-.25195 1.07813 0 1.5879.65625.51562.65039.51562 1.82226z"/></g></svg>