<svg xmlns="http://www.w3.org/2000/svg" role="img" viewBox="-0.60 -0.60 31.33 10.46"><title>solax logo</title><g transform="translate(-.645 9.117)"><path d="M5.75977-1.88672q0 .89649-.74414 1.4707Q4.27733.1582 2.99413.1582q-.72656 0-1.33594-.16992Q1.0547-.1875.64453-.39258V-1.6289h.0586q.52148.39258 1.16015.62696.63867.22851 1.22461.22851.72656 0 1.13672-.23437.41016-.23438.41016-.73828 0-.38672-.22266-.58594t-.85547-.33984q-.23437-.05274-.61523-.12305-.375-.07031-.68555-.15235-.86133-.22851-1.22461-.66796-.35742-.44532-.35742-1.08985 0-.4043.16406-.76172.16992-.35742.50977-.63867.32812-.27539.83203-.4336.50976-.16405 1.13672-.16405.58593 0 1.18359.14648.60352.14062 1.00195.3457v1.17774h-.0586q-.42187-.31055-1.02538-.52149-.60352-.2168-1.1836-.2168-.60351 0-1.01953.23438-.41601.22852-.41601.68555 0 .4043.25195.60937.2461.20508.79688.33399.30468.0703.67968.14062.38086.07031.63282.1289.76757.17579 1.18359.60352.41602.4336.41602 1.14844z"/><path d="M12.91406-3.26953q0 1.5996-.82031 2.52539-.82031.92578-2.19727.92578-1.38867 0-2.20898-.92578-.81445-.92578-.81445-2.5254 0-1.5996.81445-2.52538.82031-.93164 2.20898-.93164 1.37696 0 2.19727.93164.82031.92578.82031 2.52539zm-1.13672 0q0-1.27149-.49804-1.88672-.49805-.6211-1.38282-.6211-.89648 0-1.39453.6211-.49218.61523-.49218 1.88672 0 1.23047.49804 1.86914.49805.63281 1.38867.63281.87891 0 1.37696-.62695.5039-.63281.5039-1.875z"/><path d="M15.73242 0h-1.10156v-9.11719h1.10156z"/><path d="M22.99805 0h-1.0957v-.69727q-.1465.09961-.39844.28125-.2461.17579-.48047.28125-.2754.13477-.63282.22266-.35742.09375-.83789.09375-.88476 0-1.5-.58594-.61523-.58593-.61523-1.49414 0-.74414.3164-1.20117.32227-.46289.91407-.72656.59765-.26367 1.43555-.35742.83789-.09375 1.79882-.14063v-.16992q0-.375-.13476-.6211-.1289-.24609-.375-.38671-.23438-.13477-.5625-.18164-.32813-.04688-.68555-.04688-.4336 0-.9668.11719-.5332.11133-1.10156.32812h-.05859V-6.4043q.32227-.08789.93164-.19336.60938-.10547 1.20117-.10547.69141 0 1.20118.1172.51562.11132.89062.38671.36914.26953.5625.69727.19336.42773.19336 1.06054zm-1.0957-1.61133v-1.82226q-.50391.0293-1.18946.08789-.67969.0586-1.07812.16992-.47461.13476-.76758.42187-.29297.28125-.29297.7793 0 .5625.33984.84961.33985.28125 1.03711.28125.58008 0 1.06055-.22266.48047-.22851.89062-.54492z"/><path d="M30.78516 0h-1.38868l-1.85742-2.51367L25.66992 0h-1.2832l2.55469-3.26367-2.53125-3.28125h1.38867l1.8457 2.47265 1.85156-2.47265h1.28907l-2.57227 3.22265z"/></g></svg>