<svg xmlns="http://www.w3.org/2000/svg" role="img" viewBox="-1.01 -0.01 130.88 149.76"><title>SPEI logo</title><path fill="#adcae3" d="M33 129.11155L2.5 111.39042V38.80677L14 32.12833c6.325-3.67314 20.33585-11.76118 31.13522-17.97343L64.77044 2.85991l31.07187 17.82005L126.91418 38.5l.0238 36.5.0238 36.5-30.84231 17.75c-16.9633 9.7625-31.2422 17.71235-31.7309 17.66634-.48872-.04601-14.61357-8.05817-31.38857-17.80479zm-5.08341-39.65516c7.27616-6.57357 6.56676-14.97465-2.0246-23.97648l-5.26957-5.52133-4.86726 5.10303C10.17977 70.90707 9 73.41424 9 79.4172c0 4.88035 3.10731 10.31857 7.03001 12.30348 4.30098 2.17632 7.68484 1.53172 11.88658-2.2643zm29.56033-3.62783c3.03564-1.38313 4.21006-5.02539 2.69358-8.35369-.79736-1.75003-2.74462-2.86689-7.37691-4.23107C47.29004 71.62304 46.5 71.08343 46.5 68.94519c0-2.04217.55109-2.49799 3.34354-2.76552 2.11168-.20232 4.03221.3029 5.21275 1.37128 1.02807.93038 2.56098 1.42616 3.40647 1.10172C62.80998 66.98448 57.3607 63 50.73204 63c-3.78733 0-5.35.52706-7.2775 2.45454C42.10455 66.80454 41 68.625 41 69.5c0 2.70658 4.38679 6.14633 8.7228 6.83968 5.26017.84114 7.67141 3.0552 6.24003 5.72977-1.2962 2.42196-7.52264 2.6389-10.05162.3502-.96046-.8692-2.79589-1.4317-4.07874-1.25L39.5 81.5l2.70454 2.75C44.43949 86.5225 45.77702 87 49.9075 87c2.74912 0 6.15537-.52715 7.56943-1.17144zM70 82.5V78h5.42742c4.67226 0 5.7158-.36661 7.5-2.63486 2.58101-3.28123 2.63786-6.44548.17054-9.4925-1.65596-2.04502-2.94973-2.3965-10-2.71666L65 62.78823V87h2.5c2.2963 0 2.5-.36667 2.5-4.5zm0-11.53139c0-4.6714 1.48823-5.68944 6.30618-4.31378 2.20669.63006 3.29482 1.61404 3.52058 3.18358C80.31174 73.20998 78.24856 75 73.87756 75 70.01538 75 70 74.98401 70 70.96861zM108 85.5c0-1.19048-1.44444-1.5-7-1.5h-7v-7h6.5c5.83333 0 6.5-.20513 6.5-2s-.66667-2-6.5-2H94v-7h7c5.55556 0 7-.30952 7-1.5 0-1.22807-1.72222-1.5-9.5-1.5H89v24h9.5c7.77778 0 9.5-.27193 9.5-1.5zm9-10.5c0-11.33333-.11111-12-2-12s-2 .66667-2 12 .11111 12 2 12 2-.66667 2-12z"/><path fill="#90b7d9" d="M33.5 129.06901l-31-17.90033-.26231-35.92999-.26231-35.92999 29.2623-16.84653C47.33197 13.1966 61.42632 5.03184 62.55849 4.31831c1.86018-1.17238 5.03898.42227 33 16.55451L126.5 38.7247V111.43392L96 129.1379c-16.775 9.73719-30.725 17.73266-31 17.76771-.275.0351-14.45-7.99142-31.5-17.8366zM27.6844 90.75c1.8403-1.25166 3.805-3.74377 4.4279-5.61658 1.46271-4.3977.6252-12.73035-1.49888-14.91285-.92099-.94631-3.57327-3.85004-5.89397-6.45272L20.5 59.03569l-5.26905 6.19603c-8.24408 9.69447-9.12938 17.55265-2.74062 24.3267C15.21605 92.44853 16.42839 93 20.0562 93c2.83318 0 5.45863-.7744 7.6282-2.25zm27.55383-3.79933C59.22655 85.84304 61 83.61768 61 79.72073c0-3.29329-2.4601-5.1901-9.25-7.13206-3.1625-.9045-5.75-2.21697-5.75-2.9166 0-3.47385 5.59991-4.9293 8.35714-2.17207C56.13421 69.27707 60 69.50228 60 67.82874 60 64.75353 56.67542 63 50.84501 63 44.27141 63 41 65.13616 41 69.42857c0 3.25929 2.23114 5.28943 7.29467 6.63751 5.7434 1.52909 7.14682 2.35053 7.55372 4.42128.72757 3.7026-6.48711 4.87392-9.77418 1.58685C44.27411 80.27411 40 80.18131 40 81.94231c0 1.41723 4.56233 4.89362 7 5.33385 4.17917.75472 4.37675.74691 8.23823-.3255zM70 83c0-3.87083.1082-4 3.35078-4 4.61645 0 9.49738-1.84776 10.67033-4.03944 1.84917-3.4552 1.1402-7.68851-1.65597-9.88798C80.24123 63.40191 78.30206 63 72.36514 63H65v24h2.5c2.25 0 2.5-.4 2.5-4zm0-12v-4h4.48095c3.95186 0 4.55542.29672 5.11166 2.51299C80.48311 73.061 78.46353 75 73.87756 75 70.0204 75 70 74.97895 70 71zm38.81272 14.25c-.27493-1.4408-1.61306-1.80191-7.57332-2.04381L94 82.91239V77h6.5c5.83333 0 6.5-.20513 6.5-2s-.66667-2-6.5-2H94v-6h7c6.33333 0 7-.19048 7-2 0-1.85965-.66667-2-9.5-2H89v24h10.07332c9.05419 0 10.03954-.17705 9.7394-1.75zM117 75c0-11.33333-.11111-12-2-12s-2 .66667-2 12 .11111 12 2 12 2-.66667 2-12z"/><path fill="#4d8dc5" d="M33.78328 129.15337L3.06656 111.5l.21672-36.4529L3.5 38.5942 15 31.9886c6.325-3.6331 20.1069-11.58066 30.62643-17.66128L64.75287 3.27165l31.13591 17.98281 31.13592 17.98281-.26235 35.99334-.26235 35.99335-25 14.46264c-13.75 7.95445-27.7 15.96057-31 17.79139l-6 3.32875zm-5.54981-38.49394C32.02712 87.1436 33 84.68578 33 78.61766c0-5.1694-.32464-5.9075-5.19701-11.81574-2.85836-3.46606-5.67086-6.63722-6.25-7.04704-1.63172-1.15464-11.4078 10.15167-12.6307 14.60774-1.58582 5.77853-.23885 11.52082 3.6038 15.36348C15.3435 92.54348 16.4908 93 20.75399 93c3.80824 0 5.53806-.54132 7.47949-2.34057zm30.90368-5.28355C60.23133 84.38566 61 82.33973 61 80.4176c0-4.01574-3.3398-6.9613-8.97187-7.91284-5.14571-.86936-7.1981-3.17607-4.54925-5.11296 2.47084-1.80673 5.00317-1.76689 6.87826.10821C56.26234 69.4052 60 69.4525 60 67.57143c0-3.5726-7.16891-6.5563-12.16306-5.06229C42.87689 63.99297 41 65.91211 41 69.5c0 3.93105 2.39536 6.05095 8.05227 7.1263C53.71792 77.51323 56 78.7856 56 80.5c0 3.51927-9.07989 4.34016-10.38508.9389-.61016-1.59007-4.17315-1.96272-5.05915-.52914-1.0399 1.68258.72008 4.30198 3.8439 5.72092 3.89317 1.76841 12.17615 1.06317 14.73748-1.2548zM70 83.12383v-3.87617l5.66613-.46988C82.27896 78.2294 85 75.7953 85 70.42818 85 64.79725 82.05095 63 72.81144 63H65v24h2.5c2.23669 0 2.5-.40825 2.5-3.87617zM70 71c0-3.96491.03333-4 3.8-4 4.12458 0 6.2 1.39415 6.2 4.16482C80 73.376 77.06371 75 73.06574 75 70.15571 75 70 74.79684 70 71zm39 14c0-1.82222-.66667-2-7.5-2H94v-6h6.5c5.83333 0 6.5-.20513 6.5-2s-.66667-2-6.5-2H94v-6h7c6.33333 0 7-.19048 7-2 0-1.85965-.66667-2-9.5-2H89v24h10c9.33333 0 10-.13333 10-2zm9-10V63h-6v24h6z"/><path fill="#3c82c0" d="M34 129.01297L3.5 111.31106l-.27717-14.73134c-.19624-10.43022.04075-14.53485.81169-14.05839.59886.37012 1.49995 1.75424 2.00241 3.0758 1.17292 3.08502 3.33937 3.2211 2.43368.15287-.37358-1.26557.53759-.44012 2.08254 1.88663 4.86545 7.32752 13.6361 7.87184 19.57922 1.2151C31.70957 87.08516 33 86.15671 33 86.78851c0 .6318.675.8897 1.5.57312.825-.31659 1.5-1.42746 1.5-2.46862S36.45 83 37 83s1-.85186 1-1.89301c0-1.04116.675-2.15203 1.5-2.46862.825-.31658 1.5-1.48972 1.5-2.60698 0-2.06863 1.06547-2.63398 2.41493-1.28139.41154.4125 3.29904 1.42738 6.41666 2.25528 4.49366 1.19331 5.66841 1.91868 5.66841 3.5 0 1.61868-.77037 2.05118-4.08647 2.29423-2.76273.20248-4.50304-.20243-5.37244-1.25C44.18805 79.31674 40 79.5216 40 81.845 40 85.50738 43.72704 87.5 50.57721 87.5c7.48604 0 10.75612-2.2734 10.75612-7.47778 0-4.0145-.91365-4.81789-8.41787-7.40196-7.04532-2.42605-8.35662-4.12183-4.36176-5.64067 2.0907-.79489 3.25283-.68115 5.0461.49384C56.12727 69.1295 61 69.54916 61 68.11078c0-.48907-.86024-1.95157-1.91165-3.25-1.62356-2.005-2.81334-2.36078-7.895-2.36078-6.47872 0-9.70833 1.8005-10.5013 5.85443-.41017 2.09692-.42277 2.09455-.55587-.10443C40.06128 67.0125 39.55 66 39 66c-.55 0-1-.87764-1-1.95031s-.59644-2.31017-1.32541-2.75c-.72898-.43983-1.62676-1.61822-1.99508-2.61864-.4623-1.25573-1.27323-1.62738-2.61895-1.20027-1.38125.4384-2.41009-.0846-3.53058-1.79469-2.06531-3.15205-9.49148-3.54933-10.2759-.54973-.55813 2.13432-.24948 2.02908-6.51987 2.22313-4.8843.15115-6.52308 1.6466-8.0518 7.34753-.26444.98614-.41366-4.4255-.3316-12.02586L3.5 38.86232l30-17.41939C50 11.86227 64.19587 4.13075 65.04637 4.26177c.8505.13103 15.138 8.0939 31.75 17.69527L127 39.4141v71.32682l-27.75 16.01214c-15.2625 8.80668-29.325 16.90083-31.25 17.98699l-3.5 1.97484zM33 90.5c0-.275-.225-.5-.5-.5s-.5.225-.5.5.225.5.5.5.5-.225.5-.5zm37-7V79h4.86514C81.58492 79 85 76.27984 85 70.92742 85 64.57627 82.61394 63 73 63h-8v25h2.5c2.2963 0 2.5-.36667 2.5-4.5zm0-13c0-3.39825.11273-3.5 3.87756-3.5 4.40483 0 6.59796 1.9264 5.63767 4.95201C78.98893 73.61021 78.0216 74 74.43261 74 70.03344 74 70 73.9736 70 70.5zm39 15c0-2.44444-.16667-2.5-7.5-2.5H94v-6h6.5c5.83333 0 6.5-.20513 6.5-2s-.66667-2-6.5-2H94v-6h7c6.33333 0 7-.19048 7-2 0-1.86667-.66667-2-10-2H88v11.83333c0 6.50834.3 12.13334.66667 12.5.36666.36667 5.09166.66667 10.5.66667C108.98889 88 109 87.99717 109 85.5zm8.78078-10.25l.28078-12.25H112v11.83333c0 6.50834.31898 12.15232.70885 12.54219.38987.38986 1.62737.57736 2.75.41666 1.90994-.2734 2.0592-1.07964 2.32193-12.54218zm-84.70183 7.16667c.04798-1.16495.28494-1.4019.60416-.60417.28887.72188.25335 1.58438-.07895 1.91667-.33229.33229-.56864-.25834-.52522-1.3125z"/><path fill="#3b81be" d="M33.5 128.61572l-30-17.35107-.2843-11.29803c-.15637-6.2139.10596-11.68828.58294-12.16526.48965-.48965.83113.08168.7843 1.31225-.0647 1.70025.52174 2.20949 2.66706 2.31596 3.13636.15565 3.56639-.85469 1-2.34947-1.09455-.63752-1.25658-1.03067-.43261-1.0497.89317-.0206 1.10352-.75492.65322-2.2804-.37358-1.26557.53759-.44012 2.08254 1.88663 4.8212 7.2609 13.63435 7.8738 19.45606 1.35306 2.27604-2.54934 2.85082-2.79683 3.36763-1.45006.86445 2.25273.78287 2.6771-.37684 1.96037-.55-.33992-1-.19396-1 .32435 0 1.1238 2.98697 2.02275 4.75 1.42956.6875-.23132 1.25-.90783 1.25-1.50336 0-.59552.77851-1.8219 1.73003-2.72526 1.53335-1.45576 2.05525-1.48025 4.59074-.21538 3.98427 1.98762 12.21706 1.0967 14.92934-1.61558 2.3001-2.3001 2.76916-7.26126.8995-9.51405-.65104-.78447-3.87604-2.18173-7.16666-3.10503C48.29407 71.25962 47 70.47513 47 68.94826 47 67.4018 47.69656 67 50.37756 67c1.85765 0 3.8855.61205 4.50634 1.36011C56.0284 69.73914 61 69.44171 61 67.99421c0-.42495-.7921-1.75084-1.76022-2.94642-2.08064-2.56948-8.75945-3.75949-12.93342-2.30443-2.10851.73503-3.15218.64711-4.07755-.3435-.68403-.73226-2.02784-1.07934-2.98625-.77129-1.36874.43994-1.44314.34698-.34684-.43331 1.81635-1.2928.60367-4.60087-1.40415-3.8304C35.22432 58.2349 33 57.01077 33 54.89301c0-1.72767-1.10597-2.37963-3.35356-1.97691C27.75907 53.25428 25 51.77957 25 50.4326c0-2.05191-3.76393-1.77478-4.31067.31739-.43555 1.66667-.46285 1.66667-.57333 0-.14082-2.12444-4.116-2.41387-4.116-.29969 0 1.89621-2.79083 3.41715-5.14203 2.8023C9.62576 52.93038 9 53.29937 9 54.34819c0 1.81587-3.56009 4.04172-5.02067 3.13904C3.4407 57.15433 3 52.89737 3 48.0273v-8.85467L33.58072 21.5103c20.29344-11.72076 31.14226-17.44712 32.25-17.02258.9181.35186 15.05678 8.36497 31.41928 17.8069L127 39.4618v71.2433l-30.59664 17.64745c-16.82816 9.7061-31.11566 17.63998-31.75 17.63084C64.019 145.97426 50 138.15881 33.5 128.61572zM29.98469 94.25c-.0087-.99868-.33573-1.32068-.76164-.75-.41047.55-1.15358 1.3375-1.65135 1.75-.49777.4125-.15503.75.76163.75.92647 0 1.65987-.7772 1.65136-1.75zM70 83.5V79h4.86514C81.48424 79 85 76.26595 85 71.11855c0-2.05496-.57455-4.52203-1.27678-5.48239-1.51145-2.06703-7.36044-3.5791-13.97322-3.6123L65 62v26h2.5c2.2963 0 2.5-.36667 2.5-4.5zm0-13c0-3.41149.10026-3.5 3.96482-3.5 2.89169 0 4.24403.52172 4.99641 1.92756C80.76202 72.29236 79.22413 74 74.39301 74 70.0391 74 70 73.96885 70 70.5zm39 15c0-2.44444-.16667-2.5-7.5-2.5H94v-6h6.5c5.83333 0 6.5-.20513 6.5-2s-.66667-2-6.5-2H94v-6h7.06955c6.7594 0 7.05553-.09871 6.75-2.25-.30578-2.15301-.72905-2.25-9.81955-2.25h-9.5l-.28452 11.43886c-.15648 6.29137-.0581 12.02887.21862 12.75C88.80285 87.6498 91.6165 88 98.9686 88H109zm8.77988-10.25L117.5 62.5h-5l-.27988 12.75-.27987 12.75h6.1195zm-84.70093 7.16667c.04798-1.16495.28494-1.4019.60416-.60417.28887.72188.25335 1.58438-.07895 1.91667-.33229.33229-.56864-.25834-.52522-1.3125zm12.2953-1.23146c-1.74614-1.48231-1.90981-2.09988-.91656-3.45823 1.06074-1.45065 1.81276-1.5047 6.12575-.44032C54.42889 78.23566 55.5 78.93572 55.5 80.5c0 2.79415-7.0773 3.27307-10.12575.6852zM41 65.5c0-.275.225-.5.5-.5s.5.225.5.5-.225.5-.5.5-.5-.225-.5-.5zm-24-13c0-.275.225-.5.5-.5s.5.225.5.5-.225.5-.5.5-.5-.225-.5-.5zm5 0c0-.275.225-.5.5-.5s.5.225.5.5-.225.5-.5.5-.5-.225-.5-.5z"/><path fill="#2a77b9" d="M33.5 128.59693l-30-17.39609-.28667-10.2533c-.25522-9.12837-.11808-10.11338 1.25-8.97797C5.3085 92.67099 6 93.89699 6 94.694c0 .92226.81804 1.34343 2.25 1.15841 1.2375-.1599 2.85171.08369 3.58713.5413 2.03487 1.26617 3.54915-.82824 1.70525-2.35855-2.7759-2.30379-1.62512-2.78825 3.00354-1.26444 4.08538 1.34497 4.9594 1.33415 8.62751-.10672 3.99934-1.57099 4.04683-1.56487 2.35613.30333-.94902 1.04865-1.46146 2.33383-1.13877 2.85596.63509 1.02758-2.52616 2.1411-6.14079 2.16304C19.0125 97.99385 18 98.45 18 99c0 1.07928.4338 1.18182 5 1.18182 4.61272 0 4.73206-.0492 5.28975-2.18182.38083-1.4563 1.36401-2 3.61663-2C33.94249 96 35 95.50423 35 94.54969c0-1.89039 2.78835-3.4178 5.12421-2.80696 1.28046.33485 2.12362-.26438 2.77215-1.97015.86818-2.28348 1.31372-2.4197 6.50588-1.98913 8.62497.71525 14.0124-3.93249 11.67736-10.07409-1.10131-2.89666-2.96854-3.98205-9.8296-5.71376-3.1909-.80538-4.25-1.56148-4.25-3.03414C47 67.39184 47.68927 67 50.45031 67c1.92863 0 3.803.6232 4.25 1.41305.51783.915 1.76897 1.22638 3.54969.88343 3.23168-.6224 3.37848-1.29878.93643-4.31458-2.1129-2.60932-10.60517-3.89853-13.93644-2.11569-1.79126.95865-2.26902.65409-3.89581-2.48349a66793.21348 66793.21348 0 0 0-2.8413-5.47943c-.56824-1.0956-2.0535-1.90979-3.5-1.9186-2.95406-.018-4.43918-.88699-5.23965-3.06585-.47306-1.28766-2.20292-1.56262-9.31942-1.48128-7.93383.09067-8.81053.29445-9.5202 2.21288-.54573 1.47524-1.861 2.23901-4.35763 2.53048L3 53.5984V39.20215l30.5992-17.67C52.07113 10.86525 64.8043 4.09465 65.72715 4.4488c.8408.32264 14.97115 8.33602 31.40079 17.8075L127 39.47717v71.1596l-30.16408 17.43162c-16.59024 9.58738-30.87774 17.54254-31.75 17.67812C64.21367 145.88209 50 138.16478 33.5 128.59693zm-14.77083-33.2011c-.3323-.33229-1.1948-.36782-1.91667-.07895-.79773.31923-.56078.55619.60417.60417 1.05416.04342 1.64479-.19293 1.3125-.52522zm6 0c-.3323-.33229-1.1948-.36782-1.91667-.07895-.79773.31923-.56078.55619.60417.60417 1.05416.04342 1.64479-.19293 1.3125-.52522zM70.8075 83.25L71.115 79h4.38673C81.518 79 85.2 75.84451 85.2 70.68856c0-2.05845-.5437-4.39777-1.20824-5.19849-1.66427-2.00532-7.4714-3.47783-13.74176-3.4845L65 62v26.13285l2.75-.31643c2.46072-.28313 2.78235-.7635 3.0575-4.56642zM71 70.5c0-3.32656.1717-3.5 3.46482-3.5 2.47713 0 3.77968.58835 4.56939 2.06392C80.57726 71.94713 78.6406 74 74.37755 74 71.18416 74 71 73.80916 71 70.5zm38 15c0-2.44444-.16667-2.5-7.5-2.5H94v-6h6.5c5.83333 0 6.5-.20513 6.5-2s-.66667-2-6.5-2H94v-6h7c6.82665 0 7-.06281 7-2.53621v-2.53621l-9.75.2862L88.5 62.5l-.28452 11.43886c-.15648 6.29137-.0581 12.02887.21862 12.75C88.80285 87.6498 91.6165 88 98.9686 88H109zm8.77988-10.25L117.5 62.5h-5l-.27988 12.75-.27987 12.75h6.1195zm-71.8833 5.95122c-1.21182-1.42213-1.33393-2.24758-.5-3.37993C47.10169 75.50604 55.5 77.73269 55.5 80.5c0 2.87498-7.2971 3.4078-9.60341.70122z"/><path fill="#176bb4" d="M33.25 128.36831L3 110.79736v-5.36729c0-4.19236.30679-5.24957 1.40146-4.82951.7708.29578 1.63754 1.44058 1.9261 2.54399.31205 1.19333 1.26364 1.92901 2.34853 1.81567 3.26205-.34076 4.08255.009 4.59187 1.95645.40262 1.53964 1.40911 1.91666 5.11663 1.91666 3.88185 0 4.61541-.30462 4.61541-1.91666 0-2.23108-.69084-2.06654 9.5-2.26269 6.9523-.13381 7.98181-.38316 7.86111-1.90398-.07639-.9625.27225-1.75.77475-1.75.5025 0 1.35143-1.0125 1.8865-2.25 2.5696-5.94288 4.38346-7.71814 7.14742-6.99535 1.33303.3486 2.10493-.0849 2.44407-1.37257.27263-1.03514 2.22349-2.61585 4.33524-3.51269 6.79343-2.88508 6.46978-10.54295-.5699-13.48431-4.08116-1.70522-3.73122-2.90886 1.10976-3.81703C59.42003 69.20578 61 68.57989 61 68.17719c0-1.97674-3.43907-5.23212-6.29481-5.9586-1.8095-.46031-3.63503-1.77405-4.19232-3.01698C49.96995 57.99073 49.18245 57 48.76287 57 48.3433 57 48 56.12236 48 55.04969s-.58678-2.31017-1.30395-2.75c-.71718-.43983-2.09914-2.51006-3.07104-4.60051-1.10637-2.3797-2.39484-3.73877-3.44605-3.63485C37.097 44.36901 36 44.01087 36 42.7c0-2.30122-2.14698-3.6917-4.0925-2.6505-1.15724.61934-2.0049.60191-2.4075-.0495-.41648-.67388-1.24085-.67388-2.5 0s-2.08352.67388-2.5 0c-.41648-.67388-1.24085-.67388-2.5 0s-2.08352.67388-2.5 0c-.4026-.65141-1.25026-.66884-2.4075-.04951-1.0752.57544-2.14892.59308-2.69766.04434-1.09206-1.09205-2.49643-.21334-4.00383 2.50517-.74309 1.34013-2.14531 2-4.25 2C3.43724 44.5 3 44.14347 3 41.93877c0-2.30542 2.9213-4.24607 29.25-19.43109C48.3375 13.22925 62.21762 5.2047 63.0947 4.67534c1.22381-.73862 8.83599 3.19928 32.72874 16.9311L126.95746 39.5l.02127 35.51142L127 110.52283l-30.1193 17.3634c-16.56561 9.54987-30.85311 17.51857-31.75 17.70822-.89688.18964-15.2432-7.56212-31.8807-17.22614zM70.8075 83.25L71.115 79h4.38673c5.997 0 9.89827-3.30785 9.89827-8.39263 0-5.9682-2.75464-7.84287-12.33966-8.39774L65 61.74304v26.38982l2.75-.31643c2.46072-.28313 2.78235-.7635 3.0575-4.56642zM71 70.5c0-3.20325.2483-3.5 2.92857-3.5 3.94333 0 6.4152 2.48915 5.03426 5.06945C78.24721 73.40659 76.86463 74 74.46482 74 71.17169 74 71 73.82656 71 70.5zm38 15c0-2.44444-.16667-2.5-7.5-2.5H94v-6h6.5c6.26667 0 6.5-.08974 6.5-2.5s-.23333-2.5-6.5-2.5-6.5-.08974-6.5-2.5c0-2.42857.2-2.5 7-2.5 6.82665 0 7-.06281 7-2.53621v-2.53621l-9.75.2862L88.5 62.5l-.27988 12.75L87.94025 88H109zm9-10.5V62h-6v26h6zm-65 6c0-1.28889.50641-1.99786 1.25-1.75.6875.22917 1.25 1.01667 1.25 1.75s-.5625 1.52083-1.25 1.75c-.74359.24786-1.25-.46111-1.25-1.75z"/></svg>