<svg xmlns="http://www.w3.org/2000/svg" role="img" viewBox="-1.15 -1.15 59.87 12.49"><title>SpineOpt.jl logo</title><g stroke-width=".07" text-anchor="middle" transform="translate(-37.052 -90.491)"><path d="M42.98475 96.33595q0 .44959-.21187.88884-.2067.43924-.58394.74413-.41341.33073-.96635.51677-.54777.18603-1.32291.18603-.83199 0-1.49861-.15503-.66146-.15503-1.34875-.45992V96.7752h.07234q.58395.48576 1.34876.7493.7648.26356 1.4366.26356.95084 0 1.47794-.35657.53226-.35656.53226-.95084 0-.5116-.25321-.75447-.24805-.24288-.75964-.37724-.38757-.10335-.84233-.17053-.44958-.06718-.956-.17053-1.0232-.21705-1.51929-.73898-.49092-.5271-.49092-1.36942 0-.96634.81648-1.5813.81649-.6201 2.07222-.6201.81132 0 1.48828.15502.67696.15503 1.19889.3824v1.20923h-.07235q-.43925-.37207-1.15755-.61495-.71313-.24804-1.46244-.24804-.82165 0-1.32291.34106-.4961.34107-.4961.8785 0 .48059.24805.75447.24805.27389.87333.41858.33073.07235.9405.1757.60979.10335 1.03353.21187.85783.22738 1.29191.6873.43408.45991.43408 1.28674z"/><path d="M49.63032 95.57631q0 .7028-.20154 1.28674-.20154.57878-.56844.98185-.34106.3824-.80615.59428-.45992.2067-.97668.2067-.44958 0-.81648-.09819-.36174-.09819-.73897-.30489v2.41845h-.97152v-7.9013h.97152v.60461q.38757-.32556.86816-.5426.48575-.2222 1.03352-.2222 1.04386 0 1.62264.79064.58394.78548.58394 2.1859zm-1.00252.02584q0-1.04386-.35657-1.56062-.35656-.51676-1.09553-.51676-.41858 0-.84233.18086-.42374.18087-.81132.47543v3.2711q.41342.18604.70797.25322.29972.06718.67696.06718.81132 0 1.26607-.54777t.45475-1.62264z"/><path d="M52.1883 91.79361h-1.09554v-1.00769h1.09553zm-.06202 6.73859h-.97151v-5.77224h.97151z"/><path d="M58.88554 98.5322h-.97152v-3.28662q0-.3979-.0465-.74413-.04652-.3514-.17054-.54777-.12919-.21704-.37207-.3204-.24287-.10851-.63045-.10851-.3979 0-.83198.19637-.43409.19636-.832.50125v4.3098h-.9715v-5.77223h.9715v.64078q.45476-.37723.94052-.5891.48575-.21188.99735-.21188.93534 0 1.42626.56327.49093.56327.49093 1.62264z"/><path d="M65.58795 95.74684H61.335q0 .53227.1602.93018.1602.39274.43925.64595.26871.24805.63562.37207.37207.12402.81648.12402.58911 0 1.18339-.23254.59944-.23771.85266-.46509h.05168v1.05937q-.49093.2067-1.00252.34623-.5116.13952-1.07487.13952-1.4366 0-2.24275-.77514-.80615-.78031-.80615-2.21174 0-1.41593.76998-2.24792.77514-.83199 2.03604-.83199 1.16789 0 1.79834.68213.63561.68212.63561 1.93786zm-.94568-.74413q-.0052-.76481-.38757-1.18339-.37723-.41858-1.15238-.41858-.78031 0-1.2454.45992-.45992.45992-.52193 1.14205z"/><path d="M72.8743 91.72126q.47026.51677.7183 1.26607.25322.7493.25322 1.70015 0 .95085-.25838 1.70532-.25322.7493-.71314 1.25056-.47542.52193-1.12654.78548-.64595.26355-1.47794.26355-.81132 0-1.47794-.26871-.66146-.26872-1.12654-.78032-.46509-.5116-.7183-1.25573-.24805-.74414-.24805-1.70015 0-.9405.24805-1.68464.24804-.74931.72346-1.28158.45475-.50642 1.12655-.77514.67696-.26872 1.47277-.26872.82682 0 1.4831.27389.66146.26871 1.12138.76997zm-.09302 2.96622q0-1.49861-.67179-2.30993-.67179-.81648-1.8345-.81648-1.17306 0-1.84485.81648-.66662.81132-.66662 2.30993 0 1.51412.68213 2.32027.68212.80098 1.82933.80098 1.14722 0 1.82418-.80098.68212-.80615.68212-2.32027z"/><path d="M80.47071 95.57631q0 .7028-.20153 1.28674-.20154.57878-.56844.98185-.34106.3824-.80615.59428-.45992.2067-.97668.2067-.44959 0-.81649-.09819-.36173-.09819-.73897-.30489v2.41845h-.97151v-7.9013h.97151v.60461q.38757-.32556.86816-.5426.48576-.2222 1.03353-.2222 1.04386 0 1.62263.79064.58394.78548.58394 2.1859zm-1.00251.02584q0-1.04386-.35657-1.56062-.35657-.51676-1.09554-.51676-.41858 0-.84232.18086-.42375.18087-.81132.47543v3.2711q.41341.18604.70797.25322.29972.06718.67696.06718.81131 0 1.26606-.54777.45476-.54777.45476-1.62264z"/><path d="M84.98205 98.48052q-.27388.07235-.59944.11886-.3204.0465-.5736.0465-.88367 0-1.3436-.47542-.45991-.47542-.45991-1.52445v-3.06957h-.65629v-.81648h.65629v-1.65881h.97151v1.6588h2.00504v.8165h-2.00504v2.63032q0 .45475.02067.71313.02067.25321.1447.47542.11368.2067.31005.30489.20154.09302.60978.09302.23771 0 .4961-.06718.25838-.07235.37206-.11886h.05169z"/><path d="M87.74673 98.5322h-1.23506v-1.47278h1.23506z"/><path d="M91.80332 91.79361h-1.09554v-1.00769h1.09554zm-.06201 6.87811q0 1.01286-.51676 1.52962-.51676.51676-1.38493.51676-.2067 0-.54776-.0413-.3359-.0413-.56328-.10335v-.925h.05168q.1447.05683.38758.12918.24804.07235.48059.07235.37206 0 .59944-.10335.22738-.10335.34106-.31006.1137-.2067.1447-.50126.03617-.28938.03617-.70796v-4.65086h-1.20406V92.76h2.17557z"/><path d="M94.62485 98.5322h-.97152v-8.04083h.97152z"/></g></svg>