<svg xmlns="http://www.w3.org/2000/svg" role="img" viewBox="-1.23 -1.23 64.16 34.47"><title>Stripe Climate Carbon Removal Purchases logo</title><path fill="var(--userLogoColor, #0A2540)" fill-rule="evenodd" d="M60.65114 14.28h-8.06c.19 1.93 1.6 2.55 3.2 2.55 1.64 0 2.96-.37 4.05-.95v3.32a8.33 8.33 0 0 1-4.56 1.1c-4.01 0-6.83-2.5-6.83-7.48 0-4.19 2.39-7.52 6.3-7.52 3.92 0 5.96 3.28 5.96 7.5 0 .4-.04 1.26-.06 1.48zm-5.92-5.62c-1.03 0-2.17.73-2.17 2.58h4.25c0-1.85-1.07-2.58-2.08-2.58zm-12.77 11.64c-1.44 0-2.32-.6-2.9-1.04l-.02 4.63-4.12.87V5.57h3.76l.08 1.02a4.7 4.7 0 0 1 3.23-1.29c2.9 0 5.62 2.6 5.62 7.4 0 5.23-2.7 7.6-5.65 7.6zm-.95-11.35c-.95 0-1.54.34-1.97.81l.02 6.12c.4.44.98.78 1.95.78 1.52 0 2.54-1.65 2.54-3.87 0-2.15-1.04-3.84-2.54-3.84zm-11.76-3.38h4.13v14.44h-4.13zm0-4.7l4.13-.87v3.36l-4.13.88V.88zm-4.32 9.35v9.79h-4.12V5.57h3.7l.12 1.22c1-1.77 3.07-1.41 3.62-1.22v3.79c-.52-.17-2.29-.43-3.32.86zm-8.55 4.72c0 2.43 2.6 1.68 3.12 1.46v3.36c-.55.3-1.54.54-2.89.54a4.15 4.15 0 0 1-4.27-4.24l.01-13.17 4.02-.86v3.54h3.14V9.1h-3.13v5.85zm-4.91.7c0 2.97-2.31 4.66-5.73 4.66a11.2 11.2 0 0 1-4.46-.93v-3.93c1.38.75 3.1 1.31 4.46 1.31.92 0 1.53-.24 1.53-1 0-1.98-6.26-1.24-6.26-5.8 0-2.91 2.28-4.65 5.62-4.65 1.36 0 2.72.2 4.09.75v3.88a9.23 9.23 0 0 0-4.1-1.06c-.86 0-1.44.25-1.44.9 0 1.85 6.29.97 6.29 5.88z"/><g transform="translate(-.966 29.458) scale(.0872)"><path d="M35.19952 26.93254q-1.07422.46875-1.95312.8789-.85938.41016-2.26563.85938-1.1914.3711-2.59765.625-1.38672.27344-3.06641.27344-3.16406 0-5.76172-.8789-2.57812-.89844-4.49219-2.79298-1.875-1.85546-2.92968-4.70703-1.0547-2.87109-1.0547-6.66015 0-3.59375 1.01563-6.42578 1.01563-2.83204 2.9297-4.78516Q16.8792 1.42473 19.4964.42863q2.63672-.99609 5.83984-.99609 2.34375 0 4.66797.5664 2.34375.56641 5.19531 1.9922v4.58984h-.29297q-2.40234-2.01172-4.76562-2.92969t-5.0586-.91797q-2.20703 0-3.98437.72266-1.75781.70312-3.14453 2.20703-1.34766 1.46484-2.10938 3.71094-.74218 2.22656-.74218 5.15625 0 3.0664.8203 5.27344.83985 2.20703 2.14845 3.59374 1.36718 1.44532 3.18359 2.14844 1.83594.6836 3.86719.6836 2.79297 0 5.23437-.95704 2.4414-.95703 4.57031-2.87109h.27344z"/><path d="M44.08624 29.04192h-3.67187V-1.34871h3.67187z"/><path d="M55.29718 3.57317h-4.14063v-3.8086h4.14063zm-.23438 25.46875h-3.67187V7.2255h3.67187z"/><path d="M94.16437 29.04192h-3.67188V16.62004q0-1.40625-.13672-2.71484-.11719-1.3086-.52734-2.08985-.44922-.83984-1.28906-1.26953-.83985-.42968-2.42188-.42968-1.54297 0-3.08594.78125-1.54296.76171-3.08593 1.95312.05859.44922.09766 1.05469.03906.58594.03906 1.17187v13.96485h-3.67188V16.62004q0-1.44531-.13672-2.73437-.11719-1.3086-.52734-2.08985-.44922-.83984-1.28906-1.25-.83985-.42968-2.42188-.42968-1.5039 0-3.02734.74218-1.50391.74219-3.00782 1.89453v16.28907h-3.67187V7.2255h3.67187v2.42187q1.71875-1.42578 3.41797-2.22656 1.71875-.80078 3.65235-.80078 2.22656 0 3.76953.9375 1.5625.9375 2.32422 2.59766 2.22656-1.875 4.0625-2.69532 1.83593-.83984 3.92578-.83984 3.59375 0 5.29297 2.1875 1.71875 2.16797 1.71875 6.07422z"/><path d="M118.1878 29.04192h-3.65234V26.7177q-.48828.33203-1.32812.9375-.82032.58594-1.60157.9375-.91797.44922-2.10937.74219-1.19141.3125-2.79297.3125-2.94922 0-5-1.95313t-2.05078-4.98047q0-2.48047 1.05469-4.0039 1.07421-1.54297 3.04687-2.42188 1.99219-.8789 4.78516-1.1914 2.79297-.3125 5.99609-.46876v-.5664q0-1.25-.44922-2.07032-.42969-.8203-1.25-1.28906-.78125-.44922-1.875-.60547-1.09375-.15625-2.28515-.15625-1.44532 0-3.22266.39063-1.77734.3711-3.67188 1.09375h-.19531V7.69426q1.07422-.29297 3.10547-.64453 2.03125-.35156 4.00391-.35156 2.30468 0 4.0039.39062 1.71875.3711 2.96875 1.28906 1.23047.89844 1.875 2.32422t.64453 3.53516zm-3.65234-5.3711V17.5966q-1.67969.09766-3.96484.29297-2.26563.19532-3.59375.5664-1.58203.44923-2.5586 1.40626-.97656.9375-.97656 2.59766 0 1.875 1.13281 2.83203 1.13282.9375 3.45703.9375 1.9336 0 3.53516-.7422 1.60156-.76171 2.96875-1.8164z"/><path d="M136.58624 28.8466q-1.03515.27344-2.26562.44922-1.21094.17578-2.16797.17578-3.33985 0-5.07813-1.79687-1.73828-1.79688-1.73828-5.76172V10.31145h-2.48047V7.2255h2.48047V.95598h3.67188V7.2255h7.57812v3.08594h-7.57812v9.9414q0 1.71875.0781 2.69532.0781.95703.54688 1.79687.42968.78125 1.17187 1.15235.76172.35156 2.30469.35156.89844 0 1.875-.2539.97656-.27345 1.40625-.44923h.19531z"/><path d="M159.28155 18.51457h-16.07421q0 2.01172.60546 3.51563.60547 1.48437 1.66016 2.4414 1.01563.9375 2.40234 1.40625 1.40625.46875 3.08594.46875 2.22656 0 4.47266-.8789 2.26562-.89844 3.22265-1.75781h.19532v4.0039q-1.85547.78125-3.78907 1.3086-1.93359.52734-4.0625.52734-5.42968 0-8.47656-2.92969-3.04687-2.94922-3.04687-8.35937 0-5.35157 2.91015-8.4961 2.92969-3.14453 7.69532-3.14453 4.41406 0 6.79687 2.57813 2.40234 2.57812 2.40234 7.32421zm-3.57421-2.8125q-.0195-2.89062-1.46485-4.47265-1.42578-1.58204-4.35547-1.58204-2.94922 0-4.70703 1.73829-1.73828 1.73828-1.97265 4.3164z"/><path d="M201.66437 26.93254q-1.07422.46875-1.95313.8789-.85937.41016-2.26562.85938-1.19141.3711-2.59766.625-1.38672.27344-3.06641.27344-3.16406 0-5.76171-.8789-2.57813-.89844-4.49219-2.79298-1.875-1.85546-2.92969-4.70703-1.05469-2.87109-1.05469-6.66015 0-3.59375 1.01563-6.42578 1.01562-2.83204 2.92969-4.78516 1.85546-1.89453 4.47265-2.89063 2.63672-.99609 5.83985-.99609 2.34375 0 4.66796.5664 2.34375.56641 5.19532 1.9922v4.58984h-.29297q-2.40235-2.01172-4.76563-2.92969-2.36328-.91797-5.05859-.91797-2.20703 0-3.98438.72266-1.75781.70312-3.14453 2.20703-1.34765 1.46484-2.10937 3.71094-.74219 2.22656-.74219 5.15625 0 3.0664.82031 5.27344.83985 2.20703 2.14844 3.59374 1.36719 1.44532 3.18359 2.14844 1.83594.6836 3.86719.6836 2.79297 0 5.23438-.95704 2.4414-.95703 4.57031-2.87109h.27344z"/><path d="M223.79327 29.04192h-3.65234V26.7177q-.48828.33203-1.32813.9375-.82031.58594-1.60156.9375-.91797.44922-2.10937.74219-1.19141.3125-2.79297.3125-2.94922 0-5-1.95313t-2.05078-4.98047q0-2.48047 1.05468-4.0039 1.07422-1.54297 3.04688-2.42188 1.99219-.8789 4.78516-1.1914 2.79296-.3125 5.99609-.46876v-.5664q0-1.25-.44922-2.07032-.42969-.8203-1.25-1.28906-.78125-.44922-1.875-.60547-1.09375-.15625-2.28516-.15625-1.44531 0-3.22265.39063-1.77735.3711-3.67188 1.09375h-.19531V7.69426q1.07422-.29297 3.10547-.64453 2.03125-.35156 4.00391-.35156 2.30468 0 4.0039.39062 1.71875.3711 2.96875 1.28906 1.23047.89844 1.875 2.32422t.64453 3.53516zm-3.65234-5.3711V17.5966q-1.67969.09766-3.96484.29297-2.26563.19532-3.59375.5664-1.58204.44923-2.5586 1.40626-.97656.9375-.97656 2.59766 0 1.875 1.13281 2.83203 1.13281.9375 3.45703.9375 1.9336 0 3.53516-.7422 1.60156-.76171 2.96875-1.8164z"/><path d="M244.47687 11.22942h-.19532q-.82031-.19532-1.60156-.27344-.76172-.09766-1.8164-.09766-1.69922 0-3.28125.76172-1.58204.74218-3.04688 1.9336V29.0419h-3.67187V7.22551h3.67187v3.22266q2.1875-1.75782 3.84766-2.48047 1.67968-.74219 3.41797-.74219.95703 0 1.38671.0586.42969.03906 1.28907.17577z"/><path d="M267.13312 17.9677q0 2.73437-.78125 4.92187-.76172 2.1875-2.07032 3.67188-1.38671 1.54297-3.04687 2.32422-1.66016.76171-3.65234.76171-1.85547 0-3.24219-.44921-1.38672-.4297-2.73438-1.17188l-.23437 1.01563h-3.4375V-1.34871h3.67187V9.51067q1.54297-1.26954 3.28125-2.07032 1.73828-.8203 3.90625-.8203 3.86719 0 6.09375 2.96874 2.2461 2.96875 2.2461 8.3789zm-3.78907.09766q0-3.90625-1.28906-5.91797-1.28906-2.03125-4.16015-2.03125-1.60157 0-3.24219.70312-1.64063.6836-3.04688 1.77735v12.5q1.5625.70312 2.67578.97656 1.13282.27344 2.5586.27344 3.04687 0 4.76562-1.99219 1.73828-2.01172 1.73828-6.28906z"/><path d="M291.44952 18.14348q0 5.33203-2.73437 8.41797-2.73438 3.08594-7.32422 3.08594-4.62891 0-7.36328-3.08594-2.71485-3.08594-2.71485-8.41797 0-5.33203 2.71485-8.41797 2.73437-3.10547 7.36328-3.10547 4.58984 0 7.32422 3.10547 2.73437 3.08594 2.73437 8.41797zm-3.78906 0q0-4.23828-1.66016-6.28906-1.66015-2.07032-4.60937-2.07032-2.98828 0-4.64844 2.07032-1.64062 2.05078-1.64062 6.28906 0 4.10156 1.66015 6.23047 1.66016 2.10937 4.62891 2.10937 2.92969 0 4.58984-2.08984 1.67969-2.10938 1.67969-6.25z"/><path d="M315.3753 29.04192h-3.67187V16.62004q0-1.5039-.17578-2.8125-.17578-1.32812-.64453-2.07031-.48828-.82031-1.40625-1.21094-.91797-.41015-2.38282-.41015-1.5039 0-3.14453.74218-1.64062.74219-3.14453 1.89453v16.28907h-3.67187V7.2255h3.67187v2.42187q1.71875-1.42578 3.55469-2.22656t3.76953-.80078q3.53516 0 5.39063 2.1289 1.85546 2.12891 1.85546 6.13282z"/><path d="M360.86359 29.04192h-5.01954l-9.72656-11.5625h-5.44922v11.5625h-3.86718V-.04012h8.14453q2.63672 0 4.39453.35157 1.75781.33203 3.16406 1.21093 1.58203.9961 2.46094 2.51954.89844 1.5039.89844 3.82812 0 3.14453-1.58204 5.27344-1.58203 2.10937-4.35546 3.1836zm-9.04297-20.89844q0-1.25-.44922-2.20703-.42969-.97657-1.44531-1.64063-.83985-.5664-1.99219-.78125-1.15235-.23437-2.71485-.23437h-4.55078v10.97656h3.90625q1.83594 0 3.20313-.3125 1.36719-.33203 2.32422-1.21094.8789-.82031 1.28906-1.875.42969-1.07422.42969-2.71484z"/><path d="M381.60577 18.51457h-16.07422q0 2.01172.60547 3.51563.60547 1.48437 1.66016 2.4414 1.01562.9375 2.40234 1.40625 1.40625.46875 3.08594.46875 2.22656 0 4.47266-.8789 2.26562-.89844 3.22265-1.75781h.19532v4.0039q-1.85547.78125-3.78907 1.3086-1.93359.52734-4.0625.52734-5.42968 0-8.47656-2.92969-3.04687-2.94922-3.04687-8.35937 0-5.35157 2.91015-8.4961 2.92969-3.14453 7.69531-3.14453 4.41407 0 6.79688 2.57813 2.40234 2.57812 2.40234 7.32421zm-3.57422-2.8125q-.0195-2.89062-1.46484-4.47265-1.42578-1.58204-4.35547-1.58204-2.94922 0-4.70703 1.73829-1.73828 1.73828-1.97266 4.3164z"/><path d="M419.00812 29.04192h-3.67188V16.62004q0-1.40625-.13672-2.71484-.11718-1.3086-.52734-2.08985-.44922-.83984-1.28906-1.26953-.83985-.42968-2.42188-.42968-1.54297 0-3.08594.78125-1.54296.76171-3.08593 1.95312.0586.44922.0976 1.05469.0391.58594.0391 1.17187v13.96485h-3.67188V16.62004q0-1.44531-.13672-2.73437-.11719-1.3086-.52734-2.08985-.44922-.83984-1.28906-1.25-.83985-.42968-2.42188-.42968-1.50391 0-3.02734.74218-1.50391.74219-3.00782 1.89453v16.28907h-3.67187V7.2255h3.67187v2.42187q1.71875-1.42578 3.41797-2.22656 1.71875-.80078 3.65235-.80078 2.22656 0 3.76953.9375 1.5625.9375 2.32422 2.59766 2.22656-1.875 4.0625-2.69532 1.83593-.83984 3.92578-.83984 3.59375 0 5.29297 2.1875 1.71875 2.16797 1.71875 6.07422z"/><path d="M444.67218 18.14348q0 5.33203-2.73438 8.41797-2.73437 3.08594-7.32421 3.08594-4.62891 0-7.36329-3.08594-2.71484-3.08594-2.71484-8.41797 0-5.33203 2.71484-8.41797 2.73438-3.10547 7.36329-3.10547 4.58984 0 7.32421 3.10547 2.73438 3.08594 2.73438 8.41797zm-3.78906 0q0-4.23828-1.66016-6.28906-1.66016-2.07032-4.60937-2.07032-2.98829 0-4.64844 2.07032-1.64063 2.05078-1.64063 6.28906 0 4.10156 1.66016 6.23047 1.66016 2.10937 4.62891 2.10937 2.92968 0 4.58984-2.08984 1.67969-2.10938 1.67969-6.25z"/><path d="M468.92999 7.22551l-8.82812 21.8164h-3.69141l-8.76953-21.8164h3.98437l6.75782 17.36328 6.69922-17.36328z"/><path d="M489.90655 29.04192h-3.65234V26.7177q-.48828.33203-1.32812.9375-.82032.58594-1.60157.9375-.91797.44922-2.10937.74219-1.19141.3125-2.79297.3125-2.94922 0-5-1.95313t-2.05078-4.98047q0-2.48047 1.05469-4.0039 1.07421-1.54297 3.04687-2.42188 1.99219-.8789 4.78516-1.1914 2.79297-.3125 5.99609-.46876v-.5664q0-1.25-.44922-2.07032-.42969-.8203-1.25-1.28906-.78125-.44922-1.875-.60547-1.09375-.15625-2.28515-.15625-1.44532 0-3.22266.39063-1.77734.3711-3.67188 1.09375h-.19531V7.69426q1.07422-.29297 3.10547-.64453 2.03125-.35156 4.00391-.35156 2.30468 0 4.0039.39062 1.71875.3711 2.96875 1.28906 1.23047.89844 1.875 2.32422t.64453 3.53516zm-3.65234-5.3711V17.5966q-1.67969.09766-3.96484.29297-2.26563.19532-3.59375.5664-1.58203.44923-2.5586 1.40626-.97656.9375-.97656 2.59766 0 1.875 1.13281 2.83203 1.13282.9375 3.45703.9375 1.9336 0 3.53516-.7422 1.60156-.76171 2.96875-1.8164z"/><path d="M500.6878 29.04192h-3.67187V-1.34871h3.67187z"/><path d="M541.33234 8.74895q0 1.9336-.6836 3.59375-.66406 1.64062-1.875 2.85156-1.5039 1.5039-3.55469 2.26563-2.05078.74218-5.17578.74218h-3.86718v10.83985h-3.86719V-.04012h7.89062q2.61719 0 4.4336.44922 1.8164.4297 3.22265 1.3672 1.66016 1.11327 2.5586 2.77343.91797 1.66015.91797 4.19922zm-4.02344.09765q0-1.5039-.52735-2.61718-.52734-1.11329-1.60156-1.81641-.9375-.60547-2.14844-.85938-1.1914-.27343-3.02734-.27343h-3.82812v11.6211h3.26171q2.34375 0 3.8086-.41017 1.46484-.42968 2.38281-1.34765.91797-.9375 1.28906-1.97266.39063-1.03515.39063-2.32422z"/><path d="M564.22296 29.04192h-3.67187v-2.42188q-1.85547 1.46485-3.55469 2.2461-1.69922.78124-3.75.78124-3.4375 0-5.35156-2.08984-1.91407-2.10937-1.91407-6.17187V7.2255h3.67188v12.42188q0 1.66015.15625 2.85156.15625 1.17187.66406 2.01172.52734.85937 1.36719 1.25.83984.39062 2.4414.39062 1.42579 0 3.10547-.74219 1.69922-.74218 3.16407-1.89453V7.22551h3.67187z"/><path d="M585.0628 11.22942h-.19531q-.82031-.19532-1.60156-.27344-.76172-.09766-1.81641-.09766-1.69922 0-3.28125.76172-1.58203.74218-3.04687 1.9336V29.0419h-3.67188V7.22551h3.67188v3.22266q2.1875-1.75782 3.84765-2.48047 1.67969-.74219 3.41797-.74219.95703 0 1.38672.0586.42969.03906 1.28906.17577z"/><path d="M604.65265 27.67473q-1.83594.8789-3.4961 1.36719-1.64062.48828-3.49609.48828-2.36328 0-4.33594-.6836-1.97265-.70312-3.3789-2.10937-1.42578-1.40625-2.20703-3.55469t-.78125-5.01953q0-5.35156 2.92968-8.39844 2.94922-3.04687 7.77344-3.04687 1.875 0 3.67188.52734 1.8164.52734 3.32031 1.28906v4.08203h-.19531q-1.67969-1.30859-3.47657-2.01171-1.77734-.70313-3.47656-.70313-3.125 0-4.94141 2.10938-1.79687 2.08984-1.79687 6.15234 0 3.94531 1.75781 6.07422 1.77735 2.10937 4.98047 2.10937 1.11328 0 2.26563-.29296 1.15234-.29297 2.07031-.76172.80078-.41016 1.5039-.85938.70313-.46875 1.11329-.80078h.19531z"/><path d="M627.60187 29.04192h-3.67188V16.62004q0-1.5039-.17578-2.8125-.17578-1.32812-.64453-2.07031-.48828-.82031-1.40625-1.21094-.91797-.41015-2.38281-.41015-1.50391 0-3.14453.74218-1.64063.74219-3.14454 1.89453v16.28907h-3.67187V-1.34871h3.67187V9.6474q1.71875-1.42579 3.55469-2.22657 1.83594-.80078 3.76953-.80078 3.53516 0 5.39063 2.1289 1.85547 2.12891 1.85547 6.13282z"/><path d="M651.6253 29.04192h-3.65234V26.7177q-.48828.33203-1.32812.9375-.82032.58594-1.60157.9375-.91797.44922-2.10937.74219-1.19141.3125-2.79297.3125-2.94922 0-5-1.95313t-2.05078-4.98047q0-2.48047 1.05469-4.0039 1.07421-1.54297 3.04687-2.42188 1.99219-.8789 4.78516-1.1914 2.79297-.3125 5.99609-.46876v-.5664q0-1.25-.44922-2.07032-.42969-.8203-1.25-1.28906-.78125-.44922-1.875-.60547-1.09375-.15625-2.28515-.15625-1.44532 0-3.22266.39063-1.77734.3711-3.67188 1.09375h-.19531V7.69426q1.07422-.29297 3.10547-.64453 2.03125-.35156 4.00391-.35156 2.30468 0 4.0039.39062 1.71875.3711 2.96875 1.28906 1.23047.89844 1.875 2.32422t.64453 3.53516zm-3.65234-5.3711V17.5966q-1.67969.09766-3.96484.29297-2.26563.19532-3.59375.5664-1.58203.44923-2.5586 1.40626-.97656.9375-.97656 2.59766 0 1.875 1.13281 2.83203 1.13282.9375 3.45703.9375 1.9336 0 3.53516-.7422 1.60156-.76171 2.96875-1.8164z"/><path d="M674.28155 22.75285q0 2.98829-2.48046 4.90235-2.46094 1.91406-6.73829 1.91406-2.42187 0-4.45312-.5664-2.01172-.58594-3.37891-1.26954v-4.1211h.19532q1.73828 1.3086 3.86718 2.08985 2.12891.76172 4.08203.76172 2.42188 0 3.78907-.78125 1.36718-.78125 1.36718-2.46094 0-1.28906-.74218-1.95312-.74219-.66406-2.85157-1.13281-.78125-.17579-2.05078-.41016-1.25-.23438-2.28515-.50781-2.8711-.76172-4.08203-2.22657-1.19141-1.48437-1.19141-3.6328 0-1.34766.54687-2.53907.56641-1.1914 1.69922-2.1289 1.09375-.91798 2.77344-1.44532 1.69922-.54687 3.78906-.54687 1.95313 0 3.94532.48828 2.01171.46875 3.33984 1.15234v3.92578h-.19531q-1.40625-1.03515-3.41797-1.73828-2.01172-.72266-3.94531-.72266-2.01172 0-3.39844.78125-1.38672.76172-1.38672 2.28516 0 1.34766.83984 2.03125.82032.6836 2.65625 1.11328 1.01563.23438 2.26563.46875 1.26953.23438 2.10937.42969 2.5586.58594 3.94532 2.01172 1.38671 1.44531 1.38671 3.82812z"/><path d="M697.79718 18.51457h-16.07422q0 2.01172.60547 3.51563.60547 1.48437 1.66016 2.4414 1.01562.9375 2.40234 1.40625 1.40625.46875 3.08594.46875 2.22656 0 4.47265-.8789 2.26563-.89844 3.22266-1.75781h.19531v4.0039q-1.85547.78125-3.78906 1.3086-1.93359.52734-4.0625.52734-5.42969 0-8.47656-2.92969-3.04688-2.94922-3.04688-8.35937 0-5.35157 2.91016-8.4961 2.92969-3.14453 7.69531-3.14453 4.41406 0 6.79688 2.57813 2.40234 2.57812 2.40234 7.32421zm-3.57422-2.8125q-.0195-2.89062-1.46484-4.47265-1.42578-1.58204-4.35547-1.58204-2.94922 0-4.70703 1.73829-1.73828 1.73828-1.97266 4.3164z"/><path d="M718.94952 22.75285q0 2.98829-2.48047 4.90235-2.46093 1.91406-6.73828 1.91406-2.42187 0-4.45312-.5664-2.01172-.58594-3.37891-1.26954v-4.1211h.19531q1.73829 1.3086 3.86719 2.08985 2.12891.76172 4.08203.76172 2.42188 0 3.78907-.78125 1.36718-.78125 1.36718-2.46094 0-1.28906-.74218-1.95312-.74219-.66406-2.85157-1.13281-.78125-.17579-2.05078-.41016-1.25-.23438-2.28515-.50781-2.8711-.76172-4.08204-2.22657-1.1914-1.48437-1.1914-3.6328 0-1.34766.54687-2.53907.56641-1.1914 1.69922-2.1289 1.09375-.91798 2.77344-1.44532 1.69922-.54687 3.78906-.54687 1.95313 0 3.94531.48828 2.01172.46875 3.33985 1.15234v3.92578h-.19531q-1.40625-1.03515-3.41797-1.73828-2.01172-.72266-3.94532-.72266-2.01171 0-3.39843.78125-1.38672.76172-1.38672 2.28516 0 1.34766.83984 2.03125.82031.6836 2.65625 1.11328 1.01563.23438 2.26563.46875 1.26953.23438 2.10937.42969 2.5586.58594 3.94531 2.01172 1.38672 1.44531 1.38672 3.82812z"/></g></svg>