<svg xmlns="http://www.w3.org/2000/svg" role="img" viewBox="-22.06 -22.06 1147.12 243.12"><title>TaxonWorks logo</title><defs><style>.cls-1{fill:#00845d}</style></defs><path d="M14.2 63.07c10.06 0 13.8 13.24 13.8 13.24s5.05 15.47 15.35 15.47c7.71 0 9.42-6.32 9.8-9.09v-.38c0-.13 0-.5.07-.76v-.15a4.56 4.56 0 0 0-2.71-4.82 18.22 18.22 0 0 1-8-5.55c-6.4-7.4-3-17 4.5-23.62-3.5-4-8.05-8.66-12-10.77-8.71-4.64-15.69 2.61-16.22 3.18l-.1.18q-.9 1.23-1.76 2.48l-.07.1q-.86 1.3-1.77 2.66l-.09.15c-.5.8-1 1.59-1.47 2.4l-.3.5q-1.57 2.68-3 5.47l-.23.51q-.65 1.32-1.26 2.65l-.06.13Q8 58.47 7.45 59.91l-.22.55c-.32.77-.63 1.55-.92 2.33l-.24.63q-.54 1.44-1 2.91l-.12.37c-.08.26-.16.52-.24.77a12.6 12.6 0 0 1 9.49-4.4z" class="cls-1"/><path d="M36.15 33c5.35 1.76 11.4 6.83 15.72 11 .53-.31 1.06-.61 1.61-.9a31.06 31.06 0 0 1 7.24-2.67c-2.39-4.94-5.58-12.81-4.88-18.31 1.43-11.17 13.65-12 13.65-12S58.27 12.47 59 22.89c.35 5 4.67 12.45 7.49 16.79 7-.1 13 2.69 15.75 8a12.48 12.48 0 0 1 .7 1.64 5.1 5.1 0 0 0 2.34 2.4c3.64 1.17 7.56 2.55 11.65 4.19a148.81 148.81 0 0 1 17 8.06.89.89 0 0 0 1-1.42c-27.24-26.14-8-36.35-8-36.35-9.84 14.24 6.6 24.52 25.49 35.14 16.64 9.35 28.42 19.49 41.3 12.67 6.42-3.4 1.94-11-1-15.16a53.74 53.74 0 0 1-5.6-9.24 10.41 10.41 0 0 1-.8-6.61c.68-3.11-.39-6.78-2.75-10.49-1.75-2.76-5.12-5.68-7.62-7.63a21.18 21.18 0 0 1-4.26-4.42c-9-12.61-32.18-17.89-32.18-17.89A97.63 97.63 0 0 0 54 10.16a97.4 97.4 0 0 0-19.39 12.73l-.75.63q-2.16 1.82-4.17 3.81-1.17 1.13-2.31 2.31Q25.07 32 23 34.5l-.17.2-.38.46c2.76-2.36 7.2-4.31 13.7-2.16zm109.64.94A7.74 7.74 0 0 1 156.55 42a7.22 7.22 0 0 1-7.73-.9 7.22 7.22 0 0 1-3.03-7.17zm-92.62 72.97c-.2-2-.36-4-.44-6.3a18.44 18.44 0 0 1-7.22 1.47c-19 0-19.52-18.78-26.22-29.15-7-10.84-16.79.92-17.76 7.24 0 .3-.09.54-.13.72-.11.64-.22 1.29-.32 1.94-.08.27-.08.54-.08.81-.12.78-.21 1.56-.3 2.35 0 .27-.06.54-.09.81-.11 1-.21 2.07-.29 3.11v.33Q.16 91.65.1 93.07v.87Q0 95.32 0 96.7v2.96c0 .58 0 1.16.06 1.73v.7a97.2 97.2 0 0 0 43 76c-7.95-7.83-12.7-17.75-12.7-28.55 0-13.43 7.35-26 19.06-34.44a9 9 0 0 0 3.75-8.19z" class="cls-1"/><path d="M128.31 170a59.45 59.45 0 0 1-18.3 4.43c-1.07.07-2.19.12-3.33.12-12.32 0-28.36-4.8-40.71-25.28l-1.62-2.67a16.61 16.61 0 0 0-2.91 9.33c0 13.89 16.65 26.49 36.65 26.49a58.48 58.48 0 0 0 15.89-2c-4.59 2.87-13.84 5.55-21.86 5.55C69.17 186 50 170.76 50 152.72a31.42 31.42 0 0 1 5.75-17.61 8.26 8.26 0 0 0 1.08-7.19c-10.55 6.11-17 15.44-17 26.6 0 17.19 15.31 31.89 37 37.89 1.23.26 2.46.5 3.7.71 15.62 2.62 29.47-.12 38.92-9.12a35.12 35.12 0 0 0 8.86-14z" class="cls-1"/><path d="M171 33.85a87.33 87.33 0 0 1-28 126.55l-.19.17a6.35 6.35 0 0 1 .14-1.3 26.75 26.75 0 0 1 4.37-10.79c7.46-10.69 12.43-27-.29-48.1-7-11.63-21.68-28-51.73-40.11-4.13-1.66-8.12-3.06-11.81-4.23l-1.54-.48-.18-.06q-1.59-.49-3.1-.92h-.15l-2.93-.81h-.08l-1.34-.35h-.07l-2.58-.64h-.14l-2.27-.53h-.17l-1-.21-.94-.37h-.18l-.71-.15h-.18l-.75-.15h-.15l-.55-.11h-.18l-.62-.26-.12.42v.14l-.09.32-.05.18-.09.31-.06.22-.09.32-.06.23-.1.35-.07.24-.1.39-.06.24-.12.47-.08.31-.14.56-.12.3-.11.45-.08.32-.14.43-.09.36-.1.42-.09.38-.1.45-.09.39-.11.48-.09.38-.13.56-.11.51-.09.73-.08.4-.11.55-.1.46-.1.51-.1.49-.1.52-.1.5-.1.54-.09.5-.12.57-.09.51-.11.65-.09.51-.17 1-.08.5-.1.64-.08.54-.1.63-.08.56-.1.62-.08.58-.09.64-.08.57-.09.68-.07.56-.09.76-.06.5q-.32 2.66-.56 5.48V83q-.07.84-.13 1.71-.06.84-.11 1.71v.08q-.05.85-.09 1.73c-.15 3-.21 6.22-.15 9.54a127.22 127.22 0 0 0 .85 12.72c0 .35.08.7.13 1.06a103 103 0 0 0 3.61 17 114.36 114.36 0 0 0 5.25 13.18c.86 1.71 1.78 3.4 2.79 5.07 9.23 15.29 21.52 23 36.58 23 1 0 2.09 0 3.15-.11a55.64 55.64 0 0 0 20.21-5.6c4.93-24.48-8.37-59.28-36.07-88.3A163.2 163.2 0 0 0 81.71 64.4c9.22 6.92 13.87 10.66 19.22 16.27 37.83 39.64 49.7 89.72 26.51 111.86a35.67 35.67 0 0 1-11.92 7.47 36.48 36.48 0 0 0 15.42-8.64 34.66 34.66 0 0 0 3.76-4.24A97.3 97.3 0 0 0 171 33.85zM331.33 44.3H257v14h28.71v95.91h6.22a10.58 10.58 0 0 0 10.58-10.58v-85.3h28.87v-14zM363 70.23q-15.82 0-25.45 5.55v15.5a41.61 41.61 0 0 1 24-7.34q9.46 0 13.54 4.32t4.08 12.8v4.73h-13.7q-16.15 0-25.12 6.61t-9 18.51a22.75 22.75 0 0 0 7.1 17.21q7.1 6.77 18.84 6.77 16 0 22.35-10.44v9.79h5.24a10.58 10.58 0 0 0 10.58-10.58v-41.94q-.02-31.48-32.46-31.49zm16.15 56.44a15 15 0 0 1-4.51 11.33q-4.49 4.32-12.32 4.32-6.85 0-10.44-3.26a11.51 11.51 0 0 1-3.59-9 11.07 11.07 0 0 1 4.65-9.13q4.65-3.59 13.78-3.59h12.4v9.3zm155.3-56.27q-17.62 0-28.38 12.32t-10.77 30.9q0 18.27 10.44 30.18t28.71 11.91q18.43 0 29-12.07T573.92 113q0-18.6-10.28-30.58T534.45 70.4zm16.88 63.6q-5.79 8.16-16.88 8.16a19.21 19.21 0 0 1-16.47-8.4q-6-8.4-6-20.63 0-12.39 5.87-20.8t16.47-8.4q11.74 0 17.29 8.24t5.55 21.12q-.04 12.57-5.83 20.71zM638 70.4q-18.43 0-25.77 15.33v-3.61a10.58 10.58 0 0 0-10.58-10.58h-5.4v82.7h5.4a10.58 10.58 0 0 0 10.58-10.58v-34.28q0-11.9 6-18.51a19 19 0 0 1 14.52-6.61q7.18 0 11.5 4.57t4.38 13.17v41.62a10.58 10.58 0 0 0 10.58 10.58h5.4V98.29q0-12.88-7.18-20.39T638 70.4zm216.92 0q-17.62 0-28.38 12.32t-10.77 30.91q0 18.27 10.44 30.18t28.71 11.91q18.43 0 29-12.07T894.39 113q0-18.6-10.28-30.58T854.92 70.4zM871.8 134q-5.79 8.16-16.88 8.16a19.21 19.21 0 0 1-16.47-8.4q-6-8.4-6-20.63 0-12.39 5.87-20.8t16.47-8.4q11.74 0 17.29 8.24t5.55 21.12q-.04 12.57-5.83 20.71zm58.73-47.94v-3.94a10.58 10.58 0 0 0-10.58-10.58h-5.4v82.7h5.4a10.58 10.58 0 0 0 10.58-10.58V110.2a28.71 28.71 0 0 1 5.38-17.45q5.38-7.34 13.7-7.34a19.28 19.28 0 0 1 7.67 1.47V70.72h-5.06q-15.66 0-21.69 15.34zm167.52 31.3q-5.47-5.3-15.09-9.54-.82-.32-2.85-1.22t-2.85-1.31l-2.53-1.22a14.1 14.1 0 0 1-2.45-1.39q-.73-.57-2-1.39a7.19 7.19 0 0 1-1.88-1.55 19.29 19.29 0 0 1-1.22-1.79 7.05 7.05 0 0 1-.9-2.12 9.75 9.75 0 0 1-.24-2.2 8.28 8.28 0 0 1 3.34-6.85q3.34-2.61 9.05-2.61 12.56 0 20.55 4.73V74.38q-7.5-3.59-20.88-3.59-12.23 0-20.39 6.2t-8.16 17.13q0 15.5 19.41 23.49 6.85 2.94 9.71 4.32a20.51 20.51 0 0 1 5.63 4.24 9 9 0 0 1 2.77 6.44 8.14 8.14 0 0 1-3.51 6.85q-3.51 2.61-9.87 2.61a44.58 44.58 0 0 1-23.65-7v15.17q9.79 4.89 24.47 4.89 13.37 0 21.21-6.28t7.83-17.37q-.03-8.82-5.5-14.12zM475.53 71.38a14.11 14.11 0 0 0-11.65 6.16l-15 22-15-22a14.11 14.11 0 0 0-11.65-6.16h-10.69l28.27 41.43-28.27 41.43h10.65a14.11 14.11 0 0 0 11.65-6.16l15-22 15 22a14.11 14.11 0 0 0 11.65 6.16h10.65l-28.27-41.43 28.27-41.43h-10.61zm550.18 0a14.11 14.11 0 0 0-11.65 6.16l-23.63 34.63V54.88a10.58 10.58 0 0 0-10.58-10.58h-5.51v109.94h5.51a10.58 10.58 0 0 0 10.58-10.58v-30.2l23.63 34.63a14.11 14.11 0 0 0 11.65 6.16h10.65l-28.27-41.43 28.27-41.43h-10.65zM792 52.2L773.51 123 755 52.2a10.58 10.58 0 0 0-10.24-7.9 10.58 10.58 0 0 0-10.24 7.9L716 123l-18.52-70.8a10.58 10.58 0 0 0-10.24-7.9h-8.17l28.76 109.94H716a10.58 10.58 0 0 0 10.24-7.9l18.52-70.8 18.52 70.8a10.58 10.58 0 0 0 10.24 7.9h8.17L810.44 44.3h-8.17A10.58 10.58 0 0 0 792 52.2z" class="cls-1"/></svg>