<svg xmlns="http://www.w3.org/2000/svg" role="img" viewBox="11.29 14.66 147.42 27.30"><title>TBD (member) logo</title><path fill="#ffda00" d="M145.0547 17.4956a10.8509 10.8509 0 0 0-10.8508 10.8509h21.7016a10.8508 10.8508 0 0 0-10.8508-10.8509z"/><path fill="#2071b5" d="M145.0547 39.1973a10.8508 10.8508 0 0 1-10.8508-10.8508h21.7016a10.8508 10.8508 0 0 1-10.8508 10.8508z"/><path fill="#4e4b48" d="M47.424 22.481H37.35v2.654h3.588v9.729h3.243v-9.729h3.243v-2.654zm1.13 0v2.654h3.244v9.729h3.243v-9.729h3.587v-2.654H48.554zm34.758 12.383V22.481h-3.096v7.41l-5.519-7.41h-3.095v12.383h3.095v-7.32l5.519 7.32h3.096zm-23.111 0h9.156v-2.653h-5.913v-2.437h5.012V27.12h-5.012v-1.985h5.913v-2.654h-9.156v12.383zm25.578 0h3.244v-5.012h5.235v-2.653h-5.235v-2.064h6.208v-2.654h-9.452v12.383zM24.39 22.481l-3.526 8.706h-.028l-3.527-8.706h-3.136l5.08 12.383h3.193l5.08-12.383H24.39zm94.667 12.383h8.955v-2.748H122.3v-9.635h-3.243v12.383zm-10.354 0h8.955v-2.748h-5.712v-9.635h-3.243v12.383zm-4.1904.0005h3.1357l-5.1619-12.3834H99.31l-5.1619 12.3834h3.1358l.8893-2.2114h5.45zm-5.32-4.7318l1.6944-4.2294h.0215l1.7006 4.2289zM35.8 34.8645h3.1357l-5.162-12.3834H30.597l-5.1621 12.3834h3.1359l.8893-2.2114h5.45zm-5.32-4.7318l1.6944-4.2294h.0214l1.7006 4.2289z"/></svg>