<svg xmlns="http://www.w3.org/2000/svg" role="img" viewBox="-9.00 -9.00 457.00 468.00"><title>TECA logo</title><defs><style>.cls-1{fill:#fff}</style></defs><rect width="439.09" height="335.85" class="cls-1" rx="18.01"/><rect width="425.25" height="320.84" x="6.92" y="7.5" fill="#0f4058" rx="17.33"/><path d="M41.06 262H54.7q5.58 0 7.85 1a8.66 8.66 0 0 1 3.83 3.6 11.67 11.67 0 0 1 .22 11.26 8.69 8.69 0 0 1-3.47 3.58 9.22 9.22 0 0 1 4.74 3.68 11.32 11.32 0 0 1 1.71 6.35 13 13 0 0 1-2.18 7.66 9 9 0 0 1-5.15 3.87q-2.07.51-9.6.51H41.06zm6.86 6.91v9.61h4.53a47.41 47.41 0 0 0 5-.15 4.27 4.27 0 0 0 2.75-1.48 5.91 5.91 0 0 0 .18-6.26 3.36 3.36 0 0 0-2-1.43 41.21 41.21 0 0 0-6.59-.29zm0 16.52v11.07h6.38a20 20 0 0 0 5.39-.44 3.92 3.92 0 0 0 2-1.72 7 7 0 0 0 0-6.61 4.44 4.44 0 0 0-2.3-1.81 22 22 0 0 0-5.86-.49zm27.5 18.11V262h25.26v7H82.27v9.2h17.11v7H82.27v11.27h19v7zm31.72 0V262h14.47c3.7 0 6.34.38 7.93 1.12a8.86 8.86 0 0 1 3.91 3.88 13.58 13.58 0 0 1 1.52 6.62 12.32 12.32 0 0 1-2.33 7.84 10.41 10.41 0 0 1-6.64 3.74 17.11 17.11 0 0 1 3.65 3.47 49.14 49.14 0 0 1 3.94 6.75l4.13 8.1h-8.2l-5-9a58.88 58.88 0 0 0-3.65-6.13 5.36 5.36 0 0 0-2-1.7 9.34 9.34 0 0 0-3.45-.47H114v17.33zm6.85-24h5.1a25.11 25.11 0 0 0 5.94-.41 3.78 3.78 0 0 0 2.07-1.65 6.13 6.13 0 0 0 .79-3.32 5.67 5.67 0 0 0-.79-3.18 4 4 0 0 0-2.15-1.66 27.06 27.06 0 0 0-5.58-.31H114zm27.53 24V262h6.85v18.49L162.29 262h9.26l-12.84 16.19 13.52 25.33h-8.9L153.94 284l-5.57 7v12.54zm34.26 0V262h25.27v7h-18.41v9.2h17.1v7h-17.1v11.27h19v7zm31.89 0v-41.18h6.86v34.16h17.1v7zm28.89 0V262h25.26v7h-18.41v9.2h17.11v7h-17.11v11.27h19v7zm40.64 0v-17.48l-12.46-24h8l8 16.42 7.93-16.48h7.9l-12.52 24.1v17.42zm35.37 0v-41.18h6.85v34.16h17.11v7zm59.59 0h-7.45l-3-9.4H348.1l-2.82 9.4H338L351.23 262h7.28zm-12.65-16.42l-4.7-15.41-4.61 15.41zM375.75 262h13.64q5.58 0 7.85 1a8.66 8.66 0 0 1 3.83 3.6 11.67 11.67 0 0 1 .22 11.26 8.69 8.69 0 0 1-3.47 3.58 9.22 9.22 0 0 1 4.74 3.68 11.32 11.32 0 0 1 1.71 6.35 13 13 0 0 1-2.18 7.66 9 9 0 0 1-5.15 3.86q-2.07.51-9.6.51h-11.59zm6.86 6.91v9.61h4.53a47.41 47.41 0 0 0 5-.15 4.27 4.27 0 0 0 2.75-1.48 5.91 5.91 0 0 0 .18-6.26 3.36 3.36 0 0 0-1.95-1.43 41.21 41.21 0 0 0-6.59-.29zm0 16.52v11.07H389a20 20 0 0 0 5.39-.44 4 4 0 0 0 2-1.72 7 7 0 0 0-.05-6.61 4.44 4.44 0 0 0-2.3-1.81 22 22 0 0 0-5.86-.49zM70.81 103.8c17.66-8.41 35.79-15.45 55.08-19.13 5.44-1 10.94-1.73 16.42-2.58.37-.53.81-.45 1.27-.14a254.92 254.92 0 0 1 34.07-.58c42.32 2.52 80 17.35 113.64 42.86 6.38 4.84 11.82 10.63 17.69 16a2.89 2.89 0 0 1 .55.7c5 1.39 10 .38 15 .56 5.43.19 5.44 0 5.44 5.58v99.14c0 1.45-.08 2.9-.12 4.35a7.17 7.17 0 0 1-7.14.16c-1.09-1.26-.6-2.78-.6-4.18v-92.91c0-1.32-.11-2.65-.17-4-4.55-.83-9.14-.13-13.7-.38-1.77-.09-3.63.36-5.2-.88-3.26-1.74-5-5-7.88-7.35-5.63-4.56-11.27-9.06-17.08-13.4-25.47-19-53.64-31.79-85-37.36a27.7 27.7 0 0 0-2.88-.22c-.46.34-.9.42-1.27-.12-10.12-2.15-20.4-2.36-30.66-2.29a236.49 236.49 0 0 0-58.78 8.17c-9.41 2.48-18.58 5.7-27.79 8.79-.87.33-1.04-.07-.89-.79zm326.64 13.09c1.29 3.62 3.16 7 3.16 11q-.06 56.35-.06 112.7c0 2.39-.62 3.12-3 3-2.1-.09-3.19-.22-3.19-2.87q.15-56.71.07-113.43c-.02-3.72 1.82-6.9 3.02-10.4zm-38.6 126.53c-3.25.7-4.21-.44-4.2-3.87.14-36.52.09-73 .08-109.55 0-1.45-.09-2.89-.14-4.34a.75.75 0 0 1 .16-1.25c.59-2.28 1.19-4.55 1.85-7.08 1.58 2.51.93 5.49 2.28 7.85.86.94.46 2.08.46 3.12v112c0 1.06.43 2.22-.49 3.12z" class="cls-1"/><path d="M293.42 164.72a66.44 66.44 0 0 0-1.28 15.85c.08 2-.56 2.78-2.48 3a75.19 75.19 0 0 0-8.58 1.54c-2.16.55-2.65-.51-2.55-2.17.34-5.8.73-11.59 1.23-17.38a3.82 3.82 0 0 1 1.65-2.72c7.7-5.18 15.91-5.58 24.8-2.79-4 1.87-8.56.65-12 3.41-.44.32-.15 1.11-.79 1.26zm-38.58.07a71.53 71.53 0 0 0-1.21 15.86c.07 2-.53 2.67-2.38 2.92-2.95.41-5.91.89-8.81 1.59-2 .5-2.49-.46-2.42-2 .26-5.87.73-11.71 1.23-17.56a3.7 3.7 0 0 1 1.61-2.67c7.69-5.16 15.9-5.6 24.77-2.74-3.91 1.65-8.21.75-11.59 3.13-.7.22-.62.97-1.2 1.47zm-38.57.07a77.48 77.48 0 0 0-1.16 15.87c.08 1.89-.5 2.55-2.26 2.8-3 .43-6.07.93-9 1.64-1.88.44-2.34-.41-2.28-1.93.18-5.93.71-11.83 1.23-17.74a3.55 3.55 0 0 1 1.55-2.62c7.69-5.15 15.9-5.61 24.74-2.69-3.76 1.44-7.84.84-11.2 2.84-.99.28-1.12.97-1.62 1.83zm-38.58.07a84.49 84.49 0 0 0-1.09 15.88c.07 1.82-.47 2.44-2.16 2.68-3.11.46-6.22 1-9.28 1.68-1.75.4-2.18-.34-2.15-1.81.1-6 .71-11.94 1.23-17.9a3.46 3.46 0 0 1 1.51-2.59c7.68-5.13 15.89-5.62 24.7-2.62-3.62 1.22-7.48.93-10.8 2.54-1.18.28-1.52.95-1.96 2.14zm-38.57.07a92.92 92.92 0 0 0-1 15.89c.07 1.75-.43 2.32-2.05 2.56-3.18.48-6.37 1-9.51 1.73-1.61.36-2-.29-2-1.69 0-6.05.7-12.06 1.22-18.08a3.35 3.35 0 0 1 1.46-2.54c7.69-5.12 15.89-5.64 24.67-2.57-3.48 1-7.12 1-10.41 2.25-1.5.28-2.02.91-2.38 2.45zm-38.58.07a103.19 103.19 0 0 0-1 15.9c.06 1.67-.41 2.21-1.94 2.44-3.27.51-6.52 1.09-9.75 1.78-1.47.31-1.87-.24-1.87-1.57-.07-6.12.68-12.18 1.21-18.26a3.33 3.33 0 0 1 1.41-2.5c7.69-5.1 15.89-5.64 24.65-2.5-3.35.78-6.77 1.12-10 2-1.66.23-2.41.82-2.71 2.71zm-25.85-4.66c-3.21.57-6.41 1.21-9.63 1.67-1.9.27-2.86.82-3.09 3.06a114.4 114.4 0 0 0-.91 15.9c0 1.61-.38 2.1-1.84 2.33-3.34.53-6.67 1.15-10 1.83-1.32.26-1.7-.19-1.73-1.45-.14-6.18.68-12.3 1.21-18.44a3.2 3.2 0 0 1 1.37-2.45c7.69-5.09 15.93-5.66 24.62-2.45zm84.2-98.6c10.59-5.73 10.59-5.73 20.89.13 3.46 2 6.93 3.92 10.39 5.9a4.51 4.51 0 0 1 .33 7.79c-1.74 1.22-3.58 2.3-5.91 3.77.85-4.21-1.77-5.39-4.39-6.76-5.77-3-11.47-6.18-17.18-9.31-1.3-.71-2.53-1.46-4.05-.63a.53.53 0 0 1-.08-.89zM364 110.89c4.2-10.8 8.4-21.6 12.88-33.14 2.77 6.66 5.26 12.64 7.76 18.62 2.37 5.66 4.76 11.32 7.11 17 1.84 4.42 1.82 5-.24 10.15-4.78-11.32-9.5-22.48-14.22-33.64-.78-.23-1.55-.74-2.34 0l-10.2 22c-.75 0-1.09-.21-.75-.99z" class="cls-1"/><path fill="none" stroke="#fdfdfd" stroke-linecap="round" stroke-miterlimit="10" stroke-width="2" d="M162.11 60.81l-23.66 15.94"/><path d="M383.28 129.72h7.52v31.57h-7.52zm-10.15 0h7.52v31.57h-7.52zm-10.61 0h7.52v31.57h-7.52z" class="cls-1"/><path d="M117.26955 351.27605H39.03772v17.10739h29.01547v79.46177h20.3127v-79.46177h28.90366zm83.2075 17.10739v-17.10739h-70.83353v96.56916h73.1816v-17.34965h-53.46524v-24.84112h46.92419v-16.77195h-46.9242v-20.49905zm-34.92292-17.10739zm62.37302 10.10044c-9.05686 9.11276-13.56665 22.12034-13.56665 38.96683 0 15.59792 3.96936 27.87871 11.92672 36.82375 7.93873 8.90777 18.85913 13.36165 32.74258 13.36165 11.2372 0 20.44314-3.29848 27.6178-9.89545 7.1933-6.57833 11.66583-15.15066 13.39893-25.67972h-19.97725c-1.3604 4.97568-3.05623 8.72142-5.10613 11.19994-3.70847 4.64024-9.11276 6.95104-16.19425 6.95104-6.89514 0-12.57896-2.70215-17.05148-8.0878-4.49116-5.4043-6.72742-13.51074-6.72742-24.33797 0-10.82722 2.12445-19.2132 6.3547-25.12065 4.2489-5.9261 10.0259-8.88914 17.3683-8.88914 7.21193 0 12.63486 2.10582 16.30605 6.2988 2.0499 2.34808 3.74574 5.85155 5.05022 10.47315h20.18225c-.3168-6.01926-2.53443-12.0199-6.69014-18.02052-7.51011-10.64087-19.38092-15.97063-35.63108-15.97063-12.15035 0-22.1576 3.96936-30.00315 11.92672zm29.40681-13.04485zm84.512 63.02526l12.44851-37.99778 12.05717 37.99778zm1.24858-60.08085l-34.45704 96.56916h21.09538l6.67151-19.8468h35.57517l6.22426 19.8468h21.89671l-34.21478-96.56916zm11.27447 0z"/></svg>