<svg xmlns="http://www.w3.org/2000/svg" role="img" viewBox="-5.15 -5.15 267.54 19.54"><title>The Global Environmental Multiscale Model logo</title><g transform="translate(0 9.117)"><path d="M7.39453-7.69336H4.27734V0H3.1172v-7.69336H0V-8.7246h7.39453z"/><path d="M13.95117 0h-1.10156v-3.72656q0-.45117-.05273-.84375-.05274-.39844-.19336-.6211-.14649-.24609-.42188-.36328-.27539-.12304-.71484-.12304-.45117 0-.94336.22265-.49219.22266-.94336.56836V0H8.47852v-9.11719h1.10156v3.29883q.51562-.42773 1.0664-.66797.55079-.24023 1.13086-.24023 1.06055 0 1.6172.63867.55663.63867.55663 1.83984z"/><path d="M21.55078-3.1582h-4.82226q0 .60351.18164 1.05468.18164.44532.49804.73243.3047.28125.7207.42187.42188.14063.92579.14063.66797 0 1.3418-.26368.67968-.26953.9668-.52734h.05858v1.20117q-.55664.23438-1.13672.39258-.58008.1582-1.21875.1582-1.6289 0-2.54297-.8789-.91406-.88477-.91406-2.50782 0-1.60546.87305-2.54882.8789-.94336 2.3086-.94336 1.32421 0 2.03905.77344.7207.77343.7207 2.19726zm-1.07226-.84375q-.0059-.8672-.43946-1.3418-.42773-.4746-1.30664-.4746-.88476 0-1.4121.52147-.5215.52149-.5918 1.29493z"/><path d="M34.80469-.64453q-.71485.32812-1.56446.57422-.84375.24023-1.63476.24023-1.01953 0-1.86914-.28125t-1.44727-.84375q-.60351-.56836-.93164-1.41797-.32812-.85547-.32812-1.99804 0-2.0918 1.21875-3.29883 1.2246-1.2129 3.35742-1.2129.74414 0 1.51758.18165.7793.17578 1.67578.60351v1.37696h-.10547q-.18164-.14063-.52734-.36914-.3457-.22852-.6797-.38086-.40429-.18164-.91991-.29883-.50977-.12305-1.16016-.12305-1.46484 0-2.32031.94336-.84961.9375-.84961 2.54297 0 1.69336.89062 2.63672.89063.9375 2.42578.9375.5625 0 1.11915-.11133.5625-.11133.98437-.2871v-2.13868h-2.3379v-1.01953h3.48634z"/><path d="M37.85742 0h-1.10156v-9.11719h1.10156z"/><path d="M45.61523-3.26953q0 1.5996-.8203 2.52539-.82032.92578-2.19727.92578-1.38868 0-2.20899-.92578-.81445-.92578-.81445-2.5254 0-1.5996.81445-2.52538.82031-.93164 2.20899-.93164 1.37695 0 2.19726.93164.82031.92578.82031 2.52539zm-1.13671 0q0-1.27149-.49805-1.88672-.49805-.6211-1.38281-.6211-.89649 0-1.39453.6211-.4922.61523-.4922 1.88672 0 1.23047.49805 1.86914.49805.63281 1.38868.63281.8789 0 1.37695-.62695.5039-.63281.5039-1.875z"/><path d="M53.08008-3.32227q0 .82032-.23438 1.47657-.22851.65625-.6211 1.10156-.416.46289-.91405.69727-.49805.22851-1.0957.22851-.55665 0-.97266-.13476-.41602-.12891-.82031-.35157L48.35155 0h-1.03125v-9.11719h1.10157v3.25782q.46289-.38086.98437-.6211.52148-.2461 1.17188-.2461 1.16015 0 1.82812.89063.67383.89063.67383 2.51367zm-1.13672.0293q0-1.17187-.38672-1.77539-.38672-.60937-1.24805-.60937-.48047 0-.97265.21093-.49219.20508-.91406.5332v3.75q.46874.21094.80273.29298.33984.08203.76758.08203.91406 0 1.42969-.59766.52148-.60352.52148-1.88672z"/><path d="M59.88281 0h-1.0957v-.69727q-.14648.09961-.39844.28125-.2461.17579-.48047.28125Q57.63281 0 57.2754.0879q-.35743.09375-.8379.09375-.88477 0-1.5-.58594-.61523-.58593-.61523-1.49414 0-.74414.3164-1.20117.32227-.46289.91406-.72656.59766-.26367 1.43555-.35742.8379-.09375 1.79883-.14063v-.16992q0-.375-.13477-.6211-.1289-.24609-.375-.38671-.23437-.13477-.5625-.18164-.32812-.04688-.68554-.04688-.4336 0-.9668.11719-.5332.11133-1.10156.32812h-.0586V-6.4043q.32227-.08789.93165-.19336.60937-.10547 1.20117-.10547.6914 0 1.20117.1172.51563.11132.89063.38671.36914.26953.5625.69727.19336.42773.19336 1.06054zm-1.0957-1.61133v-1.82226q-.5039.0293-1.18945.08789-.6797.0586-1.07813.16992-.4746.13476-.76758.42187-.29297.28125-.29297.7793 0 .5625.33985.84961.33984.28125 1.0371.28125.58009 0 1.06055-.22266.48047-.22851.89063-.54492z"/><path d="M63.11719 0h-1.10156v-9.11719h1.10156z"/><path d="M75.35156 0h-5.74804v-8.7246h5.74804v1.03124h-4.58789v2.39063h4.5879v1.03125h-4.5879v3.24023h4.5879z"/><path d="M82.57617 0h-1.10156v-3.72656q0-.45117-.05273-.84375-.05274-.39844-.19336-.6211-.14649-.24609-.42188-.36328-.27539-.12304-.71484-.12304-.45118 0-.94336.22265-.49219.22266-.94336.56836V0h-1.10156v-6.54492h1.10156v.72656q.51562-.42773 1.0664-.66797.55079-.24023 1.13086-.24023 1.06055 0 1.6172.63867.55663.63867.55663 1.83984z"/><path d="M90.24023-6.54492L87.5918 0h-1.10743l-2.63085-6.54492h1.1953l2.02735 5.20898 2.00977-5.20898z"/><path d="M92.86523-7.64063h-1.24218V-8.7832h1.24218zM92.79493 0h-1.10157v-6.54492h1.10156z"/><path d="M99.0586-5.34375H99q-.2461-.0586-.48047-.08203-.22851-.0293-.54492-.0293-.50977 0-.98438.22852-.4746.22265-.91406.58008V0h-1.10156v-6.54492h1.10156v.9668q.65625-.52735 1.1543-.74415.5039-.22265 1.02539-.22265.2871 0 .41602.01758.1289.01172.38671.05273z"/><path d="M105.67383-3.26953q0 1.5996-.82031 2.52539-.82032.92578-2.19727.92578-1.38867 0-2.20898-.92578-.81446-.92578-.81446-2.5254 0-1.5996.81446-2.52538.82031-.93164 2.20898-.93164 1.37695 0 2.19727.93164.82031.92578.82031 2.52539zm-1.13672 0q0-1.27149-.49805-1.88672-.49804-.6211-1.38281-.6211-.89648 0-1.39453.6211-.49219.61523-.49219 1.88672 0 1.23047.49805 1.86914.49805.63281 1.38867.63281.87891 0 1.37695-.62695.50391-.63281.50391-1.875z"/><path d="M112.85156 0H111.75v-3.72656q0-.45117-.0527-.84375-.0527-.39844-.19336-.6211-.14649-.24609-.42188-.36328-.27539-.12304-.71484-.12304-.45117 0-.94336.22265-.49219.22266-.94336.56836V0h-1.10156v-6.54492h1.10156v.72656q.51562-.42773 1.06641-.66797.55078-.24023 1.13085-.24023 1.06055 0 1.61719.63867.55664.63867.55664 1.83984z"/><path d="M124.52344 0h-1.10156v-3.72656q0-.42188-.041-.81446-.0352-.39257-.1582-.62695-.13477-.25195-.38672-.38086-.25196-.1289-.72656-.1289-.4629 0-.92579.23437-.46289.22852-.92578.58594.0176.13476.0293.3164.0117.17579.0117.35157V0h-1.10156v-3.72656q0-.4336-.041-.82031-.0352-.39258-.1582-.62696-.13477-.25195-.38672-.375-.25195-.1289-.72656-.1289-.45118 0-.90821.22265-.45117.22266-.90234.56836V0h-1.10156v-6.54492h1.10156v.72656q.51562-.42773 1.02539-.66797.51562-.24023 1.0957-.24023.66797 0 1.13086.28125.46875.28125.69727.7793.66797-.5625 1.21875-.8086.55078-.25195 1.17773-.25195 1.07813 0 1.58789.65625.51563.65039.51563 1.82226z"/><path d="M132.12305-3.1582h-4.82227q0 .60351.18164 1.05468.18164.44532.49805.73243.30469.28125.7207.42187.42188.14063.92578.14063.66797 0 1.3418-.26368.67969-.26953.9668-.52734h.0586v1.20117q-.55664.23438-1.13672.39258-.58008.1582-1.21875.1582-1.6289 0-2.54297-.8789-.91406-.88477-.91406-2.50782 0-1.60546.87305-2.54882.8789-.94336 2.30859-.94336 1.32422 0 2.03906.77344.72071.77343.72071 2.19726zm-1.07227-.84375q-.006-.8672-.43945-1.3418-.42774-.4746-1.30664-.4746-.88477 0-1.41211.52147-.52149.52149-.5918 1.29493z"/><path d="M139.26562 0h-1.10156v-3.72656q0-.45117-.0527-.84375-.0527-.39844-.19336-.6211-.14649-.24609-.42188-.36328-.27539-.12304-.71484-.12304-.45117 0-.94336.22265-.49219.22266-.94336.56836V0H133.793v-6.54492h1.10156v.72656q.51563-.42773 1.06641-.66797.55078-.24023 1.13086-.24023 1.06054 0 1.61718.63867t.55664 1.83984z"/><path d="M144.78516-.0586q-.31055.08204-.67969.13477-.36328.05274-.65039.05274-1.00196 0-1.52344-.53907-.52148-.53906-.52148-1.72851v-3.48047h-.74414v-.92578h.74414v-1.88086h1.10156v1.88086h2.27344v.92578h-2.27344v2.98242q0 .51563.0234.8086.0234.2871.16406.53906.1289.23437.35156.3457.22852.10547.69141.10547.26953 0 .5625-.07617.29297-.08203.42187-.13477h.0586z"/><path d="M151.20117 0h-1.0957v-.69727q-.14649.09961-.39844.28125-.24609.17579-.48047.28125-.27539.13477-.63281.22266-.35742.09375-.83789.09375-.88477 0-1.5-.58594-.61524-.58593-.61524-1.49414 0-.74414.31641-1.20117.32227-.46289.91406-.72656.59766-.26367 1.43555-.35742.83789-.09375 1.79883-.14063v-.16992q0-.375-.13477-.6211-.1289-.24609-.375-.38671-.23437-.13477-.5625-.18164-.32812-.04688-.68554-.04688-.4336 0-.9668.11719-.5332.11133-1.10156.32812h-.0586V-6.4043q.32227-.08789.93164-.19336.60938-.10547 1.20118-.10547.6914 0 1.20117.1172.51562.11132.89062.38671.36914.26953.5625.69727.19336.42773.19336 1.06054zm-1.0957-1.61133v-1.82226q-.50391.0293-1.18945.08789-.67969.0586-1.07813.16992-.47461.13476-.76758.42187-.29297.28125-.29297.7793 0 .5625.33985.84961.33984.28125 1.03711.28125.58007 0 1.06054-.22266.48047-.22851.89063-.54492z"/><path d="M154.43555 0h-1.10157v-9.11719h1.10157z"/><path d="M168.69141 0h-1.16016v-7.51758l-2.42578 5.11524h-.69141l-2.4082-5.11524V0h-1.08399v-8.7246h1.58204l2.32617 4.85741 2.25-4.85742h1.61133z"/><path d="M176.37305 0h-1.10157v-.72656q-.55664.43945-1.0664.67383-.50977.23437-1.125.23437-1.03125 0-1.60547-.62695-.57422-.63282-.57422-1.85157v-4.24804h1.10156v3.72656q0 .49805.0469.85547.0469.35156.19922.60351.1582.25782.41015.375.25196.1172.73242.1172.42774 0 .93165-.22266.50976-.22266.94921-.56836v-4.88672h1.10157z"/><path d="M179.6543 0h-1.10157v-9.11719h1.10157z"/><path d="M185.23242-.0586q-.31055.08204-.67969.13477-.36328.05274-.65039.05274-1.00195 0-1.52343-.53907-.52149-.53906-.52149-1.72851v-3.48047h-.74414v-.92578h.74414v-1.88086h1.10156v1.88086h2.27344v.92578h-2.27344v2.98242q0 .51563.0234.8086.0234.2871.16406.53906.12891.23437.35157.3457.22851.10547.6914.10547.26953 0 .5625-.07617.29297-.08203.42188-.13477h.0586z"/><path d="M187.74609-7.64063h-1.24218V-8.7832h1.24218zM187.67578 0h-1.10156v-6.54492h1.10156z"/><path d="M194.53125-1.88672q0 .89649-.74414 1.4707-.73828.57422-2.02149.57422-.72656 0-1.33593-.16992-.60352-.17578-1.01367-.38086V-1.6289h.0586q.52148.39258 1.16016.62696.63867.22851 1.2246.22851.72657 0 1.13672-.23437.41016-.23438.41016-.73828 0-.38672-.22266-.58594-.22265-.19922-.85547-.33984-.23437-.05274-.61523-.12305-.375-.07031-.68555-.15235-.86132-.22851-1.22461-.66796-.35742-.44532-.35742-1.08985 0-.4043.16406-.76172.16993-.35742.50977-.63867.32813-.27539.83203-.4336.50977-.16405 1.13672-.16405.58594 0 1.18359.14648.60352.14062 1.00196.3457v1.17774h-.0586q-.42187-.31055-1.02539-.52149-.60351-.2168-1.18359-.2168-.60352 0-1.01953.23438-.41602.22852-.41602.68555 0 .4043.25196.60937.24609.20508.79687.33399.30469.0703.67969.14062.38086.07031.63281.1289.76758.17579 1.18359.60352.41602.4336.41602 1.14844z"/><path d="M200.94727-.41016q-.55079.26368-1.04883.41016-.49219.14648-1.04883.14648-.70899 0-1.30078-.20507-.5918-.21094-1.01367-.63282-.42774-.42187-.66211-1.0664-.23438-.64453-.23438-1.50586 0-1.60547.87891-2.51953.88476-.91407 2.33203-.91407.5625 0 1.10156.1582.54492.15821.9961.38673v1.2246h-.0586q-.5039-.39257-1.04297-.60351-.5332-.21094-1.04297-.21094-.9375 0-1.48242.63281-.53906.62696-.53906 1.8457 0 1.1836.52734 1.82227.53321.63282 1.49414.63282.33399 0 .67969-.0879.3457-.08788.6211-.22851.24023-.12305.45117-.25781.21093-.14063.33398-.24024h.0586z"/><path d="M207.44531 0h-1.0957v-.69727q-.14649.09961-.39844.28125-.24609.17579-.48047.28125-.27539.13477-.63281.22266-.35742.09375-.83789.09375-.88477 0-1.5-.58594-.61523-.58593-.61523-1.49414 0-.74414.3164-1.20117.32227-.46289.91406-.72656.59766-.26367 1.43555-.35742.83789-.09375 1.79883-.14063v-.16992q0-.375-.13477-.6211-.1289-.24609-.375-.38671-.23437-.13477-.5625-.18164-.32812-.04688-.68554-.04688-.4336 0-.9668.11719-.5332.11133-1.10156.32812h-.0586V-6.4043q.32227-.08789.93164-.19336.60938-.10547 1.20118-.10547.6914 0 1.20117.1172.51562.11132.89062.38671.36914.26953.5625.69727.19336.42773.19336 1.06054zm-1.0957-1.61133v-1.82226q-.50391.0293-1.18945.08789-.67969.0586-1.07813.16992-.47461.13476-.76758.42187-.29297.28125-.29297.7793 0 .5625.33985.84961.33984.28125 1.03711.28125.58008 0 1.06054-.22266.48047-.22851.89063-.54492z"/><path d="M210.67969 0h-1.10157v-9.11719h1.10157z"/><path d="M218.33789-3.1582h-4.82227q0 .60351.18165 1.05468.18164.44532.49804.73243.30469.28125.72071.42187.42187.14063.92578.14063.66797 0 1.34179-.26368.67969-.26953.9668-.52734h.0586v1.20117q-.55664.23438-1.13671.39258-.58008.1582-1.21875.1582-1.62891 0-2.54297-.8789-.91407-.88477-.91407-2.50782 0-1.60546.87305-2.54882.87891-.94336 2.30859-.94336 1.32422 0 2.03907.77344.7207.77343.7207 2.19726zm-1.07227-.84375q-.006-.8672-.43945-1.3418-.42773-.4746-1.30664-.4746-.88476 0-1.41211.52147-.52148.52149-.5918 1.29493z"/><path d="M232.08398 0h-1.16015v-7.51758l-2.42578 5.11524h-.69141l-2.4082-5.11524V0h-1.08399v-8.7246h1.58203l2.32618 4.85741 2.25-4.85742h1.61132z"/><path d="M239.91797-3.26953q0 1.5996-.82031 2.52539-.82032.92578-2.19727.92578-1.38867 0-2.20898-.92578-.81446-.92578-.81446-2.5254 0-1.5996.81446-2.52538.82031-.93164 2.20898-.93164 1.37695 0 2.19727.93164.82031.92578.82031 2.52539zm-1.13672 0q0-1.27149-.49805-1.88672-.49804-.6211-1.38281-.6211-.89648 0-1.39453.6211-.49219.61523-.49219 1.88672 0 1.23047.49805 1.86914.49805.63281 1.38867.63281.87891 0 1.37695-.62695.50391-.63281.50391-1.875z"/><path d="M246.93164 0h-1.10156v-.68555q-.47461.41016-.99024.63867-.51562.22852-1.11914.22852-1.17187 0-1.86328-.90234-.68555-.90235-.68555-2.50196 0-.83203.23438-1.48242.24023-.65039.64453-1.10742.39844-.44531.92578-.67969.53321-.23437 1.10156-.23437.51563 0 .91407.11133.39843.10546.83789.33398v-2.83594h1.10156zm-1.10156-1.61133v-3.75586q-.44531-.19922-.79688-.27539-.35156-.07617-.76758-.07617-.92578 0-1.4414.64453-.51563.64453-.51563 1.82813 0 1.16601.39844 1.77539.39844.60351 1.27734.60351.46875 0 .94922-.20508.48047-.21093.89649-.53906z"/><path d="M254.57812-3.1582h-4.82226q0 .60351.18164 1.05468.18164.44532.49805.73243.30468.28125.7207.42187.42187.14063.92578.14063.66797 0 1.3418-.26368.67969-.26953.96679-.52734h.0586v1.20117q-.55664.23438-1.13672.39258-.58008.1582-1.21875.1582-1.62891 0-2.54297-.8789-.91406-.88477-.91406-2.50782 0-1.60546.87305-2.54882.8789-.94336 2.30859-.94336 1.32422 0 2.03906.77344.7207.77343.7207 2.19726zm-1.07226-.84375q-.006-.8672-.43945-1.3418-.42774-.4746-1.30664-.4746-.88477 0-1.41211.52147-.52149.52149-.5918 1.29493z"/><path d="M257.36133 0h-1.10156v-9.11719h1.10156z"/></g></svg>