<svg xmlns="http://www.w3.org/2000/svg" role="img" viewBox="-1.74 -1.74 870.48 200.48"><title>The Catalogue of Life logo</title><defs><clipPath clipPathUnits="userSpaceOnUse"><path d="M0 150h650V0H0z"/></clipPath><clipPath id="a" clipPathUnits="userSpaceOnUse"><path d="M11.05 13.279h156.933v34.065H11.05z"/></clipPath><clipPath id="b" clipPathUnits="userSpaceOnUse"><path d="M168.197 13.273h157.041v33.891H168.197z"/></clipPath><clipPath id="c" clipPathUnits="userSpaceOnUse"><path d="M325.658 13.154h156.448v33.914H325.658z"/></clipPath><clipPath id="d" clipPathUnits="userSpaceOnUse"><path d="M482.176 13.313h156.768v33.845H482.176z"/></clipPath></defs><path d="M78.19631 87.02996c-3.79734 1.78-9.96803 2.96668-15.90138 2.96668-17.56271 0-27.88674-11.27337-27.88674-28.83608 0-19.22406 11.74803-29.42942 28.00541-29.42942 6.64535 0 11.8667 1.424 15.66404 3.08534l3.20401-11.62936c-2.96667-1.54267-9.84936-3.56001-19.46139-3.56001-24.4454 0-42.72012 15.90138-42.72012 42.24545 0 24.32673 15.42671 40.34678 40.82145 40.34678 9.61203 0 17.20672-1.89867 20.64806-3.67868zm56.4141-20.88539c0-12.5787-5.34001-24.32673-23.85206-24.32673-9.13736 0-16.61338 2.492-20.8854 5.10268l2.84801 9.49336c3.91601-2.49201 9.84936-4.27201 15.54538-4.27201 10.20536 0 11.74803 6.28935 11.74803 10.08669v.94934c-21.36006-.11867-34.29476 7.23868-34.29476 21.83472 0 8.78136 6.52668 17.20672 18.15605 17.20672 7.47602 0 13.52804-3.20401 17.08805-7.71336h.356l.94933 6.40802h13.17204c-.59333-3.56-.83067-8.66269-.83067-13.88404zm-14.24004 14.47737c0 .94934-.11866 2.13601-.47467 3.20401-1.30533 4.15335-5.57734 7.9507-11.39203 7.9507-4.62801 0-8.30669-2.61068-8.30669-8.3067 0-8.78136 9.84936-11.03603 20.17339-10.7987zm28.75285-48.1788v10.68003h-8.30669v10.91737h8.30669v27.17474c0 7.59469 1.42401 12.81603 4.50935 16.13871 2.72934 2.96668 7.23869 4.86535 12.5787 4.86535 4.62801 0 8.42536-.712 10.56136-1.54267l-.23733-11.1547c-1.66134.47467-2.96667.712-5.69602.712-5.57734 0-7.47602-3.67868-7.47602-10.68003v-25.5134h13.88404V43.12317h-13.88404V28.2898zm82.23613 33.70143c0-12.5787-5.34001-24.32673-23.85207-24.32673-9.13735 0-16.61338 2.492-20.88539 5.10268l2.84801 9.49336c3.91601-2.49201 9.84936-4.27201 15.54538-4.27201 10.20536 0 11.74803 6.28935 11.74803 10.08669v.94934c-21.36006-.11867-34.29476 7.23868-34.29476 21.83472 0 8.78136 6.52668 17.20672 18.15605 17.20672 7.47602 0 13.52804-3.20401 17.08805-7.71336h.356l.94933 6.40802h13.17204c-.59333-3.56-.83067-8.66269-.83067-13.88404zm-14.24004 14.47737c0 .94934-.11867 2.13601-.47467 3.20401-1.30533 4.15335-5.57735 7.9507-11.39203 7.9507-4.62801 0-8.30669-2.61068-8.30669-8.3067 0-8.78136 9.84936-11.03603 20.17339-10.7987zm26.80671 20.29206h14.7147V16.66043h-14.7147zm54.1358-59.09616c-17.44405 0-29.90408 11.62936-29.90408 30.61608 0 18.51205 12.5787 29.78542 28.95475 29.78542 14.71471 0 29.66675-9.49336 29.66675-30.73475 0-17.56272-11.5107-29.66675-28.71742-29.66675zm-.356 10.68003c9.96803 0 14.00271 10.32403 14.00271 19.34272 0 11.62936-5.81468 19.81738-14.12137 19.81738-8.90003 0-14.35871-8.42535-14.35871-19.58005 0-9.61203 4.15334-19.58005 14.47737-19.58005zm91.49207 7.23868c0-7.95069.23733-12.69737.47467-16.61338h-12.69737l-.59334 7.71336h-.23733c-2.72934-4.74668-7.95069-9.0187-16.73205-9.0187-13.88404 0-26.2254 11.5107-26.2254 30.49742 0 16.37605 10.20536 28.24275 24.56407 28.24275 7.59468 0 13.52803-3.44134 16.85071-8.54402h.23733v4.98401c0 12.46004-7.12002 17.44405-16.61338 17.44405-7.00135 0-13.17203-2.25467-16.85071-4.39068l-3.20401 11.03603c4.98401 3.08534 12.81604 4.62801 20.17339 4.62801 7.95069 0 16.25738-1.66133 22.3094-7.00135 6.05201-5.45868 8.54402-14.12137 8.54402-26.2254zm-14.59604 15.90138c0 1.66134-.23733 3.67868-.59334 5.22135-1.66133 5.22135-6.40801 8.78136-11.8667 8.78136-9.13735 0-14.12137-7.9507-14.12137-17.80005 0-11.74804 6.05202-18.86806 14.24004-18.86806 6.17069 0 10.32403 4.03468 11.8667 9.3747.356 1.18667.47467 2.61067.47467 3.916zm79.05578-32.51476h-14.59605v34.8881c0 1.66134-.356 3.204-.83066 4.50935-1.54268 3.67867-5.34002 7.83202-11.1547 7.83202-7.71336 0-10.7987-6.17069-10.7987-15.78271V43.12317h-14.59604v33.93876c0 18.86806 9.61203 25.15741 20.17339 25.15741 10.32403 0 16.02004-5.93335 18.51205-10.0867h.23734l.712 8.78136h12.81603c-.23733-4.74668-.47466-10.4427-.47466-17.32538zm62.29998 32.98943c.23734-1.30534.47467-3.44134.47467-6.17068 0-12.69737-6.05202-28.12408-24.92007-28.12408-18.51205 0-28.24275 15.0707-28.24275 31.09075 0 17.68138 11.03604 29.31075 29.78542 29.31075 8.30669 0 15.18938-1.66134 20.17339-3.67868l-2.136-10.0867c-4.39068 1.66134-9.25603 2.61068-16.02005 2.61068-9.25603 0-17.44405-4.50935-17.80005-14.95204zm-38.68544-10.20536c.59334-5.93335 4.39068-14.12138 13.40937-14.12138 9.7307 0 12.10404 8.78136 11.98537 14.12138zm101.69737-24.0894c-17.44405 0-29.90409 11.62936-29.90409 30.61608 0 18.51205 12.57871 29.78542 28.95475 29.78542 14.71471 0 29.66675-9.49336 29.66675-30.73475 0-17.56272-11.5107-29.66675-28.71741-29.66675zm-.356 10.68003c9.96803 0 14.0027 10.32403 14.0027 19.34272 0 11.62936-5.81468 19.81738-14.12137 19.81738-8.90002 0-14.35871-8.42535-14.35871-19.58005 0-9.61203 4.15335-19.58005 14.47738-19.58005zm54.82401 48.41613V54.04054h12.5787V43.12317h-12.69737V40.1565c0-7.12002 2.49201-13.17204 9.73069-13.17204 2.61068 0 4.62802.47467 6.17069 1.068l1.068-11.27336c-2.37334-.83067-5.45868-1.424-9.37469-1.424-4.98402 0-10.7987 1.54267-15.07071 5.57734-4.98402 4.74668-7.00136 12.2227-7.00136 19.69873v2.492h-7.83202v10.91737h7.83202V100.914zm46.75459 0h47.4668V88.6913h-32.87076V20.93244h-14.59604zm69.77604 0V43.12317h-14.71471V100.914zm-7.35736-81.88023c-4.86534 0-8.18802 3.44134-8.18802 7.9507 0 4.39067 3.20401 7.83201 8.06936 7.83201 5.10268 0 8.30669-3.44134 8.30669-7.83202-.11867-4.50935-3.20401-7.95069-8.18803-7.95069zm37.02405 81.88023V54.04054h12.5787V43.12317h-12.69736V40.1565c0-7.12002 2.492-13.17204 9.73069-13.17204 2.61067 0 4.62801.47467 6.17068 1.068l1.06801-11.27336c-2.37334-.83067-5.45869-1.424-9.3747-1.424-4.98401 0-10.79869 1.54267-15.07071 5.57734-4.98401 4.74668-7.00135 12.2227-7.00135 19.69873v2.492h-7.83202v10.91737h7.83202V100.914zm67.99605-24.8014c.23734-1.30534.47467-3.44134.47467-6.17068 0-12.69737-6.05202-28.12408-24.92007-28.12408-18.51205 0-28.24275 15.0707-28.24275 31.09075 0 17.68138 11.03603 29.31075 29.78542 29.31075 8.30669 0 15.18938-1.66134 20.17339-3.67868l-2.13601-10.0867c-4.39067 1.66134-9.25602 2.61068-16.02004 2.61068-9.25603 0-17.44405-4.50935-17.80005-14.95204zm-38.68544-10.20536c.59333-5.93335 4.39068-14.12138 13.40937-14.12138 9.73069 0 12.10403 8.78136 11.98537 14.12138z" fill="#58595b" fill-opacity="1" fill-rule="nonzero" stroke="none"/><path fill="#1782b0" d="M224.38666 182.396h-209.244v-45.528h209.244z"/><path fill="#f4ed86" d="M433.63732 182.37467H224.38799v-45.472h209.24933z"/><path fill="#29b264" d="M852.11998 182.396H642.87332v-45.41733h209.24666z"/><path fill="#e53443" d="M642.87332 182.37467H433.63599v-45.41734h209.23733z"/><g fill="#00aeef" stroke-miterlimit="10" stroke-width=".1" clip-path="url(#a)" transform="matrix(1.33333 0 0 -1.33333 0 200)"><path d="M73.788 9.08c0-4.393-3.56-7.958-7.955-7.958-4.393 0-7.963 3.565-7.963 7.958 0 4.394 3.57 7.959 7.963 7.959 4.395 0 7.955-3.565 7.955-7.959"/><path d="M92.889 10.797c0-4.399-3.561-7.959-7.955-7.959-4.398 0-7.958 3.56-7.958 7.959 0 4.395 3.56 7.955 7.958 7.955 4.394 0 7.955-3.56 7.955-7.955"/><path d="M34.671 35.328c0-3.08-2.227-5.566-4.971-5.566-2.748 0-4.97 2.486-4.97 5.566 0 3.076 2.222 5.567 4.97 5.567 2.744 0 4.971-2.491 4.971-5.567"/><path d="M150.093 41.295c0-3.301-2.314-5.967-5.169-5.967-2.851 0-5.17 2.666-5.17 5.967 0 3.294 2.319 5.965 5.17 5.965 2.855 0 5.169-2.671 5.169-5.965"/><path fill="#28aae1" d="M107.866 32.139c0-4.393-3.561-7.953-7.948-7.953-4.404 0-7.96 3.56-7.96 7.953 0 4.398 3.556 7.959 7.96 7.959 4.387 0 7.948-3.561 7.948-7.959"/><path d="M120.198 29.762c0-4.4-3.555-7.961-7.953-7.961-4.395 0-7.955 3.561-7.955 7.961 0 4.391 3.56 7.951 7.955 7.951 4.398 0 7.953-3.56 7.953-7.951"/><path d="M130.548 22.867c0-4.392-3.566-7.952-7.954-7.952-4.399 0-7.964 3.56-7.964 7.952 0 4.399 3.565 7.96 7.964 7.96 4.388 0 7.954-3.561 7.954-7.96"/><path d="M142.481 14.915c0-4.394-3.565-7.96-7.953-7.96-4.399 0-7.96 3.566-7.96 7.96 0 4.392 3.561 7.952 7.96 7.952 4.388 0 7.953-3.56 7.953-7.952"/><path fill="none" stroke="#005b7f" d="M142.481 14.915c0-4.394-3.565-7.96-7.953-7.96-4.399 0-7.96 3.566-7.96 7.96 0 4.392 3.561 7.952 7.96 7.952 4.388 0 7.953-3.56 7.953-7.952z"/><path d="M96.332 32.139c0-4.393-3.56-7.953-7.955-7.953-4.398 0-7.958 3.56-7.958 7.953 0 4.398 3.56 7.959 7.958 7.959 4.395 0 7.955-3.561 7.955-7.959"/><path fill="#0083b4" d="M101.291 25.57c0-4.4-3.565-7.96-7.964-7.96-4.388 0-7.954 3.56-7.954 7.96 0 4.395 3.566 7.955 7.954 7.955 4.399 0 7.964-3.56 7.964-7.955"/><path d="M84.398 30.024c0-4.392-3.561-7.952-7.955-7.952-4.393 0-7.959 3.56-7.959 7.952 0 4.397 3.566 7.96 7.959 7.96 4.394 0 7.955-3.563 7.955-7.96"/><path d="M61.328 16.63c0-4.395-3.565-7.961-7.958-7.961-4.395 0-7.96 3.566-7.96 7.961 0 4.394 3.565 7.954 7.96 7.954 4.393 0 7.958-3.56 7.958-7.954"/><path d="M52.178 9.468c0-4.395-3.565-7.96-7.958-7.96-4.394 0-7.954 3.565-7.954 7.96s3.56 7.96 7.954 7.96c4.393 0 7.958-3.565 7.958-7.96"/><path d="M95.54 23.66c0-4.393-3.565-7.953-7.953-7.953-4.399 0-7.96 3.56-7.96 7.953 0 4.391 3.561 7.957 7.96 7.957 4.388 0 7.953-3.566 7.953-7.957"/><path fill="none" stroke="#005b7f" d="M95.54 23.66c0-4.393-3.565-7.953-7.953-7.953-4.399 0-7.96 3.56-7.96 7.953 0 4.391 3.561 7.957 7.96 7.957 4.388 0 7.953-3.566 7.953-7.957z"/><path d="M107.876 23.133c0-4.396-3.565-7.957-7.953-7.957-4.399 0-7.955 3.561-7.955 7.957 0 4.393 3.556 7.955 7.955 7.955 4.388 0 7.953-3.562 7.953-7.955"/><path fill="none" stroke="#005b7f" d="M107.876 23.133c0-4.396-3.565-7.957-7.953-7.957-4.399 0-7.955 3.561-7.955 7.957 0 4.393 3.556 7.955 7.955 7.955 4.388 0 7.953-3.562 7.953-7.955z"/><path fill="#0083b4" d="M119.147 15.713c0-4.4-3.567-7.96-7.96-7.96-4.398 0-7.953 3.56-7.953 7.96 0 4.392 3.555 7.951 7.953 7.951 4.393 0 7.96-3.559 7.96-7.951"/><path fill="#0083b4" d="M129.752 11.203c0-4.396-3.562-7.957-7.955-7.957-4.398 0-7.963 3.561-7.963 7.957 0 4.395 3.565 7.955 7.963 7.955 4.393 0 7.955-3.56 7.955-7.955"/><path d="M117.021 11.203c0-4.396-3.56-7.957-7.958-7.957-4.395 0-7.96 3.561-7.96 7.957 0 4.395 3.565 7.955 7.96 7.955 4.398 0 7.958-3.56 7.958-7.955"/><path d="M129.705 11.426c0-4.397-3.561-7.961-7.948-7.961-4.399 0-7.96 3.564-7.96 7.961 0 4.391 3.561 7.951 7.96 7.951 4.387 0 7.948-3.56 7.948-7.951"/><path fill="none" stroke="#005b7f" d="M129.705 11.426c0-4.397-3.561-7.961-7.948-7.961-4.399 0-7.96 3.564-7.96 7.961 0 4.391 3.561 7.951 7.96 7.951 4.387 0 7.948-3.56 7.948-7.951z"/><path fill="#0083b4" d="M83.6 16.497c0-4.392-3.555-7.952-7.953-7.952-4.393 0-7.955 3.56-7.955 7.952 0 4.397 3.562 7.96 7.955 7.96 4.398 0 7.953-3.563 7.953-7.96"/><path d="M104.29 11.133c0-4.391-3.56-7.951-7.958-7.951-4.388 0-7.955 3.56-7.955 7.951 0 4.397 3.567 7.961 7.955 7.961 4.398 0 7.958-3.564 7.958-7.961"/><path d="M72.465 22.995c0-4.395-3.562-7.96-7.955-7.96-4.393 0-7.958 3.565-7.958 7.96 0 4.394 3.565 7.954 7.958 7.954 4.393 0 7.955-3.56 7.955-7.954"/><path fill="none" stroke="#005b7f" d="M72.465 22.995c0-4.395-3.562-7.96-7.955-7.96-4.393 0-7.958 3.565-7.958 7.96 0 4.394 3.565 7.954 7.958 7.954 4.393 0 7.955-3.56 7.955-7.954z"/></g><g transform="matrix(1.33333 0 0 -1.33333 0 200)"><g fill="#ccbd39" fill-opacity="1" fill-rule="nonzero" stroke="none" clip-path="url(#b)"><path d="M244.1 26.373s-50.313 38.521-61.323 27.398c-8.531-8.64-15.632-33.713-14.314-45.392.992-8.894 6.513-26.961 10.632-35.229 2.017-4.049 9.517-15.539 9.517-15.539s5.281-6.381 8.03-6.646c11.586-1.134 36.036 24.349 36.036 24.349z"/><path d="M255.43 28.242s63.76 21.21 69.195 7.598c4.221-10.557-.092-36.088-6.396-46.608-4.812-8-17.834-23.264-25.276-29.765-3.648-3.185-15.653-11.713-15.653-11.713s-7.719-4.41-10.416-3.863c-11.3 2.34-24.556 35.564-24.556 35.564z"/><path fill="#f4ed86" d="M242.087 20.68s-37.005 17.819-50.875 21.841c-2.11.605-5.625-6.086-3.541-6.745 15.857-4.954 54.416-15.096 54.416-15.096"/><path fill="#f4ed86" d="M239.144 18.741s-42.891-.339-57.327-2.755c-2.176-.362 1.298-11.069 3.464-10.646 17.369 3.414 53.863 13.401 53.863 13.401"/><path fill="#f4ed86" d="M249.689 18.44s41.379 9.263 56.071 10.164c2.213.139 3.493-7.078 1.252-7.258-16.873-1.394-57.323-2.906-57.323-2.906"/><path fill="#f4ed86" d="M251.252 17.595s41.292-9.517 54.431-14.94c2.007-.829-4.761-10.428-6.727-9.544-15.669 7.029-47.704 24.484-47.704 24.484"/><path d="M253.652 35.89c-9.772 1.236-9.788-4.019-11.811-8.512-6.088-13.594-12.955-42.395-13.037-57.308-.01-2.63-1.261-14.497 1.783-15.355 3.02-.837 3.296 3.49 4.645 5.779 9.389 15.862 19.636 53.54 20.623 66.097.25 3.213 1.685 8.807-2.203 9.299"/><path d="M248.442 23.633s2.278 4.314 1.956 17.682c-.623 25.522-6.84 26.74-6.84 26.74s3.903-12.512 4.557-22.429c.362-5.481.327-21.993.327-21.993"/><path d="M251.154 27.996s-1.139 4.758 2.498 17.614c6.928 24.558 13.252 24.154 13.252 24.154s-6.886-11.122-9.982-20.551c-1.706-5.221-5.768-21.217-5.768-21.217"/></g></g><g transform="matrix(1.33333 0 0 -1.33333 0 200)"><g fill="#f7a2a5" fill-opacity="1" fill-rule="nonzero" stroke="none" clip-path="url(#c)"><path d="M410.912 31.088s-36.072.492-50.92-2.969c-8.659-2.011-5.972-23.285-8.964-23.389-2.189-.083-9.899 22.071 1.887 28.004 21.011 10.575 63.179 6.258 63.179 6.258z"/><path d="M426.15 16.92s-34.952 1.946-45.268-1.324c-8.504-2.69-17.815-15.464-25.769-18.887-4.61-1.993-21.37-2.64-21.37-2.64l19.486 7.908 23.254 17.14 38.35 3.951z"/><path d="M417.98 39.485s-14.58 7.608-20.051 9.396c-6.612 2.164-20.733 5.912-28.047 5.765-5.939-.119-17.296-3.455-22.388-5.603-3.149-1.319-6.866-3.493-8.953-5.602-2.129-2.139-2.396-9.721-1.885-8.071 1.408 4.613 11.549 8.893 11.549 8.893s8.742 3.763 11.787 4.287c2.941.503 8.983 1.278 12.017 1.155 6.803-.277 20.32-3.633 26.632-5.442 4.626-1.319 16.978-7.413 16.978-7.413z"/><path d="M411.848 27.134c-4.868.985-43.221.651-51.855-.333-6.051-.688-16.502-5.211-22.632-5.271-3.279-.031-10.368 5.169-12.254 3.294-1.976-1.957 5.788-6.328 8.954-7.25 7.741-2.247 21.346 2.424 29.686 2.971 11.871.772 52.97 2.524 52.97 2.524s-3.303 3.748-4.869 4.065"/><path d="M418.611 19.992s5.65-5.494 3.77-8.346c-2.957-4.474-20.999-7.133-26.09-3.737-2.284 1.522.367 9.419-.95 11.424-3.451 5.272-15.328 2.389-20.746 1.096-6.568-1.568-25.441-16.132-19.168-14.052 5.979 1.97 10.95 6.781 16.348 8.345 3.82 1.105 14.014 4.626 17.285 2.852 3.594-1.953-.907-10.629 2.513-12.74 6.703-4.137 31.378-2.466 35.515 3.075 3.776 5.054 3.145 8.349 3.145 8.349z"/><path fill="#f37779" d="M452.557 30.209c0-8.434-9.572-15.268-21.377-15.268s-21.367 6.834-21.367 15.268c0 8.43 9.562 15.266 21.367 15.266 11.805 0 21.377-6.836 21.377-15.266"/><path d="M445.827 30.648c0-5.641-5.572-10.218-12.438-10.218-6.875 0-12.437 4.577-12.437 10.218 0 5.64 5.562 10.212 12.437 10.212 6.866 0 12.438-4.572 12.438-10.212"/><path fill="#f37779" d="M485.6 40.424s-44.042 10.832-38.981 4.392c5.195-6.595 5.667-9.56-1.881-28.999-2.143-5.515 37.432-4.577 37.432-4.577z"/><path fill="#fbd9e3" d="M441.912 31.82c0-3.535-3.31-6.406-7.391-6.406-4.077 0-7.386 2.871-7.386 6.406 0 3.534 3.309 6.406 7.386 6.406 4.081 0 7.391-2.872 7.391-6.406"/><path fill="#f37779" d="M439.082 32.954c0-2.421-2.116-4.387-4.733-4.387-2.62 0-4.739 1.966-4.739 4.387 0 2.427 2.119 4.392 4.739 4.392 2.617 0 4.733-1.965 4.733-4.392"/></g></g><g transform="matrix(1.33333 0 0 -1.33333 0 200)"><g fill="#a0d5b1" fill-opacity="1" fill-rule="nonzero" stroke="none" clip-path="url(#d)"><path d="M711.615 14.67c-86.862 2.964-136.595 9.409-176.562 14.583-30.592 3.962-54.756 7.097-84.258 6.951-2.633-.023-10.358-2.218-13.105-3.067l-1.147 3.719c1.061.331 10.551 3.232 14.231 3.242 29.765.143 54.043-3.002 84.78-6.983 39.877-5.168 89.514-11.597 176.192-14.561z"/><path d="M495.466 33.947c-8.849 7.512-19.212 15.575-21.245 16.065l.924 3.783c3.83-.931 18.449-13.153 22.842-16.877z"/><path d="M522.05 31.179c-.24.256-24.701 25.454-37.612 26.458l.297 3.881c14.381-1.121 39.075-26.549 40.114-27.633z"/><path d="M543.491 29.253c-.154.276-15.964 27.461-44.89 37.456l1.272 3.678c30.344-10.481 46.331-38.032 46.993-39.203z"/><path d="M585.123 23.404c-.334.331-33.889 33.494-73.729 49.545l1.452 3.611c40.593-16.351 74.679-50.057 75.018-50.396z"/><path d="M627.769 19.643c-.303.23-30.477 23.25-44.361 30.068-3.972 1.952-8.585 5.76-13.47 9.789-5.463 4.509-11.113 9.169-16.269 11.604-5.153 2.434-21.59 8.189-21.758 8.249l1.283 3.675c.682-.239 16.798-5.883 22.138-8.406 5.593-2.643 11.434-7.459 17.083-12.122 4.699-3.88 9.142-7.543 12.706-9.292 14.228-6.99 43.752-29.514 45.006-30.473z"/><path d="M650.45 18.152c-.428.401-43.198 40.461-63.672 52.326-6.299 3.646-26.858 12.18-27.061 12.266l1.49 3.594c.852-.355 20.997-8.719 27.523-12.493 20.857-12.089 62.611-51.195 64.386-52.852z"/><path d="M473.17 19.216l-1.788 3.649c.089.043 8.859 4.256 11.497 5.948 4.952 3.174 11.108 8.523 11.171 8.574l2.705-3.039c-.256-.232-6.438-5.601-11.65-8.945-2.846-1.819-11.565-6.01-11.935-6.187"/><path d="M480.127 9.813l-1.293 3.674c33.102 11.599 36.506 19.835 36.537 19.918l3.733-1.081c-.258-.995-3.577-10.1-38.977-22.511"/><path d="M487.06 1.408l-.92 3.791c57.228 13.875 64.018 24.129 64.067 24.229l3.446-1.809c-.62-1.179-7.762-11.938-66.593-26.211"/><path d="M512.941-8.545c-8.371-.93-14.605.414-14.95.492l.843 3.801c.105-.026 11.191-2.388 23.209 1.668 33.674 11.379 51.804 29.369 51.979 29.543l2.76-2.739c-.756-.761-18.897-18.8-53.493-30.49-3.623-1.227-7.142-1.918-10.348-2.275"/><path d="M539.047-19.229c-10.895-1.209-21.018-.469-21.57-.43l.292 3.883c.169-.015 17.28-1.258 30.426 2.099 28.41 7.24 77.384 36.28 77.879 36.573l1.984-3.345c-2.026-1.201-49.949-29.624-78.898-37.003-3.274-.834-6.73-1.399-10.113-1.777"/><path d="M694.338 15.395c-.271.266-27.651 26.791-56.605 47.66l2.275 3.159c29.188-21.044 56.765-47.758 57.038-48.03z"/></g></g></svg>