<svg xmlns="http://www.w3.org/2000/svg" role="img" viewBox="2.41 2.91 102.05 96.67"><title>The POWER Project logo</title><circle cx="50.049" cy="45" r="40.14" fill="#0B3D91"/><g fill="#FFF"><circle cx="47.679" cy="12.57" r=".45"/><circle cx="52.299" cy="13.17" r=".45"/><circle cx="58.359" cy="21.33" r=".45"/><circle cx="25.119" cy="63.33" r=".45"/><circle cx="26.289" cy="66.93" r=".45"/><circle cx="20.709" cy="63.87" r=".337"/><circle cx="39.009" cy="70.942" r=".338"/><circle cx="67.711" cy="64.98" r=".337"/><circle cx="76.052" cy="55.92" r=".338"/><circle cx="35.169" cy="23.962" r=".337"/><circle cx="44.349" cy="17.22" r=".337"/><circle cx="43.352" cy="16.56" r=".337"/><circle cx="42.452" cy="15.9" r=".337"/><circle cx="36.609" cy="25.703" r=".337"/><circle cx="50.131" cy="8.16" r=".337"/><circle cx="52.352" cy="17.88" r=".337"/><circle cx="48.849" cy="15.982" r=".337"/><circle cx="42.849" cy="18.563" r=".337"/><circle cx="69.309" cy="73.883" r=".337"/><circle cx="24.549" cy="65.61" r=".338"/><circle cx="48.009" cy="69.96" r=".338"/><circle cx="31.531" cy="65.34" r=".338"/><circle cx="34.449" cy="70.103" r=".338"/><circle cx="55.929" cy="67.103" r=".337"/><circle cx="67.771" cy="60.42" r=".337"/><circle cx="76.749" cy="64.522" r=".337"/><circle cx="79.809" cy="66.48" r=".337"/><circle cx="80.312" cy="61.14" r=".337"/><circle cx="35.671" cy="53.58" r=".337"/><circle cx="35.799" cy="61.32" r=".45"/><circle cx="38.499" cy="67.02" r=".45"/><circle cx="70.839" cy="61.08" r=".45"/><circle cx="82.479" cy="60.42" r=".45"/><circle cx="76.719" cy="57.96" r=".45"/><circle cx="70.839" cy="58.2" r=".45"/><path d="M58.71 12.288l1.119-.107-1.117-.063c-.035-.216-.208-.385-.426-.413l-.107-1.114-.064 1.123c-.202.045-.357.214-.382.424l-1.144.104 1.152.062c.042.193.198.344.394.38l.104 1.148.061-1.146c.207-.035.371-.194.41-.398zM39.824 24.746l1.119-.107-1.117-.063c-.034-.216-.208-.385-.426-.413l-.107-1.114-.063 1.123c-.203.045-.358.214-.383.424l-1.144.104 1.152.062c.042.193.198.344.394.38l.104 1.148.062-1.146c.207-.034.371-.194.409-.398zm41.835 32.938l1.119-.107-1.117-.063c-.034-.216-.208-.385-.426-.413l-.107-1.114-.063 1.123c-.202.045-.357.214-.382.424l-1.144.104 1.152.062c.042.193.198.344.394.38l.104 1.148.062-1.146c.205-.034.369-.193.408-.398zM36.044 74.906l1.119-.107-1.117-.063c-.035-.216-.208-.385-.426-.413l-.107-1.113-.063 1.122c-.203.045-.358.214-.383.424l-1.144.104 1.152.062c.042.193.198.345.394.38l.104 1.148.062-1.146c.206-.034.371-.194.409-.398zm42.06-8.4l1.119-.107-1.117-.063c-.034-.216-.208-.385-.426-.413l-.107-1.114-.063 1.122c-.202.045-.357.214-.382.424l-1.144.104 1.152.062c.042.193.198.344.394.38l.104 1.148.062-1.146c.205-.033.37-.193.408-.397z"/></g><path fill="#FC3D21" d="M59.568 35.385c-4.667 1.814-9.219 3.433-13.06 4.635-7.805 2.444-29.16 9.06-42.06 17.4l1.08.42c7.86-4.44 12.969-5.835 17.88-7.38 5.34-1.68 22.603-5.72 30.42-7.92 2.641-.743 5.734-1.716 9.01-2.9-.762-1.063-1.566-2.129-2.412-3.193-.283-.359-.57-.713-.858-1.062zm5.702 7.859c-1.13.763-2.077 1.372-2.74 1.756-3.84 2.22-22.561 15-26.82 17.94s-16.08 14.1-19.56 17.34l-.12 1.319c11.22-10.08 14.74-12.566 19.2-15.959 5.52-4.2 16.939-11.97 20.82-14.46 3.71-2.38 7.056-4.569 10.059-6.572-.049-.082-.098-.164-.147-.247-.226-.371-.457-.743-.692-1.117zM82.809 24.72c-5.466 3.204-14.081 7.071-22.439 10.352.2.245.399.492.597.741.934 1.176 1.815 2.36 2.644 3.545 6.57-2.42 13.779-5.668 19.499-9.599-2.725 2.582-11.734 9.315-17.227 13.068.283.461.557.922.822 1.381 8.322-5.569 13.922-9.668 17.185-12.409 4.5-3.78 14.76-12.24 18.66-23.58-6.841 8.701-14.929 13.68-19.741 16.501z"/><path fill="#FFF" d="M44.884 54.939c-.885-1.114-2.109-2.606-3.028-3.763-1.229-1.547-2.366-3.11-3.408-4.671-.34.085-.679.17-1.018.255 1.258 1.963 2.655 3.923 4.177 5.839 1.112 1.4 2.123 2.527 2.641 3.228.105.142.313.456.594.874.324-.22.651-.442.981-.666-.319-.347-.634-.712-.939-1.096zm6.46 5.864c-.727-.688-2.49-1.837-4.325-3.561-.405.278-.814.56-1.224.844 1.185 1.67 2.799 3.721 4.063 4.319 1.904.902 2.417-.72 1.486-1.602zm9.623-24.99c-10.492-13.206-23.309-20.461-28.835-16.07-4.292 3.41-2.53 13.376 3.386 23.845.306-.105.609-.208.909-.31-5.971-10.2-7.605-19.679-3.557-22.896 5.087-4.042 17.37 3.241 27.558 16.064 2.109 2.654 3.963 5.318 5.533 7.915 6.012 9.95 7.857 18.948 3.703 22.621-1.271 1.124-5.155 1.565-10.243-.725-.071.089.043.33.132.389 4.392 1.766 8.599 2.439 10.723.752 5.104-4.056 1.183-18.379-9.309-31.585z"/><path fill="#FFF" d="M15.969 37.38h6.72l5.64 9.57v-7.47c0-.84-1.065-1.935-1.44-2.1h4.65c-.285.075-1.2 1.185-1.2 2.1v10.98c0 .675.975 1.605 1.44 1.965h-6.48l-5.73-9.615v7.56c0 .75.735 1.47 1.5 2.085h-4.95c.705-.3 1.38-1.245 1.44-1.995s0-10.425 0-10.845c0-.915-.885-1.665-1.59-2.235zm61.47 15.045h8.94c-.495-.12-1.05-.705-1.35-1.485-.3-.78-5.04-13.56-5.04-13.56H76.59c-.964.694-1.997 1.426-3.1 2.197-.003.028-.006.056-.011.083-.148.9-2.808 10.534-2.97 11.01-.225.66-1.38 1.395-1.845 1.785h4.815c-.48-.54-.87-1.065-.78-1.665.09-.6.36-1.8.36-1.8h4.98c.225.6.393 1.139.48 1.65.105.615-.525 1.305-1.08 1.785zm-3.93-5.355l1.68-5.49 2.22 5.49h-3.9zm-.757-9.142c.247-.182.495-.365.742-.548h-1.305c.13.12.345.309.563.548zM38.559 50.79c.09-.6.36-1.8.36-1.8h4.98c.225.6.393 1.139.48 1.65.105.615-.525 1.305-1.08 1.785h7.871c.164-.11.327-.22.49-.329-.305-.27-.586-.675-.771-1.156-.3-.78-5.04-13.56-5.04-13.56h-7.8c.375.345 1.455 1.275 1.29 2.28-.147.9-2.808 10.534-2.97 11.01-.225.66-1.38 1.395-1.845 1.785h4.815c-.48-.54-.87-1.065-.78-1.665zm2.49-9.21l2.22 5.49h-3.9l1.68-5.49zm24.699 3.268c-1.468.978-3.017 1.999-4.649 3.065.732.355 1.315.801 1.371 1.377.104 1.082-2.07 1.605-4.035 1.38-.393-.045-.779-.148-1.147-.286-.408.263-.82.528-1.238.796-.425.273-.941.609-1.53.997v1.553c.39-.765 1.243-1.45 1.905-1.485.285-.015 1.275.9 5.355.675 1.98-.109 5.805-2.22 5.745-4.65-.036-1.436-.786-2.556-1.777-3.422zM54.519 48.6v1.582c.361-.241.717-.478 1.066-.709-.549-.382-.938-.739-1.066-.873zm9.834-4.745c-.38-.225-.765-.422-1.134-.596-1.92-.9-3.93-1.065-4.35-2.28-.296-.857.54-1.65 2.58-1.62 2.04.03 3.93 1.245 4.44 1.68v-3.87c-.15.15-.808.905-1.41.78-1.155-.24-3.12-.553-5.37-.54-2.58.015-4.8 2.009-4.875 4.53-.105 3.525 2.715 4.485 4.305 5.04.164.057.351.118.554.183 1.525-.992 2.731-1.756 3.437-2.163.474-.273 1.095-.665 1.823-1.144z"/><path d="M17.57052 89.14384c.21625.17513.32285.46753.32285.87871 0 .40966-.1066.70967-.32285.90004-.21626.18884-.51931.28326-.90765.28326h-1.5366V88.8819h1.5366c.38834 0 .6914.08833.90765.26194zm1.2503 2.84325c.47057-.3853.70662-1.04318.70662-1.9752 0-.85282-.23605-1.4833-.70662-1.88992-.4721-.40661-1.1041-.61068-1.89601-.61068h-3.43719v7.89167h1.63864v-2.83717h1.6752c.87414 0 1.54726-.1934 2.01936-.5787zm6.98859 1.51529c-.38378.48276-.90156.72338-1.55489.72338-.65332 0-1.17415-.24062-1.56401-.72338-.38834-.48124-.58327-1.16654-.58327-2.05592 0-.88785.19493-1.57315.58327-2.05591.38986-.48124.9107-.72338 1.56401-.72338.65333 0 1.17111.24214 1.55489.72642.38377.48276.57565 1.16807.57565 2.05287 0 .88938-.19188 1.57468-.57565 2.05592zm1.031 1.20004c.79648-.75383 1.19395-1.83814 1.19395-3.25596 0-1.44523-.39747-2.53106-1.19395-3.25443-.59545-.61526-1.45742-.92136-2.58589-.92136-1.12846 0-1.99043.3061-2.58588.92136-.79952.72337-1.20004 1.8092-1.20004 3.25443 0 1.41782.40052 2.50213 1.20004 3.25596.59545.61373 1.45742.91984 2.58588.91984 1.12847 0 1.99044-.3061 2.58589-.91984zm-2.58589-7.43175zm6.11445.24062h-1.75134l2.23867 7.89167h1.53051l.95334-4.61439.27869-1.52595.27869 1.52595.95181 4.61439h1.57468l2.22191-7.89167h-1.67519l-1.05537 4.56718-.24062 1.20918-.24062-1.25792-.9381-4.51844h-1.73915l-.88938 4.54586-.22996 1.2305-.22539-1.25792zm15.10869 1.39802V87.5113h-5.78702v7.89167h5.9789v-1.41782h-4.36767V91.9551H45.135v-1.3706h-3.83314v-1.6752zm-2.85392-1.39802zm5.98043 1.37061h1.91733c.35636 0 .6244.04721.80257.1401.31829.16296.47667.48429.47667.96248 0 .44316-.16447.7386-.49342.88937-.18427.08529-.46296.12793-.83455.12793h-1.8686zm3.53618-1.16654c-.2985-.12488-.72338-.19341-1.2762-.20407h-3.8712v7.89167h1.61122v-3.09454h1.7026c.48581 0 .81628.08376.99294.25128.17665.16752.26955.50408.27564 1.00664l.01066.73404c.00457.23148.02741.4584.07005.67921.02133.10813.05635.24823.1066.42337h1.8153v-.19798c-.15685-.09594-.25737-.2467-.3-.44925-.02894-.12945-.04265-.37312-.04265-.73404v-.52997c0-.55281-.07614-.964-.22691-1.23355-.15229-.26955-.40966-.4782-.77363-.62439.43555-.14924.74774-.4051.93658-.76754.18884-.36245.28326-.731.28326-1.10563 0-.31067-.05026-.58784-.14924-.82998-.10052-.24366-.23605-.46448-.40662-.66398-.20711-.24367-.45991-.42641-.7584-.5513zm9.89885 1.42848c.21625.17513.32437.46753.32437.87871 0 .40966-.10812.70967-.32437.90004-.21473.18884-.51779.28326-.90613.28326h-1.5366V88.8819h1.5366c.38834 0 .6914.08833.90613.26194zm1.2503 2.84325c.4721-.3853.70662-1.04318.70662-1.9752 0-.85282-.23452-1.4833-.70662-1.88992-.47058-.40661-1.10258-.61068-1.89449-.61068h-3.43719v7.89167h1.63865v-2.83717h1.67519c.87414 0 1.54726-.1934 2.01784-.5787zm5.06212-2.55695c-.01828-.00152-.04264-.00152-.07158-.00152-.45687 0-.82846.11879-1.11324.35788-.17513.14315-.38072.40966-.61677.798v-1.0173h-1.4559v5.83576h1.53661v-2.78843c0-.46906.0594-.81475.17666-1.04014.21016-.399.62286-.5985 1.2366-.5985.0472 0 .10812.00152.18274.00457.07462.00456.1599.01066.25737.02132v-1.5625c-.06853-.00457-.1127-.00609-.1325-.00914zm4.67225 4.42098c-.2391.31677-.58174.47667-1.02795.47667-.44621 0-.79039-.1599-1.031-.47667-.24062-.31828-.36093-.76906-.36093-1.35538 0-.5848.1203-1.03557.36092-1.35233.24062-.31524.5848-.47363 1.031-.47363.44622 0 .78887.15839 1.02796.47363.2391.31676.35789.76754.35789 1.35233 0 .58632-.11879 1.0371-.35789 1.35538zm1.21985.84217c.49342-.60764.74013-1.34016.74013-2.19755 0-.84216-.24671-1.57163-.74013-2.18993-.4919-.61677-1.23964-.92592-2.24323-.92592-1.00207 0-1.74982.30915-2.24324.92592-.4919.6183-.7386 1.34777-.7386 2.18993 0 .8574.2467 1.5899.7386 2.19755.49342.60916 1.24117.91374 2.24324.91374 1.00359 0 1.75133-.30458 2.24323-.91374zm-2.24323-5.28142zm5.66975-.54063v-1.40868H76.1443v1.40868zm-2.25846 7.65105v1.21984c.13554.00457.24823.00762.3396.01219.09138.00304.15991.00456.2056.00456.67921 0 1.13456-.14163 1.36604-.42336.23148-.28174.34722-.71729.34722-1.30665v-6.43425H76.1443v6.40836c0 .21016-.03808.35179-.11422.42489-.07767.0731-.19036.10965-.3396.10965-.02894 0-.06092 0-.09747-.00152-.03503-.00153-.09595-.0061-.18123-.01371zm5.19004-5.52051c.19494-.22082.46906-.332.82237-.332.32438 0 .59698.10508.81628.31372.2193.20864.34112.51474.36701.91831h-2.37267c.05025-.3792.17208-.67769.36701-.90003zm2.13359-1.31731c-.38834-.18123-.82541-.2726-1.31122-.2726-.8178 0-1.48178.26955-1.995.80866-.5117.5391-.76754 1.31426-.76754 2.32394 0 1.07822.28326 1.85642.8513 2.33461.56652.4782 1.22137.71729 1.96454.71729.90004 0 1.59905-.28479 2.09856-.8513.32133-.35789.50103-.70968.54063-1.05537h-1.55793c-.08224.17208-.17666.3061-.28326.40204-.19645.17818-.4523.26803-.76602.26803-.29544 0-.54976-.0731-.75992-.22082-.34723-.23453-.52997-.6457-.5513-1.2305h3.99305c.00761-.50408-.00761-.88938-.04721-1.1574-.06853-.45688-.21625-.8574-.44469-1.20462-.2528-.39139-.57413-.67921-.964-.86196zm-1.20462-.2726zm7.17439 2.24932h1.56401c-.0868-.8315-.36245-1.41173-.82845-1.74067-.46449-.32743-1.06451-.4919-1.7955-.4919-.86044 0-1.53509.2787-2.02394.83455-.48885.55738-.73403 1.3371-.73403 2.33917 0 .88938.22234 1.61276.66398 2.16861.44316.55739 1.13456.83608 2.07267.83608.9381 0 1.64777-.33352 2.12597-1.00207.29848-.41423.46753-.85283.50255-1.31731h-1.55792c-.03199.30763-.12336.55738-.2726.75079-.15077.19188-.40357.28935-.75993.28935-.50408 0-.84673-.24366-1.02796-.72947-.10051-.26041-.15077-.60459-.15077-1.03253 0-.44925.05026-.81018.15077-1.08125.18884-.51018.54063-.76602 1.05385-.76602.36093 0 .62591.11726.798.35331.11726.17513.19036.37159.2193.58936zm-1.03253-2.24932zm3.0458 1.29599h.81323v3.59252c0 .36397.0868.63352.25737.80866.26346.27412.75688.399 1.47721.37463l.72338-.02741V94.3156a2.47804 2.47804 0 0 1-.1523.00913c-.05177.00153-.1005.00305-.14771.00305-.31067 0-.49647-.03046-.55738-.08985-.0594-.05787-.08986-.20712-.08986-.44621v-3.08387h.94725V89.6205h-.94725v-1.62646h-1.51071v1.62646h-.81323z"/></svg>