<svg xmlns="http://www.w3.org/2000/svg" role="img" viewBox="-3.44 -3.44 178.88 16.13"><title>Tools for the iTEM databases logo</title><g transform="translate(0 9.176)"><path d="M7.39453-7.69336H4.27734V0H3.1172v-7.69336H0V-8.7246h7.39453z"/><path d="M12.76758-3.26953q0 1.5996-.82031 2.52539Q11.12695.18164 9.75.18164q-1.38867 0-2.20898-.92578-.81446-.92578-.81446-2.5254 0-1.5996.81446-2.52538.8203-.93164 2.20898-.93164 1.37695 0 2.19727.93164.8203.92578.8203 2.52539zm-1.13672 0q0-1.27149-.49805-1.88672-.49804-.6211-1.38281-.6211-.89648 0-1.39453.6211-.49219.61523-.49219 1.88672 0 1.23047.49805 1.86914.49804.63281 1.38867.63281.8789 0 1.37695-.62695.5039-.63281.5039-1.875z"/><path d="M20.05078-3.26953q0 1.5996-.82031 2.52539-.82031.92578-2.19727.92578-1.38867 0-2.20898-.92578-.81445-.92578-.81445-2.5254 0-1.5996.81445-2.52538.82031-.93164 2.20898-.93164 1.37696 0 2.19727.93164.82031.92578.82031 2.52539zm-1.13672 0q0-1.27149-.49804-1.88672-.49805-.6211-1.38282-.6211-.89648 0-1.39453.6211-.49219.61523-.49219 1.88672 0 1.23047.49805 1.86914.49805.63281 1.38867.63281.8789 0 1.37696-.62695.5039-.63281.5039-1.875z"/><path d="M22.86914 0h-1.10156v-9.11719h1.10156z"/><path d="M29.7246-1.88672q0 .89649-.74413 1.4707-.73828.57422-2.02149.57422-.72656 0-1.33593-.16992-.60352-.17578-1.01367-.38086V-1.6289h.05858q.52149.39258 1.16016.62696.63867.22851 1.22461.22851.72656 0 1.13672-.23437.41015-.23438.41015-.73828 0-.38672-.22265-.58594-.22266-.19922-.85547-.33984-.23438-.05274-.61523-.12305-.375-.07031-.68555-.15235-.86133-.22851-1.22461-.66796-.35742-.44532-.35742-1.08985 0-.4043.16406-.76172.16992-.35742.50977-.63867.32812-.27539.83203-.4336.50976-.16405 1.13672-.16405.58593 0 1.18359.14648.60352.14062 1.00195.3457v1.17774h-.05859q-.42187-.31055-1.02539-.52149-.60351-.2168-1.1836-.2168-.6035 0-1.01952.23438-.41602.22852-.41602.68555 0 .4043.25195.60937.2461.20508.79688.33399.30469.0703.67969.14062.38086.07031.63281.1289.76758.17579 1.1836.60352.416.4336.416 1.14844z"/><path d="M39.04102-8.05078h-.0586q-.18164-.05274-.4746-.10547-.29297-.0586-.51563-.0586-.70898 0-1.03125.31641-.3164.31055-.3164 1.13086v.22266h1.98632v.92578H36.6797V0h-1.10156v-5.61914h-.74415v-.92578h.74415v-.2168q0-1.16601.58007-1.7871.58008-.62696 1.67578-.62696.36915 0 .66211.03515.29883.03516.54493.08204z"/><path d="M45.3164-3.26953q0 1.5996-.8203 2.52539-.82032.92578-2.19727.92578-1.38867 0-2.20899-.92578-.81445-.92578-.81445-2.5254 0-1.5996.81445-2.52538.82032-.93164 2.20899-.93164 1.37695 0 2.19726.93164.82032.92578.82032 2.52539zm-1.13671 0q0-1.27149-.49805-1.88672-.49805-.6211-1.38281-.6211-.89649 0-1.39453.6211-.4922.61523-.4922 1.88672 0 1.23047.49806 1.86914.49804.63281 1.38867.63281.8789 0 1.37695-.62695.5039-.63281.5039-1.875z"/><path d="M51.10547-5.34375h-.0586q-.24609-.0586-.48046-.08203-.22851-.0293-.54492-.0293-.50977 0-.98438.22852-.4746.22265-.91406.58008V0H47.0215v-6.54492h1.10156v.9668q.65625-.52735 1.1543-.74415.5039-.22265 1.02539-.22265.2871 0 .41601.01758.12891.01172.38672.05273z"/><path d="M59.75977-.0586q-.31055.08204-.6797.13477-.36327.05274-.65038.05274-1.00196 0-1.52344-.53907-.52148-.53906-.52148-1.72851v-3.48047h-.74415v-.92578h.74415v-1.88086h1.10156v1.88086h2.27344v.92578h-2.27344v2.98242q0 .51563.02344.8086.02344.2871.16406.53906.1289.23437.35156.3457.22852.10547.6914.10547.26954 0 .5625-.07617.29298-.08203.42188-.13477h.0586z"/><path d="M66.5625 0h-1.10156v-3.72656q0-.45117-.05273-.84375-.05273-.39844-.19336-.6211-.14649-.24609-.42188-.36328-.27539-.12304-.71484-.12304-.45117 0-.94336.22265-.49219.22266-.94336.56836V0h-1.10156v-9.11719h1.10156v3.29883q.51563-.42773 1.0664-.66797.55079-.24023 1.13087-.24023 1.06054 0 1.61718.63867t.55664 1.83984z"/><path d="M74.1621-3.1582h-4.82226q0 .60351.18164 1.05468.18165.44532.49805.73243.30469.28125.7207.42187.42188.14063.92579.14063.66796 0 1.3418-.26368.67968-.26953.96679-.52734h.05859v1.20117q-.55664.23438-1.13672.39258-.58008.1582-1.21875.1582-1.6289 0-2.54297-.8789-.91406-.88477-.91406-2.50782 0-1.60546.87305-2.54882.8789-.94336 2.30859-.94336 1.32422 0 2.03906.77344.7207.77343.7207 2.19726zm-1.07226-.84375q-.0059-.8672-.43945-1.3418-.42773-.4746-1.30664-.4746-.88477 0-1.4121.52147-.5215.52149-.5918 1.29493z"/><path d="M81.23438-7.64063h-1.2422V-8.7832h1.2422zM81.16406 0H80.0625v-6.54492h1.10156z"/><path d="M89.6543-7.69336h-3.1172V0h-1.16015v-7.69336h-3.11718V-8.7246h7.39453z"/><path d="M96.57422 0h-5.74805v-8.7246h5.74805v1.03124h-4.5879v2.39063h4.5879v1.03125h-4.5879v3.24023h4.5879z"/><path d="M106.18359 0h-1.16015v-7.51758l-2.42578 5.11524h-.69141l-2.4082-5.11524V0h-1.08399v-8.7246h1.58203l2.32618 4.85741 2.25-4.85742h1.61132z"/><path d="M117.9668 0h-1.10157v-.68555q-.4746.41016-.99023.63867-.51562.22852-1.11914.22852-1.17188 0-1.86328-.90234-.68555-.90235-.68555-2.50196 0-.83203.23438-1.48242.24023-.65039.64453-1.10742.39844-.44531.92578-.67969.5332-.23437 1.10156-.23437.51563 0 .91406.11133.39844.10546.83789.33398v-2.83594h1.10157zm-1.10157-1.61133v-3.75586q-.44531-.19922-.79687-.27539-.35156-.07617-.76758-.07617-.92578 0-1.4414.64453-.51563.64453-.51563 1.82813 0 1.16601.39844 1.77539.39844.60351 1.27734.60351.46875 0 .94922-.20508.48047-.21093.89648-.53906z"/><path d="M125.2207 0h-1.0957v-.69727q-.14648.09961-.39844.28125-.24609.17579-.48047.28125-.27539.13477-.63281.22266-.35742.09375-.83789.09375-.88476 0-1.5-.58594-.61523-.58593-.61523-1.49414 0-.74414.3164-1.20117.32227-.46289.91407-.72656.59765-.26367 1.43554-.35742t1.79883-.14063v-.16992q0-.375-.13477-.6211-.1289-.24609-.375-.38671-.23437-.13477-.5625-.18164-.32812-.04688-.68554-.04688-.4336 0-.9668.11719-.5332.11133-1.10156.32812h-.0586V-6.4043q.32227-.08789.93165-.19336.60937-.10547 1.20117-.10547.6914 0 1.20117.1172.51562.11132.89062.38671.36914.26953.5625.69727.19336.42773.19336 1.06054zm-1.0957-1.61133v-1.82226q-.50391.0293-1.18945.08789-.67969.0586-1.07813.16992-.47461.13476-.76758.42187-.29296.28125-.29296.7793 0 .5625.33984.84961.33984.28125 1.03711.28125.58008 0 1.06055-.22266.48046-.22851.89062-.54492z"/><path d="M130.74023-.0586q-.31054.08204-.67968.13477-.36328.05274-.65039.05274-1.00196 0-1.52344-.53907-.52149-.53906-.52149-1.72851v-3.48047h-.74414v-.92578h.74414v-1.88086h1.10157v1.88086h2.27343v.92578h-2.27343v2.98242q0 .51563.0234.8086.0234.2871.16407.53906.1289.23437.35156.3457.22851.10547.69141.10547.26953 0 .5625-.07617.29296-.08203.42187-.13477h.0586z"/><path d="M137.15625 0h-1.0957v-.69727q-.14649.09961-.39844.28125-.24609.17579-.48047.28125-.27539.13477-.63281.22266-.35742.09375-.83789.09375-.88477 0-1.5-.58594-.61524-.58593-.61524-1.49414 0-.74414.31641-1.20117.32226-.46289.91406-.72656.59766-.26367 1.43555-.35742.83789-.09375 1.79883-.14063v-.16992q0-.375-.13477-.6211-.12891-.24609-.375-.38671-.23437-.13477-.5625-.18164-.32812-.04688-.68555-.04688-.43359 0-.96679.11719-.53321.11133-1.10157.32812h-.0586V-6.4043q.32227-.08789.93164-.19336.60938-.10547 1.20117-.10547.69141 0 1.20118.1172.51562.11132.89062.38671.36914.26953.5625.69727.19336.42773.19336 1.06054zm-1.0957-1.61133v-1.82226q-.50391.0293-1.18946.08789-.67968.0586-1.07812.16992-.47461.13476-.76758.42187-.29297.28125-.29297.7793 0 .5625.33985.84961.33984.28125 1.0371.28125.58008 0 1.06055-.22266.48047-.22851.89063-.54492z"/><path d="M145.03711-3.32227q0 .82032-.23438 1.47657-.22851.65625-.62109 1.10156-.41602.46289-.91406.69726-.49805.22852-1.09571.22852-.55664 0-.97265-.13477-.41602-.1289-.82031-.35156L140.30859 0h-1.03125v-9.11719h1.10157v3.25782q.46289-.38086.98437-.6211.52149-.2461 1.17188-.2461 1.16015 0 1.82812.89063.67383.89063.67383 2.51367zm-1.13672.0293q0-1.17187-.38672-1.77539-.38672-.60937-1.24805-.60937-.48046 0-.97265.21093-.49219.20508-.91406.5332v3.75q.46875.21094.80273.29298.33984.08203.76758.08203.91406 0 1.42969-.59766.52148-.60352.52148-1.88672z"/><path d="M151.83984 0h-1.0957v-.69727q-.14648.09961-.39844.28125-.24609.17579-.48047.28125-.27539.13477-.63281.22266-.35742.09375-.83789.09375-.88476 0-1.5-.58594-.61523-.58593-.61523-1.49414 0-.74414.3164-1.20117.32227-.46289.91407-.72656.59765-.26367 1.43554-.35742t1.79883-.14063v-.16992q0-.375-.13477-.6211-.1289-.24609-.375-.38671-.23437-.13477-.5625-.18164-.32812-.04688-.68554-.04688-.4336 0-.9668.11719-.5332.11133-1.10156.32812h-.0586V-6.4043q.32227-.08789.93165-.19336.60937-.10547 1.20117-.10547.6914 0 1.20117.1172.51562.11132.89062.38671.36914.26953.5625.69727.19336.42773.19336 1.06054zm-1.0957-1.61133v-1.82226q-.50391.0293-1.18945.08789-.67969.0586-1.07813.16992-.47461.13476-.76758.42187-.29296.28125-.29296.7793 0 .5625.33984.84961.33984.28125 1.03711.28125.58008 0 1.06055-.22266.48046-.22851.89062-.54492z"/><path d="M158.63672-1.88672q0 .89649-.74414 1.4707-.73828.57422-2.02149.57422-.72656 0-1.33593-.16992-.60352-.17578-1.01368-.38086V-1.6289h.0586q.52148.39258 1.16015.62696.63868.22851 1.22461.22851.72657 0 1.13672-.23437.41016-.23438.41016-.73828 0-.38672-.22266-.58594-.22265-.19922-.85547-.33984-.23437-.05274-.61523-.12305-.375-.07031-.68555-.15235-.86133-.22851-1.22461-.66796-.35742-.44532-.35742-1.08985 0-.4043.16406-.76172.16993-.35742.50977-.63867.32812-.27539.83203-.4336.50977-.16405 1.13672-.16405.58594 0 1.18359.14648.60352.14062 1.00196.3457v1.17774h-.0586q-.42187-.31055-1.02539-.52149-.60351-.2168-1.18359-.2168-.60352 0-1.01953.23438-.41602.22852-.41602.68555 0 .4043.25195.60937.2461.20508.79688.33399.30469.0703.67969.14062.38086.07031.63281.1289.76758.17579 1.18359.60352.41602.4336.41602 1.14844z"/><path d="M165.69141-3.1582h-4.82227q0 .60351.18164 1.05468.18164.44532.49805.73243.30469.28125.7207.42187.42188.14063.92578.14063.66797 0 1.3418-.26368.67969-.26953.9668-.52734h.0586v1.20117q-.55664.23438-1.13672.39258-.58008.1582-1.21875.1582-1.62891 0-2.54297-.8789-.91407-.88477-.91407-2.50782 0-1.60546.87305-2.54882.8789-.94336 2.30859-.94336 1.32422 0 2.03906.77344.72071.77343.72071 2.19726zm-1.07227-.84375q-.006-.8672-.43945-1.3418-.42774-.4746-1.30664-.4746-.88477 0-1.41211.52147-.52149.52149-.5918 1.29493z"/><path d="M172.03711-1.88672q0 .89649-.74414 1.4707-.73828.57422-2.02149.57422-.72656 0-1.33593-.16992-.60352-.17578-1.01368-.38086V-1.6289h.0586q.52148.39258 1.16015.62696.63868.22851 1.22461.22851.72657 0 1.13672-.23437.41016-.23438.41016-.73828 0-.38672-.22266-.58594-.22265-.19922-.85547-.33984-.23437-.05274-.61523-.12305-.375-.07031-.68555-.15235-.86133-.22851-1.22461-.66796-.35742-.44532-.35742-1.08985 0-.4043.16406-.76172.16993-.35742.50977-.63867.32812-.27539.83203-.4336.50977-.16405 1.13672-.16405.58594 0 1.18359.14648.60352.14062 1.00196.3457v1.17774h-.0586q-.42187-.31055-1.02539-.52149-.60351-.2168-1.18359-.2168-.60352 0-1.01953.23438-.41602.22852-.41602.68555 0 .4043.25195.60937.2461.20508.79688.33399.30469.0703.67969.14062.38086.07031.63281.1289.76758.17579 1.18359.60352.41602.4336.41602 1.14844z"/></g></svg>