<svg xmlns="http://www.w3.org/2000/svg" role="img" viewBox="-5.98 -5.98 310.96 150.96"><title>Tracarbon logo</title><g transform="translate(-1 -71.502)"><path fill="#989fa8" d="M243.67262 210.08353c-6.76556-1.40326-8.0446-3.65628-8.49906-14.97096-.49289-12.2716.66382-16.33299 5.27494-18.52111 6.97452-3.30963 20.99786-1.36297 23.47101 3.25814 1.14337 2.13641 1.51501 22.85449.45931 25.6056-1.46944 3.82929-12.58241 6.3133-20.7062 4.62833zm10.11716-17.2065c.27113-7.13237.1481-7.66001-1.91168-8.19866-4.29268-1.12256-5.8781.83963-5.8781 7.27503 0 8.04764.57988 9.22 4.37765 8.85044L253.5 200.5zM9 199.13405c0-6.03376-.27314-11.68228-.60699-12.55226-.38847-1.01233-1.8285-1.58179-4-1.58179C1.03833 185 1 184.94916 1 180.5V176h13.48095c13.42823 0 13.48332.009 14.08855 2.42091 1.17083 4.66492.23467 6.05573-4.2978 6.38511l-4.21104.30601-.28033 12.19399L19.5 209.5l-5.25.30226-5.25.30226zm24-6.08179V176h11.42742c11.27332 0 11.4567.0371 13.59835 2.75 1.76237 2.23246 2.08269 3.67795 1.70201 7.68074-.36874 3.87721-.06925 5.35973 1.40165 6.93856C62.60573 194.95392 63 196.92921 63 202.74082v7.3637l-5.25-.30226L52.5 209.5l-.5-5c-.49381-4.9381-.54575-5.0038-4.19576-5.30713l-3.69576-.30713-.30424 5.30713L43.5 209.5l-5.25.30226-5.25.30226zm15.80287-5.67498c.17916-1.25565-.3683-2.38028-1.34024-2.75325-2.32464-.89205-3.46263.09539-3.46263 3.00454 0 2.03153.4293 2.44956 2.25 2.19098 1.39877-.19866 2.36458-1.12263 2.55287-2.44227zm18.9099 22.00215c-1.23661-1.2366-.75107-14.68547.69965-19.37943.76493-2.475 2.32692-6.65583 3.4711-9.29073l2.08033-4.79074 8.25376.29074 8.25376.29073 2.92228 7c2.49443 5.9751 2.93577 8.39093 3.01432 16.5l.09203 9.5h-5c-4.95238 0-5.00476-.0333-5.5-3.5-.45768-3.20377-.812-3.52595-4.18626-3.80657-3.61044-.30026-3.69272-.22826-4 3.5-.3093 3.75273-.37791 3.81076-4.85097 4.10267-2.49548.16286-4.85798-.0246-5.25-.41667zM84.429 192.11487C85.11357 191.00722 83.08255 185 82.02349 185c-1.18998 0-3.3059 5.73404-2.5608 6.93964.79428 1.28516 4.20594 1.40554 4.96632.17523zm20.69043 15.33218L102 204.82221v-11.80032c0-16.18714.18693-16.40498 14.47194-16.8647l10.65213-.34281-.31204 4.34281L126.5 184.5l-6.5.5-6.5.5-.29998 6.33731c-.38745 8.18494.46409 9.16269 7.97992 9.16269h5.93506l-.3075 4.25-.3075 4.25-9.13056.28595c-8.60169.26938-9.31124.1339-12.25-2.3389zm26.28442.0259c-1.21922-4.85777.31229-15.8079 3.283-23.47298l2.90672-7.5 8.59512-.28736 8.59512-.28735 3.14599 8.69438c2.72122 7.52043 3.10713 9.78713 2.8581 16.78736L160.5 209.5h-10l-.31037-3.75c-.30089-3.63554-.42876-3.75-4.18963-3.75s-3.88874.11446-4.18963 3.75c-.30704 3.70978-.36097 3.75325-5.0279 4.05347-4.36983.28109-4.76625.10933-5.37861-2.33049zm17.02515-15.35811c.70738-1.14454-1.36343-7.11484-2.46782-7.11484-1.13536 0-1.59937.90963-2.42305 4.75-.64159 2.9914-.4965 3.25 1.82339 3.25 1.38624 0 2.7666-.39831 3.06748-.88513zM167 193v-17h10.88922c13.32462 0 15.55307 1.16633 15.5479 8.1375-.002 2.39937-.374 5.15-.82716 6.1125-.58905 1.25111-.4004 1.75.66173 1.75 2.3133 0 3.8676 5.09852 3.53301 11.58917L196.5 209.5l-5.19599.30039-5.196.30038-.304-5.30038L185.5 199.5l-3.75-.31037-3.75-.31036v3.97858c0 6.42604-.61232 7.14215-6.10699 7.14215H167zm15.80287-5.62272c.31959-2.23985-1.83137-3.68731-4.15462-2.79579-.83579.32072-1.16913 1.47405-.8733 3.02156.60824 3.18182 4.56709 3.00405 5.02792-.22577zm18.80412 21.04093c-.79064-2.06037-.79064-28.77605 0-30.83642.50209-1.30843 2.48949-1.58179 11.5-1.58179 9.55968 0 11.13782.24481 12.89301 2 2.20342 2.20342 2.81095 9.38077.89431 10.56532-.71272.44049-.17962 1.54205 1.5 3.09949C230.6332 193.74082 231 194.90963 231 199.96789c0 5.1687-.32147 6.13982-2.63486 7.95953-2.3263 1.82987-4.0118 2.07258-14.39301 2.07258-9.79941 0-11.85927-.2635-12.36514-1.58179zm18.21256-9.66821c-.25029-1.76232-.96979-2.25-3.31955-2.25s-3.06926.48768-3.31955 2.25c-.28116 1.97968.11765 2.25 3.31955 2.25s3.60071-.27032 3.31955-2.25zM217.5 186.5c0-1.31273-.77318-2.10981-2.25-2.31955-1.84568-.26213-2.25.15469-2.25 2.31955s.40432 2.58168 2.25 2.31955c1.47682-.20974 2.25-1.00682 2.25-2.31955zm53.5 6.55226V176h4.44047c4.10042 0 4.76371.38333 8.66118 5.0055 2.32138 2.75302 4.44876 4.77742 4.72752 4.49867.27875-.27876.54372-2.41873.58883-4.7555L289.5 176.5l5.25-.30226 5.25-.30226v34.20904l-5.25-.30226-5.25-.30226-.5-4.01141c-.29721-2.38448-1.71672-5.53197-3.5-7.76056l-3-3.74916-.5 7.76057-.5 7.76056-5.25.30226-5.25.30226zm-137.09976-34.06549c-13.06493-2.20977-26.31862-13.23376-31.83158-26.47648-3.13322-7.52633-3.26045-8.33814-2.89034-18.4416.35245-9.62147.69623-11.19606 3.83581-17.56869 4.47088-9.07486 11.64313-16.27975 20.3359-20.42843 22.59704-10.78457 48.0124-1.91978 59.27138 20.67364 3.79083 7.60708 3.86388 7.96432 3.83498 18.75479-.0282 10.50805-.18874 11.33542-3.59095 18.5-8.91352 18.77067-28.03289 28.52721-48.9652 24.98677zm-16.44799-28.63279c-2.96499-3.19928-3.1383-6.42314-.47487-8.83351 3.03998-2.75114 7.6901-1.42031 17.2373 4.93323 5.26379 3.50298 9.91466 5.82205 12.36196 6.16404l3.92336.54826-5.28559-2.55348c-2.90707-1.40442-7.40707-4.32686-10-6.49432-6.39233-5.34344-12.50764-8.34532-18.0722-8.87128-3.99143-.37728-4.97477-.0826-7.01451 2.10178-1.72791 1.85047-2.20335 3.21376-1.7503 5.01886 1.11493 4.44223 7.04016 10.22744 10.82485 10.56905.38624.0349-.40126-1.12732-1.75-2.58263zm58.71388-13.31081c4.07239-5.02919.97293-12.20992-7.31282-16.94211-2.87618-1.64265-5.55057-2.78816-5.94309-2.54557-.39251.24258.81711 1.97184 2.68806 3.84279 3.71929 3.71929 4.40224 7.45834 1.83179 10.02879-3.93975 3.93976-8.98887 2.88175-20.82741-4.36424-3.61652-2.21355-8.21155-4.70823-10.2112-5.54373-4.13769-1.72884-9.97194-2.0069-10.89146-.5191-.3497.56582.47831 1 1.90706 1 3.55315 0 8.86149 2.62219 17.81792 8.80162 9.93027 6.85133 16.59717 9.34757 23.69115 8.87051 4.14597-.27881 5.8462-.89534 7.25-2.62896z"/><path fill="#51b2cd" d="M241.32874 208.54224c-1.7442-.75871-3.6567-2.28652-4.25-3.39512-1.1117-2.07722-1.48542-20.03096-.49383-23.7236.96036-3.57634 5.51369-5.42352 13.36904-5.42352 7.46651 0 12.31009 1.63972 13.42487 4.5448 1.16262 3.02975.62334 23.87018-.66062 25.52984-2.9099 3.76132-15.16512 5.17514-21.38946 2.4676zM253.8 200.8c1.36837-1.36837 1.62614-13.57957.32982-15.62418-.50491-.79637-2.19283-1.19497-4.23468-1L246.5 184.5l-.29697 7.40642c-.16333 4.07352-.065 8.01102.21862 8.75.64001 1.66783 5.75457 1.76736 7.37835.14358zM9 196.5V184H1v-8.05805l13.25.27902L27.5 176.5l.30677 3.68973c.30668 3.68865.30552 3.68982-4 4L19.5 184.5l-.28078 12.25-.28078 12.25H9zm24.97143 12c-.01572-.275-.02857-7.25-.02857-15.5s.01286-15.45.02857-16c.0422-1.4772 18.01051-1.23264 21.01196.286 3.364 1.70206 4.68066 5.77411 3.40834 10.54089-.9086 3.40406-.77842 3.95759 1.29925 5.52478C61.71463 194.87812 62 195.95271 62 202.04668V209h-9v-4.98095c0-4.42269-.2688-5.04841-2.39829-5.58288-1.31905-.33106-3.45655-.45213-4.75-.26905-2.08107.29457-2.3865.93706-2.65397 5.58288l-.30226 5.25h-4.44774c-2.44626 0-4.4606-.225-4.47631-.5zM49.5 187.5c0-2.65367-.3752-3.03618-3.25-3.31336-3.12685-.30148-3.25-.17593-3.25 3.31336s.12315 3.61484 3.25 3.31336c2.8748-.27718 3.25-.65969 3.25-3.31336zM68 201.21534c0-7.60462 1.9249-15.30187 5.60758-22.42338C74.97476 176.14814 75.4149 176 81.90323 176c4.30091 0 7.21064.46538 7.8155 1.25.52999.6875 2.16009 4.53824 3.62244 8.55721C95.38312 191.41907 96 194.95723 96 201.05721V209h-4.43963c-4.4084 0-4.44182-.0264-4.75-3.75-.30738-3.71385-.35616-3.75294-5.06037-4.05479l-4.75-.30479V209h-9zm17.59358-8.59861C86.2355 190.94392 83.47936 184 82.17348 184c-1.5819 0-2.96424 2.33802-3.69528 6.25l-.70078 3.75h3.64267c2.17882 0 3.856-.55588 4.17349-1.38327zm21.72179 15.37629C103.76726 206.56345 103 203.74435 103 192.13717 103 177.52408 104.47005 176 118.5651 176H126v8h-5.87756c-7.52939 0-8.29977.93962-7.92018 9.65999L112.5 200.5l6.5.5 6.5.5.31037 3.75.31036 3.75-8.31036-.0634c-4.57071-.0349-9.29345-.45948-10.495-.94359zm24.72338-6.74302c.0311-6.23077.66825-9.41625 3.25-16.25l3.21125-8.5 7.64711-.29021 7.64711-.29021 3.10289 8.12565C159.47802 190.80395 160 193.58641 160 200.58544V209h-4.43963c-4.40841 0-4.44182-.0264-4.75-3.75-.30886-3.7318-.33221-3.75-4.81037-3.75s-4.50151.0182-4.81037 3.75c-.30818 3.72362-.34159 3.75-4.75 3.75H132l.0387-7.75zm17.48305-11c-1.31064-7.01354-3.84951-8.10327-6.13502-2.63327-2.02207 4.8395-1.24982 6.38327 3.19313 6.38327h3.64267zm17.70343 2.5L167.5 176.5h10.84046c10.18679 0 10.95561.14235 12.75 2.36078 2.13821 2.6435 2.5734 9.07536.73822 10.91054-.89509.89509-.54135 1.66685 1.5 3.27258 2.4394 1.91883 2.67132 2.70744 2.67132 9.08347v6.98221l-4.75-.30479-4.75-.30479-.5-5-.5-5-4.25-.3075-4.25-.3075V209h-10.04954zm16.23006-3.60912c.9847-3.10253-.42774-5.14088-3.56228-5.14088-2.63963 0-2.89301.30654-2.89301 3.5 0 3.20435.24772 3.5 2.93261 3.5 1.98028 0 3.12423-.60373 3.52268-1.85912zM203 192.5V176h8.4349c8.46469 0 13.37258 1.10002 14.77944 3.31256 1.15668 1.81911.92621 8.48254-.32003 9.25276-.71272.44049-.17962 1.54205 1.5 3.09949 2.19437 2.03473 2.60569 3.27794 2.60569 7.87566C230 208.15418 228.61408 209 214.5 209H203zm16.41821 9.89301c.938-.35994 1.58179-1.78444 1.58179-3.5 0-2.76209-.20365-2.89301-4.5-2.89301-4.27451 0-4.5.14198-4.5 2.83333 0 1.55834.3 3.13334.66667 3.5.83258.83259 4.64947.86632 6.75154.0597zM217.8 188.8c2.01426-2.01426 1.3898-4.71426-1.24316-5.37509-3.17319-.79642-4.55684.12993-4.55684 3.05077 0 3.23593 3.48985 4.63447 5.8 2.32432zm54.2 3.7575V176h3.37853c2.85896 0 4.10112.84581 8.07732 5.5 2.58434 3.025 5.114 5.5 5.62147 5.5.50748 0 .92268-2.49966.92268-5.55479v-5.55479l4.75.30479 4.75.30479.27477 16.25.27477 16.25H290v-3.6288c0-2.77115-.87186-4.60282-3.68894-7.75-2.02892-2.26666-4.03443-4.2647-4.4567-4.4401-.42226-.17539-.89974 3.19961-1.06106 7.5L280.5 208.5l-4.25.3075-4.25.3075zm-140.45681-35.09606c-16.60916-4.55616-28.7295-18.15847-31.60476-35.46914-4.96446-29.88886 23.72782-56.09344 53.08828-48.48538 19.91169 5.15964 32.95164 21.77756 32.95164 41.99308 0 11.69823-3.88298 21.34683-12.07796 30.01181-10.82107 11.44168-27.28095 16.08527-42.3572 11.94963zm-12.91876-26.49593c-3.26117-3.87568-3.52552-8.54474-.53749-9.4931 3.54907-1.12643 8.41205.40253 14.02822 4.4106C139.24906 130.97422 145.342 134 148.46016 134c3.83292 0 3.05396-1.57913-1.71016-3.46685-2.3375-.92621-7.4-4.06921-11.25-6.98444-9.23784-6.99492-12.8484-8.72827-18.54525-8.90317-6.02741-.18505-8.95475 2.15698-8.95475 7.16428 0 2.79989.82485 4.28452 4.12433 7.42323 3.8015 3.61628 7.84604 6.01646 8.7501 5.19262.20594-.18766-.80656-1.74473-2.25-3.46016zm57.29884-13.5544c1.6922-1.4239 3.07673-3.47124 3.07673-4.54966 0-4.78146-6.35976-12.11097-12.83636-14.79367-4.5296-1.87622-5.08253-.59496-1.32754 3.07623 4.44333 4.34418 5.12328 7.66071 2.07642 10.12791-1.78812 1.44793-3.42857 1.8173-6.52232 1.46859-4.459-.50259-5.75598-1.09169-17.86599-8.11493C136.11144 100.90647 133.6244 100 129.83323 100c-2.59336 0-4.99331.45-5.33323 1-.33992.55.25195 1 1.31526 1 3.702 0 10.49589 3.03629 17.56711 7.851 12.185 8.29661 16.1213 9.92731 24.2909 10.06305 4.18233.0695 5.76263-.40996 8.25-2.50294z"/><path fill="#698d9e" d="M241.32874 208.54224c-1.7442-.75871-3.6567-2.28652-4.25-3.39512-1.1117-2.07722-1.48542-20.03096-.49383-23.7236.96036-3.57634 5.51369-5.42352 13.36904-5.42352 7.46651 0 12.31009 1.63972 13.42487 4.5448 1.16262 3.02975.62334 23.87018-.66062 25.52984-2.9099 3.76132-15.16512 5.17514-21.38946 2.4676zM253.8 200.8c1.36837-1.36837 1.62614-13.57957.32982-15.62418-.50491-.79637-2.19283-1.19497-4.23468-1L246.5 184.5l-.29697 7.40642c-.16333 4.07352-.065 8.01102.21862 8.75.64001 1.66783 5.75457 1.76736 7.37835.14358zM9 196.5V184H1v-8.05805l13.25.27902L27.5 176.5l.30677 3.68973c.30668 3.68865.30552 3.68982-4 4L19.5 184.5l-.28078 12.25-.28078 12.25H9zm24.97143 12c-.01572-.275-.02857-7.25-.02857-15.5s.01286-15.45.02857-16c.0422-1.4772 18.01051-1.23264 21.01196.286 3.364 1.70206 4.68066 5.77411 3.40834 10.54089-.9086 3.40406-.77842 3.95759 1.29925 5.52478C61.71463 194.87812 62 195.95271 62 202.04668V209h-9v-4.98095c0-4.42269-.2688-5.04841-2.39829-5.58288-1.31905-.33106-3.45655-.45213-4.75-.26905-2.08107.29457-2.3865.93706-2.65397 5.58288l-.30226 5.25h-4.44774c-2.44626 0-4.4606-.225-4.47631-.5zM49.5 187.5c0-2.65367-.3752-3.03618-3.25-3.31336-3.12685-.30148-3.25-.17593-3.25 3.31336s.12315 3.61484 3.25 3.31336c2.8748-.27718 3.25-.65969 3.25-3.31336zM68 201.21534c0-7.60462 1.9249-15.30187 5.60758-22.42338C74.97476 176.14814 75.4149 176 81.90323 176c4.30091 0 7.21064.46538 7.8155 1.25.52999.6875 2.16009 4.53824 3.62244 8.55721C95.38312 191.41907 96 194.95723 96 201.05721V209h-4.43963c-4.4084 0-4.44182-.0264-4.75-3.75-.30738-3.71385-.35616-3.75294-5.06037-4.05479l-4.75-.30479V209h-9zm17.59358-8.59861C86.2355 190.94392 83.47936 184 82.17348 184c-1.5819 0-2.96424 2.33802-3.69528 6.25l-.70078 3.75h3.64267c2.17882 0 3.856-.55588 4.17349-1.38327zm21.72179 15.37629C103.76726 206.56345 103 203.74435 103 192.13717 103 177.52408 104.47005 176 118.5651 176H126v8h-5.87756c-7.52939 0-8.29977.93962-7.92018 9.65999L112.5 200.5l6.5.5 6.5.5.31037 3.75.31036 3.75-8.31036-.0634c-4.57071-.0349-9.29345-.45948-10.495-.94359zm24.72338-6.74302c.0311-6.23077.66825-9.41625 3.25-16.25l3.21125-8.5 7.64711-.29021 7.64711-.29021 3.10289 8.12565C159.47802 190.80395 160 193.58641 160 200.58544V209h-4.43963c-4.40841 0-4.44182-.0264-4.75-3.75-.30886-3.7318-.33221-3.75-4.81037-3.75s-4.50151.0182-4.81037 3.75c-.30818 3.72362-.34159 3.75-4.75 3.75H132l.0387-7.75zm17.48305-11c-1.31064-7.01354-3.84951-8.10327-6.13502-2.63327-2.02207 4.8395-1.24982 6.38327 3.19313 6.38327h3.64267zm17.70343 2.5L167.5 176.5h10.84046c10.18679 0 10.95561.14235 12.75 2.36078 2.13821 2.6435 2.5734 9.07536.73822 10.91054-.89509.89509-.54135 1.66685 1.5 3.27258 2.4394 1.91883 2.67132 2.70744 2.67132 9.08347v6.98221l-4.75-.30479-4.75-.30479-.5-5-.5-5-4.25-.3075-4.25-.3075V209h-10.04954zm16.23006-3.60912c.9847-3.10253-.42774-5.14088-3.56228-5.14088-2.63963 0-2.89301.30654-2.89301 3.5 0 3.20435.24772 3.5 2.93261 3.5 1.98028 0 3.12423-.60373 3.52268-1.85912zM203 192.5V176h8.4349c8.46469 0 13.37258 1.10002 14.77944 3.31256 1.15668 1.81911.92621 8.48254-.32003 9.25276-.71272.44049-.17962 1.54205 1.5 3.09949 2.19437 2.03473 2.60569 3.27794 2.60569 7.87566C230 208.15418 228.61408 209 214.5 209H203zm16.41821 9.89301c.938-.35994 1.58179-1.78444 1.58179-3.5 0-2.76209-.20365-2.89301-4.5-2.89301-4.27451 0-4.5.14198-4.5 2.83333 0 1.55834.3 3.13334.66667 3.5.83258.83259 4.64947.86632 6.75154.0597zM217.8 188.8c2.01426-2.01426 1.3898-4.71426-1.24316-5.37509-3.17319-.79642-4.55684.12993-4.55684 3.05077 0 3.23593 3.48985 4.63447 5.8 2.32432zm54.2 3.7575V176h3.37853c2.85896 0 4.10112.84581 8.07732 5.5 2.58434 3.025 5.114 5.5 5.62147 5.5.50748 0 .92268-2.49966.92268-5.55479v-5.55479l4.75.30479 4.75.30479.27477 16.25.27477 16.25H290v-3.6288c0-2.77115-.87186-4.60282-3.68894-7.75-2.02892-2.26666-4.03443-4.2647-4.4567-4.4401-.42226-.17539-.89974 3.19961-1.06106 7.5L280.5 208.5l-4.25.3075-4.25.3075zm-140.45681-35.09606c-16.60916-4.55616-28.7295-18.15847-31.60476-35.46914-4.96446-29.88886 23.72782-56.09344 53.08828-48.48538 19.91169 5.15964 32.95164 21.77756 32.95164 41.99308 0 11.69823-3.88298 21.34683-12.07796 30.01181-10.82107 11.44168-27.28095 16.08527-42.3572 11.94963zM152 153.57033c3.025-.74714 6.625-1.80977 8-2.3614l2.5-1.00296-2.8151-1.10299c-1.5483-.60664-3.3483-1.11121-4-1.12128-.65169-.0101-4.98895-1.58506-9.63834-3.5-4.64939-1.91493-9.6512-3.4817-11.11514-3.4817-3.54851 0-7.93142 3.56435-7.93142 6.45014 0 2.88675 1.77086 4.37814 7.21831 6.07911 5.51939 1.72343 10.91967 1.73591 17.78169.0411zm-33.37557-22.60482c-3.26117-3.87568-3.52552-8.54474-.53749-9.4931 3.54907-1.12643 8.41205.40253 14.02822 4.4106C139.24906 130.97422 145.342 134 148.46016 134c3.83292 0 3.05396-1.57913-1.71016-3.46685-2.3375-.92621-7.4-4.06921-11.25-6.98444-9.23784-6.99492-12.8484-8.72827-18.54525-8.90317-6.02741-.18505-8.95475 2.15698-8.95475 7.16428 0 2.79989.82485 4.28452 4.12433 7.42323 3.8015 3.61628 7.84604 6.01646 8.7501 5.19262.20594-.18766-.80656-1.74473-2.25-3.46016zm57.91823-8.98616c2.35325-1.13919 4.55594-2.7939 4.89487-3.67715 1.19968-3.12632-1.51522-17.65706-4.23395-22.661C174.82633 91.26577 167.77226 84 165.90156 84c-.40614 0-1.74049 1.62136-2.96523 3.60302-2.73013 4.41744-7.3886 7.38826-11.59317 7.39324-1.73626.0021-8.84729-1.86052-15.80229-4.13906-12.04726-3.94682-12.84403-4.07917-16.84316-2.79769-2.30874.73981-5.64781 2.84796-7.42014 4.68478-3.1932 3.30936-6.21992 10.64669-4.92574 11.94088.36975.36974 4.15435.94067 8.41022 1.26872 8.68254.66927 13.75595 2.75915 26.73795 11.0141 4.4 2.79785 9.8 5.54887 12 6.11338 2.2.5645 4.45 1.22004 5 1.45675 2.35429 1.01324 14.10686-.65348 18.04266-2.55877z"/><path fill="#677381" d="M9.78078 196.75L9.5 184.5l-4.30677-.31027c-4.30552-.31018-4.30668-.31135-4-4L1.5 176.5l11-.29087c14.46686-.38255 15.5-.09527 15.5 4.30992C28 183.97795 27.9715 184 23.5 184H19v25h-8.93844zM34 192.38658v-16.61342l10.37099.38391c6.6468.24604 10.94646.8615 11.97354 1.7139 2.15792 1.79092 3.1622 7.72147 1.81007 10.68906-.93425 2.05046-.73069 2.77297 1.37436 4.87802C61.65366 195.56274 62 196.82651 62 202.45455V209h-9v-4.89301C53 198.70646 52.23862 198 46.41821 198H43v11h-9zM49.81336 187.25c.30056-3.11725.16781-3.25-3.25-3.25S43 184.14555 43 187.56336s.13275 3.55056 3.25 3.25c2.85772-.27554 3.28782-.70564 3.56336-3.56336zM68 201.22719c0-6.27474.5906-9.30656 3.06432-15.73074 1.68538-4.37686 3.59788-8.2972 4.25-8.71187.65213-.41468 3.90818-.76085 7.23568-.76927 6.01847-.0152 8.45 1.07351 8.45 3.78356 0 .76938.64622 2.81688 1.43603 4.55 2.45991 5.39783 3.5526 10.89483 3.5584 17.90113L96 209h-9v-3.98095c0-3.36733-.36967-4.07373-2.39829-4.58288-1.31905-.33106-3.45655-.45213-4.75-.26905-1.98784.28138-2.39929.99045-2.6592 4.58288L76.885 209H68zm17.67923-10.81642c-1.14785-7.0734-4.9745-8.60989-6.62665-2.66077-1.63425 5.88466-1.45431 6.25 3.07826 6.25h4.13084zm22.32877 17.69635c-1.3706-.38143-3.05147-1.79908-3.73526-3.15032-1.27295-2.51549-1.75213-19.5678-.66387-23.62492C104.45438 178.17976 109.45732 176.5 118 176.5h7.5l.31037 3.75.31036 3.75h-5.47858c-8.48844 0-8.64215.14953-8.64215 8.40699 0 4.26123.4891 7.68211 1.2 8.39301.66.66 3.81 1.2 7 1.2h5.8v7l-7.75-.0997c-4.2625-.0548-8.8714-.41176-10.242-.7932zm25.20342-9.35712c.29801-6.9697 1.01873-11.53012 2.25203-14.25.99757-2.2 2.27744-5.0125 2.84414-6.25.92149-2.01223 1.75008-2.25 7.84107-2.25h6.81069l1.89829 3.75c1.04406 2.0625 2.21282 5.20734 2.59726 6.98853.38443 1.7812 1.11435 3.49525 1.62204 3.80902.50768.31377.92306 4.59393.92306 9.51147V209h-8.885l-.3075-4.25c-.25992-3.59243-.67136-4.3015-2.65921-4.58288-1.29344-.18308-3.43094-.062-4.75.26905-2.02862.50915-2.39829 1.21555-2.39829 4.58288V209h-8.22684zm16.783-6c-.003-.6875-.47422-2.9375-1.047-5-1.33735-4.81555-4.27513-5.11728-5.84959-.60078C141.08727 192.91671 141.54618 194 146 194c2.53631 0 3.99796-.4574 3.99442-1.25zm17.67225 15.58333C167.3 207.96667 167 200.81481 167 192.44032 167 174.89351 166.29785 176 177.43256 176c8.23491 0 13.15594 1.36259 14.58855 4.03944 1.28757 2.40586 1.24471 6.59535-.093 9.09497-.88339 1.65061-.61954 2.42218 1.5 4.38651 2.25802 2.09266 2.57193 3.18274 2.57193 8.93133V209h-9v-4.3c0-5.26469-1.30528-6.7-6.09301-6.7-4.17165 0-4.90699 1.06124-4.90699 7.08179 0 3.87619-.0411 3.91821-3.83333 3.91821-2.10834 0-4.13334-.3-4.5-.66667zM183.5 187.5c0-2.75966-.2793-3-3.4863-3-2.56814 0-3.57803.47627-3.83458 1.80841-.65745 3.41388.62604 4.83678 4.064 4.50546C183.12546 190.5361 183.5 190.155 183.5 187.5zm19.5 4.96744v-16.70005l10.12091.4065c9.12145.36637 10.30647.63568 12 2.7271 2.07241 2.55931 2.4223 6.2155.87202 9.11222-.79687 1.48896-.48377 2.40504 1.5 4.38881 1.98748 1.98748 2.50707 3.51313 2.50707 7.3614 0 8.12191-.9241 8.6838-14.91736 9.07033L203 209.1675zm17.81336 6.78256c.31162-3.23203.28845-3.25-4.19098-3.25-5.03222 0-6.10219.95216-5.18345 4.61272.56206 2.2394 1.06535 2.46726 4.84415 2.19316 3.95218-.28668 4.23659-.50992 4.53028-3.55588zM218.5 186.5c0-2.63666-.38327-3.03718-3.16453-3.30698-2.48936-.24149-3.30706.14212-3.83261 1.79798-.90312 2.84545 1.23694 5.17858 4.41154 4.80956 2.13943-.2487 2.5856-.81824 2.5856-3.30056zm22.23641 21.80806c-3.34022-.87112-4.73775-5.61686-4.71417-16.0084C236.05323 178.63939 238.395 176 250.48392 176c6.93036 0 11.81099 1.72017 12.8949 4.5448 1.06934 2.78665.67697 22.23866-.50072 24.82339-.61704 1.35427-2.07954 2.7193-3.25 3.0334-2.45316.65833-16.27106.58992-18.89169-.0935zM254.5 193v-8.5l-3.89821-.3192c-4.92816-.40354-5.56717.61096-5.58648 8.8692-.0178 7.61296 1.04178 9.16247 5.98041 8.74572L254.5 201.5zm17.5-.5V176h3.00219c2.974 0 7.89812 4.09997 11.70988 9.75 2.36848 3.51071 3.164 2.71246 3.48803-3.5.26976-5.17218.53622-5.78345 2.65161-6.08288 1.29344-.18308 3.44231-.0592 4.77527.27539l2.42355.60828-.27527 15.7246L299.5 208.5l-4.75.30479-4.75.30479v-3.66088c0-2.60071-.93371-4.86096-3.22416-7.8048-5.93487-7.62788-6.77584-7.20402-6.77584 3.41512V209h-8zm-137-34.60811c-7.39333-1.17527-17.29002-6.36851-22.94732-12.04149-2.55021-2.55729-6.18691-7.73229-8.08156-11.5-3.35446-6.67073-3.44481-7.16514-3.44481-18.8504 0-11.66281.0958-12.19055 3.41124-18.78154 4.3365-8.62095 11.15573-15.44136 19.78091-19.78432 6.6416-3.34418 7.04148-3.41484 19.37785-3.4244 7.86568-.0061 13.12347.41374 14 1.11787.77203.62019 2.52185 1.47155 3.88848 1.89191 3.06422.94252 11.73199 7.3164 14.74961 10.84618 4.31491 5.04725 8.11643 13.61072 9.3005 20.95069 3.87932 24.04776-11.50812 45.96536-34.80846 49.58053-7.87037 1.22113-7.51228 1.22124-15.22644-.005zm22-4.73101c3.025-1.02601 5.3875-2.15693 5.25-2.51317-.1375-.35624-.25-1.0402-.25-1.5199 0-.47971-1.74454-1.15116-3.87675-1.49211-2.13221-.34095-7.19471-2.03922-11.25-3.77393-9.35044-3.99979-14.75144-4.26331-18.33773-.89473-4.68858 4.40396-1.64159 9.99794 6.58728 12.09361 4.77929 1.21716 15.40893.2941 21.8772-1.89977zm-38.37557-22.19537c-3.26117-3.87568-3.52552-8.54474-.53749-9.4931 3.54907-1.12643 8.41205.40253 14.02822 4.4106C139.24906 130.97422 145.342 134 148.46016 134c3.83292 0 3.05396-1.57913-1.71016-3.46685-2.3375-.92621-7.4-4.06921-11.25-6.98444-9.23784-6.99492-12.8484-8.72827-18.54525-8.90317-6.02741-.18505-8.95475 2.15698-8.95475 7.16428 0 2.79989.82485 4.28452 4.12433 7.42323 3.8015 3.61628 7.84604 6.01646 8.7501 5.19262.20594-.18766-.80656-1.74473-2.25-3.46016zm57.61228-7.94848c6.331-2.8053 7.02899-4.37498 5.89459-13.25616-1.4866-11.63855-7.04539-21.5966-14.08888-25.23893-2.99752-1.55008-4.47191-.98751-5.42483 2.0699-1.13627 3.64572-5.22915 6.61134-9.80532 7.10475-3.23447.34875-7.35481-.53274-16.4854-3.52679-10.76741-3.5308-12.67046-3.88-16.47995-3.02407-2.36875.53222-5.66798 2.00588-7.3316 3.27479C109.44528 92.76215 105 100.39471 105 103.32435c0 2.47086 3.2742 3.67565 9.98912 3.67565 6.99203 0 10.69546 1.45028 23.78524 9.3144 8.47442 5.09129 14.62374 8.0742 18.72564 9.08343 3.93969.96932 14.08562-.31988 18.73671-2.3808z"/><path fill="#50956e" d="M10.21503 196.75l.21503-12.25.3167 11.75.31671 11.75H17.93844l.28078-12.25L18.5 183.5l4.18884-.30451c3.6843-.26783 4.23838-.62917 4.60017-3 .37268-2.44223.4254-2.39013.56116.55451.14787 3.20738.09082 3.25-4.35017 3.25H19v25h-9zm24.00768-4l.2227-16.25.30269 15.75.30269 15.75h3.41981c3.36055 0 3.4263-.0823 3.79436-4.75l.37454-4.75.18025 5.25L43 209h-9zm18.95754 11l.18025-5.25.3786 4.84942.3786 4.84943 3.85703-.36783c2.12137-.20231 3.64333-.0221 3.38214.40058-.2612.42262-2.24835.7684-4.41589.7684H53zm15.021-3l.20124-8.25.33978 7.69208.33977 7.69208 3.70898.38982 3.70898.38981-4.25.16811L68 209zm19.94858 5c.13946-3.02493.17868-3.05956.56642-.5.32092 2.11842.96656 2.75 2.81124 2.75 2.31835 0 2.40526-.27878 2.72794-8.75l.3333-8.75.20564 9.25L95 209h-3.5c-3.31279 0-3.49199-.17384-3.35017-3.25zm30.10017 2.51101c5.30269-.33275 5.75-.54754 5.75-2.76101s-.44731-2.42826-5.75-2.76101l-5.75-.36082 6.25-.18909L125 202v7l-6.25-.18908-6.25-.18909zm14.82029-8.01101c.0386-4.8125.39335-9.56975.78822-10.57166.39487-1.00192.5359 2.71058.31341 8.25L133.76739 208h2.55294c2.13085 0 2.61964-.53735 2.95627-3.25.3971-3.19982.4058-3.1921.56336.5.15575 3.64953.0663 3.75-3.33996 3.75H133l.0703-8.75zm18.57284 7.9816c-.26119-.42263 1.26832-.60217 3.39891-.39898l3.87381.36943.33853-8.35103.33853-8.35102.20354 8.75L160 209h-3.94098c-2.16754 0-4.15469-.34578-4.41589-.7684zm20.05451.0489c3.02039-.37728 3.21826-.65941 3.56975-5.08996l.37211-4.69054.18025 5.25L176 209l-3.75-.16004c-3.61683-.15435-3.63645-.17422-.55236-.55945zm15.48261-4.53051l.18025-5.25.37454 4.75c.36753 4.66111.43812 4.75 3.77203 4.75h3.3975l.35503-6.25.35504-6.25.19268 6.75L196 209h-9l.18025-5.25zm16.04246-11l.2227-16.25.30251 15.71409.3025 15.71409 9.72479.32662 9.72479.32662-10.25.20929L203 209l.22271-16.25zm43.55372 15.5165c2.35204-.21124 5.95204-.20827 8 .007 2.04796.21487.12357.38771-4.27643.38408-4.4-.004-6.07561-.17944-3.72357-.39069zm25.44628-15.5165l.2227-16.25.30269 15.75.30269 15.75h5.86159l.34511-7.25.34512-7.25.19869 7.75.1987 7.75h-8zm18.17133 14.83447c-.29875-.77854-.35205-2.69104-.11845-4.25.36307-2.42291.4465-2.29874.57458.85516.14191 3.49449.34817 3.71039 3.89983 4.0819l3.75.39226-3.78138.16811c-2.46164.10943-3.97097-.32594-4.32458-1.24743zm-182.58154-.26757c.72187-.28887 1.58437-.25335 1.91667.0789.33229.33229-.25834.56864-1.3125.52522-1.16495-.048-1.4019-.28494-.60417-.60416zm132 0c.72187-.28887 1.58437-.25335 1.91667.0789.33229.33229-.25834.56864-1.3125.52522-1.16495-.048-1.4019-.28494-.60417-.60416zM104 204.5c0-.825.17686-1.5.39301-1.5.21616 0 .65203.675.96862 1.5.31658.825.13972 1.5-.39301 1.5-.53274 0-.96862-.675-.96862-1.5zm157.80575-11.50985c.30041-12.78587.26545-13.02952-2-13.93836-1.37738-.55258-1.68167-.95054-.75575-.9884 3.35984-.1374 3.95 2.1241 3.95 15.13661 0 7.04-.3375 12.80079-.75 12.80175-.4125.00096-.61241-5.85426-.44425-13.0116zM214.25 203.31067c.9625-.25152 2.5375-.25152 3.5 0 .9625.25153.175.45733-1.75.45733s-2.7125-.2058-1.75-.45733zM229.25218 199.5c.0111-2.2.21589-2.98225.45508-1.73834.23919 1.24391.23011 3.04391-.0202 4-.25029.95609-.446-.0617-.4349-2.26166zm-125.88695-7c.003-5.5.17053-7.62242.37317-4.71648.20265 2.90594.20052 7.40594-.005 10-.20525 2.59406-.37104.21648-.36844-5.28352zm117.55568 6.25091c-.29765-2.14974-.14485-3.37485.35817-2.87183.4825.4825.71609 2.1696.5191 3.7491-.32972 2.64362-.39943 2.5739-.87727-.87727zM236.3605 193c0-5.225.16854-7.3625.37454-4.75s.206 6.8875 0 9.5-.37454.475-.37454-4.75zm-26.20261 6c0-1.375.22698-1.9375.50439-1.25.27741.6875.27741 1.8125 0 2.5s-.50439.125-.50439-1.25zm34.19152-6c0-4.675.17226-6.5875.3828-4.25.21053 2.3375.21053 6.1625 0 8.5-.21054 2.3375-.3828.425-.3828-4.25zM79.75 199.29427c1.2375-.23836 3.2625-.23836 4.5 0 1.2375.23835.225.43337-2.25.43337s-3.4875-.19502-2.25-.43337zM111.33621 193c0-4.125.17651-5.8125.39226-3.75.21574 2.0625.21574 5.4375 0 7.5-.21575 2.0625-.39226.375-.39226-3.75zm32.41379 6.29427c1.2375-.23836 3.2625-.23836 4.5 0 1.2375.23835.225.43337-2.25.43337s-3.4875-.19502-2.25-.43337zM256.33621 193c0-4.125.17651-5.8125.39226-3.75.21574 2.0625.21574 5.4375 0 7.5-.21575 2.0625-.39226.375-.39226-3.75zm-210.57455 3.29274c1.24391-.23919 3.04391-.23011 4 .0202.95609.25029-.06166.446-2.26166.4349-2.2-.0111-2.98225-.21589-1.73834-.45508zm133.48834.01793c.9625-.25152 2.5375-.25152 3.5 0 .9625.25153.175.45733-1.75.45733s-2.7125-.2058-1.75-.45733zm-120.03943-1.91153C58.5014 193.62961 58.36233 193 58.90156 193c1.03844 0 2.54172 1.90221 1.94858 2.46567-.19258.18294-.93038-.297-1.63957-1.06653zm22.72085-.10556c3.26205-.3328 4.02132-.82874 4.37923-2.86046.3791-2.15203.41782-2.11414.31116.30451-.11237 2.54835-.45166 2.76997-4.37923 2.86046l-4.25743.0981 3.94626-.4026zm61.81858.00069c1.2375-.23836 3.2625-.23836 4.5 0 1.2375.23835.225.43337-2.25.43337s-3.4875-.19502-2.25-.43337zM192 194c-.90129-.58246-1.02463-.97549-.30902-.98469.65504-.008 1.4691.43469 1.80902.98469.7673 1.24153.42112 1.24153-1.5 0zm35.5 0c-.33992-.55-.14148-1 .44098-1S229 193.45 229 194s-.19844 1-.44098 1c-.24254 0-.7191-.45-1.05902-1zm55.5-1c-.90129-.58246-1.02463-.97549-.30902-.98469.65504-.008 1.4691.43469 1.80902.98469.7673 1.24153.42112 1.24153-1.5 0zm-206.92105-1.58333c.04798-1.16495.28494-1.4019.60416-.60417.28888.72187.25335 1.58437-.07895 1.91667-.33229.33229-.56864-.25834-.52522-1.3125zM141.15789 191c0-1.375.22698-1.9375.50439-1.25.27741.6875.27741 1.8125 0 2.5s-.50439.125-.50439-1.25zm9.92106.41667c.048-1.16495.28494-1.4019.60416-.60417.28887.72187.25335 1.58437-.0789 1.91667-.3323.33229-.56864-.25834-.52522-1.3125zm-108.6849-.8322c-.29876-.77854-.35206-2.69104-.11846-4.25.36337-2.42488.4464-2.30174.57458.85217.13702 3.37137.42777 3.72113 3.39983 4.08996l3.25.40333-3.28138.16003c-2.0266.0988-3.4891-.38125-3.82458-1.25549zM70.15788 190c0-1.375.22698-1.9375.5044-1.25.2774.6875.2774 1.8125 0 2.5-.27742.6875-.5044.125-.5044-1.25zM178.25 191.31067c.9625-.25152 2.5375-.25152 3.5 0 .9625.25153.175.45733-1.75.45733s-2.7125-.2058-1.75-.45733zm-21.625-3.43567c-.83365-4.16825-.0258-4.97614.875-.875.37968 1.72866.48187 3.35146.22711 3.60623-.25477.25477-.75072-.97429-1.10211-2.73123zm18.62718-.375c.0111-2.2.21589-2.98225.45508-1.73834.23919 1.24391.23011 3.04391-.0202 4-.25029.95609-.446-.0617-.4349-2.26166zm37.99782 2.81067c.9625-.25152 2.5375-.25152 3.5 0 .9625.25153.175.45733-1.75.45733s-2.7125-.2058-1.75-.45733zm-163.11382-2.97734c-.0749-1.74166-.69868-3.39364-1.38618-3.67105-.97906-.39506-.97226-.5215.03139-.58333 1.6469-.10147 2.4977 2.14148 1.93388 5.09832-.34608 1.81498-.47267 1.63049-.57908-.84394zm42.94277 1.08334c.04798-1.16495.28494-1.4019.60416-.60417.28888.72187.25335 1.58437-.07895 1.91667-.33229.33229-.56864-.25834-.52522-1.3125zM184.232 187c0-1.925.2058-2.7125.45733-1.75.25152.9625.25152 2.5375 0 3.5-.25153.9625-.45733.175-.45733-1.75zm-106.15305.41667c.04798-1.16495.28494-1.4019.60416-.60417.28888.72187.25335 1.58437-.07895 1.91667-.33229.33229-.56864-.25834-.52522-1.3125zm71 0c.048-1.16495.28494-1.4019.60416-.60417.28887.72187.25335 1.58437-.0789 1.91667-.3323.33229-.56864-.25834-.52522-1.3125zm-64-1c.04798-1.16495.28494-1.4019.60416-.60417.28888.72187.25335 1.58437-.07895 1.91667-.33229.33229-.56864-.25834-.52522-1.3125zm57 0c.048-1.16495.28494-1.4019.60416-.60417.28887.72187.25335 1.58437-.0789 1.91667-.3323.33229-.56864-.25834-.52522-1.3125zM192.232 185c0-1.925.2058-2.7125.45733-1.75.25152.9625.25152 2.5375 0 3.5-.25153.9625-.45733.175-.45733-1.75zm17.84695 1.41667c.048-1.16495.28494-1.4019.60416-.60417.28887.72187.25335 1.58437-.0789 1.91667-.3323.33229-.56864-.25834-.52522-1.3125zm10 0c.048-1.16495.28494-1.4019.60416-.60417.28887.72187.25335 1.58437-.0789 1.91667-.3323.33229-.56864-.25834-.52522-1.3125zm65.54459.0447c-.96498-2.51469-.68031-3.16355.49853-1.13634.58369 1.00375.8506 2.03566.59313 2.29313-.25747.25747-.74872-.26309-1.09166-1.15679zm-214.5446-1.0447c.04799-1.16495.28495-1.4019.60417-.60417.28888.72187.25335 1.58437-.07895 1.91667-.33229.33229-.56864-.25834-.52522-1.3125zM290 182c0-2.93333.31917-5.01416.70926-4.62407.71452.71452.46133 8.76552-.30004 9.54074C290.18415 187.14583 290 184.93333 290 182zm-198.92105 2.41667c.04798-1.16495.28494-1.4019.60416-.60417.28888.72187.25335 1.58437-.07895 1.91667-.33229.33229-.56864-.25834-.52522-1.3125zM136.14057 185c0-.825.38674-2.4.85943-3.5.54172-1.26064.85943-1.44548.85943-.5 0 .825-.38674 2.4-.85943 3.5-.54172 1.26064-.85943 1.44548-.85943.5zM2.75 183.29427c1.2375-.23836 3.2625-.23836 4.5 0 1.2375.23835.225.43337-2.25.43337s-3.4875-.19502-2.25-.43337zm78.0625.0226c.72188-.28887 1.58438-.25335 1.91667.0789.33229.33229-.25834.56864-1.3125.52522-1.16495-.048-1.4019-.28494-.60417-.60416zm37.87591-.052c4.75503-.33464 5.22281-.59066 5.60017-3.06501.3739-2.45165.42553-2.40107.56159.55012L125 184l-5.75-.18498-5.75-.18498 5.18841-.36515zm128.12409.052c.72187-.28887 1.58437-.25335 1.91667.0789.33229.33229-.25834.56864-1.3125.52522-1.16495-.048-1.4019-.28494-.60417-.60416zm5 0c.72187-.28887 1.58437-.25335 1.91667.0789.33229.33229-.25834.56864-1.3125.52522-1.16495-.048-1.4019-.28494-.60417-.60416zm-178.73355-1.9002c.04798-1.16495.28494-1.4019.60416-.60417.28888.72187.25335 1.58437-.07895 1.91667-.33229.33229-.56864-.25834-.52522-1.3125zm80.74555-.74249c-.37205-1.82482-.23268-2.48236.39346-1.85622.53328.53328.79255 1.8049.57615 2.82582-.29142 1.37482-.54288 1.12336-.96961-.9696zm-96.74555-.25751c.04798-1.16495.28494-1.4019.60416-.60417.28887.72187.25335 1.58437-.07895 1.91667-.33229.33229-.56864-.25834-.52522-1.3125zm33 0c.04798-1.16495.28494-1.4019.60416-.60417.28888.72187.25335 1.58437-.07895 1.91667-.33229.33229-.56864-.25834-.52522-1.3125zm123.67105.92105c.6875-.27741 1.8125-.27741 2.5 0s.125.50439-1.25.50439-1.9375-.22698-1.25-.50439zm24.66519-1.32624c.0593-.81868 1.00261-1.58034 2.09629-1.69258 1.44212-.14799 1.52455-.0656.3.3-.92868.27724-1.87201 1.0389-2.09629 1.69258-.22427.65369-.35927.51869-.3-.3zM190 180.23999c0-.60134-.7875-1.29914-1.75-1.55066-1.57771-.4123-1.58352-.46875-.059-.57333 1.80415-.12376 3.40789 1.61847 2.40916 2.6172-.3301.33007-.60016.10813-.60016-.49321zm35 0c0-.60134-.7875-1.29914-1.75-1.55066-1.57771-.4123-1.58352-.46875-.059-.57333 1.80415-.12376 3.40789 1.61847 2.40916 2.6172-.3301.33007-.60016.10813-.60016-.49321zm-118.23155-1.40844c.5811-.5811 1.64682-.85979 2.36826-.61931.74895.24965.29565.70294-1.05655 1.05655-1.66335.43497-2.05378.30483-1.31171-.43724zm-52.95595-.51466c.72188-.28887 1.58438-.25335 1.91667.0789.33229.33229-.25834.56864-1.3125.52522-1.16495-.048-1.4019-.28494-.60417-.60416zm192.9152-2.03862c1.77523-.22091 4.92523-.22454 7-.008 2.07476.21648.6223.39722-3.2277.40166-3.85.004-5.54754-.17268-3.7723-.39359zM138.25 157.26496c2.6125-.206 6.8875-.206 9.5 0s.475.37454-4.75.37454-7.3625-.16854-4.75-.37454zm-8.5-.92724c.6875-.27741 1.8125-.27741 2.5 0s.125.50439-1.25.50439-1.9375-.22698-1.25-.50439zm24 0c.6875-.27741 1.8125-.27741 2.5 0s.125.50439-1.25.50439-1.9375-.22698-1.25-.50439zm-27.9375-2.02083c.72187-.28887 1.58438-.25335 1.91667.0789.33229.33229-.25834.56864-1.3125.52522-1.16495-.048-1.4019-.28494-.60417-.60416zM159.5 154c1.1-.47269 2.675-.85943 3.5-.85943.94548 0 .76064.31771-.5.85943-1.1.47269-2.675.85943-3.5.85943-.94548 0-.76064-.31771.5-.85943zm-40.99292-2.98855c-.35034-.56686.0511-.7345.94098-.39301 1.73242.66479 2.04939 1.38156.61096 1.38156-.51754 0-1.21592-.44485-1.55194-.98855zM165 151c.825-.53316 1.95-.96937 2.5-.96937s.325.43621-.5.96937-1.95.96937-2.5.96937-.325-.43621.5-.96937zm-50.58377-7.2077c-2.00935-1.76423-4.63835-4.80173-5.84222-6.75-4.30775-6.97139-7.18705-17.75156-6.0022-22.47239.81661-3.25363 6.72922-5.01542 14.24688-4.24518 5.94803.60942 9.76532 2.38934 21.56599 10.05576 11.60685 7.5405 15.7695 8.87408 25.84281 8.27921 4.54988-.26868 9.96001-.80126 12.02251-1.18351 4.26807-.79102 4.84497.51862 2.34501 5.32347C175.24069 139.24656 168.46146 143 160.17178 143c-5.55583 0-8.76441-.87967-17.07117-4.68028-4.25208-1.94547-12.21912-2.12944-15.52802-.35857-1.37905.73805-3.65343 3.07372-5.05417 5.19038-1.40074 2.11666-2.97475 3.84847-3.49781 3.84847-.52306 0-2.59503-1.44346-4.60438-3.2077zm4.2082-12.82679c-3.26117-3.87568-3.52552-8.54474-.53749-9.4931 3.54907-1.12643 8.41205.40253 14.02822 4.4106C139.24906 130.97422 145.342 134 148.46016 134c3.83292 0 3.05396-1.57913-1.71016-3.46685-2.3375-.92621-7.4-4.06921-11.25-6.98444-9.23784-6.99492-12.8484-8.72827-18.54525-8.90317-6.02741-.18505-8.95475 2.15698-8.95475 7.16428 0 2.79989.82485 4.28452 4.12433 7.42323 3.8015 3.61628 7.84604 6.01646 8.7501 5.19262.20594-.18766-.80656-1.74473-2.25-3.46016zM177.0856 141c-.0302-.825.38124-2.175.9144-3 1.18132-1.82797 1.18132-.24909 0 2.5-.56668 1.31874-.87815 1.48906-.9144.5zm-70.74052-2.54313c-.32569-.84872-.36872-1.76657-.0956-2.03966.27309-.2731.73656.42131 1.02992 1.54313.62315 2.38293-.0692 2.75089-.9343.49653zm-2.77365-5.0283c-.36782-1.46551-.47591-2.85742-.24019-3.09314.23571-.23571.72951.77049 1.09733 2.236.36782 1.46551.47591 2.85742.24019 3.09314-.23571.23571-.72951-.77049-1.09733-2.236zm77.50752-1.0119c.048-1.16495.28494-1.4019.60416-.60417.28887.72187.25335 1.58437-.0789 1.91667-.3323.33229-.56864-.25834-.52522-1.3125zM183.15789 128c0-1.375.22698-1.9375.50439-1.25.27741.6875.27741 1.8125 0 2.5s-.50439.125-.50439-1.25zm-81.96294-1.5c.0204-1.65.2445-2.20394.49804-1.23097.25354.97297.23687 2.32297-.037 3-.27393.67703-.48137-.11903-.46099-1.76903zm83.17028-11c.003-5.5.17053-7.62242.37317-4.71648.20265 2.90594.20052 7.40594-.005 10-.20525 2.59406-.37104.21648-.36844-5.28352zm-84.03709 0c.004-3.85.18518-5.30246.40166-3.2277.21647 2.07477.21284 5.22477-.008 7-.22091 1.77524-.39803.0777-.39359-3.7723zm.82975-10.5c0-1.375.22698-1.9375.50439-1.25.27741.6875.27741 1.8125 0 2.5s-.50439.125-.50439-1.25zm82-2c0-1.375.22698-1.9375.50439-1.25.27741.6875.27741 1.8125 0 2.5s-.50439.125-.50439-1.25zm-79.98792-2.5c-.0162-1.1.35734-2.9.83003-4 1.09501-2.54822 1.09501.08083 0 3.5-.64363 2.00973-.8064 2.10779-.83003.5zm77.94603-.66821c-.0638-.91752-.37498-2.49252-.69151-3.5-.54548-1.73622-.51588-1.73885.56728-.05037.62853.97978.9397 2.55478.6915 3.5-.40654 1.54825-.46276 1.55325-.56727.05037zm-3.49246-7.37045c-.96498-2.5147-.68031-3.16355.49853-1.13634.58369 1.00375.8506 2.03566.59313 2.29313-.25747.25747-.74872-.26309-1.09166-1.15679zM137.5 87.09375c-15.98643-5.6126-16.36146-6.07116-7.47406-9.13892 9.62437-3.32214 25.37666-1.97772 28.20875 2.40756 1.27379 1.97237.82811 6.43196-.80612 8.06618-2.44014 2.44015-10.7644 1.88259-19.92857-1.33482zM165 80c-.825-.53316-1.05-.96937-.5-.96937s1.675.43621 2.5.96937 1.05.96937.5.96937-1.675-.43621-2.5-.96937zm-41.5-3c1.1-.47269 2.675-.85943 3.5-.85943.94548 0 .76064.31771-.5.85943-1.1.47269-2.675.85943-3.5.85943-.94548 0-.76064-.31771.5-.85943zm34.3125-.68311c.72187-.28888 1.58437-.25335 1.91667.07895.33229.33229-.25834.56864-1.3125.52522-1.16495-.04798-1.4019-.28494-.60417-.60417zM130.26903 74.307c.97297-.25354 2.32297-.23687 3 .03705.67703.27392-.11903.48137-1.76903.46099-1.65-.02038-2.20394-.2445-1.23097-.49805zm22.48097.0307c.6875-.2774 1.8125-.2774 2.5 0 .6875.27742.125.5044-1.25.5044s-1.9375-.22698-1.25-.5044zm-14-1.06992c2.3375-.21053 6.1625-.21053 8.5 0 2.3375.21054.425.3828-4.25.3828s-6.5875-.17226-4.25-.3828z"/><path fill="#5e6c7a" d="M10.21503 196.75l.21503-12.25.3167 11.75.31671 11.75H17.93844l.28078-12.25L18.5 183.5l4.18884-.30451c3.6843-.26783 4.23838-.62917 4.60017-3 .37268-2.44223.4254-2.39013.56116.55451.14787 3.20738.09082 3.25-4.35017 3.25H19v25h-9zm24.00768-4l.2227-16.25.30269 15.75.30269 15.75h3.41981c3.36055 0 3.4263-.0823 3.79436-4.75l.37454-4.75.18025 5.25L43 209h-9zm18.95754 11l.18025-5.25.3786 4.84942.3786 4.84943 3.85703-.36783c2.12137-.20231 3.64333-.0221 3.38214.40058-.2612.42262-2.24835.7684-4.41589.7684H53zm15.021-3l.20124-8.25.33978 7.69208.33977 7.69208 3.70898.38982 3.70898.38981-4.25.16811L68 209zm19.94858 5c.13946-3.02493.17868-3.05956.56642-.5.32092 2.11842.96656 2.75 2.81124 2.75 2.31835 0 2.40526-.27878 2.72794-8.75l.3333-8.75.20564 9.25L95 209h-3.5c-3.31279 0-3.49199-.17384-3.35017-3.25zm30.10017 2.51101c5.30269-.33275 5.75-.54754 5.75-2.76101s-.44731-2.42826-5.75-2.76101l-5.75-.36082 6.25-.18909L125 202v7l-6.25-.18908-6.25-.18909zm14.82029-8.01101c.0386-4.8125.39335-9.56975.78822-10.57166.39487-1.00192.5359 2.71058.31341 8.25L133.76739 208h2.55294c2.13085 0 2.61964-.53735 2.95627-3.25.3971-3.19982.4058-3.1921.56336.5.15575 3.64953.0663 3.75-3.33996 3.75H133l.0703-8.75zm18.57284 7.9816c-.26119-.42263 1.26832-.60217 3.39891-.39898l3.87381.36943.33853-8.35103.33853-8.35102.20354 8.75L160 209h-3.94098c-2.16754 0-4.15469-.34578-4.41589-.7684zm20.05451.0489c3.02039-.37728 3.21826-.65941 3.56975-5.08996l.37211-4.69054.18025 5.25L176 209l-3.75-.16004c-3.61683-.15435-3.63645-.17422-.55236-.55945zm15.48261-4.53051l.18025-5.25.37454 4.75c.36753 4.66111.43812 4.75 3.77203 4.75h3.3975l.35503-6.25.35504-6.25.19268 6.75L196 209h-9l.18025-5.25zm16.04246-11l.2227-16.25.30251 15.71409.3025 15.71409 9.72479.32662 9.72479.32662-10.25.20929L203 209l.22271-16.25zm43.55372 15.5165c2.35204-.21124 5.95204-.20827 8 .007 2.04796.21487.12357.38771-4.27643.38408-4.4-.004-6.07561-.17944-3.72357-.39069zm25.44628-15.5165l.2227-16.25.30269 15.75.30269 15.75h5.86159l.34511-7.25.34512-7.25.19869 7.75.1987 7.75h-8zm18.17133 14.83447c-.29875-.77854-.35205-2.69104-.11845-4.25.36307-2.42291.4465-2.29874.57458.85516.14191 3.49449.34817 3.71039 3.89983 4.0819l3.75.39226-3.78138.16811c-2.46164.10943-3.97097-.32594-4.32458-1.24743zm-182.58154-.26757c.72187-.28887 1.58437-.25335 1.91667.0789.33229.33229-.25834.56864-1.3125.52522-1.16495-.048-1.4019-.28494-.60417-.60416zm132 0c.72187-.28887 1.58437-.25335 1.91667.0789.33229.33229-.25834.56864-1.3125.52522-1.16495-.048-1.4019-.28494-.60417-.60416zM104 204.5c0-.825.17686-1.5.39301-1.5.21616 0 .65203.675.96862 1.5.31658.825.13972 1.5-.39301 1.5-.53274 0-.96862-.675-.96862-1.5zm157.80575-11.50985c.30041-12.78587.26545-13.02952-2-13.93836-1.37738-.55258-1.68167-.95054-.75575-.9884 3.35984-.1374 3.95 2.1241 3.95 15.13661 0 7.04-.3375 12.80079-.75 12.80175-.4125.00096-.61241-5.85426-.44425-13.0116zM214.25 203.31067c.9625-.25152 2.5375-.25152 3.5 0 .9625.25153.175.45733-1.75.45733s-2.7125-.2058-1.75-.45733zM229.25218 199.5c.0111-2.2.21589-2.98225.45508-1.73834.23919 1.24391.23011 3.04391-.0202 4-.25029.95609-.446-.0617-.4349-2.26166zm-125.88695-7c.003-5.5.17053-7.62242.37317-4.71648.20265 2.90594.20052 7.40594-.005 10-.20525 2.59406-.37104.21648-.36844-5.28352zm117.55568 6.25091c-.29765-2.14974-.14485-3.37485.35817-2.87183.4825.4825.71609 2.1696.5191 3.7491-.32972 2.64362-.39943 2.5739-.87727-.87727zM236.3605 193c0-5.225.16854-7.3625.37454-4.75s.206 6.8875 0 9.5-.37454.475-.37454-4.75zm-26.20261 6c0-1.375.22698-1.9375.50439-1.25.27741.6875.27741 1.8125 0 2.5s-.50439.125-.50439-1.25zm34.19152-6c0-4.675.17226-6.5875.3828-4.25.21053 2.3375.21053 6.1625 0 8.5-.21054 2.3375-.3828.425-.3828-4.25zM79.75 199.29427c1.2375-.23836 3.2625-.23836 4.5 0 1.2375.23835.225.43337-2.25.43337s-3.4875-.19502-2.25-.43337zM111.33621 193c0-4.125.17651-5.8125.39226-3.75.21574 2.0625.21574 5.4375 0 7.5-.21575 2.0625-.39226.375-.39226-3.75zm32.41379 6.29427c1.2375-.23836 3.2625-.23836 4.5 0 1.2375.23835.225.43337-2.25.43337s-3.4875-.19502-2.25-.43337zM256.33621 193c0-4.125.17651-5.8125.39226-3.75.21574 2.0625.21574 5.4375 0 7.5-.21575 2.0625-.39226.375-.39226-3.75zm-210.57455 3.29274c1.24391-.23919 3.04391-.23011 4 .0202.95609.25029-.06166.446-2.26166.4349-2.2-.0111-2.98225-.21589-1.73834-.45508zm133.48834.01793c.9625-.25152 2.5375-.25152 3.5 0 .9625.25153.175.45733-1.75.45733s-2.7125-.2058-1.75-.45733zm-120.03943-1.91153C58.5014 193.62961 58.36233 193 58.90156 193c1.03844 0 2.54172 1.90221 1.94858 2.46567-.19258.18294-.93038-.297-1.63957-1.06653zm22.72085-.10556c3.26205-.3328 4.02132-.82874 4.37923-2.86046.3791-2.15203.41782-2.11414.31116.30451-.11237 2.54835-.45166 2.76997-4.37923 2.86046l-4.25743.0981 3.94626-.4026zm61.81858.00069c1.2375-.23836 3.2625-.23836 4.5 0 1.2375.23835.225.43337-2.25.43337s-3.4875-.19502-2.25-.43337zM192 194c-.90129-.58246-1.02463-.97549-.30902-.98469.65504-.008 1.4691.43469 1.80902.98469.7673 1.24153.42112 1.24153-1.5 0zm35.5 0c-.33992-.55-.14148-1 .44098-1S229 193.45 229 194s-.19844 1-.44098 1c-.24254 0-.7191-.45-1.05902-1zm55.5-1c-.90129-.58246-1.02463-.97549-.30902-.98469.65504-.008 1.4691.43469 1.80902.98469.7673 1.24153.42112 1.24153-1.5 0zm-206.92105-1.58333c.04798-1.16495.28494-1.4019.60416-.60417.28888.72187.25335 1.58437-.07895 1.91667-.33229.33229-.56864-.25834-.52522-1.3125zM141.15789 191c0-1.375.22698-1.9375.50439-1.25.27741.6875.27741 1.8125 0 2.5s-.50439.125-.50439-1.25zm9.92106.41667c.048-1.16495.28494-1.4019.60416-.60417.28887.72187.25335 1.58437-.0789 1.91667-.3323.33229-.56864-.25834-.52522-1.3125zm-108.6849-.8322c-.29876-.77854-.35206-2.69104-.11846-4.25.36337-2.42488.4464-2.30174.57458.85217.13702 3.37137.42777 3.72113 3.39983 4.08996l3.25.40333-3.28138.16003c-2.0266.0988-3.4891-.38125-3.82458-1.25549zM70.15788 190c0-1.375.22698-1.9375.5044-1.25.2774.6875.2774 1.8125 0 2.5-.27742.6875-.5044.125-.5044-1.25zM178.25 191.31067c.9625-.25152 2.5375-.25152 3.5 0 .9625.25153.175.45733-1.75.45733s-2.7125-.2058-1.75-.45733zm-21.625-3.43567c-.83365-4.16825-.0258-4.97614.875-.875.37968 1.72866.48187 3.35146.22711 3.60623-.25477.25477-.75072-.97429-1.10211-2.73123zm18.62718-.375c.0111-2.2.21589-2.98225.45508-1.73834.23919 1.24391.23011 3.04391-.0202 4-.25029.95609-.446-.0617-.4349-2.26166zm37.99782 2.81067c.9625-.25152 2.5375-.25152 3.5 0 .9625.25153.175.45733-1.75.45733s-2.7125-.2058-1.75-.45733zm-163.11382-2.97734c-.0749-1.74166-.69868-3.39364-1.38618-3.67105-.97906-.39506-.97226-.5215.03139-.58333 1.6469-.10147 2.4977 2.14148 1.93388 5.09832-.34608 1.81498-.47267 1.63049-.57908-.84394zm42.94277 1.08334c.04798-1.16495.28494-1.4019.60416-.60417.28888.72187.25335 1.58437-.07895 1.91667-.33229.33229-.56864-.25834-.52522-1.3125zM184.232 187c0-1.925.2058-2.7125.45733-1.75.25152.9625.25152 2.5375 0 3.5-.25153.9625-.45733.175-.45733-1.75zm-106.15305.41667c.04798-1.16495.28494-1.4019.60416-.60417.28888.72187.25335 1.58437-.07895 1.91667-.33229.33229-.56864-.25834-.52522-1.3125zm71 0c.048-1.16495.28494-1.4019.60416-.60417.28887.72187.25335 1.58437-.0789 1.91667-.3323.33229-.56864-.25834-.52522-1.3125zm-64-1c.04798-1.16495.28494-1.4019.60416-.60417.28888.72187.25335 1.58437-.07895 1.91667-.33229.33229-.56864-.25834-.52522-1.3125zm57 0c.048-1.16495.28494-1.4019.60416-.60417.28887.72187.25335 1.58437-.0789 1.91667-.3323.33229-.56864-.25834-.52522-1.3125zM192.232 185c0-1.925.2058-2.7125.45733-1.75.25152.9625.25152 2.5375 0 3.5-.25153.9625-.45733.175-.45733-1.75zm17.84695 1.41667c.048-1.16495.28494-1.4019.60416-.60417.28887.72187.25335 1.58437-.0789 1.91667-.3323.33229-.56864-.25834-.52522-1.3125zm10 0c.048-1.16495.28494-1.4019.60416-.60417.28887.72187.25335 1.58437-.0789 1.91667-.3323.33229-.56864-.25834-.52522-1.3125zm65.54459.0447c-.96498-2.51469-.68031-3.16355.49853-1.13634.58369 1.00375.8506 2.03566.59313 2.29313-.25747.25747-.74872-.26309-1.09166-1.15679zm-214.5446-1.0447c.04799-1.16495.28495-1.4019.60417-.60417.28888.72187.25335 1.58437-.07895 1.91667-.33229.33229-.56864-.25834-.52522-1.3125zM290 182c0-2.93333.31917-5.01416.70926-4.62407.71452.71452.46133 8.76552-.30004 9.54074C290.18415 187.14583 290 184.93333 290 182zm-198.92105 2.41667c.04798-1.16495.28494-1.4019.60416-.60417.28888.72187.25335 1.58437-.07895 1.91667-.33229.33229-.56864-.25834-.52522-1.3125zM136.14057 185c0-.825.38674-2.4.85943-3.5.54172-1.26064.85943-1.44548.85943-.5 0 .825-.38674 2.4-.85943 3.5-.54172 1.26064-.85943 1.44548-.85943.5zM2.75 183.29427c1.2375-.23836 3.2625-.23836 4.5 0 1.2375.23835.225.43337-2.25.43337s-3.4875-.19502-2.25-.43337zm78.0625.0226c.72188-.28887 1.58438-.25335 1.91667.0789.33229.33229-.25834.56864-1.3125.52522-1.16495-.048-1.4019-.28494-.60417-.60416zm37.87591-.052c4.75503-.33464 5.22281-.59066 5.60017-3.06501.3739-2.45165.42553-2.40107.56159.55012L125 184l-5.75-.18498-5.75-.18498 5.18841-.36515zm128.12409.052c.72187-.28887 1.58437-.25335 1.91667.0789.33229.33229-.25834.56864-1.3125.52522-1.16495-.048-1.4019-.28494-.60417-.60416zm5 0c.72187-.28887 1.58437-.25335 1.91667.0789.33229.33229-.25834.56864-1.3125.52522-1.16495-.048-1.4019-.28494-.60417-.60416zm-178.73355-1.9002c.04798-1.16495.28494-1.4019.60416-.60417.28888.72187.25335 1.58437-.07895 1.91667-.33229.33229-.56864-.25834-.52522-1.3125zm80.74555-.74249c-.37205-1.82482-.23268-2.48236.39346-1.85622.53328.53328.79255 1.8049.57615 2.82582-.29142 1.37482-.54288 1.12336-.96961-.9696zm-96.74555-.25751c.04798-1.16495.28494-1.4019.60416-.60417.28887.72187.25335 1.58437-.07895 1.91667-.33229.33229-.56864-.25834-.52522-1.3125zm33 0c.04798-1.16495.28494-1.4019.60416-.60417.28888.72187.25335 1.58437-.07895 1.91667-.33229.33229-.56864-.25834-.52522-1.3125zm123.67105.92105c.6875-.27741 1.8125-.27741 2.5 0s.125.50439-1.25.50439-1.9375-.22698-1.25-.50439zm24.66519-1.32624c.0593-.81868 1.00261-1.58034 2.09629-1.69258 1.44212-.14799 1.52455-.0656.3.3-.92868.27724-1.87201 1.0389-2.09629 1.69258-.22427.65369-.35927.51869-.3-.3zM190 180.23999c0-.60134-.7875-1.29914-1.75-1.55066-1.57771-.4123-1.58352-.46875-.059-.57333 1.80415-.12376 3.40789 1.61847 2.40916 2.6172-.3301.33007-.60016.10813-.60016-.49321zm35 0c0-.60134-.7875-1.29914-1.75-1.55066-1.57771-.4123-1.58352-.46875-.059-.57333 1.80415-.12376 3.40789 1.61847 2.40916 2.6172-.3301.33007-.60016.10813-.60016-.49321zm-118.23155-1.40844c.5811-.5811 1.64682-.85979 2.36826-.61931.74895.24965.29565.70294-1.05655 1.05655-1.66335.43497-2.05378.30483-1.31171-.43724zm-52.95595-.51466c.72188-.28887 1.58438-.25335 1.91667.0789.33229.33229-.25834.56864-1.3125.52522-1.16495-.048-1.4019-.28494-.60417-.60416zm192.9152-2.03862c1.77523-.22091 4.92523-.22454 7-.008 2.07476.21648.6223.39722-3.2277.40166-3.85.004-5.54754-.17268-3.7723-.39359zM138.25 157.26496c2.6125-.206 6.8875-.206 9.5 0s.475.37454-4.75.37454-7.3625-.16854-4.75-.37454zm-8.5-.92724c.6875-.27741 1.8125-.27741 2.5 0s.125.50439-1.25.50439-1.9375-.22698-1.25-.50439zm24 0c.6875-.27741 1.8125-.27741 2.5 0s.125.50439-1.25.50439-1.9375-.22698-1.25-.50439zm-27.9375-2.02083c.72187-.28887 1.58438-.25335 1.91667.0789.33229.33229-.25834.56864-1.3125.52522-1.16495-.048-1.4019-.28494-.60417-.60416zM159.5 154c1.1-.47269 2.675-.85943 3.5-.85943.94548 0 .76064.31771-.5.85943-1.1.47269-2.675.85943-3.5.85943-.94548 0-.76064-.31771.5-.85943zm-40.99292-2.98855c-.35034-.56686.0511-.7345.94098-.39301 1.73242.66479 2.04939 1.38156.61096 1.38156-.51754 0-1.21592-.44485-1.55194-.98855zM165 151c.825-.53316 1.95-.96937 2.5-.96937s.325.43621-.5.96937-1.95.96937-2.5.96937-.325-.43621.5-.96937zm-51.56877-9.51614c-5.04429-5.04429-7.80456-10.6422-9.33812-18.93802-1.71975-9.30297.16341-11.5025 9.87346-11.53219 5.3794-.0164 11.94459 2.28026 18.03343 6.30865 12.75616 8.4395 17.43666 10.79719 24.31107 12.24609 6.51089 1.37228 7.88033 1.36165 14.51947-.11273 4.03179-.89535 7.54566-1.4128 7.80858-1.14987 1.1632 1.16319-2.76525 7.68841-6.20849 10.31239-3.50963 2.67458-4.39821 2.87708-12.3561 2.81596-7.10439-.0546-9.56087-.52412-14.32734-2.73863-11.37498-5.28485-18.36373-4.25429-23.46931 3.46078-1.39901 2.11404-2.9457 3.84371-3.43708 3.84371-.49139 0-2.92569-2.03226-5.40957-4.51614zm8.54099-7.23386c-.0153-.4125-1.36528-2.0625-3-3.66667-3.50012-3.4347-3.85455-7.04075-.85005-8.64871 3.22144-1.72406 7.42692-.40446 14.5256 4.55787C141.19126 132.46482 144.30836 134 147.89132 134c4.22705 0 4.6682-1.55019.84597-2.97272-5.30194-1.97324-9.05757-4.14087-12.23729-7.06297-1.65-1.51632-5.40382-4.21762-8.34182-6.0029-4.34241-2.63866-6.4572-3.26611-11.30353-3.35368-5.2457-.0948-6.19283.19253-7.88595 2.39227-2.61535 3.39791-2.45284 5.49416.7813 10.07868 3.12602 4.43124 12.32055 9.82609 12.22222 7.17132zM177.0856 141c-.0302-.825.38124-2.175.9144-3 1.18132-1.82797 1.18132-.24909 0 2.5-.56668 1.31874-.87815 1.48906-.9144.5zm-70.74052-2.54313c-.32569-.84872-.36872-1.76657-.0956-2.03966.27309-.2731.73656.42131 1.02992 1.54313.62315 2.38293-.0692 2.75089-.9343.49653zm-2.77365-5.0283c-.36782-1.46551-.47591-2.85742-.24019-3.09314.23571-.23571.72951.77049 1.09733 2.236.36782 1.46551.47591 2.85742.24019 3.09314-.23571.23571-.72951-.77049-1.09733-2.236zm77.50752-1.0119c.048-1.16495.28494-1.4019.60416-.60417.28887.72187.25335 1.58437-.0789 1.91667-.3323.33229-.56864-.25834-.52522-1.3125zM183.15789 128c0-1.375.22698-1.9375.50439-1.25.27741.6875.27741 1.8125 0 2.5s-.50439.125-.50439-1.25zm-81.96294-1.5c.0204-1.65.2445-2.20394.49804-1.23097.25354.97297.23687 2.32297-.037 3-.27393.67703-.48137-.11903-.46099-1.76903zm83.17028-11c.003-5.5.17053-7.62242.37317-4.71648.20265 2.90594.20052 7.40594-.005 10-.20525 2.59406-.37104.21648-.36844-5.28352zm-84.03709 0c.004-3.85.18518-5.30246.40166-3.2277.21647 2.07477.21284 5.22477-.008 7-.22091 1.77524-.39803.0777-.39359-3.7723zm.82975-10.5c0-1.375.22698-1.9375.50439-1.25.27741.6875.27741 1.8125 0 2.5s-.50439.125-.50439-1.25zm82-2c0-1.375.22698-1.9375.50439-1.25.27741.6875.27741 1.8125 0 2.5s-.50439.125-.50439-1.25zm-79.98792-2.5c-.0162-1.1.35734-2.9.83003-4 1.09501-2.54822 1.09501.08083 0 3.5-.64363 2.00973-.8064 2.10779-.83003.5zm77.94603-.66821c-.0638-.91752-.37498-2.49252-.69151-3.5-.54548-1.73622-.51588-1.73885.56728-.05037.62853.97978.9397 2.55478.6915 3.5-.40654 1.54825-.46276 1.55325-.56727.05037zm-3.49246-7.37045c-.96498-2.5147-.68031-3.16355.49853-1.13634.58369 1.00375.8506 2.03566.59313 2.29313-.25747.25747-.74872-.26309-1.09166-1.15679zm-34.88175-4.463C136.43499 86.10104 126 81.76988 126 81.04946c0-.42662 2.49102-1.5592 5.5356-2.51684 7.68875-2.4184 20.20164-1.86287 24.14689 1.07206 7.97228 5.93067-1.24804 11.91119-12.9407 8.39366zM165 80c-.825-.53316-1.05-.96937-.5-.96937s1.675.43621 2.5.96937 1.05.96937.5.96937-1.675-.43621-2.5-.96937zm-41.5-3c1.1-.47269 2.675-.85943 3.5-.85943.94548 0 .76064.31771-.5.85943-1.1.47269-2.675.85943-3.5.85943-.94548 0-.76064-.31771.5-.85943zm34.3125-.68311c.72187-.28888 1.58437-.25335 1.91667.07895.33229.33229-.25834.56864-1.3125.52522-1.16495-.04798-1.4019-.28494-.60417-.60417zM130.26903 74.307c.97297-.25354 2.32297-.23687 3 .03705.67703.27392-.11903.48137-1.76903.46099-1.65-.02038-2.20394-.2445-1.23097-.49805zm22.48097.0307c.6875-.2774 1.8125-.2774 2.5 0 .6875.27742.125.5044-1.25.5044s-1.9375-.22698-1.25-.5044zm-14-1.06992c2.3375-.21053 6.1625-.21053 8.5 0 2.3375.21054.425.3828-4.25.3828s-6.5875-.17226-4.25-.3828z"/><path fill="#27c151" d="M113.43123 141.48386c-5.04429-5.04429-7.80456-10.6422-9.33812-18.93802-1.71975-9.30297.16341-11.5025 9.87346-11.53219 5.3794-.0164 11.94459 2.28026 18.03343 6.30865 12.75616 8.4395 17.43666 10.79719 24.31107 12.24609 6.51089 1.37228 7.88033 1.36165 14.51947-.11273 4.03179-.89535 7.54566-1.4128 7.80858-1.14987 1.1632 1.16319-2.76525 7.68841-6.20849 10.31239-3.50963 2.67458-4.39821 2.87708-12.3561 2.81596-7.10439-.0546-9.56087-.52412-14.32734-2.73863-11.37498-5.28485-18.36373-4.25429-23.46931 3.46078-1.39901 2.11404-2.9457 3.84371-3.43708 3.84371-.49139 0-2.92569-2.03226-5.40957-4.51614zm8.54099-7.23386c-.0153-.4125-1.36528-2.0625-3-3.66667-3.50012-3.4347-3.85455-7.04075-.85005-8.64871 3.22144-1.72406 7.42692-.40446 14.5256 4.55787C141.19126 132.46482 144.30836 134 147.89132 134c4.22705 0 4.6682-1.55019.84597-2.97272-5.30194-1.97324-9.05757-4.14087-12.23729-7.06297-1.65-1.51632-5.40382-4.21762-8.34182-6.0029-4.34241-2.63866-6.4572-3.26611-11.30353-3.35368-5.2457-.0948-6.19283.19253-7.88595 2.39227-2.61535 3.39791-2.45284 5.49416.7813 10.07868 3.12602 4.43124 12.32055 9.82609 12.22222 7.17132zm20.76957-46.25166C136.43499 86.10104 126 81.76988 126 81.04946c0-.42662 2.49102-1.5592 5.5356-2.51684 7.68875-2.4184 20.20164-1.86287 24.14689 1.07206 7.97228 5.93067-1.24804 11.91119-12.9407 8.39366z"/></g></svg>