<svg xmlns="http://www.w3.org/2000/svg" role="img" viewBox="-6.07 -12.57 315.64 213.89"><title>Trash-ICRA19 logo</title><path d="M296.0906 149.11435c.3198.09343.5668.2544.7462.4819.1781.22903.2665.50173.2665.81911 0 .29758-.0767.56672-.2353.80742-.1521.24324-.3861.42351-.6981.54336-.3094.11833-.6409.17824-.9854.17824h-1.378v-2.96917h1.378c.2795 0 .5811.0467.9061.13914zm-1.0998 4.30269c.5343 0 .9386.07261 1.2194.21734.2756.14676.4758.3443.5941.59414.1222.25188.1989.65356.234 1.21774.0429.78812.0949 1.25988.1638 1.40918h1.9838c-.0793-.25847-.1287-.66829-.143-1.22942-.013-.56062-.0455-.96078-.0975-1.19742-.0806-.36918-.2028-.67743-.3718-.9298-.1729-.2468-.3861-.44688-.6474-.58754-.2587-.14422-.6019-.26-1.0296-.34836.4836-.05992.8281-.13762 1.0296-.23918.377-.18687.6786-.46262.9061-.82266.2288-.36308.3419-.77746.3419-1.24921 0-.48243-.1079-.90493-.3198-1.2675-.2132-.3631-.4888-.65-.8242-.87395-.3367-.21938-.7683-.37934-1.2961-.47934-.3757-.06812-.9295-.09906-1.6614-.09906h-3.3488v9.32344h2.0826v-3.4384h1.1843zm7.9677-4.70489c-.3835-.86023-.9282-1.65439-1.6354-2.38421-.7098-.73177-1.5847-1.33861-2.6208-1.82-1.0374-.4875-2.1814-.72917-3.4333-.72917-1.2857 0-2.509.27976-3.6621.8359-.8411.40313-1.6172.95719-2.3335 1.6575-.7072.70226-1.2922 1.56909-1.7446 2.60248-.4563 1.03493-.6838 2.14907-.6838 3.33989 0 1.47418.3731 2.88082 1.1154 4.21738.7475 1.33098 1.7849 2.36996 3.1135 3.1134 1.3299.74598 2.7287 1.11668 4.1951 1.11668 1.3039 0 2.5298-.2793 3.6881-.84348.8879-.43316 1.7004-1.02578 2.4323-1.77988.7358-.75004 1.3039-1.64328 1.7121-2.67262.4017-1.02831.6058-2.08.6058-3.15149 0-1.19843-.2496-2.36741-.7488-3.50238zm-5.0323-3.15498c.871.34723 1.6198.83473 2.2568 1.46146.6344.62413 1.1349 1.31013 1.4963 2.06423.4771.97906.715 2.02667.715 3.13167 0 1.25837-.3185 2.45732-.949 3.58821-.6331 1.1375-1.5106 2.02009-2.6364 2.65332-1.1232.63427-2.3023.9486-3.5399.9486-1.2272 0-2.405-.31433-3.5269-.9486-1.1258-.63323-2.0072-1.51582-2.6364-2.65332-.6357-1.1309-.9503-2.32984-.9503-3.5882 0-1.06996.2041-2.04496.6149-2.92094.4069-.8775.9191-1.61993 1.5392-2.22167.6188-.60333 1.2935-1.07003 2.0228-1.39399.9594-.43004 1.9409-.64181 2.9367-.64181.9035 0 1.7901.1742 2.6572.52104m-34.6814-27.52958l-49.2206-81.82226h13.5577V-6.4296H145.652v42.63493h13.559L140.4 67.4637l-18.80177-31.25837h13.55627V-6.4296H53.22538v42.63493h13.55445L17.5591 118.02759H0V160.662h83.56049v-42.63441H68.54965l25.64198-42.62583 9.94045 16.52937h-9.53264v42.63493h91.60476V91.93113h-9.529l9.9411-16.52937 25.6386 42.62583h-15.0098V160.662h83.5536v-42.63441h-17.5539" fill="#fc3"/><path d="M46.49563 168.17555H25.0934v4.68015h7.9379v21.73872h5.55704V172.8557h7.9073zm13.66318 6.42373c-.06628-.0051-.14275-.0051-.23961-.0051-1.52946 0-2.77343.39766-3.72679 1.19808-.5863.47923-1.27455 1.37142-2.06477 2.67146v-3.4056h-4.87388v19.5363h5.14408v-9.3348c0-1.57025.19883-2.72754.5914-3.48207.70355-1.33573 2.08516-2.0036 4.13973-2.0036.15805 0 .36198.0051.61179.0153.24981.0153.5353.03569.8565.07137v-5.23075c-.22432-.0153-.37217-.0204-.43845-.03059zm14.20359 10.4972v1.90162c-.0357 1.7079-.51492 2.88558-1.4428 3.52796-.92277.64747-1.93731.96866-3.03342.96866-.69336 0-1.28475-.19374-1.76908-.5812-.48433-.38746-.72394-1.01964-.72394-1.89143 0-.97886.39256-1.7028 1.18278-2.17183.46394-.2753 1.23886-.50473 2.30948-.69846l1.1471-.21412c.5761-.10706 1.02474-.22432 1.35612-.34668.32628-.12746.65257-.2906.97376-.49453zm-3.09971-2.38596l-1.73849.21412c-1.9679.25491-3.46167.67296-4.48131 1.25926-1.85065 1.07572-2.77852 2.8142-2.77852 5.21546 0 1.85064.5812 3.28324 1.73339 4.29268 1.15219 1.00944 2.61027 1.51416 4.37935 1.51416 1.38671 0 2.63067-.31608 3.73188-.95336.91768-.53531 1.7283-1.18788 2.43694-1.9526.03569.44353.08157.8361.14275 1.18277.05608.34668.16824.71885.32119 1.11141h5.55704v-.75453c-.33649-.15295-.5863-.35178-.75454-.5914-.16824-.23451-.2702-.68825-.30589-1.36121-.0204-.882-.03569-1.63653-.03569-2.2585v-8.95754c0-2.35537-.8259-3.9562-2.48792-4.8076-1.66201-.8463-3.56364-1.26946-5.69979-1.26946-3.28834 0-5.60292.8565-6.95394 2.5797-.8514 1.1012-1.32553 2.5032-1.4377 4.2111h4.92997c.12235-.75453.36197-1.35102.71884-1.78946.49963-.6016 1.35612-.89729 2.5644-.89729 1.07572 0 1.89143.15295 2.44713.45374.5506.3059.831.8616.831 1.66202 0 .65766-.36196 1.1369-1.091 1.44788-.40786.18354-1.08592.33139-2.02909.44865zm.2702-8.17242zm16.4519 13.82122h-5.17977c0 2.0036.73414 3.65541 2.19732 4.95545 1.46318 1.29495 3.73188 1.94242 6.801 1.94242 3.01303 0 5.23585-.61179 6.67864-1.83536 1.4377-1.22356 2.15654-2.804 2.15654-4.74132 0-1.46828-.49962-2.69695-1.50397-3.6758-1.01454-.96866-2.5389-1.6875-4.56799-2.16674-3.04872-.66786-4.8229-1.142-5.32762-1.4173-.49962-.26-.74943-.68825-.74943-1.26945 0-.46903.23452-.87689.70865-1.22357.46903-.34158 1.26435-.51492 2.37066-.51492 1.35102 0 2.30949.34158 2.87029 1.03494.3008.38236.48433.90238.5557 1.56005h5.1084c-.22942-2.38596-1.10631-4.06837-2.64597-5.04212-1.53456-.97376-3.51776-1.46319-5.9598-1.46319-2.56439 0-4.55778.64748-5.97508 1.94752-1.4173 1.29494-2.12595 2.8448-2.12595 4.64956 0 1.52946.45374 2.70204 1.36631 3.51266.90748.8259 2.46753 1.50906 4.67505 2.05967 3.06912.72904 4.8433 1.24396 5.32252 1.54475.47924.2957.71885.73414.71885 1.30514 0 .5965-.2957 1.04513-.88709 1.34593-.59139.2957-1.3918.44864-2.39105.44864-1.713 0-2.88049-.34158-3.51776-1.02474-.35687-.38236-.5914-1.02474-.69845-1.93222zm3.91032-13.82122zm26.5871.64747c-.98394-.41805-2.08006-.62708-3.28833-.62708-1.07572 0-2.10046.22433-3.07421.67297-.97376.44354-1.83026 1.23886-2.5695 2.37066v-9.3348h-5.0931v26.3271h5.0931v-10.57367c0-1.6722.34668-2.96205 1.04513-3.86443.69846-.90238 1.7232-1.35102 3.07422-1.35102 1.30514 0 2.18713.45374 2.65616 1.36121.35687.64748.53531 1.49378.53531 2.544v11.88391h5.21546v-11.47095c0-1.74358-.06118-3.00284-.17844-3.77267-.12235-.76983-.44864-1.51926-.98395-2.2483-.63727-.8616-1.44279-1.49887-2.43184-1.91693zm6.8214 6.75512v4.83819h10.28817v-4.8382zm19.23041 12.65373v-26.41887h-5.48566v26.41887zm-2.74283-26.93889zm10.4513 3.28324c-2.47262 2.49302-3.71148 6.05157-3.71148 10.66034 0 4.2672 1.08592 7.6269 3.26285 10.07404 2.17693 2.43694 5.15938 3.65541 8.96263 3.65541 3.06912 0 5.58763-.90238 7.55554-2.70714 1.9628-1.79967 3.18637-4.14484 3.6656-7.02532h-5.47037c-.36707 1.36122-.8361 2.38596-1.3969 3.06402-1.01455 1.26945-2.49302 1.90162-4.42524 1.90162-1.89143 0-3.44638-.73923-4.66995-2.21261-1.22357-1.47848-1.83535-3.6962-1.83535-6.65825 0-2.96206.5761-5.25625 1.73848-6.87238 1.1573-1.62122 2.73773-2.43184 4.74643-2.43184 1.973 0 3.46167.5761 4.46602 1.7232.5608.64237 1.01964 1.60083 1.37651 2.86518h5.52135c-.08157-1.64672-.69335-3.28834-1.82515-4.92996-2.05967-2.91107-5.30723-4.36916-9.75286-4.36916-3.32403 0-6.05666 1.08592-8.2081 3.26285zm8.04497-3.56874zm21.42264 5.3939h6.41353c1.19808 0 2.09026.15804 2.68675.46903 1.06553.54551 1.59574 1.62123 1.59574 3.22207 0 1.48357-.5455 2.47262-1.64672 2.97734-.62198.2855-1.55495.42825-2.79381.42825h-6.2555zm11.83802-3.90522c-.99925-.41806-2.42675-.64747-4.2774-.68316H176.3111v26.41887h5.399v-10.35954h5.69978c1.62123 0 2.73264.2804 3.32403.8412.59139.5608.89728 1.6875.92277 3.36991l.0357 2.45733c.01019.77493.08666 1.53456.22941 2.2738.07647.36197.19373.831.36197 1.4173h6.07706v-.66277c-.53022-.32118-.8616-.8259-1.00435-1.50396-.09686-.43335-.14275-1.24906-.14275-2.45734v-1.77417c0-1.85065-.2549-3.22716-.76473-4.12954-.50472-.90238-1.37141-1.60084-2.58988-2.09026 1.45808-.49963 2.50321-1.35613 3.13539-2.5695.63727-1.21337.95336-2.44713.95336-3.70129 0-1.04003-.16824-1.9679-.50472-2.77852-.33138-.81571-.78512-1.55495-1.36122-2.22281-.69335-.81572-1.53966-1.4275-2.5338-1.84555zm16.37032 15.75344l3.4056-10.39523 3.29853 10.39523zm.34158-16.4366l-9.42658 26.41887h5.77117l1.82515-5.42958h9.73247l1.7028 5.42958h5.99038l-9.3603-26.41887zm3.0844 0zm15.6107 8.4987h6.11274v17.92017h5.23075V168.6038h-4.2468c0 .22942-.06628.5761-.19883 1.04003-.22432.78002-.5608 1.402-1.00435 1.86594-.64237.68316-1.47847 1.1369-2.50831 1.36122-.64237.14275-1.77417.24981-3.3852.32119zm21.37165-5.6947c-1.60593 1.7283-2.41145 3.9817-2.41145 6.76532 0 2.69185.80042 4.75152 2.40125 6.17902 1.60084 1.4275 3.43619 2.14124 5.50606 2.14124 1.3969 0 2.57459-.2906 3.52795-.8616.52512-.31098 1.02474-.75963 1.48868-1.34592-.09687 1.973-.32629 3.47188-.69846 4.50171-.68315 1.86085-1.86594 2.79382-3.54834 2.79382-.8718 0-1.57025-.23962-2.09536-.71375-.53022-.47923-.8514-1.10121-.96866-1.86594h-5.0931c.22942 2.20752 1.1165 3.88992 2.67145 5.04721 1.55495 1.1522 3.30364 1.7283 5.25115 1.7283 4.08876 0 6.89277-2.0036 8.42223-6.00569.80551-2.10045 1.20317-4.72603 1.20317-7.86652 0-3.23735-.41805-5.85273-1.25416-7.83593-1.46828-3.49737-4.18052-5.25115-8.13672-5.25115-2.5695 0-4.65976.8667-6.2657 2.58989zm8.59556 10.31877c-.62198.40275-1.28474.60668-1.9883.60668-1.30513 0-2.2687-.38746-2.89577-1.15729-.62708-.76983-.94317-1.92712-.94317-3.46678 0-1.83025.48943-3.1252 1.47338-3.88992.61688-.48943 1.36632-.73414 2.23811-.73414 1.19298 0 2.13615.42824 2.8244 1.28984.68316.8616 1.02984 2.02399 1.02984 3.49737 0 1.82515-.5812 3.1099-1.73849 3.85424z"/></svg>