<svg xmlns="http://www.w3.org/2000/svg" role="img" viewBox="-2.66 -2.66 138.19 70.44"><title>Trase logo</title><path fill="#2ba4a0" d="M130.583 23.923a2.408 2.408 0 0 1-2.417-2.427c-.01-1.323 1.077-2.404 2.417-2.404 1.296 0 2.406 1.08 2.417 2.404-.011 1.346-1.12 2.427-2.417 2.427zM115.33 30c-1.088 0-2.054-.199-2.593-.43l.923-3.1c1.736.497 2.878.354 3.636-1.521l.34-.916-6.118-17.294h4.218l3.89 12.794h.175l3.9-12.794 4.251.022-6.778 18.97C120.218 28.39 118.428 30 115.33 30zm-4.29-23.261v3.088h-3.328v8.758c0 1.61.802 1.963 1.801 1.963.495 0 .945-.1 1.165-.155l.67 3.122c-.429.143-1.209.364-2.34.397-2.988.088-5.295-1.478-5.273-4.666V9.827h-2.395V6.74h2.395V2.68h3.977v4.06zM98.066 4.335c-1.277 0-2.312-.971-2.312-2.162C95.754.97 96.79 0 98.066 0c1.266 0 2.3.97 2.3 2.173 0 1.191-1.034 2.162-2.3 2.162zM96.062 23.68V6.74h3.976v16.94zM93.486 1.092V23.68h-3.977V1.092zM79.129 21.088c2.391 0 3.905-1.599 3.905-3.485v-1.996c-.516.419-2.6.683-3.642.827-1.777.253-3.104.893-3.104 2.426 0 1.467 1.185 2.228 2.841 2.228zm-1.028 2.934c-3.22 0-5.647-1.765-5.647-5.096 0-3.816 3.13-4.797 6.405-5.15 2.977-.32 4.174-.375 4.174-1.522v-.066c0-1.666-1.01-2.614-2.856-2.614-1.945 0-3.065.992-3.46 2.15l-3.714-.53c.88-3.087 3.604-4.676 7.152-4.676 3.219 0 6.855 1.346 6.855 5.824V23.68h-3.823v-2.327h-.132c-.725 1.423-2.307 2.67-4.954 2.67zm-11.409-7.467V6.74h3.977v16.94h-3.856v-3.01h-.176c-.769 1.896-2.548 3.23-5.075 3.23-3.318 0-5.624-2.304-5.624-6.374V6.739h3.976v10.17c0 2.15 1.275 3.506 3.186 3.506 1.758 0 3.592-1.279 3.592-3.86zM39.85 23.68v-2.537l8.7-10.952v-.143h-8.414V6.739h13.281v2.724l-8.283 10.765v.143h8.569v3.31zm-15.868 0v-2.537l8.7-10.952v-.143h-8.414V6.739h13.281v2.724l-8.283 10.765v.143h8.569v3.31zM19.647 4.335c-1.274 0-2.307-.971-2.307-2.162C17.34.97 18.373 0 19.647 0c1.264 0 2.296.97 2.296 2.173 0 1.191-1.032 2.162-2.296 2.162zM17.648 23.68V6.74h3.967v16.94zM16.412 6.74l-6.009 16.94H6.01L0 6.74h4.24l3.878 12.585h.176L12.183 6.74z"/><path d="M35.98176 34.61295h-24.1553v5.28217h8.95898v24.53506h6.27186V39.89512h8.92446zm15.42072 7.25004c-.0748-.00576-.16112-.00576-.27044-.00576-1.7262 0-3.13018.44882-4.20618 1.3522-.6617.54087-1.4385 1.54782-2.33037 3.01509v-3.84367h-5.50082v22.04933h5.80579V53.8946c0-1.77223.2244-3.07839.66746-3.92998.79405-1.50755 2.35339-2.26132 4.67225-2.26132.17837 0 .40853.00575.69048.01726.28194.01726.60417.04028.96667.08056v-5.9036c-.25318-.01727-.42004-.02302-.49484-.03453zm16.03064 11.84748v2.14625c-.04028 1.92759-.58115 3.25676-1.62838 3.98176-1.04148.73076-2.18652 1.09326-3.42363 1.09326-.78255 0-1.45001-.21865-1.99664-.65595s-.81707-1.1508-.81707-2.13474c0-1.10476.44306-1.92183 1.33493-2.4512.52361-.31072 1.39822-.56965 2.60656-.7883l1.29465-.24167c.6502-.12083 1.15656-.25317 1.53057-.39127.36825-.14385.7365-.32798 1.09901-.55814zm-3.49843-2.69287l-1.96212.24167c-2.22104.2877-3.90696.75953-5.05776 1.42124-2.0887 1.2141-3.13593 3.1762-3.13593 5.88634 0 2.0887.65595 3.70558 1.95636 4.84487 1.3004 1.13929 2.94605 1.70894 4.94268 1.70894 1.5651 0 2.96907-.35675 4.21193-1.076 1.03572-.60417 1.9506-1.34068 2.75041-2.20378.04028.5006.09207.94365.16112 1.33492.06329.39128.18988.81132.3625 1.25438h6.27186v-.8516c-.37977-.17262-.66171-.39702-.8516-.66746-.18988-.26468-.30496-.77679-.34523-1.53632-.02302-.99544-.04028-1.84703-.04028-2.54902V48.716c0-2.65835-.93215-4.4651-2.80795-5.42602-1.8758-.95516-4.02205-1.43275-6.43298-1.43275-3.71133 0-6.32364.96668-7.84845 2.91153-.96092 1.24286-1.49604 2.82521-1.62263 4.7528h5.56412c.1381-.85159.40853-1.5248.81131-2.01965.5639-.67897 1.53057-1.0127 2.89426-1.0127 1.2141 0 2.13474.17261 2.76192.5121.62144.34524.9379.97243.9379 1.8758 0 .74227-.40853 1.28315-1.23135 1.63414-.46032.20714-1.2256.37401-2.2901.50635zm.30496-9.22366zm18.56816 15.5991h-5.84607c0 2.26132.82858 4.12561 2.47998 5.59288 1.6514 1.46152 4.21193 2.19228 7.67583 2.19228 3.40062 0 5.90936-.69048 7.53774-2.07144 1.62263-1.38096 2.43395-3.1647 2.43395-5.35122 0-1.65716-.5639-3.04387-1.69743-4.14864-1.14505-1.09326-2.8655-1.90457-5.15559-2.44545-3.44089-.75377-5.44328-1.2889-6.01293-1.59961-.56389-.29345-.84584-.77679-.84584-1.43275 0-.52936.26469-.98968.79981-1.38096.52937-.38551 1.427-.58115 2.67561-.58115 1.52481 0 2.60656.38552 3.2395 1.16806.33949.43155.54663 1.01846.62719 1.76073h5.7655c-.25892-2.69288-1.24861-4.5917-2.98632-5.69071-1.73195-1.09901-3.97026-1.6514-6.72643-1.6514-2.89426 0-5.14407.73076-6.74368 2.19803-1.59962 1.46152-2.39942 3.21073-2.39942 5.24765 0 1.7262.5121 3.04962 1.54207 3.9645 1.02421.93215 2.78494 1.70319 5.27642 2.32462 3.4639.82282 5.4663 1.40398 6.00717 1.74346.54088.33373.81132.82858.81132 1.47303 0 .67321-.33373 1.17957-1.0012 1.51905-.66746.33373-1.57084.50635-2.69862.50635-1.93335 0-3.25101-.38551-3.97026-1.15655-.40278-.43155-.66747-1.15655-.7883-2.18077zm4.41332-15.5991zm19.73046 6.00718c.73651-.83433 1.77223-1.25438 3.10716-1.25438 1.2256 0 2.25557.39703 3.08415 1.18533.82857.7883 1.2889 1.94485 1.38671 3.46966h-8.96473c.18988-1.43275.65595-2.56053 1.38671-3.40061zm8.06136-4.97721c-1.46727-.68473-3.11867-1.02997-4.9542-1.02997-3.0899 0-5.59864 1.01846-7.53774 3.05537-1.93334 2.03692-2.90001 4.9657-2.90001 8.7806 0 4.07384 1.07024 7.01413 3.21648 8.82089 2.14049 1.80676 4.62046 2.71013 7.42266 2.71013 3.40062 0 6.0417-1.076 7.92901-3.21648 1.2141-1.3522 1.89307-2.68137 2.04267-3.98752h-5.88634c-.31071.6502-.66746 1.15655-1.07024 1.51905-.74227.67322-1.70894 1.0127-2.89426 1.0127-1.11628 0-2.0772-.27619-2.87125-.83432-1.30616-.88612-2.0024-2.4397-2.08295-4.64924h15.08699c.02877-1.90457-.02877-3.36033-.17837-4.37304-.25893-1.7262-.81707-3.2395-1.68017-4.55141-.95517-1.47878-2.16926-2.56628-3.64228-3.25676zm-4.55142-1.02997z"/></svg>