<svg xmlns="http://www.w3.org/2000/svg" role="img" viewBox="-2.28 -2.28 118.82 22.07"><title>Trends.Earth logo</title><g transform="translate(-77.147 -74.255)"><g fill="#646464" stroke-width=".265" transform="translate(3.296)"><path d="M101.06096 90.62008q-.14607.0386-.31971.0634-.17087.0248-.30592.0248-.47129 0-.71658-.25356-.2453-.25355-.2453-.81304v-1.6371h-.35001v-.43547h.35002v-.8847h.51814v.8847h1.06936v.43546H99.9916v1.40285q0 .24253.01103.38033.011.13505.0772.25356.0606.11025.16536.16261.1075.04961.32522.04961.12678 0 .26458-.03583.1378-.03858.19844-.06339h.0276z"/><path d="M103.87216 88.1341h-.0276q-.11576-.02756-.226-.03858-.10749-.01378-.25632-.01378-.23978 0-.46302.10749-.22324.10473-.42995.27285v2.18557h-.51814V87.5691h.51814v.45475q.30868-.24804.54295-.35002.23702-.10473.48231-.10473.13505 0 .19569.0083.0606.0055.1819.02481z"/><path d="M106.91762 90.64764h-.51538v-.32797q-.0689.04685-.18742.1323-.11575.08267-.226.13228-.12953.0634-.29765.10474-.16812.0441-.39412.0441-.41617 0-.70556-.27561t-.28939-.7028q0-.35002.14883-.565.15159-.21773.42995-.34175.28112-.12402.67524-.16812.39412-.0441.84612-.06615v-.07993q0-.17639-.0634-.29215-.0606-.11575-.17639-.1819-.11025-.06339-.26459-.08544-.15434-.02205-.32246-.02205-.20395 0-.45475.05512-.2508.05236-.51814.15434h-.0276v-.5264q.15158-.04135.43821-.09096.28663-.0496.565-.0496.32522 0 .56499.05511.24254.05237.41893.1819.17363.12678.26458.32798.091.2012.091.49885zm-.51538-.75792v-.85714q-.23703.01378-.55949.04134-.3197.02756-.50712.07993-.22324.0634-.36104.19844-.13781.1323-.13781.36656 0 .26458.15986.39963.15985.1323.48782.1323.27285 0 .49885-.10474.226-.10749.41893-.25631z"/><path d="M110.45642 90.45472q-.25907.12402-.49333.19292-.23151.0689-.49334.0689-.33349 0-.61185-.09646-.27836-.09922-.4768-.29765-.2012-.19844-.31144-.5016-.11024-.30318-.11024-.70832 0-.75516.41341-1.18511.41617-.42995 1.09692-.42995.26458 0 .51814.07441.25632.07441.46853.1819v.57602h-.0276q-.23702-.18466-.49058-.28388-.2508-.09922-.49058-.09922-.44097 0-.69729.29766-.25356.2949-.25356.86816 0 .55673.24805.85714.2508.29766.7028.29766.1571 0 .3197-.04134.16261-.04134.29215-.10749.113-.05788.21222-.12126.0992-.06615.15709-.113h.0276z"/><path d="M114.17988 90.64764h-.6835l-1.23473-1.34772-.33624.3197v1.02802h-.51814V86.3592h.51814v2.75056l1.49655-1.54064h.65319l-1.4304 1.42213z"/><path d="M115.5469 87.05372h-.58429v-.53743h.58429zm-.0331 3.59392h-.51814v-3.07853h.51814z"/><path d="M119.37784 90.64764h-.51814v-1.75286q0-.21222-.0248-.39688-.0248-.1874-.091-.29214-.0689-.11575-.19843-.17088-.12954-.05788-.33624-.05788-.21222 0-.44373.10474-.23151.10473-.44373.26733v2.29857h-.51814v-3.07853h.51814v.34175q.24253-.2012.50161-.3142.25907-.113.53192-.113.49885 0 .76067.30042.26183.30041.26183.8654z"/><path d="M123.13713 90.29762q0 .78273-.35553 1.14929-.35554.36655-1.09417.36655-.24529 0-.47955-.03583-.23151-.03307-.45751-.09646v-.52916h.0276q.12678.0496.40239.12126.2756.07441.55121.07441.26458 0 .43822-.06339.17363-.06339.27009-.17638.0965-.1075.13781-.25908.0413-.15158.0413-.339v-.28111q-.23427.18741-.44924.28112-.21222.09095-.54295.09095-.55121 0-.87643-.39688-.32246-.39963-.32246-1.12448 0-.39687.11024-.6835.113-.2894.30592-.49886.17915-.19568.43546-.30316.25632-.11025.50988-.11025.26734 0 .44648.05512.1819.05236.3831.16261l.0331-.13229h.48507zm-.51814-.4961v-1.67844q-.20671-.09371-.38585-.1323-.17639-.04133-.35278-.04133-.42719 0-.67248.28663-.24529.28663-.24529.83233 0 .51815.1819.78548.1819.26734.60358.26734.226 0 .45199-.08544.22876-.08819.41893-.23426z"/><path d="M127.19408 90.64764h-.51815V86.3592h.51815z"/><path d="M130.87619 90.64764h-.51538v-.32797q-.0689.04685-.18742.1323-.11575.08267-.22599.13228-.12954.0634-.29766.10474-.16812.0441-.39412.0441-.41617 0-.70556-.27561-.28938-.27561-.28938-.7028 0-.35002.14882-.565.15159-.21773.42995-.34175.28112-.12402.67524-.16812.39412-.0441.84612-.06615v-.07993q0-.17639-.0634-.29215-.0606-.11575-.17639-.1819-.11024-.06339-.26459-.08544-.15434-.02205-.32246-.02205-.20395 0-.45475.05512-.2508.05236-.51814.15434h-.0276v-.5264q.15158-.04135.43821-.09096.28664-.0496.565-.0496.32522 0 .565.05511.24253.05237.41892.1819.17363.12678.26458.32798.091.2012.091.49885zm-.51538-.75792v-.85714q-.23703.01378-.55949.04134-.3197.02756-.50711.07993-.22325.0634-.36105.19844-.1378.1323-.1378.36656 0 .26458.15985.39963.15985.1323.48782.1323.27286 0 .49885-.10474.226-.10749.41893-.25631z"/><path d="M134.71265 90.64764h-.51814v-1.75286q0-.21222-.0248-.39688-.0248-.1874-.0909-.29214-.0689-.11575-.19843-.17088-.12954-.05788-.33625-.05788-.21221 0-.44372.10474-.23151.10473-.44373.26733v2.29857h-.51814v-3.07853h.51814v.34175q.24253-.2012.5016-.3142.25907-.113.53193-.113.49885 0 .76067.30042.26183.30041.26183.8654z"/><path d="M138.47194 90.64764h-.51814v-.32246q-.22324.19293-.46578.30041-.24253.1075-.52641.1075-.55121 0-.87643-.42444-.32246-.42444-.32246-1.17685 0-.39136.11024-.69729.113-.30592.30317-.5209.18741-.20946.43546-.3197.2508-.11024.51814-.11024.24254 0 .42995.05237.18741.0496.39412.1571v-1.33395h.51814zm-.51814-.75792v-1.76664q-.20946-.09371-.37483-.12954-.16536-.03583-.36104-.03583-.43546 0-.678.30317-.24253.30317-.24253.8599 0 .54846.18741.83509.18741.28387.60082.28387.22049 0 .44649-.09646.226-.09922.42168-.25355z"/><path d="M144.28175 90.45472q-.25907.12402-.49334.19292-.23151.0689-.49333.0689-.33349 0-.61185-.09646-.27837-.09922-.4768-.29765-.2012-.19844-.31144-.5016-.11024-.30318-.11024-.70832 0-.75516.41341-1.18511.41616-.42995 1.09692-.42995.26458 0 .51814.07441.25631.07441.46853.1819v.57602h-.0276q-.23702-.18466-.49058-.28388-.2508-.09922-.49058-.09922-.44098 0-.69729.29766-.25356.2949-.25356.86816 0 .55673.24805.85714.2508.29766.7028.29766.15709 0 .3197-.04134.16261-.04134.29215-.10749.11299-.05788.21221-.12126.0992-.06615.1571-.113h.0276z"/><path d="M147.78472 90.64764h-.51814v-1.75286q0-.21222-.0248-.39688-.0248-.1874-.0909-.29214-.0689-.11575-.19843-.17088-.12954-.05788-.33624-.05788-.21222 0-.44373.10474-.23151.10473-.44373.26733v2.29857h-.51814V86.3592h.51814v1.55167q.24253-.2012.5016-.3142.25908-.113.53193-.113.49885 0 .76067.30042.26183.30041.26183.8654z"/><path d="M151.43928 90.64764h-.51539v-.32797q-.0689.04685-.18741.1323-.11575.08267-.226.13228-.12953.0634-.29765.10474-.16812.0441-.39412.0441-.41617 0-.70556-.27561t-.28939-.7028q0-.35002.14883-.565.15159-.21773.42995-.34175.28112-.12402.67524-.16812.39412-.0441.84611-.06615v-.07993q0-.17639-.0634-.29215-.0606-.11575-.17638-.1819-.11025-.06339-.26459-.08544-.15434-.02205-.32246-.02205-.20395 0-.45475.05512-.2508.05236-.51814.15434h-.0276v-.5264q.15158-.04135.43821-.09096.28663-.0496.565-.0496.32521 0 .56499.05511.24254.05237.41893.1819.17363.12678.26458.32798.0909.2012.0909.49885zm-.51539-.75792v-.85714q-.23702.01378-.55948.04134-.3197.02756-.50712.07993-.22324.0634-.36104.19844-.13781.1323-.13781.36656 0 .26458.15986.39963.15985.1323.48782.1323.27285 0 .49885-.10474.226-.10749.41892-.25631z"/><path d="M155.27574 90.64764h-.51814v-1.75286q0-.21222-.0248-.39688-.0248-.1874-.0909-.29214-.0689-.11575-.19844-.17088-.12953-.05788-.33624-.05788-.21222 0-.44373.10474-.23151.10473-.44372.26733v2.29857h-.51815v-3.07853h.51815v.34175q.24253-.2012.5016-.3142.25907-.113.53192-.113.49885 0 .76068.30042.26183.30041.26183.8654z"/><path d="M159.03502 90.29762q0 .78273-.35553 1.14929-.35553.36655-1.09416.36655-.24529 0-.47956-.03583-.23151-.03307-.45751-.09646v-.52916h.0276q.12678.0496.40239.12126.27561.07441.55122.07441.26458 0 .43821-.06339t.2701-.17638q.0965-.1075.1378-.25908t.0413-.339v-.28111q-.23426.18741-.44924.28112-.21222.09095-.54295.09095-.55121 0-.87643-.39688-.32246-.39963-.32246-1.12448 0-.39687.11024-.6835.113-.2894.30593-.49886.17914-.19568.43546-.30316.25631-.11025.50987-.11025.26734 0 .44649.05512.1819.05236.38309.16261l.0331-.13229h.48507zm-.51814-.4961v-1.67844q-.2067-.09371-.38585-.1323-.17639-.04133-.35278-.04133-.42719 0-.67248.28663-.24529.28663-.24529.83233 0 .51815.1819.78548.1819.26734.60358.26734.226 0 .452-.08544.22875-.08819.41892-.23426z"/><path d="M162.89629 89.16212h-2.26825q0 .28388.0854.4961.0854.20945.23426.3445.14332.1323.339.19844.19844.06614.43546.06614.31419 0 .63114-.12402.31971-.12678.45475-.24805h.0276v.565q-.26182.11024-.53467.18465-.27286.07441-.57327.07441-.76619 0-1.19614-.4134-.42994-.41618-.42994-1.1796 0-.75517.41065-1.1989.41341-.44373 1.0859-.44373.62287 0 .95911.3638.339.3638.339 1.03353zm-.50436-.39688q-.003-.4079-.20671-.63114-.20119-.22324-.6146-.22324-.41617 0-.66422.2453-.24529.24528-.27836.60908z"/></g><g transform="translate(8.295 -1.067)"><path fill="#fd0134" fill-opacity="1" stroke="none" stroke-dasharray="none" stroke-linecap="round" stroke-linejoin="miter" stroke-miterlimit="4" stroke-opacity="1" stroke-width=".959" d="M131.15909 81.21684l-.4562.79044-.45654.79044H132.07182l-.45621-.79044zm0 .99981l.37392.23947.37394.23947H130.41154l.37362-.23947z"/><circle cx="131.159" cy="84.2" r=".676" fill="#646464" fill-opacity="1" stroke="none" stroke-dasharray="none" stroke-linecap="round" stroke-linejoin="miter" stroke-miterlimit="4" stroke-opacity="1" stroke-width="2.235"/><g fill="#646464" stroke-width=".274"><path d="M141.46628 84.87582h-6.90896v-9.55194h6.90896v1.84752h-4.45843v1.64866h4.13768v1.84752h-4.13768v2.36072h4.45843z"/><path d="M152.76952 84.87582h-2.54676l-.66074-1.93091h-3.54108l-.66075 1.93091h-2.48261l3.52826-9.55194h2.83543zm-3.8041-3.6822l-1.17394-3.42562-1.17395 3.42561z"/><path d="M159.90942 78.24912q0-.35924-.14754-.61584-.14755-.2566-.50679-.40414-.25018-.10264-.58376-.12189-.33358-.02566-.77622-.02566h-.89169v2.57242h.75698q.59018 0 .98791-.05773.39773-.05774.66716-.26302.2566-.19886.37207-.43622.12188-.24377.12188-.64791zm3.84259 6.6267h-3.00864l-2.60449-3.50259h-1.13546v3.5026h-2.45053v-9.55195h4.13127q.84678 0 1.4562.09623.60943.09622 1.14187.41698.53886.32075.8532.83395.32075.50678.32075 1.27658 0 1.05848-.49396 1.72564-.48754.66716-1.39847 1.1098z"/><path d="M172.71377 77.1714h-2.98297v7.70442h-2.46337V77.1714h-2.98297v-1.84752h8.42931z"/><path d="M183.17023 84.87582h-2.46336v-4.20824h-3.63731v4.20824h-2.46336v-9.55194h2.46336v3.49618h3.63731v-3.49618h2.46336z"/></g><g fill="#ff0134" stroke-width=".265" transform="translate(-18.52)"><path d="M95.52087 77.27582h-2.88355v7.4476h-2.38125v-7.4476h-2.88354v-1.78594h8.14834z"/><path d="M102.52819 78.31762q0-.34727-.14263-.59532-.14262-.24804-.48989-.39067-.24184-.09922-.56431-.11782-.32246-.02481-.75034-.02481h-.86196v2.48667h.73174q.57051 0 .95498-.05581.38447-.05581.64492-.25425.24805-.19224.35967-.42168.11782-.23564.11782-.62632zm3.7145 6.4058h-2.90835l-2.51767-3.38583h-1.09761v3.38584h-2.36885v-9.23355h3.99356q.81855 0 1.40766.09302.58911.09302 1.10381.40308.5209.31006.82476.80615.31006.4899.31006 1.23403 0 1.0232-.47749 1.66812-.47129.64492-1.35186 1.0728z"/><path d="M114.36003 84.72343h-6.67867v-9.23355h6.67867v1.78594h-4.30982v1.5937h3.99976v1.78594h-3.99976v2.28203h4.30982z"/><path d="M125.15006 84.72343h-2.29443l-3.91914-6.3376v6.3376h-2.18281v-9.23355h2.84634l3.36723 5.2896v-5.2896h2.18281z"/><path d="M136.62843 80.11596q0 1.28984-.58911 2.31303-.58911 1.017-1.48828 1.5627-.67593.40928-1.48208.5705-.80615.16124-1.90996.16124h-3.25561v-9.23355h3.34863q1.12861 0 1.94717.19224.81855.18603 1.37666.5333.95498.5829 1.50068 1.5751.5519.98598.5519 2.32544zm-2.46186-.0186q0-.91158-.33486-1.5565-.32867-.65112-1.048-1.017-.36587-.17983-.75034-.24184-.37828-.0682-1.14722-.0682h-.60151v5.77948h.60151q.84956 0 1.24643-.07441.39688-.08061.77515-.28525.65112-.37207.95498-.9922.30386-.62631.30386-1.54408z"/><path d="M146.23405 81.82128q0 1.36426-1.15962 2.22002-1.15342.84956-3.13779.84956-1.14722 0-2.00298-.19844-.84956-.20464-1.5937-.5147v-2.21381h.26045q.73793.5891 1.64951.90537.91777.31626 1.76113.31626.21704 0 .57051-.03721.35346-.03721.57671-.12403.27285-.11162.44648-.27905.17983-.16743.17983-.4961 0-.30385-.26044-.5209-.25425-.22323-.75035-.34106-.52089-.12402-1.1038-.22944-.57671-.11162-1.08521-.27905-1.16582-.37827-1.68052-1.0232-.50849-.65112-.50849-1.6123 0-1.28984 1.15341-2.1022 1.15962-.81855 2.97657-.81855.91157 0 1.79834.17983.89297.17363 1.54409.44028v2.127h-.25425q-.55811-.44648-1.37046-.74413-.80615-.30386-1.64951-.30386-.29766 0-.59531.0434-.29146.03722-.56431.14884-.24185.09302-.41548.28525-.17363.18603-.17363.42788 0 .36587.27905.5643.27905.19224 1.0542.35347.5085.10542.97359.20464.47128.09922 1.01079.27285 1.0604.34727 1.56269.94878.5085.59532.5085 1.5503z"/></g></g></g></svg>