<svg xmlns="http://www.w3.org/2000/svg" role="img" viewBox="-0.95 -0.95 49.53 13.09"><title>TSG-QC logo</title><g transform="translate(0 8.906)"><path d="M7.39453-7.69336H4.27734V0H3.1172v-7.69336H0V-8.7246h7.39453z"/><path d="M14.83594-2.49023q0 .50976-.24024 1.0078-.23437.49806-.6621.84376-.46876.375-1.0957.58594-.6211.21093-1.5.21093-.94337 0-1.69923-.17578-.75-.17578-1.5293-.52148V-1.9922h.08204q.6621.55078 1.5293.84961.86718.29883 1.6289.29883 1.07812 0 1.67578-.4043.60352-.4043.60352-1.07812 0-.58008-.28711-.85547-.28125-.2754-.86133-.42773-.43945-.1172-.95508-.19336-.50976-.07618-1.08398-.19336-1.16016-.2461-1.72266-.8379-.55664-.59765-.55664-1.55273 0-1.0957.92578-1.79297.92578-.70312 2.34961-.70312.91992 0 1.6875.17578t1.35938.4336v1.37109h-.08203q-.49805-.42188-1.3125-.69727-.8086-.28125-1.6582-.28125-.93165 0-1.5.38672-.5625.38672-.5625.9961 0 .54491.28124.85546.28125.31055.99024.47461.375.08203 1.0664.19922t1.17188.24023q.97265.25782 1.46484.7793.49219.52149.49219 1.45899z"/><path d="M23.97656-.64453q-.71484.32812-1.56445.57422-.84375.24023-1.63477.24023-1.01953 0-1.86914-.28125-.8496-.28125-1.44726-.84375-.60352-.56836-.93164-1.41797-.32813-.85547-.32813-1.99804 0-2.0918 1.21875-3.29883 1.22461-1.2129 3.35742-1.2129.74414 0 1.51758.18165.7793.17578 1.67578.60351v1.37696h-.10547q-.18164-.14063-.52734-.36914-.3457-.22852-.67969-.38086-.4043-.18164-.91992-.29883-.50976-.12305-1.16015-.12305-1.46485 0-2.32032.94336-.8496.9375-.8496 2.54297 0 1.69336.89062 2.63672.89062.9375 2.42578.9375.5625 0 1.11914-.11133.5625-.11133.98438-.2871v-2.13868h-2.3379v-1.01953h3.48633z"/><path d="M29.38477-3.2871h-3.65625v-1.06056h3.65625z"/><path d="M39.23438 2.13867q-.35157.0879-.69727.12305-.33984.04101-.69727.04101-1.01953 0-1.64062-.5625-.61524-.55664-.66797-1.5996-.14063.02343-.2754.0293-.1289.01171-.25194.01171-.91993 0-1.67578-.30469-.75-.30468-1.27735-.88476-.52734-.58008-.81445-1.42383-.28125-.84375-.28125-1.92773 0-1.06641.28125-1.91016.28125-.84961.82031-1.45313.51563-.57421 1.27734-.8789.76758-.30469 1.66993-.30469.9375 0 1.68164.31055.75.30468 1.27148.87304.5332.58594.81445 1.43555.28711.84961.28711 1.92774 0 1.5996-.65625 2.6953Q37.75195-.56835 36.6504-.1289q.02344.66797.3164 1.03711.29298.36914 1.06641.36914.24024 0 .56836-.07617.33399-.07031.47461-.1289h.1582zm-1.38282-6.49805q0-1.69921-.76172-2.61914-.76172-.92578-2.08007-.92578-1.33008 0-2.0918.92578-.75586.91993-.75586 2.61915 0 1.7168.77344 2.63085.77343.9082 2.07422.9082 1.30078 0 2.06835-.9082.77344-.91406.77344-2.63085z"/><path d="M47.63672-.63281q-.32227.14062-.58594.26367-.25781.12305-.67969.25781-.35742.11133-.7793.1875-.416.08203-.91992.08203-.94921 0-1.72851-.26367-.77344-.26953-1.34766-.83789-.5625-.55664-.8789-1.4121-.3164-.86134-.3164-1.99806 0-1.07812.30468-1.92773.30469-.8496.8789-1.43555.55665-.56836 1.3418-.86718.79102-.29883 1.75195-.29883.70313 0 1.4004.16992.70312.16992 1.55859.59766v1.37695h-.0879q-.7207-.60352-1.42968-.8789-.70898-.2754-1.51758-.2754-.6621 0-1.1953.2168-.52735.21094-.94337.6621-.4043.43946-.63281 1.11329-.22266.66797-.22266 1.54687 0 .91993.2461 1.58204.25195.6621.64453 1.07812.41015.4336.95508.64453.55078.20508 1.16015.20508.8379 0 1.57031-.2871.73243-.28712 1.3711-.86134h.08203z"/></g></svg>