<svg xmlns="http://www.w3.org/2000/svg" role="img" viewBox="-5.66 -5.66 294.58 155.08"><title>UVic-updates-opem logo</title><g fill="none"><g fill="#67C6DD"><path d="M244.276 2.951c-20.9-6.456-39.559-1.212-41.055 5.15-2.378 10.157 12.961 16.786 21.8 19.731 1.323-3.89 2.662-7.417 3.969-10.519-6.347-2-16.8-6.126-15.307-11.291 1.386-4.866 13.117-4.819 21.291-3.449.645.143 1.307.269 1.952.426 28.409 6.8 43.968 34.582 37.149 62.864-6.835 28.3-33.464 45.716-61.873 38.913-1.228-.3-3.921-1.087-4.062-1.134a.776.776 0 0 0 .126.646 41.75101 41.75101 0 0 0 8.361 2.725c28.929 6.85 58.393-11.213 65.338-39.968 6.72344-28.02454-9.93028-56.3459-37.689-64.094z"/><path d="M218.465 50.43c.961-3.936 1.984-7.748 3.023-11.369-21.149-7.732-26.235-17.182-26.881-23.165-.457-4.362 3.07-8.016 3.07-8.016-4.929 3.291-9.228 6.645-9.748 9.638-3.053 17.889 18.426 28.503 30.536 32.912z"/><path d="M215.741 62.289c-22.062-8.378-31.18-19.212-34.408-29.559a16.493 16.493 0 0 1 .3-10.283 52.761 52.761 0 0 0-5.858 11.685c-.362 1.166-.314 5.812.851 9.149 5.481 15.89 23.559 25.936 37.086 30.866.548-3.591 1.226-7.922 2.029-11.858z"/></g><path fill="#000" d="M59.542 98.146c.01297-8.66296 7.04277-15.67698 15.70573-15.6705 8.66297.00649 15.68225 7.03103 15.68225 15.694 0 8.66297-7.01928 15.68751-15.68225 15.694-8.66296.00648-15.69276-7.00754-15.70573-15.6705v-.047zm7.023-.236c0 5.087 3.621 9.543 8.976 9.543 5.591 0 8.866-4.913 8.866-9.512 0-4.677-3.275-9.559-8.9-9.559-5.512 0-8.944 4.6-8.944 9.481v.047h.002zm-52.061-1.433H27.13v15.59a40.58 40.58 0 0 1-10.015 1.26c-5.118 0-8.945-1.087-11.953-3.338-3.37-2.6-5.165-6.645-5.165-11.56 0-9.638 6.961-15.968 17.5-15.968a24.387 24.387 0 0 1 9.559 1.89v6.456a17.163 17.163 0 0 0-8.9-2.314c-6.661 0-10.818 3.779-10.818 9.858 0 5.795 3.574 9.181 9.605 9.181a21.368 21.368 0 0 0 3.48-.252v-4.885h-5.921v-5.921l.002.003zM35.023 83.06h19.165v5.905H42.03v5.748h11.827v5.905H42.03v6.394h12.41v5.905H35.023zm136.357.11l.678-.048c2.677-.205 5.874-.3 8.142-.3 4.487 0 7.26.6 9.433 2.157 2.39398 1.6983 3.77764 4.48326 3.685 7.417 0 3.858-1.716 6.457-5.448 8.19.851 1.243 1.559 2.251 2.772 3.857 2.3 3.087 4.866 6.283 6.5 8.142l.378.41s-7.339 1.527-9.984-1.843a86.48808 86.48808 0 0 1-6.126-8.851l-.346-.551h-1.087c-.283 0-.756 0-1.291-.031h-.583v11.2h-6.723V83.17zm6.725 13.228a8.4 8.4 0 0 0 1.874.157c4.583 0 6.378-1.134 6.378-4.031 0-2.818-1.843-4.173-5.543-4.173-.583 0-1.26 0-1.953-.063l-.756.063v8.047zm-44.928 15.023c-.221-4.44-.331-6.709-.551-10.142-.126-1.811-.252-3.7-.426-5.669-.126-2.016-.2-3.1-.33-4.362l-.63-7.181-.126-1.134h-7.591c-2.031 0-2.566.472-3.543 3.149-1.323 3.606-3.339 11.433-4.174 14.613l-1.338 5.544-1.338-5.544c-.851-3.181-2.866-11.007-4.2-14.613-.961-2.678-1.512-3.149-3.528-3.149h-7.59l-.126 1.134-.63 7.181c-.126 1.26-.205 2.347-.331 4.362-.173 1.969-.3 3.858-.425 5.669-.2 3.433-.331 5.7-.536 10.142l-.094 1.48h6.5l.047-.771c.126-3.622.252-6.63.551-12.031.284-5.748.362-8.378.362-10.535 0-.835.032-1.166.032-1.387.3.93.6 1.8.85 2.725.252.9.583 1.984.678 2.268l1.26 4.031c.5 1.639 1.039 3.434 2.016 6.678.835 2.8 1.638 5.622 2.268 7.795l.331 1.229h7.795l.33-1.229c.647-2.173 1.434-4.992 2.269-7.795.976-3.244 1.512-5.039 2.016-6.678l1.26-4.031c.094-.283.425-1.37.661-2.268.268-.929.567-1.795.866-2.725 0 .221.016.552.016 1.387 0 2.157.079 4.787.394 10.535.283 5.4.409 8.409.535 12.031l.048.771h6.5l-.078-1.48zm34.045.237c-1.339-3.874-3.275-8.725-5.606-14.425-1.055-2.441-1.983-4.661-2.9-6.725-.3-.709-.6-1.417-1.716-3.89l-.6-1.355-.581-1.291-.473-1.008h-6.362l-.473 1.008-.582 1.291-.583 1.355c-1.134 2.473-1.433 3.181-1.717 3.89-.929 2.064-1.857 4.283-2.9 6.725-2.346 5.7-4.283 10.551-5.622 14.425l-.456 1.26h7.212l.205-.756c.661-1.969 1.339-3.858 2.221-6.409l.252-.771h11.249l.252.771c.882 2.551 1.559 4.441 2.236 6.409l.2.756h7.2l-.456-1.26zM152.17 99.406h-3.528l.426-1.213s2.5-6.913 3.1-9.024c.6 2.11 3.118 9.024 3.118 9.024l.409 1.213h-3.525z"/></g><path d="M25.70816 120.68182v11.10196c0 1.92062.29977 3.41598.89583 4.4861 1.1189 1.95896 3.24519 2.94192 6.37186 2.94192 3.13016 0 5.24946-.98296 6.3614-2.94193.59606-1.0701.89234-2.56547.89234-4.4861v-11.10195h-3.83427v11.10196c0 1.2444-.1464 2.15067-.4392 2.72233-.46011 1.01085-1.45354 1.51976-2.98027 1.51976-1.53371 0-2.53062-.5089-2.99073-1.51976-.2928-.57166-.4392-1.47794-.4392-2.72233v-11.10196zm7.26769 0zm21.43357 0l-3.95976 13.71275-3.92141-13.71275h-4.02947l6.10346 18.0629h3.56587l6.16272-18.0629zm9.47413 3.11273v-3.22427h-3.54147v3.22427zm-3.54147 1.59297v13.3572h3.54147v-13.3572zm14.90137 4.79284h3.57632c-.1952-1.9032-.8261-3.23125-1.89273-3.98416-1.06662-.74942-2.4365-1.12588-4.10964-1.12588-1.96942 0-3.51359.63788-4.6325 1.91016-1.1189 1.27577-1.6801 3.06045-1.6801 5.35404 0 2.03565.50542 3.69135 1.51976 4.96364 1.01434 1.27576 2.59336 1.91364 4.74055 1.91364 2.15068 0 3.77153-.76336 4.86604-2.29359.68668-.9481 1.07011-1.95199 1.15377-3.01513h-3.56587c-.07669.70411-.28235 1.27577-.62743 1.71845-.3416.4392-.92371.66229-1.73936.66229-1.15028 0-1.93457-.55772-2.35285-1.66965-.23006-.59606-.3416-1.38383-.3416-2.3633 0-1.02829.11154-1.8544.3416-2.47486.43223-1.1677 1.23742-1.7533 2.41559-1.7533.82262 0 1.43262.2684 1.82302.80868.27188.40086.4392.85051.50543 1.34897zm-2.3668-5.14838zm7.29209 5.06123v3.30793h7.03414v-3.30793zm12.89012-4.7057h-3.57633v8.05198c0 1.52673.19171 2.68398.57514 3.46827.68668 1.42216 2.01822 2.13325 3.99461 2.13325.68669 0 1.28623-.09063 1.79514-.27189.5124-.17777 1.03874-.5124 1.586-1.00388.18125-.15686.33462-.33463.46708-.54028.12897-.20218.21262-.32766.244-.366v1.88576h3.39507v-13.3572H97.9981v7.26768c0 .85749-.11503 1.54765-.3416 2.0705-.44269.96555-1.25834 1.44657-2.45045 1.44657-.93417 0-1.5581-.3381-1.8753-1.01782-.18126-.38343-.2719-.95508-.2719-1.71496zm2.45045-.35553zm17.89907 4.30135c.47057.79125.7041 1.7045.7041 2.73279 0 1.25137-.25445 2.25176-.76685 3.00119-.5089.7529-1.25136 1.12936-2.22387 1.12936-.66926 0-1.24788-.18474-1.73937-.55074-.8261-.6309-1.23742-1.72193-1.23742-3.27307 0-.97948.122-1.78816.36948-2.42605.47057-1.20256 1.342-1.8021 2.6073-1.8021 1.05617 0 1.81606.39737 2.28663 1.18862zm2.68398-2.51319c-1.08405-1.15028-2.40513-1.72542-3.96324-1.72542-1.0701 0-1.99382.29628-2.77113.89234-.42525.33463-.8261.79474-1.19908 1.37336v-1.9729h-3.34627v18.61364h3.45433v-6.96095c.36948.56469.74245.99343 1.12936 1.28971.70063.52983 1.58251.79474 2.64565.79474 1.66617 0 3.02907-.61697 4.08524-1.8509 1.05965-1.23394 1.58948-3.0256 1.58948-5.37844 0-2.23085-.54377-3.92141-1.62434-5.07518zm11.23093-1.2165c-.62743-.35555-1.34897-.53332-2.15765-.53332-1.7568 0-3.15804.65183-4.20724 1.95896-1.05268 1.30714-1.57553 3.10228-1.57553 5.38192 0 1.9764.5333 3.59376 1.59993 4.85907 1.06663 1.26182 2.37725 1.89273 3.93884 1.89273.94811 0 1.73937-.18125 2.37725-.54028.63788-.35903 1.20605-.93417 1.7045-1.7289v1.8509h3.3916v-18.0385h-3.54148v6.37186c-.3904-.62742-.9028-1.1189-1.53022-1.47445zm.85748 9.51595c-.51588.732-1.2653 1.10148-2.25525 1.10148-.98645 0-1.72542-.36948-2.20993-1.10845-.488-.73897-.732-1.72542-.732-2.95936 0-1.1433.24052-2.10187.71806-2.8757.47754-.77034 1.22696-1.15725 2.24827-1.15725.66926 0 1.25834.21262 1.76725.63788.82263.70063 1.23743 1.87182 1.23743 3.50313 0 1.1712-.25794 2.12279-.77383 2.85827zm14.75497-2.86873v1.30017c-.0244 1.1677-.35206 1.9729-.98645 2.4121-.6344.44269-1.32457.66229-2.07748.66229-.47406 0-.87491-.13246-1.20605-.39737-.33114-.26492-.49846-.69714-.49846-1.2932 0-.66925.27189-1.16422.80869-1.4849.32068-.18824.84702-.3451 1.5825-.47755l.78429-.1464c.3904-.0732.70062-.15337.9237-.23703.22658-.08714.44966-.19868.66926-.3381zm-2.1193-1.6313l-1.18863.1464c-1.34896.17428-2.37028.4601-3.06393.86096-1.2653.73548-1.8997 1.9241-1.8997 3.56587 0 1.26531.39388 2.2448 1.18165 2.93496.78776.69017 1.78816 1.03525 2.9977 1.03525.9481 0 1.79513-.2161 2.54805-.65182.62742-.366 1.18513-.81217 1.66616-1.33502.0244.30325.05577.57165.0976.80868.04183.23703.11503.49148.2196.75988h3.79941v-.51588c-.22657-.10457-.40085-.24052-.5124-.40434-.11502-.16035-.18474-.47057-.20914-.93069-.01743-.60302-.0244-1.1189-.0244-1.54416v-6.12438c0-1.61039-.56817-2.7049-1.7045-3.28701-1.13634-.57863-2.43302-.86794-3.89702-.86794-2.24479 0-3.83078.5856-4.7545 1.76376-.57862.75292-.90627 1.71148-.97947 2.8792h3.37067c.08017-.5159.244-.92372.488-1.22349.34508-.41131.9272-.61348 1.7533-.61348.73549 0 1.2932.10457 1.67314.31023.37994.20914.56817.58908.56817 1.13633 0 .44966-.24749.77731-.74594.98994-.27886.12549-.73897.22657-1.38383.30674zm.18125-5.58758zm7.15963 2.96633h1.86136v8.22276c0 .83309.1952 1.45006.58909 1.85091.60302.62743 1.73239.91325 3.38113.85748l1.6557-.06274v-2.61079c-.11503.01046-.23354.01743-.35205.02092-.11852.00348-.23006.00697-.33463.00697-.71108 0-1.13634-.06972-1.27577-.20566-.13942-.13246-.20914-.47405-.20914-1.02131v-7.05854h2.1716v-2.4888h-2.1716v-3.72272h-3.45433v3.72273h-1.86136zm13.11669.67274c.44617-.50543 1.0736-.75988 1.88228-.75988.74245 0 1.36639.2405 1.86833.71805.50194.47754.7808 1.17817.84005 2.10188h-5.43072c.11503-.86794.39389-1.55114.84006-2.06005zm4.88346-3.01513c-.88885-.4148-1.89273-.62394-3.00118-.62394-1.87182 0-3.39508.61697-4.56627 1.8509-1.1712 1.23394-1.7568 3.00816-1.7568 5.31918 0 2.46788.64835 4.24907 1.94851 5.34358 1.29668 1.09451 2.79553 1.64176 4.49656 1.64176 2.05656 0 3.65998-.65182 4.80329-1.9485.73548-.81914 1.1468-1.62434 1.23742-2.4156h-3.56587c-.18823.3939-.40434.70063-.64834.92023-.44965.40783-1.03525.61349-1.7533.61349-.67972 0-1.25834-.16732-1.73937-.50543-.79474-.5368-1.21302-1.47794-1.26182-2.81645h9.1395c.01743-1.15376-.02091-2.03564-.10805-2.64913-.15686-1.0457-.49497-1.96245-1.01783-2.75719-.58211-.89582-1.3176-1.55462-2.20645-1.9729zm-2.75718-.62394zm11.1647 9.44973h-3.54148c0 1.36988.49846 2.49925 1.49885 3.3881 1.0004.88537 2.55153 1.32805 4.65341 1.32805 2.05656 0 3.57982-.41828 4.56278-1.25485.98646-.83657 1.47794-1.91714 1.47794-3.2417 0-1.00388-.34508-1.84394-1.03177-2.5132-.69365-.66227-1.73588-1.15376-3.12318-1.48141-2.08445-.45663-3.29748-.7808-3.63908-.96903-.34508-.17777-.51588-.47057-.51588-.86794 0-.32068.16034-.59954.48451-.83657.32417-.23354.86446-.35205 1.62434-.35205.92371 0 1.57554.23354 1.95896.7076.20566.26142.33114.61697.37994 1.06662h3.49268c-.15338-1.6313-.7564-2.78159-1.8056-3.44736-1.0492-.66577-2.40862-1.0004-4.07478-1.0004-1.7568 0-3.1197.4427-4.08873 1.33154-.96554.88537-1.45005 1.94503-1.45005 3.17896 0 1.04571.31023 1.84742.93068 2.40165.62046.56468 1.68708 1.03177 3.19988 1.40822 2.09839.49846 3.31141.85051 3.63907 1.05617.32417.20217.488.50194.488.89234 0 .40783-.20218.71457-.60652.92022-.40434.20217-.9481.30675-1.63479.30675-1.1677 0-1.96942-.23355-2.40165-.70063-.244-.26143-.40434-.70063-.47754-1.32108zm2.67004-9.44973zm7.51168 5.06123v3.30793h7.03414v-3.30793zm17.75616 5.09958c-.54726.72503-1.33154 1.09103-2.35285 1.09103-1.02131 0-1.8056-.366-2.35633-1.09103-.55423-.7285-.8296-1.76028-.8296-3.10227 0-1.3385.27537-2.37028.8296-3.0953.55074-.72154 1.33502-1.08405 2.35633-1.08405 1.02131 0 1.8056.3625 2.35285 1.08405.54725.72502.82262 1.7568.82262 3.0953 0 1.342-.27537 2.37376-.82262 3.10227zm2.79553 1.9276c1.12588-1.3908 1.69056-3.06742 1.69056-5.02987 0-1.9276-.56468-3.59724-1.69056-5.01244-1.12937-1.4117-2.84085-2.1193-5.13444-2.1193-2.29707 0-4.00855.7076-5.13443 2.1193-1.12937 1.4152-1.69057 3.08485-1.69057 5.01244 0 1.96245.5612 3.63907 1.69057 5.02986 1.12588 1.39428 2.83736 2.09142 5.13443 2.09142 2.2936 0 4.00507-.69714 5.13444-2.09142zm-5.13444-12.08841zm17.82239 4.30135c.47057.79125.7076 1.7045.7076 2.73279 0 1.25137-.25795 2.25176-.76686 3.00119-.5124.7529-1.25137 1.12936-2.22388 1.12936-.67274 0-1.25136-.18474-1.74285-.55074-.82262-.6309-1.23742-1.72193-1.23742-3.27307 0-.97948.12549-1.78816.36948-2.42605.47406-1.20256 1.342-1.8021 2.6108-1.8021 1.05267 0 1.81604.39737 2.28313 1.18862zm2.68399-2.51319c-1.08057-1.15028-2.40165-1.72542-3.96324-1.72542-1.07011 0-1.99383.29628-2.77114.89234-.42177.33463-.82262.79474-1.19908 1.37336v-1.9729h-3.34627v18.61364h3.45782v-6.96095c.366.56469.74245.99343 1.12588 1.28971.7041.52983 1.58599.79474 2.64564.79474 1.66617 0 3.02908-.61697 4.08873-1.8509 1.05617-1.23394 1.586-3.0256 1.586-5.37844 0-2.23085-.5403-3.92141-1.62434-5.07518zm7.53608 1.8509c.44617-.50542 1.0736-.75987 1.88228-.75987.74245 0 1.3664.2405 1.86833.71805.50194.47754.78429 1.17817.84006 2.10188h-5.42724c.11154-.86794.39389-1.55114.83657-2.06005zm4.88347-3.01512c-.88886-.4148-1.88925-.62394-3.0012-.62394-1.87181 0-3.39158.61697-4.56626 1.8509-1.1712 1.23394-1.7568 3.00816-1.7568 5.31918 0 2.46788.64835 4.24907 1.94851 5.34358 1.30017 1.09451 2.79902 1.64176 4.49656 1.64176 2.06005 0 3.65998-.65182 4.8033-1.9485.73547-.81914 1.15027-1.62434 1.23741-2.4156h-3.56587c-.18822.3939-.40434.70063-.64834.92023-.44965.40783-1.03176.61349-1.7533.61349-.67623 0-1.25834-.16732-1.73937-.50543-.79125-.5368-1.21302-1.47794-1.26182-2.81645h9.14299c.01394-1.15376-.02091-2.03564-.11154-2.64913-.15686-1.0457-.49497-1.96245-1.01783-2.75719-.57862-.89582-1.3141-1.55462-2.20644-1.9729zm-2.7572-.62394zm25.11099.40434c-.57166-.22657-1.15377-.3416-1.73937-.3416-.88188 0-1.68359.18126-2.40164.55074-.67971.366-1.24788.94462-1.70451 1.7289-.26143-.6553-.64485-1.18862-1.15377-1.6069-.62742-.44966-1.45353-.67274-2.47484-.67274-1.07708 0-1.95548.26143-2.6352.78428-.38342.2928-.79125.78777-1.22347 1.48142v-1.9485h-3.39508v13.3328h3.54148v-8.03802c0-.72851.09411-1.27577.28234-1.64177.3416-.64485 1.01434-.96902 2.00776-.96902.86097 0 1.4361.32417 1.7289.96902.16384.35903.244.93417.244 1.7289v7.9509h3.51708v-7.9509c0-.59953.09411-1.10844.28234-1.5337.36948-.80171 1.03525-1.19908 1.9973-1.19908.83309 0 1.40823.31023 1.71846.93068.16034.32417.244.74246.244 1.24788v8.50511h3.57632l.0244-8.41796c0-.86794-.03834-1.52326-.122-1.97291-.12897-.67971-.38342-1.25137-.75988-1.71497-.4636-.57165-.98297-.9725-1.55462-1.20256z"/></svg>