<svg xmlns="http://www.w3.org/2000/svg" role="img" viewBox="7.69 -8.31 536.12 136.12"><title>Unicorn systems a.s. logo</title><g fill="#002882"><path d="M93 2h1v1h-1zm1 0h1v1h-1zm1 0h1v1h-1zm-3 1h1v1h-1zm1 0h1v18h-1zm1 0h1v12h-1zm1 0h1v1h-1zm1 0h1v1h-1zm-4 1h1v1h-1zm3 0h1v7h-1zm1 0h1v1h-1zm-4 1h1v1h-1zm4 0h1v7h-1zm1 0h1v1h-1zm-5 1h1v1h-1zm5 0h1v1h-1zM78 7h1v1h-1zm1 0h1v1h-1zm1 0h1v1h-1zm1 0h1v1h-1zm1 0h1v1h-1zm10 0h1v1h-1zm5 0h1v1h-1zM60 8h1v1h-1zm1 0h1v1h-1zm1 0h1v1h-1zm1 0h2v6h-2zm2 0h1v3h-1zm1 0h1v1h-1zm1 0h1v1h-1zm1 0h1v1h-1zm1 0h1v1h-1zm8 0h1v1h-1zm1 0h4v3h-4zm4 0h1v3h-1zm1 0h1v1h-1zm1 0h1v1h-1zm7 0h1v1h-1z"/><path d="M92 8h4v3h-4zm5 0h1v1h-1zM58 9h1v1h-1zm1 0h1v1h-1zm1 0h1v1h-1zm1 0h9v2h-9zm9 0h1v2h-1zm1 0h1v1h-1zm1 0h1v1h-1zm1 0h1v1h-1zm1 0h1v1h-1zm1 0h1v1h-1zm1 0h1v1h-1zm1 0h7v2h-7zm7 0h1v2h-1zm1 0h1v1h-1zm1 0h1v1h-1zm1 0h1v1h-1zm1 0h1v1h-1zm2 0h1v1h-1zm1 0h1v1h-1zm6 0h1v3h-1zm1 0h1v1h-1zm-41 1h1v1h-1zm1 0h1v1h-1z"/><path d="M59 10h38v1H59zm39 0h1v1h-1zm-43 1h1v1h-1zm1 0h1v1h-1zm1 0h41v1H57zm41 0h1v3h-1zm1 0h1v1h-1zm-49 1h1v1h-1zm2 0h1v1h-1zm1 0h1v1h-1zm1 0h1v1h-1zm1 0h9v2h-9zm10 0h1v1h-1zm1 0h1v1h-1zm1 0h1v1h-1zm1 0h1v1h-1zm1 0h1v1h-1zm1 0h1v1h-1zm1 0h1v1h-1zm1 0h8v1h-8zm8 0h1v3h-1zm1 0h1v1h-1zm1 0h1v1h-1zm1 0h1v1h-1zm1 0h1v1h-1zm1 0h1v1h-1zm1 0h8v1h-8zm9 0h1v1h-1zm1 0h2v1h-2zm3 0h1v1h-1zm1 0h1v1h-1zm72 0h1v1h-1zm1 0h1v1h-1zm1 0h1v1h-1zm1 0h1v1h-1zm1 0h2v1h-2zm2 0h1v1h-1zm1 0h1v1h-1zm1 0h1v1h-1zm1 0h1v1h-1zm1 0h1v1h-1zM48 13h1v1h-1zm1 0h1v1h-1z"/><path d="M50 13h15v1H50zm15 0h1v2h-1zm1 0h1v1h-1zm1 0h1v1h-1zm5 0h1v1h-1zm1 0h1v1h-1zm1 0h1v1h-1zm1 0h6v1h-6zm6 0h1v2h-1zm1 0h1v1h-1zm4 0h1v1h-1zm1 0h1v1h-1zm1 0h1v1h-1zm1 0h5v1h-5zm6 0h1v1h-1zm1 0h1v1h-1zm1 0h1v1h-1zm2 0h1v3h-1zm1 0h1v1h-1zm1 0h1v1h-1zm70 0h1v1h-1zm1 0h1v1h-1zm1 0h9v1h-9zm9 0h1v1h-1zM47 14h1v1h-1z"/><path d="M48 14h18v1H48zm18 0h1v1h-1zm1 0h1v1h-1zm1 0h1v1h-1zm7 0h1v1h-1zm1 0h1v1h-1zm1 0h1v1h-1zm1 0h3v1h-3zm4 0h1v1h-1zm1 0h1v1h-1zm5 0h1v1h-1zm1 0h1v1h-1zm1 0h1v1h-1zm1 0h3v1h-3zm4 0h1v1h-1zm2 0h1v1h-1zm1 0h2v1h-2zm2 0h1v4h-1zm1 0h1v1h-1zm5 0h1v1h-1zm1 0h1v1h-1zm1 0h2v1h-2zm2 0h1v1h-1zm1 0h1v1h-1zm53 0h1v1h-1zm1 0h2v1h-2zm2 0h1v1h-1zm1 0h1v1h-1zm1 0h1v1h-1zm1 0h1v1h-1zm1 0h10v1h-10zm10 0h1v1h-1zm1 0h1v1h-1zM46 15h1v1h-1zm1 0h1v1h-1zm1 0h10v1H48zm10 0h1v6h-1zm1 0h1v1h-1zm3 0h1v1h-1zm1 0h1v1h-1zm1 0h1v1h-1zm1 0h3v1h-3zm3 0h1v2h-1zm1 0h1v1h-1zm1 0h1v1h-1zm7 0h1v1h-1zm1 0h1v1h-1zm1 0h1v1h-1zm1 0h3v1h-3zm3 0h1v2h-1zm1 0h1v1h-1zm1 0h1v1h-1zm5 0h1v1h-1zm1 0h3v1h-3zm3 0h1v1h-1zm4 0h1v1h-1zm3 0h1v8h-1zm1 0h1v1h-1zm1 0h1v1h-1zm1 0h1v1h-1zm1 0h1v1h-1zm1 0h5v1h-5zm5 0h1v1h-1zm1 0h1v1h-1zm47 0h1v1h-1zm1 0h1v1h-1zm1 0h1v1h-1zm1 0h18v1h-18zm18 0h1v1h-1zm1 0h1v1h-1zm1 0h1v1h-1zM46 16h1v1h-1zm1 0h11v1H47zm12 0h1v1h-1zm1 0h1v1h-1zm5 0h1v1h-1zm1 0h1v1h-1z"/><path d="M67 16h3v1h-3zm3 0h1v2h-1zm1 0h1v1h-1zm1 0h1v1h-1zm8 0h1v1h-1zm1 0h1v1h-1zm1 0h2v1h-2zm2 0h1v17h-1zm1 0h1v1h-1zm1 0h1v1h-1zm5 0h1v1h-1zm1 0h1v13h-1zm2 0h1v1h-1zm4 0h1v1h-1zm1 0h10v1H99zm10 0h1v1h-1zm1 0h1v1h-1zm1 0h1v1h-1zm1 0h1v1h-1zm46 0h1v1h-1zm1 0h1v1h-1zm1 0h18v1h-18zm18 0h1v1h-1zm1 0h1v1h-1zm1 0h1v1h-1zM45 17h1v1h-1zm1 0h7v1h-7zm7 0h1v1h-1zm1 0h1v1h-1zm1 0h1v1h-1zm1 0h1v1h-1zm1 0h2v4h-2zm2 0h1v4h-1zm1 0h1v1h-1zm1 0h1v1h-1zm6 0h1v1h-1z"/><path d="M68 17h3v1h-3zm3 0h1v2h-1zm1 0h1v1h-1zm1 0h1v1h-1zm9 0h1v1h-1zm1 0h3v1h-3zm3 0h1v8h-1zm1 0h1v1h-1zm4 0h1v1h-1zm3 0h1v1h-1zm5 0h1v1h-1zm3 0h6v5h-6zm6 0h1v14h-1zm1 0h1v1h-1zm6 0h1v1h-1zm1 0h1v1h-1zm1 0h1v1h-1zm40 0h1v1h-1zm1 0h1v1h-1zm1 0h5v1h-5zm5 0h1v1h-1zm1 0h1v1h-1zm1 0h1v1h-1zm1 0h1v1h-1zm1 0h1v1h-1zm1 0h1v1h-1zm1 0h1v1h-1zm1 0h6v1h-6zm6 0h1v1h-1zm1 0h1v1h-1zm1 0h1v1h-1zM44 18h1v1h-1zm1 0h1v1h-1zm1 0h3v1h-3zm3 0h1v1h-1zm1 0h1v1h-1zm1 0h1v1h-1zm5 0h1v1h-1zm4 0h1v3h-1zm1 0h1v3h-1zm1 0h1v1h-1zm6 0h1v1h-1z"/><path d="M69 18h4v1h-4zm4 0h1v5h-1zm1 0h1v1h-1zm8 0h1v1h-1zm1 0h1v1h-1zm2 0h1v22h-1zm2 0h1v1h-1zm1 0h1v1h-1zm2 0h1v1h-1zm1 0h1v1h-1zm3 0h1v1h-1zm5 0h1v1h-1zm1 0h7v1h-7zm9 0h1v1h-1zm1 0h1v1h-1zm1 0h1v1h-1zm1 0h1v1h-1zm1 0h1v1h-1zm1 0h3v2h-3zm3 0h1v2h-1zm1 0h1v1h-1zm1 0h1v1h-1zm30 0h1v1h-1zm1 0h1v1h-1zm1 0h1v1h-1zm1 0h1v1h-1zm1 0h1v1h-1zm1 0h1v1h-1zm1 0h2v1h-2zm2 0h1v1h-1zm1 0h4v3h-4zm4 0h1v6h-1zm1 0h1v1h-1zm1 0h1v2h-1zm6 0h1v1h-1zm1 0h1v1h-1zm1 0h1v1h-1zm1 0h2v1h-2zm2 0h1v1h-1zm1 0h1v1h-1zm1 0h1v1h-1zm1 0h1v1h-1zM42 19h1v1h-1zm1 0h1v1h-1zm1 0h4v2h-4zm4 0h1v1h-1zm1 0h1v1h-1zm1 0h1v1h-1zm4 0h1v1h-1zm1 0h1v1h-1zm1 0h6v2h-6zm6 0h1v2h-1zm1 0h1v1h-1zm1 0h1v1h-1zm5 0h1v1h-1zm1 0h1v1h-1zm1 0h2v1h-2zm3 0h1v1h-1zm1 0h1v1h-1zm8 0h1v1h-1zm4 0h1v3h-1zm1 0h1v1h-1zm1 0h1v1h-1zm1 0h3v7h-3zm4 0h1v1h-1zm6 0h1v1h-1z"/><path d="M109 19h9v1h-9zm9 0h1v1h-1zm1 0h1v1h-1zm27 0h1v1h-1zm1 0h1v1h-1zm1 0h1v1h-1zm1 0h12v1h-12zm14 0h1v1h-1zm7 0h1v1h-1zm1 0h1v1h-1zm1 0h1v1h-1zm1 0h1v1h-1zM41 20h1v1h-1zm1 0h1v1h-1zm1 0h4v2h-4zm5 0h1v1h-1zm1 0h1v1h-1zm4 0h1v1h-1zm1 0h1v1h-1zm1 0h8v1h-8zm8 0h1v1h-1zm1 0h1v1h-1zm1 0h1v1h-1zm6 0h1v1h-1zm1 0h2v3h-2zm2 0h1v3h-1zm1 0h1v1h-1zm1 0h1v1h-1zm1 0h1v1h-1zm1 0h1v1h-1zm1 0h2v1h-2zm2 0h1v1h-1zm1 0h11v2H82zm12 0h1v1h-1zm6 0h1v1h-1zm9 0h10v1h-10zm10 0h1v1h-1zm1 0h1v1h-1zm25 0h1v1h-1zm1 0h1v1h-1zm1 0h15v1h-15zm16 0h1v1h-1zm1 0h1v1h-1zm1 0h1v1h-1zm1 0h1v1h-1zm2 0h1v1h-1zm1 0h1v1h-1zm1 0h1v1h-1zm1 0h1v1h-1zm1 0h1v1h-1zm1 0h1v1h-1zM39 21h1v1h-1zm1 0h1v1h-1z"/><path d="M41 21h6v1h-6zm6 0h1v1h-1zm1 0h1v1h-1zm4 0h1v1h-1zm1 0h1v1h-1zm1 0h10v1H54zm10 0h1v1h-1zm1 0h1v1h-1zm1 0h1v1h-1zm4 0h1v1h-1zm1 0h1v1h-1zm4 0h18v1H75zm18 0h1v1h-1zm7 0h1v1h-1zm9 0h6v1h-6zm6 0h1v1h-1zm1 0h1v1h-1zm1 0h1v1h-1zm1 0h1v1h-1zm1 0h1v1h-1zm1 0h1v1h-1zm24 0h1v1h-1zm1 0h1v1h-1zm1 0h6v1h-6zm6 0h1v1h-1zm1 0h1v1h-1zm1 0h1v1h-1zm1 0h1v1h-1zm1 0h1v1h-1zm1 0h1v1h-1zm1 0h12v1h-12zm12 0h1v1h-1zm1 0h1v1h-1zm1 0h1v1h-1zM37 22h1v1h-1zm1 0h1v1h-1zm1 0h1v1h-1zm1 0h6v1h-6zm6 0h1v8h-1zm1 0h1v1h-1zm4 0h1v1h-1zm1 0h1v1h-1zm1 0h2v1h-2zm2 0h1v1h-1zm1 0h1v1h-1zm1 0h1v1h-1zm1 0h2v1h-2zm2 0h1v1h-1zm1 0h1v1h-1zm1 0h1v1h-1zm1 0h1v1h-1zm1 0h1v1h-1zm1 0h1v6h-1zm1 0h1v1h-1zm1 0h1v1h-1zm1 0h1v1h-1zm1 0h1v1h-1zm1 0h22v1H70zm23 0h1v1h-1zm7 0h1v1h-1zm2 0h11v1h-11zm11 0h1v1h-1zm1 0h1v1h-1zm1 0h1v2h-1zm22 0h1v1h-1zm1 0h1v1h-1zm1 0h1v1h-1zm1 0h1v1h-1zm1 0h1v1h-1zm1 0h1v1h-1zm1 0h1v1h-1zm1 0h1v1h-1zm1 0h5v3h-5zm5 0h1v7h-1zm1 0h1v1h-1zm1 0h1v1h-1zm6 0h1v1h-1zm1 0h1v1h-1zm1 0h9v1h-9zm9 0h1v1h-1zm1 0h1v1h-1zm1 0h1v1h-1zM35 23h1v1h-1zm1 0h6v1h-6zm6 0h4v1h-4zm5 0h1v1h-1zm2 0h1v1h-1zm1 0h1v1h-1zm1 0h2v1h-2zm2 0h1v1h-1zm1 0h1v1h-1zm1 0h1v1h-1zm8 0h1v1h-1zm1 0h1v1h-1zm2 0h20v1H66zm21 0h1v1h-1zm1 0h1v1h-1zm1 0h1v1h-1zm4 0h1v1h-1zm3 0h1v1h-1zm1 0h1v1h-1zm4 0h2v1h-2zm2 0h8v1h-8zm8 0h1v5h-1zm1 0h1v1h-1zm1 0h1v1h-1zm1 0h1v1h-1zm20 0h1v1h-1zm1 0h1v1h-1zm1 0h1v1h-1z"/><path d="M137 23h12v2h-12zm24 0h1v1h-1zm2 0h1v1h-1zm1 0h1v1h-1zm1 0h1v1h-1zm1 0h1v1h-1zm1 0h1v1h-1zm1 0h1v1h-1zm1 0h1v1h-1zM35 24h1v1h-1zm1 0h4v1h-4zm4 0h1v1h-1zm1 0h1v1h-1zm1 0h1v1h-1zm2 0h1v1h-1zm1 0h1v7h-1zm2 0h1v1h-1zm1 0h1v1h-1zm1 0h3v4h-3zm3 0h1v4h-1zm1 0h1v1h-1zm11 0h1v1h-1zm2 0h5v1h-5zm5 0h1v1h-1zm1 0h1v1h-1zm1 0h1v1h-1zm1 0h1v1h-1zm1 0h6v1h-6zm6 0h5v1h-5zm6 0h1v1h-1zm2 0h1v1h-1zm4 0h1v1h-1zm3 0h1v1h-1zm1 0h1v1h-1zm4 0h1v1h-1zm1 0h1v12h-1zm1 0h1v11h-1zm1 0h1v1h-1zm1 0h1v1h-1zm1 0h5v2h-5zm6 0h1v1h-1zm1 0h1v1h-1zm1 0h1v1h-1zm1 0h1v1h-1zm1 0h1v1h-1zm17 0h1v1h-1zm1 0h1v1h-1z"/><path d="M135 24h15v1h-15zm16 0h1v1h-1zm1 0h1v1h-1zm7 0h1v1h-1zm1 0h1v1h-1zm1 0h1v1h-1zm1 0h1v1h-1zm1 0h1v1h-1zm1 0h1v1h-1zM34 25h1v1h-1zm1 0h4v1h-4zm4 0h1v1h-1zm1 0h1v1h-1zm4 0h1v1h-1zm3 0h4v3h-4zm9 0h1v1h-1zm1 0h1v1h-1zm5 0h1v1h-1zm1 0h1v1h-1zm1 0h1v1h-1zm2 0h3v2h-3zm3 0h1v1h-1zm1 0h1v1h-1zm1 0h1v1h-1zm2 0h1v1h-1zm1 0h1v1h-1zm1 0h5v2h-5zm5 0h1v1h-1zm1 0h1v1h-1zm1 0h1v1h-1zm1 0h1v1h-1zm3 0h1v1h-1zm1 0h1v1h-1zm2 0h1v1h-1zm4 0h1v1h-1zm3 0h1v1h-1zm1 0h1v5h-1zm1 0h1v1h-1zm3 0h1v2h-1zm3 0h1v1h-1zm1 0h1v1h-1zm7 0h4v2h-4zm4 0h1v2h-1zm1 0h1v1h-1zm1 0h1v1h-1zm14 0h1v1h-1zm1 0h19v1h-19zm19 0h1v3h-1zm1 0h1v1h-1zm1 0h1v1h-1zm1 0h1v1h-1zm2 0h1v1h-1zm1 0h1v1h-1zm1 0h1v1h-1zm1 0h1v1h-1zm1 0h1v1h-1zm1 0h1v1h-1zm1 0h1v1h-1zM34 26h1v1h-1zm1 0h3v2h-3zm3 0h1v1h-1zm1 0h1v1h-1zm4 0h1v1h-1z"/><path d="M44 26h13v2H44zm13 0h1v10h-1zm1 0h1v1h-1zm1 0h2v1h-2zm2 0h1v1h-1zm1 0h6v2h-6zm7 0h1v1h-1zm4 0h1v1h-1zm1 0h5v3h-5zm6 0h1v1h-1zm1 0h1v1h-1zm2 0h1v1h-1zm3 0h1v1h-1zm3 0h1v1h-1zm1 0h2v1h-2zm3 0h1v1h-1zm3 0h1v7h-1zm2 0h1v2h-1zm6 0h1v1h-1zm1 0h1v1h-1zm1 0h12v1h-12zm12 0h1v2h-1zm1 0h1v1h-1zm1 0h1v1h-1zm5 0h1v1h-1zm1 0h1v1h-1zm1 0h1v1h-1zm1 0h10v1h-10zm10 0h1v1h-1zm1 0h1v1h-1zm1 0h1v1h-1zm1 0h1v1h-1zm3 0h1v1h-1zm1 0h1v1h-1zm1 0h1v1h-1zm1 0h13v1h-13zm13 0h1v1h-1zm1 0h1v1h-1zm1 0h1v1h-1zM34 27h1v1h-1zm4 0h1v1h-1zm5 0h1v1h-1z"/><path d="M58 27h10v1H58zm10 0h1v1h-1zm1 0h1v1h-1zm3 0h1v1h-1zm1 0h6v2h-6zm6 0h1v1h-1zm1 0h1v1h-1zm3 0h1v1h-1zm3 0h1v1h-1zm4 0h1v1h-1zm1 0h1v9h-1zm2 0h1v1h-1zm2 0h1v1h-1zm6 0h1v1h-1zm5 0h1v1h-1zm1 0h12v1h-12zm12 0h1v3h-1zm1 0h1v1h-1zm3 0h1v1h-1zm1 0h1v1h-1zm1 0h12v1h-12zm12 0h1v1h-1zm1 0h1v1h-1zm1 0h1v1h-1zm8 0h1v1h-1zm1 0h11v1h-11zm11 0h1v1h-1zm1 0h1v1h-1zm1 0h1v1h-1zM34 28h1v1h-1zm1 0h2v2h-2zm2 0h1v1h-1zm1 0h1v1h-1zm4 0h1v1h-1zm1 0h24v1H43zm24 0h1v15h-1zm1 0h1v1h-1zm3 0h1v1h-1z"/><path d="M72 28h6v1h-6zm7 0h1v1h-1zm4 0h1v1h-1zm3 0h1v1h-1zm4 0h1v1h-1zm3 0h1v1h-1zm2 0h1v1h-1zm3 0h1v1h-1zm3 0h1v1h-1zm5 0h1v1h-1zm1 0h4v1h-4zm4 0h1v1h-1zm1 0h1v1h-1zm1 0h1v1h-1zm1 0h1v1h-1zm1 0h1v1h-1zm1 0h1v1h-1zm1 0h3v1h-3zm3 0h1v2h-1zm1 0h1v1h-1zm1 0h1v1h-1zm1 0h13v2h-13zm13 0h1v1h-1zm1 0h1v1h-1zm10 0h1v1h-1zm1 0h5v1h-5zm5 0h1v1h-1zm1 0h1v1h-1zm1 0h2v1h-2zm2 0h1v1h-1zm1 0h1v1h-1zm1 0h1v1h-1zM34 29h2v6h-2zm3 0h1v1h-1zm5 0h1v1h-1zm1 0h6v1h-6zm6 0h1v1h-1zm1 0h1v1h-1zm1 0h1v1h-1zm1 0h1v1h-1zm1 0h2v1h-2zm2 0h1v1h-1zm1 0h7v1h-7zm7 0h1v1h-1zm1 0h1v1h-1zm1 0h1v1h-1zm1 0h1v11h-1zm2 0h1v1h-1zm3 0h1v1h-1zm1 0h6v1h-6zm6 0h1v3h-1zm1 0h1v1h-1zm4 0h1v1h-1zm3 0h1v10h-1zm4 0h1v1h-1zm2 0h1v1h-1zm3 0h1v1h-1zm3 0h1v1h-1zm3 0h2v7h-2zm3 0h1v1h-1zm1 0h1v1h-1zm1 0h3v2h-3zm3 0h1v3h-1zm1 0h1v1h-1zm1 0h1v1h-1zm6 0h1v1h-1zm1 0h1v1h-1z"/><path d="M121 29h14v1h-14zm15 0h1v1h-1zm1 0h1v1h-1zm9 0h1v1h-1zm1 0h4v1h-4zm4 0h1v1h-1zm1 0h1v1h-1zm1 0h1v1h-1zM33 30h1v1h-1zm3 0h1v1h-1zm1 0h1v1h-1zm5 0h1v1h-1zm1 0h4v1h-4zm4 0h1v1h-1zm1 0h1v1h-1zm1 0h1v1h-1zm7 0h1v1h-1zm2 0h4v7h-4zm4 0h1v1h-1zm1 0h1v1h-1zm1 0h1v1h-1zm1 0h1v1h-1zm3 0h1v1h-1zm2 0h1v1h-1zm1 0h2v2h-2zm2 0h5v1h-5zm6 0h1v1h-1zm4 0h1v1h-1zm4 0h1v1h-1zm3 0h2v1h-2zm2 0h1v1h-1zm3 0h1v1h-1zm2 0h1v1h-1zm3 0h1v1h-1zm4 0h5v1h-5zm6 0h1v1h-1zm1 0h1v1h-1zm7 0h1v1h-1zm1 0h16v1h-16zm16 0h1v7h-1zm1 0h1v1h-1zm8 0h1v1h-1zm1 0h1v1h-1zm1 0h3v1h-3zm3 0h1v1h-1zm1 0h1v1h-1zm1 0h1v1h-1zM33 31h1v1h-1zm3 0h1v1h-1zm3 0h1v1h-1zm1 0h1v1h-1zm1 0h4v1h-4zm4 0h1v1h-1zm1 0h1v1h-1zm1 0h1v1h-1zm9 0h1v1h-1zm6 0h1v1h-1zm3 0h1v1h-1zm3 0h1v16h-1zm1 0h1v1h-1zm1 0h1v1h-1zm3 0h1v1h-1zm1 0h1v1h-1zm1 0h3v4h-3zm4 0h1v1h-1zm8 0h1v1h-1zm2 0h1v1h-1zm1 0h1v21h-1zm2 0h1v1h-1zm3 0h2v1h-2zm2 0h1v1h-1zm3 0h1v1h-1zm4 0h6v1h-6zm6 0h1v2h-1zm1 0h1v1h-1zm1 0h1v1h-1zm7 0h1v1h-1zm1 0h1v1h-1zm1 0h3v4h-3zm3 0h1v1h-1zm1 0h1v1h-1zm1 0h1v1h-1zm1 0h1v1h-1zm2 0h1v1h-1zm1 0h1v1h-1zm1 0h1v1h-1z"/><path d="M132 31h4v1h-4zm4 0h1v5h-1zm1 0h1v1h-1zm1 0h1v1h-1zm1 0h1v1h-1zm3 0h1v1h-1zm1 0h1v1h-1zm1 0h4v1h-4zm4 0h1v1h-1zm1 0h1v1h-1zm1 0h1v1h-1zM32 32h1v1h-1zm1 0h2v3h-2zm3 0h2v1h-2zm2 0h1v1h-1zm1 0h5v1h-5zm5 0h1v1h-1zm1 0h1v1h-1zm9 0h1v1h-1zm1 0h1v1h-1zm1 0h5v4h-5zm6 0h1v2h-1zm3 0h1v1h-1zm4 0h1v1h-1zm1 0h2v2h-2zm2 0h6v1h-6zm6 0h1v1h-1zm9 0h1v1h-1zm2 0h1v1h-1zm3 0h1v1h-1zm3 0h1v1h-1zm2 0h1v1h-1zm3 0h1v1h-1zm4 0h2v1h-2zm2 0h1v1h-1zm1 0h1v1h-1zm1 0h1v1h-1zm1 0h3v1h-3zm3 0h1v6h-1zm1 0h1v1h-1zm1 0h1v1h-1zm1 0h1v1h-1zm9 0h1v1h-1zm1 0h1v1h-1zm6 0h1v1h-1zm1 0h1v1h-1z"/><path d="M133 32h6v1h-6zm6 0h1v3h-1zm1 0h1v1h-1zm1 0h1v1h-1zm1 0h5v1h-5zm5 0h1v1h-1zm1 0h1v1h-1zm1 0h1v1h-1zM31 33h1v1h-1zm1 0h1v1h-1zm4 0h7v1h-7zm7 0h1v4h-1zm1 0h1v1h-1zm1 0h1v1h-1zm7 0h1v1h-1zm1 0h1v1h-1zm1 0h7v3h-7zm11 0h1v1h-1zm4 0h2v2h-2zm3 0h1v1h-1zm2 0h3v1h-3zm4 0h1v1h-1zm6 0h2v1h-2zm3 0h1v1h-1zm1 0h1v1h-1zm1 0h2v8h-2zm3 0h1v1h-1zm3 0h1v2h-1zm1 0h1v1h-1zm1 0h1v1h-1zm3 0h1v1h-1zm4 0h1v1h-1zm1 0h1v1h-1zm1 0h1v1h-1zm3 0h1v1h-1zm1 0h5v1h-5zm5 0h1v6h-1zm1 0h1v1h-1zm1 0h2v1h-2zm2 0h1v1h-1zm1 0h1v1h-1zm4 0h1v1h-1zm9 0h1v1h-1z"/><path d="M134 33h12v1h-12zm12 0h1v1h-1zm1 0h1v1h-1zm1 0h1v1h-1zM30 34h1v1h-1zm1 0h1v1h-1zm1 0h5v1h-5zm5 0h1v1h-1zm1 0h1v2h-1zm1 0h1v1h-1zm1 0h3v3h-3zm4 0h1v1h-1zm1 0h1v1h-1zm1 0h1v1h-1zm1 0h1v1h-1zm1 0h1v1h-1zm1 0h1v1h-1zm1 0h1v1h-1zm1 0h1v1h-1zm1 0h9v2h-9zm10 0h1v1h-1zm3 0h6v1h-6zm6 0h1v1h-1zm1 0h1v1h-1zm2 0h3v1h-3zm4 0h1v1h-1zm6 0h1v1h-1zm3 0h4v5h-4zm5 0h1v1h-1zm2 0h1v1h-1zm2 0h1v1h-1zm4 0h1v1h-1zm4 0h1v1h-1zm1 0h1v1h-1zm5 0h1v1h-1zm1 0h13v1h-13zm13 0h1v1h-1zm1 0h1v1h-1zm8 0h1v1h-1zm1 0h1v1h-1zm3 0h7v1h-7zm7 0h1v1h-1zm1 0h1v1h-1zm1 0h1v1h-1zM29 35h1v1h-1zm1 0h1v1h-1zm1 0h4v1h-4zm4 0h1v1h-1zm1 0h1v1h-1zm1 0h1v1h-1zm2 0h1v1h-1z"/><path d="M44 35h17v1H44zm18 0h1v1h-1zm3 0h5v5h-5zm5 0h1v1h-1zm1 0h1v1h-1zm1 0h1v1h-1zm2 0h1v1h-1zm1 0h2v2h-2zm2 0h1v1h-1zm1 0h1v1h-1zm6 0h1v2h-1zm8 0h1v1h-1zm2 0h1v1h-1zm1 0h1v1h-1zm1 0h1v1h-1zm3 0h1v1h-1zm1 0h3v1h-3zm3 0h1v1h-1zm1 0h1v1h-1zm1 0h1v1h-1zm3 0h1v1h-1zm1 0h1v1h-1zm1 0h1v1h-1zm1 0h13v2h-13zm13 0h1v1h-1zm1 0h1v1h-1zm6 0h1v1h-1zm1 0h1v1h-1zm1 0h4v1h-4zm4 0h4v1h-4zm4 0h1v1h-1zm1 0h1v1h-1zm1 0h1v1h-1zm1 0h1v1h-1zM29 36h1v1h-1zm1 0h2v1h-2zm2 0h1v1h-1zm1 0h1v1h-1zm1 0h1v1h-1zm1 0h1v1h-1zm2 0h1v1h-1zm1 0h1v1h-1zm1 0h22v1H39zm23 0h1v1h-1zm2 0h1v1h-1zm6 0h1v1h-1zm1 0h1v1h-1zm3 0h1v1h-1zm3 0h1v1h-1zm14 0h1v1h-1zm3 0h1v1h-1zm1 0h1v1h-1zm4 0h1v1h-1zm1 0h2v1h-2zm2 0h1v1h-1zm1 0h1v1h-1zm1 0h1v1h-1zm3 0h1v1h-1zm1 0h1v1h-1z"/><path d="M109 36h13v1h-13zm15 0h1v1h-1zm7 0h1v1h-1zm1 0h4v1h-4zm4 0h1v1h-1zm1 0h1v1h-1zm1 0h1v1h-1zM28 37h1v1h-1zm1 0h2v2h-2zm2 0h1v1h-1zm1 0h1v1h-1zm1 0h1v1h-1zm3 0h1v1h-1zm1 0h18v1H37zm18 0h1v19h-1zm1 0h1v1h-1zm1 0h1v1h-1zm1 0h3v1h-3zm3 0h1v13h-1zm1 0h2v1h-2zm2 0h1v1h-1zm6 0h1v1h-1zm4 0h1v1h-1zm1 0h1v1h-1zm1 0h1v4h-1zm1 0h1v1h-1zm7 0h1v1h-1zm7 0h1v1h-1zm7 0h1v1h-1zm1 0h2v7h-2zm2 0h1v1h-1zm1 0h1v1h-1zm1 0h1v1h-1zm2 0h1v1h-1zm1 0h1v1h-1zm1 0h16v1h-16zm16 0h1v14h-1zm1 0h1v1h-1zm5 0h1v1h-1zm1 0h1v1h-1zm1 0h4v1h-4zm4 0h1v1h-1zm1 0h1v1h-1zm1 0h1v1h-1zM27 38h1v1h-1z"/><path d="M28 38h2v3h-2zm3 0h1v1h-1zm1 0h1v1h-1zm3 0h1v1h-1zm1 0h1v1h-1zm1 0h3v1h-3zm3 0h1v1h-1zm1 0h1v1h-1zm1 0h1v1h-1zm3 0h1v1h-1zm1 0h1v1h-1zm1 0h1v1h-1zm1 0h1v1h-1zm1 0h1v1h-1zm1 0h5v5h-5zm6 0h1v2h-1zm2 0h1v1h-1zm1 0h11v2H59zm11 0h1v3h-1zm1 0h1v1h-1zm4 0h1v1h-1zm2 0h1v1h-1zm6 0h1v1h-1zm1 0h6v1h-6zm7 0h1v1h-1zm7 0h1v1h-1zm3 0h1v1h-1zm1 0h1v1h-1zm1 0h1v1h-1zm1 0h1v1h-1zm1 0h7v1h-7zm7 0h12v1h-12zm12 0h1v13h-1zm1 0h1v1h-1zm1 0h1v1h-1zm1 0h1v1h-1zm1 0h1v1h-1zm1 0h1v1h-1zm1 0h4v1h-4zm4 0h1v1h-1zm1 0h1v1h-1zm1 0h1v1h-1zM26 39h1v1h-1z"/><path d="M27 39h3v2h-3zm3 0h1v1h-1zm1 0h1v1h-1zm4 0h1v1h-1zm1 0h2v1h-2zm2 0h1v1h-1zm1 0h1v1h-1zm1 0h1v1h-1zm18 0h1v1h-1zm13 0h1v1h-1zm4 0h1v1h-1zm2 0h1v2h-1zm1 0h1v1h-1zm4 0h1v1h-1zm1 0h7v1h-7zm8 0h1v1h-1zm6 0h1v1h-1zm1 0h2v6h-2zm3 0h2v1h-2zm2 0h1v1h-1zm1 0h4v1h-4zm4 0h1v1h-1zm1 0h1v1h-1zm1 0h1v1h-1zm1 0h1v1h-1zm1 0h1v1h-1zm1 0h1v1h-1zm1 0h19v1h-19zm19 0h1v1h-1zm1 0h1v1h-1zm1 0h1v1h-1zM26 40h1v1h-1zm4 0h1v1h-1zm4 0h1v1h-1zm1 0h2v1h-2zm2 0h1v1h-1zm1 0h1v1h-1zm11 0h1v1h-1zm7 0h1v1h-1zm2 0h1v1h-1zm1 0h11v1H59zm12 0h1v1h-1zm4 0h1v1h-1zm3 0h1v1h-1zm3 0h1v1h-1zm1 0h3v30h-3zm3 0h1v1h-1zm1 0h1v1h-1zm1 0h1v1h-1zm1 0h2v1h-2zm3 0h1v1h-1zm1 0h1v1h-1zm4 0h1v1h-1z"/><path d="M97 40h8v2h-8zm8 0h1v2h-1zm1 0h1v1h-1zm1 0h1v1h-1zm6 0h1v1h-1zm1 0h2v1h-2zm2 0h1v1h-1zm1 0h1v2h-1zm1 0h14v1h-14zm14 0h1v1h-1zm1 0h1v1h-1zm1 0h1v1h-1zM25 41h1v1h-1zm1 0h3v2h-3zm3 0h1v1h-1zm1 0h1v1h-1zm3 0h1v1h-1zm1 0h1v1h-1zm1 0h1v8h-1zm1 0h1v1h-1zm1 0h1v1h-1zm6 0h1v1h-1zm1 0h1v1h-1zm1 0h1v1h-1zm1 0h1v1h-1zm1 0h1v1h-1zm1 0h1v1h-1zm1 0h6v2h-6zm7 0h1v5h-1zm3 0h1v1h-1zm1 0h5v2h-5zm5 0h5v1h-5zm5 0h1v1h-1zm1 0h1v1h-1zm4 0h1v1h-1zm1 0h1v1h-1zm1 0h1v1h-1zm1 0h1v1h-1zm3 0h1v1h-1zm4 0h1v1h-1zm2 0h1v1h-1zm1 0h1v1h-1zm1 0h2v1h-2zm2 0h1v5h-1zm1 0h1v1h-1zm1 0h1v1h-1zm1 0h1v1h-1zm1 0h1v1h-1z"/><path d="M96 41h9v1h-9zm10 0h1v1h-1zm12 0h1v1h-1zm1 0h1v1h-1zm1 0h10v1h-10zm10 0h1v1h-1zm1 0h1v1h-1zm1 0h1v1h-1zM25 42h1v1h-1zm4 0h1v1h-1zm4 0h1v1h-1zm1 0h1v8h-1zm2 0h1v1h-1zm1 0h1v1h-1zm2 0h1v1h-1zm1 0h1v1h-1zm1 0h1v1h-1zm1 0h13v1H42zm17 0h1v1h-1zm6 0h1v1h-1zm4 0h1v8h-1zm1 0h1v1h-1zm5 0h1v1h-1zm1 0h1v1h-1zm1 0h1v1h-1zm1 0h1v1h-1zm3 0h1v1h-1zm4 0h1v1h-1zm3 0h1v1h-1zm1 0h1v1h-1zm3 0h13v1H92zm13 0h1v1h-1zm1 0h1v1h-1zm9 0h1v1h-1zm1 0h1v1h-1zm1 0h1v1h-1zm1 0h7v3h-7zm7 0h1v1h-1zm1 0h1v1h-1zm1 0h1v1h-1zm1 0h1v1h-1zm1 0h1v1h-1zm1 0h1v1h-1zM25 43h1v1h-1zm1 0h2v1h-2zm2 0h1v9h-1zm1 0h1v1h-1zm3 0h1v1h-1z"/><path d="M33 43h2v7h-2zm3 0h1v1h-1zm1 0h1v1h-1zm1 0h1v1h-1zm1 0h16v1H39zm20 0h1v1h-1zm1 0h4v3h-4zm4 0h1v1h-1zm1 0h1v1h-1zm2 0h2v1h-2zm3 0h1v1h-1zm11 0h1v1h-1zm4 0h1v1h-1zm4 0h1v1h-1zm3 0h3v1h-3zm3 0h1v1h-1zm1 0h1v1h-1zm1 0h1v1h-1zm4 0h2v1h-2zm2 0h1v1h-1zm1 0h1v1h-1zm1 0h1v1h-1zm8 0h1v1h-1zm1 0h1v1h-1zm1 0h9v1h-9zm10 0h1v1h-1zm214 0h1v1h-1zm1 0h1v1h-1zm1 0h1v1h-1zm1 0h1v1h-1zm1 0h1v1h-1zm1 0h1v1h-1zm1 0h4v1h-4zm4 0h1v1h-1zm1 0h2v1h-2zm2 0h1v1h-1zm1 0h1v1h-1zm1 0h1v1h-1zm30 0h1v1h-1zm1 0h1v1h-1zm1 0h1v1h-1zm1 0h1v1h-1zm1 0h1v1h-1zm1 0h3v1h-3zm3 0h1v1h-1zm1 0h1v1h-1zm1 0h1v1h-1zm1 0h1v1h-1zm1 0h1v1h-1zm1 0h1v1h-1zM26 44h1v1h-1zm1 0h1v9h-1zm2 0h1v1h-1zm3 0h1v1h-1zm4 0h15v1H36zm15 0h4v1h-4zm8 0h1v1h-1zm5 0h1v1h-1zm3 0h1v1h-1zm3 0h1v1h-1zm11 0h1v1h-1zm8 0h1v1h-1zm3 0h1v1h-1zm1 0h1v1h-1zm1 0h1v1h-1zm1 0h1v1h-1zm2 0h1v1h-1zm3 0h1v1h-1zm1 0h1v1h-1zm1 0h1v1h-1zm11 0h1v1h-1zm1 0h10v1h-10zm11 0h1v1h-1zm1 0h1v1h-1zm46 0h1v1h-1zm1 0h11v1h-11zm11 0h1v1h-1zm1 0h1v1h-1zm23 0h1v1h-1zm1 0h11v1h-11zm11 0h1v2h-1zm12 0h1v1h-1zm1 0h14v1h-14zm14 0h1v1h-1zm1 0h1v1h-1zm21 0h1v1h-1zm1 0h10v1h-10zm10 0h1v1h-1zm1 0h1v1h-1zm12 0h1v1h-1zm1 0h11v1h-11zm11 0h1v1h-1zm1 0h1v1h-1zm28 0h1v1h-1zm1 0h1v1h-1zm1 0h1v1h-1zm1 0h1v1h-1zm1 0h16v9h-16zm16 0h1v10h-1zm1 0h1v1h-1zm1 0h1v1h-1zm1 0h1v1h-1zm1 0h1v1h-1zm22 0h1v1h-1zm1 0h1v1h-1zm1 0h1v1h-1zm1 0h1v1h-1zm1 0h14v9h-14zm14 0h1v11h-1zm1 0h1v1h-1zm1 0h1v1h-1zm1 0h1v1h-1zm30 0h1v1h-1zm1 0h21v1h-21zm21 0h1v1h-1zm1 0h1v1h-1zm1 0h1v1h-1zm1 0h1v1h-1zm1 0h1v1h-1zm1 0h1v1h-1zm26 0h1v1h-1zm1 0h14v1h-14zm14 0h1v1h-1zm1 0h1v1h-1zm21 0h1v1h-1zm1 0h10v1h-10zm10 0h1v1h-1zm1 0h1v1h-1zM26 45h1v3h-1zm3 0h1v1h-1zm2 0h1v1h-1z"/><path d="M32 45h18v1H32zm18 0h1v3h-1zm1 0h1v1h-1zm1 0h1v1h-1zm1 0h2v1h-2zm6 0h1v1h-1zm5 0h1v1h-1zm3 0h1v1h-1zm3 0h1v1h-1zm18 0h1v1h-1zm1 0h1v1h-1zm3 0h1v1h-1zm1 0h1v1h-1zm1 0h1v1h-1zm2 0h1v1h-1zm1 0h2v1h-2zm2 0h1v1h-1zm1 0h1v1h-1zm7 0h1v1h-1zm1 0h1v1h-1zm1 0h1v1h-1zm1 0h1v1h-1zm1 0h1v1h-1zm1 0h1v1h-1zm2 0h2v1h-2zm2 0h1v1h-1zm1 0h1v1h-1zm1 0h7v1h-7zm7 0h1v10h-1zm1 0h1v1h-1zm46 0h1v1h-1zm1 0h11v5h-11zm11 0h1v1h-1zm24 0h11v10h-11zm11 0h1v5h-1zm13 0h1v1h-1zm1 0h14v12h-14zm14 0h1v29h-1zm1 0h1v1h-1zm21 0h11v7h-11zm11 0h1v2h-1zm1 0h1v1h-1zm12 0h1v1h-1zm1 0h11v6h-11zm11 0h1v1h-1zm1 0h1v1h-1zm25 0h1v1h-1zm1 0h1v1h-1zm1 0h1v1h-1zm1 0h24v8h-24zm24 0h1v8h-1zm1 0h1v1h-1zm1 0h1v1h-1zm17 0h1v1h-1zm1 0h1v1h-1zm1 0h1v1h-1zm1 0h21v8h-21zm21 0h1v13h-1zm1 0h1v1h-1zm1 0h1v1h-1zm1 0h1v1h-1zm27 0h1v1h-1zm1 0h26v9h-26zm26 0h1v11h-1zm1 0h1v1h-1zm1 0h1v1h-1zm1 0h1v1h-1zm1 0h1v1h-1zm22 0h1v1h-1zm1 0h15v12h-15zm15 0h1v31h-1zm1 0h1v1h-1zm20 0h1v1h-1zm1 0h10v9h-10zm10 0h1v4h-1zm1 0h1v1h-1zM29 46h1v1h-1zm2 0h1v1h-1zm1 0h6v1h-6zm6 0h1v1h-1zm1 0h1v1h-1zm1 0h1v1h-1zm1 0h1v1h-1zm1 0h1v1h-1zm1 0h1v1h-1zm1 0h1v1h-1zm1 0h5v5h-5zm6 0h1v1h-1zm2 0h2v1h-2zm3 0h1v1h-1zm4 0h3v1h-3zm3 0h1v9h-1zm1 0h1v1h-1zm3 0h1v1h-1zm3 0h1v5h-1zm1 0h1v1h-1zm10 0h1v1h-1zm4 0h1v1h-1zm1 0h1v1h-1zm1 0h1v1h-1zm1 0h3v5h-3zm3 0h1v1h-1zm1 0h1v1h-1zm3 0h1v1h-1zm1 0h1v1h-1zm1 0h1v5h-1zm1 0h1v1h-1zm1 0h1v1h-1zm1 0h1v1h-1zm5 0h1v1h-1zm1 0h1v1h-1zm1 0h5v1h-5zm5 0h1v7h-1zm1 0h1v1h-1zm5 0h1v1h-1zm1 0h1v1h-1zm1 0h1v1h-1zm1 0h1v1h-1z"/><path d="M122 46h4v4h-4zm4 0h1v11h-1zm1 0h1v1h-1zm44 0h1v1h-1zm1 0h11v9h-11zm12 0h1v1h-1zm23 0h1v1h-1zm13 0h1v1h-1zm11 0h1v1h-1zm1 0h16v11h-16zm16 0h1v31h-1zm1 0h1v1h-1zm19 0h1v1h-1zm13 0h1v1h-1zm12 0h11v10h-11zm12 0h1v1h-1zm24 0h1v1h-1zm1 0h1v1h-1zm1 0h28v7h-28zm28 0h1v2h-1zm1 0h1v1h-1zm15 0h1v1h-1zm1 0h1v1h-1zm1 0h1v1h-1zm1 0h25v7h-25zm25 0h1v18h-1zm1 0h1v1h-1zm1 0h1v1h-1zm26 0h1v1h-1zm28 0h2v13h-2zm2 0h1v30h-1zm1 0h1v1h-1zm1 0h1v1h-1zm1 0h1v1h-1zm20 0h1v1h-1zm17 0h1v1h-1zm20 0h1v1h-1zm12 0h1v1h-1zM29 47h1v1h-1zm1 0h1v1h-1zm1 0h6v1h-6zm6 0h1v1h-1zm1 0h1v1h-1zm5 0h1v1h-1zm1 0h1v1h-1zm7 0h1v1h-1zm2 0h1v1h-1zm1 0h1v7h-1zm2 0h1v1h-1zm4 0h1v1h-1zm2 0h1v6h-1zm2 0h1v2h-1zm3 0h1v1h-1zm1 0h2v1h-2zm3 0h1v1h-1zm10 0h1v1h-1zm4 0h5v4h-5zm6 0h1v1h-1zm3 0h1v1h-1zm1 0h1v1h-1zm1 0h1v4h-1zm2 0h1v1h-1zm1 0h1v1h-1zm6 0h1v1h-1zm1 0h1v1h-1zm1 0h1v1h-1zm1 0h1v1h-1zm1 0h1v1h-1zm1 0h1v1h-1zm1 0h2v6h-2zm2 0h1v6h-1zm1 0h1v1h-1zm4 0h1v1h-1zm1 0h1v1h-1zm1 0h1v1h-1zm1 0h1v1h-1zm6 0h1v11h-1zm1 0h1v1h-1zm43 0h1v1h-1zm13 0h1v1h-1zm23 0h1v1h-1zm13 0h1v1h-1zm11 0h1v1h-1zm18 0h1v1h-1zm19 0h1v1h-1zm12 0h1v1h-1zm12 0h1v1h-1zm13 0h1v1h-1zm22 0h1v1h-1zm1 0h1v1h-1z"/><path d="M329 47h30v6h-30zm31 0h1v1h-1zm13 0h1v1h-1zm1 0h1v1h-1zm1 0h1v1h-1zm1 0h29v6h-29zm29 0h1v46h-1zm1 0h1v1h-1zm1 0h1v1h-1zm24 0h32v7h-32zm32 0h1v28h-1zm1 0h1v1h-1zm1 0h1v1h-1zm19 0h16v10h-16zm17 0h1v1h-1zm20 0h11v7h-11zm12 0h1v1h-1zM26 48h1v1h-1zm3 0h1v1h-1zm1 0h1v1h-1zm1 0h5v1h-5zm5 0h1v1h-1zm1 0h1v1h-1zm5 0h1v1h-1zm1 0h7v3h-7zm7 0h1v1h-1zm3 0h1v2h-1zm3 0h1v12h-1zm4 0h1v1h-1zm8 0h1v1h-1zm3 0h1v1h-1zm10 0h1v1h-1zm10 0h1v1h-1zm2 0h1v1h-1zm1 0h1v1h-1zm1 0h2v3h-2zm3 0h1v1h-1zm11 0h1v1h-1zm1 0h1v1h-1zm4 0h1v5h-1zm1 0h1v1h-1zm2 0h1v1h-1zm1 0h9v1h-9zm10 0h1v1h-1zm1 0h1v1h-1zm42 0h1v1h-1zm13 0h1v1h-1zm23 0h1v1h-1zm13 0h1v1h-1zm11 0h1v1h-1zm18 0h1v32h-1zm1 0h1v1h-1zm18 0h1v1h-1zm12 0h1v1h-1zm12 0h1v1h-1zm13 0h1v1h-1zm20 0h1v1h-1zm1 0h1v1h-1z"/><path d="M327 48h32v5h-32zm32 0h1v1h-1zm13 0h1v1h-1zm1 0h1v1h-1zm1 0h33v5h-33zm33 0h1v44h-1zm1 0h1v1h-1zm22 0h1v1h-1zm34 0h1v26h-1zm1 0h1v1h-1zm1 0h1v1h-1zm17 0h1v1h-1zm18 0h1v31h-1zm1 0h1v1h-1zm18 0h1v1h-1zm13 0h1v1h-1zM26 49h1v1h-1zm3 0h6v1h-6zm6 0h1v1h-1zm1 0h1v1h-1zm4 0h1v1h-1zm1 0h1v1h-1zm1 0h7v2h-7zm8 0h1v1h-1zm7 0h1v1h-1zm3 0h1v1h-1zm4 0h1v1h-1zm4 0h1v1h-1zm3 0h1v1h-1zm10 0h1v1h-1zm10 0h1v1h-1zm1 0h1v1h-1zm1 0h1v1h-1zm1 0h3v2h-3zm4 0h1v1h-1zm9 0h1v1h-1zm1 0h1v1h-1zm1 0h5v4h-5zm6 0h1v1h-1zm2 0h1v1h-1zm1 0h10v1h-10zm10 0h1v15h-1zm1 0h1v1h-1zm1 0h1v1h-1zm41 0h1v1h-1zm13 0h1v1h-1zm23 0h1v1h-1zm13 0h1v1h-1zm11 0h1v1h-1zm19 0h1v1h-1zm18 0h1v1h-1zm12 0h1v1h-1zm12 0h1v1h-1zm13 0h1v1h-1zm18 0h1v1h-1zm1 0h1v1h-1z"/><path d="M325 49h33v4h-33zm34 0h1v1h-1zm11 0h1v1h-1zm1 0h1v1h-1zm1 0h36v4h-36zm36 0h1v41h-1zm1 0h1v1h-1zm21 0h1v1h-1zm35 0h1v24h-1zm1 0h1v23h-1zm1 0h1v1h-1zm16 0h1v1h-1zm19 0h1v1h-1zm18 0h1v1h-1zm12 0h1v1h-1zM25 50h1v1h-1zm1 0h8v1h-8zm8 0h1v1h-1zm1 0h1v1h-1zm4 0h1v1h-1zm1 0h1v1h-1zm1 0h8v1h-8zm9 0h1v1h-1zm3 0h1v1h-1zm4 0h1v1h-1zm3 0h1v1h-1zm1 0h2v1h-2zm3 0h1v1h-1zm4 0h1v1h-1zm1 0h2v1h-2zm2 0h1v1h-1zm10 0h1v1h-1zm10 0h7v1h-7zm7 0h1v1h-1zm1 0h1v1h-1zm1 0h1v1h-1zm6 0h1v1h-1zm1 0h8v1h-8zm8 0h1v3h-1zm1 0h1v1h-1zm2 0h1v1h-1zm1 0h1v1h-1zm1 0h1v1h-1zm1 0h8v1h-8zm8 0h1v15h-1zm1 0h1v1h-1zm41 0h1v1h-1zm12 0h1v1h-1zm1 0h1v1h-1zm23 0h12v5h-12zm12 0h1v1h-1zm12 0h1v1h-1zm19 0h1v1h-1zm18 0h1v1h-1zm12 0h1v1h-1zm12 0h1v1h-1zm13 0h1v1h-1zm17 0h1v1h-1zm1 0h1v1h-1z"/><path d="M324 50h34v3h-34zm35 0h1v1h-1zm10 0h1v1h-1zm1 0h1v1h-1zm1 0h38v3h-38zm38 0h1v39h-1zm1 0h1v1h-1zm20 0h1v1h-1zm37 0h1v21h-1zm1 0h1v1h-1zm15 0h1v1h-1zm19 0h1v31h-1zm1 0h1v1h-1zm17 0h1v1h-1zm12 0h1v1h-1zM25 51h1v1h-1zm1 0h7v1h-7zm7 0h1v1h-1zm1 0h1v1h-1zm3 0h1v1h-1zm1 0h1v1h-1zm1 0h10v1H39zm10 0h1v9h-1zm1 0h1v1h-1zm3 0h1v1h-1zm4 0h1v1h-1zm4 0h1v1h-1zm3 0h1v1h-1zm5 0h1v1h-1zm1 0h1v1h-1zm1 0h1v1h-1zm1 0h1v1h-1zm9 0h1v1h-1zm4 0h14v1H85zm14 0h1v1h-1zm1 0h1v1h-1zm6 0h1v1h-1zm1 0h9v1h-9zm9 0h1v1h-1zm1 0h1v1h-1zm4 0h1v1h-1zm1 0h1v1h-1zm1 0h7v1h-7zm7 0h1v14h-1zm1 0h1v1h-1zm40 0h11v10h-11zm12 0h1v1h-1zm23 0h1v1h-1zm13 0h1v1h-1zm12 0h19v6h-19zm19 0h1v31h-1zm1 0h1v1h-1zm16 0h1v1h-1zm1 0h11v7h-11zm12 0h1v1h-1zm12 0h1v1h-1zm12 0h1v1h-1zm16 0h1v1h-1zm1 0h1v1h-1z"/><path d="M322 51h36v2h-36zm37 0h1v1h-1zm9 0h1v1h-1zm1 0h1v1h-1zm1 0h40v2h-40zm40 0h1v37h-1zm1 0h1v1h-1zm19 0h1v1h-1zm38 0h1v1h-1zm1 0h1v1h-1zm14 0h1v1h-1zm20 0h1v1h-1zm17 0h1v1h-1zm12 0h1v1h-1zM24 52h1v1h-1zm1 0h3v1h-3zm3 0h4v1h-4zm4 0h1v11h-1zm1 0h1v2h-1zm1 0h1v1h-1zm2 0h1v1h-1zm1 0h1v1h-1zm1 0h8v2h-8zm8 0h3v1h-3zm4 0h1v1h-1zm3 0h1v1h-1zm4 0h1v1h-1zm4 0h1v1h-1zm3 0h1v5h-1zm1 0h1v1h-1zm5 0h1v1h-1zm1 0h1v1h-1zm10 0h1v1h-1zm4 0h1v7h-1zm1 0h1v1h-1zm1 0h1v1h-1zm1 0h1v1h-1zm1 0h3v1h-3zm3 0h1v1h-1zm1 0h1v1h-1zm1 0h3v1h-3zm3 0h1v1h-1zm1 0h1v1h-1zm1 0h1v1h-1zm8 0h1v1h-1zm1 0h8v1h-8zm8 0h1v1h-1zm1 0h1v1h-1zm6 0h1v1h-1zm1 0h1v1h-1zm7 0h1v1h-1zm39 0h1v1h-1zm13 0h1v1h-1zm23 0h1v1h-1zm13 0h1v1h-1zm11 0h1v1h-1zm21 0h1v1h-1zm16 0h1v1h-1zm12 0h1v1h-1zm1 0h1v1h-1zm11 0h1v1h-1zm1 0h11v9h-11zm12 0h1v1h-1zm15 0h1v1h-1zm1 0h1v1h-1z"/><path d="M321 52h37v1h-37zm38 0h1v1h-1zm8 0h1v1h-1zm1 0h1v1h-1zm1 0h42v1h-42zm42 0h1v35h-1zm1 0h1v1h-1zm18 0h1v1h-1zm38 0h1v18h-1zm1 0h1v1h-1zm14 0h1v1h-1zm20 0h1v1h-1zm17 0h1v1h-1zm12 0h1v1h-1zM24 53h1v1h-1zm1 0h2v1h-2zm2 0h1v1h-1zm1 0h1v1h-1zm1 0h1v1h-1zm1 0h2v29h-2zm4 0h1v1h-1zm1 0h1v1h-1zm1 0h9v1h-9zm10 0h1v1h-1zm1 0h1v1h-1zm1 0h2v3h-2zm2 0h1v12h-1zm1 0h1v1h-1zm2 0h1v1h-1zm4 0h1v1h-1zm4 0h1v1h-1zm1 0h2v1h-2zm3 0h1v1h-1zm21 0h1v1h-1zm3 0h1v1h-1zm1 0h1v1h-1zm1 0h1v1h-1zm1 0h1v1h-1zm1 0h1v1h-1zm15 0h1v1h-1zm1 0h6v1h-6zm6 0h1v1h-1zm1 0h1v1h-1zm1 0h1v1h-1zm7 0h1v1h-1zm7 0h1v13h-1zm39 0h1v1h-1zm13 0h1v1h-1zm23 0h1v1h-1zm13 0h1v1h-1zm11 0h1v1h-1zm21 0h1v1h-1zm1 0h1v1h-1zm15 0h1v1h-1zm12 0h1v1h-1zm12 0h1v1h-1zm13 0h1v1h-1zm14 0h1v1h-1zm1 0h1v1h-1zm1 0h38v1h-38zm38 0h1v1h-1zm8 0h1v1h-1z"/><path d="M367 53h45v1h-45zm45 0h1v32h-1zm1 0h1v1h-1zm16 0h1v1h-1zm1 0h39v1h-39zm39 0h1v15h-1zm1 0h1v1h-1zm12 0h1v1h-1zm1 0h20v4h-20zm20 0h1v31h-1zm1 0h1v1h-1zm15 0h1v1h-1zm1 0h11v6h-11zm12 0h1v1h-1zM23 54h1v1h-1zm1 0h2v2h-2zm2 0h1v1h-1zm1 0h1v1h-1zm2 0h1v1h-1zm4 0h1v1h-1zm1 0h11v1H34zm11 0h1v15h-1zm1 0h1v1h-1zm1 0h1v1h-1zm4 0h1v1h-1zm2 0h1v1h-1zm1 0h3v1h-3zm3 0h1v8h-1zm1 0h1v1h-1zm4 0h1v1h-1zm3 0h1v6h-1zm1 0h1v1h-1zm9 0h1v1h-1zm1 0h1v1h-1zm1 0h1v2h-1zm1 0h1v1h-1zm8 0h1v1h-1zm5 0h1v1h-1zm1 0h1v1h-1zm1 0h1v1h-1zm16 0h1v1h-1zm1 0h1v1h-1zm1 0h1v1h-1zm1 0h1v1h-1zm1 0h1v1h-1zm1 0h1v1h-1zm1 0h1v1h-1zm9 0h1v1h-1zm8 0h1v1h-1zm38 0h1v1h-1zm13 0h1v1h-1zm23 0h1v1h-1zm13 0h1v1h-1zm11 0h1v1h-1zm21 0h1v31h-1zm1 0h1v1h-1zm15 0h1v1h-1zm12 0h1v1h-1zm12 0h1v1h-1zm13 0h1v1h-1zm13 0h1v1h-1zm1 0h1v1h-1zm1 0h20v1h-20zm20 0h1v1h-1zm1 0h1v1h-1zm1 0h1v1h-1zm1 0h1v1h-1zm1 0h1v1h-1zm1 0h4v1h-4zm4 0h1v1h-1zm1 0h1v1h-1zm1 0h1v1h-1zm1 0h1v1h-1zm1 0h1v1h-1zm1 0h4v1h-4zm4 0h1v1h-1zm1 0h1v1h-1zm7 0h1v1h-1zm1 0h1v1h-1zm1 0h16v1h-16zm16 0h1v1h-1zm1 0h1v1h-1zm1 0h1v1h-1zm1 0h1v1h-1zm1 0h1v1h-1zm5 0h1v1h-1zm1 0h1v1h-1zm1 0h1v1h-1zm1 0h1v1h-1zm1 0h16v1h-16zm17 0h1v1h-1zm16 0h1v1h-1zm1 0h39v1h-39zm40 0h1v1h-1zm12 0h1v1h-1zm22 0h1v1h-1zm15 0h1v1h-1zm12 0h1v1h-1zm1 0h1v1h-1zM23 55h1v1h-1zm3 0h1v1h-1zm3 0h1v1h-1zm4 0h4v1h-4zm4 0h1v1h-1zm1 0h1v1h-1zm1 0h1v1h-1zm1 0h1v1h-1zm1 0h1v1h-1zm1 0h3v14h-3zm4 0h1v1h-1zm1 0h1v1h-1zm4 0h1v1h-1zm3 0h1v1h-1zm4 0h1v1h-1zm4 0h1v1h-1zm1 0h2v1h-2zm3 0h1v1h-1zm1 0h1v1h-1zm8 0h1v1h-1zm1 0h1v1h-1zm2 0h1v2h-1zm1 0h1v1h-1zm1 0h1v1h-1zm6 0h1v1h-1zm38 0h1v1h-1zm1 0h6v1h-6zm7 0h1v1h-1zm38 0h1v1h-1zm12 0h1v1h-1zm1 0h1v1h-1zm23 0h1v1h-1zm1 0h11v5h-11zm11 0h1v1h-1zm12 0h1v1h-1zm22 0h1v1h-1zm15 0h1v1h-1zm12 0h1v1h-1zm12 0h1v1h-1zm13 0h1v1h-1zm12 0h1v1h-1zm1 0h1v1h-1zm1 0h17v1h-17zm17 0h1v1h-1zm1 0h1v1h-1zm1 0h1v1h-1zm1 0h1v1h-1zm16 0h1v1h-1zm1 0h1v1h-1zm1 0h1v1h-1zm1 0h1v1h-1zm1 0h1v1h-1zm6 0h1v1h-1zm1 0h1v1h-1zm1 0h15v1h-15zm15 0h1v1h-1zm1 0h1v1h-1zm1 0h1v1h-1zm13 0h1v1h-1zm1 0h1v1h-1z"/><path d="M398 55h15v1h-15zm15 0h1v28h-1zm1 0h1v1h-1zm15 0h1v1h-1zm1 0h11v5h-11zm11 0h1v1h-1zm1 0h1v1h-1zm1 0h9v1h-9zm9 0h1v1h-1zm1 0h1v1h-1zm1 0h1v1h-1zm1 0h1v1h-1zm1 0h13v1h-13zm14 0h1v1h-1zm12 0h1v1h-1zm22 0h1v32h-1zm1 0h1v1h-1zm14 0h1v1h-1zm12 0h1v1h-1zM22 56h1v1h-1zm1 0h1v1h-1zm1 0h1v22h-1zm1 0h1v1h-1zm1 0h1v1h-1zm3 0h1v1h-1zm4 0h2v1h-2zm2 0h1v1h-1zm1 0h1v1h-1zm1 0h1v1h-1zm4 0h1v1h-1zm5 0h1v1h-1zm2 0h2v1h-2zm3 0h1v1h-1zm3 0h1v1h-1zm1 0h3v1h-3zm3 0h1v7h-1zm1 0h1v1h-1zm4 0h1v1h-1zm3 0h1v5h-1zm1 0h1v1h-1zm9 0h1v1h-1zm1 0h3v1h-3zm3 0h5v3h-5zm6 0h1v1h-1zm38 0h1v1h-1zm1 0h1v1h-1zm7 0h1v1h-1zm38 0h11v10h-11zm12 0h1v1h-1zm23 0h1v1h-1zm1 0h11v10h-11zm12 0h1v1h-1zm12 0h22v1h-22zm22 0h1v31h-1zm1 0h1v1h-1zm14 0h11v7h-11zm12 0h1v1h-1zm12 0h1v1h-1zm12 0h1v1h-1zm13 0h1v1h-1zm1 0h16v1h-16zm16 0h1v1h-1zm1 0h1v1h-1zm1 0h1v1h-1zm22 0h1v1h-1zm1 0h1v1h-1zm6 0h1v1h-1zm1 0h15v1h-15zm15 0h1v1h-1zm1 0h1v1h-1zm16 0h1v1h-1zm1 0h1v1h-1zm1 0h14v1h-14zm15 0h1v1h-1zm15 0h1v1h-1zm12 0h1v1h-1zm15 0h1v1h-1zm1 0h1v1h-1zm1 0h12v1h-12zm12 0h1v10h-1zm1 0h1v1h-1zm11 0h1v1h-1zm23 0h1v1h-1zm14 0h1v1h-1zm12 0h1v1h-1zM22 57h1v1h-1zm1 0h1v4h-1zm2 0h1v1h-1zm4 0h5v2h-5zm5 0h1v1h-1zm1 0h1v1h-1zm1 0h1v1h-1zm4 0h1v1h-1zm1 0h4v8h-4zm5 0h1v1h-1zm2 0h1v1h-1zm3 0h1v10h-1zm3 0h1v1h-1zm1 0h1v1h-1zm4 0h1v1h-1zm4 0h1v1h-1z"/><path d="M64 57h3v1h-3zm3 0h1v4h-1zm1 0h1v1h-1zm9 0h1v1h-1zm1 0h8v1h-8zm8 0h1v1h-1zm1 0h1v1h-1zm38 0h1v1h-1zm1 0h6v1h-6zm6 0h1v15h-1zm37 0h1v1h-1zm13 0h1v1h-1zm23 0h1v1h-1zm13 0h1v1h-1zm11 0h1v1h-1zm1 0h22v1h-22zm23 0h1v1h-1zm13 0h1v1h-1zm13 0h1v1h-1zm11 0h1v1h-1zm1 0h11v9h-11zm12 0h1v1h-1zm12 0h1v1h-1zm1 0h15v1h-15zm15 0h1v1h-1zm1 0h1v1h-1zm1 0h1v1h-1zm30 0h1v1h-1zm1 0h14v1h-14zm14 0h1v1h-1zm1 0h1v1h-1zm1 0h1v1h-1zm19 0h1v1h-1zm1 0h14v1h-14zm14 0h1v24h-1zm1 0h1v1h-1zm14 0h1v1h-1zm12 0h1v1h-1zm16 0h1v1h-1zm1 0h1v1h-1zm4 0h8v11h-8zm9 0h1v1h-1zm11 0h1v1h-1zm1 0h21v1h-21zm22 0h1v1h-1zm14 0h1v1h-1zm12 0h1v1h-1zM22 58h1v1h-1zm3 0h1v1h-1zm3 0h1v1h-1zm6 0h1v1h-1zm6 0h1v1h-1zm6 0h1v1h-1zm2 0h1v1h-1zm4 0h1v1h-1zm3 0h1v1h-1zm4 0h1v7h-1zm1 0h1v1h-1zm4 0h1v1h-1zm4 0h1v1h-1zm10 0h1v1h-1zm1 0h7v1h-7zm7 0h1v1h-1zm1 0h1v1h-1zm39 0h1v1h-1zm1 0h5v1h-5zm6 0h1v1h-1zm36 0h1v1h-1zm13 0h1v1h-1zm23 0h1v1h-1zm13 0h1v1h-1zm11 0h1v1h-1zm1 0h10v10h-10zm10 0h12v1h-12zm13 0h1v1h-1zm1 0h1v1h-1zm12 0h1v1h-1zm12 0h1v1h-1zm12 0h1v1h-1zm13 0h1v1h-1zm11 0h1v1h-1zm1 0h15v1h-15zm15 0h1v1h-1zm1 0h1v1h-1zm1 0h1v1h-1zm30 0h1v1h-1zm1 0h14v1h-14zm14 0h1v1h-1zm1 0h1v1h-1zm1 0h1v1h-1zm21 0h1v1h-1zm1 0h13v1h-13zm14 0h1v1h-1zm13 0h1v1h-1zm1 0h11v8h-11zm12 0h1v1h-1zm17 0h1v1h-1zm13 0h1v4h-1zm11 0h10v11h-10zm10 0h13v1h-13zm13 0h1v31h-1zm1 0h1v1h-1zm13 0h11v7h-11zm12 0h1v1h-1zM22 59h1v1h-1zm3 0h1v1h-1zm3 0h1v1h-1zm1 0h4v4h-4zm4 0h1v1h-1zm1 0h1v1h-1zm5 0h1v1h-1zm1 0h5v4h-5zm6 0h1v1h-1zm2 0h1v1h-1zm4 0h1v1h-1zm3 0h1v1h-1zm5 0h1v1h-1zm4 0h1v1h-1zm4 0h1v1h-1zm11 0h1v1h-1zm1 0h5v1h-5zm5 0h1v1h-1zm1 0h1v1h-1zm4 0h1v1h-1zm1 0h1v1h-1zm1 0h1v1h-1zm35 0h1v1h-1zm6 0h1v1h-1zm36 0h1v1h-1zm13 0h1v1h-1zm23 0h1v1h-1zm13 0h1v1h-1zm11 0h1v1h-1zm11 0h13v1h-13zm13 0h1v31h-1zm1 0h1v1h-1zm12 0h1v1h-1zm12 0h1v1h-1zm12 0h1v1h-1zm13 0h1v1h-1zm11 0h1v1h-1zm1 0h14v1h-14zm14 0h1v1h-1zm1 0h1v1h-1zm32 0h1v1h-1zm1 0h13v2h-13zm13 0h1v1h-1zm1 0h1v1h-1zm1 0h1v1h-1zm22 0h1v1h-1zm1 0h1v1h-1z"/><path d="M402 59h13v1h-13zm13 0h1v19h-1zm1 0h1v1h-1zm12 0h1v1h-1zm13 0h1v1h-1zm18 0h11v1h-11zm22 0h1v1h-1zm11 0h1v4h-1zm1 0h1v1h-1zm1 0h1v1h-1zm1 0h10v2h-10zm11 0h1v1h-1zm12 0h1v1h-1zm12 0h1v1h-1zm1 0h1v1h-1zM22 60h1v1h-1zm3 0h1v1h-1zm3 0h1v1h-1zm5 0h1v1h-1zm4 0h1v1h-1zm1 0h1v1h-1zm1 0h1v1h-1zm7 0h1v1h-1zm2 0h1v1h-1zm1 0h2v1h-2zm3 0h1v1h-1zm3 0h1v1h-1zm1 0h3v1h-3zm4 0h1v1h-1zm1 0h1v1h-1zm3 0h1v1h-1zm1 0h3v1h-3zm3 0h1v1h-1zm1 0h1v2h-1zm4 0h1v1h-1zm1 0h1v1h-1zm5 0h1v1h-1zm1 0h1v1h-1zm1 0h3v8h-3zm4 0h1v1h-1zm1 0h1v1h-1zm3 0h1v1h-1zm1 0h1v9h-1zm1 0h1v22h-1zm1 0h1v1h-1zm35 0h1v1h-1zm6 0h1v1h-1zm1 0h1v1h-1zm35 0h1v1h-1zm13 0h1v1h-1zm23 0h1v1h-1zm12 0h1v1h-1zm1 0h1v1h-1zm11 0h1v1h-1zm11 0h1v1h-1zm1 0h1v1h-1zm1 0h1v1h-1zm1 0h10v2h-10zm11 0h1v1h-1zm12 0h1v1h-1zm12 0h1v1h-1zm12 0h1v1h-1zm13 0h1v1h-1zm10 0h1v1h-1zm1 0h14v1h-14zm14 0h1v1h-1zm1 0h1v1h-1zm32 0h1v1h-1zm1 0h13v2h-13zm14 0h1v1h-1zm1 0h1v1h-1zm24 0h1v1h-1zm1 0h13v1h-13zm14 0h1v1h-1zm12 0h1v1h-1zm12 0h1v1h-1zm1 0h1v1h-1zm18 0h1v2h-1zm1 0h10v8h-10zm21 0h1v1h-1zm12 0h1v1h-1zm1 0h1v1h-1zm12 0h1v32h-1zm1 0h1v1h-1zm11 0h1v1h-1zm12 0h1v1h-1zM22 61h1v1h-1zm1 0h1v1h-1zm2 0h1v1h-1zm3 0h1v1h-1zm5 0h1v1h-1zm3 0h1v1h-1zm1 0h1v1h-1zm1 0h7v2h-7zm8 0h1v1h-1zm3 0h1v1h-1zm3 0h1v1h-1zm4 0h1v1h-1zm4 0h1v6h-1zm1 0h1v1h-1zm3 0h1v1h-1zm1 0h1v1h-1zm1 0h2v1h-2zm2 0h1v1h-1zm5 0h1v1h-1zm1 0h1v3h-1zm1 0h1v1h-1zm5 0h1v2h-1zm5 0h1v2h-1zm4 0h1v1h-1zm3 0h1v1h-1zm33 0h1v1h-1zm1 0h1v1h-1zm1 0h1v1h-1zm6 0h1v11h-1zm1 0h1v1h-1zm35 0h1v1h-1zm12 0h1v1h-1zm24 0h11v10h-11zm12 0h1v1h-1zm12 0h1v1h-1zm11 0h1v1h-1zm2 0h1v1h-1zm12 0h1v32h-1zm1 0h1v1h-1zm11 0h1v1h-1zm12 0h1v1h-1zm12 0h1v1h-1zm12 0h1v1h-1zm1 0h1v1h-1zm9 0h1v1h-1zm1 0h1v1h-1zm1 0h13v1h-13zm13 0h1v1h-1zm1 0h1v1h-1zm33 0h1v1h-1zm14 0h1v1h-1zm1 0h1v1h-1zm26 0h1v1h-1zm2 0h11v20h-11zm12 0h1v1h-1zm12 0h1v1h-1zm12 0h1v1h-1zm41 0h1v1h-1zm12 0h1v1h-1zm1 0h1v1h-1zm1 0h11v1h-11zm12 0h1v1h-1zm11 0h1v1h-1zm12 0h1v1h-1zM22 62h1v1h-1zm1 0h2v1h-2zm2 0h1v1h-1zm1 0h1v1h-1zm2 0h4v5h-4zm5 0h1v1h-1zm2 0h1v1h-1zm1 0h1v1h-1z"/><path d="M37 62h9v1h-9zm9 0h1v10h-1zm3 0h1v1h-1zm3 0h1v6h-1zm1 0h1v1h-1zm3 0h1v1h-1zm1 0h4v1h-4zm4 0h1v8h-1zm1 0h1v1h-1zm4 0h1v1h-1zm1 0h1v1h-1zm1 0h1v1h-1zm1 0h1v1h-1zm4 0h1v1h-1zm2 0h1v3h-1zm1 0h1v1h-1zm13 0h1v1h-1zm3 0h1v1h-1zm33 0h1v1h-1zm1 0h8v1h-8zm8 0h1v11h-1zm1 0h1v1h-1zm33 0h1v1h-1zm1 0h11v9h-11zm12 0h1v1h-1zm23 0h1v1h-1zm13 0h1v1h-1zm11 0h1v1h-1zm1 0h10v11h-10zm11 0h1v1h-1zm2 0h1v1h-1zm1 0h11v1h-11zm12 0h1v1h-1zm10 0h1v1h-1zm1 0h11v6h-11zm12 0h1v1h-1zm12 0h11v10h-11zm12 0h1v1h-1zm10 0h1v1h-1zm1 0h13v2h-13zm13 0h1v1h-1zm1 0h1v1h-1zm33 0h1v1h-1zm1 0h13v2h-13zm13 0h1v1h-1zm1 0h1v1h-1zm27 0h1v1h-1zm14 0h1v1h-1zm12 0h1v1h-1zm12 0h1v1h-1zm19 0h1v1h-1zm12 0h1v1h-1zm10 0h1v1h-1zm12 0h1v1h-1zm2 0h1v1h-1zm1 0h10v3h-10zm11 0h1v1h-1zm11 0h1v1h-1zm12 0h1v1h-1zM23 63h1v1h-1zm2 0h1v7h-1zm1 0h1v1h-1zm1 0h1v1h-1zm5 0h1v1h-1zm1 0h1v1h-1zm2 0h1v1h-1zm1 0h10v1H36zm11 0h1v1h-1zm2 0h1v1h-1zm4 0h1v1h-1zm4 0h1v1h-1zm1 0h3v1h-3zm4 0h1v1h-1zm11 0h1v1h-1zm3 0h1v3h-1zm1 0h1v1h-1zm1 0h1v1h-1zm1 0h1v1h-1zm1 0h1v1h-1zm5 0h1v1h-1zm4 0h1v1h-1zm3 0h1v3h-1zm4 0h1v1h-1zm1 0h1v1h-1zm1 0h1v1h-1zm28 0h1v1h-1z"/><path d="M127 63h8v1h-8zm8 0h1v10h-1zm1 0h1v1h-1zm32 0h1v1h-1zm13 0h1v1h-1zm23 0h1v1h-1zm13 0h1v1h-1zm11 0h1v1h-1zm12 0h1v1h-1zm3 0h1v1h-1zm1 0h10v3h-10zm11 0h1v1h-1zm1 0h1v1h-1zm9 0h1v1h-1zm12 0h1v1h-1zm12 0h1v1h-1zm13 0h1v1h-1zm10 0h1v1h-1zm14 0h1v1h-1zm1 0h1v1h-1zm33 0h1v1h-1zm14 0h1v1h-1zm1 0h1v1h-1zm27 0h1v1h-1zm14 0h1v11h-1zm11 0h1v1h-1zm1 0h11v8h-11zm12 0h1v1h-1zm19 0h1v1h-1zm12 0h1v1h-1zm10 0h11v6h-11zm11 0h1v1h-1zm1 0h1v1h-1zm2 0h1v1h-1zm12 0h1v31h-1zm1 0h1v1h-1zm10 0h11v7h-11zm12 0h1v1h-1zM23 64h1v1h-1zm3 0h5v3h-5zm6 0h1v1h-1zm2 0h1v1h-1zm1 0h3v2h-3zm3 0h1v1h-1zm1 0h1v1h-1zm1 0h1v1h-1zm7 0h1v1h-1zm2 0h1v1h-1zm4 0h1v1h-1zm4 0h1v1h-1zm1 0h1v1h-1zm4 0h1v7h-1zm1 0h1v1h-1zm10 0h1v1h-1zm1 0h10v1H74zm11 0h1v1h-1zm4 0h1v1h-1zm7 0h1v1h-1zm1 0h1v17h-1zm1 0h1v1h-1zm28 0h1v2h-1zm1 0h1v1h-1zm1 0h7v1h-7zm8 0h1v1h-1zm32 0h1v1h-1zm13 0h1v1h-1zm23 0h1v1h-1zm13 0h1v1h-1zm11 0h1v1h-1zm12 0h1v1h-1zm3 0h1v1h-1zm12 0h1v31h-1zm1 0h1v1h-1zm9 0h1v1h-1zm12 0h1v1h-1zm12 0h1v1h-1zm13 0h1v1h-1zm9 0h1v1h-1zm1 0h13v3h-13zm13 0h1v1h-1zm1 0h1v1h-1zm33 0h1v1h-1zm1 0h13v3h-13zm13 0h1v1h-1zm1 0h1v1h-1zm29 0h13v1h-13zm14 0h1v1h-1zm10 0h1v1h-1zm13 0h1v1h-1zm18 0h1v1h-1zm1 0h11v4h-11zm12 0h1v1h-1zm9 0h1v1h-1zm12 0h1v1h-1zm3 0h1v1h-1zm13 0h1v1h-1zm9 0h1v1h-1zm13 0h1v1h-1zM23 65h1v1h-1zm9 0h1v1h-1zm2 0h1v1h-1zm4 0h1v1h-1zm1 0h1v1h-1zm2 0h5v1h-5zm6 0h1v1h-1zm3 0h3v1h-3zm3 0h1v5h-1zm1 0h1v1h-1zm4 0h1v1h-1zm1 0h3v1h-3zm4 0h1v1h-1zm10 0h1v1h-1zm1 0h1v1h-1zm1 0h9v1h-9zm10 0h1v1h-1zm4 0h1v1h-1zm6 0h1v1h-1zm1 0h1v8h-1zm2 0h1v1h-1zm29 0h1v1h-1zm1 0h1v1h-1z"/><path d="M129 65h7v1h-7zm7 0h1v9h-1zm1 0h1v1h-1zm31 0h1v1h-1zm13 0h1v1h-1zm23 0h1v1h-1zm13 0h1v1h-1zm11 0h1v1h-1zm12 0h1v1h-1zm3 0h1v1h-1zm13 0h1v1h-1zm9 0h1v1h-1zm12 0h1v1h-1zm12 0h1v1h-1zm13 0h1v1h-1zm9 0h1v1h-1zm14 0h1v1h-1zm34 0h1v1h-1zm14 0h1v1h-1zm30 0h1v1h-1zm14 0h1v1h-1zm10 0h1v1h-1zm13 0h1v1h-1zm18 0h1v1h-1zm13 0h1v1h-1zm9 0h1v1h-1zm12 0h1v1h-1zm3 0h1v1h-1zm1 0h12v1h-12zm12 0h1v32h-1zm1 0h1v1h-1zm8 0h1v1h-1zm12 0h1v1h-1zM23 66h1v1h-1zm9 0h1v1h-1zm1 0h1v1h-1zm1 0h3v5h-3zm3 0h1v1h-1zm1 0h1v1h-1zm3 0h1v1h-1zm6 0h1v1h-1zm3 0h1v1h-1zm4 0h1v1h-1zm5 0h1v1h-1zm4 0h1v8h-1zm11 0h1v1h-1zm1 0h1v1h-1zm1 0h9v1h-9zm9 0h1v8h-1zm4 0h1v1h-1zm3 0h1v1h-1zm3 0h1v4h-1zm3 0h1v1h-1zm25 0h1v1h-1zm1 0h1v1h-1zm1 0h1v1h-1zm1 0h1v1h-1zm3 0h1v1h-1zm1 0h1v1h-1z"/><path d="M131 66h6v1h-6zm6 0h1v8h-1zm1 0h1v1h-1zm30 0h1v1h-1zm12 0h1v1h-1zm24 0h12v5h-12zm12 0h1v1h-1zm12 0h1v1h-1zm12 0h1v1h-1zm3 0h1v1h-1zm1 0h12v1h-12zm12 0h1v32h-1zm1 0h1v1h-1zm8 0h1v1h-1zm12 0h1v1h-1zm12 0h1v1h-1zm12 0h1v1h-1zm1 0h1v1h-1zm9 0h1v1h-1zm14 0h1v1h-1zm34 0h1v1h-1zm14 0h1v1h-1zm30 0h1v1h-1zm14 0h1v1h-1zm10 0h1v1h-1zm12 0h1v1h-1zm18 0h1v1h-1zm1 0h12v2h-12zm12 0h1v1h-1zm1 0h1v1h-1zm9 0h1v1h-1zm12 0h1v1h-1zm4 0h1v1h-1zm1 0h11v2h-11zm12 0h1v1h-1zm8 0h1v1h-1zm12 0h1v1h-1zM23 67h1v1h-1zm3 0h5v1h-5zm6 0h1v1h-1zm1 0h1v1h-1zm4 0h1v1h-1zm1 0h1v1h-1zm3 0h1v1h-1zm6 0h1v7h-1zm1 0h1v1h-1zm2 0h1v1h-1zm1 0h2v1h-2zm3 0h1v1h-1zm5 0h1v1h-1zm1 0h3v1h-3zm11 0h1v1h-1zm1 0h1v1h-1zm3 0h1v1h-1zm1 0h1v1h-1zm1 0h8v1h-8zm9 0h1v1h-1zm3 0h1v1h-1zm3 0h1v1h-1zm6 0h1v1h-1zm25 0h1v1h-1zm1 0h1v1h-1zm1 0h1v1h-1zm1 0h1v1h-1zm1 0h1v1h-1zm1 0h1v1h-1zm3 0h1v1h-1zm7 0h1v1h-1zm30 0h11v11h-11zm12 0h1v1h-1zm23 0h1v1h-1zm13 0h1v1h-1zm12 0h11v6h-11zm12 0h1v1h-1zm4 0h1v1h-1zm1 0h11v2h-11zm12 0h1v1h-1zm8 0h11v7h-11zm12 0h1v1h-1zm12 0h11v10h-11zm12 0h1v1h-1zm9 0h1v1h-1zm1 0h13v4h-13zm13 0h1v1h-1zm1 0h1v1h-1zm33 0h1v1h-1zm1 0h13v4h-13zm13 0h1v1h-1zm1 0h1v1h-1zm30 0h1v4h-1zm14 0h1v1h-1zm10 0h1v1h-1zm12 0h1v1h-1zm17 0h1v1h-1z"/><path d="M457 67h12v3h-12zm13 0h1v1h-1zm10 0h1v1h-1zm12 0h1v1h-1zm4 0h1v1h-1zm13 0h1v1h-1zm8 0h1v1h-1zm12 0h1v1h-1zM23 68h1v1h-1zm3 0h1v1h-1zm1 0h1v1h-1zm1 0h1v1h-1zm1 0h7v9h-7zm8 0h1v1h-1zm4 0h1v1h-1zm7 0h1v1h-1zm2 0h1v1h-1zm1 0h1v1h-1zm1 0h2v1h-2zm2 0h1v4h-1zm1 0h1v1h-1zm5 0h1v1h-1zm4 0h1v1h-1zm7 0h1v1h-1zm1 0h1v3h-1zm1 0h1v1h-1zm4 0h1v1h-1zm1 0h1v1h-1zm1 0h1v1h-1zm1 0h5v1h-5zm6 0h1v1h-1zm3 0h1v1h-1zm3 0h1v1h-1zm6 0h1v13h-1zm25 0h1v1h-1zm1 0h1v1h-1zm1 0h3v1h-3zm3 0h1v1h-1zm1 0h1v1h-1zm1 0h1v1h-1zm1 0h1v1h-1zm7 0h1v9h-1zm1 0h1v1h-1zm28 0h1v1h-1zm13 0h1v1h-1zm23 0h1v1h-1zm13 0h1v1h-1zm11 0h1v1h-1zm12 0h1v1h-1zm5 0h1v1h-1zm13 0h1v1h-1zm7 0h1v1h-1zm12 0h1v1h-1zm1 0h1v1h-1zm11 0h1v1h-1zm13 0h1v1h-1zm9 0h1v1h-1zm14 0h1v1h-1zm34 0h1v1h-1zm14 0h1v1h-1zm45 0h1v1h-1zm9 0h1v1h-1zm1 0h11v8h-11zm12 0h1v1h-1zm15 0h1v1h-1zm1 0h1v1h-1z"/><path d="M456 68h13v2h-13zm13 0h1v1h-1zm1 0h1v1h-1zm10 0h1v1h-1zm12 0h1v1h-1zm4 0h1v1h-1zm1 0h12v1h-12zm12 0h1v31h-1zm1 0h1v1h-1zm7 0h1v1h-1zm12 0h1v1h-1zM23 69h1v1h-1zm3 0h1v1h-1zm11 0h1v1h-1zm4 0h1v1h-1zm1 0h5v1h-5zm6 0h1v1h-1zm3 0h1v1h-1zm1 0h1v1h-1zm3 0h1v1h-1zm5 0h1v1h-1zm4 0h1v6h-1zm1 0h1v1h-1zm6 0h1v1h-1zm2 0h1v1h-1zm1 0h1v1h-1zm6 0h1v1h-1zm1 0h1v1h-1zm5 0h1v1h-1zm3 0h1v1h-1zm1 0h1v1h-1zm2 0h1v1h-1zm7 0h1v1h-1zm26 0h1v1h-1zm1 0h1v1h-1zm1 0h11v1h-11zm12 0h1v1h-1zm28 0h1v1h-1zm13 0h1v1h-1zm23 0h1v1h-1zm13 0h1v1h-1zm11 0h1v1h-1zm12 0h1v1h-1zm5 0h1v1h-1zm1 0h12v1h-12zm12 0h1v31h-1zm1 0h1v1h-1zm6 0h1v1h-1zm12 0h1v1h-1zm12 0h1v1h-1zm13 0h1v1h-1zm9 0h1v1h-1zm14 0h1v1h-1zm34 0h1v1h-1zm14 0h1v1h-1zm45 0h1v1h-1zm9 0h1v1h-1zm13 0h1v1h-1zm12 0h1v1h-1zm1 0h1v1h-1zm1 0h1v1h-1z"/><path d="M454 69h14v2h-14zm15 0h1v1h-1zm10 0h1v1h-1zm1 0h11v6h-11zm11 0h1v1h-1zm1 0h1v1h-1zm5 0h1v1h-1zm1 0h11v2h-11zm12 0h1v1h-1zm6 0h1v1h-1zm1 0h11v6h-11zm12 0h1v1h-1zM23 70h1v1h-1zm2 0h1v1h-1zm16 0h2v20h-2zm2 0h1v21h-1zm1 0h1v1h-1zm1 0h1v1h-1zm3 0h1v6h-1zm1 0h1v1h-1zm3 0h1v1h-1zm1 0h2v1h-2zm2 0h1v3h-1zm1 0h1v1h-1zm5 0h3v1h-3zm4 0h1v1h-1zm6 0h1v1h-1zm2 0h1v2h-1zm1 0h1v3h-1zm1 0h1v1h-1zm6 0h1v1h-1zm1 0h4v1h-4zm4 0h1v9h-1zm1 0h1v1h-1zm3 0h1v1h-1zm2 0h1v19h-1zm1 0h1v1h-1zm2 0h1v1h-1zm4 0h1v1h-1zm28 0h1v1h-1zm1 0h1v1h-1zm1 0h10v1h-10zm10 0h1v7h-1zm1 0h1v1h-1zm27 0h1v1h-1zm13 0h1v1h-1zm23 0h1v1h-1zm13 0h1v1h-1zm11 0h1v1h-1zm12 0h1v1h-1zm6 0h1v1h-1zm1 0h11v2h-11zm12 0h1v1h-1zm6 0h1v1h-1zm12 0h1v1h-1zm12 0h1v1h-1zm13 0h1v1h-1zm9 0h1v1h-1zm14 0h1v1h-1zm34 0h1v1h-1zm14 0h1v1h-1zm45 0h1v1h-1zm9 0h1v1h-1zm13 0h1v1h-1zm8 0h1v1h-1zm1 0h1v1h-1zm1 0h1v1h-1zm1 0h1v1h-1z"/><path d="M451 70h17v1h-17zm17 0h1v1h-1zm1 0h1v1h-1zm10 0h1v1h-1zm12 0h1v1h-1zm6 0h1v1h-1zm13 0h1v1h-1zm6 0h1v1h-1zm12 0h1v1h-1zM22 71h1v1h-1zm1 0h1v16h-1zm2 0h1v1h-1zm11 0h1v10h-1zm8 0h1v1h-1zm1 0h1v1h-1zm4 0h1v1h-1zm4 0h1v1h-1zm3 0h1v1h-1zm1 0h1v1h-1zm4 0h1v1h-1zm1 0h2v1h-2zm3 0h1v1h-1zm6 0h1v1h-1zm1 0h3v1h-3zm3 0h1v3h-1zm1 0h1v1h-1zm1 0h1v1h-1zm4 0h1v1h-1zm1 0h1v1h-1zm1 0h4v1h-4zm4 0h1v8h-1zm1 0h1v1h-1zm2 0h1v1h-1zm3 0h1v1h-1zm2 0h1v1h-1zm4 0h1v1h-1zm4 0h1v1h-1zm1 0h1v1h-1zm1 0h1v1h-1zm24 0h1v1h-1zm1 0h9v1h-9zm10 0h1v1h-1zm1 0h1v1h-1zm26 0h1v1h-1zm12 0h1v1h-1zm1 0h1v1h-1zm23 0h1v1h-1zm1 0h11v5h-11zm11 0h1v1h-1zm12 0h1v1h-1zm12 0h1v1h-1zm6 0h1v1h-1zm13 0h1v1h-1zm6 0h1v1h-1zm12 0h1v1h-1zm12 0h1v1h-1zm13 0h1v1h-1zm9 0h13v10h-13zm13 0h1v1h-1zm35 0h1v1h-1zm1 0h12v13h-12zm12 0h1v1h-1zm32 0h1v1h-1zm14 0h1v1h-1zm9 0h1v1h-1zm12 0h1v1h-1zm3 0h1v1h-1zm1 0h1v1h-1zm1 0h1v1h-1zm1 0h1v1h-1zm1 0h1v1h-1zm1 0h21v1h-21zm21 0h1v1h-1zm1 0h1v1h-1zm11 0h1v1h-1zm12 0h1v1h-1zm6 0h1v1h-1zm1 0h12v1h-12zm12 0h1v29h-1zm1 0h1v1h-1zm5 0h1v1h-1zm12 0h1v1h-1zM22 72h1v1h-1zm3 0h1v1h-1zm19 0h1v2h-1zm1 0h1v1h-1zm1 0h2v1h-2zm3 0h1v1h-1zm4 0h1v1h-1zm1 0h2v1h-2zm2 0h1v3h-1zm1 0h1v1h-1zm1 0h1v1h-1zm4 0h1v1h-1zm3 0h1v1h-1zm7 0h1v1h-1z"/><path d="M73 72h3v1h-3zm3 0h1v2h-1zm1 0h1v1h-1zm1 0h1v1h-1zm4 0h1v1h-1zm1 0h4v1h-4zm5 0h1v1h-1zm1 0h1v1h-1zm1 0h1v1h-1zm3 0h1v1h-1zm2 0h1v1h-1zm4 0h1v11h-1zm1 0h1v1h-1zm2 0h1v1h-1zm1 0h1v4h-1zm1 0h1v13h-1zm1 0h1v1h-1zm25 0h1v1h-1zm1 0h1v1h-1zm1 0h8v1h-8zm8 0h1v6h-1zm1 0h1v1h-1zm26 0h11v17h-11zm12 0h1v1h-1zm23 0h1v1h-1zm1 0h11v8h-11zm12 0h1v1h-1zm12 0h11v7h-11zm12 0h1v1h-1zm6 0h1v1h-1zm1 0h12v1h-12zm12 0h1v28h-1zm1 0h1v1h-1zm5 0h11v7h-11zm12 0h1v1h-1zm12 0h1v1h-1zm12 0h1v1h-1zm9 0h1v7h-1zm14 0h1v1h-1zm35 0h12v8h-12zm13 0h1v1h-1zm32 0h1v1h-1zm14 0h1v1h-1zm9 0h1v1h-1zm12 0h1v1h-1zm2 0h1v1h-1zm1 0h25v1h-25zm25 0h1v1h-1zm1 0h1v1h-1zm1 0h1v1h-1zm11 0h1v1h-1zm12 0h1v1h-1zm7 0h1v1h-1zm1 0h11v1h-11zm12 0h1v1h-1zm5 0h1v1h-1zm12 0h1v1h-1zM22 73h1v1h-1zm3 0h1v1h-1zm2 0h1v1h-1zm1 0h1v1h-1zm12 0h1v1h-1zm6 0h1v1h-1zm3 0h1v5h-1zm1 0h1v1h-1zm4 0h1v1h-1zm1 0h2v1h-2zm2 0h1v3h-1zm1 0h1v1h-1zm1 0h1v1h-1zm3 0h1v1h-1zm3 0h1v1h-1zm1 0h1v2h-1zm6 0h1v1h-1zm1 0h1v1h-1z"/><path d="M74 73h3v1h-3zm3 0h1v2h-1zm1 0h1v1h-1zm1 0h1v1h-1zm3 0h1v1h-1zm1 0h1v1h-1zm1 0h4v1h-4zm4 0h1v6h-1zm1 0h1v1h-1zm1 0h1v1h-1zm3 0h1v17h-1zm1 0h1v1h-1zm2 0h3v8h-3zm4 0h1v1h-1zm2 0h1v1h-1zm3 0h1v1h-1zm26 0h1v1h-1zm1 0h1v1h-1zm1 0h1v1h-1zm1 0h7v1h-7zm7 0h1v5h-1zm1 0h1v1h-1zm24 0h1v1h-1zm13 0h1v1h-1zm23 0h1v1h-1zm13 0h1v1h-1zm11 0h1v1h-1zm12 0h1v1h-1zm1 0h1v1h-1zm7 0h1v1h-1zm13 0h1v1h-1zm4 0h1v1h-1zm13 0h1v1h-1zm11 0h1v1h-1zm1 0h11v9h-11zm12 0h1v1h-1zm23 0h1v4h-1zm48 0h1v5h-1zm32 0h1v1h-1zm14 0h1v1h-1zm8 0h1v1h-1zm1 0h11v8h-11zm12 0h1v1h-1zm3 0h1v1h-1zm1 0h23v1h-23zm23 0h1v1h-1zm1 0h1v1h-1zm1 0h1v1h-1zm12 0h1v1h-1zm12 0h1v1h-1zm7 0h1v1h-1zm1 0h11v1h-11zm12 0h1v1h-1zm5 0h1v1h-1zm12 0h1v1h-1zM21 74h1v1h-1zm1 0h2v10h-2zm3 0h1v1h-1zm1 0h1v1h-1zm1 0h9v2h-9zm13 0h1v1h-1zm4 0h2v1h-2zm2 0h1v1h-1zm1 0h2v1h-2zm3 0h1v1h-1zm5 0h1v1h-1zm3 0h1v1h-1zm1 0h1v1h-1zm3 0h1v1h-1zm1 0h2v1h-2zm2 0h1v1h-1zm9 0h1v1h-1z"/><path d="M75 74h4v1h-4zm4 0h1v2h-1zm1 0h1v1h-1zm1 0h1v1h-1zm2 0h1v1h-1zm1 0h1v1h-1zm1 0h8v4h-8zm9 0h1v1h-1zm1 0h1v1h-1zm5 0h1v1h-1zm2 0h1v1h-1zm3 0h1v1h-1zm28 0h1v1h-1zm1 0h1v1h-1zm1 0h1v1h-1zm1 0h6v1h-6zm6 0h1v6h-1zm1 0h1v1h-1zm23 0h1v1h-1zm13 0h1v1h-1zm23 0h1v1h-1zm13 0h1v1h-1zm11 0h1v1h-1zm12 0h1v1h-1zm8 0h1v1h-1zm1 0h11v1h-11zm12 0h1v1h-1zm4 0h1v1h-1zm12 0h1v1h-1zm12 0h1v1h-1zm13 0h1v1h-1zm57 0h1v4h-1zm46 0h1v1h-1zm13 0h1v1h-1zm9 0h1v1h-1zm13 0h1v1h-1zm3 0h1v1h-1zm1 0h22v1h-22zm22 0h1v1h-1zm1 0h1v1h-1zm1 0h1v1h-1zm13 0h11v6h-11zm12 0h1v1h-1zm7 0h1v1h-1zm1 0h1v1h-1zm12 0h1v26h-1zm1 0h1v1h-1zm4 0h11v7h-11zm12 0h1v1h-1zM21 75h1v1h-1zm4 0h11v1H25zm12 0h1v1h-1zm3 0h1v1h-1zm4 0h1v1h-1zm3 0h1v1h-1zm3 0h1v1h-1zm5 0h1v1h-1zm1 0h1v1h-1zm2 0h1v1h-1zm5 0h1v1h-1zm1 0h1v1h-1zm1 0h1v1h-1zm1 0h1v1h-1zm9 0h1v1h-1zm1 0h1v1h-1z"/><path d="M77 75h4v1h-4zm4 0h1v2h-1zm1 0h1v1h-1zm1 0h1v1h-1zm1 0h1v1h-1zm10 0h6v6h-6zm6 0h1v8h-1zm2 0h1v1h-1zm3 0h1v10h-1zm1 0h1v1h-1zm31 0h1v1h-1zm6 0h1v8h-1zm1 0h1v1h-1zm22 0h1v1h-1zm13 0h1v1h-1zm23 0h1v1h-1zm13 0h1v1h-1zm11 0h1v1h-1zm12 0h1v1h-1zm9 0h1v1h-1zm12 0h1v25h-1zm1 0h1v1h-1zm3 0h1v1h-1zm12 0h1v1h-1zm12 0h1v1h-1zm13 0h1v1h-1zm102 0h1v1h-1zm1 0h12v6h-12zm13 0h1v1h-1zm9 0h1v1h-1zm13 0h1v1h-1zm4 0h1v1h-1zm1 0h20v1h-20zm20 0h1v1h-1zm1 0h1v1h-1zm14 0h1v1h-1zm12 0h1v1h-1zm9 0h1v1h-1zm13 0h1v1h-1zm3 0h1v1h-1zm12 0h1v1h-1zm1 0h1v1h-1zM20 76h1v1h-1zm1 0h15v1H21zm16 0h1v1h-1zm3 0h1v1h-1zm4 0h1v1h-1zm3 0h1v1h-1zm1 0h2v1h-2zm2 0h1v3h-1zm1 0h1v1h-1zm5 0h1v1h-1zm1 0h1v1h-1zm1 0h1v1h-1zm6 0h1v1h-1zm1 0h1v1h-1zm6 0h1v1h-1zm1 0h1v1h-1zm1 0h1v1h-1zm4 0h1v1h-1zm1 0h1v1h-1z"/><path d="M79 76h21v1H79zm22 0h1v1h-1zm1 0h1v1h-1zm1 0h2v1h-2zm3 0h1v1h-1zm38 0h1v1h-1zm1 0h1v1h-1zm21 0h1v1h-1zm13 0h1v1h-1zm23 0h1v1h-1zm12 0h1v1h-1zm12 0h1v1h-1zm12 0h1v1h-1zm9 0h1v1h-1zm13 0h1v1h-1zm3 0h1v1h-1zm12 0h1v1h-1zm12 0h1v1h-1zm13 0h1v1h-1zm102 0h1v1h-1zm14 0h1v1h-1zm9 0h1v1h-1zm12 0h1v1h-1zm5 0h1v1h-1zm1 0h18v1h-18zm18 0h1v1h-1zm1 0h1v1h-1zm1 0h1v1h-1zm15 0h1v1h-1zm12 0h1v1h-1zm9 0h1v1h-1zm1 0h11v1h-11zm12 0h1v1h-1zm3 0h1v1h-1zm12 0h1v1h-1zM20 77h1v1h-1zm1 0h4v1h-4zm4 0h1v1h-1zm1 0h1v1h-1zm1 0h1v1h-1zm1 0h1v1h-1zm1 0h7v1h-7zm8 0h1v1h-1zm3 0h1v1h-1zm4 0h1v7h-1zm1 0h1v1h-1zm3 0h1v1h-1zm3 0h1v1h-1zm1 0h1v1h-1zm4 0h2v1h-2zm2 0h1v1h-1zm13 0h2v1h-2zm2 0h1v2h-1zm1 0h1v1h-1zm4 0h1v1h-1zm1 0h1v1h-1zm1 0h1v1h-1zm1 0h19v1H81zm20 0h2v1h-2zm2 0h1v1h-1zm3 0h1v1h-1zm1 0h1v1h-1zm5 0h1v1h-1zm1 0h1v1h-1zm1 0h1v1h-1zm24 0h6v1h-6zm6 0h1v8h-1zm1 0h1v1h-1zm21 0h1v1h-1zm35 0h1v1h-1zm1 0h11v6h-11zm12 0h1v1h-1zm12 0h1v1h-1zm12 0h1v1h-1zm9 0h1v1h-1zm1 0h11v1h-11zm12 0h1v1h-1zm3 0h1v1h-1zm12 0h1v1h-1zm12 0h1v1h-1zm12 0h1v1h-1zm24 0h1v1h-1zm79 0h1v1h-1zm14 0h1v1h-1zm9 0h1v1h-1zm12 0h1v1h-1zm6 0h1v1h-1zm1 0h15v1h-15zm15 0h1v1h-1zm1 0h1v1h-1zm1 0h1v1h-1zm17 0h1v1h-1zm12 0h1v1h-1zm10 0h1v1h-1zm12 0h1v23h-1zm3 0h1v1h-1zm12 0h1v1h-1zM20 78h1v2h-1zm1 0h3v4h-3zm3 0h1v1h-1zm1 0h1v1h-1zm1 0h1v1h-1zm2 0h1v1h-1zm1 0h4v4h-4zm4 0h4v1h-4zm4 0h1v5h-1zm1 0h1v1h-1zm2 0h1v1h-1zm5 0h1v1h-1zm3 0h1v1h-1zm1 0h2v1h-2zm2 0h1v3h-1zm1 0h1v1h-1zm1 0h1v1h-1zm17 0h1v1h-1z"/><path d="M71 78h3v1h-3zm3 0h1v2h-1zm1 0h1v1h-1zm1 0h1v1h-1zm5 0h1v1h-1zm1 0h1v1h-1zm1 0h18v1H83zm18 0h1v6h-1zm1 0h1v1h-1zm1 0h1v1h-1zm3 0h1v7h-1zm1 0h1v1h-1zm5 0h1v1h-1zm1 0h1v10h-1zm1 0h1v1h-1zm24 0h1v1h-1zm1 0h1v1h-1zm1 0h5v1h-5zm5 0h1v17h-1zm1 0h1v1h-1zm20 0h1v1h-1zm12 0h1v1h-1zm23 0h1v1h-1zm13 0h1v1h-1zm11 0h1v1h-1zm1 0h11v6h-11zm12 0h1v1h-1zm10 0h1v1h-1zm12 0h1v1h-1zm3 0h1v1h-1zm12 0h1v1h-1zm12 0h11v10h-11zm12 0h1v1h-1zm24 0h1v1h-1zm34 0h1v1h-1zm14 0h1v1h-1zm30 0h1v1h-1zm1 0h1v1h-1zm13 0h1v1h-1zm1 0h1v1h-1zm8 0h1v1h-1zm1 0h11v8h-11zm12 0h1v1h-1zm6 0h1v1h-1zm1 0h1v1h-1zm1 0h10v1h-10zm10 0h1v21h-1zm1 0h1v1h-1zm1 0h1v1h-1zm1 0h1v1h-1zm1 0h1v1h-1zm19 0h1v1h-1zm12 0h1v1h-1zm10 0h1v1h-1zm13 0h1v1h-1zm2 0h1v1h-1zm12 0h1v1h-1zM24 79h1v1h-1zm4 0h1v1h-1zm5 0h1v1h-1zm1 0h1v1h-1zm1 0h1v1h-1zm3 0h1v1h-1zm2 0h4v11h-4zm5 0h1v1h-1zm4 0h1v1h-1zm1 0h2v1h-2zm2 0h1v4h-1zm1 0h1v1h-1zm18 0h1v1h-1zm1 0h1v1h-1z"/><path d="M73 79h2v1h-2zm2 0h1v2h-1zm1 0h1v1h-1zm1 0h1v1h-1zm6 0h1v1h-1zm1 0h1v1h-1zm1 0h1v1h-1zm1 0h16v1H86zm16 0h5v5h-5zm5 0h1v6h-1zm1 0h1v1h-1zm1 0h1v1h-1zm1 0h1v1h-1zm2 0h1v7h-1zm2 0h1v1h-1zm26 0h1v1h-1zm1 0h1v1h-1zm5 0h1v1h-1zm20 0h11v6h-11zm12 0h1v4h-1zm23 0h1v1h-1zm13 0h1v1h-1zm11 0h1v1h-1zm12 0h1v1h-1zm11 0h1v1h-1zm12 0h1v21h-1zm1 0h1v1h-1zm2 0h11v5h-11zm11 0h1v1h-1zm12 0h1v1h-1zm13 0h1v1h-1zm10 0h1v1h-1zm14 0h1v19h-1zm1 0h1v1h-1zm33 0h1v1h-1zm14 0h1v1h-1zm30 0h1v1h-1zm1 0h12v4h-12zm13 0h1v1h-1zm9 0h1v1h-1zm13 0h1v1h-1zm7 0h1v1h-1zm1 0h11v1h-11zm11 0h1v21h-1zm1 0h1v1h-1zm21 0h11v7h-11zm12 0h1v1h-1zm10 0h1v1h-1zm1 0h11v1h-11zm12 0h2v1h-2zm2 0h1v1h-1zm12 0h1v1h-1zM20 80h1v1h-1zm4 0h1v2h-1zm3 0h1v1h-1zm1 0h4v2h-4zm5 0h1v2h-1zm2 0h1v1h-1zm3 0h1v1h-1zm1 0h1v1h-1zm6 0h1v5h-1zm1 0h1v1h-1zm3 0h1v1h-1zm1 0h1v1h-1zm3 0h1v5h-1zm1 0h1v1h-1zm14 0h1v1h-1zm1 0h1v1h-1zm3 0h1v1h-1zm1 0h1v1h-1z"/><path d="M74 80h3v1h-3zm3 0h1v2h-1zm1 0h1v1h-1zm1 0h1v1h-1zm1 0h1v1h-1zm1 0h1v1h-1zm6 0h1v1h-1zm1 0h1v1h-1zm1 0h1v1h-1zm1 0h19v1H90zm19 0h1v5h-1zm1 0h1v1h-1zm4 0h1v9h-1zm1 0h1v1h-1zm18 0h1v1h-1zm1 0h1v1h-1zm1 0h1v1h-1zm6 0h1v1h-1zm1 0h3v1h-3zm4 0h1v1h-1zm55 0h1v1h-1zm12 0h1v1h-1zm1 0h1v1h-1zm11 0h1v1h-1zm12 0h1v1h-1zm11 0h1v1h-1zm1 0h11v1h-11zm12 0h1v1h-1zm13 0h1v1h-1zm12 0h1v1h-1zm13 0h1v1h-1zm10 0h1v1h-1zm15 0h1v1h-1zm34 0h13v1h-13zm13 0h1v18h-1zm1 0h1v1h-1zm29 0h1v1h-1zm14 0h1v1h-1zm9 0h1v1h-1zm13 0h1v1h-1zm7 0h1v1h-1zm1 0h1v1h-1zm1 0h10v1h-10zm11 0h1v1h-1zm20 0h1v1h-1zm12 0h1v1h-1zm1 0h1v1h-1zm11 0h1v1h-1zm12 0h1v1h-1zm2 0h1v2h-1zm12 0h1v1h-1zM20 81h1v1h-1zm7 0h1v1h-1zm8 0h1v1h-1zm1 0h2v1h-2zm2 0h7v3h-7zm8 0h1v1h-1zm4 0h1v1h-1zm1 0h2v1h-2zm3 0h1v1h-1zm1 0h1v1h-1zm13 0h1v1h-1zm1 0h1v4h-1zm1 0h1v1h-1zm3 0h1v1h-1zm1 0h1v1h-1z"/><path d="M75 81h6v1h-6zm6 0h1v4h-1zm1 0h1v1h-1zm1 0h1v1h-1zm7 0h1v1h-1zm4 0h15v1H94zm16 0h1v1h-1zm1 0h1v1h-1zm4 0h1v1h-1zm7 0h1v1h-1zm1 0h1v6h-1zm1 0h1v1h-1zm1 0h1v1h-1zm8 0h1v1h-1zm1 0h1v1h-1zm1 0h1v1h-1zm1 0h1v1h-1zm6 0h1v1h-1zm4 0h1v13h-1zm1 0h1v1h-1zm1 0h1v1h-1zm52 0h1v1h-1zm1 0h11v5h-11zm12 0h1v1h-1zm12 0h1v1h-1zm12 0h1v1h-1zm12 0h1v1h-1zm12 0h1v1h-1zm1 0h1v1h-1zm12 0h1v1h-1zm12 0h1v1h-1zm13 0h1v1h-1zm11 0h13v1h-13zm14 0h1v1h-1zm34 0h1v1h-1zm14 0h1v1h-1zm28 0h1v1h-1zm1 0h13v2h-13zm13 0h1v1h-1zm1 0h1v1h-1zm9 0h1v1h-1zm12 0h1v1h-1zm1 0h1v1h-1zm8 0h1v1h-1zm1 0h11v1h-11zm11 0h1v19h-1zm1 0h1v1h-1zm19 0h1v1h-1zm12 0h1v1h-1zm12 0h1v1h-1zm1 0h11v1h-11zm11 0h1v19h-1zm1 0h1v1h-1zm2 0h10v5h-10zm10 0h1v1h-1zM20 82h1v1h-1zm1 0h2v1h-2zm3 0h1v1h-1zm3 0h1v1h-1zm1 0h4v1h-4zm4 0h1v24h-1zm1 0h1v1h-1zm3 0h1v1h-1zm10 0h1v5h-1zm1 0h1v1h-1zm4 0h1v1h-1zm3 0h1v3h-1zm1 0h1v1h-1zm1 0h1v1h-1zm12 0h2v2h-2zm2 0h1v4h-1zm1 0h1v1h-1zm4 0h1v1h-1z"/><path d="M76 82h7v1h-7zm7 0h1v4h-1zm1 0h1v1h-1zm1 0h1v1h-1zm1 0h1v1h-1zm1 0h1v1h-1zm3 0h1v1h-1zm1 0h5v1h-5zm5 0h1v18h-1zm1 0h1v1h-1zm1 0h1v1h-1zm10 0h6v3h-6zm7 0h1v1h-1zm5 0h1v1h-1zm1 0h1v1h-1zm1 0h2v3h-2zm2 0h1v7h-1zm1 0h1v1h-1zm1 0h1v1h-1zm7 0h1v1h-1zm1 0h1v1h-1zm1 0h1v4h-1zm1 0h1v4h-1zm1 0h1v1h-1zm5 0h1v1h-1zm5 0h1v10h-1zm1 0h1v1h-1zm1 0h1v1h-1zm16 0h1v1h-1zm35 0h1v1h-1zm13 0h1v1h-1zm12 0h1v1h-1zm12 0h1v1h-1zm12 0h1v1h-1zm1 0h11v1h-11zm11 0h12v1h-12zm13 0h1v1h-1zm12 0h1v1h-1zm12 0h1v1h-1zm1 0h1v1h-1zm11 0h1v1h-1zm1 0h13v3h-13zm13 0h1v16h-1zm1 0h1v1h-1zm33 0h1v1h-1zm14 0h1v1h-1zm28 0h1v1h-1zm14 0h1v1h-1zm10 0h1v1h-1zm12 0h1v1h-1zm9 0h1v1h-1zm1 0h1v1h-1zm1 0h10v1h-10zm11 0h1v1h-1zm19 0h1v1h-1zm12 0h1v1h-1zm12 0h1v1h-1zm1 0h1v1h-1zm12 0h1v1h-1zm1 0h1v1h-1zm11 0h1v1h-1zM21 83h1v1h-1zm3 0h1v1h-1zm2 0h1v1h-1zm1 0h2v2h-2zm2 0h3v1h-3zm4 0h1v1h-1zm3 0h1v1h-1zm1 0h9v1h-9zm10 0h1v1h-1zm1 0h1v1h-1zm3 0h1v1h-1zm1 0h3v1h-3zm3 0h1v3h-1zm1 0h1v1h-1zm15 0h1v4h-1zm1 0h1v1h-1zm4 0h1v1h-1zm1 0h1v1h-1z"/><path d="M78 83h9v1h-9zm9 0h1v4h-1zm1 0h1v1h-1zm1 0h1v1h-1zm2 0h1v1h-1zm3 0h2v17h-2zm3 0h1v1h-1zm1 0h1v1h-1zm1 0h15v1H99zm16 0h1v1h-1zm5 0h1v1h-1zm1 0h4v2h-4zm4 0h1v2h-1zm1 0h1v1h-1zm8 0h1v1h-1zm3 0h1v3h-1zm1 0h1v1h-1zm4 0h1v1h-1zm1 0h5v1h-5zm5 0h1v3h-1zm1 0h1v1h-1zm29 0h1v1h-1zm21 0h1v1h-1zm1 0h12v3h-12zm12 0h1v1h-1zm1 0h1v1h-1zm11 0h1v1h-1zm1 0h11v6h-11zm12 0h1v1h-1zm13 0h1v1h-1zm11 0h12v1h-12zm13 0h1v1h-1zm12 0h11v10h-11zm12 0h1v1h-1zm12 0h1v1h-1zm15 0h1v1h-1zm33 0h1v1h-1zm14 0h1v1h-1zm27 0h1v1h-1zm1 0h13v2h-13zm13 0h1v1h-1zm1 0h1v1h-1zm9 0h1v1h-1zm1 0h11v8h-11zm12 0h1v1h-1zm10 0h1v1h-1zm1 0h11v1h-11zm11 0h1v17h-1zm1 0h1v1h-1zm18 0h1v1h-1zm12 0h1v1h-1zm13 0h1v1h-1zm12 0h1v1h-1zm1 0h10v8h-10zm11 0h1v1h-1zM21 84h1v1h-1zm1 0h1v1h-1zm2 0h1v1h-1zm2 0h1v1h-1zm3 0h1v1h-1zm1 0h1v1h-1zm1 0h1v1h-1zm2 0h1v21h-1zm1 0h1v1h-1zm3 0h1v1h-1zm1 0h9v1h-9zm9 0h1v5h-1zm1 0h1v1h-1zm4 0h1v1h-1zm4 0h1v3h-1zm1 0h1v1h-1zm11 0h4v1h-4zm4 0h1v3h-1zm1 0h1v1h-1zm4 0h1v1h-1zm1 0h1v1h-1z"/><path d="M79 84h9v1h-9zm9 0h1v4h-1zm1 0h2v1h-2zm2 0h1v1h-1zm6 0h1v1h-1zm2 0h1v1h-1zm1 0h1v1h-1zm1 0h14v1h-14zm14 0h1v6h-1zm1 0h1v1h-1zm4 0h1v1h-1zm6 0h1v2h-1zm1 0h1v1h-1zm7 0h1v1h-1zm4 0h1v1h-1zm5 0h1v1h-1zm6 0h1v1h-1zm29 0h1v16h-1zm21 0h1v1h-1zm13 0h1v1h-1zm12 0h1v1h-1zm12 0h1v1h-1zm14 0h1v1h-1zm11 0h12v6h-12zm12 0h1v1h-1zm1 0h1v1h-1zm11 0h1v1h-1zm13 0h1v1h-1zm12 0h1v1h-1zm15 0h1v15h-1zm1 0h1v1h-1zm32 0h1v1h-1zm1 0h13v1h-13zm13 0h1v15h-1zm1 0h1v1h-1zm25 0h1v1h-1zm1 0h13v3h-13zm14 0h1v1h-1zm10 0h1v1h-1zm13 0h1v1h-1zm10 0h1v1h-1zm1 0h1v1h-1zm1 0h10v1h-10zm11 0h1v1h-1zm1 0h1v1h-1zm17 0h1v1h-1zm12 0h1v1h-1zm13 0h1v1h-1zm1 0h10v1h-10zm11 0h1v1h-1zm12 0h1v1h-1zM21 85h1v1h-1zm1 0h1v1h-1zm2 0h4v4h-4zm4 0h1v1h-1zm1 0h1v1h-1zm2 0h1v1h-1zm3 0h1v1h-1zm3 0h1v1h-1zm1 0h5v1h-5zm6 0h1v2h-1zm1 0h3v1h-3zm3 0h1v5h-1zm1 0h1v1h-1zm3 0h1v1h-1zm1 0h4v1h-4zm4 0h1v3h-1zm1 0h1v1h-1zm10 0h1v1h-1zm1 0h4v1h-4zm4 0h1v3h-1zm1 0h1v1h-1zm1 0h1v1h-1zm4 0h1v1h-1zm1 0h1v1h-1z"/><path d="M81 85h15v1H81zm16 0h1v1h-1zm4 0h1v1h-1zm1 0h1v1h-1zm1 0h1v1h-1zm1 0h11v1h-11zm12 0h1v1h-1zm4 0h1v1h-1zm1 0h6v1h-6zm6 0h1v2h-1zm1 0h1v1h-1zm1 0h1v1h-1zm5 0h3v1h-3zm4 0h1v1h-1zm5 0h1v1h-1zm1 0h4v1h-4zm5 0h1v1h-1zm17 0h12v1h-12zm13 0h1v1h-1zm19 0h1v1h-1zm1 0h12v3h-12zm13 0h1v1h-1zm12 0h1v1h-1zm12 0h1v1h-1zm14 0h1v1h-1zm1 0h10v1h-10zm22 0h1v1h-1zm12 0h1v1h-1zm13 0h1v1h-1zm12 0h1v1h-1zm1 0h14v1h-14zm15 0h1v1h-1zm1 0h1v1h-1zm32 0h1v1h-1zm1 0h12v2h-12zm13 0h1v1h-1zm1 0h1v1h-1zm23 0h1v1h-1zm1 0h1v1h-1zm14 0h1v1h-1zm1 0h1v1h-1zm10 0h1v1h-1zm13 0h1v1h-1zm11 0h1v1h-1zm1 0h11v1h-11zm11 0h1v15h-1zm1 0h1v1h-1zm16 0h1v1h-1zm1 0h11v6h-11zm12 0h1v1h-1zm14 0h1v1h-1zm11 0h11v6h-11zm12 0h1v1h-1zM22 86h1v1h-1zm6 0h1v1h-1zm1 0h1v1h-1zm2 0h1v1h-1zm3 0h1v1h-1zm3 0h1v1h-1zm1 0h5v1h-5zm7 0h1v1h-1zm4 0h1v1h-1zm1 0h1v1h-1zm3 0h1v1h-1zm1 0h1v1h-1zm1 0h3v1h-3zm3 0h1v3h-1zm1 0h1v1h-1zm10 0h1v1h-1zm1 0h4v1h-4zm4 0h1v3h-1zm1 0h1v1h-1zm1 0h1v1h-1zm5 0h1v1h-1zm1 0h1v1h-1zm1 0h13v1H83zm14 0h1v1h-1zm8 0h1v1h-1zm1 0h2v1h-2zm2 0h1v1h-1zm1 0h1v1h-1zm1 0h1v1h-1zm1 0h4v1h-4zm5 0h1v1h-1zm5 0h1v1h-1zm1 0h1v1h-1zm3 0h1v1h-1z"/><path d="M126 86h2v1h-2zm2 0h1v2h-1zm1 0h1v1h-1zm1 0h1v1h-1zm4 0h1v1h-1zm1 0h2v1h-2zm2 0h1v1h-1zm1 0h1v1h-1zm6 0h1v1h-1zm4 0h1v1h-1zm18 0h1v1h-1zm13 0h1v1h-1zm18 0h1v1h-1zm1 0h1v1h-1zm13 0h1v1h-1zm1 0h1v1h-1zm12 0h1v1h-1zm12 0h1v1h-1zm15 0h1v1h-1zm22 0h1v1h-1zm12 0h1v1h-1zm13 0h1v1h-1zm13 0h1v1h-1zm1 0h14v1h-14zm14 0h1v13h-1zm1 0h1v1h-1zm1 0h1v1h-1zm31 0h1v1h-1zm14 0h1v13h-1zm1 0h1v1h-1zm22 0h1v1h-1zm1 0h1v1h-1zm1 0h13v2h-13zm14 0h1v1h-1zm11 0h1v1h-1zm12 0h1v1h-1zm1 0h1v1h-1zm12 0h1v1h-1zm1 0h11v1h-11zm11 0h1v14h-1zm1 0h1v1h-1zm15 0h1v1h-1zm12 0h1v1h-1zm15 0h1v1h-1zm22 0h1v1h-1zM22 87h1v1h-1zm1 0h4v1h-4zm5 0h1v1h-1zm3 0h1v1h-1zm3 0h1v1h-1zm4 0h1v1h-1zm1 0h1v1h-1zm5 0h1v1h-1zm1 0h1v1h-1zm1 0h3v1h-3zm3 0h1v4h-1zm1 0h1v1h-1zm5 0h1v1h-1zm1 0h2v1h-2zm3 0h1v1h-1zm1 0h1v1h-1zm6 0h1v1h-1zm1 0h1v1h-1zm3 0h1v1h-1zm1 0h4v1h-4zm4 0h1v2h-1zm1 0h1v1h-1zm1 0h1v1h-1zm6 0h1v1h-1zm1 0h1v1h-1zm1 0h12v1H85zm12 0h1v13h-1zm1 0h1v1h-1zm13 0h1v1h-1zm1 0h1v1h-1zm4 0h1v4h-1zm1 0h1v5h-1zm1 0h1v1h-1zm4 0h1v1h-1zm1 0h1v1h-1zm2 0h1v1h-1zm1 0h1v1h-1z"/><path d="M127 87h2v1h-2zm2 0h1v2h-1zm1 0h1v1h-1zm1 0h1v1h-1zm3 0h1v1h-1zm1 0h1v1h-1zm1 0h1v1h-1zm1 0h1v1h-1zm7 0h1v1h-1zm4 0h1v1h-1zm18 0h1v1h-1zm13 0h1v13h-1zm1 0h1v1h-1zm17 0h1v1h-1zm1 0h12v2h-12zm13 0h1v1h-1zm13 0h1v1h-1zm12 0h1v1h-1zm15 0h1v1h-1zm1 0h20v1h-20zm21 0h1v1h-1zm12 0h1v1h-1zm13 0h1v1h-1zm13 0h1v1h-1zm1 0h15v1h-15zm15 0h1v12h-1zm1 0h1v1h-1zm1 0h1v1h-1zm30 0h1v1h-1zm1 0h14v1h-14zm14 0h1v12h-1zm1 0h1v1h-1zm20 0h1v1h-1zm1 0h1v1h-1zm1 0h14v1h-14zm14 0h1v1h-1zm1 0h1v1h-1zm11 0h1v1h-1zm12 0h1v1h-1zm13 0h1v1h-1zm1 0h11v1h-11zm12 0h1v1h-1zm15 0h1v1h-1zm12 0h1v1h-1zm15 0h1v1h-1zm1 0h20v1h-20zm21 0h1v1h-1zM23 88h1v1h-1zm11 0h1v9h-1zm1 0h1v1h-1zm4 0h1v1h-1zm5 0h1v1h-1zm2 0h1v1h-1zm4 0h1v4h-1zm1 0h1v1h-1zm4 0h1v1h-1zm1 0h1v1h-1zm1 0h2v1h-2zm2 0h1v2h-1zm1 0h1v1h-1zm1 0h1v1h-1zm5 0h1v1h-1zm1 0h1v1h-1zm1 0h1v1h-1zm3 0h1v1h-1zm1 0h1v1h-1zm1 0h4v1h-4zm4 0h1v3h-1zm1 0h1v1h-1zm1 0h1v1h-1zm1 0h1v1h-1zm1 0h1v1h-1zm4 0h1v2h-1zm1 0h1v1h-1zm1 0h1v1h-1zm1 0h9v1h-9zm10 0h1v1h-1zm14 0h1v1h-1zm1 0h5v1h-5zm5 0h1v7h-1zm1 0h1v2h-1zm4 0h1v1h-1zm2 0h1v4h-1zm1 0h1v1h-1zm1 0h1v1h-1z"/><path d="M128 88h2v1h-2zm2 0h1v3h-1zm1 0h1v1h-1zm13 0h1v1h-1zm4 0h1v1h-1zm18 0h1v1h-1zm14 0h1v1h-1zm1 0h1v1h-1zm15 0h1v1h-1zm1 0h13v1h-13zm13 0h1v1h-1zm1 0h1v1h-1zm13 0h11v7h-11zm12 0h1v1h-1zm15 0h1v1h-1zm1 0h1v1h-1zm21 0h1v1h-1zm12 0h12v5h-12zm12 0h1v1h-1zm15 0h1v1h-1zm1 0h15v1h-15zm15 0h1v12h-1zm1 0h1v1h-1zm1 0h1v1h-1zm30 0h1v1h-1zm1 0h14v1h-14zm14 0h1v12h-1zm1 0h1v1h-1zm18 0h1v1h-1zm1 0h1v1h-1zm1 0h14v1h-14zm14 0h1v1h-1zm1 0h1v1h-1zm12 0h11v9h-11zm12 0h1v1h-1zm14 0h1v1h-1zm1 0h11v1h-11zm11 0h1v12h-1zm1 0h1v1h-1zm14 0h1v1h-1zm12 0h1v1h-1zm16 0h1v1h-1zm21 0h1v1h-1zM23 89h1v1h-1zm1 0h3v1h-3zm3 0h1v1h-1zm4 0h1v1h-1zm4 0h1v1h-1zm4 0h1v4h-1zm5 0h1v4h-1zm1 0h1v1h-1zm1 0h1v2h-1zm1 0h3v1h-3zm4 0h1v1h-1zm5 0h1v1h-1zm1 0h1v1h-1zm1 0h2v1h-2zm2 0h1v2h-1zm1 0h1v1h-1zm5 0h1v1h-1zm1 0h1v2h-1zm1 0h1v1h-1zm4 0h1v1h-1zm1 0h1v1h-1zm1 0h7v1h-7zm7 0h1v4h-1zm1 0h1v1h-1zm1 0h1v1h-1zm5 0h1v1h-1zm1 0h1v1h-1zm1 0h1v1h-1zm1 0h1v1h-1zm1 0h5v1h-5zm6 0h1v1h-1zm15 0h1v1h-1zm1 0h4v1h-4zm9 0h1v1h-1zm1 0h1v1h-1zm2 0h1v1h-1zm2 0h1v1h-1z"/><path d="M129 89h2v1h-2zm2 0h1v11h-1zm1 0h1v1h-1zm11 0h1v1h-1zm1 0h3v5h-3zm4 0h1v1h-1zm18 0h1v1h-1zm1 0h13v1h-13zm13 0h1v11h-1zm1 0h1v1h-1zm1 0h1v1h-1zm12 0h1v1h-1zm1 0h1v1h-1zm1 0h13v2h-13zm13 0h1v1h-1zm1 0h1v1h-1zm13 0h1v1h-1zm12 0h1v1h-1zm1 0h1v1h-1zm16 0h1v1h-1zm21 0h1v1h-1zm11 0h1v1h-1zm13 0h1v1h-1zm15 0h1v1h-1zm1 0h17v1h-17zm17 0h1v11h-1zm1 0h1v1h-1zm1 0h1v1h-1zm20 0h1v1h-1zm8 0h1v1h-1zm1 0h15v1h-15zm15 0h1v11h-1zm1 0h1v1h-1zm1 0h1v1h-1zm14 0h1v1h-1zm1 0h1v1h-1zm1 0h15v1h-15zm15 0h1v1h-1zm1 0h1v1h-1zm1 0h1v1h-1zm11 0h1v1h-1zm13 0h1v1h-1zm14 0h1v1h-1zm1 0h11v1h-11zm12 0h1v1h-1zm14 0h1v1h-1zm12 0h1v1h-1zm16 0h1v1h-1zm1 0h19v1h-19zm20 0h1v1h-1zM23 90h1v1h-1zm1 0h2v1h-2zm2 0h1v13h-1zm1 0h1v1h-1zm4 0h1v1h-1zm4 0h1v1h-1zm5 0h4v1h-4zm5 0h1v1h-1zm2 0h1v1h-1zm1 0h3v1h-3zm3 0h1v3h-1zm1 0h1v1h-1zm5 0h1v1h-1zm1 0h1v1h-1zm1 0h1v1h-1zm2 0h1v1h-1zm4 0h1v1h-1zm1 0h2v1h-2zm2 0h1v2h-1zm1 0h1v1h-1zm5 0h1v1h-1zm1 0h1v1h-1zm1 0h7v1h-7zm7 0h1v4h-1zm1 0h1v1h-1zm1 0h1v1h-1zm7 0h1v1h-1zm1 0h5v1h-5zm5 0h1v9h-1zm16 0h1v1h-1zm1 0h3v1h-3zm4 0h1v1h-1zm5 0h1v1h-1zm2 0h1v1h-1zm3 0h1v1h-1zm3 0h1v1h-1zm1 0h1v1h-1zm9 0h1v1h-1zm1 0h1v1h-1zm5 0h1v1h-1zm19 0h1v1h-1z"/><path d="M168 90h13v2h-13zm13 0h1v10h-1zm1 0h1v1h-1zm1 0h1v1h-1zm1 0h1v1h-1zm8 0h1v1h-1zm1 0h1v1h-1zm1 0h14v2h-14zm15 0h1v1h-1zm1 0h1v1h-1zm13 0h1v1h-1zm12 0h1v1h-1zm17 0h1v1h-1zm1 0h19v1h-19zm19 0h1v1h-1zm12 0h1v1h-1zm13 0h1v1h-1zm16 0h1v1h-1zm1 0h18v1h-18zm18 0h1v10h-1zm1 0h1v1h-1zm1 0h1v1h-1zm1 0h1v1h-1zm1 0h1v1h-1zm12 0h1v1h-1zm1 0h1v1h-1zm1 0h1v1h-1zm1 0h1v1h-1zm1 0h1v1h-1zm9 0h1v1h-1zm1 0h16v1h-16zm16 0h1v10h-1zm1 0h1v1h-1zm1 0h1v1h-1zm10 0h1v1h-1zm1 0h1v1h-1zm1 0h16v2h-16zm16 0h1v1h-1zm1 0h1v1h-1zm1 0h1v1h-1zm12 0h1v1h-1zm13 0h1v1h-1zm15 0h1v1h-1zm1 0h11v1h-11zm11 0h1v10h-1zm1 0h1v1h-1zm13 0h11v6h-11zm12 0h1v1h-1zm17 0h1v1h-1zm20 0h1v1h-1zM23 91h1v1h-1zm1 0h1v1h-1zm1 0h1v2h-1zm2 0h1v1h-1zm4 0h1v1h-1zm4 0h1v6h-1zm1 0h1v1h-1zm4 0h1v20h-1zm1 0h4v1h-4zm4 0h1v4h-1zm1 0h1v1h-1zm2 0h1v1h-1zm1 0h3v1h-3zm3 0h1v3h-1zm1 0h1v1h-1zm5 0h1v1h-1zm1 0h1v1h-1zm1 0h1v1h-1zm1 0h1v1h-1zm5 0h1v1h-1zm1 0h2v1h-2zm2 0h1v2h-1zm1 0h1v1h-1zm5 0h1v1h-1zm1 0h1v1h-1zm1 0h7v1h-7zm7 0h1v3h-1zm1 0h1v1h-1zm1 0h1v1h-1zm1 0h1v1h-1zm6 0h1v1h-1zm6 0h1v1h-1zm16 0h1v1h-1zm1 0h2v1h-2zm3 0h1v1h-1zm5 0h1v1h-1zm2 0h1v2h-1zm1 0h1v1h-1zm2 0h1v1h-1zm1 0h2v1h-2zm2 0h1v9h-1zm1 0h1v1h-1zm8 0h1v1h-1zm1 0h1v1h-1zm1 0h4v3h-4zm5 0h1v1h-1zm19 0h1v1h-1zm15 0h2v10h-2zm2 0h1v10h-1zm1 0h1v1h-1zm1 0h1v1h-1zm1 0h2v1h-2zm2 0h1v1h-1zm1 0h1v1h-1zm1 0h1v1h-1z"/><path d="M192 91h16v1h-16zm16 0h1v1h-1zm1 0h1v1h-1zm14 0h1v1h-1zm12 0h1v1h-1zm18 0h1v1h-1zm8 0h10v9h-10zm10 0h1v4h-1zm1 0h1v1h-1zm12 0h1v1h-1zm13 0h1v1h-1zm16 0h1v1h-1zm1 0h23v1h-23zm23 0h1v10h-1zm1 0h1v1h-1zm1 0h5v1h-5zm5 0h1v1h-1zm1 0h1v1h-1zm1 0h5v7h-5zm5 0h1v2h-1zm1 0h1v1h-1zm9 0h1v1h-1zm1 0h19v1h-19zm19 0h1v10h-1zm1 0h1v1h-1zm1 0h1v1h-1zm1 0h2v1h-2zm2 0h1v1h-1zm1 0h1v1h-1zm1 0h1v1h-1zm1 0h18v1h-18zm19 0h1v1h-1zm1 0h1v1h-1zm13 0h1v1h-1zm12 0h1v1h-1zm1 0h1v1h-1zm15 0h1v1h-1zm1 0h11v1h-11zm12 0h1v1h-1zm12 0h1v1h-1zm12 0h1v1h-1zm1 0h1v1h-1zm17 0h1v1h-1zm9 0h10v6h-10zm10 0h1v1h-1zm1 0h1v1h-1zM24 92h1v1h-1zm3 0h1v10h-1zm4 0h1v1h-1zm5 0h1v1h-1zm5 0h1v10h-1zm1 0h1v1h-1zm1 0h1v1h-1zm3 0h1v1h-1zm3 0h1v1h-1zm1 0h2v1h-2zm3 0h1v1h-1zm1 0h1v1h-1zm6 0h1v1h-1zm1 0h1v1h-1zm5 0h1v1h-1zm1 0h1v1h-1zm1 0h2v1h-2zm2 0h1v2h-1zm1 0h1v1h-1zm1 0h1v1h-1zm5 0h1v1h-1zm1 0h1v1h-1zm1 0h8v1h-8zm8 0h1v3h-1zm1 0h1v1h-1zm1 0h1v1h-1zm1 0h2v1h-2zm2 0h1v1h-1zm1 0h1v1h-1zm6 0h1v1h-1zm17 0h1v1h-1zm1 0h1v1h-1zm2 0h1v1h-1zm1 0h1v1h-1zm4 0h1v1h-1zm1 0h1v1h-1zm2 0h1v1h-1zm1 0h1v1h-1zm2 0h1v1h-1zm3 0h1v5h-1zm1 0h1v1h-1zm6 0h1v1h-1zm1 0h1v1h-1zm1 0h5v2h-5zm5 0h1v1h-1zm20 0h1v1h-1zm1 0h39v1h-39zm39 0h1v1h-1zm1 0h1v1h-1zm15 0h1v1h-1zm12 0h1v1h-1zm18 0h1v1h-1zm19 0h1v1h-1zm12 0h1v1h-1zm13 0h1v1h-1zm17 0h1v1h-1z"/><path d="M315 92h36v1h-36zm37 0h1v1h-1zm10 0h1v1h-1zm1 0h44v1h-44zm44 0h1v1h-1zm1 0h1v1h-1zm14 0h1v1h-1zm12 0h1v1h-1zm17 0h1v1h-1zm1 0h11v1h-11zm11 0h1v8h-1zm1 0h1v1h-1zm11 0h1v1h-1zm12 0h1v1h-1zm18 0h1v1h-1zm1 0h17v1h-17zm18 0h1v1h-1zM24 93h1v1h-1zm1 0h2v1h-2zm3 0h1v1h-1zm3 0h1v1h-1zm5 0h1v4h-1zm1 0h1v1h-1zm2 0h1v1h-1zm3 0h1v1h-1zm1 0h1v1h-1zm1 0h2v1h-2zm2 0h1v3h-1zm1 0h1v1h-1zm3 0h1v1h-1zm1 0h2v1h-2zm2 0h1v2h-1zm1 0h1v1h-1zm1 0h1v1h-1zm12 0h1v1h-1zm1 0h1v1h-1zm1 0h2v1h-2zm2 0h1v2h-1zm1 0h1v1h-1zm1 0h1v1h-1zm6 0h1v1h-1zm1 0h1v1h-1zm1 0h17v1H81zm18 0h1v1h-1zm18 0h1v1h-1zm2 0h1v3h-1zm1 0h1v4h-1zm1 0h1v1h-1zm4 0h1v1h-1zm1 0h2v1h-2zm2 0h1v2h-1zm1 0h1v1h-1zm1 0h1v1h-1zm4 0h1v4h-1zm1 0h1v1h-1zm1 0h1v1h-1zm3 0h1v1h-1zm1 0h6v2h-6zm7 0h1v1h-1zm21 0h1v1h-1zm1 0h37v1h-37zm37 0h1v1h-1zm1 0h1v1h-1zm1 0h1v1h-1zm15 0h1v1h-1zm12 0h1v1h-1zm18 0h1v1h-1zm1 0h17v1h-17zm18 0h1v1h-1zm12 0h1v1h-1zm1 0h11v5h-11zm11 0h1v1h-1zm19 0h1v1h-1zm1 0h35v1h-35zm35 0h1v1h-1zm12 0h1v1h-1zm1 0h41v1h-41zm41 0h1v1h-1zm1 0h1v1h-1zm1 0h1v1h-1zm15 0h11v7h-11zm12 0h1v1h-1zm17 0h1v1h-1zm1 0h11v1h-11zm12 0h1v1h-1zm1 0h1v1h-1zm10 0h1v1h-1zm12 0h1v1h-1zm19 0h1v1h-1zm18 0h1v1h-1zM25 94h1v1h-1zm3 0h1v1h-1zm2 0h1v1h-1zm1 0h5v3h-5zm6 0h1v1h-1zm1 0h1v1h-1zm1 0h1v1h-1zm3 0h1v1h-1zm2 0h1v1h-1zm3 0h1v3h-1zm1 0h1v1h-1zm3 0h1v1h-1z"/><path d="M52 94h2v1h-2zm2 0h1v2h-1zm1 0h1v1h-1zm1 0h1v1h-1zm12 0h1v1h-1zm1 0h1v1h-1zm1 0h3v1h-3zm3 0h1v3h-1zm1 0h1v1h-1zm7 0h1v1h-1zm1 0h1v1h-1zm1 0h15v1H83zm16 0h1v1h-1zm18 0h1v1h-1zm4 0h1v1h-1zm1 0h1v1h-1zm3 0h1v1h-1zm1 0h1v1h-1zm1 0h19v1h-19zm19 0h1v1h-1zm1 0h1v1h-1zm21 0h1v1h-1zm1 0h1v1h-1zm1 0h35v1h-35zm35 0h1v1h-1zm1 0h1v1h-1zm1 0h1v1h-1zm15 0h1v1h-1zm1 0h11v6h-11zm12 0h1v1h-1zm19 0h1v1h-1zm18 0h1v1h-1zm11 0h1v1h-1zm1 0h11v6h-11zm12 0h1v1h-1zm20 0h1v1h-1zm1 0h33v1h-33zm34 0h1v1h-1zm12 0h1v1h-1zm1 0h1v1h-1zm1 0h39v1h-39zm39 0h1v1h-1zm1 0h1v1h-1zm1 0h1v1h-1zm15 0h1v1h-1zm13 0h1v1h-1zm18 0h1v1h-1zm1 0h11v1h-11zm11 0h1v6h-1zm1 0h1v1h-1zm10 0h1v1h-1zm12 0h1v1h-1zm19 0h1v1h-1zm1 0h16v1h-16zm17 0h1v1h-1zM25 95h1v1h-1zm3 0h1v1h-1zm2 0h1v1h-1zm7 0h1v3h-1zm1 0h1v1h-1zm1 0h1v1h-1zm3 0h1v7h-1zm1 0h1v1h-1zm1 0h1v1h-1zm1 0h2v1h-2zm3 0h1v1h-1zm1 0h1v1h-1zm3 0h1v1h-1z"/><path d="M53 95h2v1h-2zm2 0h1v2h-1zm1 0h1v1h-1zm1 0h1v1h-1zm12 0h1v1h-1zm1 0h1v1h-1zm1 0h3v1h-3zm3 0h1v3h-1zm1 0h1v1h-1zm1 0h1v1h-1zm7 0h1v1h-1zm1 0h1v1h-1zm1 0h14v1H85zm14 0h1v4h-1zm1 0h1v1h-1zm17 0h1v1h-1zm1 0h3v1h-3zm3 0h1v2h-1zm1 0h1v1h-1zm1 0h1v1h-1zm3 0h1v1h-1zm1 0h1v1h-1zm1 0h17v1h-17zm17 0h1v1h-1zm1 0h1v1h-1zm23 0h1v1h-1zm1 0h34v1h-34zm34 0h1v1h-1zm1 0h1v1h-1zm1 0h1v1h-1zm16 0h1v1h-1zm12 0h1v1h-1zm20 0h1v1h-1zm1 0h16v1h-16zm16 0h1v1h-1zm12 0h1v1h-1zm13 0h1v1h-1zm21 0h1v1h-1zm1 0h32v1h-32zm33 0h1v1h-1zm13 0h1v1h-1zm1 0h1v1h-1zm1 0h37v1h-37zm37 0h1v1h-1zm1 0h1v1h-1zm1 0h1v1h-1zm16 0h1v1h-1zm13 0h1v1h-1zm18 0h1v1h-1zm1 0h12v1h-12zm12 0h1v5h-1zm1 0h1v1h-1zm9 0h11v5h-11zm12 0h1v1h-1zm20 0h1v1h-1zm17 0h1v1h-1zM25 96h1v1h-1zm3 0h1v1h-1zm2 0h1v1h-1zm8 0h4v3h-4zm5 0h1v1h-1zm2 0h1v1h-1zm1 0h2v1h-2zm2 0h1v3h-1zm1 0h1v1h-1zm3 0h1v1h-1zm1 0h1v1h-1z"/><path d="M54 96h2v1h-2zm2 0h1v2h-1zm1 0h1v1h-1zm1 0h1v1h-1zm12 0h1v1h-1zm1 0h1v1h-1zm1 0h4v1h-4zm4 0h1v3h-1zm1 0h1v1h-1zm1 0h1v1h-1zm7 0h1v1h-1zm1 0h1v1h-1zm1 0h1v1h-1zm1 0h1v1h-1zm1 0h1v1h-1zm1 0h1v1h-1zm1 0h9v1h-9zm9 0h1v3h-1zm1 0h1v1h-1zm17 0h1v1h-1zm1 0h3v1h-3zm3 0h1v2h-1zm1 0h1v1h-1zm1 0h1v1h-1zm3 0h1v1h-1zm1 0h1v1h-1zm1 0h15v1h-15zm15 0h1v1h-1zm1 0h1v1h-1zm1 0h1v1h-1zm24 0h1v1h-1zm1 0h32v1h-32zm32 0h1v1h-1zm1 0h1v1h-1zm1 0h1v1h-1zm17 0h1v1h-1zm12 0h1v1h-1zm21 0h1v1h-1zm16 0h1v1h-1zm12 0h1v1h-1zm13 0h1v1h-1zm22 0h1v1h-1zm1 0h31v1h-31zm32 0h1v1h-1zm14 0h1v1h-1zm1 0h1v1h-1zm1 0h35v1h-35zm35 0h1v1h-1zm1 0h1v1h-1zm18 0h1v1h-1zm13 0h1v1h-1zm19 0h1v1h-1zm1 0h11v1h-11zm12 0h1v1h-1zm8 0h1v1h-1zm12 0h1v1h-1zm1 0h1v1h-1zm20 0h1v1h-1zm17 0h1v1h-1zM28 97h1v5h-1zm1 0h1v1h-1zm1 0h1v1h-1zm1 0h11v1H31zm12 0h1v1h-1zm2 0h1v1h-1zm1 0h1v1h-1zm1 0h2v1h-2zm2 0h1v3h-1zm1 0h1v1h-1zm3 0h1v1h-1zm1 0h1v1h-1z"/><path d="M55 97h2v1h-2zm2 0h1v2h-1zm1 0h1v1h-1zm1 0h1v1h-1zm12 0h1v1h-1zm1 0h1v1h-1zm1 0h5v1h-5zm5 0h1v3h-1zm1 0h1v1h-1zm1 0h1v1h-1zm1 0h1v1h-1zm11 0h1v1h-1zm1 0h7v2h-7zm8 0h1v2h-1zm18 0h1v1h-1zm1 0h3v1h-3zm3 0h1v2h-1zm1 0h1v1h-1zm1 0h2v1h-2zm2 0h1v1h-1zm1 0h1v1h-1zm1 0h13v1h-13zm13 0h1v1h-1zm1 0h1v1h-1zm1 0h1v1h-1zm27 0h1v1h-1zm1 0h30v1h-30zm30 0h1v1h-1zm1 0h1v1h-1zm1 0h1v1h-1zm18 0h1v1h-1zm12 0h1v1h-1zm21 0h1v1h-1zm16 0h1v1h-1zm12 0h1v1h-1zm13 0h1v1h-1zm23 0h1v1h-1zm1 0h1v1h-1zm1 0h29v1h-29zm30 0h1v1h-1zm16 0h1v1h-1zm1 0h1v1h-1zm1 0h31v1h-31zm31 0h1v1h-1zm1 0h1v1h-1zm1 0h1v1h-1zm19 0h1v1h-1zm12 0h1v1h-1zm20 0h1v1h-1zm1 0h12v1h-12zm12 0h1v3h-1zm1 0h1v1h-1zm7 0h1v1h-1zm12 0h1v1h-1zm21 0h1v1h-1zm1 0h15v1h-15zm15 0h1v1h-1zM29 98h1v1h-1zm1 0h3v3h-3zm4 0h1v1h-1zm1 0h1v1h-1zm1 0h1v1h-1zm1 0h6v1h-6zm6 0h1v6h-1zm1 0h1v1h-1zm2 0h1v1h-1zm1 0h1v1h-1zm3 0h1v3h-1zm1 0h1v1h-1zm3 0h1v1h-1zm1 0h1v1h-1z"/><path d="M56 98h3v1h-3zm3 0h1v2h-1zm1 0h1v1h-1zm6 0h1v1h-1zm1 0h1v1h-1zm5 0h1v1h-1zm1 0h1v1h-1zm1 0h7v1h-7zm7 0h1v8h-1zm1 0h1v1h-1zm1 0h1v1h-1zm1 0h1v1h-1zm5 0h1v1h-1zm1 0h1v1h-1zm1 0h1v1h-1zm1 0h8v1h-8zm28 0h1v1h-1zm1 0h1v1h-1zm1 0h10v1h-10zm11 0h1v1h-1zm1 0h1v1h-1zm1 0h1v1h-1zm1 0h3v1h-3zm3 0h1v1h-1zm1 0h1v1h-1zm1 0h1v1h-1zm1 0h1v1h-1zm30 0h1v1h-1zm1 0h1v1h-1zm1 0h26v1h-26zm26 0h1v1h-1zm1 0h1v1h-1zm1 0h1v1h-1zm20 0h1v1h-1zm12 0h1v1h-1zm21 0h1v1h-1zm1 0h14v1h-14zm15 0h1v1h-1zm12 0h1v1h-1zm12 0h1v1h-1zm26 0h1v1h-1zm1 0h1v1h-1zm1 0h27v1h-27zm27 0h1v1h-1zm18 0h1v1h-1zm1 0h1v1h-1zm1 0h28v1h-28zm28 0h1v1h-1zm1 0h1v1h-1zm1 0h1v1h-1zm21 0h11v2h-11zm12 0h1v1h-1zm21 0h1v1h-1zm13 0h1v1h-1zm7 0h1v1h-1zm12 0h1v1h-1zm22 0h1v1h-1zm6 0h8v2h-8zm8 0h1v2h-1zm1 0h1v1h-1zM25 99h1v1h-1zm4 0h4v2h-4zm5 0h1v1h-1zm3 0h1v1h-1zm1 0h5v1h-5zm6 0h1v1h-1zm3 0h1v1h-1zm1 0h3v1h-3zm3 0h1v3h-1zm1 0h1v1h-1zm4 0h1v1h-1zm1 0h2v1h-2zm3 0h1v1h-1zm1 0h1v1h-1zm5 0h2v1h-2zm2 0h1v1h-1zm6 0h1v1h-1zm1 0h1v1h-1z"/><path d="M76 99h8v1h-8zm8 0h1v5h-1zm1 0h1v1h-1zm1 0h1v1h-1zm1 0h1v1h-1zm1 0h1v1h-1zm1 0h11v1H89zm11 0h1v1h-1zm1 0h1v1h-1zm20 0h1v1h-1zm1 0h1v1h-1zm1 0h9v1h-9zm10 0h1v1h-1zm2 0h1v1h-1zm1 0h1v1h-1zm1 0h1v1h-1zm1 0h1v1h-1zm1 0h1v1h-1zm34 0h1v1h-1zm1 0h1v1h-1zm1 0h1v1h-1zm1 0h22v1h-22zm22 0h1v1h-1zm1 0h1v1h-1zm1 0h1v1h-1zm1 0h1v1h-1zm20 0h1v2h-1zm1 0h11v1h-11zm12 0h1v1h-1zm22 0h1v1h-1zm15 0h1v1h-1zm12 0h11v1h-11zm12 0h1v1h-1zm27 0h1v1h-1zm1 0h1v1h-1zm1 0h1v1h-1zm1 0h24v1h-24zm24 0h1v1h-1zm1 0h1v1h-1zm20 0h1v1h-1zm1 0h1v1h-1zm1 0h24v1h-24zm24 0h1v1h-1zm1 0h1v1h-1zm1 0h1v1h-1zm22 0h1v1h-1zm13 0h1v1h-1zm21 0h1v1h-1zm1 0h12v1h-12zm12 0h1v1h-1zm1 0h1v1h-1zm6 0h1v1h-1zm12 0h1v1h-1zm22 0h1v1h-1zm1 0h13v1h-13zm14 0h1v1h-1zm-498 1h1v1h-1zm9 0h1v1h-1zm3 0h1v1h-1zm1 0h1v1h-1zm1 0h5v2h-5zm5 0h1v5h-1zm1 0h1v1h-1zm3 0h1v1h-1zm1 0h2v1h-2zm3 0h1v1h-1zm1 0h1v1h-1zm4 0h1v1h-1zm1 0h1v1h-1zm1 0h1v1h-1zm1 0h1v1h-1zm6 0h1v1h-1zm1 0h1v1h-1zm1 0h1v2h-1zm1 0h1v1h-1zm1 0h1v1h-1zm5 0h1v1h-1zm1 0h1v1h-1z"/><path d="M77 100h20v1H77zm20 0h1v1h-1zm1 0h1v1h-1zm1 0h1v1h-1zm1 0h1v1h-1zm23 0h1v1h-1zm1 0h1v1h-1zm1 0h7v1h-7zm7 0h1v1h-1zm1 0h1v1h-1zm42 0h1v1h-1zm1 0h1v1h-1zm1 0h1v1h-1zm1 0h17v1h-17zm17 0h1v1h-1zm1 0h1v1h-1zm1 0h1v1h-1zm1 0h1v1h-1zm24 0h11v1h-11zm11 0h1v1h-1zm23 0h1v1h-1zm1 0h13v1h-13zm13 0h1v1h-1zm1 0h1v1h-1zm11 0h1v1h-1zm1 0h11v1h-11zm11 0h1v1h-1zm1 0h1v1h-1zm30 0h1v1h-1zm1 0h1v1h-1zm1 0h1v1h-1zm1 0h21v1h-21zm21 0h1v1h-1zm1 0h1v1h-1zm22 0h1v1h-1zm1 0h1v1h-1zm1 0h1v1h-1zm1 0h18v1h-18zm18 0h1v1h-1zm1 0h1v1h-1zm1 0h1v1h-1zm1 0h1v1h-1zm24 0h1v1h-1zm1 0h11v1h-11zm11 0h1v1h-1zm1 0h1v1h-1zm22 0h1v1h-1zm1 0h11v1h-11zm11 0h1v1h-1zm1 0h1v1h-1zm1 0h1v1h-1zm5 0h1v1h-1zm1 0h10v1h-10zm10 0h1v1h-1zm1 0h1v1h-1zm22 0h1v1h-1zm1 0h1v1h-1zm1 0h12v1h-12zm12 0h1v1h-1zm1 0h1v1h-1zm-499 1h1v1h-1zm1 0h1v1h-1zm4 0h4v1h-4zm5 0h1v1h-1zm4 0h1v1h-1zm7 0h1v1h-1zm1 0h2v1h-2zm2 0h1v1h-1zm1 0h1v1h-1zm1 0h2v1h-2zm2 0h1v2h-1zm1 0h1v1h-1zm1 0h1v1h-1zm4 0h1v1h-1zm1 0h1v1h-1zm7 0h1v1h-1zm1 0h3v1h-3zm3 0h1v3h-1zm1 0h1v1h-1zm1 0h1v1h-1zm5 0h1v1h-1zm1 0h1v1h-1zm1 0h1v2h-1zm1 0h12v1H80zm12 0h1v1h-1zm1 0h1v1h-1zm1 0h1v1h-1zm1 0h1v1h-1zm1 0h1v1h-1zm1 0h1v1h-1zm1 0h1v1h-1zm27 0h1v1h-1zm1 0h1v1h-1zm1 0h2v1h-2zm2 0h1v1h-1zm1 0h3v1h-3zm3 0h1v1h-1zm45 0h1v1h-1zm1 0h1v1h-1zm1 0h1v1h-1zm1 0h1v1h-1zm1 0h8v1h-8zm8 0h1v1h-1zm1 0h1v1h-1zm1 0h1v1h-1zm1 0h1v1h-1zm1 0h1v1h-1zm1 0h1v1h-1zm26 0h1v1h-1zm1 0h11v1h-11zm11 0h1v1h-1zm24 0h13v1h-13zm13 0h1v1h-1zm12 0h1v1h-1zm1 0h11v1h-11zm11 0h1v1h-1zm1 0h1v1h-1zm33 0h1v1h-1zm1 0h1v1h-1zm1 0h1v1h-1zm1 0h1v1h-1zm1 0h1v1h-1zm1 0h10v1h-10zm10 0h1v1h-1zm1 0h1v1h-1zm1 0h1v1h-1zm1 0h1v1h-1zm1 0h1v1h-1zm1 0h1v1h-1zm1 0h1v1h-1zm26 0h1v1h-1zm1 0h1v1h-1zm1 0h1v1h-1zm1 0h1v1h-1zm1 0h1v1h-1zm1 0h7v1h-7zm7 0h1v1h-1zm1 0h1v1h-1zm1 0h1v1h-1zm1 0h1v1h-1zm1 0h1v1h-1zm1 0h1v1h-1zm28 0h1v1h-1zm1 0h11v1h-11zm11 0h1v1h-1zm1 0h1v1h-1zm22 0h1v1h-1zm1 0h12v1h-12zm12 0h1v1h-1zm1 0h1v1h-1zm5 0h11v1h-11zm11 0h1v1h-1zm1 0h1v1h-1zm23 0h1v1h-1zm1 0h12v1h-12zm12 0h1v1h-1zm1 0h1v1h-1zm-500 1h1v1h-1zm1 0h1v1h-1zm1 0h3v1h-3zm3 0h1v1h-1zm1 0h1v1h-1zm1 0h1v1h-1zm1 0h3v3h-3zm3 0h1v1h-1zm1 0h1v1h-1zm1 0h1v1h-1zm1 0h1v1h-1zm1 0h7v1h-7zm7 0h1v4h-1zm1 0h1v1h-1zm3 0h1v1h-1zm1 0h1v1h-1z"/><path d="M51 102h2v1h-2zm2 0h1v1h-1zm1 0h1v1h-1zm1 0h1v1h-1zm12 0h1v1h-1zm1 0h3v1h-3zm3 0h1v2h-1zm1 0h1v1h-1zm1 0h1v1h-1zm7 0h1v1h-1zm2 0h7v1h-7zm7 0h1v1h-1zm1 0h1v1h-1zm1 0h1v1h-1zm1 0h1v1h-1zm92 0h1v1h-1zm1 0h2v1h-2zm2 0h1v1h-1zm1 0h1v1h-1zm147 0h1v1h-1zm1 0h3v1h-3zm3 0h1v1h-1zm1 0h1v1h-1zm42 0h2v1h-2zm2 0h1v1h-1zm1 0h1v1h-1zm-363 1h1v1h-1zm1 0h1v1h-1zm1 0h2v1h-2zm2 0h1v1h-1zm1 0h1v1h-1zm1 0h1v2h-1zm2 0h1v1h-1zm4 0h1v1h-1zm1 0h1v1h-1zm1 0h1v1h-1zm1 0h3v2h-3zm4 0h1v1h-1zm1 0h1v1h-1zm4 0h1v4h-1zm1 0h1v1h-1zm3 0h1v1h-1zm1 0h1v1h-1zm1 0h2v1h-2zm2 0h1v1h-1zm1 0h1v1h-1zm1 0h1v1h-1zm11 0h1v1h-1zm1 0h1v1h-1z"/><path d="M69 103h4v1h-4zm4 0h1v4h-1zm1 0h1v1h-1zm1 0h1v1h-1zm1 0h1v1h-1zm1 0h1v1h-1zm1 0h1v1h-1zm1 0h1v1h-1zm1 0h7v1h-7zm7 0h1v1h-1zm1 0h1v1h-1zm1 0h1v1h-1zm-67 1h1v1h-1zm1 0h2v11h-2zm2 0h1v1h-1zm1 0h1v1h-1zm3 0h1v1h-1zm1 0h3v2h-3zm4 0h1v1h-1zm1 0h1v1h-1zm1 0h4v1h-4zm5 0h1v1h-1zm1 0h1v1h-1zm1 0h3v1h-3zm4 0h1v1h-1zm1 0h1v1h-1zm4 0h1v1h-1zm1 0h1v1h-1zm1 0h1v1h-1zm1 0h1v1h-1zm1 0h1v1h-1zm1 0h1v1h-1zm11 0h1v1h-1zm1 0h1v1h-1z"/><path d="M70 104h15v1H70zm15 0h1v1h-1zm1 0h1v1h-1zm1 0h1v1h-1zm-66 1h1v1h-1zm1 0h2v8h-2zm3 0h1v2h-1zm3 0h1v1h-1zm1 0h1v1h-1zm4 0h1v1h-1zm1 0h1v1h-1zm1 0h1v1h-1zm1 0h4v1h-4zm5 0h1v1h-1zm2 0h1v1h-1zm1 0h3v1h-3zm3 0h1v2h-1zm1 0h1v1h-1zm1 0h1v1h-1zm4 0h1v1h-1zm1 0h1v1h-1zm1 0h1v1h-1zm1 0h1v1h-1zm1 0h1v1h-1zm13 0h1v1h-1zm1 0h1v1h-1zm1 0h11v1H72zm11 0h1v1h-1zm1 0h1v1h-1zm1 0h1v1h-1zm-65 1h1v1h-1zm1 0h1v1h-1zm7 0h1v1h-1zm1 0h3v1h-3zm3 0h1v1h-1zm1 0h1v1h-1zm2 0h1v1h-1zm1 0h1v3h-1zm1 0h4v1h-4zm4 0h1v5h-1zm1 0h1v1h-1zm2 0h1v1h-1z"/><path d="M45 106h3v1h-3zm3 0h1v2h-1zm1 0h1v1h-1zm1 0h1v1h-1zm4 0h1v1h-1zm1 0h1v1h-1zm15 0h1v1h-1zm1 0h10v1H71zm10 0h1v1h-1zm1 0h1v1h-1zm1 0h1v1h-1zm-63 1h1v1h-1zm1 0h3v4h-3zm4 0h1v1h-1zm2 0h1v1h-1zm1 0h3v8h-3zm3 0h1v1h-1zm1 0h1v1h-1zm3 0h2v2h-2zm2 0h4v1h-4zm5 0h1v1h-1zm1 0h1v1h-1zm2 0h1v1h-1z"/><path d="M46 107h4v1h-4zm4 0h1v2h-1zm1 0h1v1h-1zm1 0h1v1h-1zm15 0h1v1h-1zm1 0h1v1h-1zm1 0h1v1h-1zm1 0h8v1h-8zm8 0h1v1h-1zm1 0h1v1h-1zm1 0h1v1h-1zm1 0h1v1h-1zm-61 1h1v1h-1zm5 0h1v8h-1zm2 0h1v1h-1zm4 0h1v1h-1zm1 0h1v1h-1zm2 0h1v2h-1zm3 0h1v1h-1zm1 0h1v1h-1zm1 0h3v2h-3zm3 0h1v7h-1zm1 0h1v1h-1zm1 0h1v1h-1zm2 0h1v1h-1zm1 0h1v1h-1z"/><path d="M48 108h5v1h-5zm5 0h1v5h-1zm1 0h1v1h-1zm9 0h1v1h-1zm1 0h1v1h-1zm1 0h1v1h-1zm1 0h1v1h-1zm1 0h5v1h-5zm5 0h1v1h-1zm1 0h1v1h-1zm1 0h2v1h-2zm2 0h1v1h-1zm1 0h1v1h-1zm1 0h1v1h-1zm-59 1h1v1h-1zm1 0h5v2h-5zm6 0h1v1h-1zm1 0h3v6h-3zm4 0h1v1h-1zm2 0h1v1h-1zm2 0h1v1h-1zm1 0h1v1h-1zm1 0h1v1h-1zm1 0h1v1h-1zm5 0h1v6h-1zm1 0h1v6h-1zm1 0h1v1h-1zm2 0h1v1h-1zm1 0h1v1h-1zm1 0h4v1h-4zm5 0h1v1h-1zm2 0h1v1h-1zm1 0h1v1h-1zm1 0h2v1h-2zm2 0h1v1h-1zm1 0h9v1h-9zm9 0h1v1h-1zm1 0h1v1h-1zm1 0h1v1h-1zm-53 1h1v1h-1zm7 0h1v1h-1zm5 0h1v1h-1zm3 0h1v1h-1zm1 0h1v1h-1zm1 0h1v1h-1zm1 0h1v1h-1zm1 0h1v1h-1z"/><path d="M39 110h6v1h-6zm6 0h1v5h-1zm1 0h1v1h-1zm3 0h1v1h-1zm1 0h1v1h-1zm1 0h2v4h-2zm3 0h1v1h-1zm1 0h1v1h-1zm1 0h11v1H56zm11 0h1v1h-1zm1 0h1v1h-1zm1 0h1v1h-1zm1 0h1v1h-1zm-51 1h1v1h-1zm1 0h10v1H20zm11 0h1v1h-1zm1 0h1v1h-1zm1 0h1v1h-1zm1 0h1v1h-1zm4 0h1v1h-1zm1 0h1v1h-1zm1 0h5v4h-5zm6 0h1v1h-1zm8 0h10v1H54zm10 0h1v1h-1zm1 0h1v1h-1zm1 0h1v1h-1zm1 0h1v1h-1zm-49 1h1v1h-1zm1 0h1v1h-1zm1 0h1v1h-1zm1 0h1v1h-1zm5 0h8v2h-8zm8 0h1v4h-1zm1 0h1v1h-1zm1 0h1v1h-1zm1 0h3v1h-3zm9 0h1v3h-1zm1 0h1v1h-1zm1 0h1v1h-1zm1 0h1v1h-1zm1 0h1v1h-1zm4 0h7v1h-7zm7 0h1v1h-1zm1 0h1v1h-1zm1 0h1v1h-1zm1 0h1v1h-1zm-43 1h1v1h-1z"/><path d="M22 113h35v1H22zm35 0h1v1h-1zm1 0h1v1h-1zm1 0h1v1h-1zm1 0h1v1h-1zm1 0h1v1h-1zm-39 1h1v1h-1zm4 0h26v1H26zm26 0h1v1h-1zm1 0h1v1h-1zm1 0h1v1h-1zm1 0h1v1h-1zm1 0h1v1h-1zm1 0h1v1h-1zm-35 1h1v1h-1zm1 0h2v1h-2zm3 0h1v1h-1zm1 0h19v1H27zm19 0h1v1h-1zm1 0h1v1h-1zm1 0h1v1h-1zm1 0h1v1h-1zm1 0h1v1h-1zm1 0h1v1h-1zm1 0h1v1h-1zm-29 1h1v1h-1zm1 0h1v1h-1zm1 0h1v1h-1zm1 0h1v1h-1zm1 0h1v1h-1zm1 0h1v1h-1zm1 0h10v1H29zm10 0h1v1h-1zm1 0h1v1h-1zm1 0h1v1h-1zm1 0h1v1h-1zm1 0h1v1h-1zm1 0h1v1h-1zm1 0h1v1h-1zm-21 1h1v1h-1zm1 0h1v1h-1zm4 0h1v1h-1zm1 0h1v1h-1zm1 0h2v1h-2zm2 0h1v1h-1zm1 0h1v1h-1zm1 0h1v1h-1zm1 0h1v1h-1zm1 0h1v1h-1z"/></g></svg>