<svg xmlns="http://www.w3.org/2000/svg" role="img" viewBox="471.89 295.64 64.09 20.59"><title>USEF logo</title><style>svg {enable-background:new 0 0 1008 612}</style><path d="M473.17 297.39h3.67V308c0 1.19.14 2.05.42 2.6.44.97 1.39 1.45 2.85 1.45 1.46 0 2.4-.48 2.84-1.45.28-.55.42-1.41.42-2.6v-10.61h3.67v10.62c0 1.84-.28 3.27-.85 4.29-1.06 1.88-3.08 2.81-6.07 2.81s-5.02-.94-6.08-2.81c-.57-1.02-.85-2.45-.85-4.29v-10.62zm19.93 11.94c.11.79.33 1.38.66 1.77.6.71 1.62 1.07 3.08 1.07.87 0 1.58-.09 2.12-.28 1.03-.36 1.54-1.03 1.54-2 0-.57-.25-1.01-.76-1.32-.5-.3-1.3-.57-2.4-.81l-1.87-.41c-1.84-.41-3.1-.85-3.79-1.32-1.16-.8-1.75-2.04-1.75-3.74 0-1.55.57-2.83 1.71-3.86 1.14-1.02 2.81-1.54 5.02-1.54 1.84 0 3.41.48 4.72 1.45 1.3.96 1.98 2.37 2.05 4.2h-3.47c-.06-1.04-.53-1.78-1.39-2.21-.58-.29-1.29-.43-2.15-.43-.95 0-1.71.19-2.28.56s-.85.9-.85 1.57c0 .62.28 1.08.84 1.38.36.2 1.13.44 2.29.71l3.03.71c1.33.31 2.32.73 2.99 1.25 1.03.81 1.54 1.99 1.54 3.53 0 1.58-.61 2.89-1.83 3.93-1.22 1.04-2.94 1.56-5.17 1.56-2.27 0-4.06-.51-5.37-1.54-1.3-1.03-1.95-2.44-1.95-4.24h3.44zm26.18-8.88h-9.14v3.67h8.39v3h-8.39v4.44h9.56v3.11h-13.09V297.4h12.67v3.05zm3.24-3.03h12.32v3.04h-8.73v3.97h7.65v3h-7.65v7.24h-3.59v-17.25z"/></svg>