<svg xmlns="http://www.w3.org/2000/svg" role="img" xmlns:xlink="http://www.w3.org/1999/xlink" viewBox="-1.29 -0.03 190.32 84.94"><title>Utilidata (member) logo</title><style>svg {enable-background:new 0 0 188 85}</style><defs><path id="SVGID_1_" d="M2.44 61.33C51.34 2.35 102.79 16.82 129.83 31.3c12.08 6.47 19.29 12.94 19.22 12.85-.03-.06 5.41-.98 5.41-.98S123.58 13.37 79.8 14.3c22.7-4.18 44.98 4.85 60.64 13.88 13 7.5 21.42 14.99 21.71 14.93.56-.13 5.85-1.14 5.85-1.14S128.05 4.79 85.32 9.26c36.2-8.77 74.39 20.65 75.71 21.59.04.03 5.4-1.07 5.64-1.11-24.1-19.05-46.73-26.11-67.04-26.11-58.07.01-97.19 57.7-97.19 57.7"/></defs><linearGradient id="SVGID_00000008855126950999698860000012174327059151625648_" x1="2.443" x2="167.986" y1="32.483" y2="32.483" gradientUnits="userSpaceOnUse"><stop offset="0" stop-color="#fff"/><stop offset="1"/></linearGradient><use fill="url(#SVGID_00000008855126950999698860000012174327059151625648_)" overflow="visible" xlink:href="#SVGID_1_"/><clipPath id="SVGID_00000093888457286793320490000014110199156500380295_"><use overflow="visible" xlink:href="#SVGID_1_"/></clipPath><linearGradient id="SVGID_00000026864683414028737540000006863784782249234597_" x1="2.443" x2="167.986" y1="30.913" y2="30.913" gradientUnits="userSpaceOnUse"><stop offset="0" stop-color="#7a9ec2"/><stop offset="1" stop-color="#004987"/></linearGradient><path fill="url(#SVGID_00000026864683414028737540000006863784782249234597_)" d="M2.44.49h165.54v60.84H2.44z" clip-path="url(#SVGID_00000093888457286793320490000014110199156500380295_)"/><path fill="#56585a" d="M62.71 52.46l-3.25 18.42c-.93 5.24-4.02 10.49-14.13 10.49-10.15 0-11.4-5.24-10.47-10.49l3.25-18.42h3.92L38.9 70.24c-.83 4.69.21 8.27 6.91 8.23l.03.04c6.7 0 8.99-3.58 9.82-8.27l3.13-17.78h3.92zm13.63 7.33l-.47 2.64h-5.76l-2.2 12.45c-.35 2-.13 3.62 2.22 3.62 1.11 0 2.18-.26 3.29-.51l-.93 2.86c-1.33.3-2.73.51-3.97.51-3.62 0-5.13-1.36-4.48-5.07l2.44-13.86h-2.64l.47-2.64h2.64l.68-3.84 3.76-.77-.81 4.61h5.76zm3.54 0h3.62l-3.72 21.1h-3.62l3.72-21.1zM81 52.46h3.92l-.5 2.86H80.5l.5-2.86zm9.85 0h3.62L89.46 80.9h-3.62zm8.38 7.33h3.62l-3.72 21.1h-3.62l3.72-21.1zm1.13-7.33h3.92l-.5 2.86h-3.92l.5-2.86zm21.02 24.39l-.07-.08c-1.81 2.98-4.65 4.6-8.4 4.6-5.37 0-8.62-4.05-7.51-10.36 1.25-7.08 6.79-11.68 14.43-11.68 1.58 0 3.06.3 4.57.43l1.28-7.29h3.62l-5.01 28.44h-3.62l.71-4.06zm2.52-14.29c-1.21-.38-2.5-.6-3.78-.6-7.12 0-10.33 4.69-11.12 9.17-.78 4.43 1.09 7.59 5.36 7.59 3.67 0 7.17-2.69 8.31-9.17l1.23-6.99zm22.03 6.1c-2.9 2.43-11.97 2.09-12.84 7.03-.47 2.69 2.08 3.45 4.25 3.45 1.49 0 3.04-.3 4.53-.77l-1.05 2.56c-1.41.26-2.85.43-4.89.43-4.43 0-7.15-1.75-6.4-6.01 1.44-8.19 16.12-5.12 17.12-10.79.45-2.56-2.49-3.03-4.5-3.03-2.69 0-5.39.6-8.16 1.79l.94-2.9c2.68-.68 5.31-1.11 8-1.11 6.27 0 7.9 2.13 7.31 5.46L147.4 80.9h-3.62l2.15-12.24zm19.64-8.87l-.47 2.64h-5.76l-2.19 12.45c-.35 2-.13 3.62 2.22 3.62 1.11 0 2.18-.26 3.29-.51l-.93 2.86c-1.33.3-2.73.51-3.97.51-3.62 0-5.13-1.36-4.48-5.07l2.44-13.86h-2.64l.47-2.64h2.64l.68-3.84 3.76-.77-.81 4.61h5.75zm15.41 8.87c-2.9 2.43-11.97 2.09-12.84 7.03-.47 2.69 2.08 3.45 4.25 3.45 1.49 0 3.04-.3 4.53-.77l-1.05 2.56c-1.41.26-2.85.43-4.89.43-4.43 0-7.15-1.75-6.4-6.01 1.44-8.19 16.12-5.12 17.12-10.79.45-2.56-2.49-3.03-4.5-3.03-2.69 0-5.39.6-8.16 1.79l.94-2.9c2.68-.68 5.31-1.11 8-1.11 6.27 0 7.9 2.13 7.31 5.46l-2.84 16.12h-3.62l2.15-12.23z"/></svg>