<svg xmlns="http://www.w3.org/2000/svg" role="img" viewBox="-5.09 -5.09 209.93 264.68"><title>Vanderbilt University logo</title><path d="M14.606 247.111c-.028 4.004-1.5 5.789-4.763 5.789-3.461 0-4.874-1.518-4.874-5.24 0-2.3.028-4.64.058-6.9l.05-4.841H2.958l-.052 4.949c-.027 2.242-.056 4.56-.056 6.846 0 4.836 2.091 6.99 6.783 6.99 4.793 0 6.958-2.386 7.014-7.744l.108-11.04h-2.041l-.108 11.191zm25.402-5.703c-.025 2.447-.055 4.977-.055 7.458 0 .825.022 1.65.05 2.472a53.274 53.274 0 0 0-1.729-2.702l-8.793-12.991-.157.049-1.987.597-.16 18.127h2.013l.005-.221c0-.084.102-8.593.102-12.832 0-.8-.01-1.574-.04-2.352a53.775 53.775 0 0 0 1.722 2.687c.002 0 8.793 12.988 8.793 12.988l2.144-.612.162-18.156H40.06l-.052 5.488zm13.019-5.488l-.16 18.498h2.12l.161-18.498h-2.121zm25.474-.125l-5.75 14.371a25.79 25.79 0 0 0-.546 1.521 25.975 25.975 0 0 0-.499-1.49l-5.59-14.595-2.099.66 7.093 18.156h1.975l7.464-18.149-1.97-.672-.078.198zm10.813.125l-.16 18.498h10.089v-1.884h-7.94c.003-.41.049-6.28.051-6.685h7.837v-1.885h-7.81c.003-.406.045-5.762.05-6.163h7.84v-1.881h-9.957zm47.499 1.516c1.48 0 2.536.263 3.892.968l.186.096 1.018-1.664-.21-.11c-1.482-.777-2.928-1.094-4.99-1.094-2.71 0-5.45 1.645-5.45 4.795 0 3.213 2.406 4.348 4.532 5.348 1.89.889 3.674 1.73 3.674 3.875 0 1.942-1.421 3.197-3.617 3.197-1.453 0-2.983-.387-4.093-1.038l-.187-.11-1.042 1.675.18.119c1.174.788 3.484 1.21 5.063 1.21 3.628 0 5.97-2.033 5.97-5.185 0-3.304-2.534-4.508-4.771-5.573-1.855-.883-3.459-1.643-3.459-3.389 0-1.836 1.36-3.12 3.304-3.12zm15.583-1.516l-.161 18.498h2.119l.162-18.498h-2.12zm11.85 0v1.91h5.695l-.132 16.588h2.123l.128-16.588h5.697v-1.91h-13.511zm28.691 6.101a82.06 82.06 0 0 0-1.325 1.938c-.248-.4-.712-1.137-1.128-1.75l-4.556-6.672-.176.093-1.686.873s6.374 9.338 6.45 9.452c0 .138-.08 8.463-.08 8.463h2.124l.075-8.667c.085-.113 6.699-9.248 6.699-9.248l-1.82-.912-4.577 6.43zm-76.117 3.719c2.294-.55 4.572-2.442 4.572-5.139 0-3.2-2.11-4.891-6.104-4.891-1.287 0-2.583.067-3.836.13l-1.218.062-.004.211-.158 18.305h2.12l.077-8.243 1.132-.005.028.002-.008.002c.866-.008 1.605.298 2.036.84.343.454 5.397 7.476 5.45 7.545l.105.15 1.96-.896-5.15-7.111a3.547 3.547 0 0 0-1.002-.962zm2.37-4.957c0 2.542-2.204 3.542-4.095 3.626l-1.333.01h-1.475c.002-.412.06-6.45.062-6.835a59.02 59.02 0 0 1 2.966-.093c2.574 0 3.875 1.11 3.875 3.292zm-1.369 5.919h.002-.002zm-98.907-45.168c-.386 0-.808.025-1.21.053l-.092.004c-.39.02-.797.047-1.168.047-.575 0-1.113-.031-1.633-.055-.016-.003-.098-.005-.098-.005l-1.283-.044h-.216v1.219h.658c1.2 0 1.442.243 1.442.636 0 .25-.055.687-.319 1.375l-4.082 10.35c-.308-.789-4.36-11.103-4.36-11.103-.136-.352-.218-.676-.218-.749 0-.248.397-.509 1.13-.509h.818v-1.219h-.221l-1.457.043-.035.001c-.772.026-1.644.06-2.35.06-.68 0-1.407-.031-1.993-.051l-.052-.003a50.501 50.501 0 0 0-1.954-.05H0v1.219h.481c1.057 0 1.516.201 1.975 1.341l6.752 16.397h1.247l.06-.13a597.84 597.84 0 0 0 2.175-5.26l.503-1.223c1.342-3.269 4.135-10.07 4.276-10.328.368-.74.755-.797 1.186-.797h.48v-1.219h-.221zm4.392 16.656c0-.268.127-.635.286-1.102l.01-.026.269-.834s.62-2.016.78-2.541h5.575l.963 2.861c.268.775.507 1.496.507 1.8 0 .525-.963.566-1.257.566h-.507v1.193l.823-.031c1.072-.041 2.089-.083 3.16-.083 1.24 0 2.416.055 3.555.104l.252.013v-1.23h-.375c-.79 0-1.245-.27-1.512-.904-.28-.646-.545-1.421-.8-2.173l-.157-.46c0-.005-4.672-13.153-4.672-13.153s.003.009.004.019c-.015-.05-.068-.185-.247-.657-.071-.204-.213-.19-.362-.175l-.06.004-.087.01-.231.017-.674.052-.038.001a12.55 12.55 0 0 1-1.23-.002l-.179-.008-.045.173c-.158.611-.522 1.605-.845 2.481l-.14.386-.336.925-4.154 11.925c-.346.966-1.113 1.54-2.055 1.54h-.373v1.23l.247-.014c.912-.049 1.85-.104 2.777-.104 1.034 0 2.119.057 3.075.103l.057.001.23.018v-1.201h-.503c-.52 0-1.73-.07-1.73-.723zm1.981-6.4l2.136-6.5a10713.9 10713.9 0 0 1 2.114 6.5h-4.25zm34.779-10.196c-.481.018-1.027.044-1.568.044-.624 0-1.253-.03-1.809-.051l-.045-.003a41.356 41.356 0 0 0-1.785-.05h-.217v1.219h.79c.738 0 1.977.285 1.977 2.22 0 .086.05 7.353.06 9.27-.58-.656-11.284-12.709-11.284-12.709h-.098c-.408 0-.812.024-1.167.044-.353.02-.75.043-1.145.043-.499 0-.983-.023-1.409-.043-.428-.02-.915-.044-1.431-.044h-.223l.024 1.122.542.032c.499 0 .991.21 1.355.577.41.403.637.974.637 1.603l-.08 10.934c0 1.972-.321 3.112-1.956 3.112l-.583.023v1.16h.22c.583 0 1.156-.023 1.714-.049h.021a34.459 34.459 0 0 1 1.714-.055c.573 0 1.177.03 1.667.055l.031.002a37.6 37.6 0 0 0 1.653.047h.221v-1.216h-.664c-1.671-.01-2.156-.641-2.156-2.819l-.06-10.12c1.992 2.218 12.877 14.354 12.997 14.488l.051.06h1.344l-.043-.253c-.133-.832-.15-1.777-.15-2.59l.07-11.816c0-3.078 1.142-3.078 1.974-3.078l.608-.029v-1.174h-.218c-.556 0-1.125.025-1.579.044zm22.486 2.465c-1.865-1.653-4.527-2.525-7.698-2.525l-1.596.041-.305.012c-.681.021-1.455.051-2.279.051-.932 0-1.897-.035-2.674-.061l-.127-.007-.358-.01-.997-.026H66.3v1.219h.583c1.078 0 1.701.205 1.701 1.26v13.606c0 1.181-.71 1.278-1.573 1.278l-.58.028v1.172h.214l1.185-.03c.743-.029 1.86-.074 2.975-.074 1.775 0 3.6.057 4.715.104a9.194 9.194 0 0 0 6.918-2.514 9.408 9.408 0 0 0 2.948-6.818c0-2.746-.98-5.065-2.834-6.706zm-1.242 7.198c0 1.989-.584 3.79-1.642 5.073-1.157 1.397-2.828 2.136-4.839 2.136-1.764 0-2.483-.166-2.483-1.833v-13.42l.207-.021.073-.01c.419-.038.846-.078 1.267-.078 2.34 0 4.05.511 5.232 1.562 1.47 1.308 2.185 3.466 2.185 6.591zm22.24 4.327c-.371 1.423-.78 2.105-1.452 2.444-.69.343-1.683.343-3.192.343h-.06c-1.83 0-2.947-.07-2.947-1.466v-5.687h2.977c1.566 0 1.695.644 1.855 2.226l.005.047.019.198 1.15-.245v-.178a51.366 51.366 0 0 1-.082-2.814c0-.992.026-1.698.079-2.732l.014-.238-1.105.023-.016.197c-.152 1.376-.588 1.776-1.946 1.776H95.9v-6.215h3.389c2.589 0 2.777.855 2.903 2.494l.016.262 1.143-.304-.006-.177c-.066-1-.006-2.309.042-3.36l.028-.654-.192.009-.043.001-2.757.043-.26.006c-1.225.024-2.491.055-3.625.055-1.137 0-2.448-.031-3.6-.054l-.128-.004a115.759 115.759 0 0 0-2.74-.046h-.222v1.219h.585c1.08 0 1.703.205 1.703 1.26v13.606c0 1.11-.558 1.328-1.524 1.328h-.585v1.15h.222l2.64-.041.45-.011c1.164-.022 2.485-.052 3.638-.052 1.167 0 2.495.03 3.67.054l.305.006 2.868.044h.2l.017-.193.214-1.422c.12-.878.236-1.709.455-2.597l.008-.037.047-.174-1.148-.29-.061.2zm39.078-5.632c1.81-.542 3.596-1.687 3.596-4.122 0-1.29-.473-2.32-1.405-3.058-1.043-.822-2.633-1.238-4.734-1.238l-1.737.043-.145.006c-.739.024-1.502.055-2.272.055-.754 0-1.5-.031-2.224-.055l-.154-.006-1.674-.043h-.22v1.219h.583c1.076 0 1.703.205 1.703 1.26v13.606c0 1.056-.627 1.262-1.703 1.262h-.583v1.216h.22l1.753-.037.235-.008c.827-.026 1.765-.059 2.612-.059.842 0 1.698.03 2.503.06.753.026 1.428.044 2.038.044 1.685 0 3.272-.555 4.475-1.568 1.208-1.018 1.874-2.364 1.874-3.79 0-1.258-.462-2.373-1.338-3.224-.835-.812-2.064-1.365-3.403-1.563zm-3.85-.537l-1.069-.029v-6.331h1.336c1.613 0 3.26.388 3.26 3.27 0 2.08-1.153 3.09-3.527 3.09zm4.675 5.427c0 2.156-1.527 3.722-3.626 3.722-1.842 0-2.118-.261-2.118-1.99v-5.665c.286.007 1.438.025 1.438.025 1.296 0 2.363.323 3.098.934.8.668 1.208 1.67 1.208 2.974zm17.241-13.308c-.622 0-1.31.025-1.958.053l-.16.004c-.64.02-1.304.047-1.907.047-.661 0-1.39-.03-2.092-.055l-.176-.006-1.578-.043h-.221v1.219h.584c1.078 0 1.702.205 1.702 1.26v13.606c0 1.056-.624 1.262-1.702 1.262h-.584v1.216h.22c.48 0 1.055-.018 1.706-.045.7-.029 1.437-.059 2.113-.059.603 0 1.27.025 1.913.05l.182.007c.665.024 1.35.047 1.958.047h.217v-1.216h-.579c-1.078 0-1.702-.206-1.702-1.262v-13.605c0-1.056.624-1.261 1.702-1.261h.58v-1.219h-.218zm19.829 13.973c-.156.571-.322 1.009-.704 1.538-.474.657-1.324 1.115-2.277 1.229a15.49 15.49 0 0 1-3.078.053c-.959-.121-1.355-.48-1.355-1.232v-13.16c0-1.182.582-1.182 1.547-1.182h.87v-1.219h-.224c-.646 0-1.304.025-1.936.05l-.042.003c-.573.02-1.287.051-1.967.051-.706 0-1.415-.03-2.043-.051l-.045-.003a52.885 52.885 0 0 0-2.015-.05h-.218v1.219h.581c1.095 0 1.73.205 1.73 1.26v13.348c0 1.404-.818 1.52-1.73 1.52h-.581v1.216h.218c1.126 0 2.269-.023 3.373-.047l.06-.002c1-.025 2.241-.055 3.424-.055 1.176 0 2.336.03 3.269.055l.043.002c1.035.024 2.106.047 3.236.047h.18l.033-.174c.213-.993.384-1.922.55-2.818l.335-1.762h-1.193l-.041.164zm-55.036 1.931c-.023-.034-.84-1.145-1.989-2.71l-1.342-1.828c-.565-.74-1.055-1.225-1.466-1.449 1.79-.803 3.715-2.536 3.715-5.046 0-1.778-.66-3.088-1.966-3.897-1.047-.647-2.54-.974-4.433-.974-.672 0-1.302.024-1.97.049-.648.024-1.387.055-2.211.055-.914 0-1.854-.037-2.612-.066l-.264-.01-1.15-.028h-.22v1.219h.687c.887 0 1.623.132 1.623 1.752V217.7c0 1.126-1.156 1.213-1.511 1.213l-.687.02v1.163h.22c.649 0 1.258-.023 1.848-.047l.027-.002c.538-.025 1.148-.055 1.777-.055.764 0 1.574.03 2.226.055l.029.002c.73.024 1.48.047 2.212.047h.222v-1.216h-.69c-1.181 0-1.907-.09-1.907-1.856v-4.96l.138.003 1.043.025c.354.024.655.117.917.503a102.793 102.793 0 0 0 4.287 6.057c1.047 1.426 2.377 1.426 3.35 1.426l2.931.005v-1.187h-.217c-1.357-.069-1.796-.222-2.617-1.459zm-5.001-10.876c0 1.381-.337 2.416-1 3.07-.62.611-1.538.918-2.738.908a651.46 651.46 0 0 0-1.093-.084v-7.302c.065-.008.134-.014.134-.014a8.21 8.21 0 0 1 1.126-.069c2.2 0 3.57 1.338 3.57 3.491zm79.235-5.098l-.552.042-.084.005-1.156.023h-12.476c-.66 0-1.067-.033-1.46-.063l-.064-.002a333.082 333.082 0 0 0-.96-.09v.296c0 .562-.026.85-.1 1.504l-.016.16-.268 2.127-.039.253h1.232l.033-.186c.382-1.849.44-2.134 2.214-2.15h3.495v13.536c0 1.881-.594 1.962-1.934 1.962h-.718v1.216h.219l1.752-.042.276-.008c.748-.024 1.599-.054 2.36-.054.697 0 1.519.03 2.249.054l.19.006 1.797.044h.22v-1.216h-.714c-1.133 0-1.933-.147-1.933-2.016v-13.481h3.604c1.613.015 1.694 1.439 1.736 2.203l.007.278 1.2-.297v-.173l.03-1.9.003-.166c.02-.51.052-1.085.105-1.625l.031-.264-.279.024zM110.69.058c0 2.681 0 9.32.007 10.599.768.008 2.95-.004 4.16-.004 4.134-.016 9.974-.016 12.271 2.248 4.473 4.759-1.357 9.1-6.72 16.35-8.452 11.24-3.211 18.592 2.364 14.645 3.23-2.366 10.194-7.549 13.598-9.273 7.086-3.369 11.634 5.616 4.252 15.365-2.914 4.003-8.515 9.046-12.12 14.385-4.442 6.425-2.366 15.05 6.21 8.64 9.888-7.439 13.386 4.088 2.941 14.929-9.585 10.285-15.412 17.7-12.6 26.659 1.046 3.262 2.288 6.847 3.375 9.977.144.348.375.566.375.566l-.243.412s-.225-.12-.896-.13h-5.996c-.33-.893-3.475-9.402-6.843-18.534-1.062-2.715-2.412-4.644-8.984-6.613-1.414-.42-2.597-.778-3.263-.974-1.112-.294-1.691-.134-2.492.417a2409.933 2409.933 0 0 0-4.228 3.12c-3.947 2.905-5.894 3.816-7.593 3.393-1.312-.365-1.988-1.354-1.954-3.038v-.458a41.199 41.199 0 0 0 4.41-9.867 41.158 41.158 0 0 0 1.725-10.654c.053-.073.167-.245.245-.36.895-1.43 1.999-1.888 3.29-1.47 1.66.58 2.788 2.407 4.492 7.002.3.813 1.117 3.02 1.775 4.794.404 1.055.822 1.53 2.154 1.93 1.143.335 3.279.982 5.576 1.667.236.066.437.292.515.36.077-.073.409-.409.409-.409s-.27-.245-.393-.564a3926.785 3926.785 0 0 1-4.316-11.723c-2.773-7.35-4.635-10.344-9.807-14.16-5.032-3.58-12.757-6.368-17.14-8.903-13.325-7.578-11.06-18.524-3.487-18.107 2.912.04 9.521 2.509 14.23 4.332 8.168 3.018 8.42-7.055-2.154-14.805-13.437-9.86-15.996-14.993-12.856-19.004 1.68-2.137 6.287-2.154 10.857-2.12.817-.01 3.119-.01 3.68 0 0-2.645.023-7.71.023-10.629L.977 0 .968 10.653c2.2-.03 3.95.056 6.553.261 7.427.654 13.024 4.252 18.921 19.409 5.176 13.595 47.736 121.41 52.102 132.897 1.185-.026 43.14 0 43.14 0 3.72-9.5 45.286-116.265 52.036-133.34 6.026-15.238 12.459-18.213 19.62-18.794 1.7-.138 3.81-.22 5.584-.205V.098l-88.235-.04zM78.98 99.902c-5.64-2.02-7.79-3.768-8.454-9.614-.174-1.464-.216-3.499-.216-3.499s1.153-1.676 2.105-2.804c3.757-4.521 6.511-4.803 12.338-3.393.657.147 3.101.68 5.056 1.104a38.67 38.67 0 0 1-1.628 10.415 38.747 38.747 0 0 1-4.373 9.638c-1.87-.715-4.194-1.61-4.828-1.847z"/></svg>