<svg xmlns="http://www.w3.org/2000/svg" role="img" viewBox="-4.11 -4.11 213.72 115.47"><title>Venehsoftw logo</title><g transform="translate(-9.287 -40.125)"><path fill="#f6db68" d="M128.19495 144.5l.037-3 .46099 1.76903.46099 1.76903-.49804 1.23097-.49805 1.23097zm7.12971 1.84201l.65799-.65799-1.24133-1.50463-1.24132-1.50463 1.5.49548 1.5.49549.32332 1.66714.32333 1.66713h-2.47998zm2.87029-1.84201l.037-3 .46099 1.76903.46099 1.76903-.49804 1.23097-.49805 1.23097zm8.06179 1.5l.40899-1.5 1.66714-.32332L150 143.85335l-.0153 1.82333-.0153 1.82332-.98468-1.5-.98469-1.5-1.07613 1.5-1.07613 1.5zm7.07909-.56722l-.6014-1.56721.88279-.88279L154.5 142.1v4.9h-.56277zm10.09274-.26611v-1.83334h2.4634l-.98117 1.83334L163.92963 147h-.50106zM168.15789 145v-2.5l.50439 1.25.50439 1.25-.50439 1.25-.50439 1.25zm1.95811.97224l-.116-1.52776 2-1.71245 2-1.71246-.116 3.24022-.116 3.24021-.45733-1.75-.45732-1.75h-1.7067l-.45732 1.75-.45733 1.75zM141 144l-1.5-.96937 1.75-.0153L143 143v2l-.25-.0153-.25-.0153zM16.2107 132.75389l-1.1181-1.34723-2.90292-8.20333L9.28675 115H14.83694l2.23167 6.70616 2.23166 6.70615 1.99886-6.70615L23.29798 115h5.65949l-3.33173 9.25-3.33174 9.25-2.4826.30056-2.4826.30056zm14.86188-1.38875L29 128.73028v-5.82119l2.45454-2.45454L33.9091 118H40l2 2 2 2v4.89548l-4.96974.30226-4.96975.30226.93923 1.5.93923 1.5 2.01695-1.25 2.01694-1.25H44v2l-2 2-2 2h-6.85484zM38.5 123l-.61803-1H35v2H39.11803zm7.91714 9.64467l-.52009-1.35532.30148-6.39468L46.5 118.5l2.25-.31955 2.25-.31955V120.4l1.2-1.2 1.2-1.2h4.45714l1.61613 1.61613 1.61614 1.61613-.2947 6.13387L60.5 133.5l-2.25.31955-2.25.31955v-11.20187l-1.60092-.61433-1.60093-.61433-.88376 1.39571-.88376 1.39572-.01531 4.75L51 134h-4.06277zM65 132l-2-2V122.07791l2.18856-2.03895L67.37712 118h6.47772l2.07258 2.63486L78 123.26972V127H68v2.06277l1.56722.6014 1.56721.6014 1.13279-1.13279L73.4 128H77v2.69002l-1.82874 1.65499L73.34252 134H67zm7-9v-1h-2.88197L68.5 123l-.61803 1H72zm8.70885 10.37552L80 132.66667V115h6v7h7v-7h5.07505l-.28752 9.25L97.5 133.5l-2.25.31955-2.25.31955V126h-6.87927l-.31036 3.75L85.5 133.5l-2.04115.29218-2.04115.29219zM100.75 131.75l-2.25-2.25 2.81047-.32226 2.81047-.32226 1.3505 1.12082 1.3505 1.12082.5953-.96321.59529-.96321-3.75626-1.83535L100.5 125.5l-.30322-2.12535-.30321-2.12536 1.62464-1.62464L103.14286 118h6.54716l1.65499 1.82874L113 121.65748V123H108.11803l-.62811-1.01631-.62812-1.01631-1.03208.63786-1.03209.63787 3.85119 2.15547 3.85118 2.15548.34497 2.41694.34497 2.41694-1.7861 1.30603L109.61774 134H103zm15.32258-.38486L114 128.73028v-5.46056l2.07258-2.63486L118.14516 118h6.94575l2.45454 2.45455L130 122.90909v6.18182l-2.45455 2.45454L125.09091 134h-6.94575zM124 126v-4h-3.86522l-.63478 2-.63478 2 .63478 2 .63478 2H124zm8.66667 7.33333L132 132.66667V122h-2v-3h1.56152l1.13238-3 1.13237-3H141v2.75606l-2.25 1.56952-2.25 1.56952 3.25.0525L143 119v-4h5V119.03629l4.17842-.26815 4.17842-.26814 1.2234 4.5 1.22341 4.5.0982-2.66821.0982-2.66822.60699-1.58178.60694-1.58179h5.74792l.48011 2.25.48012 2.25.36658 2 .36657 2 .95242-4.49209.95243-4.4921 1.82615-.35168 1.82616-.35169.89509.89509.8951.8951-2.34398 6.94868-2.34397 6.94869H164.5l-.31336-3.25-.31336-3.25h-1.74656l-.31336 3.25-.31336 3.25h-5.82972l-2.25706-6.5-2.25707-6.5-.0781 1.25L151 123h-3v7h3v4.12073l-3.75-.31036-3.75-.31037-.31421-4.98067-.31421-4.98067-1.18579-.75402-1.18579-.75401-1.75-.0153L137 122v12h-3.66667zm49.89637-25.23134l-.60528-.97936 3.66034-14.81131L189.27845 77.5l.87798-.9672.87798-.96721L203 87.5l11.96559 11.93441-.7328.69324-.73279.69324-13.5 3.65151-13.5 3.65152-1.66584.47872-1.66585.47871zM159.0309 90.42043l-12.46909-3.3746-1.47304-.56526-1.47304-.56526 11.9304-11.96157 11.93041-11.96156.936.312.93601.312 3.8149 14.44191L176.97835 91.5l.0108 1.25L177 94l-2.75-.10248-2.75-.10248zM178 57.67565V41.11803l.80371-.49671.80371-.49672 13.67273 7.6877L206.95288 55.5l.002 1.5.002 1.5-12.42311 7.3291-12.42311 7.3291-2.05554.53753L178 74.23326z"/><path fill="#7be5d6" d="M128.19495 144.5l.037-3 .46099 1.76903.46099 1.76903-.49804 1.23097-.49805 1.23097zm7.12971 1.84201l.65799-.65799-1.24133-1.50463-1.24132-1.50463 1.5.49548 1.5.49549.32332 1.66714.32333 1.66713h-2.47998zm2.87029-1.84201l.037-3 .46099 1.76903.46099 1.76903-.49804 1.23097-.49805 1.23097zm8.06179 1.5l.40899-1.5 1.66714-.32332L150 143.85335l-.0153 1.82333-.0153 1.82332-.98468-1.5-.98469-1.5-1.07613 1.5-1.07613 1.5zm7.07909-.56722l-.6014-1.56721.88279-.88279L154.5 142.1v4.9h-.56277zm10.09274-.26611v-1.83334h2.4634l-.98117 1.83334L163.92963 147h-.50106zM168.15789 145v-2.5l.50439 1.25.50439 1.25-.50439 1.25-.50439 1.25zm1.95811.97224l-.116-1.52776 2-1.71245 2-1.71246-.116 3.24022-.116 3.24021-.45733-1.75-.45732-1.75h-1.7067l-.45732 1.75-.45733 1.75zM141 144l-1.5-.96937 1.75-.0153L143 143v2l-.25-.0153-.25-.0153zM16.2107 132.75389l-1.1181-1.34723-2.90292-8.20333L9.28675 115H14.83694l2.23167 6.70616 2.23166 6.70615 1.99886-6.70615L23.29798 115h5.65949l-3.33173 9.25-3.33174 9.25-2.4826.30056-2.4826.30056zm14.86188-1.38875L29 128.73028v-5.82119l2.45454-2.45454L33.9091 118H40l2 2 2 2v4.89548l-4.96974.30226-4.96975.30226.93923 1.5.93923 1.5 2.01695-1.25 2.01694-1.25H44v2l-2 2-2 2h-6.85484zM38.5 123l-.61803-1H35v2H39.11803zm7.91714 9.64467l-.52009-1.35532.30148-6.39468L46.5 118.5l2.25-.31955 2.25-.31955V120.4l1.2-1.2 1.2-1.2h4.45714l1.61613 1.61613 1.61614 1.61613-.2947 6.13387L60.5 133.5l-2.25.31955-2.25.31955v-11.20187l-1.60092-.61433-1.60093-.61433-.88376 1.39571-.88376 1.39572-.01531 4.75L51 134h-4.06277zM65 132l-2-2V122.07791l2.18856-2.03895L67.37712 118h6.47772l2.07258 2.63486L78 123.26972V127H68v2.06277l1.56722.6014 1.56721.6014 1.13279-1.13279L73.4 128H77v2.69002l-1.82874 1.65499L73.34252 134H67zm7-9v-1h-2.88197L68.5 123l-.61803 1H72zm8.70885 10.37552L80 132.66667V115h6v7h7v-7h5.07505l-.28752 9.25L97.5 133.5l-2.25.31955-2.25.31955V126h-6.87927l-.31036 3.75L85.5 133.5l-2.04115.29218-2.04115.29219zM100.75 131.75l-2.25-2.25 2.81047-.32226 2.81047-.32226 1.3505 1.12082 1.3505 1.12082.5953-.96321.59529-.96321-3.75626-1.83535L100.5 125.5l-.30322-2.12535-.30321-2.12536 1.62464-1.62464L103.14286 118h6.54716l1.65499 1.82874L113 121.65748V123H108.11803l-.62811-1.01631-.62812-1.01631-1.03208.63786-1.03209.63787 3.85119 2.15547 3.85118 2.15548.34497 2.41694.34497 2.41694-1.7861 1.30603L109.61774 134H103zm15.32258-.38486L114 128.73028v-5.46056l2.07258-2.63486L118.14516 118h6.94575l2.45454 2.45455L130 122.90909v6.18182l-2.45455 2.45454L125.09091 134h-6.94575zM124 126v-4h-3.86522l-.63478 2-.63478 2 .63478 2 .63478 2H124zm8.66667 7.33333L132 132.66667V122h-2v-3h1.56152l1.13238-3 1.13237-3H141v2.75606l-2.25 1.56952-2.25 1.56952 3.25.0525L143 119v-4h5V119.03629l4.17842-.26815 4.17842-.26814 1.2234 4.5 1.22341 4.5.0982-2.66821.0982-2.66822.60699-1.58178.60694-1.58179h5.74792l.48011 2.25.48012 2.25.36658 2 .36657 2 .95242-4.49209.95243-4.4921 1.82615-.35168 1.82616-.35169.89509.89509.8951.8951-2.34398 6.94868-2.34397 6.94869H164.5l-.31336-3.25-.31336-3.25h-1.74656l-.31336 3.25-.31336 3.25h-5.82972l-2.25706-6.5-2.25707-6.5-.0781 1.25L151 123h-3v7h3v4.12073l-3.75-.31036-3.75-.31037-.31421-4.98067-.31421-4.98067-1.18579-.75402-1.18579-.75401-1.75-.0153L137 122v12h-3.66667zm49.89637-25.23134l-.60528-.97936 3.66034-14.81131L189.27845 77.5l.87798-.9672.87798-.96721L203 87.5l11.96559 11.93441-.7328.69324-.73279.69324-13.5 3.65151-13.5 3.65152-1.66584.47872-1.66585.47871zM159.0309 90.42043l-12.46909-3.3746-1.47304-.56526-1.47304-.56526 11.9304-11.96157 11.93041-11.96156.936.312.93601.312 3.8149 14.44191L176.97835 91.5l.0108 1.25L177 94l-2.75-.10248-2.75-.10248z"/><path fill="#e584c2" d="M128.19495 144.5l.037-3 .46099 1.76903.46099 1.76903-.49804 1.23097-.49805 1.23097zm7.12971 1.84201l.65799-.65799-1.24133-1.50463-1.24132-1.50463 1.5.49548 1.5.49549.32332 1.66714.32333 1.66713h-2.47998zm2.87029-1.84201l.037-3 .46099 1.76903.46099 1.76903-.49804 1.23097-.49805 1.23097zm8.06179 1.5l.40899-1.5 1.66714-.32332L150 143.85335l-.0153 1.82333-.0153 1.82332-.98468-1.5-.98469-1.5-1.07613 1.5-1.07613 1.5zm7.07909-.56722l-.6014-1.56721.88279-.88279L154.5 142.1v4.9h-.56277zm10.09274-.26611v-1.83334h2.4634l-.98117 1.83334L163.92963 147h-.50106zM168.15789 145v-2.5l.50439 1.25.50439 1.25-.50439 1.25-.50439 1.25zm1.95811.97224l-.116-1.52776 2-1.71245 2-1.71246-.116 3.24022-.116 3.24021-.45733-1.75-.45732-1.75h-1.7067l-.45732 1.75-.45733 1.75zM141 144l-1.5-.96937 1.75-.0153L143 143v2l-.25-.0153-.25-.0153zM16.2107 132.75389l-1.1181-1.34723-2.90292-8.20333L9.28675 115H14.83694l2.23167 6.70616 2.23166 6.70615 1.99886-6.70615L23.29798 115h5.65949l-3.33173 9.25-3.33174 9.25-2.4826.30056-2.4826.30056zm14.86188-1.38875L29 128.73028v-5.82119l2.45454-2.45454L33.9091 118H40l2 2 2 2v4.89548l-4.96974.30226-4.96975.30226.93923 1.5.93923 1.5 2.01695-1.25 2.01694-1.25H44v2l-2 2-2 2h-6.85484zM38.5 123l-.61803-1H35v2H39.11803zm7.91714 9.64467l-.52009-1.35532.30148-6.39468L46.5 118.5l2.25-.31955 2.25-.31955V120.4l1.2-1.2 1.2-1.2h4.45714l1.61613 1.61613 1.61614 1.61613-.2947 6.13387L60.5 133.5l-2.25.31955-2.25.31955v-11.20187l-1.60092-.61433-1.60093-.61433-.88376 1.39571-.88376 1.39572-.01531 4.75L51 134h-4.06277zM65 132l-2-2V122.07791l2.18856-2.03895L67.37712 118h6.47772l2.07258 2.63486L78 123.26972V127H68v2.06277l1.56722.6014 1.56721.6014 1.13279-1.13279L73.4 128H77v2.69002l-1.82874 1.65499L73.34252 134H67zm7-9v-1h-2.88197L68.5 123l-.61803 1H72zm8.70885 10.37552L80 132.66667V115h6v7h7v-7h5.07505l-.28752 9.25L97.5 133.5l-2.25.31955-2.25.31955V126h-6.87927l-.31036 3.75L85.5 133.5l-2.04115.29218-2.04115.29219zM100.75 131.75l-2.25-2.25 2.81047-.32226 2.81047-.32226 1.3505 1.12082 1.3505 1.12082.5953-.96321.59529-.96321-3.75626-1.83535L100.5 125.5l-.30322-2.12535-.30321-2.12536 1.62464-1.62464L103.14286 118h6.54716l1.65499 1.82874L113 121.65748V123H108.11803l-.62811-1.01631-.62812-1.01631-1.03208.63786-1.03209.63787 3.85119 2.15547 3.85118 2.15548.34497 2.41694.34497 2.41694-1.7861 1.30603L109.61774 134H103zm15.32258-.38486L114 128.73028v-5.46056l2.07258-2.63486L118.14516 118h6.94575l2.45454 2.45455L130 122.90909v6.18182l-2.45455 2.45454L125.09091 134h-6.94575zM124 126v-4h-3.86522l-.63478 2-.63478 2 .63478 2 .63478 2H124zm8.66667 7.33333L132 132.66667V122h-2v-3h1.56152l1.13238-3 1.13237-3H141v2.75606l-2.25 1.56952-2.25 1.56952 3.25.0525L143 119v-4h5V119.03629l4.17842-.26815 4.17842-.26814 1.2234 4.5 1.22341 4.5.0982-2.66821.0982-2.66822.60699-1.58178.60694-1.58179h5.74792l.48011 2.25.48012 2.25.36658 2 .36657 2 .95242-4.49209.95243-4.4921 1.82615-.35168 1.82616-.35169.89509.89509.8951.8951-2.34398 6.94868-2.34397 6.94869H164.5l-.31336-3.25-.31336-3.25h-1.74656l-.31336 3.25-.31336 3.25h-5.82972l-2.25706-6.5-2.25707-6.5-.0781 1.25L151 123h-3v7h3v4.12073l-3.75-.31036-3.75-.31037-.31421-4.98067-.31421-4.98067-1.18579-.75402-1.18579-.75401-1.75-.0153L137 122v12h-3.66667zm49.89637-25.23134l-.60528-.97936 3.66034-14.81131L189.27845 77.5l.87798-.9672.87798-.96721L203 87.5l11.96559 11.93441-.7328.69324-.73279.69324-13.5 3.65151-13.5 3.65152-1.66584.47872-1.66585.47871z"/><path fill="#e47ec0" d="M128.19495 144.5l.037-3 .46099 1.76903.46099 1.76903-.49804 1.23097-.49805 1.23097zm7.12971 1.84201l.65799-.65799-1.24133-1.50463-1.24132-1.50463 1.5.49548 1.5.49549.32332 1.66714.32333 1.66713h-2.47998zm2.87029-1.84201l.037-3 .46099 1.76903.46099 1.76903-.49804 1.23097-.49805 1.23097zm8.06179 1.5l.40899-1.5 1.66714-.32332L150 143.85335l-.0153 1.82333-.0153 1.82332-.98468-1.5-.98469-1.5-1.07613 1.5-1.07613 1.5zm7.07909-.56722l-.6014-1.56721.88279-.88279L154.5 142.1v4.9h-.56277zm10.09274-.26611v-1.83334h2.4634l-.98117 1.83334L163.92963 147h-.50106zM168.15789 145v-2.5l.50439 1.25.50439 1.25-.50439 1.25-.50439 1.25zm1.95811.97224l-.116-1.52776 2-1.71245 2-1.71246-.116 3.24022-.116 3.24021-.45733-1.75-.45732-1.75h-1.7067l-.45732 1.75-.45733 1.75zM141 144l-1.5-.96937 1.75-.0153L143 143v2l-.25-.0153-.25-.0153zM16.2107 132.75389l-1.1181-1.34723-2.90292-8.20333L9.28675 115H14.83694l2.23167 6.70616 2.23166 6.70615 1.99886-6.70615L23.29798 115h5.65949l-3.33173 9.25-3.33174 9.25-2.4826.30056-2.4826.30056zm14.86188-1.38875L29 128.73028v-5.82119l2.45454-2.45454L33.9091 118H40l2 2 2 2v4.89548l-4.96974.30226-4.96975.30226.93923 1.5.93923 1.5 2.01695-1.25 2.01694-1.25H44v2l-2 2-2 2h-6.85484zM38.5 123l-.61803-1H35v2H39.11803zm7.91714 9.64467l-.52009-1.35532.30148-6.39468L46.5 118.5l2.25-.31955 2.25-.31955V120.4l1.2-1.2 1.2-1.2h4.45714l1.61613 1.61613 1.61614 1.61613-.2947 6.13387L60.5 133.5l-2.25.31955-2.25.31955v-11.20187l-1.60092-.61433-1.60093-.61433-.88376 1.39571-.88376 1.39572-.01531 4.75L51 134h-4.06277zM65 132l-2-2V122.07791l2.18856-2.03895L67.37712 118h6.47772l2.07258 2.63486L78 123.26972V127H68v2.06277l1.56722.6014 1.56721.6014 1.13279-1.13279L73.4 128H77v2.69002l-1.82874 1.65499L73.34252 134H67zm7-9v-1h-2.88197L68.5 123l-.61803 1H72zm8.70885 10.37552L80 132.66667V115h6v7h7v-7h5.07505l-.28752 9.25L97.5 133.5l-2.25.31955-2.25.31955V126h-6.87927l-.31036 3.75L85.5 133.5l-2.04115.29218-2.04115.29219zM100.75 131.75l-2.25-2.25 2.81047-.32226 2.81047-.32226 1.3505 1.12082 1.3505 1.12082.5953-.96321.59529-.96321-3.75626-1.83535L100.5 125.5l-.30322-2.12535-.30321-2.12536 1.62464-1.62464L103.14286 118h6.54716l1.65499 1.82874L113 121.65748V123H108.11803l-.62811-1.01631-.62812-1.01631-1.03208.63786-1.03209.63787 3.85119 2.15547 3.85118 2.15548.34497 2.41694.34497 2.41694-1.7861 1.30603L109.61774 134H103zm15.32258-.38486L114 128.73028v-5.46056l2.07258-2.63486L118.14516 118h6.94575l2.45454 2.45455L130 122.90909v6.18182l-2.45455 2.45454L125.09091 134h-6.94575zM124 126v-4h-3.86522l-.63478 2-.63478 2 .63478 2 .63478 2H124zm8.66667 7.33333L132 132.66667V122h-2v-3h1.56152l1.13238-3 1.13237-3H141v2.75606l-2.25 1.56952-2.25 1.56952 3.25.0525L143 119v-4h5V119.03629l4.17842-.26815 4.17842-.26814 1.2234 4.5 1.22341 4.5.0982-2.66821.0982-2.66822.60699-1.58178.60694-1.58179h5.74792l.48011 2.25.48012 2.25.36658 2 .36657 2 .95242-4.49209.95243-4.4921 1.82615-.35168 1.82616-.35169.89509.89509.8951.8951-2.34398 6.94868-2.34397 6.94869H164.5l-.31336-3.25-.31336-3.25h-1.74656l-.31336 3.25-.31336 3.25h-5.82972l-2.25706-6.5-2.25707-6.5-.0781 1.25L151 123h-3v7h3v4.12073l-3.75-.31036-3.75-.31037-.31421-4.98067-.31421-4.98067-1.18579-.75402-1.18579-.75401-1.75-.0153L137 122v12h-3.66667zM183.75 107.33772l1.25-.50439 1.25.50439 1.25.50439h-5zm-.67105-2.92105l.0789-1.91667.52522 1.3125.52522 1.3125-.60416.60417-.60413.60416zm12.73355-.0998l1.3125-.52522.60417.60416.60416.60417-1.91666-.079-1.91667-.0789zm4-1l1.3125-.52522.60417.60416.60416.60417-1.91666-.079-1.91667-.0789zm-15.73355-2.90022l.0789-1.91667.52522 1.3125.52522 1.3125-.60416.60417-.60413.60418zM210 100.61663v-.38337l2.00138-.52337 2.00138-.52337-.5604.90674-.56039.90674H210zm-24.92105-4.19996l.0789-1.91667.52522 1.3125.52522 1.3125-.60416.60417-.60413.60416zm3-12l.0789-1.91667.52522 1.3125.52522 1.3125-.60416.60417-.60413.60416zm1-4l.0789-1.91667.52522 1.3125.52522 1.3125-.60416.60417-.60413.60416zm1.53414-3.59965l.52511-.84964.9309.57533.9309.57532v.54864h-2.91202z"/><path fill="#a4a4a4" d="M128.19495 144.5l.037-3 .46099 1.76903.46099 1.76903-.49804 1.23097-.49805 1.23097zm7.12971 1.84201l.65799-.65799-1.24133-1.50463-1.24132-1.50463 1.5.49548 1.5.49549.32332 1.66714.32333 1.66713h-2.47998zm2.87029-1.84201l.037-3 .46099 1.76903.46099 1.76903-.49804 1.23097-.49805 1.23097zm8.06179 1.5l.40899-1.5 1.66714-.32332L150 143.85335l-.0153 1.82333-.0153 1.82332-.98468-1.5-.98469-1.5-1.07613 1.5-1.07613 1.5zm7.07909-.56722l-.6014-1.56721.88279-.88279L154.5 142.1v4.9h-.56277zm10.09274-.26611v-1.83334h2.4634l-.98117 1.83334L163.92963 147h-.50106zM168.15789 145v-2.5l.50439 1.25.50439 1.25-.50439 1.25-.50439 1.25zm1.95811.97224l-.116-1.52776 2-1.71245 2-1.71246-.116 3.24022-.116 3.24021-.45733-1.75-.45732-1.75h-1.7067l-.45732 1.75-.45733 1.75zM141 144l-1.5-.96937 1.75-.0153L143 143v2l-.25-.0153-.25-.0153zM16.2107 132.75389l-1.1181-1.34723-2.90292-8.20333L9.28675 115H14.83694l2.23167 6.70616 2.23166 6.70615 1.99886-6.70615L23.29798 115h5.65949l-3.33173 9.25-3.33174 9.25-2.4826.30056-2.4826.30056zm14.86188-1.38875L29 128.73028v-5.82119l2.45454-2.45454L33.9091 118H40l2 2 2 2v4.89548l-4.96974.30226-4.96975.30226.93923 1.5.93923 1.5 2.01695-1.25 2.01694-1.25H44v2l-2 2-2 2h-6.85484zM38.5 123l-.61803-1H35v2H39.11803zm7.91714 9.64467l-.52009-1.35532.30148-6.39468L46.5 118.5l2.25-.31955 2.25-.31955V120.4l1.2-1.2 1.2-1.2h4.45714l1.61613 1.61613 1.61614 1.61613-.2947 6.13387L60.5 133.5l-2.25.31955-2.25.31955v-11.20187l-1.60092-.61433-1.60093-.61433-.88376 1.39571-.88376 1.39572-.01531 4.75L51 134h-4.06277zM65 132l-2-2V122.07791l2.18856-2.03895L67.37712 118h6.47772l2.07258 2.63486L78 123.26972V127H68v2.06277l1.56722.6014 1.56721.6014 1.13279-1.13279L73.4 128H77v2.69002l-1.82874 1.65499L73.34252 134H67zm7-9v-1h-2.88197L68.5 123l-.61803 1H72zm8.70885 10.37552L80 132.66667V115h6v7h7v-7h5.07505l-.28752 9.25L97.5 133.5l-2.25.31955-2.25.31955V126h-6.87927l-.31036 3.75L85.5 133.5l-2.04115.29218-2.04115.29219zM100.75 131.75l-2.25-2.25 2.81047-.32226 2.81047-.32226 1.3505 1.12082 1.3505 1.12082.5953-.96321.59529-.96321-3.75626-1.83535L100.5 125.5l-.30322-2.12535-.30321-2.12536 1.62464-1.62464L103.14286 118h6.54716l1.65499 1.82874L113 121.65748V123H108.11803l-.62811-1.01631-.62812-1.01631-1.03208.63786-1.03209.63787 3.85119 2.15547 3.85118 2.15548.34497 2.41694.34497 2.41694-1.7861 1.30603L109.61774 134H103zm15.32258-.38486L114 128.73028v-5.46056l2.07258-2.63486L118.14516 118h6.94575l2.45454 2.45455L130 122.90909v6.18182l-2.45455 2.45454L125.09091 134h-6.94575zM124 126v-4h-3.86522l-.63478 2-.63478 2 .63478 2 .63478 2H124zm8.66667 7.33333L132 132.66667V122h-2v-3h1.56152l1.13238-3 1.13237-3H141v2.75606l-2.25 1.56952-2.25 1.56952 3.25.0525L143 119v-4h5V119.03629l4.17842-.26815 4.17842-.26814 1.2234 4.5 1.22341 4.5.0982-2.66821.0982-2.66822.60699-1.58178.60694-1.58179h5.74792l.48011 2.25.48012 2.25.36658 2 .36657 2 .95242-4.49209.95243-4.4921 1.82615-.35168 1.82616-.35169.89509.89509.8951.8951-2.34398 6.94868-2.34397 6.94869H164.5l-.31336-3.25-.31336-3.25h-1.74656l-.31336 3.25-.31336 3.25h-5.82972l-2.25706-6.5-2.25707-6.5-.0781 1.25L151 123h-3v7h3v4.12073l-3.75-.31036-3.75-.31037-.31421-4.98067-.31421-4.98067-1.18579-.75402-1.18579-.75401-1.75-.0153L137 122v12h-3.66667z"/><path fill="#5b5b5b" d="M32.30169 132.49876l-2.14332-1.50124-.64261-2.92577-.6426-2.92577 1.54603-2.98972 1.54605-2.98971 2.95873-.64985 2.95873-.64985 2.03573 1.0895 2.03573 1.08949 1.02292 1.91134L44 123.86852V127H34V128.75511l1.54238 1.28006 1.54238 1.28007 1.15762-1.15762L39.4 129H43v1.88659l-2.2225 1.55671L38.55498 134H34.445zM39 123.10699v-.89301l-1.42689-.54755-1.42688-.54755-1.19556 1.44056L33.7551 124H39zm26.56629 8.55021L63 129.09091v-6.18182l2.45454-2.45454L67.9091 118H73l2 2 2 2v1.83643l.60699 1.58178L78.21398 127H68v2.88197l1.08713.67188 1.08713.67189 1.11287-1.11287L72.4 129H77V130.75511l-1.3453 1.11651-1.34532 1.1165-3.0884.61768-3.0884.61768zm6.24396-9.27552l-1.61833-1.61833-1.09596.67734L68 122.11803V124H73.42857zm30.41226 10.06162L100 130.88659V129h3.88197l.61803 1 .61803 1H108v-2.59822l-3.40461-1.23113-3.40462-1.23112-.5918-1.54221-.5918-1.5422 1.02528-1.91575 1.02528-1.91576 2.54488-.63872 2.54487-.63872 2.42626 1.10548L112 119.95712V123h-3.88197l-.61803-1-.61803-1H105v1.98426l3.75 1.76177 3.75 1.76177.3069 2.14954.3069 2.14955-2.27941 1.59655L108.55499 134h-4.10998zm15.81128.27927l-2.46621-1.24795-.85546-2.98731-.85545-2.98731 1.05373-2.76793 1.05373-2.76794 2.7289-1.03752 2.7289-1.03753 2.21911.55696 2.21911.55696 1.56992 1.56993L129 122.14286l-.0153 3.67857-.0153 3.67857-.73468 1.1003-.73469 1.10029-2.18426 1.14971L123.13151 134l-1.31574-.0147-1.31574-.0147zm5.93103-3.65683L125 127.13148v-2.74922l-1.39179-1.90338-1.39178-1.90339-1.60822 1.3347L119 123.24489V128.6l1.2 1.2 1.2 1.2h1.52963zM144.2 132.8l-1.2-1.2V122h-2v-3h2v-3h5v2.78602l1.5.57561 1.5.5756V122h-3v7.90062l1.6404.91801 1.6404.91802-.69942 1.13167L149.88197 134H145.4zm-131.08559-8.29744L10 115.89546V115H14.68335l1.8312 6.25 1.83122 6.25.51976.96622.51977.96623 2.08662-6.96623L23.55853 115.5l2.22073-.31955L28 114.8609l-.05844 1.31955-.05843 1.31955-2.81012 7.5-2.81012 7.5-3.01703.30483-3.01704.30482zM46 125.92463v-7.07536l2.75.22445 2.75.22446 2.91872-.79984 2.91872-.79985 1.83128 2.26154L61 122.22157V133h-5v-10.78602l-1.37814-.52885-1.37815-.52884-1.12186 1.12185L51 123.4v9.6h-5zM81 124v-9h4v7h8v-7h5v18h-5v-7h-8v7h-4zm50.74636 2.25l-.48664-6.75 1.66904-3 1.66904-3 2.7011-.31642 2.7011-.31642v2.91886l-1.5.57561-1.5.5756V119h3v3h-3v11h-4.76701zm23.73272 5.5l-.45815-1.25-1.87614-5.75-1.87613-5.75H157l.0703 2.75.0703 2.75.77923 1.99638.77922 1.99637.71176-4.74637.71174-4.74638h5.7549l.68175 4.5462.68174 4.54619.53515-.53515.53516-.53515.60621-3.76105.60622-3.76104 2.6934-.3121 2.6934-.31211-2.29157 6.81211-2.29158 6.8121-2.62879.31306-2.62878.31305-.6184-2.81305-.61841-2.81306-.57123-1.5-.57124-1.5-.38417 2-.38418 2-.48012 2.25-.48011 2.25h-5.02467z"/><path fill="#171717" d="M13.42308 124.79379L10.5 116.58759l-.33333-.7938L9.83333 115h4.74911L16.5 122l1.91756 7h1.44052l1.61731-5.75 1.6173-5.75.42227-1.25.42227-1.25h4.27675l-.44681 1.25-.4468 1.25-2.79414 7.75L21.7321 133h-5.38594zm18.14835 6.63478L30 129.85714v-7.54716l1.82874-1.65499L33.65748 119H40.75511l1.04205 1.25559 1.04205 1.2556.6888 2.7444.6888 2.74441H34v3.06277l1.56722.6014 1.56722.6014 1.13278-1.13279L39.4 129H43v1.6l-1.2 1.2-1.2 1.2h-7.45714zm7.2382-8.17857l-.33702-1.75h-3.94522l-.33702 1.75-.33702 1.75h5.2933zM46.5 126v-7H51v2.24489l1.43953-1.1947 1.43953-1.19471 2.81047.32226L59.5 119.5l.29569 6.75.29569 6.75H56V122.11803l-.90976-.56226-.90976-.56226-1.59024.61023L51 122.21398V133h-4.5zm18.0567 4.77749L63 128.55499V123l2-2 2-2h6.69002l1.655 1.82874L77 122.65748v4.238l-5.0498.30226-5.04981.30226 1.44929 1.97278 1.44928 1.97277 2.5019-1.33898 2.50192-1.33898 1.23254.41085 1.23254.41085-1.70536 1.70535L73.85714 133H66.11341zM72.9847 124.25l-.01532-.75-.88376-1.39572-.88376-1.39571-1.60092.61433L68 121.93723V125h5zM81 124v-9h4v8h8v-8h4v18h-4v-7h-8v7h-4zm20.2 7.8l-1.2-1.2V129h3.88197l.61803 1 .61803 1H108V128.36093l-3.25-1.43046L101.5 125.5l-.33749-2.38691-.33749-2.38691 1.33749-.84778 1.33749-.84777 3.12756-.0153 3.12755-.0153 1.37245 1.65686 1.37244 1.65685-3.75-.70217-3.75-.70217v2.93553l3.41157 1.12592 3.41157 1.12592.58485 1.52407.58484 1.52407-1.0316 1.92756L110.92963 133H102.4zm15.37143-.37143L115 129.85714v-7.71428l1.57143-1.57143L118.14286 119h7.54716l1.65499 1.82874L129 122.65748v7.03254l-1.82874 1.65499L125.34252 133h-7.19966zM123.8 129.8l1.2-1.2v-5.35511l-1.48727-1.23432-1.48726-1.23432-1.51274.58049-1.51273.58049v7.72944l.66667.66666.66666.66667H122.6zm9.2-2.21667v-5.41666l-1.25-.45834-1.25-.45833 1.25-1.325L133 118.6v-3.52963l1.93426-1.03519L136.86852 113H140v2.78602l-1.5.57561-1.5.5756v3.27675l1.5-.57561 1.5-.5756V122h-3v11h-4zm10.60699 3.83488L143 129.83643v-7.66976l-1.25-.58334L140.5 121l1.25-.58333 1.25-.58334V116h4v2.75606l2.25 1.56952 2.25 1.56952-2.25.0525L147 122v6.85714l1.5 1.5 1.5 1.5V133h-5.78602zm10.48481-4.61238L152 120.61166V119h4.06277l.3907 1.25.3907 1.25.69747 4 .69747 4 .81016-2 .81016-2 .0703-3.25L160 119h5.71871l.96963 5.25.96963 5.25.5931-1.5.5931-1.5.62323-3.75.62323-3.75h3.94747l-.64393 2.56565-.64394 2.56565-1.22914 4.18435-1.22914 4.18435-2.57576.30965-2.57576.30964-.68376-4.55964L163.77291 124H162l-.0137 2.25-.0137 2.25-.60298 2.25-.60297 2.25H156.18352z"/></g></svg>