<svg xmlns="http://www.w3.org/2000/svg" role="img" viewBox="-9.23 -9.23 479.96 92.46"><title>Welotec (member) logo</title><style>svg {enable-background:new 0 0 461.7 74.3}</style><style>.st1{fill:#c90f11}</style><path fill="#989898" d="M262.9 66.9c-.6-.3-1.3-.4-2.4-.4-1.3 0-2.2.5-2.2 1.4 0 .9.7 1.6 2 1.6 1.1 0 2.1-.6 2.5-1.2v-1.4zm0 4V70c-.7.6-1.7 1.1-2.9 1.1-1.7 0-3.6-.9-3.6-3.2 0-2.1 1.8-3 4.2-3 1 0 1.8.1 2.3.4v-.7c0-1-.7-1.6-2-1.6-1.1 0-1.9.2-2.7.6l-.8-1.4c1-.6 2.1-.8 3.6-.8 2.3 0 3.9 1 3.9 3.2V71h-2zm38.7 3.4h-2.2l1.5-3.5-3.9-9.2h2.3l1.7 4.6c.3.8.8 2.2.9 2.7.2-.6.6-1.9.9-2.7l1.8-4.6h2.2l-5.2 12.7zM329.8 63c-1.4 0-2.2.9-2.4 2.4h4.9c-.1-1.3-.8-2.4-2.5-2.4m4.5 3.9h-7c.2 1.8 1.4 2.6 2.6 2.6.9 0 1.6-.3 2.3-.8l1.2 1.2c-.9.8-2 1.2-3.6 1.2-2.5 0-4.6-1.8-4.6-4.9 0-3.2 1.9-4.9 4.6-4.9 3 0 4.4 2.2 4.4 4.7.1.4.1.7.1.9m20.5 4.2c-1.4 0-3-.5-4-1.2l.9-1.4c1 .6 2.1.9 3.1.9 1.3 0 1.9-.4 1.9-1 0-.7-.9-1.1-2.4-1.6-2.3-.8-3.1-1.5-3.1-3 0-1.7 1.5-2.6 3.6-2.6 1.3 0 2.6.4 3.6 1l-.9 1.4c-.9-.5-1.7-.8-2.7-.8-1 0-1.4.4-1.4.9s.4.8 1.9 1.4c2.3.8 3.5 1.4 3.5 3.2 0 2.1-1.9 2.8-4 2.8m23.4-.2v-5.3c0-1.9-.7-2.6-2-2.6-1.4 0-2 .9-2 2.4v5.5h-2.1v-5.3c0-1.9-.7-2.6-2-2.6-1.4 0-2 .9-2 2.4v5.5H366v-9.4h2.1v.9c.5-.7 1.4-1.1 2.5-1.1 1.4 0 2.3.5 2.9 1.4.8-.8 1.6-1.4 3.2-1.4 2.4 0 3.6 1.4 3.6 4.2v5.4h-2.1zm15.6-4c-.6-.3-1.3-.4-2.4-.4-1.3 0-2.2.5-2.2 1.4 0 .9.7 1.6 2 1.6 1.1 0 2.1-.6 2.5-1.2v-1.4zm0 4V70c-.7.6-1.7 1.1-2.9 1.1-1.7 0-3.6-.9-3.6-3.2 0-2.1 1.8-3 4.2-3 1 0 1.8.1 2.3.4v-.7c0-1-.7-1.6-2-1.6-1.1 0-1.9.2-2.7.6l-.8-1.4c1-.6 2.1-.8 3.6-.8 2.3 0 3.9 1 3.9 3.2V71h-2zm15.2-7.4c-.4-.2-.9-.3-1.6-.3-1.3 0-2.1.8-2.1 2.4V71h-2.1v-9.4h2.1v.9c.5-.6 1.4-1.1 2.4-1.1.8 0 1.4.1 1.8.4l-.5 1.7zm23.6-.5c-1.4 0-2.2.9-2.4 2.4h4.9c-.1-1.3-.8-2.4-2.5-2.4m4.5 3.9h-7c.2 1.8 1.4 2.6 2.6 2.6.9 0 1.6-.3 2.3-.8l1.2 1.2c-.9.8-2 1.2-3.6 1.2-2.5 0-4.6-1.8-4.6-4.9 0-3.2 1.9-4.9 4.6-4.9 3 0 4.4 2.2 4.4 4.7.2.4.1.7.1.9m12.9-3.4c-.4-.2-.9-.3-1.6-.3-1.3 0-2.1.8-2.1 2.4V71h-2.1v-9.4h2.1v.9c.5-.6 1.4-1.1 2.4-1.1.8 0 1.4.1 1.8.4l-.5 1.7zm-163.2-.4c-1 0-1.8.6-2.4 1.2v4c.5.6 1.4 1.2 2.5 1.2 1.5 0 2.3-1 2.3-3-.1-2.4-.9-3.4-2.4-3.4m.2 8c-1.1 0-2.1-.5-2.6-1.1v.9h-2V58.8l2-1v4.5c.8-.6 1.6-1.1 2.7-1.1 2.3 0 4.1 1.5 4.1 5 0 3.4-2 4.9-4.2 4.9m31.6-.4c-.5.3-1.2.4-2 .4-1.5 0-2.4-.8-2.4-2.5v-5.4h-1.5v-1.7h1.5v-2.7l2-1v3.7h2.6v1.7h-2.6v5.1c0 .9.3 1.1 1.1 1.1.5 0 1.1-.2 1.5-.4l-.2 1.7zm102.9 0c-.5.3-1.2.4-2 .4-1.5 0-2.4-.8-2.4-2.5v-5.4h-1.5v-1.7h1.5v-2.7l2-1v3.7h2.6v1.7h-2.6v5.1c0 .9.3 1.1 1.1 1.1.5 0 1.1-.2 1.5-.4l-.2 1.7z"/><path d="M204.7 12.7v23c0 5.3 4.8 9.6 10.8 9.6h23.9v-7.7h-23.9c-1.5 0-2.7-1.1-2.7-2.4V12.7h-8.1zm-18 7.7c1.5 0 2.7 1.1 2.7 2.4v2.7h-32.8v-2.8c0-1.3 1.2-2.3 2.7-2.3m38.3 7.5v-5.6c0-5.3-4.8-9.6-10.8-9.6h-27.6c-6 0-10.8 4.3-10.8 9.6v13.4c0 5.3 4.8 9.6 10.8 9.6H197v-7.7h-37.8c-1.5 0-2.7-1.1-2.7-2.4v-2.5h35.6c3 0 5.5-2.2 5.5-4.8m192.7-7.5c1.5 0 2.7 1.1 2.7 2.4v2.7h-32.8v-2.8c0-1.3 1.2-2.3 2.7-2.3m38.3 7.5v-5.7c0-5.3-4.8-9.5-10.8-9.5h-27.6c-6 0-10.8 4.3-10.8 9.6v13.4c0 5.3 4.8 9.6 10.8 9.6h38.4v-7.7h-38.3c-1.5 0-2.7-1.1-2.7-2.4v-2.5h35.6c3 0 5.4-2.2 5.4-4.8m-143.9 9.7c-2.1 0-3.8-1.5-3.8-3.4V23.8c0-1.9 1.7-3.4 3.8-3.4h25.2c2.1 0 3.8 1.5 3.8 3.4v10.5c0 1.9-1.7 3.4-3.8 3.4m-37.2-15.4v13.3c0 5.3 4.8 9.6 10.8 9.6h27.6c6 0 10.8-4.3 10.8-9.6V22.3c0-5.3-4.8-9.6-10.8-9.6h-27.6c-6 0-10.8 4.3-10.8 9.6m205 23h-31.2c-6 0-10.8-4.3-10.8-9.6V22.2c0-5.3 4.9-9.6 10.9-9.6h31.1l-.1 7.7h-29.9c-2.1 0-3.8 1.5-3.8 3.4v10.5c0 1.9 1.7 3.3 3.8 3.3h30v7.8zm7.5-25.6c-1.8 0-3.2-1.4-3.2-3.2 0-1.8 1.4-3.2 3.2-3.2 1.8 0 3.2 1.4 3.2 3.2 0 1.7-1.4 3.2-3.2 3.2m0-7.1c-2.1 0-3.8 1.7-3.8 3.8 0 2.1 1.7 3.8 3.8 3.8 2.1 0 3.8-1.7 3.8-3.8.1-2-1.6-3.8-3.8-3.8" class="st1"/><path d="M458.1 16.5c.6 0 .8-.1.8-.8 0-.6-.1-.7-.7-.7H457v1.5h1.1zm-1.1.7v1.4h-.8v-4.3h2.2c.9 0 1.3.3 1.3 1.3 0 .6 0 1.1-.8 1.2.6.1.7.4.7 1v.8h-.8v-.8c0-.4-.1-.6-.5-.6H457zM319.1 45.3h8.2V22.6c.1-1.2 1.2-2.2 2.6-2.2H346v-7.7h-16.1c-2.5 0-4.8.7-6.6 2-1.8-1.3-4.1-2-6.6-2h-16.1v7.7h16.1c1.4 0 2.5 1 2.6 2.2" class="st1"/><path d="M135.9 12.7l-8.2 22.5s-.2 1.3-1.6 1.3c-1.4 0-1.8-1.6-1.8-1.6l-6-22.2h-7.9l-6 22.2s-.4 1.7-1.8 1.6c-1.4 0-1.6-1.3-1.6-1.3l-8.2-22.5h-9.4l10.8 28.4s1.4 4.8 8 4.8c6.1 0 7.8-4.7 7.8-4.7l4.4-15.8 4.4 15.8s1.7 4.7 7.8 4.7c6.6 0 8-4.8 8-4.8l10.8-28.4h-9.5z" class="st1"/><g><path d="M11.2 58.8c-2.1 0-3.8-1.7-3.8-3.8V42.3c0-2.1 1.7-3.8 3.8-3.8s3.8 1.7 3.8 3.8V55c0 2.1-1.7 3.8-3.8 3.8z" class="st1"/><path d="M24.4 71.6c-2.1 0-3.8-1.7-3.8-3.8V42.3c0-2.1 1.7-3.8 3.8-3.8s3.8 1.7 3.8 3.8v25.5c0 2.1-1.7 3.8-3.8 3.8z" class="st1"/><path d="M37.7 58.8c-2.1 0-3.8-1.7-3.8-3.8V42.3c0-2.1 1.7-3.8 3.8-3.8s3.8 1.7 3.8 3.8V55c0 2.1-1.7 3.8-3.8 3.8z" class="st1"/><g><path d="M11.9 7.5H37c2.1 0 3.8 1.5 3.8 3.4v10.5c0 1.9-1.7 3.4-3.8 3.4H11.9c-2.1 0-3.8-1.5-3.8-3.4V10.9c0-1.9 1.7-3.4 3.8-3.4m37 15.4V9.6c0-5.3-4.8-9.6-10.7-9.6H10.7C4.8 0 0 4.3 0 9.6v13.3c0 5.3 4.8 9.6 10.7 9.6h27.5c5.9 0 10.7-4.3 10.7-9.6" class="st1"/></g></g></svg>