<svg xmlns="http://www.w3.org/2000/svg" role="img" viewBox="-1.41 -1.41 51.33 73.58"><title>WindEnergyToolbox logo</title><g fill-opacity="1" fill-rule="nonzero" stroke-dasharray="none" stroke-dashoffset="0" stroke-linecap="butt" stroke-linejoin="miter" stroke-miterlimit="10.433" stroke-opacity="1" stroke-width="0" text-anchor="start" transform="translate(0 -981.53) translate(-321.437 498.873)"><path fill="#707070" stroke="#707070" d="M324.4375 482.65625v.03125h-.09375l-.03125.03125h-.03125l-.03125.03125h-.03125v.03125h-.03125l-.03125.03125c-.08786.08749-.125.21125-.125.40625v24.625c-.00001.19126.03713.3225.125.40625.08301.08252.21588.125.40625.125H331c2.50485 0 4.04625-.54876 4.96875-1.75 1.36749-1.63624 1.40625-4.29627 1.40625-8.34375V492.75c.00001-4.05248-.03876-6.67751-1.40625-8.3125-.9225-1.20123-2.46389-1.78125-4.96875-1.78125h-6.5625zm3.6875 3h2.25c1.00574.00001 1.59863.1625 2.0625.71875.71776.86.78125 2.59877.78125 6.09375v6.09375c.00001 3.49123-.0635 5.23376-.78125 6.09375-.46386.55624-1.05676.71875-2.0625.71875h-2.25v-19.71875z"/><path fill="#707070" stroke="#707070" d="M367.26165 483.20544v-.035l-.00125-.0175-.00125-.01625-.00125-.01625-.0025-.01625-.00125-.01625-.0025-.015-.0025-.01375-.00375-.015-.0025-.01375-.00375-.01375-.00375-.01375-.005-.0125-.00375-.0125-.005-.0125-.005-.0125-.005-.01125-.005-.01125-.00625-.01125-.00625-.01-.00625-.01125-.00625-.01-.00625-.01-.00625-.01-.0075-.01-.015-.0175-.015-.0175-.01625-.0175c-.0825-.0825-.2-.14125-.395-.14125h-3.00873c-.195 0-.3125.05875-.395.14125-.0875.0875-.14625.205-.14625.4v18.18863c0 1.89999-.1425 3.02748-.75749 3.70623-.42.45875-1.015.68375-1.84499.68375-.7475 0-1.31874-.21-1.75374-.68875-.585-.64375-.76624-1.73374-.76624-3.70123v-18.18863c0-.195-.05375-.3125-.14125-.4-.08375-.0825-.2-.14125-.39625-.14125h-3.01248c-.195 0-.3075.05875-.395.14125-.0875.0875-.14125.205-.14125.4v18.19363c0 2.65124.35625 4.31123 1.40999 5.46872 1.09375 1.20124 2.74499 1.84124 5.24997 1.84124 2.53873 0 4.16497-.67875 5.16997-1.84624 1.17749-1.36749 1.46999-3.00248 1.46999-5.46372v-18.19363z"/><path fill="#707070" stroke="#707070" d="M347.81427 507.84403l-.00125.01875v.01625l-.00125.0175-.00125.01625-.00125.01625-.00125.015-.0025.01625-.0025.015-.0025.01375-.0025.015-.00375.01375-.00375.01375-.00375.01375-.00375.0125-.005.0125-.005.0125-.005.01125-.005.0125-.005.01125-.00625.01125-.005.01-.00625.01125-.00625.01-.0075.01-.00625.00875-.0075.01-.00625.00875-.0075.00875-.01625.0175-.01625.01625c-.0825.0825-.2.14125-.395.14125h-3.29622c-.19 0-.3075-.05875-.39-.14125-.08875-.08375-.14625-.205-.14625-.39625v-21.92861h-3.86748c-.19499 0-.31249-.0575-.39999-.14625-.08875-.0825-.1425-.2-.1425-.39499v-2.16874c0-.195.05375-.3125.1425-.4.0875-.0825.205-.14125.39999-.14125h12.11368c.19125 0 .30749.05875.39624.14125.0825.0875.14125.205.14125.4v2.16874c0 .19499-.05875.31249-.14125.39499-.08875.08875-.20499.14625-.39624.14625h-3.87123v21.92861z"/><path fill="#c51137" stroke="#c51137" d="M369.99163 521.2527l-10.33243 5.42496c-13.38367-5.20497-14.51116-5.20497-27.89033 0l-10.33193-5.42496 10.33193-5.42497c13.37917 5.20497 14.50666 5.20497 27.89033 0l10.33243 5.42497z"/><path fill="#c51137" stroke="#c51137" d="M369.99163 534.66011l-10.33243 5.42497c-13.38367-5.20497-14.51116-5.20497-27.89033 0l-10.33193-5.42497 10.33193-5.42371c13.37917 5.20496 14.50666 5.20496 27.89033 0l10.33243 5.42371z"/><path fill="#c51137" stroke="#c51137" d="M369.99163 548.06402l-10.33243 5.42472c-13.38367-5.20509-14.51116-5.20509-27.89033 0l-10.33193-5.42472 10.33193-5.41996c13.37917 5.20509 14.50666 5.20509 27.89033 0l10.33243 5.41996z"/></g></svg>