<svg xmlns="http://www.w3.org/2000/svg" role="img" viewBox="-0.48 -0.48 25.09 12.46"><title>wltp logo</title><g transform="translate(-.504 9.117)"><path d="M9.3164-6.54492L7.61134 0H6.5918L4.91016-5.04492 3.24023 0H2.22656L.50391-6.54492h1.14843l1.20118 5.06836 1.63476-5.06836h.9082l1.67579 5.06836 1.13671-5.06836z"/><path d="M12.01758 0h-1.10156v-9.11719h1.10156z"/><path d="M17.5957-.0586q-.31054.08204-.67968.13477-.36329.05274-.6504.05274-1.00195 0-1.52343-.53907-.52149-.53906-.52149-1.72851v-3.48047h-.74414v-.92578h.74414v-1.88086h1.10157v1.88086h2.27343v.92578h-2.27343v2.98242q0 .51563.02344.8086.02344.2871.16406.53906.1289.23437.35156.3457.22852.10547.6914.10547.26954 0 .5625-.07617.29298-.08203.42188-.13477h.0586z"/><path d="M24.68555-3.35156q0 .79687-.22852 1.45898-.22851.65625-.64453 1.11328-.38672.4336-.91406.67383-.52149.23438-1.10742.23438-.50977 0-.92579-.11133-.41015-.11133-.83789-.3457v2.74218h-1.10156v-8.95898h1.10156v.68554q.43946-.36914.98438-.61523.55078-.25195 1.17187-.25195 1.1836 0 1.83985.89648.6621.89063.6621 2.47852zm-1.13672.0293q0-1.1836-.4043-1.76954-.4043-.58593-1.24219-.58593-.4746 0-.95507.20507-.48047.20508-.91993.53907v3.70898q.46875.21094.80274.28711.33984.07617.76758.07617.91992 0 1.43554-.6211.51563-.62109.51563-1.83984z"/></g></svg>