<svg xmlns="http://www.w3.org/2000/svg" role="img" viewBox="-0.86 -0.86 44.78 10.97"><title>WoBike logo</title><g transform="translate(-.54 9.117)"><path d="M11.32617-8.7246L9.0586 0H7.75195L5.91797-7.24219 4.125 0H2.84766L.53906-8.7246h1.18946L3.5625-1.4707l1.80469-7.2539h1.17773L8.3672-1.4004l1.82226-7.3242z"/><path d="M17.9414-3.26953q0 1.5996-.8203 2.52539-.82032.92578-2.19727.92578-1.38867 0-2.20899-.92578-.81445-.92578-.81445-2.5254 0-1.5996.81445-2.52538.82032-.93164 2.20899-.93164 1.37695 0 2.19726.93164.82032.92578.82032 2.52539zm-1.13671 0q0-1.27149-.49805-1.88672-.49805-.6211-1.38281-.6211-.89649 0-1.39453.6211-.4922.61523-.4922 1.88672 0 1.23047.49806 1.86914.49804.63281 1.38867.63281.8789 0 1.37695-.62695.5039-.63281.5039-1.875z"/><path d="M26.31445-2.6836q0 .6504-.2461 1.14844-.24608.49805-.6621.82032-.49219.38672-1.08398.55078Q23.73633 0 22.82813 0h-3.09376v-8.7246h2.58399q.95508 0 1.42969.0703.4746.07031.9082.29297.48047.25195.69727.6504.2168.39257.2168.94335 0 .6211-.31641 1.06055-.31641.4336-.84375.69726v.04688q.88476.18164 1.39453.7793.50976.5918.50976 1.5zm-1.95117-3.93163q0-.31641-.10547-.5332-.10547-.2168-.33984-.35157-.2754-.1582-.66797-.19336-.39258-.04101-.97266-.04101h-1.3828v2.51953h1.5q.54491 0 .86718-.05274.32226-.0586.59765-.23437.2754-.17578.38672-.45117.1172-.28125.1172-.66211zm.74414 3.97851q0-.52734-.1582-.83789t-.57422-.52734q-.28125-.14649-.68555-.1875-.39843-.04688-.97265-.04688h-1.82227v3.2461h1.53516q.76172 0 1.24804-.07618.48633-.08203.79688-.29296.32812-.22852.48047-.52149.15234-.29297.15234-.75586z"/><path d="M29.05664-7.64063h-1.24219V-8.7832h1.2422zM28.98633 0h-1.10156v-6.54492h1.10156z"/><path d="M37.10742 0H35.6543l-2.625-2.86523-.71485.67968V0H31.2129v-9.11719h1.10156v5.84766l3.18164-3.2754h1.38868l-3.04102 3.02345z"/><path d="M43.6289-3.1582h-4.82226q0 .60351.18164 1.05468.18164.44532.49805.73243.30469.28125.7207.42187.42188.14063.92578.14063.66797 0 1.3418-.26368.67969-.26953.9668-.52734H43.5v1.20117q-.55664.23438-1.13672.39258-.58008.1582-1.21875.1582-1.6289 0-2.54297-.8789-.91406-.88477-.91406-2.50782 0-1.60546.87305-2.54882.8789-.94336 2.3086-.94336 1.3242 0 2.03905.77344.7207.77343.7207 2.19726zm-1.07226-.84375q-.0059-.8672-.43945-1.3418-.42774-.4746-1.30664-.4746-.88477 0-1.41211.52147-.52149.52149-.5918 1.29493z"/></g></svg>